<?xml version="1.0" encoding="UTF-8"?><svg id="Layer_1" xmlns="http://www.w3.org/2000/svg" viewBox="0 0 400 400"><defs><style>.cls-1{fill:#eb917f;}.cls-2{fill:#fbe501;}.cls-3{fill:#a5c2db;}.cls-4{fill:#0c4a4e;}.cls-5{fill:#f9f3b1;}.cls-6{fill:#f3bd99;}.cls-7{stroke:#c000e2;}.cls-7,.cls-8{stroke-width:4px;}.cls-7,.cls-8,.cls-9{stroke-miterlimit:10;}.cls-7,.cls-8,.cls-9,.cls-10{fill:none;}.cls-11{fill:#d9cfca;}.cls-12{fill:#e5dedc;}.cls-13{fill:#7ac943;}.cls-14{fill:#97f8fe;}.cls-15{fill:#f1efef;}.cls-16{fill:#f4bd99;}.cls-17{fill:#fedd46;}.cls-18{fill:#06687f;}.cls-8{stroke:#00b51e;}.cls-19{fill:#fe7038;}.cls-20{fill:#555a6e;}.cls-21{fill:#463c4b;}.cls-22{fill:#a5c3db;}.cls-23{fill:#d3e4ee;}.cls-24{fill:#152433;}.cls-25{fill:#2489c4;}.cls-9{stroke:#231f20;stroke-width:2px;}.cls-26{fill:#fe415d;}.cls-27{fill:#58d4fc;}.cls-28{fill:#d6e5ef;}.cls-29{fill:#e6dedc;}.cls-30{fill:#ff931e;}.cls-31{fill:#0071bc;}.cls-32{fill:#2487c3;}.cls-33{fill:#97d6e5;}.cls-34{fill:#7dcbe5;}.cls-35{fill:#eecf15;}.cls-36{fill:#2387c3;}.cls-37{fill:#9dd8e6;}.cls-38{fill:#2487c2;}.cls-39{fill:#0092b9;}.cls-40{fill:#e5eff1;}.cls-41{fill:#2387c2;}.cls-42{fill:#d0c8c3;}.cls-43{fill:#69a6fe;}.cls-44{fill:#a4c2db;}.cls-45{fill:#7dd4f3;}.cls-46{fill:#231f20;}.cls-47{fill:#9fddea;}.cls-48{fill:#fccc07;}.cls-49{fill:#067fa6;}</style></defs><line class="cls-10" x1="199.8" y1="113.4" x2="200.2" y2="146.1"/><line class="cls-9" x1="199.8" y1="113.4" x2="200.2" y2="135.4"/><polygon class="cls-46" points="192.5 133.3 200.2 146.1 207.5 133.1 192.5 133.3"/><line class="cls-10" x1="199.8" y1="290.1" x2="200.2" y2="257.4"/><line class="cls-9" x1="199.8" y1="290.1" x2="200.2" y2="268.1"/><polygon class="cls-46" points="207.5 270.4 200.2 257.4 192.5 270.2 207.5 270.4"/><circle class="cls-7" cx="200" cy="339.9" r="45"/><path d="m165.6,326c1.9.6,3,2.7,2.4,4.6l-.5,1.5,3.2,1-.7,2.3-10-3.1,1.2-3.8c.6-1.9,2.6-3,4.5-2.5h0Zm-.7,2.3c-.7-.2-1.4.1-1.7.8l-.5,1.5,2.6.8.5-1.5c.2-.7-.2-1.4-.9-1.6,0,0,0,0,0,0h0Z"/><path d="m172.4,319l3.9,2.5-1.2,1.9-3.6-2.3c-.6-.4-1.4-.3-1.8.3,0,0,0,0,0,.1-.4.6-.2,1.5.4,1.9,0,0,.1,0,.2.1l3.5,2.2-1.2,1.9-8.9-5.6,1.2-1.9,3.1,2c-.2-.8-.1-1.6.4-2.3.8-1.3,2.5-1.7,3.8-.9.1,0,.2.1.3.2h0Z"/><path d="m174.1,318.3c-1.4-1.6-1.3-4.1.3-5.6,1.6-1.5,4-1.4,5.5.2,0,0,0,0,.1.1,1.4,1.6,1.3,4.1-.3,5.6-1.6,1.5-4,1.4-5.5-.2,0,0,0,0-.1-.1Zm4.2-3.8c-.6-.7-1.7-.8-2.5-.2,0,0,0,0,0,0-.7.6-.8,1.7-.1,2.4,0,0,0,0,.1.1.6.7,1.7.8,2.5.2,0,0,0,0,0,0,.7-.6.8-1.7.1-2.4,0,0,0,0-.1-.1h0Z"/><path d="m187.4,308.1l2.1,4.1-2,1-1.9-3.8c-.2-.6-.9-1-1.5-.7,0,0-.2,0-.3.1-.7.3-.9,1.1-.6,1.8,0,0,0,.1.1.2l1.9,3.7-2,1-3.4-6.7,2-1,.3.6c.2-.8.7-1.5,1.5-1.8,1.4-.7,3-.2,3.8,1.2,0,.1.1.2.1.3h-.1Z"/><path d="m193.7,309.3c.5,0,1-.4,1.3-.9l2,.6c-.6,1.2-1.6,2-2.9,2.2-2.1.6-4.2-.6-4.8-2.7,0,0,0-.2,0-.3-.5-2.1.8-4.1,2.8-4.6,0,0,.2,0,.3,0,2.1-.4,4.1.9,4.5,3,0,0,0,0,0,.1v.9l-5.2,1.1c.5.6,1.3.9,2,.7h0Zm.8-3c-.3-.7-1.1-1-1.8-.8-.7.1-1.3.7-1.4,1.5l3.2-.7Z"/><path d="m198.6,304.9l5.7.2v2.2l-5.8-.2v-2.2h.1Z"/><path d="m213.9,309.5c-.5,2-2.6,3.2-4.6,2.7-.8-.2-1.5-.7-1.9-1.5l-.2.7-2.2-.7,3.1-10,2.2.7-1.1,3.5c.7-.4,1.6-.5,2.4-.2,1.9.7,3,2.8,2.3,4.8Zm-2.2-.7c.3-.9-.1-1.9-1.1-2.3,0,0,0,0-.1,0-.9-.3-1.8.2-2.2,1,0,0,0,.1,0,.2-.3.9.2,2,1.1,2.3,0,0,0,0,0,0,.9.3,1.8-.2,2.2-1,0,0,0-.1,0-.2h0Z"/><path d="m215.1,310c1.2-1.9,3.7-2.4,5.5-1.2,1.9,1.2,2.4,3.7,1.2,5.5-1.2,1.9-3.7,2.4-5.5,1.2,0,0,0,0,0,0-1.8-1.1-2.4-3.6-1.3-5.4,0,0,0,0,0-.1Zm4.8,3.1c.5-.7.4-1.8-.4-2.3,0,0,0,0-.1,0-.8-.5-1.9-.3-2.4.5,0,0,0,0,0,0-.5.7-.4,1.8.4,2.3,0,0,0,0,.1,0,.8.5,1.9.3,2.4-.5,0,0,0,0,0,0h0Z"/><path d="m233.1,316.8l-7.9,6.9-1.5-1.7.5-.5c-.9,0-1.7-.4-2.2-1.1-1.2-1.8-.8-4.3,1-5.6,1.5-1,3.5-.9,4.9.3.6.6.9,1.5.8,2.3l2.8-2.4,1.5,1.7h0Zm-6.6,2.8c.7-.6.9-1.6.3-2.4,0,0,0-.1-.1-.1-.6-.7-1.6-.9-2.4-.3,0,0-.1.1-.2.2-.7.5-.9,1.5-.4,2.2,0,0,.1.2.2.3.6.7,1.7.9,2.4.3,0,0,.1-.1.2-.2h0Z"/><path d="m235.6,327.6l-7.7.9c-2.5.3-4-.5-4.8-2.4l1.9-.9c.3.8,1.1,1.2,1.9,1.1l5.1-5.9,1.1,2.2-3.4,3.5,4.7-.8,1.1,2.2h0Z"/><path d="m233.6,337c-2.3.5-3.8-1-4.3-2.9-.5-1.5,0-3.2,1.4-4.1l1.6,1.8c-.6.4-.9,1.1-.7,1.8.2,1,.8,1.3,1.5,1.1s1-.7.8-1.6v-.5c.3-.4.6-.8,1-1.2l2.8,1.3-.9-3.7,2.2-.5,1.5,6.6-1.9.4-2.7-1.3c0,1.4-1.1,2.5-2.4,2.8h0Z"/><path class="cls-4" d="m189.5,372.8c0-.2-.3-.1-.4-.2-2.8-.6-4.9-3.2-4.8-6.1v-37.4c0-2.5,1.4-4.9,3.7-5.9.7-.3,1.4-.5,2.1-.5h9.8v9.2h-3.7c-2.2-.2-4-2.1-4.1-4.3.1-.9-.4-1.7-1.3-1.9-.4,0-.9,0-1.3.1-1.4.5-2.4,1.9-2.3,3.4v37.8c.2,1.7,1.6,2.9,3.3,2.8h9.3v2.9h-10.5.2Z"/><path class="cls-24" d="m200,332v-9.2h10c2.8.2,5.2,2.4,5.6,5.2v38.5c0,2.9-1.9,5.5-4.8,6.2-.2,0-.4,0-.5.1h-10.4v-2.9h10.1c1.6-.4,2.7-1.8,2.6-3.4v-37.6c0-1.6-1.1-3-2.7-3.2-1-.2-2,.4-2.3,1.4,0,.1,0,.2,0,.3,0,2.6-2.1,4.6-4.7,4.6h-2.9Z"/><path class="cls-15" d="m190.7,369.9c-1.7,0-3.1-1.1-3.3-2.8v-37.8c-.1-1.5.8-2.9,2.3-3.4.4-.2.9-.2,1.3-.1.9.2,1.3.8,1.3,1.9.1,2.3,1.9,4.1,4.1,4.3h3.7v3.3h-7.8c-.8,0-1.5.6-1.5,1.3,0,0,0,.1,0,.2v14.1c0,.8.6,1.5,1.3,1.5,0,0,.1,0,.2,0h7.8v3.3c-.3,0-.5,0-.8,0h-7.1c-.2,0-.5,0-.7.1-.7.4-1,1.3-.6,2,.3.5.8.8,1.4.7h7.8v3.3h-7.6c-.8-.1-1.6.4-1.7,1.2,0,.2,0,.3,0,.5v6.4Z"/><path class="cls-19" d="m190.7,369.9v-6.2c-.1-.8.4-1.6,1.2-1.7.2,0,.3,0,.5,0h7.6v7.8h-9.3Z"/><path class="cls-12" d="m200,335.3v-3.3h3.1c2.5,0,4.6-2,4.7-4.5,0,0,0,0,0,0,0-1,.8-1.8,1.8-1.8.2,0,.3,0,.5,0,1.5.3,2.7,1.6,2.7,3.2v37.5c0,1.6-1,3-2.6,3.4h-.7v-5.6c0-1.8-.4-2.3-2.3-2.3h-7.1v-3.3h1.6c.7,0,1.3-.6,1.4-1.3,0-.7-.5-1.4-1.2-1.5-.6,0-1.2,0-1.8,0h0v-3.3h7.6c.9,0,1.7-.7,1.7-1.6,0,0,0,0,0-.1v-13.6c0-4.5-.5-1.8-1.8-1.8h-7.6Zm7.8,23.3c.8,0,1.5-.6,1.5-1.4s-.6-1.5-1.4-1.5h0c-.7,0-1.6.8-1.5,1.5,0,.8.6,1.4,1.3,1.4,0,0,0,0,0,0Z"/><path class="cls-26" d="m200,362h7.1c1.9,0,2.3.4,2.3,2.3v5.6h-9.4v-7.8h0Z"/><path class="cls-45" d="m200,335.3h7.5c.9-.1,1.7.5,1.8,1.3,0,.2,0,.3,0,.5v13.6c0,.9-.7,1.7-1.6,1.7,0,0,0,0-.1,0h-7.6v-17h0Z"/><path class="cls-14" d="m200,335.4v17h-7.8c-.8,0-1.5-.6-1.5-1.3,0,0,0-.1,0-.2v-14.1c0-.8.6-1.5,1.3-1.5,0,0,.1,0,.2,0h7.8Z"/><path class="cls-29" d="m200,358.8h-7.8c-.8,0-1.5-.5-1.5-1.3,0-.6.2-1.1.7-1.4.2,0,.5-.1.7-.1h7.9v2.9h0Z"/><path class="cls-11" d="m200,358.6v-2.9h1.8c.7.2,1.2.8,1.2,1.5,0,.7-.7,1.3-1.4,1.3h-1.6Z"/><path class="cls-42" d="m207.8,358.6c-.8,0-1.4-.6-1.4-1.3,0,0,0,0,0,0,0-.8.7-1.4,1.5-1.5.8,0,1.4.6,1.4,1.4,0,0,0,0,0,.1h0c0,.8-.6,1.4-1.4,1.4,0,0,0,0-.1,0Z"/><path d="m203.4,348.1c1.6.4,3,1.4,4,2.7,1,1.3,1.5,2.9,1.5,4.6.1,2.4-.8,4.8-2.7,6.4-1.9,1.6-4.3,2.4-6.8,2.3-2,.1-4-.4-5.7-1.5-1.7-1-3-2.6-3.6-4.4l5.8-3.3c.3,1.7,1.9,2.8,3.6,2.7,1.9,0,1.7-.2,2.2-.7.5-.4.8-1.1.8-1.8,0-.7-.3-1.3-.8-1.8-.6-.4-1.4-.7-2.2-.6h-1.4l-2.6-3.8,4.1-5.1h-8.7v-6.3h16.8v5.2l-4.3,5.3h0Z"/><path d="m52.1,169.1l1.2,3.8-1.9.6-1.1-3.5c0-.5-.6-.9-1.1-.9-.1,0-.2,0-.3,0-.6.1-1,.7-.8,1.3,0,.1,0,.2.1.3l1.1,3.4-1.9.6-2-6.2,1.9-.6.2.6c.2-.7.8-1.2,1.5-1.3,1.3-.4,2.7.3,3.1,1.6,0,0,0,.1,0,.2Z"/><path d="m53,164.8c0-.6.4-1.2,1-1.3.6,0,1.2.4,1.3,1s-.4,1.2-1,1.3c0,0,0,0,0,0-.6,0-1.2-.4-1.3-1Zm.4,1.7l1.9-.3.9,6.4-1.9.3-.9-6.4Z"/><path d="m57.1,169.2c0-1.9,1.5-3.4,3.4-3.4,0,0,0,0,.1,0,1.2,0,2.3.6,2.9,1.7l-1.7,1c-.3-.7-1.2-1-1.9-.7-.5.2-.8.8-.8,1.4,0,.8.5,1.4,1.3,1.5,0,0,0,0,.1,0,.5,0,1-.2,1.3-.7l1.7,1c-1,1.6-3.2,2.1-4.8,1.1-1-.6-1.6-1.8-1.6-3h0Z"/><path d="m71.6,167.8l-1.6,6.3-1.9-.5v-.6c-.5.4-1.3.5-1.9.3-1.7-.5-2.7-2.3-2.2-4,0,0,0,0,0-.1.3-1.8,2-2.9,3.8-2.6.7.1,1.3.6,1.7,1.2v-.6c0,0,2,.5,2,.5h0Zm-2.7,2.7c.2-.8-.3-1.7-1.1-1.9,0,0,0,0,0,0-.8-.2-1.6.2-1.9,1,0,0,0,.1,0,.2-.2.8.3,1.7,1.1,1.9,0,0,0,0,0,0,.8.2,1.6-.2,1.9-1,0,0,0-.1,0-.2Z"/><path d="m330.1,167.6l4.5-1.1.4,1.7-4.5,1.1-.4-1.7Z"/><path d="m336.3,167.7c0-1.8,1.3-3.3,3.1-3.4,1.1,0,2.2.5,2.8,1.5l-1.6,1c-.2-.4-.7-.7-1.2-.6-.7,0-1.3.5-1.3,1.2,0,0,0,.2,0,.3,0,.8.6,1.4,1.3,1.4,0,0,0,0,0,0,.5,0,1-.3,1.2-.7l1.6.9c-.5,1-1.6,1.7-2.7,1.7-1.8,0-3.3-1.3-3.4-3.1,0,0,0,0,0,0v-.2Z"/><path d="m342.8,167.5c.3-1.8,1.9-3,3.7-2.7,1.8.3,3,1.9,2.7,3.7-.3,1.8-1.9,3-3.7,2.7,0,0,0,0,0,0-1.7-.2-3-1.8-2.7-3.6,0,0,0,0,0-.1Zm4.6.8c.1-.8-.3-1.5-1.1-1.7-.7-.1-1.4.3-1.6,1,0,0,0,.1,0,.2-.1.8.3,1.5,1.1,1.7.7.1,1.4-.3,1.6-1,0,0,0-.1,0-.2Z"/><path d="m359.2,172.2l-1.6,3.4-1.7-.8,1.5-3.3c.3-.6.2-1-.4-1.3s-1,0-1.4.6l-1.5,3.1-1.7-.8,1.5-3.3c.3-.6.2-1-.4-1.3s-1,0-1.4.6l-1.5,3.1-1.7-.8,2.6-5.5,1.7.8-.2.5c.6-.3,1.2-.3,1.8,0,.6.2,1,.8,1.1,1.4.6-.3,1.4-.3,2,0,1.1.5,1.7,1.8,1.2,3,0,.1-.1.2-.2.3l.3.3Z"/><path class="cls-28" d="m314.8,224.8h45.7c0,.8,0,1.6-.3,2.3-.5,1.2-1.5,2.1-2.8,2.3h-39c-1.9,0-3.5-1.6-3.5-3.5v-1h-.1Z"/><path class="cls-28" d="m342.1,233h.1c-.9.6-1.2,1.7-1,2.7h-12.3c-.4,0-.5,0-.5-.5-.2-1.1.6-2.1,1.7-2.3.2,0,.4,0,.5,0h2.7c.4,0,.6,0,.6-.5v-1.3h4.1q1.3,0,1.3,1.3c0,.5.2.6.6.6h2.2Z"/><path class="cls-44" d="m342.1,233h-2.2c-.4,0-.6,0-.6-.6q0-1.3-1.3-1.3h-4.1v-1.8h8.2v3.7Z"/><path class="cls-22" d="m360.4,224.9h3.6c.1,1.1-.1,2.2-.7,3.1-.6.9-1.6,1.4-2.7,1.4h-3.2c1.3-.2,2.3-1.1,2.8-2.3.2-.7.3-1.5.3-2.2h0Z"/><path class="cls-3" d="m341.2,235.8c-.2-1,.1-2.1,1-2.7h2.6c1.4,0,2,1.2,1.8,2.5,0,.3-.3.2-.5.2h-4.9Z"/><line class="cls-10" x1="110.9" y1="202" x2="143.6" y2="201.5"/><line class="cls-9" x1="110.9" y1="202" x2="132.9" y2="201.7"/><polygon class="cls-46" points="130.8 209.2 143.6 201.5 130.6 194.2 130.8 209.2"/><line class="cls-10" x1="288.6" y1="202" x2="255.9" y2="201.5"/><line class="cls-9" x1="288.6" y1="202" x2="266.6" y2="201.7"/><polygon class="cls-46" points="268.9 194.2 255.9 201.5 268.7 209.2 268.9 194.2"/><circle class="cls-7" cx="59.6" cy="202.8" r="45"/><path d="m24.5,200.3c-2.5-.4-4.2-2.8-3.8-5.3,0,0,0-.2,0-.3.3-1.5,1.3-2.8,2.8-3.4l.7,2c-.8.3-1.4,1-1.5,1.9-.4,1.3.4,2.7,1.7,3,.1,0,.3,0,.4,0,1.4.4,2.8-.4,3.1-1.8,0-.1,0-.2,0-.3.3-.8,0-1.7-.7-2.3l1.4-1.6c1.1,1.1,1.6,2.7,1.3,4.2-.4,2.5-2.8,4.2-5.3,3.8,0,0-.2,0-.3,0h0Z"/><path d="m27.9,191.2c-1.7-.8-2.4-2.9-1.6-4.6.8-1.7,2.9-2.4,4.6-1.6,1.7.8,2.4,2.9,1.6,4.6-.9,1.7-2.9,2.4-4.6,1.6Zm2.2-4.4c-.7-.4-1.6,0-2,.6,0,0,0,0,0,0-.3.7,0,1.6.7,2,.7.4,1.6,0,2-.6,0,0,0,0,0,0,.4-.7.1-1.6-.6-1.9,0,0,0,0-.1,0Z"/><path d="m37.6,176l2.9,2.7-1.3,1.4-2.8-2.6c-.5-.4-1-.5-1.4,0-.4.4-.4,1.1,0,1.5,0,0,0,0,.1.1l2.7,2.5-1.3,1.4-2.8-2.6c-.5-.4-1-.5-1.4,0-.4.4-.4,1.1,0,1.5,0,0,0,0,.1.1l2.7,2.5-1.3,1.4-4.8-4.4,1.3-1.4.4.4c-.1-.7.1-1.3.6-1.8.4-.6,1.1-.8,1.8-.7-.1-.7,0-1.5.6-2,.9-1,2.5-1.1,3.5-.2,0,0,.1.1.2.2Z"/><path d="m43.2,169.7l3.4,5.6-1.7,1-.3-.5c0,.7-.5,1.3-1.2,1.6-1.1.7-2.6.4-3.4-.7,0,0-.1-.2-.1-.3l-2.1-3.4,1.7-1,1.9,3.2c.2.5.8.8,1.3.6.1,0,.2-.1.3-.2.6-.3.8-1,.4-1.6,0,0,0-.1-.1-.2l-1.8-3,1.7-1h0Z"/><path d="m75.2,171.5l-1,2.1c-.2.5.2.8,1,1.1l-.8,1.6c-2.4-.9-2.8-1.9-2-3.5l1-2.1-.9-.4.8-1.7.9.4.5-1.1,2,.3-.8,1.6,1.2.6-.8,1.7-1.2-.6h.1Z"/><path d="m78.6,171.2l1.6,1-3.5,5.5-1.6-1,3.5-5.5Zm.8-1.6c.3-.6,1-.7,1.6-.4.6.3.7,1,.4,1.6-.3.6-1,.7-1.6.4,0,0,0,0,0,0-.5-.4-.7-1-.4-1.6h0Z"/><path d="m79.7,175.7c1.3-1.4,3.5-1.5,4.9-.2,1.4,1.3,1.5,3.5.2,4.9-1.3,1.4-3.5,1.5-4.9.2,0,0,0,0,0,0-1.4-1.3-1.5-3.5-.2-4.9Zm3.7,3.3c.6-.6.6-1.5,0-2.1,0,0,0,0,0,0-.5-.6-1.4-.6-2,0,0,0-.1.1-.1.2-.6.6-.5,1.5,0,2.1.6.6,1.5.5,2.1,0,0,0,0,0,0,0Z"/><path d="m89.8,186.1l-3.3,2.2-1.1-1.6,3.1-2.1c.5-.2.7-.8.5-1.3,0-.1-.1-.2-.2-.3-.4-.6-1-.8-1.8-.2l-2.9,2-1.1-1.6,5.4-3.7,1.1,1.6-.5.3c.7,0,1.3.5,1.7,1.1.7,1.1.5,2.6-.6,3.3,0,0-.2.1-.3.2h0Z"/><path d="m91.7,193.8c-1.5.6-3.3-.1-3.9-1.7,0-.1,0-.2-.1-.3-.6-1.2-.3-2.7.6-3.7l1.6,1.3c-.5.4-.7,1.1-.4,1.7.3.8.9,1,1.4.8s.8-.7.5-1.5l-1-2.7,5-1.6,1.9,4.9-1.8.7-1.2-3.1-1.2.4.3.7c.7,1.4.1,3.1-1.3,3.8-.1,0-.3.1-.4.2h0Z"/><path d="m94.5,203.9c-2.3.4-4.5-1.2-4.9-3.6,0-.1,0-.3,0-.4-.3-2.6,1.5-5,4.1-5.4,0,0,0,0,0,0,2.6-.3,4.9,1.6,5.2,4.2,0,0,0,0,0,0,.2,1.6-.4,3.2-1.7,4.2l-1.2-1.7c.7-.6,1-1.4.8-2.3-.2-1.5-1.6-2.5-3-2.4-1.5.2-2.5,1.6-2.4,3.1h0c0,1,.6,1.9,1.6,2.2l-.3-2.4,1.8-.2.5,4.5h-.8.2Z"/><path class="cls-17" d="m71.5,189.9c-8.5-.2-17.8-.2-26.3,0-14.8,1.9-22,20.9-11.6,31.8,2.2,3.3-1.6,9.5,2.3,11.8,3.3,1,5.2-3.4,7.4-5.1,9.2-1,20.3.5,29.8-.5,22.1-2.9,20.7-37.2-1.6-38.2v.2Z"/><path d="m49.6,206.2c1.6,0,3.2.5,4.4,1.5,1.2,1.1,1.8,2.7,1.7,4.3,0,1.7-.6,3.4-1.9,4.5-1.3,1.1-3,1.7-4.7,1.6-1.4,0-2.9-.3-4.1-1-1.2-.7-2-1.7-2.5-3l4-2.3c.3,1.2,1.4,2,2.6,1.9,1.4,0,1.1-.1,1.5-.4.7-.7.7-1.7,0-2.4,0,0,0,0,0,0-.4-.3-.9-.4-1.4-.4h-5.7l.7-10.5h10.5v4.4h-6.3v1.9h1.2Z"/><path d="m75.3,207.5v1.8c0,2.4-.8,4.7-2.5,6.4-1.7,1.6-4,2.5-6.4,2.4-2.6,0-5-.9-6.9-2.7-3.6-3.6-3.7-9.5,0-13.2,1.8-1.8,4.2-2.8,6.6-2.7,1.6-.1,3.2.3,4.6,1.1,1.4.6,2.5,1.7,3.2,3l-3.9,2.2c-.4-.6-.9-1-1.6-1.3-.7-.3-1.5-.5-2.3-.5-2.6,0-4.8,2-4.9,4.7,0,0,0,.2,0,.2,0,1.3.4,2.6,1.3,3.5,1,1,2.4,1.5,3.8,1.4,1.7,0,3.3-.8,4.1-2.3h-4.3v-3.9h9.2Z"/><circle class="cls-7" cx="340.4" cy="201.8" r="45"/><path d="m308.8,206.4l.6-1.1,1.6,1-.7,1.2c.4.5.8,1.1,1,1.8.7,2.3-.6,4.7-2.9,5.4,0,0-.1,0-.2,0-2.3.7-4.8-.7-5.5-3,0,0,0,0,0,0-.7-2.3.6-4.7,2.9-5.4,0,0,.1,0,.2,0,1-.3,2.1-.2,3,.2Zm.5,2.9l-.9,1.5-1.6-1,1-1.7c-.5-.1-.9-.1-1.4,0-1.3.3-2.2,1.7-1.8,3.1,0,0,0,0,0,0,.4,1.3,1.7,2.1,3.1,1.7,0,0,0,0,0,0,1.3-.3,2.2-1.7,1.8-3.1,0,0,0,0,0,0,0-.2,0-.4-.2-.6h0Z"/><path d="m303.9,198.7h6.1v1.7h-.6c.6.4.9,1.1.8,1.8,0,1.2-1,2.3-2.2,2.3,0,0-.2,0-.3,0h-3.8v-1.8h3.5c.5,0,1-.3,1.1-.9,0,0,0-.1,0-.2,0-.7-.4-1.1-1.3-1.1h-3.3v-1.8Z"/><path d="m305.4,190.2l6,1.3-.4,1.8h-.6c.4.5.5,1.2.3,1.8-.5,1.7-2.4,2.6-4.1,2.1-1.5-.5-2.4-1.9-2.2-3.5.1-.7.5-1.2,1.1-1.6h-.6c0-.1.4-1.9.4-1.9h.1Zm2.6,2.4c-.8-.2-1.6.2-1.8,1,0,0,0,0,0,0-.2.7.3,1.5,1,1.7,0,0,0,0,0,0,.8.2,1.6-.2,1.8-1,0,0,0,0,0,0,.2-.7-.3-1.5-1-1.7,0,0,0,0,0,0h0Z"/><path d="m310.8,183.7l3.4,1.6-.8,1.7-3.2-1.5c-.5-.3-1.2,0-1.5.5,0,0,0,0,0,0-.3.6-.1,1.2.7,1.6l3,1.4-.8,1.7-5.5-2.6.8-1.7.5.2c-.3-.6-.3-1.3,0-1.9.6-1.2,1.9-1.7,3.1-1.1,0,0,.1,0,.2.1h.1Z"/><path d="m312.6,180.2l1.8,1.3c.4.3.7,0,1.2-.7l1.4,1c-1.2,2.1-2.2,2.2-3.6,1.2l-1.8-1.3-.6.8-1.4-1,.6-.8-.9-.7.6-1.8,1.4,1,.7-1,1.4,1-.7,1h-.1Z"/><path d="m317.3,172.6l4.2,4.4-1.3,1.3-.4-.4c0,.7-.3,1.3-.8,1.8-.9.9-2.3.9-3.2,0,0,0-.2-.2-.2-.3l-2.6-2.7,1.3-1.3,2.4,2.5c.3.4.8.5,1.2.3.1,0,.2-.2.3-.3.5-.4.6-1,.2-1.5,0,0-.1-.1-.2-.2l-2.3-2.4,1.3-1.3h0Z"/><path d="m328.5,168.7l1.8,3.3-1.6.9-1.7-3.2c-.3-.5-.7-.8-1.3-.5s-.6.8-.3,1.5l1.6,3.1-1.6.9-1.7-3.2c-.3-.5-.7-.8-1.3-.5s-.6.8-.3,1.5l1.6,3.1-1.6.9-2.9-5.4,1.6-.9.3.5c0-.5.4-1,1.1-1.4.6-.3,1.2-.3,1.8,0,0-.6.4-1.1,1.2-1.5,1.1-.6,2.4-.2,3,.8,0,.1.1.2.2.4v-.3Z"/><path d="m365.1,178.2c-1,1.3-2.9,1.6-4.2.6,0,0,0,0,0,0-.5-.4-.9-1.1-.9-1.8l-2,2.3-1.4-1.2,5.7-6.4,1.4,1.2-.4.4c1.5,0,2.9,1.1,3,2.6,0,.9-.3,1.8-1.1,2.4h0Zm-1.4-1.2c.6-.6.5-1.5,0-2.1,0,0,0,0,0,0-.6-.5-1.4-.5-2,0,0,0,0,.1-.1.2-.6.6-.5,1.5,0,2.1,0,0,0,0,0,0,.5.5,1.4.5,2,0,0,0,.1-.1.2-.2h0Z"/><path d="m371.8,182.2l-5,3.5-1.1-1.5.5-.3c-.7,0-1.3-.4-1.6-1-.7-1-.5-2.4.5-3.2,0,0,.1,0,.2-.1l3.1-2.2,1.1,1.5-2.8,2c-.5.3-.7.9-.4,1.4,0,0,0,0,0,.1.4.5,1.1.6,1.6.3,0,0,0,0,.1,0l2.7-1.9,1.1,1.5h-.1Z"/><path d="m372.1,186.9l-2,.9c-.5.2-.3.7,0,1.4l-1.5.7c-1.3-2.1-.9-3,.7-3.7l2-.9-.4-.9,1.6-.8.4.9,1.1-.5,1.3,1.4-1.5.7.5,1.1-1.6.8-.5-1.1h-.1Z"/><path d="m376.5,195l-5.9,1.5-.5-1.8h.6c-.6-.4-1-1-1.2-1.7-.4-1.6.7-3.2,2.3-3.6,0,0,0,0,.1,0,1.6-.5,3.4.4,3.9,2,.2.7,0,1.4-.3,2h.6c0-.1.5,1.6.5,1.6h-.1Zm-3.4-1c.8-.1,1.3-.9,1.1-1.7,0,0,0,0,0-.1-.1-.7-.8-1.2-1.5-1.1,0,0-.2,0-.3,0-.8.1-1.3.9-1.1,1.7,0,0,0,0,0,.1.1.7.8,1.2,1.5,1.1,0,0,.2,0,.3,0Z"/><path d="m375.1,199.5h-2.2c-.5.2-.5.6-.4,1.4h-1.7c-.4-2.3.3-3,2-3.1h2.2v-1.1h1.8v.9h1.2l.7,1.7h-1.7v1.4h-1.8v-1.2h-.1Z"/><path d="m376.9,202.3v1.8l-6.2-.4v-1.8l6.2.4Zm1.7,0c.6,0,1.1.6,1,1.2,0,.6-.6,1.1-1.2,1s-1.1-.6-1-1.2c0-.6.6-1.1,1.2-1h0Z"/><path d="m373.8,205.1c1.7.4,2.8,2.1,2.4,3.8,0,0,0,0,0,.1-.4,1.7-2.1,2.9-3.8,2.5,0,0,0,0,0,0-1.7-.4-2.8-2.1-2.4-3.8,0,0,0,0,0-.1.4-1.7,2.1-2.9,3.8-2.5,0,0,0,0,0,0Zm-1,4.5c.8.2,1.5-.3,1.7-1.1s-.3-1.5-1.1-1.7c-.8-.2-1.5.3-1.7,1.1-.2.7.3,1.5,1,1.7,0,0,0,0,0,0Z"/><path d="m370,218.3l-3.4-1.6.8-1.7,3.2,1.5c.5.3,1.2,0,1.5-.5,0,0,0,0,0,0,.3-.6.1-1.2-.7-1.6l-3-1.4.8-1.7,5.5,2.6-.8,1.7-.5-.2c.3.6.3,1.3,0,1.9-.6,1.2-1.9,1.7-3.1,1.1,0,0-.1,0-.2-.1h-.1Z"/><path class="cls-41" d="m320.2,197.5v-8.8c-.1-1,.6-2,1.6-2.1.2,0,.3,0,.5,0h30.5c1-.1,2,.6,2.1,1.6,0,.2,0,.3,0,.5v28.7c0,1-.6,1.8-1.6,1.9-.1,0-.2,0-.3,0h-30.8c-1,0-1.8-.7-1.9-1.7,0,0,0-.2,0-.2v-19.9h-.1Zm19.2,18.2c.4,0,.6-.3.9-.6.9-.8,1.6-1.7,2.1-2.7.1-.3.4-.5.8-.5.9,0,1.9,0,2.8-.2,2.4-.6,3.7-2.2,3.5-4.5,0-1.2-.5-2.4-1.3-3.4-.4-.4-.4-1.1,0-1.5.8-1.2,1.3-2.6,1.3-4,.9-.5,1.2-1.6.7-2.5-.1-.2-.3-.4-.6-.6-.6-.5-1.4-.5-2,0-.2-.3-.6-.4-.9-.5-1.1-.4-2.3-.5-3.4-.4-.4,0-.9-.2-1-.6-.5-1.1-1.2-2-2.1-2.7-1.2-1.1-3-1.4-4.5-.6-1,.6-1.8,1.3-2.4,2.3-.3.5-.5,1.2-1,1.5s-1.2,0-1.8,0c-1.1,0-2.1.3-3,.9-.4-.2-.9-.3-1.4-.2-.7.2-1.2.7-1.4,1.4-.2.8.2,1.6.9,2,0,1.5.5,3,1.4,4.2.3.3.3.8,0,1.1-.7,1-1.1,2.1-1.3,3.2-.3,1.5.3,3.1,1.5,4,1.2.9,2.7,1.2,4.2,1.1.8,0,1.4.1,1.6,1,0,.2.2.4.4.6.6,1,1.4,1.7,2.4,2.2,0,.8.4,1.5,1.1,1.8.9.4,2,0,2.4-.9.1-.2.2-.5.2-.8h-.1Z"/><path class="cls-20" d="m320.2,197.5v19.9c0,1,.6,1.8,1.6,1.9.1,0,.2,0,.3,0h30.8c1,0,1.8-.7,1.9-1.7,0,0,0-.2,0-.2v-19.9h2.4c1.9.4,3.3,2.2,3.1,4.2v23.1h-45.6v-24c.1-1.8,1.5-3.2,3.3-3.4h2.2Z"/><path class="cls-21" d="m360.4,224.8v-23.1c0-2.2-1-3.7-3.1-4.2h3.2c1.9,0,3.4,1.5,3.5,3.4v23.9h-3.6Z"/><path class="cls-27" d="m349.5,198.2c0,1.4-.5,2.8-1.3,4-.4.4-.4,1.1,0,1.5.7,1,1.2,2.2,1.3,3.4.2,2.3-1.1,3.9-3.5,4.5-.9.2-1.9.3-2.8.2-.4,0-.7.1-.8.5-.5,1.1-1.2,2-2.1,2.7-.3.2-.5.5-.9.6,0-.3-.2-.6-.3-.9,1.1-.7,1.9-1.6,2.4-2.8.1-.3,0-.3-.2-.3-1.1-.2-2.2-.5-3.3-.9-.3,0-.6,0-.9,0-1,.4-2.1.7-3.2.9-.5,0-.4.2-.3.6.6,1,1.3,1.9,2.2,2.7l-.2.8c-1-.5-1.8-1.2-2.4-2.2-.2-.2-.3-.4-.4-.6-.2-.8-.8-1-1.6-1-1.5.1-3-.3-4.2-1.1-1.2-.9-1.8-2.5-1.5-4,.2-1.2.6-2.3,1.3-3.2.3-.3.3-.8,0-1.1-.9-1.2-1.3-2.7-1.4-4.2.3.1.6.2.9.2,0,1.4.6,2.7,1.4,3.8.9-1.1,1.9-2.1,3-2.9.1-.1.2-.2.2-.4.2-1.1.4-2.2.8-3.3.2-.5,0-.6-.4-.6-1.2,0-2.3.2-3.4.6l-.6-.6c.9-.6,1.9-.9,3-.9.6,0,1.4.2,1.8,0s.6-1,1-1.5c.6-1,1.4-1.7,2.4-2.3,1.5-.8,3.3-.5,4.5.6.9.8,1.6,1.7,2.1,2.7.1.4.6.7,1,.6,1.1,0,2.3,0,3.4.4.3,0,.6.3.9.5-.2.2-.3.5-.6.6-1.1-.4-2.2-.6-3.3-.6-.5,0-.6.2-.4.6.3.9.6,1.8.7,2.8,0,.6.5,1,.9,1.4.2.2.5.4.7.6.5.5,1,1,1.4,1.5,0,.1.2.4.4,0,.7-1,1.2-2.2,1.3-3.5.3,0,.6,0,.9-.2v-.2Zm-17.9,4.9c0,.7.1,1.6.1,2.4,0,.5.3.9.7,1.2,1.5,1.1,3.1,2,4.8,2.7.2.1.5.1.7,0,1.7-.8,3.4-1.7,4.9-2.8.3-.2.5-.5.5-.8.2-1.9.2-3.9,0-5.8,0-.3-.2-.5-.4-.7-1.6-1.1-3.3-2.1-5.1-2.9h-.6c-1.8.8-3.4,1.7-5,2.8-.2.1-.4.4-.4.7-.1,1-.2,2.1-.2,3.1h0Zm6-12.5c-.3,0-.5,0-.8.1-1.5.6-2.7,1.7-3.3,3.2-.2.3,0,.3.3.3,1.1.2,2.2.5,3.3.9.3,0,.6,0,.9,0,1.1-.4,2.2-.7,3.3-.9.3,0,.4-.1.2-.4-.3-.6-.6-1.1-1-1.6-.7-.9-1.7-1.5-2.9-1.7h0Zm-6.5,20.3h.3q.7,0,.5-.7c-.3-.9-.5-1.8-.7-2.7,0-.3,0-.7-.3-.9-1-.7-1.9-1.6-2.6-2.6-.2-.3-.3-.2-.5,0-.5.7-.8,1.5-1,2.4-.4,1.2,0,2.5.8,3.3,1,.8,2.3,1.3,3.6,1.2h-.1,0Zm12.7,0c.8,0,1.7,0,2.5-.3,1.7-.5,2.7-2.2,2.3-3.9-.2-.9-.6-1.8-1.1-2.6-.2-.4-.3-.4-.6,0-.6.8-1.4,1.6-2.2,2.2-.4.3-.7.8-.7,1.3,0,.8-.3,1.6-.6,2.4q-.3,1,.4,1h0Zm-12.9-5.6c-.2-1.6-.2-3.2,0-4.8-.8.6-1.5,1.3-2.1,2.1-.2.1-.2.4,0,.5,0,0,0,0,0,0h0c.6.8,1.3,1.5,2.1,2.1h0Zm8-9.4c1.5.7,2.9,1.5,4.2,2.4-.2-1-.4-2-.8-2.9,0-.2-.1-.4-.3-.4,0,0,0,0,0,0-1,.2-2,.4-3,.8h0Zm-2.6,14.1c-1.5-.7-2.9-1.5-4.2-2.4.2,1,.4,2,.8,2.9,0,.1,0,.3.2.3,0,0,0,0,0,0,1-.2,2-.4,3-.8h.1Zm-4.2-11.6c1.3-.9,2.7-1.8,4.2-2.5-1-.3-2-.6-3-.8-.3,0-.3.1-.4.3-.4.9-.6,1.9-.8,2.9h0Zm12.2,2.2c.2,1.6.2,3.2,0,4.8.8-.6,1.5-1.3,2.1-2.1.2-.2.1-.5,0-.7-.6-.8-1.3-1.4-2.1-2Zm-5.4,9.4c1,.3,2,.6,3,.8.2,0,.3,0,.3-.2.4-1,.7-2,.8-3-1.3.9-2.7,1.7-4.2,2.4h.1Z"/><path class="cls-23" d="m347,195.6c.3-.1.4-.4.6-.6.6-.4,1.4-.4,2,0,.8.6,1.1,1.7.5,2.5-.2.2-.4.4-.6.6-.3.1-.6.2-.9.2-1,0-1.8-.8-1.8-1.9,0-.2,0-.4.1-.6v-.3h.1Z"/><path class="cls-23" d="m335.8,215.6l.2-.8c1.3-1.3,2.1-1.3,3.3,0,0,.3.2.6.3.9,0,1-.8,1.9-1.9,1.9s-1.9-.8-1.9-1.9h0Z"/><path class="cls-23" d="m326.5,198.4c-.3,0-.6,0-.9-.2-.9-.5-1.2-1.6-.7-2.5.3-.5.7-.8,1.2-.9.5,0,1,0,1.4.2l.6.6c.5,1.7,0,2.6-1.6,2.8Z"/><path class="cls-38" d="m331.6,203.1c0-1,0-2.1.2-3.1,0-.3.2-.5.4-.7,1.6-1.1,3.2-2.1,5-2.8.2,0,.4-.1.6,0,1.8.8,3.5,1.8,5.1,2.9.2.1.4.4.4.7.2,1.9.2,3.9,0,5.8,0,.3-.2.6-.5.8-1.5,1.1-3.2,2-4.9,2.8-.2.1-.5.1-.7,0-1.7-.8-3.3-1.7-4.8-2.7-.4-.2-.7-.7-.7-1.2,0-.8-.1-1.6-.1-2.4h0Zm8.7-.2c0-1.5-1.3-2.7-2.8-2.7-1.5,0-2.7,1.3-2.7,2.8,0,1.5,1.2,2.7,2.7,2.7,1.5,0,2.7-1.2,2.7-2.7,0,0,0,0,0,0h0Z"/><path class="cls-36" d="m337.6,190.6c1.2,0,2.3.7,2.9,1.7.4.5.7,1,1,1.6.2.3.1.4-.2.4-1.1.2-2.2.5-3.3.9-.3,0-.6,0-.9,0-1.1-.4-2.2-.7-3.3-.9-.2,0-.4,0-.3-.3.8-1.4,1.6-2.7,3.3-3.2.3,0,.5-.1.8-.1h0Z"/><path class="cls-36" d="m331.1,210.9c-1.3.1-2.6-.3-3.6-1.2-.9-.8-1.2-2.1-.8-3.3.2-.8.6-1.6,1-2.4.2-.3.3-.3.5,0,.8.9,1.7,1.8,2.6,2.6.2.2.3.6.3.9.2.9.4,1.8.7,2.7q.2.7-.5.7h-.2Z"/><path class="cls-36" d="m343.8,210.9q-.7,0-.4-1c.2-.8.4-1.6.6-2.4,0-.5.3-1,.7-1.3.8-.6,1.6-1.4,2.2-2.2.2-.3.4-.3.6,0,.5.8.9,1.7,1.1,2.6.4,1.7-.6,3.4-2.3,3.9-.8.2-1.7.3-2.5.3h0Z"/><path class="cls-32" d="m339.2,214.8c-1.1-1.2-1.9-1.2-3.3,0-.9-.7-1.7-1.7-2.2-2.7-.2-.4-.2-.5.3-.6,1.1-.2,2.2-.5,3.2-.9.3,0,.6,0,.9,0,1.1.4,2.2.7,3.3.9.2,0,.4,0,.2.3-.5,1.2-1.3,2.1-2.4,2.8v.2Z"/><path class="cls-32" d="m326.5,198.4c1.5-.2,2.1-1.1,1.6-2.8,1.1-.4,2.2-.6,3.4-.6.4,0,.6.1.4.6-.4,1.1-.7,2.2-.8,3.3,0,.2,0,.3-.2.4-1.1.9-2.1,1.9-3,2.9-.8-1.1-1.3-2.4-1.4-3.8Z"/><path class="cls-32" d="m347,195.6v.3c-.4.9,0,2,1,2.4.2,0,.5.1.7.1,0,1.3-.5,2.5-1.3,3.5-.2.3-.3,0-.4,0-.4-.5-.9-1-1.4-1.5-.2-.2-.4-.4-.7-.6-.5-.3-.8-.8-.9-1.4,0-1-.3-1.9-.7-2.8-.2-.4-.1-.6.4-.6,1.1,0,2.2.2,3.3.6Z"/><path class="cls-25" d="m330.9,205.3c-.8-.6-1.5-1.3-2.1-2.1-.2-.1-.2-.4,0-.6h0c.6-.8,1.3-1.5,2.1-2.1-.2,1.6-.2,3.2,0,4.8Z"/><path class="cls-25" d="m338.9,195.9c1-.4,2-.6,3-.8.3,0,.3.2.4.4.4.9.6,1.9.8,2.9-1.3-.9-2.7-1.7-4.2-2.4h0Z"/><path class="cls-25" d="m336.3,210c-1,.3-2,.6-3,.8-.1,0-.3,0-.3-.2,0,0,0,0,0,0-.4-.9-.6-1.9-.8-2.9,1.3.9,2.7,1.7,4.2,2.4h-.1Z"/><path class="cls-25" d="m332.1,198.4c.2-1,.4-2,.8-2.9,0-.2.1-.4.4-.3,1,.2,2,.4,3,.8-1.5.7-2.9,1.5-4.2,2.5h0Z"/><path class="cls-25" d="m344.3,200.6c.8.6,1.5,1.3,2.1,2,.2.1.2.4.1.6,0,0,0,0-.1.1-.6.8-1.3,1.5-2.1,2.1.2-1.6.2-3.2,0-4.8Z"/><path class="cls-25" d="m338.9,210c1.4-.7,2.8-1.5,4.2-2.4-.2,1-.4,2-.8,3,0,.1-.1.3-.3.2-1-.2-2-.4-3-.8h-.1Z"/><path class="cls-48" d="m340.3,202.9c0,1.5-1.2,2.8-2.7,2.8-1.5,0-2.8-1.2-2.8-2.7,0-1.5,1.2-2.8,2.7-2.8h0c1.5,0,2.7,1.2,2.7,2.7,0,0,0,0,0,0h0Z"/><polygon class="cls-43" points="197.8 227.8 185.9 227.8 187.5 222.5 196.9 222.5 197.8 227.8"/><circle class="cls-8" cx="199.8" cy="201.8" r="45"/><path d="m177.3,176.8c2.3,1.9,2.6,5.2.7,7.4-.1.1-.2.2-.3.4-2.1,2.5-5.9,2.8-8.3.6,0,0,0,0,0,0-2.4-2.2-2.6-5.9-.4-8.3,0,0,0,0,0,0,1.3-1.5,3.3-2.2,5.2-1.9l-.5,2.5c-1.1-.2-2.1.3-2.8,1.1-1.2,1.2-1.2,3.2,0,4.5,0,0,.2.2.3.2,1.4,1.3,3.3,1.2,4.8-.4.9-.8,1.2-2.2.6-3.3l-2,2.2-1.7-1.5,3.8-4.2.7.6h0Z"/><path d="m187.5,172.7c1.1,1.9.5,4.4-1.4,5.5,0,0,0,0,0,0-.8.5-1.7.6-2.6.3l1.9,3.5-2.1,1.1-5.3-9.9,2.1-1.1.4.7c.2-.9.8-1.6,1.6-2,2-1,4.4-.1,5.4,1.9Zm-2.1,1.1c-.4-.9-1.5-1.3-2.4-.9,0,0-.1,0-.2.1-.9.4-1.3,1.6-.9,2.5,0,0,0,0,0,.1.4.9,1.5,1.3,2.4.9,0,0,.1,0,.2-.1.9-.4,1.3-1.6.9-2.5,0,0,0,0,0-.1h0Z"/><path d="m196.5,169.7l1,4.8-2.4.5-.9-4.5c0-.7-.7-1.2-1.4-1.2-.1,0-.2,0-.3,0-.7,0-1.3.8-1.2,1.5,0,.1,0,.3.1.4l.9,4.3-2.4.5-2.3-11,2.3-.5.8,3.9c.4-.8,1.1-1.3,2-1.4,1.6-.3,3.2.7,3.6,2.3,0,0,0,.2,0,.3h.2Z"/><path d="m198.3,170.5c.1-2.3,2.2-4.1,4.5-4,2.3.1,4.1,2.2,4,4.5s-2.2,4.1-4.5,4c0,0,0,0,0,0-2.3-.2-4.1-2.2-3.9-4.5,0,0,0,0,0,0Zm6.1.5c.1-1-.6-1.9-1.6-2,0,0,0,0,0,0-1-.1-1.9.5-2,1.5,0,0,0,.1,0,.2-.1,1,.6,1.9,1.6,2,0,0,0,0,0,0,1,0,1.9-.7,2-1.7Z"/><path d="m216,173.4l-1.7,4.6-2.2-.9,1.6-4.3c.4-.6.1-1.4-.5-1.8,0,0-.2,0-.3-.1-.8-.3-1.6,0-1.9.8,0,0,0,.1,0,.2l-1.6,4.1-2.2-.9,2.8-7.5,2.2.9-.3.7c.8-.5,1.7-.5,2.5,0,1.5.6,2.4,2.1,1.6,4.2h0Z"/><path d="m219.4,179.4c.5.4,1,.5,1.6.4l.9,2c-2.4.6-4.8-.9-5.4-3.3-.3-1.2,0-2.5.6-3.5,1.3-1.8,3.8-2.3,5.7-1,0,0,.2.1.2.2,1.8,1.3,2.2,3.8.9,5.6,0,0-.1.1-.2.2-.2.3-.4.5-.7.7l-4.5-3.4c-.2.8.2,1.6.9,2h0Zm2.9-1.5c.4-.7,0-1.6-.6-2-.6-.6-1.6-.6-2.2,0l2.8,2.1h0Z"/><path d="m227.1,191.7l1.9-3.2h-3.7l-1.4-2.6h6.6l3.2-5.4,1.4,2.5-1.7,3h3.4l1.4,2.6h-6.3l-3.3,5.7-1.4-2.5h0Z"/><path class="cls-31" d="m181.2,210.2h5.5l5.1,15.2h0c.1.4.4.6.8.6h.1c.4,0,.7-.4.8-.8l.8-15h25.6c.2,0,.5,0,.6-.3s.3-.4.3-.6v-24.6c0-.2,0-.5-.3-.6s-.4-.3-.6-.3h-38.7c-.5,0-.9.4-.9.9v24.6c0,.2,0,.5.3.6s.4.3.6.3h0Z"/><path class="cls-43" d="m192,220.5l-3.8-11.3v-1.9h0c.4.2.8.3,1.3.3l1.5,2.3c.2.2.4.4.7.4h.8l-.6,10.3h.1Z"/><path class="cls-30" d="m190,224.3v-1.8h-6.2c-.5,0-.9.4-.9.9v9.7c0,.2,0,.5.3.6s.4.3.6.3h16.7c.2,0,.5,0,.6-.3s.3-.4.3-.6v-9.7c0-.2,0-.5-.3-.6s-.4-.3-.6-.3h-5.3v1.8h.9v2.6h-5.9c-1.1,0-2-.9-2-2h0c0-.3.3-.6.6-.6h1.2Z"/><path class="cls-43" d="m207.6,200.5h9.7c.2,0,.5,0,.6-.3s.3-.4.3-.6v-12.3c0-.2,0-.5-.3-.6s-.4-.3-.6-.3h-9.7c-.5,0-.9.4-.9.9v12.3c0,.2,0,.5.3.6s.4.3.6.3Zm.9-12.3h7.9v10.6h-7.9v-10.6Z"/><path class="cls-43" d="m217.3,201.4h-6.2c-.5,0-.9.4-.9.9v4.4c0,.2,0,.5.3.6s.4.3.6.3h6.2c.2,0,.5,0,.6-.3s.3-.4.3-.6v-4.4c0-.2,0-.5-.3-.6s-.4-.3-.6-.3Zm-.9,4.4h-4.4v-2.6h4.4v2.6Z"/><path class="cls-43" d="m183.8,194.4h6.2v1.8h-6.2v-1.8Z"/><path class="cls-43" d="m183.8,197.9h3.5v1.8h-3.5v-1.8Z"/><path class="cls-13" d="m184.3,229.9h2.6c.2,0,.4.2.4.4v.9c0,.2-.2.4-.4.4h-2.6c-.2,0-.4-.2-.4-.4v-.9c0-.2.2-.4.4-.4Z"/><path class="cls-13" d="m190.8,229.9h2.6c.2,0,.4.2.4.4v.9c0,.2-.2.4-.4.4h-2.6c-.2,0-.4-.2-.4-.4v-.9c0-.2.2-.4.4-.4Z"/><path class="cls-13" d="m197.3,229.9h2.6c.2,0,.4.2.4.4v.9c0,.2-.2.4-.4.4h-2.6c-.2,0-.4-.2-.4-.4v-.9c0-.2.2-.4.4-.4Z"/><path class="cls-43" d="m198.4,203.4c-.3,0-.5,0-.8-.1-.6,0-1.2-.2-1.8-.4-.7-.1-1.5-.3-2.2-.4-.9-.2-1.7-.3-2.6-.5-.1,0-.3,0-.4-.1-.3,0-.4-.4-.3-.7,0,0,0,0,0,0,.2-.4.4-.8.5-1.2.3-.7.6-1.3.9-2,.2-.5.5-.9.8-1.3.4-.6,1.2-.8,1.9-.4.1,0,.2.2.3.3.2.2.4.5.6.8.4.7.9,1.3,1.3,2l2.1,3.3c0,.1.1.2.2.3.1.3,0,.5-.4.5h-.1Z"/><path class="cls-43" d="m199.9,187.7h.3c.3,0,.4.2.3.4s-.2.3-.3.5c-.8,1-1.5,2-2.3,3s-1.5,1.8-2.2,2.6c-.4.4-.9.7-1.4.9-.6.1-1.3,0-1.8-.4-.3-.3-.6-.6-.8-.9-.7-1.1-1.4-2.1-2.1-3.2-.3-.5-.6-1-.9-1.4h0c-.2-.4,0-.6.3-.6l4.3-.3c1.3,0,2.6-.2,3.8-.3.9,0,1.8,0,2.7-.2h0Z"/><circle class="cls-7" cx="200" cy="60.1" r="45"/><path d="m169.9,57v2c-.1,0-5.1-.3-5.1-.3l3.5,2.4v.2l-3.8,2,5,.3v2c-.1,0-8.7-.5-8.7-.5v-2c.1,0,4.1-2.1,4.1-2.1l-3.7-2.5v-2c.1,0,8.7.5,8.7.5Z"/><path d="m169.9,52.7c.2-.5.1-.9,0-1.3l1.3-1.1c.6.8.7,1.8.3,2.9-.7,2-2.4,2.8-4.2,2.2-1.7-.6-2.6-2.3-2-4.1.6-1.7,2.3-2.5,4.1-1.9.2,0,.5.2.7.3l-1.4,4.1c.7,0,1.1-.5,1.3-1.1h-.1Zm-1.8-1.8c-.7,0-1.2.4-1.3.9-.2.7,0,1.2.5,1.6l.8-2.5Z"/><path d="m168.5,40.1l7.3,4.5-1,1.6-.5-.3c.2.6.1,1.2-.3,1.9-.8,1.4-2.7,1.8-4.3.8-1.6-1-2.1-2.8-1.2-4.2.4-.7,1-1.1,1.6-1.2l-2.6-1.6,1-1.6h0Zm3.7,4.5c-.8-.5-1.6-.3-2,.5-.4.7-.3,1.5.5,2s1.6.3,2-.5.3-1.5-.5-2Z"/><path d="m170.6,38.9c-.5-.4-.5-1.1-.1-1.6s1.1-.5,1.6-.1.5,1.1.1,1.6-1.1.5-1.6.1Zm1.4.9l1.2-1.4,4.6,4-1.2,1.4-4.6-4Z"/><path d="m179.3,32.9l3.9,4.7-1.4,1.2-.4-.4c0,.6-.3,1.2-.9,1.7-1.2,1-3.2.8-4.3-.6s-1-3.3.2-4.4c.6-.5,1.3-.7,1.9-.6l-.4-.4,1.4-1.2Zm.5,3.5c-.6-.7-1.4-.8-2.1-.2-.7.5-.8,1.4-.2,2.1.6.7,1.4.8,2.1.2.7-.5.8-1.4.2-2.1Z"/><path d="m182,33.1l4.1-2.1.8,1.6-4.1,2.1-.8-1.6Z"/><path d="m197.5,32.6l-1.9.4-1.1-4.9-1.4,4h-.2l-3-3,1.1,4.9-1.9.4-1.9-8.4,1.9-.4,3.1,3.2,1.4-4.2,1.9-.4,1.9,8.4h.1Z"/><path d="m204.4,26.8l-.3,6.1h-1.8v-.7c-.3.4-1,.7-1.8.7-1.2,0-2.3-1-2.2-2.6l.2-3.8h1.8v3.6c0,.8.3,1.1.9,1.2.7,0,1.2-.3,1.2-1.2v-3.3c0,0,2,0,2,0Z"/><path d="m207,24.4l1.8.4-1.8,8.8-1.8-.4,1.8-8.8Z"/><path d="m211.7,30.4l-.7,2.1c-.2.5.2.7,1,.9l-.5,1.6c-2.4-.5-2.8-1.4-2.2-3.1l.7-2.1-.9-.3.6-1.7.9.3.4-1.1h1.9l-.5,1.7,1.2.4-.6,1.7-1.2-.4h-.1Z"/><path d="m214.9,29.8l1.7.8-2.6,5.5-1.7-.8,2.6-5.5Zm.5-1.6c.3-.5.9-.8,1.5-.5.5.3.8.9.5,1.5-.3.5-.9.8-1.5.5-.5-.3-.8-.9-.5-1.5Z"/><path d="m219,35.5c1.2-1.4,3.1-1.6,4.6-.4.9.8,1.3,1.9,1.1,3l-1.8-.3c0-.5,0-.9-.5-1.3-.6-.5-1.4-.4-2,.2-.5.7-.5,1.5.2,2,.4.3.9.4,1.4.2l.7,1.7c-1,.4-2.2.2-3.1-.5-1.4-1.2-1.6-3.2-.4-4.6h-.2Z"/><path d="m230.6,43l-4.8,3.8-1.1-1.4.5-.4c-.6,0-1.2-.3-1.7-1-1-1.3-.7-3.2.7-4.3,1.4-1.1,3.4-1,4.4.3.5.6.7,1.3.5,1.9l.5-.4,1.1,1.4h0Zm-3.5.5c.7-.6.8-1.4.3-2.1-.5-.7-1.4-.8-2.1-.2-.7.6-.8,1.4-.3,2.1.5.7,1.4.8,2.1.2Z"/><path d="m233.3,54.5l-3.5,1.4-.7-1.7,3.3-1.4c.6-.2.8-.7.6-1.2-.2-.6-.8-.7-1.4-.4l-3.2,1.3-.7-1.7,3.3-1.4c.6-.2.8-.7.6-1.2-.2-.6-.8-.7-1.4-.4l-3.2,1.3-.7-1.7,5.7-2.3.7,1.7-.5.2c.5,0,1,.5,1.3,1.2s.2,1.3,0,1.8c.6,0,1.1.5,1.4,1.3.5,1.3,0,2.5-1.5,3.1h0Z"/><path d="m231.6,59.6c0,.5.3.9.6,1.1l-.7,1.6c-.9-.5-1.4-1.3-1.6-2.5-.2-2.1,1-3.5,2.8-3.8,1.8-.2,3.4.9,3.6,2.9.2,1.8-1,3.3-2.8,3.5h-.7l-.5-4.3c-.6.3-.8.9-.7,1.6h0Zm2.3.9c.7-.3.9-.9.8-1.4,0-.7-.5-1.1-1.1-1.2l.3,2.6Z"/><path d="m236.4,67.4h-2.1c.2-.9,0-2-1.3-2l-2.8-.2v-1.8c0,0,6.2.4,6.2.4v1.8h-1.2c.8.3,1.1,1.1,1.1,1.9h.1Z"/><path d="m234.6,75l-5.9-1.5.4-1.8h.6c-.4-.4-.5-1-.3-1.8.4-1.6,2.1-2.5,3.8-2.1,1.8.4,2.8,2.1,2.4,3.6-.2.8-.6,1.3-1.2,1.6h.6c0,0-.4,1.9-.4,1.9h0Zm-2.5-2.5c.9.2,1.6-.2,1.8-1.1.2-.8-.2-1.6-1.1-1.8s-1.6.2-1.8,1.1c-.2.8.2,1.6,1.1,1.8Z"/><path class="cls-39" d="m208.5,92.3h-18.1c-.4-1.5-1.2-2.8-2.2-3.9-.3-.3-.3-.4,0-.7,1.3-1.3,2.6-2.5,3.8-3.8,1.2-1.2,1.5-2.9.9-4.4,0-.6,0-1.3,0-1.9-.6-2.3-2.9-3.7-5.1-3.1-.8.2-1.4.6-2,1.1-2.3,2.2-4.5,4.5-6.8,6.8-.4.4-.9.9-1.4,1.3v-35.1c0-1.5.9-2.9,2.3-3.4.4,0,.8-.2,1.3-.2h35.8c2.2,0,3.6,1.4,3.6,3.6v26.5h-8.4c-1.4,0-2.8.8-3.3,2.1-.7,1.6,0,3.6,1.4,4.2h0c.2.5.6.4.8.7-1.8.4-3,2.2-2.5,4.1.2.9.8,1.7,1.6,2.2h0c.2.4.6.4.8.6-1.6.4-2.6,1.8-2.6,3.4h0Zm-6-32.6v-8.5c0-1-.7-1.9-1.7-1.9h-17c-1.3,0-2.1.7-2.1,2v16.7c0,1,.7,1.8,1.7,1.9h17.2c.9,0,1.7-.6,1.8-1.5v-8.8h.1Zm7.7-5.2h3.1q1.3,0,1.3-1.3c0-.4,0-.5-.5-.5h-6.9q-1.3,0-1.3,1.3c0,1.3,0,.5.5.4h3.8Zm3.1-5.2h-2.7q-1.2,0-1.2,1.3c0,.4.2.5.5.5h5.9q1.3,0,1.3-1.4c0-.3,0-.4-.4-.4h-3.4,0Zm-7.4.8c0,1-.2.9.8.9s.9-.3.9-.9q0-.9-.9-.9c-.9,0-.8,0-.8.8h0Z"/><path class="cls-16" d="m177.6,83.7c.5-.4.9-.9,1.4-1.3,2.3-2.3,4.5-4.5,6.8-6.8,1.6-1.7,4.3-1.7,6,0,.6.5.9,1.2,1.1,2,0,.6.2,1.3,0,1.9-.3.9-.8,1.8-1.5,2.5-2,1.9-3.9,3.9-5.8,5.8-.3.3-.3.4,0,.7,1,1.1,1.8,2.5,2.2,3.9h-13.2c-.2,0-.4,0-.4-.2,0-1.3-.1-2.5.2-3.7.3-1.2.9-2.3,1.7-3.1l1.5-1.5v-.2Z"/><path class="cls-6" d="m210.2,81.5c-1.4-.6-2.1-2.7-1.4-4.2.5-1.3,1.9-2.2,3.3-2.1h8.4c1.9.2,3,1.1,3.4,2.8-.2,0-.2,0-.2.2-.4.9-1.1,1.6-2,1.9-.6.2-1.2.3-1.8.3h-8.4c-1,0-1.2,0-1.3,1.1Z"/><path class="cls-16" d="m210.2,88.4c-1.6-.9-2.2-3-1.3-4.6.5-.8,1.3-1.4,2.2-1.6.4,0,.7,0,1.1-.2h8.8c.7.2,1.4.6,1.9,1,.5.5.8,1.1,1,1.8,0,0-.2,0-.2.2-.7,1.7-2.1,2.2-3.7,2.2h-8.6c-1,0-1.2.2-1.2,1.2Z"/><path class="cls-16" d="m208.5,92.3c0-1.6,1.1-3,2.6-3.3.2,0,.5,0,.7,0,3.1,0,6.3,0,9.4,0,0,.2.2.2.3.2,1.2.4,2.1,1.3,2.4,2.6.2.7,0,.8-.6.8h-14.8v-.2Z"/><path class="cls-49" d="m187.8,92.3c-.4-1.5-1.1-2.8-2.2-3.9-.3-.3-.3-.4,0-.7,2-1.9,3.9-3.9,5.8-5.8.7-.7,1.2-1.5,1.5-2.5.6,1.5.3,3.3-.9,4.4-1.3,1.3-2.6,2.6-3.8,3.8-.3.3-.3.4,0,.7,1,1.1,1.8,2.5,2.2,3.9h-2.6Z"/><path class="cls-1" d="m221.2,88.8c-3.1.2-6.3,0-9.4,0s-.5,0-.7,0c-.3-.2-.6-.2-.8-.5h0c0-1.1.2-1.3,1.2-1.3h8.6c1.7,0,3-.5,3.7-2.2,0,0,0-.2.2-.2.2,2-.7,3.4-2.4,4h-.4Z"/><path class="cls-1" d="m221,82h-8.8c-.4,0-.7,0-1.1.2-.2-.2-.6-.2-.8-.6h0c0-1.1.2-1.3,1.3-1.3h8.4c.6,0,1.2,0,1.8-.3.9-.3,1.6-1,2-1.9,0,0,0-.2.2-.2.4,1.8-.7,3.5-2.5,4h-.4Z"/><path class="cls-18" d="m202.5,59.7v8.5c0,.9-.6,1.7-1.5,1.8h-17.2c-1,0-1.8-.7-1.9-1.7v-17c0-1.3.7-2,2.1-2h16.7c1,0,1.9.6,1.9,1.6v8.8h-.1Zm-11.2,4.3c0-1.9-1.5-3.4-3.4-3.4s-3.4,1.5-3.4,3.4,1.5,3.4,3.4,3.4h0c1.9,0,3.4-1.5,3.4-3.4Zm0-8.6c0-1.9-1.5-3.4-3.4-3.4s-3.4,1.5-3.4,3.4,1.5,3.4,3.4,3.4,3.4-1.5,3.5-3.3h0Zm5.1,3.4c1.9,0,3.4-1.5,3.4-3.4s-1.5-3.4-3.4-3.4-3.4,1.5-3.4,3.4h0c0,1.9,1.5,3.4,3.4,3.4h0Zm2.6,5.2v-1.6c0-.5-.3-.9-.7-1h-3.5c-.4,0-.9.3-.9.7v3.5c0,.5.3.9.8.9h3.5c.5,0,.9-.3.9-.8h0v-1.7h0Z"/><path class="cls-33" d="m210.2,54.5h-3.8c-.3,0-.5,0-.5-.4,0-.9.4-1.3,1.3-1.3h6.9c.4,0,.5,0,.5.5,0,.9-.4,1.3-1.3,1.3h-3.1Z"/><path class="cls-37" d="m213.2,49.3h3.4c.3,0,.4,0,.4.4q0,1.4-1.3,1.4h-5.9c-.4,0-.5,0-.5-.5,0-.9.4-1.3,1.2-1.3h2.7Z"/><path class="cls-37" d="m205.9,50.2c0-.5.3-.8.8-.8s.8.3.9.9q0,.9-.9.9c-1,0-.8,0-.8-.9h0Z"/><path class="cls-6" d="m210.2,81.5h0c0,0,0,0,0,0Z"/><path class="cls-34" d="m191.3,64c0,1.9-1.6,3.4-3.5,3.4s-3.4-1.6-3.4-3.5,1.6-3.4,3.4-3.4,3.4,1.6,3.4,3.5h0Zm-5.1-.5v.4c0,.8.5,1.4,1.2,1.7.9.3,1.9-.2,2.2-1.1.2-.5,0-1.1-.2-1.5-.4-.5-1.1-.8-1.7-.6-1.1,0-1.4.3-1.4,1.2h0Z"/><path class="cls-34" d="m191.3,55.4c0,1.9-1.5,3.4-3.4,3.4s-3.4-1.5-3.4-3.4,1.5-3.4,3.4-3.4h0c1.9,0,3.4,1.5,3.4,3.4h0Zm-5-.3c-.2.6,0,1.3.6,1.7.6.4,1.4.4,2,0,.5-.4.8-1,.7-1.7,0-.9-.9-1.5-1.8-1.4h-.2c-.5-.2-1.1,0-1.3.6v.7h0Z"/><path class="cls-34" d="m196.4,58.8c-1.9,0-3.4-1.6-3.4-3.5s1.6-3.4,3.5-3.4,3.4,1.6,3.4,3.4-1.6,3.4-3.5,3.4h0Zm-1.6-3.7c-.3.4,0,.8.2,1.2.4.6,1.1,1,1.8.8.7,0,1.2-.7,1.3-1.3.2-.8-.2-1.5-.9-1.9-.4-.2-.8-.3-1.3-.2-.9,0-1.4.6-1.2,1.4h.1Z"/><path class="cls-2" d="m199,64v1.7c0,.5-.3.9-.8.9h-3.4c-.5,0-.9-.3-.9-.8v-3.5c0-.4.3-.9.7-.9h3.5c.5,0,.9.3.9.8v.2c0,.5,0,1.1,0,1.6Zm-3-.4h1.6c.3,0,.5,0,.5-.5s-.3-.3-.5-.3h-1.3c0-.3-.3-.4-.5-.5-.4,0-.8.3-1,.7-.2.2,0,.6,0,.8.4.3.7,0,1,0h.1Zm.4,1.7h1.3c.2,0,.4-.2.4-.4h0c0-.3-.2-.4-.4-.4h-2.5c-.2,0-.4,0-.4.3h0c0,.2.2.4.4.4h1.3,0Z"/><path class="cls-47" d="m187.5,62.3c.6-.2,1.3,0,1.7.6.6.8.4,1.9-.4,2.4-.4.3-1,.4-1.5.2-.7-.3-1.2-.9-1.2-1.7v-.4c.2.3.5.4.9.3,0,.8.5,1.2,1.1,1,.4-.2.7-.6.5-1.1,0-.4-.6-.7-1-.6,0-.3,0-.6,0-.8h0Z"/><path class="cls-40" d="m187.5,62.3c.2.2.2.5,0,.8,0,.3-.4.5-.6.7-.3,0-.7,0-.9-.3,0-.9.3-1.2,1.4-1.2Z"/><path class="cls-47" d="m187.6,53.8c.9-.2,1.7.3,2,1.2v.2c0,.6-.2,1.3-.7,1.7-.6.4-1.4.4-2,0-.5-.4-.8-1.1-.6-1.7.2.2.5.2.8,0,0,.8.5,1.2,1.1,1,.4,0,.6-.5.6-.9s-.4-.7-1.1-.7c0-.3,0-.6,0-.8h0Z"/><path class="cls-40" d="m187.1,55.2c-.3,0-.6,0-.8,0-.2-.5,0-1.1.6-1.3h.7c.2.2.2.5,0,.8-.2.2-.4.5-.6.6Z"/><path class="cls-47" d="m196,53.7c.4,0,.9,0,1.3.2.7.4,1,1.1.9,1.9-.2.6-.7,1.1-1.3,1.3-.7,0-1.4-.2-1.8-.8-.2-.4-.4-.7-.2-1.2.2,0,.5.2.8.2,0,.4,0,.8.6.9.4,0,.9,0,1-.4.3-.6,0-1.1-1-1.2,0-.3,0-.7-.3-.9Z"/><path class="cls-40" d="m196,53.7c.3.2.4.6.3.9-.2.3-.4.5-.7.7-.3,0-.5,0-.8-.2-.3-.8.3-1.4,1.2-1.4Z"/><path class="cls-35" d="m196.4,65.2h-1.3c-.2,0-.4,0-.4-.3h0c0-.2,0-.4.3-.4h2.5c.2,0,.4,0,.4.4s0,.4-.4.4h-1.3.2Z"/><path class="cls-5" d="m196,63.5h0c-.3.2-.6.4-1,0-.2-.2-.3-.5,0-.8.2-.4.5-.7,1-.7s.5.2.5.5,0,.6-.3.8h-.1Z"/><path class="cls-35" d="m196,63.5c.2-.2.3-.5.3-.8h1.3c.2,0,.5,0,.5.3s-.2.5-.5.5h-1.6Z"/><path class="cls-34" d="m187,63.8c.2-.2.5-.4.6-.7.4,0,.9,0,1,.6.2.4,0,.9-.5,1.1-.6.2-1.1-.2-1.1-1Z"/><path class="cls-34" d="m187.1,55.2l.6-.6c.6,0,1,.2,1.1.7,0,.4-.2.8-.6.9-.6.2-1.1-.3-1.1-1Z"/><path class="cls-34" d="m195.6,55.2c.3-.2.5-.4.7-.7.8,0,1.2.5,1,1.2-.2.4-.6.6-1,.4-.5,0-.6-.5-.6-.9h-.1Z"/></svg>