<?xml version="1.0" encoding="UTF-8"?><svg id="Layer_1" xmlns="http://www.w3.org/2000/svg" viewBox="0 0 400 262"><defs><style>.cls-1{fill:#009245;}.cls-2{fill:#fff;}.cls-3{fill:#57575e;}.cls-4{fill:#d9d9ea;}.cls-5{fill:#727272;}.cls-6{fill:#eb917f;}.cls-7{fill:#48459c;}.cls-8{fill:#434348;}.cls-9{fill:#f3bd99;}.cls-10{stroke:#c000e2;}.cls-10,.cls-11{stroke-width:4px;}.cls-10,.cls-11,.cls-12{stroke-miterlimit:10;}.cls-10,.cls-11,.cls-12,.cls-13{fill:none;}.cls-14{fill:#626363;}.cls-15{fill:#3392f5;}.cls-16{fill:#f4bd99;}.cls-17{fill:#c9c9c9;}.cls-11{stroke:#00b51e;}.cls-18{fill:#93dbfe;}.cls-12{stroke:#231f20;stroke-width:2px;}.cls-19{fill:gray;}.cls-20{fill:#424248;}.cls-21{fill:#6f7070;}.cls-22{fill:#0aaffe;}.cls-23{fill:#97d6e5;}.cls-24{fill:#3392f6;}.cls-25{fill:#ff1d25;}.cls-26{fill:#636363;}.cls-27{fill:#9dd8e6;}.cls-28{fill:#fd6220;}.cls-29{fill:#db411d;}.cls-30{fill:#60acfd;}.cls-31{fill:#ccf2ff;isolation:isolate;opacity:.5;}.cls-32{fill:#231f20;}.cls-33{fill:#2dbafe;}.cls-34{fill:#067fa6;}</style></defs><path d="m344.5,67.8l-3.9.6-.3-1.9,3.8-.5c.5,0,.9-.4.9-.9,0,0,0-.1,0-.2,0-.6-.6-.9-1.4-.8l-3.6.5-.3-1.9,3.8-.5c.5,0,.9-.4.9-.9,0,0,0-.1,0-.2,0-.6-.6-.9-1.4-.8l-3.6.5-.3-1.9,6.4-.9.3,1.9h-.6c.6.4,1,1,1,1.7.1.7,0,1.4-.6,1.8.6.3,1.1,1,1.1,1.7.2,1.3-.6,2.5-1.9,2.8-.1,0-.2,0-.4,0h.1Z"/><path d="m341.3,72.6c0,.5,0,.9.3,1.3l-1.1,1.4c-.8-.8-1.1-1.9-.9-3,.2-1.9,1.8-3.3,3.7-3.1,0,0,.2,0,.2,0,1.8.2,3.1,1.9,2.9,3.7,0,0,0,.1,0,.2-.2,1.8-1.9,3.1-3.7,2.8,0,0-.1,0-.2,0-.3,0-.5,0-.8-.2l.7-4.6c-.7,0-1,.7-1.1,1.4h0Zm2.2,1.5c.8,0,1.1-.6,1.2-1.2.1-.6-.2-1.3-.8-1.5l-.4,2.8h0Z"/><line class="cls-13" x1="200.3" y1="115.5" x2="200.8" y2="148.3"/><line class="cls-12" x1="200.3" y1="115.5" x2="200.6" y2="137.5"/><polygon class="cls-32" points="193.1 135.4 200.8 148.3 208.1 135.2 193.1 135.4"/><line class="cls-13" x1="118.7" y1="111.2" x2="167.3" y2="150.5"/><line class="cls-12" x1="118.7" y1="111.2" x2="158.9" y2="143.8"/><polygon class="cls-32" points="152.5 148.2 167.3 150.5 161.9 136.6 152.5 148.2"/><line class="cls-13" x1="281.3" y1="111.2" x2="232.7" y2="150.5"/><line class="cls-12" x1="281.3" y1="111.2" x2="241" y2="143.8"/><polygon class="cls-32" points="238 136.6 232.7 150.5 247.4 148.2 238 136.6"/><circle class="cls-11" cx="200" cy="201.8" r="45"/><path d="m177.2,176c2.1,1.7,2.5,4.7.8,6.8-.1.2-.3.3-.4.5-1.9,2.3-5.3,2.7-7.6.8,0,0-.2-.1-.2-.2-2.3-2.1-2.5-5.6-.4-7.9,1.2-1.3,2.9-2,4.7-1.8l-.5,2.3c-1,0-2,.3-2.6,1.1-1.1,1.2-1.1,3.1.1,4.2,0,0,.1.1.2.2,1.2,1.1,3.1,1.1,4.2,0,0,0,.2-.2.3-.3.9-.8,1.1-2,.6-3.1l-1.9,2.1-1.6-1.4,3.5-3.9.7.6h.1Z"/><path d="m186.5,171.9c1.1,1.7.6,4.1-1.1,5.2-.7.5-1.6.6-2.4.3l1.9,3.2-1.9,1.1-5.3-9.1,1.9-1.1.4.6c.2-.8.7-1.5,1.5-1.9,1.9-1,4.1-.2,5.1,1.6h0Zm-1.9,1.1c-.4-.9-1.5-1.2-2.4-.8,0,0,0,0-.1,0-.8.4-1.2,1.4-.7,2.3,0,0,0,.2.1.2.4.9,1.5,1.2,2.4.8,0,0,0,0,.1,0,.8-.4,1.2-1.4.7-2.3,0,0,0-.2-.1-.2Z"/><path d="m194.8,168.7l1.1,4.5-2.2.6-1.1-4.1c0-.7-.7-1.1-1.3-1.1,0,0-.2,0-.3,0-.7.1-1.2.9-1.1,1.6,0,0,0,.1,0,.2l1,4-2.2.6-2.6-10.2,2.2-.6.9,3.6c.4-.7,1-1.2,1.8-1.4,1.5-.4,3,.4,3.4,1.9,0,.1,0,.3,0,.4h.2Z"/><path d="m196.5,169.3c0-2.2,1.8-4,4-4,2.2,0,4,1.8,4,4,0,2.2-1.8,4-4,4,0,0,0,0,0,0-2.2,0-3.9-1.8-3.9-4,0,0,0,0,0,0Zm5.7,0c0-.9-.6-1.7-1.5-1.8,0,0-.1,0-.2,0-1,0-1.8.7-1.8,1.7,0,.9.6,1.7,1.5,1.8,0,0,.1,0,.2,0,1,0,1.8-.7,1.8-1.7Z"/><path d="m213.3,170.9l-1.3,4.4-2.2-.6,1.2-4.1c.3-.6,0-1.4-.7-1.6,0,0-.2,0-.2,0-.7-.3-1.5,0-1.7.8,0,.1,0,.2,0,.3l-1.1,3.9-2.2-.6,2.1-7.2,2.2.6-.2.7c.7-.5,1.5-.6,2.3-.3,1.5.4,2.4,1.8,1.8,3.8h0Z"/><path d="m217,176.2c.4.3,1,.4,1.5.3l1,1.8c-2.2.8-4.6-.4-5.3-2.6-.4-1.1-.3-2.4.3-3.4,1.1-1.8,3.4-2.4,5.2-1.4,0,0,.2.1.3.2,1.8,1.1,2.3,3.4,1.2,5.2,0,0,0,.1-.1.2-.2.3-.4.5-.6.7l-4.5-2.8c-.1.8.3,1.5,1,1.8Zm2.6-1.6c.3-.9-.3-1.8-1.2-2.1-.5-.2-1.1,0-1.5.3l2.7,1.7h0Z"/><path d="m223.2,181l5,.6c.7.1,1.5,0,2.1-.3.5-.4.6-1.1.2-1.6,0,0,0,0,0,0-.4-.6-1.2-.8-1.8-.5l-.3-2.3c1.5-.4,3.1.2,4,1.4,1.2,1.4,1,3.6-.4,4.8,0,0,0,0-.1,0-1,.7-2.4,1-3.6.7l-2.5-.3,2.1,2.8-1.8,1.4-4.4-5.7,1.4-1.1h.1Z"/><path class="cls-29" d="m188.6,182.8h23c2.2,0,4.1,1.8,4.1,4,0,0,0,0,0,0v49.1c0,2.2-1.8,4.1-4,4.1,0,0,0,0,0,0h-23c-2.2,0-4.1-1.8-4.1-4,0,0,0,0,0,0v-49.1c0-2.2,1.8-4.1,4-4.1,0,0,0,0,0,0Z"/><path class="cls-28" d="m211.6,182.8h-23c-2.2,0-4.1,1.8-4.1,4,0,0,0,0,0,0v49.1l31.2-49.1c0-2.2-1.8-4.1-4-4.1,0,0,0,0,0,0Z"/><rect class="cls-17" x="187.1" y="190" width="25.9" height="38.8"/><path class="cls-2" d="m203.3,184.5c0,.3-.3.6-.6.6h-5.3c-.3,0-.6-.3-.6-.6h0c0-.3.3-.6.6-.6h5.3c.3,0,.6.3.6.6Z"/><path class="cls-2" d="m202.2,236h-.5c-.3,0-.7,0-1-.2-.4,0-.8-.2-1.2-.2-.5,0-.9-.1-1.4-.3h-.2c-.2,0-.2-.2-.2-.4,0-.2.2-.5.3-.7.1-.4.3-.7.5-1.1.1-.2.3-.5.4-.7.2-.3.6-.4,1-.2,0,0,.2.1.2.2.1.1.2.3.4.5.2.4.5.7.7,1.1l1.2,1.8v.2c0,.2,0,.3-.2.3v-.3Z"/><path class="cls-2" d="m193.8,232.3c0,.1-.2.3-.3.4l-.6.9c-.2.3-.5.7-.7,1l-.9,1.2c0,0,0,.1-.1.2-.1.1-.3.1-.4,0-.2-.2-.3-.4-.5-.6s-.5-.6-.8-.9c-.2-.2-.4-.5-.5-.7-.2-.3-.1-.8.2-1,0,0,.1,0,.2,0,.2,0,.4-.1.6-.1.4,0,.9,0,1.3-.2.7,0,1.4-.2,2.1-.3h.2c.2,0,.3.1.2.3h0Z"/><path class="cls-2" d="m206.2,231.7c.1,0,.3,0,.4.1l1,.3c.4.1.8.3,1.2.4s.9.3,1.4.5h.2c.2,0,.2.2.1.4s-.3.4-.4.6c-.2.4-.4.7-.7,1-.2.2-.3.4-.5.6-.3.3-.8.3-1.2,0,0,0,0,0,0,0-.1-.2-.2-.3-.3-.5l-.6-1.2c-.3-.6-.6-1.3-.9-1.9v-.2c0-.2,0-.3.3-.3v.2Z"/><path class="cls-25" d="m202.4,201.5h-.5c-.4,0-.7,0-1.1-.2-.4,0-.9-.2-1.3-.3-.5,0-1-.2-1.5-.3h-.2c-.2,0-.2-.2-.2-.4s.2-.5.3-.7c.2-.4.3-.8.5-1.2.1-.2.2-.5.4-.7.2-.4.7-.4,1.1-.2,0,0,.1.1.2.2.2.1.3.3.4.5.3.4.5.8.7,1.2.4.6.8,1.3,1.2,1.9v.2c0,.2,0,.3-.2.3l.2-.3Z"/><path class="cls-25" d="m203.3,192.4h.2c.2,0,.2.1.2.3s-.1.2-.2.3c-.5.6-.9,1.2-1.4,1.7-.4.5-.8,1-1.3,1.5-.2.2-.5.4-.8.5-.3,0-.7,0-1-.2-.2-.1-.3-.3-.4-.5-.4-.6-.8-1.2-1.2-1.9-.1-.3-.3-.5-.5-.8h0c-.1-.2,0-.3.2-.3.8,0,1.7,0,2.5-.2.7,0,1.5,0,2.2-.2h1.6v-.2Z"/><path d="m192.3,223.2v-1.7l3.1-3.3c.3-.3.5-.6.7-.8.1-.2.2-.4.2-.6,0-.2,0-.4-.2-.6-.2-.1-.4-.2-.6-.2-.6,0-1.1.4-1.3,1l-2.1-1.2c.3-.7.7-1.2,1.3-1.6.6-.4,1.3-.5,2-.5.8,0,1.6.3,2.3.8.6.6,1,1.4,1,2.2,0,.5,0,1.1-.4,1.5-.3.5-.7,1-1.1,1.5l-1.3,1.3h2.9v2.3h-6.6.1Z"/><path d="m209,217.8v1c0,1.2-.4,2.4-1.3,3.3-.9.9-2.1,1.4-3.4,1.3-1.3,0-2.6-.5-3.6-1.4-.9-.9-1.4-2.2-1.4-3.5,0-1.3.5-2.6,1.4-3.5.9-.9,2.2-1.4,3.5-1.4.8,0,1.7.1,2.4.6.7.4,1.3.9,1.7,1.6l-2,1.2c-.2-.3-.5-.5-.8-.7-.4-.2-.8-.3-1.2-.3-1.4,0-2.5,1.2-2.5,2.6,0,.6.3,1.2.7,1.7.5.5,1.2.8,2,.8.9,0,1.8-.4,2.2-1.2h-2.3v-2.1h4.6Z"/><polygon class="cls-31" points="187 227.8 187 189.8 212.8 189.8 187 227.8"/><circle class="cls-10" cx="202.1" cy="64.2" r="45"/><path d="m167.4,60.7c-2.3-.4-3.9-2.6-3.5-4.9,0-.1,0-.2,0-.4.3-1.5,1.3-2.7,2.7-3.2l.6,1.9c-.8.3-1.3.9-1.5,1.7-.3,1.3.4,2.6,1.7,2.9,0,0,.2,0,.3,0,1.2.4,2.6-.3,2.9-1.6,0-.1,0-.2,0-.3.2-.8,0-1.6-.6-2.2l1.3-1.4c1,1.1,1.5,2.6,1.2,4-.5,2.4-2.8,3.9-5.2,3.4,0,0,0,0-.1,0Z"/><path d="m170.8,52.2c-1.6-.8-2.2-2.8-1.4-4.4,0,0,0,0,0,0,.8-1.6,2.7-2.3,4.3-1.5,0,0,0,0,0,0,1.6.8,2.2,2.8,1.4,4.4,0,0,0,0,0,0-.8,1.6-2.7,2.3-4.3,1.5,0,0,0,0,0,0Zm2.1-4.2c-.7-.4-1.5,0-1.9.6,0,0,0,0,0,0-.4.6-.1,1.5.5,1.8,0,0,.1,0,.2,0,.7.4,1.5,0,1.9-.6,0,0,0,0,0,0,.4-.6.1-1.5-.5-1.8,0,0-.1,0-.2,0Z"/><path d="m180,37.9l2.8,2.5-1.2,1.4-2.7-2.4c-.5-.4-.9-.5-1.3,0-.4.4-.3,1,0,1.4,0,0,0,0,.1,0l2.6,2.3-1.2,1.4-2.7-2.4c-.5-.4-.9-.5-1.3,0-.4.4-.3,1,0,1.4,0,0,0,0,.1,0l2.6,2.3-1.2,1.4-4.5-4.1,1.2-1.4.4.4c-.1-.6.1-1.3.6-1.7.4-.5,1.1-.7,1.7-.6-.1-.7.1-1.4.6-1.9.9-.9,2.3-1,3.2-.2,0,0,.1,0,.2.2l-.2-.2Z"/><path d="m185.1,31.8l3.3,5.2-1.6,1-.3-.5c0,.7-.5,1.3-1.1,1.6-1,.7-2.5.4-3.1-.6,0,0-.1-.2-.2-.3l-2-3.2,1.6-1,1.9,3c.3.5.9.7,1.4.4,0,0,0,0,0,0,.6-.4.8-.9.3-1.7l-1.8-2.8,1.6-1h0Z"/><path d="m193.5,31.1l1.3,3.5-1.7.6-1.2-3.3c-.1-.5-.6-.9-1.2-.8,0,0-.1,0-.2,0-.6.2-.9.9-.7,1.6,0,0,0,0,0,0l1.1,3.2-1.7.6-2.1-5.8,1.7-.6.2.5c.3-.6.8-1.1,1.4-1.3,1.1-.5,2.4.1,2.9,1.3,0,.1,0,.2.1.3h0Z"/><path d="m194.1,26.9c-.1-.6.3-1.2.9-1.3.6-.1,1.2.3,1.3.9.1.6-.3,1.2-.9,1.3,0,0,0,0,0,0-.6.1-1.2-.3-1.3-.9Zm.5,1.6l1.8-.3,1.1,6-1.8.3-1.1-6Z"/><path d="m198.2,30.9c0-1.7,1.3-3.2,3-3.3,0,0,0,0,0,0,1.1,0,2.2.5,2.8,1.5l-1.6,1c-.2-.4-.7-.7-1.2-.7-.7,0-1.3.5-1.3,1.2,0,0,0,.2,0,.3,0,.8.6,1.4,1.3,1.4,0,0,0,0,0,0,.5,0,1-.3,1.2-.7l1.6.9c-.5,1-1.6,1.7-2.7,1.7-1.7.1-3.2-1.2-3.3-2.9,0,0,0-.1,0-.2v-.2Z"/><path d="m211.8,28.9l-1.1,6-1.8-.3v-.6c-.5.5-1.2.6-1.8.4-1.7-.4-2.7-2-2.3-3.7,0,0,0,0,0,0,.2-1.7,1.8-2.9,3.5-2.7.7,0,1.3.5,1.7,1.1v-.6c.1,0,1.9.3,1.9.3h0Zm-2.4,2.7c.2-.7-.2-1.4-.9-1.6-.1,0-.2,0-.3,0-.7-.2-1.5.3-1.7,1,0,0,0,.1,0,.2-.2.7.2,1.4.9,1.6.1,0,.2,0,.3,0,.7.2,1.5-.3,1.7-1,0,0,0-.1,0-.2Z"/><path d="m215.3,32.1l-.8,2c-.2.5.2.7,1,1l-.6,1.6c-2.3-.6-2.7-1.6-2.1-3.2l.8-2-.9-.4.6-1.6.9.4.4-1.1,1.9.2-.6,1.6,1.2.5-.6,1.6-1.2-.5h0Z"/><path d="m218.5,31.6l1.6.9-2.9,5.4-1.6-.9,2.9-5.4Zm.6-1.5c.3-.6.9-.8,1.5-.5s.8.9.5,1.5c-.3.6-.9.8-1.5.5,0,0,0,0,0,0-.5-.3-.7-.9-.5-1.5Z"/><path d="m219.8,35.7c1.1-1.4,3.1-1.7,4.5-.6,1.4,1.1,1.7,3.1.6,4.5-1,1.4-3,1.7-4.4.7,0,0,0,0-.1-.1-1.4-1.1-1.7-3.1-.6-4.5,0,0,0,0,0,0Zm3.7,2.8c.5-.6.4-1.5-.2-2,0,0,0,0,0,0-.6-.5-1.4-.4-1.9.2,0,0,0,0,0,.1-.5.6-.4,1.5.2,2,0,0,0,0,0,0,.6.5,1.4.4,1.9-.2,0,0,0,0,0-.1Z"/><path d="m230.2,44.6l-2.9,2.4-1.2-1.4,2.7-2.2c.5-.3.6-.9.3-1.4,0,0,0,0,0-.1-.4-.5-1-.6-1.7,0l-2.6,2.1-1.2-1.4,4.7-3.9,1.2,1.4-.4.4c.7,0,1.3.3,1.7.9.8,1,.7,2.4-.3,3.2,0,0-.2.1-.2.2v-.2Z"/><path d="m228.8,46.8l4,1.2c.6.3,1.2.3,1.8,0,.4-.2.6-.7.4-1.2,0,0,0,0,0,0-.3-.5-.8-.7-1.4-.7v-1.9c1.3-.1,2.5.5,3.1,1.7.8,1.2.4,2.9-.8,3.6,0,0-.2.1-.3.2-.9.5-2.1.5-3,0l-1.9-.6,1.3,2.5-1.7.9-2.7-5.2,1.3-.7v.2Z"/><path d="m236.6,60.3c-2.2.6-4.4-.7-5-2.8,0,0,0-.2,0-.3-.7-2.4.7-4.9,3.1-5.6,0,0,0,0,0,0,2.4-.6,4.8.8,5.4,3.2,0,0,0,0,0,.1.4,1.4,0,3-1,4.1l-1.3-1.4c.5-.6.7-1.5.5-2.3-.3-1.3-1.5-2.1-2.8-1.9,0,0-.2,0-.3,0-1.3.3-2.2,1.6-1.9,2.9,0,0,0,.2,0,.3.1.9.9,1.7,1.8,1.8l-.5-2.2,1.7-.4,1,4.2-.7.2h0Z"/><path class="cls-19" d="m214.9,52.2c-8.5-.2-17.8-.2-26.3,0-14.8,1.9-22,20.9-11.6,31.8,2.2,3.3-1.6,9.5,2.3,11.8,3.3,1,5.2-3.4,7.4-5.1,9.2-1,20.3.5,29.8-.5,22.1-2.9,20.7-37.2-1.6-38.2v.2Z"/><path d="m186.1,80v-3.3l5.9-6.2c.5-.5.9-1,1.3-1.6.3-.3.4-.8.4-1.2,0-.4-.1-.8-.4-1.1-.3-.3-.8-.4-1.2-.4-1.1,0-2.1.8-2.4,1.9l-3.9-2.2c.5-1.3,1.4-2.3,2.5-3.1,1.1-.7,2.4-1,3.7-1,1.6,0,3.1.5,4.4,1.5,1.2,1,1.9,2.5,1.8,4.1.1,1-.1,2-.7,2.9-.6,1-1.3,1.9-2.1,2.8l-2.4,2.5h5.6v4.4h-12.5Z"/><path d="m217.9,69.8v1.8c0,2.4-.8,4.7-2.5,6.4-1.7,1.6-4,2.5-6.4,2.4-2.6,0-5-.9-6.9-2.7-3.6-3.6-3.7-9.5,0-13.2,1.8-1.8,4.2-2.8,6.6-2.7,1.6-.1,3.2.3,4.6,1.1,1.4.6,2.5,1.7,3.2,3l-3.9,2.2c-.4-.6-1-1-1.6-1.3-.7-.3-1.5-.5-2.3-.5-2.6,0-4.8,2-4.9,4.7,0,0,0,.2,0,.2,0,1.3.4,2.6,1.3,3.5,1,1,2.4,1.5,3.8,1.4,1.7,0,3.3-.8,4.1-2.3h-4.3v-3.9h9.2Z"/><path class="cls-16" d="m287.5,89.1c.5-.4.9-.9,1.4-1.3l6.8-6.8c1.6-1.7,4.2-1.7,5.9-.1,0,0,0,0,.1.1.6.5,1,1.2,1.1,2,.1.6.1,1.3,0,1.9-.3.9-.8,1.8-1.5,2.5-2,1.9-3.9,3.9-5.8,5.8-.3.3-.3.4,0,.7,1,1.1,1.8,2.5,2.2,3.9h-13.2c-.2,0-.4,0-.4-.2,0-1.2,0-2.5.2-3.7.3-1.2.9-2.2,1.7-3.1l1.5-1.5v-.2Z"/><path class="cls-9" d="m320.1,86.9c-1.5-.8-2.1-2.6-1.4-4.2.5-1.3,1.9-2.2,3.3-2.1h8.4c1.7,0,3.1,1.2,3.4,2.8-.2,0-.2,0-.2.2-.4.9-1.1,1.6-2,1.9-.6.2-1.2.3-1.8.3h-8.4c-1,0-1.2,0-1.3,1.1Z"/><path class="cls-16" d="m320.1,93.8c-1.6-.9-2.2-3-1.3-4.6.5-.8,1.3-1.4,2.2-1.6.4,0,.7,0,1.1-.2h8.8c.7.2,1.3.5,1.9,1,.5.5.8,1.1,1,1.8,0,0-.2,0-.2.2-.6,1.5-2.1,2.4-3.7,2.2h-8.6c-1,0-1.2.2-1.2,1.2Z"/><path class="cls-16" d="m318.4,97.8c0-1.6,1.1-3,2.6-3.3.2,0,.5,0,.7,0,3.1,0,6.3,0,9.4,0,0,.2.2.2.3.2,1.2.4,2.1,1.4,2.4,2.6.2.7,0,.8-.6.8h-14.8v-.2Z"/><path class="cls-34" d="m297.7,97.8c-.4-1.5-1.1-2.8-2.2-3.9-.3-.3-.3-.4,0-.7,2-1.9,3.9-3.9,5.8-5.8.7-.7,1.2-1.6,1.5-2.5.6,1.5.3,3.3-.9,4.4l-3.8,3.8c-.3.3-.3.4,0,.7,1,1.1,1.8,2.5,2.2,3.9h-2.6Z"/><path class="cls-6" d="m331.1,94.2c-3.1.2-6.3,0-9.4,0-.2,0-.5,0-.7,0-.3-.2-.6-.2-.8-.5h0c0-1.1.2-1.3,1.2-1.3h8.6c1.7,0,3-.5,3.7-2.2,0,0,.1-.2.2-.2.3,1.7-.7,3.5-2.4,4h-.4Z"/><path class="cls-6" d="m330.9,87.4h-8.8c-.4,0-.8,0-1.1.2-.2-.2-.6-.2-.8-.6h-.1c.1-1.1.2-1.3,1.3-1.3h8.4c.6,0,1.2,0,1.8-.3.9-.3,1.6-1,2-1.9,0,0,0-.2.2-.2.4,1.8-.7,3.6-2.5,4h-.4Z"/><path class="cls-23" d="m320.1,60h-3.8c-.3,0-.5,0-.5-.4,0-.6.3-1.2,1-1.3.1,0,.2,0,.3,0h6.9c.4,0,.5,0,.5.5,0,.6-.3,1.2-1,1.3-.1,0-.2,0-.3,0h-3.1,0Z"/><path class="cls-27" d="m323.1,54.8h3.4c.3,0,.4,0,.4.4q0,1.4-1.3,1.4h-5.9c-.4,0-.5,0-.5-.5,0-.9.4-1.3,1.2-1.3h2.7Z"/><path class="cls-27" d="m315.8,55.6c0-.4.2-.7.6-.8,0,0,.1,0,.2,0,.5,0,.8.3.9.9q0,.9-.9.9c-.9,0-.8,0-.8-.9h0Z"/><path class="cls-9" d="m320.1,86.9h.1c0,0-.1,0-.1,0Z"/><path class="cls-1" d="m326.8,50.5h-35.8c-.4,0-.9,0-1.3.2-1.4.5-2.4,1.9-2.3,3.4v35.1c.5-.4.9-.9,1.4-1.3l6.8-6.8c.5-.6,1.2-1,2-1.1,2.2-.6,4.5.7,5.1,2.9,0,0,0,.1,0,.2.1.6.1,1.3,0,1.9.6,1.5.3,3.3-.9,4.4l-3.8,3.8c-.3.3-.3.4,0,.7,1,1.1,1.8,2.5,2.2,3.9h18.1c0-1.6,1.1-3,2.6-3.4-.3-.2-.6-.2-.8-.5h0c-1.7-1-2.2-3.2-1.1-4.9.5-.8,1.2-1.3,2-1.5-.2-.2-.6-.2-.8-.6h-.1c-1.5-.9-2.1-2.8-1.4-4.4.5-1.3,1.9-2.2,3.3-2.1h8.4v-26.5c.1-1.9-1.3-3.5-3.1-3.6-.2,0-.3,0-.5,0v.2Zm-11,5.1c0-.4.2-.7.6-.8,0,0,.1,0,.2,0q.9,0,.9.9t-.9.9c-.9,0-.8,0-.8-.9h0Zm7.4,4.4h-6.9c-.3,0-.5,0-.5-.4q0-1.3,1.3-1.3h6.9c.4,0,.5,0,.5.5q0,1.3-1.3,1.3h0Zm2.5-3.4h-5.9c-.4,0-.5,0-.5-.5q0-1.3,1.2-1.3h6.1c.3,0,.4,0,.4.4q0,1.4-1.3,1.4Z"/><path class="cls-4" d="m306.8,61.9h0v.6c-.1,1-.4,1.9-.9,2.7-.4.7-.9,1.4-1.5,1.9-.6.6-1.3,1.1-2.1,1.5-.7.3-1.4.5-2.1.6h-2.2c-1-.1-2-.5-2.9-1-.7-.4-1.4-1-1.9-1.6-.5-.6-1-1.3-1.3-2.1-.3-.7-.5-1.4-.6-2.1v-2.2c.1-.9.4-1.7.9-2.5.4-.7.9-1.3,1.5-1.9,1.7-1.6,4-2.4,6.3-2.1.9,0,1.7.3,2.5.7,1.7.9,3.1,2.3,3.8,4.1.3.6.4,1.3.5,2v1.4h0Zm-6.5,6.2c.3,0,.6,0,.9-.2,3.2-1.1,5.1-4.4,4.5-7.8-.4-2.3-2.1-4.2-4.3-5-.3-.2-.7-.3-1.1-.3h-.2c-.6,0-1.1,0-1.7,0-1.1,0-2.1.4-3,1-2.3,1.4-3.6,4-3.2,6.7.2,1.9,1.2,3.6,2.8,4.7,1.3,1,2.8,1.4,4.4,1.3.3,0,.6,0,.9,0v-.3Z"/><path class="cls-3" d="m300.3,68.1c-.3,0-.6.1-.9,0-1.6,0-3.1-.4-4.4-1.3-1.6-1.1-2.6-2.8-2.8-4.7-.4-2.7.9-5.3,3.2-6.7.9-.6,1.9-.9,3-1h2c1.1.4,2.2,1.1,2.9,2,.4.5.7,1,.9,1.5.4.9.6,1.8.6,2.8v1.5c0,.8-.3,1.5-.7,2.2-.4.7-.9,1.4-1.5,2-.5.5-1.1.8-1.7,1.1-.2,0-.4,0-.6.2v.3Zm-6.3-6.7c0,2.8,2.2,5,5,5s5-2.2,5-5c0-2.8-2.2-5-5-5-2.8,0-5,2.2-5,4.9h0Z"/><path class="cls-8" d="m300.3,68.1c.2,0,.4,0,.6-.2.6-.3,1.2-.6,1.7-1.1.6-.6,1.1-1.3,1.5-2,.3-.7.6-1.4.7-2.2,0-.5,0-1,0-1.5,0-1-.2-1.9-.6-2.8-.2-.5-.5-1-.9-1.5-.7-1-1.7-1.7-2.9-2h-.1c.4,0,.7.2,1.1.3,2.2.8,3.9,2.7,4.3,5,.7,3.4-1.3,6.7-4.5,7.8-.3,0-.6.2-.9.2Z"/><path class="cls-24" d="m294.1,61.4c0-2.8,2.2-5,5-5s5,2.2,5,5-2.2,5-5,5h0c-2.7,0-4.9-2.2-5-4.9h0Zm5-3.1h-2.2c-.3,0-.5,0-.6.2,0,0,0,.1-.1.2-.8.8-1.1,2-1,3.1,0,1,.5,1.9,1.3,2.5,0,0,.2,0,.3,0h4.6c.3,0,.5,0,.7-.3h.1c.8-1,1.1-2.2.9-3.4-.1-.8-.5-1.6-1.1-2.2-.1-.2-.4-.3-.6-.3h-2.3,0Z"/><path class="cls-7" d="m299,58.3h2.3c.2,0,.5.1.6.3.6.6,1,1.4,1.1,2.2.2,1.2-.1,2.4-.9,3.3h-.1c-.2.3-.4.4-.7.4h-4.6c-.1,0-.2,0-.3,0-.7-.7-1.2-1.5-1.3-2.5-.1-1.1.2-2.3,1-3.1,0,0,0-.1.1-.2.2-.2.4-.3.6-.2h2.2Zm2.2,3.1c0-1.2-.9-2.2-2.1-2.2,0,0,0,0,0,0-1.1,0-2.1.9-2.1,2,0,0,0,0,0,.1,0,1.2.9,2.2,2.1,2.2,0,0,0,0,0,0,1.1,0,2.1-.9,2.1-2,0,0,0,0,0-.1Z"/><path class="cls-20" d="m301.2,61.4c0,1.1-.9,2.1-2,2.1,0,0,0,0-.1,0-1.2,0-2.2-.9-2.2-2.1,0,0,0,0,0,0,0-1.1.9-2.1,2-2.1,0,0,0,0,.1,0,1.2,0,2.2,1,2.2,2.2Zm-2.2-1.2c-.6,0-1.2.5-1.2,1.1,0,0,0,0,0,0h0c0,.7.5,1.2,1.2,1.2s1.2-.5,1.2-1.2-.5-1.2-1.2-1.2Z"/><path class="cls-30" d="m299,62.6c-.7,0-1.2-.5-1.2-1.2s.5-1.2,1.2-1.2h0c.1,0,.1.2.2.3,0,.6,0,1.2,0,1.8,0,0,0,.2-.2.3Z"/><path class="cls-15" d="m299,62.6c.1,0,.1-.2.2-.3,0-.6,0-1.2,0-1.8,0,0,0-.2-.2-.3.7,0,1.2.5,1.2,1.2s-.5,1.2-1.2,1.2Z"/><circle class="cls-10" cx="309.8" cy="64.2" r="45"/><path d="m279.2,65.4l.2,2.1-5.3.4,4,2.1v.2l-3.7,2.6,5.3-.4.2,2.1-9.1.7-.2-2.1,3.9-2.8-4.2-2.2-.2-2.1,9.1-.7h0Z"/><path d="m278.6,61c0-.4,0-.9-.2-1.3l1.2-1.3c.7.8,1,1.9.7,3-.2,1.8-1.9,3.1-3.8,2.9-.1,0-.2,0-.3,0-1.8-.3-3-2-2.7-3.8,0-.1,0-.2,0-.3.3-1.7,2-2.9,3.8-2.6,0,0,.2,0,.2,0,.2,0,.5,0,.7.2l-1,4.5c.7,0,1.2-.6,1.2-1.3h0Zm-2.1-1.7c-.8,0-1.4.7-1.3,1.5,0,.5.3.9.7,1.2l.6-2.7Z"/><path d="m275.7,47.8l8.2,3.9-.8,1.8-.6-.3c.3.7.3,1.5-.1,2.1-.8,1.6-2.8,2.2-4.3,1.3,0,0,0,0,0,0-1.7-.7-2.5-2.6-1.8-4.3.3-.7.9-1.2,1.6-1.4l-2.9-1.4.8-1.8h0Zm4.4,4.3c-.8-.4-1.7,0-2.1.7-.4.7-.1,1.6.6,2,0,0,.1,0,.2,0,.8.4,1.7,0,2.1-.7.4-.7,0-1.7-.6-2.1,0,0-.1,0-.2,0h0Z"/><path d="m277.8,46.3c-.5-.4-.7-1.1-.3-1.6.4-.5,1.1-.7,1.6-.3.5.4.7,1.1.3,1.6-.4.5-1.1.6-1.6.3Zm1.5.9l1.1-1.6,5.3,3.8-1.1,1.6-5.3-3.8Z"/><path d="m286.5,39.1l4.5,4.7-1.4,1.4-.4-.4c0,.7-.3,1.4-.8,1.9-1.5,1.2-3.7.9-4.8-.6-1-1.3-1-3.1,0-4.3.5-.5,1.2-.8,1.9-.8l-.4-.4,1.4-1.4h0Zm.9,3.7c-.5-.6-1.4-.7-2-.2,0,0-.2.1-.2.2-.6.5-.7,1.5-.1,2.1,0,0,0,0,.1.1.5.6,1.4.7,2,.2,0,0,.2-.1.2-.2.6-.6.6-1.5,0-2.1,0,0,0,0,0,0h0Z"/><path d="m289.4,39l4.2-2.6,1,1.6-4.2,2.6-1-1.6Z"/><path d="m295.9,38.3l1.4-1.6c.5.6,1.4.9,2.2.6.9-.3,1-.8.9-1.1-.2-.5-.7-.6-2.2-.5-1.5,0-2.9,0-3.4-1.7-.5-1.5.3-3,1.8-3.5,0,0,.2,0,.2,0,1.3-.5,2.9-.2,3.8.9l-1.3,1.5c-.4-.6-1.2-.8-1.8-.5-.6.2-.8.6-.7,1s.4.6,1.9.5,3.1,0,3.7,1.7c.6,1.8-.4,3.1-2.3,3.7-1.4.6-3.1.3-4.2-.9Z"/><path d="m302.3,29.9c0-.6.4-1.2,1-1.3s1.2.4,1.3,1-.4,1.2-1,1.3c0,0,0,0,0,0-.6,0-1.2-.3-1.3-.9,0,0,0,0,0,0Zm.5,1.7l1.9-.3,1.1,6.4-1.9.3-1.1-6.4Z"/><path d="m313,33.4v4h-2v-3.7c0-.6-.4-1.1-1-1.2,0,0,0,0-.1,0-.6,0-1.2.4-1.2,1,0,0,0,.2,0,.3v3.5h-2v-6.5h2v.6c.5-.6,1.2-.9,1.9-.8,1.3,0,2.4,1.1,2.4,2.4,0,.1,0,.2,0,.3h0Z"/><path d="m321.9,32.8l-1.5,6c-.5,2.1-2.4,2.6-4.1,2.2-1.2-.2-2.2-1.1-2.6-2.3l1.8-.5c.1.5.4.9,1.2,1.2.7.3,1.4,0,1.7-.7,0,0,0-.2,0-.3v-.6c-.5.5-1.2.6-1.9.4-1.7-.4-2.8-2.2-2.3-3.9,0,0,0,0,0-.1.4-1.7,2.1-2.8,3.8-2.4,0,0,0,0,.1,0,.7.1,1.3.6,1.6,1.3l.2-.6,1.8.5v-.2Zm-2.6,2.6c.2-.8-.3-1.6-1-1.8,0,0-.1,0-.2,0-.8-.2-1.6.2-1.9,1,0,0,0,0,0,.1-.2.8.3,1.6,1,1.8,0,0,.1,0,.2,0,.8.2,1.6-.2,1.9-1,0,0,0-.1,0-.2h0Z"/><path d="m325.1,31l1.8.8-3.9,8.7-1.8-.8,3.9-8.7Z"/><path d="m327.7,41.4c.4.3.8.4,1.3.3l.8,1.6c-1.1.4-2.2.2-3.1-.5-1.6-.9-2.2-3.1-1.3-4.7.9-1.6,3.1-2.2,4.7-1.3,1.6.9,2.2,3.1,1.3,4.7,0,0,0,.1,0,.2-.2.2-.3.4-.5.6l-3.8-2.6c-.2.7.2,1.2.8,1.6h0Zm2.3-1.3c.2-.6,0-1.3-.6-1.6-.5-.4-1.2-.4-1.7,0l2.3,1.5h0Z"/><path d="m334.4,44.7c1.4-1.2,3.5-1,4.6.4,0,0,.1.1.2.2.7.9.9,2.2.5,3.3l-1.8-.7c.2-.5.1-1-.2-1.4-.4-.6-1.3-.8-1.9-.3,0,0-.1,0-.2.1-.7.5-.8,1.4-.3,2.1,0,0,0,0,0,0,.3.5.9.7,1.4.5l.3,1.9c-1.2.2-2.4-.3-3.1-1.3-1.2-1.5-.9-3.6.5-4.7,0,0,0,0,0,0h0Z"/><path d="m344.6,55.2l-5.9,2.8-.8-1.8.6-.3c-.7-.2-1.2-.7-1.5-1.4-.7-1.7.1-3.6,1.8-4.3,1.6-.8,3.5-.3,4.3,1.3,0,0,0,0,0,.1.4.6.4,1.4.1,2.1l.6-.3.8,1.8h-.1Zm-3.8-.4c.8-.4,1-1.3.7-2.1s-1.3-1-2.1-.7c-.7.4-1,1.3-.7,2,.3.8,1.2,1.1,2,.8,0,0,0,0,.1,0h0Z"/><path d="m344,82l-2.1-.7c.5-.7.4-1.6-.3-2.1-.2-.1-.3-.2-.5-.2l-2.8-1,.6-1.8,6.1,2.1-.6,1.8-1.1-.4c.6.6.9,1.5.6,2.3h0Z"/><path d="m340,89.2l-5.6-3.3,1-1.7.5.3c-.2-.7-.1-1.5.3-2.1,1-1.5,3-1.9,4.5-1,1.6.8,2.2,2.7,1.5,4.3,0,0,0,0,0,.1-.3.7-.9,1.2-1.7,1.3l.5.3-1,1.7h.1Zm-1.8-3.3c.7.5,1.6.3,2-.4,0,0,0,0,0,0,.4-.7.2-1.7-.6-2.1,0,0,0,0,0,0-.7-.5-1.6-.3-2,.4,0,0,0,0,0,0-.4.7-.2,1.7.6,2.1,0,0,0,0,0,0h0Z"/><circle class="cls-10" cx="90.2" cy="64.2" r="45"/><path d="m56.8,48.6c1.9.7,2.8,2.8,2.1,4.7,0,0,0,0,0,0l-.6,1.5,3.1,1.2-.8,2.2-9.8-3.7,1.4-3.7c.7-1.9,2.8-2.9,4.7-2.2h-.1Zm-.8,2.2c-.6-.3-1.3,0-1.6.5,0,0,0,.1,0,.2l-.5,1.5,2.5.9.6-1.5c.3-.7,0-1.4-.7-1.7,0,0,0,0,0,0h0Z"/><path d="m64,42.1l3.7,2.7-1.3,1.8-3.5-2.5c-.6-.4-1.5-.2-1.9.4-.4.6-.2,1.5.4,1.9h0l3.3,2.4-1.3,1.8-8.5-6.2,1.3-1.8,3,2.2c-.2-.8,0-1.6.5-2.3,1-1.3,2.8-1.5,4.1-.6,0,0,0,0,0,0h.1Z"/><path d="m65.8,41.4c-1.4-1.7-1.1-4.2.6-5.6,1.7-1.4,4.2-1.1,5.6.6,1.4,1.7,1.1,4.2-.6,5.6,0,0,0,0,0,0-1.7,1.4-4.2,1.1-5.6-.6Zm4.4-3.6c-.6-.8-1.7-.9-2.5-.3,0,0,0,0,0,0-.7.5-.9,1.6-.4,2.3,0,0,0,.1.2.2.6.8,1.7.9,2.5.3,0,0,0,0,0,0,.7-.5.9-1.6.3-2.3,0,0,0-.1-.1-.2h0Z"/><path d="m79.6,32l1.8,4.2-2.1.9-1.7-3.9c-.2-.6-.8-1-1.4-.8,0,0-.2,0-.3.1-.8.3-1.1,1-.7,2l1.6,3.8-2.1.9-3-6.9,2.1-.9.3.6c.2-.8.8-1.4,1.6-1.7,1.4-.6,3.1,0,3.7,1.5,0,0,0,.2,0,.2h0Z"/><path d="m85.8,33.7c.5,0,1-.3,1.3-.8l1.9.8c-1,2-3.4,2.9-5.4,1.9-2-1-2.9-3.4-1.9-5.4.6-1.2,1.7-2,3-2.2,2-.3,3.9,1.1,4.3,3.1,0,.1,0,.2,0,.3v.9l-5.3.8c.4.7,1.2,1,1.9.8h.2Zm1-2.9c-.3-.7-1-1-1.7-.9-.8,0-1.3.6-1.4,1.4l3.2-.5h0Z"/><path d="m91,29.5l5.7.6-.2,2.2-5.7-.6.2-2.1h0Z"/><path d="m106.1,35c-.6,2-2.7,3.1-4.7,2.5,0,0,0,0,0,0-.8-.2-1.5-.8-1.8-1.6l-.2.7-2.1-.8,3.6-9.8,2.1.8-1.3,3.5c.7-.4,1.7-.4,2.4,0,1.9.8,2.8,3.1,2,5v-.3Zm-2.1-.8c.4-.8.1-1.8-.7-2.2-.1,0-.2,0-.3-.1-.8-.4-1.8,0-2.2.8,0,0,0,.2-.1.3-.4.8-.1,1.8.7,2.2.1,0,.2,0,.3.1.8.4,1.8,0,2.2-.8,0-.1,0-.2.1-.3h0Z"/><path d="m107.2,35.6c1.3-1.7,3.7-2.1,5.4-.9,0,0,0,0,0,0,1.7,1.3,2.1,3.7.9,5.5-1.5,1.6-4,1.7-5.7.2-1.3-1.3-1.6-3.3-.7-4.9Zm4.6,3.4c.6-.7.5-1.8-.3-2.4,0,0,0,0,0,0-.7-.6-1.7-.5-2.2.2,0,0-.1.1-.2.2-.6.7-.5,1.8.3,2.4,0,0,0,0,0,0,.7.6,1.7.5,2.2-.2,0,0,.1-.1.2-.2Z"/><path d="m124.8,43.4l-8.3,6.5-1.4-1.8.6-.4c-.9,0-1.6-.5-2.1-1.2-1.2-1.7-.8-4.1.9-5.3,1.5-1.4,3.8-1.2,5.2.2,0,0,0,0,.1.2.5.6.8,1.5.7,2.3l2.9-2.3,1.4,1.8Zm-6.7,2.4c.8-.5,1-1.5.5-2.2,0,0-.1-.2-.2-.3-.5-.8-1.6-1-2.3-.4,0,0-.1,0-.2.1-.8.5-1,1.5-.5,2.2,0,0,.1.2.2.3.5.8,1.6,1,2.3.4,0,0,.1,0,.2-.1h0Z"/><path d="m126.7,54.4l-7.7.5c-2.5.2-3.9-.7-4.6-2.7l1.9-.8c.2.9,1,1.4,1.9,1.2,0,0,0,0,0,0l5.4-5.5,1,2.3-3.6,3.3,4.8-.5.9,2.2h0Z"/><path d="m121.4,56.8l4.2,2.9c.5.5,1.3.8,2,.8.6,0,1-.5.9-1.1,0,0,0-.2,0-.2-.1-.7-.7-1.2-1.4-1.3l.8-2.2c1.5.4,2.6,1.6,2.8,3.1.4,1.8-.7,3.5-2.5,4,0,0-.1,0-.2,0-1.3.1-2.5-.3-3.5-1.1l-2-1.4.6,3.5-2.3.4-1.1-7.1,1.7-.3Z"/><path class="cls-26" d="m95.6,48.4h6.1c1.8.1,3.2,1.5,3.4,3.3v41.4c.1,1.7-.9,3.2-2.5,3.8-.4.1-.7.2-1.1.2h-22.6c-2,0-3.7-1.7-3.7-3.7v-4h1.8v4c0,1,.7,1.9,1.7,1.9,0,0,.2,0,.3,0h22.2c1,0,1.9-.7,2-1.8,0,0,0-.2,0-.2v-41c0-1-.7-1.9-1.7-2,0,0-.1,0-.2,0h-4.6c0-.8-.7-1.3-1.1-1.9Z"/><path class="cls-5" d="m95.6,48.4c.4.6,1,1.1,1.1,1.8h-17.3c-1.7,0-2.4.7-2.4,2.4v36.7h-1.8v-36.9c-.1-1.6.8-3.1,2.3-3.7.4-.2.8-.3,1.3-.3h16.8Z"/><path class="cls-33" d="m77,89.4v-36.7c0-1.7.7-2.4,2.4-2.4h17.4v36c0,1.7-1.2,3-2.9,3.1,0,0,0,0-.1,0h-16.8Zm13.1-33.5h3.6c1,0,1.9-.8,2-1.8,0-1-.8-1.9-1.8-1.9,0,0-.1,0-.2,0h-7.2c-1,0-1.9.8-2,1.8,0,1,.8,1.9,1.8,1.9,0,0,.1,0,.2,0h3.6Zm-4.2,22.9c.2,0,.4-.1.6-.3l9.2-9.2c.2-.2.4-.5.3-.8,0-.3-.2-.6-.6-.7-.4-.1-.8,0-1.1.3l-9.1,9.1-.2.2c-.2.3-.2.6,0,.9.2.3.5.5.9.5Zm5.7-11.1c0-.4-.3-.7-.6-.9-.5-.2-.8,0-1.1.4l-5.5,5.5c-.5.5-.5,1.1,0,1.4s1,.4,1.4,0c1.9-1.8,3.7-3.7,5.6-5.5.2-.2.3-.4.4-.7h0l-.2-.2Z"/><path class="cls-22" d="m77.1,89.4h16.7c1.6,0,3-1.2,3-2.8,0,0,0-.2,0-.3v-36h4.5c1,0,1.9.7,1.9,1.7,0,0,0,.2,0,.3v41c0,1-.7,1.9-1.8,2,0,0-.2,0-.2,0h-22.2c-1.1,0-2-.8-2-1.8,0,0,0,0,0,0v-4h0Zm13.1,3.1h-5.4c-.7,0-1.2.3-1.2.9,0,.6.4,1,1,1,0,0,0,0,.1,0h10.8c.7,0,1.2-.4,1.1-.9,0-.6-.6-1-1.2-.9h0s-5.4,0-5.4,0h.2Z"/><path class="cls-21" d="m90.1,55.9h-3.6c-1,0-1.9-.7-2-1.7,0,0,0-.1,0-.2,0-1,.8-1.8,1.8-1.8,0,0,.2,0,.2,0h7.2c1,0,1.9.7,2,1.7,0,0,0,.1,0,.2,0,1-.9,1.8-1.9,1.8,0,0,0,0-.1,0h-3.6Z"/><path class="cls-18" d="m85.9,78.8c-.4,0-.7-.2-.9-.5-.1-.3-.1-.6,0-.9l.2-.2,9.1-9.1c.3-.3.7-.4,1.1-.3.4,0,.5.4.6.7.1.3,0,.6-.3.8l-9.2,9.2c-.2.2-.4.3-.6.3Z"/><path class="cls-14" d="m90.1,92.4h5.4c.7,0,1.2.3,1.2.9s-.4.9-1.1.9h-10.8c-.7,0-1.2-.4-1.1-1s.4-.9,1.2-.9h5.4-.2Z"/><path d="m80.6,86.5v-4.8l8.6-9.1c.7-.7,1.3-1.5,1.9-2.3.4-.5.6-1.1.6-1.7,0-.6-.2-1.2-.6-1.6-.5-.4-1.1-.6-1.7-.6-1.5,0-2.7.9-3.5,2.7l-5.7-3.2c.7-1.8,2-3.4,3.7-4.4,3.7-2.2,8.3-2,11.7.7,1.8,1.5,2.7,3.7,2.6,6,.1,1.5-.3,3-1.1,4.2-.8,1.5-1.9,2.8-3.1,4l-3.5,3.7h8.1v6.4h-18Z"/></svg>