<?xml version="1.0" encoding="UTF-8"?><svg id="Layer_1" xmlns="http://www.w3.org/2000/svg" xmlns:xlink="http://www.w3.org/1999/xlink" viewBox="0 0 400 272"><defs><style>.cls-1{fill:#a7cefe;}.cls-2{fill:url(#linear-gradient-2);}.cls-3{fill:#fff;}.cls-4{fill:#eb917f;}.cls-5{fill:#fdc00f;}.cls-6{fill:#f3bd99;}.cls-7{stroke:#c000e2;}.cls-7,.cls-8{stroke-width:4px;}.cls-7,.cls-8,.cls-9{stroke-miterlimit:10;}.cls-7,.cls-8,.cls-9,.cls-10{fill:none;}.cls-11{fill:#f4bd99;}.cls-8{stroke:#00b51e;}.cls-12{fill:#717f8f;}.cls-9{stroke:#231f20;stroke-width:2px;}.cls-13{fill:gray;}.cls-14{fill:#16c5d5;}.cls-15{fill:#97d6e5;}.cls-16{fill:#728090;}.cls-17{fill:#1b1464;}.cls-18{fill:#073856;}.cls-19{fill:#9dd8e6;}.cls-20{fill:#b6d6fd;}.cls-21{fill:url(#linear-gradient);}.cls-22{fill:#3f4a5b;}.cls-23{fill:#231f20;}</style><linearGradient id="linear-gradient" x1="-723.4" y1="85.8" x2="-721.9" y2="74.2" gradientTransform="translate(812.8 -165.4) rotate(-27.3)" gradientUnits="userSpaceOnUse"><stop offset="0" stop-color="#d53f26"/><stop offset="1" stop-color="#a4252c"/></linearGradient><linearGradient id="linear-gradient-2" x1="-1002" y1="-56.3" x2="-1000.5" y2="-67.9" gradientTransform="translate(-722.5 -170.8) rotate(-152.4) scale(1 -1)" xlink:href="#linear-gradient"/></defs><path d="m92.3,96.9l5.7.6-.2,2.1-5.7-.6.2-2.1Z"/><path d="m192.6,30.6c-.1-.6.3-1.2.9-1.3.6-.1,1.2.3,1.3.9.1.6-.3,1.2-.9,1.3,0,0,0,0,0,0-.6.1-1.2-.3-1.3-.9Zm.5,1.6l1.8-.3,1.1,6-1.8.3-1.1-6Z"/><path d="m196.7,34.6c0-1.7,1.3-3.2,3-3.3,0,0,0,0,0,0,1.1,0,2.2.5,2.8,1.5l-1.6,1c-.2-.4-.7-.7-1.2-.7-.7,0-1.3.5-1.3,1.2,0,0,0,.2,0,.3,0,.8.6,1.4,1.3,1.4,0,0,0,0,0,0,.5,0,1-.3,1.2-.7l1.6.9c-.5,1-1.6,1.6-2.7,1.7-1.7.1-3.2-1.2-3.3-2.9,0,0,0-.1,0-.2v-.2Z"/><path d="m210.3,32.6l-1.1,6-1.8-.3v-.6c-.5.5-1.2.6-1.8.4-1.7-.4-2.7-2-2.3-3.7,0,0,0,0,0,0,.2-1.7,1.8-2.9,3.5-2.7.7,0,1.3.5,1.7,1.1v-.6c.1,0,1.9.3,1.9.3h0Zm-2.4,2.7c.2-.7-.2-1.4-.9-1.6-.1,0-.2,0-.3,0-.7-.2-1.5.3-1.7,1,0,0,0,.1,0,.2-.2.7.2,1.4.9,1.6.1,0,.2,0,.3,0,.7.2,1.5-.3,1.7-1,0,0,0-.1,0-.2Z"/><line class="cls-10" x1="200.3" y1="119.6" x2="200.8" y2="152.4"/><line class="cls-9" x1="200.3" y1="119.6" x2="200.6" y2="141.6"/><polygon class="cls-23" points="193.1 139.5 200.8 152.4 208.1 139.3 193.1 139.5"/><line class="cls-10" x1="118.7" y1="115.3" x2="167.3" y2="154.6"/><line class="cls-9" x1="118.7" y1="115.3" x2="158.9" y2="147.9"/><polygon class="cls-23" points="152.5 152.3 167.3 154.7 161.9 140.7 152.5 152.3"/><line class="cls-10" x1="281.3" y1="115.3" x2="232.7" y2="154.6"/><line class="cls-9" x1="281.3" y1="115.3" x2="241" y2="147.9"/><polygon class="cls-23" points="238 140.7 232.7 154.6 247.4 152.3 238 140.7"/><circle class="cls-8" cx="200" cy="206.1" r="45"/><path d="m177.5,180.4c2.3,1.9,2.6,5.2.7,7.4-.1.1-.2.2-.3.4-2.1,2.5-5.9,2.8-8.3.6,0,0,0,0,0,0-2.4-2.2-2.6-5.9-.4-8.3,0,0,0,0,0,0,1.3-1.5,3.3-2.2,5.2-1.9l-.5,2.5c-1.1-.2-2.1.3-2.8,1.1-1.2,1.2-1.2,3.2,0,4.5,0,0,.2.2.3.2,1.4,1.3,3.3,1.2,4.8-.4.9-.8,1.2-2.2.6-3.3l-2,2.2-1.7-1.5,3.8-4.2.7.6h0Z"/><path d="m187.7,176.3c1.1,1.9.5,4.4-1.4,5.5,0,0,0,0,0,0-.8.5-1.7.6-2.6.3l1.9,3.5-2.1,1.1-5.3-9.9,2.1-1.1.4.7c.2-.9.8-1.6,1.6-2,2-1,4.4-.1,5.4,1.9Zm-2.1,1.1c-.4-.9-1.5-1.3-2.4-.9,0,0-.1,0-.2.1-.9.4-1.3,1.6-.9,2.5,0,0,0,0,0,.1.4.9,1.5,1.3,2.4.9,0,0,.1,0,.2-.1.9-.4,1.3-1.6.9-2.5,0,0,0,0,0-.1h0Z"/><path d="m196.7,173.3l1,4.8-2.3.5-.9-4.5c0-.7-.7-1.2-1.4-1.2-.1,0-.2,0-.3,0-.7,0-1.3.8-1.2,1.5,0,.1,0,.3.1.4l.9,4.3-2.4.5-2.3-11,2.3-.5.8,3.9c.4-.8,1.1-1.3,2-1.4,1.6-.3,3.2.7,3.6,2.3,0,0,0,.2,0,.3h0Z"/><path d="m198.5,174.1c.2-2.3,2.2-4.1,4.6-3.9s4.1,2.2,3.9,4.6-2.2,4.1-4.6,3.9-4.1-2.2-3.9-4.6Zm6.1.5c.1-1-.6-1.9-1.6-2,0,0,0,0,0,0-1,0-1.9.7-2,1.7-.1,1,.6,1.9,1.6,2,0,0,0,0,0,0,1,0,1.9-.7,2-1.7Z"/><path d="m216.2,177.1l-1.7,4.6-2.2-.9,1.6-4.3c.4-.6.1-1.4-.5-1.8,0,0-.2,0-.3-.1-.8-.3-1.6,0-1.9.8,0,0,0,.1,0,.2l-1.6,4.1-2.2-.9,2.8-7.5,2.2.9-.3.7c.8-.5,1.7-.5,2.5,0,1.5.6,2.4,2.1,1.6,4.2h0Z"/><path d="m219.6,183c.5.4,1,.5,1.6.4l.9,2c-2.4.6-4.8-.9-5.4-3.3-.3-1.2,0-2.5.6-3.5,1.3-1.8,3.8-2.3,5.7-1,0,0,.2.1.2.2,1.8,1.3,2.2,3.8.9,5.6,0,0-.1.1-.2.2-.2.3-.4.5-.7.7l-4.5-3.4c-.2.8.2,1.6.9,2h0Zm2.9-1.5c.4-.7,0-1.6-.6-2-.6-.6-1.6-.6-2.2,0l2.8,2.1h0Z"/><path d="m236.1,188l-9.4,6-1.4-2.2,7.2-4.6-1.5-1.4,1.5-1.7,2.5,1.9,1.2,1.9h-.1Z"/><path class="cls-14" d="m210,184.2c-6.6-1.4-13.4-1.4-20,0-2.3.4-4,2.2-4.3,4.5-2.5,19.9-1.6,30.9,1.8,51,.5,2.7,2.3,5.2,4,5.5,5.6,1.1,11.5,1.1,17.1,0,1.7-.3,3.5-2.9,4-5.5,3.4-20.1,4.3-31.1,1.8-51-.3-2.3-2-4.1-4.3-4.5h-.1Z"/><path class="cls-18" d="m192.6,212.1c4.8,1.5,10,1.5,14.8,0,1-.3,1-.7-.1-.7h-14.6c-1.1,0-1.2.4,0,.7Z"/><path class="cls-5" d="m207.8,191.7h-15.5c-1.7.1-2.9,1.6-2.8,3.3,0,0,0,0,0,0v10.6c0,1.7,1.1,3.1,2.8,3.3h15.5c1.7-.1,2.9-1.6,2.8-3.3,0,0,0,0,0,0v-10.6c0-1.7-1.1-3.1-2.8-3.3Z"/><path class="cls-3" d="m195.2,219.5c0,.6-.4,1.1-1,1-1.3-.2-2.6-.5-3.8-.8-.6-.2-1-.8-1-1.4,0-1.2,0-2.5-.1-3.7,0-.5.3-.9.7-.9,0,0,.2,0,.3,0,1.3.3,2.6.6,3.9.8.6,0,1,.7,1,1.3v3.7Z"/><path class="cls-3" d="m203,219.7c0,.6-.4,1.1-1,1.2h-3.9c-.6,0-1-.6-1-1.2v-3.7c0-.6.4-1,1-1.1h3.9c.6,0,1,.4,1,1,0,0,0,0,0,.1v3.7Z"/><path class="cls-3" d="m210.7,218.3c0,.6-.4,1.2-1,1.4-1.3.3-2.6.6-3.8.8-.5,0-1-.4-1-.9,0,0,0,0,0-.1v-3.7c0-.6.4-1.1,1-1.3,1.3-.2,2.6-.5,3.9-.8.6-.1,1,.2,1,.9,0,1.2,0,2.5,0,3.7Z"/><path class="cls-3" d="m195.3,227c0,.6-.4,1.1-1,1-1.3-.2-2.6-.4-3.8-.8-.6-.2-1-.8-1-1.4,0-1.2,0-2.5-.1-3.7,0-.5.3-.9.7-.9,0,0,.2,0,.3,0,1.3.3,2.5.6,3.8.8.6,0,1,.7,1,1.3v3.7h.1Z"/><path class="cls-3" d="m202.9,227.2c0,.6-.4,1.1-1,1.2h-3.8c-.6,0-1-.6-1-1.2v-3.7c0-.5.3-1,.9-1.1,0,0,0,0,.1,0h3.9c.6,0,1,.4,1,1,0,0,0,0,0,.1v3.7h-.1Z"/><path class="cls-3" d="m210.5,225.9c0,.6-.4,1.2-1,1.4-1.2.3-2.5.6-3.8.8-.6,0-1-.4-1-1v-3.7c0-.6.4-1.1,1-1.3,1.3-.2,2.6-.4,3.8-.8.4,0,.9.2,1,.6,0,0,0,.2,0,.3,0,1.2,0,2.5-.1,3.7h.1Z"/><path class="cls-3" d="m195.4,234.6c0,.6-.4,1.1-1,1-1.2-.2-2.5-.4-3.7-.7-.6-.2-1-.8-1-1.4,0-1.2,0-2.5-.1-3.7,0-.6.4-1,.9-.9,1.2.3,2.5.6,3.7.8.5,0,1,.7,1,1.3v3.7h.2Z"/><path class="cls-3" d="m202.9,234.7c0,.6-.4,1.1-1,1.2h-3.7c-.6,0-1-.6-1-1.2v-3.7c0-.5.3-1,.9-1.1,0,0,0,0,.1,0h3.8c.6,0,1,.5,1,1.1v3.7h-.1Z"/><path class="cls-3" d="m210.3,233.4c0,.6-.4,1.2-1,1.4-1.2.3-2.4.6-3.7.7-.6,0-1-.4-1-1v-3.7c0-.6.4-1.1,1-1.3,1.3-.2,2.5-.4,3.7-.8.4,0,.8.2.9.6,0,.1,0,.2,0,.3,0,1.2,0,2.5-.1,3.7h.2Z"/><path class="cls-3" d="m202.8,242.3c0,.6-.4,1.1-1,1.2h-3.6c-.6,0-1-.6-1-1.2v-3.7c0-.5.3-1,.9-1.1,0,0,0,0,.1,0h3.7c.6,0,1,.5,1,1.1v3.7h0Z"/><path class="cls-18" d="m198.9,189.9c0,.2-.2.5-.4.5h0c-.2,0-.4-.3-.4-.5v-4c0-.2.2-.5.4-.5h0c.2,0,.4.3.4.5v4Z"/><path class="cls-18" d="m200.5,189.9c0,.2-.2.5-.4.5h0c-.2,0-.4-.3-.4-.5v-4c0-.2.2-.5.4-.5h0c.2,0,.4.3.4.5v4Z"/><path class="cls-18" d="m202.1,189.9c0,.2-.2.5-.4.5h0c-.2,0-.4-.3-.4-.5v-4c0-.2.2-.5.4-.5h0c.2,0,.4.3.4.5v4Z"/><path class="cls-3" d="m202.9,205.5h-.6c-.4,0-.9-.2-1.3-.2-.5,0-1-.2-1.5-.3-.6,0-1.2-.2-1.8-.4h-.3c-.2,0-.3-.3-.2-.5,0-.3.2-.6.4-.8.2-.5.4-.9.6-1.4.2-.3.3-.6.5-.9.3-.4.9-.6,1.3-.3,0,0,.1.1.2.2.2.2.3.4.4.6.3.5.6.9.9,1.4.5.8,1,1.5,1.4,2.3,0,0,0,.1.1.2,0,.2,0,.4-.3.4l.2-.3Z"/><path class="cls-21" d="m210.7,241c-.2,0-.4,0-.6.2-.5.1-.9.3-1.4.4s-1.1.3-1.7.5-1.3.4-2,.6h-.3c-.3,0-.4-.1-.4-.4v-3.9c.1-.6.7-1,1.3-.9,0,0,.1,0,.2,0,.3,0,.5.1.7.3.5.3,1.1.6,1.6.9.9.5,1.7,1,2.6,1.5.1,0,.2,0,.2.2.2.2.2.4,0,.5h-.2Z"/><path class="cls-2" d="m189.3,241c.2,0,.4,0,.6.2.5.1.9.3,1.4.4s1.1.3,1.7.5,1.3.4,2,.6h.3c.3,0,.4-.1.4-.4v-3.9c-.1-.6-.7-1-1.3-.9,0,0-.1,0-.2,0-.3,0-.5.1-.7.3-.5.3-1.1.6-1.6.9-.9.5-1.7,1-2.6,1.5-.1,0-.2,0-.2.2-.2.2-.2.4,0,.5h.2Z"/><path class="cls-3" d="m204,194.7h.2c.2,0,.3.1.2.3s-.2.2-.2.4c-.5.7-1.1,1.4-1.6,2.1l-1.5,1.8c-.2.3-.6.5-.9.6-.4.1-.9,0-1.2-.3-.2-.2-.4-.4-.5-.6-.5-.7-1-1.5-1.4-2.2-.2-.3-.4-.7-.6-1h0c-.1-.3,0-.4.2-.4,1,0,2-.1,3-.2.9,0,1.8,0,2.7-.2.6,0,1.3,0,1.9-.1h0l-.3-.2Z"/><circle class="cls-7" cx="91.2" cy="67.9" r="45"/><path d="m57.9,52.7c1.8.7,2.7,2.7,2.1,4.5,0,0,0,.1,0,.2l-.6,1.5,3.1,1.2-.9,2.2-9.8-3.8,1.4-3.7c.6-1.8,2.7-2.8,4.5-2.2,0,0,.1,0,.2,0h0Zm-.9,2.2c-.6-.3-1.3,0-1.6.5,0,0,0,.1,0,.2l-.6,1.5,2.5,1,.6-1.5c.3-.6,0-1.3-.6-1.6,0,0-.1,0-.2,0Z"/><path d="m65.2,46.2l3.7,2.7-1.3,1.8-3.4-2.5c-.6-.5-1.4-.4-1.9.1-.5.6-.4,1.4.1,1.9,0,0,.2.1.3.2l3.3,2.4-1.3,1.8-8.5-6.2,1.3-1.8,3,2.2c-.2-.8,0-1.6.5-2.3.9-1.2,2.5-1.6,4.2-.4h0Z"/><path d="m66.9,45.6c-1.4-1.7-1.1-4.1.6-5.5,0,0,0,0,.1-.1,1.7-1.4,4.2-1.1,5.6.6,1.4,1.7,1.1,4.1-.6,5.5,0,0,0,0-.1.1-1.7,1.4-4.2,1.1-5.6-.6Zm4.5-3.5c-.6-.8-1.7-.9-2.5-.3,0,0,0,0,0,0-.8.6-.9,1.7-.3,2.5,0,0,0,0,0,0,.6.8,1.7.9,2.5.3,0,0,0,0,0,0,.8-.6.9-1.7.3-2.5,0,0,0,0,0,0Z"/><path d="m80.9,36.3l1.8,4.2-2.1.9-1.7-3.9c-.2-.6-.8-1-1.4-.8,0,0-.2,0-.3.1-.8.3-1.1,1-.7,2l1.6,3.8-2.1.9-2.9-6.9,2.1-.9.3.6c.2-.8.8-1.4,1.6-1.7,1.4-.6,3,0,3.8,1.8h0Z"/><path d="m87.1,38c.5,0,1-.3,1.3-.8l1.9.8c-1.2,2-3.8,2.6-5.7,1.4-1-.6-1.8-1.7-2-2.8-.3-2.2,1.2-4.2,3.4-4.5,2.1-.3,4,1.1,4.3,3.2,0,0,0,.1,0,.2v.9l-5.3.7c.4.7,1.2,1,1.9.8h.2Zm1-2.9c-.3-.6-1-1-1.7-1-.8,0-1.4.6-1.5,1.4l3.2-.4Z"/><path d="m107.3,39.5c-.6,2-2.8,3.1-4.7,2.4,0,0,0,0,0,0-.8-.3-1.4-.9-1.8-1.6l-.3.7-2.1-.8,3.7-9.8,2.1.8-1.3,3.5c.7-.4,1.7-.4,2.4,0,1.9.9,2.7,3.1,1.9,5l.2-.2Zm-2.1-.8c.4-.8.1-1.8-.7-2.2-.1,0-.2,0-.3-.1-.8-.4-1.8,0-2.2.8,0,0,0,.2-.1.3-.4.8-.1,1.8.7,2.2.1,0,.2,0,.3.1.8.4,1.8,0,2.2-.8,0,0,0-.2.1-.3Z"/><path d="m108.4,40.2c1.3-1.8,3.8-2.1,5.6-.8,1.7,1.2,2.2,3.6,1,5.3,0,0-.1.1-.2.2-1.3,1.8-3.8,2.1-5.6.8-1.7-1.2-2.2-3.6-1-5.3,0,0,.1-.1.2-.2Zm4.6,3.4c.6-.7.5-1.9-.3-2.5,0,0,0,0,0,0-.7-.6-1.7-.5-2.2.2,0,0-.1.1-.2.2-.6.7-.5,1.9.3,2.5,0,0,0,0,0,0,.7.6,1.7.5,2.2-.2,0,0,0-.1.1-.2h0Z"/><path d="m125.9,48.1l-8.3,6.4-1.4-1.8.6-.4c-.9,0-1.6-.5-2.1-1.2-1.2-1.7-.8-4.1,1-5.3,0,0,0,0,0,0,1.6-1.4,3.9-1.2,5.3.4,0,0,0,0,0,0,.6.6.8,1.5.6,2.3l2.9-2.3,1.4,1.8h0Zm-6.7,2.3c.8-.5,1-1.6.5-2.4,0,0,0,0,0-.1-.5-.8-1.6-1-2.3-.4,0,0-.1,0-.2.1-.8.5-1,1.6-.5,2.4,0,0,0,0,0,.1.5.8,1.6,1,2.3.4,0,0,.1,0,.2-.1Z"/><path d="m127.7,59.1l-7.7.4c-2.5,0-3.9-.7-4.6-2.7l1.9-.8c.2.9,1,1.4,1.9,1.3l5.5-5.5.9,2.3-3.6,3.3,4.8-.5.9,2.2h0Z"/><path d="m131.7,64.5l-10.3,1.9-.4-2.4,7.8-1.4-.8-1.7,1.9-.9,1.5,2.5.4,2.1h0Z"/><path class="cls-22" d="m80.6,101.2c0-.2-.2,0-.4-.2-2-.5-3.4-2.3-3.4-4.4v-38.8c0-2.7,1.1-4.2,3.6-5,0,0,0,0,0,0h3.4c.5,1.4,1.1,2.7,1.6,4,.1.3.4.4.7.4h9.7c.3,0,.7-.2.8-.5l.6-1.5c.4-.8.7-1.6.9-2.4h3.3c.2.2.5.2.8.3,1.8.6,3,2.3,3.1,4.2v38.8c0,2.8-1.1,4.3-3.8,5.2,0,0-21,0-21,0Zm23.7-7.3h0v-33.8c0-.4-.3-.2-.5-.2h-25.5c-.4,0-.5,0-.5.5v33.4h26.5Zm-13.1,3.1h-4.4c-.5,0-.7.2-.6.7s.4.5.7.5h8.6c.5,0,.7-.2.7-.6s-.3-.5-.7-.5h-4.3,0Z"/><path class="cls-16" d="m98.4,52.7c-.3.8-.6,1.6-.9,2.4l-.6,1.5c0,.4-.4.6-.8.5h-9.7c-.3,0-.6-.1-.7-.4-.5-1.3-1.1-2.6-1.6-3.9h0c0,0,14.3,0,14.3,0Z"/><path class="cls-1" d="m78.1,93.9c-.2,0,0-.3,0-.4v-33c0-.4,0-.5.5-.5h25.5c.2,0,.4-.2.5.2-.2,0-.3.2-.5.4-.3.5-.7,1-1.1,1.4l-4.3,5.5c-1.1,1.5-2.3,2.9-3.4,4.4l-4.3,5.5c-1.1,1.5-2.3,2.9-3.4,4.4-1.5,2-3.1,3.9-4.6,5.9-1.1,1.4-2.2,2.8-3.2,4.2s-1.1,1.3-1.5,2h-.2Z"/><path class="cls-20" d="m78.1,93.9c.4-.7,1-1.3,1.5-2,1.1-1.4,2.2-2.8,3.2-4.2,1.5-2,3.1-3.9,4.6-5.9,1.1-1.5,2.3-2.9,3.4-4.4l4.3-5.5c1.1-1.5,2.3-2.9,3.4-4.4l4.3-5.5,1.1-1.4c0-.2.3-.4.5-.4v33.7h-26.3Z"/><path class="cls-12" d="m91.2,97h4.3c.4,0,.7,0,.7.5s-.2.6-.7.6h-8.6c-.3,0-.6,0-.7-.5s0-.7.6-.7h4.4,0Z"/><path d="m89.5,63.6h5.7v25.9h-6.6v-18.9l-4.5,1.1-1.6-5.6,7-2.5Z"/><path class="cls-11" d="m286.5,92.8c.5-.4.9-.9,1.4-1.3l6.8-6.8c1.6-1.7,4.2-1.7,5.9-.1,0,0,0,0,.1.1.6.5,1,1.2,1.1,2,.1.6.1,1.3,0,1.9-.3.9-.8,1.8-1.5,2.5-2,1.9-3.9,3.9-5.8,5.8-.3.3-.3.4,0,.7,1,1.1,1.8,2.5,2.2,3.9h-13.2c-.2,0-.4,0-.4-.2,0-1.2,0-2.5.2-3.7.3-1.2.9-2.2,1.7-3.1l1.5-1.5v-.2Z"/><path class="cls-6" d="m319.1,90.6c-1.5-.8-2.1-2.6-1.4-4.2.5-1.3,1.9-2.2,3.3-2.1h8.4c1.7,0,3.1,1.2,3.4,2.8-.2,0-.2,0-.2.2-.4.9-1.1,1.6-2,1.9-.6.2-1.2.3-1.8.3h-8.4c-1,0-1.2,0-1.3,1.1Z"/><path class="cls-11" d="m319.1,97.5c-1.6-.9-2.2-3-1.3-4.6.5-.8,1.3-1.4,2.2-1.6.4,0,.7,0,1.1-.2h8.8c.7.2,1.3.5,1.9,1,.5.5.8,1.1,1,1.8,0,0-.2,0-.2.2-.6,1.5-2.1,2.4-3.7,2.2h-8.6c-1,0-1.2.2-1.2,1.2Z"/><path class="cls-11" d="m317.4,101.5c0-1.6,1.1-3,2.6-3.3.2,0,.5,0,.7,0,3.1,0,6.3,0,9.4,0,0,.2.2.2.3.2,1.2.4,2.1,1.4,2.4,2.6.2.7,0,.8-.6.8h-14.8v-.2Z"/><path class="cls-17" d="m296.7,101.5c-.4-1.5-1.1-2.8-2.2-3.9-.3-.3-.3-.4,0-.7,2-1.9,3.9-3.9,5.8-5.8.7-.7,1.2-1.6,1.5-2.5.6,1.5.3,3.3-.9,4.4l-3.8,3.8c-.3.3-.3.4,0,.7,1,1.1,1.8,2.5,2.2,3.9h-2.6Z"/><path class="cls-4" d="m330.1,97.9c-3.1.2-6.3,0-9.4,0-.2,0-.5,0-.7,0-.3-.2-.6-.2-.8-.5h0c0-1.1.2-1.3,1.2-1.3h8.6c1.7,0,3-.5,3.7-2.2,0,0,.1-.2.2-.2.3,1.7-.7,3.5-2.4,4h-.4Z"/><path class="cls-4" d="m329.9,91.1h-8.8c-.4,0-.8,0-1.1.2-.2-.2-.6-.2-.8-.6h-.1c.1-1.1.2-1.3,1.3-1.3h8.4c.6,0,1.2,0,1.8-.3.9-.3,1.6-1,2-1.9,0,0,0-.2.2-.2.4,1.8-.7,3.6-2.5,4h-.4Z"/><path class="cls-15" d="m319.1,63.7h-3.8c-.3,0-.5,0-.5-.4,0-.6.3-1.2,1-1.3.1,0,.2,0,.3,0h6.9c.4,0,.5,0,.5.5,0,.6-.3,1.2-1,1.3-.1,0-.2,0-.3,0h-3.1Z"/><path class="cls-19" d="m322.1,58.5h3.4c.3,0,.4,0,.4.4q0,1.4-1.3,1.4h-5.9c-.4,0-.5,0-.5-.5,0-.9.4-1.3,1.2-1.3h2.7Z"/><path class="cls-19" d="m314.8,59.3c0-.4.2-.7.6-.8,0,0,.1,0,.2,0,.5,0,.8.3.9.9q0,.9-.9.9c-.9,0-.8,0-.8-.9h0Z"/><path class="cls-6" d="m319.1,90.6h.1c0,0-.1,0-.1,0Z"/><path class="cls-17" d="m325.8,54.2h-35.8c-.4,0-.9,0-1.3.2-1.4.5-2.4,1.9-2.3,3.4v35.1c.5-.4.9-.9,1.4-1.3l6.8-6.8c.5-.6,1.2-1,2-1.1,2.2-.6,4.5.7,5.1,2.9,0,0,0,.1,0,.2.1.6.1,1.3,0,1.9.6,1.5.3,3.3-.9,4.4l-3.8,3.8c-.3.3-.3.4,0,.7,1,1.1,1.8,2.5,2.2,3.9h18.1c0-1.6,1.1-3,2.6-3.4-.3-.2-.6-.2-.8-.5h0c-1.7-1-2.2-3.2-1.1-4.9.5-.8,1.2-1.3,2-1.5-.2-.2-.6-.2-.8-.6h-.1c-1.5-.9-2.1-2.8-1.4-4.4.5-1.3,1.9-2.2,3.3-2.1h8.4v-26.5c.1-1.9-1.3-3.5-3.1-3.6-.2,0-.3,0-.5,0v.2Zm-11,5.1c0-.4.2-.7.6-.8,0,0,.1,0,.2,0q.9,0,.9.9t-.9.9c-.9,0-.8,0-.8-.9h0Zm7.4,4.4h-6.9c-.3,0-.5,0-.5-.4q0-1.3,1.3-1.3h6.9c.4,0,.5,0,.5.5q0,1.3-1.3,1.3h0Zm2.5-3.4h-5.9c-.4,0-.5,0-.5-.5q0-1.3,1.2-1.3h6.1c.3,0,.4,0,.4.4q0,1.4-1.3,1.4Z"/><circle class="cls-7" cx="308.8" cy="67.9" r="45"/><path d="m278.2,69.1l.2,2.1-5.3.4,4,2.1v.2l-3.7,2.6,5.3-.4.2,2.1-9.1.7-.2-2.1,3.9-2.8-4.2-2.2-.2-2.1,9.1-.7h0Z"/><path d="m277.6,64.7c0-.4,0-.9-.2-1.3l1.2-1.3c.7.8,1,1.9.7,3-.2,1.8-1.9,3.1-3.8,2.9-.1,0-.2,0-.3,0-1.8-.3-3-2-2.7-3.8,0-.1,0-.2,0-.3.3-1.7,2-2.9,3.8-2.6,0,0,.2,0,.2,0,.2,0,.5,0,.7.2l-1,4.5c.7,0,1.2-.6,1.2-1.3h0Zm-2.1-1.7c-.8,0-1.4.7-1.3,1.5,0,.5.3.9.7,1.2l.6-2.7Z"/><path d="m274.7,51.5l8.2,3.9-.8,1.8-.6-.3c.3.7.3,1.5-.1,2.1-.8,1.6-2.8,2.2-4.3,1.3,0,0,0,0,0,0-1.7-.7-2.5-2.6-1.8-4.3.3-.7.9-1.2,1.6-1.4l-2.9-1.4.8-1.8h0Zm4.4,4.3c-.8-.4-1.7,0-2.1.7-.4.7-.1,1.6.6,2,0,0,.1,0,.2,0,.8.4,1.7,0,2.1-.7.4-.7,0-1.7-.7-2,0,0,0,0-.1,0Z"/><path d="m276.8,50c-.5-.4-.7-1.1-.3-1.6.4-.5,1.1-.7,1.6-.3.5.4.7,1.1.3,1.6-.4.5-1.1.6-1.6.3Zm1.5.9l1.1-1.6,5.3,3.8-1.1,1.6-5.3-3.8Z"/><path d="m285.5,42.8l4.5,4.7-1.4,1.4-.4-.4c0,.7-.3,1.4-.8,1.9-1.5,1.2-3.7.9-4.8-.6-1-1.3-1-3.1,0-4.3.5-.5,1.2-.8,1.9-.8l-.4-.4,1.4-1.4h0Zm.9,3.7c-.5-.6-1.4-.7-2-.2,0,0-.2.1-.2.2-.6.5-.7,1.5-.1,2.1,0,0,0,0,.1.1.5.6,1.4.7,2,.2,0,0,.2-.1.2-.2.6-.5.7-1.5.1-2.1,0,0,0,0-.1-.1Z"/><path d="m288.4,42.7l4.2-2.6,1,1.6-4.2,2.6-1-1.6Z"/><path d="m300,32.9l2.8,8.7-1.5.5-4.9-3.6,1.5,4.7-2,.6-2.8-8.7,1.5-.5,4.9,3.6-1.5-4.7,2-.6Z"/><path d="m303.3,38.2c-.1-1.9,1.3-3.5,3.1-3.6,0,0,0,0,0,0,1.9,0,3.5,1.3,3.7,3.2.1,1.9-1.3,3.5-3.1,3.6,0,0,0,0,0,0-1.9,0-3.5-1.3-3.7-3.2Zm4.9-.3c0-.8-.6-1.4-1.3-1.4,0,0-.2,0-.3,0-.8,0-1.5.8-1.4,1.6,0,.8.8,1.5,1.6,1.4.8,0,1.4-.8,1.4-1.6Z"/><path d="m314.5,38.2c.4-1.8,2.2-2.9,4-2.4,0,0,.1,0,.2,0,1.2.3,2.1,1.2,2.4,2.4l-1.9.5c0-.5-.5-.9-1-1-.8-.2-1.5.2-1.8,1,0,0,0,0,0,.1-.2.7.1,1.5.9,1.8,0,0,0,0,.1,0,.5.2,1.1,0,1.4-.4l1.4,1.4c-.9.9-2.1,1.2-3.3.9-1.8-.4-2.9-2.2-2.4-4,0,0,0-.1,0-.2h0Z"/><path d="m329,40.5l-3,5.7-1.7-.9.3-.5c-.7.2-1.5.2-2.1-.2-1.5-.9-2-3-1.1-4.5.7-1.6,2.6-2.3,4.3-1.6,0,0,0,0,0,0,.7.3,1.2.9,1.3,1.6l.3-.5,1.7.9h0Zm-3.2,2c.4-.6.3-1.5-.3-2,0,0-.2-.1-.3-.1-.7-.4-1.6-.2-2,.5,0,0,0,.1,0,.2-.4.6-.3,1.5.3,2,0,0,.2.1.3.1.7.4,1.6.1,2-.6,0,0,0,0,0-.1h0Z"/><path d="m336.5,50.6l-2.8,2.8-1.4-1.4,2.7-2.7c.5-.5.5-1,0-1.4s-1-.4-1.6.2l-2.6,2.6-1.4-1.4,2.7-2.7c.5-.5.5-1,0-1.4s-1-.4-1.6.2l-2.6,2.6-1.4-1.4,4.6-4.6,1.4,1.4-.4.4c.7-.1,1.4.1,1.8.7.5.5.7,1.1.6,1.8.7-.1,1.4.1,1.9.7,1,.9,1,2.5,0,3.5,0,0-.1.1-.2.2h.2Z"/><path d="m336.9,56.3c.2.4.6.7,1,.9v1.8c-1.1-.1-2.1-.8-2.6-1.8-1-1.5-.6-3.6,1-4.6.1,0,.2-.1.3-.2,1.6-.9,3.7-.4,4.6,1.3,0,0,0,0,0,.1.9,1.6.3,3.5-1.2,4.4,0,0-.1,0-.2,0-.2,0-.5.2-.7.3l-2.2-4c-.4.5-.4,1.3,0,1.8h0Zm2.7,0c.5-.4.6-1.2.2-1.7-.3-.6-1-.9-1.6-.7l1.3,2.5h.1Z"/><path d="m344.7,62.2l-2.1.7c0-.8-.7-1.5-1.6-1.5-.1,0-.3,0-.4,0l-2.8.9-.6-1.9,6.2-2,.6,1.9-1.1.4c.9,0,1.6.6,1.8,1.5h0Z"/><path d="m345.8,70.3l-6.5.8-.2-1.9h.6c-.6-.5-.9-1.2-1-1.9-.2-1.8,1.2-3.3,2.9-3.5,0,0,0,0,0,0,1.8-.3,3.5.9,3.8,2.7.1.7,0,1.4-.5,2h.6l.2,1.9h0Zm-3.5-1.5c.8,0,1.4-.7,1.4-1.5,0,0,0-.2,0-.2,0-.8-.7-1.4-1.5-1.4-.1,0-.2,0-.3,0-.8,0-1.4.7-1.4,1.5,0,0,0,.2,0,.2,0,.8.7,1.4,1.5,1.4.1,0,.2,0,.3,0Z"/><circle class="cls-7" cx="200.6" cy="67.9" r="45"/><path d="m165.9,64.4c-2.3-.4-3.9-2.6-3.5-4.9,0-.1,0-.2,0-.4.3-1.5,1.3-2.7,2.7-3.2l.6,1.9c-.8.3-1.3.9-1.5,1.7-.3,1.3.4,2.6,1.7,2.9,0,0,.2,0,.3,0,1.2.4,2.6-.3,2.9-1.6,0-.1,0-.2,0-.3.2-.8,0-1.6-.6-2.2l1.3-1.4c1,1.1,1.5,2.6,1.2,4-.5,2.4-2.8,3.9-5.2,3.4,0,0,0,0-.1,0Z"/><path d="m169.3,55.9c-1.6-.8-2.2-2.8-1.4-4.4,0,0,0,0,0,0,.8-1.6,2.7-2.3,4.3-1.5,0,0,0,0,0,0,1.6.8,2.2,2.8,1.4,4.4,0,0,0,0,0,0-.8,1.6-2.7,2.3-4.3,1.5,0,0,0,0,0,0Zm2.1-4.2c-.7-.4-1.5,0-1.9.6,0,0,0,0,0,0-.4.6-.1,1.5.5,1.8,0,0,.1,0,.2,0,.7.4,1.5,0,1.9-.6,0,0,0,0,0,0,.3-.7,0-1.5-.6-1.8,0,0,0,0-.1,0h0Z"/><path d="m178.5,41.6l2.8,2.5-1.2,1.4-2.7-2.4c-.5-.4-.9-.5-1.3,0-.4.4-.3,1,0,1.4,0,0,0,0,.1,0l2.6,2.3-1.2,1.4-2.7-2.4c-.5-.4-.9-.5-1.3,0-.4.4-.3,1,0,1.4,0,0,0,0,.1,0l2.6,2.3-1.2,1.4-4.5-4.1,1.2-1.4.4.4c-.1-.6.1-1.3.6-1.7.4-.5,1.1-.7,1.7-.6-.1-.7.1-1.4.6-1.9.9-.9,2.3-1,3.2-.2,0,0,.1,0,.2.2l-.2-.2Z"/><path d="m183.6,35.5l3.3,5.2-1.6,1-.3-.5c0,.7-.5,1.3-1.1,1.6-1,.7-2.5.4-3.1-.6,0,0-.1-.2-.2-.3l-2-3.2,1.6-1,1.9,3c.3.5.9.7,1.4.4,0,0,0,0,0,0,.6-.4.8-.9.3-1.7l-1.8-2.8,1.6-1h0Z"/><path d="m192,34.8l1.3,3.5-1.7.6-1.2-3.3c0-.5-.6-.9-1.2-.8,0,0-.2,0-.2,0-.6.2-.9.9-.7,1.6,0,0,0,0,0,0l1.1,3.2-1.7.6-2.1-5.8,1.7-.6.2.5c.3-.6.8-1.1,1.4-1.3,1.1-.5,2.4.1,2.9,1.3,0,.1,0,.2.1.3h.1Z"/><path d="m213.8,35.8l-.8,2c-.2.5.2.7,1,1l-.6,1.6c-2.3-.6-2.7-1.6-2.1-3.2l.8-2-.9-.4.6-1.6.9.4.4-1.1,1.9.2-.6,1.6,1.2.5-.6,1.6-1.2-.5h0Z"/><path d="m217,35.3l1.6.9-2.9,5.4-1.6-.9,2.9-5.4Zm.6-1.5c.3-.6.9-.8,1.5-.5s.8.9.5,1.5c-.3.6-.9.8-1.5.5,0,0,0,0,0,0-.5-.3-.7-.9-.5-1.5h0Z"/><path d="m218.3,39.4c1.1-1.4,3.1-1.7,4.5-.6,1.4,1.1,1.7,3.1.6,4.5-1,1.4-3,1.7-4.4.7,0,0,0,0-.1-.1-1.4-1.1-1.7-3.1-.6-4.5,0,0,0,0,0,0Zm3.7,2.8c.5-.6.4-1.5-.2-2,0,0,0,0,0,0-.6-.5-1.4-.4-1.9.2,0,0,0,0,0,.1-.5.6-.4,1.5.2,2,0,0,0,0,0,0,.6.5,1.4.4,1.9-.2,0,0,0,0,0-.1h0Z"/><path d="m228.7,48.3l-2.9,2.4-1.2-1.4,2.7-2.2c.5-.3.6-.9.3-1.4,0,0,0,0,0-.1-.4-.5-1-.6-1.7,0l-2.6,2.1-1.2-1.4,4.7-3.9,1.2,1.4-.4.4c.7,0,1.3.3,1.7.9.8,1,.7,2.4-.3,3.2,0,0-.2.1-.2.2v-.2Z"/><path d="m227.3,50.5l4,1.2c.6.3,1.2.3,1.8,0,.4-.2.6-.7.4-1.2,0,0,0,0,0,0-.3-.5-.8-.7-1.4-.7v-1.9c1.3-.1,2.5.5,3.1,1.7.8,1.2.4,2.9-.8,3.6,0,0-.2.1-.3.2-.9.5-2.1.5-3,0l-1.9-.6,1.3,2.5-1.7.9-2.7-5.2,1.3-.7v.2Z"/><path d="m235.1,64c-2.2.6-4.4-.6-5-2.8,0-.1,0-.2,0-.3-.7-2.4.7-4.9,3.1-5.6,0,0,0,0,0,0,2.4-.6,4.8.8,5.4,3.2,0,0,0,0,0,.1.4,1.4,0,3-1,4.1l-1.3-1.4c.5-.6.7-1.5.5-2.3-.3-1.3-1.5-2.1-2.8-1.9,0,0-.2,0-.3,0-1.3.3-2.2,1.6-1.9,2.9,0,0,0,.2,0,.3.1.9.9,1.7,1.8,1.8l-.5-2.2,1.7-.4,1,4.2-.7.2h0Z"/><path class="cls-13" d="m213.4,55.9c-8.5-.2-17.8-.2-26.3,0-14.8,1.9-22,20.9-11.6,31.8,2.2,3.3-1.6,9.5,2.3,11.8,3.3,1,5.2-3.4,7.4-5.1,9.2-1,20.3.5,29.8-.5,22.1-2.9,20.7-37.2-1.6-38.2v.2Z"/><path d="m184.6,83.7v-3.3l5.9-6.2c.5-.5.9-1,1.3-1.6.3-.3.4-.8.4-1.2,0-.4-.1-.8-.4-1.1-.3-.3-.8-.4-1.2-.4-1.1,0-2.1.8-2.4,1.9l-3.9-2.2c.5-1.3,1.4-2.3,2.5-3.1,1.1-.7,2.4-1,3.7-1,1.6,0,3.1.5,4.4,1.5,1.2,1,1.9,2.5,1.8,4.1.1,1-.1,2-.7,2.9-.6,1-1.3,1.9-2.1,2.8l-2.4,2.5h5.6v4.4h-12.5Z"/><path d="m216.4,73.5v1.8c0,2.4-.8,4.7-2.5,6.4-1.7,1.6-4,2.5-6.4,2.4-2.6,0-5-.9-6.9-2.7-3.6-3.6-3.7-9.5,0-13.2,1.8-1.8,4.2-2.8,6.6-2.7,1.6-.1,3.2.3,4.6,1.1,1.4.6,2.5,1.7,3.2,3l-3.9,2.2c-.4-.6-.9-1-1.6-1.3-.7-.3-1.5-.5-2.3-.5-2.6,0-4.8,2-4.9,4.7,0,0,0,.2,0,.2,0,1.3.4,2.6,1.3,3.5,1,1,2.4,1.5,3.8,1.4,1.7,0,3.3-.8,4.1-2.3h-4.3v-3.9h9.2Z"/></svg>