<?xml version="1.0" encoding="UTF-8"?><svg id="Layer_1" xmlns="http://www.w3.org/2000/svg" viewBox="0 0 400 400"><defs><style>.cls-1{fill:#1f2275;}.cls-2{fill:#009245;}.cls-3{fill:#435256;}.cls-4{fill:#fff;}.cls-5{fill:#57575e;}.cls-6{fill:#d9d9ea;}.cls-7{fill:#727272;}.cls-8{fill:#eb917f;}.cls-9{fill:#3a926c;}.cls-10{fill:#48459c;}.cls-11{fill:#fcc472;}.cls-12{fill:#2d3b3d;}.cls-13{fill:#434348;}.cls-14{fill:#f3bd99;}.cls-15{stroke:#c000e2;}.cls-15,.cls-16{stroke-width:4px;}.cls-15,.cls-16,.cls-17{stroke-miterlimit:10;}.cls-15,.cls-16,.cls-17,.cls-18{fill:none;}.cls-19{fill:#626363;}.cls-20{fill:#3392f5;}.cls-21{fill:#fbc372;}.cls-22{fill:#f4bd99;}.cls-16{stroke:#00b51e;}.cls-23{fill:#93dbfe;}.cls-17{stroke:#231f20;stroke-width:2px;}.cls-24{fill:#424248;}.cls-25{fill:#6f7070;}.cls-26{fill:#0aaffe;}.cls-27{fill:#97d6e5;}.cls-28{fill:#3392f6;}.cls-29{fill:#ff1d25;}.cls-30{fill:#636363;}.cls-31{fill:#9dd8e6;}.cls-32{fill:#fdc472;}.cls-33{fill:#6665c6;}.cls-34{fill:#60acfd;}.cls-35{fill:#ccf2ff;isolation:isolate;opacity:.5;}.cls-36{fill:#231f20;}.cls-37{fill:#2dbafe;}.cls-38{fill:#067fa6;}.cls-39{fill:#f99e3d;}</style></defs><path d="m25.8,195.9c-2.3-.4-3.9-2.6-3.5-4.9,0-.1,0-.2,0-.4.3-1.5,1.3-2.7,2.7-3.2l.6,1.9c-.8.3-1.3.9-1.5,1.7-.3,1.3.4,2.6,1.7,2.9,0,0,.2,0,.3,0,1.2.4,2.6-.3,2.9-1.6,0-.1,0-.2,0-.3.2-.8,0-1.6-.6-2.2l1.3-1.4c1,1.1,1.5,2.6,1.2,4-.5,2.4-2.8,3.9-5.2,3.4,0,0,0,0-.1,0Z"/><path d="m29.2,187.4c-1.6-.8-2.2-2.8-1.4-4.4,0,0,0,0,0,0,.8-1.6,2.7-2.3,4.3-1.5,0,0,0,0,0,0,1.6.8,2.2,2.8,1.4,4.4,0,0,0,0,0,0-.8,1.6-2.7,2.3-4.3,1.5,0,0,0,0,0,0Zm2.1-4.2c-.7-.4-1.5,0-1.9.6,0,0,0,0,0,0-.4.6-.1,1.5.5,1.8,0,0,.1,0,.2,0,.7.4,1.5,0,1.9-.6,0,0,0,0,0,0,.4-.6.1-1.5-.5-1.8,0,0-.1,0-.2,0Z"/><path d="m38.4,173.1l2.8,2.5-1.2,1.4-2.7-2.4c-.5-.4-.9-.5-1.3,0-.4.4-.3,1,0,1.4,0,0,0,0,.1,0l2.6,2.3-1.2,1.4-2.7-2.4c-.5-.4-.9-.5-1.3,0-.4.4-.3,1,0,1.4,0,0,0,0,.1,0l2.6,2.3-1.2,1.4-4.5-4.1,1.2-1.4.4.4c-.1-.6.1-1.3.6-1.7.4-.5,1.1-.7,1.7-.6-.1-.7.1-1.4.6-1.9.9-.9,2.3-1,3.2-.2,0,0,.1,0,.2.2l-.2-.2Z"/><line class="cls-18" x1="111.7" y1="199.6" x2="144.4" y2="199.1"/><line class="cls-17" x1="111.7" y1="199.6" x2="133.7" y2="199.3"/><polygon class="cls-36" points="131.6 206.8 144.4 199.1 131.4 191.8 131.6 206.8"/><line class="cls-18" x1="289.5" y1="199.6" x2="256.7" y2="199.1"/><line class="cls-17" x1="289.5" y1="199.6" x2="267.4" y2="199.3"/><polygon class="cls-36" points="269.7 191.8 256.7 199.1 269.5 206.8 269.7 191.8"/><line class="cls-18" x1="200.3" y1="111" x2="200.8" y2="143.8"/><line class="cls-17" x1="200.3" y1="111" x2="200.6" y2="133"/><polygon class="cls-36" points="193.1 130.9 200.8 143.8 208.1 130.7 193.1 130.9"/><line class="cls-18" x1="200.3" y1="287.8" x2="200.8" y2="255"/><line class="cls-17" x1="200.3" y1="287.8" x2="200.6" y2="265.7"/><polygon class="cls-36" points="208.1 268 200.8 255 193.1 267.8 208.1 268"/><circle class="cls-15" cx="339.5" cy="199.4" r="45"/><path d="m306.7,196.9l-.7-2.3c1,0,1.8-.8,1.9-1.8.3-1.1-.1-1.5-.5-1.6-.6-.2-1,.4-1.8,1.8-.8,1.4-1.9,2.7-3.8,2.2-1.8-.5-2.8-2.3-2.3-4.1,0,0,0,0,0-.1.3-1.6,1.6-2.9,3.2-3.2l.7,2.2c-.8,0-1.5.7-1.6,1.5-.2.7,0,1.2.5,1.3s.8,0,1.7-1.5c.9-1.5,1.8-3,4-2.5,2,.5,2.7,2.3,2.2,4.5-.3,1.8-1.7,3.2-3.5,3.5h0Z"/><path d="m307.8,187.5c-1.9-1.1-2.6-3.5-1.6-5.4,1.1-1.9,3.5-2.6,5.4-1.6,1.9,1.1,2.6,3.5,1.6,5.4,0,0,0,0,0,0-1.1,1.9-3.5,2.6-5.4,1.5Zm2.8-5c-.8-.4-1.9-.1-2.3.7-.4.8-.1,1.9.7,2.3.8.4,1.8.1,2.3-.7.5-.9.1-1.9-.7-2.4,0,0,0,0,0,0h0Z"/><path d="m312.5,179.6c-1.5-1.4-1.7-3.8-.2-5.4,0,0,.2-.2.2-.2,1-1,2.4-1.4,3.7-1.1l-.5,2.2c-.6-.2-1.2,0-1.6.5-.6.7-.6,1.8.1,2.4.6.6,1.6.6,2.3,0,.5-.4.6-1,.4-1.6l2.2-.6c.4,1.4,0,2.8-1,3.8-1.4,1.5-3.8,1.7-5.4.2,0,0-.2-.2-.2-.2Z"/><path d="m330.1,172.2l-1.3-.5c-.5.8-1.3,1.5-2.2,1.8-2,.9-3.9.4-4.7-1.4-.5-1.1-.4-2.4.3-3.4-.5-.3-.8-.8-1.1-1.3-.7-1.6,0-3.4,1.7-4.1,0,0,.2,0,.2,0,1.4-.6,3-.4,4.1.7l-1.4,1.9c-.4-.5-1.1-.7-1.7-.5-.5.2-.8.7-.6,1.2,0,0,0,0,0,0,.2.5.7.7,1.4,1l2.6,1.2c0-.6,0-1.1-.2-1.7l2.3.2c0,.8,0,1.6,0,2.4l1.8.8-1.3,1.7h.1Zm-3.2-1.4l-2.6-1.1h-.1c-.2.4-.2.8,0,1.2.3.6.9.9,1.9.5.3-.2.6-.4.9-.6h0Z"/><path d="m346,170.7h-2.4c0-.1.3-6.2.3-6.2l-2.9,4.3h-.3l-2.5-4.6-.3,6.1h-2.4c0-.1.5-10.6.5-10.6h2.4c0,.1,2.6,4.9,2.6,4.9l3.1-4.5h2.4c0,.1-.5,10.6-.5,10.6Z"/><path d="m351.1,170.8c.5.2,1,.2,1.5,0l1.3,1.6c-1.1.7-2.4.8-3.6.3-2.1-.6-3.2-2.8-2.6-4.8,0-.1,0-.2.1-.4.7-2,2.9-3.1,4.9-2.4,0,0,.1,0,.2,0,2,.7,3,2.9,2.2,4.9,0,0,0,0,0,.1,0,.3-.2.6-.4.8l-5-1.9c0,.8.6,1.4,1.3,1.6h.1Zm2.3-2.1c0-.8-.4-1.4-1.1-1.7-.7-.3-1.5-.1-1.9.5l3,1.1h0Z"/><path d="m366,177.4l-2.9,3.6-1.7-1.4,2.8-3.4c.5-.6.5-1.2,0-1.6s-1.2-.3-1.8.3l-2.7,3.3-1.7-1.4,2.8-3.4c.5-.6.5-1.2,0-1.6s-1.2-.3-1.8.3l-2.7,3.3-1.7-1.4,4.8-5.8,1.7,1.4-.4.5c.8-.2,1.5,0,2.1.6.6.5,1,1.2.9,2,.8-.2,1.7,0,2.3.6,1.2,1,1.4,2.8.4,4,0,0-.1.2-.2.2h-.2Z"/><path d="m366.3,179.4c1.9-1.2,4.3-.6,5.5,1.3,1.2,1.9.6,4.3-1.3,5.5-1.9,1.2-4.3.6-5.5-1.3,0,0,0,0,0,0-1.2-1.8-.6-4.3,1.2-5.5,0,0,0,0,0,0Zm3,4.8c.8-.5,1.1-1.5.6-2.3,0,0,0,0,0,0-.5-.8-1.5-1.1-2.3-.6,0,0,0,0-.1,0-.8.5-1.1,1.5-.6,2.3,0,0,0,0,0,0,.5.8,1.5,1.1,2.3.6,0,0,0,0,.1,0Z"/><path d="m376.2,190.6l-2.4.8c-.1-1-1.1-1.8-2.1-1.7,0,0-.2,0-.3,0l-3.2,1.1-.7-2.1,7.1-2.5.7,2.1-1.3.4c1,0,1.8.7,2.1,1.6v.2Z"/><path d="m377.5,199.9l-7.5-1.6c-2.5-.5-3.6-1.7-3.7-3.8l2.1-.3c0,.9.6,1.6,1.5,1.7l6.7-3.9.3,2.5-4.3,2.2,4.7.8.3,2.4h-.1Z"/><path class="cls-3" d="m330.4,234.5h-10.5c-.9-.4-1.3-1.4-1.2-2.3v-26.8c0-.7.2-.9.9-1.1.5,0,.7-.4.7-.9v-3c0-.4-.2-.8-.7-.9,0,0,0,0,0,0-.8-.2-.9-.4-.9-1.1v-6.4c0-.7.3-1.5.8-2,2-1.9,3.9-3.9,5.9-5.9.5-.5,1.3-.8,2-.8h24.4v.2c.6.5,1,1.2.9,2-.6.2-.8.3-.8.9v6.5c0,.6.2.8.8.9v16.9c-.1-.5-.5-.8-1-.9h-26.3c-.8,0-1.2.4-1.2,1.3v16.2c-.1.7.3,1.3,1,1.4.1,0,.3,0,.4,0h26c.7,0,1.2-.2,1.4-.9v3.8c0,1,0,2-1,2.6h-5.4c-.2-.2-.5-.4-.6-.7-.2-.4-.6-.6-1-.6h-12.5c-.5,0-.9,0-1.1.5-.2.3-.5.6-.8.8l-.2.3Zm9.1-44.8v-3.2c0-.6-.3-.9-.8-.9s-.7.4-.7.9v6.5h0c0,.6.3.9.8.9.4,0,.7-.3.7-.7,0,0,0,0,0,0v-3.3h0Zm4.7,0v-3.2c0-.6-.3-1-.8-1s-.8.4-.8,1v6.4c0,.6.3,1,.8,1s.8-.3.8-1v-3.1h0Zm4.7,0v-3.2c0-.6-.3-.9-.8-.9s-.8.4-.8,1v6.4c0,.6.3,1,.8,1s.8-.3.8-.9v-3.2h0v-.2Zm-18.8,0v-3.2c0-.6-.3-.9-.7-.9-.5,0-.8.4-.8.8,0,0,0,0,0,0v6.4c0,.6.3.9.7.9s.8-.3.8-.9v-3.2Zm4.7,0v-3.2c0-.6-.3-1-.8-.9-.4,0-.8.4-.7.9,0,0,0,0,0,0v6.4c0,.6.3.9.8.9s.7-.3.7-.9v-3.2Zm-11.4,2.1h0v1.3c0,.4.3.7.7.7,0,0,0,0,0,0,.4,0,.7-.3.8-.7h0v-2.6c0-.4-.3-.8-.7-.8h0c-.4,0-.7.3-.8.8v1.3Z"/><path class="cls-12" d="m351.9,183.4h4.8c.9,0,1.6.7,1.6,1.6,0,0,0,0,0,0v4.7c0,.3-.1.6-.5.6s-.6.3-.6.8v10.1c0,.4.1.7.5.8s.6.4.6.8v29.6c0,.9-.4,1.8-1.2,2.2h-5.2c.8-.6,1.1-1.6,1-2.6v-37.8c.5,0,.7-.4.7-1v-6.4c0-.5-.2-.9-.7-1,0-.8-.3-1.5-.9-2v-.4Z"/><path class="cls-32" d="m324.2,226.8v-15.5c0-.9.4-1.3,1.2-1.3h22v15c0,1.6-.3,1.8-1.8,1.8h-21.4Z"/><path class="cls-39" d="m324.2,226.8h21.5c1.6,0,1.8-.3,1.8-1.8v-15h4.3c.5,0,.9.4,1,.9v17.1c-.2.7-.7.9-1.4.9h-26c-1,0-1.4-.4-1.4-1.4v-.7h.2Z"/><path class="cls-11" d="m352.9,185.6c.5.1.7.4.7,1v6.4c0,.5-.2.9-.7,1-.6-.1-.8-.3-.8-.9v-6.5c0-.6.2-.8.8-.9h0Z"/><path class="cls-11" d="m339.5,189.7v3.3c0,.4-.2.7-.6.8,0,0,0,0,0,0-.4,0-.8-.3-.8-.7,0,0,0,0,0-.1h0v-6.6c0-.4.3-.8.7-.9.5,0,.8.4.8.8,0,0,0,0,0,0v3.3Z"/><path class="cls-11" d="m344.2,189.8v3.1c0,.6-.3,1-.8,1s-.8-.3-.8-1v-6.4c0-.6.3-1,.8-1s.8.4.8,1v3.3h0Z"/><path class="cls-11" d="m348.9,189.8v3.2c0,.6-.3,1-.8.9s-.8-.3-.8-1v-6.4c0-.6.3-1,.8-1s.7.4.8.9v3.4h0Z"/><path class="cls-11" d="m330.1,189.8v3.2c0,.6-.3.9-.8.9s-.7-.3-.7-.9v-6.4c0-.6.3-1,.8-.9.4,0,.8.4.7.9,0,0,0,0,0,0v3.2Z"/><path class="cls-11" d="m334.8,189.8v3.2c0,.6-.3.9-.7.9s-.8-.3-.8-.9v-6.4c0-.6.3-.9.7-.9.5,0,.8.4.8.8,0,0,0,0,0,0v3.2Z"/><path class="cls-21" d="m323.4,191.9v-1.3c0-.4.3-.8.7-.8,0,0,0,0,.1,0,.4,0,.8.3.8.8,0,0,0,0,0,0h0v2.6c0,.4-.3.7-.7.7,0,0,0,0,0,0h0c-.3,0-.7-.2-.7-.6,0,0,0,0,0-.1v-1.3h-.2,0Z"/><path class="cls-22" d="m178.3,85.7c.5-.4.9-.9,1.4-1.3l6.8-6.8c1.6-1.7,4.2-1.7,5.9-.1,0,0,0,0,.1.1.6.5,1,1.2,1.1,2,.1.6.1,1.3,0,1.9-.3.9-.8,1.8-1.5,2.5-2,1.9-3.9,3.9-5.8,5.8-.3.3-.3.4,0,.7,1,1.1,1.8,2.5,2.2,3.9h-13.2c-.2,0-.4,0-.4-.2,0-1.2,0-2.5.2-3.7.3-1.2.9-2.2,1.7-3.1l1.5-1.5v-.2Z"/><path class="cls-14" d="m210.9,83.5c-1.5-.8-2.1-2.6-1.4-4.2.5-1.3,1.9-2.2,3.3-2.1h8.4c1.7,0,3.1,1.2,3.4,2.8-.2,0-.2,0-.2.2-.4.9-1.1,1.6-2,1.9-.6.2-1.2.3-1.8.3h-8.4c-1,0-1.2,0-1.3,1.1Z"/><path class="cls-22" d="m210.9,90.4c-1.6-.9-2.2-3-1.3-4.6.5-.8,1.3-1.4,2.2-1.6.4,0,.7,0,1.1-.2h8.8c.7.2,1.3.5,1.9,1,.5.5.8,1.1,1,1.8,0,0-.2,0-.2.2-.6,1.5-2.1,2.4-3.7,2.2h-8.6c-1,0-1.2.2-1.2,1.2Z"/><path class="cls-22" d="m209.2,94.4c0-1.6,1.1-3,2.6-3.3.2,0,.5,0,.7,0,3.1,0,6.3,0,9.4,0,0,.2.2.2.3.2,1.2.4,2.1,1.4,2.4,2.6.2.7,0,.8-.6.8h-14.8v-.2Z"/><path class="cls-38" d="m188.5,94.4c-.4-1.5-1.1-2.8-2.2-3.9-.3-.3-.3-.4,0-.7,2-1.9,3.9-3.9,5.8-5.8.7-.7,1.2-1.6,1.5-2.5.6,1.5.3,3.3-.9,4.4l-3.8,3.8c-.3.3-.3.4,0,.7,1,1.1,1.8,2.5,2.2,3.9h-2.6Z"/><path class="cls-8" d="m221.9,90.8c-3.1.2-6.3,0-9.4,0-.2,0-.5,0-.7,0-.3-.2-.6-.2-.8-.5h0c0-1.1.2-1.3,1.2-1.3h8.6c1.7,0,3-.5,3.7-2.2,0,0,.1-.2.2-.2.3,1.7-.7,3.5-2.4,4h-.4Z"/><path class="cls-8" d="m221.7,84h-8.8c-.4,0-.8,0-1.1.2-.2-.2-.6-.2-.8-.6h-.1c.1-1.1.2-1.3,1.3-1.3h8.4c.6,0,1.2,0,1.8-.3.9-.3,1.6-1,2-1.9,0,0,0-.2.2-.2.4,1.8-.7,3.6-2.5,4h-.4Z"/><path class="cls-27" d="m210.9,56.6h-3.8c-.3,0-.5,0-.5-.4,0-.6.3-1.2,1-1.3.1,0,.2,0,.3,0h6.9c.4,0,.5,0,.5.5,0,.6-.3,1.2-1,1.3-.1,0-.2,0-.3,0h-3.1,0Z"/><path class="cls-31" d="m213.9,51.4h3.4c.3,0,.4,0,.4.4q0,1.4-1.3,1.4h-5.9c-.4,0-.5,0-.5-.5,0-.9.4-1.3,1.2-1.3h2.7Z"/><path class="cls-31" d="m206.6,52.2c0-.4.2-.7.6-.8,0,0,.1,0,.2,0,.5,0,.8.3.9.9q0,.9-.9.9c-.9,0-.8,0-.8-.9h0Z"/><path class="cls-14" d="m210.9,83.5h.1c0,0-.1,0-.1,0Z"/><path class="cls-2" d="m217.6,47.1h-35.8c-.4,0-.9,0-1.3.2-1.4.5-2.4,1.9-2.3,3.4v35.1c.5-.4.9-.9,1.4-1.3l6.8-6.8c.5-.6,1.2-1,2-1.1,2.2-.6,4.5.7,5.1,2.9,0,0,0,.1,0,.2.1.6.1,1.3,0,1.9.6,1.5.3,3.3-.9,4.4l-3.8,3.8c-.3.3-.3.4,0,.7,1,1.1,1.8,2.5,2.2,3.9h18.1c0-1.6,1.1-3,2.6-3.4-.3-.2-.6-.2-.8-.5h0c-1.7-1-2.2-3.2-1.1-4.9.5-.8,1.2-1.3,2-1.5-.2-.2-.6-.2-.8-.6h-.1c-1.5-.9-2.1-2.8-1.4-4.4.5-1.3,1.9-2.2,3.3-2.1h8.4v-26.5c.1-1.9-1.3-3.5-3.1-3.6-.2,0-.3,0-.5,0v.2Zm-11,5.1c0-.4.2-.7.6-.8,0,0,.1,0,.2,0q.9,0,.9.9t-.9.9c-.9,0-.8,0-.8-.9h0Zm7.4,4.4h-6.9c-.3,0-.5,0-.5-.4q0-1.3,1.3-1.3h6.9c.4,0,.5,0,.5.5q0,1.3-1.3,1.3h0Zm2.5-3.4h-5.9c-.4,0-.5,0-.5-.5q0-1.3,1.2-1.3h6.1c.3,0,.4,0,.4.4q0,1.4-1.3,1.4Z"/><path class="cls-6" d="m197.6,58.5h0v.6c-.1,1-.4,1.9-.9,2.7-.4.7-.9,1.4-1.5,1.9-.6.6-1.3,1.1-2.1,1.5-.7.3-1.4.5-2.1.6h-2.2c-1-.1-2-.5-2.9-1-.7-.4-1.4-1-1.9-1.6-.5-.6-1-1.3-1.3-2.1-.3-.7-.5-1.4-.6-2.1v-2.2c.1-.9.4-1.7.9-2.5.4-.7.9-1.3,1.5-1.9,1.7-1.6,4-2.4,6.3-2.1.9,0,1.7.3,2.5.7,1.7.9,3.1,2.3,3.8,4.1.3.6.4,1.3.5,2v1.4Zm-6.5,6.2c.3,0,.6,0,.9-.2,3.2-1.1,5.1-4.4,4.5-7.8-.4-2.3-2.1-4.2-4.3-5-.3-.2-.7-.3-1.1-.3h-.2c-.6,0-1.1,0-1.7,0-1.1,0-2.1.4-3,1-2.3,1.4-3.6,4-3.2,6.7.2,1.9,1.2,3.6,2.8,4.7,1.3,1,2.8,1.4,4.4,1.3.3,0,.6,0,.9,0v-.3Z"/><path class="cls-5" d="m191.1,64.7c-.3,0-.6.1-.9,0-1.6,0-3.1-.4-4.4-1.3-1.6-1.1-2.6-2.8-2.8-4.7-.4-2.7.9-5.3,3.2-6.7.9-.6,1.9-.9,3-1h2c1.1.4,2.2,1.1,2.9,2,.4.5.7,1,.9,1.5.4.9.6,1.8.6,2.8v1.5c0,.8-.3,1.5-.7,2.2-.4.7-.9,1.4-1.5,2-.5.5-1.1.8-1.7,1.1-.2,0-.4,0-.6.2v.3Zm-6.3-6.7c0,2.8,2.2,5,5,5s5-2.2,5-5c0-2.8-2.2-5-4.9-5-2.8,0-5,2.2-5.1,5h0Z"/><path class="cls-13" d="m191.1,64.7c.2,0,.4,0,.6-.2.6-.3,1.2-.6,1.7-1.1.6-.6,1.1-1.3,1.5-2,.3-.7.6-1.4.7-2.2,0-.5,0-1,0-1.5,0-1-.2-1.9-.6-2.8-.2-.5-.5-1-.9-1.5-.7-1-1.7-1.7-2.9-2h-.1c.4,0,.7.2,1.1.3,2.2.8,3.9,2.7,4.3,5,.7,3.4-1.3,6.7-4.5,7.8-.3,0-.6.2-.9.2Z"/><path class="cls-28" d="m184.9,58c0-2.8,2.2-5,5-5s5,2.2,5,5-2.2,5-5,5h0c-2.7,0-4.9-2.2-5-4.9h0Zm5-3.1h-2.2c-.3,0-.5,0-.6.2,0,0,0,.1-.1.2-.8.8-1.1,2-1,3.1,0,1,.5,1.9,1.3,2.5,0,0,.2,0,.3,0h4.6c.3,0,.5,0,.7-.3h.1c.8-1,1.1-2.2.9-3.4-.1-.8-.5-1.6-1.1-2.2-.1-.2-.4-.3-.6-.3h-2.3,0Z"/><path class="cls-10" d="m189.8,54.9h2.3c.2,0,.5.1.6.3.6.6,1,1.4,1.1,2.2.2,1.2-.1,2.4-.9,3.3h-.1c-.2.3-.4.4-.7.4h-4.6c-.1,0-.2,0-.3,0-.7-.7-1.2-1.5-1.3-2.5-.1-1.1.2-2.3,1-3.1,0,0,0-.1.1-.2.2-.2.4-.3.6-.2h2.2,0Zm2.2,3.1c0-1.2-.9-2.2-2.1-2.2,0,0,0,0,0,0-1.1,0-2.1.9-2.1,2,0,0,0,0,0,.1,0,1.2.9,2.2,2.1,2.2,0,0,0,0,0,0,1.1,0,2.1-.9,2.1-2,0,0,0,0,0-.1Z"/><path class="cls-24" d="m192,58c0,1.1-.9,2.1-2,2.1,0,0,0,0-.1,0-1.2,0-2.2-.9-2.2-2.1,0,0,0,0,0,0,0-1.1.9-2.1,2-2.1,0,0,0,0,.1,0,1.2,0,2.2,1,2.2,2.2Zm-2.2-1.2c-.6,0-1.2.5-1.2,1.1,0,0,0,0,0,0h0c0,.7.5,1.2,1.2,1.2s1.2-.5,1.2-1.2-.5-1.2-1.2-1.2h0Z"/><path class="cls-34" d="m189.8,59.2c-.7,0-1.2-.5-1.2-1.2s.5-1.2,1.2-1.2h0c.1,0,.1.2.2.3,0,.6,0,1.2,0,1.8,0,.1,0,.2-.2.3Z"/><path class="cls-20" d="m189.8,59.2c.1,0,.1-.2.2-.3,0-.6,0-1.2,0-1.8,0,0,0-.2-.2-.3.7,0,1.2.5,1.2,1.2s-.5,1.2-1.2,1.2Z"/><circle class="cls-15" cx="200.6" cy="60.8" r="45"/><path d="m170,62l.2,2.1-5.3.4,4,2.1v.2l-3.7,2.6,5.3-.4.2,2.1-9.1.7-.2-2.1,3.9-2.8-4.2-2.2-.2-2.1,9.1-.7h0Z"/><path d="m169.4,57.6c0-.4,0-.9-.2-1.3l1.2-1.3c.7.8,1,1.9.7,3-.2,1.8-1.9,3.1-3.8,2.9-.1,0-.2,0-.3,0-1.8-.3-3-2-2.7-3.8,0-.1,0-.2,0-.3.3-1.7,2-2.9,3.8-2.6,0,0,.2,0,.2,0,.2,0,.5,0,.7.2l-1,4.5c.7,0,1.2-.6,1.2-1.3h.1Zm-2.1-1.7c-.8,0-1.4.7-1.3,1.5,0,.5.3.9.7,1.2l.6-2.7Z"/><path d="m166.5,44.4l8.2,3.9-.8,1.8-.6-.3c.3.7.3,1.5-.1,2.1-.8,1.6-2.8,2.2-4.3,1.3,0,0,0,0,0,0-1.7-.7-2.5-2.6-1.8-4.3.3-.7.9-1.2,1.6-1.4l-2.9-1.4.8-1.8h0Zm4.4,4.3c-.8-.4-1.7,0-2.1.7-.4.7-.1,1.6.6,2,0,0,.1,0,.2,0,.8.4,1.7,0,2.1-.7.4-.7,0-1.7-.7-2,0,0,0,0-.1,0h0Z"/><path d="m168.6,42.9c-.5-.4-.7-1.1-.3-1.6s1.1-.7,1.6-.3c.5.4.7,1.1.3,1.6-.4.5-1.1.6-1.6.3Zm1.5.9l1.1-1.6,5.3,3.8-1.1,1.6-5.3-3.8Z"/><path d="m177.3,35.7l4.5,4.7-1.4,1.4-.4-.4c0,.7-.3,1.4-.8,1.9-1.5,1.2-3.7.9-4.8-.6-1-1.3-1-3.1,0-4.3.5-.5,1.2-.8,1.9-.8l-.4-.4,1.4-1.4h0Zm.9,3.7c-.5-.6-1.4-.7-2-.2,0,0-.2.1-.2.2-.6.5-.7,1.5-.1,2.1,0,0,0,0,.1.1.5.6,1.4.7,2,.2,0,0,.2-.1.2-.2.6-.5.7-1.5.1-2.1,0,0,0,0-.1-.1h0Z"/><path d="m180.2,35.6l4.2-2.6,1,1.6-4.2,2.6-1-1.6Z"/><path d="m186.7,34.9l1.4-1.6c.5.6,1.4.9,2.2.6.9-.3,1-.8.9-1.1-.2-.5-.7-.6-2.2-.5s-2.9,0-3.4-1.7c-.5-1.5.3-3,1.8-3.5,0,0,.2,0,.2,0,1.3-.5,2.9-.2,3.8.9l-1.3,1.5c-.4-.6-1.2-.8-1.8-.5-.6.2-.8.6-.7,1s.4.6,1.9.5,3.1-.1,3.7,1.7c.6,1.8-.4,3.1-2.3,3.7-1.4.6-3.1.3-4.2-.9Z"/><path d="m193.1,26.5c0-.6.4-1.2,1-1.3.6,0,1.2.4,1.3,1s-.4,1.2-1,1.3c0,0,0,0,0,0-.6,0-1.2-.3-1.3-.9,0,0,0,0,0,0Zm.5,1.7l1.9-.3,1.1,6.4-1.9.3-1.1-6.4Z"/><path d="m203.8,30v4h-2v-3.7c0-.6-.4-1.1-1-1.2,0,0,0,0-.1,0-.6,0-1.2.4-1.2,1,0,0,0,.2,0,.3v3.5h-2v-6.5h2v.6c.5-.6,1.2-.9,1.9-.8,1.3,0,2.4,1.1,2.4,2.4,0,.1,0,.2,0,.3h0Z"/><path d="m212.7,29.4l-1.5,6c-.5,2.1-2.4,2.6-4.1,2.2-1.2-.2-2.2-1.1-2.6-2.3l1.8-.5c.1.5.4.9,1.2,1.2.7.3,1.4,0,1.7-.7,0,0,0-.2,0-.3v-.6c-.5.5-1.2.6-1.9.4-1.7-.4-2.8-2.2-2.3-3.9,0,0,0,0,0-.1.4-1.7,2.1-2.8,3.8-2.4,0,0,0,0,.1,0,.7.1,1.3.6,1.6,1.3l.2-.6,1.8.5v-.2Zm-2.6,2.6c.2-.8-.3-1.6-1-1.8,0,0-.1,0-.2,0-.8-.2-1.6.2-1.9,1,0,0,0,0,0,.1-.2.8.3,1.6,1,1.8,0,0,.1,0,.2,0,.8.2,1.6-.2,1.9-1,0,0,0,0,0-.1Z"/><path d="m215.9,27.6l1.8.8-3.9,8.7-1.8-.8,3.9-8.7Z"/><path d="m218.5,38c.4.3.8.4,1.3.3l.8,1.6c-1.1.4-2.2.2-3.1-.5-1.6-.9-2.2-3.1-1.3-4.7.9-1.6,3.1-2.2,4.7-1.3,1.6.9,2.2,3.1,1.3,4.7,0,0,0,.1,0,.2-.2.2-.3.4-.5.6l-3.8-2.6c-.2.7.2,1.2.8,1.6h-.1Zm2.3-1.3c.2-.6,0-1.3-.6-1.6-.5-.4-1.2-.4-1.7,0l2.3,1.5h0Z"/><path d="m225.2,41.4c1.4-1.2,3.5-1,4.6.4,0,0,.1.1.2.2.7.9.9,2.2.5,3.3l-1.8-.7c.2-.5.1-1-.2-1.4-.4-.6-1.3-.8-1.9-.3,0,0-.1,0-.2.1-.7.5-.8,1.4-.3,2.1,0,0,0,0,0,0,.3.5.9.7,1.4.5l.3,1.9c-1.2.2-2.4-.3-3.1-1.3-1.2-1.5-.9-3.6.5-4.7,0,0,0,0,0,0h0Z"/><path d="m235.4,51.8l-5.9,2.8-.8-1.8.6-.3c-.7-.2-1.2-.7-1.5-1.4-.7-1.7.1-3.6,1.8-4.3,1.6-.8,3.5-.3,4.3,1.3,0,0,0,0,0,.1.4.6.4,1.4.1,2.1l.6-.3.8,1.8h-.1Zm-3.8-.4c.8-.4,1-1.3.7-2.1-.4-.8-1.3-1-2.1-.7-.7.4-1,1.3-.7,2,.3.8,1.2,1.1,2,.8,0,0,0,0,.1,0Z"/><path d="m235.3,64.4l-3.9.6-.3-1.9,3.8-.5c.5,0,.9-.4.9-.9,0,0,0-.1,0-.2,0-.6-.6-.9-1.4-.8l-3.6.5-.3-1.9,3.8-.5c.5,0,.9-.4.9-.9,0,0,0-.1,0-.2,0-.6-.6-.9-1.4-.8l-3.6.5-.3-1.9,6.4-.9.3,1.9h-.6c.6.4,1,1,1,1.7.1.7,0,1.4-.6,1.8.6.3,1.1,1,1.1,1.7.2,1.3-.6,2.5-1.9,2.8-.1,0-.2,0-.4,0h.1Z"/><path d="m232.1,69.2c0,.5,0,.9.3,1.3l-1.1,1.4c-.8-.8-1.1-1.9-.9-3,.2-1.9,1.8-3.3,3.7-3.1,0,0,.2,0,.2,0,1.8.2,3.1,1.9,2.9,3.7,0,0,0,.1,0,.2-.2,1.8-1.9,3.1-3.7,2.8,0,0-.1,0-.2,0-.3,0-.5,0-.8-.2l.7-4.6c-.7,0-1,.7-1.1,1.4h0Zm2.2,1.5c.8,0,1.1-.6,1.2-1.2.1-.6-.2-1.3-.8-1.5l-.4,2.8h0Z"/><path d="m234.8,78.6l-2.1-.7c.5-.7.4-1.6-.3-2.1-.2-.1-.3-.2-.5-.2l-2.8-1,.6-1.8,6.1,2.1-.6,1.8-1.1-.4c.6.6.9,1.5.6,2.3h.1Z"/><path d="m230.8,85.8l-5.6-3.3,1-1.7.5.3c-.2-.7-.1-1.5.3-2.1,1-1.5,3-1.9,4.5-1,1.6.8,2.2,2.7,1.5,4.3,0,0,0,0,0,.1-.3.7-.9,1.2-1.7,1.3l.5.3-1,1.7h.1Zm-1.8-3.3c.7.5,1.6.3,2-.4,0,0,0,0,0,0,.4-.7.2-1.7-.6-2.1,0,0,0,0,0,0-.7-.5-1.6-.3-2,.4,0,0,0,0,0,0-.4.7-.2,1.7.6,2.1,0,0,0,0,0,0Z"/><circle class="cls-15" cx="200.6" cy="339.2" r="45"/><path d="m167.2,323.6c1.9.7,2.8,2.8,2.1,4.7,0,0,0,0,0,0l-.6,1.5,3.1,1.2-.8,2.2-9.8-3.7,1.4-3.7c.7-1.9,2.8-2.9,4.7-2.2h0Zm-.8,2.2c-.6-.3-1.3,0-1.6.5,0,0,0,.1,0,.2l-.5,1.5,2.5.9.6-1.5c.3-.7,0-1.4-.7-1.7,0,0,0,0,0,0h-.1Z"/><path d="m174.4,317.1l3.7,2.7-1.3,1.8-3.5-2.5c-.6-.4-1.5-.2-1.9.4s-.2,1.5.4,1.9l3.3,2.4-1.3,1.8-8.5-6.2,1.3-1.8,3,2.2c-.2-.8,0-1.6.5-2.3,1-1.3,2.8-1.5,4.1-.6,0,0,0,0,0,0h.1Z"/><path d="m176.2,316.4c-1.4-1.7-1.1-4.2.6-5.6,1.7-1.4,4.2-1.1,5.6.6,1.4,1.7,1.1,4.2-.6,5.6,0,0,0,0,0,0-1.7,1.4-4.2,1.1-5.6-.6Zm4.4-3.6c-.6-.8-1.7-.9-2.5-.3,0,0,0,0,0,0-.7.5-.9,1.6-.4,2.3,0,0,0,.1.2.2.6.8,1.7.9,2.5.3,0,0,0,0,0,0,.7-.5.9-1.6.4-2.3,0,0-.1-.1-.2-.2h0Z"/><path d="m190,307l1.8,4.2-2.1.9-1.7-3.9c-.2-.6-.8-1-1.4-.8,0,0-.2,0-.3.1-.8.3-1.1,1-.7,2l1.6,3.8-2.1.9-3-6.9,2.1-.9.3.6c.2-.8.8-1.4,1.6-1.7,1.4-.6,3.1,0,3.7,1.5,0,0,0,.2,0,.2h0Z"/><path d="m196.2,308.7c.5,0,1-.3,1.3-.8l1.9.8c-1,2-3.4,2.9-5.4,1.9s-2.9-3.4-1.9-5.4c.6-1.2,1.7-2,3-2.2,2-.3,3.9,1.1,4.3,3.1,0,.1,0,.2,0,.3v.9l-5.3.8c.4.7,1.2,1,1.9.8h.2Zm1-2.9c-.3-.7-1-1-1.7-.9-.8,0-1.3.6-1.4,1.4l3.2-.5h-.1Z"/><path d="m201.4,304.5l5.7.6-.2,2.2-5.7-.6.2-2.1h0Z"/><path d="m216.5,310c-.6,2-2.7,3.1-4.7,2.5,0,0,0,0,0,0-.8-.2-1.5-.8-1.8-1.6l-.2.7-2.1-.8,3.6-9.8,2.1.8-1.3,3.5c.7-.4,1.7-.4,2.4,0,1.9.8,2.8,3.1,2,5v-.3Zm-2.1-.8c.4-.8.1-1.8-.7-2.2-.1,0-.2,0-.3-.1-.8-.4-1.8,0-2.2.8,0,0,0,.2-.1.3-.4.8-.1,1.8.7,2.2.1,0,.2,0,.3.1.8.4,1.8,0,2.2-.8,0,0,0-.2.1-.3h0Z"/><path d="m217.6,310.6c1.3-1.7,3.7-2.1,5.4-.9,0,0,0,0,0,0,1.7,1.3,2.1,3.7.9,5.5-1.5,1.6-4,1.7-5.7.2-1.3-1.3-1.6-3.3-.7-4.9Zm4.6,3.4c.6-.7.5-1.8-.3-2.4,0,0,0,0,0,0-.7-.6-1.7-.5-2.2.2,0,0-.1.1-.2.2-.6.7-.5,1.8.3,2.4,0,0,0,0,0,0,.7.6,1.7.5,2.2-.2,0,0,.1-.1.2-.2Z"/><path d="m235.2,318.4l-8.3,6.5-1.4-1.8.6-.4c-.9,0-1.6-.5-2.1-1.2-1.2-1.7-.8-4.1.9-5.3,1.5-1.4,3.8-1.2,5.2.2,0,0,0,0,.1.2.5.6.8,1.5.7,2.3l2.9-2.3,1.4,1.8Zm-6.7,2.4c.8-.5,1-1.5.5-2.2,0,0-.1-.2-.2-.3-.5-.8-1.6-1-2.3-.4,0,0-.1,0-.2.1-.8.5-1,1.5-.5,2.2,0,0,.1.2.2.3.5.8,1.6.9,2.3.4,0,0,.1,0,.2-.1h0Z"/><path d="m237.1,329.4l-7.7.5c-2.5.2-3.9-.7-4.6-2.7l1.9-.8c.2.9,1,1.4,1.9,1.2,0,0,0,0,0,0l5.4-5.5,1,2.3-3.6,3.3,4.8-.5.9,2.2h0Z"/><path d="m231.8,331.8l4.2,2.9c.5.5,1.3.8,2,.8.6,0,1-.5.9-1.1,0,0,0-.2,0-.2-.1-.7-.7-1.2-1.4-1.3l.8-2.2c1.5.4,2.6,1.6,2.8,3.1.4,1.8-.7,3.5-2.5,4,0,0-.1,0-.2,0-1.3.1-2.5-.3-3.5-1.1l-2-1.4.6,3.5-2.3.4-1.1-7.1,1.7-.3Z"/><path class="cls-30" d="m206,323.4h6.1c1.8.1,3.2,1.5,3.4,3.3v41.4c.1,1.7-.9,3.2-2.5,3.8-.4.1-.7.2-1.1.2h-22.6c-2,0-3.7-1.7-3.7-3.7v-4h1.8v4c0,1,.7,1.9,1.7,1.9,0,0,.2,0,.3,0h22.2c1,0,1.9-.7,2-1.8,0,0,0-.2,0-.2v-41c0-1-.7-1.9-1.7-2,0,0-.1,0-.2,0h-4.6c0-.8-.7-1.3-1.1-1.9Z"/><path class="cls-7" d="m206,323.4c.4.6,1,1.1,1.1,1.8h-17.3c-1.7,0-2.4.7-2.4,2.4v36.7h-1.8v-36.9c-.1-1.6.8-3.1,2.3-3.7.4-.2.8-.3,1.3-.3h16.8,0Z"/><path class="cls-37" d="m187.4,364.4v-36.7c0-1.7.7-2.4,2.4-2.4h17.4v36c0,1.7-1.2,3-2.9,3.1,0,0,0,0-.1,0h-16.8Zm13.1-33.5h3.6c1,0,1.9-.8,2-1.8,0-1-.8-1.9-1.8-1.9,0,0-.1,0-.2,0h-7.2c-1,0-1.9.8-2,1.8,0,1,.8,1.9,1.8,1.9,0,0,.1,0,.2,0h3.6Zm-4.2,22.9c.2,0,.4-.1.6-.3l9.2-9.2c.2-.2.4-.5.3-.8-.1-.3-.2-.6-.6-.7-.4-.1-.8,0-1.1.3l-9.1,9.1-.2.2c-.2.3-.2.6,0,.9.2.3.5.5.9.5h0Zm5.7-11.1c0-.4-.3-.7-.6-.9-.5-.2-.8,0-1.1.4l-5.5,5.5c-.5.5-.5,1.1,0,1.4s1,.4,1.4,0c1.9-1.8,3.7-3.7,5.6-5.5.2-.2.3-.4.4-.7h0l-.2-.2Z"/><path class="cls-26" d="m187.5,364.4h16.7c1.6,0,3-1.2,3-2.8,0,0,0-.2,0-.3v-36h4.5c1,0,1.9.7,1.9,1.7,0,0,0,.2,0,.3v41c0,1-.7,1.9-1.8,2,0,0-.2,0-.2,0h-22.2c-1.1,0-2-.8-2-1.8,0,0,0,0,0,0v-4h0Zm13.1,3.1h-5.4c-.7,0-1.2.3-1.2.9,0,.6.4,1,1,1,0,0,0,0,.1,0h10.8c.7,0,1.2-.4,1.1-.9,0-.6-.6-1-1.2-.9,0,0,0,0,0,0h-5.4.2Z"/><path class="cls-25" d="m200.5,330.9h-3.6c-1,0-1.9-.7-2-1.7,0,0,0-.1,0-.2,0-1,.8-1.8,1.8-1.8,0,0,.2,0,.2,0h7.2c1,0,1.9.7,2,1.7,0,0,0,.1,0,.2,0,1-.9,1.8-1.9,1.8,0,0,0,0-.1,0h-3.6Z"/><path class="cls-23" d="m196.3,353.8c-.4,0-.7-.2-.9-.5-.1-.3-.1-.6,0-.9l.2-.2,9.1-9.1c.3-.3.7-.4,1.1-.3.4.1.5.4.6.7.1.3,0,.6-.3.8l-9.2,9.2c-.2.2-.4.3-.6.3Z"/><path class="cls-19" d="m200.5,367.4h5.4c.7,0,1.2.3,1.2.9s-.4.9-1.1.9h-10.8c-.7,0-1.2-.4-1.1-1s.4-.9,1.2-.9h5.4-.2Z"/><path d="m191,361.5v-4.8l8.6-9.1c.7-.7,1.3-1.5,1.9-2.3.4-.5.6-1.1.6-1.7,0-.6-.2-1.2-.6-1.6-.5-.4-1.1-.6-1.7-.6-1.5,0-2.7.9-3.5,2.7l-5.7-3.2c.7-1.8,2-3.4,3.7-4.4,3.7-2.2,8.3-2,11.7.7,1.8,1.5,2.7,3.7,2.6,6,.1,1.5-.3,3-1.1,4.2-.8,1.5-1.9,2.8-3.1,4l-3.5,3.7h8.1v6.4h-18Z"/><circle class="cls-15" cx="60.5" cy="199.4" r="45"/><path d="m43.5,167l3.3,5.2-1.6,1-.3-.5c0,.7-.5,1.3-1.1,1.6-1,.7-2.5.4-3.1-.6,0,0-.1-.2-.2-.3l-2-3.2,1.6-1,1.9,3c.3.5.9.7,1.4.4,0,0,0,0,0,0,.6-.4.8-.9.3-1.7l-1.8-2.8,1.6-1h-.1Z"/><path d="m51.9,166.3l1.3,3.5-1.7.6-1.2-3.3c-.1-.5-.6-.9-1.2-.8,0,0-.1,0-.2,0-.6.2-.9.9-.7,1.6,0,0,0,0,0,0l1.1,3.2-1.7.6-2.1-5.8,1.7-.6.2.5c.3-.6.8-1.1,1.4-1.3,1.1-.5,2.4.1,2.9,1.3,0,.1,0,.2.1.3h.1Z"/><path d="m52.5,162.1c-.1-.6.3-1.2.9-1.3.6-.1,1.2.3,1.3.9.1.6-.3,1.2-.9,1.3,0,0,0,0,0,0-.6.1-1.2-.3-1.3-.9Zm.5,1.6l1.8-.3,1.1,6-1.8.3-1.1-6Z"/><path d="m56.6,166.1c0-1.7,1.3-3.2,3-3.3,0,0,0,0,0,0,1.1,0,2.2.5,2.8,1.5l-1.6,1c-.2-.4-.7-.7-1.2-.7-.7,0-1.3.5-1.3,1.2,0,0,0,.2,0,.3,0,.8.6,1.4,1.3,1.4,0,0,0,0,0,0,.5,0,1-.3,1.2-.7l1.6.9c-.5,1-1.6,1.7-2.7,1.7-1.7.1-3.2-1.2-3.3-2.9,0,0,0-.1,0-.2v-.2Z"/><path d="m70.2,164.1l-1.1,6-1.8-.3v-.6c-.5.5-1.2.6-1.8.4-1.7-.4-2.7-2-2.3-3.7,0,0,0,0,0,0,.2-1.7,1.8-2.9,3.5-2.7.7,0,1.3.5,1.7,1.1v-.6c0,0,1.9.3,1.9.3h0Zm-2.4,2.7c.2-.7-.2-1.4-.9-1.6-.1,0-.2,0-.3,0-.7-.2-1.5.3-1.7,1,0,0,0,.1,0,.2-.2.7.2,1.4.9,1.6.1,0,.2,0,.3,0,.7.2,1.5-.3,1.7-1,0,0,0-.1,0-.2Z"/><path d="m73.7,167.3l-.8,2c-.2.5.2.7,1,1l-.6,1.6c-2.3-.6-2.7-1.6-2.1-3.2l.8-2-.9-.4.6-1.6.9.4.4-1.1,1.9.2-.6,1.6,1.2.5-.6,1.6-1.2-.5h0Z"/><path d="m76.9,166.8l1.6.9-2.9,5.4-1.6-.9,2.9-5.4Zm.6-1.5c.3-.6.9-.8,1.5-.5.6.3.8.9.5,1.5s-.9.8-1.5.5c0,0,0,0,0,0-.5-.3-.7-.9-.5-1.5Z"/><path d="m78.2,170.9c1.1-1.4,3.1-1.7,4.5-.6,1.4,1.1,1.7,3.1.6,4.5-1,1.4-3,1.7-4.4.7,0,0,0,0-.1-.1-1.4-1.1-1.7-3.1-.6-4.5,0,0,0,0,0,0Zm3.7,2.8c.5-.6.4-1.5-.2-2,0,0,0,0,0,0-.6-.5-1.4-.4-1.9.2,0,0,0,0,0,.1-.5.6-.4,1.5.2,2,0,0,0,0,0,0,.6.5,1.4.4,1.9-.2,0,0,0,0,0-.1Z"/><path d="m88.6,179.8l-2.9,2.4-1.2-1.4,2.7-2.2c.5-.3.6-.9.3-1.4,0,0,0,0,0-.1-.4-.5-1-.6-1.7,0l-2.6,2.1-1.2-1.4,4.7-3.9,1.2,1.4-.4.4c.7,0,1.3.3,1.7.9.8,1,.7,2.4-.3,3.2,0,0-.2.1-.2.2v-.2Z"/><path d="m91.2,186.8c-1.7.9-3.2,0-4-1.4-.6-1.1-.6-2.5.2-3.5l1.6,1c-.4.4-.5,1.1-.2,1.6.2.5.7.8,1.3.7,0,0,.1,0,.1,0,.5-.2.7-.8.3-1.5l-.2-.4.6-1.2,2.5.5-1.5-2.8,1.6-.9,2.6,4.9-1.4.7-2.4-.4c.3,1.1-.3,2.2-1.3,2.7h.2Z"/><path d="m95,195.9c-2.1.6-4.3-.6-5-2.7,0-.2,0-.3-.1-.5-.7-2.4.7-4.9,3-5.6,2.4-.7,4.9.7,5.6,3,0,.1,0,.3,0,.4.4,1.5,0,3-1.1,4.1l-1.3-1.4c.5-.6.7-1.5.5-2.3-.3-1.4-1.6-2.2-3-1.9,0,0,0,0-.1,0-1.4.3-2.2,1.7-1.9,3.1,0,0,0,0,0,.1.1.9.9,1.7,1.8,1.8l-.5-2.2,1.7-.4,1,4.2-.7.2Z"/><path class="cls-2" d="m73.3,187.4c-8.5-.2-17.8-.2-26.3,0-14.8,1.9-22,20.9-11.6,31.8,2.2,3.3-1.6,9.5,2.3,11.8,3.3,1,5.2-3.4,7.4-5.1,9.2-1,20.3.5,29.8-.5,22.1-2.9,20.7-37.2-1.6-38.2v.2Z"/><path d="m53.5,204.7c1.1.4,2,1,2.8,1.8.7.9,1.1,2,1,3.1.1,1.7-.6,3.3-1.9,4.4-1.3,1.1-3,1.6-4.7,1.6-1.4.1-2.7-.2-3.9-1-1.1-.7-2-1.8-2.5-3l4-2.3c.3,1.1,1.3,1.9,2.4,1.9,1.2,0,1.1-.2,1.5-.5.7-.7.7-1.7,0-2.4,0,0,0,0,0,0-.4-.3-1-.5-1.5-.4h-1l-1.8-2.6,2.9-3.5h-6v-4.4h11.6v3.6l-3,3.7h.1Z"/><path d="m77,205v1.8c0,2.4-.8,4.7-2.5,6.4-1.7,1.6-4,2.5-6.4,2.4-2.6,0-5-.9-6.9-2.7-3.6-3.6-3.7-9.5,0-13.2,1.8-1.8,4.2-2.8,6.6-2.7,1.6-.1,3.2.3,4.6,1.1,1.4.6,2.5,1.7,3.2,3l-3.9,2.2c-.4-.6-.9-1-1.6-1.3-.7-.3-1.5-.5-2.3-.5-2.6,0-4.8,2-4.9,4.7,0,0,0,.2,0,.2,0,1.3.4,2.6,1.3,3.5,1,1,2.4,1.5,3.8,1.4,1.7,0,3.3-.8,4.1-2.3h-4.3v-3.9h9.2Z"/><circle class="cls-16" cx="200.6" cy="199.4" r="45"/><path d="m178.1,174.2c2.3,1.9,2.6,5.2.7,7.4-.1.1-.2.2-.3.4-2.1,2.5-5.9,2.8-8.3.6,0,0,0,0,0,0-2.4-2.2-2.6-5.9-.4-8.3,0,0,0,0,0,0,1.3-1.5,3.3-2.2,5.2-1.9l-.5,2.5c-1.1-.2-2.1.3-2.8,1.1-1.2,1.2-1.2,3.2,0,4.5,0,0,.2.2.3.2,1.4,1.3,3.3,1.2,4.8-.4.9-.8,1.2-2.2.6-3.3l-2,2.2-1.7-1.5,3.8-4.2.7.6h0Z"/><path d="m188.3,170.1c1.1,1.9.5,4.4-1.4,5.5,0,0,0,0,0,0-.8.5-1.7.6-2.6.3l1.9,3.5-2.1,1.1-5.3-9.9,2.1-1.1.4.7c.2-.9.8-1.6,1.6-2,2-1,4.4-.1,5.4,1.9Zm-2.1,1.1c-.4-.9-1.5-1.3-2.4-.9,0,0-.1,0-.2.1-.9.4-1.3,1.6-.9,2.5,0,0,0,0,0,.1.4.9,1.5,1.3,2.4.9,0,0,.1,0,.2-.1.9-.4,1.3-1.6.9-2.5,0,0,0,0,0-.1h0Z"/><path d="m197.3,167.2l1,4.8-2.4.5-.9-4.5c0-.7-.7-1.2-1.4-1.2-.1,0-.2,0-.3,0-.7,0-1.3.8-1.2,1.5,0,.1,0,.3.1.4l.9,4.3-2.4.5-2.3-11,2.4-.5.8,3.9c.4-.8,1.1-1.3,2-1.4,1.6-.3,3.2.7,3.6,2.3,0,0,0,.2,0,.3h0Z"/><path d="m199.1,167.9c.1-2.3,2.2-4.1,4.5-4s4.1,2.2,4,4.5-2.2,4.1-4.5,4c0,0,0,0,0,0-2.3-.2-4.1-2.2-3.9-4.5,0,0,0,0,0,0Zm6.1.5c.1-1-.6-1.9-1.6-2,0,0,0,0,0,0-1,0-1.9.7-2,1.7-.1,1,.6,1.9,1.6,2,0,0,0,0,0,0,1,0,1.9-.7,2-1.7Z"/><path d="m216.8,170.9l-1.7,4.6-2.2-.9,1.6-4.3c.4-.6.1-1.4-.5-1.8,0,0-.2,0-.3-.1-.8-.3-1.6,0-1.9.8,0,0,0,.1,0,.2l-1.6,4.1-2.2-.9,2.8-7.5,2.2.9-.3.7c.8-.5,1.7-.5,2.5,0,1.5.6,2.4,2.1,1.6,4.2h0Z"/><path d="m220.2,176.9c.5.4,1,.5,1.6.4l.9,2c-2.4.6-4.8-.9-5.4-3.3-.3-1.2,0-2.5.6-3.5,1.3-1.8,3.8-2.3,5.7-1,0,0,.2.1.2.2,1.8,1.3,2.2,3.8.9,5.6,0,0-.1.1-.2.2-.2.3-.4.5-.7.7l-4.5-3.4c-.2.8.2,1.6.9,2h0Zm2.9-1.5c.4-.7,0-1.6-.6-2-.6-.6-1.6-.6-2.2,0l2.8,2.1h0Z"/><path d="m231.8,188.7c-2.1,1.3-4.2.2-5.3-1.6-1-1.4-1-3.3,0-4.7l2.2,1.3c-.5.6-.6,1.5-.1,2.1.3.7,1,1,1.7.8,0,0,0,0,.1,0,.6-.4.8-1,.3-1.9l-1.8-3,5.8-2.9,3.3,5.6-2.1,1.2-2.1-3.5-1.4.7.5.8c1.1,1.6.8,3.7-.8,4.9-.2.1-.3.2-.5.3h.2Z"/><path class="cls-33" d="m189.2,180.4h23c2.2,0,4.1,1.8,4.1,4,0,0,0,0,0,0v49.1c0,2.2-1.8,4.1-4,4.1,0,0,0,0,0,0h-23c-2.2,0-4.1-1.8-4.1-4,0,0,0,0,0,0v-49.1c0-2.2,1.8-4.1,4-4.1,0,0,0,0,0,0Z"/><path class="cls-1" d="m212.2,180.4h-23c-2.2,0-4.1,1.8-4.1,4,0,0,0,0,0,0v49.1l31.2-49.1c0-2.2-1.8-4.1-4-4.1,0,0,0,0,0,0Z"/><path class="cls-9" d="m213.9,230.4h-26.4c-.9,0-1.7-.8-1.7-1.7,0,0,0,0,0,0v-44.2c0-1.1.8-1.9,1.9-2h26.2c.9,0,1.7.8,1.7,1.7,0,0,0,0,0,0v44.4c0,1-.7,1.8-1.7,1.8Z"/><path class="cls-4" d="m202.8,235.8h-.5c-.3,0-.7,0-1-.2-.4,0-.8-.2-1.2-.2-.5,0-.9-.1-1.4-.3h-.2c-.2,0-.2-.2-.2-.4,0-.2.2-.5.3-.7.1-.4.3-.7.5-1.1.1-.2.3-.5.4-.7.2-.3.6-.4,1-.2,0,0,.2.1.2.2.1.1.2.3.4.5.2.4.5.7.7,1.1l1.2,1.8v.2c0,.2,0,.3-.2.3v-.3Z"/><path class="cls-29" d="m203,199.1h-.5c-.4,0-.7,0-1.1-.2-.4,0-.9-.2-1.3-.3-.5,0-1-.2-1.5-.3h-.2c-.2,0-.2-.2-.2-.4s.2-.5.3-.7c.2-.4.3-.8.5-1.2.1-.2.2-.5.4-.7.2-.4.7-.4,1.1-.2,0,0,.1.1.2.2.2.1.3.3.4.5.3.4.5.8.7,1.2.4.6.8,1.3,1.2,1.9v.2c0,.2,0,.3-.2.3l.2-.3Z"/><path class="cls-29" d="m203.9,190h.2c.2,0,.2.1.2.3s-.1.2-.2.3c-.5.6-.9,1.2-1.4,1.7-.4.5-.8,1-1.3,1.5-.2.2-.5.4-.8.5-.3,0-.7,0-1-.2-.2-.1-.3-.3-.4-.5-.4-.6-.8-1.2-1.2-1.9-.1-.3-.3-.5-.5-.8h0c-.1-.2,0-.3.2-.3.8,0,1.7,0,2.5-.2.7,0,1.5,0,2.2-.2h1.6v-.2Z"/><path d="m196.7,215.3c.6.2,1.1.5,1.4,1,.4.5.5,1,.5,1.6,0,.9-.3,1.8-1,2.3-.7.5-1.6.8-2.5.8-.7,0-1.5-.1-2.1-.5-.6-.4-1-.9-1.3-1.6l2.1-1.2c.1.6.7,1.1,1.3,1,.7,0,.6,0,.8-.2.2-.2.3-.4.3-.6,0-.2,0-.5-.3-.6-.2-.1-.5-.2-.8-.2h-.5l-.9-1.4,1.5-1.8h-3.1v-2.3h6.1v1.9l-1.6,1.9h.1Z"/><path d="m209.1,215.4v1c0,1.2-.4,2.4-1.3,3.3-.9.9-2.1,1.4-3.4,1.3-1.3,0-2.6-.5-3.6-1.4-.9-.9-1.4-2.2-1.4-3.5,0-1.3.5-2.6,1.4-3.5.9-.9,2.2-1.4,3.5-1.4.8,0,1.7.1,2.4.6.7.4,1.3.9,1.7,1.6l-2,1.2c-.2-.3-.5-.5-.8-.7-.4-.2-.8-.3-1.2-.3-1.4,0-2.5,1.2-2.5,2.6,0,.6.3,1.2.7,1.7.5.5,1.2.8,2,.8.9,0,1.8-.4,2.2-1.2h-2.3v-2.1h4.6Z"/><path class="cls-35" d="m187.1,227.9c-.2.4-.7.5-1.1.3-.2-.1-.4-.4-.4-.7v-43.1c0-1,.8-1.9,1.8-1.9,0,0,0,0,.1,0h26.4c.5,0,.9.4.9.9,0,.2,0,.3-.1.5l-27.6,44.1h0Z"/><polyline class="cls-1" points="204.6 184.4 196.3 184.4 194.6 180.4 206.5 180.4"/><path class="cls-4" d="m203.9,183.1c0,.3-.3.6-.6.6h-5.3c-.3,0-.6-.3-.6-.6h0c0-.3.3-.6.6-.6h5.3c.3,0,.6.3.6.6Z"/></svg>