<?xml version="1.0" encoding="UTF-8"?><svg id="Layer_1" xmlns="http://www.w3.org/2000/svg" viewBox="0 0 400 400"><defs><style>.cls-1{fill:#435256;}.cls-2{fill:#eb917f;}.cls-3{fill:#fbe501;}.cls-4{fill:#0c4a4e;}.cls-5{fill:#f9f3b1;}.cls-6{fill:#fcc472;}.cls-7{fill:#2d3b3d;}.cls-8{fill:#f3bd99;}.cls-9{stroke:#c000e2;}.cls-9,.cls-10{stroke-width:4px;}.cls-9,.cls-10,.cls-11{stroke-miterlimit:10;}.cls-9,.cls-10,.cls-11,.cls-12{fill:none;}.cls-13{fill:#d9cfca;}.cls-14{fill:#e5dedc;}.cls-15{fill:#97f8fe;}.cls-16{fill:#f1efef;}.cls-17{fill:#fbc372;}.cls-18{fill:#f4bd99;}.cls-19{fill:#fedd46;}.cls-20{fill:#06687f;}.cls-10{stroke:#00b51e;}.cls-21{fill:#fe7038;}.cls-22{fill:#152433;}.cls-11{stroke:#231f20;stroke-width:2px;}.cls-23{fill:#fe415d;}.cls-24{fill:#e6dedc;}.cls-25{fill:#97d6e5;}.cls-26{fill:#7dcbe5;}.cls-27{fill:#eecf15;}.cls-28{fill:#9dd8e6;}.cls-29{fill:#fdc472;}.cls-30{fill:#0092b9;}.cls-31{fill:#e5eff1;}.cls-32{fill:#d0c8c3;}.cls-33{fill:#db411d;}.cls-34{fill:#7dd4f3;}.cls-35{fill:#231f20;}.cls-36{fill:#9fddea;}.cls-37{fill:#067fa6;}.cls-38{fill:#f99e3d;}</style></defs><line class="cls-12" x1="111.7" y1="201" x2="144.5" y2="200.5"/><line class="cls-11" x1="111.7" y1="201" x2="133.8" y2="200.7"/><polygon class="cls-35" points="131.7 208.2 144.5 200.5 131.4 193.2 131.7 208.2"/><line class="cls-12" x1="289.5" y1="201" x2="256.7" y2="200.5"/><line class="cls-11" x1="289.5" y1="201" x2="267.5" y2="200.7"/><polygon class="cls-35" points="269.8 193.2 256.7 200.5 269.6 208.2 269.8 193.2"/><line class="cls-12" x1="200.4" y1="112.4" x2="200.9" y2="145.1"/><line class="cls-11" x1="200.4" y1="112.4" x2="200.7" y2="134.4"/><polygon class="cls-35" points="193.2 132.3 200.9 145.1 208.2 132.1 193.2 132.3"/><line class="cls-12" x1="200.4" y1="289.1" x2="200.9" y2="256.4"/><line class="cls-11" x1="200.4" y1="289.1" x2="200.7" y2="267.1"/><polygon class="cls-35" points="208.2 269.4 200.9 256.4 193.2 269.2 208.2 269.4"/><circle class="cls-9" cx="339.6" cy="200.8" r="45"/><path d="m306.8,198.3l-.7-2.3c1,0,1.8-.8,1.9-1.8.3-1.1-.1-1.5-.5-1.6-.6-.2-1,.4-1.8,1.8s-1.9,2.7-3.8,2.2c-1.8-.5-2.8-2.3-2.3-4.1,0,0,0,0,0-.1.3-1.6,1.6-2.9,3.2-3.2l.7,2.2c-.8,0-1.5.7-1.6,1.5-.2.7,0,1.2.5,1.3s.8,0,1.7-1.5c.9-1.5,1.8-3,4-2.5,2,.5,2.7,2.3,2.2,4.5-.3,1.8-1.7,3.2-3.5,3.5h0Z"/><path d="m307.9,188.9c-1.9-1.1-2.6-3.5-1.6-5.4,1.1-1.9,3.5-2.6,5.4-1.6,1.9,1.1,2.6,3.5,1.6,5.4,0,0,0,0,0,0-1.1,1.9-3.5,2.6-5.4,1.5Zm2.8-5c-.8-.4-1.9-.1-2.3.7-.4.8-.1,1.9.7,2.3.8.4,1.8.1,2.3-.7.5-.9.1-1.9-.7-2.4,0,0,0,0,0,0h0Z"/><path d="m312.6,181c-1.5-1.4-1.7-3.8-.2-5.4,0,0,.2-.2.2-.2,1-1,2.4-1.4,3.7-1.1l-.5,2.2c-.6-.2-1.2,0-1.6.5-.6.7-.6,1.8.1,2.4.6.6,1.6.6,2.3,0,.5-.4.6-1,.4-1.6l2.2-.6c.4,1.4,0,2.8-1,3.8-1.4,1.5-3.8,1.7-5.4.2,0,0-.2-.2-.2-.2Z"/><path d="m330.2,173.6l-1.3-.5c-.5.8-1.3,1.5-2.2,1.8-2,.9-3.9.4-4.7-1.4-.5-1.1-.4-2.4.3-3.4-.5-.3-.8-.8-1.1-1.3-.7-1.6,0-3.4,1.7-4.1,0,0,.2,0,.2,0,1.4-.6,3-.4,4.1.7l-1.4,1.9c-.4-.5-1.1-.7-1.7-.5-.5.2-.8.7-.6,1.2,0,0,0,0,0,0,.2.5.7.7,1.4,1l2.6,1.2c0-.6,0-1.1-.2-1.7l2.3.2c0,.8,0,1.6,0,2.4l1.8.8-1.3,1.7h.1Zm-3.2-1.4l-2.6-1.1h-.1c-.2.4-.2.8,0,1.2.3.6.9.9,1.9.5.3-.2.6-.4.9-.6h0Z"/><path d="m346.1,172.1h-2.4c0-.1.3-6.2.3-6.2l-2.9,4.3h-.3l-2.5-4.6-.3,6.1h-2.4c0-.1.5-10.6.5-10.6h2.4c0,.1,2.6,4.9,2.6,4.9l3.1-4.5h2.4c0,.1-.5,10.6-.5,10.6Z"/><path d="m351.2,172.2c.5.2,1,.2,1.5,0l1.3,1.6c-1.1.7-2.4.8-3.6.3-2.1-.6-3.2-2.8-2.6-4.8,0-.1,0-.2.1-.4.7-2,2.9-3.1,4.9-2.4,0,0,.1,0,.2,0,2,.7,3,2.9,2.2,4.9,0,0,0,0,0,.1,0,.3-.2.6-.4.8l-5-1.9c0,.8.6,1.4,1.3,1.6h.1Zm2.3-2.1c0-.8-.4-1.4-1.1-1.7-.7-.3-1.5-.1-1.9.5l3,1.1h0Z"/><path d="m366.1,178.8l-2.9,3.6-1.7-1.4,2.8-3.4c.5-.6.5-1.2,0-1.6s-1.2-.3-1.8.3l-2.7,3.3-1.7-1.4,2.8-3.4c.5-.6.5-1.2,0-1.6s-1.2-.3-1.8.3l-2.7,3.3-1.7-1.4,4.8-5.8,1.7,1.4-.4.5c.8-.2,1.5,0,2.1.6.6.5,1,1.2.9,2,.8-.2,1.7,0,2.3.6,1.2,1,1.4,2.8.4,4,0,0-.1.2-.2.2h-.2Z"/><path d="m366.4,180.8c1.9-1.2,4.3-.6,5.5,1.3,1.2,1.9.6,4.3-1.3,5.5-1.9,1.2-4.3.6-5.5-1.3,0,0,0,0,0,0-1.2-1.8-.6-4.3,1.2-5.5,0,0,0,0,0,0Zm3,4.8c.8-.5,1.1-1.5.6-2.3,0,0,0,0,0,0-.5-.8-1.5-1.1-2.3-.6,0,0,0,0-.1,0-.8.5-1.1,1.5-.6,2.3,0,0,0,0,0,0,.5.8,1.5,1.1,2.3.6,0,0,0,0,.1,0Z"/><path d="m376.3,192l-2.4.8c-.1-1-1.1-1.8-2.1-1.7,0,0-.2,0-.3,0l-3.2,1.1-.7-2.1,7.1-2.5.7,2.1-1.3.4c1,0,1.8.7,2.1,1.6v.2Z"/><path d="m377.6,201.3l-7.5-1.6c-2.5-.5-3.6-1.7-3.7-3.8l2.1-.3c0,.9.6,1.6,1.5,1.7l6.7-3.9.3,2.5-4.3,2.2,4.7.8.3,2.4h-.1Z"/><path class="cls-1" d="m330.5,235.9h-10.5c-.9-.4-1.3-1.4-1.2-2.3v-26.8c0-.7.2-.9.9-1.1.5,0,.7-.4.7-.9v-3c0-.4-.2-.8-.7-.9,0,0,0,0,0,0-.8-.2-.9-.4-.9-1.1v-6.4c0-.7.3-1.5.8-2,2-1.9,3.9-3.9,5.9-5.9.5-.5,1.3-.8,2-.8h24.4v.2c.6.5,1,1.2.9,2-.6.2-.8.3-.8.9v6.5c0,.6.2.8.8.9v16.9c-.1-.5-.5-.8-1-.9h-26.3c-.8,0-1.2.4-1.2,1.3v16.2c-.1.7.3,1.3,1,1.4.1,0,.3,0,.4,0h26c.7,0,1.2-.2,1.4-.9v3.8c0,1,0,2-1,2.6h-5.4c-.2-.2-.5-.4-.6-.7-.2-.4-.6-.6-1-.6h-12.5c-.5,0-.9,0-1.1.5-.2.3-.5.6-.8.8l-.2.3Zm9.1-44.8v-3.2c0-.6-.3-.9-.8-.9s-.7.4-.7.9v6.5h0c0,.6.3.9.8.9.4,0,.7-.3.7-.7,0,0,0,0,0,0v-3.3h0Zm4.7,0v-3.2c0-.6-.3-1-.8-1s-.8.4-.8,1v6.4c0,.6.3,1,.8,1s.8-.3.8-1v-3.1h0Zm4.7,0v-3.2c0-.6-.3-.9-.8-.9s-.8.4-.8,1v6.4c0,.6.3,1,.8,1s.8-.3.8-.9v-3.2h0v-.2Zm-18.8,0v-3.2c0-.6-.3-.9-.7-.9-.5,0-.8.4-.8.8,0,0,0,0,0,0v6.4c0,.6.3.9.7.9s.8-.3.8-.9v-3.2Zm4.7,0v-3.2c0-.6-.3-1-.8-.9-.4,0-.8.4-.7.9,0,0,0,0,0,0v6.4c0,.6.3.9.8.9s.7-.3.7-.9v-3.2Zm-11.4,2.1h0v1.3c0,.4.3.7.7.7,0,0,0,0,0,0,.4,0,.7-.3.8-.7h0v-2.6c0-.4-.3-.8-.7-.8h0c-.4,0-.7.3-.8.8v1.3Z"/><path class="cls-7" d="m352,184.8h4.8c.9,0,1.6.7,1.6,1.6,0,0,0,0,0,0v4.7c0,.3-.1.6-.5.6s-.6.3-.6.8v10.1c0,.4.1.7.5.8s.6.4.6.8v29.6c0,.9-.4,1.8-1.2,2.2h-5.2c.8-.6,1.1-1.6,1-2.6v-37.8c.5,0,.7-.4.7-1v-6.4c0-.5-.2-.9-.7-1,0-.8-.3-1.5-.9-2v-.4Z"/><path class="cls-29" d="m324.3,228.2v-15.5c0-.9.4-1.3,1.2-1.3h22v15c0,1.6-.3,1.8-1.8,1.8h-21.4Z"/><path class="cls-38" d="m324.3,228.2h21.5c1.6,0,1.8-.3,1.8-1.8v-15h4.3c.5,0,.9.4,1,.9v17.1c-.2.7-.7.9-1.4.9h-26c-1,0-1.4-.4-1.4-1.4v-.7h.2Z"/><path class="cls-6" d="m353,187c.5.1.7.4.7,1v6.4c0,.5-.2.9-.7,1-.6-.1-.8-.3-.8-.9v-6.5c0-.6.2-.8.8-.9h0Z"/><path class="cls-6" d="m339.6,191.1v3.3c0,.4-.2.7-.6.8,0,0,0,0,0,0-.4,0-.8-.3-.8-.7,0,0,0,0,0-.1h0v-6.6c0-.4.3-.8.7-.9.5,0,.8.4.8.8,0,0,0,0,0,0v3.3Z"/><path class="cls-6" d="m344.3,191.2v3.1c0,.6-.3,1-.8,1s-.8-.3-.8-1v-6.4c0-.6.3-1,.8-1s.8.4.8,1v3.3h0Z"/><path class="cls-6" d="m349,191.2v3.2c0,.6-.3,1-.8.9s-.8-.3-.8-1v-6.4c0-.6.3-1,.8-1s.7.4.8.9v3.4h0Z"/><path class="cls-6" d="m330.2,191.2v3.2c0,.6-.3.9-.8.9s-.7-.3-.7-.9v-6.4c0-.6.3-1,.8-.9.4,0,.8.4.7.9,0,0,0,0,0,0v3.2Z"/><path class="cls-6" d="m334.9,191.2v3.2c0,.6-.3.9-.7.9s-.8-.3-.8-.9v-6.4c0-.6.3-.9.7-.9.5,0,.8.4.8.8,0,0,0,0,0,0v3.2Z"/><path class="cls-17" d="m323.5,193.3v-1.3c0-.4.3-.8.7-.8,0,0,0,0,.1,0,.4,0,.8.3.8.8,0,0,0,0,0,0h0v2.6c0,.4-.3.7-.7.7,0,0,0,0,0,0h0c-.3,0-.7-.2-.7-.6,0,0,0,0,0-.1v-1.3h-.2,0Z"/><circle class="cls-9" cx="60.4" cy="201.8" r="45"/><path d="m25.3,199.3c-2.5-.4-4.2-2.8-3.8-5.3,0,0,0-.2,0-.3.3-1.5,1.3-2.8,2.8-3.4l.7,2c-.8.3-1.4,1-1.5,1.9-.4,1.3.4,2.7,1.7,3,.1,0,.3,0,.4,0,1.4.4,2.8-.4,3.1-1.8,0-.1,0-.2,0-.3.3-.8,0-1.7-.7-2.3l1.4-1.6c1.1,1.1,1.6,2.7,1.3,4.2-.4,2.5-2.8,4.2-5.3,3.8,0,0-.2,0-.3,0h0Z"/><path d="m28.7,190.2c-1.7-.8-2.4-2.9-1.6-4.6.8-1.7,2.9-2.4,4.6-1.6,1.7.8,2.4,2.9,1.6,4.6-.9,1.7-2.9,2.4-4.6,1.6Zm2.2-4.4c-.7-.4-1.6,0-2,.6,0,0,0,0,0,0-.3.7,0,1.6.7,2,.7.4,1.6,0,2-.6,0,0,0,0,0,0,.4-.7.1-1.6-.6-1.9,0,0,0,0-.1,0Z"/><path d="m38.4,175l2.9,2.7-1.3,1.4-2.8-2.6c-.5-.4-1-.5-1.4,0-.4.4-.4,1.1,0,1.5,0,0,0,0,.1.1l2.7,2.5-1.3,1.4-2.8-2.6c-.5-.4-1-.5-1.4,0-.4.4-.4,1.1,0,1.5,0,0,0,0,.1.1l2.7,2.5-1.3,1.4-4.8-4.4,1.3-1.4.4.4c-.1-.7.1-1.3.6-1.8.4-.6,1.1-.8,1.8-.7-.1-.7,0-1.5.6-2,.9-1,2.5-1.1,3.5-.2,0,0,.1.1.2.2Z"/><path d="m44,168.7l3.4,5.6-1.7,1-.3-.5c0,.7-.5,1.3-1.2,1.6-1.1.7-2.6.4-3.4-.7,0,0-.1-.2-.1-.3l-2.1-3.4,1.7-1,1.9,3.2c.2.5.8.8,1.3.6.1,0,.2-.1.3-.2.6-.3.8-1,.4-1.6,0,0,0-.1-.1-.2l-1.8-3,1.7-1h0Z"/><path d="m52.9,168.1l1.2,3.8-1.9.6-1.1-3.5c0-.5-.6-.9-1.1-.9-.1,0-.2,0-.3,0-.6.1-1,.7-.8,1.3,0,.1,0,.2.1.3l1.1,3.4-1.9.6-2-6.2,1.9-.6.2.6c.2-.7.8-1.2,1.5-1.3,1.3-.4,2.7.3,3.1,1.6,0,0,0,.1,0,.2Z"/><path d="m53.8,163.8c0-.6.4-1.2,1-1.3.6,0,1.2.4,1.3,1s-.4,1.2-1,1.3c0,0,0,0,0,0-.6,0-1.2-.4-1.3-1Zm.4,1.7l1.9-.3.9,6.4-1.9.3-.9-6.4Z"/><path d="m57.9,168.2c0-1.9,1.5-3.4,3.4-3.4,0,0,0,0,.1,0,1.2,0,2.3.6,2.9,1.7l-1.7,1c-.3-.7-1.2-1-1.9-.7-.5.2-.8.8-.8,1.4,0,.8.5,1.4,1.3,1.5,0,0,0,0,.1,0,.5,0,1-.2,1.3-.7l1.7,1c-1,1.6-3.2,2.1-4.8,1.1-1-.6-1.6-1.8-1.6-3h0Z"/><path d="m72.4,166.8l-1.6,6.3-1.9-.5v-.6c-.5.4-1.3.5-1.9.3-1.7-.5-2.7-2.3-2.2-4,0,0,0,0,0-.1.3-1.8,2-2.9,3.8-2.6.7.1,1.3.6,1.7,1.2v-.6c0,0,2,.5,2,.5h0Zm-2.7,2.7c.2-.8-.3-1.7-1.1-1.9,0,0,0,0,0,0-.8-.2-1.6.2-1.9,1,0,0,0,.1,0,.2-.2.8.3,1.7,1.1,1.9,0,0,0,0,0,0,.8.2,1.6-.2,1.9-1,0,0,0-.1,0-.2Z"/><path d="m76,170.5l-1,2.1c-.2.5.2.8,1,1.1l-.8,1.6c-2.4-.9-2.8-1.9-2-3.5l1-2.1-.9-.4.8-1.7.9.4.5-1.1,2,.3-.8,1.6,1.2.6-.8,1.7-1.2-.6h.1Z"/><path d="m79.4,170.2l1.6,1-3.5,5.5-1.6-1,3.5-5.5Zm.8-1.6c.3-.6,1-.7,1.6-.4.6.3.7,1,.4,1.6-.3.6-1,.7-1.6.4,0,0,0,0,0,0-.5-.4-.7-1-.4-1.6h0Z"/><path d="m80.5,174.7c1.3-1.4,3.5-1.5,4.9-.2,1.4,1.3,1.5,3.5.2,4.9-1.3,1.4-3.5,1.5-4.9.2,0,0,0,0,0,0-1.4-1.3-1.5-3.5-.2-4.9Zm3.7,3.3c.6-.6.6-1.5,0-2.1,0,0,0,0,0,0-.5-.6-1.4-.6-2,0,0,0-.1.1-.1.2-.6.6-.5,1.5,0,2.1.6.6,1.5.5,2.1,0,0,0,0,0,0,0Z"/><path d="m90.6,185.1l-3.3,2.2-1.1-1.6,3.1-2.1c.5-.2.7-.8.5-1.3,0-.1-.1-.2-.2-.3-.4-.6-1-.8-1.8-.2l-2.9,2-1.1-1.6,5.4-3.7,1.1,1.6-.5.3c.7,0,1.3.5,1.7,1.1.7,1.1.5,2.6-.6,3.3,0,0-.2.1-.3.2h0Z"/><path d="m92.5,192.8c-1.5.6-3.3-.1-3.9-1.7,0-.1,0-.2-.1-.3-.6-1.2-.3-2.7.6-3.7l1.6,1.3c-.5.4-.7,1.1-.4,1.7.3.8.9,1,1.4.8s.8-.7.5-1.5l-1-2.7,5-1.6,1.9,4.9-1.8.7-1.2-3.1-1.2.4.3.7c.7,1.4.1,3.1-1.3,3.8-.1,0-.3.1-.4.2h0Z"/><path d="m95.3,202.9c-2.3.4-4.5-1.2-4.9-3.6,0-.1,0-.3,0-.4-.3-2.6,1.5-5,4.1-5.4,0,0,0,0,0,0,2.6-.3,4.9,1.6,5.2,4.2,0,0,0,0,0,0,.2,1.6-.4,3.2-1.7,4.2l-1.2-1.7c.7-.6,1-1.4.8-2.3-.2-1.5-1.6-2.5-3-2.4-1.5.2-2.5,1.6-2.4,3.1h0c0,1,.6,1.9,1.6,2.2l-.3-2.4,1.8-.2.5,4.5h-.8.2Z"/><path class="cls-19" d="m72.3,188.9c-8.5-.2-17.8-.2-26.3,0-14.8,1.9-22,20.9-11.6,31.8,2.2,3.3-1.6,9.5,2.3,11.8,3.3,1,5.2-3.4,7.4-5.1,9.2-1,20.3.5,29.8-.5,22.1-2.9,20.7-37.2-1.6-38.2v.2Z"/><path d="m50.4,205.2c1.6,0,3.2.5,4.4,1.5,1.2,1.1,1.8,2.7,1.7,4.3,0,1.7-.6,3.4-1.9,4.5-1.3,1.1-3,1.7-4.7,1.6-1.4,0-2.9-.3-4.1-1-1.2-.7-2-1.7-2.5-3l4-2.3c.3,1.2,1.4,2,2.6,1.9,1.4,0,1.1-.1,1.5-.4.7-.7.7-1.7,0-2.4,0,0,0,0,0,0-.4-.3-.9-.4-1.4-.4h-5.7l.7-10.5h10.5v4.4h-6.3v1.9h1.2Z"/><path d="m76.1,206.5v1.8c0,2.4-.8,4.7-2.5,6.4-1.7,1.6-4,2.5-6.4,2.4-2.6,0-5-.9-6.9-2.7-3.6-3.6-3.7-9.5,0-13.2,1.8-1.8,4.2-2.8,6.6-2.7,1.6-.1,3.2.3,4.6,1.1,1.4.6,2.5,1.7,3.2,3l-3.9,2.2c-.4-.6-.9-1-1.6-1.3-.7-.3-1.5-.5-2.3-.5-2.6,0-4.8,2-4.9,4.7,0,0,0,.2,0,.2,0,1.3.4,2.6,1.3,3.5,1,1,2.4,1.5,3.8,1.4,1.7,0,3.3-.8,4.1-2.3h-4.3v-3.9h9.2Z"/><circle class="cls-9" cx="200.6" cy="338.9" r="45"/><path d="m166.2,325c1.9.6,3,2.7,2.4,4.6l-.5,1.5,3.2,1-.7,2.3-10-3.1,1.2-3.8c.6-1.9,2.6-3,4.5-2.5h0Zm-.7,2.3c-.7-.2-1.4.1-1.7.8l-.5,1.5,2.6.8.5-1.5c.2-.7-.2-1.4-.9-1.6,0,0,0,0,0,0h0Z"/><path d="m173,318l3.9,2.5-1.2,1.9-3.6-2.3c-.6-.4-1.4-.3-1.8.3,0,0,0,0,0,.1-.4.6-.2,1.5.4,1.9,0,0,.1,0,.2.1l3.5,2.2-1.2,1.9-8.9-5.6,1.2-1.9,3.1,2c-.2-.8-.1-1.6.4-2.3.8-1.3,2.5-1.7,3.8-.9.1,0,.2.1.3.2h0Z"/><path d="m174.7,317.3c-1.4-1.6-1.3-4.1.3-5.6,1.6-1.5,4-1.4,5.5.2,0,0,0,0,.1.1,1.4,1.6,1.3,4.1-.3,5.6-1.6,1.5-4,1.4-5.5-.2,0,0,0,0-.1-.1Zm4.2-3.8c-.6-.7-1.7-.8-2.5-.2,0,0,0,0,0,0-.7.6-.8,1.7-.1,2.4,0,0,0,0,.1.1.6.7,1.7.8,2.5.2,0,0,0,0,0,0,.7-.6.8-1.7.1-2.4,0,0,0,0-.1-.1h0Z"/><path d="m188,307.1l2.1,4.1-2,1-1.9-3.8c-.2-.6-.9-1-1.5-.7,0,0-.2,0-.3.1-.7.3-.9,1.1-.6,1.8,0,0,0,.1.1.2l1.9,3.7-2,1-3.4-6.7,2-1,.3.6c.2-.8.7-1.5,1.5-1.8,1.4-.7,3-.2,3.8,1.2,0,.1.1.2.1.3h-.1Z"/><path d="m194.3,308.3c.5,0,1-.4,1.3-.9l2,.6c-.6,1.2-1.6,2-2.9,2.2-2.1.6-4.2-.6-4.8-2.7,0,0,0-.2,0-.3-.5-2.1.8-4.1,2.8-4.6,0,0,.2,0,.3,0,2.1-.4,4.1.9,4.5,3,0,0,0,0,0,.1v.9l-5.2,1.1c.5.6,1.3.9,2,.7h0Zm.8-3c-.3-.7-1.1-1-1.8-.8-.7.1-1.3.7-1.4,1.5l3.2-.7Z"/><path d="m199.2,303.9l5.7.2v2.2l-5.8-.2v-2.2h.1Z"/><path d="m214.5,308.5c-.5,2-2.6,3.2-4.6,2.7-.8-.2-1.5-.7-1.9-1.5l-.2.7-2.2-.7,3.1-10,2.2.7-1.1,3.5c.7-.4,1.6-.5,2.4-.2,1.9.7,3,2.8,2.3,4.8Zm-2.2-.7c.3-.9-.1-1.9-1.1-2.3,0,0,0,0-.1,0-.9-.3-1.8.2-2.2,1,0,0,0,.1,0,.2-.3.9.2,2,1.1,2.3,0,0,0,0,0,0,.9.3,1.8-.2,2.2-1,0,0,0-.1,0-.2h0Z"/><path d="m215.7,309c1.2-1.9,3.7-2.4,5.5-1.2,1.9,1.2,2.4,3.7,1.2,5.5-1.2,1.9-3.7,2.4-5.5,1.2,0,0,0,0,0,0-1.8-1.1-2.4-3.6-1.3-5.4,0,0,0,0,0-.1Zm4.8,3.1c.5-.7.4-1.8-.4-2.3,0,0,0,0-.1,0-.8-.5-1.9-.3-2.4.5,0,0,0,0,0,0-.5.7-.4,1.8.4,2.3,0,0,0,0,.1,0,.8.5,1.9.3,2.4-.5,0,0,0,0,0,0h0Z"/><path d="m233.7,315.8l-7.9,6.9-1.5-1.7.5-.5c-.9,0-1.7-.4-2.2-1.1-1.2-1.8-.8-4.3,1-5.6,1.5-1,3.5-.9,4.9.3.6.6.9,1.5.8,2.3l2.8-2.4,1.5,1.7h0Zm-6.6,2.8c.7-.6.9-1.6.3-2.4,0,0,0-.1-.1-.1-.6-.7-1.6-.9-2.4-.3,0,0-.1.1-.2.2-.7.5-.9,1.5-.4,2.2,0,0,.1.2.2.3.6.7,1.7.9,2.4.3,0,0,.1-.1.2-.2h0Z"/><path d="m236.2,326.6l-7.7.9c-2.5.3-4-.5-4.8-2.4l1.9-.9c.3.8,1.1,1.2,1.9,1.1l5.1-5.9,1.1,2.2-3.4,3.5,4.7-.8,1.1,2.2h0Z"/><path d="m234.2,336c-2.3.5-3.8-1-4.3-2.9-.5-1.5,0-3.2,1.4-4.1l1.6,1.8c-.6.4-.9,1.1-.7,1.8.2,1,.8,1.3,1.5,1.1s1-.7.8-1.6v-.5c.3-.4.6-.8,1-1.2l2.8,1.3-.9-3.7,2.2-.5,1.5,6.6-1.9.4-2.7-1.3c0,1.4-1.1,2.5-2.4,2.8h0Z"/><path class="cls-4" d="m190.1,371.8c0-.2-.3-.1-.4-.2-2.8-.6-4.9-3.2-4.8-6.1v-37.4c0-2.5,1.4-4.9,3.7-5.9.7-.3,1.4-.5,2.1-.5h9.8v9.2h-3.7c-2.2-.2-4-2.1-4.1-4.3.1-.9-.4-1.7-1.3-1.9-.4,0-.9,0-1.3.1-1.4.5-2.4,1.9-2.3,3.4v37.8c.2,1.7,1.6,2.9,3.3,2.8h9.3v2.9h-10.5.2Z"/><path class="cls-22" d="m200.6,331v-9.2h10c2.8.2,5.2,2.4,5.6,5.2v38.5c0,2.9-1.9,5.5-4.8,6.2-.2,0-.4,0-.5.1h-10.4v-2.9h10.1c1.6-.4,2.7-1.8,2.6-3.4v-37.6c0-1.6-1.1-3-2.7-3.2-1-.2-2,.4-2.3,1.4,0,.1,0,.2,0,.3,0,2.6-2.1,4.6-4.7,4.6h-2.9Z"/><path class="cls-16" d="m191.3,368.9c-1.7,0-3.1-1.1-3.3-2.8v-37.8c-.1-1.5.8-2.9,2.3-3.4.4-.2.9-.2,1.3-.1.9.2,1.3.8,1.3,1.9.1,2.3,1.9,4.1,4.1,4.3h3.7v3.3h-7.8c-.8,0-1.5.6-1.5,1.3,0,0,0,.1,0,.2v14.1c0,.8.6,1.5,1.3,1.5,0,0,.1,0,.2,0h7.8v3.3c-.3,0-.5,0-.8,0h-7.1c-.2,0-.5,0-.7.1-.7.4-1,1.3-.6,2,.3.5.8.8,1.4.7h7.8v3.3h-7.6c-.8-.1-1.6.4-1.7,1.2,0,.2,0,.3,0,.5v6.4Z"/><path class="cls-21" d="m191.3,368.9v-6.2c-.1-.8.4-1.6,1.2-1.7.2,0,.3,0,.5,0h7.6v7.8h-9.3Z"/><path class="cls-14" d="m200.6,334.3v-3.3h3.1c2.5,0,4.6-2,4.7-4.5,0,0,0,0,0,0,0-1,.8-1.8,1.8-1.8.2,0,.3,0,.5,0,1.5.3,2.7,1.6,2.7,3.2v37.5c0,1.6-1,3-2.6,3.4h-.7v-5.6c0-1.8-.4-2.3-2.3-2.3h-7.1v-3.3h1.6c.7,0,1.3-.6,1.4-1.3,0-.7-.5-1.4-1.2-1.5-.6,0-1.2,0-1.8,0h0v-3.3h7.6c.9,0,1.7-.7,1.7-1.6,0,0,0,0,0-.1v-13.6c0-4.5-.5-1.8-1.8-1.8h-7.6Zm7.8,23.3c.8,0,1.5-.6,1.5-1.4s-.6-1.5-1.4-1.5h0c-.7,0-1.6.8-1.5,1.5,0,.8.6,1.4,1.3,1.4,0,0,0,0,0,0Z"/><path class="cls-23" d="m200.6,361h7.1c1.9,0,2.3.4,2.3,2.3v5.6h-9.4v-7.8h0Z"/><path class="cls-34" d="m200.6,334.3h7.5c.9-.1,1.7.5,1.8,1.3,0,.2,0,.3,0,.5v13.6c0,.9-.7,1.7-1.6,1.7,0,0,0,0-.1,0h-7.6v-17h0Z"/><path class="cls-15" d="m200.6,334.4v17h-7.8c-.8,0-1.5-.6-1.5-1.3,0,0,0-.1,0-.2v-14.1c0-.8.6-1.5,1.3-1.5,0,0,.1,0,.2,0h7.8Z"/><path class="cls-24" d="m200.6,357.8h-7.8c-.8,0-1.5-.5-1.5-1.3,0-.6.2-1.1.7-1.4.2,0,.5-.1.7-.1h7.9v2.9h0Z"/><path class="cls-13" d="m200.6,357.6v-2.9h1.8c.7.2,1.2.8,1.2,1.5,0,.7-.7,1.3-1.4,1.3h-1.6Z"/><path class="cls-32" d="m208.4,357.6c-.8,0-1.4-.6-1.4-1.3,0,0,0,0,0,0,0-.8.7-1.4,1.5-1.5.8,0,1.4.6,1.4,1.4,0,0,0,0,0,.1h0c0,.8-.6,1.4-1.4,1.4,0,0,0,0-.1,0Z"/><path d="m204,347.1c1.6.4,3,1.4,4,2.7,1,1.3,1.5,2.9,1.5,4.6.1,2.4-.8,4.8-2.7,6.4-1.9,1.6-4.3,2.4-6.8,2.3-2,.1-4-.4-5.7-1.5-1.7-1-3-2.6-3.6-4.4l5.8-3.3c.3,1.7,1.9,2.8,3.6,2.7,1.9,0,1.7-.2,2.2-.7.5-.4.8-1.1.8-1.8,0-.7-.3-1.3-.8-1.8-.6-.4-1.4-.7-2.2-.6h-1.4l-2.6-3.8,4.1-5.1h-8.7v-6.3h16.8v5.2l-4.3,5.3h0Z"/><circle class="cls-10" cx="200.6" cy="200.8" r="45"/><path d="m178.4,175.2c2.4,1.9,2.7,5.4.8,7.8-.1.2-.3.3-.5.5-2.2,2.6-6.1,3-8.7.8-2.6-2.2-3-6.1-.8-8.7.1-.1.2-.2.3-.4,1.4-1.6,3.4-2.3,5.5-2l-.6,2.6c-1.1-.2-2.3.3-3,1.2-1.3,1.3-1.3,3.5,0,4.8,0,0,.1.1.2.2,1.5,1.4,3.5,1.3,5.1-.4,1-.9,1.3-2.3.7-3.5l-2.2,2.3-1.7-1.6,4.1-4.4.7.7h0Z"/><path d="m189.5,171.1c1.1,2.1.4,4.7-1.7,5.8,0,0,0,0,0,0-.8.5-1.8.5-2.7.2l1.9,3.8-2.3,1.1-5.3-10.7,2.3-1.1.4.7c.3-.9.9-1.7,1.8-2.1,2.2-.9,4.7,0,5.6,2.2h0Zm-2.3,1.1c-.4-1-1.6-1.5-2.6-1,0,0,0,0,0,0-1,.4-1.5,1.5-1.1,2.5,0,.1,0,.2.2.3.5,1,1.7,1.4,2.7.9,1-.5,1.4-1.7.9-2.7h0Z"/><path d="m199.3,168.4l.8,5.2-2.5.4-.7-4.8c0-.8-.8-1.4-1.6-1.3,0,0,0,0-.1,0-.9.1-1.5.8-1.3,2l.7,4.6-2.5.4-1.8-11.8,2.5-.4.6,4.2c.5-.8,1.3-1.3,2.2-1.4,1.7-.3,3.3.7,3.7,3h0Z"/><path d="m201.3,169.3c.4-2.5,2.6-4.2,5.1-3.8,2.4.3,4.1,2.5,3.8,4.9,0,0,0,.1,0,.2-.4,2.5-2.6,4.2-5.1,3.8-2.4-.3-4.1-2.6-3.8-5,0,0,0,0,0-.1Zm6.4,1c.2-1-.4-2-1.4-2.3,0,0-.1,0-.2,0-1-.2-2,.4-2.2,1.4,0,0,0,.2,0,.3-.2,1.1.5,2.1,1.6,2.3,1,.2,2-.4,2.2-1.4,0,0,0-.2,0-.3h0Z"/><path d="m219.8,174l-2.3,4.7-2.3-1.1,2.1-4.4c.4-.6.2-1.5-.5-1.9,0,0-.2,0-.2-.1-.7-.4-1.7-.1-2.1.6,0,0,0,.2-.1.3l-2,4.2-2.3-1.1,3.7-7.7,2.3,1.1-.3.7c.8-.4,1.8-.4,2.6.1,1.5.7,2.3,2.5,1.3,4.6h0Z"/><path d="m222.9,180.7c.4.5,1,.7,1.6.6l.7,2.2c-1.4.3-2.9-.2-3.9-1.2-1.9-1.6-2.2-4.4-.6-6.2,0,0,.1-.2.2-.3,1.6-1.8,4.4-2,6.2-.4,0,0,.1.1.2.2,1.7,1.6,1.9,4.2.3,6,0,0-.1.2-.2.2-.2.3-.5.5-.8.7l-4.4-4.1c-.4.9,0,1.6.7,2.3h0Zm3.3-1.2c.5-.7.3-1.7-.4-2.2-.6-.6-1.6-.8-2.3-.3l2.7,2.5Z"/><path d="m235.1,193.6l-6.5-1.2-1.2-2.9,4.5.9c-.7-2.2.5-4.6,2.7-5.3,2.1-.7,4.4.4,5.2,2.4,1,2.1.2,4.6-1.9,5.6,0,0-.1,0-.2,0-.8.3-1.7.4-2.5.3h0Zm-.7-3.7c.4.9,1.3,1.3,2.2.9.9-.4,1.3-1.3.9-2.2-.4-.9-1.3-1.3-2.2-.9-.8.3-1.3,1.3-.9,2.2,0,0,0,0,0,0Z"/><path class="cls-33" d="m218.4,191.9l-16.6-5.6c-1.2-.4-2.6-.4-3.8,0l-16.6,5.6c-1.5.5-2.5,2-2.5,3.6v35.6c0,1.2.6,2.3,1.5,3,.6.5,1.4.7,2.2.7q.8,0,1.2-.2l14.8-5c.9-.3,1.9-.3,2.8,0l14.8,5c1.1.4,2.4.2,3.4-.5,1-.7,1.5-1.8,1.5-3v-35.6c0-1.6-1.2-3-2.7-3.6h0Z"/><path class="cls-19" d="m217.6,193.6l-16.3-5.5c-.9-.3-1.9-.3-2.8,0l-16.3,5.5c-1,.3-1.6,1.2-1.6,2.2v35.3c0,.5.3,1,.7,1.3.3.2.6.3,1,.3h.5l16.2-5.5c.5-.2,1.2-.2,1.7,0l16.3,5.5c.5.2,1.1,0,1.5-.3.4-.3.7-.8.7-1.3v-35.3c0-1-.7-1.9-1.6-2.2h0Z"/><path class="cls-19" d="m217.6,231.1h0l-16.3-5.5c-.9-.3-1.9-.3-2.8,0l-16.2,5.5v-35.3c0-.3.2-.6.5-.6l16.3-5.5c.3,0,.6-.1.9-.1.3,0,.6,0,.9.1l16.3,5.5c.3,0,.5.3.5.6v35.3h0Z"/><path d="m212.9,197.7l-12.4-3.7c-.3-.1-.7-.1-1,0l-13.2,4.3c-.5.2-.8.6-.8,1.1v8.8c0,.3.2.6.4.8.2.1.4.2.6.2h.3l13.2-4.3h0l12.4,3.7c.3,0,.6,0,.9-.1.2-.2.4-.5.4-.8v-8.8c0-.5-.4-.9-.9-1.1h.1Z"/><path d="m212.1,206.8l-11.7-3.5c-.3-.1-.7-.1-1,0l-12.5,4v-7.8l13-4.1h0l12.2,3.7v7.7Z"/><path d="m196.2,222c-.3,0-.5,0-.8.2l-1.8.3c-.7.1-1.4.3-2.2.4-.9.2-1.7.3-2.6.4h-.4c-.3,0-.4-.2-.3-.4.2-.4.3-.8.5-1.2.3-.6.6-1.3.9-1.9.2-.5.4-.9.7-1.3.4-.8,1.4-1.1,2.2-.8.2.1.4.3.6.5.4.4.9.8,1.3,1.2.7.6,1.4,1.3,2,1.9l.2.2c.1.2,0,.4-.4.5h.1Z"/><path d="m197.6,208.5h.3c.3,0,.4,0,.3.3s-.2.4-.3.6c-.8,1.1-1.5,2.2-2.3,3.3-.7,1-1.4,2-2.2,2.9-.4.5-.8.9-1.3,1.2-.5.3-1.2.4-1.8.2-.3,0-.6-.3-.8-.5-.7-.7-1.5-1.3-2.2-2l-.9-.9h0c-.2-.3,0-.5.3-.6,1.5-.6,3-1.1,4.4-1.7l3.9-1.5c.9-.4,1.8-.7,2.7-1h0v-.3Z"/><path d="m205.6,214.1c.8.3,1.5.9,1.9,1.7.6,1,.8,2.2.8,3.4,0,1.1-.2,2.1-.8,3-.5.6-1.3.8-2,.5-.7-.3-1.3-.7-1.7-1.3-.5-.7-.9-1.6-1-2.5l1.7-1.1c.2.9.5,1.5,1.1,1.7s.5,0,.6-.1.2-.4.2-.8c0-.3,0-.7-.2-1-.1-.2-.4-.4-.6-.5l-2.4-.7.3-7.4,4.5,1.2v3.2l-2.7-.8v1.4l.5.2h-.2Z"/><path d="m217.3,218.5v1.4c.1,1.6-.3,3.2-1.2,4.5-.7,1-1.9,1.3-3,.9-1.4-.5-2.5-1.6-3.1-3-.8-1.6-1.2-3.5-1.2-5.3,0-1.6.3-3.2,1.2-4.6.6-1,1.8-1.5,3-1.2.9.2,1.6.7,2.1,1.4.7.8,1.2,1.7,1.5,2.7l-1.8,1.2c-.1-.4-.4-.9-.7-1.2-.3-.3-.7-.6-1.1-.7-.6-.2-1.3,0-1.6.6-.4.8-.7,1.6-.6,2.5,0,1,.2,1.9.6,2.8.3.7.9,1.3,1.7,1.6.8.3,1.6-.2,1.8-.9,0,0,0-.2,0-.3l-2-.6v-3l4.3,1.3h0Z"/><circle class="cls-9" cx="200" cy="61.1" r="45"/><path d="m169.9,58v2c-.1,0-5.1-.3-5.1-.3l3.5,2.4v.2l-3.8,2,5,.3v2c-.1,0-8.7-.5-8.7-.5v-2c.1,0,4.1-2.1,4.1-2.1l-3.7-2.5v-2c.1,0,8.7.5,8.7.5Z"/><path d="m169.9,53.7c.2-.5.1-.9,0-1.3l1.3-1.1c.6.8.7,1.8.3,2.9-.7,2-2.4,2.8-4.2,2.2-1.7-.6-2.6-2.3-2-4.1.6-1.7,2.3-2.5,4.1-1.9.2,0,.5.2.7.3l-1.4,4.1c.7,0,1.1-.5,1.3-1.1h-.1Zm-1.8-1.8c-.7,0-1.2.4-1.3.9-.2.7,0,1.2.5,1.6l.8-2.5Z"/><path d="m168.5,41.1l7.3,4.5-1,1.6-.5-.3c.2.6.1,1.2-.3,1.9-.8,1.4-2.7,1.8-4.3.8-1.6-1-2.1-2.8-1.2-4.2.4-.7,1-1.1,1.6-1.2l-2.6-1.6,1-1.6h0Zm3.7,4.5c-.8-.5-1.6-.3-2,.5-.4.7-.3,1.5.5,2s1.6.3,2-.5.3-1.5-.5-2Z"/><path d="m170.6,39.9c-.5-.4-.5-1.1-.1-1.6s1.1-.5,1.6-.1.5,1.1.1,1.6-1.1.5-1.6.1Zm1.4.9l1.2-1.4,4.6,4-1.2,1.4-4.6-4Z"/><path d="m179.3,33.9l3.9,4.7-1.4,1.2-.4-.4c0,.6-.3,1.2-.9,1.7-1.2,1-3.2.8-4.3-.6s-1-3.3.2-4.4c.6-.5,1.3-.7,1.9-.6l-.4-.4,1.4-1.2Zm.5,3.5c-.6-.7-1.4-.8-2.1-.2-.7.5-.8,1.4-.2,2.1.6.7,1.4.8,2.1.2.7-.5.8-1.4.2-2.1Z"/><path d="m182,34.1l4.1-2.1.8,1.6-4.1,2.1-.8-1.6Z"/><path d="m197.5,33.6l-1.9.4-1.1-4.9-1.4,4h-.2l-3-3,1.1,4.9-1.9.4-1.9-8.4,1.9-.4,3.1,3.2,1.4-4.2,1.9-.4,1.9,8.4h.1Z"/><path d="m204.4,27.8l-.3,6.1h-1.8v-.7c-.3.4-1,.7-1.8.7-1.2,0-2.3-1-2.2-2.6l.2-3.8h1.8v3.6c0,.8.3,1.1.9,1.2.7,0,1.2-.3,1.2-1.2v-3.3c0,0,2,0,2,0Z"/><path d="m207,25.4l1.8.4-1.8,8.8-1.8-.4,1.8-8.8Z"/><path d="m211.7,31.4l-.7,2.1c-.2.5.2.7,1,.9l-.5,1.6c-2.4-.5-2.8-1.4-2.2-3.1l.7-2.1-.9-.3.6-1.7.9.3.4-1.1h1.9l-.5,1.7,1.2.4-.6,1.7-1.2-.4h-.1Z"/><path d="m214.9,30.8l1.7.8-2.6,5.5-1.7-.8,2.6-5.5Zm.5-1.6c.3-.5.9-.8,1.5-.5.5.3.8.9.5,1.5-.3.5-.9.8-1.5.5-.5-.3-.8-.9-.5-1.5Z"/><path d="m219,36.5c1.2-1.4,3.1-1.6,4.6-.4.9.8,1.3,1.9,1.1,3l-1.8-.3c0-.5,0-.9-.5-1.3-.6-.5-1.4-.4-2,.2-.5.7-.5,1.5.2,2,.4.3.9.4,1.4.2l.7,1.7c-1,.4-2.2.2-3.1-.5-1.4-1.2-1.6-3.2-.4-4.6h-.2Z"/><path d="m230.6,44l-4.8,3.8-1.1-1.4.5-.4c-.6,0-1.2-.3-1.7-1-1-1.3-.7-3.2.7-4.3,1.4-1.1,3.4-1,4.4.3.5.6.7,1.3.5,1.9l.5-.4,1.1,1.4h0Zm-3.5.5c.7-.6.8-1.4.3-2.1-.5-.7-1.4-.8-2.1-.2-.7.6-.8,1.4-.3,2.1.5.7,1.4.8,2.1.2Z"/><path d="m233.3,55.5l-3.5,1.4-.7-1.7,3.3-1.4c.6-.2.8-.7.6-1.2-.2-.6-.8-.7-1.4-.4l-3.2,1.3-.7-1.7,3.3-1.4c.6-.2.8-.7.6-1.2-.2-.6-.8-.7-1.4-.4l-3.2,1.3-.7-1.7,5.7-2.3.7,1.7-.5.2c.5,0,1,.5,1.3,1.2s.2,1.3,0,1.8c.6,0,1.1.5,1.4,1.3.5,1.3,0,2.5-1.5,3.1h0Z"/><path d="m231.6,60.6c0,.5.3.9.6,1.1l-.7,1.6c-.9-.5-1.4-1.3-1.6-2.5-.2-2.1,1-3.5,2.8-3.8,1.8-.2,3.4.9,3.6,2.9.2,1.8-1,3.3-2.8,3.5h-.7l-.5-4.3c-.6.3-.8.9-.7,1.6h0Zm2.3.9c.7-.3.9-.9.8-1.4,0-.7-.5-1.1-1.1-1.2l.3,2.6Z"/><path d="m236.4,68.4h-2.1c.2-.9,0-2-1.3-2l-2.8-.2v-1.8c0,0,6.2.4,6.2.4v1.8h-1.2c.8.3,1.1,1.1,1.1,1.9h.1Z"/><path d="m234.6,76l-5.9-1.5.4-1.8h.6c-.4-.4-.5-1-.3-1.8.4-1.6,2.1-2.5,3.8-2.1,1.8.4,2.8,2.1,2.4,3.6-.2.8-.6,1.3-1.2,1.6h.6c0,0-.4,1.9-.4,1.9h0Zm-2.5-2.5c.9.2,1.6-.2,1.8-1.1.2-.8-.2-1.6-1.1-1.8s-1.6.2-1.8,1.1c-.2.8.2,1.6,1.1,1.8Z"/><path class="cls-30" d="m208.5,93.3h-18.1c-.4-1.5-1.2-2.8-2.2-3.9-.3-.3-.3-.4,0-.7,1.3-1.3,2.6-2.5,3.8-3.8,1.2-1.2,1.5-2.9.9-4.4,0-.6,0-1.3,0-1.9-.6-2.3-2.9-3.7-5.1-3.1-.8.2-1.4.6-2,1.1-2.3,2.2-4.5,4.5-6.8,6.8-.4.4-.9.9-1.4,1.3v-35.1c0-1.5.9-2.9,2.3-3.4.4,0,.8-.2,1.3-.2h35.8c2.2,0,3.6,1.4,3.6,3.6v26.5h-8.4c-1.4,0-2.8.8-3.3,2.1-.7,1.6,0,3.6,1.4,4.2h0c.2.5.6.4.8.7-1.8.4-3,2.2-2.5,4.1.2.9.8,1.7,1.6,2.2h0c.2.4.6.4.8.6-1.6.4-2.6,1.8-2.6,3.4h0Zm-6-32.6v-8.5c0-1-.7-1.9-1.7-1.9h-17c-1.3,0-2.1.7-2.1,2v16.7c0,1,.7,1.8,1.7,1.9h17.2c.9,0,1.7-.6,1.8-1.5v-8.8h.1Zm7.7-5.2h3.1q1.3,0,1.3-1.3c0-.4,0-.5-.5-.5h-6.9q-1.3,0-1.3,1.3c0,1.3,0,.5.5.4h3.8Zm3.1-5.2h-2.7q-1.2,0-1.2,1.3c0,.4.2.5.5.5h5.9q1.3,0,1.3-1.4c0-.3,0-.4-.4-.4h-3.4,0Zm-7.4.8c0,1-.2.9.8.9s.9-.3.9-.9q0-.9-.9-.9c-.9,0-.8,0-.8.8h0Z"/><path class="cls-18" d="m177.6,84.7c.5-.4.9-.9,1.4-1.3,2.3-2.3,4.5-4.5,6.8-6.8,1.6-1.7,4.3-1.7,6,0,.6.5.9,1.2,1.1,2,0,.6.2,1.3,0,1.9-.3.9-.8,1.8-1.5,2.5-2,1.9-3.9,3.9-5.8,5.8-.3.3-.3.4,0,.7,1,1.1,1.8,2.5,2.2,3.9h-13.2c-.2,0-.4,0-.4-.2,0-1.3-.1-2.5.2-3.7.3-1.2.9-2.3,1.7-3.1l1.5-1.5v-.2Z"/><path class="cls-8" d="m210.2,82.5c-1.4-.6-2.1-2.7-1.4-4.2.5-1.3,1.9-2.2,3.3-2.1h8.4c1.9.2,3,1.1,3.4,2.8-.2,0-.2,0-.2.2-.4.9-1.1,1.6-2,1.9-.6.2-1.2.3-1.8.3h-8.4c-1,0-1.2,0-1.3,1.1Z"/><path class="cls-18" d="m210.2,89.4c-1.6-.9-2.2-3-1.3-4.6.5-.8,1.3-1.4,2.2-1.6.4,0,.7,0,1.1-.2h8.8c.7.2,1.4.6,1.9,1,.5.5.8,1.1,1,1.8,0,0-.2,0-.2.2-.7,1.7-2.1,2.2-3.7,2.2h-8.6c-1,0-1.2.2-1.2,1.2Z"/><path class="cls-18" d="m208.5,93.3c0-1.6,1.1-3,2.6-3.3.2,0,.5,0,.7,0,3.1,0,6.3,0,9.4,0,0,.2.2.2.3.2,1.2.4,2.1,1.3,2.4,2.6.2.7,0,.8-.6.8h-14.8v-.2Z"/><path class="cls-37" d="m187.8,93.3c-.4-1.5-1.1-2.8-2.2-3.9-.3-.3-.3-.4,0-.7,2-1.9,3.9-3.9,5.8-5.8.7-.7,1.2-1.5,1.5-2.5.6,1.5.3,3.3-.9,4.4-1.3,1.3-2.6,2.6-3.8,3.8-.3.3-.3.4,0,.7,1,1.1,1.8,2.5,2.2,3.9h-2.6Z"/><path class="cls-2" d="m221.2,89.8c-3.1.2-6.3,0-9.4,0s-.5,0-.7,0c-.3-.2-.6-.2-.8-.5h0c0-1.1.2-1.3,1.2-1.3h8.6c1.7,0,3-.5,3.7-2.2,0,0,0-.2.2-.2.2,2-.7,3.4-2.4,4h-.4Z"/><path class="cls-2" d="m221,83h-8.8c-.4,0-.7,0-1.1.2-.2-.2-.6-.2-.8-.6h0c0-1.1.2-1.3,1.3-1.3h8.4c.6,0,1.2,0,1.8-.3.9-.3,1.6-1,2-1.9,0,0,0-.2.2-.2.4,1.8-.7,3.5-2.5,4h-.4Z"/><path class="cls-20" d="m202.5,60.7v8.5c0,.9-.6,1.7-1.5,1.8h-17.2c-1,0-1.8-.7-1.9-1.7v-17c0-1.3.7-2,2.1-2h16.7c1,0,1.9.6,1.9,1.6v8.8h-.1Zm-11.2,4.3c0-1.9-1.5-3.4-3.4-3.4s-3.4,1.5-3.4,3.4,1.5,3.4,3.4,3.4h0c1.9,0,3.4-1.5,3.4-3.4Zm0-8.6c0-1.9-1.5-3.4-3.4-3.4s-3.4,1.5-3.4,3.4,1.5,3.4,3.4,3.4,3.4-1.5,3.5-3.3h0Zm5.1,3.4c1.9,0,3.4-1.5,3.4-3.4s-1.5-3.4-3.4-3.4-3.4,1.5-3.4,3.4h0c0,1.9,1.5,3.4,3.4,3.4h0Zm2.6,5.2v-1.6c0-.5-.3-.9-.7-1h-3.5c-.4,0-.9.3-.9.7v3.5c0,.5.3.9.8.9h3.5c.5,0,.9-.3.9-.8h0v-1.7h0Z"/><path class="cls-25" d="m210.2,55.5h-3.8c-.3,0-.5,0-.5-.4,0-.9.4-1.3,1.3-1.3h6.9c.4,0,.5,0,.5.5,0,.9-.4,1.3-1.3,1.3h-3.1Z"/><path class="cls-28" d="m213.2,50.3h3.4c.3,0,.4,0,.4.4q0,1.4-1.3,1.4h-5.9c-.4,0-.5,0-.5-.5,0-.9.4-1.3,1.2-1.3h2.7Z"/><path class="cls-28" d="m205.9,51.2c0-.5.3-.8.8-.8s.8.3.9.9q0,.9-.9.9c-1,0-.8,0-.8-.9h0Z"/><path class="cls-8" d="m210.2,82.5h0c0,0,0,0,0,0Z"/><path class="cls-26" d="m191.3,65c0,1.9-1.6,3.4-3.5,3.4s-3.4-1.6-3.4-3.5,1.6-3.4,3.4-3.4,3.4,1.6,3.4,3.5h0Zm-5.1-.5v.4c0,.8.5,1.4,1.2,1.7.9.3,1.9-.2,2.2-1.1.2-.5,0-1.1-.2-1.5-.4-.5-1.1-.8-1.7-.6-1.1,0-1.4.3-1.4,1.2h0Z"/><path class="cls-26" d="m191.3,56.4c0,1.9-1.5,3.4-3.4,3.4s-3.4-1.5-3.4-3.4,1.5-3.4,3.4-3.4h0c1.9,0,3.4,1.5,3.4,3.4h0Zm-5-.3c-.2.6,0,1.3.6,1.7.6.4,1.4.4,2,0,.5-.4.8-1,.7-1.7,0-.9-.9-1.5-1.8-1.4h-.2c-.5-.2-1.1,0-1.3.6v.7h0Z"/><path class="cls-26" d="m196.4,59.8c-1.9,0-3.4-1.6-3.4-3.5s1.6-3.4,3.5-3.4,3.4,1.6,3.4,3.4-1.6,3.4-3.5,3.4h0Zm-1.6-3.7c-.3.4,0,.8.2,1.2.4.6,1.1,1,1.8.8.7,0,1.2-.7,1.3-1.3.2-.8-.2-1.5-.9-1.9-.4-.2-.8-.3-1.3-.2-.9,0-1.4.6-1.2,1.4h.1Z"/><path class="cls-3" d="m199,65v1.7c0,.5-.3.9-.8.9h-3.4c-.5,0-.9-.3-.9-.8v-3.5c0-.4.3-.9.7-.9h3.5c.5,0,.9.3.9.8v.2c0,.5,0,1.1,0,1.6Zm-3-.4h1.6c.3,0,.5,0,.5-.5s-.3-.3-.5-.3h-1.3c0-.3-.3-.4-.5-.5-.4,0-.8.3-1,.7-.2.2,0,.6,0,.8.4.3.7,0,1,0h.1Zm.4,1.7h1.3c.2,0,.4-.2.4-.4h0c0-.3-.2-.4-.4-.4h-2.5c-.2,0-.4,0-.4.3h0c0,.2.2.4.4.4h1.3,0Z"/><path class="cls-36" d="m187.5,63.3c.6-.2,1.3,0,1.7.6.6.8.4,1.9-.4,2.4-.4.3-1,.4-1.5.2-.7-.3-1.2-.9-1.2-1.7v-.4c.2.3.5.4.9.3,0,.8.5,1.2,1.1,1,.4-.2.7-.6.5-1.1,0-.4-.6-.7-1-.6,0-.3,0-.6,0-.8h0Z"/><path class="cls-31" d="m187.5,63.3c.2.2.2.5,0,.8,0,.3-.4.5-.6.7-.3,0-.7,0-.9-.3,0-.9.3-1.2,1.4-1.2Z"/><path class="cls-36" d="m187.6,54.8c.9-.2,1.7.3,2,1.2v.2c0,.6-.2,1.3-.7,1.7-.6.4-1.4.4-2,0-.5-.4-.8-1.1-.6-1.7.2.2.5.2.8,0,0,.8.5,1.2,1.1,1,.4,0,.6-.5.6-.9s-.4-.7-1.1-.7c0-.3,0-.6,0-.8h0Z"/><path class="cls-31" d="m187.1,56.2c-.3,0-.6,0-.8,0-.2-.5,0-1.1.6-1.3h.7c.2.2.2.5,0,.8-.2.2-.4.5-.6.6Z"/><path class="cls-36" d="m196,54.7c.4,0,.9,0,1.3.2.7.4,1,1.1.9,1.9-.2.6-.7,1.1-1.3,1.3-.7,0-1.4-.2-1.8-.8-.2-.4-.4-.7-.2-1.2.2,0,.5.2.8.2,0,.4,0,.8.6.9.4,0,.9,0,1-.4.3-.6,0-1.1-1-1.2,0-.3,0-.7-.3-.9Z"/><path class="cls-31" d="m196,54.7c.3.2.4.6.3.9-.2.3-.4.5-.7.7-.3,0-.5,0-.8-.2-.3-.8.3-1.4,1.2-1.4Z"/><path class="cls-27" d="m196.4,66.2h-1.3c-.2,0-.4,0-.4-.3h0c0-.2,0-.4.3-.4h2.5c.2,0,.4,0,.4.4s0,.4-.4.4h-1.3.2Z"/><path class="cls-5" d="m196,64.5h0c-.3.2-.6.4-1,0-.2-.2-.3-.5,0-.8.2-.4.5-.7,1-.7s.5.2.5.5,0,.6-.3.8h-.1Z"/><path class="cls-27" d="m196,64.5c.2-.2.3-.5.3-.8h1.3c.2,0,.5,0,.5.3s-.2.5-.5.5h-1.6Z"/><path class="cls-26" d="m187,64.8c.2-.2.5-.4.6-.7.4,0,.9,0,1,.6.2.4,0,.9-.5,1.1-.6.2-1.1-.2-1.1-1Z"/><path class="cls-26" d="m187.1,56.2l.6-.6c.6,0,1,.2,1.1.7,0,.4-.2.8-.6.9-.6.2-1.1-.3-1.1-1Z"/><path class="cls-26" d="m195.6,56.2c.3-.2.5-.4.7-.7.8,0,1.2.5,1,1.2-.2.4-.6.6-1,.4-.5,0-.6-.5-.6-.9h-.1Z"/></svg>