<?xml version="1.0" encoding="UTF-8"?><svg id="Layer_1" xmlns="http://www.w3.org/2000/svg" viewBox="0 0 400 400"><defs><style>.cls-1{fill:#009245;}.cls-2{fill:#435256;}.cls-3{fill:#57575e;}.cls-4{fill:#565959;}.cls-5{fill:#d9d9ea;}.cls-6{fill:#eb917f;}.cls-7{fill:#414343;}.cls-8{fill:#d2febf;}.cls-9{fill:#48459c;}.cls-10{fill:#999afe;}.cls-11{fill:#fcc472;}.cls-12{fill:#2d3b3d;}.cls-13{fill:#434348;}.cls-14{fill:#f3bd99;}.cls-15{stroke:#c000e2;}.cls-15,.cls-16{stroke-width:4px;}.cls-15,.cls-16,.cls-17{stroke-miterlimit:10;}.cls-15,.cls-16,.cls-17,.cls-18{fill:none;}.cls-19{fill:#00f6d5;}.cls-20{fill:#989afe;}.cls-21{fill:#3392f5;}.cls-22{fill:#fbc372;}.cls-23{fill:#f4bd99;}.cls-24{fill:#02f6d5;}.cls-16{stroke:#00b51e;}.cls-25{fill:#03f6d5;}.cls-26{fill:#e6e6e6;}.cls-17{stroke:#231f20;stroke-width:2px;}.cls-27{fill:#424248;}.cls-28{fill:#00244d;}.cls-29{fill:#6e6f6e;}.cls-30{fill:#b7b7fe;}.cls-31{fill:#979bfd;}.cls-32{fill:#97d6e5;}.cls-33{fill:#3392f6;}.cls-34{fill:#9dd8e6;}.cls-35{fill:#fdc472;}.cls-36{fill:#4b87d4;}.cls-37{fill:#69a6fe;}.cls-38{fill:#29abe2;}.cls-39{fill:#b8b8fd;}.cls-40{fill:#014767;}.cls-41{fill:#60acfd;}.cls-42{fill:#414242;}.cls-43{fill:#231f20;}.cls-44{fill:#00dbe6;}.cls-45{fill:#067fa6;}.cls-46{fill:#f99e3d;}</style></defs><path d="m366,178.3l-2.9,3.6-1.7-1.4,2.8-3.4c.5-.6.5-1.2,0-1.6s-1.2-.3-1.8.3l-2.7,3.3-1.7-1.4,2.8-3.4c.5-.6.5-1.2,0-1.6s-1.2-.3-1.8.3l-2.7,3.3-1.7-1.4,4.8-5.8,1.7,1.4-.4.5c.8-.2,1.5,0,2.1.6.6.5,1,1.2.9,2,.8-.2,1.7,0,2.3.6,1.2,1,1.4,2.8.4,4,0,0-.1.2-.2.2h-.2Z"/><path d="m366.3,180.3c1.9-1.2,4.3-.6,5.5,1.3,1.2,1.9.6,4.3-1.3,5.5-1.9,1.2-4.3.6-5.5-1.3,0,0,0,0,0,0-1.2-1.8-.6-4.3,1.2-5.5,0,0,0,0,0,0Zm3,4.8c.8-.5,1.1-1.5.6-2.3,0,0,0,0,0,0-.5-.8-1.5-1.1-2.3-.6,0,0,0,0-.1,0-.8.5-1.1,1.5-.6,2.3,0,0,0,0,0,0,.5.8,1.5,1.1,2.3.6,0,0,0,0,.1,0Z"/><path d="m376.2,191.5l-2.4.8c-.1-1-1.1-1.8-2.1-1.7,0,0-.2,0-.3,0l-3.2,1.1-.7-2.1,7.1-2.5.7,2.1-1.3.4c1,0,1.8.7,2.1,1.6v.2Z"/><path d="m377.5,200.8l-7.5-1.6c-2.5-.5-3.6-1.7-3.7-3.8l2.1-.3c0,.9.6,1.6,1.5,1.7l6.7-3.9.3,2.5-4.3,2.2,4.7.8.3,2.4h-.1Z"/><path class="cls-12" d="m351.9,184.3h4.8c.9,0,1.6.7,1.6,1.6,0,0,0,0,0,0v4.7c0,.3-.1.6-.5.6s-.6.3-.6.8v10.1c0,.4.1.7.5.8s.6.4.6.8v29.6c0,.9-.4,1.8-1.2,2.2h-5.2c.8-.6,1.1-1.6,1-2.6v-37.8c.5,0,.7-.4.7-1v-6.4c0-.5-.2-.9-.7-1,0-.8-.3-1.5-.9-2v-.4Z"/><path class="cls-11" d="m352.9,186.5c.5.1.7.4.7,1v6.4c0,.5-.2.9-.7,1-.6-.1-.8-.3-.8-.9v-6.5c0-.6.2-.8.8-.9h0Z"/><path d="m25.1,197.8c-2.3-.4-3.9-2.6-3.5-4.9,0-.1,0-.2,0-.4.3-1.5,1.3-2.7,2.7-3.2l.6,1.9c-.8.3-1.3.9-1.5,1.7-.3,1.3.4,2.6,1.7,2.9,0,0,.2,0,.3,0,1.2.4,2.6-.3,2.9-1.6,0-.1,0-.2,0-.3.2-.8,0-1.6-.6-2.2l1.3-1.4c1,1.1,1.5,2.6,1.2,4-.5,2.4-2.8,3.9-5.2,3.4,0,0,0,0-.1,0Z"/><path d="m28.4,189.3c-1.6-.8-2.2-2.8-1.4-4.4,0,0,0,0,0,0,.8-1.6,2.7-2.3,4.3-1.5,0,0,0,0,0,0,1.6.8,2.2,2.8,1.4,4.4,0,0,0,0,0,0-.8,1.6-2.7,2.3-4.3,1.5,0,0,0,0,0,0Zm2.1-4.2c-.7-.4-1.5,0-1.9.6,0,0,0,0,0,0-.3.7,0,1.6.7,1.9.7.4,1.5,0,1.9-.6,0,0,0,0,0,0,.4-.7.1-1.5-.5-1.8,0,0-.1,0-.2,0h0Z"/><line class="cls-18" x1="111.6" y1="200.6" x2="144.4" y2="200.1"/><line class="cls-17" x1="111.6" y1="200.6" x2="133.7" y2="200.2"/><polygon class="cls-43" points="131.6 207.7 144.4 200.1 131.3 192.8 131.6 207.7"/><line class="cls-18" x1="289.4" y1="200.6" x2="256.6" y2="200.1"/><line class="cls-17" x1="289.4" y1="200.6" x2="267.4" y2="200.2"/><polygon class="cls-43" points="269.7 192.8 256.6 200.1 269.5 207.7 269.7 192.8"/><line class="cls-18" x1="200.3" y1="111.9" x2="200.8" y2="144.7"/><line class="cls-17" x1="200.3" y1="111.9" x2="200.6" y2="133.9"/><polygon class="cls-43" points="193.1 131.9 200.8 144.7 208 131.6 193.1 131.9"/><line class="cls-18" x1="200.3" y1="288.7" x2="200.8" y2="255.9"/><line class="cls-17" x1="200.3" y1="288.7" x2="200.6" y2="266.7"/><polygon class="cls-43" points="208 269 200.8 255.9 193.1 268.8 208 269"/><circle class="cls-15" cx="339.5" cy="200.3" r="45"/><path d="m306.7,197.8l-.7-2.3c1,0,1.8-.8,1.9-1.8.3-1.1-.1-1.5-.5-1.6-.6-.2-1,.4-1.8,1.8s-1.9,2.7-3.8,2.2c-1.8-.5-2.8-2.3-2.3-4.1,0,0,0,0,0-.1.3-1.6,1.6-2.9,3.2-3.2l.7,2.2c-.8,0-1.5.7-1.6,1.5-.2.7,0,1.2.5,1.3s.8,0,1.7-1.5,1.8-3,4-2.5c2,.5,2.7,2.3,2.2,4.5-.3,1.8-1.7,3.2-3.5,3.5h0Z"/><path d="m307.8,188.4c-1.9-1.1-2.6-3.5-1.6-5.4,1.1-1.9,3.5-2.6,5.4-1.6,1.9,1.1,2.6,3.5,1.6,5.4,0,0,0,0,0,0-1.1,1.9-3.5,2.6-5.4,1.5Zm2.8-5c-.8-.4-1.9-.1-2.3.7-.4.8-.1,1.9.7,2.3.8.4,1.8.1,2.3-.7.5-.9.1-1.9-.7-2.4,0,0,0,0,0,0h0Z"/><path d="m312.5,180.5c-1.5-1.4-1.7-3.8-.2-5.4,0,0,.2-.2.2-.2,1-1,2.4-1.4,3.7-1.1l-.5,2.2c-.6-.2-1.2,0-1.6.5-.6.7-.6,1.8.1,2.4.6.6,1.6.6,2.3,0,.5-.4.6-1,.4-1.6l2.2-.6c.4,1.4,0,2.8-1,3.8-1.4,1.5-3.8,1.7-5.4.2,0,0-.2-.2-.2-.2Z"/><path d="m330.1,173.1l-1.3-.5c-.5.8-1.3,1.5-2.2,1.8-2,.9-3.9.4-4.7-1.4-.5-1.1-.4-2.4.3-3.4-.5-.3-.8-.8-1.1-1.3-.7-1.6,0-3.4,1.7-4.1,0,0,.2,0,.2,0,1.4-.6,3-.4,4.1.7l-1.4,1.9c-.4-.5-1.1-.7-1.7-.5-.5.2-.8.7-.6,1.2,0,0,0,0,0,0,.2.5.7.7,1.4,1l2.6,1.2c0-.6,0-1.1-.2-1.7l2.3.2c0,.8,0,1.6,0,2.4l1.8.8-1.3,1.7h.1Zm-3.2-1.4l-2.6-1.1h-.1c-.2.4-.2.8,0,1.2.3.6.9.9,1.9.5.3-.2.6-.4.9-.6h0Z"/><path d="m346,171.6h-2.4c0-.1.3-6.2.3-6.2l-2.9,4.3h-.3l-2.5-4.6-.3,6.1h-2.4c0-.1.5-10.6.5-10.6h2.4c0,.1,2.6,4.9,2.6,4.9l3.1-4.5h2.4c0,.1-.5,10.6-.5,10.6Z"/><path d="m351.1,171.7c.5.2,1,.2,1.5,0l1.3,1.6c-1.1.7-2.4.8-3.6.3-2.1-.6-3.2-2.8-2.6-4.8,0-.1,0-.2.1-.4.7-2,2.9-3.1,4.9-2.4,0,0,.1,0,.2,0,2,.7,3,2.9,2.2,4.9,0,0,0,0,0,.1,0,.3-.2.6-.4.8l-5-1.9c0,.8.6,1.4,1.3,1.6h.1Zm2.3-2.1c0-.8-.4-1.4-1.1-1.7-.7-.3-1.5-.1-1.9.5l3,1.1h0Z"/><path class="cls-2" d="m330.4,235.4h-10.5c-.9-.4-1.3-1.4-1.2-2.3v-26.8c0-.7.2-.9.9-1.1.5,0,.7-.4.7-.9v-3c0-.4-.2-.8-.7-.9,0,0,0,0,0,0-.8-.2-.9-.4-.9-1.1v-6.4c0-.7.3-1.5.8-2,2-1.9,3.9-3.9,5.9-5.9.5-.5,1.3-.8,2-.8h24.4v.2c.6.5,1,1.2.9,2-.6.2-.8.3-.8.9v6.5c0,.6.2.8.8.9v16.9c-.1-.5-.5-.8-1-.9h-26.3c-.8,0-1.2.4-1.2,1.3v16.2c-.1.7.3,1.3,1,1.4.1,0,.3,0,.4,0h26c.7,0,1.2-.2,1.4-.9v3.8c0,1,0,2-1,2.6h-5.4c-.2-.2-.5-.4-.6-.7-.2-.4-.6-.6-1-.6h-12.5c-.5,0-.9,0-1.1.5-.2.3-.5.6-.8.8l-.2.3Zm9.1-44.8v-3.2c0-.6-.3-.9-.8-.9s-.7.4-.7.9v6.5h0c0,.6.3.9.8.9.4,0,.7-.3.7-.7,0,0,0,0,0,0v-3.3h0Zm4.7,0v-3.2c0-.6-.3-1-.8-1s-.8.4-.8,1v6.4c0,.6.3,1,.8,1s.8-.3.8-1v-3.1h0Zm4.7,0v-3.2c0-.6-.3-.9-.8-.9s-.8.4-.8,1v6.4c0,.6.3,1,.8,1s.8-.3.8-.9v-3.2h0v-.2Zm-18.8,0v-3.2c0-.6-.3-.9-.7-.9-.5,0-.8.4-.8.8,0,0,0,0,0,0v6.4c0,.6.3.9.7.9s.8-.3.8-.9v-3.2Zm4.7,0v-3.2c0-.6-.3-1-.8-.9-.4,0-.8.4-.7.9,0,0,0,0,0,0v6.4c0,.6.3.9.8.9s.7-.3.7-.9v-3.2Zm-11.4,2.1h0v1.3c0,.4.3.7.7.7,0,0,0,0,0,0,.4,0,.7-.3.8-.7h0v-2.6c0-.4-.3-.8-.7-.8h0c-.4,0-.7.3-.8.8v1.3Z"/><path class="cls-35" d="m324.2,227.7v-15.5c0-.9.4-1.3,1.2-1.3h22v15c0,1.6-.3,1.8-1.8,1.8h-21.4Z"/><path class="cls-46" d="m324.2,227.7h21.5c1.6,0,1.8-.3,1.8-1.8v-15h4.3c.5,0,.9.4,1,.9v17.1c-.2.7-.7.9-1.4.9h-26c-1,0-1.4-.4-1.4-1.4v-.7h.2Z"/><path class="cls-11" d="m339.5,190.6v3.3c0,.4-.2.7-.6.8,0,0,0,0,0,0-.4,0-.8-.3-.8-.7,0,0,0,0,0-.1h0v-6.6c0-.4.3-.8.7-.9.5,0,.8.4.8.8,0,0,0,0,0,0v3.3Z"/><path class="cls-11" d="m344.2,190.7v3.1c0,.6-.3,1-.8,1s-.8-.3-.8-1v-6.4c0-.6.3-1,.8-1s.8.4.8,1v3.3h0Z"/><path class="cls-11" d="m348.9,190.7v3.2c0,.6-.3,1-.8.9s-.8-.3-.8-1v-6.4c0-.6.3-1,.8-1s.7.4.8.9v3.4h0Z"/><path class="cls-11" d="m330.1,190.7v3.2c0,.6-.3.9-.8.9s-.7-.3-.7-.9v-6.4c0-.6.3-1,.8-.9.4,0,.8.4.7.9,0,0,0,0,0,0v3.2Z"/><path class="cls-11" d="m334.8,190.7v3.2c0,.6-.3.9-.7.9s-.8-.3-.8-.9v-6.4c0-.6.3-.9.7-.9.5,0,.8.4.8.8,0,0,0,0,0,0v3.2Z"/><path class="cls-22" d="m323.4,192.8v-1.3c0-.4.3-.8.7-.8,0,0,0,0,.1,0,.4,0,.8.3.8.8,0,0,0,0,0,0h0v2.6c0,.4-.3.7-.7.7,0,0,0,0,0,0h0c-.3,0-.7-.2-.7-.6,0,0,0,0,0-.1v-1.3h-.2,0Z"/><circle class="cls-15" cx="200.5" cy="338.2" r="45"/><path d="m163.2,329.9l-.6,2.8,8.5,1.8-.5,2.5-8.5-1.8-.6,2.8-2.4-.5,1.7-8.1,2.4.5Z"/><path d="m167.8,321.8l7.2,3.5-1,2.2-.7-.3c.3.9.3,1.8-.2,2.6-.9,1.9-3.3,2.6-5.5,1.6-2-.9-3-3.2-2.1-5.2,0,0,0,0,0,0,.3-.8,1-1.5,1.9-1.7l-.7-.3,1-2.2h.1Zm2.6,3.9c-.9-.5-2-.1-2.5.8,0,0,0,0,0,.1-.5.9,0,2.1.9,2.6,0,0,0,0,0,0,.9.5,2,.1,2.5-.8,0,0,0,0,0-.1.5-.9,0-2.1-.9-2.6,0,0,0,0,0,0h0Z"/><path d="m178.5,315.5c1.7,1.5,1.9,4,.5,5.7-.6.7-1.4,1.1-2.3,1.1l.5.5-1.6,1.8-8.2-7.6,1.6-1.8,2.9,2.7c0-.9.3-1.7.9-2.4,1.6-1.5,4.1-1.5,5.7,0Zm-1.6,1.8c-.7-.7-1.9-.8-2.7,0,0,0,0,0,0,0-.7.7-.7,1.9,0,2.6,0,0,0,0,.1.1.7.7,1.9.8,2.7,0,0,0,0,0,0,0,.7-.7.7-1.9,0-2.6,0,0,0,0-.1-.1h0Z"/><path d="m175.6,308.4l2-1.4,6.7,9.6-2,1.4-6.7-9.6Z"/><path d="m188.1,312.4c.5-.2,1-.7,1.2-1.2l2.2.3c-.3,1.3-1.3,2.4-2.6,2.9-2,1-4.5.2-5.5-1.8,0-.1-.1-.2-.2-.3-.9-2.2,0-4.7,2.2-5.6,0,0,0,0,0,0,2-.9,4.4,0,5.3,2,0,0,0,.2.1.3l.3.9-5.2,2.2c.6.5,1.5.7,2.2.3Zm.2-3.3c-.5-.7-1.4-.9-2.1-.5-.8.3-1.2,1.1-1.1,1.9l3.2-1.4Z"/><path d="m195,306.5l.5,2.8c.1.7.7.6,1.7.4l.4,2.1c-3,.9-4.1.1-4.5-2.1l-.5-2.8-1.3.2-.4-2.3,1.3-.2-.3-1.5,2.2-1.1.4,2.2,1.6-.3.4,2.3-1.6.3h.1Z"/><path d="m198.6,305.8l6.1.2v2.3l-6.1-.2v-2.3Z"/><path d="m215.1,310.7c-.5,2.1-2.7,3.4-4.8,2.9,0,0,0,0,0,0-.9-.2-1.6-.8-2-1.6l-.2.7-2.3-.7,3.3-10.7,2.3.7-1.2,3.8c.8-.4,1.7-.5,2.6-.2,2.1.7,3.2,3,2.4,5.1,0,0,0,0,0,0h0Zm-2.3-.7c.4-.9,0-2-1-2.3,0,0-.1,0-.2,0-1-.3-2,.2-2.4,1.2,0,0,0,0,0,0-.4.9,0,2,1,2.3,0,0,.1,0,.2,0,1,.3,2-.2,2.4-1.2,0,0,0,0,0,0Z"/><path d="m216.3,311.3c1.3-1.9,3.9-2.4,5.8-1.2,0,0,0,0,0,0,1.9,1.2,2.5,3.8,1.3,5.7,0,0-.1.2-.2.2-1.3,1.9-3.9,2.4-5.8,1.2,0,0,0,0,0,0-1.9-1.2-2.5-3.8-1.3-5.7,0,0,.1-.2.2-.2Zm5,3.4c.6-.9.4-2-.5-2.6s-2-.4-2.6.5c-.6.8-.5,1.8.3,2.4,0,0,.1.1.2.2.8.6,2,.4,2.6-.4,0,0,0,0,0,0h0Z"/><path d="m235.4,319.1l-8.7,7.1-1.5-1.9.6-.5c-.9,0-1.7-.5-2.3-1.2-1.3-1.8-.9-4.3.9-5.6,0,0,0,0,0,0,1.7-1.5,4.2-1.3,5.7.3.6.7.9,1.6.7,2.5l3.1-2.5,1.5,1.9h0Zm-7.1,2.7c.8-.6,1-1.7.4-2.6,0,0,0,0-.1-.1-.6-.8-1.6-1-2.4-.4,0,0-.2.1-.3.2-.8.6-1,1.7-.4,2.6,0,0,0,0,.1.1.6.8,1.6,1,2.4.4,0,0,.2-.1.3-.2h0Z"/><path d="m237.5,330.9l-8.2.6c-2.7.2-4.2-.7-5-2.8l2.1-.9c.2.9,1.1,1.5,2,1.3l5.8-5.9,1,2.4-3.8,3.6,5.1-.6,1,2.4h0Z"/><path d="m241.8,336.8l-11,2-.5-2.5,8.4-1.5-.9-1.9,2-1,1.6,2.7.4,2.2Z"/><path class="cls-28" d="m200.5,325.6h12.4c1.9,0,3.5,1.4,3.6,3.4,0,0,0,0,0,0v34.4c0,1.4-.7,2.7-1.9,3.3-.3.2-.7.2-1,.4h-13.1v-2.4h12.2c.9,0,1.3-.4,1.3-1.2v-34.3c0-.9-.4-1.2-1.3-1.2h-12.2v-2.4Z"/><path class="cls-40" d="m200.5,364.5v2.4h-13.2c-.1-.2-.4-.2-.5-.2-1.3-.5-2.2-1.7-2.2-3.1v-34.4c-.1-1.4.7-2.7,2-3.3.4-.2.8-.3,1.2-.3h12.7v2.4h-12.2c-.9,0-1.3.3-1.3,1.3v34c0,.9.3,1.3,1.3,1.3h12.2Z"/><path class="cls-19" d="m200.5,328h12.2c.9,0,1.3.4,1.3,1.2v34c0,.9-.4,1.2-1.3,1.2h-12.2v-2.5h3.5c.5,0,1.1-.4,1.1-.9.2-.7-.2-1.4-.9-1.6-.1,0-.3,0-.4,0h-3.3v-9.8c.7,0,1.2-.6,1.2-1.3,0,0,0,0,0,0v-4.1c0-.7-.4-1.3-1.1-1.4,0,0,0,0,0,0v-9.8h1.7c.6,0,1.2-.5,1.2-1.1,0,0,0,0,0,0h0c0-.6-.5-1.2-1.1-1.2,0,0,0,0,0,0h-1.7v-2.5h0Zm5.9,18.3v-3.8c0-.5-.2-.9-.6-1.2-.5-.4-1.3-.2-1.6.3-.1.2-.2.5-.2.8v7.5c0,.5.2,1,.6,1.3.6.3,1.3.1,1.7-.5.1-.2.2-.5.1-.7v-3.7h0Zm4.7,0v-1c0-.6-.5-1.2-1.1-1.2,0,0,0,0,0,0h0c-.6,0-1.2.4-1.2,1.1,0,0,0,0,0,0v2.1c0,.6.5,1.1,1.1,1.1,0,0,.1,0,.2,0,.6,0,1.1-.6,1.1-1.2v-1h0Z"/><path class="cls-8" d="m200.5,328v2.5h-1.6c-.6,0-1.2.4-1.3,1.1,0,0,0,0,0,.1,0,.7.6,1.2,1.3,1.2,0,0,0,0,0,0h1.6v9.8h0c-.8,0-1.2.7-1.2,1.5v3.9c0,.7.5,1.4,1.2,1.5h0v9.9h-3.3c-.6,0-1.2.4-1.3,1.1,0,0,0,0,0,.1,0,.7.6,1.2,1.3,1.2,0,0,0,0,0,0h3.3v2.5h-12.2c-.9,0-1.3-.3-1.3-1.3v-33.8c0-.9.3-1.3,1.3-1.3h12.2Zm-3.6,18.2v-5.9c-.2-.5-.7-.8-1.3-.8-.6,0-1,.6-1,1.2v10.9c0,.6.5,1.2,1.1,1.2,0,0,0,0,0,0h0c.6,0,1.1-.5,1.1-1.1,0,0,0-.1,0-.2v-5.3h0Zm-4.7,0v-2.2c0-.7-.5-1.2-1.2-1.2-.7,0-1.2.5-1.2,1.2h0v4.3c0,.7.5,1.2,1.2,1.2.7,0,1.2-.5,1.2-1.2h0v-2.1Z"/><path class="cls-31" d="m206.4,346.3v3.8c0,.7-.4,1.3-1.1,1.3-.3,0-.5,0-.7-.1-.4-.3-.7-.8-.6-1.3v-7.5c0-1.1,1-1.7,1.8-1.1.4.3.6.7.6,1.2v3.7Z"/><path class="cls-44" d="m200.5,359.6h3.3c.7,0,1.3.5,1.3,1.2,0,.1,0,.3,0,.4,0,.4-.6.8-1.1.9h-3.5v-2.4h0Z"/><path class="cls-20" d="m211.1,346.3v1c0,.7-.5,1.2-1.2,1.2-.6,0-1.1-.5-1.2-1.1v-2.1c0-.6.5-1.1,1.2-1.1,0,0,0,0,0,0,.6,0,1.2.5,1.2,1.1,0,0,0,0,0,0h0v.9Z"/><path class="cls-10" d="m200.5,342.8c.7,0,1.2.6,1.2,1.3,0,0,0,0,0,0v4.1c0,.7-.4,1.3-1.1,1.4,0,0,0,0,0,0h0v-6.9h0Z"/><path class="cls-44" d="m200.5,330.5h1.7c.6,0,1.1.4,1.2,1,0,0,0,.1,0,.2,0,.6-.5,1.2-1.1,1.2,0,0,0,0,0,0h-1.7v-2.4h0Z"/><path class="cls-39" d="m196.9,346.2v5.4c0,.7-.4,1.2-1.1,1.3-.7,0-1.2-.5-1.3-1.2h0v-10.9c0-.6.4-1.1,1-1.2.6,0,1.1.3,1.3.8v5.9h.1Z"/><path class="cls-39" d="m192.2,346.3v2.1c0,.7-.5,1.2-1.2,1.2-.7,0-1.2-.5-1.2-1.2h0v-4.3c0-.7.5-1.2,1.2-1.2.7,0,1.2.5,1.2,1.2h0v2.2Z"/><path class="cls-24" d="m200.5,359.6v2.4h-3.3c-.6,0-1.2-.4-1.3-1.1,0,0,0,0,0-.1,0-.7.6-1.2,1.3-1.2,0,0,0,0,0,0h3.3Z"/><path class="cls-30" d="m200.5,342.8v6.9c-.8,0-1.2-.7-1.2-1.5v-3.9c0-.7.5-1.4,1.2-1.5Z"/><path class="cls-25" d="m200.5,330.5v2.4h-1.6c-.7,0-1.2-.5-1.2-1.2,0-.7.5-1.2,1.2-1.2h1.6Z"/><path d="m198.8,332.9h5.7v25.9h-6.6v-18.9l-4.5,1.1-1.6-5.6,7-2.5Z"/><path class="cls-23" d="m178.2,86.7c.5-.4.9-.9,1.4-1.3l6.8-6.8c1.6-1.7,4.2-1.7,5.9-.1,0,0,0,0,.1.1.6.5,1,1.2,1.1,2,.1.6.1,1.3,0,1.9-.3.9-.8,1.8-1.5,2.5-2,1.9-3.9,3.9-5.8,5.8-.3.3-.3.4,0,.7,1,1.1,1.8,2.5,2.2,3.9h-13.2c-.2,0-.4,0-.4-.2,0-1.2,0-2.5.2-3.7.3-1.2.9-2.2,1.7-3.1l1.5-1.5v-.2Z"/><path class="cls-14" d="m210.8,84.5c-1.5-.8-2.1-2.6-1.4-4.2.5-1.3,1.9-2.2,3.3-2.1h8.4c1.7,0,3.1,1.2,3.4,2.8-.2,0-.2,0-.2.2-.4.9-1.1,1.6-2,1.9-.6.2-1.2.3-1.8.3h-8.4c-1,0-1.2,0-1.3,1.1Z"/><path class="cls-23" d="m210.8,91.4c-1.6-.9-2.2-3-1.3-4.6.5-.8,1.3-1.4,2.2-1.6.4,0,.7,0,1.1-.2h8.8c.7.2,1.3.5,1.9,1,.5.5.8,1.1,1,1.8,0,0-.2,0-.2.2-.6,1.5-2.1,2.4-3.7,2.2h-8.6c-1,0-1.2.2-1.2,1.2Z"/><path class="cls-23" d="m209.1,95.4c0-1.6,1.1-3,2.6-3.3.2,0,.5,0,.7,0,3.1,0,6.3,0,9.4,0,0,.2.2.2.3.2,1.2.4,2.1,1.4,2.4,2.6.2.7,0,.8-.6.8h-14.8v-.2Z"/><path class="cls-45" d="m188.4,95.4c-.4-1.5-1.1-2.8-2.2-3.9-.3-.3-.3-.4,0-.7,2-1.9,3.9-3.9,5.8-5.8.7-.7,1.2-1.6,1.5-2.5.6,1.5.3,3.3-.9,4.4l-3.8,3.8c-.3.3-.3.4,0,.7,1,1.1,1.8,2.5,2.2,3.9h-2.6Z"/><path class="cls-6" d="m221.8,91.8c-3.1.2-6.3,0-9.4,0-.2,0-.5,0-.7,0-.3-.2-.6-.2-.8-.5h0c0-1.1.2-1.3,1.2-1.3h8.6c1.7,0,3-.5,3.7-2.2,0,0,.1-.2.2-.2.3,1.7-.7,3.5-2.4,4h-.4Z"/><path class="cls-6" d="m221.6,85h-8.8c-.4,0-.8,0-1.1.2-.2-.2-.6-.2-.8-.6h-.1c.1-1.1.2-1.3,1.3-1.3h8.4c.6,0,1.2,0,1.8-.3.9-.3,1.6-1,2-1.9,0,0,0-.2.2-.2.4,1.8-.7,3.6-2.5,4h-.4Z"/><path class="cls-32" d="m210.8,57.6h-3.8c-.3,0-.5,0-.5-.4,0-.6.3-1.2,1-1.3.1,0,.2,0,.3,0h6.9c.4,0,.5,0,.5.5,0,.6-.3,1.2-1,1.3-.1,0-.2,0-.3,0h-3.1,0Z"/><path class="cls-34" d="m213.8,52.4h3.4c.3,0,.4,0,.4.4q0,1.4-1.3,1.4h-5.9c-.4,0-.5,0-.5-.5,0-.9.4-1.3,1.2-1.3h2.7Z"/><path class="cls-34" d="m206.5,53.2c0-.4.2-.7.6-.8,0,0,.1,0,.2,0,.5,0,.8.3.9.9q0,.9-.9.9c-.9,0-.8,0-.8-.9h0Z"/><path class="cls-14" d="m210.8,84.5h.1c0,0-.1,0-.1,0Z"/><path class="cls-1" d="m217.5,48.1h-35.8c-.4,0-.9,0-1.3.2-1.4.5-2.4,1.9-2.3,3.4v35.1c.5-.4.9-.9,1.4-1.3l6.8-6.8c.5-.6,1.2-1,2-1.1,2.2-.6,4.5.7,5.1,2.9,0,0,0,.1,0,.2.1.6.1,1.3,0,1.9.6,1.5.3,3.3-.9,4.4l-3.8,3.8c-.3.3-.3.4,0,.7,1,1.1,1.8,2.5,2.2,3.9h18.1c0-1.6,1.1-3,2.6-3.4-.3-.2-.6-.2-.8-.5h0c-1.7-1-2.2-3.2-1.1-4.9.5-.8,1.2-1.3,2-1.5-.2-.2-.6-.2-.8-.6h-.1c-1.5-.9-2.1-2.8-1.4-4.4.5-1.3,1.9-2.2,3.3-2.1h8.4v-26.5c.1-1.9-1.3-3.5-3.1-3.6-.2,0-.3,0-.5,0v.2Zm-11,5.1c0-.4.2-.7.6-.8,0,0,.1,0,.2,0q.9,0,.9.9t-.9.9c-.9,0-.8,0-.8-.9h0Zm7.4,4.4h-6.9c-.3,0-.5,0-.5-.4q0-1.3,1.3-1.3h6.9c.4,0,.5,0,.5.5q0,1.3-1.3,1.3h0Zm2.5-3.4h-5.9c-.4,0-.5,0-.5-.5q0-1.3,1.2-1.3h6.1c.3,0,.4,0,.4.4q0,1.4-1.3,1.4Z"/><path class="cls-5" d="m197.5,59.5h0v.6c-.1,1-.4,1.9-.9,2.7-.4.7-.9,1.4-1.5,1.9-.6.6-1.3,1.1-2.1,1.5-.7.3-1.4.5-2.1.6h-2.2c-1-.1-2-.5-2.9-1-.7-.4-1.4-1-1.9-1.6-.5-.6-1-1.3-1.3-2.1-.3-.7-.5-1.4-.6-2.1v-2.2c.1-.9.4-1.7.9-2.5.4-.7.9-1.3,1.5-1.9,1.7-1.6,4-2.4,6.3-2.1.9,0,1.7.3,2.5.7,1.7.9,3.1,2.3,3.8,4.1.3.6.4,1.3.5,2v1.4Zm-6.5,6.2c.3,0,.6,0,.9-.2,3.2-1.1,5.1-4.4,4.5-7.8-.4-2.3-2.1-4.2-4.3-5-.3-.2-.7-.3-1.1-.3h-.2c-.6,0-1.1,0-1.7,0-1.1,0-2.1.4-3,1-2.3,1.4-3.6,4-3.2,6.7.2,1.9,1.2,3.6,2.8,4.7,1.3,1,2.8,1.4,4.4,1.3.3,0,.6,0,.9,0v-.3Z"/><path class="cls-3" d="m191,65.7c-.3,0-.6.1-.9,0-1.6,0-3.1-.4-4.4-1.3-1.6-1.1-2.6-2.8-2.8-4.7-.4-2.7.9-5.3,3.2-6.7.9-.6,1.9-.9,3-1h2c1.1.4,2.2,1.1,2.9,2,.4.5.7,1,.9,1.5.4.9.6,1.8.6,2.8v1.5c0,.8-.3,1.5-.7,2.2-.4.7-.9,1.4-1.5,2-.5.5-1.1.8-1.7,1.1-.2,0-.4,0-.6.2v.3Zm-6.3-6.7c0,2.8,2.2,5,5,5s5-2.2,5-5c0-2.8-2.2-5-4.9-5-2.8,0-5,2.2-5.1,5h0Z"/><path class="cls-13" d="m191,65.7c.2,0,.4,0,.6-.2.6-.3,1.2-.6,1.7-1.1.6-.6,1.1-1.3,1.5-2,.3-.7.6-1.4.7-2.2,0-.5,0-1,0-1.5,0-1-.2-1.9-.6-2.8-.2-.5-.5-1-.9-1.5-.7-1-1.7-1.7-2.9-2h-.1c.4,0,.7.2,1.1.3,2.2.8,3.9,2.7,4.3,5,.7,3.4-1.3,6.7-4.5,7.8-.3,0-.6.2-.9.2Z"/><path class="cls-33" d="m184.8,59c0-2.8,2.2-5,5-5s5,2.2,5,5-2.2,5-5,5h0c-2.7,0-4.9-2.2-5-4.9h0Zm5-3.1h-2.2c-.3,0-.5,0-.6.2,0,0,0,.1-.1.2-.8.8-1.1,2-1,3.1,0,1,.5,1.9,1.3,2.5,0,0,.2,0,.3,0h4.6c.3,0,.5,0,.7-.3h.1c.8-1,1.1-2.2.9-3.4-.1-.8-.5-1.6-1.1-2.2-.1-.2-.4-.3-.6-.3h-2.3,0Z"/><path class="cls-9" d="m189.7,55.9h2.3c.2,0,.5.1.6.3.6.6,1,1.4,1.1,2.2.2,1.2-.1,2.4-.9,3.3h-.1c-.2.3-.4.4-.7.4h-4.6c-.1,0-.2,0-.3,0-.7-.7-1.2-1.5-1.3-2.5-.1-1.1.2-2.3,1-3.1,0,0,0-.1.1-.2.2-.2.4-.3.6-.2h2.2,0Zm2.2,3.1c0-1.2-.9-2.2-2.1-2.2,0,0,0,0,0,0-1.1,0-2.1.9-2.1,2,0,0,0,0,0,.1,0,1.2.9,2.2,2.1,2.2,0,0,0,0,0,0,1.1,0,2.1-.9,2.1-2,0,0,0,0,0-.1Z"/><path class="cls-27" d="m191.9,59c0,1.1-.9,2.1-2,2.1,0,0,0,0-.1,0-1.2,0-2.2-.9-2.2-2.1,0,0,0,0,0,0,0-1.1.9-2.1,2-2.1,0,0,0,0,.1,0,1.2,0,2.2,1,2.2,2.2Zm-2.2-1.2c-.6,0-1.2.5-1.2,1.1,0,0,0,0,0,0h0c0,.7.5,1.2,1.2,1.2s1.2-.5,1.2-1.2-.5-1.2-1.2-1.2h0Z"/><path class="cls-41" d="m189.7,60.2c-.7,0-1.2-.5-1.2-1.2s.5-1.2,1.2-1.2h0c.1,0,.1.2.2.3,0,.6,0,1.2,0,1.8,0,.1,0,.2-.2.3Z"/><path class="cls-21" d="m189.7,60.2c.1,0,.1-.2.2-.3,0-.6,0-1.2,0-1.8,0,0,0-.2-.2-.3.7,0,1.2.5,1.2,1.2s-.5,1.2-1.2,1.2Z"/><circle class="cls-15" cx="200.5" cy="61.8" r="45"/><path d="m169.9,63l.2,2.1-5.3.4,4,2.1v.2l-3.7,2.6,5.3-.4.2,2.1-9.1.7-.2-2.1,3.9-2.8-4.2-2.2-.2-2.1,9.1-.7h0Z"/><path d="m169.3,58.6c0-.4,0-.9-.2-1.3l1.2-1.3c.7.8,1,1.9.7,3-.2,1.8-1.9,3.1-3.8,2.9-.1,0-.2,0-.3,0-1.8-.3-3-2-2.7-3.8,0-.1,0-.2,0-.3.3-1.7,2-2.9,3.8-2.6,0,0,.2,0,.2,0,.2,0,.5,0,.7.2l-1,4.5c.7,0,1.2-.6,1.2-1.3h.1Zm-2.1-1.7c-.8,0-1.4.7-1.3,1.5,0,.5.3.9.7,1.2l.6-2.7Z"/><path d="m166.4,45.4l8.2,3.9-.8,1.8-.6-.3c.3.7.3,1.5-.1,2.1-.8,1.6-2.8,2.2-4.3,1.3,0,0,0,0,0,0-1.7-.7-2.5-2.6-1.8-4.3.3-.7.9-1.2,1.6-1.4l-2.9-1.4.8-1.8h0Zm4.4,4.3c-.8-.4-1.7,0-2.1.7-.4.7-.1,1.6.6,2,0,0,.1,0,.2,0,.8.4,1.7,0,2.1-.7.4-.7,0-1.7-.7-2,0,0,0,0-.1,0h0Z"/><path d="m168.5,43.9c-.5-.4-.7-1.1-.3-1.6s1.1-.7,1.6-.3c.5.4.7,1.1.3,1.6-.4.5-1.1.6-1.6.3Zm1.5.9l1.1-1.6,5.3,3.8-1.1,1.6-5.3-3.8Z"/><path d="m177.2,36.7l4.5,4.7-1.4,1.4-.4-.4c0,.7-.3,1.4-.8,1.9-1.5,1.2-3.7.9-4.8-.6-1-1.3-1-3.1,0-4.3.5-.5,1.2-.8,1.9-.8l-.4-.4,1.4-1.4h0Zm.9,3.7c-.5-.6-1.4-.7-2-.2,0,0-.2.1-.2.2-.6.5-.7,1.5-.1,2.1,0,0,0,0,.1.1.5.6,1.4.7,2,.2,0,0,.2-.1.2-.2.6-.5.7-1.5.1-2.1,0,0,0,0-.1-.1h0Z"/><path d="m180.1,36.6l4.2-2.6,1,1.6-4.2,2.6-1-1.6Z"/><path d="m186.6,35.9l1.4-1.6c.5.6,1.4.9,2.2.6.9-.3,1-.8.9-1.1-.2-.5-.7-.6-2.2-.5s-2.9,0-3.4-1.7c-.5-1.5.3-3,1.8-3.5,0,0,.2,0,.2,0,1.3-.5,2.9-.2,3.8.9l-1.3,1.5c-.4-.6-1.2-.8-1.8-.5-.6.2-.8.6-.7,1s.4.6,1.9.5,3.1-.1,3.7,1.7c.6,1.8-.4,3.1-2.3,3.7-1.4.6-3.1.3-4.2-.9Z"/><path d="m193,27.5c0-.6.4-1.2,1-1.3.6,0,1.2.4,1.3,1s-.4,1.2-1,1.3c0,0,0,0,0,0-.6,0-1.2-.3-1.3-.9,0,0,0,0,0,0Zm.5,1.7l1.9-.3,1.1,6.4-1.9.3-1.1-6.4Z"/><path d="m203.7,31v4h-2v-3.7c0-.6-.4-1.1-1-1.2,0,0,0,0-.1,0-.6,0-1.2.4-1.2,1,0,0,0,.2,0,.3v3.5h-2v-6.5h2v.6c.5-.6,1.2-.9,1.9-.8,1.3,0,2.4,1.1,2.4,2.4,0,.1,0,.2,0,.3h0Z"/><path d="m212.6,30.4l-1.5,6c-.5,2.1-2.4,2.6-4.1,2.2-1.2-.2-2.2-1.1-2.6-2.3l1.8-.5c.1.5.4.9,1.2,1.2.7.3,1.4,0,1.7-.7,0,0,0-.2,0-.3v-.6c-.5.5-1.2.6-1.9.4-1.7-.4-2.8-2.2-2.3-3.9,0,0,0,0,0-.1.4-1.7,2.1-2.8,3.8-2.4,0,0,0,0,.1,0,.7.1,1.3.6,1.6,1.3l.2-.6,1.8.5v-.2Zm-2.6,2.6c.2-.8-.3-1.6-1-1.8,0,0-.1,0-.2,0-.8-.2-1.6.2-1.9,1,0,0,0,0,0,.1-.2.8.3,1.6,1,1.8,0,0,.1,0,.2,0,.8.2,1.6-.2,1.9-1,0,0,0,0,0-.1Z"/><path d="m215.8,28.6l1.8.8-3.9,8.7-1.8-.8,3.9-8.7Z"/><path d="m218.4,39c.4.3.8.4,1.3.3l.8,1.6c-1.1.4-2.2.2-3.1-.5-1.6-.9-2.2-3.1-1.3-4.7.9-1.6,3.1-2.2,4.7-1.3,1.6.9,2.2,3.1,1.3,4.7,0,0,0,.1,0,.2-.2.2-.3.4-.5.6l-3.8-2.6c-.2.7.2,1.2.8,1.6h-.1Zm2.3-1.3c.2-.6,0-1.3-.6-1.6-.5-.4-1.2-.4-1.7,0l2.3,1.5h0Z"/><path d="m225.1,42.3c1.4-1.2,3.5-1,4.6.4,0,0,.1.1.2.2.7.9.9,2.2.5,3.3l-1.8-.7c.2-.5.1-1-.2-1.4-.4-.6-1.3-.8-1.9-.3,0,0-.1,0-.2.1-.7.5-.8,1.4-.3,2.1,0,0,0,0,0,0,.3.5.9.7,1.4.5l.3,1.9c-1.2.2-2.4-.3-3.1-1.3-1.2-1.5-.9-3.6.5-4.7,0,0,0,0,0,0h0Z"/><path d="m235.3,52.8l-5.9,2.8-.8-1.8.6-.3c-.7-.2-1.2-.7-1.5-1.4-.7-1.7.1-3.6,1.8-4.3,1.6-.8,3.5-.3,4.3,1.3,0,0,0,0,0,.1.4.6.4,1.4.1,2.1l.6-.3.8,1.8h-.1Zm-3.8-.4c.8-.4,1-1.3.7-2.1-.4-.8-1.3-1-2.1-.7-.7.4-1,1.3-.7,2,.3.8,1.2,1.1,2,.8,0,0,0,0,.1,0Z"/><path d="m235.2,65.4l-3.9.6-.3-1.9,3.8-.5c.5,0,.9-.4.9-.9,0,0,0-.1,0-.2,0-.6-.6-.9-1.4-.8l-3.6.5-.3-1.9,3.8-.5c.5,0,.9-.4.9-.9,0,0,0-.1,0-.2,0-.6-.6-.9-1.4-.8l-3.6.5-.3-1.9,6.4-.9.3,1.9h-.6c.6.4,1,1,1,1.7.1.7,0,1.4-.6,1.8.6.3,1.1,1,1.1,1.7.2,1.3-.6,2.5-1.9,2.8-.1,0-.2,0-.4,0h.1Z"/><path d="m232,70.2c0,.5,0,.9.3,1.3l-1.1,1.4c-.8-.8-1.1-1.9-.9-3,.2-1.9,1.8-3.3,3.7-3.1,0,0,.2,0,.2,0,1.8.2,3.1,1.9,2.9,3.7,0,0,0,.1,0,.2-.2,1.8-1.9,3.1-3.7,2.8,0,0-.1,0-.2,0-.3,0-.5,0-.8-.2l.7-4.6c-.7,0-1,.7-1.1,1.4h0Zm2.2,1.5c.8,0,1.1-.6,1.2-1.2.1-.6-.2-1.3-.8-1.5l-.4,2.8h0Z"/><path d="m234.7,79.6l-2.1-.7c.5-.7.4-1.6-.3-2.1-.2-.1-.3-.2-.5-.2l-2.8-1,.6-1.8,6.1,2.1-.6,1.8-1.1-.4c.6.6.9,1.5.6,2.3h.1Z"/><path d="m230.7,86.8l-5.6-3.3,1-1.7.5.3c-.2-.7-.1-1.5.3-2.1,1-1.5,3-1.9,4.5-1,1.6.8,2.2,2.7,1.5,4.3,0,0,0,0,0,.1-.3.7-.9,1.2-1.7,1.3l.5.3-1,1.7h.1Zm-1.8-3.3c.7.5,1.6.3,2-.4,0,0,0,0,0,0,.4-.7.2-1.7-.6-2.1,0,0,0,0,0,0-.7-.5-1.6-.3-2,.4,0,0,0,0,0,0-.4.7-.2,1.7.6,2.1,0,0,0,0,0,0Z"/><circle class="cls-15" cx="60.5" cy="200.3" r="45"/><path d="m37.6,175l2.8,2.5-1.2,1.4-2.7-2.4c-.5-.4-.9-.5-1.3,0-.4.4-.3,1,0,1.4,0,0,0,0,.1,0l2.6,2.3-1.2,1.4-2.7-2.4c-.5-.4-.9-.5-1.3,0-.4.4-.3,1,0,1.4,0,0,0,0,.1,0l2.6,2.3-1.2,1.4-4.5-4.1,1.2-1.4.4.4c-.1-.6.1-1.3.6-1.7.4-.5,1.1-.7,1.7-.6-.1-.7.1-1.4.6-1.9.9-.9,2.3-1,3.2-.2,0,0,.1,0,.2.2l-.2-.2Z"/><path d="m42.8,168.9l3.3,5.2-1.6,1-.3-.5c0,.7-.5,1.3-1.1,1.6-1,.7-2.5.4-3.1-.6,0,0-.1-.2-.2-.3l-2-3.2,1.6-1,1.9,3c.3.5.9.7,1.4.4,0,0,0,0,0,0,.6-.4.8-.9.3-1.7l-1.8-2.8,1.6-1h-.1Z"/><path d="m51.1,168.2l1.3,3.5-1.7.6-1.2-3.3c-.1-.5-.6-.9-1.2-.8,0,0-.1,0-.2,0-.6.2-.9.9-.7,1.6,0,0,0,0,0,0l1.1,3.2-1.7.6-2.1-5.8,1.7-.6.2.5c.3-.6.8-1.1,1.4-1.3,1.1-.5,2.4.1,2.9,1.3,0,.1,0,.2.1.3h.1Z"/><path d="m51.8,164c-.1-.6.3-1.2.9-1.3.6-.1,1.2.3,1.3.9.1.6-.3,1.2-.9,1.3,0,0,0,0,0,0-.6.1-1.2-.3-1.3-.9Zm.5,1.6l1.8-.3,1.1,6-1.8.3-1.1-6Z"/><path d="m55.8,168c0-1.7,1.3-3.2,3-3.3,0,0,0,0,0,0,1.1,0,2.2.5,2.8,1.5l-1.6,1c-.2-.4-.7-.7-1.2-.7-.7,0-1.3.5-1.3,1.2,0,0,0,.2,0,.3,0,.8.6,1.4,1.3,1.4,0,0,0,0,0,0,.5,0,1-.3,1.2-.7l1.6.9c-.5,1-1.6,1.7-2.7,1.7-1.7.1-3.2-1.2-3.3-2.9,0,0,0-.1,0-.2v-.2Z"/><path d="m69.4,166l-1.1,6-1.8-.3v-.6c-.5.5-1.2.6-1.8.4-1.7-.4-2.7-2-2.3-3.7,0,0,0,0,0,0,.2-1.7,1.8-2.9,3.5-2.7.7,0,1.3.5,1.7,1.1v-.6c0,0,1.9.3,1.9.3h0Zm-2.4,2.7c.2-.7-.2-1.4-.9-1.6-.1,0-.2,0-.3,0-.8-.2-1.5.3-1.7,1.1,0,0,0,0,0,.1-.2.7.2,1.4.9,1.6.1,0,.2,0,.3,0,.7.2,1.5-.3,1.7-1,0,0,0-.1,0-.2Z"/><path d="m73,169.2l-.8,2c-.2.5.2.7,1,1l-.6,1.6c-2.3-.6-2.7-1.6-2.1-3.2l.8-2-.9-.4.6-1.6.9.4.4-1.1,1.9.2-.6,1.6,1.2.5-.6,1.6-1.2-.5h0Z"/><path d="m76.2,168.7l1.6.9-2.9,5.4-1.6-.9,2.9-5.4Zm.6-1.5c.3-.6.9-.8,1.5-.5.6.3.8.9.5,1.5s-.9.8-1.5.5c0,0,0,0,0,0-.5-.3-.7-.9-.5-1.5Z"/><path d="m77.5,172.8c1.1-1.4,3.1-1.7,4.5-.6,1.4,1.1,1.7,3.1.6,4.5-1.1,1.4-3.1,1.7-4.5.6-1.4-1.1-1.7-3.1-.6-4.5,0,0,0,0,0,0Zm3.7,2.8c.5-.6.4-1.5-.2-2,0,0,0,0,0,0-.6-.5-1.4-.4-1.9.2,0,0,0,0,0,.1-.5.6-.4,1.5.2,2,0,0,0,0,0,0,.6.5,1.4.4,1.9-.2,0,0,0,0,.1-.1h0Z"/><path d="m87.9,181.8l-2.9,2.4-1.2-1.4,2.7-2.2c.5-.3.6-.9.3-1.4,0,0,0,0,0-.1-.4-.5-1-.6-1.7,0l-2.6,2.1-1.2-1.4,4.7-3.9,1.2,1.4-.4.4c.7,0,1.3.3,1.7.9.8,1,.7,2.4-.3,3.2,0,0-.2.1-.2.2v-.2Z"/><path d="m89.5,189.9l-.4-.8-1.2.6-.9-1.8,1.2-.6-1.8-3.5,1.6-.8h6l1,1.8h-6l.8,1.6,1.6-.8.9,1.8-1.6.8.4.8-1.6.8h0Z"/><path d="m94.3,198.2c-2.1.6-4.3-.7-4.9-2.8,0-.1,0-.3,0-.4-.7-2.4.7-4.8,3-5.5,2.4-.7,4.8.7,5.5,3,0,.1,0,.2,0,.3.4,1.5,0,3-1.1,4.1l-1.3-1.4c.5-.6.7-1.5.5-2.3-.4-1.4-1.8-2.2-3.2-1.9-1.4.4-2.2,1.8-1.8,3.2.1,1,.9,1.7,1.8,1.9l-.5-2.2,1.7-.4.9,4.2-.7.2h.1Z"/><path class="cls-38" d="m72.3,188.3c-8.5-.2-17.8-.2-26.3,0-14.8,1.9-22,20.9-11.6,31.8,2.2,3.3-1.6,9.5,2.3,11.8,3.3,1,5.2-3.4,7.4-5.1,9.2-1,20.3.5,29.8-.5,22.1-2.9,20.7-37.2-1.6-38.2v.2Z"/><path d="m57.5,209.3v4.2h-1.8v2.7h-4.5v-2.7h-7.8v-4.2l5.3-10.9h5l-5.4,11h2.8v-3.2h4.5v3.2h1.9Z"/><path d="m76.8,205.9v1.8c0,2.4-.8,4.7-2.5,6.4-1.7,1.6-4,2.5-6.4,2.4-2.6,0-5-.9-6.9-2.7-3.6-3.6-3.7-9.5,0-13.2,1.8-1.8,4.2-2.8,6.6-2.7,1.6-.1,3.2.3,4.6,1.1,1.4.6,2.5,1.7,3.2,3l-3.9,2.2c-.4-.6-.9-1-1.6-1.3-.7-.3-1.5-.5-2.3-.5-2.6,0-4.8,2-4.9,4.7,0,0,0,.2,0,.2,0,1.3.4,2.6,1.3,3.5,1,1,2.4,1.5,3.8,1.4,1.7,0,3.3-.8,4.1-2.3h-4.3v-3.9h9.2Z"/><circle class="cls-16" cx="200.5" cy="200.3" r="45"/><path d="m185.4,172.6c1.7,2.3,1.3,5.5-1,7.3-.2.1-.3.2-.5.3-2.6,1.9-6.3,1.3-8.2-1.3,0,0,0,0,0-.1-1.8-2.7-1.1-6.4,1.7-8.1,1.6-1.1,3.6-1.3,5.4-.6l-1.1,2.2c-1-.4-2.1-.3-3,.4-1.5.9-2,2.9-1.1,4.4,0,0,0,.2.2.2,1,1.5,3,2,4.5,1,0,0,.2-.1.3-.2,1.1-.6,1.7-1.8,1.4-3l-2.5,1.7-1.2-1.9,4.7-3.1.5.8Z"/><path d="m190.3,170.8l.9,2.7c.2.7.8.5,1.8.2l.7,2.1c-2.9,1.3-4,.6-4.7-1.5l-.9-2.7-1.2.4-.7-2.2,1.2-.4-.5-1.4,2.1-1.4.7,2.1,1.6-.5.7,2.2-1.6.5h-.1Z"/><path d="m201.7,166.8l.6,8-2.4.2v-.8c-.6.7-1.5,1.1-2.4,1.1-2.3,0-4.2-2-4.1-4.3,0-2,1.5-3.7,3.5-4.1.9,0,1.8.2,2.5.8v-.8l2.3-.2h0Zm-2.1,4.2c0-1-.7-1.8-1.7-1.8-.1,0-.2,0-.3,0-1,0-1.8.9-1.8,1.9,0,0,0,.1,0,.2,0,1,.7,1.8,1.7,1.8.1,0,.2,0,.3,0,1,0,1.8-.9,1.8-1.9,0,0,0-.1,0-.2h0Z"/><path d="m212.6,172.9c-.4,2.2-2.5,3.7-4.7,3.3-.9-.2-1.7-.7-2.1-1.5l-.2.7-2.3-.5,2.5-10.9,2.3.5-.9,3.9c.7-.5,1.7-.7,2.5-.4,2.1.6,3.4,2.8,2.8,5h0Zm-2.3-.5c.3-.9-.1-1.9-1-2.2-.1,0-.2,0-.4,0-1-.3-2,.3-2.3,1.3,0,0,0,.1,0,.2-.3.9.1,1.9,1,2.2.1,0,.2,0,.4,0,1,.3,2-.3,2.3-1.3,0,0,0-.1,0-.2Z"/><path d="m225.5,172.1l-6.3,9.3-2.1-1.4,4.8-7-1.9-.7.7-2.2,3,.8,1.9,1.3h0Z"/><path class="cls-4" d="m182.8,237.3c0-.1-.2-.1-.2-.1-1.3-.4-2.2-1.7-2.2-3.1v-44.5c-.1-1.7,1.2-3.2,2.9-3.3,0,0,.1,0,.2,0h31.7c0,.2.2.2.3.2,1.2.5,1.9,1.6,1.9,2.9v3h-11.7c-.2,0-.4,0-.5.3-.5.5-1,1-1.6,1.5-1.8,1.7-4.6,1.7-6.4,0-.5-.4-1-.9-1.4-1.4-.2-.2-.5-.4-.8-.3h-10.9c-.5,0-.6.1-.6.6v37.5c0,.5.2.6.6.6h33.4v3c0,1.3-.7,2.5-1.9,3-.1,0-.3,0-.3.3h-32.5v-.2Zm14.6-3.9h-2.9c-.6,0-.9.3-.9.8s.3.8.9.8h5.8c.4,0,.9-.2,1-.6,0-.4-.2-.9-.6-1-.1,0-.2,0-.4,0h-2.9Zm3.1-44.1c-.8,0-1.5.6-1.5,1.4,0,0,0,0,0,0h0c0,.8.7,1.5,1.5,1.5,0,0,0,0,.1,0,.8,0,1.5-.7,1.5-1.5,0-.8-.6-1.5-1.4-1.5,0,0,0,0,0,0h-.1Zm6.9,44.9c0-.4-.3-.8-.7-.8-.4,0-.8.5-.8.9,0,.4.3.7.7.7,0,0,0,0,0,0,.4,0,.8-.4.8-.8h0Zm-3.8-.8c-.4,0-.7.4-.8.8,0,.4.4.8.8.8.4,0,.7-.4.8-.8,0-.4-.4-.8-.8-.8Z"/><rect class="cls-4" x="196.6" y="189" width="6.5" height="3.9"/><path class="cls-42" d="m215.3,237.3c0-.2.2-.2.3-.3,1.2-.5,2-1.7,1.9-3v-44.7c0-1.3-.7-2.4-1.9-2.9-.1,0-.3,0-.3-.2h2.2c1.7,0,3,1.3,3,3v44c0,1.9-.6,3.4-2.5,4h-2.8.1Z"/><path class="cls-38" d="m214.4,231.2h-30.3c-.5,0-.6,0-.6-.6v-37.5c0-.5.1-.6.6-.6h10.9c.3,0,1.3-.4,1.5-.2.5.5.2,1,1,2,.8,1,2.2,1.7,4,0l2-2c.1-.2,2,.2,2.2.2h8.6v38.7h0Z"/><path class="cls-36" d="m214.4,231.2v-38.7h3.1v38.7h-3.1Z"/><path class="cls-29" d="m197.4,233.5h2.8c.5,0,.9.3,1,.8,0,.5-.5.8-1,.8h-5.8c-.6,0-.9-.3-.9-.8s.3-.8.9-.8h3Z"/><path class="cls-7" d="m207.4,234.2c0,.4-.3.8-.7.8h0c-.4,0-.7-.3-.7-.7,0,0,0,0,0,0,0-.4.4-.8.8-.9.4-.1.7.4.7.8h-.1Z"/><path class="cls-7" d="m203.6,233.5c.4,0,.7.4.8.8,0,.4-.4.8-.8.8s-.8-.4-.8-.8c0-.4.4-.7.8-.8Z"/><path class="cls-26" d="m203.4,189.4h.2c.2,0,.2.1.2.3s-.1.2-.2.3c-.5.6-.9,1.2-1.4,1.8l-1.3,1.6c-.2.3-.5.4-.8.5-.4,0-.8,0-1.1-.3-.2-.1-.3-.3-.5-.5-.4-.6-.8-1.3-1.2-1.9-.2-.3-.3-.6-.5-.9h0c-.1-.2,0-.3.2-.4.9,0,1.7,0,2.6-.2.8,0,1.5,0,2.3-.2.5,0,1.1,0,1.6-.1h-.1Z"/><path class="cls-37" d="m203.2,209.8h-.6c-.4,0-.8-.2-1.2-.2-.5,0-1-.2-1.5-.3l-1.7-.3h-.3c-.2,0-.3-.2-.2-.5,0-.3.2-.6.4-.8.2-.4.4-.9.6-1.3.1-.3.3-.6.5-.8.3-.4.8-.5,1.2-.2,0,0,.2.1.2.2.2.1.3.3.4.5.3.4.6.8.8,1.3.5.7.9,1.4,1.4,2.2,0,0,0,.1.1.2,0,.2,0,.3-.3.3l.2-.3Z"/><path class="cls-37" d="m204.2,199.4h.2c.2,0,.3.1.2.3s-.1.2-.2.3c-.5.7-1,1.3-1.6,2s-1,1.2-1.5,1.7c-.2.3-.5.5-.9.6-.4,0-.8,0-1.2-.3-.2-.2-.4-.4-.5-.6-.5-.7-.9-1.4-1.4-2.1-.2-.3-.4-.7-.6-1h0c-.1-.2,0-.4.2-.4,1,0,1.9,0,2.9-.2.8,0,1.7,0,2.5-.2.6,0,1.2,0,1.8-.1h.1Z"/><path d="m198.8,222.8v2.8h-1.2v1.9h-3.1v-1.9h-5.4v-2.9l3.7-7.5h3.5l-3.7,7.5h1.9v-2.2h3.1v2.2h1.2Z"/><path d="m212,220.5v1.2c0,1.6-.6,3.2-1.7,4.4-1.2,1.1-2.8,1.8-4.4,1.7-1.7,0-3.4-.6-4.7-1.8-2.4-2.5-2.4-6.5,0-9,1.2-1.2,2.8-1.9,4.5-1.9,1.1,0,2.2.2,3.1.8.9.5,1.6,1.2,2.2,2l-2.7,1.5c-.2-.4-.6-.7-1.1-.9-.5-.2-1.1-.3-1.6-.3-1.7-.1-3.2,1.2-3.3,2.9,0,.1,0,.3,0,.4,0,.9.3,1.7.9,2.4.7.7,1.6,1.1,2.6,1,1.2,0,2.3-.6,2.8-1.6h-3v-2.7h6.4Z"/></svg>