<?xml version="1.0" encoding="UTF-8"?><svg id="Layer_1" xmlns="http://www.w3.org/2000/svg" viewBox="0 0 400 400"><defs><style>.cls-1{fill:#e1dde1;}.cls-2{fill:#fff;}.cls-3{fill:#eb917f;}.cls-4{fill:#fbe501;}.cls-5{fill:#a5c2db;}.cls-6{fill:#f9f3b1;}.cls-7{fill:#f3bd99;}.cls-8{stroke:#c000e2;}.cls-8,.cls-9{stroke-width:4px;}.cls-8,.cls-9,.cls-10{fill:none;stroke-miterlimit:10;}.cls-11{fill:#fef3d6;}.cls-12{fill:#cac3cb;}.cls-13{fill:#f4bd99;}.cls-14{fill:#fedd46;}.cls-15{fill:#f2eff2;}.cls-16{fill:#06687f;}.cls-9{stroke:#00b51e;}.cls-17{fill:#555a6e;}.cls-18{fill:#463c4b;}.cls-19{fill:#a5c3db;}.cls-20{fill:#d3e4ee;}.cls-21{fill:#debcef;}.cls-22{fill:#f1d0fe;}.cls-23{fill:#fe5f7a;}.cls-24{fill:#2489c4;}.cls-10{stroke:#231f20;stroke-width:2px;}.cls-25{fill:#625260;}.cls-26{fill:#58d4fc;}.cls-27{fill:#d6e5ef;}.cls-28{fill:#2487c3;}.cls-29{fill:#97d6e5;}.cls-30{fill:#4e3d4d;}.cls-31{fill:#7dcbe5;}.cls-32{fill:#eecf15;}.cls-33{fill:#2387c3;}.cls-34{fill:#9dd8e6;}.cls-35{fill:#e7d19a;isolation:isolate;opacity:.5;}.cls-36{fill:#2487c2;}.cls-37{fill:#0092b9;}.cls-38{fill:#fe7e92;}.cls-39{fill:#e5eff1;}.cls-40{fill:#2387c2;}.cls-41{fill:#cbc4cc;}.cls-42{fill:#a4c2db;}.cls-43{fill:#231f20;}.cls-44{fill:#9fddea;}.cls-45{fill:#fccc07;}.cls-46{fill:#067fa6;}.cls-47{fill:#fefefe;}</style></defs><line class="cls-2" x1="199.8" y1="111.9" x2="200.2" y2="144.7"/><line class="cls-10" x1="199.8" y1="111.9" x2="200.1" y2="133.9"/><polygon class="cls-43" points="192.6 131.8 200.2 144.7 207.5 131.6 192.6 131.8"/><line class="cls-2" x1="199.8" y1="288.7" x2="200.2" y2="255.9"/><line class="cls-10" x1="199.8" y1="288.7" x2="200.1" y2="266.6"/><polygon class="cls-43" points="207.5 268.9 200.3 255.9 192.6 268.7 207.5 268.9"/><circle class="cls-8" cx="200" cy="338.3" r="45"/><path d="m164.2,328.1l-.6,2.7,8.2,1.8-.5,2.4-8.2-1.8-.6,2.7-2.3-.5,1.7-7.8,2.3.5Z"/><path d="m168.6,320.4l6.9,3.3-1,2.1-.6-.3c.3.7.3,1.5-.2,2.5-.9,1.8-3.2,2.5-5.2,1.5-2.1-1-2.9-3.2-2-5.1.4-.9,1.1-1.4,1.8-1.6l-.6-.3,1-2.1h0Zm2.4,3.7c-1-.5-2,0-2.5.8-.5,1-.1,2,.9,2.5s2,0,2.5-.8c.5-1,.1-2-.9-2.5Z"/><path d="m178.9,314.3c1.7,1.6,1.8,4,.4,5.4-.7.7-1.5,1.1-2.2,1l.5.5-1.6,1.7-7.8-7.3,1.6-1.7,2.8,2.6c0-.8.2-1.6.9-2.3,1.4-1.5,3.8-1.5,5.5,0h0Zm-1.6,1.7c-.8-.8-1.9-.7-2.6,0-.7.8-.7,1.8.1,2.6s1.9.7,2.6,0c.7-.8.7-1.8-.1-2.6Z"/><path d="m176.1,307.5l1.9-1.3,6.4,9.2-1.9,1.3-6.4-9.2Z"/><path d="m188.1,311.4c.6-.2,1-.7,1.1-1.1l2.1.2c-.3,1.3-1.1,2.2-2.4,2.8-2.4,1-4.6,0-5.5-2-.9-2.1,0-4.4,2.2-5.3,2.1-.9,4.3,0,5.2,2.2,0,.3.2.6.3.9l-5,2.1c.6.6,1.3.6,2.1.3h0Zm.2-3.1c-.6-.7-1.3-.7-2-.5-.8.3-1.2,1-1.1,1.8l3-1.3h0Z"/><path d="m194.7,305.8l.5,2.7c0,.6.7.6,1.7.4l.4,2.1c-2.9.8-3.9,0-4.3-2l-.5-2.7-1.2.2-.4-2.2,1.2-.2-.3-1.4,2.1-1.1.4,2.1,1.6-.3.4,2.2-1.6.3h0Z"/><path d="m198.2,305.1l5.8.2v2.2l-5.9-.2v-2.2h.1Z"/><path d="m214,309.9c-.7,2.2-2.8,3.4-4.7,2.8-1-.3-1.6-.9-1.9-1.6l-.2.7-2.2-.7,3.2-10.2,2.2.7-1.1,3.6c.7-.4,1.5-.5,2.5-.2,1.9.6,3,2.8,2.3,5h0Zm-2.2-.7c.3-1.1-.2-2-1.2-2.3s-2,.1-2.3,1.2.2,2,1.2,2.3,2-.1,2.3-1.2Z"/><path d="m215.2,310.5c1.3-1.9,3.8-2.3,5.6-1s2.4,3.7,1.1,5.6-3.8,2.3-5.6,1c-1.9-1.3-2.4-3.7-1.1-5.6Zm4.8,3.3c.6-.9.4-1.9-.4-2.5s-1.9-.4-2.5.5-.4,1.9.4,2.5,1.9.4,2.5-.5Z"/><path d="m233.4,318.1l-8.4,6.7-1.4-1.8.6-.5c-.8,0-1.5-.4-2.2-1.2-1.3-1.6-.9-4,.9-5.4s4.2-1.2,5.4.3c.6.8.8,1.6.7,2.4l2.9-2.4,1.4,1.8h0Zm-6.8,2.5c.9-.7,1-1.8.3-2.6-.7-.8-1.7-1-2.6-.2-.9.7-1,1.8-.3,2.6.7.8,1.7,1,2.6.2Z"/><path d="m235.4,329.4l-7.9.5c-2.6.2-4-.7-4.7-2.7l2-.8c.4,1,.9,1.3,1.9,1.3l5.5-5.6,1,2.3-3.7,3.4,4.9-.5,1,2.3v-.2Z"/><path d="m229.9,331.9l4.2,3c.7.5,1.4.9,2,.8.7,0,1.1-.6,1-1.3s-.7-1.2-1.4-1.4l.9-2.2c1.7.5,2.6,1.8,2.8,3.2.3,1.9-.7,3.8-2.9,4.1-1.3.2-2.5-.3-3.6-1.2l-2-1.5.5,3.6-2.3.3-1-7.2,1.8-.2Z"/><path class="cls-25" d="m181.6,323h34.7c.3.2.7.2,1,.5v45.2c0,1.2-.5,2.1-2,2.1h-34.7c-11.6,0-.6,0-.8,0-.5-.6-.5-1.3-.5-2.1v-42.8c.1-1.4.8-2.3,2.1-2.8.1,0,.3,0,.4-.2h-.2Zm24.4,3.2h-22.4c-.9,0-1.1.2-1.1,1.1v40.7c0,.9.2,1.1,1.1,1.1h31.3c.5,0,.8-.3.8-.8v-41.3c0-.5-.3-.8-.9-.8h-8.8Z"/><path class="cls-30" d="m181.7,372.3c-.5-.3-1.1-.4-1.6-.9-.2-.2-.4-.4-.5-.6.3,0,.6,0,.8,0h34.7c1.5,0,2-.8,2-2.1v-45.2c.9.5,1.4,1.3,1.5,2.3v42.9c0,1.9-.7,2.9-2.5,3.5h-34.4v.2Z"/><path class="cls-23" d="m202.2,369.1h-18.7c-.9,0-1.1-.2-1.1-1.1v-40.7c0-.9.2-1.1,1.1-1.1h2.8c-.2.7-.4,1.4-.5,2.1v.2c-.2,0-.3,0-.4,0-1.1.8-1.6,1.9-1.6,3.2v31.7c0,2.1,1.7,3.9,3.9,3.9h14.6c0,.6-.2,1.1-.3,1.6h.2Z"/><path class="cls-21" d="m206,326.2h8.8c.5,0,.8.3.9.8v41.2c0,.5-.3.8-.8.8h-4v-1.6h0c.2,0,.4,0,.6,0,1.6-.6,2.6-2,2.6-3.7v-31.8c0-2.2-1.7-4-4-4h-5.2c.3-.6.7-1,1-1.5h0Z"/><path class="cls-11" d="m206,326.2c-.4.5-.8,1-1,1.5h-16c-5.3,0-2.1,0-3.1.5,0-.7.3-1.4.5-2.1h19.6Z"/><path class="cls-11" d="m210.9,367.5v1.6h-8.6c0-.5.3-1.1.3-1.6h8.4,0Z"/><path class="cls-47" d="m210.9,367.5h-8.4c.6-4.6-.3-8.8-2.5-12.8-1.5-2.7-3.6-5.1-5.9-7.2-2-1.8-3.8-3.8-5.3-6-2.1-3.3-3.4-6.8-3.3-10.7,0-.7,0-1.5.2-2.2v-.2c1.1-.5,2.1-.5,3.2-.5h15.9c-.3.7-.7,1.3-1,2.1-1.2,2.8-1.5,5.8-.8,8.8.7,2.8,2.2,5.2,4.1,7.4,1.2,1.4,2.7,2.5,3.9,4,1.8,2.4,2,5.1,0,7.4-1,1.1-1.3,2.4-.9,3.8.5,2,.9,4.1.8,6.2h0Z"/><path class="cls-38" d="m185.7,328.5c0,.7-.2,1.5-.2,2.2,0,3.9,1.1,7.5,3.3,10.7,1.5,2.3,3.3,4.2,5.3,6,2.3,2.1,4.3,4.5,5.9,7.2,2.3,4,3.2,8.3,2.5,12.8h-14.6c-2.1,0-3.9-1.7-3.9-3.9v-31.7c0-1.3.5-2.4,1.6-3.2,0,0,.2,0,.3,0h-.2Z"/><path class="cls-22" d="m210.9,367.4c0-2.1-.3-4.1-.8-6.2-.4-1.4,0-2.7.9-3.8,2.1-2.3,1.9-5.1,0-7.4-1.1-1.5-2.6-2.6-3.9-4-1.9-2.1-3.4-4.5-4.1-7.4-.7-3-.4-5.9.8-8.8.3-.7.7-1.4,1-2.1h5.3c2.2,0,4,1.7,4,4v31.8c0,1.7-1,3.1-2.6,3.7-.2,0-.4,0-.6,0h0Z"/><path d="m189.6,359.9v-4.8l8.6-9.1c.9-.9,1.5-1.7,1.9-2.3s.6-1.2.6-1.7-.2-1.2-.6-1.6-1-.6-1.7-.6c-1.5,0-2.7.9-3.5,2.7l-5.7-3.2c.8-1.9,2.1-3.4,3.7-4.4s3.4-1.5,5.4-1.5,4.6.7,6.3,2.2,2.6,3.5,2.6,6-.4,2.9-1.1,4.2c-.7,1.3-1.7,2.6-3.1,4l-3.5,3.7h8.1v6.4h-18.1,0Z"/><circle class="cls-8" cx="200" cy="61.7" r="45"/><path d="m169.9,58.6v2c-.1,0-5.1-.3-5.1-.3l3.5,2.4v.2l-3.8,2,5,.3v2c-.1,0-8.7-.5-8.7-.5v-2c.1,0,4.1-2.1,4.1-2.1l-3.7-2.5v-2c.1,0,8.7.5,8.7.5Z"/><path d="m169.9,54.3c.2-.5.1-.9,0-1.3l1.3-1.1c.6.8.7,1.8.3,2.9-.7,2-2.4,2.8-4.2,2.2-1.7-.6-2.6-2.3-2-4.1.6-1.7,2.3-2.5,4.1-1.9.2,0,.5.2.7.3l-1.4,4.1c.7,0,1.1-.5,1.3-1.1h-.1Zm-1.8-1.8c-.7,0-1.2.4-1.3.9-.2.7,0,1.2.5,1.6l.8-2.5Z"/><path d="m168.5,41.7l7.3,4.5-1,1.6-.5-.3c.2.6.1,1.2-.3,1.9-.8,1.4-2.7,1.8-4.3.8-1.6-1-2.1-2.8-1.2-4.2.4-.7,1-1.1,1.6-1.2l-2.6-1.6,1-1.6h0Zm3.7,4.5c-.8-.5-1.6-.3-2,.5-.4.7-.3,1.5.5,2s1.6.3,2-.5.3-1.5-.5-2Z"/><path d="m170.6,40.5c-.5-.4-.5-1.1-.1-1.6s1.1-.5,1.6-.1.5,1.1.1,1.6-1.1.5-1.6.1Zm1.4.9l1.2-1.4,4.6,4-1.2,1.4-4.6-4Z"/><path d="m179.3,34.5l3.9,4.7-1.4,1.2-.4-.4c0,.6-.3,1.2-.9,1.7-1.2,1-3.2.8-4.3-.6s-1-3.3.2-4.4c.6-.5,1.3-.7,1.9-.6l-.4-.4,1.4-1.2Zm.5,3.5c-.6-.7-1.4-.8-2.1-.2-.7.5-.8,1.4-.2,2.1.6.7,1.4.8,2.1.2.7-.5.8-1.4.2-2.1Z"/><path d="m182,34.7l4.1-2.1.8,1.6-4.1,2.1-.8-1.6Z"/><path d="m197.5,34.2l-1.9.4-1.1-4.9-1.4,4h-.2l-3-3,1.1,4.9-1.9.4-1.9-8.4,1.9-.4,3.1,3.2,1.4-4.2,1.9-.4,1.9,8.4h.1Z"/><path d="m204.4,28.4l-.3,6.1h-1.8v-.7c-.3.4-1,.7-1.8.7-1.2,0-2.3-1-2.2-2.6l.2-3.8h1.8v3.6c0,.8.3,1.1.9,1.2.7,0,1.2-.3,1.2-1.2v-3.3c0,0,2,0,2,0Z"/><path d="m207,26l1.8.4-1.8,8.8-1.8-.4,1.8-8.8Z"/><path d="m211.7,32l-.7,2.1c-.2.5.2.7,1,.9l-.5,1.6c-2.4-.5-2.8-1.4-2.2-3.1l.7-2.1-.9-.3.6-1.7.9.3.4-1.1h1.9l-.5,1.7,1.2.4-.6,1.7-1.2-.4h-.1Z"/><path d="m214.9,31.4l1.7.8-2.6,5.5-1.7-.8,2.6-5.5Zm.5-1.6c.3-.5.9-.8,1.5-.5.5.3.8.9.5,1.5-.3.5-.9.8-1.5.5-.5-.3-.8-.9-.5-1.5Z"/><path d="m219,37.1c1.2-1.4,3.1-1.6,4.6-.4.9.8,1.3,1.9,1.1,3l-1.8-.3c0-.5,0-.9-.5-1.3-.6-.5-1.4-.4-2,.2-.5.7-.5,1.5.2,2,.4.3.9.4,1.4.2l.7,1.7c-1,.4-2.2.2-3.1-.5-1.4-1.2-1.6-3.2-.4-4.6h-.2Z"/><path d="m230.6,44.6l-4.8,3.8-1.1-1.4.5-.4c-.6,0-1.2-.3-1.7-1-1-1.3-.7-3.2.7-4.3,1.4-1.1,3.4-1,4.4.3.5.6.7,1.3.5,1.9l.5-.4,1.1,1.4h0Zm-3.5.5c.7-.6.8-1.4.3-2.1-.5-.7-1.4-.8-2.1-.2-.7.6-.8,1.4-.3,2.1s1.4.8,2.1.2Z"/><path d="m233.3,56.1l-3.5,1.4-.7-1.7,3.3-1.4c.6-.2.8-.7.6-1.2-.2-.6-.8-.7-1.4-.4l-3.2,1.3-.7-1.7,3.3-1.4c.6-.2.8-.7.6-1.2-.2-.6-.8-.7-1.4-.4l-3.2,1.3-.7-1.7,5.7-2.3.7,1.7-.5.2c.5,0,1,.5,1.3,1.2s.2,1.3,0,1.8c.6,0,1.1.5,1.4,1.3.5,1.3,0,2.5-1.5,3.1h0Z"/><path d="m231.6,61.2c0,.5.3.9.6,1.1l-.7,1.6c-.9-.5-1.4-1.3-1.6-2.5-.2-2.1,1-3.5,2.8-3.8,1.8-.2,3.4.9,3.6,2.9.2,1.8-1,3.3-2.8,3.5h-.7l-.5-4.3c-.6.3-.8.9-.7,1.6h0Zm2.3.9c.7-.3.9-.9.8-1.4,0-.7-.5-1.1-1.1-1.2l.3,2.6Z"/><path d="m236.4,69h-2.1c.2-.9,0-2-1.3-2l-2.8-.2v-1.8c0,0,6.2.4,6.2.4v1.8h-1.2c.8.3,1.1,1.1,1.1,1.9h.1Z"/><path d="m234.6,76.6l-5.9-1.5.4-1.8h.6c-.4-.4-.5-1-.3-1.8.4-1.6,2.1-2.5,3.8-2.1,1.8.4,2.8,2.1,2.4,3.6-.2.8-.6,1.3-1.2,1.6h.6c0,0-.4,1.9-.4,1.9h0Zm-2.5-2.5c.9.2,1.6-.2,1.8-1.1.2-.8-.2-1.6-1.1-1.8s-1.6.2-1.8,1.1c-.2.8.2,1.6,1.1,1.8Z"/><path class="cls-37" d="m208.5,93.9h-18.1c-.4-1.5-1.2-2.8-2.2-3.9-.3-.3-.3-.4,0-.7,1.3-1.3,2.6-2.5,3.8-3.8,1.2-1.2,1.5-2.9.9-4.4,0-.6,0-1.3,0-1.9-.6-2.3-2.9-3.7-5.1-3.1-.8.2-1.4.6-2,1.1-2.3,2.2-4.5,4.5-6.8,6.8-.4.4-.9.9-1.4,1.3v-35.1c0-1.5.9-2.9,2.3-3.4.4,0,.8-.2,1.3-.2h35.8c2.2,0,3.6,1.4,3.6,3.6v26.5h-8.4c-1.4,0-2.8.8-3.3,2.1-.7,1.6,0,3.6,1.4,4.2h0c.2.5.6.4.8.7-1.8.4-3,2.2-2.5,4.1.2.9.8,1.7,1.6,2.2h0c.2.4.6.4.8.6-1.6.4-2.6,1.8-2.6,3.4h0Zm-6-32.6v-8.5c0-1-.7-1.9-1.7-1.9h-17c-1.3,0-2.1.7-2.1,2v16.7c0,1,.7,1.8,1.7,1.9h17.2c.9,0,1.7-.6,1.8-1.5v-8.8h.1Zm7.7-5.2h3.1q1.3,0,1.3-1.3c0-.4,0-.5-.5-.5h-6.9q-1.3,0-1.3,1.3c0,1.3,0,.5.5.4h3.8Zm3.1-5.2h-2.7q-1.2,0-1.2,1.3c0,.4.2.5.5.5h5.9q1.3,0,1.3-1.4c0-.3,0-.4-.4-.4h-3.4,0Zm-7.4.8c0,1-.2.9.8.9s.9-.3.9-.9q0-.9-.9-.9c-.9,0-.8,0-.8.8h0Z"/><path class="cls-13" d="m177.6,85.3c.5-.4.9-.9,1.4-1.3,2.3-2.3,4.5-4.5,6.8-6.8,1.6-1.7,4.3-1.7,6,0,.6.5.9,1.2,1.1,2,0,.6.2,1.3,0,1.9-.3.9-.8,1.8-1.5,2.5-2,1.9-3.9,3.9-5.8,5.8-.3.3-.3.4,0,.7,1,1.1,1.8,2.5,2.2,3.9h-13.2c-.2,0-.4,0-.4-.2,0-1.3-.1-2.5.2-3.7.3-1.2.9-2.3,1.7-3.1l1.5-1.5v-.2Z"/><path class="cls-7" d="m210.2,83.1c-1.4-.6-2.1-2.7-1.4-4.2.5-1.3,1.9-2.2,3.3-2.1h8.4c1.9.2,3,1.1,3.4,2.8-.2,0-.2,0-.2.2-.4.9-1.1,1.6-2,1.9-.6.2-1.2.3-1.8.3h-8.4c-1,0-1.2,0-1.3,1.1Z"/><path class="cls-13" d="m210.2,90c-1.6-.9-2.2-3-1.3-4.6.5-.8,1.3-1.4,2.2-1.6.4,0,.7,0,1.1-.2h8.8c.7.2,1.4.6,1.9,1,.5.5.8,1.1,1,1.8,0,0-.2,0-.2.2-.7,1.7-2.1,2.2-3.7,2.2h-8.6c-1,0-1.2.2-1.2,1.2Z"/><path class="cls-13" d="m208.5,93.9c0-1.6,1.1-3,2.6-3.3.2,0,.5,0,.7,0,3.1,0,6.3,0,9.4,0,0,.2.2.2.3.2,1.2.4,2.1,1.3,2.4,2.6.2.7,0,.8-.6.8h-14.8v-.2Z"/><path class="cls-46" d="m187.8,93.9c-.4-1.5-1.1-2.8-2.2-3.9-.3-.3-.3-.4,0-.7,2-1.9,3.9-3.9,5.8-5.8.7-.7,1.2-1.5,1.5-2.5.6,1.5.3,3.3-.9,4.4-1.3,1.3-2.6,2.6-3.8,3.8-.3.3-.3.4,0,.7,1,1.1,1.8,2.5,2.2,3.9h-2.6Z"/><path class="cls-3" d="m221.2,90.4c-3.1.2-6.3,0-9.4,0s-.5,0-.7,0c-.3-.2-.6-.2-.8-.5h0c0-1.1.2-1.3,1.2-1.3h8.6c1.7,0,3-.5,3.7-2.2,0,0,0-.2.2-.2.2,2-.7,3.4-2.4,4h-.4Z"/><path class="cls-3" d="m221,83.6h-8.8c-.4,0-.7,0-1.1.2-.2-.2-.6-.2-.8-.6h0c0-1.1.2-1.3,1.3-1.3h8.4c.6,0,1.2,0,1.8-.3.9-.3,1.6-1,2-1.9,0,0,0-.2.2-.2.4,1.8-.7,3.5-2.5,4h-.4Z"/><path class="cls-16" d="m202.5,61.3v8.5c0,.9-.6,1.7-1.5,1.8h-17.2c-1,0-1.8-.7-1.9-1.7v-17c0-1.3.7-2,2.1-2h16.7c1,0,1.9.6,1.9,1.6v8.8h-.1Zm-11.2,4.3c0-1.9-1.5-3.4-3.4-3.4s-3.4,1.5-3.4,3.4,1.5,3.4,3.4,3.4h0c1.9,0,3.4-1.5,3.4-3.4Zm0-8.6c0-1.9-1.5-3.4-3.4-3.4s-3.4,1.5-3.4,3.4,1.5,3.4,3.4,3.4,3.4-1.5,3.5-3.3h0Zm5.1,3.4c1.9,0,3.4-1.5,3.4-3.4s-1.5-3.4-3.4-3.4-3.4,1.5-3.4,3.4h0c0,1.9,1.5,3.4,3.4,3.4h0Zm2.6,5.2v-1.6c0-.5-.3-.9-.7-1h-3.5c-.4,0-.9.3-.9.7v3.5c0,.5.3.9.8.9h3.5c.5,0,.9-.3.9-.8h0v-1.7h0Z"/><path class="cls-29" d="m210.2,56.1h-3.8c-.3,0-.5,0-.5-.4,0-.9.4-1.3,1.3-1.3h6.9c.4,0,.5,0,.5.5,0,.9-.4,1.3-1.3,1.3h-3.1Z"/><path class="cls-34" d="m213.2,50.9h3.4c.3,0,.4,0,.4.4q0,1.4-1.3,1.4h-5.9c-.4,0-.5,0-.5-.5,0-.9.4-1.3,1.2-1.3h2.7Z"/><path class="cls-34" d="m205.9,51.8c0-.5.3-.8.8-.8s.8.3.9.9q0,.9-.9.9c-1,0-.8,0-.8-.9h0Z"/><path class="cls-7" d="m210.2,83.1h0c0,0,0,0,0,0Z"/><path class="cls-31" d="m191.3,65.6c0,1.9-1.6,3.4-3.5,3.4s-3.4-1.6-3.4-3.5,1.6-3.4,3.4-3.4,3.4,1.6,3.4,3.5h0Zm-5.1-.5v.4c0,.8.5,1.4,1.2,1.7.9.3,1.9-.2,2.2-1.1.2-.5,0-1.1-.2-1.5-.4-.5-1.1-.8-1.7-.6-1.1,0-1.4.3-1.4,1.2h0Z"/><path class="cls-31" d="m191.3,57c0,1.9-1.5,3.4-3.4,3.4s-3.4-1.5-3.4-3.4,1.5-3.4,3.4-3.4h0c1.9,0,3.4,1.5,3.4,3.4h0Zm-5-.3c-.2.6,0,1.3.6,1.7s1.4.4,2,0c.5-.4.8-1,.7-1.7,0-.9-.9-1.5-1.8-1.4h-.2c-.5-.2-1.1,0-1.3.6v.7h0Z"/><path class="cls-31" d="m196.4,60.4c-1.9,0-3.4-1.6-3.4-3.5s1.6-3.4,3.5-3.4,3.4,1.6,3.4,3.4-1.6,3.4-3.5,3.4h0Zm-1.6-3.7c-.3.4,0,.8.2,1.2.4.6,1.1,1,1.8.8.7,0,1.2-.7,1.3-1.3.2-.8-.2-1.5-.9-1.9-.4-.2-.8-.3-1.3-.2-.9,0-1.4.6-1.2,1.4h.1Z"/><path class="cls-4" d="m199,65.6v1.7c0,.5-.3.9-.8.9h-3.4c-.5,0-.9-.3-.9-.8v-3.5c0-.4.3-.9.7-.9h3.5c.5,0,.9.3.9.8v.2c0,.5,0,1.1,0,1.6Zm-3-.4h1.6c.3,0,.5,0,.5-.5s-.3-.3-.5-.3h-1.3c0-.3-.3-.4-.5-.5-.4,0-.8.3-1,.7-.2.2,0,.6,0,.8.4.3.7,0,1,0h.1Zm.4,1.7h1.3c.2,0,.4-.2.4-.4h0c0-.3-.2-.4-.4-.4h-2.5c-.2,0-.4,0-.4.3h0c0,.2.2.4.4.4h1.3,0Z"/><path class="cls-44" d="m187.5,63.9c.6-.2,1.3,0,1.7.6.6.8.4,1.9-.4,2.4-.4.3-1,.4-1.5.2-.7-.3-1.2-.9-1.2-1.7v-.4c.2.3.5.4.9.3,0,.8.5,1.2,1.1,1,.4-.2.7-.6.5-1.1,0-.4-.6-.7-1-.6,0-.3,0-.6,0-.8h0Z"/><path class="cls-39" d="m187.5,63.9c.2.2.2.5,0,.8,0,.3-.4.5-.6.7-.3,0-.7,0-.9-.3,0-.9.3-1.2,1.4-1.2Z"/><path class="cls-44" d="m187.6,55.4c.9-.2,1.7.3,2,1.2v.2c0,.6-.2,1.3-.7,1.7-.6.4-1.4.4-2,0-.5-.4-.8-1.1-.6-1.7.2.2.5.2.8,0,0,.8.5,1.2,1.1,1,.4,0,.6-.5.6-.9s-.4-.7-1.1-.7c0-.3,0-.6,0-.8h0Z"/><path class="cls-39" d="m187.1,56.8c-.3,0-.6,0-.8,0-.2-.5,0-1.1.6-1.3h.7c.2.2.2.5,0,.8-.2.2-.4.5-.6.6Z"/><path class="cls-44" d="m196,55.3c.4,0,.9,0,1.3.2.7.4,1,1.1.9,1.9-.2.6-.7,1.1-1.3,1.3-.7,0-1.4-.2-1.8-.8-.2-.4-.4-.7-.2-1.2.2,0,.5.2.8.2,0,.4,0,.8.6.9.4,0,.9,0,1-.4.3-.6,0-1.1-1-1.2,0-.3,0-.7-.3-.9Z"/><path class="cls-39" d="m196,55.3c.3.2.4.6.3.9-.2.3-.4.5-.7.7-.3,0-.5,0-.8-.2-.3-.8.3-1.4,1.2-1.4Z"/><path class="cls-32" d="m196.4,66.8h-1.3c-.2,0-.4,0-.4-.3h0c0-.2,0-.4.3-.4h2.5c.2,0,.4,0,.4.4s0,.4-.4.4h-1.3.2Z"/><path class="cls-6" d="m196,65.1h0c-.3.2-.6.4-1,0-.2-.2-.3-.5,0-.8.2-.4.5-.7,1-.7s.5.2.5.5,0,.6-.3.8h-.1Z"/><path class="cls-32" d="m196,65.1c.2-.2.3-.5.3-.8h1.3c.2,0,.5,0,.5.3s-.2.5-.5.5h-1.6Z"/><path class="cls-31" d="m187,65.4c.2-.2.5-.4.6-.7.4,0,.9,0,1,.6.2.4,0,.9-.5,1.1-.6.2-1.1-.2-1.1-1Z"/><path class="cls-31" d="m187.1,56.8l.6-.6c.6,0,1,.2,1.1.7,0,.4-.2.8-.6.9-.6.2-1.1-.3-1.1-1Z"/><path class="cls-31" d="m195.6,56.8c.3-.2.5-.4.7-.7.8,0,1.2.5,1,1.2-.2.4-.6.6-1,.4-.5,0-.6-.5-.6-.9h-.1Z"/><line class="cls-2" x1="113.6" y1="200.5" x2="146.4" y2="200"/><line class="cls-10" x1="113.6" y1="200.5" x2="135.6" y2="200.2"/><polygon class="cls-43" points="133.5 207.7 146.4 200 133.3 192.7 133.5 207.7"/><line class="cls-2" x1="286.4" y1="200.5" x2="253.6" y2="200"/><line class="cls-10" x1="286.4" y1="200.5" x2="264.4" y2="200.2"/><polygon class="cls-43" points="266.7 192.7 253.6 200 266.5 207.7 266.7 192.7"/><circle class="cls-9" cx="200" cy="200.3" r="45"/><path d="m185.3,171.8c1.8,2.7.9,5.5-1.5,7.2-2.8,1.8-6.1,1.1-7.7-1.5-1.7-2.6-1-5.9,1.6-7.6,1.7-1.1,3.6-1.2,5.2-.5l-1.1,2.1c-.7-.3-1.8-.3-2.8.4-1.5,1-1.9,2.8-.9,4.3,1,1.5,2.7,1.9,4.5.8,1.2-.8,1.6-1.8,1.4-2.8l-2.4,1.5-1.1-1.8,4.4-2.9.5.8h-.1Z"/><path d="m189.8,170.1l.8,2.5c.2.6.7.5,1.7.1l.6,1.9c-2.7,1.2-3.8.6-4.4-1.4l-.8-2.5-1.1.4-.7-2.1,1.1-.4-.4-1.4,1.9-1.3.6,2,1.5-.5.7,2.1-1.5.5h0Z"/><path d="m200.4,166.3l.7,7.5-2.2.2v-.7c-.5.6-1.2,1-2.2,1.1-2,.2-3.7-1.4-3.9-3.6s1.3-4.1,3.2-4.3c1,0,1.8.2,2.3.7v-.7l2.2-.2h0Zm-1.9,3.9c0-1.1-.9-1.8-1.9-1.7-1,0-1.7.9-1.6,2,0,1.1.9,1.8,1.9,1.7,1,0,1.7-.9,1.6-2Z"/><path d="m210.7,171.7c-.4,2.2-2.4,3.6-4.3,3.2-1-.2-1.6-.7-2-1.3v.7c0,0-2.3-.4-2.3-.4l2-10.3,2.2.4-.7,3.6c.6-.5,1.4-.7,2.4-.5,1.9.4,3.2,2.4,2.8,4.6h-.1Zm-2.2-.4c.2-1.1-.4-1.9-1.4-2.1s-1.9.3-2.1,1.5.4,1.9,1.4,2.1,1.9-.3,2.1-1.5Z"/><path d="m221.4,178.1c-1.3,1.9-3.4,2-5.1.9-1.3-.9-2.2-2.2-1.9-3.9h2.4c-.2.8,0,1.4.7,1.9.8.5,1.5.3,1.8-.2.4-.5.3-1.2-.6-1.8l-.4-.3v-1.6l2.9-1-3.2-2.1,1.2-1.9,5.7,3.7-1.1,1.6-2.8.9c.8,1.1,1.1,2.5.3,3.7h0Z"/><rect class="cls-1" x="176" y="196.3" width="51" height="35" rx="2.5" ry="2.5"/><path class="cls-14" d="m213,226c-1,0-1.9,0-2.9-.3-3-.5-5.8-1.2-8.5-2.4-3.2-1.4-6-3.2-8.4-5.6-4-3.8-6.5-8.6-7.1-13.7h0c.6,5.1,3.1,9.9,7.1,13.7,2.4,2.3,5.2,4.1,8.4,5.6,2.7,1.2,5.6,1.9,8.5,2.4.9,0,1.9.2,2.9.3,4.3,0,8.6,0,12.9,0h0v-27.1c0-1.3-.6-1.8-2.2-1.8h-44.4c-1.1,0-2,.8-2,1.8v12.3c0,.2,0,.3.4.3,1.2,0,2,.8,2.1,1.8.1,1.4-.8,2-1.9,2.3-.5,0-.6.2-.6.6v12.1c0,.9,1,1.6,1.9,1.6h44.7c1,0,1.9-.7,1.9-1.6v-2.1h-12.9v-.2Zm-26.9-22c0-.8,0-1.6,0-2.4,0,.8,0,1.6,0,2.4Z"/><path class="cls-15" d="m180.9,185.3h34.3v2.2h-34.3v-2.2Z"/><path class="cls-1" d="m180.9,187.5h34.3v2.1h-34.3v-2.1Z"/><path class="cls-1" d="m215.2,187.5v-2.2h4.3c.4,0,.8,0,1.1.5.2.5,0,1.1,0,1.7h-5.5Z"/><path class="cls-12" d="m215.2,187.5h5.4v1.6c-.2.4-.7.6-1.1.5h-4.3v-2.1Z"/><path class="cls-15" d="m220.6,189.1v-1.6c0-.6,0-1.1,0-1.7.7,0,1.5,0,2.2,0,.8.2,1.3.9,1.2,1.7,0,.8-.7,1.4-1.5,1.4h-1.8,0Z"/><path class="cls-41" d="m180.9,187.5v2.1c-1.4.3-2.4-.5-3.5-1.1-.3-.2-.6-.4-1-.6s-.4-.5,0-.7c.4-.3.8-.6,1.3-.8v.2c.9.6,1.9,1.2,3,1h.2Z"/><path class="cls-1" d="m180.9,187.5c-1.2.2-2.1-.3-3-1v-.2c.9-.8,1.9-1.3,3.1-1.1v2.2h-.1Z"/><path d="m204.5,213.3c-.2,0-.4,0-.7,0-.5,0-1-.2-1.5-.3-.6,0-1.2-.2-1.8-.4-.7,0-1.4-.3-2.1-.4h-.3c-.3,0-.3-.3-.2-.6s.3-.7.4-1c.2-.5.5-1.1.8-1.6.2-.4.4-.7.6-1,.4-.6,1.2-.7,1.8,0,.2.2.4.4.5.7.4.5.7,1.1,1,1.6.6.9,1.1,1.8,1.7,2.6,0,0,0,.2,0,.3,0,.2,0,.4-.3.4h0Z"/><path d="m205.7,200.6h.2c.2,0,.3.2.2.4,0,0-.2.3-.3.4-.6.8-1.3,1.6-1.9,2.4-.6.7-1.2,1.4-1.8,2.1-.3.3-.7.6-1.1.7-.5,0-1,0-1.5-.3-.3-.2-.4-.5-.6-.7-.6-.9-1.1-1.7-1.7-2.6-.2-.4-.5-.8-.7-1.2h0c0-.3,0-.5.3-.5,1.2,0,2.3-.2,3.5-.3,1,0,2.1-.2,3.1-.2s1.5,0,2.2,0h0Z"/><path d="m196.8,221.1c.9,0,1.7.3,2.3.8s.9,1.3.9,2.3-.3,1.8-1,2.4-1.5.9-2.5.9-1.6-.2-2.2-.5c-.6-.4-1.1-.9-1.3-1.6l2.1-1.2c.2.7.7,1,1.4,1s.6,0,.8-.2.3-.4.3-.6,0-.5-.3-.7-.4-.2-.8-.2h-3.1l.4-5.6h5.6v2.3h-3.4v1h.8Z"/><path d="m210.6,221.8v1c0,1.4-.4,2.5-1.3,3.4-.9.9-2,1.3-3.4,1.3s-2.7-.5-3.7-1.4c-1-1-1.4-2.1-1.4-3.5s.5-2.6,1.4-3.5,2.1-1.4,3.5-1.4,1.7.2,2.4.6,1.3.9,1.7,1.6l-2.1,1.2c-.2-.3-.5-.5-.8-.7-.4-.2-.8-.3-1.2-.3-.8,0-1.4.2-1.9.7s-.7,1.1-.7,1.9.2,1.4.7,1.9,1.1.8,2,.8,1.8-.4,2.2-1.3h-2.3v-2.1h4.8v-.2Z"/><path class="cls-35" d="m192.7,197.2h32c1.3,0,1.8.5,1.8,1.8v27.1h-10.9c-.8,0-1.6,0-2.4-.3-2.5-.5-4.9-1.2-7.2-2.4-2.7-1.4-5.1-3.2-7.1-5.6-3.4-3.8-5.5-8.6-6-13.7,0-1.3,0-2.7,0-4v-2.8h0Z"/><circle class="cls-8" cx="60" cy="200.3" r="45"/><path d="m24.9,197.8c-2.6-.5-4.3-2.9-3.7-5.6.3-1.6,1.4-2.9,2.8-3.4l.7,2c-.8.3-1.3.9-1.5,1.9-.3,1.6.5,2.8,2.1,3.1,1.6.3,2.9-.5,3.2-2.1.2-.9,0-1.8-.7-2.3l1.4-1.6c1.1,1,1.6,2.6,1.3,4.2-.5,2.7-2.9,4.2-5.6,3.7h0Z"/><path d="m28.3,188.7c-1.7-.9-2.4-2.9-1.6-4.6.8-1.7,2.9-2.4,4.6-1.6,1.7.9,2.4,2.9,1.6,4.6-.8,1.7-2.9,2.4-4.6,1.6Zm2.2-4.4c-.8-.4-1.7,0-2,.7s-.1,1.6.7,2c.8.4,1.7,0,2-.7.4-.8.1-1.6-.7-2Z"/><path d="m38,173.5l2.9,2.7-1.3,1.4-2.8-2.6c-.5-.4-1-.5-1.4,0s-.4,1.1.2,1.6l2.7,2.5-1.3,1.4-2.8-2.6c-.5-.4-1-.5-1.4,0s-.4,1.1.2,1.6l2.7,2.5-1.3,1.4-4.8-4.4,1.3-1.4.4.4c-.1-.5,0-1.2.6-1.8.5-.6,1.1-.8,1.8-.7-.1-.6,0-1.3.6-2,1-1.1,2.5-1.1,3.7,0Z"/><path d="m43.6,167.2l3.4,5.6-1.7,1-.3-.5c0,.6-.4,1.2-1.2,1.6-1.1.7-2.6.5-3.5-1l-2.1-3.4,1.7-1,1.9,3.2c.4.7,1,.8,1.6.4s.8-1,.3-1.8l-1.8-3,1.7-1h0Z"/><path d="m52.5,166.6l1.2,3.8-1.9.6-1.1-3.5c-.2-.8-.8-1-1.4-.8-.7.2-1,.8-.7,1.6l1.1,3.4-1.9.6-2-6.2,1.9-.6.2.6c.2-.6.7-1.1,1.5-1.3,1.2-.4,2.6.2,3.1,1.8Z"/><path d="m53.4,162.3c0-.6.4-1.2,1-1.3.6,0,1.2.4,1.3,1,0,.6-.4,1.2-1,1.3-.6,0-1.2-.4-1.3-1Zm.4,1.7l1.9-.3.9,6.4-1.9.3-.9-6.4Z"/><path d="m57.5,166.7c0-1.9,1.5-3.4,3.5-3.4s2.4.7,2.9,1.7l-1.7,1c-.2-.5-.7-.7-1.2-.8-.8,0-1.5.6-1.5,1.5s.6,1.5,1.4,1.5,1.1-.3,1.3-.7l1.7,1c-.6,1-1.7,1.6-3,1.6-2,0-3.4-1.6-3.4-3.5h0Z"/><path d="m72,165.3l-1.6,6.3-1.9-.5v-.6c-.4.4-1.1.5-1.9.3-1.7-.4-2.7-2.2-2.2-4.1s2.2-3,3.8-2.6,1.4.6,1.7,1.2v-.6c0,0,2,.5,2,.5h.1Zm-2.7,2.7c.2-.9-.3-1.7-1.1-1.9-.9-.2-1.6.2-1.9,1.2-.2.9.3,1.7,1.1,1.9.9.2,1.6-.2,1.9-1.2Z"/><path d="m75.6,169l-1,2.1c-.2.5.2.8,1,1.1l-.8,1.6c-2.4-.9-2.8-1.9-2-3.5l1-2.1-.9-.4.8-1.7.9.4.5-1.1,2,.3-.8,1.6,1.2.6-.8,1.7-1.2-.6h.1Z"/><path d="m79,168.7l1.6,1-3.5,5.5-1.6-1,3.5-5.5Zm.8-1.6c.3-.5,1.1-.7,1.6-.4.5.3.7,1.1.4,1.6s-1.1.7-1.6.4c-.5-.3-.7-1.1-.4-1.6Z"/><path d="m80.1,173.2c1.3-1.4,3.4-1.5,4.9-.2,1.4,1.3,1.5,3.4.2,4.9-1.3,1.4-3.4,1.5-4.9.2-1.4-1.3-1.5-3.4-.2-4.9Zm3.7,3.3c.6-.7.6-1.6,0-2.1-.6-.6-1.5-.6-2.1.1s-.6,1.6,0,2.1,1.5.6,2.1-.1Z"/><path d="m90.2,183.6l-3.3,2.2-1.1-1.6,3.1-2.1c.7-.5.7-1.1.3-1.6-.4-.6-1-.8-1.8-.2l-2.9,2-1.1-1.6,5.4-3.7,1.1,1.6-.5.3c.6,0,1.2.4,1.7,1.1.7,1.1.6,2.5-.9,3.5h0Z"/><path d="m92.1,191.3c-1.9.7-3.4-.3-4-2-.5-1.3-.4-2.7.6-3.7l1.6,1.3c-.5.4-.7.9-.4,1.7.3.8.9,1,1.4.8s.8-.7.5-1.5l-1-2.7,5-1.6,1.9,4.9-1.8.7-1.2-3.1-1.2.4.3.7c.6,1.6.2,3.3-1.7,4h0Z"/><path d="m94.9,201.4c-2.8.3-4.6-1.5-4.9-4-.3-2.8,1.6-5.1,4.2-5.4,2.6-.3,4.9,1.6,5.2,4.3.2,1.7-.5,3.3-1.7,4.2l-1.2-1.7c.6-.4.9-1.3.8-2.3-.2-1.5-1.4-2.5-3-2.4-1.5.2-2.6,1.4-2.4,3.1,0,1.2.7,1.9,1.6,2.2l-.3-2.4,1.8-.2.5,4.5h-.8.2Z"/><path class="cls-14" d="m71.9,187.4c-8.5-.2-17.8-.2-26.3,0-14.8,1.9-22,20.9-11.6,31.8,2.2,3.3-1.6,9.5,2.3,11.8,3.3,1,5.2-3.4,7.4-5.1,9.2-1,20.3.5,29.8-.5,22.1-2.9,20.7-37.2-1.6-38.2v.2Z"/><path d="m50,203.7c1.7,0,3.2.5,4.4,1.5s1.7,2.5,1.7,4.3-.6,3.4-1.9,4.5c-1.3,1.1-2.8,1.6-4.7,1.6s-2.9-.3-4.1-1c-1.2-.7-2-1.7-2.5-3l4-2.3c.4,1.2,1.2,1.9,2.6,1.9s1.1,0,1.5-.4c.3-.3.5-.7.5-1.2s-.2-.9-.5-1.2-.8-.4-1.4-.4h-5.7l.7-10.5h10.5v4.4h-6.3v1.9c0,0,1.1,0,1.1,0h.1Z"/><path d="m75.7,205v1.8c0,2.6-.8,4.7-2.5,6.4-1.6,1.6-3.8,2.4-6.4,2.4s-5.1-.9-6.9-2.7c-1.8-1.8-2.7-4-2.7-6.6s.9-4.8,2.7-6.6,4-2.7,6.6-2.7,3.2.4,4.6,1.1c1.4.7,2.5,1.7,3.2,3l-3.9,2.2c-.4-.6-.9-1-1.6-1.3s-1.5-.5-2.3-.5c-1.4,0-2.6.5-3.5,1.4s-1.4,2.1-1.4,3.5.4,2.5,1.3,3.5c.9,1,2.1,1.4,3.8,1.4s3.4-.8,4.1-2.3h-4.3v-3.9h9.2Z"/><circle class="cls-8" cx="340" cy="200.3" r="45"/><path d="m308.4,204.9l.6-1.1,1.6,1-.7,1.2c.4.5.8,1.1,1,1.8.7,2.4-.6,4.8-3.1,5.5-2.4.7-4.8-.7-5.5-3.1-.7-2.4.6-4.8,3.1-5.5,1-.3,2.1-.2,3,.2Zm.5,2.9l-.9,1.5-1.6-1,1-1.7c-.4,0-.9,0-1.4,0-1.5.4-2.1,1.8-1.8,3.1.4,1.3,1.7,2.1,3.1,1.7,1.5-.4,2.1-1.8,1.8-3.1,0-.2-.1-.4-.2-.6h0Z"/><path d="m303.5,197.2h6.1v1.7h-.6c.5.3.8.9.8,1.8s-.8,2.3-2.5,2.3h-3.8v-1.8h3.5c.8,0,1.1-.5,1.1-1.1s-.4-1.1-1.3-1.1h-3.3s0-1.8,0-1.8Z"/><path d="m305,188.7l6,1.3-.4,1.8h-.6c.4.4.5,1,.3,1.8-.3,1.6-2,2.6-3.8,2.2-1.8-.4-2.9-2-2.5-3.6s.6-1.3,1.1-1.6h-.6c0,0,.4-1.9.4-1.9h.1Zm2.6,2.4c-.9-.2-1.6.3-1.8,1.1s.3,1.5,1.1,1.7c.9.2,1.6-.3,1.8-1.1.2-.8-.3-1.5-1.1-1.7Z"/><path d="m310.4,182.2l3.4,1.6-.8,1.7-3.2-1.5c-.7-.3-1.2,0-1.5.5-.3.6-.1,1.2.7,1.6l3,1.4-.8,1.7-5.5-2.6.8-1.7.5.2c-.3-.5-.3-1.2,0-1.9.5-1.1,1.8-1.7,3.3-1h.1Z"/><path d="m312.2,178.7l1.8,1.3c.4.3.7,0,1.2-.7l1.4,1c-1.2,2.1-2.2,2.2-3.6,1.2l-1.8-1.3-.6.8-1.4-1,.6-.8-.9-.7.6-1.8,1.4,1,.7-1,1.4,1-.7,1h-.1Z"/><path d="m316.9,171.1l4.2,4.4-1.3,1.3-.4-.4c0,.6-.2,1.2-.8,1.8-.9.9-2.3.9-3.4-.3l-2.6-2.7,1.3-1.3,2.4,2.5c.5.6,1.1.5,1.5,0,.5-.5.6-1.1,0-1.7l-2.3-2.4,1.3-1.3h.1Z"/><path d="m328.1,167.2l1.8,3.3-1.6.9-1.7-3.2c-.3-.5-.7-.8-1.3-.5-.5.3-.6.8-.3,1.5l1.6,3.1-1.6.9-1.7-3.2c-.3-.5-.7-.8-1.3-.5-.5.3-.6.8-.3,1.5l1.6,3.1-1.6.9-2.9-5.4,1.6-.9.3.5c0-.5.4-1,1.1-1.4.6-.3,1.3-.3,1.8,0,0-.6.4-1.1,1.2-1.5,1.2-.7,2.5-.2,3.2,1.2v-.3Z"/><path d="m329.7,166.1l4.5-1.1.4,1.7-4.5,1.1-.4-1.7Z"/><path d="m335.9,166.2c0-1.8,1.3-3.3,3.1-3.4,1.2,0,2.3.5,2.8,1.5l-1.6,1c-.2-.4-.7-.7-1.2-.6-.8,0-1.4.6-1.3,1.5,0,.8.6,1.4,1.4,1.4s1-.3,1.2-.7l1.6.9c-.5,1-1.5,1.6-2.7,1.7-1.9,0-3.3-1.3-3.4-3.1v-.2Z"/><path d="m342.4,166c.3-1.8,2-2.9,3.7-2.6,1.8.3,3,1.9,2.7,3.7-.3,1.8-2,2.9-3.7,2.6-1.8-.3-3-1.9-2.7-3.7Zm4.6.8c0-.9-.4-1.5-1.1-1.7-.8-.1-1.5.3-1.6,1.2s.4,1.5,1.1,1.7c.8.1,1.5-.3,1.6-1.2Z"/><path d="m358.8,170.7l-1.6,3.4-1.7-.8,1.5-3.3c.3-.6.2-1-.4-1.3s-1,0-1.4.6l-1.5,3.1-1.7-.8,1.5-3.3c.3-.6.2-1-.4-1.3-.6-.3-1,0-1.4.6l-1.5,3.1-1.7-.8,2.6-5.5,1.7.8-.2.5c.4-.3,1.1-.3,1.8,0,.7.3,1,.8,1.1,1.4.5-.3,1.2-.3,2,0,1.3.6,1.7,1.9,1,3.3l.3.3Z"/><path d="m364.7,176.7c-1.2,1.4-3.1,1.6-4.3.5-.6-.5-.9-1.2-.9-1.8l-2,2.3-1.4-1.2,5.7-6.4,1.4,1.2-.4.4c.6,0,1.2.1,1.9.6,1.2,1.1,1.3,3,0,4.4Zm-1.4-1.2c.6-.7.5-1.5,0-2.1s-1.5-.5-2.1.2-.5,1.5,0,2.1,1.5.5,2.1-.2Z"/><path d="m371.4,180.7l-5,3.5-1.1-1.5.5-.3c-.6,0-1.2-.3-1.6-1-.7-1-.6-2.4.7-3.3l3.1-2.2,1.1,1.5-2.8,2c-.6.4-.6,1-.3,1.5.4.5,1,.7,1.7.2l2.7-1.9,1.1,1.5h0Z"/><path d="m371.7,185.4l-2,.9c-.5.2-.3.7,0,1.4l-1.5.7c-1.3-2.1-.9-3,.7-3.7l2-.9-.4-.9,1.6-.8.4.9,1.1-.5,1.3,1.4-1.5.7.5,1.1-1.6.8-.5-1.1h0Z"/><path d="m376.1,193.5l-5.9,1.5-.5-1.8h.6c-.6-.4-1-.9-1.2-1.7-.4-1.6.6-3.2,2.4-3.6,1.8-.5,3.5.5,3.9,2,.2.8,0,1.4-.3,2h.6c0,0,.5,1.6.5,1.6h0Zm-3.4-1c.9-.2,1.3-1,1.1-1.8-.2-.8-.9-1.3-1.8-1-.9.2-1.3,1-1.1,1.8.2.8.9,1.3,1.8,1Z"/><path d="m374.7,198h-2.2c-.5.2-.5.6-.4,1.4h-1.7c-.4-2.3.3-3,2-3.1h2.2v-1.1h1.8c0,0,0,.9,0,.9h1.2l.7,1.7h-1.7v1.4h-1.8c0,0,0-1.2,0-1.2h0Z"/><path d="m376.5,200.8v1.8c0,0-6.2-.4-6.2-.4v-1.8c0,0,6.2.4,6.2.4Zm1.7,0c.6,0,1.1.6,1,1.2,0,.6-.6,1.1-1.2,1s-1.1-.6-1-1.2.6-1.1,1.2-1Z"/><path d="m373.3,203.6c1.8.4,2.8,2.1,2.4,3.9-.4,1.8-2.1,2.9-3.9,2.5-1.8-.4-2.8-2.1-2.4-3.9.4-1.8,2.1-2.9,3.9-2.5Zm-1,4.5c.8.2,1.5-.3,1.7-1.1s-.3-1.5-1.1-1.7c-.8-.2-1.5.3-1.7,1.1s.3,1.5,1.1,1.7Z"/><path d="m369.6,216.8l-3.4-1.6.8-1.7,3.2,1.5c.7.3,1.2,0,1.5-.5.3-.6,0-1.2-.7-1.6l-3-1.4.8-1.7,5.5,2.6-.8,1.7-.5-.2c.3.5.3,1.2,0,1.9-.5,1.1-1.8,1.7-3.3,1h0Z"/><path class="cls-40" d="m319.8,196v-8.8c0-1.4.7-2.1,2.1-2.1h30.5c1.4,0,2.1.7,2.1,2.1v28.7c0,1.2-.7,1.9-1.9,1.9h-30.8c-1.2,0-1.9-.8-1.9-1.9v-19.9h-.1Zm19.2,18.2c.4,0,.6-.3.9-.6.9-.8,1.6-1.7,2.1-2.7s.4-.5.8-.5c.9,0,1.9,0,2.8-.2,2.4-.6,3.7-2.2,3.5-4.5,0-1.2-.6-2.4-1.3-3.4-.4-.5-.4-.9,0-1.5.8-1.2,1.3-2.5,1.3-4,1.3-.9,1.1-2.4,0-3.1-.7-.5-1.4-.4-2,0-.2-.3-.6-.4-.9-.5-1.1-.4-2.2-.5-3.4-.4-.5,0-.8,0-1-.6-.5-1.1-1.2-2-2.1-2.7-1.2-1.1-3-1.4-4.5-.6-1,.5-1.8,1.4-2.4,2.3-.3.5-.5,1.2-1,1.5s-1.2,0-1.8,0c-1.1,0-2.1.2-3,.9-.5-.2-.9-.3-1.4-.2-.7.2-1.2.7-1.4,1.4-.2.9.2,1.5.9,2,0,1.6.6,2.9,1.4,4.2.3.4.3.7,0,1.1-.7,1-1.1,2.1-1.3,3.2-.2,1.6.2,3,1.5,4,1.2.9,2.7,1.2,4.2,1.1.8,0,1.4,0,1.6,1,0,.2.2.4.4.6.7.9,1.3,1.8,2.4,2.2,0,.8.4,1.4,1.1,1.8,1,.5,2.5,0,2.6-1.7h0Z"/><path class="cls-17" d="m319.8,196v19.9c0,1.2.7,1.9,1.9,1.9h30.8c1.2,0,1.9-.8,1.9-1.9v-19.9h2.4c2.1.5,3.1,2.1,3.1,4.2v23.1h-45.6v-24c0-1.7,1.7-3.3,3.3-3.4h2.2Z"/><path class="cls-27" d="m314.4,223.3h45.7c0,.8,0,1.5-.3,2.3-.5,1.3-1.5,2-2.8,2.3h-39c-1.9,0-3.5-1.6-3.5-3.5v-1h0Z"/><path class="cls-18" d="m360,223.3v-23.1c0-2.2-1-3.7-3.1-4.2h3.2c1.9,0,3.4,1.6,3.5,3.4h0v23.9h-3.7,0Z"/><path class="cls-27" d="m341.7,231.5h0c-.9.7-1.2,1.6-1,2.7h-12.3c-.4,0-.5,0-.5-.5,0-1.5.9-2.4,2.2-2.3h2.7c.4,0,.6,0,.6-.5v-1.3h4.1q1.3,0,1.3,1.3c0,.5.2.6.6.6.7,0,1.4,0,2.2,0Z"/><path class="cls-42" d="m341.7,231.5h-2.2c-.4,0-.6,0-.6-.6q0-1.3-1.3-1.3h-4.1v-1.8h8.2s0,3.7,0,3.7Z"/><path class="cls-19" d="m360,223.4h3.6c0,1.1,0,2.2-.7,3.1-.6.9-1.6,1.4-2.7,1.4h-3.2c1.3-.3,2.3-1,2.8-2.3.3-.7.3-1.5.3-2.2h-.1Z"/><path class="cls-5" d="m340.8,234.3c-.2-1.1,0-2,1-2.7h2.6c1.4,0,2,1.2,1.8,2.5,0,.3-.3.2-.5.2h-5,.1Z"/><path class="cls-26" d="m349.1,196.7c0,1.5-.5,2.8-1.3,4-.4.6-.4.9,0,1.5.7,1,1.2,2.1,1.3,3.4.2,2.3-1.1,3.9-3.5,4.5-.9.2-1.9.3-2.8.2-.4,0-.7,0-.8.5-.5,1.1-1.2,2-2.1,2.7-.3.2-.5.5-.9.6,0-.3-.2-.6-.3-.9,1.2-.6,1.8-1.7,2.4-2.8,0-.3,0-.3-.2-.3-1.1-.2-2.3-.5-3.3-.9-.3,0-.6,0-.9,0-1,.4-2.1.7-3.2.9-.5,0-.4.2-.3.6.6,1,1.3,1.9,2.2,2.7l-.2.8c-1.1-.4-1.7-1.3-2.4-2.2-.2-.2-.3-.4-.4-.6-.2-.8-.8-1-1.6-1-1.5,0-3-.2-4.2-1.1-1.3-1-1.7-2.4-1.5-4,.2-1.2.6-2.3,1.3-3.2.3-.4.3-.7,0-1.1-.8-1.3-1.4-2.6-1.4-4.2.3,0,.6.2.9.2,0,1.4.6,2.6,1.4,3.8.9-1.1,1.9-2.1,3-2.9,0,0,.2-.3.2-.4.2-1.1.4-2.2.8-3.3.2-.5,0-.6-.4-.6-1.2,0-2.3.2-3.4.6l-.6-.6c.9-.7,2-.8,3-.9.6,0,1.4.2,1.8,0,.5-.3.6-1,1-1.5.6-.9,1.4-1.8,2.4-2.3,1.5-.8,3.3-.5,4.5.6.9.8,1.6,1.7,2.1,2.7.2.5.5.6,1,.6,1.2,0,2.3,0,3.4.4.3,0,.6.2.9.5-.2.2-.3.5-.6.6-1.1-.4-2.2-.6-3.3-.6s-.6.2-.4.6c.3.9.6,1.9.7,2.8,0,.6.5,1,.9,1.4s.5.4.7.6c.5.5,1,1,1.4,1.5,0,0,.2.4.4,0,.7-1.1,1.2-2.2,1.3-3.5.3,0,.6,0,.9-.2v-.2Zm-17.9,4.9c0,.7,0,1.6,0,2.4s.3.9.7,1.2c1.5,1.1,3.1,2,4.8,2.7.2,0,.5,0,.7,0,1.7-.8,3.4-1.7,4.9-2.8.3-.2.5-.5.5-.8.2-1.9.2-3.9,0-5.8,0-.3-.2-.5-.4-.7-1.6-1.1-3.3-2.1-5.1-2.9h-.6c-1.8.8-3.4,1.7-5,2.8-.2,0-.4.4-.4.7,0,1-.2,2-.2,3.1h0Zm6-12.5c-.3,0-.5,0-.8,0-1.6.5-2.5,1.8-3.3,3.2-.2.3,0,.3.3.3,1.1.2,2.2.5,3.3.9.3,0,.6,0,.9,0,1.1-.4,2.2-.7,3.3-.9.3,0,.4,0,.2-.4-.3-.6-.6-1.1-1-1.6-.8-.9-1.7-1.6-2.9-1.7h0Zm-6.5,20.3h.3q.7,0,.5-.7c-.3-.9-.5-1.8-.7-2.7,0-.3,0-.7-.3-.9-1-.8-1.9-1.6-2.6-2.6-.2-.3-.3-.2-.5,0-.5.7-.8,1.5-1,2.4-.3,1.2-.2,2.4.8,3.3,1,1,2.3,1.1,3.6,1.2h0Zm12.7,0c1.1,0,1.8,0,2.5-.3,1.8-.6,2.6-2,2.3-3.9-.2-1-.6-1.8-1.1-2.6-.2-.4-.3-.4-.6,0-.6.8-1.4,1.6-2.2,2.2-.4.3-.7.8-.7,1.3,0,.8-.3,1.6-.6,2.4q-.3,1,.4,1h0Zm-12.9-5.6c-.2-1.6-.2-3.2,0-4.8-.9.6-1.5,1.4-2.1,2.1-.2.2-.2.4,0,.6h0c.7.7,1.2,1.5,2.1,2.1Zm8-9.4c1.5.7,2.9,1.5,4.2,2.4-.2-1-.4-1.9-.8-2.9,0-.2,0-.4-.4-.4-1,.2-2,.4-3,.8h0Zm-2.6,14.1c-1.5-.7-2.8-1.5-4.2-2.4.2,1,.4,2,.8,2.9,0,.2,0,.3.3.3,1-.2,2-.4,3-.8h.1Zm-4.2-11.6c1.4-1,2.7-1.7,4.2-2.5-1-.3-2-.6-3-.8-.3,0-.3,0-.4.3-.4.9-.6,1.9-.8,2.9h0Zm12.2,2.2c.2,1.6.2,3.2,0,4.8.9-.6,1.5-1.4,2.1-2.1.2-.2,0-.5,0-.7-.6-.7-1.2-1.4-2.1-2h0Zm-5.4,9.4c1.1.4,2,.6,3,.8.2,0,.3,0,.3-.2.4-1,.7-2,.8-3-1.3.9-2.7,1.7-4.2,2.4h.1Z"/><path class="cls-20" d="m346.6,194.1c.3,0,.4-.4.6-.6.7-.3,1.4-.4,2,0,1,.7,1.2,2.2,0,3.1-.3,0-.6.2-.9.2-1.4-.2-2.1-1.2-1.7-2.5v-.3h.1Z"/><path class="cls-20" d="m335.3,214.1l.2-.8c1.3-1.3,2.1-1.3,3.3,0,0,.3.2.6.3.9,0,1.6-1.5,2.2-2.6,1.8-.7-.3-1.1-1-1.1-1.8h-.1Z"/><path class="cls-20" d="m326.1,196.9c-.3,0-.6,0-.9-.2-.7-.5-1.1-1.1-.9-2,.2-.7.6-1.2,1.4-1.4.5,0,1,0,1.4.2l.6.6c.5,1.7,0,2.6-1.6,2.8Z"/><path class="cls-36" d="m331.2,201.6c0-1,0-2.1.2-3.1,0-.3.2-.5.4-.7,1.6-1.1,3.2-2.1,5-2.8.2,0,.4,0,.6,0,1.8.8,3.5,1.8,5.1,2.9.2,0,.4.4.4.7.2,1.9.3,3.9,0,5.8,0,.3-.2.6-.5.8-1.5,1.1-3.2,2-4.9,2.8-.2,0-.5,0-.7,0-1.7-.8-3.3-1.7-4.8-2.7-.4-.2-.7-.7-.7-1.2,0-.9-.2-1.7,0-2.4h0Zm8.7-.2c0-1.5-1.2-2.7-2.8-2.7s-2.7,1.2-2.7,2.8,1.2,2.7,2.7,2.7,2.7-1.2,2.7-2.7h0Z"/><path class="cls-33" d="m337.2,189.1c1.3,0,2.2.8,2.9,1.7.4.5.7,1,1,1.6.2.3,0,.4-.2.4-1.1.2-2.2.5-3.3.9-.3,0-.6,0-.9,0-1.1-.4-2.2-.7-3.3-.9-.2,0-.4,0-.3-.3.8-1.4,1.6-2.7,3.3-3.2.3,0,.5,0,.8,0h0Z"/><path class="cls-33" d="m330.7,209.4c-1.3,0-2.6-.2-3.6-1.2-1-.9-1.1-2.1-.8-3.3.2-.8.6-1.6,1-2.4.2-.3.3-.3.5,0,.8,1,1.7,1.8,2.6,2.6.3.3.3.6.3.9.2.9.4,1.8.7,2.7q.2.7-.5.7h-.3,0Z"/><path class="cls-33" d="m343.3,209.4q-.7,0-.4-1c.2-.8.5-1.6.6-2.4,0-.5.3-1,.7-1.3.8-.6,1.6-1.4,2.2-2.2.2-.3.4-.3.6,0,.5.8.9,1.7,1.1,2.6.3,1.9-.5,3.3-2.3,3.9-.7.2-1.4.3-2.5.3h0Z"/><path class="cls-28" d="m338.8,213.3c-1.1-1.2-1.9-1.2-3.3,0-.9-.7-1.7-1.7-2.2-2.7s-.2-.5.3-.6c1.1-.2,2.1-.5,3.2-.9.3,0,.6,0,.9,0,1.1.4,2.2.7,3.3.9.2,0,.4,0,.2.3-.6,1.1-1.2,2.2-2.4,2.8v.2Z"/><path class="cls-28" d="m326.1,196.9c1.5-.2,2.1-1.1,1.6-2.8,1.1-.4,2.2-.6,3.4-.6s.6,0,.4.6c-.4,1.1-.7,2.2-.8,3.3,0,.2,0,.3-.2.4-1.1.9-2.1,1.9-3,2.9-.8-1.2-1.4-2.4-1.4-3.8Z"/><path class="cls-28" d="m346.6,194.1v.3c-.4,1.4.3,2.3,1.7,2.5,0,1.3-.6,2.4-1.3,3.5-.2.3-.3,0-.4,0-.4-.5-.9-1-1.4-1.5s-.4-.4-.7-.6c-.4-.4-.8-.7-.9-1.4,0-1-.4-1.9-.7-2.8-.2-.4,0-.6.4-.6,1.1,0,2.3.2,3.3.6Z"/><path class="cls-24" d="m330.5,203.8c-.9-.6-1.5-1.4-2.1-2.1-.2,0-.2-.4,0-.6h0c.6-.7,1.2-1.5,2.1-2.1-.2,1.6-.2,3.2,0,4.8Z"/><path class="cls-24" d="m338.5,194.4c1-.4,2-.6,3-.8.3,0,.3.2.4.4.4.9.6,1.9.8,2.9-1.3-.9-2.7-1.7-4.2-2.4h0Z"/><path class="cls-24" d="m335.9,208.5c-1.1.4-2,.6-3,.8-.2,0-.3,0-.3-.3-.4-.9-.6-1.9-.8-2.9,1.3.9,2.7,1.7,4.2,2.4h-.1Z"/><path class="cls-24" d="m331.7,196.9c.2-1,.4-2,.8-2.9,0-.2,0-.4.4-.3,1,.2,2,.4,3,.8-1.5.7-2.8,1.5-4.2,2.5h0Z"/><path class="cls-24" d="m343.9,199.1c.9.6,1.4,1.3,2.1,2,.2.2.3.4,0,.7-.7.7-1.2,1.5-2.1,2.1.2-1.6.2-3.2,0-4.8Z"/><path class="cls-24" d="m338.5,208.5c1.4-.7,2.8-1.5,4.2-2.4-.2,1-.4,2-.8,3,0,0,0,.3-.3.2-1-.2-2-.4-3-.8h-.1Z"/><path class="cls-45" d="m339.9,201.4c0,1.5-1.2,2.8-2.7,2.8s-2.8-1.2-2.8-2.7,1.2-2.8,2.7-2.8h0c1.5,0,2.7,1.2,2.7,2.7h0Z"/></svg>