<?xml version="1.0" encoding="UTF-8"?><svg id="Layer_1" xmlns="http://www.w3.org/2000/svg" viewBox="0 0 400 400"><defs><style>.cls-1{fill:#435256;}.cls-2{fill:#565959;}.cls-3{fill:#eb917f;}.cls-4{fill:#fbe501;}.cls-5{fill:#414343;}.cls-6{fill:#d2febf;}.cls-7{opacity:.5;}.cls-8{fill:#f9f3b1;}.cls-9{fill:#999afe;}.cls-10{fill:#fcc472;}.cls-11{fill:#2d3b3d;}.cls-12{fill:#f3bd99;}.cls-13{stroke:#c000e2;}.cls-13,.cls-14{stroke-width:4px;}.cls-13,.cls-14,.cls-15{stroke-miterlimit:10;}.cls-13,.cls-14,.cls-15,.cls-16{fill:none;}.cls-17{fill:#00f6d5;}.cls-18{fill:#007d9e;}.cls-19{fill:#989afe;}.cls-20{fill:#fbc372;}.cls-21{fill:#f4bd99;}.cls-22{fill:#fedd46;}.cls-23{fill:#02f6d5;}.cls-24{fill:#06687f;}.cls-14{stroke:#00b51e;}.cls-25{fill:#03f6d5;}.cls-15{stroke:#231f20;stroke-width:2px;}.cls-26{fill:#00244d;}.cls-27{fill:#6e6f6e;}.cls-28{fill:#b7b7fe;}.cls-29{fill:#979bfd;}.cls-30{fill:#97d6e5;}.cls-31{fill:#7dcbe5;}.cls-32{fill:#eecf15;}.cls-33{fill:#9dd8e6;}.cls-34{fill:#fdc472;}.cls-35{fill:#0092b9;}.cls-36{fill:#e5eff1;}.cls-37{fill:#b8b8fd;}.cls-38{fill:#014767;}.cls-39{fill:#414242;}.cls-40{fill:#231f20;}.cls-41{fill:#00dbe6;}.cls-42{fill:#9fddea;}.cls-43{fill:#067fa6;}.cls-44{fill:#f99e3d;}</style></defs><line class="cls-16" x1="111.6" y1="202.1" x2="144.4" y2="201.6"/><line class="cls-15" x1="111.6" y1="202.1" x2="133.6" y2="201.8"/><polygon class="cls-40" points="131.6 209.3 144.4 201.6 131.3 194.3 131.6 209.3"/><line class="cls-16" x1="289.4" y1="202.1" x2="256.6" y2="201.6"/><line class="cls-15" x1="289.4" y1="202.1" x2="267.4" y2="201.8"/><polygon class="cls-40" points="269.7 194.3 256.6 201.6 269.5 209.3 269.7 194.3"/><line class="cls-16" x1="200.2" y1="113.5" x2="200.7" y2="146.3"/><line class="cls-15" x1="200.2" y1="113.5" x2="200.6" y2="135.5"/><polygon class="cls-40" points="193.1 133.4 200.7 146.3 208 133.2 193.1 133.4"/><line class="cls-16" x1="200.2" y1="290.3" x2="200.7" y2="257.5"/><line class="cls-15" x1="200.2" y1="290.3" x2="200.6" y2="268.2"/><polygon class="cls-40" points="208 270.6 200.7 257.5 193.1 270.3 208 270.6"/><circle class="cls-13" cx="60.6" cy="201.9" r="45"/><path d="m25.5,199.4c-2.5-.4-4.2-2.8-3.8-5.3,0,0,0-.2,0-.3.3-1.5,1.3-2.8,2.8-3.4l.7,2c-.8.3-1.4,1-1.5,1.9-.4,1.3.4,2.7,1.7,3,.1,0,.3,0,.4,0,1.4.4,2.8-.4,3.1-1.8,0-.1,0-.2,0-.3.3-.8,0-1.7-.7-2.3l1.4-1.6c1.1,1.1,1.6,2.7,1.3,4.2-.4,2.5-2.8,4.2-5.3,3.8,0,0-.2,0-.3,0h0Z"/><path d="m28.9,190.3c-1.7-.8-2.4-2.9-1.6-4.6.8-1.7,2.9-2.4,4.6-1.6,1.7.8,2.4,2.9,1.6,4.6-.9,1.7-2.9,2.4-4.6,1.6Zm2.2-4.4c-.7-.4-1.6,0-2,.6,0,0,0,0,0,0-.3.7,0,1.6.7,2,.7.4,1.6,0,2-.6,0,0,0,0,0,0,.4-.7.1-1.6-.6-1.9,0,0,0,0-.1,0Z"/><path d="m38.6,175.1l2.9,2.7-1.3,1.4-2.8-2.6c-.5-.4-1-.5-1.4,0-.4.4-.4,1.1,0,1.5,0,0,0,0,.1.1l2.7,2.5-1.3,1.4-2.8-2.6c-.5-.4-1-.5-1.4,0-.4.4-.4,1.1,0,1.5,0,0,0,0,.1.1l2.7,2.5-1.3,1.4-4.8-4.4,1.3-1.4.4.4c-.1-.7.1-1.3.6-1.8.4-.6,1.1-.8,1.8-.7-.1-.7,0-1.5.6-2,.9-1,2.5-1.1,3.5-.2,0,0,.1.1.2.2Z"/><path d="m44.2,168.8l3.4,5.6-1.7,1-.3-.5c0,.7-.5,1.3-1.2,1.6-1.1.7-2.6.4-3.4-.7,0,0-.1-.2-.1-.3l-2.1-3.4,1.7-1,1.9,3.2c.2.5.8.8,1.3.6.1,0,.2-.1.3-.2.6-.3.8-1,.4-1.6,0,0,0-.1-.1-.2l-1.8-3,1.7-1h0Z"/><path d="m53.1,168.2l1.2,3.8-1.9.6-1.1-3.5c0-.5-.6-.9-1.1-.9-.1,0-.2,0-.3,0-.6.1-1,.7-.8,1.3,0,.1,0,.2.1.3l1.1,3.4-1.9.6-2-6.2,1.9-.6.2.6c.2-.7.8-1.2,1.5-1.3,1.3-.4,2.7.3,3.1,1.6,0,0,0,.1,0,.2Z"/><path d="m54,163.9c0-.6.4-1.2,1-1.3.6,0,1.2.4,1.3,1s-.4,1.2-1,1.3c0,0,0,0,0,0-.6,0-1.2-.4-1.3-1Zm.4,1.7l1.9-.3.9,6.4-1.9.3-.9-6.4Z"/><path d="m58.1,168.3c0-1.9,1.5-3.4,3.4-3.4,0,0,0,0,.1,0,1.2,0,2.3.6,2.9,1.7l-1.7,1c-.3-.7-1.2-1-1.9-.7-.5.2-.8.8-.8,1.4,0,.8.5,1.4,1.3,1.5,0,0,0,0,.1,0,.5,0,1-.2,1.3-.7l1.7,1c-1,1.6-3.2,2.1-4.8,1.1-1-.6-1.6-1.8-1.6-3h0Z"/><path d="m72.6,166.9l-1.6,6.3-1.9-.5v-.6c-.5.4-1.3.5-1.9.3-1.7-.5-2.7-2.3-2.2-4,0,0,0,0,0-.1.3-1.8,2-2.9,3.8-2.6.7.1,1.4.6,1.7,1.2v-.6c0,0,2,.5,2,.5h0Zm-2.7,2.7c.2-.8-.3-1.7-1.1-1.9,0,0,0,0,0,0-.8-.2-1.6.2-1.9,1,0,0,0,.1,0,.2-.2.8.3,1.7,1.1,1.9,0,0,0,0,0,0,.8.2,1.6-.2,1.9-1,0,0,0-.1,0-.2Z"/><path d="m76.2,170.6l-1,2.1c-.2.5.2.8,1,1.1l-.8,1.6c-2.4-.9-2.8-1.9-2-3.5l1-2.1-.9-.4.8-1.7.9.4.5-1.1,2,.3-.8,1.6,1.2.6-.8,1.7-1.2-.6h.1Z"/><path d="m79.6,170.3l1.6,1-3.5,5.5-1.6-1,3.5-5.5Zm.8-1.6c.3-.6,1-.7,1.6-.4.6.3.7,1,.4,1.6-.3.6-1,.7-1.6.4,0,0,0,0,0,0-.5-.4-.7-1-.4-1.6h0Z"/><path d="m80.7,174.8c1.3-1.4,3.5-1.5,4.9-.2,1.4,1.3,1.5,3.5.2,4.9-1.3,1.4-3.5,1.5-4.9.2,0,0,0,0,0,0-1.4-1.3-1.5-3.5-.2-4.9Zm3.7,3.3c.6-.6.6-1.5,0-2.1,0,0,0,0,0,0-.5-.6-1.4-.6-2,0,0,0-.1.1-.1.2-.6.6-.5,1.5,0,2.1.6.6,1.5.5,2.1,0,0,0,0,0,0,0Z"/><path d="m90.8,185.2l-3.3,2.2-1.1-1.6,3.1-2.1c.5-.2.7-.8.5-1.3,0-.1-.1-.2-.2-.3-.4-.6-1-.8-1.8-.2l-2.9,2-1.1-1.6,5.4-3.7,1.1,1.6-.5.3c.7,0,1.3.5,1.7,1.1.7,1.1.5,2.6-.6,3.3,0,0-.2.1-.3.2h0Z"/><path d="m92.7,192.9c-1.5.6-3.3-.1-3.9-1.7,0-.1,0-.2-.1-.3-.6-1.2-.3-2.7.6-3.7l1.6,1.3c-.5.4-.7,1.1-.4,1.7.3.8.9,1,1.4.8.5-.2.8-.7.5-1.5l-1-2.7,5-1.6,1.9,4.9-1.8.7-1.2-3.1-1.2.4.3.7c.7,1.4.1,3.1-1.3,3.8-.1,0-.3.1-.4.2h0Z"/><path d="m95.5,203c-2.3.4-4.5-1.2-4.9-3.6,0-.1,0-.3,0-.4-.3-2.6,1.5-5,4.1-5.4,0,0,0,0,0,0,2.6-.3,4.9,1.6,5.2,4.2,0,0,0,0,0,0,.2,1.6-.4,3.2-1.7,4.2l-1.2-1.7c.7-.6,1-1.4.8-2.3-.2-1.5-1.6-2.5-3-2.4-1.5.2-2.5,1.6-2.4,3.1h0c0,1,.6,1.9,1.6,2.2l-.3-2.4,1.8-.2.5,4.5h-.8.2Z"/><path class="cls-22" d="m72.5,189c-8.5-.2-17.8-.2-26.3,0-14.8,1.9-22,20.9-11.6,31.8,2.2,3.3-1.6,9.5,2.3,11.8,3.3,1,5.2-3.4,7.4-5.1,9.2-1,20.3.5,29.8-.5,22.1-2.9,20.7-37.2-1.6-38.2v.2Z"/><path d="m50.6,205.3c1.6,0,3.2.5,4.4,1.5,1.2,1.1,1.8,2.7,1.7,4.3,0,1.7-.6,3.4-1.9,4.5-1.3,1.1-3,1.7-4.7,1.6-1.4,0-2.9-.3-4.1-1-1.2-.7-2-1.7-2.5-3l4-2.3c.3,1.2,1.4,2,2.6,1.9,1.4,0,1.1-.1,1.5-.4.7-.7.7-1.7,0-2.4,0,0,0,0,0,0-.4-.3-.9-.4-1.4-.4h-5.7l.7-10.5h10.5v4.4h-6.3v1.9h1.2Z"/><path d="m76.3,206.6v1.8c0,2.4-.8,4.7-2.5,6.4-1.7,1.6-4,2.5-6.4,2.4-2.6,0-5-.9-6.9-2.7-3.6-3.6-3.7-9.5,0-13.2,1.8-1.8,4.2-2.8,6.6-2.7,1.6-.1,3.2.3,4.6,1.1,1.4.6,2.5,1.7,3.2,3l-3.9,2.2c-.4-.6-.9-1-1.6-1.3-.7-.3-1.5-.5-2.3-.5-2.6,0-4.8,2-4.9,4.7,0,0,0,.2,0,.2,0,1.3.4,2.6,1.3,3.5,1,1,2.4,1.5,3.8,1.4,1.7,0,3.3-.8,4.1-2.3h-4.3v-3.9h9.2Z"/><circle class="cls-13" cx="339.4" cy="201.9" r="45"/><path d="m306.6,199.4l-.7-2.3c1,0,1.8-.8,1.9-1.8.3-1.1-.1-1.5-.5-1.6-.6-.2-1,.4-1.8,1.8-.8,1.4-1.9,2.7-3.8,2.2-1.8-.5-2.8-2.3-2.3-4.1,0,0,0,0,0-.1.3-1.6,1.6-2.9,3.2-3.2l.7,2.2c-.8,0-1.5.7-1.6,1.5-.2.7,0,1.2.5,1.3s.8,0,1.7-1.5c.9-1.5,1.8-3,4-2.5,2,.5,2.7,2.3,2.2,4.5-.3,1.8-1.7,3.2-3.5,3.5h0Z"/><path d="m307.7,190c-1.9-1.1-2.6-3.5-1.6-5.4s3.5-2.6,5.4-1.6c1.9,1.1,2.6,3.5,1.6,5.4,0,0,0,0,0,0-1.1,1.9-3.5,2.6-5.4,1.5Zm2.8-5c-.8-.4-1.9-.1-2.3.7-.4.8-.1,1.9.7,2.3.8.4,1.8.1,2.3-.7.5-.9.1-1.9-.7-2.4,0,0,0,0,0,0h0Z"/><path d="m312.4,182.1c-1.5-1.4-1.7-3.8-.2-5.4,0,0,.2-.2.2-.2,1-1,2.4-1.4,3.7-1.1l-.5,2.2c-.6-.2-1.2,0-1.6.5-.6.7-.6,1.8.1,2.4.6.6,1.6.6,2.3,0,.5-.4.6-1,.4-1.6l2.2-.6c.4,1.4,0,2.8-1,3.8-1.4,1.5-3.8,1.7-5.4.2,0,0-.2-.2-.2-.2Z"/><path d="m330,174.7l-1.3-.5c-.5.8-1.3,1.5-2.2,1.8-2,.9-3.9.4-4.7-1.4-.5-1.1-.4-2.4.3-3.4-.5-.3-.8-.8-1.1-1.3-.7-1.6,0-3.4,1.7-4.1,0,0,.2,0,.2,0,1.4-.6,3-.4,4.1.7l-1.4,1.9c-.4-.5-1.1-.7-1.7-.5-.5.2-.8.7-.6,1.2,0,0,0,0,0,0,.2.5.7.7,1.4,1l2.6,1.2c0-.6,0-1.1-.2-1.7l2.3.2c0,.8,0,1.6,0,2.4l1.8.8-1.3,1.7h.1Zm-3.2-1.4l-2.6-1.1h-.1c-.2.4-.2.8,0,1.2.3.6.9.9,1.9.5.3-.2.6-.4.9-.6h0Z"/><path d="m345.9,173.2h-2.4c0-.1.3-6.2.3-6.2l-2.9,4.3h-.3l-2.5-4.6-.3,6.1h-2.4c0-.1.5-10.6.5-10.6h2.4c0,.1,2.6,4.9,2.6,4.9l3.1-4.5h2.4c0,.1-.5,10.6-.5,10.6Z"/><path d="m351,173.3c.5.2,1,.2,1.5,0l1.3,1.6c-1.1.7-2.4.8-3.6.3-2.1-.6-3.2-2.8-2.6-4.8,0-.1,0-.2.1-.4.7-2,2.9-3.1,4.9-2.4,0,0,.1,0,.2,0,2,.7,3,2.9,2.2,4.9,0,0,0,0,0,.1,0,.3-.2.6-.4.8l-5-1.9c0,.8.6,1.4,1.3,1.6h.1Zm2.3-2.1c0-.8-.4-1.4-1.1-1.7-.7-.3-1.5-.1-1.9.5l3,1.1h0Z"/><path d="m365.9,179.9l-2.9,3.6-1.7-1.4,2.8-3.4c.5-.6.5-1.2,0-1.6s-1.2-.3-1.8.3l-2.7,3.3-1.7-1.4,2.8-3.4c.5-.6.5-1.2,0-1.6s-1.2-.3-1.8.3l-2.7,3.3-1.7-1.4,4.8-5.8,1.7,1.4-.4.5c.8-.2,1.5,0,2.1.6.6.5,1,1.2.9,2,.8-.2,1.7,0,2.3.6,1.2,1,1.4,2.8.4,4,0,0-.1.2-.2.2h-.2Z"/><path d="m366.2,181.9c1.9-1.2,4.3-.6,5.5,1.3,1.2,1.9.6,4.3-1.3,5.5-1.9,1.2-4.3.6-5.5-1.3,0,0,0,0,0,0-1.2-1.8-.6-4.3,1.2-5.5,0,0,0,0,0,0Zm3,4.8c.8-.5,1.1-1.5.6-2.3,0,0,0,0,0,0-.5-.8-1.5-1.1-2.3-.6,0,0,0,0-.1,0-.8.5-1.1,1.5-.6,2.3,0,0,0,0,0,0,.5.8,1.5,1.1,2.3.6,0,0,0,0,.1,0Z"/><path d="m376.1,193.1l-2.4.8c-.1-1-1.1-1.8-2.1-1.7,0,0-.2,0-.3,0l-3.2,1.1-.7-2.1,7.1-2.5.7,2.1-1.3.4c1,0,1.8.7,2.1,1.6v.2Z"/><path d="m377.4,202.4l-7.5-1.6c-2.5-.5-3.6-1.7-3.7-3.8l2.1-.3c0,.9.6,1.6,1.5,1.7l6.7-3.9.3,2.5-4.3,2.2,4.7.8.3,2.4h-.1Z"/><path class="cls-1" d="m330.3,237h-10.5c-.9-.4-1.3-1.4-1.2-2.3v-26.8c0-.7.2-.9.9-1.1.5,0,.7-.4.7-.9v-3c0-.4-.2-.8-.7-.9,0,0,0,0,0,0-.8-.2-.9-.4-.9-1.1v-6.4c0-.7.3-1.5.8-2,2-1.9,3.9-3.9,5.9-5.9.5-.5,1.3-.8,2-.8h24.4v.2c.6.5,1,1.2.9,2-.6.2-.8.3-.8.9v6.5c0,.6.2.8.8.9v16.9c-.1-.5-.5-.8-1-.9h-26.3c-.8,0-1.2.4-1.2,1.3v16.2c-.1.7.3,1.3,1,1.4.1,0,.3,0,.4,0h26c.7,0,1.2-.2,1.4-.9v3.8c0,1,0,2-1,2.6h-5.4c-.2-.2-.5-.4-.6-.7-.2-.4-.6-.6-1-.6h-12.5c-.5,0-.9,0-1.1.5-.2.3-.5.6-.8.8l-.2.3Zm9.1-44.8v-3.2c0-.6-.3-.9-.8-.9s-.7.4-.7.9v6.5h0c0,.6.3.9.8.9.4,0,.7-.3.7-.7,0,0,0,0,0,0v-3.3h0Zm4.7,0v-3.2c0-.6-.3-1-.8-1s-.8.4-.8,1v6.4c0,.6.3,1,.8,1s.8-.3.8-1v-3.1h0Zm4.7,0v-3.2c0-.6-.3-.9-.8-.9s-.8.4-.8,1v6.4c0,.6.3,1,.8,1s.8-.3.8-.9v-3.2h0v-.2Zm-18.8,0v-3.2c0-.6-.3-.9-.7-.9-.5,0-.8.4-.8.8,0,0,0,0,0,0v6.4c0,.6.3.9.7.9s.8-.3.8-.9v-3.2Zm4.7,0v-3.2c0-.6-.3-1-.8-.9-.4,0-.8.4-.7.9,0,0,0,0,0,0v6.4c0,.6.3.9.8.9s.7-.3.7-.9v-3.2Zm-11.4,2.1h0v1.3c0,.4.3.7.7.7,0,0,0,0,0,0,.4,0,.7-.3.8-.7h0v-2.6c0-.4-.3-.8-.7-.8h0c-.4,0-.7.3-.8.8v1.3Z"/><path class="cls-11" d="m351.8,185.9h4.8c.9,0,1.6.7,1.6,1.6,0,0,0,0,0,0v4.7c0,.3-.1.6-.5.6s-.6.3-.6.8v10.1c0,.4.1.7.5.8s.6.4.6.8v29.6c0,.9-.4,1.8-1.2,2.2h-5.2c.8-.6,1.1-1.6,1-2.6v-37.8c.5,0,.7-.4.7-1v-6.4c0-.5-.2-.9-.7-1,0-.8-.3-1.5-.9-2v-.4Z"/><path class="cls-34" d="m324.1,229.3v-15.5c0-.9.4-1.3,1.2-1.3h22v15c0,1.6-.3,1.8-1.8,1.8h-21.4Z"/><path class="cls-44" d="m324.1,229.3h21.5c1.6,0,1.8-.3,1.8-1.8v-15h4.3c.5,0,.9.4,1,.9v17.1c-.2.7-.7.9-1.4.9h-26c-1,0-1.4-.4-1.4-1.4v-.7h.2Z"/><path class="cls-10" d="m352.8,188.1c.5.1.7.4.7,1v6.4c0,.5-.2.9-.7,1-.6-.1-.8-.3-.8-.9v-6.5c0-.6.2-.8.8-.9h0Z"/><path class="cls-10" d="m339.4,192.2v3.3c0,.4-.2.7-.6.8,0,0,0,0,0,0-.4,0-.8-.3-.8-.7,0,0,0,0,0-.1h0v-6.6c0-.4.3-.8.7-.9.5,0,.8.4.8.8,0,0,0,0,0,0v3.3Z"/><path class="cls-10" d="m344.1,192.3v3.1c0,.6-.3,1-.8,1s-.8-.3-.8-1v-6.4c0-.6.3-1,.8-1s.8.4.8,1v3.3h0Z"/><path class="cls-10" d="m348.8,192.3v3.2c0,.6-.3,1-.8.9s-.8-.3-.8-1v-6.4c0-.6.3-1,.8-1s.7.4.8.9v3.4h0Z"/><path class="cls-10" d="m330,192.3v3.2c0,.6-.3.9-.8.9s-.7-.3-.7-.9v-6.4c0-.6.3-1,.8-.9.4,0,.8.4.7.9,0,0,0,0,0,0v3.2Z"/><path class="cls-10" d="m334.7,192.3v3.2c0,.6-.3.9-.7.9s-.8-.3-.8-.9v-6.4c0-.6.3-.9.7-.9.5,0,.8.4.8.8,0,0,0,0,0,0v3.2Z"/><path class="cls-20" d="m323.3,194.4v-1.3c0-.4.3-.8.7-.8,0,0,0,0,.1,0,.4,0,.8.3.8.8,0,0,0,0,0,0h0v2.6c0,.4-.3.7-.7.7,0,0,0,0,0,0h0c-.3,0-.7-.2-.7-.6,0,0,0,0,0-.1v-1.3h-.2,0Z"/><circle class="cls-14" cx="200.5" cy="201.9" r="45"/><path d="m185.4,174.2c1.7,2.3,1.3,5.5-1,7.3-.2.1-.3.2-.5.3-2.6,1.9-6.3,1.3-8.2-1.3,0,0,0,0,0-.1-1.8-2.7-1.1-6.4,1.7-8.1,1.6-1.1,3.6-1.3,5.4-.6l-1.1,2.2c-1-.4-2.1-.3-3,.4-1.5.9-2,2.9-1.1,4.4,0,0,0,.2.2.2,1,1.5,3,2,4.5,1,0,0,.2-.1.3-.2,1.1-.6,1.7-1.8,1.4-3l-2.5,1.7-1.2-1.9,4.7-3.1.5.8Z"/><path d="m190.3,172.4l.9,2.7c.2.7.8.5,1.8.2l.7,2.1c-2.9,1.3-4,.6-4.7-1.5l-.9-2.7-1.2.4-.7-2.2,1.2-.4-.5-1.4,2.1-1.4.7,2.1,1.6-.5.7,2.2-1.6.5h-.1Z"/><path d="m201.7,168.4l.6,8-2.4.2v-.8c-.6.7-1.5,1.1-2.4,1.1-2.3,0-4.2-2-4.1-4.3,0-2,1.5-3.7,3.5-4.1.9,0,1.8.2,2.5.8v-.8l2.3-.2h0Zm-2.1,4.2c0-1-.7-1.8-1.7-1.8-.1,0-.2,0-.3,0-1,0-1.8.9-1.8,1.9,0,0,0,.1,0,.2,0,1,.7,1.8,1.7,1.8.1,0,.2,0,.3,0,1,0,1.8-.9,1.8-1.9,0,0,0-.1,0-.2h0Z"/><path d="m212.6,174.5c-.4,2.2-2.5,3.7-4.7,3.3-.9-.2-1.7-.7-2.1-1.5l-.2.7-2.3-.5,2.5-10.9,2.3.5-.9,3.9c.7-.5,1.7-.7,2.5-.4,2.1.6,3.4,2.8,2.8,5h0Zm-2.3-.5c.3-.9-.1-1.9-1-2.2-.1,0-.2,0-.4,0-1-.3-2,.3-2.3,1.3,0,0,0,.1,0,.2-.3.9.1,1.9,1,2.2.1,0,.2,0,.4,0,1,.3,2-.3,2.3-1.3,0,0,0-.1,0-.2Z"/><path d="m216.2,178.6l5.3-1c.8,0,1.5-.4,2.1-.9.4-.5.3-1.3-.2-1.7,0,0,0,0,0,0-.6-.5-1.4-.5-2,0l-1-2.3c1.4-.8,3.2-.8,4.5.2,1.7,1.1,2.2,3.3,1.1,5,0,0,0,0,0,.1-.9,1.1-2.1,1.7-3.5,1.8l-2.6.4,3,2.2-1.4,2-6.2-4.5,1.1-1.5v.2Z"/><path class="cls-2" d="m182.8,238.9c0-.1-.2-.1-.2-.1-1.3-.4-2.2-1.7-2.2-3.1v-44.5c-.1-1.7,1.2-3.2,2.9-3.3,0,0,.1,0,.2,0h31.7c0,.2.2.2.3.2,1.2.5,1.9,1.6,1.9,2.9v3h-11.7c-.2,0-.4,0-.5.3-.5.5-1,1-1.6,1.5-1.8,1.7-4.6,1.7-6.4,0-.5-.4-1-.9-1.4-1.4-.2-.2-.5-.4-.8-.3h-10.9c-.5,0-.6.1-.6.6v37.5c0,.5.2.6.6.6h33.4v3c0,1.3-.7,2.5-1.9,3-.1,0-.3,0-.3.3h-32.5v-.2Zm14.6-3.9h-2.9c-.6,0-.9.3-.9.8s.3.8.9.8h5.8c.4,0,.9-.2,1-.6,0-.4-.2-.9-.6-1-.1,0-.2,0-.4,0h-2.9Zm3.1-44.1c-.8,0-1.5.6-1.5,1.4,0,0,0,0,0,0h0c0,.8.7,1.5,1.5,1.5,0,0,0,0,.1,0,.8,0,1.5-.7,1.5-1.5,0-.8-.6-1.5-1.4-1.5,0,0,0,0,0,0h-.1Zm6.9,44.9c0-.4-.3-.8-.7-.8-.4,0-.8.5-.8.9,0,.4.3.7.7.7,0,0,0,0,0,0,.4,0,.8-.4.8-.8h0Zm-3.8-.8c-.4,0-.7.4-.8.8,0,.4.4.8.8.8.4,0,.7-.4.8-.8,0-.4-.4-.8-.8-.8Z"/><rect class="cls-22" x="182.5" y="189.9" width="35" height="44" rx="2.8" ry="2.8"/><path class="cls-39" d="m215.3,238.9c0-.2.2-.2.3-.3,1.2-.5,2-1.7,1.9-3v-44.7c0-1.3-.7-2.4-1.9-2.9-.1,0-.3,0-.3-.2h2.2c1.7,0,3,1.3,3,3v44c0,1.9-.6,3.4-2.5,4h-2.8.1Z"/><path class="cls-27" d="m197.4,235.1h2.8c.5,0,.9.3,1,.8,0,.5-.5.8-1,.8h-5.8c-.6,0-.9-.3-.9-.8s.3-.8.9-.8h3Z"/><path class="cls-5" d="m207.4,235.8c0,.4-.3.8-.7.8h0c-.4,0-.7-.3-.7-.7,0,0,0,0,0,0,0-.4.4-.8.8-.9.4-.1.7.4.7.8h-.1Z"/><path class="cls-5" d="m203.6,235.1c.4,0,.7.4.8.8,0,.4-.4.8-.8.8s-.8-.4-.8-.8c0-.4.4-.7.8-.8Z"/><g class="cls-7"><path class="cls-18" d="m202.2,207.4h-.6c-.4,0-.8-.2-1.2-.2-.5,0-1-.2-1.5-.3l-1.7-.3h-.3c-.2,0-.3-.2-.2-.5,0-.3.2-.6.4-.8.2-.4.4-.9.6-1.3.1-.3.3-.6.5-.8.3-.4.8-.5,1.2-.2,0,0,.2.1.2.2.2.1.3.3.4.5.3.4.6.8.8,1.3.5.7.9,1.4,1.4,2.2,0,0,0,.1.1.2,0,.2,0,.3-.3.3l.2-.3Z"/><path class="cls-18" d="m203.2,197h.2c.2,0,.3.1.2.3s-.1.2-.2.3c-.5.7-1,1.3-1.6,2s-1,1.2-1.5,1.7c-.2.3-.5.5-.9.6-.4,0-.8,0-1.2-.3-.2-.2-.4-.4-.5-.6-.5-.7-.9-1.4-1.4-2.1-.2-.3-.4-.7-.6-1h0c-.1-.2,0-.4.2-.4,1,0,1.9,0,2.9-.2.8,0,1.7,0,2.5-.2.6,0,1.2,0,1.8-.1h.1Z"/></g><path d="m194.2,221.2c1.1,0,2.2.3,3,1,1.6,1.7,1.6,4.4-.1,6.1-.9.7-2,1.1-3.2,1.1-1,0-2-.2-2.8-.7-.8-.5-1.4-1.2-1.7-2.1l2.7-1.6c.2.8,1,1.3,1.8,1.3.9,0,.8-.1,1-.3.2-.2.4-.5.4-.8,0-.3-.1-.6-.4-.8-.3-.2-.6-.3-1-.3h-3.9l.5-7.2h7.2v3h-4.3v1.3h.8Z"/><path d="m211.8,222.1v1.2c0,1.6-.6,3.2-1.7,4.4-1.2,1.1-2.8,1.8-4.4,1.7-1.7,0-3.4-.6-4.7-1.8-2.4-2.5-2.4-6.5,0-9,1.2-1.2,2.8-1.9,4.5-1.9,1.1,0,2.2.2,3.1.8.9.5,1.6,1.2,2.2,2l-2.7,1.5c-.2-.4-.6-.7-1.1-.9-.5-.2-1.1-.3-1.6-.3-1.7-.1-3.2,1.2-3.3,2.9,0,.1,0,.3,0,.4,0,.9.3,1.7.9,2.4.7.7,1.6,1.1,2.6,1,1.2,0,2.3-.6,2.8-1.6h-3v-2.7h6.4Z"/><circle class="cls-13" cx="200.5" cy="339.8" r="45"/><path d="m163.2,331.5l-.6,2.8,8.5,1.8-.5,2.5-8.5-1.8-.6,2.8-2.4-.5,1.7-8.1,2.4.5Z"/><path d="m167.8,323.4l7.2,3.5-1,2.2-.7-.3c.3.9.3,1.8-.2,2.6-.9,1.9-3.3,2.6-5.5,1.6-2-.9-3-3.2-2.1-5.2,0,0,0,0,0,0,.3-.8,1-1.5,1.9-1.7l-.7-.3,1-2.2h.1Zm2.6,3.9c-.9-.5-2-.1-2.5.8,0,0,0,0,0,.1-.5.9,0,2.1.9,2.6,0,0,0,0,0,0,.9.5,2,.1,2.5-.8,0,0,0,0,0-.1.5-.9,0-2.1-.9-2.6,0,0,0,0,0,0h0Z"/><path d="m178.5,317.1c1.7,1.5,1.9,4,.5,5.7-.6.7-1.4,1.1-2.3,1.1l.5.5-1.6,1.8-8.2-7.6,1.6-1.8,2.9,2.7c0-.9.3-1.7.9-2.4,1.6-1.5,4.1-1.5,5.7,0Zm-1.6,1.8c-.7-.7-1.9-.8-2.7,0,0,0,0,0,0,0-.7.7-.7,1.9,0,2.6,0,0,0,0,.1.1.7.7,1.9.8,2.7,0,0,0,0,0,0,0,.7-.7.7-1.9,0-2.6,0,0,0,0-.1-.1h0Z"/><path d="m175.6,310l2-1.4,6.7,9.6-2,1.4-6.7-9.6Z"/><path d="m188.1,314c.5-.2,1-.7,1.2-1.2l2.2.3c-.3,1.3-1.3,2.4-2.6,2.9-2,1-4.5.2-5.5-1.8,0-.1-.1-.2-.2-.3-.9-2.2,0-4.7,2.2-5.6,0,0,0,0,0,0,2-.9,4.4,0,5.3,2,0,0,0,.2.1.3l.3.9-5.2,2.2c.6.5,1.5.7,2.2.3Zm.2-3.3c-.5-.7-1.4-.9-2.1-.5-.8.3-1.2,1.1-1.1,1.9l3.2-1.4Z"/><path d="m195,308.1l.5,2.8c.1.7.7.6,1.7.4l.4,2.1c-3,.9-4.1.1-4.5-2.1l-.5-2.8-1.3.2-.4-2.3,1.3-.2-.3-1.5,2.2-1.1.4,2.2,1.6-.3.4,2.3-1.6.3h.1Z"/><path d="m198.6,307.4l6.1.2v2.3l-6.1-.2v-2.3Z"/><path d="m215.1,312.3c-.5,2.1-2.7,3.4-4.8,2.9,0,0,0,0,0,0-.9-.2-1.6-.8-2-1.6l-.2.7-2.3-.7,3.3-10.7,2.3.7-1.2,3.8c.8-.4,1.7-.5,2.6-.2,2.1.7,3.2,3,2.4,5.1,0,0,0,0,0,0h0Zm-2.3-.7c.4-.9,0-2-1-2.3,0,0-.1,0-.2,0-1-.3-2,.2-2.4,1.2,0,0,0,0,0,0-.4.9,0,2,1,2.3,0,0,.1,0,.2,0,1,.3,2-.2,2.4-1.2,0,0,0,0,0,0Z"/><path d="m216.3,312.9c1.3-1.9,3.9-2.4,5.8-1.2,0,0,0,0,0,0,1.9,1.2,2.5,3.8,1.3,5.7,0,0-.1.2-.2.2-1.3,1.9-3.9,2.4-5.8,1.2,0,0,0,0,0,0-1.9-1.2-2.5-3.8-1.3-5.7,0,0,.1-.2.2-.2Zm5,3.4c.6-.9.4-2-.5-2.6-.9-.6-2-.4-2.6.5-.6.8-.5,1.8.3,2.4,0,0,.1.1.2.2.8.6,2,.4,2.6-.4,0,0,0,0,0,0h0Z"/><path d="m235.4,320.7l-8.7,7.1-1.5-1.9.6-.5c-.9,0-1.7-.5-2.3-1.2-1.3-1.8-.9-4.3.9-5.6,0,0,0,0,0,0,1.7-1.5,4.2-1.3,5.7.3.6.7.9,1.6.7,2.5l3.1-2.5,1.5,1.9h0Zm-7.1,2.7c.8-.6,1-1.7.4-2.6,0,0,0,0-.1-.1-.6-.8-1.6-1-2.4-.4,0,0-.2.1-.3.2-.8.6-1,1.7-.4,2.6,0,0,0,0,.1.1.6.8,1.6,1,2.4.4,0,0,.2-.1.3-.2h0Z"/><path d="m237.5,332.5l-8.2.6c-2.7.2-4.2-.7-5-2.8l2.1-.9c.2.9,1.1,1.5,2,1.3l5.8-5.9,1,2.4-3.8,3.6,5.1-.6,1,2.4h0Z"/><path d="m241.8,338.4l-11,2-.5-2.5,8.4-1.5-.9-1.9,2-1,1.6,2.7.4,2.2Z"/><path class="cls-26" d="m200.5,327.2h12.4c1.9,0,3.5,1.4,3.6,3.4,0,0,0,0,0,0v34.4c0,1.4-.7,2.7-1.9,3.3-.3.2-.7.2-1,.4h-13.1v-2.4h12.2c.9,0,1.3-.4,1.3-1.2v-34.3c0-.9-.4-1.2-1.3-1.2h-12.2v-2.4Z"/><path class="cls-38" d="m200.5,366.1v2.4h-13.2c-.1-.2-.4-.2-.5-.2-1.3-.5-2.2-1.7-2.2-3.1v-34.4c-.1-1.4.7-2.7,2-3.3.4-.2.8-.3,1.2-.3h12.7v2.4h-12.2c-.9,0-1.3.3-1.3,1.3v34c0,.9.3,1.3,1.3,1.3h12.2Z"/><path class="cls-17" d="m200.5,329.6h12.2c.9,0,1.3.4,1.3,1.2v34c0,.9-.4,1.2-1.3,1.2h-12.2v-2.5h3.5c.5,0,1.1-.4,1.1-.9.2-.7-.2-1.4-.9-1.6-.1,0-.3,0-.4,0h-3.3v-9.8c.7,0,1.2-.6,1.2-1.3,0,0,0,0,0,0v-4.1c0-.7-.4-1.3-1.1-1.4,0,0,0,0,0,0v-9.8h1.7c.6,0,1.2-.5,1.2-1.1,0,0,0,0,0,0h0c0-.6-.5-1.2-1.1-1.2,0,0,0,0,0,0h-1.7v-2.5h0Zm5.9,18.3v-3.8c0-.5-.2-.9-.6-1.2-.5-.4-1.3-.2-1.6.3-.1.2-.2.5-.2.8v7.5c0,.5.2,1,.6,1.3.6.3,1.3.1,1.7-.5.1-.2.2-.5.1-.7v-3.7h0Zm4.7,0v-1c0-.6-.5-1.2-1.1-1.2,0,0,0,0,0,0h0c-.6,0-1.2.4-1.2,1.1,0,0,0,0,0,0v2.1c0,.6.5,1.1,1.1,1.1,0,0,.1,0,.2,0,.6,0,1.1-.6,1.1-1.2v-1h0Z"/><path class="cls-6" d="m200.5,329.6v2.5h-1.6c-.6,0-1.2.4-1.3,1.1,0,0,0,0,0,.1,0,.7.6,1.2,1.3,1.2,0,0,0,0,0,0h1.6v9.8h0c-.8,0-1.2.7-1.2,1.5v3.9c0,.7.5,1.4,1.2,1.5h0v9.9h-3.3c-.6,0-1.2.4-1.3,1.1,0,0,0,0,0,.1,0,.7.6,1.2,1.3,1.2,0,0,0,0,0,0h3.3v2.5h-12.2c-.9,0-1.3-.3-1.3-1.3v-33.8c0-.9.3-1.3,1.3-1.3h12.2Zm-3.6,18.2v-5.9c-.2-.5-.7-.8-1.3-.8-.6,0-1,.6-1,1.2v10.9c0,.6.5,1.2,1.1,1.2,0,0,0,0,0,0h0c.6,0,1.1-.5,1.1-1.1,0,0,0-.1,0-.2v-5.3h0Zm-4.7,0v-2.2c0-.7-.5-1.2-1.2-1.2-.7,0-1.2.5-1.2,1.2h0v4.3c0,.7.5,1.2,1.2,1.2.7,0,1.2-.5,1.2-1.2h0v-2.1Z"/><path class="cls-29" d="m206.4,347.9v3.8c0,.7-.4,1.3-1.1,1.3-.3,0-.5,0-.7-.1-.4-.3-.7-.8-.6-1.3v-7.5c0-1.1,1-1.7,1.8-1.1.4.3.6.7.6,1.2v3.7Z"/><path class="cls-41" d="m200.5,361.2h3.3c.7,0,1.3.5,1.3,1.2,0,.1,0,.3,0,.4,0,.4-.6.8-1.1.9h-3.5v-2.4h0Z"/><path class="cls-19" d="m211.1,347.9v1c0,.7-.5,1.2-1.2,1.2-.6,0-1.1-.5-1.2-1.1v-2.1c0-.6.5-1.1,1.2-1.1,0,0,0,0,0,0,.6,0,1.2.5,1.2,1.1,0,0,0,0,0,0h0v.9Z"/><path class="cls-9" d="m200.5,344.4c.7,0,1.2.6,1.2,1.3,0,0,0,0,0,0v4.1c0,.7-.4,1.3-1.1,1.4,0,0,0,0,0,0h0v-6.9h0Z"/><path class="cls-41" d="m200.5,332.1h1.7c.6,0,1.1.4,1.2,1,0,0,0,.1,0,.2,0,.6-.5,1.2-1.1,1.2,0,0,0,0,0,0h-1.7v-2.4h0Z"/><path class="cls-37" d="m196.9,347.8v5.4c0,.7-.4,1.2-1.1,1.3-.7,0-1.2-.5-1.3-1.2h0v-10.9c0-.6.4-1.1,1-1.2.6,0,1.1.3,1.3.8v5.9h.1Z"/><path class="cls-37" d="m192.2,347.9v2.1c0,.7-.5,1.2-1.2,1.2-.7,0-1.2-.5-1.2-1.2h0v-4.3c0-.7.5-1.2,1.2-1.2.7,0,1.2.5,1.2,1.2h0v2.2Z"/><path class="cls-23" d="m200.5,361.2v2.4h-3.3c-.6,0-1.2-.4-1.3-1.1,0,0,0,0,0-.1,0-.7.6-1.2,1.3-1.2,0,0,0,0,0,0h3.3Z"/><path class="cls-28" d="m200.5,344.4v6.9c-.8,0-1.2-.7-1.2-1.5v-3.9c0-.7.5-1.4,1.2-1.5Z"/><path class="cls-25" d="m200.5,332.1v2.4h-1.6c-.7,0-1.2-.5-1.2-1.2,0-.7.5-1.2,1.2-1.2h1.6Z"/><path d="m198.8,334.5h5.7v25.9h-6.6v-18.9l-4.5,1.1-1.6-5.6,7-2.5Z"/><circle class="cls-13" cx="200" cy="60.2" r="45"/><path d="m169.9,57.1v2c-.1,0-5.1-.3-5.1-.3l3.5,2.4v.2l-3.8,2,5,.3v2c-.1,0-8.7-.5-8.7-.5v-2c.1,0,4.1-2.1,4.1-2.1l-3.7-2.5v-2c.1,0,8.7.5,8.7.5Z"/><path d="m169.9,52.8c.2-.5.1-.9,0-1.3l1.3-1.1c.6.8.7,1.8.3,2.9-.7,2-2.4,2.8-4.2,2.2-1.7-.6-2.6-2.3-2-4.1.6-1.7,2.3-2.5,4.1-1.9.2,0,.5.2.7.3l-1.4,4.1c.7,0,1.1-.5,1.3-1.1h-.1Zm-1.8-1.8c-.7,0-1.2.4-1.3.9-.2.7,0,1.2.5,1.6l.8-2.5Z"/><path d="m168.5,40.2l7.3,4.5-1,1.6-.5-.3c.2.6.1,1.2-.3,1.9-.8,1.4-2.7,1.8-4.3.8-1.6-1-2.1-2.8-1.2-4.2.4-.7,1-1.1,1.6-1.2l-2.6-1.6,1-1.6h0Zm3.7,4.5c-.8-.5-1.6-.3-2,.5-.4.7-.3,1.5.5,2s1.6.3,2-.5.3-1.5-.5-2Z"/><path d="m170.6,39c-.5-.4-.5-1.1-.1-1.6s1.1-.5,1.6-.1.5,1.1.1,1.6-1.1.5-1.6.1Zm1.4.9l1.2-1.4,4.6,4-1.2,1.4-4.6-4Z"/><path d="m179.3,33l3.9,4.7-1.4,1.2-.4-.4c0,.6-.3,1.2-.9,1.7-1.2,1-3.2.8-4.3-.6-1.1-1.4-1-3.3.2-4.4.6-.5,1.3-.7,1.9-.6l-.4-.4,1.4-1.2Zm.5,3.5c-.6-.7-1.4-.8-2.1-.2-.7.5-.8,1.4-.2,2.1.6.7,1.4.8,2.1.2.7-.5.8-1.4.2-2.1Z"/><path d="m182,33.2l4.1-2.1.8,1.6-4.1,2.1-.8-1.6Z"/><path d="m197.5,32.7l-1.9.4-1.1-4.9-1.4,4h-.2l-3-3,1.1,4.9-1.9.4-1.9-8.4,1.9-.4,3.1,3.2,1.4-4.2,1.9-.4,1.9,8.4h.1Z"/><path d="m204.4,26.9l-.3,6.1h-1.8v-.7c-.3.4-1,.7-1.8.7-1.2,0-2.3-1-2.2-2.6l.2-3.8h1.8v3.6c0,.8.3,1.1.9,1.2.7,0,1.2-.3,1.2-1.2v-3.3c0,0,2,0,2,0Z"/><path d="m207,24.5l1.8.4-1.8,8.8-1.8-.4,1.8-8.8Z"/><path d="m211.7,30.5l-.7,2.1c-.2.5.2.7,1,.9l-.5,1.6c-2.4-.5-2.8-1.4-2.2-3.1l.7-2.1-.9-.3.6-1.7.9.3.4-1.1h1.9l-.5,1.7,1.2.4-.6,1.7-1.2-.4h-.1Z"/><path d="m214.9,29.9l1.7.8-2.6,5.5-1.7-.8,2.6-5.5Zm.5-1.6c.3-.5.9-.8,1.5-.5.5.3.8.9.5,1.5-.3.5-.9.8-1.5.5-.5-.3-.8-.9-.5-1.5Z"/><path d="m219,35.6c1.2-1.4,3.1-1.6,4.6-.4.9.8,1.3,1.9,1.1,3l-1.8-.3c0-.5,0-.9-.5-1.3-.6-.5-1.4-.4-2,.2-.5.7-.5,1.5.2,2,.4.3.9.4,1.4.2l.7,1.7c-1,.4-2.2.2-3.1-.5-1.4-1.2-1.6-3.2-.4-4.6h-.2Z"/><path d="m230.6,43.1l-4.8,3.8-1.1-1.4.5-.4c-.6,0-1.2-.3-1.7-1-1-1.3-.7-3.2.7-4.3,1.4-1.1,3.4-1,4.4.3.5.6.7,1.3.5,1.9l.5-.4,1.1,1.4h0Zm-3.5.5c.7-.6.8-1.4.3-2.1-.5-.7-1.4-.8-2.1-.2-.7.6-.8,1.4-.3,2.1s1.4.8,2.1.2Z"/><path d="m233.3,54.6l-3.5,1.4-.7-1.7,3.3-1.4c.6-.2.8-.7.6-1.2-.2-.6-.8-.7-1.4-.4l-3.2,1.3-.7-1.7,3.3-1.4c.6-.2.8-.7.6-1.2-.2-.6-.8-.7-1.4-.4l-3.2,1.3-.7-1.7,5.7-2.3.7,1.7-.5.2c.5,0,1,.5,1.3,1.2s.2,1.3,0,1.8c.6,0,1.1.5,1.4,1.3.5,1.3,0,2.5-1.5,3.1h0Z"/><path d="m231.6,59.7c0,.5.3.9.6,1.1l-.7,1.6c-.9-.5-1.4-1.3-1.6-2.5-.2-2.1,1-3.5,2.8-3.8,1.8-.2,3.4.9,3.6,2.9.2,1.8-1,3.3-2.8,3.5h-.7l-.5-4.3c-.6.3-.8.9-.7,1.6h0Zm2.3.9c.7-.3.9-.9.8-1.4,0-.7-.5-1.1-1.1-1.2l.3,2.6Z"/><path d="m236.4,67.5h-2.1c.2-.9,0-2-1.3-2l-2.8-.2v-1.8c0,0,6.2.4,6.2.4v1.8h-1.2c.8.3,1.1,1.1,1.1,1.9h.1Z"/><path d="m234.6,75.1l-5.9-1.5.4-1.8h.6c-.4-.4-.5-1-.3-1.8.4-1.6,2.1-2.5,3.8-2.1,1.8.4,2.8,2.1,2.4,3.6-.2.8-.6,1.3-1.2,1.6h.6c0,0-.4,1.9-.4,1.9h0Zm-2.5-2.5c.9.2,1.6-.2,1.8-1.1.2-.8-.2-1.6-1.1-1.8-.9-.2-1.6.2-1.8,1.1-.2.8.2,1.6,1.1,1.8Z"/><path class="cls-35" d="m208.5,92.4h-18.1c-.4-1.5-1.2-2.8-2.2-3.9-.3-.3-.3-.4,0-.7,1.3-1.3,2.6-2.5,3.8-3.8,1.2-1.2,1.5-2.9.9-4.4,0-.6,0-1.3,0-1.9-.6-2.3-2.9-3.7-5.1-3.1-.8.2-1.4.6-2,1.1-2.3,2.2-4.5,4.5-6.8,6.8-.4.4-.9.9-1.4,1.3v-35.1c0-1.5.9-2.9,2.3-3.4.4,0,.8-.2,1.3-.2h35.8c2.2,0,3.6,1.4,3.6,3.6v26.5h-8.4c-1.4,0-2.8.8-3.3,2.1-.7,1.6,0,3.6,1.4,4.2h0c.2.5.6.4.8.7-1.8.4-3,2.2-2.5,4.1.2.9.8,1.7,1.6,2.2h0c.2.4.6.4.8.6-1.6.4-2.6,1.8-2.6,3.4h0Zm-6-32.6v-8.5c0-1-.7-1.9-1.7-1.9h-17c-1.3,0-2.1.7-2.1,2v16.7c0,1,.7,1.8,1.7,1.9h17.2c.9,0,1.7-.6,1.8-1.5v-8.8h.1Zm7.7-5.2h3.1q1.3,0,1.3-1.3c0-.4,0-.5-.5-.5h-6.9q-1.3,0-1.3,1.3c0,1.3,0,.5.5.4h3.8Zm3.1-5.2h-2.7q-1.2,0-1.2,1.3c0,.4.2.5.5.5h5.9q1.3,0,1.3-1.4c0-.3,0-.4-.4-.4h-3.4,0Zm-7.4.8c0,1-.2.9.8.9s.9-.3.9-.9q0-.9-.9-.9c-.9,0-.8,0-.8.8h0Z"/><path class="cls-21" d="m177.6,83.8c.5-.4.9-.9,1.4-1.3,2.3-2.3,4.5-4.5,6.8-6.8,1.6-1.7,4.3-1.7,6,0,.6.5.9,1.2,1.1,2,0,.6.2,1.3,0,1.9-.3.9-.8,1.8-1.5,2.5-2,1.9-3.9,3.9-5.8,5.8-.3.3-.3.4,0,.7,1,1.1,1.8,2.5,2.2,3.9h-13.2c-.2,0-.4,0-.4-.2,0-1.3-.1-2.5.2-3.7.3-1.2.9-2.3,1.7-3.1l1.5-1.5v-.2Z"/><path class="cls-12" d="m210.2,81.6c-1.4-.6-2.1-2.7-1.4-4.2.5-1.3,1.9-2.2,3.3-2.1h8.4c1.9.2,3,1.1,3.4,2.8-.2,0-.2,0-.2.2-.4.9-1.1,1.6-2,1.9-.6.2-1.2.3-1.8.3h-8.4c-1,0-1.2,0-1.3,1.1Z"/><path class="cls-21" d="m210.2,88.5c-1.6-.9-2.2-3-1.3-4.6.5-.8,1.3-1.4,2.2-1.6.4,0,.7,0,1.1-.2h8.8c.7.2,1.4.6,1.9,1,.5.5.8,1.1,1,1.8,0,0-.2,0-.2.2-.7,1.7-2.1,2.2-3.7,2.2h-8.6c-1,0-1.2.2-1.2,1.2Z"/><path class="cls-21" d="m208.5,92.4c0-1.6,1.1-3,2.6-3.3.2,0,.5,0,.7,0,3.1,0,6.3,0,9.4,0,0,.2.2.2.3.2,1.2.4,2.1,1.3,2.4,2.6.2.7,0,.8-.6.8h-14.8v-.2Z"/><path class="cls-43" d="m187.8,92.4c-.4-1.5-1.1-2.8-2.2-3.9-.3-.3-.3-.4,0-.7,2-1.9,3.9-3.9,5.8-5.8.7-.7,1.2-1.5,1.5-2.5.6,1.5.3,3.3-.9,4.4-1.3,1.3-2.6,2.6-3.8,3.8-.3.3-.3.4,0,.7,1,1.1,1.8,2.5,2.2,3.9h-2.6Z"/><path class="cls-3" d="m221.2,88.9c-3.1.2-6.3,0-9.4,0s-.5,0-.7,0c-.3-.2-.6-.2-.8-.5h0c0-1.1.2-1.3,1.2-1.3h8.6c1.7,0,3-.5,3.7-2.2,0,0,0-.2.2-.2.2,2-.7,3.4-2.4,4h-.4Z"/><path class="cls-3" d="m221,82.1h-8.8c-.4,0-.7,0-1.1.2-.2-.2-.6-.2-.8-.6h0c0-1.1.2-1.3,1.3-1.3h8.4c.6,0,1.2,0,1.8-.3.9-.3,1.6-1,2-1.9,0,0,0-.2.2-.2.4,1.8-.7,3.5-2.5,4h-.4Z"/><path class="cls-24" d="m202.5,59.8v8.5c0,.9-.6,1.7-1.5,1.8h-17.2c-1,0-1.8-.7-1.9-1.7v-17c0-1.3.7-2,2.1-2h16.7c1,0,1.9.6,1.9,1.6v8.8h-.1Zm-11.2,4.3c0-1.9-1.5-3.4-3.4-3.4s-3.4,1.5-3.4,3.4,1.5,3.4,3.4,3.4h0c1.9,0,3.4-1.5,3.4-3.4Zm0-8.6c0-1.9-1.5-3.4-3.4-3.4s-3.4,1.5-3.4,3.4,1.5,3.4,3.4,3.4,3.4-1.5,3.5-3.3h0Zm5.1,3.4c1.9,0,3.4-1.5,3.4-3.4s-1.5-3.4-3.4-3.4-3.4,1.5-3.4,3.4h0c0,1.9,1.5,3.4,3.4,3.4h0Zm2.6,5.2v-1.6c0-.5-.3-.9-.7-1h-3.5c-.4,0-.9.3-.9.7v3.5c0,.5.3.9.8.9h3.5c.5,0,.9-.3.9-.8h0v-1.7h0Z"/><path class="cls-30" d="m210.2,54.6h-3.8c-.3,0-.5,0-.5-.4,0-.9.4-1.3,1.3-1.3h6.9c.4,0,.5,0,.5.5,0,.9-.4,1.3-1.3,1.3h-3.1Z"/><path class="cls-33" d="m213.2,49.4h3.4c.3,0,.4,0,.4.4q0,1.4-1.3,1.4h-5.9c-.4,0-.5,0-.5-.5,0-.9.4-1.3,1.2-1.3h2.7Z"/><path class="cls-33" d="m205.9,50.3c0-.5.3-.8.8-.8s.8.3.9.9q0,.9-.9.9c-1,0-.8,0-.8-.9h0Z"/><path class="cls-12" d="m210.2,81.6h0c0,0,0,0,0,0Z"/><path class="cls-31" d="m191.3,64.1c0,1.9-1.6,3.4-3.5,3.4s-3.4-1.6-3.4-3.5,1.6-3.4,3.4-3.4,3.4,1.6,3.4,3.5h0Zm-5.1-.5v.4c0,.8.5,1.4,1.2,1.7.9.3,1.9-.2,2.2-1.1.2-.5,0-1.1-.2-1.5-.4-.5-1.1-.8-1.7-.6-1.1,0-1.4.3-1.4,1.2h0Z"/><path class="cls-31" d="m191.3,55.5c0,1.9-1.5,3.4-3.4,3.4s-3.4-1.5-3.4-3.4,1.5-3.4,3.4-3.4h0c1.9,0,3.4,1.5,3.4,3.4h0Zm-5-.3c-.2.6,0,1.3.6,1.7s1.4.4,2,0c.5-.4.8-1,.7-1.7,0-.9-.9-1.5-1.8-1.4h-.2c-.5-.2-1.1,0-1.3.6v.7h0Z"/><path class="cls-31" d="m196.4,58.9c-1.9,0-3.4-1.6-3.4-3.5s1.6-3.4,3.5-3.4,3.4,1.6,3.4,3.4-1.6,3.4-3.5,3.4h0Zm-1.6-3.7c-.3.4,0,.8.2,1.2.4.6,1.1,1,1.8.8.7,0,1.2-.7,1.3-1.3.2-.8-.2-1.5-.9-1.9-.4-.2-.8-.3-1.3-.2-.9,0-1.4.6-1.2,1.4h.1Z"/><path class="cls-4" d="m199,64.1v1.7c0,.5-.3.9-.8.9h-3.4c-.5,0-.9-.3-.9-.8v-3.5c0-.4.3-.9.7-.9h3.5c.5,0,.9.3.9.8v.2c0,.5,0,1.1,0,1.6Zm-3-.4h1.6c.3,0,.5,0,.5-.5s-.3-.3-.5-.3h-1.3c0-.3-.3-.4-.5-.5-.4,0-.8.3-1,.7-.2.2,0,.6,0,.8.4.3.7,0,1,0h.1Zm.4,1.7h1.3c.2,0,.4-.2.4-.4h0c0-.3-.2-.4-.4-.4h-2.5c-.2,0-.4,0-.4.3h0c0,.2.2.4.4.4h1.3,0Z"/><path class="cls-42" d="m187.5,62.4c.6-.2,1.3,0,1.7.6.6.8.4,1.9-.4,2.4-.4.3-1,.4-1.5.2-.7-.3-1.2-.9-1.2-1.7v-.4c.2.3.5.4.9.3,0,.8.5,1.2,1.1,1,.4-.2.7-.6.5-1.1,0-.4-.6-.7-1-.6,0-.3,0-.6,0-.8h0Z"/><path class="cls-36" d="m187.5,62.4c.2.2.2.5,0,.8,0,.3-.4.5-.6.7-.3,0-.7,0-.9-.3,0-.9.3-1.2,1.4-1.2Z"/><path class="cls-42" d="m187.6,53.9c.9-.2,1.7.3,2,1.2v.2c0,.6-.2,1.3-.7,1.7-.6.4-1.4.4-2,0-.5-.4-.8-1.1-.6-1.7.2.2.5.2.8,0,0,.8.5,1.2,1.1,1,.4,0,.6-.5.6-.9s-.4-.7-1.1-.7c0-.3,0-.6,0-.8h0Z"/><path class="cls-36" d="m187.1,55.3c-.3,0-.6,0-.8,0-.2-.5,0-1.1.6-1.3h.7c.2.2.2.5,0,.8-.2.2-.4.5-.6.6Z"/><path class="cls-42" d="m196,53.8c.4,0,.9,0,1.3.2.7.4,1,1.1.9,1.9-.2.6-.7,1.1-1.3,1.3-.7,0-1.4-.2-1.8-.8-.2-.4-.4-.7-.2-1.2.2,0,.5.2.8.2,0,.4,0,.8.6.9.4,0,.9,0,1-.4.3-.6,0-1.1-1-1.2,0-.3,0-.7-.3-.9Z"/><path class="cls-36" d="m196,53.8c.3.2.4.6.3.9-.2.3-.4.5-.7.7-.3,0-.5,0-.8-.2-.3-.8.3-1.4,1.2-1.4Z"/><path class="cls-32" d="m196.4,65.3h-1.3c-.2,0-.4,0-.4-.3h0c0-.2,0-.4.3-.4h2.5c.2,0,.4,0,.4.4s0,.4-.4.4h-1.3.2Z"/><path class="cls-8" d="m196,63.6h0c-.3.2-.6.4-1,0-.2-.2-.3-.5,0-.8.2-.4.5-.7,1-.7s.5.2.5.5,0,.6-.3.8h-.1Z"/><path class="cls-32" d="m196,63.6c.2-.2.3-.5.3-.8h1.3c.2,0,.5,0,.5.3s-.2.5-.5.5h-1.6Z"/><path class="cls-31" d="m187,63.9c.2-.2.5-.4.6-.7.4,0,.9,0,1,.6.2.4,0,.9-.5,1.1-.6.2-1.1-.2-1.1-1Z"/><path class="cls-31" d="m187.1,55.3l.6-.6c.6,0,1,.2,1.1.7,0,.4-.2.8-.6.9-.6.2-1.1-.3-1.1-1Z"/><path class="cls-31" d="m195.6,55.3c.3-.2.5-.4.7-.7.8,0,1.2.5,1,1.2-.2.4-.6.6-1,.4-.5,0-.6-.5-.6-.9h-.1Z"/></svg>