<?xml version="1.0" encoding="UTF-8"?><svg id="Layer_1" xmlns="http://www.w3.org/2000/svg" viewBox="0 0 400 263"><defs><style>.cls-1{fill:#fcfcfd;}.cls-2{fill:#68d4f0;}.cls-3{fill:#cbcbcb;}.cls-4{fill:#3f5c6c;}.cls-5{fill:#f2a745;}.cls-6{stroke:#c000e2;}.cls-6,.cls-7{stroke-width:4px;}.cls-6,.cls-7,.cls-8{stroke-miterlimit:10;}.cls-6,.cls-7,.cls-8,.cls-9{fill:none;}.cls-10{fill:#f66c82;}.cls-11{fill:#54747f;}.cls-12{fill:#636c77;}.cls-13{fill:#364a5f;}.cls-14{fill:#fbcc57;}.cls-7{stroke:#00b51e;}.cls-15{fill:#6bc048;}.cls-8{stroke:#231f20;stroke-width:2px;}.cls-16{fill:#c5deea;}.cls-17{fill:#f0f1ef;}.cls-18{fill:#f0f1f0;}.cls-19{fill:#073856;}.cls-20{fill:#c3dbe6;}.cls-21{fill:#999;}.cls-22{fill:#3b97d2;}.cls-23{fill:#bdc3c7;}.cls-24{fill:#f1f1f1;}.cls-25{fill:#edcd67;}.cls-26{fill:#559a38;}.cls-27{fill:#db411d;}.cls-28{fill:#231f20;}.cls-29{fill:#666;}.cls-30{fill:#69d4f0;}.cls-31{fill:#b72b06;}.cls-32{fill:#edcb61;}</style></defs><line class="cls-9" x1="200.3" y1="118.4" x2="200.8" y2="151.2"/><line class="cls-8" x1="200.3" y1="118.4" x2="200.6" y2="140.5"/><polygon class="cls-28" points="193.1 138.4 200.8 151.2 208.1 138.2 193.1 138.4"/><line class="cls-9" x1="118.7" y1="114.2" x2="167.3" y2="153.5"/><line class="cls-8" x1="118.7" y1="114.2" x2="159" y2="146.7"/><polygon class="cls-28" points="152.6 151.2 167.3 153.5 162 139.5 152.6 151.2"/><line class="cls-9" x1="281.3" y1="114.2" x2="232.7" y2="153.5"/><line class="cls-8" x1="281.3" y1="114.2" x2="241.1" y2="146.7"/><polygon class="cls-28" points="238.1 139.5 232.7 153.5 247.5 151.2 238.1 139.5"/><circle class="cls-6" cx="200" cy="67" r="45"/><path d="m159.5,67.2l.6-2.5h7.6c0,0-6.7-3.7-6.7-3.7l.4-1.9,7.6-.3-6.8-3.4.6-2.5,9.6,5.2-.6,2.7-6.4.3,5.7,3.1-.6,2.7-10.9.5v-.2Z"/><path d="m171.1,45.5l6.3,4.1-1.2,1.9-.6-.4c.2.8,0,1.7-.4,2.4-1.4,1.7-3.9,2-5.6.7-1.5-1.2-1.9-3.3-1.1-5,.4-.7,1.2-1.3,2-1.4l-.6-.4,1.2-1.9Zm1.9,3.9c-.7-.6-1.8-.4-2.4.3,0,0,0,.1-.1.2-.6.7-.4,1.8.3,2.3,0,0,.2.1.3.2.7.6,1.8.4,2.4-.3,0,0,0-.1.1-.2.6-.7.4-1.8-.3-2.3,0,0-.2-.1-.3-.2Z"/><path d="m176.6,43.1l1.9,1.9c.5.5.9,0,1.6-.6l1.4,1.5c-1.9,2.3-3.1,2.2-4.6.7l-1.9-1.9-.9.8-1.5-1.5.9-.8-1-1,1.1-2.1,1.5,1.5,1.1-1.1,1.5,1.5-1.1,1.1Z"/><path d="m179.5,42.4c-1.2-1.8-.7-4.3,1.1-5.5,0,0,0,0,0,0,1.2-.8,2.7-.8,3.9-.2l-1,2c-.8-.5-1.8-.2-2.3.6-.3.6-.3,1.3,0,1.8.4.8,1.4,1.1,2.2.7,0,0,.2,0,.2-.2.6-.3.9-.9.8-1.5h2.3c0,1.3-.7,2.6-1.8,3.3-1.8,1.2-4.2.7-5.4-1.1,0,0,0,0,0-.1v.2Z"/><path d="m193.4,34.9l1.4,4.4-2.1.7-1.3-4.1c-.2-.7-1-1.1-1.7-.9-.7.2-1.1,1-.9,1.7,0,0,0,.1,0,.2l1.3,3.9-2.1.7-3.3-10,2.1-.7,1.2,3.5c.3-.8.9-1.3,1.7-1.5,1.4-.5,3,.2,3.5,1.6,0,.1,0,.3.1.5Z"/><path d="m195.4,33.6l5.7-.4.2,2.2-5.7.4-.2-2.2Z"/><path d="m202.5,36.3l2.2-.8c.2.9.9,1.7,1.9,1.8,1.1.2,1.5-.2,1.5-.6.1-.6-.4-1-1.9-1.7s-2.8-1.7-2.5-3.7c.3-1.8,2-3,3.8-2.6,0,0,.1,0,.2,0,1.6.2,3,1.4,3.4,3l-2.2.8c-.1-.8-.8-1.4-1.6-1.5-.7,0-1.2.2-1.2.6s.1.8,1.6,1.6,3.2,1.6,2.8,3.8c-.3,2-2.1,2.9-4.4,2.5s-3.4-1.6-3.7-3.3h0Z"/><path d="m214.9,40.2c.5.3,1,.3,1.5,0l1.2,1.7c-1.1.6-2.5.6-3.6,0-2-.8-3-3.2-2.2-5.2,0,0,0-.1,0-.2.9-2,3.2-2.8,5.2-2,0,0,0,0,.1,0,1.9.9,2.7,3.2,1.8,5.1,0,0,0,0,0,0-.1.3-.3.6-.5.8l-4.8-2.3c0,.8.5,1.5,1.2,1.7v.2Zm2.4-1.9c.2-.7-.2-1.5-.9-1.8-.7-.4-1.5-.2-2,.4l2.9,1.4Z"/><path d="m226.4,45l-3,3.5-1.7-1.5,2.8-3.3c.5-.5.5-1.3,0-1.8,0,0,0,0,0,0-.6-.5-1.5-.4-2,.2,0,0,0,0-.1.1l-2.7,3.1-1.7-1.5,4.9-5.7,1.7,1.5-.5.5c.8-.2,1.7,0,2.2.7,1.2,1,1.4,2.6.1,4.2h.1Z"/><path d="m229.2,52.6c-1.4,1-2.9.2-3.8-1.1-.9-1-1.1-2.5-.4-3.7l2,.9c-.4.5-.4,1.1,0,1.6.3.4.6.6.9.4.7-.5-1.9-3.2.3-4.7,1.3-1,2.8-.3,3.7.9.7.9.9,2.2.4,3.3l-2-.9c.2-.4.2-.8,0-1.2-.1-.3-.4-.4-.7-.3-.7.5,1.9,3.2-.3,4.8h0Z"/><path d="m231,52.6c2-.9,4.3,0,5.1,2,0,0,0,.1,0,.2.9,1.9,0,4.2-1.9,5.1,0,0-.1,0-.2,0-2,.9-4.4-.1-5.2-2.2-.9-2,.1-4.4,2.1-5.2h0Zm2.2,5.3c.9-.4,1.3-1.4.9-2.3-.4-.9-1.4-1.3-2.3-.9-.9.4-1.3,1.4-.9,2.3.3.9,1.3,1.3,2.2.9,0,0,0,0,.1,0Z"/><path d="m238.8,65.2l-2.5.4c0-1-.6-1.8-1.6-1.9-.2,0-.4,0-.5,0l-3.3.6-.4-2.2,7.4-1.3.4,2.2-1.3.2c1,.2,1.7,1,1.8,2Z"/><path d="m233.5,72.7c-1.7,0-2.4-1.5-2.4-3.2-.1-1.3.6-2.6,1.8-3.2l1.1,2c-.6.2-1,.7-.9,1.3,0,.5.2.8.5.8.8,0,.5-3.7,3-3.6,1.6,0,2.4,1.4,2.4,3,0,1.2-.6,2.3-1.7,2.9l-1-1.9c.4-.2.7-.6.7-1,0-.4-.1-.6-.4-.6-.9,0-.3,3.7-3.1,3.6h0Z"/><path class="cls-12" d="m203.2,62.9h4.6c1.5,0,2.8,1,2.9,2.5,0,.1,0,.2,0,.4v15.4c0,2.1-1.1,3.2-3.1,3.2h-15.1c-1.5.2-2.9-.9-3.1-2.5,0-.2,0-.4,0-.6v-15.1c0-2.1,1.1-3.2,3.1-3.2h10.7Zm1,6.1v-1.4c0-.4-.4-.6-.8-.6-.4,0-.7.3-.8.6v1.1h-1.7v-.9c0-.4-.3-.8-.8-.8,0,0,0,0,0,0-.4,0-.8.4-.8.8v.9h-1.7v-.9c0-.4-.4-.8-.8-.8s-.8.4-.8.8h0v1.2l-.5.5h-1.1c-.5,0-.9.3-.9.7,0,0,0,0,0,0,0,.5.4.8.9.8h.8v1.7h-.9c-.4,0-.8.4-.8.8,0,.4.4.8.8.8h.9v1.7h-.8c-.4,0-.8.3-.8.7,0,0,0,0,0,.1,0,.4.3.8.8.8,0,0,0,0,0,0h1.2l.5.5v1.3c0,.4.4.7.8.7.4,0,.7-.3.8-.7v-1h1.7v.9c0,.4.4.8.8.8s.8-.4.8-.8v-.9h1.7v.9c0,.4.4.8.8.8s.8-.4.8-.8v-1.2l.5-.5h1.2c.5,0,.9-.4.8-.8,0-.4-.3-.8-.8-.8,0,0,0,0,0,0h-.8v-1.7h.9c.4,0,.8-.4.8-.8,0-.4-.4-.8-.8-.8h-.9v-1.7h.8c.5,0,.9-.3.9-.8,0-.5-.4-.8-.8-.8,0,0,0,0,0,0h-1.1l-.5-.5h-.2Z"/><path class="cls-2" d="m177.2,65.1c0,.3-.1.5-.3.7-2.1,2.1-3.2,5-3.2,8,0,2.9,1.1,5.7,3.2,7.7.3.3.5.7.3,1.1-.2.4-.7.6-1.1.3-.1,0-.2-.1-.3-.2-1.3-1.2-2.3-2.8-2.8-4.5-1.8-4.6-.7-9.8,2.7-13.3l.4-.4c.2-.2.6-.2.8,0,.3.1.4.4.4.7h0Z"/><path class="cls-2" d="m208.5,50.7c-.3,0-.5-.2-.7-.4-4.4-4.2-11.3-4.1-15.7,0-.5.5-1,.5-1.3,0-.3-.3-.2-.7,0-1,0,0,0,0,.1,0,5-4.8,12.9-4.8,17.9,0,.2.1.3.3.4.5.2.4,0,.8-.3,1-.1,0-.3.1-.4,0h0Z"/><path class="cls-2" d="m227.9,73.6c0,3.3-1.2,6.5-3.5,8.9l-.2.2c-.3.3-.8.4-1.1,0-.3-.3-.4-.8,0-1.1,0,0,0,0,0,0,.7-.7,1.3-1.5,1.8-2.4,2.5-4.4,1.8-9.8-1.7-13.4-.4-.3-.4-.7-.2-1.1.2-.4.7-.5,1-.3.1,0,.2.2.3.3,1.5,1.6,2.6,3.5,3.2,5.6.3,1.1.5,2.2.5,3.4h-.1Z"/><path class="cls-2" d="m200,101.5c-3.3,0-6.4-1.2-8.8-3.5l-.2-.2c-.3-.2-.4-.7-.1-1.1,0,0,0-.1.1-.1.3-.3.8-.3,1.2,0,0,0,0,0,0,0,.7.7,1.5,1.3,2.3,1.8,4.3,2.5,9.8,1.8,13.4-1.7.3-.3.7-.4,1.1-.3.5.3.6.9,0,1.4-1.6,1.5-3.5,2.6-5.6,3.2-1.1.3-2.2.5-3.4.5Z"/><path class="cls-2" d="m200.3,97.7c-2.4,0-4.8-.8-6.6-2.5-.4-.3-.4-.7-.2-1.1.2-.4.7-.5,1-.3.1,0,.2.2.3.3,2.9,2.7,7.2,2.7,10.2.2l.2-.2c.2-.3.7-.4,1.1-.1,0,0,.1,0,.1.1.3.3.3.8,0,1.2,0,0,0,0,0,0-1,1-2.2,1.8-3.6,2.2-.8.3-1.6.4-2.4.4v-.2Z"/><path class="cls-2" d="m199.6,49.5c2.5,0,4.9.8,6.7,2.5.5.5.5.9.2,1.3s-.8.3-1.3,0c-2.9-2.7-7.3-2.7-10.2,0-.5.5-.9.5-1.3,0s-.3-.8.1-1.2c1.5-1.6,3.6-2.5,5.8-2.5h0Z"/><path class="cls-2" d="m175.9,73.6c0-2.3.9-4.5,2.4-6.2.5-.5.9-.6,1.3-.2s.3.8-.2,1.3c-2.7,2.9-2.7,7.3,0,10.2.3.3.4.7.3,1.1-.2.4-.7.5-1,.3-.1,0-.2-.2-.3-.3-1.3-1.2-2.1-2.9-2.4-4.6,0-.6-.1-1.1-.1-1.7h0Z"/><path class="cls-2" d="m224.1,73.7c0,2.3-.9,4.6-2.5,6.2-.5.5-.9.6-1.3.2-.4-.4-.3-.8.1-1.3,2.7-2.9,2.7-7.4,0-10.3-.4-.5-.5-.9-.1-1.2s.8-.3,1.3,0c1.6,1.7,2.5,4,2.5,6.3Z"/><path class="cls-10" d="m196.8,84.4h6v2c0,1.1-.9,2-2,2h-2.1c-1.1,0-2-.9-2-2v-2h.1Z"/><path class="cls-10" d="m203.2,62.9h-6v-2c0-1.1.9-2,2-2h2.1c1.1,0,2,.9,2,2v2h-.1Z"/><path class="cls-10" d="m189.3,70.4v6h-2c-1.1,0-2-.9-2-2v-2.1c0-1.1.9-2,2-2h2Z"/><path class="cls-10" d="m210.8,76.7v-6h2c1.1,0,2,.9,2,2v2.1c0,1.1-.9,2-2,2h-2Z"/><path class="cls-30" d="m220.3,73.6c0,1.4-.5,2.7-1.5,3.6-.4.4-.8.5-1.1,0-.3-.3-.3-.8,0-1.2,0,0,0,0,0,0,1.4-1.4,1.4-3.7,0-5.1-.3-.3-.3-.9,0-1.2.3-.4.7-.3,1.1,0,1,1,1.5,2.3,1.5,3.7h0Z"/><path class="cls-30" d="m200,53.3c1.3,0,2.6.5,3.5,1.4.5.5.6.9.3,1.3-.3.4-.8.4-1.2.1,0,0,0,0-.1-.1-1.1-.9-2.6-1.2-3.9-.7-.4.2-.8.4-1.1.7-.5.4-.9.4-1.2,0-.3-.3-.3-.8,0-1.1,0,0,0,0,.2-.1,1-.9,2.3-1.4,3.6-1.4h-.1Z"/><path class="cls-30" d="m200,93.9c-1.3,0-2.5-.5-3.5-1.3-.6-.5-.6-.9-.3-1.3s.8-.4,1.3,0c1.1,1,2.8,1.3,4.1.5l.9-.6c.3-.3.8-.4,1.1,0,0,0,0,0,0,0,.3.3.3.7-.1,1.1-1,.9-2.3,1.5-3.6,1.5h0Z"/><path class="cls-30" d="m179.7,73.6c0-1.3.5-2.6,1.4-3.5.5-.6.9-.6,1.3-.3s.4.8,0,1.3c-.9,1.1-1.2,2.6-.6,3.9.2.4.4.8.7,1.1.4.5.4.9,0,1.2-.4.4-.8.3-1.2-.2-.9-1-1.5-2.3-1.4-3.6h-.2Z"/><path class="cls-14" d="m205,74.4v1.7c0,.6,0,1.1-.3,1.6l-.5.5c-.5.2-1.1.3-1.6.3h-5.1c-.6,0-1.1,0-1.6-.3l-.5-.5c-.2-.5-.3-1-.3-1.6v-5.1c0-.6,0-1.1.3-1.6l.5-.5c.5-.2,1-.3,1.6-.3h5.1c.6,0,1.1,0,1.6.3l.5.5c.2.5.3,1.1.3,1.6v3.4Z"/><path class="cls-20" d="m205,71.1c0-.6,0-1.1-.3-1.6h1.1c.5,0,.9.3.9.7,0,0,0,0,0,0,0,.5-.4.8-.9.8h-.8Z"/><path class="cls-20" d="m204.7,77.7c.2-.5.3-1.1.3-1.6h.8c.4,0,.8.3.8.7,0,0,0,0,0,.1,0,.4-.3.8-.8.8,0,0,0,0,0,0h-1.1Z"/><path class="cls-20" d="m195.9,78.3c.5.2,1.1.3,1.6.3v1c0,.4-.4.7-.8.7-.4,0-.7-.3-.8-.7v-1.3Z"/><path class="cls-20" d="m202.5,78.6c.6,0,1.1,0,1.6-.3v1.2c0,.4-.3.8-.7.8,0,0,0,0-.1,0-.5,0-.7-.3-.8-.8v-.9Z"/><path class="cls-20" d="m197.5,68.6c-.6,0-1.1,0-1.6.3v-1.2c0-.4.3-.8.7-.8,0,0,0,0,.1,0,.5,0,.7.3.8.8v.9Z"/><path class="cls-20" d="m204.1,69c-.5-.2-1-.3-1.6-.3v-1.1c0-.4.4-.6.8-.6.4,0,.7.2.8.6,0,.5,0,.9,0,1.4Z"/><path class="cls-20" d="m195.4,69.5c-.2.5-.3,1-.3,1.6h-.8c-.5,0-.9-.3-.9-.8,0-.5.4-.8.8-.8,0,0,0,0,0,0h1.1Z"/><path class="cls-20" d="m195,76.1c0,.6,0,1.1.3,1.6h-1.2c-.5,0-.9-.4-.8-.8,0-.4.3-.8.8-.8,0,0,0,0,0,0h.9Z"/><path class="cls-16" d="m200.8,68.6h-1.6v-.9c0-.4.4-.8.8-.8s.8.4.8.8h0v.9Z"/><path class="cls-16" d="m195,72.7v1.6h-.9c-.4,0-.8-.3-.8-.8,0,0,0,0,0,0,0-.4.4-.8.8-.8h.9Z"/><path class="cls-16" d="m205,74.4v-1.6h.9c.4,0,.8.3.8.8,0,0,0,0,0,0,0,.4-.4.8-.8.8h-.9Z"/><path class="cls-16" d="m199.2,78.6h1.6v.9c0,.4-.3.8-.8.8,0,0,0,0,0,0-.4,0-.8-.4-.8-.8v-.9Z"/><circle class="cls-6" cx="90.4" cy="67" r="45"/><path d="m48.1,69.3l.5-2.6,8.1-.6-7.4-3.4.3-2,8.1-.8-7.4-3.2.5-2.6,10.5,4.9-.5,2.9-6.8.7,6.2,2.9-.5,2.9-11.6,1.2v-.3Z"/><path d="m59.4,45.6l6.9,4.1-1.2,2.1-.6-.4c.3.8.2,1.8-.4,2.5-1.2,1.8-3.7,2.4-5.5,1.1,0,0,0,0,0,0-1.9-1-2.7-3.3-1.8-5.2,0,0,0-.1,0-.2.4-.8,1.2-1.4,2.1-1.6l-.6-.4,1.2-2.1h-.1Zm2.2,4.1c-.8-.6-1.9-.4-2.5.4,0,0,0,0,0,.2-.6.8-.3,1.9.5,2.5,0,0,.2,0,.2.1.8.6,1.9.4,2.5-.4,0,0,0,0,0-.2.6-.8.3-1.9-.5-2.5,0,0-.2,0-.2-.1Z"/><path d="m65.2,42.7l2,2c.5.5,1,0,1.6-.7l1.6,1.5c-2,2.5-3.3,2.5-4.9.9l-2-2-.9.9-1.6-1.6.9-.9-1.1-1.1,1.2-2.2,1.6,1.6,1.2-1.2,1.6,1.6-1.2,1.2Z"/><path d="m68.3,42c-1.3-1.9-.8-4.6,1.2-5.9,0,0,0,0,0,0,1.2-.8,2.8-1,4.1-.3l-1.1,2.2c-.9-.5-2-.1-2.4.8-.3.6-.3,1.3.1,1.8.5.8,1.5,1.1,2.4.6,0,0,0,0,.1,0,.6-.3.9-1,.8-1.6l2.4-.2c0,1.5-.6,2.9-1.9,3.7-1.9,1.3-4.6.8-5.9-1.2,0,0,0,0,0,0l.2.2Z"/><path d="m83.1,33.9l1.5,4.7-2.3.7-1.4-4.3c-.2-.8-.9-1.2-1.7-1,0,0,0,0-.1,0-.8.2-1.2,1-1,1.7,0,0,0,.2,0,.3l1.4,4.2-2.3.7-3.5-10.6,2.3-.7,1.2,3.8c.3-.8,1-1.4,1.9-1.6,1.6-.5,3.3.4,3.8,2,0,0,0,.1,0,.2h0Z"/><path d="m85.3,32.6l6.1-.3v2.3l-5.9.3v-2.3h-.2Z"/><path d="m94.1,30.4l2.4.3-1,7.9-2.4-.3,1-7.9Zm0-2.2c0-.8.8-1.3,1.5-1.2,0,0,0,0,0,0,.8.1,1.3.8,1.2,1.6-.1.8-.8,1.3-1.6,1.2-.8,0-1.3-.8-1.2-1.5,0,0,0,0,0,0Z"/><path d="m105.5,36.5l-1.6,4.6-2.3-.8,1.5-4.3c.3-.6,0-1.4-.6-1.7,0,0-.1,0-.2,0-.7-.3-1.5,0-1.8.7,0,.1,0,.2-.1.4l-1.4,4.1-2.3-.8,2.6-7.6,2.3.8-.2.7c.8-.4,1.7-.5,2.5-.2,1.5.5,2.4,2.2,1.9,3.7,0,.1-.1.3-.2.4h-.1Z"/><path d="m110.4,38.6l-1.5,2.4c-.4.6,0,1,1,1.5l-1.2,1.8c-2.8-1.4-3.1-2.7-1.9-4.6l1.5-2.4-1.1-.7,1.2-1.9,1.1.7.8-1.3,2.4.7-1.2,1.9,1.4.9-1.2,1.9-1.4-.9h0Z"/><path d="m113.5,46.1c.4.4.9.7,1.5.7l.6,2.1c-1.3.2-2.7-.3-3.6-1.3-1.7-1.5-1.9-4.1-.4-5.8,0,0,.2-.2.3-.3,1.6-1.6,4.3-1.6,5.9,0,1.6,1.6,1.6,4.3,0,5.9-.2.2-.5.4-.7.6l-4-4c-.4.8,0,1.5.6,2.2h-.2Zm3.1-1c.4-.7.3-1.6-.3-2.1-.5-.6-1.4-.8-2.1-.3l2.4,2.4Z"/><path d="m124.6,50.7l-2.3,1.4c-.3-1-1.4-1.6-2.4-1.3-.1,0-.3,0-.4.2l-3.1,1.9-1.3-2,6.8-4.2,1.3,2-1.2.7c1-.2,2.1.3,2.6,1.2h0Z"/><path d="m125,61.2l-4.7,1.5-.8-2.3,4.3-1.4c.7-.2,1.1-.9,1-1.6,0,0,0-.2,0-.2-.3-.8-1.1-1.2-1.9-1,0,0,0,0-.1,0l-4.1,1.4-.8-2.3,7.6-2.5.8,2.3-.7.2c.8.3,1.4,1,1.6,1.9.5,1.6-.4,3.3-2,3.8,0,0-.1,0-.2,0h0Z"/><path d="m128.8,71.5l-8,.3v-2.4h.7c-.7-.6-1.1-1.5-1.1-2.4,0-2.2,1.9-4,4.1-4,2.4,0,4.3,1.6,4.3,3.7,0,.9-.3,1.8-.9,2.4h.8v2.4h.1Zm-4.1-2.3c1,0,1.9-.8,1.9-1.8,0,0,0-.1,0-.2,0-1-.7-1.8-1.7-1.8-.1,0-.2,0-.3,0-1,0-1.9.8-1.9,1.8,0,0,0,.1,0,.2,0,1,.7,1.8,1.7,1.8.1,0,.2,0,.3,0Z"/><path d="m131.9,75.1l-.4,2.4-11.5-2.1.4-2.4,11.5,2.1Z"/><path class="cls-15" d="m64.4,90.7v-28.8c0-.5.2-.6.7-.6h4.5v2c0,.5,0,.6.6.6h2.4c.4,0,.5,0,.5-.5v-2.1h3.4v2c0,.5,0,.6.6.6h2.4c.4,0,.5,0,.5-.5v-2.1h3.4v2c0,.5,0,.6.6.6h2.4c.4,0,.5,0,.5-.5v-2.1h7.8v4c0,.4,0,.6-.4.8-1,.6-1.5,1.8-1.2,2.9.3,1.4,1.7,2.3,3.1,2,1.4-.3,2.3-1.7,2-3.1,0,0,0-.2,0-.3-.2-.7-.6-1.2-1.2-1.6-.3,0-.4-.3-.4-.6v-4.1h3.4v8.2c0,.5.2.9.5,1.3l5.4,5.4c.2.2.3.5.2.8-.4,1.4.5,2.8,1.9,3.2.2,0,.4,0,.5,0,1.3,0,2.4-.9,2.6-2.1v7.3h-.8c-.4,0-.8.2-.9.7,0,0,0,.1,0,.2h-3.4v-.3c0-.5,0-.6-.6-.6h-2.4c-.3,0-.5,0-.5.4v2.6c0,.4,0,.5.5.4h2.2q.8,0,.8-.9h3.5c0,.4.2.8.7.9,0,0,.1,0,.2,0h.6c-.3,1-1.3,1.7-2.3,1.7h-10.4c0-1-.5-2-1.5-2.3-.3,0-.3-.3-.3-.5v-3.9c0-.7-.3-1-1-1h-8.5v-1.8h10c.4,0,.6,0,.8.4.7,1.2,2.3,1.7,3.5,1,1-.6,1.5-1.8,1.2-3-.2-.9-1-1.6-1.9-1.8-1.1-.3-2.3.2-2.9,1.2-.2.4-.4.4-.8.4h-10v-1.7h3q1.4,0,1.3-1.4c0-.3,0-.4-.4-.4h-3.9v-1.8h3q1.4,0,1.3-1.4c0-.3,0-.4-.4-.4h-3.9v-1.4c0-.3,0-.4-.3-.4h-1.4v-3q0-1.4-1.4-1.3c-.3,0-.4,0-.4.4v4h-1.8v-3q0-1.4-1.4-1.3c-.3,0-.4,0-.4.4v4h-1.8v-3q0-1.4-1.4-1.3c-.3,0-.4,0-.4.4v4h-1.8v-3q0-1.4-1.4-1.3c-.3,0-.4,0-.4.4v4h-1.4c-.3,0-.4,0-.3.4v1.4h-3q-1.4,0-1.3,1.4c0,.3,0,.4.4.4h3.9v1.8h-3q-1.4,0-1.3,1.4c0,.3,0,.4.4.4h3.9v1.8h-3q-1.4,0-1.3,1.4c0,.3,0,.4.4.4h3.9v1.8h-3q-1.4,0-1.3,1.4c0,.3,0,.4.4.4h3.9v1.4c0,.3,0,.4.3.4h1.4v4.3h-8.7l.6-.6Z"/><path class="cls-26" d="m64.4,90.7h28.6c0,.5.2,1.1.5,1.5.6.9,1.7,1.3,2.8,1.1,1.1-.3,2-1.3,2-2.5h10.4c1.1,0,2-.7,2.3-1.7h1.6c.3,0,.4,0,.4-.4v-2.8c0-.3,0-.4-.4-.4h-1.4v-23.7c0-.5,0-.6.6-.6h4.1c.5,0,.6,0,.6.6v33.5c0,.5,0,.6-.6.6h-4.2c-.3,0-.4,0-.4-.4-.2-1.8-1.7-3.1-3.5-3.1-1.8,0-3.3,1.3-3.4,3.1,0,.3,0,.4-.4.3h-38.8c-.5,0-.6,0-.6-.6v-4.6h-.2Z"/><path class="cls-15" d="m111.2,61.7v15.4c-.7-1.8-1.5-2.2-3.5-1.9-.2,0-.4,0-.5-.2l-5.3-5.3c-.2-.1-.3-.4-.3-.6v-8h1.9c.5,0,.7,0,.7.6.2,1.2,1,2.2,2.2,2.6,1.8.6,3.7-.2,4.4-2h0c0-.3,0-.4.2-.6h.2Z"/><path class="cls-17" d="m101.7,61.3v8c0,.2.1.4.3.6l5.3,5.3c0,0,.2.3.5.2,2-.4,2.8,0,3.5,1.9v1c-.6,1.4-1.4,2.1-2.6,2.1-1.4,0-2.5-1.2-2.5-2.6,0-.2,0-.5.1-.7.1-.3,0-.6-.2-.8l-5.4-5.4c-.4-.3-.6-.8-.5-1.3v-8.2h1.8-.3Zm6.9,17.3c.5,0,.9-.3.9-.8,0-.4-.4-.8-.8-.9-.5,0-.9.3-.9.8h0c0,.5.3.9.8.9Z"/><path class="cls-18" d="m96.5,61.3v4.1c0,.4.2.4.4.6,1.2.7,1.7,2.3,1,3.5s-2.3,1.7-3.5,1h0c-.6-.3-1-.9-1.2-1.6-.3-1.1.2-2.3,1.2-2.9.4-.2.4-.4.4-.8v-3.9s1.7,0,1.7,0Zm-.9,6.1c-.5,0-.9.4-.9.9,0,.5.4.9.9.9.5,0,.9-.4.9-.9h0c0-.5-.4-.9-.9-.9h0Z"/><path class="cls-32" d="m69.6,63v-3.9c0-.3,0-.4.4-.4h2.2v3.3c0,.5-.3.9-.8,1,0,0-.1,0-.2,0h-1.6Z"/><path class="cls-32" d="m76.6,63v-3.9c0-.3,0-.4.4-.4h2.2v3.3c0,.5-.3.9-.8,1,0,0-.1,0-.2,0h-1.6Z"/><path class="cls-32" d="m83.5,63v-3.9c0-.3,0-.4.4-.4h2.2v3.3c0,.5-.3.9-.8,1,0,0-.1,0-.2,0h-1.6Z"/><path class="cls-5" d="m76.6,63h1.6c.5,0,.9-.3,1-.8,0,0,0-.1,0-.2v-3.3h0c.5,0,.8.2.8.7v4c0,.4,0,.5-.5.5h-2.4c-.5,0-.6-.2-.6-.6v-.3Z"/><path class="cls-5" d="m69.6,63h1.6c.5,0,.9-.3,1-.8,0,0,0-.1,0-.2v-3.3h0c.5,0,.8.2.8.7v4c0,.4,0,.5-.5.5h-2.4c-.5,0-.6-.2-.6-.6v-.3Z"/><path class="cls-5" d="m83.5,63h1.6c.5,0,.9-.3,1-.8,0,0,0-.1,0-.2v-3.3h0c.5,0,.8.2.8.7v4c0,.4,0,.5-.5.5h-2.4c-.5,0-.6-.2-.6-.6v-.3Z"/><path class="cls-26" d="m85.2,70.7h1.4c.3,0,.4,0,.3.4v14.9c0,.3,0,.4-.3.4h-14.9c-.3,0-.4,0-.3-.4v-14.9c0-.3,0-.4.3-.4h13.5Zm-10.4,10.4v1.3c0,.4,0,.4.5.4h7.7c.4,0,.5,0,.5-.5v-6.5c0-.5.2-1.2,0-1.6s-1.1,0-1.6,0h-6.5c-.3,0-.4,0-.4.4v6.5h-.1Z"/><path class="cls-18" d="m86.9,84.6v-1.7h8.5c.7,0,1,.3,1,1v3.9c0,1.3,0,.4.3.5.9.4,1.5,1.3,1.5,2.3,0,1.2-.8,2.2-2,2.5-1.1.3-2.2-.1-2.8-1.1-.3-.5-.5-1-.5-1.5,0-1,.5-2,1.5-2.3.2,0,.3-.3.3-.5v-2.6c0-.5,0-.6-.6-.6h-7.2Zm9.5,6.1c0-.5-.4-.9-.9-.9-.5,0-.9.4-.9.9,0,.5.4.9.9.9h0c.5,0,.8-.4.8-.8,0,0,0,0,0,0h0Z"/><path class="cls-18" d="m86.9,81.2v-1.7h10c.4,0,.6,0,.8-.4.7-1.2,2.3-1.7,3.6-.9,1,.6,1.5,1.7,1.2,2.8-.2.9-.9,1.6-1.8,1.9-1.1.3-2.3-.2-2.9-1.2-.2-.4-.4-.4-.8-.4h-10.1Zm13-1.7c-.5,0-.9.4-.9.9,0,.5.4.9.9.9.5,0,.9-.4.9-.9h0c0-.5-.4-.8-.8-.8,0,0,0,0,0,0h0Z"/><path class="cls-3" d="m106,88.1c0,.6-.3.9-.8.9h-2.2c-.3,0-.5,0-.5-.4v-2.6c0-.4,0-.5.5-.4h2.4c.5,0,.7,0,.6.6v1.9Z"/><path class="cls-3" d="m111.2,85.5h1.4c.3,0,.4,0,.4.4v2.8c0,.3,0,.4-.4.4h-2.2c-.4,0-.8-.2-.9-.7,0,0,0-.1,0-.2v-1.7c0-.4.2-.8.7-.9,0,0,.1,0,.2,0h.9-.1Z"/><path class="cls-24" d="m85.2,70.7h-1.7v-4c0-.3,0-.4.4-.4q1.4,0,1.4,1.3v3h-.1Z"/><path class="cls-24" d="m71.3,72.5v1.7h-3.9c-.3,0-.4,0-.4-.4q0-1.4,1.3-1.4h3Z"/><path class="cls-24" d="m86.9,74.2v-1.7h3.9c.3,0,.4,0,.4.4q0,1.4-1.3,1.4h-3Z"/><path class="cls-24" d="m71.3,76v1.7h-3.9c-.3,0-.4,0-.4-.4q0-1.4,1.3-1.4h3Z"/><path class="cls-24" d="m86.9,77.7v-1.7h3.9c.3,0,.4,0,.4.4q0,1.4-1.3,1.4h-3Z"/><path class="cls-24" d="m71.3,79.5v1.7h-3.9c-.3,0-.4,0-.4-.4q0-1.4,1.3-1.4h3Z"/><path class="cls-24" d="m71.3,82.9v1.7h-3.9c-.3,0-.4,0-.4-.4q0-1.4,1.3-1.4h3Z"/><path class="cls-24" d="m74.8,70.7h-1.7v-4c0-.3,0-.4.4-.4q1.4,0,1.4,1.3v3h-.1Z"/><path class="cls-24" d="m78.3,70.7h-1.7v-4c0-.3,0-.4.4-.4q1.4,0,1.4,1.3v3h-.1Z"/><path class="cls-24" d="m73.1,86.4h1.7v4.3h-1.7v-4.3Z"/><path class="cls-24" d="m81.7,70.7h-1.7v-4c0-.3,0-.4.4-.4q1.4,0,1.4,1.3v3h-.1Z"/><path class="cls-24" d="m109.5,86.4v1.7h-3.5v-1.7h3.5Z"/><path class="cls-15" d="m86.9,84.6h7.2c.5,0,.6.2.6.6v2.6c0,.2,0,.4-.3.5-.9.4-1.5,1.3-1.5,2.3h-7.8v-4.3h1.4c.3,0,.4,0,.3-.4v-1.4h.1Z"/><path class="cls-15" d="m74.8,90.7v-4.3h1.8v4.3h-1.8Z"/><path class="cls-24" d="m76.6,90.7v-4.3h1.7v4.3h-1.7Z"/><path class="cls-15" d="m78.3,90.7v-4.3h1.8v4.3h-1.8Z"/><path class="cls-24" d="m80,90.7v-4.3h1.7v4.3h-1.7Z"/><path class="cls-24" d="m85.2,86.4v4.3h-1.7v-4.3h1.7Z"/><path class="cls-15" d="m83.5,86.4v4.3h-1.8v-4.3h1.8Z"/><path class="cls-25" d="m108.6,78.6c-.5,0-.9-.4-.9-.9,0-.5.4-.9.9-.9.5,0,.9.4.9.9h0c0,.5-.4.8-.8.8,0,0,0,0,0,0h0Z"/><path class="cls-25" d="m95.6,67.3c.5,0,.9.4.9.9,0,.5-.4.9-.9.9-.5,0-.9-.4-.9-.9h0c0-.4.3-.8.7-.8,0,0,.1,0,.2,0h0Z"/><path class="cls-32" d="m74.8,81.2v-6.5c0-.3,0-.4.4-.4h6.5v4.1c.1,1.4-1,2.7-2.4,2.8-.1,0-.2,0-.4,0h-4.1Z"/><path class="cls-5" d="m74.8,81.2h4.1c1.4.1,2.7-1,2.8-2.4,0-.1,0-.2,0-.4v-4.1c.6,0,1.3-.2,1.6,0s0,1,0,1.6v6.5c0,.4,0,.5-.5.5h-7.7c-.3,0-.5,0-.5-.4v-1.3h0Z"/><path class="cls-25" d="m96.5,90.7c0,.5-.3.9-.8.9-.5,0-.9-.3-.9-.8,0-.5.3-.9.8-.9h0c.5,0,.9.3.9.8Z"/><path class="cls-25" d="m99.9,79.4c.5,0,.9.4.9.9,0,.5-.4.9-.9.9-.5,0-.9-.4-.9-.9h0c0-.5.4-.9.9-.9h0Z"/><circle class="cls-6" cx="309.6" cy="67" r="45"/><path d="m268.1,65l.6-2.5h7.6c0,0-6.7-3.7-6.7-3.7l.4-1.9,7.6-.3-6.8-3.4.6-2.5,9.6,5.2-.6,2.7-6.4.3,5.7,3.1-.6,2.7-10.9.5v-.2Z"/><path d="m279.8,43.4l6.3,4.1-1.2,1.9-.6-.4c.2.8,0,1.7-.4,2.4-1.4,1.7-3.9,2-5.6.7-1.5-1.2-1.9-3.3-1.1-5,.4-.7,1.2-1.3,2-1.4l-.6-.4,1.2-1.9Zm1.9,3.9c-.7-.6-1.8-.4-2.4.3,0,0,0,.1-.1.2-.6.7-.4,1.8.3,2.3,0,0,.2.1.3.2.7.6,1.8.4,2.4-.3,0,0,0-.1.1-.2.6-.7.4-1.8-.3-2.3,0,0-.2-.1-.3-.2Z"/><path d="m285.2,40.9l1.9,1.9c.5.5.9,0,1.6-.6l1.4,1.5c-1.9,2.3-3.1,2.2-4.6.7l-1.9-1.9-.9.8-1.5-1.5.9-.8-1-1,1.1-2.1,1.5,1.5,1.1-1.1,1.5,1.5-1.1,1.1Z"/><path d="m288.1,40.3c-1.2-1.8-.7-4.3,1.1-5.5,0,0,0,0,0,0,1.2-.8,2.7-.8,3.9-.2l-1,2c-.8-.5-1.8-.2-2.3.6-.3.6-.3,1.3,0,1.8.4.8,1.4,1.1,2.2.7,0,0,.2,0,.2-.2.5-.3.8-.9.8-1.5h2.3c0,1.3-.7,2.6-1.8,3.3-1.8,1.2-4.2.7-5.4-1.1,0,0,0,0,0-.1v.2Z"/><path d="m302,32.7l1.4,4.4-2.1.7-1.3-4.1c-.2-.7-1-1.1-1.7-.9-.7.2-1.1,1-.9,1.7,0,0,0,.1,0,.2l1.3,3.9-2.1.7-3.3-10,2.1-.7,1.2,3.5c.3-.8,1-1.4,1.8-1.5,1.4-.5,3,.2,3.5,1.6,0,.1,0,.3.1.5h-.1Z"/><path d="m304.1,31.4l5.7-.4.2,2.2-5.7.4-.2-2.2Z"/><path d="m315.3,35.4c.5.1,1.1,0,1.5-.3l1.6,1.3c-.9.9-2.2,1.3-3.5,1-2.2-.2-3.7-2.2-3.5-4.3.2-2.2,2.2-3.7,4.3-3.5.1,0,.2,0,.4,0,2.1.3,3.5,2.3,3.2,4.3,0,0,0,.2,0,.3,0,.3,0,.6-.2.9l-5.2-.9c.2.8.8,1.3,1.6,1.3h-.1Zm1.8-2.5c0-.8-.6-1.4-1.4-1.4-.7-.2-1.5.2-1.8.9l3.2.5Z"/><path d="m323,39.7l-.5-2.4-2.1,1.3-2.4-1,4-2.4-.9-4.4,2.4,1,.5,2.2,1.9-1.2,2.4,1-3.9,2.3.9,4.6-2.4-1h.1Z"/><path d="m330.9,38.4l-1.5,2.2c-.4.5,0,.9.9,1.4l-1.2,1.7c-2.6-1.5-2.7-2.7-1.5-4.4l1.5-2.2-1-.7,1.3-1.8,1,.7.8-1.2,2.2.8-1.2,1.7,1.3.9-1.3,1.8-1.3-.9Z"/><path d="m333.5,45.5c.3.4.8.7,1.4.7l.4,2c-1.3.1-2.5-.4-3.3-1.4-1.5-1.5-1.6-4-.1-5.5,0,0,.1-.1.2-.2,1.5-1.5,4-1.5,5.5,0,1.5,1.5,1.5,4,0,5.5,0,0-.2.2-.3.3-.2.2-.4.4-.7.5l-3.6-3.9c-.3.7-.2,1.5.4,2h.1Zm2.9-.8c.5-.6.4-1.5-.2-2-.5-.6-1.3-.8-2-.4l2.2,2.4Z"/><path d="m343.8,50.2l-2.2,1.3c-.2-.9-1.2-1.5-2.1-1.3-.2,0-.3.1-.5.2l-2.9,1.7-1.1-1.9,6.5-3.8,1.1,1.9-1.2.7c1-.1,1.9.3,2.4,1.2Z"/><path d="m344,59.9l-4.4,1.4-.7-2.1,4.1-1.3c.7-.2,1.1-.9.9-1.5,0,0,0-.1,0-.2-.2-.7-.9-1.2-1.6-1,0,0-.2,0-.3,0l-3.9,1.2-.7-2.1,7.2-2.3.7,2.1-.7.2c.8.3,1.4,1,1.5,1.8.5,1.5-.4,3-1.8,3.5,0,0-.2,0-.3,0h0Z"/><path d="m347.5,69.6l-7.5.2v-2.2h.6c-.7-.5-1-1.4-1-2.2,0-2.1,1.7-3.7,3.8-3.7,2.1-.1,3.9,1.4,4.1,3.5,0,.8-.2,1.7-.8,2.3h.7v2.2h.1Zm-3.8-2.1c1,0,1.8-.7,1.8-1.7,0,0,0,0,0-.1,0-.9-.7-1.7-1.7-1.7,0,0-.2,0-.2,0-1,0-1.8.8-1.8,1.8,0,0,0,0,0,0,0,.9.7,1.7,1.7,1.7,0,0,.2,0,.2,0Z"/><path d="m350.5,72.7l-.4,2.2-10.8-1.8.4-2.2,10.8,1.8Z"/><path class="cls-22" d="m319.1,92.9c-1,2.4-2.1,4.7-3.1,7.1-.4.7-1.1,1.3-1.9,1.5h-12.7c-1.1-.4-2-1.3-2.4-2.4-.8-1.9-1.7-3.8-2.5-5.7,0-.2-.1-.3-.2-.5h22.8Z"/><path class="cls-13" d="m319.1,92.9h-22.9c-.7,0-1.3,0-2,0-2.3-.5-3.9-2.6-3.8-5v-28.2c-.1-2.2,1.2-4.2,3.3-4.8.6-.2,1.1-.2,1.7-.2h23.7c.7,0,1.3,0,2,0,2.1.4,3.7,2.2,3.8,4.4v28.7c.1,2.3-1.5,4.4-3.8,4.9-.7,0-1.3,0-2,0h0Zm.6-34.5h-24.2c-1,0-1.2.2-1.2,1.2v26.5c-.2.5-.2,1.2,0,1.7.2,1,.3,1.1,1.4,1.1h24.1c1,0,1.3-.3,1.3-1.3v-28.3c0-.6-.5-1-1.1-.9,0,0-.2,0-.2,0h-.1,0Z"/><path class="cls-22" d="m319.1,54.6h-22.9c.7-1.6,1.4-3.2,2.1-4.9.3-.6.5-1.3.8-1.9.5-1.1,1.7-1.9,2.9-1.8h11.3c1.1,0,2.1.5,2.6,1.5,1.1,2.3,2.1,4.7,3.1,7.1h.1Z"/><path class="cls-23" d="m324.9,68v-8.6h1.8c1.1,0,2,.8,2.1,1.9,0,0,0,0,0,.1v4.7c0,1.1-.9,2-2,2,0,0,0,0-.1,0h-1.8Z"/><path class="cls-4" d="m319.7,58.5c.6-.2,1.2.2,1.4.8,0,0,0,0,0,0v28.5c0,1-.3,1.3-1.3,1.3h-24.1c-1.1,0-1.2,0-1.4-1.1-.1-.6-.1-1.1,0-1.7.3-.6.1-1.2.2-1.9.2-1.4.4-2.8.7-4.2.4-2,1-4,1.8-5.9,1.2-2.8,2.9-5.4,5-7.6,1.5-1.6,3.3-3,5.2-4.1,3.2-1.9,6.8-3.2,10.5-3.8.7,0,1.3-.2,2-.3h0Zm-11,10.2v-4.4c0-.5-.3-1-.8-1,0,0,0,0,0,0-.5,0-.9.3-1,.8,0,0,0,.1,0,.2v9.2c0,.5.2.9.5,1.3,2.1,2,4.1,4.1,6.2,6.2l.4.4c.4.3,1,.2,1.2-.2,0,0,0,0,0,0,.2-.3.2-.7,0-1-.1-.2-.3-.3-.4-.4l-5.8-5.8c-.2-.2-.3-.5-.3-.8v-4.4h0Z"/><path class="cls-11" d="m319.7,58.5c-.7.2-1.3.3-2,.3-3.7.6-7.3,1.9-10.5,3.8-1.9,1.1-3.7,2.5-5.2,4.1-2.1,2.2-3.8,4.8-5,7.6-.8,1.9-1.4,3.9-1.8,5.9-.3,1.4-.5,2.8-.7,4.2,0,.6,0,1.3-.2,1.9v-26.5c0-1,.2-1.2,1.2-1.2h24.2Z"/><path class="cls-1" d="m308.6,68.6v4.3c0,.3.1.6.3.8l5.8,5.8.4.4c.3.4.2,1-.2,1.2,0,0,0,0,0,0-.3.2-.7.2-1,0-.2,0-.3-.2-.4-.4l-6.2-6.2c-.4-.3-.6-.8-.5-1.3v-9.2c0-.5.4-1,.9-1,0,0,0,0,.1,0,.5,0,.9.4.9.9,0,0,0,0,0,0v4.5h0Z"/><circle class="cls-7" cx="200" cy="203.1" r="45"/><path class="cls-27" d="m210.9,237.7c0,.8-4.9,1.4-11,1.4h0c-6.1,0-11-.6-11-1.4v-52.1c0-.8,4.9-1.4,11-1.4h0c6.1,0,11,.6,11,1.4v52.1Z"/><path class="cls-31" d="m188.9,186.9v.5c1.4-.4,5.3-.8,11-.8s9.6.4,11,.8v-.5c-2.7-.8-9.4-.8-11-.8s-8.2,0-11,.8Z"/><path class="cls-31" d="m210.9,236.3v-.5c-1.4.4-5.3.8-11,.8s-9.6-.4-11-.8v.5c2.7.8,9.4.8,11,.8s8.2,0,11-.8Z"/><path class="cls-31" d="m199.9,192.6c-3.2,0-6.2.1-8.4.3-.9,0-1.7.1-2.6.3v.6c3.6-.5,7.3-.7,11-.6,3.7,0,7.4.1,11,.6v-.6c-.6-.1-1.4-.2-2.6-.3-2.2-.2-5.2-.3-8.4-.3Z"/><path class="cls-31" d="m210.9,229.4c-3.6.5-7.3.7-11,.6-3.7,0-7.4-.1-11-.6v.6c.6.1,1.4.2,2.6.3,2.2.2,5.2.3,8.4.3s6.2-.1,8.4-.3c.9,0,1.7-.1,2.6-.3v-.6Z"/><rect class="cls-31" x="188.9" y="195" width="21.9" height="33.3"/><path class="cls-29" d="m216.7,213.4c-.3.6-.8.8-1.1.5l-2.8-2.6c-.3-.3-.2-.9,0-1.5l3.3-5.7c.3-.6.8-.8,1.1-.5l2.8,2.6c.3.3.2.9,0,1.5l-3.3,5.7Z"/><path class="cls-19" d="m220.9,195.1h1.1c1,0,1.5.8,1.1,2-.3.8-.7,1.6-1.1,2.4-2.6,4.6-5.1,9.3-7.7,13.9-2.4,4.2-4.8,8.3-7.3,12.3-1,1.9-2.7,3.4-4.7,4.2-2.4.8-4.5,0-6.5-1.6-1.2-1.1-2.2-2.4-2.9-3.9-2.8-4.7-5.5-9.4-8.2-14.2-1.2-2.1-2.3-4.2-3.5-6.3,0-.1-.1-.2-.2-.4-.7-1.6-.4-2.6,1.1-2.8,5.2-.8,10.4-1.5,15.6-2.3,4.6-.7,9.2-1.3,13.7-2,3.2-.5,6.5-.9,9.7-1.3h-.2Z"/><path class="cls-21" d="m218.5,197.5h.9c.8,0,1.3.7.9,1.7-.3.7-.6,1.4-1,2.1-2.2,4-4.4,8.1-6.7,12.1-2.1,3.6-4.2,7.2-6.4,10.7-.9,1.7-2.4,3-4.1,3.7-2.1.7-3.9,0-5.7-1.4-1.1-1-1.9-2.1-2.5-3.4l-7.2-12.3c-1-1.8-2-3.7-3-5.5,0-.1-.1-.2-.2-.3-.6-1.4-.3-2.2.9-2.4,4.5-.7,9-1.3,13.5-2,4-.6,8-1.2,12-1.7,2.8-.4,5.7-.7,8.5-1.1h0v-.2Z"/><path d="m180,178.8c2.6,2.6,2.3,5.9,0,8.3-2.3,2.5-6.2,2.7-8.7.4-2.5-2.3-2.7-6.2-.4-8.7,0,0,.1-.1.2-.2,1.4-1.5,3.6-2.2,5.6-1.7l-.7,2.6c-1.1-.2-2.3.2-3,1.1-1.4,1.4-1.4,3.6,0,4.9,0,0,0,0,0,0,1.3,1.4,3.4,1.4,4.8.1.1-.1.2-.2.3-.3,1-.8,1.4-2.2.9-3.4l-2.2,2.2-1.7-1.7,4.2-4.2.7.7h0Z"/><path d="m192.4,170.2l.6,8.9-2.2.9-3-3.7.4,4.7-2.2.9-5.7-6.9,2.5-1,2.8,3.8-.5-4.7,2.2-.9,2.9,3.7-.6-4.7,2.5-1h.3Z"/><path d="m203.9,169.6l.3,8.5h-2.5v-.7c-.6.7-1.5,1.2-2.5,1.1-2.3,0-4.2-2-4.2-4.3,0-2.5,1.7-4.6,3.9-4.6,1,0,1.9.3,2.6.9v-.8h2.5-.1Zm-2.4,4.3c0-1.1-.8-2-1.8-2,0,0-.2,0-.3,0-1,0-1.9.8-1.9,1.8,0,.1,0,.2,0,.4,0,1.1.9,2,2,2,0,0,0,0,.1,0,1,0,1.9-.7,1.9-1.8,0-.1,0-.2,0-.3h0Z"/><path d="m209.8,173.3l-.7,2.9c-.2.7.4.9,1.5,1.1l-.5,2.3c-3.3-.4-4.1-1.6-3.5-3.9l.7-2.9-1.3-.3.5-2.4,1.3.3.4-1.6,2.7-.2-.5,2.3,1.7.4-.5,2.4-1.7-.4h0Z"/><path d="m212.4,175.7c1-2.2,3.6-3.2,5.8-2.2,0,0,.1,0,.2,0,1.4.7,2.4,2,2.5,3.6l-2.6.2c0-.7-.5-1.3-1.1-1.6-.9-.5-2.1-.1-2.6.8,0,0,0,0,0,.1-.5.9-.1,2,.8,2.5,0,0,0,0,.1,0,.6.3,1.3.3,1.9-.1l1.5,2.1c-1.3.9-3,1-4.4.3-2.2-1-3.2-3.6-2.2-5.8,0,0,0-.1,0-.2h0Z"/><path d="m227.8,184.9l-3.5,3.9-1.9-1.7,3.2-3.6c.6-.5.6-1.5,0-2,0,0,0,0,0,0-.6-.6-1.5-.5-2.1,0,0,0-.1.2-.2.3l-3.1,3.5-1.9-1.7,7.9-8.9,1.9,1.7-2.8,3.1c.9-.2,1.9,0,2.5.8,1.3,1.1,1.6,3,0,4.7Z"/></svg>