<?xml version="1.0" encoding="UTF-8"?><svg id="Layer_1" xmlns="http://www.w3.org/2000/svg" viewBox="0 0 400 400"><defs><style>.cls-1{fill:#1f2275;}.cls-2{fill:#009245;}.cls-3{fill:#a7a7a7;}.cls-4{stroke:#a5262d;}.cls-4,.cls-5,.cls-6,.cls-7{stroke-width:4px;}.cls-4,.cls-5,.cls-6,.cls-7,.cls-8{stroke-miterlimit:10;}.cls-4,.cls-5,.cls-6,.cls-7,.cls-8,.cls-9{fill:none;}.cls-10{fill:#fab644;}.cls-11{fill:#fff;}.cls-12{fill:#72b3e2;}.cls-5{stroke:#0018c6;}.cls-13{fill:#cbcbcb;}.cls-14{fill:#4fb76a;}.cls-15{fill:#349951;}.cls-16{fill:#cfe1ed;}.cls-17{fill:#3a926c;}.cls-18{fill:#cacaca;}.cls-19{fill:#143441;}.cls-20{fill:#0277b5;}.cls-21{fill:#a7c1e0;}.cls-6{stroke:#c000e2;}.cls-22{fill:#0d202b;}.cls-23{fill:#cbdde9;}.cls-24{fill:#369754;}.cls-25{fill:#163842;}.cls-7{stroke:#00b51e;}.cls-26{fill:#b63cdb;}.cls-27{fill:#fdd782;}.cls-28{fill:#caa158;}.cls-8{stroke:#231f20;stroke-width:2px;}.cls-29{fill:#015078;}.cls-30{fill:#183c43;}.cls-31{fill:#72b2e2;}.cls-32{fill:#0296e4;}.cls-33{fill:#0295e3;}.cls-34{fill:#0276b3;}.cls-35{fill:#ff1d25;}.cls-36{fill:#fab643;}.cls-37{fill:#8622fd;}.cls-38{fill:#6665c6;}.cls-39{fill:#0376b4;}.cls-40{fill:#a8a8a8;}.cls-41{fill:#cadce8;}.cls-42{fill:#51b66c;}.cls-43{fill:#ccf2ff;isolation:isolate;opacity:.5;}.cls-44{fill:#231f20;}.cls-45{fill:#153642;}</style></defs><circle class="cls-7" cx="82.4" cy="326.6" r="45"/><path d="m59.6,300.2c2.1,1.7,2.5,4.7.8,6.8-.1.2-.3.3-.4.5-1.9,2.3-5.3,2.7-7.6.8,0,0-.2-.1-.2-.2-2.3-2.1-2.5-5.6-.4-7.9,1.2-1.3,2.9-2,4.7-1.8l-.5,2.3c-1,0-2,.3-2.6,1.1-1.1,1.2-1.1,3.1.1,4.2,0,0,.1.1.2.2,1.2,1.1,3.1,1.1,4.2,0,0,0,.2-.2.3-.3.9-.8,1.1-2,.6-3.1l-1.9,2.1-1.6-1.4,3.5-3.9.7.6h0Z"/><path d="m68.9,296.1c1.1,1.7.6,4.1-1.1,5.2-.7.5-1.6.6-2.4.3l1.9,3.2-1.9,1.1-5.3-9.1,1.9-1.1.4.6c.2-.8.7-1.5,1.5-1.9,1.9-1,4.1-.2,5.1,1.6h0Zm-1.9,1.1c-.4-.9-1.5-1.2-2.4-.8,0,0,0,0-.1,0-.8.4-1.2,1.4-.7,2.3,0,0,0,.2.1.2.4.9,1.5,1.2,2.4.8,0,0,0,0,.1,0,.8-.4,1.2-1.4.7-2.3,0,0,0-.2-.1-.2h0Z"/><path d="m77.2,292.9l1.1,4.5-2.2.6-1.1-4.1c0-.7-.7-1.1-1.3-1.1,0,0-.2,0-.3,0-.7.1-1.2.9-1.1,1.6,0,0,0,.1,0,.2l1,4-2.2.6-2.6-10.2,2.2-.6.9,3.6c.4-.7,1-1.2,1.8-1.4,1.5-.4,3,.4,3.4,1.9,0,.1,0,.3,0,.4h.2Z"/><path d="m78.9,293.6c0-2.2,1.8-4,4-4,2.2,0,4,1.8,4,4,0,2.2-1.8,4-4,4,0,0,0,0,0,0-2.2,0-3.9-1.8-3.9-4,0,0,0,0,0,0Zm5.7,0c0-.9-.6-1.7-1.5-1.8,0,0-.1,0-.2,0-1,0-1.8.7-1.8,1.7,0,.9.6,1.7,1.5,1.8,0,0,.1,0,.2,0,1,0,1.8-.7,1.8-1.7Z"/><path d="m95.7,295.2l-1.3,4.4-2.2-.6,1.2-4.1c.3-.6,0-1.4-.7-1.6,0,0-.2,0-.2,0-.7-.3-1.5,0-1.7.8,0,.1,0,.2,0,.3l-1.1,3.9-2.2-.6,2.1-7.2,2.2.6-.2.7c.7-.5,1.5-.6,2.3-.3,1.5.4,2.4,1.8,1.8,3.8h0Z"/><path d="m99.4,300.4c.4.3,1,.4,1.5.3l1,1.8c-2.2.8-4.6-.4-5.3-2.6-.4-1.1-.3-2.4.3-3.4,1.1-1.8,3.4-2.4,5.2-1.4,0,0,.2.1.3.2,1.8,1.1,2.3,3.4,1.2,5.2,0,0,0,.1-.1.2-.2.3-.4.5-.6.7l-4.5-2.8c-.1.8.3,1.5,1,1.8Zm2.6-1.6c.3-.9-.3-1.8-1.2-2.1-.5-.2-1.1,0-1.5.3l2.7,1.7h0Z"/><path d="m111.4,310.2c-1.5,1.2-3.7.9-4.9-.6,0,0-.1-.2-.2-.3-1.1-1.2-1.2-2.9-.4-4.3l2.2.9c-.5.6-.5,1.4,0,2,.6.8,1.3.8,1.8.4.5-.4.6-1.1.2-1.6,0,0-.1-.2-.2-.2l-.3-.4.5-1.6h3.1l-2.3-3,1.8-1.4,4.1,5.4-1.6,1.2h-2.9c.5,1.3,0,2.7-1,3.5h0Z"/><path class="cls-26" d="m71,307.6h23c2.2,0,4.1,1.8,4.1,4,0,0,0,0,0,0v49.1c0,2.2-1.8,4.1-4,4.1,0,0,0,0,0,0h-23c-2.2,0-4.1-1.8-4.1-4,0,0,0,0,0,0v-49.1c0-2.2,1.8-4.1,4-4.1,0,0,0,0,0,0Z"/><path class="cls-37" d="m94,307.6h-23c-2.2,0-4.1,1.8-4.1,4,0,0,0,0,0,0v49.1l31.2-49.1c0-2.2-1.8-4.1-4-4.1,0,0,0,0,0,0Z"/><rect class="cls-17" x="70.1" y="310.9" width="24.8" height="46.7"/><path class="cls-11" d="m85.7,309.3c0,.3-.3.6-.6.6h-5.3c-.3,0-.6-.3-.6-.6h0c0-.3.3-.6.6-.6h5.3c.3,0,.6.3.6.6Z"/><path class="cls-11" d="m84.6,363h-.5c-.3,0-.7,0-1-.2-.4,0-.8-.2-1.2-.2-.5,0-.9-.1-1.4-.3h-.2c-.2,0-.2-.2-.2-.4,0-.2.2-.5.3-.7.1-.4.3-.7.5-1.1.1-.2.3-.5.4-.7.2-.3.6-.4,1-.2,0,0,.2.1.2.2.1.1.2.3.4.5.2.4.5.7.7,1.1l1.2,1.8v.2c0,.2,0,.3-.2.3v-.3Z"/><path class="cls-35" d="m84.8,326.3h-.5c-.4,0-.7,0-1.1-.2-.4,0-.9-.2-1.3-.3-.5,0-1-.2-1.5-.3h-.2c-.2,0-.2-.2-.2-.4s.2-.5.3-.7c.2-.4.3-.8.5-1.2.1-.2.2-.5.4-.7.2-.4.7-.4,1.1-.2,0,0,.1.1.2.2.2.1.3.3.4.5.3.4.5.8.7,1.2.4.6.8,1.3,1.2,1.9v.2c0,.2,0,.3-.2.3l.2-.3Z"/><path class="cls-35" d="m85.7,317.2h.2c.2,0,.2.1.2.3s-.1.2-.2.3c-.5.6-.9,1.2-1.4,1.7-.4.5-.8,1-1.3,1.5-.2.2-.5.4-.8.5-.3,0-.7,0-1-.2-.2-.1-.3-.3-.4-.5-.4-.6-.8-1.2-1.2-1.9-.1-.3-.3-.5-.5-.8h0c-.1-.2,0-.3.2-.3.8,0,1.7,0,2.5-.2.7,0,1.5,0,2.2-.2h1.6v-.2Z"/><path d="m78.5,342.5c.6.2,1.1.5,1.4,1,.3.5.5,1,.5,1.6,0,.9-.3,1.8-1,2.3-.7.5-1.5.8-2.4.8-.7,0-1.5-.2-2.1-.5-.6-.4-1-.9-1.3-1.6l2.1-1.2c.1.6.7,1.1,1.3,1,.7,0,.6,0,.8-.2.2-.2.3-.4.3-.6,0-.2,0-.5-.3-.6s-.4-.2-.8-.2h-.5l-.9-1.4,1.5-1.8h-3.1v-2.3h6.1v1.9l-1.6,1.9h0Z"/><path d="m90.9,342.6v1c0,1.2-.4,2.4-1.3,3.3-.9.9-2.1,1.4-3.4,1.3-1.3,0-2.6-.5-3.6-1.4-.9-.9-1.4-2.2-1.4-3.5,0-1.3.5-2.6,1.4-3.5.9-.9,2.2-1.4,3.5-1.4.8,0,1.7.1,2.4.6.7.4,1.3.9,1.7,1.6l-2,1.2c-.2-.3-.5-.5-.8-.7-.4-.2-.8-.3-1.2-.3-1.4,0-2.5,1.2-2.5,2.6,0,.6.3,1.2.7,1.7.5.5,1.2.8,2,.8.9,0,1.8-.4,2.2-1.2h-2.3v-2.1h4.6Z"/><polygon class="cls-43" points="70.1 357.6 70.1 310.9 94.9 310.9 70.1 357.6"/><circle class="cls-7" cx="317" cy="334.3" r="45"/><path d="m294.5,309.1c2.3,1.9,2.6,5.2.7,7.4-.1.1-.2.2-.3.4-2.1,2.5-5.9,2.8-8.3.6,0,0,0,0,0,0-2.4-2.2-2.6-5.9-.4-8.3,0,0,0,0,0,0,1.3-1.5,3.3-2.2,5.2-1.9l-.5,2.5c-1.1-.2-2.1.3-2.8,1.1-1.2,1.2-1.2,3.2,0,4.5,0,0,.2.2.3.2,1.4,1.3,3.3,1.2,4.8-.4.9-.8,1.2-2.2.6-3.3l-2,2.2-1.7-1.5,3.8-4.2.7.6h0Z"/><path d="m304.6,305c1.1,1.9.5,4.4-1.4,5.5,0,0,0,0,0,0-.8.5-1.7.6-2.6.3l1.9,3.5-2.1,1.1-5.3-9.9,2.1-1.1.4.7c.2-.9.8-1.6,1.6-2,2-1,4.4-.1,5.4,1.9Zm-2.1,1.1c-.4-.9-1.5-1.3-2.4-.9,0,0-.1,0-.2.1-.9.4-1.3,1.6-.9,2.5,0,0,0,0,0,.1.4.9,1.5,1.3,2.4.9,0,0,.1,0,.2-.1.9-.4,1.3-1.6.9-2.5,0,0,0,0,0-.1h0Z"/><path d="m313.6,302.1l1,4.8-2.4.5-.9-4.5c0-.7-.7-1.2-1.4-1.2-.1,0-.2,0-.3,0-.7,0-1.3.8-1.2,1.5,0,.1,0,.3.1.4l.9,4.3-2.4.5-2.3-11,2.4-.5.8,3.9c.4-.8,1.1-1.3,2-1.4,1.6-.3,3.2.7,3.6,2.3,0,0,0,.2,0,.3h0Z"/><path d="m315.5,302.8c.1-2.3,2.2-4.1,4.5-4s4.1,2.2,4,4.5-2.2,4.1-4.5,4c0,0,0,0,0,0-2.3-.2-4.1-2.2-3.9-4.5,0,0,0,0,0,0Zm6.1.5c.1-1-.6-1.9-1.6-2,0,0,0,0,0,0-1,0-1.9.7-2,1.7-.1,1,.6,1.9,1.6,2,0,0,0,0,0,0,1,0,1.9-.7,2-1.7Z"/><path d="m333.1,305.8l-1.7,4.6-2.2-.9,1.6-4.3c.4-.6.1-1.4-.5-1.8,0,0-.2,0-.3-.1-.8-.3-1.6,0-1.9.8,0,0,0,.1,0,.2l-1.6,4.1-2.2-.9,2.8-7.5,2.2.9-.3.7c.8-.5,1.7-.5,2.5,0,1.5.6,2.4,2.1,1.6,4.2h0Z"/><path d="m336.6,311.8c.5.4,1,.5,1.6.4l.9,2c-2.4.6-4.8-.9-5.4-3.3-.3-1.2,0-2.5.6-3.5,1.3-1.8,3.8-2.3,5.7-1,0,0,.2.1.2.2,1.8,1.3,2.2,3.8.9,5.6,0,0-.1.1-.2.2-.2.3-.4.5-.7.7l-4.5-3.4c-.2.8.2,1.6.9,2h0Zm2.9-1.5c.4-.7,0-1.6-.6-2-.6-.6-1.6-.6-2.2,0l2.8,2.1h0Z"/><path d="m348.1,323.6c-2.1,1.3-4.2.2-5.3-1.6-1-1.4-1-3.3,0-4.7l2.2,1.3c-.5.6-.6,1.5-.1,2.1.3.7,1,1,1.7.8,0,0,0,0,.1,0,.6-.4.8-1,.3-1.9l-1.8-3,5.8-2.9,3.3,5.6-2.1,1.2-2.1-3.5-1.4.7.5.8c1.1,1.6.8,3.7-.8,4.9-.2.1-.3.2-.5.3h.2Z"/><path class="cls-38" d="m305.6,315.3h23c2.2,0,4.1,1.8,4.1,4,0,0,0,0,0,0v49.1c0,2.2-1.8,4.1-4,4.1,0,0,0,0,0,0h-23c-2.2,0-4.1-1.8-4.1-4,0,0,0,0,0,0v-49.1c0-2.2,1.8-4.1,4-4.1,0,0,0,0,0,0Z"/><path class="cls-1" d="m328.6,315.3h-23c-2.2,0-4.1,1.8-4.1,4,0,0,0,0,0,0v49.1l31.2-49.1c0-2.2-1.8-4.1-4-4.1,0,0,0,0,0,0Z"/><path class="cls-17" d="m330.3,365.3h-26.4c-.9,0-1.7-.8-1.7-1.7,0,0,0,0,0,0v-44.2c0-1.1.8-1.9,1.9-2h26.2c.9,0,1.7.8,1.7,1.7,0,0,0,0,0,0v44.4c0,1-.7,1.8-1.7,1.8Z"/><path class="cls-11" d="m319.1,370.7h-.5c-.3,0-.7,0-1-.2-.4,0-.8-.2-1.2-.2-.5,0-.9-.1-1.4-.3h-.2c-.2,0-.2-.2-.2-.4,0-.2.2-.5.3-.7.1-.4.3-.7.5-1.1.1-.2.3-.5.4-.7.2-.3.6-.4,1-.2,0,0,.2.1.2.2.1.1.2.3.4.5.2.4.5.7.7,1.1l1.2,1.8v.2c0,.2,0,.3-.2.3v-.3Z"/><path class="cls-35" d="m319.3,334h-.5c-.4,0-.7,0-1.1-.2-.4,0-.9-.2-1.3-.3-.5,0-1-.2-1.5-.3h-.2c-.2,0-.2-.2-.2-.4s.2-.5.3-.7c.2-.4.3-.8.5-1.2.1-.2.2-.5.4-.7.2-.4.7-.4,1.1-.2,0,0,.1.1.2.2.2.1.3.3.4.5.3.4.5.8.7,1.2.4.6.8,1.3,1.2,1.9v.2c0,.2,0,.3-.2.3l.2-.3Z"/><path class="cls-35" d="m320.3,324.9h.2c.2,0,.2.1.2.3s-.1.2-.2.3c-.5.6-.9,1.2-1.4,1.7-.4.5-.8,1-1.3,1.5-.2.2-.5.4-.8.5-.3,0-.7,0-1-.2-.2-.1-.3-.3-.4-.5-.4-.6-.8-1.2-1.2-1.9-.1-.3-.3-.5-.5-.8h0c-.1-.2,0-.3.2-.3.8,0,1.7,0,2.5-.2.7,0,1.5,0,2.2-.2h1.6v-.2Z"/><path d="m313.1,350.2c.6.2,1.1.5,1.4,1,.4.5.5,1,.5,1.6,0,.9-.3,1.8-1,2.3-.7.5-1.6.8-2.5.8-.7,0-1.5-.1-2.1-.5-.6-.4-1-.9-1.3-1.6l2.1-1.2c.1.6.7,1.1,1.3,1,.7,0,.6,0,.8-.2.2-.2.3-.4.3-.6,0-.2,0-.5-.3-.6-.2-.1-.5-.2-.8-.2h-.5l-.9-1.4,1.5-1.8h-3.1v-2.3h6.1v1.9l-1.6,1.9h.1Z"/><path d="m325.5,350.3v1c0,1.2-.4,2.4-1.3,3.3-.9.9-2.1,1.4-3.4,1.3-1.3,0-2.6-.5-3.6-1.4-.9-.9-1.4-2.2-1.4-3.5,0-1.3.5-2.6,1.4-3.5.9-.9,2.2-1.4,3.5-1.4.8,0,1.7.1,2.4.6.7.4,1.3.9,1.7,1.6l-2,1.2c-.2-.3-.5-.5-.8-.7-.4-.2-.8-.3-1.2-.3-1.4,0-2.5,1.2-2.5,2.6,0,.6.3,1.2.7,1.7.5.5,1.2.8,2,.8.9,0,1.8-.4,2.2-1.2h-2.3v-2.1h4.6Z"/><path class="cls-43" d="m303.5,362.8c-.2.4-.7.5-1.1.3-.2-.1-.4-.4-.4-.7v-43.1c0-1,.8-1.9,1.8-1.9,0,0,0,0,.1,0h26.4c.5,0,.9.4.9.9,0,.2,0,.3-.1.5l-27.6,44.1h0Z"/><polyline class="cls-1" points="321 319.3 312.6 319.3 311 315.3 322.8 315.3"/><path class="cls-11" d="m320.3,318c0,.3-.3.6-.6.6h-5.3c-.3,0-.6-.3-.6-.6h0c0-.3.3-.6.6-.6h5.3c.3,0,.6.3.6.6Z"/><line class="cls-11" x1="166.7" y1="251.6" x2="118.1" y2="290.9"/><line class="cls-8" x1="166.7" y1="251.6" x2="126.4" y2="284.1"/><polygon class="cls-44" points="123.4 276.9 118.1 290.9 132.8 288.5 123.4 276.9"/><line class="cls-11" x1="238.1" y1="254.6" x2="286.7" y2="293.9"/><line class="cls-8" x1="238.1" y1="254.6" x2="278.3" y2="287.1"/><polygon class="cls-44" points="271.9 291.5 286.7 293.9 281.3 279.9 271.9 291.5"/><line class="cls-9" x1="204.1" y1="121.5" x2="204.6" y2="154.3"/><line class="cls-8" x1="204.1" y1="121.5" x2="204.5" y2="143.5"/><polygon class="cls-44" points="197 141.4 204.6 154.3 211.9 141.2 197 141.4"/><line class="cls-9" x1="116.6" y1="117.2" x2="165.2" y2="156.5"/><line class="cls-8" x1="116.6" y1="117.2" x2="156.8" y2="149.8"/><polygon class="cls-44" points="150.4 154.2 165.2 156.5 159.8 142.6 150.4 154.2"/><line class="cls-9" x1="292.2" y1="117.2" x2="243.6" y2="156.5"/><line class="cls-8" x1="292.2" y1="117.2" x2="251.9" y2="149.8"/><polygon class="cls-44" points="248.9 142.6 243.6 156.5 258.3 154.2 248.9 142.6"/><circle class="cls-6" cx="204.4" cy="204.2" r="45"/><path d="m169.7,200.7c-2.3-.4-3.9-2.6-3.5-4.9,0-.1,0-.2,0-.4.3-1.5,1.3-2.7,2.7-3.2l.6,1.9c-.8.3-1.3.9-1.5,1.7-.3,1.3.4,2.6,1.7,2.9,0,0,.2,0,.3,0,1.2.4,2.6-.3,2.9-1.6,0-.1,0-.2,0-.3.2-.8,0-1.6-.6-2.2l1.3-1.4c1,1.1,1.5,2.6,1.2,4-.5,2.4-2.8,3.9-5.2,3.4,0,0,0,0-.1,0Z"/><path d="m173.1,192.2c-1.6-.8-2.2-2.8-1.4-4.4,0,0,0,0,0,0,.8-1.6,2.7-2.3,4.3-1.5,0,0,0,0,0,0,1.6.8,2.2,2.8,1.4,4.4,0,0,0,0,0,0-.8,1.6-2.7,2.3-4.3,1.5,0,0,0,0,0,0Zm2.1-4.2c-.7-.4-1.5,0-1.9.6,0,0,0,0,0,0-.4.6-.1,1.5.5,1.8,0,0,.1,0,.2,0,.7.4,1.5,0,1.9-.6,0,0,0,0,0,0,.4-.6.1-1.5-.5-1.8,0,0-.1,0-.2,0Z"/><path d="m182.3,177.9l2.8,2.5-1.2,1.4-2.7-2.4c-.5-.4-.9-.5-1.3,0-.4.4-.3,1,0,1.4,0,0,0,0,.1,0l2.6,2.3-1.2,1.4-2.7-2.4c-.5-.4-.9-.5-1.3,0-.4.4-.3,1,0,1.4,0,0,0,0,.1,0l2.6,2.3-1.2,1.4-4.5-4.1,1.2-1.4.4.4c-.1-.6.1-1.3.6-1.7.4-.5,1.1-.7,1.7-.6-.1-.7.1-1.4.6-1.9.9-.9,2.3-1,3.2-.2,0,0,.1,0,.2.2l-.2-.2Z"/><path d="m187.4,171.8l3.3,5.2-1.6,1-.3-.5c0,.7-.5,1.3-1.1,1.6-1,.7-2.5.4-3.1-.6,0,0-.1-.2-.2-.3l-2-3.2,1.6-1,1.9,3c.3.5.9.7,1.4.4,0,0,0,0,0,0,.6-.4.8-.9.3-1.7l-1.8-2.8,1.6-1h0Z"/><path d="m195.8,171.1l1.3,3.5-1.7.6-1.2-3.3c-.1-.5-.6-.9-1.2-.8,0,0-.1,0-.2,0-.6.2-.9.9-.7,1.6,0,0,0,0,0,0l1.1,3.2-1.7.6-2.1-5.8,1.7-.6.2.5c.3-.6.8-1.1,1.4-1.3,1.1-.5,2.4.1,2.9,1.3,0,.1,0,.2.1.3h0Z"/><path d="m196.4,166.9c-.1-.6.3-1.2.9-1.3.6-.1,1.2.3,1.3.9.1.6-.3,1.2-.9,1.3,0,0,0,0,0,0-.6.1-1.2-.3-1.3-.9Zm.5,1.6l1.8-.3,1.1,6-1.8.3-1.1-6Z"/><path d="m200.5,170.9c0-1.7,1.3-3.2,3-3.3,0,0,0,0,0,0,1.1,0,2.2.5,2.8,1.5l-1.6,1c-.2-.4-.7-.7-1.2-.7-.7,0-1.3.5-1.3,1.2,0,0,0,.2,0,.3,0,.8.6,1.4,1.3,1.4,0,0,0,0,0,0,.5,0,1-.3,1.2-.7l1.6.9c-.5,1-1.6,1.7-2.7,1.7-1.7.1-3.2-1.2-3.3-2.9,0,0,0-.1,0-.2v-.2Z"/><path d="m214.1,168.9l-1.1,6-1.8-.3v-.6c-.5.5-1.2.6-1.8.4-1.7-.4-2.7-2-2.3-3.7,0,0,0,0,0,0,.2-1.7,1.8-2.9,3.5-2.7.7,0,1.3.5,1.7,1.1v-.6c.1,0,1.9.3,1.9.3h0Zm-2.4,2.7c.2-.7-.2-1.4-.9-1.6-.1,0-.2,0-.3,0-.7-.2-1.5.3-1.7,1,0,0,0,.1,0,.2-.2.7.2,1.4.9,1.6.1,0,.2,0,.3,0,.7.2,1.5-.3,1.7-1,0,0,0-.1,0-.2h0Z"/><path d="m217.6,172.1l-.8,2c-.2.5.2.7,1,1l-.6,1.6c-2.3-.6-2.7-1.6-2.1-3.2l.8-2-.9-.4.6-1.6.9.4.4-1.1,1.9.2-.6,1.6,1.2.5-.6,1.6-1.2-.5h0Z"/><path d="m220.8,171.6l1.6.9-2.9,5.4-1.6-.9,2.9-5.4Zm.6-1.5c.3-.6.9-.8,1.5-.5.6.3.8.9.5,1.5-.3.6-.9.8-1.5.5,0,0,0,0,0,0-.5-.3-.7-.9-.5-1.5Z"/><path d="m222.1,175.7c1.1-1.4,3.1-1.7,4.5-.6,1.4,1.1,1.7,3.1.6,4.5h0c-1,1.4-3,1.7-4.4.7,0,0,0,0-.1-.1-1.4-1.1-1.7-3.1-.6-4.5,0,0,0,0,0,0Zm3.7,2.8c.5-.6.4-1.5-.2-2h0c-.6-.5-1.4-.4-1.9.2,0,0,0,0,0,.1-.5.6-.4,1.5.2,2h0c.6.5,1.4.4,1.9-.2,0,0,0,0,0-.1Z"/><path d="m232.5,184.6l-2.9,2.4-1.2-1.4,2.7-2.2c.5-.3.6-.9.3-1.4,0,0,0,0,0-.1-.4-.5-1-.6-1.7,0l-2.6,2.1-1.2-1.4,4.7-3.9,1.2,1.4-.4.4c.7,0,1.3.3,1.7.9.8,1,.7,2.4-.3,3.2,0,0-.2.1-.2.2v-.2Z"/><path d="m235.1,191.6c-1.7.9-3.2,0-4-1.4-.6-1.1-.6-2.5.2-3.5l1.6,1c-.4.4-.5,1.1-.2,1.6.2.5.7.8,1.3.7,0,0,.1,0,.1,0,.5-.2.7-.8.3-1.5l-.2-.4.6-1.2,2.5.5-1.5-2.8,1.6-.9,2.6,4.9-1.4.7-2.4-.4c.3,1.1-.3,2.2-1.3,2.7h.2Z"/><path d="m238.9,200.7c-2.1.6-4.3-.6-5-2.7,0-.2,0-.3-.1-.5-.7-2.4.7-4.9,3-5.6,2.4-.7,4.9.7,5.6,3,0,.1,0,.3.1.4.4,1.5,0,3-1.1,4.1l-1.3-1.4c.5-.6.7-1.5.5-2.3-.3-1.4-1.6-2.2-3-1.9,0,0,0,0-.1,0-1.4.3-2.2,1.7-1.9,3.1,0,0,0,0,0,.1.1.9.9,1.7,1.8,1.8l-.5-2.2,1.7-.4,1,4.2-.7.2Z"/><path class="cls-2" d="m217.2,192.2c-8.5-.2-17.8-.2-26.3,0-14.8,1.9-22,20.9-11.6,31.8,2.2,3.3-1.6,9.5,2.3,11.8,3.3,1,5.2-3.4,7.4-5.1,9.2-1,20.3.5,29.8-.5,22.1-2.9,20.7-37.2-1.6-38.2v.2Z"/><path d="m197.4,209.5c1.1.4,2,1,2.8,1.8.7.9,1.1,2,1,3.1.1,1.7-.6,3.3-1.9,4.4-1.3,1.1-3,1.6-4.7,1.6-1.4.1-2.7-.2-3.9-1-1.1-.7-2-1.8-2.5-3l4-2.3c.3,1.1,1.3,1.9,2.4,1.9,1.2,0,1.1-.2,1.5-.5.7-.7.7-1.7,0-2.4,0,0,0,0,0,0-.4-.3-1-.5-1.5-.4h-1l-1.8-2.6,2.9-3.5h-6v-4.4h11.6v3.6l-3,3.7h0Z"/><path d="m220.9,209.8v1.8c0,2.4-.8,4.7-2.5,6.4-1.7,1.6-4,2.5-6.4,2.4-2.6,0-5-.9-6.9-2.7-3.6-3.6-3.7-9.5,0-13.2,1.8-1.8,4.2-2.8,6.6-2.7,1.6-.1,3.2.3,4.6,1.1,1.4.6,2.5,1.7,3.2,3l-3.9,2.2c-.4-.6-.9-1-1.6-1.3-.7-.3-1.5-.5-2.3-.5-2.6,0-4.8,2-4.9,4.7,0,0,0,.2,0,.2,0,1.3.4,2.6,1.3,3.5,1,1,2.4,1.5,3.8,1.4,1.7,0,3.3-.8,4.1-2.3h-4.3v-3.9h9.2Z"/><circle class="cls-4" cx="317.6" cy="65.7" r="45"/><path class="cls-32" d="m307.6,66.3v-7.5c.3-5.5,5-9.7,10.6-9.4,4.4.2,8.1,3.3,9.1,7.6.1.6.2,1.3.2,1.9v7.5h-20,0Zm6.3-13.6c.5,0,.9-.4.9-.9h0c0-.5-.4-.9-.9-.9-.5,0-.9.4-.9.9s.4.9.9.9h0Zm3.6-1.8c-.5,0-.9.4-.9.9,0,.5.4.9.9.9.5,0,.9-.4.9-.9h0c0-.5-.4-.9-.9-.9Zm4.6,1c0-.5-.4-.9-.9-.9h0c-.5,0-.9.4-.9.9,0,.4.3.8.7.9h.2c.5,0,.9-.3.9-.7,0,0,0,0,0,0h0Zm-11.8,2.7c-.5,0-.9.4-.9.9,0,.5.4.9.9.9.5,0,.9-.4.9-.9h0c0-.5-.4-.9-.9-.9Zm4.6.9c0-.5-.4-.9-.9-.9-.5,0-.9.4-.9.9s.4.9.9.9h0c.5,0,.9-.3.9-.7,0,0,0,0,0,0h0Zm2.7-.9c-.5,0-.9.4-.9.9,0,.5.4.9.9.9.5,0,.9-.4.9-.9h0c0-.5-.4-.9-.9-.9Zm4.6.9c0-.5-.4-.9-.9-.9-.5,0-.9.4-.9.9s.4.9.9.9h0c.5,0,.9-.3.9-.7,0,0,0,0,0,0h0Zm2.7-.9c-.5,0-.9.4-.9.9,0,.5.4.9.9.9.5,0,.9-.4.9-.9h0c0-.5-.4-.9-.9-.9Zm-13.6,4.5c0-.5-.3-.9-.7-.9,0,0,0,0,0,0h0c-.5,0-1,.3-1.1.9,0,.5.3,1,.9,1.1.5,0,1-.3,1.1-.9,0,0,0,0,0,0h-.1Zm7.3,3.6c0-.5-.4-.9-.9-.9-.5,0-.9.4-.9.9,0,.5.4.9.9.9h0c.5,0,.9-.3.9-.8h0Zm2.7-.9c-.5,0-.9.4-.9.9,0,.5.4.9.9.9.5,0,.9-.4.9-.9h0c0-.5-.4-.9-.9-.9Zm4.5,1c0-.5-.4-.9-.9-.9-.5,0-.9.4-.9.9s.4.9.9.9h0c.5,0,.9-.3,1-.8h-.1Zm-15.4-.9c-.5,0-.9.4-.9.9,0,.5.4.9.9.9s.9-.4.9-.9h0c0-.5-.4-.9-.9-.9Zm14.5-1.8c.5,0,.9-.4.9-.9,0-.5-.4-.9-.9-.9-.5,0-.9.4-.9.9h0c0,.5.4.9.9.9Zm-2.7-.9c0-.5-.3-1-.9-1.1-.5,0-1,.3-1.1.9,0,.5.3,1,.9,1.1,0,0,0,0,0,0h0c.5,0,.9-.3.9-.7,0,0,0,0,0,0h.1Zm-4.6-.9c-.5,0-.9.4-.9.9,0,.5.4.9.9.9.5,0,.9-.4.9-.9h0c0-.5-.4-.9-.9-.9Zm-2.7.9c0-.5-.4-.9-.9-.9-.5,0-.9.4-.9.9s.4.9.9.9h0c.5,0,.9-.3.9-.7,0,0,0,0,0,0h0Zm0,3.6c0-.5-.4-.9-.9-.9-.5,0-.9.4-.9.9,0,.5.4.9.9.9h0c.5,0,.9-.3,1-.8h-.1Z"/><path class="cls-18" d="m307.6,66.3h20.9c1.1,0,.9-.1.9.9v3.6h-23.6v-3.6c0-1-.1-.9.9-.9h.9Z"/><path class="cls-13" d="m332.1,70.8v8.1c0,6.7-4.6,12.5-11.1,14.1-.5.1-1,.2-1.4.3-1.4.2-2.7.2-4.1,0-1.6-.3-3.1-.8-4.6-1.5-4-2.1-6.8-5.9-7.7-10.3-.2-.9-.2-1.7-.2-2.6v-8.1h1.8v8.5c0,.8.1,1.6.3,2.4,1.5,6.8,8.3,11.1,15.1,9.6,2.8-.6,5.2-2.1,7-4.3,1.8-2,2.8-4.6,2.9-7.3.1-3,0-6,0-9h2Z"/><path class="cls-18" d="m320.3,96.3c1.2,0,2.4,0,3.6.3,2,.7,3.5,2.5,3.7,4.7,0,.5-.2.5-.5.5h-18.9c-.5,0-.6-.2-.5-.6.3-2.7,2.6-4.8,5.4-4.9h7.2,0Z"/><path class="cls-10" d="m297.3,56.3c0-2.4.9-4.8,2.4-6.7.5-.6,1-.7,1.4-.3.4.4.4,1,0,1.4-2.7,3.2-2.7,8,0,11.2.4.6.4,1.1,0,1.4-.4.3-1,.2-1.3-.2h0c-1.6-1.9-2.4-4.3-2.4-6.8h-.1Z"/><path class="cls-36" d="m337.9,56.3c0,2.5-.9,4.9-2.4,6.8-.3.5-.8.6-1.3.4h0c-.5-.3-.5-.9,0-1.4,2.7-3.2,2.7-8,0-11.2-.5-.6-.5-1.1,0-1.4.4-.3,1-.2,1.3.2,0,0,0,0,0,.1,1.6,1.9,2.4,4.3,2.4,6.8v-.3Z"/><path class="cls-36" d="m304.1,50.9c.3,0,.6.2.7.5.2.3.2.7,0,1-1.7,2.2-1.8,5.3-.2,7.6,0,.1.1.2.2.3.3.4.3,1,0,1.3-.4.3-.9.3-1.2,0v-.2c-.9-1-1.4-2.2-1.7-3.5-.4-2.3.1-4.6,1.5-6.5.2-.3.5-.5.9-.4h-.1Z"/><path class="cls-36" d="m333.7,56.8c0,1.6-.6,3.2-1.7,4.4-.2.4-.8.5-1.2.3-.4-.2-.5-.8-.3-1.2h0c0,0,0-.1.1-.2,1.8-2.3,1.8-5.5,0-7.8-.4-.4-.4-.9,0-1.3h.1c.5-.3,1.1-.2,1.4.3,0,0,0,0,0,0,1.2,1.5,1.8,3.5,1.7,5.4h-.1Z"/><path class="cls-18" d="m302.1,70.8v.3c0,.4,0,.6-.6.6h-2.6c-.9,0-.5,0-.5-.4v-4.6c0-.4.2-.4.5-.4h2.5c.5,0,.7.1.6.6v3.9h.1Z"/><path class="cls-18" d="m333,67.2v-.3c0-.4.1-.6.6-.6h2.6c.9,0,.5,0,.5.4v4.6c0,.4-.2.4-.5.4h-2.5c-.5,0-.7-.1-.6-.6v-3.9h-.1Z"/><path class="cls-3" d="m302.1,70.8v-3.6h3.6v3.6h-3.6Z"/><path class="cls-3" d="m333,67.2v3.6h-3.6v-3.6h3.6Z"/><path class="cls-40" d="m320.3,96.3h-5.4c.2-1,.5-1.9.7-2.8,1.4.2,2.7.2,4.1,0,.2.9.4,1.9.7,2.8h-.1Z"/><path class="cls-20" d="m314,52.7c-.5,0-.9-.4-.9-.9,0-.5.4-.9.9-.9.5,0,.9.4.9.9h0c0,.5-.4.9-.9.9Z"/><path class="cls-20" d="m317.6,50.9c.5,0,.9.4.9.9,0,.5-.4.9-.9.9-.5,0-.9-.4-.9-.9h0c0-.5.4-.9.9-.9Z"/><path class="cls-20" d="m322.1,51.8c0,.5-.3.9-.8,1-.5,0-.9-.3-1-.8,0,0,0,0,0,0v-.2c0-.5.4-.9.9-.9h0c.5,0,.9.4.9.9Z"/><path class="cls-20" d="m310.3,54.5c.5,0,.9.4.9.9,0,.5-.4.9-.9.9-.5,0-.9-.4-.9-.9h0c0-.5.4-.9.9-.9Z"/><path class="cls-20" d="m314.9,55.4c0,.5-.4.9-.9.9-.5,0-.9-.4-.9-.9s.4-.9.9-.9h0c.5,0,.9.4.9.9Z"/><path class="cls-20" d="m317.6,54.5c.5,0,.9.4.9.9,0,.5-.4.9-.9.9-.5,0-.9-.4-.9-.9h0c0-.5.4-.9.9-.9Z"/><path class="cls-20" d="m322.1,55.4c0,.5-.4.9-.9.9-.5,0-.9-.4-.9-.9s.4-.9.9-.9h0c.5,0,.9.4.9.9Z"/><path class="cls-20" d="m324.8,54.5c.5,0,.9.4.9.9,0,.5-.4.9-.9.9-.5,0-.9-.4-.9-.9h0c0-.5.4-.9.9-.9Z"/><path class="cls-20" d="m311.2,59.1c0,.5-.4.9-.9.9-.5,0-.9-.4-.9-.9s.4-.9.9-.9h0c.5,0,.9.4.9.9Z"/><path class="cls-20" d="m318.5,62.6c0,.5-.4.9-.9.9s-.9-.4-.9-.9.4-.9.9-.9h0c.5,0,.9.4.9.9Z"/><path class="cls-20" d="m321.2,61.8c.5,0,.9.4.9.9,0,.5-.4.9-.9.9s-.9-.4-.9-.9h0c0-.5.4-.9.9-.9Z"/><path class="cls-20" d="m325.8,62.7c0,.5-.4.9-.9.9s-.9-.4-.9-.9.4-.9.9-.9h0c.5,0,.9.4.9.9Z"/><path class="cls-20" d="m310.3,61.8c.5,0,.9.4.9.9,0,.5-.4.9-.9.9s-.9-.4-.9-.9h0c0-.5.4-.9.9-.9Z"/><path class="cls-20" d="m324.8,59.9c-.5,0-.9-.5-.8-1,0-.4.4-.7.8-.8.5-.1,1,.2,1.1.7s-.2,1-.7,1.1c0,0-.1,0-.2,0h-.2Z"/><path class="cls-20" d="m322.1,59c0,.5-.4.9-.9.9-.5,0-.9-.4-.9-.9s.4-.9.9-.9h0c.5,0,.9.4.9.9Z"/><path class="cls-20" d="m317.6,58.1c.5,0,.9.4.9.9,0,.5-.4.9-.9.9-.5,0-.9-.4-.9-.9h0c0-.5.4-.9.9-.9Z"/><path class="cls-20" d="m314.9,59c0,.5-.4.9-.9.9-.5,0-.9-.4-.9-.9s.4-.9.9-.9h0c.5,0,.9.4.9.9Z"/><path class="cls-20" d="m314.9,62.7c0,.5-.4.9-.9.9h0c-.5-.2-.8-.8-.6-1.3.1-.3.4-.5.7-.6.5,0,.9.4.9.9h-.1Z"/><path class="cls-29" d="m307.6,72.6v-1.8h19.9v1.8h-19.9Z"/><path class="cls-39" d="m327.6,79c-.6,5.5-5.5,9.5-10.9,9-4.7-.5-8.5-4.2-9-9h19.9Zm-6.2,6.1c.1,0,.2,0,.3-.1.9-.6,1.7-1.4,2.2-2.4.2-.4,0-.8-.3-1.1h0c-.4-.3-.9-.2-1.2.1,0,0,0,0,0,0-.5.7-1,1.3-1.7,1.8-.3.2-.4.7-.2,1,.1.4.4.5,1,.6h0Zm-3.2-.7h-.7c-.5,0-.8.5-.8,1,0,.4.4.7.8.8h0c.5,0,.9,0,1.4-.1.3-.1.6-.4.6-.8,0-.3-.2-.7-.5-.8-.2,0-.5,0-.7,0h0Z"/><path class="cls-18" d="m327.6,79h-19.9v-4.6h19.9v4.6Z"/><path class="cls-34" d="m327.6,74.5h-19.9v-1.8h19.9v1.8Z"/><path class="cls-33" d="m321.4,85.1c-.4,0-.8-.2-1-.6-.2-.3,0-.7.2-1,.7-.5,1.2-1.1,1.7-1.8.3-.4.8-.5,1.1-.2,0,0,0,0,0,0,.4.2.6.7.4,1.1h0c-.5,1-1.3,1.8-2.2,2.4,0,0-.2,0-.3.1Z"/><path class="cls-33" d="m318.2,84.5h.7c.3.2.5.5.5.8,0,.4-.2.7-.6.8-.4.2-.9.2-1.4.1-.5,0-.8-.4-.8-.8,0,0,0,0,0,0h0c0-.5.3-.9.7-.9,0,0,0,0,0,0h.8Z"/><path d="m293.1,50.8l-1.1,2.5-6.4-2.7,3.4,4.8v.3c-.1,0-6,.8-6,.8l6.4,2.7-1.1,2.5-10.9-4.7,1.1-2.5,6.1-.9-3.6-5.1,1.1-2.5,10.9,4.7h.1Z"/><path d="m285.7,43.5c-.7-.6-.8-1.5-.2-2.2.6-.7,1.5-.8,2.2-.2h0c.7.6.7,1.5.2,2.2-.6.6-1.5.7-2.2.2Zm1.9,1.2l1.6-2,6.6,5.4-1.6,2-6.6-5.4Z"/><path d="m293.6,44c-1.6-1.8-1.4-4.6.4-6.2,0,0,.1,0,.2-.1,1.2-1,2.9-1.3,4.4-.7l-.9,2.4c-.6-.3-1.4-.2-1.9.3-.8.6-1,1.6-.4,2.4,0,0,.1.2.2.3.7.8,1.9,1,2.7.3.5-.4.8-1.1.7-1.8l2.5-.4c.3,1.6-.3,3.1-1.6,4.1-1.9,1.6-4.7,1.3-6.3-.6,0,0,0,0,0,0Z"/><path d="m304.1,31.9l1.3,2.6c-1.1.2-1.8,1.2-1.6,2.3,0,.2.1.4.2.6l1.7,3.4-2.3,1.1-3.7-7.6,2.3-1.1.7,1.4c-.1-1.1.5-2.2,1.5-2.6h0Z"/><path d="m306.8,35.4c-.5-2.4,1-4.8,3.4-5.4,2.4-.6,4.8.9,5.4,3.3,0,0,0,0,0,.1.6,2.4-1,4.8-3.4,5.4s-4.8-1-5.4-3.4Zm6.3-1.4c-.2-1-1.1-1.7-2.1-1.5,0,0-.1,0-.2,0-1.1.2-1.7,1.2-1.5,2.3,0,0,0,0,0,.1.2,1,1.1,1.7,2.1,1.5,0,0,.1,0,.2,0,1.1-.2,1.7-1.2,1.5-2.3,0,0,0,0,0-.1Z"/><path d="m326.7,34.3c-.1,2.4-2.1,4.2-4.5,4.1-1,0-1.8-.5-2.4-1.3l-.4,4.2-2.5-.2,1.1-11.8,2.5.2v.8c.7-.7,1.6-1,2.5-.8,2.3.3,3.9,2.4,3.6,4.7,0,0,0,.1,0,.2h0Zm-2.5-.2c.2-1.1-.6-2.1-1.7-2.3,0,0,0,0-.1,0-1-.2-2,.6-2.2,1.6,0,0,0,.2,0,.3-.2,1.1.6,2.1,1.7,2.3,0,0,0,0,.1,0,1,.2,2-.6,2.2-1.6,0,0,0-.2,0-.3Z"/><path d="m336.4,37.2l-2.1,4.8-2.3-1,1.9-4.5c.4-.7.1-1.5-.5-1.9,0,0-.2,0-.3-.1-.7-.4-1.6-.1-2,.6,0,.1-.1.3-.1.4l-1.8,4.3-2.3-1,4.7-10.9,2.3,1-1.6,3.9c.8-.4,1.8-.4,2.6,0,1.6.7,2.4,2.4,1.5,4.5h0Z"/><path d="m337.6,39c1.6-1.9,4.4-2.1,6.3-.5,0,0,0,0,0,0,1.9,1.5,2.2,4.3.6,6.1,0,0,0,.1-.1.2-1.6,1.9-4.4,2.1-6.3.5,0,0,0,0,0,0-1.9-1.5-2.2-4.3-.6-6.1,0,0,0-.1.1-.2Zm4.9,4.2c.7-.7.7-1.9,0-2.6,0,0-.1-.1-.2-.2-.8-.7-2-.6-2.7.1,0,0,0,.1-.1.2-.7.7-.7,1.9,0,2.6,0,0,.1.1.2.2.8.7,2,.6,2.7-.1,0,0,0-.1.1-.2Z"/><path d="m350.9,52.7l-4.4,2.8-1.4-2.2,4.1-2.6c.7-.3,1-1.1.7-1.8,0,0,0-.2-.2-.3-.4-.7-1.3-1-2.1-.6,0,0-.2.1-.2.2l-3.9,2.5-1.4-2.2,7.2-4.5,1.4,2.2-.7.4c.9.1,1.8.7,2.2,1.5.9,1.5.7,3.3-1.3,4.6h0Z"/><path d="m350,60c.1.6.5,1.1,1.1,1.4l-.6,2.3c-1.3-.6-2.3-1.7-2.7-3.1-.8-2.2.3-4.7,2.5-5.5.2,0,.4-.1.6-.2,2.4-.6,4.8.8,5.4,3.2.6,2.4-.8,4.8-3.1,5.4h0c-.3,0-.7.2-1,.2l-1.6-5.8c-.7.5-1,1.5-.6,2.3v-.2Zm3.4.7c.7-.4,1.1-1.3.8-2.1-.2-.8-.9-1.4-1.8-1.4l1,3.5Z"/><circle class="cls-4" cx="204.4" cy="65.7" r="45"/><path class="cls-14" d="m182.8,98.4l-1.8-1.8c-.2-.2-.3-.4-.3-.7v-38.2c0-.3,0-.7.3-.9.9-1,1.9-1.9,2.8-2.9.2-.2.4-.3.6-.3h37.8c.2,0,.4,0,.5.2l1.8,1.8v38.7c0,.3-.1.7-.4.9-.8.8-1.6,1.7-2.4,2.5-.2.3-.6.5-1,.5h-37.4c-.2,0-.4,0-.6.1h.1Zm13.7-4.5h2.5v1.9q0,1.1,1.1,1.1c.3,0,.4-.1.4-.4v-2.6h2.5v1.9q0,1.1,1.1,1.1c.3,0,.4-.1.4-.4v-2.6h2.5v1.9q0,1.1,1.1,1.1c.3,0,.4,0,.4-.4v-2.7h2.5v2q0,1.1,1.1,1.1c.4,0,.5-.1.5-.5v-2.6h2.5v1.9q0,1.2,1.2,1.1c.3,0,.4-.1.4-.4v-2.6h2.5v1.9q0,1.2,1.2,1.1c.3,0,.4,0,.4-.4v-2.6c.2,0,.4,0,.4-.3h1.8q1.1,0,1.1-1.1c0-.3-.1-.4-.4-.4h-2.5v-2.5h1.8q1.1,0,1.1-1.1c0-1.1-.1-.5-.4-.5h-2.5v-2.5h1.8c1.3,0,1.1.2,1.1-1.1s0-.4-.4-.4h-2.5v-2.5h1.8c1.3,0,1.1.2,1.1-1.1s-.1-.4-.4-.4h-2.5v-2.5h1.8c1.3,0,1.1.2,1.1-1.1s-.1-.4-.4-.4h-2.5v-2.5h1.8q1.2,0,1.1-1.2c0-.3-.1-.3-.4-.3h-2.6v-2.5h1.8q1.2,0,1.1-1.2c0-.3-.1-.3-.4-.3h-2.6v-2.5h1.8q1.2,0,1.1-1.2c0-.3-.1-.3-.4-.3h-2.6v-2.5h1.8q1.2,0,1.1-1.2c0-.3-.1-.3-.4-.3h-2.6c0-.3-.1-.4-.4-.4v-1.8q0-1.2-1.2-1.1c-.3,0-.3,0-.3.4v2.6h-2.5v-1.8q0-1.2-1.2-1.1c-.3,0-.3,0-.3.4v2.6h-2.5v-1.8q0-1.2-1.2-1.1c-.3,0-.3,0-.3.4v2.6h-2.5v-1.8q0-1.2-1.2-1.1c-.3,0-.3,0-.3.4v2.6h-2.5v-1.8q0-1.2-1.2-1.1c-.3,0-.3,0-.3.4v2.6h-2.5v-1.9q0-1.2-1.2-1.1c-.3,0-.3,0-.3.4v2.6h-2.5v-1.9q0-1.2-1.2-1.1c-.3,0-.3,0-.3.4v2.6h-2.5v-1.9c0-1.2,0-1.1-1.2-1.1s-.3,0-.3.4v2.6h-2.5v-1.9c0-1.2,0-1.1-1.2-1.1s-.3,0-.3.4v2.6h-.6c-.3,0-.4,0-.4.4h-1.2q-1.2,0-1.1,1.2c0,.1,0,.3.2.3,0,0,0,0,0,0h2v2.5h-1.2q-1.2,0-1.1,1.2c0,.1,0,.3.2.3,0,0,0,0,0,0h2v2.5h-1.2q-1.2,0-1.1,1.2c0,.1,0,.3.2.3,0,0,0,0,0,0h2v2.5h-1.2q-1.2,0-1.1,1.2c0,.3.1.3.3.3h2v2.5h-1.2q-1.2,0-1.2,1.2c0,.2,0,.3.3.3h2v2.5h-1.2q-1.2,0-1.2,1.2c0,.3.1.3.4.3h1.9v2.5h-1.2q-1.2,0-1.2,1.2c0,.3.1.3.4.3h1.9v2.5h-1.2q-1.2,0-1.1,1.2c0,.3.1.3.4.3h1.9v2.5h-1.2q-1.2,0-1.1,1.2c0,.3.1.3.4.3h1.9c0,.2,0,.3.3.3h.7v1.9q0,1.2,1.2,1.1c.3,0,.3-.1.3-.4v-2.7h2.5v1.9q0,1.2,1.2,1.1c.3,0,.3-.1.3-.4v-2.7h2.5v1.9q0,1.1,1.1,1.1c.3,0,.4-.1.4-.4v-2.6h.4Z"/><path class="cls-15" d="m182.8,98.4c.2-.2.4-.1.6-.1h37.4c.4,0,.8-.2,1-.5.8-.9,1.6-1.7,2.4-2.5.3-.2.4-.6.4-.9v-38.7c.5.4.9.9,1.4,1.3.2.2.1.4.1.6v38.4c0,.3,0,.6-.3.8-.9.9-1.8,1.9-2.6,2.8-.2.2-.4.3-.6.3h-38c-.2,0-.4,0-.6-.2-.4-.4-.8-.8-1.1-1.2h0Z"/><path class="cls-16" d="m216.5,59.6h2.9v8.7c.1,3.7,0,7.5-.2,11.2-.2,1.7-.5,3.4-1.1,5-.2.6-.5,1.2-.9,1.8v-21.6c0-.5.2-1.1,0-1.3s-.9,0-1.4,0h-25.5c-.4,0-.5.1-.5.5v25.8c0,.4.1.5.5.5h23.1c-.5.2-.9.5-1.4.7-2.5,1-5.2,1.5-7.9,1.5h-18v-32.3c0-.3,0-.4.4-.4h30.1-.1Z"/><path class="cls-21" d="m186,92.3h18c2.7,0,5.4-.5,7.9-1.5.5-.2.9-.5,1.4-.7h3.5c.3,0,.4,0,.4-.4v-3.4c.4-.5.7-1.1.9-1.8.6-1.6,1-3.3,1.1-5,.3-3.7.1-7.5.2-11.2v-8.7h1.1c.3,0,.4,0,.4.4v33.5c0,.3-.2.3-.4.3h-34.2c-.2,0-.3,0-.3-.3v-1.2Z"/><path class="cls-30" d="m214.9,93.8h1.5v2.6c0,.3,0,.4-.4.4q-1.2,0-1.2-1.1v-1.9h0Z"/><path class="cls-25" d="m210.9,93.8h1.5v2.6c0,.3,0,.5-.5.5q-1.1,0-1.1-1.1v-1.9h.1Z"/><path class="cls-25" d="m218.9,93.8h1.5v2.6c0,.3,0,.4-.4.4q-1.2,0-1.2-1.1v-1.9h0Z"/><path class="cls-25" d="m212.5,59.6h-1.5v-2.6c0-.2,0-.4.3-.4q1.2,0,1.2,1.1v1.9Z"/><path class="cls-30" d="m216.5,59.6h-1.5v-2.6c0-.2,0-.3.3-.4q1.2,0,1.2,1.1v1.9Z"/><path class="cls-25" d="m220.5,59.6h-1.5v-2.6c0-.2,0-.3.3-.4q1.2,0,1.2,1.1v1.9Z"/><path class="cls-25" d="m220.9,85.5v-1.5h2.5c.3,0,.4.1.4.4,0,1.4.2,1.1-1.1,1.1h-1.8Z"/><path class="cls-25" d="m220.9,77.5v-1.5h2.5c.3,0,.4.1.4.4,0,1.4.2,1.1-1.1,1.1h-1.8Z"/><path class="cls-25" d="m220.9,81.5v-1.5h2.5c.3,0,.4.1.4.4,0,1.4.2,1.1-1.1,1.1h-1.8Z"/><path class="cls-25" d="m220.9,89.5v-1.5h2.5c.3,0,.4.1.4.5q0,1.1-1.1,1.1h-1.8,0Z"/><path class="cls-45" d="m187,93.8h1.5v2.7c0,.2,0,.4-.3.4q-1.2,0-1.2-1.1v-2h0Z"/><path class="cls-45" d="m191,93.8h1.5v2.7c0,.2,0,.4-.3.4q-1.2,0-1.2-1.1v-2h0Z"/><path class="cls-45" d="m199,93.8h1.5v2.6c0,.3,0,.4-.4.4q-1.1,0-1.1-1.1v-1.9Z"/><path class="cls-25" d="m202.9,93.8h1.5v2.6c0,.3,0,.4-.4.4q-1.1,0-1.1-1.1v-1.9Z"/><path class="cls-25" d="m206.9,93.8h1.5v2.7c0,.3,0,.4-.4.4q-1.1,0-1.1-1.1v-2h0Z"/><path class="cls-45" d="m195,93.8h1.5v2.6c0,.3,0,.4-.4.4q-1.1,0-1.1-1.1v-1.9Z"/><path class="cls-25" d="m220.9,73.5v-1.5h2.6c.2,0,.3,0,.4.3q0,1.2-1.1,1.2h-1.9Z"/><path class="cls-45" d="m220.9,65.5v-1.5h2.6c.2,0,.3,0,.4.3q0,1.2-1.1,1.2h-1.9Z"/><path class="cls-45" d="m220.9,69.5v-1.5h2.6c.2,0,.3,0,.4.3q0,1.2-1.1,1.2h-1.9Z"/><path class="cls-45" d="m220.9,61.5v-1.5h2.6c.2,0,.3,0,.4.3q0,1.2-1.1,1.2h-1.9Z"/><path class="cls-25" d="m208.4,59.6h-1.5v-2.6c0-.2,0-.4.3-.4q1.2,0,1.2,1.1v1.9Z"/><path class="cls-45" d="m200.4,59.6h-1.5v-2.6c0-.2,0-.4.3-.4q1.2,0,1.2,1.1v1.9Z"/><path class="cls-25" d="m220.9,93.5v-1.5h2.5c.3,0,.4,0,.4.4q0,1.1-1.1,1.1h-1.8Z"/><path class="cls-45" d="m204.4,59.6h-1.5v-2.6c0-.2,0-.3.3-.4q1.2,0,1.2,1.1v1.9Z"/><path class="cls-45" d="m196.4,59.6h-1.5v-2.6c0-.2,0-.4.3-.4q1.2,0,1.2,1.1v1.9Z"/><path class="cls-19" d="m192.4,59.6h-1.5v-2.6c0-.2,0-.4.3-.4q1.2,0,1.2,1.1v1.9Z"/><path class="cls-19" d="m188.4,59.6h-1.5v-2.6c0-.2,0-.4.3-.4q1.2,0,1.2,1.1v1.9Z"/><path class="cls-25" d="m185.9,80v1.5h-1.9c-.2,0-.4,0-.4-.3q0-1.2,1.2-1.2h1.1,0Z"/><path class="cls-25" d="m185.9,84v1.5h-1.9c-.2,0-.4,0-.4-.3q0-1.2,1.2-1.2h1.1,0Z"/><path class="cls-25" d="m185.9,88v1.5h-1.9c-.2,0-.4,0-.4-.3q0-1.2,1.1-1.2h1.2Z"/><path class="cls-25" d="m185.9,76v1.5c-.7,0-1.3,0-2,0-.2,0-.3,0-.3-.3q0-1.2,1.2-1.2h1.1Z"/><path class="cls-45" d="m185.9,68v1.5h-2c-.2,0-.3,0-.3-.3q0-1.2,1.1-1.2h1.2Z"/><path class="cls-45" d="m185.9,64v1.5h-2c-.2,0-.3,0-.3-.3q0-1.2,1.1-1.2h1.2Z"/><path class="cls-19" d="m185.9,60v1.5h-2c-.2,0-.3,0-.3-.3q0-1.2,1.1-1.2h1.2Z"/><path class="cls-45" d="m185.9,72v1.5h-2c-.2,0-.3,0-.3-.3q0-1.2,1.1-1.2h1.2Z"/><path class="cls-25" d="m186,92.3v1.2h-2c-.2,0-.3,0-.4-.3q0-1.2,1.1-1.2h1.2v.3h0Z"/><path class="cls-19" d="m189.7,88.6v-24.8c0-.4.1-.5.5-.5h25.5v4.5c0,3.2.1,6.5,0,9.7,0,1.3-.4,2.6-.9,3.8-.7,1.8-1.8,3.4-3.3,4.6-2.3,1.7-5.2,2.6-8.1,2.6h-13.7Zm14.4-5.2h2.2v2.7q0,1.1,1.1,1.1c.3,0,.4-.1.4-.4v-3.4h2.3c.3,0,.4,0,.4-.4v-1.8h2.2q1.1,0,1.1-1.1c0-.3-.1-.4-.4-.4h-2.9v-2.2h2.2q1.1,0,1.1-1.1c0-.3-.1-.4-.4-.4h-2.9v-2.2h2.2q1.1,0,1.1-1.1c0-.3-.1-.4-.4-.4h-2.9v-1.9c0-.3,0-.4-.3-.4h-2.4v-2.6q0-1.1-1.1-1.1c-.3,0-.4,0-.4.4v3.3h-2.2v-2.6q0-1.1-1.1-1.1c-.3,0-.4,0-.4.4v3.3h-2.2v-2.6q0-1.1-1.1-1.1c-.3,0-.4,0-.4.4v3.3h-2.1c-.3,0-.4,0-.4.4v1.9h-2.3q-1.1,0-1.1,1.1c0,.3.1.4.4.4h3.1v2.2h-2.3q-1.1,0-1.1,1.1c0,.3.1.4.4.4h3.1v2.2h-2.3q-1.1,0-1.1,1.1c0,.3.1.4.4.4h3.1v1.9q0,.3.4.3h2.2v2.7q0,1.1,1.1,1.1c.3,0,.4-.1.4-.4v-3.4h2.2v2.7q0,1.1,1.1,1.1c.3,0,.4-.1.4-.4v-3.4h-.4Z"/><path class="cls-22" d="m189.7,88.6h13.6c2.9,0,5.8-.8,8.1-2.6,1.5-1.2,2.7-2.8,3.3-4.6.5-1.2.8-2.5.9-3.8.2-3.2,0-6.5,0-9.7v-4.5c.5,0,1.1-.2,1.4,0s0,.9,0,1.3v25c0,.3,0,.4-.4.4h-26.6c-.4,0-.6,0-.5-.5v-1h.2Z"/><path class="cls-42" d="m196.3,72.3v-1.9c0-.3,0-.4.4-.4h12.2c0,2.4.1,4.8-.1,7.1,0,1.1-.6,2.2-1.4,3v-6.8c0-.3,0-.5-.4-.4h-7.4q-.3,0-.3.3v6.6c0,.4.1.5.5.5h7.4c0,.2-.2.3-.4.4-1,.8-2.3,1.1-3.6,1.1h-6.8v-9.6h-.1Z"/><path class="cls-24" d="m196.4,81.9h6.8c1.3,0,2.6-.3,3.6-1.1.2,0,.3-.2.4-.4.1,0,.2-.2.3-.3.8-.8,1.3-1.9,1.4-3,.2-2.4,0-4.7.1-7.1h1.2c.3,0,.3.1.3.4v12.6c0,.3-.1.4-.4.4h-13.4c-.3,0-.4,0-.4-.3v-1.2h0Z"/><path class="cls-23" d="m206.3,83.4h1.5v3.4c0,.3,0,.4-.4.4q-1.1,0-1.1-1.1v-2.7Z"/><path class="cls-41" d="m202.6,83.4h1.5v3.4c0,.3,0,.4-.4.4q-1.1,0-1.1-1.1v-2.7Z"/><path class="cls-23" d="m198.9,83.4h1.5v3.4c0,.3,0,.4-.4.4q-1.1,0-1.1-1.1v-2.7Z"/><path class="cls-23" d="m200.3,70h-1.5v-3.3c0-.3,0-.4.4-.4q1.1,0,1.1,1.1v2.6Z"/><path class="cls-23" d="m204.1,70h-1.5v-3.3c0-.3,0-.4.4-.4q1.1,0,1.1,1.1v2.6Z"/><path class="cls-16" d="m207.8,70h-1.5v-3.3c0-.3,0-.4.4-.4q1.1,0,1.1,1.1v2.6Z"/><path class="cls-16" d="m196.3,79.7v1.5h-3.1c-.3,0-.4,0-.4-.4q0-1.1,1.1-1.1h2.4Z"/><path class="cls-16" d="m196.3,76v1.5h-3.1c-.3,0-.4,0-.4-.4q0-1.1,1.1-1.1h2.4Z"/><path class="cls-23" d="m196.3,72.3v1.5h-3.1c-.3,0-.4,0-.4-.4q0-1.1,1.1-1.1h2.4Z"/><path class="cls-41" d="m210.5,77.5v-1.5h2.9c.3,0,.4,0,.4.4q0,1.1-1.1,1.1h-2.2Z"/><path class="cls-41" d="m210.5,73.8v-1.5h2.9c.3,0,.4,0,.4.4q0,1.1-1.1,1.1h-2.2Z"/><path class="cls-16" d="m210.5,81.2v-1.5h2.9c.3,0,.4,0,.4.4q0,1.1-1.1,1.1h-2.2Z"/><path class="cls-27" d="m199.3,79v-5.6q0-.3.3-.3h6.3v3.1c0,.6-.1,1.1-.5,1.6-.6.8-1.6,1.3-2.6,1.2h-3.5Z"/><path class="cls-28" d="m199.3,79h3.6c1,0,2-.4,2.6-1.2.3-.5.5-1,.5-1.6v-3.1h1.1c.4,0,.4.1.4.4v6.8c0,.1-.2.2-.3.3h-7.4c-.4,0-.6,0-.5-.5v-1.1h0Z"/><path d="m179.6,42.7c-2.1-3.1-1.2-7.2,1.8-9.3.1,0,.2-.2.4-.2,1.9-1.3,4.4-1.4,6.5-.4l-1.4,2.7c-1.1-.6-2.5-.5-3.5.2-1.9,1.1-2.6,3.6-1.5,5.5,1.1,1.9,3.6,2.6,5.5,1.5,1.2-.7,1.9-1.9,2-3.2h3c0,2.3-1.3,4.3-3.2,5.5-3.1,2-7.3,1.2-9.3-1.9,0,0-.1-.2-.2-.3h-.1Z"/><path d="m202.3,34.5l1.1,5.7-2.8.5-1-5.3c0-.8-.7-1.5-1.5-1.5-.1,0-.3,0-.4,0-.9.1-1.6,1-1.5,1.9,0,0,0,.2,0,.3l.9,5.1-2.8.5-2.4-13.1,2.8-.5.9,4.6c.5-.9,1.5-1.5,2.5-1.6,1.9-.4,3.7.7,4.2,3.2h-.1Z"/><path d="m205.1,31l2.8.2-.5,9.5-2.8-.2.5-9.5Zm-.1-2.6c0-.9.9-1.7,1.8-1.6.9,0,1.7.9,1.6,1.8,0,.9-.9,1.6-1.8,1.6-.9,0-1.6-.8-1.6-1.8,0,0,0,0,0,0h0Z"/><path d="m220,39c-.6,2.5-3.2,4.1-5.7,3.4,0,0,0,0-.1,0-1.1-.3-1.9-1-2.4-2l-1.4,4.5-2.7-.9,4-12.7,2.7.9-.3.9c.9-.5,2-.6,3-.3,2.4.8,3.7,3.5,2.9,5.9,0,0,0,.1,0,.2h.1Zm-2.7-.9c.4-1.1-.1-2.4-1.2-2.8,0,0-.2,0-.3,0-1.1-.4-2.3.1-2.7,1.2,0,0,0,.2,0,.3-.4,1.1.1,2.4,1.2,2.8,0,0,.2,0,.3,0,1.2.4,2.4-.2,2.9-1.4,0,0,0,0,0-.1h0Z"/><path d="m226.6,45.9c-1.2,1.8-3.3,1.5-5,.3-1.5-.9-2.3-2.5-2.1-4.2l2.8.3c-.2.7,0,1.5.7,1.8.6.4,1,.4,1.2,0,.6-.9-3.5-3.1-1.7-5.8,1.2-1.7,3.2-1.6,4.8-.4,1.3.8,2,2.3,1.9,3.8l-2.7-.3c0-.6,0-1.1-.6-1.4-.4-.3-.8-.3-1,0-.6.9,3.6,3,1.6,5.9h.1Z"/><path class="cls-31" d="m90.6,44.7c3.2-.1,6.3,1,8.7,3.2.6.4.7,1.2.3,1.8-.4.5-1.1.5-1.8,0-1.8-1.8-4.3-2.7-6.8-2.6-2.1,0-4.1.9-5.7,2.3-.2.2-.4.4-.6.5-.5.4-1.2.3-1.6-.2,0,0,0,0,0,0-.4-.4-.4-1.1,0-1.5.6-.6,1.3-1.2,2.1-1.6,1.6-1.1,3.5-1.7,5.5-1.8h0Z"/><path class="cls-12" d="m91.1,48.9c2.2,0,4.3.8,5.9,2.3.7.6.8,1.3.3,1.8-.5.5-1.3.5-1.8,0,0,0,0,0,0,0-2.4-2.2-6-2.2-8.4,0-.7.6-1.3.6-1.8,0s-.4-1.2.2-1.8c1.5-1.4,3.5-2.2,5.6-2.3h0Z"/><path class="cls-12" d="m91.2,53.1c1.3,0,2.6.5,3.6,1.4.5.4.6,1.1.3,1.6h0c-.4.5-1.1.6-1.6.2,0,0,0,0,0,0h0c-1.2-1.1-2.9-1.1-4.1,0-.3.4-1,.5-1.4.2,0,0-.1-.1-.2-.2h0c-.4-.6-.3-1.4.2-1.8,0,0,0,0,0,0h0c.9-.9,2.2-1.4,3.5-1.4h-.3Z"/><path class="cls-2" d="m111.8,78.1c-1.5-5.3,3.3-16.5-4.9-17.2h-31c-8.7.2-3.9,11.8-5.4,17.2v6.7c1.5,5.3-3.2,16.1,4.6,17.2h32c7.9-1,3.2-12,4.7-17.2v-6.7Z"/><circle class="cls-5" cx="91.2" cy="65.7" r="45"/><path d="m67.5,48.1l-1.2,2.2-5.7-3.2,2.7,4.8v.3l-5.7.2,5.7,3.2-1.2,2.2-9.8-5.5,1.2-2.2,5.8-.2-2.9-5.1,1.2-2.2,9.8,5.5h.1Z"/><path d="m65.3,44.9c-1.6-1.7-1.4-4.4.3-5.9,0,0,0,0,.1,0,1.8-1.5,4.4-1.4,6,.4,1.6,1.7,1.4,4.4-.3,5.9,0,0,0,0-.1,0-1.8,1.5-4.4,1.4-6-.4Zm4.6-4c-.7-.7-1.8-.7-2.6,0-.7.7-.7,1.8,0,2.6.7.7,1.8.7,2.5,0,.7-.6.9-1.7.3-2.4,0,0-.1-.1-.2-.2Z"/><path d="m77.7,28.4l4.6,10.2-2.2,1-.3-.7c-.3.9-.9,1.6-1.8,1.9-2,.8-4.3,0-5.1-2,0,0,0-.2-.1-.3-1-1.9-.3-4.3,1.6-5.3,0,0,0,0,.1,0,.8-.4,1.8-.4,2.6,0l-1.6-3.6,2.2-1Zm.8,7.5c-.5-.9-1.6-1.3-2.5-.8-.9.5-1.3,1.6-.8,2.5.5.9,1.5,1.2,2.4.8.9-.4,1.4-1.5,1-2.5,0,0,0,0,0-.1h0Z"/><path d="m87.1,35.9c.6,0,1.1-.3,1.4-.8l2.1.8c-.6,1.2-1.8,2-3.2,2.1-2.3.5-4.5-1-4.9-3.2,0-.1,0-.2,0-.4-.4-2.2,1.1-4.4,3.4-4.8,0,0,.2,0,.2,0,2.2-.3,4.2,1.2,4.6,3.3,0,0,0,.2,0,.3v1l-5.6.8c.4.8,1.3,1.1,2.1.8h0Zm1.1-3.1c-.3-.8-1.1-1.2-1.9-1-.8,0-1.5.7-1.6,1.5l3.4-.5h0Z"/><path d="m104.4,34.6l-1,4.8-2.3-.5,1-4.6c.2-.8,0-1.4-.9-1.5s-1.3.3-1.5,1.2l-.9,4.4-2.3-.5,1-4.6c.2-.8,0-1.4-.9-1.5s-1.3.3-1.5,1.2l-.9,4.4-2.3-.5,1.7-7.8,2.3.5-.2.7c.6-.6,1.5-.7,2.3-.5.8.1,1.5.7,1.8,1.5.7-.6,1.6-.8,2.5-.6,1.8.4,2.7,1.9,2.3,3.9h-.2Z"/><path d="m107.1,35.1l5.2,3.1-1.2,2-5.2-3.1,1.2-2Z"/><path d="m118,46.8c-1.4,1.4-3.8,1.5-5.2,0-.1-.1-.2-.2-.3-.3-1.2-1.1-1.7-2.9-1.1-4.5l2.5.7c-.4.7-.2,1.5.4,2,.4.6,1.3.7,1.9.3,0,0,0,0,0,0,.5-.5.6-1.2-.2-2l-.4-.4.3-1.7,3.3-.4-2.9-2.9,1.7-1.7,5.1,5.1-1.5,1.5-3.1.4c.7,1.3.5,2.8-.5,3.9h-.1Z"/><path d="m125.7,57.2c-2.5,1.4-5.8.5-7.2-2,0-.2-.2-.3-.2-.5-1.5-2.8-.3-6.3,2.5-7.8,2.8-1.5,6.3-.3,7.8,2.5.9,1.7.9,3.8,0,5.5l-2.1-1.4c.5-.9.5-2.1,0-3-.8-1.6-2.7-2.3-4.4-1.6,0,0,0,0-.1,0-1.6.7-2.3,2.6-1.6,4.2,0,.1.1.2.2.4.5,1.1,1.6,1.9,2.8,1.8l-1.3-2.7,2-1,2.5,5-.9.4h0Z"/><path d="m83.5,78.9c1.2.4,2.2,1.1,3,2,.8,1,1.2,2.2,1.1,3.4,0,1.9-.7,3.7-2.1,4.9-1.4,1.1-3.2,1.7-5.1,1.7-1.5,0-3-.3-4.3-1.1-1.3-.7-2.3-1.9-2.7-3.3l4.4-2.5c.3,1.3,1.4,2.1,2.7,2,1.4,0,1.3-.2,1.6-.5.7-.6.8-1.7.2-2.4,0,0-.1-.1-.2-.2-.5-.3-1-.5-1.6-.5h-1.1l-1.9-2.8,3.1-3.8h-6.6v-4.8h12.7v3.9l-3.3,4h0Z"/><path d="m109.4,79.3v2c.2,5.1-3.7,9.5-8.8,9.7-.3,0-.6,0-.9,0-2.8,0-5.5-1-7.5-2.9-1.9-1.9-3-4.5-2.9-7.2,0-2.7,1-5.3,2.9-7.3,1.9-2,4.6-3.1,7.3-3,1.8-.2,3.5.3,5,1.2,1.5.8,2.7,1.9,3.6,3.3l-4.2,2.4c-.4-.6-1-1.1-1.7-1.5-.8-.4-1.7-.6-2.6-.6-1.4,0-2.8.5-3.8,1.5-1,1-1.6,2.4-1.5,3.9,0,1.4.5,2.8,1.5,3.8,1.1,1.1,2.6,1.6,4.1,1.6,1.7,0,3.8-.9,4.5-2.6h-4.7v-4.3h9.7Z"/></svg>