<?xml version="1.0" encoding="UTF-8"?><svg id="Layer_1" xmlns="http://www.w3.org/2000/svg" viewBox="0 0 400 400"><defs><style>.cls-1{fill:#a7a7a7;}.cls-2{stroke:#a5262d;}.cls-2,.cls-3,.cls-4,.cls-5{stroke-width:4px;}.cls-2,.cls-3,.cls-4,.cls-5,.cls-6{stroke-miterlimit:10;}.cls-2,.cls-3,.cls-4,.cls-5,.cls-6,.cls-7{fill:none;}.cls-8{fill:#e1dde1;}.cls-9{fill:#fab644;}.cls-10{fill:#fff;}.cls-11{fill:#565959;}.cls-12{fill:#72b3e2;}.cls-3{stroke:#0018c6;}.cls-13{fill:#cbcbcb;}.cls-14{fill:#4fb76a;}.cls-15{fill:#349951;}.cls-16{fill:#cfe1ed;}.cls-17{fill:#cacaca;}.cls-18{fill:#143441;}.cls-19{fill:#414343;}.cls-20{fill:#0277b5;}.cls-21,.cls-22,.cls-23{opacity:.5;}.cls-24{fill:#a7c1e0;}.cls-4{stroke:#c000e2;}.cls-25{fill:#0d202b;}.cls-26{fill:#cbdde9;}.cls-27{fill:#007d9e;}.cls-28{fill:#7ac943;}.cls-29{fill:#cac3cb;}.cls-30{fill:#fedd46;}.cls-31{fill:#369754;}.cls-32{fill:#2a7ec6;}.cls-33{fill:#f2eff2;}.cls-34{fill:#163842;}.cls-5{stroke:#00b51e;}.cls-35{fill:#fdd782;}.cls-36{fill:#caa158;}.cls-37{fill:#adbbff;}.cls-38{fill:#42210b;}.cls-6{stroke:#231f20;stroke-width:2px;}.cls-39{fill:#015078;}.cls-40{fill:#000d6a;}.cls-41{fill:#183c43;}.cls-42{fill:#72b2e2;}.cls-43{fill:#eef0fb;}.cls-44{fill:#6e6f6e;}.cls-45{fill:#ff931e;}.cls-46{fill:#0071bc;}.cls-47{fill:#0296e4;}.cls-48{fill:#7dcbe5;}.cls-49{fill:#0295e3;}.cls-50{fill:#0276b3;}.cls-51{fill:#fab643;}.cls-22{fill:#e7d19a;}.cls-22,.cls-23{isolation:isolate;}.cls-52{fill:#529aff;}.cls-53{fill:#0376b4;}.cls-54{fill:#e5eff1;}.cls-55{fill:#1a1a1a;}.cls-56{fill:#a8a8a8;}.cls-57{fill:#cbc4cc;}.cls-58{fill:#69a6fe;}.cls-59{fill:#db411d;}.cls-60{fill:#cadce8;}.cls-61{fill:#414242;}.cls-62{fill:#51b66c;}.cls-23{fill:#ccf2ff;}.cls-63{fill:#231f20;}.cls-64{fill:#b9c2fe;}.cls-65{fill:#153642;}.cls-66{fill:#9fddea;}.cls-67{fill:#3636a0;}</style></defs><circle class="cls-5" cx="200.3" cy="340.7" r="45"/><path d="m178.1,315.1c2.4,1.9,2.7,5.4.8,7.8-.1.2-.3.3-.5.5-2.2,2.6-6.1,3-8.7.8-2.6-2.2-3-6.1-.8-8.7.1-.1.2-.2.3-.4,1.4-1.6,3.4-2.3,5.5-2l-.6,2.6c-1.1-.2-2.3.3-3,1.2-1.3,1.3-1.3,3.5,0,4.8,0,0,.1.1.2.2,1.5,1.4,3.5,1.3,5.1-.4,1-.9,1.3-2.3.7-3.5l-2.2,2.3-1.7-1.6,4.1-4.4.7.7h0Z"/><path d="m189.2,311c1.1,2.1.4,4.7-1.7,5.8,0,0,0,0,0,0-.8.5-1.8.5-2.7.2l1.9,3.8-2.3,1.1-5.3-10.7,2.3-1.1.4.7c.3-.9.9-1.7,1.8-2.1,2.2-.9,4.7,0,5.6,2.2h0Zm-2.3,1.1c-.4-1-1.6-1.5-2.6-1,0,0,0,0,0,0-1,.4-1.5,1.5-1.1,2.5,0,.1,0,.2.2.3.5,1,1.7,1.4,2.7.9,1-.5,1.4-1.7.9-2.7h0Z"/><path d="m199,308.3l.8,5.2-2.5.4-.7-4.8c0-.8-.8-1.4-1.6-1.3,0,0,0,0-.1,0-.9.1-1.5.8-1.3,2l.7,4.6-2.5.4-1.8-11.8,2.5-.4.6,4.2c.5-.8,1.3-1.3,2.2-1.4,1.7-.3,3.3.7,3.7,3h0Z"/><path d="m201,309.2c.4-2.5,2.6-4.2,5.1-3.8,2.4.3,4.1,2.5,3.8,4.9,0,0,0,.1,0,.2-.4,2.5-2.6,4.2-5.1,3.8-2.4-.3-4.1-2.6-3.8-5,0,0,0,0,0-.1Zm6.4,1c.2-1-.4-2-1.4-2.3,0,0-.1,0-.2,0-1-.2-2,.4-2.2,1.4,0,0,0,.2,0,.3-.2,1.1.5,2.1,1.6,2.3,1,.2,2-.4,2.2-1.4,0,0,0-.2,0-.3h0Z"/><path d="m219.5,313.9l-2.3,4.7-2.3-1.1,2.1-4.4c.4-.6.2-1.5-.5-1.9,0,0-.2,0-.2-.1-.7-.4-1.7-.1-2.1.6,0,0,0,.2-.1.3l-2,4.2-2.3-1.1,3.7-7.7,2.3,1.1-.3.7c.8-.4,1.8-.4,2.6.1,1.5.7,2.3,2.5,1.3,4.6h0Z"/><path d="m222.6,320.6c.4.5,1,.7,1.6.6l.7,2.2c-1.4.3-2.9-.2-3.9-1.2-1.9-1.6-2.2-4.4-.6-6.2,0,0,.1-.2.2-.3,1.6-1.8,4.4-2,6.2-.4,0,0,.1.1.2.2,1.7,1.6,1.9,4.2.3,6,0,0-.1.2-.2.2-.2.3-.5.5-.8.7l-4.4-4.1c-.4.9,0,1.6.7,2.3h0Zm3.3-1.2c.5-.7.3-1.7-.4-2.2-.6-.6-1.6-.8-2.3-.3l2.7,2.5Z"/><path d="m234.8,333.5l-6.5-1.2-1.2-2.9,4.5.9c-.7-2.2.5-4.6,2.7-5.3,2.1-.7,4.4.4,5.2,2.4,1,2.1.2,4.6-1.9,5.6,0,0-.1,0-.2,0-.8.3-1.7.4-2.5.3h0Zm-.7-3.7c.4.9,1.3,1.3,2.2.9.9-.4,1.3-1.3.9-2.2-.4-.9-1.3-1.3-2.2-.9-.8.3-1.3,1.3-.9,2.2,0,0,0,0,0,0Z"/><path class="cls-59" d="m218.1,331.8l-16.6-5.6c-1.2-.4-2.6-.4-3.8,0l-16.6,5.6c-1.5.5-2.5,2-2.5,3.6v35.6c0,1.2.6,2.3,1.5,3,.6.5,1.4.7,2.2.7q.8,0,1.2-.2l14.8-5c.9-.3,1.9-.3,2.8,0l14.8,5c1.1.4,2.4.2,3.4-.5,1-.7,1.5-1.8,1.5-3v-35.6c0-1.6-1.2-3-2.7-3.6h0Z"/><path class="cls-30" d="m217.3,333.5l-16.3-5.5c-.9-.3-1.9-.3-2.8,0l-16.3,5.5c-1,.3-1.6,1.2-1.6,2.2v35.3c0,.5.3,1,.7,1.3.3.2.6.3,1,.3h.5l16.2-5.5c.5-.2,1.2-.2,1.7,0l16.3,5.5c.5.2,1.1,0,1.5-.3.4-.3.7-.8.7-1.3v-35.3c0-1-.7-1.9-1.6-2.2h0Z"/><path class="cls-30" d="m217.3,371h0l-16.3-5.5c-.9-.3-1.9-.3-2.8,0l-16.2,5.5v-35.3c0-.3.2-.6.5-.6l16.3-5.5c.3,0,.6-.1.9-.1.3,0,.6,0,.9.1l16.3,5.5c.3,0,.5.3.5.6v35.3h0Z"/><path d="m212.6,337.6l-12.4-3.7c-.3-.1-.7-.1-1,0l-13.2,4.3c-.5.2-.8.6-.8,1.1v8.8c0,.3.2.6.4.8.2.1.4.2.6.2h.3l13.2-4.3h0l12.4,3.7c.3,0,.6,0,.9-.1.2-.2.4-.5.4-.8v-8.8c0-.5-.4-.9-.9-1.1h.1Z"/><path d="m211.8,346.7l-11.7-3.5c-.3-.1-.7-.1-1,0l-12.5,4v-7.8l13-4.1h0l12.2,3.7v7.7Z"/><path d="m195.9,361.9c-.3,0-.5,0-.8.2l-1.8.3c-.7.1-1.4.3-2.2.4-.9.2-1.7.3-2.6.4h-.4c-.3,0-.4-.2-.3-.4.2-.4.3-.8.5-1.2.3-.6.6-1.3.9-1.9.2-.5.4-.9.7-1.3.4-.8,1.4-1.1,2.2-.8.2.1.4.3.6.5.4.4.9.8,1.3,1.2.7.6,1.4,1.3,2,1.9l.2.2c.1.2,0,.4-.4.5h.1Z"/><path d="m197.3,348.4h.3c.3,0,.4,0,.3.3s-.2.4-.3.6c-.8,1.1-1.5,2.2-2.3,3.3-.7,1-1.4,2-2.2,2.9-.4.5-.8.9-1.3,1.2-.5.3-1.2.4-1.8.2-.3,0-.6-.3-.8-.5-.7-.7-1.5-1.3-2.2-2l-.9-.9h0c-.2-.3,0-.5.3-.6,1.5-.6,3-1.1,4.4-1.7l3.9-1.5c.9-.4,1.8-.7,2.7-1h0v-.3Z"/><path d="m205.3,354c.8.3,1.5.9,1.9,1.7.6,1,.8,2.2.8,3.4,0,1.1-.2,2.1-.8,3-.5.6-1.3.8-2,.5-.7-.3-1.3-.7-1.7-1.3-.5-.7-.9-1.6-1-2.5l1.7-1.1c.2.9.5,1.5,1.1,1.7s.5,0,.6-.1.2-.4.2-.8c0-.3,0-.7-.2-1-.1-.2-.4-.4-.6-.5l-2.4-.7.3-7.4,4.5,1.2v3.2l-2.7-.8v1.4l.5.2h-.2Z"/><path d="m217,358.4v1.4c.1,1.6-.3,3.2-1.2,4.5-.7,1-1.9,1.3-3,.9-1.4-.5-2.5-1.6-3.1-3-.8-1.6-1.2-3.5-1.2-5.3,0-1.6.3-3.2,1.2-4.6.6-1,1.8-1.5,3-1.2.9.2,1.6.7,2.1,1.4.7.8,1.2,1.7,1.5,2.7l-1.8,1.2c-.1-.4-.4-.9-.7-1.2-.3-.3-.7-.6-1.1-.7-.6-.2-1.3,0-1.6.6-.4.8-.7,1.6-.6,2.5,0,1,.2,1.9.6,2.8.3.7.9,1.3,1.7,1.6.8.3,1.6-.2,1.8-.9,0,0,0-.2,0-.3l-2-.6v-3l4.3,1.3h0Z"/><polygon class="cls-58" points="63.4 366.7 51.5 366.7 53.1 361.4 62.5 361.4 63.4 366.7"/><circle class="cls-5" cx="65.4" cy="340.7" r="45"/><path d="m42.9,315.7c2.3,1.9,2.6,5.2.7,7.4-.1.1-.2.2-.3.4-2.1,2.5-5.9,2.8-8.3.6,0,0,0,0,0,0-2.4-2.2-2.6-5.9-.4-8.3,0,0,0,0,0,0,1.3-1.5,3.3-2.2,5.2-1.9l-.5,2.5c-1.1-.2-2.1.3-2.8,1.1-1.2,1.2-1.2,3.2,0,4.5,0,0,.2.2.3.2,1.4,1.3,3.3,1.2,4.8-.4.9-.8,1.2-2.2.6-3.3l-2,2.2-1.7-1.5,3.8-4.2.7.6h0Z"/><path d="m53.1,311.6c1.1,1.9.5,4.4-1.4,5.5,0,0,0,0,0,0-.8.5-1.7.6-2.6.3l1.9,3.5-2.1,1.1-5.3-9.9,2.1-1.1.4.7c.2-.9.8-1.6,1.6-2,2-1,4.4-.1,5.4,1.9Zm-2.1,1.1c-.4-.9-1.5-1.3-2.4-.9,0,0-.1,0-.2.1-.9.4-1.3,1.6-.9,2.5,0,0,0,0,0,.1.4.9,1.5,1.3,2.4.9,0,0,.1,0,.2-.1.9-.4,1.3-1.6.9-2.5,0,0,0,0,0-.1h0Z"/><path d="m62.1,308.6l1,4.8-2.4.5-.9-4.5c0-.7-.7-1.2-1.4-1.2-.1,0-.2,0-.3,0-.7,0-1.3.8-1.2,1.5,0,.1,0,.3.1.4l.9,4.3-2.4.5-2.3-11,2.3-.5.8,3.9c.4-.8,1.1-1.3,2-1.4,1.6-.3,3.2.7,3.6,2.3,0,0,0,.2,0,.3h.2Z"/><path d="m63.9,309.4c.1-2.3,2.2-4.1,4.5-4,2.3.1,4.1,2.2,4,4.5-.1,2.3-2.2,4.1-4.5,4,0,0,0,0,0,0-2.3-.2-4.1-2.2-3.9-4.5,0,0,0,0,0,0Zm6.1.5c.1-1-.6-1.9-1.6-2,0,0,0,0,0,0-1-.1-1.9.5-2,1.5,0,0,0,.1,0,.2-.1,1,.6,1.9,1.6,2,0,0,0,0,0,0,1,0,1.9-.7,2-1.7Z"/><path d="m81.6,312.3l-1.7,4.6-2.2-.9,1.6-4.3c.4-.6.1-1.4-.5-1.8,0,0-.2,0-.3-.1-.8-.3-1.6,0-1.9.8,0,0,0,.1,0,.2l-1.6,4.1-2.2-.9,2.8-7.5,2.2.9-.3.7c.8-.5,1.7-.5,2.5,0,1.5.6,2.4,2.1,1.6,4.2h0Z"/><path d="m85,318.3c.5.4,1,.5,1.6.4l.9,2c-2.4.6-4.8-.9-5.4-3.3-.3-1.2,0-2.5.6-3.5,1.3-1.8,3.8-2.3,5.7-1,0,0,.2.1.2.2,1.8,1.3,2.2,3.8.9,5.6,0,0-.1.1-.2.2-.2.3-.4.5-.7.7l-4.5-3.4c-.2.8.2,1.6.9,2h0Zm2.9-1.5c.4-.7,0-1.6-.6-2-.6-.6-1.6-.6-2.2,0l2.8,2.1h0Z"/><path d="m92.7,330.6l1.9-3.2h-3.7l-1.4-2.6h6.6l3.2-5.4,1.4,2.5-1.7,3h3.4l1.4,2.6h-6.3l-3.3,5.7-1.4-2.5h0Z"/><path class="cls-46" d="m46.8,349.1h5.5l5.1,15.2h0c.1.4.4.6.8.6h.1c.4,0,.7-.4.8-.8l.8-15h25.6c.2,0,.5,0,.6-.3s.3-.4.3-.6v-24.6c0-.2,0-.5-.3-.6s-.4-.3-.6-.3h-38.7c-.5,0-.9.4-.9.9v24.6c0,.2,0,.5.3.6s.4.3.6.3h0Z"/><path class="cls-58" d="m57.6,359.4l-3.8-11.3v-1.9h0c.4.2.8.3,1.3.3l1.5,2.3c.2.2.4.4.7.4h.8l-.6,10.3h.1Z"/><path class="cls-45" d="m55.6,363.2v-1.8h-6.2c-.5,0-.9.4-.9.9v9.7c0,.2,0,.5.3.6s.4.3.6.3h16.7c.2,0,.5,0,.6-.3s.3-.4.3-.6v-9.7c0-.2,0-.5-.3-.6s-.4-.3-.6-.3h-5.3v1.8h.9v2.6h-5.9c-1.1,0-2-.9-2-2h0c0-.3.3-.6.6-.6h1.2Z"/><path class="cls-58" d="m73.2,339.4h9.7c.2,0,.5,0,.6-.3s.3-.4.3-.6v-12.3c0-.2,0-.5-.3-.6s-.4-.3-.6-.3h-9.7c-.5,0-.9.4-.9.9v12.3c0,.2,0,.5.3.6s.4.3.6.3Zm.9-12.3h7.9v10.6h-7.9v-10.6Z"/><path class="cls-58" d="m82.9,340.3h-6.2c-.5,0-.9.4-.9.9v4.4c0,.2,0,.5.3.6s.4.3.6.3h6.2c.2,0,.5,0,.6-.3s.3-.4.3-.6v-4.4c0-.2,0-.5-.3-.6s-.4-.3-.6-.3Zm-.9,4.4h-4.4v-2.6h4.4v2.6Z"/><path class="cls-58" d="m49.4,333.3h6.2v1.8h-6.2v-1.8Z"/><path class="cls-58" d="m49.4,336.8h3.5v1.8h-3.5v-1.8Z"/><path class="cls-28" d="m49.9,368.8h2.6c.2,0,.4.2.4.4v.9c0,.2-.2.4-.4.4h-2.6c-.2,0-.4-.2-.4-.4v-.9c0-.2.2-.4.4-.4Z"/><path class="cls-28" d="m56.4,368.8h2.6c.2,0,.4.2.4.4v.9c0,.2-.2.4-.4.4h-2.6c-.2,0-.4-.2-.4-.4v-.9c0-.2.2-.4.4-.4Z"/><path class="cls-28" d="m62.9,368.8h2.6c.2,0,.4.2.4.4v.9c0,.2-.2.4-.4.4h-2.6c-.2,0-.4-.2-.4-.4v-.9c0-.2.2-.4.4-.4Z"/><path class="cls-58" d="m64,342.3c-.3,0-.5,0-.8-.1-.6,0-1.2-.2-1.8-.4-.7-.1-1.5-.3-2.2-.4-.9-.2-1.7-.3-2.6-.5-.1,0-.3,0-.4-.1-.3,0-.4-.4-.3-.7,0,0,0,0,0,0,.2-.4.4-.8.5-1.2.3-.7.6-1.3.9-2,.2-.5.5-.9.8-1.3.4-.6,1.2-.8,1.9-.4.1,0,.2.2.3.3.2.2.4.5.6.8.4.7.9,1.3,1.3,2l2.1,3.3c0,.1.1.2.2.3.1.3,0,.5-.4.5h-.1Z"/><path class="cls-58" d="m65.5,326.6h.3c.3,0,.4.2.3.4s-.2.3-.3.5c-.8,1-1.5,2-2.3,3s-1.5,1.8-2.2,2.6c-.4.4-.9.7-1.4.9-.6.1-1.3,0-1.8-.4-.3-.3-.6-.6-.8-.9-.7-1.1-1.4-2.1-2.1-3.2-.3-.5-.6-1-.9-1.4h0c-.2-.4,0-.6.3-.6l4.3-.3c1.3,0,2.6-.2,3.8-.3.9,0,1.8,0,2.7-.2h0Z"/><circle class="cls-5" cx="334.6" cy="340.7" r="45"/><path d="m319.9,312.2c1.8,2.7.9,5.5-1.5,7.2-2.8,1.8-6.1,1.1-7.7-1.5-1.7-2.6-1-5.9,1.6-7.6,1.7-1.1,3.6-1.2,5.2-.5l-1.1,2.1c-.7-.3-1.8-.3-2.8.4-1.5,1-1.9,2.8-.9,4.3,1,1.5,2.7,1.9,4.5.8,1.2-.8,1.6-1.8,1.4-2.8l-2.4,1.5-1.1-1.8,4.4-2.9.5.8h-.1Z"/><path d="m324.4,310.5l.8,2.5c.2.6.7.5,1.7.1l.6,1.9c-2.7,1.2-3.8.6-4.4-1.4l-.8-2.5-1.1.4-.7-2.1,1.1-.4-.4-1.4,1.9-1.3.6,2,1.5-.5.7,2.1-1.5.5h0Z"/><path d="m335,306.7l.7,7.5-2.2.2v-.7c-.5.6-1.2,1-2.2,1.1-2,.2-3.7-1.4-3.9-3.6-.2-2.2,1.3-4.1,3.2-4.3,1,0,1.8.2,2.3.7v-.7l2.2-.2h0Zm-1.9,3.9c0-1.1-.9-1.8-1.9-1.7-1,0-1.7.9-1.6,2,0,1.1.9,1.8,1.9,1.7,1,0,1.7-.9,1.6-2Z"/><path d="m345.3,312.1c-.4,2.2-2.4,3.6-4.3,3.2-1-.2-1.6-.7-2-1.3v.7c0,0-2.3-.4-2.3-.4l2-10.3,2.2.4-.7,3.6c.6-.5,1.4-.7,2.4-.5,1.9.4,3.2,2.4,2.8,4.6h-.1Zm-2.2-.4c.2-1.1-.4-1.9-1.4-2.1s-1.9.3-2.1,1.5c-.2,1.2.4,1.9,1.4,2.1s1.9-.3,2.1-1.5Z"/><path d="m356,318.5c-1.3,1.9-3.4,2-5.1.9-1.3-.9-2.2-2.2-1.9-3.9h2.4c-.2.8,0,1.4.7,1.9.8.5,1.5.3,1.8-.2.4-.5.3-1.2-.6-1.8l-.4-.3v-1.6l2.9-1-3.2-2.1,1.2-1.9,5.7,3.7-1.1,1.6-2.8.9c.8,1.1,1.1,2.5.3,3.7h0Z"/><rect class="cls-8" x="310.6" y="336.7" width="51" height="35" rx="2.5" ry="2.5"/><path class="cls-30" d="m347.6,366.4c-1,0-1.9,0-2.9-.3-3-.5-5.8-1.2-8.5-2.4-3.2-1.4-6-3.2-8.4-5.6-4-3.8-6.5-8.6-7.1-13.7h0c.6,5.1,3.1,9.9,7.1,13.7,2.4,2.3,5.2,4.1,8.4,5.6,2.7,1.2,5.6,1.9,8.5,2.4.9,0,1.9.2,2.9.3,4.3,0,8.6,0,12.9,0h0v-27.1c0-1.3-.6-1.8-2.2-1.8h-44.4c-1.1,0-2,.8-2,1.8v12.3c0,.2,0,.3.4.3,1.2,0,2,.8,2.1,1.8.1,1.4-.8,2-1.9,2.3-.5,0-.6.2-.6.6v12.1c0,.9,1,1.6,1.9,1.6h44.7c1,0,1.9-.7,1.9-1.6v-2.1h-12.9v-.2Zm-26.9-22c0-.8,0-1.6,0-2.4,0,.8,0,1.6,0,2.4Z"/><path class="cls-33" d="m315.5,325.7h34.3v2.2h-34.3v-2.2Z"/><path class="cls-8" d="m315.5,327.9h34.3v2.1h-34.3v-2.1Z"/><path class="cls-8" d="m349.8,327.9v-2.2h4.3c.4,0,.8,0,1.1.5.2.5,0,1.1,0,1.7h-5.5Z"/><path class="cls-29" d="m349.8,327.9h5.4v1.6c-.2.4-.7.6-1.1.5h-4.3v-2.1Z"/><path class="cls-33" d="m355.2,329.5v-1.6c0-.6,0-1.1,0-1.7.7,0,1.5,0,2.2,0,.8.2,1.3.9,1.2,1.7,0,.8-.7,1.4-1.5,1.4h-1.8,0Z"/><path class="cls-57" d="m315.5,327.9v2.1c-1.4.3-2.4-.5-3.5-1.1-.3-.2-.6-.4-1-.6s-.4-.5,0-.7c.4-.3.8-.6,1.3-.8v.2c.9.6,1.9,1.2,3,1h.2Z"/><path class="cls-8" d="m315.5,327.9c-1.2.2-2.1-.3-3-1v-.2c.9-.8,1.9-1.3,3.1-1.1v2.2h-.1Z"/><path d="m339.1,353.7c-.2,0-.4,0-.7,0-.5,0-1-.2-1.5-.3-.6,0-1.2-.2-1.8-.4-.7,0-1.4-.3-2.1-.4h-.3c-.3,0-.3-.3-.2-.6s.3-.7.4-1c.2-.5.5-1.1.8-1.6.2-.4.4-.7.6-1,.4-.6,1.2-.7,1.8,0,.2.2.4.4.5.7.4.5.7,1.1,1,1.6.6.9,1.1,1.8,1.7,2.6,0,0,0,.2,0,.3,0,.2,0,.4-.3.4h0Z"/><path d="m340.3,341h.2c.2,0,.3.2.2.4,0,0-.2.3-.3.4-.6.8-1.3,1.6-1.9,2.4-.6.7-1.2,1.4-1.8,2.1-.3.3-.7.6-1.1.7-.5,0-1,0-1.5-.3-.3-.2-.4-.5-.6-.7-.6-.9-1.1-1.7-1.7-2.6-.2-.4-.5-.8-.7-1.2h0c0-.3,0-.5.3-.5,1.2,0,2.3-.2,3.5-.3,1,0,2.1-.2,3.1-.2s1.5,0,2.2,0h0Z"/><path d="m331.4,361.5c.9,0,1.7.3,2.3.8.6.5.9,1.3.9,2.3s-.3,1.8-1,2.4-1.5.9-2.5.9-1.6-.2-2.2-.5c-.6-.4-1.1-.9-1.3-1.6l2.1-1.2c.2.7.7,1,1.4,1s.6,0,.8-.2.3-.4.3-.6,0-.5-.3-.7-.4-.2-.8-.2h-3.1l.4-5.6h5.6v2.3h-3.4v1h.8Z"/><path d="m345.2,362.2v1c0,1.4-.4,2.5-1.3,3.4-.9.9-2,1.3-3.4,1.3s-2.7-.5-3.7-1.4c-1-1-1.4-2.1-1.4-3.5s.5-2.6,1.4-3.5,2.1-1.4,3.5-1.4,1.7.2,2.4.6,1.3.9,1.7,1.6l-2.1,1.2c-.2-.3-.5-.5-.8-.7-.4-.2-.8-.3-1.2-.3-.8,0-1.4.2-1.9.7s-.7,1.1-.7,1.9.2,1.4.7,1.9,1.1.8,2,.8,1.8-.4,2.2-1.3h-2.3v-2.1h4.8v-.2Z"/><path class="cls-22" d="m327.3,337.6h32c1.3,0,1.8.5,1.8,1.8v27.1h-10.9c-.8,0-1.6,0-2.4-.3-2.5-.5-4.9-1.2-7.2-2.4-2.7-1.4-5.1-3.2-7.1-5.6-3.4-3.8-5.5-8.6-6-13.7,0-1.3,0-2.7,0-4v-2.8h0Z"/><line class="cls-7" x1="199.7" y1="116.5" x2="200.2" y2="149.3"/><line class="cls-6" x1="199.7" y1="116.5" x2="200.1" y2="138.5"/><polygon class="cls-63" points="192.6 136.4 200.2 149.3 207.5 136.2 192.6 136.4"/><line class="cls-7" x1="112.2" y1="112.2" x2="160.8" y2="151.5"/><line class="cls-6" x1="112.2" y1="112.2" x2="152.4" y2="144.8"/><polygon class="cls-63" points="146 149.2 160.8 151.5 155.4 137.6 146 149.2"/><line class="cls-7" x1="287.8" y1="112.2" x2="239.2" y2="151.5"/><line class="cls-6" x1="287.8" y1="112.2" x2="247.5" y2="144.8"/><polygon class="cls-63" points="244.5 137.6 239.2 151.5 253.9 149.2 244.5 137.6"/><line class="cls-7" x1="199.7" y1="255.5" x2="200.2" y2="288.3"/><line class="cls-6" x1="199.7" y1="255.5" x2="200.1" y2="277.5"/><polygon class="cls-63" points="192.6 275.4 200.2 288.3 207.5 275.2 192.6 275.4"/><line class="cls-7" x1="112.2" y1="290.5" x2="160.8" y2="251.2"/><line class="cls-6" x1="120.6" y1="283.8" x2="160.8" y2="251.2"/><polygon class="cls-63" points="117.6 276.6 112.2 290.5 127 288.2 117.6 276.6"/><line class="cls-7" x1="287.8" y1="290.5" x2="239.2" y2="251.2"/><line class="cls-6" x1="279.4" y1="283.8" x2="239.2" y2="251.2"/><polygon class="cls-63" points="273 288.2 287.8 290.5 282.4 276.6 273 288.2"/><path class="cls-17" d="m315.2,89.9c1.2,0,2.4,0,3.6.3,2,.7,3.5,2.5,3.7,4.7,0,.5-.2.5-.5.5h-18.9c-.5,0-.6-.2-.5-.6.3-2.7,2.6-4.8,5.4-4.9h7.2Z"/><path class="cls-56" d="m315.2,89.9h-5.4c.2-1,.5-1.9.7-2.8,1.4.2,2.7.2,4.1,0,.2.9.4,1.9.7,2.8h-.1Z"/><path class="cls-20" d="m308.9,46.3c-.5,0-.9-.4-.9-.9,0-.5.4-.9.9-.9.5,0,.9.4.9.9h0c0,.5-.4.9-.9.9Z"/><path class="cls-20" d="m312.5,44.5c.5,0,.9.4.9.9,0,.5-.4.9-.9.9-.5,0-.9-.4-.9-.9h0c0-.5.4-.9.9-.9Z"/><path class="cls-20" d="m317,45.4c0,.5-.3.9-.8,1-.5,0-.9-.3-1-.8,0,0,0,0,0,0v-.2c0-.5.4-.9.9-.9h0c.5,0,.9.4.9.9Z"/><path class="cls-53" d="m322.5,72.6c-.6,5.5-5.5,9.5-10.9,9-4.7-.5-8.5-4.2-9-9h19.9Zm-6.2,6.1c.1,0,.2,0,.3-.1.9-.6,1.7-1.4,2.2-2.4.2-.4,0-.8-.3-1.1h0c-.4-.3-.9-.2-1.2.1,0,0,0,0,0,0-.5.7-1,1.3-1.7,1.8-.3.2-.4.7-.2,1,.1.4.4.5,1,.6h0Zm-3.2-.7h-.7c-.5,0-.8.5-.8,1,0,.4.4.7.8.8h0c.5,0,.9,0,1.4-.1.3-.1.6-.4.6-.8,0-.3-.2-.7-.5-.8-.2,0-.5,0-.7,0h0Z"/><path class="cls-49" d="m316.3,78.7c-.4,0-.8-.2-1-.6-.2-.3,0-.7.2-1,.7-.5,1.2-1.1,1.7-1.8.3-.4.8-.5,1.1-.2,0,0,0,0,0,0,.4.2.6.7.4,1.1h0c-.5,1-1.3,1.8-2.2,2.4,0,0-.2,0-.3.1Z"/><path class="cls-49" d="m313.1,78.1h.7c.3.2.5.5.5.8,0,.4-.2.7-.6.8-.4.2-.9.2-1.4.1-.5,0-.8-.4-.8-.8,0,0,0,0,0,0h0c0-.5.3-.9.7-.9,0,0,0,0,0,0h.8Z"/><path d="m280.6,37.1c-.7-.6-.8-1.5-.2-2.2.6-.7,1.5-.8,2.2-.2h0c.7.6.7,1.5.2,2.2-.6.6-1.5.7-2.2.2Zm1.9,1.2l1.6-2,6.6,5.4-1.6,2-6.6-5.4Z"/><path d="m288.5,37.6c-1.6-1.8-1.4-4.6.4-6.2,0,0,.1,0,.2-.1,1.2-1,2.9-1.3,4.4-.7l-.9,2.4c-.6-.3-1.4-.2-1.9.3-.8.6-1,1.6-.4,2.4,0,0,.1.2.2.3.7.8,1.9,1,2.7.3.5-.4.8-1.1.7-1.8l2.5-.4c.3,1.6-.3,3.1-1.6,4.1-1.9,1.6-4.7,1.3-6.3-.6,0,0,0,0,0,0Z"/><path d="m299,25.5l1.3,2.6c-1.1.2-1.8,1.2-1.6,2.3,0,.2.1.4.2.6l1.7,3.4-2.3,1.1-3.7-7.6,2.3-1.1.7,1.4c-.1-1.1.5-2.2,1.5-2.6h-.1Z"/><path d="m301.7,29c-.5-2.4,1-4.8,3.4-5.4,2.4-.6,4.8.9,5.4,3.3,0,0,0,0,0,.1.6,2.4-1,4.8-3.4,5.4s-4.8-1-5.4-3.4Zm6.3-1.4c-.2-1-1.1-1.7-2.1-1.5,0,0-.1,0-.2,0-1.1.2-1.7,1.2-1.5,2.3,0,0,0,0,0,.1.2,1,1.1,1.7,2.1,1.5,0,0,.1,0,.2,0,1-.2,1.7-1.3,1.5-2.3,0,0,0,0,0,0h0Z"/><path d="m321.6,27.9c-.1,2.4-2.1,4.2-4.5,4.1-1,0-1.8-.5-2.4-1.3l-.4,4.2-2.5-.2,1.1-11.8,2.5.2v.8c.7-.7,1.6-1,2.5-.8,2.3.3,3.9,2.4,3.6,4.7,0,0,0,.1,0,.2h0Zm-2.5-.2c.2-1.1-.6-2.1-1.7-2.3,0,0,0,0-.1,0-1-.2-2,.6-2.2,1.6,0,0,0,.2,0,.3-.2,1.1.6,2.1,1.7,2.3,0,0,0,0,.1,0,1,.2,2-.6,2.2-1.6,0,0,0-.2,0-.3h0Z"/><path d="m331.3,30.8l-2.1,4.8-2.3-1,1.9-4.5c.4-.7.1-1.5-.5-1.9,0,0-.2,0-.3-.1-.7-.4-1.6-.1-2,.6,0,.1-.1.3-.1.4l-1.8,4.3-2.3-1,4.7-10.9,2.3,1-1.6,3.9c.8-.4,1.8-.4,2.6,0,1.6.7,2.4,2.4,1.5,4.5h0Z"/><path d="m332.5,32.6c1.6-1.9,4.4-2.1,6.3-.5,0,0,0,0,0,0,1.9,1.5,2.2,4.3.6,6.1,0,0,0,.1-.1.2-1.6,1.9-4.4,2.1-6.3.5,0,0,0,0,0,0-1.9-1.5-2.2-4.3-.6-6.1,0,0,0-.1.1-.2Zm4.9,4.2c.7-.7.7-1.9,0-2.6,0,0-.1-.1-.2-.2-.8-.7-2-.6-2.7.1,0,0,0,.1-.1.2-.7.7-.7,1.9,0,2.6,0,0,.1.1.2.2.8.7,2,.6,2.7-.1,0,0,0-.1.1-.2Z"/><circle class="cls-2" cx="312.5" cy="59.3" r="45"/><path class="cls-47" d="m302.5,59.9v-7.5c.3-5.5,5-9.7,10.6-9.4,4.4.2,8.1,3.3,9.1,7.6.1.6.2,1.3.2,1.9v7.5h-20,0Zm6.3-13.6c.5,0,.9-.4.9-.9h0c0-.5-.4-.9-.9-.9-.5,0-.9.4-.9.9s.4.9.9.9h0Zm3.6-1.8c-.5,0-.9.4-.9.9,0,.5.4.9.9.9.5,0,.9-.4.9-.9h0c0-.5-.4-.9-.9-.9Zm4.6,1c0-.5-.4-.9-.9-.9h0c-.5,0-.9.4-.9.9,0,.4.3.8.7.9h.2c.5,0,.9-.3.9-.7,0,0,0,0,0,0h0Zm-11.8,2.7c-.5,0-.9.4-.9.9,0,.5.4.9.9.9.5,0,.9-.4.9-.9h0c0-.5-.4-.9-.9-.9Zm4.6.9c0-.5-.4-.9-.9-.9-.5,0-.9.4-.9.9s.4.9.9.9h0c.5,0,.9-.3.9-.7,0,0,0,0,0,0h0Zm2.7-.9c-.5,0-.9.4-.9.9,0,.5.4.9.9.9.5,0,.9-.4.9-.9h0c0-.5-.4-.9-.9-.9Zm4.6.9c0-.5-.4-.9-.9-.9-.5,0-.9.4-.9.9s.4.9.9.9h0c.5,0,.9-.3.9-.7,0,0,0,0,0,0h0Zm2.7-.9c-.5,0-.9.4-.9.9,0,.5.4.9.9.9.5,0,.9-.4.9-.9h0c0-.5-.4-.9-.9-.9Zm-13.6,4.5c0-.5-.3-.9-.7-.9,0,0,0,0,0,0h0c-.5,0-1,.3-1.1.9,0,.5.3,1,.9,1.1.5,0,1-.3,1.1-.9,0,0,0,0,0,0h-.1Zm7.3,3.6c0-.5-.4-.9-.9-.9-.5,0-.9.4-.9.9s.4.9.9.9h0c.5,0,.9-.3.9-.8h0Zm2.7-.9c-.5,0-.9.4-.9.9,0,.5.4.9.9.9.5,0,.9-.4.9-.9h0c0-.5-.4-.9-.9-.9Zm4.5,1c0-.5-.4-.9-.9-.9-.5,0-.9.4-.9.9s.4.9.9.9h0c.5,0,.9-.3,1-.8h-.1Zm-15.4-.9c-.5,0-.9.4-.9.9,0,.5.4.9.9.9.5,0,.9-.4.9-.9h0c0-.5-.4-.9-.9-.9Zm14.5-1.8c.5,0,.9-.4.9-.9,0-.5-.4-.9-.9-.9-.5,0-.9.4-.9.9h0c0,.5.4.9.9.9Zm-2.7-.9c0-.5-.3-1-.9-1.1-.5,0-1,.3-1.1.9,0,.5.3,1,.9,1.1,0,0,0,0,0,0h0c.5,0,.9-.3.9-.7,0,0,0,0,0,0h.1Zm-4.6-.9c-.5,0-.9.4-.9.9,0,.5.4.9.9.9.5,0,.9-.4.9-.9h0c0-.5-.4-.9-.9-.9Zm-2.7.9c0-.5-.4-.9-.9-.9-.5,0-.9.4-.9.9s.4.9.9.9h0c.5,0,.9-.3.9-.7,0,0,0,0,0,0h0Zm0,3.6c0-.5-.4-.9-.9-.9-.5,0-.9.4-.9.9s.4.9.9.9h0c.5,0,.9-.3,1-.8h-.1Z"/><path class="cls-17" d="m302.5,59.9h20.9c1.1,0,.9-.1.9.9v3.6h-23.6v-3.6c0-1-.1-.9.9-.9h.9Z"/><path class="cls-13" d="m327,64.4v8.1c0,6.7-4.6,12.5-11.1,14.1-.5.1-1,.2-1.4.3-1.4.2-2.7.2-4.1,0-1.6-.3-3.1-.8-4.6-1.5-4-2.1-6.8-5.9-7.7-10.3-.2-.9-.2-1.7-.2-2.6v-8.1h1.8v8.5c0,.8.1,1.6.3,2.4,1.5,6.8,8.3,11.1,15.1,9.6,2.8-.6,5.2-2.1,7-4.3,1.8-2,2.8-4.6,2.9-7.3.1-3,0-6,0-9h2Z"/><path class="cls-9" d="m292.2,49.9c0-2.4.9-4.8,2.4-6.7.5-.6,1-.7,1.4-.3.4.4.4,1,0,1.4-2.7,3.2-2.7,8,0,11.2.4.6.4,1.1,0,1.4-.4.3-1,.2-1.3-.2h0c-1.6-1.9-2.4-4.3-2.4-6.8h-.1Z"/><path class="cls-51" d="m332.8,49.9c0,2.5-.9,4.9-2.4,6.8-.3.5-.8.6-1.3.4h0c-.5-.3-.5-.9,0-1.4,2.7-3.2,2.7-8,0-11.2-.5-.6-.5-1.1,0-1.4.4-.3,1-.2,1.3.2,0,0,0,0,0,.1,1.6,1.9,2.4,4.3,2.4,6.8v-.3Z"/><path class="cls-51" d="m299,44.5c.3,0,.6.2.7.5.2.3.2.7,0,1-1.7,2.2-1.8,5.3-.2,7.6,0,.1.1.2.2.3.4.3.4.9,0,1.3s-.9.4-1.3,0c0,0,0,0,0,0v-.2c-.9-1-1.4-2.2-1.7-3.5-.4-2.3.1-4.6,1.5-6.5.2-.3.5-.5.9-.4h-.1Z"/><path class="cls-51" d="m328.6,50.4c0,1.6-.6,3.2-1.7,4.4-.2.4-.8.5-1.2.3-.4-.2-.5-.8-.3-1.2,0,0,0-.1.1-.2,1.8-2.3,1.8-5.5,0-7.8-.4-.4-.4-.9,0-1.3h.1c.5-.3,1.1-.2,1.4.3,0,0,0,0,0,0,1.2,1.5,1.8,3.5,1.7,5.4h-.1Z"/><path class="cls-17" d="m297,64.4v.3c0,.4,0,.6-.6.6h-2.6c-.9,0-.5,0-.5-.4v-4.6c0-.4.2-.4.5-.4h2.5c.5,0,.7.1.6.6v3.9h.1Z"/><path class="cls-17" d="m327.9,60.8v-.3c0-.4.1-.6.6-.6h2.6c.9,0,.5,0,.5.4v4.6c0,.4-.2.4-.5.4h-2.5c-.5,0-.7-.1-.6-.6v-3.9h-.1Z"/><path class="cls-1" d="m297,64.4v-3.6h3.6v3.6h-3.6Z"/><path class="cls-1" d="m327.9,60.8v3.6h-3.6v-3.6h3.6Z"/><path class="cls-20" d="m305.2,48.1c.5,0,.9.4.9.9,0,.5-.4.9-.9.9-.5,0-.9-.4-.9-.9h0c0-.5.4-.9.9-.9Z"/><path class="cls-20" d="m309.8,49c0,.5-.4.9-.9.9-.5,0-.9-.4-.9-.9s.4-.9.9-.9h0c.5,0,.9.4.9.9Z"/><path class="cls-20" d="m312.5,48.1c.5,0,.9.4.9.9,0,.5-.4.9-.9.9-.5,0-.9-.4-.9-.9h0c0-.5.4-.9.9-.9Z"/><path class="cls-20" d="m317,49c0,.5-.4.9-.9.9-.5,0-.9-.4-.9-.9s.4-.9.9-.9h0c.5,0,.9.4.9.9Z"/><path class="cls-20" d="m319.7,48.1c.5,0,.9.4.9.9,0,.5-.4.9-.9.9-.5,0-.9-.4-.9-.9h0c0-.5.4-.9.9-.9Z"/><path class="cls-20" d="m306.1,52.7c0,.5-.4.9-.9.9-.5,0-.9-.4-.9-.9s.4-.9.9-.9h0c.5,0,.9.4.9.9Z"/><path class="cls-20" d="m313.4,56.2c0,.5-.4.9-.9.9-.5,0-.9-.4-.9-.9s.4-.9.9-.9h0c.5,0,.9.4.9.9Z"/><path class="cls-20" d="m316.1,55.4c.5,0,.9.4.9.9,0,.5-.4.9-.9.9-.5,0-.9-.4-.9-.9h0c0-.5.4-.9.9-.9Z"/><path class="cls-20" d="m320.7,56.3c0,.5-.4.9-.9.9-.5,0-.9-.4-.9-.9s.4-.9.9-.9h0c.5,0,.9.4.9.9Z"/><path class="cls-20" d="m305.2,55.4c.5,0,.9.4.9.9,0,.5-.4.9-.9.9-.5,0-.9-.4-.9-.9h0c0-.5.4-.9.9-.9Z"/><path class="cls-20" d="m319.7,53.5c-.5,0-.9-.5-.8-1,0-.4.4-.7.8-.8.5-.1,1,.2,1.1.7s-.2,1-.7,1.1c0,0-.1,0-.2,0h-.2Z"/><path class="cls-20" d="m317,52.6c0,.5-.4.9-.9.9-.5,0-.9-.4-.9-.9s.4-.9.9-.9h0c.5,0,.9.4.9.9Z"/><path class="cls-20" d="m312.5,51.7c.5,0,.9.4.9.9,0,.5-.4.9-.9.9-.5,0-.9-.4-.9-.9h0c0-.5.4-.9.9-.9Z"/><path class="cls-20" d="m309.8,52.6c0,.5-.4.9-.9.9-.5,0-.9-.4-.9-.9s.4-.9.9-.9h0c.5,0,.9.4.9.9Z"/><path class="cls-20" d="m309.8,56.3c0,.5-.4.9-.9.9h0c-.5.1-1.1-.2-1.2-.7-.1-.5.2-1.1.7-1.2.2,0,.4,0,.6,0,.5,0,.9.4.9.9h-.1Z"/><path class="cls-39" d="m302.5,66.2v-1.8h19.9v1.8h-19.9Z"/><path class="cls-17" d="m322.5,72.6h-19.9v-4.6h19.9v4.6Z"/><path class="cls-50" d="m322.5,68.1h-19.9v-1.8h19.9v1.8Z"/><path d="m288,44.4l-1.1,2.5-6.4-2.7,3.4,4.8v.3c-.1,0-6,.8-6,.8l6.4,2.7-1.1,2.5-10.9-4.7,1.1-2.5,6.1-.9-3.6-5.1,1.1-2.5,10.9,4.7h.1Z"/><path d="m345.8,46.3l-4.4,2.8-1.4-2.2,4.1-2.6c.7-.3,1-1.1.7-1.8,0,0,0-.2-.2-.3-.4-.7-1.3-1-2.1-.6,0,0-.2.1-.2.2l-3.9,2.5-1.4-2.2,7.2-4.5,1.4,2.2-.7.4c.9.1,1.8.7,2.2,1.5.9,1.5.7,3.3-1.3,4.6h0Z"/><path d="m344.9,53.6c.1.6.5,1.1,1.1,1.4l-.6,2.3c-1.3-.6-2.3-1.7-2.7-3.1-.8-2.2.3-4.7,2.5-5.5.2,0,.4-.1.6-.2,2.4-.6,4.8.8,5.4,3.2.6,2.4-.8,4.8-3.1,5.4h0c-.3,0-.7.2-1,.2l-1.6-5.8c-.7.5-1,1.5-.6,2.3v-.2Zm3.4.7c.7-.4,1.1-1.3.8-2.1-.2-.8-.9-1.4-1.8-1.4l1,3.5Z"/><path class="cls-41" d="m210.5,87.4h1.5v2.6c0,.3,0,.4-.4.4q-1.2,0-1.2-1.1v-1.9h0Z"/><path class="cls-34" d="m206.5,87.4h1.5v2.6c0,.3,0,.5-.5.5q-1.1,0-1.1-1.1v-1.9h.1Z"/><path class="cls-34" d="m214.5,87.4h1.5v2.6c0,.3,0,.4-.4.4q-1.2,0-1.2-1.1v-1.9h0Z"/><path class="cls-34" d="m216.5,79.1v-1.5h2.5c.3,0,.4.1.4.4,0,1.4.2,1.1-1.1,1.1h-1.8Z"/><path class="cls-34" d="m216.5,75.1v-1.5h2.5c.3,0,.4.1.4.4,0,1.4.2,1.1-1.1,1.1h-1.8Z"/><path class="cls-34" d="m216.5,83.1v-1.5h2.5c.3,0,.4.1.4.5q0,1.1-1.1,1.1h-1.8,0Z"/><path class="cls-65" d="m182.6,87.4h1.5v2.7c0,.2,0,.4-.3.4q-1.2,0-1.2-1.1v-2h0Z"/><path class="cls-65" d="m186.6,87.4h1.5v2.7c0,.2,0,.4-.3.4q-1.2,0-1.2-1.1v-2h0Z"/><path class="cls-65" d="m194.6,87.4h1.5v2.6c0,.3,0,.4-.4.4q-1.1,0-1.1-1.1v-1.9Z"/><path class="cls-34" d="m198.5,87.4h1.5v2.6c0,.3,0,.4-.4.4q-1.1,0-1.1-1.1v-1.9Z"/><path class="cls-34" d="m202.5,87.4h1.5v2.7c0,.3,0,.4-.4.4q-1.1,0-1.1-1.1v-2h0Z"/><path class="cls-65" d="m190.6,87.4h1.5v2.6c0,.3,0,.4-.4.4q-1.1,0-1.1-1.1v-1.9Z"/><path class="cls-34" d="m216.5,87.1v-1.5h2.5c.3,0,.4,0,.4.4q0,1.1-1.1,1.1h-1.8Z"/><path class="cls-34" d="m181.5,73.6v1.5h-1.9c-.2,0-.4,0-.4-.3q0-1.2,1.2-1.2h1.1,0Z"/><path class="cls-34" d="m181.5,77.6v1.5h-1.9c-.2,0-.4,0-.4-.3q0-1.2,1.2-1.2h1.1,0Z"/><path class="cls-34" d="m181.5,81.6v1.5h-1.9c-.2,0-.4,0-.4-.3q0-1.2,1.1-1.2h1.2Z"/><path class="cls-34" d="m181.6,85.9v1.2h-2c-.2,0-.3,0-.4-.3q0-1.2,1.1-1.2h1.2v.3h0Z"/><path class="cls-26" d="m201.9,77h1.5v3.4c0,.3,0,.4-.4.4q-1.1,0-1.1-1.1v-2.7Z"/><path class="cls-60" d="m198.2,77h1.5v3.4c0,.3,0,.4-.4.4q-1.1,0-1.1-1.1v-2.7Z"/><path class="cls-26" d="m194.5,77h1.5v3.4c0,.3,0,.4-.4.4q-1.1,0-1.1-1.1v-2.7Z"/><path class="cls-16" d="m191.9,73.3v1.5h-3.1c-.3,0-.4,0-.4-.4q0-1.1,1.1-1.1h2.4Z"/><path class="cls-16" d="m206.1,74.8v-1.5h2.9c.3,0,.4,0,.4.4q0,1.1-1.1,1.1h-2.2Z"/><path d="m175.2,36.3c-2.1-3.1-1.2-7.2,1.8-9.3.1,0,.2-.2.4-.2,1.9-1.3,4.4-1.4,6.5-.4l-1.4,2.7c-1.1-.6-2.5-.5-3.5.2-1.9,1.1-2.6,3.6-1.5,5.5,1.1,1.9,3.6,2.6,5.5,1.5,1.2-.7,1.9-1.9,2-3.2h3c0,2.3-1.3,4.3-3.2,5.5-3.1,2-7.3,1.2-9.3-1.9,0,0-.1-.2-.2-.3h-.1Z"/><path d="m197.9,28.1l1.1,5.7-2.8.5-1-5.3c0-.8-.7-1.5-1.5-1.5-.1,0-.3,0-.4,0-.9.1-1.6,1-1.5,1.9,0,0,0,.2,0,.3l.9,5.1-2.8.5-2.4-13.1,2.8-.5.9,4.6c.5-.9,1.5-1.5,2.5-1.6,1.9-.4,3.7.7,4.2,3.2h-.1Z"/><path d="m200.7,24.6l2.8.2-.5,9.5-2.8-.2.5-9.5Zm-.1-2.6c0-.9.9-1.7,1.8-1.6.9,0,1.7.9,1.6,1.8,0,.9-.9,1.6-1.8,1.6-.9,0-1.6-.8-1.6-1.8,0,0,0,0,0,0h0Z"/><path d="m215.6,32.6c-.6,2.5-3.2,4.1-5.7,3.4,0,0,0,0-.1,0-1.1-.3-1.9-1-2.4-2l-1.4,4.5-2.7-.9,4-12.7,2.7.9-.3.9c.9-.5,2-.6,3-.3,2.4.8,3.7,3.5,2.9,5.9,0,0,0,.1,0,.2h0Zm-2.7-.9c.4-1.1-.1-2.4-1.2-2.8,0,0-.2,0-.3,0-1.1-.4-2.3.1-2.7,1.2,0,0,0,.2,0,.3-.4,1.1.1,2.4,1.2,2.8,0,0,.2,0,.3,0,1.2.4,2.4-.2,2.9-1.4,0,0,0,0,0-.1h0Z"/><path d="m222.2,39.5c-1.2,1.8-3.3,1.5-5,.3-1.5-.9-2.3-2.5-2.1-4.2l2.8.3c-.2.7,0,1.5.7,1.8.6.4,1,.4,1.2,0,.6-.9-3.5-3.1-1.7-5.8,1.2-1.7,3.2-1.6,4.8-.4,1.3.8,2,2.3,1.9,3.8l-2.7-.3c0-.6,0-1.1-.6-1.4-.4-.3-.8-.3-1,0-.6.9,3.6,3,1.6,5.9h.1Z"/><circle class="cls-2" cx="200" cy="59.3" r="45"/><path class="cls-14" d="m178.4,92l-1.8-1.8c-.2-.2-.3-.4-.3-.7v-38.2c0-.3,0-.7.3-.9.9-1,1.9-1.9,2.8-2.9.2-.2.4-.3.6-.3h37.8c.2,0,.4,0,.5.2l1.8,1.8v38.7c0,.3-.1.7-.4.9-.8.8-1.6,1.7-2.4,2.5-.2.3-.6.5-1,.5h-37.4c-.2,0-.4,0-.6.1h.1Zm13.7-4.5h2.5v1.9q0,1.1,1.1,1.1c.3,0,.4-.1.4-.4v-2.6h2.5v1.9q0,1.1,1.1,1.1c.3,0,.4-.1.4-.4v-2.6h2.5v1.9q0,1.1,1.1,1.1c.3,0,.4,0,.4-.4v-2.7h2.5v2q0,1.1,1.1,1.1c.4,0,.5-.1.5-.5v-2.6h2.5v1.9q0,1.2,1.2,1.1c.3,0,.4-.1.4-.4v-2.6h2.5v1.9q0,1.2,1.2,1.1c.3,0,.4,0,.4-.4v-2.6c.2,0,.4,0,.4-.3h1.8q1.1,0,1.1-1.1c0-.3-.1-.4-.4-.4h-2.5v-2.5h1.8q1.1,0,1.1-1.1c0-1.1-.1-.5-.4-.5h-2.5v-2.5h1.8c1.3,0,1.1.2,1.1-1.1s0-.4-.4-.4h-2.5v-2.5h1.8c1.3,0,1.1.2,1.1-1.1s-.1-.4-.4-.4h-2.5v-2.5h1.8c1.3,0,1.1.2,1.1-1.1s-.1-.4-.4-.4h-2.5v-2.5h1.8q1.2,0,1.1-1.2c0-.3-.1-.3-.4-.3h-2.6v-2.5h1.8q1.2,0,1.1-1.2c0-.3-.1-.3-.4-.3h-2.6v-2.5h1.8q1.2,0,1.1-1.2c0-.3-.1-.3-.4-.3h-2.6v-2.5h1.8q1.2,0,1.1-1.2c0-.3-.1-.3-.4-.3h-2.6c0-.3-.1-.4-.4-.4v-1.8q0-1.2-1.2-1.1c-.3,0-.3,0-.3.4v2.6h-2.5v-1.8q0-1.2-1.2-1.1c-.3,0-.3,0-.3.4v2.6h-2.5v-1.8q0-1.2-1.2-1.1c-.3,0-.3,0-.3.4v2.6h-2.5v-1.8q0-1.2-1.2-1.1c-.3,0-.3,0-.3.4v2.6h-2.5v-1.8q0-1.2-1.2-1.1c-.3,0-.3,0-.3.4v2.6h-2.5v-1.9q0-1.2-1.2-1.1c-.3,0-.3,0-.3.4v2.6h-2.5v-1.9q0-1.2-1.2-1.1c-.3,0-.3,0-.3.4v2.6h-2.5v-1.9c0-1.2,0-1.1-1.2-1.1s-.3,0-.3.4v2.6h-2.5v-1.9c0-1.2,0-1.1-1.2-1.1s-.3,0-.3.4v2.6h-.6c-.3,0-.4,0-.4.4h-1.2q-1.2,0-1.1,1.2c0,.1,0,.3.2.3,0,0,0,0,0,0h2v2.5h-1.2q-1.2,0-1.1,1.2c0,.1,0,.3.2.3,0,0,0,0,0,0h2v2.5h-1.2q-1.2,0-1.1,1.2c0,.1,0,.3.2.3,0,0,0,0,0,0h2v2.5h-1.2q-1.2,0-1.1,1.2c0,.3.1.3.3.3h2v2.5h-1.2q-1.2,0-1.2,1.2c0,.2,0,.3.3.3h2v2.5h-1.2q-1.2,0-1.2,1.2c0,.3.1.3.4.3h1.9v2.5h-1.2q-1.2,0-1.2,1.2c0,.3.1.3.4.3h1.9v2.5h-1.2q-1.2,0-1.1,1.2c0,.3.1.3.4.3h1.9v2.5h-1.2q-1.2,0-1.1,1.2c0,.3.1.3.4.3h1.9c0,.2,0,.3.3.3h.7v1.9q0,1.2,1.2,1.1c.3,0,.3-.1.3-.4v-2.7h2.5v1.9q0,1.2,1.2,1.1c.3,0,.3-.1.3-.4v-2.7h2.5v1.9q0,1.1,1.1,1.1c.3,0,.4-.1.4-.4v-2.6h.4Z"/><path class="cls-15" d="m178.4,92c.2-.2.4-.1.6-.1h37.4c.4,0,.8-.2,1-.5.8-.9,1.6-1.7,2.4-2.5.3-.2.4-.6.4-.9v-38.7c.5.4.9.9,1.4,1.3.2.2.1.4.1.6v38.4c0,.3,0,.6-.3.8-.9.9-1.8,1.9-2.6,2.8-.2.2-.4.3-.6.3h-38c-.2,0-.4,0-.6-.2-.4-.4-.8-.8-1.1-1.2h0Z"/><path class="cls-16" d="m212.1,53.2h2.9v8.7c.1,3.7,0,7.5-.2,11.2-.2,1.7-.5,3.4-1.1,5-.2.6-.5,1.2-.9,1.8v-21.6c0-.5.2-1.1,0-1.3s-.9,0-1.4,0h-25.5c-.4,0-.5,0-.5.5v25.8c0,.4.1.5.5.5h23.1c-.5.2-.9.5-1.4.7-2.5,1-5.2,1.5-7.9,1.5h-18v-32.3c0-.3,0-.4.4-.4h30.1-.1Z"/><path class="cls-24" d="m181.6,85.9h18c2.7,0,5.4-.5,7.9-1.5.5-.2.9-.5,1.4-.7h3.5c.3,0,.4,0,.4-.4v-3.4c.4-.5.7-1.1.9-1.8.6-1.6,1-3.3,1.1-5,.3-3.7.1-7.5.2-11.2v-8.7h1.1c.3,0,.4,0,.4.4v33.5c0,.3-.2.3-.4.3h-34.2c-.2,0-.3,0-.3-.3v-1.2Z"/><path class="cls-34" d="m208.1,53.2h-1.5v-2.6c0-.2,0-.4.3-.4q1.2,0,1.2,1.1v1.9Z"/><path class="cls-41" d="m212.1,53.2h-1.5v-2.6c0-.2,0-.3.3-.4q1.2,0,1.2,1.1v1.9Z"/><path class="cls-34" d="m216.1,53.2h-1.5v-2.6c0-.2,0-.3.3-.4q1.2,0,1.2,1.1v1.9Z"/><path class="cls-34" d="m216.5,71.1v-1.5h2.5c.3,0,.4.1.4.4,0,1.4.2,1.1-1.1,1.1h-1.8Z"/><path class="cls-34" d="m216.5,67.1v-1.5h2.6c.2,0,.3,0,.4.3q0,1.2-1.1,1.2h-1.9Z"/><path class="cls-65" d="m216.5,59.1v-1.5h2.6c.2,0,.3,0,.4.3q0,1.2-1.1,1.2h-1.9Z"/><path class="cls-65" d="m216.5,63.1v-1.5h2.6c.2,0,.3,0,.4.3q0,1.2-1.1,1.2h-1.9Z"/><path class="cls-65" d="m216.5,55.1v-1.5h2.6c.2,0,.3,0,.4.3q0,1.2-1.1,1.2h-1.9Z"/><path class="cls-34" d="m204,53.2h-1.5v-2.6c0-.2,0-.4.3-.4q1.2,0,1.2,1.1v1.9Z"/><path class="cls-65" d="m196,53.2h-1.5v-2.6c0-.2,0-.4.3-.4q1.2,0,1.2,1.1v1.9Z"/><path class="cls-65" d="m200,53.2h-1.5v-2.6c0-.2,0-.3.3-.4q1.2,0,1.2,1.1v1.9Z"/><path class="cls-65" d="m192,53.2h-1.5v-2.6c0-.2,0-.4.3-.4q1.2,0,1.2,1.1v1.9Z"/><path class="cls-18" d="m188,53.2h-1.5v-2.6c0-.2,0-.4.3-.4q1.2,0,1.2,1.1v1.9Z"/><path class="cls-18" d="m184,53.2h-1.5v-2.6c0-.2,0-.4.3-.4q1.2,0,1.2,1.1v1.9Z"/><path class="cls-34" d="m181.5,69.6v1.5c-.7,0-1.3,0-2,0-.2,0-.3,0-.3-.3q0-1.2,1.2-1.2h1.1Z"/><path class="cls-65" d="m181.5,61.6v1.5h-2c-.2,0-.3,0-.3-.3q0-1.2,1.1-1.2h1.2Z"/><path class="cls-65" d="m181.5,57.6v1.5h-2c-.2,0-.3,0-.3-.3q0-1.2,1.1-1.2h1.2Z"/><path class="cls-18" d="m181.5,53.6v1.5h-2c-.2,0-.3,0-.3-.3q0-1.2,1.1-1.2h1.2Z"/><path class="cls-65" d="m181.5,65.6v1.5h-2c-.2,0-.3,0-.3-.3q0-1.2,1.1-1.2h1.2Z"/><path class="cls-18" d="m185.3,82.2v-24.8c0-.4.1-.5.5-.5h25.5v4.5c0,3.2.1,6.5,0,9.7,0,1.3-.4,2.6-.9,3.8-.7,1.8-1.8,3.4-3.3,4.6-2.3,1.7-5.2,2.6-8.1,2.6h-13.7Zm14.4-5.2h2.2v2.7q0,1.1,1.1,1.1c.3,0,.4-.1.4-.4v-3.4h2.3c.3,0,.4,0,.4-.4v-1.8h2.2q1.1,0,1.1-1.1c0-.3-.1-.4-.4-.4h-2.9v-2.2h2.2q1.1,0,1.1-1.1c0-.3-.1-.4-.4-.4h-2.9v-2.2h2.2q1.1,0,1.1-1.1c0-.3-.1-.4-.4-.4h-2.9v-1.9c0-.3,0-.4-.3-.4h-2.4v-2.6q0-1.1-1.1-1.1c-.3,0-.4,0-.4.4v3.3h-2.2v-2.6q0-1.1-1.1-1.1c-.3,0-.4,0-.4.4v3.3h-2.2v-2.6q0-1.1-1.1-1.1c-.3,0-.4,0-.4.4v3.3h-2.1c-.3,0-.4,0-.4.4v1.9h-2.3q-1.1,0-1.1,1.1c0,.3.1.4.4.4h3.1v2.2h-2.3q-1.1,0-1.1,1.1c0,.3.1.4.4.4h3.1v2.2h-2.3q-1.1,0-1.1,1.1c0,.3.1.4.4.4h3.1v1.9q0,.3.4.3h2.2v2.7q0,1.1,1.1,1.1c.3,0,.4-.1.4-.4v-3.4h2.2v2.7q0,1.1,1.1,1.1c.3,0,.4-.1.4-.4v-3.4h-.4Z"/><path class="cls-25" d="m185.3,82.2h13.6c2.9,0,5.8-.8,8.1-2.6,1.5-1.2,2.7-2.8,3.3-4.6.5-1.2.8-2.5.9-3.8.2-3.2,0-6.5,0-9.7v-4.5c.5,0,1.1-.2,1.4,0s0,.9,0,1.3v25c0,.3,0,.4-.4.4h-26.6c-.4,0-.6,0-.5-.5v-1h.2Z"/><path class="cls-62" d="m191.9,65.9v-1.9c0-.3,0-.4.4-.4h12.2c0,2.4.1,4.8-.1,7.1,0,1.1-.6,2.2-1.4,3v-6.8c0-.3,0-.5-.4-.4h-7.4q-.3,0-.3.3v6.6c0,.4.1.5.5.5h7.4c0,.2-.2.3-.4.4-1,.8-2.3,1.1-3.6,1.1h-6.8v-9.6h-.1Z"/><path class="cls-31" d="m192,75.5h6.8c1.3,0,2.6-.3,3.6-1.1.2,0,.3-.2.4-.4.1,0,.2-.2.3-.3.8-.8,1.3-1.9,1.4-3,.2-2.4,0-4.7.1-7.1h1.2c.3,0,.3.1.3.4v12.6c0,.3-.1.4-.4.4h-13.4c-.3,0-.4,0-.4-.3v-1.2h0Z"/><path class="cls-26" d="m195.9,63.6h-1.5v-3.3c0-.3,0-.4.4-.4q1.1,0,1.1,1.1v2.6Z"/><path class="cls-26" d="m199.7,63.6h-1.5v-3.3c0-.3,0-.4.4-.4q1.1,0,1.1,1.1v2.6Z"/><path class="cls-16" d="m203.4,63.6h-1.5v-3.3c0-.3,0-.4.4-.4q1.1,0,1.1,1.1v2.6Z"/><path class="cls-16" d="m191.9,69.6v1.5h-3.1c-.3,0-.4,0-.4-.4q0-1.1,1.1-1.1h2.4Z"/><path class="cls-26" d="m191.9,65.9v1.5h-3.1c-.3,0-.4,0-.4-.4q0-1.1,1.1-1.1h2.4Z"/><path class="cls-60" d="m206.1,71.1v-1.5h2.9c.3,0,.4,0,.4.4q0,1.1-1.1,1.1h-2.2Z"/><path class="cls-60" d="m206.1,67.4v-1.5h2.9c.3,0,.4,0,.4.4q0,1.1-1.1,1.1h-2.2Z"/><path class="cls-35" d="m194.9,72.6v-5.6q0-.3.3-.3h6.3v3.1c0,.6-.1,1.1-.5,1.6-.6.8-1.6,1.3-2.6,1.2h-3.5Z"/><path class="cls-36" d="m194.9,72.6h3.6c1,0,2-.4,2.6-1.2.3-.5.5-1,.5-1.6v-3.1h1.1c.4,0,.4.1.4.4v6.8c0,.1-.2.2-.3.3h-7.4c-.4,0-.6,0-.5-.5v-1.1h0Z"/><path class="cls-42" d="m86.9,38.3c3.2-.1,6.3,1,8.7,3.2.6.4.7,1.2.3,1.8-.4.5-1.1.5-1.8,0-1.8-1.8-4.3-2.7-6.8-2.6-2.1,0-4.1.9-5.7,2.3-.2.2-.4.4-.6.5-.5.4-1.2.3-1.6-.2,0,0,0,0,0,0-.4-.4-.4-1.1,0-1.5.6-.6,1.3-1.2,2.1-1.6,1.6-1.1,3.5-1.7,5.5-1.8h0Z"/><path d="m63.8,41.7l-1.2,2.2-5.7-3.2,2.7,4.8v.3l-5.7.2,5.7,3.2-1.2,2.2-9.8-5.5,1.2-2.2,5.8-.2-2.9-5.1,1.2-2.2,9.8,5.5h.1Z"/><path d="m61.6,38.5c-1.6-1.7-1.4-4.4.3-5.9,0,0,0,0,.1,0,1.8-1.5,4.4-1.4,6,.4,1.5,1.8,1.4,4.5-.4,6s-4.5,1.4-6-.4h0Zm4.6-4c-.7-.7-1.8-.7-2.6,0s-.7,1.8,0,2.6c.7.7,1.8.7,2.5,0,.7-.6.9-1.7.3-2.4,0,0-.1-.1-.2-.2Z"/><path d="m74,22l4.6,10.2-2.2,1-.3-.7c-.3.9-.9,1.6-1.8,1.9-2,.8-4.3,0-5.1-2,0,0,0-.2-.1-.3-1-1.9-.3-4.3,1.6-5.3,0,0,0,0,.1,0,.8-.4,1.8-.4,2.6,0l-1.6-3.6,2.2-1Zm.8,7.5c-.5-.9-1.6-1.3-2.5-.8-.9.5-1.3,1.6-.8,2.5.5.9,1.5,1.2,2.4.8.9-.4,1.4-1.5.9-2.5,0,0,0,0,0-.1h0Z"/><path d="m83.4,29.5c.6,0,1.1-.3,1.4-.8l2.1.8c-.6,1.2-1.8,2-3.2,2.1-2.3.5-4.5-1-4.9-3.2,0-.1,0-.2,0-.4-.4-2.2,1.1-4.4,3.4-4.8,0,0,.2,0,.2,0,2.2-.3,4.2,1.2,4.6,3.3,0,0,0,.2,0,.3v1l-5.6.8c.4.8,1.3,1.1,2.1.8h0Zm1.1-3.1c-.3-.8-1.1-1.2-1.9-1-.8,0-1.4.7-1.6,1.5l3.4-.5h0Z"/><path d="m100.7,28.2l-1,4.8-2.3-.5,1-4.6c.2-.8,0-1.4-.9-1.5s-1.3.3-1.5,1.2l-.9,4.4-2.3-.5,1-4.6c.2-.8,0-1.4-.9-1.5s-1.3.3-1.5,1.2l-.9,4.4-2.3-.5,1.7-7.8,2.3.5-.2.7c.6-.6,1.5-.7,2.3-.5.8.1,1.5.7,1.8,1.5.7-.6,1.6-.8,2.5-.6,1.8.4,2.7,1.9,2.3,3.9h-.2Z"/><path d="m103.4,28.7l5.2,3.1-1.2,2-5.2-3.1,1.2-2Z"/><path d="m114.3,40.4c-1.4,1.4-3.8,1.5-5.2,0-.1-.1-.2-.2-.3-.3-1.3-1.1-1.8-2.9-1.1-4.5l2.5.7c-.4.7-.2,1.6.4,2.1.4.6,1.3.7,1.9.3,0,0,0,0,0,0,.5-.5.5-1.2,0-1.7,0,0-.1-.1-.2-.2l-2.5-2.5,4.9-4.2,4.6,4.6-1.7,1.7-2.9-2.9-1.2,1,.6.6c1.4,1.3,1.4,3.7.1,5.1,0,0-.1.1-.1.3Z"/><path class="cls-12" d="m87.4,42.5c2.2,0,4.3.8,5.9,2.3.7.6.8,1.3.3,1.8-.5.5-1.3.5-1.8,0,0,0,0,0,0,0-2.4-2.2-6-2.2-8.4,0-.7.6-1.3.6-1.8,0s-.4-1.2.2-1.8c1.5-1.4,3.5-2.2,5.6-2.3h0Z"/><path class="cls-12" d="m87.5,46.7c1.3,0,2.6.5,3.6,1.4.5.4.6,1.1.3,1.6h0c-.4.5-1.1.6-1.6.2,0,0,0,0,0,0h0c-1.2-1.1-2.9-1.1-4.1,0-.3.4-1,.5-1.4.2,0,0-.1-.1-.2-.2h0c-.4-.6-.3-1.4.2-1.8,0,0,0,0,0,0h0c.9-.9,2.2-1.4,3.5-1.4h-.3Z"/><path class="cls-30" d="m108.1,71.7c-1.5-5.3,3.3-16.5-4.9-17.2h-31c-8.7.2-3.9,11.8-5.4,17.2v6.7c1.5,5.3-3.2,16.1,4.6,17.2h32c7.9-1,3.2-12,4.7-17.2v-6.7Z"/><circle class="cls-3" cx="87.5" cy="59.3" r="45"/><path d="m122,50.8c-2.5,1.4-5.8.5-7.2-2,0-.2-.2-.3-.2-.5-1.5-2.8-.3-6.3,2.5-7.8,2.8-1.5,6.3-.3,7.8,2.5.9,1.7.9,3.8,0,5.5l-2.1-1.4c.5-.9.5-2.1,0-3-.8-1.6-2.7-2.3-4.4-1.6,0,0,0,0-.1,0-1.6.7-2.3,2.6-1.6,4.2,0,.1.1.2.2.4.5,1.1,1.6,1.9,2.8,1.8l-1.3-2.7,2-1,2.5,5-.9.4h0Z"/><path d="m77.5,71.4c1.8,0,3.5.6,4.8,1.7,2.6,2.7,2.5,7.1-.2,9.7-1.4,1.2-3.2,1.8-5.1,1.7-1.6,0-3.1-.3-4.5-1.1-1.3-.7-2.3-1.9-2.8-3.3l4.4-2.5c.3,1.3,1.6,2.2,2.9,2,1.5,0,1.3-.2,1.6-.5.7-.6.8-1.7.2-2.4,0,0-.1-.1-.2-.2-.4-.3-1-.5-1.5-.5h-6.3l.8-11.5h11.5v4.8h-6.9v2.1h1.3Z"/><path d="m105.7,72.9v2c.2,5.1-3.7,9.5-8.8,9.7-.3,0-.6,0-.9,0-2.8,0-5.5-1-7.5-2.9-1.9-1.9-3-4.5-2.9-7.2,0-2.7,1-5.3,2.9-7.3,1.9-2,4.6-3.1,7.3-3,1.8-.2,3.5.3,5,1.2,1.5.8,2.7,1.9,3.6,3.3l-4.2,2.4c-.4-.6-1-1.1-1.7-1.5-.8-.4-1.7-.6-2.6-.6-1.4,0-2.8.5-3.8,1.5-1,1-1.6,2.4-1.5,3.9,0,1.4.5,2.8,1.5,3.8,1.1,1.1,2.6,1.6,4.1,1.6,1.7,0,3.8-.9,4.5-2.6h-4.8v-4.3s9.8,0,9.8,0Z"/><circle class="cls-5" cx="339.4" cy="202.8" r="45"/><path d="m324.3,175.1c1.7,2.3,1.3,5.5-1,7.3-.2.1-.3.2-.5.3-2.6,1.9-6.3,1.3-8.2-1.3,0,0,0,0,0-.1-1.8-2.7-1.1-6.4,1.7-8.1,1.6-1.1,3.6-1.3,5.4-.6l-1.1,2.2c-1-.4-2.1-.3-3,.4-1.5.9-2,2.9-1.1,4.4,0,0,0,.2.2.2,1,1.5,3,2,4.5,1,0,0,.2-.1.3-.2,1.1-.6,1.7-1.8,1.4-3l-2.5,1.7-1.2-1.9,4.7-3.1.5.8Z"/><path d="m329.2,173.3l.9,2.7c.2.7.8.5,1.8.2l.7,2.1c-2.9,1.3-4,.6-4.7-1.5l-.9-2.7-1.2.4-.7-2.2,1.2-.4-.5-1.4,2.1-1.4.7,2.1,1.6-.5.7,2.2-1.6.5h-.1Z"/><path d="m340.6,169.3l.6,8-2.4.2v-.8c-.6.7-1.5,1.1-2.4,1.1-2.3,0-4.2-2-4.1-4.3,0-2,1.5-3.7,3.5-4.1.9,0,1.8.2,2.5.8v-.8l2.3-.2h0Zm-2.1,4.2c0-1-.7-1.8-1.7-1.8-.1,0-.2,0-.3,0-1,0-1.8.9-1.8,1.9,0,0,0,.1,0,.2,0,1,.7,1.8,1.7,1.8.1,0,.2,0,.3,0,1,0,1.8-.9,1.8-1.9,0,0,0-.1,0-.2h0Z"/><path d="m351.5,175.4c-.4,2.2-2.5,3.7-4.7,3.3-.9-.2-1.7-.7-2.1-1.5l-.2.7-2.3-.5,2.5-10.9,2.3.5-.9,3.9c.7-.5,1.7-.7,2.5-.4,2.1.6,3.4,2.8,2.8,5h0Zm-2.3-.5c.3-.9-.1-1.9-1-2.2-.1,0-.2,0-.4,0-1-.3-2,.3-2.3,1.3,0,0,0,.1,0,.2-.3.9.1,1.9,1,2.2.1,0,.2,0,.4,0,1,.3,2-.3,2.3-1.3,0,0,0-.1,0-.2Z"/><path d="m355.1,179.5l5.3-1c.8,0,1.5-.4,2.1-.9.4-.5.3-1.3-.2-1.7,0,0,0,0,0,0-.6-.5-1.4-.5-2,0l-1-2.3c1.4-.8,3.2-.8,4.5.2,1.7,1.1,2.2,3.3,1.1,5,0,0,0,0,0,.1-.9,1.1-2.1,1.7-3.5,1.8l-2.6.4,3,2.2-1.4,2-6.2-4.5,1.1-1.5v.2Z"/><path class="cls-11" d="m321.7,239.8c0-.1-.2-.1-.2-.1-1.3-.4-2.2-1.7-2.2-3.1v-44.5c-.1-1.7,1.2-3.2,2.9-3.3,0,0,.1,0,.2,0h31.7c0,.2.2.2.3.2,1.2.5,1.9,1.6,1.9,2.9v3h-11.7c-.2,0-.4,0-.5.3-.5.5-1,1-1.6,1.5-1.8,1.7-4.6,1.7-6.4,0-.5-.4-1-.9-1.4-1.4-.2-.2-.5-.4-.8-.3h-10.9c-.5,0-.6.1-.6.6v37.5c0,.5.2.6.6.6h33.4v3c0,1.3-.7,2.5-1.9,3-.1,0-.3,0-.3.3h-32.5v-.2Zm14.6-3.9h-2.9c-.6,0-.9.3-.9.8s.3.8.9.8h5.8c.4,0,.9-.2,1-.6,0-.4-.2-.9-.6-1-.1,0-.2,0-.4,0h-2.9Zm3.1-44.1c-.8,0-1.5.6-1.5,1.4,0,0,0,0,0,0h0c0,.8.7,1.5,1.5,1.5,0,0,0,0,.1,0,.8,0,1.5-.7,1.5-1.5,0-.8-.6-1.5-1.4-1.5,0,0,0,0,0,0h-.1Zm6.9,44.9c0-.4-.3-.8-.7-.8-.4,0-.8.5-.8.9,0,.4.3.7.7.7,0,0,0,0,0,0,.4,0,.8-.4.8-.8h0Zm-3.8-.8c-.4,0-.7.4-.8.8,0,.4.4.8.8.8.4,0,.7-.4.8-.8,0-.4-.4-.8-.8-.8Z"/><rect class="cls-30" x="321.4" y="190.8" width="35" height="44" rx="2.8" ry="2.8"/><path class="cls-61" d="m354.2,239.8c0-.2.2-.2.3-.3,1.2-.5,2-1.7,1.9-3v-44.7c0-1.3-.7-2.4-1.9-2.9-.1,0-.3,0-.3-.2h2.2c1.7,0,3,1.3,3,3v44c0,1.9-.6,3.4-2.5,4h-2.8.1Z"/><path class="cls-44" d="m336.3,236h2.8c.5,0,.9.3,1,.8,0,.5-.5.8-1,.8h-5.8c-.6,0-.9-.3-.9-.8s.3-.8.9-.8h3Z"/><path class="cls-19" d="m346.3,236.7c0,.4-.3.8-.7.8h0c-.4,0-.7-.3-.7-.7,0,0,0,0,0,0,0-.4.4-.8.8-.9.4-.1.7.4.7.8h-.1Z"/><path class="cls-19" d="m342.5,236c.4,0,.7.4.8.8,0,.4-.4.8-.8.8s-.8-.4-.8-.8c0-.4.4-.7.8-.8Z"/><g class="cls-21"><path class="cls-27" d="m341.1,208.3h-.6c-.4,0-.8-.2-1.2-.2-.5,0-1-.2-1.5-.3l-1.7-.3h-.3c-.2,0-.3-.2-.2-.5,0-.3.2-.6.4-.8.2-.4.4-.9.6-1.3.1-.3.3-.6.5-.8.3-.4.8-.5,1.2-.2,0,0,.2.1.2.2.2.1.3.3.4.5.3.4.6.8.8,1.3.5.7.9,1.4,1.4,2.2,0,0,0,.1.1.2,0,.2,0,.3-.3.3l.2-.3Z"/><path class="cls-27" d="m342.1,197.9h.2c.2,0,.3.1.2.3s-.1.2-.2.3c-.5.7-1,1.3-1.6,2s-1,1.2-1.5,1.7c-.2.3-.5.5-.9.6-.4,0-.8,0-1.2-.3-.2-.2-.4-.4-.5-.6-.5-.7-.9-1.4-1.4-2.1-.2-.3-.4-.7-.6-1h0c-.1-.2,0-.4.2-.4,1,0,1.9,0,2.9-.2.8,0,1.7,0,2.5-.2.6,0,1.2,0,1.8-.1h.1Z"/></g><path d="m333.1,222.1c1.1,0,2.2.3,3,1,1.6,1.7,1.6,4.4-.1,6.1-.9.7-2,1.1-3.2,1.1-1,0-2-.2-2.8-.7-.8-.5-1.4-1.2-1.7-2.1l2.7-1.6c.2.8,1,1.3,1.8,1.3.9,0,.8-.1,1-.3.2-.2.4-.5.4-.8,0-.3-.1-.6-.4-.8-.3-.2-.6-.3-1-.3h-3.9l.5-7.2h7.2v3h-4.3v1.3h.8Z"/><path d="m350.7,223v1.2c0,1.6-.6,3.2-1.7,4.4-1.2,1.1-2.8,1.8-4.4,1.7-1.7,0-3.4-.6-4.7-1.8-2.4-2.5-2.4-6.5,0-9,1.2-1.2,2.8-1.9,4.5-1.9,1.1,0,2.2.2,3.1.8.9.5,1.6,1.2,2.2,2l-2.7,1.5c-.2-.4-.6-.7-1.1-.9-.5-.2-1.1-.3-1.6-.3-1.7-.1-3.2,1.2-3.3,2.9,0,.1,0,.3,0,.4,0,.9.3,1.7.9,2.4.7.7,1.6,1.1,2.6,1,1.2,0,2.3-.6,2.8-1.6h-3v-2.7h6.4Z"/><circle class="cls-5" cx="60.6" cy="202.8" r="45"/><path d="m38.1,176.4c2.3,1.9,2.6,5.2.7,7.4-.1.1-.2.2-.3.4-2.1,2.5-5.9,2.8-8.3.6,0,0,0,0,0,0-2.4-2.2-2.6-5.9-.4-8.3,0,0,0,0,0,0,1.3-1.5,3.3-2.2,5.2-1.9l-.5,2.5c-1.1-.2-2.1.3-2.8,1.1-1.2,1.2-1.2,3.2,0,4.5,0,0,.2.2.3.2,1.4,1.3,3.3,1.2,4.8-.4.9-.8,1.2-2.2.6-3.3l-2,2.2-1.7-1.5,3.8-4.2.7.6h0Z"/><path d="m48.3,172.2c1.1,1.9.5,4.4-1.4,5.5,0,0,0,0,0,0-.8.5-1.7.6-2.6.3l1.9,3.5-2.1,1.1-5.3-9.9,2.1-1.1.4.7c.2-.9.8-1.6,1.6-2,2-1,4.4-.1,5.4,1.9Zm-2.1,1.1c-.4-.9-1.5-1.3-2.4-.9,0,0-.1,0-.2.1-.9.4-1.3,1.6-.9,2.5,0,0,0,0,0,.1.4.9,1.5,1.3,2.4.9,0,0,.1,0,.2-.1.9-.4,1.3-1.6.9-2.5,0,0,0,0,0-.1h0Z"/><path d="m57.3,169.3l1,4.8-2.4.5-.9-4.5c0-.7-.7-1.2-1.4-1.2-.1,0-.2,0-.3,0-.7,0-1.3.8-1.2,1.5,0,.1,0,.3.1.4l.9,4.3-2.4.5-2.3-11,2.4-.5.8,3.9c.4-.8,1.1-1.3,2-1.4,1.6-.3,3.2.7,3.6,2.3,0,0,0,.2,0,.3h0Z"/><path d="m59.1,170c.1-2.3,2.2-4.1,4.5-4s4.1,2.2,4,4.5-2.2,4.1-4.5,4c0,0,0,0,0,0-2.3-.2-4.1-2.2-3.9-4.5,0,0,0,0,0,0Zm6.1.5c.1-1-.6-1.9-1.6-2,0,0,0,0,0,0-1,0-1.9.7-2,1.7-.1,1,.6,1.9,1.6,2,0,0,0,0,0,0,1,0,1.9-.7,2-1.7Z"/><path d="m76.8,173l-1.7,4.6-2.2-.9,1.6-4.3c.4-.6.1-1.4-.5-1.8,0,0-.2,0-.3-.1-.8-.3-1.6,0-1.9.8,0,0,0,.1,0,.2l-1.6,4.1-2.2-.9,2.8-7.5,2.2.9-.3.7c.8-.5,1.7-.5,2.5,0,1.5.6,2.4,2.1,1.6,4.2h0Z"/><path d="m80.2,179c.5.4,1,.5,1.6.4l.9,2c-2.4.6-4.8-.9-5.4-3.3-.3-1.2,0-2.5.6-3.5,1.3-1.8,3.8-2.3,5.7-1,0,0,.2.1.2.2,1.8,1.3,2.2,3.8.9,5.6,0,0-.1.1-.2.2-.2.3-.4.5-.7.7l-4.5-3.4c-.2.8.2,1.6.9,2h0Zm2.9-1.4c.4-.7,0-1.6-.6-2-.6-.6-1.6-.6-2.2,0l2.8,2.1h0Z"/><path d="m91.6,191.3c-1.8,1-3.7.4-5-1.9s-.9-4.2.8-5.3c.9-.6,2.2-.6,3.1,0,0-.9.6-1.7,1.4-2.1,1.9-1.1,3.7-.2,4.8,1.5,1.1,1.7.9,3.8-1,4.9-.8.5-1.7.5-2.5.2,0,1.1-.6,2.1-1.6,2.6h0Zm-1-2.4c.7-.4.9-1.3.4-1.9,0,0,0,0,0,0-.5-.8-1.2-1.1-1.9-.7-.7.4-.9,1.3-.4,1.9,0,0,0,0,0,0,.5.8,1.2,1.1,1.9.7Zm2.4-4.6c-.5.3-.7,1-.4,1.6.3.5.9.8,1.5.5,0,0,0,0,0,0,.5-.3.7-1,.4-1.6-.3-.5-.9-.8-1.5-.5,0,0,0,0,0,0Z"/><path class="cls-40" d="m43.2,187.8h20.6c2,0,3.7,1.6,3.7,3.7,0,0,0,0,0,0v43.9c0,2-1.6,3.7-3.7,3.7,0,0,0,0,0,0h-20.6c-2,0-3.7-1.6-3.7-3.7,0,0,0,0,0,0v-43.9c0-2,1.6-3.7,3.7-3.7,0,0,0,0,0,0Z"/><path class="cls-32" d="m58.4,219c-.3,0-.5,0-.8-.1-.6,0-1.2-.2-1.8-.4-.7-.1-1.5-.3-2.2-.4-.9-.2-1.7-.3-2.6-.5-.1,0-.3,0-.4-.1-.3,0-.4-.4-.3-.7,0,0,0,0,0,0,.2-.4.4-.8.5-1.2.3-.7.6-1.3.9-2,.2-.5.5-.9.8-1.3.4-.6,1.2-.8,1.9-.4.1,0,.2.2.3.3.2.2.4.5.6.8.4.7.9,1.3,1.3,2l2.1,3.3c0,.1.1.2.2.3.1.3,0,.5-.4.5h-.1Z"/><path class="cls-32" d="m59.9,203.3h.3c.3,0,.4.2.3.4s-.2.3-.3.5c-.8,1-1.5,2-2.3,3s-1.5,1.8-2.2,2.6c-.4.4-.9.7-1.4.9-.6.1-1.3,0-1.8-.4-.3-.3-.6-.6-.8-.9-.7-1.1-1.4-2.1-2.1-3.2-.3-.5-.6-1-.9-1.4h0c-.2-.4,0-.6.3-.6l4.3-.3c1.3,0,2.6-.2,3.8-.3.9,0,1.8,0,2.7-.2h0Z"/><path class="cls-32" d="m56.6,187.8h20.6c2,0,3.7,1.6,3.7,3.7,0,0,0,0,0,0v43.9c0,2-1.6,3.7-3.7,3.7,0,0,0,0,0,0h-20.6c-2,0-3.7-1.6-3.7-3.7,0,0,0,0,0,0v-43.9c0-2,1.6-3.7,3.7-3.7,0,0,0,0,0,0Z"/><path class="cls-67" d="m77.2,187.8h-20.6c-2,0-3.7,1.6-3.7,3.7,0,0,0,0,0,0v43.9l27.9-43.9c0-2-1.6-3.7-3.7-3.7,0,0,0,0,0,0h.1Z"/><path class="cls-30" d="m78.7,237.8h-23.6c-.9,0-1.6-.8-1.6-1.8,0,0,0,0,0,0v-44.4c0-1,.7-1.9,1.7-2h23.4c.9,0,1.6.8,1.6,1.8,0,0,0,0,0,0v44.6c0,.9-.6,1.7-1.6,1.8,0,0,0,0,0,0h.1Z"/><path class="cls-52" d="m69,204.6h-.4c-.3,0-.7,0-1-.2-.4,0-.8-.2-1.2-.2-.4,0-.9-.2-1.3-.3h-.2c-.2,0-.2-.2-.2-.4s.2-.4.3-.6.3-.7.5-1c0-.3.2-.5.4-.7.2-.3.6-.4.9-.2,0,0,.2.1.2.2.1.1.2.3.3.4.2.4.4.7.7,1,.4.6.7,1.1,1.1,1.7v.2c0,.2,0,.3-.2.3v-.2Z"/><path class="cls-52" d="m69.8,196.4h.2c.1,0,.2.1.1.2,0,.1-.1.2-.2.3l-1.2,1.5c-.4.4-.8.9-1.1,1.4-.2.2-.4.4-.7.5-.3,0-.6,0-.9-.2-.2-.1-.3-.3-.4-.5-.4-.6-.7-1.1-1.1-1.7-.2-.2-.3-.4-.4-.7h0c0-.2,0-.3.2-.3.8,0,1.5,0,2.3-.2.7,0,1.3,0,2-.1h1.4l-.2-.2Z"/><path d="m62.3,218.5c.8,0,1.5.2,2.1.7.5.5.8,1.3.8,2,0,.8-.3,1.6-.9,2.1-.6.5-1.4.7-2.2.7-1.3,0-2.6-.7-3.1-1.9l1.9-1.1c.1.5.6.9,1.2.9.6,0,.5,0,.7-.2s.2-.3.2-.6,0-.4-.2-.6c-.2-.2-.4-.2-.7-.2h-2.7l.3-4.9h4.9v2h-3v.9h.5l.2.2Z"/><path d="m74.4,219.2v.9c0,1.1-.4,2.2-1.2,3-.8.8-1.9,1.2-3,1.1-1.2,0-2.4-.4-3.2-1.3-.8-.8-1.3-1.9-1.3-3.1,0-1.2.4-2.3,1.3-3.1.8-.8,1.9-1.3,3.1-1.3.8,0,1.5.1,2.2.5.6.3,1.2.8,1.5,1.4l-1.8,1c-.2-.3-.4-.5-.7-.6-.4-.1-.7-.2-1.1-.2-.6,0-1.2.2-1.6.6-.4.5-.6,1.1-.6,1.7,0,.6.2,1.2.6,1.6.5.5,1.1.7,1.8.7.8,0,1.5-.4,1.9-1.1h-2v-1.8h4.1Z"/><path class="cls-23" d="m54.8,236.4c-.4.7-1.4.4-1.4-.5v-44.3c0-1,.7-1.9,1.7-2h23.7c.5,0,.9.6.8,1.1,0,.1,0,.2-.1.4l-24.7,45.3Z"/><path class="cls-55" d="m69.8,191.2c0,.3-.2.5-.4.5,0,0,0,0,0,0h-4.7c-.3,0-.5-.2-.5-.4,0,0,0,0,0,0h0c0-.3.2-.5.4-.5,0,0,0,0,0,0h4.7c.3,0,.5.2.5.4,0,0,0,0,0,0Z"/><rect class="cls-38" x="41.8" y="190.3" width="9.8" height="9.5" rx="2" ry="2"/><circle cx="44.4" cy="193.3" r=".9"/><path class="cls-48" d="m44.5,194.9c-1.1,0-2-.9-2-2,0-1.1.9-2,2-2,1.1,0,2,.9,2,2,0,0,0,0,0,0,0,1.1-.9,1.9-1.9,1.9,0,0,0,0,0,0Zm-.9-2.1c0,.2,0,.5.1.7.2.4.6.6,1,.5.4,0,.7-.3.8-.7.1-.4,0-.9-.5-1.1-.2-.1-.5-.2-.7-.1-.5,0-.8.3-.7.8h0Z"/><path class="cls-66" d="m44.3,192c.2,0,.5,0,.7.1.4.2.6.7.5,1.1,0,.4-.4.6-.8.7-.4,0-.8-.1-1-.5-.1-.2-.2-.5-.1-.7.1,0,.3.1.4.1,0,.2,0,.5.3.5s.5,0,.6-.3,0-.6-.5-.7c0-.2,0-.4-.2-.5v.2Z"/><path class="cls-54" d="m44.3,192c.1.1.2.3.2.5,0,.2-.2.3-.4.4-.2,0-.3,0-.4-.1-.1-.5.2-.8.7-.8h-.1Z"/><circle cx="48.8" cy="193.3" r=".9"/><path class="cls-48" d="m49,194.9c-1.1,0-2-.9-2-2,0-1.1.9-2,2-2,1.1,0,2,.9,2,2,0,0,0,0,0,0,0,1.1-.9,1.9-1.9,1.9,0,0,0,0,0,0Zm-.9-2.1c0,.2,0,.5.1.7.2.4.6.6,1,.5.4,0,.7-.3.8-.7.1-.4,0-.9-.5-1.1-.2-.1-.5-.2-.7-.1-.5,0-.8.3-.7.8h0Z"/><path class="cls-66" d="m48.7,192c.2,0,.5,0,.7.1.4.2.6.7.5,1.1,0,.4-.4.6-.8.7-.4,0-.8-.1-1-.5-.1-.2-.2-.5-.1-.7.1,0,.3.1.4.1,0,.2,0,.5.3.5s.5,0,.6-.3,0-.6-.5-.7c0-.2,0-.4-.2-.5v.2Z"/><path class="cls-54" d="m48.7,192c.1.1.2.3.2.5,0,.2-.2.3-.4.4-.2,0-.3,0-.4-.1-.1-.5.2-.8.7-.8h-.1Z"/><circle cx="44.4" cy="197.1" r=".5"/><path class="cls-64" d="m44.5,198c-.6,0-1.1-.5-1.1-1.1s.5-1.1,1.1-1.1,1.1.5,1.1,1.1c0,.6-.5,1.1-1.1,1.1Zm-.5-1.2v.4c.1.2.4.3.6.3.2,0,.4-.2.4-.4,0-.2,0-.5-.3-.6h-.4c-.3,0-.5.2-.4.4h0Z"/><path class="cls-37" d="m44.4,196.4h.4c.2.1.3.4.3.6,0,.2-.2.4-.4.4-.2,0-.5,0-.6-.3,0-.1-.1-.2,0-.4h.2c0,.1,0,.3.2.3s.3,0,.3-.1,0-.3-.3-.4v-.3.2Z"/><path class="cls-43" d="m44.4,196.4s.1.2,0,.3-.1.2-.2.2h-.2c0-.3,0-.4.4-.4h0Z"/><circle cx="48.9" cy="197.1" r=".3"/><path class="cls-48" d="m49,197.5c-.3,0-.6-.3-.6-.6s.3-.6.6-.6.6.3.6.6c0,.3-.3.6-.6.6Zm-.3-.7v.2c0,.1.1.2.2.1,0,0,0,0,0,0,.1,0,.2,0,.2-.2,0-.1,0-.3-.2-.3h-.2c-.2,0-.3.1-.2.2h0Z"/><path class="cls-66" d="m48.9,196.6h.2c.1,0,.2.2.2.3,0,.1,0,.2-.2.2-.1,0-.3,0-.3-.1v-.2h.1c0,0,0,.1.1.2h.2c0-.1,0-.2-.2-.2v-.2h-.1Z"/><path class="cls-54" d="m48.9,196.6v.2h-.1c0,.1-.1.1-.1.1,0-.1,0-.2.2-.2h0Z"/><line class="cls-10" x1="145.3" y1="203" x2="112.5" y2="202.5"/><line class="cls-6" x1="145.3" y1="203" x2="123.3" y2="202.7"/><polygon class="cls-63" points="125.6 195.3 112.5 202.5 125.4 210.2 125.6 195.3"/><line class="cls-10" x1="252.5" y1="203" x2="285.3" y2="202.5"/><line class="cls-6" x1="252.5" y1="203" x2="274.6" y2="202.7"/><polygon class="cls-63" points="272.5 210.2 285.3 202.5 272.3 195.3 272.5 210.2"/><circle class="cls-4" cx="196.7" cy="202.8" r="45"/><path d="m161.6,200.3c-2.5-.4-4.2-2.8-3.8-5.3,0,0,0-.2,0-.3.3-1.5,1.3-2.8,2.8-3.4l.7,2c-.8.3-1.4,1-1.5,1.9-.4,1.3.4,2.7,1.7,3,.1,0,.3,0,.4,0,1.4.4,2.8-.4,3.1-1.8,0-.1,0-.2,0-.3.3-.8,0-1.7-.7-2.3l1.4-1.6c1.1,1.1,1.6,2.7,1.3,4.2-.4,2.5-2.8,4.2-5.3,3.8,0,0-.2,0-.3,0h0Z"/><path d="m165,191.2c-1.7-.8-2.4-2.9-1.6-4.6.8-1.7,2.9-2.4,4.6-1.6,1.7.8,2.4,2.9,1.6,4.6-.9,1.7-2.9,2.4-4.6,1.6Zm2.2-4.4c-.7-.4-1.6,0-2,.6,0,0,0,0,0,0-.3.7,0,1.6.7,2,.7.4,1.6,0,2-.6,0,0,0,0,0,0,.4-.7.2-1.5-.5-1.9,0,0-.1,0-.2-.1h0Z"/><path d="m174.7,176l2.9,2.7-1.3,1.4-2.8-2.6c-.5-.4-1-.5-1.4,0-.4.4-.4,1.1,0,1.5,0,0,0,0,.1.1l2.7,2.5-1.3,1.4-2.8-2.6c-.5-.4-1-.5-1.4,0-.4.4-.4,1.1,0,1.5,0,0,0,0,.1.1l2.7,2.5-1.3,1.4-4.8-4.4,1.3-1.4.4.4c-.1-.7.1-1.3.6-1.8.4-.6,1.1-.8,1.8-.7-.1-.7,0-1.5.6-2,.9-1,2.5-1.1,3.5-.2,0,0,.1.1.2.2Z"/><path d="m180.3,169.7l3.4,5.6-1.7,1-.3-.5c0,.7-.5,1.3-1.2,1.6-1.1.7-2.6.4-3.4-.7,0,0-.1-.2-.1-.3l-2.1-3.4,1.7-1,1.9,3.2c.2.5.8.8,1.3.6.1,0,.2-.1.3-.2.6-.3.8-1,.4-1.6,0,0,0-.1-.1-.2l-1.8-3,1.7-1h0Z"/><path d="m189.2,169.1l1.2,3.8-1.9.6-1.1-3.5c0-.5-.6-.9-1.1-.9-.1,0-.2,0-.3,0-.6.1-1,.7-.8,1.3,0,.1,0,.2.1.3l1.1,3.4-1.9.6-2-6.2,1.9-.6.2.6c.2-.7.8-1.2,1.5-1.3,1.3-.4,2.7.3,3.1,1.6,0,0,0,.1,0,.2Z"/><path d="m190.1,164.8c0-.6.4-1.2,1-1.3.6,0,1.2.4,1.3,1s-.4,1.2-1,1.3c0,0,0,0,0,0-.6,0-1.2-.4-1.3-1Zm.4,1.7l1.9-.3.9,6.4-1.9.3-.9-6.4Z"/><path d="m194.2,169.2c0-1.9,1.5-3.4,3.4-3.4,0,0,0,0,.1,0,1.2,0,2.3.6,2.9,1.7l-1.7,1c-.3-.7-1.2-1-1.9-.7-.5.2-.8.8-.8,1.4,0,.8.5,1.4,1.3,1.5,0,0,0,0,.1,0,.5,0,1-.2,1.3-.7l1.7,1c-1,1.6-3.2,2.1-4.8,1.1-1-.6-1.6-1.8-1.6-3h0Z"/><path d="m208.7,167.8l-1.6,6.3-1.9-.5v-.6c-.5.4-1.3.5-1.9.3-1.7-.5-2.7-2.3-2.2-4,0,0,0,0,0-.1.3-1.8,2-2.9,3.8-2.6.7.1,1.3.6,1.7,1.2v-.5c.1,0,2,.5,2,.5h0Zm-2.7,2.7c.2-.8-.3-1.7-1.1-1.9,0,0,0,0,0,0-.8-.2-1.6.2-1.9,1,0,0,0,.1,0,.2-.2.8.3,1.7,1.1,1.9,0,0,0,0,0,0,.8.2,1.6-.2,1.9-1,0,0,0-.1,0-.2Z"/><path d="m212.3,171.5l-1,2.1c-.2.5.2.8,1,1.1l-.8,1.6c-2.4-.9-2.8-1.9-2-3.5l1-2.1-.9-.4.8-1.7.9.4.5-1.1,2,.3-.8,1.6,1.2.6-.8,1.7-1.2-.6h.1Z"/><path d="m215.7,171.2l1.6,1-3.5,5.5-1.6-1,3.5-5.5Zm.8-1.6c.3-.6,1-.7,1.6-.4.6.3.7,1,.4,1.6-.3.6-1,.7-1.6.4,0,0,0,0,0,0-.5-.4-.7-1.1-.4-1.6h0Z"/><path d="m216.8,175.7c1.3-1.4,3.5-1.5,4.9-.2,1.4,1.3,1.5,3.5.2,4.9-1.3,1.4-3.5,1.5-4.9.2,0,0,0,0,0,0-1.4-1.3-1.5-3.5-.2-4.9Zm3.7,3.3c.6-.6.6-1.5,0-2.1,0,0,0,0,0,0-.5-.6-1.4-.6-2,0,0,0-.1.1-.1.2-.6.6-.5,1.5,0,2.1s1.5.5,2.1,0Z"/><path d="m226.9,186.1l-3.3,2.2-1.1-1.6,3.1-2.1c.5-.2.7-.8.5-1.3,0-.1-.1-.2-.2-.3-.4-.6-1-.8-1.8-.2l-2.9,2-1.1-1.6,5.4-3.7,1.1,1.6-.5.3c.7,0,1.3.5,1.7,1.1.7,1.1.5,2.6-.6,3.3,0,0-.2.1-.3.2h0Z"/><path d="m228.8,193.8c-1.5.6-3.3-.1-3.9-1.7,0-.1,0-.2-.1-.3-.6-1.2-.3-2.7.6-3.7l1.6,1.3c-.5.4-.7,1.1-.4,1.7.3.8.9,1,1.4.8s.8-.7.5-1.5l-1-2.7,5-1.6,1.9,4.9-1.8.7-1.2-3.1-1.2.4.3.7c.7,1.4.1,3.1-1.3,3.8-.1,0-.3.1-.4.2h0Z"/><path d="m231.6,203.9c-2.3.4-4.5-1.2-4.9-3.6,0-.1,0-.3,0-.4-.3-2.6,1.5-5,4.1-5.4,0,0,0,0,0,0,2.6-.3,4.9,1.6,5.2,4.2,0,0,0,0,0,0,.2,1.6-.4,3.2-1.7,4.2l-1.2-1.7c.7-.6,1-1.4.8-2.3-.2-1.5-1.6-2.5-3.1-2.3-1.5.2-2.5,1.6-2.3,3h0c0,1,.6,1.9,1.6,2.2l-.3-2.4,1.8-.2.5,4.5h-.8.2Z"/><path class="cls-30" d="m208.6,189.9c-8.5-.2-17.8-.2-26.3,0-14.8,1.9-22,20.9-11.6,31.8,2.2,3.3-1.6,9.5,2.3,11.8,3.3,1,5.2-3.4,7.4-5.1,9.2-1,20.3.5,29.8-.5,22.1-2.9,20.7-37.2-1.6-38.2v.2Z"/><path d="m186.7,206.2c1.6,0,3.2.5,4.4,1.5,1.2,1.1,1.8,2.7,1.7,4.3,0,1.7-.6,3.4-1.9,4.5-1.3,1.1-3,1.7-4.7,1.6-1.4,0-2.9-.3-4.1-1-1.2-.7-2-1.7-2.5-3l4-2.3c.3,1.2,1.4,2,2.6,1.9,1.4,0,1.1-.1,1.5-.4.7-.7.7-1.7,0-2.4,0,0,0,0,0,0-.4-.3-.9-.4-1.4-.4h-5.7l.7-10.5h10.5v4.4h-6.3v1.9h1.2Z"/><path d="m212.4,207.5v1.8c0,2.4-.8,4.7-2.5,6.4-1.7,1.6-4,2.5-6.4,2.4-2.6,0-5-.9-6.9-2.7-3.6-3.6-3.7-9.5,0-13.2,1.8-1.8,4.2-2.8,6.6-2.7,1.6-.1,3.2.3,4.6,1.1,1.4.6,2.5,1.7,3.2,3l-3.9,2.2c-.4-.6-.9-1-1.6-1.3-.7-.3-1.5-.5-2.3-.5-2.6,0-4.8,2-4.9,4.7,0,0,0,.2,0,.2,0,1.3.4,2.6,1.3,3.5,1,1,2.4,1.5,3.8,1.4,1.7,0,3.3-.8,4.1-2.3h-4.3v-3.9h9.2Z"/></svg>