<?xml version="1.0" encoding="UTF-8"?><svg id="Layer_1" xmlns="http://www.w3.org/2000/svg" xmlns:xlink="http://www.w3.org/1999/xlink" viewBox="0 0 400 400"><defs><style>.cls-1{fill:#a7a7a7;}.cls-2{stroke:#a5262d;}.cls-2,.cls-3,.cls-4,.cls-5{stroke-width:4px;}.cls-2,.cls-3,.cls-4,.cls-5,.cls-6{stroke-miterlimit:10;}.cls-2,.cls-3,.cls-4,.cls-5,.cls-6,.cls-7{fill:none;}.cls-8{fill:url(#linear-gradient-2);}.cls-9{fill:#fab644;}.cls-10{fill:#fff;}.cls-11{fill:#72b3e2;}.cls-3{stroke:#0018c6;}.cls-12{fill:#cbcbcb;}.cls-13{fill:#4fb76a;}.cls-14{fill:#349951;}.cls-15{fill:#cfe1ed;}.cls-16{fill:#cacaca;}.cls-17{fill:#143441;}.cls-18{fill:#0277b5;}.cls-19{fill:#a7c1e0;}.cls-20{fill:#fdc00f;}.cls-4{stroke:#c000e2;}.cls-21{fill:#0d202b;}.cls-22{fill:#cbdde9;}.cls-23{fill:#369754;}.cls-24{fill:#c9c9c9;}.cls-25{fill:#163842;}.cls-5{stroke:#00b51e;}.cls-26{fill:#fdd782;}.cls-27{fill:#caa158;}.cls-6{stroke:#231f20;stroke-width:2px;}.cls-28{fill:gray;}.cls-29{fill:#015078;}.cls-30{fill:#16c5d5;}.cls-31{fill:#183c43;}.cls-32{fill:#72b2e2;}.cls-33{fill:#0296e4;}.cls-34{fill:#0295e3;}.cls-35{fill:#0276b3;}.cls-36{fill:#ff1d25;}.cls-37{fill:#073856;}.cls-38{fill:#fab643;}.cls-39{fill:#fd6220;}.cls-40{fill:#0376b4;}.cls-41{fill:#a8a8a8;}.cls-42{fill:url(#linear-gradient);}.cls-43{fill:#db411d;}.cls-44{fill:#cadce8;}.cls-45{fill:#51b66c;}.cls-46{fill:#ccf2ff;isolation:isolate;opacity:.5;}.cls-47{fill:#231f20;}.cls-48{fill:#153642;}</style><linearGradient id="linear-gradient" x1="-262.3" y1="310.3" x2="-260.8" y2="298.7" gradientTransform="translate(233.2 -26.8) rotate(-27.3)" gradientUnits="userSpaceOnUse"><stop offset="0" stop-color="#d53f26"/><stop offset="1" stop-color="#a4252c"/></linearGradient><linearGradient id="linear-gradient-2" x1="-418.3" y1="229.6" x2="-416.8" y2="218" gradientTransform="translate(-138.7 -27.4) rotate(-152.4) scale(1 -1)" xlink:href="#linear-gradient"/></defs><circle class="cls-5" cx="271" cy="332.4" r="45"/><path d="m248.2,306.6c2.1,1.7,2.5,4.7.8,6.8-.1.2-.3.3-.4.5-1.9,2.3-5.3,2.7-7.6.8,0,0-.2-.1-.2-.2-2.3-2.1-2.5-5.6-.4-7.9,1.2-1.3,2.9-2,4.7-1.8l-.5,2.3c-1,0-2,.3-2.6,1.1-1.1,1.2-1.1,3.1.1,4.2,0,0,.1.1.2.2,1.2,1.1,3.1,1.1,4.2,0,0,0,.2-.2.3-.3.9-.8,1.1-2,.6-3.1l-1.9,2.1-1.6-1.4,3.5-3.9.7.6h.1Z"/><path d="m257.5,302.5c1.1,1.7.6,4.1-1.1,5.2-.7.5-1.6.6-2.4.3l1.9,3.2-1.9,1.1-5.3-9.1,1.9-1.1.4.6c.2-.8.7-1.5,1.5-1.9,1.9-1,4.1-.2,5.1,1.6h0Zm-1.9,1.1c-.4-.9-1.5-1.2-2.4-.8,0,0,0,0-.1,0-.8.4-1.2,1.4-.7,2.3,0,0,0,.2.1.2.4.9,1.5,1.2,2.4.8,0,0,0,0,.1,0,.8-.4,1.2-1.4.7-2.3,0,0,0-.2-.1-.2Z"/><path d="m265.8,299.3l1.1,4.5-2.2.6-1.1-4.1c0-.7-.7-1.1-1.3-1.1,0,0-.2,0-.3,0-.7.1-1.2.9-1.1,1.6,0,0,0,.1,0,.2l1,4-2.2.6-2.6-10.2,2.2-.6.9,3.6c.4-.7,1-1.2,1.8-1.4,1.5-.4,3,.4,3.4,1.9,0,.1,0,.3,0,.4h.2Z"/><path d="m267.5,299.9c0-2.2,1.8-4,4-4,2.2,0,4,1.8,4,4,0,2.2-1.8,4-4,4,0,0,0,0,0,0-2.2,0-3.9-1.8-3.9-4,0,0,0,0,0,0Zm5.7,0c0-.9-.6-1.7-1.5-1.8,0,0-.1,0-.2,0-1,0-1.8.7-1.8,1.7,0,.9.6,1.7,1.5,1.8,0,0,.1,0,.2,0,1,0,1.8-.7,1.8-1.7Z"/><path d="m284.3,301.5l-1.3,4.4-2.2-.6,1.2-4.1c.3-.6,0-1.4-.7-1.6,0,0-.2,0-.2,0-.7-.3-1.5,0-1.7.8,0,.1,0,.2,0,.3l-1.1,3.9-2.2-.6,2.1-7.2,2.2.6-.2.7c.7-.5,1.5-.6,2.3-.3,1.5.4,2.4,1.8,1.8,3.8h0Z"/><path d="m288,306.8c.4.3,1,.4,1.5.3l1,1.8c-2.2.8-4.6-.4-5.3-2.6-.4-1.1-.3-2.4.3-3.4,1.1-1.8,3.4-2.4,5.2-1.4,0,0,.2.1.3.2,1.8,1.1,2.3,3.4,1.2,5.2,0,0,0,.1-.1.2-.2.3-.4.5-.6.7l-4.5-2.8c-.1.8.3,1.5,1,1.8Zm2.6-1.6c.3-.9-.3-1.8-1.2-2.1-.5-.2-1.1,0-1.5.3l2.7,1.7h0Z"/><path d="m294.2,311.6l5,.6c.7.1,1.5,0,2.1-.3.5-.4.6-1.1.2-1.6,0,0,0,0,0,0-.4-.6-1.2-.8-1.8-.5l-.3-2.3c1.5-.4,3.1.2,4,1.4,1.2,1.4,1,3.6-.4,4.8,0,0,0,0-.1,0-1,.7-2.4,1-3.6.7l-2.5-.3,2.1,2.8-1.8,1.4-4.4-5.7,1.4-1.1h.1Z"/><path class="cls-43" d="m259.6,313.3h23c2.2,0,4.1,1.8,4.1,4,0,0,0,0,0,0v49.1c0,2.2-1.8,4.1-4,4.1,0,0,0,0,0,0h-23c-2.2,0-4.1-1.8-4.1-4,0,0,0,0,0,0v-49.1c0-2.2,1.8-4.1,4-4.1,0,0,0,0,0,0Z"/><path class="cls-39" d="m282.6,313.3h-23c-2.2,0-4.1,1.8-4.1,4,0,0,0,0,0,0v49.1l31.2-49.1c0-2.2-1.8-4.1-4-4.1,0,0,0,0,0,0Z"/><rect class="cls-24" x="258.1" y="320.6" width="25.9" height="38.8"/><path class="cls-10" d="m274.3,315.1c0,.3-.3.6-.6.6h-5.3c-.3,0-.6-.3-.6-.6h0c0-.3.3-.6.6-.6h5.3c.3,0,.6.3.6.6Z"/><path class="cls-10" d="m273.2,366.6h-.5c-.3,0-.7,0-1-.2-.4,0-.8-.2-1.2-.2-.5,0-.9-.1-1.4-.3h-.2c-.2,0-.2-.2-.2-.4,0-.2.2-.5.3-.7.1-.4.3-.7.5-1.1.1-.2.3-.5.4-.7.2-.3.6-.4,1-.2,0,0,.2.1.2.2.1.1.2.3.4.5.2.4.5.7.7,1.1l1.2,1.8v.2c0,.2,0,.3-.2.3v-.3Z"/><path class="cls-10" d="m264.8,362.9c0,.1-.2.3-.3.4l-.6.9c-.2.3-.5.7-.7,1l-.9,1.2c0,0,0,.1-.1.2-.1.1-.3.1-.4,0-.2-.2-.3-.4-.5-.6s-.5-.6-.8-.9c-.2-.2-.4-.5-.5-.7-.2-.3-.1-.8.2-1,0,0,.1,0,.2,0,.2,0,.4-.1.6-.1.4,0,.9,0,1.3-.2.7,0,1.4-.2,2.1-.3h.2c.2,0,.3.1.2.3h0Z"/><path class="cls-10" d="m277.2,362.3c.1,0,.3,0,.4.1l1,.3c.4.1.8.3,1.2.4s.9.3,1.4.5h.2c.2,0,.2.2.1.4s-.3.4-.4.6c-.2.4-.4.7-.7,1-.2.2-.3.4-.5.6-.3.3-.8.3-1.2,0,0,0,0,0,0,0-.1-.2-.2-.3-.3-.5l-.6-1.2c-.3-.6-.6-1.3-.9-1.9v-.2c0-.2,0-.3.3-.3v.2Z"/><path class="cls-36" d="m273.4,332.1h-.5c-.4,0-.7,0-1.1-.2-.4,0-.9-.2-1.3-.3-.5,0-1-.2-1.5-.3h-.2c-.2,0-.2-.2-.2-.4s.2-.5.3-.7c.2-.4.3-.8.5-1.2.1-.2.2-.5.4-.7.2-.4.7-.4,1.1-.2,0,0,.1.1.2.2.2.1.3.3.4.5.3.4.5.8.7,1.2.4.6.8,1.3,1.2,1.9v.2c0,.2,0,.3-.2.3l.2-.3Z"/><path class="cls-36" d="m274.3,323h.2c.2,0,.2.1.2.3s-.1.2-.2.3c-.5.6-.9,1.2-1.4,1.7-.4.5-.8,1-1.3,1.5-.2.2-.5.4-.8.5-.3,0-.7,0-1-.2-.2-.1-.3-.3-.4-.5-.4-.6-.8-1.2-1.2-1.9-.1-.3-.3-.5-.5-.8h0c-.1-.2,0-.3.2-.3.8,0,1.7,0,2.5-.2.7,0,1.5,0,2.2-.2h1.6v-.2Z"/><path d="m263.3,353.8v-1.7l3.1-3.3c.3-.3.5-.6.7-.8.1-.2.2-.4.2-.6,0-.2,0-.4-.2-.6-.2-.1-.4-.2-.6-.2-.6,0-1.1.4-1.3,1l-2.1-1.2c.3-.7.7-1.2,1.3-1.6.6-.4,1.3-.5,2-.5.8,0,1.6.3,2.3.8.6.6,1,1.4,1,2.2,0,.5,0,1.1-.4,1.5-.3.5-.7,1-1.1,1.5l-1.3,1.3h2.9v2.3h-6.6.1Z"/><path d="m280,348.3v1c0,1.2-.4,2.4-1.3,3.3-.9.9-2.1,1.4-3.4,1.3-1.3,0-2.6-.5-3.6-1.4-.9-.9-1.4-2.2-1.4-3.5,0-1.3.5-2.6,1.4-3.5.9-.9,2.2-1.4,3.5-1.4.8,0,1.7.1,2.4.6.7.4,1.3.9,1.7,1.6l-2,1.2c-.2-.3-.5-.5-.8-.7-.4-.2-.8-.3-1.2-.3-1.4,0-2.5,1.2-2.5,2.6,0,.6.3,1.2.7,1.7.5.5,1.2.8,2,.8.9,0,1.8-.4,2.2-1.2h-2.3v-2.1h4.6Z"/><polygon class="cls-46" points="258 358.4 258 320.4 283.8 320.4 258 358.4"/><circle class="cls-5" cx="134" cy="332.4" r="45"/><path d="m111.5,306.7c2.3,1.9,2.6,5.2.7,7.4-.1.1-.2.2-.3.4-2.1,2.5-5.9,2.8-8.3.6,0,0,0,0,0,0-2.4-2.2-2.6-5.9-.4-8.3,0,0,0,0,0,0,1.3-1.5,3.3-2.2,5.2-1.9l-.5,2.5c-1.1-.2-2.1.3-2.8,1.1-1.2,1.2-1.2,3.2,0,4.5,0,0,.2.2.3.2,1.4,1.3,3.3,1.2,4.8-.4.9-.8,1.2-2.2.6-3.3l-2,2.2-1.7-1.5,3.8-4.2.7.6h0Z"/><path d="m121.7,302.6c1.1,1.9.5,4.4-1.4,5.5,0,0,0,0,0,0-.8.5-1.7.6-2.6.3l1.9,3.5-2.1,1.1-5.3-9.9,2.1-1.1.4.7c.2-.9.8-1.6,1.6-2,2-1,4.4-.1,5.4,1.9Zm-2.1,1.1c-.4-.9-1.5-1.3-2.4-.9,0,0-.1,0-.2.1-.9.4-1.3,1.6-.9,2.5,0,0,0,0,0,.1.4.9,1.5,1.3,2.4.9,0,0,.1,0,.2-.1.9-.4,1.3-1.6.9-2.5,0,0,0,0,0-.1h0Z"/><path d="m130.7,299.6l1,4.8-2.3.5-.9-4.5c0-.7-.7-1.2-1.4-1.2-.1,0-.2,0-.3,0-.7,0-1.3.8-1.2,1.5,0,.1,0,.3.1.4l.9,4.3-2.4.5-2.3-11,2.3-.5.8,3.9c.4-.8,1.1-1.3,2-1.4,1.6-.3,3.2.7,3.6,2.3,0,0,0,.2,0,.3h0Z"/><path d="m132.5,300.4c.2-2.3,2.2-4.1,4.6-3.9s4.1,2.2,3.9,4.6-2.2,4.1-4.6,3.9-4.1-2.2-3.9-4.6Zm6.1.5c.1-1-.6-1.9-1.6-2,0,0,0,0,0,0-1,0-1.9.7-2,1.7-.1,1,.6,1.9,1.6,2,0,0,0,0,0,0,1,0,1.9-.7,2-1.7Z"/><path d="m150.2,303.4l-1.7,4.6-2.2-.9,1.6-4.3c.4-.6.1-1.4-.5-1.8,0,0-.2,0-.3-.1-.8-.3-1.6,0-1.9.8,0,0,0,.1,0,.2l-1.6,4.1-2.2-.9,2.8-7.5,2.2.9-.3.7c.8-.5,1.7-.5,2.5,0,1.5.6,2.4,2.1,1.6,4.2h0Z"/><path d="m153.6,309.3c.5.4,1,.5,1.6.4l.9,2c-2.4.6-4.8-.9-5.4-3.3-.3-1.2,0-2.5.6-3.5,1.3-1.8,3.8-2.3,5.7-1,0,0,.2.1.2.2,1.8,1.3,2.2,3.8.9,5.6,0,0-.1.1-.2.2-.2.3-.4.5-.7.7l-4.5-3.4c-.2.8.2,1.6.9,2h0Zm2.9-1.5c.4-.7,0-1.6-.6-2-.6-.6-1.6-.6-2.2,0l2.8,2.1h0Z"/><path d="m170.1,314.3l-9.4,6-1.4-2.2,7.2-4.6-1.5-1.4,1.5-1.7,2.5,1.9,1.2,1.9h-.1Z"/><path class="cls-30" d="m144,310.5c-6.6-1.4-13.4-1.4-20,0-2.3.4-4,2.2-4.3,4.5-2.5,19.9-1.6,30.9,1.8,51,.5,2.7,2.3,5.2,4,5.5,5.6,1.1,11.5,1.1,17.1,0,1.7-.3,3.5-2.9,4-5.5,3.4-20.1,4.3-31.1,1.8-51-.3-2.3-2-4.1-4.3-4.5h-.1Z"/><path class="cls-37" d="m126.6,338.4c4.8,1.5,10,1.5,14.8,0,1-.3,1-.7-.1-.7h-14.6c-1.1,0-1.2.4,0,.7Z"/><path class="cls-20" d="m141.8,318h-15.5c-1.7.1-2.9,1.6-2.8,3.3,0,0,0,0,0,0v10.6c0,1.7,1.1,3.1,2.8,3.3h15.5c1.7-.1,2.9-1.6,2.8-3.3,0,0,0,0,0,0v-10.6c0-1.7-1.1-3.1-2.8-3.3Z"/><path class="cls-10" d="m129.2,345.8c0,.6-.4,1.1-1,1-1.3-.2-2.6-.5-3.8-.8-.6-.2-1-.8-1-1.4,0-1.2,0-2.5-.1-3.7,0-.5.3-.9.7-.9,0,0,.2,0,.3,0,1.3.3,2.6.6,3.9.8.6,0,1,.7,1,1.3v3.7Z"/><path class="cls-10" d="m137,346c0,.6-.4,1.1-1,1.2h-3.9c-.6,0-1-.6-1-1.2v-3.7c0-.6.4-1,1-1.1h3.9c.6,0,1,.4,1,1,0,0,0,0,0,.1v3.7Z"/><path class="cls-10" d="m144.7,344.6c0,.6-.4,1.2-1,1.4-1.3.3-2.6.6-3.8.8-.5,0-1-.4-1-.9,0,0,0,0,0-.1v-3.7c0-.6.4-1.1,1-1.3,1.3-.2,2.6-.5,3.9-.8.6-.1,1,.2,1,.9,0,1.2,0,2.5,0,3.7Z"/><path class="cls-10" d="m129.3,353.3c0,.6-.4,1.1-1,1-1.3-.2-2.6-.4-3.8-.8-.6-.2-1-.8-1-1.4,0-1.2,0-2.5-.1-3.7,0-.5.3-.9.7-.9,0,0,.2,0,.3,0,1.3.3,2.5.6,3.8.8.6,0,1,.7,1,1.3v3.7h.1Z"/><path class="cls-10" d="m136.9,353.5c0,.6-.4,1.1-1,1.2h-3.8c-.6,0-1-.6-1-1.2v-3.7c0-.5.3-1,.9-1.1,0,0,0,0,.1,0h3.9c.6,0,1,.4,1,1,0,0,0,0,0,.1v3.7h-.1Z"/><path class="cls-10" d="m144.5,352.2c0,.6-.4,1.2-1,1.4-1.2.3-2.5.6-3.8.8-.6,0-1-.4-1-1v-3.7c0-.6.4-1.1,1-1.3,1.3-.2,2.6-.4,3.8-.8.4,0,.9.2,1,.6,0,0,0,.2,0,.3,0,1.2,0,2.5-.1,3.7h.1Z"/><path class="cls-10" d="m129.4,360.9c0,.6-.4,1.1-1,1-1.2-.2-2.5-.4-3.7-.7-.6-.2-1-.8-1-1.4,0-1.2,0-2.5-.1-3.7,0-.6.4-1,.9-.9,1.2.3,2.5.6,3.7.8.5,0,1,.7,1,1.3v3.7h.2Z"/><path class="cls-10" d="m136.9,361c0,.6-.4,1.1-1,1.2h-3.7c-.6,0-1-.6-1-1.2v-3.7c0-.5.3-1,.9-1.1,0,0,0,0,.1,0h3.8c.6,0,1,.5,1,1.1v3.7h-.1Z"/><path class="cls-10" d="m144.3,359.7c0,.6-.4,1.2-1,1.4-1.2.3-2.4.6-3.7.7-.6,0-1-.4-1-1v-3.7c0-.6.4-1.1,1-1.3,1.3-.2,2.5-.4,3.7-.8.4,0,.8.2.9.6,0,.1,0,.2,0,.3,0,1.2,0,2.5-.1,3.7h.2Z"/><path class="cls-10" d="m136.8,368.6c0,.6-.4,1.1-1,1.2h-3.6c-.6,0-1-.6-1-1.2v-3.7c0-.5.3-1,.9-1.1,0,0,0,0,.1,0h3.7c.6,0,1,.5,1,1.1v3.7h0Z"/><path class="cls-37" d="m132.9,316.2c0,.2-.2.5-.4.5h0c-.2,0-.4-.3-.4-.5v-4c0-.2.2-.5.4-.5h0c.2,0,.4.3.4.5v4Z"/><path class="cls-37" d="m134.5,316.2c0,.2-.2.5-.4.5h0c-.2,0-.4-.3-.4-.5v-4c0-.2.2-.5.4-.5h0c.2,0,.4.3.4.5v4Z"/><path class="cls-37" d="m136.1,316.2c0,.2-.2.5-.4.5h0c-.2,0-.4-.3-.4-.5v-4c0-.2.2-.5.4-.5h0c.2,0,.4.3.4.5v4Z"/><path class="cls-10" d="m136.9,331.8h-.6c-.4,0-.9-.2-1.3-.2-.5,0-1-.2-1.5-.3-.6,0-1.2-.2-1.8-.4h-.3c-.2,0-.3-.3-.2-.5,0-.3.2-.6.4-.8.2-.5.4-.9.6-1.4.2-.3.3-.6.5-.9.3-.4.9-.6,1.3-.3,0,0,.1.1.2.2.2.2.3.4.4.6.3.5.6.9.9,1.4.5.8,1,1.5,1.4,2.3,0,0,0,.1.1.2,0,.2,0,.4-.3.4l.2-.3Z"/><path class="cls-42" d="m144.7,367.3c-.2,0-.4,0-.6.2-.5.1-.9.3-1.4.4s-1.1.3-1.7.5-1.3.4-2,.6h-.3c-.3,0-.4-.1-.4-.4v-3.9c.1-.6.7-1,1.3-.9,0,0,.1,0,.2,0,.3,0,.5.1.7.3.5.3,1.1.6,1.6.9.9.5,1.7,1,2.6,1.5.1,0,.2,0,.2.2.2.2.2.4,0,.5h-.2Z"/><path class="cls-8" d="m123.3,367.3c.2,0,.4,0,.6.2.5.1.9.3,1.4.4s1.1.3,1.7.5,1.3.4,2,.6h.3c.3,0,.4-.1.4-.4v-3.9c-.1-.6-.7-1-1.3-.9,0,0-.1,0-.2,0-.3,0-.5.1-.7.3-.5.3-1.1.6-1.6.9-.9.5-1.7,1-2.6,1.5-.1,0-.2,0-.2.2-.2.2-.2.4,0,.5h.2Z"/><path class="cls-10" d="m138,321h.2c.2,0,.3.1.2.3s-.2.2-.2.4c-.5.7-1.1,1.4-1.6,2.1l-1.5,1.8c-.2.3-.6.5-.9.6-.4.1-.9,0-1.2-.3-.2-.2-.4-.4-.5-.6-.5-.7-1-1.5-1.4-2.2-.2-.3-.4-.7-.6-1h0c-.1-.3,0-.4.2-.4,1,0,2-.1,3-.2.9,0,1.8,0,2.7-.2.6,0,1.3,0,1.9-.1h0l-.3-.2Z"/><line class="cls-10" x1="169.6" y1="258" x2="147.4" y2="282.2"/><line class="cls-6" x1="169.6" y1="258" x2="154.7" y2="274.2"/><polygon class="cls-47" points="150.7 267.6 147.4 282.2 161.7 277.7 150.7 267.6"/><line class="cls-10" x1="230.4" y1="258" x2="252.6" y2="282.2"/><line class="cls-6" x1="230.4" y1="258" x2="245.3" y2="274.2"/><polygon class="cls-47" points="238.3 277.7 252.6 282.2 249.3 267.6 238.3 277.7"/><line class="cls-7" x1="199.8" y1="125.8" x2="200.2" y2="158.6"/><line class="cls-6" x1="199.8" y1="125.8" x2="200.1" y2="147.8"/><polygon class="cls-47" points="192.6 145.8 200.2 158.6 207.5 145.5 192.6 145.8"/><line class="cls-7" x1="112.2" y1="121.6" x2="160.8" y2="160.9"/><line class="cls-6" x1="112.2" y1="121.6" x2="152.4" y2="154.1"/><polygon class="cls-47" points="146.1 158.5 160.8 160.9 155.4 146.9 146.1 158.5"/><line class="cls-7" x1="287.8" y1="121.6" x2="239.2" y2="160.9"/><line class="cls-6" x1="287.8" y1="121.6" x2="247.6" y2="154.1"/><polygon class="cls-47" points="244.6 146.9 239.2 160.9 253.9 158.5 244.6 146.9"/><circle class="cls-4" cx="200" cy="209.9" r="45"/><path d="m165.3,206.4c-2.3-.4-3.9-2.6-3.5-4.9,0-.1,0-.2,0-.4.3-1.5,1.3-2.7,2.7-3.2l.6,1.9c-.8.3-1.3.9-1.5,1.7-.3,1.3.4,2.6,1.7,2.9,0,0,.2,0,.3,0,1.2.4,2.6-.3,2.9-1.6,0-.1,0-.2,0-.3.2-.8,0-1.6-.6-2.2l1.3-1.4c1,1.1,1.5,2.6,1.2,4-.5,2.4-2.8,3.9-5.2,3.4,0,0,0,0-.1,0Z"/><path d="m168.7,197.9c-1.6-.8-2.2-2.8-1.4-4.4,0,0,0,0,0,0,.8-1.6,2.7-2.3,4.3-1.5,0,0,0,0,0,0,1.6.8,2.2,2.8,1.4,4.4,0,0,0,0,0,0-.8,1.6-2.7,2.3-4.3,1.5,0,0,0,0,0,0Zm2.1-4.2c-.7-.4-1.5,0-1.9.6,0,0,0,0,0,0-.4.6-.1,1.5.5,1.8,0,0,.1,0,.2,0,.7.4,1.5,0,1.9-.6,0,0,0,0,0,0,.4-.6.1-1.5-.5-1.8,0,0-.1,0-.2,0h0Z"/><path d="m177.9,183.6l2.8,2.5-1.2,1.4-2.7-2.4c-.5-.4-.9-.5-1.3,0-.4.4-.3,1,0,1.4,0,0,0,0,.1,0l2.6,2.3-1.2,1.4-2.7-2.4c-.5-.4-.9-.5-1.3,0-.4.4-.3,1,0,1.4,0,0,0,0,.1,0l2.6,2.3-1.2,1.4-4.5-4.1,1.2-1.4.4.4c-.1-.6.1-1.3.6-1.7.4-.5,1.1-.7,1.7-.6-.1-.7.1-1.4.6-1.9.9-.9,2.3-1,3.2-.2,0,0,.1,0,.2.2l-.2-.2Z"/><path d="m183,177.5l3.3,5.2-1.6,1-.3-.5c0,.7-.5,1.3-1.1,1.6-1,.7-2.5.4-3.1-.6,0,0-.1-.2-.2-.3l-2-3.2,1.6-1,1.9,3c.3.5.9.7,1.4.4,0,0,0,0,0,0,.6-.4.8-.9.3-1.7l-1.8-2.8,1.6-1h0Z"/><path d="m191.4,176.8l1.3,3.5-1.7.6-1.2-3.3c-.1-.5-.6-.9-1.2-.8,0,0-.1,0-.2,0-.6.2-.9.9-.7,1.6,0,0,0,0,0,0l1.1,3.2-1.7.6-2.1-5.8,1.7-.6.2.5c.3-.6.8-1.1,1.4-1.3,1.1-.5,2.4.1,2.9,1.3,0,.1,0,.2.1.3h0Z"/><path d="m192,172.6c-.1-.6.3-1.2.9-1.3.6-.1,1.2.3,1.3.9.1.6-.3,1.2-.9,1.3,0,0,0,0,0,0-.6.1-1.2-.3-1.3-.9Zm.5,1.6l1.8-.3,1.1,6-1.8.3-1.1-6Z"/><path d="m196.1,176.6c0-1.7,1.3-3.2,3-3.3,0,0,0,0,0,0,1.1,0,2.2.5,2.8,1.5l-1.6,1c-.2-.4-.7-.7-1.2-.7-.7,0-1.3.5-1.3,1.2,0,0,0,.2,0,.3,0,.8.6,1.4,1.3,1.4,0,0,0,0,0,0,.5,0,1-.3,1.2-.7l1.6.9c-.5,1-1.6,1.7-2.7,1.7-1.7.1-3.2-1.2-3.3-2.9,0,0,0-.1,0-.2v-.2Z"/><path d="m209.7,174.6l-1.1,6-1.8-.3v-.6c-.5.5-1.2.6-1.8.4-1.7-.4-2.7-2-2.3-3.7,0,0,0,0,0,0,.2-1.7,1.8-2.9,3.5-2.7.7,0,1.3.5,1.7,1.1v-.6c.1,0,1.9.3,1.9.3h0Zm-2.4,2.7c.2-.7-.2-1.4-.9-1.6-.1,0-.2,0-.3,0-.7-.2-1.5.3-1.7,1,0,0,0,.1,0,.2-.2.7.2,1.4.9,1.6.1,0,.2,0,.3,0,.7.2,1.5-.3,1.7-1,0,0,0-.1,0-.2h0Z"/><path d="m213.2,177.8l-.8,2c-.2.5.2.7,1,1l-.6,1.6c-2.3-.6-2.7-1.6-2.1-3.2l.8-2-.9-.4.6-1.6.9.4.4-1.1,1.9.2-.6,1.6,1.2.5-.6,1.6-1.2-.5h0Z"/><path d="m216.4,177.2l1.6.9-2.9,5.4-1.6-.9,2.9-5.4Zm.6-1.5c.3-.6.9-.8,1.5-.5.6.3.8.9.5,1.5-.3.6-.9.8-1.5.5,0,0,0,0,0,0-.5-.3-.7-.9-.5-1.5h0Z"/><path d="m217.7,181.4c1.1-1.4,3.1-1.7,4.5-.6,1.4,1.1,1.7,3.1.6,4.5h0c-1,1.4-3,1.7-4.4.7,0,0,0,0-.1-.1-1.4-1.1-1.7-3.1-.6-4.5,0,0,0,0,0,0Zm3.7,2.8c.5-.6.4-1.5-.2-2h0c-.6-.5-1.4-.4-1.9.2,0,0,0,0,0,.1-.5.6-.4,1.5.2,2h0c.6.5,1.4.4,1.9-.2,0,0,0,0,0-.1h0Z"/><path d="m228.1,190.2l-2.9,2.4-1.2-1.4,2.7-2.2c.5-.3.6-.9.3-1.4,0,0,0,0,0-.1-.4-.5-1-.6-1.7,0l-2.6,2.1-1.2-1.4,4.7-3.9,1.2,1.4-.4.4c.7,0,1.3.3,1.7.9.8,1,.7,2.4-.3,3.2,0,0-.2.1-.2.2v-.2Z"/><path d="m226.7,192.5l4,1.2c.6.3,1.2.3,1.8,0,.4-.2.6-.7.4-1.2,0,0,0,0,0,0-.3-.5-.8-.7-1.4-.7v-1.9c1.3-.1,2.5.5,3.1,1.7.8,1.2.4,2.9-.8,3.6,0,0-.2.1-.3.2-.9.5-2.1.5-3,0l-1.9-.6,1.3,2.5-1.7.9-2.7-5.2,1.3-.7v.2Z"/><path d="m234.5,206c-2.2.6-4.4-.7-5-2.8,0,0,0-.2,0-.3-.7-2.4.7-4.9,3.1-5.6,0,0,0,0,0,0,2.4-.6,4.8.8,5.4,3.2,0,0,0,0,0,.1.4,1.4,0,3-1,4.1l-1.3-1.4c.5-.6.7-1.5.5-2.3-.3-1.3-1.5-2.1-2.8-1.9,0,0-.2,0-.3,0-1.3.3-2.2,1.6-1.9,2.9,0,0,0,.2,0,.3.1.9.9,1.7,1.8,1.8l-.5-2.2,1.7-.4,1,4.2-.7.2h0Z"/><path class="cls-28" d="m212.8,197.9c-8.5-.2-17.8-.2-26.3,0-14.8,1.9-22,20.9-11.6,31.8,2.2,3.3-1.6,9.5,2.3,11.8,3.3,1,5.2-3.4,7.4-5.1,9.2-1,20.3.5,29.8-.5,22.1-2.9,20.7-37.2-1.6-38.2v.2Z"/><path d="m184,225.7v-3.3l5.9-6.2c.5-.5.9-1,1.3-1.6.3-.3.4-.8.4-1.2,0-.4-.1-.8-.4-1.1-.3-.3-.8-.4-1.2-.4-1.1,0-2.1.8-2.4,1.9l-3.9-2.2c.5-1.3,1.4-2.3,2.5-3.1,1.1-.7,2.4-1,3.7-1,1.6,0,3.1.5,4.4,1.5,1.2,1,1.9,2.5,1.8,4.1.1,1-.1,2-.7,2.9-.6,1-1.3,1.9-2.1,2.8l-2.4,2.5h5.6v4.4h-12.5Z"/><path d="m215.8,215.5v1.8c0,2.4-.8,4.7-2.5,6.4-1.7,1.6-4,2.5-6.4,2.4-2.6,0-5-.9-6.9-2.7-3.6-3.6-3.7-9.5,0-13.2,1.8-1.8,4.2-2.8,6.6-2.7,1.6-.1,3.2.3,4.6,1.1,1.4.6,2.5,1.7,3.2,3l-3.9,2.2c-.4-.6-.9-1-1.6-1.3-.7-.3-1.5-.5-2.3-.5-2.6,0-4.8,2-4.9,4.7,0,0,0,.2,0,.2,0,1.3.4,2.6,1.3,3.5,1,1,2.4,1.5,3.8,1.4,1.7,0,3.3-.8,4.1-2.3h-4.3v-3.9h9.2Z"/><path class="cls-32" d="m90.6,47.6c3.2-.1,6.3,1,8.7,3.2.6.4.7,1.2.3,1.8-.4.5-1.1.5-1.8,0-1.8-1.8-4.3-2.7-6.8-2.6-2.1,0-4.1.9-5.7,2.3-.2.2-.4.4-.6.5-.5.4-1.2.3-1.6-.2,0,0,0,0,0,0-.4-.4-.4-1.1,0-1.5.6-.6,1.3-1.2,2.1-1.6,1.6-1.1,3.5-1.7,5.5-1.8h0Z"/><path class="cls-11" d="m91.1,51.8c2.2,0,4.3.8,5.9,2.3.7.6.8,1.3.3,1.8-.5.5-1.3.5-1.8,0,0,0,0,0,0,0-2.4-2.2-6-2.2-8.4,0-.7.6-1.3.6-1.8,0s-.4-1.2.2-1.8c1.5-1.4,3.5-2.2,5.6-2.3h0Z"/><path class="cls-11" d="m91.2,56c1.3,0,2.6.5,3.6,1.4.5.4.6,1.1.3,1.6h0c-.4.5-1.1.6-1.6.2,0,0,0,0,0,0h0c-1.2-1.1-2.9-1.1-4.1,0-.3.4-1,.5-1.4.2,0,0-.1-.1-.2-.2h0c-.4-.6-.3-1.4.2-1.8,0,0,0,0,0,0h0c.9-.9,2.2-1.4,3.5-1.4h-.3Z"/><path class="cls-28" d="m111.8,81c-1.5-5.3,3.3-16.5-4.9-17.2h-31c-8.7.2-3.9,11.8-5.4,17.2v6.7c1.5,5.3-3.2,16.1,4.6,17.2h32c7.9-1,3.2-12,4.7-17.2v-6.7Z"/><circle class="cls-3" cx="91.2" cy="68.6" r="45"/><path d="m67.5,51l-1.2,2.2-5.7-3.2,2.7,4.8v.3l-5.7.2,5.7,3.2-1.2,2.2-9.8-5.5,1.2-2.2,5.8-.2-2.9-5.1,1.2-2.2,9.8,5.5h0Z"/><path d="m65.3,47.8c-1.6-1.7-1.4-4.4.3-5.9,0,0,0,0,.1,0,1.8-1.5,4.4-1.4,6,.4,1.5,1.8,1.4,4.5-.4,6s-4.5,1.4-6-.4h0Zm4.6-4c-.7-.7-1.8-.7-2.6,0-.7.7-.7,1.8,0,2.6.7.7,1.8.7,2.5,0,.7-.6.9-1.7.3-2.4,0,0-.1-.1-.2-.2Z"/><path d="m77.7,31.3l4.6,10.2-2.2,1-.3-.7c-.3.9-.9,1.6-1.8,1.9-2,.8-4.3,0-5.1-2,0,0,0-.2-.1-.3-1-1.9-.3-4.3,1.6-5.3,0,0,0,0,.1,0,.8-.4,1.8-.4,2.6,0l-1.6-3.6,2.2-1Zm.8,7.5c-.5-.9-1.6-1.3-2.5-.8-.9.5-1.3,1.6-.8,2.5.5.9,1.5,1.2,2.4.8.9-.4,1.4-1.5,1-2.5,0,0,0,0,0-.1Z"/><path d="m87.1,38.8c.6,0,1.1-.3,1.4-.8l2.1.8c-.6,1.2-1.8,2-3.2,2.1-2.3.5-4.5-1-4.9-3.2,0-.1,0-.2,0-.4-.4-2.2,1.1-4.4,3.4-4.8,0,0,.2,0,.2,0,2.2-.3,4.2,1.2,4.6,3.3,0,0,0,.2,0,.3v1l-5.6.8c.4.8,1.3,1.1,2.1.8h0Zm1.1-3.1c-.3-.8-1.1-1.2-1.9-1-.8,0-1.5.7-1.6,1.5l3.4-.5h0Z"/><path d="m104.4,37.5l-1,4.8-2.3-.5,1-4.6c.2-.8,0-1.4-.9-1.5s-1.3.3-1.5,1.2l-.9,4.4-2.3-.5,1-4.6c.2-.8,0-1.4-.9-1.5s-1.3.3-1.5,1.2l-.9,4.4-2.3-.5,1.7-7.8,2.3.5-.2.7c.6-.6,1.5-.7,2.3-.5.8.1,1.5.7,1.8,1.5.7-.6,1.6-.8,2.5-.6,1.8.4,2.7,1.9,2.3,3.9h-.2Z"/><path d="m107.1,38l5.2,3.1-1.2,2-5.2-3.1,1.2-2Z"/><path d="m111.2,45.2h5.4c.8,0,1.6-.2,2.2-.7.5-.4.5-1.2,0-1.6,0,0,0,0,0,0-.5-.5-1.3-.7-2-.3l-.6-2.4c1.5-.7,3.3-.3,4.4.9,1.5,1.3,1.6,3.5.4,5,0,0,0,.1-.2.2-1,.9-2.3,1.4-3.7,1.3h-2.6l2.7,2.7-1.7,1.7-5.4-5.4,1.3-1.3h-.2Z"/><path d="m125.5,59.5c-2.5,1.5-5.7.6-7.1-1.8-.1-.2-.2-.4-.3-.6-1.6-2.7-.6-6.3,2.1-7.8,0,0,.2-.1.3-.2,2.8-1.5,6.4-.4,7.9,2.4,0,0,0,0,0,0,1,1.7,1,3.8,0,5.5l-2.1-1.4c.5-.9.5-2.1,0-3-.8-1.6-2.7-2.3-4.3-1.5,0,0-.1,0-.2,0-1.6.8-2.3,2.7-1.5,4.3,0,.1.1.2.2.3.5,1.2,1.7,1.9,2.9,1.7l-1.4-2.7,2-1,2.6,5-.9.4-.2.2Z"/><path d="m73.7,93.4v-3.6l6.5-6.8c.5-.5,1-1.1,1.4-1.7.3-.4.4-.8.4-1.3,0-.4-.2-.9-.5-1.2-.4-.3-.8-.5-1.3-.4-1.2,0-2.3.8-2.6,2l-4.3-2.4c1.1-2.8,3.9-4.6,6.9-4.5,1.8,0,3.5.6,4.8,1.7,1.3,1.1,2.1,2.8,2,4.5.1,1.1-.2,2.2-.8,3.1-.6,1.1-1.4,2.1-2.3,3l-2.7,2.8h6.1v4.8h-13.6Z"/><path d="m108.6,82.2v2c.2,5.1-3.7,9.5-8.8,9.7-.3,0-.6,0-.9,0-2.8,0-5.5-1-7.5-2.9-1.9-1.9-3-4.5-2.9-7.2,0-2.7,1-5.3,2.9-7.3,1.9-2,4.6-3.1,7.3-3,1.8-.2,3.5.3,5,1.2,1.5.8,2.7,1.9,3.6,3.3l-4.2,2.4c-.4-.6-1-1.1-1.7-1.5-.8-.4-1.7-.6-2.6-.6-1.4,0-2.8.5-3.8,1.5-1,1-1.6,2.4-1.5,3.9,0,1.4.5,2.8,1.5,3.8,1.1,1.1,2.6,1.6,4.1,1.6,1.7,0,3.8-.9,4.5-2.6h-4.7v-4.3h9.7Z"/><circle class="cls-2" cx="308.8" cy="68.6" r="45"/><path class="cls-33" d="m298.8,69.2v-7.5c.3-5.5,5-9.7,10.6-9.4,4.4.2,8.1,3.3,9.1,7.6.1.6.2,1.3.2,1.9v7.5h-20,0Zm6.3-13.6c.5,0,.9-.4.9-.9h0c0-.5-.4-.9-.9-.9-.5,0-.9.4-.9.9s.4.9.9.9h0Zm3.6-1.8c-.5,0-.9.4-.9.9,0,.5.4.9.9.9.5,0,.9-.4.9-.9h0c0-.5-.4-.9-.9-.9Zm4.6,1c0-.5-.4-.9-.9-.9h0c-.5,0-.9.4-.9.9,0,.4.3.8.7.9h.2c.5,0,.9-.3.9-.7,0,0,0,0,0,0h0Zm-11.8,2.7c-.5,0-.9.4-.9.9,0,.5.4.9.9.9.5,0,.9-.4.9-.9h0c0-.5-.4-.9-.9-.9Zm4.6.9c0-.5-.4-.9-.9-.9-.5,0-.9.4-.9.9s.4.9.9.9h0c.5,0,.9-.3.9-.7,0,0,0,0,0,0h0Zm2.7-.9c-.5,0-.9.4-.9.9,0,.5.4.9.9.9.5,0,.9-.4.9-.9h0c0-.5-.4-.9-.9-.9Zm4.6.9c0-.5-.4-.9-.9-.9-.5,0-.9.4-.9.9s.4.9.9.9h0c.5,0,.9-.3.9-.7,0,0,0,0,0,0h0Zm2.7-.9c-.5,0-.9.4-.9.9,0,.5.4.9.9.9.5,0,.9-.4.9-.9h0c0-.5-.4-.9-.9-.9Zm-13.6,4.5c0-.5-.3-.9-.7-.9,0,0,0,0,0,0h0c-.5,0-1,.3-1.1.9,0,.5.3,1,.9,1.1.5,0,1-.3,1.1-.9,0,0,0,0,0,0h-.1Zm7.3,3.6c0-.5-.4-.9-.9-.9-.5,0-.9.4-.9.9s.4.9.9.9h0c.5,0,.9-.3.9-.8h0Zm2.7-.9c-.5,0-.9.4-.9.9,0,.5.4.9.9.9.5,0,.9-.4.9-.9h0c0-.5-.4-.9-.9-.9Zm4.5,1c0-.5-.4-.9-.9-.9-.5,0-.9.4-.9.9s.4.9.9.9h0c.5,0,.9-.3,1-.8h-.1Zm-15.4-.9c-.5,0-.9.4-.9.9,0,.5.4.9.9.9.5,0,.9-.4.9-.9h0c0-.5-.4-.9-.9-.9Zm14.5-1.8c.5,0,.9-.4.9-.9,0-.5-.4-.9-.9-.9-.5,0-.9.4-.9.9h0c0,.5.4.9.9.9Zm-2.7-.9c0-.5-.3-1-.9-1.1-.5,0-1,.3-1.1.9,0,.5.3,1,.9,1.1,0,0,0,0,0,0h0c.5,0,.9-.3.9-.7,0,0,0,0,0,0h.1Zm-4.6-.9c-.5,0-.9.4-.9.9,0,.5.4.9.9.9.5,0,.9-.4.9-.9h0c0-.5-.4-.9-.9-.9Zm-2.7.9c0-.5-.4-.9-.9-.9-.5,0-.9.4-.9.9s.4.9.9.9h0c.5,0,.9-.3.9-.7,0,0,0,0,0,0h0Zm0,3.6c0-.5-.4-.9-.9-.9-.5,0-.9.4-.9.9s.4.9.9.9h0c.5,0,.9-.3,1-.8h-.1Z"/><path class="cls-16" d="m298.8,69.2h20.9c1.1,0,.9-.1.9.9v3.6h-23.6v-3.6c0-1-.1-.9.9-.9h.9Z"/><path class="cls-12" d="m323.3,73.7v8.1c0,6.7-4.6,12.5-11.1,14.1-.5.1-1,.2-1.4.3-1.4.2-2.7.2-4.1,0-1.6-.3-3.1-.8-4.6-1.5-4-2.1-6.8-5.9-7.7-10.3-.2-.9-.2-1.7-.2-2.6v-8.1h1.8v8.5c0,.8.1,1.6.3,2.4,1.5,6.8,8.3,11.1,15.1,9.6,2.8-.6,5.2-2.1,7-4.3,1.8-2,2.8-4.6,2.9-7.3.1-3,0-6,0-9h2Z"/><path class="cls-16" d="m311.5,99.2c1.2,0,2.4,0,3.6.3,2,.7,3.5,2.5,3.7,4.7,0,.5-.2.5-.5.5h-18.9c-.5,0-.6-.2-.5-.6.3-2.7,2.6-4.8,5.4-4.9h7.2,0Z"/><path class="cls-9" d="m288.5,59.2c0-2.4.9-4.8,2.4-6.7.5-.6,1-.7,1.4-.3.4.4.4,1,0,1.4-2.7,3.2-2.7,8,0,11.2.4.6.4,1.1,0,1.4-.4.3-1,.2-1.3-.2h0c-1.6-1.9-2.4-4.3-2.4-6.8h-.1Z"/><path class="cls-38" d="m329.1,59.2c0,2.5-.9,4.9-2.4,6.8-.3.5-.8.6-1.3.4h0c-.5-.3-.5-.9,0-1.4,2.7-3.2,2.7-8,0-11.2-.5-.6-.5-1.1,0-1.4.4-.3,1-.2,1.3.2,0,0,0,0,0,.1,1.6,1.9,2.4,4.3,2.4,6.8v-.3Z"/><path class="cls-38" d="m295.3,53.8c.3,0,.6.2.7.5.2.3.2.7,0,1-1.7,2.2-1.8,5.3-.2,7.6,0,.1.1.2.2.3.3.4.3,1,0,1.3-.4.3-.9.3-1.2,0v-.2c-.9-1-1.4-2.2-1.7-3.5-.4-2.3.1-4.6,1.5-6.5.2-.3.5-.5.9-.4h-.1Z"/><path class="cls-38" d="m324.9,59.7c0,1.6-.6,3.2-1.7,4.4-.2.4-.8.5-1.2.3-.4-.2-.5-.8-.3-1.2,0,0,0-.1.1-.2,1.8-2.3,1.8-5.5,0-7.8-.4-.4-.4-.9,0-1.3h.1c.5-.3,1.1-.2,1.4.3,0,0,0,0,0,0,1.2,1.5,1.8,3.5,1.7,5.4h-.1Z"/><path class="cls-16" d="m293.3,73.7v.3c0,.4,0,.6-.6.6h-2.6c-.9,0-.5,0-.5-.4v-4.6c0-.4.2-.4.5-.4h2.5c.5,0,.7.1.6.6v3.9h.1Z"/><path class="cls-16" d="m324.2,70.1v-.3c0-.4.1-.6.6-.6h2.6c.9,0,.5,0,.5.4v4.6c0,.4-.2.4-.5.4h-2.5c-.5,0-.7-.1-.6-.6v-3.9h-.1Z"/><path class="cls-1" d="m293.3,73.7v-3.6h3.6v3.6h-3.6Z"/><path class="cls-1" d="m324.2,70.1v3.6h-3.6v-3.6h3.6Z"/><path class="cls-41" d="m311.5,99.2h-5.4c.2-1,.5-1.9.7-2.8,1.4.2,2.7.2,4.1,0,.2.9.4,1.9.7,2.8h-.1Z"/><path class="cls-18" d="m305.2,55.6c-.5,0-.9-.4-.9-.9,0-.5.4-.9.9-.9.5,0,.9.4.9.9h0c0,.5-.4.9-.9.9Z"/><path class="cls-18" d="m308.8,53.8c.5,0,.9.4.9.9,0,.5-.4.9-.9.9-.5,0-.9-.4-.9-.9h0c0-.5.4-.9.9-.9Z"/><path class="cls-18" d="m313.3,54.7c0,.5-.3.9-.8,1-.5,0-.9-.3-1-.8,0,0,0,0,0,0v-.2c0-.5.4-.9.9-.9h0c.5,0,.9.4.9.9Z"/><path class="cls-18" d="m301.5,57.4c.5,0,.9.4.9.9,0,.5-.4.9-.9.9-.5,0-.9-.4-.9-.9h0c0-.5.4-.9.9-.9Z"/><path class="cls-18" d="m306.1,58.3c0,.5-.4.9-.9.9-.5,0-.9-.4-.9-.9s.4-.9.9-.9h0c.5,0,.9.4.9.9Z"/><path class="cls-18" d="m308.8,57.4c.5,0,.9.4.9.9,0,.5-.4.9-.9.9-.5,0-.9-.4-.9-.9h0c0-.5.4-.9.9-.9Z"/><path class="cls-18" d="m313.3,58.3c0,.5-.4.9-.9.9-.5,0-.9-.4-.9-.9s.4-.9.9-.9h0c.5,0,.9.4.9.9Z"/><path class="cls-18" d="m316,57.4c.5,0,.9.4.9.9,0,.5-.4.9-.9.9-.5,0-.9-.4-.9-.9h0c0-.5.4-.9.9-.9Z"/><path class="cls-18" d="m302.4,62c0,.5-.4.9-.9.9-.5,0-.9-.4-.9-.9s.4-.9.9-.9h0c.5,0,.9.4.9.9Z"/><path class="cls-18" d="m309.7,65.5c0,.5-.4.9-.9.9-.5,0-.9-.4-.9-.9s.4-.9.9-.9h0c.5,0,.9.4.9.9Z"/><path class="cls-18" d="m312.4,64.7c.5,0,.9.4.9.9,0,.5-.4.9-.9.9-.5,0-.9-.4-.9-.9h0c0-.5.4-.9.9-.9Z"/><path class="cls-18" d="m317,65.6c0,.5-.4.9-.9.9-.5,0-.9-.4-.9-.9s.4-.9.9-.9h0c.5,0,.9.4.9.9Z"/><path class="cls-18" d="m301.5,64.7c.5,0,.9.4.9.9,0,.5-.4.9-.9.9-.5,0-.9-.4-.9-.9h0c0-.5.4-.9.9-.9Z"/><path class="cls-18" d="m316,62.8c-.5,0-.9-.5-.8-1,0-.4.4-.7.8-.8.5-.1,1,.2,1.1.7s-.2,1-.7,1.1c0,0-.1,0-.2,0h-.2Z"/><path class="cls-18" d="m313.3,61.9c0,.5-.4.9-.9.9-.5,0-.9-.4-.9-.9s.4-.9.9-.9h0c.5,0,.9.4.9.9Z"/><path class="cls-18" d="m308.8,61c.5,0,.9.4.9.9,0,.5-.4.9-.9.9-.5,0-.9-.4-.9-.9h0c0-.5.4-.9.9-.9Z"/><path class="cls-18" d="m306.1,61.9c0,.5-.4.9-.9.9-.5,0-.9-.4-.9-.9s.4-.9.9-.9h0c.5,0,.9.4.9.9Z"/><path class="cls-18" d="m306.1,65.6c0,.5-.4.9-.9.9h0c-.5-.2-.8-.8-.6-1.3.1-.3.4-.5.7-.6.5,0,.9.4.9.9h-.1Z"/><path class="cls-29" d="m298.8,75.5v-1.8h19.9v1.8h-19.9Z"/><path class="cls-40" d="m318.8,81.9c-.6,5.5-5.5,9.5-10.9,9-4.7-.5-8.5-4.2-9-9h19.9Zm-6.2,6.1c.1,0,.2,0,.3-.1.9-.6,1.7-1.4,2.2-2.4.2-.4,0-.8-.3-1.1h0c-.4-.3-.9-.2-1.2.1,0,0,0,0,0,0-.5.7-1,1.3-1.7,1.8-.3.2-.4.7-.2,1,.1.4.4.5,1,.6h0Zm-3.2-.7h-.7c-.5,0-.8.5-.8,1,0,.4.4.7.8.8h0c.5,0,.9,0,1.4-.1.3-.1.6-.4.6-.8,0-.3-.2-.7-.5-.8-.2,0-.5,0-.7,0h0Z"/><path class="cls-16" d="m318.8,81.9h-19.9v-4.6h19.9v4.6Z"/><path class="cls-35" d="m318.8,77.4h-19.9v-1.8h19.9v1.8Z"/><path class="cls-34" d="m312.6,88c-.4,0-.8-.2-1-.6-.2-.3,0-.7.2-1,.7-.5,1.2-1.1,1.7-1.8.3-.4.8-.5,1.1-.2,0,0,0,0,0,0,.4.2.6.7.4,1.1h0c-.5,1-1.3,1.8-2.2,2.4,0,0-.2,0-.3.1Z"/><path class="cls-34" d="m309.4,87.4h.7c.3.2.5.5.5.8,0,.4-.2.7-.6.8-.4.2-.9.2-1.4.1-.5,0-.8-.4-.8-.8,0,0,0,0,0,0h0c0-.5.3-.9.7-.9,0,0,0,0,0,0h.8Z"/><path d="m284.3,53.7l-1.1,2.5-6.4-2.7,3.4,4.8v.3c-.1,0-6,.8-6,.8l6.4,2.7-1.1,2.5-10.9-4.7,1.1-2.5,6.1-.9-3.6-5.1,1.1-2.5,10.9,4.7h.1Z"/><path d="m276.9,46.4c-.7-.6-.8-1.5-.2-2.2.6-.7,1.5-.8,2.2-.2h0c.7.6.7,1.5.2,2.2-.6.6-1.5.7-2.2.2Zm1.9,1.2l1.6-2,6.6,5.4-1.6,2-6.6-5.4Z"/><path d="m284.8,46.9c-1.6-1.8-1.4-4.6.4-6.2,0,0,.1,0,.2-.1,1.2-1,2.9-1.3,4.4-.7l-.9,2.4c-.6-.3-1.4-.2-1.9.3-.8.6-1,1.6-.4,2.4,0,0,.1.2.2.3.7.8,1.9,1,2.7.3.5-.4.8-1.1.7-1.8l2.5-.4c.3,1.6-.3,3.1-1.6,4.1-1.9,1.6-4.7,1.3-6.3-.6,0,0,0,0,0,0Z"/><path d="m295.3,34.8l1.3,2.6c-1.1.2-1.8,1.2-1.6,2.3,0,.2.1.4.2.6l1.7,3.4-2.3,1.1-3.7-7.6,2.3-1.1.7,1.4c-.1-1.1.5-2.2,1.5-2.6h-.1Z"/><path d="m298,38.3c-.5-2.4,1-4.8,3.4-5.4,2.4-.6,4.8.9,5.4,3.3,0,0,0,0,0,.1.6,2.4-1,4.8-3.4,5.4-2.4.6-4.8-1-5.4-3.4Zm6.3-1.4c-.2-1-1.1-1.7-2.1-1.5,0,0-.1,0-.2,0-1.1.2-1.7,1.2-1.5,2.3,0,0,0,0,0,.1.2,1,1.1,1.7,2.1,1.5,0,0,.1,0,.2,0,1.1-.2,1.8-1.2,1.6-2.2,0,0,0-.1,0-.2h0Z"/><path d="m317.9,37.2c-.1,2.4-2.1,4.2-4.5,4.1-1,0-1.8-.5-2.4-1.3l-.4,4.2-2.5-.2,1.1-11.8,2.5.2v.8c.7-.7,1.6-1,2.5-.8,2.3.3,3.9,2.4,3.6,4.7,0,0,0,.1,0,.2h0Zm-2.5-.2c.2-1.1-.6-2.1-1.7-2.3,0,0,0,0-.1,0-1-.2-2,.6-2.2,1.6,0,0,0,.2,0,.3-.2,1.1.6,2.1,1.7,2.3,0,0,0,0,.1,0,1,.2,2-.6,2.2-1.6,0-.1,0-.2,0-.3h0Z"/><path d="m327.6,40.1l-2.1,4.8-2.3-1,1.9-4.5c.4-.7.1-1.5-.5-1.9,0,0-.2,0-.3-.1-.7-.4-1.6-.1-2,.6,0,.1-.1.3-.1.4l-1.8,4.3-2.3-1,4.7-10.9,2.3,1-1.6,3.9c.8-.4,1.8-.4,2.6,0,1.6.7,2.4,2.4,1.5,4.5h0Z"/><path d="m328.8,41.9c1.6-1.9,4.4-2.1,6.3-.5,0,0,0,0,0,0,1.9,1.5,2.2,4.3.6,6.1,0,0,0,.1-.1.2-1.6,1.9-4.4,2.1-6.3.5,0,0,0,0,0,0-1.9-1.5-2.2-4.3-.6-6.1,0,0,0-.1.1-.2Zm4.9,4.2c.7-.7.7-1.9,0-2.6,0,0-.1-.1-.2-.2-.8-.7-2-.6-2.7.1,0,0,0,.1-.1.2-.7.7-.7,1.9,0,2.6,0,0,.1.1.2.2.8.7,2,.6,2.7-.1,0,0,0-.1.1-.2Z"/><path d="m342.1,55.6l-4.4,2.8-1.4-2.2,4.1-2.6c.7-.3,1-1.1.7-1.8,0,0,0-.2-.2-.3-.4-.7-1.3-1-2.1-.6,0,0-.2.1-.2.2l-3.9,2.5-1.4-2.2,7.2-4.5,1.4,2.2-.7.4c.9.1,1.8.7,2.2,1.5.9,1.5.7,3.3-1.3,4.6h0Z"/><path d="m341.2,62.9c.1.6.5,1.1,1.1,1.4l-.6,2.3c-1.3-.6-2.3-1.7-2.7-3.1-.8-2.2.3-4.7,2.5-5.5.2,0,.4-.1.6-.2,2.4-.6,4.8.8,5.4,3.2.6,2.4-.8,4.8-3.1,5.4-.3,0-.7.2-1,.2l-1.6-5.8c-.7.5-1,1.5-.6,2.3v-.2Zm3.4.7c.7-.4,1.1-1.3.8-2.1-.2-.8-.9-1.4-1.8-1.4l1,3.5Z"/><circle class="cls-2" cx="200" cy="68.6" r="45"/><path class="cls-13" d="m178.4,101.3l-1.8-1.8c-.2-.2-.3-.4-.3-.7v-38.2c0-.3,0-.7.3-.9.9-1,1.9-1.9,2.8-2.9.2-.2.4-.3.6-.3h37.8c.2,0,.4,0,.5.2l1.8,1.8v38.7c0,.3-.1.7-.4.9-.8.8-1.6,1.7-2.4,2.5-.2.3-.6.5-1,.5h-37.4c-.2,0-.4,0-.6.1h.1Zm13.7-4.5h2.5v1.9q0,1.1,1.1,1.1c.3,0,.4-.1.4-.4v-2.6h2.5v1.9q0,1.1,1.1,1.1c.3,0,.4-.1.4-.4v-2.6h2.5v1.9q0,1.1,1.1,1.1c.3,0,.4,0,.4-.4v-2.7h2.5v2q0,1.1,1.1,1.1c.4,0,.5-.1.5-.5v-2.6h2.5v1.9q0,1.2,1.2,1.1c.3,0,.4-.1.4-.4v-2.6h2.5v1.9q0,1.2,1.2,1.1c.3,0,.4,0,.4-.4v-2.6c.2,0,.4,0,.4-.3h1.8q1.1,0,1.1-1.1c0-.3-.1-.4-.4-.4h-2.5v-2.5h1.8q1.1,0,1.1-1.1c0-1.1-.1-.5-.4-.5h-2.5v-2.5h1.8c1.3,0,1.1.2,1.1-1.1s0-.4-.4-.4h-2.5v-2.5h1.8c1.3,0,1.1.2,1.1-1.1s-.1-.4-.4-.4h-2.5v-2.5h1.8c1.3,0,1.1.2,1.1-1.1s-.1-.4-.4-.4h-2.5v-2.5h1.8q1.2,0,1.1-1.2c0-.3-.1-.3-.4-.3h-2.6v-2.5h1.8q1.2,0,1.1-1.2c0-.3-.1-.3-.4-.3h-2.6v-2.5h1.8q1.2,0,1.1-1.2c0-.3-.1-.3-.4-.3h-2.6v-2.5h1.8q1.2,0,1.1-1.2c0-.3-.1-.3-.4-.3h-2.6c0-.3-.1-.4-.4-.4v-1.8q0-1.2-1.2-1.1c-.3,0-.3,0-.3.4v2.6h-2.5v-1.8q0-1.2-1.2-1.1c-.3,0-.3,0-.3.4v2.6h-2.5v-1.8q0-1.2-1.2-1.1c-.3,0-.3,0-.3.4v2.6h-2.5v-1.8q0-1.2-1.2-1.1c-.3,0-.3,0-.3.4v2.6h-2.5v-1.8q0-1.2-1.2-1.1c-.3,0-.3,0-.3.4v2.6h-2.5v-1.9q0-1.2-1.2-1.1c-.3,0-.3,0-.3.4v2.6h-2.5v-1.9q0-1.2-1.2-1.1c-.3,0-.3,0-.3.4v2.6h-2.5v-1.9c0-1.2,0-1.1-1.2-1.1s-.3,0-.3.4v2.6h-2.5v-1.9c0-1.2,0-1.1-1.2-1.1s-.3,0-.3.4v2.6h-.6c-.3,0-.4,0-.4.4h-1.2q-1.2,0-1.1,1.2c0,.1,0,.3.2.3,0,0,0,0,0,0h2v2.5h-1.2q-1.2,0-1.1,1.2c0,.1,0,.3.2.3,0,0,0,0,0,0h2v2.5h-1.2q-1.2,0-1.1,1.2c0,.1,0,.3.2.3,0,0,0,0,0,0h2v2.5h-1.2q-1.2,0-1.1,1.2c0,.3.1.3.3.3h2v2.5h-1.2q-1.2,0-1.2,1.2c0,.2,0,.3.3.3h2v2.5h-1.2q-1.2,0-1.2,1.2c0,.3.1.3.4.3h1.9v2.5h-1.2q-1.2,0-1.2,1.2c0,.3.1.3.4.3h1.9v2.5h-1.2q-1.2,0-1.1,1.2c0,.3.1.3.4.3h1.9v2.5h-1.2q-1.2,0-1.1,1.2c0,.3.1.3.4.3h1.9c0,.2,0,.3.3.3h.7v1.9q0,1.2,1.2,1.1c.3,0,.3-.1.3-.4v-2.7h2.5v1.9q0,1.2,1.2,1.1c.3,0,.3-.1.3-.4v-2.7h2.5v1.9q0,1.1,1.1,1.1c.3,0,.4-.1.4-.4v-2.6h.4Z"/><path class="cls-14" d="m178.4,101.3c.2-.2.4-.1.6-.1h37.4c.4,0,.8-.2,1-.5.8-.9,1.6-1.7,2.4-2.5.3-.2.4-.6.4-.9v-38.7c.5.4.9.9,1.4,1.3.2.2.1.4.1.6v38.4c0,.3,0,.6-.3.8-.9.9-1.8,1.9-2.6,2.8-.2.2-.4.3-.6.3h-38c-.2,0-.4,0-.6-.2-.4-.4-.8-.8-1.1-1.2h0Z"/><path class="cls-15" d="m212.1,62.5h2.9v8.7c.1,3.7,0,7.5-.2,11.2-.2,1.7-.5,3.4-1.1,5-.2.6-.5,1.2-.9,1.8v-21.6c0-.5.2-1.1,0-1.3s-.9,0-1.4,0h-25.5c-.4,0-.5,0-.5.5v25.8c0,.4.1.5.5.5h23.1c-.5.2-.9.5-1.4.7-2.5,1-5.2,1.5-7.9,1.5h-18v-32.3c0-.3,0-.4.4-.4h30.1-.1Z"/><path class="cls-19" d="m181.6,95.2h18c2.7,0,5.4-.5,7.9-1.5.5-.2.9-.5,1.4-.7h3.5c.3,0,.4,0,.4-.4v-3.4c.4-.5.7-1.1.9-1.8.6-1.6,1-3.3,1.1-5,.3-3.7.1-7.5.2-11.2v-8.7h1.1c.3,0,.4,0,.4.4v33.5c0,.3-.2.3-.4.3h-34.2c-.2,0-.3,0-.3-.3v-1.2Z"/><path class="cls-31" d="m210.5,96.7h1.5v2.6c0,.3,0,.4-.4.4q-1.2,0-1.2-1.1v-1.9h0Z"/><path class="cls-25" d="m206.5,96.7h1.5v2.6c0,.3,0,.5-.5.5q-1.1,0-1.1-1.1v-1.9h.1Z"/><path class="cls-25" d="m214.5,96.7h1.5v2.6c0,.3,0,.4-.4.4q-1.2,0-1.2-1.1v-1.9h0Z"/><path class="cls-25" d="m208.1,62.5h-1.5v-2.6c0-.2,0-.4.3-.4q1.2,0,1.2,1.1v1.9Z"/><path class="cls-31" d="m212.1,62.5h-1.5v-2.6c0-.2,0-.3.3-.4q1.2,0,1.2,1.1v1.9Z"/><path class="cls-25" d="m216.1,62.5h-1.5v-2.6c0-.2,0-.3.3-.4q1.2,0,1.2,1.1v1.9Z"/><path class="cls-25" d="m216.5,88.4v-1.5h2.5c.3,0,.4.1.4.4,0,1.4.2,1.1-1.1,1.1h-1.8Z"/><path class="cls-25" d="m216.5,80.4v-1.5h2.5c.3,0,.4.1.4.4,0,1.4.2,1.1-1.1,1.1h-1.8Z"/><path class="cls-25" d="m216.5,84.4v-1.5h2.5c.3,0,.4.1.4.4,0,1.4.2,1.1-1.1,1.1h-1.8Z"/><path class="cls-25" d="m216.5,92.4v-1.5h2.5c.3,0,.4.1.4.5q0,1.1-1.1,1.1h-1.8,0Z"/><path class="cls-48" d="m182.6,96.7h1.5v2.7c0,.2,0,.4-.3.4q-1.2,0-1.2-1.1v-2h0Z"/><path class="cls-48" d="m186.6,96.7h1.5v2.7c0,.2,0,.4-.3.4q-1.2,0-1.2-1.1v-2h0Z"/><path class="cls-48" d="m194.6,96.7h1.5v2.6c0,.3,0,.4-.4.4q-1.1,0-1.1-1.1v-1.9Z"/><path class="cls-25" d="m198.5,96.7h1.5v2.6c0,.3,0,.4-.4.4q-1.1,0-1.1-1.1v-1.9Z"/><path class="cls-25" d="m202.5,96.7h1.5v2.7c0,.3,0,.4-.4.4q-1.1,0-1.1-1.1v-2h0Z"/><path class="cls-48" d="m190.6,96.7h1.5v2.6c0,.3,0,.4-.4.4q-1.1,0-1.1-1.1v-1.9Z"/><path class="cls-25" d="m216.5,76.4v-1.5h2.6c.2,0,.3,0,.4.3q0,1.2-1.1,1.2h-1.9Z"/><path class="cls-48" d="m216.5,68.4v-1.5h2.6c.2,0,.3,0,.4.3q0,1.2-1.1,1.2h-1.9Z"/><path class="cls-48" d="m216.5,72.4v-1.5h2.6c.2,0,.3,0,.4.3q0,1.2-1.1,1.2h-1.9Z"/><path class="cls-48" d="m216.5,64.4v-1.5h2.6c.2,0,.3,0,.4.3q0,1.2-1.1,1.2h-1.9Z"/><path class="cls-25" d="m204,62.5h-1.5v-2.6c0-.2,0-.4.3-.4q1.2,0,1.2,1.1v1.9Z"/><path class="cls-48" d="m196,62.5h-1.5v-2.6c0-.2,0-.4.3-.4q1.2,0,1.2,1.1v1.9Z"/><path class="cls-25" d="m216.5,96.4v-1.5h2.5c.3,0,.4,0,.4.4q0,1.1-1.1,1.1h-1.8Z"/><path class="cls-48" d="m200,62.5h-1.5v-2.6c0-.2,0-.3.3-.4q1.2,0,1.2,1.1v1.9Z"/><path class="cls-48" d="m192,62.5h-1.5v-2.6c0-.2,0-.4.3-.4q1.2,0,1.2,1.1v1.9Z"/><path class="cls-17" d="m188,62.5h-1.5v-2.6c0-.2,0-.4.3-.4q1.2,0,1.2,1.1v1.9Z"/><path class="cls-17" d="m184,62.5h-1.5v-2.6c0-.2,0-.4.3-.4q1.2,0,1.2,1.1v1.9Z"/><path class="cls-25" d="m181.5,82.9v1.5h-1.9c-.2,0-.4,0-.4-.3q0-1.2,1.2-1.2h1.1,0Z"/><path class="cls-25" d="m181.5,86.9v1.5h-1.9c-.2,0-.4,0-.4-.3q0-1.2,1.2-1.2h1.1,0Z"/><path class="cls-25" d="m181.5,90.9v1.5h-1.9c-.2,0-.4,0-.4-.3q0-1.2,1.1-1.2h1.2Z"/><path class="cls-25" d="m181.5,78.9v1.5c-.7,0-1.3,0-2,0-.2,0-.3,0-.3-.3q0-1.2,1.2-1.2h1.1Z"/><path class="cls-48" d="m181.5,70.9v1.5h-2c-.2,0-.3,0-.3-.3q0-1.2,1.1-1.2h1.2Z"/><path class="cls-48" d="m181.5,66.9v1.5h-2c-.2,0-.3,0-.3-.3q0-1.2,1.1-1.2h1.2Z"/><path class="cls-17" d="m181.5,62.9v1.5h-2c-.2,0-.3,0-.3-.3q0-1.2,1.1-1.2h1.2Z"/><path class="cls-48" d="m181.5,74.9v1.5h-2c-.2,0-.3,0-.3-.3q0-1.2,1.1-1.2h1.2Z"/><path class="cls-25" d="m181.6,95.2v1.2h-2c-.2,0-.3,0-.4-.3q0-1.2,1.1-1.2h1.2v.3h0Z"/><path class="cls-17" d="m185.3,91.5v-24.8c0-.4.1-.5.5-.5h25.5v4.5c0,3.2.1,6.5,0,9.7,0,1.3-.4,2.6-.9,3.8-.7,1.8-1.8,3.4-3.3,4.6-2.3,1.7-5.2,2.6-8.1,2.6h-13.7Zm14.4-5.2h2.2v2.7q0,1.1,1.1,1.1c.3,0,.4-.1.4-.4v-3.4h2.3c.3,0,.4,0,.4-.4v-1.8h2.2q1.1,0,1.1-1.1c0-.3-.1-.4-.4-.4h-2.9v-2.2h2.2q1.1,0,1.1-1.1c0-.3-.1-.4-.4-.4h-2.9v-2.2h2.2q1.1,0,1.1-1.1c0-.3-.1-.4-.4-.4h-2.9v-1.9c0-.3,0-.4-.3-.4h-2.4v-2.6q0-1.1-1.1-1.1c-.3,0-.4,0-.4.4v3.3h-2.2v-2.6q0-1.1-1.1-1.1c-.3,0-.4,0-.4.4v3.3h-2.2v-2.6q0-1.1-1.1-1.1c-.3,0-.4,0-.4.4v3.3h-2.1c-.3,0-.4,0-.4.4v1.9h-2.3q-1.1,0-1.1,1.1c0,.3.1.4.4.4h3.1v2.2h-2.3q-1.1,0-1.1,1.1c0,.3.1.4.4.4h3.1v2.2h-2.3q-1.1,0-1.1,1.1c0,.3.1.4.4.4h3.1v1.9q0,.3.4.3h2.2v2.7q0,1.1,1.1,1.1c.3,0,.4-.1.4-.4v-3.4h2.2v2.7q0,1.1,1.1,1.1c.3,0,.4-.1.4-.4v-3.4h-.4Z"/><path class="cls-21" d="m185.3,91.5h13.6c2.9,0,5.8-.8,8.1-2.6,1.5-1.2,2.7-2.8,3.3-4.6.5-1.2.8-2.5.9-3.8.2-3.2,0-6.5,0-9.7v-4.5c.5,0,1.1-.2,1.4,0s0,.9,0,1.3v25c0,.3,0,.4-.4.4h-26.6c-.4,0-.6,0-.5-.5v-1h.2Z"/><path class="cls-45" d="m191.9,75.2v-1.9c0-.3,0-.4.4-.4h12.2c0,2.4.1,4.8-.1,7.1,0,1.1-.6,2.2-1.4,3v-6.8c0-.3,0-.5-.4-.4h-7.4q-.3,0-.3.3v6.6c0,.4.1.5.5.5h7.4c0,.2-.2.3-.4.4-1,.8-2.3,1.1-3.6,1.1h-6.8v-9.6h-.1Z"/><path class="cls-23" d="m192,84.8h6.8c1.3,0,2.6-.3,3.6-1.1.2,0,.3-.2.4-.4.1,0,.2-.2.3-.3.8-.8,1.3-1.9,1.4-3,.2-2.4,0-4.7.1-7.1h1.2c.3,0,.3.1.3.4v12.6c0,.3-.1.4-.4.4h-13.4c-.3,0-.4,0-.4-.3v-1.2h0Z"/><path class="cls-22" d="m201.9,86.3h1.5v3.4c0,.3,0,.4-.4.4q-1.1,0-1.1-1.1v-2.7Z"/><path class="cls-44" d="m198.2,86.3h1.5v3.4c0,.3,0,.4-.4.4q-1.1,0-1.1-1.1v-2.7Z"/><path class="cls-22" d="m194.5,86.3h1.5v3.4c0,.3,0,.4-.4.4q-1.1,0-1.1-1.1v-2.7Z"/><path class="cls-22" d="m195.9,72.9h-1.5v-3.3c0-.3,0-.4.4-.4q1.1,0,1.1,1.1v2.6Z"/><path class="cls-22" d="m199.7,72.9h-1.5v-3.3c0-.3,0-.4.4-.4q1.1,0,1.1,1.1v2.6Z"/><path class="cls-15" d="m203.4,72.9h-1.5v-3.3c0-.3,0-.4.4-.4q1.1,0,1.1,1.1v2.6Z"/><path class="cls-15" d="m191.9,82.6v1.5h-3.1c-.3,0-.4,0-.4-.4q0-1.1,1.1-1.1h2.4Z"/><path class="cls-15" d="m191.9,78.9v1.5h-3.1c-.3,0-.4,0-.4-.4q0-1.1,1.1-1.1h2.4Z"/><path class="cls-22" d="m191.9,75.2v1.5h-3.1c-.3,0-.4,0-.4-.4q0-1.1,1.1-1.1h2.4Z"/><path class="cls-44" d="m206.1,80.4v-1.5h2.9c.3,0,.4,0,.4.4q0,1.1-1.1,1.1h-2.2Z"/><path class="cls-44" d="m206.1,76.7v-1.5h2.9c.3,0,.4,0,.4.4q0,1.1-1.1,1.1h-2.2Z"/><path class="cls-15" d="m206.1,84.1v-1.5h2.9c.3,0,.4,0,.4.4q0,1.1-1.1,1.1h-2.2Z"/><path class="cls-26" d="m194.9,81.9v-5.6q0-.3.3-.3h6.3v3.1c0,.6-.1,1.1-.5,1.6-.6.8-1.6,1.3-2.6,1.2h-3.5Z"/><path class="cls-27" d="m194.9,81.9h3.6c1,0,2-.4,2.6-1.2.3-.5.5-1,.5-1.6v-3.1h1.1c.4,0,.4.1.4.4v6.8c0,.1-.2.2-.3.3h-7.4c-.4,0-.6,0-.5-.5v-1.1h0Z"/><path d="m175.2,45.6c-2.1-3.1-1.2-7.2,1.8-9.3.1,0,.2-.2.4-.2,1.9-1.3,4.4-1.4,6.5-.4l-1.4,2.7c-1.1-.6-2.5-.5-3.5.2-1.9,1.1-2.6,3.6-1.5,5.5s3.6,2.6,5.5,1.5c1.2-.7,1.9-1.9,2-3.2h3c0,2.3-1.3,4.3-3.2,5.5-3.1,2-7.3,1.2-9.3-1.9,0,0-.1-.2-.2-.3h-.1Z"/><path d="m197.9,37.4l1.1,5.7-2.8.5-1-5.3c0-.8-.7-1.5-1.5-1.5-.1,0-.3,0-.4,0-.9.1-1.6,1-1.5,1.9,0,0,0,.2,0,.3l.9,5.1-2.8.5-2.4-13.1,2.8-.5.9,4.6c.5-.9,1.5-1.5,2.5-1.6,1.9-.4,3.7.7,4.2,3.2h-.1Z"/><path d="m200.7,33.9l2.8.2-.5,9.5-2.8-.2.5-9.5Zm-.1-2.6c0-.9.9-1.7,1.8-1.6.9,0,1.7.9,1.6,1.8,0,.9-.9,1.6-1.8,1.6-.9,0-1.6-.8-1.6-1.8,0,0,0,0,0,0h0Z"/><path d="m215.6,41.9c-.6,2.5-3.2,4.1-5.7,3.4,0,0,0,0-.1,0-1.1-.3-1.9-1-2.4-2l-1.4,4.5-2.7-.9,4-12.7,2.7.9-.3.9c.9-.5,2-.6,3-.3,2.4.8,3.7,3.5,2.9,5.9,0,0,0,.1,0,.2h0Zm-2.7-.9c.4-1.1-.1-2.4-1.2-2.8,0,0-.2,0-.3,0-1.1-.4-2.3.1-2.7,1.2,0,0,0,.2,0,.3-.4,1.1.1,2.4,1.2,2.8,0,0,.2,0,.3,0,1.2.4,2.4-.2,2.9-1.4,0,0,0,0,0-.1h0Z"/><path d="m222.2,48.8c-1.2,1.8-3.3,1.5-5,.3-1.5-.9-2.3-2.5-2.1-4.2l2.8.3c-.2.7,0,1.5.7,1.8.6.4,1,.4,1.2,0,.6-.9-3.5-3.1-1.7-5.8,1.2-1.7,3.2-1.6,4.8-.4,1.3.8,2,2.3,1.9,3.8l-2.7-.3c0-.6,0-1.1-.6-1.4-.4-.3-.8-.3-1,0-.6.9,3.6,3,1.6,5.9h.1Z"/></svg>