<?xml version="1.0" encoding="UTF-8"?><svg id="Layer_1" xmlns="http://www.w3.org/2000/svg" viewBox="0 0 400 400"><defs><style>.cls-1,.cls-2,.cls-3,.cls-4,.cls-5,.cls-6{stroke-miterlimit:10;}.cls-1,.cls-7{fill:#fff;}.cls-1,.cls-6{stroke:#231f20;stroke-width:2px;}.cls-8{fill:#a7a7a7;}.cls-2{stroke:#a5262d;}.cls-2,.cls-3,.cls-4,.cls-5{stroke-width:4px;}.cls-2,.cls-3,.cls-4,.cls-5,.cls-6,.cls-9{fill:none;}.cls-10{fill:#fab644;}.cls-11{fill:#565959;}.cls-12{fill:#72b3e2;}.cls-3{stroke:#0018c6;}.cls-13{fill:#cbcbcb;}.cls-14{fill:#4fb76a;}.cls-15{fill:#349951;}.cls-16{fill:#cfe1ed;}.cls-17{fill:#cacaca;}.cls-18{fill:#143441;}.cls-19{fill:#414343;}.cls-20{fill:#0277b5;}.cls-21{fill:#a7c1e0;}.cls-4{stroke:#c000e2;}.cls-22{fill:#0d202b;}.cls-23{fill:#cbdde9;}.cls-24{fill:#369754;}.cls-25{fill:#163842;}.cls-5{stroke:#00b51e;}.cls-26{fill:#fdd782;}.cls-27{fill:#c69c6d;}.cls-28{fill:#caa158;}.cls-29{fill:#e6e6e6;}.cls-30{fill:#42210b;}.cls-31{fill:#a0280e;}.cls-32{fill:#015078;}.cls-33{fill:#183c43;}.cls-34{fill:#72b2e2;}.cls-35{fill:#6e6f6e;}.cls-36{fill:#0296e4;}.cls-37{fill:#7dcbe5;}.cls-38{fill:#0295e3;}.cls-39{fill:#0276b3;}.cls-40{fill:#ff1d25;}.cls-41{fill:#fab643;}.cls-42{fill:#6a3223;}.cls-43{fill:#0376b4;}.cls-44{fill:#751d0a;}.cls-45{fill:#e5eff1;}.cls-46{fill:#a8a8a8;}.cls-47{fill:#4b87d4;}.cls-48{fill:#69a6fe;}.cls-49{fill:#29abe2;}.cls-50{fill:#754c24;}.cls-51{fill:#cadce8;}.cls-52{fill:#414242;}.cls-53{fill:#51b66c;}.cls-54{fill:#ccf2ff;isolation:isolate;opacity:.5;}.cls-55{fill:#231f20;}.cls-56{fill:#c65d42;}.cls-57{fill:#153642;}.cls-58{fill:#9fddea;}</style></defs><circle class="cls-5" cx="153.2" cy="339.6" r="40.5"/><path d="m133,316.8c2,1.7,2.3,4.7.6,6.7,0,.1-.2.2-.3.3-1.9,2.2-5.3,2.5-7.5.6,0,0,0,0,0,0-2.2-2-2.3-5.3-.4-7.4,0,0,0,0,0,0,1.2-1.3,2.9-2,4.7-1.7l-.5,2.2c-1-.1-1.9.2-2.5,1-1.1,1.1-1.1,2.9,0,4,0,0,.2.1.2.2,1.3,1.2,3,1.1,4.3-.4.9-.7,1.1-2,.5-3l-1.8,2-1.5-1.3,3.4-3.8.6.5h0Z"/><path d="m142.2,313.1c1,1.7.5,3.9-1.2,4.9,0,0,0,0,0,0-.7.4-1.6.5-2.3.3l1.7,3.2-1.9,1-4.8-8.9,1.9-1,.4.6c.2-.8.7-1.4,1.4-1.8,1.8-.9,4,0,4.9,1.7Zm-1.9,1c-.4-.8-1.3-1.2-2.2-.8,0,0-.1,0-.2,0-.8.4-1.2,1.4-.8,2.2,0,0,0,0,0,.1.4.8,1.3,1.2,2.2.8,0,0,.1,0,.2,0,.8-.4,1.2-1.4.8-2.2,0,0,0,0,0-.1h0Z"/><path d="m150.3,310.4l.9,4.3-2.2.5-.8-4c0-.6-.6-1.1-1.2-1.1-.1,0-.2,0-.3,0-.7,0-1.2.7-1.1,1.3,0,.1,0,.2,0,.4l.8,3.9-2.2.5-2.1-9.9,2.1-.5.7,3.5c.4-.7,1-1.2,1.8-1.3,1.5-.3,2.9.6,3.2,2.1,0,0,0,.2,0,.3h.2Z"/><path d="m151.9,311.1c.1-2.1,1.9-3.7,4.1-3.6s3.7,1.9,3.6,4.1-1.9,3.7-4.1,3.6c0,0,0,0,0,0-2.1-.1-3.7-1.9-3.5-4,0,0,0,0,0,0Zm5.5.4c0-.9-.6-1.7-1.5-1.8,0,0,0,0,0,0-.9,0-1.7.6-1.8,1.5,0,.9.6,1.7,1.5,1.8,0,0,0,0,0,0,.9.1,1.7-.5,1.8-1.4,0,0,0-.1,0-.2Z"/><path d="m167.8,313.8l-1.5,4.1-2-.8,1.4-3.9c.3-.6.1-1.3-.5-1.6,0,0-.2,0-.3-.1-.7-.3-1.5,0-1.7.7,0,0,0,.1,0,.2l-1.4,3.7-2-.8,2.5-6.8,2,.8-.3.6c.7-.4,1.6-.4,2.2,0,1.4.5,2.2,1.9,1.4,3.8h0Z"/><path d="m170.9,319.1c.4.3.9.5,1.4.4l.8,1.8c-2.2.5-4.3-.8-4.9-2.9-.3-1.1,0-2.2.5-3.2,1.2-1.7,3.5-2,5.1-.9,0,0,.1.1.2.2,1.6,1.2,2,3.4.8,5,0,0,0,.1-.1.2-.2.3-.4.5-.6.6l-4.1-3.1c-.2.7.1,1.5.8,1.8h0Zm2.6-1.4c.3-.6,0-1.4-.5-1.8-.6-.5-1.4-.5-2,0l2.5,1.9h0Z"/><path d="m180.2,331.2l-.5-.9-1.4.8-1.2-2,1.3-.8-2.3-4,1.8-1.1,7.1-.4,1.3,2.2-7.1.4,1.1,1.8,1.9-1.1,1.2,2-1.9,1.1.5.9-1.8,1.1Z"/><path class="cls-27" d="m143,322.5h20.7c2,0,3.7,1.6,3.7,3.6,0,0,0,0,0,0v44.2c0,2-1.6,3.7-3.6,3.7,0,0,0,0,0,0h-20.7c-2,0-3.7-1.6-3.7-3.6,0,0,0,0,0,0v-44.2c0-2,1.6-3.7,3.6-3.7,0,0,0,0,0,0Z"/><path class="cls-50" d="m163.7,322.5h-20.7c-2,0-3.7,1.6-3.7,3.6,0,0,0,0,0,0v44.2l28.1-44.2c0-2-1.6-3.7-3.6-3.7,0,0,0,0,0,0Z"/><path class="cls-49" d="m165.2,367.5h-23.8c-.8,0-1.5-.7-1.5-1.5,0,0,0,0,0,0v-38.7c0-.9.8-1.7,1.7-1.7h23.6c.8,0,1.5.7,1.5,1.5,0,0,0,0,0,0v38.9c0,.8-.7,1.5-1.5,1.5,0,0,0,0,0,0Z"/><path class="cls-7" d="m156.2,324c0,.3-.3.5-.5.5h-4.8c-.3,0-.5-.3-.5-.5h0c0-.3.3-.5.5-.5h4.8c.3,0,.5.3.5.5Z"/><path class="cls-7" d="m155.2,372.3h-.4c-.3,0-.6,0-.9-.2-.4,0-.7-.2-1.1-.2-.4,0-.9-.1-1.3-.3h-.2c-.2,0-.2-.2-.2-.4,0-.2.1-.4.3-.6.1-.3.3-.7.4-1,0-.2.3-.5.4-.6.2-.3.6-.4.9-.2,0,0,.2.1.2.2,0,0,.2.3.4.5.2.4.4.6.6,1l1.1,1.6v.2c0,.2,0,.3-.2.3v-.3Z"/><path class="cls-40" d="m155.4,339.3h-.5c-.3,0-.7,0-1-.2-.4,0-.8-.1-1.2-.3-.5,0-.9-.1-1.4-.3h-.2c-.2,0-.2-.2-.2-.4s.2-.5.3-.6c.2-.4.3-.7.5-1.1.1-.2.2-.4.4-.6.2-.3.7-.4,1-.2,0,0,.1.1.2.2.1.1.3.3.4.4.2.3.5.7.6,1.1.4.5.7,1.2,1.1,1.7v.2c0,.2,0,.3-.2.3l.2-.3Z"/><path class="cls-40" d="m156.2,331.1h.2c.2,0,.2,0,.2.3s0,.2-.2.3c-.4.5-.8,1.1-1.3,1.5-.4.5-.8.9-1.2,1.3-.2.2-.5.4-.7.5-.3,0-.6,0-.9-.2-.2-.1-.3-.3-.4-.5-.4-.5-.7-1.1-1.1-1.7-.1-.3-.3-.5-.5-.7h0c0-.2,0-.3.2-.3.8,0,1.5,0,2.2-.2.7,0,1.3,0,2-.2h1.4v-.2Z"/><path d="m151.9,355.6v2h-.8v1.3h-2.2v-1.3h-3.7v-2l2.5-5.1h2.4l-2.5,5.2h1.4v-1.5h2.2v1.5h.8,0Z"/><path d="m161.1,354v.9c0,1.1-.4,2.2-1.2,3-.8.8-1.9,1.2-3.1,1.2-1.2,0-2.4-.4-3.2-1.3-.8-.8-1.3-2-1.3-3.2,0-1.2.4-2.3,1.3-3.1.8-.8,2-1.3,3.2-1.3.8,0,1.5.1,2.2.5.6.3,1.2.8,1.5,1.4l-1.8,1.1c-.2-.3-.4-.5-.7-.6-.3-.2-.7-.3-1.1-.3-1.3,0-2.3,1.1-2.2,2.3,0,.6.2,1.1.6,1.5.5.5,1.1.7,1.8.7.8,0,1.6-.4,2-1.1h-2.1v-1.9h4.1Z"/><polygon class="cls-54" points="142.2 367.5 142.2 325.4 164.5 325.4 142.2 367.5"/><circle class="cls-5" cx="246.6" cy="339.6" r="40.5"/><path d="m226.4,317.2c2,1.7,2.3,4.7.6,6.7,0,.1-.2.2-.3.3-1.9,2.2-5.3,2.5-7.5.6,0,0,0,0,0,0-2.2-2-2.3-5.3-.4-7.4,0,0,0,0,0,0,1.2-1.3,2.9-2,4.7-1.7l-.5,2.2c-1-.1-1.9.2-2.5,1-1.1,1.1-1.1,2.9,0,4,0,0,.2.1.2.2,1.3,1.2,3,1.1,4.3-.4.9-.7,1.1-2,.5-3l-1.8,2-1.5-1.3,3.4-3.8.6.5h0Z"/><path d="m235.6,313.5c1,1.7.5,3.9-1.2,4.9,0,0,0,0,0,0-.7.4-1.6.5-2.3.3l1.7,3.2-1.9,1-4.8-8.9,1.9-1,.4.6c.2-.8.7-1.4,1.4-1.8,1.8-.9,4,0,4.9,1.7Zm-1.9,1c-.4-.8-1.3-1.2-2.2-.8,0,0-.1,0-.2,0-.8.4-1.2,1.4-.8,2.2,0,0,0,0,0,.1.4.8,1.3,1.2,2.2.8,0,0,.1,0,.2,0,.8-.4,1.2-1.4.8-2.2,0,0,0,0,0-.1h0Z"/><path d="m243.7,310.9l.9,4.3-2.2.5-.8-4c0-.6-.6-1.1-1.2-1.1-.1,0-.2,0-.3,0-.7,0-1.2.7-1.1,1.3,0,.1,0,.2,0,.4l.8,3.9-2.1.5-2.1-9.9,2.1-.4.7,3.5c.4-.7,1-1.2,1.8-1.3,1.5-.3,2.9.6,3.2,2.1,0,0,0,.2,0,.3h0Z"/><path d="m245.3,311.6c.1-2.1,1.9-3.7,4.1-3.6,2.1.1,3.7,1.9,3.6,4.1-.1,2.1-1.9,3.7-4.1,3.6,0,0,0,0,0,0-2.1-.1-3.7-1.9-3.5-4,0,0,0,0,0,0Zm5.5.5c0-.9-.6-1.7-1.5-1.8,0,0,0,0,0,0-.9,0-1.7.6-1.8,1.5,0,.9.6,1.7,1.5,1.8,0,0,0,0,0,0,.9,0,1.7-.6,1.8-1.5Z"/><path d="m261.2,314.3l-1.5,4.1-2-.8,1.4-3.9c.3-.6.1-1.3-.5-1.6,0,0-.2,0-.3-.1-.7-.3-1.5,0-1.7.7,0,0,0,.1,0,.2l-1.4,3.7-2-.8,2.5-6.8,2,.8-.3.6c.7-.4,1.6-.4,2.2,0,1.4.5,2.2,1.9,1.4,3.8h0Z"/><path d="m264.3,319.6c.4.3.9.5,1.4.4l.8,1.8c-2.2.5-4.3-.8-4.9-2.9-.3-1.1,0-2.2.5-3.2,1.2-1.7,3.5-2,5.1-.9,0,0,.1.1.2.2,1.6,1.2,2,3.4.8,5,0,0,0,.1-.1.2-.2.3-.4.5-.6.6l-4-3.1c-.2.7.1,1.5.8,1.8h0Zm2.6-1.3c.3-.6,0-1.4-.5-1.8-.6-.5-1.4-.5-2,0l2.5,1.9h0Z"/><path d="m275,330.4c-1.8,1-4.1.3-5.1-1.5-.9-1.7-.4-3.9,1.3-5,.6-.4,1.3-.5,2.1-.5l5.6.3,1.3,2.2-3.9-.3c.9,1.6.3,3.7-1.3,4.6,0,0,0,0,0,0h0Zm-1.2-2c.7-.4.9-1.2.5-1.9,0,0,0,0,0-.1-.3-.7-1.1-.9-1.8-.6,0,0,0,0,0,0-.6.3-.9,1.1-.6,1.7,0,0,0,.2.1.2.3.7,1.1.9,1.8.6,0,0,0,0,0,0Z"/><path class="cls-56" d="m236.4,322.5h20.7c2,0,3.7,1.6,3.7,3.6,0,0,0,0,0,0v44.2c0,2-1.6,3.7-3.6,3.7,0,0,0,0,0,0h-20.7c-2,0-3.7-1.6-3.7-3.6,0,0,0,0,0,0v-44.2c0-2,1.6-3.7,3.6-3.7,0,0,0,0,0,0Z"/><path class="cls-44" d="m257.1,322.5h-20.7c-2,0-3.7,1.6-3.7,3.6,0,0,0,0,0,0v44.2l28.1-44.2c0-2-1.6-3.7-3.6-3.7,0,0,0,0,0,0Z"/><path class="cls-49" d="m258.6,367.5h-23.8c-.8,0-1.5-.7-1.5-1.5,0,0,0,0,0,0v-39.8c0-1,.8-1.8,1.7-1.8h23.6c.8,0,1.5.7,1.5,1.5,0,0,0,0,0,0v40c0,.9-.7,1.6-1.5,1.6Z"/><path class="cls-7" d="m248.6,372.3h-.5c-.3,0-.6,0-.9-.2-.4,0-.7-.2-1.1-.2-.4,0-.9-.1-1.3-.3h-.2c-.2,0-.2-.2-.2-.4,0-.2.1-.4.3-.6.1-.3.3-.7.4-1,0-.2.3-.5.4-.6.2-.3.6-.4.9-.2,0,0,.2.1.2.2,0,0,.2.3.4.5.2.4.4.6.6,1l1.1,1.6v.2c0,.2,0,.3-.2.3v-.3Z"/><path class="cls-40" d="m248.8,339.3h-.4c-.3,0-.7,0-1-.2-.4,0-.8-.1-1.2-.3-.5,0-.9-.1-1.4-.3h-.2c-.2,0-.2-.2-.2-.4s.2-.5.3-.6c.2-.4.3-.7.5-1.1.1-.2.2-.4.4-.6.2-.3.7-.4,1-.2,0,0,.1.1.2.2.1.1.3.3.4.5.2.3.5.7.6,1.1.4.5.7,1.2,1.1,1.7v.2c0,.2,0,.3-.2.3l.2-.3Z"/><path class="cls-40" d="m249.6,331.1h.2c.2,0,.2,0,.2.3s0,.2-.2.3c-.4.5-.8,1.1-1.3,1.5-.4.5-.8.9-1.2,1.3-.2.2-.5.4-.7.5-.3,0-.6,0-.9-.2-.2-.1-.3-.3-.4-.4-.4-.5-.7-1.1-1.1-1.7-.1-.3-.3-.5-.4-.7h0c0-.2,0-.3.2-.3.8,0,1.5,0,2.2-.2.7,0,1.3,0,2-.2h1.4v-.2Z"/><path d="m245.3,355.6v2h-.8v1.3h-2.2v-1.3h-3.7v-2l2.5-5.1h2.4l-2.5,5.2h1.4v-1.5h2.2v1.5h.8,0Z"/><path d="m254.5,354v.9c0,1.1-.4,2.2-1.2,3-.8.8-1.9,1.2-3.1,1.2-1.2,0-2.4-.4-3.2-1.3-.8-.8-1.3-2-1.3-3.1,0-1.2.4-2.3,1.3-3.2.8-.8,2-1.3,3.1-1.3.8,0,1.5.1,2.2.5.6.3,1.2.8,1.5,1.4l-1.8,1.1c-.2-.3-.4-.5-.7-.6-.3-.2-.7-.3-1.1-.3-1.3,0-2.3,1.1-2.2,2.3,0,.6.2,1.1.6,1.5.5.5,1.1.7,1.8.7.8,0,1.6-.4,2-1.1h-2.1v-1.9h4.1Z"/><path class="cls-54" d="m234.5,365.2c-.2.3-.7.5-1,.2-.2-.1-.3-.4-.3-.6v-38.8c0-.9.7-1.7,1.6-1.7,0,0,0,0,.1,0h23.8c.5,0,.8.4.8.8,0,.1,0,.3-.1.4l-24.8,39.7h0Z"/><polyline class="cls-44" points="250.2 326.1 242.8 326.1 241.2 322.5 251.9 322.5"/><path class="cls-7" d="m249.6,324.9c0,.3-.3.5-.5.5h-4.8c-.3,0-.5-.3-.5-.5h0c0-.3.3-.5.5-.5h4.8c.3,0,.5.3.5.5Z"/><circle class="cls-5" cx="340" cy="339.6" r="40.5"/><path d="m320,317.4c2.1,1.7,2.4,4.9.7,7-.1.2-.3.3-.4.5-2,2.4-5.5,2.7-7.9.7-2.4-2-2.7-5.5-.7-7.9,0-.1.2-.2.3-.3,1.2-1.4,3.1-2.1,5-1.8l-.5,2.3c-1-.1-2,.3-2.7,1.1-1.2,1.2-1.2,3.2,0,4.4,0,0,.1,0,.2.1,1.4,1.3,3.1,1.2,4.6-.4.9-.8,1.2-2.1.6-3.2l-2,2.1-1.5-1.4,3.7-4,.6.6h0Z"/><path d="m330,313.6c1,1.9.3,4.2-1.5,5.2,0,0,0,0,0,0-.7.4-1.6.5-2.4.2l1.7,3.4-2.1,1-4.8-9.6,2.1-1,.4.6c.3-.8.8-1.5,1.6-1.9,1.9-.8,4.2,0,5,2h0Zm-2.1,1c-.4-.9-1.5-1.3-2.4-.9,0,0,0,0,0,0-.9.4-1.3,1.4-.9,2.3,0,0,0,.2.1.3.4.9,1.5,1.3,2.4.9,0,0,0,0,0,0,.9-.4,1.3-1.4.9-2.3,0,0,0-.2-.1-.3h0Z"/><path d="m338.8,311.3l.7,4.7-2.2.4-.6-4.3c0-.7-.7-1.3-1.4-1.2,0,0,0,0,0,0-.8,0-1.4.7-1.2,1.8l.6,4.1-2.2.4-1.6-10.6,2.2-.4.5,3.8c.4-.7,1.2-1.2,2-1.3,1.5-.3,3,.6,3.3,2.7h0Z"/><path d="m340.6,312.1c.3-2.2,2.4-3.7,4.6-3.4,2.2.3,3.7,2.2,3.4,4.4,0,0,0,.1,0,.2-.3,2.2-2.4,3.7-4.6,3.4-2.2-.3-3.7-2.3-3.4-4.5,0,0,0,0,0-.1Zm5.8.9c.2-.9-.4-1.8-1.3-2,0,0,0,0-.1,0-.9-.2-1.8.4-1.9,1.3,0,0,0,.2,0,.3-.2.9.4,1.8,1.3,2,0,0,0,0,.1,0,.9.2,1.8-.4,1.9-1.3,0,0,0-.2,0-.3h0Z"/><path d="m357.3,316.2l-2.1,4.2-2.1-1,1.9-4c.4-.6.2-1.3-.4-1.7,0,0-.1,0-.2-.1-.7-.4-1.5-.1-1.9.5,0,0,0,.2-.1.3l-1.8,3.8-2.1-1,3.3-6.9,2.1,1-.3.6c.7-.4,1.6-.3,2.3,0,1.4.6,2.1,2.2,1.2,4.1h0Z"/><path d="m360.1,322.3c.4.4.9.6,1.4.5l.6,2c-1.3.3-2.6-.1-3.5-1.1-1.7-1.4-2-3.9-.6-5.6,0,0,.1-.2.2-.2,1.4-1.6,3.9-1.8,5.6-.4,0,0,.1.1.2.2,1.6,1.4,1.7,3.8.3,5.4,0,0-.1.1-.2.2-.2.3-.4.5-.7.6l-4-3.7c-.4.8,0,1.4.6,2.1h0Zm3-1.1c.4-.7.3-1.5-.4-2-.5-.6-1.4-.7-2.1-.3l2.4,2.2Z"/><path d="m376.1,331.1l-1.9.8-9.4.4-1.1-2.3,9-.4-1.8-4,2.2-1,2.9,6.4h0Z"/><path class="cls-42" d="m324.3,326.1h18.5c1.8,0,3.3,1.5,3.3,3.3,0,0,0,0,0,0v39.5c0,1.8-1.5,3.3-3.3,3.3,0,0,0,0,0,0h-18.5c-1.8,0-3.3-1.5-3.3-3.3,0,0,0,0,0,0v-39.5c0-1.8,1.5-3.3,3.3-3.3,0,0,0,0,0,0Z"/><path class="cls-56" d="m338,354.1c-.2,0-.5,0-.7,0-.5,0-1.1-.2-1.6-.4-.6,0-1.3-.3-2-.4-.8-.2-1.5-.3-2.3-.5-.1,0-.3,0-.4,0-.2,0-.4-.4-.3-.6,0,0,0,0,0,0,.2-.3.3-.7.4-1.1.3-.6.5-1.2.8-1.8.2-.4.4-.8.7-1.2.4-.6,1.1-.7,1.7-.4.1,0,.2.2.3.3.2.2.4.5.5.7.4.6.8,1.2,1.2,1.8l1.9,3c0,0,.1.2.2.3,0,.3,0,.5-.4.5h0Z"/><path class="cls-56" d="m339.4,340h.3c.3,0,.4.2.3.4s-.2.3-.3.5c-.7.9-1.4,1.8-2.1,2.7s-1.3,1.6-2,2.3c-.3.4-.8.6-1.3.8-.6.1-1.2,0-1.6-.4-.3-.2-.5-.5-.7-.8-.6-1-1.3-1.9-1.9-2.9-.3-.5-.5-.9-.8-1.3h0c-.2-.4,0-.5.3-.5l3.9-.3c1.2,0,2.3-.2,3.4-.3.8,0,1.6,0,2.4-.2h0Z"/><path class="cls-56" d="m336.4,326.1h18.5c1.8,0,3.3,1.5,3.3,3.3,0,0,0,0,0,0v39.5c0,1.8-1.5,3.3-3.3,3.3,0,0,0,0,0,0h-18.5c-1.8,0-3.3-1.5-3.3-3.3,0,0,0,0,0,0v-39.5c0-1.8,1.5-3.3,3.3-3.3,0,0,0,0,0,0Z"/><path class="cls-31" d="m354.9,326.1h-18.5c-1.8,0-3.3,1.5-3.3,3.3,0,0,0,0,0,0v39.5l25.1-39.5c0-1.8-1.5-3.3-3.3-3.3,0,0,0,0,0,0h0Z"/><path class="cls-49" d="m356.3,366.3h-21.2c-.8,0-1.4-.6-1.4-1.4,0,0,0,0,0,0v-35.6c0-.9.7-1.6,1.5-1.6h21.1c.8,0,1.4.6,1.4,1.4,0,0,0,0,0,0v35.7c0,.8-.6,1.4-1.4,1.4,0,0,0,0,0,0h0Z"/><path class="cls-7" d="m347.4,370.7h-.4c-.3,0-.6,0-.8-.2-.3,0-.7,0-1-.2-.4,0-.8-.1-1.2-.3h-.2c-.2,0-.2-.2,0-.3s.2-.4.3-.5.3-.6.5-.9c0-.2.2-.4.4-.5.2-.3.5-.4.8-.2,0,0,.1.1.2.2,0,0,.2.3.3.4.2.3.4.6.5.9.3.5.6,1,.9,1.4v.2c0,0,0,.3-.2.3v-.3Z"/><path class="cls-40" d="m347.6,341.2h-.4c-.3,0-.6,0-.9-.2-.4,0-.7-.2-1.1-.2-.4,0-.8-.1-1.2-.3h-.2c-.2,0-.2-.2-.2-.4s.2-.4.3-.5.3-.6.4-.9c0-.2.2-.4.4-.6.2-.3.5-.4.8-.2,0,0,.1.1.2.2,0,0,.2.3.3.4.2.3.4.6.6.9.4.5.6,1,1,1.5v.2c0,.2,0,.3-.2.3v-.2Z"/><path class="cls-40" d="m348.3,333.8h.2c0,0,.2,0,0,.2,0,0-.1.2-.2.3l-1.1,1.3c-.4.4-.7.8-1,1.3-.2.2-.4.4-.6.4-.3,0-.6,0-.8-.2-.2-.1-.3-.3-.4-.5-.4-.5-.6-1-1-1.5-.2-.2-.3-.4-.4-.6h0c0-.2,0-.3.2-.3.7,0,1.4,0,2.1-.2.6,0,1.2,0,1.8,0h1.3l-.2-.2Z"/><path d="m344.4,355.7v1.8h-.7v1.2h-1.9v-1.2h-3.3v-1.8l2.2-4.6h2.2l-2.2,4.7h1.2v-1.3h1.9v1.4h.7,0Z"/><path d="m352.6,354.3v.8c0,1-.4,2-1.1,2.7-.7.7-1.7,1-2.7,1-1.1,0-2.1-.4-2.9-1.2-.7-.7-1.1-1.7-1.2-2.8,0-1.1.4-2.1,1.2-2.8.7-.7,1.7-1.1,2.8-1.2.7,0,1.4.1,2,.5.6.3,1,.7,1.4,1.3l-1.6.9c-.1-.2-.4-.4-.6-.5-.3-.1-.7-.2-1-.2-.5,0-1.1.2-1.4.5-.4.4-.6,1-.5,1.5,0,.5.2,1.1.5,1.4.4.4,1,.6,1.6.6.7,0,1.4-.3,1.7-1h-1.8v-1.6h3.7Z"/><path class="cls-54" d="m334.8,364.3c-.2.3-.6.4-.9.2-.2-.1-.3-.3-.3-.6v-34.7c0-.8.7-1.5,1.5-1.5,0,0,0,0,0,0h21.3c.4,0,.7.3.8.7,0,.2,0,.4-.1.5l-22.2,35.5Z"/><polyline class="cls-31" points="348.8 329.3 342.2 329.3 340.8 326.1 350.3 326.1"/><path class="cls-7" d="m348.3,328.2c0,.2-.2.4-.4.4,0,0,0,0,0,0h-4.2c-.2,0-.4-.2-.5-.4,0,0,0,0,0,0h0c0-.2.2-.4.4-.5,0,0,0,0,0,0h4.2c.2,0,.4.2.4.4,0,0,0,0,0,0Z"/><rect class="cls-30" x="323.1" y="328.3" width="8.8" height="4.9" rx="1.8" ry="1.8"/><circle cx="325.4" cy="331" r=".8"/><path class="cls-37" d="m325.5,332.4c-1,0-1.8-.8-1.8-1.8,0-1,.8-1.8,1.8-1.8,1,0,1.8.8,1.8,1.8,0,0,0,0,0,0,0,1-.8,1.7-1.7,1.7,0,0,0,0,0,0Zm-.8-1.9c0,.2,0,.4,0,.6.2.3.5.5.9.5.3,0,.6-.3.7-.6.1-.4,0-.8-.4-1-.2-.1-.4-.1-.6,0-.5,0-.7.3-.6.7h0Z"/><path class="cls-58" d="m325.3,329.8c.2,0,.4,0,.6,0,.4.2.5.6.4,1,0,.4-.4.5-.7.6-.4,0-.7-.1-.9-.5-.1-.2-.2-.4,0-.6,0,0,.3,0,.4,0,0,.2,0,.4.3.4s.4,0,.5-.3,0-.5-.5-.6c0-.2,0-.4-.2-.5v.2Z"/><path class="cls-45" d="m325.3,329.8c.1.1.2.3.2.5,0,.2-.2.3-.4.4-.2,0-.3,0-.4,0,0-.5.2-.7.6-.7h0Z"/><circle cx="329.4" cy="331" r=".8"/><path class="cls-37" d="m329.6,332.4c-1,0-1.8-.8-1.8-1.8,0-1,.8-1.8,1.8-1.8,1,0,1.8.8,1.8,1.8,0,0,0,0,0,0,0,1-.8,1.7-1.7,1.7,0,0,0,0,0,0Zm-.8-1.9c0,.2,0,.4,0,.6.2.3.5.5.9.5.3,0,.6-.3.7-.6.1-.4,0-.8-.5-1-.2-.1-.4-.1-.6,0-.5,0-.7.3-.6.7h0Z"/><path class="cls-58" d="m329.3,329.8c.2,0,.4,0,.6,0,.4.2.5.6.5,1,0,.4-.4.5-.7.6-.4,0-.7-.1-.9-.5-.1-.2-.2-.4,0-.6,0,0,.3,0,.4,0,0,.2,0,.4.3.4s.5,0,.5-.3,0-.5-.5-.6c0-.2,0-.4-.2-.5v.2Z"/><path class="cls-45" d="m329.3,329.8c.1.1.2.3.2.5,0,.2-.2.3-.4.4-.2,0-.3,0-.4,0,0-.5.2-.7.6-.7h0Z"/><circle class="cls-5" cx="59.9" cy="339.6" r="40.5"/><path d="m46.3,314.6c1.6,2.1,1.2,5-.9,6.5-.1.1-.3.2-.4.3-2.4,1.7-5.7,1.2-7.4-1.2,0,0,0,0,0,0-1.6-2.4-.9-5.7,1.5-7.3,1.5-1,3.3-1.1,4.9-.5l-1,2c-.9-.4-1.9-.2-2.7.4-1.3.8-1.8,2.6-.9,3.9,0,0,0,.1.1.2.9,1.4,2.7,1.8,4.1.9,0,0,.2-.1.2-.2,1-.5,1.5-1.6,1.3-2.7l-2.2,1.5-1.1-1.7,4.2-2.8.5.7Z"/><path d="m50.7,313l.8,2.4c.2.6.7.5,1.6.2l.6,1.9c-2.6,1.2-3.6.5-4.2-1.3l-.8-2.4-1.1.4-.6-2,1.1-.4-.5-1.3,1.9-1.3.6,1.9,1.4-.5.6,2-1.4.5h0Z"/><path d="m61,309.4l.5,7.2-2.2.2v-.7c-.5.6-1.3,1-2.2,1-2.1,0-3.8-1.8-3.7-3.9,0-1.8,1.4-3.4,3.2-3.7.8,0,1.6.2,2.2.7v-.7l2.1-.2h0Zm-1.9,3.8c0-.9-.6-1.6-1.5-1.6-.1,0-.2,0-.3,0-.9,0-1.7.8-1.6,1.8,0,0,0,0,0,.1,0,.9.6,1.6,1.5,1.6.1,0,.2,0,.3,0,.9,0,1.7-.8,1.6-1.8,0,0,0,0,0-.1h0Z"/><path d="m70.8,314.9c-.4,2-2.2,3.3-4.2,3-.8-.2-1.5-.6-1.9-1.3l-.2.6-2.1-.5,2.2-9.8,2.1.4-.8,3.5c.6-.5,1.5-.6,2.2-.4,1.9.6,3,2.6,2.5,4.5h0Zm-2.1-.5c.3-.8-.1-1.7-.9-2-.1,0-.2,0-.3,0-.9-.2-1.8.3-2,1.2,0,0,0,0,0,.1-.3.8.1,1.7.9,2,.1,0,.2,0,.3,0,.9.2,1.8-.3,2-1.2,0,0,0,0,0-.1Z"/><path d="m82.4,314.2l-5.7,8.4-1.9-1.3,4.3-6.3-1.7-.6.6-2,2.7.7,1.7,1.2h0Z"/><path class="cls-11" d="m43.9,372.9c0,0-.2,0-.2,0-1.2-.4-2-1.5-2-2.8v-40c0-1.5,1.1-2.9,2.6-3,0,0,.1,0,.2,0h28.5c0,.2.2.2.3.2,1,.4,1.7,1.5,1.7,2.6v2.7h-10.5c-.2,0-.4,0-.4.3-.4.5-.9.9-1.4,1.3-1.6,1.5-4.1,1.5-5.8,0-.4-.4-.9-.8-1.3-1.3-.2-.2-.4-.3-.7-.3h-9.8c-.4,0-.5,0-.5.5v33.8c0,.5.2.5.5.5h30.1v2.7c0,1.2-.6,2.3-1.7,2.7,0,0-.3,0-.3.3h-29.2v-.2Zm13.1-3.5h-2.6c-.5,0-.8.3-.8.7s.3.7.8.7h5.2c.4,0,.8-.2.9-.6,0-.4-.2-.8-.6-.9-.1,0-.2,0-.3,0h-2.6Zm2.8-39.7c-.7,0-1.3.6-1.4,1.3,0,0,0,0,0,0h0c0,.7.6,1.4,1.3,1.4,0,0,0,0,0,0,.7,0,1.3-.6,1.4-1.3,0-.7-.6-1.3-1.3-1.3,0,0,0,0,0,0h0Zm6.2,40.4c0-.4-.3-.7-.6-.7-.4,0-.7.4-.7.8,0,.3.3.6.6.6,0,0,0,0,0,0,.4,0,.7-.3.7-.7h0Zm-3.4-.7c-.4,0-.7.4-.7.7,0,.4.3.7.7.7.4,0,.7-.4.7-.7,0-.4-.3-.7-.7-.7Z"/><rect class="cls-11" x="56.4" y="329.4" width="5.9" height="3.5"/><path class="cls-52" d="m73.2,372.9c0-.2.2-.2.3-.3,1.1-.4,1.8-1.5,1.7-2.7v-40.2c0-1.1-.6-2.2-1.7-2.6,0,0-.3,0-.3-.2h2c1.5,0,2.7,1.2,2.7,2.7v39.6c0,1.7-.5,3.1-2.2,3.6h-2.5,0Z"/><path class="cls-49" d="m72.4,367.4h-27.3c-.4,0-.5,0-.5-.5v-33.7c0-.5,0-.5.5-.5h9.8c.3,0,1.2-.4,1.3-.2.5.5.2.9.9,1.8s2,1.5,3.6,0l1.8-1.8c0-.2,1.8.2,2,.2h7.7v34.8h0Z"/><path class="cls-47" d="m72.4,367.4v-34.8h2.8v34.8h-2.8Z"/><path class="cls-35" d="m57.1,369.4h2.5c.4,0,.8.3.9.7,0,.4-.5.7-.9.7h-5.2c-.5,0-.8-.3-.8-.7s.3-.7.8-.7h2.7Z"/><path class="cls-19" d="m66.1,370.1c0,.4-.3.7-.6.7h0c-.3,0-.6-.3-.6-.6,0,0,0,0,0,0,0-.4.3-.7.7-.8.4,0,.6.4.6.7h0Z"/><path class="cls-19" d="m62.7,369.4c.4,0,.6.4.7.7,0,.4-.3.7-.7.7s-.7-.3-.7-.7c0-.4.4-.6.7-.7Z"/><path class="cls-29" d="m62.5,329.7h.2c.2,0,.2,0,.2.3s0,.2-.2.3c-.4.5-.8,1.1-1.3,1.6l-1.2,1.4c-.2.2-.4.4-.7.5-.4,0-.7,0-1-.3-.2,0-.3-.3-.5-.5-.4-.5-.7-1.2-1.1-1.7-.2-.3-.3-.5-.5-.8h0c0-.2,0-.3.2-.4.8,0,1.6,0,2.3-.2.7,0,1.4,0,2.1-.2.5,0,1,0,1.4,0h0Z"/><path class="cls-48" d="m62.3,348.1h-.5c-.4,0-.7-.2-1.1-.2-.5,0-.9-.1-1.4-.3l-1.5-.3h-.3c-.2,0-.3-.2-.2-.5,0-.3.2-.5.4-.7.2-.4.4-.8.5-1.2,0-.3.2-.5.5-.7.2-.3.7-.4,1-.2,0,0,.2.1.2.2.1.1.3.3.4.4.3.4.5.8.7,1.2.5.6.8,1.3,1.3,2,0,0,0,.1,0,.2,0,.2,0,.3-.3.3l.2-.3Z"/><path class="cls-48" d="m63.2,338.7h.2c.2,0,.3,0,.2.3s0,.2-.2.3c-.4.6-.9,1.2-1.4,1.8s-.9,1.1-1.4,1.5c-.2.3-.5.5-.8.5-.4,0-.8,0-1.1-.3-.2-.2-.3-.3-.5-.5-.5-.6-.8-1.3-1.3-1.9-.2-.3-.4-.6-.5-.9h0c0-.2,0-.4.2-.4.9,0,1.7,0,2.6-.2.8,0,1.5,0,2.2-.2.5,0,1.1,0,1.6,0h0Z"/><path d="m58.3,359.8v2.5h-1.1v1.7h-2.8v-1.7h-4.9v-2.6l3.3-6.8h3.2l-3.3,6.8h1.7v-2h2.8v2h1.1Z"/><path d="m70.2,357.7v1.1c0,1.5-.5,2.9-1.5,4-1.1,1-2.5,1.6-4,1.5-1.6,0-3.1-.5-4.2-1.6-2.2-2.3-2.2-5.8,0-8.1,1.1-1.1,2.5-1.7,4-1.7,1,0,2,.2,2.8.7.8.4,1.5,1,2,1.8l-2.4,1.3c-.2-.4-.6-.7-1-.8-.5-.2-.9-.3-1.4-.3-1.5-.1-2.9,1.1-3,2.6,0,.1,0,.2,0,.4,0,.8.3,1.6.8,2.2.6.6,1.5,1,2.3.9,1.1,0,2-.5,2.5-1.4h-2.7v-2.4h5.8Z"/><line class="cls-9" x1="199.7" y1="120.4" x2="200.2" y2="153.2"/><line class="cls-6" x1="199.7" y1="120.4" x2="200" y2="142.5"/><polygon class="cls-55" points="192.5 140.4 200.2 153.2 207.5 140.2 192.5 140.4"/><line class="cls-9" x1="112.1" y1="116.2" x2="160.8" y2="155.5"/><line class="cls-6" x1="112.1" y1="116.2" x2="152.4" y2="148.7"/><polygon class="cls-55" points="146 153.2 160.8 155.5 155.4 141.5 146 153.2"/><line class="cls-9" x1="287.8" y1="116.2" x2="239.1" y2="155.5"/><line class="cls-6" x1="287.8" y1="116.2" x2="247.5" y2="148.7"/><polygon class="cls-55" points="244.5 141.5 239.1 155.5 253.9 153.2 244.5 141.5"/><circle class="cls-4" cx="199.9" cy="203.4" r="45"/><path d="m164.5,200.9c-2.3-.4-3.9-2.6-3.5-4.9,0-.1,0-.2,0-.4.3-1.5,1.3-2.7,2.7-3.2l.6,1.9c-.8.3-1.3.9-1.5,1.7-.3,1.3.4,2.6,1.7,2.9,0,0,.2,0,.3,0,1.2.4,2.6-.3,2.9-1.6,0-.1,0-.2,0-.3.2-.8,0-1.6-.6-2.2l1.3-1.4c1,1.1,1.5,2.6,1.2,4-.5,2.4-2.8,3.9-5.2,3.4,0,0,0,0-.1,0Z"/><path d="m167.8,192.4c-1.6-.8-2.2-2.8-1.4-4.4,0,0,0,0,0,0,.8-1.6,2.7-2.3,4.3-1.5,0,0,0,0,0,0,1.6.8,2.2,2.8,1.4,4.4,0,0,0,0,0,0-.8,1.6-2.7,2.3-4.3,1.5,0,0,0,0,0,0Zm2.1-4.2c-.7-.4-1.5,0-1.9.6,0,0,0,0,0,0-.3.7,0,1.6.7,1.9.7.4,1.5,0,1.9-.6,0,0,0,0,0,0,.4-.6.1-1.5-.5-1.8,0,0-.1,0-.2,0h0Z"/><path d="m177,178.1l2.8,2.5-1.2,1.4-2.7-2.4c-.5-.4-.9-.5-1.3,0-.4.4-.3,1,0,1.4,0,0,0,0,.1,0l2.6,2.3-1.2,1.4-2.7-2.4c-.5-.4-.9-.5-1.3,0-.4.4-.3,1,0,1.4,0,0,0,0,.1,0l2.6,2.3-1.2,1.4-4.5-4.1,1.2-1.4.4.4c-.1-.6.1-1.3.6-1.7.4-.5,1.1-.7,1.7-.6-.1-.7.1-1.4.6-1.9.9-.9,2.3-1,3.2-.2,0,0,.1,0,.2.2l-.2-.2Z"/><path d="m182.2,172l3.3,5.2-1.6,1-.3-.5c0,.7-.5,1.3-1.1,1.6-1,.7-2.5.4-3.1-.6,0,0-.1-.2-.2-.3l-2-3.2,1.6-1,1.9,3c.3.5.9.7,1.4.4,0,0,0,0,0,0,.6-.4.8-.9.3-1.7l-1.8-2.8,1.6-1h0Z"/><path d="m190.5,171.3l1.3,3.5-1.7.6-1.2-3.3c-.1-.5-.6-.9-1.2-.8,0,0-.1,0-.2,0-.6.2-.9.9-.7,1.6,0,0,0,0,0,0l1.1,3.2-1.7.6-2.1-5.8,1.7-.6.2.5c.3-.6.8-1.1,1.4-1.3,1.1-.5,2.4.1,2.9,1.3,0,.1,0,.2.1.3h0Z"/><path d="m191.2,167.1c-.1-.6.3-1.2.9-1.3.6-.1,1.2.3,1.3.9.1.6-.3,1.2-.9,1.3,0,0,0,0,0,0-.6.1-1.2-.3-1.3-.9Zm.5,1.6l1.8-.3,1.1,6-1.8.3-1.1-6Z"/><path d="m195.2,171.1c0-1.7,1.3-3.2,3-3.3,0,0,0,0,0,0,1.1,0,2.2.5,2.8,1.5l-1.6,1c-.2-.4-.7-.7-1.2-.7-.7,0-1.3.5-1.3,1.2,0,0,0,.2,0,.3,0,.8.6,1.4,1.3,1.4,0,0,0,0,0,0,.5,0,1-.3,1.2-.7l1.6.9c-.5,1-1.6,1.7-2.7,1.7-1.7.1-3.2-1.2-3.3-2.9,0,0,0-.1,0-.2v-.2Z"/><path d="m208.8,169.1l-1.1,6-1.8-.3v-.6c-.5.5-1.2.6-1.8.4-1.7-.4-2.7-2-2.3-3.7,0,0,0,0,0,0,.2-1.7,1.8-2.9,3.5-2.7.7,0,1.3.5,1.7,1.1v-.6c.1,0,1.9.3,1.9.3h0Zm-2.4,2.7c.2-.7-.2-1.4-.9-1.6-.1,0-.2,0-.3,0-.8-.2-1.5.3-1.7,1.1,0,0,0,0,0,.1-.2.7.2,1.4.9,1.6.1,0,.2,0,.3,0,.7.2,1.5-.3,1.7-1,0,0,0-.1,0-.2Z"/><path d="m212.4,172.3l-.8,2c-.2.5.2.7,1,1l-.6,1.6c-2.3-.6-2.7-1.6-2.1-3.2l.8-2-.9-.4.6-1.6.9.4.4-1.1,1.9.2-.6,1.6,1.2.5-.6,1.6-1.2-.5h0Z"/><path d="m215.6,171.8l1.6.9-2.9,5.4-1.6-.9,2.9-5.4Zm.6-1.5c.3-.6.9-.8,1.5-.5.6.3.8.9.5,1.5-.3.6-.9.8-1.5.5,0,0,0,0,0,0-.5-.3-.7-.9-.5-1.5Z"/><path d="m216.9,175.9c1.1-1.4,3.1-1.7,4.5-.6,1.4,1.1,1.7,3.1.6,4.5-1.1,1.4-3.1,1.7-4.5.6-1.4-1.1-1.7-3.1-.6-4.5,0,0,0,0,0,0Zm3.7,2.8c.5-.6.4-1.5-.2-2h0c-.6-.5-1.4-.4-1.9.2,0,0,0,0,0,.1-.5.6-.4,1.5.2,2h0c.6.5,1.4.4,1.9-.2,0,0,0,0,0-.1h0Z"/><path d="m227.3,184.9l-2.9,2.4-1.2-1.4,2.7-2.2c.5-.3.6-.9.3-1.4,0,0,0,0,0-.1-.4-.5-1-.6-1.7,0l-2.6,2.1-1.2-1.4,4.7-3.9,1.2,1.4-.4.4c.7,0,1.3.3,1.7.9.8,1,.7,2.4-.3,3.2,0,0-.2.1-.2.2v-.2Z"/><path d="m228.9,193l-.4-.8-1.2.6-.9-1.8,1.2-.6-1.8-3.5,1.6-.8h6l1,1.8h-6l.8,1.6,1.6-.8.9,1.8-1.6.8.4.8-1.6.8h0Z"/><path d="m233.7,201.3c-2.1.6-4.3-.7-4.9-2.8,0-.1,0-.3,0-.4-.7-2.4.7-4.8,3-5.5,2.4-.7,4.8.7,5.5,3,0,.1,0,.2,0,.3.4,1.5,0,3-1.1,4.1l-1.3-1.4c.5-.6.7-1.5.5-2.3-.4-1.4-1.8-2.2-3.1-1.9-1.4.4-2.2,1.8-1.9,3.1.1,1,.9,1.7,1.8,1.9l-.5-2.2,1.7-.4.9,4.2-.7.2h.1Z"/><path class="cls-49" d="m211.7,191.4c-8.5-.2-17.8-.2-26.3,0-14.8,1.9-22,20.9-11.6,31.8,2.2,3.3-1.6,9.5,2.3,11.8,3.3,1,5.2-3.4,7.4-5.1,9.2-1,20.3.5,29.8-.5,22.1-2.9,20.7-37.2-1.6-38.2v.2Z"/><path d="m196.9,212.4v4.2h-1.8v2.7h-4.5v-2.7h-7.8v-4.2l5.3-10.9h5l-5.4,11h2.8v-3.2h4.5v3.2h1.9Z"/><path d="m216.2,209v1.8c0,2.4-.8,4.7-2.5,6.4-1.7,1.6-4,2.5-6.4,2.4-2.6,0-5-.9-6.9-2.7-3.6-3.6-3.7-9.5,0-13.2,1.8-1.8,4.2-2.8,6.6-2.7,1.6-.1,3.2.3,4.6,1.1,1.4.6,2.5,1.7,3.2,3l-3.9,2.2c-.4-.6-.9-1-1.6-1.3-.7-.3-1.5-.5-2.3-.5-2.6,0-4.8,2-4.9,4.7,0,0,0,.2,0,.2,0,1.3.4,2.6,1.3,3.5,1,1,2.4,1.5,3.8,1.4,1.7,0,3.3-.8,4.1-2.3h-4.3v-3.9h9.2Z"/><circle class="cls-2" cx="311.7" cy="64.9" r="45"/><path class="cls-36" d="m301.7,65.5v-7.5c.3-5.5,5-9.7,10.6-9.4,4.4.2,8.1,3.3,9.1,7.6.1.6.2,1.3.2,1.9v7.5h-20,0Zm6.3-13.6c.5,0,.9-.4.9-.9h0c0-.5-.4-.9-.9-.9-.5,0-.9.4-.9.9s.4.9.9.9h0Zm3.6-1.8c-.5,0-.9.4-.9.9,0,.5.4.9.9.9.5,0,.9-.4.9-.9h0c0-.5-.4-.9-.9-.9Zm4.6,1c0-.5-.4-.9-.9-.9h0c-.5-.1-1,.2-1.1.7s.2,1,.7,1.1c0,0,.1,0,.2,0h.2c.5,0,.9-.3.9-.7,0,0,0,0,0,0h0Zm-11.8,2.7c-.5,0-.9.4-.9.9,0,.5.4.9.9.9.5,0,.9-.4.9-.9h0c0-.5-.4-.9-.9-.9Zm4.6.9c0-.5-.4-.9-.9-.9-.5,0-.9.4-.9.9s.4.9.9.9h0c.5,0,.9-.3.9-.7,0,0,0,0,0,0h0Zm2.7-.9c-.5,0-.9.4-.9.9,0,.5.4.9.9.9.5,0,.9-.4.9-.9h0c0-.5-.4-.9-.9-.9Zm4.6.9c0-.5-.4-.9-.9-.9-.5,0-.9.4-.9.9s.4.9.9.9h0c.5,0,.9-.3.9-.7,0,0,0,0,0,0h0Zm2.7-.9c-.5,0-.9.4-.9.9,0,.5.4.9.9.9.5,0,.9-.4.9-.9h0c0-.5-.4-.9-.9-.9Zm-13.6,4.5c0-.5-.3-.9-.7-.9,0,0,0,0,0,0h0c-.5,0-1,.3-1.1.9,0,.5.3,1,.9,1.1.5,0,1-.3,1.1-.9,0,0,0,0,0,0h-.1Zm7.3,3.6c0-.5-.4-.9-.9-.9-.5,0-.9.4-.9.9,0,.5.4.9.9.9h0c.5,0,.9-.3.9-.8h0q0-.1,0,0Zm2.7-.9c-.5,0-.9.4-.9.9,0,.5.4.9.9.9.5,0,.9-.4.9-.9h0c0-.5-.4-.9-.9-.9Zm4.5,1c0-.5-.4-.9-.9-.9-.5,0-.9.4-.9.9,0,.5.4.9.9.9h0c.5,0,.9-.3,1-.8h-.1Zm-15.4-.9c-.5,0-.9.4-.9.9,0,.5.4.9.9.9.5,0,.9-.4.9-.9h0c0-.5-.4-.9-.9-.9Zm14.5-1.8c.5,0,.9-.4.9-.9,0-.5-.4-.9-.9-.9-.5,0-.9.4-.9.9h0c0,.5.4.9.9.9Zm-2.7-.9c0-.5-.3-1-.9-1.1-.5,0-1,.3-1.1.9,0,.5.3,1,.9,1.1,0,0,0,0,0,0h0c.5,0,.9-.3.9-.7,0,0,0,0,0,0h.1Zm-4.6-.9c-.5,0-.9.4-.9.9,0,.5.4.9.9.9.5,0,.9-.4.9-.9h0c0-.5-.4-.9-.9-.9Zm-2.7.9c0-.5-.4-.9-.9-.9-.5,0-.9.4-.9.9s.4.9.9.9h0c.5,0,.9-.3.9-.7,0,0,0,0,0,0h0Zm0,3.6c0-.5-.4-.9-.9-.9-.5,0-.9.4-.9.9,0,.5.4.9.9.9h0c.5,0,.9-.3,1-.8h-.1Z"/><path class="cls-17" d="m301.7,65.5h20.9c1.1,0,.9-.1.9.9v3.6h-23.6v-3.6c0-1-.1-.9.9-.9h.9Z"/><path class="cls-13" d="m326.2,70v8.1c0,6.7-4.6,12.5-11.1,14.1-.5.1-1,.2-1.4.3-1.4.2-2.7.2-4.1,0-1.6-.3-3.1-.8-4.6-1.5-4-2.1-6.8-5.9-7.7-10.3-.2-.9-.2-1.7-.2-2.6v-8.1h1.8v8.5c0,.8.1,1.6.3,2.4,1.5,6.8,8.3,11.1,15.1,9.6,2.8-.6,5.2-2.1,7-4.3,1.8-2,2.8-4.6,2.9-7.3.1-3,0-6,0-9h2Z"/><path class="cls-17" d="m314.4,95.5c1.2,0,2.4,0,3.6.3,2,.7,3.5,2.5,3.7,4.7,0,.5-.2.5-.5.5h-18.9c-.5,0-.6-.2-.5-.6.3-2.7,2.6-4.8,5.4-4.9h7.2,0Z"/><path class="cls-10" d="m291.4,55.5c0-2.4.9-4.8,2.4-6.7.5-.6,1-.7,1.4-.3.4.4.4,1,0,1.4-2.7,3.2-2.7,8,0,11.2.4.6.4,1.1,0,1.4-.4.3-1,.2-1.3-.2h0c-1.6-1.9-2.4-4.3-2.4-6.8h-.1Z"/><path class="cls-41" d="m332,55.5c0,2.5-.9,4.9-2.4,6.8-.3.5-.8.6-1.3.4h0c-.5-.3-.5-.9,0-1.4,2.7-3.2,2.7-8,0-11.2-.5-.6-.5-1.1,0-1.4.4-.3,1-.2,1.3.2,0,0,0,0,0,.1,1.6,1.9,2.4,4.3,2.4,6.8v-.3Z"/><path class="cls-41" d="m298.2,50.1c.3,0,.6.2.7.5.2.3.2.7,0,1-1.7,2.2-1.8,5.3-.2,7.6,0,.1.1.2.2.3.4.3.4.9,0,1.3s-.9.4-1.3,0c0,0,0,0,0,0v-.2c-.9-1-1.4-2.2-1.7-3.5-.4-2.3.1-4.6,1.5-6.5.2-.3.5-.5.9-.4h-.1Z"/><path class="cls-41" d="m327.8,56c0,1.6-.6,3.2-1.7,4.4-.2.4-.8.5-1.2.3-.4-.2-.5-.8-.3-1.2,0,0,0-.1.1-.2,1.8-2.3,1.8-5.5,0-7.8-.4-.4-.4-.9,0-1.3h.1c.5-.3,1.1-.2,1.4.3,0,0,0,0,0,0,1.2,1.5,1.8,3.5,1.7,5.4h-.1Z"/><path class="cls-17" d="m296.2,70v.3c0,.4,0,.6-.6.6h-2.6c-.9,0-.5,0-.5-.4v-4.6c0-.4.2-.4.5-.4h2.5c.5,0,.7.1.6.6v3.9h.1Z"/><path class="cls-17" d="m327.1,66.4v-.3c0-.4.1-.6.6-.6h2.6c.9,0,.5,0,.5.4v4.6c0,.4-.2.4-.5.4h-2.5c-.5,0-.7-.1-.6-.6v-3.9h-.1Z"/><path class="cls-8" d="m296.2,70v-3.6h3.6v3.6h-3.6Z"/><path class="cls-8" d="m327.1,66.4v3.6h-3.6v-3.6h3.6Z"/><path class="cls-46" d="m314.4,95.5h-5.4c.2-1,.5-1.9.7-2.8,1.4.2,2.7.2,4.1,0,.2.9.4,1.9.7,2.8h-.1Z"/><path class="cls-20" d="m308.1,51.9c-.5,0-.9-.4-.9-.9,0-.5.4-.9.9-.9.5,0,.9.4.9.9h0c0,.5-.4.9-.9.9Z"/><path class="cls-20" d="m311.7,50.1c.5,0,.9.4.9.9,0,.5-.4.9-.9.9-.5,0-.9-.4-.9-.9h0c0-.5.4-.9.9-.9Z"/><path class="cls-20" d="m316.2,51c0,.5-.3.9-.8,1-.5,0-.9-.3-1-.8,0,0,0,0,0,0v-.2c0-.5.4-.9.9-.9h0c.5,0,.9.4.9.9Z"/><path class="cls-20" d="m304.4,53.7c.5,0,.9.4.9.9,0,.5-.4.9-.9.9-.5,0-.9-.4-.9-.9h0c0-.5.4-.9.9-.9Z"/><path class="cls-20" d="m309,54.6c0,.5-.4.9-.9.9-.5,0-.9-.4-.9-.9s.4-.9.9-.9h0c.5,0,.9.4.9.9Z"/><path class="cls-20" d="m311.7,53.7c.5,0,.9.4.9.9,0,.5-.4.9-.9.9-.5,0-.9-.4-.9-.9h0c0-.5.4-.9.9-.9Z"/><path class="cls-20" d="m316.2,54.6c0,.5-.4.9-.9.9-.5,0-.9-.4-.9-.9s.4-.9.9-.9h0c.5,0,.9.4.9.9Z"/><path class="cls-20" d="m318.9,53.7c.5,0,.9.4.9.9,0,.5-.4.9-.9.9-.5,0-.9-.4-.9-.9h0c0-.5.4-.9.9-.9Z"/><path class="cls-20" d="m305.3,58.3c0,.5-.4.9-.9.9-.5,0-.9-.4-.9-.9s.4-.9.9-.9h0c.5,0,.9.4.9.9Z"/><path class="cls-20" d="m312.6,61.9c0,.5-.4.9-.9.9s-.9-.4-.9-.9.4-.9.9-.9h0c.5,0,.9.4.9.9Z"/><path class="cls-20" d="m315.3,61c.5,0,.9.4.9.9,0,.5-.4.9-.9.9-.5,0-.9-.4-.9-.9h0c0-.5.4-.9.9-.9Z"/><path class="cls-20" d="m319.9,61.9c0,.5-.4.9-.9.9s-.9-.4-.9-.9.4-.9.9-.9h0c.5,0,.9.4.9.9Z"/><path class="cls-20" d="m304.4,61c.5,0,.9.4.9.9,0,.5-.4.9-.9.9-.5,0-.9-.4-.9-.9h0c0-.5.4-.9.9-.9Z"/><path class="cls-20" d="m318.9,59.1c-.5,0-.9-.5-.8-1,0-.4.4-.7.8-.8.5-.1,1,.2,1.1.7s-.2,1-.7,1.1c0,0-.1,0-.2,0h-.2Z"/><path class="cls-20" d="m316.2,58.2c0,.5-.4.9-.9.9-.5,0-.9-.4-.9-.9s.4-.9.9-.9h0c.5,0,.9.4.9.9Z"/><path class="cls-20" d="m311.7,57.3c.5,0,.9.4.9.9,0,.5-.4.9-.9.9-.5,0-.9-.4-.9-.9h0c0-.5.4-.9.9-.9Z"/><path class="cls-20" d="m309,58.2c0,.5-.4.9-.9.9-.5,0-.9-.4-.9-.9s.4-.9.9-.9h0c.5,0,.9.4.9.9Z"/><path class="cls-20" d="m309,61.9c0,.5-.4.9-.9.9h0c-.5-.2-.8-.8-.6-1.3.1-.3.4-.5.7-.6.5,0,.9.4.9.9h-.1Z"/><path class="cls-32" d="m301.7,71.9v-1.8h19.9v1.8h-19.9Z"/><path class="cls-43" d="m321.7,78.2c-.6,5.5-5.5,9.5-10.9,9-4.7-.5-8.5-4.2-9-9h19.9Zm-6.2,6.1c.1,0,.2,0,.3-.1.9-.6,1.7-1.4,2.2-2.4.2-.4,0-.8-.3-1.1h0c-.4-.3-.9-.2-1.2.1,0,0,0,0,0,0-.5.7-1,1.3-1.7,1.8-.3.2-.4.7-.2,1,.1.4.4.5,1,.6h0Zm-3.2-.7h-.7c-.5,0-.8.5-.8,1,0,.4.4.7.8.8h0c.5,0,.9,0,1.4-.1.3-.1.6-.4.6-.8,0-.3-.2-.7-.5-.8-.2,0-.5,0-.7,0h0Z"/><path class="cls-17" d="m321.7,78.2h-19.9v-4.6h19.9v4.6Z"/><path class="cls-39" d="m321.7,73.7h-19.9v-1.8h19.9v1.8Z"/><path class="cls-38" d="m315.5,84.3c-.4,0-.8-.2-1-.6-.2-.3,0-.7.2-1,.7-.5,1.2-1.1,1.7-1.8.3-.4.8-.5,1.1-.2,0,0,0,0,0,0,.4.2.6.7.4,1.1h0c-.5,1-1.3,1.8-2.2,2.4,0,0-.2,0-.3.1Z"/><path class="cls-38" d="m312.3,83.7h.7c.3.2.5.5.5.8,0,.4-.2.7-.6.8-.4.2-.9.2-1.4.1-.5,0-.8-.4-.8-.8,0,0,0,0,0,0h0c0-.5.3-.9.7-.9,0,0,0,0,0,0h.8Z"/><path d="m287.2,50l-1.1,2.5-6.4-2.7,3.4,4.8v.3c-.1,0-6,.8-6,.8l6.4,2.7-1.1,2.5-10.9-4.7,1.1-2.5,6.1-.9-3.6-5.1,1.1-2.5,10.9,4.7h.1Z"/><path d="m279.8,42.7c-.7-.6-.8-1.5-.2-2.2.6-.7,1.5-.8,2.2-.2.7.6.7,1.5.2,2.2-.6.6-1.5.7-2.2.2Zm1.9,1.2l1.6-2,6.6,5.4-1.6,2-6.6-5.4Z"/><path d="m287.7,43.2c-1.6-1.8-1.4-4.6.4-6.2,0,0,.1,0,.2-.1,1.2-1,2.9-1.3,4.4-.7l-.9,2.4c-.6-.3-1.4-.2-1.9.3-.8.6-1,1.6-.4,2.4,0,0,.1.2.2.3.7.8,1.9,1,2.7.3.5-.4.8-1.1.7-1.8l2.5-.4c.3,1.6-.3,3.1-1.6,4.1-1.9,1.6-4.7,1.3-6.3-.6,0,0,0,0,0,0Z"/><path d="m298.2,31.1l1.3,2.6c-1.1.2-1.8,1.2-1.6,2.3,0,.2.1.4.2.6l1.7,3.4-2.3,1.1-3.7-7.6,2.3-1.1.7,1.4c-.1-1.1.5-2.2,1.5-2.6h-.1Z"/><path d="m300.9,34.6c-.5-2.4,1-4.8,3.4-5.4,2.4-.6,4.8.9,5.4,3.3,0,0,0,0,0,.1.6,2.4-1,4.8-3.4,5.4s-4.8-1-5.4-3.4Zm6.3-1.4c-.2-1-1.1-1.7-2.1-1.5,0,0-.1,0-.2,0-1.1.2-1.7,1.2-1.5,2.3,0,0,0,0,0,.1.2,1,1.1,1.7,2.1,1.5,0,0,.1,0,.2,0,1.1-.2,1.7-1.2,1.5-2.3,0,0,0,0,0-.1h0Z"/><path d="m320.8,33.5c-.1,2.4-2.1,4.2-4.5,4.1-1,0-1.8-.5-2.4-1.3l-.4,4.2-2.5-.2,1.1-11.8,2.5.2v.8c.7-.7,1.6-1,2.5-.8,2.3.3,3.9,2.4,3.6,4.7,0,0,0,.1,0,.2h0Zm-2.5-.2c.2-1.1-.6-2.1-1.7-2.3,0,0,0,0-.1,0-1-.2-2,.6-2.2,1.6,0,0,0,.2,0,.3-.2,1.1.6,2.1,1.7,2.3,0,0,0,0,.1,0,1,.2,2-.6,2.2-1.6,0,0,0-.2,0-.3Z"/><path d="m330.5,36.4l-2.1,4.8-2.3-1,1.9-4.5c.4-.7.1-1.5-.5-1.9,0,0-.2,0-.3-.1-.7-.4-1.6-.1-2,.6,0,.1-.1.3-.1.4l-1.8,4.3-2.3-1,4.7-10.9,2.3,1-1.6,3.9c.8-.4,1.8-.4,2.6,0,1.6.7,2.4,2.4,1.5,4.5h0Z"/><path d="m331.7,38.2c1.6-1.9,4.4-2.1,6.3-.5,0,0,0,0,0,0,1.9,1.5,2.2,4.3.6,6.1,0,0,0,.1-.1.2-1.6,1.9-4.4,2.1-6.3.5,0,0,0,0,0,0-1.9-1.5-2.2-4.3-.6-6.1,0,0,0-.1.1-.2Zm4.9,4.2c.7-.7.7-1.9,0-2.6,0,0-.1-.1-.2-.2-.8-.7-2-.6-2.7.1,0,0,0,.1-.1.2-.7.7-.7,1.9,0,2.6,0,0,.1.1.2.2.8.7,2,.6,2.7-.1,0,0,0-.1.1-.2Z"/><path d="m345,51.9l-4.4,2.8-1.4-2.2,4.1-2.6c.7-.3,1-1.1.7-1.8,0,0,0-.2-.2-.3-.4-.7-1.3-1-2.1-.6,0,0-.2.1-.2.2l-3.9,2.5-1.4-2.2,7.2-4.5,1.4,2.2-.7.4c.9.1,1.8.7,2.2,1.5.9,1.5.7,3.3-1.3,4.6h0Z"/><path d="m344.1,59.2c.1.6.5,1.1,1.1,1.4l-.6,2.3c-1.3-.6-2.3-1.7-2.7-3.1-.8-2.2.3-4.7,2.5-5.5.2,0,.4-.1.6-.2,2.4-.6,4.8.8,5.4,3.2.6,2.4-.8,4.8-3.1,5.4h0c-.3,0-.7.2-1,.2l-1.6-5.8c-.7.5-1,1.5-.6,2.3v-.2Zm3.4.7c.7-.4,1.1-1.3.8-2.1-.2-.8-.9-1.4-1.8-1.4l1,3.5Z"/><circle class="cls-2" cx="199.9" cy="64.9" r="45"/><path class="cls-14" d="m178.3,97.6l-1.8-1.8c-.2-.2-.3-.4-.3-.7v-38.2c0-.3,0-.7.3-.9.9-1,1.9-1.9,2.8-2.9.2-.2.4-.3.6-.3h37.8c.2,0,.4,0,.5.2l1.8,1.8v38.7c0,.3-.1.7-.4.9-.8.8-1.6,1.7-2.4,2.5-.2.3-.6.5-1,.5h-37.4c-.2,0-.4,0-.6.1h.1Zm13.7-4.5h2.5v1.9q0,1.1,1.1,1.1c.3,0,.4-.1.4-.4v-2.6h2.5v1.9q0,1.1,1.1,1.1c.3,0,.4-.1.4-.4v-2.6h2.5v1.9q0,1.1,1.1,1.1c.3,0,.4,0,.4-.4v-2.7h2.5v2q0,1.1,1.1,1.1c.4,0,.5-.1.5-.5v-2.6h2.5v1.9q0,1.2,1.2,1.1c.3,0,.4-.1.4-.4v-2.6h2.5v1.9q0,1.2,1.2,1.1c.3,0,.4,0,.4-.4v-2.6c.2,0,.4,0,.4-.3h1.8q1.1,0,1.1-1.1c0-.3-.1-.4-.4-.4h-2.5v-2.5h1.8q1.1,0,1.1-1.1c0-1.1-.1-.5-.4-.5h-2.5v-2.5h1.8c1.3,0,1.1.2,1.1-1.1s0-.4-.4-.4h-2.5v-2.5h1.8c1.3,0,1.1.2,1.1-1.1s-.1-.4-.4-.4h-2.5v-2.5h1.8c1.3,0,1.1.2,1.1-1.1s-.1-.4-.4-.4h-2.5v-2.5h1.8q1.2,0,1.1-1.2c0-.3-.1-.3-.4-.3h-2.6v-2.5h1.8q1.2,0,1.1-1.2c0-.3-.1-.3-.4-.3h-2.6v-2.5h1.8q1.2,0,1.1-1.2c0-.3-.1-.3-.4-.3h-2.6v-2.5h1.8q1.2,0,1.1-1.2c0-.3-.1-.3-.4-.3h-2.6c0-.3-.1-.4-.4-.4v-1.8q0-1.2-1.2-1.1c-.3,0-.3,0-.3.4v2.6h-2.5v-1.8q0-1.2-1.2-1.1c-.3,0-.3,0-.3.4v2.6h-2.5v-1.8q0-1.2-1.2-1.1c-.3,0-.3,0-.3.4v2.6h-2.5v-1.8q0-1.2-1.2-1.1c-.3,0-.3,0-.3.4v2.6h-2.5v-1.8q0-1.2-1.2-1.1c-.3,0-.3,0-.3.4v2.6h-2.5v-1.9q0-1.2-1.2-1.1c-.3,0-.3,0-.3.4v2.6h-2.5v-1.9q0-1.2-1.2-1.1c-.3,0-.3,0-.3.4v2.6h-2.5v-1.9c0-1.2,0-1.1-1.2-1.1s-.3,0-.3.4v2.6h-2.5v-1.9c0-1.2,0-1.1-1.2-1.1s-.3,0-.3.4v2.6h-.6c-.3,0-.4,0-.4.4h-1.2q-1.2,0-1.1,1.2c0,.1,0,.3.2.3,0,0,0,0,0,0h2v2.5h-1.2q-1.2,0-1.1,1.2c0,.1,0,.3.2.3,0,0,0,0,0,0h2v2.5h-1.2q-1.2,0-1.1,1.2c0,.1,0,.3.2.3,0,0,0,0,0,0h2v2.5h-1.2q-1.2,0-1.1,1.2c0,.3.1.3.3.3h2v2.5h-1.2q-1.2,0-1.2,1.2c0,.2,0,.3.3.3h2v2.5h-1.2q-1.2,0-1.2,1.2c0,.3.1.3.4.3h1.9v2.5h-1.2q-1.2,0-1.2,1.2c0,.3.1.3.4.3h1.9v2.5h-1.2q-1.2,0-1.1,1.2c0,.3.1.3.4.3h1.9v2.5h-1.2q-1.2,0-1.1,1.2c0,.3.1.3.4.3h1.9c0,.2,0,.3.3.3h.7v1.9q0,1.2,1.2,1.1c.3,0,.3-.1.3-.4v-2.7h2.5v1.9q0,1.2,1.2,1.1c.3,0,.3-.1.3-.4v-2.7h2.5v1.9q0,1.1,1.1,1.1c.3,0,.4-.1.4-.4v-2.6h.4Z"/><path class="cls-15" d="m178.3,97.6c.2-.2.4-.1.6-.1h37.4c.4,0,.8-.2,1-.5.8-.9,1.6-1.7,2.4-2.5.3-.2.4-.6.4-.9v-38.7c.5.4.9.9,1.4,1.3.2.2.1.4.1.6v38.4c0,.3,0,.6-.3.8-.9.9-1.8,1.9-2.6,2.8-.2.2-.4.3-.6.3h-38c-.2,0-.4,0-.6-.2-.4-.4-.8-.8-1.1-1.2h0Z"/><path class="cls-16" d="m212,58.9h2.9v8.7c.1,3.7,0,7.5-.2,11.2-.2,1.7-.5,3.4-1.1,5-.2.6-.5,1.2-.9,1.8v-21.6c0-.5.2-1.1,0-1.3s-.9,0-1.4,0h-25.5c-.4,0-.5.1-.5.5v25.8c0,.4.1.5.5.5h23.1c-.5.2-.9.5-1.4.7-2.5,1-5.2,1.5-7.9,1.5h-18v-32.3c0-.3,0-.4.4-.4h30.1-.1Z"/><path class="cls-21" d="m181.5,91.5h18c2.7,0,5.4-.5,7.9-1.5.5-.2.9-.5,1.4-.7h3.5c.3,0,.4,0,.4-.4v-3.4c.4-.5.7-1.1.9-1.8.6-1.6,1-3.3,1.1-5,.3-3.7.1-7.5.2-11.2v-8.7h1.1c.3,0,.4,0,.4.4v33.5c0,.3-.2.3-.4.3h-34.2c-.2,0-.3,0-.3-.3v-1.2Z"/><path class="cls-33" d="m210.4,93h1.5v2.6c0,.3,0,.4-.4.4q-1.2,0-1.2-1.1v-1.9h0Z"/><path class="cls-25" d="m206.4,93h1.5v2.6c0,.3,0,.5-.5.5q-1.1,0-1.1-1.1v-1.9h.1Z"/><path class="cls-25" d="m214.4,93h1.5v2.6c0,.3,0,.4-.4.4q-1.2,0-1.2-1.1v-1.9h0Z"/><path class="cls-25" d="m208,58.9h-1.5v-2.6c0-.2,0-.4.3-.4q1.2,0,1.2,1.1v1.9Z"/><path class="cls-33" d="m212,58.9h-1.5v-2.6c0-.2,0-.3.3-.4q1.2,0,1.2,1.1v1.9Z"/><path class="cls-25" d="m216,58.9h-1.5v-2.6c0-.2,0-.3.3-.4q1.2,0,1.2,1.1v1.9Z"/><path class="cls-25" d="m216.4,84.7v-1.5h2.5c.3,0,.4.1.4.4,0,1.4.2,1.1-1.1,1.1h-1.8Z"/><path class="cls-25" d="m216.4,76.7v-1.5h2.5c.3,0,.4.1.4.4,0,1.4.2,1.1-1.1,1.1h-1.8Z"/><path class="cls-25" d="m216.4,80.7v-1.5h2.5c.3,0,.4.1.4.4,0,1.4.2,1.1-1.1,1.1h-1.8Z"/><path class="cls-25" d="m216.4,88.7v-1.5h2.5c.3,0,.4.1.4.5q0,1.1-1.1,1.1h-1.8,0Z"/><path class="cls-57" d="m182.5,93h1.5v2.7c0,.2,0,.4-.3.4q-1.2,0-1.2-1.1v-2h0Z"/><path class="cls-57" d="m186.5,93h1.5v2.7c0,.2,0,.4-.3.4q-1.2,0-1.2-1.1v-2h0Z"/><path class="cls-57" d="m194.5,93h1.5v2.6c0,.3,0,.4-.4.4q-1.1,0-1.1-1.1v-1.9Z"/><path class="cls-25" d="m198.4,93h1.5v2.6c0,.3,0,.4-.4.4q-1.1,0-1.1-1.1v-1.9Z"/><path class="cls-25" d="m202.4,93h1.5v2.7c0,.3,0,.4-.4.4q-1.1,0-1.1-1.1v-2h0Z"/><path class="cls-57" d="m190.5,93h1.5v2.6c0,.3,0,.4-.4.4q-1.1,0-1.1-1.1v-1.9Z"/><path class="cls-25" d="m216.4,72.7v-1.5h2.6c.2,0,.3,0,.4.3q0,1.2-1.1,1.2h-1.9Z"/><path class="cls-57" d="m216.4,64.7v-1.5h2.6c.2,0,.3,0,.4.3q0,1.2-1.1,1.2h-1.9Z"/><path class="cls-57" d="m216.4,68.7v-1.5h2.6c.2,0,.3,0,.4.3q0,1.2-1.1,1.2h-1.9Z"/><path class="cls-57" d="m216.4,60.7v-1.5h2.6c.2,0,.3,0,.4.3q0,1.2-1.1,1.2h-1.9Z"/><path class="cls-25" d="m203.9,58.9h-1.5v-2.6c0-.2,0-.4.3-.4q1.2,0,1.2,1.1v1.9Z"/><path class="cls-57" d="m195.9,58.9h-1.5v-2.6c0-.2,0-.4.3-.4q1.2,0,1.2,1.1v1.9Z"/><path class="cls-25" d="m216.4,92.7v-1.5h2.5c.3,0,.4,0,.4.4q0,1.1-1.1,1.1h-1.8Z"/><path class="cls-57" d="m199.9,58.9h-1.5v-2.6c0-.2,0-.3.3-.4q1.2,0,1.2,1.1v1.9Z"/><path class="cls-57" d="m191.9,58.9h-1.5v-2.6c0-.2,0-.4.3-.4q1.2,0,1.2,1.1v1.9Z"/><path class="cls-18" d="m187.9,58.9h-1.5v-2.6c0-.2,0-.4.3-.4q1.2,0,1.2,1.1v1.9Z"/><path class="cls-18" d="m183.9,58.9h-1.5v-2.6c0-.2,0-.4.3-.4q1.2,0,1.2,1.1v1.9Z"/><path class="cls-25" d="m181.4,79.2v1.5h-1.9c-.2,0-.4,0-.4-.3q0-1.2,1.2-1.2h1.1,0Z"/><path class="cls-25" d="m181.4,83.2v1.5h-1.9c-.2,0-.4,0-.4-.3q0-1.2,1.2-1.2h1.1,0Z"/><path class="cls-25" d="m181.4,87.2v1.5h-1.9c-.2,0-.4,0-.4-.3q0-1.2,1.1-1.2h1.2Z"/><path class="cls-25" d="m181.4,75.2v1.5c-.7,0-1.3,0-2,0-.2,0-.3,0-.3-.3q0-1.2,1.2-1.2h1.1Z"/><path class="cls-57" d="m181.4,67.2v1.5h-2c-.2,0-.3,0-.3-.3q0-1.2,1.1-1.2h1.2Z"/><path class="cls-57" d="m181.4,63.2v1.5h-2c-.2,0-.3,0-.3-.3q0-1.2,1.1-1.2h1.2Z"/><path class="cls-18" d="m181.4,59.2v1.5h-2c-.2,0-.3,0-.3-.3q0-1.2,1.1-1.2h1.2Z"/><path class="cls-57" d="m181.4,71.2v1.5h-2c-.2,0-.3,0-.3-.3q0-1.2,1.1-1.2h1.2Z"/><path class="cls-25" d="m181.5,91.5v1.2h-2c-.2,0-.3,0-.4-.3q0-1.2,1.1-1.2h1.2v.3h0Z"/><path class="cls-18" d="m185.2,87.9v-24.8c0-.4.1-.5.5-.5h25.5v4.5c0,3.2.1,6.5,0,9.7,0,1.3-.4,2.6-.9,3.8-.7,1.8-1.8,3.4-3.3,4.6-2.3,1.7-5.2,2.6-8.1,2.6h-13.7Zm14.4-5.2h2.2v2.7q0,1.1,1.1,1.1c.3,0,.4-.1.4-.4v-3.4h2.3c.3,0,.4,0,.4-.4v-1.8h2.2q1.1,0,1.1-1.1c0-.3-.1-.4-.4-.4h-2.9v-2.2h2.2q1.1,0,1.1-1.1c0-.3-.1-.4-.4-.4h-2.9v-2.2h2.2q1.1,0,1.1-1.1c0-.3-.1-.4-.4-.4h-2.9v-1.9c0-.3,0-.4-.3-.4h-2.4v-2.6q0-1.1-1.1-1.1c-.3,0-.4,0-.4.4v3.3h-2.2v-2.6q0-1.1-1.1-1.1c-.3,0-.4,0-.4.4v3.3h-2.2v-2.6q0-1.1-1.1-1.1c-.3,0-.4,0-.4.4v3.3h-2.1c-.3,0-.4,0-.4.4v1.9h-2.3q-1.1,0-1.1,1.1c0,.3.1.4.4.4h3.1v2.2h-2.3q-1.1,0-1.1,1.1c0,.3.1.4.4.4h3.1v2.2h-2.3q-1.1,0-1.1,1.1c0,.3.1.4.4.4h3.1v1.9q0,.3.4.3h2.2v2.7q0,1.1,1.1,1.1c.3,0,.4-.1.4-.4v-3.4h2.2v2.7q0,1.1,1.1,1.1c.3,0,.4-.1.4-.4v-3.4h-.4Z"/><path class="cls-22" d="m185.2,87.9h13.6c2.9,0,5.8-.8,8.1-2.6,1.5-1.2,2.7-2.8,3.3-4.6.5-1.2.8-2.5.9-3.8.2-3.2,0-6.5,0-9.7v-4.5c.5,0,1.1-.2,1.4,0s0,.9,0,1.3v25c0,.3,0,.4-.4.4h-26.6c-.4,0-.6,0-.5-.5v-1h.2Z"/><path class="cls-53" d="m191.8,71.5v-1.9c0-.3,0-.4.4-.4h12.2c0,2.4.1,4.8-.1,7.1,0,1.1-.6,2.2-1.4,3v-6.8c0-.3,0-.5-.4-.4h-7.4q-.3,0-.3.3v6.6c0,.4.1.5.5.5h7.4c0,.2-.2.3-.4.4-1,.8-2.3,1.1-3.6,1.1h-6.8v-9.6h-.1Z"/><path class="cls-24" d="m191.9,81.1h6.8c1.3,0,2.6-.3,3.6-1.1.2,0,.3-.2.4-.4.1,0,.2-.2.3-.3.8-.8,1.3-1.9,1.4-3,.2-2.4,0-4.7.1-7.1h1.2c.3,0,.3.1.3.4v12.6c0,.3-.1.4-.4.4h-13.4c-.3,0-.4,0-.4-.3v-1.2h0Z"/><path class="cls-23" d="m201.8,82.6h1.5v3.4c0,.3,0,.4-.4.4q-1.1,0-1.1-1.1v-2.7Z"/><path class="cls-51" d="m198.1,82.6h1.5v3.4c0,.3,0,.4-.4.4q-1.1,0-1.1-1.1v-2.7Z"/><path class="cls-23" d="m194.4,82.6h1.5v3.4c0,.3,0,.4-.4.4q-1.1,0-1.1-1.1v-2.7Z"/><path class="cls-23" d="m195.8,69.2h-1.5v-3.3c0-.3,0-.4.4-.4q1.1,0,1.1,1.1v2.6Z"/><path class="cls-23" d="m199.6,69.2h-1.5v-3.3c0-.3,0-.4.4-.4q1.1,0,1.1,1.1v2.6Z"/><path class="cls-16" d="m203.3,69.2h-1.5v-3.3c0-.3,0-.4.4-.4q1.1,0,1.1,1.1v2.6Z"/><path class="cls-16" d="m191.8,78.9v1.5h-3.1c-.3,0-.4,0-.4-.4q0-1.1,1.1-1.1h2.4Z"/><path class="cls-16" d="m191.8,75.2v1.5h-3.1c-.3,0-.4,0-.4-.4q0-1.1,1.1-1.1h2.4Z"/><path class="cls-23" d="m191.8,71.5v1.5h-3.1c-.3,0-.4,0-.4-.4q0-1.1,1.1-1.1h2.4Z"/><path class="cls-51" d="m206,76.7v-1.5h2.9c.3,0,.4,0,.4.4q0,1.1-1.1,1.1h-2.2Z"/><path class="cls-51" d="m206,73v-1.5h2.9c.3,0,.4,0,.4.4q0,1.1-1.1,1.1h-2.2Z"/><path class="cls-16" d="m206,80.4v-1.5h2.9c.3,0,.4,0,.4.4q0,1.1-1.1,1.1h-2.2Z"/><path class="cls-26" d="m194.8,78.2v-5.6q0-.3.3-.3h6.3v3.1c0,.6-.1,1.1-.5,1.6-.6.8-1.6,1.3-2.6,1.2h-3.5Z"/><path class="cls-28" d="m194.8,78.2h3.6c1,0,2-.4,2.6-1.2.3-.5.5-1,.5-1.6v-3.1h1.1c.4,0,.4.1.4.4v6.8c0,.1-.2.2-.3.3h-7.4c-.4,0-.6,0-.5-.5v-1.1h0Z"/><path d="m175.1,41.9c-2.1-3.1-1.2-7.2,1.8-9.3.1,0,.2-.2.4-.2,1.9-1.3,4.4-1.4,6.5-.4l-1.4,2.7c-1.1-.6-2.5-.5-3.5.2-1.9,1.1-2.6,3.6-1.5,5.5,1.1,1.9,3.6,2.6,5.5,1.5,1.2-.7,1.9-1.9,2-3.2h3c0,2.3-1.3,4.3-3.2,5.5-3.1,2-7.3,1.2-9.3-1.9,0,0-.1-.2-.2-.3h-.1Z"/><path d="m197.8,33.7l1.1,5.7-2.8.5-1-5.3c0-.8-.7-1.5-1.5-1.5-.1,0-.3,0-.4,0-.9.1-1.6,1-1.5,1.9,0,0,0,.2,0,.3l.9,5.1-2.8.5-2.4-13.1,2.8-.5.9,4.6c.5-.9,1.5-1.5,2.5-1.6,1.9-.4,3.7.7,4.2,3.2h-.1Z"/><path d="m200.6,30.2l2.8.2-.5,9.5-2.8-.2.5-9.5Zm-.1-2.6c0-.9.9-1.7,1.8-1.6.9,0,1.7.9,1.6,1.8,0,.9-.9,1.6-1.8,1.6-.9,0-1.6-.8-1.6-1.8,0,0,0,0,0,0h0Z"/><path d="m215.5,38.2c-.6,2.5-3.2,4.1-5.7,3.4,0,0,0,0-.1,0-1.1-.3-1.9-1-2.4-2l-1.4,4.5-2.7-.9,4-12.7,2.7.9-.3.9c.9-.5,2-.6,3-.3,2.4.8,3.7,3.5,2.9,5.9,0,0,0,.1,0,.2h0Zm-2.7-.9c.4-1.1-.1-2.4-1.2-2.8,0,0-.2,0-.3,0-1.1-.4-2.3.1-2.7,1.2,0,0,0,.2,0,.3-.4,1.1.1,2.4,1.2,2.8,0,0,.2,0,.3,0,1.2.4,2.4-.2,2.9-1.4,0,0,0,0,0-.1h0Z"/><path d="m222.1,45.1c-1.2,1.8-3.3,1.5-5,.3-1.5-.9-2.3-2.5-2.1-4.2l2.8.3c-.2.7,0,1.5.7,1.8.6.4,1,.4,1.2,0,.6-.9-3.5-3.1-1.7-5.8,1.2-1.7,3.2-1.6,4.8-.4,1.3.8,2,2.3,1.9,3.8l-2.7-.3c0-.6,0-1.1-.6-1.4-.4-.3-.8-.3-1,0-.6.9,3.6,3,1.6,5.9h.1Z"/><path class="cls-34" d="m87.5,43.9c3.2-.1,6.3,1,8.7,3.2.6.4.7,1.2.3,1.8-.4.5-1.1.5-1.8,0-1.8-1.8-4.3-2.7-6.8-2.6-2.1,0-4.1.9-5.7,2.3-.2.2-.4.4-.6.5-.5.4-1.2.3-1.6-.2,0,0,0,0,0,0-.4-.4-.4-1.1,0-1.5.6-.6,1.3-1.2,2.1-1.6,1.6-1.1,3.5-1.7,5.5-1.8h0Z"/><path class="cls-12" d="m88,48.1c2.2,0,4.3.8,5.9,2.3.7.6.8,1.3.3,1.8-.5.5-1.3.5-1.8,0,0,0,0,0,0,0-2.4-2.2-6-2.2-8.4,0-.7.6-1.3.6-1.8,0s-.4-1.2.2-1.8c1.5-1.4,3.5-2.2,5.6-2.3h0Z"/><path class="cls-12" d="m88.1,52.3c1.3,0,2.6.5,3.6,1.4.5.4.6,1.1.3,1.6h0c-.4.5-1.1.6-1.6.2,0,0,0,0,0,0h0c-1.2-1.1-2.9-1.1-4.1,0-.3.4-1,.5-1.4.2,0,0-.1-.1-.2-.2h0c-.4-.6-.3-1.4.2-1.8,0,0,0,0,0,0h0c.9-.9,2.2-1.4,3.5-1.4h-.3Z"/><path class="cls-49" d="m108.7,77.3c-1.5-5.3,3.3-16.5-4.9-17.2h-31c-8.7.2-3.9,11.8-5.4,17.2v6.7c1.5,5.3-3.2,16.1,4.6,17.2h32c7.9-1,3.2-12,4.7-17.2v-6.7Z"/><circle class="cls-3" cx="88.1" cy="64.9" r="45"/><path d="m64.4,47.3l-1.2,2.2-5.7-3.2,2.7,4.8v.3l-5.7.2,5.7,3.2-1.2,2.2-9.8-5.5,1.2-2.2,5.8-.2-2.9-5.1,1.2-2.2,9.8,5.5h0Z"/><path d="m62.2,44.1c-1.6-1.7-1.4-4.4.3-5.9,0,0,0,0,.1,0,1.8-1.5,4.4-1.4,6,.4,1.5,1.8,1.4,4.5-.4,6-1.8,1.5-4.5,1.4-6-.4h0Zm4.6-4c-.7-.7-1.8-.7-2.6,0-.7.7-.7,1.8,0,2.6.7.7,1.8.7,2.5,0,.7-.6.9-1.7.3-2.4,0,0-.1-.1-.2-.2Z"/><path d="m74.6,27.6l4.6,10.2-2.2,1-.3-.7c-.3.9-.9,1.6-1.8,1.9-2,.8-4.3,0-5.1-2,0,0,0-.2-.1-.3-1-1.9-.3-4.3,1.6-5.3,0,0,0,0,.1,0,.8-.4,1.8-.4,2.6,0l-1.6-3.6,2.2-1Zm.8,7.5c-.5-.9-1.6-1.3-2.5-.8-.9.5-1.3,1.6-.8,2.5.5.9,1.5,1.2,2.4.8.9-.4,1.4-1.5,1-2.5,0,0,0,0,0-.1Z"/><path d="m84,35.1c.6,0,1.1-.3,1.4-.8l2.1.8c-.6,1.2-1.8,2-3.2,2.1-2.3.5-4.5-1-4.9-3.2,0-.1,0-.2,0-.4-.4-2.3,1.1-4.4,3.4-4.8,0,0,.1,0,.2,0,2.2-.3,4.2,1.2,4.6,3.3,0,0,0,.2,0,.3v1l-5.6.8c.4.8,1.3,1.1,2.1.8h0Zm1.1-3.1c-.3-.8-1.1-1.2-1.9-1-.8,0-1.5.7-1.6,1.5l3.4-.5h0Z"/><path d="m101.3,33.9l-1,4.8-2.3-.5,1-4.6c.2-.8,0-1.4-.9-1.5s-1.3.3-1.5,1.2l-.9,4.4-2.3-.5,1-4.6c.2-.8,0-1.4-.9-1.5s-1.3.3-1.5,1.2l-.9,4.4-2.3-.5,1.7-7.8,2.3.5-.2.7c.6-.6,1.5-.7,2.3-.5.8.1,1.5.7,1.8,1.5.7-.6,1.6-.8,2.5-.6,1.8.4,2.7,1.9,2.3,3.9h-.2Z"/><path d="m104,34.3l5.2,3.1-1.2,2-5.2-3.1,1.2-2Z"/><path d="m114.2,47.9l-.8-.8-1.3,1.3-1.8-1.9,1.3-1.3-3.6-3.6,1.7-1.7,7.5-2.4,1.9,2-7.5,2.4,1.6,1.7,1.7-1.7,1.8,1.9-1.7,1.7.8.8-1.7,1.7h0Z"/><path d="m122.7,56.9c-2.5,1.4-5.6.5-7-2-.1-.2-.2-.4-.3-.6-1.5-2.9-.4-6.4,2.4-7.9,0,0,.1,0,.2,0,2.9-1.4,6.4-.2,7.7,2.7,0,0,0,0,0,.1.9,1.7.8,3.8-.2,5.5l-2.1-1.4c.5-.9.5-2.1,0-3-.7-1.6-2.6-2.3-4.3-1.6,0,0-.2,0-.2.1-1.6.7-2.4,2.7-1.6,4.3,0,0,0,.2.1.3.4,1.1,1.6,1.9,2.8,1.8l-1.3-2.7,2-1,2.4,5.1-.9.4h.2Z"/><path d="m85.9,82.1v4.6h-2v3h-5v-3h-8.6v-4.6l5.8-12h5.5l-5.9,12h3.1v-3.5h5v3.5h2.1Z"/><path d="m107.1,78.5v2c.2,5.1-3.7,9.5-8.8,9.7-.3,0-.6,0-.9,0-2.8,0-5.5-1-7.5-2.9-1.9-1.9-3-4.5-2.9-7.2,0-2.7,1-5.3,2.9-7.3,1.9-2,4.6-3.1,7.3-3,1.8-.2,3.5.3,5,1.2,1.5.8,2.7,1.9,3.6,3.3l-4.2,2.4c-.4-.6-1-1.1-1.7-1.5-.8-.4-1.7-.6-2.6-.6-1.4,0-2.8.5-3.8,1.5-1,1-1.6,2.4-1.5,3.9,0,1.4.5,2.8,1.5,3.8,1.1,1.1,2.6,1.6,4.1,1.6,1.7,0,3.8-.9,4.5-2.6h-4.7v-4.3h9.7,0Z"/><line class="cls-1" x1="196.5" y1="251.1" x2="196.5" y2="269.7"/><line class="cls-1" x1="59" y1="269.2" x2="340.9" y2="269.2"/><line class="cls-6" x1="59.4" y1="269" x2="59.4" y2="278.3"/><polygon class="cls-55" points="52.9 276.4 59.4 287.6 65.9 276.4 52.9 276.4"/><line class="cls-6" x1="153.1" y1="269" x2="153.1" y2="278.3"/><polygon class="cls-55" points="146.6 276.4 153.1 287.6 159.6 276.4 146.6 276.4"/><line class="cls-6" x1="246.7" y1="269" x2="246.7" y2="278.3"/><polygon class="cls-55" points="240.3 276.4 246.7 287.6 253.2 276.4 240.3 276.4"/><line class="cls-6" x1="340.4" y1="269" x2="340.4" y2="278.3"/><polygon class="cls-55" points="333.9 276.4 340.4 287.6 346.9 276.4 333.9 276.4"/></svg>