<?xml version="1.0" encoding="UTF-8"?><svg id="Layer_1" xmlns="http://www.w3.org/2000/svg" viewBox="0 0 400 400"><defs><style>.cls-1,.cls-2,.cls-3,.cls-4,.cls-5,.cls-6{stroke-miterlimit:10;}.cls-1,.cls-7{fill:#fff;}.cls-1,.cls-6{stroke:#231f20;stroke-width:2px;}.cls-2{stroke:#a5262d;}.cls-2,.cls-3,.cls-4,.cls-5{stroke-width:4px;}.cls-2,.cls-3,.cls-4,.cls-5,.cls-6{fill:none;}.cls-8{fill:#e1dde1;}.cls-9{fill:#565959;}.cls-10{fill:#bd694f;}.cls-3{stroke:#0018c6;}.cls-11{fill:#ede6e3;}.cls-12{fill:#eb917f;}.cls-13{fill:#b9a1d3;}.cls-14{fill:#fbe501;}.cls-15{fill:#414343;}.cls-16,.cls-17,.cls-18{opacity:.5;}.cls-19{fill:#f9f3b1;}.cls-20{fill:#934d36;}.cls-21{fill:#f3bd99;}.cls-4{stroke:#c000e2;}.cls-22{fill:#007d9e;}.cls-23{fill:#7ac943;}.cls-24{fill:#cac3cb;}.cls-25{fill:#4d5961;}.cls-26{fill:#f4bd99;}.cls-27{fill:#fedd46;}.cls-28{fill:#2a7ec6;}.cls-29{fill:#f2eff2;}.cls-30{fill:#5e6b74;}.cls-31{fill:#06687f;}.cls-5{stroke:#00b51e;}.cls-32{fill:#adbbff;}.cls-33{fill:#42210b;}.cls-34{fill:#baa1d3;}.cls-35{fill:#a0280e;}.cls-36{fill:#000d6a;}.cls-37{fill:#eef0fb;}.cls-38{fill:#6e6f6e;}.cls-39{fill:#ff931e;}.cls-40{fill:#0071bc;}.cls-41{fill:#97d6e5;}.cls-42{fill:#7dcbe5;}.cls-43{fill:#ff1d25;}.cls-44{fill:#eecf15;}.cls-45{fill:#9dd8e6;}.cls-17{fill:#e7d19a;}.cls-17,.cls-18{isolation:isolate;}.cls-46{fill:#529aff;}.cls-47{fill:#6a3223;}.cls-48{fill:#0092b9;}.cls-49{fill:#e5eff1;}.cls-50{fill:#1a1a1a;}.cls-51{fill:#baa2d3;}.cls-52{fill:#d8ceca;}.cls-53{fill:#ede4e1;}.cls-54{fill:#525f67;}.cls-55{fill:#cbc4cc;}.cls-56{fill:#69a6fe;}.cls-57{fill:#29abe2;}.cls-58{fill:#db411d;}.cls-59{fill:#414242;}.cls-18{fill:#ccf2ff;}.cls-60{fill:#231f20;}.cls-61{fill:#b9c2fe;}.cls-62{fill:#924d36;}.cls-63{fill:#c65d42;}.cls-64{fill:#914d37;}.cls-65{fill:#9fddea;}.cls-66{fill:#067fa6;}.cls-67{fill:#3636a0;}</style></defs><circle class="cls-5" cx="59.4" cy="332.2" r="40.5"/><path d="m39.5,310c2.1,1.7,2.4,4.9.7,7-.1.2-.3.3-.4.5-2,2.4-5.5,2.7-7.9.7-2.4-2-2.7-5.5-.7-7.9,0-.1.2-.2.3-.3,1.2-1.4,3.1-2.1,4.9-1.8l-.5,2.3c-1-.1-2,.3-2.7,1.1-1.2,1.2-1.2,3.2,0,4.4,0,0,.1,0,.2.1,1.3,1.3,3.2,1.2,4.6-.4.9-.8,1.2-2.1.6-3.1l-2,2.1-1.5-1.4,3.7-4,.6.6h0Z"/><path d="m49.5,306.3c1,1.9.3,4.2-1.5,5.2,0,0,0,0,0,0-.7.4-1.6.5-2.4.2l1.7,3.4-2.1,1-4.8-9.6,2.1-1,.4.6c.3-.8.8-1.5,1.6-1.9,1.9-.8,4.2,0,5,2h0Zm-2.1,1c-.4-.9-1.5-1.3-2.4-.9,0,0,0,0,0,0-.9.4-1.3,1.4-.9,2.3,0,0,0,.2.1.3.4.9,1.5,1.3,2.4.9,0,0,0,0,0,0,.9-.4,1.3-1.4.9-2.3,0,0,0-.2-.1-.3h0Z"/><path d="m58.3,303.9l.7,4.7-2.2.4-.6-4.3c0-.7-.7-1.3-1.4-1.2,0,0,0,0,0,0-.8,0-1.3.7-1.2,1.8l.6,4.1-2.2.4-1.6-10.6,2.2-.4.5,3.8c.4-.7,1.2-1.2,2-1.3,1.5-.3,3,.6,3.3,2.7h0Z"/><path d="m60.1,304.7c.3-2.2,2.4-3.7,4.6-3.4,2.2.3,3.7,2.2,3.4,4.4,0,0,0,.1,0,.2-.3,2.2-2.4,3.7-4.6,3.4-2.2-.3-3.7-2.3-3.4-4.5,0,0,0,0,0-.1Zm5.8.9c.2-.9-.4-1.8-1.3-2,0,0,0,0-.1,0-.9-.2-1.8.4-1.9,1.3,0,0,0,.2,0,.3-.2.9.4,1.8,1.3,2,0,0,0,0,.1,0,.9.2,1.8-.4,1.9-1.3,0,0,0-.2,0-.3h0Z"/><path d="m76.7,308.9l-2.1,4.2-2.1-1,1.9-4c.4-.6.2-1.3-.4-1.7,0,0-.1,0-.2-.1-.7-.4-1.5-.1-1.9.5,0,0,0,.2-.1.3l-1.8,3.8-2.1-1,3.3-6.9,2.1,1-.3.6c.7-.4,1.6-.3,2.3,0,1.4.6,2.1,2.2,1.2,4.1h0Z"/><path d="m79.5,314.9c.4.4.9.6,1.4.5l.6,2c-1.3.3-2.6-.1-3.5-1.1-1.7-1.4-2-3.9-.6-5.6,0,0,.1-.2.2-.2,1.4-1.6,3.9-1.8,5.6-.4,0,0,.1.1.2.2,1.6,1.4,1.7,3.8.3,5.4,0,0-.1.1-.2.2-.2.3-.4.5-.7.6l-4-3.7c-.4.8,0,1.4.6,2.1h0Zm3-1.1c.4-.7.3-1.5-.4-2-.5-.6-1.4-.7-2.1-.3l2.4,2.2Z"/><path d="m95.5,323.7l-1.9.8-9.4.4-1.1-2.3,9-.4-1.8-4,2.2-1,2.9,6.4h0Z"/><path class="cls-47" d="m43.8,318.7h18.5c1.8,0,3.3,1.5,3.3,3.3,0,0,0,0,0,0v39.5c0,1.8-1.5,3.3-3.3,3.3,0,0,0,0,0,0h-18.5c-1.8,0-3.3-1.5-3.3-3.3,0,0,0,0,0,0v-39.5c0-1.8,1.5-3.3,3.3-3.3,0,0,0,0,0,0Z"/><path class="cls-63" d="m57.5,346.8c-.2,0-.5,0-.7,0-.5,0-1.1-.2-1.6-.4-.6,0-1.4-.3-2-.4-.8-.2-1.5-.3-2.3-.5-.1,0-.3,0-.4,0-.2,0-.4-.4-.3-.6,0,0,0,0,0,0,.2-.3.3-.7.5-1.1.3-.6.5-1.2.8-1.8.2-.4.4-.8.7-1.2.4-.6,1.1-.7,1.7-.4.1,0,.2.2.3.3.2.2.4.5.5.7.4.6.8,1.2,1.2,1.8l1.9,3c0,0,.1.2.2.3,0,.3,0,.4-.4.4h0Z"/><path class="cls-63" d="m58.8,332.6h.3c.3,0,.4.2.3.4s-.2.3-.3.5c-.7.9-1.3,1.8-2.1,2.7-.7.9-1.3,1.6-2,2.3-.3.4-.8.6-1.3.8-.6.1-1.2,0-1.6-.4-.3-.2-.5-.5-.7-.8-.6-1-1.3-1.9-1.9-2.9-.3-.4-.5-.9-.8-1.3h0c-.2-.4,0-.5.3-.5l3.9-.3c1.2,0,2.3-.2,3.4-.3.8,0,1.6,0,2.4-.2h0Z"/><path class="cls-63" d="m55.8,318.7h18.5c1.8,0,3.3,1.5,3.3,3.3,0,0,0,0,0,0v39.5c0,1.8-1.5,3.3-3.3,3.3,0,0,0,0,0,0h-18.5c-1.8,0-3.3-1.5-3.3-3.3,0,0,0,0,0,0v-39.5c0-1.8,1.5-3.3,3.3-3.3,0,0,0,0,0,0Z"/><path class="cls-35" d="m74.4,318.7h-18.5c-1.8,0-3.3,1.5-3.3,3.3,0,0,0,0,0,0v39.5l25.1-39.5c0-1.8-1.5-3.3-3.3-3.3,0,0,0,0,0,0h0Z"/><path class="cls-57" d="m75.7,358.9h-21.2c-.8,0-1.4-.6-1.4-1.4,0,0,0,0,0,0v-35.6c0-.9.7-1.6,1.5-1.6h21.1c.8,0,1.4.6,1.4,1.4,0,0,0,0,0,0v35.7c0,.8-.6,1.4-1.4,1.4,0,0,0,0,0,0h0Z"/><path class="cls-7" d="m66.8,363.3h-.4c-.3,0-.6,0-.8-.2-.3,0-.7,0-1-.2-.4,0-.8-.1-1.2-.3h-.2c-.2,0-.2-.2,0-.3s.2-.4.3-.5.3-.6.4-.9c0-.2.2-.4.4-.5.2-.3.5-.4.8-.2,0,0,.1.1.2.2,0,0,.2.3.3.4.2.3.4.6.5.9.3.5.6,1,.9,1.4v.2c0,0,0,.3-.2.3v-.3Z"/><path class="cls-43" d="m67,333.8h-.4c-.3,0-.6,0-.9-.2-.4,0-.7-.2-1.1-.2-.4,0-.8-.1-1.2-.3h-.2c-.2,0-.2-.2-.2-.4s.2-.4.3-.5.3-.6.5-.9c0-.2.2-.4.4-.6.2-.3.5-.4.8-.2,0,0,.1.1.2.2,0,0,.2.3.3.4.2.3.4.6.6.9.4.5.6,1,1,1.5v.2c0,.2,0,.3-.2.3v-.2Z"/><path class="cls-43" d="m67.7,326.4h.2c0,0,.2,0,0,.2,0,0-.1.2-.2.3l-1.1,1.4c-.4.4-.7.8-1,1.3-.2.2-.4.4-.6.4-.3,0-.6,0-.8-.2-.2-.1-.3-.3-.4-.5-.4-.5-.6-1-1-1.5-.2-.2-.3-.4-.4-.6h0c0-.2,0-.3.2-.3.7,0,1.4,0,2.1-.2.6,0,1.2,0,1.8,0h1.3l-.2-.2Z"/><path d="m63.9,348.3v1.8h-.7v1.2h-1.9v-1.2h-3.3v-1.8l2.2-4.6h2.2l-2.2,4.7h1.2v-1.4h1.9v1.4h.7,0Z"/><path d="m72,346.9v.8c0,1-.4,2-1.1,2.7-.7.7-1.7,1-2.7,1-1.1,0-2.1-.4-2.9-1.2-.7-.7-1.1-1.7-1.2-2.8,0-1.1.4-2.1,1.2-2.8.7-.7,1.7-1.1,2.8-1.2.7,0,1.4.1,2,.4.6.3,1,.7,1.4,1.3l-1.6.9c-.1-.2-.4-.4-.6-.5-.3-.1-.7-.2-1-.2-.5,0-1.1.2-1.4.5-.4.4-.6,1-.5,1.5,0,.5.2,1.1.5,1.4.4.4,1,.6,1.6.6.7,0,1.4-.3,1.7-1h-1.8v-1.6h3.7Z"/><path class="cls-18" d="m54.2,356.9c-.2.3-.6.4-.9.2-.2-.1-.3-.3-.3-.6v-34.7c0-.8.7-1.5,1.5-1.5,0,0,0,0,0,0h21.3c.4,0,.7.3.8.7,0,.2,0,.4-.1.5l-22.2,35.5Z"/><polyline class="cls-35" points="68.3 321.9 61.6 321.9 60.3 318.7 69.8 318.7"/><path class="cls-7" d="m67.7,320.8c0,.2-.2.4-.4.5,0,0,0,0,0,0h-4.2c-.2,0-.4-.2-.5-.4,0,0,0,0,0,0h0c0-.2.2-.4.4-.5,0,0,0,0,0,0h4.2c.2,0,.4.2.5.4,0,0,0,0,0,0Z"/><rect class="cls-33" x="42.5" y="320.9" width="8.8" height="4.9" rx="1.8" ry="1.8"/><circle cx="44.9" cy="323.6" r=".8"/><path class="cls-42" d="m45,325.1c-1,0-1.8-.8-1.8-1.8,0-1,.8-1.8,1.8-1.8,1,0,1.8.8,1.8,1.8,0,0,0,0,0,0,0,1-.8,1.7-1.7,1.7,0,0,0,0,0,0Zm-.8-1.9c0,.2,0,.4,0,.6.2.3.5.5.9.5.3,0,.6-.3.7-.6.1-.4,0-.8-.5-1-.2-.1-.4-.1-.6,0-.5,0-.7.3-.6.7h0Z"/><path class="cls-65" d="m44.8,322.5c.2,0,.4,0,.6,0,.4.2.5.6.5,1,0,.4-.4.5-.7.6-.4,0-.7-.1-.9-.5-.1-.2-.2-.4,0-.6,0,0,.3,0,.4,0,0,.2,0,.4.3.4s.5,0,.5-.3,0-.5-.5-.6c0-.2,0-.4-.2-.4v.2Z"/><path class="cls-49" d="m44.8,322.5c.1.1.2.3.2.5,0,.2-.2.3-.4.4-.2,0-.3,0-.4,0,0-.5.2-.7.6-.7h0Z"/><circle cx="48.8" cy="323.6" r=".8"/><path class="cls-42" d="m49,325.1c-1,0-1.8-.8-1.8-1.8,0-1,.8-1.8,1.8-1.8,1,0,1.8.8,1.8,1.8,0,0,0,0,0,0,0,1-.8,1.7-1.7,1.7,0,0,0,0,0,0Zm-.8-1.9c0,.2,0,.4,0,.6.2.3.5.5.9.5.3,0,.6-.3.7-.6.1-.4,0-.8-.4-1-.2-.1-.4-.1-.6,0-.5,0-.7.3-.6.7h0Z"/><path class="cls-65" d="m48.7,322.5c.2,0,.4,0,.6,0,.4.2.5.6.5,1,0,.4-.4.5-.7.6-.4,0-.7-.1-.9-.5-.1-.2-.2-.4,0-.6,0,0,.3,0,.4,0,0,.2,0,.4.3.4s.4,0,.5-.3,0-.5-.5-.6c0-.2,0-.4-.2-.4v.2Z"/><path class="cls-49" d="m48.7,322.5c.1.1.2.3.2.5,0,.2-.2.3-.4.4-.2,0-.3,0-.4,0,0-.5.2-.7.6-.7h0Z"/><circle class="cls-5" cx="153.1" cy="332.2" r="40.5"/><path d="m132.9,308.4c2,1.7,2.3,4.7.6,6.7,0,.1-.2.2-.3.3-1.9,2.2-5.3,2.5-7.5.6,0,0,0,0,0,0-2.2-2-2.3-5.3-.4-7.4,0,0,0,0,0,0,1.2-1.3,2.9-2,4.7-1.7l-.5,2.2c-1-.1-1.9.2-2.5,1-1.1,1.1-1.1,2.9,0,4,0,0,.2.1.2.2,1.3,1.2,3,1.1,4.3-.4.9-.7,1.1-2,.5-3l-1.8,2-1.5-1.4,3.4-3.8.6.5h0Z"/><path d="m142.1,304.6c1,1.7.5,3.9-1.2,4.9,0,0,0,0,0,0-.7.4-1.6.5-2.3.3l1.7,3.1-1.9,1-4.8-8.9,1.9-1,.4.6c.2-.8.7-1.4,1.4-1.8,1.8-.9,4,0,4.9,1.7Zm-1.9,1c-.4-.8-1.3-1.2-2.2-.8,0,0-.1,0-.2,0-.8.4-1.2,1.4-.8,2.2,0,0,0,0,0,.1.4.8,1.3,1.2,2.2.8,0,0,.1,0,.2,0,.8-.4,1.2-1.4.8-2.2,0,0,0,0,0-.1h0Z"/><path d="m150.2,302l.9,4.3-2.2.4-.8-4c0-.6-.6-1.1-1.2-1.1-.1,0-.2,0-.3,0-.7,0-1.2.7-1.1,1.3,0,.1,0,.2,0,.4l.8,3.9-2.2.5-2.1-9.9,2.2-.4.7,3.5c.4-.7,1-1.2,1.8-1.3,1.5-.3,2.9.6,3.2,2.1,0,0,0,.2,0,.3h0Z"/><path d="m151.8,302.7c.1-2.1,1.9-3.7,4.1-3.6,2.1.1,3.7,1.9,3.6,4.1s-1.9,3.7-4.1,3.6c0,0,0,0,0,0-2.1-.1-3.7-1.9-3.5-4,0,0,0,0,0,0Zm5.5.5c0-.9-.6-1.7-1.5-1.8,0,0,0,0,0,0-.9,0-1.7.6-1.8,1.5,0,.9.6,1.7,1.5,1.8,0,0,0,0,0,0,.9,0,1.7-.6,1.8-1.5Z"/><path d="m167.7,305.4l-1.5,4.1-2-.8,1.4-3.9c.3-.6.1-1.3-.5-1.6,0,0-.2,0-.3-.1-.7-.3-1.5,0-1.7.7,0,0,0,.1,0,.2l-1.4,3.7-2-.8,2.5-6.8,2,.8-.3.6c.7-.4,1.6-.4,2.2,0,1.3.5,2.2,1.9,1.4,3.8h0Z"/><path d="m170.8,310.8c.4.3.9.5,1.4.4l.8,1.8c-2.2.5-4.3-.8-4.9-2.9-.3-1.1,0-2.2.5-3.2,1.2-1.7,3.5-2,5.1-.9,0,0,.1.1.2.2,1.6,1.2,2,3.4.8,5,0,0,0,.1-.1.2-.2.3-.4.5-.6.6l-4-3.1c-.2.7.1,1.5.8,1.8h0Zm2.6-1.3c.3-.6,0-1.4-.5-1.8-.6-.5-1.4-.5-2,0l2.5,1.9h0Z"/><path d="m181,321.8c-1.6.9-3.3.4-4.5-1.7-1.2-2.1-.8-3.8.7-4.8.9-.5,1.9-.5,2.8,0,0-.8.6-1.5,1.3-1.9,1.7-1,3.3-.2,4.3,1.4s.8,3.4-.9,4.4c-.7.4-1.5.5-2.2.2,0,1-.6,1.9-1.4,2.3h0Zm-.9-2.2c.6-.4.8-1.2.4-1.8,0,0,0,0,0,0-.5-.7-1.1-1-1.7-.6-.6.4-.8,1.2-.4,1.8,0,0,0,0,0,0,.5.7,1.1,1,1.7.6Zm2.2-4.1c-.5.3-.6.9-.4,1.4.2.5.8.7,1.3.5,0,0,0,0,0,0,.5-.3.6-.9.4-1.4-.2-.5-.8-.7-1.3-.5,0,0,0,0,0,0Z"/><path class="cls-36" d="m137.5,318.7h18.5c1.8,0,3.3,1.5,3.3,3.3,0,0,0,0,0,0v39.5c0,1.8-1.5,3.3-3.3,3.3,0,0,0,0,0,0h-18.5c-1.8,0-3.3-1.5-3.3-3.3,0,0,0,0,0,0v-39.5c0-1.8,1.5-3.3,3.3-3.3,0,0,0,0,0,0Z"/><path class="cls-28" d="m151.2,346.8c-.2,0-.5,0-.7,0-.5,0-1.1-.2-1.6-.4-.6,0-1.4-.3-2-.4-.8-.2-1.5-.3-2.3-.5-.1,0-.3,0-.4,0-.2,0-.4-.4-.3-.6,0,0,0,0,0,0,.2-.3.3-.7.5-1.1.3-.6.5-1.2.8-1.8.2-.4.4-.8.7-1.2.4-.6,1.1-.7,1.7-.4.1,0,.2.2.3.3.2.2.4.5.5.7.4.6.8,1.2,1.2,1.8l1.9,3c0,0,.1.2.2.3,0,.3,0,.5-.4.5h0Z"/><path class="cls-28" d="m152.5,332.6h.3c.3,0,.4.2.3.4s-.2.3-.3.5c-.7.9-1.4,1.8-2.1,2.7s-1.3,1.6-2,2.3c-.3.4-.8.6-1.3.8-.6.1-1.2,0-1.6-.4-.3-.2-.5-.5-.7-.8-.6-1-1.3-1.9-1.9-2.9-.3-.4-.5-.9-.8-1.3h0c-.2-.4,0-.5.3-.5l3.9-.3c1.2,0,2.3-.2,3.4-.3.8,0,1.6,0,2.4-.2h0Z"/><path class="cls-28" d="m149.5,318.7h18.5c1.8,0,3.3,1.5,3.3,3.3,0,0,0,0,0,0v39.5c0,1.8-1.5,3.3-3.3,3.3,0,0,0,0,0,0h-18.5c-1.8,0-3.3-1.5-3.3-3.3,0,0,0,0,0,0v-39.5c0-1.8,1.5-3.3,3.3-3.3,0,0,0,0,0,0Z"/><path class="cls-67" d="m168.1,318.7h-18.5c-1.8,0-3.3,1.5-3.3,3.3,0,0,0,0,0,0v39.5l25.1-39.5c0-1.8-1.5-3.3-3.3-3.3,0,0,0,0,0,0h0Z"/><path class="cls-27" d="m169.4,363.7h-21.2c-.8,0-1.5-.8-1.4-1.6,0,0,0,0,0,0v-40c0-.9.6-1.7,1.5-1.8h21.1c.8,0,1.5.8,1.4,1.6,0,0,0,0,0,0v40.1c0,.8-.6,1.6-1.4,1.6,0,0,0,0,0,0h0Z"/><path class="cls-46" d="m160.7,333.8h-.4c-.3,0-.6,0-.9-.2-.4,0-.7-.2-1.1-.2-.4,0-.8-.1-1.2-.3h-.2c-.2,0-.2-.2-.2-.4s.2-.4.3-.5.3-.6.5-.9c0-.2.2-.4.4-.6.2-.3.5-.4.8-.2,0,0,.1.1.2.2,0,0,.2.3.3.4.2.3.4.6.6.9.4.5.6,1,1,1.5v.2c0,.2,0,.3-.2.3v-.2Z"/><path class="cls-46" d="m161.4,326.4h.2c0,0,.2,0,0,.2,0,0-.1.2-.2.3l-1.1,1.4c-.4.4-.7.8-1,1.3-.2.2-.4.4-.6.4-.3,0-.6,0-.8-.2-.2-.1-.3-.3-.4-.5-.4-.5-.6-1-1-1.5-.2-.2-.3-.4-.4-.6h0c0-.2,0-.3.2-.3.7,0,1.4,0,2.1-.2.6,0,1.2,0,1.8,0h1.3l-.2-.2Z"/><path d="m154.7,346.3c.7,0,1.4.2,1.9.6.5.5.7,1.1.7,1.8,0,.7-.3,1.4-.8,1.9-.6.4-1.3.7-2,.6-1.2,0-2.3-.6-2.8-1.7l1.7-1c.1.5.6.8,1.1.8.5,0,.5,0,.6-.2s.2-.3.2-.5,0-.4-.2-.5c-.2-.2-.4-.2-.6-.2h-2.4l.3-4.4h4.4v1.8h-2.7v.8h.5l.2.2Z"/><path d="m165.6,346.9v.8c0,1-.4,2-1.1,2.7-.7.7-1.7,1-2.7,1-1.1,0-2.1-.4-2.9-1.2-.7-.7-1.1-1.7-1.2-2.8,0-1.1.4-2.1,1.2-2.8.7-.7,1.7-1.1,2.8-1.2.7,0,1.4.1,2,.5.6.3,1,.7,1.3,1.3l-1.6.9c-.1-.2-.4-.4-.6-.5-.3-.1-.7-.2-1-.2-.5,0-1.1.2-1.4.5-.4.4-.6,1-.5,1.5,0,.5.2,1.1.5,1.4.4.4,1,.6,1.6.6.7,0,1.4-.3,1.7-1h-1.8v-1.6h3.7Z"/><path class="cls-18" d="m147.9,362.4c-.4.6-1.3.4-1.3-.5v-39.9c0-.9.6-1.7,1.5-1.8h21.3c.5,0,.8.5.7,1,0,.1,0,.2-.1.3l-22.2,40.8Z"/><path class="cls-50" d="m161.4,321.7c0,.2-.2.4-.4.5,0,0,0,0,0,0h-4.2c-.2,0-.4-.2-.5-.4,0,0,0,0,0,0h0c0-.2.2-.4.4-.4,0,0,0,0,0,0h4.2c.2,0,.4.2.5.4,0,0,0,0,0,0Z"/><rect class="cls-33" x="136.2" y="320.9" width="8.8" height="8.6" rx="1.8" ry="1.8"/><circle cx="138.6" cy="323.6" r=".8"/><path class="cls-42" d="m138.7,325.1c-1,0-1.8-.8-1.8-1.8,0-1,.8-1.8,1.8-1.8,1,0,1.8.8,1.8,1.8,0,0,0,0,0,0,0,1-.8,1.7-1.7,1.7,0,0,0,0,0,0Zm-.8-1.9c0,.2,0,.4,0,.6.2.3.5.5.9.5.3,0,.6-.3.7-.6.1-.4,0-.8-.5-1-.2-.1-.4-.1-.6,0-.4,0-.7.3-.6.7h0Z"/><path class="cls-65" d="m138.5,322.5c.2,0,.4,0,.6,0,.4.2.5.6.5,1,0,.4-.4.5-.7.6-.4,0-.7-.1-.9-.5-.1-.2-.2-.4,0-.6,0,0,.3,0,.4,0,0,.2,0,.4.3.4s.4,0,.5-.3,0-.5-.5-.6c0-.2,0-.4-.2-.4v.2Z"/><path class="cls-49" d="m138.5,322.5c.1.1.2.3.2.5,0,.2-.2.3-.4.4-.2,0-.3,0-.4,0,0-.5.2-.7.6-.7h0Z"/><circle cx="142.5" cy="323.6" r=".8"/><path class="cls-42" d="m142.7,325.1c-1,0-1.8-.8-1.8-1.8,0-1,.8-1.8,1.8-1.8,1,0,1.8.8,1.8,1.8,0,0,0,0,0,0,0,1-.8,1.7-1.7,1.7,0,0,0,0,0,0Zm-.8-1.9c0,.2,0,.4,0,.6.2.3.5.5.9.5.3,0,.6-.3.7-.6.1-.4,0-.8-.5-1-.2-.1-.4-.1-.6,0-.5,0-.7.3-.6.7h0Z"/><path class="cls-65" d="m142.4,322.5c.2,0,.4,0,.6,0,.4.2.5.6.5,1,0,.4-.4.5-.7.6-.4,0-.7-.1-.9-.5-.1-.2-.2-.4,0-.6,0,0,.3,0,.4,0,0,.2,0,.4.3.4s.5,0,.5-.3,0-.5-.5-.6c0-.2,0-.4-.2-.4v.2Z"/><path class="cls-49" d="m142.4,322.5c.1.1.2.3.2.5,0,.2-.2.3-.4.4-.2,0-.3,0-.4,0,0-.5.2-.7.6-.7h0Z"/><circle cx="138.6" cy="327" r=".5"/><path class="cls-61" d="m138.7,327.9c-.5,0-1-.4-1-1s.4-1,1-1,1,.4,1,1c0,.5-.4,1-1,1Zm-.5-1.1v.4c.1.2.3.3.5.3.2,0,.3-.2.4-.4,0-.2,0-.4-.3-.5h-.4c-.3,0-.5.2-.4.4h0Z"/><path class="cls-32" d="m138.6,326.4h.4c.2.1.3.3.3.5,0,.2-.2.3-.4.4-.2,0-.5,0-.5-.3,0,0,0-.2,0-.4h.2c0,0,0,.3.2.3s.3,0,.3,0,0-.3-.3-.4v-.3.2Z"/><path class="cls-37" d="m138.6,326.4s0,.2,0,.3,0,.2-.2.2h-.2c0-.3,0-.4.4-.4h0Z"/><circle cx="142.6" cy="327" r=".3"/><path class="cls-42" d="m142.7,327.4c-.3,0-.5-.2-.5-.5s.2-.5.5-.5.5.2.5.5c0,.3-.3.5-.5.5Zm-.3-.6v.2c0,0,.1.1.2.1,0,0,0,0,0,0,0,0,.2,0,.2-.2,0,0,0-.3-.2-.3h-.2c-.2,0-.3,0-.2.2h0Z"/><path class="cls-65" d="m142.6,326.6h.2c0,0,.2.2.2.3,0,0,0,.2-.2.2,0,0-.3,0-.3,0v-.2h0c0,0,0,.1,0,.2h.2c0,0,0-.2-.2-.2v-.2h0Z"/><path class="cls-49" d="m142.6,326.6v.2h0c0,0,0,0,0,0,0,0,0-.2.2-.2h0Z"/><circle class="cls-5" cx="246.9" cy="332.2" r="40.5"/><path d="m226.9,309.1c2.1,1.7,2.4,4.9.7,7-.1.2-.3.3-.4.5-2,2.4-5.5,2.7-7.9.7-2.4-2-2.7-5.5-.7-7.9,0-.1.2-.2.3-.3,1.2-1.4,3.1-2.1,5-1.8l-.5,2.3c-1-.1-2,.3-2.7,1.1-1.2,1.2-1.2,3.2,0,4.4,0,0,.1,0,.2.1,1.4,1.3,3.2,1.2,4.6-.4.9-.8,1.2-2.1.6-3.1l-2,2.1-1.5-1.4,3.7-4,.6.6h0Z"/><path d="m236.9,305.4c1,1.9.3,4.2-1.5,5.2,0,0,0,0,0,0-.7.4-1.6.5-2.4.2l1.7,3.4-2.1,1-4.8-9.6,2.1-1,.4.6c.3-.8.8-1.5,1.6-1.9,1.9-.8,4.2,0,5,2h0Zm-2.1,1c-.4-.9-1.5-1.3-2.4-.9,0,0,0,0,0,0-.9.4-1.3,1.4-.9,2.3,0,0,0,.2.1.3.4.9,1.5,1.3,2.4.8.9-.4,1.3-1.5.8-2.4h0Z"/><path d="m245.7,303l.7,4.7-2.2.4-.6-4.3c0-.7-.7-1.3-1.4-1.2,0,0,0,0,0,0-.8,0-1.3.7-1.2,1.8l.6,4.1-2.2.4-1.6-10.6,2.2-.4.5,3.8c.4-.7,1.2-1.2,2-1.3,1.5-.3,3,.6,3.3,2.7h0Z"/><path d="m247.5,303.8c.3-2.2,2.4-3.7,4.6-3.4,2.2.3,3.7,2.2,3.4,4.4,0,0,0,.1,0,.2-.3,2.2-2.4,3.7-4.6,3.4-2.2-.3-3.7-2.3-3.4-4.5,0,0,0,0,0-.1Zm5.8.9c.2-.9-.4-1.8-1.3-2,0,0,0,0-.1,0-.9-.2-1.8.4-1.9,1.3,0,0,0,.2,0,.3-.2,1,.5,1.9,1.4,2.1.9.2,1.8-.4,1.9-1.3,0,0,0-.2,0-.3h0Z"/><path d="m264.1,308.1l-2.1,4.2-2.1-1,1.9-4c.4-.6.2-1.3-.4-1.7,0,0-.1,0-.2-.1-.7-.4-1.5-.1-1.9.5,0,0,0,.2-.1.3l-1.8,3.8-2.1-1,3.3-6.9,2.1,1-.3.6c.7-.4,1.6-.3,2.3,0,1.3.6,2.1,2.2,1.2,4.1h0Z"/><path d="m266.9,314.1c.4.4.9.6,1.4.5l.6,2c-1.3.3-2.6-.1-3.5-1.1-1.7-1.4-2-3.9-.6-5.6,0,0,.1-.2.2-.2,1.4-1.6,3.9-1.8,5.6-.4,0,0,.1.1.2.2,1.6,1.4,1.7,3.8.3,5.4,0,0-.1.1-.2.2-.2.3-.4.5-.7.6l-4-3.7c-.4.8,0,1.4.6,2.1h0Zm3-1.1c.4-.7.3-1.5-.4-2-.5-.6-1.4-.7-2.1-.3l2.4,2.2Z"/><path d="m277.9,325.7l-5.9-1.1-1.1-2.6,4,.8c-.7-2,.4-4.1,2.4-4.8,1.9-.6,4,.3,4.7,2.2.9,1.9.2,4.1-1.7,5,0,0-.1,0-.2,0-.7.3-1.5.4-2.2.3h0Zm-.6-3.3c.3.8,1.2,1.1,2,.8.8-.3,1.1-1.2.8-2-.3-.8-1.2-1.1-2-.8-.8.3-1.1,1.2-.8,1.9,0,0,0,0,0,0Z"/><path class="cls-58" d="m262.9,324.2l-14.9-5c-1.1-.4-2.3-.4-3.4,0l-14.9,5c-1.4.5-2.3,1.8-2.2,3.2v32c0,1.1.5,2.1,1.4,2.7.6.4,1.3.6,2,.6q.7,0,1.1-.2l13.3-4.5c.8-.3,1.7-.3,2.5,0l13.3,4.5c1,.3,2.2.2,3.1-.5.9-.6,1.4-1.6,1.4-2.7v-32c0-1.5-1-2.7-2.4-3.2h0Z"/><path class="cls-27" d="m262.2,325.7l-14.7-5c-.8-.3-1.7-.3-2.5,0l-14.7,5c-.9.3-1.5,1.1-1.4,2v31.8c0,.5.3.9.6,1.2.3.2.6.3.9.3h.5l14.6-4.9c.5-.2,1-.2,1.5,0l14.7,4.9c.5.1,1,0,1.3-.3.4-.3.6-.7.6-1.2v-31.8c0-.9-.6-1.7-1.4-2h0Z"/><path class="cls-27" d="m262.2,359.4h0l-14.7-5c-.8-.3-1.7-.3-2.5,0l-14.6,5v-31.8c0-.3.2-.5.5-.5l14.7-4.9c.3,0,.5,0,.8,0,.3,0,.5,0,.8,0l14.7,4.9c.2,0,.4.3.4.5v31.8h0Z"/><path d="m257.9,329.4l-11.2-3.3c-.3,0-.6,0-.9,0l-11.9,3.9c-.4.1-.7.5-.7,1v7.9c0,.3.2.5.4.7.2,0,.3.2.5.2h.3l11.9-3.9h0l11.2,3.3c.3,0,.6,0,.8,0,.2-.2.3-.4.4-.7v-7.9c0-.4-.4-.8-.8-1h0Z"/><path d="m257.2,337.6l-10.5-3.1c-.3,0-.6,0-.9,0l-11.2,3.6v-7l11.7-3.7h0l11,3.3v6.9Z"/><path d="m242.9,351.3c-.2,0-.5,0-.7.2l-1.6.3c-.6,0-1.3.3-2,.4-.8.2-1.6.3-2.3.4h-.4c-.3,0-.4-.2-.3-.4.2-.4.3-.7.4-1.1.3-.5.5-1.2.8-1.7.2-.4.4-.8.6-1.2.4-.7,1.2-1,2-.7.2.1.4.3.5.5.4.4.8.7,1.2,1.1.6.5,1.3,1.2,1.8,1.7l.2.2c0,.2,0,.4-.4.5h0Z"/><path d="m244.2,339.1h.3c.3,0,.4,0,.3.3s-.2.4-.3.5c-.7,1-1.4,2-2.1,3-.6.9-1.3,1.8-2,2.6-.3.4-.7.8-1.2,1.1-.5.3-1.1.3-1.6.2-.3,0-.5-.3-.7-.5-.6-.6-1.3-1.2-2-1.8l-.8-.8h0c-.2-.3,0-.5.3-.5,1.4-.5,2.7-1,4-1.5l3.5-1.4c.8-.4,1.6-.6,2.4-.9h0v-.3Z"/><path d="m251.4,344.1c.8.2,1.4.8,1.7,1.5.5.9.7,2,.7,3.1,0,1-.2,1.9-.7,2.7-.4.5-1.2.7-1.8.4-.6-.2-1.1-.6-1.5-1.2-.5-.7-.8-1.4-.9-2.2l1.5-1c.2.8.5,1.4,1,1.5s.4,0,.5,0,.2-.4.2-.7c0-.3,0-.6-.2-.9-.1-.2-.3-.4-.5-.5l-2.2-.6.3-6.7,4,1.1v2.9l-2.4-.7v1.3l.4.2h-.2Z"/><path d="m261.9,348.1v1.3c.1,1.4-.3,2.9-1.1,4.1-.6.9-1.7,1.2-2.7.8-1.3-.5-2.3-1.5-2.8-2.7-.7-1.5-1.1-3.1-1.1-4.8,0-1.5.3-2.9,1.1-4.1.6-.9,1.7-1.4,2.7-1.1.8.2,1.5.6,1.9,1.3.6.7,1.1,1.5,1.3,2.4l-1.6,1.1c-.1-.4-.3-.8-.6-1.1-.3-.3-.6-.5-1-.6-.5-.2-1.2,0-1.4.5-.4.7-.6,1.5-.5,2.2,0,.9.2,1.7.5,2.5.3.7.8,1.2,1.5,1.4.7.2,1.4-.1,1.7-.8,0,0,0-.2,0-.3l-1.8-.5v-2.7l3.9,1.2h0Z"/><polygon class="cls-56" points="338.8 355.6 328 355.6 329.5 350.8 337.9 350.8 338.8 355.6"/><circle class="cls-5" cx="340.6" cy="332.2" r="40.5"/><path d="m320.3,309.7c2,1.7,2.3,4.7.6,6.7,0,.1-.2.2-.3.3-1.9,2.2-5.3,2.5-7.5.6,0,0,0,0,0,0-2.2-2-2.3-5.3-.4-7.4,0,0,0,0,0,0,1.2-1.3,2.9-2,4.7-1.7l-.5,2.2c-1-.1-1.9.2-2.5,1-1.1,1.1-1.1,2.9,0,4,0,0,.2.1.2.2,1.3,1.2,3,1.1,4.3-.4.9-.7,1.1-2,.5-3l-1.8,2-1.5-1.4,3.4-3.8.6.5h0Z"/><path d="m329.5,306c1,1.7.5,3.9-1.2,4.9,0,0,0,0,0,0-.7.4-1.6.5-2.3.3l1.7,3.2-1.9,1-4.8-8.9,1.9-1,.4.6c.2-.8.7-1.4,1.4-1.8,1.8-.9,4,0,4.9,1.7Zm-1.9,1c-.4-.8-1.3-1.2-2.2-.8,0,0-.1,0-.2,0-.8.4-1.2,1.4-.8,2.2,0,0,0,0,0,.1.4.8,1.3,1.2,2.2.8,0,0,.1,0,.2,0,.8-.4,1.2-1.4.8-2.2,0,0,0,0,0-.1h0Z"/><path d="m337.6,303.3l.9,4.3-2.2.4-.8-4c0-.6-.6-1.1-1.2-1.1-.1,0-.2,0-.3,0-.7,0-1.2.7-1.1,1.3,0,.1,0,.2,0,.4l.8,3.9-2.2.5-2.1-9.9,2.1-.5.7,3.5c.4-.7,1-1.2,1.8-1.3,1.5-.3,2.9.6,3.2,2.1,0,0,0,.2,0,.3h.2Z"/><path d="m339.2,304c.1-2.1,1.9-3.7,4.1-3.6s3.7,1.9,3.6,4.1-1.9,3.7-4.1,3.6c0,0,0,0,0,0-2.1-.1-3.7-1.9-3.5-4,0,0,0,0,0,0Zm5.5.4c0-.9-.6-1.7-1.5-1.8,0,0,0,0,0,0-.9-.1-1.7.5-1.8,1.4,0,0,0,.1,0,.2,0,.9.6,1.7,1.5,1.8,0,0,0,0,0,0,.9,0,1.7-.6,1.8-1.5Z"/><path d="m355.1,306.6l-1.5,4.1-2-.8,1.4-3.9c.3-.6.1-1.3-.5-1.6,0,0-.2,0-.3-.1-.7-.3-1.5,0-1.7.7,0,0,0,.1,0,.2l-1.4,3.7-2-.8,2.5-6.8,2,.8-.3.6c.7-.4,1.6-.4,2.2,0,1.3.5,2.2,1.9,1.4,3.8h0Z"/><path d="m358.2,312c.4.3.9.5,1.4.4l.8,1.8c-2.2.5-4.3-.8-4.9-2.9-.3-1.1,0-2.2.5-3.2,1.2-1.7,3.5-2,5.1-.9,0,0,.1.1.2.2,1.6,1.2,2,3.4.8,5,0,0,0,.1-.1.2-.2.3-.4.5-.6.6l-4-3.1c-.2.7.1,1.5.8,1.8h0Zm2.6-1.4c.3-.6,0-1.4-.5-1.8-.6-.5-1.4-.5-2,0l2.5,1.9h0Z"/><path d="m365.1,323.1l1.7-2.9h-3.3l-1.3-2.3h5.9l2.9-4.9,1.3,2.2-1.5,2.7h3.1l1.3,2.3h-5.7l-3,5.1-1.3-2.2h0Z"/><path class="cls-40" d="m323.8,339.7h4.9l4.6,13.7h0c0,.3.4.5.7.5h0c.4,0,.6-.4.7-.7l.7-13.5h23c.2,0,.4,0,.5-.3s.3-.4.3-.5v-22.1c0-.2,0-.5-.3-.5s-.4-.3-.5-.3h-34.8c-.4,0-.8.4-.8.8v22.1c0,.2,0,.5.3.5s.4.3.5.3h0Z"/><path class="cls-56" d="m333.5,349l-3.4-10.2v-1.7h0c.4.2.8.3,1.2.3l1.3,2.1c.2.2.4.3.6.4h.7l-.5,9.3h0Z"/><path class="cls-39" d="m331.7,352.4v-1.6h-5.6c-.4,0-.8.4-.8.8v8.7c0,.2,0,.5.3.5s.4.3.5.3h15c.2,0,.5,0,.5-.3s.3-.4.3-.5v-8.7c0-.2,0-.4-.3-.5s-.4-.3-.5-.3h-4.8v1.6h.8v2.3h-5.3c-1,0-1.8-.8-1.8-1.8h0c0-.3.3-.5.5-.5h1.1Z"/><path class="cls-56" d="m347.6,331h8.7c.2,0,.5,0,.5-.3s.3-.4.3-.5v-11.1c0-.2,0-.5-.3-.5s-.4-.3-.5-.3h-8.7c-.4,0-.8.4-.8.8v11.1c0,.2,0,.5.3.5s.4.3.5.3Zm.8-11.1h7.1v9.5h-7.1v-9.5Z"/><path class="cls-56" d="m356.3,331.8h-5.6c-.4,0-.8.4-.8.8v4c0,.2,0,.5.3.5s.4.3.5.3h5.6c.2,0,.5,0,.5-.3s.3-.4.3-.5v-4c0-.2,0-.5-.3-.5s-.4-.3-.5-.3Zm-.8,4h-4v-2.3h4v2.3Z"/><path class="cls-56" d="m326.2,325.5h5.6v1.6h-5.6v-1.6Z"/><path class="cls-56" d="m326.2,328.7h3.1v1.6h-3.1v-1.6Z"/><path class="cls-23" d="m326.6,357.5h2.3c.2,0,.3.2.4.4v.8c0,.2-.2.3-.4.4h-2.3c-.2,0-.3-.2-.4-.4v-.8c0-.2.2-.3.4-.4Z"/><path class="cls-23" d="m332.5,357.5h2.3c.2,0,.3.2.4.4v.8c0,.2-.2.3-.4.4h-2.3c-.2,0-.3-.2-.4-.4v-.8c0-.2.2-.3.4-.4Z"/><path class="cls-23" d="m338.3,357.5h2.3c.2,0,.3.2.4.4v.8c0,.2-.2.3-.4.4h-2.3c-.2,0-.3-.2-.4-.4v-.8c0-.2.2-.3.4-.4Z"/><path class="cls-56" d="m339.3,333.6c-.2,0-.5,0-.7,0-.5,0-1.1-.2-1.6-.4-.6,0-1.3-.3-2-.4-.8-.2-1.5-.3-2.3-.4-.1,0-.3,0-.4,0-.2,0-.4-.4-.3-.6,0,0,0,0,0,0,.2-.3.3-.7.5-1.1.3-.6.5-1.2.8-1.8.2-.4.4-.8.7-1.2.4-.6,1.1-.7,1.7-.4.1,0,.2.2.3.3.2.2.4.5.5.7.4.6.8,1.2,1.2,1.8l1.9,3c0,0,.1.2.2.3,0,.3,0,.4-.4.4h0Z"/><path class="cls-56" d="m340.6,319.5h.3c.3,0,.4.2.3.4s-.2.3-.3.5c-.7.9-1.3,1.8-2.1,2.7s-1.3,1.6-2,2.3c-.3.4-.8.6-1.3.8-.6.1-1.2,0-1.6-.4-.3-.2-.5-.5-.7-.8-.6-1-1.3-1.9-1.9-2.9-.3-.4-.5-.9-.8-1.3h0c-.2-.4,0-.5.3-.5l3.9-.3c1.2,0,2.3-.2,3.4-.3.8,0,1.6,0,2.4-.2h0Z"/><line class="cls-7" x1="180.1" y1="138.3" x2="157.9" y2="114.1"/><line class="cls-6" x1="172.8" y1="130.4" x2="157.9" y2="114.1"/><polygon class="cls-60" points="176.8 123.7 180.1 138.3 165.8 133.8 176.8 123.7"/><line class="cls-7" x1="242.1" y1="114.1" x2="219.9" y2="138.3"/><line class="cls-6" x1="242.1" y1="114.1" x2="227.2" y2="130.4"/><polygon class="cls-60" points="223.2 123.7 219.9 138.3 234.2 133.8 223.2 123.7"/><circle class="cls-2" cx="275" cy="72.3" r="45"/><path class="cls-10" d="m289,107.7h-26c0-.2-.2-.2-.4-.3-1.3-.5-2.1-1.7-2.1-3.1v-44.6c0-1,.5-2,1.3-2.6.4-.3.9-.3,1.2-.8h26c2.2.8,2.9,1.8,2.9,4.2v43.8c0,1.4-.9,2.7-2.2,3.2-.3,0-.5,0-.7.3h0Zm-14-2c7.2,0,13-5.8,13-13s-5.8-13-13-13-13,5.8-13,13v.2c0,7.1,5.7,12.8,12.8,12.8,0,0,.1,0,.2,0Zm0-47.2c-5.1,0-9.2,4.2-9.2,9.3,0,5.1,4.2,9.2,9.3,9.2,5.1,0,9.2-4.2,9.2-9.3,0-5.1-4.1-9.2-9.2-9.2h-.1Zm7.3,19.3c0,1.9,1.5,3.5,3.4,3.6h0c1.9,0,3.5-1.6,3.5-3.6,0,0,0,0,0-.1,0-1.9-1.5-3.4-3.4-3.5-2,0-3.5,1.6-3.6,3.6h.1Zm-18.5,25.8c0-.9-.7-1.5-1.6-1.5-.8,0-1.4.7-1.5,1.5,0,.9.6,1.6,1.5,1.7s1.6-.6,1.7-1.5h0v-.2h0Zm-1.6-41.7c.9,0,1.6-.6,1.6-1.5h0c0-.9-.6-1.6-1.5-1.7-.9,0-1.6.6-1.7,1.5h0v.2c0,.9.6,1.6,1.5,1.6h0Zm25.4,0c.8,0,1.5-.7,1.5-1.5h0c0-.9-.7-1.5-1.6-1.5-.9,0-1.5.7-1.5,1.6h0c0,.8.7,1.5,1.5,1.5h.1Zm0,40.1c-.8,0-1.5.6-1.6,1.4h0c0,.9.6,1.6,1.5,1.6.9,0,1.6-.6,1.6-1.5,0-.9-.6-1.6-1.5-1.6h0Z"/><path class="cls-20" d="m261,107.7c-.9-.2-1.7-.7-2.3-1.5-.4-.6-.7-1.3-.7-2v-44c-.1-1.4.6-2.8,1.8-3.5.4-.2.7-.3,1.1-.5h1.9c-.3.4-.8.5-1.2.8-.8.6-1.3,1.6-1.3,2.6v44.6c0,1.4.8,2.6,2.1,3.1.1,0,.4,0,.4.3h-1.9,0Z"/><path class="cls-34" d="m300.7,68.5c-.3.3-.8.5-1.2.4h-3.8c-.6,0-.9-.2-.9-.7s.3-.8.9-.8h4.1c.4,0,.7.2.9.5v.6Z"/><path class="cls-51" d="m249.3,92.9c.3-.3.7-.5,1.1-.4h3.9c.6,0,.9.2.9.7s-.3.8-.9.8h-4.1c-.4,0-.7-.2-.9-.5v-.6Z"/><path class="cls-51" d="m300.7,93.5c-.3.3-.7.5-1.1.5h-4.3c-.4,0-.6-.4-.5-.8,0,0,0,0,0,0,0-.3.3-.6.6-.6h4.5c.3,0,.4.3.7.4v.6h0Z"/><path class="cls-34" d="m249.3,67.9c.2-.4.7-.6,1.1-.5h4.2c.3,0,.6.4.5.7,0,0,0,0,0,0,0,.3-.2.6-.6.6,0,0,0,0,0,0h-4.5c-.3,0-.4-.3-.7-.4v-.5h0Z"/><path class="cls-64" d="m275,105.7c-7.1,0-12.9-5.9-12.8-13,0-7.1,5.9-12.9,13-12.8,7.1,0,12.9,5.9,12.8,13,0,7-5.8,12.7-12.8,12.8h-.2Zm11.1-10.1h0c.4-1.5.5-3.1.2-4.7-1-6.2-6.9-10.5-13.1-9.5h-.4c-3.3.6-6.2,2.6-7.8,5.6-.6.9-.9,1.9-1.1,2.9h0c-.4,1.4-.4,2.9-.2,4.3.5,3.7,2.8,7,6.1,8.7,1.4.7,2.9,1.1,4.4,1.2,1.2.1,2.4,0,3.6-.4.2,0,.5,0,.7-.1,2.8-.8,5.1-2.7,6.5-5.2.6-.9,1-1.9,1.2-3v.2Z"/><path class="cls-62" d="m275,58.5c5.1,0,9.3,4.2,9.3,9.3s-4.2,9.3-9.3,9.3-9.3-4.2-9.3-9.3c0-5.1,4.2-9.3,9.3-9.3Zm-1.2,1.6c-1.9.3-3.7,1.3-4.9,2.9-.9,1-1.4,2.3-1.5,3.6-.2.7-.2,1.3,0,2,.3,2.9,2.2,5.3,4.9,6.3,1.3.6,2.7.7,4,.4h.6c3-.8,5.3-3.3,5.8-6.4.2-.8.2-1.7,0-2.5-.7-4.2-4.6-7-8.8-6.4h-.1Z"/><path class="cls-62" d="m282.3,77.8c-.2-2.1,1.9-3.6,3.6-3.6,1.9,0,3.5,1.7,3.4,3.6,0,0,0,.1,0,.2,0,1.9-1.6,3.4-3.5,3.4-2,0-3.5-1.6-3.5-3.6h0Zm3.5,2.1c1.2,0,2.1-.9,2.1-2.1h0c0-1.1-1-2-2.1-2.1-1.1,0-2,1-2,2.1,0,1.1.8,2,1.8,2,0,0,0,0,0,0h.1Z"/><path class="cls-53" d="m263.9,103.6c0,.9-.6,1.6-1.5,1.6-.9,0-1.6-.6-1.6-1.5v-.2c0-.9.8-1.5,1.7-1.5,0,0,0,0,0,0,.8,0,1.4.7,1.5,1.5h0Z"/><path class="cls-53" d="m262.3,61.9c-.8,0-1.5-.6-1.5-1.4,0,0,0,0,0,0h0c0-.9.6-1.6,1.5-1.6.9,0,1.6.6,1.6,1.5v.2c0,.8-.7,1.5-1.5,1.5h-.1Z"/><path class="cls-53" d="m287.7,61.9c-.8,0-1.5-.7-1.6-1.5h0c0-.9.7-1.6,1.6-1.6s1.6.7,1.6,1.6h0c0,.8-.7,1.5-1.5,1.6h-.1Z"/><path class="cls-53" d="m287.7,102.1c.8,0,1.5.7,1.5,1.5h0c0,.9-.7,1.5-1.6,1.5s-1.5-.7-1.5-1.6h0c0-.8.7-1.5,1.5-1.5h.1Z"/><path class="cls-34" d="m298.7,61.2c0,.2-.1.4-.3.6l-2.7,2.7c-.3.3-.8.4-1.1,0h0c-.3-.3-.3-.7.1-1.1l2.7-2.7c.2-.3.7-.4,1-.2.3.1.4.4.4.7h-.1Z"/><path class="cls-13" d="m295.1,96.8c.2,0,.5,0,.6.3l2.7,2.7c.3.2.4.7.1,1,0,0,0,0,0,0h-.1c-.3.4-.8.4-1.1.1h0c-.9-.9-1.8-1.9-2.8-2.8-.2-.2-.3-.5-.2-.8,0-.3.4-.5.7-.4h0s0,0,0,0Z"/><path class="cls-13" d="m298.7,75.4c0,.3-.2.5-.5.6-.3,0-.7,0-.9-.2l-2.4-2.4-.5-.5c-.3-.2-.3-.7,0-.9,0,0,0,0,0,0h0c.2-.2.5-.3.8-.1,0,0,0,0,.1.1h0l2.9,2.9c.1.1.2.3.2.5h.3Z"/><path class="cls-13" d="m298.7,86.1c0,.2-.1.5-.3.6l-2.7,2.7c-.2.3-.7.4-1,.2h0c-.3-.2-.3-.7,0-.9,0,0,0,0,0,0h.1c0-.1,2.8-2.9,2.8-2.9.2-.2.5-.3.8-.2.2,0,.4.3.4.6h0Z"/><path class="cls-34" d="m255.7,64c0,.3-.2.5-.4.7-.3,0-.7,0-.9-.2l-2.3-2.3c-.2-.2-.4-.4-.5-.6-.3-.2-.3-.7,0-.9,0,0,0,0,0,0h0c.2-.3.7-.3.9,0,0,0,0,0,0,0h0c.5.4.9.8,1.3,1.3.4.5,1,1,1.5,1.5.2.2.3.4.3.6Z"/><path class="cls-13" d="m255.7,97.5c0,.2-.1.4-.3.6l-2.7,2.7c-.3.3-.7.4-1.1.2h0c-.4-.4-.3-.8.1-1.2l2.7-2.7c.2-.2.6-.3.9-.2.3.1.5.4.5.7h0Z"/><path class="cls-13" d="m255.7,72.5c0,.2-.1.4-.3.6l-2.7,2.7c-.4.4-.8.4-1.1.1-.3-.3-.3-.8,0-1.1h.1c.9-.9,1.8-1.9,2.8-2.8.2-.2.5-.3.8-.2.3.1.5.4.5.7h-.1Z"/><path class="cls-13" d="m255.7,89c0,.3-.2.5-.4.7-.2.2-.6.2-.8,0l-3-3c-.2-.3-.2-.6,0-.9h0c.2-.2.5-.3.8-.1,0,0,0,0,.1.1h0l2.9,2.9c.1.1.2.3.2.5l.2-.2Z"/><path class="cls-54" d="m264,89.9c.2-1,.5-2,1.1-2.9,3.2-5.5,10.2-7.4,15.7-4.3.4.2.8.5,1.2.8,2.4,1.7,4,4.4,4.4,7.3.3,1.5.2,3.1-.2,4.6h0c-.3.1-.7.2-1,.2-1.8,0-3.6-.5-5.2-1.5-.4-.3-.8-.5-1.3-.7v-1.1c-.1-1.5-1.2-2.7-2.6-3.1-.7-.3-1.6-.3-2.3,0-1.2.4-2.1,1.5-2.4,2.7-.1,0-.2,0-.4-.2-1.8-1.4-4-2.1-6.3-2.1-.2,0-.5.1-.7,0v.3Z"/><path class="cls-25" d="m264,89.9h.7c2.3,0,4.5.7,6.3,2.1.1,0,.2.1.4.2h0c-.3,1.9.8,3.6,2.5,4.1.6.1,1.2.2,1.8.1.6.9,1.1,1.9,1.6,2.9.7,1.4.8,3,.4,4.5-1.2.4-2.4.5-3.6.4-1.5-.1-3-.5-4.4-1.2-3.4-1.7-5.7-5-6.1-8.7-.2-1.4-.1-2.8.2-4.2h0l.2-.2Z"/><path class="cls-30" d="m277.7,103.8c.4-1.5.2-3.1-.4-4.5-.5-1-1-2-1.6-2.9l.4-.2h.2c1.1-.5,2-1.5,2.3-2.7.5.2.9.4,1.3.7,1.6,1,3.4,1.5,5.2,1.5h1c-.2,1.1-.6,2.1-1.2,3-1.4,2.5-3.8,4.3-6.5,5.2-.2,0-.5.1-.7.1v-.2Z"/><path class="cls-30" d="m282.6,69c-.1,1.2-.6,2.4-1.4,3.4-1.1,1.5-2.6,2.6-4.4,3h-.6c0-.9-.1-1.7-.5-2.5-1.1-2.3-2.9-4.2-5.1-5.4-.9-.7-2.1-1-3.3-.8.1-1.3.7-2.6,1.5-3.6,1.2-1.6,3-2.6,4.9-2.9,0,.9.2,1.9.6,2.7.9,1.8,2.2,3.3,3.7,4.5,1.2,1.2,2.8,1.8,4.5,1.7h.1Zm-7-3.1c-.8-.3-1.8,0-2.3.7-.5.8-.5,1.7,0,2.5.5.7,1.5,1,2.3.7.9-.2,1.5-1.1,1.4-2,0-.9-.6-1.6-1.4-1.9Z"/><path class="cls-25" d="m282.6,69c-1.7,0-3.3-.5-4.5-1.7-1.6-1.2-2.9-2.7-3.7-4.5-.4-.8-.6-1.8-.6-2.7,4.2-.7,8.1,2.2,8.8,6.4,0,0,0,0,0,0,.2.8.2,1.7,0,2.5Z"/><path class="cls-25" d="m267.4,66.6c1.2,0,2.3.2,3.3.8,2.2,1.2,4,3.1,5.1,5.4.4.8.6,1.6.5,2.5-1.3.3-2.8.2-4-.4-2.7-1-4.6-3.4-4.9-6.3,0-.7,0-1.3,0-2Z"/><path class="cls-25" d="m285.9,79.9c-1.1,0-2-.8-2-1.8,0,0,0,0,0,0h0c0-1.1.9-2,2-2.1,1.2,0,2.1.9,2.1,2.1,0,1.2-.9,2.1-2.1,2.1h0v-.2Z"/><path class="cls-11" d="m278.6,93.4c-.3,1.2-1.1,2.2-2.3,2.7h-.2c-.6-.4-1.2-.8-1.6-1.4-1.1-1.7-.7-4,1-5.1h0c.1,0,.4-.1.4-.3,1.4.4,2.4,1.6,2.6,3.1v1.1h.1Z"/><path class="cls-52" d="m276,89.3c0,.2-.2.3-.4.3-1.7,1.1-2.2,3.3-1.2,5.1h0c.4.6,1,1,1.6,1.4l-.4.2c-.6,0-1.2,0-1.8-.1-1.7-.6-2.8-2.3-2.6-4.1h0c.2-1.4,1.1-2.5,2.4-2.9.7-.3,1.6-.3,2.3,0h0Z"/><path class="cls-11" d="m275.6,65.8c.9.2,1.5,1,1.4,1.9,0,.9-.6,1.7-1.4,2,0-.2-.3-.3-.5-.5-.8-.7-.9-2-.2-2.8.2-.2.5-.3.7-.6Z"/><path class="cls-52" d="m275.6,65.8c-.1.3-.5.4-.7.6-.7.8-.6,2.1.2,2.8.2.2.4.2.5.5-.8.3-1.8,0-2.3-.7-.5-.8-.5-1.7,0-2.5.5-.7,1.5-1,2.3-.7Z"/><path d="m249.2,54.5l.7-2.6c1,.5,2.2.2,2.9-.6.9-.9.8-1.5.4-1.8-.5-.5-1.2-.2-2.8.7-1.6.9-3.4,1.6-5,0-1.4-1.5-1.4-3.9.2-5.4,0,0,0,0,0,0,1.3-1.4,3.2-1.8,5-1.2l-.6,2.6c-.8-.4-1.8-.2-2.4.5-.6.6-.6,1.2-.2,1.5s.9.4,2.6-.5c1.7-.9,3.5-1.9,5.3-.2,1.6,1.6,1.3,3.9-.5,5.7-1.3,1.6-3.5,2.2-5.4,1.4h-.2Z"/><path d="m264.1,41.5c1.2,2,.6,4.7-1.5,5.9,0,0,0,0,0,0-.8.5-1.8.6-2.7.3l2,3.7-2.3,1.2-5.6-10.5,2.3-1.2.4.7c.2-1,.9-1.7,1.8-2.1,2.1-1,4.7,0,5.7,2.1,0,0,0,0,0,0h0Zm-2.3,1.2c-.5-1-1.7-1.4-2.7-1,0,0,0,0-.1,0-1,.5-1.4,1.7-.9,2.7,0,0,0,0,0,.1.5,1,1.7,1.4,2.7,1,0,0,0,0,.1,0,1-.5,1.4-1.7.9-2.7,0,0,0,0,0-.1Z"/><path d="m270.6,42.4c.6,0,1.1-.4,1.5-.9l2.2.8c-.6,1.3-1.9,2.2-3.3,2.4-2.9.5-5-1.1-5.4-3.6-.5-2.3,1-4.6,3.3-5.1.1,0,.2,0,.3,0,2.3-.4,4.5,1.1,5,3.4,0,0,0,.1,0,.2v1l-5.9,1.1c.5.7,1.4,1.1,2.2.8h0Zm1-3.3c-.5-.9-1.6-1.3-2.6-.8-.6.3-1,.9-1,1.5l3.6-.7Z"/><path d="m285.3,36.3l-1.1,8.4-2.5-.3v-.8c-.6.7-1.6.9-2.5.7-2.3-.4-3.9-2.7-3.5-5,.2-2.3,2.2-4.1,4.5-3.9,0,0,0,0,0,0,1,0,1.8.5,2.4,1.3v-.8c.1,0,2.6.3,2.6.3h0Zm-3.1,3.9c.2-1-.4-2-1.4-2.3,0,0-.2,0-.3,0-1.1-.2-2.1.6-2.3,1.7,0,0,0,0,0,.1-.2,1,.4,2,1.4,2.3,0,0,.2,0,.3,0,1.1.2,2.1-.6,2.3-1.7,0,0,0,0,0-.1h0Z"/><path d="m290,47.3l-.9-4.5-1.5,3.4-2.3-1.1,4.9-10.8,2.3,1.1-2.9,6.5,3.9-2.3,2.7,1.2-4.6,2.6,1.1,5.2-2.6-1.2h0Z"/><path d="m297,49.6c.5.4,1.1.6,1.7.5l.8,2.2c-1.4.4-2.9,0-4-1-2-1.5-2.4-4.3-1-6.3,0,0,.1-.2.2-.2,1.4-2,4.1-2.5,6.1-1.2,2,1.4,2.5,4.1,1.2,6.1-.2.2-.3.5-.5.7-.2.3-.4.5-.7.7l-4.6-3.9c-.3.8,0,1.8.8,2.2v.2Zm3.2-1.4c.3-.8.1-1.7-.5-2.2-.6-.6-1.6-.7-2.3-.2l2.8,2.3h0Z"/><path d="m309.2,53.6l-2.3,1.7c-.4-1-1.5-1.6-2.6-1.2-.2,0-.4.2-.5.3l-3.1,2.3-1.5-2.1,6.9-5,1.5,2.1-1.2.9c1.1-.3,2.3.1,2.9,1.1h0Z"/><circle class="cls-3" cx="125" cy="73.3" r="45"/><path d="m97.1,61.5l-.7,2.5-6.3-1.7,3.8,4v.3l-5.4,1.6,6.3,1.7-.7,2.5-10.8-2.9.7-2.5,5.6-1.6-4-4.2.7-2.5,10.8,2.9h0Z"/><path d="m95.5,50l6.6,4.5-1.4,2-.6-.4c.2.8,0,1.7-.5,2.4-.9,1.4-2.8,1.7-4.2.8,0,0-.2-.1-.2-.2l-4-2.8,1.4-2,3.8,2.6c.5.5,1.4.4,1.9-.1,0,0,0-.1.1-.2.5-.7.3-1.6-.3-2.1,0,0-.1,0-.2-.1l-3.6-2.5,1.4-2h-.2Z"/><path d="m95,45.3l1.7-1.7,8.1,8.4-1.7,1.7-8.1-8.4Z"/><path d="m105,44.8l1.6,2.3c.4.6.9.3,1.7-.4l1.2,1.8c-2.4,2.1-3.7,1.8-5,0l-1.6-2.3-1,.7-1.3-1.9,1-.7-.9-1.2,1.6-2,1.3,1.8,1.4-.9,1.3,1.9-1.4.9h0Z"/><path d="m105.8,39.1c-.3-.7,0-1.6.7-1.9.7-.3,1.6,0,1.9.7.3.7,0,1.6-.7,1.9-.7.3-1.6,0-1.9-.7Zm1.2,1.8l2.2-1.1,3.5,7.2-2.2,1.1-3.5-7.2Z"/><path d="m112.2,40.7l5.9-1.6.6,2.2-5.9,1.6-.6-2.2Z"/><path d="m120.3,40.6c-.1-2.3,1.6-4.2,3.9-4.3,0,0,.1,0,.2,0,1.5,0,2.9.7,3.7,2l-2.1,1.3c-.3-.6-.9-.9-1.6-.9-1,0-1.8.8-1.8,1.8,0,0,0,0,0,0,0,1,.7,1.8,1.7,1.8,0,0,.1,0,.2,0,.6,0,1.2-.3,1.5-.9l2.1,1.1c-.7,1.3-2.1,2.2-3.6,2.2-2.3.1-4.2-1.6-4.3-3.9,0,0,0-.1,0-.2h.1Z"/><path d="m138.3,38.6l-1.9,7.8-2.3-.6.2-.7c-.7.5-1.6.6-2.5.4-2.2-.8-3.4-3.2-2.6-5.4.7-1.9,2.6-3.1,4.6-2.8.9.2,1.6.7,2.1,1.5l.2-.7,2.3.6h-.1Zm-3.3,3.3c.3-1-.2-2-1.2-2.3,0,0-.1,0-.2,0-.9-.3-2,.2-2.3,1.2,0,0,0,.1,0,.2-.3,1,.2,2,1.2,2.3,0,0,.1,0,.2,0,1,.3,2-.3,2.2-1.2,0,0,0-.1,0-.2h0Z"/><path d="m149.9,49.2l-2.8,4-2-1.4,2.7-3.9c.4-.4.4-1.1,0-1.5,0,0-.1-.1-.2-.2-.7-.5-1.3-.2-1.9.5l-2.6,3.7-2-1.4,2.7-3.9c.4-.4.4-1.1,0-1.5,0,0-.1-.1-.2-.2-.7-.5-1.3-.2-1.9.5l-2.6,3.7-2-1.4,4.5-6.6,2,1.4-.4.6c.8-.2,1.6,0,2.3.4.7.5,1.1,1.3,1.1,2.1.8-.3,1.8-.2,2.5.4,1.5,1,1.8,2.8.6,4.5l.2.2Z"/><path d="m151.3,56.2c.3.5.8.8,1.4.9l.2,2.2c-1.4,0-2.7-.7-3.4-1.9-1.5-1.8-1.2-4.4.6-5.9,0,0,.2-.1.2-.2,1.9-1.3,4.5-.9,5.8,1,1.3,1.9.9,4.5-1,5.8-.3.2-.5.3-.8.5l-3.3-4.6c-.4.7-.4,1.6.2,2.2h.1Zm3.2-.5c.6-.6.6-1.5,0-2.1-.4-.7-1.3-1-2-.7l2,2.8Z"/><path d="m161.6,62.5l-2.5,1c-.1-1-1-1.8-2-1.7-.2,0-.4,0-.6.2l-3.3,1.4-.9-2.2,7.4-3.1.9,2.2-1.3.5c1.1,0,2,.6,2.4,1.6h0Z"/><path d="m163.5,72.7l-7.9,1.3-.4-2.4h.7c-.7-.5-1.2-1.4-1.3-2.3-.3-2.2,1.3-4.1,3.4-4.4,0,0,.1,0,.2,0,2.2-.5,4.3.9,4.8,3,0,0,0,0,0,0,.3.9,0,1.8-.6,2.5h.7c0-.1.4,2.2.4,2.2Zm-4.3-1.7c1-.2,1.8-1.2,1.6-2.2-.2-1-1.2-1.8-2.2-1.6-1,.2-1.8,1.1-1.6,2.2,0,1,1,1.7,1.9,1.6,0,0,.2,0,.3,0h0Z"/><path class="cls-31" d="m148.6,84.8v19.3c.2,2.1-1.3,3.9-3.4,4.1h-39.4c-2.2.2-4.2-1.5-4.4-3.7,0,0,0,0,0-.1v-38.7c0-3,1.7-4.6,4.7-4.6h38c2.2-.2,4.2,1.4,4.4,3.7,0,0,0,0,0,0v20h.1Zm-25.5,9.8c0-4.3-3.5-7.8-7.8-7.8s-7.8,3.5-7.8,7.8,3.5,7.8,7.8,7.8h0c4.3,0,7.8-3.5,7.8-7.8Zm0-19.7c-1.5-2.8-5-3.9-7.8-2.4-2.8,1.5-3.9,5-2.4,7.8,1.5,2.8,5,3.9,7.8,2.4,2.7-1.4,3.9-4.8,2.5-7.6v-.2h-.1Zm11.7,7.8c4.3,0,7.9-3.5,7.9-7.8,0-4.3-3.5-7.9-7.8-7.9-4.3,0-7.9,3.5-7.9,7.8h0c0,4.3,3.5,7.8,7.8,7.9Zm6,11.8v-3.7c.1-1.1-.6-2-1.7-2.2h-8c-1,0-1.9.6-2.1,1.6v8c0,1,.7,1.9,1.7,2.1h7.9c1.1,0,2-.7,2.1-1.8v-4.1h.1Z"/><path class="cls-42" d="m123.1,94.6c0,4.3-3.6,7.8-7.9,7.7-4.3,0-7.8-3.6-7.7-7.9,0-4.3,3.5-7.7,7.8-7.7,4.3,0,7.8,3.4,7.8,7.7,0,0,0,.1,0,.2Zm-11.7-1.1v.9c0,1.7,1.1,3.3,2.7,3.9,2.1.7,4.3-.5,5-2.6.4-1.2.2-2.5-.6-3.5-.9-1.2-2.4-1.8-3.9-1.5-2.4,0-3.2.6-3.2,2.7h0Z"/><path class="cls-31" d="m125.1,77.3c0,4.3-3.5,7.8-7.8,7.8s-7.8-3.5-7.8-7.8,3.5-7.8,7.8-7.8h0c4.3,0,7.8,3.5,7.8,7.8Zm-11.5-.7c-.4,1.5,0,3.1,1.3,4,1.4,1,3.2,1,4.6,0,1.2-.8,1.9-2.3,1.6-3.8-.2-2-2-3.4-4-3.2,0,0,0,0,0,0h-.5c-1.2-.4-2.5.2-3,1.4-.2.5-.2,1.1,0,1.6h.1,0Z"/><path class="cls-42" d="m123.1,74.8c0,4.3-3.5,7.8-7.8,7.8s-7.8-3.5-7.8-7.8,3.5-7.8,7.8-7.8h0c4.3,0,7.8,3.5,7.8,7.8Zm-11.5-.7c-.4,1.5,0,3.1,1.3,4,1.4,1,3.2,1,4.6,0,1.2-.8,1.9-2.3,1.6-3.8-.2-2-2-3.4-4-3.2,0,0,0,0,0,0h-.5c-1.2-.4-2.5.2-3,1.4-.2.5-.2,1.1,0,1.6h.1,0Z"/><path class="cls-42" d="m134.9,82.8c-4.3,0-7.8-3.6-7.8-7.9,0-4.3,3.6-7.8,7.9-7.8,4.3,0,7.8,3.6,7.8,7.9,0,4.3-3.6,7.8-7.9,7.8Zm-3.7-8.6c-.6,1,0,1.9.4,2.7.8,1.5,2.5,2.2,4.1,1.9,1.5-.3,2.7-1.5,3.1-3,.4-1.7-.4-3.5-2-4.3-.9-.4-1.9-.6-2.9-.5-2,0-3.3,1.3-2.7,3.2Z"/><path class="cls-14" d="m140.8,94.6v3.8c0,1.1-.7,2-1.8,2.1h-7.9c-1,.1-2-.7-2.1-1.7v-8c0-1,.6-1.9,1.6-2.1h8c1,0,1.9.7,2.1,1.7v4.1h0Zm-6.9-1h3.7c.7,0,1.2-.3,1.2-1.1s-.6-.8-1.2-.8h-2.9c-.1-.6-.6-1-1.2-1.1-1,0-1.9.6-2.2,1.5-.4.6-.3,1.3.2,1.8.8.7,1.6.3,2.3-.2,0,0,0-.1.1-.2h0Zm1,4h2.9c.5,0,.9-.4,1-.9h0c0-.8-.4-.9-1-.9h-5.7c-.5,0-.9.3-1,.7v.2c0,.5.4.9.9.9h2.9Z"/><path class="cls-65" d="m114.6,90.8c1.5-.4,3,.2,3.9,1.4,1.3,1.7.9,4.2-.8,5.4,0,0,0,0,0,0-1,.7-2.3.9-3.5.5-1.6-.6-2.7-2.2-2.7-3.9v-.9c.5.6,1.3.9,2,.7.1,1.9,1.2,2.8,2.6,2.2,1-.4,1.5-1.5,1.1-2.5,0,0,0,0,0,0-.3-1-1.3-1.6-2.3-1.3,0,0,0,0,0,0,.2-.6.1-1.3-.2-1.8h0Z"/><path class="cls-49" d="m114.6,90.8c.4.5.5,1.2.3,1.8-.4.6-.8,1.2-1.4,1.6-.7.2-1.6,0-2-.7,0-2.1.7-2.8,3.2-2.7h-.1Z"/><path class="cls-65" d="m114.6,71.2c2-.5,4,.7,4.5,2.6v.5c.3,2.2-1.2,4.2-3.3,4.5-1,.2-2,0-2.9-.7-1.2-.9-1.8-2.5-1.3-3.9.5.4,1.3.5,1.9.2,0,1.7,1.2,2.8,2.5,2.3.9-.2,1.5-1.1,1.3-2-.1-1.2-1-1.7-2.4-1.7.3-.6.2-1.4-.2-1.9h-.1Z"/><path class="cls-49" d="m113.4,74.5c-.6.3-1.4.2-1.9-.2-.4-1.2.2-2.5,1.4-3,.5-.2,1.1-.2,1.6,0,.4.5.5,1.2.2,1.8-.4.6-.8,1-1.4,1.4h0Z"/><path class="cls-65" d="m133.9,71c1-.1,2,0,2.9.5,1.6.8,2.4,2.6,2,4.3-.5,2.1-2.7,3.4-4.8,2.8-1-.3-1.9-.9-2.4-1.8-.4-.8-1-1.7-.4-2.7.5.3,1.2.5,1.8.4,0,1,.3,1.9,1.4,2.1.9.3,1.9-.1,2.3-1,.6-1.4-.3-2.5-2.2-2.7.2-.7,0-1.5-.6-2h0Z"/><path class="cls-49" d="m133.9,71c.6.5.9,1.3.7,2-.4.6-1,1.2-1.6,1.6-.6,0-1.2-.1-1.8-.4-.6-1.9.7-3.2,2.7-3.2Z"/><path class="cls-44" d="m134.9,97.5h-2.9c-.5,0-.9-.3-1-.8h0c0-.6.3-1,.8-1.1h5.9c.6,0,1,.1,1,.8,0,.5-.3,1-.8,1,0,0,0,0,0,0h-3,0Z"/><path class="cls-19" d="m133.9,93.6c0,0-.1,0-.2.1-.7.5-1.5.9-2.3.2-.5-.5-.6-1.2-.2-1.8.4-.9,1.2-1.5,2.2-1.5.6,0,1.1.5,1.2,1.1,0,.7-.2,1.3-.6,1.8h0Z"/><path class="cls-44" d="m133.9,93.6c.4-.5.7-1.1.7-1.8h3c.6,0,1.2,0,1.2.8s-.4,1.1-1.2,1.1h-3.7Z"/><path class="cls-42" d="m113.4,94.2c.5-.5,1.2-.8,1.4-1.6,1.1-.2,2.1.4,2.4,1.5.2.9-.3,1.9-1.2,2.3-1.4.5-2.5-.4-2.6-2.2Z"/><path class="cls-42" d="m113.4,74.5c.6-.4,1-.8,1.4-1.4,1.4,0,2.3.6,2.4,1.7.1.9-.4,1.8-1.3,2-1.3.5-2.5-.6-2.5-2.3Z"/><path class="cls-42" d="m133,74.7c.6-.5,1.1-1,1.6-1.6,1.9.1,2.8,1.2,2.2,2.7-.4.9-1.4,1.3-2.3,1-1.1-.2-1.4-1.1-1.4-2.1h-.1Z"/><line class="cls-1" x1="196.6" y1="241.5" x2="196.5" y2="260.2"/><line class="cls-1" x1="59" y1="259.6" x2="341" y2="259.6"/><line class="cls-6" x1="59.5" y1="259.4" x2="59.5" y2="268.7"/><polygon class="cls-60" points="53 266.8 59.5 278 66 266.8 53 266.8"/><line class="cls-6" x1="153.1" y1="259.4" x2="153.1" y2="268.7"/><polygon class="cls-60" points="146.7 266.8 153.1 278 159.6 266.8 146.7 266.8"/><line class="cls-6" x1="246.8" y1="259.4" x2="246.8" y2="268.7"/><polygon class="cls-60" points="240.3 266.8 246.8 278 253.3 266.8 240.3 266.8"/><line class="cls-6" x1="340.5" y1="259.4" x2="340.5" y2="268.7"/><polygon class="cls-60" points="334 266.8 340.5 278 347 266.8 334 266.8"/><circle class="cls-5" cx="67.3" cy="191.3" r="40.5"/><path d="m53.7,166.3c1.6,2.1,1.2,5-.9,6.5-.1.1-.3.2-.4.3-2.4,1.7-5.7,1.2-7.4-1.2,0,0,0,0,0,0-1.6-2.4-.9-5.7,1.5-7.3,1.5-1,3.3-1.1,4.9-.5l-1,2c-.9-.4-1.9-.2-2.7.4-1.3.8-1.8,2.6-.9,3.9,0,0,0,.1.1.2.9,1.4,2.7,1.8,4.1.9,0,0,.2-.1.2-.2,1-.5,1.5-1.6,1.3-2.7l-2.2,1.5-1.1-1.7,4.2-2.8.5.7Z"/><path d="m58.1,164.7l.8,2.4c.2.6.7.4,1.6.2l.6,1.9c-2.6,1.2-3.6.5-4.2-1.4l-.8-2.4-1.1.4-.6-2,1.1-.4-.5-1.3,1.9-1.3.6,1.9,1.4-.5.6,2-1.4.5h0Z"/><path d="m68.4,161.1l.5,7.2-2.2.2v-.7c-.5.6-1.3,1-2.2,1-2.1,0-3.8-1.8-3.7-3.9,0-1.8,1.4-3.4,3.2-3.7.8,0,1.6.2,2.2.7v-.7l2.1-.2h0Zm-1.9,3.8c0-.9-.6-1.6-1.5-1.6-.1,0-.2,0-.3,0-.9,0-1.7.8-1.6,1.8,0,0,0,0,0,.1,0,.9.6,1.6,1.5,1.6.1,0,.2,0,.3,0,.9,0,1.7-.8,1.6-1.8,0,0,0,0,0-.1h0Z"/><path d="m78.2,166.6c-.4,2-2.2,3.3-4.2,3-.8-.2-1.5-.6-1.9-1.3l-.2.6-2.1-.4,2.2-9.8,2.1.5-.8,3.5c.6-.5,1.5-.6,2.2-.4,1.9.6,3,2.6,2.5,4.5h0Zm-2.1-.4c.3-.8-.1-1.7-.9-2-.1,0-.2,0-.3,0-.9-.2-1.8.3-2,1.2,0,0,0,0,0,.1-.3.8.1,1.7.9,2,.1,0,.2,0,.3,0,.9.2,1.8-.3,2-1.2,0,0,0,0,0-.1Z"/><path d="m81.4,170.3l4.8-.9c.7,0,1.4-.3,1.9-.8.4-.5.3-1.1-.2-1.5,0,0,0,0,0,0-.5-.4-1.3-.4-1.8,0l-.9-2.1c1.3-.8,2.9-.7,4.1.2,1.5,1,1.9,3,1,4.5,0,0,0,0,0,.1-.8,1-1.9,1.6-3.2,1.6l-2.3.4,2.7,2-1.3,1.8-5.6-4,1-1.4v.2Z"/><path class="cls-9" d="m51.4,224.6c0,0-.2,0-.2,0-1.2-.4-2-1.5-2-2.8v-40c0-1.5,1.1-2.9,2.6-3,0,0,.1,0,.2,0h28.5c0,.2.2.2.3.2,1,.4,1.7,1.5,1.7,2.6v2.7h-10.5c-.2,0-.4,0-.5.3-.5.5-.9.9-1.4,1.3-1.6,1.5-4.1,1.5-5.8,0-.4-.4-.9-.8-1.3-1.3-.2-.2-.4-.3-.7-.3h-9.8c-.5,0-.5,0-.5.5v33.8c0,.4.2.5.5.5h30.1v2.7c0,1.2-.6,2.3-1.7,2.7,0,0-.3,0-.3.3h-29.2v-.2Zm13.1-3.5h-2.6c-.5,0-.8.3-.8.7s.3.7.8.7h5.2c.4,0,.8-.2.9-.6,0-.4-.2-.8-.6-.9-.1,0-.2,0-.3,0h-2.6Zm2.8-39.7c-.7,0-1.3.6-1.4,1.3,0,0,0,0,0,0h0c0,.7.6,1.4,1.3,1.4,0,0,0,0,0,0,.7,0,1.3-.6,1.3-1.4,0-.7-.6-1.3-1.3-1.4,0,0,0,0,0,0h0Zm6.2,40.4c0-.4-.3-.7-.6-.7-.4,0-.7.4-.7.8,0,.3.3.6.6.6,0,0,0,0,0,0,.4,0,.7-.3.7-.7h0Zm-3.4-.7c-.4,0-.7.4-.7.7,0,.4.3.7.7.7.4,0,.7-.4.7-.7,0-.4-.3-.7-.7-.7Z"/><rect class="cls-27" x="51.1" y="180.5" width="31.5" height="39.6" rx="2.5" ry="2.5"/><path class="cls-59" d="m80.6,224.6c0-.2.2-.2.3-.3,1.1-.4,1.8-1.5,1.7-2.7v-40.2c0-1.1-.6-2.2-1.7-2.6,0,0-.3,0-.3-.2h2c1.5,0,2.7,1.2,2.7,2.7v39.6c0,1.7-.5,3.1-2.2,3.6h-2.5,0Z"/><path class="cls-38" d="m64.5,221.1h2.5c.4,0,.8.3.9.7,0,.4-.5.7-.9.7h-5.2c-.5,0-.8-.3-.8-.7s.3-.7.8-.7h2.7Z"/><path class="cls-15" d="m73.5,221.8c0,.4-.3.7-.6.7h0c-.3,0-.6-.3-.6-.6,0,0,0,0,0,0,0-.4.3-.7.7-.8.4,0,.6.4.6.7h0Z"/><path class="cls-15" d="m70.1,221.1c.4,0,.6.4.7.7,0,.4-.3.7-.7.7s-.7-.3-.7-.7c0-.4.4-.6.7-.7Z"/><g class="cls-16"><path class="cls-22" d="m68.8,196.2h-.5c-.4,0-.7-.2-1.1-.2-.5,0-.9-.1-1.4-.3l-1.5-.3h-.3c-.2,0-.3-.2-.2-.5,0-.3.2-.5.4-.7.2-.4.4-.8.5-1.2,0-.3.2-.5.5-.7.2-.3.7-.4,1-.2,0,0,.2.1.2.2.1.1.3.3.4.5.3.4.5.8.7,1.2.5.6.8,1.3,1.3,2,0,0,0,.1,0,.2,0,.2,0,.3-.3.3l.2-.3Z"/><path class="cls-22" d="m69.7,186.9h.2c.2,0,.3,0,.2.3s0,.2-.2.3c-.4.6-.9,1.2-1.4,1.8s-.9,1.1-1.4,1.5c-.2.3-.5.5-.8.5-.4,0-.8,0-1.1-.3-.2-.2-.3-.3-.5-.5-.5-.6-.8-1.3-1.3-1.9-.2-.3-.4-.6-.5-.9h0c0-.2,0-.4.2-.4.9,0,1.7,0,2.6-.2.8,0,1.5,0,2.2-.2.5,0,1.1,0,1.6,0h0Z"/></g><path d="m61.6,208.6c1,0,1.9.3,2.7.9,1.5,1.5,1.4,4,0,5.5-.8.7-1.8,1-2.9,1-.9,0-1.8-.2-2.5-.6-.7-.4-1.3-1.1-1.5-1.9l2.4-1.4c.2.7.9,1.2,1.6,1.2.8,0,.7,0,.9-.3.2-.2.3-.4.4-.7,0-.3-.1-.6-.4-.7-.3-.2-.6-.3-.9-.3h-3.5l.5-6.5h6.5v2.7h-3.9v1.2h.7Z"/><path d="m77.5,209.4v1.1c0,1.5-.5,2.9-1.5,4-1.1,1-2.5,1.6-4,1.5-1.6,0-3.1-.5-4.2-1.6-2.2-2.3-2.2-5.8,0-8.1,1.1-1.1,2.5-1.7,4-1.7,1,0,2,.2,2.8.7.8.4,1.5,1,2,1.8l-2.4,1.4c-.2-.4-.6-.7-1-.8-.5-.2-.9-.3-1.4-.3-1.5-.1-2.9,1.1-3,2.6,0,.1,0,.2,0,.4,0,.8.3,1.6.8,2.2.6.6,1.5,1,2.3.9,1.1,0,2-.5,2.5-1.4h-2.7v-2.4h5.8Z"/><circle class="cls-5" cx="332.7" cy="192.2" r="40.5"/><path d="m319.5,166.5c1.6,2.4.8,5-1.4,6.5-2.5,1.6-5.5,1-6.9-1.4-1.5-2.3-.9-5.3,1.4-6.8,1.5-1,3.2-1.1,4.7-.4l-1,1.9c-.6-.3-1.6-.3-2.5.4-1.3.9-1.7,2.5-.8,3.9.9,1.3,2.4,1.7,4,.7,1.1-.7,1.4-1.6,1.3-2.5l-2.2,1.4-1-1.6,4-2.6.5.7h0Z"/><path d="m323.5,165l.7,2.2c.2.5.6.4,1.5,0l.5,1.7c-2.4,1.1-3.4.5-4-1.3l-.7-2.2-1,.4-.6-1.9,1-.4-.4-1.3,1.7-1.2.5,1.8,1.4-.5.6,1.9-1.3.4h0Z"/><path d="m333.1,161.6l.6,6.8-2,.2v-.6c-.4.5-1.1.9-2,1-1.8.2-3.3-1.3-3.5-3.2s1.2-3.7,2.9-3.9c.9,0,1.6.2,2.1.6v-.6l2-.2h0Zm-1.7,3.5c0-1-.8-1.6-1.7-1.5-.9,0-1.5.8-1.4,1.8,0,1,.8,1.6,1.7,1.5.9,0,1.5-.8,1.4-1.8Z"/><path d="m342.3,166.4c-.4,2-2.2,3.2-3.9,2.9-.9-.2-1.4-.6-1.8-1.2v.6c0,0-2.1-.4-2.1-.4l1.8-9.3,2,.4-.6,3.2c.5-.5,1.3-.6,2.2-.5,1.7.4,2.9,2.2,2.5,4.1h0Zm-2-.4c.2-1-.4-1.7-1.3-1.9s-1.7.3-1.9,1.3.4,1.7,1.3,1.9,1.7-.3,1.9-1.4Z"/><path d="m352,172.2c-1.2,1.7-3.1,1.8-4.6.8-1.2-.8-2-2-1.7-3.5h2.2c-.2.7,0,1.3.6,1.7.7.4,1.3.3,1.6-.2.4-.4.3-1.1-.5-1.6l-.4-.3v-1.4l2.6-.9-2.9-1.9,1.1-1.7,5.1,3.3-1,1.4-2.5.8c.7,1,1,2.2.3,3.3h0Z"/><rect class="cls-8" x="311.1" y="188.6" width="45.9" height="31.5" rx="2.2" ry="2.2"/><path class="cls-27" d="m344.4,215.3c-.9,0-1.7,0-2.6-.3-2.7-.4-5.2-1.1-7.6-2.2-2.9-1.3-5.4-2.9-7.6-5-3.6-3.4-5.9-7.7-6.4-12.3h0c.5,4.6,2.8,8.9,6.4,12.3,2.2,2.1,4.7,3.7,7.6,5,2.4,1.1,5,1.7,7.6,2.2.8,0,1.7.2,2.6.3,3.9,0,7.7,0,11.6,0h0v-24.4c0-1.2-.5-1.6-2-1.6h-40c-1,0-1.8.7-1.8,1.6v11.1c0,.2,0,.3.4.3,1.1,0,1.8.7,1.9,1.6,0,1.3-.7,1.8-1.7,2.1-.4,0-.5.2-.5.5v10.9c0,.8.9,1.4,1.7,1.4h40.2c.9,0,1.7-.6,1.7-1.4v-1.9h-11.6v-.2Zm-24.2-19.8c0-.7,0-1.4,0-2.2,0,.7,0,1.4,0,2.2Z"/><path class="cls-29" d="m315.5,178.7h30.9v2h-30.9v-2Z"/><path class="cls-8" d="m315.5,180.7h30.9v1.9h-30.9v-1.9Z"/><path class="cls-8" d="m346.4,180.7v-2h3.9c.4,0,.7,0,1,.4.2.5,0,1,0,1.5h-5Z"/><path class="cls-24" d="m346.4,180.7h4.9v1.4c-.2.4-.6.5-1,.4h-3.9v-1.9Z"/><path class="cls-29" d="m351.2,182.1v-1.4c0-.5,0-1,0-1.5.6,0,1.4,0,2,0,.7.2,1.2.8,1.1,1.5,0,.7-.6,1.3-1.4,1.3h-1.6,0Z"/><path class="cls-55" d="m315.5,180.7v1.9c-1.3.3-2.2-.4-3.1-1-.3-.2-.5-.4-.9-.5s-.4-.4,0-.6c.4-.3.7-.5,1.2-.7v.2c.8.5,1.7,1.1,2.7.9h.2Z"/><path class="cls-8" d="m315.5,180.7c-1.1.2-1.9-.3-2.7-.9v-.2c.8-.7,1.7-1.2,2.8-1v2h0Z"/><path d="m336.8,203.9c-.2,0-.4,0-.6,0-.4,0-.9-.2-1.3-.3-.5,0-1.1-.2-1.6-.4-.6,0-1.3-.3-1.9-.4h-.3c-.3,0-.3-.3-.2-.5s.3-.6.4-.9c.2-.4.4-1,.7-1.4.2-.4.4-.6.5-.9.4-.5,1.1-.6,1.6,0,.2.2.4.4.5.6.4.4.6,1,.9,1.4.5.8,1,1.6,1.5,2.3,0,0,0,.2,0,.3,0,.2,0,.4-.3.4h0Z"/><path d="m337.8,192.4h.2c.2,0,.3.2.2.4,0,0-.2.3-.3.4-.5.7-1.2,1.4-1.7,2.2-.5.6-1.1,1.3-1.6,1.9-.3.3-.6.5-1,.6-.5,0-.9,0-1.4-.3-.3-.2-.4-.4-.5-.6-.5-.8-1-1.5-1.5-2.3-.2-.4-.5-.7-.6-1.1h0c0-.3,0-.4.3-.4,1.1,0,2.1-.2,3.2-.3.9,0,1.9-.2,2.8-.2s1.3,0,2,0h0Z"/><path d="m329.8,210.9c.8,0,1.5.3,2.1.7s.8,1.2.8,2.1-.3,1.6-.9,2.2-1.3.8-2.2.8-1.4-.2-2-.5c-.5-.4-1-.8-1.2-1.4l1.9-1.1c.2.6.6.9,1.3.9s.5,0,.7-.2.3-.4.3-.5,0-.4-.3-.6-.4-.2-.7-.2h-2.8l.4-5h5v2.1h-3.1v.9h.7Z"/><path d="m342.2,211.5v.9c0,1.3-.4,2.2-1.2,3.1-.8.8-1.8,1.2-3.1,1.2s-2.4-.5-3.3-1.3c-.9-.9-1.3-1.9-1.3-3.1s.5-2.3,1.3-3.1,1.9-1.3,3.2-1.3,1.5.2,2.2.5,1.2.8,1.5,1.4l-1.9,1.1c-.2-.3-.5-.5-.7-.6-.4-.2-.7-.3-1.1-.3-.7,0-1.3.2-1.7.6s-.6,1-.6,1.7.2,1.3.6,1.7,1,.7,1.8.7,1.6-.4,2-1.2h-2.1v-1.9h4.3v-.2Z"/><path class="cls-17" d="m326.1,189.4h28.8c1.2,0,1.6.4,1.6,1.6v24.4h-9.8c-.7,0-1.4,0-2.2-.3-2.2-.5-4.4-1.1-6.5-2.2-2.4-1.3-4.6-2.9-6.4-5-3.1-3.4-5-7.7-5.4-12.3,0-1.2,0-2.4,0-3.6v-2.5h0Z"/><line class="cls-7" x1="147.8" y1="190.7" x2="115" y2="191.2"/><line class="cls-6" x1="147.8" y1="190.7" x2="125.8" y2="191.1"/><polygon class="cls-60" points="127.8 183.5 115 191.2 128.1 198.5 127.8 183.5"/><line class="cls-7" x1="252.2" y1="192.7" x2="285" y2="193.2"/><line class="cls-6" x1="252.2" y1="192.7" x2="274.2" y2="193.1"/><polygon class="cls-60" points="271.9 200.5 285 193.2 272.2 185.5 271.9 200.5"/><circle class="cls-4" cx="200" cy="187.3" r="45"/><path d="m169.9,184.2v2l-5.1-.3,3.5,2.4v.2l-3.8,2,5,.3v2l-8.7-.5v-2c.1,0,4.1-2.1,4.1-2.1l-3.7-2.5v-2l8.7.5Z"/><path d="m169.9,179.9c.2-.4.2-.9,0-1.3l1.3-1.1c.6.8.7,1.9.3,2.9-.5,1.7-2.3,2.7-4.1,2.1-1.7-.5-2.7-2.3-2.1-4,.5-1.6,2.3-2.5,3.9-2,0,0,.1,0,.2,0,.2,0,.5.2.7.3l-1.4,4.1c.6,0,1.2-.5,1.3-1.1h-.1Zm-1.8-1.8c-.6,0-1.1.3-1.3.9-.2.6,0,1.2.5,1.6l.8-2.5Z"/><path d="m168.5,167.3l7.3,4.5-1,1.6-.5-.3c.2.6,0,1.3-.3,1.9-1.1,1.4-3.1,1.7-4.6.6-1.2-.9-1.6-2.6-.9-4,.3-.6.9-1.1,1.6-1.2l-2.6-1.6,1-1.6h0Zm3.7,4.5c-.6-.4-1.4-.4-1.8.2,0,0-.1.2-.2.3-.4.6-.3,1.5.4,1.9,0,0,0,0,.1,0,.6.4,1.4.4,1.8-.2,0,0,.1-.2.2-.3.4-.6.3-1.5-.4-1.9,0,0,0,0-.1,0Z"/><path d="m170.6,166.1c-.5-.4-.5-1.1,0-1.6.4-.5,1.1-.5,1.6,0,.5.4.5,1.1,0,1.6-.4.5-1.1.5-1.6.1,0,0,0,0,0,0Zm1.4.9l1.2-1.4,4.6,4-1.2,1.4-4.6-4Z"/><path d="m179.3,160.1l3.9,4.7-1.4,1.2-.4-.4c0,.7-.4,1.3-.9,1.7-1.4,1-3.3.8-4.3-.6h0c-1.1-1.3-1-3.2.2-4.4.5-.5,1.2-.7,1.9-.6l-.4-.4,1.4-1.2Zm.5,3.5c-.5-.6-1.5-.7-2.1-.2-.6.5-.7,1.5-.2,2.1.5.6,1.5.7,2.1.2.6-.4.8-1.3.3-1.9,0,0,0-.1-.1-.2Z"/><path d="m182,160.3l4.1-2.1.8,1.6-4.1,2.1-.8-1.6Z"/><path d="m197.5,159.8l-1.9.4-1.1-4.9-1.4,4h-.2l-3-3,1.1,4.9-1.9.4-1.9-8.4,1.9-.4,3.1,3.2,1.4-4.2,1.9-.4,1.9,8.4h0Z"/><path d="m204.4,154l-.3,6.1h-1.8v-.7c-.5.5-1.1.7-1.8.7-1.3,0-2.3-1.1-2.2-2.3,0,0,0-.2,0-.3l.2-3.8h1.8v3.6c-.1.6.4,1.1,1,1.1.6,0,1.1-.5,1.1-1.1h0v-3.3h2Z"/><path d="m207,151.6l1.8.4-1.8,8.8-1.8-.4,1.8-8.8Z"/><path d="m211.7,157.6l-.7,2.1c-.2.5.2.7,1,.9l-.5,1.6c-2.4-.5-2.8-1.4-2.2-3.1l.7-2.1-.9-.3.6-1.7.9.3.4-1.1h1.9l-.5,1.7,1.2.4-.6,1.7-1.2-.4h0Z"/><path d="m214.9,157l1.7.8-2.6,5.5-1.7-.8,2.6-5.5Zm.5-1.6c.3-.6.9-.8,1.5-.5.6.3.8.9.5,1.5-.3.6-.9.8-1.5.5,0,0,0,0,0,0-.5-.3-.8-.9-.5-1.5h0Z"/><path d="m219,162.7c1.2-1.4,3.2-1.6,4.6-.4.9.7,1.3,1.9,1.1,3l-1.8-.3c.1-.5,0-1-.5-1.3-.6-.5-1.5-.4-2,.2-.5.5-.5,1.4,0,1.9,0,0,0,0,.1.1.4.3.9.4,1.4.2l.7,1.7c-1.7.6-3.5-.2-4.1-1.9-.4-1.1-.2-2.3.6-3.2h-.2Z"/><path d="m230.6,170.2l-4.8,3.8-1.1-1.4.5-.4c-.7,0-1.3-.4-1.7-1-1-1.4-.7-3.3.7-4.3,0,0,0,0,0,0,1.3-1.1,3.3-1,4.4.3.5.5.7,1.2.5,1.9l.5-.4,1.1,1.4h0Zm-3.5.5c.7-.5.8-1.4.3-2.1,0,0,0,0,0,0-.4-.6-1.3-.8-1.9-.3,0,0-.1,0-.2.1-.7.5-.8,1.4-.3,2.1,0,0,0,0,0,0,.4.6,1.3.8,1.9.4,0,0,.1,0,.2-.1h0Z"/><path d="m233.3,181.7l-3.5,1.4-.7-1.7,3.3-1.4c.5-.1.8-.6.7-1,0,0,0-.1,0-.2-.2-.6-.8-.7-1.4-.4l-3.2,1.3-.7-1.7,3.3-1.4c.5-.1.8-.6.7-1,0,0,0-.1,0-.2-.2-.6-.8-.7-1.4-.4l-3.2,1.3-.7-1.7,5.7-2.3.7,1.7-.5.2c1.1.3,1.7,1.5,1.4,2.6,0,.1,0,.3-.2.4.7.1,1.2.6,1.4,1.3.5,1.1,0,2.5-1.2,3-.1,0-.2,0-.3.1h0Z"/><path d="m231.6,186.8c0,.4.2.9.6,1.1l-.7,1.6c-.9-.5-1.5-1.5-1.6-2.5-.3-1.8.9-3.5,2.7-3.8,0,0,0,0,.1,0,1.7-.3,3.3.9,3.6,2.6,0,0,0,.2,0,.3.2,1.7-.9,3.2-2.6,3.5,0,0-.1,0-.2,0h-.7l-.5-4.3c-.6.3-.9,1-.7,1.6h0Zm2.3.9c.6-.2.9-.8.8-1.4,0-.6-.5-1.1-1.1-1.2l.3,2.6Z"/><path d="m236.4,194.6h-2.1c.2-.9,0-2-1.3-2l-2.8-.2v-1.8l6.2.4v1.8h-1.2c.7.3,1.2,1.1,1.1,1.9h.1Z"/><path d="m234.6,202.2l-5.9-1.5.4-1.8h.6c-.4-.5-.5-1.2-.3-1.8.5-1.6,2.2-2.6,3.8-2.1,1.6.3,2.7,1.9,2.4,3.5,0,0,0,0,0,.1-.1.7-.6,1.3-1.2,1.6h.6c0,.1-.4,1.9-.4,1.9h0Zm-2.5-2.5c.7.2,1.5-.2,1.7-.9,0,0,0-.1,0-.2.2-.8-.2-1.5-1-1.8,0,0,0,0-.1,0-.7-.2-1.5.2-1.7.9,0,0,0,.1,0,.2-.2.7.2,1.5.9,1.8,0,0,.1,0,.2,0h0Z"/><path class="cls-48" d="m208.5,219.5h-18.1c-.4-1.5-1.2-2.8-2.2-3.9-.3-.3-.3-.4,0-.7,1.3-1.3,2.6-2.5,3.8-3.8,1.2-1.1,1.5-2.9.9-4.4,0-.6,0-1.3,0-1.9-.5-2.3-2.8-3.7-5.1-3.1,0,0,0,0,0,0-.7.2-1.4.6-2,1.1-2.3,2.2-4.5,4.5-6.8,6.8-.4.5-.9.9-1.4,1.3v-35.1c0-1.5.9-2.9,2.3-3.4.4-.1.9-.2,1.3-.2h35.8c1.9-.1,3.5,1.3,3.6,3.1,0,.2,0,.3,0,.5v26.5h-8.4c-1.4,0-2.7.8-3.3,2.1-.7,1.6,0,3.4,1.4,4.2h.1c.2.5.6.4.8.7-1.8.4-2.9,2.1-2.5,3.9,0,0,0,.1,0,.2.2.9.8,1.7,1.6,2.2h0c.2.4.6.4.8.6-1.6.4-2.6,1.8-2.6,3.4h0Zm-6-32.6v-8.5c0-1-.7-1.8-1.7-1.9,0,0,0,0,0,0h-17c-1-.1-2,.6-2.1,1.6,0,.1,0,.3,0,.4v16.7c0,1,.7,1.8,1.7,1.9h17.2c.9,0,1.7-.6,1.8-1.5v-8.8h.1Zm7.7-5.2h3.1q1.3,0,1.3-1.3c0-.4-.1-.5-.5-.5h-6.9q-1.3,0-1.3,1.3c0,1.3.1.5.5.4h3.8,0Zm3.1-5.2h-2.7q-1.2,0-1.2,1.3c0,.4.2.5.5.5h5.9q1.3,0,1.3-1.4c0-.3-.1-.4-.4-.4h-3.4Zm-7.4.8c0,1-.2.9.8.9.4,0,.8-.2.9-.7,0,0,0-.1,0-.2q0-.9-.9-.9c-.9,0-.8,0-.8.8h0Z"/><path class="cls-26" d="m177.6,210.9c.5-.4.9-.9,1.4-1.3l6.8-6.8c1.6-1.7,4.2-1.7,5.9-.1,0,0,0,0,.1.1.6.5,1,1.2,1.1,2,.1.6.1,1.3,0,1.9-.3.9-.8,1.8-1.5,2.5-2,1.9-3.9,3.9-5.8,5.8-.3.3-.3.4,0,.7,1,1.1,1.8,2.5,2.2,3.9h-13.2c-.2,0-.4,0-.4-.2,0-1.2,0-2.5.2-3.7.3-1.2.9-2.2,1.7-3.1l1.5-1.5v-.2Z"/><path class="cls-21" d="m210.2,208.7c-1.5-.8-2.1-2.6-1.4-4.2.5-1.3,1.9-2.2,3.3-2.1h8.4c1.7,0,3.1,1.2,3.4,2.8-.2,0-.2.1-.2.2-.4.9-1.1,1.6-2,1.9-.6.2-1.2.3-1.8.3h-8.4c-1,0-1.2,0-1.3,1.1Z"/><path class="cls-26" d="m210.2,215.6c-1.6-.9-2.2-3-1.3-4.6.5-.8,1.3-1.4,2.2-1.6.4,0,.7,0,1.1-.2h8.8c.7.2,1.3.5,1.9,1,.5.5.8,1.1,1,1.8,0,0-.2.1-.2.2-.6,1.5-2.1,2.4-3.7,2.2h-8.6c-1,0-1.2.2-1.2,1.2Z"/><path class="cls-26" d="m208.5,219.5c0-1.6,1.1-3,2.6-3.3.2,0,.5,0,.7-.1,3.1,0,6.3.1,9.4,0,0,.2.2.2.3.2,1.2.4,2.1,1.4,2.4,2.6.2.7,0,.8-.6.8h-14.8v-.2Z"/><path class="cls-66" d="m187.8,219.5c-.4-1.5-1.1-2.8-2.2-3.9-.3-.3-.3-.4,0-.7,2-1.9,3.9-3.9,5.8-5.8.7-.7,1.2-1.6,1.5-2.5.6,1.5.3,3.3-.9,4.4l-3.8,3.8c-.3.3-.3.4,0,.7,1,1.1,1.8,2.5,2.2,3.9h-2.6Z"/><path class="cls-12" d="m221.2,216c-3.1.2-6.3,0-9.4,0-.2,0-.5,0-.7.1-.3-.2-.6-.2-.8-.5h0c0-1.1.2-1.3,1.2-1.3h8.6c1.7,0,3-.5,3.7-2.2,0,0,.1-.2.2-.2.3,1.7-.7,3.5-2.4,4h-.4Z"/><path class="cls-12" d="m221,209.2h-8.8c-.4,0-.8,0-1.1.2-.2-.2-.6-.2-.8-.6h-.1c.1-1.1.2-1.3,1.3-1.3h8.4c.6,0,1.2,0,1.8-.3.9-.3,1.6-1,2-1.9,0-.1,0-.2.2-.2.4,1.8-.7,3.6-2.5,4h-.4Z"/><path class="cls-31" d="m202.5,186.9v8.5c0,.9-.6,1.7-1.5,1.8h-17.2c-1,0-1.8-.7-1.9-1.7v-17c-.1-1,.6-1.9,1.6-2,.2,0,.3,0,.5,0h16.7c.9-.1,1.8.6,1.9,1.5,0,0,0,0,0,0v8.8h-.1Zm-11.2,4.3c0-1.9-1.5-3.4-3.4-3.4-1.9,0-3.4,1.5-3.4,3.4s1.5,3.4,3.4,3.4h0c1.9,0,3.4-1.5,3.4-3.3,0,0,0,0,0,0Zm0-8.6c0-1.9-1.5-3.4-3.4-3.4-1.9,0-3.4,1.5-3.4,3.4s1.5,3.4,3.4,3.4h0c1.9,0,3.4-1.4,3.5-3.3h-.1Zm5.1,3.4c1.9,0,3.4-1.5,3.4-3.4s-1.5-3.4-3.4-3.4c-1.9,0-3.4,1.5-3.4,3.4h0c0,1.9,1.5,3.4,3.3,3.4,0,0,0,0,0,0Zm2.6,5.2v-1.6c0-.5-.3-.9-.7-1h-3.5c-.4,0-.9.3-.9.7v3.5c0,.5.3.9.7.9,0,0,0,0,0,0h3.5c.5,0,.9-.3.9-.7,0,0,0,0,0,0v-1.7h-.1Z"/><path class="cls-41" d="m210.2,181.7h-3.8c-.3,0-.5,0-.5-.4,0-.6.3-1.2,1-1.3.1,0,.2,0,.3,0h6.9c.4,0,.5,0,.5.5,0,.6-.3,1.2-1,1.3-.1,0-.2,0-.3,0h-3.1,0Z"/><path class="cls-45" d="m213.2,176.5h3.4c.3,0,.4,0,.4.4q0,1.4-1.3,1.4h-5.9c-.4,0-.5,0-.5-.5,0-.9.4-1.3,1.2-1.3h2.7Z"/><path class="cls-45" d="m205.9,177.4c0-.4.2-.7.6-.8,0,0,.1,0,.2,0,.5,0,.8.3.9.9q0,.9-.9.9c-.9,0-.8,0-.8-.9h0Z"/><path class="cls-21" d="m210.2,208.7h.1c0,0-.1,0-.1,0Z"/><path class="cls-42" d="m188.3,194.4c1.9,0,3.4-1.6,3.4-3.5,0-1.9-1.6-3.4-3.5-3.4-1.9,0-3.4,1.6-3.4,3.5,0,1.9,1.5,3.4,3.4,3.4h.1Zm-2.1-3.8v.4c0,.8.5,1.4,1.2,1.7.9.3,1.9-.2,2.2-1.1.1-.5,0-1-.2-1.5-.4-.5-1.1-.8-1.7-.6-1.1,0-1.4.3-1.4,1.2h-.1Z"/><path class="cls-42" d="m191.3,182.6c0,1.9-1.5,3.4-3.4,3.4-1.9,0-3.4-1.5-3.4-3.4s1.5-3.4,3.4-3.4h0c1.9,0,3.4,1.5,3.4,3.3,0,0,0,0,0,0Zm-5-.3c-.2.6,0,1.3.6,1.7.8.5,1.9.4,2.4-.4.3-.4.4-.8.3-1.3,0-.9-.9-1.5-1.8-1.4,0,0,0,0,0,0h-.2c-.5-.2-1.1,0-1.3.6,0,0,0,0,0,0v.7h0Z"/><path class="cls-42" d="m192.8,183c0,1.9,1.6,3.4,3.5,3.4,1.9,0,3.4-1.6,3.4-3.5,0-1.9-1.6-3.4-3.5-3.4-1.9,0-3.4,1.5-3.4,3.4h0Zm2-.7c-.3.4,0,.8.2,1.2.4.6,1.1.9,1.8.8.7-.1,1.2-.6,1.3-1.3.2-.8-.2-1.6-.9-1.9-.4-.2-.9-.3-1.3-.2-.6,0-1.1.3-1.2.9,0,.2,0,.3,0,.5h0Z"/><path class="cls-14" d="m199,191.2v1.7c0,.5-.3.9-.7.9,0,0,0,0,0,0h-3.4c-.5,0-.9-.3-.9-.7,0,0,0,0,0,0v-3.5c0-.4.3-.9.7-.9h3.5c.5,0,.9.3.9.7,0,0,0,0,0,0v1.8Zm-3-.4h1.6c.3,0,.5-.1.5-.5s-.3-.3-.5-.3h-1.3c0-.3-.3-.4-.5-.5-.4,0-.8.3-1,.7-.2.3-.1.6.1.8.4.3.7.1,1-.1h0Zm.4,1.7h1.3c.2,0,.4-.2.4-.4h0c0-.2-.1-.4-.3-.4,0,0,0,0,0,0h-2.5c-.2,0-.4.1-.4.3h0c0,.2.2.4.4.4h1.3-.1Z"/><path class="cls-65" d="m187.5,189.5c.6-.2,1.3,0,1.7.6.6.7.4,1.8-.3,2.3,0,0,0,0-.1,0-.4.3-1,.4-1.5.2-.7-.3-1.2-.9-1.2-1.7v-.4c.2.3.6.4.9.3,0,.8.5,1.2,1.1,1,.4-.2.7-.7.5-1.1,0,0,0,0,0,0-.1-.4-.6-.7-1-.6,0-.3,0-.5-.1-.8h0Z"/><path class="cls-49" d="m187.5,189.5c.2.2.2.5.1.8-.1.3-.4.5-.6.7-.3,0-.7,0-.9-.3,0-.9.3-1.2,1.4-1.2Z"/><path class="cls-65" d="m187.6,181c.9-.2,1.8.3,2,1.2v.2c0,.6-.2,1.3-.7,1.7-.6.4-1.4.4-2,0-.5-.4-.8-1.1-.6-1.7.2.2.5.2.8.1,0,.8.5,1.2,1.1,1,.4-.1.6-.5.6-.9,0-.5-.4-.7-1.1-.7,0-.3,0-.6-.1-.8h0Z"/><path class="cls-49" d="m187.1,182.4c-.3,0-.6,0-.8-.1-.2-.5,0-1.1.6-1.3,0,0,0,0,0,0h.7c.2.2.2.5.1.8-.2.2-.4.5-.6.6Z"/><path class="cls-65" d="m196,180.9c.4,0,.9,0,1.3.2.7.4,1,1.1.9,1.9-.2.6-.7,1.1-1.3,1.3-.7.1-1.4-.2-1.8-.8-.3-.3-.3-.8-.2-1.2.2.1.5.2.8.2,0,.4.1.8.6.9s.9,0,1-.4c.3-.6-.1-1.1-1-1.2,0-.3,0-.7-.3-.9Z"/><path class="cls-49" d="m196,180.9c.3.2.4.6.3.9-.2.3-.4.5-.7.7-.3,0-.6,0-.8-.2-.3-.8.3-1.4,1.2-1.4Z"/><path class="cls-44" d="m196.4,192.4h-1.3c-.2,0-.4-.1-.4-.3h0c0-.2.1-.4.3-.4h2.5c.2,0,.4,0,.4.4,0,.2-.1.4-.3.4,0,0,0,0,0,0h-1.3.2Z"/><path class="cls-19" d="m196,190.7h0c-.3.2-.6.4-1,.1-.2-.2-.3-.5-.1-.8.2-.4.6-.7,1-.7.3,0,.5.2.5.4,0,0,0,0,0,0,0,.3,0,.6-.3.8h0Z"/><path class="cls-44" d="m196,190.7c.2-.2.3-.5.3-.8h1.3c.2,0,.5,0,.5.3,0,.3-.2.5-.4.5,0,0,0,0,0,0h-1.6Z"/><path class="cls-42" d="m187,191c.2-.2.5-.4.6-.7.5,0,.9.2,1,.7,0,.4-.1.8-.5,1-.6.2-1.1-.2-1.1-1Z"/><path class="cls-42" d="m187.1,182.4l.6-.6c.6,0,1,.2,1.1.7,0,.4-.2.8-.6.9-.6.2-1.1-.3-1.1-1Z"/><path class="cls-42" d="m195.6,182.4c.3-.2.5-.4.7-.7.8,0,1.2.5,1,1.2-.1.4-.6.6-.9.4,0,0,0,0,0,0-.5,0-.6-.5-.6-.9h0Z"/></svg>