<?xml version="1.0" encoding="UTF-8"?><svg id="Layer_1" xmlns="http://www.w3.org/2000/svg" xmlns:xlink="http://www.w3.org/1999/xlink" viewBox="0 0 400 400"><defs><style>.cls-1{stroke:#a5262d;}.cls-1,.cls-2,.cls-3{stroke-width:4px;}.cls-1,.cls-2,.cls-3,.cls-4{stroke-miterlimit:10;}.cls-1,.cls-2,.cls-3,.cls-4,.cls-5{fill:none;}.cls-6{fill:url(#linear-gradient-2);}.cls-7{fill:#fff;}.cls-8{fill:#bd694f;}.cls-9{fill:#ede6e3;}.cls-10{fill:#eb917f;}.cls-11{fill:#b9a1d3;}.cls-12{fill:#fdc00f;}.cls-13{fill:#934d36;}.cls-14{fill:#f3bd99;}.cls-2{stroke:#c000e2;}.cls-15{fill:#4d5961;}.cls-16{fill:#f4bd99;}.cls-17{fill:#5e6b74;}.cls-3{stroke:#00b51e;}.cls-4{stroke:#231f20;stroke-width:2px;}.cls-18{fill:#baa1d3;}.cls-19{fill:#16c5d5;}.cls-20{fill:#97d6e5;}.cls-21{fill:#1b1464;}.cls-22{fill:#073856;}.cls-23{fill:#9dd8e6;}.cls-24{fill:#baa2d3;}.cls-25{fill:#d8ceca;}.cls-26{fill:#ede4e1;}.cls-27{fill:#525f67;}.cls-28{fill:url(#linear-gradient);}.cls-29{fill:#231f20;}.cls-30{fill:#924d36;}.cls-31{fill:#914d37;}</style><linearGradient id="linear-gradient" x1="-256.5" y1="-281.4" x2="-255" y2="-293" gradientTransform="translate(565 506.6) rotate(-27.3)" gradientUnits="userSpaceOnUse"><stop offset="0" stop-color="#d53f26"/><stop offset="1" stop-color="#a4252c"/></linearGradient><linearGradient id="linear-gradient-2" x1="1704.5" y1="739.2" x2="1706" y2="727.6" gradientTransform="translate(2043.3 508.5) rotate(-152.4) scale(1 -1)" xlink:href="#linear-gradient"/></defs><path d="m175.5,45.7l.7-2.6c1,.5,2.2.2,2.9-.6.9-.9.8-1.5.4-1.8-.5-.5-1.2-.2-2.8.7-1.6.9-3.4,1.6-5,0-1.4-1.5-1.4-3.9.2-5.4,0,0,0,0,0,0,1.3-1.4,3.2-1.8,5-1.2l-.6,2.6c-.8-.4-1.8-.2-2.4.5-.6.6-.6,1.2-.2,1.5s.9.4,2.6-.5,3.5-1.9,5.3-.2c1.6,1.6,1.3,3.9-.5,5.7-1.3,1.6-3.5,2.2-5.4,1.4h-.2Z"/><path d="m190.4,32.7c1.2,2,.6,4.7-1.5,5.9,0,0,0,0,0,0-.8.5-1.8.6-2.7.3l2,3.7-2.3,1.2-5.6-10.5,2.3-1.2.4.7c.2-1,.9-1.7,1.8-2.1,2.1-1,4.7,0,5.7,2.1,0,0,0,0,0,0h0Zm-2.3,1.2c-.5-1-1.7-1.4-2.7-1,0,0,0,0-.1,0-1,.5-1.4,1.7-.9,2.7,0,0,0,0,0,.1.5,1,1.7,1.4,2.7,1,0,0,0,0,.1,0,1-.5,1.4-1.7.9-2.7,0,0,0,0,0-.1Z"/><path d="m196.9,33.6c.6,0,1.1-.4,1.5-.9l2.2.8c-.6,1.3-1.9,2.2-3.3,2.4-2.9.5-5-1.1-5.4-3.6-.5-2.3,1-4.6,3.3-5.1.1,0,.2,0,.3,0,2.3-.4,4.5,1.1,5,3.4,0,0,0,.1,0,.2v1l-5.9,1.1c.5.7,1.4,1.1,2.2.8h0Zm1-3.3c-.5-.9-1.6-1.3-2.6-.8-.6.3-1,.9-1,1.5l3.6-.7Z"/><path d="m211.6,27.5l-1.1,8.4-2.5-.3v-.8c-.6.7-1.6.9-2.5.7-2.3-.4-3.9-2.7-3.5-5,.2-2.3,2.2-4.1,4.5-3.9,0,0,0,0,0,0,1,0,1.8.5,2.4,1.3v-.8c.1,0,2.6.3,2.6.3h0Zm-3.1,3.9c.2-1-.4-2-1.4-2.3,0,0-.2,0-.3,0-1.1-.2-2.1.6-2.3,1.7,0,0,0,0,0,.1-.2,1,.4,2,1.4,2.3,0,0,.2,0,.3,0,1.1.2,2.1-.6,2.3-1.7,0,0,0,0,0-.1Z"/><path d="m216.3,38.5l-.9-4.5-1.5,3.4-2.3-1.1,4.9-10.8,2.3,1.1-2.9,6.5,3.9-2.3,2.7,1.2-4.6,2.6,1.1,5.2-2.6-1.2h0Z"/><path d="m223.3,40.8c.5.4,1.1.6,1.7.5l.8,2.2c-1.4.4-2.9,0-4-1-2-1.5-2.4-4.3-1-6.3,0,0,.1-.2.2-.2,1.5-2,4.2-2.4,6.2-.9,2,1.5,2.4,4.2.9,6.2,0,.1-.2.2-.3.3-.2.3-.4.5-.7.7l-4.6-3.9c-.3.8,0,1.8.8,2.2v.2Zm3.2-1.4c.3-.8.1-1.7-.5-2.2-.6-.6-1.6-.7-2.3-.2l2.8,2.3h0Z"/><path d="m235.5,44.8l-2.3,1.7c-.4-1-1.5-1.6-2.6-1.2-.2,0-.4.2-.5.3l-3.1,2.3-1.5-2.1,6.9-5,1.5,2.1-1.2.9c1.1-.3,2.3.1,2.9,1.1h0Z"/><circle class="cls-3" cx="198.7" cy="336.5" r="45"/><path d="m176.2,310.8c2.3,1.9,2.6,5.2.7,7.4-.1.1-.2.2-.3.4-2.1,2.5-5.9,2.8-8.3.6,0,0,0,0,0,0-2.4-2.2-2.6-5.9-.4-8.3,0,0,0,0,0,0,1.3-1.5,3.3-2.2,5.2-1.9l-.5,2.5c-1.1-.2-2.1.3-2.8,1.1-1.2,1.2-1.2,3.2,0,4.5,0,0,.2.2.3.2,1.4,1.3,3.3,1.2,4.8-.4.9-.8,1.2-2.2.6-3.3l-2,2.2-1.7-1.5,3.8-4.2.7.6h0Z"/><path d="m186.4,306.7c1.1,1.9.5,4.4-1.4,5.5,0,0,0,0,0,0-.8.5-1.7.6-2.6.3l1.9,3.5-2.1,1.1-5.3-9.9,2.1-1.1.4.7c.2-.9.8-1.6,1.6-2,2-1,4.4-.1,5.4,1.9Zm-2.1,1.1c-.4-.9-1.5-1.3-2.4-.9,0,0-.1,0-.2.1-.9.4-1.3,1.6-.9,2.5,0,0,0,0,0,.1.4.9,1.5,1.3,2.4.9,0,0,.1,0,.2-.1.9-.4,1.3-1.6.9-2.5,0,0,0,0,0-.1h0Z"/><path d="m195.4,303.7l1,4.8-2.3.5-.9-4.5c0-.7-.7-1.2-1.4-1.2-.1,0-.2,0-.3,0-.7,0-1.3.8-1.2,1.5,0,.1,0,.3.1.4l.9,4.3-2.4.5-2.3-11,2.3-.5.8,3.9c.4-.8,1.1-1.3,2-1.4,1.6-.3,3.2.7,3.6,2.3,0,0,0,.2,0,.3h0Z"/><path d="m197.2,304.5c.2-2.3,2.2-4.1,4.6-3.9s4.1,2.2,3.9,4.6-2.2,4.1-4.6,3.9-4.1-2.2-3.9-4.6Zm6.1.5c.1-1-.6-1.9-1.6-2,0,0,0,0,0,0-1,0-1.9.7-2,1.7-.1,1,.6,1.9,1.6,2,0,0,0,0,0,0,1,0,1.9-.7,2-1.7Z"/><path d="m214.9,307.5l-1.7,4.6-2.2-.9,1.6-4.3c.4-.6.1-1.4-.5-1.8,0,0-.2,0-.3-.1-.8-.3-1.6,0-1.9.8,0,0,0,.1,0,.2l-1.6,4.1-2.2-.9,2.8-7.5,2.2.9-.3.7c.8-.5,1.7-.5,2.5,0,1.5.6,2.4,2.1,1.6,4.2h0Z"/><path d="m218.3,313.4c.5.4,1,.5,1.6.4l.9,2c-2.4.6-4.8-.9-5.4-3.3-.3-1.2,0-2.5.6-3.5,1.3-1.8,3.8-2.3,5.7-1,0,0,.2.1.2.2,1.8,1.3,2.2,3.8.9,5.6,0,0-.1.1-.2.2-.2.3-.4.5-.7.7l-4.5-3.4c-.2.8.2,1.6.9,2h0Zm2.9-1.5c.4-.7,0-1.6-.6-2-.6-.6-1.6-.6-2.2,0l2.8,2.1h0Z"/><path d="m234.8,318.4l-9.4,6-1.4-2.2,7.2-4.6-1.5-1.4,1.5-1.7,2.5,1.9,1.2,1.9h-.1Z"/><path class="cls-19" d="m208.7,314.6c-6.6-1.4-13.4-1.4-20,0-2.3.4-4,2.2-4.3,4.5-2.5,19.9-1.6,30.9,1.8,51,.5,2.7,2.3,5.2,4,5.5,5.6,1.1,11.5,1.1,17.1,0,1.7-.3,3.5-2.9,4-5.5,3.4-20.1,4.3-31.1,1.8-51-.3-2.3-2-4.1-4.3-4.5h-.1Z"/><path class="cls-22" d="m191.3,342.5c4.8,1.5,10,1.5,14.8,0,1-.3,1-.7-.1-.7h-14.6c-1.1,0-1.2.4,0,.7Z"/><path class="cls-12" d="m206.5,322.1h-15.5c-1.7.1-2.9,1.6-2.8,3.3,0,0,0,0,0,0v10.6c0,1.7,1.1,3.1,2.8,3.3h15.5c1.7-.1,2.9-1.6,2.8-3.3,0,0,0,0,0,0v-10.6c0-1.7-1.1-3.1-2.8-3.3Z"/><path class="cls-7" d="m193.9,349.9c0,.6-.4,1.1-1,1-1.3-.2-2.6-.5-3.8-.8-.6-.2-1-.8-1-1.4,0-1.2,0-2.5-.1-3.7,0-.5.3-.9.7-.9,0,0,.2,0,.3,0,1.3.3,2.6.6,3.9.8.6,0,1,.7,1,1.3v3.7Z"/><path class="cls-7" d="m201.7,350.1c0,.6-.4,1.1-1,1.2h-3.9c-.6,0-1-.6-1-1.2v-3.7c0-.6.4-1,1-1.1h3.9c.6,0,1,.4,1,1,0,0,0,0,0,.1v3.7Z"/><path class="cls-7" d="m209.4,348.7c0,.6-.4,1.2-1,1.4-1.3.3-2.6.6-3.8.8-.5,0-1-.4-1-.9,0,0,0,0,0-.1v-3.7c0-.6.4-1.1,1-1.3,1.3-.2,2.6-.5,3.9-.8.6-.1,1,.2,1,.9,0,1.2,0,2.5,0,3.7Z"/><path class="cls-7" d="m194,357.4c0,.6-.4,1.1-1,1-1.3-.2-2.6-.4-3.8-.8-.6-.2-1-.8-1-1.4,0-1.2,0-2.5-.1-3.7,0-.5.3-.9.7-.9,0,0,.2,0,.3,0,1.3.3,2.5.6,3.8.8.6,0,1,.7,1,1.3v3.7h.1Z"/><path class="cls-7" d="m201.6,357.6c0,.6-.4,1.1-1,1.2h-3.8c-.6,0-1-.6-1-1.2v-3.7c0-.5.3-1,.9-1.1,0,0,0,0,.1,0h3.9c.6,0,1,.4,1,1,0,0,0,0,0,.1v3.7h-.1Z"/><path class="cls-7" d="m209.2,356.3c0,.6-.4,1.2-1,1.4-1.2.3-2.5.6-3.8.8-.6,0-1-.4-1-1v-3.7c0-.6.4-1.1,1-1.3,1.3-.2,2.6-.4,3.8-.8.4,0,.9.2,1,.6,0,0,0,.2,0,.3,0,1.2,0,2.5-.1,3.7h.1Z"/><path class="cls-7" d="m194.1,365c0,.6-.4,1.1-1,1-1.2-.2-2.5-.4-3.7-.7-.6-.2-1-.8-1-1.4,0-1.2,0-2.5-.1-3.7,0-.6.4-1,.9-.9,1.2.3,2.5.6,3.7.8.5,0,1,.7,1,1.3v3.7h.2Z"/><path class="cls-7" d="m201.6,365.1c0,.6-.4,1.1-1,1.2h-3.7c-.6,0-1-.6-1-1.2v-3.7c0-.5.3-1,.9-1.1,0,0,0,0,.1,0h3.8c.6,0,1,.5,1,1.1v3.7h-.1Z"/><path class="cls-7" d="m209,363.8c0,.6-.4,1.2-1,1.4-1.2.3-2.4.6-3.7.7-.6,0-1-.4-1-1v-3.7c0-.6.4-1.1,1-1.3,1.3-.2,2.5-.4,3.7-.8.4,0,.8.2.9.6,0,.1,0,.2,0,.3,0,1.2,0,2.5-.1,3.7h.2Z"/><path class="cls-7" d="m201.5,372.7c0,.6-.4,1.1-1,1.2h-3.6c-.6,0-1-.6-1-1.2v-3.7c0-.5.3-1,.9-1.1,0,0,0,0,.1,0h3.7c.6,0,1,.5,1,1.1v3.7h0Z"/><path class="cls-22" d="m197.6,320.3c0,.2-.2.5-.4.5h0c-.2,0-.4-.3-.4-.5v-4c0-.2.2-.5.4-.5h0c.2,0,.4.3.4.5v4Z"/><path class="cls-22" d="m199.2,320.3c0,.2-.2.5-.4.5h0c-.2,0-.4-.3-.4-.5v-4c0-.2.2-.5.4-.5h0c.2,0,.4.3.4.5v4Z"/><path class="cls-22" d="m200.8,320.3c0,.2-.2.5-.4.5h0c-.2,0-.4-.3-.4-.5v-4c0-.2.2-.5.4-.5h0c.2,0,.4.3.4.5v4Z"/><path class="cls-7" d="m201.6,335.9h-.6c-.4,0-.9-.2-1.3-.2-.5,0-1-.2-1.5-.3-.6,0-1.2-.2-1.8-.4h-.3c-.2,0-.3-.3-.2-.5,0-.3.2-.6.4-.8.2-.5.4-.9.6-1.4.2-.3.3-.6.5-.9.3-.4.9-.6,1.3-.3,0,0,.1.1.2.2.2.2.3.4.4.6.3.5.6.9.9,1.4.5.8,1,1.5,1.4,2.3,0,0,0,.1.1.2,0,.2,0,.4-.3.4l.2-.3Z"/><path class="cls-28" d="m209.4,371.4c-.2,0-.4,0-.6.2-.5.1-.9.3-1.4.4s-1.1.3-1.7.5-1.3.4-2,.6h-.3c-.3,0-.4-.1-.4-.4v-3.9c.1-.6.7-1,1.3-.9,0,0,.1,0,.2,0,.3,0,.5.1.7.3.5.3,1.1.6,1.6.9.9.5,1.7,1,2.6,1.5.1,0,.2,0,.2.2.2.2.2.4,0,.5h-.2Z"/><path class="cls-6" d="m188,371.4c.2,0,.4,0,.6.2.5.1.9.3,1.4.4s1.1.3,1.7.5,1.3.4,2,.6h.3c.3,0,.4-.1.4-.4v-3.9c-.1-.6-.7-1-1.3-.9,0,0-.1,0-.2,0-.3,0-.5.1-.7.3-.5.3-1.1.6-1.6.9-.9.5-1.7,1-2.6,1.5-.1,0-.2,0-.2.2-.2.2-.2.4,0,.5h.2Z"/><path class="cls-7" d="m202.7,325.1h.2c.2,0,.3.1.2.3s-.2.2-.2.4c-.5.7-1.1,1.4-1.6,2.1l-1.5,1.8c-.2.3-.6.5-.9.6-.4.1-.9,0-1.2-.3-.2-.2-.4-.4-.5-.6-.5-.7-1-1.5-1.4-2.2-.2-.3-.4-.7-.6-1h0c-.1-.3,0-.4.2-.4,1,0,2-.1,3-.2.9,0,1.8,0,2.7-.2.6,0,1.3,0,1.9-.1h0l-.3-.2Z"/><line class="cls-5" x1="201" y1="115.3" x2="201.5" y2="148.1"/><line class="cls-4" x1="201" y1="115.3" x2="201.4" y2="137.3"/><polygon class="cls-29" points="193.8 135.2 201.5 148.1 208.8 135 193.8 135.2"/><line class="cls-5" x1="201" y1="253.3" x2="201.5" y2="286.1"/><line class="cls-4" x1="201" y1="253.3" x2="201.4" y2="275.3"/><polygon class="cls-29" points="193.8 273.2 201.5 286.1 208.8 273 193.8 273.2"/><circle class="cls-1" cx="201.3" cy="63.5" r="45"/><path class="cls-8" d="m215.3,98.9h-26c0-.2-.2-.2-.4-.3-1.3-.5-2.1-1.7-2.1-3.1v-44.6c0-1,.5-2,1.3-2.6.4-.3.9-.3,1.2-.8h26c2.2.8,2.9,1.8,2.9,4.2v43.8c0,1.4-.9,2.7-2.2,3.2-.3,0-.5,0-.7.3h0Zm-14-2c7.2,0,13-5.8,13-13s-5.8-13-13-13-13,5.8-13,13v.2c0,7.1,5.7,12.8,12.8,12.8,0,0,.1,0,.2,0Zm0-47.2c-5.1,0-9.2,4.2-9.2,9.3,0,5.1,4.2,9.2,9.3,9.2s9.2-4.2,9.2-9.3c0-5.1-4.1-9.2-9.2-9.2h-.1Zm7.3,19.3c0,1.9,1.5,3.5,3.4,3.6h0c1.9,0,3.5-1.6,3.5-3.6,0,0,0,0,0-.1,0-1.9-1.5-3.4-3.4-3.5-2,0-3.5,1.6-3.6,3.6h.1Zm-18.5,25.8c0-.9-.7-1.5-1.6-1.5-.8,0-1.4.7-1.5,1.5,0,.9.6,1.6,1.5,1.7s1.6-.6,1.7-1.5v-.2h0Zm-1.6-41.7c.9,0,1.6-.6,1.6-1.5h0c0-.9-.6-1.6-1.5-1.7s-1.6.6-1.7,1.5h0v.2c0,.9.6,1.6,1.5,1.6h0Zm25.4,0c.8,0,1.5-.7,1.5-1.5h0c0-.9-.7-1.5-1.6-1.5-.9,0-1.5.7-1.5,1.6h0c0,.8.7,1.5,1.5,1.5h.1Zm0,40.1c-.8,0-1.5.6-1.6,1.4h0c0,.9.6,1.6,1.5,1.6.9,0,1.6-.6,1.6-1.5,0-.9-.6-1.6-1.5-1.6h0Z"/><path class="cls-13" d="m187.3,98.9c-.9-.2-1.7-.7-2.3-1.5-.4-.6-.7-1.3-.7-2v-44c-.1-1.4.6-2.8,1.8-3.5.4-.2.7-.3,1.1-.5h1.9c-.3.4-.8.5-1.2.8-.8.6-1.3,1.6-1.3,2.6v44.6c0,1.4.8,2.6,2.1,3.1.1,0,.4,0,.4.3h-1.9,0Z"/><path class="cls-18" d="m227,59.7c-.3.3-.8.5-1.2.4h-3.8c-.6,0-.9-.2-.9-.7s.3-.8.9-.8h4.1c.4,0,.7.2.9.5v.6Z"/><path class="cls-24" d="m175.6,84.1c.3-.3.7-.5,1.1-.4h3.9c.6,0,.9.2.9.7s-.3.8-.9.8h-4.1c-.4,0-.7-.2-.9-.5v-.6Z"/><path class="cls-24" d="m227,84.7c-.3.3-.7.5-1.1.5h-4.3c-.4,0-.6-.4-.5-.8,0,0,0,0,0,0,0-.3.3-.6.6-.6h4.5c.3,0,.4.3.7.4v.6h.1Z"/><path class="cls-18" d="m175.6,59.1c.2-.4.7-.6,1.1-.5h4.2c.3,0,.6.4.5.7,0,0,0,0,0,0,0,.3-.2.6-.6.6,0,0,0,0,0,0h-4.5c-.3,0-.4-.3-.7-.4v-.5Z"/><path class="cls-31" d="m201.3,96.9c-7.1,0-12.9-5.9-12.8-13,0-7.1,5.9-12.9,13-12.8,7.1,0,12.9,5.9,12.8,13,0,7-5.8,12.7-12.8,12.8h-.2Zm11.1-10.1h0c.4-1.5.5-3.1.2-4.7-1-6.2-6.9-10.5-13.1-9.5h-.4c-3.3.6-6.2,2.6-7.8,5.6-.6.9-.9,1.9-1.1,2.9h0c-.4,1.4-.4,2.9-.2,4.3.5,3.7,2.8,7,6.1,8.7,1.4.7,2.9,1.1,4.4,1.2,1.2.1,2.4,0,3.6-.4.2,0,.5,0,.7-.1,2.8-.8,5.1-2.7,6.5-5.2.6-.9,1-1.9,1.2-3v.2Z"/><path class="cls-30" d="m201.3,49.7c5.1,0,9.3,4.2,9.3,9.3s-4.2,9.3-9.3,9.3-9.3-4.2-9.3-9.3c0-5.1,4.2-9.3,9.3-9.3Zm-1.2,1.6c-1.9.3-3.7,1.3-4.9,2.9-.9,1-1.4,2.3-1.5,3.6-.2.7-.2,1.3,0,2,.3,2.9,2.2,5.3,4.9,6.3,1.3.6,2.7.7,4,.4h.6c3-.8,5.3-3.3,5.8-6.4.2-.8.2-1.7,0-2.5-.7-4.2-4.6-7-8.8-6.4h-.1Z"/><path class="cls-30" d="m208.6,69c-.2-2.1,1.9-3.6,3.6-3.6,1.9,0,3.5,1.7,3.4,3.6,0,0,0,.1,0,.2,0,1.9-1.6,3.4-3.5,3.4-2,0-3.5-1.6-3.5-3.6h0Zm3.5,2.1c1.2,0,2.1-.9,2.1-2.1h0c0-1.1-1-2-2.1-2.1-1.1,0-2,1-2,2.1,0,1.1.8,2,1.8,2,0,0,0,0,0,0h.1Z"/><path class="cls-26" d="m190.2,94.8c0,.9-.6,1.6-1.5,1.6s-1.6-.6-1.6-1.5v-.2c0-.9.8-1.5,1.7-1.5,0,0,0,0,0,0,.8,0,1.4.7,1.5,1.5h0Z"/><path class="cls-26" d="m188.6,53.1c-.8,0-1.5-.6-1.5-1.4,0,0,0,0,0,0h0c0-.9.6-1.6,1.5-1.6.9,0,1.6.6,1.6,1.5h0v.2c0,.8-.7,1.5-1.5,1.5h-.1Z"/><path class="cls-26" d="m214,53.1c-.8,0-1.5-.7-1.6-1.5h0c0-.9.7-1.6,1.6-1.6.9,0,1.6.7,1.6,1.6,0,.8-.7,1.5-1.5,1.6h0Z"/><path class="cls-26" d="m214,93.3c.8,0,1.5.7,1.5,1.5h0c0,.9-.7,1.5-1.6,1.5s-1.5-.7-1.5-1.6h0c0-.8.7-1.5,1.5-1.5h.1Z"/><path class="cls-18" d="m225,52.4c0,.2-.1.4-.3.6l-2.7,2.7c-.3.3-.8.4-1.1,0h0c-.3-.3-.3-.7.1-1.1l2.7-2.7c.2-.3.7-.4,1-.2.3.1.4.4.4.7h0Z"/><path class="cls-11" d="m221.4,88c.2,0,.5,0,.6.3l2.7,2.7c.3.2.4.7.1,1,0,0,0,0,0,0h-.1c-.3.4-.8.4-1.1.1h0c-.9-.9-1.8-1.9-2.8-2.8-.2-.2-.3-.5-.2-.8,0-.3.4-.5.7-.4,0,0,0,0,0,0h.1Z"/><path class="cls-11" d="m225,66.6c0,.3-.2.5-.5.6-.3,0-.7,0-.9-.2l-2.4-2.4-.5-.5c-.3-.2-.3-.7,0-.9,0,0,0,0,0,0h0c.2-.2.5-.3.8-.1,0,0,0,0,.1.1h0l2.9,2.9c.1.1.2.3.2.5h.3Z"/><path class="cls-11" d="m225,77.3c0,.2-.1.5-.3.6l-2.7,2.7c-.2.3-.7.4-1,.2h0c-.3-.2-.3-.7,0-.9,0,0,0,0,0,0h.1c0-.1,2.8-2.9,2.8-2.9.2-.2.5-.3.8-.2.2,0,.4.3.4.6h-.1Z"/><path class="cls-18" d="m182,55.2c0,.3-.2.5-.4.7-.3,0-.7,0-.9-.2l-2.3-2.3c-.2-.2-.4-.4-.5-.6-.3-.2-.3-.7,0-.9,0,0,0,0,0,0h0c.2-.3.7-.3.9,0,0,0,0,0,0,0h0c.5.4.9.8,1.3,1.3.4.5,1,1,1.5,1.5.2.2.3.4.3.6Z"/><path class="cls-11" d="m182,88.7c0,.2-.1.4-.3.6l-2.7,2.7c-.3.3-.7.4-1.1.2h0c-.4-.4-.3-.8.1-1.2l2.7-2.7c.2-.2.6-.3.9-.2.3.1.5.4.5.7h0Z"/><path class="cls-11" d="m182,63.7c0,.2-.1.4-.3.6l-2.7,2.7c-.4.4-.8.4-1.1.1-.3-.3-.3-.8,0-1.1h.1c.9-.9,1.8-1.9,2.8-2.8.2-.2.5-.3.8-.2.3.1.5.4.5.7h-.1Z"/><path class="cls-11" d="m182,80.2c0,.3-.2.5-.4.7-.2.2-.6.2-.8,0l-3-3c-.2-.3-.2-.6,0-.9h0c.2-.2.5-.3.8-.1,0,0,0,0,.1.1h0l2.9,2.9c.1.1.2.3.2.5l.2-.2Z"/><path class="cls-27" d="m190.3,81.1c.2-1,.5-2,1.1-2.9,3.2-5.5,10.2-7.4,15.7-4.3.4.2.8.5,1.2.8,2.4,1.7,4,4.4,4.4,7.3.3,1.5.2,3.1-.2,4.6h0c-.3.1-.7.2-1,.2-1.8,0-3.6-.5-5.2-1.5-.4-.3-.8-.5-1.3-.7v-1.1c-.1-1.5-1.2-2.7-2.6-3.1-.7-.3-1.6-.3-2.3,0-1.2.4-2.1,1.5-2.4,2.7-.1,0-.2,0-.4-.2-1.8-1.4-4-2.1-6.3-2.1-.2,0-.5.1-.7,0v.3Z"/><path class="cls-15" d="m190.3,81.1h.7c2.3,0,4.5.7,6.3,2.1.1,0,.2.1.4.2h0c-.3,1.9.8,3.6,2.5,4.1.6.1,1.2.2,1.8.1.6.9,1.1,1.9,1.6,2.9.7,1.4.8,3,.4,4.5-1.2.4-2.4.5-3.6.4-1.5-.1-3-.5-4.4-1.2-3.4-1.7-5.7-5-6.1-8.7-.2-1.4-.1-2.8.2-4.2h0l.2-.2Z"/><path class="cls-17" d="m204,95c.4-1.5.2-3.1-.4-4.5-.5-1-1-2-1.6-2.9l.4-.2h.2c1.1-.5,2-1.5,2.3-2.7.5.2.9.4,1.3.7,1.6,1,3.4,1.5,5.2,1.5h1c-.2,1.1-.6,2.1-1.2,3-1.4,2.5-3.8,4.3-6.5,5.2-.2,0-.5.1-.7.1v-.2Z"/><path class="cls-17" d="m208.9,60.2c-.1,1.2-.6,2.4-1.4,3.4-1.1,1.5-2.6,2.6-4.4,3h-.6c0-.9-.1-1.7-.5-2.5-1.1-2.3-2.9-4.2-5.1-5.4-.9-.7-2.1-1-3.3-.8.1-1.3.7-2.6,1.5-3.6,1.2-1.6,3-2.6,4.9-2.9,0,.9.2,1.9.6,2.7.9,1.8,2.2,3.3,3.7,4.5,1.2,1.2,2.8,1.8,4.5,1.7h.1Zm-7-3.1c-.8-.3-1.8,0-2.3.7-.5.8-.5,1.7,0,2.5.5.7,1.5,1,2.3.7.9-.2,1.5-1.1,1.4-2,0-.9-.6-1.7-1.4-1.9h0Z"/><path class="cls-15" d="m208.9,60.2c-1.7,0-3.3-.5-4.5-1.7-1.6-1.2-2.9-2.7-3.7-4.5-.4-.8-.6-1.8-.6-2.7,4.2-.7,8.1,2.2,8.8,6.4,0,0,0,0,0,0,.2.8.2,1.7,0,2.5Z"/><path class="cls-15" d="m193.7,57.8c1.2,0,2.3.2,3.3.8,2.2,1.2,4,3.1,5.1,5.4.4.8.6,1.6.5,2.5-1.3.3-2.8.2-4-.4-2.7-1-4.6-3.4-4.9-6.3,0-.7,0-1.3,0-2Z"/><path class="cls-15" d="m212.2,71.1c-1.1,0-2-.8-2-1.8,0,0,0,0,0,0h0c0-1.1.9-2,2-2.1,1.2,0,2.1.9,2.1,2.1,0,1.2-.9,2.1-2.1,2.1h0v-.2Z"/><path class="cls-9" d="m204.9,84.6c-.3,1.2-1.1,2.2-2.3,2.7h-.2c-.6-.4-1.2-.8-1.6-1.4-1.1-1.7-.7-4,1-5.1h0c.1,0,.4-.1.4-.3,1.4.4,2.5,1.6,2.6,3.1v1.1h.1Z"/><path class="cls-25" d="m202.3,80.5c0,.2-.2.3-.4.3-1.7,1.1-2.2,3.3-1.2,5.1h0c.4.6,1,1,1.6,1.4l-.4.2c-.6,0-1.2,0-1.8-.1-1.7-.6-2.8-2.3-2.6-4.1h0c.2-1.4,1.1-2.5,2.4-2.9.7-.3,1.6-.3,2.3,0h0Z"/><path class="cls-9" d="m201.9,57c.9.2,1.5,1,1.4,1.9,0,.9-.6,1.7-1.4,2,0-.2-.3-.3-.5-.5-.8-.7-.9-2-.2-2.8.2-.2.5-.3.7-.6Z"/><path class="cls-25" d="m201.9,57c-.1.3-.5.4-.7.6-.7.8-.6,2.1.2,2.8.2.2.4.2.5.5-.8.3-1.8,0-2.3-.7-.5-.8-.5-1.7,0-2.5.5-.7,1.5-1,2.3-.7Z"/><path class="cls-16" d="m179,225.5c.5-.4.9-.9,1.4-1.3l6.8-6.8c1.6-1.7,4.2-1.7,5.9-.1,0,0,0,0,.1.1.6.5,1,1.2,1.1,2,.1.6.1,1.3,0,1.9-.3.9-.8,1.8-1.5,2.5-2,1.9-3.9,3.9-5.8,5.8-.3.3-.3.4,0,.7,1,1.1,1.8,2.5,2.2,3.9h-13.2c-.2,0-.4,0-.4-.2,0-1.2,0-2.5.2-3.7.3-1.2.9-2.2,1.7-3.1l1.5-1.5v-.2Z"/><path class="cls-14" d="m211.6,223.3c-1.5-.8-2.1-2.6-1.4-4.2.5-1.3,1.9-2.2,3.3-2.1h8.4c1.7,0,3.1,1.2,3.4,2.8-.2,0-.2.1-.2.2-.4.9-1.1,1.6-2,1.9-.6.2-1.2.3-1.8.3h-8.4c-1,0-1.2,0-1.3,1.1Z"/><path class="cls-16" d="m211.6,230.2c-1.6-.9-2.2-3-1.3-4.6.5-.8,1.3-1.4,2.2-1.6.4,0,.7,0,1.1-.2h8.8c.7.2,1.3.5,1.9,1,.5.5.8,1.1,1,1.8,0,0-.2.1-.2.2-.6,1.5-2.1,2.4-3.7,2.2h-8.6c-1,0-1.2.2-1.2,1.2Z"/><path class="cls-16" d="m209.9,234.2c0-1.6,1.1-3,2.6-3.3.2,0,.5,0,.7-.1,3.1,0,6.3.1,9.4,0,0,.2.2.2.3.2,1.2.4,2.1,1.4,2.4,2.6.2.7,0,.8-.6.8h-14.8v-.2Z"/><path class="cls-21" d="m189.2,234.2c-.4-1.5-1.1-2.8-2.2-3.9-.3-.3-.3-.4,0-.7,2-1.9,3.9-3.9,5.8-5.8.7-.7,1.2-1.6,1.5-2.5.6,1.5.3,3.3-.9,4.4l-3.8,3.8c-.3.3-.3.4,0,.7,1,1.1,1.8,2.5,2.2,3.9h-2.6Z"/><path class="cls-10" d="m222.6,230.6c-3.1.2-6.3,0-9.4,0-.2,0-.5,0-.7.1-.3-.2-.6-.2-.8-.5h0c0-1.1.2-1.3,1.2-1.3h8.6c1.7,0,3-.5,3.7-2.2,0,0,.1-.2.2-.2.3,1.7-.7,3.5-2.4,4h-.4Z"/><path class="cls-10" d="m222.4,223.8h-8.8c-.4,0-.8,0-1.1.2-.2-.2-.6-.2-.8-.6h-.1c.1-1.1.2-1.3,1.3-1.3h8.4c.6,0,1.2,0,1.8-.3.9-.3,1.6-1,2-1.9,0-.1,0-.2.2-.2.4,1.8-.7,3.6-2.5,4h-.4Z"/><path class="cls-20" d="m211.6,196.4h-3.8c-.3,0-.5,0-.5-.4,0-.6.3-1.2,1-1.3.1,0,.2,0,.3,0h6.9c.4,0,.5,0,.5.5,0,.6-.3,1.2-1,1.3-.1,0-.2,0-.3,0h-3.1,0Z"/><path class="cls-23" d="m214.6,191.2h3.4c.3,0,.4,0,.4.4q0,1.4-1.3,1.4h-5.9c-.4,0-.5,0-.5-.5,0-.9.4-1.3,1.2-1.3h2.7Z"/><path class="cls-23" d="m207.3,192.1c0-.4.2-.7.6-.8,0,0,.1,0,.2,0,.5,0,.8.3.9.9q0,.9-.9.9c-.9,0-.8,0-.8-.9h0Z"/><path class="cls-14" d="m211.6,223.3h.1c0,0-.1,0-.1,0Z"/><path class="cls-21" d="m218.3,186.9h-35.8c-.4,0-.9,0-1.3.2-1.4.5-2.4,1.9-2.3,3.4v35.1c.5-.4.9-.9,1.4-1.3l6.8-6.8c.5-.6,1.2-1,2-1.1,2.2-.6,4.5.7,5.1,2.9,0,0,0,.1,0,.2.1.6.1,1.3,0,1.9.6,1.5.3,3.3-.9,4.4l-3.8,3.8c-.3.3-.3.4,0,.7,1,1.1,1.8,2.5,2.2,3.9h18.1c0-1.6,1.1-3,2.6-3.4-.3-.2-.6-.2-.8-.5h0c-1.7-1-2.2-3.2-1.1-4.9.5-.8,1.2-1.3,2-1.5-.2-.2-.6-.2-.8-.6h-.1c-1.5-.9-2.1-2.8-1.4-4.4.5-1.3,1.9-2.2,3.3-2.1h8.4v-26.5c.1-1.9-1.3-3.5-3.1-3.6-.2,0-.3,0-.5,0v.2Zm-11,5.1c0-.4.2-.7.6-.8,0,0,.1,0,.2,0q.9,0,.9.9t-.9.9c-.9,0-.8,0-.8-.9h0Zm7.4,4.4h-6.9c-.3,0-.5,0-.5-.4q0-1.3,1.3-1.3h6.9c.4,0,.5,0,.5.5q0,1.3-1.3,1.3h0Zm2.5-3.4h-5.9c-.4,0-.5,0-.5-.5q0-1.3,1.2-1.3h6.1c.3,0,.4,0,.4.4q0,1.4-1.3,1.4Z"/><circle class="cls-2" cx="201.3" cy="200.6" r="45"/><path d="m170.7,201.8l.2,2.1-5.3.4,4,2.1v.2l-3.7,2.6,5.3-.4.2,2.1-9.1.7-.2-2.1,3.9-2.8-4.2-2.2-.2-2.1,9.1-.7h0Z"/><path d="m170.1,197.4c0-.4,0-.9-.2-1.3l1.2-1.3c.7.8,1,1.9.7,3-.2,1.8-1.9,3.1-3.8,2.9-.1,0-.2,0-.3,0-1.8-.3-3-2-2.7-3.8,0-.1,0-.2,0-.3.3-1.7,2-2.9,3.8-2.6,0,0,.2,0,.2,0,.2,0,.5,0,.7.2l-1,4.5c.7,0,1.2-.6,1.2-1.3h.1Zm-2.1-1.7c-.8,0-1.4.7-1.3,1.5,0,.5.3.9.7,1.2l.6-2.7Z"/><path d="m167.2,184.2l8.2,3.9-.8,1.8-.6-.3c.3.7.3,1.5-.1,2.1-.8,1.6-2.8,2.2-4.3,1.3,0,0,0,0,0,0-1.7-.7-2.5-2.6-1.8-4.3.3-.7.9-1.2,1.6-1.4l-2.9-1.4.8-1.8h0Zm4.4,4.3c-.8-.4-1.7,0-2.1.7-.4.7-.1,1.6.6,2,0,0,.1,0,.2,0,.8.4,1.7,0,2.1-.7.4-.7,0-1.7-.7-2,0,0,0,0-.1,0h0Z"/><path d="m169.3,182.7c-.5-.4-.7-1.1-.3-1.6s1.1-.7,1.6-.3c.5.4.7,1.1.3,1.6-.4.5-1.1.6-1.6.3Zm1.5.9l1.1-1.6,5.3,3.8-1.1,1.6-5.3-3.8Z"/><path d="m178,175.5l4.5,4.7-1.4,1.4-.4-.4c0,.7-.3,1.4-.8,1.9-1.5,1.2-3.7.9-4.8-.6-1-1.3-1-3.1,0-4.3.5-.5,1.2-.8,1.9-.8l-.4-.4,1.4-1.4h0Zm.9,3.7c-.5-.6-1.4-.7-2-.2,0,0-.2.1-.2.2-.6.5-.7,1.5-.1,2.1,0,0,0,0,.1.1.5.6,1.4.7,2,.2,0,0,.2-.1.2-.2.6-.5.8-1.4.3-2,0-.1-.2-.2-.3-.2h0Z"/><path d="m180.9,175.4l4.2-2.6,1,1.6-4.2,2.6-1-1.6Z"/><path d="m192.5,165.6l2.8,8.7-1.5.5-4.9-3.6,1.5,4.7-2,.6-2.8-8.7,1.5-.5,4.9,3.6-1.5-4.7,2-.6Z"/><path d="m195.8,170.9c-.1-1.9,1.3-3.5,3.1-3.6,0,0,0,0,0,0,1.9,0,3.5,1.3,3.7,3.2.1,1.9-1.3,3.5-3.1,3.6,0,0,0,0,0,0-1.9,0-3.5-1.3-3.7-3.2Zm4.9-.3c0-.8-.6-1.4-1.3-1.4,0,0-.2,0-.3,0-.8,0-1.5.8-1.4,1.6s.8,1.5,1.6,1.4c.8,0,1.4-.8,1.4-1.6Z"/><path d="m207,170.9c.4-1.8,2.2-2.9,4-2.4,0,0,.1,0,.2,0,1.2.3,2.1,1.2,2.4,2.4l-1.9.5c0-.5-.5-.9-1-1-.8-.2-1.5.2-1.8,1,0,0,0,0,0,.1-.2.7.1,1.5.9,1.8,0,0,0,0,.1,0,.5.2,1.1,0,1.4-.4l1.4,1.4c-.9.9-2.1,1.2-3.3.9-1.8-.4-2.9-2.2-2.4-4,0,0,0-.1,0-.2h0Z"/><path d="m221.5,173.2l-3,5.7-1.7-.9.3-.5c-.7.2-1.5.2-2.1-.2-1.5-.9-2-3-1.1-4.5.7-1.6,2.6-2.3,4.3-1.6,0,0,0,0,0,0,.7.3,1.2.9,1.3,1.6l.3-.5,1.7.9Zm-3.2,2c.4-.6.3-1.5-.3-2,0,0-.2-.1-.3-.1-.7-.4-1.6-.2-2,.5,0,0,0,.1,0,.2-.4.6-.3,1.5.3,2,0,0,.2.1.3.1.7.4,1.6.2,2-.5,0,0,0-.1,0-.2Z"/><path d="m229,183.3l-2.8,2.8-1.4-1.4,2.7-2.7c.5-.5.5-1,0-1.4s-1-.4-1.6.2l-2.6,2.6-1.4-1.4,2.7-2.7c.5-.5.5-1,0-1.4s-1-.4-1.6.2l-2.6,2.6-1.4-1.4,4.6-4.6,1.4,1.4-.4.4c.7-.1,1.4.1,1.8.7.5.5.7,1.1.6,1.8.7-.1,1.4.1,1.9.7,1,.9,1,2.5,0,3.5,0,0-.1.1-.2.2h.2Z"/><path d="m229.4,189.1c.2.4.6.7,1,.9v1.8c-1.1-.1-2.1-.8-2.6-1.8-1-1.5-.6-3.6,1-4.6.1,0,.2-.1.3-.2,1.6-.9,3.7-.4,4.6,1.3,0,0,0,0,0,.1.9,1.6.3,3.5-1.2,4.4,0,0-.1,0-.2,0-.2.1-.5.2-.7.3l-2.2-4c-.4.5-.4,1.3,0,1.8h-.1Zm2.7,0c.5-.4.6-1.2.2-1.7-.3-.6-1-.9-1.6-.7l1.3,2.5h.1Z"/><path d="m237.2,194.9l-2.1.7c0-.8-.7-1.5-1.6-1.5-.1,0-.3,0-.4,0l-2.8.9-.6-1.9,6.2-2,.6,1.9-1.1.4c.9,0,1.6.6,1.8,1.5h0Z"/><path d="m238.3,203.1l-6.5.8-.2-1.9h.6c-.6-.5-.9-1.2-1-1.9-.2-1.8,1.2-3.3,2.9-3.5,0,0,0,0,0,0,1.8-.3,3.5.9,3.8,2.7.1.7,0,1.4-.5,2h.6l.2,1.9h0Zm-3.5-1.5c.8,0,1.4-.7,1.4-1.5,0,0,0-.2,0-.2,0-.8-.7-1.4-1.5-1.4-.1,0-.2,0-.3,0-.8,0-1.4.7-1.4,1.5,0,0,0,.2,0,.2,0,.8.7,1.4,1.5,1.3,0,0,.2,0,.3,0h0Z"/></svg>