<?xml version="1.0" encoding="UTF-8"?><svg id="Layer_1" xmlns="http://www.w3.org/2000/svg" viewBox="0 0 400 400"><defs><style>.cls-1{fill:#1f2275;}.cls-2{fill:#009245;}.cls-3,.cls-4,.cls-5,.cls-6,.cls-7,.cls-8{stroke-miterlimit:10;}.cls-3,.cls-9{fill:#fff;}.cls-3,.cls-8{stroke:#231f20;stroke-width:2px;}.cls-4{stroke:#a5262d;}.cls-4,.cls-5,.cls-6,.cls-7{stroke-width:4px;}.cls-4,.cls-5,.cls-6,.cls-7,.cls-8{fill:none;}.cls-10{fill:#57575e;}.cls-11{fill:#565959;}.cls-12{fill:#bd694f;}.cls-5{stroke:#0018c6;}.cls-13{fill:#ede6e3;}.cls-14{fill:#d9d9ea;}.cls-15{fill:#eb917f;}.cls-16{fill:#b9a1d3;}.cls-17{fill:#3a926c;}.cls-18{fill:#414343;}.cls-19{fill:#48459c;}.cls-20{fill:#434348;}.cls-21{fill:#934d36;}.cls-22{fill:#f3bd99;}.cls-6{stroke:#c000e2;}.cls-23{fill:#3392f5;}.cls-24{fill:#4d5961;}.cls-25{fill:#f4bd99;}.cls-26{fill:#c9c9c9;}.cls-27{fill:#5e6b74;}.cls-7{stroke:#00b51e;}.cls-28{fill:#b63cdb;}.cls-29{fill:#c69c6d;}.cls-30{fill:#e6e6e6;}.cls-31{fill:#baa1d3;}.cls-32{fill:#424248;}.cls-33{fill:#6e6f6e;}.cls-34{fill:#97d6e5;}.cls-35{fill:#3392f6;}.cls-36{fill:#ff1d25;}.cls-37{fill:#8622fd;}.cls-38{fill:#9dd8e6;}.cls-39{fill:#6665c6;}.cls-40{fill:#fd6220;}.cls-41{fill:#751d0a;}.cls-42{fill:#baa2d3;}.cls-43{fill:#d8ceca;}.cls-44{fill:#ede4e1;}.cls-45{fill:#4b87d4;}.cls-46{fill:#525f67;}.cls-47{fill:#69a6fe;}.cls-48{fill:#29abe2;}.cls-49{fill:#db411d;}.cls-50{fill:#754c24;}.cls-51{fill:#60acfd;}.cls-52{fill:#414242;}.cls-53{fill:#ccf2ff;isolation:isolate;opacity:.5;}.cls-54{fill:#231f20;}.cls-55{fill:#924d36;}.cls-56{fill:#c65d42;}.cls-57{fill:#914d37;}.cls-58{fill:#067fa6;}</style></defs><circle class="cls-7" cx="154.1" cy="328.6" r="40.5"/><path d="m133.8,305.8c2,1.7,2.3,4.7.6,6.7,0,.1-.2.2-.3.3-1.9,2.2-5.3,2.5-7.5.6,0,0,0,0,0,0-2.2-2-2.3-5.3-.4-7.4,0,0,0,0,0,0,1.2-1.3,2.9-2,4.7-1.7l-.5,2.2c-1-.1-1.9.2-2.5,1-1.1,1.1-1.1,2.9,0,4,0,0,.2.1.2.2,1.3,1.2,3,1.1,4.3-.4.9-.7,1.1-2,.5-3l-1.8,2-1.5-1.3,3.4-3.8.6.5h0Z"/><path d="m143,302.1c1,1.7.5,3.9-1.2,4.9,0,0,0,0,0,0-.7.4-1.6.5-2.3.3l1.7,3.1-1.9,1-4.8-8.9,1.9-1,.4.6c.2-.8.7-1.4,1.4-1.8,1.8-.9,4,0,4.9,1.7Zm-1.9,1c-.4-.8-1.3-1.2-2.2-.8,0,0-.1,0-.2,0-.8.4-1.2,1.4-.8,2.2,0,0,0,0,0,.1.4.8,1.3,1.2,2.2.8,0,0,.1,0,.2,0,.8-.4,1.2-1.4.8-2.2,0,0,0,0,0-.1h0Z"/><path d="m151.1,299.4l.9,4.3-2.2.5-.8-4.1c0-.6-.6-1.1-1.2-1.1-.1,0-.2,0-.3,0-.7,0-1.2.7-1.1,1.3,0,.1,0,.2,0,.4l.8,3.9-2.2.4-2.1-9.9,2.1-.4.7,3.5c.4-.7,1-1.2,1.8-1.3,1.5-.3,2.9.6,3.2,2.1,0,0,0,.2,0,.3h.2Z"/><path d="m152.7,300.2c.1-2.1,1.9-3.7,4.1-3.6s3.7,1.9,3.6,4.1-1.9,3.7-4.1,3.6c0,0,0,0,0,0-2.1-.1-3.7-1.9-3.5-4,0,0,0,0,0,0Zm5.5.5c0-.9-.6-1.7-1.5-1.8,0,0,0,0,0,0-.9,0-1.7.6-1.8,1.5,0,.9.6,1.7,1.5,1.8,0,0,0,0,0,0,.9.1,1.7-.5,1.8-1.4,0,0,0-.1,0-.2Z"/><path d="m168.7,302.9l-1.5,4.1-2-.8,1.4-3.9c.3-.6.1-1.3-.5-1.6,0,0-.2,0-.3-.1-.7-.3-1.5,0-1.7.7,0,0,0,.1,0,.2l-1.4,3.7-2-.8,2.5-6.8,2,.8-.3.6c.7-.4,1.6-.4,2.2,0,1.4.5,2.2,1.9,1.4,3.8h0Z"/><path d="m171.7,308.2c.4.3.9.5,1.4.4l.8,1.8c-2.2.5-4.3-.8-4.9-2.9-.3-1.1,0-2.2.5-3.2,1.2-1.7,3.5-2,5.1-.9,0,0,.1.1.2.2,1.6,1.2,2,3.4.8,5,0,0,0,.1-.1.2-.2.3-.4.5-.6.6l-4-3.1c-.2.7.1,1.5.8,1.8h0Zm2.6-1.4c.3-.6,0-1.4-.5-1.8-.6-.5-1.4-.5-2,0l2.5,1.9h0Z"/><path d="m181.1,320.2l-.5-.9-1.3.8-1.2-2,1.4-.8-2.3-4,1.8-1.1,7.1-.4,1.3,2.2-7.1.4,1.1,1.8,1.9-1.1,1.2,2-1.9,1.1.5.9-1.8,1.1Z"/><path class="cls-29" d="m143.8,311.5h20.7c2,0,3.7,1.6,3.7,3.6,0,0,0,0,0,0v44.2c0,2-1.6,3.7-3.6,3.7,0,0,0,0,0,0h-20.7c-2,0-3.7-1.6-3.7-3.6,0,0,0,0,0,0v-44.2c0-2,1.6-3.7,3.6-3.7,0,0,0,0,0,0Z"/><path class="cls-50" d="m164.5,311.5h-20.7c-2,0-3.7,1.6-3.7,3.6,0,0,0,0,0,0v44.2l28.1-44.2c0-2-1.6-3.7-3.6-3.7,0,0,0,0,0,0Z"/><path class="cls-48" d="m166.1,356.5h-23.8c-.8,0-1.5-.7-1.5-1.5,0,0,0,0,0,0v-38.7c0-.9.8-1.7,1.7-1.7h23.6c.8,0,1.5.7,1.5,1.5,0,0,0,0,0,0v38.9c0,.8-.7,1.5-1.5,1.5,0,0,0,0,0,0Z"/><path class="cls-9" d="m157.1,313c0,.3-.3.5-.5.5h-4.8c-.3,0-.5-.3-.5-.5h0c0-.3.3-.5.5-.5h4.8c.3,0,.5.3.5.5Z"/><path class="cls-9" d="m156.1,361.4h-.4c-.3,0-.6,0-.9-.2-.4,0-.7-.2-1.1-.2-.4,0-.9-.1-1.3-.3h-.2c-.2,0-.2-.2-.2-.4,0-.2.1-.4.3-.6.1-.3.3-.7.4-1,0-.2.3-.5.4-.6.2-.3.6-.4.9-.2,0,0,.2.1.2.2,0,0,.2.3.4.4.2.4.5.6.6,1l1.1,1.6v.2c0,.2,0,.3-.2.3v-.3Z"/><path class="cls-36" d="m156.2,328.3h-.5c-.3,0-.7,0-1-.2-.4,0-.8-.1-1.2-.3-.5,0-.9-.1-1.4-.3h-.2c-.2,0-.2-.2-.2-.4s.2-.5.3-.6c.2-.4.3-.7.5-1.1.1-.2.2-.4.4-.6.2-.3.7-.4,1-.2,0,0,.1.1.2.2.1.1.3.3.4.5.2.3.5.7.6,1.1.4.5.7,1.2,1.1,1.7v.2c0,.2,0,.3-.2.3l.2-.3Z"/><path class="cls-36" d="m157.1,320.1h.2c.2,0,.2,0,.2.3s0,.2-.2.3c-.5.5-.8,1.1-1.3,1.5-.4.5-.8.9-1.2,1.3-.2.2-.5.4-.7.5-.3,0-.6,0-.9-.2-.2-.1-.3-.3-.4-.5-.4-.5-.7-1.1-1.1-1.7-.1-.3-.3-.5-.5-.7h0c0-.2,0-.3.2-.3.8,0,1.5,0,2.2-.2.7,0,1.3,0,2-.2h1.4v-.2Z"/><path d="m152.7,344.6v2h-.8v1.3h-2.2v-1.3h-3.7v-2l2.5-5.1h2.4l-2.5,5.2h1.3v-1.5h2.2v1.5h.8,0Z"/><path d="m161.9,343v.9c0,1.1-.4,2.2-1.2,3-.8.8-1.9,1.2-3.1,1.2-1.2,0-2.4-.4-3.2-1.3-.8-.8-1.3-2-1.3-3.2,0-1.2.4-2.3,1.3-3.1.8-.8,2-1.3,3.2-1.3.8,0,1.5.1,2.2.5.6.3,1.2.8,1.5,1.4l-1.8,1.1c-.2-.3-.4-.5-.7-.6-.3-.2-.7-.3-1.1-.3-1.3,0-2.3,1.1-2.2,2.3,0,.6.2,1.1.6,1.5.5.5,1.1.7,1.8.7.8,0,1.6-.4,2-1.1h-2.1v-1.9h4.1Z"/><polygon class="cls-53" points="143 356.5 143 314.5 165.3 314.5 143 356.5"/><circle class="cls-7" cx="60.2" cy="328.6" r="40.5"/><path d="m39.7,304.8c1.9,1.5,2.2,4.3.7,6.2-.1.1-.2.3-.4.4-1.7,2.1-4.7,2.4-6.8.7,0,0-.1-.1-.2-.2-2.1-1.9-2.2-5-.4-7.1,1.1-1.2,2.7-1.8,4.2-1.6l-.5,2.1c-.9,0-1.8.3-2.3,1-1,1.1-1,2.8.1,3.8,0,0,.1,0,.2.1,1.1,1,2.8,1,3.8,0,0,0,.2-.2.2-.3.8-.7,1-1.8.5-2.8l-1.7,1.9-1.4-1.3,3.1-3.5.6.5h0Z"/><path d="m48.1,301.2c1,1.6.6,3.7-1,4.7-.6.4-1.4.5-2.2.3l1.7,2.9-1.7,1-4.8-8.2,1.7-1,.4.5c.2-.8.7-1.4,1.4-1.7,1.7-.9,3.7-.2,4.6,1.4h0Zm-1.7,1c-.4-.8-1.3-1.1-2.1-.7,0,0,0,0-.1,0-.7.4-1,1.3-.7,2,0,0,0,.1.1.2.4.8,1.3,1.1,2.1.7,0,0,0,0,.1,0,.7-.4,1-1.3.7-2,0,0,0-.1-.1-.2h0Z"/><path d="m55.6,298.3l1,4-2,.5-1-3.7c0-.6-.6-1-1.2-1,0,0-.2,0-.2,0-.7.1-1.1.8-1,1.4,0,0,0,.1,0,.2l.9,3.6-2,.5-2.3-9.2,2-.5.8,3.2c.3-.6.9-1.1,1.6-1.3,1.3-.4,2.7.4,3.1,1.7,0,.1,0,.2,0,.4h.2Z"/><path d="m57.1,298.9c0-2,1.6-3.6,3.6-3.6,2,0,3.6,1.6,3.6,3.6,0,2-1.6,3.6-3.6,3.6,0,0,0,0,0,0-2,0-3.5-1.6-3.5-3.6,0,0,0,0,0,0Zm5.1,0c0-.8-.5-1.5-1.4-1.6,0,0-.1,0-.2,0-.9,0-1.6.7-1.6,1.5,0,.8.5,1.5,1.4,1.6,0,0,.1,0,.2,0,.9,0,1.6-.7,1.6-1.5Z"/><path d="m72.2,300.3l-1.2,4-2-.5,1.1-3.7c.2-.6,0-1.2-.6-1.5,0,0-.1,0-.2,0-.6-.2-1.3,0-1.5.7,0,0,0,.2,0,.3l-1,3.5-2-.5,1.9-6.5,2,.5-.2.6c.6-.4,1.4-.5,2.1-.3,1.4.4,2.2,1.6,1.6,3.4h0Z"/><path d="m75.5,305c.4.3.9.3,1.3.3l.9,1.6c-2,.7-4.1-.3-4.8-2.3-.4-1-.3-2.2.3-3.1,1-1.6,3.1-2.2,4.7-1.2,0,0,.2.1.2.2,1.6,1,2.1,3.1,1.1,4.7,0,0,0,.1-.1.2-.2.2-.3.4-.5.6l-4.1-2.5c-.1.7.3,1.4.9,1.6Zm2.3-1.4c.2-.8-.2-1.7-1-1.9-.5-.1-1,0-1.4.3l2.4,1.5h0Z"/><path d="m86.3,313.8c-1.4,1.1-3.4.8-4.4-.6,0,0-.1-.2-.2-.2-1-1.1-1.1-2.6-.4-3.9l2,.8c-.4.5-.4,1.3,0,1.8.5.7,1.2.7,1.6.4.4-.3.5-1,.2-1.4,0,0-.1-.2-.2-.2l-.3-.4.5-1.4h2.8l-2.1-2.7,1.6-1.3,3.7,4.9-1.4,1.1h-2.6c.4,1.1,0,2.4-.9,3.1h0Z"/><path class="cls-28" d="m50,311.5h20.7c2,0,3.7,1.6,3.7,3.6,0,0,0,0,0,0v44.2c0,2-1.6,3.7-3.6,3.7,0,0,0,0,0,0h-20.7c-2,0-3.7-1.6-3.7-3.6,0,0,0,0,0,0v-44.2c0-2,1.6-3.7,3.6-3.7,0,0,0,0,0,0Z"/><path class="cls-37" d="m70.7,311.5h-20.7c-2,0-3.7,1.6-3.7,3.6,0,0,0,0,0,0v44.2l28.1-44.2c0-2-1.6-3.7-3.6-3.7,0,0,0,0,0,0Z"/><rect class="cls-17" x="49.2" y="314.5" width="22.3" height="42"/><path class="cls-9" d="m63.2,313c0,.3-.3.5-.5.5h-4.8c-.3,0-.5-.3-.5-.5h0c0-.3.3-.5.5-.5h4.8c.3,0,.5.3.5.5Z"/><path class="cls-9" d="m62.2,361.4h-.4c-.3,0-.6,0-.9-.2-.4,0-.7-.2-1.1-.2-.4,0-.9-.1-1.3-.3h-.2c-.2,0-.2-.2-.2-.4,0-.2.1-.4.3-.6.1-.3.3-.7.4-1,0-.2.3-.5.4-.6.2-.3.6-.4.9-.2,0,0,.2.1.2.2,0,0,.2.3.4.4.2.4.4.6.6,1l1.1,1.6v.2c0,.2,0,.3-.2.3v-.3Z"/><path class="cls-36" d="m62.4,328.3h-.5c-.3,0-.7,0-1-.2-.4,0-.8-.1-1.2-.3-.5,0-.9-.1-1.3-.3h-.2c-.2,0-.2-.2-.2-.4s.2-.5.3-.6c.2-.4.3-.7.5-1.1.1-.2.2-.4.4-.6.2-.3.7-.4,1-.2,0,0,.1.1.2.2.1.1.3.3.4.5.2.3.5.7.6,1.1.4.5.7,1.2,1.1,1.7v.2c0,.2,0,.3-.2.3l.2-.3Z"/><path class="cls-36" d="m63.2,320.1h.2c.2,0,.2,0,.2.3s0,.2-.2.3c-.4.5-.8,1.1-1.3,1.5-.4.5-.8.9-1.2,1.3-.2.2-.5.4-.7.5-.3,0-.6,0-.9-.2-.2-.1-.3-.3-.4-.4-.4-.5-.7-1.1-1.1-1.7-.1-.3-.3-.5-.5-.7h0c0-.2,0-.3.2-.3.8,0,1.5,0,2.2-.2.7,0,1.3,0,2-.2h1.4v-.2Z"/><path d="m56.7,342.9c.5.1,1,.5,1.3.9.3.4.4.9.5,1.4,0,.8-.3,1.6-.9,2.1-.6.5-1.4.7-2.2.7-.7,0-1.3-.1-1.9-.4-.5-.3-.9-.9-1.2-1.4l1.9-1.1c0,.6.6,1,1.2.9.6,0,.5,0,.7-.2.2-.1.3-.3.3-.5,0-.2,0-.5-.3-.5s-.4-.2-.7-.2h-.5l-.8-1.3,1.4-1.6h-2.8v-2.1h5.5v1.7l-1.4,1.7h0Z"/><path d="m67.9,343v.9c0,1.1-.4,2.2-1.2,3-.8.8-1.9,1.2-3.1,1.2-1.2,0-2.4-.4-3.2-1.3-.8-.8-1.3-2-1.3-3.1,0-1.2.4-2.3,1.3-3.1.8-.8,2-1.3,3.2-1.3.8,0,1.5.1,2.2.5.6.3,1.2.8,1.5,1.4l-1.8,1.1c-.2-.3-.4-.5-.7-.6-.3-.2-.7-.3-1.1-.3-1.3,0-2.3,1.1-2.2,2.3,0,.6.2,1.1.6,1.5.5.5,1.1.7,1.8.7.8,0,1.6-.4,2-1.1h-2.1v-1.9h4.1Z"/><polygon class="cls-53" points="49.2 356.5 49.2 314.5 71.5 314.5 49.2 356.5"/><circle class="cls-7" cx="341.8" cy="328.6" r="40.5"/><path d="m321.5,306.3c2,1.7,2.3,4.7.6,6.7,0,.1-.2.2-.3.3-1.9,2.2-5.3,2.5-7.5.6,0,0,0,0,0,0-2.2-2-2.3-5.3-.4-7.4,0,0,0,0,0,0,1.2-1.3,2.9-2,4.7-1.7l-.5,2.2c-1-.1-1.9.2-2.5,1-1.1,1.1-1.1,2.9,0,4,0,0,.2.1.2.2,1.3,1.2,3,1.1,4.3-.4.9-.7,1.1-2,.5-3l-1.8,2-1.5-1.4,3.4-3.8.6.5h0Z"/><path d="m330.7,302.6c1,1.7.5,3.9-1.2,4.9,0,0,0,0,0,0-.7.4-1.6.5-2.3.3l1.7,3.2-1.9,1-4.8-8.9,1.9-1,.4.6c.2-.8.7-1.4,1.4-1.8,1.8-.9,4,0,4.9,1.7Zm-1.9,1c-.4-.8-1.3-1.2-2.2-.8,0,0-.1,0-.2,0-.8.4-1.2,1.4-.8,2.2,0,0,0,0,0,.1.4.8,1.3,1.2,2.2.8,0,0,.1,0,.2,0,.8-.4,1.2-1.4.8-2.2,0,0,0,0,0-.1h0Z"/><path d="m338.8,300l.9,4.3-2.2.4-.8-4c0-.6-.6-1.1-1.2-1.1-.1,0-.2,0-.3,0-.7,0-1.2.7-1.1,1.3,0,.1,0,.2,0,.4l.8,3.9-2.1.4-2.1-9.9,2.1-.5.7,3.5c.4-.7,1-1.2,1.8-1.3,1.5-.3,2.9.6,3.2,2.1,0,0,0,.2,0,.3h0Z"/><path d="m340.4,300.6c.1-2.1,1.9-3.7,4.1-3.6s3.7,1.9,3.6,4.1-1.9,3.7-4.1,3.6c0,0,0,0,0,0-2.1-.1-3.7-1.9-3.5-4,0,0,0,0,0,0Zm5.5.4c0-.9-.6-1.7-1.5-1.8,0,0,0,0,0,0-.9,0-1.7.6-1.8,1.5,0,.9.6,1.7,1.5,1.8,0,0,0,0,0,0,.9,0,1.7-.6,1.8-1.5Z"/><path d="m356.3,303.3l-1.5,4.1-2-.8,1.4-3.9c.3-.6.1-1.3-.5-1.6,0,0-.2,0-.3-.1-.7-.3-1.5,0-1.7.7,0,0,0,.1,0,.2l-1.4,3.7-2-.8,2.5-6.8,2,.8-.3.6c.7-.4,1.6-.4,2.2,0,1.3.5,2.2,1.9,1.4,3.8h0Z"/><path d="m359.4,308.6c.4.3.9.5,1.4.4l.8,1.8c-2.2.5-4.3-.8-4.9-2.9-.3-1.1,0-2.2.5-3.2,1.2-1.7,3.5-2,5.1-.9,0,0,.1.1.2.2,1.6,1.2,2,3.4.8,5,0,0,0,.1-.1.2-.2.3-.4.5-.6.6l-4.1-3.1c-.2.7.1,1.5.8,1.8h0Zm2.6-1.3c.3-.6,0-1.4-.5-1.8-.6-.5-1.4-.5-2,0l2.5,1.9h0Z"/><path d="m370.1,319.4c-1.8,1-4.1.3-5.1-1.5-.9-1.7-.4-3.9,1.3-5,.6-.4,1.3-.5,2.1-.5l5.6.3,1.3,2.2-3.9-.3c.9,1.6.3,3.7-1.3,4.6,0,0,0,0,0,0h0Zm-1.2-2c.7-.4.9-1.2.5-1.9,0,0,0,0,0-.1-.3-.7-1.1-.9-1.8-.6,0,0,0,0,0,0-.6.3-.9,1.1-.6,1.7,0,0,0,.2.1.2.3.7,1.1.9,1.8.6,0,0,0,0,0,0Z"/><path class="cls-56" d="m331.5,311.5h20.7c2,0,3.7,1.6,3.7,3.6,0,0,0,0,0,0v44.2c0,2-1.6,3.7-3.6,3.7,0,0,0,0,0,0h-20.7c-2,0-3.7-1.6-3.7-3.6,0,0,0,0,0,0v-44.2c0-2,1.6-3.7,3.6-3.7,0,0,0,0,0,0Z"/><path class="cls-41" d="m352.2,311.5h-20.7c-2,0-3.7,1.6-3.7,3.6,0,0,0,0,0,0v44.2l28.1-44.2c0-2-1.6-3.7-3.6-3.7,0,0,0,0,0,0Z"/><path class="cls-48" d="m353.7,356.5h-23.8c-.8,0-1.5-.7-1.5-1.5,0,0,0,0,0,0v-39.8c0-1,.8-1.8,1.7-1.8h23.6c.8,0,1.5.7,1.5,1.5,0,0,0,0,0,0v40c0,.9-.7,1.6-1.5,1.6Z"/><path class="cls-9" d="m343.7,361.4h-.4c-.3,0-.6,0-.9-.2-.4,0-.7-.2-1.1-.2-.4,0-.9-.1-1.3-.3h-.2c-.2,0-.2-.2-.2-.4,0-.2.1-.4.3-.6.1-.3.3-.7.4-1,0-.2.3-.4.4-.6.2-.3.6-.4.9-.2,0,0,.2.1.2.2,0,0,.2.3.4.5.2.4.5.6.6,1l1.1,1.6v.2c0,.2,0,.3-.2.3v-.3Z"/><path class="cls-36" d="m343.9,328.3h-.5c-.3,0-.7,0-1-.2-.4,0-.8-.1-1.2-.3-.5,0-.9-.1-1.4-.3h-.2c-.2,0-.2-.2-.2-.4s.2-.4.3-.6c.2-.4.3-.7.5-1.1.1-.2.2-.4.4-.6.2-.3.7-.4,1-.2,0,0,.1.1.2.2.1.1.3.3.4.5.2.3.5.7.6,1.1.4.5.7,1.2,1.1,1.7v.2c0,.2,0,.3-.2.3l.2-.3Z"/><path class="cls-36" d="m344.7,320.1h.2c.2,0,.2,0,.2.3s0,.2-.2.3c-.5.5-.8,1.1-1.3,1.5-.4.5-.8.9-1.2,1.3-.2.2-.5.4-.7.5-.3,0-.6,0-.9-.2-.2-.1-.3-.3-.4-.4-.4-.5-.7-1.1-1.1-1.7-.1-.3-.3-.5-.5-.7h0c0-.2,0-.3.2-.3.8,0,1.5,0,2.2-.2.7,0,1.3,0,2-.2h1.4v-.2Z"/><path d="m340.4,344.6v2h-.8v1.3h-2.2v-1.3h-3.7v-2l2.5-5.1h2.4l-2.5,5.2h1.4v-1.5h2.2v1.5h.8,0Z"/><path d="m349.6,343v.9c0,1.1-.4,2.2-1.2,3-.8.8-1.9,1.2-3.1,1.2-1.2,0-2.4-.4-3.2-1.3-.8-.8-1.3-2-1.3-3.1,0-1.2.4-2.3,1.3-3.1.8-.8,2-1.3,3.2-1.3.8,0,1.5.1,2.2.5.6.3,1.2.8,1.5,1.4l-1.8,1.1c-.2-.3-.4-.5-.7-.6-.3-.2-.7-.3-1.1-.3-1.3,0-2.3,1.1-2.2,2.3,0,.6.2,1.1.6,1.5.5.5,1.1.7,1.8.7.8,0,1.6-.4,2-1.1h-2.1v-1.9h4.1Z"/><path class="cls-53" d="m329.6,354.3c-.2.3-.7.5-1,.2-.2-.1-.3-.4-.3-.6v-38.8c0-.9.7-1.7,1.6-1.7,0,0,0,0,.1,0h23.8c.5,0,.8.4.8.8,0,.1,0,.3-.1.4l-24.8,39.7h0Z"/><polyline class="cls-41" points="345.4 315.1 337.9 315.1 336.4 311.5 347.1 311.5"/><path class="cls-9" d="m344.7,313.9c0,.3-.3.5-.5.5h-4.8c-.3,0-.5-.3-.5-.5h0c0-.3.3-.5.5-.5h4.8c.3,0,.5.3.5.5Z"/><circle class="cls-7" cx="247.9" cy="328.6" r="40.5"/><path d="m227.7,305.9c2,1.7,2.3,4.7.6,6.7,0,.1-.2.2-.3.3-1.9,2.2-5.3,2.5-7.5.6,0,0,0,0,0,0-2.2-2-2.3-5.3-.4-7.4,0,0,0,0,0,0,1.2-1.3,2.9-2,4.7-1.7l-.5,2.2c-1-.1-1.9.2-2.5,1-1.1,1.1-1.1,2.9,0,4,0,0,.2.1.2.2,1.3,1.2,3,1.1,4.3-.4.9-.7,1.1-2,.5-3l-1.8,2-1.5-1.4,3.4-3.8.6.5h0Z"/><path d="m236.8,302.2c1,1.7.5,3.9-1.2,4.9,0,0,0,0,0,0-.7.4-1.6.5-2.3.3l1.7,3.1-1.9,1-4.8-8.9,1.9-1,.4.6c.2-.8.7-1.4,1.4-1.8,1.8-.9,4,0,4.9,1.7Zm-1.9,1c-.4-.8-1.3-1.2-2.2-.8,0,0-.1,0-.2,0-.8.4-1.2,1.4-.8,2.2,0,0,0,0,0,.1.4.8,1.3,1.2,2.2.8,0,0,.1,0,.2,0,.8-.4,1.2-1.4.8-2.2,0,0,0,0,0-.1h0Z"/><path d="m244.9,299.6l.9,4.3-2.2.5-.8-4.1c0-.6-.6-1.1-1.2-1.1-.1,0-.2,0-.3,0-.7,0-1.2.7-1.1,1.3,0,.1,0,.2,0,.4l.8,3.9-2.2.5-2.1-9.9,2.2-.4.7,3.5c.4-.7,1-1.2,1.8-1.3,1.5-.3,2.9.6,3.2,2.1,0,0,0,.2,0,.3h0Z"/><path d="m246.6,300.3c.1-2.1,1.9-3.7,4.1-3.6s3.7,1.9,3.6,4.1-1.9,3.7-4.1,3.6c0,0,0,0,0,0-2.1-.1-3.7-1.9-3.5-4,0,0,0,0,0,0Zm5.5.5c0-.9-.6-1.7-1.5-1.8,0,0,0,0,0,0-.9,0-1.7.6-1.8,1.5,0,.9.6,1.7,1.5,1.8,0,0,0,0,0,0,.9,0,1.7-.6,1.8-1.5Z"/><path d="m262.5,303l-1.5,4.1-2-.8,1.4-3.9c.3-.6.1-1.3-.5-1.6,0,0-.2,0-.3-.1-.7-.3-1.5,0-1.7.7,0,0,0,.1,0,.2l-1.4,3.7-2-.8,2.5-6.8,2,.8-.3.6c.7-.4,1.6-.4,2.2,0,1.3.5,2.2,1.9,1.4,3.8h0Z"/><path d="m265.6,308.4c.4.3.9.5,1.4.4l.8,1.8c-2.2.5-4.3-.8-4.9-2.9-.3-1.1,0-2.2.5-3.2,1.2-1.7,3.5-2,5.1-.9,0,0,.1.1.2.2,1.6,1.2,2,3.4.8,5,0,0,0,.1-.1.2-.2.3-.4.5-.6.6l-4.1-3.1c-.2.7.1,1.5.8,1.8h0Zm2.6-1.4c.3-.6,0-1.4-.5-1.8-.6-.5-1.4-.5-2,0l2.5,1.9h0Z"/><path d="m276,319c-1.9,1.2-3.8.2-4.8-1.4-.9-1.3-.9-2.9,0-4.2l2,1.2c-.5.5-.5,1.3,0,1.9.2.6.9.9,1.5.7,0,0,0,0,.1,0,.5-.4.7-.9.3-1.7l-1.6-2.7,5.2-2.6,3,5-1.9,1.1-1.9-3.2-1.3.6.4.7c1,1.4.7,3.4-.7,4.4-.2.1-.3.2-.5.3h.2Z"/><path class="cls-39" d="m237.7,311.5h20.7c2,0,3.7,1.6,3.7,3.6,0,0,0,0,0,0v44.2c0,2-1.6,3.7-3.6,3.7,0,0,0,0,0,0h-20.7c-2,0-3.7-1.6-3.7-3.6,0,0,0,0,0,0v-44.2c0-2,1.6-3.7,3.6-3.7,0,0,0,0,0,0Z"/><path class="cls-1" d="m258.4,311.5h-20.7c-2,0-3.7,1.6-3.7,3.6,0,0,0,0,0,0v44.2l28.1-44.2c0-2-1.6-3.7-3.6-3.7,0,0,0,0,0,0Z"/><path class="cls-17" d="m259.9,356.5h-23.8c-.8,0-1.5-.7-1.5-1.5,0,0,0,0,0,0v-39.8c0-1,.8-1.8,1.7-1.8h23.6c.8,0,1.5.7,1.5,1.5,0,0,0,0,0,0v40c0,.9-.7,1.6-1.5,1.6Z"/><path class="cls-9" d="m249.9,361.4h-.5c-.3,0-.6,0-.9-.2-.4,0-.7-.2-1.1-.2-.4,0-.9-.1-1.3-.3h-.2c-.2,0-.2-.2-.2-.4,0-.2.1-.4.3-.6.1-.3.3-.7.5-1,0-.2.3-.4.4-.6.2-.3.6-.4.9-.2,0,0,.2.1.2.2,0,0,.2.3.4.5.2.4.4.6.6,1l1.1,1.6v.2c0,.2,0,.3-.2.3v-.3Z"/><path class="cls-36" d="m250.1,328.3h-.5c-.3,0-.7,0-1-.2-.4,0-.8-.1-1.2-.3-.5,0-.9-.1-1.4-.3h-.2c-.2,0-.2-.2-.2-.4s.2-.4.3-.6c.2-.4.3-.7.5-1.1.1-.2.2-.4.4-.6.2-.3.7-.4,1-.2,0,0,.1.1.2.2.1.1.3.3.4.5.2.3.5.7.6,1.1.4.5.7,1.2,1.1,1.7v.2c0,.2,0,.3-.2.3l.2-.3Z"/><path class="cls-36" d="m250.9,320.1h.2c.2,0,.2,0,.2.3s0,.2-.2.3c-.4.5-.8,1.1-1.3,1.5-.4.5-.8.9-1.2,1.3-.2.2-.5.4-.7.5-.3,0-.6,0-.9-.2-.2-.1-.3-.3-.4-.4-.4-.5-.7-1.1-1.1-1.7-.1-.3-.3-.5-.5-.7h0c0-.2,0-.3.2-.3.8,0,1.5,0,2.2-.2.7,0,1.3,0,2-.2h1.4v-.2Z"/><path d="m244.4,342.9c.5.1,1,.5,1.3.9.3.4.5.9.4,1.4,0,.8-.3,1.6-.9,2.1-.7.5-1.4.7-2.2.7-.7,0-1.3-.1-1.9-.5-.5-.3-.9-.9-1.2-1.4l1.9-1.1c0,.6.6,1,1.2.9.6,0,.5,0,.7-.2.2-.1.3-.3.3-.5,0-.2,0-.4-.3-.5-.2-.1-.5-.2-.7-.2h-.5l-.8-1.3,1.3-1.6h-2.8v-2.1h5.5v1.7l-1.4,1.7h0Z"/><path d="m255.6,343v.9c0,1.1-.4,2.2-1.2,3-.8.8-1.9,1.2-3.1,1.2-1.2,0-2.4-.4-3.2-1.3-.8-.8-1.3-2-1.3-3.1,0-1.2.4-2.3,1.3-3.1.8-.8,2-1.3,3.1-1.3.8,0,1.5.1,2.2.5.6.3,1.2.8,1.5,1.4l-1.8,1.1c-.2-.3-.4-.5-.7-.6-.3-.2-.7-.3-1.1-.3-1.3,0-2.3,1.1-2.2,2.3,0,.6.2,1.1.6,1.5.5.5,1.1.7,1.8.7.8,0,1.6-.4,2-1.1h-2.1v-1.9h4.1Z"/><path class="cls-53" d="m235.8,354.3c-.2.3-.7.5-1,.2-.2-.1-.3-.4-.3-.6v-38.8c0-.9.7-1.7,1.6-1.7,0,0,0,0,.1,0h23.8c.5,0,.8.4.8.8,0,.1,0,.3-.1.4l-24.8,39.7h0Z"/><polyline class="cls-1" points="251.5 315.1 244 315.1 242.5 311.5 253.2 311.5"/><path class="cls-9" d="m250.9,313.9c0,.3-.3.5-.5.5h-4.8c-.3,0-.5-.3-.5-.5h0c0-.3.3-.5.5-.5h4.8c.3,0,.5.3.5.5Z"/><line class="cls-9" x1="181.1" y1="142.9" x2="158.9" y2="118.7"/><line class="cls-8" x1="173.8" y1="135" x2="158.9" y2="118.7"/><polygon class="cls-54" points="177.8 128.3 181.1 142.9 166.8 138.4 177.8 128.3"/><line class="cls-9" x1="243.1" y1="118.7" x2="220.9" y2="142.9"/><line class="cls-8" x1="243.1" y1="118.7" x2="228.2" y2="135"/><polygon class="cls-54" points="224.2 128.3 220.9 142.9 235.2 138.4 224.2 128.3"/><circle class="cls-4" cx="275.2" cy="75.9" r="45"/><path class="cls-12" d="m289.2,111.3h-26c0-.2-.2-.2-.4-.3-1.3-.5-2.1-1.7-2.1-3.1v-44.6c0-1,.5-2,1.3-2.6.4-.3.9-.3,1.2-.8h26c2.2.8,2.9,1.8,2.9,4.2v43.8c0,1.4-.9,2.7-2.2,3.2-.3,0-.5,0-.7.3h0Zm-14-2c7.2,0,13-5.8,13-13s-5.8-13-13-13-13,5.8-13,13v.2c0,7.1,5.7,12.8,12.8,12.8,0,0,.1,0,.2,0Zm0-47.2c-5.1,0-9.2,4.2-9.2,9.3,0,5.1,4.2,9.2,9.3,9.2,5.1,0,9.2-4.2,9.2-9.3,0-5.1-4.1-9.2-9.2-9.2h-.1Zm7.3,19.3c0,1.9,1.5,3.5,3.4,3.6h0c1.9,0,3.5-1.6,3.5-3.6,0,0,0,0,0-.1,0-1.9-1.5-3.4-3.4-3.5-2,0-3.5,1.6-3.6,3.6h.1Zm-18.5,25.8c0-.9-.7-1.5-1.6-1.5-.8,0-1.4.7-1.5,1.5,0,.9.6,1.6,1.5,1.7s1.6-.6,1.7-1.5h0v-.2h0Zm-1.6-41.7c.9,0,1.6-.6,1.6-1.5h0c0-.9-.6-1.6-1.5-1.7s-1.6.6-1.7,1.5h0v.2c0,.9.6,1.6,1.5,1.6h0Zm25.4,0c.8,0,1.5-.7,1.5-1.5h0c0-.9-.7-1.5-1.6-1.5-.9,0-1.5.7-1.5,1.6h0c0,.8.7,1.5,1.5,1.5h.1Zm0,40.1c-.8,0-1.5.6-1.6,1.4h0c0,.9.6,1.6,1.5,1.6.9,0,1.6-.6,1.6-1.5,0-.9-.6-1.6-1.5-1.6h0Z"/><path class="cls-21" d="m261.2,111.3c-.9-.2-1.7-.7-2.3-1.5-.4-.6-.7-1.3-.7-2v-44c-.1-1.4.6-2.8,1.8-3.5.4-.2.7-.3,1.1-.5h1.9c-.3.4-.8.5-1.2.8-.8.6-1.3,1.6-1.3,2.6v44.6c0,1.4.8,2.6,2.1,3.1.1,0,.4,0,.4.3h-1.9,0Z"/><path class="cls-31" d="m300.9,72.1c-.3.3-.8.5-1.2.4h-3.8c-.6,0-.9-.2-.9-.7s.3-.8.9-.8h4.1c.4,0,.7.2.9.5v.6Z"/><path class="cls-42" d="m249.5,96.5c.3-.3.7-.5,1.1-.4h3.9c.6,0,.9.2.9.7s-.3.8-.9.8h-4.1c-.4,0-.7-.2-.9-.5v-.6Z"/><path class="cls-42" d="m300.9,97.1c-.3.3-.7.5-1.1.5h-4.3c-.4,0-.6-.4-.5-.8,0,0,0,0,0,0,0-.3.3-.6.6-.6h4.5c.3,0,.4.3.7.4v.6h0Z"/><path class="cls-31" d="m249.5,71.5c.2-.4.7-.6,1.1-.5h4.2c.3,0,.6.4.5.7,0,0,0,0,0,0,0,.3-.2.6-.6.6,0,0,0,0,0,0h-4.5c-.3,0-.4-.3-.7-.4v-.5h0Z"/><path class="cls-57" d="m275.2,109.3c-7.1,0-12.9-5.9-12.8-13,0-7.1,5.9-12.9,13-12.8,7.1,0,12.9,5.9,12.8,13,0,7-5.8,12.7-12.8,12.8h-.2Zm11.1-10.1h0c.4-1.5.5-3.1.2-4.7-1-6.2-6.9-10.5-13.1-9.5h-.4c-3.3.6-6.2,2.6-7.8,5.6-.6.9-.9,1.9-1.1,2.9h0c-.4,1.4-.4,2.9-.2,4.3.5,3.7,2.8,7,6.1,8.7,1.4.7,2.9,1.1,4.4,1.2,1.2.1,2.4,0,3.6-.4.2,0,.5,0,.7-.1,2.8-.8,5.1-2.7,6.5-5.2.6-.9,1-1.9,1.2-3v.2Z"/><path class="cls-55" d="m275.2,62.1c5.1,0,9.3,4.2,9.3,9.3s-4.2,9.3-9.3,9.3-9.3-4.2-9.3-9.3c0-5.1,4.2-9.3,9.3-9.3Zm-1.2,1.6c-1.9.3-3.7,1.3-4.9,2.9-.9,1-1.4,2.3-1.5,3.6-.2.7-.2,1.3,0,2,.3,2.9,2.2,5.3,4.9,6.3,1.3.6,2.7.7,4,.4h.6c3-.8,5.3-3.3,5.8-6.4.2-.8.2-1.7,0-2.5-.7-4.2-4.6-7-8.8-6.4h-.1Z"/><path class="cls-55" d="m282.5,81.4c-.2-2.1,1.9-3.6,3.6-3.6,1.9,0,3.5,1.7,3.4,3.6,0,0,0,.1,0,.2,0,1.9-1.6,3.4-3.5,3.4-2,0-3.5-1.6-3.5-3.6h0Zm3.5,2.1c1.2,0,2.1-.9,2.1-2.1h0c0-1.1-1-2-2.1-2.1-1.1,0-2,1-2,2.1,0,1.1.8,2,1.8,2,0,0,0,0,0,0h.1Z"/><path class="cls-44" d="m264.1,107.2c0,.9-.6,1.6-1.5,1.6s-1.6-.6-1.6-1.5v-.2c0-.9.8-1.5,1.7-1.5,0,0,0,0,0,0,.8,0,1.4.7,1.5,1.5h0Z"/><path class="cls-44" d="m262.5,65.5c-.8,0-1.5-.6-1.5-1.4,0,0,0,0,0,0h0c0-.9.6-1.6,1.5-1.6.9,0,1.6.6,1.6,1.5v.2c0,.8-.7,1.5-1.5,1.5h-.1Z"/><path class="cls-44" d="m287.9,65.5c-.8,0-1.5-.7-1.6-1.5h0c0-.9.7-1.6,1.6-1.6s1.6.7,1.6,1.6h0c0,.8-.7,1.5-1.5,1.6h-.1Z"/><path class="cls-44" d="m287.9,105.7c.8,0,1.5.7,1.5,1.5h0c0,.9-.7,1.5-1.6,1.5s-1.5-.7-1.5-1.6h0c0-.8.7-1.5,1.5-1.5h.1Z"/><path class="cls-31" d="m298.9,64.8c0,.2-.1.4-.3.6l-2.7,2.7c-.3.3-.8.4-1.1,0h0c-.3-.3-.3-.7.1-1.1l2.7-2.7c.2-.3.7-.4,1-.2.3.1.4.4.4.7h-.1Z"/><path class="cls-16" d="m295.3,100.4c.2,0,.5,0,.6.3l2.7,2.7c.3.2.4.7.1,1,0,0,0,0,0,0h-.1c-.3.4-.8.4-1.1.1h0c-.9-.9-1.8-1.9-2.8-2.8-.2-.2-.3-.5-.2-.8,0-.3.4-.5.7-.4h0s0,0,0,0Z"/><path class="cls-16" d="m298.9,79c0,.3-.2.5-.5.6-.3,0-.7,0-.9-.2l-2.4-2.4-.5-.5c-.3-.2-.3-.7,0-.9,0,0,0,0,0,0h0c.2-.2.5-.3.8-.1,0,0,0,0,.1.1h0l2.9,2.9c.1.1.2.3.2.5h.3Z"/><path class="cls-16" d="m298.9,89.7c0,.2-.1.5-.3.6l-2.7,2.7c-.2.3-.7.4-1,.2h0c-.3-.2-.3-.7,0-.9,0,0,0,0,0,0h.1c0-.1,2.8-2.9,2.8-2.9.2-.2.5-.3.8-.2.2,0,.4.3.4.6h0Z"/><path class="cls-31" d="m255.9,67.6c0,.3-.2.5-.4.7-.3,0-.7,0-.9-.2l-2.3-2.3c-.2-.2-.4-.4-.5-.6-.3-.2-.3-.7,0-.9,0,0,0,0,0,0h0c.2-.3.7-.3.9,0,0,0,0,0,0,0h0c.5.4.9.8,1.3,1.3.4.5,1,1,1.5,1.5.2.2.3.4.3.6Z"/><path class="cls-16" d="m255.9,101.1c0,.2-.1.4-.3.6l-2.7,2.7c-.3.3-.7.4-1.1.2h0c-.4-.4-.3-.8.1-1.2l2.7-2.7c.2-.2.6-.3.9-.2.3.1.5.4.5.7h0Z"/><path class="cls-16" d="m255.9,76.1c0,.2-.1.4-.3.6l-2.7,2.7c-.4.4-.8.4-1.1.1-.3-.3-.3-.8,0-1.1h.1c.9-.9,1.8-1.9,2.8-2.8.2-.2.5-.3.8-.2.3.1.5.4.5.7h-.1Z"/><path class="cls-16" d="m255.9,92.6c0,.3-.2.5-.4.7-.2.2-.6.2-.8,0l-3-3c-.2-.3-.2-.6,0-.9h0c.2-.2.5-.3.8-.1,0,0,0,0,.1.1h0l2.9,2.9c.1.1.2.3.2.5l.2-.2Z"/><path class="cls-46" d="m264.2,93.5c.2-1,.5-2,1.1-2.9,3.2-5.5,10.2-7.4,15.7-4.3.4.2.8.5,1.2.8,2.4,1.7,4,4.4,4.4,7.3.3,1.5.2,3.1-.2,4.6h0c-.3.1-.7.2-1,.2-1.8,0-3.6-.5-5.2-1.5-.4-.3-.8-.5-1.3-.7v-1.1c-.1-1.5-1.2-2.7-2.6-3.1-.7-.3-1.6-.3-2.3,0-1.2.4-2.1,1.5-2.4,2.7-.1,0-.2,0-.4-.2-1.8-1.4-4-2.1-6.3-2.1-.2,0-.5.1-.7,0v.3Z"/><path class="cls-24" d="m264.2,93.5h.7c2.3,0,4.5.7,6.3,2.1.1,0,.2.1.4.2h0c-.3,1.9.8,3.6,2.5,4.1.6.1,1.2.2,1.8.1.6.9,1.1,1.9,1.6,2.9.7,1.4.8,3,.4,4.5-1.2.4-2.4.5-3.6.4-1.5-.1-3-.5-4.4-1.2-3.4-1.7-5.7-5-6.1-8.7-.2-1.4-.1-2.8.2-4.2h0l.2-.2Z"/><path class="cls-27" d="m277.9,107.4c.4-1.5.2-3.1-.4-4.5-.5-1-1-2-1.6-2.9l.4-.2h.2c1.1-.5,2-1.5,2.3-2.7.5.2.9.4,1.3.7,1.6,1,3.4,1.5,5.2,1.5h1c-.2,1.1-.6,2.1-1.2,3-1.4,2.5-3.8,4.3-6.5,5.2-.2,0-.5.1-.7.1v-.2Z"/><path class="cls-27" d="m282.8,72.6c-.1,1.2-.6,2.4-1.4,3.4-1.1,1.5-2.6,2.6-4.4,3h-.6c0-.9-.1-1.7-.5-2.5-1.1-2.3-2.9-4.2-5.1-5.4-.9-.7-2.1-1-3.3-.8.1-1.3.7-2.6,1.5-3.6,1.2-1.6,3-2.6,4.9-2.9,0,.9.2,1.9.6,2.7.9,1.8,2.2,3.3,3.7,4.5,1.2,1.2,2.8,1.8,4.5,1.7h.1Zm-7-3.1c-.8-.3-1.8,0-2.3.7-.5.8-.5,1.7,0,2.5.5.7,1.5,1,2.3.7.9-.2,1.5-1.1,1.4-2,0-.9-.6-1.6-1.4-1.9Z"/><path class="cls-24" d="m282.8,72.6c-1.7,0-3.3-.5-4.5-1.7-1.6-1.2-2.9-2.7-3.7-4.5-.4-.8-.6-1.8-.6-2.7,4.2-.7,8.1,2.2,8.8,6.4,0,0,0,0,0,0,.2.8.2,1.7,0,2.5Z"/><path class="cls-24" d="m267.6,70.2c1.2,0,2.3.2,3.3.8,2.2,1.2,4,3.1,5.1,5.4.4.8.6,1.6.5,2.5-1.3.3-2.8.2-4-.4-2.7-1-4.6-3.4-4.9-6.3,0-.7,0-1.3,0-2Z"/><path class="cls-24" d="m286.1,83.5c-1.1,0-2-.8-2-1.8,0,0,0,0,0,0h0c0-1.1.9-2,2-2.1,1.2,0,2.1.9,2.1,2.1,0,1.2-.9,2.1-2.1,2.1h0v-.2Z"/><path class="cls-13" d="m278.8,97c-.3,1.2-1.1,2.2-2.3,2.7h-.2c-.6-.4-1.2-.8-1.6-1.4-1.1-1.7-.7-4,1-5.1h0c.1,0,.4-.1.4-.3,1.4.4,2.4,1.6,2.6,3.1v1.1h.1Z"/><path class="cls-43" d="m276.2,92.9c0,.2-.2.3-.4.3-1.7,1.1-2.2,3.3-1.2,5.1h0c.4.6,1,1,1.6,1.4l-.4.2c-.6,0-1.2,0-1.8-.1-1.7-.6-2.8-2.3-2.6-4.1h0c.2-1.4,1.1-2.5,2.4-2.9.7-.3,1.6-.3,2.3,0h0Z"/><path class="cls-13" d="m275.8,69.4c.9.2,1.5,1,1.4,1.9,0,.9-.6,1.7-1.4,2,0-.2-.3-.3-.5-.5-.8-.7-.9-2-.2-2.8.2-.2.5-.3.7-.6Z"/><path class="cls-43" d="m275.8,69.4c-.1.3-.5.4-.7.6-.7.8-.6,2.1.2,2.8.2.2.4.2.5.5-.8.3-1.8,0-2.3-.7-.5-.8-.5-1.7,0-2.5.5-.7,1.5-1,2.3-.7Z"/><path d="m249.4,58.1l.7-2.6c1,.5,2.2.2,2.9-.6.9-.9.8-1.5.4-1.8-.5-.5-1.2-.2-2.8.7-1.6.9-3.4,1.6-5,0-1.4-1.5-1.4-3.9.2-5.4,0,0,0,0,0,0,1.3-1.4,3.2-1.8,5-1.2l-.6,2.6c-.8-.4-1.8-.2-2.4.5-.6.6-.6,1.2-.2,1.5s.9.4,2.6-.5,3.5-1.9,5.3-.2c1.6,1.6,1.3,3.9-.5,5.7-1.3,1.6-3.5,2.2-5.4,1.4h-.2Z"/><path d="m264.3,45.1c1.2,2,.6,4.7-1.5,5.9,0,0,0,0,0,0-.8.5-1.8.6-2.7.3l2,3.7-2.3,1.2-5.6-10.5,2.3-1.2.4.7c.2-1,.9-1.7,1.8-2.1,2.1-1,4.7,0,5.7,2.1,0,0,0,0,0,0h0Zm-2.3,1.2c-.5-1-1.7-1.4-2.7-1,0,0,0,0-.1,0-1,.5-1.4,1.7-.9,2.7,0,0,0,0,0,.1.5,1,1.7,1.4,2.7,1,0,0,0,0,.1,0,1-.5,1.4-1.7.9-2.7,0,0,0,0,0-.1Z"/><path d="m270.8,46c.6,0,1.1-.4,1.5-.9l2.2.8c-.6,1.3-1.9,2.2-3.3,2.4-2.9.5-5-1.1-5.4-3.6-.5-2.3,1-4.6,3.3-5.1.1,0,.2,0,.3,0,2.3-.4,4.5,1.1,5,3.4,0,0,0,.1,0,.2v1l-5.9,1.1c.5.7,1.4,1.1,2.2.8h0Zm1-3.3c-.5-.9-1.6-1.3-2.6-.8-.6.3-1,.9-1,1.5l3.6-.7Z"/><path d="m285.5,39.9l-1.1,8.4-2.5-.3v-.8c-.6.7-1.6.9-2.5.7-2.3-.4-3.9-2.7-3.5-5,.2-2.3,2.2-4.1,4.5-3.9,0,0,0,0,0,0,1,0,1.8.5,2.4,1.3v-.8c.1,0,2.6.3,2.6.3h0Zm-3.1,3.9c.2-1-.4-2-1.4-2.3,0,0-.2,0-.3,0-1.1-.2-2.1.6-2.3,1.7,0,0,0,0,0,.1-.2,1,.4,2,1.4,2.3,0,0,.2,0,.3,0,1.1.2,2.1-.6,2.3-1.7,0,0,0,0,0-.1h0Z"/><path d="m290.2,50.9l-.9-4.5-1.5,3.4-2.3-1.1,4.9-10.8,2.3,1.1-2.9,6.5,3.9-2.3,2.7,1.2-4.6,2.6,1.1,5.2-2.6-1.2h0Z"/><path d="m297.2,53.2c.5.4,1.1.6,1.7.5l.8,2.2c-1.4.4-2.9,0-4-1-2-1.5-2.4-4.3-1-6.3,0,0,.1-.2.2-.2,1.4-2,4.1-2.5,6.1-1.2,2,1.4,2.5,4.1,1.2,6.1-.2.2-.3.5-.5.7-.2.3-.4.5-.7.7l-4.6-3.9c-.3.8,0,1.8.8,2.2v.2Zm3.2-1.4c.3-.8.1-1.7-.5-2.2-.6-.6-1.6-.7-2.3-.2l2.8,2.3h0Z"/><path d="m309.4,57.2l-2.3,1.7c-.4-1-1.5-1.6-2.6-1.2-.2,0-.4.2-.5.3l-3.1,2.3-1.5-2.1,6.9-5,1.5,2.1-1.2.9c1.1-.3,2.3.1,2.9,1.1h0Z"/><circle class="cls-5" cx="126.8" cy="78.9" r="45"/><path d="m97.5,61.2c-2.6-2.5-2.7-6.5-.2-9.1,0,0,.1-.1.2-.2,1.5-1.6,3.8-2.3,5.9-1.8l-.7,2.8c-1.2-.3-2.4,0-3.2,1-1.4,1.3-1.6,3.5-.3,4.9,0,0,.2.2.3.3,1.2,1.4,3.4,1.6,4.8.4.1-.1.3-.2.4-.4.9-.8,1.3-2,.9-3.2l2.8-.8c.5,2.1-.1,4.4-1.7,5.9-2.4,2.6-6.4,2.7-9,.3-.1-.1-.2-.2-.3-.3v.2Z"/><path d="m115.5,45l3.8,8.2-2.5,1.1-.4-.8c-.3,1-1.1,1.7-2,2.1-2.3,1-4.9,0-5.8-2.4,0,0,0,0,0-.1-1.1-2.2-.3-4.9,1.9-6.1.9-.5,2-.5,2.9,0l-.4-.8,2.5-1.1h0Zm-.6,5.2c-.4-1.1-1.7-1.6-2.8-1.2,0,0,0,0-.1,0-1,.4-1.5,1.6-1.1,2.7,0,0,0,.1.1.2.4,1.1,1.7,1.6,2.8,1.2,0,0,0,0,.1,0,1-.4,1.5-1.6,1.1-2.7,0,0,0-.1-.1-.2h0Z"/><path d="m133.4,46.6l.2,5.5h-2.7l-.2-5.2c0-.9-.5-1.5-1.3-1.4s-1.4.7-1.3,1.7l.2,5.1h-2.7l-.2-5.2c0-.9-.5-1.5-1.3-1.4s-1.4.7-1.3,1.7l.2,5.1h-2.7l-.3-8.9h2.7v.7c.6-.7,1.5-1.2,2.4-1.2.9,0,1.8.4,2.4,1.1.6-.8,1.6-1.3,2.6-1.3,1.8-.1,3.4,1.3,3.5,3.1,0,.2,0,.3,0,.5h-.2Z"/><path d="m139.3,52.3c.6.3,1.3.3,1.9,0l1.6,1.9c-1.3.8-2.9,1-4.3.4-2.9-1.1-4-3.7-3-6.2.8-2.4,3.4-3.7,5.8-2.9.1,0,.2,0,.3.1,2.3.8,3.5,3.3,2.7,5.6,0,.1,0,.2-.1.4-.1.4-.3.7-.5,1l-6-2.2c0,.9.7,1.7,1.6,1.9Zm2.7-2.5c0-.9-.5-1.7-1.3-2-.8-.4-1.8-.1-2.3.7l3.6,1.3Z"/><path d="m152.9,52l-1.7,2.5c-.8-.9-2.1-1-3.1-.3-.1.1-.2.2-.3.4l-2.3,3.3-2.2-1.5,5.1-7.4,2.2,1.5-.9,1.3c1-.7,2.2-.7,3.2,0v.2Z"/><path d="m160.8,60.8l-6.9,5.8-1.7-2.1.6-.5c-1,0-2-.5-2.6-1.3-1.5-2-1.1-4.8.8-6.4,1.8-1.7,4.7-1.6,6.4.2.7.8,1,1.8.9,2.8l.6-.5,1.7,2.1h.2Zm-5.2.9c.9-.7,1.1-2.1.4-3,0,0,0,0,0-.1-.7-.9-2.1-1-3-.3,0,0,0,0-.1.1-.9.7-1.1,2.1-.4,3,0,0,0,0,0,.1.7.9,2.1,1,3,.3,0,0,0,0,.1-.1Z"/><path class="cls-14" d="m155.8,89v.2c-.3,0-.2.3-.2.4,0,.5,0,1-.1,1.5-.5,3.4-1.5,6.7-3.2,9.7-1.4,2.6-3.3,5-5.4,7.1-2.3,2.2-4.9,4-7.8,5.3-2.4,1.1-5,1.9-7.6,2.3l-2.4.3h-3.8c-.7-.1-1.3-.2-2-.2-6.9-.9-13.2-4.3-17.8-9.6-3.7-4.3-6.1-9.6-6.7-15.3,0-.5,0-1.1-.2-1.6v-3.6c0-.1.1-.3,0-.5,0-.8.1-1.6.3-2.4.5-3.2,1.6-6.2,3.1-9,1.4-2.6,3.2-5,5.4-7,6.1-5.9,14.6-8.7,23-7.7,3.2.4,6.3,1.3,9.2,2.7,6.3,3.1,11.2,8.4,13.9,14.9,1,2.4,1.6,4.9,1.9,7.4.2,1.5.2,3,.2,4.5,0,.2,0,.4.1.6h0Zm-23.8,22.9c1.1-.2,2.2-.4,3.3-.8,11.9-4.1,19-16.4,16.5-28.8-1.9-8.9-7.3-15.1-15.7-18.5-1.3-.6-2.6-.9-4-1.1-.2,0-.5-.1-.7-.2-2.1-.3-4.2-.4-6.3-.2-3.9.2-7.7,1.5-11,3.6-8.9,5.8-12.9,14-11.8,24.6.7,6.9,4.4,13.2,10.1,17.1,4.7,3.4,10.4,5.1,16.2,4.8,1.2,0,2.3-.1,3.4-.5h0Z"/><path class="cls-10" d="m132,111.9c-1.1.3-2.2.5-3.4.5-5.8.4-11.6-1.3-16.2-4.8-5.8-4.3-9.4-10-10.1-17.1-1.2-10.6,2.9-18.8,11.8-24.6,3.3-2.1,7.1-3.4,11-3.6,2.1-.2,4.2-.1,6.3.2.3,0,.5,0,.7.2.2.1.3.2.5.3,4.3,1.3,8,3.9,10.7,7.5,1.3,1.7,2.4,3.5,3.2,5.4,1.4,3.2,2.2,6.7,2.4,10.2,0,1.8,0,3.7-.3,5.5-.4,2.8-1.2,5.6-2.5,8.1-1.4,2.8-3.2,5.3-5.5,7.4-1.9,1.7-4,3.1-6.4,4-.7.2-1.4.5-2.1.8h0Zm-23.1-24.6c0,10,8.2,18.1,18.2,18.1,10,0,18.1-8.2,18.1-18.2,0-10-8.2-18.1-18.2-18.1-10,0-18.1,8.1-18.1,18.1h0Z"/><path class="cls-20" d="m132,111.9c.7-.3,1.4-.6,2.1-.8,2.3-1,4.5-2.3,6.4-4,2.3-2.1,4.1-4.6,5.5-7.4,1.3-2.5,2.1-5.3,2.5-8.1.3-1.8.4-3.7.3-5.5,0-3.5-.9-7-2.4-10.2-.8-1.9-1.9-3.7-3.2-5.4-2.7-3.6-6.4-6.2-10.7-7.5-.2,0-.3,0-.5-.3,1.4.2,2.7.5,4,1.1,8.4,3.4,13.8,9.6,15.7,18.5,2.6,12.4-4.5,24.7-16.5,28.8-1.1.4-2.2.7-3.3.8h0Z"/><path class="cls-35" d="m108.9,87.4c0-10.1,8.1-18.2,18.2-18.2s18.2,8.1,18.2,18.2c0,10.1-8.1,18.2-18.2,18.2h0c-10,0-18.2-8.1-18.2-18.1h0Zm18.2-11.3h-8.2c-.9,0-1.7.3-2.3.9-.2.2-.3.4-.5.6-2.8,3-4.2,7.2-3.7,11.3.4,3.6,2,6.9,4.7,9.3.3.3.7.5,1.1.5h17c.9,0,1.8-.3,2.5-1,.2-.2.3-.4.5-.5,3-3.3,4.2-7.8,3.5-12.2-.5-3-1.9-5.7-4-7.9-.6-.6-1.4-1-2.2-1h-8.4Z"/><path class="cls-19" d="m127.1,76.1h8.4c.8,0,1.6.4,2.2,1,2.1,2.2,3.5,4.9,4,7.9.8,4.4-.5,8.9-3.5,12.2-.1.2-.3.4-.5.5-.6.7-1.5,1.1-2.5,1h-17c-.4,0-.8-.2-1.1-.5-2.7-2.4-4.3-5.7-4.7-9.3-.5-4.1.9-8.3,3.7-11.3.2-.2.4-.4.5-.6.6-.7,1.4-1,2.3-.9h8.2Zm7.9,11.3c0-4.3-3.5-7.9-7.8-7.9,0,0,0,0-.1,0-4.4,0-7.9,3.4-8,7.8,0,4.4,3.4,7.9,7.8,8s7.9-3.4,8-7.8c0,0,0,0,0,0h.1,0Z"/><path class="cls-32" d="m135,87.4c0,4.3-3.5,7.8-7.8,7.9-4.2.1-7.8-3.2-7.9-7.4,0-.2,0-.3,0-.5,0-4.4,3.5-7.9,7.9-7.9s7.9,3.5,7.9,7.9h-.1Zm-7.9-4.4c-2.4,0-4.4,2-4.4,4.4h0c0,2.4,2,4.4,4.4,4.4,2.4,0,4.4-1.9,4.4-4.3,0,0,0,0,0,0,0-2.4-2-4.4-4.4-4.5h0Z"/><path class="cls-51" d="m127.1,91.8c-2.4,0-4.3-1.8-4.4-4.2,0,0,0-.1,0-.2,0-2.4,2-4.4,4.4-4.4h0c.4.2.5.7.6,1.1.5,2.2.5,4.5,0,6.7,0,.4-.2.9-.6,1.1h0Z"/><path class="cls-23" d="m127.1,91.8c.4-.2.5-.7.6-1.1.5-2.2.5-4.5,0-6.7,0-.4-.2-.9-.6-1.1,2.5,0,4.4,2,4.4,4.5,0,2.5-2,4.4-4.4,4.4h0Z"/><circle class="cls-7" cx="333.7" cy="192.4" r="40.5"/><path d="m313.2,169.1c1.9,1.5,2.2,4.3.7,6.2-.1.1-.2.3-.4.4-1.7,2.1-4.7,2.4-6.8.7,0,0-.1-.1-.2-.2-2.1-1.9-2.2-5-.4-7.1,1.1-1.2,2.7-1.8,4.2-1.6l-.5,2.1c-.9,0-1.8.3-2.3,1-1,1.1-1,2.8.1,3.8,0,0,.1,0,.2.1,1.1,1,2.8,1,3.8,0,0,0,.2-.2.2-.3.8-.7,1-1.8.5-2.8l-1.7,1.9-1.4-1.3,3.2-3.5.6.5h0Z"/><path d="m321.6,165.5c1,1.6.6,3.7-1,4.7-.6.4-1.4.5-2.2.3l1.7,2.9-1.7,1-4.8-8.2,1.7-1,.4.5c.2-.8.7-1.4,1.4-1.7,1.7-.9,3.7-.2,4.6,1.4h0Zm-1.7,1c-.4-.8-1.3-1.1-2.1-.7,0,0,0,0-.1,0-.7.4-1,1.3-.7,2,0,0,0,.1.1.2.4.8,1.3,1.1,2.1.7,0,0,0,0,.1,0,.7-.4,1-1.3.7-2,0,0,0-.1-.1-.2Z"/><path d="m329.1,162.6l1,4.1-2,.5-1-3.7c0-.6-.6-1-1.2-1,0,0-.2,0-.2,0-.7.1-1.1.8-1,1.4,0,0,0,.1,0,.2l.9,3.6-2,.5-2.3-9.2,2-.5.8,3.2c.3-.6.9-1.1,1.6-1.3,1.3-.4,2.7.4,3.1,1.7,0,.1,0,.2,0,.4h.2Z"/><path d="m330.6,163.1c0-2,1.6-3.6,3.6-3.6,2,0,3.6,1.6,3.6,3.6,0,2-1.6,3.6-3.6,3.6,0,0,0,0,0,0-2,0-3.5-1.6-3.5-3.6,0,0,0,0,0,0Zm5.1,0c0-.8-.5-1.5-1.4-1.6,0,0-.1,0-.2,0-.9,0-1.6.7-1.6,1.5,0,.8.5,1.5,1.4,1.6,0,0,.1,0,.2,0,.9,0,1.6-.7,1.6-1.5Z"/><path d="m345.7,164.6l-1.2,4-2-.5,1.1-3.7c.2-.6,0-1.2-.6-1.5,0,0-.1,0-.2,0-.6-.2-1.3,0-1.5.7,0,0,0,.2,0,.3l-1,3.5-2-.5,1.9-6.5,2,.5-.2.6c.6-.4,1.4-.5,2.1-.3,1.4.4,2.2,1.6,1.6,3.4h0Z"/><path d="m349,169.3c.4.3.9.3,1.3.3l.9,1.6c-2,.7-4.1-.3-4.8-2.3-.4-1-.3-2.2.3-3.1,1-1.6,3.1-2.2,4.7-1.2,0,0,.2.1.2.2,1.6,1,2.1,3.1,1.1,4.7,0,0,0,.1-.1.2-.2.2-.3.4-.5.6l-4.1-2.5c-.1.7.3,1.4.9,1.6Zm2.3-1.4c.2-.8-.2-1.7-1-1.9-.5-.1-1,0-1.4.3l2.4,1.5h0Z"/><path d="m354.6,173.6l4.5.5c.6.1,1.3,0,1.9-.3.4-.3.5-1,.2-1.4,0,0,0,0,0,0-.4-.5-1-.7-1.6-.5l-.3-2.1c1.3-.3,2.7.2,3.6,1.3,1.1,1.3.9,3.2-.3,4.3,0,0,0,0-.1,0-.9.7-2.1.9-3.2.6l-2.2-.3,1.9,2.5-1.6,1.3-4-5.1,1.3-1h0Z"/><path class="cls-49" d="m323.5,175.2h20.7c2,0,3.7,1.6,3.7,3.6,0,0,0,0,0,0v44.2c0,2-1.6,3.7-3.6,3.7,0,0,0,0,0,0h-20.7c-2,0-3.7-1.6-3.7-3.6,0,0,0,0,0,0v-44.2c0-2,1.6-3.7,3.6-3.7,0,0,0,0,0,0Z"/><path class="cls-40" d="m344.2,175.2h-20.7c-2,0-3.7,1.6-3.7,3.6,0,0,0,0,0,0v44.2l28.1-44.2c0-2-1.6-3.7-3.6-3.7,0,0,0,0,0,0Z"/><rect class="cls-26" x="322.1" y="181.7" width="23.3" height="34.9"/><path class="cls-9" d="m336.7,176.8c0,.3-.3.5-.5.5h-4.8c-.3,0-.5-.3-.5-.5h0c0-.3.3-.5.5-.5h4.8c.3,0,.5.3.5.5Z"/><path class="cls-9" d="m335.7,223.1h-.4c-.3,0-.6,0-.9-.2-.4,0-.7-.2-1.1-.2-.4,0-.9-.1-1.3-.3h-.2c-.2,0-.2-.2-.2-.4,0-.2.1-.4.3-.6.1-.3.3-.7.4-1,0-.2.3-.4.4-.6.2-.3.6-.4.9-.2,0,0,.2.1.2.2,0,0,.2.3.4.5.2.4.4.6.6,1l1.1,1.6v.2c0,.2,0,.3-.2.3v-.3Z"/><path class="cls-9" d="m328.2,219.8c0,0-.2.3-.3.4l-.5.8c-.2.3-.5.6-.6.9l-.8,1.1c0,0,0,.1,0,.2-.1,0-.3,0-.4,0-.2-.2-.3-.4-.5-.5s-.4-.5-.7-.8c-.2-.2-.3-.4-.5-.6-.2-.3-.1-.7.2-.9,0,0,.1,0,.2,0,.2,0,.4,0,.5,0,.4,0,.8,0,1.2-.2.6,0,1.3-.1,1.9-.3h.2c.2,0,.3,0,.2.3h0Z"/><path class="cls-9" d="m339.3,219.3c.1,0,.3,0,.4,0l.9.3c.4,0,.7.3,1.1.4s.8.3,1.3.4h.2c.2,0,.2.2,0,.4s-.3.4-.4.5c-.2.3-.4.6-.6.9-.2.2-.3.4-.4.5-.3.3-.7.3-1,0,0,0,0,0,0,0,0-.2-.2-.3-.3-.4l-.5-1.1c-.3-.5-.5-1.2-.8-1.7v-.2c0-.2,0-.3.3-.3v.2Z"/><path class="cls-36" d="m335.9,192.1h-.5c-.3,0-.7,0-1-.2-.4,0-.8-.1-1.2-.3-.5,0-.9-.1-1.3-.3h-.2c-.2,0-.2-.2-.2-.4s.2-.5.3-.6c.2-.4.3-.7.5-1.1.1-.2.2-.4.4-.6.2-.3.7-.4,1-.2,0,0,.1.1.2.2.1.1.3.3.4.5.2.3.5.7.6,1.1.4.5.7,1.2,1.1,1.7v.2c0,.2,0,.3-.2.3l.2-.3Z"/><path class="cls-36" d="m336.7,183.9h.2c.2,0,.2,0,.2.3s0,.2-.2.3c-.4.5-.8,1.1-1.3,1.5-.4.5-.8.9-1.2,1.3-.2.2-.5.4-.7.5-.3,0-.6,0-.9-.2-.2-.1-.3-.3-.4-.4-.4-.5-.7-1.1-1.1-1.7-.1-.3-.3-.5-.5-.7h0c0-.2,0-.3.2-.3.8,0,1.5,0,2.2-.2.7,0,1.3,0,2-.2h1.4v-.2Z"/><path d="m326.8,211.6v-1.5l2.8-3c.3-.3.4-.5.6-.7,0-.2.2-.3.2-.5,0-.2,0-.4-.2-.5-.2-.1-.3-.2-.5-.2-.5,0-1,.4-1.2.9l-1.9-1.1c.2-.6.6-1.1,1.2-1.4.5-.3,1.2-.5,1.8-.5.8,0,1.5.3,2.1.7.6.5.9,1.2.9,2,0,.5,0,1-.4,1.4-.3.5-.6.9-1,1.3l-1.2,1.2h2.6v2.1h-5.9,0Z"/><path d="m341.8,206.7v.9c0,1.1-.4,2.2-1.2,3-.8.8-1.9,1.2-3.1,1.2-1.2,0-2.4-.4-3.2-1.3-.8-.8-1.3-2-1.3-3.1,0-1.2.4-2.3,1.3-3.1.8-.8,2-1.3,3.2-1.3.8,0,1.5.1,2.2.5.6.3,1.2.8,1.5,1.4l-1.8,1.1c-.2-.3-.4-.5-.7-.6-.3-.2-.7-.3-1.1-.3-1.3,0-2.3,1.1-2.2,2.3,0,.6.2,1.1.6,1.5.5.5,1.1.7,1.8.7.8,0,1.6-.4,2-1.1h-2.1v-1.9h4.1Z"/><polygon class="cls-53" points="322 215.8 322 181.6 345.3 181.6 322 215.8"/><circle class="cls-7" cx="68.3" cy="191.5" r="40.5"/><path d="m54.7,166.6c1.6,2.1,1.2,5-.9,6.5-.1.1-.3.2-.4.3-2.4,1.7-5.7,1.2-7.4-1.2,0,0,0,0,0,0-1.6-2.4-.9-5.7,1.5-7.3,1.5-1,3.3-1.1,4.9-.5l-1,2c-.9-.4-1.9-.2-2.7.4-1.3.8-1.8,2.6-.9,3.9,0,0,0,.1.1.2.9,1.4,2.7,1.8,4.1.9,0,0,.2-.1.2-.2,1-.5,1.5-1.6,1.3-2.7l-2.2,1.5-1.1-1.7,4.2-2.8.4.7Z"/><path d="m59.1,165l.8,2.4c.2.6.7.5,1.6.2l.6,1.9c-2.6,1.2-3.6.5-4.2-1.4l-.8-2.4-1.1.4-.6-2,1.1-.4-.5-1.3,1.9-1.3.6,1.9,1.4-.5.6,2-1.4.4h0Z"/><path d="m69.3,161.4l.5,7.2-2.2.2v-.7c-.5.6-1.3,1-2.2,1-2.1,0-3.8-1.8-3.7-3.9,0-1.8,1.4-3.4,3.2-3.7.8,0,1.6.2,2.2.7v-.7l2.1-.2h0Zm-1.9,3.8c0-.9-.6-1.6-1.5-1.6-.1,0-.2,0-.3,0-.9,0-1.7.8-1.6,1.8,0,0,0,0,0,.1,0,.9.6,1.6,1.5,1.6.1,0,.2,0,.3,0,.9,0,1.7-.8,1.6-1.8,0,0,0,0,0-.1h0Z"/><path d="m79.2,166.9c-.4,2-2.2,3.3-4.2,3-.8-.2-1.5-.6-1.9-1.4l-.2.6-2.1-.4,2.2-9.8,2.1.4-.8,3.5c.6-.5,1.5-.6,2.2-.4,1.9.6,3,2.6,2.5,4.5h0Zm-2.1-.4c.3-.8-.1-1.7-.9-2-.1,0-.2,0-.3,0-.9-.2-1.8.3-2,1.2,0,0,0,0,0,.1-.3.8.1,1.7.9,2,.1,0,.2,0,.3,0,.9.2,1.8-.3,2-1.2,0,0,0,0,0-.1Z"/><path d="m90.8,166.2l-5.7,8.4-1.9-1.3,4.3-6.3-1.7-.6.6-2,2.7.7,1.7,1.2h0Z"/><path class="cls-11" d="m52.3,224.8c0,0-.2,0-.2,0-1.2-.4-2-1.5-2-2.8v-40c0-1.5,1.1-2.9,2.6-3,0,0,.1,0,.2,0h28.5c0,.2.2.2.3.2,1,.4,1.7,1.5,1.7,2.6v2.7h-10.5c-.2,0-.4,0-.5.3-.4.5-.9.9-1.4,1.4-1.6,1.5-4.1,1.5-5.8,0-.4-.4-.9-.8-1.3-1.3-.2-.2-.4-.3-.7-.3h-9.8c-.5,0-.5,0-.5.5v33.8c0,.4.2.5.5.5h30.1v2.7c0,1.2-.6,2.3-1.7,2.7,0,0-.3,0-.3.3h-29.2v-.2Zm13.1-3.5h-2.6c-.5,0-.8.3-.8.7s.3.7.8.7h5.2c.4,0,.8-.2.9-.6,0-.4-.2-.8-.6-.9-.1,0-.2,0-.3,0h-2.6Zm2.8-39.7c-.7,0-1.3.6-1.3,1.3,0,0,0,0,0,0h0c0,.7.6,1.4,1.3,1.4,0,0,0,0,0,0,.7,0,1.3-.6,1.4-1.4,0-.7-.6-1.3-1.3-1.4,0,0,0,0,0,0h0Zm6.2,40.4c0-.4-.3-.7-.6-.7-.4,0-.7.4-.7.8,0,.3.3.6.6.6,0,0,0,0,0,0,.4,0,.7-.3.7-.7h0Zm-3.4-.7c-.4,0-.7.4-.7.7,0,.4.3.7.7.7.4,0,.7-.4.7-.7,0-.4-.3-.7-.7-.7Z"/><rect class="cls-11" x="64.8" y="181.4" width="5.8" height="3.5"/><path class="cls-52" d="m81.6,224.8c0-.2.2-.2.3-.3,1.1-.4,1.8-1.5,1.7-2.7v-40.2c0-1.1-.6-2.2-1.7-2.6,0,0-.3,0-.3-.2h2c1.5,0,2.7,1.2,2.7,2.7v39.6c0,1.7-.5,3.1-2.2,3.6h-2.5,0Z"/><path class="cls-48" d="m80.8,219.3h-27.3c-.5,0-.5,0-.5-.5v-33.7c0-.5,0-.5.5-.5h9.8c.3,0,1.2-.4,1.3-.2.5.4.2.9.9,1.8s2,1.5,3.6,0l1.8-1.8c0-.2,1.8.2,2,.2h7.7v34.8h0Z"/><path class="cls-45" d="m80.8,219.3v-34.8h2.8v34.8h-2.8Z"/><path class="cls-33" d="m65.5,221.4h2.5c.4,0,.8.3.9.7,0,.4-.5.7-.9.7h-5.2c-.5,0-.8-.3-.8-.7s.3-.7.8-.7h2.7Z"/><path class="cls-18" d="m74.5,222c0,.4-.3.7-.6.7h0c-.3,0-.6-.3-.6-.6,0,0,0,0,0,0,0-.4.3-.7.7-.8.4,0,.6.4.6.7h0Z"/><path class="cls-18" d="m71.1,221.4c.4,0,.6.4.7.7,0,.4-.3.7-.7.7s-.7-.3-.7-.7c0-.4.4-.6.7-.7Z"/><path class="cls-30" d="m70.9,181.7h.2c.2,0,.2,0,.2.3s0,.2-.2.3c-.5.5-.8,1.1-1.3,1.6l-1.2,1.4c-.2.2-.4.4-.7.5-.4,0-.7,0-1-.3-.2,0-.3-.3-.5-.4-.4-.5-.7-1.2-1.1-1.7-.2-.3-.3-.5-.5-.8h0c0-.2,0-.3.2-.4.8,0,1.6,0,2.3-.2.7,0,1.4,0,2.1-.2.5,0,1,0,1.4,0h0Z"/><path class="cls-47" d="m70.7,200.1h-.5c-.4,0-.7-.2-1.1-.2-.5,0-.9-.1-1.3-.3l-1.5-.3h-.3c-.2,0-.3-.2-.2-.5,0-.3.2-.5.4-.7.2-.4.4-.8.5-1.2,0-.3.2-.5.5-.7.2-.3.7-.4,1-.2,0,0,.2.1.2.2.1.1.3.3.4.5.3.4.5.8.7,1.2.5.6.8,1.3,1.3,2,0,0,0,.1,0,.2,0,.2,0,.3-.3.3l.2-.3Z"/><path class="cls-47" d="m71.6,190.7h.2c.2,0,.3,0,.2.3s0,.2-.2.3c-.5.6-.9,1.2-1.4,1.8s-.9,1.1-1.3,1.5c-.2.3-.5.5-.8.5-.4,0-.8,0-1.1-.3-.2-.2-.3-.3-.5-.5-.5-.6-.8-1.3-1.3-1.9-.2-.3-.4-.6-.5-.9h0c0-.2,0-.4.2-.4.9,0,1.7,0,2.6-.2.8,0,1.5,0,2.2-.2.5,0,1.1,0,1.6,0h0Z"/><path d="m66.7,211.8v2.5h-1.1v1.7h-2.8v-1.7h-4.9v-2.6l3.3-6.8h3.2l-3.3,6.8h1.7v-2h2.8v2h1.1Z"/><path d="m78.6,209.7v1.1c0,1.5-.5,2.9-1.5,4-1.1,1-2.5,1.6-4,1.5-1.6,0-3.1-.5-4.2-1.6-2.2-2.3-2.2-5.8,0-8.1,1.1-1.1,2.5-1.7,4-1.7,1,0,2,.2,2.8.7.8.4,1.5,1,2,1.8l-2.4,1.4c-.2-.4-.6-.7-1-.8-.5-.2-.9-.3-1.4-.3-1.5-.1-2.9,1.1-3,2.6,0,.1,0,.2,0,.4,0,.8.3,1.6.8,2.2.6.6,1.5,1,2.3.9,1.1,0,2-.5,2.5-1.4h-2.7v-2.4h5.8Z"/><line class="cls-9" x1="148.1" y1="191.3" x2="115.4" y2="191.8"/><line class="cls-8" x1="148.1" y1="191.3" x2="126.1" y2="191.6"/><polygon class="cls-54" points="128.2 184.1 115.4 191.8 128.4 199.1 128.2 184.1"/><line class="cls-9" x1="253.4" y1="193.3" x2="286.1" y2="193.8"/><line class="cls-8" x1="253.4" y1="193.3" x2="275.4" y2="193.6"/><polygon class="cls-54" points="273.1 201.1 286.1 193.8 273.3 186.1 273.1 201.1"/><path class="cls-25" d="m175.4,216.4c.5-.4.9-.9,1.4-1.3l6.8-6.8c1.6-1.7,4.2-1.7,5.9-.1,0,0,0,0,.1.1.6.5,1,1.2,1.1,2,.1.6.1,1.3,0,1.9-.3.9-.8,1.8-1.5,2.5-2,1.9-3.9,3.9-5.8,5.8-.3.3-.3.4,0,.7,1,1.1,1.8,2.5,2.2,3.9h-13.2c-.2,0-.4,0-.4-.2,0-1.2,0-2.5.2-3.7.3-1.2.9-2.2,1.7-3.1l1.5-1.5v-.2Z"/><path class="cls-22" d="m208,214.2c-1.5-.8-2.1-2.6-1.4-4.2.5-1.3,1.9-2.2,3.3-2.1h8.4c1.7,0,3.1,1.2,3.4,2.8-.2,0-.2.1-.2.2-.4.9-1.1,1.6-2,1.9-.6.2-1.2.3-1.8.3h-8.4c-1,0-1.2,0-1.3,1.1Z"/><path class="cls-25" d="m208,221.1c-1.6-.9-2.2-3-1.3-4.6.5-.8,1.3-1.4,2.2-1.6.4,0,.7,0,1.1-.2h8.8c.7.2,1.3.5,1.9,1,.5.5.8,1.1,1,1.8,0,0-.2.1-.2.2-.6,1.5-2.1,2.4-3.7,2.2h-8.6c-1,0-1.2.2-1.2,1.2Z"/><path class="cls-25" d="m206.3,225.1c0-1.6,1.1-3,2.6-3.3.2,0,.5,0,.7-.1,3.1,0,6.3.1,9.4,0,0,.2.2.2.3.2,1.2.4,2.1,1.4,2.4,2.6.2.7,0,.8-.6.8h-14.8v-.2Z"/><path class="cls-58" d="m185.6,225.1c-.4-1.5-1.1-2.8-2.2-3.9-.3-.3-.3-.4,0-.7,2-1.9,3.9-3.9,5.8-5.8.7-.7,1.2-1.6,1.5-2.5.6,1.5.3,3.3-.9,4.4l-3.8,3.8c-.3.3-.3.4,0,.7,1,1.1,1.8,2.5,2.2,3.9h-2.6Z"/><path class="cls-15" d="m219,221.5c-3.1.2-6.3,0-9.4,0-.2,0-.5,0-.7.1-.3-.2-.6-.2-.8-.5h0c0-1.1.2-1.3,1.2-1.3h8.6c1.7,0,3-.5,3.7-2.2,0,0,.1-.2.2-.2.3,1.7-.7,3.5-2.4,4h-.4Z"/><path class="cls-15" d="m218.8,214.7h-8.8c-.4,0-.8,0-1.1.2-.2-.2-.6-.2-.8-.6h-.1c.1-1.1.2-1.3,1.3-1.3h8.4c.6,0,1.2,0,1.8-.3.9-.3,1.6-1,2-1.9,0-.1,0-.2.2-.2.4,1.8-.7,3.6-2.5,4h-.4Z"/><path class="cls-34" d="m208,187.3h-3.8c-.3,0-.5,0-.5-.4,0-.6.3-1.2,1-1.3.1,0,.2,0,.3,0h6.9c.4,0,.5,0,.5.5,0,.6-.3,1.2-1,1.3-.1,0-.2,0-.3,0h-3.1,0Z"/><path class="cls-38" d="m211,182.1h3.4c.3,0,.4,0,.4.4q0,1.4-1.3,1.4h-5.9c-.4,0-.5,0-.5-.5,0-.9.4-1.3,1.2-1.3h2.7Z"/><path class="cls-38" d="m203.7,182.9c0-.4.2-.7.6-.8,0,0,.1,0,.2,0,.5,0,.8.3.9.9q0,.9-.9.9c-.9,0-.8,0-.8-.9h0Z"/><path class="cls-22" d="m208,214.2h.1c0,.1-.1,0-.1,0Z"/><path class="cls-2" d="m214.7,177.8h-35.8c-.4,0-.9,0-1.3.2-1.4.5-2.4,1.9-2.3,3.4v35.1c.5-.4.9-.9,1.4-1.3l6.8-6.8c.5-.6,1.2-1,2-1.1,2.2-.6,4.5.7,5.1,2.9,0,0,0,.1,0,.2.1.6.1,1.3,0,1.9.6,1.5.3,3.3-.9,4.4l-3.8,3.8c-.3.3-.3.4,0,.7,1,1.1,1.8,2.5,2.2,3.9h18.1c0-1.6,1.1-3,2.6-3.4-.3-.2-.6-.2-.8-.5h0c-1.7-1-2.2-3.2-1.1-4.9.5-.8,1.2-1.3,2-1.5-.2-.2-.6-.2-.8-.6h-.1c-1.5-.9-2.1-2.8-1.4-4.4.5-1.3,1.9-2.2,3.3-2.1h8.4v-26.5c.1-1.9-1.3-3.5-3.1-3.6-.2,0-.3,0-.5,0v.2Zm-11,5.1c0-.4.2-.7.6-.8,0,0,.1,0,.2,0q.9,0,.9.9t-.9.9c-.9,0-.8,0-.8-.9h0Zm7.4,4.4h-6.9c-.3,0-.5,0-.5-.4q0-1.3,1.3-1.3h6.9c.4,0,.5,0,.5.5q0,1.3-1.3,1.3h0Zm2.5-3.4h-5.9c-.4,0-.5,0-.5-.5q0-1.3,1.2-1.3h6.1c.3,0,.4,0,.4.4q0,1.4-1.3,1.4Z"/><path class="cls-14" d="m194.7,189.2h0v.6c-.1,1-.4,1.9-.9,2.7-.4.7-.9,1.4-1.5,1.9-.6.6-1.3,1.1-2.1,1.5-.7.3-1.4.5-2.1.6h-2.2c-1-.1-2-.5-2.9-1-.7-.4-1.4-1-1.9-1.6-.5-.6-1-1.3-1.3-2.1-.3-.7-.5-1.4-.6-2.1v-2.2c.1-.9.4-1.7.9-2.5.4-.7.9-1.3,1.5-1.9,1.7-1.6,4-2.4,6.3-2.1.9,0,1.7.3,2.5.7,1.7.9,3.1,2.3,3.8,4.1.3.6.4,1.3.5,2v1.4Zm-6.5,6.2c.3,0,.6,0,.9-.2,3.2-1.1,5.1-4.4,4.5-7.8-.4-2.3-2.1-4.2-4.3-5-.3-.2-.7-.3-1.1-.3h-.2c-.6,0-1.1,0-1.7,0-1.1,0-2.1.4-3,1-2.3,1.4-3.6,4-3.2,6.7.2,1.9,1.2,3.6,2.8,4.7,1.3,1,2.8,1.4,4.4,1.3.3,0,.6,0,.9-.1v-.3Z"/><path class="cls-10" d="m188.2,195.4c-.3,0-.6.1-.9.1-1.6,0-3.1-.4-4.4-1.3-1.6-1.1-2.6-2.8-2.8-4.7-.4-2.7.9-5.3,3.2-6.7.9-.6,1.9-.9,3-1h2c1.1.4,2.2,1.1,2.9,2,.4.5.7,1,.9,1.5.4.9.6,1.8.6,2.8v1.5c0,.8-.3,1.5-.7,2.2-.4.7-.9,1.4-1.5,2-.5.5-1.1.8-1.7,1.1-.2,0-.4,0-.6.2v.3Zm-6.3-6.7c0,2.8,2.2,5,5,5s5-2.2,5-5c0-2.8-2.2-5-4.9-5-2.8,0-5,2.2-5.1,4.9h0Z"/><path class="cls-20" d="m188.2,195.4c.2-.1.4-.1.6-.2.6-.3,1.2-.6,1.7-1.1.6-.6,1.1-1.3,1.5-2,.3-.7.6-1.4.7-2.2,0-.5,0-1,0-1.5,0-1-.2-1.9-.6-2.8-.2-.5-.5-1-.9-1.5-.7-1-1.7-1.7-2.9-2h-.1c.4,0,.7.2,1.1.3,2.2.8,3.9,2.7,4.3,5,.7,3.4-1.3,6.7-4.5,7.8-.3,0-.6.2-.9.2Z"/><path class="cls-35" d="m182,188.7c0-2.8,2.2-5,5-5s5,2.2,5,5-2.2,5-5,5h0c-2.7,0-4.9-2.2-5-4.9h0Zm5-3.1h-2.2c-.3,0-.5,0-.6.2,0,0,0,.1-.1.2-.8.8-1.1,2-1,3.1,0,1,.5,1.9,1.3,2.5,0,0,.2,0,.3.1h4.6c.3,0,.5,0,.7-.3h.1c.8-1,1.1-2.2.9-3.4-.1-.8-.5-1.6-1.1-2.2-.1-.2-.4-.3-.6-.3h-2.3,0Z"/><path class="cls-19" d="m186.9,185.6h2.3c.2,0,.5.1.6.3.6.6,1,1.4,1.1,2.2.2,1.2-.1,2.4-.9,3.3h-.1c-.2.3-.4.4-.7.4h-4.6c-.1,0-.2,0-.3-.1-.7-.7-1.2-1.5-1.3-2.5-.1-1.1.2-2.3,1-3.1,0,0,0-.1.1-.2.2-.2.4-.3.6-.2h2.2,0Zm2.2,3.1c0-1.2-.9-2.2-2.1-2.2,0,0,0,0,0,0-1.1,0-2.1.9-2.1,2,0,0,0,0,0,.1,0,1.2.9,2.2,2.1,2.2,0,0,0,0,0,0,1.1,0,2.1-.9,2.1-2,0,0,0,0,0-.1Z"/><path class="cls-32" d="m189.1,188.7c0,1.1-.9,2.1-2,2.1,0,0,0,0-.1,0-1.2,0-2.2-.9-2.2-2.1,0,0,0,0,0,0,0-1.1.9-2.1,2-2.1,0,0,0,0,.1,0,1.2,0,2.2,1,2.2,2.2Zm-2.2-1.2c-.6,0-1.2.5-1.2,1.1,0,0,0,0,0,0h0c0,.7.5,1.2,1.2,1.2s1.2-.5,1.2-1.2c0-.7-.5-1.2-1.2-1.2Z"/><path class="cls-51" d="m186.9,189.9c-.7,0-1.2-.5-1.2-1.2,0-.7.5-1.2,1.2-1.2h0c.1,0,.1.2.2.3,0,.6,0,1.2,0,1.8,0,.1,0,.2-.2.3Z"/><path class="cls-23" d="m186.9,189.9c.1,0,.1-.2.2-.3,0-.6,0-1.2,0-1.8,0-.1,0-.2-.2-.3.7,0,1.2.5,1.2,1.2,0,.7-.5,1.2-1.2,1.2h0Z"/><circle class="cls-6" cx="197.7" cy="191.5" r="45"/><path d="m167.1,192.7l.2,2.1-5.3.4,4,2.1v.2l-3.7,2.6,5.3-.4.2,2.1-9.1.7-.2-2.1,3.9-2.8-4.2-2.2-.2-2.1,9.1-.7h0Z"/><path d="m166.5,188.3c0-.4,0-.9-.2-1.3l1.2-1.3c.7.8,1,1.9.7,3-.2,1.8-1.9,3.1-3.8,2.9-.1,0-.2,0-.3,0-1.8-.3-3-2-2.7-3.8,0-.1,0-.2,0-.3.3-1.7,2-2.9,3.8-2.6,0,0,.2,0,.2,0,.2,0,.5,0,.7.2l-1,4.5c.7,0,1.2-.6,1.2-1.3h.1Zm-2.1-1.7c-.8,0-1.4.7-1.3,1.5,0,.5.3.9.7,1.2l.6-2.7Z"/><path d="m163.6,175.1l8.2,3.9-.8,1.8-.6-.3c.3.7.3,1.5-.1,2.1-.8,1.6-2.8,2.2-4.3,1.3,0,0,0,0,0,0-1.7-.7-2.5-2.6-1.8-4.3.3-.7.9-1.2,1.6-1.4l-2.9-1.4.8-1.8h0Zm4.4,4.3c-.8-.4-1.7,0-2.1.7-.4.7-.1,1.6.6,2,0,0,.1,0,.2,0,.8.4,1.7,0,2.1-.7.4-.8,0-1.7-.7-2,0,0,0,0-.1,0h0Z"/><path d="m165.7,173.6c-.5-.4-.7-1.1-.3-1.6s1.1-.7,1.6-.3c.5.4.7,1.1.3,1.6-.4.5-1.1.6-1.6.3Zm1.5.9l1.1-1.6,5.3,3.8-1.1,1.6-5.3-3.8Z"/><path d="m174.4,166.4l4.5,4.7-1.4,1.4-.4-.4c0,.7-.3,1.4-.8,1.9-1.5,1.2-3.7.9-4.8-.6-1-1.3-1-3.1,0-4.3.5-.5,1.2-.8,1.9-.8l-.4-.4,1.4-1.4h0Zm.9,3.7c-.5-.6-1.4-.7-2-.2,0,0-.2.1-.2.2-.6.5-.7,1.5-.1,2.1,0,0,0,0,.1.1.5.6,1.4.7,2,.2,0,0,.2-.1.2-.2.6-.6.5-1.6,0-2.2h0Z"/><path d="m177.3,166.3l4.2-2.6,1,1.6-4.2,2.6-1-1.6Z"/><path d="m183.8,165.6l1.4-1.6c.5.6,1.4.9,2.2.6.9-.3,1-.8.9-1.1-.2-.5-.7-.6-2.2-.5-1.5.1-2.9,0-3.4-1.7-.5-1.5.3-3,1.8-3.5,0,0,.2,0,.2,0,1.3-.5,2.9-.2,3.8.9l-1.3,1.5c-.4-.6-1.2-.8-1.8-.5-.6.2-.8.6-.7,1s.4.6,1.9.5c1.5-.1,3.1-.1,3.7,1.7.6,1.8-.4,3.1-2.3,3.7-1.4.6-3.1.3-4.2-.9Z"/><path d="m190.2,157.2c0-.6.4-1.2,1-1.3.6,0,1.2.4,1.3,1s-.4,1.2-1,1.3c0,0,0,0,0,0-.6,0-1.2-.3-1.3-.9,0,0,0,0,0,0Zm.5,1.7l1.9-.3,1.1,6.4-1.9.3-1.1-6.4Z"/><path d="m200.9,160.7v4h-2v-3.7c0-.6-.4-1.1-1-1.2,0,0,0,0-.1,0-.6,0-1.2.4-1.2,1,0,0,0,.2,0,.3v3.5h-2v-6.5h2v.6c.5-.6,1.2-.9,1.9-.8,1.3,0,2.4,1.1,2.4,2.4,0,.1,0,.2,0,.3h0Z"/><path d="m209.8,160.1l-1.5,6c-.5,2.1-2.4,2.6-4.1,2.2-1.2-.2-2.2-1.1-2.6-2.3l1.8-.5c.1.5.4.9,1.2,1.2.7.3,1.4,0,1.7-.7,0,0,0-.2,0-.3v-.6c-.5.5-1.2.6-1.9.4-1.7-.4-2.8-2.2-2.3-3.9,0,0,0,0,0-.1.4-1.7,2.1-2.8,3.8-2.4,0,0,0,0,.1,0,.7.1,1.3.6,1.6,1.3l.2-.6,1.8.5v-.2Zm-2.6,2.6c.2-.8-.3-1.6-1-1.8,0,0-.1,0-.2,0-.8-.2-1.6.2-1.9,1,0,0,0,0,0,.1-.2.8.3,1.6,1,1.8,0,0,.1,0,.2,0,.8.2,1.6-.2,1.9-1,0,0,0,0,0-.1h0Z"/><path d="m213,158.3l1.8.8-3.9,8.7-1.8-.8,3.9-8.7Z"/><path d="m215.6,168.7c.4.3.8.4,1.3.3l.8,1.6c-1.1.4-2.2.2-3.1-.5-1.6-.9-2.2-3.1-1.3-4.7.9-1.6,3.1-2.2,4.7-1.3,1.6.9,2.2,3.1,1.3,4.7,0,0,0,.1,0,.2-.2.2-.3.4-.5.6l-3.8-2.6c-.2.7.2,1.2.8,1.6h-.1Zm2.3-1.3c.2-.6,0-1.3-.6-1.6-.5-.4-1.2-.4-1.7,0l2.3,1.5h0Z"/><path d="m222.3,172c1.4-1.2,3.5-1,4.6.4,0,0,.1.1.2.2.7.9.9,2.2.5,3.3l-1.8-.7c.2-.5.1-1-.2-1.4-.4-.6-1.3-.8-1.9-.3,0,0-.1,0-.2.1-.7.5-.8,1.4-.3,2.1,0,0,0,0,0,0,.3.5.9.7,1.4.5l.3,1.9c-1.2.2-2.4-.3-3.1-1.3-1.2-1.5-.9-3.6.5-4.7,0,0,0,0,0,0h0Z"/><path d="m232.5,182.5l-5.9,2.8-.8-1.8.6-.3c-.7-.2-1.2-.7-1.5-1.4-.7-1.7.1-3.6,1.8-4.3,1.6-.8,3.5-.3,4.3,1.3,0,0,0,0,0,.1.4.6.4,1.4.1,2.1l.6-.3.8,1.8h-.1Zm-3.8-.4c.8-.4,1-1.3.7-2.1-.4-.8-1.3-1-2.1-.7-.7.4-1,1.3-.7,2,.3.8,1.2,1.1,2,.8,0,0,0,0,.1,0Z"/><path d="m232.4,195.1l-3.9.6-.3-1.9,3.8-.5c.5,0,.9-.4.9-.9,0,0,0-.1,0-.2,0-.6-.6-.9-1.4-.8l-3.6.5-.3-1.9,3.8-.5c.5,0,.9-.4.9-.9,0,0,0-.1,0-.2,0-.6-.6-.9-1.4-.8l-3.6.5-.3-1.9,6.4-.9.3,1.9h-.6c.6.4,1,1,1,1.7.1.7,0,1.4-.6,1.8.6.3,1.1,1,1.1,1.7.2,1.3-.6,2.5-1.9,2.8-.1,0-.2,0-.4,0h.1Z"/><path d="m229.2,199.9c0,.5,0,.9.3,1.3l-1.1,1.4c-.8-.8-1.1-1.9-.9-3,.2-1.9,1.8-3.3,3.7-3.1,0,0,.2,0,.2,0,1.8.2,3.1,1.9,2.9,3.7,0,0,0,.1,0,.2-.2,1.8-1.9,3.1-3.7,2.8,0,0-.1,0-.2,0-.3,0-.5,0-.8-.2l.7-4.6c-.7.1-1,.7-1.1,1.4h0Zm2.2,1.5c.8,0,1.1-.6,1.2-1.2.1-.6-.2-1.3-.8-1.5l-.4,2.8h0Z"/><path d="m231.9,209.3l-2.1-.7c.5-.7.4-1.6-.3-2.1-.2-.1-.3-.2-.5-.2l-2.8-1,.6-1.8,6.1,2.1-.6,1.8-1.1-.4c.6.6.9,1.5.6,2.3h.1Z"/><path d="m227.9,216.5l-5.6-3.3,1-1.7.5.3c-.2-.7-.1-1.5.3-2.1,1-1.5,3-1.9,4.5-1,1.6.8,2.2,2.7,1.5,4.3,0,0,0,0,0,.1-.3.7-.9,1.2-1.7,1.3l.5.3-1,1.7h.1Zm-1.8-3.3c.7.5,1.6.3,2-.4,0,0,0,0,0,0,.4-.7.2-1.7-.6-2.1,0,0,0,0,0,0-.7-.5-1.6-.3-2,.4,0,0,0,0,0,0-.4.7-.2,1.7.6,2.1,0,0,0,0,0,0Z"/><line class="cls-3" x1="197.6" y1="242.1" x2="197.5" y2="260.7"/><line class="cls-3" x1="60" y1="260.2" x2="342" y2="260.2"/><line class="cls-8" x1="60.5" y1="260" x2="60.5" y2="269.3"/><polygon class="cls-54" points="54 267.4 60.5 278.6 67 267.4 54 267.4"/><line class="cls-8" x1="154.1" y1="260" x2="154.1" y2="269.3"/><polygon class="cls-54" points="147.7 267.4 154.1 278.6 160.6 267.4 147.7 267.4"/><line class="cls-8" x1="247.8" y1="260" x2="247.8" y2="269.3"/><polygon class="cls-54" points="241.3 267.4 247.8 278.6 254.3 267.4 241.3 267.4"/><line class="cls-8" x1="341.5" y1="260" x2="341.5" y2="269.3"/><polygon class="cls-54" points="335 267.4 341.5 278.6 348 267.4 335 267.4"/></svg>