<?xml version="1.0" encoding="UTF-8"?><svg id="Layer_1" xmlns="http://www.w3.org/2000/svg" viewBox="0 0 400 400"><defs><style>.cls-1{fill:#375e7d;}.cls-2{stroke:#a5262d;}.cls-2,.cls-3,.cls-4,.cls-5{stroke-width:4px;}.cls-2,.cls-3,.cls-4,.cls-5,.cls-6{fill:none;stroke-miterlimit:10;}.cls-7{fill:#7da1b1;}.cls-8{fill:#8fbac5;}.cls-9{fill:#fff;}.cls-10{fill:#75e1f7;}.cls-3{stroke:#0018c6;}.cls-11{fill:#2b4d66;}.cls-12{fill:#d1fdbf;}.cls-13{fill:#999afe;}.cls-4{stroke:#c000e2;}.cls-14{fill:#f1f6f6;}.cls-15{fill:#00f6d5;}.cls-16{fill:#453e43;}.cls-17{fill:#01264f;}.cls-18{fill:#7ac943;}.cls-19{fill:#2b4e68;}.cls-20{fill:#034868;}.cls-21{fill:#02f6d5;}.cls-22{fill:#d0cde6;}.cls-23{fill:#02f1a6;}.cls-24{fill:#2b506b;}.cls-5{stroke:#00b51e;}.cls-25{fill:#e5e4ec;}.cls-6{stroke:#231f20;stroke-width:2px;}.cls-26{fill:#685e66;}.cls-27{fill:#275d77;}.cls-28{fill:#22a5fc;}.cls-29{fill:#fde077;}.cls-30{fill:#fee077;}.cls-31{fill:#ddebf0;}.cls-32{fill:#395f7e;}.cls-33{fill:#ff931e;}.cls-34{fill:#275d76;}.cls-35{fill:#0071bc;}.cls-36{fill:#fed05b;}.cls-37{fill:#b7b7fe;}.cls-38{fill:#979bfd;}.cls-39{fill:#fec345;}.cls-40{fill:#00d7df;}.cls-41{fill:#0693fb;}.cls-42{fill:#fee078;}.cls-43{fill:#cee5ec;}.cls-44{fill:#1d475a;}.cls-45{fill:#f8f6f7;}.cls-46{fill:#d0cde7;}.cls-47{fill:#fdd15b;}.cls-48{fill:#69a6fe;}.cls-49{fill:#b8b8fd;}.cls-50{fill:#dcd9ea;}.cls-51{fill:#231f20;}.cls-52{fill:#00dbe6;}.cls-53{fill:#2c4d66;}</style></defs><polygon class="cls-48" points="198 349.2 186.1 349.2 187.7 343.9 197.1 343.9 198 349.2"/><circle class="cls-5" cx="200" cy="323.2" r="45"/><path d="m177.5,298.2c2.3,1.9,2.6,5.2.7,7.4-.1.1-.2.2-.3.4-2.1,2.5-5.9,2.8-8.3.6,0,0,0,0,0,0-2.4-2.2-2.6-5.9-.4-8.3,0,0,0,0,0,0,1.3-1.5,3.3-2.2,5.2-1.9l-.5,2.5c-1.1-.2-2.1.3-2.8,1.1-1.2,1.2-1.2,3.2,0,4.5,0,0,.2.2.3.2,1.4,1.3,3.3,1.2,4.8-.4.9-.8,1.2-2.2.6-3.3l-2,2.2-1.7-1.5,3.8-4.2.7.6h0Z"/><path d="m187.7,294.1c1.1,1.9.5,4.4-1.4,5.5,0,0,0,0,0,0-.8.5-1.7.6-2.6.3l1.9,3.5-2.1,1.1-5.3-9.9,2.1-1.1.4.7c.2-.9.8-1.6,1.6-2,2-1,4.4-.1,5.4,1.9Zm-2.1,1.1c-.4-.9-1.5-1.3-2.4-.9,0,0-.1,0-.2.1-.9.4-1.3,1.6-.9,2.5,0,0,0,0,0,.1.4.9,1.5,1.3,2.4.9,0,0,.1,0,.2-.1.9-.4,1.3-1.6.9-2.5,0,0,0,0,0-.1h0Z"/><path d="m196.7,291.1l1,4.8-2.4.5-.9-4.5c0-.7-.7-1.2-1.4-1.2-.1,0-.2,0-.3,0-.7,0-1.3.8-1.2,1.5,0,.1,0,.3.1.4l.9,4.3-2.4.5-2.3-11,2.3-.5.8,3.9c.4-.8,1.1-1.3,2-1.4,1.6-.3,3.2.7,3.6,2.3,0,0,0,.2,0,.3h.2Z"/><path d="m198.5,291.9c.1-2.3,2.2-4.1,4.5-4,2.3.1,4.1,2.2,4,4.5s-2.2,4.1-4.5,4c0,0,0,0,0,0-2.3-.2-4.1-2.2-3.9-4.5,0,0,0,0,0,0Zm6.1.5c.1-1-.6-1.9-1.6-2,0,0,0,0,0,0-1-.1-1.9.5-2,1.5,0,0,0,.1,0,.2-.1,1,.6,1.9,1.6,2,0,0,0,0,0,0,1,0,1.9-.7,2-1.7Z"/><path d="m216.2,294.8l-1.7,4.6-2.2-.9,1.6-4.3c.4-.6.1-1.4-.5-1.8,0,0-.2,0-.3-.1-.8-.3-1.6,0-1.9.8,0,0,0,.1,0,.2l-1.6,4.1-2.2-.9,2.8-7.5,2.2.9-.3.7c.8-.5,1.7-.5,2.5,0,1.5.6,2.4,2.1,1.6,4.2h0Z"/><path d="m219.6,300.8c.5.4,1,.5,1.6.4l.9,2c-2.4.6-4.8-.9-5.4-3.3-.3-1.2,0-2.5.6-3.5,1.3-1.8,3.8-2.3,5.7-1,0,0,.2.1.2.2,1.8,1.3,2.2,3.8.9,5.6,0,0-.1.1-.2.2-.2.3-.4.5-.7.7l-4.5-3.4c-.2.8.2,1.6.9,2h0Zm2.9-1.5c.4-.7,0-1.6-.6-2-.6-.6-1.6-.6-2.2,0l2.8,2.1h0Z"/><path d="m227.3,313.1l1.9-3.2h-3.7l-1.4-2.6h6.6l3.2-5.4,1.4,2.5-1.7,3h3.4l1.4,2.6h-6.3l-3.3,5.7-1.4-2.5h0Z"/><path class="cls-35" d="m181.4,331.6h5.5l5.1,15.2h0c.1.4.4.6.8.6h.1c.4,0,.7-.4.8-.8l.8-15h25.6c.2,0,.5,0,.6-.3s.3-.4.3-.6v-24.6c0-.2,0-.5-.3-.6s-.4-.3-.6-.3h-38.7c-.5,0-.9.4-.9.9v24.6c0,.2,0,.5.3.6s.4.3.6.3h0Z"/><path class="cls-48" d="m192.2,341.9l-3.8-11.3v-1.9h0c.4.2.8.3,1.3.3l1.5,2.3c.2.2.4.4.7.4h.8l-.6,10.3h.1Z"/><path class="cls-33" d="m190.2,345.7v-1.8h-6.2c-.5,0-.9.4-.9.9v9.7c0,.2,0,.5.3.6s.4.3.6.3h16.7c.2,0,.5,0,.6-.3s.3-.4.3-.6v-9.7c0-.2,0-.5-.3-.6s-.4-.3-.6-.3h-5.3v1.8h.9v2.6h-5.9c-1.1,0-2-.9-2-2h0c0-.3.3-.6.6-.6h1.2Z"/><path class="cls-48" d="m207.8,321.9h9.7c.2,0,.5,0,.6-.3s.3-.4.3-.6v-12.3c0-.2,0-.5-.3-.6s-.4-.3-.6-.3h-9.7c-.5,0-.9.4-.9.9v12.3c0,.2,0,.5.3.6s.4.3.6.3Zm.9-12.3h7.9v10.6h-7.9v-10.6Z"/><path class="cls-48" d="m217.5,322.8h-6.2c-.5,0-.9.4-.9.9v4.4c0,.2,0,.5.3.6s.4.3.6.3h6.2c.2,0,.5,0,.6-.3s.3-.4.3-.6v-4.4c0-.2,0-.5-.3-.6s-.4-.3-.6-.3Zm-.9,4.4h-4.4v-2.6h4.4v2.6Z"/><path class="cls-48" d="m184,315.8h6.2v1.8h-6.2v-1.8Z"/><path class="cls-48" d="m184,319.3h3.5v1.8h-3.5v-1.8Z"/><path class="cls-18" d="m184.5,351.3h2.6c.2,0,.4.2.4.4v.9c0,.2-.2.4-.4.4h-2.6c-.2,0-.4-.2-.4-.4v-.9c0-.2.2-.4.4-.4Z"/><path class="cls-18" d="m191,351.3h2.6c.2,0,.4.2.4.4v.9c0,.2-.2.4-.4.4h-2.6c-.2,0-.4-.2-.4-.4v-.9c0-.2.2-.4.4-.4Z"/><path class="cls-18" d="m197.5,351.3h2.6c.2,0,.4.2.4.4v.9c0,.2-.2.4-.4.4h-2.6c-.2,0-.4-.2-.4-.4v-.9c0-.2.2-.4.4-.4Z"/><path class="cls-48" d="m198.6,324.8c-.3,0-.5,0-.8-.1-.6,0-1.2-.2-1.8-.4-.7-.1-1.5-.3-2.2-.4-.9-.2-1.7-.3-2.6-.5-.1,0-.3,0-.4-.1-.3,0-.4-.4-.3-.7,0,0,0,0,0,0,.2-.4.4-.8.5-1.2.3-.7.6-1.3.9-2,.2-.5.5-.9.8-1.3.4-.6,1.2-.8,1.9-.4.1,0,.2.2.3.3.2.2.4.5.6.8.4.7.9,1.3,1.3,2l2.1,3.3c0,.1.1.2.2.3.1.3,0,.5-.4.5h-.1Z"/><path class="cls-48" d="m200.1,309.1h.3c.3,0,.4.2.3.4s-.2.3-.3.5c-.8,1-1.5,2-2.3,3s-1.5,1.8-2.2,2.6c-.4.4-.9.7-1.4.9-.6.1-1.3,0-1.8-.4-.3-.3-.6-.6-.8-.9-.7-1.1-1.4-2.1-2.1-3.2-.3-.5-.6-1-.9-1.4h0c-.2-.4,0-.6.3-.6l4.3-.3c1.3,0,2.6-.2,3.8-.3.9,0,1.8,0,2.7-.2h0Z"/><line class="cls-9" x1="200.3" y1="239.7" x2="199.7" y2="272.5"/><line class="cls-6" x1="200.2" y1="239.7" x2="199.9" y2="261.7"/><polygon class="cls-51" points="192.5 259.4 199.7 272.5 207.4 259.6 192.5 259.4"/><line class="cls-9" x1="256.6" y1="126" x2="234.4" y2="150.2"/><line class="cls-6" x1="256.6" y1="126" x2="241.7" y2="142.2"/><polygon class="cls-51" points="237.7 135.6 234.4 150.2 248.7 145.6 237.7 135.6"/><line class="cls-9" x1="143.4" y1="126" x2="165.6" y2="150.2"/><line class="cls-6" x1="143.4" y1="126" x2="158.3" y2="142.2"/><polygon class="cls-51" points="151.3 145.6 165.6 150.2 162.3 135.6 151.3 145.6"/><circle class="cls-3" cx="111.6" cy="76.8" r="45"/><path class="cls-16" d="m121.4,57.6h1.9c.8,0,1.4.6,1.5,1.4v42.5c.1.9-.4,1.7-1.2,2.1h-24.3c-.9-.3-1.4-1.2-1.2-2.1v-1.3h11.7c.3,0,.5,0,.4-.4v-.8c.3-.6,1-.9,1.6-.7.6.2,1,.9.8,1.5,0,0,0,0,0,0,0,.3,0,.4.3.4h6.6c.9,0,1.7-.8,1.7-1.7,0,0,0,0,0,0v-3c.3-.2.5-.5.5-.9v-31.1c0-.4-.2-.7-.5-.9v-4.9h.2Z"/><path class="cls-26" d="m121.4,57.6v4.9h-19.2c-.9,0-1.1.2-1.1,1.1v30.8c0,.9.2,1.1,1.1,1.1h19.4v3c0,.9-.7,1.7-1.6,1.8,0,0,0,0,0,0h-6.6c-.3,0-.4,0-.3-.4.2-.6-.2-1.3-.8-1.5,0,0,0,0,0,0-.6-.2-1.3,0-1.6.7-.1.3-.1.5,0,.8,0,.4,0,.4-.4.4h-11.7v-40.5c0-1,.7-1.9,1.7-2,.1,0,.2,0,.3,0h21.2l-.3-.2Z"/><path d="m76.2,67.6c2.3.5,3.8,2.9,3.3,5.2l-.4,1.8,3.9.8-.6,2.8-12.3-2.7,1-4.7c.5-2.4,2.8-3.9,5.1-3.4,0,0,0,0,0,0v.2Zm-.6,2.8c-.8-.2-1.7.3-1.9,1.1,0,0,0,0,0,0l-.4,1.8,3.2.7.4-1.8c.2-.8-.4-1.6-1.2-1.8,0,0,0,0-.1,0h0Z"/><path d="m84.2,58.8l4.8,2.8-1.4,2.3-4.4-2.6c-.7-.5-1.6-.3-2.1.3,0,0,0,.1-.1.2-.5.7-.3,1.7.4,2.2,0,0,.2.1.3.2l4.2,2.5-1.4,2.3-10.9-6.4,1.4-2.3,3.8,2.3c-.3-.9-.2-2,.4-2.8.9-1.6,2.8-2.2,4.9-1h0Z"/><path d="m86.3,57.6c-1.7-1.9-1.6-4.8.3-6.6,0,0,0,0,.1-.1,2-1.7,5-1.6,6.7.4,1.8,1.9,1.8,4.9-.1,6.7-1.9,1.8-4.9,1.8-6.7-.1,0,0-.2-.2-.3-.3Zm5.1-4.5c-.8-.8-2.1-.9-3,0s-.9,2.1,0,3c.8.8,2.1.9,2.9,0,.9-.7,1-2,.3-2.8,0,0-.1-.1-.2-.2Z"/><path d="m102.8,45.9l2.2,5.1-2.5,1.1-2-4.7c-.3-.8-1.2-1.2-2-1,0,0,0,0-.1,0-.8.3-1.3,1.3-.9,2.1,0,0,0,.2.1.3l1.9,4.5-2.5,1.1-3.6-8.3,2.5-1.1.3.8c.3-.9,1-1.7,1.9-2,1.7-.7,3.6,0,4.6,2.1h0Z"/><path d="m110.3,48.2c.6,0,1.3-.3,1.7-.8l2.3,1c-.8,1.3-2.2,2.1-3.7,2.2-2.5.4-4.9-1.2-5.3-3.7,0-.2,0-.4,0-.6-.3-2.6,1.5-4.9,4.1-5.2,0,0,.1,0,.2,0,2.5-.2,4.8,1.7,5,4.2,0,0,0,0,0,.1v1.1l-6.4.6c.4.9,1.3,1.1,2.3,1.1h-.1Zm1.4-3.4c-.3-.8-1.1-1.3-2-1.2-.9,0-1.7.7-1.8,1.6l3.9-.4h0Z"/><path d="m125.3,43.3l1.6.5-.7,2.5-1.6-.5-1.8,6.1-2.6-.8,1.8-6.1-1.2-.3.7-2.5,1.2.3c.7-2.4,2.5-3.5,5.3-2.5l-.7,2.5c-.9-.4-1.7-.3-2,.7h0Z"/><path d="m133.8,46.9l-1.4,2.7c-.8-.8-2.1-.8-2.9,0-.2.2-.3.3-.4.5l-1.9,3.6-2.4-1.2,4.1-8,2.4,1.2-.7,1.4c.9-.8,2.2-1,3.2-.3Z"/><path d="m142.8,54.6l-6,6.7-2-1.8.6-.6c-1,0-2-.3-2.7-1-1.8-1.9-1.7-4.9.3-6.7,1.7-1.6,4.3-1.7,6.1-.3.8.6,1.3,1.6,1.2,2.6l.6-.6,2,1.8h0Zm-5,1.5c.8-.9.7-2.3-.2-3-.9-.8-2.3-.7-3,.2-.8.9-.7,2.2.2,3,.9.8,2.2.8,3,0,0,0,0,0,.1-.1Z"/><path d="m148.3,71.6l-5,2.3-1.1-2.4,4.8-2.2c.8-.4,1.2-1,.8-1.8-.4-.7-1.2-1-2-.7,0,0,0,0-.1,0l-4.6,2.1-1.1-2.4,4.8-2.2c.8-.4,1.2-1,.8-1.8-.4-.7-1.2-1-2-.7,0,0,0,0-.1,0l-4.6,2.1-1.1-2.4,8.2-3.8,1.1,2.4-.8.3c.9.2,1.7.8,2,1.7.5.8.5,1.8,0,2.6,1,.2,1.8.9,2.2,1.9.9,1.9,0,3.7-1.9,4.7h-.3Z"/><path d="m145.4,79.4c0,.7.3,1.3.8,1.7l-1.1,2.2c-1.3-.8-2.1-2.3-2-3.8,0-3.1,1.8-5.1,4.5-5.2,2.6-.2,4.8,1.8,5,4.3,0,0,0,.2,0,.3.1,2.5-1.8,4.7-4.3,4.8,0,0-.1,0-.2,0h-1.1l-.3-6.4c-.8.4-1.3,1.3-1.2,2.2h-.1Zm3.4,1.5c.9-.2,1.4-1.1,1.3-2,0-.9-.6-1.7-1.5-1.9l.2,3.9Z"/><circle class="cls-3" cx="288.4" cy="76.8" r="45"/><path class="cls-8" d="m277.2,112.8c-.8-.2-1.6-.6-2.3-1-1.5-1-2.4-2.8-2.3-4.6v-42.9c0-2.6,1.8-4.9,4.4-5.4h21.6c0,.2.1.2.2.2,1.3.4,2.5,1.2,3.2,2.4.4.5.6,1.2.6,1.8,0,0-.2-.2-.2-.3-.5-.8-1.4-1.3-2.4-1.3h-3.8c-.6,0-1.2.3-1.5.9-.2.3-.3.7-.5,1-.3.7-1,1.1-1.7,1.1h-6.7c-.3,0-.5,0-.8,0-.4-.2-.7-.6-.8-1l-.6-1.2c-.2-.4-.6-.7-1.1-.7h-4.8c-1.4.3-2.3,1.6-2.2,3v42.5c0,1.5,1.1,2.7,2.6,2.8h22c.5,0,.9,0,1.3-.3.5-.3.9-.8,1.2-1.3v.2c-.4,1.9-1.8,3.4-3.7,4-.1,0-.4,0-.4.2h-21.3Zm11.9-50.3h1.8c.3,0,.7-.2.7-.6,0,0,0,0,0-.1,0-.5-.2-.9-.7-.9h-3.5c-.5,0-.7.4-.7.9s.3.6.7.7h1.7,0Z"/><path class="cls-7" d="m298.6,112.8c0-.3.2-.2.4-.2,1.8-.6,3.2-2.1,3.7-4v-.2c.2-.5.2-1.1.2-1.7v-41.8c0-.6,0-1.1-.2-1.7,0-.6-.2-1.3-.6-1.8-.7-1.2-1.9-2.1-3.2-2.4-.1,0-.2,0-.2-.2h2.4c.7.1,1.3.4,1.9.7,1.7,1,2.8,2.9,2.7,4.9v42.7c0,2.7-1.8,5.1-4.5,5.6h-2.6Z"/><path class="cls-14" d="m285,64.5c.3,0,.5,0,.8,0h6.7c.8,0,1.5-.4,1.7-1.1.2-.3.3-.7.5-1,.3-.6.9-.9,1.5-.9h.9c0,.2.2.2.3.3,1,.5,1.6,1.5,1.6,2.6v42.5c0,1.1-.6,2.1-1.5,2.6-.2,0-.3.1-.3.3h-19.1c-1.5,0-2.6-1.3-2.6-2.8v-42.3c-.1-1.4.8-2.7,2.2-3,.5,0,.9,0,1.4,0,.5.6.9,1.3,1.3,2,.3.6,1,1,1.7.9h2.5c.2,0,.4,0,.5,0h-.1Zm-3.5,29.9v10.4c0,1.1.3,1.4,1.4,1.4h12.9c.5,0,1-.3,1.1-.9,0,0,0-.1,0-.2v-21.4c0-.5-.3-1-.9-1.1,0,0-.1,0-.2,0h-1.1c-.5,0-1-.3-1.1-.9,0,0,0-.1,0-.2v-1.9c0-.5-.3-1-.9-1.1,0,0-.1,0-.2,0h-6.7c-.8,0-1.1.4-1.1,1.2v1.9c0,.7-.4,1-1.1,1h-.8c-1,0-1.3.3-1.3,1.3v10.5h0Zm7.7-24.2c0-.2.1-.3.2-.5.3-.5.7-1,1-1.5s.2-.9-.2-1.1-.8-.3-1,0c-.8,1.1-1.6,2.3-2.3,3.5-.3.6,0,1.1.7,1.1h1.4q.3,0,.2.3c-.5.8-1,1.6-1.6,2.4-.3.4-.3.9,0,1.3.4.3.9,0,1.3-.4.9-1.3,1.7-2.6,2.5-3.9.2-.3.2-.6,0-.9-.2-.3-.5-.4-.8-.4h-1.6.2Z"/><path class="cls-31" d="m297.1,109.9c0-.2.2-.2.3-.3.9-.5,1.5-1.5,1.5-2.6v-42.5c0-1.1-.6-2.1-1.6-2.6-.2,0-.3-.1-.3-.3h2.9c1,0,1.9.4,2.4,1.3,0,0,.1.2.2.3.2.5.2,1.1.2,1.7v41.8c0,.6,0,1.1-.2,1.7-.3.5-.7.9-1.2,1.3-.4.2-.8.3-1.3.3h-2.9v-.2Z"/><path class="cls-31" d="m285,64.5c-.1.2-.3,0-.5,0h-2.5c-.7,0-1.4-.3-1.7-.9-.4-.7-.8-1.4-1.3-2h3.4c.5,0,.9.3,1.1.7l.6,1.2c.2.4.5.7.8,1h.1Z"/><path class="cls-7" d="m289.1,62.5h-1.6c-.3,0-.7-.2-.7-.6,0,0,0,0,0-.1,0-.5.2-.9.7-.9h3.5c.4,0,.8.5.7.9,0,.5-.2.6-.7.7-.6,0-1.2,0-1.8,0h-.1Z"/><path class="cls-23" d="m281.4,94.4v-10.5c0-1,.3-1.3,1.3-1.3h.8c.7,0,1-.3,1.1-1v-1.8c0-.8.3-1.2,1.1-1.2h6.7c.5,0,1,.3,1.1.9,0,0,0,.1,0,.2v1.9c0,.5.3,1,.9,1.1,0,0,.1,0,.2,0h1.1c.5,0,1,.3,1.1.9,0,0,0,.1,0,.2v21.4c0,.5-.3,1-.9,1.1,0,0-.1,0-.2,0h-12.9c-1.1,0-1.4-.3-1.4-1.4v-10.4h0Zm12.5,2.7v-10.6c0-.5-.3-.8-.9-.8h-7.9c-.4,0-.8.2-.9.7,0,0,0,.1,0,.2v15.9c0,.4.2.8.7.9,0,0,.1,0,.2,0h7.9c.4,0,.8-.2.9-.7,0,0,0-.1,0-.2v-5.4Z"/><path class="cls-42" d="m289.1,70.2h1.6c.4,0,.7,0,.8.4.1.3.1.6,0,.9-.8,1.3-1.7,2.6-2.5,3.9-.3.5-.8.6-1.3.4-.4-.3-.4-.8,0-1.3.5-.8,1-1.6,1.6-2.4.2-.2.1-.3-.2-.3h-1.4c-.7,0-1.1-.6-.7-1.1.7-1.2,1.5-2.3,2.3-3.5.2-.3.5-.4.8-.2,0,0,.2.1.2.2.3.3.4.7.2,1.1-.3.5-.7,1-1,1.5,0,0-.2.2-.2.5h-.2Z"/><path class="cls-31" d="m290.7,85.6h2.4c.5,0,.9.3.9.7,0,0,0,0,0,0v2.5h-2.5c-.4,0-.5,0-.5.5v3.5h-6.7v-4.1h6.2c.2,0,.5,0,.5-.2,0-1,.3-2.1-.3-3Z"/><path class="cls-29" d="m290.5,103.4h-5.3c-.4,0-.8-.2-.9-.7,0,0,0-.1,0-.2v-3.7h6.7v3.6c0,.4-.1.8-.5,1Z"/><path class="cls-30" d="m284.3,93h6.7v4.1h-6.7v-4.1Z"/><path class="cls-14" d="m290.7,85.6c.6,1,.2,2,.3,3,0,.3-.3.2-.5.2h-6.2v-2.3c0-.4.2-.8.7-.9,0,0,.1,0,.2,0h5.5Z"/><path class="cls-47" d="m290.5,103.4c.4-.2.5-.5.5-1v-3.6h2.9v3.7c0,.5-.3.9-.8.9,0,0,0,0-.1,0h-2.5Z"/><path class="cls-36" d="m291,97.1v-4.1h2.9v4.1h-2.9Z"/><path class="cls-43" d="m294,93h-2.9v-3.5c0-.4.1-.5.5-.5h2.5v4h-.1Z"/><path class="cls-47" d="m284.3,97.1h6.7v1.7h-6.7v-1.7Z"/><path class="cls-39" d="m291,98.8v-1.7h2.9v1.7h-2.9Z"/><path d="m254.2,69.4c2.1.3,3.5,2.3,3.2,4.4l-.3,1.6,3.5.5-.4,2.5-11-1.7.6-4.2c.3-2.1,2.2-3.6,4.3-3.3,0,0,0,0,0,0v.2Zm-.4,2.5c-.7-.2-1.4.3-1.6,1,0,0,0,0,0,.1l-.3,1.6,2.8.4.3-1.6c.1-.7-.4-1.4-1.1-1.5,0,0,0,0-.1,0h0Z"/><path d="m260.6,61.1l4.4,2.1-1,2.1-4.1-2c-.7-.4-1.5-.1-1.9.5,0,0,0,0,0,0-.4.8-.2,1.5.8,2l3.9,1.9-1,2.1-10-4.9,1-2.1,3.5,1.7c-.3-.8-.3-1.7.1-2.5.7-1.5,2.5-2.1,4-1.4,0,0,.2.1.3.2v.2Z"/><path d="m262.3,60.1c-1.7-1.6-1.8-4.2-.2-5.9,1.6-1.7,4.2-1.8,5.9-.2,1.7,1.6,1.8,4.2.2,5.9-1.5,1.7-4.2,1.8-5.8.2,0,0,0,0,0,0Zm4.1-4.4c-.7-.7-1.9-.6-2.5.2-.7.7-.6,1.9.2,2.5.7.6,1.8.6,2.5,0,.7-.7.6-1.8,0-2.5,0,0,0,0,0,0h0Z"/><path d="m275.7,48.3l2.4,4.2-2.1,1.2-2.2-3.9c-.2-.7-1-1-1.6-.7,0,0-.2,0-.3.1-.8.4-1,1.2-.5,2.2l2.1,3.8-2.1,1.2-3.9-6.9,2.1-1.2.4.6c0-.7.6-1.4,1.5-2,1.4-.8,3.1-.5,4.2,1.4Z"/><path d="m282.5,49.5c.6-.1,1.1-.4,1.4-.9l2.1.7c-1.1,2.2-3.8,3-6,1.9-1.1-.6-1.9-1.6-2.2-2.8-.5-2.2.8-4.4,3-4.9,0,0,.2,0,.2,0,2.2-.5,4.3.9,4.8,3,0,0,0,.1,0,.2,0,.3.1.6.1,1l-5.5,1.2c.5.7,1.3,1,2.1.7Zm.8-3.1c-.4-.7-1.1-1.1-1.9-.9-.8.1-1.4.8-1.4,1.6l3.3-.7Z"/><path d="m300.1,48.6c-.4,2.2-2.4,3.6-4.6,3.3-.9-.2-1.7-.7-2.1-1.5l-.2.7-2.3-.5,2.4-10.8,2.3.5-.9,3.8c.7-.5,1.7-.7,2.5-.4,2.1.6,3.4,2.8,2.8,4.9h.1Zm-2.3-.5c.3-.9-.2-1.9-1.2-2.2,0,0-.2,0-.2,0-1-.3-2,.3-2.3,1.3,0,0,0,.1,0,.2-.3.9.2,1.9,1.2,2.2,0,0,.2,0,.2,0,1,.3,2-.3,2.3-1.3,0,0,0-.1,0-.2h0Z"/><path d="m310.8,50.1l-4.1,6.8-2-1.2.4-.6c-.9.3-1.8.1-2.5-.4-1.8-1.4-2.2-4-.8-5.8,1.2-1.6,3.3-2.1,5.1-1.3.8.4,1.3,1.1,1.5,2l.4-.6,2,1.2h0Zm-4.1,2.2c.6-.8.4-1.9-.4-2.5,0,0,0,0-.2,0-.9-.5-2-.2-2.6.6,0,0,0,0,0,0-.5.9-.2,2,.6,2.6.9.5,2,.2,2.6-.7Z"/><path d="m313.6,56l-2,2c-.5.5-.1.9.7,1.6l-1.5,1.5c-2.4-2-2.4-3.3-.8-4.9l2-2-.9-.9,1.6-1.6.9.9,1.1-1.1,2.2,1.2-1.6,1.5,1.1,1.2-1.6,1.6-1.1-1.2v.2Z"/><path d="m317.5,61l-2.3,1.6c-.6.4-.3.9.3,1.7l-1.8,1.2c-2-2.4-1.7-3.7.1-4.9l2.3-1.6-.7-1.1,1.9-1.3.7,1.1,1.3-.8,1.9,1.6-1.8,1.2.9,1.4-1.9,1.3-.9-1.4Z"/><path d="m317.3,69.1c.2.5.6,1,1.1,1.2l-.4,2.2c-1.3-.4-2.3-1.4-2.7-2.7-.9-2.6.2-4.8,2.4-5.6,2.1-.8,4.5.2,5.4,2.4,0,0,0,0,0,.1.8,2.1-.3,4.4-2.4,5.1,0,0-.1,0-.2,0-.3.1-.6.2-.9.2l-1.9-5.3c-.6.6-.8,1.5-.4,2.2h0Zm3.2.4c.7-.4.9-1.3.6-2-.2-.8-1-1.3-1.8-1.2l1.2,3.2Z"/><path d="m325.2,78l-2.7.3c0-1-.5-2.3-2-2.2l-3.6.4-.2-2.4,7.9-.8.2,2.4h-1.4c1,.4,1.7,1.3,1.8,2.4h0Z"/><path d="m324.1,88.1l-7.3-3.7c-2.4-1.2-3.2-2.7-2.8-4.9l2.2.3c-.1,1.1.1,1.7,1,2.1l7.9-2.1-.3,2.6-5,1.1,4.6,2.1-.3,2.5h0Z"/><line class="cls-9" x1="113.1" y1="189.6" x2="145.8" y2="190.1"/><line class="cls-6" x1="113.1" y1="189.6" x2="135.1" y2="189.9"/><polygon class="cls-51" points="132.8 197.3 145.8 190.1 133 182.4 132.8 197.3"/><line class="cls-9" x1="255.1" y1="186.6" x2="287.8" y2="187.1"/><line class="cls-6" x1="265.8" y1="186.7" x2="287.8" y2="187.1"/><polygon class="cls-51" points="267.9 194.2 255.1 186.6 268.1 179.3 267.9 194.2"/><circle class="cls-2" cx="61.7" cy="190" r="45"/><path class="cls-53" d="m87.7,210.3c-.3.9-.7,1.8-1.2,2.6-1.1,1.5-2.8,2.4-4.7,2.4h-5.4c-.9,0-1-.2-1-1.1v-1.7c1.9,0,3.9,0,5.8-.1,1,0,2-.5,2.6-1.3.8-1.3,1.3-2.8,1.2-4.3h2.8v3.5h-.1Z"/><path class="cls-22" d="m87.7,206.8h-2.7v-15.3h2.7v15.3h0Z"/><path class="cls-53" d="m87.7,191.4h-2.7v-2.7c0-1.8-.9-3.5-2.4-4.5-.8-.5-1.6-.9-2.5-1.2,1.8-.2,3.6.1,5.1,1.1,1.3.9,2.1,2.3,2.4,3.8h0c0,.1,0,3.5,0,3.5Z"/><path class="cls-25" d="m37.8,201.6h-4.7c-1.1.1-2.2-.4-2.8-1.4,0,0-.1,0-.2-.1v-1.6h0c.5.8,1.5,1.2,2.4,1.1h5.1c.1.3.1.6,0,.9,0,.3-.2.5,0,.8v.3h.1Z"/><path class="cls-28" d="m50.2,184.6c.7,0,1.3,0,2,0h19.6v23.6c0,.7-.3,1.3-.9,1.6,0-.9-.3-1.2-1.2-1.2h-14.2c-.8,0-1.1.4-1,1.2h-4.4v-25.1h.1Zm12.6,13.7h-6.9c-.9,0-1.4.3-1.3.9s.5.9,1.3.9h14.4c.4,0,.7-.5.7-.9h0c0-.4-.3-.7-.7-.8h-7.5Zm0-8.5h7.1c.7,0,1-.3,1-.8s-.3-.9-1.1-.9h-14.2c-.3,0-.7,0-.9.3-.2.2-.3.6,0,.9.1.4.5.6.9.5h7.3Zm0,5.1h7.2c.3,0,.7-.1.9-.4.1-.3.1-.6,0-.9-.2-.3-.6-.3-1-.3h-14.6c-.4.1-.7.6-.6,1h0c.1.4.5.7,1,.7h7.1Zm0,10.2h7.1c.2,0,.5,0,.7-.1.3-.2.5-.6.4-1,0-.4-.5-.7-.9-.6h-14.4c-.4,0-.8.1-1,.5-.3.7.2,1.2.9,1.2h7.2Z"/><path class="cls-1" d="m80,183c.9.3,1.7.7,2.5,1.2,1.4,1.1,2.3,2.7,2.4,4.5v2.7h-1.9c-.6,0-1.1.5-1.1,1.1,0,0,0,.1,0,.2h0v12.8c0,.6.4,1.2,1,1.3,0,0,0,0,0,0h1.8c0,1.5-.4,3-1.2,4.3-.6.8-1.6,1.2-2.6,1.3-1.9.1-3.9.2-5.8.1v-28.1c0-1.7.3-1.5,1.6-1.5h3.2Z"/><path class="cls-41" d="m75.3,184.4v29.4h-20.4c-.2-.1-.4,0-.6,0h-3.5c-.2,0-.4,0-.5-.2v-3.8h4.3c.2.4.6.7,1.1.6h14.1c.5,0,.9-.2,1.2-.6.6-.3,1-.9.9-1.6v-23.6c1.1-.1,2.3,0,3.5,0v-.2Z"/><path class="cls-1" d="m50.2,184.6v25.2h-1.2c-2.2-.4-4.1-1.7-5.3-3.5-.6-1-1-2.1-1.2-3.2v-9.8c0-.9,0-1.9.3-2.8.8-3.5,3.9-5.9,7.5-5.8h-.1Z"/><path class="cls-32" d="m52.2,176.9h-.8c-.6,0-1.1-.3-1.1-.9v-2.4c0-1,.3-1.3,1.3-1.3h11c.5.5.7,1.2.5,1.9v.9c.2.7,0,1.4-.6,1.8h-10.3Z"/><path class="cls-46" d="m52.2,176.9h12.1v7.6h-2.9v-3c0-.2,0-.4-.2-.5v-.4c.4-.7.2-1-.6-1h-8.4v-2.7Z"/><path class="cls-50" d="m61.2,180.9c.2.1.2.3.2.5v3h-9.2v-5h8.5c.8,0,.9.3.6,1-.3-.7-.7-.8-1.2-.6-.4.2-.6.7-.4,1.1.1.2.3.4.6.5.5.1,1-.1,1.1-.6h-.2Zm-5.1-1.1c-.4,0-.8.4-.9.8,0,.5.4.9.9.9.5,0,.9-.4.9-.9,0-.5-.4-.9-.9-.9h0Z"/><path class="cls-50" d="m42.4,193.2v9.2h-2.2c-.7,0-1.4-.3-1.9-.9,0-.2-.1-.3-.3-.3-.2-.3,0-.5,0-.8,0-.3,0-.6,0-.9v-4.7c0-1,.9-1.7,1.9-1.7h2.6,0Z"/><path class="cls-45" d="m37.8,196.7v2.9h-5.1c-1,0-1.9-.4-2.4-1.2.4-1.1,1.5-1.8,2.7-1.7h4.8Z"/><path class="cls-53" d="m64.3,176.9h-1.8c.5-.5.7-1.1.6-1.8v-.9c.2-.7,0-1.4-.6-1.9h2.7c.5,0,1,.3,1.1.9,0,0,0,0,0,.1v2.4c0,.9-.4,1.3-1.3,1.3h-.7,0Z"/><path class="cls-50" d="m69.8,220.7h1.5c.6.6.9,1.5.7,2.3v.9c0,.4-.2.8-.5,1.1,0,0-.3.1-.3.3-8.5-.2-17,0-25.5,0s-1.7-.6-1.6-1.6v-1.7c0-.7.5-1.3,1.2-1.3,0,0,0,0,0,0h24.5,0Z"/><path class="cls-53" d="m42.4,203c.2,1.1.6,2.2,1.2,3.2,1.2,1.8,3.1,3.1,5.3,3.5h1.2v4.1c-3.7,0-6.8-2.5-7.7-6.1-.1-.9-.2-1.7-.2-2.6v-2.1h.2Z"/><path class="cls-19" d="m50.2,213.8v-.3c0,.3.4.2.6.2h4.1v6.9h-2.1v-4.1c0-.6,0-.8-.8-.8h-1.7v-2h0Z"/><path class="cls-11" d="m69.8,220.7h-2v-4.3c0-.3-.2-.7-.6-.7,0,0,0,0-.1,0h-1.9v-2c.8,0,1.5,0,2.3,0h2.3v7Z"/><path class="cls-22" d="m71.2,225.4c0-.2.2-.2.3-.3.3-.3.5-.7.5-1.1v-.9c.2-.8,0-1.7-.7-2.3h3.2c.8,0,1.4.5,1.5,1.3v1.8c.1.8-.4,1.5-1.2,1.7h-3.6v-.2Z"/><path class="cls-22" d="m42.4,203v2.1h-2.5c-1.1,0-2.1-.8-2.2-1.9v-1.5c0,0,0-.2,0-.3s.2.2.3.3c.5.6,1.2.9,1.9.9h2.2v.5h.2Z"/><path class="cls-1" d="m50.3,215.7h1.7c.6,0,.8.2.8.8,0,1.4,0,2.8,0,4.2h-2.4v-5h-.1Z"/><path class="cls-50" d="m84.9,206.8h-1.6c-.6,0-1.2-.4-1.3-1,0,0,0,0,0,0v-13c0-.6.4-1.2,1-1.3,0,0,0,0,0,0h1.9v15.3h-.1Z"/><path class="cls-24" d="m71,209.7c-.2.4-.7.6-1.1.6h-14.1c-.5,0-.9-.2-1.1-.6,0-.8.2-1.2,1-1.2h14.1c.9,0,1.2.3,1.2,1.2Z"/><path class="cls-24" d="m62.8,198.2h7.4c.4,0,.7.4.8.8,0,.4-.3.8-.7.9h-14.4c-.8,0-1.3-.3-1.3-.9s.4-.9,1.3-.9h6.9Z"/><path class="cls-11" d="m62.8,189.7h-7.2c-.4,0-.7-.2-.9-.5,0-.3,0-.6,0-.9.2-.3.6-.4.9-.3h14.2c.7,0,1.1.3,1.1.9s-.3.8-1,.8h-7.2Z"/><path class="cls-11" d="m62.8,194.9h-7.1c-.5,0-.9-.3-1-.7-.1-.4.1-.9.6-1,0,0,0,0,0,0h14.6c.4,0,.7,0,1,.3.2.3.2.6,0,.9-.2.3-.5.5-.9.5h-7.2Z"/><path class="cls-11" d="m62.8,205.1h-7.2c-.8,0-1.2-.6-.9-1.2.2-.4.6-.6,1-.5h14.4c.4,0,.8.2,1,.6.1.4,0,.8-.4,1-.2,0-.5.1-.7.1h-7.2Z"/><path class="cls-24" d="m61.2,180.9c-.1.5-.6.7-1,.6,0,0,0,0,0,0-.4,0-.7-.5-.6-1,0,0,0,0,0,0,0-.3.2-.5.5-.6.5-.2.9,0,1.2.6v.4Z"/><path class="cls-24" d="m56.1,179.8c.5,0,.9.4.9.9,0,.5-.4.9-.9.9h0c-.5,0-.9-.4-.9-.9,0-.5.4-.8.8-.8,0,0,0,0,0,0h0Z"/><path class="cls-32" d="m65.3,220.7v-4.9h1.9c.5,0,.7.2.7.7v4.3h-2.6Z"/><path d="m21.3,188.2l.4-2.4,7.5-1-6.8-3.3.4-2.4,9.2,4.8-.5,2.8-10.2,1.6h0Z"/><path d="m24.4,177.9c-.6-.3-.9-1-.7-1.6.3-.6,1-.9,1.6-.7.6.2.9,1,.7,1.6-.2.6-.9.9-1.6.7,0,0,0,0,0,0Zm1.8.5l.7-2,6.6,2.4-.7,2-6.6-2.4Z"/><path d="m34.7,169.4c1.7.9,2.4,3,1.5,4.7,0,0,0,0,0,.1-.4.7-1,1.2-1.8,1.3l.6.3-1.1,1.8-8.4-5.1,1.1-1.8,3,1.8c-.2-.7,0-1.5.3-2.2,1.1-1.6,3.3-2.1,4.9-1h0Zm-1.1,1.8c-.7-.5-1.7-.3-2.3.4,0,0,0,0,0,0-.5.7-.3,1.7.4,2.2,0,0,.1,0,.2.1.7.5,1.7.3,2.3-.4,0,0,0,0,0,0,.5-.7.3-1.7-.4-2.2,0,0-.1,0-.2-.1Z"/><path d="m36,162.9l1.7,1.6c-.8.5-1,1.5-.6,2.2,0,.1.2.3.3.4l2.3,2.2-1.4,1.5-5.1-4.8,1.4-1.5.9.9c-.4-.8-.3-1.8.4-2.5h0Z"/><path d="m43.2,157.6l4,5.7-1.7,1.2-.4-.5c0,.8-.5,1.5-1.2,1.9-1.6,1.1-3.8.6-4.9-1,0,0,0,0,0,0-1.2-1.5-1-3.7.5-4.8,0,0,0,0,0,0,.6-.5,1.4-.7,2.2-.5l-.4-.5,1.7-1.2h0Zm.3,4.1c-.4-.7-1.3-1-2-.6-.1,0-.2.1-.3.2-.8.5-1,1.5-.5,2.3,0,0,0,0,0,.1.4.7,1.3,1,2,.6.1,0,.2-.1.3-.2.8-.5,1-1.5.5-2.3,0,0,0,0,0-.1Z"/><path d="m48.7,157.4l1,2.3c.2.6.7.4,1.6,0l.7,1.8c-2.4,1.3-3.5.9-4.2-.9l-1-2.3-1,.4-.8-1.9,1-.4-.5-1.2,1.7-1.4.8,1.8,1.3-.6.8,1.9-1.3.6h0Z"/><path d="m50.3,152.7c-.2-.7.2-1.3.9-1.5.7-.2,1.3.2,1.5.9.2.7-.2,1.3-.9,1.5,0,0,0,0,0,0-.6.2-1.3-.1-1.5-.7,0,0,0-.1,0-.2Zm.7,1.8l2-.5,1.8,6.8-2,.5-1.8-6.8Z"/><path d="m55.3,156.8c-.2-2,1.4-3.8,3.4-4,0,0,0,0,0,0,2-.2,3.8,1.3,4,3.3,0,0,0,0,0,.1.2,2-1.4,3.8-3.4,4,0,0,0,0,0,0-2,.2-3.8-1.3-4-3.3,0,0,0,0,0-.1Zm5.3-.4c0-.8-.6-1.5-1.4-1.5,0,0-.2,0-.3,0-.9,0-1.5.7-1.5,1.6,0,0,0,.1,0,.2,0,.8.6,1.5,1.4,1.5,0,0,.2,0,.3,0,.9,0,1.5-.7,1.5-1.6,0,0,0-.1,0-.2Z"/><path d="m71,156.7l-.7,4.2-2.1-.4.7-3.9c.2-.7-.2-1.3-.9-1.5,0,0,0,0-.1,0-.6-.2-1.3.2-1.5.8,0,.1,0,.2,0,.4l-.6,3.8-2.1-.4,1.2-6.9,2.1.4v.6c.5-.5,1.3-.7,2-.5,1.4.2,2.4,1.4,2.1,3.3h0Z"/><path d="m73.2,156.5l4.9,2.1-.8,1.9-4.9-2.1.8-1.9Z"/><path d="m87.9,167l-2.7,3.3-1.6-1.3,2.6-3.2c.4-.5.5-1.1,0-1.5-.5-.4-1.3-.3-1.7.2,0,0,0,0,0,0l-2.5,3-1.6-1.3,2.6-3.2c.4-.5.5-1.1,0-1.5-.5-.4-1.3-.3-1.7.2,0,0,0,0,0,0l-2.5,3-1.6-1.3,4.5-5.4,1.6,1.3-.4.5c1.3-.2,2.6.7,2.8,2,0,.2,0,.3,0,.5.8-.2,1.6,0,2.2.6,1.1.9,1.3,2.6.4,3.7,0,0-.1.1-.2.2h-.2Z"/><path d="m88.2,168.9c1.7-1.1,4-.6,5.1,1.1s.6,4-1.1,5.1c-1.7,1.1-4,.6-5.1-1.1h0c-1.1-1.7-.6-4,1.1-5.1Zm2.9,4.5c.7-.4,1-1.4.6-2.1,0,0,0,0,0,0-.5-.8-1.5-1-2.2-.5,0,0,0,0,0,0-.7.4-1,1.4-.6,2.1,0,0,0,0,0,0,.5.8,1.5,1,2.2.5,0,0,0,0,0,0Z"/><path d="m94.9,178.3l-2.3.9c-.6.2-.4.7,0,1.6l-1.8.7c-1.2-2.5-.8-3.5,1.1-4.2l2.3-.9-.4-1,1.9-.7.4,1,1.2-.5,1.3,1.7-1.8.7.5,1.3-1.9.7-.5-1.3Z"/><path d="m94.5,181.1c2-.4,3.8.9,4.2,2.9,0,0,0,.1,0,.2.3,2-1,3.9-3,4.3-2,.4-3.8-.9-4.2-2.9,0,0,0-.1,0-.2-.3-2,1-3.9,3-4.3Zm.9,5.2c.9-.1,1.5-1,1.4-1.9,0-.8-.8-1.4-1.7-1.3,0,0-.2,0-.2,0-.9.1-1.5,1-1.4,1.9,0,.8.8,1.4,1.7,1.3,0,0,.2,0,.2,0Z"/><path d="m99,194.2h-2.4c.2-1,0-2.2-1.5-2.3h-3.2v-2.2l7,.3v2.1h-1.3c.9.4,1.4,1.3,1.3,2.2h0Z"/><circle class="cls-3" cx="338.3" cy="190" r="45"/><path class="cls-44" d="m350.7,174.5c.9.2,1.7.6,2.5,1.1,1.4,1,2.2,2.6,2.2,4.3v40.4c0,2.5-1.5,4.8-3.9,5.5-.4.1-.8.2-1.2.3h-12.6v-3h11.9c.5,0,1.1,0,1.5-.4.8-.5,1.3-1.4,1.2-2.4v-40.3c0-1.2-.8-2.2-2-2.4-.6,0-1.2,0-1.8,0-.5,0-.8.1-.9.6-.4,1.4-.9,2.8-1.4,4.2-.3.7-.7,1.2-1.4,1.2h-7.1v-9.1h13Z"/><path class="cls-34" d="m337.7,223v3h-12.5c-3-.1-5.3-2.6-5.2-5.6v-40.1c-.1-2.3,1.2-4.5,3.4-5.4.4-.2.9-.3,1.3-.5h13v9.1h-6.8c-.8.1-1.5-.4-1.7-1.2-.5-1.5-1-2.9-1.5-4.4,0-.3-.2-.4-.6-.4h-1.2c-1.4-.2-2.7.8-2.9,2.2,0,.2,0,.4,0,.7v39.8c-.2,1.4.8,2.6,2.2,2.8.2,0,.4,0,.6,0h11.9Z"/><path class="cls-40" d="m337.7,183.5h7.1c.7,0,1.1-.4,1.4-1.2.5-1.4,1-2.8,1.4-4.2.2-.5.4-.7.9-.6h1.8c1.1.3,2,1.2,2,2.4v40.3c0,1-.4,1.9-1.2,2.4-.5.3-1,.4-1.5.4h-11.9v-39.5Zm9,8.8c0,.3,0,.7.2,1,.1.8.9,1.4,1.7,1.3,0,0,.1,0,.2,0,.8-.2,1.3-1,1.1-1.8,0,0,0,0,0-.1-.3-1.6-.6-3.2-1-4.7-.2-.8-.9-1.3-1.7-1.1,0,0,0,0,0,0l-4.6.9c-.9.2-1.5.9-1.4,1.8.2.9,1,1.4,1.9,1.2,0,0,0,0,.1,0,.3,0,.7,0,1-.2-.1.2-.3.4-.4.6-1.5,2.4-3.1,4.7-4.6,7.1-.3.4-.4.9-.3,1.4.1.6.6,1,1.2,1.1.6.1,1.3-.1,1.6-.7,1.2-1.9,2.5-3.8,3.7-5.6.5-.7.9-1.4,1.5-2.3h0Z"/><path class="cls-10" d="m337.7,183.6v39.4h-11.9c-1.4.2-2.6-.8-2.8-2.2,0-.2,0-.4,0-.6v-39.8c-.2-1.4.8-2.7,2.2-2.9.2,0,.4,0,.7,0h1.2c.3,0,.5.1.6.4.5,1.5,1,2.9,1.5,4.4.2.8.9,1.3,1.7,1.2h6.8Zm-9,30.5c0-.3,0-.7-.2-1-.2-.9-1-1.4-1.9-1.3-.8.2-1.3.9-1.1,1.7,0,0,0,0,0,0,.3,1.6.6,3.2,1,4.8.2.8,1,1.3,1.8,1.1,0,0,0,0,0,0,1.5-.3,3.1-.6,4.6-1,.3,0,.5-.1.7-.3.6-.4.8-1.2.5-1.8-.3-.7-1.1-1.1-1.8-.9-.3,0-.6.2-1,.2.6-1,1.3-1.9,1.9-2.9,1.1-1.6,2.2-3.3,3.2-4.9.4-.5.4-1.2,0-1.7-.3-.5-.9-.8-1.5-.7-.5,0-.9.4-1.2.8-1.6,2.4-3.1,4.8-4.7,7.2,0,.2-.2.4-.4.5h0Z"/><path class="cls-44" d="m346.7,192.4c-.6.8-1,1.5-1.5,2.3-1.2,1.9-2.5,3.8-3.7,5.6-.3.6-1,.8-1.6.7-.6,0-1.1-.5-1.2-1.1,0-.5,0-1,.3-1.4,1.6-2.4,3.1-4.7,4.6-7.1,0-.2.2-.4.4-.6-.3,0-.7,0-1,.2-.8.2-1.7-.2-2-1.1,0,0,0,0,0-.1-.1-.9.4-1.7,1.3-1.8,0,0,0,0,.1,0,1.5-.3,3-.6,4.6-.9.8-.2,1.6.3,1.8,1.1h0c.4,1.6.7,3.1,1,4.7.2.8-.3,1.7-1.1,1.9,0,0,0,0,0,0-.9.2-1.7-.4-1.9-1.2,0,0,0,0,0,0,0-.3,0-.7-.2-1h0Z"/><path class="cls-27" d="m328.7,214.1c.2-.1.3-.3.4-.5,1.6-2.4,3.1-4.8,4.7-7.2.3-.4.7-.7,1.2-.8.6,0,1.1.2,1.5.7.3.5.3,1.2,0,1.7-1.1,1.6-2.2,3.3-3.2,4.9-.6.9-1.2,1.9-1.9,2.9.3,0,.7,0,1-.2.7-.2,1.5.2,1.8.9.2.6,0,1.4-.5,1.8-.2.2-.5.2-.7.3-1.5.3-3,.6-4.6,1-.8.2-1.6-.3-1.8-1.1h0c-.4-1.6-.7-3.2-1-4.8-.2-.7.2-1.5.9-1.8,0,0,.1,0,.2,0,.9-.2,1.7.4,1.9,1.2,0,0,0,0,0,0,0,.3,0,.7.2,1h0Z"/><path d="m307.4,182.8l-.8,3.8,1.5.9-.5,2.6-9.5-5.7.6-3,11-1.3-.5,2.6-1.7.2h-.1Zm-2.4.2l-4,.4,3.5,2,.5-2.4Z"/><path d="m304.3,168.4l9.2,5-1.1,2-.6-.3c.3.8.2,1.7-.3,2.4-1.1,1.8-3.4,2.3-5.1,1.2,0,0,0,0,0,0-1.8-.8-2.6-3-1.8-4.8,0,0,0-.1,0-.2.3-.8,1.1-1.4,1.9-1.5l-3.2-1.8,1.1-2h0Zm4.8,5.2c-.8-.5-1.9-.2-2.5.6,0,0,0,0,0,0-.5.8-.2,1.8.6,2.3,0,0,0,0,.1,0,.8.5,1.9.2,2.5-.6,0,0,0,0,0,0,.5-.8.2-1.8-.6-2.3,0,0,0,0-.1,0h0Z"/><path d="m313.8,162.3l3.5,7.2-1.8,1.8-7.3-3.2,1.7-1.8,4.5,2.2-2.3-4.4,1.7-1.8Z"/><path d="m321.8,157.1l3.9,6.4-1.9,1.2-.4-.6c-.2.8-.7,1.5-1.4,1.9-1.8,1-4.1.3-5.1-1.5,0,0,0,0,0,0-1.2-1.6-.8-3.9.9-5.1,0,0,0,0,.1,0,.7-.5,1.6-.6,2.4-.4l-.4-.6,1.9-1.2Zm0,4.4c-.4-.8-1.4-1.2-2.2-.8-.1,0-.2.1-.3.2-.8.4-1.2,1.4-.7,2.3,0,0,0,.2.1.2.4.8,1.4,1.2,2.2.8.1,0,.2-.1.3-.2.8-.4,1.2-1.5.7-2.3,0,0,0-.1-.1-.2h0Z"/><path d="m332.3,156.8l1.2,4.4-2.2.6-1.2-4.1c-.3-.9-.9-1.2-1.6-1s-1.2.8-.9,1.9l1.1,3.9-2.2.6-2-7.2,2.2-.6.2.7c.4-.7,1-1.3,1.8-1.5,1.5-.4,3,.4,3.4,1.9,0,.1,0,.2,0,.3h0Z"/><path d="m334.1,157.4c0-2.1,1.6-3.9,3.7-4,0,0,.1,0,.2,0,1.4,0,2.7.7,3.4,1.9l-1.9,1.2c-.5-.8-1.6-1-2.4-.5-.5.3-.8.9-.8,1.5,0,.9.7,1.7,1.7,1.7,0,0,0,0,0,0,.6,0,1.2-.3,1.4-.9l2,1.1c-.6,1.2-1.9,2-3.3,2-2.2,0-4-1.7-4.1-3.9,0,0,0,0,0,0h.1Z"/><path d="m345.8,160.1c.5.1,1,0,1.5-.2l1.5,1.4c-1,.8-2.3,1.1-3.5.8-2.2-.2-3.8-2.2-3.6-4.4s2.2-3.8,4.4-3.6c.3,0,.5,0,.8.2,2,.5,3.3,2.5,2.8,4.6,0,0,0,0,0,.1,0,.3-.2.6-.3.9l-5.2-1.2c.1.8.7,1.2,1.5,1.4h0Zm2-2.4c0-.8-.5-1.4-1.3-1.5-.7-.3-1.6,0-1.9.8l3.1.7h0Z"/><path d="m361.1,157.3l-5,9.2-2-1.1.3-.6c-.8.3-1.7.2-2.4-.3-1.8-1.1-2.3-3.4-1.3-5.2.9-1.9,3.1-2.7,5-1.8,0,0,0,0,0,0,.8.3,1.4,1.1,1.5,1.9l1.8-3.3,2,1.1h0Zm-5.2,4.9c.5-.8.2-1.9-.6-2.5,0,0,0,0,0,0-.8-.5-1.8-.2-2.3.6,0,0,0,.1-.1.2-.5.8-.2,1.9.6,2.5,0,0,0,0,0,0,.8.5,1.8.2,2.3-.6,0,0,0-.1.1-.2h0Z"/><path d="m372.5,168.8l-8.2,6.6-1.4-1.8.5-.4c-.9,0-1.6-.5-2.1-1.2-1.2-1.7-.8-4,.8-5.3,1.5-1.4,3.9-1.2,5.3.3.5.6.8,1.5.7,2.3l2.9-2.3,1.4,1.8h.1Zm-6.7,2.5c.8-.5,1-1.5.5-2.2,0,0-.1-.2-.2-.3-.6-.7-1.6-.9-2.4-.3,0,0-.1,0-.1.1-.8.5-1,1.5-.5,2.2,0,0,.1.2.2.3.6.7,1.6.9,2.3.3,0,0,.1,0,.2-.1Z"/><path d="m371.4,173l1,2-6.7,3.4-1-2,6.7-3.4Zm1.7-1.1c.7-.3,1.5,0,1.8.6.3.7,0,1.5-.6,1.8-.7.3-1.4,0-1.8-.6-.3-.7,0-1.4.6-1.8h0Z"/><path d="m370.3,184.4c-1.6.5-2.8-.7-3.3-2.2-.6-1.2-.3-2.7.7-3.6l1.7,1.5c-.5.3-.7,1-.4,1.5.2.5.4.7.7.6.8-.3-.8-3.6,1.7-4.4,1.3-.4,2.7.4,3.1,1.7,0,0,0,.2,0,.3.4,1.1.2,2.4-.6,3.3l-1.6-1.5c.4-.3.5-.8.3-1.2-.1-.4-.3-.6-.6-.5-.8.3.9,3.6-1.8,4.5h0Z"/><path d="m372.7,193.4c-2.1.2-3.9-1.2-4.2-3.3,0-.8.2-1.7.8-2.3l-3.7.2v-2.2l10.3-.7v2.2h-.6c.7.6,1.1,1.3,1.1,2.2,0,2-1.6,3.7-3.6,3.8,0,0,0,0,0,0h0Zm-.1-2.2c.9,0,1.7-.7,1.7-1.6,0,0,0-.2,0-.3,0-1-.8-1.7-1.8-1.7,0,0,0,0-.1,0-.9,0-1.7.7-1.7,1.6,0,0,0,.2,0,.3,0,1,.8,1.7,1.8,1.7,0,0,0,0,0,0h0Z"/><path d="m379.4,195.9l-.3,2.2-10.8-1.5.3-2.2,10.9,1.5h0Z"/><path d="m372.7,207.6l-7.1-2.5.7-2.1.7.2c-.4-.7-.5-1.6-.1-2.4.8-1.9,3-2.9,4.9-2.1,2,.5,3.1,2.6,2.5,4.5,0,0,0,.1,0,.2-.2.8-.8,1.5-1.6,1.8l.7.2-.7,2.1h0Zm-2.8-3.4c.8.4,1.8,0,2.2-.8,0,0,0-.2.1-.3.4-.9,0-1.9-.9-2.2,0,0-.1,0-.2,0-.8-.4-1.8,0-2.2.8,0,0,0,.2-.1.3-.4.9,0,1.9.9,2.2,0,0,.1,0,.2,0Z"/><path d="m367.3,216.1l-4.5-6.2c-1.5-2-1.5-3.7-.2-5.3l1.7,1.2c-.6.6-.6,1.7,0,2.3l7.6,1.6-1.4,2-4.7-1.2,3,3.8-1.4,2v-.2Z"/><circle class="cls-4" cx="200" cy="190" r="45"/><path class="cls-17" d="m200,174.6h11c2,.1,3.6,1.6,3.9,3.6v41.3c.1,2.1-1.2,3.9-3.2,4.5-.2,0-.4,0-.5.2h-11.3v-2.9h10.2c1.3,0,1.8-.5,1.8-1.8v-40.2c0-1.3-.5-1.8-1.8-1.8h-10.2v-2.9h.1Z"/><path class="cls-20" d="m200,174.6v2.9h-10.6c-.4,0-.7.2-1,.4-.4.4-.5.9-.5,1.4v40.4c0,.8.6,1.5,1.4,1.5,0,0,.1,0,.2,0h10.5v2.9h-11.4c0-.1-.2-.1-.3-.2-1.9-.5-3.2-2.2-3.3-4.1v-40.5c-.1-2,1.1-3.8,2.9-4.5.4-.1.8-.2,1.2-.2h10.9Z"/><path class="cls-15" d="m200,177.5h10.2c1.3,0,1.8.5,1.8,1.8v40.1c0,1.3-.5,1.8-1.8,1.8h-10.2v-3.1h4.1c.8,0,1.4-.6,1.4-1.3,0,0,0,0,0,0,0-.8-.6-1.5-1.4-1.5,0,0-.1,0-.2,0h-3.9v-7.8c.8,0,1.4-.6,1.4-1.3,0,0,0-.2,0-.3v-12.9c0-.8-.5-1.5-1.2-1.6,0,0-.1,0-.2,0v-8.1h1.9c.8,0,1.5-.6,1.6-1.4,0-.9-.7-1.5-1.6-1.5h-1.9v-2.8h0Zm4.2,21.8v2.7c0,.8.5,1.4,1.3,1.5,0,0,0,0,.1,0,.8,0,1.5-.6,1.5-1.4,0,0,0,0,0,0h0v-5.4c0-.8-.6-1.4-1.4-1.4,0,0,0,0-.1,0h0c-.8,0-1.4.7-1.4,1.6,0,0,0,0,0,0v2.6h0v-.2Z"/><path class="cls-12" d="m200,177.5v2.8h-2c-.8,0-1.5.7-1.5,1.5,0,.8.7,1.4,1.5,1.4,0,0,0,0,0,0h1.9v8.1h0c-.7,0-1.4.5-1.4,1.3,0,0,0,.2,0,.2v13.1c0,.8.6,1.5,1.4,1.5,0,0,0,0,0,0h0v7.8h-3.9c-.8,0-1.5.6-1.6,1.4,0,0,0,0,0,.1,0,.8.7,1.4,1.6,1.4,0,0,0,0,0,0h3.9v3.1h-10.5c-.9,0-1.6-.6-1.6-1.5v-40.4c0-.5.1-1,.5-1.4.3-.3.6-.4,1-.4h10.7Zm-4.2,21.9v-2.8c0-.2,0-.5-.2-.6-.3-.5-.9-.8-1.5-.7-.7.1-1.3.8-1.2,1.5v5.3c0,.8.7,1.5,1.5,1.5.9,0,1.4-.6,1.4-1.6v-2.6Z"/><path class="cls-13" d="m200,191.3c1,0,1.4.6,1.4,1.6v12.9c.1.7-.4,1.5-1.1,1.6,0,0-.2,0-.3,0h0v-16.1Z"/><path class="cls-38" d="m204.2,199.3v-2.6c0-.8.6-1.5,1.4-1.6.8,0,1.5.6,1.5,1.4,0,0,0,0,0,0h0v5.4c0,.8-.7,1.4-1.5,1.4,0,0,0,0,0,0h0c-.8,0-1.4-.7-1.4-1.5,0,0,0,0,0,0v-2.7h0v.2Z"/><path class="cls-52" d="m200,215.2h3.9c.8,0,1.5.5,1.6,1.3,0,0,0,.1,0,.2,0,.8-.6,1.4-1.3,1.4,0,0,0,0,0,0h-4.1v-2.9Z"/><path class="cls-52" d="m200,180.3h1.9c.8,0,1.5.7,1.6,1.5,0,.8-.8,1.4-1.6,1.4h-1.9v-2.9Z"/><path class="cls-37" d="m200,191.3v16.1c-.7,0-1.4-.5-1.4-1.3,0,0,0-.2,0-.2v-13.1c0-.8.5-1.4,1.3-1.5,0,0,0,0,.1,0Z"/><path class="cls-49" d="m195.7,199.4v2.6c0,.8-.5,1.5-1.4,1.6,0,0,0,0,0,0-.8,0-1.5-.7-1.5-1.5v-5.3c0-.7.5-1.4,1.2-1.5.6,0,1.2.2,1.5.7.1.2.2.4.2.6v2.8Z"/><path class="cls-21" d="m200,215.2v2.9h-3.9c-.8,0-1.5-.5-1.6-1.4,0,0,0,0,0,0,0-.8.8-1.5,1.6-1.5h3.9Z"/><path class="cls-21" d="m200,180.3v2.9h-1.9c-.8,0-1.4-.5-1.5-1.3,0,0,0,0,0-.1,0-.8.7-1.5,1.5-1.5h1.9Z"/><path d="m167,174.7c1.9.8,2.7,2.9,2,4.8l-.6,1.5,3.1,1.2-.9,2.2-9.7-3.9,1.5-3.7c.7-1.9,2.8-2.8,4.7-2.1h-.1Zm-.9,2.2c-.6-.3-1.3,0-1.6.5,0,0,0,.1,0,.2l-.6,1.5,2.5,1,.6-1.5c.3-.6,0-1.3-.6-1.6,0,0-.1,0-.2,0Z"/><path d="m174.4,168.4l3.7,2.8-1.4,1.8-3.4-2.6c-.5-.5-1.3-.5-1.7,0,0,0-.1.1-.2.2-.5.5-.5,1.3,0,1.8.1,0,.2.2.3.2l3.3,2.5-1.4,1.8-8.3-6.4,1.4-1.8,2.9,2.2c-.2-.8,0-1.7.6-2.3.9-1.2,2.7-1.5,3.9-.6.1,0,.2.2.3.3h-.1Z"/><path d="m176.1,167.8c-1.3-1.7-1-4.2.7-5.5,0,0,0,0,.1-.1,1.8-1.3,4.2-1,5.6.7,1.3,1.7,1,4.2-.7,5.5,0,0,0,0-.1.1-1.8,1.3-4.2,1-5.6-.7Zm4.5-3.5c-.5-.8-1.5-1-2.3-.5,0,0,0,0,0,0-.7.6-.9,1.7-.3,2.5.5.8,1.5,1,2.3.5,0,0,0,0,0,0,.8-.6.9-1.7.3-2.5,0,0,0,0,0,0Z"/><path d="m190.2,158.8l1.7,4.3-2.1.8-1.6-4c-.2-.7-.9-1-1.6-.8,0,0,0,0,0,0-.8.3-1.1,1-.7,2l1.5,3.8-2.1.8-2.8-7,2.1-.8.3.7c.2-.8.8-1.4,1.6-1.7,1.4-.6,3,0,3.8,1.8h0Z"/><path d="m196.4,160.6c.5,0,1-.3,1.4-.7l1.9.8c-.6,1.2-1.8,1.9-3.1,1.9-2.1.4-4.2-1-4.6-3.1,0,0,0-.2,0-.3-.3-2.1,1.1-4.2,3.3-4.5,2.1-.3,4.2,1.1,4.5,3.3,0,.1,0,.2,0,.4v.9l-5.3.6c.4.7,1.2,1,1.9.8Zm1-2.9c-.2-.7-1-1.1-1.7-1-.8,0-1.4.6-1.5,1.4l3.2-.4Z"/><path d="m201.6,156.5l5.7.7-.3,2.1-5.7-.7.3-2.1Z"/><path d="m216.6,162.4c-.6,1.9-2.7,3-4.6,2.4,0,0-.1,0-.2,0-.8-.3-1.4-.9-1.7-1.7l-.3.7-2.1-.8,3.9-9.8,2.1.8-1.4,3.4c.8-.4,1.6-.4,2.4,0,1.9.9,2.7,3.1,1.9,5h0Zm-2.1-.8c.4-.9,0-1.9-.9-2.3,0,0,0,0-.1,0-.8-.4-1.8,0-2.2.8,0,0,0,.1,0,.2-.4.9,0,1.9.9,2.3,0,0,0,0,.1,0,.8.4,1.8,0,2.2-.8,0,0,0-.1,0-.2h0Z"/><path d="m217.6,163.1c1.4-1.7,3.9-2.1,5.6-.7,1.7,1.4,2.1,3.9.7,5.6-1.4,1.7-3.9,2.1-5.6.7,0,0,0,0,0,0-1.7-1.4-2-3.9-.7-5.6Zm4.5,3.5c.6-.7.6-1.8-.1-2.4,0,0-.1,0-.2-.1-.7-.6-1.7-.5-2.3.2,0,0,0,0,0,.1-.6.7-.6,1.8.1,2.4,0,0,.1,0,.2.1.7.6,1.7.5,2.3-.2,0,0,0,0,0-.1Z"/><path d="m235.1,171.3l-8.4,6.2-1.3-1.8.6-.4c-.9,0-1.7-.5-2.1-1.3-1.1-1.7-.7-4,1-5.1,0,0,0,0,0,0,1.6-1.3,4-1.1,5.3.5h0c.6.6.8,1.5.6,2.3l3-2.2,1.3,1.8h-.1Zm-6.8,2.2c.8-.5,1-1.6.5-2.4,0,0,0,0,0-.1-.5-.8-1.6-1-2.3-.4,0,0-.1,0-.2.1-.8.5-1,1.6-.5,2.4,0,0,0,0,0,.1.5.8,1.6,1,2.3.4,0,0,.1,0,.2-.1Z"/><path d="m236.6,182.4l-7.7.3c-2.5,0-3.9-.8-4.6-2.8l2-.8c.2.8,1,1.4,1.8,1.3l5.6-5.4.9,2.3-3.7,3.2,4.8-.4.9,2.2h0Z"/><path d="m232.3,192.8v-1c-.1,0-1.8.2-1.8.2l-.3-2.4,1.7-.2-.6-4.7,2.2-.3,7,2.5.3,2.6-7-2.5.3,2.2,2.2-.3.3,2.4-2.2.3v1c.1,0-2.1.3-2.1.3h0Z"/><path d="m210.2,200.6v6h-2.6v4h-6.6v-4h-11.4v-6.1l7.7-15.8h7.3l-7.8,15.9h4.1v-4.7h6.6v4.7h2.7,0Z"/></svg>