<?xml version="1.0" encoding="UTF-8"?><svg id="Layer_1" xmlns="http://www.w3.org/2000/svg" xmlns:xlink="http://www.w3.org/1999/xlink" viewBox="0 0 400 400"><defs><style>.cls-1{fill:#375e7d;}.cls-2{fill:#a7cefe;}.cls-3{stroke:#a5262d;}.cls-3,.cls-4,.cls-5,.cls-6{stroke-width:4px;}.cls-3,.cls-4,.cls-5,.cls-6,.cls-7{stroke-miterlimit:10;}.cls-3,.cls-4,.cls-5,.cls-6,.cls-7,.cls-8{fill:none;}.cls-9{fill:#7da1b1;}.cls-10{fill:#8fbac5;}.cls-11{fill:url(#linear-gradient-2);}.cls-12{fill:#fff;}.cls-4{stroke:#0018c6;}.cls-13{fill:#d1d1d1;}.cls-14{fill:#d2d5d7;}.cls-15{fill:#2b4d66;}.cls-16{fill:#445367;}.cls-17{fill:#8ac5cd;}.cls-18{fill:#fdc00f;}.cls-5{stroke:#c000e2;}.cls-19{fill:#f1f6f6;}.cls-20{fill:#455368;}.cls-21{fill:#2b4e68;}.cls-22{fill:#d0cde6;}.cls-23{fill:#02f1a6;}.cls-24{fill:#2b506b;}.cls-6{stroke:#00b51e;}.cls-25{fill:#717f8f;}.cls-26{fill:#333;}.cls-27{fill:#e5e4ec;}.cls-7{stroke:#231f20;stroke-width:2px;}.cls-28{fill:#3b566a;}.cls-29{fill:#22a5fc;}.cls-30{fill:#b2d3d9;}.cls-31{fill:#fde077;}.cls-32{fill:#fee077;}.cls-33{fill:#ddebf0;}.cls-34{fill:#199dbc;}.cls-35{fill:#16c5d5;}.cls-36{fill:#395f7e;}.cls-37{fill:#fed05b;}.cls-38{fill:#d1d5d6;}.cls-39{fill:#b3d4da;}.cls-40{fill:#728090;}.cls-41{fill:#fec345;}.cls-42{fill:#637889;}.cls-43{fill:#073856;}.cls-44{fill:#0693fb;}.cls-45{fill:#b6d6fd;}.cls-46{fill:#fee078;}.cls-47{fill:#cee5ec;}.cls-48{fill:#88c4cc;}.cls-49{fill:#445368;}.cls-50{fill:#f8f6f7;}.cls-51{fill:#2f4859;}.cls-52{fill:#d0cde7;}.cls-53{fill:#fdd15b;}.cls-54{fill:url(#linear-gradient);}.cls-55{fill:#304959;}.cls-56{fill:#6ab579;}.cls-57{fill:#3f4a5b;}.cls-58{fill:#dcd9ea;}.cls-59{fill:#231f20;}.cls-60{fill:#2c4d66;}</style><linearGradient id="linear-gradient" x1="-401.6" y1="303.2" x2="-400.1" y2="291.6" gradientTransform="translate(426.4 -73) rotate(-27.3)" gradientUnits="userSpaceOnUse"><stop offset="0" stop-color="#d53f26"/><stop offset="1" stop-color="#a4252c"/></linearGradient><linearGradient id="linear-gradient-2" x1="-676.7" y1="161.4" x2="-675.2" y2="149.8" gradientTransform="translate(-333.3 -75.2) rotate(-152.4) scale(1 -1)" xlink:href="#linear-gradient"/></defs><path d="m48.7,68.8c-.7.3-1.4,0-1.7-.7s0-1.4.7-1.7c.7-.3,1.4,0,1.7.7h0c.3.6,0,1.4-.7,1.7,0,0,0,0,0,0Zm1.6-.9l-.8-1.9,6.4-2.7.8,1.9-6.4,2.7Z"/><path d="m52.3,57.4c1.6-.4,2.6.8,2.9,2.3.4,1.2,0,2.5-.9,3.3l-1.4-1.5c.5-.2.7-.8.5-1.3,0-.5-.3-.7-.6-.6-.8.2.4,3.4-1.9,4-1.5.3-2.5-.7-2.9-2.2-.3-1.1,0-2.2.8-3l1.3,1.5c-.3.3-.5.7-.4,1.1,0,.3.2.5.4.5,0,0,0,0,0,0,.8-.2-.5-3.4,2-4h.1Z"/><path d="m45,45.7l.5-2,9.9,2.5-.5,2-9.9-2.5Z"/><circle class="cls-6" cx="200" cy="343.9" r="45"/><path d="m177.5,318.2c2.3,1.9,2.6,5.2.7,7.4-.1.1-.2.2-.3.4-2.1,2.5-5.9,2.8-8.3.6,0,0,0,0,0,0-2.4-2.2-2.6-5.9-.4-8.3,0,0,0,0,0,0,1.3-1.5,3.3-2.2,5.2-1.9l-.5,2.5c-1.1-.2-2.1.3-2.8,1.1-1.2,1.2-1.2,3.2,0,4.5,0,0,.2.2.3.2,1.4,1.3,3.3,1.2,4.8-.4.9-.8,1.2-2.2.6-3.3l-2,2.2-1.7-1.5,3.8-4.2.7.6h0Z"/><path d="m187.7,314.1c1.1,1.9.5,4.4-1.4,5.5,0,0,0,0,0,0-.8.5-1.7.6-2.6.3l1.9,3.5-2.1,1.1-5.3-9.9,2.1-1.1.4.7c.2-.9.8-1.6,1.6-2,2-1,4.4-.1,5.4,1.9Zm-2.1,1.1c-.4-.9-1.5-1.3-2.4-.9,0,0-.1,0-.2.1-.9.4-1.3,1.6-.9,2.5,0,0,0,0,0,.1.4.9,1.5,1.3,2.4.9,0,0,.1,0,.2-.1.9-.4,1.3-1.6.9-2.5,0,0,0,0,0-.1h0Z"/><path d="m196.7,311.1l1,4.8-2.3.5-.9-4.5c0-.7-.7-1.2-1.4-1.2-.1,0-.2,0-.3,0-.7,0-1.3.8-1.2,1.5,0,.1,0,.3.1.4l.9,4.3-2.4.5-2.3-11,2.3-.5.8,3.9c.4-.8,1.1-1.3,2-1.4,1.6-.3,3.2.7,3.6,2.3,0,0,0,.2,0,.3h0Z"/><path d="m198.5,311.9c.2-2.3,2.2-4.1,4.6-3.9s4.1,2.2,3.9,4.6-2.2,4.1-4.6,3.9-4.1-2.2-3.9-4.6Zm6.1.5c.1-1-.6-1.9-1.6-2,0,0,0,0,0,0-1,0-1.9.7-2,1.7-.1,1,.6,1.9,1.6,2,0,0,0,0,0,0,1,0,1.9-.7,2-1.7Z"/><path d="m216.2,314.9l-1.7,4.6-2.2-.9,1.6-4.3c.4-.6.1-1.4-.5-1.8,0,0-.2,0-.3-.1-.8-.3-1.6,0-1.9.8,0,0,0,.1,0,.2l-1.6,4.1-2.2-.9,2.8-7.5,2.2.9-.3.7c.8-.5,1.7-.5,2.5,0,1.5.6,2.4,2.1,1.6,4.2h0Z"/><path d="m219.6,320.8c.5.4,1,.5,1.6.4l.9,2c-2.4.6-4.8-.9-5.4-3.3-.3-1.2,0-2.5.6-3.5,1.3-1.8,3.8-2.3,5.7-1,0,0,.2.1.2.2,1.8,1.3,2.2,3.8.9,5.6,0,0-.1.1-.2.2-.2.3-.4.5-.7.7l-4.5-3.4c-.2.8.2,1.6.9,2h0Zm2.9-1.5c.4-.7,0-1.6-.6-2-.6-.6-1.6-.6-2.2,0l2.8,2.1h0Z"/><path d="m236.1,325.8l-9.4,6-1.4-2.2,7.2-4.6-1.5-1.4,1.5-1.7,2.5,1.9,1.2,1.9h-.1Z"/><path class="cls-35" d="m210,322c-6.6-1.4-13.4-1.4-20,0-2.3.4-4,2.2-4.3,4.5-2.5,19.9-1.6,30.9,1.8,51,.5,2.7,2.3,5.2,4,5.5,5.6,1.1,11.5,1.1,17.1,0,1.7-.3,3.5-2.9,4-5.5,3.4-20.1,4.3-31.1,1.8-51-.3-2.3-2-4.1-4.3-4.5h-.1Z"/><path class="cls-43" d="m192.6,349.9c4.8,1.5,10,1.5,14.8,0,1-.3,1-.7-.1-.7h-14.6c-1.1,0-1.2.4,0,.7Z"/><path class="cls-18" d="m207.8,329.5h-15.5c-1.7.1-2.9,1.6-2.8,3.3,0,0,0,0,0,0v10.6c0,1.7,1.1,3.1,2.8,3.3h15.5c1.7-.1,2.9-1.6,2.8-3.3,0,0,0,0,0,0v-10.6c0-1.7-1.1-3.1-2.8-3.3Z"/><path class="cls-12" d="m195.2,357.3c0,.6-.4,1.1-1,1-1.3-.2-2.6-.5-3.8-.8-.6-.2-1-.8-1-1.4,0-1.2,0-2.5-.1-3.7,0-.5.3-.9.7-.9,0,0,.2,0,.3,0,1.3.3,2.6.6,3.9.8.6,0,1,.7,1,1.3v3.7Z"/><path class="cls-12" d="m203,357.5c0,.6-.4,1.1-1,1.2h-3.9c-.6,0-1-.6-1-1.2v-3.7c0-.6.4-1,1-1.1h3.9c.6,0,1,.4,1,1,0,0,0,0,0,.1v3.7Z"/><path class="cls-12" d="m210.7,356.1c0,.6-.4,1.2-1,1.4-1.3.3-2.6.6-3.8.8-.5,0-1-.4-1-.9,0,0,0,0,0-.1v-3.7c0-.6.4-1.1,1-1.3,1.3-.2,2.6-.5,3.9-.8.6-.1,1,.2,1,.9,0,1.2,0,2.5,0,3.7Z"/><path class="cls-12" d="m195.3,364.8c0,.6-.4,1.1-1,1-1.3-.2-2.6-.4-3.8-.8-.6-.2-1-.8-1-1.4,0-1.2,0-2.5-.1-3.7,0-.5.3-.9.7-.9,0,0,.2,0,.3,0,1.3.3,2.5.6,3.8.8.6,0,1,.7,1,1.3v3.7h.1Z"/><path class="cls-12" d="m202.9,365c0,.6-.4,1.1-1,1.2h-3.8c-.6,0-1-.6-1-1.2v-3.7c0-.5.3-1,.9-1.1,0,0,0,0,.1,0h3.9c.6,0,1,.4,1,1,0,0,0,0,0,.1v3.7h-.1Z"/><path class="cls-12" d="m210.5,363.8c0,.6-.4,1.2-1,1.4-1.2.3-2.5.6-3.8.8-.6,0-1-.4-1-1v-3.7c0-.6.4-1.1,1-1.3,1.3-.2,2.6-.4,3.8-.8.4,0,.9.2,1,.6,0,0,0,.2,0,.3,0,1.2,0,2.5-.1,3.7h.1Z"/><path class="cls-12" d="m195.4,372.4c0,.6-.4,1.1-1,1-1.2-.2-2.5-.4-3.7-.7-.6-.2-1-.8-1-1.4,0-1.2,0-2.5-.1-3.7,0-.6.4-1,.9-.9,1.2.3,2.5.6,3.7.8.5,0,1,.7,1,1.3v3.7h.2Z"/><path class="cls-12" d="m202.9,372.5c0,.6-.4,1.1-1,1.2h-3.7c-.6,0-1-.6-1-1.2v-3.7c0-.5.3-1,.9-1.1,0,0,0,0,.1,0h3.8c.6,0,1,.5,1,1.1v3.7h-.1Z"/><path class="cls-12" d="m210.3,371.2c0,.6-.4,1.2-1,1.4-1.2.3-2.4.6-3.7.7-.6,0-1-.4-1-1v-3.7c0-.6.4-1.1,1-1.3,1.3-.2,2.5-.4,3.7-.8.4,0,.8.2.9.6,0,.1,0,.2,0,.3,0,1.2,0,2.5-.1,3.7h.2Z"/><path class="cls-12" d="m202.8,380.1c0,.6-.4,1.1-1,1.2h-3.6c-.6,0-1-.6-1-1.2v-3.7c0-.5.3-1,.9-1.1,0,0,0,0,.1,0h3.7c.6,0,1,.5,1,1.1v3.7h0Z"/><path class="cls-43" d="m198.9,327.8c0,.2-.2.5-.4.5h0c-.2,0-.4-.3-.4-.5v-4c0-.2.2-.5.4-.5h0c.2,0,.4.3.4.5v4Z"/><path class="cls-43" d="m200.5,327.8c0,.2-.2.5-.4.5h0c-.2,0-.4-.3-.4-.5v-4c0-.2.2-.5.4-.5h0c.2,0,.4.3.4.5v4Z"/><path class="cls-43" d="m202.1,327.8c0,.2-.2.5-.4.5h0c-.2,0-.4-.3-.4-.5v-4c0-.2.2-.5.4-.5h0c.2,0,.4.3.4.5v4Z"/><path class="cls-12" d="m202.9,343.3h-.6c-.4,0-.9-.2-1.3-.2-.5,0-1-.2-1.5-.3-.6,0-1.2-.2-1.8-.4h-.3c-.2,0-.3-.3-.2-.5,0-.3.2-.6.4-.8.2-.5.4-.9.6-1.4.2-.3.3-.6.5-.9.3-.4.9-.6,1.3-.3,0,0,.1.1.2.2.2.2.3.4.4.6.3.5.6.9.9,1.4.5.8,1,1.5,1.4,2.3,0,0,0,.1.1.2,0,.2,0,.4-.3.4l.2-.3Z"/><path class="cls-54" d="m210.7,378.8c-.2,0-.4,0-.6.2-.5.1-.9.3-1.4.4s-1.1.3-1.7.5-1.3.4-2,.6h-.3c-.3,0-.4-.1-.4-.4v-3.9c.1-.6.7-1,1.3-.9,0,0,.1,0,.2,0,.3,0,.5.1.7.3.5.3,1.1.6,1.6.9.9.5,1.7,1,2.6,1.5.1,0,.2,0,.2.2.2.2.2.4,0,.5h-.2Z"/><path class="cls-11" d="m189.3,378.8c.2,0,.4,0,.6.2.5.1.9.3,1.4.4s1.1.3,1.7.5,1.3.4,2,.6h.3c.3,0,.4-.1.4-.4v-3.9c-.1-.6-.7-1-1.3-.9,0,0-.1,0-.2,0-.3,0-.5.1-.7.3-.5.3-1.1.6-1.6.9-.9.5-1.7,1-2.6,1.5-.1,0-.2,0-.2.2-.2.2-.2.4,0,.5h.2Z"/><path class="cls-12" d="m204,332.5h.2c.2,0,.3.1.2.3s-.2.2-.2.4c-.5.7-1.1,1.4-1.6,2.1l-1.5,1.8c-.2.3-.6.5-.9.6-.4.1-.9,0-1.2-.3-.2-.2-.4-.4-.5-.6-.5-.7-1-1.5-1.4-2.2-.2-.3-.4-.7-.6-1h0c-.1-.3,0-.4.2-.4,1,0,2-.1,3-.2.9,0,1.8,0,2.7-.2.6,0,1.3,0,1.9-.1h0l-.3-.2Z"/><line class="cls-12" x1="282.3" y1="199.4" x2="249.6" y2="198.9"/><line class="cls-7" x1="282.3" y1="199.4" x2="260.3" y2="199"/><polygon class="cls-59" points="262.6 191.6 249.6 198.9 262.4 206.6 262.6 191.6"/><line class="cls-12" x1="115.6" y1="200.4" x2="148.3" y2="199.9"/><line class="cls-7" x1="115.6" y1="200.4" x2="137.6" y2="200"/><polygon class="cls-59" points="135.5 207.6 148.3 199.9 135.3 192.6 135.5 207.6"/><line class="cls-8" x1="199.2" y1="252.7" x2="199.7" y2="285.5"/><line class="cls-7" x1="199.2" y1="252.7" x2="199.6" y2="274.8"/><polygon class="cls-59" points="192.1 272.7 199.7 285.5 207 272.5 192.1 272.7"/><line class="cls-8" x1="198.3" y1="109.1" x2="198.8" y2="141.8"/><line class="cls-7" x1="198.3" y1="109.1" x2="198.6" y2="131.1"/><polygon class="cls-59" points="191.1 129 198.8 141.8 206.1 128.8 191.1 129"/><line class="cls-8" x1="110.7" y1="104.8" x2="159.4" y2="144.1"/><line class="cls-7" x1="110.7" y1="104.8" x2="151" y2="137.3"/><polygon class="cls-59" points="144.6 141.8 159.4 144.1 154 130.2 144.6 141.8"/><line class="cls-8" x1="286.4" y1="104.8" x2="237.7" y2="144.1"/><line class="cls-7" x1="286.4" y1="104.8" x2="246.1" y2="137.3"/><polygon class="cls-59" points="243.1 130.2 237.7 144.1 252.5 141.8 243.1 130.2"/><circle class="cls-3" cx="65.2" cy="199.2" r="45"/><path class="cls-60" d="m91.2,219.5c-.3.9-.7,1.8-1.2,2.6-1.1,1.5-2.8,2.4-4.7,2.4h-5.4c-.9,0-1-.2-1-1.1v-1.7c1.9,0,3.9,0,5.8-.1,1,0,2-.5,2.6-1.3.8-1.3,1.3-2.8,1.2-4.3h2.8v3.5h-.1Z"/><path class="cls-22" d="m91.2,216h-2.7v-15.3h2.7v15.3h0Z"/><path class="cls-60" d="m91.2,200.6h-2.7v-2.7c0-1.8-.9-3.5-2.4-4.5-.8-.5-1.6-.9-2.5-1.2,1.8-.2,3.6.1,5.1,1.1,1.3.9,2.1,2.3,2.4,3.8h0c0,.1,0,3.5,0,3.5Z"/><path class="cls-27" d="m41.3,210.8h-4.7c-1.1.1-2.2-.4-2.8-1.4,0,0-.1,0-.2-.1v-1.6h0c.5.8,1.5,1.2,2.4,1.1h5.1c.1.3.1.6,0,.9,0,.3-.2.5,0,.8v.3h.1Z"/><path class="cls-29" d="m53.7,193.8c.7,0,1.3,0,2,0h19.6v23.6c0,.7-.3,1.3-.9,1.6,0-.9-.3-1.2-1.2-1.2h-14.2c-.8,0-1.1.4-1,1.2h-4.4v-25.1h.1Zm12.6,13.7h-6.9c-.9,0-1.4.3-1.3.9s.5.9,1.3.9h14.4c.4,0,.7-.5.7-.9h0c0-.4-.3-.7-.7-.8h-7.5Zm0-8.5h7.1c.7,0,1-.3,1-.8s-.3-.9-1.1-.9h-14.2c-.3,0-.7,0-.9.3-.2.2-.3.6,0,.9.1.4.5.6.9.5h7.3Zm0,5.1h7.2c.3,0,.7-.1.9-.4.1-.3.1-.6,0-.9-.2-.3-.6-.3-1-.3h-14.6c-.4.1-.7.6-.6,1h0c.1.4.5.7,1,.7h7.1Zm0,10.2h7.1c.2,0,.5,0,.7-.1.3-.2.5-.6.4-1,0-.4-.5-.7-.9-.6h-14.4c-.4,0-.8.1-1,.5-.3.7.2,1.2.9,1.2h7.2Z"/><path class="cls-1" d="m83.5,192.2c.9.3,1.7.7,2.5,1.2,1.4,1.1,2.3,2.7,2.4,4.5v2.7h-1.9c-.6,0-1.1.5-1.1,1.1,0,0,0,.1,0,.2h0v12.8c0,.6.4,1.2,1,1.3,0,0,0,0,0,0h1.8c0,1.5-.4,3-1.2,4.3-.6.8-1.6,1.2-2.6,1.3-1.9.1-3.9.2-5.8.1v-28.1c0-1.7.3-1.5,1.6-1.5h3.2Z"/><path class="cls-44" d="m78.8,193.6v29.4h-20.4c-.2-.1-.4,0-.6,0h-3.5c-.2,0-.4,0-.5-.2v-3.8h4.3c.2.4.6.7,1.1.6h14.1c.5,0,.9-.2,1.2-.6.6-.3,1-.9.9-1.6v-23.6c1.1-.1,2.3,0,3.5,0v-.2Z"/><path class="cls-1" d="m53.7,193.8v25.2h-1.2c-2.2-.4-4.1-1.7-5.3-3.5-.6-1-1-2.1-1.2-3.2v-9.8c0-.9,0-1.9.3-2.8.8-3.5,3.9-5.9,7.5-5.8h-.1Z"/><path class="cls-36" d="m55.7,186.1h-.8c-.6,0-1.1-.3-1.1-.9v-2.4c0-1,.3-1.3,1.3-1.3h11c.5.5.7,1.2.5,1.9v.9c.2.7,0,1.4-.6,1.8h-10.3Z"/><path class="cls-52" d="m55.7,186.1h12.1v7.6h-2.9v-3c0-.2,0-.4-.2-.5v-.4c.4-.7.2-1-.6-1h-8.4v-2.7Z"/><path class="cls-58" d="m64.7,190.1c.2.1.2.3.2.5v3h-9.2v-5h8.5c.8,0,.9.3.6,1-.3-.7-.7-.8-1.2-.6-.4.2-.6.7-.4,1.1.1.2.3.4.6.5.5.1,1-.1,1.1-.6h-.2Zm-5.1-1.1c-.4,0-.8.4-.9.8,0,.5.4.9.9.9.5,0,.9-.4.9-.9,0-.5-.4-.9-.9-.9h0Z"/><path class="cls-58" d="m45.9,202.4v9.2h-2.2c-.7,0-1.4-.3-1.9-.9,0-.2-.1-.3-.3-.3-.2-.3,0-.5,0-.8,0-.3,0-.6,0-.9v-4.7c0-1,.9-1.7,1.9-1.7h2.6,0Z"/><path class="cls-50" d="m41.3,205.9v2.9h-5.1c-1,0-1.9-.4-2.4-1.2.4-1.1,1.5-1.8,2.7-1.7h4.8Z"/><path class="cls-60" d="m67.8,186.1h-1.8c.5-.5.7-1.1.6-1.8v-.9c.2-.7,0-1.4-.6-1.9h2.7c.5,0,1,.3,1.1.9,0,0,0,0,0,.1v2.4c0,.9-.4,1.3-1.3,1.3h-.7,0Z"/><path class="cls-58" d="m73.3,229.9h1.5c.6.6.9,1.5.7,2.3v.9c0,.4-.2.8-.5,1.1,0,0-.3.1-.3.3-8.5-.2-17,0-25.5,0s-1.7-.6-1.6-1.6v-1.7c0-.7.5-1.3,1.2-1.3,0,0,0,0,0,0h24.5,0Z"/><path class="cls-60" d="m45.9,212.2c.2,1.1.6,2.2,1.2,3.2,1.2,1.8,3.1,3.1,5.3,3.5h1.2v4.1c-3.7,0-6.8-2.5-7.7-6.1-.1-.9-.2-1.7-.2-2.6v-2.1h.2Z"/><path class="cls-21" d="m53.7,223v-.3c0,.3.4.2.6.2h4.1v6.9h-2.1v-4.1c0-.6,0-.8-.8-.8h-1.7v-2h0Z"/><path class="cls-15" d="m73.3,229.9h-2v-4.3c0-.3-.2-.7-.6-.7,0,0,0,0-.1,0h-1.9v-2c.8,0,1.5,0,2.3,0h2.3v7Z"/><path class="cls-22" d="m74.7,234.6c0-.2.2-.2.3-.3.3-.3.5-.7.5-1.1v-.9c.2-.8,0-1.7-.7-2.3h3.2c.8,0,1.4.5,1.5,1.3v1.8c.1.8-.4,1.5-1.2,1.7h-3.6v-.2Z"/><path class="cls-22" d="m45.9,212.2v2.1h-2.5c-1.1,0-2.1-.8-2.2-1.9v-1.5c0,0,0-.2,0-.3s.2.2.3.3c.5.6,1.2.9,1.9.9h2.2v.5h.2Z"/><path class="cls-1" d="m53.8,224.9h1.7c.6,0,.8.2.8.8,0,1.4,0,2.8,0,4.2h-2.4v-5h-.1Z"/><path class="cls-58" d="m88.4,216h-1.6c-.6,0-1.2-.4-1.3-1,0,0,0,0,0,0v-13c0-.6.4-1.2,1-1.3,0,0,0,0,0,0h1.9v15.3h-.1Z"/><path class="cls-24" d="m74.5,218.9c-.2.4-.7.6-1.1.6h-14.1c-.5,0-.9-.2-1.1-.6,0-.8.2-1.2,1-1.2h14.1c.9,0,1.2.3,1.2,1.2Z"/><path class="cls-24" d="m66.3,207.4h7.4c.4,0,.7.4.8.8,0,.4-.3.8-.7.9h-14.4c-.8,0-1.3-.3-1.3-.9s.4-.9,1.3-.9h6.9Z"/><path class="cls-15" d="m66.3,198.9h-7.2c-.4,0-.7-.2-.9-.5,0-.3,0-.6,0-.9.2-.3.6-.4.9-.3h14.2c.7,0,1.1.3,1.1.9s-.3.8-1,.8h-7.2Z"/><path class="cls-15" d="m66.3,204.1h-7.1c-.5,0-.9-.3-1-.7-.1-.4.1-.9.6-1,0,0,0,0,0,0h14.6c.4,0,.7,0,1,.3.2.3.2.6,0,.9-.2.3-.5.5-.9.5h-7.2Z"/><path class="cls-15" d="m66.3,214.3h-7.2c-.8,0-1.2-.6-.9-1.2.2-.4.6-.6,1-.5h14.4c.4,0,.8.2,1,.6.1.4,0,.8-.4,1-.2,0-.5.1-.7.1h-7.2Z"/><path class="cls-24" d="m64.7,190.1c-.1.5-.6.7-1,.6,0,0,0,0,0,0-.4,0-.7-.5-.6-1,0,0,0,0,0,0,0-.3.2-.5.5-.6.5-.2.9,0,1.2.6v.4Z"/><path class="cls-24" d="m59.6,189c.5,0,.9.4.9.9,0,.5-.4.9-.9.9h0c-.5,0-.9-.4-.9-.9,0-.5.4-.8.8-.8,0,0,0,0,0,0h0Z"/><path class="cls-36" d="m68.8,229.9v-4.9h1.9c.5,0,.7.2.7.7v4.3h-2.6Z"/><path d="m24.8,197.4l.4-2.4,7.5-1-6.8-3.3.4-2.4,9.2,4.8-.5,2.8-10.2,1.6h0Z"/><path d="m27.9,187.1c-.6-.3-.9-1-.7-1.6.3-.6,1-.9,1.6-.7.6.2.9,1,.7,1.6-.2.6-.9.9-1.6.7,0,0,0,0,0,0Zm1.8.5l.7-2,6.6,2.4-.7,2-6.6-2.4Z"/><path d="m38.2,178.6c1.7.9,2.4,3,1.5,4.7,0,0,0,0,0,.1-.4.7-1,1.2-1.8,1.3l.6.3-1.1,1.8-8.4-5.1,1.1-1.8,3,1.8c-.2-.7,0-1.5.3-2.2,1.1-1.6,3.3-2.1,4.9-1h0Zm-1.1,1.8c-.7-.5-1.7-.3-2.3.4,0,0,0,0,0,0-.5.7-.3,1.7.4,2.2,0,0,.1,0,.2.1.7.5,1.7.3,2.3-.4,0,0,0,0,0,0,.5-.7.3-1.7-.4-2.2,0,0-.1,0-.2-.1Z"/><path d="m39.5,172.1l1.7,1.6c-.8.5-1,1.5-.6,2.2,0,.1.2.3.3.4l2.3,2.2-1.4,1.5-5.1-4.8,1.4-1.5.9.9c-.4-.8-.3-1.8.4-2.5h0Z"/><path d="m46.7,166.8l4,5.7-1.7,1.2-.4-.5c0,.8-.5,1.5-1.2,1.9-1.6,1.1-3.8.6-4.9-1,0,0,0,0,0,0-1.2-1.5-1-3.7.5-4.8,0,0,0,0,0,0,.6-.5,1.4-.7,2.2-.5l-.4-.5,1.7-1.2h0Zm.3,4.1c-.4-.7-1.3-1-2-.6-.1,0-.2.1-.3.2-.8.5-1,1.5-.5,2.3,0,0,0,0,0,.1.4.7,1.3,1,2,.6.1,0,.2-.1.3-.2.8-.5,1-1.5.5-2.3,0,0,0,0,0-.1Z"/><path d="m52.2,166.6l1,2.3c.2.6.7.4,1.6,0l.7,1.8c-2.4,1.3-3.5.9-4.2-.9l-1-2.3-1,.4-.8-1.9,1-.4-.5-1.2,1.7-1.4.8,1.8,1.3-.6.8,1.9-1.3.6h0Z"/><path d="m53.8,161.9c-.2-.7.2-1.3.9-1.5.7-.2,1.3.2,1.5.9.2.7-.2,1.3-.9,1.5,0,0,0,0,0,0-.6.2-1.3-.1-1.5-.7,0,0,0-.1,0-.2Zm.7,1.8l2-.5,1.8,6.8-2,.5-1.8-6.8Z"/><path d="m58.8,166c-.2-2,1.4-3.8,3.4-4,0,0,0,0,0,0,2-.2,3.8,1.3,4,3.3,0,0,0,0,0,.1.2,2-1.4,3.8-3.4,4,0,0,0,0,0,0-2,.2-3.8-1.3-4-3.3,0,0,0,0,0-.1Zm5.3-.4c0-.8-.6-1.5-1.4-1.5,0,0-.2,0-.3,0-.9,0-1.5.7-1.5,1.6,0,0,0,.1,0,.2,0,.8.6,1.5,1.4,1.5,0,0,.2,0,.3,0,.9,0,1.5-.7,1.5-1.6,0,0,0-.1,0-.2Z"/><path d="m74.5,165.9l-.7,4.2-2.1-.4.7-3.9c.2-.7-.2-1.3-.9-1.5,0,0,0,0-.1,0-.6-.2-1.3.2-1.5.8,0,.1,0,.2,0,.4l-.6,3.8-2.1-.4,1.2-6.9,2.1.4v.6c.5-.5,1.3-.7,2-.5,1.4.2,2.4,1.4,2.1,3.3h0Z"/><path d="m76.7,165.7l4.9,2.1-.8,1.9-4.9-2.1.8-1.9Z"/><path d="m91.4,176.2l-2.7,3.3-1.6-1.3,2.6-3.2c.4-.5.5-1.1,0-1.5-.5-.4-1.3-.3-1.7.2,0,0,0,0,0,0l-2.5,3-1.6-1.3,2.6-3.2c.4-.5.5-1.1,0-1.5-.5-.4-1.3-.3-1.7.2,0,0,0,0,0,0l-2.5,3-1.6-1.3,4.5-5.4,1.6,1.3-.4.5c1.3-.2,2.6.7,2.8,2,0,.2,0,.3,0,.5.8-.2,1.6,0,2.2.6,1.1.9,1.3,2.6.4,3.7,0,0-.1.1-.2.2h-.2Z"/><path d="m91.7,178.1c1.7-1.1,4-.6,5.1,1.1,1.1,1.7.6,4-1.1,5.1-1.7,1.1-4,.6-5.1-1.1h0c-1.1-1.7-.6-4,1.1-5.1Zm2.9,4.5c.7-.4,1-1.4.6-2.1,0,0,0,0,0,0-.5-.8-1.5-1-2.2-.5,0,0,0,0,0,0-.7.4-1,1.4-.6,2.1,0,0,0,0,0,0,.5.8,1.5,1,2.2.5,0,0,0,0,0,0Z"/><path d="m98.4,187.5l-2.3.9c-.6.2-.4.7,0,1.6l-1.8.7c-1.2-2.5-.8-3.5,1.1-4.2l2.3-.9-.4-1,1.9-.7.4,1,1.2-.5,1.3,1.7-1.8.7.5,1.3-1.9.7-.5-1.3Z"/><path d="m98,190.3c2-.4,3.8.9,4.2,2.9,0,0,0,.1,0,.2.3,2-1,3.9-3,4.3-2,.4-3.8-.9-4.2-2.9,0,0,0-.1,0-.2-.3-2,1-3.9,3-4.3Zm.9,5.2c.9-.1,1.5-1,1.4-1.9,0-.8-.8-1.4-1.7-1.3,0,0-.2,0-.2,0-.9.1-1.5,1-1.4,1.9,0,.8.8,1.4,1.7,1.3,0,0,.2,0,.2,0Z"/><path d="m102.5,203.4h-2.4c.2-1,0-2.2-1.5-2.3h-3.2v-2.2l7,.3v2.1h-1.3c.9.4,1.4,1.3,1.3,2.2h0Z"/><circle class="cls-4" cx="316.2" cy="56.1" r="45"/><path class="cls-10" d="m305,92.1c-.8-.2-1.6-.6-2.3-1-1.5-1-2.4-2.8-2.3-4.6v-42.9c0-2.6,1.8-4.9,4.4-5.4h21.6c0,.2.1.2.2.2,1.3.4,2.5,1.2,3.2,2.4.4.5.6,1.2.6,1.8,0,0-.2-.2-.2-.3-.5-.8-1.4-1.3-2.4-1.3h-3.8c-.6,0-1.2.3-1.5.9-.2.3-.3.7-.5,1-.3.7-1,1.1-1.7,1.1h-6.7c-.3,0-.5,0-.8,0-.4-.2-.7-.6-.8-1l-.6-1.2c-.2-.4-.6-.7-1.1-.7h-4.8c-1.4.3-2.3,1.6-2.2,3v42.5c0,1.5,1.1,2.7,2.6,2.8h22c.5,0,.9,0,1.3-.3.5-.3.9-.8,1.2-1.3v.2c-.4,1.9-1.8,3.4-3.7,4-.1,0-.4,0-.4.2h-21.3Zm11.9-50.3h1.8c.3,0,.7-.2.7-.6,0,0,0,0,0-.1,0-.5-.2-.9-.7-.9h-3.5c-.5,0-.7.4-.7.9s.3.6.7.7h1.7Z"/><path class="cls-9" d="m326.4,92.1c0-.3.2-.2.4-.2,1.8-.6,3.2-2.1,3.7-4v-.2c.2-.5.2-1.1.2-1.7v-41.8c0-.6,0-1.1-.2-1.7,0-.6-.2-1.3-.6-1.8-.7-1.2-1.9-2.1-3.2-2.4-.1,0-.2,0-.2-.2h2.4c.7.1,1.3.4,1.9.7,1.7,1,2.8,2.9,2.7,4.9v42.7c0,2.7-1.8,5.1-4.5,5.6h-2.6Z"/><path class="cls-19" d="m312.7,43.8c.3,0,.5,0,.8,0h6.7c.8,0,1.5-.4,1.7-1.1.2-.3.3-.7.5-1,.3-.6.9-.9,1.5-.9h.9c0,.2.2.2.3.3,1,.5,1.6,1.5,1.6,2.6v42.5c0,1.1-.6,2.1-1.5,2.6-.2,0-.3.1-.3.3h-19.1c-1.5,0-2.6-1.3-2.6-2.8v-42.4c-.1-1.4.8-2.7,2.2-3,.5,0,.9,0,1.4,0,.5.6.9,1.3,1.3,2,.3.6,1,1,1.7.9h2.5c.2,0,.4,0,.5,0h-.1Zm-3.5,29.9v10.4c0,1.1.3,1.4,1.4,1.4h13c.5,0,1-.3,1.1-.9,0,0,0-.1,0-.2v-21.4c0-.5-.3-1-.9-1.1,0,0-.1,0-.2,0h-1.1c-.5,0-1-.3-1.1-.9,0,0,0-.1,0-.2v-1.9c0-.5-.3-1-.9-1.1,0,0-.1,0-.2,0h-6.7c-.8,0-1.1.4-1.1,1.2v1.9c0,.7-.4,1-1.1,1h-.8c-1,0-1.3.3-1.3,1.3v10.5h0Zm7.7-24.2c0-.2.1-.3.2-.5.3-.5.7-1,1-1.5s.2-.9-.2-1.1-.8-.3-1,0c-.8,1.1-1.6,2.3-2.3,3.5-.3.6,0,1.1.7,1.1h1.4q.3,0,.2.3c-.5.8-1,1.6-1.6,2.4-.3.4-.3.9,0,1.3.4.3.9,0,1.3-.4.9-1.3,1.7-2.6,2.5-3.9.2-.3.2-.6,0-.9-.2-.3-.5-.4-.8-.4h-1.6.2Z"/><path class="cls-33" d="m324.9,89.2c0-.2.2-.2.3-.3.9-.5,1.5-1.5,1.5-2.6v-42.5c0-1.1-.6-2.1-1.6-2.6-.2,0-.3-.1-.3-.3h2.9c1,0,1.9.4,2.4,1.3,0,0,.1.2.2.3.2.6.3,1.2.2,1.8v41.8c0,.6,0,1.1-.2,1.7-.3.5-.7.9-1.2,1.3-.4.2-.8.3-1.3.3h-2.9Z"/><path class="cls-33" d="m312.7,43.8c-.1.2-.3,0-.5,0h-2.5c-.7,0-1.4-.3-1.7-.9-.4-.7-.8-1.4-1.3-2h3.4c.5,0,.9.3,1.1.7l.6,1.2c.2.4.5.7.8,1h.1Z"/><path class="cls-9" d="m316.9,41.8h-1.6c-.3,0-.7-.2-.7-.6,0,0,0,0,0-.1,0-.5.2-.9.7-.9h3.5c.4,0,.8.5.7.9,0,.5-.2.6-.7.7-.6,0-1.2,0-1.8,0h-.1Z"/><path class="cls-23" d="m309.2,73.7v-10.4c0-1,.3-1.3,1.3-1.3h.8c.7,0,1-.3,1.1-1v-1.9c0-.8.3-1.2,1.1-1.2h6.7c.5,0,1,.3,1.1.9,0,0,0,.1,0,.2v1.9c0,.5.3,1,.9,1.1,0,0,.1,0,.2,0h1.1c.5,0,1,.3,1.1.9,0,0,0,.1,0,.2v21.4c0,.5-.3,1-.9,1.1,0,0-.1,0-.2,0h-12.9c-1.1,0-1.4-.3-1.4-1.4v-10.4h0Zm12.5,2.7v-10.6c0-.5-.3-.8-.9-.8h-7.9c-.4,0-.8.2-.9.7,0,0,0,.1,0,.2v15.9c0,.4.2.8.7.9,0,0,.1,0,.2,0h7.9c.4,0,.8-.2.9-.7,0,0,0-.1,0-.2v-5.4Z"/><path class="cls-46" d="m316.9,49.5h1.6c.4,0,.7,0,.8.4.1.3.1.6,0,.9-.8,1.3-1.7,2.6-2.5,3.9-.3.5-.8.6-1.3.4-.4-.3-.4-.8,0-1.3.5-.8,1-1.6,1.6-2.4.2-.2.1-.3-.2-.3h-1.4c-.7,0-1.1-.6-.7-1.1.7-1.2,1.5-2.3,2.3-3.5.2-.3.5-.4.8-.2,0,0,.2.1.2.2.3.3.4.7.2,1.1-.3.5-.7,1-1,1.5,0,0-.2.2-.2.5h-.2Z"/><path class="cls-33" d="m318.5,64.9h2.4c.5,0,.9.3.9.7,0,0,0,0,0,0v2.5h-2.5c-.4,0-.5,0-.5.5v3.5h-6.7v-4.1h6.2c.2,0,.5,0,.5-.2,0-1.1.2-2.2-.3-3.1Z"/><path class="cls-31" d="m318.3,82.7h-5.3c-.4,0-.8-.2-.9-.7,0,0,0-.1,0-.2v-3.7h6.7v3.6c0,.4-.1.8-.5,1Z"/><path class="cls-32" d="m312.1,72.3h6.7v4.1h-6.7v-4.1Z"/><path class="cls-19" d="m318.5,64.9c.6,1,.2,2,.3,3,0,.3-.3.2-.5.2h-6.2v-2.3c0-.4.2-.8.7-.9,0,0,.1,0,.2,0h5.5Z"/><path class="cls-53" d="m318.3,82.7c.4-.2.5-.5.5-1v-3.6h2.9v3.7c0,.5-.3.9-.8.9,0,0,0,0-.1,0h-2.5Z"/><path class="cls-37" d="m318.8,76.4v-4.1h2.9v4.1h-2.9Z"/><path class="cls-47" d="m321.8,72.3h-2.9v-3.5c0-.4.1-.5.5-.5h2.5v4h-.1Z"/><path class="cls-53" d="m312.1,76.4h6.7v1.7h-6.7v-1.7Z"/><path class="cls-41" d="m318.8,78.1v-1.7h2.9v1.7h-2.9Z"/><path d="m282,48.7c2.1.3,3.5,2.3,3.2,4.4l-.3,1.6,3.5.5-.4,2.5-11-1.7.6-4.2c.3-2.1,2.2-3.6,4.3-3.3,0,0,0,0,0,0v.2Zm-.4,2.5c-.7-.2-1.4.3-1.6,1,0,0,0,0,0,.1l-.3,1.6,2.8.4.3-1.6c0-.7-.4-1.4-1.1-1.4,0,0,0,0,0,0h0Z"/><path d="m288.4,40.4l4.4,2.1-1,2.1-4.1-2c-.7-.4-1.5-.1-1.9.5,0,0,0,0,0,0-.4.8-.2,1.5.8,2l3.9,1.9-.9,2.2-10-4.9,1-2.1,3.5,1.7c-.3-.8-.3-1.7.1-2.5.7-1.5,2.5-2.1,4-1.4,0,0,.2.1.3.2v.2Z"/><path d="m290.1,39.4c-1.7-1.6-1.8-4.2-.2-5.9,1.6-1.7,4.2-1.8,5.9-.2,1.7,1.6,1.8,4.2.2,5.9-1.5,1.7-4.2,1.8-5.8.2,0,0,0,0,0,0Zm4.1-4.4c-.7-.7-1.9-.6-2.5.2-.7.7-.6,1.9.2,2.5.7.6,1.8.6,2.5,0,.7-.7.7-1.8,0-2.5,0,0,0,0,0,0Z"/><path d="m303.5,27.6l2.4,4.2-2.1,1.2-2.2-3.9c-.2-.7-1-1-1.6-.7,0,0-.2,0-.3.1-.8.4-1,1.2-.5,2.2l2.1,3.8-2.1,1.2-3.9-6.9,2.1-1.2.4.6c0-.7.6-1.4,1.5-2,1.4-.8,3.1-.5,4.2,1.4Z"/><path d="m310.3,28.8c.6-.1,1.1-.4,1.4-.9l2.1.7c-1.1,2.2-3.8,3-6,1.9-1.1-.6-1.9-1.6-2.2-2.8-.5-2.2.8-4.4,3-4.9,0,0,.2,0,.2,0,2.2-.5,4.3.9,4.8,3,0,0,0,.1,0,.2,0,.3.1.6.1,1l-5.5,1.2c.5.7,1.3,1,2.1.7Zm.8-3.1c-.4-.7-1.1-1.1-1.9-.9-.8.1-1.4.8-1.4,1.6l3.3-.7Z"/><path d="m327.9,27.9c-.4,2.2-2.4,3.6-4.6,3.3-.9-.2-1.7-.7-2.1-1.5l-.2.7-2.3-.5,2.4-10.8,2.3.5-.9,3.8c.7-.5,1.7-.7,2.5-.4,2.1.6,3.4,2.8,2.8,4.9h.1Zm-2.3-.5c.3-.9-.2-1.9-1.2-2.2,0,0-.2,0-.2,0-1-.3-2,.3-2.3,1.3,0,0,0,.1,0,.2-.3.9.2,1.9,1.2,2.2,0,0,.2,0,.2,0,1,.3,2-.3,2.3-1.3,0,0,0-.1,0-.2h0Z"/><path d="m338.6,29.4l-4,6.8-2-1.2.4-.6c-.9.3-1.8.1-2.5-.4-1.8-1.4-2.2-4-.8-5.8,1.2-1.6,3.3-2.1,5.1-1.3.8.4,1.3,1.1,1.5,2l.4-.6,2,1.2v-.2Zm-4.1,2.2c.6-.8.4-1.9-.4-2.5,0,0,0,0-.2,0-.9-.5-2-.2-2.6.6,0,0,0,0,0,0-.5.9-.2,2,.6,2.6.9.5,2,.2,2.6-.7Z"/><path d="m341.4,35.3l-2,2c-.5.5-.1.9.7,1.6l-1.5,1.5c-2.4-2-2.4-3.3-.8-4.9l2-2-.9-.9,1.6-1.6.9.9,1.1-1.1,2.2,1.2-1.6,1.5,1.1,1.2-1.6,1.6-1.1-1.2v.2Z"/><path d="m345.3,40.3l-2.3,1.6c-.6.4-.3.9.3,1.7l-1.8,1.2c-2-2.4-1.7-3.7.1-4.9l2.3-1.6-.7-1.1,1.9-1.3.7,1.1,1.3-.8,1.9,1.6-1.8,1.2.9,1.4-1.9,1.3-.9-1.4Z"/><path d="m345.1,48.4c.2.5.6,1,1.1,1.2l-.4,2.2c-1.3-.4-2.3-1.4-2.7-2.7-.9-2.6.2-4.8,2.4-5.6,2.1-.8,4.5.2,5.4,2.4,0,0,0,0,0,.1.8,2.1-.3,4.4-2.4,5.1,0,0-.1,0-.2,0-.3.1-.6.2-.9.2l-1.9-5.3c-.6.6-.8,1.5-.4,2.2h0Zm3.2.4c.7-.4.9-1.3.6-2-.2-.8-1-1.3-1.8-1.2l1.2,3.2Z"/><path d="m353,57.3l-2.7.3c0-1-.5-2.3-2-2.2l-3.6.4-.2-2.4,7.9-.8.2,2.4h-1.4c1,.4,1.7,1.3,1.8,2.4h0Z"/><path d="m351.9,67.4l-7.3-3.7c-2.4-1.2-3.2-2.7-2.8-4.9l2.2.3c-.1,1.1.1,1.7,1,2.1l7.9-2.1-.3,2.6-5,1.1,4.6,2.1-.3,2.5h0Z"/><circle class="cls-4" cx="80.9" cy="56.1" r="45"/><path class="cls-28" d="m92.7,36.5c.2.3.5.5.8.7,1.2,1.1,1.8,2.6,1.8,4.2v45.3c0,3.6-1.8,5.7-5.5,6-6,.5-12,.5-18,0-3,0-5.3-2.5-5.2-5.5,0,0,0-.1,0-.2v-45.6c-.2-3,2.1-5.5,5.1-5.7,0,0,0,0,0,0,5.3-.4,10.5-.4,15.8-.2.4,0,.7,0,1.1,0,1.4,0,2.8.2,4.1.7v.2Zm-10.9,6.6h-11.1c-.7,0-.9.2-.9.9v11.5c0,3.8,0,2.4,2.4,2.3h19.1c.6,0,.7-.2.7-.7v-13.2c0-.5,0-.8-.7-.8h-9.5Zm2.1,29.5c-2.3,0-2.1,0-2.1,2.2s.3,1,1,1h1.6c1.3,0,1.4,0,1.4-1.3,0-2.2.2-1.9-1.9-1.9Zm-5.9,0h-1.1c-.6,0-1,.2-.8.8.2.8-.7,2.1.8,2.4.8.1,1.5.1,2.3,0,.4,0,.8-.3.9-.7.5-1.9,0-2.5-1.9-2.5h-.2Zm0-4.7c-2.2,0-1.9-.2-2,2v.3c0,.7.3,1,.9,1h2.3c.4,0,.7-.3.8-.7.5-1.9,0-2.5-1.9-2.5h0v-.2Zm6,0h-1.3c-.5,0-.8.2-.8.7,0,2.3-.2,2.6,2.1,2.5h.6c1.3,0,1.4-.2,1.4-1.4,0-2.1.2-1.9-1.9-1.9h0Zm0,12.7h1c.5,0,1,0,1-.7s.5-1.8-.4-2.5h-2.8c-.4,0-.7.2-.8.6-.5,1.9,0,2.6,2,2.6Zm-5.8,0h1c.6,0,1-.2,1-.8s.5-1.8-.4-2.4h-2.8c-.3,0-.7.2-.8.5-.6,1.8,0,2.7,1.9,2.7h.1Zm0-17.4h-.9c-.7,0-1,.2-1,1q0,2.3,2.3,2.3h.8c.5,0,.9-.3.9-.8.4-2,0-2.5-2-2.5h-.1Zm6,0h-1.3c-.5,0-.8.2-.8.8,0,2.3-.2,2.6,2.1,2.5h.5c1.3,0,1.4-.2,1.4-1.4,0-2.1.2-1.9-1.9-1.9Zm-11.8,17.4h.8c.9,0,1.2-.3,1.1-1.2,0-2.4.3-2.1-2.1-2.1h-.4c-1.3,0-1.4,0-1.3,1.3,0,1.8-.4,2,1.9,1.9h0Zm17.6-3.3h-.8c-.8,0-1.1.2-1.1,1.1,0,2.3-.4,2.2,2.2,2.2h.4q1.3,0,1.3-1.3c0-2.2.2-1.9-1.9-1.9h0Zm0-4.7h-1c-.7,0-.9.3-.9,1,0,2.4-.4,2.3,2.3,2.3h.3c1.2,0,1.3,0,1.3-1.3,0-2.2.2-2-1.9-2h-.1Zm-17.5,0h-.8c-.8,0-1.1.2-1.1,1.1,0,2.3-.4,2.2,2.2,2.2h.4c1.2,0,1.3,0,1.3-1.4,0-2.1.2-1.9-1.9-1.9h0Zm0-4.7h-.8c-.8,0-1.1.2-1,1,0,2.3-.2,2.3,2.2,2.2h.3c1.3,0,1.4,0,1.4-1.4,0-2.1.2-1.9-1.9-1.9h-.2Zm17.6-4.7h-1c-.7,0-.9.3-.9,1,0,2.4-.2,2.3,2.3,2.3h.3c1.2,0,1.3,0,1.3-1.3,0-2.2.2-1.9-1.9-2h-.1Zm0,4.7c-2.2,0-1.9-.3-2,2v.2c0,.8.3,1.1,1.1,1.1h1.5c1.2,0,1.3,0,1.3-1.4,0-2.1.2-1.9-1.9-1.9h0Zm-17.6-4.7h-1c-.7,0-.9.3-.9,1,0,2.4-.2,2.3,2.3,2.3h.3c1.2,0,1.3,0,1.3-1.3,0-2.2.2-1.9-1.9-2h-.1Zm10.7-22.9c.4,0,.7,0,.6-.6s-.2-.5-.6-.5-.7,0-.6.6.2.5.6.5Zm2.5-.5c0-.4-.2-.5-.6-.5s-.7,0-.7.5.2.5.6.5.7,0,.7-.5Zm-5.8,48.7c0-.3-.2-.6-.4-.6,0,0-.1,0-.2,0-.4,0-.5.3-.5.6s.2.6.5.6c.3,0,.5-.3.5-.6h0Zm-2.1-49.2c-.3,0-.6.2-.7.5,0,.3.2.6.6.6,0,0,0,0,0,0,.3,0,.5,0,.5-.4h0c0-.4,0-.6-.5-.6h0Zm2.3.5c0-.4-.2-.5-.6-.5-.3,0-.5.1-.6.4s.1.5.4.6c0,0,.1,0,.2,0,.4,0,.5-.2.5-.5h0Zm-.2,44.6c0-.4-.3-.5-.6-.5-.3,0-.5.2-.5.4,0,0,0,0,0,0,0,.4.2.6.5.6s.5-.2.5-.6h0Zm4,0c0-.2,0-.4-.5-.4s-.6,0-.6.5.2.6.5.6.5-.2.5-.7h0Zm-.4,4.7c.3,0,.4-.2.4-.5,0-.3-.2-.6-.5-.6-.3,0-.5.2-.5.4,0,0,0,.1,0,.2,0,.4.2.5.7.5h0Zm-1.6-49.2c0-.4-.3-.5-.6-.5s-.5.2-.4.6.3.5.6.5c.3,0,.5-.3.5-.6h0Zm-.5,44.3c.3,0,.5-.2.5-.4,0,0,0,0,0,0,0-.4-.2-.6-.6-.5s-.5.2-.5.6c0,.3.3.5.6.5h0Zm-3,2.9c.3,0,.5,0,.6-.5s0-.6-.5-.6-.5,0-.6.5,0,.6.5.6h0Zm5.7-1.1c-.2,0-.4.2-.4.4,0,0,0,.1,0,.2,0,.3.2.5.6.4s.5-.3.5-.6c0-.3-.3-.5-.6-.5h0Zm-2.8,4c.3,0,.5-.2.5-.4,0,0,0,0,0,0,0-.4-.2-.6-.5-.6-.3,0-.5.2-.5.4,0,0,0,0,0,0,0,.3.2.6.5.6h0Zm-.6-3.1c0-.3,0-.5-.5-.5-.3,0-.5.2-.5.4,0,0,0,0,0,0,0,.3,0,.6.4.6.3,0,.5-.2.6-.5h0Zm.8.4c-.3,0-.5.2-.5.4,0,0,0,0,0,0,0,.3.3.5.6.5h0c.3,0,.4-.3.4-.5,0-.3-.2-.5-.4-.5,0,0,0,0,0,0Zm0-1.9c0-.2-.2-.5-.4-.5-.3,0-.5.2-.6.5,0,.2,0,.5.4.5h0c.3,0,.4-.3.5-.5h0Zm1,1.3c.2,0,.4-.2.4-.4,0-.2,0-.4-.3-.5h0c-.3,0-.4.2-.5.4s0,.4.4.4h0Z"/><path class="cls-48" d="m84.5,43.1h6.8c.6,0,.7.2.7.8v13.2c0,.5,0,.7-.7.7h-15.4c0-.2,0-.4.2-.6,1.9-3.1,3.7-6.2,5.6-9.3,1-1.5,1.9-3.1,2.8-4.8Z"/><path class="cls-48" d="m72.2,57.7c-1.6,0-2.4-.8-2.4-2.3v-11.5c0-.7.2-.9.9-.9h10c-.7,1.5-1.5,2.9-2.4,4.2-2,3.5-4.1,6.9-6.1,10.4h0Z"/><path class="cls-39" d="m84.5,43.1c-.8,1.7-1.7,3.3-2.7,4.8-1.8,3.1-3.7,6.2-5.6,9.3,0,.2-.2.4-.2.6h-1.6c0-.2,0-.4.2-.6,1.6-2.6,3.2-5.3,4.7-7.9,1.2-2.1,2.5-4,3.6-6.2h1.6Z"/><path class="cls-17" d="m82.9,43.1c-1.1,2.1-2.4,4.1-3.6,6.2-1.6,2.7-3.2,5.3-4.7,7.9,0,.2-.2.4-.2.6h-1.1c.5-1.2,1.1-2.3,1.8-3.3,2.2-3.8,4.5-7.6,6.7-11.3h1.1,0Z"/><path class="cls-30" d="m81.8,43.1c-2.2,3.8-4.5,7.5-6.7,11.3-.7,1-1.3,2.1-1.8,3.3h-1.1c2.1-3.4,4.1-6.9,6.1-10.4.9-1.3,1.7-2.7,2.4-4.2h1.1Z"/><path class="cls-42" d="m83.9,72.6c2.2,0,1.9-.2,1.9,1.9s0,1.3-1.4,1.3h-1.6c-.5,0-.9-.3-1-.8,0,0,0-.1,0-.2,0-2.3-.2-2.3,2.1-2.2Z"/><path class="cls-42" d="m77.9,72.6h0c1.9,0,2.4.6,1.9,2.5,0,.4-.4.8-.9.7,0,0,0,0,0,0-.8,0-1.5,0-2.3,0-1.5-.3-.6-1.6-.8-2.4,0-.6.2-.9.8-.8h1.3Z"/><path class="cls-42" d="m77.9,67.9h0c1.9,0,2.4.6,1.9,2.5,0,.4-.4.7-.8.7h-2.3c-.6,0-1-.3-.9-1v-.3c0-2.2-.3-2,2-2h.1Z"/><path class="cls-42" d="m83.9,67.9c2.1,0,1.9-.2,1.9,1.9s-.2,1.4-1.4,1.4h-.5c-2.4,0-2.1-.2-2.1-2.5s.3-.7.8-.7h1.3,0Z"/><path class="cls-42" d="m83.8,80.6c-1.9,0-2.5-.7-2-2.6,0-.4.4-.6.8-.6h2.8c.9.7.4,1.7.4,2.5s-.5.7-1,.7h-1Z"/><path class="cls-42" d="m77.9,80.6c-1.8,0-2.5-1-1.9-2.7,0-.3.4-.6.7-.5,0,0,0,0,0,0h2.8c.9.7.4,1.6.4,2.4s-.4.8-1,.8h-1.1Z"/><path class="cls-42" d="m77.9,63.1h0c2,0,2.4.5,2,2.5,0,.5-.4.7-.9.8h-.8q-2.3,0-2.3-2.3c0-2.3.3-1.1,1-1h1Z"/><path class="cls-42" d="m83.9,63.1c2.1,0,1.9-.2,1.9,1.9s-.2,1.4-1.4,1.4h-.5c-2.4,0-2.1-.2-2.1-2.5s.3-.7.8-.8h1.3Z"/><path class="cls-42" d="m72.1,80.6c-2.3,0-1.9,0-1.9-1.9s0-1.3,1.3-1.3h.4c2.4,0,2.1-.3,2.1,2.1s-.3,1.2-1.1,1.2h-.8Z"/><path class="cls-42" d="m89.7,77.3c2.2,0,1.9-.2,1.9,1.9s0,1.3-1.3,1.3h-.4c-2.6,0-2.1,0-2.2-2.2,0-.8.3-1.2,1.1-1.1h.9Z"/><path class="cls-42" d="m89.7,72.6c2.1,0,1.9-.2,1.9,2s0,1.3-1.3,1.3h-.3c-2.7,0-2.2,0-2.3-2.3,0-.7.2-1,.9-1h1.1Z"/><path class="cls-42" d="m72.1,72.6c2.1,0,1.8-.2,1.9,1.9,0,1.2,0,1.4-1.3,1.4h-.4c-2.6,0-2.1,0-2.2-2.2,0-.8.3-1.2,1.1-1.1h.9Z"/><path class="cls-42" d="m72.1,67.9c2.1,0,1.9-.2,1.9,1.9s0,1.4-1.4,1.4h-.3c-2.4,0-2.1,0-2.2-2.2,0-.8.2-1.1,1-1h1Z"/><path class="cls-42" d="m89.7,63.1c2.1,0,1.9-.2,1.9,2s0,1.3-1.3,1.3h-.3c-2.5,0-2.2,0-2.3-2.3,0-.7.2-1,.9-1h1.1Z"/><path class="cls-42" d="m89.7,67.9c2.1,0,1.9-.2,1.9,1.9s0,1.4-1.3,1.4h-1.4c-.8,0-1.1-.3-1.1-1.1v-.2c0-2.2-.3-2,2-2h0Z"/><path class="cls-42" d="m72.1,63.1c2.1,0,1.9-.2,1.9,1.9s0,1.3-1.3,1.3h-.3c-2.5,0-2.3,0-2.3-2.3s.2-1,.9-1h1.1Z"/><path class="cls-51" d="m82.8,40.3c-.3,0-.6,0-.6-.5,0-.3.2-.6.6-.6,0,0,0,0,0,0,.3,0,.6,0,.6.5,0,.3-.2.6-.6.6,0,0,0,0,0,0Z"/><path class="cls-51" d="m85.2,39.8c0,.4-.3.5-.7.5s-.6-.2-.6-.5.3-.5.7-.5.6.2.6.5Z"/><path class="cls-55" d="m79.4,88.4c0,.3-.2.6-.5.6-.3,0-.5-.2-.5-.4,0,0,0-.1,0-.2,0-.3,0-.6.5-.6.3,0,.6.2.6.4,0,0,0,.1,0,.2h0Z"/><path class="cls-51" d="m77.3,39.2c.4,0,.5.2.5.6,0,.3-.2.5-.4.5,0,0,0,0,0,0h0c-.4,0-.7-.2-.6-.6s.3-.5.7-.5h0Z"/><path class="cls-51" d="m79.6,39.7c0,.4-.2.6-.5.5-.3,0-.5-.1-.6-.4s.1-.5.4-.6c0,0,.1,0,.2,0,.3,0,.6,0,.6.5h0Z"/><path class="cls-51" d="m79.4,84.3c0,.4-.2.6-.5.6s-.5-.2-.5-.6,0-.5.5-.5.6,0,.6.5h0Z"/><path class="cls-51" d="m83.4,84.2c0,.5-.2.7-.5.7s-.5-.2-.5-.6.3-.5.6-.5c.2,0,.5.2.5.4h0Z"/><path class="cls-51" d="m83,88.9c-.4,0-.7,0-.7-.5s.2-.6.5-.6.5.2.5.6,0,.5-.4.5h0Z"/><path class="cls-51" d="m81.4,39.7c0,.3-.1.5-.4.6-.3,0-.6,0-.6-.5,0-.3.1-.5.4-.6.4,0,.6,0,.6.5Z"/><path class="cls-51" d="m80.9,84c-.3,0-.5,0-.6-.5s0-.6.5-.6.6.2.6.5c0,.3-.2.5-.4.5,0,0,0,0,0,0h0Z"/><path class="cls-51" d="m78,86.9c-.4,0-.5-.2-.5-.6s.2-.5.6-.5.5.2.5.6-.2.5-.6.5Z"/><path class="cls-51" d="m83.7,85.8c.4,0,.6,0,.6.4s0,.6-.5.6c-.3,0-.5-.1-.6-.4,0-.4,0-.6.4-.6h0Z"/><path class="cls-51" d="m80.9,81.8c-.2,0-.4-.2-.4-.4,0-.2,0-.3.4-.3.2,0,.4.1.4.3,0,0,0,0,0,0,0,.2,0,.3-.4.3Z"/><path class="cls-55" d="m80.3,86.7c0,.3-.3.5-.6.5-.3,0-.5-.2-.4-.6s.2-.5.5-.5.4.3.5.5h0Z"/><path class="cls-55" d="m81.1,87.1c.3,0,.5.2.5.4,0,0,0,0,0,0,0,.3,0,.5-.4.5s-.6,0-.6-.4h0c0-.3.2-.4.5-.5h0Z"/><path class="cls-55" d="m81,85.3c0,.3-.2.5-.5.5-.2,0-.5-.2-.5-.4h0c0-.3.3-.5.6-.5.3,0,.4.2.4.5h0Z"/><path class="cls-51" d="m82.1,86.5c-.4,0-.5-.2-.4-.4s.2-.5.5-.4c.2,0,.4.2.4.4h0c0,.3-.2.5-.4.5h0Z"/><path d="m52.8,68.8c2.1-1.6,5.1-1.3,6.7.8,0,0,0,0,0,0l2.3,3.2-7.9,5.8-2.3-3.2c-1.6-2.1-1.1-5,1-6.6,0,0,0,0,.1,0Zm1.3,1.7c-1.2.7-1.6,2.2-.9,3.4,0,.1.1.2.2.3l1,1.4,4.4-3.3-1-1.4c-.8-1.2-2.4-1.5-3.6-.6,0,0-.1,0-.2.1h0Z"/><path d="m51,48.8c1.9,0,3.5,1.5,3.6,3.4,0,0,0,0,0,.1,0,.8-.3,1.6-.9,2.1h3.5v2.2l-9.8-.3v-2h.7c-.5-.6-.8-1.3-.8-2.1.1-1.9,1.8-3.3,3.7-3.2,0,0,0,0,.1,0v-.2Zm0,2.1c-.9,0-1.7.6-1.8,1.6,0,0,0,0,0,0,0,.9.5,1.6,1.4,1.7,0,0,.1,0,.2,0,.9,0,1.7-.6,1.8-1.6,0,0,0,0,0,0,.1-.8-.5-1.6-1.3-1.7-.1,0-.2,0-.3,0Z"/><path d="m52.4,35.6l6.3,3.1-.9,1.9-.6-.3c.3.7.2,1.5-.2,2.2-1.1,1.7-3.4,2.2-5.1,1.1-1.5-.9-2.1-2.8-1.5-4.4.3-.7.9-1.3,1.7-1.5l-.6-.3.9-1.9h0Zm2.2,3.4c-.8-.4-1.8-.2-2.3.6,0,0,0,0,0,0-.5.8-.2,1.9.7,2.4.8.5,1.9.2,2.4-.7.5-.8.2-1.9-.7-2.4,0,0,0,0,0,0Z"/><path d="m58.6,28.4l3.4,6.4c1.1,2.1.9,3.6-.5,5l-1.4-1.3c.6-.5.8-1.4.3-2.1l-6.8-2.5,1.6-1.7,4.2,1.7-2.3-3.9,1.5-1.7h0Z"/><path d="m72.9,20.8l.6,7.3-1.8.8-2.5-3,.4,3.9-1.8.8-4.8-5.6,2.1-.9,2.5,3.2-.4-3.9,1.8-.8,2.4,3-.5-3.9,2.1-.9h0Z"/><path d="m74.5,18.9c0-.7.4-1.3,1.1-1.4.7,0,1.3.4,1.4,1.1,0,.7-.4,1.3-1.1,1.4,0,0,0,0,0,0-.7,0-1.3-.4-1.4-1.1,0,0,0,0,0,0Zm.5,1.8l2.1-.3,1,6.9-2.1.3-1-6.9Z"/><path d="m81.9,22.3v2.5c0,.6.5.7,1.4.6v1.9c-2.8.2-3.6-.6-3.5-2.5v-2.5h-1.1v-2h1.1v-1.3l2.1-.6v2h1.4v2h-1.5,0Z"/><path d="m91.5,24.6l-1,4.2-2-.5.9-3.9c.2-.6,0-1.2-.6-1.4,0,0-.2,0-.3,0-.6-.2-1.3.1-1.5.8,0,.1,0,.2,0,.3l-.9,3.7-2-.5,2.3-9.5,2,.5-.8,3.4c.6-.4,1.4-.6,2.1-.4,1.4.3,2.3,1.7,2,3.1,0,0,0,.2,0,.3Z"/><path d="m97.7,33.2v-3.8l-1.8,2.5-1.7-1.2,5.8-7.9,1.7,1.2-3.5,4.7,3.5-1.2,2,1.5-4.1,1.3v4.4l-1.9-1.4h0Z"/><path d="m102.9,36.2c.3.4.8.7,1.3.7l.3,1.9c-1.2,0-2.3-.5-3-1.5-1.4-1.4-1.3-3.7.1-5.1,0,0,.2-.2.3-.2,1.5-1.3,3.7-1.1,5,.3,0,0,.2.2.2.3,1.2,1.5,1,3.8-.5,5,0,0,0,0-.1,0-.2.2-.5.3-.7.5l-3.1-3.9c-.4.6-.2,1.4.3,1.9h-.1Zm2.8-.6c.4-.6.4-1.3,0-1.9-.4-.6-1.2-.8-1.8-.5l1.9,2.3h0Z"/><path d="m113,43.4l-7.2.6c-2.4.2-3.7-.6-4.4-2.4l1.8-.8c.2.8,1,1.3,1.8,1.1l4.9-5.3,1,2.1-3.3,3.2,4.4-.6.9,2h0Z"/><path d="m111.2,53.3c-1.9.4-3.7-.8-4.1-2.7,0,0,0,0,0-.1-.2-.8,0-1.6.5-2.2l-3.4.5-.3-2.1,9.7-1.4.3,2.1h-.7c.6.5,1,1.2,1.1,2,.2,1.9-1.2,3.6-3.1,3.8,0,0,0,0-.1,0h0Zm-.3-2.1c.9,0,1.5-.8,1.4-1.7,0,0,0-.1,0-.2,0-.8-.8-1.5-1.6-1.4-.1,0-.2,0-.3,0-.9,0-1.5.8-1.4,1.7,0,0,0,.1,0,.2,0,.8.7,1.5,1.5,1.5.1,0,.2,0,.4,0h0Z"/><path d="m113.5,62.5l-6.9-1.1.3-2.1h.6c-.5-.6-.7-1.4-.5-2.1.5-2,2.6-3.1,4.6-2.6,1.7.5,2.8,2,2.7,3.8,0,.8-.5,1.5-1.2,1.9h.6c0,0-.3,2.2-.3,2.2h0Zm-3.1-2.6c.8.2,1.6-.3,1.9-1.1,0-.1,0-.2,0-.3.2-.9-.4-1.7-1.3-1.9,0,0,0,0,0,0-.8-.2-1.6.3-1.9,1.1,0,.1,0,.2,0,.3-.2.9.4,1.7,1.3,1.9,0,0,0,0,0,0h0Z"/><path d="m111.9,73.1l-8.8-4.3.9-1.9.6.3c-.3-.7-.3-1.6.2-2.2,1-1.7,3.1-2.3,4.8-1.4,1.8.7,2.6,2.8,1.8,4.5,0,0,0,0,0,0-.3.7-.9,1.3-1.7,1.5l3.1,1.5-.9,1.9Zm-4.7-4.7c.8.4,1.8.2,2.3-.6,0,0,0,0,0,0,.4-.8.1-1.7-.6-2.1,0,0-.1,0-.2,0-.8-.4-1.8-.2-2.3.6,0,0,0,0,0,0-.4.8-.1,1.7.6,2.1,0,0,.1,0,.2,0Z"/><circle class="cls-4" cx="199.7" cy="56.1" r="45"/><path class="cls-34" d="m189.9,93.5c-.2-.2-.4-.2-.7-.2-3.9-.9-6.5-4.4-6.4-8.4v-40.1c-.1-3.4,1.8-6.4,4.9-7.8,1.1-.5,2.3-.8,3.5-.8h17.2c4.6,0,8.4,3.6,8.4,8.2,0,0,0,.1,0,.2v40.4c0,4-2.8,7.5-6.7,8.2-.3,0-.5,0-.7.2h-19.5Zm9.8-33.1h11.4c1.3,0,1.8-.6,1.8-1.8v-15.1c.2-.9-.5-1.7-1.4-1.9-.2,0-.4,0-.5,0h-22.6c-.9-.2-1.7.5-1.9,1.4,0,.2,0,.4,0,.5v15c0,1.3.5,1.9,1.9,1.9h11.3Zm3.5,7.4c0-1.9-1.5-3.4-3.3-3.4,0,0,0,0,0,0-1.9,0-3.5,1.6-3.5,3.5,0,1.9,1.6,3.4,3.5,3.4,1.9,0,3.5-1.6,3.5-3.5h-.1Zm4.8-.2v1.9c0,.4.2.8.7.9,0,0,.1,0,.2,0h2.9c.4,0,.8-.2.9-.7,0,0,0-.1,0-.2v-3.9c0-.4-.2-.8-.7-.9,0,0-.1,0-.2,0h-2.9c-.4,0-.8.2-.9.7,0,0,0,.1,0,.2v2Zm-21.2.3v2c0,.4.2.8.7.9,0,0,.1,0,.2,0h2.9c.6,0,.9-.3.9-.8v-4c0-.5-.3-.9-.8-.9h-3c-.6,0-.8.3-.9.9v1.9h0Zm23,14.6h1.9c.6,0,.9-.4.9-1,0-1.4-.1-1.9-.8-2h-3.9c-.5,0-.9.3-.9.8,0,0,0,0,0,.1v1.2c0,.6.3.9,1,.9h1.8Zm-20.3,5.7h.9c1.9,0,1.9-.4,1.9-1.9s-.3-1.1-1.1-1.1h-2.5c-2.1,0-2,.3-1.9,2.1,0,.5.4,1,.9,1,0,0,0,0,.1,0h1.8,0Zm10.3-5.7h1.7c.8,0,1.1-.3,1.2-1.1v-.8c0-.8-.3-1.1-1.1-1.1h-2.5c-2.2,0-2,.4-2,2.1,0,.5.3.9.8,1,0,0,.1,0,.2,0h1.8,0Zm0,2.6h-1.9c-.4,0-.8.2-.9.7,0,0,0,.1,0,.2v1.1c0,.5.3,1,.9,1.1,0,0,.1,0,.2,0h2.6c2.1,0,2-.4,2-2.1,0-.5-.3-.9-.8-1,0,0-.1,0-.2,0h-1.9Zm9.9,3.1h.9c2,0,1.9-.4,1.9-2v-.2c0-.5-.3-.9-.8-.9,0,0,0,0-.1,0h-3.7c-.5,0-1,.3-1,.8,0,0,0,0,0,0v1.2c0,.6.4.9,1,.9h1.8Zm-9.9-11.3h.8c2.1,0,2-.3,2-2.1h0c0-.5-.3-.9-.8-.9,0,0,0,0-.1,0h-3.7c-.5,0-.9.3-.9.8,0,0,0,0,0,.1v1.1c0,.7.3,1,1,1h1.7,0Zm9.9,0h1.9c.6,0,.9-.4.9-1,.1-1.3,0-1.9-.7-2.1h-4c-.5,0-.9.3-.9.8,0,0,0,0,0,.1v1.1c0,.5.3.9.8,1,0,0,.1,0,.2,0h1.8Zm-20.2,0h1.9c.7,0,.9-.4.9-1.7s-.3-1.3-.9-1.3h-3.7c-.5,0-.9.3-.9.8,0,0,0,0,0,.1v1.1c0,.7.3,1,1,1h1.7Zm0,5.6h1.9c.6,0,.9-.4.9-1,.1-1.4,0-1.9-.7-2h-3.9c-.5,0-.9.3-1,.8,0,0,0,.1,0,.2v1.1c0,.6.3.9,1,1h1.8Z"/><path class="cls-13" d="m199.7,60.4h-11.2c-1.4,0-1.9-.5-1.9-1.9v-15c0-1.3.5-1.9,1.9-1.9h22.6c1.4,0,1.9.5,1.9,1.9v15.1c0,1.3-.6,1.8-1.8,1.8h-11.5Z"/><path class="cls-26" d="m203.2,67.8c0,1.9-1.6,3.5-3.5,3.5-1.9,0-3.4-1.5-3.5-3.4,0-1.9,1.6-3.5,3.5-3.5,1.9,0,3.4,1.5,3.4,3.3,0,0,0,0,0,0h.1Z"/><path class="cls-26" d="m208,67.6v-2c0-.4.2-.8.7-.9,0,0,.1,0,.2,0h2.9c.4,0,.8.2.9.7,0,0,0,.1,0,.2v3.9c0,.4-.2.8-.7.9,0,0-.1,0-.2,0h-2.9c-.4,0-.8-.2-.9-.7,0,0,0-.1,0-.2v-1.9Z"/><path class="cls-26" d="m186.8,67.9v-1.9c0-.4.2-.8.7-.9,0,0,.1,0,.2,0h3c.5,0,.8.3.8.9v4c0,.6-.3.8-.9.8h-2.9c-.6,0-.8-.3-.9-.9v-2Z"/><path class="cls-26" d="m209.9,82.5h-1.8c-.5,0-1-.3-1-.8,0,0,0,0,0,0v-1.2c0-.5.3-.9.8-.9,0,0,0,0,.1,0h3.9c.7,0,.9.6.8,2,0,.6-.3,1-.9,1h-1.9Z"/><path class="cls-26" d="m189.6,88.1h-1.8c-.5,0-.9-.3-1-.8,0,0,0-.1,0-.2,0-1.8-.2-2.2,1.9-2.1h2.5c.8,0,1.1.3,1.1,1.1,0,1.6,0,2-1.9,1.9h-1,.2Z"/><path class="cls-26" d="m199.9,82.5h-1.8c-.5,0-1-.4-1-.9,0,0,0,0,0-.1,0-1.7-.2-2.2,2-2.1h2.5c.8,0,1.1.3,1.1,1.1v.8c0,.8-.3,1.1-1.2,1.1h-1.7,0Z"/><path class="cls-26" d="m200,85.1h1.8c.5,0,1,.4,1,.9,0,0,0,0,0,.1,0,1.7.2,2.2-2,2.1h-2.6c-.7,0-1-.3-1.1-1.1v-1.1c0-.5.3-.9.8-.9,0,0,0,0,.1,0h2Z"/><path class="cls-26" d="m209.8,88.1h-1.8c-.5,0-1-.3-1-.8,0,0,0,0,0,0v-1.2c0-.6.3-.9,1-.9h3.7c.4,0,.8.2.9.7,0,0,0,.1,0,.2v.2c0,1.6,0,2.1-1.9,2h-1,.1Z"/><path class="cls-26" d="m199.9,76.9h-1.8c-.5,0-.9-.3-1-.8,0,0,0-.1,0-.2v-1.1c0-.5.3-.9.8-.9,0,0,0,0,.1,0h3.7c.5,0,.9.3.9.8,0,0,0,0,0,.1h0c0,1.8.1,2.2-2,2.1h-.7,0Z"/><path class="cls-26" d="m209.8,76.9h-1.8c-.6,0-.9-.4-1-1v-1.1c0-.4.2-.8.7-.9,0,0,.1,0,.2,0h4c.6.2.8.7.7,2.1,0,.5-.3,1-.8,1,0,0,0,0,0,0h-1.9Z"/><path class="cls-26" d="m189.6,76.9h-1.8c-.7,0-1-.3-1-1v-1.1c0-.5.3-.9.8-.9,0,0,0,0,.1,0h3.7c.7,0,.9.4.9,1.3,0,1.3-.2,1.7-.9,1.7h-1.8,0Z"/><path class="cls-26" d="m189.6,82.5h-1.8c-.5,0-.9-.3-1-.8,0,0,0-.1,0-.2v-1.1c0-.5.4-1,.9-1,0,0,0,0,.1,0h3.9c.6,0,.8.7.7,2,0,.6-.3,1-.9,1h-1.9Z"/><path d="m168.9,78.3c1.6-1.4,4.1-1.3,5.5.3l1.1,1.2,2.6-2.4,1.7,1.9-8.3,7.6-2.9-3.1c-1.5-1.5-1.4-4,.1-5.4,0,0,0,0,0,0h0Zm1.7,1.9c-.6.5-.7,1.3-.2,1.9,0,0,0,0,.1.1l1.1,1.2,2.1-1.9-1.1-1.2c-.5-.6-1.3-.6-1.9-.1,0,0,0,0-.1.1h0Z"/><path d="m166.3,68.2l4.4-2.2,1.1,2.2-4.1,2c-.7.3-1,1-.8,1.7,0,0,0,.1,0,.2.3.7,1.1,1.1,1.8.8.1,0,.2,0,.3-.2l3.9-1.9,1.1,2.2-10.1,4.9-1.1-2.2,3.5-1.7c-1.6-.5-2.5-2.1-2.1-3.7.3-.9,1-1.7,1.9-2h.1Z"/><path d="m166.6,66.2c-2.3.4-4.6-1.1-5-3.4-.4-2.3,1.1-4.6,3.4-5,2.3-.4,4.6,1.1,5,3.4,0,0,0,0,0,.1.4,2.3-1.1,4.5-3.4,4.9,0,0,0,0,0,0Zm-1-6c-1,.1-1.6,1-1.5,1.9,0,0,0,.1,0,.2.2,1,1.1,1.7,2.2,1.5,0,0,0,0,0,0,1-.1,1.6-1,1.5-1.9,0,0,0-.1,0-.2-.2-1-1.1-1.7-2.2-1.5,0,0,0,0,0,0Z"/><path d="m165.1,48.4l4.9.5-.3,2.4-4.5-.5c-.7-.1-1.4.3-1.6,1.1,0,0,0,0,0,.1,0,.9.3,1.5,1.5,1.7l4.3.5-.3,2.4-8-.9.3-2.4h.7c-.6-.6-.9-1.5-.7-2.3.2-1.6,1.7-2.8,3.3-2.6,0,0,.2,0,.3,0h.1Z"/><path d="m170,43.6c.2-.5.2-1.2,0-1.7l1.8-1.4c.7,1.2.8,2.7.2,3.9-.7,2.2-3.1,3.4-5.3,2.7-2.2-.7-3.4-3.1-2.7-5.3,0-.1,0-.3.1-.4,1-2.1,3.5-3.1,5.6-2.1.3.1.5.3.8.4l-2.2,5.3c.8,0,1.5-.5,1.8-1.3h-.1Zm-2.1-2.5c-.8-.1-1.6.3-1.8,1.1-.4.7-.2,1.6.5,2.1l1.3-3.2Z"/><path d="m171.9,29.7l1-1.1,1.7,1.5-1,1.1,4.2,3.8-1.6,1.8-4.2-3.8-.7.8-1.7-1.5.7-.8c-1.7-1.5-1.8-3.3,0-5.2l1.7,1.5c-.7.6-.9,1.2-.2,1.9h.1Z"/><path d="m177.9,24.3l1.7,2.1c-.9.4-1.4,1.5-1,2.4,0,.2.2.3.3.5l2.2,2.8-1.9,1.5-5-6.3,1.9-1.5.9,1.1c-.3-1,0-2.1.9-2.7h0Z"/><path d="m187.1,19.7l3.4,7.2-2.2,1-.3-.7c-.3.8-.9,1.5-1.7,1.9-2,.9-4.4,0-5.3-2.1,0,0,0,0,0-.1-1-1.9-.3-4.3,1.6-5.3,0,0,0,0,.1,0,.8-.5,1.8-.5,2.6,0l-.3-.7,2.2-1h0Zm-.5,4.6c-.4-1-1.5-1.4-2.5-1,0,0,0,0,0,0-.9.4-1.4,1.5-1,2.5,0,0,0,0,0,.1.4,1,1.5,1.4,2.5,1,0,0,0,0,0,0,.9-.4,1.4-1.5,1-2.4,0,0,0-.1,0-.2Z"/><path d="m202.8,20.5l.4,4.9-2.4.2-.4-4.7c0-.6-.4-1.1-.9-1.2-.1,0-.2,0-.4,0-.8,0-1.2.7-1.1,1.6l.4,4.5-2.4.2-.4-4.7c0-.6-.4-1.1-.9-1.2-.1,0-.2,0-.4,0-.8,0-1.2.7-1.1,1.6l.4,4.5-2.4.2-.7-8,2.4-.2v.7c.5-.7,1.3-1.1,2.1-1.1.8,0,1.7.2,2.2.9.5-.8,1.3-1.2,2.2-1.2,1.8-.2,3.1,1.1,3.3,3h.1Z"/><path d="m208.4,25.1c.5.1,1.1,0,1.6-.2l1.6,1.6c-1.8,1.6-4.6,1.4-6.1-.4-1.6-1.8-1.4-4.6.4-6.1,1.1-.9,2.5-1.3,3.9-.9,2.1.5,3.4,2.6,2.9,4.7,0,.1,0,.3-.1.4,0,.3-.2.6-.3.9l-5.5-1.5c0,.9.7,1.4,1.6,1.6Zm2.2-2.4c0-.8-.5-1.5-1.3-1.7-.8-.3-1.6,0-2,.8l3.3.9Z"/><path d="m219.4,33v-4.4c.1,0-2,2.8-2,2.8l-1.9-1.5,6.8-8.9,1.9,1.5-4.1,5.3,4-1.3,2.2,1.7-4.7,1.4v5l-2.2-1.7h0Z"/><path d="m225.3,36.5c.3.4.8.7,1.4.8l.3,2.2c-1.4,0-2.7-.6-3.5-1.7-1.5-1.7-1.4-4.3.2-5.8.1-.1.2-.2.4-.3,1.8-1.5,4.4-1.2,5.9.6,0,0,0,0,0,.1,1.4,1.8,1.1,4.3-.7,5.7,0,0,0,0-.1,0-.2.2-.5.4-.8.5l-3.5-4.5c-.4.7-.3,1.6.3,2.2h0Zm3.2-.6c.5-.6.5-1.5,0-2.1-.5-.7-1.3-.9-2.1-.6l2.1,2.7Z"/><path d="m236.6,45l-8.2.5c-2.7.2-4.2-.7-5-2.8l2.1-.9c.2.9,1.1,1.5,2,1.3l5.8-5.9,1,2.4-3.8,3.7,5.1-.5,1,2.4v-.2Z"/><path d="m234.3,56.3c-2.2.4-4.3-1.1-4.7-3.3,0,0,0,0,0,0-.2-.9,0-1.8.7-2.5l-3.9.5-.3-2.4,11.1-1.4.3,2.4h-.7c.7.6,1.2,1.4,1.3,2.3.2,2.2-1.4,4.1-3.5,4.3,0,0-.1,0-.2,0h-.1Zm-.3-2.4c1,0,1.8-.9,1.7-2,0,0,0,0,0-.1,0-1-1-1.7-1.9-1.6,0,0-.2,0-.2,0-1,0-1.8.9-1.7,2,0,0,0,0,0,.1,0,1,1,1.7,1.9,1.6,0,0,.2,0,.2,0Z"/><path d="m236.8,66.8l-7.9-1.4.4-2.4h.7c-.5-.7-.8-1.6-.6-2.4.4-2.1,2.5-3.5,4.7-3,0,0,0,0,.1,0,2.2.3,3.8,2.2,3.5,4.4,0,0,0,0,0,0-.1.9-.6,1.7-1.4,2.2h.7c0,0-.4,2.5-.4,2.5h.2Zm-3.5-3.1c1,.2,2.1-.4,2.3-1.4,0,0,0,0,0,0,.2-1-.4-1.9-1.3-2.2,0,0-.2,0-.3,0-.9-.2-1.9.3-2.2,1.2,0,0,0,.2,0,.3-.2,1,.4,1.9,1.3,2.2,0,0,.2,0,.3,0h-.1Z"/><path d="m234.8,78.8l-10-5.1,1.1-2.1.7.3c-.3-.9-.3-1.8.2-2.6,1.2-2,3.8-2.6,5.8-1.4,1.7,1.1,2.5,3.3,1.7,5.2-.4.8-1.1,1.5-2,1.7l3.5,1.8-1.1,2.1h.1Zm-5.3-5.4c1,.4,2.1,0,2.5-.9.4-1,0-2.1-.9-2.5-.9-.4-2,0-2.5.9-.5.9-.2,2,.7,2.5,0,0,.1,0,.2.1h0Z"/><circle class="cls-5" cx="198.5" cy="194.6" r="45"/><path d="m165.2,179.4c1.8.7,2.7,2.7,2.1,4.5,0,0,0,.1,0,.2l-.6,1.5,3.1,1.2-.9,2.2-9.8-3.8,1.4-3.7c.6-1.8,2.7-2.8,4.5-2.2,0,0,.1,0,.2,0h.1Zm-.9,2.2c-.6-.3-1.3,0-1.6.5,0,0,0,.1,0,.2l-.6,1.5,2.5,1,.6-1.5c.3-.6,0-1.3-.6-1.6,0,0-.1,0-.2,0h0Z"/><path d="m172.5,172.9l3.7,2.7-1.3,1.8-3.4-2.5c-.6-.5-1.4-.4-1.9.1-.5.6-.4,1.4.1,1.9,0,0,.2.1.3.2l3.3,2.4-1.3,1.8-8.5-6.2,1.3-1.8,3,2.2c-.2-.8,0-1.6.5-2.3.9-1.2,2.5-1.6,4.2-.4h0Z"/><path d="m174.2,172.3c-1.4-1.7-1.1-4.1.6-5.5,0,0,0,0,.1-.1,1.7-1.4,4.2-1.1,5.6.6,1.4,1.7,1.1,4.1-.6,5.5,0,0,0,0-.1.1-1.7,1.4-4.2,1.1-5.6-.6Zm4.5-3.5c-.6-.8-1.7-.9-2.5-.3,0,0,0,0,0,0-.8.6-.9,1.7-.3,2.5,0,0,0,0,0,0,.6.8,1.7.9,2.5.3,0,0,0,0,0,0,.8-.6.9-1.7.3-2.5,0,0,0,0,0,0Z"/><path d="m188.2,163l1.8,4.2-2.1.9-1.7-3.9c-.2-.6-.8-1-1.4-.8,0,0-.2,0-.3.1-.8.3-1.1,1-.7,2l1.6,3.8-2.1.9-2.9-6.9,2.1-.9.3.6c.2-.8.8-1.4,1.6-1.7,1.4-.6,3-.1,3.8,1.8h0Z"/><path d="m194.4,164.7c.5,0,1-.3,1.3-.8l1.9.8c-1.2,2-3.8,2.6-5.7,1.4-1-.6-1.8-1.7-2-2.8-.3-2.2,1.2-4.2,3.4-4.5,2.1-.3,4,1.1,4.3,3.2,0,0,0,.1,0,.2v.9l-5.3.7c.4.7,1.2,1,1.9.8h.2Zm1-2.9c-.3-.6-1-1-1.7-1-.8,0-1.4.6-1.5,1.4l3.2-.4Z"/><path d="m199.6,160.6l5.7.6-.2,2.1-5.7-.6.2-2.1Z"/><path d="m214.6,166.2c-.6,2-2.8,3.1-4.7,2.4,0,0,0,0,0,0-.8-.3-1.4-.9-1.8-1.6l-.3.7-2.1-.8,3.7-9.8,2.1.8-1.3,3.5c.7-.4,1.7-.4,2.4,0,1.9.9,2.7,3.1,1.9,5l.2-.2Zm-2.1-.8c.4-.8.1-1.8-.7-2.2-.1,0-.2,0-.3-.1-.8-.4-1.8,0-2.2.8,0,0,0,.2-.1.3-.4.8-.1,1.8.7,2.2.1,0,.2,0,.3.1.8.4,1.8,0,2.2-.8,0-.1,0-.2.1-.3h0Z"/><path d="m215.7,166.9c1.3-1.8,3.8-2.1,5.6-.8h0c1.7,1.2,2.2,3.6,1,5.3,0,0-.1.1-.2.2-1.3,1.8-3.8,2.1-5.6.8h0c-1.7-1.2-2.2-3.6-1-5.3,0,0,.1-.1.2-.2Zm4.6,3.4c.6-.7.5-1.9-.3-2.5,0,0,0,0,0,0-.7-.6-1.7-.5-2.2.2,0,0-.1.1-.2.2-.6.7-.5,1.9.3,2.5,0,0,0,0,0,0,.7.6,1.7.5,2.2-.2,0,0,.1-.1.2-.2h0Z"/><path d="m233.2,174.8l-8.3,6.4-1.4-1.8.6-.4c-.9,0-1.6-.5-2.1-1.2-1.2-1.7-.8-4.1,1-5.3,0,0,0,0,0,0,1.6-1.4,3.9-1.2,5.3.4,0,0,0,0,0,0,.6.6.8,1.5.6,2.3l2.9-2.3,1.4,1.8h0Zm-6.7,2.3c.8-.5,1-1.6.5-2.4,0,0,0,0,0-.1-.5-.8-1.6-1-2.3-.4,0,0-.1,0-.2.1-.8.5-1,1.6-.5,2.4,0,0,0,0,0,.1.5.8,1.6,1,2.3.4,0,0,.1,0,.2-.1Z"/><path d="m235,185.8l-7.7.4c-2.5.1-3.9-.7-4.6-2.7l1.9-.8c.2.9,1,1.4,1.9,1.3l5.5-5.5.9,2.3-3.6,3.3,4.8-.5.9,2.2h0Z"/><path d="m239,191.2l-10.3,1.9-.4-2.4,7.8-1.4-.8-1.7,1.9-.9,1.5,2.5.4,2.1h0Z"/><path class="cls-57" d="m187.9,227.9c0-.2-.2-.1-.4-.2-2-.5-3.4-2.3-3.4-4.4v-38.8c0-2.7,1.1-4.2,3.6-5,0,0,.1,0,.1,0h0s3.4,0,3.4,0h0c.5,1.4,1.1,2.7,1.6,4,.1.3.4.4.7.4h9.7c.3,0,.7-.2.8-.5l.6-1.5c.4-.8.7-1.6.9-2.4h3.3c.2.2.5.2.8.3,1.8.6,3,2.3,3.1,4.2v38.8c0,2.8-1.1,4.3-3.8,5.2h-21Zm23.7-7.3h0v-33.8c0-.4-.3-.2-.5-.2h-25.5c-.4,0-.5.1-.5.5v33.4h26.5Zm-13.1,3.1h-4.4c-.5,0-.7.2-.6.7s.4.5.7.5h8.6c.5,0,.7-.2.7-.6s-.3-.5-.7-.5h-4.3Z"/><path class="cls-40" d="m205.7,179.4c-.3.8-.6,1.6-.9,2.4l-.6,1.5c0,.4-.4.6-.8.5h-9.7c-.3,0-.6-.1-.7-.4-.5-1.3-1.1-2.6-1.6-3.9h0c0-.1,14.3-.1,14.3-.1Z"/><path class="cls-2" d="m185.4,220.6c-.2-.1,0-.3,0-.4v-33c0-.4,0-.5.5-.5h25.5c.2,0,.4-.2.5.2-.2,0-.3.2-.5.4-.3.5-.7,1-1.1,1.4l-4.3,5.5c-1.1,1.5-2.3,2.9-3.4,4.4l-4.3,5.5c-1.1,1.5-2.3,2.9-3.4,4.4-1.5,2-3.1,3.9-4.6,5.9-1.1,1.4-2.2,2.8-3.2,4.2-.5.7-1.1,1.3-1.5,2h-.2Z"/><path class="cls-45" d="m185.4,220.6c.4-.7,1-1.3,1.5-2,1.1-1.4,2.2-2.8,3.2-4.2,1.5-2,3.1-3.9,4.6-5.9,1.1-1.5,2.3-2.9,3.4-4.4l4.3-5.5c1.1-1.5,2.3-2.9,3.4-4.4l4.3-5.5,1.1-1.4c0-.2.3-.4.5-.4v33.7h-26.3Z"/><path class="cls-25" d="m198.5,223.7h4.3c.4,0,.7,0,.7.5s-.2.6-.7.6h-8.6c-.3,0-.6,0-.7-.5s.1-.7.6-.7h4.4Z"/><path d="m196.8,190.3h5.7v25.9h-6.6v-18.9l-4.5,1.1-1.6-5.6,7-2.5Z"/><circle class="cls-3" cx="334.8" cy="199.2" r="45"/><path class="cls-56" d="m334.8,186h28.5c2.2-.1,4,1.5,4.1,3.7v1c0,.8-.2,1.5-.4,2.3-.3,1.6,0,2,1.6,1.9,2.7-.1,3.4.8,3.3,3.3v17.8c0,5.9-.7,2.6-2.6,2.6h-5.5c-1.3,0-1.4.1-1.7,1.4l-.7,4.2c-.3,1.9-2,3.3-3.9,3.3h-45.3c-2,0-3.7-1.4-3.9-3.4-.3-1.5-.5-2.9-.8-4.4-.1-.8-.5-1.1-1.3-1.1h-6.1c-1.1.1-2.1-.7-2.3-1.8v-19.6c-.1-1.1.7-2.1,1.8-2.3h1.8c1.1,0,1.5-.4,1.3-1.6-.1-.9-.3-1.8-.5-2.7-.4-2.1.9-4.2,3-4.6h29.6Zm0,7.6h-19.9c-2.4,0-3.7,1.6-3.3,4,.4,2.4.9,4.9,1.3,7.4.8,4.2,1.5,8.4,2.3,12.6.3,1.5,1.6,2.6,3.1,2.5h32.9c1.5,0,2.8-1,3.1-2.5.5-2.6,1-5.3,1.4-7.9.7-4,1.5-8.1,2.1-12.1.4-2.3-.9-3.8-3.3-3.8h-19.8v-.2Zm30.4,5.1c-1.3,0-2.4,1.1-2.5,2.4h0c0,1.3,1.1,2.4,2.4,2.4,1.3,0,2.4-1.1,2.4-2.4h0c0-1.3-.9-2.3-2.2-2.4h-.1,0Zm-60.8,16.1c1.3,0,2.4-1.1,2.4-2.4h0c0-1.3-1.1-2.3-2.4-2.4-1.4,0-2.4,1.1-2.4,2.5h0c0,1.2.9,2.2,2.1,2.3,0,0,0,0,.1,0h.2Zm-2.4-13.7c0,1.3,1.1,2.4,2.4,2.4,1.3,0,2.4-1.1,2.5-2.4,0-1.4-1.1-2.5-2.5-2.5,0,0,0,0,0,0h0c-1.3,0-2.3.9-2.4,2.2v.3Zm65.6,11.3c0-1.3-1-2.4-2.3-2.5-1.3,0-2.4,1.1-2.5,2.4,0,1.3,1.1,2.4,2.4,2.4,1.2,0,2.3-.9,2.4-2.1,0,0,0,0,0,0v-.2Z"/><path class="cls-14" d="m334.8,193.6h19.9c2.4,0,3.7,1.4,3.3,3.8-.7,4-1.4,8.1-2.1,12.1-.5,2.6-.9,5.3-1.4,7.9-.3,1.5-1.6,2.6-3.1,2.5h-33.1c-1.5,0-2.8-1-3.1-2.5-.8-4.2-1.5-8.4-2.3-12.5-.4-2.5-.9-4.9-1.3-7.4-.4-2.5.9-4,3.3-4h19.9Zm-12.6,8.1c0-1.4-1.1-2.5-2.5-2.5s-2.5,1.1-2.5,2.5,1.1,2.5,2.5,2.5c1.4,0,2.5-1.1,2.5-2.5,0,0,0,0,0,0h0Zm2.5,7.7c-1.3,0-2.4,1.1-2.5,2.4,0,1.4,1.1,2.5,2.5,2.5s2.5-1.1,2.5-2.5c0-1.3-1.1-2.4-2.4-2.4,0,0,0,0-.1,0Zm27.7-7.6c0-1.4-1-2.5-2.4-2.5-1.3,0-2.4,1.1-2.5,2.4,0,1.4,1,2.5,2.4,2.5h0c1.4,0,2.4-1.1,2.4-2.5h.1Zm-7.5,7.6c0-1.4,1.2-2.5,2.6-2.5,1.4,0,2.5,1.2,2.5,2.6s-1.2,2.5-2.6,2.5c-1.4,0-2.5-1.1-2.5-2.5h0Zm-12.6-7.6c-1.4,0-2.4,1.1-2.4,2.5s1.1,2.4,2.5,2.4c1.4,0,2.4-1.1,2.4-2.5,0-1.3-1.1-2.4-2.4-2.4h-.1Zm7.6-2.5c-1.4,0-2.5,1.1-2.5,2.5s1.1,2.5,2.5,2.5,2.5-1.1,2.5-2.5c0-1.4-1.1-2.5-2.5-2.5,0,0,0,0,0,0h0Zm-2.6,12.7c0-1.4-1-2.5-2.4-2.5-1.4,0-2.5,1-2.5,2.4,0,1.4,1,2.5,2.4,2.5h0c1.4,0,2.5-1,2.5-2.4Z"/><path class="cls-38" d="m365.2,198.7c1.3,0,2.3.9,2.4,2.2v.2c0,1.3-1.1,2.4-2.4,2.5h0c-1.3,0-2.4-1.1-2.4-2.4,0-1.3,1.1-2.4,2.4-2.4h0Z"/><path class="cls-38" d="m304.4,214.8c-1.2,0-2.3-.9-2.4-2.1v-.2c0-1.4,1-2.5,2.4-2.5,0,0,0,0,0,0h0c1.4,0,2.5,1,2.5,2.4,0,1.4-1,2.5-2.4,2.5h-.1Z"/><path class="cls-38" d="m302,201.1c0-1.2.9-2.3,2.1-2.4h.3c1.3,0,2.4,1.1,2.4,2.4,0,0,0,0,0,.1,0,1.3-1.1,2.3-2.4,2.4-1.3,0-2.4-1.1-2.4-2.4h0Z"/><path class="cls-38" d="m367.6,212.4c0,1.3-.9,2.3-2.2,2.4h-.2c-1.3,0-2.4-1.1-2.4-2.4,0-1.3,1.2-2.4,2.5-2.4,1.3,0,2.3,1.1,2.3,2.3,0,0,0,.1,0,.2h0Z"/><path class="cls-20" d="m322.2,201.7c0,1.4-1.1,2.5-2.5,2.5s-2.5-1.1-2.5-2.5,1.1-2.5,2.5-2.5h0c1.4,0,2.4,1.1,2.5,2.5Z"/><path class="cls-16" d="m324.7,209.3c1.3,0,2.4,1.1,2.5,2.4,0,1.4-1.1,2.5-2.5,2.5s-2.5-1.1-2.5-2.5h0c0-1.4,1.1-2.4,2.5-2.4,0,0,0,0,0,0Z"/><path class="cls-49" d="m352.4,201.7c0,1.4-1.1,2.5-2.5,2.5s-2.5-1.1-2.5-2.5,1.1-2.5,2.5-2.5c1.4,0,2.5,1.1,2.5,2.5,0,0,0,0,0,0Z"/><path class="cls-16" d="m344.9,209.3c1.4,0,2.5,1.1,2.5,2.5s-1.1,2.5-2.5,2.5-2.5-1.1-2.5-2.5c0-1.4,1.1-2.5,2.5-2.5,0,0,0,0,0,0Z"/><path class="cls-14" d="m332.4,207.7c1.8,0,3.3-1.6,3.3-3.4,0-1.8-1.6-3.3-3.4-3.3s-3.3,1.6-3.3,3.4c0,1.8,1.5,3.2,3.3,3.3h.1Z"/><path class="cls-16" d="m339.8,199.2c1.4,0,2.5,1.1,2.5,2.5s-1.1,2.5-2.5,2.5-2.5-1.1-2.5-2.5c0-1.4,1.1-2.5,2.5-2.5,0,0,0,0,0,0Z"/><path class="cls-16" d="m337.2,211.9c0,1.4-1.1,2.4-2.5,2.4,0,0,0,0,0,0-1.3,0-2.4-1.2-2.4-2.5,0-1.4,1.1-2.4,2.5-2.4,0,0,0,0,0,0,1.3,0,2.4,1.2,2.4,2.5Z"/><path d="m319.9,166.9c1.3,2.3.5,5.3-1.9,6.6,0,0,0,0,0,0l-1.8,1,2.2,3.8-2.8,1.6-7-12.1,4.6-2.6c2.2-1.4,5.2-.7,6.5,1.6,0,0,0,0,0,.1h0Zm-2.8,1.6c-.4-.8-1.4-1.2-2.3-.8,0,0,0,0-.1,0l-1.8,1,1.8,3.1,1.8-1c.8-.5,1.1-1.6.6-2.4h0Z"/><path d="m323,170.2c-.6-2.9,1.3-5.7,4.2-6.2,2.9-.6,5.7,1.3,6.2,4.2.6,2.9-1.3,5.7-4.2,6.2,0,0,0,0,0,0-2.9.5-5.6-1.3-6.2-4.2Zm7.5-1.4c-.2-1.2-1.3-2.1-2.6-1.9,0,0,0,0-.1,0-1.2.2-2,1.3-1.9,2.5,0,0,0,.2,0,.3.2,1.2,1.3,2.1,2.6,1.9,0,0,0,0,.1,0,1.2-.2,2-1.3,1.9-2.4,0,0,0-.2,0-.3h0Z"/><path d="m342.1,163.9l-.3,3.4c-1.2-.3-3,0-3.2,2l-.4,4.5-3-.3,1-10,3,.3-.2,1.8c.6-1.2,1.9-1.9,3.2-1.7h-.1Z"/><path d="m347.9,168.8l-1.1,3.4c-.3.8.4,1.1,1.7,1.5l-.9,2.6c-3.8-.9-4.5-2.4-3.6-5l1.1-3.4-1.5-.5.9-2.7,1.5.5.6-1.8h3.1c0,.1-.9,2.8-.9,2.8l2,.7-.9,2.7-2-.7h0Z"/><path d="m356.4,178.2c-1.2,1.9-3.5,1.7-5.3.5-1.6-.8-2.5-2.5-2.3-4.3l3,.2c-.2.7,0,1.6.8,1.9.6.4,1,.4,1.2,0,.6-.9-3.8-3.1-2-6,1.2-1.8,3.3-1.8,5.1-.6,1.4.8,2.2,2.3,2.1,3.9l-2.9-.2c0-.6,0-1.1-.6-1.5-.4-.3-.8-.3-1,0-.6,1,3.9,3,1.9,6.1Z"/><path class="cls-16" d="m331.2,204.7c1.4,0,2.4-1.1,2.4-2.5,0-1.4-1.1-2.4-2.5-2.4s-2.4,1.1-2.4,2.5c0,1.3,1.1,2.4,2.4,2.4h.1Z"/></svg>