<?xml version="1.0" encoding="UTF-8"?><svg id="Layer_1" xmlns="http://www.w3.org/2000/svg" viewBox="0 0 400 355"><defs><style>.cls-1{fill:#375e7d;}.cls-2{fill:#1f2275;}.cls-3,.cls-4,.cls-5,.cls-6,.cls-7,.cls-8{stroke-miterlimit:10;}.cls-3,.cls-9{fill:#fff;}.cls-3,.cls-8{stroke:#231f20;stroke-width:2px;}.cls-4{stroke:#a5262d;}.cls-4,.cls-5,.cls-6,.cls-7{stroke-width:4px;}.cls-4,.cls-5,.cls-6,.cls-7,.cls-8{fill:none;}.cls-10{fill:#7da1b1;}.cls-11{fill:#8fbac5;}.cls-12{fill:#90b9e0;}.cls-5{stroke:#0018c6;}.cls-13{fill:#727272;}.cls-14{fill:#d2d5d7;}.cls-15{fill:#2b4d66;}.cls-16{fill:#3a926c;}.cls-17{fill:#445367;}.cls-6{stroke:#c000e2;}.cls-18{fill:#f1f6f6;}.cls-19{fill:#626363;}.cls-20{fill:#453e43;}.cls-21{fill:#455368;}.cls-22{fill:#2b4e68;}.cls-23{fill:#364a5f;}.cls-24{fill:#fedd46;}.cls-25{fill:#d0cde6;}.cls-26{fill:#c9c9c9;}.cls-27{fill:#02f1a6;}.cls-28{fill:#2a7ec6;}.cls-29{fill:#2b506b;}.cls-7{stroke:#00b51e;}.cls-30{fill:#b63cdb;}.cls-31{fill:#90bae0;}.cls-32{fill:#93dbfe;}.cls-33{fill:#afd2ef;}.cls-34{fill:#e5e4ec;}.cls-35{fill:#c69c6d;}.cls-36{fill:#fcd6ac;}.cls-37{fill:#adbbff;}.cls-38{fill:#42210b;}.cls-39{fill:#685e66;}.cls-40{fill:#a0280e;}.cls-41{fill:#22a5fc;}.cls-42{fill:#000d6a;}.cls-43{fill:#6f7070;}.cls-44{fill:#fde077;}.cls-45{fill:#fee077;}.cls-46{fill:#ddebf0;}.cls-47{fill:#0aaffe;}.cls-48{fill:#395f7e;}.cls-49{fill:#4582c2;}.cls-50{fill:#607890;}.cls-51{fill:#eef0fb;}.cls-52{fill:#cbb293;}.cls-53{fill:#374b60;}.cls-54{fill:#fed05b;}.cls-55{fill:#d1d5d6;}.cls-56{fill:#fcd6ad;}.cls-57{fill:#fec345;}.cls-58{fill:#7dcbe5;}.cls-59{fill:#ff1d25;}.cls-60{fill:#636363;}.cls-61{fill:#8622fd;}.cls-62{fill:#0693fb;}.cls-63{fill:#fee078;}.cls-64{fill:#6665c6;}.cls-65{fill:#fd6220;}.cls-66{fill:#cee5ec;}.cls-67{fill:#fde6cd;}.cls-68{fill:#529aff;}.cls-69{fill:#6a3223;}.cls-70{fill:#751d0a;}.cls-71{fill:#e5eff1;}.cls-72{fill:#1a1a1a;}.cls-73{fill:#445368;}.cls-74{fill:#f8f6f7;}.cls-75{fill:#d0cde7;}.cls-76{fill:#fdd15b;}.cls-77{fill:#cbb292;}.cls-78{fill:#29abe2;}.cls-79{fill:#6ab579;}.cls-80{fill:#db411d;}.cls-81{fill:#754c24;}.cls-82{fill:#dcd9ea;}.cls-83{fill:#ccf2ff;isolation:isolate;opacity:.5;}.cls-84{fill:#231f20;}.cls-85{fill:#b9c2fe;}.cls-86{fill:#c65d42;}.cls-87{fill:#9fddea;}.cls-88{fill:#2dbafe;}.cls-89{fill:#3636a0;}.cls-90{fill:#2c4d66;}.cls-91{fill:#e2c8aa;}</style></defs><circle class="cls-7" cx="346" cy="174.1" r="40.5"/><path d="m325.5,150.3c1.9,1.5,2.2,4.3.7,6.2-.1.1-.2.3-.4.4-1.7,2.1-4.7,2.4-6.8.7,0,0-.1-.1-.2-.2-2.1-1.9-2.2-5-.4-7.1,1.1-1.2,2.7-1.8,4.2-1.6l-.5,2.1c-.9,0-1.8.3-2.3,1-1,1.1-1,2.8.1,3.8,0,0,.1,0,.2.1,1.1,1,2.8,1,3.8,0,0,0,.2-.2.2-.3.8-.7,1-1.8.5-2.8l-1.7,1.9-1.4-1.3,3.1-3.5.6.5h0Z"/><path d="m333.9,146.6c1,1.6.6,3.7-1,4.7-.6.4-1.4.5-2.2.3l1.7,2.9-1.7,1-4.8-8.2,1.7-1,.4.5c.2-.8.7-1.4,1.4-1.7,1.7-.9,3.7-.2,4.6,1.4h0Zm-1.7,1c-.4-.8-1.3-1.1-2.1-.7,0,0,0,0-.1,0-.7.4-1,1.3-.7,2,0,0,0,.1.1.2.4.8,1.3,1.1,2.1.7,0,0,0,0,.1,0,.7-.4,1-1.3.7-2,0,0,0-.1-.1-.2h0Z"/><path d="m341.3,143.8l1,4-2,.5-1-3.7c0-.6-.6-1-1.2-1,0,0-.2,0-.2,0-.7.1-1.1.8-1,1.4,0,0,0,.1,0,.2l.9,3.6-2,.5-2.3-9.2,2-.5.8,3.2c.3-.6.9-1.1,1.6-1.3,1.3-.4,2.7.4,3.1,1.7,0,.1,0,.2,0,.4h.2Z"/><path d="m342.9,144.4c0-2,1.6-3.6,3.6-3.6,2,0,3.6,1.6,3.6,3.6,0,2-1.6,3.6-3.6,3.6,0,0,0,0,0,0-2,0-3.5-1.6-3.5-3.6,0,0,0,0,0,0Zm5.1,0c0-.8-.5-1.5-1.4-1.6,0,0-.1,0-.2,0-.9,0-1.6.7-1.6,1.5,0,.8.5,1.5,1.4,1.6,0,0,.1,0,.2,0,.9,0,1.6-.7,1.6-1.5Z"/><path d="m358,145.8l-1.2,4-2-.5,1.1-3.7c.2-.6,0-1.2-.6-1.5,0,0-.1,0-.2,0-.6-.2-1.3,0-1.5.7,0,0,0,.2,0,.3l-1,3.5-2-.5,1.9-6.5,2,.5-.2.6c.6-.4,1.4-.5,2.1-.3,1.4.4,2.2,1.6,1.6,3.4h0Z"/><path d="m361.3,150.5c.4.3.9.3,1.4.3l.9,1.6c-2,.7-4.1-.3-4.8-2.3-.4-1-.3-2.2.3-3.1,1-1.6,3.1-2.2,4.7-1.2,0,0,.2.1.2.2,1.6,1,2.1,3.1,1.1,4.7,0,0,0,.1-.1.2-.2.2-.3.4-.5.6l-4.1-2.5c-.1.7.3,1.4.9,1.6Zm2.3-1.4c.2-.8-.2-1.7-1-1.9-.5-.1-1,0-1.4.3l2.4,1.5h0Z"/><path d="m372.1,159.3c-1.4,1.1-3.4.8-4.4-.6,0,0-.1-.2-.2-.2-1-1.1-1.1-2.6-.4-3.9l2,.8c-.4.5-.4,1.3,0,1.8.5.7,1.2.7,1.6.4.4-.3.5-1,.2-1.4,0,0-.1-.2-.2-.2l-.3-.4.4-1.4h2.8l-2.1-2.7,1.6-1.3,3.7,4.9-1.4,1.1h-2.6c.4,1.1,0,2.4-.9,3.1h0Z"/><path class="cls-30" d="m335.7,157h20.7c2,0,3.7,1.6,3.7,3.6,0,0,0,0,0,0v44.2c0,2-1.6,3.7-3.6,3.7,0,0,0,0,0,0h-20.7c-2,0-3.7-1.6-3.7-3.6,0,0,0,0,0,0v-44.2c0-2,1.6-3.7,3.6-3.7,0,0,0,0,0,0Z"/><path class="cls-61" d="m356.4,157h-20.7c-2,0-3.7,1.6-3.7,3.6,0,0,0,0,0,0v44.2l28.1-44.2c0-2-1.6-3.7-3.6-3.7,0,0,0,0,0,0Z"/><rect class="cls-16" x="334.9" y="160" width="22.3" height="42"/><path class="cls-9" d="m349,158.5c0,.3-.3.5-.5.5h-4.8c-.3,0-.5-.3-.5-.5h0c0-.3.3-.5.5-.5h4.8c.3,0,.5.3.5.5Z"/><path class="cls-9" d="m348,206.8h-.5c-.3,0-.6,0-.9-.2-.4,0-.7-.2-1.1-.2-.4,0-.9-.1-1.3-.3h-.2c-.2,0-.2-.2-.2-.4,0-.2.1-.4.3-.6.1-.3.3-.7.5-1,0-.2.3-.5.4-.6.2-.3.6-.4.9-.2,0,0,.2.1.2.2,0,0,.2.3.4.5.2.4.4.6.6,1l1.1,1.6v.2c0,.2,0,.3-.2.3v-.3Z"/><path class="cls-59" d="m348.2,173.8h-.5c-.3,0-.7,0-1-.2-.4,0-.8-.1-1.2-.3-.5,0-.9-.1-1.4-.3h-.2c-.2,0-.2-.2-.2-.4s.2-.5.3-.6c.2-.4.3-.7.5-1.1.1-.2.2-.4.4-.6.2-.3.7-.4,1-.2,0,0,.1.1.2.2.1.1.3.3.4.5.2.3.5.7.6,1.1.4.5.7,1.2,1.1,1.7v.2c0,.2,0,.3-.2.3l.2-.3Z"/><path class="cls-59" d="m349,165.6h.2c.2,0,.2,0,.2.3s0,.2-.2.3c-.4.5-.8,1.1-1.3,1.5-.4.5-.8.9-1.2,1.3-.2.2-.5.4-.7.5-.3,0-.6,0-.9-.2-.2-.1-.3-.3-.4-.4-.4-.5-.7-1.1-1.1-1.7-.1-.3-.3-.5-.5-.7h0c0-.2,0-.3.2-.3.8,0,1.5,0,2.2-.2.7,0,1.3,0,2-.2h1.4v-.2Z"/><path d="m342.5,188.4c.5.1,1,.5,1.3.9.3.4.4.9.5,1.4,0,.8-.3,1.6-.9,2.1-.6.5-1.4.7-2.2.7-.7,0-1.3-.1-1.9-.4-.5-.3-.9-.9-1.2-1.4l1.9-1.1c0,.6.6,1,1.2.9.6,0,.5,0,.7-.2.2-.1.3-.3.3-.5,0-.2,0-.5-.3-.5s-.4-.2-.7-.2h-.5l-.8-1.3,1.4-1.6h-2.8v-2.1h5.5v1.7l-1.4,1.7h0Z"/><path d="m353.6,188.5v.9c0,1.1-.4,2.2-1.2,3-.8.8-1.9,1.2-3.1,1.2-1.2,0-2.4-.4-3.2-1.3-.8-.8-1.3-2-1.3-3.1,0-1.2.4-2.3,1.3-3.1.8-.8,2-1.3,3.1-1.3.8,0,1.5.1,2.2.5.6.3,1.2.8,1.5,1.4l-1.8,1.1c-.2-.3-.4-.5-.7-.6-.3-.2-.7-.3-1.1-.3-1.3,0-2.3,1.1-2.2,2.3,0,.6.2,1.1.6,1.5.5.5,1.1.7,1.8.7.8,0,1.6-.4,2-1.1h-2.1v-1.9h4.1Z"/><polygon class="cls-83" points="334.9 202 334.9 160 357.2 160 334.9 202"/><circle class="cls-7" cx="54" cy="174.1" r="40.5"/><path d="m33.5,150.9c1.9,1.5,2.2,4.3.7,6.2-.1.1-.2.3-.4.4-1.7,2.1-4.7,2.4-6.8.7,0,0-.1-.1-.2-.2-2.1-1.9-2.2-5-.4-7.1,1.1-1.2,2.7-1.8,4.2-1.6l-.5,2.1c-.9,0-1.8.3-2.3,1-1,1.1-1,2.8.1,3.8,0,0,.1,0,.2.1,1.1,1,2.8,1,3.8,0,0,0,.2-.2.2-.3.8-.7,1-1.8.5-2.8l-1.7,1.9-1.4-1.3,3.2-3.5.6.5h0Z"/><path d="m41.9,147.2c1,1.6.6,3.7-1,4.7-.6.4-1.4.5-2.2.3l1.7,2.9-1.7,1-4.8-8.2,1.7-1,.4.5c.2-.8.7-1.4,1.4-1.7,1.7-.9,3.7-.2,4.6,1.4h0Zm-1.7,1c-.4-.8-1.3-1.1-2.1-.7,0,0,0,0-.1,0-.7.4-1,1.3-.7,2,0,0,0,.1.1.2.4.8,1.3,1.1,2.1.7,0,0,0,0,.1,0,.7-.4,1-1.3.7-2,0,0,0-.1-.1-.2Z"/><path d="m49.3,144.3l1,4.1-2,.5-1-3.7c0-.6-.6-1-1.2-1,0,0-.2,0-.2,0-.7.1-1.1.8-1,1.4,0,0,0,.1,0,.2l.9,3.6-2,.5-2.3-9.2,2-.5.8,3.2c.3-.6.9-1.1,1.6-1.3,1.3-.4,2.7.4,3.1,1.7,0,.1,0,.2,0,.4h.2Z"/><path d="m50.9,144.8c0-2,1.6-3.6,3.6-3.6,2,0,3.6,1.6,3.6,3.6,0,2-1.6,3.6-3.6,3.6,0,0,0,0,0,0-2,0-3.5-1.6-3.5-3.6,0,0,0,0,0,0Zm5.1,0c0-.8-.5-1.5-1.4-1.6,0,0-.1,0-.2,0-.9,0-1.6.7-1.6,1.5,0,.8.5,1.5,1.4,1.6,0,0,.1,0,.2,0,.9,0,1.6-.7,1.6-1.5Z"/><path d="m66,146.3l-1.2,4-2-.5,1.1-3.7c.2-.6,0-1.2-.6-1.5,0,0-.1,0-.2,0-.6-.2-1.3,0-1.5.7,0,0,0,.2,0,.3l-1,3.5-2-.5,1.9-6.5,2,.5-.2.6c.6-.4,1.4-.5,2.1-.3,1.4.4,2.2,1.6,1.6,3.4h0Z"/><path d="m69.3,151c.4.3.9.3,1.4.3l.9,1.6c-2,.7-4.1-.3-4.8-2.3-.4-1-.3-2.2.3-3.1,1-1.6,3.1-2.2,4.7-1.2,0,0,.2.1.2.2,1.6,1,2.1,3.1,1.1,4.7,0,0,0,.1-.1.2-.2.2-.3.4-.5.6l-4.1-2.5c-.1.7.3,1.4.9,1.6Zm2.3-1.4c.2-.8-.2-1.7-1-1.9-.5-.1-1,0-1.4.3l2.4,1.5h0Z"/><path d="m74.9,155.4l4.5.5c.6.1,1.3,0,1.9-.3.4-.3.5-1,.2-1.4,0,0,0,0,0,0-.4-.5-1-.7-1.6-.5l-.3-2.1c1.3-.3,2.7.2,3.6,1.3,1.1,1.3.9,3.2-.3,4.3,0,0,0,0-.1,0-.9.7-2.1.9-3.2.6l-2.2-.3,1.9,2.5-1.6,1.3-4-5.1,1.3-1h0Z"/><path class="cls-80" d="m43.7,157h20.7c2,0,3.7,1.6,3.7,3.6,0,0,0,0,0,0v44.2c0,2-1.6,3.7-3.6,3.7,0,0,0,0,0,0h-20.7c-2,0-3.7-1.6-3.7-3.6,0,0,0,0,0,0v-44.2c0-2,1.6-3.7,3.6-3.7,0,0,0,0,0,0Z"/><path class="cls-65" d="m64.4,157h-20.7c-2,0-3.7,1.6-3.7,3.6,0,0,0,0,0,0v44.2l28.1-44.2c0-2-1.6-3.7-3.6-3.7,0,0,0,0,0,0Z"/><rect class="cls-26" x="42.4" y="163.5" width="23.3" height="34.9"/><path class="cls-9" d="m57,158.5c0,.3-.3.5-.5.5h-4.8c-.3,0-.5-.3-.5-.5h0c0-.3.3-.5.5-.5h4.8c.3,0,.5.3.5.5Z"/><path class="cls-9" d="m56,204.9h-.5c-.3,0-.6,0-.9-.2-.4,0-.7-.2-1.1-.2-.4,0-.9-.1-1.3-.3h-.2c-.2,0-.2-.2-.2-.4,0-.2.1-.4.3-.6.1-.3.3-.7.5-1,0-.2.3-.5.4-.6.2-.3.6-.4.9-.2,0,0,.2.1.2.2,0,0,.2.3.4.5.2.4.4.6.6,1l1.1,1.6v.2c0,.2,0,.3-.2.3v-.3Z"/><path class="cls-9" d="m48.4,201.5c0,0-.2.3-.3.4l-.5.8c-.2.3-.4.6-.6.9l-.8,1.1c0,0,0,.1,0,.2-.1,0-.3,0-.4,0-.2-.2-.3-.4-.4-.5s-.4-.5-.7-.8c-.2-.2-.3-.4-.4-.6-.2-.3-.1-.7.2-.9,0,0,.1,0,.2,0,.2,0,.4,0,.5,0,.4,0,.8,0,1.2-.2.6,0,1.3-.1,1.9-.3h.2c.2,0,.3,0,.2.3h0Z"/><path class="cls-9" d="m59.6,201c.1,0,.3,0,.4,0l.9.3c.4,0,.7.3,1.1.4s.8.3,1.3.4h.2c.2,0,.2.2,0,.4s-.3.4-.4.5c-.2.3-.4.6-.6.9-.2.2-.3.4-.4.5-.3.3-.7.3-1,0,0,0,0,0,0,0,0-.2-.2-.3-.3-.5l-.5-1.1c-.3-.5-.5-1.2-.8-1.7v-.2c0-.2,0-.3.3-.3v.2Z"/><path class="cls-59" d="m56.2,173.8h-.5c-.3,0-.7,0-1-.2-.4,0-.8-.1-1.2-.3-.5,0-.9-.1-1.4-.3h-.2c-.2,0-.2-.2-.2-.4s.2-.5.3-.6c.2-.4.3-.7.5-1.1.1-.2.2-.4.4-.6.2-.3.7-.4,1-.2,0,0,.1.1.2.2.1.1.3.3.4.4.2.3.5.7.6,1.1.4.5.7,1.2,1.1,1.7v.2c0,.2,0,.3-.2.3l.2-.3Z"/><path class="cls-59" d="m57,165.6h.2c.2,0,.2,0,.2.3s0,.2-.2.3c-.4.5-.8,1.1-1.3,1.5-.4.5-.8.9-1.2,1.3-.2.2-.5.4-.7.5-.3,0-.6,0-.9-.2-.2-.1-.3-.3-.4-.5-.4-.5-.7-1.1-1.1-1.7-.1-.3-.3-.5-.5-.7h0c0-.2,0-.3.2-.3.8,0,1.5,0,2.2-.2.7,0,1.3,0,2-.2h1.4v-.2Z"/><path d="m47.1,193.3v-1.5l2.8-3c.3-.3.4-.5.6-.7,0-.2.2-.3.2-.5,0-.2,0-.4-.2-.5-.2-.1-.3-.2-.5-.2-.5,0-1,.4-1.2.9l-1.9-1.1c.2-.6.6-1.1,1.2-1.4.5-.3,1.2-.5,1.8-.5.8,0,1.5.3,2.1.7.6.5.9,1.2.9,2,0,.5,0,1-.4,1.4-.3.5-.6.9-1,1.4l-1.2,1.2h2.6v2.1h-5.9,0Z"/><path d="m62.1,188.5v.9c0,1.1-.4,2.2-1.2,3-.8.8-1.9,1.2-3.1,1.2-1.2,0-2.4-.4-3.2-1.3-.8-.8-1.3-2-1.3-3.1,0-1.2.4-2.3,1.3-3.2.8-.8,2-1.3,3.2-1.3.8,0,1.5.1,2.2.5.6.3,1.2.8,1.5,1.4l-1.8,1.1c-.2-.3-.4-.5-.7-.6-.3-.2-.7-.3-1.1-.3-1.3,0-2.3,1.1-2.2,2.3,0,.6.2,1.1.6,1.5.5.5,1.1.7,1.8.7.8,0,1.6-.4,2-1.1h-2.1v-1.9h4.1Z"/><polygon class="cls-83" points="42.3 197.5 42.3 163.3 65.5 163.3 42.3 197.5"/><line class="cls-9" x1="251.6" y1="174.4" x2="298.9" y2="173.7"/><line class="cls-8" x1="251.6" y1="174.4" x2="288.2" y2="173.9"/><polygon class="cls-84" points="286.1 181.4 298.9 173.7 285.9 166.4 286.1 181.4"/><line class="cls-9" x1="101.1" y1="174.4" x2="148.4" y2="173.7"/><line class="cls-8" x1="111.8" y1="174.3" x2="148.4" y2="173.7"/><polygon class="cls-84" points="114.1 181.7 101.1 174.5 113.9 166.8 114.1 181.7"/><circle class="cls-6" cx="200" cy="174.1" r="45"/><path d="m166.6,158.5c1.9.7,2.8,2.8,2.1,4.7,0,0,0,0,0,0l-.6,1.5,3.1,1.2-.8,2.2-9.8-3.7,1.4-3.7c.7-1.9,2.8-2.9,4.7-2.2h0Zm-.8,2.2c-.6-.3-1.3,0-1.6.5,0,0,0,.1,0,.2l-.5,1.5,2.5.9.6-1.5c.3-.7,0-1.4-.7-1.7,0,0,0,0,0,0h-.1Z"/><path d="m173.8,152l3.7,2.7-1.3,1.8-3.5-2.5c-.6-.4-1.5-.2-1.9.4-.4.6-.2,1.5.4,1.9h0l3.3,2.4-1.3,1.8-8.5-6.2,1.3-1.8,3,2.2c-.2-.8,0-1.6.5-2.3,1-1.3,2.8-1.5,4.1-.6,0,0,0,0,0,0h.1Z"/><path d="m175.6,151.3c-1.4-1.7-1.1-4.2.6-5.6,1.7-1.4,4.2-1.1,5.6.6,1.4,1.7,1.1,4.2-.6,5.6,0,0,0,0,0,0-1.7,1.4-4.2,1.1-5.6-.6Zm4.4-3.6c-.6-.8-1.7-.9-2.5-.3,0,0,0,0,0,0-.7.5-.9,1.6-.4,2.3,0,0,0,.1.2.2.6.8,1.7.9,2.5.3,0,0,0,0,0,0,.7-.5.9-1.6.3-2.3,0,0,0-.1-.2-.2h0Z"/><path d="m189.4,141.9l1.8,4.2-2.1.9-1.7-3.9c-.2-.6-.8-1-1.4-.8,0,0-.2,0-.3.1-.8.3-1.1,1-.7,2l1.6,3.8-2.1.9-3-6.9,2.1-.9.3.6c.2-.8.8-1.4,1.6-1.7,1.4-.6,3.1,0,3.7,1.5,0,0,0,.2,0,.2h0Z"/><path d="m195.6,143.6c.5,0,1-.3,1.3-.8l1.9.8c-1,2-3.4,2.9-5.4,1.9-2-1-2.9-3.4-1.9-5.4.6-1.2,1.7-2,3-2.2,2-.3,3.9,1.1,4.3,3.1,0,.1,0,.2,0,.3v.9l-5.3.8c.4.7,1.2,1,1.9.8h.2Zm1-2.9c-.3-.7-1-1-1.7-.9-.8,0-1.3.6-1.4,1.4l3.2-.5h-.1Z"/><path d="m200.8,139.4l5.7.6-.2,2.2-5.7-.6.2-2.1h0Z"/><path d="m215.9,144.9c-.6,2-2.7,3.1-4.7,2.5,0,0,0,0,0,0-.8-.2-1.5-.8-1.8-1.6l-.2.7-2.1-.8,3.6-9.8,2.1.8-1.3,3.5c.7-.4,1.7-.4,2.4,0,1.9.8,2.8,3.1,2,5v-.3Zm-2.1-.8c.4-.8.1-1.8-.7-2.2-.1,0-.2,0-.3-.1-.8-.4-1.8,0-2.2.8,0,0,0,.2-.1.3-.4.8-.1,1.8.7,2.2.1,0,.2,0,.3.1.8.4,1.8,0,2.2-.8,0,0,0-.2.1-.3Z"/><path d="m217,145.5c1.3-1.7,3.7-2.1,5.4-.9,0,0,0,0,0,0,1.7,1.3,2.1,3.7.9,5.5-1.5,1.6-4,1.7-5.7.2-1.3-1.3-1.6-3.3-.7-4.9Zm4.6,3.4c.6-.7.5-1.8-.3-2.4,0,0,0,0,0,0-.7-.6-1.7-.5-2.2.2,0,0-.1.1-.2.2-.6.7-.5,1.8.3,2.4,0,0,0,0,0,0,.7.6,1.7.5,2.2-.2,0,0,.1-.2.2-.2h0Z"/><path d="m234.6,153.3l-8.3,6.5-1.4-1.8.6-.4c-.9,0-1.6-.5-2.1-1.2-1.2-1.7-.8-4.1.9-5.3,1.5-1.4,3.8-1.2,5.2.2,0,0,0,0,.1.2.5.6.8,1.5.7,2.3l2.9-2.3,1.4,1.8Zm-6.7,2.4c.8-.5,1-1.5.5-2.2,0,0-.1-.2-.2-.3-.5-.8-1.6-1-2.3-.4,0,0-.1,0-.2.1-.8.5-1,1.5-.5,2.2,0,0,.1.2.2.3.5.8,1.6,1,2.3.4,0,0,.1,0,.2-.1h0Z"/><path d="m236.5,164.3l-7.7.5c-2.5.2-3.9-.7-4.6-2.7l1.9-.8c.2.9,1,1.4,1.9,1.2,0,0,0,0,0,0l5.4-5.5,1,2.3-3.6,3.3,4.8-.5.9,2.2h0Z"/><path d="m231.2,166.7l4.2,2.9c.5.5,1.3.8,2,.8.6,0,1-.5.9-1.1,0,0,0-.2,0-.2-.1-.7-.7-1.2-1.4-1.3l.8-2.2c1.5.4,2.6,1.6,2.8,3.1.4,1.8-.7,3.5-2.5,4,0,0-.1,0-.2,0-1.3.1-2.5-.3-3.5-1.1l-2-1.4.6,3.5-2.3.4-1.1-7.1,1.7-.3Z"/><path class="cls-60" d="m205.4,158.3h6.1c1.8.1,3.2,1.5,3.4,3.3v41.4c.1,1.7-.9,3.2-2.5,3.8-.4.1-.7.2-1.1.2h-22.6c-2,0-3.7-1.7-3.7-3.7v-4h1.8v4c0,1,.7,1.9,1.7,1.9,0,0,.2,0,.3,0h22.2c1,0,1.9-.7,2-1.8,0,0,0-.2,0-.2v-41c0-1-.7-1.9-1.7-2,0,0-.1,0-.2,0h-4.6c0-.8-.7-1.3-1.1-1.9Z"/><path class="cls-13" d="m205.4,158.3c.4.6,1,1.1,1.1,1.8h-17.3c-1.7,0-2.4.7-2.4,2.4v36.7h-1.8v-36.9c-.1-1.6.8-3.1,2.3-3.7.4-.2.8-.3,1.3-.3h16.8Z"/><path class="cls-88" d="m186.8,199.3v-36.7c0-1.7.7-2.4,2.4-2.4h17.4v36c0,1.7-1.2,3-2.9,3.1,0,0,0,0-.1,0h-16.8,0Zm13.1-33.5h3.6c1,0,1.9-.8,2-1.8,0-1-.8-1.9-1.8-1.9,0,0-.1,0-.2,0h-7.2c-1,0-1.9.8-2,1.8,0,1,.8,1.9,1.8,1.9,0,0,.1,0,.2,0h3.6Zm-4.2,22.9c.2,0,.4-.1.6-.3l9.2-9.2c.2-.2.4-.5.3-.8-.1-.3-.2-.6-.6-.7-.4-.1-.8,0-1.1.3l-9.1,9.1-.2.2c-.2.3-.2.6,0,.9.2.3.5.5.9.5h0Zm5.7-11.1c0-.4-.3-.7-.6-.9-.5-.2-.8,0-1.1.4l-5.5,5.5c-.5.5-.5,1.1,0,1.4s1,.4,1.4,0c1.9-1.8,3.7-3.7,5.6-5.5.2-.2.3-.4.4-.7h0l-.2-.2Z"/><path class="cls-47" d="m186.9,199.3h16.7c1.6,0,3-1.2,3-2.8,0,0,0-.2,0-.3v-36h4.5c1,0,1.9.7,1.9,1.7,0,0,0,.2,0,.3v41c0,1-.7,1.9-1.8,2,0,0-.2,0-.2,0h-22.2c-1.1,0-2-.8-2-1.8,0,0,0,0,0,0v-4h.1Zm13.1,3.1h-5.4c-.7,0-1.2.3-1.2.9,0,.6.4,1,1,1,0,0,0,0,.1,0h10.8c.7,0,1.2-.4,1.1-.9,0-.6-.6-1-1.2-.9,0,0,0,0,0,0h-5.4.2Z"/><path class="cls-43" d="m199.9,165.8h-3.6c-1,0-1.9-.7-2-1.7,0,0,0-.1,0-.2,0-1,.8-1.8,1.8-1.8,0,0,.2,0,.2,0h7.2c1,0,1.9.7,2,1.7,0,0,0,.1,0,.2,0,1-.9,1.8-1.9,1.8,0,0,0,0-.1,0h-3.6Z"/><path class="cls-32" d="m195.7,188.7c-.4,0-.7-.2-.9-.5-.1-.3-.1-.6,0-.9l.2-.2,9.1-9.1c.3-.3.7-.4,1.1-.3.4.1.5.4.6.7.1.3,0,.6-.3.8l-9.2,9.2c-.2.2-.4.3-.6.3Z"/><path class="cls-19" d="m199.9,202.3h5.4c.7,0,1.2.3,1.2.9s-.4.9-1.1.9h-10.8c-.7,0-1.2-.4-1.1-1s.4-.9,1.2-.9h5.4-.2Z"/><path d="m190.4,196.4v-4.8l8.6-9.1c.7-.7,1.3-1.5,1.9-2.3.4-.5.6-1.1.6-1.7,0-.6-.2-1.2-.6-1.6-.5-.4-1.1-.6-1.7-.6-1.5,0-2.7.9-3.5,2.7l-5.7-3.2c.7-1.8,2-3.4,3.7-4.4,3.7-2.2,8.3-2,11.7.7,1.8,1.5,2.7,3.7,2.6,6,.1,1.5-.3,3-1.1,4.2-.8,1.5-1.9,2.8-3.1,4l-3.5,3.7h8.1v6.4h-18Z"/><circle class="cls-4" cx="40.7" cy="45" r="36.5"/><path class="cls-90" d="m61.8,61.4c-.2.8-.5,1.5-1,2.1-.9,1.2-2.3,1.9-3.8,1.9h-4.4c-.7,0-.8-.2-.8-.9v-1.4c1.6,0,3.1,0,4.7,0,.8,0,1.6-.4,2.1-1.1.7-1,1-2.2,1-3.5h2.3v2.8h0Z"/><path class="cls-25" d="m61.8,58.6h-2.2v-12.4h2.2v12.4h0Z"/><path class="cls-90" d="m61.8,46.1h-2.2v-2.2c0-1.5-.8-2.8-1.9-3.6-.6-.4-1.3-.7-2-1,1.4-.2,2.9.1,4.1.9,1,.7,1.7,1.8,1.9,3.1h0c0,0,0,2.8,0,2.8Z"/><path class="cls-34" d="m21.3,54.4h-3.8c-.9,0-1.8-.3-2.3-1.1,0,0-.1,0-.2,0v-1.3h0c.4.7,1.2,1,1.9.9h4.1c.1.2.1.5,0,.7,0,.2-.2.4,0,.6v.2h0Z"/><path class="cls-41" d="m31.4,40.6c.5,0,1.1,0,1.6,0h15.9v19.1c0,.5-.3,1-.7,1.3,0-.7-.2-1-1-1h-11.5c-.6,0-.9.3-.8,1h-3.6v-20.3h0Zm10.2,11.1h-5.6c-.7,0-1.1.2-1.1.7s.4.7,1.1.7h11.7c.3,0,.6-.4.6-.7h0c0-.3-.2-.6-.6-.6h-6.1Zm0-6.9h5.8c.6,0,.8-.2.8-.6s-.2-.7-.9-.7h-11.5c-.2,0-.6,0-.7.2-.2.2-.2.5,0,.7.1.3.4.5.7.4h5.9Zm0,4.1h5.9c.3,0,.6,0,.7-.3.1-.2.1-.5,0-.7-.2-.2-.5-.2-.8-.2h-11.9c-.3.1-.5.5-.5.8h0c.1.4.4.6.8.6h5.8Zm0,8.3h5.8c.2,0,.4,0,.6,0,.3-.2.4-.5.3-.8,0-.3-.4-.5-.7-.5h-11.7c-.3,0-.6.1-.8.4-.2.6.2,1,.7,1h5.8Z"/><path class="cls-1" d="m55.5,39.3c.7.2,1.4.6,2,1,1.1.9,1.9,2.2,1.9,3.6v2.2h-1.5c-.5,0-.9.4-.9.9,0,0,0,.1,0,.2h0v10.4c0,.5.3,1,.8,1,0,0,0,0,0,0h1.5c0,1.2-.3,2.4-1,3.5-.5.6-1.3,1-2.1,1.1-1.6.1-3.1.1-4.7,0v-22.8c0-1.4.2-1.2,1.3-1.2h2.6Z"/><path class="cls-62" d="m51.7,40.5v23.8h-16.5c-.2,0-.3,0-.5,0h-2.8c-.2,0-.3,0-.4-.2v-3.1h3.5c.2.3.5.5.9.5h11.4c.4,0,.7-.2,1-.5.5-.2.8-.8.7-1.3v-19.1c.9,0,1.9,0,2.8,0v-.2Z"/><path class="cls-1" d="m31.4,40.6v20.4h-.9c-1.8-.3-3.3-1.3-4.3-2.8-.5-.8-.8-1.7-1-2.6v-7.9c0-.8,0-1.5.2-2.3.6-2.8,3.2-4.8,6.1-4.7h-.1Z"/><path class="cls-48" d="m33,34.4h-.6c-.5,0-.9-.2-.9-.7v-1.9c0-.8.2-1.1,1.1-1.1h8.9c.4.4.6,1,.4,1.5v.7c.1.5,0,1.1-.5,1.5h-8.3Z"/><path class="cls-75" d="m33,34.4h9.8v6.2h-2.3v-2.4c0-.2,0-.3-.2-.4v-.3c.3-.6.2-.8-.5-.8h-6.8v-2.2Z"/><path class="cls-82" d="m40.3,37.6c.2,0,.2.2.2.4v2.4h-7.5v-4.1h6.9c.6,0,.7.2.5.8-.2-.6-.6-.6-1-.5-.3.2-.5.6-.3.9.1.2.3.3.5.4.4.1.8-.1.9-.5h-.2Zm-4.1-.9c-.4,0-.7.3-.7.6,0,.4.3.7.7.7.4,0,.7-.3.7-.7,0-.4-.3-.7-.7-.7h0Z"/><path class="cls-82" d="m25.1,47.6v7.5h-1.8c-.6,0-1.2-.3-1.5-.7,0-.1-.1-.2-.2-.2-.2-.2,0-.4,0-.6,0-.2,0-.5,0-.7v-3.8c0-.8.7-1.4,1.5-1.4h2.1,0Z"/><path class="cls-74" d="m21.3,50.4v2.3h-4.1c-.8,0-1.5-.3-1.9-1,.3-.9,1.2-1.5,2.2-1.4h3.9Z"/><path class="cls-90" d="m42.8,34.4h-1.5c.4-.4.6-.9.5-1.5v-.7c.1-.6,0-1.1-.5-1.5h2.2c.4,0,.8.3.9.7,0,0,0,0,0,0v1.9c0,.7-.3,1.1-1.1,1.1h-.6,0Z"/><path class="cls-82" d="m47.3,69.9h1.2c.5.5.7,1.2.6,1.9v.7c0,.3-.2.7-.4.9,0,0-.2,0-.2.2-6.9-.2-13.8,0-20.7,0s-1.4-.5-1.3-1.3v-1.4c0-.6.4-1,1-1.1,0,0,0,0,0,0h19.8,0Z"/><path class="cls-90" d="m25.1,55.5c.2.9.5,1.8,1,2.6,1,1.5,2.5,2.5,4.3,2.8h1v3.3c-3,0-5.5-2.1-6.2-4.9,0-.7-.1-1.4-.2-2.1v-1.7h.2Z"/><path class="cls-22" d="m31.4,64.3v-.2c0,.2.3.2.5.2h3.3v5.6h-1.7v-3.3c0-.5,0-.6-.6-.6h-1.4v-1.6h0Z"/><path class="cls-15" d="m47.3,69.9h-1.6v-3.5c0-.3-.2-.5-.4-.6,0,0,0,0-.1,0h-1.5v-1.6c.6,0,1.2,0,1.9,0h1.9v5.7Z"/><path class="cls-25" d="m48.4,73.7c0-.2.2-.2.2-.2.3-.2.4-.5.4-.9v-.7c.2-.7,0-1.4-.6-1.9h2.6c.6,0,1.2.4,1.2,1.1v1.5c0,.6-.3,1.2-1,1.4h-2.9v-.2Z"/><path class="cls-25" d="m25.1,55.5v1.7h-2c-.9,0-1.7-.6-1.8-1.5v-1.2c0,0,0-.2,0-.2s.2.2.2.2c.4.5.9.7,1.5.7h1.8v.4h.2Z"/><path class="cls-1" d="m31.5,65.8h1.4c.5,0,.6.2.6.6,0,1.1,0,2.3,0,3.4h-1.9v-4h-.1Z"/><path class="cls-82" d="m59.5,58.6h-1.3c-.5,0-1-.3-1-.8,0,0,0,0,0,0v-10.5c0-.5.3-1,.8-1,0,0,0,0,0,0h1.6v12.4h-.1Z"/><path class="cls-29" d="m48.3,61c-.2.3-.5.5-.9.5h-11.5c-.4,0-.7-.2-.9-.5,0-.6.2-1,.8-1h11.4c.7,0,1,.2,1,1Z"/><path class="cls-29" d="m41.6,51.6h6c.3,0,.6.3.6.6,0,.4-.2.7-.6.7h-11.7c-.6,0-1.1-.2-1.1-.7s.3-.7,1.1-.7h5.6Z"/><path class="cls-15" d="m41.6,44.8h-5.8c-.3,0-.6-.1-.7-.4,0-.2,0-.5,0-.7.2-.2.5-.3.7-.2h11.5c.6,0,.9.2.9.7s-.2.6-.8.6h-5.8Z"/><path class="cls-15" d="m41.6,49h-5.8c-.4,0-.7-.2-.8-.6,0-.3.1-.7.4-.8,0,0,0,0,0,0h11.8c.3,0,.6,0,.8.2.2.2.2.5,0,.7-.2.3-.4.4-.7.4h-5.8Z"/><path class="cls-15" d="m41.6,57.2h-5.8c-.6,0-1-.5-.7-1,.1-.3.5-.5.8-.4h11.7c.3,0,.7.2.8.5.1.3,0,.7-.3.8-.2,0-.4,0-.6,0h-5.8Z"/><path class="cls-29" d="m40.3,37.6c0,.4-.5.6-.8.5,0,0,0,0,0,0-.3,0-.6-.4-.5-.8,0,0,0,0,0,0,0-.2.2-.4.4-.5.4-.2.7,0,1,.5v.3Z"/><path class="cls-29" d="m36.2,36.7c.4,0,.7.3.7.7,0,.4-.3.7-.7.7h0c-.4,0-.7-.3-.7-.7,0-.4.3-.7.7-.7,0,0,0,0,0,0h0Z"/><path class="cls-48" d="m43.6,69.9v-4h1.5c.4,0,.6.2.6.6v3.5h-2.1Z"/><path d="m8,43.5l.3-1.9,6.1-.8-5.5-2.7.3-1.9,7.5,3.9-.4,2.3-8.3,1.3h0Z"/><path d="m10.5,35.2c-.5-.2-.8-.8-.6-1.3.2-.5.8-.8,1.3-.6.5.2.8.8.6,1.3-.2.5-.8.8-1.3.6,0,0,0,0,0,0Zm1.5.4l.6-1.6,5.3,1.9-.6,1.6-5.3-1.9Z"/><path d="m18.8,28.3c1.4.7,1.9,2.4,1.2,3.8,0,0,0,0,0,0-.3.6-.8.9-1.5,1.1l.5.2-.9,1.5-6.8-4.1.9-1.5,2.4,1.5c-.2-.6,0-1.2.2-1.8.9-1.3,2.6-1.7,4-.8h0Zm-.9,1.5c-.6-.4-1.4-.3-1.8.3,0,0,0,0,0,0-.4.6-.2,1.4.3,1.8,0,0,0,0,.1,0,.6.4,1.4.3,1.8-.3,0,0,0,0,0,0,.4-.6.2-1.4-.3-1.8,0,0,0,0-.1,0Z"/><path d="m19.9,23l1.4,1.3c-.6.4-.8,1.2-.5,1.8,0,.1.1.2.2.3l1.9,1.8-1.1,1.2-4.1-3.9,1.1-1.2.7.7c-.3-.7-.2-1.5.3-2h0Z"/><path d="m25.7,18.8l3.2,4.6-1.4,1-.3-.4c0,.6-.4,1.2-1,1.5-1.3.9-3.1.5-3.9-.8,0,0,0,0,0,0-1-1.2-.8-3,.4-3.9,0,0,0,0,0,0,.5-.4,1.2-.5,1.8-.4l-.3-.4,1.4-1h0Zm.2,3.3c-.3-.6-1.1-.8-1.6-.5,0,0-.2,0-.2.2-.6.4-.8,1.2-.4,1.8,0,0,0,0,0,0,.3.6,1.1.8,1.6.5,0,0,.2,0,.2-.2.6-.4.8-1.2.4-1.8,0,0,0,0,0,0Z"/><path d="m30.2,18.6l.8,1.9c.2.5.6.3,1.3,0l.6,1.5c-1.9,1.1-2.8.7-3.4-.7l-.8-1.9-.8.3-.6-1.5.8-.3-.4-1,1.4-1.1.6,1.5,1.1-.5.6,1.5-1.1.5h0Z"/><path d="m31.5,14.8c-.1-.5.2-1.1.7-1.2s1.1.2,1.2.7-.2,1.1-.7,1.2c0,0,0,0,0,0-.5.2-1,0-1.2-.6,0,0,0,0,0-.1Zm.6,1.5l1.6-.4,1.5,5.5-1.6.4-1.5-5.5Z"/><path d="m35.5,18.1c-.1-1.7,1.1-3.1,2.8-3.2,0,0,0,0,0,0,1.6-.2,3.1,1,3.2,2.6,0,0,0,0,0,.1.1,1.7-1.1,3.1-2.8,3.2,0,0,0,0,0,0-1.6.2-3.1-1-3.2-2.6,0,0,0,0,0-.1Zm4.3-.3c0-.7-.5-1.2-1.2-1.2,0,0-.2,0-.2,0-.7,0-1.2.6-1.2,1.3,0,0,0,.1,0,.2,0,.7.5,1.2,1.2,1.2,0,0,.2,0,.2,0,.7,0,1.2-.6,1.2-1.3,0,0,0-.1,0-.2Z"/><path d="m48.3,18l-.6,3.4-1.7-.3.6-3.2c.1-.5-.2-1.1-.7-1.2,0,0,0,0,0,0-.5-.1-1,.2-1.2.7,0,0,0,.2,0,.3l-.5,3.1-1.7-.3,1-5.6,1.7.3v.5c.4-.4,1-.6,1.6-.4,1.1.2,1.9,1.1,1.7,2.7h0Z"/><path d="m50,17.9l4,1.7-.6,1.5-4-1.7.6-1.5Z"/><path d="m61.9,26.4l-2.2,2.7-1.3-1.1,2.1-2.6c.3-.4.4-.9,0-1.2-.4-.3-1-.2-1.3.2,0,0,0,0,0,0l-2,2.4-1.3-1.1,2.1-2.6c.3-.4.4-.9,0-1.2-.4-.3-1-.2-1.3.2,0,0,0,0,0,0l-2,2.4-1.3-1.1,3.6-4.4,1.3,1.1-.3.4c1.1-.2,2.1.6,2.2,1.6,0,.1,0,.3,0,.4.6-.1,1.3,0,1.8.5.9.7,1.1,2.1.3,3,0,0,0,.1-.1.2h-.2Z"/><path d="m62.2,27.9c1.4-.9,3.2-.5,4.1.9.9,1.4.5,3.2-.9,4.1-1.4.9-3.2.5-4.1-.9h0c-.9-1.4-.5-3.2.9-4.1Zm2.3,3.6c.6-.3.8-1.1.5-1.7,0,0,0,0,0,0-.4-.6-1.2-.8-1.8-.4,0,0,0,0,0,0-.6.3-.8,1.1-.5,1.7,0,0,0,0,0,0,.4.6,1.2.8,1.8.4,0,0,0,0,0,0Z"/><path d="m67.6,35.5l-1.9.7c-.5.2-.3.6,0,1.3l-1.5.6c-1-2-.6-2.8.9-3.4l1.9-.7-.3-.8,1.5-.6.3.8,1-.4,1.1,1.4-1.5.6.4,1.1-1.5.6-.4-1.1Z"/><path d="m67.3,37.8c1.6-.3,3.1.8,3.4,2.3,0,0,0,.1,0,.2.2,1.6-.8,3.2-2.4,3.5-1.6.3-3.1-.8-3.4-2.3,0,0,0-.1,0-.2-.2-1.6.8-3.2,2.4-3.5Zm.7,4.2c.7-.1,1.2-.8,1.1-1.5,0-.7-.7-1.2-1.3-1.1,0,0-.1,0-.2,0-.7.1-1.2.8-1.1,1.5,0,.7.7,1.2,1.3,1.1,0,0,.1,0,.2,0Z"/><path d="m70.9,48.4h-1.9c.2-.8,0-1.8-1.2-1.9h-2.6v-1.8l5.7.2v1.7h-1.1c.7.3,1.1,1,1.1,1.8h0Z"/><circle class="cls-5" cx="279.7" cy="45" r="36.5"/><path class="cls-36" d="m301.5,67.1v.6c-.1.4-.4.8-.8,1.1l-7.8,5.3c-.7.5-1.7.3-2.2-.4,0,0,0,0,0,0-.2-.4-.6-.8-.8-1.2-.5-1-1.6-1.6-2.7-1.5-1.5.1-3-.6-3.7-1.9-.7-1.1-1.4-2.1-2.1-3.2,0-.2-.2-.3-.3-.3,0-.2,0-.3-.2-.4-.6-.9-1.1-1.7-1.7-2.6-.9-1.2-.6-2.8.6-3.7,0,0,0,0,0,0,.4-.3.7-.5,1.1-.8.2,0,.2.2.3.2.8,1.1,1.5,2.3,2.3,3.5l1.9,2.9c.2.3.7.4,1.1.2.3-.2.4-.7.2-1.1h0c0,0,0-.2-.2-.2-2.6-3.7-5.1-7.5-7.7-11.3-1.6-2.4-3.3-4.9-4.9-7.3-.4-.5-.6-1-.6-1.6,0-.2.2-.5,0-.8v-.2c.9-.4,2-.2,2.6.6.5.7,1,1.4,1.5,2.1,1,1.4,1.9,2.8,2.8,4.1.3.5.6,1,1,1.4h0s0,.2,0,.2c.2.3.5.7.7,1,.2.2.6.2.9,0,.3-.2.3-.6,0-1.1-.5-.6-.7-1.3-.6-2,0-.2.2-.4,0-.6.9-.5,2-.2,2.6.6.1.3.3.5.6.7.2.4.4.8.7,1.2.3.2.6.3,1,.2.3-.2.4-.6.2-1-.1-.2-.2-.4-.4-.6-.4-.6-.6-1.3-.4-2v-.3c.6-.4,1.4-.4,2,0,.6.3.8.9,1.2,1.3h0c.2.4.4.8.7,1.1.2.2.6.2.9,0,.2-.2.4-.4.3-.7,0-.2-.1-.4-.2-.6-.5-.6-.7-1.3-.6-2v-.6c1-.4,2.1,0,2.7.8,1.5,2.3,3.1,4.5,4.5,6.7,1.2,1.9,1.9,4,2.2,6.2.2,1.6.2,3.1.2,4.7,0,.9.2,1.9.6,2.7v.4Zm-2.3,0c0-.3-.2-.5-.4-.6-.3-.1-.6-.1-.8,0-.8.6-1.6,1.1-2.4,1.6-.3.2-.5.6-.3.9,0,0,0,0,0,.1.2.3.7.4,1.1.2h0c.8-.6,1.6-1.1,2.4-1.6.2-.1.4-.4.4-.6Zm-4.9,3.4c0-.4-.2-.7-.6-.7-.1,0-.3,0-.4,0-.3.1-.5.3-.7.5-.2.3-.3.6-.2,1,.2.3.6.4.9.2,0,0,0,0,0,0,.2-.1.4-.3.6-.5.2-.2.2-.2.2-.4h0Z"/><path class="cls-33" d="m265.1,45.6v-10.4c0-1,.6-1.9,1.6-2.2h2.3c.3.4.4.9.4,1.4,0,.8.5,1.5,1.3,1.5,0,0,.1,0,.2,0h5.6c.8,0,1.5-.5,1.5-1.3,0,0,0-.1,0-.2,0-.5,0-1,.4-1.4h2.1c.5.1,1,.5,1.4.9.2.2.2.4.2.6-.6.6-1.3,1.2-1.9,1.8-1.1,1.1-2,2.3-3,3.5-.2.3-.4.6-.7.7-.9-.8-2-1.2-3.2-1.1-2.1.2-3.8,1.9-4,4-.1,1.8.9,3.5,2.5,4.2-.3.6-.7,1.4-1.1,2-.8,1.5-1.5,3.2-2.2,4.7-1,2.3-1.8,4.6-2.5,7-.3,1.1-.6,2.1-.9,3.2-.1-.3-.2-.6-.2-1v-8.4c0-.2.2-.5.3-.7.5-1.3.9-2.6,1.1-4,.2-1.8,0-3.5-1.4-4.8h0Z"/><path class="cls-23" d="m278.4,33c-.3.4-.5.9-.4,1.4,0,.8-.5,1.5-1.3,1.5,0,0-.1,0-.2,0h-5.6c-.8,0-1.4-.6-1.5-1.4,0,0,0-.1,0-.2,0-.5,0-1-.4-1.4h9.4,0Z"/><path class="cls-50" d="m278.2,33c0,0-.2,0-.4,0h.4Z"/><path class="cls-12" d="m265.2,64.5c.3-1.1.6-2.1.9-3.2.7-2.4,1.6-4.7,2.5-7,.6-1.6,1.4-3.2,2.2-4.7.3-.6.7-1.4,1.1-2,.2,0,.3.2.5.2.5.2,1.1.3,1.7.2,0,0,.2.2.2.2,1.9,2.8,3.9,5.8,5.8,8.6.3.4.6.9.9,1.4-.3.3-.7.6-1.1.8-1.2.8-1.5,2.5-.7,3.7,0,0,0,0,0,0,.6.9,1.1,1.7,1.7,2.6,0,.2.2.2.2.4-.6.3-1.1.2-1.7.2h-12c-.9,0-1.8-.5-2.1-1.4h0Zm8.4-.7h2.7c.6,0,.9-.2.9-.7s-.3-.7-.9-.7h-5.3c-.6,0-.9.2-.9.7s.3.7.9.7h2.7Z"/><path class="cls-31" d="m276.5,40.5c.4,0,.5-.4.7-.7,1-1.2,1.9-2.3,3-3.5.6-.6,1.2-1.2,1.9-1.8.1.3.2.6.2,1v13.1c-.4.3-.7.8-.8,1.3,0,.4,0,.8,0,1.1-.4-.4-.7-.9-1-1.4-1-1.4-1.9-2.8-2.8-4.1.3-.5.4-1.1.4-1.6,0-1.3-.5-2.5-1.5-3.3h0Z"/><path class="cls-49" d="m276.5,40.5c.9.8,1.5,2.1,1.5,3.3,0,.6-.1,1.1-.4,1.6-.5-.7-1-1.4-1.5-2.1-.6-.8-1.7-1.1-2.6-.6-.2,0-.4.2-.5.4h0s0,0,0,0h0s0,0,0,0h0s0,0,0,0h0c-.5.4-.7,1-.5,1.6,0,.4.1.7.4,1,.5.7,1,1.4,1.4,2.1-.6.1-1.2,0-1.7-.2-.2,0-.3,0-.5-.2-2.2-1-3.1-3.5-2.1-5.7.6-1.4,2-2.4,3.6-2.5,1.2,0,2.3.3,3.2,1.1h0Z"/><path class="cls-77" d="m274,48c-.5-.7-1-1.4-1.4-2.1-.2-.3-.4-.6-.4-1,0-.6.2-1.1.5-1.6h.2c0,0,0-.2,0-.2h0c.2,0,.3-.2.5-.2,0,.2,0,.5,0,.8,0,.6.2,1.2.6,1.6,1.6,2.4,3.3,4.9,4.9,7.3,2.6,3.7,5.1,7.5,7.7,11.3,0,0,.2.2.2.2.2.3.2.8-.1,1,0,0,0,0,0,0-.4.2-.8,0-1.1-.2l-1.9-2.9c-.8-1.1-1.5-2.3-2.3-3.5,0-.2-.2-.2-.3-.2-.3-.5-.6-.9-.9-1.4-1.9-2.8-3.9-5.8-5.8-8.6,0,0-.2-.2-.2-.2h0Z"/><path class="cls-67" d="m299.2,67c0,.3-.2.5-.4.6-.8.6-1.6,1.1-2.4,1.6-.3.2-.8.1-1.1-.2-.2-.3-.1-.8.2-1,0,0,0,0,0,0,.8-.6,1.6-1.1,2.4-1.6.2-.2.6-.2.8,0,.2.2.4.4.4.6Z"/><path class="cls-52" d="m290.1,48.6c-.1-.6,0-1.2.2-1.8.2-.4.6-.7,1-.9v.6c0,.7.1,1.4.6,2,.2.1.2.4.2.6,0,.3,0,.6-.3.7-.3.2-.6.2-.9,0-.3-.3-.6-.7-.7-1.1h0v-.2Z"/><path class="cls-52" d="m285.8,49.8c-.3-1,.1-2,1.1-2.5,0,0,0,.2,0,.3-.2.7,0,1.4.4,2,.2.2.2.4.4.6.2.3.1.8-.2,1s-.8.1-1-.2c-.3-.4-.6-.8-.7-1.2h0Z"/><path class="cls-77" d="m281.4,51v-1.1c.2-.5.4-.9.8-1.3.1,0,.2,0,.3-.2.2.2,0,.4,0,.6,0,.7.2,1.4.6,2,.3.3.3.8,0,1.1-.2.2-.6.2-.9,0-.3-.3-.5-.6-.7-1,0,0,0-.2,0-.2h0Z"/><path class="cls-67" d="m294.2,70.3c0,.2,0,.3-.2.4-.2.2-.4.4-.6.5-.3.2-.7.2-.9-.1,0,0,0,0,0,0-.2-.3-.1-.7.2-1l.7-.5c.3-.2.7,0,.9.3,0,.1,0,.3,0,.4h0Z"/><path class="cls-91" d="m273.4,42.8c-.2,0-.3.2-.5.2,0-.2.3-.3.5-.4v.2Z"/><path class="cls-31" d="m281.4,51c0,0,0,.1,0,.2,0,0,0-.1,0-.2Z"/><path class="cls-56" d="m265.2,64.5c.3.9,1.2,1.5,2.1,1.4h12c-.8,1.1-1.8,2.1-3,2.8-.2,0-.2.2-.4.2-.6.3-.9.9-.8,1.5v2.5c0,.8-.7,1.5-1.5,1.5h-8.3c-.8,0-1.5-.5-1.5-1.3,0,0,0-.2,0-.3v-2.4c-.2-.8-.5-1.5-1.1-2.2-.6-.8-1.1-1.7-1.7-2.5-.5-.8-.8-1.7-.8-2.7,0-1.9.2-3.7.2-5.6v-2.7c0-1.2.2-2.4.6-3.4.7-1.5,1.1-3.1,1.3-4.7,0-.8.7-1.4,1.5-1.3.1,0,.2,0,.3,0,.7.9,1.1,2,1.1,3.2,0,1.1-.2,2.2-.5,3.2-.2,1-.6,2-1.1,2.9-.2.4,0,.8.3,1.1.3.2.8.1,1-.2,0,0,0,0,0,0,0,0,0-.2.2-.2v8.4c0,.3,0,.7.2,1h0Zm5.9,6.4h-1c-.4,0-.7.3-.7.7s.3.7.7.7h1.9c.4,0,.7-.3.7-.7s-.3-.7-.7-.7h-1Zm-4.3,1.5c.2,0,.4,0,.6,0,.3-.1.5-.5.4-.8-.1-.4-.4-.6-.8-.6-.5,0-1,0-1.2.5v.2c0,.6.3.8,1.1.8Z"/><path class="cls-77" d="m265.1,55.1c0,0,0,.2-.2.2-.2.4-.7.5-1.1.3-.4-.2-.5-.6-.4-1,0,0,0,0,0,0,.5-.9.8-1.9,1.1-2.9.3-1.1.4-2.1.5-3.2,0-1.2-.4-2.3-1.1-3.2.4,0,.8.2,1.1.4,1.5,1.3,1.5,3,1.4,4.8-.1,1.4-.5,2.7-1.1,4,0,.2-.2.5-.3.7h0Z"/><path class="cls-53" d="m273.7,63.8h-2.7c-.6,0-.9-.2-.9-.7s.3-.7.9-.7h5.3c.6,0,.9.3.9.7s-.3.7-.9.7h-2.7Z"/><path class="cls-91" d="m272.7,43.3c-.3.5-.4,1.1-.5,1.6-.2-.6,0-1.2.5-1.6Z"/><path class="cls-67" d="m271.1,70.9h.9c.4,0,.8.2.8.6,0,.4-.2.8-.6.8,0,0-.1,0-.2,0h-1.9c-.4,0-.8-.2-.8-.6,0-.4.2-.8.6-.8,0,0,.1,0,.2,0h1.1,0Z"/><path class="cls-67" d="m266.9,72.4c-.8,0-1.1-.2-1.1-.8v-.2c.2-.5.7-.5,1.2-.5.4,0,.7.2.8.6.1.3,0,.7-.4.8,0,0,0,0,0,0-.2,0-.4,0-.6,0Z"/><path d="m250.9,33.5l-.6,2.1,6.3,2-.6,1.9-6.3-2-.6,2.1-1.8-.6,1.9-6,1.8.6h0Z"/><path d="m254.2,35c-1.5-.9-2-2.9-1.1-4.4.9-1.5,2.9-2,4.4-1.1,1.5.9,2,2.8,1.1,4.4-.9,1.5-2.8,2-4.3,1.2,0,0,0,0,0,0Zm2.3-4c-.7-.4-1.5,0-1.9.6-.4.7,0,1.5.6,1.9.7.3,1.5.1,1.9-.5.4-.6.2-1.5-.4-1.9,0,0,0,0,0,0h0Z"/><path d="m260.3,22.3l4.2,4.4-1.3,1.3-.4-.4c0,.6-.2,1.3-.7,1.7-.9.9-2.3.9-3.2,0,0,0-.2-.2-.2-.3l-2.6-2.7,1.3-1.3,2.4,2.5c.3.4.9.5,1.3.2,0,0,.2-.1.2-.2.5-.4.5-1.1.1-1.6,0,0,0,0-.1-.1l-2.3-2.3,1.3-1.3h0Z"/><path d="m263.5,23.6c-.8-1.6-.2-3.5,1.4-4.4.9-.5,2.1-.5,3,0l-.9,1.6c-.4-.2-1-.2-1.4,0-.7.4-.9,1.3-.5,1.9.3.7,1.1.9,1.7.6,0,0,0,0,.1,0,.5-.2.7-.7.6-1.2h1.9c0,1.1-.6,2.2-1.6,2.8-1.5.9-3.4.4-4.3-1.1,0,0,0-.1,0-.2h0Z"/><path d="m275,18.1l1,3.6-1.8.5-.9-3.3c0-.5-.6-.9-1.1-.9,0,0-.1,0-.2,0-.6.2-1,.6-.7,1.5l.9,3.2-1.8.5-2.3-8.2,1.8-.5.8,2.9c.3-.6.8-1,1.5-1.1,1.2-.3,2.4.3,2.8,1.5,0,.1,0,.2,0,.3v-.2Z"/><path d="m286.8,13.7l-1.1,8.4-1.8-.2v-.6c-.5.5-1.1.7-1.8.5-1.6-.2-2.7-1.8-2.5-3.6.1-1.7,1.6-2.9,3.2-2.8.7,0,1.3.4,1.7,1l.4-3,1.8.2h0Zm-2.5,5.2c.1-.7-.3-1.5-1.1-1.6,0,0,0,0-.1,0-.8-.1-1.5.4-1.6,1.2,0,0,0,0,0,.1-.1.7.3,1.5,1.1,1.6,0,0,0,0,.1,0,.8.1,1.5-.4,1.6-1.2,0,0,0,0,0-.1h0Z"/><path d="m288.5,16.8l1.7.6-1.9,5.8-1.7-.6,1.9-5.8Zm.3-1.6c.2-.6.8-.9,1.4-.7.6.2.9.8.7,1.4-.2.6-.8.9-1.4.7-.6-.2-.9-.8-.7-1.4Z"/><path d="m294.2,24c-.6,1.2-2,1.2-3.2.6-1-.4-1.7-1.4-1.6-2.5h1.8c0,.4.2.9.6,1.1.4.2.6.2.7,0,.3-.6-2.5-1.7-1.5-3.6.6-1,1.9-1.3,2.9-.7,0,0,0,0,0,0,.9.4,1.5,1.3,1.5,2.3h-1.8c0-.3-.2-.7-.5-.8-.2-.2-.5-.2-.6,0-.3.6,2.5,1.6,1.5,3.6h.2Z"/><path d="m300.7,28c-1,1.3-2.8,1.5-4.1.5,0,0-.1,0-.2-.1-.5-.4-.8-1.1-.8-1.8l-2,2.2-1.4-1.2,5.7-6.3,1.4,1.2-.4.4c.7,0,1.4.2,1.9.6,1.2,1.1,1.2,3,0,4.2,0,0,0,0,0,0v.2Zm-1.4-1.2c.6-.5.6-1.5,0-2,0,0,0,0,0,0-.5-.5-1.4-.5-2,0,0,0,0,.1-.1.2-.6.5-.6,1.5,0,2,0,0,0,0,0,0,.5.5,1.4.5,2,0,0,0,0-.1.1-.2h0Z"/><path d="m306,25.6l1.1,1.5-7.1,5.3-1.1-1.5,7.1-5.3Z"/><path d="m308.7,36.1l-5.5,2.6-.7-1.6.5-.2c-.6-.2-1.2-.7-1.5-1.3-.6-1.5,0-3.3,1.6-3.9,0,0,0,0,.1,0,1.5-.8,3.3-.2,4.1,1.3.3.6.3,1.3,0,1.9l.5-.2.7,1.6h0Zm-3.5-.4c.7-.3,1.1-1.2.8-1.9,0,0,0,0,0,0-.3-.7-1.1-1-1.8-.7,0,0,0,0-.1,0-.7.3-1.1,1.2-.8,1.9,0,0,0,0,0,0,.3.7,1.1,1,1.8.7,0,0,0,0,.1,0Z"/><path d="m310.4,44.1l-6.2-1.1c-2-.3-3-1.3-3.2-3l1.7-.3c.2.8.5,1.2,1.2,1.3l5.3-3.4.3,1.9-3.4,1.9,3.9.5.3,1.9v.2Z"/><circle class="cls-5" cx="120.3" cy="45" r="36.5"/><path class="cls-20" d="m128.3,29.4h1.5c.6,0,1.1.5,1.2,1.1v34.4c0,.7-.3,1.4-1,1.7h-19.7c-.7-.3-1.1-1-1-1.7v-1.1h9.5c.2,0,.4,0,.3-.3v-.6c.2-.5.8-.7,1.3-.6.5.2.8.7.6,1.2,0,0,0,0,0,0,0,.2,0,.3.2.3h5.3c.8,0,1.4-.6,1.4-1.4,0,0,0,0,0,0v-2.4c.3-.1.4-.4.4-.7v-25.2c0-.3-.2-.6-.4-.7v-4h.2Z"/><path class="cls-39" d="m128.3,29.4v4h-15.6c-.7,0-.9.2-.9.9v24.9c0,.7.2.9.9.9h15.7v2.4c0,.8-.5,1.4-1.3,1.5,0,0,0,0,0,0h-5.3c-.2,0-.3,0-.2-.3.2-.5-.1-1.1-.6-1.2,0,0,0,0,0,0-.5-.2-1.1,0-1.3.6,0,.2,0,.4,0,.6,0,.3,0,.3-.3.3h-9.5V31.2c0-.8.5-1.5,1.3-1.6,0,0,.2,0,.3,0h17.2-.2Z"/><path d="m91.7,37.5c1.9.4,3.1,2.3,2.7,4.2l-.3,1.5,3.2.6-.5,2.3-10-2.2.8-3.8c.4-1.9,2.2-3.2,4.2-2.8,0,0,0,0,0,0v.2Zm-.5,2.3c-.7-.2-1.3.2-1.5.9,0,0,0,0,0,0l-.3,1.5,2.6.6.3-1.5c.1-.7-.3-1.3-1-1.4,0,0,0,0,0,0h0Z"/><path d="m98.2,30.4l3.9,2.3-1.1,1.9-3.6-2.1c-.5-.4-1.3-.3-1.7.3,0,0,0,0,0,.1-.4.6-.3,1.4.3,1.8,0,0,.2.1.3.1l3.4,2-1.1,1.9-8.8-5.2,1.1-1.9,3.1,1.9c-.2-.8-.1-1.6.3-2.3.7-1.3,2.3-1.8,4-.8h0Z"/><path d="m99.9,29.4c-1.4-1.5-1.3-3.9.2-5.3,0,0,0,0,.1-.1,1.6-1.4,4-1.3,5.4.3,1.5,1.5,1.4,4-.1,5.4-1.5,1.5-4,1.4-5.4-.1,0,0-.1-.2-.2-.2Zm4.1-3.6c-.6-.7-1.7-.7-2.4,0-.7.6-.7,1.7,0,2.4.6.7,1.7.7,2.4,0,.7-.6.8-1.6.2-2.3,0,0,0-.1-.1-.1Z"/><path d="m113.2,20l1.8,4.1-2,.9-1.6-3.8c-.2-.7-.9-1-1.6-.8,0,0,0,0-.1,0-.7.3-1,1-.8,1.7,0,0,0,.2.1.2l1.5,3.6-2,.9-2.9-6.7,2-.9.2.6c.2-.8.8-1.4,1.5-1.6,1.4-.6,2.9,0,3.7,1.7h0Z"/><path d="m119.3,21.8c.5,0,1-.3,1.4-.6l1.9.8c-.6,1-1.8,1.7-3,1.8-2,.4-4-1-4.3-3,0-.2,0-.3,0-.5-.2-2.1,1.2-4,3.3-4.2,0,0,.1,0,.2,0,2.1-.2,3.9,1.3,4,3.4,0,0,0,0,0,0v.9l-5.2.5c.3.7,1.1.9,1.9.9h0Zm1.1-2.8c-.2-.7-.9-1.1-1.6-1-.8,0-1.4.5-1.5,1.3l3.2-.3h0Z"/><path d="m131.4,17.9l1.3.4-.6,2-1.3-.4-1.5,4.9-2.1-.6,1.5-4.9-1-.2.6-2,1,.2c.6-1.9,2-2.8,4.3-2l-.6,2c-.7-.3-1.4-.2-1.6.6h0Z"/><path d="m138.3,20.8l-1.1,2.2c-.7-.6-1.7-.6-2.4,0-.1.1-.2.3-.3.4l-1.5,2.9-1.9-1,3.3-6.5,1.9,1-.6,1.1c.7-.7,1.8-.8,2.6-.2Z"/><path d="m145.6,27l-4.9,5.4-1.6-1.5.5-.5c-.8,0-1.6-.2-2.2-.8-1.4-1.6-1.3-4,.2-5.4,1.4-1.3,3.5-1.4,5-.2.7.5,1,1.3,1,2.1l.5-.5,1.6,1.5h0Zm-4,1.2c.6-.7.5-1.8-.2-2.5-.7-.6-1.8-.5-2.5.2-.6.7-.5,1.8.2,2.4.7.7,1.8.6,2.4,0,0,0,0,0,0,0Z"/><path d="m150.1,40.8l-4.1,1.9-.9-1.9,3.9-1.8c.6-.3,1-.8.6-1.5-.3-.6-1-.8-1.6-.5,0,0,0,0-.1,0l-3.7,1.7-.9-1.9,3.9-1.8c.6-.3,1-.8.6-1.5-.3-.6-1-.8-1.6-.5,0,0,0,0-.1,0l-3.7,1.7-.9-1.9,6.6-3.1.9,1.9-.6.2c.7.1,1.4.7,1.6,1.4.4.7.4,1.5,0,2.1.8.2,1.5.8,1.8,1.5.7,1.5,0,3-1.5,3.8h-.2Z"/><path d="m147.7,47.1c0,.5.2,1,.6,1.4l-.9,1.8c-1.1-.7-1.7-1.8-1.6-3.1,0-2.5,1.5-4.1,3.6-4.2,2.1-.1,3.9,1.4,4,3.5,0,0,0,.1,0,.2.1,2-1.4,3.8-3.5,3.9,0,0-.1,0-.2,0h-.9l-.2-5.2c-.7.3-1.1,1-1,1.8h-.1Zm2.8,1.2c.7-.2,1.2-.9,1.1-1.6,0-.7-.5-1.4-1.2-1.5l.2,3.2Z"/><circle class="cls-5" cx="200" cy="45" r="36.5"/><path class="cls-11" d="m190.9,74.2c-.7-.2-1.3-.5-1.9-.8-1.2-.8-1.9-2.2-1.9-3.7v-34.7c0-2.1,1.5-4,3.6-4.4h17.5c0,.2,0,.2.2.2,1.1.3,2,1,2.6,1.9.3.4.5.9.5,1.5,0,0-.2-.2-.2-.2-.4-.7-1.2-1.1-1.9-1.1h-3.1c-.5,0-1,.3-1.2.7-.2.2-.2.6-.4.8-.2.6-.8.9-1.4.9h-5.4c-.2,0-.4,0-.6,0-.3-.2-.5-.5-.6-.8l-.5-1c-.2-.3-.5-.6-.9-.6h-3.9c-1.1.3-1.9,1.3-1.8,2.4v34.4c0,1.2.9,2.2,2.1,2.3h17.8c.4,0,.7,0,1.1-.2.4-.2.8-.6,1-1.1v.2c-.3,1.5-1.5,2.8-3,3.2,0,0-.3,0-.3.2h-17.3Zm9.6-40.7h1.5c.3,0,.5-.2.6-.4,0,0,0,0,0-.1,0-.4-.2-.7-.6-.7h-2.8c-.4,0-.6.3-.6.7s.2.5.6.6h1.4,0Z"/><path class="cls-10" d="m208.3,74.2c0-.2.2-.2.3-.2,1.5-.5,2.6-1.7,3-3.2v-.2c.1-.4.2-.9.2-1.4v-33.9c0-.5,0-.9-.2-1.4,0-.5-.2-1-.5-1.5-.6-1-1.5-1.7-2.6-1.9,0,0-.2,0-.2-.2h1.9c.5.1,1.1.3,1.5.6,1.4.8,2.2,2.3,2.2,4v34.6c0,2.2-1.5,4.1-3.6,4.5h-2.1Z"/><path class="cls-18" d="m197.2,35c.2,0,.4,0,.6,0h5.4c.6,0,1.2-.3,1.4-.9.2-.2.2-.6.4-.8.2-.5.7-.8,1.2-.7h.7c0,.2.2.2.2.2.8.4,1.3,1.2,1.3,2.1v34.4c0,.9-.4,1.7-1.2,2.1-.1,0-.2.1-.2.2h-15.5c-1.2,0-2.1-1.1-2.1-2.3v-34.3c0-1.1.7-2.2,1.8-2.4.4,0,.8,0,1.1,0,.4.5.7,1.1,1.1,1.6.2.5.8.8,1.4.7h2c.1,0,.3,0,.4,0h0Zm-2.8,24.2v8.4c0,.9.2,1.1,1.1,1.1h10.4c.4,0,.8-.3.9-.7,0,0,0-.1,0-.2v-17.3c0-.4-.3-.8-.7-.9,0,0-.1,0-.2,0h-.9c-.4,0-.8-.3-.9-.7,0,0,0-.1,0-.2v-1.5c0-.4-.3-.8-.7-.9,0,0-.1,0-.2,0h-5.4c-.6,0-.9.3-.9,1v1.5c0,.6-.3.8-.9.8h-.6c-.8,0-1.1.2-1.1,1.1v8.5h0Zm6.2-19.6c0-.2,0-.2.2-.4.2-.4.6-.8.8-1.2s.2-.7-.2-.9-.6-.2-.8,0c-.6.9-1.3,1.9-1.9,2.8-.2.5,0,.9.6.9h1.1q.2,0,.2.2c-.4.6-.8,1.3-1.3,1.9-.3.3-.3.7,0,1.1.3.2.7,0,1.1-.3.7-1.1,1.4-2.1,2-3.2.2-.2.2-.5,0-.7-.1-.2-.4-.3-.6-.3h-1.3.2Z"/><path class="cls-46" d="m207,71.8c0-.2.2-.2.2-.2.8-.4,1.2-1.2,1.2-2.1v-34.4c0-.9-.5-1.7-1.3-2.1-.1,0-.2-.1-.2-.2h2.4c.8,0,1.5.4,1.9,1.1,0,0,0,.2.2.2.1.4.2.9.2,1.4v33.9c0,.5,0,.9-.2,1.4-.3.4-.6.8-1,1.1-.3.2-.7.2-1.1.2h-2.4Z"/><path class="cls-46" d="m197.2,35c0,.2-.2,0-.4,0h-2c-.6,0-1.1-.2-1.4-.7-.3-.6-.7-1.1-1.1-1.6h2.8c.4,0,.7.2.9.6l.5,1c.2.3.4.6.6.8h0Z"/><path class="cls-10" d="m200.6,33.4h-1.3c-.3,0-.5-.2-.6-.4,0,0,0,0,0-.1,0-.4.2-.7.6-.7h2.8c.4,0,.6.4.6.7,0,.4-.2.5-.6.6-.5,0-1,0-1.5,0h0Z"/><path class="cls-27" d="m194.3,59.3v-8.5c0-.8.2-1.1,1.1-1.1h.6c.6,0,.8-.2.9-.8v-1.5c0-.6.2-1,.9-1h5.4c.4,0,.8.3.9.7,0,0,0,.1,0,.2v1.5c0,.4.3.8.7.9,0,0,.1,0,.2,0h.9c.4,0,.8.3.9.7,0,0,0,.1,0,.2v17.3c0,.4-.3.8-.7.9,0,0-.1,0-.2,0h-10.4c-.9,0-1.1-.2-1.1-1.1v-8.5h0Zm10.1,2.2v-8.6c0-.4-.2-.6-.7-.6h-6.4c-.4,0-.7.2-.7.6,0,0,0,.1,0,.2v12.9c0,.4.2.7.6.7,0,0,.1,0,.2,0h6.4c.4,0,.7-.2.7-.6,0,0,0-.1,0-.2v-4.4Z"/><path class="cls-63" d="m200.6,39.6h1.3c.3,0,.6,0,.6.3.1.2.1.5,0,.7-.6,1.1-1.4,2.1-2,3.2-.2.4-.7.5-1.1.3-.3-.2-.3-.6,0-1.1.4-.6.8-1.3,1.3-1.9.2-.2,0-.2-.2-.2h-1.1c-.6,0-.9-.5-.6-.9.6-1,1.2-1.9,1.9-2.8.1-.2.4-.3.6-.2,0,0,.1.1.2.2.3.2.3.6.2.9-.2.4-.6.8-.8,1.2,0,0-.2.2-.2.4h-.2Z"/><path class="cls-46" d="m201.9,52.1h1.9c.4,0,.7.2.7.6,0,0,0,0,0,0v2h-2c-.3,0-.4,0-.4.4v2.8h-5.4v-3.3h5c.2,0,.4,0,.4-.2,0-.8.2-1.7-.2-2.4Z"/><path class="cls-44" d="m201.7,66.5h-4.3c-.4,0-.7-.2-.7-.6,0,0,0-.1,0-.2v-3h5.4v2.9c0,.3-.1.6-.4.8Z"/><path class="cls-45" d="m196.7,58.1h5.4v3.3h-5.4v-3.3Z"/><path class="cls-18" d="m201.9,52.1c.5.8.2,1.6.2,2.4,0,.2-.2.2-.4.2h-5v-1.9c0-.4.2-.7.6-.7,0,0,.1,0,.2,0h4.5Z"/><path class="cls-76" d="m201.7,66.5c.3-.2.4-.4.4-.8v-2.9h2.4v3c0,.4-.3.7-.6.7,0,0,0,0-.1,0h-2.1Z"/><path class="cls-54" d="m202.1,61.4v-3.3h2.4v3.3h-2.4Z"/><path class="cls-66" d="m204.5,58.1h-2.3v-2.8c0-.3,0-.4.4-.4h2v3.2h0Z"/><path class="cls-76" d="m196.7,61.4h5.4v1.4h-5.4v-1.4Z"/><path class="cls-57" d="m202.1,62.8v-1.4h2.4v1.4h-2.4Z"/><path d="m172.3,39c1.7.3,2.9,1.9,2.6,3.6l-.2,1.3,2.8.4-.3,2-8.9-1.4.5-3.4c.2-1.7,1.8-2.9,3.5-2.7,0,0,0,0,0,0v.2Zm-.3,2c-.6-.1-1.1.2-1.3.8,0,0,0,0,0,0l-.2,1.3,2.3.3.2-1.3c0-.6-.3-1.1-.9-1.2,0,0,0,0-.1,0h0Z"/><path d="m177.5,32.3l3.6,1.7-.8,1.7-3.3-1.6c-.5-.3-1.2-.1-1.5.4,0,0,0,0,0,0-.3.6-.2,1.2.6,1.6l3.2,1.5-.8,1.7-8.1-4,.8-1.7,2.8,1.4c-.3-.7-.2-1.4,0-2,.6-1.2,2.1-1.7,3.3-1.1,0,0,.2,0,.2.1v.2Z"/><path d="m178.9,31.5c-1.4-1.3-1.4-3.4-.2-4.8,1.3-1.4,3.4-1.4,4.8-.2,1.4,1.3,1.4,3.4.2,4.8-1.3,1.4-3.4,1.5-4.7.2,0,0,0,0,0,0Zm3.3-3.6c-.6-.5-1.5-.5-2.1.1-.5.6-.5,1.5.1,2.1.6.5,1.5.5,2,0,.5-.6.5-1.5,0-2,0,0,0,0,0,0h0Z"/><path d="m189.7,21.9l1.9,3.4-1.7,1-1.8-3.2c-.2-.5-.8-.8-1.3-.6,0,0-.1,0-.2.1-.6.3-.8,1-.4,1.8l1.7,3.1-1.7,1-3.2-5.6,1.7-1,.3.5c0-.6.5-1.1,1.2-1.6,1.2-.6,2.5-.4,3.4,1.1Z"/><path d="m195.2,22.9c.5,0,.9-.4,1.1-.7l1.7.6c-.9,1.8-3.1,2.4-4.8,1.5-.9-.5-1.6-1.3-1.8-2.3-.4-1.8.6-3.6,2.4-4,0,0,.1,0,.2,0,1.7-.4,3.5.7,3.9,2.5,0,0,0,0,0,.1,0,.2,0,.5,0,.8l-4.5,1c.4.5,1.1.8,1.7.6Zm.6-2.5c-.3-.6-.9-.9-1.5-.7-.7,0-1.1.6-1.1,1.3l2.7-.6Z"/><path d="m209.5,22.2c-.3,1.8-2,2.9-3.7,2.7-.7-.1-1.3-.6-1.7-1.2l-.2.6-1.9-.4,1.9-8.7,1.9.4-.7,3.1c.6-.4,1.3-.6,2-.3,1.7.5,2.7,2.2,2.3,4h0Zm-1.9-.4c.2-.8-.2-1.6-.9-1.8,0,0-.1,0-.2,0-.8-.2-1.6.3-1.8,1.1,0,0,0,0,0,.1-.2.8.2,1.6.9,1.8,0,0,.1,0,.2,0,.8.2,1.6-.3,1.8-1.1,0,0,0,0,0-.1h0Z"/><path d="m218.1,23.4l-3.3,5.5-1.6-1,.3-.5c-.7.2-1.4,0-2-.3-1.5-1.1-1.8-3.2-.7-4.7,1-1.3,2.7-1.7,4.2-1,.6.3,1.1.9,1.2,1.6l.3-.5,1.6,1h0Zm-3.3,1.8c.5-.7.3-1.6-.4-2,0,0,0,0-.1,0-.7-.4-1.6-.2-2.1.5,0,0,0,0,0,0-.4.7-.2,1.6.5,2.1.7.4,1.6.2,2.1-.5Z"/><path d="m220.4,28.1l-1.6,1.6c-.4.4,0,.7.6,1.3l-1.2,1.2c-1.9-1.6-1.9-2.7-.6-4l1.6-1.6-.7-.7,1.3-1.3.7.7.9-.9,1.8,1-1.3,1.2.9,1-1.3,1.3-.9-1h-.1Z"/><path d="m223.6,32.2l-1.9,1.3c-.5.3-.2.7.2,1.4l-1.5,1c-1.6-1.9-1.4-3,0-4l1.9-1.3-.6-.9,1.5-1.1.6.9,1.1-.6,1.5,1.3-1.5,1,.7,1.1-1.5,1.1-.7-1.1Z"/><path d="m223.4,38.8c.2.4.5.8.9,1l-.3,1.8c-1-.3-1.9-1.1-2.2-2.2-.7-2.1.2-3.9,1.9-4.5,1.7-.7,3.7.2,4.3,1.9,0,0,0,0,0,.1.6,1.7-.3,3.5-1.9,4.2,0,0-.1,0-.2,0-.2,0-.5.1-.7.2l-1.5-4.3c-.5.4-.6,1.2-.3,1.8h0Zm2.6.3c.5-.4.7-1,.5-1.6-.1-.7-.8-1.1-1.5-1l1,2.6Z"/><path d="m229.8,46l-2.2.2c0-.8-.4-1.9-1.6-1.8l-2.9.3-.2-1.9,6.4-.6.2,1.9h-1.1c.8.3,1.4,1.1,1.5,1.9h0Z"/><path d="m228.9,54.1l-5.9-3c-1.9-1-2.6-2.2-2.3-4l1.8.2c0,.9,0,1.4.8,1.7l6.4-1.7-.2,2.1-4,.9,3.7,1.7-.2,2h0Z"/><circle class="cls-4" cx="359.3" cy="45" r="36.5"/><path class="cls-79" d="m359.3,34.3h23.1c1.7,0,3.2,1.3,3.3,3v.8c0,.6-.2,1.2-.3,1.9-.2,1.3,0,1.6,1.3,1.5,2.2,0,2.8.6,2.7,2.7v14.4c0,4.8-.6,2.1-2.1,2.1h-4.5c-1.1,0-1.1,0-1.4,1.1l-.6,3.4c-.2,1.6-1.6,2.7-3.2,2.7h-36.7c-1.6,0-3-1.2-3.2-2.8-.2-1.2-.4-2.3-.6-3.6,0-.6-.4-.9-1.1-.9h-4.9c-.9,0-1.7-.6-1.9-1.5v-15.9c0-.9.6-1.7,1.5-1.9h1.5c.9,0,1.2-.3,1.1-1.3,0-.7-.2-1.5-.4-2.2-.4-1.7.7-3.4,2.4-3.7h24Zm0,6.2h-16.1c-1.9,0-3,1.3-2.7,3.2.3,1.9.7,4,1.1,6,.6,3.4,1.2,6.8,1.9,10.2.2,1.2,1.3,2.1,2.5,2h26.6c1.2,0,2.3-.8,2.5-2,.4-2.1.8-4.3,1.1-6.4.6-3.2,1.2-6.6,1.7-9.8.3-1.9-.7-3.1-2.7-3.1h-16v-.2Zm24.6,4.1c-1.1,0-1.9.9-2,1.9h0c0,1.1.9,1.9,1.9,1.9,1.1,0,1.9-.9,1.9-1.9h0c0-1-.8-1.9-1.8-1.9h0,0Zm-49.2,13c1.1,0,1.9-.9,1.9-1.9h0c0-1.1-.9-1.9-1.9-1.9-1.1,0-2,.9-1.9,2h0c0,1,.7,1.8,1.7,1.9,0,0,0,0,.1,0h.2Zm-1.9-11.1c0,1.1.9,1.9,1.9,1.9,1.1,0,1.9-.9,2-1.9,0-1.1-.9-2-2-2,0,0,0,0,0,0h0c-1,0-1.9.8-1.9,1.8v.2Zm53.1,9.2c0-1.1-.8-1.9-1.9-2-1.1,0-1.9.9-2,1.9,0,1.1.9,1.9,1.9,1.9,1,0,1.9-.7,1.9-1.7,0,0,0,0,0,0v-.2Z"/><path class="cls-14" d="m359.3,40.5h16.1c1.9,0,3,1.1,2.7,3.1-.6,3.2-1.1,6.6-1.7,9.8-.4,2.1-.7,4.3-1.1,6.4-.2,1.2-1.3,2.1-2.5,2h-26.8c-1.2,0-2.3-.8-2.5-2-.6-3.4-1.2-6.8-1.9-10.1-.3-2-.7-4-1.1-6-.3-2,.7-3.2,2.7-3.2h16.1Zm-10.2,6.6c0-1.1-.9-2-2-2s-2,.9-2,2,.9,2,2,2c1.1,0,2-.9,2-2,0,0,0,0,0,0h0Zm2,6.2c-1.1,0-1.9.9-2,1.9,0,1.1.9,2,2,2s2-.9,2-2c0-1.1-.9-1.9-1.9-1.9,0,0,0,0,0,0Zm22.4-6.2c0-1.1-.8-2-1.9-2-1.1,0-2,.9-2,1.9,0,1.1.8,2,1.9,2h0c1.1,0,2-.9,1.9-2h0Zm-6.1,6.2c0-1.1,1-2,2.1-2,1.1,0,2,1,2,2.1s-1,2-2.1,2c-1.1,0-2-.9-2-2h0Zm-10.2-6.2c-1.1,0-2,.9-1.9,2s.9,2,2,1.9c1.1,0,2-.9,1.9-2,0-1.1-.9-1.9-1.9-1.9h0Zm6.2-2c-1.1,0-2,.9-2,2s.9,2,2,2,2-.9,2-2c0-1.1-.9-2-2-2,0,0,0,0,0,0h0Zm-2.1,10.3c0-1.1-.8-2-1.9-2-1.1,0-2,.8-2,1.9s.8,2,1.9,2h0c1.1,0,2-.8,2-1.9Z"/><path class="cls-55" d="m383.9,44.6c1,0,1.9.8,1.9,1.8v.2c0,1.1-.9,2-1.9,2h0c-1.1,0-1.9-.9-1.9-1.9,0-1.1.9-1.9,1.9-1.9h0Z"/><path class="cls-55" d="m334.7,57.6c-1,0-1.9-.7-1.9-1.7v-.2c0-1.1.8-2,1.9-2,0,0,0,0,0,0h0c1.1,0,2,.8,2,1.9s-.8,2-1.9,2h0Z"/><path class="cls-55" d="m332.7,46.5c0-1,.7-1.9,1.7-1.9h.2c1.1,0,1.9.9,1.9,1.9,0,0,0,0,0,0,0,1.1-.9,1.9-1.9,1.9-1.1,0-1.9-.9-1.9-1.9h0Z"/><path class="cls-55" d="m385.9,55.7c0,1-.8,1.9-1.8,1.9h-.2c-1.1,0-1.9-.9-1.9-1.9,0-1.1.9-1.9,2-1.9,1,0,1.9.9,1.9,1.9,0,0,0,0,0,.1h0Z"/><path class="cls-21" d="m349.1,47c0,1.1-.9,2-2,2s-2-.9-2-2,.9-2,2-2h0c1.1,0,2,.9,2,2Z"/><path class="cls-17" d="m351.1,53.2c1.1,0,1.9.9,2,1.9,0,1.1-.9,2-2,2s-2-.9-2-2h0c0-1.1.9-2,2-1.9,0,0,0,0,0,0Z"/><path class="cls-73" d="m373.6,47c0,1.1-.9,2-2,2s-2-.9-2-2,.9-2,2-2c1.1,0,2,.9,2,2,0,0,0,0,0,0Z"/><path class="cls-17" d="m367.5,53.2c1.1,0,2,.9,2,2s-.9,2-2,2-2-.9-2-2c0-1.1.9-2,2-2,0,0,0,0,0,0Z"/><path class="cls-14" d="m357.3,51.9c1.5,0,2.7-1.3,2.6-2.7,0-1.5-1.3-2.7-2.7-2.6-1.5,0-2.7,1.3-2.6,2.7,0,1.4,1.2,2.6,2.6,2.6h.1Z"/><path class="cls-17" d="m363.4,45c1.1,0,2,.9,2,2s-.9,2-2,2-2-.9-2-2c0-1.1.9-2,2-2,0,0,0,0,0,0Z"/><path class="cls-17" d="m361.3,55.3c0,1.1-.9,2-2,1.9,0,0,0,0,0,0-1.1,0-1.9-.9-1.9-2,0-1.1.9-2,2-1.9,0,0,0,0,0,0,1.1,0,1.9.9,1.9,2Z"/><path d="m347.2,18.8c1.1,1.9.4,4.3-1.5,5.3,0,0,0,0,0,0l-1.5.8,1.8,3.1-2.3,1.3-5.7-9.8,3.7-2.1c1.8-1.1,4.2-.5,5.3,1.3,0,0,0,0,0,.1h0Zm-2.3,1.3c-.3-.7-1.2-1-1.8-.6,0,0,0,0,0,0l-1.5.8,1.5,2.5,1.5-.8c.7-.4.9-1.3.5-1.9h0Z"/><path d="m349.8,21.5c-.4-2.3,1.1-4.6,3.4-5,2.3-.4,4.6,1.1,5,3.4s-1.1,4.6-3.4,5c0,0,0,0,0,0-2.3.4-4.6-1.1-5-3.4Zm6.1-1.1c-.2-1-1.1-1.7-2.1-1.6,0,0,0,0,0,0-1,.2-1.7,1.1-1.5,2,0,0,0,.1,0,.2.2,1,1.1,1.7,2.1,1.6,0,0,0,0,0,0,1-.1,1.6-1,1.5-2,0,0,0-.1,0-.2h0Z"/><path d="m365.2,16.4l-.2,2.8c-1-.2-2.4,0-2.6,1.6l-.3,3.6-2.4-.2.8-8.1,2.4.2-.2,1.5c.5-1,1.5-1.6,2.6-1.4h0Z"/><path d="m369.9,20.4l-.9,2.8c-.2.6.3.9,1.4,1.2l-.7,2.1c-3.1-.7-3.6-1.9-2.9-4l.9-2.8-1.2-.4.7-2.2,1.2.4.5-1.5h2.5c0,0-.7,2.3-.7,2.3l1.6.6-.7,2.2-1.6-.6h0Z"/><path d="m376.8,28c-1,1.5-2.8,1.4-4.3.4-1.3-.7-2-2-1.9-3.5l2.4.2c-.2.6,0,1.3.6,1.5.5.3.8.3,1,0,.5-.7-3.1-2.5-1.6-4.9,1-1.5,2.7-1.5,4.1-.5,1.1.7,1.8,1.9,1.7,3.2l-2.3-.2c0-.5,0-.9-.5-1.2-.3-.2-.6-.2-.8,0-.5.8,3.2,2.4,1.5,4.9Z"/><path class="cls-17" d="m356.4,49.4c1.1,0,2-.9,1.9-2s-.9-2-2-1.9c-1.1,0-2,.9-1.9,2,0,1.1.9,1.9,1.9,1.9h0Z"/><line class="cls-3" x1="200.3" y1="127.7" x2="200.2" y2="109.1"/><line class="cls-3" x1="39.5" y1="108.6" x2="360.5" y2="108.6"/><line class="cls-8" x1="39.9" y1="99.5" x2="39.9" y2="90.2"/><polygon class="cls-84" points="46.4 97.6 39.9 108.8 33.4 97.6 46.4 97.6"/><line class="cls-8" x1="120" y1="99.5" x2="120" y2="90.2"/><polygon class="cls-84" points="126.5 97.6 120 108.8 113.5 97.6 126.5 97.6"/><line class="cls-8" x1="200.2" y1="99.5" x2="200.2" y2="90.2"/><polygon class="cls-84" points="206.6 97.6 200.2 108.8 193.7 97.6 206.6 97.6"/><line class="cls-8" x1="280.3" y1="99.5" x2="280.3" y2="90.2"/><polygon class="cls-84" points="286.8 97.6 280.3 108.8 273.8 97.6 286.8 97.6"/><line class="cls-8" x1="360.5" y1="99.5" x2="360.5" y2="90.2"/><polygon class="cls-84" points="366.9 97.6 360.5 108.8 354 97.6 366.9 97.6"/><circle class="cls-7" cx="39.2" cy="305" r="36.4"/><path d="m21,284.5c1.8,1.5,2.1,4.2.6,6,0,0-.2.2-.3.3-1.7,2-4.7,2.2-6.8.5,0,0,0,0,0,0-1.9-1.8-2.1-4.8-.3-6.7,0,0,0,0,0,0,1-1.2,2.6-1.8,4.2-1.5l-.4,2c-.9-.1-1.7.2-2.3.9-1,1-1,2.6,0,3.6,0,0,.1.1.2.2,1.1,1.1,2.7,1,3.9-.3.8-.7,1-1.8.5-2.7l-1.6,1.8-1.4-1.2,3.1-3.4.6.5h0Z"/><path d="m29.2,281.2c.9,1.5.4,3.5-1.1,4.4,0,0,0,0,0,0-.6.4-1.4.5-2.1.2l1.5,2.8-1.7.9-4.3-8,1.7-.9.3.6c.2-.7.7-1.3,1.3-1.6,1.6-.8,3.6,0,4.4,1.5Zm-1.7.9c-.3-.7-1.2-1.1-1.9-.7,0,0-.1,0-.2,0-.7.4-1.1,1.3-.7,2,0,0,0,0,0,0,.3.7,1.2,1.1,1.9.7,0,0,.1,0,.2,0,.7-.4,1.1-1.3.7-2,0,0,0,0,0,0h0Z"/><path d="m36.5,278.8l.8,3.9-1.9.4-.7-3.6c0-.6-.5-1-1.1-.9,0,0-.2,0-.3,0-.6,0-1,.6-1,1.2,0,.1,0,.2,0,.3l.7,3.5-1.9.4-1.9-8.9,1.9-.4.6,3.2c.3-.6.9-1.1,1.6-1.1,1.3-.3,2.6.6,2.9,1.9,0,0,0,.2,0,.2h.2Z"/><path d="m38,279.4c.1-1.9,1.7-3.4,3.7-3.2s3.4,1.7,3.2,3.7-1.7,3.4-3.7,3.2c0,0,0,0,0,0-1.9-.1-3.3-1.8-3.2-3.6,0,0,0,0,0,0Zm4.9.4c0-.8-.5-1.5-1.3-1.6,0,0,0,0,0,0-.8,0-1.5.6-1.6,1.4,0,.8.5,1.5,1.3,1.6,0,0,0,0,0,0,.8.1,1.5-.4,1.6-1.2,0,0,0-.1,0-.2Z"/><path d="m52.3,281.8l-1.4,3.7-1.8-.7,1.3-3.5c.3-.5.1-1.2-.4-1.4,0,0-.2,0-.2,0-.6-.3-1.3,0-1.6.7,0,0,0,0,0,.1l-1.3,3.3-1.8-.7,2.3-6.1,1.8.7-.2.6c.6-.4,1.4-.4,2,0,1.2.5,1.9,1.7,1.3,3.4h0Z"/><path d="m55.1,286.6c.4.3.8.4,1.3.3l.7,1.6c-1.9.5-3.9-.7-4.4-2.7-.2-1,0-2,.5-2.9,1.1-1.5,3.1-1.8,4.6-.8,0,0,.1,0,.2.1,1.4,1.1,1.8,3.1.7,4.5,0,0,0,.1-.1.2-.1.2-.3.4-.6.6l-3.6-2.8c-.2.6.1,1.3.7,1.6h0Zm2.3-1.2c.3-.6,0-1.3-.5-1.6-.5-.4-1.3-.4-1.8,0l2.3,1.7h0Z"/><path d="m63.5,297.5l-.5-.8-1.2.7-1.1-1.8,1.2-.7-2.1-3.6,1.6-1,6.4-.3,1.1,1.9-6.4.3,1,1.6,1.7-1,1.1,1.8-1.7,1,.5.8-1.6,1Z"/><path class="cls-35" d="m30,289.6h18.6c1.8,0,3.3,1.4,3.3,3.3,0,0,0,0,0,0v39.8c0,1.8-1.4,3.3-3.3,3.3,0,0,0,0,0,0h-18.6c-1.8,0-3.3-1.4-3.3-3.3,0,0,0,0,0,0v-39.8c0-1.8,1.4-3.3,3.2-3.3,0,0,0,0,0,0Z"/><path class="cls-81" d="m48.6,289.6h-18.6c-1.8,0-3.3,1.4-3.3,3.3,0,0,0,0,0,0v39.8l25.3-39.8c0-1.8-1.4-3.3-3.2-3.3,0,0,0,0,0,0Z"/><path class="cls-78" d="m50,330.1h-21.4c-.8,0-1.4-.6-1.4-1.4,0,0,0,0,0,0v-34.8c0-.8.7-1.5,1.5-1.5h21.2c.8,0,1.4.6,1.4,1.4,0,0,0,0,0,0v35c0,.8-.6,1.4-1.4,1.4,0,0,0,0,0,0Z"/><path class="cls-9" d="m41.9,291c0,.3-.2.5-.5.5h-4.3c-.3,0-.5-.2-.5-.5h0c0-.3.2-.5.5-.5h4.3c.3,0,.5.2.5.5Z"/><path class="cls-9" d="m41,334.5h-.4c-.3,0-.5,0-.8-.2-.3,0-.6-.2-1-.2-.4,0-.8-.1-1.1-.2h-.2c-.2,0-.2-.2-.2-.3,0-.2.1-.4.2-.6.1-.3.3-.6.4-.9,0-.2.2-.4.3-.6.2-.3.5-.4.8-.2,0,0,.1.1.2.2,0,0,.2.2.3.4.2.3.4.6.6.9l1,1.5v.2c0,.2,0,.2-.2.2v-.2Z"/><path class="cls-59" d="m41.1,304.8h-.4c-.3,0-.6,0-.9-.2-.4,0-.7-.1-1.1-.2-.4,0-.8-.1-1.2-.2h-.2c-.2,0-.2-.2-.2-.3s.2-.4.2-.6c.2-.3.2-.6.4-1,0-.2.2-.4.3-.6.2-.3.6-.4.9-.2,0,0,.1,0,.2.2.1.1.2.3.3.4.2.3.4.6.6,1,.3.5.6,1.1,1,1.5v.2c0,.2,0,.2-.2.2l.2-.2Z"/><path class="cls-59" d="m41.9,297.4h.2c.2,0,.2,0,.2.2s0,.2-.2.2c-.4.5-.7,1-1.1,1.4-.3.4-.7.8-1.1,1.2-.2.2-.4.3-.6.4-.3,0-.6,0-.8-.2-.1,0-.3-.2-.3-.4-.3-.5-.6-1-1-1.5-.1-.2-.3-.4-.4-.6h0c0-.2,0-.2.2-.2.7,0,1.4,0,2-.2.6,0,1.2,0,1.8-.2h1.3v-.2Z"/><path d="m38,319.4v1.8h-.7v1.1h-1.9v-1.1h-3.3v-1.8l2.3-4.6h2.2l-2.3,4.7h1.2v-1.4h1.9v1.4h.7,0Z"/><path d="m46.2,318v.8c0,1-.3,2-1.1,2.7-.7.7-1.7,1.1-2.8,1.1-1.1,0-2.1-.4-2.9-1.1-.7-.8-1.2-1.8-1.1-2.8,0-1.1.4-2.1,1.1-2.8.8-.7,1.8-1.2,2.8-1.1.7,0,1.4.1,1.9.5.6.3,1,.7,1.4,1.3l-1.6,1c-.2-.2-.4-.4-.6-.6-.3-.2-.6-.2-1-.2-1.1,0-2,1-2,2.1,0,.5.2,1,.6,1.4.4.4,1,.7,1.6.6.7,0,1.4-.3,1.8-1h-1.9v-1.7h3.7Z"/><polygon class="cls-83" points="29.2 330.1 29.2 292.3 49.3 292.3 29.2 330.1"/><circle class="cls-7" cx="200" cy="305" r="36.5"/><path d="m181.8,284.9c1.8,1.5,2.1,4.2.6,6,0,0-.2.2-.3.3-1.7,2-4.7,2.2-6.8.5,0,0,0,0,0,0-1.9-1.8-2.1-4.8-.3-6.7,0,0,0,0,0,0,1-1.2,2.6-1.8,4.2-1.5l-.4,2c-.9-.1-1.7.2-2.3.9-1,1-1,2.6,0,3.6,0,0,.1.1.2.2,1.1,1.1,2.7,1,3.9-.3.8-.7,1-1.8.5-2.7l-1.6,1.8-1.4-1.2,3.1-3.4.6.5h0Z"/><path d="m190,281.6c.9,1.5.4,3.5-1.1,4.4,0,0,0,0,0,0-.6.4-1.4.5-2.1.2l1.5,2.8-1.7.9-4.3-8,1.7-.9.3.6c.2-.7.7-1.3,1.3-1.6,1.6-.8,3.6,0,4.4,1.5Zm-1.7.9c-.3-.7-1.2-1.1-1.9-.7,0,0-.1,0-.2,0-.7.4-1.1,1.3-.7,2,0,0,0,0,0,0,.3.7,1.2,1.1,1.9.7,0,0,.1,0,.2,0,.7-.4,1.1-1.3.7-2,0,0,0,0,0,0h0Z"/><path d="m197.3,279.2l.8,3.9-1.9.4-.7-3.6c0-.6-.5-1-1.1-.9,0,0-.2,0-.3,0-.6,0-1,.6-1,1.2,0,.1,0,.2,0,.3l.7,3.5-1.9.4-1.9-8.9,1.9-.4.6,3.2c.3-.6.9-1.1,1.6-1.1,1.3-.3,2.6.6,2.9,1.9,0,0,0,.2,0,.2h0Z"/><path d="m198.8,279.8c.1-1.9,1.7-3.4,3.7-3.2s3.4,1.7,3.2,3.7c-.1,1.9-1.7,3.4-3.7,3.2,0,0,0,0,0,0-1.9-.1-3.3-1.8-3.2-3.6,0,0,0,0,0,0Zm4.9.4c0-.8-.5-1.5-1.3-1.6,0,0,0,0,0,0-.8,0-1.5.6-1.6,1.4,0,.8.5,1.5,1.3,1.6,0,0,0,0,0,0,.8,0,1.5-.6,1.6-1.4Z"/><path d="m213.1,282.2l-1.4,3.7-1.8-.7,1.3-3.5c.3-.5.1-1.2-.4-1.4,0,0-.2,0-.2,0-.6-.3-1.3,0-1.6.7,0,0,0,0,0,.1l-1.3,3.3-1.8-.7,2.3-6.1,1.8.7-.2.6c.6-.4,1.4-.4,2,0,1.2.5,1.9,1.7,1.3,3.4h0Z"/><path d="m215.9,287c.4.3.8.4,1.3.3l.7,1.6c-1.9.5-3.9-.7-4.4-2.7-.2-1,0-2,.5-2.9,1.1-1.5,3.1-1.8,4.6-.8,0,0,.1,0,.2.1,1.4,1.1,1.8,3.1.7,4.5,0,0,0,.1-.1.2-.1.2-.3.4-.6.6l-3.6-2.8c-.2.6.1,1.3.7,1.6h0Zm2.3-1.2c.3-.6,0-1.3-.5-1.6-.5-.4-1.3-.4-1.8,0l2.3,1.7h0Z"/><path d="m225.5,296.7c-1.6.9-3.7.3-4.6-1.4-.8-1.6-.3-3.5,1.2-4.5.6-.3,1.2-.5,1.9-.5l5,.2,1.2,2-3.5-.2c.8,1.5.3,3.3-1.2,4.2,0,0,0,0,0,0h0Zm-1.1-1.8c.6-.3.8-1.1.5-1.7,0,0,0,0,0-.1-.3-.6-1-.8-1.6-.5,0,0,0,0,0,0-.6.3-.8,1-.5,1.6,0,0,0,.1.1.2.3.6,1,.8,1.6.5,0,0,0,0,0,0Z"/><path class="cls-86" d="m190.8,289.6h18.6c1.8,0,3.3,1.4,3.3,3.3,0,0,0,0,0,0v39.8c0,1.8-1.4,3.3-3.3,3.3,0,0,0,0,0,0h-18.6c-1.8,0-3.3-1.4-3.3-3.3,0,0,0,0,0,0v-39.8c0-1.8,1.4-3.3,3.3-3.3,0,0,0,0,0,0Z"/><path class="cls-70" d="m209.4,289.6h-18.6c-1.8,0-3.3,1.4-3.3,3.3,0,0,0,0,0,0v39.8l25.3-39.8c0-1.8-1.4-3.3-3.3-3.3,0,0,0,0,0,0Z"/><path class="cls-78" d="m210.8,330.1h-21.4c-.8,0-1.4-.6-1.4-1.4,0,0,0,0,0,0v-35.8c0-.9.7-1.6,1.5-1.6h21.2c.8,0,1.4.6,1.4,1.4,0,0,0,0,0,0v36c0,.8-.6,1.4-1.4,1.5Z"/><path class="cls-9" d="m201.8,334.5h-.4c-.3,0-.5,0-.8-.2-.3,0-.6-.2-1-.2-.4,0-.8-.1-1.1-.2h-.2c-.2,0-.2-.2-.2-.3,0-.2.1-.4.2-.6.1-.3.3-.6.4-.9,0-.2.2-.4.3-.6.2-.3.5-.4.8-.2,0,0,.1.1.2.2,0,0,.2.2.3.4.2.3.4.6.6.9l1,1.5v.2c0,.2,0,.2-.2.2v-.2Z"/><path class="cls-59" d="m201.9,304.8h-.4c-.3,0-.6,0-.9-.2-.4,0-.7-.1-1.1-.2-.4,0-.8-.1-1.2-.2h-.2c-.2,0-.2-.2-.2-.3s.2-.4.2-.6c.2-.3.2-.6.4-1,0-.2.2-.4.3-.6.2-.3.6-.4.9-.2,0,0,.1,0,.2.2.1.1.2.3.3.4.2.3.4.6.6,1,.3.5.6,1.1,1,1.5v.2c0,.2,0,.2-.2.2l.2-.2Z"/><path class="cls-59" d="m202.7,297.4h.2c.2,0,.2,0,.2.2s0,.2-.2.2c-.4.5-.7,1-1.1,1.4-.3.4-.7.8-1.1,1.2-.2.2-.4.3-.6.4-.3,0-.6,0-.8-.2-.1,0-.3-.2-.3-.4-.3-.5-.6-1-1-1.5-.1-.2-.3-.4-.4-.6h0c0-.2,0-.2.2-.2.7,0,1.4,0,2-.2.6,0,1.2,0,1.8-.2h1.3v-.2Z"/><path d="m198.8,319.4v1.8h-.7v1.1h-1.9v-1.1h-3.3v-1.8l2.3-4.6h2.2l-2.3,4.7h1.2v-1.4h1.9v1.4h.7,0Z"/><path d="m207,318v.8c0,1-.3,2-1.1,2.7-.7.7-1.7,1.1-2.8,1.1-1.1,0-2.1-.4-2.9-1.1-.7-.8-1.2-1.8-1.1-2.8,0-1.1.4-2.1,1.1-2.8.8-.7,1.8-1.2,2.8-1.1.7,0,1.4.1,1.9.5.6.3,1,.7,1.4,1.3l-1.6,1c-.2-.2-.4-.4-.6-.6-.3-.2-.6-.2-1-.2-1.1,0-2,1-2,2.1,0,.5.2,1,.6,1.4.4.4,1,.7,1.6.6.7,0,1.4-.3,1.8-1h-1.9v-1.7h3.7Z"/><path class="cls-83" d="m189.1,328.1c-.2.3-.6.4-.9.2-.2-.1-.3-.3-.3-.5v-34.9c0-.8.6-1.5,1.4-1.5,0,0,0,0,0,0h21.4c.4,0,.8.3.8.8,0,.1,0,.3-.1.4l-22.4,35.7h0Z"/><polyline class="cls-70" points="203.2 292.9 196.5 292.9 195.1 289.6 204.8 289.6"/><path class="cls-9" d="m202.7,291.8c0,.3-.2.5-.5.5h-4.3c-.3,0-.5-.2-.5-.5h0c0-.3.2-.5.5-.5h4.3c.3,0,.5.2.5.5Z"/><circle class="cls-7" cx="280.4" cy="305" r="36.5"/><path d="m262.4,285.1c1.9,1.6,2.2,4.4.6,6.3-.1.1-.2.3-.4.4-1.8,2.1-4.9,2.4-7.1.6-2.1-1.8-2.4-4.9-.6-7.1,0,0,.2-.2.3-.3,1.1-1.3,2.8-1.9,4.5-1.6l-.5,2.1c-.9-.1-1.8.2-2.4,1-1.1,1.1-1.1,2.8,0,3.9,0,0,0,0,.1.1,1.2,1.1,2.8,1.1,4.1-.3.8-.7,1.1-1.9.6-2.8l-1.8,1.9-1.4-1.3,3.3-3.6.6.6h0Z"/><path d="m271.4,281.7c.9,1.7.3,3.8-1.4,4.7,0,0,0,0,0,0-.7.4-1.5.4-2.2.2l1.5,3.1-1.9.9-4.3-8.7,1.9-.9.3.6c.2-.7.8-1.4,1.5-1.7,1.7-.8,3.8,0,4.5,1.8h0Zm-1.9.9c-.4-.8-1.3-1.2-2.1-.8,0,0,0,0,0,0-.8.3-1.2,1.2-.9,2,0,0,0,.2.1.2.4.8,1.3,1.2,2.1.8,0,0,0,0,0,0,.8-.3,1.2-1.2.9-2,0,0,0-.2-.1-.2h0Z"/><path d="m279.4,279.6l.6,4.2-2,.3-.6-3.9c0-.7-.6-1.1-1.3-1.1,0,0,0,0,0,0-.7,0-1.2.6-1.1,1.6l.6,3.7-2,.3-1.5-9.6,2-.3.5,3.4c.4-.6,1-1,1.8-1.1,1.4-.2,2.7.6,3,2.4h0Z"/><path d="m281,280.3c.3-2,2.1-3.4,4.1-3.1,1.9.2,3.3,2,3.1,4,0,0,0,.1,0,.2-.3,2-2.1,3.4-4.1,3.1-2-.3-3.4-2.1-3.1-4,0,0,0,0,0,0Zm5.2.8c.2-.8-.3-1.7-1.2-1.8,0,0,0,0-.1,0-.8-.2-1.6.3-1.8,1.1,0,0,0,.2,0,.2-.2.8.3,1.7,1.2,1.8,0,0,0,0,.1,0,.8.2,1.6-.3,1.8-1.1,0,0,0-.2,0-.2h0Z"/><path d="m296,284l-1.9,3.8-1.9-.9,1.7-3.6c.3-.5.2-1.2-.4-1.5,0,0-.1,0-.2,0-.6-.3-1.4-.1-1.7.5,0,0,0,.2,0,.2l-1.6,3.4-1.9-.9,3-6.2,1.9.9-.2.6c.7-.3,1.5-.3,2.1,0,1.2.6,1.9,2,1.1,3.7h0Z"/><path d="m298.5,289.5c.3.4.8.5,1.3.5l.6,1.8c-1.2.2-2.3-.1-3.2-1-1.5-1.3-1.8-3.5-.5-5.1,0,0,.1-.1.2-.2,1.3-1.5,3.5-1.6,5-.3,0,0,.1.1.2.2,1.4,1.3,1.5,3.4.3,4.8,0,0-.1.1-.2.2-.2.2-.4.4-.6.6l-3.6-3.3c-.3.7,0,1.3.6,1.9h0Zm2.7-1c.4-.6.2-1.4-.3-1.8-.5-.6-1.3-.7-1.9-.2l2.2,2Z"/><path d="m312.9,297.4l-1.7.7-8.4.3-1-2.1,8.1-.3-1.6-3.6,1.9-.9,2.6,5.8h0Z"/><path class="cls-69" d="m266.3,292.9h16.7c1.7,0,3,1.3,3,3,0,0,0,0,0,0v35.6c0,1.7-1.3,3-3,3,0,0,0,0,0,0h-16.7c-1.7,0-3-1.3-3-3,0,0,0,0,0,0v-35.6c0-1.7,1.3-3,3-3,0,0,0,0,0,0Z"/><path class="cls-86" d="m278.6,318.1c-.2,0-.4,0-.6,0-.5,0-1-.2-1.5-.3-.6,0-1.2-.2-1.8-.3-.7-.2-1.4-.2-2.1-.4-.1,0-.2,0-.3,0-.2,0-.3-.3-.3-.5,0,0,0,0,0,0,.2-.3.3-.6.4-1,.2-.6.5-1.1.7-1.6.2-.4.4-.7.6-1.1.3-.5,1-.7,1.5-.3.1,0,.2.2.3.2.2.2.3.4.5.6.3.6.7,1.1,1.1,1.6l1.7,2.7c0,0,0,.2.2.2,0,.2,0,.4-.3.4h0Z"/><path class="cls-86" d="m279.8,305.4h.2c.2,0,.3.2.2.3s-.2.2-.2.4c-.6.8-1.2,1.6-1.9,2.4-.6.8-1.2,1.5-1.8,2.1-.3.3-.7.6-1.1.7-.5,0-1,0-1.5-.3-.2-.2-.5-.5-.6-.7-.6-.9-1.1-1.7-1.7-2.6-.2-.4-.5-.8-.7-1.1h0c-.2-.3,0-.5.2-.5l3.5-.2c1.1,0,2.1-.2,3.1-.2.7,0,1.5,0,2.2-.2h0Z"/><path class="cls-86" d="m277.2,292.9h16.7c1.7,0,3,1.3,3,3,0,0,0,0,0,0v35.6c0,1.7-1.3,3-3,3,0,0,0,0,0,0h-16.7c-1.7,0-3-1.3-3-3,0,0,0,0,0,0v-35.6c0-1.7,1.3-3,3-3,0,0,0,0,0,0Z"/><path class="cls-40" d="m293.9,292.9h-16.7c-1.7,0-3,1.3-3,3,0,0,0,0,0,0v35.6l22.6-35.6c0-1.7-1.3-3-3-3,0,0,0,0,0,0h0Z"/><path class="cls-78" d="m295.1,329.1h-19.1c-.7,0-1.3-.6-1.3-1.3,0,0,0,0,0,0v-32.1c0-.8.6-1.4,1.4-1.5h19c.7,0,1.3.6,1.3,1.3,0,0,0,0,0,0v32.2c0,.7-.6,1.3-1.3,1.3,0,0,0,0,0,0h0Z"/><path class="cls-9" d="m287,333h-.3c-.3,0-.5,0-.7-.2-.3,0-.6,0-.9-.2-.4,0-.7-.1-1.1-.2h-.2c-.2,0-.2-.2,0-.2s.2-.3.2-.5.2-.6.4-.8c0-.2.2-.3.3-.5.2-.2.5-.3.7-.2,0,0,.1,0,.2.2,0,0,.2.2.2.3.2.2.3.6.5.8.2.4.6.9.8,1.3v.2c0,0,0,.2-.2.2v-.2Z"/><path class="cls-59" d="m287.2,306.5h-.3c-.3,0-.5,0-.8-.2-.3,0-.6-.2-1-.2-.4,0-.7-.1-1.1-.2h-.2c-.2,0-.2-.2-.2-.3s.2-.3.2-.5.2-.6.4-.8c0-.2.2-.4.3-.6.2-.2.5-.3.7-.2,0,0,.1,0,.2.2,0,0,.2.2.2.3.2.3.4.6.6.8.3.5.6.9.9,1.4v.2c0,.2,0,.2-.2.2v-.2Z"/><path class="cls-59" d="m287.9,299.8h.2c0,0,.2,0,0,.2,0,0,0,.2-.2.2l-1,1.2c-.3.4-.6.7-.9,1.1-.2.2-.3.3-.6.4-.3,0-.5,0-.7-.2-.1,0-.3-.2-.3-.4-.3-.5-.6-.9-.9-1.4-.1-.2-.2-.4-.3-.6h0c0-.2,0-.2.2-.2.6,0,1.2,0,1.9-.2.5,0,1.1,0,1.6,0h1.1l-.2-.2Z"/><path d="m284.4,319.5v1.6h-.6v1.1h-1.7v-1.1h-3v-1.6l2-4.1h1.9l-2,4.2h1.1v-1.2h1.7v1.2h.6,0Z"/><path d="m291.7,318.3v.7c0,.9-.3,1.8-1,2.4-.7.6-1.5.9-2.4.9-1,0-1.9-.3-2.6-1.1-.7-.7-1-1.6-1.1-2.5,0-1,.4-1.9,1.1-2.5.7-.7,1.6-1,2.5-1.1.6,0,1.2.1,1.8.4.5.2.9.6,1.2,1.1l-1.5.8c-.1-.2-.3-.4-.6-.5-.3-.1-.6-.2-.9-.2-.5,0-1,.1-1.3.5-.3.4-.5.9-.5,1.4,0,.5.1,1,.5,1.3.4.4.9.6,1.5.6.6,0,1.2-.3,1.5-.9h-1.6v-1.5h3.3Z"/><path class="cls-83" d="m275.7,327.3c-.2.3-.6.4-.9.2-.2-.1-.3-.3-.3-.5v-31.3c0-.8.6-1.4,1.4-1.4,0,0,0,0,0,0h19.2c.4,0,.7.2.7.6,0,.2,0,.3-.1.4l-20,31.9Z"/><polyline class="cls-40" points="288.3 295.8 282.4 295.8 281.1 292.9 289.7 292.9"/><path class="cls-9" d="m287.9,294.8c0,.2-.1.4-.4.4,0,0,0,0,0,0h-3.8c-.2,0-.4-.1-.4-.4,0,0,0,0,0,0h0c0-.2.1-.4.4-.4,0,0,0,0,0,0h3.8c.2,0,.4.1.4.4,0,0,0,0,0,0Z"/><rect class="cls-38" x="265.2" y="294.9" width="7.9" height="4.4" rx="1.6" ry="1.6"/><circle cx="267.3" cy="297.3" r=".7"/><path class="cls-58" d="m267.4,298.6c-.9,0-1.6-.7-1.6-1.6,0-.9.7-1.6,1.6-1.6.9,0,1.6.7,1.6,1.6,0,0,0,0,0,0,0,.9-.7,1.5-1.6,1.5,0,0,0,0,0,0Zm-.7-1.7c0,.2,0,.4,0,.6.1.3.5.5.8.4.3,0,.6-.3.6-.6.1-.4,0-.7-.4-.9-.2-.1-.4-.1-.6,0-.4,0-.6.2-.6.6h0Z"/><path class="cls-87" d="m267.2,296.3c.2,0,.4,0,.6,0,.3.2.5.5.4.9,0,.3-.3.5-.6.6-.3,0-.6-.1-.8-.4-.1-.2-.1-.4,0-.6,0,0,.2,0,.3,0,0,.2,0,.4.2.4s.4,0,.5-.2,0-.5-.4-.6c0-.2,0-.3-.2-.4v.2Z"/><path class="cls-71" d="m267.2,296.3c.1.1.2.3.2.4,0,.1-.2.3-.3.3-.2,0-.2,0-.3,0,0-.4.2-.6.6-.6h0Z"/><circle cx="270.8" cy="297.3" r=".7"/><path class="cls-58" d="m271,298.6c-.9,0-1.6-.7-1.6-1.6,0-.9.7-1.6,1.6-1.6.9,0,1.6.7,1.6,1.6,0,0,0,0,0,0,0,.9-.7,1.5-1.6,1.5,0,0,0,0,0,0Zm-.7-1.7c0,.2,0,.4,0,.6.1.3.5.5.8.4.3,0,.6-.3.6-.6.1-.4,0-.7-.4-.9-.2-.1-.4-.1-.6,0-.4,0-.6.2-.6.6h0Z"/><path class="cls-87" d="m270.8,296.3c.2,0,.4,0,.6,0,.3.2.5.5.4.9,0,.3-.3.5-.6.6-.3,0-.6-.1-.8-.4-.1-.2-.1-.4,0-.6,0,0,.2,0,.3,0,0,.2,0,.4.2.4s.4,0,.5-.2,0-.5-.4-.6c0-.2,0-.3-.2-.4v.2Z"/><path class="cls-71" d="m270.8,296.3c.1.1.2.3.2.4,0,.1-.2.3-.3.3-.2,0-.2,0-.3,0,0-.4.2-.6.6-.6h0Z"/><circle class="cls-7" cx="360.8" cy="305" r="36.4"/><path d="m342.6,283.6c1.8,1.5,2.1,4.2.6,6,0,0-.2.2-.3.3-1.7,2-4.7,2.2-6.8.5,0,0,0,0,0,0-1.9-1.8-2.1-4.8-.3-6.7,0,0,0,0,0,0,1-1.2,2.6-1.8,4.2-1.5l-.4,2c-.9-.1-1.7.2-2.3.9-1,1-1,2.6,0,3.6,0,0,.1.1.2.2,1.1,1.1,2.7,1,3.9-.3.8-.7,1-1.8.5-2.7l-1.6,1.8-1.4-1.2,3.1-3.4.6.5h0Z"/><path d="m350.8,280.2c.9,1.5.4,3.5-1.1,4.4,0,0,0,0,0,0-.6.4-1.4.5-2.1.2l1.5,2.8-1.7.9-4.3-8,1.7-.9.3.6c.2-.7.7-1.3,1.3-1.6,1.6-.8,3.6,0,4.4,1.5Zm-1.7.9c-.3-.7-1.2-1.1-1.9-.7,0,0-.1,0-.2,0-.7.4-1.1,1.3-.7,2,0,0,0,0,0,0,.3.7,1.2,1.1,1.9.7,0,0,.1,0,.2,0,.7-.4,1.1-1.3.7-2,0,0,0,0,0,0h0Z"/><path d="m358.1,277.9l.8,3.9-1.9.4-.7-3.6c0-.6-.5-1-1.1-.9,0,0-.2,0-.3,0-.6,0-1,.6-1,1.2,0,.1,0,.2,0,.3l.7,3.5-1.9.4-1.9-8.9,1.9-.4.6,3.2c.3-.6.9-1.1,1.6-1.1,1.3-.3,2.6.6,2.9,1.9,0,0,0,.2,0,.2h0Z"/><path d="m359.6,278.4c.1-1.9,1.7-3.4,3.7-3.2s3.4,1.7,3.2,3.7-1.7,3.4-3.7,3.2c0,0,0,0,0,0-1.9-.1-3.3-1.8-3.2-3.6,0,0,0,0,0,0Zm4.9.4c0-.8-.5-1.5-1.3-1.6,0,0,0,0,0,0-.8,0-1.5.6-1.6,1.4,0,.8.5,1.5,1.3,1.6,0,0,0,0,0,0,.8,0,1.5-.6,1.6-1.4Z"/><path d="m373.9,280.9l-1.4,3.7-1.8-.7,1.3-3.5c.3-.5.1-1.2-.4-1.4,0,0-.2,0-.2,0-.6-.3-1.3,0-1.6.7,0,0,0,0,0,.1l-1.3,3.3-1.8-.7,2.3-6.1,1.8.7-.2.6c.6-.4,1.4-.4,2,0,1.2.5,1.9,1.7,1.3,3.4h0Z"/><path d="m376.7,285.7c.4.3.8.4,1.3.3l.7,1.6c-1.9.5-3.9-.7-4.4-2.7-.2-1,0-2,.5-2.9,1.1-1.5,3.1-1.8,4.6-.8,0,0,.1,0,.2.1,1.4,1.1,1.8,3.1.7,4.5,0,0,0,.1-.1.2-.1.2-.3.4-.6.6l-3.6-2.8c-.2.6.1,1.3.7,1.6h0Zm2.3-1.1c.3-.6,0-1.3-.5-1.6-.5-.4-1.3-.4-1.8,0l2.3,1.7h0Z"/><path d="m385.9,295.7c-1.5.8-3,.3-4-1.5-1.1-1.9-.7-3.4.6-4.3.8-.5,1.7-.5,2.5,0,0-.7.5-1.4,1.1-1.7,1.5-.9,3-.2,3.9,1.2.9,1.4.7,3.1-.8,4-.6.4-1.4.4-2,.2,0,.9-.5,1.7-1.3,2.1h0Zm-.8-1.9c.5-.3.7-1,.4-1.6,0,0,0,0,0,0-.4-.6-1-.9-1.5-.6-.5.3-.7,1-.4,1.6,0,0,0,0,0,0,.4.6,1,.9,1.5.6Zm1.9-3.7c-.4.3-.6.8-.3,1.3.2.4.7.6,1.2.4,0,0,0,0,0,0,.4-.3.6-.8.3-1.3-.2-.4-.7-.6-1.2-.4,0,0,0,0,0,0Z"/><path class="cls-42" d="m346.7,292.9h16.7c1.7,0,3,1.3,3,3,0,0,0,0,0,0v35.6c0,1.7-1.3,3-3,3,0,0,0,0,0,0h-16.7c-1.7,0-3-1.3-3-3,0,0,0,0,0,0v-35.6c0-1.7,1.3-3,3-3,0,0,0,0,0,0Z"/><path class="cls-28" d="m359,318.1c-.2,0-.4,0-.6,0-.5,0-1-.2-1.5-.3-.6,0-1.2-.2-1.8-.3-.7-.2-1.4-.2-2.1-.4-.1,0-.2,0-.3,0-.2,0-.3-.3-.3-.5,0,0,0,0,0,0,.2-.3.3-.6.4-1,.2-.6.5-1.1.7-1.6.2-.4.4-.7.6-1.1.3-.5,1-.7,1.5-.3.1,0,.2.2.3.2.2.2.3.4.5.6.3.6.7,1.1,1.1,1.6l1.7,2.7c0,0,0,.2.2.2,0,.2,0,.4-.3.4h0Z"/><path class="cls-28" d="m360.2,305.4h.2c.2,0,.3.2.2.3s-.2.2-.2.4c-.6.8-1.2,1.6-1.9,2.4-.6.8-1.2,1.5-1.8,2.1-.3.3-.7.6-1.1.7-.5,0-1,0-1.5-.3-.2-.2-.5-.5-.6-.7-.6-.9-1.1-1.7-1.7-2.6-.2-.4-.5-.8-.7-1.1h0c-.2-.3,0-.5.2-.5l3.5-.2c1.1,0,2.1-.2,3.1-.2.7,0,1.5,0,2.2-.2h0Z"/><path class="cls-28" d="m357.6,292.9h16.7c1.7,0,3,1.3,3,3,0,0,0,0,0,0v35.6c0,1.7-1.3,3-3,3,0,0,0,0,0,0h-16.7c-1.7,0-3-1.3-3-3,0,0,0,0,0,0v-35.6c0-1.7,1.3-3,3-3,0,0,0,0,0,0Z"/><path class="cls-89" d="m374.3,292.9h-16.7c-1.7,0-3,1.3-3,3,0,0,0,0,0,0v35.6l22.6-35.6c0-1.7-1.3-3-3-3,0,0,0,0,0,0h0Z"/><path class="cls-24" d="m375.5,333.4h-19.1c-.8,0-1.3-.7-1.3-1.4,0,0,0,0,0,0v-36c0-.8.6-1.5,1.4-1.6h19c.8,0,1.3.7,1.3,1.4,0,0,0,0,0,0v36.1c0,.8-.5,1.4-1.3,1.5,0,0,0,0,0,0h0Z"/><path class="cls-68" d="m367.6,306.5h-.3c-.3,0-.5,0-.8-.2-.3,0-.6-.2-1-.2-.4,0-.7-.1-1.1-.2h-.2c-.2,0-.2-.2-.2-.3s.2-.3.2-.5.2-.6.4-.8c0-.2.2-.4.3-.6.2-.2.5-.3.7-.2,0,0,.1,0,.2.2,0,0,.2.2.2.3.2.3.4.6.6.8.3.5.6.9.9,1.4v.2c0,.2,0,.2-.2.2v-.2Z"/><path class="cls-68" d="m368.3,299.8h.2c0,0,.2,0,0,.2,0,0,0,.2-.2.2l-1,1.2c-.3.4-.6.7-.9,1.1-.2.2-.3.3-.6.4-.3,0-.5,0-.7-.2-.1,0-.3-.2-.3-.4-.3-.5-.6-.9-.9-1.4-.1-.2-.2-.4-.3-.6h0c0-.2,0-.2.2-.2.6,0,1.2,0,1.9-.2.5,0,1.1,0,1.6,0h1.1l-.2-.2Z"/><path d="m362.2,317.7c.6,0,1.2.2,1.7.6.4.4.7,1,.6,1.6,0,.6-.2,1.3-.7,1.7-.5.4-1.1.6-1.8.6-1.1,0-2.1-.6-2.5-1.5l1.5-.9c.1.4.5.7,1,.7.5,0,.4,0,.6-.2s.2-.2.2-.5,0-.3-.2-.5c-.2-.1-.4-.2-.6-.2h-2.2l.2-4h4v1.6h-2.4v.7h.4l.2.2Z"/><path d="m372,318.3v.7c0,.9-.3,1.8-1,2.4-.7.6-1.5.9-2.4.9-1,0-1.9-.3-2.6-1.1-.7-.7-1-1.6-1.1-2.5,0-1,.4-1.9,1.1-2.5.7-.7,1.6-1,2.5-1.1.6,0,1.2.1,1.8.4.5.2.9.6,1.2,1.1l-1.5.8c-.1-.2-.3-.4-.6-.5-.3-.1-.6-.2-.9-.2-.5,0-1,.1-1.3.5-.3.4-.5.9-.5,1.4,0,.5.1,1,.5,1.3.4.4.9.6,1.5.6.6,0,1.2-.3,1.5-.9h-1.6v-1.5h3.3Z"/><path class="cls-83" d="m356.1,332.2c-.3.6-1.1.3-1.1-.4v-35.9c0-.8.6-1.5,1.4-1.6h19.2c.4,0,.7.5.7.9,0,.1,0,.2-.1.3l-20,36.7Z"/><path class="cls-72" d="m368.3,295.6c0,.2-.1.4-.4.4,0,0,0,0,0,0h-3.8c-.2,0-.4-.1-.4-.4,0,0,0,0,0,0h0c0-.2.1-.4.4-.4,0,0,0,0,0,0h3.8c.2,0,.4.1.4.4,0,0,0,0,0,0Z"/><rect class="cls-38" x="345.6" y="294.9" width="7.9" height="7.7" rx="1.6" ry="1.6"/><circle cx="347.7" cy="297.3" r=".7"/><path class="cls-58" d="m347.8,298.6c-.9,0-1.6-.7-1.6-1.6,0-.9.7-1.6,1.6-1.6.9,0,1.6.7,1.6,1.6,0,0,0,0,0,0,0,.9-.7,1.5-1.6,1.5,0,0,0,0,0,0Zm-.7-1.7c0,.2,0,.4,0,.6.1.3.5.5.8.4.3,0,.6-.3.6-.6.1-.4,0-.7-.4-.9-.2-.1-.4-.1-.6,0-.4,0-.6.2-.6.6h0Z"/><path class="cls-87" d="m347.6,296.3c.2,0,.4,0,.6,0,.3.2.5.5.4.9,0,.3-.3.5-.6.6-.3,0-.6-.1-.8-.4-.1-.2-.1-.4,0-.6,0,0,.2,0,.3,0,0,.2,0,.4.2.4s.4,0,.5-.2,0-.5-.4-.6c0-.2,0-.3-.2-.4v.2Z"/><path class="cls-71" d="m347.6,296.3c.1.1.2.3.2.4,0,.1-.2.3-.3.3-.2,0-.2,0-.3,0,0-.4.2-.6.6-.6h0Z"/><circle cx="351.3" cy="297.3" r=".7"/><path class="cls-58" d="m351.4,298.6c-.9,0-1.6-.7-1.6-1.6,0-.9.7-1.6,1.6-1.6.9,0,1.6.7,1.6,1.6,0,0,0,0,0,0,0,.9-.7,1.5-1.6,1.5,0,0,0,0,0,0Zm-.7-1.7c0,.2,0,.4,0,.6.1.3.5.5.8.4.3,0,.6-.3.6-.6.1-.4,0-.7-.4-.9-.2-.1-.4-.1-.6,0-.4,0-.6.2-.6.6h0Z"/><path class="cls-87" d="m351.2,296.3c.2,0,.4,0,.6,0,.3.2.5.5.4.9,0,.3-.3.5-.6.6-.3,0-.6-.1-.8-.4-.1-.2-.1-.4,0-.6,0,0,.2,0,.3,0,0,.2,0,.4.2.4s.4,0,.5-.2,0-.5-.4-.6c0-.2,0-.3-.2-.4v.2Z"/><path class="cls-71" d="m351.2,296.3c.1.1.2.3.2.4,0,.1-.2.3-.3.3-.2,0-.2,0-.3,0,0-.4.2-.6.6-.6h0Z"/><circle cx="347.7" cy="300.4" r=".4"/><path class="cls-85" d="m347.8,301.1c-.5,0-.9-.4-.9-.9s.4-.9.9-.9.9.4.9.9c0,.5-.4.9-.9.9Zm-.4-1v.3c0,.2.3.3.5.2.2,0,.3-.2.3-.3,0-.2,0-.4-.2-.5h-.3c-.2,0-.4.2-.3.3h0Z"/><path class="cls-37" d="m347.7,299.8h.3c.2.1.2.3.2.5,0,.2-.2.3-.3.3-.2,0-.4,0-.5-.2,0,0,0-.2,0-.3h.2c0,0,0,.2.2.2s.2,0,.2,0,0-.2-.2-.3v-.2.2Z"/><path class="cls-51" d="m347.7,299.8s0,.2,0,.2,0,.2-.2.2h-.2c0-.2,0-.3.3-.3h0Z"/><circle cx="351.3" cy="300.4" r=".2"/><path class="cls-58" d="m351.4,300.7c-.3,0-.5-.2-.5-.5s.2-.5.5-.5.5.2.5.5c0,.3-.2.5-.5.5Zm-.2-.6v.2c0,0,.1.1.2.1,0,0,0,0,0,0,0,0,.2,0,.2-.2,0,0,0-.2-.2-.2h-.2c-.2,0-.2,0-.2.2h0Z"/><path class="cls-87" d="m351.3,300h.2c0,0,.2.2.2.2,0,0,0,.2-.2.2,0,0-.2,0-.2,0v-.2h0c0,0,0,.1,0,.2h.2c0,0,0-.2-.2-.2v-.2h0Z"/><path class="cls-71" d="m351.3,300v.2h0c0,0,0,0,0,0,0,0,0-.2.2-.2h0Z"/><circle class="cls-7" cx="119.6" cy="305" r="36.5"/><path d="m101.4,284.6c1.8,1.5,2.1,4.2.6,6,0,0-.2.2-.3.3-1.7,2-4.7,2.2-6.8.5,0,0,0,0,0,0-1.9-1.8-2.1-4.8-.3-6.7,0,0,0,0,0,0,1-1.2,2.6-1.8,4.2-1.5l-.4,2c-.9-.1-1.7.2-2.3.9-1,1-1,2.6,0,3.6,0,0,.1.1.2.2,1.1,1.1,2.7,1,3.9-.3.8-.7,1-1.8.5-2.7l-1.6,1.8-1.4-1.2,3.1-3.4.6.5h0Z"/><path d="m109.6,281.3c.9,1.5.4,3.5-1.1,4.4,0,0,0,0,0,0-.6.4-1.4.5-2.1.2l1.5,2.8-1.7.9-4.3-8,1.7-.9.3.6c.2-.7.7-1.3,1.3-1.6,1.6-.8,3.6,0,4.4,1.5Zm-1.7.9c-.3-.7-1.2-1.1-1.9-.7,0,0-.1,0-.2,0-.7.4-1.1,1.3-.7,2,0,0,0,0,0,0,.3.7,1.2,1.1,1.9.7,0,0,.1,0,.2,0,.7-.4,1.1-1.3.7-2,0,0,0,0,0,0h0Z"/><path d="m116.9,278.9l.8,3.9-1.9.4-.7-3.6c0-.6-.5-1-1.1-.9,0,0-.2,0-.3,0-.6,0-1,.6-1,1.2,0,.1,0,.2,0,.3l.7,3.5-1.9.4-1.9-8.9,1.9-.4.6,3.2c.3-.6.9-1.1,1.6-1.1,1.3-.3,2.6.6,2.9,1.9,0,0,0,.2,0,.2h0Z"/><path d="m118.4,279.5c.1-1.9,1.7-3.4,3.7-3.2s3.4,1.7,3.2,3.7-1.7,3.4-3.7,3.2c0,0,0,0,0,0-1.9-.1-3.3-1.8-3.2-3.6,0,0,0,0,0,0Zm4.9.4c0-.8-.5-1.5-1.3-1.6,0,0,0,0,0,0-.8,0-1.5.6-1.6,1.4,0,.8.5,1.5,1.3,1.6,0,0,0,0,0,0,.8,0,1.5-.6,1.6-1.4Z"/><path d="m132.7,281.9l-1.4,3.7-1.8-.7,1.3-3.5c.3-.5.1-1.2-.4-1.4,0,0-.2,0-.2,0-.6-.3-1.3,0-1.6.7,0,0,0,0,0,.1l-1.3,3.3-1.8-.7,2.3-6.1,1.8.7-.2.6c.6-.4,1.4-.4,2,0,1.2.5,1.9,1.7,1.3,3.4h0Z"/><path d="m135.5,286.8c.4.3.8.4,1.3.3l.7,1.6c-1.9.5-3.9-.7-4.4-2.7-.2-1,0-2,.5-2.9,1.1-1.5,3.1-1.8,4.6-.8,0,0,.1,0,.2.1,1.4,1.1,1.8,3.1.7,4.5,0,0,0,.1-.1.2-.1.2-.3.4-.6.6l-3.6-2.8c-.2.6.1,1.3.7,1.6h0Zm2.3-1.2c.3-.6,0-1.3-.5-1.6-.5-.4-1.3-.4-1.8,0l2.3,1.7h0Z"/><path d="m144.9,296.3c-1.7,1.1-3.4.2-4.3-1.3-.8-1.2-.8-2.7,0-3.8l1.8,1.1c-.4.5-.5,1.2,0,1.7.2.5.8.8,1.4.6,0,0,0,0,0,0,.5-.3.6-.8.2-1.5l-1.5-2.4,4.7-2.3,2.7,4.5-1.7,1-1.7-2.8-1.1.6.4.6c.9,1.3.6,3-.6,4-.1.1-.3.2-.4.3h.2Z"/><path class="cls-64" d="m110.4,289.6h18.6c1.8,0,3.3,1.4,3.3,3.3,0,0,0,0,0,0v39.8c0,1.8-1.4,3.3-3.3,3.3,0,0,0,0,0,0h-18.6c-1.8,0-3.3-1.4-3.3-3.3,0,0,0,0,0,0v-39.8c0-1.8,1.4-3.3,3.3-3.3,0,0,0,0,0,0Z"/><path class="cls-2" d="m129,289.6h-18.6c-1.8,0-3.3,1.4-3.3,3.3,0,0,0,0,0,0v39.8l25.3-39.8c0-1.8-1.4-3.3-3.3-3.3,0,0,0,0,0,0Z"/><path class="cls-16" d="m130.4,330.1h-21.4c-.8,0-1.4-.6-1.4-1.4,0,0,0,0,0,0v-35.8c0-.9.7-1.6,1.5-1.6h21.2c.8,0,1.4.6,1.4,1.4,0,0,0,0,0,0v36c0,.8-.6,1.4-1.4,1.5Z"/><path class="cls-9" d="m121.4,334.5h-.4c-.3,0-.5,0-.8-.2-.3,0-.6-.2-1-.2-.4,0-.8-.1-1.1-.2h-.2c-.2,0-.2-.2-.2-.3,0-.2.1-.4.2-.6.1-.3.3-.6.4-.9,0-.2.2-.4.3-.6.2-.3.5-.4.8-.2,0,0,.1.1.2.2,0,0,.2.2.3.4.2.3.4.6.6.9l1,1.5v.2c0,.2,0,.2-.2.2v-.2Z"/><path class="cls-59" d="m121.5,304.8h-.4c-.3,0-.6,0-.9-.2-.4,0-.7-.1-1.1-.2-.4,0-.8-.1-1.2-.2h-.2c-.2,0-.2-.2-.2-.3s.2-.4.2-.6c.2-.3.2-.6.4-1,0-.2.2-.4.3-.6.2-.3.6-.4.9-.2,0,0,.1,0,.2.2.1.1.2.3.3.4.2.3.4.6.6,1,.3.5.6,1.1,1,1.5v.2c0,.2,0,.2-.2.2l.2-.2Z"/><path class="cls-59" d="m122.3,297.4h.2c.2,0,.2,0,.2.2s0,.2-.2.2c-.4.5-.7,1-1.1,1.4-.3.4-.7.8-1.1,1.2-.2.2-.4.3-.6.4-.3,0-.6,0-.8-.2-.1,0-.3-.2-.3-.4-.3-.5-.6-1-1-1.5-.1-.2-.3-.4-.4-.6h0c0-.2,0-.2.2-.2.7,0,1.4,0,2-.2.6,0,1.2,0,1.8-.2h1.3v-.2Z"/><path d="m116.4,317.9c.5.1.9.4,1.1.8.3.4.4.8.4,1.3,0,.7-.2,1.4-.8,1.9-.6.4-1.3.7-2,.6-.6,0-1.2-.1-1.7-.4-.5-.3-.8-.8-1.1-1.3l1.7-1c0,.5.5.9,1.1.8.6,0,.5,0,.6-.2.1-.1.2-.3.2-.5,0-.2,0-.4-.2-.5-.2-.1-.4-.2-.6-.2h-.4l-.7-1.1,1.2-1.5h-2.5v-1.9h4.9v1.5l-1.3,1.5h0Z"/><path d="m126.5,318v.8c0,1-.3,2-1.1,2.7-.7.7-1.7,1.1-2.8,1.1-1.1,0-2.1-.4-2.9-1.1-.7-.8-1.2-1.8-1.1-2.8,0-1.1.4-2.1,1.1-2.8.8-.7,1.8-1.2,2.8-1.1.7,0,1.4.1,1.9.5.6.3,1,.7,1.4,1.3l-1.6,1c-.2-.2-.4-.4-.6-.6-.3-.2-.6-.2-1-.2-1.1,0-2,1-2,2.1,0,.5.2,1,.6,1.4.4.4,1,.7,1.6.6.7,0,1.4-.3,1.8-1h-1.9v-1.7h3.7Z"/><path class="cls-83" d="m108.7,328.1c-.2.3-.6.4-.9.2-.2-.1-.3-.3-.3-.5v-34.9c0-.8.6-1.5,1.4-1.5,0,0,0,0,0,0h21.4c.4,0,.8.3.8.8,0,.1,0,.3-.1.4l-22.4,35.7h0Z"/><polyline class="cls-2" points="122.8 292.9 116.1 292.9 114.7 289.6 124.4 289.6"/><path class="cls-9" d="m122.3,291.8c0,.3-.2.5-.5.5h-4.3c-.3,0-.5-.2-.5-.5h0c0-.3.2-.5.5-.5h4.3c.3,0,.5.2.5.5Z"/><line class="cls-3" x1="200.4" y1="221.8" x2="200.3" y2="240.4"/><line class="cls-3" x1="39.5" y1="240.9" x2="360.5" y2="240.9"/><line class="cls-8" x1="40" y1="240.7" x2="40" y2="250"/><polygon class="cls-84" points="33.5 248.1 40 259.3 46.4 248.1 33.5 248.1"/><line class="cls-8" x1="120.1" y1="240.7" x2="120.1" y2="250"/><polygon class="cls-84" points="113.6 248.1 120.1 259.3 126.6 248.1 113.6 248.1"/><line class="cls-8" x1="200.3" y1="240.7" x2="200.3" y2="250"/><polygon class="cls-84" points="193.8 248.1 200.3 259.3 206.7 248.1 193.8 248.1"/><line class="cls-8" x1="280.4" y1="240.7" x2="280.4" y2="250"/><polygon class="cls-84" points="273.9 248.1 280.4 259.3 286.9 248.1 273.9 248.1"/><line class="cls-8" x1="360.5" y1="240.7" x2="360.5" y2="250"/><polygon class="cls-84" points="354.1 248.1 360.5 259.3 367 248.1 354.1 248.1"/></svg>