<?xml version="1.0" encoding="UTF-8"?><svg id="Layer_1" xmlns="http://www.w3.org/2000/svg" viewBox="0 0 400 400"><defs><style>.cls-1{fill:#fe6d3a;}.cls-2{stroke:#a5262d;}.cls-2,.cls-3,.cls-4,.cls-5{stroke-width:4px;}.cls-2,.cls-3,.cls-4,.cls-5,.cls-6{fill:none;stroke-miterlimit:10;}.cls-7{fill:#e1dde1;}.cls-8{fill:#f0ca6f;}.cls-9{fill:#fafdfc;}.cls-10{fill:#fff;}.cls-11{fill:#a7b4b9;}.cls-12{fill:#fcfdfd;}.cls-3{stroke:#0018c6;}.cls-13{fill:#e2bb64;}.cls-14{fill:#a5c2db;}.cls-15{fill:#fe901f;}.cls-16{fill:#f9fdfc;}.cls-17{fill:#222;}.cls-4{stroke:#c000e2;}.cls-18{fill:#bbc3c6;}.cls-19{fill:#7ac943;}.cls-20{fill:#cac3cb;}.cls-21{fill:#fedd46;}.cls-22{fill:#386079;}.cls-23{fill:#444b66;}.cls-24{fill:#efc319;}.cls-25{fill:#f2eff2;}.cls-5{stroke:#00b51e;}.cls-26{fill:#555a6e;}.cls-27{fill:#f8d77c;}.cls-28{fill:#463c4b;}.cls-29{fill:#feb024;}.cls-30{fill:#a5c3db;}.cls-31{fill:#d3e4ee;}.cls-32{fill:#424240;}.cls-33{fill:#2489c4;}.cls-6{stroke:#231f20;stroke-width:2px;}.cls-34{fill:#c6ecf9;}.cls-35{fill:#fbbd41;}.cls-36{fill:#3d435c;}.cls-37{fill:#01b6a0;}.cls-38{fill:#26b899;}.cls-39{fill:#faf8fa;}.cls-40{fill:#58d4fc;}.cls-41{fill:#d6e5ef;}.cls-42{fill:#fe6e3c;}.cls-43{fill:#ff931e;}.cls-44{fill:#0071bc;}.cls-45{fill:#2487c3;}.cls-46{fill:#212121;}.cls-47{fill:#2e5872;}.cls-48{fill:#efc31a;}.cls-49{fill:#b09146;}.cls-50{fill:#204958;}.cls-51{fill:#c6ecfa;}.cls-52{fill:#2387c3;}.cls-53{fill:#94a4a4;}.cls-54{fill:#e7d19a;isolation:isolate;opacity:.5;}.cls-55{fill:#2487c2;}.cls-56{fill:#f0f3f2;}.cls-57{fill:#3e657d;}.cls-58{fill:#454c67;}.cls-59{fill:#2387c2;}.cls-60{fill:#cbc4cc;}.cls-61{fill:#c6d8de;}.cls-62{fill:#69a6fe;}.cls-63{fill:#c4d8dd;}.cls-64{fill:#a4c2db;}.cls-65{fill:#cad9df;}.cls-66{fill:#231f20;}.cls-67{fill:#c7d9de;}.cls-68{fill:#c5d8de;}.cls-69{fill:#fbf9fa;}.cls-70{fill:#28b99a;}.cls-71{fill:#fccc07;}.cls-72{fill:#fe901e;}.cls-73{fill:#6e6b87;}</style></defs><polygon class="cls-62" points="109.7 334.4 97.8 334.4 99.4 329.1 108.8 329.1 109.7 334.4"/><circle class="cls-5" cx="111.7" cy="308.4" r="45"/><path d="m89.2,283.4c2.3,1.9,2.6,5.2.7,7.4-.1.1-.2.2-.3.4-2.1,2.5-5.9,2.8-8.3.6,0,0,0,0,0,0-2.4-2.2-2.6-5.9-.4-8.3,0,0,0,0,0,0,1.3-1.5,3.3-2.2,5.2-1.9l-.5,2.5c-1.1-.2-2.1.3-2.8,1.1-1.2,1.2-1.2,3.2,0,4.5,0,0,.2.2.3.2,1.4,1.3,3.3,1.2,4.8-.4.9-.8,1.2-2.2.6-3.3l-2,2.2-1.7-1.5,3.8-4.2.7.6h0Z"/><path d="m99.4,279.3c1.1,1.9.5,4.4-1.4,5.5,0,0,0,0,0,0-.8.5-1.7.6-2.6.3l1.9,3.5-2.1,1.1-5.3-9.9,2.1-1.1.4.7c.2-.9.8-1.6,1.6-2,2-1,4.4-.1,5.4,1.9Zm-2.1,1.1c-.4-.9-1.5-1.3-2.4-.9,0,0-.1,0-.2.1-.9.4-1.3,1.6-.9,2.5,0,0,0,0,0,.1.4.9,1.5,1.3,2.4.9,0,0,.1,0,.2-.1.9-.4,1.3-1.6.9-2.5,0,0,0,0,0-.1h0Z"/><path d="m108.4,276.3l1,4.8-2.4.5-.9-4.5c0-.7-.7-1.2-1.4-1.2-.1,0-.2,0-.3,0-.7,0-1.3.8-1.2,1.5,0,.1,0,.3.1.4l.9,4.3-2.4.5-2.3-11,2.3-.5.8,3.9c.4-.8,1.1-1.3,2-1.4,1.6-.3,3.2.7,3.6,2.3,0,0,0,.2,0,.3h.2Z"/><path d="m110.2,277.1c.1-2.3,2.2-4.1,4.5-4,2.3.1,4.1,2.2,4,4.5s-2.2,4.1-4.5,4c0,0,0,0,0,0-2.3-.2-4.1-2.2-3.9-4.5,0,0,0,0,0,0Zm6.1.5c.1-1-.6-1.9-1.6-2,0,0,0,0,0,0-1-.1-1.9.5-2,1.5,0,0,0,.1,0,.2-.1,1,.6,1.9,1.6,2,0,0,0,0,0,0,1,0,1.9-.7,2-1.7Z"/><path d="m127.9,280l-1.7,4.6-2.2-.9,1.6-4.3c.4-.6.1-1.4-.5-1.8,0,0-.2,0-.3-.1-.8-.3-1.6,0-1.9.8,0,0,0,.1,0,.2l-1.6,4.1-2.2-.9,2.8-7.5,2.2.9-.3.7c.8-.5,1.7-.5,2.5,0,1.5.6,2.4,2.1,1.6,4.2h0Z"/><path d="m131.3,286c.5.4,1,.5,1.6.4l.9,2c-2.4.6-4.8-.9-5.4-3.3-.3-1.2,0-2.5.6-3.5,1.3-1.8,3.8-2.3,5.7-1,0,0,.2.1.2.2,1.8,1.3,2.2,3.8.9,5.6,0,0-.1.1-.2.2-.2.3-.4.5-.7.7l-4.5-3.4c-.2.8.2,1.6.9,2h0Zm2.9-1.5c.4-.7,0-1.6-.6-2-.6-.6-1.6-.6-2.2,0l2.8,2.1h0Z"/><path d="m139,298.3l1.9-3.2h-3.7l-1.4-2.6h6.6l3.2-5.4,1.4,2.5-1.7,3h3.4l1.4,2.6h-6.3l-3.3,5.7-1.4-2.5h0Z"/><path class="cls-44" d="m93.1,316.8h5.5l5.1,15.2h0c.1.4.4.6.8.6h.1c.4,0,.7-.4.8-.8l.8-15h25.6c.2,0,.5,0,.6-.3s.3-.4.3-.6v-24.6c0-.2,0-.5-.3-.6s-.4-.3-.6-.3h-38.7c-.5,0-.9.4-.9.9v24.6c0,.2,0,.5.3.6s.4.3.6.3h0Z"/><path class="cls-62" d="m103.9,327.1l-3.8-11.3v-1.9h0c.4.2.8.3,1.3.3l1.5,2.3c.2.2.4.4.7.4h.8l-.6,10.3h.1Z"/><path class="cls-43" d="m101.9,330.9v-1.8h-6.2c-.5,0-.9.4-.9.9v9.7c0,.2,0,.5.3.6s.4.3.6.3h16.7c.2,0,.5,0,.6-.3s.3-.4.3-.6v-9.7c0-.2,0-.5-.3-.6s-.4-.3-.6-.3h-5.3v1.8h.9v2.6h-5.9c-1.1,0-2-.9-2-2h0c0-.3.3-.6.6-.6h1.2Z"/><path class="cls-62" d="m119.5,307.1h9.7c.2,0,.5,0,.6-.3s.3-.4.3-.6v-12.3c0-.2,0-.5-.3-.6s-.4-.3-.6-.3h-9.7c-.5,0-.9.4-.9.9v12.3c0,.2,0,.5.3.6s.4.3.6.3Zm.9-12.3h7.9v10.6h-7.9v-10.6Z"/><path class="cls-62" d="m129.2,308h-6.2c-.5,0-.9.4-.9.9v4.4c0,.2,0,.5.3.6s.4.3.6.3h6.2c.2,0,.5,0,.6-.3s.3-.4.3-.6v-4.4c0-.2,0-.5-.3-.6s-.4-.3-.6-.3Zm-.9,4.4h-4.4v-2.6h4.4v2.6Z"/><path class="cls-62" d="m95.7,301h6.2v1.8h-6.2v-1.8Z"/><path class="cls-62" d="m95.7,304.5h3.5v1.8h-3.5v-1.8Z"/><path class="cls-19" d="m96.2,336.5h2.6c.2,0,.4.2.4.4v.9c0,.2-.2.4-.4.4h-2.6c-.2,0-.4-.2-.4-.4v-.9c0-.2.2-.4.4-.4Z"/><path class="cls-19" d="m102.7,336.5h2.6c.2,0,.4.2.4.4v.9c0,.2-.2.4-.4.4h-2.6c-.2,0-.4-.2-.4-.4v-.9c0-.2.2-.4.4-.4Z"/><path class="cls-19" d="m109.2,336.5h2.6c.2,0,.4.2.4.4v.9c0,.2-.2.4-.4.4h-2.6c-.2,0-.4-.2-.4-.4v-.9c0-.2.2-.4.4-.4Z"/><path class="cls-62" d="m110.3,310c-.3,0-.5,0-.8-.1-.6,0-1.2-.2-1.8-.4-.7-.1-1.5-.3-2.2-.4-.9-.2-1.7-.3-2.6-.5-.1,0-.3,0-.4-.1-.3,0-.4-.4-.3-.7,0,0,0,0,0,0,.2-.4.4-.8.5-1.2.3-.7.6-1.3.9-2,.2-.5.5-.9.8-1.3.4-.6,1.2-.8,1.9-.4.1,0,.2.2.3.3.2.2.4.5.6.8.4.7.9,1.3,1.3,2l2.1,3.3c0,.1.1.2.2.3.1.3,0,.5-.4.5h-.1Z"/><path class="cls-62" d="m111.8,294.3h.3c.3,0,.4.2.3.4s-.2.3-.3.5c-.8,1-1.5,2-2.3,3s-1.5,1.8-2.2,2.6c-.4.4-.9.7-1.4.9-.6.1-1.3,0-1.8-.4-.3-.3-.6-.6-.8-.9-.7-1.1-1.4-2.1-2.1-3.2-.3-.5-.6-1-.9-1.4h0c-.2-.4,0-.6.3-.6l4.3-.3c1.3,0,2.6-.2,3.8-.3.9,0,1.8,0,2.7-.2h0Z"/><line class="cls-10" x1="257.5" y1="138.2" x2="235.4" y2="162.4"/><line class="cls-6" x1="257.5" y1="138.2" x2="242.6" y2="154.5"/><polygon class="cls-66" points="238.6 147.8 235.4 162.4 249.6 157.9 238.6 147.8"/><line class="cls-10" x1="144.4" y1="138.2" x2="166.5" y2="162.4"/><line class="cls-6" x1="144.4" y1="138.2" x2="159.2" y2="154.5"/><polygon class="cls-66" points="152.2 157.9 166.5 162.4 163.3 147.8 152.2 157.9"/><line class="cls-10" x1="170.5" y1="246.7" x2="148.4" y2="270.9"/><line class="cls-6" x1="170.5" y1="246.7" x2="155.6" y2="263"/><polygon class="cls-66" points="151.6 256.3 148.4 270.9 162.6 266.4 151.6 256.3"/><line class="cls-10" x1="231.4" y1="246.7" x2="253.5" y2="270.9"/><line class="cls-6" x1="231.4" y1="246.7" x2="246.2" y2="263"/><polygon class="cls-66" points="239.2 266.4 253.5 270.9 250.3 256.3 239.2 266.4"/><line class="cls-10" x1="283.3" y1="203.8" x2="250.5" y2="204.3"/><line class="cls-6" x1="283.3" y1="203.8" x2="261.3" y2="204.2"/><polygon class="cls-66" points="263.4 196.6 250.5 204.3 263.6 211.6 263.4 196.6"/><line class="cls-10" x1="116.5" y1="203.8" x2="149.3" y2="204.3"/><line class="cls-6" x1="116.5" y1="203.8" x2="138.6" y2="204.2"/><polygon class="cls-66" points="136.2 211.6 149.3 204.3 136.5 196.6 136.2 211.6"/><circle class="cls-5" cx="286.8" cy="308.4" r="45"/><path d="m272.1,279.9c1.8,2.7.9,5.5-1.5,7.2-2.8,1.8-6.1,1.1-7.7-1.5-1.7-2.6-1-5.9,1.6-7.6,1.7-1.1,3.6-1.2,5.2-.5l-1.1,2.1c-.7-.3-1.8-.3-2.8.4-1.5,1-1.9,2.8-.9,4.3,1,1.5,2.7,1.9,4.5.8,1.2-.8,1.6-1.8,1.4-2.8l-2.4,1.5-1.1-1.8,4.4-2.9.5.8h-.1Z"/><path d="m276.6,278.2l.8,2.5c.2.6.7.5,1.7.1l.6,1.9c-2.7,1.2-3.8.6-4.4-1.4l-.8-2.5-1.1.4-.7-2.1,1.1-.4-.4-1.4,1.9-1.3.6,2,1.5-.5.7,2.1-1.5.5h0Z"/><path d="m287.2,274.4l.7,7.5-2.2.2v-.7c-.5.6-1.2,1-2.2,1.1-2,.2-3.7-1.4-3.9-3.6s1.3-4.1,3.2-4.3c1,0,1.8.2,2.3.7v-.7l2.2-.2h0Zm-1.9,3.9c0-1.1-.9-1.8-1.9-1.7-1,0-1.7.9-1.6,2,0,1.1.9,1.8,1.9,1.7,1,0,1.7-.9,1.6-2Z"/><path d="m297.5,279.8c-.4,2.2-2.4,3.6-4.3,3.2-1-.2-1.6-.7-2-1.3v.7c0,0-2.3-.4-2.3-.4l2-10.3,2.2.4-.7,3.6c.6-.5,1.4-.7,2.4-.5,1.9.4,3.2,2.4,2.8,4.6h-.1Zm-2.2-.4c.2-1.1-.4-1.9-1.4-2.1-1-.2-1.9.3-2.1,1.5s.4,1.9,1.4,2.1,1.9-.3,2.1-1.5Z"/><path d="m308.2,286.2c-1.3,1.9-3.4,2-5.1.9-1.3-.9-2.2-2.2-1.9-3.9h2.4c-.2.8,0,1.4.7,1.9.8.5,1.5.3,1.8-.2.4-.5.3-1.2-.6-1.8l-.4-.3v-1.6l2.9-1-3.2-2.1,1.2-1.9,5.7,3.7-1.1,1.6-2.8.9c.8,1.1,1.1,2.5.3,3.7h0Z"/><rect class="cls-7" x="262.8" y="304.4" width="51" height="35" rx="2.5" ry="2.5"/><path class="cls-21" d="m299.8,334.1c-1,0-1.9,0-2.9-.3-3-.5-5.8-1.2-8.5-2.4-3.2-1.4-6-3.2-8.4-5.6-4-3.8-6.5-8.6-7.1-13.7h0c.6,5.1,3.1,9.9,7.1,13.7,2.4,2.3,5.2,4.1,8.4,5.6,2.7,1.2,5.6,1.9,8.5,2.4.9,0,1.9.2,2.9.3,4.3,0,8.6,0,12.9,0h0v-27.1c0-1.3-.6-1.8-2.2-1.8h-44.4c-1.1,0-2,.8-2,1.8v12.3c0,.2,0,.3.4.3,1.2,0,2,.8,2.1,1.8.1,1.4-.8,2-1.9,2.3-.5,0-.6.2-.6.6v12.1c0,.9,1,1.6,1.9,1.6h44.7c1,0,1.9-.7,1.9-1.6v-2.1h-12.9v-.2Zm-26.9-22c0-.8,0-1.6,0-2.4,0,.8,0,1.6,0,2.4Z"/><path class="cls-25" d="m267.7,293.4h34.3v2.2h-34.3v-2.2Z"/><path class="cls-7" d="m267.7,295.6h34.3v2.1h-34.3v-2.1Z"/><path class="cls-7" d="m302,295.6v-2.2h4.3c.4,0,.8,0,1.1.5.2.5,0,1.1,0,1.7h-5.5Z"/><path class="cls-20" d="m302,295.6h5.4v1.6c-.2.4-.7.6-1.1.5h-4.3v-2.1Z"/><path class="cls-25" d="m307.4,297.2v-1.6c0-.6,0-1.1,0-1.7.7,0,1.5,0,2.2,0,.8.2,1.3.9,1.2,1.7,0,.8-.7,1.4-1.5,1.4h-1.8,0Z"/><path class="cls-60" d="m267.7,295.6v2.1c-1.4.3-2.4-.5-3.5-1.1-.3-.2-.6-.4-1-.6s-.4-.5,0-.7c.4-.3.8-.6,1.3-.8v.2c.9.6,1.9,1.2,3,1h.2Z"/><path class="cls-7" d="m267.7,295.6c-1.2.2-2.1-.3-3-1v-.2c.9-.8,1.9-1.3,3.1-1.1v2.2h-.1Z"/><path d="m291.3,321.4c-.2,0-.4,0-.7,0-.5,0-1-.2-1.5-.3-.6,0-1.2-.2-1.8-.4-.7,0-1.4-.3-2.1-.4h-.3c-.3,0-.3-.3-.2-.6s.3-.7.4-1c.2-.5.5-1.1.8-1.6.2-.4.4-.7.6-1,.4-.6,1.2-.7,1.8,0,.2.2.4.4.5.7.4.5.7,1.1,1,1.6.6.9,1.1,1.8,1.7,2.6,0,0,0,.2,0,.3,0,.2,0,.4-.3.4h0Z"/><path d="m292.5,308.7h.2c.2,0,.3.2.2.4,0,0-.2.3-.3.4-.6.8-1.3,1.6-1.9,2.4-.6.7-1.2,1.4-1.8,2.1-.3.3-.7.6-1.1.7-.5,0-1,0-1.5-.3-.3-.2-.4-.5-.6-.7-.6-.9-1.1-1.7-1.7-2.6-.2-.4-.5-.8-.7-1.2h0c0-.3,0-.5.3-.5,1.2,0,2.3-.2,3.5-.3,1,0,2.1-.2,3.1-.2s1.5,0,2.2,0h0Z"/><path d="m283.6,329.2c.9,0,1.7.3,2.3.8s.9,1.3.9,2.3-.3,1.8-1,2.4c-.7.6-1.5.9-2.5.9s-1.6-.2-2.2-.5c-.6-.4-1.1-.9-1.3-1.6l2.1-1.2c.2.7.7,1,1.4,1s.6,0,.8-.2.3-.4.3-.6,0-.5-.3-.7-.4-.2-.8-.2h-3.1l.4-5.6h5.6v2.3h-3.4v1h.8Z"/><path d="m297.4,329.9v1c0,1.4-.4,2.5-1.3,3.4-.9.9-2,1.3-3.4,1.3s-2.7-.5-3.7-1.4c-1-1-1.4-2.1-1.4-3.5s.5-2.6,1.4-3.5c1-1,2.1-1.4,3.5-1.4s1.7.2,2.4.6,1.3.9,1.7,1.6l-2.1,1.2c-.2-.3-.5-.5-.8-.7-.4-.2-.8-.3-1.2-.3-.8,0-1.4.2-1.9.7s-.7,1.1-.7,1.9.2,1.4.7,1.9,1.1.8,2,.8,1.8-.4,2.2-1.3h-2.3v-2.1h4.8v-.2Z"/><path class="cls-54" d="m279.5,305.3h32c1.3,0,1.8.5,1.8,1.8v27.1h-10.9c-.8,0-1.6,0-2.4-.3-2.5-.5-4.9-1.2-7.2-2.4-2.7-1.4-5.1-3.2-7.1-5.6-3.4-3.8-5.5-8.6-6-13.7,0-1.3,0-2.7,0-4v-2.8h0Z"/><circle class="cls-4" cx="200.9" cy="204.1" r="45"/><path d="m169.3,208.7l.6-1.1,1.6,1-.7,1.2c.4.5.8,1.1,1,1.8.7,2.3-.6,4.7-2.9,5.4,0,0-.1,0-.2,0-2.3.7-4.8-.7-5.5-3,0,0,0,0,0,0-.7-2.3.6-4.7,2.9-5.4,0,0,.1,0,.2,0,1-.3,2.1-.2,3,.2Zm.5,2.9l-.9,1.5-1.6-1,1-1.7c-.5-.1-.9-.1-1.4,0-1.3.3-2.2,1.7-1.8,3.1,0,0,0,0,0,0,.4,1.3,1.7,2.1,3.1,1.7,0,0,0,0,0,0,1.3-.3,2.2-1.7,1.8-3.1,0,0,0,0,0,0,0-.2,0-.4-.2-.6h0Z"/><path d="m164.4,201h6.1v1.7h-.6c.6.4.9,1.1.8,1.8,0,1.2-1,2.3-2.2,2.3,0,0-.2,0-.3,0h-3.8v-1.8h3.5c.5,0,1-.3,1.1-.9,0,0,0-.1,0-.2,0-.7-.4-1.1-1.3-1.1h-3.3v-1.8Z"/><path d="m165.9,192.5l6,1.3-.4,1.8h-.6c.4.5.5,1.2.3,1.8-.5,1.7-2.4,2.6-4.1,2.1-1.5-.5-2.4-1.9-2.2-3.5.1-.7.5-1.2,1.1-1.6h-.6c0-.1.4-1.9.4-1.9h.1Zm2.6,2.4c-.8-.2-1.6.2-1.8,1,0,0,0,0,0,0-.2.7.3,1.5,1,1.7,0,0,0,0,0,0,.8.2,1.6-.2,1.8-1,0,0,0,0,0,0,.2-.7-.3-1.5-1-1.7,0,0,0,0,0,0h0Z"/><path d="m171.3,186l3.4,1.6-.8,1.7-3.2-1.5c-.5-.3-1.2,0-1.5.5,0,0,0,0,0,0-.3.6-.1,1.2.7,1.6l3,1.4-.8,1.7-5.5-2.6.8-1.7.5.2c-.3-.6-.3-1.3,0-1.9.6-1.2,1.9-1.7,3.1-1.1,0,0,.1,0,.2.1h.1Z"/><path d="m173.1,182.5l1.8,1.3c.4.3.7,0,1.2-.7l1.4,1c-1.2,2.1-2.2,2.2-3.6,1.2l-1.8-1.3-.6.8-1.4-1,.6-.8-.9-.7.6-1.8,1.4,1,.7-1,1.4,1-.7,1h0Z"/><path d="m177.8,174.9l4.2,4.4-1.3,1.3-.4-.4c0,.7-.3,1.3-.8,1.8-.9.9-2.3.9-3.2,0,0,0-.2-.2-.2-.3l-2.6-2.7,1.3-1.3,2.4,2.5c.3.4.8.5,1.2.3.1,0,.2-.2.3-.3.5-.4.6-1,.2-1.5,0,0-.1-.1-.2-.2l-2.3-2.4,1.3-1.3h.1Z"/><path d="m189,171l1.8,3.3-1.6.9-1.7-3.2c-.3-.5-.7-.8-1.3-.5s-.6.8-.3,1.5l1.6,3.1-1.6.9-1.7-3.2c-.3-.5-.7-.8-1.3-.5s-.6.8-.3,1.5l1.6,3.1-1.6.9-2.9-5.4,1.6-.9.3.5c0-.5.4-1,1.1-1.4.6-.3,1.2-.3,1.8,0,0-.6.4-1.1,1.2-1.5,1.1-.6,2.4-.2,3,.8,0,.1.1.2.2.4v-.3Z"/><path d="m190.6,169.9l4.5-1.1.4,1.7-4.5,1.1-.4-1.7Z"/><path d="m196.8,170c0-1.8,1.3-3.3,3.1-3.4,1.1,0,2.2.5,2.8,1.5l-1.6,1c-.2-.4-.7-.7-1.2-.6-.7,0-1.3.5-1.3,1.2,0,0,0,.2,0,.3,0,.8.6,1.4,1.3,1.4,0,0,0,0,0,0,.5,0,1-.3,1.2-.7l1.6.9c-.5,1-1.6,1.7-2.7,1.7-1.8,0-3.3-1.3-3.4-3.1h0s0-.2,0-.2Z"/><path d="m203.3,169.8c.3-1.8,1.9-3,3.7-2.7,1.8.3,3,1.9,2.7,3.7-.3,1.8-1.9,3-3.7,2.7,0,0,0,0,0,0-1.7-.2-3-1.8-2.7-3.6,0,0,0,0,0-.1Zm4.6.8c.1-.8-.3-1.5-1.1-1.7-.7-.2-1.4.3-1.6,1,0,0,0,.1,0,.2-.1.8.3,1.5,1.1,1.7.7.2,1.4-.3,1.6-1,0,0,0-.1,0-.2Z"/><path d="m219.7,174.5l-1.6,3.4-1.7-.8,1.5-3.3c.3-.6.2-1-.4-1.3-.6-.3-1,0-1.4.6l-1.5,3.1-1.7-.8,1.5-3.3c.3-.6.2-1-.4-1.3-.6-.3-1,0-1.4.6l-1.5,3.1-1.7-.8,2.6-5.5,1.7.8-.2.5c.6-.3,1.2-.3,1.8,0,.6.2,1,.8,1.1,1.4.6-.3,1.4-.3,2,0,1.1.5,1.7,1.8,1.2,3,0,.1-.1.2-.2.3l.3.3Z"/><path d="m225.6,180.5c-1,1.3-2.9,1.6-4.2.6,0,0,0,0,0,0-.5-.4-.9-1.1-.9-1.8l-2,2.3-1.4-1.2,5.7-6.4,1.4,1.2-.4.4c1.5,0,2.9,1.1,3,2.6,0,.9-.3,1.8-1.1,2.4Zm-1.4-1.2c.6-.6.5-1.5,0-2.1,0,0,0,0,0,0-.6-.5-1.4-.5-2,0,0,0,0,.1-.1.2-.6.6-.5,1.5,0,2.1,0,0,0,0,0,0,.6.5,1.4.5,2,0,0,0,0-.1.1-.2Z"/><path d="m232.3,184.5l-5,3.5-1.1-1.5.5-.3c-.7,0-1.3-.4-1.6-1-.7-1-.5-2.4.5-3.2,0,0,.1,0,.2-.1l3.1-2.2,1.1,1.5-2.8,2c-.5.3-.7.9-.4,1.4,0,0,0,0,0,.1.4.5,1.1.6,1.6.3,0,0,0,0,.1,0l2.7-1.9,1.1,1.5h0Z"/><path d="m232.6,189.2l-2,.9c-.5.2-.3.7,0,1.4l-1.5.7c-1.3-2.1-.9-3,.7-3.7l2-.9-.4-.9,1.6-.8.4.9,1.1-.5,1.3,1.4-1.5.7.5,1.1-1.6.8-.5-1.1h-.1Z"/><path d="m237,197.3l-5.9,1.5-.5-1.8h.6c-.6-.4-1-1-1.2-1.7-.4-1.6.7-3.2,2.3-3.6,0,0,0,0,.1,0,1.6-.5,3.4.4,3.9,2,.2.7,0,1.4-.3,2h.6c0-.1.5,1.6.5,1.6h-.1Zm-3.4-1c.8-.1,1.3-.9,1.1-1.7,0,0,0,0,0-.1-.1-.7-.8-1.2-1.5-1.1,0,0-.2,0-.3,0-.8.1-1.3.9-1.1,1.7,0,0,0,0,0,.1.1.7.8,1.2,1.5,1.1,0,0,.2,0,.3,0h0Z"/><path d="m235.6,201.8h-2.2c-.5.2-.5.6-.4,1.4h-1.7c-.4-2.3.3-3,2-3.1h2.2v-1.1h1.8v.9h1.2l.7,1.7h-1.7v1.4h-1.8v-1.2h-.1Z"/><path d="m237.4,204.6v1.8l-6.2-.4v-1.8l6.2.4Zm1.7,0c.6,0,1.1.6,1,1.2s-.6,1.1-1.2,1h0c-.6,0-1.1-.6-1-1.2s.6-1.1,1.2-1Z"/><path d="m234.2,207.4c1.7.4,2.8,2.1,2.4,3.8,0,0,0,0,0,.1-.4,1.7-2.1,2.9-3.8,2.5,0,0,0,0,0,0-1.7-.4-2.8-2.1-2.4-3.8,0,0,0,0,0-.1.4-1.7,2.1-2.9,3.8-2.5,0,0,0,0,0,0Zm-1,4.5c.8.2,1.5-.3,1.7-1.1.2-.8-.3-1.5-1.1-1.7-.8-.2-1.5.3-1.7,1.1-.2.7.3,1.5,1,1.7,0,0,0,0,0,0Z"/><path d="m230.5,220.6l-3.4-1.6.8-1.7,3.2,1.5c.5.3,1.2,0,1.5-.5,0,0,0,0,0,0,.3-.6.1-1.2-.7-1.6l-3-1.4.8-1.7,5.5,2.6-.8,1.7-.5-.2c.3.6.3,1.3,0,1.9-.6,1.2-1.9,1.7-3.1,1.1,0,0-.1,0-.2-.1h-.1Z"/><path class="cls-59" d="m180.7,199.8v-8.8c-.1-1,.6-2,1.6-2.1.2,0,.3,0,.5,0h30.5c1-.1,2,.6,2.1,1.6,0,.2,0,.3,0,.5v28.7c0,1-.6,1.8-1.6,1.9-.1,0-.2,0-.3,0h-30.8c-1,0-1.8-.7-1.9-1.7,0,0,0-.2,0-.2v-19.9h-.1Zm19.2,18.2c.4,0,.6-.3.9-.6.9-.8,1.6-1.7,2.1-2.7.1-.3.4-.5.8-.5.9,0,1.9,0,2.8-.2,2.4-.6,3.7-2.2,3.5-4.5,0-1.2-.5-2.4-1.3-3.4-.4-.4-.4-1.1,0-1.5.8-1.2,1.3-2.6,1.3-4,.9-.5,1.2-1.6.7-2.5-.1-.2-.3-.4-.6-.6-.6-.5-1.4-.5-2,0-.2-.3-.6-.4-.9-.5-1.1-.4-2.3-.5-3.4-.4-.4,0-.9-.2-1-.6-.5-1.1-1.2-2-2.1-2.7-1.2-1.1-3-1.4-4.5-.6-1,.6-1.8,1.3-2.4,2.3-.3.5-.5,1.2-1,1.5s-1.2,0-1.8,0c-1.1,0-2.1.3-3,.9-.4-.2-.9-.3-1.4-.2-.7.2-1.2.7-1.4,1.4-.2.8.2,1.6.9,2,0,1.5.5,3,1.4,4.2.3.3.3.8,0,1.1-.7,1-1.1,2.1-1.3,3.2-.3,1.5.3,3.1,1.5,4,1.2.9,2.7,1.2,4.2,1.1.8,0,1.4.1,1.6,1,0,.2.2.4.4.6.6,1,1.4,1.7,2.4,2.2,0,.8.4,1.5,1.1,1.8.9.4,2,0,2.4-.9.1-.2.2-.5.2-.8h-.1Z"/><path class="cls-26" d="m180.7,199.8v19.9c0,1,.6,1.8,1.6,1.9.1,0,.2,0,.3,0h30.8c1,0,1.8-.7,1.9-1.7,0,0,0-.2,0-.2v-19.9h2.4c1.9.4,3.3,2.2,3.1,4.2v23.1h-45.6v-24c.1-1.8,1.5-3.2,3.3-3.4h2.2Z"/><path class="cls-41" d="m175.3,227.1h45.7c0,.8,0,1.6-.3,2.3-.5,1.2-1.5,2.1-2.8,2.3h-39c-1.9,0-3.5-1.6-3.5-3.5v-1h-.1Z"/><path class="cls-28" d="m220.9,227.1v-23.1c0-2.2-1-3.7-3.1-4.2h3.2c1.9,0,3.4,1.5,3.5,3.4v23.9h-3.6Z"/><path class="cls-41" d="m202.6,235.3h.1c-.9.6-1.2,1.7-1,2.7h-12.3c-.4,0-.5,0-.5-.5-.2-1.1.6-2.1,1.7-2.3.2,0,.4,0,.5,0h2.7c.4,0,.6,0,.6-.5v-1.3h4.1q1.3,0,1.3,1.3c0,.5.2.6.6.6h2.2Z"/><path class="cls-64" d="m202.6,235.3h-2.2c-.4,0-.6,0-.6-.6q0-1.3-1.3-1.3h-4.1v-1.8h8.2v3.7Z"/><path class="cls-30" d="m220.9,227.2h3.6c.1,1.1-.1,2.2-.7,3.1-.6.9-1.6,1.4-2.7,1.4h-3.2c1.3-.2,2.3-1.1,2.8-2.3.2-.7.3-1.5.3-2.2h-.1Z"/><path class="cls-14" d="m201.7,238.1c-.2-1,.1-2.1,1-2.7h2.6c1.4,0,2,1.2,1.8,2.5,0,.3-.3.2-.5.2h-4.9Z"/><path class="cls-40" d="m210,200.5c0,1.4-.5,2.8-1.3,4-.4.4-.4,1.1,0,1.5.7,1,1.2,2.2,1.3,3.4.2,2.3-1.1,3.9-3.5,4.5-.9.2-1.9.3-2.8.2-.4,0-.7.1-.8.5-.5,1.1-1.2,2-2.1,2.7-.3.2-.5.5-.9.6,0-.3-.2-.6-.3-.9,1.1-.7,1.9-1.6,2.4-2.8.1-.3,0-.3-.2-.3-1.1-.2-2.2-.5-3.3-.9-.3,0-.6,0-.9,0-1,.4-2.1.7-3.2.9-.5,0-.4.2-.3.6.6,1,1.3,1.9,2.2,2.7l-.2.8c-1-.5-1.8-1.2-2.4-2.2-.2-.2-.3-.4-.4-.6-.2-.8-.8-1-1.6-1-1.5.1-3-.3-4.2-1.1-1.2-.9-1.8-2.5-1.5-4,.2-1.2.6-2.3,1.3-3.2.3-.3.3-.8,0-1.1-.9-1.2-1.3-2.7-1.4-4.2.3.1.6.2.9.2,0,1.4.6,2.7,1.4,3.8.9-1.1,1.9-2.1,3-2.9.1-.1.2-.2.2-.4.2-1.1.4-2.2.8-3.3.2-.5,0-.6-.4-.6-1.2,0-2.3.2-3.4.6l-.6-.6c.9-.6,1.9-.9,3-.9.6,0,1.4.2,1.8,0s.6-1,1-1.5c.6-1,1.4-1.7,2.4-2.3,1.5-.8,3.3-.5,4.5.6.9.8,1.6,1.7,2.1,2.7.1.4.6.7,1,.6,1.1,0,2.3,0,3.4.4.3,0,.6.3.9.5-.2.2-.3.5-.6.6-1.1-.4-2.2-.6-3.3-.6-.5,0-.6.2-.4.6.3.9.6,1.8.7,2.8,0,.6.5,1,.9,1.4s.5.4.7.6c.5.5,1,1,1.4,1.5,0,.1.2.4.4,0,.7-1,1.2-2.2,1.3-3.5.3,0,.6,0,.9-.2v-.2Zm-17.9,4.9c0,.7.1,1.6.1,2.4,0,.5.3.9.7,1.2,1.5,1.1,3.1,2,4.8,2.7.2.1.5.1.7,0,1.7-.8,3.4-1.7,4.9-2.8.3-.2.5-.5.5-.8.2-1.9.2-3.9,0-5.8,0-.3-.2-.5-.4-.7-1.6-1.1-3.3-2.1-5.1-2.9h-.6c-1.8.8-3.4,1.7-5,2.8-.2.1-.4.4-.4.7-.1,1-.2,2.1-.2,3.1h0Zm6-12.5c-.3,0-.5,0-.8.1-1.5.6-2.7,1.7-3.3,3.2-.2.3,0,.3.3.3,1.1.2,2.2.5,3.3.9.3,0,.6,0,.9,0,1.1-.4,2.2-.7,3.3-.9.3,0,.4-.1.2-.4-.3-.6-.6-1.1-1-1.6-.7-.9-1.7-1.5-2.9-1.7h0Zm-6.5,20.3h.3q.7,0,.5-.7c-.3-.9-.5-1.8-.7-2.7,0-.3,0-.7-.3-.9-1-.7-1.9-1.6-2.6-2.6-.2-.3-.3-.2-.5,0-.5.7-.8,1.5-1,2.4-.4,1.2,0,2.5.8,3.3,1,.8,2.3,1.3,3.6,1.2h-.1Zm12.7,0c.8,0,1.7,0,2.5-.3,1.7-.5,2.7-2.2,2.3-3.9-.2-.9-.6-1.8-1.1-2.6-.2-.4-.3-.4-.6,0-.6.8-1.4,1.6-2.2,2.2-.4.3-.7.8-.7,1.3,0,.8-.3,1.6-.6,2.4q-.3,1,.4,1h0Zm-12.9-5.6c-.2-1.6-.2-3.2,0-4.8-.8.6-1.5,1.3-2.1,2.1-.2.1-.2.4,0,.5,0,0,0,0,0,0h0c.6.8,1.3,1.5,2.1,2.1h0Zm8-9.4c1.5.7,2.9,1.5,4.2,2.4-.2-1-.4-2-.8-2.9,0-.2-.1-.4-.3-.4,0,0,0,0,0,0-1,.2-2,.4-3,.8h0Zm-2.6,14.1c-1.5-.7-2.9-1.5-4.2-2.4.2,1,.4,2,.8,2.9,0,.1,0,.3.2.3,0,0,0,0,0,0,1-.2,2-.4,3-.8h.1,0Zm-4.2-11.6c1.3-.9,2.7-1.8,4.2-2.5-1-.3-2-.6-3-.8-.3,0-.3.1-.4.3-.4.9-.6,1.9-.8,2.9h0Zm12.2,2.2c.2,1.6.2,3.2,0,4.8.8-.6,1.5-1.3,2.1-2.1.2-.2.1-.5,0-.7-.6-.8-1.3-1.4-2.1-2Zm-5.4,9.4c1,.3,2,.6,3,.8.2,0,.3,0,.3-.2.4-1,.7-2,.8-3-1.3.9-2.7,1.7-4.2,2.4h0Z"/><path class="cls-31" d="m207.5,197.9c.3-.1.4-.4.6-.6.6-.4,1.4-.4,2,0,.8.6,1.1,1.7.5,2.5-.2.2-.4.4-.6.6-.3.1-.6.2-.9.2-1,0-1.8-.8-1.8-1.9,0-.2,0-.4.1-.6v-.3h0Z"/><path class="cls-31" d="m196.2,217.9l.2-.8c1.3-1.3,2.1-1.3,3.3,0,0,.3.2.6.3.9,0,1-.8,1.9-1.8,1.9-1,0-1.9-.8-1.9-1.8h0s-.1-.1-.1-.1Z"/><path class="cls-31" d="m187,200.7c-.3,0-.6,0-.9-.2-.9-.5-1.2-1.6-.7-2.5.3-.5.7-.8,1.2-.9.5,0,1,0,1.4.2l.6.6c.5,1.7,0,2.6-1.6,2.8Z"/><path class="cls-55" d="m192.1,205.4c0-1,0-2.1.2-3.1,0-.3.2-.5.4-.7,1.6-1.1,3.2-2.1,5-2.8.2,0,.4-.1.6,0,1.8.8,3.5,1.8,5.1,2.9.2.1.4.4.4.7.2,1.9.2,3.9,0,5.8,0,.3-.2.6-.5.8-1.5,1.1-3.2,2-4.9,2.8-.2.1-.5.1-.7,0-1.7-.8-3.3-1.7-4.8-2.7-.4-.2-.7-.7-.7-1.2,0-.8-.1-1.6-.1-2.4h0Zm8.7-.2c0-1.5-1.3-2.7-2.8-2.7-1.5,0-2.7,1.3-2.7,2.8,0,1.5,1.2,2.7,2.7,2.7,1.5,0,2.7-1.2,2.7-2.7,0,0,0,0,0,0h.1Z"/><path class="cls-52" d="m198.1,192.9c1.2,0,2.3.7,2.9,1.7.4.5.7,1,1,1.6.2.3.1.4-.2.4-1.1.2-2.2.5-3.3.9-.3,0-.6,0-.9,0-1.1-.4-2.2-.7-3.3-.9-.2,0-.4,0-.3-.3.8-1.4,1.6-2.7,3.3-3.2.3,0,.5-.1.8-.1h0Z"/><path class="cls-52" d="m191.6,213.2c-1.3.1-2.6-.3-3.6-1.2-.9-.8-1.2-2.1-.8-3.3.2-.8.6-1.6,1-2.4.2-.3.3-.3.5,0,.8.9,1.7,1.8,2.6,2.6.2.2.3.6.3.9.2.9.4,1.8.7,2.7q.2.7-.5.7h-.2Z"/><path class="cls-52" d="m204.2,213.2q-.7,0-.4-1c.2-.8.4-1.6.6-2.4,0-.5.3-1,.7-1.3.8-.6,1.6-1.4,2.2-2.2.2-.3.4-.3.6,0,.5.8.9,1.7,1.1,2.6.4,1.7-.6,3.4-2.3,3.9-.8.2-1.7.3-2.5.3h0Z"/><path class="cls-45" d="m199.7,217.1c-1.1-1.2-1.9-1.2-3.3,0-.9-.7-1.7-1.7-2.2-2.7-.2-.4-.2-.5.3-.6,1.1-.2,2.2-.5,3.2-.9.3,0,.6,0,.9,0,1.1.4,2.2.7,3.3.9.2,0,.4,0,.2.3-.5,1.2-1.3,2.1-2.4,2.8v.2Z"/><path class="cls-45" d="m187,200.7c1.5-.2,2.1-1.1,1.6-2.8,1.1-.4,2.2-.6,3.4-.6.4,0,.6.1.4.6-.4,1.1-.7,2.2-.8,3.3,0,.2,0,.3-.2.4-1.1.9-2.1,1.9-3,2.9-.8-1.1-1.3-2.4-1.4-3.8Z"/><path class="cls-45" d="m207.5,197.9v.3c-.4.9,0,2,1,2.4.2,0,.5.1.7.1,0,1.3-.5,2.5-1.3,3.5-.2.3-.3,0-.4,0-.4-.5-.9-1-1.4-1.5-.2-.2-.4-.4-.7-.6-.5-.3-.8-.8-.9-1.4,0-1-.3-1.9-.7-2.8-.2-.4-.1-.6.4-.6,1.1,0,2.2.2,3.3.6Z"/><path class="cls-33" d="m191.4,207.6c-.8-.6-1.5-1.3-2.1-2.1-.2-.1-.2-.4,0-.6h0c.6-.8,1.3-1.5,2.1-2.1-.2,1.6-.2,3.2,0,4.8Z"/><path class="cls-33" d="m199.4,198.2c1-.4,2-.6,3-.8.3,0,.3.2.4.4.4.9.6,1.9.8,2.9-1.3-.9-2.7-1.7-4.2-2.4h0Z"/><path class="cls-33" d="m196.8,212.3c-1,.3-2,.6-3,.8-.1,0-.3,0-.3-.2,0,0,0,0,0,0-.4-.9-.6-1.9-.8-2.9,1.3.9,2.7,1.7,4.2,2.4h0Z"/><path class="cls-33" d="m192.6,200.7c.2-1,.4-2,.8-2.9,0-.2.1-.4.4-.3,1,.2,2,.4,3,.8-1.5.7-2.9,1.5-4.2,2.5h0Z"/><path class="cls-33" d="m204.8,202.9c.8.6,1.5,1.3,2.1,2,.2.1.2.4.1.6,0,0,0,0-.1.1-.6.8-1.3,1.5-2.1,2.1.2-1.6.2-3.2,0-4.8Z"/><path class="cls-33" d="m199.4,212.3c1.4-.7,2.8-1.5,4.2-2.4-.2,1-.4,2-.8,3,0,.1-.1.3-.3.2-1-.2-2-.4-3-.8h0Z"/><path class="cls-71" d="m200.8,205.2c0,1.5-1.2,2.8-2.7,2.8-1.5,0-2.8-1.2-2.8-2.7,0-1.5,1.2-2.8,2.7-2.8h0c1.5,0,2.7,1.2,2.7,2.7,0,0,0,0,0,0h.1Z"/><circle class="cls-3" cx="66.7" cy="204.1" r="45"/><path class="cls-29" d="m52.8,211.1v-19.6c0-1.5.3-1.9,1.7-2.5h.2c0,.2.3,0,.5,0h19.3c1.1.1,1.9,1,1.8,2.1v44.7c0,1-.5,1.8-1.4,2.2h-19.7c-1.2.1-2.3-.8-2.4-2,0-.1,0-.3,0-.4v-24.5Zm16.2,20.6h3.4c.6,0,1.1-.4,1.1-1v-34.5c0-.6-.5-1-1.1-1h-12.1c-.6,0-1.2.5-1.2,1.1,0,0,0,0,0,0v34.1c0,.6.5,1.2,1.1,1.2,0,0,0,0,0,0h8.7Z"/><path class="cls-15" d="m74.8,238c.9-.4,1.4-1.2,1.4-2.2v-44.7c0-1.1-.8-2-1.8-2.1h3.9c1.1.4,1.8,1.5,1.6,2.7v44.3c.1,1.2-.7,2.2-1.9,2.3-.1,0-.3,0-.4,0h-2.8v-.3Z"/><path class="cls-15" d="m52.8,202.2v4.8h-5.1c-.8.1-1.6-.4-1.7-1.2,0-.2,0-.3,0-.5v-1.6c0-.8.6-1.5,1.3-1.5,0,0,.1,0,.2,0h5.3Z"/><path class="cls-15" d="m52.8,219.9v4.8h-5c-1.2,0-1.7-.5-1.7-1.7v-1.5c0-.8.5-1.5,1.3-1.6,0,0,.2,0,.3,0h5.1Z"/><path class="cls-72" d="m52.8,211.1v4.8h-5.1c-.8,0-1.5-.5-1.6-1.3,0,0,0-.1,0-.2v-1.7c0-.8.5-1.4,1.3-1.5.1,0,.2,0,.3,0h5.2-.1Z"/><path class="cls-42" d="m80,207v-4.8h5.1c.7,0,1.4.4,1.5,1.2,0,0,0,.2,0,.2v1.9c0,.8-.6,1.5-1.3,1.5,0,0-.1,0-.2,0h-5.1Z"/><path class="cls-42" d="m80,224.7v-4.8h5.1c.8,0,1.4.5,1.5,1.2,0,0,0,.2,0,.3v1.9c0,.7-.5,1.4-1.3,1.4,0,0-.2,0-.2,0h-5.1Z"/><path class="cls-42" d="m80,215.9v-4.8h5.1c.8,0,1.5.6,1.5,1.3,0,0,0,.1,0,.2v1.7c0,.8-.6,1.5-1.3,1.5,0,0-.1,0-.2,0h-5.1Z"/><path class="cls-72" d="m52.8,193.4v4.8h-4.9c-1.3,0-1.8-.5-1.8-1.8v-1.5c0-.7.5-1.4,1.3-1.4,0,0,.2,0,.2,0h5.3-.1Z"/><path class="cls-72" d="m52.8,228.8v4.8h-5c-1.2,0-1.7-.5-1.7-1.7v-1.4c-.1-.8.5-1.5,1.2-1.6.1,0,.2,0,.4,0h5.2,0Z"/><path class="cls-1" d="m80,198.1v-4.7h5.2c.8,0,1.5.6,1.5,1.4,0,0,0,0,0,0v1.9c0,.7-.5,1.4-1.3,1.4,0,0-.2,0-.2,0h-5.2Z"/><path class="cls-1" d="m80,233.5v-4.7h5.2c.8,0,1.5.6,1.5,1.4,0,0,0,0,0,0v1.9c0,.7-.5,1.4-1.3,1.4,0,0-.2,0-.2,0h-5.2Z"/><path class="cls-47" d="m69.1,231.7h-8.7c-.6,0-1.2-.5-1.2-1.1,0,0,0,0,0,0v-34.1c0-.6.5-1.2,1.1-1.2,0,0,0,0,0,0h8.7c.6.3,1,.9.9,1.6v33.3c0,.7-.3,1.3-.9,1.6Zm-1.9-22.7c-1,.2-2,.3-3,.5q-1,.2-1,1.2c0,.4.2.5.5.5h5.4c.4,0,.5-.1.5-.5s0-.5-.5-.5h-3.5c1.1-.3,2.3-.5,3.4-.7.3,0,.6,0,.6-.5,0-.3-.2-.6-.4-.6,0,0-.1,0-.2,0h-.5c-1-.2-2-.3-3-.5h3.6c.4,0,.5-.2.5-.5s0-.5-.5-.5h-4.9c-1.6,0-1.1,0-1,1.1,0,.3,0,.4.4.4.7,0,1.5.2,2.2.4.5,0,1,0,1.4.3h0Zm-.8,11.2h2.7c.5,0,.5-.3.5-.7s0-.7-.5-.6h-2.1c0,0-.3,0-.3-.1s.2-.1.3-.2l2.2-.6c.4,0,.5-.6.4-1s-.4-.3-.7-.2c-.7.2-1.3.4-2,.7-.3,0-.4,0-.6-.2-.4-.6-1.1-.6-1.8-.6s-1,.5-1.2,1.1,0,1.1,0,1.7c0,.4,0,.6.6.6h2.6,0Zm-3.2-6.1c0,.4,0,.6.5.7,1.7.3,3.4.7,5.1,1.1.8.2.9,0,.8-.7,0-.3,0-.5-.4-.5-.3,0-.5,0-.8-.1,0,0-.2,0-.2-.2,0-.5,0-.7.5-.8.2,0,.3,0,.5-.1.3,0,.5-.5.3-1,0-.4-.3-.3-.6-.2-1.8.4-3.5.8-5.3,1.1-.4,0-.6.2-.5.7h.1Z"/><path class="cls-50" d="m69.1,231.7c.6-.3,1-.9.9-1.6v-33.3c0-.7-.3-1.3-.9-1.6h3.4c.6,0,1.1.4,1.1,1v34.5c0,.6-.5,1-1.1,1h-3.4Z"/><path class="cls-39" d="m67.1,209c-.4-.3-.9-.2-1.4-.3-.7-.2-1.5-.3-2.2-.4-.2,0-.4-.1-.4-.3,0,0,0,0,0,0q0-1.1,1-1.1h4.9c.4,0,.5.1.5.5s0,.5-.5.5h-3.6c1,.2,2,.3,3,.5h.5c.3,0,.6.2.6.4,0,0,0,.1,0,.2,0,.5-.3.5-.6.5-1.1.2-2.3.4-3.4.7h3.5c.4,0,.5.1.5.5s0,.5-.5.5h-5.4c-.4,0-.5,0-.5-.5,0-1,0-1.1,1-1.2,1,0,1.9-.3,3-.5h0Z"/><path class="cls-69" d="m66.4,220.2h-2.6c-.3,0-.6-.2-.6-.4,0,0,0-.1,0-.2,0-.6,0-1.1,0-1.7.1-.6.6-1,1.2-1.1.7,0,1.4,0,1.8.6.2.3.3.3.6.2.7-.2,1.3-.4,2-.7.3,0,.5-.2.7.2.2.3,0,.7-.2.9,0,0-.1,0-.2,0l-2.2.6c0,0-.3,0-.3.2s.2.1.3.1h2.1c.5,0,.5.3.5.6s0,.7-.5.7h-2.7Zm-1.4-1.3h.4c.2,0,.4.1.5-.2s0-.5-.3-.6c-.4-.1-.7-.1-1.1,0-.3.1-.3.3-.3.6s.2.2.4.2h.4Z"/><path class="cls-39" d="m63.2,214.1c0-.4,0-.6.5-.7,1.8-.4,3.5-.8,5.3-1.1.2,0,.5-.1.6.2,0,.5,0,.9-.3,1-.2,0-.3,0-.5.1-.5,0-.6.3-.5.8,0,.1,0,.2.2.2.3,0,.5.1.8.1s.4.2.4.5c0,.8,0,.9-.8.7-1.7-.4-3.4-.7-5.1-1.1-.3,0-.5-.2-.5-.5,0,0,0-.1,0-.2h-.1Zm2.1,0h0c.6,0,1.3.2,1.9.3q.3,0,.3-.3c0-.3,0-.4-.2-.3l-1.9.3h0Z"/><path class="cls-22" d="m65,218.9h-.5c-.2,0-.4,0-.4-.2s0-.5.3-.6c.4-.1.7-.1,1.1,0,.3,0,.4.3.3.6s-.3.1-.5.2h-.3Z"/><path class="cls-57" d="m65.3,214.1c.6,0,1.3-.2,1.9-.3.3,0,.2.2.2.3s0,.3-.3.3l-1.9-.3h0Z"/><path d="m33.5,198.1l-.3,1.1,3.4.8-.6,2.3-10.2-2.5,1-4.1c.5-1.9,2.5-3.1,4.4-2.6,0,0,0,0,0,0,1.3.3,2.2,1.3,2.5,2.6l4.3-1.3-.6,2.5-3.8,1.1h-.1Zm-2.3.6l.4-1.7c.1-.7-.3-1.4-1-1.5-.7-.2-1.4.2-1.6.8l-.4,1.7,2.6.6h0Z"/><path d="m35.3,184.1l6.5,3.7-1.1,2-.6-.3c.3.8.2,1.7-.3,2.4-1.3,1.8-3.8,2.1-5.6.8-1.4-1.1-2-3-1.3-4.7.4-.7,1.1-1.3,1.9-1.5l-.6-.3,1.1-2h0Zm2.2,3.8c-.8-.5-1.9-.3-2.4.5,0,0,0,.1-.1.2-.5.8-.3,1.9.6,2.4,0,0,0,0,.1,0,.8.5,1.9.3,2.4-.5,0,0,0-.1.1-.2.5-.8.3-1.9-.6-2.4,0,0,0,0-.1,0Z"/><path d="m47.6,176l3,3.5-1.7,1.5-2.9-3.3c-.5-.6-1.1-.7-1.6-.2-.5.4-.6,1.2-.1,1.7,0,0,0,0,.1.1l2.8,3.2-1.7,1.5-2.9-3.3c-.5-.6-1.1-.7-1.6-.2-.5.4-.6,1.2-.1,1.7,0,0,0,0,.1.1l2.8,3.2-1.7,1.5-5-5.6,1.7-1.5.5.5c0-.8.3-1.5.9-2,.5-.6,1.3-.8,2.1-.6,0-.8.3-1.7,1-2.2,1.2-1.1,3-1,4,.2,0,0,.1.1.2.2h0Z"/><path d="m61.5,176.3l-1.2-.7c-.6.7-1.5,1.2-2.4,1.5-2.1.6-3.9-.2-4.4-2.1-.3-1.2,0-2.4.8-3.3-.4-.4-.7-.9-.8-1.5-.5-1.7.5-3.3,2.5-3.8,1.4-.5,3,0,3.9,1.3l-1.7,1.7c-.3-.6-1-.9-1.6-.8-.6.2-.9.6-.7,1.1s.6.8,1.2,1.2l2.4,1.6v-1.7l2.2.6c0,.8-.1,1.6-.4,2.4l1.7,1.1-1.5,1.5h0Zm-3-1.9l-2.4-1.5h0c-.3.3-.3.8-.2,1.2.2.7.8,1.1,1.8.8.4-.1.7-.3,1-.5h0Z"/><path d="m67,173.1l2.2-.9c.2,1,1,1.7,2,1.7,1.1.2,1.5-.2,1.5-.6,0-.6-.5-1-2-1.6-1.5-.6-2.9-1.6-2.6-3.6.3-1.8,2-3,3.8-2.7,0,0,0,0,0,0,1.6.2,3,1.3,3.5,2.9l-2.2.9c-.2-.8-.8-1.4-1.6-1.5-.7-.1-1.2.2-1.2.6s0,.8,1.7,1.6,3.2,1.5,2.9,3.7c-.3,2-2.1,3-4.3,2.6-1.8,0-3.4-1.4-3.8-3.2h0Z"/><path d="m79.6,172.8l-.9,2.5c-.2.6.3.9,1.2,1.1l-.7,1.9c-2.9-.7-3.4-1.9-2.6-3.8l.9-2.5-1.1-.4.8-2,1.1.4.5-1.3h2.3c0,.1-.7,2.1-.7,2.1l1.4.5-.8,2-1.4-.5Z"/><path d="m81.4,175.2c1.2-1.9,3.7-2.4,5.5-1.2,1.9,1.2,2.4,3.7,1.2,5.5-1.2,1.9-3.7,2.4-5.5,1.2,0,0,0,0,0,0-1.8-1.1-2.4-3.6-1.3-5.4,0,0,0,0,0-.1Zm4.8,3.1c.5-.7.4-1.8-.4-2.3,0,0,0,0-.1,0-.8-.5-1.9-.3-2.4.5,0,0,0,0,0,0-.5.7-.4,1.8.4,2.3,0,0,0,0,.1,0,.8.5,1.9.3,2.4-.5,0,0,0,0,0,0h0Z"/><path d="m95.1,181l-1.8,1.8c-.5-.9-1.5-1.2-2.4-.7-.1,0-.3.2-.4.3l-2.4,2.4-1.6-1.6,5.3-5.3,1.6,1.6-.9.9c.9-.4,2-.2,2.6.6Z"/><path d="m100.4,189.1l-6.3,4-1.2-1.9.6-.4c-.8-.2-1.5-.7-2-1.4-1-1.8-.4-4,1.3-5.1,0,0,0,0,0,0,1.7-1.2,4.1-.8,5.3.9.5.7.6,1.6.4,2.4l.6-.4,1.2,1.9Zm-4.4.1c.8-.5,1.2-1.5.7-2.3,0,0,0-.1,0-.2-.5-.8-1.5-1.1-2.3-.6,0,0-.1,0-.2.1-.8.5-1.2,1.5-.7,2.3,0,0,0,.1,0,.2.4.8,1.5,1.1,2.3.7,0,0,.2,0,.2-.2Z"/><path d="m103.8,199.3l-6.8,2c-2.4.7-4-.9-4.5-2.8-.5-1.3-.2-2.8.8-3.9l1.6,1.5c-.5.5-.7,1.2-.4,1.9.1.8.9,1.4,1.7,1.3,0,0,.2,0,.3,0l.7-.2c-.8-.3-1.3-1-1.5-1.8-.5-2,.6-4,2.6-4.6,1.9-.6,4,.4,4.7,2.3,0,0,0,.1,0,.2.3.8.2,1.7-.3,2.4l.7-.2.6,2.1h-.2Zm-4.1-1.1c.9-.2,1.5-1.1,1.2-2,0,0,0-.1,0-.2-.3-1-1.2-1.5-2.2-1.3-.9.2-1.5,1.1-1.2,2,0,0,0,.1,0,.2.3,1,1.2,1.5,2.2,1.3h0Z"/><path d="m98.5,206.1c0,.5.2,1.1.6,1.4l-1,1.8c-1.1-.8-1.7-2-1.6-3.3-.4-2.2,1-4.3,3.2-4.7,2.2-.4,4.3,1,4.7,3.2,0,.4,0,.8,0,1.2,0,2.1-1.6,3.8-3.7,3.8,0,0-.1,0-.2,0h-.9v-5.3c-.7.3-1.2,1-1.1,1.8Zm2.7,1.4c.7-.1,1.3-.8,1.2-1.6,0-.8-.4-1.5-1.2-1.6v3.2Z"/><circle class="cls-3" cx="333.3" cy="204.1" r="45"/><path class="cls-37" d="m308.5,195.4v-7.4c0-.3,0-.4.4-.4h11.1v2.2q0,.8.8.8h24.9c.5,0,.6-.2.6-.6v-2.4h11.3c.1.2.2.4.2.6v6.8c0,.3-.2.6-.4.6,0,0-.1,0-.2,0h-1.4c-1.1.3-1.7,1.4-1.4,2.4.2.7.8,1.3,1.5,1.5h1.4q.6,0,.6.7v24.3c0,.6,0,.7-.7.7h-1.4c-1.1,0-1.9.9-1.9,2,0,1,.9,1.9,1.9,1.9h1.4c.6,0,.7,0,.7.7v6.6c0,.2,0,.5-.2.6h-11.3v-2.4c0-.3-.2-.6-.4-.6,0,0-.1,0-.2,0h-25.2c-.5,0-.6.2-.6.6v2.4h-11.1c-.3,0-.4,0-.4-.4v-7.6h2c1,0,1.9-.9,1.9-1.9,0-1.1-.8-2-1.8-2,0,0,0,0,0,0h-1.4c-.2,0-.5,0-.6-.2v-25.3c.2-.1.4-.2.6-.2h1.4c1.1,0,2-1,1.9-2.1,0,0,0,0,0,0,0-1-.8-1.8-1.8-1.9h-1.4c-.2,0-.5,0-.6-.2v.2Zm40.6,19.3h1.8c.6,0,.8-.3.8-.7,0-.4-.3-.7-.7-.7,0,0,0,0,0,0h-1.8v-1.7h1.8c.6,0,.9-.3.9-.7s-.3-.7-.9-.7h-1.8v-1.7h1.8c.4,0,.8-.2.8-.6s-.2-.8-.6-.8c0,0-.2,0-.2,0h-1.8v-1.7h1.8c.6,0,.8-.3.8-.7,0-.4-.3-.7-.7-.7,0,0,0,0,0,0h-1.8v-1.7h1.8c.6,0,.8-.3.8-.7,0-.4-.3-.7-.7-.7,0,0,0,0,0,0h-1.8v-1.7h1.8c.6,0,.9-.3.9-.7s-.3-.7-.9-.7h-1.8c0-1.3,0-1.2-1.2-1.2v-1.8c0-.6-.3-.8-.7-.8-.4,0-.7.3-.7.7,0,0,0,0,0,0v1.8h-1.7v-1.8c0-.6-.3-.9-.7-.9s-.7.3-.7.9v1.8h-1.7v-1.8c0-.6-.3-.9-.7-.9s-.7.3-.7.9v1.8h-1.7v-1.8c0-.6-.3-.9-.7-.9s-.7.3-.7.9v1.8h-1.7v-1.8c0-.6-.3-.9-.7-.9-.4,0-.7.3-.7.7,0,0,0,0,0,0v1.8h-1.7v-1.8c0-.6-.3-.9-.7-.9s-.7.3-.7.9v1.8h-1.7v-1.8c0-.6-.3-.9-.7-.9s-.7.3-.7.9v1.8h-1.7v-1.8c0-.6-.3-.9-.7-.9s-.7.3-.7.9v1.8h-1.7v-1.8c0-.6-.3-.9-.7-.9s-.7.3-.7.9v1.8h-1.7v-1.8c0-.6-.3-.9-.7-.9s-.7.3-.7.9v1.8c-1.2,0-1.1,0-1.1,1.2h-1.8c-.6,0-.9.3-.8.7,0,.4.4.7.8.7h1.8v1.7h-1.8c-.6,0-.9.3-.9.7s.3.7.9.7h1.8v1.7h-1.8c-.6,0-.9.3-.9.7s.3.7.9.7h1.8v1.7h-1.9c-.4,0-.8.3-.9.7,0,.4.3.7.9.7h1.9v1.7h-1.8c-.6,0-.8.3-.8.7,0,.4.3.7.7.7,0,0,0,0,0,0h1.8v1.7h-1.8c-.6,0-.9.3-.9.7s.3.7.9.7h1.8v1.7h-1.8c-.6,0-.9.3-.9.7s.3.7.9.7h1.8v1.7h-1.8c-.6,0-.8.3-.8.7,0,.4.3.7.7.7,0,0,0,0,0,0h1.8v1.7h-1.8c-.6,0-.8.3-.8.7,0,.4.3.7.7.7,0,0,0,0,0,0h1.8v1.7h-1.8c-.6,0-.9.3-.9.7s.3.7.9.7h1.8c0,1.2,0,1.1,1.2,1.2v1.8c0,.6.3.8.7.8.4,0,.7-.3.7-.7,0,0,0,0,0,0v-1.8h1.7v1.8c0,.6.3.9.7.9s.7-.3.7-.9v-1.8h1.7v1.8c0,.6.3.9.7.9s.7-.3.7-.9v-1.8h1.7v1.8c0,.6.3.8.7.8.4,0,.7-.3.7-.7,0,0,0,0,0,0v-1.8h1.7v1.8c0,.6.3.8.7.8.4,0,.7-.3.7-.7,0,0,0,0,0,0v-1.8h1.7v1.8c0,.6.3.9.7.9s.7-.3.7-.9v-1.8h1.7v1.8c0,.6.3.8.7.8.4,0,.7-.3.7-.7,0,0,0,0,0,0v-1.8h1.7v1.8c0,.6.3.8.7.8.4,0,.7-.3.7-.7,0,0,0,0,0,0v-1.8h1.7v1.8c0,.6.3.8.7.8.4,0,.7-.3.7-.7,0,0,0,0,0,0v-1.8h1.7v1.8c0,.6.3.9.7.9s.7-.3.7-.9v-1.8c1.3,0,1.1,0,1.2-1.2h1.8c.6,0,.8-.3.8-.7,0-.4-.3-.7-.7-.7,0,0,0,0,0,0h-1.8v-1.7h1.8c.6,0,.9-.3.9-.7s-.3-.7-.9-.7h-1.8v-1.7h1.8c.6,0,.9-.3.9-.7s-.3-.7-.9-.7h-1.8v-1.7h1.8c.6,0,.8-.3.8-.7,0-.4-.3-.7-.7-.7,0,0,0,0,0,0h-1.8v-1.7h-.1Zm-36.6-21.7c.8,0,1.5-.7,1.5-1.5h0c0-.8-.7-1.4-1.5-1.4s-1.4.7-1.4,1.5h0c0,.8.6,1.4,1.4,1.4Zm42.7-1.5c0-.8-.7-1.5-1.5-1.5s-1.5.7-1.5,1.5.7,1.5,1.5,1.5c.8,0,1.5-.6,1.5-1.4,0,0,0,0,0,0h0Zm-44.1,41.9c0,.8.7,1.5,1.5,1.5s1.5-.7,1.5-1.5h0c0-.8-.7-1.5-1.5-1.5h0c-.8,0-1.5.7-1.5,1.5Zm44.1,0c0-.8-.7-1.5-1.5-1.5h0c-.8,0-1.5.7-1.5,1.5s.7,1.5,1.5,1.5,1.5-.7,1.5-1.5Z"/><path class="cls-27" d="m343.3,190.6h-22.5q-.8,0-.8-.8v-2.2h23.4v3h-.1Z"/><path class="cls-27" d="m319.9,237.1v-2.4c0-.3.2-.6.4-.6,0,0,.1,0,.2,0h22.7v3h-23.3Z"/><path class="cls-35" d="m343.3,190.6v-3h3v2.4c0,.3-.2.6-.4.6,0,0-.1,0-.2,0h-2.4Z"/><path class="cls-35" d="m343.4,237.1v-3h2.4c.3,0,.6.2.6.4,0,0,0,.1,0,.2v2.4h-3Z"/><path class="cls-23" d="m321.5,228.3h-3.1c-1.2,0-1.1,0-1.2-1.2v-29.5c0-1.2,0-1.1,1.2-1.2h27.6v3.2c-.1-.1-.3-.2-.5-.2h-24.5q-.8,0-.8.8v24.2q0,.8.8.8h24.5c.2,0,.4,0,.5-.2v3.2h-24.5Z"/><path class="cls-36" d="m346,199.6v-3.2h1.9c1.3,0,1.1,0,1.2,1.2v29.5c0,1.3,0,1.1-1.2,1.2h-1.8v-28.7h-.1,0Z"/><path class="cls-34" d="m312.5,193c-.8,0-1.4-.8-1.4-1.6,0-.8.6-1.4,1.4-1.4.8,0,1.5.7,1.5,1.5s-.7,1.5-1.5,1.5Z"/><path class="cls-34" d="m355.2,191.5c0,.8-.6,1.5-1.4,1.5,0,0,0,0,0,0h0c-.8,0-1.5-.7-1.5-1.5s.7-1.5,1.5-1.5,1.5.7,1.5,1.5Z"/><path class="cls-51" d="m311,233.4c0-.8.6-1.5,1.4-1.5,0,0,0,0,0,0h0c.8,0,1.5.7,1.5,1.5h0c0,.8-.7,1.5-1.5,1.5s-1.5-.7-1.5-1.5h.1Z"/><path class="cls-51" d="m355.2,233.3c0,.8-.6,1.5-1.4,1.5,0,0,0,0,0,0h0c-.8,0-1.5-.7-1.5-1.5s.7-1.5,1.5-1.5c.8,0,1.5.6,1.5,1.4,0,0,0,0,0,0Z"/><path class="cls-63" d="m323,196.4h-1.4v-1.8c0-.6.3-.9.7-.9s.7.3.7.9v1.8Z"/><path class="cls-68" d="m349,211.5v-1.5h1.8c.6,0,.9.3.9.7s-.3.7-.9.7h-1.8Z"/><path class="cls-68" d="m332.3,196.4h-1.4v-1.8c0-.6.3-.9.7-.9s.7.3.7.9v1.8Z"/><path class="cls-68" d="m335.4,196.4h-1.4v-1.8c0-.6.3-.9.7-.9s.7.3.7.9v1.8Z"/><path class="cls-68" d="m317.3,210.1v1.5h-1.8c-.6,0-.9-.3-.8-.7,0-.4.4-.7.8-.7h1.8Z"/><path class="cls-63" d="m349,224v-1.5h1.8c.6,0,.9.3.9.7s-.3.7-.9.7h-1.8Z"/><path class="cls-68" d="m349,214.6v-1.5h1.8c.6,0,.8.3.8.7,0,.4-.3.7-.7.7,0,0,0,0,0,0h-1.8Z"/><path class="cls-63" d="m317.3,222.5v1.5h-1.8c-.6,0-.8-.3-.8-.7,0-.4.3-.7.7-.7,0,0,0,0,0,0h1.8Z"/><path class="cls-63" d="m317.3,200.7v1.5h-1.8c-.6,0-.9-.3-.9-.7s.3-.7.9-.7h1.8Z"/><path class="cls-63" d="m349,202.2v-1.5h1.8c.6,0,.8.3.8.7,0,.4-.3.7-.7.7,0,0,0,0,0,0h-1.8Z"/><path class="cls-68" d="m317.3,213.2v1.4h-1.8c-.6,0-.9-.3-.9-.7s.3-.7.9-.7h1.8Z"/><path class="cls-63" d="m321.5,228.3h1.4v1.8c0,.6-.3.9-.7.9s-.7-.3-.7-.9v-1.8Z"/><path class="cls-68" d="m330.9,228.3h1.4v1.8c0,.6-.3.8-.7.8-.4,0-.7-.3-.7-.7,0,0,0,0,0,0v-1.8Z"/><path class="cls-68" d="m334,228.3h1.4v1.8c0,.6-.3.9-.7.9s-.7-.3-.7-.9v-1.8Z"/><path class="cls-63" d="m343.3,228.3h1.4v1.8c0,.6-.3.8-.7.8-.4,0-.7-.3-.7-.7,0,0,0,0,0,0v-1.8Z"/><path class="cls-63" d="m344.7,196.4h-1.4v-1.8c0-.6.3-.9.7-.9s.7.3.7.9v1.8Z"/><path class="cls-67" d="m317.3,207v1.4h-1.9c-.4,0-.8-.3-.9-.7,0-.4.3-.7.9-.7h1.9Z"/><path class="cls-67" d="m349,208.4v-1.4h1.8c.6,0,.8.3.8.7,0,.4-.3.7-.7.7,0,0,0,0,0,0h-1.8Z"/><path class="cls-67" d="m337,228.3h1.4v1.8c0,.6-.3.8-.7.8-.4,0-.7-.3-.7-.7,0,0,0,0,0,0v-1.8Z"/><path class="cls-67" d="m317.3,216.3v1.5h-1.8c-.6,0-.9-.3-.9-.7s.3-.7.9-.7h1.8Z"/><path class="cls-67" d="m349,217.8v-1.5h1.8c.6,0,.8.3.8.7,0,.4-.3.7-.7.7,0,0,0,0,0,0h-1.8Z"/><path class="cls-67" d="m329.2,196.4h-1.4v-1.8c0-.6.3-.9.7-.9s.7.3.7.9v1.8Z"/><path class="cls-67" d="m338.5,196.4h-1.4v-1.8c0-.6.3-.9.7-.9s.7.3.7.9v1.8Z"/><path class="cls-67" d="m327.7,228.3h1.4v1.8c0,.6-.3.8-.7.8-.4,0-.7-.3-.7-.7,0,0,0,0,0,0v-1.8Z"/><path class="cls-61" d="m317.3,225.7v1.4h-1.8c-.6,0-.9-.3-.9-.7s.3-.7.9-.7h1.8Z"/><path class="cls-61" d="m349,227.1v-1.5h1.8c.6,0,.8.3.8.7,0,.4-.3.7-.7.7,0,0,0,0,0,0h-1.8Z"/><path class="cls-61" d="m349,199.1v-1.5h1.8c.6,0,.9.3.9.7s-.3.7-.9.7h-1.8Z"/><path class="cls-67" d="m324.7,228.3h1.4v1.8c0,.6-.3.9-.7.9s-.7-.3-.7-.9v-1.8Z"/><path class="cls-67" d="m349,205.3v-1.4h1.8c.4,0,.8.2.8.6s-.2.8-.6.8c0,0-.2,0-.2,0h-1.8Z"/><path class="cls-67" d="m317.3,203.8v1.4h-1.8c-.6,0-.9-.3-.9-.7s.3-.7.9-.7h1.8Z"/><path class="cls-67" d="m317.3,219.4v1.5h-1.8c-.6,0-.8-.3-.8-.7,0-.4.3-.7.7-.7,0,0,0,0,0,0h1.8Z"/><path class="cls-67" d="m349,220.9v-1.5h1.8c.6,0,.9.3.9.7s-.3.7-.9.7h-1.8Z"/><path class="cls-61" d="m318.4,228.3h1.4v1.8c0,.6-.3.8-.7.8-.4,0-.7-.3-.7-.7,0,0,0,0,0,0v-1.8Z"/><path class="cls-61" d="m317.3,197.6v1.5h-1.9c-.4,0-.8-.2-.8-.6s.2-.8.6-.8c0,0,.2,0,.2,0h1.9Z"/><path class="cls-61" d="m347.9,196.4h-1.5v-1.8c0-.6.3-.8.7-.8.4,0,.7.3.7.7,0,0,0,0,0,0v1.8h0Z"/><path class="cls-61" d="m346.4,228.3h1.5v1.8c0,.6-.3.9-.7.9s-.7-.3-.7-.9v-1.8h0Z"/><path class="cls-67" d="m341.6,196.4h-1.4v-1.8c0-.6.3-.9.7-.9s.7.3.7.9v1.8Z"/><path class="cls-67" d="m326,196.4h-1.4v-1.8c0-.6.3-.9.7-.9s.7.3.7.9v1.8Z"/><path class="cls-61" d="m319.8,196.4h-1.4v-1.8c0-.6.3-.9.7-.9s.7.3.7.9v1.8Z"/><path class="cls-67" d="m340.2,228.3h1.4v1.8c0,.6-.3.8-.7.8-.4,0-.7-.3-.7-.7,0,0,0,0,0,0v-1.8Z"/><path class="cls-65" d="m343,225.3h-22q-.8,0-.8-.8v-24.2q0-.8.8-.8h22v25.8Zm-1-20.7h0v-2.3c0-.4-.3-.7-.7-.7,0,0,0,0,0,0h0c-.4,0-.7.3-.8.7h0v3.1c0,.8.1.6-.7.7-.4,0-.5,0-.5-.5v-3.3c0-.4-.2-.7-.6-.8,0,0,0,0,0,0-.4,0-.7.3-.8.7v4.4c0,.6.3.8.9.8h2.3c.4,0,.8-.2.9-.7,0,0,0-.1,0-.2v-2.1.2Zm-8.5,0v2.2c0,.4.3.8.7.9.4.1.7-.3.7-.8v-1.1q0-.3.3-.3h1.4c.4,0,.8-.3.9-.7v-2.2c0-.7-.3-.9-.9-.9h-2.1c-.7,0-1,.2-1,1v2h0Zm-4.4,0v2.2c0,.4.2.8.6.8h2.5c.4,0,.8-.3.9-.7,0-.5-.4-.8-.8-.8,0,0,0,0,0,0h-1.4c-.2,0-.3,0-.3-.3v-2.5c0-.2,0-.3.3-.3h1.4c.4,0,.8-.3.8-.7,0,0,0,0,0-.1,0-.5-.3-.7-.8-.7h-2.4c-.4,0-.8.2-.8.6v2.3h0v.2Zm-5.6,19.4h1.3c.2,0,.4,0,.5-.2s0-.4-.2-.5l-2.7-2.5c-.1-.2-.3-.2-.5-.1s-.2.2-.2.4v2.5c0,.2.2.4.4.5h1.4Z"/><path class="cls-11" d="m343,225.3v-25.8h2.5c.2,0,.4,0,.5.2v25.4c-.1.1-.3.2-.5.2h-2.5Z"/><path class="cls-58" d="m342,204.5v2.1c0,.7-.3.9-.9.9h-2.3c-.6,0-.9-.3-.9-.8v-4.3c0-.4.2-.8.6-.8h.1c.4,0,.7.3.7.7,0,0,0,0,0,0v3.3c0,.4.1.5.5.5.8,0,.7,0,.7-.7v-3.1c0-.4.3-.7.7-.7,0,0,0,0,0,0h0c.4,0,.7.3.7.7,0,0,0,0,0,0h0v2.3h0v-.2Z"/><path class="cls-58" d="m333.6,204.5v-2c0-.7.3-.9,1-1h2.2c.4,0,.8.2.9.7,0,0,0,.1,0,.2v2c0,.4-.3.8-.7.9h-1.6q-.3,0-.3.3v1.1c0,.4-.2.7-.6.8,0,0,0,0,0,0-.4,0-.7-.3-.7-.9v-2.2h0Zm2-.6c.3,0,.6.1.6-.4s-.2-.5-.6-.4-.6-.1-.6.4.2.5.6.4Z"/><path class="cls-58" d="m329.2,204.5v-2.1c0-.4.2-.8.6-.8h2.6c.4,0,.7.2.8.6,0,0,0,0,0,0,0,.4-.3.7-.8.8-.5,0-.9,0-1.4,0-.4,0-.3,0-.3.3v2.5c0,.2,0,.3.3.3h1.4c.5,0,.9.3.9.7,0,0,0,0,0,0,0,.5-.3.7-.9.7h-2.3c-.4,0-.8-.2-.8-.6v-2.6Z"/><path class="cls-73" d="m323.6,223.9h-1.4c-.2,0-.4-.2-.5-.4h0v-2.5c0-.2,0-.4.2-.4.2,0,.4,0,.5.1l2.7,2.5c.2.1.2.3.2.5s-.3.2-.5.2h-1.2Z"/><path class="cls-63" d="m335.6,203.8c-.3,0-.6,0-.6-.4s.3-.4.6-.4.6,0,.6.4-.3.4-.6.4Z"/><path d="m315.4,175.3c-1.2-3.8.9-7.8,4.7-9,0,0,.2,0,.2,0,2.3-.7,4.9-.2,6.7,1.4l-2.2,2.3c-1-.9-2.4-1.2-3.6-.7-2.1.5-3.4,2.6-2.9,4.7,0,.2,0,.3.2.5.4,2.1,2.5,3.4,4.6,3,.2,0,.4,0,.5-.2,1.3-.3,2.3-1.3,2.6-2.6l3.1.7c-.7,2.3-2.5,4.1-4.8,4.8-3.7,1.2-7.8-.8-9-4.6,0-.1,0-.2,0-.3h0Z"/><path d="m341.5,170.4c-.2,2.6-2.6,4.6-5.2,4.3,0,0,0,0-.1,0l-2.1-.2-.4,4.4-3.2-.3,1.3-13.9,5.3.5c2.6.2,4.6,2.5,4.4,5.2,0,0,0,0,0,0Zm-3.2-.3c.1-1-.5-1.8-1.5-2l-2.1-.2-.3,3.6,2.1.2c1,0,1.8-.6,1.9-1.6h-.1Z"/><path d="m343,175.6l4.2-8.5,2.9,1.4-4.1,8.2c-.5.9-.4,2,1.1,2.7s2.4.2,2.8-.8l4.1-8.2,2.9,1.4-4.2,8.5c-1.3,2.7-4.2,3.3-7,1.9-2.8-1.4-4-4-2.7-6.7h0Z"/><circle class="cls-3" cx="120" cy="91.6" r="45"/><path class="cls-38" d="m153.5,81.9v31.2c-.4.9-1.3,1.6-2.3,1.7h-4.6c-.8-.1-1.5-.1-2.3,0h-3.5c-.6-.1-1.3-.1-1.9,0h-9.4c-.8-.1-1.5-.1-2.3,0h-13.8c-.8-.1-1.5-.1-2.3,0h-3.5c-.6-.1-1.3-.1-1.9,0h-9.5v-34.7h54.6c1.3-.2,2.5.6,3,1.8h-.3Zm-45,15.6h0v3.5c0,2.5,2.1,4.6,4.6,4.6,2.5,0,4.6-2.1,4.6-4.6h0v-2.3c0-.9-.4-1.3-1.3-1.3h-1.9c-.7,0-1.3.4-1.4,1.1,0,0,0,0,0,0,0,.7.5,1.1,1.4,1.1s.9,0,.9.9c.2,1.3-.7,2.4-2,2.6-1.3.2-2.4-.7-2.6-2,0,0,0-.1,0-.2v-6.9c0-.5,0-.9.3-1.3.6-1.1,2-1.5,3.1-.9.7.4,1.2,1.2,1.2,2,.1.8.6,1.3,1.2,1.2.7,0,1.1-.7,1-1.3,0,0,0,0,0,0-.1-2.5-2.3-4.5-4.8-4.4-2.3.1-4.2,2-4.4,4.3v3.8h.1Zm23.1-1.6v5c0,1.6.7,3.1,2.1,3.9,2.1,1.4,5,.9,6.4-1.2.5-.7.8-1.6.8-2.5v-10.8c-.1-.5-.6-.9-1.1-.8-.5,0-1,.3-1.1.8v10.5c0,1.3-.9,2.3-2.2,2.4-1.3,0-2.3-.9-2.4-2.2v-10.5c0-.5-.3-1-.8-1.2-.5-.2-1,0-1.3.4-.2.3-.3.6-.3,1v5.2Zm-11.5,1.6v6.9c0,.6.4,1.1.9,1.2.5,0,1-.2,1.2-.6.1-.2.2-.5.1-.8v-4.8c0-.5.1-.6.6-.6h1.8c2.5,0,4.4-2,4.5-4.5,0-2.4-1.7-4.4-4.1-4.7-1.2-.1-2.4,0-3.6,0s-1.5.4-1.5,1.5v6.5h.1Zm-20.8-11v1.6c0,.6.5,1.2,1.1,1.3.6,0,1.2-.4,1.3-1,0,0,0,0,0,0v-1.9c0-.4.1-.5.5-.5h1.7c.6,0,1.2-.4,1.3-1,0-.6-.4-1.2-1-1.3h-3.5c-.7,0-1.2.4-1.3,1.1v1.8h-.1Z"/><path class="cls-18" d="m95.8,114.8v3.4c0,.9-.5,1.8-1.4,2.2-.8.4-1.7.3-2.4-.3-.6-.5-1-1.3-.9-2.1v-41c0-1.6.2-1.5-1.5-1.5s-2.6-.4-3.1-1.8v-1c.4-1.3,1.7-2,3-1.8h3.5c1.3-.2,2.5.7,2.7,2,0,.2,0,.4,0,.7v41.2h.1Z"/><path class="cls-53" d="m91.1,96.3v15h-3c-.6,0-1.3-.3-1.6-.8v-13.5c.4-.5,1-.8,1.7-.7h2.9Z"/><path class="cls-53" d="m91.1,82.5v9.2h-3c-.6,0-1.3-.3-1.6-.8v-7.7c.4-.5,1-.8,1.7-.7h2.9Z"/><path class="cls-12" d="m108.5,97.5v-3.8c.2-2.5,2.4-4.4,4.9-4.2,2.3.2,4.1,2,4.3,4.3,0,.8-.3,1.3-1,1.4s-1.1-.4-1.2-1.2c0-1.2-1-2.2-2.2-2.2,0,0-.1,0-.2,0-.8,0-1.5.5-1.9,1.2-.2.4-.3.8-.3,1.3v6.5c-.2,1.3.7,2.4,2,2.6,1.3.2,2.4-.7,2.6-2,0,0,0-.1,0-.2v-.4c0-.4-.2-.8-.7-.9,0,0-.1,0-.2,0-.9,0-1.4-.5-1.4-1.1s.5-1.2,1.4-1.2h1.9c.9,0,1.3.4,1.3,1.3v2.3c0,2.5-2.1,4.6-4.6,4.6-2.5,0-4.6-2.1-4.6-4.6v-3.5h0v-.2Z"/><path class="cls-9" d="m131.5,95.9v-5c0-.3,0-.7.2-1,.3-.4.8-.6,1.3-.4.5.2.8.7.8,1.2v10.1c0,1.3.9,2.3,2.2,2.4,1.3,0,2.3-.9,2.4-2.2v-10.8c.1-.5.6-.9,1.1-.8.5,0,1,.3,1.1.8v10.8c0,2.5-2.2,4.6-4.7,4.5-.9,0-1.8-.3-2.5-.8-1.3-.9-2.1-2.3-2.1-3.9v-5h.2Z"/><path class="cls-9" d="m120,97.4v-6.5c0-1.1.4-1.5,1.5-1.5h3.6c2.4.2,4.2,2.3,4.1,4.7,0,2.5-2,4.4-4.5,4.5h-1.8c-.5,0-.6.1-.6.6v4.8c0,.3,0,.5-.1.8-.2.5-.7.7-1.2.6-.6,0-1-.5-.9-1.1,0,0,0,0,0-.1v-6.8h-.1Zm2.4-3.5v1.8c0,.4,0,.6.5.6h1.8c1.2,0,2.3-1,2.3-2.2,0,0,0,0,0,0h0c0-1.2-1-2.3-2.2-2.3,0,0,0,0,0,0h-1.8c-.4,0-.5.2-.5.5v1.7Z"/><path class="cls-48" d="m117.7,114.8v3.1c0,.7-.4,1.3-1.1,1.5h-3.4v-4.6h4.5Z"/><path class="cls-48" d="m126.9,119.4h-3.3c-.7,0-1.3-.5-1.3-1.2,0,0,0,0,0,0v-3.3h4.6v4.5Z"/><path class="cls-48" d="m151.2,114.8v3.1c0,.7-.4,1.3-1.1,1.5h-3.4v-4.6h4.5Z"/><path class="cls-48" d="m105,119.4h-3.3c-.7,0-1.3-.5-1.3-1.2,0,0,0,0,0,0v-3.4h4.6v4.6Z"/><path class="cls-16" d="m99.2,86.5v-1.6c0-.7.4-1.2,1.1-1.3h3.5c.6,0,1.2.4,1.3,1,0,.6-.4,1.2-1,1.3h-2c-.4,0-.5.1-.5.5v1.7c0,.6-.5,1.2-1.1,1.3-.6,0-1.2-.4-1.3-1,0,0,0,0,0,0v-1.8Z"/><path class="cls-24" d="m110.8,119.4h-3.4v-4.5h0c0-.1,3.4-.1,3.4-.1v4.6Z"/><path class="cls-24" d="m132.7,119.4h-3.4v-4.6h3.4v4.5h0Z"/><path class="cls-24" d="m138.5,119.4h-3.4v-4.6h3.4v4.6Z"/><path class="cls-24" d="m144.2,119.4h-3.4v-4.5h0c0-.1,3.4-.1,3.4-.1v4.6Z"/><path class="cls-49" d="m129.3,114.8v4.6h-2.3v-4.6c.8-.1,1.5-.1,2.3,0Z"/><path class="cls-49" d="m110.8,119.4v-4.6c.8-.1,1.5-.1,2.3,0v4.6h-2.3Z"/><path class="cls-49" d="m144.2,119.4v-4.6c.8-.1,1.5-.1,2.3,0v4.6h-2.3Z"/><path class="cls-49" d="m107.3,114.9v4.4h-.1c-.7,0-1.5.1-2.2.1v-4.6h2.3Z"/><path class="cls-49" d="m135,114.8v4.6h-2.3v-4.6h2.3Z"/><path class="cls-49" d="m140.8,114.9v4.4h-.1c-.7,0-1.5.1-2.2.1v-4.6h2.3Z"/><path class="cls-49" d="m134.7,114.8h-1.9c.6-.1,1.3-.1,1.9,0Z"/><path class="cls-49" d="m132.7,119.3h.1c0,.1-.1,0-.1,0Z"/><path class="cls-70" d="m122.3,94v-1.8c0-.4,0-.6.5-.5h1.8c1.3,0,2.3,1,2.3,2.3s-1,2.3-2.3,2.3h-1.8c-.5,0-.5-.2-.5-.6v-1.7Z"/><path d="m113.4,61.9c1.6,3.5,0,7.6-3.5,9.2-.2,0-.4.2-.6.2-3.9,1.7-8.4-.1-10.1-4,0,0,0-.1,0-.2-1.5-4,.5-8.5,4.5-10,2.4-.9,5-.6,7.1.8l-2.1,2.6c-2.1-1.3-4.8-.6-6.1,1.5-.7,1.2-.8,2.6-.3,3.9.9,2.3,3.2,3.4,5.9,2.3,1.6-.5,2.7-1.9,2.7-3.5l-3.7,1.4-1.1-2.7,6.9-2.7.5,1.2Z"/><path d="m127.8,59.7c-.1,2.8-2.5,4.9-5.3,4.8,0,0,0,0,0,0h-2.2c0-.1-.2,4.5-.2,4.5l-3.4-.2.7-14.7,5.6.3c2.8,0,5,2.4,4.9,5.2,0,0,0,0,0,0Zm-3.4-.2c0-1-.7-1.9-1.7-2h-2.2c0-.1-.2,3.7-.2,3.7h2.2c.9.1,1.8-.5,1.9-1.4,0,0,0-.2,0-.3h0Z"/><path d="m129.6,65.1l4.2-9,3,1.4-4.1,8.8c-.5,1-.4,2.1,1.2,2.8s2.5.1,3-.9l4.1-8.8,3,1.4-4.2,9c-1.3,2.9-4.3,3.6-7.3,2.2-3-1.4-4.4-4.1-3-7h.1Z"/><circle class="cls-2" cx="286.9" cy="91.6" r="45"/><path class="cls-17" d="m274.5,74.3c.5.2.7.7.7,1.2v5.4h-1.9v-5.3c0-.5.2-.9.6-1.2h.6,0Z"/><path class="cls-17" d="m293.6,74.3c.4.2.7.7.6,1.2v5.4h-1.9v-5.3c0-.5.2-.9.6-1.2h.7Z"/><path class="cls-17" d="m298.7,80.9v-5.3c0-.5.2-.9.6-1.2h.6c.4.2.7.6.6,1.1v5.4h-1.8Z"/><path class="cls-17" d="m314.5,102.4c-.3.4-.8.6-1.3.5h-5.3v-1.9h5.4c.5,0,.9.2,1.1.6v.8h.1Z"/><path class="cls-17" d="m287.2,74.3c.4.2.7.7.6,1.2v5.4h-1.9v-5.5c0-.5.2-.9.7-1.1h.6Z"/><path class="cls-17" d="m275.2,123v5.1c0,.7-.1,1.2-.9,1.4h-.3c-.5-.3-.7-.9-.7-1.5v-5.1h1.9Z"/><path class="cls-17" d="m294.3,123v5.2c0,.6-.3,1.2-.8,1.4h-.3c-.5-.3-.8-.9-.7-1.5v-5.1h1.8Z"/><path class="cls-17" d="m299.4,129.6c-.5-.3-.7-.9-.7-1.5v-5.1h1.9v5.1c0,.7-.1,1.2-.9,1.4h-.3Z"/><path class="cls-17" d="m265.8,90.1h-5.5c-.4,0-.9-.2-1.1-.6v-.8c.3-.4.8-.6,1.3-.5h5.3v1.9Z"/><path class="cls-17" d="m259.3,114.3c.2-.4.6-.6,1.1-.6h5.5v1.9h-5.3c-.5,0-1-.1-1.3-.5v-.8Z"/><path class="cls-17" d="m308,113.7c1.4,0,2.8,0,4.3,0h1.2c.4,0,.9.2,1.1.6v.6c-.2.4-.7.6-1.1.6h-5.5v-1.8Z"/><path class="cls-17" d="m265.8,96.5h-5.5c-.4,0-.9-.2-1.1-.6v-.7c.2-.4.6-.6,1.1-.6h5.5v1.9Z"/><path class="cls-17" d="m279.6,80.9v-5.4c0-.5.2-.9.6-1.2h.6c.4.3.6.7.6,1.2v5.4h-1.8Z"/><path class="cls-17" d="m308,107.4h5.5c.4,0,.9.2,1.1.6v.6c-.2.4-.6.6-1.1.6h-5.5v-1.8Z"/><path class="cls-17" d="m314.5,95.9c-.2.4-.6.6-1.1.6h-5.5v-1.9h5.5c.4,0,.9.2,1.1.6v.7Z"/><path class="cls-17" d="m265.8,102.8h-5.3c-.5,0-.9-.2-1.2-.6v-.6c.3-.4.7-.6,1.2-.6h5.3v1.8Z"/><path class="cls-17" d="m259.3,108c.2-.4.6-.6,1.1-.6h5.5v1.8h-5.5c-.4,0-.9-.2-1.1-.6v-.6Z"/><path class="cls-17" d="m314.5,89.5c-.3.4-.8.6-1.3.6h-5.2v-1.9c1.4,0,2.9,0,4.3,0h1c.5,0,1,.2,1.2.7v.6Z"/><path class="cls-46" d="m280.3,129.6c-.5-.3-.8-.8-.7-1.4v-5.2h1.9c-.1,1.2,0,2.4,0,3.6v1.6c.1.6-.2,1.2-.8,1.3,0,0,0,0,0,0h-.4Z"/><path class="cls-46" d="m286.7,129.6c-.5-.3-.7-.8-.7-1.3v-5.2h1.8v5.3c0,.6-.3,1.1-.8,1.3h-.3Z"/><path class="cls-32" d="m287.8,123h-21.2c-.6,0-.8-.3-.8-.9v-40.3c0-.4.2-.8.7-.9,0,0,.1,0,.2,0h40.4c.6,0,.8.3.8.9v40.4c0,.6-.3.9-.8.9h-19.4,0Zm-.9-7.1h13.3c.5,0,.6,0,.6-.6v-26.7c0-.5-.1-.6-.6-.6h-26.7c-.5,0-.6,0-.6.6v26.7c0,.5.1.6.6.6h13.4Z"/><path class="cls-46" d="m286.9,115.9h-13.3c-.5,0-.6,0-.6-.6v-26.7c0-.5.1-.6.6-.6h26.7c.5,0,.6,0,.6.6v26.7c0,.5-.2.6-.6.6h-13.4Zm-9.4-13.9c0,5.2,4.2,9.4,9.4,9.4,5.2,0,9.4-4.2,9.4-9.4s-4.2-9.4-9.4-9.4h0c-5.2,0-9.4,4.2-9.5,9.4h.1Z"/><path class="cls-56" d="m277.5,101.9c0-5.2,4.2-9.4,9.4-9.4s9.4,4.2,9.4,9.4-4.2,9.4-9.4,9.4h0c-5.2,0-9.4-4.2-9.4-9.4h0Zm8.7,6.8c.1-.1.2-.2.3-.4,1.1-1.7,2.2-3.5,3.3-5.2l1.3-2.1h-2.7c-.4,0-.5,0-.5-.5v-5.4c-.5.7-1,1.4-1.4,2.1l-3.2,5.1c0,0-.2.2-.2.4s.3,0,.4,0h2.1c.4,0,.6,0,.6.6v5.3h0Z"/><path class="cls-8" d="m286.1,106.8v-3.4c0-.5-.1-.6-.6-.6h-2.5s0-.3.2-.4l3.2-5.1c.4-.7.9-1.4,1.4-2.1v5.4c0,.4.1.5.5.5h1.6l-2.7,4.2c-.3.5-.7,1-1.1,1.5Z"/><path class="cls-13" d="m286.1,106.8c.4-.4.8-.9,1-1.5l2.7-4.2h1.1l-1.3,2.1c-1.1,1.7-2.2,3.5-3.3,5.2,0,0-.2.3-.3.4h0v-1.9h.1Z"/><path d="m253.7,76.3c2.2.7,3.5,3.2,2.7,5.4,0,0,0,0,0,0l-.6,1.8,3.7,1.3-.9,2.7-11.9-4,1.5-4.5c.8-2.3,3.2-3.5,5.5-2.8Zm-.9,2.7c-.7-.3-1.6,0-1.9.7,0,0,0,.1,0,.2l-.6,1.8,3.1,1,.6-1.8c.3-.8-.2-1.7-1-2h-.1Z"/><path d="m257.4,69.2l2.6,1.7c-.9.8-1,2.1-.3,3,.1.2.3.3.5.4l3.4,2.3-1.5,2.2-7.5-5,1.5-2.2,1.3.9c-.7-1-.7-2.2,0-3.2h0Z"/><path d="m261.7,70.9c-1.7-2-1.6-5,.4-6.7,2-1.7,5-1.6,6.7.4,1.7,2,1.6,5-.4,6.7h0c-1.9,1.7-4.8,1.6-6.6-.3,0,0,0,0-.1-.1Zm5.1-4.5c-.6-.8-1.8-1-2.7-.4,0,0-.2.1-.2.2-.9.7-1,2-.3,2.8,0,0,.1.1.2.2.6.8,1.8,1,2.7.4,0,0,.2-.1.2-.2.9-.7,1-2,.3-2.8,0,0-.1-.1-.2-.2h0Z"/><path d="m270.1,63.8c-1.1-2.4,0-5.2,2.3-6.3,0,0,0,0,0,0,1.5-.7,3.2-.5,4.6.4l-1.6,2.2c-.6-.4-1.3-.5-2-.2-1,.4-1.5,1.5-1.1,2.5,0,0,0,.1,0,.2.4,1,1.6,1.5,2.7,1.1,0,0,0,0,0,0,.7-.2,1.2-.9,1.2-1.6l2.7.3c-.1,1.7-1.2,3.1-2.7,3.8-2.4,1.1-5.2,0-6.3-2.3,0,0,0,0,0,0h.1Z"/><path d="m284.3,61.5c.6,0,1.2-.4,1.6-.9l2.3.9c-.7,1.3-2.1,2.2-3.6,2.4-2.5.5-4.9-1.1-5.4-3.6,0-.1,0-.3,0-.4-.4-2.5,1.2-4.9,3.8-5.4.1,0,.2,0,.3,0,2.4-.4,4.7,1.3,5.1,3.7,0,.1,0,.3,0,.4v1.1l-6.3.9c.5.8,1.4,1.2,2.3,1h0Zm1.2-3.5c-.3-.9-1.2-1.4-2.1-1.2-.9,0-1.7.8-1.7,1.7l3.8-.5Z"/><path d="m296.4,61.5c-.3,2.1-2.2,2.7-4.1,2.4-1.6,0-3-1.1-3.5-2.6l2.5-1c0,.7.7,1.3,1.4,1.3.6,0,1,0,1-.4.1-1-4.3-1.1-3.9-4.1.3-1.9,2-2.7,3.9-2.5,1.4.2,2.6,1.1,3.2,2.4l-2.4.9c-.1-.5-.6-.9-1.1-.9-.5,0-.8,0-.8.4-.1,1,4.3.9,3.9,4.2h0Z"/><path d="m303.7,64.3c-.7,1.9-2.7,2.1-4.5,1.4-1.6-.4-2.7-1.8-2.8-3.4l2.6-.4c0,.7.4,1.3,1,1.5.6.2,1,.2,1.1-.2.4-.9-3.9-2-2.8-4.9.7-1.8,2.6-2.2,4.3-1.5,1.4.5,2.4,1.7,2.6,3.1l-2.6.3c0-.5-.3-1-.8-1.2-.4-.2-.8-.1-.9.2-.4,1,4,1.9,2.8,5h0Z"/><path d="m305.6,63.1c1.6-2.1,4.5-2.5,6.6-.9,2.1,1.6,2.5,4.5.9,6.6-1.6,2.1-4.5,2.5-6.6.9-2.1-1.5-2.5-4.5-.9-6.5,0,0,0,0,0,0Zm5.4,4.1c.7-.8.6-2.1-.2-2.8,0,0,0,0,0,0-.9-.7-2.1-.6-2.8.3,0,0,0,0,0,.1-.7.8-.6,2.1.2,2.8,0,0,0,0,0,0,.9.7,2.1.6,2.8-.3,0,0,0,0,0-.1h0Z"/><path d="m321.2,71.8l-2.4,1.9c-.4-1.1-1.7-1.6-2.8-1.2-.2,0-.4.2-.5.3l-3.2,2.5-1.6-2.1,7.1-5.5,1.6,2.1-1.3,1c1.1-.4,2.4,0,3,1h0Z"/><path d="m319.6,82.9c-1.9.9-3.4-.4-4.3-2.1-.8-1.4-.7-3.1.3-4.4l2.2,1.5c-.5.5-.6,1.2-.3,1.8.3.6.6.8.9.6.9-.4-1.5-4.2,1.4-5.5,1.8-.8,3.4.2,4.2,1.9.7,1.3.5,2.8-.3,4l-2.1-1.5c.4-.4.4-.9.2-1.4-.2-.4-.5-.6-.8-.5-.9.4,1.6,4.1-1.4,5.5h0Z"/></svg>