<?xml version="1.0" encoding="UTF-8"?><svg id="Layer_1" xmlns="http://www.w3.org/2000/svg" viewBox="0 0 400 400"><defs><style>.cls-1{stroke:#a5262d;}.cls-1,.cls-2,.cls-3,.cls-4{stroke-width:4px;}.cls-1,.cls-2,.cls-3,.cls-4,.cls-5{fill:none;stroke-miterlimit:10;}.cls-6{fill:#1f444f;}.cls-7{fill:#fff;}.cls-8{fill:#a7b4b9;}.cls-2{stroke:#0018c6;}.cls-9{fill:#cbcbcb;}.cls-10{fill:#4fb76a;}.cls-11{fill:#349951;}.cls-12{fill:#cfe1ed;}.cls-13{fill:#143441;}.cls-14{fill:#f6f6f6;}.cls-15{fill:#2d5a5d;}.cls-16{fill:#f2a745;}.cls-17{fill:#e1e6f5;}.cls-18{fill:#a7c1e0;}.cls-19{fill:#dda927;}.cls-3{stroke:#c000e2;}.cls-20{fill:#0d202b;}.cls-21{fill:#cbdde9;}.cls-22{fill:#1e4b4c;}.cls-23{fill:#369754;}.cls-24{fill:#444b66;}.cls-25{fill:#e0e0e0;}.cls-26{fill:#163842;}.cls-4{stroke:#00b51e;}.cls-27{fill:#f8d77c;}.cls-28{fill:#fdd782;}.cls-29{fill:#caa158;}.cls-30{fill:#6bc048;}.cls-5{stroke:#231f20;stroke-width:2px;}.cls-31{fill:#c6ecf9;}.cls-32{fill:#fbbd41;}.cls-33{fill:#3d435c;}.cls-34{fill:#01b6a0;}.cls-35{fill:#183c43;}.cls-36{fill:#6eaa50;}.cls-37{fill:#f0f1ef;}.cls-38{fill:#f0f1f0;}.cls-39{fill:#93c578;}.cls-40{fill:#073856;}.cls-41{fill:#999;}.cls-42{fill:#c6ecfa;}.cls-43{fill:#2e5a5d;}.cls-44{fill:#f1f1f1;}.cls-45{fill:#454c67;}.cls-46{fill:#c6d8de;}.cls-47{fill:#edcd67;}.cls-48{fill:#c4d8dd;}.cls-49{fill:#559a38;}.cls-50{fill:#db411d;}.cls-51{fill:#cadce8;}.cls-52{fill:#cdcdcd;}.cls-53{fill:#51b66c;}.cls-54{fill:#cad9df;}.cls-55{fill:#231f20;}.cls-56{fill:#c7d9de;}.cls-57{fill:#c5d8de;}.cls-58{fill:#f0c343;}.cls-59{fill:#153642;}.cls-60{fill:#1a846e;}.cls-61{fill:#666;}.cls-62{fill:#dca826;}.cls-63{fill:#249582;}.cls-64{fill:#b72b06;}.cls-65{fill:#edcb61;}.cls-66{fill:#6e6b87;}</style></defs><circle class="cls-4" cx="198.8" cy="319.7" r="45"/><path class="cls-50" d="m209.7,354.3c0,.8-4.9,1.4-11,1.4h0c-6.1,0-11-.6-11-1.4v-52.1c0-.8,4.9-1.4,11-1.4h0c6.1,0,11,.6,11,1.4v52.1Z"/><path class="cls-64" d="m187.7,303.5v.5c1.4-.4,5.3-.8,11-.8s9.6.4,11,.8v-.5c-2.7-.8-9.4-.8-11-.8s-8.2,0-11,.8Z"/><path class="cls-64" d="m209.7,352.9v-.5c-1.4.4-5.3.8-11,.8s-9.6-.4-11-.8v.5c2.7.8,9.4.8,11,.8s8.2,0,11-.8Z"/><path class="cls-64" d="m198.7,309.2c-3.2,0-6.2.1-8.4.3-.9,0-1.7.1-2.6.3v.6c3.6-.5,7.3-.7,11-.6,3.7,0,7.4.1,11,.6v-.6c-.6-.1-1.4-.2-2.6-.3-2.2-.2-5.2-.3-8.4-.3Z"/><path class="cls-64" d="m209.7,346c-3.6.5-7.3.7-11,.6-3.7,0-7.4-.1-11-.6v.6c.6.1,1.4.2,2.6.3,2.2.2,5.2.3,8.4.3s6.2-.1,8.4-.3c.9,0,1.7-.1,2.6-.3v-.6Z"/><rect class="cls-64" x="187.7" y="311.6" width="21.9" height="33.3"/><path class="cls-61" d="m215.5,330c-.3.6-.8.8-1.1.5l-2.8-2.6c-.3-.3-.2-.9,0-1.5l3.3-5.7c.3-.6.8-.8,1.1-.5l2.8,2.6c.3.3.2.9,0,1.5l-3.3,5.7Z"/><path class="cls-40" d="m219.7,311.7h1.1c1,0,1.5.8,1.1,2-.3.8-.7,1.6-1.1,2.4-2.6,4.6-5.1,9.3-7.7,13.9-2.4,4.2-4.8,8.3-7.3,12.3-1,1.9-2.7,3.4-4.7,4.2-2.4.8-4.5,0-6.5-1.6-1.2-1.1-2.2-2.4-2.9-3.9-2.8-4.7-5.5-9.4-8.2-14.2-1.2-2.1-2.3-4.2-3.5-6.3,0-.1-.1-.2-.2-.4-.7-1.6-.4-2.6,1.1-2.8,5.2-.8,10.4-1.5,15.6-2.3,4.6-.7,9.2-1.3,13.7-2,3.2-.5,6.5-.9,9.7-1.3h-.2Z"/><path class="cls-41" d="m217.3,314.1h.9c.8,0,1.3.7.9,1.7-.3.7-.6,1.4-1,2.1-2.2,4-4.4,8.1-6.7,12.1-2.1,3.6-4.2,7.2-6.4,10.7-.9,1.7-2.4,3-4.1,3.7-2.1.7-3.9,0-5.7-1.4-1.1-1-1.9-2.1-2.5-3.4l-7.2-12.3c-1-1.8-2-3.7-3-5.5,0-.1-.1-.2-.2-.3-.6-1.4-.3-2.2.9-2.4,4.5-.7,9-1.3,13.5-2,4-.6,8-1.2,12-1.7,2.8-.4,5.7-.7,8.5-1.1h0v-.2Z"/><path d="m178.8,295.4c2.6,2.6,2.3,5.9,0,8.3-2.3,2.5-6.2,2.7-8.7.4-2.5-2.3-2.7-6.2-.4-8.7,0,0,.1-.1.2-.2,1.4-1.5,3.6-2.2,5.6-1.7l-.7,2.6c-1.1-.2-2.3.2-3,1.1-1.4,1.4-1.4,3.6,0,4.9,0,0,0,0,0,0,1.3,1.4,3.4,1.4,4.8.1.1-.1.2-.2.3-.3,1-.8,1.4-2.2.9-3.4l-2.2,2.2-1.7-1.7,4.2-4.2.7.7h0Z"/><path d="m191.2,286.8l.6,8.9-2.2.9-3-3.7.4,4.7-2.2.9-5.7-6.9,2.5-1,2.8,3.8-.5-4.7,2.2-.9,2.9,3.7-.6-4.7,2.5-1h.3Z"/><path d="m202.7,286.2l.3,8.5h-2.5v-.7c-.6.7-1.5,1.2-2.5,1.1-2.3,0-4.2-2-4.2-4.3,0-2.5,1.7-4.6,3.9-4.6,1,0,1.9.3,2.6.9v-.8h2.5-.1Zm-2.4,4.3c0-1.1-.8-2-1.8-2,0,0-.2,0-.3,0-1,0-1.9.8-1.9,1.8,0,.1,0,.2,0,.4,0,1.1.9,2,2,2,0,0,0,0,.1,0,1,0,1.9-.7,1.9-1.8,0-.1,0-.2,0-.3h0Z"/><path d="m208.6,289.9l-.7,2.9c-.2.7.4.9,1.5,1.1l-.5,2.3c-3.3-.4-4.1-1.6-3.5-3.9l.7-2.9-1.3-.3.5-2.4,1.3.3.4-1.6,2.7-.2-.5,2.3,1.7.4-.5,2.4-1.7-.4h0Z"/><path d="m211.2,292.3c1-2.2,3.6-3.2,5.8-2.2,0,0,.1,0,.2,0,1.4.7,2.4,2,2.5,3.6l-2.6.2c0-.7-.5-1.3-1.1-1.6-.9-.5-2.1-.1-2.6.8,0,0,0,0,0,.1-.5.9-.1,2,.8,2.5,0,0,0,0,.1,0,.6.3,1.3.3,1.9-.1l1.5,2.1c-1.3.9-3,1-4.4.3-2.2-1-3.2-3.6-2.2-5.8,0,0,0-.1,0-.2h0Z"/><path d="m226.6,301.5l-3.5,3.9-1.9-1.7,3.2-3.6c.6-.5.6-1.5,0-2,0,0,0,0,0,0-.6-.6-1.5-.5-2.1,0,0,0-.1.2-.2.3l-3.1,3.5-1.9-1.7,7.9-8.9,1.9,1.7-2.8,3.1c.9-.2,1.9,0,2.5.8,1.3,1.1,1.6,3,0,4.7Z"/><line class="cls-7" x1="199.1" y1="234.4" x2="198.6" y2="267.2"/><line class="cls-5" x1="199.1" y1="234.4" x2="198.7" y2="256.4"/><polygon class="cls-55" points="191.3 254.1 198.6 267.2 206.2 254.4 191.3 254.1"/><line class="cls-7" x1="256.4" y1="118.5" x2="234.3" y2="142.7"/><line class="cls-5" x1="256.4" y1="118.5" x2="241.5" y2="134.8"/><polygon class="cls-55" points="237.5 128.1 234.3 142.7 248.5 138.2 237.5 128.1"/><line class="cls-7" x1="143.3" y1="118.5" x2="165.4" y2="142.7"/><line class="cls-5" x1="143.3" y1="118.5" x2="158.1" y2="134.8"/><polygon class="cls-55" points="151.1 138.2 165.4 142.7 162.1 128.1 151.1 138.2"/><line class="cls-7" x1="282.2" y1="184.1" x2="249.4" y2="184.6"/><line class="cls-5" x1="282.2" y1="184.1" x2="260.2" y2="184.4"/><polygon class="cls-55" points="262.3 176.9 249.4 184.6 262.5 191.9 262.3 176.9"/><line class="cls-7" x1="115.4" y1="184.1" x2="148.2" y2="184.6"/><line class="cls-5" x1="115.4" y1="184.1" x2="137.4" y2="184.4"/><polygon class="cls-55" points="135.1 191.9 148.2 184.6 135.4 176.9 135.1 191.9"/><circle class="cls-3" cx="198.8" cy="181.6" r="45"/><path d="m156.5,183.9l.5-2.6,8.1-.6-7.4-3.4.3-2,8.1-.8-7.4-3.2.5-2.6,10.5,4.9-.5,2.9-6.8.7,6.2,2.9-.5,2.9-11.6,1.2v-.3Z"/><path d="m167.8,160.2l6.9,4.1-1.2,2.1-.6-.4c.3.8.2,1.8-.4,2.5-1.2,1.8-3.7,2.4-5.5,1.1,0,0,0,0,0,0-1.9-1-2.7-3.3-1.8-5.2,0,0,0-.1,0-.2.4-.8,1.2-1.4,2.1-1.6l-.6-.4,1.2-2.1h0Zm2.2,4.1c-.8-.6-1.9-.4-2.5.4,0,0,0,0,0,.2-.6.8-.3,1.9.5,2.5,0,0,.2,0,.2.1.8.6,1.9.4,2.5-.4,0,0,0,0,0-.2.6-.8.3-1.9-.5-2.5,0,0-.2,0-.2-.1h0Z"/><path d="m173.6,157.4l2,2c.5.5,1,.1,1.6-.7l1.6,1.5c-2,2.5-3.3,2.5-4.9.9l-2-2-.9.9-1.6-1.6.9-.9-1.1-1.1,1.2-2.2,1.6,1.6,1.2-1.2,1.6,1.6-1.2,1.2Z"/><path d="m176.7,156.6c-1.3-1.9-.8-4.6,1.2-5.9,0,0,0,0,0,0,1.2-.8,2.8-1,4.1-.3l-1.1,2.2c-.9-.5-2-.1-2.4.8-.3.6-.3,1.3.1,1.8.5.8,1.5,1.1,2.4.6,0,0,0,0,.1,0,.6-.3.9-1,.8-1.6l2.4-.2c0,1.5-.6,2.9-1.9,3.7-1.9,1.3-4.6.8-5.9-1.2,0,0,0,0,0,0l.2.2Z"/><path d="m191.5,148.5l1.5,4.7-2.3.7-1.4-4.3c-.2-.8-.9-1.2-1.7-1,0,0,0,0-.1,0-.8.2-1.2,1-1,1.7,0,0,0,.2,0,.3l1.4,4.2-2.3.7-3.5-10.6,2.3-.7,1.2,3.8c.3-.8,1-1.4,1.9-1.6,1.6-.5,3.3.4,3.8,2,0,0,0,.1,0,.2h0Z"/><path d="m193.7,147.2l6.1-.3v2.3l-5.9.3v-2.3h-.2Z"/><path d="m202.5,145l2.4.3-1,7.9-2.4-.3,1-7.9Zm0-2.2c0-.8.8-1.3,1.5-1.2,0,0,0,0,0,0,.8.1,1.3.8,1.2,1.6-.1.8-.8,1.3-1.6,1.2-.8,0-1.3-.8-1.2-1.5,0,0,0,0,0,0Z"/><path d="m213.9,151.1l-1.6,4.6-2.3-.8,1.5-4.3c.3-.6,0-1.4-.6-1.7,0,0-.1,0-.2,0-.7-.3-1.5,0-1.8.7,0,.1,0,.2-.1.4l-1.4,4.1-2.3-.8,2.6-7.6,2.3.8-.2.7c.8-.4,1.7-.5,2.5-.2,1.5.5,2.4,2.2,1.9,3.7,0,.1-.1.3-.2.4h-.1Z"/><path d="m218.8,153.2l-1.5,2.4c-.4.6,0,1,1,1.5l-1.2,1.8c-2.8-1.4-3.1-2.7-1.9-4.6l1.5-2.4-1.1-.7,1.2-1.9,1.1.7.8-1.3,2.4.7-1.2,1.9,1.4.9-1.2,1.9-1.4-.9h0Z"/><path d="m221.9,160.7c.4.4.9.7,1.5.7l.6,2.1c-1.3.2-2.7-.3-3.6-1.3-1.7-1.5-1.9-4.1-.4-5.8,0,0,.2-.2.3-.3,1.6-1.6,4.3-1.6,5.9,0s1.6,4.3,0,5.9-.5.4-.7.6l-4-4c-.4.8,0,1.5.6,2.2h-.2Zm3.1-1c.4-.7.3-1.6-.3-2.1-.5-.6-1.4-.8-2.1-.3l2.4,2.4Z"/><path d="m233,165.3l-2.3,1.4c-.3-1-1.4-1.6-2.4-1.3-.1,0-.3,0-.4.2l-3.1,1.9-1.3-2,6.8-4.2,1.3,2-1.2.7c1-.2,2.1.3,2.6,1.2h0Z"/><path d="m233.4,175.8l-4.7,1.5-.8-2.3,4.3-1.4c.7-.2,1.1-.9,1-1.6,0,0,0-.2,0-.2-.3-.8-1.1-1.2-1.9-1,0,0,0,0-.1,0l-4.1,1.4-.8-2.3,7.6-2.5.8,2.3-.7.2c.8.3,1.4,1,1.6,1.9.5,1.6-.4,3.3-2,3.8,0,0-.1,0-.2,0h0Z"/><path d="m237.2,186.1l-8,.3v-2.4h.7c-.7-.6-1.1-1.5-1.1-2.4,0-2.2,1.9-4,4.1-4,2.4,0,4.3,1.6,4.3,3.7,0,.9-.3,1.8-.9,2.4h.8v2.4h0Zm-4.1-2.3c1,0,1.9-.8,1.9-1.8,0,0,0-.1,0-.2,0-1-.7-1.8-1.7-1.8-.1,0-.2,0-.3,0-1,0-1.9.8-1.9,1.8,0,0,0,.1,0,.2,0,1,.7,1.8,1.7,1.8.1,0,.2,0,.3,0h0Z"/><path d="m240.3,189.7l-.4,2.4-11.5-2.1.4-2.4,11.5,2.1Z"/><path class="cls-30" d="m172.8,205.3v-28.8c0-.5.2-.6.7-.6h4.5v2c0,.5,0,.6.6.6h2.4c.4,0,.5,0,.5-.5v-2.1h3.4v2c0,.5,0,.6.6.6h2.4c.4,0,.5,0,.5-.5v-2.1h3.4v2c0,.5,0,.6.6.6h2.4c.4,0,.5,0,.5-.5v-2.1h7.8v4c0,.4,0,.6-.4.8-1,.6-1.5,1.8-1.2,2.9.5,1.4,1.9,2.1,3.3,1.6,1.3-.4,2-1.7,1.7-3-.2-.7-.6-1.2-1.2-1.6-.3,0-.4-.3-.4-.6v-4.1h3.4v8.2c0,.5.2.9.5,1.3l5.4,5.4c.2.2.3.5.2.8-.4,1.4.5,2.8,1.9,3.2.2,0,.4,0,.5,0,1.3,0,2.4-.9,2.6-2.1v7.3h-.8c-.4,0-.8.2-.9.7,0,0,0,.1,0,.2h-3.4v-.3c0-.5,0-.6-.6-.6h-2.4c-.3,0-.5,0-.5.4v2.6c0,.4.1.5.5.4h2.2q.8,0,.8-.9h3.5c0,.4.2.8.7.9,0,0,.1,0,.2,0h.6c-.3,1-1.3,1.7-2.3,1.7h-10.4c0-1-.5-2-1.5-2.3-.3-.1-.3-.3-.3-.5v-3.9c0-.7-.3-1-1-1h-8.5v-1.8h10c.4,0,.6,0,.8.4.7,1.2,2.3,1.7,3.5,1,1-.6,1.5-1.8,1.2-3-.2-.9-1-1.6-1.9-1.8-1.1-.3-2.3.2-2.9,1.2-.2.4-.4.4-.8.4h-10v-1.7h3q1.4,0,1.3-1.4c0-.3-.1-.4-.4-.4h-3.9v-1.8h3q1.4,0,1.3-1.4c0-.3-.1-.4-.4-.4h-3.9v-1.4c0-.3,0-.4-.3-.4h-1.4v-3q0-1.4-1.4-1.3c-.3,0-.4.1-.4.4v4h-1.8v-3q0-1.4-1.4-1.3c-.3,0-.4.1-.4.4v4h-1.8v-3q0-1.4-1.4-1.3c-.3,0-.4.1-.4.4v4h-1.8v-3q0-1.4-1.4-1.3c-.3,0-.4.1-.4.4v4h-1.4c-.3,0-.4,0-.3.4v1.4h-3q-1.4,0-1.3,1.4c0,.3.1.4.4.4h3.9v1.8h-3q-1.4,0-1.3,1.4c0,.3.1.4.4.4h3.9v1.8h-3q-1.4,0-1.3,1.4c0,.3.1.4.4.4h3.9v1.8h-3q-1.4,0-1.3,1.4c0,.3.1.4.4.4h3.9v1.4c0,.3,0,.4.3.4h1.4v4.3h-8.7l.6-.6Z"/><path class="cls-49" d="m172.8,205.3h28.6c0,.5.2,1.1.5,1.5.6.9,1.7,1.3,2.8,1.1,1.1-.3,2-1.3,2-2.5h10.4c1.1,0,2-.7,2.3-1.7h1.6c.3,0,.4,0,.4-.4v-2.8c0-.3-.1-.4-.4-.4h-1.4v-23.7c0-.5,0-.6.6-.6h4.1c.5,0,.6,0,.6.6v33.5c0,.5-.1.6-.6.6h-4.2c-.3,0-.4,0-.4-.4-.2-1.8-1.7-3.1-3.5-3.1-1.8,0-3.3,1.3-3.4,3.1,0,.3-.1.4-.4.3h-38.8c-.5,0-.6,0-.6-.6v-4.6h-.2Z"/><path class="cls-30" d="m219.6,176.4v15.4c-.7-1.8-1.5-2.2-3.5-1.9-.2,0-.4,0-.5-.2l-5.3-5.3c-.2-.1-.3-.4-.3-.6v-8h1.9c.5,0,.7.1.7.6.2,1.2,1,2.2,2.2,2.6,1.8.6,3.7-.2,4.4-2h0c0-.3.1-.4.2-.6h.2Z"/><path class="cls-37" d="m210.1,175.9v8c0,.2.1.4.3.6l5.3,5.3c.1.1.2.3.5.2,2-.4,2.8.1,3.5,1.9v1c-.6,1.4-1.4,2.1-2.6,2.1-1.4,0-2.5-1.2-2.5-2.6,0-.2,0-.5.1-.7.1-.3,0-.6-.2-.8l-5.4-5.4c-.4-.3-.6-.8-.5-1.3v-8.2h1.8-.3Zm6.9,17.3c.5,0,.9-.3.9-.8,0-.4-.4-.8-.8-.9-.5,0-.9.3-.9.8h0c0,.5.3.9.8.9Z"/><path class="cls-38" d="m204.9,175.9v4.1c0,.4.2.4.4.6,1.2.7,1.7,2.3,1,3.5-.7,1.2-2.3,1.7-3.5,1h0c-.6-.3-1-.9-1.2-1.6-.3-1.1.2-2.3,1.2-2.9.4-.2.4-.4.4-.8v-3.9h1.7Zm-.9,6.1c-.5,0-.9.4-.9.9s.4.9.9.9.9-.4.9-.9h0c0-.5-.4-.9-.9-.9Z"/><path class="cls-65" d="m178,177.6v-3.9c0-.3,0-.4.4-.4h2.2v3.3c0,.5-.3.9-.8,1,0,0-.1,0-.2,0h-1.6Z"/><path class="cls-65" d="m185,177.6v-3.9c0-.3,0-.4.4-.4h2.2v3.3c0,.5-.3.9-.8,1,0,0-.1,0-.2,0h-1.6Z"/><path class="cls-65" d="m191.9,177.6v-3.9c0-.3.1-.4.4-.4h2.2v3.3c0,.5-.3.9-.8,1,0,0-.1,0-.2,0h-1.6Z"/><path class="cls-16" d="m185,177.6h1.6c.5,0,.9-.3,1-.8,0,0,0-.1,0-.2v-3.3h.1c.5,0,.8.2.8.7v4c0,.4-.1.5-.5.5h-2.4c-.5,0-.6-.2-.6-.6v-.3Z"/><path class="cls-16" d="m178,177.6h1.6c.5,0,.9-.3,1-.8,0,0,0-.1,0-.2v-3.3h.1c.5,0,.8.2.8.7v4c0,.4-.1.5-.5.5h-2.4c-.5,0-.6-.2-.6-.6v-.3Z"/><path class="cls-16" d="m191.9,177.6h1.6c.5,0,.9-.3,1-.8,0,0,0-.1,0-.2v-3.3h.1c.5,0,.8.2.8.7v4c0,.4-.1.5-.5.5h-2.4c-.5,0-.6-.2-.6-.6v-.3Z"/><path class="cls-49" d="m193.6,185.4h1.4c.3,0,.4,0,.3.4v14.9c0,.3,0,.4-.3.4h-14.9c-.3,0-.4,0-.3-.4v-14.9c0-.3,0-.4.3-.4h13.5Zm-10.4,10.4v1.3c0,.4.1.4.5.4h7.7c.4,0,.5-.1.5-.5v-6.5c0-.5.2-1.2-.1-1.6s-1.1,0-1.6,0h-6.5c-.3,0-.4,0-.4.4v6.5h0Z"/><path class="cls-38" d="m195.3,199.2v-1.7h8.5c.7,0,1,.3,1,1v3.9c0,1.3,0,.4.3.5.9.4,1.5,1.3,1.5,2.3,0,1.2-.8,2.2-2,2.5-1.1.3-2.2-.1-2.8-1.1-.3-.5-.5-1-.5-1.5,0-1,.5-2,1.5-2.3.2,0,.3-.3.3-.5v-2.6c0-.5,0-.6-.6-.6h-7.2Zm9.5,6.1c0-.5-.4-.9-.9-.9s-.9.4-.9.9.4.9.9.9h0c.5,0,.8-.4.8-.8,0,0,0,0,0,0h.1,0Z"/><path class="cls-38" d="m195.3,195.8v-1.7h10c.4,0,.6,0,.8-.4.7-1.2,2.3-1.7,3.6-.9,1,.6,1.5,1.7,1.2,2.8-.2.9-.9,1.6-1.8,1.9-1.1.3-2.3-.2-2.9-1.2-.2-.4-.4-.4-.8-.4h-10.1Zm13-1.7c-.5,0-.9.4-.9.9s.4.9.9.9.9-.4.9-.9h0c0-.5-.4-.8-.8-.8,0,0,0,0,0,0h0Z"/><path class="cls-9" d="m214.4,202.7c0,.6-.3.9-.8.9h-2.2c-.3,0-.5,0-.5-.4v-2.6c0-.4.1-.5.5-.4h2.4c.5,0,.7.1.6.6v1.9Z"/><path class="cls-9" d="m219.6,200.1h1.4c.3,0,.4,0,.4.4v2.8c0,.3-.1.4-.4.4h-2.2c-.4,0-.8-.2-.9-.7,0,0,0-.1,0-.2v-1.7c0-.4.2-.8.7-.9,0,0,.1,0,.2,0h.9,0Z"/><path class="cls-44" d="m193.6,185.4h-1.7v-4c0-.3,0-.4.4-.4q1.4,0,1.4,1.3v3h0Z"/><path class="cls-44" d="m179.7,187.1v1.7h-3.9c-.3,0-.4,0-.4-.4q0-1.4,1.3-1.4h3,0Z"/><path class="cls-44" d="m195.3,188.8v-1.7h3.9c.3,0,.4,0,.4.4q0,1.4-1.3,1.4h-3,0Z"/><path class="cls-44" d="m179.7,190.6v1.7h-3.9c-.3,0-.4,0-.4-.4q0-1.4,1.3-1.4h3,0Z"/><path class="cls-44" d="m195.3,192.3v-1.7h3.9c.3,0,.4,0,.4.4q0,1.4-1.3,1.4h-3,0Z"/><path class="cls-44" d="m179.7,194.1v1.7h-3.9c-.3,0-.4,0-.4-.4q0-1.4,1.3-1.4h3,0Z"/><path class="cls-44" d="m179.7,197.5v1.7h-3.9c-.3,0-.4,0-.4-.4q0-1.4,1.3-1.4h3,0Z"/><path class="cls-44" d="m183.2,185.4h-1.7v-4c0-.3,0-.4.4-.4q1.4,0,1.4,1.3v3h0Z"/><path class="cls-44" d="m186.7,185.4h-1.7v-4c0-.3,0-.4.4-.4q1.4,0,1.4,1.3v3h0Z"/><path class="cls-44" d="m181.5,201h1.7v4.3h-1.7v-4.3Z"/><path class="cls-44" d="m190.1,185.4h-1.7v-4c0-.3,0-.4.4-.4q1.4,0,1.4,1.3v3h0Z"/><path class="cls-44" d="m217.9,201v1.7h-3.5v-1.7h3.5Z"/><path class="cls-30" d="m195.3,199.2h7.2c.5,0,.6.2.6.6v2.6c0,.2,0,.4-.3.5-.9.4-1.5,1.3-1.5,2.3h-7.8v-4.3h1.4c.3,0,.4,0,.3-.4v-1.4h.1Z"/><path class="cls-30" d="m183.2,205.3v-4.3h1.8v4.3h-1.8Z"/><path class="cls-44" d="m185,205.3v-4.3h1.7v4.3h-1.7Z"/><path class="cls-30" d="m186.7,205.3v-4.3h1.8v4.3h-1.8Z"/><path class="cls-44" d="m188.4,205.3v-4.3h1.7v4.3h-1.7Z"/><path class="cls-44" d="m193.6,201v4.3h-1.7v-4.3h1.7Z"/><path class="cls-30" d="m191.9,201v4.3h-1.8v-4.3h1.8Z"/><path class="cls-47" d="m217,193.2c-.5,0-.9-.4-.9-.9s.4-.9.9-.9.9.4.9.9h0c0,.5-.4.8-.8.8,0,0,0,0,0,0h0Z"/><path class="cls-47" d="m204,181.9c.5,0,.9.4.9.9s-.4.9-.9.9-.9-.4-.9-.9h0c0-.4.3-.8.7-.8,0,0,.1,0,.2,0h0Z"/><path class="cls-65" d="m183.2,195.8v-6.5c0-.3,0-.4.4-.4h6.5v4.1c.1,1.4-1,2.7-2.4,2.8-.1,0-.2,0-.4,0h-4.1Z"/><path class="cls-16" d="m183.2,195.8h4.1c1.4.1,2.7-1,2.8-2.4,0-.1,0-.2,0-.4v-4.1c.6,0,1.3-.2,1.6,0s.1,1,.1,1.6v6.5c0,.4-.1.5-.5.5h-7.7c-.3,0-.5,0-.5-.4v-1.3h0Z"/><path class="cls-47" d="m204.9,205.3c0,.5-.3.9-.8.9-.5,0-.9-.3-.9-.8,0-.5.3-.9.8-.9h0c.5,0,.9.3.9.8Z"/><path class="cls-47" d="m208.3,194c.5,0,.9.4.9.9s-.4.9-.9.9-.9-.4-.9-.9h0c0-.5.4-.9.9-.9Z"/><circle class="cls-1" cx="110" cy="80.3" r="45"/><path class="cls-10" d="m88.4,113l-1.8-1.8c-.2-.2-.3-.4-.3-.7v-38.2c0-.3,0-.7.3-.9.9-1,1.9-1.9,2.8-2.9.2-.2.4-.3.6-.3h37.8c.2,0,.4,0,.5.2l1.8,1.8v38.7c0,.3-.1.7-.4.9-.8.8-1.6,1.7-2.4,2.5-.2.3-.6.5-1,.5h-37.4c-.2,0-.4,0-.6,0h.1Zm13.7-4.5h2.5v1.9q0,1.1,1.1,1.1c.3,0,.4,0,.4-.4v-2.6h2.5v1.9q0,1.1,1.1,1.1c.3,0,.4,0,.4-.4v-2.6h2.5v1.9q0,1.1,1.1,1.1c.3,0,.4,0,.4-.4v-2.7h2.5v2q0,1.1,1.1,1.1c.4,0,.5,0,.5-.5v-2.6h2.5v1.9q0,1.2,1.2,1.1c.3,0,.4,0,.4-.4v-2.6h2.5v1.9q0,1.2,1.2,1.1c.3,0,.4,0,.4-.4v-2.6c.2,0,.4,0,.4-.3h1.8q1.1,0,1.1-1.1c0-.3-.1-.4-.4-.4h-2.5v-2.5h1.8q1.1,0,1.1-1.1c0-1.1-.1-.5-.4-.5h-2.5v-2.5h1.8c1.3,0,1.1.2,1.1-1.1s0-.4-.4-.4h-2.5v-2.5h1.8c1.3,0,1.1.2,1.1-1.1s-.1-.4-.4-.4h-2.5v-2.5h1.8c1.3,0,1.1.2,1.1-1.1s-.1-.4-.4-.4h-2.5v-2.5h1.8q1.2,0,1.1-1.2c0-.3-.1-.3-.4-.3h-2.6v-2.5h1.8q1.2,0,1.1-1.2c0-.3-.1-.3-.4-.3h-2.6v-2.5h1.8q1.2,0,1.1-1.2c0-.3-.1-.3-.4-.3h-2.6v-2.5h1.8q1.2,0,1.1-1.2c0-.3-.1-.3-.4-.3h-2.6c0-.3-.1-.4-.4-.4v-1.8q0-1.2-1.2-1.1c-.3,0-.3,0-.3.4v2.6h-2.5v-1.8q0-1.2-1.2-1.1c-.3,0-.3,0-.3.4v2.6h-2.5v-1.8q0-1.2-1.2-1.1c-.3,0-.3,0-.3.4v2.6h-2.5v-1.8q0-1.2-1.2-1.1c-.3,0-.3,0-.3.4v2.6h-2.5v-1.8q0-1.2-1.2-1.1c-.3,0-.3,0-.3.4v2.6h-2.5v-1.9q0-1.2-1.2-1.1c-.3,0-.3,0-.3.4v2.6h-2.5v-1.9q0-1.2-1.2-1.1c-.3,0-.3,0-.3.4v2.6h-2.5v-1.9c0-1.2,0-1.1-1.2-1.1s-.3,0-.3.4v2.6h-2.5v-1.9c0-1.2,0-1.1-1.2-1.1s-.3,0-.3.4v2.6h-.6c-.3,0-.4,0-.4.4h-1.2q-1.2,0-1.1,1.2c0,.1,0,.3.2.3,0,0,0,0,0,0h2v2.5h-1.2q-1.2,0-1.1,1.2c0,.1,0,.3.2.3,0,0,0,0,0,0h2v2.5h-1.2q-1.2,0-1.1,1.2c0,.1,0,.3.2.3,0,0,0,0,0,0h2v2.5h-1.2q-1.2,0-1.1,1.2c0,.3.1.3.3.3h2v2.5h-1.2q-1.2,0-1.2,1.2c0,.2,0,.3.3.3h2v2.5h-1.2q-1.2,0-1.2,1.2c0,.3.1.3.4.3h1.9v2.5h-1.2q-1.2,0-1.2,1.2c0,.3.1.3.4.3h1.9v2.5h-1.2q-1.2,0-1.1,1.2c0,.3.1.3.4.3h1.9v2.5h-1.2q-1.2,0-1.1,1.2c0,.3.1.3.4.3h1.9c0,.2,0,.3.3.3h.7v1.9q0,1.2,1.2,1.1c.3,0,.3,0,.3-.4v-2.7h2.5v1.9q0,1.2,1.2,1.1c.3,0,.3,0,.3-.4v-2.7h2.5v1.9q0,1.1,1.1,1.1c.3,0,.4,0,.4-.4v-2.6h.4Z"/><path class="cls-11" d="m88.4,113c.2-.2.4,0,.6,0h37.4c.4,0,.8-.2,1-.5.8-.9,1.6-1.7,2.4-2.5.3-.2.4-.6.4-.9v-38.7c.5.4.9.9,1.4,1.3.2.2.1.4.1.6v38.4c0,.3,0,.6-.3.8-.9.9-1.8,1.9-2.6,2.8-.2.2-.4.3-.6.3h-38c-.2,0-.4,0-.6-.2-.4-.4-.8-.8-1.1-1.2h0Z"/><path class="cls-12" d="m122.1,74.2h2.9v8.7c.1,3.7,0,7.5-.2,11.2-.2,1.7-.5,3.4-1.1,5-.2.6-.5,1.2-.9,1.8v-21.6c0-.5.2-1.1,0-1.3s-.9,0-1.4,0h-25.5c-.4,0-.5,0-.5.5v25.8c0,.4.1.5.5.5h23.1c-.5.2-.9.5-1.4.7-2.5,1-5.2,1.5-7.9,1.5h-18v-32.3c0-.3,0-.4.4-.4h30.1-.1Z"/><path class="cls-18" d="m91.6,106.9h18c2.7,0,5.4-.5,7.9-1.5.5-.2.9-.5,1.4-.7h3.5c.3,0,.4,0,.4-.4v-3.4c.4-.5.7-1.1.9-1.8.6-1.6,1-3.3,1.1-5,.3-3.7.1-7.5.2-11.2v-8.7h1.1c.3,0,.4,0,.4.4v33.5c0,.3-.2.3-.4.3h-34.2c-.2,0-.3,0-.3-.3v-1.2Z"/><path class="cls-35" d="m120.5,108.4h1.5v2.6c0,.3,0,.4-.4.4q-1.2,0-1.2-1.1v-1.9h0Z"/><path class="cls-26" d="m116.5,108.4h1.5v2.6c0,.3,0,.5-.5.5q-1.1,0-1.1-1.1v-1.9h.1Z"/><path class="cls-26" d="m124.5,108.4h1.5v2.6c0,.3,0,.4-.4.4q-1.2,0-1.2-1.1v-1.9h0Z"/><path class="cls-26" d="m118.1,74.2h-1.5v-2.6c0-.2,0-.4.3-.4q1.2,0,1.2,1.1v1.9Z"/><path class="cls-35" d="m122.1,74.2h-1.5v-2.6c0-.2,0-.3.3-.4q1.2,0,1.2,1.1v1.9Z"/><path class="cls-26" d="m126.1,74.2h-1.5v-2.6c0-.2,0-.3.3-.4q1.2,0,1.2,1.1v1.9Z"/><path class="cls-26" d="m126.5,100.1v-1.5h2.5c.3,0,.4,0,.4.4,0,1.4.2,1.1-1.1,1.1h-1.8Z"/><path class="cls-26" d="m126.5,92.1v-1.5h2.5c.3,0,.4,0,.4.4,0,1.4.2,1.1-1.1,1.1h-1.8Z"/><path class="cls-26" d="m126.5,96.1v-1.5h2.5c.3,0,.4,0,.4.4,0,1.4.2,1.1-1.1,1.1h-1.8Z"/><path class="cls-26" d="m126.5,104.1v-1.5h2.5c.3,0,.4,0,.4.5q0,1.1-1.1,1.1h-1.8,0Z"/><path class="cls-59" d="m92.6,108.4h1.5v2.7c0,.2,0,.4-.3.4q-1.2,0-1.2-1.1v-2Z"/><path class="cls-59" d="m96.6,108.4h1.5v2.7c0,.2,0,.4-.3.4q-1.2,0-1.2-1.1v-2Z"/><path class="cls-59" d="m104.6,108.4h1.5v2.6c0,.3,0,.4-.4.4q-1.1,0-1.1-1.1v-1.9Z"/><path class="cls-26" d="m108.5,108.4h1.5v2.6c0,.3,0,.4-.4.4q-1.1,0-1.1-1.1v-1.9Z"/><path class="cls-26" d="m112.5,108.4h1.5v2.7c0,.3,0,.4-.4.4q-1.1,0-1.1-1.1v-2Z"/><path class="cls-59" d="m100.6,108.4h1.5v2.6c0,.3,0,.4-.4.4q-1.1,0-1.1-1.1v-1.9Z"/><path class="cls-26" d="m126.5,88.1v-1.5h2.6c.2,0,.3,0,.4.3q0,1.2-1.1,1.2h-1.9Z"/><path class="cls-59" d="m126.5,80.1v-1.5h2.6c.2,0,.3,0,.4.3q0,1.2-1.1,1.2h-1.9Z"/><path class="cls-59" d="m126.5,84.1v-1.5h2.6c.2,0,.3,0,.4.3q0,1.2-1.1,1.2h-1.9Z"/><path class="cls-59" d="m126.5,76.1v-1.5h2.6c.2,0,.3,0,.4.3q0,1.2-1.1,1.2h-1.9Z"/><path class="cls-26" d="m114,74.2h-1.5v-2.6c0-.2,0-.4.3-.4q1.2,0,1.2,1.1v1.9Z"/><path class="cls-59" d="m106,74.2h-1.5v-2.6c0-.2,0-.4.3-.4q1.2,0,1.2,1.1v1.9Z"/><path class="cls-26" d="m126.5,108.1v-1.5h2.5c.3,0,.4,0,.4.4q0,1.1-1.1,1.1h-1.8Z"/><path class="cls-59" d="m110,74.2h-1.5v-2.6c0-.2,0-.3.3-.4q1.2,0,1.2,1.1v1.9Z"/><path class="cls-59" d="m102,74.2h-1.5v-2.6c0-.2,0-.4.3-.4q1.2,0,1.2,1.1v1.9Z"/><path class="cls-13" d="m98,74.2h-1.5v-2.6c0-.2,0-.4.3-.4q1.2,0,1.2,1.1v1.9Z"/><path class="cls-13" d="m94,74.2h-1.5v-2.6c0-.2,0-.4.3-.4q1.2,0,1.2,1.1v1.9Z"/><path class="cls-26" d="m91.5,94.6v1.5h-1.9c-.2,0-.4,0-.4-.3q0-1.2,1.2-1.2h1.1,0Z"/><path class="cls-26" d="m91.5,98.6v1.5h-1.9c-.2,0-.4,0-.4-.3q0-1.2,1.2-1.2h1.1,0Z"/><path class="cls-26" d="m91.5,102.6v1.5h-1.9c-.2,0-.4,0-.4-.3q0-1.2,1.1-1.2h1.2Z"/><path class="cls-26" d="m91.5,90.6v1.5c-.7,0-1.3,0-2,0-.2,0-.3,0-.3-.3q0-1.2,1.2-1.2h1.1Z"/><path class="cls-59" d="m91.5,82.6v1.5h-2c-.2,0-.3,0-.3-.3q0-1.2,1.1-1.2h1.2Z"/><path class="cls-59" d="m91.5,78.6v1.5h-2c-.2,0-.3,0-.3-.3q0-1.2,1.1-1.2h1.2Z"/><path class="cls-13" d="m91.5,74.6v1.5h-2c-.2,0-.3,0-.3-.3q0-1.2,1.1-1.2h1.2Z"/><path class="cls-59" d="m91.5,86.6v1.5h-2c-.2,0-.3,0-.3-.3q0-1.2,1.1-1.2h1.2Z"/><path class="cls-26" d="m91.6,106.9v1.2h-2c-.2,0-.3,0-.4-.3q0-1.2,1.1-1.2h1.2v.3h0Z"/><path class="cls-13" d="m95.3,103.2v-24.8c0-.4.1-.5.5-.5h25.5v4.5c0,3.2.1,6.5,0,9.7,0,1.3-.4,2.6-.9,3.8-.7,1.8-1.8,3.4-3.3,4.6-2.3,1.7-5.2,2.6-8.1,2.6h-13.7Zm14.4-5.2h2.2v2.7q0,1.1,1.1,1.1c.3,0,.4,0,.4-.4v-3.4h2.3c.3,0,.4,0,.4-.4v-1.8h2.2q1.1,0,1.1-1.1c0-.3-.1-.4-.4-.4h-2.9v-2.2h2.2q1.1,0,1.1-1.1c0-.3-.1-.4-.4-.4h-2.9v-2.2h2.2q1.1,0,1.1-1.1c0-.3-.1-.4-.4-.4h-2.9v-1.9c0-.3,0-.4-.3-.4h-2.4v-2.6q0-1.1-1.1-1.1c-.3,0-.4,0-.4.4v3.3h-2.2v-2.6q0-1.1-1.1-1.1c-.3,0-.4,0-.4.4v3.3h-2.2v-2.6q0-1.1-1.1-1.1c-.3,0-.4,0-.4.4v3.3h-2.1c-.3,0-.4,0-.4.4v1.9h-2.3q-1.1,0-1.1,1.1c0,.3.1.4.4.4h3.1v2.2h-2.3q-1.1,0-1.1,1.1c0,.3.1.4.4.4h3.1v2.2h-2.3q-1.1,0-1.1,1.1c0,.3.1.4.4.4h3.1v1.9q0,.3.4.3h2.2v2.7q0,1.1,1.1,1.1c.3,0,.4,0,.4-.4v-3.4h2.2v2.7q0,1.1,1.1,1.1c.3,0,.4,0,.4-.4v-3.4h-.4Z"/><path class="cls-20" d="m95.3,103.2h13.6c2.9,0,5.8-.8,8.1-2.6,1.5-1.2,2.7-2.8,3.3-4.6.5-1.2.8-2.5.9-3.8.2-3.2,0-6.5,0-9.7v-4.5c.5,0,1.1-.2,1.4,0s0,.9,0,1.3v25c0,.3,0,.4-.4.4h-26.6c-.4,0-.6,0-.5-.5v-1h.2Z"/><path class="cls-53" d="m101.9,86.9v-1.9c0-.3,0-.4.4-.4h12.2c0,2.4.1,4.8-.1,7.1,0,1.1-.6,2.2-1.4,3v-6.8c0-.3,0-.5-.4-.4h-7.4q-.3,0-.3.3v6.6c0,.4.1.5.5.5h7.4c0,.2-.2.3-.4.4-1,.8-2.3,1.1-3.6,1.1h-6.8v-9.6h-.1Z"/><path class="cls-23" d="m102,96.5h6.8c1.3,0,2.6-.3,3.6-1.1.2,0,.3-.2.4-.4.1,0,.2-.2.3-.3.8-.8,1.3-1.9,1.4-3,.2-2.4,0-4.7.1-7.1h1.2c.3,0,.3,0,.3.4v12.6c0,.3-.1.4-.4.4h-13.4c-.3,0-.4,0-.4-.3v-1.2h0Z"/><path class="cls-21" d="m111.9,98h1.5v3.4c0,.3,0,.4-.4.4q-1.1,0-1.1-1.1v-2.7Z"/><path class="cls-51" d="m108.2,98h1.5v3.4c0,.3,0,.4-.4.4q-1.1,0-1.1-1.1v-2.7Z"/><path class="cls-21" d="m104.5,98h1.5v3.4c0,.3,0,.4-.4.4q-1.1,0-1.1-1.1v-2.7Z"/><path class="cls-21" d="m105.9,84.6h-1.5v-3.3c0-.3,0-.4.4-.4q1.1,0,1.1,1.1v2.6Z"/><path class="cls-21" d="m109.7,84.6h-1.5v-3.3c0-.3,0-.4.4-.4q1.1,0,1.1,1.1v2.6Z"/><path class="cls-12" d="m113.4,84.6h-1.5v-3.3c0-.3,0-.4.4-.4q1.1,0,1.1,1.1v2.6Z"/><path class="cls-12" d="m101.9,94.3v1.5h-3.1c-.3,0-.4,0-.4-.4q0-1.1,1.1-1.1h2.4Z"/><path class="cls-12" d="m101.9,90.6v1.5h-3.1c-.3,0-.4,0-.4-.4q0-1.1,1.1-1.1h2.4Z"/><path class="cls-21" d="m101.9,86.9v1.5h-3.1c-.3,0-.4,0-.4-.4q0-1.1,1.1-1.1h2.4Z"/><path class="cls-51" d="m116.1,92.1v-1.5h2.9c.3,0,.4,0,.4.4q0,1.1-1.1,1.1h-2.2Z"/><path class="cls-51" d="m116.1,88.4v-1.5h2.9c.3,0,.4,0,.4.4q0,1.1-1.1,1.1h-2.2Z"/><path class="cls-12" d="m116.1,95.8v-1.5h2.9c.3,0,.4,0,.4.4q0,1.1-1.1,1.1h-2.2Z"/><path class="cls-28" d="m104.9,93.6v-5.6q0-.3.3-.3h6.3v3.1c0,.6-.1,1.1-.5,1.6-.6.8-1.6,1.3-2.6,1.2h-3.5Z"/><path class="cls-29" d="m104.9,93.6h3.6c1,0,2-.4,2.6-1.2.3-.5.5-1,.5-1.6v-3.1h1.1c.4,0,.4,0,.4.4v6.8c0,0-.2.2-.3.3h-7.4c-.4,0-.6,0-.5-.5v-1.1h0Z"/><path d="m85.2,57.3c-2.1-3.1-1.2-7.2,1.8-9.3.1,0,.2-.2.4-.2,1.9-1.3,4.4-1.4,6.5-.4l-1.4,2.7c-1.1-.6-2.5-.5-3.5.2-1.8.9-2.4,3.1-1.5,4.9,0,.2.2.3.3.5.9,1.8,3.1,2.5,4.9,1.6.2,0,.3-.2.5-.3,1.1-.6,1.8-1.8,1.8-3h3c0,2.3-1.3,4.3-3.2,5.5-3.1,2-7.3,1.2-9.3-1.9,0,0-.1-.2-.2-.3h-.1Z"/><path d="m107.9,49.1l1.1,5.7-2.8.5-1-5.3c0-.8-.7-1.5-1.5-1.5-.1,0-.3,0-.4,0-.9.1-1.6,1-1.5,1.9,0,0,0,.2,0,.3l.9,5.1-2.8.5-2.4-13.1,2.8-.5.9,4.6c.5-.9,1.5-1.5,2.5-1.6,1.9-.4,3.7.7,4.2,3.2h-.1Z"/><path d="m110.7,45.6l2.8.2-.5,9.5-2.8-.2.5-9.5Zm-.1-2.6c0-.9.9-1.7,1.8-1.6.9,0,1.7.9,1.6,1.8,0,.9-.9,1.6-1.8,1.6-.9,0-1.6-.8-1.6-1.8,0,0,0,0,0,0h0Z"/><path d="m125.6,53.6c-.6,2.5-3.2,4.1-5.7,3.4,0,0,0,0-.1,0-1.1-.3-1.9-1-2.4-2l-1.4,4.5-2.7-.9,4-12.7,2.7.9-.3.9c.9-.5,2-.6,3-.3,2.4.8,3.7,3.5,2.9,5.9,0,0,0,.1,0,.2h0Zm-2.7-.9c.4-1.1-.1-2.4-1.2-2.8,0,0-.2,0-.3,0-1.1-.4-2.3.1-2.7,1.2,0,0,0,.2,0,.3-.4,1.1.1,2.4,1.2,2.8,0,0,.2,0,.3,0,1.2.4,2.4-.2,2.9-1.4,0,0,0,0,0-.1h0Z"/><path d="m132.2,60.5c-1.2,1.8-3.3,1.5-5,.3-1.5-.9-2.3-2.5-2.1-4.2l2.8.3c-.2.7,0,1.5.7,1.8.6.4,1,.4,1.2,0,.6-.9-3.5-3.1-1.7-5.8,1.2-1.7,3.2-1.6,4.8-.4,1.3.8,2,2.3,1.9,3.8l-2.7-.3c0-.6,0-1.1-.6-1.4-.4-.3-.8-.3-1,0-.6.9,3.6,3,1.6,5.9h.1Z"/><circle class="cls-2" cx="294" cy="80.3" r="45"/><path class="cls-14" d="m308.6,68c3.8-.3,7.5,3.6,7.4,7.4-.1,3.8,0,7.8,0,11.7v21.1c0,.8-.2,1.7-.7,2.3h-10.8c-.9,0-1.9,0-2.8-.2-6.4-.9-12.3-3.9-16.8-8.5h18c2.8,0,2.9-.1,2.9-2.9v-2.9h4.6c.6,0,1.1-.3,1.2-.9,0-.1,0-.3,0-.4v-6.7c0-.6-.2-.8-.8-.8h-5.1v-4.2c.1-.8-.4-1.6-1.2-1.7-.2,0-.3,0-.5,0h-22.3c-2.1,0-2.4.3-2.4,2.3v10.5l-.2-.2c-1.8-3.9-2.7-8.1-2.7-12.4v-12.6c.8-.8,1.9-.7,3-.7h29.2v-.2Z"/><path class="cls-17" d="m284.8,101.8c2.4,2.7,5.4,4.8,8.8,6.2,2.5,1.2,5.2,1.9,8,2.3.9.1,1.9.2,2.8.2h10.8c-.8,2.3-2.7,3.5-4.9,4.2-.5.2-1.1.3-1.7.2h-29.3c-4,0-7.3-3.3-7.3-7.3,0,0,0,0,0,0v-29.1c-.1-1.5,0-3,.2-4.5.6-2.3,1.8-4.2,4.2-5v12.6c0,4.3.9,8.5,2.7,12.4l.2.2v6c-.1.8.4,1.6,1.2,1.7.2,0,.3,0,.5,0h3.8Z"/><path class="cls-39" d="m282.3,81.3h17.6c-1,2.4-2,4.7-3,7.1-1.4,3.4-2.9,6.8-4.3,10.2l-.3.4c-.7-.3-1.4-.3-2.1-.2-4.1.2-7.6-3-7.8-7.1,0-.2,0-.5,0-.7v-9.8h0Z"/><path class="cls-25" d="m292.5,98.6c1.4-3.4,2.9-6.8,4.3-10.2,1-2.4,2-4.7,3-7.1h4.2c1.2,0,1.7.5,1.7,1.7v15.9h-12.2c-.3,0-.7.1-1-.2h0Z"/><path class="cls-36" d="m282.3,81.3v9.8c-.2,4.1,3,7.6,7.1,7.8.2,0,.5,0,.7,0,.7,0,1.5-.2,2.1.2-.3.9-.7,1.8-1,2.7h-10.1c-.8.1-1.6-.4-1.7-1.2,0-.2,0-.3,0-.5v-16.5c0-2,.3-2.4,2.4-2.3h.5Z"/><path class="cls-52" d="m291.2,101.7c.3-.9.7-1.8,1-2.7.1-.1.2-.3.3-.4.3.3.7.2,1,.2h12.2c0,2.8,0,2.9-2.9,2.9h-11.6Z"/><path class="cls-25" d="m307.2,87.1h3.6c.6,0,.8.2.8.8v6.5c-2.3.1-4.3-1.7-4.4-4,0-.2,0-.3,0-.5,0-.9,0-1.9,0-2.8Z"/><path class="cls-52" d="m307.2,87.1v2.8c-.2,2.3,1.6,4.3,3.9,4.5.2,0,.3,0,.5,0v.2c0,.9-.4,1.3-1.2,1.3h-4.6v-8.8h1.4Z"/><path d="m253.5,78.2l.7-2.4,7.6.3-6.5-4,.5-1.9h7.6l-6.6-3.7.7-2.4,9.3,5.6-.7,2.6h-6.4l5.5,3.3-.7,2.6h-11Z"/><path d="m266.2,57.2l6.1,4.4-1.3,1.8-.6-.4c.2.8,0,1.7-.6,2.4-1.3,1.6-3.6,1.9-5.3.6,0,0,0,0,0,0-1.7-1.1-2.3-3.4-1.2-5.1,0,0,0,0,0,0,.5-.7,1.2-1.2,2-1.3l-.6-.4,1.3-1.8h.1Zm1.7,4c-.7-.6-1.7-.6-2.3.1,0,0-.2.2-.2.3-.6.7-.5,1.7.2,2.3,0,0,.2.1.3.2.7.6,1.7.6,2.3-.1,0,0,.2-.2.2-.3.6-.7.5-1.7-.2-2.3,0,0-.2-.1-.3-.2Z"/><path d="m271.8,55l1.8,2c.4.5.9.2,1.6-.5l1.3,1.5c-2,2.2-3.2,2.1-4.6.5l-1.8-2-.9.8-1.4-1.6.9-.8-.9-1.1,1.2-2,1.4,1.6,1.2-1,1.4,1.6-1.2,1Z"/><path d="m274.7,54.6c-1-2-.3-4.4,1.7-5.4,1.2-.6,2.6-.6,3.7,0l-1.1,2c-.5-.3-1.2-.3-1.7,0-.8.5-1.1,1.6-.6,2.4.4.8,1.5,1.1,2.3.7h0c.6-.3.9-.9.8-1.5h2.3c0,1.4-.8,2.7-2,3.4-1.8,1.1-4.2.5-5.4-1.3,0,0,0,0,0,0v-.2Z"/><path d="m289,47.7l1.2,4.4-2.2.6-1.1-4.1c0-.7-.7-1.1-1.3-1.1,0,0-.2,0-.3,0-.8.2-1.2.8-.9,1.9l1.1,3.9-2.2.6-2.8-10.1,2.2-.6,1,3.6c.4-.7,1-1.3,1.8-1.5,1.5-.4,3,.4,3.4,1.9,0,.1,0,.2,0,.3h0Z"/><path d="m303,48.9c-.2,2.1-1.9,3.6-4,3.5-.9,0-1.6-.5-2.1-1.2v.7l-2.3-.3,1.2-10.4,2.2.3-.4,3.7c.6-.6,1.5-.8,2.3-.7,2,.3,3.4,2.1,3.1,4.1,0,0,0,.1,0,.2h0Zm-2.2-.3c.2-.9-.4-1.8-1.4-2,0,0-.2,0-.2,0-.9-.1-1.8.5-2,1.5,0,0,0,0,0,.1-.2.9.4,1.8,1.4,2,0,0,.2,0,.2,0,.9.1,1.8-.5,2-1.5,0,0,0,0,0-.1Z"/><path d="m313.1,49l-2.9,6.9-2.1-.9.3-.6c-.8.4-1.6.4-2.4,0-1.8-.9-2.6-3.1-1.8-5,.7-1.9,2.8-2.9,4.7-2.2,0,0,0,0,0,0,.8.3,1.4.9,1.7,1.7l.3-.6,2.1.9v-.2Zm-3.5,2.6c.4-.9,0-2-.9-2.4,0,0,0,0,0,0-.9-.4-2,0-2.4,1,0,0,0,0,0,0-.4.9,0,2,.9,2.4,0,0,0,0,0,0,.9.4,2,0,2.4-1,0,0,0,0,0,0Z"/><path d="m316.5,53.9l-1.6,2.1c-.4.5,0,.9.9,1.4l-1.2,1.6c-2.5-1.5-2.7-2.7-1.5-4.4l1.6-2.1-1-.7,1.3-1.7,1,.7.8-1.1,2.2.8-1.2,1.7,1.2.9-1.3,1.7-1.2-.9Z"/><path d="m320.8,57.9l-1.9,1.9c-.5.5-.1.9.6,1.6l-1.5,1.4c-2.3-1.9-2.2-3.1-.7-4.6l1.9-1.9-.8-.9,1.5-1.5.8.9,1-1,2.1,1.1-1.5,1.5,1.1,1.1-1.5,1.5-1.1-1.1Z"/><path d="m322.1,65.4c.3.5.8.8,1.3.9v2.1c-1.3,0-2.4-.8-3-1.9-1.3-1.7-1-4,.7-5.3.1,0,.3-.2.4-.3,1.8-1.2,4.2-.7,5.4,1.1,0,0,0,.1.1.2,1.1,1.7.7,4-1.1,5.2,0,0-.2.1-.2.1-.2.2-.5.3-.8.4l-2.8-4.5c-.5.6-.5,1.5,0,2.1h0Zm3-.3c.5-.5.6-1.4.2-2-.4-.7-1.2-1-1.9-.7l1.7,2.7Z"/><path d="m331.4,71.8l-2.4.9c-.1-1-1-1.7-2-1.6-.1,0-.3,0-.4,0l-3.2,1.2-.8-2.1,7.1-2.6.8,2.1-1.3.5c1,0,1.9.7,2.2,1.6h0Z"/><path d="m332.8,81.1l-7.6-1.5c-2.5-.5-3.6-1.7-3.8-3.8l2.1-.3c0,.9.6,1.6,1.5,1.7l6.7-3.9.3,2.5-4.3,2.3,4.7.8.3,2.4v-.2Z"/><circle class="cls-2" cx="65" cy="181.6" r="45"/><path class="cls-34" d="m40.2,172.9v-7.4c0-.3,0-.4.4-.4h11.1v2.2q0,.8.8.8h24.9c.5,0,.6-.2.6-.6v-2.4h11.3c.1.2.2.4.2.6v6.8c0,.3-.2.6-.4.6,0,0-.1,0-.2,0h-1.4c-1.1.3-1.7,1.4-1.4,2.4.2.7.8,1.3,1.5,1.5h1.4q.6,0,.6.7v24.3c0,.6,0,.7-.7.7h-1.4c-1.1,0-1.9.9-1.9,2,0,1,.9,1.9,1.9,1.9h1.4c.6,0,.7,0,.7.7v6.6c0,.2,0,.5-.2.6h-11.3v-2.4c0-.3-.2-.6-.4-.6,0,0-.1,0-.2,0h-25.2c-.5,0-.6.2-.6.6v2.4h-11.1c-.3,0-.4,0-.4-.4v-7.6h2c1,0,1.9-.9,1.9-1.9,0-1.1-.8-2-1.8-2,0,0,0,0,0,0h-1.4c-.2,0-.5,0-.6-.2v-25.3c.2-.1.4-.2.6-.2h1.4c1.1,0,2-1,1.9-2.1,0,0,0,0,0,0,0-1-.8-1.8-1.8-1.9h-1.4c-.2,0-.5,0-.6-.2v.2Zm40.6,19.3h1.8c.6,0,.8-.3.8-.7,0-.4-.3-.7-.7-.7,0,0,0,0,0,0h-1.8v-1.7h1.8c.6,0,.9-.3.9-.7s-.3-.7-.9-.7h-1.8v-1.7h1.8c.4,0,.8-.2.8-.6s-.2-.8-.6-.8c0,0-.2,0-.2,0h-1.8v-1.7h1.8c.6,0,.8-.3.8-.7,0-.4-.3-.7-.7-.7,0,0,0,0,0,0h-1.8v-1.7h1.8c.6,0,.8-.3.8-.7,0-.4-.3-.7-.7-.7,0,0,0,0,0,0h-1.8v-1.7h1.8c.6,0,.9-.3.9-.7s-.3-.7-.9-.7h-1.8c0-1.3,0-1.2-1.2-1.2v-1.8c0-.6-.3-.8-.7-.8-.4,0-.7.3-.7.7,0,0,0,0,0,0v1.8h-1.7v-1.8c0-.6-.3-.9-.7-.9s-.7.3-.7.9v1.8h-1.7v-1.8c0-.6-.3-.9-.7-.9s-.7.3-.7.9v1.8h-1.7v-1.8c0-.6-.3-.9-.7-.9s-.7.3-.7.9v1.8h-1.7v-1.8c0-.6-.3-.9-.7-.9-.4,0-.7.3-.7.7,0,0,0,0,0,0v1.8h-1.7v-1.8c0-.6-.3-.9-.7-.9s-.7.3-.7.9v1.8h-1.7v-1.8c0-.6-.3-.9-.7-.9s-.7.3-.7.9v1.8h-1.7v-1.8c0-.6-.3-.9-.7-.9s-.7.3-.7.9v1.8h-1.7v-1.8c0-.6-.3-.9-.7-.9s-.7.3-.7.9v1.8h-1.7v-1.8c0-.6-.3-.9-.7-.9s-.7.3-.7.9v1.8c-1.2,0-1.1,0-1.1,1.2h-1.8c-.6,0-.9.3-.8.7,0,.4.4.7.8.7h1.8v1.7h-1.8c-.6,0-.9.3-.9.7s.3.7.9.7h1.8v1.7h-1.8c-.6,0-.9.3-.9.7s.3.7.9.7h1.8v1.7h-1.9c-.4,0-.8.3-.9.7,0,.4.3.7.9.7h1.9v1.7h-1.8c-.6,0-.8.3-.8.7,0,.4.3.7.7.7,0,0,0,0,0,0h1.8v1.7h-1.8c-.6,0-.9.3-.9.7s.3.7.9.7h1.8v1.7h-1.8c-.6,0-.9.3-.9.7s.3.7.9.7h1.8v1.7h-1.8c-.6,0-.8.3-.8.7,0,.4.3.7.7.7,0,0,0,0,0,0h1.8v1.7h-1.8c-.6,0-.8.3-.8.7,0,.4.3.7.7.7,0,0,0,0,0,0h1.8v1.7h-1.8c-.6,0-.9.3-.9.7s.3.7.9.7h1.8c0,1.2,0,1.1,1.2,1.2v1.8c0,.6.3.8.7.8.4,0,.7-.3.7-.7,0,0,0,0,0,0v-1.8h1.7v1.8c0,.6.3.9.7.9s.7-.3.7-.9v-1.8h1.7v1.8c0,.6.3.9.7.9s.7-.3.7-.9v-1.8h1.7v1.8c0,.6.3.8.7.8.4,0,.7-.3.7-.7,0,0,0,0,0,0v-1.8h1.7v1.8c0,.6.3.8.7.8.4,0,.7-.3.7-.7,0,0,0,0,0,0v-1.8h1.7v1.8c0,.6.3.9.7.9s.7-.3.7-.9v-1.8h1.7v1.8c0,.6.3.8.7.8.4,0,.7-.3.7-.7,0,0,0,0,0,0v-1.8h1.7v1.8c0,.6.3.8.7.8.4,0,.7-.3.7-.7,0,0,0,0,0,0v-1.8h1.7v1.8c0,.6.3.8.7.8.4,0,.7-.3.7-.7,0,0,0,0,0,0v-1.8h1.7v1.8c0,.6.3.9.7.9s.7-.3.7-.9v-1.8c1.3,0,1.1,0,1.2-1.2h1.8c.6,0,.8-.3.8-.7,0-.4-.3-.7-.7-.7,0,0,0,0,0,0h-1.8v-1.7h1.8c.6,0,.9-.3.9-.7s-.3-.7-.9-.7h-1.8v-1.7h1.8c.6,0,.9-.3.9-.7s-.3-.7-.9-.7h-1.8v-1.7h1.8c.6,0,.8-.3.8-.7,0-.4-.3-.7-.7-.7,0,0,0,0,0,0h-1.8v-1.7h0Zm-36.6-21.7c.8,0,1.5-.7,1.5-1.5h0c0-.8-.7-1.4-1.5-1.4s-1.4.7-1.4,1.5c0,.8.6,1.4,1.4,1.4Zm42.7-1.5c0-.8-.7-1.5-1.5-1.5s-1.5.7-1.5,1.5.7,1.5,1.5,1.5c.8,0,1.5-.6,1.5-1.4,0,0,0,0,0,0h0Zm-44.1,41.9c0,.8.7,1.5,1.5,1.5s1.5-.7,1.5-1.5h0c0-.8-.7-1.5-1.5-1.5h0c-.8,0-1.5.7-1.5,1.5Zm44.1,0c0-.8-.7-1.5-1.5-1.5h0c-.8,0-1.5.7-1.5,1.5s.7,1.5,1.5,1.5,1.5-.7,1.5-1.5Z"/><path class="cls-27" d="m75,168.1h-22.5q-.8,0-.8-.8v-2.2h23.4v3h-.1Z"/><path class="cls-27" d="m51.6,214.6v-2.4c0-.3.2-.6.4-.6,0,0,.1,0,.2,0h22.7v3h-23.3Z"/><path class="cls-32" d="m75,168.1v-3h3v2.4c0,.3-.2.6-.4.6,0,0-.1,0-.2,0h-2.4Z"/><path class="cls-32" d="m75.1,214.6v-3h2.4c.3,0,.6.2.6.4,0,0,0,.1,0,.2v2.4h-3Z"/><path class="cls-24" d="m53.2,205.8h-3.1c-1.2,0-1.1,0-1.2-1.2v-29.5c0-1.2,0-1.1,1.2-1.2h27.6v3.2c-.1-.1-.3-.2-.5-.2h-24.5q-.8,0-.8.8v24.2q0,.8.8.8h24.5c.2,0,.4,0,.5-.2v3.2h-24.5Z"/><path class="cls-33" d="m77.7,177.1v-3.2h1.9c1.3,0,1.1,0,1.2,1.2v29.5c0,1.3,0,1.1-1.2,1.2h-1.8v-28.7h0Z"/><path class="cls-31" d="m44.2,170.5c-.8,0-1.4-.8-1.4-1.6,0-.8.6-1.4,1.4-1.4.8,0,1.5.7,1.5,1.5s-.7,1.5-1.5,1.5Z"/><path class="cls-31" d="m86.9,169c0,.8-.6,1.5-1.4,1.5,0,0,0,0,0,0h0c-.8,0-1.5-.7-1.5-1.5s.7-1.5,1.5-1.5,1.5.7,1.5,1.5Z"/><path class="cls-42" d="m42.8,210.9c0-.8.6-1.5,1.4-1.5,0,0,0,0,0,0h0c.8,0,1.5.7,1.5,1.5h0c0,.8-.7,1.5-1.5,1.5s-1.5-.7-1.5-1.5h0Z"/><path class="cls-42" d="m86.9,210.8c0,.8-.6,1.5-1.4,1.5,0,0,0,0,0,0h0c-.8,0-1.5-.7-1.5-1.5s.7-1.5,1.5-1.5c.8,0,1.5.6,1.5,1.4,0,0,0,0,0,0Z"/><path class="cls-48" d="m54.7,173.9h-1.4v-1.8c0-.6.3-.9.7-.9s.7.3.7.9v1.8Z"/><path class="cls-57" d="m80.8,189v-1.5h1.8c.6,0,.9.3.9.7s-.3.7-.9.7h-1.8Z"/><path class="cls-57" d="m64,173.9h-1.4v-1.8c0-.6.3-.9.7-.9s.7.3.7.9v1.8Z"/><path class="cls-57" d="m67.1,173.9h-1.4v-1.8c0-.6.3-.9.7-.9s.7.3.7.9v1.8Z"/><path class="cls-57" d="m49,187.6v1.5h-1.8c-.6,0-.9-.3-.8-.7,0-.4.4-.7.8-.7h1.8Z"/><path class="cls-48" d="m80.8,201.5v-1.5h1.8c.6,0,.9.3.9.7s-.3.7-.9.7h-1.8Z"/><path class="cls-57" d="m80.8,192.1v-1.5h1.8c.6,0,.8.3.8.7,0,.4-.3.7-.7.7,0,0,0,0,0,0h-1.8Z"/><path class="cls-48" d="m49,200v1.5h-1.8c-.6,0-.8-.3-.8-.7,0-.4.3-.7.7-.7,0,0,0,0,0,0h1.8Z"/><path class="cls-48" d="m49,178.2v1.5h-1.8c-.6,0-.9-.3-.9-.7s.3-.7.9-.7h1.8Z"/><path class="cls-48" d="m80.8,179.7v-1.5h1.8c.6,0,.8.3.8.7,0,.4-.3.7-.7.7,0,0,0,0,0,0h-1.8Z"/><path class="cls-57" d="m49,190.7v1.4h-1.8c-.6,0-.9-.3-.9-.7s.3-.7.9-.7h1.8Z"/><path class="cls-48" d="m53.2,205.8h1.4v1.8c0,.6-.3.9-.7.9s-.7-.3-.7-.9v-1.8Z"/><path class="cls-57" d="m62.6,205.8h1.4v1.8c0,.6-.3.8-.7.8-.4,0-.7-.3-.7-.7,0,0,0,0,0,0v-1.8Z"/><path class="cls-57" d="m65.7,205.8h1.4v1.8c0,.6-.3.9-.7.9s-.7-.3-.7-.9v-1.8Z"/><path class="cls-48" d="m75,205.8h1.4v1.8c0,.6-.3.8-.7.8-.4,0-.7-.3-.7-.7,0,0,0,0,0,0v-1.8Z"/><path class="cls-48" d="m76.4,173.9h-1.4v-1.8c0-.6.3-.9.7-.9s.7.3.7.9v1.8Z"/><path class="cls-56" d="m49,184.5v1.4h-1.9c-.4,0-.8-.3-.9-.7,0-.4.3-.7.9-.7h1.9Z"/><path class="cls-56" d="m80.8,185.9v-1.4h1.8c.6,0,.8.3.8.7,0,.4-.3.7-.7.7,0,0,0,0,0,0h-1.8Z"/><path class="cls-56" d="m68.8,205.8h1.4v1.8c0,.6-.3.8-.7.8-.4,0-.7-.3-.7-.7,0,0,0,0,0,0v-1.8Z"/><path class="cls-56" d="m49,193.8v1.5h-1.8c-.6,0-.9-.3-.9-.7s.3-.7.9-.7h1.8Z"/><path class="cls-56" d="m80.8,195.3v-1.5h1.8c.6,0,.8.3.8.7,0,.4-.3.7-.7.7,0,0,0,0,0,0h-1.8Z"/><path class="cls-56" d="m60.9,173.9h-1.4v-1.8c0-.6.3-.9.7-.9s.7.3.7.9v1.8Z"/><path class="cls-56" d="m70.2,173.9h-1.4v-1.8c0-.6.3-.9.7-.9s.7.3.7.9v1.8Z"/><path class="cls-56" d="m59.4,205.8h1.4v1.8c0,.6-.3.8-.7.8-.4,0-.7-.3-.7-.7,0,0,0,0,0,0v-1.8Z"/><path class="cls-46" d="m49,203.2v1.4h-1.8c-.6,0-.9-.3-.9-.7s.3-.7.9-.7h1.8Z"/><path class="cls-46" d="m80.8,204.6v-1.5h1.8c.6,0,.8.3.8.7,0,.4-.3.7-.7.7,0,0,0,0,0,0h-1.8Z"/><path class="cls-46" d="m80.8,176.6v-1.5h1.8c.6,0,.9.3.9.7s-.3.7-.9.7h-1.8Z"/><path class="cls-56" d="m56.4,205.8h1.4v1.8c0,.6-.3.9-.7.9s-.7-.3-.7-.9v-1.8Z"/><path class="cls-56" d="m80.8,182.8v-1.4h1.8c.4,0,.8.2.8.6s-.2.8-.6.8c0,0-.2,0-.2,0h-1.8Z"/><path class="cls-56" d="m49,181.3v1.4h-1.8c-.6,0-.9-.3-.9-.7s.3-.7.9-.7h1.8Z"/><path class="cls-56" d="m49,196.9v1.5h-1.8c-.6,0-.8-.3-.8-.7,0-.4.3-.7.7-.7,0,0,0,0,0,0h1.8Z"/><path class="cls-56" d="m80.8,198.4v-1.5h1.8c.6,0,.9.3.9.7s-.3.7-.9.7h-1.8Z"/><path class="cls-46" d="m50.1,205.8h1.4v1.8c0,.6-.3.8-.7.8-.4,0-.7-.3-.7-.7,0,0,0,0,0,0v-1.8Z"/><path class="cls-46" d="m49,175.1v1.5h-1.9c-.4,0-.8-.2-.8-.6s.2-.8.6-.8c0,0,.2,0,.2,0h1.9Z"/><path class="cls-46" d="m79.6,173.9h-1.5v-1.8c0-.6.3-.8.7-.8.4,0,.7.3.7.7,0,0,0,0,0,0v1.8h.1Z"/><path class="cls-46" d="m78.1,205.8h1.5v1.8c0,.6-.3.9-.7.9s-.7-.3-.7-.9v-1.8h-.1Z"/><path class="cls-56" d="m73.3,173.9h-1.4v-1.8c0-.6.3-.9.7-.9s.7.3.7.9v1.8Z"/><path class="cls-56" d="m57.8,173.9h-1.4v-1.8c0-.6.3-.9.7-.9s.7.3.7.9v1.8Z"/><path class="cls-46" d="m51.5,173.9h-1.4v-1.8c0-.6.3-.9.7-.9s.7.3.7.9v1.8Z"/><path class="cls-56" d="m71.9,205.8h1.4v1.8c0,.6-.3.8-.7.8-.4,0-.7-.3-.7-.7,0,0,0,0,0,0v-1.8Z"/><path class="cls-54" d="m74.8,202.8h-22q-.8,0-.8-.8v-24.2q0-.8.8-.8h22v25.8Zm-1-20.7h0v-2.3c0-.4-.3-.7-.7-.7,0,0,0,0,0,0h0c-.4,0-.7.3-.8.7h0v3.1c0,.8,0,.6-.7.7-.4,0-.5,0-.5-.5v-3.3c0-.4-.2-.7-.6-.8,0,0,0,0,0,0-.4,0-.7.3-.8.7v4.4c0,.6.3.8.9.8h2.3c.4,0,.8-.2.9-.7,0,0,0-.1,0-.2v-2.1.2Zm-8.5,0v2.2c0,.4.3.8.7.9.4.1.7-.3.7-.8v-1.1q0-.3.3-.3h1.4c.4,0,.8-.3.9-.7v-2.2c0-.7-.3-.9-.9-.9h-2.1c-.7,0-1,.2-1,1v2h0Zm-4.4,0v2.2c0,.4.2.8.6.8h2.5c.4,0,.8-.3.9-.7,0-.5-.4-.8-.8-.8,0,0,0,0,0,0h-1.4c-.2,0-.3,0-.3-.3v-2.5c0-.2,0-.3.3-.3h1.4c.4,0,.8-.3.8-.7,0,0,0,0,0-.1,0-.5-.3-.7-.8-.7h-2.4c-.4,0-.8.2-.8.6v2.3h0v.2Zm-5.6,19.4h1.3c.2,0,.4,0,.5-.2s0-.4-.2-.5l-2.7-2.5c0-.2-.3-.2-.5-.1s-.2.2-.2.4v2.5c0,.2.2.4.4.5h1.4Z"/><path class="cls-8" d="m74.8,202.8v-25.8h2.5c.2,0,.4,0,.5.2v25.4c-.1.1-.3.2-.5.2h-2.5Z"/><path class="cls-45" d="m73.8,182v2.1c0,.7-.3.9-.9.9h-2.3c-.6,0-.9-.3-.9-.8v-4.3c0-.4.2-.8.6-.8h0c.4,0,.7.3.7.7,0,0,0,0,0,0v3.3c0,.4,0,.5.5.5.8,0,.7,0,.7-.7v-3.1c0-.4.3-.7.7-.7,0,0,0,0,0,0h0c.4,0,.7.3.7.7,0,0,0,0,0,0h0v2.3h0v-.2Z"/><path class="cls-45" d="m65.3,182v-2c0-.7.3-.9,1-1h2.2c.4,0,.8.2.9.7,0,0,0,.1,0,.2v2c0,.4-.3.8-.7.9h-1.6q-.3,0-.3.3v1.1c0,.4-.2.7-.6.8,0,0,0,0,0,0-.4,0-.7-.3-.7-.9v-2.2h0Zm2-.6c.3,0,.6.1.6-.4s-.2-.5-.6-.4-.6-.1-.6.4.2.5.6.4Z"/><path class="cls-45" d="m60.9,182v-2.1c0-.4.2-.8.6-.8h2.6c.4,0,.7.2.8.6,0,0,0,0,0,0,0,.4-.3.7-.8.8-.5,0-.9,0-1.4,0-.4,0-.3,0-.3.3v2.5c0,.2,0,.3.3.3h1.4c.5,0,.9.3.9.7,0,0,0,0,0,0,0,.5-.3.7-.9.7h-2.3c-.4,0-.8-.2-.8-.6v-2.6Z"/><path class="cls-66" d="m55.3,201.4h-1.4c-.2,0-.4-.2-.5-.4h0v-2.5c0-.2,0-.4.2-.4.2,0,.4,0,.5.1l2.7,2.5c.2.1.2.3.2.5s-.3.2-.5.2h-1.2Z"/><path class="cls-48" d="m67.3,181.3c-.3,0-.6,0-.6-.4s.3-.4.6-.4.6,0,.6.4-.3.4-.6.4Z"/><path d="m47.1,152.8c-1.2-3.8.9-7.8,4.7-9,0,0,.2,0,.2,0,2.3-.7,4.9-.2,6.7,1.4l-2.2,2.3c-1-.9-2.4-1.2-3.6-.7-2.1.5-3.4,2.6-2.9,4.7,0,.2,0,.3.2.5.4,2.1,2.5,3.4,4.6,3,.2,0,.4,0,.5-.2,1.3-.3,2.3-1.3,2.6-2.6l3.1.7c-.7,2.3-2.5,4.1-4.8,4.8-3.7,1.2-7.8-.8-9-4.6,0-.1,0-.2,0-.3h0Z"/><path d="m73.2,147.9c-.2,2.6-2.6,4.6-5.2,4.3,0,0,0,0-.1,0l-2.1-.2-.4,4.4-3.2-.3,1.3-13.9,5.3.5c2.6.2,4.6,2.5,4.4,5.2,0,0,0,0,0,0Zm-3.2-.3c.1-1-.5-1.8-1.5-2l-2.1-.2-.3,3.6,2.1.2c1,0,1.8-.6,1.9-1.6h0Z"/><path d="m74.7,153.1l4.2-8.5,2.9,1.4-4.1,8.2c-.5.9-.4,2,1.1,2.7,1.5.7,2.4.2,2.8-.8l4.1-8.2,2.9,1.4-4.2,8.5c-1.3,2.7-4.2,3.3-7,1.9-2.8-1.4-4-4-2.7-6.7h0Z"/><circle class="cls-2" cx="335" cy="181.6" r="45"/><path class="cls-60" d="m301.9,178.8c.2-.2.4-.4.7-.4h6.8v3.3c-.5.3-.7.8-.7,1.4v12.7c0,.9.4,1.3,1.3,1.3h4.7c.6,0,1.3-.3,1.1-1.2v-.5h4.6v.3c0,1.1.3,1.4,1.4,1.4h4.6c.8,0,1.1-.4,1.2-1.1v-.6h4.6v.3c0,1.2.2,1.4,1.4,1.4h4.3c.9,0,1.3-.4,1.3-1.3v-.5h4.6v.3c0,1.1.3,1.4,1.4,1.4h4.6c.8,0,1.1-.4,1.2-1.2v-.5h4.6v.4c0,1.1.2,1.2,1.2,1.2h2.6c.8.2,1.6.2,2.4,0,.5,0,.8-.4.8-1,0-.2,0-.5.1-.7h6.8v5h-68.3v-9.6c.3,0,.6-.2.9-.3,1.3-.4,2.1-1.6,2.2-2.9,0-1.4-.8-2.6-2.1-3-.3-.1-.7-.2-1-.3v-5.6l.7.3Z"/><path class="cls-58" d="m347.8,200.4h1.5v2.3c0,.5.4,1,.9,1,0,0,0,0,.1,0,.7,0,1-.3,1-1v-2.3h1.6v2.3c0,.8.3,1.1,1,1.1.6,0,1-.4,1-1,0,0,0,0,0-.1v-2.3h1.6v2.2c0,.8.3,1.2,1,1.2s1-.4,1-1.2v-2.2h1.5v2.1c0,.8.4,1.2,1.1,1.2s1-.4,1.1-1.2v-2.1h1.5v2.2c0,.5.4,1,.9,1.1.6,0,1-.2,1.1-.8,0-.8.1-1.7.1-2.5h4.4v3.3c0,1-.7,1.8-1.7,1.9h-63.7c-1.1.1-2.2-.5-2.6-1.6v-3.7h4.6v2.2c0,.8.3,1.2,1,1.2s1-.4,1-1.2v-2.2h1.5v2.1c0,.8.4,1.2,1.1,1.2s1-.4,1.1-1.2v-2.1h1.5v2.2c0,.5.4,1,.9,1.1.6,0,1-.2,1.1-.8,0-.8.1-1.7.1-2.5h1.5v2.3c0,.5.4,1,.9,1,0,0,0,0,.1,0,.7,0,1-.3,1-1v-2.3h1.6v2.3c0,.8.3,1.1,1,1.1.6,0,1-.4,1-1,0,0,0,0,0-.1v-2.3h1.5c0,.9,0,1.7.1,2.6,0,.4.4.8.9.7,0,0,0,0,0,0,.7,0,1.1-.4,1.1-1.2v-2.2h1.5v2.1c0,.8.4,1.2,1.1,1.2s1-.4,1.1-1.2v-2.1h1.5v2.3c0,.5.3,1,.9,1.1,0,0,.1,0,.2,0,.7,0,.9-.3.9-1.1v-2.3h1.6v2.3c0,.7.3,1,1,1s1-.3,1-1v-2.3h1.6v2.3c0,.8.3,1.1,1,1.1.6,0,1-.4,1-1,0,0,0,0,0-.1v-2.3h1.5v2.1c0,.8.4,1.2,1.1,1.2s1-.4,1.1-1.2v-2.1h1.5v2.3c0,.5.3,1,.8,1,0,0,0,0,0,0,.6,0,1-.2,1.1-.8.1-.8.1-1.7,0-2.5l-.6.2Z"/><path class="cls-63" d="m370,195.4h-6.8v-12.8c0-.7-.5-1-1.2-1h-4.6c-1.1,0-1.3.3-1.3,1.3v12.3h-4.6v-12.4c0-.9-.3-1.3-1.3-1.3h-4.4c-1.3,0-1.5.3-1.5,1.5v12.2h-4.6v-12.4c0-1-.3-1.3-1.3-1.3h-4.4c-1.2,0-1.4.2-1.4,1.4v12.3h-4.6v-12.3c0-1-.3-1.3-1.3-1.4h-4.7c-.9,0-1.3.3-1.3,1.3v12.4h-4.6v-12.5c0-.6-.3-1.1-.9-1.2-.1,0-.2,0-.3,0h-5.3v-3.3h59.1c1.3,0,1.4,0,1.4,1.3v3.9c0,.4-.2.8-.6.9-1.5.3-2.5,1.6-2.5,3.1,0,1.5,1,2.8,2.5,3.1.4,0,.6.3.6.7v4.2Z"/><path class="cls-22" d="m309.5,181.7h3.4c-.4.4-.6.9-.5,1.5v1.4c-.7,0-.9.5-.9,1.1v7.6c-.1.5.2,1.1.8,1.2,0,0,0,0,.1,0,0,.9,0,1.7.4,2.5h-2.7c-.9,0-1.3-.4-1.3-1.3v-12.7c0-.6.2-1.1.7-1.4h0Z"/><path class="cls-15" d="m360.1,181.7h1.8c.5-.1,1.1.2,1.2.8,0,0,0,.1,0,.2v12.8c-.2.2-.1.5-.1.7,0,.5-.3.9-.8,1-.8,0-1.6,0-2.4,0-.4-.7-.2-1.4-.3-2.1.6,0,.9-.4.9-1.1v-7.9c0-.5-.3-1-.9-1.1,0,0,0,0,0,0v-1.5c0-.6,0-1.2.5-1.7h0Z"/><path class="cls-22" d="m344.2,195.4v-12.2c0-1.2.3-1.5,1.5-1.5h2.6c-.4.4-.6.9-.5,1.5v1.6c-.7,0-1,.3-1.1,1.2v7.4c0,.9.3,1.2,1.1,1.2-.1.8,0,1.7.4,2.4h-2.6c-1.1,0-1.4-.3-1.4-1.4v-.2Z"/><path class="cls-22" d="m320.7,195.4v-12.4c0-.9.3-1.3,1.3-1.3h2.9c-.5.4-.6.9-.5,1.5v1.5c-.7,0-1.1.4-1.1,1.2v7.5c0,.8.4,1.1,1.1,1.2,0,.9-.2,1.7.4,2.5h-2.6c-.9,0-1.4-.3-1.4-1.4v-.3h0Z"/><path class="cls-22" d="m332.5,195.4v-12.3c0-1.2.2-1.4,1.4-1.4h2.5c-.2,1-.3,2-.3,3-.8.1-1.1.4-1.1,1.2v7.6c0,.7.3,1,1.1,1.2,0,.8,0,1.6.3,2.4h-2.4c-1.2,0-1.4-.2-1.4-1.4v-.3h-.1Z"/><path class="cls-22" d="m359.6,194.8c-.1.7,0,1.4.3,2.1h-2.6c-1.1,0-1.2-.2-1.2-1.2v-12.7c0-1.1.3-1.3,1.3-1.3h2.8c-.5.4-.7,1.1-.5,1.7v1.5c-.8.1-1.1.4-1.1,1.2v7.6c0,.7.3,1,1.1,1.2h0Z"/><path class="cls-15" d="m324.7,197.1c-.4-.8-.6-1.6-.4-2.5.7,0,1-.4,1-1.1v-7.6c0-.5-.3-1-.9-1.1,0,0,0,0-.1,0v-1.5c0-.6,0-1.1.5-1.5h1.8c1,0,1.3.4,1.3,1.4v12.9c0,.8-.4,1.1-1.2,1.1h-2,0Z"/><path class="cls-43" d="m347.8,184.9v-1.6c0-.5.1-1.1.5-1.5h1.8c.9,0,1.3.4,1.3,1.3v12.9c0,.8-.3,1.2-1.2,1.2h-2c-.4-.7-.5-1.6-.4-2.4.5,0,1-.3,1.1-.9,0,0,0,0,0-.1v-7.8c0-.6-.4-1-1-1,0,0,0,0-.1,0h0Z"/><path class="cls-43" d="m312.8,197.1c-.4-.8-.5-1.6-.4-2.5.8-.1,1.1-.4,1.1-1.2v-7.6c0-.7-.3-1-1.1-1.2v-1.4c0-.5.1-1.1.5-1.5h1.9c.9,0,1.2.4,1.2,1.2v13c.1.5-.2,1.1-.8,1.2-.1,0-.2,0-.3,0h-2.1Z"/><path class="cls-43" d="m336.1,184.7c-.2-1,0-2,.3-3h1.9c1,0,1.3.3,1.3,1.3v12.9c0,.9-.3,1.2-1.3,1.3h-1.9c-.3-.8-.4-1.6-.3-2.4.5,0,1-.5.9-1.1,0,0,0,0,0,0v-7.8c0-.5-.3-1-.9-1.1,0,0,0,0,0,0h0Z"/><path class="cls-19" d="m330,200.4v2.1c0,.8-.4,1.2-1.1,1.2s-1-.4-1.1-1.2v-2.1h2.2Z"/><path class="cls-19" d="m344.2,200.4v2.1c0,.8-.4,1.2-1.1,1.2s-1-.4-1.1-1.2v-2.1h2.2Z"/><path class="cls-19" d="m347.8,200.4v2.5c0,.5-.4.8-.8.8,0,0-.2,0-.3,0-.5,0-.9-.5-.9-1v-2.3h2Z"/><path class="cls-19" d="m362,200.4v2.1c0,.8-.4,1.2-1.1,1.2s-1-.4-1.1-1.2v-2.1h2.2Z"/><path class="cls-19" d="m312.2,200.4v2.1c0,.8-.4,1.2-1.1,1.2s-1-.4-1.1-1.2v-2.1h2.2Z"/><path class="cls-19" d="m326.4,200.4v2.2c0,.8-.4,1.2-1.1,1.2-.4,0-.8-.2-.9-.7,0,0,0,0,0,0,0-.9-.1-1.7-.1-2.6h2.1Z"/><path class="cls-19" d="m315.8,200.4c0,.8,0,1.7-.1,2.5,0,.5-.4.9-.9.8,0,0-.1,0-.2,0-.5,0-1-.5-.9-1.1,0,0,0,0,0,0v-2.2h2.1Z"/><path class="cls-19" d="m365.6,200.4c0,.8,0,1.7-.1,2.5,0,.5-.4.9-.9.8,0,0-.1,0-.2,0-.5,0-1-.5-.9-1.1,0,0,0,0,0,0v-2.2h2.1Z"/><path class="cls-62" d="m337,200.4v2.3c0,.7-.3,1-1,1s-1-.3-1-1v-2.3h2Z"/><path class="cls-62" d="m319.2,200.4v2.3c0,.7-.3,1-1,1-.5,0-1-.4-1-.9,0,0,0,0,0-.1v-2.3h2Z"/><path class="cls-62" d="m322.8,200.4v2.3c0,.5-.3,1-.9,1.1,0,0,0,0-.1,0-.7,0-1-.3-1-1.1v-2.3h2Z"/><path class="cls-62" d="m340.6,200.4v2.3c0,.5-.3,1-.9,1.1,0,0,0,0-.1,0-.7,0-1-.3-1-1.1v-2.3h2Z"/><path class="cls-62" d="m351.3,200.4v2.3c0,.7-.3,1-1,1-.5,0-1-.4-1-.9,0,0,0,0,0-.1v-2.3h2Z"/><path class="cls-62" d="m354.8,200.4v2.3c0,.5-.3,1-.9,1.1,0,0,0,0-.1,0-.7,0-1-.3-1-1.1v-2.3h2Z"/><path class="cls-19" d="m308.6,200.4v2.2c0,.6-.4,1.1-1,1.2-.7,0-1-.3-1-1.2v-2.2h2Z"/><path class="cls-62" d="m333.4,200.4v2.3c0,.8-.3,1.1-.9,1.1s-1-.4-1.1-1.1v-2.3h2Z"/><path class="cls-19" d="m358.4,200.4v2.2c0,.6-.4,1.1-1,1.2-.7,0-1-.3-1-1.2v-2.2h2Z"/><path class="cls-6" d="m312.4,184.6c.8.1,1.1.4,1.1,1.2v7.6c0,.7-.3,1-1.1,1.2-.6,0-1-.5-.9-1.1,0,0,0,0,0-.1v-7.6c0-.5.3-1,.9-1.1,0,0,0,0,0,0h0Z"/><path class="cls-6" d="m359.6,194.8c-.8-.1-1.1-.4-1.1-1.2v-7.6c0-.7.3-1,1.1-1.2.6,0,.9.4.9,1.1v7.9c0,.5-.3,1-.9,1.1,0,0,0,0,0,0h0Z"/><path class="cls-6" d="m347.8,184.9c.5,0,1,.3,1.1.9,0,0,0,0,0,.1v7.8c0,.6-.4,1-1,1,0,0,0,0-.1,0-.7,0-1-.3-1.1-1.2v-7.4c0-.9.3-1.2,1.1-1.2Z"/><path class="cls-6" d="m324.3,184.7c.7,0,1,.4,1,1.1v7.6c0,.5-.3,1-.9,1.1,0,0,0,0-.1,0-.7,0-1.1-.4-1.1-1.2v-7.5c0-.8.4-1.1,1.1-1.2h0Z"/><path class="cls-6" d="m336.1,184.7c.6,0,.9.4.9,1.1v7.8c0,.7-.4.9-.9,1.1-.8-.1-1.1-.4-1.1-1.2v-7.6c0-.7.3-1,1.1-1.2Z"/><path d="m309.8,162.6l1-2.7c1,.6,2.3.5,3.1-.4,1-.9,1-1.5.7-1.9-.5-.6-1.2-.4-3,.4-1.8.8-3.8,1.3-5.3-.6s-.9-4.3.8-5.7c1.5-1.3,3.6-1.6,5.4-.8l-.9,2.7c-.8-.5-1.9-.4-2.6.3-.7.6-.7,1.2-.4,1.6s.9.5,2.7-.3c1.8-.8,3.9-1.6,5.6.4,1.7,2,1,4.2-1.1,6-1.6,1.6-4,1.9-5.9.8v.2Z"/><path d="m320,151.3l1.4,2.9c.3.7,1,.5,2,0l1,2.2c-3,1.8-4.4,1.3-5.5-1l-1.4-2.9-1.3.6-1.1-2.3,1.3-.6-.7-1.5,2.1-1.9,1.1,2.3,1.7-.8,1.1,2.3-1.7.8h0Z"/><path d="m323.6,151.6c-.5-2.6,1.2-5.1,3.8-5.6,0,0,0,0,0,0,2.5-.5,5,1.1,5.6,3.7,0,0,0,0,0,.1.5,2.6-1.2,5.1-3.8,5.6,0,0,0,0,0,0-2.5.5-5-1.1-5.6-3.7,0,0,0,0,0-.1Zm6.7-1.3c-.3-1.1-1.4-1.7-2.5-1.4-1.1.3-1.7,1.4-1.4,2.5.3,1,1.2,1.6,2.3,1.4,1.1-.1,1.8-1.1,1.7-2.2,0-.1,0-.2,0-.3Z"/><path d="m340.7,145.8l-.2,3.1c-1-.4-2.2,0-2.6,1-.1.3-.2.6-.2.9l-.3,4.1-2.7-.2.6-9,2.7.2v1.6c.4-1.1,1.5-1.8,2.7-1.6h0Z"/><path d="m352,149.2l-2.9,8.5-2.6-.9.3-.8c-.9.5-2,.6-2.9.2-2.3-.9-3.4-3.6-2.5-5.9.9-2.5,3.4-3.9,5.6-3.1,1,.3,1.7,1,2.2,1.9l.3-.8,2.6.9h-.1Zm-4,3.4c.4-1.1,0-2.3-1.1-2.7,0,0-.1,0-.2,0-1-.4-2.2,0-2.6,1.1,0,0,0,.2,0,.3-.4,1.1,0,2.3,1.1,2.7,0,0,.1,0,.2,0,1,.4,2.2,0,2.6-1.1,0,0,0-.2,0-.3Z"/><path d="m362.8,156.9l-5.3,6.7c-1.9,2.4-4.5,1.9-6.4.4-1.5-1-2.2-2.7-2-4.4l2.6.4c-.1.8.2,1.7.9,2.2.6.7,1.7.8,2.5.1.1-.1.3-.3.3-.4l.5-.7c-1,.2-2,0-2.8-.7-2-1.6-2.3-4.4-.7-6.4,1.6-2,4.4-2.3,6.4-.7.8.6,1.3,1.5,1.3,2.5l.6-.7,2.1,1.6h0Zm-4.7,1.8c.8-.9.7-2.3-.3-3.1-.9-.8-2.3-.7-3.1.3-.8.9-.7,2.3.3,3.1,0,0,0,0,0,0,.8.8,2.1.7,2.8,0,0,0,.1-.1.2-.2Z"/><path d="m362.2,167.4c.3.5.9.9,1.5,1.1v2.5c-1.5,0-2.9-1-3.6-2.3-1.6-2.1-1.2-5,.9-6.6.1,0,.2-.2.3-.2,2.1-1.5,4.9-1,6.4,1.1,0,.1.1.2.2.3,1.4,2.1.8,4.9-1.3,6.3,0,0-.1,0-.2.1-.3.2-.6.4-1,.5l-3.5-5.3c-.5.8-.5,1.8.1,2.5h.2Zm3.6-.4c.6-.7.7-1.7.1-2.4-.4-.8-1.4-1.2-2.3-.9l2.1,3.2h0Z"/></svg>