<?xml version="1.0" encoding="UTF-8"?><svg id="Layer_1" xmlns="http://www.w3.org/2000/svg" viewBox="0 0 400 400"><defs><style>.cls-1{fill:#fcfcfd;}.cls-2{fill:#deb6a3;}.cls-3{fill:#fff;}.cls-4{stroke:#0018c6;}.cls-4,.cls-5,.cls-6{stroke-width:4px;}.cls-4,.cls-5,.cls-6,.cls-7{stroke-miterlimit:10;}.cls-4,.cls-5,.cls-6,.cls-7,.cls-8{fill:none;}.cls-9{fill:#fcd303;}.cls-10{fill:#3f5c6c;}.cls-5{stroke:#c000e2;}.cls-11{fill:#54747f;}.cls-12{fill:#364a5f;}.cls-6{stroke:#00b51e;}.cls-13{fill:#b68c7b;}.cls-14{fill:#f7cf06;}.cls-7{stroke:#231f20;stroke-width:2px;}.cls-15{fill:#685e66;}.cls-16{fill:gray;}.cls-17{fill:#ddebf0;}.cls-18{fill:#dfc7be;}.cls-19{fill:#f0f6f6;}.cls-20{fill:#073856;}.cls-21{fill:#999;}.cls-22{fill:#5ecaed;}.cls-23{fill:#3b97d2;}.cls-24{fill:#5d707d;}.cls-25{fill:#bdc3c7;}.cls-26{fill:#db411d;}.cls-27{fill:#c59a85;}.cls-28{fill:#231f20;}.cls-29{fill:#666;}.cls-30{fill:#b72b06;}</style></defs><line class="cls-3" x1="199.8" y1="256" x2="200.2" y2="288.8"/><line class="cls-7" x1="199.8" y1="256" x2="200.1" y2="278"/><polygon class="cls-28" points="192.6 275.9 200.2 288.8 207.5 275.7 192.6 275.9"/><circle class="cls-6" cx="200" cy="342.9" r="45"/><path class="cls-26" d="m210.9,377.5c0,.8-4.9,1.4-11,1.4h0c-6.1,0-11-.6-11-1.4v-52.1c0-.8,4.9-1.4,11-1.4h0c6.1,0,11,.6,11,1.4v52.1Z"/><path class="cls-30" d="m188.9,326.7v.5c1.4-.4,5.3-.8,11-.8s9.6.4,11,.8v-.5c-2.7-.8-9.4-.8-11-.8s-8.2,0-11,.8Z"/><path class="cls-30" d="m210.9,376.1v-.5c-1.4.4-5.3.8-11,.8s-9.6-.4-11-.8v.5c2.7.8,9.4.8,11,.8s8.2,0,11-.8Z"/><path class="cls-30" d="m199.9,332.4c-3.2,0-6.2,0-8.4.3-1.2,0-2,.2-2.6.3v.6c1.5-.3,5.3-.6,11-.6s9.5.3,11,.6v-.6c-.6,0-1.4-.2-2.6-.3-2.2-.2-5.2-.3-8.4-.3Z"/><path class="cls-30" d="m210.9,369.2c-1.5.3-5.3.6-11,.6s-9.5-.3-11-.6v.6c.6,0,1.4.2,2.6.3,2.2.2,5.2.3,8.4.3s6.2,0,8.4-.3c1.2,0,2-.2,2.6-.3v-.6Z"/><rect class="cls-30" x="188.9" y="334.8" width="21.9" height="33.3"/><path class="cls-29" d="m216.7,353.2c-.3.6-.8.8-1.1.5l-2.8-2.6c-.3-.3-.2-.9,0-1.5l3.3-5.7c.3-.6.8-.8,1.1-.5l2.8,2.6c.3.3.2.9,0,1.5l-3.3,5.7Z"/><path class="cls-20" d="m220.9,334.9h1.1c1,0,1.5.8,1.1,2-.3.8-.7,1.6-1.1,2.4-2.6,4.6-5.1,9.3-7.7,13.9-2.4,4.2-4.8,8.3-7.3,12.3-1.2,2-2.7,3.5-4.7,4.2-2.4.8-4.5,0-6.5-1.6-1.2-1-2.1-2.4-2.9-3.9-2.8-4.7-5.5-9.4-8.2-14.2-1.2-2.1-2.3-4.2-3.5-6.3,0,0-.1-.2-.2-.4-.7-1.6-.4-2.6,1.1-2.8,5.2-.8,10.4-1.5,15.6-2.3,4.6-.7,9.2-1.3,13.7-2,3.2-.5,6.5-.9,9.7-1.3h-.2Z"/><path class="cls-21" d="m218.5,337.3h.9c.8,0,1.3.7.9,1.7-.3.7-.6,1.4-1,2.1-2.2,4-4.4,8.1-6.7,12.1-2.1,3.6-4.2,7.2-6.4,10.7-1.1,1.7-2.4,3.1-4.1,3.7-2.1.7-3.9,0-5.7-1.4-1.1-.9-1.8-2.1-2.5-3.4-2.4-4.1-4.8-8.2-7.2-12.3-1-1.8-2-3.7-3-5.5,0,0,0-.2-.2-.3-.6-1.4-.3-2.2.9-2.4,4.5-.7,9-1.3,13.5-2,4-.6,8-1.2,12-1.7,2.8-.4,5.7-.7,8.5-1.1h0v-.2Z"/><path d="m180,318.6c2.6,2.6,2.3,5.9,0,8.3-2.6,2.6-6.5,2.6-8.9.2-2.4-2.4-2.4-6.3,0-8.8,1.6-1.6,3.8-2.2,5.6-1.7l-.7,2.6c-.9-.2-2.1.1-3,1.1-1.4,1.4-1.4,3.5,0,5,1.4,1.4,3.5,1.5,5.1-.2,1.1-1.1,1.4-2.3.9-3.4l-2.2,2.2-1.7-1.7,4.2-4.2.7.7h0Z"/><path d="m192.4,310l.6,8.9-2.2.9-3-3.7.4,4.7-2.2.9-5.7-6.9,2.5-1,2.8,3.8-.5-4.7,2.2-.9,2.9,3.7-.6-4.7,2.5-1h.3Z"/><path d="m203.9,309.4l.3,8.5h-2.5v-.7c-.5.7-1.4,1.1-2.5,1.1-2.2,0-4.1-1.8-4.2-4.3,0-2.5,1.7-4.6,3.9-4.6s2,.3,2.6.9v-.8h2.5,0Zm-2.4,4.3c0-1.3-.9-2-2.1-2s-2,.9-1.9,2.2.9,2,2.1,2,2-.9,1.9-2.1h0Z"/><path d="m209.8,313.1l-.7,2.9c-.2.7.4.9,1.5,1.1l-.5,2.3c-3.3-.4-4.1-1.6-3.5-3.9l.7-2.9-1.3-.3.5-2.4,1.3.3.4-1.6,2.7-.2-.5,2.3,1.7.4-.5,2.4-1.7-.4h-.1Z"/><path d="m212.4,315.5c1.1-2.3,3.7-3.2,6-2.1,1.5.7,2.4,2.1,2.5,3.6l-2.6.2c0-.7-.4-1.2-1.1-1.6-1-.5-2.1-.1-2.6.9-.5,1.1,0,2.1.9,2.6.7.3,1.4.3,1.9-.1l1.5,2.1c-1.2.9-2.9,1-4.4.3-2.3-1.1-3.2-3.7-2.1-6h0Z"/><path d="m227.8,324.7l-3.5,3.9-1.9-1.7,3.2-3.6c.7-.8.5-1.6,0-2.1-.7-.6-1.5-.6-2.3.3l-3.1,3.5-1.9-1.7,7.9-8.9,1.9,1.7-2.8,3.1c.8-.2,1.7,0,2.5.8,1.3,1.1,1.6,3,0,4.7Z"/><line class="cls-8" x1="199.7" y1="114.3" x2="200.2" y2="147.1"/><line class="cls-7" x1="199.7" y1="114.3" x2="200.1" y2="136.3"/><polygon class="cls-28" points="192.6 134.2 200.2 147.1 207.5 134 192.6 134.2"/><line class="cls-8" x1="112.2" y1="110" x2="160.8" y2="149.4"/><line class="cls-7" x1="112.2" y1="110" x2="152.4" y2="142.6"/><polygon class="cls-28" points="146 147 160.8 149.4 155.4 135.4 146 147"/><line class="cls-8" x1="287.8" y1="110" x2="239.2" y2="149.4"/><line class="cls-7" x1="287.8" y1="110" x2="247.5" y2="142.6"/><polygon class="cls-28" points="244.5 135.4 239.2 149.4 253.9 147 244.5 135.4"/><circle class="cls-4" cx="317.3" cy="57.1" r="45"/><path class="cls-24" d="m314.1,104.3c.3-.2.6-.2.9,0h-.9Z"/><path class="cls-24" d="m316.4,104.3c.1-.2.4-.2.5,0,0,0,0,0,0,0h-.6Z"/><path class="cls-15" d="m331.8,88.4h-32.2c-1.9-.4-3.6-1.3-5-2.6-1.5-1.4-2.3-3.4-2.3-5.5v-26.6c0-3.7,2.5-6.9,6.1-7.8l1.1-.3h32.2c3.7.5,6.7,3.4,7.2,7.1v27.4c0,3.7-2.9,7.3-6.2,7.9-.4,0-.7.3-1,.3h0Zm-16.1-39h-12.2c-3.8-.1-6.9,2.9-7,6.6,0,0,0,.2,0,.3v21.5c0,3.8,3,6.9,6.7,6.9,0,0,.2,0,.3,0h24.5c.6,0,1.2,0,1.8-.2,3.1-.8,5.3-3.6,5.2-6.8v-20.9c.2-3.8-2.6-7.1-6.4-7.3-.3,0-.6,0-.9,0h-12Z"/><path class="cls-22" d="m339.1,70.4v-6.9h2c.5,0,1,.3,1.1.9,0,0,0,.1,0,.2v4.7c0,.5-.3,1-.9,1.1,0,0-.1,0-.2,0h-2Z"/><path d="m276.8,55.3l.8-2.6,8.3.6-7-4.6.7-2,8.4.4-7.1-4.4.9-2.6,10,6.6-.9,2.9-7.1-.3,5.9,3.9-.9,2.9-12-.5v-.3Z"/><path d="m292.1,32.8l6.3,5.3-1.6,1.9-.6-.5c.2.9-.1,1.8-.8,2.5-1.7,1.7-4.5,1.6-6.2,0-1.4-1.5-1.6-3.8-.5-5.5.6-.7,1.4-1.1,2.3-1.2l-.6-.5,1.6-1.9h0Zm1.6,4.5c-.9-.7-2.1-.6-2.8.3-.7.9-.6,2.1.3,2.8.9.7,2.1.6,2.8-.3,0,0,0,0,0,0,.7-.8.7-1.9,0-2.6,0,0-.1-.1-.2-.2Z"/><path d="m298.6,30.9l1.7,2.4c.4.6.9.3,1.8-.4l1.3,1.8c-2.4,2.1-3.8,1.9-5.1,0l-1.7-2.4-1.1.8-1.4-1.9,1.1-.8-.9-1.3,1.6-2,1.3,1.9,1.4-1,1.4,1.9-1.4,1Z"/><path d="m301.9,30.7c-.9-2.2,0-4.7,2.2-5.6,0,0,.1,0,.2,0,1.4-.6,3-.4,4.2.5l-1.5,2c-.5-.4-1.2-.5-1.8-.2-.9.6-1.1,1.9-.5,2.8.4.6,1.2.9,2,.8.7-.2,1.1-.8,1.1-1.5l2.5.3c-.3,2.4-2.5,4-4.9,3.7-1.5-.2-2.9-1.2-3.4-2.7h-.1Z"/><path d="m318.5,25.5l.5,5-2.5.3-.5-4.7c0-.7-.6-1.3-1.3-1.3,0,0-.2,0-.3,0-.9,0-1.5.7-1.3,1.9l.5,4.5-2.5.3-1.2-11.5,2.5-.3.4,4c.5-.7,1.3-1.2,2.2-1.3,1.7-.2,3.2.8,3.4,3.1h.1Z"/><path d="m328.8,24l1.5.4-.6,2.3-1.5-.4-1.5,5.7-2.4-.6,1.5-5.7-1.1-.3.6-2.3,1.1.3c.6-2.2,2.1-3.3,4.8-2.4l-.6,2.3c-.9-.3-1.5-.2-1.8.7Z"/><path d="m336.6,27l-1.2,2.5c-.8-.7-2-.6-2.7.2-.1.2-.2.3-.3.5l-1.6,3.4-2.2-1,3.4-7.5,2.2,1-.6,1.3c.7-.8,2-1,2.9-.4h.1Z"/><path d="m345.2,33.5l-5.2,6.4-1.9-1.6.5-.6c-.9.2-1.8-.1-2.5-.8-1.7-1.7-1.7-4.5,0-6.2,1.5-1.4,3.7-1.7,5.5-.6.8.5,1.3,1.4,1.3,2.3l.5-.6,1.9,1.6h0Zm-4.5,1.7c.7-.8.7-1.9,0-2.6,0,0-.1-.1-.2-.2-.9-.7-2.1-.6-2.8.3-.7.8-.7,1.9,0,2.6,0,0,.1.1.2.2.8.7,2.1.6,2.8-.2h0Z"/><path d="m351.3,48.6l-4.4,2.5-1.2-2.2,4.2-2.4c.6-.2.9-.9.7-1.5,0,0,0-.1,0-.2-.4-.7-1.1-.8-2-.4l-4,2.3-1.2-2.2,4.2-2.4c.6-.2.9-.9.7-1.5,0,0,0-.1,0-.2-.4-.7-1.1-.8-2-.4l-4,2.3-1.2-2.2,7.2-4.1,1.2,2.2-.7.4c.9.1,1.6.6,2,1.4.5.7.5,1.6.1,2.4.9,0,1.7.7,2.1,1.5.9,1.5.4,3.4-1.1,4.2-.1,0-.2.1-.3.2v.3Z"/><path d="m349.4,55.9c0,.6.3,1.2.9,1.5l-.8,2.1c-1.2-.7-2.1-1.9-2.2-3.3-.5-2.3,1-4.6,3.3-5.1.1,0,.2,0,.3,0,2.3-.3,4.5,1.3,4.9,3.6.3,2.3-1.3,4.5-3.6,4.9h-1l-.9-5.8c-.7.4-1.1,1.3-.9,2.1h0Zm3.2,1.1c.7-.3,1.2-1.1,1-1.9,0-.9-.7-1.5-1.6-1.6l.5,3.5h.1Z"/><circle class="cls-4" cx="200" cy="58.2" r="45"/><path class="cls-2" d="m191.7,92.9c-.4-.1-.7-.2-1.1-.3-2.9-.7-5.5-2.4-7.4-4.7-1.8-2-3.1-4.3-4.1-6.8v-.3h12.4c1.5,0,3,0,4.4-.5.6,1.4,1.4,2.7,2.3,4,.5.7,1,1.4,1.7,1.9,0,.4.4.5.6.7,1.6,1.6,3.8,2.6,6.1,2.6.9,0,1.6.7,1.6,1.6,0,.6-.4,1.2-.9,1.6h.5c0,.1-15.9.1-15.9.1h-.2Z"/><path class="cls-27" d="m206.8,40.5c2,0,4,.7,5.7,1.8,2.5,1.6,4.6,3.8,6,6.4,1.9,3.3,3.3,6.9,3.9,10.7.5,3.3.7,6.6.6,9.9,0,1,0,2-.4,3-.3,0-.4.2-.6.4-.7.8-1.6,1.5-2.5,2-1.9,1-4.1,1.4-6.2,1.1-1.5-.2-2.9-.6-4.1-1.4-1.3-.8-2.4-1.9-3.2-3.2,0-.9.2-1.9.2-2.8,0-1.8,0-3.7-.2-5.5-.3-2.7-.8-5.3-1.7-7.9-.9-2.9-2.5-5.6-4.6-7.8,0-.4.5-.5.7-.8,1.6-1.6,3.8-2.5,6-2.5.6,0,1.2-.3,1.4-.9.5-.8.2-1.9-.7-2.4-.1,0-.2-.1-.3-.1Zm7.8,23.2c-2,0-3.6,1.6-3.6,3.6,0,2,1.6,3.6,3.6,3.6,2,0,3.6-1.6,3.6-3.6,0-2-1.6-3.6-3.6-3.6Z"/><path class="cls-13" d="m206,71.1c.8,1.3,1.9,2.4,3.2,3.2,1.2.8,2.6,1.2,4.1,1.4,2.1.2,4.3-.1,6.2-1.1,1-.5,1.8-1.2,2.5-2,.2-.2.3-.4.6-.4-.4,3.5-1.3,6.8-2.8,10-1.2,2.8-3,5.3-5.2,7.3-1.9,1.8-4.4,3-7,3.3h-.5c.5-.4.9-1,.9-1.7,0-.9-.7-1.6-1.6-1.6,0,0,0,0,0,0-2.3,0-4.5-1-6.1-2.6-.2-.2-.6-.3-.6-.7l.6-.6c1.8-2.1,3.1-4.6,4-7.2.8-2.4,1.3-4.9,1.7-7.4h0Z"/><path class="cls-2" d="m195.9,52.8c-1.3-.5-2.8-.6-4.2-.5h-12.6c1-2.4,2.3-4.6,3.9-6.6,1.2-1.5,2.7-2.7,4.4-3.7,1.5-.9,3.1-1.3,4.8-1.4h14.5c.9.3,1.4,1.2,1.2,2.1,0,.1,0,.3-.2.4-.3.5-.8.8-1.4.9-2.2,0-4.4.9-6,2.5-.3.2-.7.3-.7.8-.4.2-.7.7-1,1-1.1,1.4-2.1,3-2.8,4.6h0Z"/><path class="cls-18" d="m214.6,63.7c2,0,3.6,1.6,3.6,3.6,0,2-1.6,3.6-3.6,3.6-2,0-3.6-1.6-3.6-3.6,0-2,1.6-3.6,3.6-3.6Z"/><path d="m161.3,51.2l.9-2.4,7.6,1-6.1-4.6.7-1.8,7.6.8-6.2-4.4.9-2.4,8.8,6.6-1,2.6-6.4-.7,5.2,3.9-1,2.6-10.9-1.2h0Z"/><path d="m176.3,31.4l5.6,5.1-1.5,1.7-.5-.5c0,.8-.3,1.7-.8,2.3-1.5,1.5-3.9,1.5-5.4,0,0,0,0,0,0,0-1.6-1.3-1.9-3.6-.6-5.3,0,0,0,0,.1-.1.5-.7,1.3-1.1,2.2-1l-.5-.5,1.5-1.7h-.1Zm1.3,4.2c-.7-.7-1.8-.8-2.5,0,0,0,0,0,0,0-.7.7-.7,1.8,0,2.4,0,0,.1.1.2.2.7.7,1.8.8,2.5,0,0,0,0,0,0,0,.7-.7.7-1.8,0-2.4,0,0-.1-.1-.2-.2Z"/><path d="m182.2,29.9l1.5,2.2c.4.5.9.3,1.7-.3l1.1,1.7c-2.3,1.9-3.5,1.6-4.7,0l-1.5-2.2-1,.7-1.2-1.8,1-.7-.8-1.2,1.5-1.8,1.2,1.9,1.3-.9,1.2,1.8-1.3.9v-.2Z"/><path d="m185.3,29.8c-.8-2,.1-4.3,2.1-5.1,0,0,.1,0,.2,0,1.3-.5,2.8-.3,3.9.5l-1.4,1.8c-.5-.4-1.1-.5-1.7-.2-.9.3-1.3,1.3-.9,2.2,0,0,0,0,0,.1.2.8,1.1,1.3,2,1.1,0,0,.2,0,.2,0,.6-.2,1-.7,1.1-1.3l2.3.3c-.2,1.4-1.2,2.6-2.5,3.1-2,.8-4.3,0-5.2-2.1,0,0,0,0,0,0h-.1Z"/><path d="m200.5,25.2l.5,4.6-2.3.2-.5-4.3c0-.7-.6-1.2-1.3-1.2,0,0-.2,0-.2,0-.8,0-1.3.6-1.2,1.7l.4,4.1-2.3.2-1.1-10.5,2.3-.2.4,3.7c.5-.7,1.2-1.1,2-1.2,1.5-.2,2.9.8,3.2,2.8h.1Z"/><path d="m214.3,29c-.5,2-2.5,3.2-4.5,2.7,0,0,0,0-.1,0-.8-.2-1.5-.8-1.9-1.6l-.2.7-2.2-.7,3.2-10.1,2.2.7-1.1,3.6c.7-.4,1.6-.5,2.4-.2,2,.7,3,2.9,2.3,4.9h0Zm-2.2-.7c.3-1-.2-2-1.2-2.3s-2,.2-2.3,1.2c-.3,1,.2,2,1.2,2.3.9.3,1.9-.1,2.3-1.1,0,0,0,0,0-.1Z"/><path d="m224.3,31.1l-4.3,6.2-1.9-1.3.4-.6c-.8.2-1.7,0-2.4-.5-1.7-1.3-2-3.6-.7-5.3,0,0,0,0,0,0,1-1.7,3.2-2.3,5-1.3,0,0,.1,0,.2.1.7.5,1.2,1.2,1.3,2l.4-.6,1.9,1.3h.1Zm-4,1.8c.6-.8.4-1.9-.4-2.5,0,0,0,0,0,0-.8-.6-1.8-.4-2.4.4,0,0,0,0,0,.1-.6.8-.4,1.9.4,2.5,0,0,0,0,0,0,.7.6,1.8.4,2.4-.3,0,0,0-.1.1-.2Z"/><path d="m228.8,40.7l-3.6,2.9-1.4-1.8,3.4-2.7c.6-.4.8-1.3.3-1.9,0,0,0,0,0,0-.4-.6-1.3-.7-1.9-.3,0,0-.1.1-.2.2l-3.2,2.6-1.4-1.8,5.9-4.7,1.4,1.8-.6.4c.8,0,1.6.4,2.1,1.1,1,1.2.9,2.9-.7,4.2h0Z"/><path d="m238.3,47.6l-9.8,4-.9-2.1.7-.3c-.8-.3-1.4-.9-1.7-1.7-.6-2.1.7-4.3,2.8-4.9,1.8-.5,3.7.3,4.6,2,.4.8.4,1.6,0,2.4l3.5-1.4.9,2.1h0Zm-7.2.5c.9-.3,1.4-1.2,1.1-2.1,0,0,0-.2-.1-.3-.3-.9-1.3-1.4-2.2-1.1,0,0-.1,0-.2,0-.9.3-1.4,1.4-1.1,2.3,0,0,0,0,0,.1.3.9,1.3,1.4,2.2,1.1,0,0,.1,0,.2,0Z"/><circle class="cls-4" cx="82.7" cy="58.2" r="45"/><path class="cls-19" d="m90,45.7h5.9c.2.4.6.3.9.4,2.7,1,4.6,3.6,4.7,6.5v33.7c0,2.5-1.4,4.7-3.6,5.9-.7.3-1.5.6-2.2.8h-30c-3.4,0-6.4-2.4-7-5.8v-34.6c0-2.1,1-4,2.7-5.2,1.3-1,2.9-1.6,4.6-1.5h24.1v-.2Zm-7.9,41.6h12.2c.5,0,1,0,1.5-.1,2.6-.6,4.3-2.9,4.2-5.5v-24.7c0-.5,0-1-.2-1.5-.6-2.5-2.8-4.2-5.4-4.1h-24.6c-3.5,0-5.8,2.2-5.8,5.7v24.4c-.1,3.1,2.3,5.7,5.4,5.8.1,0,.2,0,.4,0,4.1-.1,8.1,0,12.2,0h.1Z"/><path class="cls-17" d="m95.7,92.9c.7-.2,1.5-.5,2.2-.8,2.2-1.2,3.5-3.4,3.6-5.9v-33.6c0-2.9-1.9-5.5-4.7-6.5-.3,0-.7,0-.9-.4,1.8-.1,3.6,0,5.3.5,2.6,1,4.4,3.5,4.5,6.3v33.6c0,3.3-2.4,6-5.6,6.6-1.5.1-2.9.2-4.4.1h0Z"/><path class="cls-14" d="m90.7,83.8h-3.2c-.8,0-1.3-.4-1.3-1.1s.5-1.1,1.3-1.1h6.5c.8,0,1.3.4,1.3,1.1s-.5,1.1-1.3,1.1h-3.3Z"/><path class="cls-9" d="m73.4,57h-3.2c-.8,0-1.2-.4-1.2-1s.5-1,1.2-1h6.6c.8,0,1.2.4,1.2,1.1s-.4,1-1.2,1h-3.4Z"/><path class="cls-16" d="m99.9,55.5c-.6-2.5-2.8-4.2-5.4-4.1h-24.6c-3.5,0-5.8,2.2-5.8,5.7v24.4c-.1,3.1,2.3,5.7,5.4,5.8.1,0,.2,0,.4,0,4.1-.1,8.1,0,12.2,0h12.2c.5,0,1,0,1.5-.1,2.6-.6,4.3-2.9,4.2-5.5v-24.7c0-.5,0-1-.2-1.5h.1Zm-8.9,9.8h0c.4-.5.4-1.2-.1-1.6,0,0,0,0,0,0-1.4-1.3-3-2.2-4.8-2.8,1.8.6,3.4,1.5,4.8,2.8.6.6.7,1.2.2,1.7h0Zm-.3.2-10.1-5.2c-.4,0-.9,0-1.3.2-2.3.5-4.3,1.6-5.9,3.3h0c1.6-1.6,3.7-2.7,5.9-3.3.4-.1.9-.2,1.3-.2Zm-4.8,4.2c0,0-.1,0-.2.1,0,0,.1,0,.2-.1Zm-6.9-8.5c0-.6.5-1,1.2-1h6.6c.8,0,1.2.4,1.2,1.1s-.4,1-1.2,1h-6.6c-.8,0-1.2-.4-1.2-1h0Zm7,11.7h0c0,0,0,.1,0,.2,0,0,0-.1,0-.2Zm.8.7c-.2,0-.4,0-.5-.2.1.1.3.2.5.2.4,0,.8-.2,1.1-.5,1.1-1,2.5-1.6,4-1.7,1.7,0,3.4.5,4.6,1.7.6.6,1.3.6,1.7,0,.3-.4.3-1,0-1.4.4.5.5.9,0,1.4s-1.1.6-1.7,0c-1.2-1.2-2.9-1.8-4.6-1.7-1.5,0-3,.6-4,1.7-.3.3-.7.5-1.1.5Zm1.7,3.2c.4.2.8,0,1.2-.3.7-.6,1.5-.9,2.4-1-.9,0-1.8.4-2.4,1-.3.3-.8.4-1.2.3h0Zm3.6,5.9h0c1.1,0,2-.9,2-2,0,0,0,0,0-.1,0-1.1-.9-2-2-2,1.1,0,2,.9,2,2,0,1.1-.8,2-1.9,2.1,0,0,0,0-.1,0h0Zm3.2-5.8c.3,0,.5-.1.7-.3.4-.5.3-1.3-.2-1.7-1-.9-2.3-1.4-3.6-1.4h0c1.3,0,2.6.5,3.6,1.4.5.3.7,1,.3,1.5,0,0,0,.1-.1.2-.2.2-.5.4-.7.3h0Zm8.7,12.2h-6.5c-.8,0-1.3-.4-1.3-1.1,0-.6.6-1.1,1.2-1.1,0,0,0,0,0,0h6.5c.8,0,1.3.4,1.3,1.1,0,.6-.6,1.1-1.2,1.1,0,0,0,0,0,0h0Z"/><path d="m41.6,57.2l.8-2.6,8.1.3-6.9-4.3.6-2h8.1c0,0-7-3.9-7-3.9l.7-2.6,9.9,6.1-.8,2.8h-6.9l5.8,3.5-.8,2.8-11.6-.2h0Z"/><path d="m55.5,35l6.4,4.8-1.4,1.9-.6-.5c.2.9,0,1.8-.7,2.5-1.6,1.7-4.3,1.9-6,.3-1.5-1.4-1.8-3.6-.8-5.4.5-.8,1.3-1.3,2.2-1.3l-.6-.5,1.4-1.9h0Zm1.7,4.3c-.8-.7-2-.5-2.7.3,0,0,0,0,0,0-.6.8-.5,1.9.3,2.6,0,0,0,0,.1.1.8.7,2,.5,2.7-.3,0,0,0,0,0,0,.6-.8.5-1.9-.3-2.6,0,0,0,0-.1-.1Z"/><path d="m61.6,32.8l1.8,2.2c.4.5.9.2,1.7-.5l1.4,1.7c-2.2,2.2-3.5,2.1-4.9.3l-1.8-2.2-1,.8-1.5-1.8,1-.8-1-1.2,1.4-2.1,1.4,1.7,1.3-1,1.5,1.8-1.3,1h0Z"/><path d="m64.8,32.4c-1.1-2-.3-4.5,1.7-5.6,0,0,.1,0,.2,0,1.3-.7,2.9-.6,4.2.2l-1.3,2c-.5-.4-1.3-.4-1.8,0-.9.4-1.3,1.5-.8,2.4,0,0,0,0,0,0,.5.9,1.6,1.3,2.5.8.6-.3.9-.9,1-1.5h2.4c0,1.5-.9,2.9-2.3,3.6-2,1.1-4.5.4-5.6-1.7,0,0,0,0,0-.1h0Z"/><path d="m80.4,26l1,4.8-2.4.5-.9-4.5c0-.7-.7-1.2-1.4-1.2-.1,0-.2,0-.3,0-.7,0-1.3.8-1.2,1.5,0,.1,0,.3.1.4l.9,4.3-2.4.5-2.3-11,2.4-.5.8,3.9c.4-.8,1.1-1.3,2-1.4,1.6-.3,3.2.7,3.6,2.3,0,0,0,.2,0,.3h0Z"/><path d="m96.3,21.5l-2.3,11-2.3-.5.2-.7c-.7.5-1.6.7-2.5.5-2.2-.6-3.5-3-2.9-5.2.6-2,2.5-3.3,4.6-3,.9.1,1.6.6,2.1,1.4l.8-3.9,2.3.5h0Zm-3.8,6.5c.3-1-.3-2-1.3-2.3,0,0-.1,0-.2,0-1-.3-2,.3-2.3,1.3,0,0,0,.1,0,.2-.3,1,.3,2,1.3,2.3,0,0,.1,0,.2,0,1,.3,2-.3,2.3-1.3,0,0,0-.1,0-.2Z"/><path d="m98.3,25.8l2.2,1-3.3,7.3-2.2-1,3.3-7.3Zm.7-2.1c.3-.7,1.2-1,1.9-.7.7.3,1,1.2.7,1.9-.3.7-1.2,1-1.9.7-.7-.3-1-1.2-.7-1.9h0Z"/><path d="m104.8,36.1c-1,1.5-2.8,1.3-4.2.3-1.2-.7-1.9-2.1-1.8-3.5l2.4.2c-.2.6,0,1.2.6,1.5.5.3.8.3,1,0,.5-.7-3-2.6-1.5-4.8,1-1.4,2.7-1.3,4.1-.4,1.1.7,1.7,1.9,1.6,3.2l-2.3-.2c0-.5,0-.9-.5-1.2-.2-.2-.6-.2-.8,0-.5.8,3.1,2.5,1.4,4.9Z"/><path d="m112.6,42.3c-1.6,1.5-4.1,1.5-5.7,0,0,0,0,0,0,0-.6-.6-.9-1.5-.8-2.4l-3,2.6-1.6-1.8,8.5-7.3,1.6,1.8-.6.5c.9,0,1.7.5,2.3,1.2,1.4,1.8,1.1,4.3-.7,5.7,0,0,0,0,0,0v-.2Zm-1.6-1.8c.8-.6,1-1.7.4-2.5,0,0-.1-.2-.2-.2-.7-.8-1.9-.9-2.7-.2,0,0,0,0,0,0-.8.6-1,1.7-.4,2.5,0,0,.1.2.2.2.7.8,1.9.9,2.7.2,0,0,0,0,0,0h0Z"/><path d="m120,40.1l1.2,2.1-10.2,5.6-1.2-2.1,10.2-5.6Z"/><path d="m121.6,54.4l-7.7,2.3-.7-2.3.7-.2c-.8-.4-1.4-1.1-1.6-2-.5-2.2.8-4.4,3-4.9,2.1-.7,4.4.4,5.1,2.5,0,0,0,0,0,0,.3.9.2,1.8-.3,2.6l.7-.2.7,2.3h.1Zm-4.5-1.2c1-.2,1.6-1.1,1.4-2.1,0-.1,0-.2,0-.3-.2-1-1.2-1.6-2.2-1.4,0,0-.1,0-.2,0-1,.2-1.6,1.1-1.4,2.1,0,.1,0,.2,0,.3.2,1,1.2,1.6,2.2,1.4,0,0,.1,0,.2,0h0Z"/><path d="m122.1,65.3l-7.8-2.7c-2.5-.9-3.6-2.3-3.5-4.5h2.2c0,.9.4,1.7,1.3,2l7.6-3.2v2.6l-4.9,1.8,4.9,1.5v2.6h.2Z"/><circle class="cls-5" cx="200" cy="204.1" r="45"/><path d="m158.5,202.1l.6-2.5h7.6c0-.1-6.7-3.7-6.7-3.7l.4-1.9,7.6-.3-6.8-3.4.6-2.5,9.6,5.2-.6,2.7-6.4.3,5.7,3.1-.6,2.7-10.9.5v-.2Z"/><path d="m170.2,180.5l6.3,4.1-1.2,1.9-.6-.4c.2.8,0,1.7-.4,2.4-1.4,1.7-3.9,2-5.6.7-1.5-1.2-1.9-3.3-1.1-5,.4-.7,1.2-1.3,2-1.4l-.6-.4,1.2-1.9Zm1.9,3.9c-.7-.6-1.8-.4-2.4.3,0,0,0,.1-.1.2-.6.7-.4,1.8.3,2.3,0,0,.2.1.3.2.7.6,1.8.4,2.4-.3,0,0,0-.1.1-.2.6-.7.4-1.8-.3-2.3,0,0-.2-.1-.3-.2h0Z"/><path d="m175.6,178l1.9,1.9c.5.5.9.1,1.6-.6l1.4,1.5c-1.9,2.3-3.1,2.2-4.6.7l-1.9-1.9-.9.8-1.5-1.5.9-.8-1-1,1.1-2.1,1.5,1.5,1.1-1.1,1.5,1.5-1.1,1.1Z"/><path d="m178.5,177.4c-1.2-1.8-.7-4.3,1.1-5.5,0,0,0,0,0,0,1.2-.8,2.7-.8,3.9-.2l-1,2c-.8-.5-1.8-.2-2.3.6-.3.6-.3,1.3,0,1.8.4.8,1.4,1.1,2.2.7,0,0,.2,0,.2-.2.5-.3.8-.9.8-1.5h2.3c0,1.3-.7,2.6-1.8,3.3-1.8,1.2-4.2.7-5.4-1.1,0,0,0,0,0-.1v.2Z"/><path d="m192.4,169.8l1.4,4.4-2.1.7-1.3-4.1c-.2-.7-1-1.1-1.7-.9s-1.1,1-.9,1.7c0,0,0,.1,0,.2l1.3,3.9-2.1.7-3.3-10,2.1-.7,1.2,3.5c.3-.8,1-1.4,1.8-1.5,1.4-.5,3,.2,3.5,1.6,0,.1,0,.3.1.5h0Z"/><path d="m194.5,168.5l5.7-.4.2,2.2-5.7.4-.2-2.2Z"/><path d="m205.7,172.5c.5.1,1.1,0,1.5-.3l1.6,1.3c-.9.9-2.2,1.3-3.5,1-2.2-.2-3.7-2.2-3.5-4.3.2-2.2,2.2-3.7,4.3-3.5.1,0,.2,0,.4,0,2.1.3,3.5,2.3,3.2,4.3,0,0,0,.2,0,.3,0,.3,0,.6-.2.9l-5.2-.9c.2.8.8,1.3,1.6,1.3h-.1Zm1.8-2.5c0-.8-.6-1.4-1.4-1.4-.7-.2-1.5.2-1.8.9l3.2.5Z"/><path d="m213.4,176.8l-.5-2.4-2.1,1.3-2.4-1,4-2.4-.9-4.4,2.4,1,.5,2.2,1.9-1.2,2.4,1-3.9,2.3.9,4.6-2.4-1h.1Z"/><path d="m221.3,175.5l-1.5,2.2c-.4.5,0,.9.9,1.4l-1.2,1.7c-2.6-1.5-2.7-2.7-1.5-4.4l1.5-2.2-1-.7,1.3-1.8,1,.7.8-1.2,2.2.8-1.2,1.7,1.3.9-1.3,1.8-1.3-.9Z"/><path d="m223.9,182.6c.3.4.8.7,1.4.7l.4,2c-1.3.1-2.5-.4-3.3-1.4-1.5-1.5-1.6-4-.1-5.5,0,0,.1-.1.2-.2,1.5-1.5,4-1.5,5.5,0,1.5,1.5,1.5,4,0,5.5,0,0-.2.2-.3.3-.2.2-.4.4-.7.5l-3.6-3.9c-.3.7-.2,1.5.4,2h.1Zm2.9-.8c.5-.6.4-1.5-.2-2-.5-.6-1.3-.8-2-.4l2.2,2.4Z"/><path d="m234.2,187.3l-2.2,1.3c-.2-.9-1.2-1.5-2.1-1.3-.2,0-.3.1-.5.2l-2.9,1.7-1.1-1.9,6.5-3.8,1.1,1.9-1.2.7c1-.1,1.9.3,2.4,1.2Z"/><path d="m234.4,197l-4.4,1.4-.7-2.1,4.1-1.3c.7-.2,1.1-.9.9-1.5,0,0,0-.1,0-.2-.2-.7-.9-1.2-1.6-1,0,0-.2,0-.3,0l-3.9,1.2-.7-2.1,7.2-2.3.7,2.1-.7.2c.8.3,1.4,1,1.5,1.8.5,1.5-.3,3-1.8,3.5-.1,0-.2,0-.3,0h0Z"/><path d="m237.9,206.7l-7.5.2v-2.2h.6c-.7-.5-1-1.4-1-2.2,0-2.1,1.7-3.7,3.8-3.7,2.1-.1,3.9,1.4,4.1,3.5,0,.8-.2,1.7-.8,2.3h.7v2.2h0Zm-3.8-2.1c1,0,1.8-.7,1.8-1.7,0,0,0,0,0-.1,0-.9-.7-1.7-1.7-1.7,0,0-.2,0-.2,0-1,0-1.8.8-1.8,1.8,0,0,0,0,0,0,0,.9.7,1.7,1.7,1.7,0,0,.2,0,.2,0h0Z"/><path d="m240.9,209.9l-.4,2.2-10.8-1.8.4-2.2,10.8,1.8Z"/><path class="cls-23" d="m209.5,230c-1,2.4-2.1,4.7-3.1,7.1-.4.7-1.1,1.3-1.9,1.5h-12.7c-1.1-.4-2-1.3-2.4-2.4-.8-1.9-1.7-3.8-2.5-5.7,0-.2-.1-.3-.2-.5h22.8,0Z"/><path class="cls-12" d="m209.5,230h-22.9c-.7,0-1.3,0-2-.1-2.3-.5-3.9-2.6-3.8-5v-28.2c-.1-2.2,1.2-4.2,3.3-4.8.6-.2,1.1-.2,1.7-.2h23.7c.7,0,1.3,0,2,.1,2.1.4,3.7,2.2,3.8,4.4v28.7c.1,2.3-1.5,4.4-3.8,4.9-.7.1-1.3,0-2,.1h0Zm.6-34.5h-24.2c-1,0-1.2.2-1.2,1.2v26.5c-.2.5-.2,1.2,0,1.7.2,1,.3,1.1,1.4,1.1h24.1c1,0,1.3-.3,1.3-1.3v-28.3c0-.6-.5-1-1.1-.9,0,0-.2,0-.2,0h-.1,0Z"/><path class="cls-23" d="m209.5,191.7h-22.9c.7-1.6,1.4-3.2,2.1-4.9.3-.6.5-1.3.8-1.9.5-1.1,1.7-1.9,2.9-1.8h11.3c1.1,0,2.1.5,2.6,1.5,1.1,2.3,2.1,4.7,3.1,7.1h0Z"/><path class="cls-25" d="m215.3,205.1v-8.6h1.8c1.1,0,2,.8,2.1,1.9,0,0,0,0,0,.1v4.7c0,1.1-.9,2-2,2,0,0,0,0-.1,0h-1.8Z"/><path class="cls-10" d="m210.1,195.6c.6-.2,1.2.2,1.4.8,0,0,0,0,0,0v28.5c0,1-.3,1.3-1.3,1.3h-24.1c-1.1,0-1.2,0-1.4-1.1-.1-.6-.1-1.1,0-1.7.3-.6.1-1.2.2-1.9.2-1.4.4-2.8.7-4.2.4-2,1-4,1.8-5.9,1.2-2.8,2.9-5.4,5-7.6,1.5-1.6,3.3-3,5.2-4.1,3.2-1.9,6.8-3.2,10.5-3.8.7,0,1.3-.2,2-.3h0Zm-11,10.2v-4.4c0-.5-.3-1-.8-1,0,0,0,0,0,0-.5,0-.9.3-1,.8,0,0,0,.1,0,.2v9.2c0,.5.2.9.5,1.3,2.1,2,4.1,4.1,6.2,6.2l.4.4c.4.3,1,.2,1.2-.2,0,0,0,0,0,0,.2-.3.2-.7,0-1-.1-.2-.3-.3-.4-.4l-5.8-5.8c-.2-.2-.3-.5-.3-.8v-4.4h0Z"/><path class="cls-11" d="m210.1,195.6c-.7.2-1.3.3-2,.3-3.7.6-7.3,1.9-10.5,3.8-1.9,1.1-3.7,2.5-5.2,4.1-2.1,2.2-3.8,4.8-5,7.6-.8,1.9-1.4,3.9-1.8,5.9-.3,1.4-.5,2.8-.7,4.2,0,.6,0,1.3-.2,1.9v-26.5c0-1,.2-1.2,1.2-1.2h24.2Z"/><path class="cls-1" d="m199,205.7v4.3c0,.3.1.6.3.8l5.8,5.8.4.4c.3.4.2,1-.2,1.2,0,0,0,0,0,0-.3.2-.7.2-1,0-.2,0-.3-.2-.4-.4l-6.2-6.2c-.4-.3-.6-.8-.5-1.3v-9.2c0-.5.4-1,.9-1,0,0,0,0,.1,0,.5,0,.9.4.9.9,0,0,0,0,0,0v4.5h0Z"/></svg>