<?xml version="1.0" encoding="UTF-8"?><svg id="Layer_1" xmlns="http://www.w3.org/2000/svg" viewBox="0 0 400 400"><defs><style>.cls-1{fill:#bbeb6c;}.cls-2{fill:#68d4f0;}.cls-3{fill:#f3c64b;}.cls-4{fill:#c7eefd;}.cls-5{fill:#fff;}.cls-6{fill:#6c7fd7;}.cls-7{stroke:#0018c6;}.cls-7,.cls-8,.cls-9{stroke-width:4px;}.cls-7,.cls-8,.cls-9,.cls-10{stroke-miterlimit:10;}.cls-7,.cls-8,.cls-9,.cls-10,.cls-11{fill:none;}.cls-8{stroke:#c000e2;}.cls-12{fill:#010100;}.cls-13{fill:#4f66cf;}.cls-14{fill:#f66c82;}.cls-15{fill:#636c77;}.cls-16{fill:#c9f674;}.cls-17{fill:#020202;}.cls-18{fill:#fbcc57;}.cls-9{stroke:#00b51e;}.cls-19{fill:#e9f5fe;}.cls-10{stroke:#231f20;stroke-width:2px;}.cls-20{fill:#e2e9f1;}.cls-21{fill:#c5deea;}.cls-22{fill:#396ebc;}.cls-23{fill:#e5ecf3;}.cls-24{fill:#073856;}.cls-25{fill:#8e9da9;}.cls-26{fill:#c3dbe6;}.cls-27{fill:#999;}.cls-28{fill:#99e4fb;}.cls-29{fill:#a6e9f7;}.cls-30{fill:#e3eaf2;}.cls-31{fill:#db411d;}.cls-32{fill:#231f20;}.cls-33{fill:#666;}.cls-34{fill:#010101;}.cls-35{fill:#69d4f0;}.cls-36{fill:#b72b06;}.cls-37{fill:#ec6363;}</style></defs><line class="cls-5" x1="199.8" y1="250.7" x2="200.2" y2="283.5"/><line class="cls-10" x1="199.8" y1="250.7" x2="200.1" y2="272.7"/><polygon class="cls-32" points="192.6 270.7 200.2 283.5 207.5 270.4 192.6 270.7"/><line class="cls-11" x1="154.7" y1="115.1" x2="188.3" y2="142.3"/><line class="cls-10" x1="154.7" y1="115.1" x2="179.9" y2="135.5"/><polygon class="cls-32" points="173.6 140 188.3 142.3 182.9 128.4 173.6 140"/><line class="cls-11" x1="245.3" y1="115.1" x2="211.7" y2="142.3"/><line class="cls-10" x1="245.3" y1="115.1" x2="220.1" y2="135.5"/><polygon class="cls-32" points="217.1 128.4 211.7 142.3 226.4 140 217.1 128.4"/><circle class="cls-8" cx="200" cy="196.4" r="45"/><path d="m159.5,196.6l.6-2.5h7.6c0-.1-6.7-3.7-6.7-3.7l.4-1.9,7.6-.3-6.8-3.4.6-2.5,9.6,5.2-.6,2.7-6.4.3,5.7,3.1-.6,2.7-10.9.5v-.2Z"/><path d="m171.1,174.9l6.3,4.1-1.2,1.9-.6-.4c.2.8,0,1.7-.4,2.4-1.4,1.7-3.9,2-5.6.7-1.5-1.2-1.9-3.3-1.1-5,.4-.7,1.2-1.3,2-1.4l-.6-.4,1.2-1.9Zm1.9,3.9c-.7-.6-1.8-.4-2.4.3,0,0,0,.1-.1.2-.6.7-.4,1.8.3,2.3,0,0,.2.1.3.2.7.6,1.8.4,2.4-.3,0,0,0-.1.1-.2.6-.7.4-1.8-.3-2.3,0,0-.2-.1-.3-.2h0Z"/><path d="m176.6,172.5l1.9,1.9c.5.5.9.1,1.6-.6l1.4,1.5c-1.9,2.3-3.1,2.2-4.6.7l-1.9-1.9-.9.8-1.5-1.5.9-.8-1-1,1.1-2.1,1.5,1.5,1.1-1.1,1.5,1.5-1.1,1.1Z"/><path d="m179.5,171.8c-1.2-1.8-.7-4.3,1.1-5.5,0,0,0,0,0,0,1.2-.8,2.7-.8,3.9-.2l-1,2c-.8-.5-1.8-.2-2.3.6-.3.6-.3,1.3,0,1.8.4.8,1.4,1.1,2.2.7,0,0,.2,0,.2-.2.6-.3.9-.9.8-1.5h2.3c0,1.3-.7,2.6-1.8,3.3-1.8,1.2-4.2.7-5.4-1.1,0,0,0,0,0-.1v.2Z"/><path d="m193.4,164.3l1.4,4.4-2.1.7-1.3-4.1c-.2-.7-1-1.1-1.7-.9s-1.1,1-.9,1.7c0,0,0,.1,0,.2l1.3,3.9-2.1.7-3.3-10,2.1-.7,1.2,3.5c.3-.8.9-1.3,1.7-1.5,1.4-.5,3,.2,3.5,1.6,0,.1,0,.3.1.5Z"/><path d="m195.4,163l5.7-.4.2,2.2-5.7.4-.2-2.2Z"/><path d="m202.5,165.7l2.2-.8c.2.9.9,1.7,1.9,1.8,1.1.2,1.5-.2,1.5-.6.1-.6-.4-1-1.9-1.7s-2.8-1.7-2.5-3.7c.3-1.8,2-3,3.8-2.6,0,0,.1,0,.2,0,1.6.2,3,1.4,3.4,3l-2.2.8c-.1-.8-.8-1.4-1.6-1.5-.7-.1-1.2.2-1.2.6s.1.8,1.6,1.6c1.5.8,3.2,1.6,2.8,3.8-.3,2-2.1,2.9-4.4,2.5-2.3-.4-3.4-1.6-3.7-3.3h0Z"/><path d="m214.9,169.6c.5.3,1,.3,1.5,0l1.2,1.7c-1.1.6-2.5.6-3.6,0-2-.8-3-3.2-2.2-5.2,0,0,0-.1,0-.2.9-2,3.2-2.8,5.2-2,0,0,0,0,.1,0,1.9.9,2.7,3.2,1.8,5.1,0,0,0,0,0,0-.1.3-.3.6-.5.8l-4.8-2.3c0,.8.5,1.5,1.2,1.7v.2Zm2.4-1.9c.2-.7-.2-1.5-.9-1.8-.7-.4-1.5-.2-2,.4l2.9,1.4Z"/><path d="m226.4,174.4l-3,3.5-1.7-1.5,2.8-3.3c.5-.5.5-1.3,0-1.8,0,0,0,0,0,0-.6-.5-1.5-.4-2,.2,0,0,0,0-.1.1l-2.7,3.1-1.7-1.5,4.9-5.7,1.7,1.5-.5.5c.8-.2,1.7,0,2.2.7,1.2,1,1.4,2.6.1,4.2h.1Z"/><path d="m229.2,182c-1.4,1-2.9.2-3.8-1.1-.9-1-1.1-2.5-.4-3.7l2,.9c-.4.5-.4,1.1,0,1.6.3.4.6.6.9.4.7-.5-1.9-3.2.3-4.7,1.3-1,2.8-.3,3.7.9.7.9.9,2.2.4,3.3l-2-.9c.2-.4.2-.8,0-1.2-.1-.3-.4-.4-.7-.3-.7.5,1.9,3.2-.3,4.8h0Z"/><path d="m231,182c2-.9,4.3,0,5.1,2,0,0,0,.1,0,.2.9,1.9,0,4.2-1.9,5.1,0,0-.1,0-.2,0-2,.9-4.4-.1-5.2-2.1s.1-4.4,2.1-5.2h0Zm2.2,5.3c.9-.4,1.3-1.4.9-2.3-.4-.9-1.4-1.3-2.3-.9-.9.4-1.3,1.4-.9,2.3.3.9,1.3,1.3,2.2.9,0,0,0,0,.1,0Z"/><path d="m238.8,194.6l-2.5.4c0-1-.6-1.8-1.6-1.9-.2,0-.4,0-.5,0l-3.3.6-.4-2.2,7.4-1.3.4,2.2-1.3.2c1,.2,1.7,1,1.8,2Z"/><path d="m233.5,202.2c-1.7,0-2.4-1.5-2.4-3.2-.1-1.3.6-2.6,1.8-3.2l1.1,2c-.6.2-1,.7-.9,1.3,0,.5.2.8.5.8.8,0,.5-3.7,3-3.6,1.6,0,2.4,1.4,2.4,3,0,1.2-.6,2.3-1.7,2.9l-1-1.9c.4-.2.7-.6.7-1,0-.4-.1-.6-.4-.6-.9,0-.3,3.7-3.1,3.6h0Z"/><path class="cls-15" d="m203.2,192.3h4.6c1.5,0,2.8,1,2.9,2.5,0,.1,0,.2,0,.4v15.4c0,2.1-1.1,3.2-3.1,3.2h-15.1c-1.5.2-2.9-.9-3.1-2.5,0-.2,0-.4,0-.6v-15.1c0-2.1,1.1-3.2,3.1-3.2h10.7Zm1,6.1v-1.4c0-.4-.4-.6-.8-.6-.4,0-.7.3-.8.6v1.1h-1.7v-.9c0-.4-.3-.8-.8-.8,0,0,0,0,0,0-.4,0-.8.4-.8.8v.9h-1.7v-.9c0-.4-.4-.8-.8-.8s-.8.4-.8.8h0v1.2l-.5.5h-1.1c-.5,0-.9.3-.9.7,0,0,0,0,0,0,0,.5.4.8.9.8h.8v1.7h-.9c-.4,0-.8.4-.8.8s.4.8.8.8h.9v1.7h-.8c-.4,0-.8.3-.8.7,0,0,0,0,0,.1,0,.4.3.8.8.8,0,0,0,0,0,0h1.2l.5.5v1.3c0,.4.4.7.8.7.4,0,.7-.3.8-.7v-1h1.7v.9c0,.4.4.8.8.8s.8-.4.8-.8v-.9h1.7v.9c0,.4.4.8.8.8s.8-.4.8-.8v-1.2l.5-.5h1.2c.5,0,.9-.4.8-.8,0-.4-.3-.8-.8-.8,0,0,0,0,0,0h-.8v-1.7h.9c.4,0,.8-.4.8-.8s-.4-.8-.8-.8h-.9v-1.7h.8c.5,0,.9-.3.9-.8,0-.5-.4-.8-.8-.8,0,0,0,0,0,0h-1.1l-.5-.5h-.2Z"/><path class="cls-2" d="m177.2,194.5c0,.3-.1.5-.3.7-2.1,2.1-3.2,5-3.2,8,0,2.9,1.1,5.7,3.2,7.7.3.3.5.7.3,1.1-.2.4-.7.6-1.1.3-.1,0-.2-.1-.3-.2-1.3-1.2-2.3-2.8-2.8-4.5-1.8-4.6-.7-9.8,2.7-13.3l.4-.4c.2-.2.6-.2.8,0,.3.1.4.4.4.7h0Z"/><path class="cls-2" d="m208.5,180.2c-.3,0-.5-.2-.7-.4-4.4-4.2-11.3-4.1-15.7.1-.5.5-1,.5-1.3,0-.3-.3-.2-.7,0-1,0,0,0,0,.1,0,5-4.8,12.9-4.8,17.9-.1.2.1.3.3.4.5.2.4,0,.8-.3,1-.1,0-.3.1-.4,0h0Z"/><path class="cls-2" d="m227.9,203c0,3.3-1.2,6.5-3.5,8.9l-.2.2c-.3.3-.8.2-1.1,0-.3-.3-.3-.7,0-1,.7-.7,1.3-1.5,1.8-2.4,2.5-4.3,1.8-9.8-1.7-13.4-.4-.3-.4-.7-.2-1.1.2-.4.7-.5,1-.3.1,0,.2.2.3.3,1.5,1.6,2.6,3.5,3.2,5.6.3,1.1.5,2.2.5,3.4h-.1Z"/><path class="cls-2" d="m200,230.9c-3.3,0-6.4-1.2-8.8-3.5l-.2-.2c-.3-.2-.4-.7-.1-1.1,0,0,0-.1.1-.1.3-.3.8-.3,1.2,0,0,0,0,0,0,0,.7.7,1.5,1.3,2.3,1.8,4.3,2.5,9.8,1.8,13.4-1.7.3-.3.7-.4,1.1-.3.5.3.6.9,0,1.4-1.6,1.5-3.5,2.6-5.6,3.2-1.1.3-2.2.5-3.4.5Z"/><path class="cls-2" d="m200.3,227.1c-2.4,0-4.8-.8-6.6-2.5-.4-.3-.4-.7-.2-1.1.2-.4.7-.5,1-.3.1,0,.2.2.3.3,2.9,2.7,7.2,2.7,10.2.2l.2-.2c.2-.3.7-.4,1.1-.1,0,0,.1,0,.1.1.3.3.3.8,0,1.2,0,0,0,0,0,0-1,1-2.2,1.8-3.6,2.2-.8.3-1.6.4-2.4.4v-.2Z"/><path class="cls-2" d="m199.6,178.9c2.5,0,4.9.8,6.7,2.5.5.5.5.9.2,1.3s-.8.3-1.3-.1c-2.9-2.7-7.3-2.7-10.2,0-.5.5-.9.5-1.3.1s-.3-.8.1-1.2c1.5-1.6,3.6-2.5,5.8-2.5h0Z"/><path class="cls-2" d="m175.9,203c0-2.3.9-4.5,2.4-6.2.5-.5.9-.6,1.3-.2s.3.8-.2,1.3c-2.7,2.9-2.7,7.3,0,10.2.3.3.4.7.3,1.1-.2.4-.7.5-1,.3-.1,0-.2-.2-.3-.3-1.3-1.2-2.1-2.9-2.4-4.6,0-.6-.1-1.1-.1-1.7h0Z"/><path class="cls-2" d="m224.1,203.1c0,2.3-.9,4.6-2.5,6.2-.5.5-.9.6-1.3.2s-.3-.8.1-1.3c2.7-2.9,2.7-7.4,0-10.3-.4-.5-.5-.9-.1-1.2s.8-.3,1.3.1c1.6,1.7,2.5,4,2.5,6.3Z"/><path class="cls-14" d="m196.8,213.8h6v2c0,1.1-.9,2-2,2h-2.1c-1.1,0-2-.9-2-2v-2h.1Z"/><path class="cls-14" d="m203.2,192.3h-6v-2c0-1.1.9-2,2-2h2.1c1.1,0,2,.9,2,2v2h-.1Z"/><path class="cls-14" d="m189.3,199.8v6h-2c-1.1,0-2-.9-2-2v-2.1c0-1.1.9-2,2-2h2Z"/><path class="cls-14" d="m210.8,206.2v-6h2c1.1,0,2,.9,2,2v2.1c0,1.1-.9,2-2,2h-2Z"/><path class="cls-35" d="m220.3,203c0,1.4-.5,2.7-1.5,3.6-.4.4-.8.5-1.1.1-.3-.3-.3-.8,0-1.2,0,0,0,0,0,0,1.4-1.4,1.4-3.7,0-5.1-.3-.3-.3-.9,0-1.2.3-.4.7-.3,1.1,0,1,1,1.5,2.3,1.5,3.7h0Z"/><path class="cls-35" d="m200,182.7c1.3,0,2.6.5,3.5,1.4.5.5.6.9.3,1.3-.3.4-.8.4-1.2.1,0,0,0,0-.1-.1-1.1-.9-2.6-1.2-3.9-.7-.4.2-.8.4-1.1.7-.5.4-.9.4-1.2,0-.3-.3-.3-.8,0-1.1,0,0,0,0,.2-.1,1-.9,2.3-1.4,3.6-1.4h-.1Z"/><path class="cls-35" d="m200,223.3c-1.3,0-2.5-.5-3.5-1.3-.6-.5-.6-.9-.3-1.3s.8-.4,1.3,0c1.1,1,2.8,1.3,4.1.5l.9-.6c.3-.3.8-.4,1.1,0,0,0,0,0,0,0,.3.3.3.7-.1,1.1-1,.9-2.3,1.5-3.6,1.5h0Z"/><path class="cls-35" d="m179.7,203c0-1.3.5-2.6,1.4-3.5.5-.6.9-.6,1.3-.3s.4.8,0,1.3c-.9,1.1-1.2,2.6-.6,3.9.2.4.4.8.7,1.1.4.5.4.9,0,1.2-.4.4-.8.3-1.2-.2-.9-1-1.5-2.3-1.4-3.6h-.2Z"/><path class="cls-18" d="m205,203.8v1.7c0,.6,0,1.1-.3,1.6l-.5.5c-.5.2-1.1.3-1.6.3h-5.1c-.6,0-1.1,0-1.6-.3l-.5-.5c-.2-.5-.3-1-.3-1.6v-5.1c0-.6,0-1.1.3-1.6l.5-.5c.5-.2,1-.3,1.6-.3h5.1c.6,0,1.1,0,1.6.3l.5.5c.2.5.3,1.1.3,1.6v3.4h0Z"/><path class="cls-26" d="m205,200.5c0-.6,0-1.1-.3-1.6h1.1c.5,0,.9.3.9.7,0,0,0,0,0,0,0,.5-.4.8-.9.8h-.8Z"/><path class="cls-26" d="m204.7,207.1c.2-.5.3-1.1.3-1.6h.8c.4,0,.8.3.8.7,0,0,0,0,0,.1,0,.4-.3.8-.8.8,0,0,0,0,0,0h-1.1Z"/><path class="cls-26" d="m195.9,207.7c.5.2,1.1.3,1.6.3v1c0,.4-.4.7-.8.7-.4,0-.7-.3-.8-.7v-1.3Z"/><path class="cls-26" d="m202.5,208c.6,0,1.1,0,1.6-.3v1.2c0,.4-.3.8-.7.8,0,0,0,0-.1,0-.5,0-.7-.3-.8-.8v-.9Z"/><path class="cls-26" d="m197.5,198c-.6,0-1.1,0-1.6.3v-1.2c0-.4.3-.8.7-.8,0,0,0,0,.1,0,.5,0,.7.3.8.8v.9Z"/><path class="cls-26" d="m204.1,198.4c-.5-.2-1-.3-1.6-.3v-1.1c0-.4.4-.6.8-.6.4,0,.7.2.8.6,0,.5,0,.9,0,1.4Z"/><path class="cls-26" d="m195.4,198.9c-.2.5-.3,1-.3,1.6h-.8c-.5,0-.9-.3-.9-.8,0-.5.4-.8.8-.8,0,0,0,0,0,0h1.1Z"/><path class="cls-26" d="m195,205.5c0,.6,0,1.1.3,1.6h-1.2c-.5,0-.9-.4-.8-.8,0-.4.3-.8.8-.8,0,0,0,0,0,0h.9Z"/><path class="cls-21" d="m200.8,198h-1.6v-.9c0-.4.4-.8.8-.8s.8.4.8.8v.9Z"/><path class="cls-21" d="m195,202.2v1.6h-.9c-.4,0-.8-.3-.8-.8,0,0,0,0,0,0,0-.4.4-.8.8-.8h.9Z"/><path class="cls-21" d="m205,203.8v-1.6h.9c.4,0,.8.3.8.8,0,0,0,0,0,0,0,.4-.4.8-.8.8h-.9Z"/><path class="cls-21" d="m199.2,208h1.6v.9c0,.4-.3.8-.8.8,0,0,0,0,0,0-.4,0-.8-.4-.8-.8v-.9Z"/><circle class="cls-7" cx="287.1" cy="62.3" r="45"/><path class="cls-22" d="m272.1,68.5v-17.3c-.2-3.5,2.5-6.5,6-6.7.2,0,.5,0,.7,0h16.5c3.5-.2,6.5,2.4,6.7,5.9,0,.3,0,.5,0,.8v34.8c.2,3.5-2.5,6.5-6,6.7-.2,0-.5,0-.7,0h-16.5c-3.5.2-6.5-2.4-6.7-5.9,0-.3,0-.6,0-.8v-17.5Zm1.5,0v17.5c-.2,2.6,1.8,4.9,4.4,5.1.2,0,.4,0,.7,0h16.7c2.6.2,4.9-1.8,5.1-4.4,0-.2,0-.4,0-.7v-34.9c.2-2.6-1.8-4.9-4.4-5.1-.2,0-.4,0-.7,0h-16.7c-2.6-.2-4.9,1.8-5.1,4.4,0,.2,0,.4,0,.7v17.4h0Z"/><path class="cls-34" d="m273.6,68.6v-17.5c-.2-2.6,1.8-4.9,4.4-5.1.2,0,.4,0,.7,0h16.7c2.6-.2,4.9,1.8,5.1,4.4,0,.2,0,.4,0,.7v34.9c.2,2.6-1.8,4.9-4.4,5.1-.2,0-.4,0-.7,0h-16.7c-2.6.2-4.9-1.8-5.1-4.4,0-.2,0-.4,0-.7v-17.4h0Zm1.5,0v17.4c-.2,1.8,1.1,3.4,2.9,3.6.2,0,.5,0,.7,0h16.5c1.8.2,3.4-1.1,3.6-2.9,0-.2,0-.5,0-.7v-34.8c.2-1.8-1.1-3.4-2.9-3.6-.2,0-.5,0-.7,0h-16.5c-2.4,0-3.6,1.3-3.6,3.6v17.4h0Z"/><path class="cls-3" d="m275.2,68.6v-17.4c-.2-1.8,1.1-3.4,2.9-3.6.2,0,.5,0,.7,0h16.5c2.4,0,3.6,1.3,3.6,3.6v34.8c.2,1.8-1.1,3.4-2.9,3.6-.2,0-.5,0-.7,0h-16.5c-1.8.2-3.4-1.1-3.6-2.9,0-.2,0-.5,0-.7v-17.4Zm12.6-1.6c.1-.4.5-.6.7-.9.3-.5.7-.5,1.2-.2.7.4,1.4.7,2.1,1.1.7.4,1.6.4,2.3,0,1.1-.8,2.3-1.6,3.4-2.4,1-.7,1.3-2,.6-3,0,0,0,0,0,0-.7-1-2-1.2-2.9-.6,0,0,0,0,0,0-.7.4-1.4.9-2,1.4-.2,0-.3.3-.6.2-.5-.2-.9-.5-1.5-.7,2.1-.8,2.9-2.1,2.4-3.7-.5-1.4-1.9-2.2-3.4-1.9-.7.2-1.3.6-1.7,1.2-.6.9-.6,2.1,0,3-1-.5-1.9-1-2.7-1.4-.8-.5-1.8-.4-2.5.3-1.2,1-2.4,2.1-3.6,3.1-.9.7-1.1,2-.4,3,0,0,0,0,0,0,.6.9,1.9,1.1,2.8.5.1,0,.2-.2.3-.3l2.2-1.9c.2,0,.3-.4.8-.2-.7.8-1.4,1.5-2.1,2.2-2.2,2.1-4.3,4.2-6.5,6.3-.9.7-1,2-.3,2.8,0,.1.2.2.3.3.8.8,2.2.8,3,0,.5-.5,1.1-1,1.6-1.5,1.1-1.1,2.2-2.1,3.3-3.2.3-.2.5-.3.7,0s0,.4-.2.5c-.4.5-.9.9-1.3,1.4-.8.9-.7,2.3.2,3,.8.7,2.1.7,2.9,0,1.2-1.2,2.4-2.5,3.5-3.8.8-.8.8-2,0-2.8-.2-.2-.4-.4-.7-.5-.6-.4-1.2-.7-1.8-1h0v-.3Zm-.6,11.8h-6.4c-.6,0-1.1,0-1.1.8s.5.8,1.1.8h12.7c.6,0,1.1,0,1.1-.8s-.5-.8-1.1-.8h-6.3Zm-.2,4.3h6.4c.6,0,1.1,0,1.1-.8s-.5-.8-1.1-.8h-12.7c-.6,0-1.1,0-1.1.8s.5.8,1.1.8h6.3Zm4.2,2.8h2.5c.5,0,.9-.2.9-.8s-.4-.8-.9-.8h-4.9c-.5,0-.9.2-.9.7s.4.8.9.8h2.4Zm-4.1-35.7h-1.5c-.4,0-.8.3-.8.7,0,0,0,0,0,.1,0,.5.3.7.8.7h3c.4,0,.8-.4.8-.8,0-.4-.4-.8-.8-.8h-1.5Z"/><path class="cls-17" d="m287.8,67c.6.3,1.2.7,1.8,1,1,.5,1.5,1.7,1,2.7,0,.2-.2.4-.4.6-1.1,1.3-2.3,2.6-3.5,3.8-.7.8-2,.9-2.8.2,0,0-.1-.1-.2-.2-.8-.8-.9-2.1-.1-3,.4-.5.9-.9,1.3-1.4.1,0,.5-.3.2-.5s-.5-.2-.7,0c-1.1,1.1-2.2,2.1-3.3,3.2-.5.5-1.1,1-1.6,1.5-.7.8-2,.9-2.8.2,0,0-.1-.1-.2-.2-.9-.8-.9-2.1-.1-3,0,0,0,0,.1-.1,2.2-2.1,4.3-4.2,6.5-6.3.7-.7,1.4-1.5,2.1-2.2-.4-.2-.6,0-.8.2-.7.6-1.4,1.3-2.2,1.9-.9.8-2.3.7-3.1-.2,0,0,0,0,0,0-.7-.9-.6-2.3.4-3,0,0,0,0,0,0,1.2-1.1,2.4-2.1,3.6-3.1.7-.6,1.7-.8,2.5-.3.9.5,1.7.9,2.7,1.4-.5-.9-.5-2.1,0-3,.4-.6,1-1,1.7-1.2,1.5-.4,2.9.5,3.4,1.9.5,1.6-.3,2.9-2.4,3.7.5.3,1,.5,1.5.7.3,0,.4,0,.6-.2.6-.5,1.3-1,2-1.4.9-.7,2.2-.5,2.9.4,0,0,0,0,0,0,.7.9.5,2.2-.4,2.9,0,0-.1,0-.2.1-1.1.8-2.3,1.6-3.4,2.4-.7.5-1.6.5-2.3,0-.7-.4-1.4-.7-2.1-1.1-.5-.3-.8-.3-1.2.2-.3.3-.5.6-.7.9v.3Zm-2.7,7.3c.3,0,.5-.2.6-.4l3.1-3.4c.5-.6.5-.8-.2-1.3s-1.5-.8-2.3-1.3-.9-.9-.2-1.6c.8-.9,1.7-1.8,2.5-2.7.6-.7.6-.9-.2-1.4-1.2-.6-2.4-1.3-3.5-1.9-.3-.2-.7-.2-1,0-1.1,1-2.3,2-3.5,3-.3.3-.5.6-.2.9s.7.2,1,0l1.8-1.5c1.8-1.5,1.2-1.5,3.4-.3.9.5.9.9.3,1.6-.9.9-1.7,1.8-2.6,2.8-.5.6-.5.8.2,1.2s1.5.8,2.3,1.3.9.9.3,1.6-1.3,1.4-2,2.2c-.2.2-.3.5-.2.8,0,.2.3.3.5.3h-.1Zm11.8-11.6c0-.5-.6-.7-1.1-.4-.8.6-1.7,1.1-2.5,1.7-.4.4-.9.4-1.3,0l-1.2-.6c-.3,0-.4,0-.4.2s-.6.5-.2.8c.7.4,1.6.8,2.3,1.2.2,0,.4,0,.6-.2,1.1-.7,2.2-1.5,3.2-2.2.2-.2.4-.3.4-.6h.2Zm-13.8,6.7c-.2-.2-.3-.4-.5-.6s-.3-.3-.6,0c-1.5,1.5-3.1,3-4.6,4.4-.3.3-.4.6-.1.9s.6.2.9,0c1.6-1.6,3.3-3.1,4.8-4.6h.1Zm6.3-10.4c0,.7.6,1.3,1.3,1.3.7,0,1.2-.6,1.2-1.3,0,0,0,0,0,0,0-.7-.5-1.2-1.2-1.3-.7,0-1.3.6-1.3,1.3h0Z"/><path class="cls-12" d="m287.2,78.8h6.3c.6,0,1.1,0,1.1.8s-.5.8-1.1.8h-12.7c-.6,0-1.1,0-1.1-.8s.5-.8,1.1-.8h6.4Z"/><path class="cls-12" d="m287,83.1h-6.3c-.6,0-1.1,0-1.1-.8s.5-.8,1.1-.8h12.7c.6,0,1.1,0,1.1.8s-.5.8-1.1.8h-6.4Z"/><path class="cls-34" d="m291.2,85.9h-2.4c-.5,0-.9-.2-.9-.8s.4-.7.9-.7h4.9c.5,0,.9.2.9.8s-.3.8-.9.8h-2.5Z"/><path class="cls-17" d="m287.1,50.2h1.5c.4,0,.8.4.8.8,0,.4-.4.8-.8.8h-3c-.4,0-.7-.2-.8-.6,0,0,0,0,0,0,0-.4.3-.8.7-.8,0,0,0,0,.1,0h1.5Z"/><path class="cls-23" d="m285.1,74.3c-.2,0-.4-.1-.5-.3,0-.3,0-.6.2-.8.7-.7,1.3-1.4,2-2.2s.6-1.1-.3-1.6-1.5-.8-2.3-1.3-.7-.6-.2-1.2c.8-.9,1.7-1.8,2.6-2.8.7-.7.6-1.1-.3-1.6-2.2-1.1-1.6-1.2-3.4.3l-1.8,1.5c-.3.3-.7.4-1,0s0-.7.2-.9c1.2-1,2.3-2,3.5-3,.4-.3.7-.3,1,0,1.2.6,2.4,1.3,3.5,1.9.8.4.8.7.2,1.4-.8.9-1.7,1.8-2.5,2.7-.6.7-.6,1.1.2,1.6s1.5.8,2.3,1.3.8.7.2,1.3l-3.1,3.4c-.2.2-.4.4-.6.4h.1Z"/><path class="cls-30" d="m297,62.7c0,.3-.2.4-.4.6-1.1.7-2.2,1.5-3.2,2.2-.2,0-.4.3-.6.2-.8-.3-1.6-.7-2.3-1.2-.4-.3.1-.5.2-.8s.1-.4.4-.2l1.2.6c.4.3.9.3,1.3,0,.8-.6,1.6-1.2,2.5-1.7.5-.3,1-.2,1.1.4h-.2Z"/><path class="cls-20" d="m283.2,69.4c-1.6,1.5-3.2,3.1-4.8,4.6-.3.3-.6.4-.9,0s-.2-.6.1-.9c1.5-1.5,3.1-2.9,4.6-4.4s.4-.2.6,0,.3.3.5.6h-.1Z"/><path class="cls-23" d="m289.4,58.9c0-.7.6-1.3,1.3-1.3.7,0,1.2.6,1.2,1.3,0,0,0,0,0,0,0,.7-.5,1.2-1.2,1.3-.7,0-1.3-.6-1.3-1.3Z"/><path d="m249.7,65h2.3v-4.5h2.7v4.5h4.4v2.7h-12.1v-7.3h2.7v4.6Z"/><path d="m248.6,57.5c-.8-.2-1.4-1-1.2-1.8s1-1.4,1.8-1.2c.8.2,1.4,1,1.2,1.8,0,0,0,0,0,0-.2.8-1,1.3-1.8,1.2Zm2.3.2l.5-2.5,8.4,1.7-.5,2.5-8.4-1.7Z"/><path d="m255.7,50.3l2.8,1.1c.7.3,1-.3,1.3-1.4l2.2.9c-.9,3.3-2.2,3.8-4.5,2.9l-2.8-1.1-.5,1.3-2.3-.9.5-1.3-1.5-.6.2-2.7,2.2.9.7-1.6,2.3.9-.7,1.7h.1Z"/><path d="m263.1,40.2l4.2,3.2-1.5,2.1-3.9-2.9c-.6-.5-1.5-.5-2.1.1,0,0,0,.1-.1.2-.6.8-.5,1.6.5,2.3l3.8,2.8-1.5,2.1-6.9-5.1,1.5-2.1.7.5c-.2-.9,0-1.9.6-2.6,1-1.4,2.9-1.8,4.8-.5h-.1Z"/><path d="m270.3,38.6c.5-.3.9-.9,1-1.5l2.4-.2c0,1.5-.8,2.8-2,3.6-1.9,1.6-4.7,1.3-6.2-.5,0-.1-.2-.2-.3-.4-1.5-2-1.1-4.8.9-6.3,0,0,.1,0,.2-.1,1.9-1.4,4.6-1,6,.9,0,.1.2.2.2.3.2.3.4.6.5.9l-5,3.6c.8.4,1.7.4,2.4-.2h0Zm-.5-3.5c-.6-.6-1.7-.6-2.3,0-.8.4-1.1,1.4-.7,2.2l3-2.2Z"/><path d="m280.7,33.1c.7,1.9-.7,3.2-2.4,3.9-1.4.7-3.1.4-4.2-.7l1.7-2c.4.5,1.1.7,1.7.5.6-.2.8-.5.7-.8-.3-.9-4.1,1-5.2-1.8-.6-1.8.5-3.2,2.2-3.8,1.3-.5,2.7-.3,3.8.6l-1.7,1.9c-.3-.3-.8-.5-1.3-.3-.4.2-.6.4-.5.7.3.9,4.1-1.1,5.2,1.9h0Z"/><path d="m288.1,32.3c.2,2-1.4,3-3.2,3.2-1.5.3-3.1-.3-3.9-1.6l2.1-1.5c.3.6.9.9,1.6.8.6,0,.9-.3.9-.6-.1-.9-4.3,0-4.6-2.9-.2-1.9,1.3-3,3-3.2,1.4-.2,2.7.3,3.5,1.5l-2.1,1.4c-.2-.4-.7-.7-1.2-.6-.4,0-.7.2-.7.6.1,1,4.2-.2,4.6,3h0Z"/><path d="m297.8,30.3l-.8,3c-.2.7.4.9,1.5,1.2l-.6,2.3c-3.4-.5-4.1-1.7-3.4-4.1l.8-3-1.3-.3.6-2.4,1.3.3.4-1.6h2.7c0,0-.6,2.2-.6,2.2l1.7.4-.6,2.4-1.7-.4Z"/><path d="m307.5,31.4l-1.3,2.6c-.9-.8-2.2-.7-2.9.2-.1.1-.2.2-.3.4l-1.7,3.5-2.3-1.1,3.8-7.7,2.3,1.1-.7,1.4c.8-.8,2.1-1,3.1-.4Z"/><path d="m316.2,38.6l-5.6,6.5-2-1.7.5-.6c-1,.1-1.9-.2-2.6-.9-1.7-1.6-1.8-4.3-.1-6.1,0,0,0,0,0,0,1.5-1.9,4.2-2.2,6.1-.7.8.6,1.2,1.5,1.3,2.5l.5-.6,2,1.7h0Zm-4.8,1.6c.7-.9.7-2.2-.2-2.9s-2.2-.7-2.9.2c-.7.9-.7,2.2.2,2.9,0,0,0,0,0,0,.8.7,2.1.7,2.8-.1,0,0,0,0,0,0h0Z"/><path d="m314.6,43.4c2.1-1.3,5-.7,6.3,1.5,0,0,0,0,0,0,.9,1.4.9,3.1.1,4.5l-2.3-1.3c.4-.6.4-1.3,0-1.9-.5-.9-1.6-1.2-2.5-.7,0,0-.1,0-.2.1-.9.5-1.3,1.6-.8,2.5,0,0,0,.1,0,.2.3.6,1,1,1.7.9v2.6c-2.5,0-4.6-2.1-4.6-4.6,0-1.6.8-3.1,2.2-3.9h0Z"/><path d="m316.6,58.2l3-3.6-3.7,1-.7-2.5,11.7-3.1.7,2.5-7,1.9,4.3,1.5.8,2.9-5-1.9-3.3,4.2-.8-2.8h0Z"/><path d="m319.3,65.1c0,.6.2,1.2.6,1.7l-1.2,2c-1.2-.9-1.8-2.3-1.7-3.8,0-2.5,2-4.6,4.6-4.6s4.5,2,4.5,4.6c0,2.4-2,4.3-4.4,4.3,0,0-.2,0-.2,0-.3,0-.7,0-1,0v-6.1c-.8.4-1.2,1.2-1.1,2h0Zm3.1,1.6c.8-.2,1.4-.9,1.4-1.8,0-.9-.5-1.6-1.3-1.9v3.7h-.1Z"/><path d="m323.7,77.3l-2.8-.8c.5-1,.5-2.6-1.2-3l-3.7-1.1.7-2.5,8.3,2.4-.7,2.5-1.5-.4c.9.7,1.3,1.9.9,3h0Z"/><path d="m314.3,82.3c-1.7-.9-1.7-2.9-.8-4.5.6-1.4,2-2.4,3.6-2.3v2.6c-.6-.1-1.3.2-1.5.8-.3.5-.3.9,0,1.1.8.5,2.4-3.5,5-2.1,1.7.9,1.7,2.7.9,4.3-.6,1.2-1.8,2-3.2,2.1v-2.5c.5,0,1-.3,1.2-.7.2-.4.2-.7,0-.9-.9-.5-2.3,3.6-5.1,2.1h-.1Z"/><circle class="cls-7" cx="112.9" cy="62.3" r="45"/><path class="cls-13" d="m129.7,46.8h.2c3.2-.2,5.9,2.3,6.1,5.5,0,0,0,.2,0,.3v37.7c0,2.7-1.8,5.1-4.4,5.7-.6,0-1.2.2-1.7.3h-.2c0-.2-.2-.2-.3,0h-1.2c0-.4.4-.3.6-.4,2.1-.9,3.5-2.9,3.6-5.2v-38.4c0-2.3-1.5-4.3-3.6-5.1-.2,0-.6,0-.6-.4h1.2c0,.1.2.1.3,0Z"/><path class="cls-6" d="m128.3,46.8c0,.4.4.3.6.4,2.1.8,3.5,2.8,3.6,5.1v38.4c0,2.3-1.5,4.3-3.6,5.2-.2,0-.6,0-.6.4h-32.2c-.6,0-1.1,0-1.7-.2-2.7-.6-4.6-3.1-4.5-5.9v-37.1c-.2-3.2,2.3-5.9,5.5-6.1.2,0,.4,0,.6,0h32.3Zm3.2,20.5v-13.7c0-1.2-.9-2.1-2.1-2.2h-32.7c-1.2,0-2.2,1.1-2.2,2.3v35.5c-.1,1.3.8,2.5,2.1,2.6.2,0,.3,0,.5,0h31.7c1.9,0,2.7-.8,2.7-2.7v-21.8Z"/><path class="cls-6" d="m129.5,96.3c0,0,.2,0,.3,0h-.3Z"/><path class="cls-6" d="m129.7,46.8c0,0-.2,0-.3,0h.3Z"/><path class="cls-19" d="m126.2,91.7h-29.1c-1.3.2-2.4-.7-2.6-2,0-.2,0-.4,0-.6v-21.9h33.3v21.5c0,1.4-.3,2.4-1.6,2.9h0Zm-6.9-14.7h-2.8c-1.1-.1-2.1.7-2.2,1.8,0,0,0,.1,0,.2,0,1.2.9,2.2,2.1,2.2,0,0,0,0,.1,0h6.4c1.2,0,2.1-1,2.1-2.2,0,0,0,0,0,0,0-1.1-.9-2-2-2,0,0,0,0-.1,0h-3.6,0Zm-13.4-5.2h-2.3c-.9,0-1.2.3-1.4,1.2l-.9,5.4c-.1.5,0,1,.4,1.4.4.4.9.3,1.4,0,.8-.3,1.6-.5,2.4-.4,1.6.2,2.7,1.7,2.4,3.3-.2,1.6-1.7,2.7-3.3,2.4-1.2-.2-2.2-1.1-2.4-2.3-.3-.9-.7-1.3-1.5-1.1-.6.3-1,.9-.8,1.6.6,2.7,3.2,4.5,6,4,2.9-.4,4.8-3.1,4.4-6-.4-2.9-3.1-4.8-6-4.4q-.6,0-.5-.6c.2-.7.3-1.4.3-2.1,0-.4.2-.5.6-.5h3.5c.8,0,1.2-.4,1.2-1.1s-.4-1.1-1.2-1.1h-2.4v.2Zm12.6-.3h-2.8c-.6,0-1.2.4-1.3,1,0,0,0,0,0,0,0,.7.5,1.2,1.2,1.2h5.7c.6,0,1.1-.4,1.2-1,0,0,0-.1,0-.2,0-.7-.5-1.1-1.3-1.1h-2.7Zm1.5,14.9c0,.7.5,1.2,1.2,1.3.7,0,1.2-.6,1.3-1.3,0-.6-.6-1.2-1.2-1.2-.6,0-1.2.5-1.2,1.1,0,0,0,0,0,0h-.1Zm-2.9,0c0-.7-.5-1.2-1.2-1.2-.7,0-1.2.5-1.2,1.2,0,.7.5,1.2,1.2,1.3.7,0,1.2-.5,1.2-1.2,0,0,0,0,0-.1Z"/><path class="cls-4" d="m127.8,67.3h-33.3c0-2.2,0-4.4,0-6.6h2.6c1.7.2,2.9-.2,3.6-1.9.2-.6.5-.4.7,0,.8,1.4,1.7,2.8,2.5,4.2.2.5.7.9,1.3.9.6,0,.9-.5,1.1-1,.5-1.3,1.1-2.5,1.7-3.8.3.4.6.8.8,1.1.2.4.7.7,1.2.7h10.8c.6.5,1.1,1.1,1.7,1.6.3.4.8.4,1.2.1,0,0,0,0,.1-.1.8-.9,1.7-1.7,2.5-2.5.8-.6.9-1.7.4-2.5-.5-.7-1.5-1-2.3-.6-.8.4-1.6.4-2.4,0-1.5-.5-2.5,0-2.7,1.8h-7.9c-.5,0-1-.2-1.3-.7-.3-.6-.8-1.1-1.1-1.7-.3-.5-.8-.7-1.3-.7-.5,0-.8.5-1,.9-.5,1.2-1,2.5-1.6,3.8-.2-.2-.4-.5-.5-.8l-2.4-3.9c-.3-.6-1-.8-1.5-.5-.2.1-.4.3-.5.5-.5.8-1,1.5-1.5,2.3-.2.3-.5.4-.8.4h-3.4v-4.6c0-1.2.9-2.3,2.2-2.3,0,0,0,0,0,0h29.5c1.2.4,1.9,1.7,1.6,2.9v13h0Z"/><path class="cls-4" d="m126.2,91.7c1.4-.5,1.7-1.5,1.6-2.9v-21.5h3.7v21.8c0,1.9-.8,2.7-2.7,2.7h-2.6Z"/><path class="cls-28" d="m120.8,60.8h-10.8c-.5,0-1-.3-1.2-.7-.2-.4-.5-.8-.8-1.1-.6,1.3-1.1,2.6-1.7,3.8-.2.5-.5,1-1.1,1-.6,0-1.1-.3-1.3-.9-.8-1.4-1.7-2.8-2.5-4.2-.2-.4-.5-.6-.7,0-.7,1.7-1.9,2.1-3.6,1.9-.9,0-1.7,0-2.6,0v-2.4h3.4c.3,0,.6-.1.8-.4.5-.8,1-1.6,1.5-2.3.3-.6,1-.8,1.5-.5.2.1.4.3.5.5l2.4,3.9c.1.2.3.4.5.8.6-1.3,1.1-2.6,1.6-3.8.2-.5.5-.9,1-.9.5,0,1,.2,1.3.7.4.5.8,1.1,1.1,1.7.3.5.8.7,1.3.7h7.9c.1,1,1,1.5,1.6,2.2h-.1Z"/><path class="cls-29" d="m131.5,67.3h-3.7v-13c0-1.4-.3-2.3-1.6-2.9h3.2c1.2,0,2.1,1,2.1,2.2,0,0,0,0,0,0v13.7Z"/><path class="cls-25" d="m105.8,71.8h2.4c.8,0,1.2.4,1.2,1.1s-.4,1.1-1.2,1.1h-3.5c-.3,0-.5,0-.6.5,0,.7-.2,1.4-.3,2.1-.1.5,0,.6.5.6,2.7-.4,5.3,1.4,5.8,4.1.6,2.9-1.2,5.7-4.1,6.3,0,0,0,0-.1,0-2.8.5-5.4-1.3-6-4-.2-.8.1-1.5.8-1.6s1.2.2,1.5,1.1c.3,1.5,1.6,2.5,3.1,2.3,1.4,0,2.6-1.1,2.7-2.5.3-1.6-.8-3-2.4-3.3,0,0,0,0-.1,0-.8,0-1.6,0-2.4.4-.4.3-1,.3-1.4,0-.5-.3-.5-.8-.4-1.4l.9-5.4c.2-.9.5-1.2,1.4-1.2h2.3v-.2Z"/><path class="cls-16" d="m119.6,81.2h-3.2c-1.2,0-2.2-.9-2.2-2.1,0,0,0,0,0,0,0-1.1.9-2,2-2,0,0,.1,0,.2,0h2.8c.1,0,.2.1.3.2,1,.5,1.5,1.7,1,2.8-.2.3-.4.6-.7.8-.1,0-.3.2-.3.4h0Z"/><path class="cls-25" d="m118.4,71.5h2.7c.8,0,1.3.4,1.3,1.1,0,.6-.4,1.1-1,1.2,0,0-.1,0-.2,0h-5.7c-.7,0-1.2-.5-1.2-1.2,0-.6.6-1.1,1.2-1.1,0,0,0,0,0,0h2.8Z"/><path class="cls-1" d="m119.6,81.2c0-.2.1-.3.3-.4.9-.7,1.2-1.9.5-2.9-.2-.3-.5-.6-.8-.7-.1,0-.2,0-.3-.2h3.4c1.1,0,2,.8,2.1,1.9,0,0,0,0,0,.1,0,1.1-.8,2.1-1.9,2.2,0,0-.1,0-.2,0h-3.1,0Z"/><path class="cls-28" d="m119.9,86.5c0-.6.5-1.2,1.1-1.2,0,0,0,0,0,0,.6,0,1.2.6,1.2,1.2,0,.7-.6,1.2-1.3,1.3-.7,0-1.2-.6-1.2-1.3h.1Z"/><path class="cls-28" d="m116.9,86.4c0,.7-.5,1.2-1.2,1.2s-1.2-.5-1.2-1.2h0c0-.7.5-1.2,1.2-1.2s1.2.5,1.2,1.2h0Z"/><path class="cls-37" d="m120.8,60.8c-.5-.7-1.4-1.2-1.6-2.2.1-1.6,1.1-2.3,2.7-1.8.8.3,1.6.3,2.4,0,.9-.4,2,0,2.4.9.4.8.1,1.7-.5,2.2-.8.9-1.7,1.7-2.5,2.5-.3.4-.8.4-1.2.1,0,0,0,0-.1-.1-.5-.6-1.1-1.1-1.7-1.6h.1Z"/><path d="m71.8,57.7l11.2.5v2.6l-4.6-.2-.2,3.5,4.4.2v2.6l-11.3-.5v-2.6l4.4.2.2-3.5-4.3-.2v-2.6h.2Z"/><path d="m82.8,52.7c.2-.5.2-1.2,0-1.7l1.7-1.4c.8,1.1.9,2.5.4,3.8-.6,2.2-2.9,3.5-5.1,2.9-.1,0-.3,0-.4-.1-2.2-.8-3.3-3.1-2.5-5.3.8-2.2,3.1-3.3,5.3-2.5.3,0,.6.3.9.4l-1.9,5.3c.8,0,1.5-.6,1.7-1.4h0Zm-2.2-2.4c-.8,0-1.5.4-1.8,1.2-.3.8,0,1.6.6,2.1l1.2-3.2h0Z"/><path d="m84.5,37.9l6.5,4.7-1.4,1.9-.6-.4c.2.9,0,1.8-.6,2.5-1.4,1.7-3.9,2-5.6.7,0,0,0,0,0,0-1.8-1.2-2.4-3.7-1.2-5.6.5-.8,1.3-1.3,2.2-1.4l-.6-.4,1.4-1.9Zm1.8,4.3c-.8-.6-1.9-.5-2.6.2,0,0,0,.1-.1.2-.6.8-.5,1.9.2,2.5,0,0,.2.1.3.2.8.6,1.9.5,2.6-.2,0,0,0-.1.1-.2.6-.8.6-1.9-.2-2.5,0,0-.2-.1-.3-.2h0Z"/><path d="m84.3,33.2l1.8-1.6,7.8,8.7-1.8,1.6-7.8-8.7Z"/><path d="m94.3,33l1.5,2.4c.4.6.9.3,1.8-.3l1.2,1.8c-2.5,2-3.7,1.7-5-.2l-1.5-2.4-1.1.7-1.2-1.9,1.1-.7-.8-1.3,1.6-1.9,1.2,1.9,1.4-.9,1.2,1.9-1.4.9Z"/><path d="m105,29.3l1.6,4.6-2.3.8-1.5-4.3c-.2-.7-.9-1.1-1.6-1,0,0-.2,0-.2,0-.8.3-1.2,1.2-.9,2,0,0,0,0,0,.1l1.5,4.1-2.3.8-3.7-10.6,2.3-.8,1.3,3.7c.3-.8,1-1.4,1.8-1.7,1.5-.6,3.2.2,3.8,1.7,0,.1,0,.3.1.4h0Z"/><path d="m123.5,29.6l-.6,4.9-2.4-.3.6-4.7c.1-.8-.2-1.3-1-1.4s-1.3.4-1.4,1.3l-.6,4.5-2.4-.3.6-4.7c.1-.8-.2-1.4-1-1.4s-1.3.4-1.4,1.3l-.6,4.5-2.4-.3,1-7.9,2.4.3v.7c1.1-1,2.7-1,3.7,0,.1.2.3.3.4.5.6-.7,1.5-1,2.4-.8,1.6.2,2.8,1.6,2.7,3.3,0,.1,0,.3,0,.4h0Z"/><path d="m125,31.3c1.1-2.1,3.6-2.9,5.7-1.8,2.1,1.1,2.9,3.6,1.8,5.7s-3.6,2.9-5.7,1.8c0,0,0,0,0,0-2.1-1-2.9-3.6-1.8-5.6,0,0,0,0,0,0Zm5.4,2.8c.5-.8.2-1.9-.6-2.4,0,0-.1,0-.2-.1-.8-.5-1.9-.2-2.4.6,0,0,0,.1,0,.2-.5.8-.2,1.9.6,2.4,0,0,.1,0,.2.1.9.5,1.9.2,2.4-.7,0,0,0,0,0-.1h0Z"/><path d="m140.2,40.9l-3.4,3.6-1.7-1.6,3.1-3.3c.6-.5.6-1.3.1-1.9,0,0,0,0-.1-.1-.6-.6-1.4-.6-2.2.2l-3,3.2-1.7-1.6,5.5-5.8,1.7,1.6-.5.5c.9-.1,1.7.2,2.3.9,1.2,1.2,1.3,3.1.2,4.3,0,0-.1.1-.2.2v-.2Z"/><path d="m143.9,40.9l1.4,2-6.6,4.6-1.4-2,6.6-4.6Zm1.6-1.4c.7-.4,1.6-.3,2,.4s.3,1.6-.4,2c-.7.4-1.6.3-2-.4-.4-.7-.3-1.6.4-2h0Z"/><path d="m145.9,48.7l-2.5,1.2c-.6.3-.4.9.1,1.8l-2,1c-1.7-2.7-1.2-3.9.8-4.9l2.5-1.2-.6-1.2,2.1-1,.6,1.2,1.4-.7,1.7,1.8-2,1,.7,1.5-2.1,1-.7-1.5Z"/><path d="m145.6,51.9c2.3-.5,4.6.9,5.1,3.2.6,2.2-.8,4.5-3,5.1,0,0-.1,0-.2,0-2.3.5-4.6-.9-5.1-3.2-.5-2.3.9-4.6,3.1-5.1,0,0,0,0,0,0Zm1.4,5.9c1-.2,1.6-1.1,1.4-2,0,0,0-.1,0-.2-.2-1-1.2-1.6-2.2-1.4,0,0,0,0-.1,0-1,.2-1.6,1.1-1.4,2,0,0,0,.1,0,.2.2,1,1.2,1.6,2.2,1.4,0,0,0,0,.1,0h0Z"/><path d="m151.6,66.7h-2.7c.3-1-.2-2-1.2-2.3-.2,0-.4,0-.6,0h-3.6v-2.4h8v2.4h-1.4c1,.3,1.7,1.3,1.6,2.4h-.1Z"/><path d="m144.5,73.6c-1.8-.4-2.3-2.1-1.9-3.8.2-1.4,1.1-2.6,2.5-3l.7,2.3c-.6,0-1.1.5-1.2,1.1-.1.6,0,.9.3.9.9.2,1.2-3.8,3.9-3.2,1.7.3,2.3,2,1.9,3.6-.2,1.3-1.1,2.3-2.3,2.7l-.7-2.2c.5,0,.8-.4.9-.9,0-.4,0-.7-.3-.7-.9-.2-1.1,3.8-4,3.2h.2Z"/><circle class="cls-9" cx="200" cy="337.7" r="45"/><path class="cls-31" d="m210.9,372.3c0,.8-4.9,1.4-11,1.4h0c-6.1,0-11-.6-11-1.4v-52.1c0-.8,4.9-1.4,11-1.4h0c6.1,0,11,.6,11,1.4v52.1Z"/><path class="cls-36" d="m188.9,321.5v.5c1.4-.4,5.3-.8,11-.8s9.6.4,11,.8v-.5c-2.7-.8-9.4-.8-11-.8s-8.2,0-11,.8Z"/><path class="cls-36" d="m210.9,370.9v-.5c-1.4.4-5.3.8-11,.8s-9.6-.4-11-.8v.5c2.7.8,9.4.8,11,.8s8.2,0,11-.8Z"/><path class="cls-36" d="m199.9,327.2c-3.2,0-6.2,0-8.4.3-1.2,0-2,.2-2.6.3v.6c1.5-.3,5.3-.6,11-.6s9.5.3,11,.6v-.6c-.6,0-1.4-.2-2.6-.3-2.2-.2-5.2-.3-8.4-.3Z"/><path class="cls-36" d="m210.9,364c-1.5.3-5.3.6-11,.6s-9.5-.3-11-.6v.6c.6,0,1.4.2,2.6.3,2.2.2,5.2.3,8.4.3s6.2,0,8.4-.3c1.2,0,2-.2,2.6-.3v-.6Z"/><rect class="cls-36" x="188.9" y="329.6" width="21.9" height="33.3"/><path class="cls-33" d="m216.7,348c-.3.6-.8.8-1.1.5l-2.8-2.6c-.3-.3-.2-.9,0-1.5l3.3-5.7c.3-.6.8-.8,1.1-.5l2.8,2.6c.3.3.2.9,0,1.5l-3.3,5.7Z"/><path class="cls-24" d="m220.9,329.7h1.1c1,0,1.5.8,1.1,2-.3.8-.7,1.6-1.1,2.4-2.6,4.6-5.1,9.3-7.7,13.9-2.4,4.2-4.8,8.3-7.3,12.3-1.2,2-2.7,3.5-4.7,4.2-2.4.8-4.5,0-6.5-1.6-1.2-1-2.1-2.4-2.9-3.9-2.8-4.7-5.5-9.4-8.2-14.2-1.2-2.1-2.3-4.2-3.5-6.3,0,0-.1-.2-.2-.4-.7-1.6-.4-2.6,1.1-2.8,5.2-.8,10.4-1.5,15.6-2.3,4.6-.7,9.2-1.3,13.7-2,3.2-.5,6.5-.9,9.7-1.3h-.2Z"/><path class="cls-27" d="m218.5,332.1h.9c.8,0,1.3.7.9,1.7-.3.7-.6,1.4-1,2.1-2.2,4-4.4,8.1-6.7,12.1-2.1,3.6-4.2,7.2-6.4,10.7-1.1,1.7-2.4,3.1-4.1,3.7-2.1.7-3.9,0-5.7-1.4-1.1-.9-1.8-2.1-2.5-3.4-2.4-4.1-4.8-8.2-7.2-12.3-1-1.8-2-3.7-3-5.5,0,0,0-.2-.2-.3-.6-1.4-.3-2.2.9-2.4,4.5-.7,9-1.3,13.5-2,4-.6,8-1.2,12-1.7,2.8-.4,5.7-.7,8.5-1.1h0v-.2Z"/><path d="m180,313.4c2.6,2.6,2.3,5.9,0,8.3-2.6,2.6-6.5,2.6-8.9.2-2.4-2.4-2.4-6.3,0-8.8,1.6-1.6,3.8-2.2,5.6-1.7l-.7,2.6c-.9-.2-2.1.1-3,1.1-1.4,1.4-1.4,3.5,0,5,1.4,1.4,3.5,1.5,5.1-.2,1.1-1.1,1.4-2.3.9-3.4l-2.2,2.2-1.7-1.7,4.2-4.2.7.7h0Z"/><path d="m192.4,304.8l.6,8.9-2.2.9-3-3.7.4,4.7-2.2.9-5.7-6.9,2.5-1,2.8,3.8-.5-4.7,2.2-.9,2.9,3.7-.6-4.7,2.5-1h.3Z"/><path d="m203.9,304.2l.3,8.5h-2.5v-.7c-.5.7-1.4,1.1-2.5,1.1-2.2,0-4.1-1.8-4.2-4.3,0-2.5,1.7-4.6,3.9-4.6s2,.3,2.6.9v-.8h2.5,0Zm-2.4,4.3c0-1.3-.9-2-2.1-2s-2,.9-1.9,2.2.9,2,2.1,2,2-.9,1.9-2.1h0Z"/><path d="m209.8,307.9l-.7,2.9c-.2.7.4.9,1.5,1.1l-.5,2.3c-3.3-.4-4.1-1.6-3.5-3.9l.7-2.9-1.3-.3.5-2.4,1.3.3.4-1.6,2.7-.2-.5,2.3,1.7.4-.5,2.4-1.7-.4h-.1Z"/><path d="m212.4,310.3c1.1-2.3,3.7-3.2,6-2.1,1.5.7,2.4,2.1,2.5,3.6l-2.6.2c0-.7-.4-1.2-1.1-1.6-1-.5-2.1-.1-2.6.9-.5,1.1,0,2.1.9,2.6.7.3,1.4.3,1.9-.1l1.5,2.1c-1.2.9-2.9,1-4.4.3-2.3-1.1-3.2-3.7-2.1-6h0Z"/><path d="m227.8,319.5l-3.5,3.9-1.9-1.7,3.2-3.6c.7-.8.5-1.6,0-2.1-.7-.6-1.5-.6-2.3.3l-3.1,3.5-1.9-1.7,7.9-8.9,1.9,1.7-2.8,3.1c.8-.2,1.7,0,2.5.8,1.3,1.1,1.6,3,0,4.7Z"/></svg>