<svg width="55" height="55" viewBox="0 0 55 55" fill="none" xmlns="http://www.w3.org/2000/svg">
<path d="M53.5043 25.8381L52.1141 25.6445C51.9276 25.6184 51.7509 25.5445 51.6013 25.4301C51.4517 25.3158 51.3341 25.1647 51.2599 24.9916C50.9913 24.3723 50.6514 23.7864 50.2471 23.2459C50.1332 23.0947 50.0605 22.9166 50.036 22.729C50.0114 22.5413 50.0359 22.3505 50.1071 22.1752L50.6277 20.8944C50.7277 20.6493 50.7353 20.3764 50.6492 20.1261C50.5631 19.8759 50.3891 19.6654 50.1596 19.5337L47.5805 18.0528C47.3525 17.922 47.0849 17.8777 46.8269 17.9279C46.5688 17.9781 46.3374 18.1195 46.175 18.3262L45.3088 19.4298C45.1945 19.5768 45.0443 19.6918 44.8726 19.7638C44.701 19.8358 44.5137 19.8624 44.3288 19.8411C43.6473 19.7594 42.9586 19.7587 42.2769 19.8389C42.0906 19.8613 41.9016 19.8353 41.7283 19.7634C41.5549 19.6916 41.403 19.5763 41.2871 19.4287L40.423 18.3284C40.2606 18.1217 40.0292 17.9803 39.7712 17.9301C39.5131 17.8798 39.2456 17.9242 39.0175 18.055L36.4363 19.5381C36.2072 19.6699 36.0336 19.8803 35.9475 20.1302C35.8614 20.3801 35.8688 20.6527 35.9682 20.8977L36.4888 22.1784C36.5594 22.3538 36.5836 22.5444 36.5589 22.7318C36.5341 22.9192 36.4614 23.0971 36.3477 23.2481C35.9426 23.7889 35.6027 24.3756 35.3349 24.9959C35.2606 25.1691 35.143 25.3202 34.9934 25.4347C34.8438 25.5493 34.6672 25.6234 34.4807 25.65L33.0883 25.8436C32.827 25.8803 32.5878 26.0102 32.4147 26.2094C32.2416 26.4086 32.1464 26.6636 32.1466 26.9275L32.1455 29.8795C32.1454 30.1436 32.2407 30.3987 32.414 30.598C32.5873 30.7972 32.8268 30.927 33.0883 30.9634L34.4785 31.157C34.665 31.1833 34.8415 31.2572 34.9911 31.3716C35.1407 31.486 35.2584 31.637 35.3327 31.81C35.467 32.1196 35.6189 32.4212 35.7877 32.7134C35.9573 33.0044 36.1432 33.2856 36.3444 33.5556C36.4584 33.7067 36.5313 33.8848 36.556 34.0724C36.5807 34.2601 36.5565 34.4509 36.4855 34.6264L35.9638 35.9072C35.8643 36.1524 35.857 36.4253 35.9432 36.6755C36.0295 36.9257 36.2035 37.1361 36.433 37.2678L39.0121 38.7487C39.24 38.8795 39.5073 38.9238 39.7652 38.8736C40.0231 38.8234 40.2543 38.682 40.4164 38.4753L41.2827 37.3717C41.3971 37.225 41.5474 37.1101 41.719 37.0381C41.8906 36.966 42.0778 36.9393 42.2627 36.9605C42.9442 37.0421 43.6329 37.0429 44.3146 36.9627C44.5011 36.9403 44.6902 36.9663 44.8637 37.0381C45.0372 37.1099 45.1894 37.2252 45.3055 37.3728L46.1696 38.4731C46.3317 38.6799 46.5629 38.8213 46.8208 38.8715C47.0787 38.9217 47.3461 38.8774 47.5739 38.7466L50.1552 37.2634C50.3847 37.132 50.5586 36.9217 50.6447 36.6716C50.7308 36.4216 50.7232 36.1488 50.6233 35.9039L50.1038 34.6231C50.0327 34.4479 50.0082 34.2573 50.0327 34.0698C50.0573 33.8823 50.13 33.7044 50.2438 33.5534C50.6492 33.0127 50.9895 32.426 51.2577 31.8056C51.3318 31.6325 51.4492 31.4814 51.5986 31.3669C51.748 31.2523 51.9244 31.1782 52.1108 31.1516L53.5032 30.958C53.7646 30.9214 54.004 30.7915 54.1773 30.5923C54.3505 30.3931 54.4459 30.138 54.446 29.8741L54.4471 26.922C54.4472 26.658 54.3519 26.4028 54.1786 26.2036C54.0053 26.0044 53.7658 25.8746 53.5043 25.8381ZM45.23 31.7334C44.3416 32.2444 43.2871 32.3832 42.2968 32.1195C41.3064 31.8558 40.4606 31.2109 39.9439 30.3258C39.6902 29.8879 39.5256 29.4041 39.4595 28.9024C39.3934 28.4006 39.4272 27.8907 39.559 27.4021C39.6907 26.9134 39.9178 26.4557 40.2271 26.0551C40.5365 25.6545 40.922 25.3191 41.3614 25.0681C42.25 24.5571 43.3047 24.4183 44.2952 24.6821C45.2857 24.9458 46.1318 25.5906 46.6486 26.4758C46.9023 26.9137 47.0668 27.3976 47.1328 27.8994C47.1987 28.4012 47.1648 28.911 47.033 29.3997C46.9011 29.8883 46.674 30.3461 46.3646 30.7466C46.0551 31.1471 45.6696 31.4825 45.23 31.7334Z" fill="#2798F2"/>
<path d="M31.7016 12.1326L28.9563 11.7509C28.7679 11.7257 28.5893 11.6514 28.4386 11.5355C28.2879 11.4195 28.1704 11.266 28.0977 11.0903C27.8773 10.5492 27.6197 10.024 27.3266 9.51855C27.0333 9.0141 26.7059 8.53026 26.3466 8.07042C26.2295 7.91945 26.1543 7.74024 26.1285 7.55089C26.1028 7.36154 26.1275 7.16875 26.2001 6.99198L27.2348 4.44902C27.3347 4.20399 27.3424 3.93101 27.2563 3.68077C27.1702 3.43053 26.9962 3.22004 26.7666 3.08839L22.2429 0.491829C22.015 0.360988 21.7477 0.316612 21.4897 0.366828C21.2318 0.417045 21.0006 0.558493 20.8385 0.765266L19.129 2.94183C19.0124 3.09147 18.8587 3.20797 18.6831 3.27974C18.5075 3.3515 18.3162 3.37604 18.1282 3.35089C16.9607 3.18756 15.7761 3.18719 14.6085 3.3498C14.4207 3.37506 14.2295 3.35057 14.054 3.27879C13.8786 3.207 13.7251 3.09044 13.6088 2.94073L11.9037 0.768547C11.7415 0.561557 11.5101 0.419972 11.2519 0.36975C10.9938 0.319528 10.7262 0.364034 10.4982 0.49511L5.97227 3.09495C5.74278 3.2264 5.56883 3.4367 5.48273 3.68675C5.39663 3.93681 5.40424 4.20962 5.50414 4.45448L6.53664 6.99636C6.60917 7.17289 6.6339 7.36541 6.60837 7.55454C6.58283 7.74367 6.50792 7.92273 6.39117 8.0737C5.6687 8.99477 5.07856 10.0123 4.63789 11.0968C4.56536 11.2725 4.44799 11.4261 4.29752 11.5422C4.14704 11.6583 3.96873 11.7329 3.78039 11.7585L1.0318 12.1425C0.770574 12.1789 0.531347 12.3086 0.358264 12.5076C0.185181 12.7066 0.0899259 12.9615 0.0900783 13.2253L0.0878908 18.4107C0.0877409 18.6748 0.183111 18.93 0.356398 19.1292C0.529685 19.3284 0.76919 19.4582 1.0307 19.4946L3.77602 19.8764C3.96449 19.902 4.14296 19.9765 4.29362 20.0926C4.44427 20.2088 4.56185 20.3623 4.63461 20.5381C4.85505 21.0792 5.11269 21.6043 5.4057 22.1098C5.69904 22.6139 6.02646 23.0974 6.3857 23.5568C6.50285 23.7078 6.57808 23.887 6.60381 24.0764C6.62955 24.2657 6.60487 24.4585 6.53227 24.6353L5.49758 27.1793C5.39768 27.4244 5.39007 27.6973 5.47616 27.9475C5.56225 28.1978 5.73619 28.4083 5.9657 28.54L10.4895 31.1365C10.7173 31.2674 10.9847 31.3118 11.2426 31.2615C11.5005 31.2113 11.7317 31.0699 11.8938 30.8631L13.6034 28.6865C13.7198 28.5367 13.8735 28.42 14.0491 28.3482C14.2247 28.2764 14.4161 28.252 14.6041 28.2775C15.7717 28.441 16.9563 28.441 18.1238 28.2775C18.3118 28.2527 18.5029 28.2775 18.6783 28.3494C18.8537 28.4214 19.0072 28.538 19.1235 28.6876L20.8287 30.8598C20.9911 31.0666 21.2224 31.208 21.4805 31.2582C21.7386 31.3084 22.0061 31.264 22.2341 31.1332L26.7601 28.5334C26.9896 28.4017 27.1636 28.1913 27.2497 27.941C27.3358 27.6908 27.3282 27.4178 27.2282 27.1728L26.1957 24.632C26.1231 24.4555 26.0984 24.2629 26.1239 24.0738C26.1495 23.8847 26.2244 23.7056 26.3412 23.5546C27.0634 22.6334 27.6535 21.6159 28.0945 20.5315C28.167 20.3558 28.2844 20.2023 28.4348 20.0861C28.5853 19.97 28.7636 19.8954 28.952 19.8698L31.7005 19.4859C31.9618 19.4495 32.201 19.3198 32.3741 19.1207C32.5472 18.9217 32.6424 18.6668 32.6423 18.4031L32.6445 13.2165C32.6444 12.9525 32.549 12.6974 32.3757 12.4983C32.2025 12.2991 31.9631 12.1692 31.7016 12.1326V12.1326ZM19.3948 21.0335C18.0034 21.8337 16.3521 22.051 14.8012 21.6381C13.2502 21.2252 11.9255 20.2156 11.1162 18.8296C10.7188 18.1437 10.461 17.386 10.3577 16.6C10.2543 15.8141 10.3074 15.0155 10.5138 14.2501C10.7203 13.4848 11.076 12.7678 11.5607 12.1405C12.0453 11.5131 12.6492 10.9878 13.3376 10.5948C14.7288 9.79418 16.3803 9.57658 17.9314 9.98951C19.4825 10.4024 20.8072 11.4124 21.6162 12.7987C22.0135 13.4847 22.2712 14.2424 22.3745 15.0283C22.4778 15.8142 22.4248 16.6128 22.2183 17.3782C22.0119 18.1435 21.6561 18.8605 21.1715 19.4878C20.687 20.1151 20.0831 20.6405 19.3948 21.0335Z" fill="#2798F2"/>
<path d="M33.3572 43.524L32.3378 40.5643C32.2923 40.4322 32.2006 40.3209 32.0797 40.251C31.9587 40.1811 31.8165 40.1572 31.6794 40.1837L30.0201 40.5074C29.9202 40.5268 29.817 40.5195 29.7208 40.4863C29.6246 40.4531 29.5389 40.3951 29.4722 40.3182C29.0146 39.7888 28.4839 39.3273 27.8961 38.9477C27.8106 38.8925 27.7413 38.8156 27.695 38.725C27.6487 38.6343 27.6272 38.5331 27.6325 38.4315L27.7211 36.7427C27.7283 36.6032 27.6849 36.4658 27.5989 36.3556C27.5129 36.2455 27.3901 36.1702 27.253 36.1434L24.1795 35.5462C24.0423 35.5197 23.9002 35.5436 23.7792 35.6135C23.6582 35.6834 23.5666 35.7947 23.5211 35.9268L22.9709 37.5259C22.9382 37.6224 22.8803 37.7085 22.8032 37.7752C22.7261 37.8419 22.6326 37.8869 22.5323 37.9054C21.8453 38.0367 21.1805 38.2654 20.5581 38.5846C20.4676 38.6312 20.3665 38.653 20.2648 38.6478C20.1632 38.6426 20.0648 38.6106 19.9795 38.5551L18.562 37.6341C18.4447 37.5579 18.3039 37.5267 18.1654 37.5462C18.0269 37.5657 17.9001 37.6346 17.8084 37.7402L15.7555 40.1027C15.6637 40.2081 15.6131 40.3431 15.6131 40.4828C15.6131 40.6225 15.6637 40.7575 15.7555 40.8629L16.8645 42.1382C16.9311 42.215 16.9763 42.3081 16.9955 42.4079C17.0147 42.5078 17.0073 42.6109 16.9739 42.707C16.7449 43.3679 16.6112 44.058 16.5769 44.7566C16.5721 44.8585 16.5404 44.9573 16.4851 45.043C16.4298 45.1287 16.3528 45.1982 16.2619 45.2445L14.7547 46.0123C14.6299 46.0753 14.5323 46.1814 14.4798 46.3109C14.4273 46.4404 14.4235 46.5846 14.4692 46.7166L15.4886 49.6763C15.5339 49.8086 15.6255 49.92 15.7465 49.9899C15.8676 50.0599 16.0098 50.0837 16.147 50.057L17.8073 49.7332C17.9073 49.7138 18.0107 49.7212 18.1069 49.7546C18.2032 49.788 18.2889 49.8463 18.3553 49.9235C18.8133 50.4522 19.3439 50.9132 19.9314 51.2929C20.0168 51.3482 20.0862 51.425 20.1325 51.5157C20.1787 51.6063 20.2003 51.7075 20.195 51.8091L20.1064 53.4979C20.0988 53.6375 20.142 53.7752 20.2281 53.8854C20.3141 53.9956 20.4372 54.0708 20.5745 54.0973L23.6469 54.6945C23.7841 54.7212 23.9263 54.6974 24.0473 54.6274C24.1684 54.5575 24.26 54.4461 24.3053 54.3138L24.8555 52.7148C24.8887 52.6185 24.9467 52.5327 25.0237 52.4661C25.1008 52.3994 25.194 52.3543 25.294 52.3352C25.9816 52.2045 26.6468 51.9758 27.2694 51.656C27.3599 51.6097 27.461 51.5881 27.5626 51.5933C27.6642 51.5985 27.7626 51.6303 27.848 51.6856L29.2644 52.6065C29.3816 52.6828 29.5225 52.7141 29.661 52.6946C29.7995 52.6751 29.9263 52.6061 30.018 52.5004L32.072 50.1379C32.1635 50.0324 32.2139 49.8975 32.2139 49.7578C32.2139 49.6182 32.1635 49.4832 32.072 49.3777L30.963 48.1024C30.896 48.0258 30.8505 47.9328 30.831 47.8329C30.8116 47.733 30.819 47.6298 30.8525 47.5337C31.0825 46.873 31.2165 46.1827 31.2506 45.484C31.2551 45.3821 31.2867 45.2832 31.3421 45.1974C31.3974 45.1117 31.4746 45.0423 31.5656 44.9962L33.0728 44.2295C33.1972 44.1658 33.2945 44.0594 33.3467 43.9298C33.399 43.8002 33.4027 43.6561 33.3572 43.524V43.524ZM25.9437 46.8851C25.5948 47.2867 25.1346 47.5758 24.6213 47.7159C24.108 47.8559 23.5648 47.8406 23.0602 47.6719C22.5556 47.5032 22.1124 47.1886 21.7866 46.768C21.4608 46.3474 21.2671 45.8396 21.2299 45.3089C21.1928 44.7781 21.3138 44.2483 21.5778 43.7864C21.8417 43.3244 22.2368 42.9511 22.7129 42.7137C23.189 42.4763 23.7248 42.3854 24.2526 42.4525C24.7804 42.5197 25.2764 42.7418 25.678 43.0909C26.2161 43.5589 26.5463 44.2215 26.5962 44.933C26.646 45.6444 26.4113 46.3466 25.9437 46.8851V46.8851Z" fill="#2798F2"/>
</svg>
