<?xml version="1.0" encoding="UTF-8"?><svg id="Layer_1" xmlns="http://www.w3.org/2000/svg" viewBox="0 0 100 100"><defs><style>.cls-1{fill:none;stroke:#a5262d;stroke-miterlimit:10;stroke-width:4px;}.cls-2{fill:#484645;}.cls-3{fill:#b3b3b3;}</style></defs><circle class="cls-1" cx="50" cy="50" r="45"/><rect class="cls-3" x="24" y="40" width="52" height="37" rx="2.9" ry="2.9"/><g><path class="cls-2" d="M50.8,70.3l-1.1-3.4h-8l-1,3.4h-6.5l7.5-23.6h7.6l7.8,23.6h-6.2Zm-7.6-8.6h4.8l-2.4-8-2.4,8Z"/><path class="cls-2" d="M58.5,70.3v-24.7h5.6v24.7h-5.6Z"/></g><g><path d="M26.1,28.7l-2.4,3.1,1,1.4-1.6,2.1-6.1-9.3,1.9-2.4,10.5,3.7-1.6,2.1-1.6-.6Zm-2.2-.8l-3.8-1.4,2.3,3.3,1.5-1.9Z"/><path d="M22.8,18.9l1.7-1.4,7,8.4-1.7,1.4-7-8.4Z"/><path d="M35,15.1l3.6,6.6-2,1.1-.3-.6c0,.7-.6,1.4-1.4,1.8-1.3,.7-3,.4-3.9-1.4l-2.2-4,2-1.1,2,3.8c.4,.8,1.2,.9,1.8,.6,.7-.4,1-1.1,.5-2l-2-3.6,2-1.1Z"/><path d="M49.6,14.6l.8,4.5-2.2,.4-.8-4.3c-.1-.7-.6-1.1-1.3-1-.7,.1-1.1,.7-.9,1.6l.7,4.2-2.2,.4-.8-4.3c-.1-.7-.6-1.1-1.3-1-.7,.1-1.1,.7-.9,1.6l.7,4.2-2.2,.4-1.3-7.4,2.2-.4v.7c.4-.6,1-1.1,1.9-1.2,.9-.2,1.6,0,2.1,.6,.3-.7,.9-1.2,2-1.4,1.7-.3,3,.7,3.3,2.6Z"/><path d="M51.9,12.2l2.2,.2-.6,7.5-2.2-.2,.6-7.5Zm0-2c0-.7,.7-1.3,1.5-1.2,.7,0,1.3,.7,1.2,1.5s-.7,1.3-1.5,1.2c-.7,0-1.3-.7-1.2-1.5Z"/><path d="M62.9,17.3l-1.2,4.4-2.2-.6,1.1-4.1c.2-.9-.2-1.5-.9-1.7-.8-.2-1.5,0-1.8,1.1l-1.1,3.9-2.2-.6,2-7.2,2.2,.6-.2,.7c.5-.4,1.4-.6,2.3-.3,1.5,.4,2.4,1.8,1.9,3.7Z"/><path d="M72.5,19.3l-3.8,6.4-1.9-1.2,.4-.6c-.6,.3-1.5,.2-2.3-.3-1.3-.8-1.9-2.4-.8-4.1l2.4-4,1.9,1.2-2.2,3.7c-.5,.8-.2,1.5,.4,1.8,.7,.4,1.4,.3,2-.6l2.1-3.5,1.9,1.2Z"/><path d="M80.3,31.6l-3.5,3-1.5-1.7,3.4-2.9c.6-.5,.7-1.1,.2-1.6-.5-.6-1.2-.5-1.8,0l-3.2,2.7-1.5-1.7,3.4-2.9c.6-.5,.7-1.1,.2-1.6-.5-.6-1.2-.5-1.8,0l-3.2,2.7-1.5-1.7,5.7-4.9,1.5,1.7-.5,.4c.6,0,1.3,.2,2,.9,.6,.7,.7,1.4,.5,2.1,.7,0,1.5,.2,2.2,1,1.1,1.3,.9,3-.5,4.2Z"/></g></svg>