<?xml version="1.0" encoding="UTF-8"?><svg id="Layer_1" xmlns="http://www.w3.org/2000/svg" viewBox="0 0 100 100"><defs><style>.cls-1{fill:none;stroke:#a5262d;stroke-miterlimit:10;stroke-width:4px;}.cls-2{fill:#4fb76a;}.cls-3{fill:#349951;}.cls-4{fill:#cfe1ed;}.cls-5{fill:#143441;}.cls-6{fill:#a7c1e0;}.cls-7{fill:#0d202b;}.cls-8{fill:#cbdde9;}.cls-9{fill:#369754;}.cls-10{fill:#163842;}.cls-11{fill:#fdd782;}.cls-12{fill:#caa158;}.cls-13{fill:#183c43;}.cls-14{fill:#cadce8;}.cls-15{fill:#51b66c;}.cls-16{fill:#153642;}</style></defs><circle class="cls-1" cx="50" cy="50" r="45"/><g><path class="cls-2" d="M28.4,82.7c-.6-.6-1.2-1.2-1.8-1.8-.2-.2-.3-.4-.3-.7,0-2.3,0-4.5,0-6.8,0-10.5,0-20.9,0-31.4,0-.3,0-.6,.3-.9,.9-1,1.9-1.9,2.8-2.9,.2-.2,.4-.3,.6-.3,12.6,0,25.2,0,37.8,0,.2,0,.4,0,.5,.2,.6,.6,1.2,1.2,1.8,1.8,0,12.9,0,25.8,0,38.7,0,.4-.1,.6-.4,.9-.8,.8-1.6,1.7-2.4,2.5-.3,.3-.6,.5-1,.5-12.5,0-24.9,0-37.4,0-.2,0-.4,0-.6,.1Zm13.7-4.5h2.5c0,.7,0,1.3,0,1.9,0,1.1,0,1.1,1.1,1.1,.3,0,.4-.1,.4-.4,0-.9,0-1.8,0-2.6h2.5c0,.7,0,1.3,0,1.9,0,1.1,0,1.1,1.1,1.1,.3,0,.4-.1,.4-.4,0-.9,0-1.8,0-2.6h2.5c0,.7,0,1.3,0,1.9,0,1.1,0,1.1,1.1,1.1,.3,0,.4,0,.4-.4,0-.9,0-1.8,0-2.7h2.5c0,.7,0,1.3,0,2,0,1.1,0,1.1,1.1,1.1,.4,0,.5-.1,.5-.5,0-.9,0-1.7,0-2.6h2.5c0,.6,0,1.3,0,1.9,0,1.2,0,1.2,1.2,1.1,.3,0,.4-.1,.4-.4,0-.9,0-1.8,0-2.6h2.5c0,.6,0,1.3,0,1.9,0,1.2,0,1.2,1.2,1.1,.3,0,.4,0,.4-.4,0-.9,0-1.8,0-2.6,.2,0,.4,0,.4-.3,.6,0,1.2,0,1.8,0,1.1,0,1.1,0,1.1-1.1,0-.3-.1-.4-.4-.4-.8,0-1.7,0-2.5,0,0-.8,0-1.7,0-2.5,.6,0,1.2,0,1.8,0,1.1,0,1.1,0,1.1-1.1s-.1-.5-.4-.5c-.8,0-1.7,0-2.5,0v-2.5c.6,0,1.2,0,1.8,0,1.3,0,1.1,.2,1.1-1.1,0-.3,0-.4-.4-.4-.8,0-1.7,0-2.5,0v-2.5c.6,0,1.2,0,1.8,0,1.3,0,1.1,.2,1.1-1.1,0-.3-.1-.4-.4-.4-.8,0-1.7,0-2.5,0,0-.8,0-1.6,0-2.5,.6,0,1.2,0,1.8,0,1.3,0,1.1,.2,1.1-1.1,0-.3-.1-.4-.4-.4-.8,0-1.7,0-2.5,0v-2.5c.6,0,1.2,0,1.8,0,1.2,0,1.2,0,1.1-1.2,0-.3-.1-.3-.4-.3-.9,0-1.7,0-2.6,0v-2.5c.6,0,1.2,0,1.8,0,1.2,0,1.2,0,1.1-1.2,0-.3-.1-.3-.4-.3-.9,0-1.7,0-2.6,0v-2.5c.6,0,1.2,0,1.8,0,1.2,0,1.2,0,1.1-1.2,0-.3-.1-.3-.4-.3-.9,0-1.7,0-2.6,0,0-.8,0-1.7,0-2.5,.6,0,1.2,0,1.8,0,1.2,0,1.2,0,1.1-1.2,0-.3-.1-.3-.4-.3-.9,0-1.7,0-2.6,0,0-.3-.1-.4-.4-.4,0-.6,0-1.2,0-1.8,0-1.2,0-1.2-1.2-1.1-.3,0-.3,.1-.3,.4,0,.9,0,1.7,0,2.6h-2.5c0-.6,0-1.2,0-1.8,0-1.2,0-1.2-1.2-1.1-.3,0-.3,.1-.3,.4,0,.9,0,1.7,0,2.6h-2.5c0-.6,0-1.2,0-1.8,0-1.2,0-1.2-1.2-1.1-.3,0-.3,.1-.3,.4,0,.9,0,1.7,0,2.6h-2.5c0-.6,0-1.2,0-1.8,0-1.2,0-1.2-1.2-1.1-.3,0-.3,.1-.3,.4,0,.9,0,1.7,0,2.6h-2.5c0-.6,0-1.2,0-1.8,0-1.2,0-1.2-1.2-1.1-.3,0-.3,.1-.3,.4,0,.9,0,1.7,0,2.6h-2.5c0-.6,0-1.2,0-1.9,0-1.2,0-1.2-1.2-1.1-.3,0-.3,.1-.3,.4,0,.9,0,1.7,0,2.6h-2.5c0-.6,0-1.2,0-1.9,0-1.2,0-1.2-1.2-1.1-.3,0-.3,.1-.3,.4,0,.9,0,1.7,0,2.6h-2.5c0-.6,0-1.2,0-1.9,0-1.2,0-1.1-1.2-1.1-.3,0-.3,.1-.3,.4,0,.9,0,1.7,0,2.6h-2.5c0-.6,0-1.2,0-1.9,0-1.2,0-1.1-1.2-1.1-.3,0-.3,.1-.3,.4,0,.9,0,1.7,0,2.6-.2,0-.4,0-.6,0-.3,0-.4,0-.4,.4-.4,0-.8,0-1.2,0-1.2,0-1.2,0-1.1,1.2,0,.2,.1,.3,.3,.3,.7,0,1.3,0,2,0v2.5c-.4,0-.8,0-1.2,0-1.2,0-1.2,0-1.1,1.2,0,.2,.1,.3,.3,.3,.7,0,1.3,0,2,0v2.5c-.4,0-.8,0-1.2,0-1.2,0-1.2,0-1.1,1.2,0,.2,.1,.3,.3,.3,.7,0,1.3,0,2,0,0,.8,0,1.7,0,2.5-.4,0-.8,0-1.2,0-1.2,0-1.2,0-1.1,1.2,0,.3,.1,.3,.3,.3,.7,0,1.3,0,2,0v2.5c-.4,0-.8,0-1.2,0-1.2,0-1.2,0-1.2,1.2,0,.2,0,.3,.3,.3,.7,0,1.4,0,2,0,0,.8,0,1.7,0,2.5-.4,0-.8,0-1.2,0-1.2,0-1.2,0-1.2,1.2,0,.3,.1,.3,.4,.3,.6,0,1.3,0,1.9,0v2.5c-.4,0-.8,0-1.2,0-1.2,0-1.2,0-1.2,1.2,0,.3,.1,.3,.4,.3,.6,0,1.3,0,1.9,0v2.5c-.4,0-.8,0-1.2,0-1.2,0-1.2,0-1.1,1.2,0,.3,.1,.3,.4,.3,.6,0,1.3,0,1.9,0,0,.8,0,1.7,0,2.5-.4,0-.8,0-1.2,0-1.2,0-1.2,0-1.1,1.2,0,.3,.1,.3,.4,.3,.6,0,1.3,0,1.9,0,0,.2,0,.3,.3,.3,.2,0,.5,0,.7,0,0,.6,0,1.3,0,1.9,0,1.2,0,1.2,1.2,1.1,.3,0,.3-.1,.3-.4,0-.9,0-1.8,0-2.7h2.5c0,.6,0,1.3,0,1.9,0,1.2,0,1.2,1.2,1.1,.3,0,.3-.1,.3-.4,0-.9,0-1.8,0-2.7h2.5c0,.7,0,1.3,0,1.9,0,1.1,0,1.1,1.1,1.1,.3,0,.4-.1,.4-.4,0-.9,0-1.8,0-2.6Z"/><path class="cls-3" d="M28.4,82.7c.2-.2,.4-.1,.6-.1,12.5,0,24.9,0,37.4,0,.5,0,.7-.2,1-.5,.8-.9,1.6-1.7,2.4-2.5,.3-.3,.4-.5,.4-.9,0-12.9,0-25.8,0-38.7,.5,.4,.9,.9,1.4,1.3,.2,.2,.1,.4,.1,.6,0,6.4,0,12.9,0,19.3,0,6.4,0,12.7,0,19.1,0,.3,0,.5-.3,.8-.9,.9-1.8,1.9-2.6,2.8-.2,.2-.4,.3-.6,.3-12.7,0-25.3,0-38,0-.2,0-.4,0-.6-.2-.4-.4-.8-.8-1.1-1.2Z"/><path class="cls-4" d="M62.1,43.9h2.5s.4,0,.4,0c0,2.9,0,5.8,0,8.7,0,3.7,.2,7.5-.2,11.2-.2,1.7-.5,3.4-1.1,5-.2,.6-.5,1.2-.9,1.8,0-.2,0-.4,0-.6,0-7,0-14,0-21,0-.5,.2-1.1,0-1.3-.3-.2-.9,0-1.4,0-.2,0-.3,0-.5,0-8.3,0-16.7,0-25,0-.4,0-.5,.1-.5,.5,0,8.1,0,16.2,0,24.3,0,.2,0,.3,0,.5,0,.3,0,.7,0,1,0,.4,.1,.5,.5,.5,7.5,0,15,0,22.5,0,.2,0,.4,0,.6,0-.5,.2-.9,.5-1.4,.7-2.5,1-5.2,1.5-7.9,1.5-6,0-12,0-18,0,0,0,0-.2,0-.3,0-.8,0-1.7,0-2.5,0-.5,0-1,0-1.5v-2.5c0-.5,0-1,0-1.5v-2.5c0-.5,0-1,0-1.5,0-.8,0-1.7,0-2.5,0-.5,0-1,0-1.5,0-.8,0-1.7,0-2.5v-1.5c0-.8,0-1.7,0-2.5v-1.5s0-2.5,0-2.5c0-.5,0-1,0-1.5,0-.8,0-1.7,0-2.5v-1.5c0-.3,0-.4,.4-.4,.2,0,.4,0,.6,0h4s1.5,0,1.5,0h2.5s1.5,0,1.5,0h2.5s1.5,0,1.5,0h2.5s1.5,0,1.5,0h2.5s1.5,0,1.5,0h2.5s1.5,0,1.5,0h2.5s1.5,0,1.5,0Z"/><path class="cls-6" d="M31.6,76.6c6,0,12,0,18,0,2.7,0,5.4-.4,7.9-1.5,.5-.2,.9-.5,1.4-.7,1.2,0,2.3,0,3.5,0,.3,0,.4,0,.4-.4,0-1.1,0-2.3,0-3.4,.4-.5,.7-1.1,.9-1.8,.6-1.6,1-3.3,1.1-5,.3-3.7,.1-7.5,.2-11.2,0-2.9,0-5.8,0-8.7h1.1c.3,0,.4,0,.4,.4v1.5c0,.8,0,1.7,0,2.5v1.5s0,2.5,0,2.5v1.5c0,.8,0,1.7,0,2.5,0,.5,0,1,0,1.5,0,.8,0,1.7,0,2.5,0,.5,0,1,0,1.5,0,.8,0,1.6,0,2.5v1.5c0,.8,0,1.6,0,2.5s0,1,0,1.5c0,.8,0,1.6,0,2.5,0,.5,0,1,0,1.5,0,.8,0,1.7,0,2.5,0,.5,0,1,0,1.5,0,.3-.2,.3-.4,.3h-1.5s-2.5,0-2.5,0h-4s-1.5,0-1.5,0h-2.5s-1.5,0-1.5,0h-2.5s-1.5,0-1.5,0h-2.5s-1.5,0-1.5,0h-2.5s-1.5,0-1.5,0h-2.5s-1.5,0-1.5,0h-2.5s-1.5,0-1.5,0c-.2,0-.5,0-.7,0-.2,0-.3,0-.3-.3v-1.2Z"/><path class="cls-13" d="M60.5,78.1h1.5c0,.9,0,1.8,0,2.6,0,.3,0,.4-.4,.4-1.2,0-1.2,0-1.2-1.1,0-.6,0-1.3,0-1.9Z"/><path class="cls-10" d="M56.5,78.1h1.5c0,.9,0,1.7,0,2.6,0,.3,0,.5-.5,.5-1.1,0-1.1,0-1.1-1.1,0-.6,0-1.3,0-1.9Z"/><path class="cls-10" d="M64.5,78.1h1.5c0,.9,0,1.8,0,2.6,0,.3,0,.4-.4,.4-1.2,0-1.2,0-1.2-1.1,0-.6,0-1.3,0-1.9Z"/><path class="cls-10" d="M58.1,43.9h-1.5c0-.9,0-1.7,0-2.6,0-.2,0-.4,.3-.4,1.2,0,1.2,0,1.2,1.1,0,.6,0,1.2,0,1.8Z"/><path class="cls-13" d="M62.1,43.9h-1.5c0-.9,0-1.7,0-2.6,0-.2,0-.3,.3-.4,1.2,0,1.2,0,1.2,1.1,0,.6,0,1.2,0,1.8Z"/><path class="cls-10" d="M66.1,43.9h-1.1s-.4,0-.4,0c0-.9,0-1.7,0-2.6,0-.2,0-.3,.3-.4,1.2,0,1.2,0,1.2,1.1,0,.6,0,1.2,0,1.8Z"/><path class="cls-10" d="M66.5,69.8c0-.5,0-1,0-1.5,.8,0,1.7,0,2.5,0,.3,0,.4,.1,.4,.4,0,1.4,.2,1.1-1.1,1.1-.6,0-1.2,0-1.8,0Z"/><path class="cls-10" d="M66.5,61.8c0-.5,0-1,0-1.5,.8,0,1.7,0,2.5,0,.3,0,.4,.1,.4,.4,0,1.4,.2,1.1-1.1,1.1-.6,0-1.2,0-1.8,0Z"/><path class="cls-10" d="M66.5,65.8v-1.5c.8,0,1.7,0,2.5,0,.3,0,.4,.1,.4,.4,0,1.4,.2,1.1-1.1,1.1-.6,0-1.2,0-1.8,0Z"/><path class="cls-10" d="M66.5,73.8c0-.5,0-1,0-1.5,.8,0,1.7,0,2.5,0,.3,0,.4,.1,.4,.5,0,1.1,0,1.1-1.1,1.1-.6,0-1.2,0-1.8,0Z"/><path class="cls-16" d="M32.6,78.1h1.5c0,.9,0,1.8,0,2.7,0,.2,0,.4-.3,.4-1.2,0-1.2,0-1.2-1.1,0-.6,0-1.3,0-1.9Z"/><path class="cls-16" d="M36.6,78.1h1.5c0,.9,0,1.8,0,2.7,0,.2,0,.4-.3,.4-1.2,0-1.2,0-1.2-1.1,0-.6,0-1.3,0-1.9Z"/><path class="cls-16" d="M44.6,78.1h1.5c0,.9,0,1.8,0,2.6,0,.3,0,.4-.4,.4-1.1,0-1.1,0-1.1-1.1,0-.6,0-1.3,0-1.9Z"/><path class="cls-10" d="M48.5,78.1h1.5c0,.9,0,1.8,0,2.6,0,.3,0,.4-.4,.4-1.1,0-1.1,0-1.1-1.1,0-.6,0-1.3,0-1.9Z"/><path class="cls-10" d="M52.5,78.1h1.5c0,.9,0,1.8,0,2.7,0,.3,0,.4-.4,.4-1.1,0-1.1,0-1.1-1.1,0-.6,0-1.3,0-1.9Z"/><path class="cls-16" d="M40.6,78.1h1.5c0,.9,0,1.8,0,2.6,0,.3,0,.4-.4,.4-1.1,0-1.1,0-1.1-1.1,0-.6,0-1.3,0-1.9Z"/><path class="cls-10" d="M66.5,57.8c0-.5,0-1,0-1.5,.9,0,1.7,0,2.6,0,.2,0,.3,0,.4,.3,0,1.2,0,1.2-1.1,1.2-.6,0-1.2,0-1.8,0Z"/><path class="cls-16" d="M66.5,49.8v-1.5c.9,0,1.7,0,2.6,0,.2,0,.3,0,.4,.3,0,1.2,0,1.2-1.1,1.2-.6,0-1.2,0-1.8,0Z"/><path class="cls-16" d="M66.5,53.8v-1.5c.9,0,1.7,0,2.6,0,.2,0,.3,0,.4,.3,0,1.2,0,1.2-1.1,1.2-.6,0-1.2,0-1.8,0Z"/><path class="cls-16" d="M66.5,45.8v-1.5c.9,0,1.7,0,2.6,0,.2,0,.3,0,.4,.3,0,1.2,0,1.2-1.1,1.2-.6,0-1.2,0-1.8,0Z"/><path class="cls-10" d="M54,43.9h-1.5c0-.9,0-1.7,0-2.6,0-.2,0-.4,.3-.4,1.2,0,1.2,0,1.2,1.1,0,.6,0,1.2,0,1.9Z"/><path class="cls-16" d="M46,43.9h-1.5c0-.9,0-1.7,0-2.6,0-.2,0-.4,.3-.4,1.2,0,1.2,0,1.2,1.1,0,.6,0,1.2,0,1.9Z"/><path class="cls-10" d="M66.5,77.8c0-.5,0-1,0-1.5,.8,0,1.7,0,2.5,0,.3,0,.4,0,.4,.4,0,1.1,0,1.1-1.1,1.1-.6,0-1.2,0-1.8,0Z"/><path class="cls-16" d="M50,43.9h-1.5c0-.9,0-1.7,0-2.6,0-.2,0-.3,.3-.4,1.2,0,1.2,0,1.2,1.1,0,.6,0,1.2,0,1.9Z"/><path class="cls-16" d="M42,43.9h-1.5c0-.9,0-1.7,0-2.6,0-.2,0-.4,.3-.4,1.2,0,1.2,0,1.2,1.1,0,.6,0,1.2,0,1.9Z"/><path class="cls-5" d="M38,43.9h-1.5c0-.9,0-1.7,0-2.6,0-.2,0-.4,.3-.4,1.2,0,1.2,0,1.2,1.1,0,.6,0,1.2,0,1.9Z"/><path class="cls-5" d="M34,43.9h-1.5c0-.9,0-1.7,0-2.6,0-.2,0-.4,.3-.4,1.2,0,1.2,0,1.2,1.1,0,.6,0,1.2,0,1.9Z"/><path class="cls-10" d="M31.5,64.3c0,.5,0,1,0,1.5-.6,0-1.3,0-1.9,0-.2,0-.4,0-.4-.3,0-1.2,0-1.2,1.2-1.2,.4,0,.8,0,1.2,0Z"/><path class="cls-10" d="M31.5,68.3c0,.5,0,1,0,1.5-.6,0-1.3,0-1.9,0-.2,0-.4,0-.4-.3,0-1.2,0-1.2,1.2-1.2,.4,0,.8,0,1.2,0Z"/><path class="cls-10" d="M31.5,72.3c0,.5,0,1,0,1.5-.6,0-1.3,0-1.9,0-.2,0-.4,0-.4-.3,0-1.2,0-1.2,1.1-1.2,.4,0,.8,0,1.2,0Z"/><path class="cls-10" d="M31.5,60.3c0,.5,0,1,0,1.5-.7,.1-1.3,0-2,0-.2,0-.3,0-.3-.3,0-1.2,0-1.2,1.2-1.2,.4,0,.8,0,1.2,0Z"/><path class="cls-16" d="M31.5,52.3v1.5c-.7,0-1.3,0-2,0-.2,0-.3,0-.3-.3,0-1.2,0-1.2,1.1-1.2,.4,0,.8,0,1.2,0Z"/><path class="cls-16" d="M31.5,48.3c0,.5,0,1,0,1.5-.7,0-1.3,0-2,0-.2,0-.3,0-.3-.3,0-1.2,0-1.2,1.1-1.2,.4,0,.8,0,1.2,0Z"/><path class="cls-5" d="M31.5,44.3v1.5c-.7,0-1.3,0-2,0-.2,0-.3,0-.3-.3,0-1.2,0-1.2,1.1-1.2,.4,0,.8,0,1.2,0Z"/><path class="cls-16" d="M31.5,56.3v1.5c-.7,0-1.3,0-2,0-.2,0-.3,0-.3-.3,0-1.2,0-1.2,1.1-1.2,.4,0,.8,0,1.2,0Z"/><path class="cls-10" d="M31.6,76.6v1.2c-.7,0-1.3,0-2,0-.2,0-.3,0-.4-.3,0-1.2,0-1.2,1.1-1.2,.4,0,.8,0,1.2,0,0,0,0,.2,0,.3Z"/><path class="cls-5" d="M35.3,72.9c0-.2,0-.3,0-.5,0-8.1,0-16.2,0-24.3,0-.4,.1-.5,.5-.5,8.3,0,16.7,0,25,0,.2,0,.3,0,.5,0,0,1.5,0,3,0,4.5,0,3.2,.1,6.5,0,9.7,0,1.3-.4,2.6-.9,3.8-.7,1.8-1.8,3.4-3.3,4.6-2.4,1.9-5.2,2.5-8.1,2.6-4.5,0-9.1,0-13.6,0Zm14.4-5.2h2.2c0,.9,0,1.8,0,2.7,0,1.1,0,1.1,1.1,1.1,.3,0,.4-.1,.4-.4,0-1.1,0-2.3,0-3.4,.8,0,1.5,0,2.3,0,.3,0,.4,0,.4-.4,0-.6,0-1.2,0-1.8,.7,0,1.5,0,2.2,0,1.1,0,1.1,0,1.1-1.1,0-.3-.1-.4-.4-.4-1,0-1.9,0-2.9,0,0-.7,0-1.5,0-2.2,.7,0,1.5,0,2.2,0,1.1,0,1.1,0,1.1-1.1,0-.3-.1-.4-.4-.4-1,0-1.9,0-2.9,0,0-.7,0-1.5,0-2.2,.7,0,1.5,0,2.2,0,1.1,0,1.1,0,1.1-1.1,0-.3-.1-.4-.4-.4-1,0-1.9,0-2.9,0,0-.6,0-1.3,0-1.9,0-.3,0-.4-.3-.4-.4,0-.8,0-1.2,0h-1.2c0-.9,0-1.7,0-2.6,0-1.1,0-1.1-1.1-1.1-.3,0-.4,0-.4,.4,0,1.1,0,2.2,0,3.3h-2.2c0-.9,0-1.7,0-2.6,0-1.1,0-1.1-1.1-1.1-.3,0-.4,0-.4,.4,0,1.1,0,2.2,0,3.3h-2.2c0-.9,0-1.7,0-2.6,0-1.1,0-1.1-1.1-1.1-.3,0-.4,0-.4,.4,0,1.1,0,2.2,0,3.3-.7,0-1.4,0-2.1,0-.3,0-.4,0-.4,.4,0,.6,0,1.2,0,1.9-.8,0-1.5,0-2.3,0-1.1,0-1.1,0-1.1,1.1,0,.3,.1,.4,.4,.4,1,0,2,0,3.1,0,0,.7,0,1.5,0,2.2-.8,0-1.5,0-2.3,0-1.1,0-1.1,0-1.1,1.1,0,.3,.1,.4,.4,.4,1,0,2,0,3.1,0v2.2c-.8,0-1.5,0-2.3,0-1.1,0-1.1,0-1.1,1.1,0,.3,.1,.4,.4,.4,1,0,2,0,3.1,0,0,.2,0,.5,0,.7,0,.4,0,.8,0,1.2,0,.3,0,.3,.4,.3,.7,0,1.4,0,2.2,0,0,.9,0,1.8,0,2.7,0,1.1,0,1.1,1.1,1.1,.3,0,.4-.1,.4-.4,0-1.1,0-2.3,0-3.4h2.2c0,.9,0,1.8,0,2.7,0,1.1,0,1.1,1.1,1.1,.3,0,.4-.1,.4-.4,0-1.1,0-2.3,0-3.4Z"/><path class="cls-7" d="M35.3,72.9c4.5,0,9.1,0,13.6,0,2.9,0,5.7-.7,8.1-2.6,1.6-1.2,2.6-2.8,3.3-4.6,.5-1.2,.8-2.5,.9-3.8,.2-3.2,0-6.5,0-9.7,0-1.5,0-3,0-4.5,.5,0,1.1-.2,1.4,0,.3,.2,0,.9,0,1.3,0,7,0,14,0,21,0,.2,0,.4,0,.6,0,1.1,0,2.3,0,3.4,0,.3,0,.4-.4,.4-1.2,0-2.3,0-3.5,0-.2,0-.4,0-.6,0-7.5,0-15,0-22.5,0-.4,0-.6,0-.5-.5,0-.3,0-.6,0-1Z"/><path class="cls-15" d="M41.9,56.6c0-.6,0-1.2,0-1.9,0-.3,0-.4,.4-.4,.7,0,1.4,0,2.1,0h3.7s1.5,0,1.5,0h2.2s1.5,0,1.5,0h1.2c0,2.4,.1,4.8-.1,7.1-.1,1.1-.5,2.2-1.4,3,0-.2,0-.4,0-.6,0-2.1,0-4.1,0-6.2,0-.3,0-.5-.4-.4-.4,0-.7,0-1.1,0-2.1,0-4.2,0-6.3,0-.3,0-.3,0-.3,.3,0,1.9,0,3.7,0,5.6,0,.3,0,.7,0,1,0,.4,.1,.5,.5,.5,2.5,0,4.9,0,7.4,0-.1,.2-.2,.3-.4,.4-1.1,.8-2.3,1.1-3.6,1.1-2.3,0-4.5,0-6.8,0,0-.2,0-.5,0-.7,0-.5,0-1,0-1.5,0-.7,0-1.5,0-2.2,0-.5,0-1,0-1.5,0-.7,0-1.5,0-2.2,0-.5,0-1,0-1.5Z"/><path class="cls-9" d="M42,66.2c2.3,0,4.5,0,6.8,0,1.3,0,2.5-.3,3.6-1.1,.2-.1,.3-.2,.4-.4,.1,0,.2-.2,.3-.3,.9-.8,1.2-1.9,1.4-3,.2-2.4,0-4.7,.1-7.1,.4,0,.8,0,1.2,0,.3,0,.3,.1,.3,.4,0,.6,0,1.3,0,1.9,0,.5,0,1,0,1.5,0,.7,0,1.5,0,2.2,0,.5,0,1,0,1.5,0,.7,0,1.5,0,2.2,0,.5,0,1,0,1.5,0,.6,0,1.2,0,1.8,0,.3-.1,.4-.4,.4-.8,0-1.5,0-2.3,0h-1.5s-2.2,0-2.2,0h-1.5s-2.2,0-2.2,0h-1.5c-.7,0-1.4,0-2.2,0-.3,0-.4,0-.4-.3,0-.4,0-.8,0-1.2Z"/><path class="cls-8" d="M51.9,67.7h1.5c0,1.1,0,2.2,0,3.4,0,.3,0,.4-.4,.4-1.1,0-1.1,0-1.1-1.1,0-.9,0-1.8,0-2.7Z"/><path class="cls-14" d="M48.2,67.7h1.5c0,1.1,0,2.2,0,3.4,0,.3,0,.4-.4,.4-1.1,0-1.1,0-1.1-1.1,0-.9,0-1.8,0-2.7Z"/><path class="cls-8" d="M44.5,67.7h1.5c0,1.1,0,2.2,0,3.4,0,.3,0,.4-.4,.4-1.1,0-1.1,0-1.1-1.1,0-.9,0-1.8,0-2.7Z"/><path class="cls-8" d="M45.9,54.3h-1.5c0-1.1,0-2.2,0-3.3,0-.3,0-.4,.4-.4,1.1,0,1.1,0,1.1,1.1,0,.9,0,1.7,0,2.6Z"/><path class="cls-8" d="M49.7,54.3h-1.5c0-1.1,0-2.2,0-3.3,0-.3,0-.4,.4-.4,1.1,0,1.1,0,1.1,1.1,0,.9,0,1.7,0,2.6Z"/><path class="cls-4" d="M53.4,54.3h-1.5c0-1.1,0-2.2,0-3.3,0-.3,0-.4,.4-.4,1.1,0,1.1,0,1.1,1.1,0,.9,0,1.7,0,2.6Z"/><path class="cls-4" d="M41.9,64c0,.5,0,1,0,1.5-1,0-2,0-3.1,0-.3,0-.4,0-.4-.4,0-1.1,0-1.1,1.1-1.1,.8,0,1.5,0,2.3,0Z"/><path class="cls-4" d="M41.9,60.3c0,.5,0,1,0,1.5-1,0-2,0-3.1,0-.3,0-.4,0-.4-.4,0-1.1,0-1.1,1.1-1.1,.8,0,1.5,0,2.3,0Z"/><path class="cls-8" d="M41.9,56.6c0,.5,0,1,0,1.5-1,0-2,0-3.1,0-.3,0-.4,0-.4-.4,0-1.1,0-1.1,1.1-1.1,.8,0,1.5,0,2.3,0Z"/><path class="cls-14" d="M56.1,61.8c0-.5,0-1,0-1.5,1,0,1.9,0,2.9,0,.3,0,.4,0,.4,.4,0,1.1,0,1.1-1.1,1.1-.7,0-1.5,0-2.2,0Z"/><path class="cls-14" d="M56.1,58.1c0-.5,0-1,0-1.5,1,0,1.9,0,2.9,0,.3,0,.4,0,.4,.4,0,1.1,0,1.1-1.1,1.1-.7,0-1.5,0-2.2,0Z"/><path class="cls-4" d="M56.1,65.5c0-.5,0-1,0-1.5,1,0,1.9,0,2.9,0,.3,0,.4,0,.4,.4,0,1.1,0,1.1-1.1,1.1-.7,0-1.5,0-2.2,0Z"/><path class="cls-11" d="M44.9,63.3c0-1.9,0-3.7,0-5.6,0-.3,0-.3,.3-.3,2.1,0,4.2,0,6.3,0,0,1,0,2.1,0,3.1,0,.6-.1,1.1-.5,1.6-.6,.9-1.6,1.2-2.6,1.2-1.2,0-2.4,0-3.6,0Z"/><path class="cls-12" d="M44.9,63.3c1.2,0,2.4,0,3.6,0,1,0,2-.3,2.6-1.2,.3-.5,.5-1,.5-1.6,0-1,0-2.1,0-3.1,.4,0,.7,0,1.1,0,.4,0,.4,.1,.4,.4,0,2.1,0,4.1,0,6.2,0,.2,0,.4,0,.6,0,.1-.2,.2-.3,.3-2.5,0-4.9,0-7.4,0-.4,0-.6,0-.5-.5,0-.3,0-.6,0-1Z"/></g><g><path d="M25.2,27c-2.1-3.3-1.2-7.4,2.2-9.5,2.1-1.3,4.5-1.4,6.5-.4l-1.4,2.7c-1-.6-2.3-.5-3.5,.2-2,1.2-2.5,3.4-1.2,5.4,1.2,2,3.4,2.6,5.4,1.3,1.1-.7,1.8-1.8,1.8-3h3c0,2.1-1.2,4.3-3.2,5.5-3.4,2.1-7.5,1.1-9.5-2.2Z"/><path d="M47.9,18.8l1.1,5.7-2.8,.5-1-5.3c-.2-1.2-1-1.6-1.9-1.4-1,.2-1.6,.9-1.4,2.2l.9,5.1-2.8,.5-2.4-13.1,2.8-.5,.9,4.6c.4-.8,1.2-1.4,2.5-1.6,1.9-.4,3.7,.7,4.2,3.2Z"/><path d="M50.7,15.3l2.8,.2-.5,9.5-2.8-.2,.5-9.5Zm-.1-2.6c0-.9,.9-1.7,1.8-1.6,.9,0,1.7,.9,1.6,1.8,0,.9-.9,1.7-1.8,1.6-.9,0-1.7-.9-1.6-1.8Z"/><path d="M65.6,23.3c-.8,2.7-3.5,4.2-5.8,3.4-1.2-.4-2-1.1-2.4-2l-1.4,4.5-2.7-.9,4-12.7,2.7,.9-.3,.9c.8-.5,1.8-.6,3-.3,2.4,.7,3.7,3.4,2.8,6.1Zm-2.7-.9c.4-1.4-.2-2.5-1.5-2.9s-2.4,.2-2.8,1.5c-.4,1.4,.2,2.5,1.5,2.9,1.3,.4,2.4-.2,2.9-1.5Z"/><path d="M72.2,30.2c-1.2,1.8-3.3,1.5-5,.3-1.6-1.1-2.3-2.5-2.1-4.2l2.8,.3c-.2,.7,0,1.4,.7,1.8,.6,.4,1,.4,1.2,.1,.6-.9-3.5-3.1-1.7-5.8,1.2-1.7,3.2-1.6,4.8-.4,1.3,.9,2,2.2,1.9,3.8l-2.7-.3c0-.6,0-1.1-.6-1.4-.4-.3-.8-.3-1,0-.6,.9,3.6,3,1.6,5.9Z"/></g></svg>