<?xml version="1.0" encoding="UTF-8"?><svg id="Layer_1" xmlns="http://www.w3.org/2000/svg" viewBox="0 0 100 100"><defs><style>.cls-1{fill:none;stroke:#a5262d;stroke-miterlimit:10;stroke-width:4px;}.cls-2{fill:#484645;}.cls-3{fill:#64c7ef;}</style></defs><circle class="cls-1" cx="50" cy="50" r="45"/><path d="m21.3,30.9c-2.5-3-2.3-7.2.8-9.7,1.8-1.6,4.2-2,6.3-1.3l-1,2.9c-1.1-.4-2.4-.1-3.4.7-1.8,1.5-1.9,3.7-.4,5.5,1.5,1.8,3.7,2,5.5.5,1-.9,1.5-2.1,1.3-3.2l3-.5c.3,2.2-.5,4.5-2.4,6-3.1,2.6-7.2,2.2-9.8-.8Z"/><path d="m33.7,23.6c-.9-2.7.5-5.5,3.1-6.4s5.5.4,6.4,3.1c.9,2.7-.5,5.5-3.1,6.4-2.6.9-5.5-.4-6.4-3.1Zm6.8-2.4c-.4-1.3-1.6-1.8-2.8-1.4-1.2.4-1.8,1.6-1.3,2.8.4,1.3,1.6,1.8,2.8,1.4,1.2-.4,1.8-1.6,1.3-2.8Z"/><path d="m55.6,20.1c0,2.8-2.1,5-4.6,5-1.3,0-2.2-.5-2.8-1.2v.9s-2.9,0-2.9,0v-13.3c.1,0,3,0,3,0v4.7c.6-.7,1.5-1.1,2.8-1.1,2.5,0,4.5,2.2,4.5,5.1Zm-2.8,0c0-1.4-.9-2.3-2.2-2.3-1.3,0-2.3.9-2.3,2.3,0,1.4.9,2.3,2.2,2.3,1.3,0,2.3-.9,2.3-2.3Z"/><path d="m68.6,19.6l-3.4,8.9-2.7-1,.3-.8c-.8.5-1.9.5-3.1,0-2.3-.9-3.5-3.7-2.5-6.3,1-2.6,3.7-4,6-3.1,1.2.5,1.9,1.2,2.2,2.1l.3-.8,2.7,1Zm-4.3,3.4c.5-1.3,0-2.5-1.3-3-1.2-.5-2.4,0-2.9,1.4-.5,1.3,0,2.5,1.3,3,1.2.5,2.4,0,2.9-1.4Z"/><path d="m74.2,18.1l2.3,1.6-8,11.3-2.3-1.6,8-11.3Z"/><path d="m77.2,29.8l-2.4,2.4c-.6.6-.1,1.1.8,2l-1.8,1.8c-2.9-2.4-2.8-4-.9-5.8l2.4-2.4-1.1-1.1,2-1.9,1.1,1.1,1.3-1.3,2.6,1.4-1.9,1.9,1.4,1.4-2,1.9-1.4-1.4Z"/><rect class="cls-3" x="23" y="40" width="52" height="37" rx="2.9" ry="2.9"/><path class="cls-2" d="m40.3,70.8c-3.6,0-6.5-1.2-8.8-3.5-2.3-2.4-3.5-5.3-3.5-8.8s1.2-6.4,3.5-8.8c2.3-2.4,5.3-3.5,8.8-3.5s4.1.5,5.9,1.5c1.8,1,3.3,2.4,4.3,4.1l-5.2,3c-.5-.8-1.1-1.5-2-2-.9-.5-1.9-.7-3-.7-1.9,0-3.4.6-4.6,1.8-1.2,1.2-1.7,2.7-1.7,4.6s.6,3.5,1.7,4.6,2.7,1.8,4.6,1.8,2.1-.2,3-.7c.9-.5,1.6-1.2,2-2l5.2,3c-1,1.7-2.5,3.1-4.3,4.1-1.8,1-3.8,1.5-6,1.5Z"/><path class="cls-2" d="m61,70.8c-2.5,0-4.6-.9-6.4-2.6-1.8-1.7-2.6-3.8-2.6-6.3s.9-4.6,2.6-6.3c1.8-1.7,3.9-2.6,6.4-2.6s4.7.9,6.4,2.6c1.7,1.7,2.6,3.8,2.6,6.3s-.9,4.6-2.6,6.3c-1.7,1.7-3.9,2.6-6.4,2.6Zm0-5.4c1,0,1.8-.3,2.4-1,.6-.7,1-1.5,1-2.5s-.3-1.9-1-2.5c-.6-.7-1.5-1-2.4-1s-1.8.3-2.4,1c-.6.7-1,1.5-1,2.5s.3,1.9,1,2.5c.6.7,1.4,1,2.4,1Z"/></svg>