<?xml version="1.0" encoding="UTF-8"?><svg id="Layer_1" xmlns="http://www.w3.org/2000/svg" viewBox="0 0 100 100"><defs><style>.cls-1{fill:none;stroke:#a5262d;stroke-miterlimit:10;stroke-width:4px;}.cls-2{fill:#f15a24;}.cls-3{fill:#484645;}</style></defs><circle class="cls-1" cx="50" cy="50" r="45"/><path d="m20.7,34.8c-2.9-2.7-3.1-6.8-.3-9.8,1.6-1.8,4-2.5,6.1-2.1l-.7,3c-1.2-.3-2.4.2-3.3,1.1-1.6,1.7-1.5,3.9.2,5.5,1.7,1.6,3.9,1.6,5.5-.1.9-1,1.3-2.2.9-3.4l2.9-.9c.6,2.1,0,4.5-1.6,6.3-2.7,2.9-6.9,3-9.8.3Z"/><path d="m32.2,26.1c-1.2-2.5-.2-5.5,2.3-6.7,2.5-1.2,5.5-.2,6.7,2.3,1.2,2.5.2,5.5-2.3,6.7-2.5,1.2-5.5.2-6.7-2.3Zm6.5-3.1c-.6-1.2-1.8-1.6-2.9-1.1-1.1.5-1.6,1.8-1,3,.6,1.2,1.8,1.6,2.9,1.1,1.1-.5,1.6-1.8,1-3Z"/><path d="m53.5,20c.3,2.8-1.5,5.2-4,5.5-1.3.1-2.2-.2-2.9-.8l.5,4.7-2.8.3-1.5-13.2,2.8-.3v.9c.6-.8,1.5-1.3,2.8-1.5,2.5-.3,4.8,1.7,5.1,4.5Zm-2.8.3c-.2-1.4-1.2-2.2-2.5-2.1s-2.1,1.1-2,2.6c.2,1.4,1.2,2.2,2.5,2.1,1.3-.1,2.1-1.1,2-2.6Z"/><path d="m65.7,22.7c-.7,2.7-3.2,4.4-5.6,3.8-1.2-.3-2-1-2.5-1.8l-1.1,4.6-2.8-.7,3.2-12.9,2.8.7-.2.9c.8-.5,1.8-.7,3-.4,2.4.6,3.9,3.2,3.2,6Zm-2.8-.7c.3-1.4-.4-2.5-1.6-2.8-1.3-.3-2.4.3-2.8,1.7-.3,1.4.4,2.5,1.6,2.8,1.3.3,2.4-.3,2.8-1.7Z"/><path d="m70.3,28.4c.7.4,1.4.5,1.9.4l1.2,2.4c-1.5.6-3,.3-4.5-.7-2.7-1.8-3.2-4.7-1.6-7.1,1.6-2.4,4.5-3.1,7-1.4,2.3,1.5,2.8,4.5,1.3,6.8-.2.3-.5.6-.7.9l-5.6-3.7c-.2,1,.3,1.8,1.2,2.4Zm3.4-1.9c.4-1.1-.1-1.9-.9-2.4-.9-.6-1.8-.6-2.6.1l3.4,2.3Z"/><path d="m84.3,31.6l-2.4,2.1c-.6-1-2.1-2-3.5-.7l-3.2,2.8-1.9-2.1,7.2-6.2,1.9,2.1-1.3,1.1c1.2-.5,2.5,0,3.3.9Z"/><rect class="cls-2" x="24" y="42" width="52" height="37" rx="2.9" ry="2.9"/><path class="cls-3" d="m41.3,72.8c-3.6,0-6.5-1.2-8.8-3.5-2.3-2.4-3.5-5.3-3.5-8.8s1.2-6.4,3.5-8.8c2.3-2.4,5.3-3.5,8.8-3.5s4.1.5,5.9,1.5c1.8,1,3.3,2.4,4.3,4.1l-5.2,3c-.5-.8-1.1-1.5-2-2-.9-.5-1.9-.7-3-.7-1.9,0-3.4.6-4.6,1.8-1.2,1.2-1.7,2.7-1.7,4.6s.6,3.5,1.7,4.6,2.7,1.8,4.6,1.8,2.1-.2,3-.7c.9-.5,1.6-1.2,2-2l5.2,3c-1,1.7-2.5,3.1-4.3,4.1-1.8,1-3.8,1.5-6,1.5Z"/><path class="cls-3" d="m64.6,55.4h5.6v16.9h-5.6v-1.7c-1,1.4-2.6,2.2-4.7,2.2s-3.3-.6-4.5-1.9c-1.2-1.2-1.7-3-1.7-5.4v-10.1h5.6v9.4c0,.9.2,1.5.7,2,.5.5,1.1.7,1.8.7s1.6-.3,2-.8c.5-.5.7-1.3.7-2.3v-9Z"/></svg>