<?xml version="1.0" encoding="UTF-8"?><svg id="Layer_1" xmlns="http://www.w3.org/2000/svg" viewBox="0 0 100 100"><defs><style>.cls-1{fill:none;stroke:#a5262d;stroke-miterlimit:10;stroke-width:4px;}.cls-2{fill:#33b1cb;}.cls-3{fill:#33b1cc;}.cls-4{fill:#86cde8;}</style></defs><circle class="cls-1" cx="50" cy="50" r="45"/><path class="cls-4" d="m20,52.3v-.6c.3-.6.9-.7,1.4-.8,1.4-.2,2.5-1.3,2.5-2.7,0-.2,0-.3,0-.5.1-.5.5-.8,1-.7.5,0,.9.4.9.8,0,.3,0,.5.1.8.2,1.1,1.1,2,2.2,2.2.7.2.7.1.7-.6v-13.5q0-.8.8-.8h29.8c.3,0,.5,0,.8,0,0,.3-.3.4-.5.6-2.4,2.4-4.8,4.8-7.2,7.2-.2.2-.4.4-.5.6-.2.4-.1.9.2,1.2.3.3.8.4,1.2.1.2-.1.4-.3.5-.5,2.8-2.8,5.6-5.6,8.3-8.3.3-.3.5-.6.6-1h3.4c0,.3-.3.4-.5.6l-13.3,13.3c-.2.2-.3.3-.5.5-.2.3-.3.7,0,1,.2.3.5.6.9.5.3,0,.6-.2.9-.4l14.6-14.6c.3-.2.5-.6.5-.9h1.1c1,0,.9-.1.9.9v28.3c0,.8,0,.8.8.6,1.3-.4,2.2-1.5,2.2-2.8,0-.7.4-1,1-1s.9.4,1,1c.2,1.7,1.1,2.6,2.8,2.9.5,0,1,.3,1.2.8v.6c-.2.4-.7.7-1.1.7-1.7.2-2.6,1.1-2.8,2.9,0,.3-.2.7-.4.9-.3.2-.6.3-.9.1-.4-.1-.6-.5-.6-.9-.2-1.6-.9-2.6-2.3-2.9-.7-.2-.7-.1-.7.6v12.6q0,.8-.7.8h-21c-.2,0-.4,0-.6,0,0-.3.3-.4.5-.6l7.5-7.5c.5-.6.6-1.1.1-1.5-.4-.4-1-.4-1.4,0,0,0,0,0-.1.1-2.9,2.9-5.8,5.8-8.7,8.7-.2.2-.4.5-.5.9-1.1,0-2.3,0-3.4,0,0-.3.3-.4.5-.6l13.3-13.3c.2-.2.4-.4.5-.6.2-.4.2-.9-.2-1.2-.3-.3-.9-.4-1.2,0-.1,0-.2.2-.3.3l-14.6,14.6c-.3.2-.4.6-.5.9h-10.1q-.9,0-.9-.9v-27.5c0-.7,0-.8-.7-.6-1.3.4-2.1,1.3-2.3,2.9,0,.6-.4,1-1,1-.6,0-1-.5-1-1v-.3c-.1-1.4-1.3-2.5-2.7-2.6-.5,0-1-.3-1.3-.7Zm5,.6c.3-.2.7-.5.9-.9-.3-.4-.6-.7-.9-1-.3.2-.6.5-.9.9.2.3.5.6.9.9h0Zm50.9,14.1c-.2-.4-.5-.7-.9-.9-.4.3-.7.6-.9.9.3.3.6.6.9.9.3-.3.6-.6.9-.9h0Z"/><path class="cls-3" d="m66.4,36.1c.3-.1.5-.3.7-.6.8-.8,1.6-.6,1.9.5,0,.4-.3.7-.5.9l-14.6,14.6c-.2.3-.5.4-.9.4-.4,0-.7-.2-.9-.5-.2-.3-.2-.7,0-1,.1-.2.3-.4.5-.5l13.3-13.3c.2-.2.4-.3.5-.6Z"/><path class="cls-2" d="m42.6,81.9c-.3.1-.5.4-.8.6-.8.7-1.6.5-1.8-.6,0-.3.2-.7.5-.9l14.6-14.6c0,0,.2-.2.3-.3.4-.3.9-.2,1.2,0,.4.3.4.8.2,1.2-.1.2-.3.4-.5.6l-13.3,13.3c-.2.2-.4.3-.5.6Z"/><path class="cls-3" d="m60.3,36.1c.2,0,.4-.2.6-.4,1-1,1.6-.8,2.1.4-.1.4-.3.8-.6,1-2.8,2.8-5.5,5.5-8.3,8.3-.2.2-.3.3-.5.5-.4.3-.9.2-1.2-.1-.4-.3-.5-.8-.2-1.2.1-.2.3-.5.5-.6,2.4-2.4,4.8-4.8,7.2-7.2.2-.2.4-.3.5-.6Z"/><path class="cls-3" d="m48.6,82c-.3.1-.5.3-.7.6-.8.8-1.6.5-1.9-.5,0-.3.2-.6.5-.8,2.9-2.9,5.8-5.8,8.7-8.7.3-.5.9-.6,1.4-.2,0,0,0,0,.1.1.4.4.4,1-.1,1.5l-7.5,7.5c-.2.2-.4.3-.4.6Z"/><path d="m38.3,19.8c2.2,3.4,1.2,7.1-1.9,9.1-3.5,2.3-7.7,1.3-9.8-1.9-2.1-3.3-1.2-7.5,2.1-9.7,2.1-1.4,4.6-1.5,6.6-.6l-1.4,2.7c-.9-.4-2.3-.4-3.6.5-1.9,1.2-2.4,3.5-1.1,5.5,1.2,1.9,3.5,2.4,5.7,1,1.5-1,2-2.3,1.7-3.6l-3,1.9-1.5-2.2,5.6-3.7.6,1Z"/><path d="m39.2,12.1l2.8-.7,3.5,13.5-2.8.7-3.5-13.5Z"/><path d="m56.7,14.9l-.2,9.6h-2.9c0,0,0-1,0-1-.6.7-1.6,1.1-2.9,1.1-2.5,0-4.5-2.3-4.5-5.1,0-2.8,2.2-5,4.7-4.9,1.3,0,2.2.5,2.8,1.2v-.9s2.9,0,2.9,0Zm-3,4.7c0-1.4-.9-2.4-2.2-2.4-1.3,0-2.3.8-2.3,2.3,0,1.4.9,2.4,2.2,2.4,1.3,0,2.3-.8,2.3-2.3Z"/><path d="m65.4,24.8c-.8,2.1-2.9,2.3-4.8,1.6-1.8-.7-2.9-1.9-3.1-3.6l2.8-.5c0,.8.3,1.3,1.1,1.6.6.2,1,.2,1.2-.2.4-1-4.2-2.1-3.1-5.2.7-2,2.7-2.3,4.6-1.6,1.5.5,2.5,1.7,2.8,3.2l-2.8.4c0-.6-.3-1-.9-1.2-.5-.2-.8-.1-.9.2-.4,1,4.3,2,3.1,5.3Z"/><path d="m72.1,29.6c-1.3,1.8-3.4,1.4-5.1.2-1.5-1.1-2.3-2.6-2-4.3l2.8.3c-.2.7,0,1.4.7,1.9.6.4,1,.4,1.2.1.6-.9-3.5-3.2-1.6-5.8,1.2-1.7,3.3-1.5,4.9-.3,1.3.9,2,2.3,1.8,3.8l-2.8-.4c0-.6,0-1.1-.5-1.4-.4-.3-.8-.3-1,0-.6.9,3.6,3.1,1.5,5.9Z"/></svg>