<?xml version="1.0" encoding="UTF-8"?><svg id="Layer_1" xmlns="http://www.w3.org/2000/svg" viewBox="0 0 100 100"><defs><style>.cls-1{fill:none;stroke:#a5262d;stroke-miterlimit:10;stroke-width:4px;}.cls-2{fill:#fff;}.cls-3{fill:#f88e20;}.cls-4{fill:#441b00;}</style></defs><circle class="cls-1" cx="50" cy="50" r="45"/><path d="m29.9,20.8c1.6,2,1.2,4.8-.8,6.5l-1.6,1.2,2.6,3.3-2.4,1.9-8.3-10.4,3.9-3.1c2.1-1.6,4.9-1.3,6.5.7Zm-2.4,1.9c-.6-.8-1.6-.9-2.3-.3l-1.6,1.2,2.1,2.7,1.6-1.2c.7-.6.8-1.6.2-2.3Z"/><path d="m30.3,15.1l2.6-1.2,5.8,12.6-2.6,1.2-5.8-12.6Z"/><path d="m47.7,14.6l1.7,9.4-2.8.5-.2-.9c-.5.8-1.3,1.4-2.6,1.6-2.5.4-4.9-1.3-5.4-4.1-.5-2.8,1.1-5.3,3.6-5.7,1.3-.2,2.2,0,3,.6l-.2-.9,2.8-.5Zm-2,5.2c-.3-1.4-1.3-2.1-2.6-1.9-1.3.2-2.1,1.3-1.8,2.7.3,1.4,1.3,2.1,2.6,1.9,1.3-.2,2.1-1.3,1.8-2.7Z"/><path d="m58.2,22.3c-.3,2.2-2.3,2.9-4.3,2.6-1.9-.2-3.2-1.1-3.8-2.8l2.6-1.1c.2.7.6,1.2,1.5,1.3.7,0,1,0,1.1-.5.1-1-4.6-1.1-4.2-4.3.3-2.1,2.1-2.9,4.1-2.6,1.5.2,2.8,1,3.4,2.5l-2.6,1c-.2-.5-.5-.9-1.2-1-.5,0-.8,0-.9.4-.1,1.1,4.6,1,4.1,4.4Z"/><path d="m63.9,20.3l-1.2,3.1c-.3.8.3,1.1,1.5,1.5l-.9,2.4c-3.6-1-4.2-2.4-3.3-4.9l1.2-3.2-1.4-.5,1-2.6,1.4.5.6-1.7,3,.2-.9,2.5,1.8.7-1,2.6-1.8-.7Z"/><path d="m69.2,19.7l2.4,1.5-4.9,8.2-2.4-1.5,4.9-8.2Zm1.1-2.3c.5-.8,1.5-1.1,2.3-.6.8.5,1.1,1.5.6,2.3-.5.8-1.5,1.1-2.3.6s-1.1-1.5-.6-2.3Z"/><path d="m70.9,26.2c2-2.1,5-2.2,7.1-.2,1.3,1.3,1.9,3.1,1.4,4.7l-2.8-.7c.2-.7,0-1.5-.6-2-.9-.9-2.2-.8-3.1.1-.9,1-.9,2.2,0,3.1.6.6,1.4.8,2.1.5l.8,2.7c-1.6.5-3.5.1-4.8-1.2-2.1-2-2.1-5.1-.2-7.1Z"/><path class="cls-2" d="m60,71.6c4.1,0,8,1.9,10.2,4.4l-1.1-30.3c0-4.6-3.4-8.1-8.9-8.1-5.6,0-8.9,3.5-8.9,8.1l-1,30.3c2.2-2.6,5.6-4.4,9.7-4.4Z"/><path class="cls-4" d="m70.2,76.8c-.2,0-.4,0-.6-.3-2.1-2.5-5.9-4.2-9.6-4.2h0c-3.6,0-6.9,1.5-9.1,4.2-.2.2-.5.3-.9.2-.3-.1-.5-.4-.5-.7l1-30.3c0-2.5.9-4.8,2.6-6.3,1.7-1.7,4.2-2.5,7.1-2.5h0c2.9,0,5.3.9,7,2.5,1.7,1.6,2.6,3.8,2.6,6.3l1.1,30.3c0,.3-.2.6-.5.7,0,0-.2,0-.3,0Zm-10.2-6c3.4,0,6.9,1.3,9.4,3.3l-1-28.4s0,0,0,0c0-4.4-3.3-7.3-8.2-7.3h0c-2.5,0-4.6.7-6,2.1-1.4,1.3-2.1,3.1-2.1,5.3,0,0,0,0,0,0l-.9,28.3c2.4-2.1,5.5-3.3,8.9-3.3h0,0Z"/><path class="cls-3" d="m50.2,74.7c0,4.7,4.5,8.4,10.1,8.4s10.1-3.8,10.1-8.4-4.5-8.4-10.1-8.4-10.1,3.8-10.1,8.4h0Z"/><path class="cls-4" d="m60.3,83.9c-2.9,0-5.6-.9-7.6-2.6-2.1-1.7-3.2-4.1-3.2-6.5,0-2.5,1.1-4.8,3.2-6.6,2-1.7,4.7-2.7,7.6-2.7h0c2.9,0,5.6.9,7.6,2.6,2.1,1.7,3.2,4.1,3.2,6.5,0,2.5-1.1,4.8-3.2,6.6-2,1.7-4.7,2.7-7.6,2.7h0Zm0-16.9h0c-2.5,0-4.9.8-6.6,2.3-1.7,1.4-2.7,3.4-2.7,5.4,0,4.2,4.2,7.7,9.3,7.7h0c2.5,0,4.9-.8,6.6-2.3,1.7-1.4,2.7-3.4,2.7-5.4,0-4.2-4.2-7.7-9.3-7.7h0Z"/><path class="cls-2" d="m37.5,71.9c4.1,0,7.7,1.5,9.8,4.1l-1-30.3c0-4.6-3.4-8.1-8.9-8.1-5.6,0-8.9,3.5-8.9,8.1l-.9,30.3c2.2-2.6,5.8-4.1,9.9-4.1Z"/><path class="cls-4" d="m47.3,76.8c-.2,0-.4,0-.6-.3-2.1-2.5-5.4-3.9-9.2-3.9h0c-3.9,0-7.3,1.4-9.3,3.9-.2.2-.5.3-.9.2-.3-.1-.5-.4-.5-.7l.9-30.3c0-2.5.9-4.8,2.6-6.3,1.7-1.7,4.2-2.5,7.1-2.5h0c2.9,0,5.3.9,7,2.5,1.7,1.6,2.6,3.8,2.6,6.3l1,30.3c0,.3-.2.6-.5.7,0,0-.2,0-.3,0h0Zm-9.8-5.6c3.5,0,6.7,1.1,9,3l-.9-28.4s0,0,0,0c0-4.4-3.3-7.3-8.2-7.3h0c-2.5,0-4.6.7-6,2.1-1.4,1.3-2.1,3.1-2.1,5.3,0,0,0,0,0,0l-.9,28.4c2.3-1.9,5.5-3,9.1-3h0Z"/><path class="cls-3" d="m27.4,74.7c0,4.7,4.5,8.4,10.1,8.4,5.6,0,10.1-3.8,10.1-8.4h0c0-4.7-4.5-8.4-10.1-8.4s-10.1,3.8-10.1,8.4h0Z"/><path class="cls-4" d="m37.5,83.9c-2.9,0-5.6-.9-7.6-2.6-2.1-1.7-3.2-4.1-3.2-6.5,0-2.5,1.1-4.8,3.2-6.6,2-1.7,4.7-2.7,7.6-2.7h0c2.9,0,5.6.9,7.6,2.6,2.1,1.7,3.2,4.1,3.2,6.5,0,2.5-1.1,4.8-3.2,6.6-2,1.7-4.7,2.7-7.6,2.7h0,0Zm0-16.9h0c-2.5,0-4.9.8-6.6,2.3-1.7,1.4-2.7,3.4-2.7,5.4,0,4.2,4.2,7.7,9.3,7.7h0c2.5,0,4.9-.8,6.6-2.3,1.7-1.4,2.7-3.4,2.7-5.4,0-4.2-4.2-7.7-9.3-7.7h0Z"/><path class="cls-2" d="m49,61c4.1,0,7.8,1.5,10,3.7l-1.1-26.2c0-3.8-3.4-6.7-8.9-6.7-5.6,0-8.9,2.9-8.9,6.7l-1,26.1c2.2-2.2,5.9-3.6,10-3.6h0Z"/><path class="cls-4" d="m59,65.4c-.2,0-.4,0-.5-.2-2.2-2.1-5.8-3.5-9.4-3.5h0c-3.7,0-7.3,1.3-9.5,3.4,0,.4-.4.7-.8.7-.4,0-.7-.4-.7-.8,0-.2,0-.4.2-.5l1-26.1c0-1.8.7-3.5,2-4.7,1.7-1.7,4.5-2.7,7.7-2.7h0c2.8,0,5.3.7,7,2.1,1.7,1.3,2.7,3.2,2.7,5.4l1.1,26.2c0,.3-.2.6-.4.7,0,0-.2,0-.3,0Zm-10-5.2c3.4,0,6.7,1,9.1,2.8l-1.1-24.5s0,0,0,0c0-1.7-.7-3.1-2.1-4.2-1.5-1.1-3.6-1.7-6.1-1.7h0c-2.8,0-5.2.8-6.6,2.2-1,1-1.5,2.3-1.5,3.7,0,0,0,0,0,0l-1,24.4c.9-.7,2-1.2,3.2-1.7,1.9-.7,3.9-1.1,6-1.1,0,0,0,0,0,0h0Zm0,.8h0,0Z"/><path class="cls-3" d="m38.9,63.5c0,4.7,4.5,8.4,10.1,8.4s10.1-3.8,10.1-8.4h0c0-4.7-4.5-8.4-10.1-8.4s-10.1,3.8-10.1,8.4h0Z"/><path class="cls-4" d="m49,72.7c-2.9,0-5.6-.9-7.6-2.6-2.1-1.7-3.2-4.1-3.2-6.5,0-2.5,1.1-4.8,3.2-6.6,2-1.7,4.7-2.7,7.6-2.7v.8s0-.8,0-.8h0c2.9,0,5.6.9,7.6,2.6,2.1,1.7,3.2,4.1,3.2,6.5,0,2.5-1.1,4.8-3.2,6.6-2,1.7-4.7,2.7-7.6,2.7h0Zm0-16.9h0c-2.5,0-4.9.8-6.6,2.3-1.7,1.4-2.7,3.4-2.7,5.4,0,4.2,4.2,7.7,9.3,7.7h0c2.5,0,4.9-.8,6.6-2.3,1.7-1.4,2.7-3.4,2.7-5.4,0-4.2-4.2-7.7-9.3-7.7h0Zm-17.5,12.9c-.4,0-.8-.3-.8-.8v-6.9c0-.4.3-.8.8-.8s.8.3.8.8v6.9c0,.4-.3.8-.8.8Z"/><path class="cls-4" d="m43.3,57.3c-.4,0-.8-.3-.8-.8v-6.5c0-.4.3-.8.8-.8s.8.3.8.8v6.5c0,.4-.3.8-.8.8h0Z"/><path class="cls-2" d="m36.2,78c-3.6-.6-3.7-3.2-3.7-3.3h0s0,0,0,0c0,0,0,0,0,0,0-.4-.3-.7-.7-.7s-.8.3-.8.7,0,1.1.6,2.1c.6,1,1.8,2.2,4.3,2.6,0,0,0,0,.1,0,.4,0,.7-.3.7-.6,0-.4-.2-.8-.6-.9h0Zm11.6-11.2c-3.3-.6-3.7-2.7-3.7-3.2,0,0,0,0,0,0,0-.4-.3-.8-.8-.8s-.8.3-.8.7h0c0,.2,0,1.1.6,2.1.6,1,1.8,2.2,4.3,2.6,0,0,0,0,.1,0,.4,0,.7-.3.7-.6,0-.4-.2-.8-.6-.9h0Zm11.2,11.2c-3.6-.6-3.7-3.2-3.7-3.3h0s0,0,0,0c0-.4-.3-.7-.8-.7s-.8.3-.8.8,0,.1,0,.2c0,.3.1,1.1.6,1.9.6,1,1.8,2.2,4.3,2.6,0,0,0,0,.1,0,.4,0,.7-.3.7-.6,0-.4-.2-.8-.6-.9h0Z"/></svg>