<?xml version="1.0" encoding="UTF-8"?><svg id="Layer_1" xmlns="http://www.w3.org/2000/svg" viewBox="0 0 100 100"><defs><style>.cls-1{fill:none;stroke:#a5262d;stroke-miterlimit:10;stroke-width:4px;}.cls-2{fill:#bacce9;}.cls-3{fill:#c7c7c7;}.cls-4{fill:#bdbdbd;}.cls-5{fill:#ecf5fe;}.cls-6{fill:#b9cce9;}.cls-7{fill:#aaa;}.cls-8{fill:#d7e1f2;}</style></defs><circle class="cls-1" cx="50" cy="50" r="45"/><path d="m29.9,20.8c1.6,2,1.2,4.8-.8,6.5l-1.6,1.2,2.6,3.3-2.4,1.9-8.3-10.4,3.9-3.1c2.1-1.6,4.9-1.3,6.5.7Zm-2.4,1.9c-.6-.8-1.6-.9-2.3-.3l-1.6,1.2,2.1,2.7,1.6-1.2c.7-.6.8-1.6.2-2.3Z"/><path d="m30.3,15.1l2.6-1.2,5.8,12.6-2.6,1.2-5.8-12.6Z"/><path d="m47.7,14.6l1.7,9.4-2.8.5-.2-.9c-.5.8-1.3,1.4-2.6,1.6-2.5.4-4.9-1.3-5.4-4.1-.5-2.8,1.1-5.3,3.6-5.7,1.3-.2,2.2,0,3,.6l-.2-.9,2.8-.5Zm-2,5.2c-.3-1.4-1.3-2.1-2.6-1.9-1.3.2-2.1,1.3-1.8,2.7.3,1.4,1.3,2.1,2.6,1.9,1.3-.2,2.1-1.3,1.8-2.7Z"/><path d="m58.2,22.3c-.3,2.2-2.3,2.9-4.3,2.6-1.9-.2-3.2-1.1-3.8-2.8l2.6-1.1c.2.7.6,1.2,1.5,1.3.7,0,1,0,1.1-.5.1-1-4.6-1.1-4.2-4.3.3-2.1,2.1-2.9,4.1-2.6,1.5.2,2.8,1,3.4,2.5l-2.6,1c-.2-.5-.5-.9-1.2-1-.5,0-.8,0-.9.4-.1,1.1,4.6,1,4.1,4.4Z"/><path d="m63.9,20.3l-1.2,3.1c-.3.8.3,1.1,1.5,1.5l-.9,2.4c-3.6-1-4.2-2.4-3.3-4.9l1.2-3.2-1.4-.5,1-2.6,1.4.5.6-1.7,3,.2-.9,2.5,1.8.7-1,2.6-1.8-.7Z"/><path d="m69.2,19.7l2.4,1.5-4.9,8.2-2.4-1.5,4.9-8.2Zm1.1-2.3c.5-.8,1.5-1.1,2.3-.6.8.5,1.1,1.5.6,2.3-.5.8-1.5,1.1-2.3.6s-1.1-1.5-.6-2.3Z"/><path d="m70.9,26.2c2-2.1,5-2.2,7.1-.2,1.3,1.3,1.9,3.1,1.4,4.7l-2.8-.7c.2-.7,0-1.5-.6-2-.9-.9-2.2-.8-3.1.1-.9,1-.9,2.2,0,3.1.6.6,1.4.8,2.1.5l.8,2.7c-1.6.5-3.5.1-4.8-1.2-2.1-2-2.1-5.1-.2-7.1Z"/><path class="cls-8" d="m75.4,47.7h0c0,0-1.6,0-1.6,0q-.7,0-.7.7v30.3c0,.4-.1.9-.4,1.2-.2.2-.5.2-.7.4h-10.7c0,0,0-.2,0-.3l-1.2-5.4c-.7-3.1-1.4-6.2-2.2-9.3-1.1-4.6-2.1-9.1-3.2-13.6-.9-4-1.8-8-2.8-11.9h15c.2,0,.5,0,.6.2v6.2c0,.7.6,1.3,1.3,1.4h3.8c.3,0,.4,0,.4-.4v-1.8c.1,0,.2.1.2.2l2,2Z"/><path class="cls-6" d="m75.4,79.4c-.4.8-1.3,1.3-2.1,1.1-.4,0-.8,0-1.2,0,.2-.2.5-.2.7-.4.3-.3.4-.8.4-1.2v-30.4q0-.7.7-.7h1.6v31.6Z"/><path class="cls-4" d="m31.8,39.9v-.9c-.2-.9.3-1.7,1.1-2.1h2c0,0,0,.1,0,.2.6.4.9,1.1.8,1.8,0,.4,0,.8,0,1.1h-4Z"/><path class="cls-7" d="m35.8,40v-1.1c.1-.7-.2-1.5-.8-1.9,0,0,0-.1-.1-.2h2c.9.4,1.4,1.4,1.2,2.3v.8h-2.2Z"/><path class="cls-5" d="m61.3,80.5h-6.2c0,0,0-.1,0-.2l-1.8-8-3.2-13.7c-1.1-4.6-2.1-9.2-3.2-13.9-.4-1.6-.7-3.2-1.1-4.8h6.2c.9,4,1.8,8,2.7,11.9,1.1,4.5,2.1,9.1,3.2,13.6.7,3.1,1.4,6.2,2.1,9.3.4,1.8.8,3.6,1.2,5.4,0,0,0,.2,0,.3Z"/><path class="cls-5" d="m67.6,40.1c.1,0,.3.1.3.2l5,5c0,0,.1.1.1.2v1.8c0,.3,0,.4-.4.4h-3.8c-.7,0-1.3-.6-1.3-1.4v-6.2Z"/><path class="cls-8" d="m45.8,40c.4,1.6.7,3.2,1.1,4.8,1.1,4.6,2.1,9.2,3.2,13.9l3.2,13.6,1.8,8c0,0,0,.1,0,.2h-14.1v-3c0-.5-.3-.8-.7-.8s-.8.3-.8.8v3h-9.2c-.9,0-1.7-.7-1.7-1.7,0,0,0,0,0,0v-37.1c0-.9.8-1.7,1.7-1.7,0,0,0,0,0,0h9.2v3c0,.4.2.8.6.8,0,0,0,0,0,0,.5,0,.8-.3.8-.8v-3h4.7Zm-4.7,20.3v-1.5c0-.4-.3-.7-.7-.7-.4,0-.7.3-.7.7h0v3c0,.4.2.7.6.8,0,0,0,0,.1,0,.4,0,.7-.3.7-.7,0,0,0,0,0,0,0-.5,0-1,0-1.5Zm-1.5,6.1v1.6c0,.4.3.7.7.7.4,0,.7-.3.7-.7h0v-3.1c0-.4-.4-.7-.8-.8-.4,0-.7.3-.7.7,0,0,0,0,0,0v1.5h0Zm0-12.4v1.5c0,.4.3.8.7.8h0c.4,0,.7-.4.8-.8v-2.9c0-.6-.3-.8-.7-.8s-.7.3-.7.8,0,1,0,1.5Zm0-6.3v1.5c0,.4.2.7.6.8,0,0,0,0,.1,0,.4,0,.7-.3.8-.6,0,0,0,0,0-.1v-2.9c0-.4-.2-.7-.6-.8,0,0,0,0-.1,0-.4,0-.7.3-.7.8s0,.9,0,1.4h0Zm1.5,25v-1.5c0-.5-.3-.8-.7-.8-.4,0-.7.3-.7.7,0,0,0,0,0,.1v2.9c0,.4.2.7.6.8,0,0,0,0,.1,0,.5,0,.7-.3.7-.8s0-.9,0-1.4h0Z"/><path class="cls-6" d="m41,40v3c0,.5-.3.8-.8.8s-.7-.3-.7-.8v-3h1.5Z"/><path class="cls-4" d="m31.9,80.5h3.9v1.2c0,.8-.4,1.6-1.2,1.9h-1.3c-.8,0-1.6-.6-1.6-1.5,0,0,0,0,0-.1v-1.4h.1Z"/><path class="cls-7" d="m34.6,83.6c.8-.3,1.3-1.1,1.2-1.9v-1.2h2.2c0,.6,0,1.2,0,1.8-.1.8-.8,1.3-1.6,1.3h-1.8Z"/><path class="cls-6" d="m39.6,80.5v-3c0-.5.3-.8.8-.8.4,0,.7.3.7.7,0,0,0,0,0,0v3h-1.5Z"/><path class="cls-3" d="m31.9,40h0s0,0,0,0h0Z"/><path class="cls-3" d="m31.9,80.5h0c0,0,0,0,0,0h0Z"/><path class="cls-2" d="m41.1,60.3v1.5c0,.4-.3.7-.7.7-.4,0-.7-.3-.7-.7h0v-3c0-.4.2-.7.6-.8,0,0,0,0,0,0,.4,0,.7.3.8.7,0,0,0,0,0,0,0,.5,0,1,0,1.5Z"/><path class="cls-6" d="m39.6,66.4v-1.5c0-.4.2-.7.6-.7,0,0,0,0,0,0,.4,0,.7.4.8.8v3.1c0,.4-.2.7-.6.7,0,0,0,0-.1,0-.4,0-.7-.3-.7-.7,0,0,0,0,0-.1,0-.5,0-1,0-1.5Z"/><path class="cls-6" d="m39.6,54v-1.5c0-.5.3-.8.7-.8s.7.3.7.8v2.9c0,.4-.3.8-.8.8-.4,0-.7-.4-.7-.8h0c0-.5,0-1,0-1.5Z"/><path class="cls-6" d="m39.6,47.8v-1.4c0-.5.3-.8.7-.8.4,0,.7.3.7.6,0,0,0,0,0,.1v2.9c0,.4-.3.7-.7.7-.4,0-.7-.3-.7-.7h0c0-.5,0-1,0-1.5Z"/><path class="cls-6" d="m41.1,72.7v1.4c0,.5-.3.8-.7.8-.4,0-.7-.3-.7-.6,0,0,0,0,0-.1v-2.9c0-.4.2-.7.6-.8,0,0,0,0,.1,0,.4,0,.7.3.7.8v1.4Z"/></svg>