<?xml version="1.0" encoding="UTF-8"?><svg id="Layer_1" xmlns="http://www.w3.org/2000/svg" viewBox="0 0 100 100"><defs><style>.cls-1{fill:none;stroke:#a5262d;stroke-miterlimit:10;stroke-width:4px;}.cls-2{fill:#d2d5d7;}.cls-3{fill:#445367;}.cls-4{fill:#455368;}.cls-5{fill:#d1d5d6;}.cls-6{fill:#445368;}.cls-7{fill:#6ab579;}</style></defs><circle class="cls-1" cx="50" cy="50" r="45"/><path class="cls-7" d="m50,36.8h28.5c2.1-.1,4,1.5,4.1,3.7,0,.3,0,.7,0,1-.1.8-.2,1.5-.4,2.3-.3,1.6,0,2,1.6,1.9,2.7-.1,3.4.8,3.3,3.3,0,5.9,0,11.9,0,17.8s-.7,2.6-2.6,2.6h-5.5c-1.3,0-1.4.1-1.7,1.4l-.7,4.2c-.3,1.9-2,3.4-3.9,3.3H27.4c-2,0-3.7-1.4-3.9-3.4-.3-1.5-.5-2.9-.8-4.4-.1-.8-.5-1.1-1.3-1.1h-6.1c-1.1.1-2.2-.7-2.3-1.8,0-.2,0-.3,0-.5v-19.1c-.1-1.1.7-2.2,1.8-2.3.2,0,.3,0,.5,0h1.3c1.1,0,1.5-.4,1.3-1.6-.1-.9-.3-1.8-.5-2.7-.4-2.1.9-4.2,3-4.6.3,0,.6,0,.8,0h28.6Zm0,7.6h-19.8c-2.4,0-3.7,1.6-3.3,4s.9,4.9,1.3,7.4c.8,4.2,1.5,8.4,2.3,12.6.2,1.5,1.6,2.6,3.1,2.5h32.9c1.5.1,2.9-1,3.1-2.5.5-2.6,1-5.3,1.4-7.9.7-4,1.5-8.1,2.1-12.1.4-2.3-.9-3.8-3.3-3.8h-19.8Zm30.4,5.1c-1.3,0-2.4,1.1-2.5,2.4,0,0,0,0,0,0,0,1.3,1.1,2.4,2.4,2.4,1.3,0,2.4-1.1,2.4-2.4,0,0,0,0,0,0,0-1.3-.9-2.3-2.2-2.4,0,0-.1,0-.2,0h0Zm-60.8,16.1c1.3,0,2.4-1.1,2.4-2.4,0,0,0,0,0,0,0-1.3-1.1-2.3-2.4-2.4-1.3,0-2.4,1.1-2.4,2.5,0,0,0,0,0,0,0,1.3.9,2.3,2.2,2.3,0,0,.1,0,.2,0Zm-2.4-13.7c0,1.3,1.1,2.4,2.4,2.4,1.3,0,2.4-1.1,2.5-2.4,0-1.4-1.1-2.5-2.5-2.5,0,0,0,0,0,0-1.3,0-2.3.9-2.4,2.2,0,0,0,.2,0,.3Zm65.6,11.3c0-1.3-1-2.4-2.3-2.5-1.3,0-2.4,1.1-2.5,2.4,0,1.3,1.1,2.4,2.4,2.4,1.3,0,2.4-.9,2.4-2.1,0,0,0-.2,0-.2Z"/><path class="cls-2" d="m50,44.4h19.9c2.4,0,3.7,1.4,3.3,3.8-.7,4-1.4,8.1-2.1,12.1-.5,2.6-.9,5.3-1.4,7.9-.2,1.5-1.6,2.6-3.1,2.5h-33c-1.5.1-2.9-1-3.1-2.5-.8-4.2-1.5-8.4-2.3-12.5-.4-2.5-.9-4.9-1.3-7.4-.4-2.4.9-4,3.3-4h19.9Zm-12.6,8.1c0-1.4-1.1-2.5-2.5-2.5s-2.5,1.1-2.5,2.5,1.1,2.5,2.5,2.5,2.5-1.1,2.5-2.5Zm2.5,7.7c-1.3,0-2.4,1.1-2.5,2.4,0,1.4,1.1,2.5,2.5,2.5s2.5-1.1,2.5-2.5c0-1.4-1.2-2.5-2.5-2.4h0Zm27.7-7.6c0-1.4-1.1-2.5-2.4-2.5s-2.5,1.1-2.5,2.4c0,1.4,1.1,2.5,2.4,2.5,0,0,0,0,0,0,1.3,0,2.4-1.1,2.4-2.5h0Zm-7.5,7.6c-1.4,0-2.5,1.1-2.5,2.5,0,1.4,1.1,2.5,2.4,2.5,1.4,0,2.5-1.1,2.5-2.4,0-1.4-1.1-2.5-2.4-2.5,0,0,0,0,0,0Zm-12.6-7.6c0-1.4-1.1-2.5-2.4-2.5-1.4,0-2.5,1.1-2.5,2.5,0,1.4,1.1,2.5,2.5,2.5,1.4,0,2.5-1.1,2.5-2.5,0,0,0,0,0,0Zm7.6-2.5c-1.4,0-2.5,1.1-2.5,2.5s1.1,2.5,2.5,2.5c1.4,0,2.5-1.1,2.5-2.5,0-1.4-1.1-2.5-2.5-2.5Zm-2.6,12.7c0-1.4-1.1-2.5-2.4-2.5s-2.5,1.1-2.5,2.4c0,1.3,1.1,2.5,2.4,2.5,1.4,0,2.5-1.1,2.5-2.4h0Z"/><path class="cls-5" d="m80.4,49.5c1.3,0,2.3.9,2.4,2.2,0,0,0,.1,0,.2,0,1.3-1,2.4-2.4,2.5,0,0,0,0,0,0-1.3,0-2.4-1.1-2.4-2.4,0-1.3,1.1-2.4,2.4-2.4,0,0,0,0,0,0Z"/><path class="cls-5" d="m19.6,65.6c-1.3,0-2.3-.9-2.4-2.1,0,0,0-.1,0-.2,0-1.3,1-2.5,2.4-2.5,0,0,0,0,0,0,1.3,0,2.4,1.1,2.5,2.4,0,1.3-1.1,2.4-2.4,2.5,0,0,0,0,0,0Z"/><path class="cls-5" d="m17.2,51.9c0-1.3.9-2.3,2.1-2.4,0,0,.2,0,.3,0,1.4,0,2.4,1.1,2.4,2.5,0,1.3-1.1,2.3-2.4,2.4-1.3,0-2.4-1.1-2.4-2.4Z"/><path class="cls-5" d="m82.8,63.2c0,1.3-.9,2.3-2.2,2.4,0,0-.2,0-.2,0-1.3,0-2.4-1.1-2.4-2.4,0-1.3,1.2-2.4,2.5-2.4,1.3,0,2.4,1.1,2.3,2.5Z"/><path class="cls-4" d="m37.4,52.5c0,1.4-1.1,2.5-2.5,2.5-1.4,0-2.5-1.1-2.5-2.5,0-1.4,1.1-2.5,2.5-2.5,0,0,0,0,0,0,1.3,0,2.4,1.1,2.5,2.5Z"/><path class="cls-3" d="m39.9,60.1c1.3,0,2.4,1.1,2.5,2.4,0,1.4-1.1,2.5-2.5,2.5s-2.5-1.1-2.5-2.5h0c0-1.4,1.2-2.4,2.5-2.4Z"/><path class="cls-6" d="m67.6,52.5c0,1.4-1.1,2.5-2.5,2.5-1.4,0-2.5-1.1-2.5-2.5s1.1-2.5,2.5-2.5c1.4,0,2.5,1.1,2.5,2.5Z"/><path class="cls-3" d="m60.1,60.1c1.4,0,2.5,1.1,2.5,2.5,0,1.4-1.1,2.5-2.5,2.5s-2.5-1.1-2.5-2.5c0-1.4,1.1-2.5,2.5-2.5Z"/><path class="cls-3" d="m47.4,52.5c0,1.4-1.1,2.5-2.5,2.5-1.4,0-2.5-1.1-2.5-2.5,0-1.4,1.1-2.5,2.5-2.5,1.4,0,2.4,1.2,2.4,2.5Z"/><path class="cls-3" d="m55,50c1.4,0,2.5,1.1,2.5,2.5,0,1.4-1.1,2.5-2.5,2.5-1.4,0-2.5-1.1-2.5-2.5s1.1-2.5,2.5-2.5Z"/><path class="cls-3" d="m52.4,62.7c0,1.4-1.2,2.4-2.5,2.4s-2.4-1.2-2.4-2.5c0-1.4,1.2-2.4,2.5-2.4s2.4,1.2,2.4,2.5Z"/><path d="m35.1,17.7c1.3,2.3.5,5.2-1.9,6.6l-1.8,1,2.2,3.8-2.8,1.6-7-12.1,4.6-2.6c2.4-1.4,5.3-.6,6.6,1.7Zm-2.8,1.6c-.5-.9-1.5-1.2-2.4-.7l-1.8,1,1.8,3.1,1.8-1c.8-.5,1.1-1.5.6-2.4Z"/><path d="m38.2,21c-.6-2.9,1.3-5.6,4.2-6.2s5.6,1.3,6.2,4.2c.6,2.9-1.3,5.6-4.2,6.2-2.9.5-5.6-1.3-6.2-4.2Zm7.5-1.4c-.3-1.4-1.4-2.1-2.7-1.9-1.3.2-2.1,1.4-1.8,2.8.3,1.4,1.4,2.1,2.7,1.9,1.3-.2,2.1-1.4,1.8-2.7Z"/><path d="m57.3,14.7l-.3,3.4c-1.2-.3-3,0-3.2,2l-.4,4.5-3-.3,1-10,3,.3-.2,1.8c.5-1.3,1.9-1.8,3.2-1.7Z"/><path d="m63.1,19.6l-1.1,3.4c-.3.8.4,1.1,1.7,1.5l-.9,2.6c-3.8-.9-4.5-2.4-3.6-5l1.1-3.4-1.5-.5.9-2.7,1.5.5.6-1.8h3.1c0,.1-.9,2.8-.9,2.8l2,.7-.9,2.7-2-.7Z"/><path d="m71.6,29c-1.2,1.9-3.5,1.7-5.3.5-1.7-1.1-2.5-2.5-2.3-4.3l3,.2c-.2.8,0,1.4.8,1.9.6.4,1,.4,1.2,0,.6-.9-3.8-3.1-2-6,1.2-1.8,3.3-1.8,5.1-.6,1.4.9,2.2,2.3,2.1,3.9l-2.9-.2c0-.6,0-1.1-.6-1.5-.4-.3-.8-.3-1,0-.6,1,3.9,3,1.9,6.1Z"/></svg>