<?xml version="1.0" encoding="UTF-8"?><svg id="Layer_1" xmlns="http://www.w3.org/2000/svg" viewBox="0 0 100 100"><defs><style>.cls-1{fill:none;stroke:#a5262d;stroke-miterlimit:10;stroke-width:4px;}.cls-2{fill:#f0ca6f;}.cls-3{fill:#e2bb64;}.cls-4{fill:#222;}.cls-5{fill:#424240;}.cls-6{fill:#212121;}.cls-7{fill:#f0f3f2;}</style></defs><circle class="cls-1" cx="50" cy="50" r="45"/><path class="cls-4" d="m37.6,32.7c.5.2.7.7.7,1.2v4.8c0,.2,0,.4,0,.6h-1.9c0-1.8,0-3.6,0-5.3,0-.5.2-1,.6-1.2h.6Z"/><path class="cls-4" d="m56.7,32.7c.4.2.7.7.6,1.2v4.8c0,.2,0,.4,0,.6h-1.9c0-1.8,0-3.6,0-5.3,0-.5.2-1,.6-1.2h.6Z"/><path class="cls-4" d="m61.8,39.3c0-1.8,0-3.6,0-5.3,0-.5.2-1,.6-1.2h.6c.4.2.7.7.6,1.1v4.8c0,.2,0,.4,0,.6h-1.9Z"/><path class="cls-4" d="m77.6,60.8c-.3.4-.8.6-1.3.5h-4.7c-.2,0-.4,0-.6,0v-1.9c1.8,0,3.6,0,5.4,0,.5,0,.9.2,1.1.6v.8Z"/><path class="cls-4" d="m50.3,32.7c.4.2.7.7.6,1.2v4.8c0,.2,0,.4,0,.6h-1.9v-5.5c0-.5.2-.9.7-1.1h.6Z"/><path class="cls-4" d="m38.3,81.4c0,.7,0,1.4,0,2.1,0,1,0,2,0,3,0,.7-.1,1.2-.9,1.4h-.3c-.5-.3-.7-.9-.7-1.5v-5.1h1.9Z"/><path class="cls-4" d="m57.4,81.4c0,.7,0,1.4,0,2v3.2c.1.6-.3,1.2-.8,1.4h-.3c-.5-.3-.8-.9-.7-1.5,0-1.7,0-3.4,0-5.1h1.9Z"/><path class="cls-4" d="m62.5,88c-.5-.3-.7-.9-.7-1.5v-5.1h1.9c0,.7,0,1.4,0,2,0,1,0,2.1,0,3.1,0,.7-.1,1.2-.9,1.4h-.3Z"/><path class="cls-4" d="m28.9,48.5c-1.8,0-3.6,0-5.5,0-.4,0-.9-.2-1.1-.6v-.8c.3-.4.8-.5,1.3-.5h5.3v1.8Z"/><path class="cls-4" d="m22.4,72.7c.2-.4.6-.6,1.1-.6,1.8,0,3.6,0,5.5,0v1.9c-1.8,0-3.5,0-5.3,0-.5,0-1-.1-1.3-.5v-.8Z"/><path class="cls-4" d="m71.1,72.1c1.4.1,2.8,0,4.3,0h1.2c.4,0,.9.2,1.1.6v.6c-.2.4-.7.6-1.1.6h-4.9c-.2,0-.4,0-.6,0v-1.9Z"/><path class="cls-4" d="m28.9,54.9c-1.8,0-3.6,0-5.5,0-.4,0-.9-.2-1.1-.6v-.7c.2-.4.6-.6,1.1-.6h5.5v1.8Z"/><path class="cls-4" d="m42.7,39.3c0-1.8,0-3.6,0-5.4,0-.5.2-.9.6-1.2h.6c.4.2.6.7.6,1.2v5.4h-1.8Z"/><path class="cls-4" d="m71.1,65.8c1.8,0,3.6,0,5.5,0,.4,0,.9.2,1.1.6v.6c-.2.4-.6.6-1.1.6h-4.9c-.2,0-.4,0-.6,0,0-.6,0-1.2,0-1.9Z"/><path class="cls-4" d="m77.6,54.3c-.2.4-.6.6-1.1.6h-4.9c-.2,0-.4,0-.6,0v-1.9c1.8,0,3.6,0,5.5,0,.4,0,.9.2,1.1.6v.7Z"/><path class="cls-4" d="m28.9,61.2c-1.8,0-3.6,0-5.3,0-.5,0-1-.2-1.2-.6v-.6c.3-.4.8-.6,1.2-.6h5.3v1.8Z"/><path class="cls-4" d="m22.4,66.4c.2-.4.6-.6,1.1-.6h5.5v1.8c-1.8,0-3.6,0-5.5,0-.4,0-.9-.2-1.1-.6v-.7Z"/><path class="cls-4" d="m77.6,47.9c-.3.4-.8.6-1.3.6-1.5,0-3.1,0-4.6,0s-.4,0-.6,0v-1.9c1.4.1,2.9,0,4.3,0,.3,0,.6,0,1,0,.5,0,1,.2,1.2.7v.5Z"/><path class="cls-6" d="m43.4,88c-.5-.3-.8-.8-.7-1.4,0-1.5,0-3.1,0-4.6s0-.4,0-.6h1.9c-.1,1.2,0,2.4,0,3.6,0,.5,0,1.1,0,1.6.1.6-.2,1.2-.8,1.3h-.3Z"/><path class="cls-6" d="m49.8,88c-.5-.3-.7-.8-.7-1.3v-5.2h1.8c0,1.8,0,3.5,0,5.3,0,.6-.2,1.1-.8,1.3h-.3Z"/><path class="cls-5" d="m50.9,81.4h-21.2c-.6,0-.8-.3-.8-.9v-40.3c0-.6.3-.9.9-.9h40.4c.6,0,.8.3.8.9v40.4c0,.6-.3.9-.8.9h-8.4c-1.5,0-3,0-4.5,0h-1.9c-1.5,0-3,0-4.6,0Zm-.9-7.1h13.3c.5,0,.6-.1.6-.6v-26.7c0-.5-.1-.6-.6-.6h-26.7c-.5,0-.6.1-.6.6v26.7c0,.5.1.6.6.6,4.4,0,8.9,0,13.3,0Z"/><path class="cls-6" d="m50,74.3h-13.3c-.5,0-.6-.1-.6-.6v-26.7c0-.5.1-.6.6-.6h26.7c.5,0,.6.1.6.6v26.7c0,.5-.2.6-.6.6-4.4,0-8.9,0-13.3,0Zm-9.4-13.9c0,5.2,4.2,9.4,9.4,9.4,5.2,0,9.4-4.2,9.4-9.4,0-5.2-4.2-9.4-9.4-9.4-5.2,0-9.4,4.2-9.5,9.4,0,0,0,0,0,0Z"/><path class="cls-7" d="m40.6,60.3c0-5.2,4.2-9.4,9.4-9.4,5.2,0,9.4,4.2,9.4,9.4,0,5.2-4.2,9.4-9.4,9.4,0,0,0,0,0,0-5.2,0-9.4-4.2-9.4-9.4,0,0,0,0,0,0Zm8.7,6.8c.1-.1.2-.2.3-.4,1.1-1.7,2.2-3.5,3.3-5.2l1.3-2.1h-1.1c-.6,0-1.1,0-1.6,0-.4,0-.5-.1-.5-.5v-5.4c-.5.7-1,1.3-1.4,2.1l-3.2,5.1c0,.1-.2.2-.2.4s.3,0,.4,0h2.1c.4,0,.6.1.6.6,0,1.1,0,2.3,0,3.4,0,.6,0,1.3,0,1.9,0,.1,0,0,0,0Z"/><path class="cls-2" d="m49.2,65.2c0-1.1,0-2.3,0-3.4,0-.5-.1-.6-.6-.6-.7,0-1.4,0-2.1,0s-.4,0-.4,0,0-.3.2-.4l3.2-5.1c.4-.7.9-1.4,1.4-2.1v5.4c0,.4.1.5.5.5h1.6c-.9,1.4-1.8,2.8-2.7,4.2-.3.5-.6,1-1.1,1.5Z"/><path class="cls-3" d="m49.2,65.2c.4-.4.8-.9,1-1.5.9-1.4,1.8-2.8,2.7-4.2h1.1l-1.3,2.1c-1.1,1.7-2.2,3.5-3.3,5.2,0,.1-.2.3-.3.4h0c0-.6,0-1.3,0-1.9Z"/><path class="cls-2" d="m49.2,67.1h0s0,0,0,0Z"/><path d="m16.8,34.7c2.3.8,3.5,3.2,2.7,5.5l-.6,1.8,3.7,1.3-.9,2.7-11.9-4,1.5-4.5c.8-2.3,3.2-3.5,5.5-2.8Zm-.9,2.7c-.9-.3-1.7,0-2,.9l-.6,1.8,3.1,1,.6-1.8c.3-.8-.2-1.7-1-2Z"/><path d="m20.5,27.6l2.6,1.7c-.8.8-1.3,2.4.2,3.4l3.4,2.3-1.5,2.2-7.5-5,1.5-2.2,1.3.9c-.8-1-.6-2.3,0-3.2Z"/><path d="m24.8,29.3c-1.8-2-1.6-4.9.4-6.7,2-1.8,4.9-1.6,6.7.4,1.8,2,1.6,4.9-.4,6.7-2,1.8-4.9,1.6-6.7-.4Zm5.1-4.5c-.9-1-2.1-1-2.9-.2-.9.8-1,2-.1,3,.9,1,2.1,1,2.9.2.9-.8,1-2,.1-3Z"/><path d="m33.2,22.2c-1.1-2.4-.1-5.2,2.3-6.3,1.6-.7,3.4-.5,4.6.4l-1.6,2.2c-.5-.4-1.3-.5-2-.2-1.1.5-1.5,1.6-1,2.7.5,1.1,1.6,1.5,2.7,1.1.7-.3,1.2-.9,1.2-1.6l2.7.3c-.1,1.6-1.1,3.1-2.7,3.8-2.5,1.1-5.2,0-6.3-2.4Z"/><path d="m47.4,19.9c.7,0,1.3-.5,1.6-.9l2.3.9c-.7,1.3-1.9,2.1-3.6,2.4-3,.4-5.2-1.4-5.5-4-.4-2.7,1.3-5,4.1-5.4,2.6-.4,4.8,1.4,5.1,4.1,0,.4,0,.7,0,1.1l-6.3.9c.5.9,1.3,1.1,2.3,1Zm1.2-3.5c-.4-1-1.3-1.3-2.1-1.2-1,.1-1.6.7-1.7,1.7l3.8-.5Z"/><path d="m59.5,19.9c-.3,2.1-2.2,2.7-4.1,2.4-1.8-.2-3-1.1-3.5-2.6l2.5-1c.1.7.6,1.2,1.4,1.3.6,0,1,0,1-.4.1-1-4.3-1.1-3.9-4.1.3-1.9,2-2.7,3.9-2.5,1.4.2,2.6,1,3.2,2.4l-2.4.9c-.2-.5-.5-.9-1.1-.9-.5,0-.8,0-.8.4-.1,1,4.3.9,3.9,4.2Z"/><path d="m66.8,22.7c-.7,1.9-2.7,2.1-4.5,1.4-1.7-.6-2.7-1.8-2.8-3.4l2.6-.4c0,.7.3,1.3,1,1.5.6.2,1,.2,1.1-.2.4-.9-3.9-2-2.8-4.9.7-1.8,2.6-2.2,4.3-1.5,1.4.5,2.3,1.6,2.6,3.1l-2.6.3c0-.5-.3-1-.8-1.2-.4-.2-.8-.1-.9.2-.4,1,4,1.9,2.8,5Z"/><path d="m68.7,21.5c1.6-2.1,4.6-2.5,6.6-.9,2.1,1.6,2.5,4.5.9,6.6-1.6,2.1-4.6,2.5-6.6.9-2.1-1.6-2.5-4.5-.9-6.6Zm5.4,4.1c.8-1,.6-2.2-.3-2.9-.9-.7-2.1-.6-2.9.4-.8,1-.6,2.2.3,2.9.9.7,2.1.6,2.9-.4Z"/><path d="m84.3,30.2l-2.4,1.9c-.5-1-1.9-2-3.3-.9l-3.2,2.5-1.6-2.1,7.1-5.5,1.6,2.1-1.3,1c1.2-.5,2.4.1,3,1Z"/><path d="m82.7,41.3c-1.9.9-3.4-.4-4.3-2.1-.8-1.6-.7-3.1.3-4.4l2.2,1.5c-.5.5-.6,1.1-.3,1.8.3.6.6.8.9.6.9-.4-1.5-4.2,1.4-5.5,1.8-.8,3.4.2,4.2,1.9.6,1.3.6,2.7-.3,4l-2.1-1.5c.3-.4.5-.9.2-1.4-.2-.4-.5-.6-.8-.5-.9.4,1.6,4.1-1.4,5.5Z"/></svg>