<?xml version="1.0" encoding="UTF-8"?><svg id="Layer_1" xmlns="http://www.w3.org/2000/svg" viewBox="0 0 100 100"><defs><style>.cls-1{fill:none;stroke:#a5262d;stroke-miterlimit:10;stroke-width:4px;}.cls-2{fill:#c69c6d;}.cls-3{fill:#484645;}</style></defs><circle class="cls-1" cx="50" cy="50" r="45"/><path d="m23.9,34.4l1-3c1.1.5,2.3.6,3.5-.5,1.1-1,1-1.7.7-2.1-.6-.6-1.4-.4-3.4.6-1.9.9-4.1,1.5-5.9-.5-1.8-2-1.1-4.7.7-6.3,1.7-1.5,3.8-1.9,5.9-1l-1,3c-1-.4-1.9-.5-2.9.4-.8.7-.8,1.4-.4,1.8.4.5,1,.6,3-.4,2-.9,4.3-1.9,6.2.3,1.8,2,1.2,4.7-1.1,6.7-2.2,1.9-4.5,2.1-6.5,1.1Z"/><path d="m28.9,18.5c-.4-.9,0-2,.8-2.4.9-.4,2,0,2.4.8.4.9,0,2-.8,2.4-.9.4-2,0-2.4-.8Zm1.5,2.3l2.7-1.4,4.5,8.9-2.7,1.4-4.5-8.9Z"/><path d="m34.7,13.8l2.9-.9,4.5,13.9-2.9.9-4.5-13.9Z"/><path d="m41.3,13.9c-.2-1,.5-1.9,1.5-2.1,1-.2,1.9.5,2.1,1.5.2,1-.5,1.9-1.5,2.1-1,.2-1.9-.5-2.1-1.5Zm.7,2.6l3-.5,1.6,9.9-3,.5-1.6-9.9Z"/><path d="m47.9,20.5c.2-3,2.6-5.1,5.7-4.9,1.9.1,3.6,1.3,4.3,2.9l-2.7,1.3c-.3-.7-1-1.2-1.9-1.3-1.3,0-2.3.8-2.4,2.1-.1,1.4.8,2.4,2.1,2.5.9,0,1.6-.3,2-1l2.5,1.7c-1,1.5-2.7,2.4-4.7,2.2-3-.2-5.1-2.7-4.9-5.7Z"/><path d="m58.8,21.5c1.2-2.7,4.2-4,6.9-2.8,2.7,1.1,4,4.2,2.8,6.9s-4.2,4-6.9,2.8c-2.7-1.1-4-4.2-2.8-6.9Zm7,2.9c.5-1.3,0-2.6-1.2-3.1-1.2-.5-2.5,0-3,1.3-.6,1.3,0,2.6,1.2,3.1,1.2.5,2.5,0,3-1.3Z"/><path d="m78.3,32.6l-4.2,4.5-2.2-2,3.9-4.2c.8-.9.7-1.9,0-2.5-.8-.7-1.8-.8-2.8.3l-3.7,4-2.2-2,6.8-7.4,2.2,2-.6.7c.9-.2,2,.1,2.9,1,1.5,1.4,1.8,3.6,0,5.6Z"/><rect class="cls-2" x="23.1" y="40.5" width="52" height="37" rx="2.9" ry="2.9"/><path class="cls-3" d="m45.3,71.6c-2.5,0-4.6-.5-6.2-1.6s-2.8-2.5-3.4-4.3l5.2-3c.9,2.1,2.4,3.1,4.7,3.1s2.8-.5,2.8-1.6-.5-1.2-1.6-1.7c-.4-.2-1.4-.5-3-.9-2.2-.6-3.9-1.5-5.1-2.7-1.3-1.1-1.9-2.7-1.9-4.7s.8-4,2.3-5.3c1.6-1.4,3.5-2,5.9-2s3.7.5,5.3,1.4c1.5.9,2.7,2.3,3.5,4l-5.1,3c-.7-1.8-2-2.6-3.7-2.6s-1.3.1-1.6.4c-.4.3-.6.7-.6,1.1s.3,1,.8,1.3c.5.4,1.6.8,3.2,1.3,1.1.4,2,.7,2.8,1,.7.3,1.5.7,2.3,1.2.8.6,1.5,1.3,1.9,2.1.4.9.6,1.9.6,3,0,2.3-.8,4.1-2.5,5.4-1.6,1.3-3.8,2-6.5,2Z"/><path class="cls-3" d="m61.5,51.9c-.6.6-1.4,1-2.3,1s-1.6-.3-2.3-1-1-1.4-1-2.3.3-1.6,1-2.3c.6-.6,1.4-.9,2.3-.9s1.6.3,2.3.9c.6.6,1,1.4,1,2.3s-.3,1.6-1,2.3Zm-5.1,19.2v-16.9h5.6v16.9h-5.6Z"/></svg>