<?xml version="1.0" encoding="UTF-8"?><svg id="Layer_1" xmlns="http://www.w3.org/2000/svg" viewBox="0 0 100 100"><defs><style>.cls-1{fill:none;stroke:#a5262d;stroke-miterlimit:10;stroke-width:4px;}.cls-2{fill:#bd694f;}.cls-3{fill:#ede6e3;}.cls-4{fill:#b9a1d3;}.cls-5{fill:#934d36;}.cls-6{fill:#4d5961;}.cls-7{fill:#5e6b74;}.cls-8{fill:#baa1d3;}.cls-9{fill:#baa2d3;}.cls-10{fill:#d8ceca;}.cls-11{fill:#ede4e1;}.cls-12{fill:#525f67;}.cls-13{fill:#924d36;}.cls-14{fill:#914d37;}</style></defs><circle class="cls-1" cx="50" cy="50" r="45"/><path class="cls-2" d="m64,85.4h-26c0-.2-.2-.2-.4-.3-1.3-.6-2.1-1.6-2.1-3.1,0-14.9,0-29.7,0-44.6,0-1,.5-2,1.3-2.6.4-.3.9-.3,1.2-.8h26c2.2.8,2.9,1.8,2.9,4.2v43.8c0,1.4-.9,2.6-2.2,3.2-.2,0-.5,0-.7.3Zm-14-2c7.2,0,13-5.8,13-13,0-7.2-5.8-13-13-13-7.2,0-13,5.8-13,13,0,0,0,.1,0,.2,0,7.1,5.8,12.9,13,12.8,0,0,0,0,0,0Zm0-47.2c-5.1,0-9.3,4.2-9.3,9.3,0,5.1,4.2,9.3,9.3,9.3,5.1,0,9.2-4.2,9.3-9.3,0-5.1-4.1-9.3-9.2-9.3,0,0,0,0-.1,0h0Zm7.3,19.3c0,1.9,1.5,3.6,3.4,3.6,0,0,0,0,0,0,2,0,3.6-1.7,3.5-3.7,0-1.9-1.6-3.4-3.4-3.5-1.6,0-3.7,1.5-3.6,3.6Zm-18.5,25.8c0-.9-.8-1.5-1.6-1.5-.8,0-1.4.7-1.5,1.5,0,.9.6,1.6,1.5,1.7.9,0,1.6-.6,1.7-1.5,0,0,0-.1,0-.2Zm-1.6-41.7c.8,0,1.6-.6,1.6-1.5,0,0,0,0,0,0,0-.9-.6-1.6-1.5-1.7-.9,0-1.6.6-1.7,1.5,0,0,0,.1,0,.2,0,.9.7,1.6,1.5,1.6,0,0,0,0,0,0Zm25.4,0c.8,0,1.5-.7,1.5-1.5,0,0,0,0,0,0,0-.9-.7-1.5-1.6-1.5-.9,0-1.5.7-1.5,1.6,0,.8.7,1.5,1.5,1.5,0,0,0,0,0,0h0Zm0,40.1c-.8,0-1.6.6-1.6,1.4,0,0,0,0,0,0,0,.9.7,1.6,1.5,1.6.9,0,1.6-.7,1.6-1.5,0-.8-.6-1.6-1.5-1.6,0,0,0,0,0,0h0Z"/><path class="cls-5" d="m36,85.4c-.9-.2-1.7-.7-2.3-1.5-.4-.6-.7-1.3-.7-2v-44c-.1-1.4.6-2.8,1.8-3.5.4-.2.7-.3,1.1-.5h1.9c-.3.4-.8.5-1.2.8-.8.6-1.3,1.6-1.3,2.6v44.6c0,1.5.8,2.5,2.1,3.1.1,0,.4,0,.4.3h-1.9Z"/><path class="cls-8" d="m75.7,46.2c-.3.3-.7.5-1.2.4h-3.8c-.6,0-.9-.2-.9-.7s.3-.8.9-.8h4.1c.4,0,.7.2.9.5v.6Z"/><path class="cls-9" d="m24.3,70.6c.3-.3.7-.5,1.1-.4h3.9c.6,0,.9.2.9.7s-.3.8-.9.8h-4.1c-.4,0-.7-.2-.9-.5v-.6Z"/><path class="cls-9" d="m75.7,71.2c-.3.3-.7.5-1.1.5h-3.7c-.2,0-.4,0-.6,0-.4-.1-.6-.5-.5-.8,0-.3.3-.6.6-.6,0,0,0,0,0,0h4.5c.3,0,.4.3.7.4v.6Z"/><path class="cls-8" d="m24.3,45.6c.2-.4.7-.5,1.1-.5h3.7c.2,0,.4,0,.5,0,.3,0,.6.4.5.8,0,.4-.3.6-.6.6,0,0,0,0,0,0h-4.5c-.3,0-.4-.3-.7-.4v-.6Z"/><path class="cls-14" d="m50,83.4c-7.2,0-13-5.9-13-13,0-7.2,5.9-13,13-13,7.2,0,13,5.8,13,13,0,7.1-5.7,12.9-12.8,13,0,0-.1,0-.2,0Zm11.1-10.1h0c.4-1.6.5-3.2.2-4.7-1-6.2-6.9-10.5-13.1-9.5-.1,0-.3,0-.4,0-3.3.6-6.2,2.6-7.8,5.6-.6.9-.9,1.9-1.1,2.9h0c-.4,1.5-.4,2.9-.2,4.3.5,3.7,2.8,7,6.1,8.7,1.4.7,2.8,1.1,4.4,1.2,1.2.1,2.4,0,3.6-.4.2,0,.5,0,.7-.1,2.7-.8,5.1-2.7,6.5-5.2.6-.9,1-1.9,1.2-3Z"/><path class="cls-13" d="m50,36.2c5.1,0,9.3,4.2,9.3,9.3,0,5.1-4.2,9.3-9.3,9.3-5.1,0-9.3-4.2-9.3-9.3,0-5.1,4.1-9.3,9.3-9.3,0,0,0,0,0,0Zm-1.2,1.6c-1.9.3-3.7,1.3-4.9,2.9-.9,1-1.4,2.3-1.5,3.6-.2.7-.2,1.4,0,2,.3,2.9,2.2,5.3,4.9,6.3,1.3.6,2.7.7,4,.4.2,0,.4,0,.6,0,1.8-.4,3.4-1.5,4.4-3,.8-1,1.2-2.2,1.4-3.4.2-.8.2-1.7,0-2.5-.7-4.2-4.6-7-8.8-6.4h0Z"/><path class="cls-13" d="m57.3,55.5c-.2-2.1,1.9-3.6,3.6-3.6,2,0,3.5,1.8,3.4,3.8,0,1.9-1.6,3.4-3.5,3.4-1.9,0-3.5-1.6-3.5-3.6,0,0,0,0,0,0Zm3.5,2.1c1.1,0,2.1-.9,2.1-2.1h0c0-1.1-1-2-2.1-2.1-1.1,0-2,1-2,2.1,0,1.1.8,2,1.9,2,0,0,0,0,0,0h0Z"/><path class="cls-11" d="m38.9,81.3c0,.9-.6,1.6-1.5,1.6s-1.6-.6-1.6-1.5c0,0,0-.1,0-.2,0-.9.8-1.5,1.7-1.5.8,0,1.4.7,1.5,1.5Z"/><path class="cls-11" d="m37.3,39.6c-.9,0-1.5-.7-1.5-1.5,0,0,0,0,0,0,0-.9.6-1.6,1.5-1.6.9,0,1.6.6,1.6,1.5,0,0,0,.1,0,.2,0,.8-.7,1.5-1.5,1.5,0,0,0,0,0,0Z"/><path class="cls-11" d="m62.7,39.6c-.8,0-1.5-.6-1.6-1.5,0,0,0,0,0,0,0-.9.7-1.6,1.6-1.6.9,0,1.6.7,1.6,1.6,0,.8-.7,1.5-1.5,1.6,0,0,0,0,0,0Z"/><path class="cls-11" d="m62.7,79.8c.8,0,1.5.7,1.5,1.5,0,0,0,0,0,0,0,.9-.7,1.5-1.6,1.5-.9,0-1.5-.7-1.5-1.6h0c0-.8.7-1.5,1.5-1.5,0,0,0,0,0,0Z"/><path class="cls-8" d="m73.7,38.9c0,.3-.2.5-.3.6-.9.9-1.8,1.8-2.7,2.7-.3.3-.8.4-1.1.1,0,0,0,0,0,0-.3-.3-.3-.7.1-1.1l2.7-2.7c.2-.3.6-.4,1-.2.3.1.4.4.4.7Z"/><path class="cls-4" d="m70.1,74.5c.2,0,.4,0,.6.3.9.9,1.8,1.8,2.7,2.7.3.3.4.7.1,1,0,0,0,0-.1.1-.3.3-.8.3-1.1,0,0,0,0,0,0,0-.9-.9-1.8-1.9-2.8-2.8-.2-.2-.3-.5-.2-.8.1-.3.4-.5.7-.4Z"/><path class="cls-4" d="m73.7,53.1c0,.3-.2.5-.5.6-.3.1-.7,0-.9-.2l-2.4-2.4c-.2-.2-.3-.3-.5-.5-.3-.3-.3-.7,0-1,0,0,0,0,0,0,.2-.3.6-.3.9,0,0,0,0,0,0,0,1,1,2,2,2.9,2.9.1.1.2.3.2.5Z"/><path class="cls-4" d="m73.7,63.8c0,.2-.1.5-.3.6l-2.7,2.7c-.2.3-.7.4-1,.2,0,0,0,0,0,0-.3-.3-.3-.7,0-1,0,0,0,0,.1-.1.9-.9,1.9-1.9,2.8-2.8.2-.2.5-.3.8-.2.3.1.4.4.4.6Z"/><path class="cls-8" d="m30.7,41.7c0,.3-.2.5-.4.7-.3.1-.7,0-.9-.2l-2.3-2.3c-.2-.2-.4-.4-.5-.6-.3-.3-.3-.7,0-1,0,0,0,0,0,0,.3-.3.8-.3,1,0,0,0,0,0,0,0,.4.4.9.8,1.3,1.3s1,1,1.5,1.5c.2.2.3.4.3.6Z"/><path class="cls-4" d="m30.7,75.2c0,.2-.1.4-.3.6-.9.9-1.8,1.8-2.7,2.7-.3.4-.8.4-1.1.2,0,0,0,0,0,0-.4-.4-.3-.8.1-1.2.9-.9,1.8-1.8,2.7-2.7.2-.2.6-.3.9-.2.3.1.5.4.5.7Z"/><path class="cls-4" d="m30.7,50.2c0,.2-.1.4-.3.6-.9.9-1.8,1.8-2.7,2.7-.4.4-.8.4-1.1.1-.3-.3-.3-.8,0-1.1,0,0,0,0,.1,0,.9-.9,1.8-1.9,2.8-2.8.2-.2.5-.3.8-.2.3.1.5.4.5.7Z"/><path class="cls-4" d="m30.7,66.7c0,.3-.2.5-.4.7-.3.2-.6.1-.8,0-1-1-2-2-3-3-.2-.3-.2-.7,0-.9,0,0,0,0,0,0,.2-.3.7-.3.9,0,0,0,0,0,0,0,1,1,1.9,1.9,2.9,2.9.1.1.2.3.2.5Z"/><path class="cls-12" d="m39,67.6c.2-1,.5-2,1.1-2.9,3.1-5.5,10.2-7.4,15.7-4.3.4.2.8.5,1.2.8,2.4,1.8,4,4.4,4.4,7.3.3,1.5.2,3.1-.2,4.6h0c-.3.1-.7.2-1,.2-1.9.1-3.6-.6-5.2-1.5-.4-.3-.8-.5-1.3-.7v-1.1c-.1-1.5-1.2-2.7-2.6-3.1-.7-.3-1.6-.3-2.3,0-1.2.4-2.1,1.5-2.4,2.7-.1,0-.2,0-.4-.2-.6-.5-1.3-.9-2-1.2-1.4-.6-2.8-1.1-4.3-.9-.2,0-.5.1-.7,0Z"/><path class="cls-6" d="m39,67.6c.2,0,.5,0,.7,0,1.5-.2,2.9.3,4.3.9.7.3,1.4.7,2,1.2.1,0,.2.1.4.2,0,0,0,0,0,.1-.3,1.8.8,3.5,2.5,4,.6.1,1.2.2,1.8.1.6.9,1.1,1.9,1.6,2.9.7,1.4.8,3,.4,4.5-1.2.4-2.4.5-3.6.4-1.5-.1-3-.5-4.4-1.2-3.4-1.7-5.6-4.9-6.1-8.7-.2-1.4-.1-2.8.2-4.2h0Z"/><path class="cls-7" d="m52.7,81.5c.4-1.5.2-3.1-.4-4.5-.5-1-1-2-1.6-2.9l.4-.2c0,0,.2,0,.2,0,1.1-.5,2-1.5,2.3-2.7.4.2.9.4,1.3.7,1.6.9,3.3,1.6,5.2,1.5.3,0,.7,0,1,0-.2,1.1-.6,2.1-1.2,3-1.4,2.5-3.8,4.3-6.5,5.2-.2,0-.5.1-.7.1Z"/><path class="cls-12" d="m39,67.6h0c0,.1,0,0,0,0Z"/><path class="cls-7" d="m61.1,73.3h0c0-.1,0,0,0,0Z"/><path class="cls-7" d="m57.6,46.7c-.1,1.2-.6,2.4-1.4,3.4-1.1,1.5-2.6,2.6-4.4,3-.2,0-.4,0-.6,0,0-.9-.1-1.7-.5-2.5-1.1-2.3-2.9-4.2-5.1-5.4-.9-.7-2.1-1-3.3-.8.1-1.3.7-2.6,1.5-3.6,1.2-1.6,3-2.6,4.9-2.9,0,.9.2,1.8.6,2.7.9,1.8,2.2,3.3,3.7,4.5,1.3,1,2.7,1.9,4.5,1.7Zm-7-3.1c-.8-.3-1.8,0-2.3.7-.5.7-.5,1.7,0,2.5.5.7,1.4,1,2.3.7.9-.3,1.5-1.1,1.4-2,0-.9-.6-1.7-1.4-1.9Z"/><path class="cls-6" d="m57.6,46.7c-1.8.2-3.2-.7-4.5-1.7-1.6-1.2-2.9-2.7-3.7-4.5-.4-.8-.6-1.7-.6-2.7,4.2-.7,8.1,2.2,8.8,6.4.2.8.2,1.7,0,2.5Z"/><path class="cls-6" d="m42.4,44.3c1.2-.1,2.3.2,3.3.8,2.2,1.3,4,3.1,5.1,5.4.4.8.6,1.6.5,2.5-1.4.3-2.8.2-4-.4-2.7-1-4.6-3.5-4.9-6.3-.1-.7-.1-1.3,0-2Z"/><path class="cls-6" d="m60.9,57.6c-1.1,0-2-.8-2-1.9,0,0,0,0,0,0,0-1.1.9-2,2-2.1,1.1,0,2.1.9,2.1,2.1,0,1.1-.9,2.1-2.1,2.1h0Z"/><path class="cls-3" d="m53.6,71.1c-.3,1.2-1.1,2.2-2.3,2.7,0,0-.2,0-.2,0-.6-.4-1.2-.8-1.6-1.4-1.1-1.7-.7-4,1-5.1,0,0,0,0,0,0,.1,0,.4-.1.4-.3,1.4.4,2.5,1.6,2.6,3.1,0,.4,0,.7,0,1.1Z"/><path class="cls-10" d="m51,67c0,.2-.2.3-.4.3-1.7,1.1-2.2,3.4-1.2,5.1,0,0,0,0,0,0,.4.6,1,1,1.6,1.4l-.4.2c-.6,0-1.2,0-1.8-.1-1.7-.5-2.8-2.3-2.6-4.1,0,0,0,0,0-.1.2-1.3,1.1-2.3,2.4-2.8.7-.3,1.6-.3,2.3,0Z"/><path class="cls-3" d="m50.6,43.5c.9.2,1.4,1,1.4,1.9,0,.9-.6,1.7-1.4,2,0-.2-.3-.3-.5-.5-.8-.7-.9-2-.2-2.8.2-.2.5-.3.7-.6Z"/><path class="cls-10" d="m50.6,43.5c-.1.3-.5.4-.7.6-.7.8-.6,2.1.2,2.8.2.2.4.2.5.5-.8.3-1.7,0-2.3-.7-.5-.7-.5-1.7,0-2.5.5-.7,1.4-1,2.3-.7Z"/><path d="m24.2,32.2l.7-2.6c1,.4,2,.3,2.9-.6.9-.9.8-1.5.4-1.8-.5-.5-1.2-.2-2.8.7-1.6.9-3.4,1.6-5,0-1.6-1.6-1.2-3.9.2-5.4,1.4-1.4,3.1-1.8,5-1.2l-.6,2.6c-.9-.3-1.7-.3-2.4.5-.6.6-.6,1.2-.2,1.5.4.4.9.4,2.6-.5,1.6-.9,3.5-1.9,5.3-.2,1.6,1.6,1.3,3.9-.5,5.7-1.7,1.8-3.7,2.1-5.4,1.4Z"/><path d="m39.1,19.2c1.2,2.2.5,4.8-1.5,5.9-1,.5-1.9.6-2.7.3l2,3.7-2.3,1.2-5.6-10.5,2.3-1.2.4.7c.2-.8.7-1.6,1.8-2.1,2-1,4.5-.2,5.7,2.1Zm-2.3,1.2c-.6-1.1-1.7-1.4-2.8-.9-1,.5-1.4,1.7-.8,2.8.6,1.1,1.7,1.4,2.8.9,1-.5,1.4-1.7.8-2.8Z"/><path d="m45.6,20.1c.7-.1,1.2-.5,1.5-.9l2.2.8c-.6,1.3-1.7,2.1-3.3,2.4-2.9.5-5-1.1-5.4-3.6-.5-2.5,1-4.7,3.6-5.2,2.4-.4,4.6,1.1,5,3.6,0,.4,0,.7,0,1l-5.9,1.1c.5.8,1.3,1,2.2.8Zm1-3.3c-.4-.9-1.3-1.1-2-1-1,.2-1.5.8-1.6,1.7l3.6-.7Z"/><path d="m60.3,14l-1.1,8.4-2.5-.3v-.8c-.5.6-1.4.9-2.5.7-2.2-.3-3.8-2.5-3.5-5,.3-2.5,2.4-4.2,4.6-3.9,1.1.1,1.9.6,2.4,1.3v-.8c.1,0,2.6.3,2.6.3Zm-3.1,3.9c.2-1.3-.6-2.2-1.7-2.3-1.2-.1-2.1.5-2.3,1.8s.6,2.2,1.7,2.3c1.2.1,2.1-.5,2.3-1.8Z"/><path d="m65,25l-.9-4.5-1.5,3.4-2.3-1.1,4.9-10.8,2.3,1.1-2.9,6.5,3.9-2.3,2.7,1.2-4.6,2.6,1.1,5.2-2.6-1.2Z"/><path d="m72,27.3c.5.4,1.2.6,1.7.5l.8,2.2c-1.4.4-2.7,0-4-1-2.2-1.9-2.4-4.5-.8-6.5,1.6-1.9,4.3-2.3,6.3-.6,1.9,1.6,2.1,4.2.5,6.2-.2.3-.5.5-.7.7l-4.6-3.9c-.3.9,0,1.6.8,2.2Zm3.2-1.4c.4-.9,0-1.7-.5-2.2-.7-.6-1.5-.7-2.3-.2l2.8,2.3Z"/><path d="m84.2,31.3l-2.3,1.7c-.5-1-1.7-1.9-3.1-.9l-3.1,2.3-1.5-2.1,6.9-5,1.5,2.1-1.2.9c1.1-.4,2.2.2,2.9,1.1Z"/></svg>