<svg width="518" height="192" viewBox="0 0 518 192" fill="none" xmlns="http://www.w3.org/2000/svg">
<path d="M14.9793 21.1C14.2193 21.1 13.5793 20.84 13.0593 20.32C12.5526 19.8 12.2993 19.1533 12.2993 18.38C12.2993 17.6067 12.5526 16.9667 13.0593 16.46C13.5793 15.9533 14.2193 15.7 14.9793 15.7C15.7526 15.7 16.3993 15.9533 16.9193 16.46C17.4393 16.9667 17.6993 17.6067 17.6993 18.38C17.6993 19.1533 17.4393 19.8 16.9193 20.32C16.3993 20.84 15.7526 21.1 14.9793 21.1ZM36.44 9.76C37.3467 9.76 38.18 9.98667 38.94 10.44C39.7133 10.88 40.32 11.4867 40.76 12.26C41.2133 13.02 41.44 13.8533 41.44 14.76C41.44 15.6667 41.2133 16.5067 40.76 17.28C40.32 18.04 39.7133 18.6467 38.94 19.1C38.18 19.54 37.3467 19.76 36.44 19.76H34.1V24H31.06V9.76H36.44ZM36.24 16.98C36.8267 16.98 37.3333 16.7667 37.76 16.34C38.2 15.9 38.42 15.3733 38.42 14.76C38.42 14.16 38.2 13.64 37.76 13.2C37.3333 12.76 36.8267 12.54 36.24 12.54H34.1V16.98H36.24ZM48.4913 13.44C49.3046 13.44 50.0379 13.6533 50.6913 14.08C51.3579 14.5067 51.8779 15.08 52.2513 15.8C52.6246 16.52 52.8113 17.3067 52.8113 18.16V24H49.7713V18.26C49.7713 17.7667 49.5913 17.34 49.2313 16.98C48.8846 16.62 48.4513 16.44 47.9313 16.44C47.4513 16.44 47.0313 16.62 46.6713 16.98C46.3113 17.34 46.1313 17.7667 46.1313 18.26V24H43.0913V9.16H46.1313V14.34C46.7979 13.74 47.5846 13.44 48.4913 13.44ZM59.7375 24.24C58.7108 24.24 57.7642 24 56.8975 23.52C56.0442 23.0267 55.3642 22.3667 54.8575 21.54C54.3642 20.7133 54.1175 19.8067 54.1175 18.82C54.1175 17.8467 54.3642 16.9467 54.8575 16.12C55.3642 15.2933 56.0442 14.64 56.8975 14.16C57.7642 13.68 58.7108 13.44 59.7375 13.44C60.7508 13.44 61.6775 13.68 62.5175 14.16C63.3708 14.64 64.0442 15.2933 64.5375 16.12C65.0442 16.9467 65.2975 17.8467 65.2975 18.82C65.2975 19.8067 65.0442 20.7133 64.5375 21.54C64.0442 22.3667 63.3708 23.0267 62.5175 23.52C61.6775 24 60.7508 24.24 59.7375 24.24ZM59.7175 21.4C60.4242 21.4 61.0242 21.1533 61.5175 20.66C62.0242 20.1667 62.2775 19.56 62.2775 18.84C62.2775 18.12 62.0242 17.5133 61.5175 17.02C61.0242 16.5133 60.4242 16.26 59.7175 16.26C58.9975 16.26 58.3908 16.5133 57.8975 17.02C57.4042 17.5133 57.1575 18.12 57.1575 18.84C57.1575 19.56 57.4042 20.1667 57.8975 20.66C58.3908 21.1533 58.9975 21.4 59.7175 21.4ZM72.2561 13.44C73.0694 13.44 73.8028 13.6533 74.4561 14.08C75.1228 14.5067 75.6428 15.08 76.0161 15.8C76.3894 16.52 76.5761 17.3067 76.5761 18.16V24H73.5361V18.24C73.5361 17.7467 73.3561 17.32 72.9961 16.96C72.6494 16.6 72.2161 16.42 71.6961 16.42C71.2161 16.42 70.7961 16.6 70.4361 16.96C70.0761 17.32 69.8961 17.7467 69.8961 18.24V24H66.8561V13.68H69.3761V14.92C69.7228 14.4533 70.1361 14.0933 70.6161 13.84C71.1094 13.5733 71.6561 13.44 72.2561 13.44ZM88.5075 18.82C88.5075 19.2867 88.4808 19.6733 88.4275 19.98H80.7675C80.9808 20.5133 81.3142 20.9467 81.7675 21.28C82.2208 21.6133 82.7608 21.78 83.3875 21.78C84.3608 21.78 85.1408 21.4333 85.7275 20.74L87.9275 21.9C87.4342 22.6467 86.7875 23.2267 85.9875 23.64C85.1875 24.04 84.3075 24.24 83.3475 24.24C82.3742 24.24 81.4742 23.9933 80.6475 23.5C79.8208 23.0067 79.1608 22.3467 78.6675 21.52C78.1875 20.6933 77.9475 19.7933 77.9475 18.82C77.9475 17.86 78.1875 16.9667 78.6675 16.14C79.1608 15.3133 79.8208 14.66 80.6475 14.18C81.4742 13.6867 82.3742 13.44 83.3475 13.44C84.3475 13.44 85.2342 13.68 86.0075 14.16C86.7942 14.64 87.4075 15.2933 87.8475 16.12C88.2875 16.9467 88.5075 17.8467 88.5075 18.82ZM83.3875 15.98C82.8142 15.98 82.2942 16.1333 81.8275 16.44C81.3742 16.7467 81.0342 17.1467 80.8075 17.64H85.9675C85.7408 17.1467 85.3942 16.7467 84.9275 16.44C84.4742 16.1333 83.9608 15.98 83.3875 15.98ZM99.7395 9.76C100.486 9.76 101.18 9.94667 101.82 10.32C102.46 10.68 102.966 11.18 103.34 11.82C103.713 12.46 103.9 13.1533 103.9 13.9C103.9 14.46 103.78 14.9667 103.54 15.42C103.313 15.86 103 16.22 102.6 16.5C103.186 16.78 103.646 17.1867 103.98 17.72C104.326 18.2533 104.5 18.88 104.5 19.6C104.5 20.4 104.3 21.14 103.9 21.82C103.5 22.4867 102.96 23.02 102.28 23.42C101.613 23.8067 100.88 24 100.08 24H93.7595V9.76H99.7395ZM99.4795 15.3C99.8662 15.3 100.193 15.1667 100.46 14.9C100.726 14.62 100.86 14.2867 100.86 13.9C100.86 13.5267 100.72 13.2067 100.44 12.94C100.173 12.6733 99.8529 12.54 99.4795 12.54H96.7995V15.3H99.4795ZM99.9195 21.14C100.346 21.14 100.706 20.9933 101 20.7C101.306 20.3933 101.46 20.0267 101.46 19.6C101.46 19.2 101.306 18.8467 101 18.54C100.706 18.2333 100.346 18.08 99.9195 18.08H96.7995V21.14H99.9195ZM111.495 24.24C110.469 24.24 109.522 24 108.655 23.52C107.802 23.0267 107.122 22.3667 106.615 21.54C106.122 20.7133 105.875 19.8067 105.875 18.82C105.875 17.8467 106.122 16.9467 106.615 16.12C107.122 15.2933 107.802 14.64 108.655 14.16C109.522 13.68 110.469 13.44 111.495 13.44C112.509 13.44 113.435 13.68 114.275 14.16C115.129 14.64 115.802 15.2933 116.295 16.12C116.802 16.9467 117.055 17.8467 117.055 18.82C117.055 19.8067 116.802 20.7133 116.295 21.54C115.802 22.3667 115.129 23.0267 114.275 23.52C113.435 24 112.509 24.24 111.495 24.24ZM111.475 21.4C112.182 21.4 112.782 21.1533 113.275 20.66C113.782 20.1667 114.035 19.56 114.035 18.84C114.035 18.12 113.782 17.5133 113.275 17.02C112.782 16.5133 112.182 16.26 111.475 16.26C110.755 16.26 110.149 16.5133 109.655 17.02C109.162 17.5133 108.915 18.12 108.915 18.84C108.915 19.56 109.162 20.1667 109.655 20.66C110.149 21.1533 110.755 21.4 111.475 21.4ZM129.634 9.16V24H127.114V22.62C126.341 23.7 125.254 24.24 123.854 24.24C122.867 24.24 121.961 23.9933 121.134 23.5C120.307 23.0067 119.647 22.3467 119.154 21.52C118.674 20.6933 118.434 19.7933 118.434 18.82C118.434 17.86 118.674 16.9667 119.154 16.14C119.647 15.3133 120.307 14.66 121.134 14.18C121.961 13.6867 122.867 13.44 123.854 13.44C124.961 13.44 125.874 13.78 126.594 14.46V9.16H129.634ZM124.034 21.4C124.741 21.4 125.341 21.1533 125.834 20.66C126.341 20.1667 126.594 19.56 126.594 18.84C126.594 18.12 126.341 17.5133 125.834 17.02C125.341 16.5133 124.741 16.26 124.034 16.26C123.327 16.26 122.721 16.5133 122.214 17.02C121.721 17.5133 121.474 18.12 121.474 18.84C121.474 19.56 121.721 20.1667 122.214 20.66C122.721 21.1533 123.327 21.4 124.034 21.4ZM141.529 13.68L137.909 25.36C137.643 26.3733 137.109 27.2 136.309 27.84C135.523 28.4933 134.603 28.82 133.549 28.82H131.469V25.92H133.329C133.729 25.92 134.076 25.8067 134.369 25.58C134.676 25.3667 134.889 25.0733 135.009 24.7L135.229 24H133.589L130.649 13.68H133.709L135.969 21.62L138.449 13.68H141.529ZM151.796 24.12C150.782 24.12 149.842 23.8667 148.976 23.36C148.122 22.8533 147.442 22.1733 146.936 21.32C146.442 20.4533 146.196 19.5133 146.196 18.5V9.76H149.216V18.66C149.216 19.1267 149.329 19.56 149.556 19.96C149.796 20.3467 150.109 20.66 150.496 20.9C150.896 21.1267 151.329 21.24 151.796 21.24C152.262 21.24 152.696 21.1267 153.096 20.9C153.496 20.66 153.809 20.3467 154.036 19.96C154.276 19.56 154.396 19.1267 154.396 18.66V9.76H157.416V18.5C157.416 19.5133 157.162 20.4533 156.656 21.32C156.162 22.1733 155.482 22.8533 154.616 23.36C153.762 23.8667 152.822 24.12 151.796 24.12ZM164.541 13.44C165.355 13.44 166.088 13.6533 166.741 14.08C167.408 14.5067 167.928 15.08 168.301 15.8C168.675 16.52 168.861 17.3067 168.861 18.16V24H165.821V18.24C165.821 17.7467 165.641 17.32 165.281 16.96C164.935 16.6 164.501 16.42 163.981 16.42C163.501 16.42 163.081 16.6 162.721 16.96C162.361 17.32 162.181 17.7467 162.181 18.24V24H159.141V13.68H161.661V14.92C162.008 14.4533 162.421 14.0933 162.901 13.84C163.395 13.5733 163.941 13.44 164.541 13.44ZM170.373 10.24H173.493V12.58H170.373V10.24ZM170.413 13.68H173.433V24H170.413V13.68ZM182.918 21.22V24H180.678C179.985 24 179.345 23.84 178.758 23.52C178.185 23.2 177.725 22.76 177.378 22.2C177.045 21.6267 176.878 20.9933 176.878 20.3V16.48H174.618V13.68H176.878V10.62H179.918V13.68H182.718V16.46H179.918V20.3C179.918 20.5533 180.005 20.7733 180.178 20.96C180.365 21.1333 180.585 21.22 180.838 21.22H182.918ZM189.175 24.24C188.228 24.24 187.328 24.1067 186.475 23.84C185.635 23.56 184.888 23.1733 184.235 22.68L185.515 20.7C186.741 21.4067 187.961 21.76 189.175 21.76C189.721 21.76 190.108 21.7 190.335 21.58C190.575 21.4467 190.695 21.26 190.695 21.02C190.695 20.7933 190.575 20.6267 190.335 20.52C190.095 20.4 189.655 20.26 189.015 20.1C187.561 19.7667 186.501 19.3533 185.835 18.86C185.181 18.3533 184.855 17.64 184.855 16.72C184.855 15.7333 185.248 14.94 186.035 14.34C186.821 13.74 187.875 13.44 189.195 13.44C189.901 13.44 190.608 13.54 191.315 13.74C192.021 13.94 192.661 14.2067 193.235 14.54L192.195 16.66C191.141 16.18 190.141 15.94 189.195 15.94C188.795 15.94 188.468 16.0133 188.215 16.16C187.975 16.3067 187.855 16.5067 187.855 16.76C187.855 17.0267 187.975 17.2133 188.215 17.32C188.455 17.4267 188.908 17.5333 189.575 17.64C190.935 17.8933 191.961 18.2867 192.655 18.82C193.348 19.3533 193.695 20.0667 193.695 20.96C193.695 21.9733 193.288 22.7733 192.475 23.36C191.675 23.9467 190.575 24.24 189.175 24.24Z" fill="black"/>
<path d="M259 187C283.853 187 304 166.853 304 142C304 117.147 283.853 97 259 97C234.147 97 214 117.147 214 142C214 166.853 234.147 187 259 187Z" stroke="#0018C6" stroke-width="4" stroke-miterlimit="10"/>
<path d="M271.27 126.47C272.14 126.74 273.01 126.99 273.75 127.57C275.16 128.67 275.89 130.11 276 131.88C276 132.01 276 132.15 276 132.28C276 145.61 276 158.93 276 172.26C276 174.88 274.51 177.01 272.14 177.79C271.74 177.92 271.33 178.04 270.92 178.04C266.71 178.04 262.49 178.04 258.28 178.04C258.28 177.04 258.28 176.05 258.28 175.05C258.48 175.05 258.68 175.03 258.88 175.03C262.64 175.03 266.4 175.03 270.16 175.03C270.71 175.03 271.23 174.94 271.7 174.65C272.59 174.11 272.92 173.29 272.92 172.27C272.92 158.93 272.91 145.58 272.92 132.24C272.92 132.14 272.92 132.04 272.92 131.94C272.87 130.75 272.11 129.85 270.96 129.58C270.36 129.44 269.75 129.55 269.16 129.49C268.65 129.44 268.4 129.59 268.25 130.12C267.83 131.55 267.33 132.95 266.85 134.36C266.6 135.11 266.11 135.53 265.45 135.53C263.07 135.53 260.68 135.53 258.3 135.52V126.47H271.29H271.27Z" fill="#1D475A"/>
<path d="M258.28 175.04C258.28 176.04 258.28 177.03 258.28 178.03C254.12 178.03 249.96 178.09 245.8 178.02C242.89 177.97 240.63 175.47 240.58 172.43C240.56 171.47 240.58 170.52 240.58 169.56C240.58 157.14 240.58 144.73 240.58 132.31C240.58 129.83 241.67 128 243.94 126.94C244.37 126.74 244.84 126.63 245.29 126.47H258.29V135.52V135.56C256.01 135.56 253.73 135.55 251.44 135.54C250.49 135.54 250.03 135.2 249.73 134.3C249.24 132.84 248.75 131.38 248.28 129.91C248.18 129.61 248.05 129.47 247.72 129.49C247.32 129.52 246.91 129.49 246.51 129.49C244.61 129.49 243.6 130.5 243.6 132.42C243.6 137.91 243.6 143.4 243.6 148.89C243.6 156.66 243.6 164.43 243.6 172.2C243.6 173.98 244.64 175.03 246.41 175.03C248 175.03 249.6 175.03 251.19 175.03C253.56 175.03 255.92 175.02 258.29 175.01V175.05L258.28 175.04Z" fill="#275D76"/>
<path d="M258.28 135.52C260.66 135.52 263.05 135.54 265.43 135.53C266.09 135.53 266.58 135.1 266.83 134.36C267.31 132.95 267.81 131.55 268.23 130.12C268.39 129.59 268.63 129.43 269.14 129.49C269.74 129.55 270.34 129.44 270.94 129.58C272.09 129.85 272.86 130.75 272.9 131.94C272.9 132.04 272.9 132.14 272.9 132.24C272.9 145.58 272.9 158.93 272.9 172.27C272.9 173.29 272.57 174.1 271.68 174.65C271.21 174.94 270.69 175.03 270.14 175.03C266.38 175.03 262.62 175.03 258.86 175.03C258.66 175.03 258.46 175.04 258.26 175.05V175.01C258.26 161.86 258.26 148.71 258.26 135.56V135.52H258.28ZM267.26 144.36C267.35 144.82 267.41 145.11 267.47 145.4C267.7 146.38 268.43 146.89 269.34 146.71C270.13 146.56 270.63 145.77 270.44 144.84C270.13 143.26 269.79 141.69 269.43 140.12C269.24 139.3 268.49 138.86 267.66 139.02C266.13 139.33 264.61 139.65 263.08 139.97C262.15 140.16 261.57 140.92 261.73 141.72C261.91 142.65 262.7 143.14 263.7 142.94C263.99 142.88 264.27 142.82 264.65 142.75C264.48 143.02 264.37 143.2 264.25 143.38C262.7 145.74 261.15 148.09 259.6 150.44C259.32 150.87 259.16 151.31 259.3 151.82C259.47 152.43 259.86 152.82 260.48 152.92C261.13 153.03 261.67 152.8 262.04 152.23C263.28 150.35 264.51 148.47 265.75 146.59C266.22 145.88 266.69 145.17 267.24 144.33L267.26 144.36Z" fill="#00D7DF"/>
<path d="M258.28 135.56C258.28 148.71 258.28 161.86 258.28 175.01C255.91 175.01 253.55 175.02 251.18 175.03C249.59 175.03 247.99 175.03 246.4 175.03C244.64 175.03 243.59 173.98 243.59 172.2C243.59 164.43 243.59 156.66 243.59 148.89V132.42C243.59 130.5 244.59 129.49 246.5 129.49C246.9 129.49 247.31 129.51 247.71 129.49C248.04 129.46 248.17 129.61 248.27 129.91C248.74 131.38 249.24 132.84 249.72 134.3C250.02 135.21 250.48 135.54 251.43 135.54C253.71 135.54 255.99 135.55 258.28 135.56ZM249.27 166.09C249.19 165.73 249.13 165.42 249.06 165.11C248.83 164.16 248.1 163.67 247.2 163.85C246.43 164.01 245.93 164.77 246.1 165.67C246.41 167.27 246.75 168.85 247.12 170.44C247.31 171.25 248.07 171.7 248.89 171.53C250.42 171.22 251.94 170.9 253.46 170.57C253.72 170.51 253.98 170.44 254.2 170.27C254.77 169.84 254.97 169.12 254.71 168.47C254.42 167.78 253.75 167.44 252.93 167.57C252.61 167.62 252.31 167.77 251.9 167.73C252.55 166.74 253.16 165.81 253.78 164.87C254.86 163.23 255.93 161.59 257.01 159.95C257.37 159.41 257.38 158.84 257.05 158.29C256.72 157.76 256.22 157.52 255.59 157.6C255.05 157.66 254.69 157.98 254.4 158.43C252.84 160.82 251.28 163.2 249.71 165.58C249.6 165.74 249.53 165.94 249.28 166.08L249.27 166.09Z" fill="#75E1F7"/>
<path d="M267.26 144.36C266.71 145.2 266.24 145.91 265.77 146.62C264.54 148.5 263.3 150.38 262.06 152.26C261.69 152.82 261.15 153.06 260.5 152.95C259.88 152.84 259.49 152.45 259.32 151.85C259.18 151.34 259.34 150.9 259.62 150.47C261.17 148.12 262.72 145.76 264.27 143.41C264.39 143.23 264.5 143.05 264.67 142.78C264.29 142.86 264 142.92 263.72 142.97C262.72 143.17 261.93 142.68 261.75 141.75C261.59 140.95 262.18 140.19 263.1 140C264.62 139.68 266.15 139.36 267.68 139.05C268.51 138.88 269.26 139.33 269.45 140.15C269.81 141.72 270.15 143.29 270.46 144.87C270.64 145.79 270.14 146.58 269.36 146.74C268.44 146.92 267.72 146.41 267.49 145.43C267.42 145.14 267.37 144.85 267.27 144.39L267.26 144.36Z" fill="#1D475A"/>
<path d="M249.27 166.08C249.52 165.94 249.59 165.74 249.7 165.58C251.27 163.2 252.83 160.81 254.39 158.43C254.68 157.98 255.04 157.66 255.58 157.6C256.2 157.53 256.71 157.76 257.04 158.29C257.37 158.84 257.36 159.41 257 159.95C255.93 161.59 254.85 163.23 253.77 164.87C253.16 165.81 252.54 166.74 251.89 167.73C252.29 167.77 252.6 167.63 252.92 167.57C253.74 167.43 254.41 167.77 254.7 168.47C254.97 169.11 254.76 169.84 254.19 170.27C253.97 170.44 253.71 170.51 253.45 170.57C251.93 170.89 250.4 171.21 248.88 171.53C248.06 171.7 247.29 171.25 247.11 170.44C246.74 168.86 246.4 167.27 246.09 165.67C245.92 164.77 246.42 164 247.19 163.85C248.09 163.67 248.82 164.16 249.05 165.11C249.12 165.42 249.18 165.73 249.26 166.09L249.27 166.08Z" fill="#275D77"/>
<path d="M228.12 134.79L227.31 138.61L228.81 139.47L228.26 142.04L218.73 136.36L219.37 133.37L230.39 132.06L229.84 134.63L228.11 134.8L228.12 134.79ZM225.77 135.03L221.74 135.43L225.26 137.44L225.77 135.03Z" fill="black"/>
<path d="M225.03 120.41L234.23 125.46L233.15 127.43L232.53 127.09C232.79 127.8 232.74 128.61 232.26 129.49C231.32 131.21 229.02 131.8 227.07 130.73C225.11 129.66 224.38 127.41 225.32 125.68C225.8 124.8 226.46 124.32 227.2 124.16L223.95 122.38L225.03 120.41ZM229.86 125.63C228.87 125.09 227.9 125.41 227.4 126.31C226.9 127.22 227.16 128.21 228.15 128.75C229.14 129.29 230.11 128.97 230.61 128.07C231.11 127.17 230.85 126.17 229.86 125.63Z" fill="black"/>
<path d="M234.52 114.26L238 121.46L236.23 123.3L228.9 120.1L230.62 118.31L235.13 120.48L232.78 116.06L234.51 114.27L234.52 114.26Z" fill="black"/>
<path d="M242.5 109.12L246.43 115.51L244.51 116.69L244.14 116.09C244.02 116.83 243.57 117.51 242.71 118.04C241.04 119.07 238.75 118.45 237.58 116.54C236.41 114.64 236.89 112.32 238.56 111.29C239.42 110.76 240.22 110.67 240.94 110.9L240.57 110.3L242.49 109.12H242.5ZM242.55 113.49C241.96 112.53 240.95 112.32 240.07 112.86C239.19 113.4 238.92 114.4 239.51 115.35C240.1 116.31 241.11 116.52 241.99 115.97C242.87 115.42 243.14 114.44 242.55 113.48V113.49Z" fill="black"/>
<path d="M253.05 108.77L254.3 113.2L252.13 113.81L250.97 109.69C250.72 108.79 250.04 108.53 249.34 108.73C248.55 108.95 248.13 109.57 248.41 110.59L249.52 114.53L247.35 115.14L245.32 107.92L247.49 107.31L247.68 107.99C247.92 107.34 248.55 106.8 249.5 106.53C250.96 106.12 252.49 106.81 253.04 108.76L253.05 108.77Z" fill="black"/>
<path d="M254.75 109.39C254.71 107.16 256.37 105.4 258.65 105.35C260.1 105.32 261.41 106.06 262.08 107.2L260.14 108.38C259.87 107.86 259.33 107.56 258.67 107.57C257.69 107.59 256.99 108.31 257.01 109.34C257.03 110.37 257.76 111.06 258.74 111.05C259.4 111.04 259.95 110.71 260.18 110.18L262.17 111.27C261.55 112.45 260.29 113.24 258.82 113.27C256.54 113.31 254.81 111.62 254.77 109.39H254.75Z" fill="black"/>
<path d="M266.45 112.13C267.05 112.27 267.62 112.15 267.98 111.9L269.51 113.31C268.57 114.14 267.37 114.41 265.98 114.09C263.48 113.52 262.31 111.49 262.81 109.31C263.31 107.13 265.27 105.81 267.58 106.34C269.71 106.83 270.92 108.84 270.41 111.05C270.34 111.36 270.24 111.64 270.12 111.91L264.93 110.73C265.04 111.55 265.65 111.97 266.45 112.15V112.13ZM268.4 109.78C268.36 108.88 267.77 108.42 267.11 108.27C266.28 108.08 265.63 108.36 265.25 109.06L268.39 109.78H268.4Z" fill="black"/>
<path d="M281.85 109.32L276.84 118.55L274.86 117.48L275.2 116.86C274.49 117.13 273.68 117.08 272.8 116.6C271.07 115.66 270.47 113.37 271.54 111.41C272.61 109.45 274.85 108.7 276.58 109.64C277.46 110.12 277.94 110.77 278.11 111.51L279.88 108.26L281.86 109.33L281.85 109.32ZM276.65 114.18C277.19 113.19 276.86 112.21 275.95 111.72C275.04 111.22 274.04 111.49 273.51 112.48C272.98 113.47 273.3 114.45 274.21 114.94C275.12 115.43 276.12 115.17 276.65 114.18Z" fill="black"/>
<path d="M293.24 120.82L285.06 127.4L283.65 125.65L284.2 125.21C283.45 125.18 282.72 124.82 282.09 124.04C280.86 122.51 281.19 120.17 282.93 118.77C284.67 117.37 287.03 117.55 288.26 119.08C288.89 119.86 289.08 120.65 288.95 121.39L291.84 119.07L293.25 120.82H293.24ZM286.57 123.29C287.45 122.58 287.53 121.56 286.88 120.75C286.23 119.94 285.21 119.8 284.34 120.5C283.46 121.21 283.38 122.23 284.03 123.04C284.68 123.85 285.7 123.99 286.57 123.29Z" fill="black"/>
<path d="M292.11 125.04L293.14 127.04L286.48 130.48L285.45 128.48L292.11 125.04ZM293.79 123.92C294.44 123.58 295.27 123.85 295.61 124.5C295.95 125.15 295.68 125.98 295.03 126.32C294.38 126.66 293.55 126.39 293.21 125.74C292.87 125.09 293.14 124.26 293.79 123.92Z" fill="black"/>
<path d="M290.99 136.36C289.35 136.89 288.19 135.69 287.69 134.15C287.23 132.72 287.42 131.46 288.4 130.53L290.06 132.04C289.58 132.4 289.41 132.9 289.61 133.53C289.78 134.04 290.02 134.25 290.3 134.16C291.09 133.91 289.53 130.53 292 129.73C293.56 129.23 294.77 130.29 295.25 131.77C295.62 132.93 295.44 134.12 294.62 135.05L293.04 133.54C293.35 133.22 293.51 132.85 293.36 132.38C293.24 132.01 293.02 131.83 292.77 131.91C291.96 132.17 293.63 135.51 290.99 136.36Z" fill="black"/>
<path d="M293.3 145.41C291.07 145.55 289.25 144.05 289.12 142.08C289.06 141.08 289.35 140.32 289.89 139.79L286.19 140.03L286.05 137.78L296.53 137.11L296.67 139.36L295.97 139.41C296.57 139.87 296.96 140.58 297.03 141.58C297.16 143.54 295.54 145.27 293.31 145.41H293.3ZM293.16 143.16C294.28 143.09 294.94 142.29 294.87 141.26C294.8 140.23 294.05 139.52 292.93 139.59C291.81 139.66 291.15 140.46 291.22 141.49C291.29 142.52 292.04 143.23 293.16 143.16Z" fill="black"/>
<path d="M300.06 147.91L299.75 150.14L288.9 148.65L289.2 146.42L300.05 147.91H300.06Z" fill="black"/>
<path d="M293.43 159.6L286.36 157.11L287.11 154.99L287.77 155.22C287.4 154.56 287.31 153.76 287.65 152.81C288.3 150.96 290.47 150 292.57 150.74C294.68 151.48 295.77 153.58 295.11 155.43C294.78 156.38 294.21 156.96 293.51 157.23L294.18 157.46L293.43 159.58V159.6ZM290.64 156.23C291.7 156.6 292.62 156.13 292.96 155.15C293.3 154.17 292.89 153.23 291.83 152.86C290.77 152.49 289.86 152.96 289.51 153.94C289.17 154.92 289.58 155.86 290.64 156.23Z" fill="black"/>
<path d="M287.98 168.06L283.43 161.83C281.94 159.79 281.91 158.15 283.19 156.48L284.92 157.67C284.33 158.54 284.32 159.13 284.89 159.92L292.48 161.5L291.08 163.54L286.35 162.32L289.34 166.08L287.98 168.06Z" fill="black"/>
</svg>
