<svg width="518" height="208" viewBox="0 0 518 208" fill="none" xmlns="http://www.w3.org/2000/svg">
<path d="M14.9793 18.1C14.2193 18.1 13.5793 17.84 13.0593 17.32C12.5526 16.8 12.2993 16.1533 12.2993 15.38C12.2993 14.6067 12.5526 13.9667 13.0593 13.46C13.5793 12.9533 14.2193 12.7 14.9793 12.7C15.7526 12.7 16.3993 12.9533 16.9193 13.46C17.4393 13.9667 17.6993 14.6067 17.6993 15.38C17.6993 16.1533 17.4393 16.8 16.9193 17.32C16.3993 17.84 15.7526 18.1 14.9793 18.1ZM31.06 6.76H35.52L38.66 16.3L41.82 6.76H46.28V21H43.4V11.14L40.14 19.7H37.18L33.94 11.14V21H31.06V6.76ZM53.6438 21.24C52.6171 21.24 51.6704 21 50.8038 20.52C49.9504 20.0267 49.2704 19.3667 48.7638 18.54C48.2704 17.7133 48.0238 16.8067 48.0238 15.82C48.0238 14.8467 48.2704 13.9467 48.7638 13.12C49.2704 12.2933 49.9504 11.64 50.8038 11.16C51.6704 10.68 52.6171 10.44 53.6438 10.44C54.6571 10.44 55.5838 10.68 56.4238 11.16C57.2771 11.64 57.9504 12.2933 58.4438 13.12C58.9504 13.9467 59.2038 14.8467 59.2038 15.82C59.2038 16.8067 58.9504 17.7133 58.4438 18.54C57.9504 19.3667 57.2771 20.0267 56.4238 20.52C55.5838 21 54.6571 21.24 53.6438 21.24ZM53.6238 18.4C54.3304 18.4 54.9304 18.1533 55.4238 17.66C55.9304 17.1667 56.1838 16.56 56.1838 15.84C56.1838 15.12 55.9304 14.5133 55.4238 14.02C54.9304 13.5133 54.3304 13.26 53.6238 13.26C52.9038 13.26 52.2971 13.5133 51.8038 14.02C51.3104 14.5133 51.0638 15.12 51.0638 15.84C51.0638 16.56 51.3104 17.1667 51.8038 17.66C52.2971 18.1533 52.9038 18.4 53.6238 18.4ZM71.7823 6.16V21H69.2623V19.62C68.489 20.7 67.4023 21.24 66.0023 21.24C65.0157 21.24 64.109 20.9933 63.2823 20.5C62.4557 20.0067 61.7957 19.3467 61.3023 18.52C60.8223 17.6933 60.5823 16.7933 60.5823 15.82C60.5823 14.86 60.8223 13.9667 61.3023 13.14C61.7957 12.3133 62.4557 11.66 63.2823 11.18C64.109 10.6867 65.0157 10.44 66.0023 10.44C67.109 10.44 68.0223 10.78 68.7423 11.46V6.16H71.7823ZM66.1823 18.4C66.889 18.4 67.489 18.1533 67.9823 17.66C68.489 17.1667 68.7423 16.56 68.7423 15.84C68.7423 15.12 68.489 14.5133 67.9823 14.02C67.489 13.5133 66.889 13.26 66.1823 13.26C65.4757 13.26 64.869 13.5133 64.3623 14.02C63.869 14.5133 63.6223 15.12 63.6223 15.84C63.6223 16.56 63.869 17.1667 64.3623 17.66C64.869 18.1533 65.4757 18.4 66.1823 18.4ZM83.1916 10.68V21H80.6916V19.76C80.3449 20.2267 79.9249 20.5933 79.4316 20.86C78.9516 21.1133 78.4049 21.24 77.7916 21.24C76.9782 21.24 76.2449 21.0267 75.5916 20.6C74.9382 20.1733 74.4249 19.6 74.0516 18.88C73.6782 18.16 73.4916 17.3733 73.4916 16.52V10.68H76.5116V16.42C76.5116 16.9133 76.6916 17.34 77.0516 17.7C77.4116 18.06 77.8449 18.24 78.3516 18.24C78.8449 18.24 79.2716 18.06 79.6316 17.7C79.9916 17.34 80.1716 16.9133 80.1716 16.42V10.68H83.1916ZM88.603 21C87.9763 21 87.3896 20.8467 86.843 20.54C86.3096 20.2333 85.883 19.82 85.563 19.3C85.2563 18.7667 85.103 18.18 85.103 17.54V6.18H88.123V17.72C88.123 17.8533 88.163 17.96 88.243 18.04C88.3363 18.12 88.4563 18.16 88.603 18.16H88.943V21H88.603ZM100.519 15.82C100.519 16.2867 100.493 16.6733 100.439 16.98H92.7792C92.9926 17.5133 93.3259 17.9467 93.7792 18.28C94.2326 18.6133 94.7726 18.78 95.3992 18.78C96.3726 18.78 97.1526 18.4333 97.7392 17.74L99.9392 18.9C99.4459 19.6467 98.7992 20.2267 97.9992 20.64C97.1992 21.04 96.3192 21.24 95.3592 21.24C94.3859 21.24 93.4859 20.9933 92.6592 20.5C91.8326 20.0067 91.1726 19.3467 90.6792 18.52C90.1992 17.6933 89.9592 16.7933 89.9592 15.82C89.9592 14.86 90.1992 13.9667 90.6792 13.14C91.1726 12.3133 91.8326 11.66 92.6592 11.18C93.4859 10.6867 94.3859 10.44 95.3592 10.44C96.3592 10.44 97.2459 10.68 98.0192 11.16C98.8059 11.64 99.4192 12.2933 99.8592 13.12C100.299 13.9467 100.519 14.8467 100.519 15.82ZM95.3992 12.98C94.8259 12.98 94.3059 13.1333 93.8392 13.44C93.3859 13.7467 93.0459 14.1467 92.8192 14.64H97.9792C97.7526 14.1467 97.4059 13.7467 96.9392 13.44C96.4859 13.1333 95.9726 12.98 95.3992 12.98ZM106.714 21.24C105.767 21.24 104.867 21.1067 104.014 20.84C103.174 20.56 102.427 20.1733 101.774 19.68L103.054 17.7C104.28 18.4067 105.5 18.76 106.714 18.76C107.26 18.76 107.647 18.7 107.874 18.58C108.114 18.4467 108.234 18.26 108.234 18.02C108.234 17.7933 108.114 17.6267 107.874 17.52C107.634 17.4 107.194 17.26 106.554 17.1C105.1 16.7667 104.04 16.3533 103.374 15.86C102.72 15.3533 102.394 14.64 102.394 13.72C102.394 12.7333 102.787 11.94 103.574 11.34C104.36 10.74 105.414 10.44 106.734 10.44C107.44 10.44 108.147 10.54 108.854 10.74C109.56 10.94 110.2 11.2067 110.774 11.54L109.734 13.66C108.68 13.18 107.68 12.94 106.734 12.94C106.334 12.94 106.007 13.0133 105.754 13.16C105.514 13.3067 105.394 13.5067 105.394 13.76C105.394 14.0267 105.514 14.2133 105.754 14.32C105.994 14.4267 106.447 14.5333 107.114 14.64C108.474 14.8933 109.5 15.2867 110.194 15.82C110.887 16.3533 111.234 17.0667 111.234 17.96C111.234 18.9733 110.827 19.7733 110.014 20.36C109.214 20.9467 108.114 21.24 106.714 21.24ZM121.913 21.12C120.9 21.12 119.96 20.8667 119.093 20.36C118.24 19.8533 117.56 19.1733 117.053 18.32C116.56 17.4533 116.313 16.5133 116.313 15.5V6.76H119.333V15.66C119.333 16.1267 119.446 16.56 119.673 16.96C119.913 17.3467 120.226 17.66 120.613 17.9C121.013 18.1267 121.446 18.24 121.913 18.24C122.38 18.24 122.813 18.1267 123.213 17.9C123.613 17.66 123.926 17.3467 124.153 16.96C124.393 16.56 124.513 16.1267 124.513 15.66V6.76H127.533V15.5C127.533 16.5133 127.28 17.4533 126.773 18.32C126.28 19.1733 125.6 19.8533 124.733 20.36C123.88 20.8667 122.94 21.12 121.913 21.12ZM134.658 10.44C135.472 10.44 136.205 10.6533 136.858 11.08C137.525 11.5067 138.045 12.08 138.418 12.8C138.792 13.52 138.978 14.3067 138.978 15.16V21H135.938V15.24C135.938 14.7467 135.758 14.32 135.398 13.96C135.052 13.6 134.618 13.42 134.098 13.42C133.618 13.42 133.198 13.6 132.838 13.96C132.478 14.32 132.298 14.7467 132.298 15.24V21H129.258V10.68H131.778V11.92C132.125 11.4533 132.538 11.0933 133.018 10.84C133.512 10.5733 134.058 10.44 134.658 10.44ZM140.49 7.24H143.61V9.58H140.49V7.24ZM140.53 10.68H143.55V21H140.53V10.68ZM153.035 18.22V21H150.795C150.102 21 149.462 20.84 148.875 20.52C148.302 20.2 147.842 19.76 147.495 19.2C147.162 18.6267 146.995 17.9933 146.995 17.3V13.48H144.735V10.68H146.995V7.62H150.035V10.68H152.835V13.46H150.035V17.3C150.035 17.5533 150.122 17.7733 150.295 17.96C150.482 18.1333 150.702 18.22 150.955 18.22H153.035ZM159.292 21.24C158.345 21.24 157.445 21.1067 156.592 20.84C155.752 20.56 155.005 20.1733 154.352 19.68L155.632 17.7C156.859 18.4067 158.079 18.76 159.292 18.76C159.839 18.76 160.225 18.7 160.452 18.58C160.692 18.4467 160.812 18.26 160.812 18.02C160.812 17.7933 160.692 17.6267 160.452 17.52C160.212 17.4 159.772 17.26 159.132 17.1C157.679 16.7667 156.619 16.3533 155.952 15.86C155.299 15.3533 154.972 14.64 154.972 13.72C154.972 12.7333 155.365 11.94 156.152 11.34C156.939 10.74 157.992 10.44 159.312 10.44C160.019 10.44 160.725 10.54 161.432 10.74C162.139 10.94 162.779 11.2067 163.352 11.54L162.312 13.66C161.259 13.18 160.259 12.94 159.312 12.94C158.912 12.94 158.585 13.0133 158.332 13.16C158.092 13.3067 157.972 13.5067 157.972 13.76C157.972 14.0267 158.092 14.2133 158.332 14.32C158.572 14.4267 159.025 14.5333 159.692 14.64C161.052 14.8933 162.079 15.2867 162.772 15.82C163.465 16.3533 163.812 17.0667 163.812 17.96C163.812 18.9733 163.405 19.7733 162.592 20.36C161.792 20.9467 160.692 21.24 159.292 21.24ZM14.9793 52.1C14.2193 52.1 13.5793 51.84 13.0593 51.32C12.5526 50.8 12.2993 50.1533 12.2993 49.38C12.2993 48.6067 12.5526 47.9667 13.0593 47.46C13.5793 46.9533 14.2193 46.7 14.9793 46.7C15.7526 46.7 16.3993 46.9533 16.9193 47.46C17.4393 47.9667 17.6993 48.6067 17.6993 49.38C17.6993 50.1533 17.4393 50.8 16.9193 51.32C16.3993 51.84 15.7526 52.1 14.9793 52.1ZM37.94 55.28C36.66 55.28 35.48 54.9467 34.4 54.28C33.32 53.6133 32.46 52.7133 31.82 51.58C31.1933 50.4467 30.88 49.2067 30.88 47.86C30.88 46.5267 31.1933 45.2933 31.82 44.16C32.46 43.0267 33.32 42.1267 34.4 41.46C35.48 40.7933 36.66 40.46 37.94 40.46C39.02 40.46 40.0267 40.7 40.96 41.18C41.9067 41.66 42.7067 42.3267 43.36 43.18C44.0267 44.02 44.4867 44.9733 44.74 46.04L42.14 46.4C41.86 45.4933 41.3467 44.7533 40.6 44.18C39.8667 43.6067 39.0467 43.32 38.14 43.32C37.38 43.32 36.6733 43.5267 36.02 43.94C35.38 44.34 34.8667 44.8867 34.48 45.58C34.1067 46.2733 33.92 47.0333 33.92 47.86C33.92 48.6867 34.1067 49.4533 34.48 50.16C34.8667 50.8533 35.38 51.4067 36.02 51.82C36.66 52.22 37.3667 52.42 38.14 52.42C39.0467 52.42 39.8667 52.1333 40.6 51.56C41.3467 50.9867 41.86 50.2467 42.14 49.34L44.74 49.66C44.4867 50.7267 44.0267 51.6867 43.36 52.54C42.7067 53.3933 41.9067 54.0667 40.96 54.56C40.0267 55.04 39.02 55.28 37.94 55.28ZM51.8273 55.24C50.8007 55.24 49.854 55 48.9873 54.52C48.134 54.0267 47.454 53.3667 46.9473 52.54C46.454 51.7133 46.2073 50.8067 46.2073 49.82C46.2073 48.8467 46.454 47.9467 46.9473 47.12C47.454 46.2933 48.134 45.64 48.9873 45.16C49.854 44.68 50.8007 44.44 51.8273 44.44C52.8407 44.44 53.7673 44.68 54.6073 45.16C55.4607 45.64 56.134 46.2933 56.6273 47.12C57.134 47.9467 57.3873 48.8467 57.3873 49.82C57.3873 50.8067 57.134 51.7133 56.6273 52.54C56.134 53.3667 55.4607 54.0267 54.6073 54.52C53.7673 55 52.8407 55.24 51.8273 55.24ZM51.8073 52.4C52.514 52.4 53.114 52.1533 53.6073 51.66C54.114 51.1667 54.3673 50.56 54.3673 49.84C54.3673 49.12 54.114 48.5133 53.6073 48.02C53.114 47.5133 52.514 47.26 51.8073 47.26C51.0873 47.26 50.4807 47.5133 49.9873 48.02C49.494 48.5133 49.2473 49.12 49.2473 49.84C49.2473 50.56 49.494 51.1667 49.9873 51.66C50.4807 52.1533 51.0873 52.4 51.8073 52.4ZM70.2259 44.44C70.9859 44.44 71.6726 44.64 72.2859 45.04C72.8993 45.4267 73.3793 45.96 73.7259 46.64C74.0726 47.3067 74.2459 48.04 74.2459 48.84V55H71.2059V48.98C71.2059 48.5533 71.0526 48.1867 70.7459 47.88C70.4526 47.5733 70.0859 47.42 69.6459 47.42C69.2326 47.42 68.8726 47.5733 68.5659 47.88C68.2593 48.1867 68.1059 48.5533 68.1059 48.98V55H65.0859V48.98C65.0859 48.5533 64.9326 48.1867 64.6259 47.88C64.3193 47.5733 63.9526 47.42 63.5259 47.42C63.1126 47.42 62.7526 47.5733 62.4459 47.88C62.1393 48.1867 61.9859 48.5533 61.9859 48.98V55H58.9459V44.68H61.4659V45.72C62.1593 44.8667 63.0326 44.44 64.0859 44.44C64.7526 44.44 65.3593 44.5933 65.9059 44.9C66.4659 45.2067 66.9326 45.6267 67.3059 46.16C67.6259 45.64 68.0326 45.2267 68.5259 44.92C69.0193 44.6 69.5859 44.44 70.2259 44.44ZM87.0228 44.44C87.7828 44.44 88.4695 44.64 89.0828 45.04C89.6961 45.4267 90.1761 45.96 90.5228 46.64C90.8695 47.3067 91.0428 48.04 91.0428 48.84V55H88.0028V48.98C88.0028 48.5533 87.8495 48.1867 87.5428 47.88C87.2495 47.5733 86.8828 47.42 86.4428 47.42C86.0295 47.42 85.6695 47.5733 85.3628 47.88C85.0561 48.1867 84.9028 48.5533 84.9028 48.98V55H81.8828V48.98C81.8828 48.5533 81.7295 48.1867 81.4228 47.88C81.1161 47.5733 80.7495 47.42 80.3228 47.42C79.9095 47.42 79.5495 47.5733 79.2428 47.88C78.9361 48.1867 78.7828 48.5533 78.7828 48.98V55H75.7428V44.68H78.2628V45.72C78.9561 44.8667 79.8295 44.44 80.8828 44.44C81.5495 44.44 82.1561 44.5933 82.7028 44.9C83.2628 45.2067 83.7295 45.6267 84.1028 46.16C84.4228 45.64 84.8295 45.2267 85.3228 44.92C85.8161 44.6 86.3828 44.44 87.0228 44.44ZM102.02 44.68V55H99.5197V53.76C99.173 54.2267 98.753 54.5933 98.2597 54.86C97.7797 55.1133 97.233 55.24 96.6197 55.24C95.8064 55.24 95.073 55.0267 94.4197 54.6C93.7664 54.1733 93.253 53.6 92.8797 52.88C92.5064 52.16 92.3197 51.3733 92.3197 50.52V44.68H95.3397V50.42C95.3397 50.9133 95.5197 51.34 95.8797 51.7C96.2397 52.06 96.673 52.24 97.1797 52.24C97.673 52.24 98.0997 52.06 98.4597 51.7C98.8197 51.34 98.9997 50.9133 98.9997 50.42V44.68H102.02ZM109.131 44.44C109.944 44.44 110.678 44.6533 111.331 45.08C111.998 45.5067 112.518 46.08 112.891 46.8C113.264 47.52 113.451 48.3067 113.451 49.16V55H110.411V49.24C110.411 48.7467 110.231 48.32 109.871 47.96C109.524 47.6 109.091 47.42 108.571 47.42C108.091 47.42 107.671 47.6 107.311 47.96C106.951 48.32 106.771 48.7467 106.771 49.24V55H103.731V44.68H106.251V45.92C106.598 45.4533 107.011 45.0933 107.491 44.84C107.984 44.5733 108.531 44.44 109.131 44.44ZM114.963 41.24H118.083V43.58H114.963V41.24ZM115.003 44.68H118.023V55H115.003V44.68ZM124.889 55.24C123.902 55.24 122.996 54.9933 122.169 54.5C121.342 54.0067 120.682 53.3467 120.189 52.52C119.709 51.6933 119.469 50.7933 119.469 49.82C119.469 48.86 119.709 47.9667 120.189 47.14C120.682 46.3133 121.342 45.66 122.169 45.18C122.996 44.6867 123.902 44.44 124.889 44.44C125.756 44.44 126.556 44.6267 127.289 45C128.022 45.3733 128.636 45.88 129.129 46.52C129.622 47.16 129.942 47.88 130.089 48.68L127.489 49.06C127.329 48.54 127.022 48.1133 126.569 47.78C126.116 47.4333 125.616 47.26 125.069 47.26C124.362 47.26 123.756 47.5133 123.249 48.02C122.756 48.5133 122.509 49.12 122.509 49.84C122.509 50.3067 122.622 50.74 122.849 51.14C123.076 51.5267 123.382 51.84 123.769 52.08C124.169 52.3067 124.602 52.42 125.069 52.42C125.616 52.42 126.116 52.2533 126.569 51.92C127.022 51.5733 127.329 51.14 127.489 50.62L130.089 50.98C129.942 51.78 129.622 52.5067 129.129 53.16C128.636 53.8 128.022 54.3067 127.289 54.68C126.556 55.0533 125.756 55.24 124.889 55.24ZM142.329 44.68V55H139.829V53.62C139.055 54.7 137.969 55.24 136.569 55.24C135.582 55.24 134.675 54.9933 133.849 54.5C133.022 54.0067 132.362 53.3467 131.869 52.52C131.389 51.6933 131.149 50.7933 131.149 49.82C131.149 48.86 131.389 47.9667 131.869 47.14C132.362 46.3133 133.022 45.66 133.849 45.18C134.675 44.6867 135.582 44.44 136.569 44.44C137.969 44.44 139.055 44.98 139.829 46.06V44.68H142.329ZM136.749 52.4C137.455 52.4 138.055 52.1533 138.549 51.66C139.055 51.1667 139.309 50.56 139.309 49.84C139.309 49.12 139.055 48.5133 138.549 48.02C138.055 47.5133 137.455 47.26 136.749 47.26C136.029 47.26 135.422 47.5133 134.929 48.02C134.435 48.5133 134.189 49.12 134.189 49.84C134.189 50.56 134.435 51.1667 134.929 51.66C135.422 52.1533 136.029 52.4 136.749 52.4ZM151.688 52.22V55H149.448C148.754 55 148.114 54.84 147.528 54.52C146.954 54.2 146.494 53.76 146.148 53.2C145.814 52.6267 145.648 51.9933 145.648 51.3V47.48H143.388V44.68H145.648V41.62H148.688V44.68H151.488V47.46H148.688V51.3C148.688 51.5533 148.774 51.7733 148.948 51.96C149.134 52.1333 149.354 52.22 149.608 52.22H151.688ZM153.224 41.24H156.344V43.58H153.224V41.24ZM153.264 44.68H156.284V55H153.264V44.68ZM163.546 55.24C162.519 55.24 161.573 55 160.706 54.52C159.853 54.0267 159.173 53.3667 158.666 52.54C158.173 51.7133 157.926 50.8067 157.926 49.82C157.926 48.8467 158.173 47.9467 158.666 47.12C159.173 46.2933 159.853 45.64 160.706 45.16C161.573 44.68 162.519 44.44 163.546 44.44C164.559 44.44 165.486 44.68 166.326 45.16C167.179 45.64 167.853 46.2933 168.346 47.12C168.853 47.9467 169.106 48.8467 169.106 49.82C169.106 50.8067 168.853 51.7133 168.346 52.54C167.853 53.3667 167.179 54.0267 166.326 54.52C165.486 55 164.559 55.24 163.546 55.24ZM163.526 52.4C164.233 52.4 164.833 52.1533 165.326 51.66C165.833 51.1667 166.086 50.56 166.086 49.84C166.086 49.12 165.833 48.5133 165.326 48.02C164.833 47.5133 164.233 47.26 163.526 47.26C162.806 47.26 162.199 47.5133 161.706 48.02C161.213 48.5133 160.966 49.12 160.966 49.84C160.966 50.56 161.213 51.1667 161.706 51.66C162.199 52.1533 162.806 52.4 163.526 52.4ZM176.065 44.44C176.878 44.44 177.611 44.6533 178.265 45.08C178.931 45.5067 179.451 46.08 179.825 46.8C180.198 47.52 180.385 48.3067 180.385 49.16V55H177.345V49.24C177.345 48.7467 177.165 48.32 176.805 47.96C176.458 47.6 176.025 47.42 175.505 47.42C175.025 47.42 174.605 47.6 174.245 47.96C173.885 48.32 173.705 48.7467 173.705 49.24V55H170.665V44.68H173.185V45.92C173.531 45.4533 173.945 45.0933 174.425 44.84C174.918 44.5733 175.465 44.44 176.065 44.44ZM191.054 55.12C190.04 55.12 189.1 54.8667 188.234 54.36C187.38 53.8533 186.7 53.1733 186.194 52.32C185.7 51.4533 185.454 50.5133 185.454 49.5V40.76H188.474V49.66C188.474 50.1267 188.587 50.56 188.814 50.96C189.054 51.3467 189.367 51.66 189.754 51.9C190.154 52.1267 190.587 52.24 191.054 52.24C191.52 52.24 191.954 52.1267 192.354 51.9C192.754 51.66 193.067 51.3467 193.294 50.96C193.534 50.56 193.654 50.1267 193.654 49.66V40.76H196.674V49.5C196.674 50.5133 196.42 51.4533 195.914 52.32C195.42 53.1733 194.74 53.8533 193.874 54.36C193.02 54.8667 192.08 55.12 191.054 55.12ZM203.799 44.44C204.612 44.44 205.346 44.6533 205.999 45.08C206.666 45.5067 207.186 46.08 207.559 46.8C207.932 47.52 208.119 48.3067 208.119 49.16V55H205.079V49.24C205.079 48.7467 204.899 48.32 204.539 47.96C204.192 47.6 203.759 47.42 203.239 47.42C202.759 47.42 202.339 47.6 201.979 47.96C201.619 48.32 201.439 48.7467 201.439 49.24V55H198.399V44.68H200.919V45.92C201.266 45.4533 201.679 45.0933 202.159 44.84C202.652 44.5733 203.199 44.44 203.799 44.44ZM209.63 41.24H212.75V43.58H209.63V41.24ZM209.67 44.68H212.69V55H209.67V44.68ZM222.176 52.22V55H219.936C219.243 55 218.603 54.84 218.016 54.52C217.443 54.2 216.983 53.76 216.636 53.2C216.303 52.6267 216.136 51.9933 216.136 51.3V47.48H213.876V44.68H216.136V41.62H219.176V44.68H221.976V47.46H219.176V51.3C219.176 51.5533 219.263 51.7733 219.436 51.96C219.623 52.1333 219.843 52.22 220.096 52.22H222.176ZM228.433 55.24C227.486 55.24 226.586 55.1067 225.733 54.84C224.893 54.56 224.146 54.1733 223.493 53.68L224.773 51.7C225.999 52.4067 227.219 52.76 228.433 52.76C228.979 52.76 229.366 52.7 229.593 52.58C229.833 52.4467 229.953 52.26 229.953 52.02C229.953 51.7933 229.833 51.6267 229.593 51.52C229.353 51.4 228.913 51.26 228.273 51.1C226.819 50.7667 225.759 50.3533 225.093 49.86C224.439 49.3533 224.113 48.64 224.113 47.72C224.113 46.7333 224.506 45.94 225.293 45.34C226.079 44.74 227.133 44.44 228.453 44.44C229.159 44.44 229.866 44.54 230.573 44.74C231.279 44.94 231.919 45.2067 232.493 45.54L231.453 47.66C230.399 47.18 229.399 46.94 228.453 46.94C228.053 46.94 227.726 47.0133 227.473 47.16C227.233 47.3067 227.113 47.5067 227.113 47.76C227.113 48.0267 227.233 48.2133 227.473 48.32C227.713 48.4267 228.166 48.5333 228.833 48.64C230.193 48.8933 231.219 49.2867 231.913 49.82C232.606 50.3533 232.953 51.0667 232.953 51.96C232.953 52.9733 232.546 53.7733 231.733 54.36C230.933 54.9467 229.833 55.24 228.433 55.24ZM14.9793 86.1C14.2193 86.1 13.5793 85.84 13.0593 85.32C12.5526 84.8 12.2993 84.1533 12.2993 83.38C12.2993 82.6067 12.5526 81.9667 13.0593 81.46C13.5793 80.9533 14.2193 80.7 14.9793 80.7C15.7526 80.7 16.3993 80.9533 16.9193 81.46C17.4393 81.9667 17.6993 82.6067 17.6993 83.38C17.6993 84.1533 17.4393 84.8 16.9193 85.32C16.3993 85.84 15.7526 86.1 14.9793 86.1ZM36.44 74.76C37.3467 74.76 38.18 74.9867 38.94 75.44C39.7133 75.88 40.32 76.4867 40.76 77.26C41.2133 78.02 41.44 78.8533 41.44 79.76C41.44 80.6667 41.2133 81.5067 40.76 82.28C40.32 83.04 39.7133 83.6467 38.94 84.1C38.18 84.54 37.3467 84.76 36.44 84.76H34.1V89H31.06V74.76H36.44ZM36.24 81.98C36.8267 81.98 37.3333 81.7667 37.76 81.34C38.2 80.9 38.42 80.3733 38.42 79.76C38.42 79.16 38.2 78.64 37.76 78.2C37.3333 77.76 36.8267 77.54 36.24 77.54H34.1V81.98H36.24ZM48.4913 78.44C49.3046 78.44 50.0379 78.6533 50.6913 79.08C51.3579 79.5067 51.8779 80.08 52.2513 80.8C52.6246 81.52 52.8113 82.3067 52.8113 83.16V89H49.7713V83.26C49.7713 82.7667 49.5913 82.34 49.2313 81.98C48.8846 81.62 48.4513 81.44 47.9313 81.44C47.4513 81.44 47.0313 81.62 46.6713 81.98C46.3113 82.34 46.1313 82.7667 46.1313 83.26V89H43.0913V74.16H46.1313V79.34C46.7979 78.74 47.5846 78.44 48.4913 78.44ZM59.7375 89.24C58.7108 89.24 57.7642 89 56.8975 88.52C56.0442 88.0267 55.3642 87.3667 54.8575 86.54C54.3642 85.7133 54.1175 84.8067 54.1175 83.82C54.1175 82.8467 54.3642 81.9467 54.8575 81.12C55.3642 80.2933 56.0442 79.64 56.8975 79.16C57.7642 78.68 58.7108 78.44 59.7375 78.44C60.7508 78.44 61.6775 78.68 62.5175 79.16C63.3708 79.64 64.0442 80.2933 64.5375 81.12C65.0442 81.9467 65.2975 82.8467 65.2975 83.82C65.2975 84.8067 65.0442 85.7133 64.5375 86.54C64.0442 87.3667 63.3708 88.0267 62.5175 88.52C61.6775 89 60.7508 89.24 59.7375 89.24ZM59.7175 86.4C60.4242 86.4 61.0242 86.1533 61.5175 85.66C62.0242 85.1667 62.2775 84.56 62.2775 83.84C62.2775 83.12 62.0242 82.5133 61.5175 82.02C61.0242 81.5133 60.4242 81.26 59.7175 81.26C58.9975 81.26 58.3908 81.5133 57.8975 82.02C57.4042 82.5133 57.1575 83.12 57.1575 83.84C57.1575 84.56 57.4042 85.1667 57.8975 85.66C58.3908 86.1533 58.9975 86.4 59.7175 86.4ZM72.2561 78.44C73.0694 78.44 73.8028 78.6533 74.4561 79.08C75.1228 79.5067 75.6428 80.08 76.0161 80.8C76.3894 81.52 76.5761 82.3067 76.5761 83.16V89H73.5361V83.24C73.5361 82.7467 73.3561 82.32 72.9961 81.96C72.6494 81.6 72.2161 81.42 71.6961 81.42C71.2161 81.42 70.7961 81.6 70.4361 81.96C70.0761 82.32 69.8961 82.7467 69.8961 83.24V89H66.8561V78.68H69.3761V79.92C69.7228 79.4533 70.1361 79.0933 70.6161 78.84C71.1094 78.5733 71.6561 78.44 72.2561 78.44ZM88.5075 83.82C88.5075 84.2867 88.4808 84.6733 88.4275 84.98H80.7675C80.9808 85.5133 81.3142 85.9467 81.7675 86.28C82.2208 86.6133 82.7608 86.78 83.3875 86.78C84.3608 86.78 85.1408 86.4333 85.7275 85.74L87.9275 86.9C87.4342 87.6467 86.7875 88.2267 85.9875 88.64C85.1875 89.04 84.3075 89.24 83.3475 89.24C82.3742 89.24 81.4742 88.9933 80.6475 88.5C79.8208 88.0067 79.1608 87.3467 78.6675 86.52C78.1875 85.6933 77.9475 84.7933 77.9475 83.82C77.9475 82.86 78.1875 81.9667 78.6675 81.14C79.1608 80.3133 79.8208 79.66 80.6475 79.18C81.4742 78.6867 82.3742 78.44 83.3475 78.44C84.3475 78.44 85.2342 78.68 86.0075 79.16C86.7942 79.64 87.4075 80.2933 87.8475 81.12C88.2875 81.9467 88.5075 82.8467 88.5075 83.82ZM83.3875 80.98C82.8142 80.98 82.2942 81.1333 81.8275 81.44C81.3742 81.7467 81.0342 82.1467 80.8075 82.64H85.9675C85.7408 82.1467 85.3942 81.7467 84.9275 81.44C84.4742 81.1333 83.9608 80.98 83.3875 80.98ZM99.7395 74.76C100.486 74.76 101.18 74.9467 101.82 75.32C102.46 75.68 102.966 76.18 103.34 76.82C103.713 77.46 103.9 78.1533 103.9 78.9C103.9 79.46 103.78 79.9667 103.54 80.42C103.313 80.86 103 81.22 102.6 81.5C103.186 81.78 103.646 82.1867 103.98 82.72C104.326 83.2533 104.5 83.88 104.5 84.6C104.5 85.4 104.3 86.14 103.9 86.82C103.5 87.4867 102.96 88.02 102.28 88.42C101.613 88.8067 100.88 89 100.08 89H93.7595V74.76H99.7395ZM99.4795 80.3C99.8662 80.3 100.193 80.1667 100.46 79.9C100.726 79.62 100.86 79.2867 100.86 78.9C100.86 78.5267 100.72 78.2067 100.44 77.94C100.173 77.6733 99.8529 77.54 99.4795 77.54H96.7995V80.3H99.4795ZM99.9195 86.14C100.346 86.14 100.706 85.9933 101 85.7C101.306 85.3933 101.46 85.0267 101.46 84.6C101.46 84.2 101.306 83.8467 101 83.54C100.706 83.2333 100.346 83.08 99.9195 83.08H96.7995V86.14H99.9195ZM111.495 89.24C110.469 89.24 109.522 89 108.655 88.52C107.802 88.0267 107.122 87.3667 106.615 86.54C106.122 85.7133 105.875 84.8067 105.875 83.82C105.875 82.8467 106.122 81.9467 106.615 81.12C107.122 80.2933 107.802 79.64 108.655 79.16C109.522 78.68 110.469 78.44 111.495 78.44C112.509 78.44 113.435 78.68 114.275 79.16C115.129 79.64 115.802 80.2933 116.295 81.12C116.802 81.9467 117.055 82.8467 117.055 83.82C117.055 84.8067 116.802 85.7133 116.295 86.54C115.802 87.3667 115.129 88.0267 114.275 88.52C113.435 89 112.509 89.24 111.495 89.24ZM111.475 86.4C112.182 86.4 112.782 86.1533 113.275 85.66C113.782 85.1667 114.035 84.56 114.035 83.84C114.035 83.12 113.782 82.5133 113.275 82.02C112.782 81.5133 112.182 81.26 111.475 81.26C110.755 81.26 110.149 81.5133 109.655 82.02C109.162 82.5133 108.915 83.12 108.915 83.84C108.915 84.56 109.162 85.1667 109.655 85.66C110.149 86.1533 110.755 86.4 111.475 86.4ZM129.634 74.16V89H127.114V87.62C126.341 88.7 125.254 89.24 123.854 89.24C122.867 89.24 121.961 88.9933 121.134 88.5C120.307 88.0067 119.647 87.3467 119.154 86.52C118.674 85.6933 118.434 84.7933 118.434 83.82C118.434 82.86 118.674 81.9667 119.154 81.14C119.647 80.3133 120.307 79.66 121.134 79.18C121.961 78.6867 122.867 78.44 123.854 78.44C124.961 78.44 125.874 78.78 126.594 79.46V74.16H129.634ZM124.034 86.4C124.741 86.4 125.341 86.1533 125.834 85.66C126.341 85.1667 126.594 84.56 126.594 83.84C126.594 83.12 126.341 82.5133 125.834 82.02C125.341 81.5133 124.741 81.26 124.034 81.26C123.327 81.26 122.721 81.5133 122.214 82.02C121.721 82.5133 121.474 83.12 121.474 83.84C121.474 84.56 121.721 85.1667 122.214 85.66C122.721 86.1533 123.327 86.4 124.034 86.4ZM141.529 78.68L137.909 90.36C137.643 91.3733 137.109 92.2 136.309 92.84C135.523 93.4933 134.603 93.82 133.549 93.82H131.469V90.92H133.329C133.729 90.92 134.076 90.8067 134.369 90.58C134.676 90.3667 134.889 90.0733 135.009 89.7L135.229 89H133.589L130.649 78.68H133.709L135.969 86.62L138.449 78.68H141.529ZM155.996 89L155.056 86.4H149.496L148.556 89H145.356L150.516 74.76H154.016L159.176 89H155.996ZM150.496 83.6H154.036L152.276 78.72L150.496 83.6ZM164.975 89.24C164.029 89.24 163.129 89.1067 162.275 88.84C161.435 88.56 160.689 88.1733 160.035 87.68L161.315 85.7C162.542 86.4067 163.762 86.76 164.975 86.76C165.522 86.76 165.909 86.7 166.135 86.58C166.375 86.4467 166.495 86.26 166.495 86.02C166.495 85.7933 166.375 85.6267 166.135 85.52C165.895 85.4 165.455 85.26 164.815 85.1C163.362 84.7667 162.302 84.3533 161.635 83.86C160.982 83.3533 160.655 82.64 160.655 81.72C160.655 80.7333 161.049 79.94 161.835 79.34C162.622 78.74 163.675 78.44 164.995 78.44C165.702 78.44 166.409 78.54 167.115 78.74C167.822 78.94 168.462 79.2067 169.035 79.54L167.995 81.66C166.942 81.18 165.942 80.94 164.995 80.94C164.595 80.94 164.269 81.0133 164.015 81.16C163.775 81.3067 163.655 81.5067 163.655 81.76C163.655 82.0267 163.775 82.2133 164.015 82.32C164.255 82.4267 164.709 82.5333 165.375 82.64C166.735 82.8933 167.762 83.2867 168.455 83.82C169.149 84.3533 169.495 85.0667 169.495 85.96C169.495 86.9733 169.089 87.7733 168.275 88.36C167.475 88.9467 166.375 89.24 164.975 89.24ZM175.737 89.24C174.791 89.24 173.891 89.1067 173.037 88.84C172.197 88.56 171.451 88.1733 170.797 87.68L172.077 85.7C173.304 86.4067 174.524 86.76 175.737 86.76C176.284 86.76 176.671 86.7 176.897 86.58C177.137 86.4467 177.257 86.26 177.257 86.02C177.257 85.7933 177.137 85.6267 176.897 85.52C176.657 85.4 176.217 85.26 175.577 85.1C174.124 84.7667 173.064 84.3533 172.397 83.86C171.744 83.3533 171.417 82.64 171.417 81.72C171.417 80.7333 171.811 79.94 172.597 79.34C173.384 78.74 174.437 78.44 175.757 78.44C176.464 78.44 177.171 78.54 177.877 78.74C178.584 78.94 179.224 79.2067 179.797 79.54L178.757 81.66C177.704 81.18 176.704 80.94 175.757 80.94C175.357 80.94 175.031 81.0133 174.777 81.16C174.537 81.3067 174.417 81.5067 174.417 81.76C174.417 82.0267 174.537 82.2133 174.777 82.32C175.017 82.4267 175.471 82.5333 176.137 82.64C177.497 82.8933 178.524 83.2867 179.217 83.82C179.911 84.3533 180.257 85.0667 180.257 85.96C180.257 86.9733 179.851 87.7733 179.037 88.36C178.237 88.9467 177.137 89.24 175.737 89.24ZM192.199 83.82C192.199 84.2867 192.172 84.6733 192.119 84.98H184.459C184.672 85.5133 185.006 85.9467 185.459 86.28C185.912 86.6133 186.452 86.78 187.079 86.78C188.052 86.78 188.832 86.4333 189.419 85.74L191.619 86.9C191.126 87.6467 190.479 88.2267 189.679 88.64C188.879 89.04 187.999 89.24 187.039 89.24C186.066 89.24 185.166 88.9933 184.339 88.5C183.512 88.0067 182.852 87.3467 182.359 86.52C181.879 85.6933 181.639 84.7933 181.639 83.82C181.639 82.86 181.879 81.9667 182.359 81.14C182.852 80.3133 183.512 79.66 184.339 79.18C185.166 78.6867 186.066 78.44 187.039 78.44C188.039 78.44 188.926 78.68 189.699 79.16C190.486 79.64 191.099 80.2933 191.539 81.12C191.979 81.9467 192.199 82.8467 192.199 83.82ZM187.079 80.98C186.506 80.98 185.986 81.1333 185.519 81.44C185.066 81.7467 184.726 82.1467 184.499 82.64H189.659C189.432 82.1467 189.086 81.7467 188.619 81.44C188.166 81.1333 187.652 80.98 187.079 80.98ZM204.913 78.44C205.673 78.44 206.36 78.64 206.973 79.04C207.587 79.4267 208.067 79.96 208.413 80.64C208.76 81.3067 208.933 82.04 208.933 82.84V89H205.893V82.98C205.893 82.5533 205.74 82.1867 205.433 81.88C205.14 81.5733 204.773 81.42 204.333 81.42C203.92 81.42 203.56 81.5733 203.253 81.88C202.947 82.1867 202.793 82.5533 202.793 82.98V89H199.773V82.98C199.773 82.5533 199.62 82.1867 199.313 81.88C199.007 81.5733 198.64 81.42 198.213 81.42C197.8 81.42 197.44 81.5733 197.133 81.88C196.827 82.1867 196.673 82.5533 196.673 82.98V89H193.633V78.68H196.153V79.72C196.847 78.8667 197.72 78.44 198.773 78.44C199.44 78.44 200.047 78.5933 200.593 78.9C201.153 79.2067 201.62 79.6267 201.993 80.16C202.313 79.64 202.72 79.2267 203.213 78.92C203.707 78.6 204.273 78.44 204.913 78.44ZM216.41 78.44C217.384 78.44 218.284 78.6867 219.11 79.18C219.937 79.66 220.59 80.3133 221.07 81.14C221.564 81.9667 221.81 82.86 221.81 83.82C221.81 84.7933 221.564 85.6933 221.07 86.52C220.59 87.3467 219.937 88.0067 219.11 88.5C218.284 88.9933 217.384 89.24 216.41 89.24C215.01 89.24 213.924 88.7 213.15 87.62V89H210.63V74.16H213.67V79.46C214.39 78.78 215.304 78.44 216.41 78.44ZM216.23 86.4C216.937 86.4 217.537 86.1533 218.03 85.66C218.537 85.1667 218.79 84.56 218.79 83.84C218.79 83.12 218.537 82.5133 218.03 82.02C217.537 81.5133 216.937 81.26 216.23 81.26C215.51 81.26 214.904 81.5133 214.41 82.02C213.917 82.5133 213.67 83.12 213.67 83.84C213.67 84.56 213.917 85.1667 214.41 85.66C214.904 86.1533 215.51 86.4 216.23 86.4ZM227.08 89C226.453 89 225.866 88.8467 225.32 88.54C224.786 88.2333 224.36 87.82 224.04 87.3C223.733 86.7667 223.58 86.18 223.58 85.54V74.18H226.6V85.72C226.6 85.8533 226.64 85.96 226.72 86.04C226.813 86.12 226.933 86.16 227.08 86.16H227.42V89H227.08ZM238.697 78.68L235.077 90.36C234.811 91.3733 234.277 92.2 233.477 92.84C232.691 93.4933 231.771 93.82 230.717 93.82H228.637V90.92H230.497C230.897 90.92 231.244 90.8067 231.537 90.58C231.844 90.3667 232.057 90.0733 232.177 89.7L232.397 89H230.757L227.817 78.68H230.877L233.137 86.62L235.617 78.68H238.697Z" fill="black"/>
<path d="M83.66 182.91C84.12 182.47 84.58 182.03 85.03 181.58C87.29 179.33 89.52 177.06 91.8 174.82C93.45 173.15 96.14 173.13 97.81 174.78C98.37 175.33 98.76 176.02 98.95 176.78C99.1 177.4 99.12 178.05 99.01 178.68C98.75 179.62 98.24 180.48 97.53 181.15C95.58 183.07 93.66 185.02 91.71 186.94C91.43 187.22 91.45 187.37 91.71 187.65C92.75 188.76 93.49 190.11 93.87 191.57H80.64C80.47 191.57 80.23 191.62 80.24 191.33C80.29 190.08 80.1 188.82 80.42 187.58C80.71 186.4 81.31 185.33 82.17 184.46L83.67 182.92L83.66 182.91Z" fill="#F4BD99"/>
<path d="M116.28 180.71C114.86 180.07 114.17 178.05 114.87 176.47C115.41 175.13 116.74 174.29 118.18 174.36H126.62C128.49 174.56 129.61 175.5 130.01 177.18C129.86 177.18 129.84 177.3 129.79 177.41C129.43 178.29 128.72 178.98 127.83 179.32C127.25 179.52 126.63 179.61 126.01 179.58H117.57C116.52 179.57 116.4 179.68 116.28 180.7V180.71Z" fill="#F3BD99"/>
<path d="M116.32 187.64C114.69 186.72 114.1 184.66 115.02 183.03C115.49 182.2 116.29 181.6 117.22 181.38C117.58 181.29 117.94 181.23 118.3 181.21H127.11C127.82 181.41 128.48 181.76 129.05 182.24C129.53 182.73 129.86 183.34 130.01 184.01C129.92 184.05 129.84 184.13 129.81 184.23C129.1 185.88 127.76 186.44 126.06 186.43H117.51C116.51 186.45 116.31 186.65 116.32 187.66V187.64Z" fill="#F4BD99"/>
<path d="M114.6 191.56C114.6 189.98 115.68 188.6 117.22 188.24C117.45 188.19 117.68 188.16 117.91 188.14C121.04 188.09 124.18 188.26 127.31 188.05C127.31 188.25 127.47 188.22 127.59 188.26C128.8 188.61 129.72 189.6 129.99 190.83C130.15 191.49 130.08 191.59 129.4 191.59H115.15C114.97 191.57 114.79 191.56 114.6 191.56Z" fill="#F4BD99"/>
<path d="M93.8501 191.56C93.4701 190.09 92.7201 188.74 91.6901 187.64C91.4301 187.36 91.4101 187.21 91.6901 186.93C93.6401 185.01 95.5601 183.06 97.5101 181.14C98.2201 180.47 98.7401 179.62 98.9901 178.67C99.6101 180.19 99.2601 181.94 98.1201 183.12C96.8501 184.41 95.5601 185.69 94.2701 186.96C94.0101 187.22 94.0001 187.35 94.2701 187.62C95.3201 188.73 96.0701 190.09 96.4801 191.56H93.8501Z" fill="#067FA6"/>
<path d="M127.31 188.05C124.18 188.26 121.04 188.09 117.91 188.14C117.68 188.16 117.45 188.19 117.22 188.24C116.97 188.04 116.59 188.02 116.41 187.73L116.32 187.66C116.32 186.63 116.51 186.45 117.51 186.45H126.06C127.76 186.45 129.1 185.91 129.81 184.25C129.84 184.15 129.92 184.08 130.01 184.03C130.23 186 129.33 187.48 127.6 188.01C127.5 188.03 127.41 188.04 127.31 188.05Z" fill="#EB917F"/>
<path d="M127.11 181.2H118.3C117.93 181.23 117.57 181.29 117.22 181.37C116.98 181.13 116.57 181.15 116.41 180.81L116.29 180.69C116.41 179.66 116.54 179.55 117.58 179.55H126.02C126.64 179.58 127.25 179.5 127.84 179.29C128.73 178.95 129.43 178.26 129.8 177.38C129.85 177.27 129.86 177.15 130.02 177.15C130.37 178.93 129.28 180.67 127.52 181.13C127.4 181.17 127.25 181.17 127.11 181.19V181.2Z" fill="#EB917F"/>
<path d="M116.27 153.75H112.45C112.11 153.75 111.99 153.66 111.99 153.3C111.99 152.414 112.42 151.97 113.28 151.97H120.17C120.53 151.97 120.68 152.06 120.65 152.44C120.65 153.307 120.213 153.74 119.34 153.74H116.27V153.75Z" fill="#97D6E5"/>
<path d="M119.33 148.55H122.75C123.06 148.55 123.19 148.62 123.19 148.97C123.19 150.33 123.22 150.33 121.88 150.33H115.95C115.58 150.33 115.44 150.25 115.44 149.82C115.44 148.973 115.853 148.55 116.68 148.55H119.33Z" fill="#9DD8E6"/>
<path d="M111.99 149.38C111.99 148.826 112.263 148.55 112.81 148.55C113.357 148.55 113.657 148.846 113.71 149.44C113.71 150.33 113.71 150.31 112.83 150.31C111.83 150.31 112.02 150.4 111.99 149.38Z" fill="#9DD8E6"/>
<path d="M123.04 144.28H87.2299C86.7899 144.27 86.3599 144.33 85.9499 144.46C84.5199 144.96 83.5899 146.33 83.6599 147.84V182.9C84.1199 182.46 84.5799 182.02 85.0299 181.57C87.2899 179.32 89.5199 177.06 91.7799 174.81C92.3299 174.25 93.0199 173.86 93.7799 173.67C96.0599 173.1 98.3599 174.49 98.9299 176.76C99.0799 177.38 99.0999 178.03 98.9899 178.66C99.5999 180.19 99.2499 181.93 98.0999 183.11C96.8299 184.4 95.5499 185.68 94.2499 186.95C93.9999 187.21 93.9899 187.34 94.2499 187.61C95.2999 188.72 96.0499 190.08 96.4599 191.55H114.6C114.58 189.95 115.67 188.56 117.22 188.19C116.97 188.01 116.59 187.98 116.41 187.68L116.32 187.61C115.49 187.14 114.89 186.34 114.67 185.41C114.25 183.59 115.39 181.77 117.22 181.35C116.98 181.11 116.57 181.13 116.41 180.79L116.29 180.67C114.88 180.03 114.18 178.01 114.88 176.43C115.42 175.09 116.75 174.25 118.19 174.32H126.63V147.87C126.63 145.71 125.2 144.27 123.03 144.27L123.04 144.28ZM111.99 149.38C111.99 148.827 112.263 148.55 112.81 148.55C113.71 148.55 113.71 148.58 113.71 149.44C113.71 150.3 113.71 150.31 112.83 150.31C111.83 150.31 111.99 150.4 111.99 149.38ZM119.34 153.76H116.26C114.99 153.76 113.72 153.75 112.45 153.76C112.11 153.76 111.99 153.67 111.99 153.31C111.99 151.98 111.97 151.98 113.28 151.98H120.17C120.53 151.98 120.65 152.07 120.65 152.45C120.65 153.75 120.66 153.75 119.34 153.75V153.76ZM121.86 150.34H115.93C115.57 150.34 115.42 150.24 115.42 149.83C115.44 148.56 115.42 148.56 116.66 148.56H119.33C120.47 148.56 121.61 148.56 122.74 148.57C123.05 148.57 123.18 148.64 123.18 148.99C123.2 150.35 123.21 150.35 121.87 150.35L121.86 150.34Z" fill="#009245"/>
<path d="M103.04 155.67V155.73C102.97 155.74 102.98 155.8 102.98 155.85C102.97 155.99 102.96 156.12 102.94 156.26C102.8 157.19 102.53 158.08 102.07 158.91C101.68 159.62 101.18 160.28 100.59 160.84C99.9699 161.44 99.2399 161.93 98.4599 162.29C97.7999 162.6 97.1099 162.8 96.3899 162.91C96.1699 162.94 95.9499 162.97 95.7399 163H94.7099C94.5399 162.95 94.3499 162.96 94.1699 162.93C93.1499 162.78 92.1599 162.44 91.2599 161.91C90.5299 161.48 89.8699 160.94 89.3199 160.3C88.7899 159.68 88.3499 158.98 88.0399 158.23C87.7599 157.56 87.5699 156.86 87.4799 156.14C87.4599 155.99 87.4799 155.84 87.4299 155.69V154.72C87.4299 154.72 87.4599 154.63 87.4599 154.58C87.4599 154.36 87.4899 154.14 87.5399 153.92C87.6799 153.06 87.9699 152.23 88.3899 151.47C88.7799 150.77 89.2799 150.13 89.8599 149.57C91.5299 147.96 93.8399 147.2 96.1399 147.48C97.0099 147.58 97.8599 147.83 98.6499 148.22C100.36 149.07 101.71 150.51 102.44 152.28C102.7 152.92 102.88 153.6 102.96 154.29C103 154.7 103.02 155.11 103.02 155.52C103.02 155.57 103 155.63 103.05 155.68L103.04 155.67ZM96.5399 161.92C96.8499 161.89 97.1399 161.79 97.4299 161.7C100.66 160.62 102.64 157.19 101.92 153.85C101.39 151.42 99.9299 149.74 97.6299 148.81C97.2799 148.67 96.9199 148.55 96.5399 148.51C96.4899 148.47 96.4199 148.47 96.3599 148.46C95.7899 148.37 95.2199 148.34 94.6499 148.39C93.5699 148.48 92.5499 148.78 91.6499 149.37C89.2299 150.95 88.1299 153.2 88.4399 156.08C88.6499 158.03 89.6299 159.59 91.2099 160.75C92.5199 161.71 94.0099 162.12 95.6299 162.05C95.9399 162.04 96.2499 162.02 96.5499 161.91L96.5399 161.92Z" fill="#D9D9EA"/>
<path d="M96.5401 161.91C96.2401 162.01 95.9301 162.03 95.6201 162.05C94.0001 162.12 92.5201 161.72 91.2001 160.75C89.6201 159.59 88.6501 158.03 88.4301 156.08C88.1101 153.2 89.2201 150.96 91.6401 149.37C92.5401 148.78 93.5601 148.48 94.6401 148.39C95.2101 148.34 95.7901 148.36 96.3501 148.46C96.4101 148.47 96.4801 148.47 96.5301 148.51C96.5701 148.54 96.6101 148.57 96.6601 148.58C97.8601 148.94 98.8201 149.65 99.5901 150.62C99.9401 151.07 100.24 151.57 100.47 152.09C100.85 152.97 101.07 153.91 101.11 154.86C101.13 155.37 101.11 155.87 101.03 156.37C100.92 157.14 100.7 157.88 100.35 158.58C99.9801 159.34 99.4801 160.02 98.8501 160.6C98.3401 161.07 97.7401 161.44 97.1001 161.7C96.9101 161.78 96.7101 161.8 96.5301 161.92L96.5401 161.91ZM90.2501 155.21C90.2501 157.95 92.4701 160.17 95.2201 160.17C97.9701 160.17 100.18 157.95 100.18 155.2C100.18 152.46 97.9601 150.24 95.2201 150.24C92.4801 150.24 90.2601 152.44 90.2501 155.18C90.2501 155.18 90.2501 155.2 90.2501 155.21Z" fill="#57575E"/>
<path d="M96.54 161.91C96.71 161.8 96.92 161.77 97.1 161.69C97.74 161.43 98.33 161.06 98.85 160.59C99.49 160.02 99.98 159.34 100.35 158.57C100.69 157.87 100.92 157.13 101.03 156.36C101.11 155.86 101.13 155.35 101.11 154.85C101.07 153.89 100.85 152.95 100.47 152.08C100.24 151.56 99.95 151.06 99.59 150.61C98.82 149.63 97.87 148.93 96.66 148.57C96.61 148.56 96.57 148.53 96.53 148.5C96.91 148.53 97.27 148.65 97.62 148.8C99.92 149.74 101.38 151.41 101.91 153.84C102.63 157.17 100.65 160.6 97.42 161.69C97.13 161.79 96.84 161.89 96.53 161.91H96.54Z" fill="#434348"/>
<path d="M90.25 155.21C90.25 152.47 92.47 150.24 95.21 150.24C97.95 150.24 100.18 152.46 100.18 155.2C100.18 157.94 97.96 160.17 95.22 160.17C92.49 160.17 90.26 157.96 90.26 155.23C90.26 155.23 90.26 155.22 90.26 155.21H90.25ZM95.22 152.13C94.47 152.13 93.73 152.14 92.98 152.13C92.72 152.13 92.52 152.18 92.35 152.38C92.3 152.43 92.26 152.49 92.21 152.54C91.43 153.42 91.09 154.46 91.2 155.63C91.3 156.64 91.73 157.49 92.48 158.18C92.56 158.26 92.67 158.31 92.79 158.31C94.34 158.31 95.88 158.3 97.43 158.31C97.71 158.31 97.93 158.24 98.1 158.03C98.14 157.98 98.19 157.93 98.23 157.88C99.06 156.92 99.37 155.81 99.18 154.56C99.05 153.73 98.67 153.02 98.1 152.41C97.94 152.24 97.77 152.13 97.5 152.13C96.74 152.15 95.98 152.13 95.22 152.13Z" fill="#3392F6"/>
<path d="M95.22 152.13C95.98 152.13 96.74 152.15 97.5 152.13C97.77 152.13 97.94 152.23 98.1 152.41C98.67 153.02 99.06 153.73 99.18 154.56C99.37 155.81 99.06 156.92 98.23 157.88C98.19 157.93 98.14 157.98 98.1 158.03C97.92 158.24 97.71 158.31 97.43 158.31C95.88 158.29 94.34 158.31 92.79 158.31C92.67 158.31 92.56 158.27 92.48 158.18C91.73 157.49 91.3 156.63 91.2 155.63C91.09 154.47 91.42 153.43 92.21 152.54C92.26 152.49 92.31 152.44 92.35 152.38C92.51 152.18 92.72 152.13 92.98 152.13C93.72 152.15 94.47 152.13 95.21 152.13H95.22ZM97.38 155.21C97.34 153.99 96.44 153.05 95.22 153.06C94 153.06 93.08 154 93.08 155.2C93.08 156.42 94.01 157.36 95.25 157.35C96.45 157.35 97.34 156.42 97.39 155.21H97.38Z" fill="#48459C"/>
<path d="M97.3801 155.21C97.3401 156.42 96.4401 157.35 95.2401 157.35C94.0101 157.35 93.0701 156.42 93.0701 155.2C93.0701 153.99 93.9901 153.06 95.2101 153.06C96.4301 153.06 97.3301 153.99 97.3701 155.21H97.3801ZM95.2301 154C94.5601 154 94.0201 154.53 94.0201 155.2C94.0201 155.86 94.5301 156.37 95.2301 156.41C95.9101 156.39 96.4301 155.87 96.4401 155.21C96.4501 154.55 95.9201 154.02 95.2301 154Z" fill="#424248"/>
<path d="M95.2199 156.42C94.5199 156.39 93.9999 155.88 94.0099 155.21C94.0099 154.54 94.5499 154 95.2099 154C95.3199 154.06 95.3599 154.18 95.3799 154.29C95.5099 154.89 95.5099 155.52 95.3799 156.12C95.3599 156.23 95.3199 156.35 95.2099 156.41L95.2199 156.42Z" fill="#60ACFD"/>
<path d="M95.22 156.42C95.33 156.36 95.37 156.24 95.39 156.13C95.52 155.53 95.52 154.9 95.39 154.3C95.37 154.19 95.33 154.07 95.22 154.01C95.91 154.03 96.43 154.56 96.43 155.22C96.43 155.88 95.91 156.4 95.22 156.42Z" fill="#3392F5"/>
<path d="M106 203C130.853 203 151 182.853 151 158C151 133.147 130.853 113 106 113C81.1472 113 61 133.147 61 158C61 182.853 81.1472 203 106 203Z" stroke="#C000E2" stroke-width="4" stroke-miterlimit="10"/>
<path d="M75.4001 159.23L75.5501 161.3L70.2701 161.69L74.2901 163.75L74.3101 163.98L70.6301 166.61L75.9101 166.22L76.0601 168.3L66.9801 168.97L66.8301 166.89L70.6801 164.13L66.4701 161.96L66.3201 159.88L75.4001 159.21V159.23Z" fill="black"/>
<path d="M74.8301 154.76C74.9401 154.24 74.8301 153.75 74.6001 153.44L75.8001 152.1C76.5301 152.9 76.7801 153.94 76.5201 155.15C76.0601 157.32 74.3101 158.36 72.4201 157.96C70.5301 157.56 69.3501 155.88 69.7801 153.87C70.1701 152.01 71.9001 150.94 73.8201 151.35C74.0901 151.41 74.3401 151.48 74.5701 151.59L73.6201 156.1C74.3301 156 74.6801 155.46 74.8301 154.76ZM72.7601 153.1C71.9801 153.15 71.5901 153.66 71.4701 154.23C71.3201 154.95 71.5701 155.51 72.1801 155.83L72.7601 153.1Z" fill="black"/>
<path d="M71.86 141.56L80.07 145.49L79.23 147.25L78.68 146.99C78.94 147.59 78.94 148.29 78.56 149.08C77.83 150.62 75.87 151.24 74.13 150.4C72.38 149.56 71.64 147.65 72.38 146.12C72.76 145.34 73.3 144.89 73.93 144.72L71.03 143.33L71.87 141.57L71.86 141.56ZM76.29 145.84C75.41 145.42 74.58 145.74 74.19 146.55C73.8 147.36 74.07 148.21 74.95 148.63C75.83 149.05 76.66 148.73 77.05 147.92C77.44 147.11 77.17 146.26 76.29 145.84Z" fill="black"/>
<path d="M73.97 140.05C73.45 139.68 73.33 138.94 73.7 138.42C74.07 137.9 74.81 137.78 75.33 138.15C75.85 138.52 75.97 139.26 75.6 139.78C75.23 140.3 74.49 140.42 73.97 140.05ZM75.5 140.91L76.64 139.33L81.92 143.11L80.78 144.69L75.5 140.91Z" fill="black"/>
<path d="M82.68 132.86L87.22 137.51L85.82 138.87L85.39 138.43C85.43 139.08 85.18 139.74 84.56 140.35C83.34 141.54 81.29 141.45 79.94 140.06C78.59 138.67 78.55 136.62 79.77 135.43C80.39 134.82 81.06 134.59 81.71 134.64L81.28 134.2L82.68 132.84V132.86ZM83.55 136.55C82.87 135.85 81.98 135.87 81.33 136.49C80.69 137.12 80.65 138.01 81.33 138.71C82.01 139.41 82.9 139.39 83.55 138.76C84.19 138.13 84.23 137.24 83.55 136.55Z" fill="black"/>
<path d="M85.5801 132.84L89.8001 130.27L90.7701 131.87L86.5501 134.44L85.5801 132.84Z" fill="black"/>
<path d="M92.0601 132.12L93.4101 130.55C93.9601 131.16 94.6601 131.45 95.6301 131.12C96.5601 130.8 96.6701 130.35 96.5501 130.02C96.3701 129.49 95.8001 129.45 94.3901 129.54C92.9901 129.62 91.5201 129.44 90.9501 127.8C90.3801 126.14 91.4401 124.7 92.9301 124.18C94.3401 123.69 95.6801 123.98 96.7501 125.03L95.4301 126.57C94.9201 126.06 94.3901 125.82 93.6001 126.09C92.9901 126.3 92.7901 126.71 92.9001 127.06C93.0401 127.45 93.3401 127.65 94.8201 127.59C96.2601 127.53 97.8801 127.48 98.5101 129.3C99.0801 130.96 98.1001 132.4 96.2301 133.05C94.4201 133.68 92.9701 133.22 92.0501 132.12H92.0601Z" fill="black"/>
<path d="M98.47 123.72C98.36 123.09 98.8 122.48 99.43 122.37C100.06 122.26 100.67 122.7 100.78 123.33C100.89 123.96 100.45 124.57 99.82 124.68C99.19 124.79 98.58 124.35 98.47 123.72ZM98.95 125.41L100.87 125.09L101.95 131.5L100.03 131.82L98.95 125.41Z" fill="black"/>
<path d="M109.23 127.25V131.24H107.28V127.54C107.28 126.73 106.78 126.36 106.16 126.36C105.45 126.36 104.95 126.78 104.95 127.7V131.25H103V124.75H104.96V125.36C105.31 124.88 105.96 124.57 106.82 124.57C108.13 124.57 109.25 125.51 109.25 127.26L109.23 127.25Z" fill="black"/>
<path d="M118.1 126.62L116.61 132.61C116.08 134.73 114.21 135.21 112.53 134.8C111.22 134.47 110.24 133.71 109.92 132.53L111.77 132C111.9 132.5 112.18 132.95 113.01 133.15C113.89 133.37 114.55 133.05 114.77 132.15L114.92 131.57C114.37 131.98 113.69 132.14 112.87 131.93C111.08 131.48 110.13 129.69 110.56 127.95C110.99 126.21 112.67 125.07 114.46 125.52C115.28 125.72 115.81 126.18 116.1 126.8L116.26 126.16L118.1 126.62ZM115.5 129.19C115.72 128.32 115.23 127.57 114.34 127.35C113.44 127.13 112.67 127.56 112.45 128.43C112.23 129.3 112.72 130.05 113.61 130.27C114.51 130.49 115.28 130.06 115.5 129.19Z" fill="black"/>
<path d="M121.32 124.81L123.1 125.6L119.24 134.26L117.46 133.47L121.32 124.81Z" fill="black"/>
<path d="M123.88 135.16C124.32 135.45 124.82 135.53 125.19 135.44L125.99 137.05C124.97 137.43 123.92 137.28 122.89 136.6C121.04 135.37 120.72 133.36 121.79 131.75C122.86 130.14 124.86 129.67 126.57 130.8C128.15 131.85 128.51 133.85 127.42 135.49C127.27 135.72 127.1 135.92 126.92 136.1L123.08 133.55C122.91 134.25 123.28 134.77 123.88 135.17V135.16ZM126.18 133.85C126.42 133.11 126.09 132.56 125.6 132.23C124.98 131.82 124.37 131.85 123.85 132.3L126.18 133.84V133.85Z" fill="black"/>
<path d="M130.62 138.51C132.15 137.32 134.23 137.55 135.45 139.11C136.23 140.11 136.39 141.4 135.95 142.45L134.12 141.71C134.34 141.26 134.27 140.72 133.92 140.27C133.4 139.6 132.53 139.49 131.83 140.04C131.12 140.59 131.02 141.46 131.54 142.13C131.89 142.58 132.4 142.79 132.89 142.68L133.17 144.62C132.03 144.8 130.82 144.34 130.04 143.33C128.82 141.77 129.1 139.69 130.63 138.5L130.62 138.51Z" fill="black"/>
<path d="M140.79 148.99L134.9 151.74L134.08 149.97L134.63 149.71C134 149.53 133.46 149.08 133.09 148.29C132.37 146.75 133.13 144.84 134.89 144.02C136.65 143.2 138.59 143.84 139.32 145.38C139.69 146.17 139.69 146.87 139.42 147.47L139.97 147.21L140.8 148.98L140.79 148.99ZM137.02 148.6C137.9 148.19 138.18 147.34 137.8 146.53C137.42 145.72 136.59 145.39 135.71 145.8C134.83 146.21 134.55 147.06 134.93 147.87C135.31 148.68 136.14 149.01 137.02 148.6Z" fill="black"/>
<path d="M140.69 161.55L136.74 162.12L136.46 160.19L140.24 159.64C140.88 159.55 141.25 159.18 141.16 158.56C141.07 157.92 140.56 157.62 139.81 157.73L136.18 158.26L135.9 156.33L139.68 155.78C140.32 155.69 140.69 155.32 140.6 154.7C140.51 154.06 140 153.76 139.25 153.87L135.62 154.4L135.34 152.47L141.77 151.54L142.05 153.47L141.46 153.56C141.94 153.79 142.36 154.31 142.48 155.17C142.59 155.93 142.36 156.54 141.88 156.98C142.45 157.26 142.87 157.81 143 158.72C143.21 160.2 142.3 161.32 140.69 161.55Z" fill="black"/>
<path d="M137.55 166.39C137.47 166.92 137.61 167.4 137.86 167.7L136.75 169.12C135.97 168.36 135.65 167.34 135.83 166.12C136.15 163.92 137.83 162.77 139.74 163.05C141.66 163.33 142.93 164.93 142.64 166.96C142.37 168.84 140.71 170.02 138.77 169.73C138.5 169.69 138.25 169.63 138.01 169.54L138.67 164.97C137.97 165.12 137.65 165.68 137.55 166.38V166.39ZM139.72 167.91C140.5 167.81 140.85 167.27 140.93 166.69C141.04 165.96 140.75 165.42 140.12 165.14L139.72 167.91Z" fill="black"/>
<path d="M140.21 175.78L138.12 175.05C138.51 174.33 138.58 173.14 137.36 172.72L134.59 171.76L135.23 169.92L141.37 172.05L140.73 173.89L139.64 173.51C140.38 174.04 140.48 175 140.22 175.77L140.21 175.78Z" fill="black"/>
<path d="M136.2 182.96L130.57 179.7L131.55 178.01L132.08 178.32C131.87 177.7 131.93 177 132.37 176.25C133.22 174.78 135.22 174.31 136.9 175.28C138.58 176.25 139.17 178.22 138.31 179.69C137.87 180.44 137.29 180.85 136.65 180.97L137.18 181.28L136.2 182.97V182.96ZM134.37 179.64C135.21 180.13 136.07 179.87 136.52 179.1C136.97 178.32 136.77 177.46 135.92 176.97C135.07 176.48 134.22 176.74 133.77 177.51C133.32 178.29 133.52 179.16 134.37 179.64Z" fill="black"/>
<path d="M237 203C261.853 203 282 182.853 282 158C282 133.147 261.853 113 237 113C212.147 113 192 133.147 192 158C192 182.853 212.147 203 237 203Z" stroke="#C000E2" stroke-width="4" stroke-miterlimit="10"/>
<path d="M202.31 154.47C199.84 153.93 198.35 151.68 198.91 149.16C199.24 147.64 200.29 146.46 201.64 145.99L202.24 147.85C201.51 148.08 200.97 148.71 200.78 149.56C200.45 151.04 201.24 152.22 202.73 152.55C204.23 152.88 205.43 152.14 205.76 150.65C205.95 149.8 205.72 148.98 205.16 148.48L206.48 147.04C207.51 148.02 207.97 149.52 207.63 151.06C207.08 153.59 204.78 155 202.32 154.46L202.31 154.47Z" fill="black"/>
<path d="M205.66 145.97C204.03 145.15 203.41 143.23 204.22 141.62C205.03 140.01 206.93 139.35 208.57 140.16C210.2 140.98 210.82 142.9 210.01 144.51C209.2 146.12 207.3 146.78 205.66 145.97ZM207.74 141.8C206.96 141.41 206.17 141.7 205.82 142.41C205.46 143.12 205.7 143.93 206.48 144.32C207.26 144.71 208.05 144.42 208.4 143.71C208.76 143 208.52 142.19 207.74 141.8Z" fill="black"/>
<path d="M214.86 131.65L217.64 134.18L216.4 135.54L213.73 133.12C213.28 132.71 212.79 132.66 212.39 133.1C211.98 133.55 212.06 134.1 212.6 134.58L215.16 136.9L213.92 138.26L211.25 135.84C210.8 135.43 210.31 135.38 209.91 135.82C209.5 136.27 209.59 136.82 210.12 137.3L212.68 139.62L211.44 140.98L206.91 136.86L208.15 135.5L208.57 135.88C208.45 135.39 208.57 134.78 209.13 134.17C209.62 133.63 210.2 133.43 210.81 133.53C210.68 132.95 210.82 132.32 211.41 131.67C212.36 130.63 213.72 130.62 214.85 131.65H214.86Z" fill="black"/>
<path d="M220.02 125.59L223.29 130.77L221.74 131.75L221.43 131.26C221.39 131.82 221.03 132.4 220.35 132.83C219.31 133.49 217.94 133.31 217.06 131.91L215.05 128.73L216.6 127.75L218.46 130.7C218.87 131.34 219.46 131.39 219.96 131.07C220.53 130.71 220.71 130.13 220.25 129.39L218.46 126.56L220.01 125.58L220.02 125.59Z" fill="black"/>
<path d="M228.38 124.85L229.64 128.39L227.91 129.01L226.74 125.72C226.49 125 225.92 124.83 225.36 125.03C224.73 125.26 224.42 125.78 224.71 126.6L225.83 129.75L224.1 130.37L222.04 124.6L223.77 123.98L223.96 124.52C224.12 123.98 224.6 123.5 225.36 123.23C226.53 122.81 227.82 123.29 228.37 124.85H228.38Z" fill="black"/>
<path d="M229.04 120.7C228.93 120.11 229.34 119.53 229.93 119.42C230.52 119.31 231.11 119.72 231.21 120.31C231.32 120.9 230.91 121.49 230.32 121.59C229.73 121.7 229.15 121.3 229.04 120.7ZM229.52 122.28L231.33 121.95L232.43 127.98L230.62 128.31L229.52 122.28Z" fill="black"/>
<path d="M233.07 124.69C233.02 122.86 234.36 121.41 236.22 121.36C237.41 121.32 238.48 121.92 239.03 122.84L237.45 123.82C237.23 123.4 236.78 123.15 236.24 123.17C235.45 123.19 234.87 123.79 234.9 124.63C234.92 125.48 235.53 126.03 236.33 126.01C236.87 125.99 237.31 125.72 237.5 125.29L239.13 126.16C238.63 127.13 237.61 127.79 236.41 127.82C234.55 127.87 233.12 126.51 233.07 124.68V124.69Z" fill="black"/>
<path d="M246.65 122.68L245.56 128.71L243.75 128.38L243.85 127.81C243.37 128.2 242.73 128.37 241.92 128.22C240.34 127.93 239.29 126.31 239.62 124.51C239.95 122.71 241.5 121.56 243.08 121.85C243.89 122 244.43 122.38 244.74 122.91L244.84 122.34L246.65 122.67V122.68ZM244.29 125.36C244.46 124.46 243.95 123.78 243.12 123.63C242.29 123.48 241.58 123.94 241.42 124.84C241.25 125.74 241.75 126.42 242.59 126.57C243.42 126.72 244.13 126.26 244.29 125.36Z" fill="black"/>
<path d="M250.23 125.9L249.44 127.92C249.25 128.41 249.65 128.62 250.42 128.87L249.81 130.42C247.48 129.77 247.1 128.85 247.72 127.25L248.51 125.23L247.6 124.87L248.24 123.23L249.15 123.59L249.57 122.51L251.48 122.67L250.86 124.27L252.03 124.73L251.39 126.37L250.22 125.91L250.23 125.9Z" fill="black"/>
<path d="M253.41 125.41L255.03 126.28L252.13 131.68L250.51 130.81L253.41 125.41ZM254.03 123.88C254.31 123.35 254.99 123.15 255.52 123.43C256.05 123.71 256.25 124.39 255.97 124.92C255.69 125.45 255.01 125.65 254.48 125.37C253.95 125.09 253.74 124.41 254.03 123.88Z" fill="black"/>
<path d="M254.74 129.49C255.85 128.04 257.86 127.8 259.29 128.9C260.72 130 261.01 132 259.9 133.45C258.79 134.9 256.78 135.14 255.35 134.04C253.92 132.94 253.63 130.94 254.74 129.49ZM258.43 132.33C258.96 131.64 258.83 130.81 258.19 130.32C257.55 129.83 256.72 129.92 256.19 130.61C255.66 131.3 255.8 132.13 256.43 132.62C257.06 133.11 257.9 133.02 258.43 132.33Z" fill="black"/>
<path d="M265.1 138.44L262.21 140.85L261.03 139.44L263.71 137.2C264.3 136.71 264.26 136.12 263.88 135.67C263.45 135.15 262.85 135.05 262.18 135.6L259.61 137.74L258.43 136.33L263.14 132.4L264.32 133.81L263.88 134.18C264.44 134.14 265.06 134.43 265.58 135.05C266.37 136 266.37 137.38 265.1 138.44Z" fill="black"/>
<path d="M267.69 145.38C266.02 146.25 264.47 145.4 263.7 143.94C263.1 142.79 263.06 141.48 263.94 140.43L265.59 141.47C265.18 141.9 265.05 142.39 265.39 143.05C265.77 143.77 266.31 143.88 266.78 143.64C267.25 143.4 267.46 142.88 267.09 142.17L266.9 141.81L267.54 140.63L270.01 141.09L268.56 138.31L270.19 137.46L272.74 142.34L271.33 143.08L268.97 142.64C269.13 143.74 268.74 144.82 267.69 145.37V145.38Z" fill="black"/>
<path d="M271.5 154.53C268.95 155.12 266.98 153.7 266.44 151.36C265.83 148.73 267.33 146.4 269.73 145.84C272.15 145.28 274.53 146.75 275.1 149.21C275.47 150.81 274.99 152.34 274.04 153.3L272.73 151.89C273.2 151.42 273.45 150.56 273.24 149.62C272.91 148.21 271.63 147.4 270.16 147.74C268.74 148.07 267.93 149.31 268.31 150.94C268.57 152.05 269.23 152.66 270.1 152.78L269.58 150.55L271.25 150.16L272.22 154.35L271.5 154.52V154.53Z" fill="black"/>
<path d="M249.84 146C241.38 145.84 231.99 145.8 223.52 146.09C208.76 147.96 201.56 167.02 211.93 177.93C214.09 181.26 210.29 187.4 214.23 189.75C217.48 190.75 219.38 186.37 221.67 184.69C230.85 183.65 241.92 185.18 251.48 184.24C273.58 181.32 272.2 147.02 249.84 146Z" fill="#009245"/>
<path d="M229.98 163.26C231.12 163.62 232.04 164.23 232.73 165.09C233.42 165.95 233.77 167 233.77 168.22C233.77 170.14 233.14 171.62 231.88 172.65C230.62 173.69 229.07 174.2 227.22 174.2C225.74 174.2 224.43 173.86 223.28 173.18C222.13 172.5 221.3 171.5 220.79 170.17L224.77 167.9C225.14 169.14 225.96 169.76 227.22 169.76C227.87 169.76 228.36 169.61 228.71 169.3C229.06 168.99 229.23 168.59 229.23 168.08C229.23 167.57 229.06 167.17 228.71 166.87C228.36 166.57 227.87 166.42 227.22 166.42H226.25L224.49 163.82L227.34 160.33H221.35V155.97H232.94V159.56L229.96 163.23L229.98 163.26Z" fill="black"/>
<path d="M253.55 163.62V165.43C253.55 168.05 252.73 170.17 251.09 171.79C249.45 173.41 247.32 174.22 244.71 174.22C241.92 174.22 239.63 173.33 237.84 171.55C236.05 169.77 235.15 167.57 235.15 164.95C235.15 162.33 236.04 160.13 237.83 158.33C239.61 156.53 241.82 155.63 244.45 155.63C246.12 155.63 247.64 156 249.02 156.75C250.4 157.5 251.49 158.49 252.27 159.73L248.4 161.95C248.04 161.39 247.52 160.94 246.83 160.6C246.14 160.26 245.36 160.09 244.5 160.09C243.09 160.09 241.93 160.55 241.03 161.47C240.13 162.39 239.68 163.56 239.68 164.99C239.68 166.42 240.13 167.53 241.02 168.48C241.91 169.43 243.16 169.91 244.78 169.91C246.85 169.91 248.22 169.13 248.88 167.57H244.55V163.65H253.55V163.62Z" fill="black"/>
<path d="M368 203C392.853 203 413 182.853 413 158C413 133.147 392.853 113 368 113C343.147 113 323 133.147 323 158C323 182.853 343.147 203 368 203Z" stroke="#C000E2" stroke-width="4" stroke-miterlimit="10"/>
<path d="M334.61 142.37C336.48 143.07 337.42 145.13 336.7 147.07L336.15 148.55L339.24 149.7L338.4 151.95L328.57 148.28L329.96 144.56C330.68 142.62 332.75 141.68 334.62 142.38L334.61 142.37ZM333.77 144.62C333.05 144.35 332.32 144.65 332.06 145.34L331.51 146.82L334.04 147.76L334.59 146.29C334.85 145.6 334.49 144.89 333.77 144.62Z" fill="black"/>
<path d="M341.85 135.86L345.58 138.56L344.26 140.38L340.8 137.87C340.05 137.33 339.35 137.54 338.93 138.13C338.45 138.8 338.5 139.54 339.37 140.17L342.69 142.57L341.37 144.39L332.86 138.24L334.18 136.42L337.18 138.59C336.97 137.94 337.12 137.12 337.7 136.32C338.59 135.09 340.22 134.68 341.86 135.87L341.85 135.86Z" fill="black"/>
<path d="M343.57 135.23C342.17 133.49 342.47 131.03 344.19 129.65C345.91 128.27 348.37 128.51 349.77 130.25C351.17 131.99 350.87 134.45 349.15 135.83C347.43 137.21 344.97 136.97 343.57 135.23ZM348.02 131.66C347.35 130.83 346.33 130.75 345.56 131.36C344.8 131.97 344.66 132.99 345.32 133.82C345.99 134.65 347.01 134.73 347.78 134.12C348.54 133.51 348.68 132.49 348.02 131.66Z" fill="black"/>
<path d="M357.44 125.8L359.28 130.02L357.22 130.92L355.51 127C355.14 126.15 354.43 125.98 353.77 126.27C353.01 126.6 352.68 127.27 353.11 128.24L354.75 131.99L352.69 132.89L349.69 126.01L351.75 125.11L352.03 125.76C352.18 125.09 352.72 124.46 353.63 124.06C355.02 123.45 356.63 123.93 357.44 125.79V125.8Z" fill="black"/>
<path d="M363.64 127.46C364.25 127.37 364.73 127.06 364.98 126.69L366.91 127.45C366.33 128.57 365.31 129.25 363.9 129.45C361.36 129.82 359.54 128.35 359.21 126.14C358.88 123.93 360.24 121.99 362.58 121.64C364.75 121.32 366.59 122.76 366.92 125C366.97 125.31 366.98 125.61 366.96 125.9L361.69 126.67C362.09 127.4 362.81 127.57 363.62 127.45L363.64 127.46ZM364.61 124.56C364.25 123.73 363.53 123.52 362.87 123.62C362.02 123.74 361.52 124.24 361.42 125.03L364.61 124.56Z" fill="black"/>
<path d="M368.81 123.28L374.48 123.86L374.26 126.01L368.59 125.43L368.81 123.28Z" fill="black"/>
<path d="M383.87 128.81C383.09 130.91 380.98 131.96 379.13 131.28C378.19 130.93 377.62 130.35 377.35 129.65L377.11 130.31L375 129.53L378.64 119.68L380.75 120.46L379.46 123.94C380.12 123.58 380.93 123.51 381.88 123.86C383.72 124.54 384.64 126.72 383.87 128.82V128.81ZM381.76 128.03C382.15 126.98 381.69 126.05 380.72 125.69C379.75 125.33 378.8 125.73 378.41 126.79C378.02 127.85 378.48 128.77 379.45 129.13C380.42 129.49 381.37 129.09 381.76 128.03Z" fill="black"/>
<path d="M384.98 129.45C386.3 127.65 388.75 127.3 390.53 128.61C392.31 129.92 392.71 132.35 391.39 134.15C390.07 135.95 387.62 136.3 385.85 134.99C384.07 133.69 383.67 131.25 384.99 129.45H384.98ZM389.58 132.82C390.21 131.96 390.02 130.95 389.24 130.37C388.45 129.79 387.43 129.92 386.8 130.78C386.17 131.64 386.36 132.65 387.14 133.23C387.93 133.81 388.95 133.68 389.58 132.82Z" fill="black"/>
<path d="M402.59 137.2L394.31 143.66L392.93 141.89L393.49 141.46C392.74 141.42 392.01 141.05 391.39 140.26C390.18 138.71 390.55 136.37 392.31 135C394.07 133.63 396.43 133.84 397.63 135.39C398.25 136.18 398.43 136.97 398.28 137.72L401.2 135.44L402.58 137.21L402.59 137.2ZM395.88 139.58C396.77 138.89 396.86 137.86 396.23 137.05C395.59 136.23 394.58 136.08 393.69 136.77C392.8 137.46 392.71 138.49 393.34 139.3C393.98 140.12 394.99 140.27 395.88 139.58Z" fill="black"/>
<path d="M404.45 148.22L396.75 148.7C394.23 148.86 392.83 148 392.11 146.02L394.04 145.2C394.45 146.17 394.95 146.49 395.92 146.44L401.35 140.9L402.31 143.18L398.73 146.51L403.51 146.02L404.45 148.23V148.22Z" fill="black"/>
<path d="M399.15 150.63L403.32 153.53C404.04 154.04 404.72 154.38 405.33 154.29C405.98 154.19 406.36 153.7 406.25 153C406.13 152.27 405.58 151.83 404.88 151.65L405.73 149.46C407.38 149.88 408.33 151.16 408.56 152.59C408.86 154.44 407.91 156.3 405.82 156.63C404.58 156.83 403.4 156.33 402.3 155.54L400.29 154.1L400.85 157.58L398.57 157.95L397.44 150.9L399.16 150.62L399.15 150.63Z" fill="black"/>
<path d="M373.42 142.21C375.45 142.21 377.48 142.17 379.5 142.21C381.19 142.24 382.77 143.8 382.9 145.5C382.92 145.73 382.92 145.97 382.92 146.2V186.92C382.92 188.8 382 190.15 380.39 190.71C380.02 190.84 379.64 190.9 379.25 190.9H356.61C354.58 190.89 352.94 189.24 352.93 187.21C352.93 185.87 352.94 184.52 352.95 183.18H354.8C354.8 183.18 354.84 183.18 354.86 183.18C354.85 184.51 354.79 185.84 354.84 187.16C354.89 188.33 355.67 189.04 356.81 189.05C364.22 189.05 371.64 189.05 379.05 189.05C380.23 189.05 381.02 188.24 381.02 187.05V146.08C381.02 144.92 380.24 144.12 379.09 144.1C377.59 144.08 376.09 144.1 374.59 144.11L374.47 144.07C374.39 143.29 373.82 142.81 373.42 142.22V142.21Z" fill="#636363"/>
<path d="M373.42 142.21C373.81 142.8 374.39 143.28 374.47 144.05C374.24 144.05 374 144.07 373.77 144.07H357.22C355.5 144.07 354.83 144.74 354.83 146.49V182.41C354.83 182.66 354.82 182.92 354.81 183.17H352.96C352.96 170.86 352.96 158.55 352.96 146.24C352.96 144.52 353.68 143.24 355.26 142.5C355.65 142.31 356.08 142.21 356.51 142.21C362.15 142.21 367.78 142.21 373.42 142.21Z" fill="#727272"/>
<path d="M354.8 183.17C354.8 182.92 354.82 182.66 354.82 182.41V146.49C354.82 144.75 355.49 144.07 357.21 144.07H373.77C374 144.07 374.24 144.06 374.47 144.05L374.59 144.09V180.08C374.59 181.83 373.3 183.16 371.55 183.17C365.99 183.17 360.43 183.17 354.87 183.17C354.85 183.17 354.83 183.17 354.8 183.17ZM367.91 149.68H371.53C372.67 149.68 373.51 148.9 373.52 147.84C373.53 146.76 372.68 145.94 371.52 145.94H364.27C363.13 145.94 362.29 146.72 362.28 147.78C362.27 148.87 363.11 149.67 364.28 149.68C365.49 149.68 366.7 149.68 367.91 149.68ZM363.69 172.63C363.93 172.59 364.16 172.48 364.33 172.3L373.51 163.12C373.74 162.89 373.88 162.63 373.81 162.28C373.74 161.93 373.58 161.65 373.22 161.55C372.84 161.43 372.42 161.55 372.17 161.86C369.14 164.9 366.11 167.94 363.07 170.97C363 171.04 362.93 171.11 362.87 171.18C362.66 171.45 362.63 171.82 362.8 172.11C362.98 172.44 363.32 172.64 363.7 172.63H363.69ZM369.43 161.55C369.41 161.16 369.16 160.82 368.8 160.67C368.32 160.45 367.96 160.72 367.66 161.02C365.83 162.83 364.01 164.65 362.2 166.48C361.73 166.95 361.71 167.54 362.12 167.93C362.53 168.32 363.07 168.28 363.53 167.83C365.39 165.99 367.24 164.14 369.08 162.29C369.29 162.1 369.43 161.84 369.45 161.56L369.43 161.55Z" fill="#2DBAFE"/>
<path d="M354.86 183.16C360.42 183.16 365.98 183.17 371.54 183.16C373.29 183.16 374.58 181.82 374.58 180.07V144.08C376.08 144.08 377.58 144.05 379.08 144.07C380.24 144.08 381.01 144.89 381.01 146.05V187.02C381.01 188.21 380.22 189.02 379.04 189.02C371.63 189.02 364.21 189.02 356.8 189.02C355.67 189.02 354.88 188.31 354.83 187.13C354.78 185.81 354.83 184.48 354.85 183.16H354.86ZM367.91 186.21H362.53C361.78 186.21 361.36 186.54 361.35 187.13C361.34 187.72 361.76 188.08 362.5 188.08H373.32C374.05 188.08 374.48 187.72 374.47 187.13C374.46 186.54 374.04 186.21 373.29 186.21C371.49 186.21 369.7 186.21 367.91 186.21Z" fill="#0AAFFE"/>
<path d="M367.92 149.69H364.3C363.13 149.69 362.29 148.88 362.3 147.79C362.31 146.73 363.15 145.95 364.29 145.95C366.71 145.95 369.12 145.95 371.54 145.95C372.7 145.95 373.55 146.77 373.54 147.85C373.53 148.91 372.69 149.69 371.55 149.69C370.34 149.69 369.13 149.69 367.93 149.69H367.92Z" fill="#6F7070"/>
<path d="M363.7 172.64C363.33 172.64 362.99 172.44 362.81 172.11C362.64 171.82 362.66 171.45 362.88 171.18C362.94 171.1 363.01 171.03 363.08 170.97C366.12 167.93 369.15 164.9 372.17 161.86C372.43 161.55 372.84 161.43 373.22 161.55C373.58 161.65 373.73 161.94 373.81 162.28C373.89 162.62 373.74 162.89 373.51 163.12L364.33 172.31C364.16 172.49 363.94 172.6 363.69 172.64H363.7Z" fill="#93DBFE"/>
<path d="M367.92 186.22H373.3C374.05 186.22 374.47 186.55 374.48 187.14C374.49 187.73 374.07 188.09 373.33 188.09H362.51C361.78 188.09 361.36 187.73 361.36 187.14C361.36 186.55 361.79 186.22 362.54 186.22C364.33 186.22 366.12 186.22 367.92 186.22Z" fill="#626363"/>
<path d="M358.42 180.32V175.51L367 166.44C367.86 165.5 368.49 164.74 368.89 164.17C369.29 163.6 369.48 163.02 369.48 162.45C369.48 161.81 369.28 161.29 368.87 160.9C368.46 160.51 367.9 160.31 367.19 160.31C365.66 160.31 364.5 161.21 363.71 163.01L358.01 159.83C358.85 157.88 360.08 156.4 361.71 155.39C363.34 154.38 365.14 153.87 367.11 153.87C369.58 153.87 371.69 154.6 373.46 156.07C375.22 157.54 376.11 159.54 376.11 162.08C376.11 163.58 375.76 164.97 375.05 166.24C374.35 167.51 373.32 168.85 371.96 170.25L368.44 173.92H376.55V180.32H358.42Z" fill="black"/>
</svg>
