<svg width="518" height="208" viewBox="0 0 518 208" fill="none" xmlns="http://www.w3.org/2000/svg">
<path d="M14.9793 35.1C14.2193 35.1 13.5793 34.84 13.0593 34.32C12.5526 33.8 12.2993 33.1533 12.2993 32.38C12.2993 31.6067 12.5526 30.9667 13.0593 30.46C13.5793 29.9533 14.2193 29.7 14.9793 29.7C15.7526 29.7 16.3993 29.9533 16.9193 30.46C17.4393 30.9667 17.6993 31.6067 17.6993 32.38C17.6993 33.1533 17.4393 33.8 16.9193 34.32C16.3993 34.84 15.7526 35.1 14.9793 35.1ZM36.44 23.76C37.3467 23.76 38.18 23.9867 38.94 24.44C39.7133 24.88 40.32 25.4867 40.76 26.26C41.2133 27.02 41.44 27.8533 41.44 28.76C41.44 29.6667 41.2133 30.5067 40.76 31.28C40.32 32.04 39.7133 32.6467 38.94 33.1C38.18 33.54 37.3467 33.76 36.44 33.76H34.1V38H31.06V23.76H36.44ZM36.24 30.98C36.8267 30.98 37.3333 30.7667 37.76 30.34C38.2 29.9 38.42 29.3733 38.42 28.76C38.42 28.16 38.2 27.64 37.76 27.2C37.3333 26.76 36.8267 26.54 36.24 26.54H34.1V30.98H36.24ZM48.4913 27.44C49.3046 27.44 50.0379 27.6533 50.6913 28.08C51.3579 28.5067 51.8779 29.08 52.2513 29.8C52.6246 30.52 52.8113 31.3067 52.8113 32.16V38H49.7713V32.26C49.7713 31.7667 49.5913 31.34 49.2313 30.98C48.8846 30.62 48.4513 30.44 47.9313 30.44C47.4513 30.44 47.0313 30.62 46.6713 30.98C46.3113 31.34 46.1313 31.7667 46.1313 32.26V38H43.0913V23.16H46.1313V28.34C46.7979 27.74 47.5846 27.44 48.4913 27.44ZM59.7375 38.24C58.7108 38.24 57.7642 38 56.8975 37.52C56.0442 37.0267 55.3642 36.3667 54.8575 35.54C54.3642 34.7133 54.1175 33.8067 54.1175 32.82C54.1175 31.8467 54.3642 30.9467 54.8575 30.12C55.3642 29.2933 56.0442 28.64 56.8975 28.16C57.7642 27.68 58.7108 27.44 59.7375 27.44C60.7508 27.44 61.6775 27.68 62.5175 28.16C63.3708 28.64 64.0442 29.2933 64.5375 30.12C65.0442 30.9467 65.2975 31.8467 65.2975 32.82C65.2975 33.8067 65.0442 34.7133 64.5375 35.54C64.0442 36.3667 63.3708 37.0267 62.5175 37.52C61.6775 38 60.7508 38.24 59.7375 38.24ZM59.7175 35.4C60.4242 35.4 61.0242 35.1533 61.5175 34.66C62.0242 34.1667 62.2775 33.56 62.2775 32.84C62.2775 32.12 62.0242 31.5133 61.5175 31.02C61.0242 30.5133 60.4242 30.26 59.7175 30.26C58.9975 30.26 58.3908 30.5133 57.8975 31.02C57.4042 31.5133 57.1575 32.12 57.1575 32.84C57.1575 33.56 57.4042 34.1667 57.8975 34.66C58.3908 35.1533 58.9975 35.4 59.7175 35.4ZM72.2561 27.44C73.0694 27.44 73.8028 27.6533 74.4561 28.08C75.1228 28.5067 75.6428 29.08 76.0161 29.8C76.3894 30.52 76.5761 31.3067 76.5761 32.16V38H73.5361V32.24C73.5361 31.7467 73.3561 31.32 72.9961 30.96C72.6494 30.6 72.2161 30.42 71.6961 30.42C71.2161 30.42 70.7961 30.6 70.4361 30.96C70.0761 31.32 69.8961 31.7467 69.8961 32.24V38H66.8561V27.68H69.3761V28.92C69.7228 28.4533 70.1361 28.0933 70.6161 27.84C71.1094 27.5733 71.6561 27.44 72.2561 27.44ZM88.5075 32.82C88.5075 33.2867 88.4808 33.6733 88.4275 33.98H80.7675C80.9808 34.5133 81.3142 34.9467 81.7675 35.28C82.2208 35.6133 82.7608 35.78 83.3875 35.78C84.3608 35.78 85.1408 35.4333 85.7275 34.74L87.9275 35.9C87.4342 36.6467 86.7875 37.2267 85.9875 37.64C85.1875 38.04 84.3075 38.24 83.3475 38.24C82.3742 38.24 81.4742 37.9933 80.6475 37.5C79.8208 37.0067 79.1608 36.3467 78.6675 35.52C78.1875 34.6933 77.9475 33.7933 77.9475 32.82C77.9475 31.86 78.1875 30.9667 78.6675 30.14C79.1608 29.3133 79.8208 28.66 80.6475 28.18C81.4742 27.6867 82.3742 27.44 83.3475 27.44C84.3475 27.44 85.2342 27.68 86.0075 28.16C86.7942 28.64 87.4075 29.2933 87.8475 30.12C88.2875 30.9467 88.5075 31.8467 88.5075 32.82ZM83.3875 29.98C82.8142 29.98 82.2942 30.1333 81.8275 30.44C81.3742 30.7467 81.0342 31.1467 80.8075 31.64H85.9675C85.7408 31.1467 85.3942 30.7467 84.9275 30.44C84.4742 30.1333 83.9608 29.98 83.3875 29.98ZM99.7395 23.76C100.486 23.76 101.18 23.9467 101.82 24.32C102.46 24.68 102.966 25.18 103.34 25.82C103.713 26.46 103.9 27.1533 103.9 27.9C103.9 28.46 103.78 28.9667 103.54 29.42C103.313 29.86 103 30.22 102.6 30.5C103.186 30.78 103.646 31.1867 103.98 31.72C104.326 32.2533 104.5 32.88 104.5 33.6C104.5 34.4 104.3 35.14 103.9 35.82C103.5 36.4867 102.96 37.02 102.28 37.42C101.613 37.8067 100.88 38 100.08 38H93.7595V23.76H99.7395ZM99.4795 29.3C99.8662 29.3 100.193 29.1667 100.46 28.9C100.726 28.62 100.86 28.2867 100.86 27.9C100.86 27.5267 100.72 27.2067 100.44 26.94C100.173 26.6733 99.8529 26.54 99.4795 26.54H96.7995V29.3H99.4795ZM99.9195 35.14C100.346 35.14 100.706 34.9933 101 34.7C101.306 34.3933 101.46 34.0267 101.46 33.6C101.46 33.2 101.306 32.8467 101 32.54C100.706 32.2333 100.346 32.08 99.9195 32.08H96.7995V35.14H99.9195ZM111.495 38.24C110.469 38.24 109.522 38 108.655 37.52C107.802 37.0267 107.122 36.3667 106.615 35.54C106.122 34.7133 105.875 33.8067 105.875 32.82C105.875 31.8467 106.122 30.9467 106.615 30.12C107.122 29.2933 107.802 28.64 108.655 28.16C109.522 27.68 110.469 27.44 111.495 27.44C112.509 27.44 113.435 27.68 114.275 28.16C115.129 28.64 115.802 29.2933 116.295 30.12C116.802 30.9467 117.055 31.8467 117.055 32.82C117.055 33.8067 116.802 34.7133 116.295 35.54C115.802 36.3667 115.129 37.0267 114.275 37.52C113.435 38 112.509 38.24 111.495 38.24ZM111.475 35.4C112.182 35.4 112.782 35.1533 113.275 34.66C113.782 34.1667 114.035 33.56 114.035 32.84C114.035 32.12 113.782 31.5133 113.275 31.02C112.782 30.5133 112.182 30.26 111.475 30.26C110.755 30.26 110.149 30.5133 109.655 31.02C109.162 31.5133 108.915 32.12 108.915 32.84C108.915 33.56 109.162 34.1667 109.655 34.66C110.149 35.1533 110.755 35.4 111.475 35.4ZM129.634 23.16V38H127.114V36.62C126.341 37.7 125.254 38.24 123.854 38.24C122.867 38.24 121.961 37.9933 121.134 37.5C120.307 37.0067 119.647 36.3467 119.154 35.52C118.674 34.6933 118.434 33.7933 118.434 32.82C118.434 31.86 118.674 30.9667 119.154 30.14C119.647 29.3133 120.307 28.66 121.134 28.18C121.961 27.6867 122.867 27.44 123.854 27.44C124.961 27.44 125.874 27.78 126.594 28.46V23.16H129.634ZM124.034 35.4C124.741 35.4 125.341 35.1533 125.834 34.66C126.341 34.1667 126.594 33.56 126.594 32.84C126.594 32.12 126.341 31.5133 125.834 31.02C125.341 30.5133 124.741 30.26 124.034 30.26C123.327 30.26 122.721 30.5133 122.214 31.02C121.721 31.5133 121.474 32.12 121.474 32.84C121.474 33.56 121.721 34.1667 122.214 34.66C122.721 35.1533 123.327 35.4 124.034 35.4ZM141.529 27.68L137.909 39.36C137.643 40.3733 137.109 41.2 136.309 41.84C135.523 42.4933 134.603 42.82 133.549 42.82H131.469V39.92H133.329C133.729 39.92 134.076 39.8067 134.369 39.58C134.676 39.3667 134.889 39.0733 135.009 38.7L135.229 38H133.589L130.649 27.68H133.709L135.969 35.62L138.449 27.68H141.529ZM155.996 38L155.056 35.4H149.496L148.556 38H145.356L150.516 23.76H154.016L159.176 38H155.996ZM150.496 32.6H154.036L152.276 27.72L150.496 32.6ZM164.975 38.24C164.029 38.24 163.129 38.1067 162.275 37.84C161.435 37.56 160.689 37.1733 160.035 36.68L161.315 34.7C162.542 35.4067 163.762 35.76 164.975 35.76C165.522 35.76 165.909 35.7 166.135 35.58C166.375 35.4467 166.495 35.26 166.495 35.02C166.495 34.7933 166.375 34.6267 166.135 34.52C165.895 34.4 165.455 34.26 164.815 34.1C163.362 33.7667 162.302 33.3533 161.635 32.86C160.982 32.3533 160.655 31.64 160.655 30.72C160.655 29.7333 161.049 28.94 161.835 28.34C162.622 27.74 163.675 27.44 164.995 27.44C165.702 27.44 166.409 27.54 167.115 27.74C167.822 27.94 168.462 28.2067 169.035 28.54L167.995 30.66C166.942 30.18 165.942 29.94 164.995 29.94C164.595 29.94 164.269 30.0133 164.015 30.16C163.775 30.3067 163.655 30.5067 163.655 30.76C163.655 31.0267 163.775 31.2133 164.015 31.32C164.255 31.4267 164.709 31.5333 165.375 31.64C166.735 31.8933 167.762 32.2867 168.455 32.82C169.149 33.3533 169.495 34.0667 169.495 34.96C169.495 35.9733 169.089 36.7733 168.275 37.36C167.475 37.9467 166.375 38.24 164.975 38.24ZM175.737 38.24C174.791 38.24 173.891 38.1067 173.037 37.84C172.197 37.56 171.451 37.1733 170.797 36.68L172.077 34.7C173.304 35.4067 174.524 35.76 175.737 35.76C176.284 35.76 176.671 35.7 176.897 35.58C177.137 35.4467 177.257 35.26 177.257 35.02C177.257 34.7933 177.137 34.6267 176.897 34.52C176.657 34.4 176.217 34.26 175.577 34.1C174.124 33.7667 173.064 33.3533 172.397 32.86C171.744 32.3533 171.417 31.64 171.417 30.72C171.417 29.7333 171.811 28.94 172.597 28.34C173.384 27.74 174.437 27.44 175.757 27.44C176.464 27.44 177.171 27.54 177.877 27.74C178.584 27.94 179.224 28.2067 179.797 28.54L178.757 30.66C177.704 30.18 176.704 29.94 175.757 29.94C175.357 29.94 175.031 30.0133 174.777 30.16C174.537 30.3067 174.417 30.5067 174.417 30.76C174.417 31.0267 174.537 31.2133 174.777 31.32C175.017 31.4267 175.471 31.5333 176.137 31.64C177.497 31.8933 178.524 32.2867 179.217 32.82C179.911 33.3533 180.257 34.0667 180.257 34.96C180.257 35.9733 179.851 36.7733 179.037 37.36C178.237 37.9467 177.137 38.24 175.737 38.24ZM192.199 32.82C192.199 33.2867 192.172 33.6733 192.119 33.98H184.459C184.672 34.5133 185.006 34.9467 185.459 35.28C185.912 35.6133 186.452 35.78 187.079 35.78C188.052 35.78 188.832 35.4333 189.419 34.74L191.619 35.9C191.126 36.6467 190.479 37.2267 189.679 37.64C188.879 38.04 187.999 38.24 187.039 38.24C186.066 38.24 185.166 37.9933 184.339 37.5C183.512 37.0067 182.852 36.3467 182.359 35.52C181.879 34.6933 181.639 33.7933 181.639 32.82C181.639 31.86 181.879 30.9667 182.359 30.14C182.852 29.3133 183.512 28.66 184.339 28.18C185.166 27.6867 186.066 27.44 187.039 27.44C188.039 27.44 188.926 27.68 189.699 28.16C190.486 28.64 191.099 29.2933 191.539 30.12C191.979 30.9467 192.199 31.8467 192.199 32.82ZM187.079 29.98C186.506 29.98 185.986 30.1333 185.519 30.44C185.066 30.7467 184.726 31.1467 184.499 31.64H189.659C189.432 31.1467 189.086 30.7467 188.619 30.44C188.166 30.1333 187.652 29.98 187.079 29.98ZM204.913 27.44C205.673 27.44 206.36 27.64 206.973 28.04C207.587 28.4267 208.067 28.96 208.413 29.64C208.76 30.3067 208.933 31.04 208.933 31.84V38H205.893V31.98C205.893 31.5533 205.74 31.1867 205.433 30.88C205.14 30.5733 204.773 30.42 204.333 30.42C203.92 30.42 203.56 30.5733 203.253 30.88C202.947 31.1867 202.793 31.5533 202.793 31.98V38H199.773V31.98C199.773 31.5533 199.62 31.1867 199.313 30.88C199.007 30.5733 198.64 30.42 198.213 30.42C197.8 30.42 197.44 30.5733 197.133 30.88C196.827 31.1867 196.673 31.5533 196.673 31.98V38H193.633V27.68H196.153V28.72C196.847 27.8667 197.72 27.44 198.773 27.44C199.44 27.44 200.047 27.5933 200.593 27.9C201.153 28.2067 201.62 28.6267 201.993 29.16C202.313 28.64 202.72 28.2267 203.213 27.92C203.707 27.6 204.273 27.44 204.913 27.44ZM216.41 27.44C217.384 27.44 218.284 27.6867 219.11 28.18C219.937 28.66 220.59 29.3133 221.07 30.14C221.564 30.9667 221.81 31.86 221.81 32.82C221.81 33.7933 221.564 34.6933 221.07 35.52C220.59 36.3467 219.937 37.0067 219.11 37.5C218.284 37.9933 217.384 38.24 216.41 38.24C215.01 38.24 213.924 37.7 213.15 36.62V38H210.63V23.16H213.67V28.46C214.39 27.78 215.304 27.44 216.41 27.44ZM216.23 35.4C216.937 35.4 217.537 35.1533 218.03 34.66C218.537 34.1667 218.79 33.56 218.79 32.84C218.79 32.12 218.537 31.5133 218.03 31.02C217.537 30.5133 216.937 30.26 216.23 30.26C215.51 30.26 214.904 30.5133 214.41 31.02C213.917 31.5133 213.67 32.12 213.67 32.84C213.67 33.56 213.917 34.1667 214.41 34.66C214.904 35.1533 215.51 35.4 216.23 35.4ZM227.08 38C226.453 38 225.866 37.8467 225.32 37.54C224.786 37.2333 224.36 36.82 224.04 36.3C223.733 35.7667 223.58 35.18 223.58 34.54V23.18H226.6V34.72C226.6 34.8533 226.64 34.96 226.72 35.04C226.813 35.12 226.933 35.16 227.08 35.16H227.42V38H227.08ZM238.697 27.68L235.077 39.36C234.811 40.3733 234.277 41.2 233.477 41.84C232.691 42.4933 231.771 42.82 230.717 42.82H228.637V39.92H230.497C230.897 39.92 231.244 39.8067 231.537 39.58C231.844 39.3667 232.057 39.0733 232.177 38.7L232.397 38H230.757L227.817 27.68H230.877L233.137 35.62L235.617 27.68H238.697ZM14.9793 69.1C14.2193 69.1 13.5793 68.84 13.0593 68.32C12.5526 67.8 12.2993 67.1533 12.2993 66.38C12.2993 65.6067 12.5526 64.9667 13.0593 64.46C13.5793 63.9533 14.2193 63.7 14.9793 63.7C15.7526 63.7 16.3993 63.9533 16.9193 64.46C17.4393 64.9667 17.6993 65.6067 17.6993 66.38C17.6993 67.1533 17.4393 67.8 16.9193 68.32C16.3993 68.84 15.7526 69.1 14.9793 69.1ZM37.94 72.28C36.66 72.28 35.48 71.9467 34.4 71.28C33.32 70.6133 32.46 69.7133 31.82 68.58C31.1933 67.4467 30.88 66.2067 30.88 64.86C30.88 63.5267 31.1933 62.2933 31.82 61.16C32.46 60.0267 33.32 59.1267 34.4 58.46C35.48 57.7933 36.66 57.46 37.94 57.46C39.02 57.46 40.0267 57.7 40.96 58.18C41.9067 58.66 42.7067 59.3267 43.36 60.18C44.0267 61.02 44.4867 61.9733 44.74 63.04L42.14 63.4C41.86 62.4933 41.3467 61.7533 40.6 61.18C39.8667 60.6067 39.0467 60.32 38.14 60.32C37.38 60.32 36.6733 60.5267 36.02 60.94C35.38 61.34 34.8667 61.8867 34.48 62.58C34.1067 63.2733 33.92 64.0333 33.92 64.86C33.92 65.6867 34.1067 66.4533 34.48 67.16C34.8667 67.8533 35.38 68.4067 36.02 68.82C36.66 69.22 37.3667 69.42 38.14 69.42C39.0467 69.42 39.8667 69.1333 40.6 68.56C41.3467 67.9867 41.86 67.2467 42.14 66.34L44.74 66.66C44.4867 67.7267 44.0267 68.6867 43.36 69.54C42.7067 70.3933 41.9067 71.0667 40.96 71.56C40.0267 72.04 39.02 72.28 37.94 72.28ZM51.8273 72.24C50.8007 72.24 49.854 72 48.9873 71.52C48.134 71.0267 47.454 70.3667 46.9473 69.54C46.454 68.7133 46.2073 67.8067 46.2073 66.82C46.2073 65.8467 46.454 64.9467 46.9473 64.12C47.454 63.2933 48.134 62.64 48.9873 62.16C49.854 61.68 50.8007 61.44 51.8273 61.44C52.8407 61.44 53.7673 61.68 54.6073 62.16C55.4607 62.64 56.134 63.2933 56.6273 64.12C57.134 64.9467 57.3873 65.8467 57.3873 66.82C57.3873 67.8067 57.134 68.7133 56.6273 69.54C56.134 70.3667 55.4607 71.0267 54.6073 71.52C53.7673 72 52.8407 72.24 51.8273 72.24ZM51.8073 69.4C52.514 69.4 53.114 69.1533 53.6073 68.66C54.114 68.1667 54.3673 67.56 54.3673 66.84C54.3673 66.12 54.114 65.5133 53.6073 65.02C53.114 64.5133 52.514 64.26 51.8073 64.26C51.0873 64.26 50.4807 64.5133 49.9873 65.02C49.494 65.5133 49.2473 66.12 49.2473 66.84C49.2473 67.56 49.494 68.1667 49.9873 68.66C50.4807 69.1533 51.0873 69.4 51.8073 69.4ZM70.2259 61.44C70.9859 61.44 71.6726 61.64 72.2859 62.04C72.8993 62.4267 73.3793 62.96 73.7259 63.64C74.0726 64.3067 74.2459 65.04 74.2459 65.84V72H71.2059V65.98C71.2059 65.5533 71.0526 65.1867 70.7459 64.88C70.4526 64.5733 70.0859 64.42 69.6459 64.42C69.2326 64.42 68.8726 64.5733 68.5659 64.88C68.2593 65.1867 68.1059 65.5533 68.1059 65.98V72H65.0859V65.98C65.0859 65.5533 64.9326 65.1867 64.6259 64.88C64.3193 64.5733 63.9526 64.42 63.5259 64.42C63.1126 64.42 62.7526 64.5733 62.4459 64.88C62.1393 65.1867 61.9859 65.5533 61.9859 65.98V72H58.9459V61.68H61.4659V62.72C62.1593 61.8667 63.0326 61.44 64.0859 61.44C64.7526 61.44 65.3593 61.5933 65.9059 61.9C66.4659 62.2067 66.9326 62.6267 67.3059 63.16C67.6259 62.64 68.0326 62.2267 68.5259 61.92C69.0193 61.6 69.5859 61.44 70.2259 61.44ZM81.6628 61.44C82.6361 61.44 83.5361 61.6867 84.3628 62.18C85.1895 62.66 85.8428 63.3133 86.3228 64.14C86.8161 64.9667 87.0628 65.8667 87.0628 66.84C87.0628 67.8 86.8161 68.7 86.3228 69.54C85.8428 70.3667 85.1895 71.0267 84.3628 71.52C83.5361 72 82.6361 72.24 81.6628 72.24C80.5428 72.24 79.6228 71.8933 78.9028 71.2V75.9H75.8628V61.68H78.3828V63.06C79.1561 61.98 80.2495 61.44 81.6628 61.44ZM81.4628 69.42C81.9295 69.42 82.3561 69.3067 82.7428 69.08C83.1428 68.84 83.4561 68.5267 83.6828 68.14C83.9095 67.74 84.0228 67.3067 84.0228 66.84C84.0228 66.12 83.7695 65.5133 83.2628 65.02C82.7695 64.5133 82.1695 64.26 81.4628 64.26C80.7561 64.26 80.1495 64.5133 79.6428 65.02C79.1495 65.5133 78.9028 66.12 78.9028 66.84C78.9028 67.3067 79.0161 67.74 79.2428 68.14C79.4695 68.5267 79.7761 68.84 80.1628 69.08C80.5628 69.3067 80.9961 69.42 81.4628 69.42ZM98.0744 61.68V72H95.5744V70.76C95.2277 71.2267 94.8077 71.5933 94.3144 71.86C93.8344 72.1133 93.2877 72.24 92.6744 72.24C91.861 72.24 91.1277 72.0267 90.4744 71.6C89.821 71.1733 89.3077 70.6 88.9344 69.88C88.561 69.16 88.3744 68.3733 88.3744 67.52V61.68H91.3944V67.42C91.3944 67.9133 91.5744 68.34 91.9344 68.7C92.2944 69.06 92.7277 69.24 93.2344 69.24C93.7277 69.24 94.1544 69.06 94.5144 68.7C94.8744 68.34 95.0544 67.9133 95.0544 67.42V61.68H98.0744ZM107.606 69.22V72H105.366C104.672 72 104.032 71.84 103.446 71.52C102.872 71.2 102.412 70.76 102.066 70.2C101.732 69.6267 101.566 68.9933 101.566 68.3V64.48H99.3058V61.68H101.566V58.62H104.606V61.68H107.406V64.46H104.606V68.3C104.606 68.5533 104.692 68.7733 104.866 68.96C105.052 69.1333 105.272 69.22 105.526 69.22H107.606ZM120.102 61.68V72H117.602V70.62C116.829 71.7 115.742 72.24 114.342 72.24C113.356 72.24 112.449 71.9933 111.622 71.5C110.796 71.0067 110.136 70.3467 109.642 69.52C109.162 68.6933 108.922 67.7933 108.922 66.82C108.922 65.86 109.162 64.9667 109.642 64.14C110.136 63.3133 110.796 62.66 111.622 62.18C112.449 61.6867 113.356 61.44 114.342 61.44C115.742 61.44 116.829 61.98 117.602 63.06V61.68H120.102ZM114.522 69.4C115.229 69.4 115.829 69.1533 116.322 68.66C116.829 68.1667 117.082 67.56 117.082 66.84C117.082 66.12 116.829 65.5133 116.322 65.02C115.829 64.5133 115.229 64.26 114.522 64.26C113.802 64.26 113.196 64.5133 112.702 65.02C112.209 65.5133 111.962 66.12 111.962 66.84C111.962 67.56 112.209 68.1667 112.702 68.66C113.196 69.1533 113.802 69.4 114.522 69.4ZM129.461 69.22V72H127.221C126.528 72 125.888 71.84 125.301 71.52C124.728 71.2 124.268 70.76 123.921 70.2C123.588 69.6267 123.421 68.9933 123.421 68.3V64.48H121.161V61.68H123.421V58.62H126.461V61.68H129.261V64.46H126.461V68.3C126.461 68.5533 126.548 68.7733 126.721 68.96C126.908 69.1333 127.128 69.22 127.381 69.22H129.461ZM130.998 58.24H134.118V60.58H130.998V58.24ZM131.038 61.68H134.058V72H131.038V61.68ZM141.32 72.24C140.293 72.24 139.346 72 138.48 71.52C137.626 71.0267 136.946 70.3667 136.44 69.54C135.946 68.7133 135.7 67.8067 135.7 66.82C135.7 65.8467 135.946 64.9467 136.44 64.12C136.946 63.2933 137.626 62.64 138.48 62.16C139.346 61.68 140.293 61.44 141.32 61.44C142.333 61.44 143.26 61.68 144.1 62.16C144.953 62.64 145.626 63.2933 146.12 64.12C146.626 64.9467 146.88 65.8467 146.88 66.82C146.88 67.8067 146.626 68.7133 146.12 69.54C145.626 70.3667 144.953 71.0267 144.1 71.52C143.26 72 142.333 72.24 141.32 72.24ZM141.3 69.4C142.006 69.4 142.606 69.1533 143.1 68.66C143.606 68.1667 143.86 67.56 143.86 66.84C143.86 66.12 143.606 65.5133 143.1 65.02C142.606 64.5133 142.006 64.26 141.3 64.26C140.58 64.26 139.973 64.5133 139.48 65.02C138.986 65.5133 138.74 66.12 138.74 66.84C138.74 67.56 138.986 68.1667 139.48 68.66C139.973 69.1533 140.58 69.4 141.3 69.4ZM153.838 61.44C154.651 61.44 155.385 61.6533 156.038 62.08C156.705 62.5067 157.225 63.08 157.598 63.8C157.971 64.52 158.158 65.3067 158.158 66.16V72H155.118V66.24C155.118 65.7467 154.938 65.32 154.578 64.96C154.231 64.6 153.798 64.42 153.278 64.42C152.798 64.42 152.378 64.6 152.018 64.96C151.658 65.32 151.478 65.7467 151.478 66.24V72H148.438V61.68H150.958V62.92C151.305 62.4533 151.718 62.0933 152.198 61.84C152.691 61.5733 153.238 61.44 153.838 61.44ZM173.027 72L172.087 69.4H166.527L165.587 72H162.387L167.547 57.76H171.047L176.207 72H173.027ZM167.527 66.6H171.067L169.307 61.72L167.527 66.6ZM182.007 72.24C181.06 72.24 180.16 72.1067 179.307 71.84C178.467 71.56 177.72 71.1733 177.067 70.68L178.347 68.7C179.573 69.4067 180.793 69.76 182.007 69.76C182.553 69.76 182.94 69.7 183.167 69.58C183.407 69.4467 183.527 69.26 183.527 69.02C183.527 68.7933 183.407 68.6267 183.167 68.52C182.927 68.4 182.487 68.26 181.847 68.1C180.393 67.7667 179.333 67.3533 178.667 66.86C178.013 66.3533 177.687 65.64 177.687 64.72C177.687 63.7333 178.08 62.94 178.867 62.34C179.653 61.74 180.707 61.44 182.027 61.44C182.733 61.44 183.44 61.54 184.147 61.74C184.853 61.94 185.493 62.2067 186.067 62.54L185.027 64.66C183.973 64.18 182.973 63.94 182.027 63.94C181.627 63.94 181.3 64.0133 181.047 64.16C180.807 64.3067 180.687 64.5067 180.687 64.76C180.687 65.0267 180.807 65.2133 181.047 65.32C181.287 65.4267 181.74 65.5333 182.407 65.64C183.767 65.8933 184.793 66.2867 185.487 66.82C186.18 67.3533 186.527 68.0667 186.527 68.96C186.527 69.9733 186.12 70.7733 185.307 71.36C184.507 71.9467 183.407 72.24 182.007 72.24ZM192.768 72.24C191.822 72.24 190.922 72.1067 190.068 71.84C189.228 71.56 188.482 71.1733 187.828 70.68L189.108 68.7C190.335 69.4067 191.555 69.76 192.768 69.76C193.315 69.76 193.702 69.7 193.928 69.58C194.168 69.4467 194.288 69.26 194.288 69.02C194.288 68.7933 194.168 68.6267 193.928 68.52C193.688 68.4 193.248 68.26 192.608 68.1C191.155 67.7667 190.095 67.3533 189.428 66.86C188.775 66.3533 188.448 65.64 188.448 64.72C188.448 63.7333 188.842 62.94 189.628 62.34C190.415 61.74 191.468 61.44 192.788 61.44C193.495 61.44 194.202 61.54 194.908 61.74C195.615 61.94 196.255 62.2067 196.828 62.54L195.788 64.66C194.735 64.18 193.735 63.94 192.788 63.94C192.388 63.94 192.062 64.0133 191.808 64.16C191.568 64.3067 191.448 64.5067 191.448 64.76C191.448 65.0267 191.568 65.2133 191.808 65.32C192.048 65.4267 192.502 65.5333 193.168 65.64C194.528 65.8933 195.555 66.2867 196.248 66.82C196.942 67.3533 197.288 68.0667 197.288 68.96C197.288 69.9733 196.882 70.7733 196.068 71.36C195.268 71.9467 194.168 72.24 192.768 72.24ZM209.23 66.82C209.23 67.2867 209.203 67.6733 209.15 67.98H201.49C201.703 68.5133 202.037 68.9467 202.49 69.28C202.943 69.6133 203.483 69.78 204.11 69.78C205.083 69.78 205.863 69.4333 206.45 68.74L208.65 69.9C208.157 70.6467 207.51 71.2267 206.71 71.64C205.91 72.04 205.03 72.24 204.07 72.24C203.097 72.24 202.197 71.9933 201.37 71.5C200.543 71.0067 199.883 70.3467 199.39 69.52C198.91 68.6933 198.67 67.7933 198.67 66.82C198.67 65.86 198.91 64.9667 199.39 64.14C199.883 63.3133 200.543 62.66 201.37 62.18C202.197 61.6867 203.097 61.44 204.07 61.44C205.07 61.44 205.957 61.68 206.73 62.16C207.517 62.64 208.13 63.2933 208.57 64.12C209.01 64.9467 209.23 65.8467 209.23 66.82ZM204.11 63.98C203.537 63.98 203.017 64.1333 202.55 64.44C202.097 64.7467 201.757 65.1467 201.53 65.64H206.69C206.463 65.1467 206.117 64.7467 205.65 64.44C205.197 64.1333 204.683 63.98 204.11 63.98ZM221.945 61.44C222.705 61.44 223.391 61.64 224.005 62.04C224.618 62.4267 225.098 62.96 225.445 63.64C225.791 64.3067 225.965 65.04 225.965 65.84V72H222.925V65.98C222.925 65.5533 222.771 65.1867 222.465 64.88C222.171 64.5733 221.805 64.42 221.365 64.42C220.951 64.42 220.591 64.5733 220.285 64.88C219.978 65.1867 219.825 65.5533 219.825 65.98V72H216.805V65.98C216.805 65.5533 216.651 65.1867 216.345 64.88C216.038 64.5733 215.671 64.42 215.245 64.42C214.831 64.42 214.471 64.5733 214.165 64.88C213.858 65.1867 213.705 65.5533 213.705 65.98V72H210.665V61.68H213.185V62.72C213.878 61.8667 214.751 61.44 215.805 61.44C216.471 61.44 217.078 61.5933 217.625 61.9C218.185 62.2067 218.651 62.6267 219.025 63.16C219.345 62.64 219.751 62.2267 220.245 61.92C220.738 61.6 221.305 61.44 221.945 61.44ZM233.442 61.44C234.415 61.44 235.315 61.6867 236.142 62.18C236.968 62.66 237.622 63.3133 238.102 64.14C238.595 64.9667 238.842 65.86 238.842 66.82C238.842 67.7933 238.595 68.6933 238.102 69.52C237.622 70.3467 236.968 71.0067 236.142 71.5C235.315 71.9933 234.415 72.24 233.442 72.24C232.042 72.24 230.955 71.7 230.182 70.62V72H227.662V57.16H230.702V62.46C231.422 61.78 232.335 61.44 233.442 61.44ZM233.262 69.4C233.968 69.4 234.568 69.1533 235.062 68.66C235.568 68.1667 235.822 67.56 235.822 66.84C235.822 66.12 235.568 65.5133 235.062 65.02C234.568 64.5133 233.968 64.26 233.262 64.26C232.542 64.26 231.935 64.5133 231.442 65.02C230.948 65.5133 230.702 66.12 230.702 66.84C230.702 67.56 230.948 68.1667 231.442 68.66C231.935 69.1533 232.542 69.4 233.262 69.4ZM244.111 72C243.484 72 242.897 71.8467 242.351 71.54C241.817 71.2333 241.391 70.82 241.071 70.3C240.764 69.7667 240.611 69.18 240.611 68.54V57.18H243.631V68.72C243.631 68.8533 243.671 68.96 243.751 69.04C243.844 69.12 243.964 69.16 244.111 69.16H244.451V72H244.111ZM255.728 61.68L252.108 73.36C251.842 74.3733 251.308 75.2 250.508 75.84C249.722 76.4933 248.802 76.82 247.748 76.82H245.668V73.92H247.528C247.928 73.92 248.275 73.8067 248.568 73.58C248.875 73.3667 249.088 73.0733 249.208 72.7L249.428 72H247.788L244.848 61.68H247.908L250.168 69.62L252.648 61.68H255.728Z" fill="black"/>
<path d="M194 203C218.853 203 239 182.853 239 158C239 133.147 218.853 113 194 113C169.147 113 149 133.147 149 158C149 182.853 169.147 203 194 203Z" stroke="#C000E2" stroke-width="4" stroke-miterlimit="10"/>
<path d="M193.99 142.58C197.65 142.58 201.31 142.54 204.96 142.58C206.82 142.6 208.63 144.33 208.88 146.18C208.94 146.61 208.97 147.04 208.97 147.47V187.46C208.97 189.66 207.76 191.34 205.78 191.95C205.62 192 205.42 191.92 205.31 192.1H193.99V189.21H204.2C205.48 189.2 206.01 188.67 206.01 187.38V147.29C206.01 146 205.49 145.48 204.2 145.47H193.99V142.58Z" fill="#01264F"/>
<path d="M193.99 142.58V145.49C190.44 145.49 186.89 145.49 183.34 145.48C182.98 145.48 182.64 145.64 182.39 145.9C181.97 146.29 181.94 146.79 181.94 147.32V187.71C181.98 188.62 182.57 189.2 183.49 189.21C184.23 189.21 184.97 189.21 185.72 189.21L193.99 189.19V189.22V192.11H182.57C182.53 191.97 182.39 191.98 182.29 191.95C180.33 191.35 179.17 189.9 179.04 187.86C179.03 187.7 179.03 187.54 179.03 187.38V147.28C179.03 145.09 180.11 143.46 181.98 142.81C182.36 142.67 182.75 142.58 183.16 142.57C186.77 142.57 190.38 142.57 193.99 142.57V142.58Z" fill="#034868"/>
<path d="M193.99 145.45H204.2C205.48 145.46 206.01 145.99 206.01 147.28V187.38C206.01 188.67 205.49 189.2 204.2 189.2H193.99V189.18C193.99 188.16 193.99 187.14 193.98 186.12C195.33 186.12 196.68 186.11 198.04 186.1C198.87 186.1 199.42 185.53 199.42 184.7C199.42 183.77 198.84 183.2 197.86 183.19C196.57 183.19 195.28 183.19 194 183.19C194 180.59 194.01 177.99 194.02 175.39C195.01 175.26 195.46 174.76 195.46 173.75V160.85C195.46 159.9 194.96 159.36 194.01 159.27C194.01 156.57 194 153.88 193.99 151.18C194.64 151.18 195.28 151.12 195.92 151.18C196.77 151.26 197.46 150.4 197.48 149.78C197.51 148.98 196.78 148.28 195.93 148.26C195.28 148.26 194.64 148.26 194 148.26V145.43L193.99 145.45ZM198.22 167.31V169.97C198.24 170.82 198.8 171.45 199.59 171.49C200.39 171.53 201.07 170.9 201.11 170.1C201.11 170.09 201.11 170.07 201.11 170.06C201.15 168.26 201.14 166.45 201.11 164.65C201.1 163.84 200.43 163.19 199.61 163.2C199.61 163.2 199.61 163.2 199.6 163.2C198.78 163.24 198.23 163.86 198.22 164.75C198.22 165.61 198.22 166.46 198.22 167.31Z" fill="#00F6D5"/>
<path d="M193.98 145.48C193.98 146.41 193.98 147.33 193.98 148.26C193.32 148.26 192.66 148.26 192 148.28C191.19 148.28 190.53 148.94 190.52 149.76C190.52 150.55 191.18 151.17 192.04 151.18C192.69 151.18 193.33 151.18 193.97 151.18C193.97 153.88 193.98 156.57 193.99 159.27L193.97 159.29C193.08 159.36 192.54 159.91 192.54 160.78V173.88C192.54 174.76 193.09 175.32 193.98 175.36L194 175.39L193.98 183.19C192.69 183.19 191.4 183.19 190.11 183.21C189.18 183.21 188.51 183.83 188.5 184.67C188.49 185.51 189.16 186.11 190.1 186.11H193.97C193.97 187.13 193.97 188.15 193.98 189.17L185.71 189.19C184.97 189.19 184.23 189.19 183.48 189.19C182.57 189.19 181.97 188.6 181.93 187.69V147.3C181.93 146.77 181.97 146.27 182.38 145.88C182.63 145.62 182.97 145.47 183.33 145.46C186.87 145.46 190.42 145.47 193.97 145.48H193.98ZM189.73 167.36V164.61C189.74 164.38 189.69 164.16 189.58 163.96C189.25 163.42 188.6 163.09 188.08 163.22C187.31 163.41 186.85 163.92 186.83 164.68C186.81 166.45 186.8 168.22 186.83 169.99C186.85 170.84 187.56 171.51 188.31 171.48C189.17 171.45 189.72 170.83 189.72 169.91C189.72 169.06 189.72 168.2 189.72 167.35L189.73 167.36Z" fill="#D1FDBF"/>
<path d="M193.99 159.28C194.94 159.37 195.44 159.91 195.44 160.86V173.76C195.44 174.76 194.99 175.27 194 175.4L193.98 175.37C193.98 172.6 193.99 169.84 193.99 167.07C193.99 164.48 193.99 161.89 193.98 159.3L194 159.28H193.99Z" fill="#999AFE"/>
<path d="M198.22 167.31V164.75C198.22 163.86 198.78 163.23 199.6 163.2C200.41 163.18 201.09 163.82 201.11 164.63C201.11 164.63 201.11 164.63 201.11 164.64C201.14 166.44 201.14 168.25 201.11 170.05C201.09 170.85 200.43 171.49 199.62 171.48C199.61 171.48 199.6 171.48 199.59 171.48C198.8 171.44 198.24 170.82 198.22 169.96V167.3V167.31Z" fill="#979BFD"/>
<path d="M193.98 183.2C195.27 183.2 196.56 183.2 197.84 183.2C198.82 183.2 199.4 183.78 199.4 184.71C199.4 185.54 198.85 186.1 198.02 186.11C196.67 186.12 195.32 186.12 193.96 186.13C193.96 185.15 193.96 184.18 193.97 183.2H193.98Z" fill="#00DBE6"/>
<path d="M193.98 148.27H195.91C196.76 148.28 197.49 148.99 197.46 149.79C197.44 150.41 196.75 151.26 195.9 151.19C195.26 151.13 194.61 151.19 193.97 151.19V148.26V148.27H193.98Z" fill="#00DBE6"/>
<path d="M193.97 159.3C193.97 161.89 193.97 164.48 193.98 167.07C193.98 169.84 193.98 172.6 193.97 175.37C193.09 175.33 192.54 174.77 192.53 173.89C192.53 169.53 192.53 165.16 192.53 160.79C192.53 159.92 193.08 159.37 193.96 159.3H193.97Z" fill="#B7B7FE"/>
<path d="M189.73 167.36V169.92C189.73 170.85 189.18 171.45 188.32 171.49C187.57 171.52 186.85 170.84 186.84 170C186.81 168.23 186.82 166.46 186.84 164.69C186.85 163.92 187.32 163.42 188.09 163.23C188.61 163.1 189.25 163.42 189.59 163.97C189.7 164.17 189.75 164.39 189.74 164.62C189.74 165.54 189.74 166.46 189.74 167.37L189.73 167.36Z" fill="#B8B8FD"/>
<path d="M193.98 183.2C193.98 184.18 193.98 185.15 193.97 186.13H190.1C189.16 186.13 188.49 185.52 188.5 184.69C188.51 183.86 189.18 183.24 190.11 183.23C191.4 183.21 192.69 183.21 193.98 183.2Z" fill="#02F6D5"/>
<path d="M193.98 148.26V151.19C193.33 151.19 192.69 151.19 192.04 151.19C191.18 151.18 190.52 150.56 190.52 149.77C190.52 148.96 191.19 148.3 192 148.29C192.66 148.27 193.32 148.27 193.98 148.27V148.26Z" fill="#02F6D5"/>
<path d="M160.96 142.75C162.81 143.5 163.7 145.58 162.92 147.5L162.33 148.96L165.39 150.19L164.49 152.42L154.76 148.5L156.25 144.81C157.02 142.89 159.11 142 160.96 142.75ZM160.06 144.98C159.35 144.69 158.61 144.98 158.33 145.66L157.74 147.12L160.24 148.13L160.83 146.67C161.1 145.99 160.76 145.27 160.05 144.98H160.06Z" fill="black"/>
<path d="M168.37 136.42L172.03 139.21L170.66 141L167.26 138.41C166.52 137.85 165.82 138.05 165.38 138.62C164.88 139.28 164.92 140.02 165.76 140.67L169.01 143.15L167.64 144.94L159.29 138.57L160.66 136.78L163.61 139.03C163.41 138.37 163.58 137.56 164.18 136.77C165.1 135.56 166.74 135.19 168.35 136.42H168.37Z" fill="black"/>
<path d="M170.1 135.84C168.75 134.06 169.11 131.62 170.86 130.28C172.61 128.94 175.07 129.24 176.42 131.02C177.77 132.8 177.41 135.24 175.66 136.58C173.91 137.92 171.45 137.62 170.1 135.84ZM174.64 132.38C174 131.53 172.97 131.43 172.19 132.02C171.41 132.61 171.25 133.63 171.89 134.47C172.54 135.32 173.56 135.42 174.34 134.83C175.12 134.24 175.28 133.22 174.64 132.38Z" fill="black"/>
<path d="M184.21 126.76L185.94 131.03L183.86 131.88L182.25 127.92C181.9 127.06 181.19 126.88 180.53 127.15C179.77 127.46 179.42 128.12 179.82 129.11L181.36 132.9L179.28 133.75L176.46 126.8L178.54 125.95L178.81 126.6C178.98 125.93 179.54 125.32 180.45 124.95C181.85 124.38 183.46 124.9 184.22 126.77L184.21 126.76Z" fill="black"/>
<path d="M190.37 128.58C190.98 128.51 191.47 128.21 191.73 127.84L193.64 128.65C193.03 129.75 191.99 130.4 190.58 130.58C188.03 130.89 186.25 129.37 185.98 127.15C185.71 124.93 187.11 123.03 189.46 122.74C191.63 122.48 193.44 123.97 193.72 126.21C193.76 126.52 193.76 126.82 193.74 127.11L188.46 127.75C188.84 128.49 189.55 128.67 190.37 128.58ZM191.41 125.71C191.07 124.88 190.36 124.64 189.69 124.72C188.84 124.82 188.32 125.31 188.21 126.09L191.41 125.7V125.71Z" fill="black"/>
<path d="M195.63 124.54L201.29 125.26L201.02 127.4L195.36 126.68L195.63 124.54Z" fill="black"/>
<path d="M210.55 130.44C209.72 132.52 207.58 133.52 205.75 132.79C204.81 132.42 204.26 131.82 204.01 131.11L203.75 131.76L201.66 130.93L205.55 121.18L207.64 122.01L206.26 125.45C206.93 125.1 207.74 125.06 208.68 125.43C210.51 126.16 211.37 128.36 210.54 130.44H210.55ZM208.46 129.61C208.88 128.56 208.44 127.63 207.48 127.25C206.52 126.87 205.56 127.25 205.14 128.29C204.72 129.33 205.16 130.27 206.12 130.65C207.08 131.03 208.04 130.65 208.46 129.61Z" fill="black"/>
<path d="M211.65 131.11C213.02 129.34 215.47 129.06 217.22 130.41C218.96 131.76 219.31 134.21 217.94 135.97C216.57 137.74 214.12 138.02 212.37 136.67C210.63 135.32 210.28 132.88 211.65 131.11ZM216.16 134.6C216.81 133.76 216.65 132.74 215.88 132.14C215.11 131.54 214.09 131.64 213.43 132.48C212.78 133.32 212.94 134.34 213.71 134.94C214.48 135.54 215.5 135.44 216.16 134.6Z" fill="black"/>
<path d="M229.07 139.33L220.63 145.57L219.29 143.76L219.86 143.34C219.11 143.28 218.39 142.89 217.8 142.09C216.63 140.51 217.06 138.18 218.85 136.85C220.65 135.52 223 135.8 224.16 137.38C224.76 138.19 224.92 138.98 224.75 139.72L227.73 137.52L229.07 139.33ZM222.31 141.53C223.21 140.86 223.34 139.84 222.72 139.01C222.1 138.18 221.09 137.99 220.19 138.66C219.29 139.33 219.16 140.35 219.78 141.18C220.4 142.01 221.41 142.2 222.31 141.53Z" fill="black"/>
<path d="M230.63 150.38L222.92 150.66C220.39 150.75 219.02 149.86 218.35 147.87L220.31 147.1C220.69 148.08 221.18 148.42 222.16 148.39L227.72 142.99L228.63 145.29L224.97 148.52L229.76 148.15L230.64 150.38H230.63Z" fill="black"/>
<path d="M226.25 160.81L226.12 159.77L224.45 159.98L224.16 157.57L225.83 157.36L225.25 152.62L227.45 152.35L234.41 154.87L234.72 157.43L227.76 154.91L228.03 157.08L230.26 156.81L230.56 159.22L228.33 159.49L228.46 160.53L226.25 160.8V160.81Z" fill="black"/>
<path d="M204.18 168.57V174.6H201.59V178.56H195V174.6H183.64V168.51L191.37 152.66H198.7L190.89 168.57H195V163.91H201.59V168.57H204.18Z" fill="black"/>
<path d="M325 203C349.853 203 370 182.853 370 158C370 133.147 349.853 113 325 113C300.147 113 280 133.147 280 158C280 182.853 300.147 203 325 203Z" stroke="#C000E2" stroke-width="4" stroke-miterlimit="10"/>
<path d="M293.43 162.61L294.07 161.54L295.66 162.55L294.98 163.7C295.43 164.2 295.78 164.81 295.98 165.5C296.66 167.87 295.35 170.32 292.92 171.01C290.49 171.7 288.08 170.32 287.41 167.95C286.73 165.58 288.04 163.13 290.47 162.44C291.51 162.14 292.54 162.23 293.44 162.61H293.43ZM293.92 165.47L293 167.02L291.41 166.01L292.43 164.29C291.99 164.19 291.51 164.18 291 164.33C289.53 164.75 288.85 166.09 289.24 167.43C289.62 168.77 290.91 169.55 292.38 169.13C293.85 168.71 294.53 167.37 294.14 166.03C294.08 165.83 294.01 165.65 293.92 165.47Z" fill="black"/>
<path d="M288.48 154.86L294.61 154.77L294.64 156.61H294.06C294.52 156.94 294.82 157.55 294.83 158.36C294.85 159.6 293.98 160.66 292.33 160.69L288.57 160.75L288.54 158.91L292.03 158.86C292.79 158.85 293.14 158.37 293.13 157.78C293.12 157.11 292.72 156.65 291.85 156.66L288.5 156.71L288.47 154.87L288.48 154.86Z" fill="black"/>
<path d="M290.03 146.4L296.02 147.71L295.63 149.51L295.07 149.39C295.44 149.88 295.59 150.53 295.41 151.33C295.07 152.9 293.41 153.89 291.62 153.5C289.84 153.11 288.74 151.52 289.08 149.95C289.26 149.15 289.66 148.62 290.2 148.33L289.64 148.21L290.03 146.41V146.4ZM292.63 148.85C291.73 148.65 291.04 149.13 290.86 149.96C290.68 150.79 291.11 151.51 292.01 151.7C292.91 151.89 293.6 151.42 293.78 150.59C293.96 149.76 293.53 149.04 292.63 148.85Z" fill="black"/>
<path d="M295.44 139.94L298.84 141.54L298.06 143.2L294.9 141.71C294.21 141.39 293.69 141.67 293.44 142.2C293.15 142.81 293.31 143.4 294.1 143.77L297.13 145.2L296.35 146.86L290.81 144.25L291.6 142.59L292.12 142.84C291.85 142.35 291.85 141.67 292.19 140.94C292.72 139.82 293.97 139.24 295.46 139.95L295.44 139.94Z" fill="black"/>
<path d="M297.24 136.37L299 137.64C299.43 137.95 299.73 137.61 300.17 136.93L301.52 137.91C300.31 140 299.32 140.15 297.92 139.14L296.16 137.87L295.59 138.66L294.16 137.63L294.73 136.83L293.79 136.15L294.42 134.34L295.81 135.34L296.55 134.32L297.98 135.35L297.24 136.38V136.37Z" fill="black"/>
<path d="M301.95 128.8L306.18 133.24L304.85 134.51L304.45 134.09C304.52 134.65 304.28 135.28 303.7 135.84C302.8 136.69 301.43 136.78 300.29 135.58L297.69 132.85L299.02 131.58L301.43 134.11C301.95 134.66 302.55 134.59 302.97 134.18C303.46 133.72 303.53 133.11 302.93 132.48L300.62 130.06L301.95 128.79V128.8Z" fill="black"/>
<path d="M313.1 124.93L314.86 128.26L313.24 129.12L311.55 125.93C311.26 125.39 310.82 125.18 310.3 125.46C309.76 125.75 309.66 126.29 309.99 126.93L311.61 129.98L309.99 130.84L308.3 127.65C308.01 127.11 307.57 126.9 307.05 127.18C306.51 127.47 306.41 128.01 306.74 128.65L308.36 131.7L306.74 132.56L303.87 127.14L305.5 126.28L305.76 126.78C305.81 126.28 306.14 125.75 306.87 125.36C307.51 125.02 308.12 125.03 308.67 125.32C308.74 124.73 309.09 124.18 309.86 123.77C311.11 123.11 312.39 123.57 313.11 124.92L313.1 124.93Z" fill="black"/>
<path d="M314.7 123.8L319.23 122.72L319.64 124.44L315.11 125.52L314.7 123.8Z" fill="black"/>
<path d="M320.89 123.93C320.82 122.1 322.16 120.64 324.02 120.58C325.21 120.54 326.29 121.12 326.85 122.05L325.28 123.04C325.06 122.62 324.61 122.38 324.07 122.4C323.27 122.43 322.71 123.03 322.74 123.87C322.77 124.72 323.38 125.27 324.18 125.24C324.72 125.22 325.16 124.95 325.34 124.51L326.98 125.37C326.49 126.35 325.47 127.01 324.27 127.05C322.41 127.12 320.97 125.76 320.9 123.93H320.89Z" fill="black"/>
<path d="M327.44 123.74C327.75 121.94 329.41 120.8 331.19 121.1C332.97 121.41 334.15 123.04 333.84 124.84C333.53 126.64 331.87 127.78 330.09 127.48C328.31 127.17 327.13 125.54 327.44 123.74ZM332.03 124.53C332.18 123.67 331.67 123 330.89 122.86C330.1 122.73 329.4 123.19 329.26 124.05C329.11 124.91 329.62 125.58 330.4 125.71C331.19 125.85 331.89 125.38 332.03 124.52V124.53Z" fill="black"/>
<path d="M343.83 128.4L342.22 131.8L340.56 131.01L342.1 127.75C342.36 127.2 342.27 126.72 341.73 126.46C341.18 126.2 340.68 126.44 340.37 127.09L338.89 130.21L337.23 129.42L338.77 126.16C339.03 125.61 338.93 125.13 338.4 124.87C337.85 124.61 337.35 124.85 337.04 125.5L335.56 128.62L333.9 127.83L336.53 122.29L338.19 123.08L337.95 123.59C338.38 123.33 339.01 123.28 339.75 123.63C340.4 123.94 340.77 124.44 340.85 125.05C341.37 124.75 342.02 124.71 342.8 125.08C344.07 125.68 344.47 126.99 343.82 128.37L343.83 128.4Z" fill="black"/>
<path d="M349.69 134.43C348.48 135.8 346.56 135.99 345.35 134.93C344.73 134.39 344.47 133.78 344.47 133.16L342.47 135.43L341.09 134.22L346.76 127.78L348.14 128.99L347.76 129.42C348.37 129.34 349.01 129.52 349.63 130.06C350.84 131.12 350.9 133.05 349.69 134.43ZM348.31 133.22C348.92 132.53 348.84 131.69 348.2 131.13C347.56 130.57 346.72 130.6 346.12 131.29C345.51 131.98 345.59 132.82 346.23 133.38C346.86 133.94 347.71 133.91 348.31 133.22Z" fill="black"/>
<path d="M356.39 138.42L351.39 141.97L350.33 140.47L350.8 140.14C350.24 140.14 349.64 139.8 349.17 139.14C348.45 138.13 348.56 136.76 349.91 135.8L352.98 133.62L354.04 135.12L351.19 137.14C350.57 137.58 350.56 138.18 350.9 138.66C351.29 139.21 351.88 139.36 352.59 138.86L355.32 136.92L356.38 138.42H356.39Z" fill="black"/>
<path d="M356.72 143.11L354.76 144.04C354.28 144.27 354.43 144.7 354.83 145.41L353.33 146.12C352.08 144.06 352.43 143.12 353.98 142.38L355.94 141.45L355.52 140.56L357.11 139.8L357.53 140.69L358.58 140.19L359.87 141.61L358.32 142.35L358.86 143.49L357.27 144.25L356.73 143.11H356.72Z" fill="black"/>
<path d="M361.11 151.17L355.18 152.71L354.72 150.93L355.28 150.79C354.73 150.52 354.3 150 354.1 149.21C353.7 147.66 354.73 146.02 356.5 145.57C358.27 145.11 359.96 146.04 360.37 147.59C360.58 148.38 360.45 149.04 360.1 149.55L360.66 149.41L361.12 151.19L361.11 151.17ZM357.68 150.16C358.57 149.93 358.97 149.19 358.76 148.37C358.55 147.55 357.84 147.1 356.95 147.33C356.06 147.56 355.66 148.3 355.87 149.12C356.08 149.94 356.79 150.39 357.68 150.16Z" fill="black"/>
<path d="M359.69 155.75L357.52 155.88C356.99 155.91 356.97 156.37 357.07 157.17L355.41 157.27C355.02 154.89 355.7 154.15 357.41 154.04L359.58 153.91L359.52 152.93L361.28 152.82L361.34 153.8L362.5 153.73L363.16 155.53L361.45 155.63L361.53 156.89L359.77 157L359.69 155.74V155.75Z" fill="black"/>
<path d="M361.47 158.45L361.36 160.29L355.24 159.92L355.35 158.08L361.47 158.45ZM363.12 158.37C363.72 158.41 364.19 158.94 364.16 159.54C364.12 160.14 363.59 160.61 362.99 160.58C362.39 160.55 361.92 160.01 361.95 159.41C361.98 158.81 362.52 158.34 363.12 158.38V158.37Z" fill="black"/>
<path d="M358.31 161.35C360.09 161.75 361.15 163.47 360.75 165.23C360.35 166.99 358.66 168.09 356.88 167.69C355.1 167.29 354.04 165.57 354.44 163.81C354.84 162.05 356.53 160.95 358.31 161.35ZM357.29 165.89C358.14 166.08 358.84 165.61 359.01 164.83C359.18 164.05 358.76 163.33 357.91 163.14C357.06 162.95 356.36 163.42 356.19 164.2C356.02 164.98 356.44 165.7 357.29 165.89Z" fill="black"/>
<path d="M354.56 174.51L351.16 172.9L351.94 171.24L355.1 172.73C355.79 173.06 356.31 172.77 356.56 172.24C356.85 171.63 356.69 171.04 355.9 170.67L352.87 169.24L353.65 167.58L359.19 170.2L358.41 171.86L357.89 171.61C358.16 172.1 358.16 172.78 357.82 173.51C357.29 174.63 356.04 175.21 354.55 174.5L354.56 174.51Z" fill="black"/>
<path d="M304.83 153.69V144.86C304.84 143.45 305.54 142.75 306.93 142.75H337.39C338.78 142.75 339.48 143.46 339.48 144.86V153.69C339.49 153.94 339.48 154.18 339.48 154.43V173.63C339.48 174.82 338.74 175.57 337.57 175.57H306.74C305.57 175.57 304.83 174.81 304.83 173.63V163.03C304.83 159.91 304.83 156.8 304.82 153.69H304.83ZM324.02 171.85C324.39 171.78 324.66 171.53 324.92 171.29C325.8 170.54 326.5 169.6 326.99 168.55C327.16 168.16 327.39 168.03 327.81 168.06C328.75 168.13 329.7 168.06 330.63 167.84C333.01 167.24 334.29 165.61 334.11 163.3C334.01 162.07 333.53 160.94 332.85 159.93C332.48 159.38 332.46 159.02 332.83 158.44C333.63 157.22 334.18 155.9 334.12 154.4C335.4 153.53 335.24 152 334.24 151.3C333.58 150.83 332.89 150.93 332.19 151.22C331.95 150.96 331.62 150.86 331.3 150.74C330.2 150.32 329.05 150.23 327.89 150.3C327.4 150.33 327.13 150.19 326.93 149.74C326.46 148.67 325.71 147.78 324.84 147C323.62 145.87 321.82 145.64 320.34 146.41C319.31 146.93 318.58 147.78 317.94 148.69C317.6 149.19 317.44 149.94 316.99 150.19C316.51 150.46 315.77 150.23 315.15 150.29C314.07 150.38 313.01 150.53 312.1 151.2C311.64 151.05 311.18 150.86 310.67 151C309.95 151.2 309.48 151.65 309.31 152.38C309.12 153.24 309.49 153.88 310.18 154.38C310.12 155.95 310.73 157.3 311.55 158.57C311.82 158.99 311.88 159.28 311.57 159.72C310.88 160.68 310.42 161.78 310.23 162.95C309.99 164.54 310.38 165.93 311.72 166.93C312.96 167.84 314.41 168.13 315.91 168.04C316.73 167.99 317.29 168.15 317.54 169C317.63 169.23 317.75 169.45 317.91 169.63C318.57 170.51 319.21 171.41 320.28 171.85C320.33 172.65 320.67 173.27 321.41 173.61C322.44 174.09 323.9 173.47 323.98 171.86L324.02 171.85Z" fill="#2387C2"/>
<path d="M304.83 153.69C304.83 156.81 304.83 159.92 304.84 163.03V173.63C304.84 174.81 305.58 175.57 306.75 175.57H337.58C338.75 175.57 339.49 174.82 339.49 173.63V154.43C339.49 154.18 339.49 153.94 339.5 153.69L341.89 153.71C344 154.22 344.99 155.75 344.98 157.91C344.94 165.62 344.97 173.33 344.97 181.03C344.82 181.03 344.67 181.04 344.51 181.04H299.84C299.69 181.04 299.54 181.04 299.38 181.03V157.04C299.38 155.36 301.04 153.73 302.72 153.69C303.43 153.68 304.12 153.69 304.83 153.69Z" fill="#555A6E"/>
<path d="M299.38 181.03C299.53 181.03 299.68 181.04 299.84 181.04H344.51C344.66 181.04 344.81 181.04 344.97 181.03V181.06C344.97 181.81 344.99 182.56 344.7 183.29C344.19 184.58 343.18 185.25 341.9 185.59H326.72L302.91 185.6C300.96 185.58 299.39 184 299.37 182.05C299.37 181.71 299.37 181.37 299.37 181.02L299.38 181.03Z" fill="#D6E5EF"/>
<path d="M344.97 181.03C344.97 173.32 344.94 165.61 344.98 157.91C344.99 155.76 344.01 154.22 341.89 153.71C342.97 153.71 344.05 153.67 345.13 153.71C346.99 153.79 348.49 155.27 348.6 157.14C348.6 157.18 348.6 157.22 348.6 157.25V181.04L344.95 181.06L344.97 181.03Z" fill="#463C4B"/>
<path d="M326.73 189.25L326.87 189.28C325.97 189.97 325.68 190.88 325.83 191.99C321.74 191.99 317.64 191.99 313.55 192C313.2 192 313.07 191.91 313.04 191.53C312.92 190.01 313.93 189.15 315.25 189.25C316.15 189.32 317.07 189.25 317.98 189.27C318.39 189.28 318.57 189.18 318.54 188.74C318.51 188.3 318.54 187.87 318.54 187.43H322.68C323.99 187.43 324.01 187.43 323.99 188.72C323.99 189.2 324.16 189.29 324.58 189.27C325.3 189.23 326.02 189.25 326.74 189.25H326.73Z" fill="#D6E5EF"/>
<path d="M326.73 189.25C326.01 189.25 325.29 189.23 324.58 189.25C324.16 189.27 323.98 189.17 323.99 188.7C324.01 187.42 323.99 187.42 322.68 187.42H318.54V185.59H326.74V189.24L326.73 189.25Z" fill="#A4C2DB"/>
<path d="M344.96 181.06L348.6 181.04C348.68 182.16 348.6 183.23 347.86 184.17C347.22 185.04 346.22 185.57 345.14 185.6C344.06 185.64 342.98 185.6 341.9 185.6C343.18 185.25 344.18 184.59 344.7 183.3C344.99 182.57 344.97 181.82 344.95 181.07L344.96 181.06Z" fill="#A5C3DB"/>
<path d="M325.82 191.98C325.66 190.88 325.95 189.97 326.86 189.28C327.73 189.28 328.6 189.23 329.47 189.26C330.88 189.31 331.46 190.45 331.27 191.79C331.23 192.07 330.99 191.99 330.81 191.99C329.15 191.99 327.49 191.99 325.82 191.99V191.98Z" fill="#A5C2DB"/>
<path d="M334.13 154.38C334.19 155.88 333.64 157.21 332.84 158.42C332.47 158.99 332.49 159.36 332.86 159.91C333.54 160.92 334.02 162.04 334.12 163.28C334.3 165.59 333.02 167.22 330.64 167.82C329.72 168.03 328.77 168.11 327.82 168.04C327.4 168.02 327.17 168.15 327 168.53C326.52 169.58 325.81 170.52 324.93 171.27C324.66 171.51 324.4 171.76 324.03 171.83C323.94 171.53 323.85 171.24 323.76 170.95C324.95 170.32 325.59 169.23 326.2 168.1C326.34 167.83 326.14 167.84 325.96 167.81C324.82 167.61 323.71 167.3 322.63 166.89C322.33 166.76 321.99 166.77 321.69 166.9C320.67 167.31 319.61 167.6 318.53 167.78C318.06 167.86 318.09 167.99 318.27 168.34C318.83 169.37 319.59 170.29 320.5 171.03L320.33 171.83C319.26 171.39 318.62 170.49 317.96 169.61C317.8 169.42 317.67 169.21 317.59 168.98C317.34 168.13 316.78 167.97 315.96 168.02C314.46 168.11 313.01 167.83 311.77 166.91C310.43 165.92 310.04 164.53 310.28 162.93C310.47 161.77 310.93 160.66 311.62 159.7C311.92 159.26 311.87 158.97 311.6 158.55C310.78 157.28 310.17 155.92 310.23 154.36C310.52 154.5 310.83 154.58 311.14 154.6C311.19 155.99 311.78 157.18 312.56 158.37C313.45 157.29 314.45 156.3 315.54 155.42C315.64 155.31 315.7 155.16 315.7 155.01C315.86 153.89 316.14 152.78 316.53 151.72C316.7 151.26 316.57 151.17 316.12 151.16C314.97 151.14 313.82 151.34 312.74 151.76L312.15 151.18C313.05 150.5 314.12 150.35 315.2 150.27C315.82 150.22 316.56 150.44 317.04 150.17C317.5 149.92 317.65 149.16 317.99 148.67C318.63 147.74 319.36 146.9 320.39 146.39C321.86 145.62 323.66 145.86 324.89 146.98C325.76 147.76 326.51 148.64 326.98 149.72C327.18 150.18 327.45 150.32 327.94 150.28C329.1 150.21 330.25 150.3 331.35 150.72C331.67 150.84 332 150.94 332.24 151.2C332.04 151.4 331.89 151.66 331.61 151.76C330.55 151.35 329.42 151.14 328.28 151.15C327.76 151.15 327.72 151.32 327.87 151.76C328.19 152.69 328.51 153.63 328.6 154.61C328.66 155.25 329.06 155.62 329.49 155.98C329.72 156.17 329.95 156.37 330.17 156.58C330.67 157.05 331.14 157.54 331.57 158.07C331.67 158.19 331.8 158.44 331.99 158.13C332.66 157.04 333.21 155.91 333.25 154.59C333.57 154.57 333.88 154.49 334.16 154.36L334.13 154.38ZM316.25 159.3C316.16 160.03 316.35 160.87 316.37 161.72C316.37 162.2 316.62 162.64 317.03 162.89C318.54 163.95 320.14 164.85 321.82 165.6C322.04 165.71 322.29 165.71 322.51 165.6C324.23 164.84 325.86 163.91 327.38 162.82C327.68 162.65 327.87 162.35 327.92 162.01C328.16 160.09 328.15 158.15 327.9 156.23C327.87 155.96 327.73 155.72 327.51 155.58C325.93 154.43 324.23 153.46 322.44 152.68C322.25 152.6 322.03 152.61 321.85 152.7C320.1 153.47 318.43 154.42 316.87 155.54C316.62 155.69 316.46 155.94 316.43 156.22C316.29 157.24 316.24 158.27 316.25 159.3ZM322.2 146.85C321.93 146.84 321.67 146.88 321.41 146.96C319.76 147.47 318.91 148.78 318.15 150.19C317.98 150.51 318.23 150.47 318.42 150.51C319.54 150.71 320.63 151.02 321.69 151.42C321.99 151.55 322.33 151.55 322.63 151.42C323.69 151 324.78 150.7 325.9 150.51C326.23 150.45 326.27 150.37 326.13 150.08C325.85 149.52 325.51 148.99 325.11 148.51C324.35 147.61 323.45 146.91 322.19 146.85H322.2ZM315.65 167.14H315.93C316.66 167.14 316.67 167.14 316.44 166.46C316.13 165.57 315.9 164.65 315.73 163.72C315.67 163.41 315.72 163.04 315.4 162.79C314.43 162.03 313.55 161.17 312.77 160.21C312.56 159.94 312.45 160.01 312.29 160.27C311.82 161 311.47 161.81 311.24 162.65C310.94 163.87 311.02 165.03 312.01 165.95C313.04 166.91 314.32 167.1 315.65 167.14ZM328.34 167.14C329.41 167.14 330.12 167.04 330.8 166.81C332.64 166.21 333.45 164.85 333.12 162.95C332.95 162 332.52 161.16 332.05 160.33C331.84 159.96 331.7 159.98 331.46 160.28C330.81 161.1 330.07 161.84 329.25 162.48C328.84 162.79 328.59 163.26 328.55 163.78C328.46 164.59 328.2 165.37 327.97 166.15C327.68 167.15 327.67 167.14 328.35 167.14H328.34ZM315.46 161.54C315.29 159.96 315.28 158.36 315.45 156.77C314.54 157.37 313.97 158.15 313.32 158.86C313.16 159.01 313.15 159.27 313.3 159.43C313.31 159.44 313.33 159.46 313.34 159.47C313.99 160.15 314.53 160.95 315.46 161.53V161.54ZM323.46 152.12C324.91 152.82 326.31 153.64 327.64 154.56C327.46 153.58 327.2 152.62 326.85 151.69C326.78 151.51 326.74 151.28 326.43 151.34C325.41 151.51 324.42 151.77 323.45 152.12H323.46ZM320.87 166.2C319.42 165.5 318.03 164.69 316.7 163.77C316.87 164.77 317.14 165.75 317.5 166.7C317.56 166.85 317.61 167.04 317.85 166.99C318.83 166.8 319.8 166.62 320.86 166.2H320.87ZM316.7 154.57C318.06 153.59 319.4 152.86 320.85 152.11C319.89 151.76 318.9 151.5 317.89 151.33C317.62 151.28 317.57 151.46 317.5 151.63C317.13 152.58 316.86 153.56 316.69 154.56L316.7 154.57ZM328.88 156.78C329.05 158.36 329.06 159.95 328.89 161.53C329.8 160.94 330.37 160.15 331.02 159.45C331.24 159.21 331.15 158.99 330.97 158.8C330.32 158.13 329.78 157.37 328.88 156.78ZM323.46 166.2C324.51 166.62 325.49 166.81 326.46 167C326.66 167.04 326.73 166.91 326.79 166.77C327.17 165.81 327.45 164.81 327.61 163.79C326.29 164.7 324.9 165.51 323.46 166.21V166.2Z" fill="#58D4FC"/>
<path d="M331.58 151.76C331.86 151.65 332.01 151.4 332.21 151.2C332.9 150.91 333.59 150.81 334.26 151.28C335.25 151.99 335.42 153.51 334.14 154.38C333.85 154.51 333.54 154.59 333.23 154.62C331.81 154.42 331.17 153.46 331.54 152.09C331.56 151.98 331.58 151.87 331.59 151.76H331.58Z" fill="#D3E4EE"/>
<path d="M320.32 171.84L320.49 171.04C321.82 169.79 322.62 169.77 323.76 170.96C323.85 171.25 323.94 171.55 324.03 171.84C323.95 173.44 322.49 174.07 321.46 173.6C320.71 173.26 320.38 172.64 320.33 171.84H320.32Z" fill="#D3E4EE"/>
<path d="M311.12 154.62C310.8 154.6 310.49 154.52 310.21 154.38C309.52 153.88 309.14 153.24 309.34 152.38C309.5 151.65 309.98 151.2 310.7 151C311.21 150.86 311.67 151.04 312.13 151.2L312.72 151.77C313.18 153.48 312.65 154.4 311.12 154.62Z" fill="#D3E4EE"/>
<path d="M316.25 159.3C316.23 158.27 316.3 157.25 316.43 156.23C316.46 155.95 316.63 155.69 316.87 155.55C318.42 154.43 320.09 153.48 321.85 152.71C322.03 152.61 322.25 152.6 322.44 152.69C324.23 153.47 325.93 154.45 327.51 155.59C327.73 155.74 327.88 155.98 327.9 156.24C328.15 158.16 328.16 160.1 327.92 162.02C327.88 162.36 327.68 162.66 327.38 162.83C325.86 163.92 324.22 164.86 322.51 165.61C322.29 165.72 322.04 165.72 321.82 165.61C320.14 164.86 318.53 163.95 317.02 162.89C316.61 162.64 316.36 162.2 316.36 161.72C316.34 160.87 316.15 160.02 316.24 159.3H316.25ZM324.9 159.15C324.9 157.64 323.66 156.41 322.15 156.42C320.64 156.42 319.41 157.66 319.42 159.17C319.42 160.68 320.65 161.9 322.16 161.9C323.67 161.9 324.9 160.68 324.91 159.16V159.14L324.9 159.15Z" fill="#2487C2"/>
<path d="M322.2 146.85C323.46 146.91 324.36 147.6 325.12 148.52C325.51 149.01 325.86 149.54 326.14 150.1C326.29 150.38 326.25 150.47 325.91 150.53C324.79 150.72 323.69 151.03 322.64 151.44C322.34 151.57 322 151.57 321.7 151.44C320.64 151.04 319.54 150.73 318.43 150.53C318.25 150.49 317.99 150.53 318.16 150.21C318.92 148.8 319.77 147.49 321.42 146.98C321.67 146.89 321.94 146.84 322.21 146.85H322.2Z" fill="#2387C3"/>
<path d="M315.66 167.14C314.33 167.09 313.05 166.9 312.03 165.95C311.04 165.03 310.96 163.87 311.26 162.65C311.48 161.81 311.84 161.01 312.31 160.27C312.47 160.01 312.58 159.94 312.79 160.21C313.57 161.16 314.45 162.03 315.42 162.79C315.74 163.04 315.69 163.41 315.75 163.72C315.92 164.65 316.15 165.57 316.46 166.46C316.69 167.13 316.68 167.13 315.95 167.14H315.67H315.66Z" fill="#2387C3"/>
<path d="M328.35 167.14C327.67 167.14 327.69 167.14 327.99 166.15C328.22 165.37 328.49 164.6 328.57 163.78C328.61 163.27 328.86 162.79 329.27 162.48C330.09 161.84 330.84 161.1 331.48 160.28C331.72 159.98 331.86 159.96 332.07 160.33C332.54 161.16 332.97 161.99 333.14 162.95C333.47 164.85 332.66 166.22 330.82 166.81C330.13 167.03 329.42 167.14 328.35 167.14Z" fill="#2387C3"/>
<path d="M323.76 170.96C322.63 169.77 321.81 169.79 320.49 171.04C319.58 170.3 318.82 169.38 318.26 168.35C318.08 168 318.05 167.87 318.52 167.79C319.6 167.61 320.66 167.31 321.68 166.91C321.98 166.78 322.32 166.77 322.62 166.9C323.7 167.31 324.81 167.62 325.95 167.82C326.12 167.85 326.33 167.84 326.19 168.11C325.59 169.23 324.95 170.32 323.76 170.96Z" fill="#2487C3"/>
<path d="M311.12 154.62C312.66 154.4 313.18 153.48 312.72 151.77C313.8 151.35 314.94 151.15 316.1 151.17C316.55 151.17 316.67 151.28 316.51 151.73C316.12 152.8 315.85 153.9 315.68 155.02C315.68 155.17 315.62 155.32 315.52 155.43C314.43 156.31 313.43 157.3 312.54 158.38C311.75 157.19 311.16 156.01 311.12 154.61V154.62Z" fill="#2487C3"/>
<path d="M331.58 151.76C331.57 151.87 331.55 151.98 331.53 152.09C331.16 153.45 331.81 154.42 333.22 154.62C333.18 155.93 332.63 157.06 331.96 158.16C331.77 158.47 331.64 158.22 331.54 158.1C331.11 157.57 330.64 157.08 330.14 156.61C329.92 156.4 329.69 156.21 329.46 156.01C329.02 155.64 328.63 155.27 328.57 154.64C328.48 153.66 328.16 152.72 327.84 151.79C327.69 151.35 327.73 151.19 328.25 151.18C329.39 151.16 330.51 151.36 331.57 151.77L331.58 151.76Z" fill="#2487C3"/>
<path d="M315.47 161.54C314.54 160.95 314 160.15 313.35 159.47C313.18 159.33 313.15 159.08 313.29 158.9C313.3 158.88 313.32 158.87 313.33 158.86C313.98 158.15 314.55 157.36 315.46 156.77C315.29 158.36 315.29 159.96 315.46 161.54H315.47Z" fill="#2489C4"/>
<path d="M323.46 152.12C324.42 151.77 325.42 151.5 326.43 151.33C326.73 151.27 326.78 151.5 326.85 151.68C327.2 152.61 327.47 153.57 327.65 154.55C326.32 153.63 324.92 152.82 323.46 152.12Z" fill="#2489C4"/>
<path d="M320.87 166.2C319.8 166.62 318.83 166.81 317.86 167C317.62 167.05 317.57 166.86 317.51 166.71C317.14 165.76 316.87 164.78 316.7 163.78C318.03 164.7 319.42 165.51 320.87 166.21V166.2Z" fill="#2489C4"/>
<path d="M316.7 154.57C316.87 153.57 317.14 152.59 317.51 151.64C317.58 151.46 317.63 151.28 317.9 151.34C318.91 151.51 319.9 151.77 320.86 152.12C319.41 152.87 318.06 153.6 316.71 154.57H316.7Z" fill="#2489C4"/>
<path d="M328.88 156.78C329.78 157.36 330.33 158.13 330.96 158.8C331.15 159 331.23 159.21 331.01 159.45C330.36 160.15 329.79 160.94 328.88 161.53C329.05 159.95 329.05 158.36 328.88 156.78Z" fill="#2489C4"/>
<path d="M323.47 166.2C324.92 165.5 326.3 164.7 327.62 163.78C327.46 164.8 327.18 165.8 326.8 166.76C326.74 166.9 326.67 167.03 326.47 166.99C325.5 166.8 324.52 166.62 323.47 166.19V166.2Z" fill="#2489C4"/>
<path d="M324.91 159.14C324.92 160.65 323.71 161.89 322.19 161.91C320.68 161.92 319.44 160.71 319.42 159.19C319.41 157.68 320.62 156.44 322.14 156.42C322.15 156.42 322.17 156.42 322.18 156.42C323.68 156.42 324.89 157.64 324.9 159.14H324.91Z" fill="#FCCC07"/>
</svg>
