<svg width="518" height="192" viewBox="0 0 518 192" fill="none" xmlns="http://www.w3.org/2000/svg">
<path d="M14.9793 21.1C14.2193 21.1 13.5793 20.84 13.0593 20.32C12.5526 19.8 12.2993 19.1533 12.2993 18.38C12.2993 17.6067 12.5526 16.9667 13.0593 16.46C13.5793 15.9533 14.2193 15.7 14.9793 15.7C15.7526 15.7 16.3993 15.9533 16.9193 16.46C17.4393 16.9667 17.6993 17.6067 17.6993 18.38C17.6993 19.1533 17.4393 19.8 16.9193 20.32C16.3993 20.84 15.7526 21.1 14.9793 21.1ZM37.22 9.76C37.9667 9.76 38.66 9.94667 39.3 10.32C39.94 10.68 40.4467 11.18 40.82 11.82C41.1933 12.46 41.38 13.1533 41.38 13.9C41.38 14.46 41.26 14.9667 41.02 15.42C40.7933 15.86 40.48 16.22 40.08 16.5C40.6667 16.78 41.1267 17.1867 41.46 17.72C41.8067 18.2533 41.98 18.88 41.98 19.6C41.98 20.4 41.78 21.14 41.38 21.82C40.98 22.4867 40.44 23.02 39.76 23.42C39.0933 23.8067 38.36 24 37.56 24H31.24V9.76H37.22ZM36.96 15.3C37.3467 15.3 37.6733 15.1667 37.94 14.9C38.2067 14.62 38.34 14.2867 38.34 13.9C38.34 13.5267 38.2 13.2067 37.92 12.94C37.6533 12.6733 37.3333 12.54 36.96 12.54H34.28V15.3H36.96ZM37.4 21.14C37.8267 21.14 38.1867 20.9933 38.48 20.7C38.7867 20.3933 38.94 20.0267 38.94 19.6C38.94 19.2 38.7867 18.8467 38.48 18.54C38.1867 18.2333 37.8267 18.08 37.4 18.08H34.28V21.14H37.4ZM48.9758 24.24C47.9491 24.24 47.0024 24 46.1358 23.52C45.2824 23.0267 44.6024 22.3667 44.0958 21.54C43.6024 20.7133 43.3558 19.8067 43.3558 18.82C43.3558 17.8467 43.6024 16.9467 44.0958 16.12C44.6024 15.2933 45.2824 14.64 46.1358 14.16C47.0024 13.68 47.9491 13.44 48.9758 13.44C49.9891 13.44 50.9158 13.68 51.7558 14.16C52.6091 14.64 53.2824 15.2933 53.7758 16.12C54.2824 16.9467 54.5358 17.8467 54.5358 18.82C54.5358 19.8067 54.2824 20.7133 53.7758 21.54C53.2824 22.3667 52.6091 23.0267 51.7558 23.52C50.9158 24 49.9891 24.24 48.9758 24.24ZM48.9558 21.4C49.6624 21.4 50.2624 21.1533 50.7558 20.66C51.2624 20.1667 51.5158 19.56 51.5158 18.84C51.5158 18.12 51.2624 17.5133 50.7558 17.02C50.2624 16.5133 49.6624 16.26 48.9558 16.26C48.2358 16.26 47.6291 16.5133 47.1358 17.02C46.6424 17.5133 46.3958 18.12 46.3958 18.84C46.3958 19.56 46.6424 20.1667 47.1358 20.66C47.6291 21.1533 48.2358 21.4 48.9558 21.4ZM67.0944 13.68V24H64.5944V22.62C63.821 23.7 62.7344 24.24 61.3344 24.24C60.3477 24.24 59.441 23.9933 58.6144 23.5C57.7877 23.0067 57.1277 22.3467 56.6344 21.52C56.1544 20.6933 55.9144 19.7933 55.9144 18.82C55.9144 17.86 56.1544 16.9667 56.6344 16.14C57.1277 15.3133 57.7877 14.66 58.6144 14.18C59.441 13.6867 60.3477 13.44 61.3344 13.44C62.7344 13.44 63.821 13.98 64.5944 15.06V13.68H67.0944ZM61.5144 21.4C62.221 21.4 62.821 21.1533 63.3144 20.66C63.821 20.1667 64.0744 19.56 64.0744 18.84C64.0744 18.12 63.821 17.5133 63.3144 17.02C62.821 16.5133 62.221 16.26 61.5144 16.26C60.7944 16.26 60.1877 16.5133 59.6944 17.02C59.201 17.5133 58.9544 18.12 58.9544 18.84C58.9544 19.56 59.201 20.1667 59.6944 20.66C60.1877 21.1533 60.7944 21.4 61.5144 21.4ZM75.4288 13.66V16.44H73.9088C73.3621 16.44 72.8821 16.6467 72.4688 17.06C72.0688 17.4733 71.8688 17.9533 71.8688 18.5V24H68.8288V13.68H71.3488V15.58C71.7488 14.98 72.2354 14.5133 72.8088 14.18C73.3954 13.8333 74.0621 13.66 74.8088 13.66H75.4288ZM87.8956 9.16V24H85.3756V22.62C84.6023 23.7 83.5156 24.24 82.1156 24.24C81.129 24.24 80.2223 23.9933 79.3956 23.5C78.569 23.0067 77.909 22.3467 77.4156 21.52C76.9356 20.6933 76.6956 19.7933 76.6956 18.82C76.6956 17.86 76.9356 16.9667 77.4156 16.14C77.909 15.3133 78.569 14.66 79.3956 14.18C80.2223 13.6867 81.129 13.44 82.1156 13.44C83.2223 13.44 84.1356 13.78 84.8556 14.46V9.16H87.8956ZM82.2956 21.4C83.0023 21.4 83.6023 21.1533 84.0956 20.66C84.6023 20.1667 84.8556 19.56 84.8556 18.84C84.8556 18.12 84.6023 17.5133 84.0956 17.02C83.6023 16.5133 83.0023 16.26 82.2956 16.26C81.589 16.26 80.9823 16.5133 80.4756 17.02C79.9823 17.5133 79.7356 18.12 79.7356 18.84C79.7356 19.56 79.9823 20.1667 80.4756 20.66C80.9823 21.1533 81.589 21.4 82.2956 21.4ZM99.0223 24.12C98.009 24.12 97.069 23.8667 96.2023 23.36C95.349 22.8533 94.669 22.1733 94.1623 21.32C93.669 20.4533 93.4223 19.5133 93.4223 18.5V9.76H96.4423V18.66C96.4423 19.1267 96.5557 19.56 96.7823 19.96C97.0223 20.3467 97.3357 20.66 97.7223 20.9C98.1223 21.1267 98.5557 21.24 99.0223 21.24C99.489 21.24 99.9223 21.1267 100.322 20.9C100.722 20.66 101.036 20.3467 101.262 19.96C101.502 19.56 101.622 19.1267 101.622 18.66V9.76H104.642V18.5C104.642 19.5133 104.389 20.4533 103.882 21.32C103.389 22.1733 102.709 22.8533 101.842 23.36C100.989 23.8667 100.049 24.12 99.0223 24.12ZM111.768 13.44C112.581 13.44 113.314 13.6533 113.968 14.08C114.634 14.5067 115.154 15.08 115.528 15.8C115.901 16.52 116.088 17.3067 116.088 18.16V24H113.048V18.24C113.048 17.7467 112.868 17.32 112.508 16.96C112.161 16.6 111.728 16.42 111.208 16.42C110.728 16.42 110.308 16.6 109.948 16.96C109.588 17.32 109.408 17.7467 109.408 18.24V24H106.368V13.68H108.888V14.92C109.234 14.4533 109.648 14.0933 110.128 13.84C110.621 13.5733 111.168 13.44 111.768 13.44ZM117.599 10.24H120.719V12.58H117.599V10.24ZM117.639 13.68H120.659V24H117.639V13.68ZM130.145 21.22V24H127.905C127.212 24 126.572 23.84 125.985 23.52C125.412 23.2 124.952 22.76 124.605 22.2C124.272 21.6267 124.105 20.9933 124.105 20.3V16.48H121.845V13.68H124.105V10.62H127.145V13.68H129.945V16.46H127.145V20.3C127.145 20.5533 127.232 20.7733 127.405 20.96C127.592 21.1333 127.812 21.22 128.065 21.22H130.145ZM136.401 24.24C135.455 24.24 134.555 24.1067 133.701 23.84C132.861 23.56 132.115 23.1733 131.461 22.68L132.741 20.7C133.968 21.4067 135.188 21.76 136.401 21.76C136.948 21.76 137.335 21.7 137.561 21.58C137.801 21.4467 137.921 21.26 137.921 21.02C137.921 20.7933 137.801 20.6267 137.561 20.52C137.321 20.4 136.881 20.26 136.241 20.1C134.788 19.7667 133.728 19.3533 133.061 18.86C132.408 18.3533 132.081 17.64 132.081 16.72C132.081 15.7333 132.475 14.94 133.261 14.34C134.048 13.74 135.101 13.44 136.421 13.44C137.128 13.44 137.835 13.54 138.541 13.74C139.248 13.94 139.888 14.2067 140.461 14.54L139.421 16.66C138.368 16.18 137.368 15.94 136.421 15.94C136.021 15.94 135.695 16.0133 135.441 16.16C135.201 16.3067 135.081 16.5067 135.081 16.76C135.081 17.0267 135.201 17.2133 135.441 17.32C135.681 17.4267 136.135 17.5333 136.801 17.64C138.161 17.8933 139.188 18.2867 139.881 18.82C140.575 19.3533 140.921 20.0667 140.921 20.96C140.921 21.9733 140.515 22.7733 139.701 23.36C138.901 23.9467 137.801 24.24 136.401 24.24Z" fill="black"/>
<path d="M133 187C157.853 187 178 166.853 178 142C178 117.147 157.853 97 133 97C108.147 97 88 117.147 88 142C88 166.853 108.147 187 133 187Z" stroke="#0018C6" stroke-width="4" stroke-miterlimit="10"/>
<path d="M119.14 148.95C119.14 147.62 119.14 146.29 119.14 144.96C119.14 143.35 119.14 141.73 119.14 140.12C119.14 138.77 119.14 137.42 119.14 136.07C119.14 134.47 119.14 132.87 119.14 131.28C119.14 130.63 119.14 129.97 119.14 129.32C119.14 127.86 119.46 127.37 120.79 126.81H120.98C121.12 126.97 121.31 126.9 121.48 126.9C127.91 126.9 134.33 126.9 140.76 126.9C141.8 126.98 142.58 127.88 142.58 128.99C142.58 143.89 142.58 158.8 142.59 173.7C142.59 174.81 142.08 175.49 141.14 175.94C140.98 175.94 140.82 175.96 140.66 175.96C134.27 175.96 127.87 175.94 121.48 175.98C120.22 175.98 119.02 175.16 119.12 173.6C119.17 172.9 119.13 172.19 119.14 171.49C119.14 169.89 119.14 168.29 119.14 166.7V162.65C119.14 161.04 119.14 159.42 119.14 157.81C119.14 156.48 119.14 155.15 119.14 153.82V148.97V148.95ZM135.38 169.6C136.5 169.6 137.62 169.62 138.74 169.61C139.31 169.61 139.78 169.2 139.89 168.64C139.93 168.41 139.95 168.16 139.95 167.93C139.95 156.89 139.95 145.86 139.95 134.82C139.95 134.58 139.93 134.34 139.89 134.11C139.79 133.56 139.31 133.15 138.74 133.14C137.62 133.14 136.5 133.14 135.38 133.15C132.49 133.15 129.59 133.13 126.69 133.15C125.98 133.15 125.5 133.66 125.47 134.37C125.47 134.5 125.47 134.63 125.47 134.75V168.01C125.47 168.14 125.47 168.27 125.47 168.39C125.5 169.1 125.98 169.61 126.69 169.61C129.58 169.61 132.48 169.61 135.38 169.61V169.6Z" fill="#FEB024"/>
<path d="M141.14 175.93C142.08 175.48 142.59 174.8 142.59 173.69C142.57 158.79 142.57 143.88 142.58 128.98C142.58 127.87 141.79 126.97 140.76 126.89C140.76 126.86 140.76 126.83 140.76 126.8H144.7C145.93 127.27 146.38 128.19 146.31 129.45C146.28 130.07 146.32 130.69 146.33 131.31C146.33 132.88 146.33 134.46 146.33 136.03C146.27 137.4 146.28 138.78 146.33 140.15C146.33 141.73 146.33 143.32 146.33 144.9V148.99V153.75C146.33 155.11 146.33 156.48 146.33 157.84V162.59C146.29 163.96 146.28 165.34 146.34 166.71V171.43C146.33 172.16 146.31 172.9 146.3 173.63C146.28 175.1 145.44 175.94 143.98 175.94C143.04 175.94 142.1 175.93 141.16 175.92L141.14 175.93Z" fill="#FE901F"/>
<path d="M140.75 126.8C140.75 126.8 140.75 126.86 140.75 126.89C134.32 126.89 127.9 126.89 121.47 126.89C121.3 126.89 121.11 126.95 120.97 126.8H140.74H140.75Z" fill="#FE9C20"/>
<path d="M119.14 140.12C119.14 141.73 119.14 143.35 119.14 144.96C118.96 144.88 118.76 144.91 118.57 144.91C117.07 144.91 115.56 144.91 114.06 144.91C112.92 144.91 112.4 144.37 112.39 143.23C112.39 142.7 112.39 142.17 112.39 141.65C112.41 140.73 112.98 140.16 113.9 140.16C115.45 140.16 117 140.16 118.55 140.16C118.74 140.16 118.93 140.14 119.12 140.13L119.14 140.12Z" fill="#FE901F"/>
<path d="M119.14 157.79C119.14 159.4 119.14 161.02 119.14 162.63C117.46 162.62 115.78 162.61 114.11 162.6C112.93 162.6 112.41 162.08 112.4 160.92C112.4 160.42 112.4 159.93 112.4 159.43C112.4 158.4 112.95 157.85 114.02 157.84C115.54 157.83 117.06 157.84 118.58 157.84C118.77 157.84 118.96 157.87 119.15 157.79H119.14Z" fill="#FE901F"/>
<path d="M119.14 148.95V153.79C118.26 153.7 117.38 153.77 116.51 153.75C115.66 153.74 114.82 153.75 113.97 153.75C112.98 153.74 112.42 153.18 112.41 152.21C112.41 151.65 112.41 151.09 112.41 150.53C112.42 149.56 112.99 148.99 113.97 148.99C115.5 148.99 117.04 148.99 118.57 148.99C118.76 148.99 118.95 148.97 119.14 148.95Z" fill="#FE901E"/>
<path d="M146.3 144.9C146.3 143.32 146.3 141.73 146.3 140.15C148.01 140.15 149.72 140.15 151.43 140.15C152.33 140.15 152.92 140.68 152.97 141.57C153 142.19 153 142.82 152.97 143.44C152.92 144.37 152.37 144.9 151.42 144.91C149.71 144.92 148 144.91 146.29 144.91L146.3 144.9Z" fill="#FE6E3C"/>
<path d="M146.31 162.6V157.85C148.01 157.85 149.72 157.83 151.43 157.85C152.37 157.85 152.93 158.38 152.98 159.32C153.01 159.94 153.01 160.57 152.98 161.19C152.93 162.08 152.35 162.61 151.44 162.61C149.73 162.61 148.02 162.61 146.31 162.61V162.6Z" fill="#FE6E3C"/>
<path d="M146.31 153.75V148.99C148.02 148.99 149.73 148.99 151.43 148.99C152.38 148.99 152.95 149.56 152.96 150.51C152.96 151.08 152.96 151.66 152.96 152.23C152.95 153.17 152.37 153.75 151.43 153.75C149.72 153.75 148.01 153.75 146.31 153.75Z" fill="#FE6E3C"/>
<path d="M119.14 131.27C119.14 132.87 119.14 134.47 119.14 136.06C117.5 136.05 115.85 136.03 114.21 136.03C112.87 136.03 112.41 135.56 112.41 134.21C112.41 133.71 112.4 133.22 112.41 132.72C112.43 131.86 113.01 131.29 113.88 131.29C115.45 131.29 117.01 131.29 118.58 131.29C118.77 131.29 118.96 131.27 119.15 131.26L119.14 131.27Z" fill="#FE901E"/>
<path d="M119.14 166.68C119.14 168.28 119.14 169.88 119.14 171.47C117.46 171.47 115.79 171.45 114.11 171.44C112.91 171.44 112.4 170.93 112.4 169.72C112.4 169.24 112.4 168.76 112.4 168.28C112.4 167.25 112.95 166.71 113.96 166.71C115.49 166.71 117.03 166.71 118.56 166.71C118.75 166.71 118.94 166.69 119.13 166.68H119.14Z" fill="#FE901E"/>
<path d="M146.32 136.03C146.32 134.46 146.32 132.88 146.32 131.31C148.05 131.31 149.77 131.31 151.5 131.31C152.37 131.31 152.95 131.87 152.97 132.74C152.99 133.36 152.99 133.99 152.97 134.61C152.95 135.48 152.39 136.03 151.5 136.04C149.77 136.04 148.05 136.04 146.32 136.04V136.03Z" fill="#FE6D3A"/>
<path d="M146.32 171.44V166.72C148.05 166.72 149.78 166.71 151.5 166.72C152.38 166.72 152.94 167.27 152.97 168.15C152.99 168.77 152.99 169.4 152.97 170.02C152.95 170.88 152.37 171.44 151.5 171.45C149.77 171.45 148.05 171.45 146.32 171.45V171.44Z" fill="#FE6D3A"/>
<path d="M135.37 169.6C132.48 169.6 129.58 169.62 126.68 169.6C125.97 169.6 125.49 169.09 125.46 168.38C125.46 168.25 125.46 168.12 125.46 168V134.74C125.46 134.61 125.46 134.48 125.46 134.36C125.5 133.65 125.97 133.15 126.68 133.14C129.57 133.14 132.47 133.14 135.37 133.14C136.05 133.46 136.24 133.99 136.24 134.73C136.22 145.82 136.22 156.9 136.24 167.99C136.24 168.72 136.04 169.26 135.37 169.59V169.6ZM133.44 146.93C132.42 147.09 131.45 147.24 130.48 147.41C129.44 147.59 129.46 147.6 129.46 148.64C129.46 149.03 129.62 149.13 129.97 149.13C131.78 149.12 133.58 149.12 135.39 149.13C135.77 149.13 135.89 148.99 135.88 148.62C135.88 148.27 135.76 148.14 135.4 148.14C134.22 148.15 133.04 148.14 131.86 148.14C132.99 147.84 134.14 147.63 135.28 147.44C135.61 147.38 135.89 147.36 135.88 146.89C135.88 146.45 135.72 146.28 135.31 146.27C135.14 146.27 134.96 146.21 134.79 146.19C133.79 146.02 132.78 145.85 131.78 145.68C132.99 145.6 134.19 145.59 135.38 145.61C135.77 145.61 135.87 145.46 135.87 145.1C135.87 144.74 135.74 144.64 135.39 144.64C133.76 144.66 132.13 144.64 130.5 144.64C129.39 144.64 129.4 144.64 129.46 145.77C129.47 146.05 129.57 146.16 129.85 146.2C130.59 146.31 131.33 146.43 132.07 146.58C132.51 146.67 132.99 146.65 133.44 146.92V146.93ZM132.67 158.11C133.56 158.11 134.46 158.1 135.35 158.11C135.85 158.12 135.87 157.83 135.88 157.46C135.88 157.07 135.83 156.81 135.34 156.82C134.65 156.84 133.97 156.82 133.28 156.82C133.17 156.82 132.98 156.89 132.96 156.71C132.94 156.53 133.14 156.56 133.25 156.53C133.99 156.34 134.73 156.16 135.47 155.97C135.84 155.87 136.01 155.41 135.85 154.94C135.72 154.57 135.44 154.67 135.18 154.75C134.51 154.96 133.84 155.17 133.18 155.4C132.93 155.49 132.78 155.49 132.59 155.23C132.14 154.6 131.45 154.59 130.77 154.68C130.11 154.77 129.73 155.18 129.57 155.82C129.43 156.39 129.5 156.96 129.47 157.54C129.45 157.95 129.61 158.12 130.03 158.11C130.91 158.09 131.79 158.11 132.66 158.11H132.67ZM129.48 151.98C129.39 152.41 129.57 152.61 130 152.7C131.69 153.04 133.37 153.42 135.06 153.78C135.84 153.95 135.91 153.88 135.88 153.08C135.87 152.8 135.78 152.63 135.48 152.6C135.23 152.57 134.98 152.5 134.73 152.46C134.62 152.44 134.53 152.42 134.5 152.27C134.39 151.76 134.5 151.58 135.01 151.49C135.18 151.46 135.36 151.43 135.53 151.39C135.86 151.31 136 150.89 135.87 150.39C135.78 150.04 135.53 150.12 135.29 150.17C133.53 150.55 131.77 150.93 130 151.3C129.6 151.38 129.39 151.55 129.48 151.98Z" fill="#2E5872"/>
<path d="M135.37 169.6C136.04 169.28 136.24 168.74 136.24 168C136.22 156.91 136.22 145.83 136.24 134.74C136.24 134 136.05 133.47 135.37 133.15C136.49 133.15 137.61 133.13 138.73 133.14C139.3 133.14 139.77 133.55 139.88 134.11C139.92 134.34 139.94 134.59 139.94 134.82C139.94 145.86 139.94 156.89 139.94 167.93C139.94 168.17 139.92 168.41 139.88 168.64C139.78 169.19 139.3 169.6 138.73 169.61C137.61 169.61 136.49 169.61 135.37 169.6Z" fill="#204958"/>
<path d="M133.45 146.92C133 146.66 132.53 146.67 132.09 146.58C131.36 146.43 130.61 146.3 129.87 146.2C129.59 146.16 129.5 146.05 129.48 145.77C129.42 144.64 129.41 144.64 130.52 144.64C132.15 144.64 133.78 144.64 135.41 144.64C135.76 144.64 135.89 144.74 135.89 145.1C135.89 145.46 135.79 145.62 135.4 145.61C134.2 145.59 133 145.61 131.8 145.68C132.8 145.85 133.81 146.02 134.81 146.19C134.98 146.22 135.16 146.27 135.33 146.27C135.75 146.27 135.9 146.45 135.9 146.89C135.9 147.36 135.63 147.38 135.3 147.44C134.16 147.63 133.02 147.84 131.88 148.14C133.06 148.14 134.24 148.14 135.42 148.14C135.77 148.14 135.89 148.27 135.9 148.62C135.9 148.99 135.79 149.13 135.41 149.13C133.6 149.12 131.8 149.12 129.99 149.13C129.63 149.13 129.48 149.03 129.48 148.64C129.48 147.59 129.46 147.58 130.5 147.41C131.47 147.24 132.44 147.09 133.46 146.93L133.45 146.92Z" fill="#FAF8FA"/>
<path d="M132.68 158.1C131.8 158.1 130.92 158.09 130.05 158.1C129.63 158.1 129.47 157.94 129.49 157.53C129.52 156.96 129.45 156.38 129.59 155.81C129.75 155.17 130.13 154.76 130.79 154.67C131.47 154.58 132.16 154.59 132.61 155.22C132.79 155.48 132.94 155.48 133.2 155.39C133.86 155.16 134.53 154.95 135.2 154.74C135.46 154.65 135.74 154.55 135.87 154.93C136.03 155.4 135.87 155.86 135.49 155.96C134.75 156.15 134.01 156.33 133.27 156.52C133.16 156.55 132.96 156.52 132.98 156.7C133 156.88 133.18 156.81 133.3 156.81C133.99 156.81 134.67 156.83 135.36 156.81C135.84 156.79 135.9 157.06 135.9 157.45C135.9 157.82 135.87 158.11 135.37 158.1C134.48 158.08 133.58 158.1 132.69 158.1H132.68ZM131.3 156.82C131.43 156.82 131.56 156.84 131.68 156.82C131.84 156.79 132.1 156.96 132.14 156.65C132.18 156.38 132.11 156.14 131.8 156.04C131.42 155.92 131.05 155.91 130.68 156.06C130.42 156.16 130.41 156.39 130.42 156.62C130.43 156.9 130.65 156.82 130.81 156.83C130.97 156.84 131.13 156.83 131.29 156.83L131.3 156.82Z" fill="#FBF9FA"/>
<path d="M129.49 151.97C129.39 151.54 129.61 151.37 130.01 151.29C131.78 150.92 133.54 150.54 135.3 150.16C135.53 150.11 135.79 150.03 135.88 150.38C136.01 150.88 135.88 151.29 135.54 151.38C135.37 151.42 135.2 151.45 135.02 151.48C134.52 151.57 134.41 151.76 134.51 152.26C134.54 152.41 134.63 152.43 134.74 152.45C134.99 152.5 135.24 152.57 135.49 152.59C135.79 152.62 135.88 152.79 135.89 153.07C135.92 153.86 135.85 153.93 135.07 153.77C133.38 153.41 131.7 153.04 130.01 152.69C129.58 152.6 129.4 152.4 129.49 151.97ZM131.56 151.96C131.56 151.96 131.56 152 131.56 152.01C132.19 152.1 132.82 152.19 133.44 152.29C133.71 152.34 133.74 152.2 133.72 152C133.71 151.84 133.8 151.62 133.48 151.67C132.84 151.77 132.19 151.85 131.55 151.95L131.56 151.96Z" fill="#FAF8FA"/>
<path d="M131.3 156.83C131.14 156.83 130.98 156.83 130.82 156.83C130.66 156.83 130.44 156.91 130.43 156.62C130.42 156.39 130.43 156.16 130.69 156.06C131.06 155.92 131.44 155.93 131.81 156.04C132.11 156.14 132.18 156.37 132.15 156.65C132.11 156.96 131.85 156.79 131.69 156.82C131.57 156.84 131.44 156.82 131.31 156.82L131.3 156.83Z" fill="#386079"/>
<path d="M131.56 151.96C132.2 151.87 132.85 151.78 133.49 151.68C133.81 151.63 133.72 151.85 133.73 152.01C133.75 152.21 133.73 152.34 133.45 152.3C132.82 152.19 132.19 152.11 131.57 152.02C131.57 152 131.57 151.98 131.57 151.97L131.56 151.96Z" fill="#3E657D"/>
<path d="M99.83 135.97L99.56 137.08L102.91 137.9L102.34 140.23L92.14 137.72L93.14 133.64C93.62 131.7 95.56 130.53 97.5 131C98.75 131.31 99.7 132.35 100 133.61L104.28 132.36L103.66 134.87L99.84 135.97H99.83ZM97.52 136.58L97.95 134.83C98.11 134.19 97.67 133.52 96.92 133.34C96.18 133.16 95.48 133.54 95.32 134.18L94.89 135.93L97.51 136.58H97.52Z" fill="black"/>
<path d="M101.6 122L108.13 125.68L107.02 127.64L106.41 127.29C106.66 128 106.6 128.81 106.11 129.69C105.15 131.4 102.85 131.96 100.9 130.87C98.95 129.77 98.25 127.51 99.21 125.8C99.7 124.92 100.36 124.45 101.1 124.3L100.49 123.95L101.6 121.99V122ZM103.76 125.8C102.78 125.25 101.8 125.55 101.29 126.46C100.78 127.36 101.03 128.36 102.01 128.91C102.99 129.46 103.97 129.16 104.48 128.25C104.99 127.35 104.74 126.35 103.76 125.8Z" fill="black"/>
<path d="M113.85 113.93L116.89 117.39L115.2 118.88L112.28 115.57C111.78 115.01 111.2 114.88 110.66 115.36C110.1 115.86 110.13 116.53 110.71 117.19L113.51 120.37L111.82 121.86L108.9 118.55C108.4 117.99 107.82 117.86 107.28 118.34C106.72 118.84 106.75 119.51 107.33 120.17L110.13 123.35L108.44 124.84L103.48 119.21L105.17 117.72L105.63 118.24C105.55 117.63 105.79 116.9 106.54 116.24C107.21 115.65 107.94 115.49 108.67 115.68C108.59 114.95 108.85 114.2 109.65 113.5C110.95 112.36 112.6 112.54 113.84 113.95L113.85 113.93Z" fill="black"/>
<path d="M127.81 114.21L126.65 113.48C126.07 114.16 125.28 114.7 124.24 114.97C122.15 115.52 120.31 114.79 119.81 112.87C119.5 111.71 119.79 110.47 120.66 109.53C120.28 109.15 119.98 108.69 119.81 108.03C119.35 106.32 120.34 104.71 122.28 104.19C123.74 103.8 125.18 104.19 126.2 105.52L124.52 107.19C124.08 106.58 123.56 106.27 122.91 106.44C122.33 106.59 122.03 107.06 122.16 107.55C122.31 108.11 122.76 108.4 123.34 108.77L125.76 110.35C125.84 109.83 125.86 109.25 125.81 108.63L128.05 109.22C128.05 109.98 127.95 110.81 127.69 111.6L129.34 112.68L127.81 114.2V114.21ZM124.82 112.3L122.43 110.79L122.32 110.73C122.02 111.13 121.98 111.6 122.08 112C122.26 112.68 122.83 113.07 123.86 112.8C124.24 112.7 124.55 112.54 124.81 112.3H124.82Z" fill="black"/>
<path d="M133.31 110.95L135.53 110.05C135.78 110.96 136.34 111.63 137.51 111.8C138.64 111.96 138.98 111.55 139.04 111.15C139.13 110.51 138.57 110.18 137.07 109.53C135.59 108.88 134.18 107.93 134.46 105.94C134.74 103.94 136.6 103.02 138.39 103.27C140.1 103.51 141.32 104.52 141.86 106.15L139.69 107.04C139.44 106.25 139.01 105.72 138.06 105.58C137.32 105.48 136.89 105.79 136.84 106.21C136.77 106.69 136.98 107.05 138.53 107.77C140.04 108.47 141.73 109.26 141.42 111.46C141.14 113.46 139.37 114.43 137.11 114.11C134.93 113.8 133.68 112.57 133.32 110.96L133.31 110.95Z" fill="black"/>
<path d="M145.85 110.73L144.93 113.22C144.71 113.82 145.21 114.07 146.15 114.36L145.44 116.27C142.58 115.53 142.08 114.4 142.81 112.43L143.73 109.94L142.6 109.52L143.35 107.49L144.47 107.91L144.97 106.57L147.31 106.72L146.58 108.69L148.03 109.23L147.28 111.26L145.83 110.72L145.85 110.73Z" fill="black"/>
<path d="M147.73 113.05C148.94 111.17 151.35 110.67 153.21 111.86C155.07 113.05 155.63 115.46 154.42 117.34C153.21 119.22 150.8 119.72 148.94 118.53C147.08 117.34 146.52 114.93 147.73 113.05ZM152.53 116.12C153.1 115.22 152.85 114.23 152.03 113.7C151.21 113.17 150.2 113.36 149.62 114.26C149.05 115.16 149.3 116.15 150.12 116.68C150.94 117.21 151.95 117.02 152.53 116.12Z" fill="black"/>
<path d="M161.42 118.93L159.61 120.73C159.06 119.96 157.87 119.29 156.81 120.34L154.41 122.73L152.83 121.13L158.15 115.85L159.74 117.45L158.79 118.39C159.71 117.89 160.76 118.27 161.43 118.94L161.42 118.93Z" fill="black"/>
<path d="M166.74 126.96L160.4 130.97L159.2 129.07L159.8 128.69C159.05 128.58 158.37 128.14 157.83 127.29C156.78 125.63 157.37 123.34 159.26 122.14C161.15 120.95 163.47 121.39 164.52 123.06C165.06 123.91 165.16 124.72 164.94 125.44L165.54 125.06L166.74 126.96ZM162.37 127.06C163.32 126.46 163.52 125.45 162.96 124.57C162.41 123.69 161.41 123.44 160.46 124.04C159.51 124.64 159.31 125.65 159.87 126.53C160.43 127.41 161.42 127.66 162.37 127.06Z" fill="black"/>
<path d="M170.13 137.18L163.28 139.14C160.86 139.84 159.29 138.24 158.74 136.32C158.31 134.82 158.51 133.41 159.5 132.4L161.1 133.94C160.67 134.36 160.39 134.89 160.66 135.84C160.95 136.85 161.65 137.32 162.67 137.03L163.33 136.84C162.6 136.53 162.06 135.94 161.79 135C161.2 132.95 162.44 130.98 164.43 130.4C166.42 129.83 168.52 130.85 169.11 132.9C169.38 133.84 169.23 134.63 168.78 135.27L169.51 135.06L170.11 137.16L170.13 137.18ZM166.07 136.07C167.07 135.78 167.54 134.87 167.24 133.85C166.95 132.83 166.06 132.3 165.07 132.59C164.07 132.88 163.6 133.79 163.9 134.81C164.19 135.83 165.08 136.36 166.07 136.07Z" fill="black"/>
<path d="M164.84 143.99C164.84 144.6 165.09 145.13 165.42 145.43L164.4 147.24C163.38 146.51 162.84 145.41 162.84 143.98C162.82 141.42 164.54 139.82 166.77 139.8C169 139.79 170.74 141.4 170.75 143.77C170.76 145.96 169.08 147.59 166.81 147.6C166.49 147.6 166.19 147.57 165.91 147.52L165.88 142.2C165.1 142.49 164.84 143.18 164.84 144.01V143.99ZM167.58 145.35C168.45 145.11 168.76 144.43 168.76 143.75C168.76 142.9 168.33 142.33 167.57 142.12L167.59 145.34L167.58 145.35Z" fill="black"/>
<path d="M260 187C284.853 187 305 166.853 305 142C305 117.147 284.853 97 260 97C235.147 97 215 117.147 215 142C215 166.853 235.147 187 260 187Z" stroke="#0018C6" stroke-width="4" stroke-miterlimit="10"/>
<path d="M293.48 132.28V163.51C293.08 164.46 292.19 165.11 291.16 165.21H286.55C285.78 165.08 284.99 165.08 284.21 165.21H280.79C280.79 165.21 280.71 165.19 280.68 165.21C280.05 165.09 279.4 165.07 278.76 165.16H274.76C274.12 165.07 273.46 165.09 272.83 165.21C272.83 165.21 272.76 165.19 272.73 165.21H269.29C268.52 165.08 267.73 165.08 266.95 165.21H262.34C260.8 165.15 259.25 165.15 257.7 165.21H253.09C252.32 165.08 251.53 165.08 250.75 165.21H247.33C247.33 165.21 247.25 165.19 247.22 165.21C246.59 165.09 245.94 165.07 245.3 165.16H235.84V130.53H290.49C291.9 130.56 292.93 130.94 293.5 132.28H293.48ZM248.48 147.87V151.39C248.46 153.93 250.51 156 253.04 156.02C255.58 156.04 257.65 153.99 257.67 151.46V149.17C257.67 148.28 257.24 147.88 256.33 147.86H254.43C253.59 147.86 253.06 148.33 253.07 149.03C253.08 149.73 253.61 150.16 254.46 150.16C255.31 150.16 255.4 150.16 255.39 151.1C255.49 152.38 254.54 153.5 253.26 153.6C251.98 153.7 250.86 152.75 250.76 151.47C250.76 151.35 250.76 151.23 250.76 151.1V144.56C250.74 144.1 250.85 143.64 251.07 143.24C251.7 142.13 253.11 141.74 254.22 142.36C254.94 142.77 255.39 143.52 255.4 144.35C255.51 145.17 255.97 145.61 256.65 145.56C257.33 145.51 257.71 144.99 257.68 144.16C257.56 141.62 255.4 139.67 252.86 139.79C250.52 139.9 248.64 141.76 248.5 144.09C248.46 145.34 248.5 146.6 248.5 147.87H248.48ZM271.53 146.26V151.23C271.48 152.81 272.26 154.31 273.6 155.16C274.97 156.14 276.78 156.24 278.26 155.42C279.8 154.69 280.78 153.13 280.76 151.43C280.82 147.99 280.76 144.54 280.76 141.1C280.76 140.95 280.74 140.8 280.7 140.65C280.59 140.14 280.13 139.78 279.6 139.8C279.08 139.78 278.63 140.14 278.53 140.65C278.47 140.91 278.45 141.18 278.46 141.45V151.19C278.53 152.46 277.56 153.55 276.29 153.62C275.02 153.69 273.93 152.72 273.86 151.45C273.86 151.36 273.86 151.28 273.86 151.19V141.03C273.9 140.51 273.58 140.03 273.08 139.87C272.61 139.69 272.08 139.84 271.79 140.25C271.59 140.54 271.5 140.89 271.54 141.25V146.28L271.53 146.26ZM260 147.83V154.69C259.95 155.28 260.36 155.82 260.94 155.92C261.45 156.02 261.97 155.76 262.18 155.28C262.29 155.02 262.34 154.73 262.33 154.44V149.61C262.33 149.11 262.48 148.96 262.96 149C263.56 149.04 264.17 149 264.78 149C267.22 148.92 269.18 146.95 269.25 144.51C269.33 142.11 267.53 140.06 265.14 139.83C263.93 139.73 262.71 139.77 261.51 139.77C260.41 139.77 260.06 140.17 260.06 141.29L259.99 147.82L260 147.83ZM239.22 136.88V138.51C239.17 139.15 239.65 139.71 240.29 139.76C240.93 139.81 241.49 139.33 241.54 138.69C241.54 138.63 241.54 138.57 241.54 138.51V136.81C241.54 136.45 241.64 136.31 242.02 136.33H243.72C244.36 136.4 244.93 135.94 245 135.3C245.07 134.66 244.61 134.09 243.97 134.02C243.88 134.02 243.8 134.02 243.71 134.02H240.51C239.86 133.95 239.28 134.42 239.21 135.07C239.21 135.15 239.21 135.23 239.21 135.32C239.21 135.83 239.21 136.36 239.21 136.87L239.22 136.88Z" fill="#26B899"/>
<path d="M235.82 165.19C235.82 166.32 235.82 167.46 235.78 168.58C235.82 169.52 235.29 170.38 234.43 170.76C233.65 171.16 232.7 171.05 232.03 170.48C231.39 169.97 231.04 169.18 231.11 168.37V127.43C231.11 125.79 231.31 125.94 229.66 125.98C228.21 126.02 227.09 125.62 226.53 124.17V123.13C227.05 121.71 228.1 121.23 229.54 121.3C230.71 121.36 231.89 121.3 233.06 121.3C234.88 121.3 235.78 122.2 235.78 124.03V164.29C235.78 164.6 235.81 164.9 235.82 165.2V165.19Z" fill="#BBC3C6"/>
<path d="M231.1 146.7V161.71H228.1C227.46 161.8 226.83 161.48 226.52 160.91V147.44C226.9 146.91 227.54 146.63 228.19 146.71C229.16 146.72 230.13 146.7 231.1 146.7Z" fill="#94A4A4"/>
<path d="M231.1 132.85V142.09H228.1C227.46 142.17 226.84 141.86 226.52 141.3V133.59C226.91 133.06 227.55 132.78 228.2 132.86C229.17 132.87 230.13 132.86 231.1 132.86V132.85Z" fill="#94A4A4"/>
<path d="M248.48 147.87V144.08C248.64 141.55 250.82 139.62 253.36 139.78C255.7 139.93 257.55 141.81 257.66 144.14C257.66 144.97 257.31 145.48 256.63 145.54C255.95 145.6 255.49 145.16 255.38 144.33C255.34 143.05 254.27 142.05 253 142.09C252.19 142.12 251.46 142.56 251.06 143.27C250.84 143.68 250.74 144.13 250.75 144.59V151.13C250.65 152.41 251.6 153.53 252.88 153.63C254.16 153.73 255.28 152.78 255.38 151.5C255.38 151.38 255.38 151.26 255.38 151.13C255.38 150.516 255.07 150.203 254.45 150.19C253.52 150.18 253.07 149.74 253.06 149.04C253.06 148.34 253.58 147.89 254.42 147.87H256.32C257.24 147.87 257.65 148.28 257.66 149.18V151.47C257.64 154.01 255.57 156.05 253.03 156.03C250.49 156.01 248.45 153.94 248.47 151.4V147.86L248.48 147.87Z" fill="#FCFDFD"/>
<path d="M271.54 146.27V141.24C271.5 140.89 271.59 140.54 271.78 140.24C272.08 139.84 272.61 139.68 273.07 139.86C273.57 140.02 273.89 140.5 273.85 141.02V151.15C273.78 152.42 274.75 153.51 276.02 153.58C277.29 153.65 278.38 152.68 278.45 151.41C278.45 151.32 278.45 151.24 278.45 151.15V141.41C278.44 141.15 278.46 140.89 278.52 140.64C278.62 140.12 279.1 139.76 279.62 139.79C280.14 139.77 280.61 140.13 280.72 140.64C280.76 140.79 280.78 140.94 280.78 141.09V151.42C280.8 153.13 279.82 154.69 278.28 155.41C276.81 156.23 275 156.13 273.62 155.15C272.28 154.3 271.5 152.8 271.55 151.22C271.53 149.56 271.55 147.91 271.55 146.25L271.54 146.27Z" fill="#FAFDFC"/>
<path d="M260 147.83V141.29C260 140.17 260.38 139.77 261.45 139.77C262.67 139.77 263.89 139.73 265.08 139.83C267.47 140.06 269.27 142.11 269.19 144.51C269.12 146.95 267.16 148.92 264.72 149C264.11 149 263.5 149.04 262.9 149C262.41 149 262.26 149.11 262.27 149.61C262.31 151.22 262.27 152.83 262.27 154.44C262.29 154.72 262.25 155.01 262.14 155.28C261.93 155.76 261.41 156.02 260.9 155.92C260.31 155.82 259.9 155.28 259.96 154.69V149.14L260.01 147.84L260 147.83ZM262.33 144.35V146.11C262.33 146.51 262.4 146.71 262.86 146.68C263.46 146.64 264.07 146.68 264.68 146.68C265.94 146.67 266.95 145.64 266.94 144.38C266.93 143.12 265.91 142.1 264.65 142.08H262.83C262.42 142.08 262.31 142.23 262.33 142.61V144.35Z" fill="#FAFDFC"/>
<path d="M257.69 165.23V168.37C257.78 169.08 257.29 169.73 256.58 169.82C256.47 169.84 256.35 169.84 256.24 169.82H253.1V165.22H257.69V165.23Z" fill="#EFC31A"/>
<path d="M266.93 169.78H263.66C262.96 169.81 262.36 169.27 262.33 168.57C262.33 168.53 262.33 168.48 262.33 168.44V165.24H266.94C266.93 166.74 266.93 168.27 266.93 169.79V169.78Z" fill="#EFC31A"/>
<path d="M291.16 165.23V168.36C291.25 169.07 290.76 169.72 290.05 169.81C289.94 169.83 289.82 169.83 289.71 169.81H286.57V165.21H291.16V165.23Z" fill="#EFC31A"/>
<path d="M244.98 169.78H241.72C241.02 169.81 240.42 169.27 240.39 168.57C240.39 168.52 240.39 168.46 240.39 168.41V165.21H244.98C244.98 166.73 244.98 168.25 244.98 169.77V169.78Z" fill="#EFC31A"/>
<path d="M239.22 136.88V135.31C239.15 134.66 239.62 134.08 240.27 134.01C240.36 134.01 240.45 134.01 240.54 134.01H243.74C244.38 133.94 244.95 134.4 245.02 135.04C245.09 135.68 244.63 136.25 243.99 136.32C243.9 136.32 243.82 136.32 243.73 136.32H242.03C241.65 136.32 241.54 136.44 241.55 136.8V138.5C241.6 139.14 241.12 139.7 240.48 139.75C239.84 139.8 239.28 139.32 239.23 138.68C239.23 138.62 239.23 138.56 239.23 138.5C239.19 137.97 239.2 137.43 239.2 136.88H239.22Z" fill="#F9FDFC"/>
<path d="M250.75 169.78H247.31C247.31 169.78 247.31 169.71 247.31 169.68V165.18H250.71C250.71 166.73 250.71 168.26 250.75 169.78Z" fill="#EFC319"/>
<path d="M272.69 169.78H269.25V165.2H272.67V169.78H272.69Z" fill="#EFC319"/>
<path d="M278.46 169.78H275.02V165.2H278.43C278.44 166.73 278.45 168.26 278.45 169.78H278.46Z" fill="#EFC319"/>
<path d="M284.23 169.78H280.79C280.79 169.78 280.79 169.71 280.79 169.68V165.18H284.21C284.21 166.72 284.21 168.26 284.22 169.78H284.23Z" fill="#EFC319"/>
<path d="M269.28 165.21V169.79H266.96V165.23C267.73 165.1 268.51 165.09 269.28 165.22V165.21Z" fill="#B09146"/>
<path d="M250.75 169.78V165.2C251.52 165.07 252.31 165.07 253.09 165.2V169.78H250.75Z" fill="#B09146"/>
<path d="M284.23 169.78C284.23 168.25 284.23 166.73 284.23 165.2C285 165.07 285.79 165.07 286.57 165.2V169.78H284.23Z" fill="#B09146"/>
<path d="M247.29 165.35V169.71L247.19 169.81H245.01V165.23H245.31C245.95 165.3 246.59 165.31 247.23 165.28L247.29 165.35Z" fill="#B09146"/>
<path d="M275.04 165.21V169.79H272.86L272.76 169.69V165.33L272.85 165.17C273.49 165.2 274.14 165.19 274.78 165.12L275.04 165.21Z" fill="#B09146"/>
<path d="M280.77 165.35V169.71L280.67 169.81H278.49V165.23H278.79C279.43 165.3 280.07 165.31 280.71 165.28L280.77 165.35Z" fill="#B09146"/>
<path d="M247.2 165.22C246.56 165.25 245.91 165.24 245.28 165.17C245.92 165.08 246.57 165.1 247.2 165.22Z" fill="#B09146"/>
<path d="M274.75 165.17C274.11 165.24 273.46 165.25 272.82 165.22C273.46 165.1 274.11 165.08 274.75 165.17Z" fill="#B09146"/>
<path d="M280.67 165.22C280.03 165.25 279.38 165.24 278.75 165.17C279.39 165.08 280.04 165.1 280.67 165.22Z" fill="#B09146"/>
<path d="M280.77 165.35L280.68 165.19C280.68 165.19 280.76 165.17 280.79 165.19L280.77 165.35Z" fill="#B09146"/>
<path d="M272.8 165.19L272.71 165.35V165.21C272.71 165.21 272.77 165.18 272.8 165.19Z" fill="#B09146"/>
<path d="M247.29 165.35L247.2 165.19C247.2 165.19 247.28 165.17 247.31 165.19L247.29 165.35Z" fill="#B09146"/>
<path d="M247.19 169.78L247.29 169.68C247.29 169.68 247.29 169.75 247.29 169.78H247.19Z" fill="#B09146"/>
<path d="M272.71 169.68L272.81 169.78H272.69L272.71 169.68Z" fill="#B09146"/>
<path d="M280.67 169.78L280.77 169.68C280.77 169.68 280.77 169.75 280.77 169.78H280.67Z" fill="#B09146"/>
<path d="M262.34 144.36V142.6C262.34 142.22 262.43 142.05 262.84 142.07H264.66C265.92 142.09 266.94 143.11 266.95 144.37C266.96 145.63 265.95 146.66 264.69 146.67H262.87C262.41 146.67 262.33 146.5 262.34 146.1V144.36Z" fill="#28B99A"/>
<path d="M253.44 112.26C255.09 116.44 253.18 120.13 249.35 121.63C245.05 123.32 240.72 121.37 239.17 117.45C237.61 113.48 239.51 109.08 243.53 107.5C246.15 106.47 248.86 106.89 250.74 108.27L248.68 110.84C247.76 110.16 246.25 109.95 244.71 110.55C242.4 111.46 241.35 113.84 242.3 116.24C243.22 118.56 245.53 119.62 248.18 118.57C250 117.86 250.87 116.59 250.85 115.08L247.2 116.52L246.12 113.78L252.98 111.08L253.44 112.25V112.26Z" fill="black"/>
<path d="M267.8 110.08C267.66 112.87 265.3 115 262.41 114.85L260.21 114.74L259.98 119.36L256.62 119.19L257.37 104.51L262.93 104.79C265.82 104.94 267.95 107.3 267.81 110.09L267.8 110.08ZM264.44 109.91C264.49 108.84 263.78 107.98 262.75 107.93L260.55 107.82L260.36 111.6L262.56 111.71C263.59 111.76 264.39 110.98 264.44 109.91Z" fill="black"/>
<path d="M269.62 115.52L273.79 106.49L276.84 107.9L272.79 116.66C272.32 117.67 272.4 118.75 274.02 119.5C275.64 120.25 276.51 119.61 276.98 118.6L281.03 109.83L284.08 111.24L279.9 120.27C278.58 123.13 275.58 123.82 272.64 122.46C269.71 121.1 268.29 118.37 269.61 115.51L269.62 115.52Z" fill="black"/>
<path d="M387 187C411.853 187 432 166.853 432 142C432 117.147 411.853 97 387 97C362.147 97 342 117.147 342 142C342 166.853 362.147 187 387 187Z" stroke="#0018C6" stroke-width="4" stroke-miterlimit="10"/>
<path d="M362.17 133.26V125.89C362.17 125.57 362.25 125.52 362.54 125.52H373.64C373.7 126.24 373.72 126.96 373.69 127.69C373.69 128.47 373.74 128.51 374.51 128.51H399.4C399.87 128.51 400.04 128.3 400.04 127.87V125.5H411.32C411.44 125.67 411.51 125.87 411.52 126.07V132.83C411.52 133.27 411.32 133.43 410.88 133.42C410.44 133.41 409.92 133.42 409.43 133.42C408.34 133.49 407.51 134.44 407.59 135.53C407.66 136.54 408.47 137.33 409.48 137.38H410.83C411.4 137.38 411.47 137.47 411.47 138.06V162.36C411.47 163 411.4 163.09 410.76 163.09H409.36C408.3 163.17 407.49 164.06 407.51 165.12C407.53 166.18 408.38 167.03 409.44 167.05H410.79C411.43 167.05 411.5 167.13 411.5 167.73V174.29C411.51 174.52 411.45 174.75 411.31 174.93H400.05V172.52C400.05 172.13 399.9 171.93 399.48 171.93H374.32C373.86 171.93 373.68 172.12 373.68 172.57C373.71 173.35 373.69 174.14 373.63 174.92H362.55C362.26 174.92 362.18 174.87 362.18 174.56V167H364.2C365.26 166.98 366.11 166.13 366.13 165.07C366.15 163.99 365.31 163.09 364.23 163.04H362.83C362.6 163.04 362.38 162.98 362.19 162.85V137.57C362.38 137.44 362.6 137.37 362.83 137.38H364.18C365.27 137.33 366.12 136.41 366.07 135.31C366.03 134.3 365.23 133.49 364.22 133.42H362.82C362.59 133.42 362.36 133.36 362.17 133.23V133.26ZM402.76 152.55H404.59C405.2 152.55 405.43 152.24 405.44 151.82C405.45 151.4 405.11 151.09 404.59 151.09H402.76V149.41H404.53C405.1 149.41 405.43 149.12 405.43 148.69C405.43 148.26 405.1 147.97 404.53 147.96C403.96 147.95 403.35 147.96 402.76 147.96V146.29H404.59C405.11 146.29 405.44 145.99 405.44 145.57C405.44 145.15 405.11 144.86 404.59 144.84C404.07 144.82 403.37 144.84 402.76 144.84V143.18H404.59C405.2 143.18 405.44 142.87 405.44 142.45C405.44 142.03 405.11 141.74 404.59 141.74H402.76V140.07H404.59C405.2 140.07 405.44 139.76 405.44 139.34C405.44 138.92 405.12 138.64 404.59 138.62C404.06 138.6 403.37 138.62 402.76 138.62V136.94H404.53C405.1 136.94 405.43 136.66 405.43 136.22C405.43 135.78 405.1 135.51 404.53 135.49C403.96 135.47 403.35 135.49 402.76 135.49C402.72 134.2 402.83 134.34 401.58 134.3V132.47C401.58 131.86 401.27 131.62 400.85 131.62C400.43 131.62 400.14 131.95 400.14 132.47C400.14 132.99 400.14 133.69 400.14 134.3L399.77 134.33L398.48 134.3V132.52C398.48 131.93 398.19 131.62 397.76 131.62C397.33 131.62 397.05 131.96 397.03 132.52C397.01 133.08 397.03 133.71 397.03 134.3H395.33V132.52C395.33 131.92 395.05 131.62 394.62 131.62C394.19 131.62 393.9 131.96 393.89 132.52C393.88 133.08 393.89 133.71 393.89 134.3H392.23V132.47C392.23 131.86 391.93 131.61 391.5 131.61C391.07 131.61 390.79 131.94 390.79 132.47C390.79 133 390.79 133.69 390.79 134.3H389.12V132.47C389.12 131.86 388.82 131.61 388.4 131.61C387.98 131.61 387.67 131.93 387.67 132.46V134.29H385.99V132.51C385.99 131.91 385.71 131.61 385.28 131.61C384.85 131.61 384.56 131.94 384.55 132.51C384.54 133.08 384.55 133.7 384.55 134.29H382.88V132.46C382.88 131.85 382.59 131.6 382.17 131.6C381.75 131.6 381.46 131.93 381.44 132.46C381.42 132.99 381.44 133.68 381.44 134.29H379.78V132.46C379.78 131.85 379.48 131.6 379.05 131.6C378.62 131.6 378.34 131.93 378.34 132.46C378.34 132.99 378.34 133.68 378.34 134.29H376.67V132.46C376.67 131.85 376.36 131.6 375.94 131.6C375.52 131.6 375.24 131.92 375.22 132.46C375.2 133 375.22 133.68 375.22 134.29H373.52V132.51C373.52 131.91 373.25 131.61 372.81 131.61C372.37 131.61 372.1 131.94 372.08 132.51C372.06 133.08 372.08 133.7 372.08 134.29C370.88 134.36 370.95 134.25 370.95 135.48H369.12C368.52 135.48 368.26 135.79 368.27 136.21C368.28 136.63 368.59 136.92 369.12 136.93H370.95V138.61H369.17C368.58 138.61 368.28 138.9 368.28 139.33C368.28 139.76 368.61 140.05 369.17 140.06C369.73 140.07 370.35 140.06 370.95 140.06V141.73H369.14C368.57 141.73 368.25 142.01 368.25 142.44C368.25 142.87 368.58 143.16 369.14 143.17H370.95V144.83H369.09C368.56 144.83 368.23 145.13 368.23 145.56C368.23 145.99 368.56 146.27 369.09 146.28H370.95V147.95H369.12C368.52 147.95 368.27 148.25 368.27 148.68C368.27 149.11 368.59 149.39 369.12 149.39C369.65 149.39 370.34 149.39 370.95 149.39V151.09H369.14C368.57 151.09 368.24 151.37 368.25 151.81C368.26 152.25 368.58 152.52 369.14 152.54C369.7 152.56 370.33 152.54 370.92 152.54V154.21H369.09C368.49 154.21 368.23 154.5 368.23 154.93C368.23 155.36 368.56 155.64 369.09 155.65C369.62 155.66 370.31 155.65 370.92 155.65V157.3H369.09C368.49 157.3 368.24 157.61 368.24 158.03C368.24 158.45 368.56 158.74 369.09 158.74C369.62 158.74 370.31 158.74 370.92 158.74V160.41H369.09C368.49 160.41 368.24 160.72 368.24 161.14C368.24 161.56 368.56 161.85 369.09 161.86C369.62 161.87 370.31 161.86 370.92 161.86V163.57H369.14C368.55 163.57 368.25 163.85 368.25 164.28C368.25 164.71 368.58 165 369.14 165.01H370.95C371 166.23 370.91 166.15 372.13 166.19V168.02C372.13 168.63 372.44 168.87 372.86 168.87C373.28 168.87 373.57 168.55 373.57 168.02C373.57 167.49 373.57 166.8 373.57 166.19H375.24V167.97C375.24 168.56 375.53 168.87 375.96 168.87C376.39 168.87 376.67 168.54 376.69 167.97C376.71 167.4 376.69 166.79 376.69 166.19H378.36V167.97C378.36 168.56 378.64 168.87 379.07 168.87C379.5 168.87 379.79 168.54 379.8 167.97C379.81 167.4 379.8 166.79 379.8 166.19H381.45V168.02C381.45 168.63 381.75 168.87 382.18 168.87C382.61 168.87 382.89 168.54 382.89 168.02C382.89 167.5 382.89 166.8 382.89 166.19H384.55V168.02C384.55 168.63 384.85 168.87 385.28 168.87C385.71 168.87 385.98 168.55 385.99 168.02C386 167.49 385.99 166.8 385.99 166.19H387.66V167.97C387.66 168.56 387.94 168.87 388.38 168.87C388.82 168.87 389.09 168.54 389.11 167.97C389.13 167.4 389.11 166.79 389.11 166.19H390.77V168.02C390.77 168.63 391.06 168.87 391.48 168.87C391.9 168.87 392.19 168.54 392.21 168.02C392.23 167.5 392.21 166.8 392.21 166.19H393.86V168.02C393.86 168.63 394.17 168.87 394.59 168.87C395.01 168.87 395.3 168.55 395.3 168.02C395.3 167.49 395.3 166.8 395.3 166.19H396.97V168.02C396.97 168.63 397.28 168.87 397.7 168.87C398.12 168.87 398.41 168.55 398.42 168.02C398.43 167.49 398.42 166.8 398.42 166.19H399.71L400.08 166.23V168.01C400.08 168.61 400.36 168.9 400.79 168.9C401.22 168.9 401.51 168.57 401.52 168.01C401.53 167.45 401.52 166.82 401.52 166.23C402.81 166.18 402.66 166.3 402.7 165.04H404.53C405.14 165.04 405.38 164.74 405.38 164.31C405.38 163.88 405.06 163.6 404.53 163.6C404 163.6 403.31 163.6 402.7 163.6V161.93H404.47C405.04 161.93 405.37 161.63 405.37 161.2C405.37 160.77 405.03 160.49 404.47 160.47C403.91 160.45 403.29 160.47 402.7 160.47V158.8H404.47C405.04 158.8 405.37 158.52 405.37 158.08C405.37 157.64 405.03 157.36 404.47 157.35C403.91 157.34 403.29 157.35 402.7 157.35V155.65H404.53C405.14 155.65 405.38 155.35 405.38 154.93C405.38 154.51 405.05 154.22 404.53 154.21C404.01 154.2 403.31 154.21 402.7 154.21L402.75 152.54L402.76 152.55ZM366.24 130.85C367.07 130.85 367.74 130.19 367.75 129.36C367.75 129.36 367.75 129.35 367.75 129.34C367.73 128.53 367.07 127.88 366.26 127.87C365.44 127.92 364.82 128.63 364.87 129.46C364.92 130.21 365.51 130.8 366.26 130.85H366.23H366.24ZM408.9 129.36C408.9 128.54 408.23 127.87 407.41 127.87C406.59 127.87 405.92 128.54 405.92 129.36C405.92 130.17 406.57 130.83 407.39 130.84C408.2 130.86 408.88 130.21 408.89 129.4C408.89 129.38 408.89 129.37 408.89 129.35L408.9 129.36ZM364.77 171.26C364.77 172.07 365.43 172.73 366.24 172.73C367.07 172.73 367.75 172.05 367.75 171.22C367.75 170.4 367.08 169.73 366.25 169.73C365.44 169.73 364.77 170.38 364.77 171.19C364.77 171.21 364.77 171.23 364.77 171.25V171.26ZM408.9 171.22C408.9 170.4 408.24 169.74 407.43 169.73C407.43 169.73 407.41 169.73 407.4 169.73C406.58 169.73 405.91 170.4 405.91 171.23C405.91 172.05 406.58 172.72 407.41 172.72C408.23 172.72 408.9 172.05 408.9 171.22Z" fill="#01B6A0"/>
<path d="M397.04 128.51H374.5C373.73 128.51 373.7 128.46 373.68 127.69C373.71 126.97 373.69 126.24 373.63 125.52H397.05V128.51H397.04Z" fill="#F8D77C"/>
<path d="M373.64 174.97C373.7 174.19 373.72 173.4 373.69 172.62C373.69 172.18 373.85 171.98 374.33 171.98H397.04V174.95L373.64 174.98V174.97Z" fill="#F8D77C"/>
<path d="M397.04 128.51V125.53H400.03V127.9C400.03 128.33 399.87 128.54 399.39 128.54C398.61 128.51 397.83 128.51 397.04 128.51Z" fill="#FBBD41"/>
<path d="M397.05 174.97V172H399.46C399.88 172 400.03 172.2 400.03 172.59V175L397.05 174.97Z" fill="#FBBD41"/>
<path d="M375.23 166.2H372.11C370.89 166.15 370.97 166.24 370.93 165.02V135.5C370.98 134.27 370.89 134.36 372.11 134.31H398.47L399.76 134.34V137.52C399.63 137.38 399.44 137.3 399.25 137.31H374.75C373.98 137.31 373.93 137.36 373.93 138.13V162.36C373.93 163.13 373.98 163.18 374.75 163.18H399.26C399.45 163.18 399.63 163.1 399.77 162.97V166.15H375.23V166.2Z" fill="#444B66"/>
<path d="M399.75 137.52V134.34L400.12 134.31H401.57C402.86 134.35 402.71 134.24 402.75 135.5V165.02C402.71 166.31 402.82 166.16 401.57 166.21H400.12L399.75 166.17V137.53V137.52Z" fill="#3D435C"/>
<path d="M366.24 130.85C365.42 130.8 364.8 130.09 364.85 129.26C364.9 128.51 365.49 127.92 366.24 127.87C367.06 127.87 367.73 128.52 367.75 129.34C367.75 130.17 367.09 130.84 366.26 130.84C366.26 130.84 366.25 130.84 366.24 130.84V130.85Z" fill="#C6ECF9"/>
<path d="M408.9 129.37C408.9 130.18 408.25 130.85 407.44 130.86C407.42 130.86 407.41 130.86 407.39 130.86C406.57 130.86 405.9 130.18 405.91 129.36C405.91 128.54 406.59 127.87 407.41 127.88C408.23 127.88 408.89 128.56 408.89 129.38L408.9 129.37Z" fill="#C6ECF9"/>
<path d="M364.77 171.26C364.74 170.45 365.38 169.77 366.19 169.74C366.21 169.74 366.23 169.74 366.25 169.74C367.07 169.74 367.75 170.39 367.75 171.22C367.75 172.05 367.09 172.72 366.26 172.73C365.44 172.73 364.78 172.08 364.77 171.26Z" fill="#C6ECFA"/>
<path d="M408.9 171.23C408.91 172.05 408.26 172.73 407.44 172.74C407.44 172.74 407.42 172.74 407.41 172.74C406.58 172.74 405.91 172.08 405.91 171.25C405.91 170.42 406.57 169.75 407.4 169.75C408.22 169.74 408.89 170.39 408.9 171.21C408.9 171.21 408.9 171.23 408.9 171.24V171.23Z" fill="#C6ECFA"/>
<path d="M376.68 134.31H375.23V132.48C375.23 131.88 375.53 131.62 375.95 131.62C376.37 131.62 376.66 131.95 376.68 132.48C376.7 133.01 376.68 133.7 376.68 134.31Z" fill="#C4D8DD"/>
<path d="M402.76 149.42V147.97H404.53C405.12 147.97 405.42 148.26 405.43 148.7C405.44 149.14 405.1 149.41 404.53 149.42H402.76Z" fill="#C5D8DE"/>
<path d="M386 134.31H384.55V132.53C384.55 131.93 384.84 131.63 385.28 131.63C385.72 131.63 385.99 131.96 385.99 132.53C385.99 133.1 385.99 133.74 385.99 134.31H386Z" fill="#C5D8DE"/>
<path d="M389.13 134.31H387.68V132.48C387.68 131.88 387.98 131.62 388.4 131.62C388.82 131.62 389.11 131.95 389.12 132.48C389.13 133.01 389.12 133.7 389.12 134.31H389.13Z" fill="#C5D8DE"/>
<path d="M370.96 147.96V149.41H369.13C368.53 149.41 368.27 149.11 368.28 148.7C368.29 148.29 368.6 147.99 369.13 147.97C369.66 147.95 370.31 147.96 370.96 147.96Z" fill="#C5D8DE"/>
<path d="M402.76 161.89V160.44H404.53C405.12 160.44 405.43 160.74 405.43 161.17C405.43 161.6 405.1 161.88 404.53 161.9H402.76V161.89Z" fill="#C4D8DD"/>
<path d="M402.76 152.55V151.1H404.59C405.2 151.1 405.44 151.4 405.44 151.82C405.44 152.24 405.11 152.53 404.59 152.55C404.07 152.57 403.37 152.55 402.76 152.55Z" fill="#C5D8DE"/>
<path d="M370.96 160.44V161.89H369.13C368.53 161.89 368.28 161.59 368.28 161.17C368.28 160.75 368.6 160.46 369.13 160.44C369.66 160.42 370.31 160.44 370.96 160.44Z" fill="#C4D8DD"/>
<path d="M370.96 138.62V140.07H369.18C368.59 140.07 368.29 139.78 368.29 139.34C368.29 138.9 368.62 138.63 369.18 138.62C369.74 138.61 370.32 138.62 370.96 138.62Z" fill="#C4D8DD"/>
<path d="M402.76 140.08V138.63H404.59C405.2 138.63 405.44 138.93 405.44 139.35C405.44 139.77 405.11 140.06 404.59 140.08C404.07 140.1 403.37 140.08 402.76 140.08Z" fill="#C4D8DD"/>
<path d="M370.96 151.1V152.55H369.18C368.59 152.55 368.29 152.26 368.29 151.82C368.29 151.38 368.59 151.1 369.15 151.1H370.96Z" fill="#C5D8DE"/>
<path d="M375.23 166.2H376.68V167.98C376.68 168.57 376.38 168.88 375.95 168.88C375.52 168.88 375.24 168.55 375.23 167.98C375.22 167.41 375.23 166.8 375.23 166.2Z" fill="#C4D8DD"/>
<path d="M384.55 166.2H386V168.03C386 168.64 385.7 168.88 385.29 168.88C384.88 168.88 384.58 168.56 384.56 168.03C384.54 167.5 384.56 166.81 384.56 166.2H384.55Z" fill="#C5D8DE"/>
<path d="M387.68 166.2H389.13V167.98C389.13 168.57 388.83 168.88 388.4 168.88C387.97 168.88 387.68 168.55 387.68 167.98V166.2Z" fill="#C5D8DE"/>
<path d="M397 166.2H398.45V168.03C398.45 168.64 398.15 168.88 397.73 168.88C397.31 168.88 397.02 168.56 397 168.03C396.98 167.5 397 166.81 397 166.2Z" fill="#C4D8DD"/>
<path d="M398.45 134.31H397V132.53C397 131.93 397.3 131.63 397.73 131.63C398.16 131.63 398.44 131.96 398.45 132.53C398.46 133.1 398.45 133.74 398.45 134.31Z" fill="#C4D8DD"/>
<path d="M370.96 144.85V146.3H369.1C368.57 146.3 368.24 146 368.24 145.58C368.24 145.16 368.57 144.87 369.1 144.85H370.96Z" fill="#C7D9DE"/>
<path d="M402.76 146.3V144.85H404.59C405.2 144.85 405.44 145.15 405.44 145.58C405.44 146.01 405.11 146.29 404.59 146.3H402.76Z" fill="#C7D9DE"/>
<path d="M390.78 166.2H392.23V168.03C392.23 168.64 391.93 168.88 391.5 168.88C391.07 168.88 390.79 168.55 390.79 168.03C390.79 167.51 390.79 166.81 390.79 166.2H390.78Z" fill="#C7D9DE"/>
<path d="M370.96 154.21V155.66H369.13C368.53 155.66 368.27 155.36 368.27 154.94C368.27 154.52 368.6 154.23 369.13 154.22C369.66 154.21 370.31 154.21 370.96 154.21Z" fill="#C7D9DE"/>
<path d="M402.76 155.66V154.21H404.59C405.2 154.21 405.44 154.51 405.44 154.93C405.44 155.35 405.11 155.64 404.59 155.65C404.07 155.66 403.37 155.66 402.76 155.66Z" fill="#C7D9DE"/>
<path d="M382.9 134.31H381.45V132.48C381.45 131.87 381.75 131.62 382.18 131.62C382.61 131.62 382.89 131.95 382.89 132.48C382.89 133.01 382.89 133.7 382.89 134.31H382.9Z" fill="#C7D9DE"/>
<path d="M392.23 134.31H390.78V132.48C390.78 131.87 391.07 131.62 391.49 131.62C391.91 131.62 392.2 131.95 392.22 132.48C392.24 133.01 392.22 133.7 392.22 134.31H392.23Z" fill="#C7D9DE"/>
<path d="M381.45 166.2H382.9V168.03C382.9 168.64 382.61 168.88 382.19 168.88C381.77 168.88 381.48 168.55 381.46 168.03C381.44 167.51 381.46 166.81 381.46 166.2H381.45Z" fill="#C7D9DE"/>
<path d="M370.96 163.57V165.02H369.15C368.59 165.02 368.25 164.72 368.26 164.29C368.27 163.86 368.59 163.58 369.15 163.58C369.71 163.58 370.32 163.58 370.96 163.58V163.57Z" fill="#C6D8DE"/>
<path d="M402.76 165.02V163.57H404.59C405.2 163.57 405.44 163.86 405.44 164.28C405.44 164.7 405.11 164.99 404.59 165.01C404.07 165.03 403.37 165.02 402.76 165.02Z" fill="#C6D8DE"/>
<path d="M402.76 136.95V135.5H404.53C405.12 135.5 405.43 135.8 405.43 136.23C405.43 136.66 405.1 136.96 404.53 136.96H402.76V136.95Z" fill="#C6D8DE"/>
<path d="M378.35 166.2H379.8V167.98C379.8 168.57 379.51 168.88 379.07 168.88C378.63 168.88 378.36 168.55 378.36 167.98C378.36 167.41 378.36 166.8 378.36 166.2H378.35Z" fill="#C7D9DE"/>
<path d="M402.76 143.19V141.74H404.59C405.11 141.74 405.44 142.03 405.44 142.45C405.44 142.87 405.11 143.17 404.59 143.18C404.07 143.19 403.37 143.18 402.76 143.18V143.19Z" fill="#C7D9DE"/>
<path d="M370.96 141.75V143.2H369.15C368.59 143.2 368.26 142.9 368.26 142.47C368.26 142.04 368.59 141.76 369.15 141.76H370.96V141.75Z" fill="#C7D9DE"/>
<path d="M370.96 157.31V158.76H369.13C368.53 158.76 368.28 158.47 368.28 158.05C368.28 157.63 368.6 157.34 369.13 157.32C369.66 157.3 370.31 157.31 370.96 157.31Z" fill="#C7D9DE"/>
<path d="M402.76 158.77V157.32H404.53C405.12 157.32 405.43 157.61 405.43 158.05C405.43 158.49 405.1 158.76 404.53 158.77H402.76Z" fill="#C7D9DE"/>
<path d="M372.11 166.2H373.53V168.03C373.53 168.64 373.24 168.88 372.82 168.88C372.4 168.88 372.11 168.56 372.09 168.03C372.07 167.5 372.11 166.81 372.11 166.2Z" fill="#C6D8DE"/>
<path d="M370.96 135.5V136.95H369.1C368.57 136.95 368.25 136.66 368.25 136.23C368.25 135.8 368.57 135.52 369.1 135.5C369.63 135.48 370.32 135.5 370.96 135.5Z" fill="#C6D8DE"/>
<path d="M401.57 134.31H400.12V132.48C400.12 131.87 400.41 131.63 400.83 131.63C401.25 131.63 401.54 131.96 401.56 132.48C401.58 133 401.57 133.7 401.57 134.31Z" fill="#C6D8DE"/>
<path d="M400.12 166.2H401.57V167.98C401.57 168.57 401.28 168.87 400.84 168.87C400.4 168.87 400.13 168.54 400.13 167.98C400.13 167.42 400.13 166.79 400.12 166.2Z" fill="#C6D8DE"/>
<path d="M395.33 134.31H393.88V132.53C393.88 131.93 394.17 131.63 394.61 131.63C395.05 131.63 395.32 131.96 395.32 132.53C395.32 133.1 395.32 133.74 395.32 134.31H395.33Z" fill="#C7D9DE"/>
<path d="M379.8 134.31H378.35V132.48C378.35 131.87 378.64 131.62 379.06 131.62C379.48 131.62 379.77 131.95 379.79 132.48C379.81 133.01 379.79 133.7 379.79 134.31H379.8Z" fill="#C7D9DE"/>
<path d="M373.53 134.31H372.11V132.53C372.11 131.93 372.4 131.63 372.84 131.63C373.28 131.63 373.55 131.96 373.55 132.53C373.55 133.1 373.53 133.74 373.53 134.31Z" fill="#C6D8DE"/>
<path d="M393.88 166.2H395.33V168.03C395.33 168.64 395.04 168.88 394.62 168.88C394.2 168.88 393.91 168.55 393.89 168.03C393.87 167.51 393.89 166.81 393.89 166.2H393.88Z" fill="#C7D9DE"/>
<path d="M396.76 163.18H374.75C373.98 163.18 373.93 163.13 373.93 162.36V138.13C373.93 137.35 373.98 137.31 374.75 137.31H396.76V163.18ZM395.8 142.43V140.16C395.81 139.77 395.51 139.45 395.13 139.43C395.13 139.43 395.13 139.43 395.12 139.43C394.72 139.41 394.38 139.71 394.36 140.11C394.36 140.13 394.36 140.15 394.36 140.16V143.3C394.36 144.08 394.5 143.94 393.68 143.99C393.33 143.99 393.2 143.91 393.22 143.54V140.26C393.22 139.75 392.96 139.45 392.53 139.43C392.13 139.41 391.79 139.72 391.77 140.12C391.77 140.16 391.77 140.2 391.77 140.24V144.59C391.77 145.18 392.05 145.42 392.65 145.43H394.91C395.55 145.43 395.78 145.17 395.79 144.55C395.8 143.93 395.79 143.13 395.79 142.42L395.8 142.43ZM387.32 142.43V144.6C387.32 145.13 387.61 145.45 388.04 145.46C388.47 145.47 388.75 145.14 388.77 144.62V143.56C388.77 143.31 388.85 143.21 389.1 143.23H390.5C390.93 143.28 391.31 142.98 391.37 142.55C391.37 142.49 391.37 142.42 391.37 142.36V140.33C391.37 139.65 391.09 139.47 390.46 139.46H388.32C387.61 139.46 387.36 139.7 387.36 140.41C387.36 141.12 387.33 141.73 387.33 142.41V142.44L387.32 142.43ZM382.88 142.43V144.65C382.82 145.05 383.1 145.42 383.5 145.48C383.57 145.48 383.64 145.48 383.71 145.48H386.02C386.56 145.48 386.88 145.22 386.89 144.79C386.9 144.36 386.57 144.02 386.02 144.02H384.62C384.39 144.02 384.32 143.94 384.32 143.71C384.32 142.87 384.32 142.04 384.32 141.2C384.32 140.97 384.4 140.89 384.63 140.9H386.07C386.55 140.9 386.91 140.57 386.89 140.14C386.87 139.71 386.57 139.46 386.06 139.45H383.71C383.31 139.39 382.94 139.67 382.88 140.07C382.87 140.14 382.87 140.21 382.88 140.29C382.87 140.97 382.88 141.67 382.88 142.38V142.43ZM377.29 161.77H378.63C378.83 161.77 379.03 161.77 379.11 161.53C379.17 161.34 379.1 161.13 378.94 161.02L376.21 158.51C376.08 158.36 375.86 158.31 375.68 158.39C375.52 158.47 375.43 158.64 375.45 158.81V161.27C375.42 161.51 375.59 161.72 375.83 161.75C375.86 161.75 375.89 161.75 375.93 161.75L377.29 161.78V161.77Z" fill="#CAD9DF"/>
<path d="M396.76 163.18V137.33H399.24C399.43 137.33 399.62 137.4 399.75 137.54V162.99C399.62 163.13 399.43 163.2 399.24 163.2C398.42 163.18 397.59 163.18 396.76 163.17V163.18Z" fill="#A7B4B9"/>
<path d="M395.81 142.43V144.55C395.81 145.26 395.55 145.43 394.93 145.43H392.67C392.07 145.43 391.8 145.18 391.79 144.59V140.24C391.74 139.84 392.02 139.48 392.42 139.43C392.46 139.43 392.5 139.43 392.54 139.43C392.96 139.43 393.22 139.75 393.23 140.26V143.54C393.23 143.91 393.34 144.01 393.69 143.99C394.51 143.96 394.37 144.07 394.37 143.3V140.16C394.37 139.76 394.69 139.44 395.08 139.43C395.09 139.43 395.1 139.43 395.11 139.43C395.5 139.44 395.8 139.76 395.79 140.15C395.79 140.15 395.79 140.15 395.79 140.16V142.43H395.8H395.81Z" fill="#454C67"/>
<path d="M387.33 142.4V140.37C387.33 139.69 387.58 139.42 388.29 139.42H390.46C391.1 139.42 391.35 139.68 391.37 140.29C391.39 140.9 391.37 141.65 391.37 142.32C391.42 142.75 391.12 143.13 390.69 143.19C390.63 143.19 390.56 143.19 390.5 143.19H389.1C388.85 143.19 388.77 143.27 388.77 143.52V144.58C388.77 145.11 388.48 145.42 388.04 145.42C387.6 145.42 387.33 145.1 387.32 144.56C387.32 143.84 387.32 143.11 387.32 142.39L387.33 142.4ZM389.32 141.76C389.61 141.76 389.96 141.9 389.96 141.34C389.96 140.78 389.72 140.88 389.4 140.9C389.08 140.92 388.76 140.77 388.76 141.33C388.76 141.89 388.97 141.79 389.32 141.75V141.77V141.76Z" fill="#454C67"/>
<path d="M382.89 142.38V140.26C382.83 139.86 383.1 139.49 383.5 139.43C383.57 139.42 383.64 139.42 383.72 139.43H386.07C386.58 139.43 386.88 139.71 386.9 140.12C386.92 140.53 386.6 140.86 386.08 140.88C385.56 140.9 385.12 140.88 384.64 140.88C384.41 140.88 384.33 140.96 384.33 141.18C384.33 142.02 384.33 142.85 384.33 143.69C384.33 143.92 384.41 144.01 384.63 144H386.03C386.49 144 386.92 144.32 386.9 144.75C386.88 145.18 386.57 145.44 386.03 145.44H383.72C383.32 145.5 382.95 145.22 382.89 144.82C382.89 144.75 382.89 144.68 382.89 144.61C382.88 143.87 382.89 143.13 382.89 142.39V142.38Z" fill="#454C67"/>
<path d="M377.3 161.76H375.95C375.71 161.79 375.5 161.62 375.47 161.38C375.47 161.35 375.47 161.32 375.47 161.28V158.8C375.45 158.62 375.54 158.44 375.7 158.36C375.88 158.27 376.1 158.32 376.23 158.48L378.96 160.99C379.12 161.1 379.19 161.31 379.13 161.5C379.05 161.73 378.85 161.74 378.65 161.74H377.31L377.3 161.76Z" fill="#6E6B87"/>
<path d="M389.31 141.74C388.98 141.78 388.76 141.74 388.75 141.3C388.74 140.86 389.08 140.89 389.39 140.87C389.7 140.85 389.94 140.84 389.95 141.31C389.96 141.78 389.6 141.72 389.31 141.73V141.74Z" fill="#C4D8DD"/>
<path d="M369.07 113.21C367.89 109.26 369.92 105.36 373.96 104.15C376.4 103.42 378.9 103.99 380.64 105.54L378.45 107.86C377.55 107 376.21 106.73 374.85 107.14C372.47 107.85 371.42 109.9 372.13 112.29C372.84 114.69 374.85 115.82 377.23 115.11C378.59 114.7 379.58 113.74 379.84 112.54L382.94 113.28C382.36 115.52 380.57 117.37 378.12 118.1C374.08 119.31 370.24 117.15 369.06 113.2L369.07 113.21Z" fill="black"/>
<path d="M395.18 108.26C394.93 110.91 392.6 112.84 389.85 112.58L387.76 112.38L387.35 116.76L384.16 116.46L385.47 102.52L390.75 103.01C393.5 103.27 395.43 105.6 395.18 108.25V108.26ZM391.99 107.96C392.09 106.94 391.44 106.1 390.47 106.01L388.38 105.81L388.04 109.39L390.13 109.59C391.1 109.68 391.9 108.97 391.99 107.96Z" fill="black"/>
<path d="M396.69 113.5L400.9 105.01L403.77 106.43L399.69 114.67C399.22 115.62 399.27 116.65 400.79 117.4C402.31 118.15 403.16 117.57 403.63 116.62L407.71 108.38L410.58 109.8L406.37 118.29C405.04 120.98 402.16 121.56 399.4 120.2C396.64 118.83 395.36 116.19 396.69 113.5Z" fill="black"/>
</svg>
