<svg width="518" height="192" viewBox="0 0 518 192" fill="none" xmlns="http://www.w3.org/2000/svg">
<path d="M14.9793 21.1C14.2193 21.1 13.5793 20.84 13.0593 20.32C12.5526 19.8 12.2993 19.1533 12.2993 18.38C12.2993 17.6067 12.5526 16.9667 13.0593 16.46C13.5793 15.9533 14.2193 15.7 14.9793 15.7C15.7526 15.7 16.3993 15.9533 16.9193 16.46C17.4393 16.9667 17.6993 17.6067 17.6993 18.38C17.6993 19.1533 17.4393 19.8 16.9193 20.32C16.3993 20.84 15.7526 21.1 14.9793 21.1ZM31.06 9.76H35.52L38.66 19.3L41.82 9.76H46.28V24H43.4V14.14L40.14 22.7H37.18L33.94 14.14V24H31.06V9.76ZM53.6438 24.24C52.6171 24.24 51.6704 24 50.8038 23.52C49.9504 23.0267 49.2704 22.3667 48.7638 21.54C48.2704 20.7133 48.0238 19.8067 48.0238 18.82C48.0238 17.8467 48.2704 16.9467 48.7638 16.12C49.2704 15.2933 49.9504 14.64 50.8038 14.16C51.6704 13.68 52.6171 13.44 53.6438 13.44C54.6571 13.44 55.5838 13.68 56.4238 14.16C57.2771 14.64 57.9504 15.2933 58.4438 16.12C58.9504 16.9467 59.2038 17.8467 59.2038 18.82C59.2038 19.8067 58.9504 20.7133 58.4438 21.54C57.9504 22.3667 57.2771 23.0267 56.4238 23.52C55.5838 24 54.6571 24.24 53.6438 24.24ZM53.6238 21.4C54.3304 21.4 54.9304 21.1533 55.4238 20.66C55.9304 20.1667 56.1838 19.56 56.1838 18.84C56.1838 18.12 55.9304 17.5133 55.4238 17.02C54.9304 16.5133 54.3304 16.26 53.6238 16.26C52.9038 16.26 52.2971 16.5133 51.8038 17.02C51.3104 17.5133 51.0638 18.12 51.0638 18.84C51.0638 19.56 51.3104 20.1667 51.8038 20.66C52.2971 21.1533 52.9038 21.4 53.6238 21.4ZM71.7823 9.16V24H69.2623V22.62C68.489 23.7 67.4023 24.24 66.0023 24.24C65.0157 24.24 64.109 23.9933 63.2823 23.5C62.4557 23.0067 61.7957 22.3467 61.3023 21.52C60.8223 20.6933 60.5823 19.7933 60.5823 18.82C60.5823 17.86 60.8223 16.9667 61.3023 16.14C61.7957 15.3133 62.4557 14.66 63.2823 14.18C64.109 13.6867 65.0157 13.44 66.0023 13.44C67.109 13.44 68.0223 13.78 68.7423 14.46V9.16H71.7823ZM66.1823 21.4C66.889 21.4 67.489 21.1533 67.9823 20.66C68.489 20.1667 68.7423 19.56 68.7423 18.84C68.7423 18.12 68.489 17.5133 67.9823 17.02C67.489 16.5133 66.889 16.26 66.1823 16.26C65.4757 16.26 64.869 16.5133 64.3623 17.02C63.869 17.5133 63.6223 18.12 63.6223 18.84C63.6223 19.56 63.869 20.1667 64.3623 20.66C64.869 21.1533 65.4757 21.4 66.1823 21.4ZM83.1916 13.68V24H80.6916V22.76C80.3449 23.2267 79.9249 23.5933 79.4316 23.86C78.9516 24.1133 78.4049 24.24 77.7916 24.24C76.9782 24.24 76.2449 24.0267 75.5916 23.6C74.9382 23.1733 74.4249 22.6 74.0516 21.88C73.6782 21.16 73.4916 20.3733 73.4916 19.52V13.68H76.5116V19.42C76.5116 19.9133 76.6916 20.34 77.0516 20.7C77.4116 21.06 77.8449 21.24 78.3516 21.24C78.8449 21.24 79.2716 21.06 79.6316 20.7C79.9916 20.34 80.1716 19.9133 80.1716 19.42V13.68H83.1916ZM88.603 24C87.9763 24 87.3896 23.8467 86.843 23.54C86.3096 23.2333 85.883 22.82 85.563 22.3C85.2563 21.7667 85.103 21.18 85.103 20.54V9.18H88.123V20.72C88.123 20.8533 88.163 20.96 88.243 21.04C88.3363 21.12 88.4563 21.16 88.603 21.16H88.943V24H88.603ZM100.519 18.82C100.519 19.2867 100.493 19.6733 100.439 19.98H92.7792C92.9926 20.5133 93.3259 20.9467 93.7792 21.28C94.2326 21.6133 94.7726 21.78 95.3992 21.78C96.3726 21.78 97.1526 21.4333 97.7392 20.74L99.9392 21.9C99.4459 22.6467 98.7992 23.2267 97.9992 23.64C97.1992 24.04 96.3192 24.24 95.3592 24.24C94.3859 24.24 93.4859 23.9933 92.6592 23.5C91.8326 23.0067 91.1726 22.3467 90.6792 21.52C90.1992 20.6933 89.9592 19.7933 89.9592 18.82C89.9592 17.86 90.1992 16.9667 90.6792 16.14C91.1726 15.3133 91.8326 14.66 92.6592 14.18C93.4859 13.6867 94.3859 13.44 95.3592 13.44C96.3592 13.44 97.2459 13.68 98.0192 14.16C98.8059 14.64 99.4192 15.2933 99.8592 16.12C100.299 16.9467 100.519 17.8467 100.519 18.82ZM95.3992 15.98C94.8259 15.98 94.3059 16.1333 93.8392 16.44C93.3859 16.7467 93.0459 17.1467 92.8192 17.64H97.9792C97.7526 17.1467 97.4059 16.7467 96.9392 16.44C96.4859 16.1333 95.9726 15.98 95.3992 15.98ZM106.714 24.24C105.767 24.24 104.867 24.1067 104.014 23.84C103.174 23.56 102.427 23.1733 101.774 22.68L103.054 20.7C104.28 21.4067 105.5 21.76 106.714 21.76C107.26 21.76 107.647 21.7 107.874 21.58C108.114 21.4467 108.234 21.26 108.234 21.02C108.234 20.7933 108.114 20.6267 107.874 20.52C107.634 20.4 107.194 20.26 106.554 20.1C105.1 19.7667 104.04 19.3533 103.374 18.86C102.72 18.3533 102.394 17.64 102.394 16.72C102.394 15.7333 102.787 14.94 103.574 14.34C104.36 13.74 105.414 13.44 106.734 13.44C107.44 13.44 108.147 13.54 108.854 13.74C109.56 13.94 110.2 14.2067 110.774 14.54L109.734 16.66C108.68 16.18 107.68 15.94 106.734 15.94C106.334 15.94 106.007 16.0133 105.754 16.16C105.514 16.3067 105.394 16.5067 105.394 16.76C105.394 17.0267 105.514 17.2133 105.754 17.32C105.994 17.4267 106.447 17.5333 107.114 17.64C108.474 17.8933 109.5 18.2867 110.194 18.82C110.887 19.3533 111.234 20.0667 111.234 20.96C111.234 21.9733 110.827 22.7733 110.014 23.36C109.214 23.9467 108.114 24.24 106.714 24.24ZM121.913 24.12C120.9 24.12 119.96 23.8667 119.093 23.36C118.24 22.8533 117.56 22.1733 117.053 21.32C116.56 20.4533 116.313 19.5133 116.313 18.5V9.76H119.333V18.66C119.333 19.1267 119.446 19.56 119.673 19.96C119.913 20.3467 120.226 20.66 120.613 20.9C121.013 21.1267 121.446 21.24 121.913 21.24C122.38 21.24 122.813 21.1267 123.213 20.9C123.613 20.66 123.926 20.3467 124.153 19.96C124.393 19.56 124.513 19.1267 124.513 18.66V9.76H127.533V18.5C127.533 19.5133 127.28 20.4533 126.773 21.32C126.28 22.1733 125.6 22.8533 124.733 23.36C123.88 23.8667 122.94 24.12 121.913 24.12ZM134.658 13.44C135.472 13.44 136.205 13.6533 136.858 14.08C137.525 14.5067 138.045 15.08 138.418 15.8C138.792 16.52 138.978 17.3067 138.978 18.16V24H135.938V18.24C135.938 17.7467 135.758 17.32 135.398 16.96C135.052 16.6 134.618 16.42 134.098 16.42C133.618 16.42 133.198 16.6 132.838 16.96C132.478 17.32 132.298 17.7467 132.298 18.24V24H129.258V13.68H131.778V14.92C132.125 14.4533 132.538 14.0933 133.018 13.84C133.512 13.5733 134.058 13.44 134.658 13.44ZM140.49 10.24H143.61V12.58H140.49V10.24ZM140.53 13.68H143.55V24H140.53V13.68ZM153.035 21.22V24H150.795C150.102 24 149.462 23.84 148.875 23.52C148.302 23.2 147.842 22.76 147.495 22.2C147.162 21.6267 146.995 20.9933 146.995 20.3V16.48H144.735V13.68H146.995V10.62H150.035V13.68H152.835V16.46H150.035V20.3C150.035 20.5533 150.122 20.7733 150.295 20.96C150.482 21.1333 150.702 21.22 150.955 21.22H153.035ZM159.292 24.24C158.345 24.24 157.445 24.1067 156.592 23.84C155.752 23.56 155.005 23.1733 154.352 22.68L155.632 20.7C156.859 21.4067 158.079 21.76 159.292 21.76C159.839 21.76 160.225 21.7 160.452 21.58C160.692 21.4467 160.812 21.26 160.812 21.02C160.812 20.7933 160.692 20.6267 160.452 20.52C160.212 20.4 159.772 20.26 159.132 20.1C157.679 19.7667 156.619 19.3533 155.952 18.86C155.299 18.3533 154.972 17.64 154.972 16.72C154.972 15.7333 155.365 14.94 156.152 14.34C156.939 13.74 157.992 13.44 159.312 13.44C160.019 13.44 160.725 13.54 161.432 13.74C162.139 13.94 162.779 14.2067 163.352 14.54L162.312 16.66C161.259 16.18 160.259 15.94 159.312 15.94C158.912 15.94 158.585 16.0133 158.332 16.16C158.092 16.3067 157.972 16.5067 157.972 16.76C157.972 17.0267 158.092 17.2133 158.332 17.32C158.572 17.4267 159.025 17.5333 159.692 17.64C161.052 17.8933 162.079 18.2867 162.772 18.82C163.465 19.3533 163.812 20.0667 163.812 20.96C163.812 21.9733 163.405 22.7733 162.592 23.36C161.792 23.9467 160.692 24.24 159.292 24.24Z" fill="black"/>
<path d="M258 187C282.853 187 303 166.853 303 142C303 117.147 282.853 97 258 97C233.147 97 213 117.147 213 142C213 166.853 233.147 187 258 187Z" stroke="#0018C6" stroke-width="4" stroke-miterlimit="10"/>
<path d="M228.74 124.25C226.1 121.65 226 117.69 228.67 114.98C230.27 113.35 232.5 112.71 234.54 113.18L233.82 115.96C232.74 115.68 231.57 116.04 230.67 116.95C229.1 118.54 229.16 120.62 230.76 122.19C232.36 123.77 234.44 123.79 236.01 122.2C236.91 121.29 237.27 120.1 236.95 119.03L239.72 118.27C240.23 120.29 239.63 122.52 238.01 124.16C235.34 126.87 231.38 126.83 228.74 124.23V124.25Z" fill="black"/>
<path d="M246.67 108.11L250.44 116.28L247.99 117.41L247.64 116.64C247.39 117.51 246.76 118.26 245.67 118.76C243.53 119.75 240.89 118.68 239.77 116.25C238.65 113.81 239.54 111.12 241.68 110.13C242.77 109.62 243.75 109.63 244.58 110L244.23 109.23L246.68 108.1L246.67 108.11ZM246.1 113.33C245.53 112.1 244.36 111.71 243.23 112.23C242.1 112.75 241.64 113.9 242.2 115.12C242.77 116.35 243.94 116.74 245.07 116.22C246.2 115.7 246.66 114.55 246.09 113.33H246.1Z" fill="black"/>
<path d="M264.58 109.68L264.77 115.2L262.07 115.29L261.89 110C261.86 109.1 261.41 108.54 260.55 108.57C259.65 108.6 259.17 109.25 259.21 110.31L259.39 115.38L256.69 115.47L256.51 110.18C256.48 109.28 256.03 108.72 255.16 108.75C254.26 108.78 253.78 109.43 253.82 110.49L254 115.56L251.3 115.65L250.99 106.66L253.69 106.57L253.72 107.4C254.11 106.77 254.89 106.28 256.09 106.24C257.15 106.2 257.96 106.61 258.49 107.34C258.97 106.6 259.78 106.11 261.06 106.06C263.13 105.99 264.53 107.42 264.61 109.66L264.58 109.68Z" fill="black"/>
<path d="M270.54 115.37C271.23 115.62 271.92 115.57 272.4 115.33L274 117.24C272.75 118.08 271.28 118.21 269.68 117.62C266.79 116.56 265.72 113.95 266.65 111.44C267.58 108.92 270.12 107.65 272.78 108.64C275.25 109.55 276.37 112.13 275.43 114.68C275.3 115.03 275.14 115.36 274.95 115.66L268.95 113.45C268.95 114.45 269.61 115.04 270.54 115.38V115.37ZM273.23 112.87C273.32 111.79 272.69 111.16 271.93 110.88C270.97 110.53 270.15 110.76 269.6 111.54L273.23 112.88V112.87Z" fill="black"/>
<path d="M284.06 115.06L282.31 117.57C281.5 116.79 279.94 116.25 278.92 117.72L276.6 121.06L274.38 119.52L279.51 112.13L281.73 113.67L280.82 114.99C281.8 114.2 283.12 114.42 284.05 115.07L284.06 115.06Z" fill="black"/>
<path d="M292.01 123.86L285.14 129.68L283.39 127.62L284.04 127.07C283.13 127.06 282.25 126.65 281.47 125.73C279.95 123.93 280.27 121.11 282.31 119.37C284.36 117.64 287.19 117.78 288.72 119.58C289.5 120.5 289.76 121.44 289.62 122.34L290.27 121.79L292.02 123.85L292.01 123.86ZM286.83 124.71C287.86 123.84 287.92 122.6 287.12 121.66C286.32 120.71 285.09 120.57 284.06 121.45C283.03 122.32 282.97 123.56 283.77 124.5C284.57 125.45 285.8 125.59 286.83 124.71Z" fill="black"/>
<path d="M287 152.14V152.36C286.73 152.41 286.79 152.62 286.78 152.81C286.74 153.31 286.72 153.81 286.65 154.3C286.14 157.72 285.13 160.98 283.47 164.03C282.04 166.65 280.21 169.04 278.05 171.1C275.76 173.31 273.12 175.11 270.23 176.43C267.82 177.55 265.26 178.31 262.63 178.69C261.83 178.8 261.03 178.91 260.23 179.02H256.44C255.8 178.84 255.13 178.87 254.47 178.78C250.71 178.23 247.1 176.97 243.82 175.05C241.14 173.48 238.74 171.48 236.71 169.13C234.75 166.86 233.16 164.3 232.02 161.53C230.99 159.08 230.31 156.51 229.98 153.87C229.91 153.33 230.02 152.76 229.78 152.23V148.66C229.93 148.51 229.89 148.31 229.89 148.13C229.91 147.32 230.01 146.5 230.17 145.7C230.7 142.55 231.76 139.5 233.3 136.7C234.73 134.12 236.55 131.77 238.69 129.74C244.83 123.85 253.29 121.04 261.73 122.09C264.93 122.45 268.04 123.36 270.92 124.79C277.2 127.91 282.13 133.2 284.8 139.69C285.76 142.04 286.4 144.52 286.69 147.05C286.85 148.54 286.92 150.05 286.9 151.55C286.9 151.75 286.83 151.97 287.01 152.13L287 152.14ZM263.18 175.05C264.31 174.95 265.39 174.58 266.46 174.23C278.31 170.27 285.57 157.69 282.92 145.46C280.98 136.55 275.64 130.4 267.19 126.97C265.91 126.45 264.58 126.01 263.18 125.89C262.98 125.74 262.73 125.74 262.5 125.7C260.43 125.36 258.32 125.28 256.23 125.46C252.27 125.79 248.54 126.9 245.23 129.07C236.37 134.87 232.31 143.1 233.46 153.66C234.24 160.82 237.8 166.53 243.6 170.79C248.4 174.33 253.85 175.82 259.79 175.55C260.92 175.5 262.08 175.43 263.17 175.05H263.18Z" fill="#D9D9EA"/>
<path d="M263.18 175.05C262.08 175.43 260.93 175.5 259.79 175.55C253.86 175.82 248.41 174.33 243.6 170.79C237.81 166.53 234.25 160.82 233.46 153.66C232.3 143.1 236.37 134.87 245.23 129.07C248.54 126.9 252.27 125.79 256.23 125.46C258.32 125.28 260.43 125.36 262.5 125.7C262.73 125.74 262.97 125.74 263.18 125.89C263.32 126.02 263.48 126.11 263.66 126.15C268.06 127.46 271.57 130.05 274.38 133.63C275.67 135.29 276.75 137.1 277.59 139.02C279 142.23 279.8 145.68 279.95 149.19C280.03 151.04 279.93 152.9 279.65 154.73C279.26 157.55 278.42 160.28 277.17 162.83C275.8 165.63 274 168.13 271.65 170.23C269.77 171.94 267.6 173.3 265.24 174.26C264.55 174.54 263.8 174.64 263.17 175.06L263.18 175.05ZM240.12 150.48C240.12 160.53 248.28 168.68 258.33 168.67C268.38 168.67 276.53 160.51 276.52 150.46C276.52 140.42 268.38 132.28 258.34 132.27C248.31 132.24 240.15 140.34 240.12 150.37C240.12 150.41 240.12 150.44 240.12 150.48Z" fill="#57575E"/>
<path d="M263.18 175.05C263.81 174.64 264.56 174.54 265.24 174.26C267.6 173.31 269.77 171.94 271.65 170.23C273.99 168.13 275.79 165.63 277.17 162.83C278.42 160.28 279.26 157.54 279.65 154.73C279.93 152.9 280.03 151.04 279.95 149.19C279.8 145.68 279 142.23 277.59 139.02C276.75 137.1 275.67 135.29 274.38 133.63C271.56 130.05 268.06 127.46 263.66 126.15C263.48 126.11 263.31 126.02 263.18 125.89C264.58 126.02 265.9 126.45 267.19 126.97C275.64 130.4 280.99 136.54 282.92 145.46C285.57 157.69 278.31 170.26 266.46 174.23C265.4 174.58 264.33 174.95 263.19 175.05H263.18Z" fill="#434348"/>
<path d="M240.13 150.48C240.13 140.43 248.27 132.28 258.32 132.27C268.37 132.27 276.52 140.41 276.53 150.46C276.53 160.51 268.39 168.66 258.34 168.67C258.34 168.67 258.32 168.67 258.31 168.67C248.28 168.68 240.14 160.57 240.13 150.54C240.13 150.52 240.13 150.5 240.13 150.48ZM258.34 139.18C255.61 139.18 252.87 139.22 250.14 139.15C249.19 139.13 248.44 139.33 247.84 140.06C247.67 140.26 247.5 140.45 247.32 140.64C244.44 143.87 243.23 147.68 243.63 151.95C243.98 155.64 245.58 158.76 248.31 161.3C248.61 161.6 249.01 161.77 249.44 161.76C255.11 161.75 260.77 161.72 266.44 161.78C267.48 161.79 268.26 161.51 268.91 160.75C269.07 160.57 269.23 160.39 269.39 160.21C272.42 156.69 273.56 152.61 272.87 148.04C272.41 145 271 142.39 268.89 140.16C268.29 139.53 267.67 139.12 266.69 139.15C263.92 139.24 261.13 139.18 258.34 139.18Z" fill="#3392F6"/>
<path d="M258.34 139.18C261.13 139.18 263.92 139.24 266.7 139.15C267.69 139.12 268.31 139.53 268.9 140.16C271.01 142.4 272.41 145 272.88 148.04C273.58 152.61 272.43 156.69 269.4 160.21C269.25 160.39 269.08 160.57 268.92 160.75C268.27 161.52 267.5 161.79 266.45 161.78C260.78 161.72 255.12 161.75 249.45 161.76C249.03 161.77 248.62 161.6 248.32 161.3C245.59 158.77 243.99 155.63 243.64 151.95C243.24 147.68 244.45 143.87 247.33 140.64C247.5 140.45 247.68 140.26 247.85 140.06C248.45 139.33 249.2 139.13 250.15 139.15C252.87 139.22 255.61 139.18 258.34 139.18ZM266.24 150.48C266.09 145.99 262.78 142.58 258.32 142.6C253.83 142.61 250.47 146.03 250.46 150.46C250.46 154.93 253.88 158.38 258.4 158.35C262.81 158.32 266.07 154.92 266.24 150.49V150.48Z" fill="#48459C"/>
<path d="M266.24 150.48C266.08 154.92 262.81 158.31 258.4 158.34C253.88 158.37 250.45 154.93 250.46 150.45C250.46 146.02 253.83 142.6 258.32 142.59C262.79 142.58 266.09 145.99 266.24 150.47V150.48ZM258.35 146.05C255.91 146.04 253.92 148 253.91 150.44C253.91 150.45 253.91 150.46 253.91 150.47C253.88 152.9 255.79 154.78 258.35 154.89C260.85 154.8 262.75 152.92 262.77 150.5C262.79 148.08 260.86 146.13 258.35 146.05Z" fill="#424248"/>
<path d="M258.34 154.89C255.78 154.78 253.87 152.9 253.9 150.47C253.9 148.03 255.87 146.05 258.31 146.05C258.32 146.05 258.33 146.05 258.34 146.05C258.76 146.28 258.87 146.71 258.96 147.12C259.44 149.33 259.44 151.62 258.96 153.83C258.87 154.23 258.75 154.66 258.34 154.89Z" fill="#60ACFD"/>
<path d="M258.34 154.89C258.76 154.66 258.88 154.23 258.96 153.82C259.44 151.61 259.44 149.32 258.96 147.11C258.87 146.7 258.76 146.27 258.34 146.04C260.85 146.13 262.78 148.07 262.76 150.49C262.73 152.91 260.84 154.8 258.34 154.89Z" fill="#3392F5"/>
</svg>
