<svg width="518" height="192" viewBox="0 0 518 192" fill="none" xmlns="http://www.w3.org/2000/svg">
<path d="M14.9793 21.1C14.2193 21.1 13.5793 20.84 13.0593 20.32C12.5526 19.8 12.2993 19.1533 12.2993 18.38C12.2993 17.6067 12.5526 16.9667 13.0593 16.46C13.5793 15.9533 14.2193 15.7 14.9793 15.7C15.7526 15.7 16.3993 15.9533 16.9193 16.46C17.4393 16.9667 17.6993 17.6067 17.6993 18.38C17.6993 19.1533 17.4393 19.8 16.9193 20.32C16.3993 20.84 15.7526 21.1 14.9793 21.1ZM36.44 9.76C37.3467 9.76 38.18 9.98667 38.94 10.44C39.7133 10.88 40.32 11.4867 40.76 12.26C41.2133 13.02 41.44 13.8533 41.44 14.76C41.44 15.6667 41.2133 16.5067 40.76 17.28C40.32 18.04 39.7133 18.6467 38.94 19.1C38.18 19.54 37.3467 19.76 36.44 19.76H34.1V24H31.06V9.76H36.44ZM36.24 16.98C36.8267 16.98 37.3333 16.7667 37.76 16.34C38.2 15.9 38.42 15.3733 38.42 14.76C38.42 14.16 38.2 13.64 37.76 13.2C37.3333 12.76 36.8267 12.54 36.24 12.54H34.1V16.98H36.24ZM48.4913 13.44C49.3046 13.44 50.0379 13.6533 50.6913 14.08C51.3579 14.5067 51.8779 15.08 52.2513 15.8C52.6246 16.52 52.8113 17.3067 52.8113 18.16V24H49.7713V18.26C49.7713 17.7667 49.5913 17.34 49.2313 16.98C48.8846 16.62 48.4513 16.44 47.9313 16.44C47.4513 16.44 47.0313 16.62 46.6713 16.98C46.3113 17.34 46.1313 17.7667 46.1313 18.26V24H43.0913V9.16H46.1313V14.34C46.7979 13.74 47.5846 13.44 48.4913 13.44ZM59.7375 24.24C58.7108 24.24 57.7642 24 56.8975 23.52C56.0442 23.0267 55.3642 22.3667 54.8575 21.54C54.3642 20.7133 54.1175 19.8067 54.1175 18.82C54.1175 17.8467 54.3642 16.9467 54.8575 16.12C55.3642 15.2933 56.0442 14.64 56.8975 14.16C57.7642 13.68 58.7108 13.44 59.7375 13.44C60.7508 13.44 61.6775 13.68 62.5175 14.16C63.3708 14.64 64.0442 15.2933 64.5375 16.12C65.0442 16.9467 65.2975 17.8467 65.2975 18.82C65.2975 19.8067 65.0442 20.7133 64.5375 21.54C64.0442 22.3667 63.3708 23.0267 62.5175 23.52C61.6775 24 60.7508 24.24 59.7375 24.24ZM59.7175 21.4C60.4242 21.4 61.0242 21.1533 61.5175 20.66C62.0242 20.1667 62.2775 19.56 62.2775 18.84C62.2775 18.12 62.0242 17.5133 61.5175 17.02C61.0242 16.5133 60.4242 16.26 59.7175 16.26C58.9975 16.26 58.3908 16.5133 57.8975 17.02C57.4042 17.5133 57.1575 18.12 57.1575 18.84C57.1575 19.56 57.4042 20.1667 57.8975 20.66C58.3908 21.1533 58.9975 21.4 59.7175 21.4ZM72.2561 13.44C73.0694 13.44 73.8028 13.6533 74.4561 14.08C75.1228 14.5067 75.6428 15.08 76.0161 15.8C76.3894 16.52 76.5761 17.3067 76.5761 18.16V24H73.5361V18.24C73.5361 17.7467 73.3561 17.32 72.9961 16.96C72.6494 16.6 72.2161 16.42 71.6961 16.42C71.2161 16.42 70.7961 16.6 70.4361 16.96C70.0761 17.32 69.8961 17.7467 69.8961 18.24V24H66.8561V13.68H69.3761V14.92C69.7228 14.4533 70.1361 14.0933 70.6161 13.84C71.1094 13.5733 71.6561 13.44 72.2561 13.44ZM88.5075 18.82C88.5075 19.2867 88.4808 19.6733 88.4275 19.98H80.7675C80.9808 20.5133 81.3142 20.9467 81.7675 21.28C82.2208 21.6133 82.7608 21.78 83.3875 21.78C84.3608 21.78 85.1408 21.4333 85.7275 20.74L87.9275 21.9C87.4342 22.6467 86.7875 23.2267 85.9875 23.64C85.1875 24.04 84.3075 24.24 83.3475 24.24C82.3742 24.24 81.4742 23.9933 80.6475 23.5C79.8208 23.0067 79.1608 22.3467 78.6675 21.52C78.1875 20.6933 77.9475 19.7933 77.9475 18.82C77.9475 17.86 78.1875 16.9667 78.6675 16.14C79.1608 15.3133 79.8208 14.66 80.6475 14.18C81.4742 13.6867 82.3742 13.44 83.3475 13.44C84.3475 13.44 85.2342 13.68 86.0075 14.16C86.7942 14.64 87.4075 15.2933 87.8475 16.12C88.2875 16.9467 88.5075 17.8467 88.5075 18.82ZM83.3875 15.98C82.8142 15.98 82.2942 16.1333 81.8275 16.44C81.3742 16.7467 81.0342 17.1467 80.8075 17.64H85.9675C85.7408 17.1467 85.3942 16.7467 84.9275 16.44C84.4742 16.1333 83.9608 15.98 83.3875 15.98ZM99.7395 9.76C100.486 9.76 101.18 9.94667 101.82 10.32C102.46 10.68 102.966 11.18 103.34 11.82C103.713 12.46 103.9 13.1533 103.9 13.9C103.9 14.46 103.78 14.9667 103.54 15.42C103.313 15.86 103 16.22 102.6 16.5C103.186 16.78 103.646 17.1867 103.98 17.72C104.326 18.2533 104.5 18.88 104.5 19.6C104.5 20.4 104.3 21.14 103.9 21.82C103.5 22.4867 102.96 23.02 102.28 23.42C101.613 23.8067 100.88 24 100.08 24H93.7595V9.76H99.7395ZM99.4795 15.3C99.8662 15.3 100.193 15.1667 100.46 14.9C100.726 14.62 100.86 14.2867 100.86 13.9C100.86 13.5267 100.72 13.2067 100.44 12.94C100.173 12.6733 99.8529 12.54 99.4795 12.54H96.7995V15.3H99.4795ZM99.9195 21.14C100.346 21.14 100.706 20.9933 101 20.7C101.306 20.3933 101.46 20.0267 101.46 19.6C101.46 19.2 101.306 18.8467 101 18.54C100.706 18.2333 100.346 18.08 99.9195 18.08H96.7995V21.14H99.9195ZM111.495 24.24C110.469 24.24 109.522 24 108.655 23.52C107.802 23.0267 107.122 22.3667 106.615 21.54C106.122 20.7133 105.875 19.8067 105.875 18.82C105.875 17.8467 106.122 16.9467 106.615 16.12C107.122 15.2933 107.802 14.64 108.655 14.16C109.522 13.68 110.469 13.44 111.495 13.44C112.509 13.44 113.435 13.68 114.275 14.16C115.129 14.64 115.802 15.2933 116.295 16.12C116.802 16.9467 117.055 17.8467 117.055 18.82C117.055 19.8067 116.802 20.7133 116.295 21.54C115.802 22.3667 115.129 23.0267 114.275 23.52C113.435 24 112.509 24.24 111.495 24.24ZM111.475 21.4C112.182 21.4 112.782 21.1533 113.275 20.66C113.782 20.1667 114.035 19.56 114.035 18.84C114.035 18.12 113.782 17.5133 113.275 17.02C112.782 16.5133 112.182 16.26 111.475 16.26C110.755 16.26 110.149 16.5133 109.655 17.02C109.162 17.5133 108.915 18.12 108.915 18.84C108.915 19.56 109.162 20.1667 109.655 20.66C110.149 21.1533 110.755 21.4 111.475 21.4ZM129.634 9.16V24H127.114V22.62C126.341 23.7 125.254 24.24 123.854 24.24C122.867 24.24 121.961 23.9933 121.134 23.5C120.307 23.0067 119.647 22.3467 119.154 21.52C118.674 20.6933 118.434 19.7933 118.434 18.82C118.434 17.86 118.674 16.9667 119.154 16.14C119.647 15.3133 120.307 14.66 121.134 14.18C121.961 13.6867 122.867 13.44 123.854 13.44C124.961 13.44 125.874 13.78 126.594 14.46V9.16H129.634ZM124.034 21.4C124.741 21.4 125.341 21.1533 125.834 20.66C126.341 20.1667 126.594 19.56 126.594 18.84C126.594 18.12 126.341 17.5133 125.834 17.02C125.341 16.5133 124.741 16.26 124.034 16.26C123.327 16.26 122.721 16.5133 122.214 17.02C121.721 17.5133 121.474 18.12 121.474 18.84C121.474 19.56 121.721 20.1667 122.214 20.66C122.721 21.1533 123.327 21.4 124.034 21.4ZM141.529 13.68L137.909 25.36C137.643 26.3733 137.109 27.2 136.309 27.84C135.523 28.4933 134.603 28.82 133.549 28.82H131.469V25.92H133.329C133.729 25.92 134.076 25.8067 134.369 25.58C134.676 25.3667 134.889 25.0733 135.009 24.7L135.229 24H133.589L130.649 13.68H133.709L135.969 21.62L138.449 13.68H141.529ZM151.796 24.12C150.782 24.12 149.842 23.8667 148.976 23.36C148.122 22.8533 147.442 22.1733 146.936 21.32C146.442 20.4533 146.196 19.5133 146.196 18.5V9.76H149.216V18.66C149.216 19.1267 149.329 19.56 149.556 19.96C149.796 20.3467 150.109 20.66 150.496 20.9C150.896 21.1267 151.329 21.24 151.796 21.24C152.262 21.24 152.696 21.1267 153.096 20.9C153.496 20.66 153.809 20.3467 154.036 19.96C154.276 19.56 154.396 19.1267 154.396 18.66V9.76H157.416V18.5C157.416 19.5133 157.162 20.4533 156.656 21.32C156.162 22.1733 155.482 22.8533 154.616 23.36C153.762 23.8667 152.822 24.12 151.796 24.12ZM164.541 13.44C165.355 13.44 166.088 13.6533 166.741 14.08C167.408 14.5067 167.928 15.08 168.301 15.8C168.675 16.52 168.861 17.3067 168.861 18.16V24H165.821V18.24C165.821 17.7467 165.641 17.32 165.281 16.96C164.935 16.6 164.501 16.42 163.981 16.42C163.501 16.42 163.081 16.6 162.721 16.96C162.361 17.32 162.181 17.7467 162.181 18.24V24H159.141V13.68H161.661V14.92C162.008 14.4533 162.421 14.0933 162.901 13.84C163.395 13.5733 163.941 13.44 164.541 13.44ZM170.373 10.24H173.493V12.58H170.373V10.24ZM170.413 13.68H173.433V24H170.413V13.68ZM182.918 21.22V24H180.678C179.985 24 179.345 23.84 178.758 23.52C178.185 23.2 177.725 22.76 177.378 22.2C177.045 21.6267 176.878 20.9933 176.878 20.3V16.48H174.618V13.68H176.878V10.62H179.918V13.68H182.718V16.46H179.918V20.3C179.918 20.5533 180.005 20.7733 180.178 20.96C180.365 21.1333 180.585 21.22 180.838 21.22H182.918ZM189.175 24.24C188.228 24.24 187.328 24.1067 186.475 23.84C185.635 23.56 184.888 23.1733 184.235 22.68L185.515 20.7C186.741 21.4067 187.961 21.76 189.175 21.76C189.721 21.76 190.108 21.7 190.335 21.58C190.575 21.4467 190.695 21.26 190.695 21.02C190.695 20.7933 190.575 20.6267 190.335 20.52C190.095 20.4 189.655 20.26 189.015 20.1C187.561 19.7667 186.501 19.3533 185.835 18.86C185.181 18.3533 184.855 17.64 184.855 16.72C184.855 15.7333 185.248 14.94 186.035 14.34C186.821 13.74 187.875 13.44 189.195 13.44C189.901 13.44 190.608 13.54 191.315 13.74C192.021 13.94 192.661 14.2067 193.235 14.54L192.195 16.66C191.141 16.18 190.141 15.94 189.195 15.94C188.795 15.94 188.468 16.0133 188.215 16.16C187.975 16.3067 187.855 16.5067 187.855 16.76C187.855 17.0267 187.975 17.2133 188.215 17.32C188.455 17.4267 188.908 17.5333 189.575 17.64C190.935 17.8933 191.961 18.2867 192.655 18.82C193.348 19.3533 193.695 20.0667 193.695 20.96C193.695 21.9733 193.288 22.7733 192.475 23.36C191.675 23.9467 190.575 24.24 189.175 24.24Z" fill="black"/>
<path d="M259.225 187C284.077 187 304.225 166.853 304.225 142C304.225 117.147 284.077 97 259.225 97C234.372 97 214.225 117.147 214.225 142C214.225 166.853 234.372 187 259.225 187Z" stroke="#0018C6" stroke-width="4" stroke-miterlimit="10"/>
<path d="M249.085 150.08C249.085 149.22 249.075 148.37 249.075 147.51C249.075 140.37 249.095 133.24 249.055 126.1C249.055 124.76 249.455 123.82 250.735 123.33H272.445C272.445 123.53 272.625 123.55 272.745 123.64C273.395 124.1 273.785 124.69 273.785 125.52C273.775 128.39 273.785 131.26 273.785 134.14C273.205 133.37 272.465 132.95 271.465 132.98C270.445 133.01 269.745 133.55 269.315 134.4C268.825 135.36 268.975 136.31 269.665 137.13C270.295 137.87 271.105 138.16 272.095 137.98C272.825 137.85 273.295 137.37 273.775 136.88C273.775 138.68 273.775 140.48 273.785 142.29C273.785 142.42 273.815 142.57 273.695 142.67C273.595 142.56 273.485 142.44 273.375 142.34C272.335 141.33 270.685 141.38 269.705 142.46C268.735 143.53 268.865 145.19 269.985 146.12C271.095 147.03 272.515 146.85 273.675 145.66C273.845 145.81 273.775 146.01 273.785 146.19C273.785 147.61 273.785 149.03 273.785 150.46C273.785 150.81 273.735 151.14 273.645 151.47C273.315 152.72 272.995 153.98 272.625 155.22C272.395 155.98 272.305 156.79 271.915 157.5C271.915 157.31 271.935 157.12 271.935 156.94C271.955 155.35 270.905 154.29 269.325 154.31C268.245 154.32 267.535 154.91 267.095 155.85C266.665 156.78 266.835 157.67 267.475 158.44C268.155 159.25 269.045 159.54 270.105 159.27C271.015 159.03 271.515 158.36 271.915 157.58C271.935 157.73 271.915 157.89 271.885 158.03C271.455 159.61 271.025 161.18 270.595 162.76C270.475 162.76 270.355 162.77 270.235 162.77C261.875 162.77 253.505 162.77 245.145 162.77C244.955 162.77 244.765 162.76 244.585 162.75C245.625 160 246.665 157.25 247.705 154.5C248.055 153.58 248.435 152.66 248.795 151.74H271.165C271.355 151.74 271.545 151.75 271.725 151.72C272.185 151.64 272.455 151.38 272.455 150.88C272.455 150.36 272.115 150.1 271.415 150.1C263.975 150.1 256.535 150.1 249.095 150.1L249.085 150.08ZM255.315 132.97C253.895 132.97 252.785 134.1 252.785 135.52C252.785 136.92 253.945 138.05 255.355 138.04C256.735 138.02 257.845 136.9 257.845 135.5C257.845 134.08 256.725 132.96 255.305 132.97H255.315ZM263.475 141.63C262.045 141.63 260.925 142.73 260.915 144.14C260.915 145.53 262.035 146.67 263.405 146.68C264.855 146.68 265.965 145.61 265.965 144.18C265.965 142.71 264.915 141.64 263.465 141.63H263.475ZM255.685 156.79C255.685 155.35 254.585 154.27 253.145 154.27C251.735 154.27 250.635 155.37 250.635 156.77C250.635 158.19 251.755 159.32 253.165 159.32C254.585 159.32 255.695 158.2 255.695 156.78L255.685 156.79ZM265.975 135.49C265.975 134.05 264.885 132.96 263.435 132.97C262.035 132.97 260.925 134.08 260.915 135.47C260.915 136.88 262.035 138.02 263.445 138.03C264.855 138.04 265.975 136.9 265.975 135.49ZM255.325 141.62C253.905 141.62 252.785 142.73 252.785 144.15C252.785 145.53 253.915 146.67 255.285 146.67C256.705 146.67 257.835 145.57 257.835 144.15C257.835 142.7 256.765 141.61 255.315 141.61L255.325 141.62ZM263.805 156.8C263.805 155.36 262.715 154.27 261.275 154.28C259.855 154.28 258.745 155.4 258.745 156.82C258.745 158.2 259.885 159.33 261.265 159.33C262.685 159.33 263.805 158.22 263.805 156.8ZM264.055 127.95C264.685 127.95 265.325 127.95 265.955 127.95C266.545 127.95 266.775 127.72 266.775 127.15C266.775 126.63 266.545 126.41 265.965 126.41C264.715 126.41 263.465 126.41 262.215 126.41C261.665 126.41 261.315 126.74 261.335 127.2C261.345 127.65 261.675 127.95 262.205 127.95C262.825 127.95 263.435 127.95 264.055 127.95ZM258.135 127.16C258.135 127.69 258.355 127.94 258.845 127.95C259.325 127.95 259.585 127.68 259.575 127.16C259.575 126.66 259.315 126.41 258.815 126.4C258.345 126.4 258.135 126.63 258.135 127.15V127.16Z" fill="#4483E7"/>
<path d="M242.295 176C241.495 175.65 240.785 175.19 240.575 174.27C240.405 173.52 240.655 172.83 240.925 172.14C241.495 170.68 242.045 169.22 242.605 167.76C242.845 167.76 243.085 167.76 243.325 167.76C251.895 167.76 260.465 167.76 269.035 167.76C269.015 167.91 269.005 168.06 268.965 168.21C268.495 169.95 267.995 171.68 267.545 173.42C267.275 174.45 266.925 175.4 265.865 175.89C265.845 175.89 265.845 175.95 265.845 175.99H242.285L242.295 176ZM256.045 173.13C257.025 173.13 257.995 173.13 258.975 173.13C259.835 173.13 260.395 172.63 260.405 171.86C260.425 171.03 259.855 170.47 258.975 170.46C257.025 170.46 255.065 170.46 253.115 170.46C252.335 170.46 251.685 171.08 251.675 171.78C251.675 172.55 252.265 173.12 253.115 173.13C254.095 173.13 255.065 173.13 256.045 173.13Z" fill="#ECF6FE"/>
<path d="M276.445 123.33C277.705 123.86 278.075 124.85 278.075 126.15C278.045 134.06 278.045 141.98 278.075 149.89C278.075 151.09 277.665 152.17 277.375 153.28C276.565 156.31 275.715 159.33 274.885 162.35C274.845 162.5 274.775 162.63 274.725 162.78C273.345 162.77 271.965 162.75 270.585 162.74C271.015 161.16 271.435 159.58 271.875 158.01C271.915 157.86 271.925 157.71 271.915 157.56C271.915 157.54 271.915 157.51 271.915 157.49C272.305 156.78 272.385 155.97 272.625 155.21C273.005 153.97 273.315 152.71 273.645 151.46C273.735 151.13 273.785 150.8 273.785 150.45C273.775 149.03 273.785 147.61 273.785 146.18C273.785 146 273.855 145.8 273.675 145.65C274.275 144.66 274.285 143.67 273.685 142.67C273.805 142.57 273.775 142.42 273.775 142.29C273.775 140.49 273.775 138.69 273.765 136.88C274.225 135.97 274.215 135.05 273.765 134.13C273.765 131.26 273.765 128.38 273.765 125.51C273.765 124.68 273.375 124.09 272.725 123.63C272.605 123.54 272.425 123.52 272.425 123.32H276.435L276.445 123.33Z" fill="#3F79D4"/>
<path d="M265.854 176C265.854 176 265.854 175.91 265.874 175.9C266.924 175.41 267.284 174.46 267.554 173.43C268.004 171.69 268.504 169.95 268.974 168.22C269.014 168.07 269.024 167.92 269.044 167.77H273.354C272.754 169.94 272.154 172.11 271.544 174.28C271.304 175.16 270.644 175.64 269.864 176H265.854Z" fill="#E0EDF9"/>
<path d="M273.354 167.76H269.045C260.475 167.76 251.905 167.76 243.335 167.76C243.095 167.76 242.855 167.76 242.615 167.76C242.615 167.73 242.615 167.71 242.615 167.68L242.705 167.57C243.315 165.95 243.885 164.32 244.575 162.73C244.765 162.73 244.955 162.75 245.135 162.75C253.495 162.75 261.865 162.75 270.225 162.75C270.345 162.75 270.465 162.75 270.585 162.74L274.725 162.78C274.275 164.44 273.815 166.1 273.365 167.76H273.354Z" fill="#BDD5E5"/>
<path d="M238.845 134.23C238.215 134.27 237.624 134.18 237.024 134.31C236.584 134.41 236.214 134.27 235.944 133.88C235.754 133.6 235.804 133.33 235.974 133.07C236.154 132.8 236.414 132.7 236.724 132.69C238.094 132.65 239.464 132.61 240.825 132.58C241.435 132.57 241.764 132.83 241.754 133.42C241.714 134.82 241.665 136.22 241.655 137.63C241.655 138.16 241.254 138.48 240.784 138.44C240.314 138.41 240.024 138.07 240.034 137.52C240.044 136.84 240.094 136.16 240.134 135.36C239.504 136.05 239.054 136.73 238.634 137.43C237.564 139.22 236.915 141.16 236.655 143.21C236.215 146.68 236.905 149.94 238.655 152.97C239.305 154.09 240.135 155.06 240.984 156.02C241.314 156.4 241.344 156.93 241.034 157.21C240.734 157.48 240.224 157.44 239.884 157.1C237.314 154.55 235.725 151.48 235.175 147.9C234.445 143.16 235.484 138.84 238.354 134.97C238.494 134.78 238.644 134.59 238.784 134.4C238.804 134.38 238.805 134.34 238.825 134.22L238.845 134.23Z" fill="#BFD6E5"/>
<path d="M249.085 150.08H271.405C272.105 150.08 272.435 150.34 272.445 150.86C272.445 151.36 272.175 151.62 271.715 151.7C271.535 151.73 271.335 151.72 271.155 151.72C263.695 151.72 256.245 151.72 248.785 151.72C248.945 151.18 249.105 150.65 249.095 150.08H249.085Z" fill="#3B66C9"/>
<path d="M255.315 132.97C256.735 132.97 257.855 134.08 257.855 135.5C257.855 136.89 256.745 138.02 255.365 138.04C253.955 138.06 252.805 136.93 252.795 135.52C252.795 134.1 253.905 132.97 255.325 132.97H255.315Z" fill="#FCE00F"/>
<path d="M273.674 142.67C274.264 143.67 274.254 144.66 273.664 145.65C272.504 146.85 271.084 147.02 269.974 146.11C268.854 145.19 268.724 143.52 269.694 142.45C270.674 141.37 272.324 141.32 273.364 142.33C273.474 142.44 273.574 142.55 273.684 142.66L273.674 142.67Z" fill="#FCE00F"/>
<path d="M263.465 141.63C264.915 141.63 265.965 142.71 265.965 144.18C265.965 145.61 264.855 146.69 263.405 146.68C262.035 146.68 260.915 145.53 260.915 144.14C260.915 142.73 262.045 141.63 263.475 141.63H263.465Z" fill="#90EBFE"/>
<path d="M255.685 156.8C255.685 158.22 254.575 159.34 253.155 159.34C251.745 159.34 250.625 158.2 250.625 156.79C250.625 155.39 251.735 154.29 253.135 154.29C254.585 154.29 255.675 155.37 255.675 156.81L255.685 156.8Z" fill="#FC98C7"/>
<path d="M265.975 135.5C265.975 136.92 264.845 138.05 263.445 138.04C262.045 138.04 260.905 136.89 260.915 135.48C260.915 134.09 262.045 132.99 263.435 132.98C264.875 132.98 265.975 134.06 265.975 135.5Z" fill="#FC98C7"/>
<path d="M255.325 141.63C256.765 141.63 257.845 142.72 257.845 144.17C257.845 145.59 256.715 146.7 255.295 146.69C253.915 146.69 252.795 145.55 252.795 144.17C252.795 142.75 253.915 141.64 255.335 141.64L255.325 141.63Z" fill="#D7EAFB"/>
<path d="M263.805 156.81C263.805 158.23 262.685 159.34 261.265 159.34C259.885 159.34 258.755 158.21 258.745 156.83C258.745 155.41 259.845 154.29 261.275 154.29C262.715 154.29 263.805 155.37 263.805 156.81Z" fill="#D7EAFB"/>
<path d="M271.915 157.48C271.915 157.48 271.915 157.53 271.915 157.55C271.515 158.33 271.025 159 270.105 159.24C269.055 159.51 268.165 159.23 267.475 158.41C266.835 157.64 266.665 156.75 267.095 155.82C267.525 154.88 268.235 154.3 269.325 154.28C270.905 154.26 271.955 155.32 271.935 156.91C271.935 157.1 271.925 157.29 271.915 157.47V157.48Z" fill="#23E6BF"/>
<path d="M273.765 134.14C274.205 135.06 274.215 135.97 273.765 136.89C273.285 137.37 272.815 137.85 272.085 137.99C271.095 138.17 270.275 137.87 269.655 137.14C268.965 136.33 268.815 135.37 269.305 134.41C269.735 133.56 270.435 133.03 271.455 132.99C272.455 132.96 273.195 133.38 273.775 134.15L273.765 134.14Z" fill="#23E6BF"/>
<path d="M264.055 127.96C263.435 127.96 262.825 127.96 262.205 127.96C261.685 127.96 261.355 127.66 261.335 127.21C261.325 126.75 261.675 126.43 262.215 126.42C263.465 126.42 264.715 126.42 265.965 126.42C266.545 126.42 266.775 126.65 266.775 127.16C266.775 127.73 266.545 127.95 265.955 127.96C265.325 127.96 264.685 127.96 264.055 127.96Z" fill="#3B66C8"/>
<path d="M258.135 127.17C258.135 126.64 258.345 126.42 258.815 126.42C259.315 126.42 259.575 126.67 259.575 127.18C259.575 127.69 259.325 127.97 258.845 127.97C258.355 127.97 258.125 127.71 258.135 127.18V127.17Z" fill="#3B66C8"/>
<path d="M256.045 173.13C255.065 173.13 254.095 173.13 253.115 173.13C252.265 173.13 251.665 172.56 251.675 171.78C251.675 171.07 252.335 170.46 253.115 170.46C255.065 170.46 257.025 170.46 258.975 170.46C259.865 170.46 260.425 171.03 260.405 171.86C260.395 172.63 259.835 173.13 258.975 173.13C257.995 173.13 257.025 173.13 256.045 173.13Z" fill="#8CAABD"/>
<path d="M221.955 133.55L223.905 134.09L224.945 130.33L227.165 130.95L226.115 134.71L229.825 135.74L229.185 138.05L219.075 135.23L220.785 129.09L223.005 129.71L221.935 133.54L221.955 133.55Z" fill="black"/>
<path d="M227.725 129.68C225.795 128.56 225.185 126.16 226.295 124.26C227.395 122.35 229.775 121.69 231.715 122.81C233.645 123.93 234.255 126.32 233.145 128.23C232.045 130.14 229.665 130.8 227.725 129.68ZM230.585 124.75C229.665 124.22 228.675 124.51 228.185 125.36C227.695 126.2 227.925 127.2 228.855 127.74C229.775 128.27 230.765 127.98 231.255 127.13C231.745 126.29 231.505 125.28 230.585 124.75Z" fill="black"/>
<path d="M227.415 116.97L228.895 115.28L237.125 122.5L235.645 124.19L227.415 116.97Z" fill="black"/>
<path d="M237.565 108.51L243.915 116.87L242.125 118.23L241.695 117.67C241.645 118.42 241.265 119.14 240.465 119.75C238.895 120.94 236.565 120.54 235.215 118.77C233.865 116.99 234.105 114.64 235.675 113.45C236.475 112.84 237.265 112.67 238.005 112.83L235.765 109.88L237.555 108.52L237.565 108.51ZM239.855 115.25C239.175 114.35 238.155 114.25 237.325 114.87C236.505 115.5 236.335 116.51 237.015 117.41C237.695 118.31 238.715 118.41 239.545 117.79C240.365 117.16 240.545 116.15 239.855 115.25Z" fill="black"/>
<path d="M249.215 106.63L251.915 113.63L249.815 114.44L249.565 113.78C249.305 114.49 248.745 115.08 247.805 115.44C245.975 116.15 243.835 115.12 243.035 113.04C242.235 110.95 243.125 108.76 244.955 108.05C245.895 107.69 246.705 107.75 247.375 108.1L247.125 107.44L249.225 106.63H249.215ZM248.465 110.94C248.055 109.89 247.105 109.5 246.145 109.88C245.175 110.25 244.735 111.18 245.135 112.23C245.535 113.28 246.495 113.67 247.455 113.29C248.415 112.91 248.865 111.99 248.465 110.94Z" fill="black"/>
<path d="M260.595 109C260.775 111.23 259.305 113.08 257.345 113.24C256.345 113.32 255.585 113.04 255.045 112.51L255.105 113.21L252.865 113.4L251.995 102.93L254.235 102.74L254.545 106.43C254.995 105.82 255.695 105.42 256.695 105.33C258.655 105.17 260.415 106.75 260.595 108.98V109ZM258.355 109.19C258.265 108.07 257.455 107.43 256.425 107.51C255.395 107.59 254.705 108.36 254.795 109.48C254.885 110.6 255.695 111.24 256.725 111.16C257.755 111.07 258.445 110.31 258.355 109.19Z" fill="black"/>
<path d="M262.945 102.2L265.175 102.46L263.885 113.33L261.655 113.07L262.935 102.2H262.945Z" fill="black"/>
<path d="M269.265 112.8C269.855 112.99 270.425 112.92 270.815 112.69L272.215 114.22C271.205 114.97 269.985 115.14 268.625 114.7C266.175 113.92 265.185 111.8 265.865 109.67C266.545 107.54 268.605 106.38 270.865 107.1C272.955 107.76 273.985 109.87 273.295 112.03C273.205 112.33 273.085 112.61 272.935 112.86L267.855 111.25C267.895 112.08 268.465 112.55 269.255 112.8H269.265ZM271.405 110.61C271.435 109.71 270.895 109.2 270.245 109C269.425 108.74 268.754 108.97 268.324 109.63L271.394 110.61H271.405Z" fill="black"/>
<path d="M288.385 114.47L281.645 122.52L279.915 121.07L280.365 120.53C279.615 120.65 278.835 120.44 278.065 119.8C276.555 118.54 276.425 116.18 277.855 114.46C279.295 112.75 281.645 112.46 283.145 113.73C283.915 114.38 284.255 115.11 284.275 115.87L286.655 113.03L288.375 114.48L288.385 114.47ZM282.325 118.2C283.045 117.34 282.925 116.32 282.135 115.65C281.345 114.99 280.315 115.05 279.595 115.91C278.875 116.77 278.995 117.79 279.785 118.46C280.575 119.12 281.605 119.06 282.325 118.2Z" fill="black"/>
<path d="M288.095 118.85L289.495 120.61L283.635 125.29L282.235 123.53L288.095 118.85ZM289.525 117.42C290.095 116.96 290.965 117.06 291.425 117.63C291.885 118.21 291.785 119.07 291.215 119.53C290.635 119.99 289.775 119.89 289.315 119.32C288.855 118.74 288.955 117.88 289.525 117.42Z" fill="black"/>
<path d="M289.195 130.15C287.695 130.99 286.315 130.05 285.525 128.63C284.795 127.32 284.735 126.05 285.505 124.94L287.425 126.1C287.025 126.55 286.955 127.07 287.275 127.64C287.535 128.11 287.815 128.27 288.075 128.12C288.795 127.72 286.605 124.71 288.875 123.44C290.305 122.64 291.695 123.44 292.455 124.8C293.045 125.86 293.105 127.06 292.485 128.14L290.645 126.97C290.885 126.6 290.975 126.2 290.725 125.77C290.535 125.43 290.285 125.29 290.055 125.43C289.305 125.85 291.615 128.79 289.195 130.14V130.15Z" fill="black"/>
<path d="M293.255 138.58C291.095 139.16 289.005 138.04 288.505 136.15C288.245 135.18 288.385 134.38 288.805 133.75L285.225 134.71L284.645 132.54L294.785 129.81L295.365 131.98L294.685 132.16C295.365 132.49 295.885 133.11 296.145 134.08C296.655 135.98 295.405 137.99 293.255 138.57V138.58ZM292.675 136.41C293.765 136.12 294.245 135.21 293.975 134.21C293.705 133.21 292.835 132.67 291.745 132.96C290.655 133.25 290.175 134.16 290.445 135.16C290.715 136.16 291.585 136.7 292.675 136.41Z" fill="black"/>
<path d="M300.385 139.71L300.515 141.96L289.575 142.61L289.445 140.36L300.385 139.7V139.71Z" fill="black"/>
<path d="M296.175 152.41L288.745 151.38L289.055 149.15L289.755 149.25C289.255 148.68 289.015 147.91 289.155 146.91C289.425 144.96 291.355 143.6 293.575 143.9C295.785 144.21 297.275 146.05 297.005 148C296.865 149 296.425 149.68 295.795 150.09L296.495 150.19L296.185 152.42L296.175 152.41ZM292.765 149.66C293.875 149.82 294.685 149.17 294.825 148.14C294.965 147.11 294.375 146.27 293.255 146.12C292.135 145.97 291.335 146.61 291.195 147.64C291.055 148.67 291.645 149.51 292.765 149.66Z" fill="black"/>
<path d="M292.505 161.8L286.815 156.6C284.945 154.9 284.595 153.3 285.515 151.41L287.445 152.23C287.035 153.2 287.145 153.78 287.865 154.44L295.615 154.48L294.645 156.76L289.775 156.5L293.445 159.59L292.505 161.8Z" fill="black"/>
</svg>
