<svg width="518" height="192" viewBox="0 0 518 192" fill="none" xmlns="http://www.w3.org/2000/svg">
<path d="M14.9793 21.1C14.2193 21.1 13.5793 20.84 13.0593 20.32C12.5526 19.8 12.2993 19.1533 12.2993 18.38C12.2993 17.6067 12.5526 16.9667 13.0593 16.46C13.5793 15.9533 14.2193 15.7 14.9793 15.7C15.7526 15.7 16.3993 15.9533 16.9193 16.46C17.4393 16.9667 17.6993 17.6067 17.6993 18.38C17.6993 19.1533 17.4393 19.8 16.9193 20.32C16.3993 20.84 15.7526 21.1 14.9793 21.1ZM36.44 9.76C37.3467 9.76 38.18 9.98667 38.94 10.44C39.7133 10.88 40.32 11.4867 40.76 12.26C41.2133 13.02 41.44 13.8533 41.44 14.76C41.44 15.6667 41.2133 16.5067 40.76 17.28C40.32 18.04 39.7133 18.6467 38.94 19.1C38.18 19.54 37.3467 19.76 36.44 19.76H34.1V24H31.06V9.76H36.44ZM36.24 16.98C36.8267 16.98 37.3333 16.7667 37.76 16.34C38.2 15.9 38.42 15.3733 38.42 14.76C38.42 14.16 38.2 13.64 37.76 13.2C37.3333 12.76 36.8267 12.54 36.24 12.54H34.1V16.98H36.24ZM48.4913 13.44C49.3046 13.44 50.0379 13.6533 50.6913 14.08C51.3579 14.5067 51.8779 15.08 52.2513 15.8C52.6246 16.52 52.8113 17.3067 52.8113 18.16V24H49.7713V18.26C49.7713 17.7667 49.5913 17.34 49.2313 16.98C48.8846 16.62 48.4513 16.44 47.9313 16.44C47.4513 16.44 47.0313 16.62 46.6713 16.98C46.3113 17.34 46.1313 17.7667 46.1313 18.26V24H43.0913V9.16H46.1313V14.34C46.7979 13.74 47.5846 13.44 48.4913 13.44ZM59.7375 24.24C58.7108 24.24 57.7642 24 56.8975 23.52C56.0442 23.0267 55.3642 22.3667 54.8575 21.54C54.3642 20.7133 54.1175 19.8067 54.1175 18.82C54.1175 17.8467 54.3642 16.9467 54.8575 16.12C55.3642 15.2933 56.0442 14.64 56.8975 14.16C57.7642 13.68 58.7108 13.44 59.7375 13.44C60.7508 13.44 61.6775 13.68 62.5175 14.16C63.3708 14.64 64.0442 15.2933 64.5375 16.12C65.0442 16.9467 65.2975 17.8467 65.2975 18.82C65.2975 19.8067 65.0442 20.7133 64.5375 21.54C64.0442 22.3667 63.3708 23.0267 62.5175 23.52C61.6775 24 60.7508 24.24 59.7375 24.24ZM59.7175 21.4C60.4242 21.4 61.0242 21.1533 61.5175 20.66C62.0242 20.1667 62.2775 19.56 62.2775 18.84C62.2775 18.12 62.0242 17.5133 61.5175 17.02C61.0242 16.5133 60.4242 16.26 59.7175 16.26C58.9975 16.26 58.3908 16.5133 57.8975 17.02C57.4042 17.5133 57.1575 18.12 57.1575 18.84C57.1575 19.56 57.4042 20.1667 57.8975 20.66C58.3908 21.1533 58.9975 21.4 59.7175 21.4ZM72.2561 13.44C73.0694 13.44 73.8028 13.6533 74.4561 14.08C75.1228 14.5067 75.6428 15.08 76.0161 15.8C76.3894 16.52 76.5761 17.3067 76.5761 18.16V24H73.5361V18.24C73.5361 17.7467 73.3561 17.32 72.9961 16.96C72.6494 16.6 72.2161 16.42 71.6961 16.42C71.2161 16.42 70.7961 16.6 70.4361 16.96C70.0761 17.32 69.8961 17.7467 69.8961 18.24V24H66.8561V13.68H69.3761V14.92C69.7228 14.4533 70.1361 14.0933 70.6161 13.84C71.1094 13.5733 71.6561 13.44 72.2561 13.44ZM88.5075 18.82C88.5075 19.2867 88.4808 19.6733 88.4275 19.98H80.7675C80.9808 20.5133 81.3142 20.9467 81.7675 21.28C82.2208 21.6133 82.7608 21.78 83.3875 21.78C84.3608 21.78 85.1408 21.4333 85.7275 20.74L87.9275 21.9C87.4342 22.6467 86.7875 23.2267 85.9875 23.64C85.1875 24.04 84.3075 24.24 83.3475 24.24C82.3742 24.24 81.4742 23.9933 80.6475 23.5C79.8208 23.0067 79.1608 22.3467 78.6675 21.52C78.1875 20.6933 77.9475 19.7933 77.9475 18.82C77.9475 17.86 78.1875 16.9667 78.6675 16.14C79.1608 15.3133 79.8208 14.66 80.6475 14.18C81.4742 13.6867 82.3742 13.44 83.3475 13.44C84.3475 13.44 85.2342 13.68 86.0075 14.16C86.7942 14.64 87.4075 15.2933 87.8475 16.12C88.2875 16.9467 88.5075 17.8467 88.5075 18.82ZM83.3875 15.98C82.8142 15.98 82.2942 16.1333 81.8275 16.44C81.3742 16.7467 81.0342 17.1467 80.8075 17.64H85.9675C85.7408 17.1467 85.3942 16.7467 84.9275 16.44C84.4742 16.1333 83.9608 15.98 83.3875 15.98ZM99.7395 9.76C100.486 9.76 101.18 9.94667 101.82 10.32C102.46 10.68 102.966 11.18 103.34 11.82C103.713 12.46 103.9 13.1533 103.9 13.9C103.9 14.46 103.78 14.9667 103.54 15.42C103.313 15.86 103 16.22 102.6 16.5C103.186 16.78 103.646 17.1867 103.98 17.72C104.326 18.2533 104.5 18.88 104.5 19.6C104.5 20.4 104.3 21.14 103.9 21.82C103.5 22.4867 102.96 23.02 102.28 23.42C101.613 23.8067 100.88 24 100.08 24H93.7595V9.76H99.7395ZM99.4795 15.3C99.8662 15.3 100.193 15.1667 100.46 14.9C100.726 14.62 100.86 14.2867 100.86 13.9C100.86 13.5267 100.72 13.2067 100.44 12.94C100.173 12.6733 99.8529 12.54 99.4795 12.54H96.7995V15.3H99.4795ZM99.9195 21.14C100.346 21.14 100.706 20.9933 101 20.7C101.306 20.3933 101.46 20.0267 101.46 19.6C101.46 19.2 101.306 18.8467 101 18.54C100.706 18.2333 100.346 18.08 99.9195 18.08H96.7995V21.14H99.9195ZM111.495 24.24C110.469 24.24 109.522 24 108.655 23.52C107.802 23.0267 107.122 22.3667 106.615 21.54C106.122 20.7133 105.875 19.8067 105.875 18.82C105.875 17.8467 106.122 16.9467 106.615 16.12C107.122 15.2933 107.802 14.64 108.655 14.16C109.522 13.68 110.469 13.44 111.495 13.44C112.509 13.44 113.435 13.68 114.275 14.16C115.129 14.64 115.802 15.2933 116.295 16.12C116.802 16.9467 117.055 17.8467 117.055 18.82C117.055 19.8067 116.802 20.7133 116.295 21.54C115.802 22.3667 115.129 23.0267 114.275 23.52C113.435 24 112.509 24.24 111.495 24.24ZM111.475 21.4C112.182 21.4 112.782 21.1533 113.275 20.66C113.782 20.1667 114.035 19.56 114.035 18.84C114.035 18.12 113.782 17.5133 113.275 17.02C112.782 16.5133 112.182 16.26 111.475 16.26C110.755 16.26 110.149 16.5133 109.655 17.02C109.162 17.5133 108.915 18.12 108.915 18.84C108.915 19.56 109.162 20.1667 109.655 20.66C110.149 21.1533 110.755 21.4 111.475 21.4ZM129.634 9.16V24H127.114V22.62C126.341 23.7 125.254 24.24 123.854 24.24C122.867 24.24 121.961 23.9933 121.134 23.5C120.307 23.0067 119.647 22.3467 119.154 21.52C118.674 20.6933 118.434 19.7933 118.434 18.82C118.434 17.86 118.674 16.9667 119.154 16.14C119.647 15.3133 120.307 14.66 121.134 14.18C121.961 13.6867 122.867 13.44 123.854 13.44C124.961 13.44 125.874 13.78 126.594 14.46V9.16H129.634ZM124.034 21.4C124.741 21.4 125.341 21.1533 125.834 20.66C126.341 20.1667 126.594 19.56 126.594 18.84C126.594 18.12 126.341 17.5133 125.834 17.02C125.341 16.5133 124.741 16.26 124.034 16.26C123.327 16.26 122.721 16.5133 122.214 17.02C121.721 17.5133 121.474 18.12 121.474 18.84C121.474 19.56 121.721 20.1667 122.214 20.66C122.721 21.1533 123.327 21.4 124.034 21.4ZM141.529 13.68L137.909 25.36C137.643 26.3733 137.109 27.2 136.309 27.84C135.523 28.4933 134.603 28.82 133.549 28.82H131.469V25.92H133.329C133.729 25.92 134.076 25.8067 134.369 25.58C134.676 25.3667 134.889 25.0733 135.009 24.7L135.229 24H133.589L130.649 13.68H133.709L135.969 21.62L138.449 13.68H141.529ZM151.796 24.12C150.782 24.12 149.842 23.8667 148.976 23.36C148.122 22.8533 147.442 22.1733 146.936 21.32C146.442 20.4533 146.196 19.5133 146.196 18.5V9.76H149.216V18.66C149.216 19.1267 149.329 19.56 149.556 19.96C149.796 20.3467 150.109 20.66 150.496 20.9C150.896 21.1267 151.329 21.24 151.796 21.24C152.262 21.24 152.696 21.1267 153.096 20.9C153.496 20.66 153.809 20.3467 154.036 19.96C154.276 19.56 154.396 19.1267 154.396 18.66V9.76H157.416V18.5C157.416 19.5133 157.162 20.4533 156.656 21.32C156.162 22.1733 155.482 22.8533 154.616 23.36C153.762 23.8667 152.822 24.12 151.796 24.12ZM164.541 13.44C165.355 13.44 166.088 13.6533 166.741 14.08C167.408 14.5067 167.928 15.08 168.301 15.8C168.675 16.52 168.861 17.3067 168.861 18.16V24H165.821V18.24C165.821 17.7467 165.641 17.32 165.281 16.96C164.935 16.6 164.501 16.42 163.981 16.42C163.501 16.42 163.081 16.6 162.721 16.96C162.361 17.32 162.181 17.7467 162.181 18.24V24H159.141V13.68H161.661V14.92C162.008 14.4533 162.421 14.0933 162.901 13.84C163.395 13.5733 163.941 13.44 164.541 13.44ZM170.373 10.24H173.493V12.58H170.373V10.24ZM170.413 13.68H173.433V24H170.413V13.68ZM182.918 21.22V24H180.678C179.985 24 179.345 23.84 178.758 23.52C178.185 23.2 177.725 22.76 177.378 22.2C177.045 21.6267 176.878 20.9933 176.878 20.3V16.48H174.618V13.68H176.878V10.62H179.918V13.68H182.718V16.46H179.918V20.3C179.918 20.5533 180.005 20.7733 180.178 20.96C180.365 21.1333 180.585 21.22 180.838 21.22H182.918ZM189.175 24.24C188.228 24.24 187.328 24.1067 186.475 23.84C185.635 23.56 184.888 23.1733 184.235 22.68L185.515 20.7C186.741 21.4067 187.961 21.76 189.175 21.76C189.721 21.76 190.108 21.7 190.335 21.58C190.575 21.4467 190.695 21.26 190.695 21.02C190.695 20.7933 190.575 20.6267 190.335 20.52C190.095 20.4 189.655 20.26 189.015 20.1C187.561 19.7667 186.501 19.3533 185.835 18.86C185.181 18.3533 184.855 17.64 184.855 16.72C184.855 15.7333 185.248 14.94 186.035 14.34C186.821 13.74 187.875 13.44 189.195 13.44C189.901 13.44 190.608 13.54 191.315 13.74C192.021 13.94 192.661 14.2067 193.235 14.54L192.195 16.66C191.141 16.18 190.141 15.94 189.195 15.94C188.795 15.94 188.468 16.0133 188.215 16.16C187.975 16.3067 187.855 16.5067 187.855 16.76C187.855 17.0267 187.975 17.2133 188.215 17.32C188.455 17.4267 188.908 17.5333 189.575 17.64C190.935 17.8933 191.961 18.2867 192.655 18.82C193.348 19.3533 193.695 20.0667 193.695 20.96C193.695 21.9733 193.288 22.7733 192.475 23.36C191.675 23.9467 190.575 24.24 189.175 24.24Z" fill="black"/>
<path d="M187.864 187C212.717 187 232.864 166.853 232.864 142C232.864 117.147 212.717 97 187.864 97C163.011 97 142.864 117.147 142.864 142C142.864 166.853 163.011 187 187.864 187Z" stroke="#0018C6" stroke-width="4" stroke-miterlimit="10"/>
<path d="M197.704 122.81C198.344 122.81 198.994 122.79 199.634 122.81C200.394 122.83 201.064 123.48 201.114 124.23C201.134 124.44 201.124 124.65 201.124 124.86C201.124 138.82 201.124 152.79 201.144 166.75C201.144 167.73 200.854 168.42 199.944 168.82H175.674C174.764 168.42 174.394 167.73 174.484 166.75C174.524 166.31 174.504 165.85 174.504 165.41C175.554 165.41 176.594 165.41 177.644 165.41C180.504 165.41 183.354 165.41 186.214 165.41C186.534 165.41 186.704 165.37 186.574 164.98C186.494 164.73 186.504 164.45 186.614 164.19C186.874 163.57 187.554 163.26 188.214 163.46C188.854 163.66 189.204 164.28 189.034 165C188.964 165.29 188.984 165.41 189.324 165.41C191.534 165.41 193.754 165.41 195.964 165.41C196.984 165.41 197.694 164.64 197.694 163.63C197.694 162.64 197.694 161.66 197.694 160.67C198.104 160.48 198.224 160.15 198.224 159.72C198.224 149.36 198.224 139 198.224 128.64C198.224 128.2 198.074 127.89 197.684 127.7V122.84L197.704 122.81Z" fill="#453E43"/>
<path d="M197.704 122.81C197.704 124.43 197.704 126.05 197.704 127.67H196.274C196.114 127.67 195.944 127.67 195.784 127.67C190.004 127.67 184.224 127.67 178.434 127.67C177.494 127.67 177.304 127.86 177.304 128.79V158.18C177.304 158.34 177.304 158.51 177.314 158.67C177.314 158.97 177.294 159.27 177.294 159.57C177.294 160.49 177.444 160.65 178.354 160.65C184.804 160.65 191.254 160.65 197.704 160.65C197.704 161.64 197.704 162.62 197.704 163.61C197.704 164.63 196.994 165.38 195.974 165.39C193.764 165.41 191.544 165.39 189.334 165.39C189.004 165.39 188.984 165.27 189.044 164.98C189.214 164.26 188.864 163.64 188.224 163.44C187.564 163.24 186.884 163.55 186.624 164.17C186.514 164.43 186.504 164.71 186.584 164.96C186.714 165.35 186.544 165.39 186.224 165.39C183.364 165.39 180.514 165.39 177.654 165.39C176.604 165.39 175.564 165.39 174.514 165.39C174.514 165.21 174.504 165.03 174.504 164.85C174.504 151.49 174.504 138.13 174.484 124.77C174.484 123.43 175.294 122.77 176.494 122.77C183.394 122.81 190.304 122.79 197.214 122.79C197.374 122.79 197.544 122.79 197.704 122.8V122.81Z" fill="#685E66"/>
<path d="M152.494 132.76C154.834 133.27 156.314 135.56 155.784 137.98L155.384 139.83L159.254 140.67L158.644 143.49L146.334 140.82L147.344 136.16C147.874 133.73 150.164 132.26 152.494 132.76ZM151.884 135.57C150.984 135.38 150.164 135.86 149.974 136.72L149.574 138.57L152.744 139.26L153.144 137.41C153.334 136.55 152.784 135.77 151.884 135.57Z" fill="black"/>
<path d="M160.494 123.86L165.254 126.66L163.884 128.99L159.464 126.39C158.504 125.82 157.694 126.16 157.254 126.91C156.754 127.76 156.904 128.64 158.004 129.29L162.234 131.78L160.864 134.11L150.004 127.72L151.374 125.39L155.204 127.65C154.874 126.89 154.964 125.9 155.564 124.87C156.484 123.3 158.394 122.63 160.484 123.86H160.494Z" fill="black"/>
<path d="M162.564 122.84C160.784 120.83 161.014 117.87 162.994 116.12C164.974 114.37 167.944 114.52 169.714 116.53C171.494 118.54 171.264 121.5 169.284 123.25C167.304 125 164.334 124.86 162.564 122.84ZM167.694 118.31C166.844 117.35 165.614 117.31 164.734 118.09C163.854 118.87 163.744 120.09 164.584 121.05C165.424 122.01 166.664 122.05 167.544 121.27C168.424 120.49 168.534 119.27 167.694 118.31Z" fill="black"/>
<path d="M179.044 111.12L181.234 116.2L178.754 117.27L176.724 112.56C176.284 111.54 175.434 111.33 174.634 111.68C173.724 112.07 173.324 112.87 173.834 114.05L175.784 118.57L173.304 119.64L169.734 111.37L172.214 110.3L172.544 111.08C172.724 110.28 173.384 109.52 174.474 109.05C176.144 108.33 178.084 108.91 179.044 111.14V111.12Z" fill="black"/>
<path d="M186.534 113.41C187.274 113.34 187.874 113 188.194 112.57L190.454 113.61C189.684 114.91 188.414 115.66 186.714 115.82C183.644 116.1 181.564 114.21 181.314 111.54C181.074 108.87 182.814 106.63 185.644 106.37C188.264 106.13 190.384 107.98 190.634 110.68C190.664 111.06 190.664 111.42 190.634 111.77L184.274 112.35C184.704 113.25 185.554 113.5 186.544 113.41H186.534ZM187.884 110C187.504 108.99 186.664 108.68 185.854 108.76C184.834 108.85 184.194 109.42 184.034 110.36L187.884 110.01V110Z" fill="black"/>
<path d="M201.614 108.46L203.224 108.93L202.484 111.42L200.874 110.95L199.054 117.09L196.464 116.33L198.284 110.19L197.124 109.85L197.864 107.36L199.024 107.7C199.744 105.28 201.494 104.23 204.314 105.25L203.574 107.74C202.634 107.37 201.904 107.47 201.614 108.47V108.46Z" fill="black"/>
<path d="M210.054 112.11L208.644 114.83C207.734 114.16 206.124 113.83 205.304 115.41L203.434 119.02L201.034 117.78L205.174 109.79L207.574 111.03L206.834 112.45C207.704 111.54 209.044 111.59 210.054 112.11Z" fill="black"/>
<path d="M219.044 119.76L212.994 126.43L210.994 124.62L211.564 123.99C210.664 124.1 209.734 123.81 208.834 123C207.084 121.42 207.034 118.58 208.834 116.59C210.634 114.6 213.464 114.38 215.214 115.96C216.104 116.77 216.484 117.67 216.464 118.58L217.034 117.95L219.034 119.76H219.044ZM214.024 121.28C214.934 120.28 214.834 119.05 213.914 118.21C212.994 117.37 211.754 117.4 210.854 118.4C209.944 119.4 210.044 120.63 210.964 121.47C211.884 122.31 213.124 122.28 214.034 121.28H214.024Z" fill="black"/>
<path d="M224.604 136.85L219.594 139.19L218.454 136.74L223.254 134.5C224.074 134.12 224.414 133.48 224.044 132.7C223.664 131.88 222.874 131.69 221.914 132.14L217.314 134.29L216.174 131.84L220.974 129.6C221.794 129.22 222.134 128.58 221.764 127.8C221.384 126.98 220.604 126.79 219.634 127.24L215.034 129.39L213.894 126.94L222.054 123.13L223.194 125.58L222.444 125.93C223.174 126.05 223.934 126.57 224.444 127.66C224.894 128.62 224.834 129.52 224.364 130.3C225.234 130.45 226.004 131.01 226.544 132.16C227.424 134.04 226.654 135.88 224.614 136.84L224.604 136.85Z" fill="black"/>
<path d="M221.674 144.56C221.714 145.3 222.024 145.91 222.444 146.25L221.304 148.46C220.044 147.64 219.344 146.34 219.264 144.63C219.114 141.56 221.094 139.55 223.764 139.42C226.444 139.29 228.604 141.13 228.744 143.97C228.874 146.59 226.934 148.63 224.214 148.76C223.834 148.78 223.474 148.76 223.134 148.7L222.824 142.32C221.904 142.71 221.624 143.55 221.664 144.54L221.674 144.56ZM225.024 146.06C226.054 145.72 226.394 144.9 226.354 144.09C226.304 143.06 225.774 142.41 224.844 142.2L225.024 146.06Z" fill="black"/>
<path d="M327.864 187C352.717 187 372.864 166.853 372.864 142C372.864 117.147 352.717 97 327.864 97C303.011 97 282.864 117.147 282.864 142C282.864 166.853 303.011 187 327.864 187Z" stroke="#0018C6" stroke-width="4" stroke-miterlimit="10"/>
<path d="M354.864 169.31V170.11C354.654 170.65 354.334 171.11 353.854 171.44C350.654 173.66 347.454 175.87 344.244 178.08C343.324 178.71 342.164 178.47 341.514 177.56C341.164 177.07 340.804 176.59 340.514 176.07C339.784 174.72 338.764 174.14 337.174 174.3C335.174 174.5 333.654 173.53 332.564 171.88C331.704 170.59 330.864 169.3 330.004 168.01C329.894 167.85 329.824 167.64 329.604 167.58C329.604 167.36 329.474 167.21 329.364 167.04C328.674 165.99 327.964 164.95 327.294 163.88C326.424 162.48 326.364 160.43 328.104 159.32C328.564 159.03 328.974 158.65 329.404 158.32C329.614 158.35 329.694 158.52 329.804 158.67C330.774 160.1 331.754 161.53 332.724 162.95C333.524 164.13 334.314 165.32 335.124 166.5C335.424 166.94 336.004 167.08 336.394 166.83C336.814 166.56 336.894 165.99 336.594 165.5C336.524 165.39 336.444 165.28 336.374 165.17C333.214 160.55 330.054 155.92 326.894 151.3C324.854 148.31 322.814 145.31 320.774 142.32C320.354 141.71 320.034 141.07 320.064 140.29C320.074 139.96 320.324 139.67 320.184 139.33C320.184 139.27 320.184 139.22 320.184 139.16C321.304 138.62 322.664 138.97 323.414 140.01C324.044 140.89 324.654 141.77 325.274 142.66C326.434 144.36 327.584 146.07 328.754 147.76C329.144 148.33 329.474 148.95 329.974 149.44C329.974 149.53 330.014 149.6 330.084 149.66C330.314 150.1 330.644 150.47 330.954 150.85C331.244 151.19 331.714 151.18 332.064 150.9C332.464 150.57 332.514 150.09 332.154 149.57C331.634 148.82 331.264 148.03 331.354 147.08C331.374 146.83 331.634 146.61 331.464 146.33C332.684 145.79 333.864 146.08 334.694 147.11C334.924 147.4 335.074 147.77 335.424 147.97C335.674 148.5 335.954 149.01 336.324 149.46C336.604 149.79 337.174 149.87 337.494 149.65C337.844 149.41 337.974 148.9 337.764 148.49C337.634 148.24 337.474 148.01 337.304 147.78C336.754 147.02 336.654 146.17 336.804 145.27C336.834 145.12 336.894 144.98 336.754 144.86C337.614 144.39 338.454 144.46 339.284 144.92C339.964 145.3 340.284 145.99 340.754 146.56L340.854 146.66C341.124 147.16 341.384 147.66 341.804 148.06C342.134 148.37 342.514 148.33 342.864 148.14C343.204 147.95 343.284 147.6 343.224 147.23C343.184 146.98 343.044 146.76 342.884 146.57C342.304 145.85 342.074 145.02 342.154 144.1C342.174 143.84 342.224 143.57 342.254 143.31C343.484 142.82 344.834 143.21 345.594 144.32C347.474 147.08 349.374 149.84 351.194 152.64C352.694 154.95 353.524 157.52 353.844 160.25C354.074 162.17 354.124 164.1 354.034 166.02C353.974 167.23 354.234 168.32 354.854 169.35L354.864 169.31ZM351.964 169.16C351.964 168.85 351.774 168.61 351.494 168.43C351.144 168.21 350.814 168.32 350.514 168.52C349.504 169.19 348.504 169.87 347.504 170.55C347.024 170.88 346.934 171.39 347.234 171.8C347.554 172.24 348.024 172.33 348.504 172.01C349.514 171.34 350.514 170.66 351.514 169.98C351.784 169.79 351.974 169.55 351.974 169.16H351.964ZM345.874 173.34C345.874 172.65 345.234 172.22 344.634 172.52C344.324 172.68 344.034 172.87 343.754 173.08C343.424 173.34 343.354 173.93 343.584 174.26C343.884 174.68 344.374 174.79 344.794 174.51C345.084 174.32 345.384 174.15 345.634 173.89C345.794 173.72 345.894 173.55 345.864 173.34H345.874Z" fill="#FCD6AC"/>
<path d="M309.894 142.85C309.894 138.58 309.924 134.31 309.884 130.04C309.874 128.79 310.754 127.58 311.934 127.34C311.994 127.33 312.044 127.28 312.104 127.25H314.804C314.804 127.25 314.764 127.25 314.754 127.26C314.754 127.26 314.754 127.27 314.754 127.28C315.154 127.77 315.224 128.33 315.214 128.94C315.194 130.06 315.904 130.81 317.024 130.82C319.324 130.84 321.614 130.84 323.914 130.82C325.064 130.82 325.784 130.07 325.774 128.92C325.774 128.29 325.794 127.7 326.294 127.25H328.894C329.544 127.5 330.174 127.77 330.574 128.38C330.724 128.61 330.894 128.84 330.894 129.14C330.114 129.87 329.324 130.6 328.584 131.38C327.274 132.76 326.034 134.21 324.844 135.69C324.594 136 324.444 136.44 323.984 136.54C322.864 135.57 321.554 135.16 320.074 135.22C317.614 135.33 315.284 137.66 315.204 140.13C315.124 142.53 316.204 144.23 318.294 145.33C317.864 146.17 317.424 147 316.994 147.84C316.024 149.75 315.114 151.69 314.274 153.66C313.084 156.46 312.084 159.33 311.204 162.24C310.814 163.53 310.464 164.82 310.094 166.11C309.844 165.75 309.904 165.35 309.904 164.95C309.904 161.47 309.904 157.99 309.904 154.51C310.044 154.23 310.184 153.95 310.314 153.66C310.994 152.09 311.374 150.43 311.584 148.76C311.864 146.57 311.684 144.46 309.914 142.83L309.894 142.85Z" fill="#AFD2EF"/>
<path d="M326.284 127.24C325.784 127.7 325.754 128.28 325.764 128.91C325.774 130.06 325.044 130.8 323.904 130.81C321.604 130.83 319.314 130.83 317.014 130.81C315.894 130.8 315.174 130.06 315.204 128.93C315.214 128.32 315.144 127.76 314.744 127.27C314.894 127.36 315.064 127.34 315.234 127.34C318.694 127.34 322.154 127.34 325.614 127.34C325.774 127.34 325.954 127.39 326.084 127.24H326.284Z" fill="#364A5F"/>
<path d="M326.084 127.24C325.954 127.39 325.774 127.34 325.614 127.34C322.154 127.34 318.694 127.34 315.234 127.34C315.064 127.34 314.904 127.36 314.744 127.27C314.744 127.24 314.764 127.23 314.794 127.24H326.084Z" fill="#607890"/>
<path d="M310.094 166.13C310.464 164.84 310.814 163.54 311.204 162.26C312.074 159.35 313.084 156.48 314.274 153.68C315.114 151.71 316.014 149.77 316.994 147.86C317.424 147.02 317.864 146.18 318.294 145.35C318.474 145.42 318.654 145.5 318.844 145.55C319.514 145.73 320.194 145.95 320.904 145.74C320.984 145.84 321.074 145.95 321.144 146.05C323.544 149.58 325.944 153.11 328.344 156.64C328.714 157.19 329.154 157.69 329.414 158.31C328.984 158.65 328.574 159.02 328.114 159.31C326.374 160.42 326.434 162.47 327.304 163.87C327.964 164.94 328.684 165.98 329.374 167.03C329.484 167.2 329.614 167.35 329.614 167.57C328.944 167.93 328.204 167.77 327.494 167.86C327.284 167.85 327.064 167.83 326.854 167.83C322.134 167.83 317.414 167.83 312.694 167.83C311.404 167.83 310.524 167.24 310.094 166.13ZM320.464 165.21C321.564 165.21 322.664 165.21 323.764 165.21C324.464 165.21 324.874 164.88 324.884 164.34C324.894 163.8 324.474 163.44 323.794 163.43C321.584 163.43 319.364 163.43 317.154 163.43C316.494 163.43 316.104 163.77 316.094 164.31C316.094 164.88 316.474 165.21 317.174 165.21C318.274 165.21 319.374 165.21 320.474 165.21H320.464Z" fill="#90B9E0"/>
<path d="M323.974 136.55C324.434 136.45 324.584 136.01 324.834 135.7C326.024 134.22 327.254 132.77 328.574 131.39C329.314 130.61 330.104 129.88 330.884 129.15C331.064 129.52 331.074 129.92 331.074 130.32V146.49C330.604 146.93 330.184 147.41 330.034 148.07C329.924 148.53 330.014 148.99 329.984 149.45C329.474 148.96 329.154 148.34 328.764 147.77C327.594 146.08 326.444 144.37 325.284 142.67C325.624 142.06 325.764 141.4 325.774 140.72C325.814 139.07 325.174 137.7 323.974 136.57V136.55Z" fill="#90BAE0"/>
<path d="M323.974 136.55C325.174 137.67 325.814 139.04 325.774 140.7C325.754 141.38 325.624 142.05 325.284 142.65C324.664 141.77 324.054 140.88 323.424 140C322.674 138.96 321.314 138.61 320.194 139.15C319.944 139.24 319.664 139.3 319.584 139.62C319.504 139.61 319.454 139.63 319.484 139.73C319.394 139.71 319.354 139.73 319.384 139.83C319.284 139.8 319.254 139.83 319.284 139.93C318.764 140.27 318.504 141.17 318.694 141.93C318.704 142.39 318.914 142.78 319.164 143.16C319.744 144.02 320.324 144.88 320.894 145.74C320.184 145.95 319.514 145.72 318.834 145.55C318.644 145.5 318.464 145.41 318.284 145.35C316.194 144.25 315.114 142.55 315.194 140.15C315.274 137.68 317.604 135.36 320.064 135.24C321.554 135.17 322.854 135.58 323.974 136.56V136.55Z" fill="#4582C2"/>
<path d="M320.904 145.73C320.324 144.87 319.744 144.01 319.174 143.15C318.924 142.78 318.714 142.39 318.704 141.92C318.794 141.22 318.924 140.53 319.294 139.92L319.394 139.82L319.494 139.72L319.594 139.62C319.844 139.61 319.994 139.39 320.214 139.31C320.344 139.65 320.104 139.94 320.094 140.27C320.064 141.06 320.384 141.69 320.804 142.3C322.844 145.3 324.884 148.29 326.924 151.28C330.084 155.91 333.244 160.53 336.404 165.15C336.484 165.26 336.554 165.37 336.624 165.48C336.924 165.97 336.844 166.54 336.424 166.81C336.044 167.06 335.464 166.92 335.154 166.48C334.344 165.3 333.554 164.11 332.754 162.93C331.784 161.5 330.804 160.08 329.834 158.65C329.734 158.5 329.644 158.33 329.434 158.3C329.174 157.68 328.734 157.18 328.364 156.63C325.964 153.1 323.564 149.57 321.164 146.04C321.094 145.93 321.004 145.83 320.924 145.73H320.904Z" fill="#CBB292"/>
<path d="M351.964 169.16C351.964 169.55 351.784 169.79 351.504 169.98C350.504 170.66 349.504 171.34 348.494 172.01C348.014 172.33 347.544 172.24 347.224 171.8C346.924 171.38 347.014 170.88 347.494 170.55C348.494 169.86 349.494 169.18 350.504 168.52C350.804 168.32 351.134 168.21 351.484 168.43C351.764 168.61 351.944 168.85 351.954 169.16H351.964Z" fill="#FDE6CD"/>
<path d="M340.784 146.53C340.664 145.77 340.654 145.03 341.074 144.33C341.364 143.85 341.754 143.49 342.274 143.28C342.244 143.54 342.204 143.8 342.174 144.07C342.094 144.99 342.324 145.81 342.904 146.54C343.064 146.73 343.204 146.95 343.244 147.2C343.304 147.57 343.224 147.92 342.884 148.11C342.534 148.3 342.154 148.34 341.824 148.03C341.414 147.63 341.144 147.13 340.874 146.63L340.774 146.53H340.784Z" fill="#CBB293"/>
<path d="M335.444 147.95C335.154 146.5 335.604 145.45 336.784 144.83C336.924 144.95 336.864 145.09 336.834 145.24C336.674 146.14 336.784 146.99 337.334 147.75C337.494 147.98 337.664 148.21 337.794 148.46C338.004 148.87 337.874 149.38 337.524 149.62C337.204 149.84 336.634 149.76 336.354 149.43C335.974 148.98 335.694 148.47 335.454 147.94L335.444 147.95Z" fill="#CBB293"/>
<path d="M329.984 149.43C330.014 148.97 329.924 148.51 330.034 148.05C330.184 147.39 330.604 146.92 331.074 146.47C331.204 146.42 331.344 146.36 331.474 146.31C331.634 146.58 331.384 146.8 331.364 147.06C331.274 148.02 331.644 148.8 332.164 149.55C332.524 150.07 332.474 150.55 332.074 150.88C331.724 151.17 331.244 151.17 330.964 150.83C330.654 150.45 330.314 150.08 330.094 149.64C330.084 149.55 330.094 149.46 329.984 149.42V149.43Z" fill="#CBB292"/>
<path d="M345.874 173.35C345.904 173.56 345.804 173.73 345.644 173.9C345.394 174.16 345.094 174.33 344.804 174.52C344.384 174.8 343.894 174.69 343.594 174.27C343.364 173.95 343.424 173.35 343.764 173.09C344.034 172.88 344.334 172.69 344.644 172.53C345.234 172.23 345.884 172.65 345.884 173.35H345.874Z" fill="#FDE6CD"/>
<path d="M320.204 139.32C319.984 139.4 319.834 139.61 319.584 139.62C319.664 139.3 319.944 139.24 320.194 139.15C320.194 139.21 320.194 139.26 320.194 139.32H320.204Z" fill="#E2C8AA"/>
<path d="M329.984 149.42C330.084 149.46 330.074 149.56 330.094 149.64C330.024 149.58 329.974 149.51 329.984 149.42Z" fill="#90BAE0"/>
<path d="M310.094 166.13C310.524 167.24 311.404 167.83 312.694 167.83C317.414 167.83 322.134 167.83 326.854 167.83C327.064 167.83 327.284 167.85 327.494 167.86C326.574 169.35 325.184 170.31 323.744 171.23C323.574 171.34 323.404 171.45 323.234 171.54C322.474 171.95 322.204 172.63 322.204 173.45C322.204 174.48 322.174 175.52 322.204 176.55C322.244 177.59 321.374 178.44 320.334 178.42C316.894 178.37 313.444 178.4 310.004 178.4C308.804 178.4 308.124 177.71 308.104 176.51C308.084 175.5 308.194 174.48 308.044 173.47C307.894 172.44 307.334 171.58 306.784 170.73C306.114 169.68 305.454 168.62 304.724 167.6C304.014 166.6 303.764 165.47 303.734 164.31C303.664 162 303.904 159.7 303.964 157.39C303.994 156.3 303.964 155.2 303.904 154.1C303.814 152.59 304.084 151.15 304.744 149.79C305.634 147.94 306.044 145.96 306.324 143.95C306.494 142.73 307.424 142.05 308.524 142.33C309.554 143.45 309.834 144.83 309.904 146.28C309.974 147.64 309.624 148.94 309.344 150.25C309.064 151.52 308.634 152.74 308.034 153.89C307.774 154.39 307.954 154.92 308.424 155.17C308.914 155.43 309.394 155.3 309.714 154.81C309.774 154.71 309.844 154.62 309.904 154.52C309.904 158 309.904 161.48 309.904 164.96C309.904 165.36 309.854 165.76 310.094 166.12V166.13ZM317.414 174.01C317.014 174.01 316.614 174 316.214 174.01C315.614 174.03 315.214 174.39 315.204 174.89C315.194 175.39 315.594 175.78 316.194 175.79C316.994 175.81 317.794 175.81 318.584 175.79C319.184 175.78 319.584 175.41 319.594 174.91C319.594 174.39 319.194 174.02 318.554 174C318.174 173.99 317.794 174 317.404 174L317.414 174.01ZM312.134 175.81C312.344 175.82 312.604 175.81 312.864 175.71C313.284 175.53 313.494 175.13 313.384 174.71C313.274 174.29 312.894 174.03 312.344 174.02C311.754 174 311.164 173.97 310.834 174.61C310.804 174.67 310.814 174.74 310.804 174.81C310.754 175.49 311.164 175.82 312.134 175.82V175.81Z" fill="#FCD6AD"/>
<path d="M309.894 154.53C309.834 154.63 309.764 154.72 309.704 154.82C309.384 155.31 308.904 155.44 308.414 155.18C307.944 154.93 307.764 154.4 308.024 153.9C308.624 152.74 309.064 151.53 309.334 150.26C309.624 148.95 309.964 147.65 309.894 146.29C309.814 144.85 309.544 143.46 308.514 142.34C309.044 142.32 309.434 142.68 309.894 142.85C311.674 144.48 311.844 146.59 311.564 148.78C311.354 150.46 310.974 152.12 310.294 153.68C310.164 153.97 310.024 154.25 309.884 154.53H309.894Z" fill="#CBB292"/>
<path d="M320.464 165.21C319.364 165.21 318.264 165.21 317.164 165.21C316.464 165.21 316.074 164.87 316.084 164.31C316.084 163.77 316.484 163.44 317.144 163.43C319.354 163.43 321.574 163.43 323.784 163.43C324.464 163.43 324.884 163.8 324.874 164.34C324.864 164.88 324.444 165.21 323.754 165.21C322.654 165.21 321.554 165.21 320.454 165.21H320.464Z" fill="#374B60"/>
<path d="M319.284 139.92C318.914 140.54 318.784 141.22 318.694 141.92C318.504 141.16 318.764 140.27 319.284 139.92Z" fill="#E2C8AA"/>
<path d="M319.594 139.63L319.494 139.73C319.474 139.64 319.514 139.61 319.594 139.63Z" fill="#E2C8AA"/>
<path d="M319.494 139.72L319.394 139.82C319.364 139.72 319.404 139.7 319.494 139.72Z" fill="#E2C8AA"/>
<path d="M319.394 139.82L319.294 139.92C319.274 139.83 319.294 139.79 319.394 139.82Z" fill="#E2C8AA"/>
<path d="M317.404 174.01C317.784 174.01 318.164 174 318.554 174.01C319.184 174.03 319.604 174.4 319.594 174.92C319.594 175.42 319.184 175.79 318.584 175.8C317.784 175.82 316.984 175.82 316.194 175.8C315.594 175.78 315.204 175.4 315.204 174.9C315.204 174.4 315.614 174.04 316.214 174.02C316.614 174 317.014 174.02 317.414 174.02L317.404 174.01Z" fill="#FDE6CD"/>
<path d="M312.134 175.8C311.164 175.8 310.754 175.47 310.804 174.79C310.804 174.72 310.804 174.65 310.834 174.59C311.164 173.95 311.764 173.98 312.344 174C312.894 174.02 313.274 174.28 313.384 174.69C313.494 175.12 313.284 175.51 312.864 175.69C312.614 175.8 312.344 175.8 312.134 175.79V175.8Z" fill="#FDE6CD"/>
<path d="M292.404 127.77L291.564 130.34L299.354 132.87L298.614 135.15L290.824 132.61L289.984 135.18L287.784 134.46L290.194 127.04L292.394 127.75L292.404 127.77Z" fill="black"/>
<path d="M296.424 129.58C294.504 128.45 293.914 126.04 295.034 124.15C296.154 122.25 298.534 121.6 300.464 122.73C302.394 123.86 302.974 126.27 301.854 128.16C300.734 130.06 298.354 130.71 296.424 129.58ZM299.314 124.67C298.394 124.13 297.404 124.42 296.914 125.26C296.424 126.1 296.644 127.1 297.564 127.64C298.484 128.18 299.464 127.89 299.964 127.05C300.464 126.21 300.234 125.21 299.314 124.67Z" fill="black"/>
<path d="M304.004 113.85L309.224 119.23L307.604 120.8L307.114 120.29C307.214 120.97 306.924 121.75 306.214 122.44C305.124 123.49 303.454 123.62 302.044 122.16L298.844 118.86L300.454 117.29L303.434 120.36C304.084 121.03 304.804 120.93 305.324 120.43C305.914 119.86 305.994 119.11 305.244 118.35L302.394 115.41L304.004 113.84V113.85Z" fill="black"/>
<path d="M307.884 115.58C306.774 113.64 307.394 111.3 309.374 110.17C310.634 109.45 312.134 109.47 313.264 110.16L312.124 112.12C311.644 111.79 311.014 111.78 310.444 112.12C309.594 112.6 309.324 113.57 309.834 114.47C310.344 115.37 311.324 115.62 312.164 115.14C312.734 114.81 313.064 114.26 313.014 113.69H315.274C315.294 115.03 314.564 116.32 313.294 117.05C311.314 118.18 308.984 117.52 307.884 115.58Z" fill="black"/>
<path d="M322.154 108.77L323.374 113.21L321.204 113.8L320.074 109.68C319.824 108.78 319.144 108.52 318.454 108.71C317.654 108.93 317.234 109.54 317.514 110.57L318.594 114.52L316.424 115.11L313.654 104.98L315.824 104.39L316.804 107.97C317.044 107.33 317.674 106.78 318.634 106.52C320.094 106.12 321.624 106.82 322.164 108.78L322.154 108.77Z" fill="black"/>
<path d="M336.634 103.38L335.344 113.8L333.114 113.52L333.204 112.82C332.644 113.33 331.874 113.58 330.874 113.45C328.924 113.21 327.524 111.3 327.804 109.08C328.074 106.86 329.894 105.35 331.844 105.59C332.844 105.71 333.534 106.15 333.954 106.77L334.404 103.09L336.644 103.37L336.634 103.38ZM333.574 109.81C333.714 108.69 333.054 107.9 332.024 107.77C330.994 107.64 330.164 108.25 330.024 109.37C329.884 110.49 330.544 111.28 331.574 111.41C332.604 111.54 333.434 110.93 333.574 109.81Z" fill="black"/>
<path d="M338.754 107.2L340.884 107.91L338.514 115.03L336.384 114.32L338.754 107.2ZM339.174 105.22C339.404 104.52 340.184 104.13 340.884 104.37C341.584 104.61 341.974 105.38 341.734 106.08C341.504 106.78 340.724 107.17 340.024 106.93C339.324 106.69 338.934 105.92 339.174 105.22Z" fill="black"/>
<path d="M345.824 116.09C345.014 117.61 343.354 117.57 341.914 116.81C340.584 116.11 339.844 115.08 339.894 113.73L342.134 113.66C342.044 114.25 342.264 114.73 342.844 115.04C343.324 115.29 343.634 115.27 343.774 115.01C344.154 114.28 340.694 112.94 341.904 110.65C342.664 109.2 344.274 109.12 345.654 109.85C346.734 110.42 347.434 111.4 347.494 112.63L345.314 112.65C345.314 112.21 345.174 111.83 344.734 111.6C344.394 111.42 344.104 111.44 343.984 111.68C343.584 112.44 347.114 113.65 345.824 116.11V116.09Z" fill="black"/>
<path d="M353.824 120.98C352.324 122.64 349.964 122.83 348.514 121.51C347.764 120.84 347.454 120.09 347.474 119.33L344.994 122.08L343.324 120.57L350.364 112.78L352.034 114.29L351.564 114.81C352.314 114.72 353.094 114.96 353.834 115.63C355.294 116.95 355.334 119.31 353.834 120.97L353.824 120.98ZM352.154 119.47C352.904 118.64 352.824 117.61 352.054 116.92C351.284 116.23 350.254 116.25 349.504 117.08C348.754 117.91 348.834 118.94 349.604 119.63C350.374 120.32 351.404 120.3 352.154 119.47Z" fill="black"/>
<path d="M360.394 118.04L361.724 119.85L352.914 126.34L351.584 124.53L360.394 118.04Z" fill="black"/>
<path d="M363.784 131.01L356.984 134.17L356.034 132.13L356.674 131.83C355.944 131.62 355.324 131.1 354.904 130.19C354.074 128.41 354.954 126.21 356.984 125.27C359.014 124.33 361.254 125.07 362.084 126.85C362.504 127.76 362.504 128.57 362.194 129.26L362.834 128.96L363.784 131V131.01ZM359.434 130.55C360.454 130.08 360.774 129.1 360.344 128.16C359.904 127.22 358.954 126.84 357.934 127.31C356.914 127.78 356.594 128.76 357.024 129.7C357.464 130.64 358.414 131.02 359.434 130.55Z" fill="black"/>
<path d="M365.814 140.91L358.204 139.63C355.714 139.21 354.554 138.06 354.294 135.97L356.364 135.61C356.544 136.64 356.954 137.08 357.914 137.24L364.454 133.08L364.874 135.52L360.634 137.95L365.394 138.55L365.804 140.91H365.814Z" fill="black"/>
</svg>
