<?xml version="1.0" encoding="UTF-8"?><svg id="Layer_1" xmlns="http://www.w3.org/2000/svg" viewBox="0 0 100 100"><defs><style>.cls-1{fill:none;stroke:#c000e2;stroke-miterlimit:10;stroke-width:4px;}.cls-2{fill:#fedd46;}</style></defs><circle class="cls-1" cx="50" cy="50" r="45"/><g><path d="M14.9,47.5c-2.6-.5-4.3-2.9-3.7-5.6,.3-1.6,1.4-2.9,2.8-3.4l.7,2c-.8,.3-1.3,.9-1.5,1.9-.3,1.6,.5,2.8,2.1,3.1,1.6,.3,2.9-.5,3.2-2.1,.2-.9,0-1.8-.7-2.3l1.4-1.6c1.1,1,1.6,2.6,1.3,4.2-.5,2.7-2.9,4.2-5.6,3.7Z"/><path d="M18.3,38.4c-1.7-.9-2.4-2.9-1.6-4.6s2.9-2.4,4.6-1.6c1.7,.9,2.4,2.9,1.6,4.6-.8,1.7-2.9,2.4-4.6,1.6Zm2.2-4.4c-.8-.4-1.7,0-2,.7s-.1,1.6,.7,2c.8,.4,1.7,0,2-.7,.4-.8,.1-1.6-.7-2Z"/><path d="M28,23.2l2.9,2.7-1.3,1.4-2.8-2.6c-.5-.4-1-.5-1.4,0-.4,.5-.4,1.1,.2,1.6l2.7,2.5-1.3,1.4-2.8-2.6c-.5-.4-1-.5-1.4,0-.4,.5-.4,1.1,.2,1.6l2.7,2.5-1.3,1.4-4.8-4.4,1.3-1.4,.4,.4c-.1-.5,0-1.2,.6-1.8,.5-.6,1.1-.8,1.8-.7-.1-.6,0-1.3,.6-2,1-1.1,2.5-1.1,3.7,0Z"/><path d="M33.6,16.9l3.4,5.6-1.7,1-.3-.5c0,.6-.4,1.2-1.2,1.6-1.1,.7-2.6,.5-3.5-1l-2.1-3.4,1.7-1,1.9,3.2c.4,.7,1,.8,1.6,.4,.6-.4,.8-1,.3-1.8l-1.8-3,1.7-1Z"/><path d="M42.5,16.3l1.2,3.8-1.9,.6-1.1-3.5c-.2-.8-.8-1-1.4-.8-.7,.2-1,.8-.7,1.6l1.1,3.4-1.9,.6-2-6.2,1.9-.6,.2,.6c.2-.6,.7-1.1,1.5-1.3,1.2-.4,2.6,.2,3.1,1.8Z"/><path d="M43.4,12c0-.6,.4-1.2,1-1.3,.6,0,1.2,.4,1.3,1,0,.6-.4,1.2-1,1.3-.6,0-1.2-.4-1.3-1Zm.4,1.7l1.9-.3,.9,6.4-1.9,.3-.9-6.4Z"/><path d="M47.5,16.4c0-1.9,1.5-3.4,3.5-3.4,1.3,0,2.4,.7,2.9,1.7l-1.7,1c-.2-.5-.7-.7-1.2-.8-.8,0-1.5,.6-1.5,1.5,0,.9,.6,1.5,1.4,1.5,.6,0,1.1-.3,1.3-.7l1.7,1c-.6,1-1.7,1.6-3,1.6-2,0-3.4-1.6-3.4-3.5Z"/><path d="M62,15l-1.6,6.3-1.9-.5v-.6c-.4,.4-1.1,.5-1.9,.3-1.7-.4-2.7-2.2-2.2-4.1,.5-1.9,2.2-3,3.8-2.6,.8,.2,1.4,.6,1.7,1.2v-.6c.1,0,2,.5,2,.5Zm-2.7,2.7c.2-.9-.3-1.7-1.1-1.9-.9-.2-1.6,.2-1.9,1.2-.2,.9,.3,1.7,1.1,1.9,.9,.2,1.6-.2,1.9-1.2Z"/><path d="M65.6,18.7l-1,2.1c-.2,.5,.2,.8,1,1.1l-.8,1.6c-2.4-.9-2.8-1.9-2-3.5l1-2.1-.9-.4,.8-1.7,.9,.4,.5-1.1,2,.3-.8,1.6,1.2,.6-.8,1.7-1.2-.6Z"/><path d="M69,18.4l1.6,1-3.5,5.5-1.6-1,3.5-5.5Zm.8-1.6c.3-.5,1.1-.7,1.6-.4,.5,.3,.7,1.1,.4,1.6s-1.1,.7-1.6,.4c-.5-.3-.7-1.1-.4-1.6Z"/><path d="M70.1,22.9c1.3-1.4,3.4-1.5,4.9-.2,1.4,1.3,1.5,3.4,.2,4.9-1.3,1.4-3.4,1.5-4.9,.2-1.4-1.3-1.5-3.4-.2-4.9Zm3.7,3.3c.6-.7,.6-1.6,0-2.1-.6-.6-1.5-.6-2.1,.1-.6,.7-.6,1.6,0,2.1s1.5,.6,2.1-.1Z"/><path d="M80.2,33.3l-3.3,2.2-1.1-1.6,3.1-2.1c.7-.5,.7-1.1,.3-1.6-.4-.6-1-.8-1.8-.2l-2.9,2-1.1-1.6,5.4-3.7,1.1,1.6-.5,.3c.6,0,1.2,.4,1.7,1.1,.7,1.1,.6,2.5-.9,3.5Z"/><path d="M82.1,41c-1.9,.7-3.4-.3-4-2-.5-1.3-.4-2.7,.6-3.7l1.6,1.3c-.5,.4-.7,.9-.4,1.7,.3,.8,.9,1,1.4,.8,.5-.2,.8-.7,.5-1.5l-1-2.7,5-1.6,1.9,4.9-1.8,.7-1.2-3.1-1.2,.4,.3,.7c.6,1.6,.2,3.3-1.7,4Z"/><path d="M84.9,51.1c-2.8,.3-4.6-1.5-4.9-4-.3-2.8,1.6-5.1,4.2-5.4,2.6-.3,4.9,1.6,5.2,4.3,.2,1.7-.5,3.3-1.7,4.2l-1.2-1.7c.6-.4,.9-1.3,.8-2.3-.2-1.5-1.4-2.5-3-2.4-1.5,.2-2.6,1.4-2.4,3.1,.1,1.2,.7,1.9,1.6,2.2l-.3-2.4,1.8-.2,.5,4.5h-.8Z"/></g><path class="cls-2" d="M61.9,37.1c-8.5-.2-17.8-.2-26.3,0-14.8,1.9-22,20.9-11.6,31.8,2.2,3.3-1.6,9.5,2.3,11.8,3.3,1,5.2-3.4,7.4-5.1,9.2-1,20.3,.5,29.8-.5,22.1-2.9,20.7-37.2-1.6-38.2Z"/><g><path d="M40,53.4c1.7,0,3.2,.5,4.4,1.5,1.2,1,1.7,2.5,1.7,4.3s-.6,3.4-1.9,4.5c-1.3,1.1-2.8,1.6-4.7,1.6s-2.9-.3-4.1-1c-1.2-.7-2-1.7-2.5-3l4-2.3c.4,1.2,1.2,1.9,2.6,1.9s1.1-.1,1.5-.4c.3-.3,.5-.7,.5-1.2s-.2-.9-.5-1.2c-.3-.3-.8-.4-1.4-.4h-5.7l.7-10.5h10.5v4.4h-6.3v1.9c-.1,0,1.1,0,1.1,0Z"/><path d="M65.7,54.7v1.8c0,2.6-.8,4.7-2.5,6.4-1.6,1.6-3.8,2.4-6.4,2.4s-5.1-.9-6.9-2.7c-1.8-1.8-2.7-4-2.7-6.6s.9-4.8,2.7-6.6,4-2.7,6.6-2.7,3.2,.4,4.6,1.1c1.4,.7,2.5,1.7,3.2,3l-3.9,2.2c-.4-.6-.9-1-1.6-1.3s-1.5-.5-2.3-.5c-1.4,0-2.6,.5-3.5,1.4-.9,.9-1.4,2.1-1.4,3.5s.4,2.5,1.3,3.5c.9,1,2.1,1.4,3.8,1.4s3.4-.8,4.1-2.3h-4.3v-3.9h9Z"/></g></svg>