<?xml version="1.0" encoding="UTF-8"?><svg id="Layer_1" xmlns="http://www.w3.org/2000/svg" viewBox="0 0 100 100"><defs><style>.cls-1{fill:none;stroke:#c000e2;stroke-miterlimit:10;stroke-width:4px;}.cls-2{fill:gray;}</style></defs><circle class="cls-1" cx="53" cy="48" r="45"/><path d="m18.3,44.5c-2.5-.5-4-2.8-3.4-5.3.3-1.5,1.4-2.7,2.7-3.2l.6,1.9c-.7.2-1.3.9-1.5,1.7-.3,1.5.5,2.7,2,3,1.5.3,2.7-.4,3-1.9.2-.8,0-1.7-.6-2.2l1.3-1.4c1,1,1.5,2.5,1.2,4-.6,2.5-2.8,3.9-5.3,3.4Z"/><path d="m21.7,36c-1.6-.8-2.2-2.7-1.4-4.4.8-1.6,2.7-2.3,4.3-1.5,1.6.8,2.2,2.7,1.4,4.4-.8,1.6-2.7,2.3-4.3,1.5Zm2.1-4.2c-.8-.4-1.6,0-1.9.6-.4.7-.1,1.5.7,1.9s1.6,0,1.9-.6c.4-.7.1-1.5-.7-1.9Z"/><path d="m30.9,21.7l2.8,2.5-1.2,1.4-2.7-2.4c-.5-.4-.9-.5-1.3,0-.4.5-.3,1,.2,1.5l2.6,2.3-1.2,1.4-2.7-2.4c-.5-.4-.9-.5-1.3,0-.4.5-.3,1,.2,1.5l2.6,2.3-1.2,1.4-4.5-4.1,1.2-1.4.4.4c-.1-.5,0-1.1.6-1.7.5-.5,1.1-.7,1.7-.6-.1-.6,0-1.2.6-1.9.9-1,2.3-1,3.4,0Z"/><path d="m36,15.6l3.3,5.2-1.6,1-.3-.5c0,.6-.4,1.1-1.1,1.6-1,.7-2.4.5-3.3-.9l-2-3.2,1.6-1,1.9,3c.4.6,1,.7,1.5.4.6-.4.8-.9.3-1.7l-1.8-2.8,1.6-1Z"/><path d="m44.4,14.9l1.3,3.5-1.7.6-1.2-3.3c-.3-.7-.8-.9-1.4-.7-.6.2-.9.8-.7,1.6l1.1,3.2-1.7.6-2.1-5.8,1.7-.6.2.5c.2-.5.6-1,1.4-1.3,1.2-.4,2.5,0,3,1.6Z"/><path d="m45,10.7c-.1-.6.3-1.2.9-1.3s1.2.3,1.3.9c.1.6-.3,1.2-.9,1.3-.6.1-1.2-.3-1.3-.9Zm.5,1.6l1.8-.3,1.1,6-1.8.3-1.1-6Z"/><path d="m49.1,14.7c0-1.8,1.3-3.3,3.1-3.3,1.2,0,2.3.6,2.8,1.5l-1.6,1c-.2-.4-.7-.7-1.2-.7-.8,0-1.4.6-1.3,1.5,0,.8.6,1.4,1.4,1.4.5,0,1-.3,1.2-.7l1.6.9c-.5,1-1.5,1.6-2.7,1.7-1.9,0-3.3-1.3-3.3-3.1Z"/><path d="m62.7,12.7l-1.1,6-1.8-.3v-.6c-.4.4-1,.6-1.8.4-1.6-.3-2.6-1.9-2.3-3.7.3-1.8,1.9-2.9,3.5-2.7.8.1,1.3.5,1.7,1.1v-.6c.1,0,1.9.3,1.9.3Zm-2.4,2.7c.2-.9-.3-1.6-1.2-1.7-.8-.2-1.5.3-1.7,1.2-.2.9.3,1.6,1.2,1.7.8.2,1.5-.3,1.7-1.2Z"/><path d="m66.2,15.9l-.8,2c-.2.5.2.7,1,1l-.6,1.6c-2.3-.6-2.7-1.6-2.1-3.2l.8-2-.9-.4.6-1.6.9.4.4-1.1,1.9.2-.6,1.6,1.2.5-.6,1.6-1.2-.5Z"/><path d="m69.4,15.4l1.6.9-2.9,5.4-1.6-.9,2.9-5.4Zm.6-1.5c.3-.5,1-.7,1.5-.5.5.3.7,1,.5,1.5-.3.5-1,.7-1.5.5-.5-.3-.7-1-.5-1.5Z"/><path d="m70.7,19.5c1.1-1.4,3.1-1.7,4.5-.6,1.4,1.1,1.7,3.1.6,4.5-1.1,1.5-3.1,1.7-4.5.6-1.4-1.1-1.7-3.1-.6-4.5Zm3.7,2.8c.5-.7.4-1.5-.2-2s-1.5-.4-2,.3-.4,1.5.2,2c.6.5,1.5.4,2-.3Z"/><path d="m81.1,28.4l-2.9,2.4-1.2-1.4,2.7-2.2c.6-.5.6-1.1.2-1.5-.4-.5-1-.6-1.7,0l-2.6,2.1-1.2-1.4,4.7-3.9,1.2,1.4-.4.4c.6,0,1.2.2,1.7.9.8,1,.8,2.3-.5,3.4Z"/><path d="m79.7,30.6l4,1.2c.7.2,1.3.3,1.8,0,.5-.3.6-.7.4-1.2-.3-.5-.8-.7-1.4-.7v-1.9c1.5-.1,2.5.6,3.1,1.7.7,1.4.5,3-1.1,3.8-.9.5-1.9.4-3,0l-1.9-.6,1.3,2.5-1.7.9-2.7-5.2,1.3-.7Z"/><path d="m87.5,44.1c-2.5.6-4.5-.8-5.1-3.1-.6-2.6.8-5,3.2-5.6,2.4-.6,4.8.8,5.4,3.3.4,1.6,0,3.1-1,4.1l-1.3-1.4c.5-.5.7-1.3.5-2.3-.3-1.4-1.6-2.2-3.1-1.8-1.4.3-2.2,1.6-1.8,3.2.3,1.1.9,1.7,1.8,1.8l-.5-2.2,1.7-.4,1,4.2-.7.2Z"/><path class="cls-2" d="m65.8,36c-8.5-.2-17.8-.2-26.3,0-14.8,1.9-22,20.9-11.6,31.8,2.2,3.3-1.6,9.5,2.3,11.8,3.3,1,5.2-3.4,7.4-5.1,9.2-1,20.3.5,29.8-.5,22.1-2.9,20.7-37.2-1.6-38.2Z"/><path d="m37,63.8v-3.3l5.9-6.2c.6-.6,1-1.2,1.3-1.6.3-.4.4-.8.4-1.2s-.1-.8-.4-1.1c-.3-.3-.7-.4-1.2-.4-1.1,0-1.9.6-2.4,1.9l-3.9-2.2c.6-1.3,1.4-2.4,2.5-3.1,1.1-.7,2.4-1,3.7-1s3.2.5,4.4,1.5,1.8,2.4,1.8,4.1-.2,2-.7,2.9c-.5.9-1.2,1.8-2.1,2.8l-2.4,2.5h5.6v4.4h-12.5Z"/><path d="m68.8,53.6v1.8c0,2.6-.8,4.7-2.5,6.4-1.6,1.6-3.8,2.4-6.4,2.4s-5.1-.9-6.9-2.7c-1.8-1.8-2.7-4-2.7-6.6s.9-4.8,2.7-6.6c1.8-1.8,4-2.7,6.6-2.7s3.2.4,4.6,1.1c1.4.7,2.5,1.7,3.2,3l-3.9,2.2c-.4-.6-.9-1-1.6-1.3-.7-.3-1.5-.5-2.3-.5-1.4,0-2.6.5-3.5,1.4-.9.9-1.4,2.1-1.4,3.5s.4,2.5,1.3,3.5c.9,1,2.1,1.4,3.8,1.4s3.4-.8,4.1-2.3h-4.3v-3.9h9Z"/></svg>