<?xml version="1.0" encoding="UTF-8"?><svg id="Layer_1" xmlns="http://www.w3.org/2000/svg" viewBox="0 0 100 100"><defs><style>.cls-1{fill:#eb917f;}.cls-2{fill:#fbe501;}.cls-3{fill:#f9f3b1;}.cls-4{fill:#f3bd99;}.cls-5{fill:none;stroke:#c000e2;stroke-miterlimit:10;stroke-width:4px;}.cls-6{fill:#f4bd99;}.cls-7{fill:#06687f;}.cls-8{fill:#97d6e5;}.cls-9{fill:#7dcbe5;}.cls-10{fill:#eecf15;}.cls-11{fill:#9dd8e6;}.cls-12{fill:#0092b9;}.cls-13{fill:#e5eff1;}.cls-14{fill:#9fddea;}.cls-15{fill:#067fa6;}</style></defs><circle class="cls-5" cx="50" cy="50" r="45"/><g><path d="M19.9,46.9v2c-.1,0-5.1-.3-5.1-.3l3.5,2.4v.2s-3.8,2-3.8,2l5,.3v2c-.1,0-8.7-.5-8.7-.5v-2c.1,0,4.1-2.1,4.1-2.1l-3.7-2.5v-2c.1,0,8.7,.5,8.7,.5Z"/><path d="M19.9,42.6c.2-.5,.1-.9,0-1.3l1.3-1.1c.6,.8,.7,1.8,.3,2.9-.7,2-2.4,2.8-4.2,2.2-1.7-.6-2.6-2.3-2-4.1,.6-1.7,2.3-2.5,4.1-1.9,.2,0,.5,.2,.7,.3l-1.4,4.1c.7,0,1.1-.5,1.3-1.1Zm-1.8-1.8c-.7,0-1.2,.4-1.3,.9-.2,.7,0,1.2,.5,1.6l.8-2.5Z"/><path d="M18.5,30l7.3,4.5-1,1.6-.5-.3c.2,.6,.1,1.2-.3,1.9-.8,1.4-2.7,1.8-4.3,.8-1.6-1-2.1-2.8-1.2-4.2,.4-.7,1-1.1,1.6-1.2l-2.6-1.6,1-1.6Zm3.7,4.5c-.8-.5-1.6-.3-2,.5-.4,.7-.3,1.5,.5,2s1.6,.3,2-.5,.3-1.5-.5-2Z"/><path d="M20.6,28.8c-.5-.4-.5-1.1-.1-1.6,.4-.5,1.1-.5,1.6-.1,.5,.4,.5,1.1,.1,1.6-.4,.5-1.1,.5-1.6,.1Zm1.4,.9l1.2-1.4,4.6,4-1.2,1.4-4.6-4Z"/><path d="M29.3,22.8l3.9,4.7-1.4,1.2-.4-.4c0,.6-.3,1.2-.9,1.7-1.2,1-3.2,.8-4.3-.6s-1-3.3,.2-4.4c.6-.5,1.3-.7,1.9-.6l-.4-.4,1.4-1.2Zm.5,3.5c-.6-.7-1.4-.8-2.1-.2-.7,.5-.8,1.4-.2,2.1,.6,.7,1.4,.8,2.1,.2,.7-.5,.8-1.4,.2-2.1Z"/><path d="M32,23l4.1-2.1,.8,1.6-4.1,2.1-.8-1.6Z"/><path d="M47.5,22.5l-1.9,.4-1.1-4.9-1.4,4h-.2s-3-3-3-3l1.1,4.9-1.9,.4-1.9-8.4,1.9-.4,3.1,3.2,1.4-4.2,1.9-.4,1.9,8.4Z"/><path d="M54.4,16.7l-.3,6.1h-1.8c0,0,0-.7,0-.7-.3,.4-1,.7-1.8,.7-1.2,0-2.3-1-2.2-2.6l.2-3.8h1.8c0,0-.1,3.6-.1,3.6,0,.8,.4,1.1,1,1.2,.7,0,1.2-.3,1.2-1.2v-3.3c.1,0,2,0,2,0Z"/><path d="M57,14.3l1.8,.4-1.8,8.8-1.8-.4,1.8-8.8Z"/><path d="M61.7,20.3l-.7,2.1c-.2,.5,.2,.7,1,.9l-.5,1.6c-2.4-.5-2.8-1.4-2.2-3.1l.7-2.1-.9-.3,.6-1.7,.9,.3,.4-1.1h1.9c0,0-.5,1.7-.5,1.7l1.2,.4-.6,1.7-1.2-.4Z"/><path d="M64.9,19.7l1.7,.8-2.6,5.5-1.7-.8,2.6-5.5Zm.5-1.6c.3-.5,.9-.8,1.5-.5,.5,.3,.8,.9,.5,1.5-.3,.5-.9,.8-1.5,.5-.5-.3-.8-.9-.5-1.5Z"/><path d="M69,25.4c1.2-1.4,3.1-1.6,4.6-.4,.9,.8,1.3,1.9,1.1,3l-1.8-.3c.1-.5,0-.9-.5-1.3-.6-.5-1.4-.4-2,.2-.5,.7-.5,1.5,.2,2,.4,.3,.9,.4,1.4,.2l.7,1.7c-1,.4-2.2,.2-3.1-.5-1.4-1.2-1.6-3.2-.4-4.6Z"/><path d="M80.6,32.9l-4.8,3.8-1.1-1.4,.5-.4c-.6,0-1.2-.3-1.7-1-1-1.3-.7-3.2,.7-4.3,1.4-1.1,3.4-1,4.4,.3,.5,.6,.7,1.3,.5,1.9l.5-.4,1.1,1.4Zm-3.5,.5c.7-.6,.8-1.4,.3-2.1-.5-.7-1.4-.8-2.1-.2-.7,.6-.8,1.4-.3,2.1,.5,.7,1.4,.8,2.1,.2Z"/><path d="M83.3,44.4l-3.5,1.4-.7-1.7,3.3-1.4c.6-.2,.8-.7,.6-1.2-.2-.6-.8-.7-1.4-.4l-3.2,1.3-.7-1.7,3.3-1.4c.6-.2,.8-.7,.6-1.2-.2-.6-.8-.7-1.4-.4l-3.2,1.3-.7-1.7,5.7-2.3,.7,1.7-.5,.2c.5,.1,1,.5,1.3,1.2,.3,.7,.2,1.3-.1,1.8,.6,.1,1.1,.5,1.4,1.3,.5,1.3,0,2.5-1.5,3.1Z"/><path d="M81.6,49.5c0,.5,.3,.9,.6,1.1l-.7,1.6c-.9-.5-1.4-1.3-1.6-2.5-.2-2.1,1-3.5,2.8-3.8,1.8-.2,3.4,.9,3.6,2.9,.2,1.8-1,3.3-2.8,3.5-.3,0-.5,0-.7,0l-.5-4.3c-.6,.3-.8,.9-.7,1.6Zm2.3,.9c.7-.3,.9-.9,.8-1.4,0-.7-.5-1.1-1.1-1.2l.3,2.6Z"/><path d="M86.4,57.3h-2.1c.2-.9,0-2-1.3-2l-2.8-.2v-1.8c.1,0,6.2,.4,6.2,.4v1.8c-.1,0-1.2,0-1.2,0,.8,.3,1.1,1.1,1.1,1.9Z"/><path d="M84.6,64.9l-5.9-1.5,.4-1.8h.6c-.4-.4-.5-1-.3-1.8,.4-1.6,2.1-2.5,3.8-2.1,1.8,.4,2.8,2.1,2.4,3.6-.2,.8-.6,1.3-1.2,1.6h.6c0,.1-.4,1.9-.4,1.9Zm-2.5-2.5c.9,.2,1.6-.2,1.8-1.1,.2-.8-.2-1.6-1.1-1.8-.9-.2-1.6,.2-1.8,1.1-.2,.8,.2,1.6,1.1,1.8Z"/></g><g><path class="cls-12" d="M58.5,82.2h-18.1c-.4-1.5-1.2-2.8-2.2-3.9-.3-.3-.3-.4,0-.7,1.3-1.3,2.6-2.5,3.8-3.8,1.2-1.2,1.5-2.9,.9-4.4,.1-.6,0-1.3,0-1.9-.6-2.3-2.9-3.7-5.1-3.1-.8,.2-1.4,.6-2,1.1-2.3,2.2-4.5,4.5-6.8,6.8-.4,.4-.9,.9-1.4,1.3V38.5c0-1.5,.9-2.9,2.3-3.4,.4-.1,.8-.2,1.3-.2h35.8c2.2,0,3.6,1.4,3.6,3.6v26.5h-8.4c-1.4,0-2.8,.8-3.3,2.1-.7,1.6,0,3.6,1.4,4.2h.1c.2,.5,.6,.4,.8,.7-1.8,.4-3,2.2-2.5,4.1,.2,.9,.8,1.7,1.6,2.2h0c.2,.4,.6,.4,.8,.6-1.6,.4-2.6,1.8-2.6,3.4Zm-6-32.6v-8.5c0-1-.7-1.9-1.7-1.9,0,0-.2,0-.3,0h-16.7c-1.3,0-2.1,.7-2.1,2v16.7c0,1,.7,1.8,1.7,1.9,0,0,.2,0,.3,0h16.9c.9,0,1.7-.6,1.8-1.5,0-.1,0-.2,0-.3,0-2.8,0-5.6,0-8.5Zm7.7-5.2h3.1c1.3,0,1.3,0,1.3-1.3,0-.4-.1-.5-.5-.5h-6.9c-1.3,0-1.3,0-1.3,1.3s.1,.5,.5,.4c1.3,0,2.5,0,3.8,0h0Zm3.1-5.2h-2.7c-1.2,0-1.2,0-1.2,1.3,0,.4,.2,.5,.5,.5h5.9c1.3,0,1.3,0,1.3-1.4,0-.3-.1-.4-.4-.4-1.1,0-2.3,0-3.4,0h0Zm-7.4,.8c0,1-.2,.9,.8,.9q.9,0,.9-.9c0-.9,0-.9-.9-.9s-.8,0-.8,.8Z"/><path class="cls-6" d="M27.6,73.6c.5-.4,.9-.9,1.4-1.3,2.3-2.3,4.5-4.5,6.8-6.8,1.6-1.7,4.3-1.7,6,0,.6,.5,.9,1.2,1.1,2,.1,.6,.2,1.3,0,1.9-.3,.9-.8,1.8-1.5,2.5-2,1.9-3.9,3.9-5.8,5.8-.3,.3-.3,.4,0,.7,1,1.1,1.8,2.5,2.2,3.9h-13.2c-.2,0-.4,0-.4-.2,0-1.3-.1-2.5,.2-3.7,.3-1.2,.9-2.3,1.7-3.1l1.5-1.5Z"/><path class="cls-4" d="M60.2,71.4c-1.4-.6-2.1-2.7-1.4-4.2,.5-1.3,1.9-2.2,3.3-2.1h8.4c1.9,.2,3,1.1,3.4,2.8-.2,0-.2,.1-.2,.2-.4,.9-1.1,1.6-2,1.9-.6,.2-1.2,.3-1.8,.3h-8.4c-1,0-1.2,0-1.3,1.1Z"/><path class="cls-6" d="M60.2,78.3c-1.6-.9-2.2-3-1.3-4.6,.5-.8,1.3-1.4,2.2-1.6,.4,0,.7-.1,1.1-.2h8.8c.7,.2,1.4,.6,1.9,1,.5,.5,.8,1.1,1,1.8,0,0-.2,.1-.2,.2-.7,1.7-2.1,2.2-3.7,2.2h-8.6c-1,0-1.2,.2-1.2,1.2Z"/><path class="cls-6" d="M58.5,82.2c0-1.6,1.1-3,2.6-3.3,.2,0,.5,0,.7-.1,3.1,0,6.3,.1,9.4,0,0,.2,.2,.2,.3,.2,1.2,.4,2.1,1.3,2.4,2.6,.2,.7,0,.8-.6,.8h-14.3c-.2,0-.4,0-.5,0Z"/><path class="cls-15" d="M37.8,82.2c-.4-1.5-1.1-2.8-2.2-3.9-.3-.3-.3-.4,0-.7,2-1.9,3.9-3.9,5.8-5.8,.7-.7,1.2-1.5,1.5-2.5,.6,1.5,.3,3.3-.9,4.4-1.3,1.3-2.6,2.6-3.8,3.8-.3,.3-.3,.4,0,.7,1,1.1,1.8,2.5,2.2,3.9h-2.6Z"/><path class="cls-1" d="M71.2,78.7c-3.1,.2-6.3,0-9.4,0-.2,0-.5,0-.7,.1-.3-.2-.6-.2-.8-.5h0c0-1.1,.2-1.3,1.2-1.3h8.6c1.7,0,3-.5,3.7-2.2,0,0,.1-.2,.2-.2,.2,2-.7,3.4-2.4,4,0,0-.2,0-.3,0Z"/><path class="cls-1" d="M71,71.9h-8.8c-.4,0-.7,0-1.1,.2-.2-.2-.6-.2-.8-.6h-.1c.1-1.1,.2-1.3,1.3-1.3h8.4c.6,0,1.2,0,1.8-.3,.9-.3,1.6-1,2-1.9,0-.1,0-.2,.2-.2,.4,1.8-.7,3.5-2.5,4-.1,0-.3,0-.4,0Z"/><path class="cls-7" d="M52.5,49.6v8.5c0,.9-.6,1.7-1.5,1.8-.1,0-.2,0-.3,0h-16.9c-1,0-1.8-.7-1.9-1.7,0,0,0-.2,0-.3v-16.7c0-1.3,.7-2,2.1-2h16.7c1,0,1.9,.6,1.9,1.6,0,0,0,.2,0,.3v8.5Zm-11.2,4.3c0-1.9-1.5-3.4-3.4-3.4-1.9,0-3.4,1.5-3.4,3.4,0,1.9,1.5,3.4,3.4,3.4,0,0,0,0,0,0,1.9,0,3.4-1.5,3.4-3.4Zm0-8.6c0-1.9-1.5-3.4-3.4-3.4-1.9,0-3.4,1.5-3.4,3.4,0,1.9,1.5,3.4,3.4,3.4,1.9,0,3.4-1.5,3.5-3.3,0,0,0,0,0,0h0Zm5.1,3.4c1.9,0,3.4-1.5,3.4-3.4,0-1.9-1.5-3.4-3.4-3.4-1.9,0-3.4,1.5-3.4,3.4,0,0,0,0,0,0,0,1.9,1.5,3.4,3.4,3.4,0,0,0,0,0,0h0Zm2.6,5.2v-1.6c0-.5-.3-.9-.7-1,0,0-.1,0-.2,0h-3.3c-.4,0-.9,.3-.9,.7,0,0,0,.1,0,.2v3.3c0,.5,.3,.9,.8,.9,0,0,.1,0,.2,0h3.3c.5,0,.9-.3,.9-.8,0,0,0,0,0-.1,0-.6,0-1.1,0-1.6Z"/><path class="cls-8" d="M60.2,44.4h-3.8c-.3,0-.5,0-.5-.4q0-1.3,1.3-1.3h6.9c.4,0,.5,0,.5,.5q0,1.3-1.3,1.3h-3.1Z"/><path class="cls-11" d="M63.2,39.2h3.4c.3,0,.4,0,.4,.4,0,1.4,0,1.4-1.3,1.4h-5.9c-.4,0-.5,0-.5-.5q0-1.3,1.2-1.3h2.7Z"/><path class="cls-11" d="M55.9,40.1q0-.8,.8-.8t.9,.9c0,.9,0,.9-.9,.9-1,0-.8,0-.8-.9Z"/><path class="cls-4" d="M60.2,71.4h.1c0,.1-.1,0-.1,0Z"/><path class="cls-6" d="M60.2,78.3h0c0,0,0,0,0,0Z"/><path class="cls-9" d="M41.3,53.9c0,1.9-1.6,3.4-3.5,3.4-1.9,0-3.4-1.6-3.4-3.5,0-1.9,1.6-3.4,3.4-3.4,1.9,0,3.4,1.6,3.4,3.5h0Zm-5.1-.5v.4c0,.8,.5,1.4,1.2,1.7,.9,.3,1.9-.2,2.2-1.1,.2-.5,0-1.1-.2-1.5-.4-.5-1.1-.8-1.7-.6-1.1,0-1.4,.3-1.4,1.2h0Z"/><path class="cls-9" d="M41.3,45.3c0,1.9-1.5,3.4-3.4,3.4-1.9,0-3.4-1.5-3.4-3.4,0-1.9,1.5-3.4,3.4-3.4,0,0,0,0,0,0,1.9,0,3.4,1.5,3.4,3.4,0,0,0,0,0,0Zm-5-.3c-.2,.6,0,1.3,.6,1.7,.6,.4,1.4,.4,2,0,.5-.4,.8-1,.7-1.7-.1-.9-.9-1.5-1.8-1.4,0,0-.1,0-.2,0-.5-.2-1.1,0-1.3,.6,0,.2,0,.5,0,.7h0Z"/><path class="cls-9" d="M46.4,48.7c-1.9,0-3.4-1.6-3.4-3.5,0-1.9,1.6-3.4,3.5-3.4,1.9,0,3.4,1.6,3.4,3.4,0,1.9-1.6,3.4-3.5,3.4Zm-1.6-3.7c-.3,.4,0,.8,.2,1.2,.4,.6,1.1,1,1.8,.8,.7-.1,1.2-.7,1.3-1.3,.2-.8-.2-1.5-.9-1.9-.4-.2-.8-.3-1.3-.2-.9,0-1.4,.6-1.2,1.4Z"/><path class="cls-2" d="M49,53.9v1.7c0,.5-.3,.9-.8,.9,0,0,0,0-.1,0h-3.3c-.5,0-.9-.3-.9-.8,0,0,0-.1,0-.2v-3.3c0-.4,.3-.9,.7-.9,0,0,.1,0,.2,0h3.3c.5,0,.9,.3,.9,.8,0,0,0,.1,0,.2,0,.5,0,1.1,0,1.6Zm-3-.4h1.6c.3,0,.5-.1,.5-.5s-.3-.3-.5-.3h-1.3c0-.3-.3-.4-.5-.5-.4,0-.8,.3-1,.7-.2,.2-.1,.6,.1,.8,.4,.3,.7,.1,1-.1,0,0,0,0,0,0h0Zm.4,1.7h1.3c.2,0,.4-.2,.4-.4,0,0,0,0,0,0,0-.3-.2-.4-.4-.4h-2.5c-.2,0-.4,.1-.4,.3,0,0,0,0,0,0,0,.2,.2,.4,.4,.4,0,0,0,0,0,0,.4,0,.8,0,1.3,0h0Z"/><path class="cls-14" d="M37.5,52.2c.6-.2,1.3,0,1.7,.6,.6,.8,.4,1.9-.4,2.4-.4,.3-1,.4-1.5,.2-.7-.3-1.2-.9-1.2-1.7v-.4c.2,.3,.5,.4,.9,.3,0,.8,.5,1.2,1.1,1,.4-.2,.7-.6,.5-1.1-.1-.4-.6-.7-1-.6,0-.3,0-.6-.1-.8Z"/><path class="cls-13" d="M37.5,52.2c.2,.2,.2,.5,.1,.8-.1,.3-.4,.5-.6,.7-.3,0-.7,0-.9-.3,0-.9,.3-1.2,1.4-1.2Z"/><path class="cls-14" d="M37.6,43.7c.9-.2,1.7,.3,2,1.2,0,0,0,.1,0,.2,.1,.6-.2,1.3-.7,1.7-.6,.4-1.4,.4-2,0-.5-.4-.8-1.1-.6-1.7,.2,.2,.5,.2,.8,.1,0,.8,.5,1.2,1.1,1,.4-.1,.6-.5,.6-.9,0-.5-.4-.7-1.1-.7,.1-.3,0-.6-.1-.8Z"/><path class="cls-13" d="M37.1,45.1c-.3,.1-.6,0-.8-.1-.2-.5,0-1.1,.6-1.3,.2,0,.5,0,.7,0,.2,.2,.2,.5,.1,.8-.2,.2-.4,.5-.6,.6Z"/><path class="cls-14" d="M46,43.6c.4,0,.9,0,1.3,.2,.7,.4,1,1.1,.9,1.9-.2,.6-.7,1.1-1.3,1.3-.7,.1-1.4-.2-1.8-.8-.2-.4-.4-.7-.2-1.2,.2,.1,.5,.2,.8,.2,0,.4,.1,.8,.6,.9,.4,.1,.9,0,1-.4,.3-.6-.1-1.1-1-1.2,0-.3,0-.7-.3-.9Z"/><path class="cls-13" d="M46,43.6c.3,.2,.4,.6,.3,.9-.2,.3-.4,.5-.7,.7-.3,0-.5,0-.8-.2-.3-.8,.3-1.4,1.2-1.4Z"/><path class="cls-10" d="M46.4,55.1h-1.3c-.2,0-.4-.1-.4-.3,0,0,0,0,0,0,0-.2,.1-.4,.3-.4,0,0,0,0,0,0h2.5c.2,0,.4,0,.4,.4,0,.2-.1,.4-.4,.4,0,0,0,0,0,0-.4,0-.8,0-1.3,0Z"/><path class="cls-3" d="M46,53.4s0,0,0,0c-.3,.2-.6,.4-1,.1-.2-.2-.3-.5-.1-.8,.2-.4,.5-.7,1-.7,.3,0,.5,.2,.5,.5,0,.3,0,.6-.3,.8Z"/><path class="cls-10" d="M46,53.4c.2-.2,.3-.5,.3-.8h1.3c.2,0,.5,0,.5,.3s-.2,.5-.5,.5h-1.6Z"/><path class="cls-9" d="M37,53.7c.2-.2,.5-.4,.6-.7,.4-.1,.9,.1,1,.6,.2,.4,0,.9-.5,1.1-.6,.2-1.1-.2-1.1-1Z"/><path class="cls-9" d="M37.1,45.1c.2-.2,.4-.4,.6-.6,.6,0,1,.2,1.1,.7,0,.4-.2,.8-.6,.9-.6,.2-1.1-.3-1.1-1Z"/><path class="cls-9" d="M45.6,45.1c.3-.2,.5-.4,.7-.7,.8,0,1.2,.5,1,1.2-.2,.4-.6,.6-1,.4-.5,0-.6-.5-.6-.9Z"/></g></svg>