<?xml version="1.0" encoding="UTF-8"?><svg id="Layer_1" xmlns="http://www.w3.org/2000/svg" viewBox="0 0 100 100"><defs><style>.cls-1{fill:#009245;}.cls-2{fill:#57575e;}.cls-3{fill:#d9d9ea;}.cls-4{fill:#eb917f;}.cls-5{fill:#48459c;}.cls-6{fill:#434348;}.cls-7{fill:#f3bd99;}.cls-8{fill:none;stroke:#c000e2;stroke-miterlimit:10;stroke-width:4px;}.cls-9{fill:#3392f5;}.cls-10{fill:#f4bd99;}.cls-11{fill:#424248;}.cls-12{fill:#97d6e5;}.cls-13{fill:#3392f6;}.cls-14{fill:#9dd8e6;}.cls-15{fill:#60acfd;}.cls-16{fill:#067fa6;}</style></defs><path class="cls-10" d="m27.7,74.9c.5-.4.9-.9,1.4-1.3,2.3-2.3,4.5-4.5,6.8-6.8,1.6-1.7,4.3-1.7,6,0,.6.5.9,1.2,1.1,2,.1.6.2,1.3,0,1.9-.3.9-.8,1.8-1.5,2.5-2,1.9-3.9,3.9-5.8,5.8-.3.3-.3.4,0,.7,1,1.1,1.8,2.5,2.2,3.9h-13.2c-.2,0-.4,0-.4-.2,0-1.3-.1-2.5.2-3.7.3-1.2.9-2.3,1.7-3.1l1.5-1.5Z"/><path class="cls-7" d="m60.3,72.7c-1.4-.6-2.1-2.7-1.4-4.2.5-1.3,1.9-2.2,3.3-2.1h8.4c1.9.2,3,1.1,3.4,2.8-.2,0-.2.1-.2.2-.4.9-1.1,1.6-2,1.9-.6.2-1.2.3-1.8.3h-8.4c-1,0-1.2,0-1.3,1.1Z"/><path class="cls-10" d="m60.3,79.6c-1.6-.9-2.2-3-1.3-4.6.5-.8,1.3-1.4,2.2-1.6.4,0,.7-.1,1.1-.2h8.8c.7.2,1.4.6,1.9,1,.5.5.8,1.1,1,1.8,0,0-.2.1-.2.2-.7,1.7-2.1,2.2-3.7,2.2h-8.6c-1,0-1.2.2-1.2,1.2Z"/><path class="cls-10" d="m58.6,83.6c0-1.6,1.1-3,2.6-3.3.2,0,.5,0,.7-.1,3.1,0,6.3.1,9.4,0,0,.2.2.2.3.2,1.2.4,2.1,1.3,2.4,2.6.2.7,0,.8-.6.8h-14.3c-.2,0-.4,0-.5,0Z"/><path class="cls-16" d="m37.9,83.6c-.4-1.5-1.1-2.8-2.2-3.9-.3-.3-.3-.4,0-.7,2-1.9,3.9-3.9,5.8-5.8.7-.7,1.2-1.5,1.5-2.5.6,1.5.3,3.3-.9,4.4-1.3,1.3-2.6,2.6-3.8,3.8-.3.3-.3.4,0,.7,1,1.1,1.8,2.5,2.2,3.9h-2.6Z"/><path class="cls-4" d="m71.3,80c-3.1.2-6.3,0-9.4,0-.2,0-.5,0-.7.1-.3-.2-.6-.2-.8-.5h0c0-1.1.2-1.3,1.2-1.3h8.6c1.7,0,3-.5,3.7-2.2,0,0,.1-.2.2-.2.2,2-.7,3.4-2.4,4,0,0-.2,0-.3,0Z"/><path class="cls-4" d="m71.1,73.2h-8.8c-.4,0-.7,0-1.1.2-.2-.2-.6-.2-.8-.6h-.1c.1-1.1.2-1.3,1.3-1.3h8.4c.6,0,1.2,0,1.8-.3.9-.3,1.6-1,2-1.9,0-.1,0-.2.2-.2.4,1.8-.7,3.5-2.5,4-.1,0-.3,0-.4,0Z"/><path class="cls-12" d="m60.3,45.8h-3.8c-.3,0-.5,0-.5-.4q0-1.3,1.3-1.3h6.9c.4,0,.5,0,.5.5q0,1.3-1.3,1.3h-3.1Z"/><path class="cls-14" d="m63.3,40.6h3.4c.3,0,.4,0,.4.4,0,1.4,0,1.4-1.3,1.4h-5.9c-.4,0-.5,0-.5-.5q0-1.3,1.2-1.3h2.7Z"/><path class="cls-14" d="m56,41.4q0-.8.8-.8t.9.9c0,.9,0,.9-.9.9-1,0-.8,0-.8-.9Z"/><path class="cls-7" d="m60.3,72.7h.1c0,.1-.1,0-.1,0Z"/><path class="cls-10" d="m60.3,79.6h0c0,0,0,0,0,0Z"/><path class="cls-1" d="m67,36.3H31.2c-.4,0-.9,0-1.3.2-1.4.5-2.4,1.9-2.3,3.4v35.1c.5-.4.9-.9,1.4-1.3,2.3-2.3,4.5-4.5,6.8-6.8.5-.6,1.2-.9,2-1.1,2.3-.6,4.6.8,5.1,3.1.1.6.2,1.3,0,1.9.6,1.5.3,3.3-.9,4.4-1.3,1.3-2.6,2.6-3.8,3.8-.3.3-.3.4,0,.7,1,1.1,1.8,2.5,2.2,3.9h18.1c0-1.6,1.1-3,2.6-3.4-.3-.2-.6-.2-.8-.5h0c-.8-.5-1.4-1.3-1.6-2.3-.4-1.8.7-3.6,2.5-4.1-.2-.2-.6-.2-.8-.6h-.1c-1.4-.8-2.1-2.8-1.4-4.4.5-1.3,1.9-2.2,3.3-2.1h8.4v-26.5c0-2.2-1.4-3.6-3.6-3.6Zm-11,5.1q0-.8.8-.8c.9,0,.9,0,.9.9s0,.9-.9.9c-1,0-.8,0-.8-.9Zm7.4,4.4h-3.1c-1.3,0-2.5,0-3.8,0-.3,0-.5,0-.5-.4,0-1.3,0-1.3,1.3-1.3h6.9c.4,0,.5,0,.5.5,0,1.3,0,1.3-1.3,1.3Zm2.5-3.4h-5.9c-.4,0-.5,0-.5-.5,0-1.3,0-1.3,1.2-1.3h2.7c1.1,0,2.3,0,3.4,0,.3,0,.4,0,.4.4,0,1.4,0,1.4-1.3,1.4Z"/><path class="cls-3" d="m47,47.7h0c0,0,0,.1,0,.2,0,.1,0,.3,0,.4-.1.9-.4,1.8-.9,2.7-.4.7-.9,1.4-1.5,1.9-.6.6-1.3,1.1-2.1,1.5-.7.3-1.4.5-2.1.6-.2,0-.4,0-.7,0h-1c-.2,0-.4,0-.5,0-1-.1-2-.5-2.9-1-.7-.4-1.4-1-1.9-1.6-.5-.6-1-1.3-1.3-2.1-.3-.7-.5-1.4-.6-2.1,0-.1,0-.3,0-.4v-1s0,0,0-.1c0-.2,0-.4,0-.7.1-.9.4-1.7.9-2.5.4-.7.9-1.3,1.5-1.9,1.7-1.6,4-2.4,6.3-2.1.9,0,1.7.3,2.5.7,1.7.9,3.1,2.3,3.8,4.1.3.6.4,1.3.5,2,0,.4,0,.8,0,1.2,0,0,0,.1,0,.2Zm-6.5,6.2c.3,0,.6-.1.9-.2,3.2-1.1,5.2-4.5,4.5-7.8-.5-2.4-2-4.1-4.3-5-.3-.1-.7-.3-1.1-.3,0,0-.1,0-.2,0-.6,0-1.1-.1-1.7,0-1.1,0-2.1.4-3,1-2.4,1.6-3.5,3.8-3.2,6.7.2,2,1.2,3.5,2.8,4.7,1.3,1,2.8,1.4,4.4,1.3.3,0,.6,0,.9-.1Z"/><path class="cls-2" d="m40.5,53.9c-.3.1-.6.1-.9.1-1.6,0-3.1-.3-4.4-1.3-1.6-1.2-2.6-2.7-2.8-4.7-.3-2.9.8-5.1,3.2-6.7.9-.6,1.9-.9,3-1,.6,0,1.1,0,1.7,0,0,0,.1,0,.2,0,0,0,0,0,.1,0,1.2.4,2.2,1.1,2.9,2,.4.5.6.9.9,1.5.4.9.6,1.8.6,2.8,0,.5,0,1,0,1.5-.1.8-.3,1.5-.7,2.2-.4.8-.9,1.4-1.5,2-.5.5-1.1.8-1.7,1.1-.2,0-.4.1-.6.2Zm-6.3-6.7c0,2.7,2.2,5,5,5s5-2.2,5-5c0-2.7-2.2-5-5-5-2.7,0-5,2.2-5,4.9,0,0,0,0,0,0Z"/><path class="cls-6" d="m40.5,53.9c.2-.1.4-.1.6-.2.6-.3,1.2-.6,1.7-1.1.6-.6,1.1-1.3,1.5-2,.3-.7.6-1.4.7-2.2,0-.5.1-1,0-1.5,0-1-.3-1.9-.6-2.8-.2-.5-.5-1-.9-1.5-.8-1-1.7-1.7-2.9-2,0,0,0,0-.1,0,.4,0,.7.2,1.1.3,2.3.9,3.8,2.6,4.3,5,.7,3.3-1.3,6.8-4.5,7.8-.3,0-.6.2-.9.2Z"/><path class="cls-13" d="m34.3,47.2c0-2.7,2.2-5,5-5,2.7,0,5,2.2,5,5s-2.2,5-5,5c0,0,0,0,0,0-2.7,0-5-2.2-5-4.9,0,0,0,0,0,0Zm5-3.1c-.7,0-1.5,0-2.2,0-.3,0-.5,0-.6.2,0,0,0,.1-.1.2-.8.9-1.1,1.9-1,3.1,0,1,.5,1.9,1.3,2.5,0,0,.2.1.3.1,1.5,0,3.1,0,4.6,0,.3,0,.5,0,.7-.3,0,0,0,0,.1-.1.8-1,1.1-2.1.9-3.3-.1-.8-.5-1.5-1.1-2.2-.2-.2-.3-.3-.6-.3-.8,0-1.5,0-2.3,0Z"/><path class="cls-5" d="m39.2,44.1c.8,0,1.5,0,2.3,0,.3,0,.4.1.6.3.6.6,1,1.3,1.1,2.2.2,1.2-.1,2.4-.9,3.3,0,0,0,0-.1.1-.2.2-.4.3-.7.3-1.5,0-3.1,0-4.6,0-.1,0-.2,0-.3-.1-.7-.7-1.2-1.5-1.3-2.5-.1-1.2.2-2.2,1-3.1,0,0,0-.1.1-.2.2-.2.4-.3.6-.2.7,0,1.5,0,2.2,0Zm2.2,3.1c0-1.2-.9-2.2-2.2-2.2-1.2,0-2.1.9-2.1,2.1,0,1.2.9,2.2,2.2,2.2,1.2,0,2.1-.9,2.1-2.1h0Z"/><path class="cls-11" d="m41.4,47.2c0,1.2-.9,2.1-2.1,2.1-1.2,0-2.2-.9-2.2-2.2,0-1.2.9-2.1,2.1-2.1,1.2,0,2.1.9,2.2,2.2Zm-2.2-1.2c-.7,0-1.2.5-1.2,1.2,0,0,0,0,0,0,0,.7.5,1.2,1.2,1.2.7,0,1.2-.5,1.2-1.2s-.5-1.2-1.2-1.2h0Z"/><path class="cls-15" d="m39.2,48.4c-.7,0-1.2-.5-1.2-1.2,0-.7.5-1.2,1.2-1.2,0,0,0,0,0,0,.1,0,.1.2.2.3.1.6.1,1.2,0,1.8,0,.1,0,.2-.2.3Z"/><path class="cls-9" d="m39.2,48.4c.1,0,.1-.2.2-.3.1-.6.1-1.2,0-1.8,0-.1,0-.2-.2-.3.7,0,1.2.6,1.2,1.2s-.5,1.2-1.2,1.2Z"/><circle class="cls-8" cx="50" cy="50" r="45"/><path d="m19.4,51.2l.2,2.1-5.3.4,4,2.1v.2s-3.7,2.6-3.7,2.6l5.3-.4.2,2.1-9.1.7-.2-2.1,3.9-2.8-4.2-2.2-.2-2.1,9.1-.7Z"/><path d="m18.8,46.8c.1-.5,0-1-.2-1.3l1.2-1.3c.7.8,1,1.8.7,3-.5,2.2-2.2,3.2-4.1,2.8-1.9-.4-3.1-2.1-2.6-4.1.4-1.9,2.1-2.9,4-2.5.3,0,.5.1.7.2l-1,4.5c.7-.1,1.1-.6,1.2-1.3Zm-2.1-1.7c-.8,0-1.2.6-1.3,1.1-.2.7.1,1.3.7,1.6l.6-2.7Z"/><path d="m15.9,33.6l8.2,3.9-.8,1.8-.6-.3c.3.6.3,1.3-.1,2.1-.7,1.5-2.7,2.2-4.4,1.3-1.7-.8-2.5-2.7-1.8-4.3.4-.8.9-1.2,1.6-1.4l-2.9-1.4.8-1.8Zm4.4,4.3c-.9-.4-1.7,0-2.1.7-.4.8-.1,1.7.8,2.1.9.4,1.7,0,2.1-.7s.1-1.7-.8-2.1Z"/><path d="m18,32.1c-.5-.4-.6-1.1-.3-1.6.4-.5,1.1-.6,1.6-.3.5.4.6,1.1.3,1.6-.4.5-1.1.6-1.6.3Zm1.5.9l1.1-1.6,5.3,3.8-1.1,1.6-5.3-3.8Z"/><path d="m26.7,24.9l4.5,4.7-1.4,1.4-.4-.4c0,.7-.2,1.3-.8,1.9-1.2,1.2-3.3,1.1-4.6-.3-1.4-1.4-1.4-3.4-.2-4.6.6-.6,1.3-.8,1.9-.8l-.4-.4,1.4-1.4Zm.9,3.7c-.7-.7-1.6-.7-2.2,0-.6.6-.7,1.5,0,2.2.7.7,1.6.7,2.2,0,.6-.6.7-1.5,0-2.2Z"/><path d="m29.6,24.8l4.2-2.6,1,1.6-4.2,2.6-1-1.6Z"/><path d="m36.1,24.1l1.4-1.6c.6.6,1.2.9,2.2.6.9-.3,1-.8.9-1.1-.2-.5-.7-.6-2.2-.5-1.4,0-2.9,0-3.4-1.7-.6-1.7.5-3.1,2-3.6,1.4-.5,2.8-.2,3.8.9l-1.3,1.5c-.5-.5-1-.8-1.8-.5-.6.2-.8.6-.7,1,.1.4.4.6,1.9.5,1.4,0,3.1-.1,3.7,1.7.6,1.7-.4,3.1-2.3,3.7-1.8.6-3.3.2-4.2-.9Z"/><path d="m42.5,15.7c-.1-.6.3-1.2,1-1.3.6-.1,1.2.3,1.3,1,.1.6-.3,1.2-1,1.3-.6.1-1.2-.3-1.3-1Zm.5,1.7l1.9-.3,1.1,6.4-1.9.3-1.1-6.4Z"/><path d="m53.2,19.2v4s-2,0-2,0v-3.7c0-.8-.5-1.2-1.1-1.2-.7,0-1.2.4-1.2,1.3v3.5s-2,0-2,0v-6.5s2,0,2,0v.6c.4-.5,1-.8,1.9-.8,1.3,0,2.4.9,2.4,2.7Z"/><path d="m62.1,18.6l-1.5,6c-.5,2.1-2.4,2.6-4.1,2.2-1.3-.3-2.3-1.1-2.6-2.3l1.8-.5c.1.5.4.9,1.2,1.2.9.2,1.5,0,1.8-1v-.6c-.4.4-1.1.6-1.9.4-1.8-.4-2.7-2.2-2.3-4,.4-1.7,2.1-2.9,3.9-2.4.8.2,1.4.7,1.6,1.3l.2-.6,1.8.5Zm-2.6,2.6c.2-.9-.3-1.6-1.2-1.8-.9-.2-1.7.2-1.9,1.1-.2.9.3,1.6,1.2,1.8.9.2,1.7-.2,1.9-1.1Z"/><path d="m65.3,16.8l1.8.8-3.9,8.7-1.8-.8,3.9-8.7Z"/><path d="m67.9,27.2c.4.3.9.4,1.3.3l.8,1.6c-1,.4-2.1.2-3.1-.5-1.9-1.2-2.2-3.2-1.1-4.9,1.1-1.6,3.1-2.1,4.8-.9,1.6,1,1.9,3.1.9,4.7-.2.2-.3.4-.5.6l-3.8-2.6c-.2.7.2,1.2.8,1.6Zm2.3-1.3c.2-.7,0-1.3-.6-1.6-.6-.4-1.2-.4-1.7,0l2.3,1.5Z"/><path d="m74.6,30.5c1.5-1.2,3.6-1,4.8.6.8,1,.9,2.3.5,3.3l-1.8-.7c.2-.5.1-1-.2-1.4-.5-.7-1.4-.8-2.1-.2-.7.6-.8,1.4-.3,2.1.4.5.9.7,1.4.5l.3,1.9c-1.1.2-2.3-.3-3.1-1.3-1.2-1.6-.9-3.6.6-4.8Z"/><path d="m84.8,41l-5.9,2.8-.8-1.8.6-.3c-.6-.2-1.2-.6-1.5-1.4-.7-1.5,0-3.4,1.8-4.3,1.8-.8,3.7-.2,4.4,1.4.4.8.4,1.5.1,2.1l.6-.3.8,1.8Zm-3.8-.4c.9-.4,1.2-1.3.8-2.1s-1.2-1.1-2.1-.7c-.9.4-1.2,1.3-.8,2.1.4.8,1.2,1.1,2.1.7Z"/><path d="m84.7,53.6l-3.9.6-.3-1.9,3.8-.5c.6,0,1-.5.9-1.1,0-.6-.6-.9-1.4-.8l-3.6.5-.3-1.9,3.8-.5c.6,0,1-.5.9-1.1,0-.6-.6-.9-1.4-.8l-3.6.5-.3-1.9,6.4-.9.3,1.9h-.6c.5.3.9.8,1,1.7.1.8-.1,1.4-.6,1.8.6.3,1,.8,1.1,1.7.2,1.5-.7,2.6-2.3,2.8Z"/><path d="m81.5,58.4c0,.5,0,1,.3,1.3l-1.1,1.4c-.8-.8-1.1-1.8-.9-3,.3-2.2,2-3.3,3.9-3.1,1.9.3,3.2,1.9,2.9,3.9-.3,1.9-1.9,3.1-3.9,2.8-.3,0-.5-.1-.8-.2l.7-4.6c-.7.1-1,.7-1.1,1.4Zm2.2,1.5c.8,0,1.1-.6,1.2-1.2.1-.7-.2-1.3-.8-1.5l-.4,2.8Z"/><path d="m84.2,67.8l-2.1-.7c.4-.7.5-1.9-.8-2.3l-2.8-1,.6-1.8,6.1,2.1-.6,1.8-1.1-.4c.7.5.8,1.5.6,2.3Z"/><path d="m80.2,75l-5.6-3.3,1-1.7.5.3c-.2-.6-.2-1.3.3-2.1.9-1.5,2.9-1.9,4.5-1,1.7,1,2.3,2.9,1.4,4.4-.4.8-1,1.2-1.7,1.3l.5.3-1,1.7Zm-1.8-3.3c.8.5,1.7.2,2.1-.5.4-.8.2-1.6-.6-2.1s-1.7-.2-2.1.5c-.4.8-.2,1.6.6,2.1Z"/></svg>