<?xml version="1.0" encoding="UTF-8"?><svg id="Layer_1" xmlns="http://www.w3.org/2000/svg" viewBox="0 0 97.6 94"><defs><style>.cls-1{fill:#eb917f;}.cls-2{fill:#f3bd99;}.cls-3{fill:none;stroke:#c000e2;stroke-miterlimit:10;stroke-width:4px;}.cls-4{fill:#f4bd99;}.cls-5{fill:#97d6e5;}.cls-6{fill:#1b1464;}.cls-7{fill:#9dd8e6;}</style></defs><g><path class="cls-4" d="M27.6,71.9c.5-.4,.9-.9,1.4-1.3,2.3-2.3,4.5-4.5,6.8-6.8,1.6-1.7,4.3-1.7,6,0,.6,.5,.9,1.2,1.1,2,.1,.6,.2,1.3,0,1.9-.3,.9-.8,1.8-1.5,2.5-2,1.9-3.9,3.9-5.8,5.8-.3,.3-.3,.4,0,.7,1,1.1,1.8,2.5,2.2,3.9h-13.2c-.2,0-.4,0-.4-.2,0-1.3-.1-2.5,.2-3.7,.3-1.2,.9-2.3,1.7-3.1l1.5-1.5Z"/><path class="cls-2" d="M60.2,69.7c-1.4-.6-2.1-2.7-1.4-4.2,.5-1.3,1.9-2.2,3.3-2.1h8.4c1.9,.2,3,1.1,3.4,2.8-.2,0-.2,.1-.2,.2-.4,.9-1.1,1.6-2,1.9-.6,.2-1.2,.3-1.8,.3h-8.4c-1,0-1.2,0-1.3,1.1Z"/><path class="cls-4" d="M60.2,76.6c-1.6-.9-2.2-3-1.3-4.6,.5-.8,1.3-1.4,2.2-1.6,.4,0,.7-.1,1.1-.2h8.8c.7,.2,1.4,.6,1.9,1,.5,.5,.8,1.1,1,1.8,0,0-.2,.1-.2,.2-.7,1.7-2.1,2.2-3.7,2.2h-8.6c-1,0-1.2,.2-1.2,1.2Z"/><path class="cls-4" d="M58.5,80.6c0-1.6,1.1-3,2.6-3.3,.2,0,.5,0,.7-.1,3.1,0,6.3,.1,9.4,0,0,.2,.2,.2,.3,.2,1.2,.4,2.1,1.3,2.4,2.6,.2,.7,0,.8-.6,.8h-14.3c-.2,0-.4,0-.5,0Z"/><path class="cls-6" d="M37.8,80.6c-.4-1.5-1.1-2.8-2.2-3.9-.3-.3-.3-.4,0-.7,2-1.9,3.9-3.9,5.8-5.8,.7-.7,1.2-1.5,1.5-2.5,.6,1.5,.3,3.3-.9,4.4-1.3,1.3-2.6,2.6-3.8,3.8-.3,.3-.3,.4,0,.7,1,1.1,1.8,2.5,2.2,3.9h-2.6Z"/><path class="cls-1" d="M71.2,77c-3.1,.2-6.3,0-9.4,0-.2,0-.5,0-.7,.1-.3-.2-.6-.2-.8-.5h0c0-1.1,.2-1.3,1.2-1.3h8.6c1.7,0,3-.5,3.7-2.2,0,0,.1-.2,.2-.2,.2,2-.7,3.4-2.4,4,0,0-.2,0-.3,0Z"/><path class="cls-1" d="M71,70.2h-8.8c-.4,0-.7,0-1.1,.2-.2-.2-.6-.2-.8-.6h-.1c.1-1.1,.2-1.3,1.3-1.3h8.4c.6,0,1.2,0,1.8-.3,.9-.3,1.6-1,2-1.9,0-.1,0-.2,.2-.2,.4,1.8-.7,3.5-2.5,4-.1,0-.3,0-.4,0Z"/><path class="cls-5" d="M60.2,42.8h-3.8c-.3,0-.5,0-.5-.4q0-1.3,1.3-1.3h6.9c.4,0,.5,0,.5,.5q0,1.3-1.3,1.3h-3.1Z"/><path class="cls-7" d="M63.2,37.6h3.4c.3,0,.4,0,.4,.4,0,1.4,0,1.4-1.3,1.4h-5.9c-.4,0-.5,0-.5-.5q0-1.3,1.2-1.3h2.7Z"/><path class="cls-7" d="M55.9,38.4q0-.8,.8-.8t.9,.9c0,.9,0,.9-.9,.9-1,0-.8,0-.8-.9Z"/><path class="cls-2" d="M60.2,69.7h.1c0,.1-.1,0-.1,0Z"/><path class="cls-4" d="M60.2,76.6h0c0,0,0,0,0,0Z"/><path class="cls-6" d="M66.9,33.3H31.1c-.4,0-.9,0-1.3,.2-1.4,.5-2.4,1.9-2.3,3.4v35.1c.5-.4,.9-.9,1.4-1.3,2.3-2.3,4.5-4.5,6.8-6.8,.5-.6,1.2-.9,2-1.1,2.3-.6,4.6,.8,5.1,3.1,.1,.6,.2,1.3,0,1.9,.6,1.5,.3,3.3-.9,4.4-1.3,1.3-2.6,2.6-3.8,3.8-.3,.3-.3,.4,0,.7,1,1.1,1.8,2.5,2.2,3.9h18.1c0-1.6,1.1-3,2.6-3.4-.3-.2-.6-.2-.8-.5h0c-.8-.5-1.4-1.3-1.6-2.3-.4-1.8,.7-3.6,2.5-4.1-.2-.2-.6-.2-.8-.6h-.1c-1.4-.8-2.1-2.8-1.4-4.4,.5-1.3,1.9-2.2,3.3-2.1h8.4v-26.5c0-2.2-1.4-3.6-3.6-3.6Zm-11,5.1q0-.8,.8-.8c.9,0,.9,0,.9,.9s0,.9-.9,.9c-1,0-.8,0-.8-.9Zm7.4,4.4h-3.1c-1.3,0-2.5,0-3.8,0-.3,0-.5,0-.5-.4,0-1.3,0-1.3,1.3-1.3h6.9c.4,0,.5,0,.5,.5,0,1.3,0,1.3-1.3,1.3Zm2.5-3.4h-5.9c-.4,0-.5,0-.5-.5,0-1.3,0-1.3,1.2-1.3h2.7c1.1,0,2.3,0,3.4,0,.3,0,.4,0,.4,.4,0,1.4,0,1.4-1.3,1.4Z"/></g><circle class="cls-3" cx="49.9" cy="47" r="45"/><g><path d="M19.3,48.2l.2,2.1-5.3,.4,4,2.1v.2s-3.7,2.6-3.7,2.6l5.3-.4,.2,2.1-9.1,.7-.2-2.1,3.9-2.8-4.2-2.2-.2-2.1,9.1-.7Z"/><path d="M18.7,43.8c.1-.5,0-1-.2-1.3l1.2-1.3c.7,.8,1,1.8,.7,3-.5,2.2-2.2,3.2-4.1,2.8-1.9-.4-3.1-2.1-2.6-4.1,.4-1.9,2.1-2.9,4-2.5,.3,0,.5,.1,.7,.2l-1,4.5c.7-.1,1.1-.6,1.2-1.3Zm-2.1-1.7c-.8,0-1.2,.6-1.3,1.1-.2,.7,.1,1.3,.7,1.6l.6-2.7Z"/><path d="M15.8,30.6l8.2,3.9-.8,1.8-.6-.3c.3,.6,.3,1.3-.1,2.1-.7,1.5-2.7,2.2-4.4,1.3-1.7-.8-2.5-2.7-1.8-4.3,.4-.8,.9-1.2,1.6-1.4l-2.9-1.4,.8-1.8Zm4.4,4.3c-.9-.4-1.7,0-2.1,.7-.4,.8-.1,1.7,.8,2.1,.9,.4,1.7,0,2.1-.7s.1-1.7-.8-2.1Z"/><path d="M17.9,29.1c-.5-.4-.6-1.1-.3-1.6,.4-.5,1.1-.6,1.6-.3,.5,.4,.6,1.1,.3,1.6-.4,.5-1.1,.6-1.6,.3Zm1.5,.9l1.1-1.6,5.3,3.8-1.1,1.6-5.3-3.8Z"/><path d="M26.6,21.9l4.5,4.7-1.4,1.4-.4-.4c0,.7-.2,1.3-.8,1.9-1.2,1.2-3.3,1.1-4.6-.3-1.4-1.4-1.4-3.4-.2-4.6,.6-.6,1.3-.8,1.9-.8l-.4-.4,1.4-1.4Zm.9,3.7c-.7-.7-1.6-.7-2.2,0-.6,.6-.7,1.5,0,2.2,.7,.7,1.6,.7,2.2,0,.6-.6,.7-1.5,0-2.2Z"/><path d="M29.5,21.8l4.2-2.6,1,1.6-4.2,2.6-1-1.6Z"/><path d="M41.1,12l2.8,8.7-1.5,.5-4.9-3.6,1.5,4.7-2,.6-2.8-8.7,1.5-.5,4.9,3.6-1.5-4.7,2-.6Z"/><path d="M44.4,17.3c-.1-1.9,1.3-3.5,3.2-3.6,1.9-.1,3.5,1.3,3.7,3.2,.1,1.9-1.3,3.5-3.2,3.6-1.9,.1-3.5-1.3-3.7-3.2Zm4.9-.3c0-.9-.7-1.5-1.6-1.4-.8,0-1.5,.7-1.4,1.6s.7,1.5,1.6,1.4c.8,0,1.5-.7,1.4-1.6Z"/><path d="M55.6,17.3c.5-1.9,2.3-2.9,4.2-2.4,1.2,.3,2.1,1.3,2.4,2.4l-1.9,.5c0-.5-.5-.9-1-1-.8-.2-1.6,.2-1.8,1.1-.2,.9,.2,1.6,1,1.8,.6,.1,1.1,0,1.4-.4l1.4,1.4c-.8,.8-2,1.2-3.3,.9-1.9-.5-2.9-2.3-2.4-4.2Z"/><path d="M70.1,19.6l-3,5.7-1.7-.9,.3-.5c-.6,.2-1.3,.2-2.1-.2-1.5-.8-2-2.8-1.1-4.5,.9-1.7,2.8-2.4,4.3-1.6,.8,.4,1.2,1,1.3,1.6l.3-.5,1.7,.9Zm-3.2,2c.5-.9,.2-1.7-.6-2.1-.8-.4-1.7-.2-2.1,.7-.5,.9-.2,1.7,.6,2.1,.8,.4,1.7,.2,2.1-.7Z"/><path d="M77.6,29.7l-2.8,2.8-1.4-1.4,2.7-2.7c.5-.5,.5-1,0-1.4-.5-.5-1-.4-1.6,.2l-2.6,2.6-1.4-1.4,2.7-2.7c.5-.5,.5-1,0-1.4-.5-.5-1-.4-1.6,.2l-2.6,2.6-1.4-1.4,4.6-4.6,1.4,1.4-.4,.4c.5-.1,1.2,0,1.8,.7,.5,.5,.7,1.2,.6,1.8,.6-.1,1.3,0,1.9,.7,1.1,1.1,1,2.5-.1,3.7Z"/><path d="M78,35.4c.3,.5,.7,.8,1,.9v1.8c-1.1-.1-2-.8-2.6-1.8-1.1-1.9-.4-3.9,1.3-4.8s3.7-.4,4.7,1.4c.9,1.7,.3,3.6-1.4,4.5-.2,.1-.5,.2-.7,.3l-2.2-4c-.5,.5-.4,1.2,0,1.8Zm2.7,0c.6-.5,.5-1.2,.2-1.7-.4-.6-.9-.9-1.6-.7l1.3,2.5Z"/><path d="M85.8,41.3l-2.1,.7c-.1-.8-.8-1.8-2-1.4l-2.8,.9-.6-1.9,6.2-2,.6,1.9-1.1,.4c.9,0,1.6,.7,1.8,1.5Z"/><path d="M86.9,49.4l-6.5,.8-.2-1.9h.6c-.5-.4-.9-1-1-1.9-.2-1.7,1.1-3.3,3-3.5,1.9-.2,3.6,1,3.8,2.7,.1,.9-.1,1.5-.5,2h.6c0,0,.2,1.9,.2,1.9Zm-3.5-1.5c1-.1,1.5-.8,1.4-1.7-.1-.9-.8-1.5-1.8-1.3-1,.1-1.5,.8-1.4,1.7,.1,.9,.8,1.5,1.8,1.3Z"/></g></svg>