<?xml version="1.0" encoding="UTF-8"?><svg id="Layer_1" xmlns="http://www.w3.org/2000/svg" viewBox="0 0 100 100"><defs><style>.cls-1{fill:#0c4a4e;}.cls-2{fill:none;stroke:#c000e2;stroke-miterlimit:10;stroke-width:4px;}.cls-3{fill:#d9cfca;}.cls-4{fill:#e5dedc;}.cls-5{fill:#97f8fe;}.cls-6{fill:#f1efef;}.cls-7{fill:#fe7038;}.cls-8{fill:#152433;}.cls-9{fill:#fe415d;}.cls-10{fill:#e6dedc;}.cls-11{fill:#d0c8c3;}.cls-12{fill:#7dd4f3;}</style></defs><circle class="cls-2" cx="50" cy="50" r="45"/><path d="m15.6,36.1c1.9.6,3,2.6,2.4,4.6l-.5,1.5,3.2,1-.7,2.3-10-3.1,1.2-3.8c.6-2,2.6-3,4.5-2.5Zm-.7,2.3c-.7-.2-1.4.1-1.7.8l-.5,1.5,2.6.8.5-1.5c.2-.7-.2-1.4-.9-1.6Z"/><path d="m22.4,29.1l3.9,2.5-1.2,1.9-3.6-2.3c-.8-.5-1.5-.2-1.9.4-.4.7-.3,1.4.6,2l3.5,2.2-1.2,1.9-8.9-5.6,1.2-1.9,3.1,2c-.2-.6-.2-1.5.4-2.3.8-1.3,2.4-1.8,4.1-.7Z"/><path d="m24.1,28.4c-1.5-1.7-1.3-4.1.3-5.6,1.6-1.5,4.1-1.4,5.6.3s1.3,4.1-.3,5.6c-1.6,1.5-4.1,1.4-5.6-.3Zm4.2-3.8c-.7-.8-1.7-.8-2.5-.2-.7.7-.8,1.7,0,2.5.7.8,1.7.8,2.5.2.7-.7.8-1.7,0-2.5Z"/><path d="m37.4,18.2l2.1,4.1-2,1-1.9-3.8c-.4-.8-1.1-1-1.8-.6-.7.4-1,1.1-.5,2l1.9,3.7-2,1-3.4-6.7,2-1,.3.6c.1-.7.6-1.3,1.5-1.8,1.4-.7,3-.3,3.9,1.5Z"/><path d="m43.7,19.4c.6-.1,1.1-.5,1.3-.9l2,.6c-.5,1.1-1.5,1.9-2.9,2.2-2.5.5-4.4-.8-4.9-3-.5-2.2.8-4.2,3.1-4.7,2.1-.4,4.1.9,4.5,3.1,0,.3,0,.6,0,.9l-5.2,1.1c.4.7,1.2.8,2,.7Zm.8-3c-.4-.8-1.1-1-1.8-.8-.8.2-1.3.7-1.4,1.5l3.2-.7Z"/><path d="m48.6,15l5.7.2v2.2c0,0-5.8-.2-5.8-.2v-2.2Z"/><path d="m63.9,19.6c-.7,2.1-2.7,3.3-4.6,2.7-1-.3-1.6-.8-1.9-1.5l-.2.7-2.2-.7,3.1-10,2.2.7-1.1,3.5c.6-.4,1.4-.5,2.4-.2,1.9.6,2.9,2.7,2.3,4.8Zm-2.2-.7c.3-1.1-.2-2-1.2-2.3-1-.3-1.9.2-2.2,1.2s.2,2,1.2,2.3,1.9-.2,2.2-1.2Z"/><path d="m65.1,20.1c1.2-1.9,3.6-2.4,5.5-1.2,1.9,1.2,2.4,3.6,1.2,5.5s-3.6,2.4-5.5,1.2c-1.9-1.2-2.4-3.6-1.2-5.5Zm4.8,3.1c.6-.9.3-1.9-.5-2.4-.8-.5-1.8-.3-2.4.6s-.3,1.9.5,2.4c.8.5,1.8.3,2.4-.6Z"/><path d="m83.1,26.8l-7.9,6.9-1.5-1.7.5-.5c-.8,0-1.5-.3-2.2-1.1-1.3-1.5-1.1-3.8.6-5.3,1.7-1.5,4-1.4,5.3,0,.7.8.9,1.5.8,2.3l2.8-2.4,1.5,1.7Zm-6.6,2.8c.8-.7.9-1.8.2-2.5-.7-.8-1.7-.9-2.6-.1s-.9,1.8-.2,2.5c.7.8,1.7.9,2.6.1Z"/><path d="m85.6,37.7l-7.7.9c-2.5.3-4-.5-4.8-2.4l1.9-.9c.5.9,1,1.2,1.9,1.1l5.1-5.9,1.1,2.2-3.4,3.5,4.7-.8,1.1,2.2Z"/><path d="m83.6,47.1c-2.3.5-3.8-1-4.3-2.9-.4-1.5,0-3.1,1.4-4.1l1.6,1.8c-.6.4-.9.9-.7,1.8.2,1,.8,1.3,1.5,1.1.6-.1,1-.7.8-1.6v-.5c-.1,0,1-1.2,1-1.2l2.8,1.3-.9-3.7,2.2-.5,1.5,6.6-1.9.4-2.7-1.3c-.2,1.4-1,2.5-2.4,2.8Z"/><path class="cls-1" d="m39.5,82.9c0-.2-.3-.1-.4-.2-2.9-.7-4.8-3.1-4.8-6.1,0-4.7,0-9.5,0-14.2v-23.2c0-2.7,1.3-4.7,3.7-5.9.6-.3,1.4-.5,2.1-.5,3.3,0,6.6,0,9.8,0v9.2c-1.2,0-2.4,0-3.7,0-2.2-.2-4-2.1-4.1-4.3,0-1.1-.5-1.7-1.3-1.9-.5,0-.9,0-1.3.1-1.4.5-2.3,1.7-2.3,3.4v37.1c0,.2,0,.5,0,.7.2,1.7,1.7,2.9,3.3,2.8.2,0,.5,0,.7,0,2.9,0,5.7,0,8.6,0v2.9h-10.5Z"/><path class="cls-8" d="m50,42.1v-9.2c3.3,0,6.7,0,10,0,2.7,0,5.3,2.6,5.6,5.2,0,.5,0,1.1,0,1.7v36.8c0,3-1.9,5.5-4.8,6.2-.2,0-.4,0-.5.1h-10.4v-2.9h0s9.4,0,9.4,0c.2,0,.5,0,.7,0,1.6-.4,2.6-1.7,2.6-3.4v-33.7c0-1.3,0-2.5,0-3.8,0-1.6-1.1-3-2.7-3.2-1.2-.2-2.2.5-2.3,1.7,0,2.6-2.1,4.5-4.7,4.6-1,0-2.1,0-3.1,0h0Z"/><path class="cls-6" d="m40.7,80c-1.7,0-3.1-1.1-3.3-2.8,0-.2,0-.5,0-.7v-37.1c0-1.7.8-2.9,2.3-3.4.4-.2.9-.2,1.3-.1.9.2,1.3.8,1.3,1.9,0,2.2,1.9,4.1,4.1,4.3,1.2,0,2.4,0,3.7,0h0c0,1.1,0,2.2,0,3.3,0,0,0,0,0,0h-7.8c-.9,0-1.5.6-1.5,1.5v14.1c0,.9.6,1.5,1.5,1.5h7.8v3.3c-.2,0-.5.1-.8,0h-7.1c-.2,0-.5,0-.7.1-.6.4-.9,1.1-.7,1.7.2.6.8,1,1.5,1h7.8c0,1.1,0,2.2,0,3.3,0,0,0,0,0,0-2.5,0-5.1,0-7.6,0-1.1,0-1.7.5-1.7,1.7,0,2.1,0,4.1,0,6.2Z"/><path class="cls-7" d="m40.7,80c0-2.1,0-4.1,0-6.2,0-1.1.5-1.7,1.7-1.7,2.5,0,5.1,0,7.6,0v7.8h0c-2.9,0-5.7,0-8.6,0-.2,0-.5,0-.7,0Z"/><path class="cls-4" d="m50,45.4c0-1.1,0-2.2,0-3.3,1,0,2.1,0,3.1,0,2.6,0,4.6-1.9,4.7-4.6,0-1.2,1-1.9,2.3-1.7,1.6.3,2.7,1.7,2.7,3.2,0,1.3,0,2.5,0,3.8v33.7c0,1.7-1,3-2.6,3.4-.2,0-.5,0-.7,0v-5.6c0-1.8-.4-2.3-2.3-2.3h-7.1c0-1.1,0-2.2,0-3.3h1.6c.7,0,1.4-.6,1.4-1.3,0-.7-.5-1.4-1.2-1.5-.6-.1-1.2,0-1.8,0h0v-3.3c2.5,0,5.1,0,7.6,0,1,0,1.7-.7,1.7-1.7,0-4.5,0-9.1,0-13.6s-.5-1.8-1.8-1.8c-2.5,0-5,0-7.5,0Zm7.8,23.3c.8,0,1.5-.6,1.5-1.4,0-.8-.6-1.5-1.4-1.5,0,0,0,0,0,0-.7,0-1.6.8-1.5,1.5,0,.6.4,1.4,1.4,1.4h0Z"/><path class="cls-9" d="m50,72.1h7.1c1.9,0,2.3.4,2.3,2.3v5.6h-9.4v-7.8s0,0,0,0Z"/><path class="cls-12" d="m50,45.4h7.5c1.2,0,1.8.6,1.8,1.8,0,4.5,0,9.1,0,13.6,0,1-.7,1.7-1.7,1.7-2.5,0-5.1,0-7.6,0h0s0-17,0-17c0,0,0,0,0,0Z"/><path class="cls-5" d="m50,45.5v17c-2.6,0-5.2,0-7.8,0-.9,0-1.5-.6-1.5-1.5v-14.1c0-.9.6-1.5,1.5-1.5,2.6,0,5.2,0,7.8,0Z"/><path class="cls-10" d="m50,68.8h-7.8c-.7,0-1.3-.4-1.5-1-.2-.6.1-1.3.7-1.7.2-.1.4-.1.7-.1h7.1c.3,0,.5,0,.8,0h0v2.9h0Z"/><path class="cls-3" d="m50,68.7v-2.9c.6,0,1.2,0,1.8,0,.7.2,1.2.8,1.2,1.5,0,.7-.7,1.3-1.4,1.3-.5,0-1.1,0-1.6,0Z"/><path class="cls-11" d="m57.8,68.7c-1,0-1.4-.8-1.4-1.4,0-.7.8-1.5,1.5-1.5.8,0,1.5.7,1.4,1.5,0,0,0,0,0,0,0,.8-.6,1.4-1.5,1.4Z"/><path d="m53.4,58.2c1.7.5,3,1.4,4,2.7,1,1.3,1.5,2.8,1.5,4.6,0,2.8-.9,4.9-2.7,6.4-1.8,1.5-4.1,2.3-6.8,2.3s-4.1-.5-5.7-1.5-2.9-2.4-3.6-4.4l5.8-3.3c.5,1.8,1.7,2.7,3.6,2.7s1.7-.2,2.2-.7c.5-.4.8-1,.8-1.8s-.3-1.3-.8-1.8c-.5-.4-1.2-.6-2.2-.6h-1.4l-2.6-3.8,4.1-5.1h-8.7v-6.3h16.8v5.2l-4.3,5.3Z"/></svg>