<?xml version="1.0" encoding="UTF-8"?><svg id="Layer_1" xmlns="http://www.w3.org/2000/svg" viewBox="0 0 100 100"><defs><style>.cls-1{fill:#d1fdbf;}.cls-2{fill:#999afe;}.cls-3{fill:none;stroke:#c000e2;stroke-miterlimit:10;stroke-width:4px;}.cls-4{fill:#00f6d5;}.cls-5{fill:#01264f;}.cls-6{fill:#034868;}.cls-7{fill:#02f6d5;}.cls-8{fill:#b7b7fe;}.cls-9{fill:#979bfd;}.cls-10{fill:#b8b8fd;}.cls-11{fill:#00dbe6;}</style></defs><g><circle class="cls-3" cx="50" cy="50" r="45"/><g><path class="cls-5" d="M50,34.6c3.7,0,7.3,0,11,0,1.9,0,3.7,1.7,3.9,3.6,0,.4,0,.9,0,1.3v40c0,2.2-1.2,3.9-3.2,4.5-.2,0-.4,0-.5,.2h-11.3v-2.9h10.2c1.3,0,1.8-.5,1.8-1.8V39.3c0-1.3-.5-1.8-1.8-1.8h-10.2s0-2.9,0-2.9Z"/><path class="cls-6" d="M50,34.6v2.9h0c-3.5,0-7.1,0-10.6,0-.4,0-.7,.2-1,.4-.4,.4-.5,.9-.5,1.4v40.4c0,.9,.6,1.5,1.6,1.5,.7,0,1.5,0,2.2,0h8.3s0,0,0,0v2.9h-11.4c0-.1-.2-.1-.3-.2-2-.6-3.1-2-3.3-4.1,0-.2,0-.3,0-.5V39.3c0-2.2,1.1-3.8,2.9-4.5,.4-.1,.8-.2,1.2-.2,3.6,0,7.2,0,10.8,0Z"/><path class="cls-4" d="M50,37.5h10.2c1.3,0,1.8,.5,1.8,1.8v40.1c0,1.3-.5,1.8-1.8,1.8h-10.2s0,0,0,0c0-1,0-2,0-3.1,1.4,0,2.7,0,4.1,0,.8,0,1.4-.6,1.4-1.4,0-.9-.6-1.5-1.6-1.5-1.3,0-2.6,0-3.9,0,0-2.6,0-5.2,0-7.8,1-.1,1.4-.6,1.4-1.6v-12.9c0-1-.5-1.5-1.4-1.6,0-2.7,0-5.4,0-8.1,.6,0,1.3,0,1.9,0,.9,0,1.5-.8,1.6-1.4,0-.8-.7-1.5-1.6-1.5-.6,0-1.3,0-1.9,0v-2.8h0Zm4.2,21.8v2.7c0,.9,.6,1.5,1.4,1.5,.8,0,1.5-.6,1.5-1.4,0,0,0,0,0,0,0-1.8,0-3.6,0-5.4,0-.8-.7-1.5-1.5-1.4,0,0,0,0,0,0-.8,0-1.4,.7-1.4,1.6,0,.9,0,1.7,0,2.6h0Z"/><path class="cls-1" d="M50,37.5c0,.9,0,1.9,0,2.8h0c-.7,0-1.3,0-2,0-.8,0-1.5,.7-1.5,1.5,0,.8,.7,1.4,1.5,1.4,.6,0,1.3,0,1.9,0h0c0,2.7,0,5.4,0,8.1h0c-.9,0-1.4,.6-1.4,1.5v13.1c0,.9,.6,1.4,1.4,1.5h0s0,7.8,0,7.8h0c-1.3,0-2.6,0-3.9,0-.9,0-1.6,.6-1.6,1.5,0,.8,.7,1.4,1.6,1.4h3.9c0,1,0,2,0,3.1h-8.3c-.7,0-1.5,0-2.2,0-.9,0-1.5-.6-1.6-1.5V39.3c0-.5,0-1,.5-1.4,.3-.3,.6-.4,1-.4,3.5,0,7.1,0,10.6,0Zm-4.2,21.9v-2.8c0-.2,0-.5-.2-.6-.3-.5-1-.9-1.5-.7-.8,.2-1.2,.7-1.2,1.5,0,1.8,0,3.5,0,5.3,0,.8,.7,1.5,1.5,1.5,.9,0,1.4-.6,1.4-1.6,0-.9,0-1.7,0-2.6Z"/><path class="cls-2" d="M50,51.3c1,0,1.4,.6,1.4,1.6v12.9c0,1-.4,1.5-1.4,1.6h0c0-2.8,0-5.6,0-8.3s0-5.2,0-7.8h0Z"/><path class="cls-9" d="M54.2,59.3v-2.6c0-.9,.6-1.5,1.4-1.6,.8,0,1.5,.6,1.5,1.4,0,0,0,0,0,0,0,1.8,0,3.6,0,5.4,0,.8-.7,1.4-1.5,1.4,0,0,0,0,0,0-.8,0-1.4-.7-1.4-1.5v-2.7h0Z"/><path class="cls-11" d="M50,75.2c1.3,0,2.6,0,3.9,0,1,0,1.6,.6,1.6,1.5,0,.8-.6,1.4-1.4,1.4-1.4,0-2.7,0-4.1,0h0c0-1,0-2,0-2.9h0Z"/><path class="cls-11" d="M50,40.3h1.9c.8,0,1.6,.7,1.6,1.5,0,.6-.7,1.5-1.6,1.4-.6,0-1.3,0-1.9,0h0v-2.9s0,0,0,0Z"/><path class="cls-8" d="M50,51.3c0,2.6,0,5.2,0,7.8,0,2.8,0,5.5,0,8.3-.9,0-1.4-.6-1.4-1.5,0-4.4,0-8.7,0-13.1,0-.9,.5-1.4,1.4-1.5Z"/><path class="cls-10" d="M45.7,59.4v2.6c0,.9-.5,1.5-1.4,1.6-.7,0-1.5-.6-1.5-1.5,0-1.8,0-3.5,0-5.3,0-.8,.5-1.3,1.2-1.5,.5-.1,1.2,.2,1.5,.7,.1,.2,.2,.4,.2,.6,0,.9,0,1.8,0,2.8Z"/><path class="cls-7" d="M50,75.2c0,1,0,2,0,2.9h-3.9c-.9,0-1.6-.6-1.6-1.4s.7-1.4,1.6-1.5c1.3,0,2.6,0,3.9,0Z"/><path class="cls-7" d="M50,40.3v2.9c-.7,0-1.3,0-1.9,0-.9,0-1.5-.6-1.5-1.4,0-.8,.7-1.5,1.5-1.5,.7,0,1.3,0,2,0Z"/></g><g><path d="M17,34.7c1.8,.7,2.7,2.8,2,4.8l-.6,1.5,3.1,1.2-.9,2.2-9.7-3.9,1.5-3.7c.8-1.9,2.9-2.8,4.7-2.1Zm-.9,2.2c-.7-.3-1.5,0-1.7,.7l-.6,1.5,2.5,1,.6-1.5c.3-.7,0-1.4-.8-1.7Z"/><path d="M24.4,28.4l3.7,2.8-1.4,1.8-3.4-2.6c-.7-.6-1.4-.4-1.9,.2-.5,.7-.5,1.4,.4,2l3.3,2.5-1.4,1.8-8.3-6.4,1.4-1.8,2.9,2.2c-.2-.7,0-1.5,.6-2.3,.9-1.2,2.6-1.6,4.2-.3Z"/><path d="M26.1,27.8c-1.4-1.8-1-4.2,.8-5.6,1.8-1.3,4.2-1,5.6,.7,1.4,1.8,1,4.2-.8,5.6-1.8,1.3-4.2,1-5.6-.7Zm4.5-3.5c-.6-.8-1.7-1-2.4-.4s-.9,1.6-.3,2.5c.6,.8,1.7,1,2.4,.4,.8-.6,.9-1.6,.3-2.5Z"/><path d="M40.2,18.8l1.7,4.3-2.1,.8-1.6-4c-.4-.9-1.1-1-1.7-.8-.8,.3-1.1,1-.7,2l1.5,3.8-2.1,.8-2.8-7,2.1-.8,.3,.7c.2-.7,.7-1.3,1.6-1.7,1.4-.6,3,0,3.8,1.8Z"/><path d="M46.4,20.6c.6,0,1.1-.4,1.4-.7l1.9,.8c-.6,1.1-1.6,1.8-3.1,1.9-2.5,.3-4.3-1.2-4.6-3.4-.3-2.2,1.1-4.1,3.5-4.4,2.2-.3,4,1.2,4.3,3.5,0,.3,0,.6,0,.9l-5.3,.6c.4,.7,1.1,.9,1.9,.8Zm1-2.9c-.3-.8-1-1.1-1.7-1-.8,.1-1.4,.6-1.5,1.4l3.2-.4Z"/><path d="M51.6,16.5l5.7,.7-.3,2.1-5.7-.7,.3-2.1Z"/><path d="M66.6,22.4c-.8,2.1-3,3.1-4.8,2.3-.9-.4-1.5-1-1.7-1.7l-.3,.7-2.1-.8,3.9-9.8,2.1,.8-1.4,3.4c.7-.3,1.5-.4,2.4,0,1.8,.7,2.7,2.9,1.9,5Zm-2.1-.8c.4-1,0-2-1-2.4-1-.4-1.9,0-2.3,1-.4,1,0,2,1,2.4s1.9,0,2.3-1Z"/><path d="M67.6,23.1c1.4-1.8,3.8-2,5.6-.7,1.7,1.3,2.1,3.8,.7,5.6-1.4,1.8-3.8,2-5.6,.7-1.7-1.3-2.1-3.8-.7-5.6Zm4.5,3.5c.7-.8,.5-1.9-.3-2.5-.8-.6-1.8-.5-2.4,.3-.7,.8-.5,1.9,.3,2.5,.8,.6,1.8,.5,2.4-.3Z"/><path d="M85.1,31.3l-8.4,6.2-1.3-1.8,.6-.4c-.8,0-1.5-.4-2.1-1.3-1.2-1.6-.7-3.9,1.1-5.2,1.8-1.3,4.1-1.1,5.3,.5,.6,.8,.8,1.6,.6,2.3l3-2.2,1.3,1.8Zm-6.8,2.2c.9-.7,1-1.7,.4-2.5-.6-.8-1.6-1-2.5-.3-.9,.7-1,1.7-.4,2.5,.6,.8,1.6,1,2.5,.3Z"/><path d="M86.6,42.4l-7.7,.3c-2.5,0-3.9-.8-4.6-2.8l2-.8c.4,1,.9,1.3,1.8,1.3l5.6-5.4,.9,2.3-3.7,3.2,4.8-.4,.9,2.2Z"/><path d="M82.3,52.8v-1c-.1,0-1.8,.2-1.8,.2l-.3-2.4,1.7-.2-.6-4.7,2.2-.3,7,2.5,.3,2.6-7-2.5,.3,2.2,2.2-.3,.3,2.4-2.2,.3v1c.1,0-2.1,.3-2.1,.3Z"/></g></g><path d="M60.2,60.6v6h-2.6v4h-6.6v-4h-11.4v-6.1l7.7-15.8h7.3l-7.8,15.9h4.1v-4.7h6.6v4.7h2.6Z"/></svg>