<?xml version="1.0" encoding="UTF-8"?><svg id="Layer_1" xmlns="http://www.w3.org/2000/svg" viewBox="0 0 100 100"><defs><style>.cls-1{fill:#a7cefe;}.cls-2{fill:none;stroke:#c000e2;stroke-miterlimit:10;stroke-width:4px;}.cls-3{fill:#717f8f;}.cls-4{fill:#728090;}.cls-5{fill:#b6d6fd;}.cls-6{fill:#3f4a5b;}</style></defs><circle class="cls-2" cx="50" cy="50" r="45"/><path d="m16.7,34.8c1.9.7,2.8,2.8,2,4.7l-.6,1.5,3.1,1.2-.9,2.2-9.8-3.8,1.4-3.7c.7-1.9,2.8-2.9,4.7-2.1Zm-.9,2.2c-.7-.3-1.5,0-1.7.7l-.6,1.5,2.5,1,.6-1.5c.3-.7,0-1.4-.8-1.7Z"/><path d="m24,28.3l3.7,2.7-1.3,1.8-3.4-2.5c-.7-.6-1.4-.3-1.9.2-.5.7-.4,1.4.4,2l3.3,2.4-1.3,1.8-8.5-6.2,1.3-1.8,3,2.2c-.2-.7,0-1.5.5-2.3.9-1.2,2.5-1.6,4.2-.4Z"/><path d="m25.7,27.7c-1.4-1.8-1.1-4.2.7-5.6,1.7-1.4,4.2-1.1,5.6.6,1.4,1.8,1.1,4.2-.7,5.6-1.7,1.4-4.2,1.1-5.6-.6Zm4.5-3.5c-.7-.8-1.7-.9-2.5-.3-.8.6-.9,1.6-.3,2.5.7.8,1.7.9,2.5.3.8-.6.9-1.6.3-2.5Z"/><path d="m39.7,18.4l1.8,4.2-2.1.9-1.7-3.9c-.4-.9-1.1-1-1.7-.7-.8.3-1.1,1-.7,2l1.6,3.8-2.1.9-2.9-6.9,2.1-.9.3.6c.2-.7.7-1.3,1.6-1.7,1.4-.6,3-.1,3.8,1.8Z"/><path d="m45.9,20.1c.6,0,1.1-.4,1.3-.8l1.9.8c-.6,1.1-1.6,1.8-3,2-2.5.4-4.4-1.1-4.7-3.4-.3-2.2,1.1-4.1,3.4-4.5,2.2-.3,4,1.2,4.3,3.4,0,.3,0,.6,0,.9l-5.3.7c.4.7,1.1.9,1.9.8Zm1-2.9c-.4-.8-1.1-1-1.7-1-.8.1-1.4.6-1.5,1.4l3.2-.4Z"/><path d="m51.1,16l5.7.6-.2,2.1-5.7-.6.2-2.1Z"/><path d="m66.1,21.6c-.8,2.1-2.9,3.1-4.8,2.4-.9-.4-1.5-.9-1.8-1.6l-.3.7-2.1-.8,3.7-9.8,2.1.8-1.3,3.5c.7-.4,1.5-.4,2.4,0,1.8.7,2.7,2.9,1.9,5Zm-2.1-.8c.4-1.1,0-2-1-2.3-1-.4-1.9,0-2.3,1.1-.4,1.1,0,2,1,2.3,1,.4,1.9,0,2.3-1.1Z"/><path d="m67.2,22.3c1.3-1.8,3.8-2.1,5.6-.8,1.8,1.3,2.2,3.8.8,5.5-1.3,1.8-3.8,2.1-5.6.8-1.8-1.3-2.2-3.8-.8-5.5Zm4.6,3.4c.6-.9.5-1.9-.3-2.5-.8-.6-1.8-.5-2.4.4s-.5,1.9.3,2.5c.8.6,1.8.5,2.4-.4Z"/><path d="m84.7,30.2l-8.3,6.4-1.4-1.8.6-.4c-.8,0-1.5-.4-2.1-1.2-1.2-1.6-.8-3.9,1-5.3,1.8-1.4,4.1-1.1,5.3.4.6.8.8,1.6.6,2.3l2.9-2.3,1.4,1.8Zm-6.7,2.3c.9-.7,1-1.7.4-2.5-.6-.8-1.6-1-2.5-.3-.9.7-1,1.7-.4,2.5.6.8,1.6,1,2.5.3Z"/><path d="m86.5,41.2l-7.7.4c-2.5.1-3.9-.7-4.6-2.7l1.9-.8c.4,1,.9,1.3,1.9,1.3l5.5-5.5.9,2.3-3.6,3.3,4.8-.5.9,2.2Z"/><path d="m90.5,46.6l-10.3,1.9-.4-2.4,7.8-1.4-.8-1.7,1.9-.9,1.5,2.5.4,2.1Z"/><path class="cls-6" d="m39.4,83.3c0-.2-.2-.1-.4-.2-2-.5-3.4-2.3-3.4-4.4,0-1,0-2,0-2.9v-35.9c0-2.7,1.1-4.2,3.6-5,0,0,.1,0,.1-.1h3.4s0,0,0,.1c.5,1.3,1.1,2.6,1.6,3.9.1.3.4.4.7.4h9.7c.4,0,.7-.2.8-.5.2-.5.4-1,.6-1.5.3-.8.7-1.5.9-2.4h3.3c.2.2.5.2.8.3,1.8.6,3,2.3,3.1,4.2,0,.2,0,.4,0,.7v38.1c0,2.8-1.1,4.3-3.8,5.2,0,0,0,0,0,0h-21.1Zm23.7-7.3c0,0,0,0,0,0,0-.1,0-.3,0-.4v-32.9c0-.1,0-.3,0-.4,0-.4-.3-.2-.5-.2-8.5,0-17,0-25.5,0-.4,0-.5.1-.5.5,0,11,0,22,0,33,0,.1,0,.3,0,.4.1,0,.3,0,.4,0h25.5c.1,0,.3,0,.4,0Zm-13.1,3.1h-4.4c-.5,0-.7.2-.6.7,0,.4.4.5.7.5h8.6c.5,0,.7-.2.7-.6,0-.5-.3-.5-.7-.5-1.4,0-2.9,0-4.3,0Z"/><path class="cls-4" d="m57.2,34.8c-.2.8-.6,1.6-.9,2.4-.2.5-.4,1-.6,1.5-.1.3-.4.6-.8.5h-9.7c-.3,0-.6-.1-.7-.4-.5-1.3-1.1-2.6-1.6-3.9,0,0,0,0,0-.1h14.4Z"/><path class="cls-1" d="m36.9,76c-.2-.1,0-.3,0-.4,0-11,0-22,0-33,0-.4,0-.5.5-.5,8.5,0,17,0,25.5,0,.2,0,.4-.2.5.2-.2,0-.3.2-.5.4-.4.5-.7,1-1.1,1.4-1.4,1.8-2.9,3.7-4.3,5.5-1.1,1.5-2.3,2.9-3.4,4.4-1.4,1.8-2.9,3.7-4.3,5.5-1.1,1.5-2.3,2.9-3.4,4.4-1.5,2-3.1,3.9-4.6,5.9-1.1,1.4-2.2,2.8-3.2,4.2-.5.7-1.1,1.3-1.5,2Z"/><path class="cls-5" d="m36.9,76c.4-.7,1-1.3,1.5-2,1.1-1.4,2.2-2.8,3.2-4.2,1.5-2,3.1-3.9,4.6-5.9,1.1-1.5,2.3-2.9,3.4-4.4,1.4-1.8,2.9-3.7,4.3-5.5,1.1-1.5,2.3-2.9,3.4-4.4,1.4-1.8,2.9-3.7,4.3-5.5.4-.5.7-.9,1.1-1.4.1-.2.2-.3.5-.4,0,.1,0,.3,0,.4v32.9c0,.1,0,.3,0,.4,0,0,0,0,0,0-.1,0-.3,0-.4,0h-25.5c-.1,0-.3,0-.4,0Z"/><path class="cls-3" d="m50,79.1h4.3c.4,0,.7,0,.7.5,0,.4-.2.6-.7.6h-8.6c-.3,0-.6,0-.7-.5,0-.4.1-.7.6-.7,1.5,0,3,0,4.4,0Z"/><path class="cls-1" d="m63.2,76s0,0,0,0c0,0,0,0,0,0Z"/><path d="m48.3,45.7h5.7v25.9h-6.6v-18.9l-4.5,1.1-1.6-5.6,7-2.5Z"/></svg>