<?xml version="1.0" encoding="UTF-8"?><svg id="Layer_1" xmlns="http://www.w3.org/2000/svg" viewBox="0 0 100 100"><defs><style>.cls-1{fill:#727272;}.cls-2{fill:none;stroke:#c000e2;stroke-miterlimit:10;stroke-width:4px;}.cls-3{fill:#626363;}.cls-4{fill:#93dbfe;}.cls-5{fill:#6f7070;}.cls-6{fill:#0aaffe;}.cls-7{fill:#636363;}.cls-8{fill:#2dbafe;}</style></defs><circle class="cls-2" cx="50" cy="50" r="45"/><g><path d="M16.6,34.4c1.9,.7,2.8,2.8,2.1,4.7l-.6,1.5,3.1,1.2-.8,2.2-9.8-3.7,1.4-3.7c.7-1.9,2.8-2.9,4.7-2.2Zm-.8,2.2c-.7-.3-1.5,0-1.7,.7l-.5,1.5,2.5,.9,.6-1.5c.3-.7-.1-1.4-.8-1.7Z"/><path d="M23.8,27.9l3.7,2.7-1.3,1.8-3.5-2.5c-.8-.5-1.4-.3-1.9,.3-.5,.7-.4,1.4,.4,2l3.3,2.4-1.3,1.8-8.5-6.2,1.3-1.8,3,2.2c-.2-.7,0-1.5,.5-2.3,.9-1.2,2.5-1.6,4.2-.5Z"/><path d="M25.6,27.2c-1.4-1.7-1.1-4.2,.6-5.6,1.7-1.4,4.2-1.1,5.6,.6,1.4,1.7,1.1,4.2-.6,5.6-1.7,1.4-4.2,1.1-5.6-.6Zm4.4-3.6c-.7-.8-1.7-.9-2.5-.3-.8,.6-.9,1.6-.2,2.5,.7,.8,1.7,.9,2.5,.3,.8-.6,.9-1.6,.2-2.5Z"/><path d="M39.4,17.8l1.8,4.2-2.1,.9-1.7-3.9c-.4-.9-1.1-1-1.7-.7-.8,.3-1.1,1-.7,2l1.6,3.8-2.1,.9-3-6.9,2.1-.9,.3,.6c.1-.7,.7-1.3,1.6-1.7,1.4-.6,3-.1,3.8,1.7Z"/><path d="M45.6,19.5c.6,0,1.1-.4,1.3-.8l1.9,.8c-.6,1.1-1.6,1.8-3,2-2.5,.4-4.4-1.1-4.7-3.3s1-4.2,3.4-4.5c2.2-.3,4,1.1,4.3,3.4,0,.3,0,.6,0,.9l-5.3,.8c.4,.7,1.1,.9,1.9,.8Zm1-2.9c-.4-.8-1.1-1-1.7-.9-.8,.1-1.3,.6-1.4,1.4l3.2-.5Z"/><path d="M50.8,15.3l5.7,.6-.2,2.2-5.7-.6,.2-2.1Z"/><path d="M65.9,20.8c-.8,2.1-2.9,3.2-4.7,2.5-.9-.3-1.5-.9-1.8-1.6l-.2,.7-2.1-.8,3.6-9.8,2.1,.8-1.3,3.5c.7-.4,1.5-.4,2.4,0,1.8,.7,2.8,2.9,2,5Zm-2.1-.8c.4-1.1,0-2-1-2.3-1-.4-1.9,0-2.3,1.1-.4,1.1,0,2,1,2.3,1,.4,1.9,0,2.3-1.1Z"/><path d="M67,21.4c1.3-1.8,3.8-2.1,5.5-.8s2.2,3.7,.9,5.5c-1.3,1.8-3.8,2.1-5.5,.8-1.8-1.3-2.2-3.7-.9-5.5Zm4.6,3.4c.6-.9,.4-1.9-.3-2.4-.8-.6-1.8-.5-2.4,.4s-.4,1.9,.3,2.4c.8,.6,1.8,.5,2.4-.4Z"/><path d="M84.6,29.2l-8.3,6.5-1.4-1.8,.6-.4c-.8,0-1.5-.4-2.1-1.2-1.2-1.5-.8-3.9,.9-5.3,1.8-1.4,4.1-1.2,5.3,.4,.6,.8,.8,1.6,.7,2.3l2.9-2.3,1.4,1.8Zm-6.7,2.4c.9-.7,1-1.7,.3-2.5-.6-.8-1.7-1-2.5-.3-.9,.7-1,1.7-.3,2.5,.6,.8,1.7,1,2.5,.3Z"/><path d="M86.5,40.2l-7.7,.5c-2.5,.2-3.9-.7-4.6-2.7l1.9-.8c.4,1,.9,1.3,1.9,1.2l5.4-5.5,1,2.3-3.6,3.3,4.8-.5,.9,2.2Z"/><path d="M81.2,42.6l4.2,2.9c.7,.5,1.4,.9,2,.8,.7-.1,1-.6,.9-1.3-.1-.7-.7-1.2-1.4-1.3l.8-2.2c1.6,.4,2.6,1.7,2.8,3.1,.3,1.9-.7,3.7-2.7,4-1.2,.2-2.4-.3-3.5-1.1l-2-1.4,.6,3.5-2.3,.4-1.1-7.1,1.7-.3Z"/></g><g><path class="cls-7" d="M55.4,34.2c2,0,4.1,0,6.1,0,1.7,0,3.3,1.6,3.4,3.3,0,.2,0,.5,0,.7v40.7c0,1.9-.9,3.2-2.5,3.8-.4,.1-.8,.2-1.1,.2h-22.6c-2,0-3.7-1.7-3.7-3.7,0-1.3,0-2.7,0-4h1.8s0,0,0,0c0,1.3,0,2.7,0,4,0,1.2,.8,1.9,2,1.9,7.4,0,14.8,0,22.2,0,1.2,0,2-.8,2-2V38.1c0-1.2-.8-2-1.9-2-1.5,0-3,0-4.5,0h-.1c0-.8-.7-1.3-1.1-1.9Z"/><path class="cls-1" d="M55.4,34.2c.4,.6,1,1.1,1.1,1.8-.2,0-.5,0-.7,0h-16.6c-1.7,0-2.4,.7-2.4,2.4v35.9c0,.3,0,.5,0,.8h-1.8c0-12.3,0-24.6,0-36.9,0-1.7,.7-3,2.3-3.7,.4-.2,.8-.3,1.3-.3,5.6,0,11.3,0,16.9,0Z"/><path class="cls-8" d="M36.8,75.2c0-.3,0-.5,0-.8V38.5c0-1.7,.7-2.4,2.4-2.4h16.6c.2,0,.5,0,.7,0h.1v36c0,1.7-1.3,3.1-3,3.1-5.6,0-11.1,0-16.7,0,0,0,0,0,0,0Zm13.1-33.5h3.6c1.1,0,2-.8,2-1.8,0-1.1-.8-1.9-2-1.9h-7.2c-1.1,0-2,.8-2,1.8,0,1.1,.8,1.9,2,1.9,1.2,0,2.4,0,3.6,0h0Zm-4.2,22.9c.2,0,.5-.2,.6-.3l9.2-9.2c.2-.2,.4-.5,.3-.8s-.2-.6-.6-.7c-.4-.1-.8,0-1.1,.3-3,3-6.1,6.1-9.1,9.1,0,0-.1,.1-.2,.2-.2,.3-.2,.6,0,.9,.2,.3,.5,.5,.9,.5h0Zm5.7-11.1c0-.4-.3-.7-.6-.9-.5-.2-.8,0-1.1,.4-1.8,1.8-3.6,3.6-5.5,5.5-.5,.5-.5,1.1,0,1.4s1,.4,1.4,0c1.9-1.8,3.7-3.7,5.6-5.5,.2-.2,.3-.4,.4-.7h0Z"/><path class="cls-6" d="M36.9,75.2c5.6,0,11.1,0,16.7,0,1.8,0,3-1.3,3-3.1V36.1c1.5,0,3,0,4.5,0,1.2,0,1.9,.8,1.9,2v41c0,1.2-.8,2-2,2-7.4,0-14.8,0-22.2,0-1.1,0-1.9-.7-2-1.9,0-1.3,0-2.6,0-4Zm13.1,3.1h-5.4c-.7,0-1.2,.3-1.2,.9s.4,1,1.1,1h10.8c.7,0,1.2-.4,1.1-.9s-.4-.9-1.2-.9c-1.8,0-3.6,0-5.4,0h0Z"/><path class="cls-5" d="M49.9,41.7h-3.6c-1.2,0-2-.8-2-1.9,0-1.1,.8-1.8,2-1.8,2.4,0,4.8,0,7.2,0,1.2,0,2,.8,2,1.9,0,1.1-.9,1.8-2,1.8-1.2,0-2.4,0-3.6,0Z"/><path class="cls-4" d="M45.7,64.6c-.4,0-.7-.2-.9-.5-.2-.3-.1-.7,0-.9,0,0,.1-.1,.2-.2,3-3,6.1-6.1,9.1-9.1,.3-.3,.7-.4,1.1-.3,.4,.1,.5,.4,.6,.7s0,.6-.3,.8l-9.2,9.2c-.2,.2-.4,.3-.6,.3Z"/><path class="cls-3" d="M49.9,78.2h5.4c.7,0,1.2,.3,1.2,.9s-.4,.9-1.1,.9h-10.8c-.7,0-1.2-.4-1.1-1s.4-.9,1.2-.9c1.8,0,3.6,0,5.4,0Z"/></g><path d="M40.4,72.3v-4.8l8.6-9.1c.9-.9,1.5-1.7,1.9-2.3s.6-1.2,.6-1.7-.2-1.2-.6-1.6-1-.6-1.7-.6c-1.5,0-2.7,.9-3.5,2.7l-5.7-3.2c.8-1.9,2.1-3.4,3.7-4.4,1.6-1,3.4-1.5,5.4-1.5s4.6,.7,6.3,2.2c1.8,1.5,2.6,3.5,2.6,6s-.4,2.9-1.1,4.2c-.7,1.3-1.7,2.6-3.1,4l-3.5,3.7h8.1v6.4h-18.1Z"/></svg>