<?xml version="1.0" encoding="UTF-8"?><svg id="Layer_1" xmlns="http://www.w3.org/2000/svg" viewBox="0 0 100 100"><defs><style>.cls-1{fill:#435256;}.cls-2{fill:#fcc472;}.cls-3{fill:#2d3b3d;}.cls-4{fill:none;stroke:#c000e2;stroke-miterlimit:10;stroke-width:4px;}.cls-5{fill:#fbc372;}.cls-6{fill:#fdc472;}.cls-7{fill:#f99e3d;}</style></defs><circle class="cls-4" cx="50" cy="50" r="45"/><path d="m17.2,47.5l-.7-2.3c.9-.2,1.7-.6,1.9-1.8.3-1.1-.1-1.5-.5-1.6-.6-.2-1,.4-1.8,1.8-.8,1.4-1.9,2.7-3.8,2.2-2-.5-2.7-2.4-2.3-4.2.4-1.7,1.5-2.8,3.2-3.2l.7,2.2c-.8.2-1.4.5-1.6,1.5-.2.7,0,1.2.5,1.3.5.1.8,0,1.7-1.5.8-1.4,1.8-3,4-2.5,2,.5,2.7,2.3,2.2,4.5-.5,2.1-1.9,3.3-3.5,3.5Z"/><path d="m18.3,38.1c-1.9-1.1-2.6-3.5-1.5-5.4,1.1-1.9,3.5-2.6,5.4-1.5,1.9,1.1,2.6,3.5,1.5,5.4-1.1,1.9-3.5,2.6-5.4,1.5Zm2.8-5c-.9-.5-1.9-.2-2.4.6-.5.8-.2,1.8.7,2.4.9.5,1.9.2,2.4-.6.5-.8.2-1.8-.7-2.4Z"/><path d="m23,30.2c-1.6-1.6-1.7-4,0-5.6,1-1,2.5-1.4,3.7-1.1l-.5,2.2c-.6-.2-1.2,0-1.6.5-.7.7-.7,1.7,0,2.4.7.7,1.8.7,2.4,0,.5-.5.6-1.1.4-1.6l2.2-.6c.4,1.3,0,2.7-1,3.8-1.6,1.6-4,1.7-5.6,0Z"/><path d="m40.6,22.8l-1.3-.5c-.5.8-1.2,1.4-2.2,1.8-2,.9-3.9.4-4.7-1.4-.5-1.1-.4-2.4.3-3.4-.4-.3-.8-.7-1.1-1.3-.7-1.6,0-3.4,1.9-4.2,1.4-.6,2.9-.4,4.1.7l-1.4,1.9c-.5-.5-1.1-.8-1.7-.5-.5.2-.8.7-.6,1.2.2.5.7.7,1.4,1l2.6,1.2c0-.5,0-1.1-.2-1.7l2.3.2c.1.8.1,1.6,0,2.4l1.8.8-1.3,1.7Zm-3.2-1.4l-2.6-1.1h-.1c-.2.4-.2.9,0,1.2.3.6.9.9,1.9.5.4-.2.6-.4.9-.6Z"/><path d="m56.5,21.3h-2.4c0-.1.3-6.2.3-6.2l-2.9,4.3h-.3s-2.5-4.6-2.5-4.6l-.3,6.1h-2.4c0-.1.5-10.6.5-10.6h2.4c0,.1,2.6,4.9,2.6,4.9l3.1-4.5h2.4c0,.1-.5,10.6-.5,10.6Z"/><path d="m61.6,21.4c.6.2,1.2.2,1.5,0l1.3,1.6c-1,.7-2.3.8-3.6.3-2.4-.9-3.3-3.1-2.5-5.2.8-2.1,2.9-3.1,5.1-2.3,2,.8,3,2.9,2.2,5-.1.3-.2.6-.4.8l-5-1.9c0,.8.5,1.3,1.3,1.6Zm2.3-2.1c0-.9-.4-1.4-1.1-1.7-.8-.3-1.5-.1-1.9.5l3,1.1Z"/><path d="m76.5,28l-2.9,3.6-1.7-1.4,2.8-3.4c.5-.6.5-1.2,0-1.6-.6-.5-1.2-.3-1.8.3l-2.7,3.3-1.7-1.4,2.8-3.4c.5-.6.5-1.2,0-1.6-.6-.5-1.2-.3-1.8.3l-2.7,3.3-1.7-1.4,4.8-5.8,1.7,1.4-.4.5c.6-.2,1.3,0,2.1.6.7.6,1,1.3.9,2,.7-.2,1.5,0,2.3.6,1.3,1.1,1.4,2.8.2,4.2Z"/><path d="m76.8,30c1.9-1.2,4.3-.6,5.5,1.3,1.2,1.9.6,4.3-1.3,5.5-1.9,1.2-4.3.6-5.5-1.3-1.2-1.9-.6-4.3,1.3-5.5Zm3,4.8c.9-.6,1.1-1.6.6-2.4-.5-.8-1.5-1.1-2.4-.5-.9.6-1.1,1.6-.6,2.4s1.5,1.1,2.4.5Z"/><path d="m86.7,41.2l-2.4.8c-.2-.9-1-2-2.4-1.6l-3.2,1.1-.7-2.1,7.1-2.5.7,2.1-1.3.4c1,0,1.8.7,2.1,1.6Z"/><path d="m88,50.5l-7.5-1.6c-2.5-.5-3.6-1.7-3.7-3.8l2.1-.3c.1,1,.5,1.5,1.5,1.7l6.7-3.9.3,2.5-4.3,2.2,4.7.8.3,2.4Z"/><path class="cls-1" d="m40.9,85.1h-10.5c-1-.5-1.2-1.3-1.2-2.3,0-5.2,0-10.4,0-15.7v-11.1c0-.7.2-.9.9-1.1.5,0,.7-.4.7-.9,0-1,0-2,0-3,0-.5-.2-.8-.7-.9-.8-.2-.9-.4-.9-1.1,0-2.1,0-4.3,0-6.4,0-.7.3-1.5.8-2,2-1.9,3.9-3.9,5.9-5.9.5-.5,1.2-.8,2-.8,7.8,0,15.7,0,23.5,0,.3,0,.6,0,.9,0,0,0,0,.1,0,.2.7.5.9,1.2.9,2-.6.2-.8.3-.8.9,0,2.2,0,4.3,0,6.5,0,.6.2.8.8.9,0,4.1,0,8.3,0,12.4,0,1.5,0,3,0,4.5-.2-.5-.5-.8-1-.9-1.4,0-2.9,0-4.3,0,0,0,0,0-.1,0h-21.9c-.8,0-1.2.4-1.2,1.3,0,5.2,0,10.3,0,15.5,0,.2,0,.5,0,.7,0,.9.4,1.4,1.4,1.4,8.7,0,17.3,0,26,0,.7,0,1.2-.2,1.4-.9,0,1.3,0,2.5,0,3.8,0,1,0,2-1,2.6,0,0,0,0,0,0h-5.4c-.2-.2-.5-.4-.6-.7-.2-.4-.6-.6-1-.6-.8,0-1.5,0-2.2,0h-10.3c-.5,0-.9,0-1.1.5-.2.3-.5.6-.8.8Zm9.1-44.8c0-1.1,0-2.2,0-3.2,0-.6-.3-.9-.8-.9s-.7.4-.7.9c0,2.2,0,4.3,0,6.5h0c0,.6.3.9.8.9.4,0,.7-.3.7-.8,0-1.1,0-2.2,0-3.3h0Zm4.7,0v-3.2c0-.6-.3-1-.8-1s-.8.4-.8,1v6.4c0,.6.3,1,.8,1s.8-.3.8-1c0-1,0-2.1,0-3.1h0Zm4.7,0v-3.2c0-.6-.3-.9-.8-.9s-.8.4-.8,1c0,2.1,0,4.2,0,6.4,0,.6.3,1,.8,1s.8-.3.8-.9c0-1.1,0-2.1,0-3.2h0Zm-18.8,0v-3.2c0-.6-.3-.9-.7-.9s-.8.3-.8.9c0,2.1,0,4.3,0,6.4,0,.6.3.9.7.9.5,0,.8-.3.8-.9,0-1.1,0-2.1,0-3.2h0Zm4.7,0v-3.2c0-.6-.3-1-.8-.9s-.7.4-.7.9c0,2.1,0,4.3,0,6.4,0,.6.3.9.8.9.5,0,.7-.3.7-.9,0-1.1,0-2.1,0-3.2h0Zm-11.4,2.1h0c0,.4,0,.9,0,1.3s.3.7.7.7c.4,0,.7-.3.8-.7,0,0,0,0,0,0,0-.9,0-1.7,0-2.6,0-.4-.3-.8-.7-.8,0,0,0,0,0,0-.4,0-.7.3-.8.8,0,.4,0,.9,0,1.3h0Z"/><path class="cls-3" d="m62.4,34c1.6,0,3.2,0,4.8,0,.9,0,1.6.7,1.6,1.6,0,1.6,0,3.1,0,4.7,0,.3-.1.6-.5.6-.5,0-.6.3-.6.8,0,3.4,0,6.7,0,10.1,0,.4.1.7.5.8.5,0,.6.4.6.8,0,2.5,0,4.9,0,7.4,0,7.4,0,14.8,0,22.2,0,1-.3,1.7-1.2,2.2h-5.2s0,0,0,0c.9-.6,1-1.6,1-2.6,0-1.3,0-2.5,0-3.8,0-3.7,0-7.4,0-11.1,0-2,0-4,0-6,0-1.5,0-3,0-4.5,0-4.1,0-8.3,0-12.4.5,0,.7-.4.7-1,0-2.1,0-4.3,0-6.4,0-.5-.2-.9-.7-1,0-.8-.2-1.5-.9-2,0,0,0-.1,0-.2Z"/><path class="cls-6" d="m34.7,77.4v-15.5c0-.9.4-1.3,1.2-1.3h21.9s0,0,.1,0v15c0,1.6-.3,1.8-1.8,1.8h-21.5Z"/><path class="cls-7" d="m34.7,77.4h21.5c1.6,0,1.8-.3,1.8-1.8,0-5,0-10,0-15,1.4,0,2.9,0,4.3,0,.6,0,.9.4,1,.9,0,2,0,4,0,6,0,3.7,0,7.4,0,11.1-.2.7-.7.9-1.4.9h-26c-1,0-1.4-.4-1.4-1.4,0-.2,0-.5,0-.7Z"/><path class="cls-2" d="m63.4,36.2c.5.1.7.4.7,1,0,2.1,0,4.3,0,6.4,0,.5-.2.9-.7,1-.6-.1-.8-.3-.8-.9,0-2.2,0-4.3,0-6.5,0-.6.2-.8.8-.9Z"/><path class="cls-2" d="m50,40.3c0,1.1,0,2.2,0,3.3,0,.5-.3.8-.7.8-.5,0-.8-.3-.8-.8h0v-6.6c0-.5.3-.9.7-.9s.8.3.8.9c0,1.1,0,2.2,0,3.2Z"/><path class="cls-2" d="m54.7,40.4v3.1c0,.6-.3,1-.8,1s-.8-.3-.8-1v-6.4c0-.6.3-1,.8-1s.8.4.8,1c0,1.1,0,2.2,0,3.2Z"/><path class="cls-2" d="m59.4,40.4v3.2c0,.6-.3,1-.8.9s-.8-.3-.8-1v-6.4c0-.6.3-1,.8-1s.7.4.8.9c0,1.1,0,2.2,0,3.2Z"/><path class="cls-2" d="m40.6,40.4v3.2c0,.6-.3.9-.8.9-.5,0-.7-.3-.7-.9,0-2.1,0-4.3,0-6.4,0-.6.3-1,.8-.9s.7.4.7.9c0,1.1,0,2.2,0,3.2Z"/><path class="cls-2" d="m45.3,40.4v3.2c0,.6-.3.9-.7.9-.5,0-.8-.3-.8-.9,0-2.1,0-4.3,0-6.4,0-.6.3-.9.7-.9s.8.3.8.9c0,1.1,0,2.2,0,3.2Z"/><path class="cls-5" d="m33.9,42.5c0-.4,0-.9,0-1.3,0-.5.3-.8.8-.8.4,0,.8.3.8.8,0,0,0,0,0,0,0,.9,0,1.7,0,2.6,0,.4-.3.7-.7.7,0,0,0,0,0,0-.5,0-.7-.3-.7-.7s0-.9,0-1.3h0Z"/></svg>