<?xml version="1.0" encoding="UTF-8"?><svg id="Layer_1" xmlns="http://www.w3.org/2000/svg" viewBox="0 0 100 100"><defs><style>.cls-1{fill:#d2febf;}.cls-2{fill:#999afe;}.cls-3{fill:none;stroke:#c000e2;stroke-miterlimit:10;stroke-width:4px;}.cls-4{fill:#00f6d5;}.cls-5{fill:#989afe;}.cls-6{fill:#02f6d5;}.cls-7{fill:#03f6d5;}.cls-8{fill:#00244d;}.cls-9{fill:#b7b7fe;}.cls-10{fill:#979bfd;}.cls-11{fill:#b8b8fd;}.cls-12{fill:#014767;}.cls-13{fill:#00dbe6;}</style></defs><circle class="cls-3" cx="50" cy="50" r="45"/><g><path d="M12.7,41.7l-.6,2.8,8.5,1.8-.5,2.5-8.5-1.8-.6,2.8-2.4-.5,1.7-8.1,2.4,.5Z"/><path d="M17.3,33.6l7.2,3.5-1,2.2-.7-.3c.3,.7,.3,1.6-.2,2.6-.9,1.9-3.3,2.6-5.5,1.6-2.1-1-3.1-3.4-2.1-5.3,.5-1,1.1-1.5,1.9-1.7l-.7-.3,1-2.2Zm2.6,3.9c-1.1-.5-2.1-.1-2.6,.9-.5,1-.1,2,.9,2.6,1.1,.5,2.1,.1,2.6-.9,.5-1,.1-2-.9-2.6Z"/><path d="M28,27.3c1.7,1.6,1.9,4.1,.5,5.7-.7,.8-1.5,1.1-2.3,1.1l.5,.5-1.6,1.8-8.2-7.6,1.6-1.8,2.9,2.7c0-.8,.2-1.6,.9-2.4,1.4-1.5,4-1.5,5.7,0Zm-1.6,1.8c-.9-.8-2-.7-2.7,0-.8,.8-.7,1.9,.1,2.7,.9,.8,2,.7,2.7,0,.8-.8,.7-1.9-.1-2.7Z"/><path d="M25.1,20.2l2-1.4,6.7,9.6-2,1.4-6.7-9.6Z"/><path d="M37.6,24.2c.6-.3,1-.7,1.2-1.2l2.2,.3c-.3,1.3-1.2,2.3-2.6,2.9-2.5,1.1-4.8,0-5.7-2.1-.9-2.2,0-4.6,2.2-5.6,2.1-.9,4.4,0,5.4,2.3,.1,.3,.2,.6,.3,.9l-5.2,2.2c.6,.6,1.4,.6,2.2,.3Zm.2-3.3c-.6-.8-1.4-.8-2.1-.5-.8,.4-1.2,1-1.1,1.9l3.2-1.4Z"/><path d="M44.5,18.3l.5,2.8c.1,.7,.7,.6,1.7,.4l.4,2.1c-3,.9-4.1,.1-4.5-2.1l-.5-2.8-1.3,.2-.4-2.3,1.3-.2-.3-1.5,2.2-1.1,.4,2.2,1.6-.3,.4,2.3-1.6,.3Z"/><path d="M48.1,17.6l6.1,.2v2.3c0,0-6.1-.2-6.1-.2v-2.3Z"/><path d="M64.6,22.5c-.7,2.3-2.9,3.5-4.9,2.9-1-.3-1.7-.9-2-1.6l-.2,.7-2.3-.7,3.3-10.7,2.3,.7-1.2,3.8c.7-.4,1.5-.5,2.6-.2,2,.6,3.1,2.9,2.4,5.2Zm-2.3-.7c.4-1.1-.2-2.1-1.2-2.4-1.1-.3-2,.2-2.4,1.3-.4,1.1,.2,2.1,1.2,2.4,1.1,.3,2-.2,2.4-1.3Z"/><path d="M65.8,23.1c1.3-2,3.9-2.4,5.9-1.1,2,1.3,2.5,3.9,1.1,5.9-1.3,2-3.9,2.4-5.9,1.1-2-1.3-2.5-3.9-1.1-5.9Zm5,3.4c.6-.9,.4-2-.5-2.6-.9-.6-1.9-.4-2.6,.5s-.4,2,.5,2.6c.9,.6,1.9,.4,2.6-.5Z"/><path d="M84.9,30.9l-8.7,7.1-1.5-1.9,.6-.5c-.8,0-1.6-.4-2.3-1.2-1.3-1.6-1-4.1,.9-5.6,1.8-1.5,4.4-1.3,5.7,.3,.7,.8,.9,1.7,.7,2.5l3.1-2.5,1.5,1.9Zm-7.1,2.7c.9-.8,1-1.9,.3-2.7-.7-.9-1.8-1-2.7-.2-.9,.8-1,1.9-.3,2.7,.7,.9,1.8,1,2.7,.2Z"/><path d="M87,42.7l-8.2,.6c-2.7,.2-4.2-.7-5-2.8l2.1-.9c.4,1,1,1.4,2,1.3l5.8-5.9,1,2.4-3.8,3.6,5.1-.6,1,2.4Z"/><path d="M91.3,48.6l-11,2-.5-2.5,8.4-1.5-.9-1.9,2-1,1.6,2.7,.4,2.2Z"/></g><g><path class="cls-8" d="M50,37.4c.3,0,.6,0,1,0,3.8,0,7.6,0,11.4,0,1.9,0,3.6,1.4,3.6,3.4,0,0,0,.2,0,.3v34.1c0,1.5-.6,2.6-1.9,3.3-.3,.2-.7,.2-1,.4h-13.1v-2.4c.2,0,.3,0,.5,0h11.7c.9,0,1.3-.4,1.3-1.2V41c0-.9-.4-1.2-1.3-1.2h-10.3c-.6,0-1.3,0-1.9,0,0-.8,0-1.6,0-2.4Z"/><path class="cls-12" d="M50,76.3v2.4h-13.2c-.1-.2-.4-.2-.5-.2-1.3-.5-2.2-1.7-2.2-3.1,0-.1,0-.2,0-.4V41c0-1.5,.6-2.7,2-3.3,.4-.2,.8-.3,1.2-.3,4.2,0,8.5,0,12.7,0v2.4h0c-.1,0-.3,0-.4,0h-11.8c-.9,0-1.3,.3-1.3,1.3v34c0,.9,.3,1.3,1.3,1.3h9.2c1,0,2,0,3,0h0Z"/><path class="cls-4" d="M50,39.8c.6,0,1.3,0,1.9,0h10.3c.9,0,1.3,.4,1.3,1.2v34c0,.9-.4,1.2-1.3,1.2h-11.7c-.2,0-.3,0-.5,0h0c0-.9,0-1.7,0-2.5h3.5c.5,0,1.1-.4,1.1-.9,.2-.9-.4-1.6-1.3-1.6-1.1,0-2.2,0-3.3,0v-9.8c.8-.1,1.2-.6,1.2-1.4v-4.1c0-.8-.4-1.3-1.2-1.4,0-3.3,0-6.6,0-9.8,.6,0,1.1,0,1.7,0,.7,0,1.2-.5,1.2-1.2,0,0,0,0,0,0,0-.7-.5-1.2-1.2-1.2-.6,0-1.1,0-1.7,0,0-.8,0-1.6,0-2.5h0Zm5.9,18.3c0-1.3,0-2.6,0-3.8,0-.5-.2-.9-.6-1.2-.8-.5-1.8,0-1.8,1.1,0,.7,0,1.4,0,2.1v5.4c0,.5,.1,1,.6,1.3,.8,.5,1.8-.1,1.8-1.2,0-1.3,0-2.5,0-3.8Zm4.7,0c0-.3,0-.7,0-1,0-.7-.5-1.2-1.2-1.2,0,0,0,0,0,0-.7,0-1.2,.5-1.2,1.1,0,.7,0,1.4,0,2.1,0,.7,.6,1.2,1.3,1.1,.6,0,1.1-.6,1.1-1.2,0-.3,0-.7,0-1h0Z"/><path class="cls-1" d="M50,39.8c0,.8,0,1.6,0,2.5h0c-.5,0-1,0-1.6,0-.8,0-1.3,.5-1.3,1.2s.6,1.2,1.3,1.2c.5,0,1,0,1.6,0h0c0,3.3,0,6.6,0,9.8h0c-.8,0-1.2,.7-1.2,1.5,0,1.3,0,2.6,0,3.9,0,.8,.5,1.5,1.2,1.5h0s0,9.9,0,9.9h0c-1.1,0-2.2,0-3.3,0-.8,0-1.3,.5-1.3,1.2,0,.7,.6,1.2,1.3,1.2,1.1,0,2.2,0,3.3,0h0c0,.8,0,1.6,0,2.5-1,0-2,0-3,0h-9.2c-.9,0-1.3-.3-1.3-1.3V41.1c0-.9,.3-1.3,1.3-1.3h11.8c.1,0,.3,0,.4,0Zm-3.6,18.2v-5.4c0-.2,0-.3,0-.5-.2-.5-.8-.8-1.3-.8-.5,0-1,.6-1,1.2,0,3.6,0,7.3,0,10.9,0,.7,.5,1.2,1.2,1.2,0,0,0,0,0,0,.7,0,1.2-.6,1.1-1.3,0-1.8,0-3.6,0-5.4Zm-4.7,0v-2.2c0-.7-.5-1.3-1.2-1.3-.7,0-1.2,.6-1.2,1.3,0,1.4,0,2.9,0,4.3,0,.7,.5,1.3,1.2,1.3,.7,0,1.2-.6,1.2-1.3,0-.7,0-1.4,0-2.1Z"/><path class="cls-10" d="M55.9,58.1c0,1.3,0,2.5,0,3.8,0,1.1-1,1.7-1.8,1.2-.5-.3-.6-.8-.6-1.3v-5.4c0-.7,0-1.4,0-2.1,0-1.1,1-1.7,1.8-1.1,.4,.3,.6,.7,.6,1.2,0,1.3,0,2.6,0,3.8Z"/><path class="cls-13" d="M50,71.4c1.1,0,2.2,0,3.3,0,.9,0,1.5,.7,1.3,1.6,0,.4-.6,.8-1.1,.9h-3.5s0-2.4,0-2.4h0Z"/><path class="cls-5" d="M60.6,58.1c0,.3,0,.7,0,1,0,.7-.6,1.2-1.2,1.2-.6,0-1.1-.5-1.2-1.1,0-.7,0-1.4,0-2.1,0-.7,.6-1.1,1.2-1.1,.7,0,1.2,.5,1.2,1.2,0,0,0,0,0,0,0,.3,0,.7,0,1Z"/><path class="cls-2" d="M50,54.6c.8,.1,1.2,.6,1.2,1.4v4.1c0,.8-.4,1.3-1.2,1.4h0v-6.9h0Z"/><path class="cls-13" d="M50,42.3c.6,0,1.1,0,1.7,0,.8,0,1.2,.5,1.2,1.2,0,.7-.5,1.2-1.2,1.2,0,0,0,0,0,0-.6,0-1.1,0-1.7,0h0v-2.4s0,0,0,0Z"/><path class="cls-11" d="M46.4,58c0,1.8,0,3.6,0,5.4,0,.7-.5,1.3-1.1,1.3-.7,0-1.2-.5-1.3-1.2,0,0,0,0,0,0,0-3.6,0-7.3,0-10.9,0-.6,.5-1.2,1-1.2,.6,0,1.1,.2,1.3,.8,0,.2,0,.3,0,.5,0,1.8,0,3.6,0,5.4Z"/><path class="cls-11" d="M41.7,58.1v2.1c0,.7-.5,1.3-1.2,1.3-.7,0-1.2-.6-1.2-1.3v-4.3c0-.7,.5-1.3,1.2-1.3,.7,0,1.2,.6,1.2,1.3,0,.7,0,1.5,0,2.2Z"/><path class="cls-6" d="M50,71.4v2.4c-1.1,0-2.2,0-3.3,0-.8,0-1.3-.5-1.3-1.2,0-.7,.6-1.2,1.3-1.2,1.1,0,2.2,0,3.3,0Z"/><path class="cls-9" d="M50,54.6v6.9c-.8,0-1.2-.7-1.2-1.5,0-1.3,0-2.6,0-3.9,0-.8,.5-1.5,1.2-1.5Z"/><path class="cls-7" d="M50,42.3v2.4c-.5,0-1,0-1.6,0-.8,0-1.3-.6-1.3-1.2s.5-1.2,1.3-1.2c.5,0,1,0,1.6,0Z"/></g><path d="M48.3,44.7h5.7v25.9h-6.6v-18.9l-4.5,1.1-1.6-5.6,7-2.5Z"/></svg>