<?xml version="1.0" encoding="UTF-8"?><svg id="Layer_1" xmlns="http://www.w3.org/2000/svg" viewBox="0 0 100 100"><defs><style>.cls-1{fill:#fcfcfd;}.cls-2{fill:#3f5c6c;}.cls-3{fill:none;stroke:#c000e2;stroke-miterlimit:10;stroke-width:4px;}.cls-4{fill:#54747f;}.cls-5{fill:#364a5f;}.cls-6{fill:#3b97d2;}.cls-7{fill:#bdc3c7;}</style></defs><circle class="cls-3" cx="50" cy="50" r="45"/><g><path d="M8.5,48l.6-2.5h7.6c0-.1-6.7-3.7-6.7-3.7l.4-1.9,7.6-.3-6.8-3.4,.6-2.5,9.6,5.2-.6,2.7-6.4,.3,5.7,3.1-.6,2.7-10.9,.5Z"/><path d="M20.2,26.4l6.3,4.1-1.2,1.9-.6-.4c.2,.7,.1,1.5-.4,2.4-1.1,1.7-3.4,2.1-5.3,.9-1.9-1.2-2.5-3.5-1.4-5.2,.5-.8,1.2-1.3,2-1.4l-.6-.4,1.2-1.9Zm1.9,3.9c-.9-.6-1.9-.4-2.5,.5-.6,.9-.4,1.9,.6,2.5s1.9,.4,2.5-.5c.6-.9,.4-1.9-.6-2.5Z"/><path d="M25.6,23.9l1.9,1.9c.5,.5,.9,.1,1.6-.6l1.4,1.5c-1.9,2.3-3.1,2.2-4.6,.7l-1.9-1.9-.9,.8-1.5-1.5,.9-.8-1-1,1.1-2.1,1.5,1.5,1.1-1.1,1.5,1.5-1.1,1.1Z"/><path d="M28.5,23.3c-1.2-1.9-.7-4.2,1.2-5.5,1.2-.8,2.7-.8,3.9-.2l-1,2c-.5-.3-1.1-.3-1.7,0-.8,.5-1,1.5-.5,2.4,.6,.9,1.5,1.1,2.4,.5,.6-.4,.8-.9,.8-1.5h2.3c0,1.2-.6,2.5-1.8,3.3-1.9,1.2-4.3,.7-5.5-1.2Z"/><path d="M42.4,15.7l1.4,4.4-2.1,.7-1.3-4.1c-.3-.9-1-1.1-1.7-.9-.8,.3-1.2,.9-.8,1.9l1.3,3.9-2.1,.7-3.3-10,2.1-.7,1.2,3.5c.2-.7,.8-1.2,1.8-1.5,1.4-.5,3,.1,3.6,2.1Z"/><path d="M44.5,14.4l5.7-.4,.2,2.2-5.7,.4-.2-2.2Z"/><path d="M55.7,18.4c.6,.1,1.2,0,1.5-.3l1.6,1.3c-.9,.9-2.1,1.2-3.5,1-2.5-.4-3.8-2.4-3.4-4.6,.4-2.2,2.3-3.6,4.6-3.2,2.2,.4,3.5,2.3,3.1,4.6,0,.3-.1,.6-.2,.9l-5.2-.9c.1,.8,.8,1.2,1.6,1.3Zm1.8-2.5c0-.9-.7-1.3-1.4-1.4-.8-.1-1.5,.2-1.8,.9l3.2,.5Z"/><path d="M63.4,22.7l-.5-2.4-2.1,1.3-2.4-1,4-2.4-.9-4.4,2.4,1,.5,2.2,1.9-1.2,2.4,1-3.9,2.3,.9,4.6-2.4-1Z"/><path d="M71.3,21.4l-1.5,2.2c-.4,.5,0,.9,.9,1.4l-1.2,1.7c-2.6-1.5-2.7-2.7-1.5-4.4l1.5-2.2-1-.7,1.3-1.8,1,.7,.8-1.2,2.2,.8-1.2,1.7,1.3,.9-1.3,1.8-1.3-.9Z"/><path d="M73.9,28.5c.4,.5,.9,.7,1.4,.7l.4,2c-1.2,.1-2.4-.3-3.3-1.4-1.7-1.9-1.5-4.2,.1-5.7,1.7-1.5,4-1.5,5.6,.3,1.5,1.6,1.3,4-.4,5.5-.2,.2-.5,.4-.7,.5l-3.6-3.9c-.4,.7-.1,1.4,.4,2Zm2.9-.8c.5-.8,.3-1.5-.2-2-.6-.6-1.3-.8-2-.4l2.2,2.4Z"/><path d="M84.2,33.2l-2.2,1.3c-.3-.9-1.3-1.8-2.6-1.1l-2.9,1.7-1.1-1.9,6.5-3.8,1.1,1.9-1.2,.7c1-.2,1.9,.4,2.4,1.2Z"/><path d="M84.4,42.9l-4.4,1.4-.7-2.1,4.1-1.3c.9-.3,1.1-1,.9-1.7-.2-.8-.9-1.2-1.9-.9l-3.9,1.2-.7-2.1,7.2-2.3,.7,2.1-.7,.2c.7,.2,1.2,.8,1.5,1.8,.5,1.4-.2,3-2.1,3.6Z"/><path d="M87.9,52.6l-7.5,.2v-2.2c0,0,.6,0,.6,0-.6-.5-1-1.2-1-2.2,0-2,1.6-3.6,3.8-3.7,2.2,0,4,1.5,4.1,3.5,0,1-.3,1.8-.8,2.3h.7s0,2.2,0,2.2Zm-3.8-2.1c1.1,0,1.8-.8,1.8-1.8,0-1-.8-1.8-1.9-1.7s-1.8,.8-1.8,1.8c0,1,.8,1.8,1.9,1.7Z"/><path d="M90.9,55.8l-.4,2.2-10.8-1.8,.4-2.2,10.8,1.8Z"/></g><g><path class="cls-6" d="M59.5,75.9c-1,2.4-2.1,4.7-3.1,7.1-.4,.8-1.1,1.2-1.9,1.5h-12.7c-1.2-.4-1.9-1.2-2.4-2.4-.8-1.9-1.7-3.8-2.5-5.7,0-.1-.1-.3-.2-.5h22.9Z"/><path class="cls-5" d="M59.5,75.9h-22.9c-.7,0-1.4,0-2-.1-2.3-.5-3.8-2.4-3.8-5,0-4.4,0-8.7,0-13.1v-15.1c0-2.4,1.2-4.1,3.3-4.8,.6-.2,1.1-.2,1.7-.2,.3,0,.5,0,.8,0h22.9c.7,0,1.3,0,2,.1,2.1,.4,3.7,2.3,3.8,4.4,0,0,0,.2,0,.3,0,2.9,0,5.7,0,8.6,0,.2,0,.4,0,.6v19.2c0,2.5-1.5,4.4-3.8,4.9-.7,.1-1.3,0-2,.1Zm.6-34.5h-24.2c-1,0-1.2,.2-1.2,1.2,0,8.8,0,17.7,0,26.5-.2,.6-.2,1.1,0,1.7,.2,1,.3,1.1,1.4,1.1h24.1c1,0,1.3-.3,1.3-1.3v-27.9c0-.1,0-.3,0-.4,0-.6-.6-1-1.3-.9,0,0-.1,0-.2,0Z"/><path class="cls-6" d="M59.5,37.6h-22.9c.7-1.6,1.4-3.2,2.1-4.9,.3-.6,.5-1.3,.8-1.9,.6-1.2,1.5-1.8,2.9-1.8h11.3c1.2,0,2.1,.5,2.6,1.5,1.1,2.3,2.1,4.7,3.1,7.1Z"/><path class="cls-7" d="M65.3,51c0-2.9,0-5.7,0-8.6,.6,0,1.2,0,1.8,0,1.1-.1,2,.8,2.1,2,0,1.6,0,3.1,0,4.7,0,1.2-.9,2-2.1,2h-1.8Z"/><path class="cls-2" d="M60.1,41.5c.6-.2,1.2,.2,1.4,.8,0,0,0,.1,0,.2,0,.1,0,.3,0,.4v27.9c0,1-.3,1.3-1.3,1.3h-24.1c-1.1,0-1.2,0-1.4-1.1,0-.6-.2-1.1,0-1.7,.3-.6,.1-1.2,.2-1.9,.2-1.4,.4-2.8,.7-4.2,.4-2,1-4,1.8-5.9,1.2-2.8,2.9-5.4,5-7.6,1.5-1.6,3.3-3,5.2-4.1,3.2-1.9,6.8-3.2,10.5-3.8,.7-.1,1.3-.1,2-.3Zm-11,10.2v-4.4c0-.6-.4-1-.9-1-.6,0-1,.3-1,1,0,.1,0,.3,0,.4,0,2.9,0,5.8,0,8.8,0,.5,.2,1,.5,1.3,2.1,2,4.1,4.1,6.2,6.2,.1,.1,.3,.3,.4,.4,.4,.3,1,.2,1.3-.3,.2-.3,.2-.7,0-1-.1-.2-.3-.3-.4-.4-1.9-1.9-3.9-3.9-5.8-5.8-.2-.2-.3-.5-.3-.8,0-1.4,0-2.9,0-4.3Z"/><path class="cls-4" d="M60.1,41.5c-.6,.2-1.3,.2-2,.3-3.7,.6-7.3,1.9-10.5,3.8-1.9,1.1-3.7,2.5-5.2,4.1-2.1,2.2-3.8,4.8-5,7.6-.8,1.9-1.4,3.9-1.8,5.9-.3,1.4-.5,2.8-.7,4.2,0,.6,0,1.3-.2,1.9v-26.5c0-1,.2-1.2,1.2-1.2h24.2Z"/><path class="cls-1" d="M49,51.6c0,1.4,0,2.9,0,4.3,0,.3,.1,.6,.3,.8,1.9,1.9,3.9,3.9,5.8,5.8,.1,.1,.3,.3,.4,.4,.3,.4,.2,1-.3,1.3-.3,.2-.7,.2-1,0-.2-.1-.3-.2-.4-.4-2.1-2.1-4.1-4.1-6.2-6.2-.4-.3-.6-.8-.5-1.3,0-2.9,0-5.8,0-8.8s0-.3,0-.4c0-.6,.4-1,1-1,.5,0,.9,.4,.9,1,0,1.2,0,2.5,0,3.7v.7Z"/></g></svg>