<?xml version="1.0" encoding="UTF-8"?><svg id="Layer_1" xmlns="http://www.w3.org/2000/svg" viewBox="0 0 100 100"><defs><style>.cls-1{fill:#cbcbcb;}.cls-2{fill:#f2a745;}.cls-3{fill:none;stroke:#c000e2;stroke-miterlimit:10;stroke-width:4px;}.cls-4{fill:#6bc048;}.cls-5{fill:#f0f1ef;}.cls-6{fill:#f0f1f0;}.cls-7{fill:#f1f1f1;}.cls-8{fill:#edcd67;}.cls-9{fill:#559a38;}.cls-10{fill:#edcb61;}</style></defs><circle class="cls-3" cx="50" cy="50" r="45"/><path d="m7.7,52.3l.5-2.6,8.1-.6-7.4-3.4.3-2,8.1-.8-7.4-3.2.5-2.6,10.5,4.9-.5,2.9-6.8.7,6.2,2.9-.5,2.9-11.6,1.2Z"/><path d="m19,28.6l6.9,4.1-1.2,2.1-.6-.4c.3.8.2,1.6-.4,2.5-1.1,1.8-3.5,2.4-5.6,1.1-2.1-1.2-2.8-3.6-1.7-5.4.5-.9,1.3-1.4,2.1-1.6l-.6-.4,1.2-2.1Zm2.2,4.1c-1-.6-2.1-.3-2.6.6-.6,1-.3,2,.7,2.6,1,.6,2.1.3,2.6-.6.6-1,.3-2-.7-2.6Z"/><path d="m24.8,25.8l2,2c.5.5,1,.1,1.6-.7l1.6,1.5c-2,2.5-3.3,2.5-4.9.9l-2-2-.9.9-1.6-1.6.9-.9-1.1-1.1,1.2-2.2,1.6,1.6,1.2-1.2,1.6,1.6-1.2,1.2Z"/><path d="m27.9,25c-1.3-2-.8-4.5,1.2-5.9,1.3-.9,2.9-.9,4.1-.3l-1.1,2.2c-.5-.3-1.2-.3-1.8.1-.9.6-1.1,1.6-.5,2.5.6.9,1.7,1.1,2.5.5.6-.4.9-1,.8-1.6l2.4-.2c.1,1.4-.6,2.9-1.9,3.7-2,1.3-4.5.8-5.9-1.2Z"/><path d="m42.7,16.9l1.5,4.7-2.3.7-1.4-4.3c-.3-.9-1-1.2-1.8-1-.8.3-1.3,1-.9,2l1.4,4.2-2.3.7-3.5-10.6,2.3-.7,1.2,3.8c.2-.7.9-1.3,1.9-1.6,1.5-.5,3.2.2,3.9,2.2Z"/><path d="m44.9,15.6l6.1-.3v2.3c.1,0-5.9.3-5.9.3v-2.3Z"/><path d="m53.7,13.4l2.4.3-1,7.9-2.4-.3,1-7.9Zm0-2.2c.1-.8.8-1.3,1.6-1.2.8,0,1.3.8,1.2,1.6,0,.8-.8,1.3-1.6,1.2s-1.3-.8-1.2-1.6Z"/><path d="m65.1,19.5l-1.6,4.6-2.3-.8,1.5-4.3c.3-.9-.1-1.6-.8-1.8-.8-.3-1.6,0-1.9,1.1l-1.4,4.1-2.3-.8,2.6-7.6,2.3.8-.2.7c.6-.4,1.5-.5,2.5-.2,1.5.5,2.5,2.1,1.7,4.1Z"/><path d="m70,21.6l-1.5,2.4c-.4.6,0,1,1,1.5l-1.2,1.8c-2.8-1.4-3.1-2.7-1.9-4.6l1.5-2.4-1.1-.7,1.2-1.9,1.1.7.8-1.3,2.4.7-1.2,1.9,1.4.9-1.2,1.9-1.4-.9Z"/><path d="m73.1,29.1c.5.5,1,.7,1.5.7l.6,2.1c-1.3.2-2.6-.2-3.6-1.3-1.9-1.9-1.8-4.4-.1-6.1,1.7-1.7,4.2-1.7,6,0,1.6,1.7,1.6,4.2-.1,5.9-.2.2-.5.4-.7.6l-4-4c-.4.8,0,1.5.6,2.2Zm3.1-1c.5-.8.2-1.6-.3-2.1-.6-.6-1.4-.8-2.1-.3l2.4,2.4Z"/><path d="m84.2,33.7l-2.3,1.4c-.4-.9-1.5-1.9-2.8-1.1l-3.1,1.9-1.3-2,6.8-4.2,1.3,2-1.2.7c1.1-.3,2.1.4,2.6,1.2Z"/><path d="m84.6,44.2l-4.7,1.5-.8-2.3,4.3-1.4c.9-.3,1.2-1.1.9-1.8-.3-.8-1-1.2-2-.9l-4.1,1.4-.8-2.3,7.6-2.5.8,2.3-.7.2c.7.2,1.3.9,1.6,1.9.5,1.5-.2,3.2-2.2,3.9Z"/><path d="m88.4,54.5l-8,.3v-2.4c0,0,.7,0,.7,0-.6-.5-1-1.3-1.1-2.4,0-2.1,1.7-3.9,4.1-4,2.4,0,4.3,1.6,4.3,3.7,0,1.1-.3,1.9-.9,2.4h.8s0,2.4,0,2.4Zm-4.1-2.3c1.2,0,1.9-.9,1.9-2s-.8-1.9-2-1.8c-1.2,0-1.9.9-1.9,2s.8,1.9,2,1.8Z"/><path d="m91.5,58.1l-.4,2.4-11.5-2.1.4-2.4,11.5,2.1Z"/><path class="cls-4" d="m24,73.7c0-.2,0-.4,0-.5,0-9.4,0-18.9,0-28.3,0-.5.2-.6.7-.6,1.5,0,3,0,4.5,0v1.7c0,0,0,.2,0,.3,0,.5,0,.6.6.6.8,0,1.6,0,2.4,0,.4,0,.5,0,.5-.5,0-.7,0-1.4,0-2.1h3.4c0,.6,0,1.2,0,1.7,0,0,0,.2,0,.3,0,.5,0,.6.6.6.8,0,1.6,0,2.4,0,.4,0,.5,0,.5-.5,0-.7,0-1.4,0-2.1h3.4v1.7c0,0,0,.2,0,.3,0,.5,0,.6.6.6.8,0,1.6,0,2.4,0,.4,0,.5,0,.5-.5,0-.7,0-1.4,0-2.1h7.8c0,1.3,0,2.6,0,4,0,.4,0,.6-.4.8-1,.6-1.5,1.8-1.2,2.9.4,1.4,1.8,2.2,3.2,1.8,1.4-.4,2.2-1.8,1.8-3.2-.2-.7-.6-1.2-1.2-1.6-.2-.1-.4-.2-.4-.6,0-1.4,0-2.7,0-4.1h3.4c0,2.7,0,5.5,0,8.2,0,.5.2,1,.5,1.3,1.8,1.8,3.6,3.6,5.4,5.4.3.3.3.5.2.8-.5,1.6.8,3.2,2.4,3.3,1.2,0,2.1-.6,2.6-2.1v7.3c-.3,0-.5,0-.8,0q-.9,0-.9.9h-3.4c0,0,0-.2,0-.3,0-.5,0-.6-.6-.6-.8,0-1.6,0-2.4,0-.3,0-.5,0-.5.4,0,.9,0,1.7,0,2.6,0,.4.1.5.5.4.7,0,1.4,0,2.2,0s.8,0,.8-.9h3.5q0,.9.9.9c.2,0,.4,0,.6,0-.2.9-1.3,1.7-2.3,1.7-3.5,0-6.9,0-10.4,0,0-1.1-.5-1.9-1.5-2.3-.3-.1-.3-.3-.3-.5v-3.9c0-.7-.3-1-1-1-2.8,0-5.7,0-8.5,0v-1.8c3.3,0,6.7,0,10,0,.4,0,.6,0,.8.4.5,1,1.8,1.5,2.9,1.2,1.4-.4,2.2-1.8,1.8-3.2-.2-.9-1-1.6-1.9-1.8-1.1-.3-2.3.2-2.9,1.2-.2.4-.4.4-.8.4h-10v-1.7c1,0,2,0,3,0,1.4,0,1.4,0,1.3-1.4,0-.3-.1-.4-.4-.4-1.3,0-2.6,0-3.9,0v-1.8c1,0,2,0,3,0,1.4,0,1.4,0,1.3-1.4,0-.3-.1-.4-.4-.4-1.3,0-2.6,0-3.9,0,0-.5,0-.9,0-1.4,0-.3,0-.4-.3-.4-.5,0-.9,0-1.4,0,0-1,0-2,0-3,0-1.4,0-1.4-1.4-1.3-.3,0-.4.1-.4.4,0,1.3,0,2.6,0,4h-1.8c0-1,0-2,0-3,0-1.4,0-1.4-1.4-1.3-.3,0-.4.1-.4.4,0,1.3,0,2.6,0,4h-1.8c0-1,0-2,0-3,0-1.4,0-1.4-1.4-1.3-.3,0-.4.1-.4.4,0,1.3,0,2.6,0,4h-1.8c0-1,0-2,0-3,0-1.4,0-1.4-1.4-1.3-.3,0-.4.1-.4.4,0,1.3,0,2.6,0,4-.5,0-.9,0-1.4,0-.3,0-.4,0-.3.4,0,.5,0,.9,0,1.4-1,0-2,0-3,0-1.4,0-1.4,0-1.3,1.4,0,.3.1.4.4.4,1.3,0,2.6,0,3.9,0v1.8c-1,0-2,0-3,0-1.4,0-1.4,0-1.3,1.4,0,.3.1.4.4.4,1.3,0,2.6,0,3.9,0v1.8c-1,0-2,0-3,0-1.4,0-1.4,0-1.3,1.4,0,.3.1.4.4.4,1.3,0,2.6,0,3.9,0v1.8c-1,0-2,0-3,0-1.4,0-1.4,0-1.3,1.4,0,.3.1.4.4.4,1.3,0,2.6,0,3.9,0,0,.5,0,.9,0,1.4,0,.3,0,.4.3.4.5,0,.9,0,1.4,0v4.3h-8.7Z"/><path class="cls-9" d="m24,73.7h8.7s12.1,0,12.1,0h7.8c0,.5.2,1,.5,1.5.6.9,1.7,1.3,2.8,1.1,1.2-.3,1.8-1.2,2-2.5,3.5,0,6.9,0,10.4,0,1.1,0,2.1-.8,2.3-1.7.5,0,1,0,1.6,0,.3,0,.4,0,.4-.4,0-.9,0-1.8,0-2.8,0-.3-.1-.4-.4-.4-.4,0-.9,0-1.4,0v-7.3c0-.3,0-.7,0-1s0-.2,0-.3v-14.6c0-.2,0-.3,0-.5,0-.5,0-.6.6-.6,1.4,0,2.7,0,4.1,0,.5,0,.6,0,.6.6,0,5.8,0,11.7,0,17.5s0,10.6,0,16c0,.5-.1.6-.6.6-1.4,0-2.8,0-4.2,0-.3,0-.4,0-.4-.4-.3-1.8-1.7-3.1-3.5-3.1s-3.2,1.3-3.4,3.1c0,.3-.1.4-.4.3,0,0-.1,0-.2,0-12.9,0-25.8,0-38.6,0-.5,0-.6,0-.6-.6,0-1.5,0-3.1,0-4.6Z"/><path class="cls-4" d="m70.8,44.8c0,.2,0,.3,0,.5v14.6c0,.1,0,.2,0,.3-.7-1.8-1.5-2.2-3.5-1.9-.2,0-.3,0-.5-.2-1.8-1.8-3.5-3.5-5.3-5.3-.2-.1-.3-.3-.3-.6,0-2.7,0-5.3,0-8,.6,0,1.3,0,1.9,0,.5,0,.7.1.7.6.2,1.3,1,2.2,2.2,2.6,1.8.7,3.7-.3,4.4-2,0,0,0,0,0-.1,0-.2.1-.3.2-.5Z"/><path class="cls-5" d="m61.3,44.3c0,2.7,0,5.3,0,8,0,.2.1.4.3.6,1.8,1.8,3.5,3.5,5.3,5.3.1.1.2.3.5.2,2-.4,2.8.1,3.5,1.9v1c-.6,1.4-1.4,2.1-2.6,2.1-1.7,0-2.9-1.7-2.4-3.3.1-.4,0-.6-.2-.8-1.8-1.8-3.6-3.6-5.4-5.4-.4-.3-.6-.8-.5-1.3,0-2.7,0-5.5,0-8.2h1.8Zm6.9,17.3c.5,0,.9-.4.9-.8s-.4-.9-.8-.9c-.5,0-.9.4-.9.8,0,0,0,0,0,0,0,.5.4.9.8.9Z"/><path class="cls-6" d="m56.1,44.3c0,1.4,0,2.7,0,4.1,0,.4.2.4.4.6,1.2.7,1.7,2.3,1,3.5-.7,1.2-2.3,1.7-3.5,1-.6-.3-1-.9-1.2-1.6-.3-1.1.2-2.3,1.2-2.9.4-.2.4-.4.4-.8,0-1.3,0-2.6,0-3.9h1.8Zm-.9,6.1c-.5,0-.9.4-.9.9,0,.5.4.9.9.9.5,0,.9-.4.9-.9,0,0,0,0,0,0,0-.5-.4-.9-.9-.9h0Z"/><path class="cls-10" d="m29.2,46v-1.7c0-.7,0-1.5,0-2.2,0-.3,0-.4.4-.4.7,0,1.5,0,2.2,0,0,1.1,0,2.2,0,3.3,0,.6-.3,1-1,1-.5,0-1.1,0-1.6,0Z"/><path class="cls-10" d="m36.2,46c0-.6,0-1.2,0-1.7,0-.7,0-1.5,0-2.2,0-.3,0-.4.4-.4.7,0,1.5,0,2.2,0v3.3c0,.6-.3,1-1,1-.5,0-1.1,0-1.6,0Z"/><path class="cls-10" d="m43.1,46v-1.7c0-.7,0-1.5,0-2.2,0-.3.1-.4.4-.4.7,0,1.5,0,2.2,0v3.3c0,.6-.3,1-1,1-.5,0-1.1,0-1.6,0Z"/><path class="cls-2" d="m36.2,46h1.6c.6,0,1-.3,1-1,0-1.1,0-2.2,0-3.3,0,0,0,0,.1,0q.8,0,.8.7c0,.6,0,1.3,0,1.9,0,.7,0,1.4,0,2.1,0,.4-.1.5-.5.5-.8,0-1.6,0-2.4,0-.5,0-.6-.2-.6-.6,0,0,0-.2,0-.3Z"/><path class="cls-2" d="m29.2,46h1.6c.6,0,1-.3,1-1,0-1.1,0-2.2,0-3.3,0,0,0,0,.1,0q.8,0,.8.7c0,.6,0,1.3,0,1.9,0,.7,0,1.4,0,2.1,0,.4-.1.5-.5.5-.8,0-1.6,0-2.4,0-.5,0-.6-.2-.6-.6,0,0,0-.2,0-.3Z"/><path class="cls-2" d="m43.1,46h1.6c.6,0,1-.3,1-1v-3.3s0,0,.1,0q.8,0,.8.7c0,.6,0,1.3,0,1.9,0,.7,0,1.4,0,2.1,0,.4-.1.5-.5.5-.8,0-1.6,0-2.4,0-.5,0-.6-.2-.6-.6,0,0,0-.2,0-.3Z"/><path class="cls-9" d="m44.8,53.8c.5,0,.9,0,1.4,0,.3,0,.4,0,.3.4,0,.5,0,.9,0,1.4v12.1c0,.5,0,.9,0,1.4,0,.3,0,.4-.3.4-.5,0-.9,0-1.4,0h-12.1c-.5,0-.9,0-1.4,0-.3,0-.4,0-.3-.4,0-.5,0-.9,0-1.4v-12.1c0-.5,0-.9,0-1.4,0-.3,0-.4.3-.4.5,0,.9,0,1.4,0h12.1Zm-10.4,10.4c0,.4,0,.9,0,1.3,0,.4.1.4.5.4,2.6,0,5.1,0,7.7,0,.4,0,.5-.1.5-.5,0-2.2,0-4.4,0-6.5,0-.5.2-1.2-.1-1.6s-1.1,0-1.6,0c-2.2,0-4.4,0-6.5,0-.3,0-.4,0-.4.4,0,2.2,0,4.4,0,6.5Z"/><path class="cls-6" d="m46.5,67.6v-1.7c2.8,0,5.7,0,8.5,0,.7,0,1,.3,1,1,0,1.3,0,2.6,0,3.9s0,.4.3.5c1,.5,1.4,1.3,1.5,2.3-.1,1.3-.8,2.2-2,2.5-1.1.3-2.2-.1-2.8-1.1-.3-.4-.4-.9-.5-1.5,0-1.1.5-1.9,1.5-2.3.2-.1.3-.3.3-.5,0-.9,0-1.8,0-2.6,0-.5,0-.6-.6-.6-2.4,0-4.8,0-7.2,0Zm9.5,6.1c0-.5-.4-.9-.9-.9-.5,0-.9.4-.9.9,0,.5.4.9.9.9,0,0,0,0,0,0,.5,0,.8-.4.8-.9h0Z"/><path class="cls-6" d="m46.5,64.2v-1.7c3.3,0,6.7,0,10,0,.4,0,.6,0,.8-.4.6-1,1.7-1.5,2.9-1.2,1.4.3,2.2,1.7,1.9,3.1-.2.9-.9,1.6-1.8,1.9-1.2.3-2.4-.2-2.9-1.2-.2-.4-.4-.4-.8-.4-3.3,0-6.7,0-10,0Zm13-1.7c-.5,0-.9.4-.9.9,0,.5.4.9.9.9.5,0,.9-.4.9-.9,0,0,0,0,0,0,0-.5-.4-.8-.9-.8h0Z"/><path class="cls-1" d="m65.6,71.1q0,.9-.8.9c-.7,0-1.4,0-2.2,0-.3,0-.5,0-.5-.4,0-.9,0-1.7,0-2.6,0-.4.1-.5.5-.4.8,0,1.6,0,2.4,0,.5,0,.7.1.6.6,0,0,0,.2,0,.3v1.7Z"/><path class="cls-1" d="m70.8,68.5c.5,0,.9,0,1.4,0,.3,0,.4,0,.4.4,0,.9,0,1.8,0,2.8,0,.3-.1.4-.4.4-.5,0-1,0-1.6,0-.2,0-.4,0-.6,0q-.9,0-.9-.9v-1.7q0-.9.9-.9c.3,0,.6,0,.9,0Z"/><path class="cls-7" d="m44.8,53.8h-1.7c0-1.3,0-2.6,0-4,0-.3,0-.4.4-.4,1.4,0,1.4,0,1.4,1.3,0,1,0,2,0,3Z"/><path class="cls-7" d="m30.9,55.5v1.7c-1.3,0-2.6,0-3.9,0-.3,0-.4,0-.4-.4,0-1.4,0-1.4,1.3-1.4,1,0,2,0,3,0Z"/><path class="cls-7" d="m46.5,57.2v-1.7c1.3,0,2.6,0,3.9,0,.3,0,.4,0,.4.4,0,1.4,0,1.4-1.3,1.4-1,0-2,0-3,0Z"/><path class="cls-7" d="m30.9,59v1.7c-1.3,0-2.6,0-3.9,0-.3,0-.4,0-.4-.4,0-1.4,0-1.4,1.3-1.4,1,0,2,0,3,0Z"/><path class="cls-7" d="m46.5,60.7v-1.7c1.3,0,2.6,0,3.9,0,.3,0,.4,0,.4.4,0,1.4,0,1.4-1.3,1.4-1,0-2,0-3,0Z"/><path class="cls-7" d="m30.9,62.5v1.7c-1.3,0-2.6,0-3.9,0-.3,0-.4,0-.4-.4,0-1.4,0-1.4,1.3-1.4,1,0,2,0,3,0Z"/><path class="cls-7" d="m30.9,65.9v1.7c-1.3,0-2.6,0-3.9,0-.3,0-.4,0-.4-.4,0-1.4,0-1.4,1.3-1.4,1,0,2,0,3,0Z"/><path class="cls-7" d="m34.4,53.8h-1.7c0-1.3,0-2.6,0-4,0-.3,0-.4.4-.4,1.4,0,1.4,0,1.4,1.3,0,1,0,2,0,3Z"/><path class="cls-7" d="m37.9,53.8h-1.7c0-1.3,0-2.6,0-4,0-.3,0-.4.4-.4,1.4,0,1.4,0,1.4,1.3,0,1,0,2,0,3Z"/><path class="cls-7" d="m32.7,69.4h1.7v4.3h-1.7v-4.3Z"/><path class="cls-7" d="m41.3,53.8h-1.7c0-1.3,0-2.6,0-4,0-.3,0-.4.4-.4,1.4,0,1.4,0,1.4,1.3,0,1,0,2,0,3Z"/><path class="cls-7" d="m69.1,69.4v1.7h-3.5v-1.7h3.5Z"/><path class="cls-4" d="m46.5,67.6c2.4,0,4.8,0,7.2,0,.5,0,.6.2.6.6,0,.9,0,1.8,0,2.6,0,.2,0,.4-.3.5-1,.5-1.4,1.3-1.5,2.3h-7.8v-4.3c.5,0,.9,0,1.4,0,.3,0,.4,0,.3-.4,0-.5,0-.9,0-1.4Z"/><path class="cls-4" d="m34.4,73.7v-4.3h1.8v4.3h-1.8Z"/><path class="cls-7" d="m36.2,73.7v-4.3h1.7v4.3h-1.7Z"/><path class="cls-4" d="m37.9,73.7v-4.3h1.8v4.3h-1.8Z"/><path class="cls-7" d="m39.6,73.7v-4.3h1.7v4.3h-1.7Z"/><path class="cls-7" d="m44.8,69.4v4.3h-1.7v-4.3h1.7Z"/><path class="cls-4" d="m43.1,69.4v4.3h-1.8v-4.3h1.8Z"/><path class="cls-8" d="m68.2,61.6c-.5,0-.9-.4-.9-.9,0-.5.4-.9.9-.9.5,0,.9.4.9.9,0,0,0,0,0,0,0,.5-.4.8-.9.8Z"/><path class="cls-8" d="m55.2,50.3c.5,0,.9.4.9.9,0,.5-.4.9-.9.9-.5,0-.9-.4-.9-.9,0,0,0,0,0,0,0-.5.4-.9.9-.8,0,0,0,0,0,0Z"/><path class="cls-10" d="m34.4,64.2c0-2.2,0-4.4,0-6.5,0-.3,0-.4.4-.4,2.2,0,4.4,0,6.5,0v4.1c0,1.7-1.1,2.8-2.8,2.8h-4.1Z"/><path class="cls-2" d="m34.4,64.2h4.1c1.7,0,2.8-1.1,2.8-2.8v-4.1c.6,0,1.3-.2,1.6,0s.1,1,.1,1.6c0,2.2,0,4.4,0,6.5,0,.4-.1.5-.5.5-2.6,0-5.1,0-7.7,0-.3,0-.5,0-.5-.4,0-.4,0-.9,0-1.3Z"/><path class="cls-8" d="m56.1,73.7c0,.5-.4.9-.8.9-.5,0-.9-.4-.9-.8,0-.5.4-.9.8-.9,0,0,0,0,0,0,.5,0,.9.4.9.8Z"/><path class="cls-8" d="m59.5,62.4c.5,0,.9.4.9.9,0,.5-.4.9-.9.9-.5,0-.9-.4-.9-.9,0,0,0,0,0,0,0-.5.4-.9.9-.9Z"/></svg>