<?xml version="1.0" encoding="UTF-8"?><svg id="Layer_1" xmlns="http://www.w3.org/2000/svg" viewBox="0 0 100 100"><defs><style>.cls-1{fill:#68d4f0;}.cls-2{fill:none;stroke:#c000e2;stroke-miterlimit:10;stroke-width:4px;}.cls-3{fill:#f66c82;}.cls-4{fill:#636c77;}.cls-5{fill:#fbcc57;}.cls-6{fill:#c5deea;}.cls-7{fill:#c3dbe6;}.cls-8{fill:#69d4f0;}</style></defs><circle class="cls-2" cx="50" cy="50" r="45"/><path d="m9.5,50.2l.6-2.5h7.6c0-.1-6.7-3.7-6.7-3.7l.4-1.9,7.6-.3-6.8-3.4.6-2.5,9.6,5.2-.6,2.7-6.4.3,5.7,3.1-.6,2.7-10.9.5Z"/><path d="m21.1,28.5l6.3,4.1-1.2,1.9-.6-.4c.2.7.1,1.5-.4,2.4-1.1,1.7-3.4,2.1-5.3.9-1.9-1.2-2.5-3.5-1.4-5.2.5-.8,1.2-1.3,2-1.4l-.6-.4,1.2-1.9Zm1.9,3.9c-.9-.6-1.9-.4-2.5.5s-.4,1.9.6,2.5,1.9.4,2.5-.5c.6-.9.4-1.9-.6-2.5Z"/><path d="m26.6,26.1l1.9,1.9c.5.5.9.1,1.6-.6l1.4,1.5c-1.9,2.3-3.1,2.2-4.6.7l-1.9-1.9-.9.8-1.5-1.5.9-.8-1-1,1.1-2.1,1.5,1.5,1.1-1.1,1.5,1.5-1.1,1.1Z"/><path d="m29.5,25.4c-1.2-1.9-.7-4.2,1.2-5.5,1.2-.8,2.7-.8,3.9-.2l-1,2c-.5-.3-1.1-.3-1.7,0-.8.5-1,1.5-.5,2.4.6.9,1.5,1.1,2.4.5.6-.4.9-.9.8-1.5h2.3c0,1.2-.6,2.5-1.8,3.3-1.9,1.2-4.3.7-5.5-1.2Z"/><path d="m43.4,17.9l1.4,4.4-2.1.7-1.3-4.1c-.3-.9-1-1.1-1.7-.9-.8.3-1.2.9-.8,1.9l1.3,3.9-2.1.7-3.3-10,2.1-.7,1.2,3.5c.2-.7.8-1.2,1.7-1.5,1.4-.5,3,.1,3.6,2.1Z"/><path d="m45.4,16.6l5.7-.4.2,2.2-5.7.4-.2-2.2Z"/><path d="m52.5,19.3l2.2-.8c.2.9.8,1.6,1.9,1.8,1.1.2,1.5-.2,1.5-.6.1-.6-.4-1-1.9-1.7-1.5-.7-2.8-1.7-2.5-3.7.3-2,2.2-2.9,4-2.6,1.7.3,2.9,1.3,3.4,3l-2.2.8c-.2-.8-.6-1.3-1.6-1.5-.7-.1-1.2.2-1.2.6,0,.5.1.8,1.6,1.6,1.5.7,3.2,1.6,2.8,3.8-.3,2-2.1,2.9-4.4,2.5-2.2-.4-3.4-1.6-3.7-3.3Z"/><path d="m64.9,23.2c.6.3,1.1.3,1.5,0l1.2,1.7c-1.1.6-2.3.6-3.6,0-2.3-1.1-3-3.3-2.1-5.4,1-2,3.2-2.9,5.3-1.9,2,.9,2.7,3.2,1.8,5.2-.1.3-.3.5-.5.8l-4.8-2.3c0,.8.4,1.4,1.2,1.7Zm2.4-1.9c.2-.9-.3-1.5-.9-1.8-.8-.4-1.5-.2-2,.4l2.9,1.4Z"/><path d="m76.4,28l-3,3.5-1.7-1.5,2.8-3.3c.6-.7.4-1.4-.1-1.9-.6-.5-1.4-.5-2.1.3l-2.7,3.1-1.7-1.5,4.9-5.7,1.7,1.5-.5.5c.7-.2,1.5,0,2.2.7,1.2,1,1.4,2.6.1,4.2Z"/><path d="m79.2,35.6c-1.4,1-2.9.2-3.8-1.1-.9-1.2-1.1-2.5-.4-3.7l2,.9c-.3.5-.4,1,0,1.6.3.4.6.6.9.4.7-.5-1.9-3.2.3-4.7,1.3-1,2.8-.3,3.7.9.7,1,.9,2.2.4,3.3l-2-.9c.2-.4.2-.8,0-1.2-.2-.3-.5-.4-.7-.3-.7.5,1.9,3.2-.3,4.8Z"/><path d="m81,35.6c2.1-.9,4.3.1,5.2,2.2s0,4.3-2.1,5.2c-2.1.8-4.3-.1-5.2-2.2-.8-2,0-4.3,2.1-5.2Zm2.2,5.3c1-.4,1.4-1.4,1-2.3-.4-.9-1.3-1.3-2.3-.9-1,.4-1.4,1.4-1,2.3s1.3,1.3,2.3.9Z"/><path d="m88.8,48.2l-2.5.4c0-.9-.6-2.2-2.1-1.9l-3.3.6-.4-2.2,7.4-1.3.4,2.2-1.3.2c1,.1,1.7,1,1.8,2Z"/><path d="m83.5,55.8c-1.7,0-2.4-1.5-2.4-3.2,0-1.5.6-2.6,1.8-3.2l1.1,2c-.6.2-.9.6-.9,1.3,0,.5.2.8.5.8.8,0,.5-3.7,3-3.6,1.6,0,2.4,1.4,2.4,3,0,1.2-.6,2.3-1.7,2.9l-1-1.9c.4-.2.7-.5.7-1,0-.4-.1-.6-.4-.6-.9,0-.3,3.7-3.1,3.6Z"/><path class="cls-4" d="m53.2,45.9h4.6c1.8,0,2.9,1.2,2.9,2.9,0,1.7,0,3.3,0,5,0,2,0,4,0,6,0,1.5,0,2.9,0,4.4,0,2.1-1.1,3.2-3.1,3.2s-3.2,0-4.7,0h-6c-1.5,0-3,0-4.4,0-2,0-3.1-1.1-3.1-3.1,0-1.6,0-3.2,0-4.7v-6c0-1.5,0-2.9,0-4.4,0-2.1,1.1-3.2,3.1-3.2s3.2,0,4.7,0h6Zm1,6.1c0-.5,0-.9,0-1.4,0-.4-.4-.6-.8-.6-.4,0-.7.3-.8.6,0,.4,0,.7,0,1.1h-1.7c0-.3,0-.6,0-.9,0-.5-.4-.8-.8-.8-.4,0-.8.4-.8.8,0,.3,0,.6,0,.9h-1.7c0-.3,0-.6,0-.9,0-.5-.3-.8-.8-.8s-.8.3-.8.8c0,.4,0,.8,0,1.2l-.5.5c-.4,0-.7,0-1.1,0-.6,0-.9.4-.9.8s.4.8.9.8c.3,0,.5,0,.8,0v1.7c-.3,0-.6,0-.9,0-.4,0-.8.3-.8.8,0,.4.3.8.8.8.3,0,.6,0,.9,0v1.7c-.3,0-.6,0-.8,0-.5,0-.8.3-.8.8,0,.4.3.8.8.8.4,0,.8,0,1.2,0l.5.5c0,.4,0,.9,0,1.3,0,.4.4.7.8.7.4,0,.7-.3.8-.7,0-.3,0-.7,0-1h1.7c0,.3,0,.6,0,.9,0,.4.3.8.8.8.4,0,.8-.3.8-.8,0-.3,0-.6,0-.9h1.7c0,.3,0,.6,0,.9,0,.5.3.8.8.8s.8-.3.8-.8c0-.4,0-.8,0-1.2l.5-.5c.4,0,.8,0,1.2,0,.5,0,.9-.4.8-.8,0-.5-.4-.8-.8-.8-.3,0-.6,0-.8,0v-1.7c.3,0,.6,0,.9,0,.4,0,.8-.3.8-.8,0-.4-.3-.8-.8-.8-.3,0-.6,0-.9,0v-1.7c.3,0,.5,0,.8,0,.5,0,.9-.4.9-.8s-.3-.8-.9-.8c-.4,0-.7,0-1.1,0l-.5-.5Z"/><path class="cls-1" d="m27.2,48.1c0,.3-.2.5-.3.7-2.1,2.2-3.2,4.9-3.2,8,0,3,1.1,5.5,3.2,7.7.3.3.5.6.3,1.1-.2.5-.9.6-1.4.1-1.3-1.3-2.3-2.8-2.8-4.5-1.7-5-.8-9.4,2.7-13.3.1-.1.3-.3.4-.4.2-.2.6-.2.8,0,.3.1.4.4.4.7Z"/><path class="cls-1" d="m58.5,33.8c-.3,0-.5-.2-.7-.4-2.3-2.1-5-3.2-8.1-3.1-2.9,0-5.4,1.2-7.6,3.2-.5.5-1,.5-1.3,0s-.2-.8.2-1.1c1.4-1.3,2.9-2.3,4.7-2.9,4.9-1.6,9.3-.6,13.2,2.8.2.1.3.3.4.5.3.5-.1,1.1-.7,1.1Z"/><path class="cls-1" d="m77.9,56.6c0,3.4-1.2,6.3-3.5,8.9,0,0-.2.2-.2.2-.4.3-.8.3-1.1,0s-.3-.8,0-1.1c.7-.7,1.3-1.5,1.8-2.4,2.5-4.5,1.8-9.6-1.7-13.4-.3-.3-.5-.7-.2-1.1.3-.5.9-.5,1.3,0,1.5,1.6,2.6,3.5,3.2,5.6.3,1.1.5,2.2.5,3.4Z"/><path class="cls-1" d="m50,84.5c-3.4,0-6.3-1.2-8.8-3.5,0,0-.2-.2-.2-.2-.4-.4-.4-.8,0-1.2s.8-.3,1.2,0c.7.7,1.5,1.3,2.3,1.8,4.5,2.5,9.6,1.9,13.4-1.7.3-.3.7-.5,1.1-.3.5.3.6.9,0,1.4-1.6,1.5-3.5,2.6-5.6,3.2-1.1.3-2.2.5-3.4.5Z"/><path class="cls-1" d="m50.3,80.7c-2.7,0-4.8-.9-6.6-2.5-.3-.3-.5-.7-.2-1.1.3-.5.9-.5,1.3,0,2.8,2.7,7.2,2.7,10.2.2,0,0,.1-.1.2-.2.4-.4.9-.4,1.2,0,.4.4.3.8,0,1.2-1,1-2.3,1.8-3.6,2.2-.9.3-1.8.4-2.4.4Z"/><path class="cls-1" d="m49.6,32.5c2.9,0,4.9.9,6.7,2.5.5.5.5.9.2,1.3-.4.4-.8.3-1.3-.1-2.9-2.7-7.4-2.7-10.2,0-.5.5-.9.5-1.3.1s-.3-.8.1-1.2c1.4-1.4,3.7-2.6,5.8-2.5Z"/><path class="cls-1" d="m25.9,56.6c0-2.3.9-4.5,2.4-6.2.5-.5.9-.6,1.3-.2.4.4.3.8-.2,1.3-2.7,2.9-2.7,7.3,0,10.2.3.3.5.7.3,1.1-.3.5-.9.5-1.3,0-1.3-1.3-2.1-2.9-2.4-4.6-.1-.6-.1-1.1-.1-1.7Z"/><path class="cls-1" d="m74.1,56.7c0,2.4-.8,4.4-2.5,6.2-.5.5-.9.6-1.3.2s-.3-.8.1-1.3c2.7-3,2.7-7.3,0-10.3-.4-.5-.5-.9-.1-1.2.4-.4.8-.3,1.3.1,1.6,1.6,2.5,3.9,2.5,6.3Z"/><path class="cls-3" d="m46.8,67.4h6c0,.7,0,1.4,0,2,0,1.1-.9,2-2,2-.7,0-1.4,0-2.1,0-1.1,0-2-.9-2-2,0-.7,0-1.4,0-2Z"/><path class="cls-3" d="m53.2,45.9h-6c0-.7,0-1.4,0-2,0-1.1.9-2,2-2,.7,0,1.4,0,2.1,0,1.1,0,2,.9,2,2,0,.7,0,1.4,0,2Z"/><path class="cls-3" d="m39.3,53.4c0,2,0,4,0,6-.7,0-1.4,0-2,0-1.1,0-2-.9-2-2,0-.7,0-1.4,0-2.1,0-1.1.9-2,2-2,.7,0,1.4,0,2,0Z"/><path class="cls-3" d="m60.8,59.8v-6c.7,0,1.4,0,2,0,1.1,0,2,.9,2,2,0,.7,0,1.4,0,2.1,0,1.1-.9,2-2,2-.7,0-1.4,0-2,0Z"/><path class="cls-8" d="m70.3,56.6c0,1.4-.5,2.6-1.5,3.6-.4.4-.8.5-1.1.1s-.4-.8,0-1.2c1.4-1.8,1.4-3.3,0-5.1-.3-.4-.3-.8,0-1.2s.7-.3,1.1,0c1,1,1.5,2.2,1.5,3.7Z"/><path class="cls-8" d="m50,36.3c1.3,0,2.5.5,3.5,1.4.5.5.6.9.3,1.3-.4.4-.8.4-1.3,0-1.2-1-2.5-1.1-3.9-.7-.4.2-.8.4-1.1.7-.5.4-.9.4-1.2,0s-.3-.8.2-1.2c1-.9,2.2-1.4,3.6-1.4Z"/><path class="cls-8" d="m50,76.9c-1.3,0-2.5-.5-3.5-1.3-.6-.5-.6-.9-.3-1.3s.8-.4,1.3,0c1.3,1.1,2.6,1.2,4.1.5.3-.2.6-.4.9-.6.5-.4.9-.3,1.2,0s.3.7-.1,1.1c-1,1-2.2,1.4-3.6,1.5Z"/><path class="cls-8" d="m29.7,56.6c0-1.3.5-2.5,1.4-3.5.5-.6.9-.6,1.3-.3s.4.8,0,1.3c-1,1.2-1.1,2.5-.6,3.9.2.4.4.7.7,1.1.4.5.4.9,0,1.2-.4.4-.8.3-1.2-.2-1-1-1.4-2.2-1.4-3.6Z"/><path class="cls-5" d="m55,57.4v1.7c0,.6,0,1.1-.3,1.6l-.5.5c-.5.2-1.1.3-1.6.3h-5.1c-.6,0-1.1,0-1.6-.3l-.5-.5c-.2-.5-.4-1.1-.3-1.6v-5.1c0-.6,0-1.1.3-1.6l.5-.5c.5-.2,1.1-.4,1.6-.3h5.1c.6,0,1.1,0,1.6.3l.5.5c.2.5.3,1.1.3,1.6v3.3Z"/><path class="cls-7" d="m55,54.1c0-.6,0-1.1-.3-1.6.4,0,.7,0,1.1,0,.6,0,.9.4.9.8s-.4.8-.9.8c-.3,0-.5,0-.8,0Z"/><path class="cls-7" d="m54.7,60.7c.2-.5.3-1.1.3-1.6.3,0,.6,0,.8,0,.5,0,.8.3.8.8,0,.4-.3.8-.8.8-.4,0-.8,0-1.2,0Z"/><path class="cls-7" d="m45.9,61.3c.5.2,1.1.3,1.6.3,0,.3,0,.7,0,1,0,.4-.4.7-.8.7-.4,0-.7-.3-.8-.7,0-.4,0-.9,0-1.3Z"/><path class="cls-7" d="m52.5,61.6c.6,0,1.1,0,1.6-.3,0,.4,0,.8,0,1.2,0,.5-.3.8-.8.8s-.7-.3-.8-.8c0-.3,0-.6,0-.9Z"/><path class="cls-7" d="m47.5,51.6c-.6,0-1.1,0-1.6.3,0-.4,0-.8,0-1.2,0-.5.3-.8.8-.8s.7.3.8.8c0,.3,0,.6,0,.9Z"/><path class="cls-7" d="m54.1,52c-.5-.2-1.1-.4-1.6-.3,0-.4,0-.7,0-1.1,0-.4.4-.6.8-.6.4,0,.7.2.8.6.1.5,0,.9,0,1.4Z"/><path class="cls-7" d="m45.4,52.5c-.2.5-.4,1.1-.3,1.6-.3,0-.5,0-.8,0-.5,0-.9-.4-.9-.8s.3-.8.9-.8c.4,0,.8,0,1.1,0Z"/><path class="cls-7" d="m45,59.1c0,.6,0,1.1.3,1.6-.4,0-.8,0-1.2,0-.5,0-.9-.4-.8-.8,0-.5.4-.8.8-.8.3,0,.6,0,.8,0Z"/><path class="cls-6" d="m50.8,51.6h-1.6c0-.3,0-.6,0-.9,0-.4.3-.8.8-.8.4,0,.8.3.8.8,0,.3,0,.6,0,.9Z"/><path class="cls-6" d="m45,55.8v1.6c-.3,0-.6,0-.9,0-.5,0-.8-.4-.8-.8,0-.4.4-.8.8-.8.3,0,.6,0,.9,0Z"/><path class="cls-6" d="m55,57.4v-1.6c.3,0,.6,0,.9,0,.5,0,.8.4.8.8,0,.4-.4.8-.8.8-.3,0-.6,0-.9,0Z"/><path class="cls-6" d="m49.2,61.6h1.6c0,.3,0,.6,0,.9,0,.5-.4.8-.8.8-.4,0-.8-.4-.8-.8,0-.3,0-.6,0-.9Z"/></svg>