<svg width="52" height="52" viewBox="0 0 52 52" fill="none" xmlns="http://www.w3.org/2000/svg">
<path fill-rule="evenodd" clip-rule="evenodd" d="M17.4719 6.30954C19.5541 5.40869 21.7667 4.84572 24.0262 4.64184L26.1974 0.766413L32.8948 1.73213L33.8821 6.06177C35.9925 6.89606 37.9563 8.06163 39.6995 9.51456L43.9712 8.31048L48.024 13.7292L45.6615 17.4876C46.5624 19.5698 47.1253 21.7824 47.3292 24.0419L51.2047 26.2131L50.2389 32.9105L45.9093 33.8978C45.3914 35.2073 44.7454 36.4624 43.9807 37.6448L39.9347 32.2351C42.1194 27.3386 41.6594 21.4365 38.2196 16.8374C33.1624 10.0758 23.5834 8.69435 16.8218 13.7515C10.0601 18.8087 8.67871 28.3877 13.7359 35.1494C17.1757 39.7485 22.7073 41.8574 28.0216 41.1452L32.0669 46.5539C30.717 46.9531 29.331 47.2181 27.9291 47.3449L25.7579 51.2203L19.0605 50.2546L18.0732 45.9249C15.9628 45.0906 13.999 43.925 12.2558 42.472L7.98416 43.6761L3.93137 38.2573L6.29373 34.4994C5.39267 32.4171 4.82959 30.2044 4.62571 27.9446L0.750794 25.7737L1.71644 19.0762L6.04741 18.0885C6.88155 15.9786 8.04677 14.0153 9.49919 12.2724L8.29494 7.99978L13.7136 3.94705L17.4719 6.30954V6.30954ZM33.9755 20.0116C31.644 16.8943 27.8407 15.5277 24.2516 16.1545L30.2658 24.1957L29.2397 26.5893L28.2135 28.9827L25.6277 29.2907L23.0417 29.5988L17.0275 21.5576C15.4122 24.8233 15.6483 28.8579 17.9798 31.9751C20.4625 35.2946 24.6143 36.6289 28.3991 35.6851L38.4403 49.1106C38.7863 49.5732 39.4458 49.6683 39.9085 49.3223L44.4199 45.9481C44.8825 45.6021 44.9776 44.9426 44.6316 44.4799L34.5904 31.0545C36.5652 27.6907 36.4582 23.3311 33.9755 20.0116V20.0116Z" fill="#FF89DC"/>
</svg>
