<?xml version="1.0" encoding="UTF-8"?><svg id="Layer_1" xmlns="http://www.w3.org/2000/svg" viewBox="0 0 400 400"><defs><style>.cls-1{stroke:#a5262d;}.cls-1,.cls-2,.cls-3{stroke-width:4px;}.cls-1,.cls-2,.cls-3,.cls-4{stroke-miterlimit:10;}.cls-1,.cls-2,.cls-3,.cls-4,.cls-5{fill:none;}.cls-6{fill:#bbeb6c;}.cls-7{fill:#68d4f0;}.cls-8{fill:#c7eefd;}.cls-9{fill:#6c7fd7;}.cls-2{stroke:#0018c6;}.cls-3{stroke:#c000e2;}.cls-10{fill:#4f66cf;}.cls-11{fill:#f66c82;}.cls-12{fill:#636c77;}.cls-13{fill:#c9f674;}.cls-14{fill:#fbcc57;}.cls-15{fill:#e9f5fe;}.cls-16{fill:#c69c6d;}.cls-4{stroke:#231f20;stroke-width:2px;}.cls-17{fill:#c5deea;}.cls-18{fill:#484645;}.cls-19{fill:#8e9da9;}.cls-20{fill:#c3dbe6;}.cls-21{fill:#99e4fb;}.cls-22{fill:#b3b3b3;}.cls-23{fill:#a6e9f7;}.cls-24{fill:#231f20;}.cls-25{fill:#69d4f0;}.cls-26{fill:#ec6363;}</style></defs><line class="cls-5" x1="154.68" y1="109.61" x2="188.32" y2="136.79"/><line class="cls-4" x1="154.68" y1="109.61" x2="179.95" y2="130.03"/><polygon class="cls-24" points="173.55 134.47 188.32 136.8 182.95 122.84 173.55 134.47"/><line class="cls-5" x1="245.32" y1="109.61" x2="211.68" y2="136.79"/><line class="cls-4" x1="245.32" y1="109.61" x2="220.05" y2="130.03"/><polygon class="cls-24" points="217.05 122.84 211.68 136.79 226.45 134.47 217.05 122.84"/><circle class="cls-1" cx="147.99" cy="55.57" r="45"/><rect class="cls-22" x="121.99" y="45.57" width="52" height="37" rx="2.9" ry="2.9"/><path class="cls-18" d="m148.79,75.87l-1.1-3.4h-8l-1,3.4h-6.5l7.5-23.6h7.6l7.8,23.6h-6.3Zm-7.6-8.6h4.81l-2.4-8-2.41,8Z"/><path class="cls-18" d="m156.49,75.87v-24.69h5.6v24.7h-5.6Z"/><path d="m124.09,34.27l-2.4,3.1,1,1.4-1.6,2.1-6.1-9.3,1.9-2.4,10.5,3.7-1.6,2.1-1.6-.6-.1-.1Zm-2.2-.8l-3.8-1.4,2.3,3.3,1.5-1.9Z"/><path d="m120.79,24.47l1.7-1.4,7,8.4-1.7,1.4-7-8.4Z"/><path d="m133,20.67l3.6,6.6-2,1.1-.3-.6c-.11.81-.64,1.49-1.4,1.8-1.33.74-3.01.26-3.75-1.08-.06-.1-.11-.21-.15-.31l-2.2-4,2-1.1,2,3.8c.29.65,1.06.94,1.71.65.03-.01.06-.03.09-.05.67-.32.95-1.12.63-1.79-.04-.07-.08-.15-.13-.21l-2-3.6,2-1.1-.1-.11Z"/><path d="m147.59,20.18l.8,4.5-2.2.4-.8-4.3c-.03-.6-.54-1.05-1.14-1.02-.06,0-.11.01-.16.02-.7.1-1.1.7-.9,1.6l.7,4.2-2.2.4-.8-4.3c-.03-.6-.54-1.05-1.14-1.02-.06,0-.11.01-.16.02-.7.1-1.1.7-.9,1.6l.7,4.2-2.2.4-1.3-7.4,2.2-.4v.7c.41-.67,1.12-1.11,1.9-1.2.76-.23,1.58,0,2.1.6.37-.79,1.13-1.33,2-1.4,1.7-.3,3,.7,3.3,2.6l.2-.2Z"/><path d="m149.89,17.77l2.2.2-.6,7.5-2.2-.2.6-7.5Zm0-2c.08-.75.75-1.29,1.5-1.2.75.08,1.29.75,1.2,1.5s-.75,1.29-1.5,1.2c0,0,0,0,0,0-.72-.05-1.26-.66-1.21-1.38,0-.04,0-.08.01-.12Z"/><path d="m160.89,22.87l-1.2,4.4-2.2-.6,1.1-4.1c.24-.68-.11-1.42-.78-1.66-.04-.01-.08-.03-.12-.04-.69-.26-1.46.08-1.72.76-.04.11-.07.22-.08.34l-1.1,3.9-2.2-.6,2-7.2,2.2.6-.2.7c.67-.47,1.53-.58,2.3-.3,1.49.39,2.38,1.91,2,3.4-.03.1-.06.2-.1.3l.1.1Z"/><path d="m170.49,24.87l-3.8,6.4-1.9-1.2.4-.6c-.77.29-1.63.18-2.3-.3-1.32-.77-1.78-2.46-1.01-3.78.06-.11.13-.22.21-.32l2.4-4,1.9,1.2-2.2,3.7c-.41.5-.34,1.24.16,1.65.07.06.15.11.24.15.63.41,1.48.23,1.89-.4.04-.06.08-.13.11-.2l2.1-3.5,1.9,1.2h-.1Z"/><path d="m178.29,37.18l-3.5,3-1.5-1.7,3.4-2.9c.6-.5.7-1.1.2-1.6-.43-.5-1.18-.55-1.68-.12-.04.04-.08.08-.12.12l-3.2,2.7-1.5-1.7,3.4-2.9c.6-.5.7-1.1.2-1.6-.43-.5-1.18-.55-1.68-.12-.04.04-.08.08-.12.12l-3.19,2.7-1.5-1.7,5.7-4.9,1.5,1.7-.5.4c.76,0,1.49.34,2,.9.54.56.73,1.36.5,2.1.85-.02,1.66.35,2.2,1,1.03,1.19.9,3-.29,4.03-.07.06-.14.11-.21.17l-.11.3Z"/><circle class="cls-1" cx="252.01" cy="55.57" r="45" transform="translate(156.79 295.42) rotate(-80.78)"/><path d="m225.91,39.97l1-3c1.15.63,2.58.43,3.5-.5,1.1-1,1-1.7.7-2.1-.6-.6-1.4-.4-3.4.6s-4.1,1.5-5.9-.5-1.1-4.7.7-6.3c1.58-1.5,3.91-1.9,5.9-1l-1,3c-.95-.52-2.13-.36-2.9.4-.8.7-.8,1.4-.4,1.8s1,.6,3-.4,4.3-1.9,6.2.3c1.8,2,1.2,4.7-1.1,6.7s-4.5,2.1-6.5,1.1l.2-.1Z"/><path d="m230.91,24.07c-.44-.88-.08-1.96.8-2.4.88-.44,1.96-.08,2.4.8.44.88.08,1.96-.8,2.4h0c-.89.39-1.92.04-2.4-.8Zm1.5,2.3l2.7-1.4,4.5,8.9-2.7,1.4-4.5-8.9Z"/><path d="m236.71,19.37l2.9-.9,4.5,13.9-2.9.9-4.5-13.9Z"/><path d="m243.31,19.47c-.16-.99.51-1.93,1.5-2.09.99-.16,1.93.51,2.09,1.5.16.99-.5,1.92-1.49,2.09-.98.17-1.92-.49-2.1-1.47,0,0,0-.02,0-.03Zm.7,2.6l3-.5,1.6,9.9-3,.5-1.6-9.9Z"/><path d="m249.91,26.07c.13-2.85,2.55-5.06,5.41-4.92.1,0,.2.01.29.02,1.86.09,3.52,1.21,4.3,2.9l-2.7,1.3c-.53-1.13-1.88-1.62-3.01-1.09-.74.35-1.24,1.07-1.29,1.89-.16,1.22.7,2.33,1.92,2.48.06,0,.12.01.18.02.8.07,1.58-.31,2-1l2.5,1.7c-1.02,1.56-2.84,2.41-4.7,2.2-2.88-.17-5.08-2.65-4.91-5.53,0-.06,0-.11.01-.17v.2Z"/><path d="m260.81,27.07c1.13-2.68,4.22-3.94,6.9-2.81,2.68,1.13,3.94,4.22,2.81,6.9-1.13,2.68-4.22,3.94-6.9,2.81,0,0,0,0,0,0-2.66-1.09-3.94-4.14-2.84-6.8.01-.03.03-.07.04-.1Zm7,2.9c.53-1.17.02-2.54-1.14-3.08-.02,0-.04-.02-.06-.02-1.11-.5-2.42,0-2.92,1.11-.03.06-.05.13-.08.19-.56,1.1-.11,2.45.99,3.01.07.03.14.06.21.09,1.11.5,2.42,0,2.92-1.11.03-.06.05-.13.08-.19Z"/><path d="m280.31,38.18l-4.2,4.5-2.2-2,3.9-4.2c.69-.6.76-1.65.16-2.34-.05-.06-.1-.11-.16-.16-.72-.71-1.87-.7-2.57.02-.08.09-.16.18-.23.28l-3.7,4-2.2-2,6.8-7.4,2.2,2-.6.7c1.07-.18,2.17.19,2.9,1,1.5,1.4,1.8,3.6,0,5.6h-.1Z"/><rect class="cls-16" x="225.11" y="46.07" width="52" height="37" rx="2.9" ry="2.9"/><path class="cls-18" d="m247.31,77.18c-2.18.11-4.34-.45-6.2-1.6-1.58-1.02-2.78-2.53-3.4-4.3l5.2-3c.69,1.97,2.62,3.24,4.7,3.1,2.3,0,2.8-.5,2.8-1.6s-.5-1.2-1.6-1.7c-.97-.38-1.98-.68-3-.9-1.91-.44-3.66-1.37-5.1-2.7-1.32-1.19-2.02-2.93-1.9-4.7-.03-2.02.81-3.95,2.3-5.3,1.64-1.39,3.75-2.11,5.9-2,1.87-.07,3.71.42,5.3,1.4,1.54.96,2.76,2.35,3.5,4l-5.1,3c-.5-1.61-2.02-2.67-3.7-2.6-1.7,0-1.3.1-1.6.4-.36.25-.59.66-.6,1.1.05.54.34,1.02.8,1.3,1,.59,2.08,1.03,3.2,1.3,1.1.4,2,.7,2.8,1,.8.34,1.56.74,2.3,1.2.78.55,1.43,1.26,1.9,2.1.41.95.61,1.97.6,3,.11,2.1-.83,4.12-2.5,5.4-1.87,1.4-4.17,2.11-6.5,2l-.1.1Z"/><path class="cls-18" d="m263.51,57.47c-.6.63-1.43.99-2.3,1-1.79.03-3.27-1.4-3.31-3.19-.02-.91.35-1.78,1.01-2.41.61-.6,1.44-.92,2.3-.9.85,0,1.68.32,2.3.9.63.6.99,1.43,1,2.3.02.88-.35,1.72-1,2.3Zm-5.1,19.2v-16.9h5.59v16.9h-5.59Z"/><circle class="cls-2" cx="200" cy="190.78" r="45"/><path class="cls-10" d="m216.8,175.28h.2c3.2-.16,5.93,2.31,6.09,5.51,0,.1,0,.19,0,.29v37.7c.07,2.7-1.76,5.09-4.4,5.7-.6.1-1.2.2-1.7.3h-.2c0-.2-.2-.2-.3,0h-1.2c0-.4.4-.3.6-.4,2.12-.87,3.53-2.91,3.6-5.2v-38.4c-.07-2.27-1.49-4.27-3.6-5.1-.2,0-.6,0-.6-.4h1.2c0,.1.2.1.3,0Z"/><path class="cls-9" d="m215.4,175.28c0,.4.4.3.6.4,2.12.82,3.54,2.83,3.6,5.1v38.4c-.1,2.28-1.5,4.31-3.6,5.2-.2,0-.6,0-.6.4h-32.2c-.57-.02-1.14-.08-1.7-.2-2.74-.61-4.64-3.1-4.5-5.9v-37.1c-.16-3.2,2.3-5.93,5.5-6.1.21.02.41-.02.6-.1h32.2l.1-.1Zm3.2,20.5v-13.7c0-1.18-.92-2.15-2.1-2.2h-32.7c-1.23.05-2.2,1.07-2.2,2.3v35.5c-.13,1.3.81,2.47,2.12,2.6.16.02.32.02.48,0h31.7c1.9,0,2.7-.8,2.7-2.7v-21.8h0Z"/><path class="cls-9" d="m216.6,224.78c0-.1.2-.1.3,0h-.3Z"/><path class="cls-9" d="m216.8,175.28c0,.1-.2.1-.3,0h.3Z"/><path class="cls-15" d="m213.3,220.18h-29.1c-1.28.16-2.44-.75-2.6-2.02-.02-.19-.02-.38,0-.58v-21.9h33.3v21.5c0,1.4-.3,2.4-1.6,2.9v.1Zm-6.9-14.7h-2.8c-1.1-.11-2.08.69-2.19,1.79,0,.07-.01.14-.01.21-.03,1.19.91,2.17,2.1,2.2.03,0,.07,0,.1,0h6.4c1.18-.02,2.12-1,2.1-2.18,0,0,0-.01,0-.02,0-1.1-.89-2-2-2-.03,0-.07,0-.1,0h-3.6,0Zm-13.4-5.2h-2.3c-.9,0-1.2.3-1.4,1.2l-.9,5.4c-.13.5.02,1.04.4,1.4.4.4.9.3,1.4,0,.76-.33,1.58-.46,2.4-.4,1.59.25,2.69,1.74,2.44,3.33-.25,1.59-1.74,2.69-3.33,2.44-1.2-.18-2.15-1.09-2.41-2.27-.3-.9-.7-1.3-1.5-1.1-.63.25-.98.94-.8,1.6.59,2.74,3.25,4.51,6,4,2.87-.44,4.84-3.13,4.4-6s-3.13-4.84-6-4.4h0q-.6,0-.5-.6c.2-.68.3-1.39.3-2.1,0-.4.2-.5.6-.5h3.5c.8,0,1.2-.4,1.2-1.1s-.4-1.1-1.2-1.1h-2.4l.1.2Zm12.6-.3h-2.8c-.64-.07-1.22.39-1.29,1.03,0,.02,0,.05,0,.07.01.66.54,1.19,1.2,1.2h5.7c.6.06,1.14-.39,1.2-.99,0-.07,0-.14,0-.21,0-.7-.5-1.1-1.3-1.1h-2.7Zm1.5,14.9c.04.66.54,1.21,1.2,1.3.68-.08,1.22-.62,1.3-1.3-.04-.64-.56-1.16-1.2-1.2-.64-.02-1.18.48-1.2,1.12,0,.03,0,.05,0,.08h-.1Zm-2.9,0c0-.66-.54-1.2-1.2-1.2-.66,0-1.2.54-1.2,1.2,0,.68.52,1.25,1.2,1.3.65.01,1.19-.5,1.21-1.15,0-.05,0-.1,0-.15h0Z"/><path class="cls-8" d="m214.9,195.78h-33.3c-.1-2.2,0-4.4,0-6.6h2.6c1.7.2,2.9-.2,3.6-1.9.2-.6.5-.4.7,0,.8,1.4,1.7,2.8,2.5,4.2.21.54.72.89,1.3.9.6,0,.9-.5,1.1-1,.5-1.3,1.1-2.5,1.7-3.8.3.4.6.8.8,1.1.23.44.7.72,1.2.7h10.8c.6.5,1.1,1.1,1.7,1.6.3.36.84.4,1.2.1.04-.03.07-.07.1-.1.8-.9,1.7-1.7,2.5-2.5.75-.61.92-1.69.4-2.5-.51-.74-1.49-.99-2.3-.6-.76.35-1.64.35-2.4,0-1.5-.5-2.5.1-2.7,1.8h-7.9c-.53.04-1.04-.23-1.3-.7-.3-.6-.8-1.1-1.1-1.7-.26-.47-.77-.74-1.3-.7-.5,0-.8.5-1,.9-.5,1.2-1,2.5-1.6,3.8-.2-.24-.37-.51-.5-.8l-2.4-3.9c-.29-.55-.97-.76-1.53-.47-.2.11-.37.27-.47.47-.5.8-1,1.5-1.5,2.3-.16.28-.48.44-.8.4h-3.4v-4.6c-.03-1.24.94-2.27,2.18-2.3,0,0,.01,0,.02,0h29.5c1.19.43,1.87,1.67,1.6,2.9v13h0Z"/><path class="cls-8" d="m213.3,220.18c1.4-.5,1.7-1.5,1.6-2.9v-21.5h3.7v21.8c0,1.9-.8,2.7-2.7,2.7h-2.6v-.1Z"/><path class="cls-21" d="m207.9,189.28h-10.8c-.5.02-.97-.26-1.2-.7-.23-.39-.5-.76-.8-1.1-.6,1.3-1.1,2.6-1.7,3.8-.2.5-.5,1-1.1,1-.59.03-1.12-.34-1.3-.9-.8-1.4-1.7-2.8-2.5-4.2-.2-.4-.5-.6-.7,0-.7,1.7-1.9,2.1-3.6,1.9-.87-.05-1.73-.05-2.6,0v-2.4h3.4c.32.04.64-.12.8-.4.5-.8,1-1.6,1.5-2.3.29-.55.97-.76,1.53-.47.2.11.37.27.47.47l2.4,3.9c.1.2.3.4.5.8.6-1.3,1.1-2.6,1.6-3.8.2-.5.5-.9,1-.9.53-.04,1.04.23,1.3.7.4.54.77,1.11,1.1,1.7.26.47.77.74,1.3.7h7.9c.1,1,1,1.5,1.6,2.2h-.1Z"/><path class="cls-23" d="m218.6,195.78h-3.7v-13c0-1.4-.3-2.3-1.6-2.9h3.2c1.18.02,2.12,1,2.1,2.18,0,0,0,.01,0,.02v13.7Z"/><path class="cls-19" d="m192.9,200.28h2.4c.8,0,1.2.4,1.2,1.1s-.4,1.1-1.2,1.1h-3.5c-.3,0-.5,0-.6.5-.05.71-.15,1.41-.3,2.1-.1.5,0,.6.5.6,2.72-.39,5.26,1.41,5.8,4.1.6,2.86-1.23,5.68-4.09,6.28-.04,0-.07.01-.11.02-2.75.51-5.41-1.26-6-4-.2-.8.1-1.5.8-1.6s1.2.2,1.5,1.1c.28,1.45,1.63,2.45,3.1,2.3,1.4-.04,2.55-1.11,2.7-2.5.25-1.56-.81-3.03-2.36-3.28-.04,0-.09-.01-.14-.02-.82-.07-1.65.07-2.4.4-.43.25-.97.25-1.4,0-.5-.3-.5-.8-.4-1.4l.9-5.4c.2-.9.5-1.2,1.4-1.2h2.3l-.1-.2Z"/><path class="cls-13" d="m206.7,209.68h-3.2c-1.19.02-2.18-.93-2.2-2.12,0-.03,0-.05,0-.08,0-1.1.89-2,1.99-2.01.07,0,.14,0,.21.01h2.8c.11.05.21.12.3.2,1.04.48,1.49,1.72,1.01,2.76-.16.34-.4.63-.71.84-.1.1-.3.2-.3.4h.1Z"/><path class="cls-19" d="m205.5,199.98h2.7c.8,0,1.3.4,1.3,1.1.06.6-.39,1.14-.99,1.2-.07,0-.14,0-.21,0h-5.7c-.66-.01-1.19-.54-1.2-1.2.03-.65.59-1.14,1.23-1.11.02,0,.05,0,.07,0h2.8Z"/><path class="cls-6" d="m206.7,209.68c0-.2.1-.3.3-.4.95-.65,1.19-1.95.54-2.89-.21-.31-.5-.55-.84-.71-.1,0-.2-.1-.3-.2h3.4c1.1-.06,2.04.79,2.1,1.9,0,.03,0,.07,0,.1.07,1.14-.79,2.12-1.94,2.2-.05,0-.11,0-.16,0h-3.1,0Z"/><path class="cls-21" d="m207,214.98c-.02-.64.48-1.18,1.12-1.2.03,0,.05,0,.08,0,.64.04,1.16.56,1.2,1.2-.08.68-.62,1.22-1.3,1.3-.66-.09-1.16-.64-1.2-1.3h.1Z"/><path class="cls-21" d="m204,214.88c0,.66-.53,1.2-1.2,1.2s-1.2-.53-1.2-1.2h0c0-.67.53-1.21,1.2-1.21s1.2.53,1.2,1.2h0Z"/><path class="cls-26" d="m207.9,189.28c-.5-.7-1.4-1.2-1.6-2.2.1-1.6,1.1-2.3,2.7-1.8.77.3,1.63.3,2.4,0,.92-.43,2-.03,2.43.89.36.77.14,1.69-.53,2.21-.8.9-1.7,1.7-2.5,2.5-.3.36-.84.4-1.2.1-.04-.03-.07-.07-.1-.1-.52-.58-1.09-1.12-1.7-1.6h.1Z"/><path d="m158.9,186.18l11.2.5v2.6l-4.6-.2-.2,3.5,4.4.2v2.6l-11.3-.5v-2.6l4.4.2.2-3.5-4.3-.2v-2.6h.2Z"/><path d="m169.9,181.18c.2-.55.2-1.15,0-1.7l1.7-1.4c.78,1.11.93,2.55.4,3.8-.59,2.21-2.87,3.53-5.08,2.94-.14-.04-.28-.08-.42-.14-2.15-.77-3.27-3.15-2.5-5.3.77-2.15,3.15-3.27,5.3-2.5h0c.3.1.6.3.9.4l-1.9,5.3c.82-.03,1.52-.6,1.7-1.4h-.1Zm-2.2-2.4c-.8-.05-1.54.44-1.8,1.2-.29.76-.05,1.61.6,2.1l1.2-3.2v-.1Z"/><path d="m171.6,166.38l6.5,4.7-1.4,1.9-.6-.4c.19.88-.03,1.8-.6,2.5-1.37,1.74-3.88,2.03-5.62.67-.03-.02-.06-.04-.08-.07-1.85-1.23-2.38-3.72-1.2-5.6.48-.78,1.29-1.29,2.2-1.4l-.6-.4,1.4-1.9Zm1.8,4.3c-.78-.65-1.93-.54-2.58.23-.04.05-.08.11-.12.17-.63.76-.52,1.89.24,2.52.08.07.17.13.26.18.78.65,1.93.54,2.58-.23.04-.05.08-.11.12-.17.63-.76.52-1.89-.24-2.52-.08-.07-.17-.13-.26-.18h0Z"/><path d="m171.4,161.68l1.8-1.6,7.8,8.7-1.8,1.6-7.8-8.7Z"/><path d="m181.4,161.48l1.5,2.4c.4.6.9.3,1.8-.3l1.2,1.8c-2.5,2-3.7,1.7-5-.2l-1.5-2.4-1.1.7-1.2-1.9,1.1-.7-.8-1.3,1.6-1.9,1.2,1.9,1.4-.9,1.2,1.9-1.4.9Z"/><path d="m192.1,157.78l1.6,4.6-2.3.8-1.5-4.3c-.17-.7-.87-1.14-1.58-.97-.08.02-.15.04-.22.07-.81.28-1.23,1.17-.95,1.98.01.04.03.08.05.12l1.5,4.1-2.3.8-3.7-10.6,2.3-.8,1.3,3.7c.3-.82.97-1.45,1.8-1.7,1.52-.57,3.22.2,3.79,1.72.05.12.08.25.11.38l.1.1Z"/><path d="m210.6,158.08l-.6,4.9-2.4-.3.6-4.7c.1-.8-.2-1.3-1-1.4s-1.3.4-1.4,1.3l-.6,4.5-2.4-.3.6-4.7c.1-.8-.2-1.4-1-1.4s-1.3.4-1.4,1.3l-.6,4.5-2.4-.3,1-7.9,2.4.3v.7c1.05-1,2.72-.96,3.72.09.15.15.28.33.38.51.61-.66,1.52-.96,2.4-.8,1.65.17,2.84,1.65,2.67,3.3-.01.14-.04.27-.07.4h.1Z"/><path d="m212.1,159.78c1.08-2.07,3.63-2.88,5.7-1.81,2.07,1.08,2.88,3.63,1.81,5.7-1.08,2.07-3.63,2.88-5.7,1.81,0,0,0,0,0,0-2.06-1.04-2.89-3.56-1.84-5.62.01-.03.03-.06.04-.08Zm5.4,2.8c.5-.83.22-1.9-.61-2.4-.06-.04-.13-.07-.19-.1-.85-.49-1.93-.2-2.42.64-.03.05-.06.1-.08.16-.5.83-.22,1.9.61,2.4.06.04.13.07.19.1.85.49,1.93.2,2.42-.64.03-.05.06-.1.08-.16h0Z"/><path d="m227.3,169.38l-3.4,3.6-1.7-1.6,3.1-3.3c.55-.48.61-1.32.12-1.88-.04-.04-.08-.08-.12-.12-.6-.6-1.4-.6-2.2.2l-3,3.2-1.7-1.6,5.5-5.8,1.7,1.6-.5.5c.87-.11,1.74.23,2.3.9,1.24,1.15,1.31,3.1.16,4.34-.05.06-.11.11-.16.16l-.1-.2Z"/><path d="m231,169.38l1.4,2-6.6,4.6-1.4-2,6.6-4.6Zm1.6-1.4c.66-.44,1.56-.26,2,.4.44.66.26,1.56-.4,2-.66.44-1.55.26-1.99-.4-.44-.66-.26-1.56.4-2Z"/><path d="m233,177.18l-2.5,1.2c-.6.3-.4.9.1,1.8l-2,1c-1.7-2.7-1.2-3.9.8-4.9l2.5-1.2-.6-1.2,2.1-1,.6,1.2,1.4-.7,1.7,1.8-2,1,.7,1.5-2.1,1-.7-1.5Z"/><path d="m232.7,180.38c2.29-.5,4.55.92,5.1,3.2.57,2.22-.77,4.48-2.99,5.05-.07.02-.14.03-.21.05-2.29.5-4.55-.92-5.1-3.2-.54-2.27.87-4.55,3.15-5.09.02,0,.04,0,.05-.01Zm1.4,5.9c.95-.16,1.6-1.06,1.44-2.01-.01-.06-.02-.13-.04-.19-.21-1-1.19-1.64-2.19-1.43-.04,0-.07.02-.11.03-.95.16-1.6,1.06-1.44,2.01.01.06.02.13.04.19.21,1,1.19,1.64,2.19,1.43.04,0,.07-.02.11-.03h0Z"/><path d="m238.7,195.18h-2.7c.3-.98-.24-2.01-1.22-2.32-.19-.06-.39-.09-.58-.08h-3.6v-2.4h8v2.4h-1.4c1.01.35,1.67,1.33,1.6,2.4h-.1Z"/><path d="m231.6,202.08c-1.8-.4-2.3-2.1-1.9-3.8.17-1.41,1.15-2.58,2.5-3l.7,2.3c-.61.03-1.11.49-1.2,1.1-.1.6,0,.9.3.9.9.2,1.2-3.8,3.9-3.2,1.7.3,2.3,2,1.9,3.6-.19,1.26-1.08,2.31-2.3,2.7l-.7-2.2c.47-.07.83-.43.9-.9,0-.4,0-.7-.3-.7-.9-.2-1.1,3.8-4,3.2h.2Z"/><line class="cls-5" x1="199.7" y1="243.77" x2="200.2" y2="276.55"/><line class="cls-4" x1="199.7" y1="243.77" x2="200.04" y2="265.79"/><polygon class="cls-24" points="192.52 263.71 200.2 276.55 207.48 263.49 192.52 263.71"/><circle class="cls-3" cx="200" cy="329.19" r="45"/><path d="m159.5,329.39l.6-2.5h7.6c0-.1-6.7-3.7-6.7-3.7l.4-1.9,7.6-.3-6.8-3.4.6-2.5,9.6,5.2-.6,2.7-6.4.3,5.7,3.1-.6,2.7-10.9.5-.1-.2Z"/><path d="m171.1,307.69l6.3,4.1-1.2,1.9-.6-.4c.2.7.1,1.5-.4,2.4-1.1,1.7-3.4,2.1-5.3.9-1.9-1.2-2.5-3.5-1.4-5.2.5-.8,1.2-1.3,2-1.4l-.6-.4,1.2-1.9Zm1.9,3.9c-.9-.6-1.9-.4-2.5.5s-.4,1.9.6,2.5,1.9.4,2.5-.5.4-1.9-.6-2.5Z"/><path d="m176.6,305.29l1.9,1.9c.5.5.9.1,1.6-.6l1.4,1.5c-1.9,2.3-3.1,2.2-4.6.7l-1.9-1.9-.9.8-1.5-1.5.9-.8-1-1,1.1-2.1,1.5,1.5,1.1-1.1,1.5,1.5-1.1,1.1Z"/><path d="m179.5,304.59c-1.2-1.9-.7-4.2,1.2-5.5,1.2-.8,2.7-.8,3.9-.2l-1,2c-.5-.3-1.1-.3-1.7,0-.8.5-1,1.5-.5,2.4.6.9,1.5,1.1,2.4.5.6-.4.9-.9.8-1.5h2.3c0,1.2-.6,2.5-1.8,3.3-1.9,1.2-4.3.7-5.5-1.2l-.1.2Z"/><path d="m193.4,297.09l1.4,4.4-2.1.7-1.3-4.1c-.3-.9-1-1.1-1.7-.9-.8.3-1.2.9-.8,1.9l1.3,3.9-2.1.7-3.3-10,2.1-.7,1.2,3.5c.2-.7.8-1.2,1.7-1.5,1.4-.5,3,.1,3.6,2.1Z"/><path d="m195.4,295.79l5.7-.4.2,2.2-5.7.4-.2-2.2Z"/><path d="m202.5,298.49l2.2-.8c.2.9.8,1.6,1.9,1.8,1.1.2,1.5-.2,1.5-.6.1-.6-.4-1-1.9-1.7s-2.8-1.7-2.5-3.7c.3-2,2.2-2.9,4-2.6,1.7.3,2.9,1.3,3.4,3l-2.2.8c-.2-.8-.6-1.3-1.6-1.5-.7-.1-1.2.2-1.2.6,0,.5.1.8,1.6,1.6,1.5.7,3.2,1.6,2.8,3.8-.3,2-2.1,2.9-4.4,2.5-2.2-.4-3.4-1.6-3.7-3.3l.1.1Z"/><path d="m214.9,302.39c.6.3,1.1.3,1.5,0l1.2,1.7c-1.1.6-2.3.6-3.6,0-2.3-1.1-3-3.3-2.1-5.4,1-2,3.2-2.9,5.3-1.9,2,.9,2.7,3.2,1.8,5.2-.1.3-.3.5-.5.8l-4.8-2.3c0,.8.4,1.4,1.2,1.7v.2Zm2.4-1.9c.2-.9-.3-1.5-.9-1.8-.8-.4-1.5-.2-2,.4l2.9,1.4Z"/><path d="m226.4,307.19l-3,3.5-1.7-1.5,2.8-3.3c.6-.7.4-1.4-.1-1.9-.6-.5-1.4-.5-2.1.3l-2.7,3.1-1.7-1.5,4.9-5.7,1.7,1.5-.5.5c.7-.2,1.5,0,2.2.7,1.2,1,1.4,2.6.1,4.2l.1.1Z"/><path d="m229.2,314.79c-1.4,1-2.9.2-3.8-1.1-.9-1.2-1.1-2.5-.4-3.7l2,.9c-.3.5-.4,1,0,1.6.3.4.6.6.9.4.7-.5-1.9-3.2.3-4.7,1.3-1,2.8-.3,3.7.9.7,1,.9,2.2.4,3.3l-2-.9c.2-.4.2-.8,0-1.2-.2-.3-.5-.4-.7-.3-.7.5,1.9,3.2-.3,4.8h-.1Z"/><path d="m231,314.79c2.1-.9,4.3.1,5.2,2.2.9,2.1,0,4.3-2.1,5.2-2.1.8-4.3-.1-5.2-2.2-.8-2,0-4.3,2.1-5.2Zm2.2,5.3c1-.4,1.4-1.4,1-2.3-.4-.9-1.3-1.3-2.3-.9-1,.4-1.4,1.4-1,2.3s1.3,1.3,2.3.9Z"/><path d="m238.8,327.39l-2.5.4c0-.9-.6-2.2-2.1-1.9l-3.3.6-.4-2.2,7.4-1.3.4,2.2-1.3.2c1,.1,1.7,1,1.8,2Z"/><path d="m233.5,334.99c-1.7,0-2.4-1.5-2.4-3.2,0-1.5.6-2.6,1.8-3.2l1.1,2c-.6.2-.9.6-.9,1.3,0,.5.2.8.5.8.8,0,.5-3.7,3-3.6,1.6,0,2.4,1.4,2.4,3,0,1.2-.6,2.3-1.7,2.9l-1-1.9c.4-.2.7-.5.7-1,0-.4-.1-.6-.4-.6-.9,0-.3,3.7-3.1,3.6v-.1Z"/><path class="cls-12" d="m203.2,325.09h4.6c1.8,0,2.9,1.2,2.9,2.9v15.4c0,2.1-1.1,3.2-3.1,3.2h-15.1c-2,0-3.1-1.1-3.1-3.1v-15.1c0-2.1,1.1-3.2,3.1-3.2h10.7v-.1Zm1,6.1v-1.4c0-.4-.4-.6-.8-.6s-.7.3-.8.6v1.1h-1.7v-.9c0-.5-.4-.8-.8-.8s-.8.4-.8.8v.9h-1.7v-.9c0-.5-.3-.8-.8-.8s-.8.3-.8.8v1.2l-.5.5h-1.1c-.6,0-.9.4-.9.8s.4.8.9.8h.8v1.7h-.9c-.4,0-.8.3-.8.8,0,.4.3.8.8.8h.9v1.7h-.8c-.5,0-.8.3-.8.8,0,.4.3.8.8.8h1.2l.5.5v1.3c0,.4.4.7.8.7s.7-.3.8-.7v-1h1.7v.9c0,.4.3.8.8.8.4,0,.8-.3.8-.8v-.9h1.7v.9c0,.5.3.8.8.8s.8-.3.8-.8v-1.2l.5-.5h1.2c.5,0,.9-.4.8-.8,0-.5-.4-.8-.8-.8h-.8v-1.7h.9c.4,0,.8-.3.8-.8,0-.4-.3-.8-.8-.8h-.9v-1.7h.8c.5,0,.9-.4.9-.8s-.3-.8-.9-.8h-1.1l-.5-.5h-.2Z"/><path class="cls-7" d="m177.2,327.29c0,.3-.2.5-.3.7-2.1,2.2-3.2,4.9-3.2,8s1.1,5.5,3.2,7.7c.3.3.5.6.3,1.1s-.9.6-1.4.1c-1.3-1.3-2.3-2.8-2.8-4.5-1.7-5-.8-9.4,2.7-13.3.1-.1.3-.3.4-.4.2-.2.6-.2.8,0,.3.1.4.4.4.7l-.1-.1Z"/><path class="cls-7" d="m208.5,312.99c-.3,0-.5-.2-.7-.4-2.3-2.1-5-3.2-8.1-3.1-2.9,0-5.4,1.2-7.6,3.2-.5.5-1,.5-1.3,0s-.2-.8.2-1.1c1.4-1.3,2.9-2.3,4.7-2.9,4.9-1.6,9.3-.6,13.2,2.8.2.1.3.3.4.5.3.5-.1,1.1-.7,1.1l-.1-.1Z"/><path class="cls-7" d="m227.9,335.79c0,3.4-1.2,6.3-3.5,8.9l-.2.2c-.4.3-.8.3-1.1,0s-.3-.8,0-1.1c.7-.7,1.3-1.5,1.8-2.4,2.5-4.5,1.8-9.6-1.7-13.4-.3-.3-.5-.7-.2-1.1.3-.5.9-.5,1.3,0,1.5,1.6,2.6,3.5,3.2,5.6.3,1.1.5,2.2.5,3.4l-.1-.1Z"/><path class="cls-7" d="m200,363.69c-3.4,0-6.3-1.2-8.8-3.5l-.2-.2c-.4-.4-.4-.8,0-1.2s.8-.3,1.2,0c.7.7,1.5,1.3,2.3,1.8,4.5,2.5,9.6,1.9,13.4-1.7.3-.3.7-.5,1.1-.3.5.3.6.9,0,1.4-1.6,1.5-3.5,2.6-5.6,3.2-1.1.3-2.2.5-3.4.5Z"/><path class="cls-7" d="m200.3,359.89c-2.7,0-4.8-.9-6.6-2.5-.3-.3-.5-.7-.2-1.1.3-.5.9-.5,1.3,0,2.8,2.7,7.2,2.7,10.2.2,0,0,.1-.1.2-.2.4-.4.9-.4,1.2,0,.4.4.3.8,0,1.2-1,1-2.3,1.8-3.6,2.2-.9.3-1.8.4-2.4.4l-.1-.2Z"/><path class="cls-7" d="m199.6,311.69c2.9,0,4.9.9,6.7,2.5.5.5.5.9.2,1.3-.4.4-.8.3-1.3-.1-2.9-2.7-7.4-2.7-10.2,0-.5.5-.9.5-1.3.1s-.3-.8.1-1.2c1.4-1.4,3.7-2.6,5.8-2.5v-.1Z"/><path class="cls-7" d="m175.9,335.79c0-2.3.9-4.5,2.4-6.2.5-.5.9-.6,1.3-.2.4.4.3.8-.2,1.3-2.7,2.9-2.7,7.3,0,10.2.3.3.5.7.3,1.1-.3.5-.9.5-1.3,0-1.3-1.3-2.1-2.9-2.4-4.6-.1-.6-.1-1.1-.1-1.7v.1Z"/><path class="cls-7" d="m224.1,335.89c0,2.4-.8,4.4-2.5,6.2-.5.5-.9.6-1.3.2s-.3-.8.1-1.3c2.7-3,2.7-7.3,0-10.3-.4-.5-.5-.9-.1-1.2.4-.4.8-.3,1.3.1,1.6,1.6,2.5,3.9,2.5,6.3Z"/><path class="cls-11" d="m196.8,346.59h6v2c0,1.1-.9,2-2,2h-2.1c-1.1,0-2-.9-2-2v-2h.1Z"/><path class="cls-11" d="m203.2,325.09h-6v-2c0-1.1.9-2,2-2h2.1c1.1,0,2,.9,2,2v2h-.1Z"/><path class="cls-11" d="m189.3,332.59v6h-2c-1.1,0-2-.9-2-2v-2.1c0-1.1.9-2,2-2h2v.1Z"/><path class="cls-11" d="m210.8,338.99v-6h2c1.1,0,2,.9,2,2v2.1c0,1.1-.9,2-2,2h-2v-.1Z"/><path class="cls-25" d="m220.3,335.79c0,1.4-.5,2.6-1.5,3.6-.4.4-.8.5-1.1.1s-.4-.8,0-1.2c1.4-1.8,1.4-3.3,0-5.1-.3-.4-.3-.8,0-1.2s.7-.3,1.1,0c1,1,1.5,2.2,1.5,3.7v.1Z"/><path class="cls-25" d="m200,315.49c1.3,0,2.5.5,3.5,1.4.5.5.6.9.3,1.3-.4.4-.8.4-1.3,0-1.2-1-2.5-1.1-3.9-.7-.4.2-.8.4-1.1.7-.5.4-.9.4-1.2,0s-.3-.8.2-1.2c1-.9,2.2-1.4,3.6-1.4l-.1-.1Z"/><path class="cls-25" d="m200,356.09c-1.3,0-2.5-.5-3.5-1.3-.6-.5-.6-.9-.3-1.3s.8-.4,1.3,0c1.3,1.1,2.6,1.2,4.1.5.3-.2.6-.4.9-.6.5-.4.9-.3,1.2,0s.3.7-.1,1.1c-1,1-2.2,1.4-3.6,1.5v.1Z"/><path class="cls-25" d="m179.7,335.79c0-1.3.5-2.5,1.4-3.5.5-.6.9-.6,1.3-.3s.4.8,0,1.3c-1,1.2-1.1,2.5-.6,3.9.2.4.4.7.7,1.1.4.5.4.9,0,1.2-.4.4-.8.3-1.2-.2-1-1-1.4-2.2-1.4-3.6l-.2.1Z"/><path class="cls-14" d="m205,336.59v1.7c0,.6,0,1.1-.3,1.6l-.5.5c-.5.2-1.1.3-1.6.3h-5.1c-.6,0-1.1,0-1.6-.3l-.5-.5c-.2-.5-.4-1.1-.3-1.6v-5.1c0-.6,0-1.1.3-1.6l.5-.5c.5-.2,1.1-.4,1.6-.3h5.1c.6,0,1.1,0,1.6.3l.5.5c.2.5.3,1.1.3,1.6v3.4Z"/><path class="cls-20" d="m205,333.29c0-.6,0-1.1-.3-1.6h1.1c.6,0,.9.4.9.8s-.4.8-.9.8h-.8Z"/><path class="cls-20" d="m204.7,339.89c.2-.5.3-1.1.3-1.6h.8c.5,0,.8.3.8.8,0,.4-.3.8-.8.8h-1.2.1Z"/><path class="cls-20" d="m195.9,340.49c.5.2,1.1.3,1.6.3v1c0,.4-.4.7-.8.7s-.7-.3-.8-.7v-1.3Z"/><path class="cls-20" d="m202.5,340.79c.6,0,1.1,0,1.6-.3v1.2c0,.5-.3.8-.8.8s-.7-.3-.8-.8v-.9Z"/><path class="cls-20" d="m197.5,330.79c-.6,0-1.1,0-1.6.3v-1.2c0-.5.3-.8.8-.8s.7.3.8.8v.9Z"/><path class="cls-20" d="m204.1,331.19c-.5-.2-1.1-.4-1.6-.3v-1.1c0-.4.4-.6.8-.6s.7.2.8.6c.1.5,0,.9,0,1.4Z"/><path class="cls-20" d="m195.4,331.69c-.2.5-.4,1.1-.3,1.6h-.8c-.5,0-.9-.4-.9-.8s.3-.8.9-.8h1.1Z"/><path class="cls-20" d="m195,338.29c0,.6,0,1.1.3,1.6h-1.2c-.5,0-.9-.4-.8-.8,0-.5.4-.8.8-.8h.9Z"/><path class="cls-17" d="m200.8,330.79h-1.6v-.9c0-.4.3-.8.8-.8.4,0,.8.3.8.8v.9Z"/><path class="cls-17" d="m195,334.99v1.6h-.9c-.5,0-.8-.4-.8-.8s.4-.8.8-.8h.9Z"/><path class="cls-17" d="m205,336.59v-1.6h.9c.5,0,.8.4.8.8s-.4.8-.8.8h-.9Z"/><path class="cls-17" d="m199.2,340.79h1.6v.9c0,.5-.4.8-.8.8s-.8-.4-.8-.8v-.9Z"/></svg>