<?xml version="1.0" encoding="UTF-8"?><svg id="Layer_1" xmlns="http://www.w3.org/2000/svg" viewBox="0 0 400 400"><defs><style>.cls-1{stroke:#a5262d;}.cls-1,.cls-2{stroke-width:4px;}.cls-1,.cls-2,.cls-3{fill:none;stroke-miterlimit:10;}.cls-2{stroke:#000;}.cls-4{fill:#f0ca6f;}.cls-5{fill:#fff;}.cls-6{fill:#e2bb64;}.cls-7{fill:#546e7a;}.cls-8{fill:#222;}.cls-9{fill:#ffed58;}.cls-10{fill:#424240;}.cls-3{stroke:#231f20;stroke-width:2px;}.cls-11{fill:#36464e;}.cls-12{fill:#212121;}.cls-13{fill:#788f9b;}.cls-14{fill:#f0f3f2;}.cls-15{fill:#fbd734;}.cls-16{fill:#231f20;}</style></defs><line class="cls-5" x1="257.48" y1="138.23" x2="235.37" y2="162.44"/><line class="cls-3" x1="257.48" y1="138.23" x2="242.63" y2="154.49"/><polygon class="cls-16" points="238.58 147.83 235.37 162.44 249.63 157.92 238.58 147.83"/><line class="cls-5" x1="144.37" y1="138.23" x2="166.48" y2="162.44"/><line class="cls-3" x1="144.37" y1="138.23" x2="159.22" y2="154.49"/><polygon class="cls-16" points="152.22 157.92 166.48 162.44 163.27 147.83 152.22 157.92"/><line class="cls-5" x1="170.48" y1="246.73" x2="148.37" y2="270.94"/><line class="cls-3" x1="170.48" y1="246.73" x2="155.63" y2="262.99"/><polygon class="cls-16" points="151.58 256.33 148.37 270.94 162.63 266.42 151.58 256.33"/><line class="cls-5" x1="231.37" y1="246.73" x2="253.48" y2="270.94"/><line class="cls-3" x1="231.37" y1="246.73" x2="246.22" y2="262.99"/><polygon class="cls-16" points="239.22 266.42 253.48 270.94 250.27 256.33 239.22 266.42"/><line class="cls-5" x1="283.31" y1="203.82" x2="250.54" y2="204.32"/><line class="cls-3" x1="283.31" y1="203.82" x2="261.3" y2="204.16"/><polygon class="cls-16" points="263.37 196.64 250.54 204.32 263.6 211.6 263.37 196.64"/><line class="cls-5" x1="116.54" y1="203.82" x2="149.31" y2="204.32"/><line class="cls-3" x1="116.54" y1="203.82" x2="138.55" y2="204.16"/><polygon class="cls-16" points="136.25 211.6 149.31 204.32 136.48 196.64 136.25 211.6"/><circle class="cls-1" cx="286.93" cy="91.61" r="45"/><path class="cls-8" d="m274.53,74.31c.46.21.74.69.7,1.2v5.4h-1.9v-5.3c-.04-.48.19-.94.6-1.2h.6v-.1Z"/><path class="cls-8" d="m293.63,74.31c.44.23.68.71.6,1.2v5.4h-1.9v-5.3c-.04-.48.19-.94.6-1.2h.6l.1-.1Z"/><path class="cls-8" d="m298.73,80.91v-5.3c-.04-.48.19-.94.6-1.2h.6c.41.2.65.64.6,1.1v5.4h-1.8Z"/><path class="cls-8" d="m314.53,102.41c-.3.4-.81.6-1.3.5h-5.3v-1.9h5.4c.45-.03.88.2,1.1.6v.8h.1Z"/><path class="cls-8" d="m287.23,74.31c.44.23.68.71.6,1.2v5.4h-1.9v-5.5c-.04-.48.25-.93.7-1.1h.6Z"/><path class="cls-8" d="m275.23,123.01v5.1c0,.7-.1,1.2-.9,1.4h-.3c-.48-.34-.75-.91-.7-1.5v-5.1h1.9v.1Z"/><path class="cls-8" d="m294.33,123.01v5.2c.08.59-.25,1.16-.8,1.4h-.3c-.52-.31-.79-.9-.7-1.5v-5.1h1.8Z"/><path class="cls-8" d="m299.43,129.61c-.48-.34-.75-.91-.7-1.5v-5.1h1.9v5.1c0,.7-.1,1.2-.9,1.4h-.3v.1Z"/><path class="cls-8" d="m265.83,90.11h-5.5c-.45.01-.87-.22-1.1-.6v-.8c.33-.36.81-.55,1.3-.5h5.3v1.9Z"/><path class="cls-8" d="m259.33,114.31c.22-.4.65-.63,1.1-.6h5.5v1.9h-5.3c-.49.05-.97-.14-1.3-.5v-.8Z"/><path class="cls-8" d="m308.03,113.71c1.4.1,2.8,0,4.3,0h1.2c.45-.01.87.22,1.1.6v.6c-.23.38-.65.61-1.1.6h-5.5v-1.8Z"/><path class="cls-8" d="m265.83,96.48h-5.5c-.45.01-.87-.22-1.1-.6v-.7c.22-.4.65-.63,1.1-.6h5.5v1.9Z"/><path class="cls-8" d="m279.63,80.91v-5.43c-.01-.47.21-.92.6-1.2h.6c.41.26.64.72.6,1.2v5.4l-1.8.03Z"/><path class="cls-8" d="m308.03,107.41h5.5c.45-.01.87.22,1.1.6v.6c-.22.4-.65.63-1.1.6h-5.5v-1.8Z"/><path class="cls-8" d="m314.53,95.91c-.22.4-.65.63-1.1.6h-5.5v-1.9h5.5c.45-.01.87.22,1.1.6v.7Z"/><path class="cls-8" d="m265.83,102.81h-5.3c-.48.04-.94-.19-1.2-.6v-.6c.29-.37.73-.59,1.2-.6h5.3v1.8Z"/><path class="cls-8" d="m259.33,108.01c.22-.4.65-.63,1.1-.6h5.5v1.8h-5.5c-.45.01-.87-.22-1.1-.6v-.6Z"/><path class="cls-8" d="m314.53,89.48c-.32.39-.8.61-1.3.6h-5.2v-1.9c1.4.1,2.9,0,4.3,0h1c.51-.04.99.24,1.2.7v.6Z"/><path class="cls-12" d="m280.33,129.61c-.51-.27-.79-.83-.7-1.4v-5.2h1.9c-.1,1.2,0,2.4,0,3.6v1.6c.14.57-.21,1.15-.78,1.3,0,0-.01,0-.02,0h-.3l-.1.1Z"/><path class="cls-12" d="m286.73,129.61c-.45-.27-.72-.77-.7-1.3v-5.2h1.8v5.3c.07.57-.26,1.11-.8,1.3h-.3v-.1Z"/><path class="cls-10" d="m287.83,123.01h-21.2c-.6,0-.8-.3-.8-.9v-40.3c-.06-.44.25-.84.69-.9.07,0,.14,0,.21,0h40.4c.6,0,.8.3.8.9v40.4c0,.6-.3.9-.8.9h-19.4l.1-.1Zm-.9-7.1h13.3c.5,0,.6-.1.6-.6v-26.7c0-.5-.1-.6-.6-.6h-26.7c-.5,0-.6.1-.6.6v26.7c0,.5.1.6.6.6h13.4Z"/><path class="cls-12" d="m286.93,115.91h-13.3c-.5,0-.6-.1-.6-.6v-26.7c0-.5.1-.6.6-.6h26.7c.5,0,.6.1.6.6v26.7c0,.5-.2.6-.6.6h-13.4Zm-9.4-13.9c0,5.19,4.21,9.4,9.4,9.4,5.19,0,9.4-4.21,9.4-9.4s-4.21-9.4-9.4-9.4h0c-5.2.02-9.42,4.2-9.5,9.4h.1Z"/><path class="cls-14" d="m277.53,101.91c0-5.19,4.21-9.4,9.4-9.4s9.4,4.21,9.4,9.4-4.21,9.4-9.4,9.4h0c-5.19,0-9.39-4.19-9.4-9.38v-.02Zm8.7,6.8c.12-.11.23-.25.3-.4,1.1-1.7,2.2-3.5,3.3-5.2l1.3-2.1h-2.7c-.4,0-.5-.1-.5-.5v-5.4c-.52.66-.99,1.36-1.4,2.1l-3.2,5.1c0,.1-.2.2-.2.4s.3,0,.4,0h2.1c.4,0,.6.1.6.6v5.3h0v.1Z"/><path class="cls-4" d="m286.13,106.81v-3.4c0-.5-.1-.6-.6-.6h-2.5s0-.3.2-.4l3.2-5.1c.4-.7.9-1.4,1.4-2.1v5.4c0,.4.1.5.5.5h1.6l-2.7,4.2c-.3.55-.67,1.05-1.1,1.5Z"/><path class="cls-6" d="m286.13,106.81c.44-.42.79-.93,1-1.5l2.7-4.2h1.1l-1.3,2.1c-1.1,1.7-2.2,3.5-3.3,5.2,0,.1-.2.3-.3.4h0v-1.9l.1-.1Z"/><path d="m253.73,76.31c2.25.74,3.47,3.15,2.73,5.4-.01.03-.02.07-.03.1l-.6,1.8,3.7,1.3-.9,2.7-11.9-4,1.5-4.5c.77-2.27,3.21-3.52,5.5-2.8Zm-.9,2.7c-.73-.34-1.59-.02-1.93.7-.03.06-.05.13-.07.2l-.6,1.8,3.1,1,.6-1.8c.26-.83-.18-1.71-1-2l-.1.1Z"/><path d="m257.43,69.21l2.6,1.7c-.9.75-1.02,2.09-.27,2.99.13.16.29.3.47.41l3.4,2.3-1.5,2.2-7.5-5,1.5-2.2,1.3.9c-.7-.95-.7-2.25,0-3.2v-.1Z"/><path d="m261.73,70.91c-1.74-1.96-1.57-4.96.39-6.71,1.96-1.74,4.96-1.57,6.71.39,1.74,1.96,1.57,4.96-.39,6.71h0c-1.89,1.75-4.84,1.63-6.58-.26-.04-.04-.08-.09-.12-.13Zm5.1-4.5c-.63-.85-1.82-1.03-2.67-.4-.08.06-.16.13-.23.2-.85.7-.97,1.96-.27,2.82.05.07.11.13.17.18.63.85,1.82,1.03,2.67.4.08-.06.16-.13.23-.2.85-.7.97-1.96.27-2.82-.05-.07-.11-.13-.17-.18h0Z"/><path d="m270.13,63.81c-1.11-2.36-.1-5.17,2.26-6.28.01,0,.03-.01.04-.02,1.5-.69,3.25-.54,4.6.4l-1.6,2.2c-.58-.42-1.35-.5-2-.2-1,.4-1.48,1.53-1.08,2.52.02.06.05.12.08.18.44,1.05,1.65,1.54,2.7,1.1,0,0,0,0,0,0,.69-.24,1.16-.87,1.2-1.6l2.7.3c-.12,1.67-1.16,3.14-2.7,3.8-2.38,1.09-5.18.04-6.27-2.33-.01-.02-.02-.05-.03-.07h.1Z"/><path d="m284.33,61.48c.64-.05,1.23-.38,1.6-.9l2.3.9c-.74,1.33-2.08,2.22-3.6,2.4-2.48.52-4.91-1.08-5.43-3.56-.03-.15-.05-.29-.07-.44-.44-2.52,1.25-4.92,3.77-5.35.11-.02.22-.03.33-.05,2.41-.38,4.67,1.27,5.05,3.68.02.14.04.28.05.42v1.1l-6.3.9c.46.81,1.4,1.21,2.3,1v-.1Zm1.2-3.5c-.32-.85-1.2-1.35-2.1-1.2-.93.03-1.67.77-1.7,1.7l3.8-.5Z"/><path d="m296.43,61.48c-.3,2.1-2.2,2.7-4.1,2.4-1.6-.05-2.99-1.09-3.5-2.6l2.5-1c.09.71.68,1.26,1.4,1.3.6,0,1,0,1-.4.1-1-4.3-1.1-3.9-4.1.3-1.9,2-2.7,3.9-2.5,1.42.17,2.64,1.09,3.2,2.4l-2.4.9c-.12-.51-.57-.88-1.1-.9-.5,0-.8,0-.8.4-.1,1,4.3.9,3.9,4.2l-.1-.1Z"/><path d="m303.73,64.31c-.7,1.9-2.7,2.1-4.5,1.4-1.56-.42-2.69-1.79-2.8-3.4l2.6-.4c-.07.67.35,1.3,1,1.5.6.2,1,.2,1.1-.2.4-.9-3.9-2-2.8-4.9.7-1.8,2.6-2.2,4.3-1.5,1.36.49,2.36,1.67,2.6,3.1l-2.6.3c0-.52-.32-1-.8-1.2-.4-.2-.8-.1-.9.2-.4,1,4,1.9,2.8,5v.1Z"/><path d="m305.63,63.11c1.57-2.07,4.53-2.47,6.6-.9,2.07,1.57,2.47,4.53.9,6.6-1.57,2.07-4.53,2.47-6.6.9-2.07-1.54-2.49-4.47-.95-6.54.02-.02.03-.04.05-.06Zm5.4,4.1c.72-.84.63-2.1-.2-2.82-.03-.03-.06-.05-.1-.08-.86-.7-2.12-.57-2.81.29-.03.04-.06.07-.09.11-.72.84-.63,2.1.2,2.82.03.03.06.05.1.08.86.7,2.12.57,2.81-.29.03-.04.06-.07.09-.11h0Z"/><path d="m321.23,71.81l-2.4,1.9c-.44-1.1-1.68-1.63-2.78-1.2-.19.07-.36.17-.52.3l-3.2,2.5-1.6-2.1,7.1-5.5,1.6,2.1-1.3,1c1.11-.43,2.37-.01,3,1h.1Z"/><path d="m319.63,82.91c-1.9.9-3.4-.4-4.3-2.1-.82-1.39-.7-3.14.3-4.4l2.2,1.5c-.5.46-.62,1.2-.3,1.8.3.6.6.8.9.6.9-.4-1.5-4.2,1.4-5.5,1.8-.8,3.4.2,4.2,1.9.66,1.28.54,2.83-.3,4l-2.1-1.5c.36-.38.44-.94.2-1.4-.2-.4-.5-.6-.8-.5-.9.4,1.6,4.1-1.4,5.5v.1Z"/><path class="cls-15" d="m216.18,197.18c.5,0,.99.02,1.49.02.84,0,1.54.69,1.55,1.54,0,.78,0,1.56,0,2.33,0,6.58,0,13.16,0,19.75,0,.43-.02.86-.15,1.28-.15.49-.75.93-1.27.93-5.57,0-11.15,0-16.72,0-.03,0-.05,0-.08,0,0-1.51,0-3.03,0-4.54,1.16,0,2.32,0,3.48-.01.15,0,.32.04.32-.21,0-.57.05-1.16-.08-1.71-.36-1.48-.79-2.95-1.17-4.43-.1-.4-.22-.79-.36-1.18-.22-.61.19-.92.56-1.25.6-.55.85-1.24.99-2.03.3-1.66-1.1-3.65-2.68-4.16-.05-.09-.12-.13-.22-.08-.08-.02-.16-.04-.24-.05-.04-.05-.08-.07-.14-.03-.15-.02-.31-.04-.46-.07,0-2.01,0-4.03,0-6.04,2.86,0,5.71,0,8.57-.02.18,0,.36-.01.53-.02,1.02.03,2.04.05,3.07,0,1,.06,2,.04,3.01,0Z"/><path class="cls-9" d="m201,218.48c0,1.51,0,3.03,0,4.54-.57,0-1.15.01-1.72.01-4.86,0-9.72-.02-14.58.02-1.28.01-1.94-.69-1.94-1.94.04-7.44.03-14.88,0-22.32,0-.89.72-1.6,1.57-1.59.5,0,.99-.01,1.49-.02,1,.03,2,.05,3-.01,1.02.06,2.04.03,3.06.01.17,0,.33.02.5.02,2.87,0,5.74,0,8.61.01,0,2.01,0,4.03,0,6.04-.32.15-.68.08-1.02.21-1.42.55-2.36,1.51-2.7,3.02-.06.03-.11.07-.03.14-.11,1.25.02,2.39,1.14,3.22.35.26.49.65.35,1.14-.09.3-.2.59-.27.9-.2.84-.42,1.66-.64,2.49-.16.61-.35,1.22-.5,1.83-.15.61-.11,1.23-.13,1.85-.01.31.07.42.4.41,1.14-.02,2.27,0,3.41,0Z"/><path class="cls-13" d="m188.83,197.17c-1,.06-2,.04-3,.01,0-2.7-.02-5.41.02-8.11.02-1.25.19-2.49.55-3.71.44-1.46,1.06-2.83,1.9-4.1,1.05-1.58,2.35-2.94,3.9-4.05,1.02-.73,2.09-1.38,3.27-1.78,1.17-.41,2.35-.81,3.61-.9.71-.05,1.41-.16,2.12-.14,1.77.03,3.47.38,5.13,1,1.65.62,3.14,1.52,4.5,2.65,1.17.97,2.13,2.12,2.94,3.4.58.9,1.03,1.86,1.42,2.87.21.55.36,1.12.55,1.68.17.51.21,1.06.27,1.6.35,3.19.08,6.39.17,9.58-1,.04-2,.05-3,0,0-2.28-.02-4.57.01-6.85.02-1.31-.15-2.6-.47-3.87-.45-1.78-1.28-3.39-2.48-4.76-1.47-1.68-3.26-2.95-5.42-3.64-1.53-.49-3.08-.64-4.69-.54-1.49.09-2.89.44-4.22,1.06-2.21,1.03-3.95,2.61-5.24,4.69-1.11,1.79-1.72,3.76-1.8,5.84-.1,2.69-.02,5.38-.02,8.08Z"/><path class="cls-7" d="m210.11,197.18c0-2.42.02-4.85,0-7.27-.01-1.29-.19-2.56-.71-3.76-.41-.95-.96-1.81-1.64-2.6-1.01-1.18-2.27-1.99-3.7-2.51-1.32-.48-2.7-.64-4.13-.46-.87.11-1.71.31-2.49.65-2.18.95-3.78,2.51-4.77,4.69-.46,1.02-.65,2.09-.7,3.2-.13,2.69-.02,5.38-.06,8.06-1.02.02-2.04.04-3.06-.01,0-2.69-.08-5.39.02-8.08.08-2.08.68-4.05,1.8-5.84,1.29-2.08,3.03-3.66,5.24-4.69,1.33-.62,2.73-.97,4.22-1.06,1.61-.09,3.16.06,4.69.54,2.16.69,3.94,1.95,5.42,3.64,1.2,1.38,2.03,2.98,2.48,4.76.32,1.27.49,2.55.47,3.87-.03,2.28-.01,4.57-.01,6.85-1.02.05-2.04.04-3.07,0Z"/><path class="cls-11" d="m201,218.48c-1.14,0-2.27-.02-3.41,0-.33,0-.41-.1-.4-.41.02-.62-.01-1.25.13-1.85.15-.62.34-1.22.5-1.83.22-.83.44-1.66.64-2.49.07-.31.18-.6.27-.9.14-.49,0-.88-.35-1.14-1.12-.83-1.25-1.97-1.14-3.22.06-.03.06-.08.03-.14.34-1.51,1.28-2.47,2.7-3.02.34-.13.7-.05,1.02-.21.15.02.31.04.46.07.03.08.07.12.14.03.08.02.16.04.24.05.04.11.14.08.22.08,1.58.51,2.98,2.5,2.68,4.16-.14.79-.4,1.48-.99,2.03-.36.33-.78.65-.56,1.25.14.39.25.78.36,1.18.38,1.48.81,2.94,1.17,4.43.13.55.09,1.14.08,1.71,0,.25-.17.21-.32.21-1.16,0-2.32,0-3.48.01Z"/><path class="cls-7" d="m202.07,203.49c-.09,0-.18.03-.22-.08.1-.05.17,0,.22.08Z"/><path class="cls-7" d="m201.6,203.36c-.07.09-.11.05-.14-.03.06-.03.1-.02.14.03Z"/><path class="cls-13" d="m197.28,206.49c.03.06.03.1-.03.14-.08-.07-.03-.1.03-.14Z"/><circle class="cls-2" cx="201.13" cy="201.02" r="39.02"/><path class="cls-15" d="m309.18,318.18c.5,0,.99.02,1.49.02.84,0,1.54.69,1.55,1.54,0,.78,0,1.56,0,2.33,0,6.58,0,13.16,0,19.75,0,.43-.02.86-.15,1.28-.15.49-.75.93-1.27.93-5.57,0-11.15,0-16.72,0-.03,0-.05,0-.08,0,0-1.51,0-3.03,0-4.54,1.16,0,2.32,0,3.48-.01.15,0,.32.04.32-.21,0-.57.05-1.16-.08-1.71-.36-1.48-.79-2.95-1.17-4.43-.1-.4-.22-.79-.36-1.18-.22-.61.19-.92.56-1.25.6-.55.85-1.24.99-2.03.3-1.66-1.1-3.65-2.68-4.16-.05-.09-.12-.13-.22-.08-.08-.02-.16-.04-.24-.05-.04-.05-.08-.07-.14-.03-.15-.02-.31-.04-.46-.07,0-2.01,0-4.03,0-6.04,2.86,0,5.71,0,8.57-.02.18,0,.36-.01.53-.02,1.02.03,2.04.05,3.07,0,1,.06,2,.04,3.01,0Z"/><path class="cls-9" d="m294,339.48c0,1.51,0,3.03,0,4.54-.57,0-1.15.01-1.72.01-4.86,0-9.72-.02-14.58.02-1.28.01-1.94-.69-1.94-1.94.04-7.44.03-14.88,0-22.32,0-.89.72-1.6,1.57-1.59.5,0,.99-.01,1.49-.02,1,.03,2,.05,3-.01,1.02.06,2.04.03,3.06.01.17,0,.33.02.5.02,2.87,0,5.74,0,8.61.01,0,2.01,0,4.03,0,6.04-.32.15-.68.08-1.02.21-1.42.55-2.36,1.51-2.7,3.02-.06.03-.11.07-.03.14-.11,1.25.02,2.39,1.14,3.22.35.26.49.65.35,1.14-.09.3-.2.59-.27.9-.2.84-.42,1.66-.64,2.49-.16.61-.35,1.22-.5,1.83-.15.61-.11,1.23-.13,1.85-.01.31.07.42.4.41,1.14-.02,2.27,0,3.41,0Z"/><path class="cls-13" d="m281.83,318.17c-1,.06-2,.04-3,.01,0-2.7-.02-5.41.02-8.11.02-1.25.19-2.49.55-3.71.44-1.46,1.06-2.83,1.9-4.1,1.05-1.58,2.35-2.94,3.9-4.05,1.02-.73,2.09-1.38,3.27-1.78,1.17-.41,2.35-.81,3.61-.9.71-.05,1.41-.16,2.12-.14,1.77.03,3.47.38,5.13,1,1.65.62,3.14,1.52,4.5,2.65,1.17.97,2.13,2.12,2.94,3.4.58.9,1.03,1.86,1.42,2.87.21.55.36,1.12.55,1.68.17.51.21,1.06.27,1.6.35,3.19.08,6.39.17,9.58-1,.04-2,.05-3,0,0-2.28-.02-4.57.01-6.85.02-1.31-.15-2.6-.47-3.87-.45-1.78-1.28-3.39-2.48-4.76-1.47-1.68-3.26-2.95-5.42-3.64-1.53-.49-3.08-.64-4.69-.54-1.49.09-2.89.44-4.22,1.06-2.21,1.03-3.95,2.61-5.24,4.69-1.11,1.79-1.72,3.76-1.8,5.84-.1,2.69-.02,5.38-.02,8.08Z"/><path class="cls-7" d="m303.11,318.18c0-2.42.02-4.85,0-7.27-.01-1.29-.19-2.56-.71-3.76-.41-.95-.96-1.81-1.64-2.6-1.01-1.18-2.27-1.99-3.7-2.51-1.32-.48-2.7-.64-4.13-.46-.87.11-1.71.31-2.49.65-2.18.95-3.78,2.51-4.77,4.69-.46,1.02-.65,2.09-.7,3.2-.13,2.69-.02,5.38-.06,8.06-1.02.02-2.04.04-3.06-.01,0-2.69-.08-5.39.02-8.08.08-2.08.68-4.05,1.8-5.84,1.29-2.08,3.03-3.66,5.24-4.69,1.33-.62,2.73-.97,4.22-1.06,1.61-.09,3.16.06,4.69.54,2.16.69,3.94,1.95,5.42,3.64,1.2,1.38,2.03,2.98,2.48,4.76.32,1.27.49,2.55.47,3.87-.03,2.28-.01,4.57-.01,6.85-1.02.05-2.04.04-3.07,0Z"/><path class="cls-11" d="m294,339.48c-1.14,0-2.27-.02-3.41,0-.33,0-.41-.1-.4-.41.02-.62-.01-1.25.13-1.85.15-.62.34-1.22.5-1.83.22-.83.44-1.66.64-2.49.07-.31.18-.6.27-.9.14-.49,0-.88-.35-1.14-1.12-.83-1.25-1.97-1.14-3.22.06-.03.06-.08.03-.14.34-1.51,1.28-2.47,2.7-3.02.34-.13.7-.05,1.02-.21.15.02.31.04.46.07.03.08.07.12.14.03.08.02.16.04.24.05.04.11.14.08.22.08,1.58.51,2.98,2.5,2.68,4.16-.14.79-.4,1.48-.99,2.03-.36.33-.78.65-.56,1.25.14.39.25.78.36,1.18.38,1.48.81,2.94,1.17,4.43.13.55.09,1.14.08,1.71,0,.25-.17.21-.32.21-1.16,0-2.32,0-3.48.01Z"/><path class="cls-7" d="m295.07,324.49c-.09,0-.18.03-.22-.08.1-.05.17,0,.22.08Z"/><path class="cls-7" d="m294.6,324.36c-.07.09-.11.05-.14-.03.06-.03.1-.02.14.03Z"/><path class="cls-13" d="m290.28,327.49c.03.06.03.1-.03.14-.08-.07-.03-.1.03-.14Z"/><circle class="cls-2" cx="294.13" cy="322.02" r="39.02"/><path class="cls-15" d="m132.18,314.18c.5,0,.99.02,1.49.02.84,0,1.54.69,1.55,1.54,0,.78,0,1.56,0,2.33,0,6.58,0,13.16,0,19.75,0,.43-.02.86-.15,1.28-.15.49-.75.93-1.27.93-5.57,0-11.15,0-16.72,0-.03,0-.05,0-.08,0,0-1.51,0-3.03,0-4.54,1.16,0,2.32,0,3.48-.01.15,0,.32.04.32-.21,0-.57.05-1.16-.08-1.71-.36-1.48-.79-2.95-1.17-4.43-.1-.4-.22-.79-.36-1.18-.22-.61.19-.92.56-1.25.6-.55.85-1.24.99-2.03.3-1.66-1.1-3.65-2.68-4.16-.05-.09-.12-.13-.22-.08-.08-.02-.16-.04-.24-.05-.04-.05-.08-.07-.14-.03-.15-.02-.31-.04-.46-.07,0-2.01,0-4.03,0-6.04,2.86,0,5.71,0,8.57-.02.18,0,.36-.01.53-.02,1.02.03,2.04.05,3.07,0,1,.06,2,.04,3.01,0Z"/><path class="cls-9" d="m117,335.48c0,1.51,0,3.03,0,4.54-.57,0-1.15.01-1.72.01-4.86,0-9.72-.02-14.58.02-1.28.01-1.94-.69-1.94-1.94.04-7.44.03-14.88,0-22.32,0-.89.72-1.6,1.57-1.59.5,0,.99-.01,1.49-.02,1,.03,2,.05,3-.01,1.02.06,2.04.03,3.06.01.17,0,.33.02.5.02,2.87,0,5.74,0,8.61.01,0,2.01,0,4.03,0,6.04-.32.15-.68.08-1.02.21-1.42.55-2.36,1.51-2.7,3.02-.06.03-.11.07-.03.14-.11,1.25.02,2.39,1.14,3.22.35.26.49.65.35,1.14-.09.3-.2.59-.27.9-.2.84-.42,1.66-.64,2.49-.16.61-.35,1.22-.5,1.83-.15.61-.11,1.23-.13,1.85-.01.31.07.42.4.41,1.14-.02,2.27,0,3.41,0Z"/><path class="cls-13" d="m104.83,314.17c-1,.06-2,.04-3,.01,0-2.7-.02-5.41.02-8.11.02-1.25.19-2.49.55-3.71.44-1.46,1.06-2.83,1.9-4.1,1.05-1.58,2.35-2.94,3.9-4.05,1.02-.73,2.09-1.38,3.27-1.78,1.17-.41,2.35-.81,3.61-.9.71-.05,1.41-.16,2.12-.14,1.77.03,3.47.38,5.13,1,1.65.62,3.14,1.52,4.5,2.65,1.17.97,2.13,2.12,2.94,3.4.58.9,1.03,1.86,1.42,2.87.21.55.36,1.12.55,1.68.17.51.21,1.06.27,1.6.35,3.19.08,6.39.17,9.58-1,.04-2,.05-3,0,0-2.28-.02-4.57.01-6.85.02-1.31-.15-2.6-.47-3.87-.45-1.78-1.28-3.39-2.48-4.76-1.47-1.68-3.26-2.95-5.42-3.64-1.53-.49-3.08-.64-4.69-.54-1.49.09-2.89.44-4.22,1.06-2.21,1.03-3.95,2.61-5.24,4.69-1.11,1.79-1.72,3.76-1.8,5.84-.1,2.69-.02,5.38-.02,8.08Z"/><path class="cls-7" d="m126.11,314.18c0-2.42.02-4.85,0-7.27-.01-1.29-.19-2.56-.71-3.76-.41-.95-.96-1.81-1.64-2.6-1.01-1.18-2.27-1.99-3.7-2.51-1.32-.48-2.7-.64-4.13-.46-.87.11-1.71.31-2.49.65-2.18.95-3.78,2.51-4.77,4.69-.46,1.02-.65,2.09-.7,3.2-.13,2.69-.02,5.38-.06,8.06-1.02.02-2.04.04-3.06-.01,0-2.69-.08-5.39.02-8.08.08-2.08.68-4.05,1.8-5.84,1.29-2.08,3.03-3.66,5.24-4.69,1.33-.62,2.73-.97,4.22-1.06,1.61-.09,3.16.06,4.69.54,2.16.69,3.94,1.95,5.42,3.64,1.2,1.38,2.03,2.98,2.48,4.76.32,1.27.49,2.55.47,3.87-.03,2.28-.01,4.57-.01,6.85-1.02.05-2.04.04-3.07,0Z"/><path class="cls-11" d="m117,335.48c-1.14,0-2.27-.02-3.41,0-.33,0-.41-.1-.4-.41.02-.62-.01-1.25.13-1.85.15-.62.34-1.22.5-1.83.22-.83.44-1.66.64-2.49.07-.31.18-.6.27-.9.14-.49,0-.88-.35-1.14-1.12-.83-1.25-1.97-1.14-3.22.06-.03.06-.08.03-.14.34-1.51,1.28-2.47,2.7-3.02.34-.13.7-.05,1.02-.21.15.02.31.04.46.07.03.08.07.12.14.03.08.02.16.04.24.05.04.11.14.08.22.08,1.58.51,2.98,2.5,2.68,4.16-.14.79-.4,1.48-.99,2.03-.36.33-.78.65-.56,1.25.14.39.25.78.36,1.18.38,1.48.81,2.94,1.17,4.43.13.55.09,1.14.08,1.71,0,.25-.17.21-.32.21-1.16,0-2.32,0-3.48.01Z"/><path class="cls-7" d="m118.07,320.49c-.09,0-.18.03-.22-.08.1-.05.17,0,.22.08Z"/><path class="cls-7" d="m117.6,320.36c-.07.09-.11.05-.14-.03.06-.03.1-.02.14.03Z"/><path class="cls-13" d="m113.28,323.49c.03.06.03.1-.03.14-.08-.07-.03-.1.03-.14Z"/><circle class="cls-2" cx="117.13" cy="318.02" r="39.02"/><path class="cls-15" d="m351.06,198.13c.56,0,1.12.02,1.68.03.95,0,1.73.77,1.74,1.73.01.87,0,1.75,0,2.62,0,7.4,0,14.8,0,22.2,0,.48-.02.97-.16,1.44-.17.55-.85,1.04-1.42,1.04-6.27,0-12.53,0-18.8,0-.03,0-.06,0-.09-.01,0-1.7,0-3.41,0-5.11,1.31,0,2.61,0,3.92-.01.17,0,.36.04.36-.23.01-.64.06-1.3-.09-1.92-.4-1.67-.89-3.32-1.31-4.98-.12-.45-.24-.89-.4-1.33-.25-.68.22-1.04.63-1.41.67-.62.96-1.39,1.12-2.29.34-1.86-1.23-4.1-3.01-4.67-.06-.1-.14-.14-.25-.09-.09-.02-.18-.04-.27-.06-.04-.06-.09-.07-.16-.04-.17-.02-.35-.05-.52-.07,0-2.26,0-4.53,0-6.79,3.21,0,6.42-.01,9.64-.02.2,0,.4-.02.6-.02,1.15.04,2.3.05,3.45,0,1.13.06,2.25.05,3.38,0Z"/><path class="cls-9" d="m334,222.07c0,1.7,0,3.41,0,5.11-.65,0-1.29.01-1.94.01-5.47,0-10.93-.03-16.4.02-1.44.01-2.18-.77-2.18-2.18.05-8.36.03-16.73,0-25.09,0-1,.81-1.8,1.76-1.78.56.01,1.12-.01,1.68-.02,1.13.03,2.25.06,3.38-.01,1.15.07,2.29.04,3.44.01.19,0,.37.02.56.02,3.23,0,6.45,0,9.68.01,0,2.26,0,4.53,0,6.79-.36.17-.77.09-1.15.23-1.6.62-2.65,1.7-3.03,3.39-.07.04-.12.08-.03.15-.13,1.4.02,2.69,1.28,3.62.4.29.55.73.39,1.28-.1.33-.23.66-.31,1.01-.22.94-.47,1.87-.72,2.8-.18.69-.39,1.37-.56,2.06-.16.68-.12,1.39-.15,2.08-.01.35.08.47.45.46,1.28-.02,2.55,0,3.83,0Z"/><path class="cls-13" d="m320.32,198.12c-1.13.07-2.25.04-3.38.01,0-3.04-.02-6.08.02-9.12.02-1.41.21-2.8.62-4.17.49-1.64,1.19-3.19,2.13-4.61,1.18-1.78,2.64-3.3,4.39-4.55,1.15-.82,2.35-1.55,3.67-2.01,1.31-.46,2.64-.91,4.06-1.01.79-.06,1.58-.17,2.39-.16,1.99.03,3.91.43,5.76,1.13,1.86.7,3.53,1.71,5.06,2.98,1.31,1.1,2.39,2.39,3.31,3.82.65,1.01,1.16,2.09,1.6,3.22.24.62.4,1.26.62,1.89.19.57.23,1.19.3,1.8.39,3.58.1,7.18.19,10.77-1.13.04-2.25.06-3.38,0,0-2.57-.02-5.14.01-7.7.02-1.48-.17-2.92-.53-4.35-.51-2-1.44-3.81-2.79-5.35-1.66-1.89-3.66-3.32-6.09-4.09-1.72-.55-3.47-.72-5.28-.61-1.67.1-3.25.49-4.75,1.19-2.49,1.16-4.45,2.93-5.9,5.27-1.25,2.01-1.93,4.23-2.02,6.57-.11,3.02-.02,6.05-.02,9.08Z"/><path class="cls-7" d="m344.24,198.13c0-2.72.02-5.45,0-8.17-.02-1.45-.22-2.88-.8-4.23-.46-1.07-1.07-2.04-1.84-2.93-1.14-1.32-2.56-2.24-4.16-2.82-1.48-.54-3.04-.72-4.64-.52-.98.12-1.92.35-2.8.73-2.45,1.07-4.25,2.82-5.37,5.27-.52,1.15-.73,2.35-.79,3.6-.15,3.02-.02,6.04-.07,9.07-1.15.02-2.3.05-3.44-.02,0-3.03-.09-6.06.02-9.08.09-2.34.77-4.55,2.02-6.57,1.45-2.33,3.41-4.11,5.9-5.27,1.5-.7,3.07-1.09,4.75-1.19,1.81-.11,3.56.07,5.28.61,2.43.77,4.43,2.19,6.09,4.09,1.35,1.55,2.28,3.35,2.79,5.35.36,1.43.55,2.87.53,4.35-.03,2.57-.01,5.14-.01,7.7-1.15.06-2.3.04-3.45,0Z"/><path class="cls-11" d="m334,222.07c-1.28,0-2.55-.02-3.83,0-.37,0-.46-.11-.45-.46.03-.7-.02-1.4.15-2.08.17-.69.38-1.37.56-2.06.25-.93.5-1.87.72-2.8.08-.34.21-.67.31-1.01.16-.55,0-.99-.39-1.28-1.26-.93-1.41-2.22-1.28-3.62.07-.04.07-.09.03-.15.38-1.69,1.44-2.77,3.03-3.39.38-.15.79-.06,1.15-.23.17.02.35.05.52.07.03.09.08.14.16.04.09.02.18.04.27.06.05.12.15.09.25.09,1.78.57,3.34,2.81,3.01,4.67-.16.89-.44,1.67-1.12,2.29-.41.38-.88.73-.63,1.41.16.43.29.88.4,1.33.43,1.66.91,3.31,1.31,4.98.15.62.1,1.28.09,1.92,0,.28-.19.23-.36.23-1.31,0-2.61,0-3.92.01Z"/><path class="cls-7" d="m335.2,205.23c-.1,0-.2.03-.25-.09.11-.05.19,0,.25.09Z"/><path class="cls-7" d="m334.68,205.08c-.08.1-.12.05-.16-.04.06-.04.12-.02.16.04Z"/><path class="cls-13" d="m329.82,208.59c.04.06.04.12-.03.15-.09-.07-.03-.12.03-.15Z"/><circle class="cls-2" cx="334.15" cy="202.45" r="43.87"/><path class="cls-15" d="m116.06,92.13c.56,0,1.12.02,1.68.03.95,0,1.73.77,1.74,1.73.01.87,0,1.75,0,2.62,0,7.4,0,14.8,0,22.2,0,.48-.02.97-.16,1.44-.17.55-.85,1.04-1.42,1.04-6.27,0-12.53,0-18.8,0-.03,0-.06,0-.09-.01,0-1.7,0-3.41,0-5.11,1.31,0,2.61,0,3.92-.01.17,0,.36.04.36-.23.01-.64.06-1.3-.09-1.92-.4-1.67-.89-3.32-1.31-4.98-.12-.45-.24-.89-.4-1.33-.25-.68.22-1.04.63-1.41.67-.62.96-1.39,1.12-2.29.34-1.86-1.23-4.1-3.01-4.67-.06-.1-.14-.14-.25-.09-.09-.02-.18-.04-.27-.06-.04-.06-.09-.07-.16-.04-.17-.02-.35-.05-.52-.07,0-2.26,0-4.53,0-6.79,3.21,0,6.42-.01,9.64-.02.2,0,.4-.02.6-.02,1.15.04,2.3.05,3.45,0,1.13.06,2.25.05,3.38,0Z"/><path class="cls-9" d="m99,116.07c0,1.7,0,3.41,0,5.11-.65,0-1.29.01-1.94.01-5.47,0-10.93-.03-16.4.02-1.44.01-2.18-.77-2.18-2.18.05-8.36.03-16.73,0-25.09,0-1,.81-1.8,1.76-1.78.56.01,1.12-.01,1.68-.02,1.13.03,2.25.06,3.38-.01,1.15.07,2.29.04,3.44.01.19,0,.37.02.56.02,3.23,0,6.45,0,9.68.01,0,2.26,0,4.53,0,6.79-.36.17-.77.09-1.15.23-1.6.62-2.65,1.7-3.03,3.39-.07.04-.12.08-.03.15-.13,1.4.02,2.69,1.28,3.62.4.29.55.73.39,1.28-.1.33-.23.66-.31,1.01-.22.94-.47,1.87-.72,2.8-.18.69-.39,1.37-.56,2.06-.16.68-.12,1.39-.15,2.08-.01.35.08.47.45.46,1.28-.02,2.55,0,3.83,0Z"/><path class="cls-13" d="m85.32,92.12c-1.13.07-2.25.04-3.38.01,0-3.04-.02-6.08.02-9.12.02-1.41.21-2.8.62-4.17.49-1.64,1.19-3.19,2.13-4.61,1.18-1.78,2.64-3.3,4.39-4.55,1.15-.82,2.35-1.55,3.67-2.01,1.31-.46,2.64-.91,4.06-1.01.79-.06,1.58-.17,2.39-.16,1.99.03,3.91.43,5.76,1.13,1.86.7,3.53,1.71,5.06,2.98,1.31,1.1,2.39,2.39,3.31,3.82.65,1.01,1.16,2.09,1.6,3.22.24.62.4,1.26.62,1.89.19.57.23,1.19.3,1.8.39,3.58.1,7.18.19,10.77-1.13.04-2.25.06-3.38,0,0-2.57-.02-5.14.01-7.7.02-1.48-.17-2.92-.53-4.35-.51-2-1.44-3.81-2.79-5.35-1.66-1.89-3.66-3.32-6.09-4.09-1.72-.55-3.47-.72-5.28-.61-1.67.1-3.25.49-4.75,1.19-2.49,1.16-4.45,2.93-5.9,5.27-1.25,2.01-1.93,4.23-2.02,6.57-.11,3.02-.02,6.05-.02,9.08Z"/><path class="cls-7" d="m109.24,92.13c0-2.72.02-5.45,0-8.17-.02-1.45-.22-2.88-.8-4.23-.46-1.07-1.07-2.04-1.84-2.93-1.14-1.32-2.56-2.24-4.16-2.82-1.48-.54-3.04-.72-4.64-.52-.98.12-1.92.35-2.8.73-2.45,1.07-4.25,2.82-5.37,5.27-.52,1.15-.73,2.35-.79,3.6-.15,3.02-.02,6.04-.07,9.07-1.15.02-2.3.05-3.44-.02,0-3.03-.09-6.06.02-9.08.09-2.34.77-4.55,2.02-6.57,1.45-2.33,3.41-4.11,5.9-5.27,1.5-.7,3.07-1.09,4.75-1.19,1.81-.11,3.56.07,5.28.61,2.43.77,4.43,2.19,6.09,4.09,1.35,1.55,2.28,3.35,2.79,5.35.36,1.43.55,2.87.53,4.35-.03,2.57-.01,5.14-.01,7.7-1.15.06-2.3.04-3.45,0Z"/><path class="cls-11" d="m99,116.07c-1.28,0-2.55-.02-3.83,0-.37,0-.46-.11-.45-.46.03-.7-.02-1.4.15-2.08.17-.69.38-1.37.56-2.06.25-.93.5-1.87.72-2.8.08-.34.21-.67.31-1.01.16-.55,0-.99-.39-1.28-1.26-.93-1.41-2.22-1.28-3.62.07-.04.07-.09.03-.15.38-1.69,1.44-2.77,3.03-3.39.38-.15.79-.06,1.15-.23.17.02.35.05.52.07.03.09.08.14.16.04.09.02.18.04.27.06.05.12.15.09.25.09,1.78.57,3.34,2.81,3.01,4.67-.16.89-.44,1.67-1.12,2.29-.41.38-.88.73-.63,1.41.16.43.29.88.4,1.33.43,1.66.91,3.31,1.31,4.98.15.62.1,1.28.09,1.92,0,.28-.19.23-.36.23-1.31,0-2.61,0-3.92.01Z"/><path class="cls-7" d="m100.2,99.23c-.1,0-.2.03-.25-.09.11-.05.19,0,.25.09Z"/><path class="cls-7" d="m99.68,99.08c-.08.1-.12.05-.16-.04.06-.04.12-.02.16.04Z"/><path class="cls-13" d="m94.82,102.59c.04.06.04.12-.03.15-.09-.07-.03-.12.03-.15Z"/><circle class="cls-2" cx="99.15" cy="96.45" r="43.87"/><path class="cls-15" d="m77.06,199.13c.56,0,1.12.02,1.68.03.95,0,1.73.77,1.74,1.73.01.87,0,1.75,0,2.62,0,7.4,0,14.8,0,22.2,0,.48-.02.97-.16,1.44-.17.55-.85,1.04-1.42,1.04-6.27,0-12.53,0-18.8,0-.03,0-.06,0-.09-.01,0-1.7,0-3.41,0-5.11,1.31,0,2.61,0,3.92-.01.17,0,.36.04.36-.23.01-.64.06-1.3-.09-1.92-.4-1.67-.89-3.32-1.31-4.98-.12-.45-.24-.89-.4-1.33-.25-.68.22-1.04.63-1.41.67-.62.96-1.39,1.12-2.29.34-1.86-1.23-4.1-3.01-4.67-.06-.1-.14-.14-.25-.09-.09-.02-.18-.04-.27-.06-.04-.06-.09-.07-.16-.04-.17-.02-.35-.05-.52-.07,0-2.26,0-4.53,0-6.79,3.21,0,6.42-.01,9.64-.02.2,0,.4-.02.6-.02,1.15.04,2.3.05,3.45,0,1.13.06,2.25.05,3.38,0Z"/><path class="cls-9" d="m60,223.07c0,1.7,0,3.41,0,5.11-.65,0-1.29.01-1.94.01-5.47,0-10.93-.03-16.4.02-1.44.01-2.18-.77-2.18-2.18.05-8.36.03-16.73,0-25.09,0-1,.81-1.8,1.76-1.78.56.01,1.12-.01,1.68-.02,1.13.03,2.25.06,3.38-.01,1.15.07,2.29.04,3.44.01.19,0,.37.02.56.02,3.23,0,6.45,0,9.68.01,0,2.26,0,4.53,0,6.79-.36.17-.77.09-1.15.23-1.6.62-2.65,1.7-3.03,3.39-.07.04-.12.08-.03.15-.13,1.4.02,2.69,1.28,3.62.4.29.55.73.39,1.28-.1.33-.23.66-.31,1.01-.22.94-.47,1.87-.72,2.8-.18.69-.39,1.37-.56,2.06-.16.68-.12,1.39-.15,2.08-.01.35.08.47.45.46,1.28-.02,2.55,0,3.83,0Z"/><path class="cls-13" d="m46.32,199.12c-1.13.07-2.25.04-3.38.01,0-3.04-.02-6.08.02-9.12.02-1.41.21-2.8.62-4.17.49-1.64,1.19-3.19,2.13-4.61,1.18-1.78,2.64-3.3,4.39-4.55,1.15-.82,2.35-1.55,3.67-2.01,1.31-.46,2.64-.91,4.06-1.01.79-.06,1.58-.17,2.39-.16,1.99.03,3.91.43,5.76,1.13,1.86.7,3.53,1.71,5.06,2.98,1.31,1.1,2.39,2.39,3.31,3.82.65,1.01,1.16,2.09,1.6,3.22.24.62.4,1.26.62,1.89.19.57.23,1.19.3,1.8.39,3.58.1,7.18.19,10.77-1.13.04-2.25.06-3.38,0,0-2.57-.02-5.14.01-7.7.02-1.48-.17-2.92-.53-4.35-.51-2-1.44-3.81-2.79-5.35-1.66-1.89-3.66-3.32-6.09-4.09-1.72-.55-3.47-.72-5.28-.61-1.67.1-3.25.49-4.75,1.19-2.49,1.16-4.45,2.93-5.9,5.27-1.25,2.01-1.93,4.23-2.02,6.57-.11,3.02-.02,6.05-.02,9.08Z"/><path class="cls-7" d="m70.24,199.13c0-2.72.02-5.45,0-8.17-.02-1.45-.22-2.88-.8-4.23-.46-1.07-1.07-2.04-1.84-2.93-1.14-1.32-2.56-2.24-4.16-2.82-1.48-.54-3.04-.72-4.64-.52-.98.12-1.92.35-2.8.73-2.45,1.07-4.25,2.82-5.37,5.27-.52,1.15-.73,2.35-.79,3.6-.15,3.02-.02,6.04-.07,9.07-1.15.02-2.3.05-3.44-.02,0-3.03-.09-6.06.02-9.08.09-2.34.77-4.55,2.02-6.57,1.45-2.33,3.41-4.11,5.9-5.27,1.5-.7,3.07-1.09,4.75-1.19,1.81-.11,3.56.07,5.28.61,2.43.77,4.43,2.19,6.09,4.09,1.35,1.55,2.28,3.35,2.79,5.35.36,1.43.55,2.87.53,4.35-.03,2.57-.01,5.14-.01,7.7-1.15.06-2.3.04-3.45,0Z"/><path class="cls-11" d="m60,223.07c-1.28,0-2.55-.02-3.83,0-.37,0-.46-.11-.45-.46.03-.7-.02-1.4.15-2.08.17-.69.38-1.37.56-2.06.25-.93.5-1.87.72-2.8.08-.34.21-.67.31-1.01.16-.55,0-.99-.39-1.28-1.26-.93-1.41-2.22-1.28-3.62.07-.04.07-.09.03-.15.38-1.69,1.44-2.77,3.03-3.39.38-.15.79-.06,1.15-.23.17.02.35.05.52.07.03.09.08.14.16.04.09.02.18.04.27.06.05.12.15.09.25.09,1.78.57,3.34,2.81,3.01,4.67-.16.89-.44,1.67-1.12,2.29-.41.38-.88.73-.63,1.41.16.43.29.88.4,1.33.43,1.66.91,3.31,1.31,4.98.15.62.1,1.28.09,1.92,0,.28-.19.23-.36.23-1.31,0-2.61,0-3.92.01Z"/><path class="cls-7" d="m61.2,206.23c-.1,0-.2.03-.25-.09.11-.05.19,0,.25.09Z"/><path class="cls-7" d="m60.68,206.08c-.08.1-.12.05-.16-.04.06-.04.12-.02.16.04Z"/><path class="cls-13" d="m55.82,209.59c.04.06.04.12-.03.15-.09-.07-.03-.12.03-.15Z"/><circle class="cls-2" cx="60.15" cy="203.45" r="43.87"/></svg>