<?xml version="1.0" encoding="UTF-8"?><svg id="Layer_1" xmlns="http://www.w3.org/2000/svg" viewBox="0 0 400 400"><defs><style>.cls-1{fill:#a7cefe;}.cls-2{fill:#fff;}.cls-2,.cls-3,.cls-4,.cls-5,.cls-6,.cls-7{stroke-miterlimit:10;}.cls-2,.cls-7{stroke:#231f20;stroke-width:2px;}.cls-3{stroke:#a5262d;}.cls-3,.cls-4,.cls-5,.cls-6{stroke-width:4px;}.cls-3,.cls-4,.cls-5,.cls-6,.cls-7,.cls-8{fill:none;}.cls-9{fill:#7da1b1;}.cls-10{fill:#8fbac5;}.cls-4{stroke:#000;}.cls-5{stroke:#0018c6;}.cls-11{fill:#727272;}.cls-12{fill:#0c4a4e;}.cls-13{fill:#546e7a;}.cls-6{stroke:#c000e2;}.cls-14{fill:#d9cfca;}.cls-15{fill:#f1f6f6;}.cls-16{fill:#626363;}.cls-17{fill:#e5dedc;}.cls-18{fill:#4d4d4d;}.cls-19{fill:#97f8fe;}.cls-20{fill:#f1efef;}.cls-21{fill:#02f1a6;}.cls-22{fill:#fe7038;}.cls-23{fill:#717f8f;}.cls-24{fill:#93dbfe;}.cls-25{fill:#ffed58;}.cls-26{fill:#152433;}.cls-27{fill:#36464e;}.cls-28{fill:#fe415d;}.cls-29{fill:#6f7070;}.cls-30{fill:#fde077;}.cls-31{fill:#fee077;}.cls-32{fill:#ddebf0;}.cls-33{fill:#0aaffe;}.cls-34{fill:#e6dedc;}.cls-35{fill:#fed05b;}.cls-36{fill:#728090;}.cls-37{fill:#788f9b;}.cls-38{fill:#484645;}.cls-39{fill:#fec345;}.cls-40{fill:#636363;}.cls-41{fill:#b6d6fd;}.cls-42{fill:#fee078;}.cls-43{fill:#cee5ec;}.cls-44{fill:#d0c8c3;}.cls-45{fill:#fdd15b;}.cls-46{fill:#3f4a5b;}.cls-47{fill:#fbd734;}.cls-48{fill:#7dd4f3;}.cls-49{fill:#231f20;}.cls-50{fill:#f2f2f2;}.cls-51{fill:#64c7ef;}.cls-52{fill:#2dbafe;}</style></defs><line class="cls-8" x1="154.68" y1="121.52" x2="188.32" y2="148.7"/><line class="cls-7" x1="150.58" y1="117.42" x2="179.96" y2="141.94"/><polygon class="cls-49" points="173.54 146.38 188.32 148.71 182.96 134.75 173.54 146.38"/><line class="cls-8" x1="245.32" y1="121.52" x2="211.68" y2="148.7"/><line class="cls-7" x1="250.42" y1="116.42" x2="220.05" y2="141.94"/><polygon class="cls-49" points="217.05 134.75 211.68 148.7 226.46 146.38 217.05 134.75"/><path d="m268,41.71c-.89-2.61.51-5.45,3.12-6.35s5.45.51,6.35,3.12c.88,2.59-.48,5.41-3.06,6.33-2.6.92-5.46-.44-6.38-3.05,0-.02-.01-.04-.02-.05Zm6.8-2.4c-.3-1.12-1.44-1.78-2.56-1.48-.08.02-.16.05-.24.08-1.07.28-1.71,1.37-1.43,2.44.03.12.08.25.13.36.3,1.12,1.44,1.78,2.56,1.48.08-.02.16-.05.24-.08,1.07-.27,1.72-1.35,1.45-2.43-.03-.13-.08-.25-.13-.37h-.02Z"/><path d="m289.92,38.21c.11,2.65-1.95,4.89-4.6,5-1.07.05-2.1-.39-2.8-1.2v.9h-2.9v-13.4h3v4.7c.72-.77,1.75-1.18,2.8-1.1,2.5-.02,4.5,2.2,4.5,5.1Zm-2.8,0c.09-1.17-.78-2.2-1.95-2.29-.08,0-.17,0-.25,0-1.21-.06-2.24.88-2.3,2.1,0,.07,0,.14,0,.2-.09,1.17.78,2.2,1.95,2.29.08,0,.17,0,.25,0,1.21.06,2.24-.88,2.3-2.1,0-.07,0-.14,0-.2Z"/><path d="m98.28,44.09l1.9,2-5.4,5-8.6-9.3,2.1-2,6.7,7.2,3.3-3.1v.2Z"/><path d="m94.68,36.31c-.44-.77-.17-1.76.6-2.2.77-.44,1.76-.17,2.2.6.44.77.17,1.75-.6,2.19-.71.46-1.66.26-2.12-.45-.03-.05-.06-.1-.08-.15Zm1.5,1.9l2.3-1.4,4.6,7.7-2.3,1.4-4.6-7.7Z"/><path d="m105.28,36.71l1.1,3c.3.7.9.6,2,0l.8,2.3c-3.2,1.6-4.5.9-5.4-1.5l-1.1-3-1.4.5-.9-2.4,1.4-.5-.6-1.6,2.3-1.7.9,2.4,1.7-.6.9,2.4-1.7.6v.1Z"/><path d="m118.18,35.51l.5,5.5-2.7.2-.4-5.1c.05-.79-.54-1.47-1.33-1.52-.12,0-.25,0-.37.02-1,0-1.6.7-1.5,2l.4,4.9-2.7.2-1-12.6,2.7-.2.4,4.4c.57-.81,1.51-1.3,2.5-1.3,1.8-.2,3.5,1,3.7,3.4l-.2.1Z"/><path d="m121.18,32.51l2.7.4-1.4,8.9-2.7-.4,1.4-8.9Zm.1-2.4c.14-.91.99-1.54,1.9-1.4.91.14,1.54.99,1.4,1.9-.14.91-.99,1.54-1.9,1.4,0,0,0,0,0,0-.91-.15-1.54-1-1.4-1.92v.02Z"/><path d="m135.08,36.81l-3.5,8.3-2.5-1,.3-.8c-.88.46-1.92.46-2.8,0-1.7-.7-2.6-2.5-1.7-4.7l2.1-5.1,2.5,1-2,4.7c-.39.72-.12,1.62.59,2.01.07.04.14.07.21.09.82.39,1.8.04,2.19-.78.05-.1.09-.21.11-.32l1.9-4.5,2.5,1,.1.1Z"/><circle class="cls-3" cx="284.32" cy="68.11" r="45"/><path d="m255.62,49.01c-2.47-2.73-2.26-6.95.47-9.42.11-.1.22-.19.33-.28,1.71-1.54,4.12-2.03,6.3-1.3l-1,2.9c-1.18-.37-2.46-.1-3.4.7-1.6,1.47-1.71,3.96-.25,5.57,1.39,1.52,3.72,1.71,5.35.43.96-.77,1.45-1.98,1.3-3.2l3-.5c.33,2.28-.59,4.57-2.4,6-2.8,2.5-7.09,2.25-9.59-.55-.07-.08-.14-.17-.21-.25l.1-.1Z"/><path d="m302.92,37.71l-3.4,8.9-2.7-1,.3-.8c-.97.51-2.13.51-3.1,0-2.41-1.06-3.53-3.87-2.5-6.3,1-2.6,3.7-4,6-3.1,1.01.33,1.82,1.1,2.2,2.1l.3-.8,2.7,1h.2Zm-4.3,3.4c.51-1.09.04-2.39-1.05-2.9-.08-.04-.17-.07-.25-.1-1.05-.48-2.29-.02-2.77,1.03-.05.12-.1.24-.13.37-.51,1.09-.04,2.39,1.05,2.9.08.04.17.07.25.1,1.05.48,2.29.01,2.77-1.04.06-.12.1-.25.13-.38v.02Z"/><path d="m308.52,36.21l2.3,1.6-8,11.3-2.3-1.6,8-11.3Z"/><path d="m311.52,47.91l-2.4,2.4c-.6.6-.1,1.1.8,2l-1.8,1.8c-2.9-2.4-2.8-4-.9-5.8l2.4-2.4-1.1-1.1,2-1.9,1.1,1.1,1.3-1.3,2.6,1.4-1.9,1.9,1.4,1.4-2,1.9-1.4-1.4h-.1Z"/><rect class="cls-51" x="257.32" y="58.11" width="52" height="37" rx="2.9" ry="2.9"/><path class="cls-38" d="m274.62,88.91c-3.29.1-6.48-1.17-8.8-3.5-4.67-4.94-4.67-12.66,0-17.6,2.31-2.36,5.5-3.63,8.8-3.5,3.5,0,4.1.5,5.9,1.5,1.77.96,3.26,2.37,4.3,4.1l-5.2,3c-.48-.83-1.17-1.52-2-2-.92-.49-1.96-.73-3-.7-1.72-.07-3.38.59-4.6,1.8-1.18,1.23-1.8,2.9-1.7,4.6-.23,3.31,2.27,6.17,5.58,6.39.24.02.48.02.72,0,1.05.14,2.12-.11,3-.7.85-.45,1.55-1.15,2-2l5.2,3c-1.04,1.73-2.53,3.14-4.3,4.1-1.84,1.01-3.9,1.53-6,1.5h.1Z"/><path class="cls-38" d="m295.32,88.91c-2.39.02-4.7-.92-6.4-2.6-1.74-1.63-2.68-3.92-2.6-6.3-.04-2.37.9-4.65,2.6-6.3,1.7-1.68,4.01-2.62,6.4-2.6,2.4-.04,4.71.9,6.4,2.6,3.47,3.48,3.47,9.12,0,12.6-1.69,1.7-4,2.64-6.4,2.6Zm0-5.4c.91.05,1.79-.32,2.4-1,.63-.68.99-1.57,1-2.5.05-.94-.31-1.86-1-2.5-1.31-1.33-3.45-1.33-4.78-.02,0,0-.01.01-.02.02-.63.68-.99,1.57-1,2.5-.05.94.31,1.86,1,2.5.61.68,1.49,1.05,2.4,1Z"/><circle class="cls-3" cx="115.68" cy="68.11" r="45"/><path d="m146.08,51.09l-4,3.8-1.9-1.9,3.8-3.7c.6-.43.74-1.27.31-1.87-.03-.05-.07-.09-.11-.13-.6-.6-1.4-.6-2.2.2l-3.7,3.5-1.9-1.9,3.8-3.7c.6-.43.74-1.27.31-1.87-.03-.05-.07-.09-.11-.13-.6-.6-1.4-.6-2.2.2l-3.7,3.5-1.9-1.9,6.5-6.3,1.9,1.9-.6.6c.95-.09,1.88.28,2.5,1,.67.64.97,1.58.8,2.5,1.03-.14,2.06.28,2.7,1.1,1.4,1.52,1.3,3.52-.3,5.1Z"/><rect class="cls-18" x="88.68" y="58.11" width="52" height="37" rx="2.9" ry="2.9"/><path class="cls-50" d="m109.88,82.61h8.12v5.8h-14.2v-23.6h6v17.8h.08Z"/><path class="cls-50" d="m125.08,69.21c-.6.63-1.43.99-2.3,1-.88.02-1.72-.35-2.3-1-.63-.6-.99-1.43-1-2.3-.02-.88.35-1.72,1-2.3.61-.6,1.44-.92,2.3-.9.85,0,1.68.32,2.3.9.63.6.99,1.43,1,2.3.02.88-.35,1.72-1,2.3Zm-5.08,19.2v-16.9h5.6v16.9h-5.6Z"/><circle class="cls-5" cx="200" cy="202.35" r="45"/><path class="cls-10" d="m188.8,238.35c-.81-.23-1.58-.57-2.3-1-1.52-1.03-2.39-2.77-2.3-4.6v-42.9c-.05-2.63,1.81-4.92,4.4-5.4h21.6c0,.2.1.2.2.2,1.33.37,2.47,1.23,3.2,2.4.39.52.6,1.15.6,1.8,0,0-.2-.2-.2-.3-.51-.83-1.42-1.33-2.4-1.3h-3.8c-.64-.04-1.23.32-1.5.9-.2.3-.3.7-.5,1-.28.69-.96,1.13-1.7,1.1h-6.7c-.27.02-.54-.01-.8-.1-.37-.24-.65-.59-.8-1l-.6-1.2c-.2-.42-.63-.7-1.1-.7h-4.8c-1.37.32-2.31,1.59-2.2,3v42.5c-.02,1.48,1.12,2.71,2.6,2.8h22c.45,0,.9-.1,1.3-.3.52-.3.94-.76,1.2-1.3v.2c-.41,1.91-1.83,3.44-3.7,4-.1,0-.4,0-.4.2h-21.3Zm11.9-50.26h1.8c.35.04.66-.21.7-.55,0-.05,0-.1,0-.15,0-.5-.2-.9-.7-.9h-3.5c-.5,0-.7.4-.7.9s.3.6.7.7h1.7Z"/><path class="cls-9" d="m210.2,238.35c0-.3.2-.2.4-.2,1.83-.62,3.22-2.13,3.7-4v-.2c.17-.55.24-1.13.2-1.7v-41.8c.03-.57-.04-1.15-.2-1.7-.03-.64-.24-1.27-.6-1.8-.71-1.19-1.86-2.06-3.2-2.4-.1,0-.2,0-.2-.2h2.4c.66.14,1.3.38,1.9.7,1.73,1.01,2.77,2.89,2.7,4.9v42.7c.1,2.73-1.82,5.11-4.5,5.6h-2.5l-.1.1Z"/><path class="cls-15" d="m196.5,190.09c.3,0,.5.1.8.1h6.7c.75.07,1.46-.38,1.7-1.1.2-.3.3-.7.5-1,.27-.58.86-.94,1.5-.9h.9c0,.2.2.2.3.3.99.49,1.61,1.5,1.6,2.6v42.5c.02,1.08-.56,2.08-1.5,2.6-.16,0-.29.14-.3.3h-19.1c-1.48-.09-2.62-1.32-2.6-2.8v-42.4c-.11-1.41.83-2.68,2.2-3,.47-.05.93-.05,1.4,0,.49.63.93,1.3,1.3,2,.3.65,1,1.01,1.7.9h2.5c.17.03.35,0,.5-.1h-.1Zm-3.5,29.9v10.4c0,1.1.3,1.4,1.4,1.4h12.9c.55.06,1.04-.34,1.1-.89,0-.07,0-.14,0-.21v-21.4c.06-.55-.34-1.04-.89-1.1-.07,0-.14,0-.21,0h-1.1c-.55.06-1.04-.34-1.1-.89,0-.07,0-.14,0-.21v-1.9c.06-.55-.34-1.04-.89-1.1-.07,0-.14,0-.21,0h-6.7c-.8,0-1.1.4-1.1,1.2v1.9c0,.7-.4,1-1.1,1h-.8c-1,0-1.3.3-1.3,1.3v10.5h0Zm7.7-24.2c0-.2.1-.3.2-.5.3-.5.7-1,1-1.5s.2-.9-.2-1.1-.8-.3-1,0c-.8,1.1-1.6,2.3-2.3,3.5-.3.6,0,1.1.7,1.1h1.4q.3,0,.2.3c-.5.8-1,1.6-1.6,2.4-.32.37-.32.93,0,1.3.4.3.9.1,1.3-.4.9-1.3,1.7-2.6,2.5-3.9.2-.27.2-.63,0-.9-.18-.26-.48-.42-.8-.4h-1.6l.2.1Z"/><path class="cls-32" d="m208.7,235.45c0-.2.2-.2.3-.3.94-.52,1.52-1.52,1.5-2.6v-42.46c0-1.1-.61-2.11-1.6-2.6-.16,0-.29-.14-.3-.3h2.9c.98-.05,1.91.45,2.4,1.3,0,.1.1.2.2.3.17.55.24,1.13.2,1.7v41.8c.03.57-.04,1.15-.2,1.7-.32.5-.73.94-1.2,1.3-.4.2-.85.31-1.3.3h-2.9v-.14Z"/><path class="cls-32" d="m196.5,190.09c-.1.2-.3.1-.5.1h-2.5c-.7.09-1.38-.27-1.7-.9-.37-.7-.81-1.37-1.3-2h3.4c.47,0,.9.28,1.1.7l.6,1.2c.21.37.48.71.8,1l.1-.1Z"/><path class="cls-9" d="m200.7,188.09h-1.6c-.35.04-.66-.21-.7-.55,0-.05,0-.1,0-.15,0-.5.2-.9.7-.9h3.5c.44.06.75.46.7.9,0,.5-.2.6-.7.7-.6.05-1.2.05-1.8,0h-.1Z"/><path class="cls-21" d="m193,219.95v-10.5c0-1,.3-1.3,1.3-1.3h.8c.7,0,1-.3,1.1-1v-1.9c0-.8.3-1.2,1.1-1.2h6.7c.55-.06,1.04.34,1.1.89,0,.07,0,.14,0,.21v1.94c-.06.55.34,1.04.89,1.1.07,0,.14,0,.21,0h1.1c.55-.06,1.04.34,1.1.89,0,.07,0,.14,0,.21v21.4c.06.55-.34,1.04-.89,1.1-.07,0-.14,0-.21,0h-12.9c-1.1,0-1.4-.3-1.4-1.4v-10.44Zm12.5,2.7v-10.56c0-.5-.3-.8-.9-.8h-7.9c-.44-.06-.84.25-.9.69,0,.07,0,.14,0,.21v15.9c-.06.44.25.84.69.9.07,0,.14,0,.21,0h7.9c.44.06.84-.25.9-.69,0-.07,0-.14,0-.21v-5.44Z"/><path class="cls-42" d="m200.7,195.75h1.6c.4,0,.7,0,.8.4.14.28.14.62,0,.9-.8,1.3-1.7,2.6-2.5,3.9-.26.45-.83.63-1.3.4-.4-.3-.4-.8,0-1.3.5-.8,1-1.6,1.6-2.4.2-.2.1-.3-.2-.3h-1.4c-.7,0-1.1-.6-.7-1.1.7-1.2,1.5-2.3,2.3-3.5.15-.28.5-.38.77-.23.1.05.17.13.23.23.32.27.4.73.2,1.1-.3.5-.7,1-1,1.5,0,.1-.2.2-.2.5l-.2-.1Z"/><path class="cls-32" d="m202.3,211.15h2.4c.45-.04.85.29.9.74,0,.02,0,.04,0,.06v2.5h-2.5c-.4,0-.5.1-.5.5v3.5h-6.7v-4.1h6.2c.2,0,.5.1.5-.2,0-1,.3-2.06-.3-3Z"/><path class="cls-30" d="m202.1,228.95h-5.3c-.44.06-.84-.25-.9-.69,0-.07,0-.14,0-.21v-3.7h6.7v3.6c.05.4-.15.8-.5,1Z"/><path class="cls-31" d="m195.9,218.55h6.7v4.1h-6.7v-4.1Z"/><path class="cls-15" d="m202.3,211.15c.6,1,.2,2,.3,3,0,.3-.3.2-.5.2h-6.2v-2.26c-.06-.44.25-.84.69-.9.07,0,.14,0,.21,0l5.5-.04Z"/><path class="cls-45" d="m202.1,228.95c.4-.2.5-.5.5-1v-3.6h2.9v3.74c.03.46-.31.87-.78.9-.04,0-.08,0-.12,0h-2.5v-.04Z"/><path class="cls-35" d="m202.6,222.65v-4.1h2.9v4.1h-2.9Z"/><path class="cls-43" d="m205.6,218.55h-2.9v-3.46c0-.4.1-.5.5-.5h2.5v4l-.1-.04Z"/><path class="cls-45" d="m195.9,222.65h6.7v1.7h-6.7v-1.7Z"/><path class="cls-39" d="m202.6,224.35v-1.7h2.9v1.7h-2.9Z"/><path d="m165.8,194.95c2.1.33,3.53,2.3,3.2,4.4l-.3,1.6,3.5.5-.4,2.5-11-1.7.6-4.2c.28-2.11,2.21-3.59,4.32-3.31.03,0,.05,0,.08.01v.2Zm-.4,2.5c-.71-.16-1.42.28-1.58.99,0,.04-.01.07-.02.11l-.3,1.6,2.8.4.3-1.6c.12-.7-.36-1.37-1.06-1.48-.05,0-.09-.01-.14-.02h0Z"/><path d="m172.2,186.65l4.4,2.1-1,2.1-4.1-2c-.66-.37-1.5-.13-1.86.53-.01.02-.02.05-.04.07-.4.8-.2,1.5.8,2l3.9,1.9-1,2.1-10-4.9,1-2.1,3.5,1.7c-.31-.81-.28-1.72.1-2.5.73-1.48,2.53-2.09,4.02-1.36.1.05.19.1.28.16v.2Z"/><path d="m173.9,185.65c-1.68-1.57-1.77-4.21-.19-5.89,1.57-1.68,4.21-1.77,5.89-.19,1.68,1.57,1.77,4.21.2,5.89-1.55,1.68-4.17,1.79-5.85.25-.02-.02-.03-.03-.05-.05Zm4.1-4.4c-.74-.66-1.88-.59-2.54.15-.66.74-.59,1.88.15,2.54.72.64,1.82.6,2.49-.1.69-.7.69-1.83-.01-2.52-.03-.03-.06-.06-.09-.08Z"/><path d="m187.3,173.85l2.4,4.2-2.1,1.2-2.2-3.9c-.25-.66-.98-.99-1.64-.74-.09.04-.18.08-.26.14-.8.4-1,1.2-.5,2.2l2.1,3.8-2.1,1.2-3.9-6.9,2.1-1.2.4.6c0-.7.6-1.4,1.5-2,1.4-.8,3.1-.5,4.2,1.4Z"/><path d="m194.1,175.09c.56-.11,1.06-.44,1.4-.9l2.1.7c-1.12,2.17-3.79,3.02-5.96,1.9-1.11-.57-1.92-1.59-2.24-2.8-.55-2.19.78-4.4,2.97-4.95.08-.02.15-.04.23-.05,2.16-.48,4.29.89,4.77,3.04.01.05.02.1.03.16,0,.3.1.6.1,1l-5.5,1.2c.47.67,1.32.96,2.1.7Zm.8-3.1c-.36-.69-1.14-1.06-1.9-.9-.8.1-1.41.79-1.4,1.6l3.3-.7Z"/><path d="m211.7,174.15c-.38,2.17-2.42,3.63-4.6,3.3-.89-.17-1.65-.72-2.1-1.5l-.2.7-2.3-.5,2.4-10.8,2.3.5-.9,3.8c.71-.55,1.65-.7,2.5-.4,2.12.58,3.37,2.77,2.8,4.9h.1Zm-2.3-.5c.3-.94-.23-1.95-1.17-2.24-.08-.02-.15-.04-.23-.06-.99-.26-2.01.34-2.27,1.34-.01.05-.03.11-.03.16-.3.94.23,1.95,1.17,2.24.08.02.15.04.23.06.99.26,2.01-.34,2.27-1.34.01-.05.03-.11.03-.16Z"/><path d="m222.4,175.65l-4.1,6.8-2-1.2.4-.6c-.85.26-1.77.11-2.5-.4-1.84-1.38-2.22-3.99-.84-5.84,1.19-1.6,3.35-2.13,5.14-1.26.78.4,1.33,1.14,1.5,2l.4-.6,2,1.2v-.1Zm-4.1,2.2c.57-.82.37-1.94-.45-2.51-.05-.03-.1-.07-.15-.09-.89-.53-2.03-.24-2.57.64-.01.02-.02.04-.03.06-.52.88-.23,2.03.65,2.55.88.52,2.03.23,2.55-.65h0Z"/><path d="m225.2,181.55l-2,2c-.5.5-.1.9.7,1.6l-1.5,1.5c-2.4-2-2.4-3.3-.8-4.9l2-2-.9-.9,1.6-1.6.9.9,1.1-1.1,2.2,1.2-1.6,1.5,1.1,1.2-1.6,1.6-1.1-1.2-.1.2Z"/><path d="m229.1,186.55l-2.3,1.6c-.6.4-.3.9.3,1.7l-1.8,1.2c-2-2.4-1.7-3.7.1-4.9l2.3-1.6-.7-1.1,1.9-1.3.7,1.1,1.3-.8,1.9,1.6-1.8,1.2.9,1.4-1.9,1.3-.9-1.4Z"/><path d="m228.9,194.65c.2.53.59.96,1.1,1.2l-.4,2.2c-1.29-.39-2.31-1.41-2.7-2.7-.9-2.6.2-4.8,2.4-5.6,2.13-.82,4.53.24,5.35,2.37.02.04.03.09.05.13.76,2.08-.31,4.37-2.39,5.13-.07.03-.14.05-.21.07-.29.11-.59.18-.9.2l-1.9-5.3c-.63.55-.79,1.46-.4,2.2v.1Zm3.2.4c.65-.44.9-1.28.6-2-.18-.82-.98-1.35-1.8-1.2l1.2,3.2Z"/><path d="m236.8,203.55l-2.7.3c0-1-.5-2.3-2-2.2l-3.6.4-.2-2.4,7.9-.8.2,2.4h-1.4c1.01.38,1.72,1.32,1.8,2.4v-.1Z"/><path d="m235.7,213.65l-7.3-3.7c-2.4-1.2-3.2-2.7-2.8-4.9l2.2.3c-.1,1.1.1,1.7,1,2.1l7.9-2.1-.3,2.6-5,1.1,4.6,2.1-.3,2.5h0Z"/><circle class="cls-6" cx="54.98" cy="336.39" r="40.5"/><path d="m25.01,322.71c1.71.63,2.52,2.52,1.8,4.23l-.54,1.35,2.79,1.08-.81,1.98-8.82-3.42,1.26-3.33c.63-1.71,2.52-2.61,4.23-1.89h.09Zm-.81,1.98c-.63-.27-1.35,0-1.53.63l-.54,1.35,2.25.9.54-1.35c.27-.63,0-1.26-.72-1.53Z"/><path d="m31.58,316.86l3.33,2.43-1.17,1.62-3.06-2.25c-.63-.54-1.26-.27-1.71.18-.45.63-.36,1.26.36,1.8l2.97,2.16-1.17,1.62-7.65-5.58,1.17-1.62,2.7,1.98c-.18-.63,0-1.35.45-2.07.81-1.08,2.25-1.44,3.78-.36v.09Z"/><path d="m33.11,316.32c-1.26-1.62-.99-3.78.63-5.04,1.53-1.26,3.78-.99,5.04.54,1.26,1.62.99,3.78-.63,5.04-1.53,1.26-3.78.99-5.04-.54Zm4.05-3.15c-.63-.72-1.53-.81-2.25-.27s-.81,1.44-.27,2.25c.63.72,1.53.81,2.25.27s.81-1.44.27-2.25Z"/><path d="m45.71,307.95l1.62,3.78-1.89.81-1.53-3.51c-.36-.81-.99-.9-1.53-.63-.72.27-.99.9-.63,1.8l1.44,3.42-1.89.81-2.61-6.21,1.89-.81.27.54c.18-.63.63-1.17,1.44-1.53,1.26-.54,2.7-.09,3.42,1.62v-.09Z"/><path d="m51.29,309.48c.54,0,.99-.36,1.17-.72l1.71.72c-.54.99-1.44,1.62-2.7,1.8-2.25.36-3.96-.99-4.23-3.06-.27-1.98.99-3.69,3.06-4.05,1.98-.27,3.6,1.08,3.87,3.06v.81l-4.77.63c.36.63.99.81,1.71.72l.18.09Zm.9-2.61c-.36-.72-.99-.9-1.53-.9-.72.09-1.26.54-1.35,1.26l2.88-.36Z"/><path d="m55.97,305.79l5.13.54-.18,1.89-5.13-.54.18-1.89Z"/><path d="m69.47,310.83c-.72,1.89-2.61,2.79-4.32,2.16-.81-.36-1.35-.81-1.62-1.44l-.27.63-1.89-.72,3.33-8.82,1.89.72-1.17,3.15c.63-.36,1.35-.36,2.16,0,1.62.63,2.43,2.61,1.71,4.5l.18-.18Zm-1.89-.72c.36-.99,0-1.8-.9-2.07-.9-.36-1.71,0-2.07.99-.36.99,0,1.8.9,2.07.9.36,1.71,0,2.07-.99Z"/><path d="m70.46,311.46c1.17-1.62,3.42-1.89,5.04-.72,1.62,1.17,1.98,3.42.72,4.95-1.17,1.62-3.42,1.89-5.04.72-1.62-1.17-1.98-3.42-.72-4.95Zm4.14,3.06c.54-.81.45-1.71-.27-2.25s-1.62-.45-2.16.36-.45,1.71.27,2.25,1.62.45,2.16-.36Z"/><path d="m86.21,318.57l-7.47,5.76-1.26-1.62.54-.36c-.72,0-1.35-.36-1.89-1.08-1.08-1.44-.72-3.51.9-4.77s3.69-.99,4.77.36c.54.72.72,1.44.54,2.07l2.61-2.07,1.26,1.62v.09Zm-6.03,2.07c.81-.63.9-1.53.36-2.25s-1.44-.9-2.25-.27-.9,1.53-.36,2.25,1.44.9,2.25.27Z"/><path d="m87.83,328.47l-6.93.36c-2.25.09-3.51-.63-4.14-2.43l1.71-.72c.36.9.81,1.17,1.71,1.17l4.95-4.95.81,2.07-3.24,2.97,4.32-.45.81,1.98h0Z"/><path d="m91.43,333.33l-9.27,1.71-.36-2.16,7.02-1.26-.72-1.53,1.71-.81,1.35,2.25.36,1.89-.09-.09Z"/><path class="cls-46" d="m45.44,366.36c0-.18-.18-.09-.36-.18-1.8-.45-3.06-2.07-3.06-3.96v-34.92c0-2.43.99-3.78,3.24-4.5,0,0,.09,0,.09-.09h3.06v.09c.45,1.17.99,2.34,1.44,3.51.09.27.36.36.63.36h8.73c.36,0,.63-.18.72-.45.18-.45.36-.9.54-1.35.27-.72.63-1.35.81-2.16h2.97c.18.18.45.18.72.27,1.62.54,2.7,2.07,2.79,3.78v34.92c0,2.52-.99,3.87-3.42,4.68h-18.99.09Zm21.33-6.57h0v-30.42c0-.36-.27-.18-.45-.18h-22.95c-.36,0-.45.09-.45.45v30.06h23.67l.18.09Zm-11.79,2.79h-3.96c-.45,0-.63.18-.54.63,0,.36.36.45.63.45h7.74c.45,0,.63-.18.63-.54,0-.45-.27-.45-.63-.45h-3.87v-.09Z"/><path class="cls-36" d="m61.46,322.71c-.18.72-.54,1.44-.81,2.16-.18.45-.36.9-.54,1.35-.09.27-.36.54-.72.45h-8.73c-.27,0-.54-.09-.63-.36-.45-1.17-.99-2.34-1.44-3.51v-.09h12.96-.09Z"/><path class="cls-1" d="m43.19,359.79c-.18-.09,0-.27,0-.36v-29.7c0-.36,0-.45.45-.45h22.95c.18,0,.36-.18.45.18-.18,0-.27.18-.45.36-.36.45-.63.9-.99,1.26-1.26,1.62-2.61,3.33-3.87,4.95-.99,1.35-2.07,2.61-3.06,3.96-1.26,1.62-2.61,3.33-3.87,4.95-.99,1.35-2.07,2.61-3.06,3.96-1.35,1.8-2.79,3.51-4.14,5.31-.99,1.26-1.98,2.52-2.88,3.78-.45.63-.99,1.17-1.35,1.8h-.18Z"/><path class="cls-41" d="m43.19,359.79c.36-.63.9-1.17,1.35-1.8.99-1.26,1.98-2.52,2.88-3.78,1.35-1.8,2.79-3.51,4.14-5.31.99-1.35,2.07-2.61,3.06-3.96,1.26-1.62,2.61-3.33,3.87-4.95.99-1.35,2.07-2.61,3.06-3.96,1.26-1.62,2.61-3.33,3.87-4.95.36-.45.63-.81.99-1.26.09-.18.18-.27.45-.36v30.33h-23.67Z"/><path class="cls-23" d="m54.98,362.58h3.87c.36,0,.63,0,.63.45,0,.36-.18.54-.63.54h-7.74c-.27,0-.54,0-.63-.45,0-.36.09-.63.54-.63h3.96v.09Z"/><path d="m53.45,332.52h5.13v23.31h-5.94v-17.01l-4.05.99-1.44-5.04s6.3-2.25,6.3-2.25Z"/><circle class="cls-6" cx="248.34" cy="336.39" r="40.5"/><path d="m217.38,323.88c1.71.54,2.7,2.34,2.16,4.14l-.45,1.35,2.88.9-.63,2.07-9-2.79,1.08-3.42c.54-1.8,2.34-2.7,4.05-2.25h-.09Zm-.63,2.07c-.63-.18-1.26.09-1.53.72l-.45,1.35,2.34.72.45-1.35c.18-.63-.18-1.26-.81-1.44Z"/><path d="m223.5,317.58l3.51,2.25-1.08,1.71-3.24-2.07c-.72-.45-1.35-.18-1.71.36-.36.63-.27,1.26.54,1.8l3.15,1.98-1.08,1.71-8.01-5.04,1.08-1.71,2.79,1.8c-.18-.54-.18-1.35.36-2.07.72-1.17,2.16-1.62,3.69-.63v-.09Z"/><path d="m225.03,316.95c-1.35-1.53-1.17-3.69.27-5.04,1.44-1.35,3.69-1.26,5.04.27s1.17,3.69-.27,5.04c-1.44,1.35-3.69,1.26-5.04-.27Zm3.78-3.42c-.63-.72-1.53-.72-2.25-.18-.63.63-.72,1.53,0,2.25.63.72,1.53.72,2.25.18.63-.63.72-1.53,0-2.25Z"/><path d="m237,307.77l1.89,3.69-1.8.9-1.71-3.42c-.36-.72-.99-.9-1.62-.54s-.9.99-.45,1.8l1.71,3.33-1.8.9-3.06-6.03,1.8-.9.27.54c.09-.63.54-1.17,1.35-1.62,1.26-.63,2.7-.27,3.51,1.35h-.09Z"/><path d="m242.67,308.85c.54-.09.99-.45,1.17-.81l1.8.54c-.45.99-1.35,1.71-2.61,1.98-2.25.45-3.96-.72-4.41-2.7s.72-3.78,2.79-4.23c1.89-.36,3.69.81,4.05,2.79v.81l-4.68.99c.36.63,1.08.72,1.8.63h.09Zm.72-2.7c-.36-.72-.99-.9-1.62-.72-.72.18-1.17.63-1.26,1.35l2.88-.63Z"/><path d="m247.08,304.89l5.13.18v1.98l-5.22-.18v-1.98h.09Z"/><path d="m260.85,309.03c-.63,1.89-2.43,2.97-4.14,2.43-.9-.27-1.44-.72-1.71-1.35l-.18.63-1.98-.63,2.79-9,1.98.63-.99,3.15c.54-.36,1.26-.45,2.16-.18,1.71.54,2.61,2.43,2.07,4.32Zm-1.98-.63c.27-.99-.18-1.8-1.08-2.07s-1.71.18-1.98,1.08.18,1.8,1.08,2.07,1.71-.18,1.98-1.08Z"/><path d="m261.93,309.48c1.08-1.71,3.24-2.16,4.95-1.08,1.71,1.08,2.16,3.24,1.08,4.95-1.08,1.71-3.24,2.16-4.95,1.08-1.71-1.08-2.16-3.24-1.08-4.95Zm4.32,2.79c.54-.81.27-1.71-.45-2.16s-1.62-.27-2.16.54-.27,1.71.45,2.16,1.62.27,2.16-.54Z"/><path d="m278.13,315.51l-7.11,6.21-1.35-1.53.45-.45c-.72,0-1.35-.27-1.98-.99-1.17-1.35-.99-3.42.54-4.77,1.53-1.35,3.6-1.26,4.77,0,.63.72.81,1.35.72,2.07l2.52-2.16,1.35,1.53.09.09Zm-5.94,2.52c.72-.63.81-1.62.18-2.25-.63-.72-1.53-.81-2.34-.09s-.81,1.62-.18,2.25c.63.72,1.53.81,2.34.09Z"/><path d="m280.38,325.32l-6.93.81c-2.25.27-3.6-.45-4.32-2.16l1.71-.81c.45.81.9,1.08,1.71.99l4.59-5.31.99,1.98-3.06,3.15,4.23-.72.99,1.98.09.09Z"/><path d="m278.58,333.78c-2.07.45-3.42-.9-3.87-2.61-.36-1.35,0-2.79,1.26-3.69l1.44,1.62c-.54.36-.81.81-.63,1.62.18.9.72,1.17,1.35.99.54-.09.9-.63.72-1.44v-.45c-.09,0,.9-1.08.9-1.08l2.52,1.17-.81-3.33,1.98-.45,1.35,5.94-1.71.36-2.43-1.17c-.18,1.26-.9,2.25-2.16,2.52h.09Z"/><path class="cls-12" d="m238.89,366c0-.18-.27-.09-.36-.18-2.61-.63-4.32-2.79-4.32-5.49v-33.66c0-2.43,1.17-4.23,3.33-5.31.54-.27,1.26-.45,1.89-.45h8.82v8.28h-3.33c-1.98-.18-3.6-1.89-3.69-3.87,0-.99-.45-1.53-1.17-1.71-.45,0-.81,0-1.17.09-1.26.45-2.07,1.53-2.07,3.06v34.02c.18,1.53,1.53,2.61,2.97,2.52h8.37v2.61h-9.45l.18.09Z"/><path class="cls-26" d="m248.34,329.28v-8.28h9c2.43,0,4.77,2.34,5.04,4.68v34.65c0,2.7-1.71,4.95-4.32,5.58-.18,0-.36,0-.45.09h-9.36v-2.61h9.09c1.44-.36,2.34-1.53,2.34-3.06v-33.84c0-1.44-.99-2.7-2.43-2.88-1.08-.18-1.98.45-2.07,1.53,0,2.34-1.89,4.05-4.23,4.14h-2.79.18Z"/><path class="cls-20" d="m239.97,363.39c-1.53,0-2.79-.99-2.97-2.52v-34.02c0-1.53.72-2.61,2.07-3.06.36-.18.81-.18,1.17-.09.81.18,1.17.72,1.17,1.71,0,1.98,1.71,3.69,3.69,3.87h3.33v2.97h-7.02c-.81,0-1.35.54-1.35,1.35v12.69c0,.81.54,1.35,1.35,1.35h7.02v2.97c-.18,0-.45.09-.72,0h-6.39c-.18,0-.45,0-.63.09-.54.36-.81.99-.63,1.53s.72.9,1.35.9h7.02v2.97h-6.84c-.99,0-1.53.45-1.53,1.53v5.58l-.09.18Z"/><path class="cls-22" d="m239.97,363.39v-5.58c0-.99.45-1.53,1.53-1.53h6.84v7.02h-8.37v.09Z"/><path class="cls-17" d="m248.34,332.25v-2.97h2.79c2.34,0,4.14-1.71,4.23-4.14,0-1.08.9-1.71,2.07-1.53,1.44.27,2.43,1.53,2.43,2.88v33.75c0,1.53-.9,2.7-2.34,3.06h-.63v-5.04c0-1.62-.36-2.07-2.07-2.07h-6.39v-2.97h1.44c.63,0,1.26-.54,1.26-1.17s-.45-1.26-1.08-1.35c-.54-.09-1.08,0-1.62,0h0v-2.97h6.84c.9,0,1.53-.63,1.53-1.53v-12.24c0-4.05-.45-1.62-1.62-1.62h-6.75l-.09-.09Zm7.02,20.97c.72,0,1.35-.54,1.35-1.26s-.54-1.35-1.26-1.35h0c-.63,0-1.44.72-1.35,1.35,0,.54.36,1.26,1.26,1.26h0Z"/><path class="cls-28" d="m248.34,356.28h6.39c1.71,0,2.07.36,2.07,2.07v5.04h-8.46v-7.02h0v-.09Z"/><path class="cls-48" d="m248.34,332.25h6.75c1.08,0,1.62.54,1.62,1.62v12.24c0,.9-.63,1.53-1.53,1.53h-6.84v-15.3h0v-.09Z"/><path class="cls-19" d="m248.34,332.34v15.3h-7.02c-.81,0-1.35-.54-1.35-1.35v-12.69c0-.81.54-1.35,1.35-1.35h7.02v.09Z"/><path class="cls-34" d="m248.34,353.31h-7.02c-.63,0-1.17-.36-1.35-.9s.09-1.17.63-1.53c.18-.09.36-.09.63-.09h7.11v2.61h0v-.09Z"/><path class="cls-14" d="m248.34,353.22v-2.61h1.62c.63.18,1.08.72,1.08,1.35s-.63,1.17-1.26,1.17h-1.44v.09Z"/><path class="cls-44" d="m255.36,353.22c-.9,0-1.26-.72-1.26-1.26,0-.63.72-1.35,1.35-1.35.72,0,1.35.63,1.26,1.35h0c0,.72-.54,1.26-1.35,1.26Z"/><path d="m251.4,343.77c1.53.45,2.7,1.26,3.6,2.43s1.35,2.52,1.35,4.14c0,2.52-.81,4.41-2.43,5.76-1.62,1.35-3.69,2.07-6.12,2.07s-3.69-.45-5.13-1.35-2.61-2.16-3.24-3.96l5.22-2.97c.45,1.62,1.53,2.43,3.24,2.43s1.53-.18,1.98-.63c.45-.36.72-.9.72-1.62s-.27-1.17-.72-1.62c-.45-.36-1.08-.54-1.98-.54h-1.26l-2.34-3.42,3.69-4.59h-7.83v-5.67h15.12v4.68l-3.87,4.77v.09Z"/><circle class="cls-6" cx="151.66" cy="336.39" r="40.5"/><path d="m121.6,322.35c1.71.63,2.52,2.52,1.89,4.23l-.54,1.35,2.79,1.08-.72,1.98-8.82-3.33,1.26-3.33c.63-1.71,2.52-2.61,4.23-1.98h-.09Zm-.72,1.98c-.63-.27-1.35,0-1.53.63l-.45,1.35,2.25.81.54-1.35c.27-.63-.09-1.26-.72-1.53l-.09.09Z"/><path d="m128.08,316.5l3.33,2.43-1.17,1.62-3.15-2.25c-.72-.45-1.26-.27-1.71.27-.45.63-.36,1.26.36,1.8l2.97,2.16-1.17,1.62-7.65-5.58,1.17-1.62,2.7,1.98c-.18-.63,0-1.35.45-2.07.81-1.08,2.25-1.44,3.78-.45l.09.09Z"/><path d="m129.7,315.87c-1.26-1.53-.99-3.78.54-5.04s3.78-.99,5.04.54.99,3.78-.54,5.04-3.78.99-5.04-.54Zm3.96-3.24c-.63-.72-1.53-.81-2.25-.27s-.81,1.44-.18,2.25c.63.72,1.53.81,2.25.27s.81-1.44.18-2.25Z"/><path d="m142.12,307.41l1.62,3.78-1.89.81-1.53-3.51c-.36-.81-.99-.9-1.53-.63-.72.27-.99.9-.63,1.8l1.44,3.42-1.89.81-2.7-6.21,1.89-.81.27.54c.09-.63.63-1.17,1.44-1.53,1.26-.54,2.7-.09,3.42,1.53h.09Z"/><path d="m147.7,308.94c.54,0,.99-.36,1.17-.72l1.71.72c-.54.99-1.44,1.62-2.7,1.8-2.25.36-3.96-.99-4.23-2.97s.9-3.78,3.06-4.05c1.98-.27,3.6.99,3.87,3.06v.81l-4.77.72c.36.63.99.81,1.71.72l.18-.09Zm.9-2.61c-.36-.72-.99-.9-1.53-.81-.72.09-1.17.54-1.26,1.26l2.88-.45h-.09Z"/><path d="m152.38,305.16l5.13.54-.18,1.98-5.13-.54.18-1.89v-.09Z"/><path d="m165.97,310.11c-.72,1.89-2.61,2.88-4.23,2.25-.81-.27-1.35-.81-1.62-1.44l-.18.63-1.89-.72,3.24-8.82,1.89.72-1.17,3.15c.63-.36,1.35-.36,2.16,0,1.62.63,2.52,2.61,1.8,4.5v-.27Zm-1.89-.72c.36-.99,0-1.8-.9-2.07-.9-.36-1.71,0-2.07.99-.36.99,0,1.8.9,2.07.9.36,1.71,0,2.07-.99Z"/><path d="m166.96,310.65c1.17-1.62,3.42-1.89,4.95-.72s1.98,3.33.81,4.95c-1.17,1.62-3.42,1.89-4.95.72-1.62-1.17-1.98-3.33-.81-4.95Zm4.14,3.06c.54-.81.36-1.71-.27-2.16-.72-.54-1.62-.45-2.16.36s-.36,1.71.27,2.16c.72.54,1.62.45,2.16-.36Z"/><path d="m182.8,317.67l-7.47,5.85-1.26-1.62.54-.36c-.72,0-1.35-.36-1.89-1.08-1.08-1.35-.72-3.51.81-4.77,1.62-1.26,3.69-1.08,4.77.36.54.72.72,1.44.63,2.07l2.61-2.07,1.26,1.62Zm-6.03,2.16c.81-.63.9-1.53.27-2.25-.54-.72-1.53-.9-2.25-.27-.81.63-.9,1.53-.27,2.25.54.72,1.53.9,2.25.27Z"/><path d="m184.51,327.57l-6.93.45c-2.25.18-3.51-.63-4.14-2.43l1.71-.72c.36.9.81,1.17,1.71,1.08l4.86-4.95.9,2.07-3.24,2.97,4.32-.45.81,1.98h0Z"/><path d="m179.74,329.73l3.78,2.61c.63.45,1.26.81,1.8.72.63-.09.9-.54.81-1.17s-.63-1.08-1.26-1.17l.72-1.98c1.44.36,2.34,1.53,2.52,2.79.27,1.71-.63,3.33-2.43,3.6-1.08.18-2.16-.27-3.15-.99l-1.8-1.26.54,3.15-2.07.36-.99-6.39,1.53-.27Z"/><path class="cls-40" d="m156.52,322.17h5.49c1.53,0,2.97,1.44,3.06,2.97v37.26c0,1.71-.81,2.88-2.25,3.42-.36.09-.72.18-.99.18h-20.34c-1.8,0-3.33-1.53-3.33-3.33v-3.6h1.62v3.6c0,1.08.72,1.71,1.8,1.71h19.98c1.08,0,1.8-.72,1.8-1.8v-36.9c0-1.08-.72-1.8-1.71-1.8h-4.14c0-.72-.63-1.17-.99-1.71Z"/><path class="cls-11" d="m156.52,322.17c.36.54.9.99.99,1.62h-15.57c-1.53,0-2.16.63-2.16,2.16v33.03h-1.62v-33.21c0-1.53.63-2.7,2.07-3.33.36-.18.72-.27,1.17-.27h15.21-.09Z"/><path class="cls-52" d="m139.78,359.07v-33.03c0-1.53.63-2.16,2.16-2.16h15.66v32.4c0,1.53-1.17,2.79-2.7,2.79h-15.12Zm11.79-30.15h3.24c.99,0,1.8-.72,1.8-1.62,0-.99-.72-1.71-1.8-1.71h-6.48c-.99,0-1.8.72-1.8,1.62,0,.99.72,1.71,1.8,1.71h3.24Zm-3.78,20.61c.18,0,.45-.18.54-.27l8.28-8.28c.18-.18.36-.45.27-.72s-.18-.54-.54-.63c-.36-.09-.72,0-.99.27-2.7,2.7-5.49,5.49-8.19,8.19l-.18.18c-.18.27-.18.54,0,.81.18.27.45.45.81.45h0Zm5.13-9.99c0-.36-.27-.63-.54-.81-.45-.18-.72,0-.99.36l-4.95,4.95c-.45.45-.45.99,0,1.26s.9.36,1.26,0c1.71-1.62,3.33-3.33,5.04-4.95.18-.18.27-.36.36-.63h0l-.18-.18Z"/><path class="cls-33" d="m139.87,359.07h15.03c1.62,0,2.7-1.17,2.7-2.79v-32.4h4.05c1.08,0,1.71.72,1.71,1.8v36.9c0,1.08-.72,1.8-1.8,1.8h-19.98c-.99,0-1.71-.63-1.8-1.71v-3.6h.09Zm11.79,2.79h-4.86c-.63,0-1.08.27-1.08.81s.36.9.99.9h9.72c.63,0,1.08-.36.99-.81s-.36-.81-1.08-.81h-4.86l.18-.09Z"/><path class="cls-29" d="m151.57,328.92h-3.24c-1.08,0-1.8-.72-1.8-1.71s.72-1.62,1.8-1.62h6.48c1.08,0,1.8.72,1.8,1.71s-.81,1.62-1.8,1.62h-3.24Z"/><path class="cls-24" d="m147.79,349.53c-.36,0-.63-.18-.81-.45-.18-.27-.09-.63,0-.81l.18-.18c2.7-2.7,5.49-5.49,8.19-8.19.27-.27.63-.36.99-.27.36.09.45.36.54.63s0,.54-.27.72l-8.28,8.28c-.18.18-.36.27-.54.27Z"/><path class="cls-16" d="m151.57,361.77h4.86c.63,0,1.08.27,1.08.81s-.36.81-.99.81h-9.72c-.63,0-1.08-.36-.99-.9s.36-.81,1.08-.81h4.86l-.18.09Z"/><path d="m143.02,356.46v-4.32l7.74-8.19c.81-.81,1.35-1.53,1.71-2.07s.54-1.08.54-1.53-.18-1.08-.54-1.44-.9-.54-1.53-.54c-1.35,0-2.43.81-3.15,2.43l-5.13-2.88c.72-1.71,1.89-3.06,3.33-3.96,1.44-.9,3.06-1.35,4.86-1.35s4.14.63,5.67,1.98c1.62,1.35,2.34,3.15,2.34,5.4s-.36,2.61-.99,3.78c-.63,1.17-1.53,2.34-2.79,3.6l-3.15,3.33h7.29v5.76h-16.29.09Z"/><path class="cls-47" d="m356.18,332.08c.5,0,.99.02,1.49.02.84,0,1.54.69,1.55,1.54,0,.78,0,1.56,0,2.33,0,6.58,0,13.16,0,19.75,0,.43-.02.86-.15,1.28-.15.49-.75.93-1.27.93-5.57,0-11.15,0-16.72,0-.03,0-.05,0-.08,0,0-1.51,0-3.03,0-4.54,1.16,0,2.32,0,3.48-.01.15,0,.32.04.32-.21,0-.57.05-1.16-.08-1.71-.36-1.48-.79-2.95-1.17-4.43-.1-.4-.22-.79-.36-1.18-.22-.61.19-.92.56-1.25.6-.55.85-1.24.99-2.03.3-1.66-1.1-3.65-2.68-4.16-.05-.09-.12-.13-.22-.08-.08-.02-.16-.04-.24-.05-.04-.05-.08-.07-.14-.03-.15-.02-.31-.04-.46-.07,0-2.01,0-4.03,0-6.04,2.86,0,5.71,0,8.57-.02.18,0,.36-.01.53-.02,1.02.03,2.04.05,3.07,0,1,.06,2,.04,3.01,0Z"/><path class="cls-25" d="m341,353.37c0,1.51,0,3.03,0,4.54-.57,0-1.15.01-1.72.01-4.86,0-9.72-.02-14.58.02-1.28.01-1.94-.69-1.94-1.94.04-7.44.03-14.88,0-22.32,0-.89.72-1.6,1.57-1.59.5,0,.99-.01,1.49-.02,1,.03,2,.05,3-.01,1.02.06,2.04.03,3.06.01.17,0,.33.02.5.02,2.87,0,5.74,0,8.61.01,0,2.01,0,4.03,0,6.04-.32.15-.68.08-1.02.21-1.42.55-2.36,1.51-2.7,3.02-.06.03-.11.07-.03.14-.11,1.25.02,2.39,1.14,3.22.35.26.49.65.35,1.14-.09.3-.2.59-.27.9-.2.84-.42,1.66-.64,2.49-.16.61-.35,1.22-.5,1.83-.15.61-.11,1.23-.13,1.85-.01.31.07.42.4.41,1.14-.02,2.27,0,3.41,0Z"/><path class="cls-37" d="m328.83,332.07c-1,.06-2,.04-3,.01,0-2.7-.02-5.41.02-8.11.02-1.25.19-2.49.55-3.71.44-1.46,1.06-2.83,1.9-4.1,1.05-1.58,2.35-2.94,3.9-4.05,1.02-.73,2.09-1.38,3.27-1.78,1.17-.41,2.35-.81,3.61-.9.71-.05,1.41-.16,2.12-.14,1.77.03,3.47.38,5.13,1,1.65.62,3.14,1.52,4.5,2.65,1.17.97,2.13,2.12,2.94,3.4.58.9,1.03,1.86,1.42,2.87.21.55.36,1.12.55,1.68.17.51.21,1.06.27,1.6.35,3.19.08,6.39.17,9.58-1,.04-2,.05-3,0,0-2.28-.02-4.57.01-6.85.02-1.31-.15-2.6-.47-3.87-.45-1.78-1.28-3.39-2.48-4.76-1.47-1.68-3.26-2.95-5.42-3.64-1.53-.49-3.08-.64-4.69-.54-1.49.09-2.89.44-4.22,1.06-2.21,1.03-3.95,2.61-5.24,4.69-1.11,1.79-1.72,3.76-1.8,5.84-.1,2.69-.02,5.38-.02,8.08Z"/><path class="cls-13" d="m350.11,332.08c0-2.42.02-4.85,0-7.27-.01-1.29-.19-2.56-.71-3.76-.41-.95-.96-1.81-1.64-2.6-1.01-1.18-2.27-1.99-3.7-2.51-1.32-.48-2.7-.64-4.13-.46-.87.11-1.71.31-2.49.65-2.18.95-3.78,2.51-4.77,4.69-.46,1.02-.65,2.09-.7,3.2-.13,2.69-.02,5.38-.06,8.06-1.02.02-2.04.04-3.06-.01,0-2.69-.08-5.39.02-8.08.08-2.08.68-4.05,1.8-5.84,1.29-2.08,3.03-3.66,5.24-4.69,1.33-.62,2.73-.97,4.22-1.06,1.61-.09,3.16.06,4.69.54,2.16.69,3.94,1.95,5.42,3.64,1.2,1.38,2.03,2.98,2.48,4.76.32,1.27.49,2.55.47,3.87-.03,2.28-.01,4.57-.01,6.85-1.02.05-2.04.04-3.07,0Z"/><path class="cls-27" d="m341,353.37c-1.14,0-2.27-.02-3.41,0-.33,0-.41-.1-.4-.41.02-.62-.01-1.25.13-1.85.15-.62.34-1.22.5-1.83.22-.83.44-1.66.64-2.49.07-.31.18-.6.27-.9.14-.49,0-.88-.35-1.14-1.12-.83-1.25-1.97-1.14-3.22.06-.03.06-.08.03-.14.34-1.51,1.28-2.47,2.7-3.02.34-.13.7-.05,1.02-.21.15.02.31.04.46.07.03.08.07.12.14.03.08.02.16.04.24.05.04.11.14.08.22.08,1.58.51,2.98,2.5,2.68,4.16-.14.79-.4,1.48-.99,2.03-.36.33-.78.65-.56,1.25.14.39.25.78.36,1.18.38,1.48.81,2.94,1.17,4.43.13.55.09,1.14.08,1.71,0,.25-.17.21-.32.21-1.16,0-2.32,0-3.48.01Z"/><path class="cls-13" d="m342.07,338.39c-.09,0-.18.03-.22-.08.1-.05.17,0,.22.08Z"/><path class="cls-13" d="m341.6,338.25c-.07.09-.11.05-.14-.03.06-.03.1-.02.14.03Z"/><path class="cls-37" d="m337.28,341.38c.03.06.03.1-.03.14-.08-.07-.03-.1.03-.14Z"/><circle class="cls-4" cx="341.13" cy="335.91" r="39.02"/><line class="cls-2" x1="196.61" y1="252.6" x2="196.53" y2="271.25"/><line class="cls-2" x1="59.04" y1="270.68" x2="340.96" y2="270.68"/><line class="cls-7" x1="59.47" y1="270.48" x2="59.47" y2="279.8"/><polygon class="cls-49" points="52.99 277.91 59.47 289.13 65.96 277.91 52.99 277.91"/><line class="cls-7" x1="153.14" y1="270.48" x2="153.14" y2="279.8"/><polygon class="cls-49" points="146.66 277.91 153.14 289.13 159.62 277.91 146.66 277.91"/><line class="cls-7" x1="246.81" y1="270.48" x2="246.81" y2="279.8"/><polygon class="cls-49" points="240.33 277.91 246.81 289.13 253.29 277.91 240.33 277.91"/><line class="cls-7" x1="340.47" y1="270.48" x2="340.47" y2="279.8"/><polygon class="cls-49" points="333.99 277.91 340.47 289.13 346.96 277.91 333.99 277.91"/></svg>