<?xml version="1.0" encoding="UTF-8"?><svg id="Layer_1" xmlns="http://www.w3.org/2000/svg" viewBox="0 0 400 261"><defs><style>.cls-1{stroke:#a5262d;}.cls-1,.cls-2,.cls-3{stroke-width:4px;}.cls-1,.cls-2,.cls-3,.cls-4{fill:none;stroke-miterlimit:10;}.cls-5{fill:#435256;}.cls-2{stroke:#000;}.cls-6{fill:#f0ca6f;}.cls-7{fill:#fff;}.cls-8{fill:#e2bb64;}.cls-9{fill:#546e7a;}.cls-10{fill:#fcc472;}.cls-11{fill:#2d3b3d;}.cls-12{fill:#222;}.cls-3{stroke:#c000e2;}.cls-13{fill:#fbc372;}.cls-14{fill:#ffed58;}.cls-15{fill:#424240;}.cls-4{stroke:#231f20;stroke-width:2px;}.cls-16{fill:#36464e;}.cls-17{fill:#212121;}.cls-18{fill:#788f9b;}.cls-19{fill:#fdc472;}.cls-20{fill:#f0f3f2;}.cls-21{fill:#fbd734;}.cls-22{fill:#231f20;}.cls-23{fill:#f99e3d;}</style></defs><line class="cls-7" x1="164.32" y1="105.61" x2="115.68" y2="144.92"/><line class="cls-4" x1="164.32" y1="105.61" x2="124.05" y2="138.15"/><polygon class="cls-22" points="121.05 130.96 115.68 144.92 130.45 142.6 121.05 130.96"/><line class="cls-7" x1="235.68" y1="108.61" x2="284.32" y2="147.92"/><line class="cls-4" x1="235.68" y1="108.61" x2="275.95" y2="141.15"/><polygon class="cls-22" points="269.55 145.6 284.32 147.92 278.95 133.96 269.55 145.6"/><circle class="cls-1" cx="200" cy="59" r="45"/><path class="cls-12" d="m187.6,41.7c.5.2.7.7.7,1.2v5.4h-1.9v-5.3c0-.5.2-1,.6-1.2h.6v-.1Z"/><path class="cls-12" d="m206.7,41.7c.4.2.7.7.6,1.2v5.4h-1.9v-5.3c0-.5.2-1,.6-1.2h.6l.1-.1Z"/><path class="cls-12" d="m211.8,48.3v-5.3c0-.5.2-1,.6-1.2h.6c.4.2.7.7.6,1.1v5.4h-1.9.1Z"/><path class="cls-12" d="m227.6,69.8c-.3.4-.8.6-1.3.5h-5.3v-1.9h5.4c.5,0,.9.2,1.1.6v.8h.1Z"/><path class="cls-12" d="m200.3,41.7c.4.2.7.7.6,1.2v5.4h-1.9v-5.5c0-.5.2-.9.7-1.1h.6Z"/><path class="cls-12" d="m188.3,90.4v5.1c0,.7-.1,1.2-.9,1.4h-.3c-.5-.3-.7-.9-.7-1.5v-5.1h1.9v.1Z"/><path class="cls-12" d="m207.4,90.4v5.2c.1.6-.3,1.2-.8,1.4h-.3c-.5-.3-.8-.9-.7-1.5v-5.1h1.9-.1Z"/><path class="cls-12" d="m212.5,97c-.5-.3-.7-.9-.7-1.5v-5.1h1.9v5.1c0,.7-.1,1.2-.9,1.4h-.3v.1Z"/><path class="cls-12" d="m178.9,57.5h-5.5c-.4,0-.9-.2-1.1-.6v-.8c.3-.4.8-.5,1.3-.5h5.3v1.9Z"/><path class="cls-12" d="m172.4,81.7c.2-.4.6-.6,1.1-.6h5.5v1.9h-5.3c-.5,0-1-.1-1.3-.5v-.8Z"/><path class="cls-12" d="m221.1,81.1c1.4.1,2.8,0,4.3,0h1.2c.4,0,.9.2,1.1.6v.6c-.2.4-.7.6-1.1.6h-5.5v-1.9.1Z"/><path class="cls-12" d="m178.9,63.9h-5.5c-.4,0-.9-.2-1.1-.6v-.7c.2-.4.6-.6,1.1-.6h5.5v1.9Z"/><path class="cls-12" d="m192.7,48.3v-5.4c0-.5.2-.9.6-1.2h.6c.4.2.6.7.6,1.2v5.4h-1.8Z"/><path class="cls-12" d="m221.1,74.8h5.5c.4,0,.9.2,1.1.6v.6c-.2.4-.6.6-1.1.6h-5.5v-1.9.1Z"/><path class="cls-12" d="m227.6,63.3c-.2.4-.6.6-1.1.6h-5.5v-1.9h5.5c.4,0,.9.2,1.1.6v.7Z"/><path class="cls-12" d="m178.9,70.2h-5.3c-.5,0-1-.2-1.2-.6v-.6c.3-.4.8-.6,1.2-.6h5.3v1.8Z"/><path class="cls-12" d="m172.4,75.4c.2-.4.6-.6,1.1-.6h5.5v1.8h-5.5c-.4,0-.9-.2-1.1-.6v-.7.1Z"/><path class="cls-12" d="m227.6,56.9c-.3.4-.8.6-1.3.6h-4.6c-1.5,0-.4,0-.6,0v-1.9c1.4.1,2.9,0,4.3,0h1c.5,0,1,.2,1.2.7v.6Z"/><path class="cls-17" d="m193.4,97c-.5-.3-.8-.8-.7-1.4v-4.6c0-1.5,0-.4,0-.6h1.9c-.1,1.2,0,2.4,0,3.6v1.6c.1.6-.2,1.2-.8,1.3h-.3l-.1.1Z"/><path class="cls-17" d="m199.8,97c-.5-.3-.7-.8-.7-1.3v-5.2h1.8v5.3c0,.6-.2,1.1-.8,1.3h-.3v-.1Z"/><path class="cls-15" d="m200.9,90.4h-21.2c-.6,0-.8-.3-.8-.9v-40.3c0-.6.3-.9.9-.9h40.4c.6,0,.8.3.8.9v40.4c0,.6-.3.9-.8.9h-19.4l.1-.1Zm-.9-7.1h13.3c.5,0,.6-.1.6-.6v-26.7c0-.5-.1-.6-.6-.6h-26.7c-.5,0-.6.1-.6.6v26.7c0,.5.1.6.6.6h13.4Z"/><path class="cls-17" d="m200,83.3h-13.3c-.5,0-.6-.1-.6-.6v-26.7c0-.5.1-.6.6-.6h26.7c.5,0,.6.1.6.6v26.7c0,.5-.2.6-.6.6h-13.4Zm-9.4-13.9c0,5.2,4.2,9.4,9.4,9.4s9.4-4.2,9.4-9.4-4.2-9.4-9.4-9.4-9.4,4.2-9.5,9.4h.1Z"/><path class="cls-20" d="m190.6,69.3c0-5.2,4.2-9.4,9.4-9.4s9.4,4.2,9.4,9.4-4.2,9.4-9.4,9.4h0c-5.2,0-9.4-4.2-9.4-9.4h0Zm8.7,6.8c.1-.1.2-.2.3-.4,1.1-1.7,2.2-3.5,3.3-5.2l1.3-2.1h-2.7c-.4,0-.5-.1-.5-.5v-5.4c-.5.7-1,1.3-1.4,2.1l-3.2,5.1c0,.1-.2.2-.2.4s.3,0,.4,0h2.1c.4,0,.6.1.6.6v5.3c0,.1,0,0,0,0v.1Z"/><path class="cls-6" d="m199.2,74.2v-3.4c0-.5-.1-.6-.6-.6h-2.1c-.7,0-.4,0-.4,0,0,0,0-.3.2-.4l3.2-5.1c.4-.7.9-1.4,1.4-2.1v5.4c0,.4.1.5.5.5h1.6c-.9,1.4-1.8,2.8-2.7,4.2-.3.5-.6,1-1.1,1.5Z"/><path class="cls-8" d="m199.2,74.2c.4-.4.8-.9,1-1.5.9-1.4,1.8-2.8,2.7-4.2h1.1l-1.3,2.1c-1.1,1.7-2.2,3.5-3.3,5.2,0,.1-.2.3-.3.4h0v-1.9l.1-.1Z"/><path d="m166.8,43.7c2.3.8,3.5,3.2,2.7,5.5l-.6,1.8,3.7,1.3-.9,2.7-11.9-4,1.5-4.5c.8-2.3,3.2-3.5,5.5-2.8Zm-.9,2.7c-.9-.3-1.7,0-2,.9l-.6,1.8,3.1,1,.6-1.8c.3-.8-.2-1.7-1-2l-.1.1Z"/><path d="m170.5,36.6l2.6,1.7c-.8.8-1.3,2.4.2,3.4l3.4,2.3-1.5,2.2-7.5-5,1.5-2.2,1.3.9c-.8-1-.6-2.3,0-3.2v-.1Z"/><path d="m174.8,38.3c-1.8-2-1.6-4.9.4-6.7,2-1.8,4.9-1.6,6.7.4s1.6,4.9-.4,6.7c-2,1.8-4.9,1.6-6.7-.4Zm5.1-4.5c-.9-1-2.1-1-2.9-.2-.9.8-1,2-.1,3s2.1,1,2.9.2c.9-.8,1-2,.1-3Z"/><path d="m183.2,31.2c-1.1-2.4-.1-5.2,2.3-6.3,1.6-.7,3.4-.5,4.6.4l-1.6,2.2c-.5-.4-1.3-.5-2-.2-1.1.5-1.5,1.6-1,2.7s1.6,1.5,2.7,1.1c.7-.3,1.2-.9,1.2-1.6l2.7.3c-.1,1.6-1.1,3.1-2.7,3.8-2.5,1.1-5.2,0-6.3-2.4h.1Z"/><path d="m197.4,28.9c.7,0,1.3-.5,1.6-.9l2.3.9c-.7,1.3-1.9,2.1-3.6,2.4-3,.4-5.2-1.4-5.5-4-.4-2.7,1.3-5,4.1-5.4,2.6-.4,4.8,1.4,5.1,4.1v1.1l-6.3.9c.5.9,1.3,1.1,2.3,1v-.1Zm1.2-3.5c-.4-1-1.3-1.3-2.1-1.2-1,.1-1.6.7-1.7,1.7l3.8-.5Z"/><path d="m209.5,28.9c-.3,2.1-2.2,2.7-4.1,2.4-1.8-.2-3-1.1-3.5-2.6l2.5-1c.1.7.6,1.2,1.4,1.3.6,0,1,0,1-.4.1-1-4.3-1.1-3.9-4.1.3-1.9,2-2.7,3.9-2.5,1.4.2,2.6,1,3.2,2.4l-2.4.9c-.2-.5-.5-.9-1.1-.9-.5,0-.8,0-.8.4-.1,1,4.3.9,3.9,4.2l-.1-.1Z"/><path d="m216.8,31.7c-.7,1.9-2.7,2.1-4.5,1.4-1.7-.6-2.7-1.8-2.8-3.4l2.6-.4c0,.7.3,1.3,1,1.5.6.2,1,.2,1.1-.2.4-.9-3.9-2-2.8-4.9.7-1.8,2.6-2.2,4.3-1.5,1.4.5,2.3,1.6,2.6,3.1l-2.6.3c0-.5-.3-1-.8-1.2-.4-.2-.8-.1-.9.2-.4,1,4,1.9,2.8,5v.1Z"/><path d="m218.7,30.5c1.6-2.1,4.6-2.5,6.6-.9,2.1,1.6,2.5,4.5.9,6.6s-4.6,2.5-6.6.9c-2.1-1.6-2.5-4.5-.9-6.6Zm5.4,4.1c.8-1,.6-2.2-.3-2.9-.9-.7-2.1-.6-2.9.4s-.6,2.2.3,2.9c.9.7,2.1.6,2.9-.4Z"/><path d="m234.3,39.2l-2.4,1.9c-.5-1-1.9-2-3.3-.9l-3.2,2.5-1.6-2.1,7.1-5.5,1.6,2.1-1.3,1c1.2-.5,2.4.1,3,1h.1Z"/><path d="m232.7,50.3c-1.9.9-3.4-.4-4.3-2.1-.8-1.6-.7-3.1.3-4.4l2.2,1.5c-.5.5-.6,1.1-.3,1.8.3.6.6.8.9.6.9-.4-1.5-4.2,1.4-5.5,1.8-.8,3.4.2,4.2,1.9.6,1.3.6,2.7-.3,4l-2.1-1.5c.3-.4.5-.9.2-1.4-.2-.4-.5-.6-.8-.5-.9.4,1.6,4.1-1.4,5.5v.1Z"/><circle class="cls-3" cx="101.95" cy="199" r="45"/><path d="m69.15,196.5l-.7-2.3c.9-.2,1.7-.6,1.9-1.8.3-1.1-.1-1.5-.5-1.6-.6-.2-1,.4-1.8,1.8-.8,1.4-1.9,2.7-3.8,2.2-2-.5-2.7-2.4-2.3-4.2.4-1.7,1.5-2.8,3.2-3.2l.7,2.2c-.8.2-1.4.5-1.6,1.5-.2.7,0,1.2.5,1.3s.8,0,1.7-1.5c.8-1.4,1.8-3,4-2.5,2,.5,2.7,2.3,2.2,4.5-.5,2.1-1.9,3.3-3.5,3.5v.1Z"/><path d="m70.25,187.1c-1.9-1.1-2.6-3.5-1.5-5.4,1.1-1.9,3.5-2.6,5.4-1.5,1.9,1.1,2.6,3.5,1.5,5.4s-3.5,2.6-5.4,1.5Zm2.8-5c-.9-.5-1.9-.2-2.4.6s-.2,1.8.7,2.4c.9.5,1.9.2,2.4-.6s.2-1.8-.7-2.4Z"/><path d="m74.95,179.2c-1.6-1.6-1.7-4,0-5.6,1-1,2.5-1.4,3.7-1.1l-.5,2.2c-.6-.2-1.2,0-1.6.5-.7.7-.7,1.7,0,2.4.7.7,1.8.7,2.4,0,.5-.5.6-1.1.4-1.6l2.2-.6c.4,1.3,0,2.7-1,3.8-1.6,1.6-4,1.7-5.6,0Z"/><path d="m92.55,171.8l-1.3-.5c-.5.8-1.2,1.4-2.2,1.8-2,.9-3.9.4-4.7-1.4-.5-1.1-.4-2.4.3-3.4-.4-.3-.8-.7-1.1-1.3-.7-1.6,0-3.4,1.9-4.2,1.4-.6,2.9-.4,4.1.7l-1.4,1.9c-.5-.5-1.1-.8-1.7-.5-.5.2-.8.7-.6,1.2s.7.7,1.4,1l2.6,1.2c0-.5,0-1.1-.2-1.7l2.3.2c.1.8.1,1.6,0,2.4l1.8.8-1.3,1.7.1.1Zm-3.2-1.4l-2.6-1.1h-.1c-.2.4-.2.9,0,1.2.3.6.9.9,1.9.5.4-.2.6-.4.9-.6h-.1Z"/><path d="m108.45,170.3h-2.4c0-.1.3-6.2.3-6.2l-2.9,4.3h-.3l-2.5-4.6-.3,6.1h-2.4c0-.1.5-10.6.5-10.6h2.4c0,.1,2.6,4.9,2.6,4.9l3.1-4.5h2.4c0,.1-.5,10.6-.5,10.6Z"/><path d="m113.55,170.4c.6.2,1.2.2,1.5,0l1.3,1.6c-1,.7-2.3.8-3.6.3-2.4-.9-3.3-3.1-2.5-5.2s2.9-3.1,5.1-2.3c2,.8,3,2.9,2.2,5-.1.3-.2.6-.4.8l-5-1.9c0,.8.5,1.3,1.3,1.6l.1.1Zm2.3-2.1c0-.9-.4-1.4-1.1-1.7-.8-.3-1.5-.1-1.9.5l3,1.1v.1Z"/><path d="m128.45,177l-2.9,3.6-1.7-1.4,2.8-3.4c.5-.6.5-1.2,0-1.6-.6-.5-1.2-.3-1.8.3l-2.7,3.3-1.7-1.4,2.8-3.4c.5-.6.5-1.2,0-1.6-.6-.5-1.2-.3-1.8.3l-2.7,3.3-1.7-1.4,4.8-5.8,1.7,1.4-.4.5c.6-.2,1.3,0,2.1.6.7.6,1,1.3.9,2,.7-.2,1.5,0,2.3.6,1.3,1.1,1.4,2.8.2,4.2l-.2-.1Z"/><path d="m128.75,179c1.9-1.2,4.3-.6,5.5,1.3,1.2,1.9.6,4.3-1.3,5.5-1.9,1.2-4.3.6-5.5-1.3-1.2-1.9-.6-4.3,1.3-5.5Zm3,4.8c.9-.6,1.1-1.6.6-2.4-.5-.8-1.5-1.1-2.4-.5-.9.6-1.1,1.6-.6,2.4s1.5,1.1,2.4.5Z"/><path d="m138.65,190.2l-2.4.8c-.2-.9-1-2-2.4-1.6l-3.2,1.1-.7-2.1,7.1-2.5.7,2.1-1.3.4c1,0,1.8.7,2.1,1.6l.1.2Z"/><path d="m139.95,199.5l-7.5-1.6c-2.5-.5-3.6-1.7-3.7-3.8l2.1-.3c.1,1,.5,1.5,1.5,1.7l6.7-3.9.3,2.5-4.3,2.2,4.7.8.3,2.4h-.1Z"/><path class="cls-5" d="m92.85,234.1h-10.5c-1-.5-1.2-1.3-1.2-2.3v-26.8c0-.7.2-.9.9-1.1.5,0,.7-.4.7-.9v-3c0-.5-.2-.8-.7-.9-.8-.2-.9-.4-.9-1.1v-6.4c0-.7.3-1.5.8-2,2-1.9,3.9-3.9,5.9-5.9.5-.5,1.2-.8,2-.8h24.4v.2c.7.5.9,1.2.9,2-.6.2-.8.3-.8.9v6.5c0,.6.2.8.8.9v16.9c-.2-.5-.5-.8-1-.9h-26.3c-.8,0-1.2.4-1.2,1.3v16.2c0,.9.4,1.4,1.4,1.4h26c.7,0,1.2-.2,1.4-.9v3.8c0,1,0,2-1,2.6h-5.4c-.2-.2-.5-.4-.6-.7-.2-.4-.6-.6-1-.6h-12.5c-.5,0-.9,0-1.1.5-.2.3-.5.6-.8.8l-.2.3Zm9.1-44.8v-3.2c0-.6-.3-.9-.8-.9s-.7.4-.7.9v6.5h0c0,.6.3.9.8.9.4,0,.7-.3.7-.8v-3.3h0v-.1Zm4.7,0v-3.2c0-.6-.3-1-.8-1s-.8.4-.8,1v6.4c0,.6.3,1,.8,1s.8-.3.8-1v-3.1h0v-.1Zm4.7,0v-3.2c0-.6-.3-.9-.8-.9s-.8.4-.8,1v6.4c0,.6.3,1,.8,1s.8-.3.8-.9v-3.2h0v-.2Zm-18.8,0v-3.2c0-.6-.3-.9-.7-.9s-.8.3-.8.9v6.4c0,.6.3.9.7.9.5,0,.8-.3.8-.9v-3.2h0Zm4.7,0v-3.2c0-.6-.3-1-.8-.9s-.7.4-.7.9v6.4c0,.6.3.9.8.9s.7-.3.7-.9v-3.2h0Zm-11.4,2.1h0v1.3c0,.4.3.7.7.7s.7-.3.8-.7h0v-2.6c0-.4-.3-.8-.7-.8h0c-.4,0-.7.3-.8.8v1.3h0Z"/><path class="cls-11" d="m114.35,183h4.8c.9,0,1.6.7,1.6,1.6v4.7c0,.3-.1.6-.5.6-.5,0-.6.3-.6.8v10.1c0,.4.1.7.5.8.5,0,.6.4.6.8v29.6c0,1-.3,1.7-1.2,2.2h-5.2c.9-.6,1-1.6,1-2.6v-37.8c.5,0,.7-.4.7-1v-6.4c0-.5-.2-.9-.7-1,0-.8-.2-1.5-.9-2v-.2l-.1-.2Z"/><path class="cls-19" d="m86.65,226.4v-15.5c0-.9.4-1.3,1.2-1.3h22v15c0,1.6-.3,1.8-1.8,1.8h-21.5.1Z"/><path class="cls-23" d="m86.65,226.4h21.5c1.6,0,1.8-.3,1.8-1.8v-15h4.3c.6,0,.9.4,1,.9v17.1c-.2.7-.7.9-1.4.9h-26c-1,0-1.4-.4-1.4-1.4v-.7h.2Z"/><path class="cls-10" d="m115.35,185.2c.5.1.7.4.7,1v6.4c0,.5-.2.9-.7,1-.6-.1-.8-.3-.8-.9v-6.5c0-.6.2-.8.8-.9v-.1Z"/><path class="cls-10" d="m101.95,189.3v3.3c0,.5-.3.8-.7.8-.5,0-.8-.3-.8-.8h0v-6.6c0-.5.3-.9.7-.9s.8.3.8.9v3.3Z"/><path class="cls-10" d="m106.65,189.4v3.1c0,.6-.3,1-.8,1s-.8-.3-.8-1v-6.4c0-.6.3-1,.8-1s.8.4.8,1v3.3Z"/><path class="cls-10" d="m111.35,189.4v3.2c0,.6-.3,1-.8.9s-.8-.3-.8-1v-6.4c0-.6.3-1,.8-1s.7.4.8.9v3.4Z"/><path class="cls-10" d="m92.55,189.4v3.2c0,.6-.3.9-.8.9s-.7-.3-.7-.9v-6.4c0-.6.3-1,.8-.9s.7.4.7.9v3.2Z"/><path class="cls-10" d="m97.25,189.4v3.2c0,.6-.3.9-.7.9-.5,0-.8-.3-.8-.9v-6.4c0-.6.3-.9.7-.9s.8.3.8.9v3.2Z"/><path class="cls-13" d="m85.85,191.5v-1.3c0-.5.3-.8.8-.8.4,0,.8.3.8.8h0v2.6c0,.4-.3.7-.7.7h0c-.5,0-.7-.3-.7-.7v-1.3h-.2Z"/><path class="cls-21" d="m315.69,192.89c.57,0,1.13.02,1.7.03.96,0,1.75.79,1.76,1.76.01.89,0,1.78,0,2.67,0,7.54,0,15.08,0,22.63,0,.49-.02.99-.17,1.46-.18.56-.86,1.06-1.44,1.06-6.35,0-12.7,0-19.05,0-.03,0-.06,0-.09-.01,0-1.74,0-3.47,0-5.21,1.32,0,2.64,0,3.97-.01.17,0,.36.04.36-.24.01-.66.06-1.33-.09-1.96-.41-1.7-.9-3.38-1.33-5.07-.12-.46-.25-.91-.41-1.35-.25-.69.22-1.06.63-1.44.68-.63.97-1.42,1.13-2.33.34-1.9-1.25-4.18-3.05-4.76-.06-.1-.14-.15-.25-.09-.09-.02-.18-.04-.28-.06-.04-.06-.09-.08-.16-.04-.18-.03-.35-.05-.53-.08,0-2.31,0-4.61,0-6.92,3.25,0,6.51-.01,9.76-.02.2,0,.41-.02.61-.02,1.16.04,2.33.05,3.49,0,1.14.07,2.28.05,3.42,0Z"/><path class="cls-14" d="m298.41,217.29c0,1.74,0,3.47,0,5.21-.65,0-1.31.01-1.96.01-5.54,0-11.07-.03-16.61.02-1.46.01-2.21-.79-2.21-2.22.05-8.52.03-17.05,0-25.57,0-1.02.82-1.84,1.78-1.82.57.01,1.13-.01,1.7-.02,1.14.03,2.28.06,3.42-.01,1.16.07,2.32.04,3.49.02.19,0,.38.02.57.02,3.27,0,6.54,0,9.81.01,0,2.31,0,4.61,0,6.92-.37.18-.78.09-1.16.24-1.62.63-2.69,1.73-3.07,3.46-.07.04-.12.08-.03.16-.13,1.43.02,2.74,1.3,3.69.4.3.56.75.39,1.31-.1.34-.23.68-.31,1.03-.22.96-.48,1.91-.73,2.86-.18.7-.4,1.4-.57,2.1-.17.7-.12,1.41-.15,2.12-.01.36.08.48.45.47,1.29-.02,2.59,0,3.88,0Z"/><path class="cls-18" d="m284.55,192.88c-1.14.07-2.28.04-3.42.01,0-3.1-.03-6.2.02-9.3.02-1.43.21-2.86.63-4.25.5-1.67,1.2-3.25,2.16-4.7,1.2-1.82,2.68-3.37,4.45-4.64,1.16-.83,2.38-1.58,3.72-2.04,1.33-.46,2.67-.93,4.11-1.03.8-.06,1.61-.18,2.42-.16,2.01.04,3.96.44,5.84,1.15,1.88.71,3.58,1.74,5.13,3.04,1.33,1.12,2.42,2.43,3.35,3.9.66,1.03,1.18,2.13,1.62,3.28.24.63.41,1.29.63,1.93.2.58.24,1.22.3,1.84.4,3.65.1,7.32.19,10.98-1.14.04-2.28.06-3.42,0,0-2.62-.02-5.23.01-7.85.02-1.51-.17-2.98-.54-4.43-.52-2.04-1.46-3.88-2.83-5.46-1.68-1.93-3.71-3.38-6.17-4.17-1.74-.56-3.51-.73-5.35-.62-1.7.1-3.29.5-4.81,1.21-2.52,1.18-4.5,2.99-5.97,5.37-1.27,2.05-1.96,4.31-2.05,6.69-.11,3.08-.02,6.17-.02,9.25Z"/><path class="cls-9" d="m308.78,192.89c0-2.78.02-5.55,0-8.33-.02-1.48-.22-2.94-.81-4.31-.46-1.09-1.09-2.08-1.86-2.98-1.15-1.35-2.59-2.28-4.22-2.88-1.5-.55-3.08-.73-4.7-.53-.99.12-1.95.35-2.84.74-2.48,1.09-4.31,2.88-5.44,5.38-.53,1.17-.74,2.39-.8,3.67-.15,3.08-.02,6.16-.07,9.24-1.16.02-2.33.05-3.49-.02,0-3.09-.09-6.17.02-9.25.09-2.38.78-4.64,2.05-6.69,1.47-2.38,3.45-4.19,5.97-5.37,1.52-.71,3.11-1.11,4.81-1.21,1.83-.11,3.6.07,5.35.62,2.46.79,4.49,2.24,6.17,4.17,1.37,1.58,2.31,3.41,2.83,5.46.37,1.45.56,2.92.54,4.43-.03,2.62-.01,5.23-.01,7.85-1.16.06-2.33.04-3.49,0Z"/><path class="cls-16" d="m298.41,217.29c-1.29,0-2.59-.02-3.88,0-.37,0-.47-.11-.45-.47.03-.71-.02-1.43.15-2.12.17-.71.38-1.4.57-2.1.25-.95.5-1.9.73-2.86.08-.35.21-.69.31-1.03.16-.56,0-1.01-.39-1.31-1.28-.95-1.42-2.26-1.3-3.69.07-.04.07-.09.03-.16.39-1.73,1.46-2.83,3.07-3.46.38-.15.8-.06,1.16-.24.18.03.35.05.53.08.03.09.08.14.16.04.09.02.18.04.28.06.05.12.16.1.25.09,1.8.58,3.39,2.86,3.05,4.76-.16.91-.45,1.7-1.13,2.33-.41.38-.89.74-.63,1.44.16.44.29.89.41,1.35.43,1.69.92,3.37,1.33,5.07.15.63.11,1.3.09,1.96,0,.28-.2.24-.36.24-1.32,0-2.64,0-3.97.01Z"/><path class="cls-9" d="m299.62,200.12c-.1,0-.2.03-.25-.09.12-.05.19,0,.25.09Z"/><path class="cls-9" d="m299.09,199.97c-.08.1-.13.05-.16-.04.07-.04.12-.02.16.04Z"/><path class="cls-18" d="m294.17,203.55c.04.06.04.12-.03.16-.09-.07-.03-.12.03-.16Z"/><ellipse class="cls-2" cx="298.55" cy="197.29" rx="44.45" ry="44.71"/></svg>