<?xml version="1.0" encoding="UTF-8"?><svg id="Layer_1" xmlns="http://www.w3.org/2000/svg" viewBox="0 0 400 400"><defs><style>.cls-1{stroke:#a5262d;}.cls-1,.cls-2,.cls-3{stroke-width:4px;}.cls-1,.cls-2,.cls-3,.cls-4{stroke-miterlimit:10;}.cls-1,.cls-2,.cls-3,.cls-4,.cls-5{fill:none;}.cls-6{fill:#fcfcfd;}.cls-7{fill:#deb6a3;}.cls-2{stroke:#0018c6;}.cls-8{fill:#3f5c6c;}.cls-3{stroke:#c000e2;}.cls-9{fill:#54747f;}.cls-10{fill:#364a5f;}.cls-11{fill:#bacce9;}.cls-12{fill:#c7c7c7;}.cls-13{fill:#b68c7b;}.cls-14{fill:#bdbdbd;}.cls-15{fill:#ecf5fe;}.cls-4{stroke:#231f20;stroke-width:2px;}.cls-16{fill:#dfc7be;}.cls-17{fill:#b9cce9;}.cls-18{fill:#aaa;}.cls-19{fill:#3b97d2;}.cls-20{fill:#bdc3c7;}.cls-21{fill:#c59a85;}.cls-22{fill:#d7e1f2;}.cls-23{fill:#231f20;}</style></defs><line class="cls-5" x1="199.75" y1="113.35" x2="200.25" y2="146.13"/><line class="cls-4" x1="199.75" y1="113.35" x2="200.09" y2="135.36"/><polygon class="cls-23" points="192.57 133.29 200.25 146.13 207.53 133.06 192.57 133.29"/><circle class="cls-1" cx="200" cy="63.73" r="45"/><path d="m180.41,34.57c1.57,2.02,1.21,4.92-.8,6.5l-1.6,1.2,2.6,3.3-2.4,1.9-8.3-10.4,3.9-3.1c1.97-1.6,4.87-1.31,6.47.66,0,.01.02.02.03.04l.1-.1Zm-2.4,1.9c-.47-.71-1.43-.9-2.14-.43-.06.04-.11.08-.16.13l-1.6,1.2,2.1,2.7,1.6-1.2c.69-.56.79-1.58.23-2.27,0-.01-.02-.02-.03-.03v-.1Z"/><path d="m180.81,28.83l2.6-1.2,5.8,12.6-2.6,1.2-5.8-12.6Z"/><path d="m198.21,28.33l1.7,9.4-2.8.5-.2-.9c-.58.9-1.53,1.49-2.6,1.6-2.61.37-5.03-1.46-5.4-4.07,0,0,0-.02,0-.03-.62-2.51.92-5.04,3.43-5.66.06-.01.11-.03.17-.04,1.04-.24,2.13-.03,3,.6l-.2-.9,2.8-.5h.1Zm-2,5.2c-.14-1.2-1.22-2.06-2.42-1.93-.06,0-.12.02-.18.03-1.17.14-2,1.2-1.87,2.36.01.11.04.23.07.34.14,1.2,1.22,2.06,2.42,1.93.06,0,.12-.02.18-.03,1.17-.14,2-1.21,1.86-2.37-.01-.1-.03-.19-.06-.29v-.04Z"/><path d="m208.71,36.03c-.3,2.2-2.3,2.9-4.3,2.6-1.73-.04-3.25-1.16-3.8-2.8l2.6-1.1c.14.73.76,1.26,1.5,1.3.7,0,1,0,1.1-.5.1-1-4.6-1.1-4.2-4.3.3-2.1,2.1-2.9,4.1-2.6,1.51.13,2.82,1.1,3.4,2.5l-2.6,1c-.16-.54-.64-.94-1.2-1-.5,0-.8,0-.9.4-.1,1.1,4.6,1,4.1,4.4l.2.1Z"/><path d="m214.41,34.03l-1.2,3.1c-.3.8.3,1.1,1.5,1.5l-.9,2.4c-3.6-1-4.2-2.4-3.3-4.9l1.2-3.2-1.4-.5,1-2.6,1.4.5.6-1.7,3,.2-.9,2.5,1.8.7-1,2.6-1.8-.7v.1Z"/><path d="m219.71,33.43l2.4,1.5-4.9,8.2-2.4-1.5,4.9-8.2Zm1.1-2.3c.47-.8,1.5-1.07,2.3-.6.8.47,1.07,1.5.6,2.3-.47.8-1.5,1.07-2.3.6-.8-.45-1.07-1.47-.62-2.26,0-.01.01-.02.02-.04h0Z"/><path d="m221.41,39.93c1.78-2.01,4.86-2.2,6.87-.41.08.07.15.14.23.21,1.3,1.19,1.84,2.99,1.4,4.7l-2.8-.7c.21-.73-.02-1.51-.6-2-.92-.82-2.33-.73-3.15.19-.76.86-.74,2.17.05,3.01.53.59,1.36.79,2.1.5l.8,2.7c-1.7.51-3.54.05-4.8-1.2-2.02-1.89-2.12-5.05-.23-7.07.01-.01.02-.02.03-.03l.1.1Z"/><path class="cls-22" d="m223.38,59.97v.09h-1.59q-.69,0-.69.69v30.33c.02.44-.13.88-.42,1.21-.18.22-.48.25-.67.45h-10.69c0-.09,0-.18,0-.27-.41-1.79-.83-3.58-1.24-5.36-.71-3.11-1.43-6.23-2.14-9.35-1.05-4.55-2.1-9.1-3.17-13.64-.92-4-1.83-7.97-2.74-11.92h15c.23-.04.46.03.63.19v6.18c.02.73.59,1.32,1.32,1.37h3.79c.27,0,.38-.09.37-.36v-1.83c.12,0,.17.1.25.18l1.99,2.04Z"/><path class="cls-17" d="m223.38,91.65c-.39.8-1.26,1.25-2.14,1.1-.41-.02-.82-.02-1.23,0,.19-.2.49-.24.68-.45.29-.34.44-.77.42-1.21v-30.34q0-.69.68-.69h1.59v31.59Z"/><path class="cls-14" d="m179.75,52.11c.02-.3.02-.6,0-.9-.16-.87.29-1.74,1.1-2.11h2c0,.08.05.15.11.19.6.38.91,1.08.81,1.78v1.13h-3.93l-.09-.09Z"/><path class="cls-18" d="m183.76,52.2v-1.13c.1-.7-.22-1.4-.81-1.78-.07-.04-.11-.11-.11-.19h2c.89.4,1.38,1.37,1.17,2.33v.77h-2.25Z"/><path class="cls-15" d="m209.32,92.75h-6.21c0-.06,0-.13,0-.19l-1.83-8-3.17-13.69c-1.07-4.62-2.13-9.24-3.2-13.86-.36-1.61-.73-3.22-1.09-4.83h6.18c.92,4,1.84,7.97,2.75,11.91,1.05,4.55,2.11,9.09,3.16,13.64.72,3.12,1.44,6.24,2.15,9.35.4,1.79.81,3.58,1.23,5.36.02.1.03.21.03.31Z"/><path class="cls-15" d="m215.62,52.38c.14.02.26.1.34.21l5,5c.05.05.09.11.13.18v1.83c0,.28-.1.36-.37.36h-3.79c-.73-.06-1.29-.65-1.32-1.38v-6.2Z"/><path class="cls-22" d="m193.8,52.21c.36,1.61.73,3.22,1.09,4.83,1.07,4.62,2.14,9.24,3.2,13.86,1.06,4.62,2.12,9.18,3.17,13.67.61,2.66,1.23,5.32,1.83,8,0,.06,0,.13,0,.19h-14.09v-3c0-.51-.26-.81-.7-.82s-.75.29-.76.82v3h-7.84c-.46-.03-.91-.03-1.37,0-.95.02-1.73-.74-1.75-1.69,0-.02,0-.03,0-.05v-37.1c-.02-.94.73-1.71,1.67-1.73.03,0,.05,0,.08,0h9.23v3c0,.52.26.81.7.83s.75-.29.75-.83v-3l4.79.02Zm-4.75,20.36v-1.54c.04-.39-.23-.74-.62-.79-.04,0-.08,0-.13,0-.4,0-.72.33-.71.73,0,.02,0,.04,0,.05v3c0,.4.33.73.73.73s.73-.33.73-.73c0-.52,0-1.01,0-1.45Zm-1.46,6.14v1.55c-.05.4.24.76.64.81.4.05.76-.24.81-.64,0-.06,0-.11,0-.17v-3.06c-.03-.4-.35-.73-.75-.76-.39,0-.71.32-.71.71,0,.01,0,.03,0,.04v1.52Zm0-12.41v1.5c-.03.41.28.76.69.79,0,0,.01,0,.02,0,.42-.05.73-.4.74-.82v-2.91c0-.55-.26-.83-.74-.83s-.71.29-.71.81v1.46h0Zm0-6.27v1.51c-.05.37.21.7.57.76.05,0,.09,0,.14,0,.39.02.72-.27.74-.65,0-.04,0-.08,0-.13v-2.91c.05-.38-.22-.73-.6-.78-.04,0-.08,0-.13,0-.45,0-.71.29-.72.8s0,.94,0,1.41h0Zm1.46,25v-1.46c0-.52-.26-.8-.71-.81-.39-.02-.73.27-.75.67,0,.04,0,.08,0,.11v2.92c-.04.38.23.73.61.78.04,0,.08,0,.13,0,.45,0,.71-.29.72-.8s0-1,0-1.47v.06Z"/><path class="cls-17" d="m189,52.22v3c0,.53-.28.84-.75.82s-.7-.31-.7-.82v-3h1.45Z"/><path class="cls-14" d="m179.83,92.75h3.93v1.19c.09.83-.4,1.61-1.18,1.9h-1.23c-.85.04-1.57-.62-1.61-1.47,0-.04,0-.09,0-.13v-1.41l.09-.08Z"/><path class="cls-18" d="m182.58,95.84c.79-.28,1.28-1.07,1.18-1.9v-1.19h2.24c.07.6.07,1.22,0,1.82-.12.78-.82,1.34-1.61,1.29l-1.81-.02Z"/><path class="cls-17" d="m187.59,92.74v-3c0-.53.29-.84.76-.83s.7.31.7.83v3h-1.46Z"/><path class="cls-12" d="m179.83,52.2h-.09s0-.06,0-.09l.09.09Z"/><path class="cls-12" d="m179.83,92.75l-.08.09s0-.06,0-.09h.08Z"/><path class="cls-11" d="m189.05,72.57v1.46c.04.38-.23.73-.62.78-.03,0-.06,0-.09,0-.4.02-.73-.29-.75-.69,0-.03,0-.06,0-.09v-3c0-.4.33-.73.73-.73s.73.33.73.73c0,.44,0,.98,0,1.54Z"/><path class="cls-17" d="m187.59,78.66v-1.5c-.03-.38.25-.71.63-.75.02,0,.05,0,.07,0,.41.03.73.35.75.76v3.06c.03.37-.24.7-.62.74-.04,0-.08,0-.11,0-.38.02-.7-.27-.72-.66,0-.03,0-.07,0-.1,0-.51,0-1.03,0-1.55Z"/><path class="cls-17" d="m187.59,66.25v-1.46c0-.52.26-.8.71-.8s.74.27.75.82v2.92c-.01.42-.33.77-.75.81-.41-.02-.73-.36-.71-.77,0,0,0,0,0-.01,0-.51,0-1.01,0-1.51Z"/><path class="cls-17" d="m187.59,59.98v-1.41c0-.51.27-.8.72-.8.39-.02.72.28.74.66,0,.04,0,.08,0,.13v2.91c.05.4-.24.76-.64.81-.4.05-.76-.24-.81-.64,0-.06,0-.11,0-.17,0-.46,0-.98,0-1.49Z"/><path class="cls-17" d="m189.05,84.97v1.41c0,.51-.27.8-.72.8-.38.03-.71-.26-.73-.64,0-.05,0-.09,0-.14v-2.92c-.04-.38.23-.73.61-.78.04,0,.08,0,.13,0,.46,0,.71.29.72.81s-.01.97-.01,1.46Z"/><circle class="cls-2" cx="200" cy="197.41" r="45"/><path class="cls-7" d="m191.7,232.11c-.36-.13-.72-.23-1.1-.3-2.91-.73-5.5-2.38-7.4-4.7-1.76-2.01-3.15-4.31-4.1-6.8v-.3h12.4c1.48.09,2.97-.08,4.4-.5.65,1.4,1.42,2.74,2.3,4,.46.72,1.03,1.37,1.7,1.9,0,.4.4.5.6.7,1.61,1.64,3.8,2.57,6.1,2.6.87.02,1.58.73,1.6,1.6-.02.65-.36,1.24-.9,1.6h.5v.1h-15.9l-.2.1Z"/><path class="cls-21" d="m206.8,179.71c2.04.03,4.02.66,5.7,1.8,2.51,1.59,4.57,3.79,6,6.4,1.94,3.3,3.27,6.92,3.9,10.7.55,3.27.75,6.59.6,9.9.06,1.02-.07,2.04-.4,3-.3,0-.4.2-.6.4-.72.8-1.56,1.48-2.5,2-1.9,1-4.07,1.39-6.2,1.1-1.45-.16-2.85-.64-4.1-1.4-1.3-.8-2.4-1.9-3.2-3.2,0-.9.2-1.9.2-2.8.03-1.84-.04-3.67-.2-5.5-.27-2.69-.84-5.34-1.7-7.9-.91-2.92-2.49-5.59-4.6-7.8,0-.4.5-.5.7-.8,1.61-1.57,3.75-2.46,6-2.5.6,0,1.16-.35,1.4-.9.46-.86.13-1.92-.72-2.38-.09-.05-.18-.09-.28-.12Zm7.8,23.2c-1.99,0-3.6,1.61-3.6,3.6s1.61,3.6,3.6,3.6,3.6-1.61,3.6-3.6-1.61-3.6-3.6-3.6h0Z"/><path class="cls-13" d="m206,210.31c.83,1.28,1.92,2.37,3.2,3.2,1.25.76,2.65,1.24,4.1,1.4,2.13.25,4.29-.13,6.2-1.1.96-.5,1.81-1.18,2.5-2,.2-.2.3-.4.6-.4-.38,3.46-1.32,6.84-2.8,10-1.19,2.78-2.97,5.27-5.2,7.3-1.92,1.82-4.37,2.98-7,3.3h-.5c.54-.4.87-1.03.9-1.7.01-.87-.69-1.59-1.56-1.6-.01,0-.03,0-.04,0-2.3-.03-4.49-.96-6.1-2.6-.2-.2-.6-.3-.6-.7l.6-.6c1.77-2.13,3.13-4.57,4-7.2.77-2.42,1.34-4.89,1.7-7.4v.1Z"/><path class="cls-7" d="m195.9,192.01c-1.35-.47-2.78-.64-4.2-.5h-12.6c.98-2.37,2.3-4.59,3.9-6.6,1.23-1.49,2.72-2.75,4.4-3.7,1.46-.85,3.11-1.34,4.8-1.4h14.5c.9.26,1.43,1.2,1.17,2.1-.04.14-.1.28-.17.4-.31.5-.82.83-1.4.9-2.24.06-4.38.95-6,2.5-.3.2-.7.3-.7.8-.4.2-.7.7-1,1-1.12,1.41-2.06,2.96-2.8,4.6l.1-.1Z"/><path class="cls-16" d="m214.6,202.91c1.99,0,3.6,1.61,3.6,3.6s-1.61,3.6-3.6,3.6h0c-1.99,0-3.6-1.61-3.6-3.6s1.61-3.6,3.6-3.6Z"/><path d="m161.3,190.41l.9-2.4,7.6,1-6.1-4.6.7-1.8,7.6.8-6.2-4.4.9-2.4,8.8,6.6-1,2.6-6.4-.7,5.2,3.9-1,2.6-10.9-1.2h-.1Z"/><path d="m176.3,170.57l5.6,5.1-1.5,1.7-.5-.5c.01.84-.27,1.65-.8,2.3-1.48,1.49-3.88,1.5-5.37.03,0,0-.02-.02-.03-.03-1.62-1.29-1.9-3.65-.61-5.27.04-.04.07-.09.11-.13.5-.7,1.34-1.08,2.2-1l-.5-.5,1.5-1.7h-.1Zm1.3,4.2c-.67-.72-1.8-.76-2.52-.08-.03.03-.06.06-.08.08-.67.67-.67,1.76,0,2.43.06.06.13.12.2.17.67.72,1.8.76,2.52.08.03-.03.06-.06.08-.08.66-.69.64-1.77-.05-2.43-.05-.05-.1-.09-.15-.13v-.04Z"/><path d="m182.2,169.11l1.5,2.2c.4.5.9.3,1.7-.3l1.1,1.7c-2.3,1.9-3.5,1.6-4.7-.1l-1.5-2.2-1,.7-1.2-1.8,1-.7-.8-1.2,1.5-1.8,1.2,1.8,1.3-.9,1.2,1.8-1.3.9v-.1Z"/><path d="m185.3,169.01c-.83-2.01.14-4.31,2.15-5.14.05-.02.1-.04.15-.06,1.3-.51,2.77-.32,3.9.5l-1.4,1.8c-.47-.42-1.15-.5-1.7-.2-.87.34-1.29,1.33-.95,2.19.01.04.03.07.05.11.24.84,1.12,1.33,1.97,1.09.08-.02.16-.05.23-.09.58-.19,1.01-.69,1.1-1.3l2.3.3c-.24,1.4-1.19,2.57-2.5,3.1-2.01.84-4.32-.1-5.16-2.1-.01-.03-.03-.07-.04-.1l-.1-.1Z"/><path d="m200.5,164.41l.5,4.6-2.3.2-.5-4.3c0-.68-.57-1.23-1.25-1.23-.08,0-.17.01-.25.03-.8,0-1.3.6-1.2,1.7l.4,4.1-2.3.2-1.1-10.5,2.3-.2.4,3.7c.47-.66,1.19-1.1,2-1.2,1.5-.2,2.9.8,3.2,2.8l.1.1Z"/><path d="m214.3,168.21c-.48,1.99-2.47,3.21-4.46,2.74-.05-.01-.09-.02-.14-.04-.85-.21-1.55-.8-1.9-1.6l-.2.7-2.2-.7,3.2-10.1,2.2.7-1.1,3.6c.73-.42,1.61-.5,2.4-.2,1.98.73,3,2.91,2.3,4.9h-.1Zm-2.2-.7c.3-.96-.24-1.99-1.2-2.29-.96-.3-1.99.24-2.29,1.2-.3.96.23,1.98,1.19,2.29.91.33,1.92-.14,2.25-1.05.02-.05.03-.1.05-.15Z"/><path d="m224.3,170.31l-4.3,6.2-1.9-1.3.4-.6c-.83.16-1.7-.02-2.4-.5-1.65-1.25-1.98-3.61-.72-5.27,0-.01.02-.02.02-.03,1.01-1.75,3.24-2.34,4.99-1.33.07.04.14.09.21.13.69.46,1.16,1.18,1.3,2l.4-.6,1.9,1.3h.1Zm-4,1.8c.58-.78.43-1.88-.35-2.46-.02-.01-.03-.02-.05-.04-.76-.57-1.84-.4-2.41.36-.03.05-.07.09-.09.14-.58.78-.43,1.88.35,2.46.02.01.03.02.05.04.75.57,1.81.42,2.38-.32.04-.06.08-.12.12-.18h0Z"/><path d="m228.8,179.91l-3.6,2.9-1.4-1.8,3.4-2.7c.61-.43.75-1.26.32-1.87,0-.01-.02-.02-.02-.03-.45-.6-1.3-.73-1.9-.28-.07.05-.14.11-.2.18l-3.2,2.6-1.4-1.8,5.9-4.7,1.4,1.8-.6.4c.83.03,1.6.43,2.1,1.1,1,1.2.9,2.9-.7,4.2h-.1Z"/><path d="m238.3,186.81l-9.8,4-.9-2.1.7-.3c-.79-.29-1.41-.91-1.7-1.7-.57-2.14.71-4.33,2.84-4.89,1.8-.48,3.69.35,4.56,1.99.35.76.35,1.64,0,2.4l3.5-1.4.9,2.1-.1-.1Zm-7.2.5c.9-.28,1.39-1.24,1.11-2.13-.03-.09-.07-.18-.11-.27-.31-.91-1.29-1.39-2.19-1.09-.07.02-.14.05-.21.09-.92.34-1.39,1.35-1.05,2.27.02.04.03.09.05.13.31.91,1.29,1.39,2.19,1.09.07-.02.14-.05.21-.09Z"/><line class="cls-5" x1="199.69" y1="250.68" x2="200.19" y2="283.46"/><line class="cls-4" x1="199.69" y1="250.68" x2="200.03" y2="272.7"/><polygon class="cls-23" points="192.52 270.62 200.19 283.46 207.48 270.4 192.52 270.62"/><circle class="cls-3" cx="200" cy="336.27" r="45"/><path d="m158.5,334.27l.6-2.5h7.6c0-.1-6.7-3.7-6.7-3.7l.4-1.9,7.6-.3-6.8-3.4.6-2.5,9.6,5.2-.6,2.7-6.4.3,5.7,3.1-.6,2.7-10.9.5-.1-.2Z"/><path d="m170.2,312.67l6.3,4.1-1.2,1.9-.6-.4c.2.7.1,1.5-.4,2.4-1.1,1.7-3.4,2.1-5.3.9-1.9-1.2-2.5-3.5-1.4-5.2.5-.8,1.2-1.3,2-1.4l-.6-.4,1.2-1.9Zm1.9,3.9c-.9-.6-1.9-.4-2.5.5s-.4,1.9.6,2.5c1,.6,1.9.4,2.5-.5.6-.9.4-1.9-.6-2.5Z"/><path d="m175.6,310.17l1.9,1.9c.5.5.9.1,1.6-.6l1.4,1.5c-1.9,2.3-3.1,2.2-4.6.7l-1.9-1.9-.9.8-1.5-1.5.9-.8-1-1,1.1-2.1,1.5,1.5,1.1-1.1,1.5,1.5-1.1,1.1Z"/><path d="m178.5,309.57c-1.2-1.9-.7-4.2,1.2-5.5,1.2-.8,2.7-.8,3.9-.2l-1,2c-.5-.3-1.1-.3-1.7,0-.8.5-1,1.5-.5,2.4.6.9,1.5,1.1,2.4.5.6-.4.8-.9.8-1.5h2.3c0,1.2-.6,2.5-1.8,3.3-1.9,1.2-4.3.7-5.5-1.2l-.1.2Z"/><path d="m192.4,301.97l1.4,4.4-2.1.7-1.3-4.1c-.3-.9-1-1.1-1.7-.9-.8.3-1.2.9-.8,1.9l1.3,3.9-2.1.7-3.3-10,2.1-.7,1.2,3.5c.2-.7.8-1.2,1.8-1.5,1.4-.5,3,.1,3.6,2.1h-.1Z"/><path d="m194.5,300.67l5.7-.4.2,2.2-5.7.4-.2-2.2Z"/><path d="m205.7,304.67c.6.1,1.2,0,1.5-.3l1.6,1.3c-.9.9-2.1,1.2-3.5,1-2.5-.4-3.8-2.4-3.4-4.6.4-2.2,2.3-3.6,4.6-3.2,2.2.4,3.5,2.3,3.1,4.6,0,.3-.1.6-.2.9l-5.2-.9c.1.8.8,1.2,1.6,1.3l-.1-.1Zm1.8-2.5c0-.9-.7-1.3-1.4-1.4-.8-.1-1.5.2-1.8.9l3.2.5Z"/><path d="m213.4,308.97l-.5-2.4-2.1,1.3-2.4-1,4-2.4-.9-4.4,2.4,1,.5,2.2,1.9-1.2,2.4,1-3.9,2.3.9,4.6-2.4-1h.1Z"/><path d="m221.3,307.67l-1.5,2.2c-.4.5,0,.9.9,1.4l-1.2,1.7c-2.6-1.5-2.7-2.7-1.5-4.4l1.5-2.2-1-.7,1.3-1.8,1,.7.8-1.2,2.2.8-1.2,1.7,1.3.9-1.3,1.8-1.3-.9Z"/><path d="m223.9,314.77c.4.5.9.7,1.4.7l.4,2c-1.2.1-2.4-.3-3.3-1.4-1.7-1.9-1.5-4.2.1-5.7,1.7-1.5,4-1.5,5.6.3,1.5,1.6,1.3,4-.4,5.5-.2.2-.5.4-.7.5l-3.6-3.9c-.4.7-.1,1.4.4,2h.1Zm2.9-.8c.5-.8.3-1.5-.2-2-.6-.6-1.3-.8-2-.4l2.2,2.4Z"/><path d="m234.2,319.47l-2.2,1.3c-.3-.9-1.3-1.8-2.6-1.1l-2.9,1.7-1.1-1.9,6.5-3.8,1.1,1.9-1.2.7c1-.2,1.9.4,2.4,1.2Z"/><path d="m234.4,329.17l-4.4,1.4-.7-2.1,4.1-1.3c.9-.3,1.1-1,.9-1.7-.2-.8-.9-1.2-1.9-.9l-3.9,1.2-.7-2.1,7.2-2.3.7,2.1-.7.2c.7.2,1.2.8,1.5,1.8.5,1.4-.2,3-2.1,3.6v.1Z"/><path d="m237.9,338.87l-7.5.2v-2.2h.6c-.6-.5-1-1.2-1-2.2,0-2,1.6-3.6,3.8-3.7,2.2,0,4,1.5,4.1,3.5,0,1-.3,1.8-.8,2.3h.7v2.2l.1-.1Zm-3.8-2.1c1.1,0,1.8-.8,1.8-1.8s-.8-1.8-1.9-1.7-1.8.8-1.8,1.8.8,1.8,1.9,1.7Z"/><path d="m240.9,342.07l-.4,2.2-10.8-1.8.4-2.2,10.8,1.8Z"/><path class="cls-19" d="m209.5,362.17c-1,2.4-2.1,4.7-3.1,7.1-.4.8-1.1,1.2-1.9,1.5h-12.7c-1.2-.4-1.9-1.2-2.4-2.4-.8-1.9-1.7-3.8-2.5-5.7,0-.1-.1-.3-.2-.5h22.9-.1Z"/><path class="cls-10" d="m209.5,362.17h-22.9c-.7,0-1.4,0-2-.1-2.3-.5-3.8-2.4-3.8-5v-28.2c0-2.4,1.2-4.1,3.3-4.8.6-.2,1.1-.2,1.7-.2h23.7c.7,0,1.3,0,2,.1,2.1.4,3.7,2.3,3.8,4.4v28.7c0,2.5-1.5,4.4-3.8,4.9-.7.1-1.3,0-2,.1v.1Zm.6-34.5h-24.2c-1,0-1.2.2-1.2,1.2v26.5c-.2.6-.2,1.1,0,1.7.2,1,.3,1.1,1.4,1.1h24.1c1,0,1.3-.3,1.3-1.3v-28.3c0-.6-.6-1-1.3-.9h-.2.1Z"/><path class="cls-19" d="m209.5,323.87h-22.9c.7-1.6,1.4-3.2,2.1-4.9.3-.6.5-1.3.8-1.9.6-1.2,1.5-1.8,2.9-1.8h11.3c1.2,0,2.1.5,2.6,1.5,1.1,2.3,2.1,4.7,3.1,7.1h.1Z"/><path class="cls-20" d="m215.3,337.27v-8.6h1.8c1.1-.1,2,.8,2.1,2v4.7c0,1.2-.9,2-2.1,2h-1.8v-.1Z"/><path class="cls-8" d="m210.1,327.77c.6-.2,1.2.2,1.4.8v28.5c0,1-.3,1.3-1.3,1.3h-24.1c-1.1,0-1.2,0-1.4-1.1,0-.6-.2-1.1,0-1.7.3-.6.1-1.2.2-1.9.2-1.4.4-2.8.7-4.2.4-2,1-4,1.8-5.9,1.2-2.8,2.9-5.4,5-7.6,1.5-1.6,3.3-3,5.2-4.1,3.2-1.9,6.8-3.2,10.5-3.8.7-.1,1.3-.1,2-.3h0Zm-11,10.2v-4.4c0-.6-.4-1-.9-1-.6,0-1,.3-1,1v9.2c0,.5.2,1,.5,1.3,2.1,2,4.1,4.1,6.2,6.2.1.1.3.3.4.4.4.3,1,.2,1.3-.3.2-.3.2-.7,0-1-.1-.2-.3-.3-.4-.4l-5.8-5.8c-.2-.2-.3-.5-.3-.8v-4.4Z"/><path class="cls-9" d="m210.1,327.77c-.6.2-1.3.2-2,.3-3.7.6-7.3,1.9-10.5,3.8-1.9,1.1-3.7,2.5-5.2,4.1-2.1,2.2-3.8,4.8-5,7.6-.8,1.9-1.4,3.9-1.8,5.9-.3,1.4-.5,2.8-.7,4.2,0,.6,0,1.3-.2,1.9v-26.5c0-1,.2-1.2,1.2-1.2h24.2v-.1Z"/><path class="cls-6" d="m199,337.87v4.3c0,.3.1.6.3.8l5.8,5.8.4.4c.3.4.2,1-.3,1.3-.3.2-.7.2-1,0-.2-.1-.3-.2-.4-.4l-6.2-6.2c-.4-.3-.6-.8-.5-1.3v-8.8c0-3,0-.3,0-.4,0-.6.4-1,1-1,.5,0,.9.4.9,1v4.5Z"/></svg>