<?xml version="1.0" encoding="UTF-8"?><svg id="Layer_1" xmlns="http://www.w3.org/2000/svg" viewBox="0 0 400 400"><defs><style>.cls-1{stroke:#a5262d;}.cls-1,.cls-2{stroke-width:4px;}.cls-1,.cls-2,.cls-3{stroke-miterlimit:10;}.cls-1,.cls-2,.cls-3,.cls-4{fill:none;}.cls-2{stroke:#000;}.cls-5{fill:#546e7a;}.cls-6{fill:#bacce9;}.cls-7{fill:#c7c7c7;}.cls-8{fill:#bdbdbd;}.cls-9{fill:#ecf5fe;}.cls-10{fill:#ffed58;}.cls-3{stroke:#231f20;stroke-width:2px;}.cls-11{fill:#36464e;}.cls-12{fill:#b9cce9;}.cls-13{fill:#aaa;}.cls-14{fill:#788f9b;}.cls-15{fill:#fbd734;}.cls-16{fill:#d7e1f2;}.cls-17{fill:#231f20;}</style></defs><line class="cls-4" x1="199.75" y1="113.35" x2="200.25" y2="146.13"/><line class="cls-3" x1="199.75" y1="113.35" x2="200.09" y2="135.36"/><polygon class="cls-17" points="192.57 133.29 200.25 146.13 207.53 133.06 192.57 133.29"/><circle class="cls-1" cx="200" cy="63.73" r="45"/><path d="m180.41,34.57c1.57,2.02,1.21,4.92-.8,6.5l-1.6,1.2,2.6,3.3-2.4,1.9-8.3-10.4,3.9-3.1c1.97-1.6,4.87-1.31,6.47.66,0,.01.02.02.03.04l.1-.1Zm-2.4,1.9c-.47-.71-1.43-.9-2.14-.43-.06.04-.11.08-.16.13l-1.6,1.2,2.1,2.7,1.6-1.2c.69-.56.79-1.58.23-2.27,0-.01-.02-.02-.03-.03v-.1Z"/><path d="m180.81,28.83l2.6-1.2,5.8,12.6-2.6,1.2-5.8-12.6Z"/><path d="m198.21,28.33l1.7,9.4-2.8.5-.2-.9c-.58.9-1.53,1.49-2.6,1.6-2.61.37-5.03-1.46-5.4-4.07,0,0,0-.02,0-.03-.62-2.51.92-5.04,3.43-5.66.06-.01.11-.03.17-.04,1.04-.24,2.13-.03,3,.6l-.2-.9,2.8-.5h.1Zm-2,5.2c-.14-1.2-1.22-2.06-2.42-1.93-.06,0-.12.02-.18.03-1.17.14-2,1.2-1.87,2.36.01.11.04.23.07.34.14,1.2,1.22,2.06,2.42,1.93.06,0,.12-.02.18-.03,1.17-.14,2-1.21,1.86-2.37-.01-.1-.03-.19-.06-.29v-.04Z"/><path d="m208.71,36.03c-.3,2.2-2.3,2.9-4.3,2.6-1.73-.04-3.25-1.16-3.8-2.8l2.6-1.1c.14.73.76,1.26,1.5,1.3.7,0,1,0,1.1-.5.1-1-4.6-1.1-4.2-4.3.3-2.1,2.1-2.9,4.1-2.6,1.51.13,2.82,1.1,3.4,2.5l-2.6,1c-.16-.54-.64-.94-1.2-1-.5,0-.8,0-.9.4-.1,1.1,4.6,1,4.1,4.4l.2.1Z"/><path d="m214.41,34.03l-1.2,3.1c-.3.8.3,1.1,1.5,1.5l-.9,2.4c-3.6-1-4.2-2.4-3.3-4.9l1.2-3.2-1.4-.5,1-2.6,1.4.5.6-1.7,3,.2-.9,2.5,1.8.7-1,2.6-1.8-.7v.1Z"/><path d="m219.71,33.43l2.4,1.5-4.9,8.2-2.4-1.5,4.9-8.2Zm1.1-2.3c.47-.8,1.5-1.07,2.3-.6.8.47,1.07,1.5.6,2.3-.47.8-1.5,1.07-2.3.6-.8-.45-1.07-1.47-.62-2.26,0-.01.01-.02.02-.04h0Z"/><path d="m221.41,39.93c1.78-2.01,4.86-2.2,6.87-.41.08.07.15.14.23.21,1.3,1.19,1.84,2.99,1.4,4.7l-2.8-.7c.21-.73-.02-1.51-.6-2-.92-.82-2.33-.73-3.15.19-.76.86-.74,2.17.05,3.01.53.59,1.36.79,2.1.5l.8,2.7c-1.7.51-3.54.05-4.8-1.2-2.02-1.89-2.12-5.05-.23-7.07.01-.01.02-.02.03-.03l.1.1Z"/><path class="cls-16" d="m223.38,59.97v.09h-1.59q-.69,0-.69.69v30.33c.02.44-.13.88-.42,1.21-.18.22-.48.25-.67.45h-10.69c0-.09,0-.18,0-.27-.41-1.79-.83-3.58-1.24-5.36-.71-3.11-1.43-6.23-2.14-9.35-1.05-4.55-2.1-9.1-3.17-13.64-.92-4-1.83-7.97-2.74-11.92h15c.23-.04.46.03.63.19v6.18c.02.73.59,1.32,1.32,1.37h3.79c.27,0,.38-.09.37-.36v-1.83c.12,0,.17.1.25.18l1.99,2.04Z"/><path class="cls-12" d="m223.38,91.65c-.39.8-1.26,1.25-2.14,1.1-.41-.02-.82-.02-1.23,0,.19-.2.49-.24.68-.45.29-.34.44-.77.42-1.21v-30.34q0-.69.68-.69h1.59v31.59Z"/><path class="cls-8" d="m179.75,52.11c.02-.3.02-.6,0-.9-.16-.87.29-1.74,1.1-2.11h2c0,.08.05.15.11.19.6.38.91,1.08.81,1.78v1.13h-3.93l-.09-.09Z"/><path class="cls-13" d="m183.76,52.2v-1.13c.1-.7-.22-1.4-.81-1.78-.07-.04-.11-.11-.11-.19h2c.89.4,1.38,1.37,1.17,2.33v.77h-2.25Z"/><path class="cls-9" d="m209.32,92.75h-6.21c0-.06,0-.13,0-.19l-1.83-8-3.17-13.69c-1.07-4.62-2.13-9.24-3.2-13.86-.36-1.61-.73-3.22-1.09-4.83h6.18c.92,4,1.84,7.97,2.75,11.91,1.05,4.55,2.11,9.09,3.16,13.64.72,3.12,1.44,6.24,2.15,9.35.4,1.79.81,3.58,1.23,5.36.02.1.03.21.03.31Z"/><path class="cls-9" d="m215.62,52.38c.14.02.26.1.34.21l5,5c.05.05.09.11.13.18v1.83c0,.28-.1.36-.37.36h-3.79c-.73-.06-1.29-.65-1.32-1.38v-6.2Z"/><path class="cls-16" d="m193.8,52.21c.36,1.61.73,3.22,1.09,4.83,1.07,4.62,2.14,9.24,3.2,13.86,1.06,4.62,2.12,9.18,3.17,13.67.61,2.66,1.23,5.32,1.83,8,0,.06,0,.13,0,.19h-14.09v-3c0-.51-.26-.81-.7-.82s-.75.29-.76.82v3h-7.84c-.46-.03-.91-.03-1.37,0-.95.02-1.73-.74-1.75-1.69,0-.02,0-.03,0-.05v-37.1c-.02-.94.73-1.71,1.67-1.73.03,0,.05,0,.08,0h9.23v3c0,.52.26.81.7.83s.75-.29.75-.83v-3l4.79.02Zm-4.75,20.36v-1.54c.04-.39-.23-.74-.62-.79-.04,0-.08,0-.13,0-.4,0-.72.33-.71.73,0,.02,0,.04,0,.05v3c0,.4.33.73.73.73s.73-.33.73-.73c0-.52,0-1.01,0-1.45Zm-1.46,6.14v1.55c-.05.4.24.76.64.81.4.05.76-.24.81-.64,0-.06,0-.11,0-.17v-3.06c-.03-.4-.35-.73-.75-.76-.39,0-.71.32-.71.71,0,.01,0,.03,0,.04v1.52Zm0-12.41v1.5c-.03.41.28.76.69.79,0,0,.01,0,.02,0,.42-.05.73-.4.74-.82v-2.91c0-.55-.26-.83-.74-.83s-.71.29-.71.81v1.46h0Zm0-6.27v1.51c-.05.37.21.7.57.76.05,0,.09,0,.14,0,.39.02.72-.27.74-.65,0-.04,0-.08,0-.13v-2.91c.05-.38-.22-.73-.6-.78-.04,0-.08,0-.13,0-.45,0-.71.29-.72.8s0,.94,0,1.41h0Zm1.46,25v-1.46c0-.52-.26-.8-.71-.81-.39-.02-.73.27-.75.67,0,.04,0,.08,0,.11v2.92c-.04.38.23.73.61.78.04,0,.08,0,.13,0,.45,0,.71-.29.72-.8s0-1,0-1.47v.06Z"/><path class="cls-12" d="m189,52.22v3c0,.53-.28.84-.75.82s-.7-.31-.7-.82v-3h1.45Z"/><path class="cls-8" d="m179.83,92.75h3.93v1.19c.09.83-.4,1.61-1.18,1.9h-1.23c-.85.04-1.57-.62-1.61-1.47,0-.04,0-.09,0-.13v-1.41l.09-.08Z"/><path class="cls-13" d="m182.58,95.84c.79-.28,1.28-1.07,1.18-1.9v-1.19h2.24c.07.6.07,1.22,0,1.82-.12.78-.82,1.34-1.61,1.29l-1.81-.02Z"/><path class="cls-12" d="m187.59,92.74v-3c0-.53.29-.84.76-.83s.7.31.7.83v3h-1.46Z"/><path class="cls-7" d="m179.83,52.2h-.09s0-.06,0-.09l.09.09Z"/><path class="cls-7" d="m179.83,92.75l-.08.09s0-.06,0-.09h.08Z"/><path class="cls-6" d="m189.05,72.57v1.46c.04.38-.23.73-.62.78-.03,0-.06,0-.09,0-.4.02-.73-.29-.75-.69,0-.03,0-.06,0-.09v-3c0-.4.33-.73.73-.73s.73.33.73.73c0,.44,0,.98,0,1.54Z"/><path class="cls-12" d="m187.59,78.66v-1.5c-.03-.38.25-.71.63-.75.02,0,.05,0,.07,0,.41.03.73.35.75.76v3.06c.03.37-.24.7-.62.74-.04,0-.08,0-.11,0-.38.02-.7-.27-.72-.66,0-.03,0-.07,0-.1,0-.51,0-1.03,0-1.55Z"/><path class="cls-12" d="m187.59,66.25v-1.46c0-.52.26-.8.71-.8s.74.27.75.82v2.92c-.01.42-.33.77-.75.81-.41-.02-.73-.36-.71-.77,0,0,0,0,0-.01,0-.51,0-1.01,0-1.51Z"/><path class="cls-12" d="m187.59,59.98v-1.41c0-.51.27-.8.72-.8.39-.02.72.28.74.66,0,.04,0,.08,0,.13v2.91c.05.4-.24.76-.64.81-.4.05-.76-.24-.81-.64,0-.06,0-.11,0-.17,0-.46,0-.98,0-1.49Z"/><path class="cls-12" d="m189.05,84.97v1.41c0,.51-.27.8-.72.8-.38.03-.71-.26-.73-.64,0-.05,0-.09,0-.14v-2.92c-.04-.38.23-.73.61-.78.04,0,.08,0,.13,0,.46,0,.71.29.72.81s-.01.97-.01,1.46Z"/><line class="cls-4" x1="199.69" y1="250.68" x2="200.19" y2="283.46"/><line class="cls-3" x1="199.69" y1="250.68" x2="200.03" y2="272.7"/><polygon class="cls-17" points="192.52 270.62 200.19 283.46 207.48 270.4 192.52 270.62"/><path class="cls-15" d="m214.18,191.99c.5,0,.99.02,1.49.02.84,0,1.54.69,1.55,1.54,0,.78,0,1.56,0,2.33,0,6.58,0,13.16,0,19.75,0,.43-.02.86-.15,1.28-.15.49-.75.93-1.27.93-5.57,0-11.15,0-16.72,0-.03,0-.05,0-.08,0,0-1.51,0-3.03,0-4.54,1.16,0,2.32,0,3.48-.01.15,0,.32.04.32-.21,0-.57.05-1.16-.08-1.71-.36-1.48-.79-2.95-1.17-4.43-.1-.4-.22-.79-.36-1.18-.22-.61.19-.92.56-1.25.6-.55.85-1.24.99-2.03.3-1.66-1.1-3.65-2.68-4.16-.05-.09-.12-.13-.22-.08-.08-.02-.16-.04-.24-.05-.04-.05-.08-.07-.14-.03-.15-.02-.31-.04-.46-.07,0-2.01,0-4.03,0-6.04,2.86,0,5.71,0,8.57-.02.18,0,.36-.01.53-.02,1.02.03,2.04.05,3.07,0,1,.06,2,.04,3.01,0Z"/><path class="cls-10" d="m199,213.29c0,1.51,0,3.03,0,4.54-.57,0-1.15.01-1.72.01-4.86,0-9.72-.02-14.58.02-1.28.01-1.94-.69-1.94-1.94.04-7.44.03-14.88,0-22.32,0-.89.72-1.6,1.57-1.59.5,0,.99-.01,1.49-.02,1,.03,2,.05,3-.01,1.02.06,2.04.03,3.06.01.17,0,.33.02.5.02,2.87,0,5.74,0,8.61.01,0,2.01,0,4.03,0,6.04-.32.15-.68.08-1.02.21-1.42.55-2.36,1.51-2.7,3.02-.06.03-.11.07-.03.14-.11,1.25.02,2.39,1.14,3.22.35.26.49.65.35,1.14-.09.3-.2.59-.27.9-.2.84-.42,1.66-.64,2.49-.16.61-.35,1.22-.5,1.83-.15.61-.11,1.23-.13,1.85-.01.31.07.42.4.41,1.14-.02,2.27,0,3.41,0Z"/><path class="cls-14" d="m186.83,191.98c-1,.06-2,.04-3,.01,0-2.7-.02-5.41.02-8.11.02-1.25.19-2.49.55-3.71.44-1.46,1.06-2.83,1.9-4.1,1.05-1.58,2.35-2.94,3.9-4.05,1.02-.73,2.09-1.38,3.27-1.78,1.17-.41,2.35-.81,3.61-.9.71-.05,1.41-.16,2.12-.14,1.77.03,3.47.38,5.13,1,1.65.62,3.14,1.52,4.5,2.65,1.17.97,2.13,2.12,2.94,3.4.58.9,1.03,1.86,1.42,2.87.21.55.36,1.12.55,1.68.17.51.21,1.06.27,1.6.35,3.19.08,6.39.17,9.58-1,.04-2,.05-3,0,0-2.28-.02-4.57.01-6.85.02-1.31-.15-2.6-.47-3.87-.45-1.78-1.28-3.39-2.48-4.76-1.47-1.68-3.26-2.95-5.42-3.64-1.53-.49-3.08-.64-4.69-.54-1.49.09-2.89.44-4.22,1.06-2.21,1.03-3.95,2.61-5.24,4.69-1.11,1.79-1.72,3.76-1.8,5.84-.1,2.69-.02,5.38-.02,8.08Z"/><path class="cls-5" d="m208.11,191.99c0-2.42.02-4.85,0-7.27-.01-1.29-.19-2.56-.71-3.76-.41-.95-.96-1.81-1.64-2.6-1.01-1.18-2.27-1.99-3.7-2.51-1.32-.48-2.7-.64-4.13-.46-.87.11-1.71.31-2.49.65-2.18.95-3.78,2.51-4.77,4.69-.46,1.02-.65,2.09-.7,3.2-.13,2.69-.02,5.38-.06,8.06-1.02.02-2.04.04-3.06-.01,0-2.69-.08-5.39.02-8.08.08-2.08.68-4.05,1.8-5.84,1.29-2.08,3.03-3.66,5.24-4.69,1.33-.62,2.73-.97,4.22-1.06,1.61-.09,3.16.06,4.69.54,2.16.69,3.94,1.95,5.42,3.64,1.2,1.38,2.03,2.98,2.48,4.76.32,1.27.49,2.55.47,3.87-.03,2.28-.01,4.57-.01,6.85-1.02.05-2.04.04-3.07,0Z"/><path class="cls-11" d="m199,213.29c-1.14,0-2.27-.02-3.41,0-.33,0-.41-.1-.4-.41.02-.62-.01-1.25.13-1.85.15-.62.34-1.22.5-1.83.22-.83.44-1.66.64-2.49.07-.31.18-.6.27-.9.14-.49,0-.88-.35-1.14-1.12-.83-1.25-1.97-1.14-3.22.06-.03.06-.08.03-.14.34-1.51,1.28-2.47,2.7-3.02.34-.13.7-.05,1.02-.21.15.02.31.04.46.07.03.08.07.12.14.03.08.02.16.04.24.05.04.11.14.08.22.08,1.58.51,2.98,2.5,2.68,4.16-.14.79-.4,1.48-.99,2.03-.36.33-.78.65-.56,1.25.14.39.25.78.36,1.18.38,1.48.81,2.94,1.17,4.43.13.55.09,1.14.08,1.71,0,.25-.17.21-.32.21-1.16,0-2.32,0-3.48.01Z"/><path class="cls-5" d="m200.07,198.3c-.09,0-.18.03-.22-.08.1-.05.17,0,.22.08Z"/><path class="cls-5" d="m199.6,198.17c-.07.09-.11.05-.14-.03.06-.03.1-.02.14.03Z"/><path class="cls-14" d="m195.28,201.3c.03.06.03.1-.03.14-.08-.07-.03-.1.03-.14Z"/><circle class="cls-2" cx="199.13" cy="195.83" r="39.02"/><path class="cls-15" d="m214.18,328.99c.5,0,.99.02,1.49.02.84,0,1.54.69,1.55,1.54,0,.78,0,1.56,0,2.33,0,6.58,0,13.16,0,19.75,0,.43-.02.86-.15,1.28-.15.49-.75.93-1.27.93-5.57,0-11.15,0-16.72,0-.03,0-.05,0-.08,0,0-1.51,0-3.03,0-4.54,1.16,0,2.32,0,3.48-.01.15,0,.32.04.32-.21,0-.57.05-1.16-.08-1.71-.36-1.48-.79-2.95-1.17-4.43-.1-.4-.22-.79-.36-1.18-.22-.61.19-.92.56-1.25.6-.55.85-1.24.99-2.03.3-1.66-1.1-3.65-2.68-4.16-.05-.09-.12-.13-.22-.08-.08-.02-.16-.04-.24-.05-.04-.05-.08-.07-.14-.03-.15-.02-.31-.04-.46-.07,0-2.01,0-4.03,0-6.04,2.86,0,5.71,0,8.57-.02.18,0,.36-.01.53-.02,1.02.03,2.04.05,3.07,0,1,.06,2,.04,3.01,0Z"/><path class="cls-10" d="m199,350.29c0,1.51,0,3.03,0,4.54-.57,0-1.15.01-1.72.01-4.86,0-9.72-.02-14.58.02-1.28.01-1.94-.69-1.94-1.94.04-7.44.03-14.88,0-22.32,0-.89.72-1.6,1.57-1.59.5,0,.99-.01,1.49-.02,1,.03,2,.05,3-.01,1.02.06,2.04.03,3.06.01.17,0,.33.02.5.02,2.87,0,5.74,0,8.61.01,0,2.01,0,4.03,0,6.04-.32.15-.68.08-1.02.21-1.42.55-2.36,1.51-2.7,3.02-.06.03-.11.07-.03.14-.11,1.25.02,2.39,1.14,3.22.35.26.49.65.35,1.14-.09.3-.2.59-.27.9-.2.84-.42,1.66-.64,2.49-.16.61-.35,1.22-.5,1.83-.15.61-.11,1.23-.13,1.85-.01.31.07.42.4.41,1.14-.02,2.27,0,3.41,0Z"/><path class="cls-14" d="m186.83,328.98c-1,.06-2,.04-3,.01,0-2.7-.02-5.41.02-8.11.02-1.25.19-2.49.55-3.71.44-1.46,1.06-2.83,1.9-4.1,1.05-1.58,2.35-2.94,3.9-4.05,1.02-.73,2.09-1.38,3.27-1.78,1.17-.41,2.35-.81,3.61-.9.71-.05,1.41-.16,2.12-.14,1.77.03,3.47.38,5.13,1,1.65.62,3.14,1.52,4.5,2.65,1.17.97,2.13,2.12,2.94,3.4.58.9,1.03,1.86,1.42,2.87.21.55.36,1.12.55,1.68.17.51.21,1.06.27,1.6.35,3.19.08,6.39.17,9.58-1,.04-2,.05-3,0,0-2.28-.02-4.57.01-6.85.02-1.31-.15-2.6-.47-3.87-.45-1.78-1.28-3.39-2.48-4.76-1.47-1.68-3.26-2.95-5.42-3.64-1.53-.49-3.08-.64-4.69-.54-1.49.09-2.89.44-4.22,1.06-2.21,1.03-3.95,2.61-5.24,4.69-1.11,1.79-1.72,3.76-1.8,5.84-.1,2.69-.02,5.38-.02,8.08Z"/><path class="cls-5" d="m208.11,328.99c0-2.42.02-4.85,0-7.27-.01-1.29-.19-2.56-.71-3.76-.41-.95-.96-1.81-1.64-2.6-1.01-1.18-2.27-1.99-3.7-2.51-1.32-.48-2.7-.64-4.13-.46-.87.11-1.71.31-2.49.65-2.18.95-3.78,2.51-4.77,4.69-.46,1.02-.65,2.09-.7,3.2-.13,2.69-.02,5.38-.06,8.06-1.02.02-2.04.04-3.06-.01,0-2.69-.08-5.39.02-8.08.08-2.08.68-4.05,1.8-5.84,1.29-2.08,3.03-3.66,5.24-4.69,1.33-.62,2.73-.97,4.22-1.06,1.61-.09,3.16.06,4.69.54,2.16.69,3.94,1.95,5.42,3.64,1.2,1.38,2.03,2.98,2.48,4.76.32,1.27.49,2.55.47,3.87-.03,2.28-.01,4.57-.01,6.85-1.02.05-2.04.04-3.07,0Z"/><path class="cls-11" d="m199,350.29c-1.14,0-2.27-.02-3.41,0-.33,0-.41-.1-.4-.41.02-.62-.01-1.25.13-1.85.15-.62.34-1.22.5-1.83.22-.83.44-1.66.64-2.49.07-.31.18-.6.27-.9.14-.49,0-.88-.35-1.14-1.12-.83-1.25-1.97-1.14-3.22.06-.03.06-.08.03-.14.34-1.51,1.28-2.47,2.7-3.02.34-.13.7-.05,1.02-.21.15.02.31.04.46.07.03.08.07.12.14.03.08.02.16.04.24.05.04.11.14.08.22.08,1.58.51,2.98,2.5,2.68,4.16-.14.79-.4,1.48-.99,2.03-.36.33-.78.65-.56,1.25.14.39.25.78.36,1.18.38,1.48.81,2.94,1.17,4.43.13.55.09,1.14.08,1.71,0,.25-.17.21-.32.21-1.16,0-2.32,0-3.48.01Z"/><path class="cls-5" d="m200.07,335.3c-.09,0-.18.03-.22-.08.1-.05.17,0,.22.08Z"/><path class="cls-5" d="m199.6,335.17c-.07.09-.11.05-.14-.03.06-.03.1-.02.14.03Z"/><path class="cls-14" d="m195.28,338.3c.03.06.03.1-.03.14-.08-.07-.03-.1.03-.14Z"/><circle class="cls-2" cx="199.13" cy="332.83" r="39.02"/></svg>