<?xml version="1.0" encoding="UTF-8"?><svg id="Layer_1" xmlns="http://www.w3.org/2000/svg" viewBox="0 0 400 400"><defs><style>.cls-1{fill:#009245;}.cls-2{stroke:#a5262d;}.cls-2,.cls-3,.cls-4{stroke-width:4px;}.cls-2,.cls-3,.cls-4,.cls-5{stroke-miterlimit:10;}.cls-2,.cls-3,.cls-4,.cls-5,.cls-6{fill:none;}.cls-7{fill:#57575e;}.cls-3{stroke:#0018c6;}.cls-8{fill:#d9d9ea;}.cls-9{fill:#eb917f;}.cls-10{fill:#48459c;}.cls-11{fill:#434348;}.cls-12{fill:#f3bd99;}.cls-4{stroke:#c000e2;}.cls-13{fill:#f15a24;}.cls-14{fill:#3392f5;}.cls-15{fill:#bacce9;}.cls-16{fill:#f4bd99;}.cls-17{fill:#c7c7c7;}.cls-18{fill:#bdbdbd;}.cls-19{fill:#ecf5fe;}.cls-5{stroke:#231f20;stroke-width:2px;}.cls-20{fill:#424248;}.cls-21{fill:#b9cce9;}.cls-22{fill:#97d6e5;}.cls-23{fill:#aaa;}.cls-24{fill:#484645;}.cls-25{fill:#3392f6;}.cls-26{fill:#9dd8e6;}.cls-27{fill:#33b1cb;}.cls-28{fill:#60acfd;}.cls-29{fill:#d7e1f2;}.cls-30{fill:#231f20;}.cls-31{fill:#33b1cc;}.cls-32{fill:#86cde8;}.cls-33{fill:#067fa6;}</style></defs><circle class="cls-2" cx="308.81" cy="59.7" r="45"/><path d="m279.51,44.5c-2.78-2.42-3.08-6.64-.65-9.42.11-.13.23-.26.35-.38,1.53-1.71,3.84-2.51,6.1-2.1l-.7,3c-1.22-.24-2.47.17-3.3,1.1-1.42,1.64-1.24,4.12.4,5.54,1.54,1.33,3.83,1.27,5.3-.14.91-.88,1.26-2.19.9-3.4l2.9-.9c.92,3.67-1.3,7.39-4.97,8.31-2.29.58-4.73-.07-6.43-1.71l.1.1Z"/><path d="m291.01,35.8c-1.21-2.48-.18-5.48,2.31-6.68,2.48-1.21,5.48-.18,6.68,2.31,1.21,2.48.18,5.46-2.29,6.68-2.48,1.22-5.47.19-6.69-2.28,0,0,0-.01,0-.02Zm6.5-3.1c-.57-1.05-1.89-1.45-2.94-.88s-1.45,1.89-.88,2.94c.54,1.01,1.78,1.42,2.82.94,1.08-.48,1.57-1.74,1.09-2.82-.03-.06-.06-.12-.09-.18Z"/><path d="m312.31,29.7c.41,2.62-1.38,5.08-4,5.5-1.04.15-2.09-.14-2.9-.8l.5,4.7-2.8.3-1.5-13.2,2.8-.3v.9c.69-.86,1.7-1.4,2.8-1.5,2.63-.18,4.92,1.81,5.1,4.44,0,.02,0,.04,0,.06v-.1Zm-2.8.3c-.08-1.25-1.16-2.19-2.4-2.11-.03,0-.07,0-.1,0-1.21.08-2.12,1.13-2.03,2.34,0,.09.02.18.03.26.08,1.25,1.16,2.19,2.4,2.11.03,0,.07,0,.1,0,1.21-.08,2.12-1.12,2.04-2.33,0-.1-.02-.2-.04-.3v.03Z"/><path d="m324.51,32.4c-.52,2.58-3.01,4.27-5.6,3.8-1.04-.24-1.94-.89-2.5-1.8l-1.1,4.6-2.8-.7,3.2-12.9,2.8.7-.2.9c.9-.55,1.99-.69,3-.4,2.53.76,3.97,3.43,3.21,5.96,0,.01,0,.02-.01.04v-.2Zm-2.8-.7c.27-1.22-.5-2.44-1.72-2.71-1.22-.27-2.44.5-2.71,1.72-.26,1.19.46,2.37,1.63,2.69,1.17.36,2.41-.3,2.77-1.47.02-.07.04-.15.06-.23h-.03Z"/><path d="m329.11,38.1c.57.35,1.24.49,1.9.4l1.2,2.4c-1.52.57-3.22.3-4.5-.7-2.7-1.8-3.2-4.7-1.6-7.1,1.17-2.5,4.14-3.58,6.65-2.42,2.5,1.17,3.58,4.14,2.42,6.65-.2.42-.45.82-.76,1.17-.2.3-.5.6-.7.9l-5.6-3.7c-.16.98.32,1.94,1.2,2.4h-.2Zm3.4-1.9c.37-.91-.02-1.96-.9-2.4-.77-.61-1.88-.57-2.6.1l3.4,2.3h.1Z"/><path d="m343.11,41.3l-2.4,2.1c-.6-1-2.1-2-3.5-.7l-3.2,2.8-1.9-2.1,7.2-6.2,1.9,2.1-1.3,1.1c1.18-.42,2.5-.06,3.3.9h-.1Z"/><rect class="cls-13" x="282.81" y="51.7" width="52" height="37" rx="2.9" ry="2.9"/><path class="cls-24" d="m300.11,82.5c-3.29.1-6.48-1.17-8.8-3.5-4.67-4.94-4.67-12.66,0-17.6,2.31-2.36,5.5-3.63,8.8-3.5,3.5,0,4.1.5,5.9,1.5,1.77.96,3.26,2.37,4.3,4.1l-5.2,3c-.48-.83-1.17-1.52-2-2-.92-.49-1.96-.73-3-.7-1.72-.07-3.38.59-4.6,1.8-1.18,1.23-1.8,2.9-1.7,4.6-.23,3.31,2.27,6.17,5.58,6.39.24.02.48.02.72,0,1.05.14,2.12-.11,3-.7.85-.45,1.55-1.15,2-2l5.2,3c-1.04,1.73-2.53,3.14-4.3,4.1-1.84,1.01-3.9,1.53-6,1.5h.1Z"/><path class="cls-24" d="m323.41,65.1h5.6v16.87h-5.6v-1.7c-1.1,1.47-2.86,2.3-4.7,2.2-1.72.12-3.39-.59-4.5-1.9-1.2-1.2-1.7-3-1.7-5.4v-10.07h5.6v9.4c-.06.74.19,1.46.7,2,.48.47,1.13.73,1.8.7.75.01,1.47-.28,2-.8.53-.65.78-1.47.7-2.3v-9h.1Z"/><line class="cls-6" x1="198.17" y1="113.66" x2="198.67" y2="146.44"/><line class="cls-5" x1="198.17" y1="113.66" x2="198.5" y2="135.68"/><polygon class="cls-30" points="190.99 133.6 198.67 146.44 205.95 133.38 190.99 133.6"/><line class="cls-6" x1="117.09" y1="109.4" x2="165.74" y2="148.7"/><line class="cls-5" x1="117.09" y1="109.4" x2="157.37" y2="141.94"/><polygon class="cls-30" points="150.96 146.38 165.74 148.71 160.37 134.75 150.96 146.38"/><line class="cls-6" x1="279.74" y1="109.4" x2="231.09" y2="148.7"/><line class="cls-5" x1="279.74" y1="109.4" x2="239.47" y2="141.94"/><polygon class="cls-30" points="236.47 134.75 231.09 148.7 245.87 146.38 236.47 134.75"/><circle class="cls-2" cx="91.19" cy="59.7" r="45"/><path class="cls-32" d="m61.19,61.97v-.6c.31-.48.83-.78,1.4-.8,1.39-.15,2.46-1.3,2.5-2.7v-.5c.05-.45.46-.77.91-.72.03,0,.06,0,.09.02.46-.01.86.34.9.8-.02.27.02.54.1.8.21,1.11,1.09,1.99,2.2,2.2.7.2.7.1.7-.6v-13.47c-.05-.39.22-.75.61-.8.06,0,.13,0,.19,0h30.6c0,.3-.3.4-.5.6l-7.15,7.2c-.2.17-.36.38-.5.6-.19.4-.11.88.2,1.2.32.33.83.37,1.2.1.21-.11.39-.29.5-.5l8.3-8.3c.29-.27.5-.62.6-1h3.4c0,.3-.3.4-.5.6l-13.3,13.3-.5.5c-.25.29-.25.71,0,1,.16.35.52.55.9.5.33-.05.64-.19.9-.4l14.6-14.6c.29-.21.48-.54.5-.9h1.1c1,0,.9-.1.9.9v28.3q0,.8.8.6c1.27-.35,2.16-1.49,2.2-2.8-.06-.49.29-.94.79-1,.07,0,.14,0,.21,0,.6,0,.9.4,1,1,.05,1.54,1.26,2.8,2.8,2.9.52,0,1,.32,1.2.8v.6c-.22.41-.64.67-1.1.7-1.57.04-2.81,1.33-2.8,2.9-.03.34-.17.65-.4.9-.25.23-.61.27-.9.1-.38-.12-.63-.5-.6-.9-.2-1.6-.9-2.6-2.3-2.9-.7-.2-.7-.1-.7.6v12.6c0,.53-.24.8-.7.8h-21.65c0-.3.3-.4.5-.6l7.5-7.5c.5-.6.6-1.1.1-1.5-.39-.38-1.01-.38-1.4,0l-.1.1-8.7,8.7c-.25.25-.42.56-.5.9h-3.4c0-.3.3-.4.5-.6l13.35-13.3c.2-.17.36-.38.5-.6.24-.39.16-.91-.2-1.2-.31-.33-.83-.35-1.16-.04-.01.01-.03.03-.04.04-.1,0-.2.2-.3.3l-14.6,14.6c-.26.24-.44.55-.5.9h-10.15c-.44.06-.84-.25-.9-.69,0-.07,0-.14,0-.21v-27.5c0-.7,0-.8-.7-.6-1.32.36-2.25,1.54-2.3,2.9.03.52-.36.97-.88,1-.04,0-.08,0-.12,0-.55,0-1-.45-1-1v-.3c-.14-1.41-1.28-2.51-2.7-2.6-.52-.02-.99-.28-1.3-.7l-.2-.13Zm5,.6c.37-.22.68-.53.9-.9-.27-.36-.58-.69-.9-1-.35.25-.65.55-.9.9.25.35.55.65.9.9h0v.1Zm50.9,14.2c-.19-.39-.51-.71-.9-.9-.35.25-.65.55-.9.9l.9.9.9-.9Z"/><path class="cls-31" d="m107.59,45.8c.3-.11.54-.32.7-.6.8-.8,1.6-.6,1.9.5-.04.35-.22.68-.5.9l-14.6,14.6c-.21.28-.55.43-.9.4-.37,0-.71-.19-.9-.5-.2-.3-.2-.7,0-1,.11-.21.29-.39.5-.5l13.3-13.3c.2-.2.4-.3.5-.6v.1Z"/><path class="cls-27" d="m83.79,91.6c-.3.1-.5.4-.8.6-.8.7-1.6.5-1.8-.6.02-.36.21-.69.5-.9l14.6-14.6.3-.3c.36-.25.84-.25,1.2,0,.36.29.44.81.2,1.2-.14.22-.3.43-.5.6l-13.3,13.3c-.2.2-.4.3-.5.6l.1.1Z"/><path class="cls-31" d="m101.49,45.8c.2,0,.4-.2.6-.4,1-1,1.6-.8,2.1.4-.08.39-.29.75-.6,1l-8.3,8.3-.5.5c-.37.27-.88.23-1.2-.1-.38-.25-.49-.77-.24-1.15.01-.02.02-.03.04-.05.11-.24.28-.45.5-.6l7.2-7.2c.2-.2.4-.3.5-.6l-.1-.1Z"/><path class="cls-31" d="m89.79,91.7c-.3.11-.54.32-.7.6-.8.8-1.6.5-1.9-.5.02-.33.21-.63.5-.8l8.7-8.7c.25-.43.8-.58,1.23-.33.06.04.12.08.17.13l.1.1c.39.39.39,1.02,0,1.41-.03.03-.06.06-.1.09l-7.5,7.5c-.2.2-.4.3-.4.6l-.1-.1Z"/><path d="m79.49,29.5c2.03,2.82,1.4,6.75-1.41,8.78-.16.11-.32.22-.49.32-3.03,2.4-7.43,1.9-9.83-1.13-2.4-3.03-1.9-7.43,1.13-9.83.32-.25.65-.47,1.01-.67,1.95-1.32,4.44-1.55,6.6-.6l-1.4,2.7c-1.21-.46-2.57-.27-3.6.5-1.8,1.08-2.37,3.42-1.29,5.22.06.1.12.19.19.28,1.2,1.9,3.5,2.4,5.7,1,1.3-.69,2-2.16,1.7-3.6l-3,1.9-1.5-2.2,5.6-3.7.6,1.03Z"/><path d="m80.39,21.8l2.8-.7,3.55,13.5-2.8.7-3.55-13.5Z"/><path d="m97.89,24.6l-.2,9.6h-2.9v-1c-.76.77-1.82,1.18-2.9,1.1-2.5,0-4.5-2.3-4.5-5.1-.09-2.62,1.96-4.81,4.58-4.9.04,0,.08,0,.12,0,1.07-.05,2.1.39,2.8,1.2v-.9h3Zm-3,4.7c.1-1.22-.8-2.29-2.01-2.39-.06,0-.13,0-.19,0-1.18-.09-2.21.8-2.3,1.99,0,.1,0,.21,0,.31-.1,1.22.8,2.29,2.01,2.39.06,0,.13,0,.19,0,1.18.09,2.21-.8,2.3-1.99,0-.1,0-.21,0-.31Z"/><path d="m106.59,34.5c-.8,2.1-2.9,2.3-4.8,1.6-1.65-.49-2.86-1.9-3.1-3.6l2.8-.5c-.07.73.39,1.4,1.1,1.6.6.2,1,.2,1.2-.2.4-1-4.2-2.1-3.1-5.2.7-2,2.7-2.3,4.6-1.6,1.45.47,2.53,1.7,2.8,3.2l-2.8.4c.03-.56-.35-1.07-.9-1.2-.5-.2-.8-.1-.9.2-.4,1,4.3,2,3.1,5.3Z"/><path d="m113.29,39.3c-1.3,1.8-3.4,1.4-5.1.2-1.46-.91-2.25-2.6-2-4.3l2.8.3c-.22.72.06,1.5.7,1.9.6.4,1,.4,1.2.1.6-.9-3.5-3.2-1.6-5.8,1.2-1.7,3.3-1.5,4.9-.3,1.27.82,1.97,2.29,1.8,3.8l-2.8-.4c0-.6,0-1.1-.5-1.4s-.8-.3-1,0c-.6.9,3.6,3.1,1.5,5.9h.1Z"/><circle class="cls-2" cx="200" cy="59.7" r="45"/><path d="m180.41,30.5c1.57,2.02,1.21,4.92-.8,6.5l-1.6,1.2,2.6,3.3-2.4,1.9-8.3-10.43,3.9-3.1c1.97-1.6,4.87-1.31,6.47.66,0,.01.02.02.03.04l.1-.07Zm-2.4,1.9c-.47-.71-1.43-.9-2.14-.43-.06.04-.11.08-.16.13l-1.6,1.2,2.1,2.7,1.6-1.2c.69-.56.79-1.58.23-2.27,0-.01-.02-.02-.03-.03v-.1Z"/><path d="m180.81,24.8l2.6-1.2,5.8,12.6-2.6,1.2-5.8-12.6Z"/><path d="m198.21,24.3l1.7,9.4-2.8.5-.2-.9c-.58.9-1.53,1.49-2.6,1.6-2.61.37-5.03-1.46-5.4-4.07,0,0,0-.02,0-.03-.62-2.51.92-5.04,3.43-5.66.06-.01.11-.03.17-.04,1.04-.24,2.13-.03,3,.6l-.2-.9,2.8-.5h.1Zm-2,5.2c-.14-1.2-1.22-2.06-2.42-1.93-.06,0-.12.02-.18.03-1.17.14-2,1.2-1.87,2.36.01.11.04.23.07.34.14,1.2,1.22,2.06,2.42,1.93.06,0,.12-.02.18-.03,1.17-.14,2-1.2,1.87-2.36-.01-.11-.04-.23-.07-.34Z"/><path d="m208.74,31.97c-.3,2.2-2.3,2.9-4.3,2.6-1.73-.04-3.25-1.16-3.8-2.8l2.6-1.1c.14.73.76,1.26,1.5,1.3.7,0,1,0,1.1-.5.1-1-4.6-1.1-4.2-4.3.3-2.1,2.1-2.9,4.1-2.6,1.51.13,2.82,1.1,3.4,2.5l-2.6,1c-.16-.54-.64-.94-1.2-1-.5,0-.8,0-.9.4-.1,1.1,4.6,1,4.1,4.4l.2.1Z"/><path d="m214.41,29.97l-1.2,3.1c-.3.8.3,1.1,1.5,1.5l-.9,2.4c-3.6-1-4.2-2.4-3.3-4.9l1.2-3.2-1.4-.5,1-2.6,1.4.5.6-1.7,3,.2-.9,2.5,1.8.7-1,2.6-1.8-.7v.1Z"/><path d="m219.74,29.4l2.4,1.5-4.9,8.2-2.4-1.5,4.9-8.2Zm1.1-2.3c.47-.8,1.5-1.07,2.3-.6.8.47,1.07,1.5.6,2.3-.47.8-1.5,1.07-2.3.6-.8-.44-1.1-1.45-.66-2.25,0-.02.02-.03.03-.05h.03Z"/><path d="m221.41,35.9c1.78-2.01,4.86-2.2,6.87-.41.08.07.15.14.23.21,1.3,1.19,1.84,2.99,1.4,4.7l-2.8-.7c.21-.73-.02-1.51-.6-2-.92-.82-2.33-.73-3.15.19-.76.86-.74,2.17.05,3.01.53.59,1.36.79,2.1.5l.8,2.7c-1.7.51-3.54.05-4.8-1.2-2.02-1.89-2.12-5.05-.23-7.07.01-.01.02-.02.03-.03l.1.1Z"/><path class="cls-29" d="m223.38,55.97v.1h-1.64q-.68,0-.68.69v30.33c.02.44-.13.88-.42,1.21-.19.22-.49.25-.68.45h-10.64c0-.09,0-.18,0-.27l-1.23-5.36c-.72-3.11-1.43-6.23-2.15-9.35-1.07-4.58-2.13-9.14-3.2-13.68-.92-4-1.84-7.97-2.75-11.92h15c.23-.04.46.03.63.18v6.21c0,.74.58,1.36,1.32,1.41h3.78c.28,0,.38-.09.38-.36v-1.83c.12,0,.17.1.24.18l2.04,2.01Z"/><path class="cls-21" d="m223.38,87.62c-.39.8-1.26,1.25-2.14,1.1-.41-.02-.82-.02-1.23,0,.19-.2.49-.24.68-.45.28-.34.43-.77.41-1.21v-30.35q0-.69.69-.69h1.59v31.6Z"/><path class="cls-18" d="m179.74,48.08v-.9c-.16-.87.29-1.74,1.1-2.11h2c0,.07.04.14.1.19.6.38.92,1.08.82,1.78-.02.38-.02.75,0,1.13h-3.94l-.08-.09Z"/><path class="cls-23" d="m183.74,48.17v-1.13c.11-.7-.21-1.4-.81-1.78-.06-.05-.1-.12-.1-.19h2c.89.41,1.38,1.37,1.17,2.33v.77h-2.26Z"/><path class="cls-19" d="m209.32,88.72h-6.22c0-.06,0-.13,0-.19l-1.83-8-3.18-13.66c-1.07-4.6-2.13-9.23-3.2-13.9-.37-1.61-.73-3.22-1.1-4.83h6.22c.91,4,1.82,7.97,2.74,11.91,1.05,4.55,2.11,9.09,3.17,13.64.72,3.12,1.43,6.24,2.14,9.35.41,1.79.83,3.58,1.24,5.36.01.11.02.21.02.32Z"/><path class="cls-19" d="m215.62,48.35c.13.03.26.1.34.21l5,5c.05.05.1.11.14.18v1.83c0,.28-.1.36-.38.36h-3.78c-.72-.06-1.29-.64-1.32-1.37v-6.21Z"/><path class="cls-29" d="m193.79,48.18c.37,1.61.73,3.22,1.1,4.83,1.06,4.62,2.12,9.24,3.19,13.86l3.18,13.69,1.83,8c0,.06,0,.13,0,.19h-14.05v-3c0-.51-.27-.81-.71-.82s-.75.29-.75.82v3h-9.21c-.95.02-1.73-.74-1.75-1.69,0-.01,0-.03,0-.04v-37.11c-.01-.94.74-1.71,1.68-1.72.02,0,.05,0,.07,0h9.23v3c-.06.4.22.77.62.82.03,0,.06,0,.09,0,.46,0,.75-.29.75-.83v-3h4.73Zm-4.74,20.31v-1.52c0-.4-.33-.73-.73-.73s-.73.33-.73.73v3c0,.4.33.73.73.73s.73-.33.73-.73c.01-.5,0-1,0-1.48Zm-1.47,6.14v1.55c0,.4.33.73.73.73s.73-.33.73-.73v-3.06c-.03-.41-.35-.73-.76-.76-.39,0-.7.31-.7.7,0,.02,0,.03,0,.05v1.52Zm0-12.41v1.5c-.02.41.29.77.71.79,0,0,0,0,0,0,.42-.05.74-.4.75-.82v-2.91c0-.55-.26-.83-.74-.83s-.71.29-.72.81,0,1,0,1.46Zm0-6.27v1.51c-.04.37.22.71.59.76.04,0,.08,0,.13,0,.39.02.72-.27.74-.65,0-.04,0-.08,0-.13v-2.92c.04-.38-.23-.73-.61-.78-.04,0-.08,0-.13,0-.45,0-.71.28-.72.8s0,.94,0,1.41h0Zm1.47,25v-1.47c0-.52-.27-.8-.72-.81-.39-.02-.72.27-.74.65,0,.04,0,.08,0,.13v2.92c-.05.38.21.72.59.78.05,0,.09,0,.14,0,.46,0,.71-.29.72-.8,0-.51.01-.94.01-1.38v-.02Z"/><path class="cls-21" d="m189.04,48.19v3c0,.53-.29.84-.75.82s-.7-.31-.71-.82v-3h1.46Z"/><path class="cls-18" d="m179.82,88.72h3.92v1.19c.1.83-.39,1.62-1.18,1.9h-1.22c-.84.04-1.56-.61-1.6-1.46,0-.05,0-.1,0-.14v-1.41l.08-.08Z"/><path class="cls-23" d="m182.57,91.81c.78-.29,1.27-1.07,1.18-1.9v-1.19h2.25c.07.6.07,1.21,0,1.81-.12.78-.82,1.34-1.61,1.29h-1.82Z"/><path class="cls-21" d="m187.59,88.71v-3c0-.54.29-.84.75-.83.4,0,.72.34.72.74,0,.03,0,.06,0,.09v3h-1.46Z"/><path class="cls-17" d="m179.82,48.17h-.08s0-.06,0-.09l.08.09Z"/><path class="cls-17" d="m179.82,88.72l-.07.09s0-.06,0-.09h.07Z"/><path class="cls-15" d="m189.05,68.49v1.48c0,.4-.33.73-.73.73s-.73-.33-.73-.73v-3c0-.4.33-.73.73-.73s.73.33.73.73c.01.47,0,1,0,1.52Z"/><path class="cls-21" d="m187.59,74.63v-1.5c-.03-.38.25-.71.63-.75.02,0,.05,0,.07,0,.4.03.72.36.75.76v3.06c.03.37-.24.7-.62.74-.04,0-.08,0-.11,0-.38.02-.7-.27-.72-.66,0-.03,0-.07,0-.1-.01-.51,0-1.03,0-1.55Z"/><path class="cls-21" d="m187.59,62.22v-1.46c0-.52.26-.8.71-.8s.74.27.74.82v2.92c0,.42-.32.76-.74.81-.41-.02-.74-.36-.72-.78,0,0,0,0,0-.01,0-.5,0-1,0-1.5Z"/><path class="cls-21" d="m187.59,55.97v-1.43c0-.52.26-.8.72-.8.38-.03.71.26.73.64,0,.05,0,.09,0,.14v2.92c0,.4-.33.73-.73.73s-.73-.33-.73-.73c0-.47.01-.98.01-1.47Z"/><path class="cls-21" d="m189.05,80.97v1.42c0,.51-.27.8-.72.8-.38.03-.71-.26-.73-.64,0-.05,0-.09,0-.14v-2.92c-.04-.38.23-.73.61-.78.04,0,.08,0,.13,0,.45,0,.7.29.71.81v1.45Z"/><circle class="cls-3" cx="199.68" cy="196.8" r="45"/><path d="m170.38,179.1c-2.57-2.45-2.66-6.52-.21-9.09.07-.07.14-.14.21-.21,1.52-1.59,3.75-2.27,5.9-1.8l-.7,2.8c-1.17-.32-2.42.07-3.2,1-1.44,1.29-1.56,3.49-.27,4.93.09.1.18.19.27.27,1.23,1.44,3.39,1.61,4.82.38.14-.12.26-.24.38-.38.9-.8,1.26-2.05.9-3.2l2.8-.8c.55,2.13-.11,4.39-1.7,5.9-2.39,2.57-6.41,2.71-8.97.33-.11-.1-.22-.21-.33-.33l.1.2Z"/><path d="m188.38,162.9l3.8,8.2-2.5,1.1-.4-.8c-.32.96-1.05,1.73-2,2.1-2.27.96-4.89-.1-5.85-2.37-.02-.04-.04-.09-.05-.13-1.14-2.21-.29-4.92,1.9-6.1.9-.48,1.97-.52,2.9-.1l-.4-.8,2.5-1.1h.1Zm-.6,5.2c-.44-1.08-1.68-1.6-2.76-1.16-.05.02-.09.04-.14.06-1.05.43-1.54,1.63-1.11,2.68.03.08.07.15.11.22.47,1.07,1.71,1.57,2.79,1.1.02-.01.05-.02.07-.03,1.04-.44,1.53-1.64,1.09-2.69-.03-.06-.06-.12-.09-.18h.04Z"/><path d="m206.28,164.5l.2,5.5h-2.74l-.2-5.2c0-.9-.5-1.5-1.3-1.4s-1.4.7-1.3,1.7l.2,5.1h-2.7l-.2-5.2c0-.9-.5-1.5-1.3-1.4s-1.4.7-1.3,1.7l.2,5.1h-2.7l-.3-8.9h2.7v.7c.57-.75,1.46-1.19,2.4-1.2.93-.06,1.84.35,2.4,1.1.62-.81,1.58-1.3,2.6-1.3,1.84-.1,3.41,1.31,3.51,3.14,0,.15,0,.3,0,.46l-.16.1Z"/><path d="m212.18,170.2c.61.25,1.29.25,1.9,0l1.6,1.9c-1.28.83-2.89.98-4.3.4-2.9-1.1-4-3.7-3-6.2.8-2.41,3.4-3.71,5.8-2.91.1.03.2.07.3.11,2.31.8,3.54,3.32,2.75,5.63-.04.13-.09.25-.15.37-.11.36-.27.7-.5,1l-6-2.2c.03.93.69,1.71,1.6,1.9Zm2.7-2.5c.09-.89-.45-1.72-1.3-2-.83-.42-1.85-.11-2.3.7l3.6,1.3Z"/><path d="m225.74,169.9l-1.7,2.5c-.77-.92-2.14-1.03-3.06-.26-.13.11-.24.23-.34.36l-2.3,3.3-2.2-1.5,5.1-7.4,2.2,1.5-.9,1.3c.95-.7,2.25-.7,3.2,0v.2Z"/><path d="m233.68,178.7l-6.9,5.8-1.7-2.1.6-.5c-1.02-.03-1.97-.5-2.6-1.3-1.5-2-1.15-4.83.8-6.4,1.83-1.71,4.68-1.62,6.4.2.7.76,1.02,1.78.9,2.8l.6-.5,1.7,2.1.2-.1Zm-5.2.9c.93-.72,1.11-2.05.39-2.99-.03-.04-.06-.08-.09-.11-.73-.91-2.06-1.05-2.97-.32-.05.04-.09.08-.13.12-.93.72-1.11,2.05-.39,2.99.03.04.06.08.09.11.73.91,2.06,1.05,2.97.32.05-.04.09-.08.13-.12h0Z"/><path class="cls-8" d="m228.68,206.9v.2c-.3,0-.2.3-.2.4.02.5-.02,1-.1,1.5-.46,3.4-1.54,6.69-3.2,9.7-1.45,2.61-3.27,5.01-5.4,7.1-2.28,2.2-4.92,3.99-7.8,5.3-2.42,1.11-4.97,1.89-7.6,2.3l-2.4.3h-3.8c-.66-.12-1.33-.19-2-.2-6.9-.93-13.23-4.34-17.8-9.6-3.72-4.31-6.06-9.64-6.7-15.3.03-.54-.04-1.08-.2-1.6v-3.6c.09-.15.13-.33.1-.5,0-.81.1-1.62.3-2.4.52-3.15,1.57-6.2,3.1-9,1.42-2.61,3.24-4.97,5.4-7,6.12-5.88,14.57-8.71,23-7.7,3.19.39,6.3,1.31,9.2,2.7,6.29,3.11,11.23,8.41,13.9,14.9.98,2.36,1.62,4.86,1.9,7.4.17,1.49.23,3,.2,4.5-.02.21.02.41.1.6h0Zm-23.8,22.9c1.12-.17,2.22-.44,3.3-.8,11.94-4.11,18.99-16.42,16.5-28.8-1.9-8.9-7.3-15.1-15.7-18.5-1.27-.56-2.62-.93-4-1.1-.23-.08-.46-.15-.7-.2-2.08-.32-4.2-.38-6.3-.2-3.92.22-7.71,1.46-11,3.6-8.9,5.8-12.9,14-11.8,24.6.69,6.91,4.39,13.16,10.1,17.1,4.69,3.4,10.41,5.1,16.2,4.8,1.15.03,2.3-.14,3.4-.5h0Z"/><path class="cls-7" d="m204.88,229.8c-1.11.31-2.25.48-3.4.5-5.8.39-11.55-1.31-16.2-4.8-5.8-4.3-9.4-10-10.1-17.1-1.2-10.6,2.9-18.8,11.8-24.6,3.29-2.14,7.08-3.38,11-3.6,2.1-.18,4.22-.12,6.3.2.25-.02.5.05.7.2.15.12.32.22.5.3,4.28,1.29,8.03,3.92,10.7,7.5,1.29,1.66,2.37,3.47,3.2,5.4,1.38,3.22,2.18,6.67,2.36,10.17.05,1.84-.05,3.68-.3,5.5-.39,2.82-1.23,5.55-2.5,8.1-1.36,2.79-3.22,5.29-5.5,7.4-1.88,1.7-4.05,3.05-6.4,4-.72.22-1.42.49-2.1.8l-.06.03Zm-23.14-24.6c.03,10.02,8.18,18.13,18.2,18.1,10.02-.03,18.13-8.18,18.1-18.2-.03-10.02-8.18-18.13-18.2-18.1-9.98.03-18.07,8.12-18.1,18.1v.1Z"/><path class="cls-11" d="m204.88,229.8c.68-.33,1.38-.59,2.1-.8,2.35-.96,4.51-2.31,6.4-4,2.28-2.11,4.14-4.61,5.5-7.4,1.27-2.55,2.11-5.28,2.5-8.1.3-1.82.4-3.66.3-5.5-.09-3.53-.91-7-2.4-10.2-.83-1.93-1.91-3.74-3.2-5.4-2.67-3.58-6.42-6.21-10.7-7.5-.2,0-.3-.1-.5-.3,1.38.17,2.73.54,4,1.1,8.4,3.4,13.8,9.6,15.7,18.5,2.55,12.39-4.52,24.74-16.5,28.8-1.06.42-2.17.69-3.3.8h.1Z"/><path class="cls-25" d="m181.74,205.3c0-10.05,8.15-18.2,18.2-18.2,10.05,0,18.2,8.15,18.2,18.2,0,10.05-8.15,18.2-18.2,18.2h0c-10.02.01-18.16-8.08-18.2-18.1h0v-.1Zm18.2-11.3h-8.2c-.86-.07-1.71.26-2.3.9-.2.2-.3.4-.5.6-2.83,3.04-4.18,7.17-3.7,11.3.35,3.58,2.03,6.89,4.7,9.3.29.3.68.48,1.1.5h17c.94.03,1.85-.33,2.5-1,.2-.2.3-.4.5-.5,2.96-3.32,4.25-7.81,3.5-12.2-.53-2.97-1.92-5.72-4-7.9-.55-.64-1.36-1.01-2.2-1h-8.4Z"/><path class="cls-10" d="m199.98,193.97h8.4c.84,0,1.65.36,2.2,1,2.12,2.16,3.52,4.92,4,7.9.78,4.39-.51,8.89-3.5,12.2-.11.21-.29.39-.5.5-.6.74-1.55,1.12-2.5,1h-17c-.42-.02-.81-.2-1.1-.5-2.65-2.42-4.32-5.73-4.7-9.3-.48-4.13.87-8.26,3.7-11.3.2-.17.36-.38.5-.6.58-.65,1.43-.99,2.3-.9h8.2Zm7.9,11.3c.03-4.34-3.46-7.87-7.8-7.9-.03,0-.07,0-.1,0-4.36-.06-7.94,3.44-8,7.8-.06,4.36,3.44,7.94,7.8,8,4.36.06,7.94-3.44,8-7.8,0-.03,0-.07,0-.1h.1,0Z"/><path class="cls-20" d="m207.88,205.3c-.05,4.3-3.5,7.79-7.8,7.9-4.23.13-7.77-3.2-7.9-7.43,0-.16,0-.31,0-.47,0-4.36,3.54-7.9,7.9-7.9s7.9,3.54,7.9,7.9h-.1Zm-7.9-4.4c-2.42.02-4.38,1.98-4.4,4.4h0c.02,2.42,1.98,4.38,4.4,4.4,2.41.02,4.38-1.93,4.4-4.34,0-.02,0-.04,0-.06,0-2.44-1.96-4.44-4.4-4.5h0v.1Z"/><path class="cls-28" d="m199.98,209.7c-2.38.05-4.35-1.84-4.4-4.22,0-.06,0-.12,0-.18.02-2.42,1.98-4.38,4.4-4.4h0c.4.2.5.7.6,1.1.5,2.21.5,4.49,0,6.7-.01.44-.24.85-.6,1.1v-.1Z"/><path class="cls-14" d="m199.98,209.7c.4-.2.5-.7.6-1.1.5-2.21.5-4.49,0-6.7-.01-.44-.24-.85-.6-1.1,2.46,0,4.45,2,4.44,4.46,0,2.45-1.99,4.44-4.44,4.44h0Z"/><line class="cls-6" x1="199.69" y1="251.45" x2="200.19" y2="284.23"/><line class="cls-5" x1="199.69" y1="251.45" x2="200.03" y2="273.47"/><polygon class="cls-30" points="192.52 271.39 200.19 284.23 207.48 271.17 192.52 271.39"/><path class="cls-16" d="m177.7,365.2c.5-.4.9-.9,1.4-1.3,2.3-2.3,4.5-4.5,6.8-6.8,1.6-1.7,4.3-1.7,6,0,.6.5.9,1.2,1.1,2,.1.6.2,1.3,0,1.9-.3.9-.8,1.8-1.5,2.5-2,1.9-3.9,3.9-5.8,5.8-.3.3-.3.4,0,.7,1,1.1,1.8,2.5,2.2,3.9h-13.2c-.2,0-.4,0-.4-.2,0-1.3-.1-2.5.2-3.7.3-1.2.9-2.3,1.7-3.1l1.5-1.5v-.2Z"/><path class="cls-12" d="m210.3,363c-1.4-.6-2.1-2.7-1.4-4.2.5-1.3,1.9-2.2,3.3-2.1h8.4c1.9.2,3,1.1,3.4,2.8-.2,0-.2.1-.2.2-.4.9-1.1,1.6-2,1.9-.6.2-1.2.3-1.8.3h-8.4c-1,0-1.2,0-1.3,1.1Z"/><path class="cls-16" d="m210.3,369.9c-1.6-.9-2.2-3-1.3-4.6.5-.8,1.3-1.4,2.2-1.6.4,0,.7-.1,1.1-.2h8.8c.7.2,1.4.6,1.9,1,.5.5.8,1.1,1,1.8,0,0-.2.1-.2.2-.7,1.7-2.1,2.2-3.7,2.2h-8.6c-1,0-1.2.2-1.2,1.2Z"/><path class="cls-16" d="m208.6,373.9c0-1.6,1.1-3,2.6-3.3.2,0,.5,0,.7-.1,3.1,0,6.3.1,9.4,0,0,.2.2.2.3.2,1.2.4,2.1,1.3,2.4,2.6.2.7,0,.8-.6.8h-14.8v-.2Z"/><path class="cls-33" d="m187.9,373.9c-.4-1.5-1.1-2.8-2.2-3.9-.3-.3-.3-.4,0-.7,2-1.9,3.9-3.9,5.8-5.8.7-.7,1.2-1.5,1.5-2.5.6,1.5.3,3.3-.9,4.4-1.3,1.3-2.6,2.6-3.8,3.8-.3.3-.3.4,0,.7,1,1.1,1.8,2.5,2.2,3.9h-2.6v.1Z"/><path class="cls-9" d="m221.3,370.3c-3.1.2-6.3,0-9.4,0-.2,0-.5,0-.7.1-.3-.2-.6-.2-.8-.5h0c0-1.1.2-1.3,1.2-1.3h8.6c1.7,0,3-.5,3.7-2.2,0,0,.1-.2.2-.2.2,2-.7,3.4-2.4,4h-.3l-.1.1Z"/><path class="cls-9" d="m221.1,363.5h-8.8c-.4,0-.7,0-1.1.2-.2-.2-.6-.2-.8-.6h-.1c.1-1.1.2-1.3,1.3-1.3h8.4c.6,0,1.2,0,1.8-.3.9-.3,1.6-1,2-1.9,0-.1,0-.2.2-.2.4,1.8-.7,3.5-2.5,4h-.4v.1Z"/><path class="cls-22" d="m210.3,336.1h-3.8c-.3,0-.5,0-.5-.4,0-.87.43-1.3,1.3-1.3h6.9c.4,0,.5,0,.5.5,0,.87-.43,1.3-1.3,1.3h-3.1v-.1Z"/><path class="cls-26" d="m213.3,330.9h3.4c.3,0,.4,0,.4.4q0,1.4-1.3,1.4h-5.9c-.4,0-.5,0-.5-.5,0-.87.4-1.3,1.2-1.3h2.7Z"/><path class="cls-26" d="m206,331.7c0-.53.27-.8.8-.8s.83.3.9.9q0,.9-.9.9c-1,0-.8,0-.8-.9v-.1Z"/><path class="cls-12" d="m210.3,363h.1c0,.1-.1,0-.1,0Z"/><path class="cls-1" d="m217,326.6h-35.8c-.4,0-.9,0-1.3.2-1.4.5-2.4,1.9-2.3,3.4v35.1c.5-.4.9-.9,1.4-1.3,2.3-2.3,4.5-4.5,6.8-6.8.5-.6,1.2-.9,2-1.1,2.3-.6,4.6.8,5.1,3.1.1.6.2,1.3,0,1.9.6,1.5.3,3.3-.9,4.4-1.3,1.3-2.6,2.6-3.8,3.8-.3.3-.3.4,0,.7,1,1.1,1.8,2.5,2.2,3.9h18.1c0-1.6,1.1-3,2.6-3.4-.3-.2-.6-.2-.8-.5h0c-.8-.5-1.4-1.3-1.6-2.3-.4-1.8.7-3.6,2.5-4.1-.2-.2-.6-.2-.8-.6h-.1c-1.4-.8-2.1-2.8-1.4-4.4.5-1.3,1.9-2.2,3.3-2.1h8.4v-26.5c0-2.2-1.4-3.6-3.6-3.6v.2Zm-11,5.1c0-.53.27-.8.8-.8q.9,0,.9.9t-.9.9c-1,0-.8,0-.8-.9v-.1Zm7.4,4.4h-6.9c-.3,0-.5,0-.5-.4q0-1.3,1.3-1.3h6.9c.4,0,.5,0,.5.5q0,1.3-1.3,1.3v-.1Zm2.5-3.4h-5.9c-.4,0-.5,0-.5-.5q0-1.3,1.2-1.3h6.1c.3,0,.4,0,.4.4q0,1.4-1.3,1.4Z"/><path class="cls-8" d="m197,338h0v.6c-.1.9-.4,1.8-.9,2.7-.4.7-.9,1.4-1.5,1.9-.6.6-1.3,1.1-2.1,1.5-.7.3-1.4.5-2.1.6h-2.2c-1-.1-2-.5-2.9-1-.7-.4-1.4-1-1.9-1.6s-1-1.3-1.3-2.1c-.3-.7-.5-1.4-.6-2.1v-2.2c.1-.9.4-1.7.9-2.5.4-.7.9-1.3,1.5-1.9,1.7-1.6,4-2.4,6.3-2.1.9,0,1.7.3,2.5.7,1.7.9,3.1,2.3,3.8,4.1.3.6.4,1.3.5,2v1.2s0,.1,0,.2Zm-6.5,6.2c.3,0,.6-.1.9-.2,3.2-1.1,5.2-4.5,4.5-7.8-.5-2.4-2-4.1-4.3-5-.3-.1-.7-.3-1.1-.3h-.2c-.6,0-1.1-.1-1.7,0-1.1,0-2.1.4-3,1-2.4,1.6-3.5,3.8-3.2,6.7.2,2,1.2,3.5,2.8,4.7,1.3,1,2.8,1.4,4.4,1.3.3,0,.6,0,.9-.1v-.3Z"/><path class="cls-7" d="m190.5,344.2c-.3.1-.6.1-.9.1-1.6,0-3.1-.3-4.4-1.3-1.6-1.2-2.6-2.7-2.8-4.7-.3-2.9.8-5.1,3.2-6.7.9-.6,1.9-.9,3-1h2c1.2.4,2.2,1.1,2.9,2,.4.5.6.9.9,1.5.4.9.6,1.8.6,2.8v1.5c-.1.8-.3,1.5-.7,2.2-.4.8-.9,1.4-1.5,2-.5.5-1.1.8-1.7,1.1-.2,0-.4.1-.6.2v.3Zm-6.3-6.7c0,2.7,2.2,5,5,5s5-2.2,5-5-2.2-5-5-5-5,2.2-5,4.9h0v.1Z"/><path class="cls-11" d="m190.5,344.2c.2-.1.4-.1.6-.2.6-.3,1.2-.6,1.7-1.1.6-.6,1.1-1.3,1.5-2,.3-.7.6-1.4.7-2.2,0-.5.1-1,0-1.5,0-1-.3-1.9-.6-2.8-.2-.5-.5-1-.9-1.5-.8-1-1.7-1.7-2.9-2h-.1c.4,0,.7.2,1.1.3,2.3.9,3.8,2.6,4.3,5,.7,3.3-1.3,6.8-4.5,7.8-.3,0-.6.2-.9.2Z"/><path class="cls-25" d="m184.3,337.5c0-2.7,2.2-5,5-5s5,2.2,5,5-2.2,5-5,5h0c-2.7,0-5-2.2-5-4.9h0v-.1Zm5-3.1h-2.2c-.3,0-.5,0-.6.2,0,0,0,.1-.1.2-.8.9-1.1,1.9-1,3.1,0,1,.5,1.9,1.3,2.5,0,0,.2.1.3.1h4.6c.3,0,.5,0,.7-.3l.1-.1c.8-1,1.1-2.1.9-3.3-.1-.8-.5-1.5-1.1-2.2-.2-.2-.3-.3-.6-.3h-2.3v.1Z"/><path class="cls-10" d="m189.2,334.4h2.3c.3,0,.4.1.6.3.6.6,1,1.3,1.1,2.2.2,1.2-.1,2.4-.9,3.3l-.1.1c-.2.2-.4.3-.7.3h-4.6c-.1,0-.2,0-.3-.1-.7-.7-1.2-1.5-1.3-2.5-.1-1.2.2-2.2,1-3.1,0,0,0-.1.1-.2.2-.2.4-.3.6-.2h2.2v-.1Zm2.2,3.1c0-1.2-.9-2.2-2.2-2.2-1.2,0-2.1.9-2.1,2.1s.9,2.2,2.2,2.2c1.2,0,2.1-.9,2.1-2.1h0Z"/><path class="cls-20" d="m191.4,337.5c0,1.2-.9,2.1-2.1,2.1s-2.2-.9-2.2-2.2c0-1.2.9-2.1,2.1-2.1s2.1.9,2.2,2.2Zm-2.2-1.2c-.7,0-1.2.5-1.2,1.2h0c0,.7.5,1.2,1.2,1.2s1.2-.5,1.2-1.2-.5-1.2-1.2-1.2h0Z"/><path class="cls-28" d="m189.2,338.7c-.7,0-1.2-.5-1.2-1.2s.5-1.2,1.2-1.2h0c.1,0,.1.2.2.3.1.6.1,1.2,0,1.8,0,.1,0,.2-.2.3Z"/><path class="cls-14" d="m189.2,338.7c.1,0,.1-.2.2-.3.1-.6.1-1.2,0-1.8,0-.1,0-.2-.2-.3.7,0,1.2.6,1.2,1.2s-.5,1.2-1.2,1.2Z"/><circle class="cls-4" cx="200" cy="340.3" r="45"/><path d="m169.4,341.5l.2,2.1-5.3.4,4,2.1v.2l-3.7,2.6,5.3-.4.2,2.1-9.1.7-.2-2.1,3.9-2.8-4.2-2.2-.2-2.1,9.1-.7v.1Z"/><path d="m168.8,337.1c.1-.5,0-1-.2-1.3l1.2-1.3c.7.8,1,1.8.7,3-.5,2.2-2.2,3.2-4.1,2.8s-3.1-2.1-2.6-4.1c.4-1.9,2.1-2.9,4-2.5.3,0,.5.1.7.2l-1,4.5c.7-.1,1.1-.6,1.2-1.3h.1Zm-2.1-1.7c-.8,0-1.2.6-1.3,1.1-.2.7.1,1.3.7,1.6,0,0,.6-2.7.6-2.7Z"/><path d="m165.9,323.9l8.2,3.9-.8,1.8-.6-.3c.3.6.3,1.3-.1,2.1-.7,1.5-2.7,2.2-4.4,1.3-1.7-.8-2.5-2.7-1.8-4.3.4-.8.9-1.2,1.6-1.4l-2.9-1.4.8-1.8v.1Zm4.4,4.3c-.9-.4-1.7,0-2.1.7-.4.8-.1,1.7.8,2.1.9.4,1.7,0,2.1-.7s.1-1.7-.8-2.1Z"/><path d="m168,322.4c-.5-.4-.6-1.1-.3-1.6.4-.5,1.1-.6,1.6-.3.5.4.6,1.1.3,1.6-.4.5-1.1.6-1.6.3Zm1.5.9l1.1-1.6,5.3,3.8-1.1,1.6-5.3-3.8Z"/><path d="m176.7,315.2l4.5,4.7-1.4,1.4-.4-.4c0,.7-.2,1.3-.8,1.9-1.2,1.2-3.3,1.1-4.6-.3-1.4-1.4-1.4-3.4-.2-4.6.6-.6,1.3-.8,1.9-.8l-.4-.4,1.4-1.4v-.1Zm.9,3.7c-.7-.7-1.6-.7-2.2,0-.6.6-.7,1.5,0,2.2s1.6.7,2.2,0c.6-.6.7-1.5,0-2.2Z"/><path d="m179.6,315.1l4.2-2.6,1,1.6-4.2,2.6-1-1.6Z"/><path d="m186.1,314.4l1.4-1.6c.6.6,1.2.9,2.2.6.9-.3,1-.8.9-1.1-.2-.5-.7-.6-2.2-.5-1.4,0-2.9,0-3.4-1.7-.6-1.7.5-3.1,2-3.6,1.4-.5,2.8-.2,3.8.9l-1.3,1.5c-.5-.5-1-.8-1.8-.5-.6.2-.8.6-.7,1s.4.6,1.9.5c1.4,0,3.1-.1,3.7,1.7.6,1.7-.4,3.1-2.3,3.7-1.8.6-3.3.2-4.2-.9Z"/><path d="m192.5,306c-.1-.6.3-1.2,1-1.3.6-.1,1.2.3,1.3,1,.1.6-.3,1.2-1,1.3-.6.1-1.2-.3-1.3-1Zm.5,1.7l1.9-.3,1.1,6.4-1.9.3-1.1-6.4Z"/><path d="m203.2,309.5v4h-2v-3.7c0-.8-.5-1.2-1.1-1.2-.7,0-1.2.4-1.2,1.3v3.5h-2v-6.5h2v.6c.4-.5,1-.8,1.9-.8,1.3,0,2.4.9,2.4,2.7v.1Z"/><path d="m212.1,308.9l-1.5,6c-.5,2.1-2.4,2.6-4.1,2.2-1.3-.3-2.3-1.1-2.6-2.3l1.8-.5c.1.5.4.9,1.2,1.2.9.2,1.5,0,1.8-1v-.6c-.4.4-1.1.6-1.9.4-1.8-.4-2.7-2.2-2.3-4,.4-1.7,2.1-2.9,3.9-2.4.8.2,1.4.7,1.6,1.3l.2-.6,1.8.5.1-.2Zm-2.6,2.6c.2-.9-.3-1.6-1.2-1.8-.9-.2-1.7.2-1.9,1.1s.3,1.6,1.2,1.8c.9.2,1.7-.2,1.9-1.1Z"/><path d="m215.3,307.1l1.8.8-3.9,8.7-1.8-.8,3.9-8.7Z"/><path d="m217.9,317.5c.4.3.9.4,1.3.3l.8,1.6c-1,.4-2.1.2-3.1-.5-1.9-1.2-2.2-3.2-1.1-4.9,1.1-1.6,3.1-2.1,4.8-.9,1.6,1,1.9,3.1.9,4.7-.2.2-.3.4-.5.6l-3.8-2.6c-.2.7.2,1.2.8,1.6l-.1.1Zm2.3-1.3c.2-.7,0-1.3-.6-1.6-.6-.4-1.2-.4-1.7,0l2.3,1.5v.1Z"/><path d="m224.6,320.8c1.5-1.2,3.6-1,4.8.6.8,1,.9,2.3.5,3.3l-1.8-.7c.2-.5.1-1-.2-1.4-.5-.7-1.4-.8-2.1-.2s-.8,1.4-.3,2.1c.4.5.9.7,1.4.5l.3,1.9c-1.1.2-2.3-.3-3.1-1.3-1.2-1.6-.9-3.6.6-4.8h-.1Z"/><path d="m234.8,331.3l-5.9,2.8-.8-1.8.6-.3c-.6-.2-1.2-.6-1.5-1.4-.7-1.5,0-3.4,1.8-4.3,1.8-.8,3.7-.2,4.4,1.4.4.8.4,1.5.1,2.1l.6-.3.8,1.8h-.1Zm-3.8-.4c.9-.4,1.2-1.3.8-2.1s-1.2-1.1-2.1-.7c-.9.4-1.2,1.3-.8,2.1.4.8,1.2,1.1,2.1.7Z"/><path d="m234.7,343.9l-3.9.6-.3-1.9,3.8-.5c.6,0,1-.5.9-1.1,0-.6-.6-.9-1.4-.8l-3.6.5-.3-1.9,3.8-.5c.6,0,1-.5.9-1.1,0-.6-.6-.9-1.4-.8l-3.6.5-.3-1.9,6.4-.9.3,1.9h-.6c.5.3.9.8,1,1.7.1.8-.1,1.4-.6,1.8.6.3,1,.8,1.1,1.7.2,1.5-.7,2.6-2.3,2.8l.1-.1Z"/><path d="m231.5,348.7c0,.5,0,1,.3,1.3l-1.1,1.4c-.8-.8-1.1-1.8-.9-3,.3-2.2,2-3.3,3.9-3.1,1.9.3,3.2,1.9,2.9,3.9-.3,1.9-1.9,3.1-3.9,2.8-.3,0-.5-.1-.8-.2l.7-4.6c-.7.1-1,.7-1.1,1.4v.1Zm2.2,1.5c.8,0,1.1-.6,1.2-1.2.1-.7-.2-1.3-.8-1.5l-.4,2.8v-.1Z"/><path d="m234.2,358.1l-2.1-.7c.4-.7.5-1.9-.8-2.3l-2.8-1,.6-1.8,6.1,2.1-.6,1.8-1.1-.4c.7.5.8,1.5.6,2.3h.1Z"/><path d="m230.2,365.3l-5.6-3.3,1-1.7.5.3c-.2-.6-.2-1.3.3-2.1.9-1.5,2.9-1.9,4.5-1,1.7,1,2.3,2.9,1.4,4.4-.4.8-1,1.2-1.7,1.3l.5.3-1,1.7.1.1Zm-1.8-3.3c.8.5,1.7.2,2.1-.5.4-.8.2-1.6-.6-2.1s-1.7-.2-2.1.5c-.4.8-.2,1.6.6,2.1Z"/></svg>