<?xml version="1.0" encoding="UTF-8"?><svg id="Layer_1" xmlns="http://www.w3.org/2000/svg" viewBox="0 0 400 400"><defs><style>.cls-1{fill:#435256;}.cls-2{fill:#eb917f;}.cls-3{fill:#fbe501;}.cls-4{fill:#0c4a4e;}.cls-5{fill:#f9f3b1;}.cls-6{fill:#fcc472;}.cls-7{fill:#2d3b3d;}.cls-8{fill:#f3bd99;}.cls-9{stroke:#c000e2;}.cls-9,.cls-10{stroke-width:4px;}.cls-9,.cls-10,.cls-11{stroke-miterlimit:10;}.cls-9,.cls-10,.cls-11,.cls-12{fill:none;}.cls-13{fill:#d9cfca;}.cls-14{fill:#e5dedc;}.cls-15{fill:#97f8fe;}.cls-16{fill:#f1efef;}.cls-17{fill:#fbc372;}.cls-18{fill:#f4bd99;}.cls-19{fill:#fedd46;}.cls-20{fill:#06687f;}.cls-10{stroke:#00b51e;}.cls-21{fill:#fe7038;}.cls-22{fill:#152433;}.cls-11{stroke:#231f20;stroke-width:2px;}.cls-23{fill:#fe415d;}.cls-24{fill:#e6dedc;}.cls-25{fill:#97d6e5;}.cls-26{fill:#7dcbe5;}.cls-27{fill:#eecf15;}.cls-28{fill:#9dd8e6;}.cls-29{fill:#fdc472;}.cls-30{fill:#0092b9;}.cls-31{fill:#e5eff1;}.cls-32{fill:#d0c8c3;}.cls-33{fill:#db411d;}.cls-34{fill:#7dd4f3;}.cls-35{fill:#231f20;}.cls-36{fill:#9fddea;}.cls-37{fill:#067fa6;}.cls-38{fill:#f99e3d;}</style></defs><line class="cls-12" x1="111.73" y1="201" x2="144.51" y2="200.5"/><line class="cls-11" x1="111.73" y1="201" x2="133.76" y2="200.66"/><polygon class="cls-35" points="131.68 208.18 144.51 200.5 131.45 193.22 131.68 208.18"/><line class="cls-12" x1="289.52" y1="201" x2="256.73" y2="200.5"/><line class="cls-11" x1="289.52" y1="201" x2="267.49" y2="200.66"/><polygon class="cls-35" points="269.8 193.22 256.73 200.5 269.58 208.18 269.8 193.22"/><line class="cls-12" x1="200.37" y1="112.36" x2="200.87" y2="145.14"/><line class="cls-11" x1="200.37" y1="112.36" x2="200.71" y2="134.38"/><polygon class="cls-35" points="193.2 132.3 200.87 145.14 208.15 132.07 193.2 132.3"/><line class="cls-12" x1="200.37" y1="289.14" x2="200.87" y2="256.36"/><line class="cls-11" x1="200.37" y1="289.14" x2="200.71" y2="267.12"/><polygon class="cls-35" points="208.15 269.43 200.87 256.36 193.2 269.2 208.15 269.43"/><circle class="cls-9" cx="339.57" cy="200.75" r="45"/><path d="m306.77,198.25l-.7-2.3c.97-.09,1.76-.83,1.9-1.8.3-1.1-.1-1.5-.5-1.6-.6-.2-1,.4-1.8,1.8s-1.9,2.7-3.8,2.2c-1.77-.47-2.82-2.29-2.34-4.05.01-.05.03-.1.04-.15.32-1.62,1.58-2.88,3.2-3.2l.7,2.2c-.81.08-1.47.7-1.6,1.5-.2.7,0,1.2.5,1.3s.8,0,1.7-1.5c.9-1.5,1.8-3,4-2.5,2,.5,2.7,2.3,2.2,4.5-.29,1.8-1.7,3.21-3.5,3.5v.1Z"/><path d="m307.86,188.85c-1.93-1.07-2.63-3.5-1.56-5.44,1.07-1.93,3.5-2.63,5.44-1.56,1.93,1.07,2.63,3.5,1.56,5.44-.01.02-.02.04-.04.06-1.09,1.89-3.49,2.56-5.4,1.5Zm2.8-5c-.85-.44-1.89-.11-2.33.74-.44.85-.11,1.89.74,2.33.82.43,1.83.13,2.3-.67.46-.86.14-1.92-.71-2.39,0,0-.02-.01-.03-.01h.04Z"/><path d="m312.57,180.95c-1.55-1.41-1.66-3.81-.25-5.35.08-.09.16-.17.25-.25.97-.97,2.36-1.38,3.7-1.1l-.5,2.2c-.59-.2-1.23,0-1.6.5-.62.7-.56,1.78.14,2.4.64.57,1.61.57,2.26,0,.45-.4.61-1.04.4-1.6l2.2-.6c.37,1.35-.01,2.8-1,3.8-1.41,1.55-3.81,1.66-5.35.25-.09-.08-.17-.16-.25-.25Z"/><path d="m330.17,173.55l-1.3-.5c-.51.83-1.29,1.46-2.2,1.8-2,.9-3.9.4-4.7-1.4-.51-1.11-.39-2.4.3-3.4-.47-.34-.84-.79-1.1-1.3-.68-1.59.06-3.43,1.65-4.11.08-.03.16-.07.25-.09,1.38-.63,3.01-.35,4.1.7l-1.4,1.9c-.39-.53-1.09-.74-1.7-.5-.49.15-.76.67-.61,1.16,0,.01,0,.02.01.04.2.5.7.7,1.4,1l2.6,1.2c.03-.57-.04-1.15-.2-1.7l2.3.2c.1.8.1,1.6,0,2.4l1.8.8-1.3,1.7.1.1Zm-3.2-1.4l-2.6-1.1h-.1c-.2.37-.2.83,0,1.2.3.6.9.9,1.9.5.32-.18.62-.38.9-.6h-.1Z"/><path d="m346.07,172.05h-2.44c0-.1.3-6.2.3-6.2l-2.9,4.3h-.3l-2.5-4.6-.3,6.1h-2.4c0-.1.5-10.6.5-10.6h2.4c0,.1,2.6,4.9,2.6,4.9l3.1-4.5h2.4c.04.1-.46,10.6-.46,10.6Z"/><path d="m351.17,172.15c.48.2,1.02.2,1.5,0l1.3,1.6c-1.07.7-2.43.82-3.6.3-2.06-.61-3.24-2.77-2.63-4.83.04-.12.08-.25.13-.37.69-2.01,2.87-3.07,4.88-2.38.07.03.15.05.22.08,1.97.73,2.97,2.91,2.25,4.88-.01.04-.03.08-.05.12-.07.29-.21.57-.4.8l-5-1.9c.02.77.55,1.42,1.3,1.6l.1.1Zm2.3-2.1c.06-.75-.39-1.45-1.1-1.7-.67-.33-1.48-.12-1.9.5l3,1.1v.1Z"/><path d="m366.07,178.75l-2.9,3.6-1.7-1.4,2.8-3.4c.5-.6.5-1.2,0-1.6s-1.2-.3-1.8.3l-2.7,3.3-1.7-1.4,2.8-3.4c.5-.6.5-1.2,0-1.6s-1.2-.3-1.8.3l-2.7,3.3-1.7-1.4,4.8-5.8,1.7,1.4-.4.5c.76-.16,1.54.06,2.1.6.63.46.98,1.22.9,2,.82-.18,1.67.05,2.3.6,1.21.98,1.39,2.76.41,3.97-.07.08-.14.16-.21.23l-.2-.1Z"/><path d="m366.36,180.75c1.88-1.16,4.34-.58,5.51,1.3,1.16,1.88.58,4.34-1.3,5.51-1.88,1.16-4.34.58-5.51-1.3,0,0,0,0,0,0-1.17-1.84-.62-4.28,1.22-5.45.03-.02.05-.03.08-.05Zm3,4.8c.82-.47,1.11-1.51.64-2.33-.01-.02-.03-.05-.04-.07-.46-.79-1.47-1.05-2.26-.59-.05.03-.1.06-.14.09-.82.47-1.11,1.51-.64,2.33.01.02.03.05.04.07.46.79,1.47,1.05,2.26.59.05-.03.1-.06.14-.09Z"/><path d="m376.27,191.95l-2.4.8c-.13-1.05-1.09-1.79-2.14-1.65-.09.01-.18.03-.26.05l-3.2,1.1-.7-2.1,7.1-2.5.7,2.1-1.3.4c.97.02,1.82.67,2.1,1.6l.1.2Z"/><path d="m377.57,201.25l-7.5-1.6c-2.5-.5-3.6-1.7-3.7-3.8l2.1-.3c-.03.87.63,1.62,1.5,1.7l6.7-3.9.3,2.5-4.3,2.2,4.7.8.3,2.4h-.1Z"/><path class="cls-1" d="m330.46,235.85h-10.5c-.85-.43-1.34-1.36-1.2-2.3v-26.8c0-.7.2-.9.9-1.1.5,0,.7-.4.7-.9v-3c.06-.44-.25-.84-.69-.9,0,0,0,0-.01,0-.8-.2-.9-.4-.9-1.1v-6.4c0-.74.29-1.46.8-2,2-1.9,3.9-3.9,5.9-5.9.53-.52,1.25-.81,2-.8h24.4v.2c.63.47.97,1.22.9,2-.6.2-.8.3-.8.9v6.5c0,.6.2.8.8.9v16.9c-.14-.46-.53-.81-1-.9h-26.3c-.8,0-1.2.4-1.2,1.3v16.2c-.11.67.34,1.29,1.01,1.4.13.02.26.02.39,0h26c.7,0,1.2-.2,1.4-.9v3.8c0,1,0,2-1,2.6h-5.44c-.2-.2-.5-.4-.6-.7-.19-.37-.58-.61-1-.6h-12.5c-.5,0-.9,0-1.1.5-.21.31-.48.59-.8.8l-.16.3Zm9.1-44.8v-3.2c0-.6-.3-.9-.8-.9s-.7.4-.7.9v6.5h0c0,.6.3.9.8.9.39,0,.71-.32.71-.71,0-.03,0-.06,0-.09v-3.3h0v-.1Zm4.7,0v-3.2c0-.6-.3-1-.8-1s-.8.4-.8,1v6.4c0,.6.3,1,.8,1s.8-.3.8-1v-3.1h0v-.1Zm4.7,0v-3.2c0-.6-.3-.9-.8-.9s-.8.4-.8,1v6.4c0,.6.3,1,.8,1s.8-.3.8-.9v-3.2h0v-.2Zm-18.8,0v-3.2c0-.6-.3-.9-.7-.9-.45,0-.81.38-.8.84,0,.02,0,.04,0,.06v6.4c0,.6.3.9.7.9s.8-.3.8-.9v-3.2Zm4.7,0v-3.2c0-.6-.3-1-.8-.9-.44.05-.75.45-.7.89,0,0,0,0,0,.01v6.4c0,.6.3.9.8.9s.7-.3.7-.9v-3.2Zm-11.4,2.1h0v1.3c-.01.38.28.69.66.7.01,0,.03,0,.04,0,.4-.02.73-.31.8-.7h0v-2.6c.02-.41-.29-.76-.7-.8h0c-.4,0-.7.3-.8.8v1.3Z"/><path class="cls-7" d="m351.96,184.75h4.8c.87-.01,1.59.69,1.6,1.56,0,.01,0,.03,0,.04v4.7c0,.3-.1.6-.5.6s-.6.3-.6.8v10.1c0,.4.1.7.5.8s.6.4.6.8v29.6c.09.91-.39,1.78-1.2,2.2h-5.2c.77-.63,1.15-1.62,1-2.6v-37.8c.5,0,.7-.4.7-1v-6.4c.06-.46-.24-.9-.7-1,.07-.78-.27-1.53-.9-2v-.2l-.1-.2Z"/><path class="cls-29" d="m324.27,228.15v-15.5c0-.9.4-1.3,1.2-1.3h22v15c0,1.6-.3,1.8-1.8,1.8h-21.4Z"/><path class="cls-38" d="m324.27,228.15h21.5c1.6,0,1.8-.3,1.8-1.8v-15h4.3c.52,0,.95.39,1,.9v17.1c-.2.7-.7.9-1.4.9h-26c-1,0-1.4-.4-1.4-1.4v-.7h.2Z"/><path class="cls-6" d="m352.96,186.95c.5.1.7.4.7,1v6.4c.06.46-.24.9-.7,1-.6-.1-.8-.3-.8-.9v-6.5c0-.6.2-.8.8-.9v-.1Z"/><path class="cls-6" d="m339.57,191.05v3.3c.05.39-.23.74-.61.79-.03,0-.06,0-.09,0-.41.03-.77-.27-.8-.67,0-.04,0-.08,0-.13h0v-6.6c-.05-.44.26-.84.7-.9.45,0,.81.38.8.84,0,.02,0,.04,0,.06v3.3Z"/><path class="cls-6" d="m344.27,191.15v3.1c0,.6-.3,1-.8,1s-.8-.3-.8-1v-6.4c0-.6.3-1,.8-1s.8.4.8,1v3.3h0Z"/><path class="cls-6" d="m348.96,191.15v3.2c0,.6-.3,1-.8.9s-.8-.3-.8-1v-6.4c0-.6.3-1,.8-1s.7.4.8.9v3.4h0Z"/><path class="cls-6" d="m330.17,191.15v3.2c0,.6-.3.9-.8.9s-.7-.3-.7-.9v-6.4c0-.6.3-1,.8-.9.44.05.75.45.7.89,0,0,0,0,0,.01v3.2Z"/><path class="cls-6" d="m334.86,191.15v3.2c0,.6-.3.9-.7.9s-.8-.3-.8-.9v-6.4c0-.6.3-.9.7-.9.45,0,.81.38.8.84,0,.02,0,.04,0,.06v3.2Z"/><path class="cls-17" d="m323.46,193.25v-1.3c-.03-.41.27-.77.67-.8.04,0,.08,0,.13,0,.44,0,.79.34.8.78,0,0,0,.01,0,.02h0v2.6c.01.38-.28.69-.66.7-.01,0-.03,0-.04,0h0c-.35.04-.66-.21-.7-.55,0-.05,0-.1,0-.15v-1.3h-.2,0Z"/><circle class="cls-9" cx="60.43" cy="201.75" r="45"/><path d="m25.33,199.25c-2.5-.43-4.19-2.8-3.76-5.31.02-.1.04-.19.06-.29.27-1.55,1.33-2.84,2.8-3.4l.7,2c-.82.3-1.4,1.04-1.5,1.9-.36,1.31.41,2.66,1.72,3.03.13.03.25.06.38.07,1.36.37,2.76-.43,3.13-1.78.03-.1.05-.21.07-.32.26-.84-.02-1.75-.7-2.3l1.4-1.6c1.13,1.08,1.62,2.67,1.3,4.2-.43,2.5-2.8,4.19-5.31,3.76-.1-.02-.19-.04-.29-.06v.1Z"/><path d="m28.73,190.15c-1.71-.83-2.42-2.89-1.59-4.6.83-1.71,2.89-2.42,4.6-1.59,1.71.83,2.42,2.88,1.6,4.59-.85,1.69-2.89,2.4-4.6,1.6Zm2.2-4.4c-.72-.37-1.61-.08-1.98.65,0,.02-.02.03-.02.05-.34.75-.03,1.63.7,2,.72.37,1.61.08,1.98-.65,0-.02.02-.03.02-.05.38-.69.13-1.55-.55-1.93-.05-.03-.1-.05-.15-.07Z"/><path d="m38.43,174.95l2.9,2.7-1.3,1.4-2.8-2.6c-.5-.4-1-.5-1.4,0-.39.43-.36,1.1.07,1.5.04.04.09.07.13.1l2.7,2.5-1.3,1.4-2.81-2.6c-.5-.4-1-.5-1.4,0-.39.43-.36,1.1.07,1.5.04.04.09.07.13.1l2.7,2.5-1.3,1.4-4.8-4.4,1.3-1.4.4.4c-.12-.66.11-1.34.6-1.8.42-.55,1.12-.82,1.8-.7-.12-.72.1-1.46.6-2,.91-1.02,2.48-1.12,3.5-.21.07.07.14.14.21.21Z"/><path d="m44.03,168.65l3.4,5.6-1.7,1-.3-.5c-.06.72-.53,1.34-1.2,1.6-1.13.72-2.63.39-3.36-.74-.05-.08-.1-.17-.14-.26l-2.11-3.4,1.7-1,1.9,3.2c.19.52.77.78,1.29.59.12-.04.22-.11.31-.19.56-.32.76-1.05.43-1.61-.04-.07-.08-.13-.13-.19l-1.8-3,1.7-1v-.1Z"/><path d="m52.93,168.05l1.2,3.8-1.9.6-1.1-3.5c-.06-.55-.56-.94-1.11-.88-.1.01-.2.04-.29.08-.59.14-.95.72-.81,1.31.02.1.06.2.11.29l1.1,3.4-1.9.6-2-6.2,1.9-.6.2.6c.23-.67.81-1.16,1.5-1.3,1.29-.4,2.65.33,3.05,1.61.02.06.04.12.05.19Z"/><path d="m53.83,163.75c-.08-.64.36-1.22,1-1.3.64-.08,1.22.36,1.3,1s-.36,1.22-1,1.3c0,0,0,0,0,0-.62.02-1.16-.4-1.3-1Zm.4,1.7l1.9-.3.9,6.4-1.9.3-.9-6.4Z"/><path d="m57.93,168.15c0-1.88,1.52-3.4,3.4-3.4.03,0,.07,0,.1,0,1.21-.03,2.33.63,2.9,1.7l-1.7,1c-.34-.71-1.18-1.01-1.89-.67-.53.25-.85.79-.81,1.37-.06.77.51,1.43,1.28,1.5.04,0,.08,0,.12,0,.53.03,1.03-.24,1.3-.7l1.7,1c-1.03,1.62-3.17,2.1-4.79,1.07-1.02-.64-1.63-1.77-1.61-2.97v.1Z"/><path d="m72.43,166.75l-1.6,6.3-1.9-.5v-.6c-.54.42-1.26.53-1.9.3-1.71-.48-2.72-2.25-2.24-3.96.01-.05.03-.09.04-.14.34-1.76,2.03-2.92,3.8-2.6.72.13,1.34.57,1.7,1.2v-.6c.1,0,2,.5,2,.5l.1.1Zm-2.7,2.7c.22-.83-.27-1.68-1.1-1.9,0,0,0,0,0,0-.8-.23-1.64.24-1.86,1.04-.01.05-.03.11-.04.16-.22.83.27,1.68,1.1,1.9,0,0,0,0,0,0,.8.23,1.64-.24,1.86-1.04.01-.05.03-.11.04-.16Z"/><path d="m76.04,170.45l-1,2.1c-.2.5.2.8,1,1.1l-.8,1.6c-2.4-.9-2.8-1.9-2-3.5l1-2.1-.9-.4.8-1.7.9.4.5-1.1,2,.3-.8,1.6,1.2.6-.8,1.7-1.2-.6h.1Z"/><path d="m79.43,170.15l1.6,1-3.5,5.5-1.6-1,3.5-5.5Zm.8-1.6c.33-.56,1.05-.74,1.6-.41.56.33.74,1.05.41,1.6-.33.56-1.05.74-1.6.41,0,0,0,0,0,0-.52-.36-.69-1.04-.4-1.6h0Z"/><path d="m80.54,174.65c1.3-1.41,3.49-1.5,4.9-.2,1.41,1.3,1.5,3.49.2,4.9-1.3,1.41-3.49,1.5-4.9.2,0,0,0,0,0,0-1.41-1.3-1.5-3.49-.2-4.9Zm3.7,3.3c.58-.55.6-1.47.05-2.05-.02-.02-.03-.03-.05-.05-.52-.56-1.39-.59-1.95-.06-.05.05-.1.11-.15.16-.55.58-.53,1.5.05,2.05.58.55,1.5.53,2.05-.05,0,0,0,0,0,0Z"/><path d="m90.62,185.05l-3.3,2.2-1.1-1.6,3.1-2.1c.5-.23.72-.83.49-1.33-.05-.1-.11-.19-.19-.27-.4-.6-1-.8-1.8-.2l-2.9,2-1.1-1.6,5.4-3.7,1.1,1.6-.5.3c.71.07,1.34.48,1.7,1.1.75,1.1.46,2.6-.64,3.35-.08.06-.17.11-.26.15v.1Z"/><path d="m92.54,192.75c-1.54.61-3.28-.14-3.89-1.68-.04-.1-.08-.21-.11-.32-.57-1.24-.34-2.7.6-3.7l1.6,1.3c-.54.38-.71,1.11-.4,1.7.3.8.9,1,1.4.8s.8-.7.5-1.5l-1-2.7,5-1.6,1.9,4.9-1.8.7-1.2-3.1-1.2.4.3.7c.7,1.42.11,3.14-1.31,3.84-.13.06-.26.11-.39.16v.1Z"/><path d="m95.33,202.85c-2.33.36-4.5-1.24-4.86-3.57-.02-.14-.04-.29-.04-.43-.35-2.63,1.5-5.04,4.13-5.39.02,0,.05,0,.07,0,2.6-.27,4.92,1.62,5.19,4.22,0,.03,0,.06,0,.08.21,1.6-.43,3.2-1.7,4.2l-1.2-1.7c.66-.57.96-1.45.8-2.3-.19-1.49-1.56-2.54-3.05-2.35-1.49.19-2.54,1.56-2.35,3.05h0c0,1,.65,1.89,1.6,2.2l-.3-2.4,1.8-.2.5,4.5h-.8l.2.1Z"/><path class="cls-19" d="m72.33,188.85c-8.5-.2-17.8-.2-26.3,0-14.8,1.9-22,20.9-11.6,31.8,2.2,3.3-1.6,9.5,2.3,11.8,3.3,1,5.2-3.4,7.4-5.1,9.2-1,20.3.5,29.8-.5,22.1-2.9,20.7-37.2-1.6-38.2v.2Z"/><path d="m50.43,205.15c1.6-.04,3.16.49,4.4,1.5,1.19,1.1,1.82,2.68,1.7,4.3.08,1.71-.62,3.36-1.9,4.5-1.31,1.1-2.99,1.67-4.7,1.6-1.44.09-2.87-.26-4.1-1-1.16-.67-2.05-1.74-2.5-3l4-2.3c.29,1.18,1.39,1.98,2.6,1.9,1.4,0,1.1-.1,1.5-.4.66-.66.67-1.73,0-2.39,0,0,0,0,0,0-.4-.3-.9-.45-1.4-.4h-5.7l.7-10.5h10.5v4.4h-6.3v1.9h1.1l.1-.1Z"/><path d="m76.14,206.45v1.8c.09,2.39-.81,4.71-2.5,6.4-1.72,1.63-4.03,2.5-6.4,2.4-2.57.05-5.05-.92-6.9-2.7-3.65-3.62-3.67-9.51-.05-13.15,1.76-1.77,4.15-2.76,6.65-2.75,1.61-.12,3.22.26,4.6,1.1,1.35.64,2.47,1.69,3.2,3l-3.9,2.2c-.39-.59-.95-1.04-1.6-1.3-.73-.32-1.51-.49-2.3-.5-2.64-.07-4.83,2.02-4.9,4.66,0,.08,0,.16,0,.24-.04,1.29.42,2.55,1.3,3.5.99,1.02,2.39,1.53,3.8,1.4,1.69.08,3.29-.81,4.1-2.3h-4.3v-3.9h9l.2-.1Z"/><circle class="cls-9" cx="200.62" cy="338.92" r="45"/><path d="m166.23,325.02c1.93.61,3.01,2.67,2.4,4.6l-.5,1.5,3.2,1-.7,2.3-10-3.1,1.2-3.8c.56-1.93,2.57-3.04,4.5-2.5h-.1Zm-.7,2.3c-.69-.22-1.43.13-1.7.8l-.5,1.5,2.6.8.5-1.5c.2-.68-.19-1.39-.87-1.59-.01,0-.02,0-.04,0h0Z"/><path d="m173.02,318.02l3.9,2.5-1.2,1.9-3.6-2.3c-.58-.43-1.39-.3-1.82.27-.03.04-.06.08-.08.13-.41.63-.23,1.48.4,1.89.06.04.13.08.2.11l3.5,2.2-1.2,1.9-8.9-5.6,1.2-1.9,3.1,2c-.25-.79-.1-1.64.4-2.3.79-1.3,2.48-1.72,3.78-.93.11.07.22.15.32.23v-.1Z"/><path d="m174.73,317.32c-1.44-1.64-1.31-4.13.3-5.6,1.56-1.47,4.02-1.39,5.48.17.04.04.08.08.12.13,1.44,1.64,1.31,4.13-.3,5.6-1.56,1.47-4.02,1.39-5.48-.17-.04-.04-.08-.08-.12-.13Zm4.2-3.8c-.62-.74-1.73-.84-2.48-.22,0,0-.01.01-.02.02-.69.61-.75,1.67-.14,2.36.04.05.09.1.14.14.62.74,1.73.84,2.48.22,0,0,.01-.01.02-.02.69-.61.75-1.67.14-2.36-.04-.05-.09-.1-.14-.14h0Z"/><path d="m188.02,307.12l2.1,4.1-2,1-1.9-3.8c-.22-.63-.9-.95-1.53-.74-.1.03-.19.08-.27.14-.67.32-.95,1.12-.63,1.79.04.07.08.15.13.21l1.9,3.7-2,1-3.4-6.7,2-1,.3.6c.18-.81.74-1.48,1.5-1.8,1.36-.71,3.04-.19,3.75,1.17.06.11.1.22.15.33h-.1Z"/><path d="m194.32,308.32c.55-.09,1.02-.42,1.3-.9l2,.6c-.56,1.16-1.64,1.97-2.9,2.2-2.08.59-4.24-.62-4.83-2.7-.03-.1-.05-.2-.07-.3-.5-2.06.76-4.14,2.82-4.64.09-.02.19-.04.28-.06,2.05-.42,4.05.9,4.47,2.95,0,.05.02.1.03.15v.9l-5.2,1.1c.45.63,1.25.91,2,.7h.1Zm.8-3c-.3-.7-1.08-1.05-1.8-.8-.75.13-1.32.74-1.4,1.5l3.2-.7Z"/><path d="m199.23,303.92l5.7.2v2.2l-5.8-.2v-2.2h.1Z"/><path d="m214.52,308.52c-.53,2.01-2.58,3.22-4.6,2.7-.83-.18-1.54-.73-1.9-1.5l-.2.7-2.2-.67,3.1-10,2.2.7-1.1,3.5c.73-.43,1.61-.5,2.4-.2,1.93.7,2.96,2.82,2.3,4.77Zm-2.2-.7c.33-.91-.14-1.92-1.05-2.25-.05-.02-.1-.03-.15-.05-.88-.31-1.84.16-2.15,1.04-.02.05-.03.11-.05.16-.32.94.19,1.96,1.13,2.28.02,0,.04.01.07.02.88.31,1.84-.16,2.15-1.04.02-.05.03-.11.05-.16h0Z"/><path d="m215.73,309.02c1.18-1.86,3.66-2.42,5.52-1.23,1.86,1.18,2.42,3.66,1.23,5.52-1.18,1.86-3.66,2.42-5.52,1.23-.01,0-.02-.01-.03-.02-1.84-1.14-2.41-3.56-1.27-5.4.02-.03.04-.07.07-.1Zm4.8,3.1c.54-.74.38-1.77-.36-2.31-.05-.03-.09-.07-.14-.09-.8-.5-1.85-.27-2.36.53-.01.02-.03.05-.04.07-.54.74-.38,1.77.36,2.31.05.03.09.07.14.09.8.5,1.85.27,2.36-.53.01-.02.03-.05.04-.07h0Z"/><path d="m233.73,315.75l-7.9,6.9-1.5-1.7.5-.5c-.86,0-1.68-.41-2.2-1.1-1.25-1.82-.78-4.31,1.04-5.56,1.49-1.02,3.48-.92,4.86.26.61.6.91,1.45.8,2.3l2.8-2.4,1.5,1.7.1.1Zm-6.6,2.8c.74-.56.88-1.61.32-2.35-.04-.05-.08-.1-.12-.15-.58-.74-1.64-.87-2.39-.3-.08.06-.15.13-.21.2-.73.5-.92,1.5-.42,2.24.07.1.14.18.22.26.59.73,1.65.86,2.39.27.08-.06.15-.13.21-.2v.03Z"/><path d="m236.23,326.62l-7.7.9c-2.5.3-4-.5-4.8-2.4l1.9-.9c.28.78,1.08,1.25,1.9,1.1l5.1-5.9,1.1,2.2-3.4,3.5,4.7-.8,1.1,2.2.1.1Z"/><path d="m234.23,336.02c-2.3.5-3.8-1-4.3-2.9-.47-1.53.1-3.18,1.4-4.1l1.6,1.8c-.64.35-.93,1.11-.7,1.8.2,1,.8,1.3,1.5,1.1s1-.7.8-1.6v-.5c.3-.42.64-.83,1-1.2l2.8,1.3-.9-3.7,2.2-.5,1.5,6.6-1.9.4-2.7-1.3c-.09,1.36-1.07,2.5-2.4,2.8h.1Z"/><path class="cls-4" d="m190.12,371.82c0-.2-.3-.1-.4-.2-2.85-.63-4.86-3.18-4.8-6.1v-37.4c-.08-2.54,1.38-4.87,3.7-5.9.66-.32,1.37-.49,2.1-.5h9.8v9.2h-3.7c-2.23-.24-3.97-2.06-4.1-4.3.12-.87-.44-1.69-1.3-1.9-.44-.02-.87.01-1.3.1-1.44.49-2.38,1.88-2.3,3.4v37.8c.19,1.66,1.63,2.88,3.3,2.8h9.3v2.93h-10.5l.2.07Z"/><path class="cls-22" d="m200.62,331.02v-9.2h10c2.84.23,5.16,2.38,5.6,5.2v38.5c.06,2.94-1.94,5.53-4.8,6.2-.17-.03-.35,0-.5.1h-10.4v-2.9h10.1c1.57-.36,2.66-1.79,2.6-3.4v-37.6c.04-1.6-1.12-2.97-2.7-3.2-1-.24-2.01.38-2.25,1.39-.02.1-.04.21-.05.31-.04,2.56-2.14,4.62-4.7,4.6h-2.9Z"/><path class="cls-16" d="m191.32,368.92c-1.66.07-3.1-1.15-3.3-2.8v-37.8c-.12-1.53.83-2.94,2.3-3.4.41-.18.87-.21,1.3-.1.9.2,1.3.8,1.3,1.9.1,2.26,1.85,4.09,4.1,4.3h3.7v3.3h-7.8c-.78-.05-1.45.55-1.5,1.34,0,.05,0,.11,0,.16v14.1c-.05.78.55,1.45,1.34,1.5.05,0,.11,0,.16,0h7.8v3.33c-.26.05-.54.05-.8,0h-7.1c-.24-.02-.48.02-.7.1-.7.38-.96,1.26-.57,1.95.27.5.81.79,1.37.75h7.8v3.3h-7.6c-.81-.13-1.57.43-1.7,1.25-.02.15-.02.3,0,.45v6.2l-.1.17Z"/><path class="cls-21" d="m191.32,368.92v-6.17c-.13-.81.43-1.57,1.25-1.7.15-.02.3-.02.45,0h7.6v7.8h-9.3v.07Z"/><path class="cls-14" d="m200.62,334.32v-3.3h3.1c2.55.05,4.65-1.97,4.7-4.52,0-.03,0-.05,0-.08,0-.99.82-1.78,1.81-1.77.17,0,.33.03.49.07,1.55.29,2.68,1.63,2.7,3.2v37.5c.06,1.61-1.03,3.04-2.6,3.4h-.7v-5.6c0-1.8-.4-2.3-2.3-2.3h-7.1v-3.3h1.6c.73,0,1.34-.57,1.4-1.3.01-.72-.49-1.35-1.2-1.5-.6-.05-1.2-.05-1.8,0h0v-3.3h7.6c.9.04,1.66-.66,1.7-1.56,0-.05,0-.1,0-.14v-13.6c0-4.5-.5-1.8-1.8-1.8h-7.5l-.1-.1Zm7.8,23.3c.8.03,1.47-.6,1.5-1.4s-.6-1.47-1.4-1.5h0c-.7,0-1.6.8-1.5,1.5-.02.75.57,1.38,1.32,1.4.03,0,.05,0,.08,0Z"/><path class="cls-23" d="m200.62,361.02h7.1c1.9,0,2.3.4,2.3,2.3v5.6h-9.4v-7.8h0v-.1Z"/><path class="cls-34" d="m200.62,334.32h7.5c.87-.12,1.68.48,1.8,1.35.02.15.02.3,0,.45v13.63c.04.9-.66,1.66-1.56,1.7-.05,0-.1,0-.14,0h-7.6v-17h0v-.13Z"/><path class="cls-15" d="m200.62,334.42v17h-7.8c-.78.05-1.45-.55-1.5-1.34,0-.05,0-.11,0-.16v-14.1c-.05-.78.55-1.45,1.34-1.5.05,0,.11,0,.16,0h7.8v.1Z"/><path class="cls-24" d="m200.62,357.75h-7.8c-.79.06-1.49-.53-1.55-1.33-.04-.57.25-1.1.75-1.37.22-.09.46-.12.7-.1h7.9v2.9h0v-.1Z"/><path class="cls-13" d="m200.62,357.62v-2.87h1.8c.69.17,1.18.79,1.2,1.5-.06.73-.67,1.29-1.4,1.3h-1.6v.07Z"/><path class="cls-32" d="m208.43,357.62c-.75.02-1.38-.57-1.4-1.32,0-.03,0-.05,0-.08.09-.79.71-1.41,1.5-1.5.77,0,1.4.61,1.4,1.38,0,.04,0,.08,0,.12h0c0,.77-.61,1.4-1.38,1.4-.04,0-.08,0-.12,0Z"/><path d="m204.02,347.12c1.59.44,3,1.39,4,2.7,1.01,1.32,1.54,2.94,1.5,4.6.15,2.44-.85,4.81-2.7,6.4-1.92,1.55-4.33,2.37-6.8,2.3-2.01.12-4.01-.4-5.7-1.5-1.68-1-2.95-2.56-3.6-4.4l5.8-3.3c.34,1.68,1.89,2.84,3.6,2.7,1.9,0,1.7-.2,2.2-.7.54-.44.83-1.11.8-1.8.01-.69-.28-1.35-.8-1.8-.64-.45-1.42-.66-2.2-.6h-1.4l-2.6-3.8,4.1-5.1h-8.7v-6.3h16.8v5.23l-4.3,5.3v.07Z"/><circle class="cls-10" cx="200.62" cy="200.75" r="45"/><path d="m178.43,175.15c2.37,1.94,2.71,5.43.77,7.8-.15.18-.3.35-.47.5-2.19,2.63-6.1,2.98-8.73.79-2.63-2.19-2.98-6.1-.79-8.73.1-.12.21-.24.32-.36,1.38-1.56,3.45-2.31,5.5-2l-.6,2.6c-1.14-.15-2.28.3-3,1.2-1.33,1.34-1.32,3.51.02,4.84.06.06.12.11.18.16,1.5,1.4,3.5,1.3,5.1-.4,1.02-.86,1.31-2.31.7-3.5l-2.2,2.3-1.7-1.6,4.1-4.4.7.7.1.1Z"/><path d="m189.52,171.05c1.13,2.07.37,4.66-1.69,5.8,0,0,0,0,0,0-.83.46-1.81.53-2.7.2l1.9,3.8-2.3,1.1-5.3-10.7,2.3-1.1.4.7c.29-.91.94-1.67,1.8-2.1,2.15-.94,4.66.05,5.6,2.2v.1Zm-2.3,1.1c-.44-1.01-1.62-1.47-2.63-1.03-.02,0-.04.02-.07.03-.98.4-1.45,1.52-1.05,2.5.04.1.09.2.15.3.5.99,1.71,1.4,2.7.9.99-.5,1.4-1.71.9-2.7h0Z"/><path d="m199.32,168.35l.8,5.2-2.5.4-.7-4.8c-.08-.8-.79-1.39-1.59-1.31-.04,0-.07,0-.11.01-.9.1-1.5.8-1.3,2l.7,4.6-2.5.4-1.8-11.8,2.5-.4.6,4.2c.48-.78,1.29-1.29,2.2-1.4,1.7-.3,3.3.7,3.7,3v-.1Z"/><path d="m201.32,169.25c.37-2.45,2.64-4.15,5.1-3.8,2.41.29,4.12,2.48,3.83,4.89,0,.07-.02.14-.03.21-.37,2.45-2.64,4.15-5.1,3.8-2.43-.32-4.14-2.56-3.82-4.99,0-.04.01-.08.02-.11Zm6.4,1c.23-1.02-.41-2.04-1.44-2.27-.05-.01-.11-.02-.16-.03-.98-.21-1.95.41-2.16,1.4-.02.1-.03.2-.04.3-.18,1.07.53,2.1,1.6,2.3.98.21,1.95-.41,2.16-1.4.02-.1.03-.2.04-.3h0Z"/><path d="m219.82,173.95l-2.3,4.7-2.3-1.1,2.1-4.4c.39-.65.19-1.49-.46-1.88-.08-.05-.16-.09-.24-.12-.74-.41-1.67-.13-2.08.61-.05.09-.09.19-.12.29l-2,4.2-2.3-1.1,3.7-7.7,2.3,1.1-.3.7c.83-.42,1.81-.38,2.6.1,1.5.7,2.3,2.5,1.3,4.6h.1Z"/><path d="m222.93,180.65c.4.45,1,.68,1.6.6l.7,2.2c-1.42.29-2.89-.16-3.9-1.2-1.9-1.55-2.18-4.35-.62-6.25.07-.09.15-.17.22-.25,1.59-1.82,4.36-2,6.18-.41.08.07.15.13.22.21,1.74,1.56,1.88,4.24.32,5.97-.07.08-.14.15-.22.23-.22.28-.49.52-.8.7l-4.4-4.1c-.4.9,0,1.6.7,2.3h0Zm3.3-1.2c.45-.73.28-1.68-.4-2.2-.6-.64-1.56-.76-2.3-.3l2.7,2.5Z"/><path d="m235.12,193.55l-6.5-1.2-1.2-2.9,4.5.9c-.73-2.21.47-4.59,2.68-5.32,2.11-.7,4.39.36,5.22,2.42,1.03,2.07.18,4.58-1.89,5.6-.07.03-.14.07-.21.1-.79.34-1.66.45-2.5.3l-.1.1Zm-.7-3.7c.36.86,1.34,1.26,2.2.9.86-.36,1.26-1.34.9-2.2-.36-.85-1.34-1.26-2.2-.9-.85.34-1.26,1.31-.92,2.16,0,.01.01.03.02.04Z"/><path class="cls-33" d="m218.43,191.85l-16.6-5.6c-1.24-.4-2.56-.4-3.8,0l-16.6,5.6c-1.51.55-2.52,1.99-2.5,3.6v35.6c.01,1.18.57,2.28,1.5,3,.64.47,1.41.71,2.2.7q.8,0,1.2-.2l14.8-5c.91-.3,1.89-.3,2.8,0l14.8,5c1.15.39,2.41.2,3.4-.5.97-.69,1.53-1.81,1.5-3v-35.6c-.1-1.63-1.16-3.05-2.7-3.6h0Z"/><path class="cls-19" d="m217.62,193.55l-16.3-5.5c-.91-.3-1.89-.3-2.8,0l-16.3,5.5c-.97.29-1.62,1.19-1.6,2.2v35.3c.02.52.28.99.7,1.3.29.2.64.31,1,.3h.5l16.2-5.5c.55-.2,1.15-.2,1.7,0l16.3,5.5c.52.16,1.08.04,1.5-.3.42-.31.68-.78.7-1.3v-35.3c-.02-1-.66-1.87-1.6-2.2h0Z"/><path class="cls-19" d="m217.62,231.05h0l-16.3-5.5c-.91-.3-1.89-.3-2.8,0l-16.2,5.5v-35.3c-.02-.3.2-.57.5-.6l16.3-5.5c.3,0,.6-.1.9-.1.3-.02.61.02.9.1l16.3,5.5c.27.09.46.32.5.6v35.3h-.1Z"/><path d="m212.93,197.65l-12.4-3.7c-.33-.1-.67-.1-1,0l-13.2,4.3c-.47.16-.8.6-.8,1.1v8.8c.03.31.17.59.4.8.18.11.39.18.6.2h.3l13.2-4.3h0l12.4,3.7c.3.07.62.03.9-.1.23-.21.37-.49.4-.8v-8.8c-.09-.5-.43-.92-.9-1.1h0l.1-.1Z"/><path d="m212.12,206.75l-11.7-3.5c-.33-.1-.67-.1-1,0l-12.5,4v-7.8l13-4.1h0l12.2,3.7v7.7Z"/><path d="m196.23,221.95c-.27.03-.54.1-.8.2l-1.8.3c-.7.1-1.4.3-2.2.4-.86.19-1.73.32-2.6.4h-.4c-.3,0-.4-.2-.3-.4.2-.4.3-.8.5-1.2.3-.6.6-1.3.9-1.9.19-.45.43-.89.7-1.3.42-.79,1.37-1.14,2.2-.8.22.14.43.3.6.5.4.4.9.8,1.3,1.2.7.6,1.4,1.3,2,1.9l.2.2c.1.2,0,.4-.4.5h.1Z"/><path d="m197.62,208.45h.3c.3,0,.4,0,.3.3s-.2.4-.3.6c-.8,1.1-1.5,2.2-2.3,3.3-.68,1.01-1.41,1.98-2.2,2.9-.36.48-.8.88-1.3,1.2-.55.31-1.2.38-1.8.2-.3,0-.6-.3-.8-.5-.7-.7-1.5-1.3-2.2-2l-.9-.9h0c-.2-.3,0-.5.3-.6,1.5-.6,3-1.1,4.4-1.7l3.9-1.5c.9-.4,1.8-.7,2.7-1h0l-.1-.3Z"/><path d="m205.62,214.05c.85.27,1.54.89,1.9,1.7.56,1.04.83,2.22.8,3.4.08,1.06-.2,2.12-.8,3-.47.61-1.3.81-2,.5-.68-.26-1.27-.71-1.7-1.3-.53-.74-.87-1.6-1-2.5l1.7-1.1c.2.9.5,1.5,1.1,1.7s.5,0,.6-.1.2-.4.2-.8c.04-.35-.03-.7-.2-1-.15-.22-.35-.4-.6-.5l-2.4-.7.3-7.4,4.5,1.2v3.2l-2.7-.8v1.4l.5.2-.2-.1Z"/><path d="m217.32,218.45v1.4c.12,1.59-.31,3.18-1.2,4.5-.67.96-1.91,1.33-3,.9-1.39-.55-2.51-1.63-3.1-3-.82-1.65-1.23-3.46-1.2-5.3-.09-1.62.33-3.23,1.2-4.6.62-1.03,1.84-1.52,3-1.2.86.17,1.61.67,2.1,1.4.71.77,1.22,1.69,1.5,2.7l-1.8,1.2c-.15-.44-.39-.85-.7-1.2-.3-.32-.68-.56-1.1-.7-.61-.23-1.29.03-1.6.6-.44.76-.65,1.63-.6,2.5-.03.97.18,1.93.6,2.8.32.75.94,1.32,1.7,1.6.76.25,1.58-.15,1.84-.91.03-.09.05-.19.06-.29l-2-.6v-3l4.3,1.3v-.1Z"/><circle class="cls-9" cx="200" cy="61.08" r="45"/><path d="m169.9,57.98v2c-.1,0-5.1-.3-5.1-.3l3.5,2.4v.2l-3.8,2,5,.3v2c-.1,0-8.7-.5-8.7-.5v-2c.1,0,4.1-2.1,4.1-2.1l-3.7-2.5v-2c.1,0,8.7.5,8.7.5Z"/><path d="m169.9,53.68c.2-.5.1-.9,0-1.3l1.3-1.1c.6.8.7,1.8.3,2.9-.7,2-2.4,2.8-4.2,2.2-1.7-.6-2.6-2.3-2-4.1.6-1.7,2.3-2.5,4.1-1.9.2,0,.5.2.7.3l-1.4,4.1c.7,0,1.1-.5,1.3-1.1h-.1Zm-1.8-1.8c-.7,0-1.2.4-1.3.9-.2.7,0,1.2.5,1.6l.8-2.5Z"/><path d="m168.5,41.08l7.3,4.5-1,1.6-.5-.3c.2.6.1,1.2-.3,1.9-.8,1.4-2.7,1.8-4.3.8-1.6-1-2.1-2.8-1.2-4.2.4-.7,1-1.1,1.6-1.2l-2.6-1.6,1-1.6v.1Zm3.7,4.5c-.8-.5-1.6-.3-2,.5-.4.7-.3,1.5.5,2s1.6.3,2-.5.3-1.5-.5-2Z"/><path d="m170.6,39.88c-.5-.4-.5-1.1-.1-1.6s1.1-.5,1.6-.1.5,1.1.1,1.6-1.1.5-1.6.1Zm1.4.9l1.2-1.4,4.6,4-1.2,1.4-4.6-4Z"/><path d="m179.3,33.88l3.9,4.7-1.4,1.2-.4-.4c0,.6-.3,1.2-.9,1.7-1.2,1-3.2.8-4.3-.6s-1-3.3.2-4.4c.6-.5,1.3-.7,1.9-.6l-.4-.4,1.4-1.2Zm.5,3.5c-.6-.7-1.4-.8-2.1-.2-.7.5-.8,1.4-.2,2.1.6.7,1.4.8,2.1.2.7-.5.8-1.4.2-2.1Z"/><path d="m182,34.08l4.1-2.1.8,1.6-4.1,2.1-.8-1.6Z"/><path d="m197.5,33.58l-1.9.4-1.1-4.9-1.4,4h-.2l-3-3,1.1,4.9-1.9.4-1.9-8.4,1.9-.4,3.1,3.2,1.4-4.2,1.9-.4,1.9,8.4h.1Z"/><path d="m204.4,27.78l-.3,6.1h-1.8v-.7c-.3.4-1,.7-1.8.7-1.2,0-2.3-1-2.2-2.6l.2-3.8h1.8l-.1,3.6c0,.8.4,1.1,1,1.2.7,0,1.2-.3,1.2-1.2v-3.3c.1,0,2,0,2,0Z"/><path d="m207,25.38l1.8.4-1.8,8.8-1.8-.4,1.8-8.8Z"/><path d="m211.7,31.38l-.7,2.1c-.2.5.2.7,1,.9l-.5,1.6c-2.4-.5-2.8-1.4-2.2-3.1l.7-2.1-.9-.3.6-1.7.9.3.4-1.1h1.9l-.5,1.7,1.2.4-.6,1.7-1.2-.4h-.1Z"/><path d="m214.9,30.78l1.7.8-2.6,5.5-1.7-.8,2.6-5.5Zm.5-1.6c.3-.5.9-.8,1.5-.5.5.3.8.9.5,1.5-.3.5-.9.8-1.5.5-.5-.3-.8-.9-.5-1.5Z"/><path d="m219,36.48c1.2-1.4,3.1-1.6,4.6-.4.9.8,1.3,1.9,1.1,3l-1.8-.3c.1-.5,0-.9-.5-1.3-.6-.5-1.4-.4-2,.2-.5.7-.5,1.5.2,2,.4.3.9.4,1.4.2l.7,1.7c-1,.4-2.2.2-3.1-.5-1.4-1.2-1.6-3.2-.4-4.6h-.2Z"/><path d="m230.6,43.98l-4.8,3.8-1.1-1.4.5-.4c-.6,0-1.2-.3-1.7-1-1-1.3-.7-3.2.7-4.3,1.4-1.1,3.4-1,4.4.3.5.6.7,1.3.5,1.9l.5-.4,1.1,1.4-.1.1Zm-3.5.5c.7-.6.8-1.4.3-2.1-.5-.7-1.4-.8-2.1-.2-.7.6-.8,1.4-.3,2.1.5.7,1.4.8,2.1.2Z"/><path d="m233.3,55.48l-3.5,1.4-.7-1.7,3.3-1.4c.6-.2.8-.7.6-1.2-.2-.6-.8-.7-1.4-.4l-3.2,1.3-.7-1.7,3.3-1.4c.6-.2.8-.7.6-1.2-.2-.6-.8-.7-1.4-.4l-3.2,1.3-.7-1.7,5.7-2.3.7,1.7-.5.2c.5.1,1,.5,1.3,1.2s.2,1.3-.1,1.8c.6.1,1.1.5,1.4,1.3.5,1.3,0,2.5-1.5,3.1v.1Z"/><path d="m231.6,60.58c0,.5.3.9.6,1.1l-.7,1.6c-.9-.5-1.4-1.3-1.6-2.5-.2-2.1,1-3.5,2.8-3.8,1.8-.2,3.4.9,3.6,2.9.2,1.8-1,3.3-2.8,3.5h-.7l-.5-4.3c-.6.3-.8.9-.7,1.6v-.1Zm2.3.9c.7-.3.9-.9.8-1.4,0-.7-.5-1.1-1.1-1.2l.3,2.6Z"/><path d="m236.4,68.38h-2.1c.2-.9,0-2-1.3-2l-2.8-.2v-1.8c.1,0,6.2.4,6.2.4v1.8h-1.2c.8.3,1.1,1.1,1.1,1.9l.1-.1Z"/><path d="m234.6,75.98l-5.9-1.5.4-1.8h.6c-.4-.4-.5-1-.3-1.8.4-1.6,2.1-2.5,3.8-2.1,1.8.4,2.8,2.1,2.4,3.6-.2.8-.6,1.3-1.2,1.6h.6c0,.1-.4,1.9-.4,1.9v.1Zm-2.5-2.5c.9.2,1.6-.2,1.8-1.1.2-.8-.2-1.6-1.1-1.8s-1.6.2-1.8,1.1c-.2.8.2,1.6,1.1,1.8Z"/><path class="cls-30" d="m208.5,93.28h-18.1c-.4-1.5-1.2-2.8-2.2-3.9-.3-.3-.3-.4,0-.7,1.3-1.3,2.6-2.5,3.8-3.8,1.2-1.2,1.5-2.9.9-4.4.1-.6,0-1.3,0-1.9-.6-2.3-2.9-3.7-5.1-3.1-.8.2-1.4.6-2,1.1-2.3,2.2-4.5,4.5-6.8,6.8-.4.4-.9.9-1.4,1.3v-35.1c0-1.5.9-2.9,2.3-3.4.4-.1.8-.2,1.3-.2h35.8c2.2,0,3.6,1.4,3.6,3.6v26.5h-8.4c-1.4,0-2.8.8-3.3,2.1-.7,1.6,0,3.6,1.4,4.2h.1c.2.5.6.4.8.7-1.8.4-3,2.2-2.5,4.1.2.9.8,1.7,1.6,2.2h0c.2.4.6.4.8.6-1.6.4-2.6,1.8-2.6,3.4v-.1Zm-6-32.6v-8.5c0-1-.7-1.9-1.7-1.9h-17c-1.3,0-2.1.7-2.1,2v16.7c0,1,.7,1.8,1.7,1.9h17.2c.9,0,1.7-.6,1.8-1.5v-8.8l.1.1Zm7.7-5.2h3.1q1.3,0,1.3-1.3c0-.4-.1-.5-.5-.5h-6.9q-1.3,0-1.3,1.3c0,1.3.1.5.5.4h3.8v.1Zm3.1-5.2h-2.7q-1.2,0-1.2,1.3c0,.4.2.5.5.5h5.9q1.3,0,1.3-1.4c0-.3-.1-.4-.4-.4h-3.4,0Zm-7.4.8c0,1-.2.9.8.9.6,0,.9-.3.9-.9q0-.9-.9-.9c-.9,0-.8,0-.8.8v.1Z"/><path class="cls-18" d="m177.6,84.68c.5-.4.9-.9,1.4-1.3,2.3-2.3,4.5-4.5,6.8-6.8,1.6-1.7,4.3-1.7,6,0,.6.5.9,1.2,1.1,2,.1.6.2,1.3,0,1.9-.3.9-.8,1.8-1.5,2.5-2,1.9-3.9,3.9-5.8,5.8-.3.3-.3.4,0,.7,1,1.1,1.8,2.5,2.2,3.9h-13.2c-.2,0-.4,0-.4-.2,0-1.3-.1-2.5.2-3.7.3-1.2.9-2.3,1.7-3.1l1.5-1.5v-.2Z"/><path class="cls-8" d="m210.2,82.48c-1.4-.6-2.1-2.7-1.4-4.2.5-1.3,1.9-2.2,3.3-2.1h8.4c1.9.2,3,1.1,3.4,2.8-.2,0-.2.1-.2.2-.4.9-1.1,1.6-2,1.9-.6.2-1.2.3-1.8.3h-8.4c-1,0-1.2,0-1.3,1.1Z"/><path class="cls-18" d="m210.2,89.38c-1.6-.9-2.2-3-1.3-4.6.5-.8,1.3-1.4,2.2-1.6.4,0,.7-.1,1.1-.2h8.8c.7.2,1.4.6,1.9,1,.5.5.8,1.1,1,1.8,0,0-.2.1-.2.2-.7,1.7-2.1,2.2-3.7,2.2h-8.6c-1,0-1.2.2-1.2,1.2Z"/><path class="cls-18" d="m208.5,93.28c0-1.6,1.1-3,2.6-3.3.2,0,.5,0,.7-.1,3.1,0,6.3.1,9.4,0,0,.2.2.2.3.2,1.2.4,2.1,1.3,2.4,2.6.2.7,0,.8-.6.8h-14.8v-.2Z"/><path class="cls-37" d="m187.8,93.28c-.4-1.5-1.1-2.8-2.2-3.9-.3-.3-.3-.4,0-.7,2-1.9,3.9-3.9,5.8-5.8.7-.7,1.2-1.5,1.5-2.5.6,1.5.3,3.3-.9,4.4-1.3,1.3-2.6,2.6-3.8,3.8-.3.3-.3.4,0,.7,1,1.1,1.8,2.5,2.2,3.9h-2.6v.1Z"/><path class="cls-2" d="m221.2,89.78c-3.1.2-6.3,0-9.4,0-.2,0-.5,0-.7.1-.3-.2-.6-.2-.8-.5h0c0-1.1.2-1.3,1.2-1.3h8.6c1.7,0,3-.5,3.7-2.2,0,0,.1-.2.2-.2.2,2-.7,3.4-2.4,4h-.3l-.1.1Z"/><path class="cls-2" d="m221,82.98h-8.8c-.4,0-.7,0-1.1.2-.2-.2-.6-.2-.8-.6h-.1c.1-1.1.2-1.3,1.3-1.3h8.4c.6,0,1.2,0,1.8-.3.9-.3,1.6-1,2-1.9,0-.1,0-.2.2-.2.4,1.8-.7,3.5-2.5,4h-.4v.1Z"/><path class="cls-20" d="m202.5,60.68v8.5c0,.9-.6,1.7-1.5,1.8h-17.2c-1,0-1.8-.7-1.9-1.7v-17c0-1.3.7-2,2.1-2h16.7c1,0,1.9.6,1.9,1.6v8.8h-.1Zm-11.2,4.3c0-1.9-1.5-3.4-3.4-3.4s-3.4,1.5-3.4,3.4,1.5,3.4,3.4,3.4h0c1.9,0,3.4-1.5,3.4-3.4Zm0-8.6c0-1.9-1.5-3.4-3.4-3.4s-3.4,1.5-3.4,3.4,1.5,3.4,3.4,3.4,3.4-1.5,3.5-3.3h0l-.1-.1Zm5.1,3.4c1.9,0,3.4-1.5,3.4-3.4s-1.5-3.4-3.4-3.4-3.4,1.5-3.4,3.4h0c0,1.9,1.5,3.4,3.4,3.4h0Zm2.6,5.2v-1.6c0-.5-.3-.9-.7-1h-3.5c-.4,0-.9.3-.9.7v3.5c0,.5.3.9.8.9h3.5c.5,0,.9-.3.9-.8v-1.7h-.1Z"/><path class="cls-25" d="m210.2,55.48h-3.8c-.3,0-.5,0-.5-.4,0-.87.43-1.3,1.3-1.3h6.9c.4,0,.5,0,.5.5,0,.87-.43,1.3-1.3,1.3h-3.1v-.1Z"/><path class="cls-28" d="m213.2,50.28h3.4c.3,0,.4,0,.4.4q0,1.4-1.3,1.4h-5.9c-.4,0-.5,0-.5-.5,0-.87.4-1.3,1.2-1.3h2.7Z"/><path class="cls-28" d="m205.9,51.18c0-.53.27-.8.8-.8s.83.3.9.9q0,.9-.9.9c-1,0-.8,0-.8-.9v-.1Z"/><path class="cls-8" d="m210.2,82.48h.1c0,.1-.1,0-.1,0Z"/><path class="cls-26" d="m191.3,64.98c0,1.9-1.6,3.4-3.5,3.4s-3.4-1.6-3.4-3.5,1.6-3.4,3.4-3.4c1.9,0,3.4,1.6,3.4,3.5h.1Zm-5.1-.5v.4c0,.8.5,1.4,1.2,1.7.9.3,1.9-.2,2.2-1.1.2-.5,0-1.1-.2-1.5-.4-.5-1.1-.8-1.7-.6-1.1,0-1.4.3-1.4,1.2h0l-.1-.1Z"/><path class="cls-26" d="m191.3,56.38c0,1.9-1.5,3.4-3.4,3.4s-3.4-1.5-3.4-3.4,1.5-3.4,3.4-3.4h0c1.9,0,3.4,1.5,3.4,3.4h0Zm-5-.3c-.2.6,0,1.3.6,1.7.6.4,1.4.4,2,0,.5-.4.8-1,.7-1.7-.1-.9-.9-1.5-1.8-1.4h-.2c-.5-.2-1.1,0-1.3.6v.7h0v.1Z"/><path class="cls-26" d="m196.4,59.78c-1.9,0-3.4-1.6-3.4-3.5s1.6-3.4,3.5-3.4,3.4,1.6,3.4,3.4c0,1.9-1.6,3.4-3.5,3.4v.1Zm-1.6-3.7c-.3.4,0,.8.2,1.2.4.6,1.1,1,1.8.8.7-.1,1.2-.7,1.3-1.3.2-.8-.2-1.5-.9-1.9-.4-.2-.8-.3-1.3-.2-.9,0-1.4.6-1.2,1.4h.1Z"/><path class="cls-3" d="m199,64.98v1.7c0,.5-.3.9-.8.9h-3.4c-.5,0-.9-.3-.9-.8v-3.5c0-.4.3-.9.7-.9h3.5c.5,0,.9.3.9.8v.2c0,.5,0,1.1,0,1.6Zm-3-.4h1.6c.3,0,.5-.1.5-.5s-.3-.3-.5-.3h-1.3c0-.3-.3-.4-.5-.5-.4,0-.8.3-1,.7-.2.2-.1.6.1.8.4.3.7.1,1-.1h0l.1-.1Zm.4,1.7h1.3c.2,0,.4-.2.4-.4h0c0-.3-.2-.4-.4-.4h-2.5c-.2,0-.4.1-.4.3h0c0,.2.2.4.4.4h1.3l-.1.1Z"/><path class="cls-36" d="m187.5,63.28c.6-.2,1.3,0,1.7.6.6.8.4,1.9-.4,2.4-.4.3-1,.4-1.5.2-.7-.3-1.2-.9-1.2-1.7v-.4c.2.3.5.4.9.3,0,.8.5,1.2,1.1,1,.4-.2.7-.6.5-1.1-.1-.4-.6-.7-1-.6,0-.3,0-.6-.1-.8v.1Z"/><path class="cls-31" d="m187.5,63.28c.2.2.2.5.1.8-.1.3-.4.5-.6.7-.3,0-.7,0-.9-.3,0-.9.3-1.2,1.4-1.2Z"/><path class="cls-36" d="m187.6,54.78c.9-.2,1.7.3,2,1.2v.2c.1.6-.2,1.3-.7,1.7-.6.4-1.4.4-2,0-.5-.4-.8-1.1-.6-1.7.2.2.5.2.8.1,0,.8.5,1.2,1.1,1,.4-.1.6-.5.6-.9,0-.5-.4-.7-1.1-.7.1-.3,0-.6-.1-.8v-.1Z"/><path class="cls-31" d="m187.1,56.18c-.3.1-.6,0-.8-.1-.2-.5,0-1.1.6-1.3h.7c.2.2.2.5.1.8-.2.2-.4.5-.6.6Z"/><path class="cls-36" d="m196,54.68c.4,0,.9,0,1.3.2.7.4,1,1.1.9,1.9-.2.6-.7,1.1-1.3,1.3-.7.1-1.4-.2-1.8-.8-.2-.4-.4-.7-.2-1.2.2.1.5.2.8.2,0,.4.1.8.6.9.4.1.9,0,1-.4.3-.6-.1-1.1-1-1.2,0-.3,0-.7-.3-.9Z"/><path class="cls-31" d="m196,54.68c.3.2.4.6.3.9-.2.3-.4.5-.7.7-.3,0-.5,0-.8-.2-.3-.8.3-1.4,1.2-1.4Z"/><path class="cls-27" d="m196.4,66.18h-1.3c-.2,0-.4-.1-.4-.3h0c0-.2.1-.4.3-.4h2.5c.2,0,.4,0,.4.4,0,.2-.1.4-.4.4h-1.3l.2-.1Z"/><path class="cls-5" d="m196,64.48h0c-.3.2-.6.4-1,.1-.2-.2-.3-.5-.1-.8.2-.4.5-.7,1-.7.3,0,.5.2.5.5s0,.6-.3.8l-.1.1Z"/><path class="cls-27" d="m196,64.48c.2-.2.3-.5.3-.8h1.3c.2,0,.5,0,.5.3s-.2.5-.5.5h-1.6Z"/><path class="cls-26" d="m187,64.78c.2-.2.5-.4.6-.7.4-.1.9.1,1,.6.2.4,0,.9-.5,1.1-.6.2-1.1-.2-1.1-1Z"/><path class="cls-26" d="m187.1,56.18l.6-.6c.6,0,1,.2,1.1.7,0,.4-.2.8-.6.9-.6.2-1.1-.3-1.1-1Z"/><path class="cls-26" d="m195.6,56.18c.3-.2.5-.4.7-.7.8,0,1.2.5,1,1.2-.2.4-.6.6-1,.4-.5,0-.6-.5-.6-.9h-.1Z"/></svg>