<?xml version="1.0" encoding="UTF-8"?><svg id="Layer_1" xmlns="http://www.w3.org/2000/svg" viewBox="0 0 400 400"><defs><style>.cls-1{fill:#435256;}.cls-2{fill:#fff;}.cls-3{fill:#727272;}.cls-4{fill:#eb917f;}.cls-5{fill:#fbe501;}.cls-6{fill:#f9f3b1;}.cls-7{fill:#fcc472;}.cls-8{fill:#2d3b3d;}.cls-9{fill:#f3bd99;}.cls-10{stroke:#c000e2;}.cls-10,.cls-11{stroke-width:4px;}.cls-10,.cls-11,.cls-12{stroke-miterlimit:10;}.cls-10,.cls-11,.cls-12,.cls-13{fill:none;}.cls-14{fill:#626363;}.cls-15{fill:#fbc372;}.cls-16{fill:#f4bd99;}.cls-17{fill:#06687f;}.cls-11{stroke:#00b51e;}.cls-18{fill:#93dbfe;}.cls-19{fill:#42210b;}.cls-12{stroke:#231f20;stroke-width:2px;}.cls-20{fill:#a0280e;}.cls-21{fill:#6f7070;}.cls-22{fill:#0aaffe;}.cls-23{fill:#97d6e5;}.cls-24{fill:#7dcbe5;}.cls-25{fill:#ff1d25;}.cls-26{fill:#636363;}.cls-27{fill:#eecf15;}.cls-28{fill:#9dd8e6;}.cls-29{fill:#fdc472;}.cls-30{fill:#6a3223;}.cls-31{fill:#0092b9;}.cls-32{fill:#e5eff1;}.cls-33{fill:#29abe2;}.cls-34{fill:#ccf2ff;isolation:isolate;opacity:.5;}.cls-35{fill:#231f20;}.cls-36{fill:#c65d42;}.cls-37{fill:#9fddea;}.cls-38{fill:#2dbafe;}.cls-39{fill:#067fa6;}.cls-40{fill:#f99e3d;}</style></defs><line class="cls-13" x1="111.75" y1="199.81" x2="144.53" y2="199.31"/><line class="cls-12" x1="111.75" y1="199.81" x2="133.78" y2="199.47"/><polygon class="cls-35" points="131.7 206.99 144.53 199.31 131.47 192.03 131.7 206.99"/><line class="cls-13" x1="289.54" y1="199.81" x2="256.75" y2="199.31"/><line class="cls-12" x1="289.54" y1="199.81" x2="267.51" y2="199.47"/><polygon class="cls-35" points="269.82 192.03 256.75 199.31 269.6 206.99 269.82 192.03"/><line class="cls-13" x1="200.39" y1="111.17" x2="200.89" y2="143.95"/><line class="cls-12" x1="200.39" y1="111.17" x2="200.73" y2="133.19"/><polygon class="cls-35" points="193.22 131.11 200.89 143.95 208.17 130.88 193.22 131.11"/><line class="cls-13" x1="200.39" y1="287.95" x2="200.89" y2="255.17"/><line class="cls-12" x1="200.39" y1="287.95" x2="200.73" y2="265.93"/><polygon class="cls-35" points="208.17 268.24 200.89 255.17 193.22 268.01 208.17 268.24"/><circle class="cls-10" cx="339.59" cy="199.56" r="45"/><path d="m306.79,197.06l-.7-2.3c.97-.09,1.76-.83,1.9-1.8.3-1.1-.1-1.5-.5-1.6-.6-.2-1,.4-1.8,1.8s-1.9,2.7-3.8,2.2c-1.77-.47-2.82-2.29-2.34-4.05.01-.05.03-.1.04-.15.32-1.62,1.58-2.88,3.2-3.2l.7,2.2c-.81.08-1.47.7-1.6,1.5-.2.7,0,1.2.5,1.3s.8,0,1.7-1.5,1.8-3,4-2.5c2,.5,2.7,2.3,2.2,4.5-.29,1.8-1.7,3.21-3.5,3.5v.1Z"/><path d="m307.88,187.66c-1.93-1.07-2.63-3.5-1.56-5.44,1.07-1.93,3.5-2.63,5.44-1.56,1.93,1.07,2.63,3.5,1.56,5.44-.01.02-.02.04-.04.06-1.09,1.89-3.49,2.56-5.4,1.5Zm2.8-5c-.85-.44-1.89-.11-2.33.74-.44.85-.11,1.89.74,2.33.82.43,1.83.13,2.3-.67.46-.86.14-1.92-.71-2.39,0,0-.02-.01-.03-.01h.04Z"/><path d="m312.59,179.76c-1.55-1.41-1.66-3.81-.25-5.35.08-.09.16-.17.25-.25.97-.97,2.36-1.38,3.7-1.1l-.5,2.2c-.59-.2-1.23,0-1.6.5-.62.7-.56,1.78.14,2.4.64.57,1.61.57,2.26,0,.45-.4.61-1.04.4-1.6l2.2-.6c.37,1.35-.01,2.8-1,3.8-1.41,1.55-3.81,1.66-5.35.25-.09-.08-.17-.16-.25-.25Z"/><path d="m330.19,172.36l-1.3-.5c-.51.83-1.29,1.46-2.2,1.8-2,.9-3.9.4-4.7-1.4-.51-1.11-.39-2.4.3-3.4-.47-.34-.84-.79-1.1-1.3-.68-1.59.06-3.43,1.65-4.11.08-.03.16-.07.25-.09,1.38-.63,3.01-.35,4.1.7l-1.4,1.9c-.39-.53-1.09-.74-1.7-.5-.49.15-.76.67-.61,1.16,0,.01,0,.02.01.04.2.5.7.7,1.4,1l2.6,1.2c.03-.57-.04-1.15-.2-1.7l2.3.2c.1.8.1,1.6,0,2.4l1.8.8-1.3,1.7.1.1Zm-3.2-1.4l-2.6-1.1h-.1c-.2.37-.2.83,0,1.2.3.6.9.9,1.9.5.32-.18.62-.38.9-.6h-.1Z"/><path d="m346.09,170.86h-2.44c0-.1.3-6.2.3-6.2l-2.9,4.3h-.3l-2.5-4.6-.3,6.1h-2.4c0-.1.5-10.6.5-10.6h2.4c0,.1,2.6,4.9,2.6,4.9l3.1-4.5h2.4c.04.1-.46,10.6-.46,10.6Z"/><path d="m351.19,170.96c.48.2,1.02.2,1.5,0l1.3,1.6c-1.07.7-2.43.82-3.6.3-2.06-.61-3.24-2.77-2.63-4.83.04-.12.08-.25.13-.37.69-2.01,2.87-3.07,4.88-2.38.07.03.15.05.22.08,1.97.73,2.97,2.91,2.25,4.88-.01.04-.03.08-.05.12-.07.29-.21.57-.4.8l-5-1.9c.02.77.55,1.42,1.3,1.6l.1.1Zm2.3-2.1c.06-.75-.39-1.45-1.1-1.7-.67-.33-1.48-.12-1.9.5l3,1.1v.1Z"/><path d="m366.09,177.56l-2.9,3.6-1.7-1.4,2.8-3.4c.5-.6.5-1.2,0-1.6s-1.2-.3-1.8.3l-2.7,3.3-1.7-1.4,2.8-3.4c.5-.6.5-1.2,0-1.6s-1.2-.3-1.8.3l-2.7,3.3-1.7-1.4,4.8-5.8,1.7,1.4-.4.5c.76-.16,1.54.06,2.1.6.63.46.98,1.22.9,2,.82-.18,1.67.05,2.3.6,1.21.98,1.39,2.76.41,3.97-.07.08-.14.16-.21.23l-.2-.1Z"/><path d="m366.38,179.56c1.88-1.16,4.34-.58,5.51,1.3,1.16,1.88.58,4.34-1.3,5.51-1.88,1.16-4.34.58-5.51-1.3,0,0,0,0,0,0-1.17-1.84-.62-4.28,1.22-5.45.03-.02.05-.03.08-.05Zm3,4.8c.82-.47,1.11-1.51.64-2.33-.01-.02-.03-.05-.04-.07-.46-.79-1.47-1.05-2.26-.59-.05.03-.1.06-.14.09-.82.47-1.11,1.51-.64,2.33.01.02.03.05.04.07.46.79,1.47,1.05,2.26.59.05-.03.1-.06.14-.09Z"/><path d="m376.29,190.76l-2.4.8c-.13-1.05-1.09-1.79-2.14-1.65-.09.01-.18.03-.26.05l-3.2,1.1-.7-2.1,7.1-2.5.7,2.1-1.3.4c.97.02,1.82.67,2.1,1.6l.1.2Z"/><path d="m377.59,200.06l-7.5-1.6c-2.5-.5-3.6-1.7-3.7-3.8l2.1-.3c-.03.87.63,1.62,1.5,1.7l6.7-3.9.3,2.5-4.3,2.2,4.7.8.3,2.4h-.1Z"/><path class="cls-1" d="m330.48,234.66h-10.5c-.85-.43-1.34-1.36-1.2-2.3v-26.8c0-.7.2-.9.9-1.1.5,0,.7-.4.7-.9v-3c.06-.44-.25-.84-.69-.9,0,0,0,0-.01,0-.8-.2-.9-.4-.9-1.1v-6.4c0-.74.29-1.46.8-2,2-1.9,3.9-3.9,5.9-5.9.53-.52,1.25-.81,2-.8h24.4v.2c.63.47.97,1.22.9,2-.6.2-.8.3-.8.9v6.5c0,.6.2.8.8.9v16.9c-.14-.46-.53-.81-1-.9h-26.3c-.8,0-1.2.4-1.2,1.3v16.2c-.11.67.34,1.29,1.01,1.4.13.02.26.02.39,0h26c.7,0,1.2-.2,1.4-.9v3.8c0,1,0,2-1,2.6h-5.44c-.2-.2-.5-.4-.6-.7-.19-.37-.58-.61-1-.6h-12.5c-.5,0-.9,0-1.1.5-.21.31-.48.59-.8.8l-.16.3Zm9.1-44.8v-3.2c0-.6-.3-.9-.8-.9s-.7.4-.7.9v6.5h0c0,.6.3.9.8.9.39,0,.71-.32.71-.71,0-.03,0-.06,0-.09v-3.3h0v-.1Zm4.7,0v-3.2c0-.6-.3-1-.8-1s-.8.4-.8,1v6.4c0,.6.3,1,.8,1s.8-.3.8-1v-3.1h0v-.1Zm4.7,0v-3.2c0-.6-.3-.9-.8-.9s-.8.4-.8,1v6.4c0,.6.3,1,.8,1s.8-.3.8-.9v-3.2h0v-.2Zm-18.8,0v-3.2c0-.6-.3-.9-.7-.9-.45,0-.81.38-.8.84,0,.02,0,.04,0,.06v6.4c0,.6.3.9.7.9s.8-.3.8-.9v-3.2Zm4.7,0v-3.2c0-.6-.3-1-.8-.9-.44.05-.75.45-.7.89,0,0,0,0,0,.01v6.4c0,.6.3.9.8.9s.7-.3.7-.9v-3.2Zm-11.4,2.1h0v1.3c-.01.38.28.69.66.7.01,0,.03,0,.04,0,.4-.02.73-.31.8-.7h0v-2.6c.02-.41-.29-.76-.7-.8h0c-.4,0-.7.3-.8.8v1.3Z"/><path class="cls-8" d="m351.98,183.56h4.8c.87-.01,1.59.69,1.6,1.56,0,.01,0,.03,0,.04v4.7c0,.3-.1.6-.5.6s-.6.3-.6.8v10.1c0,.4.1.7.5.8s.6.4.6.8v29.6c.09.91-.39,1.78-1.2,2.2h-5.2c.77-.63,1.15-1.62,1-2.6v-37.8c.5,0,.7-.4.7-1v-6.4c.06-.46-.24-.9-.7-1,.07-.78-.27-1.53-.9-2v-.2l-.1-.2Z"/><path class="cls-29" d="m324.29,226.96v-15.5c0-.9.4-1.3,1.2-1.3h22v15c0,1.6-.3,1.8-1.8,1.8h-21.4Z"/><path class="cls-40" d="m324.29,226.96h21.5c1.6,0,1.8-.3,1.8-1.8v-15h4.3c.52,0,.95.39,1,.9v17.1c-.2.7-.7.9-1.4.9h-26c-1,0-1.4-.4-1.4-1.4v-.7h.2Z"/><path class="cls-7" d="m352.98,185.76c.5.1.7.4.7,1v6.4c.06.46-.24.9-.7,1-.6-.1-.8-.3-.8-.9v-6.5c0-.6.2-.8.8-.9v-.1Z"/><path class="cls-7" d="m339.59,189.86v3.3c.05.39-.23.74-.61.79-.03,0-.06,0-.09,0-.41.03-.77-.27-.8-.67,0-.04,0-.08,0-.13h0v-6.6c-.05-.44.26-.84.7-.9.45,0,.81.38.8.84,0,.02,0,.04,0,.06v3.3Z"/><path class="cls-7" d="m344.29,189.96v3.1c0,.6-.3,1-.8,1s-.8-.3-.8-1v-6.4c0-.6.3-1,.8-1s.8.4.8,1v3.3h0Z"/><path class="cls-7" d="m348.98,189.96v3.2c0,.6-.3,1-.8.9s-.8-.3-.8-1v-6.4c0-.6.3-1,.8-1s.7.4.8.9v3.4h0Z"/><path class="cls-7" d="m330.19,189.96v3.2c0,.6-.3.9-.8.9s-.7-.3-.7-.9v-6.4c0-.6.3-1,.8-.9.44.05.75.45.7.89,0,0,0,0,0,.01v3.2Z"/><path class="cls-7" d="m334.88,189.96v3.2c0,.6-.3.9-.7.9s-.8-.3-.8-.9v-6.4c0-.6.3-.9.7-.9.45,0,.81.38.8.84,0,.02,0,.04,0,.06v3.2Z"/><path class="cls-15" d="m323.48,192.06v-1.3c-.03-.41.27-.77.67-.8.04,0,.08,0,.13,0,.44,0,.79.34.8.78,0,0,0,.01,0,.02h0v2.6c.01.38-.28.69-.66.7-.01,0-.03,0-.04,0h0c-.35.04-.66-.21-.7-.55,0-.05,0-.1,0-.15v-1.3h-.2,0Z"/><circle class="cls-10" cx="200.64" cy="339.35" r="45"/><path d="m167.25,323.75c1.87.7,2.82,2.79,2.11,4.66,0,.01,0,.03-.01.04l-.6,1.5,3.1,1.2-.8,2.2-9.8-3.7,1.4-3.7c.69-1.91,2.79-2.89,4.7-2.2h-.1Zm-.8,2.2c-.6-.3-1.34-.06-1.64.55-.02.05-.05.1-.06.15l-.5,1.5,2.5.9.6-1.5c.26-.67-.08-1.42-.75-1.68-.02,0-.04-.01-.05-.02l-.1.1Z"/><path d="m174.45,317.25l3.7,2.7-1.3,1.8-3.5-2.5c-.64-.41-1.49-.24-1.9.4s-.24,1.49.4,1.9l3.3,2.4-1.3,1.8-8.5-6.2,1.3-1.8,3,2.2c-.17-.8.01-1.64.5-2.3.98-1.29,2.83-1.55,4.12-.56.03.02.05.04.08.06l.1.1Z"/><path d="m176.25,316.56c-1.39-1.71-1.14-4.23.58-5.63,1.71-1.39,4.23-1.14,5.63.58,1.39,1.71,1.14,4.23-.58,5.63,0,0-.02.01-.03.02-1.72,1.37-4.21,1.1-5.6-.6Zm4.4-3.6c-.6-.77-1.71-.91-2.48-.31,0,0-.01,0-.02.01-.74.54-.9,1.58-.35,2.32.05.06.1.12.15.18.6.77,1.71.91,2.48.31,0,0,.01,0,.02-.01.74-.54.9-1.58.36-2.32-.05-.07-.1-.13-.16-.19h0Z"/><path d="m190.04,307.15l1.8,4.2-2.1.9-1.7-3.9c-.18-.62-.82-.98-1.44-.81-.09.03-.17.06-.26.11-.8.3-1.1,1-.7,2l1.6,3.8-2.1.9-3-6.9,2.1-.9.3.6c.21-.8.81-1.44,1.6-1.7,1.43-.62,3.09.04,3.71,1.46.03.08.06.16.09.24h.1Z"/><path d="m196.25,308.85c.55-.01,1.04-.32,1.3-.8l1.9.8c-.98,2.02-3.42,2.86-5.44,1.88s-2.86-3.42-1.88-5.44c.58-1.19,1.71-2.03,3.02-2.24,2.03-.33,3.94,1.05,4.26,3.08.02.11.03.21.04.32v.9l-5.3.8c.39.65,1.16.97,1.9.8l.2-.1Zm1-2.9c-.29-.66-.99-1.03-1.7-.9-.75.05-1.35.65-1.4,1.4l3.2-.5h-.1Z"/><path d="m201.45,304.65l5.7.6-.2,2.2-5.7-.6.2-2.1v-.1Z"/><path d="m216.54,310.15c-.6,1.98-2.69,3.11-4.67,2.51,0,0-.02,0-.03,0-.8-.25-1.46-.83-1.8-1.6l-.2.7-2.1-.8,3.6-9.8,2.1.8-1.3,3.5c.75-.4,1.65-.4,2.4,0,1.92.84,2.81,3.07,2,5v-.3Zm-2.1-.8c.41-.79.11-1.76-.68-2.17-.1-.05-.21-.1-.32-.13-.83-.39-1.81-.03-2.19.8-.05.1-.08.2-.11.3-.41.79-.11,1.76.68,2.17.1.05.21.1.32.13.83.39,1.81.03,2.19-.8.05-.1.08-.2.11-.3h0Z"/><path d="m217.64,310.75c1.26-1.73,3.69-2.12,5.42-.86.03.02.05.04.08.06,1.74,1.29,2.14,3.72.9,5.5-1.51,1.61-4.05,1.68-5.65.17-1.34-1.26-1.64-3.27-.75-4.87Zm4.6,3.4c.58-.74.45-1.81-.28-2.39,0,0-.01,0-.02-.01-.67-.57-1.67-.49-2.24.18-.06.07-.11.14-.16.22-.58.74-.45,1.81.28,2.39,0,0,.01,0,.02.01.67.57,1.67.49,2.24-.18.06-.07.11-.14.16-.22Z"/><path d="m235.25,318.56l-8.3,6.5-1.4-1.8.6-.4c-.86-.03-1.64-.48-2.1-1.2-1.17-1.72-.77-4.06.9-5.3,1.5-1.36,3.81-1.25,5.17.25.04.05.09.1.13.15.53.64.79,1.47.7,2.3l2.9-2.3,1.4,1.8Zm-6.7,2.4c.76-.48.99-1.48.51-2.23-.06-.1-.13-.19-.21-.27-.53-.76-1.57-.96-2.34-.43-.06.04-.11.08-.16.13-.76.48-.99,1.48-.51,2.23.06.1.13.19.21.27.53.76,1.58.95,2.34.42.06-.04.11-.08.16-.13h0Z"/><path d="m237.14,329.56l-7.7.5c-2.5.2-3.9-.7-4.6-2.7l1.9-.8c.19.85,1.03,1.39,1.88,1.2,0,0,.01,0,.02,0l5.4-5.5,1,2.3-3.6,3.3,4.8-.5.9,2.2h0Z"/><path d="m231.84,331.95l4.2,2.9c.54.51,1.26.79,2,.8.55-.03.97-.5.95-1.05,0-.08-.02-.17-.05-.25-.13-.7-.7-1.23-1.4-1.3l.8-2.2c1.48.36,2.59,1.59,2.8,3.1.41,1.78-.7,3.55-2.48,3.96-.07.02-.15.03-.22.04-1.27.12-2.53-.28-3.5-1.1l-2-1.4.6,3.5-2.3.4-1.1-7.1,1.7-.3Z"/><path class="cls-26" d="m206.04,323.56h6.1c1.79.11,3.24,1.51,3.4,3.3v41.4c.12,1.69-.9,3.24-2.5,3.8-.36.11-.73.17-1.1.2h-22.6c-2.03-.03-3.67-1.67-3.7-3.7v-4h1.8v4c-.06,1,.71,1.85,1.71,1.91.1,0,.2,0,.29,0h22.2c1.04.06,1.94-.73,2-1.77,0-.08,0-.15,0-.23v-41c.07-1.03-.7-1.92-1.74-2-.05,0-.11,0-.16,0h-4.6c0-.81-.7-1.31-1.1-1.9Z"/><path class="cls-3" d="m206.04,323.56c.4.6,1,1.1,1.1,1.8h-17.3c-1.7,0-2.4.7-2.4,2.4v36.7h-1.8v-36.9c-.11-1.6.81-3.09,2.3-3.7.4-.2.85-.31,1.3-.3h16.8,0Z"/><path class="cls-38" d="m187.45,364.56v-36.7c0-1.7.7-2.4,2.4-2.4h17.4v36c.06,1.66-1.24,3.04-2.9,3.1-.03,0-.07,0-.1,0h-16.8Zm13.1-33.5h3.6c1.05.05,1.94-.75,2-1.8.02-1.03-.8-1.89-1.84-1.9-.05,0-.11,0-.16,0h-7.2c-1.05-.05-1.94.75-2,1.8-.02,1.03.8,1.89,1.84,1.9.05,0,.11,0,.16,0h3.6Zm-4.2,22.9c.23-.04.43-.14.6-.3l9.2-9.2c.24-.19.36-.5.3-.8-.1-.3-.2-.6-.6-.7-.39-.11-.81,0-1.1.3l-9.1,9.1-.2.2c-.2.27-.2.63,0,.9.19.31.53.5.9.5h0Zm5.7-11.1c-.04-.38-.26-.72-.6-.9-.5-.2-.8,0-1.1.4l-5.5,5.5c-.5.5-.5,1.1,0,1.4s1,.4,1.4,0c1.9-1.8,3.7-3.7,5.6-5.5.19-.2.33-.44.4-.7h0l-.2-.2Z"/><path class="cls-22" d="m187.54,364.56h16.7c1.61.05,2.95-1.21,3-2.81,0-.1,0-.19,0-.29v-36h4.5c1-.06,1.85.71,1.91,1.71,0,.1,0,.2,0,.29v41c.06,1.04-.73,1.94-1.77,2-.08,0-.15,0-.23,0h-22.2c-1.06.04-1.95-.78-2-1.84,0-.02,0-.04,0-.06v-4h.1Zm13.1,3.1h-5.4c-.7,0-1.2.3-1.2.9,0,.55.44,1,.99,1.01.04,0,.07,0,.11,0h10.8c.7,0,1.2-.4,1.1-.9-.08-.58-.62-.98-1.2-.9,0,0,0,0,0,0h-5.4l.2-.1Z"/><path class="cls-21" d="m200.54,331.05h-3.6c-1.03.07-1.92-.7-2-1.74,0-.05,0-.11,0-.16-.01-.99.78-1.8,1.77-1.81.08,0,.16,0,.23.01h7.2c1.03-.07,1.92.7,2,1.74,0,.05,0,.11,0,.16-.02,1.02-.86,1.82-1.87,1.81-.04,0-.08,0-.13,0h-3.6Z"/><path class="cls-18" d="m196.34,353.95c-.37,0-.71-.19-.9-.5-.14-.28-.14-.62,0-.9l.2-.2,9.1-9.1c.29-.29.71-.41,1.1-.3.4.1.5.4.6.7.11.3-.02.64-.3.8l-9.2,9.2c-.15.18-.37.29-.6.3Z"/><path class="cls-14" d="m200.54,367.56h5.4c.7,0,1.2.3,1.2.9s-.4.9-1.1.9h-10.8c-.7,0-1.2-.4-1.1-1s.4-.9,1.2-.9h5.4l-.2.1Z"/><path d="m191.04,361.65v-4.8l8.6-9.1c.71-.7,1.34-1.47,1.9-2.3.36-.5.57-1.09.6-1.7,0-.59-.21-1.16-.6-1.6-.46-.42-1.08-.63-1.7-.6-1.5,0-2.7.9-3.5,2.7l-5.7-3.2c.75-1.81,2.04-3.35,3.7-4.4,3.66-2.23,8.33-1.95,11.7.7,1.76,1.48,2.72,3.7,2.6,6,.13,1.49-.26,2.97-1.1,4.2-.83,1.48-1.88,2.83-3.1,4l-3.5,3.7h8.1v6.4h-18Z"/><circle class="cls-10" cx="60.41" cy="199.56" r="45"/><path d="m25.01,197.06c-2.32-.4-3.88-2.61-3.48-4.94.02-.12.05-.24.08-.36.3-1.45,1.32-2.66,2.7-3.2l.6,1.9c-.76.27-1.32.91-1.5,1.7-.34,1.29.43,2.61,1.72,2.94.09.02.19.04.28.06,1.24.37,2.55-.33,2.93-1.57.03-.11.06-.22.07-.33.23-.79,0-1.64-.6-2.2l1.3-1.4c1.04,1.05,1.49,2.55,1.2,4-.48,2.38-2.8,3.91-5.18,3.43-.04,0-.08-.02-.12-.03Z"/><path d="m28.31,188.56c-1.6-.82-2.23-2.79-1.4-4.39,0,0,0,0,0,0,.77-1.6,2.68-2.27,4.28-1.51,0,0,.01,0,.02,0,1.6.82,2.23,2.79,1.4,4.39,0,0,0,0,0,0-.77,1.6-2.68,2.27-4.28,1.51,0,0-.01,0-.02,0Zm2.1-4.2c-.68-.36-1.53-.1-1.89.58,0,0,0,.01,0,.02-.33.72-.01,1.57.7,1.9.68.36,1.53.1,1.89-.58,0,0,0-.01,0-.02.36-.65.12-1.46-.53-1.82-.06-.03-.11-.06-.17-.08Z"/><path d="m37.51,174.26l2.8,2.5-1.2,1.4-2.7-2.4c-.5-.4-.9-.5-1.3,0-.37.41-.33,1.05.08,1.41.04.03.07.06.12.09l2.6,2.3-1.2,1.4-2.7-2.4c-.5-.4-.9-.5-1.3,0-.37.41-.33,1.05.08,1.41.04.03.07.06.12.09l2.6,2.3-1.2,1.4-4.5-4.1,1.2-1.4.4.4c-.11-.63.11-1.28.6-1.7.43-.47,1.07-.7,1.7-.6-.12-.69.1-1.4.6-1.9.86-.94,2.31-1.01,3.25-.15.05.05.1.1.15.15l-.2-.2Z"/><path d="m42.71,168.16l3.3,5.2-1.6,1-.3-.5c-.08.68-.49,1.28-1.1,1.6-1.04.69-2.45.41-3.15-.63-.06-.09-.11-.17-.15-.27l-2-3.2,1.6-1,1.9,3c.27.52.92.71,1.43.44.02-.01.04-.02.07-.04.6-.4.8-.9.3-1.7l-1.8-2.8,1.6-1-.1-.1Z"/><path d="m51.01,167.46l1.3,3.5-1.67.6-1.2-3.3c-.11-.54-.64-.89-1.19-.77-.07.02-.15.04-.21.07-.63.24-.95.94-.71,1.57,0,0,0,.02.01.03l1.1,3.2-1.7.6-2.1-5.8,1.7-.6.2.5c.25-.62.76-1.09,1.4-1.3,1.15-.45,2.44.11,2.89,1.25.04.11.08.23.11.35l.07.1Z"/><path d="m51.71,163.26c-.11-.61.29-1.19.9-1.3.61-.11,1.19.29,1.3.9.11.61-.29,1.19-.9,1.3,0,0,0,0,0,0-.61.1-1.18-.3-1.3-.9Zm.5,1.6l1.8-.3,1.1,6-1.8.3-1.1-6Z"/><path d="m55.71,167.26c-.08-1.74,1.27-3.22,3.02-3.3.03,0,.06,0,.08,0,1.13-.03,2.2.54,2.8,1.5l-1.6,1c-.25-.43-.7-.7-1.2-.7-.7-.03-1.29.52-1.32,1.22,0,.09,0,.19.02.28-.02.76.58,1.38,1.34,1.4.02,0,.04,0,.06,0,.5,0,.95-.27,1.2-.7l1.6.9c-.53,1.01-1.56,1.65-2.7,1.7-1.71.11-3.18-1.19-3.29-2.89,0-.07,0-.14,0-.21v-.2Z"/><path d="m69.31,165.26l-1.1,6-1.8-.3v-.6c-.48.45-1.17.61-1.8.4-1.66-.39-2.69-2.04-2.3-3.7,0,0,0,0,0,0,.25-1.7,1.8-2.89,3.5-2.7.71.08,1.34.49,1.7,1.1v-.6c.1,0,1.9.3,1.9.3l-.1.1Zm-2.4,2.7c.21-.7-.18-1.43-.88-1.65-.1-.03-.21-.05-.32-.05-.76-.17-1.51.32-1.68,1.08,0,.04-.02.08-.02.12-.21.7.18,1.43.88,1.65.1.03.21.05.32.05.75.18,1.5-.29,1.67-1.03.01-.05.02-.11.03-.17Z"/><path d="m72.91,168.46l-.8,2c-.2.5.2.7,1,1l-.6,1.6c-2.3-.6-2.7-1.6-2.1-3.2l.8-2-.9-.4.6-1.6.9.4.4-1.1,1.9.2-.6,1.6,1.2.5-.6,1.6-1.2-.5v-.1Z"/><path d="m76.11,167.96l1.6.9-2.9,5.4-1.6-.9,2.9-5.4Zm.6-1.5c.28-.55.95-.78,1.5-.5.55.28.78.95.5,1.5s-.95.78-1.5.5c0,0,0,0,0,0-.51-.32-.72-.94-.5-1.5Z"/><path d="m77.41,172.06c1.08-1.41,3.09-1.68,4.5-.6,1.41,1.08,1.68,3.09.6,4.5-1.08,1.41-3.09,1.68-4.5.6-1.41-1.07-1.68-3.08-.61-4.48,0,0,0-.01.01-.02Zm3.7,2.8c.5-.61.41-1.5-.2-2,0,0,0,0,0,0-.58-.48-1.44-.4-1.91.18-.03.04-.06.08-.09.12-.5.61-.41,1.5.2,2,0,0,0,0,0,0,.58.48,1.44.4,1.91-.18.03-.04.06-.08.09-.12Z"/><path d="m87.81,181.06l-2.9,2.4-1.2-1.4,2.7-2.2c.46-.3.59-.92.29-1.38-.03-.04-.06-.08-.09-.12-.4-.5-1-.6-1.7,0l-2.6,2.1-1.2-1.4,4.7-3.9,1.2,1.4-.4.4c.68-.01,1.32.33,1.7.9.82.97.7,2.41-.27,3.23-.07.06-.15.12-.23.17v-.2Z"/><path d="m89.41,189.16l-.4-.8-1.2.6-.9-1.8,1.2-.6-1.8-3.5,1.6-.8h6l1,1.8h-6l.8,1.6,1.6-.8.9,1.8-1.6.8.4.8-1.6.8v.1Z"/><path d="m94.21,197.46c-2.13.58-4.33-.67-4.91-2.8-.04-.13-.06-.26-.09-.4-.68-2.35.68-4.81,3.03-5.48s4.81.68,5.48,3.03c.03.12.06.23.09.35.39,1.47-.03,3.03-1.1,4.1l-1.3-1.4c.55-.63.73-1.5.5-2.3-.36-1.38-1.77-2.21-3.15-1.85-1.38.36-2.21,1.77-1.85,3.15.13.96.85,1.72,1.8,1.9l-.5-2.2,1.7-.4.9,4.2-.7.2.1-.1Z"/><path class="cls-33" d="m72.21,187.56c-8.5-.2-17.8-.2-26.3,0-14.8,1.9-22,20.9-11.6,31.8,2.2,3.3-1.6,9.5,2.3,11.8,3.3,1,5.2-3.4,7.4-5.1,9.2-1,20.3.5,29.8-.5,22.1-2.9,20.7-37.2-1.6-38.2v.2Z"/><path d="m57.41,208.56v4.2h-1.77v2.7h-4.5v-2.7h-7.8v-4.2l5.3-10.9h5l-5.4,11h2.8v-3.2h4.5v3.2h1.8l.07-.1Z"/><path d="m76.71,205.16v1.8c.09,2.39-.81,4.71-2.5,6.4-1.72,1.63-4.03,2.5-6.4,2.4-2.57.05-5.05-.92-6.9-2.7-3.65-3.62-3.67-9.51-.05-13.15,1.76-1.77,4.15-2.76,6.65-2.75,1.61-.12,3.22.26,4.6,1.1,1.35.64,2.47,1.69,3.2,3l-3.9,2.2c-.39-.59-.95-1.04-1.6-1.3-.73-.32-1.51-.49-2.3-.5-2.64-.05-4.82,2.05-4.87,4.69,0,.07,0,.14,0,.21-.04,1.29.42,2.55,1.3,3.5.99,1.02,2.39,1.53,3.8,1.4,1.69.08,3.29-.81,4.1-2.3h-4.3v-3.9h9l.17-.1Z"/><circle class="cls-11" cx="200.64" cy="199.56" r="45"/><path d="m178.45,174.96c2.37,1.94,2.71,5.43.77,7.8-.15.18-.3.35-.47.5-2.19,2.63-6.1,2.98-8.73.79-2.63-2.19-2.98-6.1-.79-8.73.1-.12.21-.24.32-.36,1.38-1.56,3.45-2.31,5.5-2l-.6,2.6c-1.14-.15-2.28.3-3,1.2-1.33,1.34-1.32,3.51.02,4.84.06.06.12.11.18.16,1.5,1.4,3.5,1.3,5.1-.4,1.02-.86,1.31-2.31.7-3.5l-2.2,2.3-1.7-1.6,4.1-4.4.7.7.1.1Z"/><path d="m189.54,170.76c1.13,2.07.37,4.66-1.69,5.8,0,0,0,0,0,0-.83.46-1.81.53-2.7.2l1.9,3.8-2.3,1.1-5.3-10.7,2.3-1.1.4.7c.29-.91.94-1.67,1.8-2.1,2.15-.94,4.66.05,5.6,2.2v.1Zm-2.3,1.1c-.44-1.01-1.62-1.47-2.63-1.03-.02,0-.04.02-.07.03-.98.4-1.45,1.52-1.05,2.5.04.1.09.2.15.3.44,1.01,1.62,1.47,2.63,1.03.02,0,.04-.02.07-.03.98-.4,1.45-1.52,1.05-2.5-.04-.1-.09-.2-.15-.3h0Z"/><path d="m199.34,168.16l.8,5.2-2.5.4-.7-4.8c-.08-.8-.79-1.39-1.59-1.31-.04,0-.07,0-.11.01-.9.1-1.5.8-1.3,2l.7,4.6-2.5.4-1.8-11.8,2.5-.4.6,4.2c.48-.78,1.29-1.29,2.2-1.4,1.7-.3,3.3.7,3.7,3v-.1Z"/><path d="m201.34,169.06c.37-2.45,2.64-4.15,5.1-3.8,2.41.29,4.12,2.48,3.83,4.89,0,.07-.02.14-.03.21-.37,2.45-2.64,4.15-5.1,3.8-2.43-.32-4.14-2.56-3.82-4.99,0-.04.01-.08.02-.11Zm6.4,1c.23-1.02-.41-2.04-1.44-2.27-.05-.01-.11-.02-.16-.03-.98-.21-1.95.41-2.16,1.4-.02.1-.03.2-.04.3-.23,1.02.41,2.04,1.44,2.27.05.01.11.02.16.03.98.21,1.95-.41,2.16-1.4.02-.1.03-.2.04-.3h0Z"/><path d="m219.84,173.66l-2.3,4.7-2.3-1.1,2.1-4.4c.39-.65.19-1.49-.46-1.88-.08-.05-.16-.09-.24-.12-.74-.41-1.67-.13-2.08.61-.05.09-.09.19-.12.29l-2,4.2-2.3-1.1,3.7-7.7,2.3,1.1-.3.7c.83-.42,1.81-.38,2.6.1,1.5.7,2.3,2.5,1.3,4.6h.1Z"/><path d="m222.95,180.36c.4.45,1,.68,1.6.6l.7,2.2c-1.42.29-2.89-.16-3.9-1.2-1.9-1.55-2.18-4.35-.62-6.25.07-.09.15-.17.22-.25,1.59-1.82,4.36-2,6.18-.41.08.07.15.13.22.21,1.74,1.56,1.88,4.24.32,5.97-.07.08-.14.15-.22.23-.22.28-.49.52-.8.7l-4.4-4.1c-.4.9,0,1.6.7,2.3h0Zm3.3-1.2c.45-.73.28-1.68-.4-2.2-.57-.68-1.57-.81-2.3-.3l2.7,2.5Z"/><path d="m240.75,190.16l-2.1.9-10.4.4-1.2-2.6,10-.4-2-4.4,2.4-1.1,3.2,7.1.1.1Z"/><path class="cls-30" d="m183.25,184.56h20.6c2.04,0,3.69,1.64,3.7,3.68,0,0,0,.01,0,.02v43.9c0,2.04-1.64,3.69-3.68,3.7,0,0-.01,0-.02,0h-20.6c-2.04,0-3.69-1.64-3.7-3.68,0,0,0-.01,0-.02v-43.9c0-2.04,1.64-3.69,3.68-3.7,0,0,.01,0,.02,0Z"/><path class="cls-36" d="m198.45,215.76c-.27.01-.54-.02-.8-.1-.61-.09-1.21-.22-1.8-.4-.7-.1-1.5-.3-2.2-.4-.9-.2-1.7-.3-2.6-.5-.14.01-.28-.02-.4-.1-.27-.1-.41-.39-.31-.66,0-.01,0-.02.01-.04.21-.38.38-.78.5-1.2.3-.7.6-1.3.9-2,.23-.45.5-.89.8-1.3.4-.63,1.24-.81,1.87-.41.13.08.24.19.33.31.22.25.42.52.6.8.4.7.9,1.3,1.3,2l2.1,3.3c.05.11.12.21.2.3.1.3,0,.5-.4.5l-.1-.1Z"/><path class="cls-36" d="m199.95,200.06h.3c.3,0,.4.2.3.4s-.2.3-.3.5c-.8,1-1.5,2-2.3,3-.8,1-1.5,1.8-2.2,2.6-.38.41-.87.72-1.4.9-.63.12-1.28-.02-1.8-.4-.29-.28-.56-.58-.8-.9-.7-1.1-1.4-2.1-2.1-3.2-.3-.5-.6-1-.9-1.4h0c-.2-.4,0-.6.3-.6l4.3-.3c1.3,0,2.6-.2,3.8-.3.9-.02,1.8-.08,2.7-.2h0l.1-.1Z"/><path class="cls-36" d="m196.64,184.56h20.6c2.04,0,3.69,1.64,3.7,3.68,0,0,0,.01,0,.02v43.9c0,2.04-1.64,3.69-3.68,3.7,0,0-.01,0-.02,0h-20.6c-2.04,0-3.69-1.64-3.7-3.68,0,0,0-.01,0-.02v-43.9c0-2.04,1.64-3.69,3.68-3.7,0,0,.01,0,.02,0Z"/><path class="cls-20" d="m217.25,184.56h-20.6c-2.04,0-3.69,1.64-3.7,3.68,0,0,0,.01,0,.02v43.9l27.9-43.9c0-2.04-1.64-3.69-3.68-3.7,0,0-.01,0-.02,0h.1Z"/><path class="cls-33" d="m218.75,229.26h-23.6c-.87.01-1.59-.69-1.6-1.56,0-.01,0-.03,0-.04v-39.6c-.02-.96.74-1.76,1.7-1.8h23.4c.87-.01,1.59.69,1.6,1.56,0,.01,0,.03,0,.04v39.7c.01.87-.69,1.59-1.56,1.6-.01,0-.03,0-.04,0l.1.1Z"/><path class="cls-2" d="m208.84,234.16h-.4c-.31-.02-.61-.09-.9-.2-.37-.02-.74-.09-1.1-.2-.44-.05-.88-.15-1.3-.3h-.2c-.2,0-.2-.2-.1-.3s.2-.4.3-.6.3-.7.5-1c.1-.22.23-.42.4-.6.19-.3.59-.39.9-.2.08.05.15.12.2.2.1.1.2.3.3.4.2.3.4.7.6,1,.3.5.7,1.1,1,1.6v.2c0,.1,0,.3-.2.3v-.3Z"/><path class="cls-25" d="m209.04,201.36h-.4c-.34-.03-.68-.09-1-.2-.4,0-.8-.2-1.2-.2-.44-.05-.88-.15-1.3-.3h-.2c-.2,0-.2-.2-.2-.4s.2-.4.3-.6.3-.7.5-1c.09-.25.23-.49.4-.7.19-.3.59-.39.9-.2.08.05.15.12.2.2.1.1.2.3.3.4.2.36.43.69.7,1,.4.6.7,1.1,1.1,1.7v.2c0,.2,0,.3-.2.3l.1-.2Z"/><path class="cls-25" d="m209.84,193.16h.2c.1,0,.2.1.1.2-.05.11-.12.21-.2.3l-1.2,1.5c-.4.44-.76.91-1.1,1.4-.19.22-.43.39-.7.5-.31.03-.63-.04-.9-.2-.18-.12-.33-.29-.4-.5-.4-.6-.7-1.1-1.1-1.7-.17-.21-.31-.45-.4-.7h0c0-.2,0-.3.2-.3.77-.02,1.54-.08,2.3-.2.67.02,1.34-.02,2-.1h1.4l-.2-.2Z"/><path d="m205.54,217.46v2h-.8v1.3h-2.1v-1.3h-3.7v-2l2.5-5.1h2.4l-2.5,5.2h1.3v-1.5h2.1v1.5h.8v-.1Z"/><path d="m214.64,215.96v.9c.03,1.12-.4,2.21-1.2,3-.8.77-1.89,1.17-3,1.1-1.2.04-2.37-.43-3.2-1.3-.81-.83-1.28-1.94-1.3-3.1-.04-1.17.43-2.31,1.3-3.1.83-.81,1.94-1.28,3.1-1.3.77-.04,1.53.14,2.2.5.63.3,1.16.79,1.5,1.4l-1.8,1c-.16-.28-.4-.49-.7-.6-.35-.12-.73-.19-1.1-.2-.59-.03-1.18.18-1.6.6-.42.46-.63,1.08-.6,1.7-.03.59.18,1.18.6,1.6.48.47,1.13.72,1.8.7.8.04,1.54-.39,1.9-1.1h-2v-1.8h4.1Z"/><path class="cls-34" d="m194.84,227.06c-.23.35-.7.46-1.05.23-.22-.14-.35-.37-.35-.63v-38.6c0-.93.75-1.69,1.68-1.7,0,0,.01,0,.02,0h23.7c.45-.03.83.31.86.75.01.2-.04.39-.16.55l-24.7,39.4Z"/><polyline class="cls-20" points="210.45 188.16 203.04 188.16 201.54 184.56 212.14 184.56"/><path class="cls-2" d="m209.84,186.96c.02.26-.18.48-.44.5-.02,0-.04,0-.06,0h-4.7c-.26.02-.48-.18-.5-.44,0-.02,0-.04,0-.06h0c-.02-.26.18-.48.44-.5.02,0,.04,0,.06,0h4.7c.26-.02.48.18.5.44,0,.02,0,.04,0,.06Z"/><rect class="cls-19" x="181.84" y="187.06" width="9.8" height="5.4" rx="2" ry="2"/><circle cx="184.45" cy="190.06" r=".9"/><path class="cls-24" d="m184.54,191.66c-1.1,0-2-.9-2-2,0-1.1.9-2,2-2,1.1,0,2,.9,2,2,0,.03,0,.07,0,.1-.01,1.06-.88,1.91-1.94,1.9-.02,0-.04,0-.06,0Zm-.9-2.1c-.07.24-.04.49.1.7.17.38.59.59,1,.5.38-.06.69-.33.8-.7.15-.44-.07-.92-.5-1.1-.21-.13-.46-.17-.7-.1-.5,0-.8.3-.7.8v-.1Z"/><path class="cls-37" d="m184.34,188.76c.24-.02.48.02.7.1.39.21.6.66.5,1.1,0,.4-.4.6-.8.7-.4.05-.8-.15-1-.5-.14-.21-.17-.46-.1-.7.1,0,.3.1.4.1,0,.2,0,.5.3.5s.5,0,.6-.3,0-.6-.5-.7c0-.2,0-.4-.2-.5l.1.2Z"/><path class="cls-32" d="m184.34,188.76c.13.14.2.31.2.5-.08.18-.22.32-.4.4-.2,0-.3,0-.4-.1-.1-.5.2-.8.7-.8h-.1Z"/><circle cx="188.84" cy="190.06" r=".9"/><path class="cls-24" d="m189.04,191.66c-1.1,0-2-.9-2-2,0-1.1.9-2,2-2,1.1,0,2,.9,2,2,0,.03,0,.07,0,.1-.01,1.06-.88,1.91-1.94,1.9-.02,0-.04,0-.06,0Zm-.9-2.1c-.07.24-.04.49.1.7.17.38.59.59,1,.5.38-.06.69-.33.8-.7.15-.44-.07-.92-.5-1.1-.21-.13-.46-.17-.7-.1-.5,0-.8.3-.7.8v-.1Z"/><path class="cls-37" d="m188.75,188.76c.24-.02.48.02.7.1.39.21.6.66.5,1.1,0,.4-.4.6-.8.7-.4.05-.8-.15-1-.5-.14-.21-.17-.46-.1-.7.1,0,.3.1.4.1,0,.2,0,.5.3.5s.5,0,.6-.3,0-.6-.5-.7c0-.2,0-.4-.2-.5l.1.2Z"/><path class="cls-32" d="m188.75,188.76c.13.14.2.31.2.5-.08.18-.22.32-.4.4-.2,0-.3,0-.4-.1-.1-.5.2-.8.7-.8h-.1Z"/><circle class="cls-10" cx="200" cy="59.69" r="45"/><path d="m169.9,56.59v2c-.1,0-5.1-.3-5.1-.3l3.5,2.4v.2l-3.8,2,5,.3v2c-.1,0-8.7-.5-8.7-.5v-2c.1,0,4.1-2.1,4.1-2.1l-3.7-2.5v-2c.1,0,8.7.5,8.7.5Z"/><path d="m169.9,52.29c.2-.5.1-.9,0-1.3l1.3-1.1c.6.8.7,1.8.3,2.9-.7,2-2.4,2.8-4.2,2.2-1.7-.6-2.6-2.3-2-4.1.6-1.7,2.3-2.5,4.1-1.9.2,0,.5.2.7.3l-1.4,4.1c.7,0,1.1-.5,1.3-1.1h-.1Zm-1.8-1.8c-.7,0-1.2.4-1.3.9-.2.7,0,1.2.5,1.6l.8-2.5Z"/><path d="m168.5,39.69l7.3,4.5-1,1.6-.5-.3c.2.6.1,1.2-.3,1.9-.8,1.4-2.7,1.8-4.3.8-1.6-1-2.1-2.8-1.2-4.2.4-.7,1-1.1,1.6-1.2l-2.6-1.6,1-1.6v.1Zm3.7,4.5c-.8-.5-1.6-.3-2,.5-.4.7-.3,1.5.5,2s1.6.3,2-.5.3-1.5-.5-2Z"/><path d="m170.6,38.49c-.5-.4-.5-1.1-.1-1.6s1.1-.5,1.6-.1.5,1.1.1,1.6-1.1.5-1.6.1Zm1.4.9l1.2-1.4,4.6,4-1.2,1.4-4.6-4Z"/><path d="m179.3,32.49l3.9,4.7-1.4,1.2-.4-.4c0,.6-.3,1.2-.9,1.7-1.2,1-3.2.8-4.3-.6s-1-3.3.2-4.4c.6-.5,1.3-.7,1.9-.6l-.4-.4,1.4-1.2Zm.5,3.5c-.6-.7-1.4-.8-2.1-.2-.7.5-.8,1.4-.2,2.1.6.7,1.4.8,2.1.2.7-.5.8-1.4.2-2.1Z"/><path d="m182,32.69l4.1-2.1.8,1.6-4.1,2.1-.8-1.6Z"/><path d="m197.5,32.19l-1.9.4-1.1-4.9-1.4,4h-.2l-3-3,1.1,4.9-1.9.4-1.9-8.4,1.9-.4,3.1,3.2,1.4-4.2,1.9-.4,1.9,8.4h.1Z"/><path d="m204.4,26.39l-.3,6.1h-1.8v-.7c-.3.4-1,.7-1.8.7-1.2,0-2.3-1-2.2-2.6l.2-3.8h1.8l-.1,3.6c0,.8.4,1.1,1,1.2.7,0,1.2-.3,1.2-1.2v-3.3c.1,0,2,0,2,0Z"/><path d="m207,23.99l1.8.4-1.8,8.8-1.8-.4,1.8-8.8Z"/><path d="m211.7,29.99l-.7,2.1c-.2.5.2.7,1,.9l-.5,1.6c-2.4-.5-2.8-1.4-2.2-3.1l.7-2.1-.9-.3.6-1.7.9.3.4-1.1h1.9l-.5,1.7,1.2.4-.6,1.7-1.2-.4h-.1Z"/><path d="m214.9,29.39l1.7.8-2.6,5.5-1.7-.8,2.6-5.5Zm.5-1.6c.3-.5.9-.8,1.5-.5.5.3.8.9.5,1.5-.3.5-.9.8-1.5.5-.5-.3-.8-.9-.5-1.5Z"/><path d="m219,35.09c1.2-1.4,3.1-1.6,4.6-.4.9.8,1.3,1.9,1.1,3l-1.8-.3c.1-.5,0-.9-.5-1.3-.6-.5-1.4-.4-2,.2-.5.7-.5,1.5.2,2,.4.3.9.4,1.4.2l.7,1.7c-1,.4-2.2.2-3.1-.5-1.4-1.2-1.6-3.2-.4-4.6h-.2Z"/><path d="m230.6,42.59l-4.8,3.8-1.1-1.4.5-.4c-.6,0-1.2-.3-1.7-1-1-1.3-.7-3.2.7-4.3,1.4-1.1,3.4-1,4.4.3.5.6.7,1.3.5,1.9l.5-.4,1.1,1.4-.1.1Zm-3.5.5c.7-.6.8-1.4.3-2.1-.5-.7-1.4-.8-2.1-.2-.7.6-.8,1.4-.3,2.1s1.4.8,2.1.2Z"/><path d="m233.3,54.09l-3.5,1.4-.7-1.7,3.3-1.4c.6-.2.8-.7.6-1.2-.2-.6-.8-.7-1.4-.4l-3.2,1.3-.7-1.7,3.3-1.4c.6-.2.8-.7.6-1.2-.2-.6-.8-.7-1.4-.4l-3.2,1.3-.7-1.7,5.7-2.3.7,1.7-.5.2c.5.1,1,.5,1.3,1.2s.2,1.3-.1,1.8c.6.1,1.1.5,1.4,1.3.5,1.3,0,2.5-1.5,3.1v.1Z"/><path d="m231.6,59.19c0,.5.3.9.6,1.1l-.7,1.6c-.9-.5-1.4-1.3-1.6-2.5-.2-2.1,1-3.5,2.8-3.8,1.8-.2,3.4.9,3.6,2.9.2,1.8-1,3.3-2.8,3.5h-.7l-.5-4.3c-.6.3-.8.9-.7,1.6v-.1Zm2.3.9c.7-.3.9-.9.8-1.4,0-.7-.5-1.1-1.1-1.2l.3,2.6Z"/><path d="m236.4,66.99h-2.1c.2-.9,0-2-1.3-2l-2.8-.2v-1.8c.1,0,6.2.4,6.2.4v1.8h-1.2c.8.3,1.1,1.1,1.1,1.9l.1-.1Z"/><path d="m234.6,74.59l-5.9-1.5.4-1.8h.6c-.4-.4-.5-1-.3-1.8.4-1.6,2.1-2.5,3.8-2.1,1.8.4,2.8,2.1,2.4,3.6-.2.8-.6,1.3-1.2,1.6h.6c0,.1-.4,1.9-.4,1.9v.1Zm-2.5-2.5c.9.2,1.6-.2,1.8-1.1.2-.8-.2-1.6-1.1-1.8s-1.6.2-1.8,1.1c-.2.8.2,1.6,1.1,1.8Z"/><path class="cls-31" d="m208.5,91.89h-18.1c-.4-1.5-1.2-2.8-2.2-3.9-.3-.3-.3-.4,0-.7,1.3-1.3,2.6-2.5,3.8-3.8,1.2-1.2,1.5-2.9.9-4.4.1-.6,0-1.3,0-1.9-.6-2.3-2.9-3.7-5.1-3.1-.8.2-1.4.6-2,1.1-2.3,2.2-4.5,4.5-6.8,6.8-.4.4-.9.9-1.4,1.3v-35.1c0-1.5.9-2.9,2.3-3.4.4-.1.8-.2,1.3-.2h35.8c2.2,0,3.6,1.4,3.6,3.6v26.5h-8.4c-1.4,0-2.8.8-3.3,2.1-.7,1.6,0,3.6,1.4,4.2h.1c.2.5.6.4.8.7-1.8.4-3,2.2-2.5,4.1.2.9.8,1.7,1.6,2.2h0c.2.4.6.4.8.6-1.6.4-2.6,1.8-2.6,3.4v-.1Zm-6-32.6v-8.5c0-1-.7-1.9-1.7-1.9h-17c-1.3,0-2.1.7-2.1,2v16.7c0,1,.7,1.8,1.7,1.9h17.2c.9,0,1.7-.6,1.8-1.5v-8.8l.1.1Zm7.7-5.2h3.1q1.3,0,1.3-1.3c0-.4-.1-.5-.5-.5h-6.9q-1.3,0-1.3,1.3c0,1.3.1.5.5.4h3.8v.1Zm3.1-5.2h-2.7q-1.2,0-1.2,1.3c0,.4.2.5.5.5h5.9q1.3,0,1.3-1.4c0-.3-.1-.4-.4-.4h-3.4,0Zm-7.4.8c0,1-.2.9.8.9.6,0,.9-.3.9-.9q0-.9-.9-.9c-.9,0-.8,0-.8.8v.1Z"/><path class="cls-16" d="m177.6,83.29c.5-.4.9-.9,1.4-1.3,2.3-2.3,4.5-4.5,6.8-6.8,1.6-1.7,4.3-1.7,6,0,.6.5.9,1.2,1.1,2,.1.6.2,1.3,0,1.9-.3.9-.8,1.8-1.5,2.5-2,1.9-3.9,3.9-5.8,5.8-.3.3-.3.4,0,.7,1,1.1,1.8,2.5,2.2,3.9h-13.2c-.2,0-.4,0-.4-.2,0-1.3-.1-2.5.2-3.7.3-1.2.9-2.3,1.7-3.1l1.5-1.5v-.2Z"/><path class="cls-9" d="m210.2,81.09c-1.4-.6-2.1-2.7-1.4-4.2.5-1.3,1.9-2.2,3.3-2.1h8.4c1.9.2,3,1.1,3.4,2.8-.2,0-.2.1-.2.2-.4.9-1.1,1.6-2,1.9-.6.2-1.2.3-1.8.3h-8.4c-1,0-1.2,0-1.3,1.1Z"/><path class="cls-16" d="m210.2,87.99c-1.6-.9-2.2-3-1.3-4.6.5-.8,1.3-1.4,2.2-1.6.4,0,.7-.1,1.1-.2h8.8c.7.2,1.4.6,1.9,1,.5.5.8,1.1,1,1.8,0,0-.2.1-.2.2-.7,1.7-2.1,2.2-3.7,2.2h-8.6c-1,0-1.2.2-1.2,1.2Z"/><path class="cls-16" d="m208.5,91.89c0-1.6,1.1-3,2.6-3.3.2,0,.5,0,.7-.1,3.1,0,6.3.1,9.4,0,0,.2.2.2.3.2,1.2.4,2.1,1.3,2.4,2.6.2.7,0,.8-.6.8h-14.8v-.2Z"/><path class="cls-39" d="m187.8,91.89c-.4-1.5-1.1-2.8-2.2-3.9-.3-.3-.3-.4,0-.7,2-1.9,3.9-3.9,5.8-5.8.7-.7,1.2-1.5,1.5-2.5.6,1.5.3,3.3-.9,4.4-1.3,1.3-2.6,2.6-3.8,3.8-.3.3-.3.4,0,.7,1,1.1,1.8,2.5,2.2,3.9h-2.6v.1Z"/><path class="cls-4" d="m221.2,88.39c-3.1.2-6.3,0-9.4,0-.2,0-.5,0-.7.1-.3-.2-.6-.2-.8-.5h0c0-1.1.2-1.3,1.2-1.3h8.6c1.7,0,3-.5,3.7-2.2,0,0,.1-.2.2-.2.2,2-.7,3.4-2.4,4h-.3l-.1.1Z"/><path class="cls-4" d="m221,81.59h-8.8c-.4,0-.7,0-1.1.2-.2-.2-.6-.2-.8-.6h-.1c.1-1.1.2-1.3,1.3-1.3h8.4c.6,0,1.2,0,1.8-.3.9-.3,1.6-1,2-1.9,0-.1,0-.2.2-.2.4,1.8-.7,3.5-2.5,4h-.4v.1Z"/><path class="cls-17" d="m202.5,59.29v8.5c0,.9-.6,1.7-1.5,1.8h-17.2c-1,0-1.8-.7-1.9-1.7v-17c0-1.3.7-2,2.1-2h16.7c1,0,1.9.6,1.9,1.6v8.8h-.1Zm-11.2,4.3c0-1.9-1.5-3.4-3.4-3.4s-3.4,1.5-3.4,3.4,1.5,3.4,3.4,3.4h0c1.9,0,3.4-1.5,3.4-3.4Zm0-8.6c0-1.9-1.5-3.4-3.4-3.4s-3.4,1.5-3.4,3.4,1.5,3.4,3.4,3.4,3.4-1.5,3.5-3.3h0l-.1-.1Zm5.1,3.4c1.9,0,3.4-1.5,3.4-3.4s-1.5-3.4-3.4-3.4-3.4,1.5-3.4,3.4h0c0,1.9,1.5,3.4,3.4,3.4h0Zm2.6,5.2v-1.6c0-.5-.3-.9-.7-1h-3.5c-.4,0-.9.3-.9.7v3.5c0,.5.3.9.8.9h3.5c.5,0,.9-.3.9-.8v-1.7h-.1Z"/><path class="cls-23" d="m210.2,54.09h-3.8c-.3,0-.5,0-.5-.4,0-.87.43-1.3,1.3-1.3h6.9c.4,0,.5,0,.5.5,0,.87-.43,1.3-1.3,1.3h-3.1v-.1Z"/><path class="cls-28" d="m213.2,48.89h3.4c.3,0,.4,0,.4.4q0,1.4-1.3,1.4h-5.9c-.4,0-.5,0-.5-.5,0-.87.4-1.3,1.2-1.3h2.7Z"/><path class="cls-28" d="m205.9,49.79c0-.53.27-.8.8-.8s.83.3.9.9q0,.9-.9.9c-1,0-.8,0-.8-.9v-.1Z"/><path class="cls-9" d="m210.2,81.09h.1c0,.1-.1,0-.1,0Z"/><path class="cls-24" d="m191.3,63.59c0,1.9-1.6,3.4-3.5,3.4s-3.4-1.6-3.4-3.5,1.6-3.4,3.4-3.4c1.9,0,3.4,1.6,3.4,3.5h.1Zm-5.1-.5v.4c0,.8.5,1.4,1.2,1.7.9.3,1.9-.2,2.2-1.1.2-.5,0-1.1-.2-1.5-.4-.5-1.1-.8-1.7-.6-1.1,0-1.4.3-1.4,1.2h0l-.1-.1Z"/><path class="cls-24" d="m191.3,54.99c0,1.9-1.5,3.4-3.4,3.4s-3.4-1.5-3.4-3.4,1.5-3.4,3.4-3.4h0c1.9,0,3.4,1.5,3.4,3.4h0Zm-5-.3c-.2.6,0,1.3.6,1.7s1.4.4,2,0c.5-.4.8-1,.7-1.7-.1-.9-.9-1.5-1.8-1.4h-.2c-.5-.2-1.1,0-1.3.6v.7h0v.1Z"/><path class="cls-24" d="m196.4,58.39c-1.9,0-3.4-1.6-3.4-3.5s1.6-3.4,3.5-3.4,3.4,1.6,3.4,3.4c0,1.9-1.6,3.4-3.5,3.4v.1Zm-1.6-3.7c-.3.4,0,.8.2,1.2.4.6,1.1,1,1.8.8.7-.1,1.2-.7,1.3-1.3.2-.8-.2-1.5-.9-1.9-.4-.2-.8-.3-1.3-.2-.9,0-1.4.6-1.2,1.4h.1Z"/><path class="cls-5" d="m199,63.59v1.7c0,.5-.3.9-.8.9h-3.4c-.5,0-.9-.3-.9-.8v-3.5c0-.4.3-.9.7-.9h3.5c.5,0,.9.3.9.8v.2c0,.5,0,1.1,0,1.6Zm-3-.4h1.6c.3,0,.5-.1.5-.5s-.3-.3-.5-.3h-1.3c0-.3-.3-.4-.5-.5-.4,0-.8.3-1,.7-.2.2-.1.6.1.8.4.3.7.1,1-.1h0l.1-.1Zm.4,1.7h1.3c.2,0,.4-.2.4-.4h0c0-.3-.2-.4-.4-.4h-2.5c-.2,0-.4.1-.4.3h0c0,.2.2.4.4.4h1.3l-.1.1Z"/><path class="cls-37" d="m187.5,61.89c.6-.2,1.3,0,1.7.6.6.8.4,1.9-.4,2.4-.4.3-1,.4-1.5.2-.7-.3-1.2-.9-1.2-1.7v-.4c.2.3.5.4.9.3,0,.8.5,1.2,1.1,1,.4-.2.7-.6.5-1.1-.1-.4-.6-.7-1-.6,0-.3,0-.6-.1-.8v.1Z"/><path class="cls-32" d="m187.5,61.89c.2.2.2.5.1.8-.1.3-.4.5-.6.7-.3,0-.7,0-.9-.3,0-.9.3-1.2,1.4-1.2Z"/><path class="cls-37" d="m187.6,53.39c.9-.2,1.7.3,2,1.2v.2c.1.6-.2,1.3-.7,1.7-.6.4-1.4.4-2,0-.5-.4-.8-1.1-.6-1.7.2.2.5.2.8.1,0,.8.5,1.2,1.1,1,.4-.1.6-.5.6-.9,0-.5-.4-.7-1.1-.7.1-.3,0-.6-.1-.8v-.1Z"/><path class="cls-32" d="m187.1,54.79c-.3.1-.6,0-.8-.1-.2-.5,0-1.1.6-1.3h.7c.2.2.2.5.1.8-.2.2-.4.5-.6.6Z"/><path class="cls-37" d="m196,53.29c.4,0,.9,0,1.3.2.7.4,1,1.1.9,1.9-.2.6-.7,1.1-1.3,1.3-.7.1-1.4-.2-1.8-.8-.2-.4-.4-.7-.2-1.2.2.1.5.2.8.2,0,.4.1.8.6.9.4.1.9,0,1-.4.3-.6-.1-1.1-1-1.2,0-.3,0-.7-.3-.9Z"/><path class="cls-32" d="m196,53.29c.3.2.4.6.3.9-.2.3-.4.5-.7.7-.3,0-.5,0-.8-.2-.3-.8.3-1.4,1.2-1.4Z"/><path class="cls-27" d="m196.4,64.79h-1.3c-.2,0-.4-.1-.4-.3h0c0-.2.1-.4.3-.4h2.5c.2,0,.4,0,.4.4,0,.2-.1.4-.4.4h-1.3l.2-.1Z"/><path class="cls-6" d="m196,63.09h0c-.3.2-.6.4-1,.1-.2-.2-.3-.5-.1-.8.2-.4.5-.7,1-.7.3,0,.5.2.5.5s0,.6-.3.8l-.1.1Z"/><path class="cls-27" d="m196,63.09c.2-.2.3-.5.3-.8h1.3c.2,0,.5,0,.5.3s-.2.5-.5.5h-1.6Z"/><path class="cls-24" d="m187,63.39c.2-.2.5-.4.6-.7.4-.1.9.1,1,.6.2.4,0,.9-.5,1.1-.6.2-1.1-.2-1.1-1Z"/><path class="cls-24" d="m187.1,54.79l.6-.6c.6,0,1,.2,1.1.7,0,.4-.2.8-.6.9-.6.2-1.1-.3-1.1-1Z"/><path class="cls-24" d="m195.6,54.79c.3-.2.5-.4.7-.7.8,0,1.2.5,1,1.2-.2.4-.6.6-1,.4-.5,0-.6-.5-.6-.9h-.1Z"/></svg>