<?xml version="1.0" encoding="UTF-8"?><svg id="Layer_1" xmlns="http://www.w3.org/2000/svg" viewBox="0 0 400 400"><defs><style>.cls-1{fill:#a7a7a7;}.cls-2{stroke:#a5262d;}.cls-2,.cls-3{stroke-width:4px;}.cls-2,.cls-3,.cls-4{stroke-miterlimit:10;}.cls-2,.cls-3,.cls-4,.cls-5{fill:none;}.cls-6{fill:#fab644;}.cls-3{stroke:#000;}.cls-7{fill:#fff;}.cls-8{fill:#cbcbcb;}.cls-9{fill:#4fb76a;}.cls-10{fill:#349951;}.cls-11{fill:#cfe1ed;}.cls-12{fill:#cacaca;}.cls-13{fill:#143441;}.cls-14{fill:#0277b5;}.cls-15{fill:#a7c1e0;}.cls-16{fill:#546e7a;}.cls-17{fill:#0d202b;}.cls-18{fill:#cbdde9;}.cls-19{fill:#369754;}.cls-20{fill:#163842;}.cls-21{fill:#fdd782;}.cls-22{fill:#ffed58;}.cls-23{fill:#caa158;}.cls-4{stroke:#231f20;stroke-width:2px;}.cls-24{fill:#36464e;}.cls-25{fill:#015078;}.cls-26{fill:#183c43;}.cls-27{fill:#0296e4;}.cls-28{fill:#788f9b;}.cls-29{fill:#0295e3;}.cls-30{fill:#0276b3;}.cls-31{fill:#fab643;}.cls-32{fill:#0376b4;}.cls-33{fill:#a8a8a8;}.cls-34{fill:#fbd734;}.cls-35{fill:#cadce8;}.cls-36{fill:#51b66c;}.cls-37{fill:#231f20;}.cls-38{fill:#153642;}</style></defs><path class="cls-34" d="m347.18,324.08c.5,0,.99.02,1.49.02.84,0,1.54.69,1.55,1.54,0,.78,0,1.56,0,2.33,0,6.58,0,13.16,0,19.75,0,.43-.02.86-.15,1.28-.15.49-.75.93-1.27.93-5.57,0-11.15,0-16.72,0-.03,0-.05,0-.08,0,0-1.51,0-3.03,0-4.54,1.16,0,2.32,0,3.48-.01.15,0,.32.04.32-.21,0-.57.05-1.16-.08-1.71-.36-1.48-.79-2.95-1.17-4.43-.1-.4-.22-.79-.36-1.18-.22-.61.19-.92.56-1.25.6-.55.85-1.24.99-2.03.3-1.66-1.1-3.65-2.68-4.16-.05-.09-.12-.13-.22-.08-.08-.02-.16-.04-.24-.05-.04-.05-.08-.07-.14-.03-.15-.02-.31-.04-.46-.07,0-2.01,0-4.03,0-6.04,2.86,0,5.71,0,8.57-.02.18,0,.36-.01.53-.02,1.02.03,2.04.05,3.07,0,1,.06,2,.04,3.01,0Z"/><path class="cls-22" d="m332,345.37c0,1.51,0,3.03,0,4.54-.57,0-1.15.01-1.72.01-4.86,0-9.72-.02-14.58.02-1.28.01-1.94-.69-1.94-1.94.04-7.44.03-14.88,0-22.32,0-.89.72-1.6,1.57-1.59.5,0,.99-.01,1.49-.02,1,.03,2,.05,3-.01,1.02.06,2.04.03,3.06.01.17,0,.33.02.5.02,2.87,0,5.74,0,8.61.01,0,2.01,0,4.03,0,6.04-.32.15-.68.08-1.02.21-1.42.55-2.36,1.51-2.7,3.02-.06.03-.11.07-.03.14-.11,1.25.02,2.39,1.14,3.22.35.26.49.65.35,1.14-.09.3-.2.59-.27.9-.2.84-.42,1.66-.64,2.49-.16.61-.35,1.22-.5,1.83-.15.61-.11,1.23-.13,1.85-.01.31.07.42.4.41,1.14-.02,2.27,0,3.41,0Z"/><path class="cls-28" d="m319.83,324.07c-1,.06-2,.04-3,.01,0-2.7-.02-5.41.02-8.11.02-1.25.19-2.49.55-3.71.44-1.46,1.06-2.83,1.9-4.1,1.05-1.58,2.35-2.94,3.9-4.05,1.02-.73,2.09-1.38,3.27-1.78,1.17-.41,2.35-.81,3.61-.9.71-.05,1.41-.16,2.12-.14,1.77.03,3.47.38,5.13,1,1.65.62,3.14,1.52,4.5,2.65,1.17.97,2.13,2.12,2.94,3.4.58.9,1.03,1.86,1.42,2.87.21.55.36,1.12.55,1.68.17.51.21,1.06.27,1.6.35,3.19.08,6.39.17,9.58-1,.04-2,.05-3,0,0-2.28-.02-4.57.01-6.85.02-1.31-.15-2.6-.47-3.87-.45-1.78-1.28-3.39-2.48-4.76-1.47-1.68-3.26-2.95-5.42-3.64-1.53-.49-3.08-.64-4.69-.54-1.49.09-2.89.44-4.22,1.06-2.21,1.03-3.95,2.61-5.24,4.69-1.11,1.79-1.72,3.76-1.8,5.84-.1,2.69-.02,5.38-.02,8.08Z"/><path class="cls-16" d="m341.11,324.08c0-2.42.02-4.85,0-7.27-.01-1.29-.19-2.56-.71-3.76-.41-.95-.96-1.81-1.64-2.6-1.01-1.18-2.27-1.99-3.7-2.51-1.32-.48-2.7-.64-4.13-.46-.87.11-1.71.31-2.49.65-2.18.95-3.78,2.51-4.77,4.69-.46,1.02-.65,2.09-.7,3.2-.13,2.69-.02,5.38-.06,8.06-1.02.02-2.04.04-3.06-.01,0-2.69-.08-5.39.02-8.08.08-2.08.68-4.05,1.8-5.84,1.29-2.08,3.03-3.66,5.24-4.69,1.33-.62,2.73-.97,4.22-1.06,1.61-.09,3.16.06,4.69.54,2.16.69,3.94,1.95,5.42,3.64,1.2,1.38,2.03,2.98,2.48,4.76.32,1.27.49,2.55.47,3.87-.03,2.28-.01,4.57-.01,6.85-1.02.05-2.04.04-3.07,0Z"/><path class="cls-24" d="m332,345.37c-1.14,0-2.27-.02-3.41,0-.33,0-.41-.1-.4-.41.02-.62-.01-1.25.13-1.85.15-.62.34-1.22.5-1.83.22-.83.44-1.66.64-2.49.07-.31.18-.6.27-.9.14-.49,0-.88-.35-1.14-1.12-.83-1.25-1.97-1.14-3.22.06-.03.06-.08.03-.14.34-1.51,1.28-2.47,2.7-3.02.34-.13.7-.05,1.02-.21.15.02.31.04.46.07.03.08.07.12.14.03.08.02.16.04.24.05.04.11.14.08.22.08,1.58.51,2.98,2.5,2.68,4.16-.14.79-.4,1.48-.99,2.03-.36.33-.78.65-.56,1.25.14.39.25.78.36,1.18.38,1.48.81,2.94,1.17,4.43.13.55.09,1.14.08,1.71,0,.25-.17.21-.32.21-1.16,0-2.32,0-3.48.01Z"/><path class="cls-16" d="m333.07,330.39c-.09,0-.18.03-.22-.08.1-.05.17,0,.22.08Z"/><path class="cls-16" d="m332.6,330.25c-.07.09-.11.05-.14-.03.06-.03.1-.02.14.03Z"/><path class="cls-28" d="m328.28,333.38c.03.06.03.1-.03.14-.08-.07-.03-.1.03-.14Z"/><circle class="cls-3" cx="332.13" cy="327.91" r="39.02"/><path class="cls-34" d="m72.18,327.08c.5,0,.99.02,1.49.02.84,0,1.54.69,1.55,1.54,0,.78,0,1.56,0,2.33,0,6.58,0,13.16,0,19.75,0,.43-.02.86-.15,1.28-.15.49-.75.93-1.27.93-5.57,0-11.15,0-16.72,0-.03,0-.05,0-.08,0,0-1.51,0-3.03,0-4.54,1.16,0,2.32,0,3.48-.01.15,0,.32.04.32-.21,0-.57.05-1.16-.08-1.71-.36-1.48-.79-2.95-1.17-4.43-.1-.4-.22-.79-.36-1.18-.22-.61.19-.92.56-1.25.6-.55.85-1.24.99-2.03.3-1.66-1.1-3.65-2.68-4.16-.05-.09-.12-.13-.22-.08-.08-.02-.16-.04-.24-.05-.04-.05-.08-.07-.14-.03-.15-.02-.31-.04-.46-.07,0-2.01,0-4.03,0-6.04,2.86,0,5.71,0,8.57-.02.18,0,.36-.01.53-.02,1.02.03,2.04.05,3.07,0,1,.06,2,.04,3.01,0Z"/><path class="cls-22" d="m57,348.37c0,1.51,0,3.03,0,4.54-.57,0-1.15.01-1.72.01-4.86,0-9.72-.02-14.58.02-1.28.01-1.94-.69-1.94-1.94.04-7.44.03-14.88,0-22.32,0-.89.72-1.6,1.57-1.59.5,0,.99-.01,1.49-.02,1,.03,2,.05,3-.01,1.02.06,2.04.03,3.06.01.17,0,.33.02.5.02,2.87,0,5.74,0,8.61.01,0,2.01,0,4.03,0,6.04-.32.15-.68.08-1.02.21-1.42.55-2.36,1.51-2.7,3.02-.06.03-.11.07-.03.14-.11,1.25.02,2.39,1.14,3.22.35.26.49.65.35,1.14-.09.3-.2.59-.27.9-.2.84-.42,1.66-.64,2.49-.16.61-.35,1.22-.5,1.83-.15.61-.11,1.23-.13,1.85-.01.31.07.42.4.41,1.14-.02,2.27,0,3.41,0Z"/><path class="cls-28" d="m44.83,327.07c-1,.06-2,.04-3,.01,0-2.7-.02-5.41.02-8.11.02-1.25.19-2.49.55-3.71.44-1.46,1.06-2.83,1.9-4.1,1.05-1.58,2.35-2.94,3.9-4.05,1.02-.73,2.09-1.38,3.27-1.78,1.17-.41,2.35-.81,3.61-.9.71-.05,1.41-.16,2.12-.14,1.77.03,3.47.38,5.13,1,1.65.62,3.14,1.52,4.5,2.65,1.17.97,2.13,2.12,2.94,3.4.58.9,1.03,1.86,1.42,2.87.21.55.36,1.12.55,1.68.17.51.21,1.06.27,1.6.35,3.19.08,6.39.17,9.58-1,.04-2,.05-3,0,0-2.28-.02-4.57.01-6.85.02-1.31-.15-2.6-.47-3.87-.45-1.78-1.28-3.39-2.48-4.76-1.47-1.68-3.26-2.95-5.42-3.64-1.53-.49-3.08-.64-4.69-.54-1.49.09-2.89.44-4.22,1.06-2.21,1.03-3.95,2.61-5.24,4.69-1.11,1.79-1.72,3.76-1.8,5.84-.1,2.69-.02,5.38-.02,8.08Z"/><path class="cls-16" d="m66.11,327.08c0-2.42.02-4.85,0-7.27-.01-1.29-.19-2.56-.71-3.76-.41-.95-.96-1.81-1.64-2.6-1.01-1.18-2.27-1.99-3.7-2.51-1.32-.48-2.7-.64-4.13-.46-.87.11-1.71.31-2.49.65-2.18.95-3.78,2.51-4.77,4.69-.46,1.02-.65,2.09-.7,3.2-.13,2.69-.02,5.38-.06,8.06-1.02.02-2.04.04-3.06-.01,0-2.69-.08-5.39.02-8.08.08-2.08.68-4.05,1.8-5.84,1.29-2.08,3.03-3.66,5.24-4.69,1.33-.62,2.73-.97,4.22-1.06,1.61-.09,3.16.06,4.69.54,2.16.69,3.94,1.95,5.42,3.64,1.2,1.38,2.03,2.98,2.48,4.76.32,1.27.49,2.55.47,3.87-.03,2.28-.01,4.57-.01,6.85-1.02.05-2.04.04-3.07,0Z"/><path class="cls-24" d="m57,348.37c-1.14,0-2.27-.02-3.41,0-.33,0-.41-.1-.4-.41.02-.62-.01-1.25.13-1.85.15-.62.34-1.22.5-1.83.22-.83.44-1.66.64-2.49.07-.31.18-.6.27-.9.14-.49,0-.88-.35-1.14-1.12-.83-1.25-1.97-1.14-3.22.06-.03.06-.08.03-.14.34-1.51,1.28-2.47,2.7-3.02.34-.13.7-.05,1.02-.21.15.02.31.04.46.07.03.08.07.12.14.03.08.02.16.04.24.05.04.11.14.08.22.08,1.58.51,2.98,2.5,2.68,4.16-.14.79-.4,1.48-.99,2.03-.36.33-.78.65-.56,1.25.14.39.25.78.36,1.18.38,1.48.81,2.94,1.17,4.43.13.55.09,1.14.08,1.71,0,.25-.17.21-.32.21-1.16,0-2.32,0-3.48.01Z"/><path class="cls-16" d="m58.07,333.39c-.09,0-.18.03-.22-.08.1-.05.17,0,.22.08Z"/><path class="cls-16" d="m57.6,333.25c-.07.09-.11.05-.14-.03.06-.03.1-.02.14.03Z"/><path class="cls-28" d="m53.28,336.38c.03.06.03.1-.03.14-.08-.07-.03-.1.03-.14Z"/><circle class="cls-3" cx="57.13" cy="330.91" r="39.02"/><path class="cls-34" d="m215.18,336.08c.5,0,.99.02,1.49.02.84,0,1.54.69,1.55,1.54,0,.78,0,1.56,0,2.33,0,6.58,0,13.16,0,19.75,0,.43-.02.86-.15,1.28-.15.49-.75.93-1.27.93-5.57,0-11.15,0-16.72,0-.03,0-.05,0-.08,0,0-1.51,0-3.03,0-4.54,1.16,0,2.32,0,3.48-.01.15,0,.32.04.32-.21,0-.57.05-1.16-.08-1.71-.36-1.48-.79-2.95-1.17-4.43-.1-.4-.22-.79-.36-1.18-.22-.61.19-.92.56-1.25.6-.55.85-1.24.99-2.03.3-1.66-1.1-3.65-2.68-4.16-.05-.09-.12-.13-.22-.08-.08-.02-.16-.04-.24-.05-.04-.05-.08-.07-.14-.03-.15-.02-.31-.04-.46-.07,0-2.01,0-4.03,0-6.04,2.86,0,5.71,0,8.57-.02.18,0,.36-.01.53-.02,1.02.03,2.04.05,3.07,0,1,.06,2,.04,3.01,0Z"/><path class="cls-22" d="m200,357.37c0,1.51,0,3.03,0,4.54-.57,0-1.15.01-1.72.01-4.86,0-9.72-.02-14.58.02-1.28.01-1.94-.69-1.94-1.94.04-7.44.03-14.88,0-22.32,0-.89.72-1.6,1.57-1.59.5,0,.99-.01,1.49-.02,1,.03,2,.05,3-.01,1.02.06,2.04.03,3.06.01.17,0,.33.02.5.02,2.87,0,5.74,0,8.61.01,0,2.01,0,4.03,0,6.04-.32.15-.68.08-1.02.21-1.42.55-2.36,1.51-2.7,3.02-.06.03-.11.07-.03.14-.11,1.25.02,2.39,1.14,3.22.35.26.49.65.35,1.14-.09.3-.2.59-.27.9-.2.84-.42,1.66-.64,2.49-.16.61-.35,1.22-.5,1.83-.15.61-.11,1.23-.13,1.85-.01.31.07.42.4.41,1.14-.02,2.27,0,3.41,0Z"/><path class="cls-28" d="m187.83,336.07c-1,.06-2,.04-3,.01,0-2.7-.02-5.41.02-8.11.02-1.25.19-2.49.55-3.71.44-1.46,1.06-2.83,1.9-4.1,1.05-1.58,2.35-2.94,3.9-4.05,1.02-.73,2.09-1.38,3.27-1.78,1.17-.41,2.35-.81,3.61-.9.71-.05,1.41-.16,2.12-.14,1.77.03,3.47.38,5.13,1,1.65.62,3.14,1.52,4.5,2.65,1.17.97,2.13,2.12,2.94,3.4.58.9,1.03,1.86,1.42,2.87.21.55.36,1.12.55,1.68.17.51.21,1.06.27,1.6.35,3.19.08,6.39.17,9.58-1,.04-2,.05-3,0,0-2.28-.02-4.57.01-6.85.02-1.31-.15-2.6-.47-3.87-.45-1.78-1.28-3.39-2.48-4.76-1.47-1.68-3.26-2.95-5.42-3.64-1.53-.49-3.08-.64-4.69-.54-1.49.09-2.89.44-4.22,1.06-2.21,1.03-3.95,2.61-5.24,4.69-1.11,1.79-1.72,3.76-1.8,5.84-.1,2.69-.02,5.38-.02,8.08Z"/><path class="cls-16" d="m209.11,336.08c0-2.42.02-4.85,0-7.27-.01-1.29-.19-2.56-.71-3.76-.41-.95-.96-1.81-1.64-2.6-1.01-1.18-2.27-1.99-3.7-2.51-1.32-.48-2.7-.64-4.13-.46-.87.11-1.71.31-2.49.65-2.18.95-3.78,2.51-4.77,4.69-.46,1.02-.65,2.09-.7,3.2-.13,2.69-.02,5.38-.06,8.06-1.02.02-2.04.04-3.06-.01,0-2.69-.08-5.39.02-8.08.08-2.08.68-4.05,1.8-5.84,1.29-2.08,3.03-3.66,5.24-4.69,1.33-.62,2.73-.97,4.22-1.06,1.61-.09,3.16.06,4.69.54,2.16.69,3.94,1.95,5.42,3.64,1.2,1.38,2.03,2.98,2.48,4.76.32,1.27.49,2.55.47,3.87-.03,2.28-.01,4.57-.01,6.85-1.02.05-2.04.04-3.07,0Z"/><path class="cls-24" d="m200,357.37c-1.14,0-2.27-.02-3.41,0-.33,0-.41-.1-.4-.41.02-.62-.01-1.25.13-1.85.15-.62.34-1.22.5-1.83.22-.83.44-1.66.64-2.49.07-.31.18-.6.27-.9.14-.49,0-.88-.35-1.14-1.12-.83-1.25-1.97-1.14-3.22.06-.03.06-.08.03-.14.34-1.51,1.28-2.47,2.7-3.02.34-.13.7-.05,1.02-.21.15.02.31.04.46.07.03.08.07.12.14.03.08.02.16.04.24.05.04.11.14.08.22.08,1.58.51,2.98,2.5,2.68,4.16-.14.79-.4,1.48-.99,2.03-.36.33-.78.65-.56,1.25.14.39.25.78.36,1.18.38,1.48.81,2.94,1.17,4.43.13.55.09,1.14.08,1.71,0,.25-.17.21-.32.21-1.16,0-2.32,0-3.48.01Z"/><path class="cls-16" d="m201.07,342.39c-.09,0-.18.03-.22-.08.1-.05.17,0,.22.08Z"/><path class="cls-16" d="m200.6,342.25c-.07.09-.11.05-.14-.03.06-.03.1-.02.14.03Z"/><path class="cls-28" d="m196.28,345.38c.03.06.03.1-.03.14-.08-.07-.03-.1.03-.14Z"/><circle class="cls-3" cx="200.13" cy="339.91" r="39.02"/><line class="cls-5" x1="199.75" y1="116.5" x2="200.25" y2="149.27"/><line class="cls-4" x1="199.75" y1="116.5" x2="200.09" y2="138.51"/><polygon class="cls-37" points="192.57 136.44 200.25 149.27 207.53 136.21 192.57 136.44"/><line class="cls-5" x1="112.18" y1="112.23" x2="160.82" y2="151.54"/><line class="cls-4" x1="112.18" y1="112.23" x2="152.45" y2="144.77"/><polygon class="cls-37" points="146.05 149.21 160.82 151.54 155.45 137.58 146.05 149.21"/><line class="cls-5" x1="287.82" y1="112.23" x2="239.18" y2="151.54"/><line class="cls-4" x1="287.82" y1="112.23" x2="247.55" y2="144.77"/><polygon class="cls-37" points="244.55 137.58 239.18 151.54 253.95 149.21 244.55 137.58"/><line class="cls-5" x1="199.75" y1="255.5" x2="200.25" y2="288.27"/><line class="cls-4" x1="199.75" y1="255.5" x2="200.09" y2="277.51"/><polygon class="cls-37" points="192.57 275.44 200.25 288.27 207.53 275.21 192.57 275.44"/><line class="cls-5" x1="112.18" y1="290.54" x2="160.82" y2="251.23"/><line class="cls-4" x1="120.55" y1="283.77" x2="160.82" y2="251.23"/><polygon class="cls-37" points="117.55 276.58 112.18 290.54 126.95 288.21 117.55 276.58"/><line class="cls-5" x1="287.82" y1="290.54" x2="239.18" y2="251.23"/><line class="cls-4" x1="279.45" y1="283.77" x2="239.18" y2="251.23"/><polygon class="cls-37" points="273.05 288.21 287.82 290.54 282.45 276.58 273.05 288.21"/><path class="cls-12" d="m315.23,89.92c1.21-.1,2.42,0,3.6.3,2.05.71,3.49,2.54,3.7,4.7,0,.5-.2.5-.5.5h-18.9c-.5,0-.6-.2-.5-.6.33-2.74,2.62-4.82,5.37-4.9h7.23Z"/><path class="cls-33" d="m315.23,89.92h-5.4c.2-1,.5-1.9.7-2.8,1.36.2,2.74.2,4.1,0,.19.94.42,1.88.7,2.8h-.1Z"/><path class="cls-14" d="m308.93,46.31c-.5,0-.9-.4-.9-.9,0-.5.4-.9.9-.9.5,0,.9.4.9.9h0c0,.5-.4.9-.9.9Z"/><path class="cls-14" d="m312.53,44.51c.5,0,.9.4.9.9,0,.5-.4.9-.9.9-.5,0-.9-.4-.9-.9h0c0-.5.4-.9.9-.9Z"/><path class="cls-14" d="m317,45.41c0,.48-.33.9-.8,1-.49.06-.93-.28-1-.77,0-.01,0-.02,0-.03v-.2c0-.5.4-.9.9-.9h0c.5,0,.9.4.9.9Z"/><path class="cls-32" d="m322.53,72.61c-.55,5.5-5.45,9.5-10.95,8.95-4.73-.48-8.48-4.22-8.95-8.95h19.9Zm-6.2,6.1c.11.01.22-.02.3-.1.93-.6,1.69-1.42,2.2-2.4.17-.39.05-.85-.3-1.1h0c-.36-.28-.88-.21-1.16.15-.01.02-.02.03-.04.05-.46.69-1.03,1.3-1.7,1.8-.31.24-.39.66-.2,1,.1.4.4.5,1,.6h-.1Zm-3.2-.7h-.7c-.5.07-.84.54-.77,1.03.06.4.37.71.77.77h0c.47.02.94-.02,1.4-.1.35-.11.59-.43.6-.8.03-.35-.17-.67-.5-.8-.23-.05-.47-.05-.7,0l-.1-.1Z"/><path class="cls-29" d="m316.33,78.71c-.43.04-.83-.21-1-.6-.15-.34-.07-.74.2-1,.67-.5,1.24-1.11,1.7-1.8.25-.38.77-.49,1.15-.24.02.01.03.02.05.04.41.2.59.69.4,1.1h0c-.51.98-1.27,1.8-2.2,2.4-.09.05-.2.08-.3.1Z"/><path class="cls-29" d="m313.13,78.11h.7c.29.17.48.47.5.8.03.38-.23.72-.6.8-.44.19-.93.22-1.4.1-.45,0-.81-.38-.8-.84,0-.02,0-.04,0-.06h0c-.04-.45.29-.85.74-.9.02,0,.04,0,.06,0h.7l.1.1Z"/><path d="m280.63,37.11c-.66-.55-.75-1.54-.2-2.2.55-.66,1.54-.75,2.2-.2h0c.66.55.75,1.54.2,2.2-.58.61-1.52.7-2.2.2Zm1.9,1.2l1.6-2,6.6,5.4-1.6,2-6.6-5.4Z"/><path d="m288.53,37.61c-1.58-1.82-1.39-4.58.44-6.16.05-.05.11-.09.16-.14,1.23-1.01,2.91-1.27,4.4-.7l-.9,2.4c-.63-.3-1.39-.18-1.9.3-.79.56-.98,1.65-.43,2.44.07.09.14.18.23.26.66.83,1.87.97,2.7.31.55-.43.81-1.13.7-1.81l2.5-.4c.29,1.56-.33,3.15-1.6,4.1-1.89,1.58-4.69,1.32-6.27-.56-.01-.01-.02-.03-.03-.04Z"/><path d="m299,25.51l1.3,2.6c-1.09.2-1.8,1.25-1.6,2.33.04.2.1.39.2.57l1.7,3.4-2.3,1.1-3.7-7.6,2.3-1.1.7,1.4c-.14-1.11.47-2.17,1.5-2.6l-.1-.1Z"/><path d="m301.73,29.01c-.52-2.42.99-4.82,3.4-5.4,2.4-.57,4.8.9,5.38,3.3,0,.03.02.07.02.1.55,2.43-.97,4.85-3.4,5.4s-4.85-.97-5.4-3.4Zm6.3-1.4c-.15-1-1.09-1.7-2.1-1.54-.07.01-.14.02-.2.04-1.05.21-1.74,1.23-1.53,2.28,0,.04.02.08.03.12.15,1,1.09,1.7,2.1,1.54.07-.01.14-.02.2-.04,1.05-.22,1.72-1.25,1.49-2.3,0-.03-.01-.07-.02-.1h.03Z"/><path d="m321.63,27.92c-.12,2.37-2.13,4.2-4.5,4.1-.95-.05-1.84-.53-2.4-1.3l-.4,4.2-2.5-.2,1.1-11.8,2.5.2v.8c.65-.66,1.59-.96,2.5-.8,2.31.31,3.93,2.43,3.62,4.74,0,.05-.02.11-.02.16l.1-.1Zm-2.5-.2c.17-1.09-.58-2.11-1.67-2.28-.04,0-.09-.01-.13-.02-1.05-.15-2.02.57-2.18,1.62-.01.09-.02.19-.02.28-.17,1.09.58,2.11,1.67,2.28.04,0,.09.01.13.02,1.05.15,2.02-.57,2.18-1.62.01-.1.02-.19.02-.29h0Z"/><path d="m331.33,30.81l-2.1,4.8-2.3-1,1.9-4.5c.38-.66.14-1.51-.52-1.88-.09-.05-.18-.09-.28-.12-.7-.38-1.57-.12-1.95.58-.07.13-.12.27-.15.42l-1.8,4.3-2.3-1,4.7-10.9,2.3,1-1.6,3.9c.82-.4,1.78-.4,2.6,0,1.6.7,2.4,2.4,1.5,4.5v-.1Z"/><path d="m332.53,32.61c1.59-1.88,4.39-2.11,6.27-.52,0,0,.02.02.03.02,1.87,1.52,2.16,4.26.64,6.13-.05.06-.09.11-.14.17-1.59,1.88-4.39,2.11-6.27.52,0,0-.02-.02-.03-.02-1.87-1.52-2.16-4.26-.64-6.13.05-.06.09-.11.14-.17Zm4.9,4.2c.73-.73.72-1.91,0-2.63-.06-.06-.13-.12-.2-.17-.77-.7-1.96-.65-2.66.12-.05.06-.1.12-.14.18-.73.73-.72,1.91,0,2.63.06.06.13.12.2.17.77.7,1.96.65,2.66-.12.05-.06.1-.12.14-.18Z"/><circle class="cls-2" cx="312.53" cy="59.31" r="45"/><path class="cls-27" d="m302.53,59.92v-7.5c.31-5.51,5.04-9.73,10.55-9.42,4.39.25,8.11,3.34,9.15,7.62.12.63.19,1.26.2,1.9v7.5h-20l.1-.1Zm6.3-13.6c.5,0,.9-.4.9-.9h0c0-.5-.4-.9-.9-.9-.5,0-.9.4-.9.9s.4.9.9.9h0Zm3.6-1.8c-.5,0-.9.4-.9.9,0,.5.4.9.9.9.5,0,.9-.4.9-.9h0c0-.5-.4-.9-.9-.9Zm4.6,1c0-.5-.4-.9-.9-.9h0c-.5,0-.91.4-.92.9,0,.43.3.81.72.9h.2c.45.04.85-.29.9-.74,0-.02,0-.04,0-.06v-.1Zm-11.8,2.7c-.5,0-.9.4-.9.9,0,.5.4.9.9.9.5,0,.9-.4.9-.9h0c0-.5-.4-.9-.9-.9Zm4.6.9c0-.5-.4-.9-.9-.9-.5,0-.9.4-.9.9s.4.9.9.9h0c.45.04.85-.29.9-.74,0-.02,0-.04,0-.06h0v-.1Zm2.7-.9c-.5,0-.9.4-.9.9,0,.5.4.9.9.9.5,0,.9-.4.9-.9h0c0-.5-.4-.9-.9-.9Zm4.6.9c0-.5-.4-.9-.9-.9-.5,0-.9.4-.9.9s.4.9.9.9h0c.45.04.85-.29.9-.74,0-.02,0-.04,0-.06h0v-.1Zm2.7-.9c-.5,0-.9.4-.9.9,0,.5.4.9.9.9.5,0,.9-.4.9-.9h0c0-.5-.4-.9-.9-.9Zm-13.6,4.5c.04-.45-.29-.85-.74-.9-.02,0-.04,0-.06,0h0c-.55-.06-1.04.35-1.09.89-.06.55.35,1.04.89,1.09.55.06,1.04-.35,1.09-.89,0-.03,0-.06,0-.09h0l-.1-.1Zm7.3,3.6c0-.5-.4-.9-.9-.9-.5,0-.9.4-.9.9s.4.9.9.9h0c.46.01.86-.34.9-.8v-.1Zm2.7-.9c-.5,0-.9.4-.9.9,0,.5.4.9.9.9.5,0,.9-.4.9-.9h0c0-.5-.4-.9-.9-.9Zm4.5,1c0-.5-.4-.9-.9-.9-.5,0-.9.4-.9.9s.4.9.9.9h0c.48,0,.9-.33,1-.8h0l-.1-.1Zm-15.4-.9c-.5,0-.9.4-.9.9,0,.5.4.9.9.9.5,0,.9-.4.9-.9h0c0-.5-.4-.9-.9-.9Zm14.5-1.8c.5,0,.9-.4.9-.9,0-.5-.4-.9-.9-.9-.5,0-.9.4-.9.9h0c0,.5.4.9.9.9Zm-2.7-.9c.06-.55-.35-1.04-.89-1.09-.55-.06-1.04.35-1.1.9-.06.55.35,1.04.9,1.09.03,0,.06,0,.09,0h0c.45.04.85-.29.9-.74,0-.02,0-.04,0-.06h0l.1-.1Zm-4.6-.9c-.5,0-.9.4-.9.9,0,.5.4.9.9.9.5,0,.9-.4.9-.9h0c0-.5-.4-.9-.9-.9Zm-2.7.9c0-.5-.4-.9-.9-.9-.5,0-.9.4-.9.9s.4.9.9.9h0c.45.04.85-.29.9-.74,0-.02,0-.04,0-.06h0v-.1Zm0,3.6c0-.5-.4-.9-.9-.9-.5,0-.9.4-.9.9s.4.9.9.9h0c.48,0,.9-.33,1-.8h0l-.1-.1Z"/><path class="cls-12" d="m302.53,59.92h20.9c1.1,0,.9-.1.9.9v3.6h-23.6v-3.6c0-1-.1-.9.9-.9h.9Z"/><path class="cls-8" d="m327,64.41v8.1c-.01,6.7-4.6,12.52-11.1,14.1-.5.1-1,.2-1.4.3-1.36.2-2.74.2-4.1,0-1.59-.29-3.14-.79-4.6-1.5-4.01-2.07-6.85-5.87-7.7-10.3-.16-.86-.23-1.73-.2-2.6v-8.1h1.8v8.51c0,.81.1,1.62.3,2.4,1.53,6.81,8.28,11.1,15.1,9.6,2.76-.59,5.23-2.11,7-4.3,1.79-2.02,2.82-4.6,2.9-7.3.1-3,0-6,0-9h1.8l.2.09Z"/><path class="cls-6" d="m292.23,49.92c.02-2.44.86-4.8,2.4-6.7.5-.6,1-.7,1.4-.3.38.39.38,1.01,0,1.4-2.7,3.25-2.7,7.95,0,11.2.4.6.4,1.1,0,1.4-.42.27-.98.18-1.3-.2h0c-1.58-1.91-2.43-4.32-2.4-6.8h-.1Z"/><path class="cls-31" d="m332.83,49.92c-.01,2.47-.86,4.87-2.4,6.8-.26.45-.83.63-1.3.4h0c-.5-.3-.5-.9,0-1.4,2.7-3.25,2.7-7.95,0-11.2-.5-.6-.5-1.1,0-1.4.4-.32.99-.25,1.31.15.04.05.07.09.09.15,1.58,1.91,2.43,4.32,2.4,6.8l-.1-.3Z"/><path class="cls-31" d="m299,44.51c.32,0,.59.2.7.5.2.3.2.7,0,1-1.75,2.21-1.83,5.3-.2,7.6.05.11.12.21.2.3.37.34.4.93.05,1.3s-.93.4-1.3.05c-.02-.02-.04-.03-.05-.05l-.1-.2c-.79-1.03-1.34-2.23-1.6-3.5-.42-2.28.12-4.63,1.5-6.5.18-.32.54-.49.9-.4l-.1-.1Z"/><path class="cls-31" d="m328.63,50.41c-.05,1.62-.65,3.17-1.7,4.4-.25.41-.79.55-1.2.3-.41-.25-.55-.79-.3-1.2,0-.08.04-.15.1-.2,1.8-2.29,1.8-5.51,0-7.8-.35-.36-.35-.94,0-1.3h.1c.46-.31,1.08-.18,1.39.28,0,0,0,.01.01.02,1.18,1.54,1.79,3.46,1.7,5.4l-.1.1Z"/><path class="cls-12" d="m297,64.41v.3c0,.4,0,.6-.6.6h-2.6c-.9,0-.5,0-.5-.4v-4.6c0-.4.2-.4.5-.4h2.5c.5,0,.7.1.6.6v3.9h.1Z"/><path class="cls-12" d="m327.93,60.81v-.3c0-.4.1-.6.6-.6h2.6c.9,0,.5,0,.5.4v4.61c0,.4-.2.4-.5.4h-2.5c-.5,0-.7-.1-.6-.6v-3.9h-.1Z"/><path class="cls-1" d="m297,64.41v-3.6h3.6v3.6h-3.6Z"/><path class="cls-1" d="m327.93,60.81v3.6h-3.6v-3.6h3.6Z"/><path class="cls-14" d="m305.23,48.11c.5,0,.9.4.9.9,0,.5-.4.9-.9.9-.5,0-.9-.4-.9-.9h0c0-.5.4-.9.9-.9Z"/><path class="cls-14" d="m309.83,49.01c0,.5-.4.9-.9.9-.5,0-.9-.4-.9-.9s.4-.9.9-.9h0c.5,0,.9.4.9.9Z"/><path class="cls-14" d="m312.53,48.11c.5,0,.9.4.9.9,0,.5-.4.9-.9.9-.5,0-.9-.4-.9-.9h0c0-.5.4-.9.9-.9Z"/><path class="cls-14" d="m317,49.01c0,.5-.4.9-.9.9-.5,0-.9-.4-.9-.9s.4-.9.9-.9h0c.5,0,.9.4.9.9Z"/><path class="cls-14" d="m319.73,48.11c.5,0,.9.4.9.9,0,.5-.4.9-.9.9-.5,0-.9-.4-.9-.9h0c0-.5.4-.9.9-.9Z"/><path class="cls-14" d="m306.13,52.71c0,.5-.4.9-.9.9-.5,0-.9-.4-.9-.9s.4-.9.9-.9h0c.5,0,.9.4.9.9Z"/><path class="cls-14" d="m313.43,56.21c0,.5-.4.9-.9.9-.5,0-.9-.4-.9-.9s.4-.9.9-.9h0c.5,0,.9.4.9.9Z"/><path class="cls-14" d="m316.13,55.41c.5,0,.9.4.9.9,0,.5-.4.9-.9.9-.5,0-.9-.4-.9-.9h0c0-.5.4-.9.9-.9Z"/><path class="cls-14" d="m320.73,56.31c0,.5-.4.9-.9.9-.5,0-.9-.4-.9-.9s.4-.9.9-.9h0c.5,0,.9.4.9.9Z"/><path class="cls-14" d="m305.23,55.41c.5,0,.9.4.9.9,0,.5-.4.9-.9.9-.5,0-.9-.4-.9-.9h0c0-.5.4-.9.9-.9Z"/><path class="cls-14" d="m319.73,53.51c-.5-.06-.85-.5-.8-1,0-.4.4-.7.8-.8.49-.1.97.21,1.08.7s-.21.97-.7,1.08c-.06.01-.12.02-.18.02h-.2Z"/><path class="cls-14" d="m317,52.61c0,.5-.4.9-.9.9-.5,0-.9-.4-.9-.9s.4-.9.9-.9h0c.5,0,.9.4.9.9Z"/><path class="cls-14" d="m312.53,51.71c.5,0,.9.4.9.9,0,.5-.4.9-.9.9-.5,0-.9-.4-.9-.9h0c0-.5.4-.9.9-.9Z"/><path class="cls-14" d="m309.83,52.61c0,.5-.4.9-.9.9-.5,0-.9-.4-.9-.9s.4-.9.9-.9h0c.5,0,.9.4.9.9Z"/><path class="cls-14" d="m309.83,56.31c0,.5-.4.9-.9.9h0c-.53.14-1.08-.17-1.22-.71-.14-.53.17-1.08.71-1.22.2-.05.42-.04.62.03.5,0,.9.4.9.9l-.1.1Z"/><path class="cls-25" d="m302.53,66.21v-1.8h19.9v1.8h-19.9Z"/><path class="cls-12" d="m322.53,72.61h-19.9v-4.6h19.9v4.6Z"/><path class="cls-30" d="m322.53,68.11h-19.9v-1.8h19.9v1.8Z"/><path d="m288,44.41l-1.1,2.5-6.4-2.7,3.4,4.8v.3c-.1,0-6,.8-6,.8l6.4,2.7-1.1,2.5-10.9-4.7,1.1-2.5,6.1-.9-3.6-5.1,1.1-2.5,10.9,4.7.1.1Z"/><path d="m345.83,46.31l-4.4,2.8-1.43-2.19,4.1-2.6c.69-.32.99-1.15.66-1.84-.04-.09-.1-.18-.16-.26-.41-.73-1.33-.98-2.06-.57-.09.05-.17.11-.24.17l-3.9,2.5-1.4-2.2,7.2-4.5,1.4,2.2-.7.4c.93.11,1.75.67,2.2,1.5.9,1.5.7,3.3-1.3,4.6h.03Z"/><path d="m344.93,53.61c.13.61.53,1.13,1.1,1.4l-.6,2.3c-1.33-.56-2.32-1.71-2.7-3.1-.83-2.22.29-4.69,2.51-5.52.19-.07.39-.13.59-.18,2.37-.64,4.81.78,5.45,3.15.64,2.37-.78,4.81-3.15,5.45h0c-.3,0-.7.2-1,.2l-1.6-5.8c-.74.51-.99,1.49-.6,2.3v-.2Zm3.4.7c.75-.41,1.09-1.3.8-2.1-.19-.83-.94-1.42-1.8-1.4l1,3.5Z"/><path class="cls-26" d="m210.5,87.41h1.5v2.6c0,.3,0,.4-.4.4q-1.2,0-1.2-1.1v-1.9h.1Z"/><path class="cls-20" d="m206.5,87.41h1.5v2.6c0,.3,0,.5-.5.5q-1.1,0-1.1-1.1v-1.9l.1-.1Z"/><path class="cls-20" d="m214.5,87.41h1.5v2.6c0,.3,0,.4-.4.4q-1.2,0-1.2-1.1v-1.9h.1Z"/><path class="cls-20" d="m216.5,79.11v-1.5h2.5c.3,0,.4.1.4.4,0,1.4.2,1.1-1.1,1.1h-1.8Z"/><path class="cls-20" d="m216.5,75.11v-1.5h2.5c.3,0,.4.1.4.4,0,1.4.2,1.1-1.1,1.1h-1.8Z"/><path class="cls-20" d="m216.5,83.11v-1.5h2.5c.3,0,.4.1.4.5q0,1.1-1.1,1.1h-1.8v-.1Z"/><path class="cls-38" d="m182.6,87.41h1.5v2.7c0,.2,0,.4-.3.4q-1.2,0-1.2-1.1v-2h0Z"/><path class="cls-38" d="m186.6,87.41h1.5v2.7c0,.2,0,.4-.3.4q-1.2,0-1.2-1.1v-2h0Z"/><path class="cls-38" d="m194.6,87.41h1.5v2.6c0,.3,0,.4-.4.4q-1.1,0-1.1-1.1v-1.9Z"/><path class="cls-20" d="m198.5,87.41h1.5v2.6c0,.3,0,.4-.4.4q-1.1,0-1.1-1.1v-1.9Z"/><path class="cls-20" d="m202.5,87.41h1.5v2.7c0,.3,0,.4-.4.4q-1.1,0-1.1-1.1v-2h0Z"/><path class="cls-38" d="m190.6,87.41h1.5v2.6c0,.3,0,.4-.4.4q-1.1,0-1.1-1.1v-1.9Z"/><path class="cls-20" d="m216.5,87.11v-1.5h2.5c.3,0,.4,0,.4.4q0,1.1-1.1,1.1h-1.8Z"/><path class="cls-20" d="m181.5,73.61v1.5h-1.9c-.2,0-.4,0-.4-.3q0-1.2,1.2-1.2h1.1,0Z"/><path class="cls-20" d="m181.5,77.61v1.5h-1.9c-.2,0-.4,0-.4-.3q0-1.2,1.2-1.2h1.1,0Z"/><path class="cls-20" d="m181.5,81.61v1.5h-1.9c-.2,0-.4,0-.4-.3q0-1.2,1.1-1.2h1.2Z"/><path class="cls-20" d="m181.6,85.92v1.2h-2c-.2,0-.3,0-.4-.3q0-1.2,1.1-1.2h1.2v.3h.1Z"/><path class="cls-18" d="m201.9,77.01h1.5v3.4c0,.3,0,.4-.4.4q-1.1,0-1.1-1.1v-2.7Z"/><path class="cls-35" d="m198.2,77.01h1.5v3.4c0,.3,0,.4-.4.4q-1.1,0-1.1-1.1v-2.7Z"/><path class="cls-18" d="m194.5,77.01h1.5v3.4c0,.3,0,.4-.4.4q-1.1,0-1.1-1.1v-2.7Z"/><path class="cls-11" d="m191.9,73.31v1.5h-3.1c-.3,0-.4,0-.4-.4q0-1.1,1.1-1.1h2.4Z"/><path class="cls-11" d="m206.1,74.81v-1.5h2.9c.3,0,.4,0,.4.4q0,1.1-1.1,1.1h-2.2Z"/><path d="m175.2,36.31c-2.05-3.07-1.23-7.23,1.85-9.28.12-.08.23-.15.35-.22,1.95-1.27,4.41-1.42,6.5-.4l-1.4,2.7c-1.11-.58-2.46-.51-3.5.2-1.91,1.11-2.56,3.56-1.45,5.47,1.11,1.91,3.56,2.56,5.47,1.45,1.16-.67,1.91-1.88,1.99-3.22h3c-.05,2.26-1.26,4.34-3.2,5.5-3.1,2.05-7.28,1.19-9.32-1.92-.06-.09-.12-.19-.18-.28h-.1Z"/><path d="m197.9,28.11l1.1,5.7-2.8.5-1-5.3c-.02-.82-.7-1.48-1.52-1.46-.13,0-.25.02-.38.06-.94.13-1.59.99-1.46,1.93.01.09.03.18.06.27l.9,5.1-2.8.5-2.4-13.1,2.8-.5.9,4.6c.51-.92,1.45-1.52,2.5-1.6,1.9-.4,3.7.7,4.2,3.2l-.1.1Z"/><path d="m200.7,24.61l2.8.2-.5,9.5-2.8-.2.5-9.5Zm-.1-2.6c.06-.94.86-1.65,1.8-1.59.94.06,1.65.86,1.59,1.8-.06.93-.86,1.65-1.79,1.59-.93-.05-1.65-.84-1.6-1.77,0,0,0-.02,0-.03h0Z"/><path d="m215.6,32.61c-.62,2.52-3.16,4.05-5.68,3.43-.04-.01-.08-.02-.12-.03-1.05-.29-1.93-1.02-2.4-2l-1.4,4.5-2.7-.9,4-12.7,2.7.9-.3.9c.91-.51,2-.62,3-.3,2.42.83,3.71,3.46,2.88,5.88-.03.07-.05.15-.08.22l.1.1Zm-2.7-.9c.44-1.12-.11-2.37-1.23-2.81-.09-.03-.18-.06-.27-.09-1.09-.41-2.31.14-2.72,1.23-.03.09-.06.18-.08.27-.44,1.12.11,2.37,1.23,2.81.09.03.18.06.27.09,1.17.41,2.45-.2,2.86-1.37.02-.04.03-.09.04-.13h-.1Z"/><path d="m222.2,39.51c-1.2,1.8-3.3,1.5-5,.3-1.48-.85-2.3-2.51-2.1-4.2l2.8.3c-.24.69.06,1.45.7,1.8.6.4,1,.4,1.2.1.6-.9-3.5-3.1-1.7-5.8,1.2-1.7,3.2-1.6,4.8-.4,1.28.82,2.01,2.28,1.9,3.8l-2.7-.3c0-.6,0-1.1-.6-1.4-.4-.3-.8-.3-1,0-.6.9,3.6,3,1.6,5.9l.1-.1Z"/><circle class="cls-2" cx="200" cy="59.31" r="45"/><path class="cls-9" d="m178.4,92.01l-1.8-1.8c-.2-.18-.31-.43-.3-.7v-38.2c-.04-.33.07-.66.3-.9.9-1,1.9-1.9,2.8-2.9.15-.18.37-.29.6-.3h37.8c.2,0,.4,0,.5.2l1.8,1.8v38.71c.02.35-.13.68-.4.9-.8.8-1.6,1.7-2.4,2.5-.25.3-.61.48-1,.5h-37.4c-.21-.02-.41.02-.6.1l.1.09Zm13.7-4.5h2.5v1.9q0,1.1,1.1,1.1c.3,0,.4-.1.4-.4v-2.6h2.5v1.9q0,1.1,1.1,1.1c.3,0,.4-.1.4-.4v-2.6h2.5v1.9q0,1.1,1.1,1.1c.3,0,.4,0,.4-.4v-2.7h2.5v2q0,1.1,1.1,1.1c.4,0,.5-.1.5-.5v-2.6h2.5v1.9q0,1.2,1.2,1.1c.3,0,.4-.1.4-.4v-2.6h2.5v1.9q0,1.2,1.2,1.1c.3,0,.4,0,.4-.4v-2.6c.2,0,.4,0,.4-.3h1.8q1.1,0,1.1-1.1c0-.3-.1-.4-.4-.4h-2.5v-2.5h1.8q1.1,0,1.1-1.1c0-1.1-.1-.5-.4-.5h-2.5v-2.5h1.8c1.3,0,1.1.2,1.1-1.1,0-.3,0-.4-.4-.4h-2.5v-2.5h1.8c1.3,0,1.1.2,1.1-1.1,0-.3-.1-.4-.4-.4h-2.5v-2.5h1.8c1.3,0,1.1.2,1.1-1.1,0-.3-.1-.4-.4-.4h-2.5v-2.5h1.8q1.2,0,1.1-1.2c0-.3-.1-.3-.4-.3h-2.6v-2.5h1.8q1.2,0,1.1-1.2c0-.3-.1-.3-.4-.3h-2.6v-2.5h1.8q1.2,0,1.1-1.2c0-.3-.1-.3-.4-.3h-2.6v-2.5h1.8q1.2,0,1.1-1.2c0-.3-.1-.3-.4-.3h-2.6c0-.3-.1-.4-.4-.4v-1.8q0-1.2-1.2-1.1c-.3,0-.3.1-.3.4v2.6h-2.5v-1.8q0-1.2-1.2-1.1c-.3,0-.3.1-.3.4v2.6h-2.5v-1.8q0-1.2-1.2-1.1c-.3,0-.3.1-.3.4v2.6h-2.5v-1.8q0-1.2-1.2-1.1c-.3,0-.3.1-.3.4v2.6h-2.5v-1.8q0-1.2-1.2-1.1c-.3,0-.3.1-.3.4v2.6h-2.5v-1.9q0-1.2-1.2-1.1c-.3,0-.3.1-.3.4v2.6h-2.5v-1.9q0-1.2-1.2-1.1c-.3,0-.3.1-.3.4v2.6h-2.5v-1.9c0-1.2,0-1.1-1.2-1.1-.3,0-.3.1-.3.4v2.6h-2.5v-1.9c0-1.2,0-1.1-1.2-1.1-.3,0-.3.1-.3.4v2.6h-.6c-.3,0-.4,0-.4.4h-1.2q-1.2,0-1.1,1.2c-.02.15.09.28.24.3.02,0,.04,0,.06,0h2v2.5h-1.2q-1.2,0-1.1,1.2c-.02.15.09.28.24.3.02,0,.04,0,.06,0h2v2.5h-1.2q-1.2,0-1.1,1.2c-.02.15.09.28.24.3.02,0,.04,0,.06,0h2v2.5h-1.2q-1.2,0-1.1,1.2c0,.3.1.3.3.3h2v2.5h-1.2q-1.2,0-1.2,1.2c0,.2,0,.3.3.3h2v2.5h-1.2q-1.2,0-1.2,1.2c0,.3.1.3.4.3h1.9v2.5h-1.2q-1.2,0-1.2,1.2c0,.3.1.3.4.3h1.9v2.5h-1.2q-1.2,0-1.1,1.2c0,.3.1.3.4.3h1.9v2.5h-1.2q-1.2,0-1.1,1.2c0,.3.1.3.4.3h1.9c0,.2,0,.3.3.3h.7v1.9q0,1.2,1.2,1.1c.3,0,.3-.1.3-.4v-2.7h2.5v1.9q0,1.2,1.2,1.1c.3,0,.3-.1.3-.4v-2.7h2.5v1.9q0,1.1,1.1,1.1c.3,0,.4-.1.4-.4v-2.6l.4-.1Z"/><path class="cls-10" d="m178.4,92.01c.2-.2.4-.1.6-.1h37.4c.39,0,.77-.18,1-.5.8-.9,1.6-1.7,2.4-2.5.27-.22.42-.55.4-.9v-38.7c.5.4.9.9,1.4,1.3.2.2.1.4.1.6v38.4c.04.3-.07.6-.3.8-.9.9-1.8,1.9-2.6,2.8-.15.18-.37.29-.6.3h-38c-.22.03-.44-.05-.6-.2-.39-.37-.76-.78-1.1-1.2l-.1-.1Z"/><path class="cls-11" d="m212.1,53.21h2.9v8.71c.13,3.73.07,7.47-.2,11.2-.16,1.7-.53,3.38-1.1,5-.22.64-.52,1.24-.9,1.8v-21.6c0-.5.2-1.1,0-1.3s-.9,0-1.4,0h-25.5c-.4,0-.5.1-.5.5v25.8c0,.4.1.5.5.5h23.1c-.5.2-.9.5-1.4.7-2.51,1-5.2,1.51-7.9,1.5h-18v-32.3c0-.3,0-.4.4-.4h30.1l-.1-.11Z"/><path class="cls-15" d="m181.6,85.92h18c2.71.05,5.4-.46,7.9-1.5.5-.2.9-.5,1.4-.7h3.5c.3,0,.4,0,.4-.4v-3.4c.42-.53.72-1.15.9-1.8.61-1.6.98-3.29,1.1-5,.3-3.7.1-7.5.2-11.2v-8.7h1.1c.3,0,.4,0,.4.4v33.5c0,.3-.2.3-.4.3h-34.2c-.2,0-.3,0-.3-.3v-1.2Z"/><path class="cls-20" d="m208.1,53.21h-1.5v-2.6c0-.2,0-.4.3-.4q1.2,0,1.2,1.1v1.9Z"/><path class="cls-26" d="m212.1,53.21h-1.5v-2.6c0-.2,0-.3.3-.4q1.2,0,1.2,1.1v1.9Z"/><path class="cls-20" d="m216.1,53.21h-1.5v-2.6c0-.2,0-.3.3-.4q1.2,0,1.2,1.1v1.9Z"/><path class="cls-20" d="m216.5,71.11v-1.5h2.5c.3,0,.4.1.4.4,0,1.4.2,1.1-1.1,1.1h-1.8Z"/><path class="cls-20" d="m216.5,67.11v-1.5h2.6c.2,0,.3,0,.4.3q0,1.2-1.1,1.2h-1.9Z"/><path class="cls-38" d="m216.5,59.11v-1.5h2.6c.2,0,.3,0,.4.3q0,1.2-1.1,1.2h-1.9Z"/><path class="cls-38" d="m216.5,63.11v-1.5h2.6c.2,0,.3,0,.4.3q0,1.2-1.1,1.2h-1.9Z"/><path class="cls-38" d="m216.5,55.11v-1.5h2.6c.2,0,.3,0,.4.3q0,1.2-1.1,1.2h-1.9Z"/><path class="cls-20" d="m204,53.21h-1.5v-2.6c0-.2,0-.4.3-.4q1.2,0,1.2,1.1v1.9Z"/><path class="cls-38" d="m196,53.21h-1.5v-2.6c0-.2,0-.4.3-.4q1.2,0,1.2,1.1v1.9Z"/><path class="cls-38" d="m200,53.21h-1.5v-2.6c0-.2,0-.3.3-.4q1.2,0,1.2,1.1v1.9Z"/><path class="cls-38" d="m192,53.21h-1.5v-2.6c0-.2,0-.4.3-.4q1.2,0,1.2,1.1v1.9Z"/><path class="cls-13" d="m188,53.21h-1.5v-2.6c0-.2,0-.4.3-.4q1.2,0,1.2,1.1v1.9Z"/><path class="cls-13" d="m184,53.21h-1.5v-2.6c0-.2,0-.4.3-.4q1.2,0,1.2,1.1v1.9Z"/><path class="cls-20" d="m181.5,69.61v1.5c-.67.05-1.33.05-2,0-.2,0-.3,0-.3-.3q0-1.2,1.2-1.2h1.1Z"/><path class="cls-38" d="m181.5,61.61v1.5h-2c-.2,0-.3,0-.3-.3q0-1.2,1.1-1.2h1.2Z"/><path class="cls-38" d="m181.5,57.61v1.5h-2c-.2,0-.3,0-.3-.3q0-1.2,1.1-1.2h1.2Z"/><path class="cls-13" d="m181.5,53.61v1.5h-2c-.2,0-.3,0-.3-.3q0-1.2,1.1-1.2h1.2Z"/><path class="cls-38" d="m181.5,65.61v1.5h-2c-.2,0-.3,0-.3-.3q0-1.2,1.1-1.2h1.2Z"/><path class="cls-13" d="m185.3,82.21v-24.8c0-.4.1-.5.5-.5h25.5v4.5c0,3.2.1,6.5,0,9.7-.05,1.31-.35,2.6-.9,3.8-.67,1.8-1.81,3.39-3.3,4.6-2.34,1.73-5.19,2.65-8.1,2.6h-13.6l-.1.1Zm14.4-5.2h2.2v2.7q0,1.1,1.1,1.1c.3,0,.4-.1.4-.4v-3.4h2.3c.3,0,.4,0,.4-.4v-1.8h2.2q1.1,0,1.1-1.1c0-.3-.1-.4-.4-.4h-2.9v-2.2h2.2q1.1,0,1.1-1.1c0-.3-.1-.4-.4-.4h-2.9v-2.2h2.2q1.1,0,1.1-1.1c0-.3-.1-.4-.4-.4h-2.9v-1.9c0-.3,0-.4-.3-.4h-2.4v-2.6q0-1.1-1.1-1.1c-.3,0-.4,0-.4.4v3.3h-2.2v-2.6q0-1.1-1.1-1.1c-.3,0-.4,0-.4.4v3.3h-2.2v-2.6q0-1.1-1.1-1.1c-.3,0-.4,0-.4.4v3.3h-2.1c-.3,0-.4,0-.4.4v1.91h-2.3q-1.1,0-1.1,1.1c0,.3.1.4.4.4h3.1v2.2h-2.3q-1.1,0-1.1,1.1c0,.3.1.4.4.4h3.1v2.2h-2.3q-1.1,0-1.1,1.1c0,.3.1.4.4.4h3.1v1.9q0,.3.4.3h2.2v2.7q0,1.1,1.1,1.1c.3,0,.4-.1.4-.4v-3.4h2.2v2.7q0,1.1,1.1,1.1c.3,0,.4-.1.4-.4v-3.4h-.4Z"/><path class="cls-17" d="m185.3,82.21h13.6c2.92.09,5.78-.82,8.1-2.6,1.52-1.19,2.66-2.78,3.3-4.6.5-1.21.8-2.49.9-3.8.2-3.2,0-6.5,0-9.7v-4.5c.5,0,1.1-.2,1.4,0s0,.9,0,1.3v25c0,.3,0,.4-.4.4h-26.6c-.4,0-.6,0-.5-.5v-1h.2Z"/><path class="cls-36" d="m191.9,65.92v-1.9c0-.3,0-.4.4-.4h12.2c0,2.4.1,4.8-.1,7.1-.06,1.14-.56,2.22-1.4,3v-6.8c0-.3,0-.5-.4-.4h-7.4q-.3,0-.3.3v6.6c0,.4.1.5.5.5h7.4c-.08.18-.22.32-.4.4-1.05.75-2.31,1.14-3.6,1.1h-6.8v-9.6l-.1.1Z"/><path class="cls-19" d="m192,75.51h6.8c1.29.04,2.55-.35,3.6-1.1.18-.08.32-.22.4-.4.1,0,.2-.2.3-.3.8-.81,1.29-1.87,1.4-3,.2-2.4,0-4.7.1-7.1h1.2c.3,0,.3.1.3.4v12.6c0,.3-.1.4-.4.4h-13.4c-.3,0-.4,0-.4-.3v-1.2h.1Z"/><path class="cls-18" d="m195.9,63.61h-1.5v-3.3c0-.3,0-.4.4-.4q1.1,0,1.1,1.1v2.6Z"/><path class="cls-18" d="m199.7,63.61h-1.5v-3.3c0-.3,0-.4.4-.4q1.1,0,1.1,1.1v2.6Z"/><path class="cls-11" d="m203.4,63.61h-1.5v-3.3c0-.3,0-.4.4-.4q1.1,0,1.1,1.1v2.6Z"/><path class="cls-11" d="m191.9,69.61v1.5h-3.1c-.3,0-.4,0-.4-.4q0-1.1,1.1-1.1h2.4Z"/><path class="cls-18" d="m191.9,65.92v1.5h-3.1c-.3,0-.4,0-.4-.4q0-1.1,1.1-1.1h2.4Z"/><path class="cls-35" d="m206.1,71.11v-1.5h2.9c.3,0,.4,0,.4.4q0,1.1-1.1,1.1h-2.2Z"/><path class="cls-35" d="m206.1,67.41v-1.49h2.9c.3,0,.4,0,.4.4q0,1.1-1.1,1.1h-2.2Z"/><path class="cls-21" d="m194.9,72.61v-5.6q0-.3.3-.3h6.3v3.1c.04.58-.14,1.15-.5,1.6-.61.81-1.59,1.27-2.6,1.2h-3.5Z"/><path class="cls-23" d="m194.9,72.61h3.6c1.01.07,1.99-.39,2.6-1.2.32-.47.49-1.03.5-1.6v-3.1h1.1c.4,0,.4.1.4.4v6.81c0,.1-.2.2-.3.3h-7.4c-.4,0-.6,0-.5-.5v-1.1h0Z"/><line class="cls-7" x1="145.33" y1="203.05" x2="112.55" y2="202.55"/><line class="cls-4" x1="145.33" y1="203.05" x2="123.31" y2="202.71"/><polygon class="cls-37" points="125.61 195.27 112.55 202.55 125.39 210.22 125.61 195.27"/><line class="cls-7" x1="252.55" y1="203.05" x2="285.33" y2="202.55"/><line class="cls-4" x1="252.55" y1="203.05" x2="274.56" y2="202.71"/><polygon class="cls-37" points="272.49 210.22 285.33 202.55 272.26 195.27 272.49 210.22"/><path class="cls-34" d="m218.12,198.48c.56,0,1.12.02,1.68.03.95,0,1.73.78,1.75,1.74.01.88,0,1.76,0,2.63,0,7.43,0,14.85,0,22.28,0,.48-.02.98-.16,1.44-.17.55-.85,1.05-1.43,1.05-6.29,0-12.58,0-18.86,0-.03,0-.06,0-.09-.01,0-1.71,0-3.42,0-5.13,1.31,0,2.62,0,3.93-.01.17,0,.36.04.36-.23.01-.65.06-1.31-.09-1.93-.41-1.67-.89-3.33-1.32-4.99-.12-.45-.24-.9-.4-1.33-.25-.68.22-1.04.63-1.42.68-.62.96-1.4,1.12-2.3.34-1.87-1.24-4.12-3.02-4.69-.06-.1-.14-.15-.25-.09-.09-.02-.18-.04-.27-.06-.04-.06-.09-.07-.16-.04-.17-.02-.35-.05-.52-.07,0-2.27,0-4.54,0-6.81,3.22,0,6.45-.01,9.67-.02.2,0,.4-.02.6-.02,1.15.04,2.31.05,3.46,0,1.13.06,2.26.05,3.39,0Z"/><path class="cls-22" d="m201,222.5c0,1.71,0,3.42,0,5.13-.65,0-1.29.01-1.94.01-5.48,0-10.97-.03-16.45.02-1.44.01-2.19-.77-2.18-2.19.05-8.39.03-16.78,0-25.17,0-1.01.81-1.81,1.77-1.79.56.01,1.12-.01,1.68-.02,1.13.03,2.26.06,3.39-.01,1.15.07,2.3.04,3.45.01.19,0,.37.02.56.02,3.24,0,6.48,0,9.71.01,0,2.27,0,4.54,0,6.81-.36.17-.77.09-1.15.24-1.6.62-2.66,1.7-3.04,3.41-.07.04-.12.08-.03.15-.13,1.41.02,2.7,1.28,3.63.4.29.55.74.39,1.29-.1.34-.23.67-.31,1.01-.22.94-.47,1.88-.72,2.81-.18.69-.4,1.37-.56,2.07-.16.69-.12,1.39-.15,2.09-.01.35.08.47.45.46,1.28-.02,2.56,0,3.84,0Z"/><path class="cls-28" d="m187.27,198.47c-1.13.07-2.26.04-3.39.01,0-3.05-.02-6.1.02-9.15.02-1.41.21-2.81.62-4.18.49-1.65,1.19-3.2,2.14-4.63,1.18-1.79,2.65-3.31,4.4-4.56,1.15-.82,2.36-1.55,3.68-2.01,1.32-.46,2.65-.91,4.07-1.01.8-.06,1.59-.18,2.39-.16,1.99.03,3.92.43,5.78,1.13,1.87.7,3.55,1.72,5.08,2.99,1.32,1.1,2.4,2.4,3.32,3.83.65,1.02,1.17,2.1,1.61,3.23.24.62.41,1.27.62,1.9.2.57.23,1.2.3,1.81.39,3.6.1,7.21.19,10.81-1.13.04-2.26.06-3.39,0,0-2.58-.02-5.15.01-7.73.02-1.48-.17-2.93-.53-4.36-.51-2.01-1.44-3.82-2.8-5.37-1.66-1.9-3.68-3.33-6.11-4.1-1.73-.55-3.48-.72-5.3-.61-1.68.1-3.26.5-4.76,1.2-2.5,1.16-4.46,2.94-5.92,5.29-1.26,2.02-1.94,4.24-2.03,6.59-.11,3.03-.02,6.07-.02,9.11Z"/><path class="cls-16" d="m211.27,198.48c0-2.73.02-5.47,0-8.2-.02-1.45-.22-2.89-.8-4.24-.46-1.07-1.08-2.04-1.85-2.94-1.14-1.33-2.57-2.25-4.18-2.83-1.49-.54-3.05-.72-4.65-.52-.98.12-1.93.35-2.81.73-2.46,1.07-4.27,2.83-5.38,5.29-.52,1.15-.73,2.36-.79,3.61-.15,3.03-.02,6.07-.07,9.1-1.15.02-2.3.05-3.45-.02,0-3.04-.09-6.08.02-9.11.09-2.34.77-4.57,2.03-6.59,1.46-2.34,3.42-4.12,5.92-5.29,1.5-.7,3.08-1.1,4.76-1.2,1.82-.11,3.57.07,5.3.61,2.44.77,4.45,2.2,6.11,4.1,1.36,1.55,2.29,3.36,2.8,5.37.36,1.43.55,2.88.53,4.36-.03,2.58-.01,5.15-.01,7.73-1.15.06-2.31.04-3.46,0Z"/><path class="cls-24" d="m201,222.5c-1.28,0-2.56-.02-3.84,0-.37,0-.46-.11-.45-.46.03-.7-.02-1.41.15-2.09.17-.69.38-1.38.56-2.07.25-.94.5-1.87.72-2.81.08-.34.21-.68.31-1.01.16-.55,0-.99-.39-1.29-1.26-.93-1.41-2.23-1.28-3.63.07-.04.07-.09.03-.15.38-1.7,1.44-2.78,3.04-3.41.38-.15.79-.06,1.15-.24.17.02.35.05.52.07.03.09.08.14.16.04.09.02.18.04.27.06.05.12.15.1.25.09,1.78.57,3.36,2.82,3.02,4.69-.16.9-.45,1.67-1.12,2.3-.41.38-.88.73-.63,1.42.16.43.29.88.4,1.33.43,1.67.91,3.32,1.32,4.99.15.62.1,1.28.09,1.93,0,.28-.19.23-.36.23-1.31,0-2.62,0-3.93.01Z"/><path class="cls-16" d="m202.2,205.6c-.1,0-.2.03-.25-.09.11-.05.19,0,.25.09Z"/><path class="cls-16" d="m201.68,205.45c-.08.1-.12.05-.16-.04.06-.04.12-.02.16.04Z"/><path class="cls-28" d="m196.81,208.97c.04.06.04.12-.03.15-.09-.07-.03-.12.03-.15Z"/><circle class="cls-3" cx="201.15" cy="202.81" r="44.02"/><path class="cls-34" d="m355.12,198.48c.56,0,1.12.02,1.68.03.95,0,1.73.78,1.75,1.74.01.88,0,1.76,0,2.63,0,7.43,0,14.85,0,22.28,0,.48-.02.98-.16,1.44-.17.55-.85,1.05-1.43,1.05-6.29,0-12.58,0-18.86,0-.03,0-.06,0-.09-.01,0-1.71,0-3.42,0-5.13,1.31,0,2.62,0,3.93-.01.17,0,.36.04.36-.23.01-.65.06-1.31-.09-1.93-.41-1.67-.89-3.33-1.32-4.99-.12-.45-.24-.9-.4-1.33-.25-.68.22-1.04.63-1.42.68-.62.96-1.4,1.12-2.3.34-1.87-1.24-4.12-3.02-4.69-.06-.1-.14-.15-.25-.09-.09-.02-.18-.04-.27-.06-.04-.06-.09-.07-.16-.04-.17-.02-.35-.05-.52-.07,0-2.27,0-4.54,0-6.81,3.22,0,6.45-.01,9.67-.02.2,0,.4-.02.6-.02,1.15.04,2.31.05,3.46,0,1.13.06,2.26.05,3.39,0Z"/><path class="cls-22" d="m338,222.5c0,1.71,0,3.42,0,5.13-.65,0-1.29.01-1.94.01-5.48,0-10.97-.03-16.45.02-1.44.01-2.19-.77-2.18-2.19.05-8.39.03-16.78,0-25.17,0-1.01.81-1.81,1.77-1.79.56.01,1.12-.01,1.68-.02,1.13.03,2.26.06,3.39-.01,1.15.07,2.3.04,3.45.01.19,0,.37.02.56.02,3.24,0,6.48,0,9.71.01,0,2.27,0,4.54,0,6.81-.36.17-.77.09-1.15.24-1.6.62-2.66,1.7-3.04,3.41-.07.04-.12.08-.03.15-.13,1.41.02,2.7,1.28,3.63.4.29.55.74.39,1.29-.1.34-.23.67-.31,1.01-.22.94-.47,1.88-.72,2.81-.18.69-.4,1.37-.56,2.07-.16.69-.12,1.39-.15,2.09-.01.35.08.47.45.46,1.28-.02,2.56,0,3.84,0Z"/><path class="cls-28" d="m324.27,198.47c-1.13.07-2.26.04-3.39.01,0-3.05-.02-6.1.02-9.15.02-1.41.21-2.81.62-4.18.49-1.65,1.19-3.2,2.14-4.63,1.18-1.79,2.65-3.31,4.4-4.56,1.15-.82,2.36-1.55,3.68-2.01,1.32-.46,2.65-.91,4.07-1.01.8-.06,1.59-.18,2.39-.16,1.99.03,3.92.43,5.78,1.13,1.87.7,3.55,1.72,5.08,2.99,1.32,1.1,2.4,2.4,3.32,3.83.65,1.02,1.17,2.1,1.61,3.23.24.62.41,1.27.62,1.9.2.57.23,1.2.3,1.81.39,3.6.1,7.21.19,10.81-1.13.04-2.26.06-3.39,0,0-2.58-.02-5.15.01-7.73.02-1.48-.17-2.93-.53-4.36-.51-2.01-1.44-3.82-2.8-5.37-1.66-1.9-3.68-3.33-6.11-4.1-1.73-.55-3.48-.72-5.3-.61-1.68.1-3.26.5-4.76,1.2-2.5,1.16-4.46,2.94-5.92,5.29-1.26,2.02-1.94,4.24-2.03,6.59-.11,3.03-.02,6.07-.02,9.11Z"/><path class="cls-16" d="m348.27,198.48c0-2.73.02-5.47,0-8.2-.02-1.45-.22-2.89-.8-4.24-.46-1.07-1.08-2.04-1.85-2.94-1.14-1.33-2.57-2.25-4.18-2.83-1.49-.54-3.05-.72-4.65-.52-.98.12-1.93.35-2.81.73-2.46,1.07-4.27,2.83-5.38,5.29-.52,1.15-.73,2.36-.79,3.61-.15,3.03-.02,6.07-.07,9.1-1.15.02-2.3.05-3.45-.02,0-3.04-.09-6.08.02-9.11.09-2.34.77-4.57,2.03-6.59,1.46-2.34,3.42-4.12,5.92-5.29,1.5-.7,3.08-1.1,4.76-1.2,1.82-.11,3.57.07,5.3.61,2.44.77,4.45,2.2,6.11,4.1,1.36,1.55,2.29,3.36,2.8,5.37.36,1.43.55,2.88.53,4.36-.03,2.58-.01,5.15-.01,7.73-1.15.06-2.31.04-3.46,0Z"/><path class="cls-24" d="m338,222.5c-1.28,0-2.56-.02-3.84,0-.37,0-.46-.11-.45-.46.03-.7-.02-1.41.15-2.09.17-.69.38-1.38.56-2.07.25-.94.5-1.87.72-2.81.08-.34.21-.68.31-1.01.16-.55,0-.99-.39-1.29-1.26-.93-1.41-2.23-1.28-3.63.07-.04.07-.09.03-.15.38-1.7,1.44-2.78,3.04-3.41.38-.15.79-.06,1.15-.24.17.02.35.05.52.07.03.09.08.14.16.04.09.02.18.04.27.06.05.12.15.1.25.09,1.78.57,3.36,2.82,3.02,4.69-.16.9-.45,1.67-1.12,2.3-.41.38-.88.73-.63,1.42.16.43.29.88.4,1.33.43,1.67.91,3.32,1.32,4.99.15.62.1,1.28.09,1.93,0,.28-.19.23-.36.23-1.31,0-2.62,0-3.93.01Z"/><path class="cls-16" d="m339.2,205.6c-.1,0-.2.03-.25-.09.11-.05.19,0,.25.09Z"/><path class="cls-16" d="m338.68,205.45c-.08.1-.12.05-.16-.04.06-.04.12-.02.16.04Z"/><path class="cls-28" d="m333.81,208.97c.04.06.04.12-.03.15-.09-.07-.03-.12.03-.15Z"/><circle class="cls-3" cx="338.15" cy="202.81" r="44.02"/><path class="cls-34" d="m79.12,195.48c.56,0,1.12.02,1.68.03.95,0,1.73.78,1.75,1.74.01.88,0,1.76,0,2.63,0,7.43,0,14.85,0,22.28,0,.48-.02.98-.16,1.44-.17.55-.85,1.05-1.43,1.05-6.29,0-12.58,0-18.86,0-.03,0-.06,0-.09-.01,0-1.71,0-3.42,0-5.13,1.31,0,2.62,0,3.93-.01.17,0,.36.04.36-.23.01-.65.06-1.31-.09-1.93-.41-1.67-.89-3.33-1.32-4.99-.12-.45-.24-.9-.4-1.33-.25-.68.22-1.04.63-1.42.68-.62.96-1.4,1.12-2.3.34-1.87-1.24-4.12-3.02-4.69-.06-.1-.14-.15-.25-.09-.09-.02-.18-.04-.27-.06-.04-.06-.09-.07-.16-.04-.17-.02-.35-.05-.52-.07,0-2.27,0-4.54,0-6.81,3.22,0,6.45-.01,9.67-.02.2,0,.4-.02.6-.02,1.15.04,2.31.05,3.46,0,1.13.06,2.26.05,3.39,0Z"/><path class="cls-22" d="m62,219.5c0,1.71,0,3.42,0,5.13-.65,0-1.29.01-1.94.01-5.48,0-10.97-.03-16.45.02-1.44.01-2.19-.77-2.18-2.19.05-8.39.03-16.78,0-25.17,0-1.01.81-1.81,1.77-1.79.56.01,1.12-.01,1.68-.02,1.13.03,2.26.06,3.39-.01,1.15.07,2.3.04,3.45.01.19,0,.37.02.56.02,3.24,0,6.48,0,9.71.01,0,2.27,0,4.54,0,6.81-.36.17-.77.09-1.15.24-1.6.62-2.66,1.7-3.04,3.41-.07.04-.12.08-.03.15-.13,1.41.02,2.7,1.28,3.63.4.29.55.74.39,1.29-.1.34-.23.67-.31,1.01-.22.94-.47,1.88-.72,2.81-.18.69-.4,1.37-.56,2.07-.16.69-.12,1.39-.15,2.09-.01.35.08.47.45.46,1.28-.02,2.56,0,3.84,0Z"/><path class="cls-28" d="m48.27,195.47c-1.13.07-2.26.04-3.39.01,0-3.05-.02-6.1.02-9.15.02-1.41.21-2.81.62-4.18.49-1.65,1.19-3.2,2.14-4.63,1.18-1.79,2.65-3.31,4.4-4.56,1.15-.82,2.36-1.55,3.68-2.01,1.32-.46,2.65-.91,4.07-1.01.8-.06,1.59-.18,2.39-.16,1.99.03,3.92.43,5.78,1.13,1.87.7,3.55,1.72,5.08,2.99,1.32,1.1,2.4,2.4,3.32,3.83.65,1.02,1.17,2.1,1.61,3.23.24.62.41,1.27.62,1.9.2.57.23,1.2.3,1.81.39,3.6.1,7.21.19,10.81-1.13.04-2.26.06-3.39,0,0-2.58-.02-5.15.01-7.73.02-1.48-.17-2.93-.53-4.36-.51-2.01-1.44-3.82-2.8-5.37-1.66-1.9-3.68-3.33-6.11-4.1-1.73-.55-3.48-.72-5.3-.61-1.68.1-3.26.5-4.76,1.2-2.5,1.16-4.46,2.94-5.92,5.29-1.26,2.02-1.94,4.24-2.03,6.59-.11,3.03-.02,6.07-.02,9.11Z"/><path class="cls-16" d="m72.27,195.48c0-2.73.02-5.47,0-8.2-.02-1.45-.22-2.89-.8-4.24-.46-1.07-1.08-2.04-1.85-2.94-1.14-1.33-2.57-2.25-4.18-2.83-1.49-.54-3.05-.72-4.65-.52-.98.12-1.93.35-2.81.73-2.46,1.07-4.27,2.83-5.38,5.29-.52,1.15-.73,2.36-.79,3.61-.15,3.03-.02,6.07-.07,9.1-1.15.02-2.3.05-3.45-.02,0-3.04-.09-6.08.02-9.11.09-2.34.77-4.57,2.03-6.59,1.46-2.34,3.42-4.12,5.92-5.29,1.5-.7,3.08-1.1,4.76-1.2,1.82-.11,3.57.07,5.3.61,2.44.77,4.45,2.2,6.11,4.1,1.36,1.55,2.29,3.36,2.8,5.37.36,1.43.55,2.88.53,4.36-.03,2.58-.01,5.15-.01,7.73-1.15.06-2.31.04-3.46,0Z"/><path class="cls-24" d="m62,219.5c-1.28,0-2.56-.02-3.84,0-.37,0-.46-.11-.45-.46.03-.7-.02-1.41.15-2.09.17-.69.38-1.38.56-2.07.25-.94.5-1.87.72-2.81.08-.34.21-.68.31-1.01.16-.55,0-.99-.39-1.29-1.26-.93-1.41-2.23-1.28-3.63.07-.04.07-.09.03-.15.38-1.7,1.44-2.78,3.04-3.41.38-.15.79-.06,1.15-.24.17.02.35.05.52.07.03.09.08.14.16.04.09.02.18.04.27.06.05.12.15.1.25.09,1.78.57,3.36,2.82,3.02,4.69-.16.9-.45,1.67-1.12,2.3-.41.38-.88.73-.63,1.42.16.43.29.88.4,1.33.43,1.67.91,3.32,1.32,4.99.15.62.1,1.28.09,1.93,0,.28-.19.23-.36.23-1.31,0-2.62,0-3.93.01Z"/><path class="cls-16" d="m63.2,202.6c-.1,0-.2.03-.25-.09.11-.05.19,0,.25.09Z"/><path class="cls-16" d="m62.68,202.45c-.08.1-.12.05-.16-.04.06-.04.12-.02.16.04Z"/><path class="cls-28" d="m57.81,205.97c.04.06.04.12-.03.15-.09-.07-.03-.12.03-.15Z"/><circle class="cls-3" cx="62.15" cy="199.81" r="44.02"/><path class="cls-34" d="m86.12,71.48c.56,0,1.12.02,1.68.03.95,0,1.73.78,1.75,1.74.01.88,0,1.76,0,2.63,0,7.43,0,14.85,0,22.28,0,.48-.02.98-.16,1.44-.17.55-.85,1.05-1.43,1.05-6.29,0-12.58,0-18.86,0-.03,0-.06,0-.09-.01,0-1.71,0-3.42,0-5.13,1.31,0,2.62,0,3.93-.01.17,0,.36.04.36-.23.01-.65.06-1.31-.09-1.93-.41-1.67-.89-3.33-1.32-4.99-.12-.45-.24-.9-.4-1.33-.25-.68.22-1.04.63-1.42.68-.62.96-1.4,1.12-2.3.34-1.87-1.24-4.12-3.02-4.69-.06-.1-.14-.15-.25-.09-.09-.02-.18-.04-.27-.06-.04-.06-.09-.07-.16-.04-.17-.02-.35-.05-.52-.07,0-2.27,0-4.54,0-6.81,3.22,0,6.45-.01,9.67-.02.2,0,.4-.02.6-.02,1.15.04,2.31.05,3.46,0,1.13.06,2.26.05,3.39,0Z"/><path class="cls-22" d="m69,95.5c0,1.71,0,3.42,0,5.13-.65,0-1.29.01-1.94.01-5.48,0-10.97-.03-16.45.02-1.44.01-2.19-.77-2.18-2.19.05-8.39.03-16.78,0-25.17,0-1.01.81-1.81,1.77-1.79.56.01,1.12-.01,1.68-.02,1.13.03,2.26.06,3.39-.01,1.15.07,2.3.04,3.45.01.19,0,.37.02.56.02,3.24,0,6.48,0,9.71.01,0,2.27,0,4.54,0,6.81-.36.17-.77.09-1.15.24-1.6.62-2.66,1.7-3.04,3.41-.07.04-.12.08-.03.15-.13,1.41.02,2.7,1.28,3.63.4.29.55.74.39,1.29-.1.34-.23.67-.31,1.01-.22.94-.47,1.88-.72,2.81-.18.69-.4,1.37-.56,2.07-.16.69-.12,1.39-.15,2.09-.01.35.08.47.45.46,1.28-.02,2.56,0,3.84,0Z"/><path class="cls-28" d="m55.27,71.47c-1.13.07-2.26.04-3.39.01,0-3.05-.02-6.1.02-9.15.02-1.41.21-2.81.62-4.18.49-1.65,1.19-3.2,2.14-4.63,1.18-1.79,2.65-3.31,4.4-4.56,1.15-.82,2.36-1.55,3.68-2.01,1.32-.46,2.65-.91,4.07-1.01.8-.06,1.59-.18,2.39-.16,1.99.03,3.92.43,5.78,1.13,1.87.7,3.55,1.72,5.08,2.99,1.32,1.1,2.4,2.4,3.32,3.83.65,1.02,1.17,2.1,1.61,3.23.24.62.41,1.27.62,1.9.2.57.23,1.2.3,1.81.39,3.6.1,7.21.19,10.81-1.13.04-2.26.06-3.39,0,0-2.58-.02-5.15.01-7.73.02-1.48-.17-2.93-.53-4.36-.51-2.01-1.44-3.82-2.8-5.37-1.66-1.9-3.68-3.33-6.11-4.1-1.73-.55-3.48-.72-5.3-.61-1.68.1-3.26.5-4.76,1.2-2.5,1.16-4.46,2.94-5.92,5.29-1.26,2.02-1.94,4.24-2.03,6.59-.11,3.03-.02,6.07-.02,9.11Z"/><path class="cls-16" d="m79.27,71.48c0-2.73.02-5.47,0-8.2-.02-1.45-.22-2.89-.8-4.24-.46-1.07-1.08-2.04-1.85-2.94-1.14-1.33-2.57-2.25-4.18-2.83-1.49-.54-3.05-.72-4.65-.52-.98.12-1.93.35-2.81.73-2.46,1.07-4.27,2.83-5.38,5.29-.52,1.15-.73,2.36-.79,3.61-.15,3.03-.02,6.07-.07,9.1-1.15.02-2.3.05-3.45-.02,0-3.04-.09-6.08.02-9.11.09-2.34.77-4.57,2.03-6.59,1.46-2.34,3.42-4.12,5.92-5.29,1.5-.7,3.08-1.1,4.76-1.2,1.82-.11,3.57.07,5.3.61,2.44.77,4.45,2.2,6.11,4.1,1.36,1.55,2.29,3.36,2.8,5.37.36,1.43.55,2.88.53,4.36-.03,2.58-.01,5.15-.01,7.73-1.15.06-2.31.04-3.46,0Z"/><path class="cls-24" d="m69,95.5c-1.28,0-2.56-.02-3.84,0-.37,0-.46-.11-.45-.46.03-.7-.02-1.41.15-2.09.17-.69.38-1.38.56-2.07.25-.94.5-1.87.72-2.81.08-.34.21-.68.31-1.01.16-.55,0-.99-.39-1.29-1.26-.93-1.41-2.23-1.28-3.63.07-.04.07-.09.03-.15.38-1.7,1.44-2.78,3.04-3.41.38-.15.79-.06,1.15-.24.17.02.35.05.52.07.03.09.08.14.16.04.09.02.18.04.27.06.05.12.15.1.25.09,1.78.57,3.36,2.82,3.02,4.69-.16.9-.45,1.67-1.12,2.3-.41.38-.88.73-.63,1.42.16.43.29.88.4,1.33.43,1.67.91,3.32,1.32,4.99.15.62.1,1.28.09,1.93,0,.28-.19.23-.36.23-1.31,0-2.62,0-3.93.01Z"/><path class="cls-16" d="m70.2,78.6c-.1,0-.2.03-.25-.09.11-.05.19,0,.25.09Z"/><path class="cls-16" d="m69.68,78.45c-.08.1-.12.05-.16-.04.06-.04.12-.02.16.04Z"/><path class="cls-28" d="m64.81,81.97c.04.06.04.12-.03.15-.09-.07-.03-.12.03-.15Z"/><circle class="cls-3" cx="69.15" cy="75.81" r="44.02"/></svg>