<?xml version="1.0" encoding="UTF-8"?><svg id="Layer_1" xmlns="http://www.w3.org/2000/svg" viewBox="0 0 400 355"><defs><style>.cls-1{fill:#1f2275;}.cls-2{fill:#fe6d3a;}.cls-3,.cls-4,.cls-5,.cls-6,.cls-7,.cls-8{stroke-miterlimit:10;}.cls-3,.cls-9{fill:#fff;}.cls-3,.cls-8{stroke:#231f20;stroke-width:2px;}.cls-4{stroke:#a5262d;}.cls-4,.cls-5,.cls-6,.cls-7{stroke-width:4px;}.cls-4,.cls-5,.cls-6,.cls-7,.cls-8{fill:none;}.cls-10{fill:#435256;}.cls-11{fill:#f0ca6f;}.cls-12{fill:#fafdfc;}.cls-13{fill:#a7b4b9;}.cls-14{fill:#565959;}.cls-15{fill:#fcfdfd;}.cls-5{stroke:#0018c6;}.cls-16{fill:#e2bb64;}.cls-17{fill:#3a926c;}.cls-18{fill:#414343;}.cls-19,.cls-20{opacity:.5;}.cls-21{fill:#fe901f;}.cls-22{fill:#fcc472;}.cls-23{fill:#2d3b3d;}.cls-24{fill:#f9fdfc;}.cls-25{fill:#222;}.cls-6{stroke:#c000e2;}.cls-26{fill:#bbc3c6;}.cls-27{fill:#007d9e;}.cls-28{fill:#fbc372;}.cls-29{fill:#fedd46;}.cls-30{fill:#386079;}.cls-31{fill:#444b66;}.cls-32{fill:#efc319;}.cls-33{fill:#2a7ec6;}.cls-7{stroke:#00b51e;}.cls-34{fill:#f8d77c;}.cls-35{fill:#feb024;}.cls-36{fill:#e6e6e6;}.cls-37{fill:#424240;}.cls-38{fill:#adbbff;}.cls-39{fill:#42210b;}.cls-40{fill:#c6ecf9;}.cls-41{fill:#a0280e;}.cls-42{fill:#000d6a;}.cls-43{fill:#fbbd41;}.cls-44{fill:#3d435c;}.cls-45{fill:#01b6a0;}.cls-46{fill:#26b899;}.cls-47{fill:#eef0fb;}.cls-48{fill:#faf8fa;}.cls-49{fill:#fe6e3c;}.cls-50{fill:#6e6f6e;}.cls-51{fill:#212121;}.cls-52{fill:#2e5872;}.cls-53{fill:#efc31a;}.cls-54{fill:#b09146;}.cls-55{fill:#7dcbe5;}.cls-56{fill:#204958;}.cls-57{fill:#ff1d25;}.cls-58{fill:#c6ecfa;}.cls-59{fill:#94a4a4;}.cls-60{fill:#fdc472;}.cls-61{fill:#6665c6;}.cls-62{fill:#529aff;}.cls-63{fill:#6a3223;}.cls-64{fill:#f0f3f2;}.cls-65{fill:#3e657d;}.cls-66{fill:#751d0a;}.cls-67{fill:#454c67;}.cls-68{fill:#e5eff1;}.cls-69{fill:#1a1a1a;}.cls-70{fill:#4b87d4;}.cls-71{fill:#c6d8de;}.cls-72{fill:#69a6fe;}.cls-73{fill:#c4d8dd;}.cls-74{fill:#29abe2;}.cls-75{fill:#db411d;}.cls-76{fill:#414242;}.cls-20{fill:#ccf2ff;isolation:isolate;}.cls-77{fill:#cad9df;}.cls-78{fill:#231f20;}.cls-79{fill:#b9c2fe;}.cls-80{fill:#c7d9de;}.cls-81{fill:#c65d42;}.cls-82{fill:#c5d8de;}.cls-83{fill:#9fddea;}.cls-84{fill:#fbf9fa;}.cls-85{fill:#28b99a;}.cls-86{fill:#fe901e;}.cls-87{fill:#3636a0;}.cls-88{fill:#f99e3d;}.cls-89{fill:#6e6b87;}</style></defs><circle class="cls-7" cx="120.74" cy="304.61" r="36.45"/><path d="m102.51,284.52c1.83,1.5,2.09,4.21.58,6.03-.08.1-.17.19-.26.29-1.72,2.01-4.75,2.25-6.76.52-.01-.01-.03-.02-.04-.04-1.95-1.76-2.1-4.76-.34-6.7,0,0,.01-.01.02-.02,1.04-1.21,2.64-1.79,4.21-1.54l-.4,2.02c-.86-.13-1.73.21-2.27.89-.99,1.01-.98,2.63.03,3.62.07.07.14.13.21.19,1.13,1.05,2.67.97,3.89-.32.77-.67.97-1.78.49-2.67l-1.62,1.78-1.38-1.22,3.08-3.4.57.49v.08Z"/><path d="m110.77,281.2c.92,1.54.42,3.53-1.12,4.44,0,0-.01,0-.02.01-.63.39-1.4.48-2.11.24l1.54,2.84-1.7.89-4.29-8.02,1.7-.89.32.57c.18-.7.65-1.29,1.3-1.62,1.63-.77,3.58-.09,4.37,1.54Zm-1.7.89c-.33-.74-1.2-1.07-1.94-.74-.06.03-.11.06-.17.09-.75.36-1.06,1.26-.7,2.01.02.03.03.06.05.09.33.74,1.2,1.07,1.94.74.06-.03.11-.06.17-.09.75-.36,1.06-1.26.7-2.01-.02-.03-.03-.06-.05-.09h0Z"/><path d="m118.06,278.85l.81,3.89-1.94.41-.73-3.65c-.04-.57-.54-.99-1.1-.95-.09,0-.19.03-.28.06-.6.06-1.04.61-.98,1.21.01.11.04.22.09.33l.73,3.48-1.86.41-1.86-8.91,1.86-.41.65,3.16c.32-.63.92-1.05,1.62-1.13,1.31-.28,2.6.56,2.88,1.88.02.08.03.15.04.23h.08Z"/><path d="m119.52,279.42c.11-1.9,1.75-3.35,3.65-3.24s3.35,1.75,3.24,3.65-1.75,3.35-3.65,3.24c-.03,0-.05,0-.08,0-1.87-.13-3.29-1.75-3.16-3.63,0,0,0-.01,0-.02Zm4.94.41c.08-.81-.51-1.53-1.32-1.62-.02,0-.04,0-.06,0-.82-.06-1.54.55-1.62,1.38-.08.81.51,1.53,1.32,1.62.02,0,.04,0,.06,0,.82.06,1.54-.55,1.62-1.38Z"/><path d="m133.86,281.85l-1.38,3.73-1.78-.73,1.3-3.48c.28-.51.1-1.16-.41-1.44-.07-.04-.15-.07-.24-.1-.62-.25-1.32.05-1.57.67-.02.05-.04.1-.05.14l-1.3,3.32-1.78-.73,2.27-6.08,1.78.73-.24.57c.62-.37,1.4-.37,2.02,0,1.22.49,1.94,1.7,1.3,3.4h.08Z"/><path d="m136.61,286.63c.37.29.84.41,1.3.32l.73,1.62c-1.94.48-3.9-.71-4.38-2.65-.24-.98-.06-2.01.49-2.86,1.05-1.49,3.11-1.84,4.6-.79.06.04.12.09.18.14,1.44,1.06,1.76,3.08.7,4.53-.04.06-.09.11-.13.17-.15.23-.34.42-.57.57l-3.65-2.75c-.17.64.13,1.32.73,1.62v.08Zm2.35-1.22c.29-.58.08-1.29-.49-1.62-.51-.45-1.27-.45-1.78,0l2.27,1.7v-.08Z"/><path d="m146.25,296.35c-1.64.89-3.69.27-4.58-1.37-.85-1.57-.33-3.52,1.17-4.46.57-.32,1.21-.49,1.86-.49l5.02.24,1.22,2.02-3.48-.24c.83,1.48.31,3.35-1.16,4.18-.02,0-.03.02-.05.03v.08Zm-1.05-1.78c.59-.33.8-1.08.47-1.68-.02-.04-.04-.07-.07-.11-.3-.59-1.03-.83-1.62-.53-.03.01-.05.03-.08.04-.58.29-.82.99-.54,1.57.04.07.08.15.13.21.3.59,1.03.83,1.62.53.03-.01.05-.03.08-.04Z"/><path class="cls-81" d="m111.5,289.22h18.63c1.82-.02,3.3,1.44,3.32,3.26,0,.02,0,.04,0,.07v39.77c.02,1.82-1.44,3.3-3.26,3.32-.02,0-.04,0-.07,0h-18.63c-1.82.02-3.3-1.44-3.32-3.26,0-.02,0-.04,0-.07v-39.77c-.02-1.82,1.44-3.3,3.26-3.32.02,0,.04,0,.07,0Z"/><path class="cls-66" d="m130.13,289.22h-18.63c-1.82-.02-3.3,1.44-3.32,3.26,0,.02,0,.04,0,.07v39.77l25.27-39.77c.02-1.82-1.44-3.3-3.26-3.32-.02,0-.04,0-.07,0Z"/><path class="cls-74" d="m131.51,329.72h-21.38c-.76,0-1.38-.63-1.38-1.39,0-.02,0-.04,0-.07v-35.8c0-.86.68-1.58,1.54-1.62h21.22c.76,0,1.38.63,1.38,1.39,0,.02,0,.04,0,.07v35.96c.01.78-.6,1.43-1.38,1.46Z"/><path class="cls-9" d="m122.52,334.09h-.41c-.28-.01-.55-.07-.81-.16-.32,0-.65-.16-.97-.16-.39-.03-.77-.12-1.13-.24h-.16c-.16,0-.16-.16-.16-.32.05-.2.13-.39.24-.57.12-.3.25-.6.4-.89.08-.16.24-.41.32-.57.16-.27.51-.36.78-.19.08.05.15.11.19.19.08.08.16.24.32.4.16.32.4.57.57.89l.97,1.46v.16c0,.16,0,.24-.16.24v-.24Z"/><path class="cls-57" d="m122.68,304.37h-.4c-.3-.01-.6-.07-.89-.16-.36-.04-.71-.12-1.05-.24-.41-.04-.82-.12-1.22-.24h-.16c-.16,0-.16-.16-.16-.32s.16-.41.24-.57c.16-.32.24-.65.4-.97.09-.2.2-.39.32-.57.2-.29.6-.36.89-.16.06.04.12.1.16.16.13.12.24.25.32.4.22.31.41.63.57.97.32.49.65,1.05.97,1.54v.16c0,.16,0,.24-.16.24l.16-.24Z"/><path class="cls-57" d="m123.41,297h.16c.16,0,.16.08.16.24s-.08.16-.16.24c-.4.49-.73.97-1.13,1.38-.33.42-.68.83-1.05,1.21-.18.18-.41.32-.65.4-.28.03-.56-.02-.81-.16-.15-.1-.26-.24-.32-.41-.32-.49-.65-.97-.97-1.54-.12-.23-.25-.44-.4-.65h0c-.08-.16,0-.24.16-.24.68-.01,1.35-.07,2.02-.16.6-.01,1.19-.07,1.78-.16h1.3l-.08-.16Z"/><path d="m119.52,319.03v1.78h-.73v1.13h-1.94v-1.13h-3.32v-1.78l2.27-4.62h2.19l-2.27,4.7h1.21v-1.38h1.94v1.38h.73l-.08-.08Z"/><path d="m127.78,317.57v.81c.07,1-.32,1.98-1.05,2.67-.73.72-1.73,1.1-2.75,1.05-1.08.02-2.13-.39-2.92-1.13-.75-.75-1.16-1.78-1.13-2.83,0-1.06.4-2.07,1.13-2.84.75-.75,1.78-1.16,2.83-1.13.68-.07,1.37.1,1.94.49.57.3,1.04.75,1.38,1.3l-1.62.97c-.18-.23-.4-.42-.65-.57-.3-.17-.63-.25-.97-.24-1.14.02-2.05.97-2.02,2.11.01.51.21,1,.56,1.37.42.44,1.01.67,1.62.65.73.04,1.42-.34,1.78-.97h-1.86v-1.7h3.73Z"/><path class="cls-20" d="m109.8,327.69c-.19.31-.59.41-.9.22-.19-.12-.31-.32-.31-.54v-34.91c-.03-.82.62-1.51,1.44-1.54.03,0,.07,0,.1,0h21.38c.42,0,.75.34.75.76,0,.13-.04.26-.1.38l-22.36,35.72v-.08Z"/><polyline class="cls-66" points="123.98 292.46 117.25 292.46 115.88 289.22 125.52 289.22"/><path class="cls-9" d="m123.41,291.41c-.02.26-.23.47-.49.49h-4.29c-.26-.02-.47-.23-.49-.49h0c.02-.26.23-.47.49-.49h4.29c.26.02.47.23.49.49Z"/><circle class="cls-7" cx="200" cy="304.61" r="36.45"/><path d="m182.02,284.68c1.92,1.57,2.19,4.4.62,6.32-.12.14-.24.28-.38.41-1.78,2.13-4.94,2.42-7.07.64-2.13-1.78-2.42-4.94-.64-7.07.08-.1.17-.2.26-.29,1.11-1.26,2.79-1.87,4.45-1.62l-.49,2.11c-.92-.12-1.84.25-2.43.97-1.08,1.09-1.07,2.84.02,3.92.05.05.09.09.14.13,1.22,1.13,2.83,1.05,4.13-.32.83-.7,1.06-1.87.57-2.84l-1.78,1.86-1.38-1.3,3.32-3.56.57.57.08.08Z"/><path d="m191.01,281.28c.92,1.68.3,3.78-1.37,4.7,0,0,0,0,0,0-.67.37-1.47.43-2.19.16l1.54,3.08-1.86.89-4.29-8.67,1.86-.89.32.57c.24-.74.76-1.35,1.46-1.7,1.74-.76,3.77.04,4.54,1.78v.08Zm-1.86.89c-.36-.82-1.31-1.19-2.13-.83-.02,0-.04.02-.05.02-.8.32-1.18,1.23-.85,2.03.03.08.08.16.12.24.36.82,1.31,1.19,2.13.83.02,0,.04-.02.05-.02.8-.32,1.18-1.23.85-2.03-.03-.08-.08-.16-.12-.24h0Z"/><path d="m198.95,279.18l.65,4.21-2.02.32-.57-3.89c-.06-.65-.64-1.13-1.29-1.06-.03,0-.06,0-.09.01-.73.08-1.22.65-1.05,1.62l.57,3.73-2.03.32-1.46-9.56,2.03-.32.49,3.4c.39-.63,1.05-1.05,1.78-1.13,1.38-.24,2.67.57,3,2.43v-.08Z"/><path d="m200.57,279.9c.3-1.99,2.14-3.36,4.13-3.08,1.95.24,3.34,2.01,3.1,3.96,0,.06-.02.12-.03.17-.3,1.99-2.14,3.36-4.13,3.08-1.97-.26-3.35-2.07-3.09-4.04,0-.03,0-.06.01-.09Zm5.18.81c.19-.83-.33-1.65-1.16-1.84-.04,0-.09-.02-.13-.02-.8-.17-1.58.34-1.75,1.13-.02.08-.03.16-.03.24-.19.83.33,1.65,1.16,1.84.04,0,.09.02.13.02.8.17,1.58-.34,1.75-1.13.02-.08.03-.16.03-.24h0Z"/><path d="m215.55,283.63l-1.86,3.81-1.86-.89,1.7-3.56c.32-.52.15-1.21-.37-1.53-.06-.04-.13-.07-.2-.09-.6-.33-1.35-.11-1.68.49-.04.08-.07.16-.1.24l-1.62,3.4-1.86-.89,3-6.24,1.86.89-.24.57c.67-.34,1.46-.31,2.11.08,1.22.57,1.86,2.02,1.05,3.73h.08Z"/><path d="m218.06,289.06c.32.37.81.55,1.3.49l.57,1.78c-1.15.24-2.34-.13-3.16-.97-1.54-1.26-1.76-3.52-.5-5.06.06-.07.12-.14.18-.2,1.29-1.47,3.53-1.62,5.01-.33.06.05.12.11.18.17,1.41,1.26,1.52,3.43.26,4.84-.06.06-.12.12-.18.18-.18.23-.4.42-.65.57l-3.56-3.32c-.32.73,0,1.3.57,1.86h0Zm2.67-.97c.37-.59.23-1.36-.32-1.78-.46-.55-1.27-.66-1.86-.24l2.19,2.02Z"/><path d="m232.48,297l-1.7.73-8.42.32-.97-2.11,8.1-.32-1.62-3.56,1.94-.89,2.59,5.75.08.08Z"/><path class="cls-63" d="m185.91,292.46h16.69c1.65,0,2.99,1.33,3,2.98,0,0,0,.01,0,.02v35.56c0,1.65-1.33,2.99-2.98,3,0,0-.01,0-.02,0h-16.69c-1.65,0-2.99-1.33-3-2.98,0,0,0-.01,0-.02v-35.56c0-1.65,1.33-2.99,2.98-3,0,0,.01,0,.02,0Z"/><path class="cls-81" d="m198.22,317.73c-.22,0-.44-.02-.65-.08-.49-.07-.98-.18-1.46-.32-.57-.08-1.22-.24-1.78-.32-.73-.16-1.38-.24-2.11-.41-.11.01-.23-.02-.32-.08-.22-.08-.33-.32-.25-.54,0,0,0-.02.01-.03.17-.31.3-.63.41-.97.24-.57.49-1.05.73-1.62.19-.37.4-.72.65-1.05.33-.51,1-.65,1.51-.33.1.07.2.15.27.25.18.2.34.42.49.65.32.57.73,1.05,1.05,1.62l1.7,2.67c.04.09.1.17.16.24.08.24,0,.41-.32.41l-.08-.08Z"/><path class="cls-81" d="m199.43,305.01h.24c.24,0,.32.16.24.32s-.16.24-.24.41c-.65.81-1.22,1.62-1.86,2.43s-1.22,1.46-1.78,2.11c-.31.33-.7.58-1.13.73-.51.1-1.04-.02-1.46-.32-.24-.22-.45-.47-.65-.73-.57-.89-1.13-1.7-1.7-2.59-.24-.41-.49-.81-.73-1.13h0c-.16-.32,0-.49.24-.49l3.48-.24c1.05,0,2.11-.16,3.08-.24.73-.01,1.46-.07,2.19-.16h0l.08-.08Z"/><path class="cls-81" d="m196.76,292.46h16.69c1.65,0,2.99,1.33,3,2.98,0,0,0,.01,0,.02v35.56c0,1.65-1.33,2.99-2.98,3,0,0-.01,0-.02,0h-16.69c-1.65,0-2.99-1.33-3-2.98,0,0,0-.01,0-.02v-35.56c0-1.65,1.33-2.99,2.98-3,0,0,.01,0,.02,0Z"/><path class="cls-41" d="m213.45,292.46h-16.69c-1.65,0-2.99,1.33-3,2.98,0,0,0,.01,0,.02v35.56l22.6-35.56c0-1.65-1.33-2.99-2.98-3,0,0-.01,0-.02,0h.08Z"/><path class="cls-74" d="m214.66,328.67h-19.12c-.71,0-1.29-.56-1.3-1.26,0-.01,0-.02,0-.03v-32.08c-.01-.78.6-1.43,1.38-1.46h18.95c.71,0,1.29.56,1.3,1.26,0,.01,0,.02,0,.03v32.16c0,.71-.56,1.29-1.26,1.3-.01,0-.02,0-.03,0l.08.08Z"/><path class="cls-9" d="m206.64,332.64h-.32c-.25-.02-.5-.07-.73-.16-.3-.01-.6-.07-.89-.16-.36-.04-.71-.12-1.05-.24h-.16c-.16,0-.16-.16-.08-.24s.16-.32.24-.49.24-.57.4-.81c.08-.18.19-.34.32-.49.15-.25.48-.32.73-.16.07.04.12.1.16.16.08.08.16.24.24.32.16.24.32.57.49.81.24.4.57.89.81,1.3v.16c0,.08,0,.24-.16.24v-.24Z"/><path class="cls-57" d="m206.8,306.07h-.32c-.28-.02-.55-.08-.81-.16-.32,0-.65-.16-.97-.16-.36-.04-.71-.12-1.05-.24h-.16c-.16,0-.16-.16-.16-.32s.16-.32.24-.49.24-.57.4-.81c.08-.21.19-.4.32-.57.15-.25.48-.32.73-.16.07.04.12.1.16.16.08.08.16.24.24.32.16.29.35.56.57.81.32.49.57.89.89,1.38v.16c0,.16,0,.24-.16.24l.08-.16Z"/><path class="cls-57" d="m207.45,299.43h.16c.08,0,.16.08.08.16-.04.09-.1.17-.16.24l-.97,1.22c-.32.36-.62.74-.89,1.13-.15.18-.35.32-.57.41-.25.02-.51-.03-.73-.16-.15-.1-.26-.24-.32-.41-.32-.49-.57-.89-.89-1.38-.14-.17-.25-.36-.32-.57h0c0-.16,0-.24.16-.24.62-.01,1.25-.07,1.86-.16.54.01,1.08-.01,1.62-.08h1.13l-.16-.16Z"/><path d="m203.97,319.11v1.62h-.65v1.05h-1.7v-1.05h-3v-1.62l2.03-4.13h1.94l-2.03,4.21h1.05v-1.22h1.7v1.22h.65v-.08Z"/><path d="m211.34,317.89v.73c.03.91-.33,1.79-.97,2.43-.65.62-1.53.94-2.43.89-.97.03-1.92-.35-2.59-1.05-.66-.67-1.03-1.57-1.05-2.51-.03-.95.35-1.87,1.05-2.51.67-.66,1.57-1.03,2.51-1.05.62-.03,1.24.11,1.78.4.51.24.94.64,1.22,1.13l-1.46.81c-.13-.22-.33-.4-.57-.49-.29-.1-.59-.15-.89-.16-.48-.03-.95.15-1.3.49-.34.38-.51.87-.49,1.38-.03.48.15.95.49,1.3.39.38.92.58,1.46.57.64.04,1.25-.31,1.54-.89h-1.62v-1.46h3.32Z"/><path class="cls-20" d="m195.3,326.88c-.18.29-.56.37-.85.19-.17-.11-.28-.3-.28-.51v-31.27c0-.76.6-1.37,1.36-1.38,0,0,.01,0,.02,0h19.2c.36-.03.67.25.7.61.01.16-.04.32-.13.44l-20.01,31.91Z"/><polyline class="cls-41" points="207.94 295.38 201.94 295.38 200.73 292.46 209.32 292.46"/><path class="cls-9" d="m207.45,294.4c.01.21-.14.39-.35.4-.02,0-.03,0-.05,0h-3.81c-.21.01-.39-.14-.4-.35,0-.02,0-.03,0-.05h0c-.01-.21.14-.39.35-.41.02,0,.03,0,.05,0h3.81c.21-.01.39.14.41.35,0,.02,0,.03,0,.05Z"/><rect class="cls-39" x="184.77" y="294.48" width="7.94" height="4.37" rx="1.62" ry="1.62"/><circle cx="186.88" cy="296.91" r=".73"/><path class="cls-55" d="m186.96,298.21c-.89,0-1.62-.73-1.62-1.62,0-.89.73-1.62,1.62-1.62.89,0,1.62.73,1.62,1.62,0,.03,0,.05,0,.08,0,.86-.71,1.55-1.57,1.54-.02,0-.03,0-.05,0Zm-.73-1.7c-.06.19-.03.4.08.57.14.31.48.48.81.4.31-.05.56-.27.65-.57.12-.36-.06-.75-.4-.89-.17-.11-.37-.13-.57-.08-.4,0-.65.24-.57.65v-.08Z"/><path class="cls-83" d="m186.8,295.86c.19-.01.39.01.57.08.32.17.48.54.41.89,0,.32-.32.49-.65.57-.33.04-.65-.12-.81-.41-.11-.17-.14-.38-.08-.57.08,0,.24.08.32.08,0,.16,0,.41.24.41s.4,0,.49-.24,0-.49-.41-.57c0-.16,0-.32-.16-.41l.08.16Z"/><path class="cls-68" d="m186.8,295.86c.1.11.16.25.16.4-.06.14-.18.26-.32.32-.16,0-.24,0-.32-.08-.08-.4.16-.65.57-.65h-.08Z"/><circle cx="190.44" cy="296.91" r=".73"/><path class="cls-55" d="m190.6,298.21c-.89,0-1.62-.73-1.62-1.62,0-.89.73-1.62,1.62-1.62.89,0,1.62.73,1.62,1.62,0,.03,0,.05,0,.08,0,.86-.71,1.55-1.57,1.54-.02,0-.03,0-.05,0Zm-.73-1.7c-.06.19-.03.4.08.57.14.31.48.48.81.4.31-.05.56-.27.65-.57.12-.36-.06-.75-.4-.89-.17-.11-.37-.13-.57-.08-.4,0-.65.24-.57.65v-.08Z"/><path class="cls-83" d="m190.36,295.86c.19-.01.39.01.57.08.32.17.48.54.41.89,0,.32-.32.49-.65.57-.33.04-.65-.12-.81-.41-.11-.17-.14-.38-.08-.57.08,0,.24.08.32.08,0,.16,0,.41.24.41s.4,0,.49-.24,0-.49-.4-.57c0-.16,0-.32-.16-.41l.08.16Z"/><path class="cls-68" d="m190.36,295.86c.1.11.16.25.16.4-.06.14-.18.26-.32.32-.16,0-.24,0-.32-.08-.08-.4.16-.65.57-.65h-.08Z"/><circle class="cls-7" cx="279.26" cy="304.61" r="36.45"/><path d="m261.04,283.23c1.83,1.5,2.09,4.21.58,6.03-.08.1-.17.19-.26.29-1.72,2.01-4.75,2.25-6.76.52-.01-.01-.03-.02-.04-.04-1.95-1.76-2.1-4.76-.34-6.7,0,0,.01-.01.02-.02,1.04-1.21,2.64-1.79,4.21-1.54l-.4,2.03c-.86-.13-1.73.21-2.27.89-.99,1.01-.98,2.63.03,3.62.07.07.14.13.21.19,1.13,1.05,2.67.97,3.89-.32.77-.67.97-1.78.49-2.67l-1.62,1.78-1.38-1.22,3.08-3.4.57.49v.08Z"/><path d="m269.3,279.82c.92,1.54.42,3.53-1.12,4.44,0,0-.01,0-.02.01-.63.39-1.4.48-2.11.24l1.54,2.83-1.7.89-4.29-8.02,1.7-.89.32.57c.18-.7.65-1.29,1.3-1.62,1.63-.77,3.58-.09,4.37,1.54Zm-1.7.89c-.33-.74-1.2-1.07-1.94-.74-.06.03-.11.06-.17.09-.75.36-1.06,1.26-.7,2.01.02.03.03.06.05.09.33.74,1.2,1.07,1.94.74.06-.03.11-.06.17-.09.75-.36,1.06-1.26.7-2.01-.02-.03-.03-.06-.05-.09h0Z"/><path d="m276.59,277.47l.81,3.89-1.94.41-.73-3.64c-.04-.57-.54-.99-1.1-.95-.09,0-.19.03-.28.06-.6.06-1.04.61-.98,1.21.01.11.04.22.09.33l.73,3.48-1.94.41-1.86-8.91,1.94-.41.65,3.16c.32-.63.92-1.05,1.62-1.13,1.31-.28,2.6.56,2.88,1.88.02.08.03.15.04.23h.08Z"/><path d="m278.05,278.04c.11-1.9,1.75-3.35,3.65-3.24,1.9.11,3.35,1.75,3.24,3.65s-1.75,3.35-3.65,3.24c-.03,0-.05,0-.08,0-1.87-.13-3.29-1.75-3.16-3.63,0,0,0-.01,0-.02Zm4.94.4c.08-.81-.51-1.53-1.32-1.62-.02,0-.04,0-.06,0-.82-.06-1.54.55-1.62,1.38-.08.81.51,1.53,1.32,1.62.02,0,.04,0,.06,0,.82.06,1.54-.55,1.62-1.38Z"/><path d="m292.38,280.47l-1.38,3.73-1.78-.73,1.3-3.48c.28-.51.1-1.16-.41-1.44-.07-.04-.15-.07-.24-.1-.62-.25-1.32.05-1.57.67-.02.05-.04.1-.05.14l-1.3,3.32-1.78-.73,2.27-6.08,1.78.73-.24.57c.62-.37,1.4-.37,2.03,0,1.22.49,1.94,1.7,1.3,3.4h.08Z"/><path d="m295.14,285.33c.37.29.84.41,1.3.32l.73,1.62c-1.94.48-3.9-.71-4.38-2.65-.24-.98-.06-2.01.49-2.86,1.05-1.49,3.11-1.84,4.6-.79.06.04.12.09.18.14,1.44,1.06,1.76,3.08.7,4.53-.04.06-.09.11-.13.17-.15.23-.34.42-.57.57l-3.65-2.75c-.17.64.13,1.32.73,1.62v.08Zm2.35-1.13c.29-.58.08-1.29-.49-1.62-.51-.45-1.27-.45-1.78,0l2.27,1.7v-.08Z"/><path d="m304.37,295.29c-1.46.81-3,.32-4.05-1.54s-.73-3.4.65-4.29c.77-.49,1.74-.49,2.51,0,.07-.72.5-1.36,1.13-1.7,1.54-.89,3-.16,3.89,1.22.89,1.38.73,3.08-.81,3.97-.61.37-1.36.43-2.02.16,0,.89-.5,1.71-1.3,2.11v.08Zm-.81-1.94c.53-.34.69-1.04.35-1.58,0-.01-.02-.03-.03-.04-.41-.65-.97-.89-1.54-.57-.53.34-.69,1.04-.35,1.58,0,.01.02.03.03.04.4.65.97.89,1.54.57Zm1.94-3.73c-.43.28-.58.85-.32,1.3.21.44.74.63,1.19.42,0,0,.02,0,.03-.01.43-.28.58-.85.32-1.3-.21-.44-.74-.63-1.19-.42,0,0-.02,0-.03.01Z"/><path class="cls-42" d="m265.17,292.46h16.69c1.65,0,2.99,1.33,3,2.98,0,0,0,.01,0,.02v35.56c0,1.65-1.33,2.99-2.98,3,0,0-.01,0-.02,0h-16.69c-1.65,0-2.99-1.33-3-2.98,0,0,0-.01,0-.02v-35.56c0-1.65,1.33-2.99,2.98-3,0,0,.01,0,.02,0Z"/><path class="cls-33" d="m277.48,317.73c-.22,0-.44-.02-.65-.08-.49-.07-.98-.18-1.46-.32-.57-.08-1.22-.24-1.78-.32-.73-.16-1.38-.24-2.11-.4-.11.01-.23-.02-.32-.08-.22-.08-.33-.32-.25-.54,0,0,0-.02.01-.03.17-.31.3-.63.4-.97.24-.57.49-1.05.73-1.62.19-.37.4-.72.65-1.05.33-.51,1-.65,1.51-.33.1.07.2.15.27.25.18.2.34.42.49.65.32.57.73,1.05,1.05,1.62l1.7,2.67c.04.09.1.17.16.24.08.24,0,.41-.32.41l-.08-.08Z"/><path class="cls-33" d="m278.7,305.01h.24c.24,0,.32.16.24.32s-.16.24-.24.4c-.65.81-1.22,1.62-1.86,2.43s-1.22,1.46-1.78,2.11c-.31.33-.7.58-1.13.73-.51.1-1.04-.02-1.46-.32-.24-.22-.45-.47-.65-.73-.57-.89-1.13-1.7-1.7-2.59-.24-.41-.49-.81-.73-1.13h0c-.16-.32,0-.49.24-.49l3.48-.24c1.05,0,2.11-.16,3.08-.24.73-.01,1.46-.07,2.19-.16h0l.08-.08Z"/><path class="cls-33" d="m276.02,292.46h16.69c1.65,0,2.99,1.33,3,2.98,0,0,0,.01,0,.02v35.56c0,1.65-1.33,2.99-2.98,3,0,0-.01,0-.02,0h-16.69c-1.65,0-2.99-1.33-3-2.98,0,0,0-.01,0-.02v-35.56c0-1.65,1.33-2.99,2.98-3,0,0,.01,0,.02,0Z"/><path class="cls-87" d="m292.71,292.46h-16.69c-1.65,0-2.99,1.33-3,2.98,0,0,0,.01,0,.02v35.56l22.6-35.56c0-1.65-1.33-2.99-2.98-3,0,0-.01,0-.02,0h.08Z"/><path class="cls-29" d="m293.92,332.96h-19.12c-.76-.04-1.34-.68-1.3-1.44,0,0,0-.01,0-.02v-35.96c-.05-.82.56-1.53,1.38-1.62h18.95c.76.04,1.34.68,1.3,1.44,0,0,0,.01,0,.02v36.13c.05.75-.52,1.41-1.28,1.46,0,0-.01,0-.02,0h.08Z"/><path class="cls-62" d="m286.07,306.07h-.32c-.28-.02-.55-.08-.81-.16-.32,0-.65-.16-.97-.16-.36-.04-.71-.12-1.05-.24h-.16c-.16,0-.16-.16-.16-.32s.16-.32.24-.49.24-.57.4-.81c.08-.21.19-.4.32-.57.15-.25.48-.32.73-.16.07.04.12.1.16.16.08.08.16.24.24.32.16.29.35.56.57.81.32.49.57.89.89,1.38v.16c0,.16,0,.24-.16.24l.08-.16Z"/><path class="cls-62" d="m286.71,299.43h.16c.08,0,.16.08.08.16-.04.09-.1.17-.16.24l-.97,1.22c-.32.36-.62.74-.89,1.13-.15.18-.35.32-.57.41-.25.02-.51-.03-.73-.16-.15-.1-.26-.24-.32-.41-.32-.49-.57-.89-.89-1.38-.14-.17-.25-.36-.32-.57h0c0-.16,0-.24.16-.24.62-.01,1.25-.07,1.86-.16.54.01,1.08-.01,1.62-.08h1.13l-.16-.16Z"/><path d="m280.64,317.33c.62-.02,1.22.18,1.7.57.42.43.66,1.02.65,1.62.02.65-.25,1.27-.73,1.7-.5.4-1.14.6-1.78.57-1.08.06-2.08-.55-2.51-1.54l1.54-.89c.11.44.52.75.97.73.49,0,.4,0,.57-.16s.16-.24.16-.49,0-.32-.16-.49c-.15-.14-.36-.2-.57-.16h-2.19l.24-3.97h3.97v1.62h-2.43v.73h.4l.16.16Z"/><path d="m290.44,317.89v.73c.03.91-.33,1.79-.97,2.43-.65.62-1.53.94-2.43.89-.97.03-1.92-.35-2.59-1.05-.66-.67-1.03-1.57-1.05-2.51-.03-.95.35-1.87,1.05-2.51.67-.66,1.57-1.03,2.51-1.05.62-.03,1.24.11,1.78.4.51.24.94.64,1.22,1.13l-1.46.81c-.13-.22-.33-.4-.57-.49-.29-.1-.59-.15-.89-.16-.48-.03-.95.15-1.3.49-.34.38-.51.87-.49,1.38-.03.48.15.95.49,1.3.39.38.92.58,1.46.57.64.04,1.25-.31,1.54-.89h-1.62v-1.46h3.32Z"/><path class="cls-20" d="m274.56,331.83c-.32.57-1.13.32-1.13-.4v-35.88c-.05-.82.56-1.53,1.38-1.62h19.2c.44.07.74.49.67.93-.02.1-.05.2-.1.29l-20.01,36.69Z"/><path class="cls-69" d="m286.71,295.21c.01.21-.14.39-.35.4-.02,0-.03,0-.05,0h-3.81c-.21.01-.39-.14-.4-.35,0-.02,0-.03,0-.05h0c-.01-.21.14-.39.35-.41.02,0,.03,0,.05,0h3.81c.21-.01.39.14.4.35,0,.02,0,.03,0,.05Z"/><rect class="cls-39" x="264.03" y="294.48" width="7.94" height="7.69" rx="1.62" ry="1.62"/><circle cx="266.14" cy="296.91" r=".73"/><path class="cls-55" d="m266.22,298.21c-.89,0-1.62-.73-1.62-1.62,0-.89.73-1.62,1.62-1.62.89,0,1.62.73,1.62,1.62,0,.03,0,.05,0,.08,0,.86-.71,1.55-1.57,1.54-.02,0-.03,0-.05,0Zm-.73-1.7c-.06.19-.03.4.08.57.14.31.48.48.81.4.31-.05.56-.27.65-.57.12-.36-.06-.75-.4-.89-.17-.11-.37-.13-.57-.08-.4,0-.65.24-.57.65v-.08Z"/><path class="cls-83" d="m266.06,295.86c.19-.01.39.01.57.08.32.17.48.54.41.89,0,.32-.32.49-.65.57-.33.04-.65-.12-.81-.41-.11-.17-.14-.38-.08-.57.08,0,.24.08.32.08,0,.16,0,.41.24.41s.4,0,.49-.24,0-.49-.4-.57c0-.16,0-.32-.16-.41l.08.16Z"/><path class="cls-68" d="m266.06,295.86c.1.11.16.25.16.4-.06.14-.18.26-.32.32-.16,0-.24,0-.32-.08-.08-.4.16-.65.57-.65h-.08Z"/><circle cx="269.7" cy="296.91" r=".73"/><path class="cls-55" d="m269.87,298.21c-.89,0-1.62-.73-1.62-1.62,0-.89.73-1.62,1.62-1.62.89,0,1.62.73,1.62,1.62,0,.03,0,.05,0,.08,0,.86-.71,1.55-1.57,1.54-.02,0-.03,0-.05,0Zm-.73-1.7c-.06.19-.03.4.08.57.14.31.48.48.81.4.31-.05.56-.27.65-.57.12-.36-.06-.75-.4-.89-.17-.11-.37-.13-.57-.08-.41,0-.65.24-.57.65v-.08Z"/><path class="cls-83" d="m269.62,295.86c.19-.01.39.01.57.08.32.17.48.54.4.89,0,.32-.32.49-.65.57-.33.04-.65-.12-.81-.41-.11-.17-.14-.38-.08-.57.08,0,.24.08.32.08,0,.16,0,.41.24.41s.4,0,.49-.24,0-.49-.4-.57c0-.16,0-.32-.16-.41l.08.16Z"/><path class="cls-68" d="m269.62,295.86c.1.11.16.25.16.4-.06.14-.18.26-.32.32-.16,0-.24,0-.32-.08-.08-.4.16-.65.57-.65h-.08Z"/><circle cx="266.14" cy="299.99" r=".4"/><path class="cls-79" d="m266.22,300.72c-.49,0-.89-.4-.89-.89s.4-.89.89-.89.89.4.89.89c0,.49-.4.89-.89.89Zm-.4-.97v.32c.1.17.29.27.49.24.17-.01.31-.15.32-.32,0-.16,0-.4-.24-.49h-.32c-.24,0-.4.16-.32.32l.08-.08Z"/><path class="cls-38" d="m266.14,299.43h.32c.16.11.25.29.24.49-.01.17-.15.31-.32.32-.16,0-.41,0-.49-.24,0-.08-.08-.16,0-.32h.16c0,.08,0,.24.16.24s.24,0,.24-.08,0-.24-.24-.32v-.24l-.08.16Z"/><path class="cls-47" d="m266.14,299.43s.08.16,0,.24-.08.16-.16.16h-.16c0-.24,0-.32.32-.32v-.08Z"/><circle cx="269.79" cy="299.99" r=".24"/><path class="cls-55" d="m269.87,300.32c-.27,0-.49-.22-.49-.49s.22-.49.49-.49.49.22.49.49c-.02.26-.23.47-.49.49Zm-.24-.57v.16c.02.08.11.13.19.11.02,0,.04-.01.05-.03.09,0,.15-.08.16-.16,0-.08,0-.24-.16-.24h-.16c-.16,0-.24.08-.16.16h.08Z"/><path class="cls-83" d="m269.79,299.59h.16c.08,0,.16.16.16.24,0,.09-.08.15-.16.16-.08,0-.24,0-.24-.08v-.16h.08c0,.06.03.12.08.16h.16c0-.08,0-.16-.16-.16v-.16h-.08Z"/><path class="cls-68" d="m269.79,299.59v.16l-.08.08h-.08c0-.08,0-.16.16-.16v-.08Z"/><circle class="cls-7" cx="358.52" cy="304.61" r="36.45"/><path d="m340.54,283.87c1.92,1.57,2.19,4.4.62,6.32-.12.14-.24.28-.38.41-1.78,2.13-4.94,2.42-7.07.64-2.13-1.78-2.42-4.94-.64-7.07.08-.1.17-.2.26-.29,1.11-1.26,2.79-1.87,4.46-1.62l-.49,2.11c-.92-.12-1.84.25-2.43.97-1.08,1.09-1.07,2.84.02,3.92.05.05.09.09.14.13,1.22,1.13,2.84,1.05,4.13-.32.83-.7,1.06-1.87.57-2.83l-1.78,1.86-1.38-1.3,3.32-3.56.57.57.08.08Z"/><path d="m349.53,280.55c.92,1.68.3,3.78-1.37,4.7,0,0,0,0,0,0-.67.37-1.47.43-2.19.16l1.54,3.08-1.86.89-4.29-8.67,1.86-.89.32.57c.24-.74.76-1.35,1.46-1.7,1.74-.76,3.77.04,4.54,1.78v.08Zm-1.86.89c-.36-.82-1.31-1.19-2.13-.83-.02,0-.04.02-.05.02-.8.32-1.18,1.23-.85,2.03.03.08.08.16.12.24.4.81,1.38,1.13,2.19.73.81-.4,1.13-1.38.73-2.19h0Z"/><path d="m357.47,278.37l.65,4.21-2.03.32-.57-3.89c-.06-.65-.64-1.13-1.29-1.06-.03,0-.06,0-.09.01-.73.08-1.22.65-1.05,1.62l.57,3.73-2.03.32-1.46-9.56,2.03-.32.49,3.4c.39-.63,1.05-1.05,1.78-1.13,1.38-.24,2.67.57,3,2.43v-.08Z"/><path d="m359.09,279.09c.3-1.99,2.14-3.36,4.13-3.08,1.95.24,3.34,2.01,3.1,3.96,0,.06-.02.12-.03.17-.3,1.99-2.14,3.36-4.13,3.08-1.97-.26-3.35-2.07-3.09-4.04,0-.03,0-.06.01-.09Zm5.18.81c.19-.83-.33-1.65-1.16-1.84-.04,0-.09-.02-.13-.02-.8-.17-1.58.34-1.75,1.13-.02.08-.03.16-.03.24-.15.87.43,1.7,1.3,1.86.8.17,1.58-.34,1.75-1.13.02-.08.03-.16.03-.24h0Z"/><path d="m374.08,282.9l-1.86,3.81-1.86-.89,1.7-3.56c.32-.52.15-1.21-.37-1.53-.06-.04-.13-.07-.2-.09-.6-.33-1.35-.11-1.68.49-.04.08-.07.16-.1.24l-1.62,3.4-1.86-.89,3-6.24,1.86.89-.24.57c.67-.34,1.46-.31,2.11.08,1.22.57,1.86,2.02,1.05,3.73h.08Z"/><path d="m376.59,288.33c.32.37.81.55,1.3.49l.57,1.78c-1.15.24-2.34-.13-3.16-.97-1.54-1.26-1.76-3.52-.5-5.06.06-.07.12-.14.18-.2,1.29-1.47,3.53-1.62,5.01-.33.06.05.12.11.18.17,1.41,1.26,1.52,3.43.26,4.84-.06.06-.12.12-.18.18-.18.23-.4.42-.65.57l-3.56-3.32c-.32.73,0,1.3.57,1.86h0Zm2.67-.97c.37-.59.23-1.36-.32-1.78-.48-.51-1.26-.62-1.86-.24l2.19,2.02Z"/><path d="m386.47,298.78l-5.27-.97-.97-2.35,3.64.73c-.59-1.79.38-3.72,2.17-4.31,1.71-.56,3.56.29,4.23,1.96.83,1.68.15,3.71-1.53,4.54-.06.03-.11.05-.17.08-.64.28-1.34.36-2.02.24l-.08.08Zm-.57-3c.29.69,1.09,1.02,1.78.73.69-.29,1.02-1.09.73-1.78-.29-.69-1.09-1.02-1.78-.73-.69.28-1.02,1.06-.74,1.75,0,.01,0,.02.01.03Z"/><path class="cls-75" d="m372.94,297.4l-13.45-4.54c-1-.32-2.08-.32-3.08,0l-13.45,4.54c-1.23.44-2.04,1.61-2.02,2.92v28.84c.01.95.46,1.85,1.21,2.43.52.38,1.14.58,1.78.57q.65,0,.97-.16l11.99-4.05c.74-.24,1.53-.24,2.27,0l11.99,4.05c.93.31,1.95.16,2.75-.41.79-.56,1.24-1.47,1.22-2.43v-28.84c-.08-1.32-.94-2.47-2.19-2.92h0Z"/><path class="cls-29" d="m372.29,298.78l-13.2-4.45c-.74-.24-1.53-.24-2.27,0l-13.2,4.45c-.78.24-1.31.96-1.3,1.78v28.59c.02.42.23.81.57,1.05.24.16.52.25.81.24h.4l13.12-4.45c.44-.16.93-.16,1.38,0l13.2,4.45c.42.13.88.03,1.21-.24.34-.25.55-.63.57-1.05v-28.59c-.02-.81-.53-1.52-1.3-1.78h0Z"/><path class="cls-29" d="m372.29,329.15h0l-13.2-4.45c-.74-.24-1.53-.24-2.27,0l-13.12,4.45v-28.59c-.02-.24.16-.46.4-.49l13.2-4.46c.24,0,.49-.08.73-.08.25-.01.49.01.73.08l13.2,4.46c.22.07.37.26.4.49v28.59h-.08Z"/><path d="m368.49,302.1l-10.04-3c-.26-.08-.55-.08-.81,0l-10.69,3.48c-.38.13-.64.49-.65.89v7.13c.02.25.14.48.32.65.15.09.31.15.49.16h.24l10.69-3.48h0l10.04,3c.25.05.5.03.73-.08.19-.17.3-.4.32-.65v-7.13c-.07-.4-.35-.74-.73-.89h0l.08-.08Z"/><path d="m367.84,309.47l-9.48-2.84c-.26-.08-.55-.08-.81,0l-10.12,3.24v-6.32l10.53-3.32h0l9.88,3v6.24Z"/><path d="m354.96,321.78c-.22.02-.44.08-.65.16l-1.46.24c-.57.08-1.13.24-1.78.32-.69.15-1.4.26-2.11.32h-.32c-.24,0-.32-.16-.24-.32.16-.32.24-.65.4-.97.24-.49.49-1.05.73-1.54.16-.37.35-.72.57-1.05.34-.64,1.11-.92,1.78-.65.18.11.34.25.49.41.32.32.73.65,1.05.97.57.49,1.13,1.05,1.62,1.54l.16.16c.08.16,0,.32-.32.41h.08Z"/><path d="m356.09,310.85h.24c.24,0,.32,0,.24.24s-.16.32-.24.49c-.65.89-1.22,1.78-1.86,2.67-.55.82-1.14,1.6-1.78,2.35-.29.39-.65.71-1.05.97-.44.25-.97.31-1.46.16-.24,0-.49-.24-.65-.4-.57-.57-1.22-1.05-1.78-1.62l-.73-.73h0c-.16-.24,0-.41.24-.49,1.22-.49,2.43-.89,3.56-1.38l3.16-1.22c.73-.32,1.46-.57,2.19-.81h0l-.08-.24Z"/><path d="m362.57,315.38c.69.22,1.25.72,1.54,1.38.45.85.67,1.8.65,2.75.07.86-.16,1.72-.65,2.43-.38.49-1.05.66-1.62.41-.55-.21-1.03-.57-1.38-1.05-.43-.6-.71-1.3-.81-2.02l1.38-.89c.16.73.4,1.22.89,1.38s.4,0,.49-.08.16-.32.16-.65c.03-.28-.02-.56-.16-.81-.12-.18-.29-.32-.49-.4l-1.94-.57.24-5.99,3.65.97v2.59l-2.19-.65v1.13l.4.16-.16-.08Z"/><path d="m372.05,318.95v1.13c.09,1.29-.25,2.57-.97,3.65-.54.78-1.55,1.08-2.43.73-1.13-.44-2.03-1.32-2.51-2.43-.66-1.33-1-2.8-.97-4.29-.07-1.31.27-2.61.97-3.73.5-.83,1.49-1.23,2.43-.97.7.14,1.31.54,1.7,1.13.57.62.99,1.37,1.22,2.19l-1.46.97c-.12-.36-.31-.69-.57-.97-.24-.26-.55-.46-.89-.57-.49-.18-1.05.02-1.3.49-.36.61-.53,1.32-.49,2.03-.02.78.15,1.56.49,2.27.26.6.76,1.07,1.38,1.3.62.21,1.28-.13,1.49-.74.03-.08.04-.15.05-.23l-1.62-.49v-2.43l3.48,1.05v-.08Z"/><circle class="cls-7" cx="41.48" cy="304.61" r="36.45"/><path d="m23.25,284.2c1.83,1.5,2.09,4.21.58,6.03-.08.1-.17.19-.26.29-1.72,2.01-4.75,2.25-6.76.52-.01-.01-.03-.02-.04-.04-1.95-1.76-2.1-4.76-.34-6.7,0,0,.01-.01.02-.02,1.04-1.21,2.64-1.79,4.21-1.54l-.4,2.02c-.86-.13-1.73.21-2.27.89-.99,1.01-.98,2.63.03,3.62.07.07.14.13.21.19,1.13,1.05,2.67.97,3.89-.32.77-.67.97-1.78.49-2.67l-1.62,1.78-1.38-1.22,3.08-3.4.57.49v.08Z"/><path d="m31.51,280.88c.92,1.54.42,3.53-1.12,4.44,0,0-.01,0-.02.01-.63.39-1.4.48-2.11.24l1.54,2.83-1.7.89-4.29-8.02,1.7-.89.32.57c.18-.7.65-1.29,1.3-1.62,1.63-.77,3.58-.09,4.37,1.54Zm-1.7.89c-.33-.74-1.2-1.07-1.94-.74-.06.03-.11.06-.17.09-.75.36-1.06,1.26-.7,2.01.02.03.03.06.05.09.33.74,1.2,1.07,1.94.74.06-.03.11-.06.17-.09.75-.36,1.06-1.26.7-2.01-.02-.03-.03-.06-.05-.09h0Z"/><path d="m38.8,278.53l.81,3.89-1.94.41-.73-3.65c-.04-.57-.54-.99-1.1-.95-.09,0-.19.03-.28.06-.6.06-1.04.61-.98,1.21.01.11.04.22.09.33l.73,3.48-1.94.4-1.86-8.91,1.94-.4.65,3.16c.32-.63.92-1.05,1.62-1.13,1.31-.28,2.6.56,2.88,1.88.02.08.03.15.04.23h.08Z"/><path d="m40.26,279.09c.11-1.9,1.75-3.35,3.65-3.24s3.35,1.75,3.24,3.65-1.75,3.35-3.65,3.24c-.03,0-.05,0-.08,0-1.87-.13-3.29-1.75-3.16-3.63,0,0,0-.01,0-.02Zm4.94.4c.08-.81-.51-1.53-1.32-1.62-.02,0-.04,0-.06,0-.82-.06-1.54.55-1.62,1.38-.08.81.51,1.53,1.32,1.62.02,0,.04,0,.06,0,.82.06,1.54-.55,1.62-1.38Z"/><path d="m54.6,281.52l-1.38,3.73-1.78-.73,1.3-3.48c.28-.51.1-1.16-.41-1.44-.07-.04-.15-.07-.24-.1-.62-.25-1.32.05-1.57.67-.02.05-.04.1-.05.14l-1.3,3.32-1.78-.73,2.27-6.07,1.78.73-.24.57c.62-.37,1.4-.37,2.02,0,1.22.49,1.94,1.7,1.3,3.4h.08Z"/><path d="m57.35,286.38c.37.29.84.41,1.3.32l.73,1.62c-1.94.48-3.9-.71-4.38-2.65-.24-.98-.06-2.01.49-2.86,1.05-1.49,3.11-1.84,4.6-.79.06.04.12.09.18.14,1.44,1.06,1.76,3.08.7,4.53-.04.06-.09.11-.13.17-.15.23-.34.42-.57.57l-3.64-2.75c-.17.64.13,1.32.73,1.62v.08Zm2.35-1.22c.29-.58.08-1.29-.49-1.62-.51-.45-1.27-.45-1.78,0l2.27,1.7v-.08Z"/><path d="m66.75,295.94c-1.7,1.05-3.4.16-4.29-1.3-.77-1.15-.77-2.65,0-3.81l1.78,1.05c-.43.47-.47,1.19-.08,1.7.21.54.81.82,1.36.61.03-.01.07-.03.1-.04.49-.32.65-.81.24-1.54l-1.46-2.43,4.7-2.35,2.67,4.54-1.7.97-1.7-2.84-1.13.57.4.65c.92,1.26.64,3.03-.62,3.95-.14.1-.28.19-.44.26h.16Z"/><path class="cls-61" d="m32.24,289.22h18.63c1.82-.02,3.3,1.44,3.32,3.26,0,.02,0,.04,0,.07v39.77c.02,1.82-1.44,3.3-3.26,3.32-.02,0-.04,0-.07,0h-18.63c-1.82.02-3.3-1.44-3.32-3.26,0-.02,0-.04,0-.07v-39.77c-.02-1.82,1.44-3.3,3.26-3.32.02,0,.04,0,.07,0Z"/><path class="cls-1" d="m50.87,289.22h-18.63c-1.82-.02-3.3,1.44-3.32,3.26,0,.02,0,.04,0,.07v39.77l25.27-39.77c.02-1.82-1.44-3.3-3.26-3.32-.02,0-.04,0-.07,0Z"/><path class="cls-17" d="m52.25,329.72h-21.38c-.76,0-1.38-.63-1.38-1.39,0-.02,0-.04,0-.07v-35.8c0-.86.68-1.58,1.54-1.62h21.22c.76,0,1.38.63,1.38,1.39,0,.02,0,.04,0,.07v35.96c.01.78-.6,1.43-1.38,1.46Z"/><path class="cls-9" d="m43.26,334.09h-.4c-.28-.01-.55-.07-.81-.16-.32,0-.65-.16-.97-.16-.39-.03-.77-.12-1.13-.24h-.16c-.16,0-.16-.16-.16-.32.05-.2.13-.39.24-.57.12-.3.25-.6.4-.89.08-.16.24-.41.32-.57.16-.27.51-.36.78-.19.08.05.15.11.19.19.08.08.16.24.32.41.16.32.4.57.57.89l.97,1.46v.16c0,.16,0,.24-.16.24v-.24Z"/><path class="cls-57" d="m43.42,304.37h-.4c-.3-.01-.6-.07-.89-.16-.36-.04-.71-.12-1.05-.24-.41-.04-.82-.12-1.22-.24h-.16c-.16,0-.16-.16-.16-.32s.16-.41.24-.57c.16-.32.24-.65.4-.97.09-.2.2-.39.32-.57.2-.29.6-.36.89-.16.06.04.12.1.16.16.13.12.24.25.32.4.22.31.41.63.57.97.32.49.65,1.05.97,1.54v.16c0,.16,0,.24-.16.24l.16-.24Z"/><path class="cls-57" d="m44.15,297h.16c.16,0,.16.08.16.24s-.08.16-.16.24c-.41.49-.73.97-1.13,1.38-.33.42-.68.83-1.05,1.21-.18.18-.41.32-.65.41-.28.03-.56-.02-.81-.16-.15-.1-.26-.24-.32-.41-.32-.49-.65-.97-.97-1.54-.12-.23-.25-.44-.4-.65h0c-.08-.16,0-.24.16-.24.68-.01,1.35-.07,2.03-.16.6-.01,1.19-.07,1.78-.16h1.3l-.08-.16Z"/><path d="m38.32,317.49c.46.12.87.41,1.13.81.29.37.43.83.4,1.3.06.72-.24,1.42-.81,1.86-.59.43-1.3.66-2.03.65-.59.02-1.18-.12-1.7-.41-.48-.31-.84-.77-1.05-1.3l1.7-.97c.08.51.54.86,1.05.81.57,0,.49,0,.65-.16.14-.12.23-.3.24-.49,0-.16,0-.41-.24-.49-.2-.1-.42-.16-.65-.16h-.4l-.73-1.13,1.22-1.46h-2.51v-1.86h4.94v1.54l-1.3,1.54.08-.08Z"/><path d="m48.36,317.57v.81c.07,1-.32,1.98-1.05,2.67-.73.72-1.73,1.1-2.75,1.05-1.08.02-2.13-.39-2.92-1.13-.75-.75-1.16-1.78-1.13-2.83,0-1.06.4-2.07,1.13-2.84.75-.75,1.78-1.16,2.84-1.13.68-.07,1.37.1,1.94.49.57.3,1.04.75,1.38,1.3l-1.62.97c-.18-.23-.4-.42-.65-.57-.3-.17-.63-.25-.97-.24-1.14.02-2.05.97-2.02,2.11.01.51.21,1,.56,1.37.42.44,1.01.67,1.62.65.73.04,1.42-.34,1.78-.97h-1.86v-1.7h3.73Z"/><path class="cls-20" d="m30.54,327.69c-.19.31-.59.41-.9.22-.19-.12-.31-.32-.31-.54v-34.91c-.03-.82.62-1.51,1.44-1.54.03,0,.07,0,.1,0h21.38c.42,0,.75.34.75.76,0,.13-.04.26-.1.38l-22.36,35.72v-.08Z"/><polyline class="cls-1" points="44.72 292.46 37.99 292.46 36.62 289.22 46.25 289.22"/><path class="cls-9" d="m44.15,291.41c-.02.26-.23.47-.49.49h-4.29c-.26-.02-.47-.23-.49-.49h0c.02-.26.23-.47.49-.49h4.29c.26.02.47.23.49.49Z"/><circle class="cls-5" cx="59.84" cy="54.44" r="40.5"/><path class="cls-35" d="m47.33,60.74v-17.64c0-1.35.27-1.71,1.53-2.25h.18c.09.18.27,0,.45,0h17.37c.96.09,1.67.93,1.62,1.89v40.23c.06.86-.45,1.66-1.26,1.98h-17.73c-1.09.1-2.06-.71-2.16-1.8-.01-.12-.01-.24,0-.36v-22.05Zm14.58,18.54h3.06c.52,0,.95-.39.99-.9v-31.05c-.07-.5-.49-.88-.99-.9h-10.89c-.58-.02-1.06.43-1.08,1.01,0,.02,0,.05,0,.07v30.69c-.02.58.43,1.06,1.01,1.08.02,0,.05,0,.07,0h7.83Z"/><path class="cls-21" d="m67.13,84.95c.79-.34,1.29-1.12,1.26-1.98v-40.23c.02-.95-.68-1.77-1.62-1.89h3.51c1.01.35,1.61,1.38,1.44,2.43v39.87c.1,1.04-.65,1.97-1.69,2.07-.13.01-.25.01-.38,0h-2.52v-.27Z"/><path class="cls-21" d="m47.33,52.73v4.32h-4.59c-.73.11-1.42-.39-1.53-1.12-.02-.14-.02-.27,0-.41v-1.44c-.04-.7.5-1.31,1.2-1.35.05,0,.1,0,.15,0h4.77Z"/><path class="cls-21" d="m47.33,68.66v4.32h-4.5c-1.08,0-1.53-.45-1.53-1.53v-1.35c-.07-.73.47-1.37,1.19-1.44.08,0,.16,0,.25,0h4.59Z"/><path class="cls-86" d="m47.33,60.74v4.32h-4.59c-.72.08-1.36-.45-1.43-1.16,0-.06,0-.13,0-.19v-1.53c-.06-.69.46-1.3,1.15-1.36.1,0,.19,0,.29,0h4.68l-.09-.09Z"/><path class="cls-49" d="m71.81,57.05v-4.32h4.59c.66-.08,1.26.39,1.34,1.05,0,.07.01.14,0,.21v1.71c.04.7-.5,1.31-1.2,1.35-.05,0-.1,0-.15,0h-4.59Z"/><path class="cls-49" d="m71.81,72.98v-4.32h4.59c.68-.07,1.28.43,1.35,1.1,0,.08,0,.16,0,.25v1.71c.03.67-.48,1.23-1.14,1.27-.07,0-.14,0-.21,0h-4.59Z"/><path class="cls-49" d="m71.81,65.06v-4.32h4.59c.7-.04,1.31.5,1.35,1.2,0,.05,0,.1,0,.15v1.53c.04.7-.5,1.31-1.2,1.35-.05,0-.1,0-.15,0h-4.59v.09Z"/><path class="cls-86" d="m47.33,44.81v4.32h-4.41c-1.17,0-1.62-.45-1.62-1.62v-1.35c-.03-.67.48-1.23,1.14-1.27.07,0,.14,0,.21,0h4.77l-.09-.09Z"/><path class="cls-86" d="m47.33,76.67v4.32h-4.5c-1.08,0-1.53-.45-1.53-1.53v-1.26c-.09-.71.41-1.35,1.11-1.44.11-.01.22-.01.33,0h4.68l-.09-.09Z"/><path class="cls-2" d="m71.81,49.04v-4.23h4.68c.72-.03,1.32.54,1.35,1.26,0,0,0,0,0,0v1.71c.03.67-.48,1.23-1.14,1.27-.07,0-.14,0-.21,0h-4.68Z"/><path class="cls-2" d="m71.81,80.9v-4.23h4.68c.72-.03,1.32.54,1.35,1.26,0,0,0,0,0,0v1.71c.03.67-.48,1.23-1.14,1.27-.07,0-.14,0-.21,0h-4.68Z"/><path class="cls-52" d="m62,79.28h-7.83c-.58.02-1.06-.43-1.08-1.01,0-.02,0-.05,0-.07v-30.69c-.02-.58.43-1.06,1.01-1.08.02,0,.05,0,.07,0h7.83c.56.25.89.83.81,1.44v29.97c.08.61-.25,1.19-.81,1.44Zm-1.71-20.43c-.9.18-1.8.27-2.7.45q-.9.18-.9,1.08c0,.36.18.45.45.45h4.86c.36,0,.45-.09.45-.45s-.09-.45-.45-.45h-3.15c.99-.27,2.07-.45,3.06-.63.27,0,.54,0,.54-.45.04-.26-.14-.5-.4-.54-.05,0-.09,0-.14,0h-.45c-.9-.18-1.8-.27-2.7-.45h3.24c.36,0,.45-.18.45-.45s-.09-.45-.45-.45h-4.41c-1.44,0-.99,0-.9.99,0,.27.09.36.36.36.67.08,1.33.2,1.98.36.44-.03.87.06,1.26.27v-.09Zm-.72,10.08h2.43c.45,0,.45-.27.45-.63s0-.63-.45-.54h-1.89c-.09,0-.27,0-.27-.09s.18-.09.27-.18l1.98-.54c.36,0,.45-.54.36-.9s-.36-.27-.63-.18c-.61.17-1.21.38-1.8.63-.27,0-.36,0-.54-.18-.36-.54-.99-.54-1.62-.54s-.9.45-1.08.99,0,.99-.09,1.53c0,.36.09.54.54.54h2.34v.09Zm-2.88-5.49c0,.36,0,.54.45.63,1.53.27,3.06.63,4.59.99.72.18.81,0,.72-.63,0-.27,0-.45-.36-.45-.24.01-.49-.02-.72-.09-.09,0-.18,0-.18-.18-.09-.45,0-.63.45-.72.16.01.31-.02.45-.09.27,0,.45-.45.27-.9,0-.36-.27-.27-.54-.18-1.62.36-3.15.72-4.77.99-.36,0-.54.18-.45.63h.09Z"/><path class="cls-56" d="m62,79.28c.56-.25.89-.83.81-1.44v-29.97c.08-.61-.25-1.19-.81-1.44h3.06c.52,0,.95.39.99.9v31.05c-.07.5-.49.88-.99.9h-3.06Z"/><path class="cls-48" d="m60.2,58.85c-.36-.27-.81-.18-1.26-.27-.65-.16-1.31-.28-1.98-.36-.18.02-.34-.12-.36-.3,0-.02,0-.04,0-.06q0-.99.9-.99h4.41c.36,0,.45.09.45.45s0,.45-.45.45h-3.24c.9.18,1.8.27,2.7.45h.45c.26-.04.5.14.54.4,0,.05,0,.09,0,.14,0,.45-.27.45-.54.45-.99.18-2.07.36-3.06.63h3.15c.36,0,.45.09.45.45s-.09.45-.45.45h-4.86c-.36,0-.45,0-.45-.45,0-.9,0-.99.9-1.08s1.71-.27,2.7-.45v.09Z"/><path class="cls-84" d="m59.57,68.93h-2.34c-.26.04-.5-.14-.54-.4,0-.05,0-.09,0-.14-.01-.51.02-1.02.09-1.53.11-.53.54-.93,1.08-.99.63,0,1.26,0,1.62.54.18.27.27.27.54.18.61-.17,1.21-.38,1.8-.63.27,0,.45-.18.63.18.17.29.08.67-.22.84-.05.03-.09.05-.14.06l-1.98.54c-.09,0-.27,0-.27.18s.18.09.27.09h1.89c.45,0,.45.27.45.54s0,.63-.45.63h-2.43v-.09Zm-1.26-1.17h.36c.18,0,.36.09.45-.18s0-.45-.27-.54c-.32-.09-.67-.09-.99,0-.27.09-.27.27-.27.54s.18.18.36.18h.36Z"/><path class="cls-48" d="m56.69,63.44c0-.36.09-.54.45-.63,1.62-.36,3.15-.72,4.77-.99.18,0,.45-.09.54.18.09.45,0,.81-.27.9-.16-.01-.31.02-.45.09-.45,0-.54.27-.45.72,0,.1.08.17.18.18.27,0,.45.09.72.09s.36.18.36.45c0,.72,0,.81-.72.63-1.53-.36-3.06-.63-4.59-.99-.25.01-.47-.18-.48-.43,0-.07,0-.13.03-.2h-.09Zm1.89,0h0c.58.05,1.15.14,1.71.27q.27,0,.27-.27c0-.27,0-.36-.18-.27l-1.71.27h-.09Z"/><path class="cls-30" d="m58.31,67.76h-.45c-.18,0-.36,0-.36-.18s0-.45.27-.54c.32-.09.67-.09.99,0,.27,0,.36.27.27.54s-.27.09-.45.18h-.27Z"/><path class="cls-65" d="m58.58,63.44c.58-.05,1.15-.14,1.71-.27.27,0,.18.18.18.27s0,.27-.27.27l-1.71-.27h.09Z"/><path d="m29.96,49.04l-.27.99,3.06.72-.54,2.07-9.18-2.25.9-3.69c.45-1.74,2.21-2.79,3.95-2.34,0,0,0,0,0,0,1.14.27,2.02,1.19,2.25,2.34l3.87-1.17-.54,2.25-3.42.99-.09.09Zm-2.07.54l.36-1.53c.12-.62-.28-1.22-.9-1.35-.59-.18-1.22.14-1.44.72l-.36,1.53,2.34.54v.09Z"/><path d="m31.58,36.44l5.85,3.33-.99,1.8-.54-.27c.26.72.16,1.52-.27,2.16-1.2,1.58-3.46,1.89-5.05.68-1.29-.98-1.76-2.69-1.16-4.19.36-.67.98-1.16,1.71-1.35l-.54-.27.99-1.8v-.09Zm1.98,3.42c-.71-.47-1.67-.27-2.14.44-.04.06-.07.12-.11.19-.46.74-.23,1.72.51,2.18.04.02.08.05.12.07.71.47,1.67.27,2.14-.44.04-.06.07-.12.11-.19.46-.74.23-1.72-.51-2.18-.04-.02-.08-.05-.12-.07Z"/><path d="m42.65,29.15l2.7,3.15-1.53,1.35-2.61-2.97c-.45-.54-.99-.63-1.44-.18-.45.39-.5,1.06-.11,1.51.03.04.07.08.11.11l2.52,2.88-1.53,1.35-2.61-2.97c-.45-.54-.99-.63-1.44-.18-.45.39-.5,1.06-.11,1.51.03.04.07.08.11.11l2.52,2.88-1.53,1.35-4.5-5.04,1.53-1.35.45.45c0-.69.3-1.34.81-1.8.49-.5,1.21-.71,1.89-.54-.02-.76.31-1.49.9-1.98,1.04-.95,2.66-.88,3.61.16.06.07.12.13.17.2h.09Z"/><path d="m55.16,29.42l-1.08-.63c-.57.65-1.32,1.12-2.16,1.35-1.89.54-3.51-.18-3.96-1.89-.27-1.05,0-2.16.72-2.97-.39-.35-.65-.83-.72-1.35-.45-1.53.45-2.97,2.25-3.42,1.3-.41,2.71.06,3.51,1.17l-1.53,1.53c-.29-.51-.86-.79-1.44-.72-.54.18-.81.54-.63.99s.54.72,1.08,1.08l2.16,1.44v-1.53l1.98.54c.01.74-.11,1.47-.36,2.16l1.53.99-1.35,1.35v-.09Zm-2.7-1.71l-2.16-1.35h-.09c-.24.31-.31.71-.18,1.08.18.63.72.99,1.62.72.32-.09.63-.25.9-.45h-.09Z"/><path d="m60.11,26.54l1.98-.81c.16.88.91,1.52,1.8,1.53.99.18,1.35-.18,1.35-.54,0-.54-.45-.9-1.8-1.44-1.35-.54-2.61-1.44-2.34-3.24.28-1.63,1.82-2.72,3.45-2.44.02,0,.04,0,.06.01,1.48.15,2.73,1.18,3.15,2.61l-1.98.81c-.17-.7-.73-1.23-1.44-1.35-.63-.09-1.08.18-1.08.54s.09.72,1.53,1.44c1.44.72,2.88,1.35,2.61,3.33-.27,1.8-1.89,2.7-3.87,2.34-1.66-.08-3.06-1.26-3.42-2.88v.09Z"/><path d="m71.45,26.27l-.81,2.25c-.18.54.27.81,1.08.99l-.63,1.71c-2.61-.63-3.06-1.71-2.34-3.42l.81-2.25-.99-.36.72-1.8.99.36.45-1.17h2.07c0,.09-.63,1.89-.63,1.89l1.26.45-.72,1.8-1.26-.45Z"/><path d="m73.07,28.43c1.07-1.68,3.29-2.18,4.97-1.11,1.68,1.07,2.18,3.29,1.11,4.97-1.07,1.68-3.29,2.18-4.97,1.11,0,0-.02-.01-.03-.02-1.66-1.03-2.17-3.2-1.14-4.86.02-.03.04-.06.06-.09Zm4.32,2.79c.48-.66.34-1.59-.32-2.08-.04-.03-.08-.06-.13-.08-.72-.45-1.67-.24-2.12.48-.01.02-.03.04-.04.06-.48.66-.34,1.59.32,2.08.04.03.08.06.13.08.72.45,1.67.24,2.12-.48.01-.02.03-.04.04-.06h0Z"/><path d="m85.4,33.65l-1.62,1.62c-.42-.77-1.39-1.05-2.16-.63-.13.07-.25.16-.36.27l-2.16,2.16-1.44-1.44,4.77-4.77,1.44,1.44-.81.81c.81-.38,1.78-.16,2.34.54Z"/><path d="m90.17,40.94l-5.67,3.6-1.08-1.71.54-.36c-.74-.17-1.39-.62-1.8-1.26-.93-1.6-.38-3.64,1.21-4.56.02,0,.03-.02.05-.03,1.55-1.06,3.66-.7,4.77.81.41.64.54,1.42.36,2.16l.54-.36,1.08,1.71Zm-3.96.09c.76-.41,1.04-1.36.62-2.11-.03-.05-.05-.09-.08-.14-.42-.73-1.35-.98-2.08-.57-.06.03-.12.07-.17.12-.76.41-1.04,1.36-.62,2.11.03.05.05.09.08.14.4.73,1.32.99,2.04.59.07-.04.14-.09.21-.14Z"/><path d="m93.23,50.12l-6.12,1.8c-2.16.63-3.6-.81-4.05-2.52-.43-1.21-.15-2.56.72-3.51l1.44,1.35c-.46.44-.6,1.12-.36,1.71.11.74.8,1.25,1.54,1.14.09-.01.17-.03.26-.06l.63-.18c-.69-.29-1.19-.89-1.35-1.62-.47-1.79.57-3.62,2.34-4.14,1.74-.57,3.61.37,4.19,2.1.02.05.03.1.04.15.24.72.14,1.52-.27,2.16l.63-.18.54,1.89-.18-.09Zm-3.69-.99c.82-.2,1.32-1.02,1.12-1.83-.01-.05-.03-.1-.04-.15-.23-.86-1.11-1.38-1.98-1.17-.82.2-1.32,1.02-1.12,1.83.01.05.03.1.04.15.23.86,1.11,1.38,1.98,1.17h0Z"/><path d="m88.46,56.24c-.03.48.17.95.54,1.26l-.9,1.62c-.96-.68-1.5-1.8-1.44-2.97-.36-1.96.94-3.83,2.89-4.19,1.96-.36,3.83.94,4.19,2.89.07.37.08.75.03,1.12.02,1.87-1.48,3.4-3.35,3.42-.05,0-.11,0-.16,0h-.81v-4.77c-.65.26-1.06.92-.99,1.62Zm2.43,1.26c.67-.13,1.14-.76,1.08-1.44.08-.69-.4-1.32-1.08-1.44v2.88Z"/><circle class="cls-5" cx="246.72" cy="54.44" r="40.5"/><path class="cls-45" d="m224.4,46.61v-6.66c0-.27,0-.36.36-.36h9.99v1.98q0,.72.72.72h22.41c.45,0,.54-.18.54-.54v-2.16h10.17c.1.16.16.35.18.54v6.12c.04.26-.14.5-.4.54-.04,0-.09,0-.14,0h-1.26c-.96.24-1.55,1.22-1.3,2.19.17.67.71,1.19,1.39,1.32h1.26q.54,0,.54.63v21.87c0,.54,0,.63-.63.63h-1.26c-.96.05-1.71.84-1.71,1.8,0,.94.77,1.71,1.71,1.71h1.26c.54,0,.63,0,.63.63v5.94c0,.18,0,.45-.18.54h-10.17v-2.16c.04-.26-.14-.5-.4-.54-.04,0-.09,0-.14,0h-22.68c-.45,0-.54.18-.54.54v2.16h-9.99c-.27,0-.36,0-.36-.36v-6.84h1.8c.94,0,1.71-.77,1.71-1.71.04-.95-.7-1.76-1.65-1.8-.02,0-.04,0-.06,0h-1.29c-.18,0-.45,0-.54-.18v-22.77c.16-.1.35-.16.54-.18h1.26c.99-.05,1.76-.89,1.71-1.89,0,0,0,0,0,0-.04-.89-.73-1.62-1.62-1.71h-1.26c-.18,0-.45,0-.54-.18l-.06.18Zm36.51,17.37h1.62c.54,0,.72-.27.72-.63,0-.35-.29-.64-.64-.64-.03,0-.05,0-.08,0h-1.62v-1.53h1.62c.54,0,.81-.27.81-.63s-.27-.63-.81-.63h-1.62v-1.53h1.62c.35.06.68-.18.74-.52s-.18-.68-.52-.74c-.07-.01-.14-.01-.21,0h-1.62v-1.53h1.62c.54,0,.72-.27.72-.63,0-.35-.29-.64-.64-.64-.03,0-.05,0-.08,0h-1.62v-1.53h1.62c.54,0,.72-.27.72-.63,0-.35-.29-.64-.64-.64-.03,0-.05,0-.08,0h-1.62v-1.53h1.62c.54,0,.81-.27.81-.63s-.27-.63-.81-.63h-1.62c0-1.17,0-1.08-1.08-1.08v-1.62c0-.54-.27-.72-.63-.72-.35,0-.64.29-.64.64,0,.03,0,.05,0,.08v1.62h-1.53v-1.62c0-.54-.27-.81-.63-.81s-.63.27-.63.81v1.62h-1.53v-1.62c0-.54-.27-.81-.63-.81s-.63.27-.63.81v1.62h-1.53v-1.62c0-.54-.27-.81-.63-.81s-.63.27-.63.81v1.62h-1.53v-1.62c0-.54-.27-.81-.63-.81-.35,0-.64.29-.64.64,0,.03,0,.05,0,.08v1.62h-1.53v-1.62c0-.54-.27-.81-.63-.81s-.63.27-.63.81v1.62h-1.53v-1.62c0-.54-.27-.81-.63-.81s-.63.27-.63.81v1.62h-1.53v-1.62c0-.54-.27-.81-.63-.81s-.63.27-.63.81v1.62h-1.53v-1.62c0-.54-.27-.81-.63-.81s-.63.27-.63.81v1.62h-1.53v-1.62c0-.54-.27-.81-.63-.81s-.63.27-.63.81v1.62c-1.08,0-.99,0-.99,1.08h-1.62c-.54,0-.81.27-.72.63.03.37.35.65.72.63h1.62v1.53h-1.62c-.54,0-.81.27-.81.63s.27.63.81.63h1.62v1.53h-1.62c-.54,0-.81.27-.81.63s.27.63.81.63h1.62v1.53h-1.71c-.4-.05-.76.23-.81.63,0,.36.27.63.81.63h1.71v1.53h-1.62c-.54,0-.72.27-.72.63,0,.35.29.64.64.64.03,0,.05,0,.08,0h1.62v1.53h-1.62c-.54,0-.81.27-.81.63s.27.63.81.63h1.62v1.53h-1.62c-.54,0-.81.27-.81.63s.27.63.81.63h1.62v1.53h-1.62c-.54,0-.72.27-.72.63,0,.35.29.64.64.64.03,0,.05,0,.08,0h1.62v1.53h-1.62c-.54,0-.72.27-.72.63,0,.35.29.64.64.64.03,0,.05,0,.08,0h1.62v1.53h-1.62c-.54,0-.81.27-.81.63s.27.63.81.63h1.62c0,1.08,0,.99,1.08,1.08v1.62c0,.54.27.72.63.72.35,0,.64-.29.64-.64,0-.03,0-.05,0-.08v-1.62h1.53v1.62c0,.54.27.81.63.81s.63-.27.63-.81v-1.62h1.53v1.62c0,.54.27.81.63.81s.63-.27.63-.81v-1.62h1.53v1.62c0,.54.27.72.63.72.35,0,.64-.29.64-.64,0-.03,0-.05,0-.08v-1.62h1.53v1.62c0,.54.27.72.63.72.35,0,.64-.29.64-.64,0-.03,0-.05,0-.08v-1.62h1.53v1.62c0,.54.27.81.63.81s.63-.27.63-.81v-1.62h1.53v1.62c0,.54.27.72.63.72.35,0,.64-.29.64-.64,0-.03,0-.05,0-.08v-1.62h1.53v1.62c0,.54.27.72.63.72.35,0,.64-.29.64-.64,0-.03,0-.05,0-.08v-1.62h1.53v1.62c0,.54.27.72.63.72.35,0,.64-.29.64-.64,0-.03,0-.05,0-.08v-1.62h1.53v1.62c0,.54.27.81.63.81s.63-.27.63-.81v-1.62c1.17,0,.99,0,1.08-1.08h1.62c.54,0,.72-.27.72-.63,0-.35-.29-.64-.64-.64-.03,0-.05,0-.08,0h-1.62v-1.53h1.62c.54,0,.81-.27.81-.63s-.27-.63-.81-.63h-1.62v-1.53h1.62c.54,0,.81-.27.81-.63s-.27-.63-.81-.63h-1.62v-1.53h1.62c.54,0,.72-.27.72-.63,0-.35-.29-.64-.64-.64-.03,0-.05,0-.08,0h-1.62v-1.53l-.09.09Zm-32.94-19.53c.74-.02,1.33-.61,1.35-1.35h0c-.02-.72-.63-1.28-1.35-1.26s-1.28.63-1.26,1.35h0c.04.68.58,1.22,1.26,1.26Zm38.43-1.35c0-.75-.6-1.35-1.35-1.35s-1.35.6-1.35,1.35.6,1.35,1.35,1.35c.72.03,1.32-.54,1.35-1.26,0,0,0,0,0,0h0v-.09Zm-39.69,37.71c0,.75.6,1.35,1.35,1.35s1.35-.6,1.35-1.35h0c-.02-.74-.61-1.33-1.35-1.35h0c-.74.02-1.33.61-1.35,1.35Zm39.69,0c-.02-.74-.61-1.33-1.35-1.35h0c-.75,0-1.35.6-1.35,1.35s.6,1.35,1.35,1.35,1.35-.6,1.35-1.35Z"/><path class="cls-34" d="m255.72,42.29h-20.25q-.72,0-.72-.72v-1.98h21.06v2.7h-.09Z"/><path class="cls-34" d="m234.66,84.14v-2.16c-.04-.26.14-.5.4-.54.04,0,.09,0,.14,0h20.43v2.7h-20.97Z"/><path class="cls-43" d="m255.72,42.29v-2.7h2.7v2.16c.04.26-.14.5-.4.54-.04,0-.09,0-.14,0h-2.16Z"/><path class="cls-43" d="m255.81,84.14v-2.7h2.16c.26-.04.5.14.54.4,0,.05,0,.09,0,.14v2.16h-2.7Z"/><path class="cls-31" d="m236.1,76.22h-2.79c-1.08,0-.99,0-1.08-1.08v-26.55c0-1.08,0-.99,1.08-1.08h24.84v2.88c-.12-.11-.28-.18-.45-.18h-22.05q-.72,0-.72.72v21.78q0,.72.72.72h22.05c.18,0,.36,0,.45-.18v2.88h-22.05v.09Z"/><path class="cls-44" d="m258.15,50.39v-2.88h1.71c1.17,0,.99,0,1.08,1.08v26.55c0,1.17,0,.99-1.08,1.08h-1.65v-25.83h-.09.03Z"/><path class="cls-40" d="m228,44.45c-.73-.07-1.29-.7-1.26-1.44.04-.68.58-1.22,1.26-1.26.75,0,1.35.6,1.35,1.35s-.6,1.35-1.35,1.35Z"/><path class="cls-40" d="m266.43,43.1c.02.73-.56,1.33-1.3,1.35-.02,0-.04,0-.05,0h0c-.75,0-1.35-.6-1.35-1.35s.6-1.35,1.35-1.35,1.35.6,1.35,1.35Z"/><path class="cls-58" d="m226.71,80.81c-.03-.72.54-1.32,1.26-1.35,0,0,0,0,0,0h0c.74.02,1.33.61,1.35,1.35h0c0,.75-.6,1.35-1.35,1.35s-1.35-.6-1.35-1.35h.09Z"/><path class="cls-58" d="m266.43,80.72c.02.73-.56,1.33-1.3,1.35-.02,0-.04,0-.05,0h0c-.75,0-1.35-.6-1.35-1.35s.6-1.35,1.35-1.35c.73-.02,1.33.56,1.35,1.3,0,.02,0,.04,0,.05Z"/><path class="cls-73" d="m237.45,47.51h-1.26v-1.62c0-.54.27-.81.63-.81s.63.27.63.81v1.62Z"/><path class="cls-82" d="m260.91,61.1v-1.35h1.62c.54,0,.81.27.81.63s-.27.63-.81.63h-1.62v.09Z"/><path class="cls-82" d="m245.82,47.51h-1.26v-1.62c0-.54.27-.81.63-.81s.63.27.63.81v1.62Z"/><path class="cls-82" d="m248.61,47.51h-1.26v-1.62c0-.54.27-.81.63-.81s.63.27.63.81v1.62Z"/><path class="cls-82" d="m232.32,59.84v1.35h-1.62c-.54,0-.81-.27-.72-.63.03-.37.35-.65.72-.63h1.62v-.09Z"/><path class="cls-73" d="m260.91,72.35v-1.35h1.62c.54,0,.81.27.81.63s-.27.63-.81.63h-1.62v.09Z"/><path class="cls-82" d="m260.91,63.89v-1.35h1.62c.54,0,.72.27.72.63,0,.35-.29.64-.64.64-.03,0-.05,0-.08,0h-1.62v.09Z"/><path class="cls-73" d="m232.32,71v1.35h-1.62c-.54,0-.72-.27-.72-.63,0-.35.29-.64.64-.64.03,0,.05,0,.08,0h1.62v-.09Z"/><path class="cls-73" d="m232.32,51.38v1.35h-1.62c-.54,0-.81-.27-.81-.63s.27-.63.81-.63h1.62v-.09Z"/><path class="cls-73" d="m260.91,52.73v-1.35h1.62c.54,0,.72.27.72.63,0,.35-.29.64-.64.64-.03,0-.05,0-.08,0h-1.62v.09Z"/><path class="cls-82" d="m232.32,62.63v1.26h-1.62c-.54,0-.81-.27-.81-.63s.27-.63.81-.63h1.62Z"/><path class="cls-73" d="m236.1,76.22h1.26v1.62c0,.54-.27.81-.63.81s-.63-.27-.63-.81v-1.62Z"/><path class="cls-82" d="m244.56,76.22h1.26v1.62c0,.54-.27.72-.63.72-.35,0-.64-.29-.64-.64,0-.03,0-.05,0-.08v-1.62Z"/><path class="cls-82" d="m247.35,76.22h1.26v1.62c0,.54-.27.81-.63.81s-.63-.27-.63-.81v-1.62Z"/><path class="cls-73" d="m255.72,76.22h1.26v1.62c0,.54-.27.72-.63.72-.35,0-.64-.29-.64-.64,0-.03,0-.05,0-.08v-1.62Z"/><path class="cls-73" d="m256.98,47.51h-1.26v-1.62c0-.54.27-.81.63-.81s.63.27.63.81v1.62Z"/><path class="cls-80" d="m232.32,57.05v1.26h-1.71c-.4.05-.76-.23-.81-.63,0-.36.27-.63.81-.63h1.71Z"/><path class="cls-80" d="m260.91,58.31v-1.26h1.62c.54,0,.72.27.72.63,0,.35-.29.64-.64.64-.03,0-.05,0-.08,0h-1.62Z"/><path class="cls-80" d="m250.11,76.22h1.26v1.62c0,.54-.27.72-.63.72-.35,0-.64-.29-.64-.64,0-.03,0-.05,0-.08v-1.62Z"/><path class="cls-80" d="m232.32,65.42v1.35h-1.62c-.54,0-.81-.27-.81-.63s.27-.63.81-.63h1.62v-.09Z"/><path class="cls-80" d="m260.91,66.77v-1.35h1.62c.54,0,.72.27.72.63,0,.35-.29.64-.64.64-.03,0-.05,0-.08,0h-1.62v.09Z"/><path class="cls-80" d="m243.03,47.51h-1.26v-1.62c0-.54.27-.81.63-.81s.63.27.63.81v1.62Z"/><path class="cls-80" d="m251.4,47.51h-1.29v-1.62c0-.54.27-.81.63-.81s.63.27.63.81l.03,1.62Z"/><path class="cls-80" d="m241.68,76.22h1.23v1.62c0,.54-.27.72-.63.72-.35,0-.64-.29-.64-.64,0-.03,0-.05,0-.08l.03-1.62Z"/><path class="cls-71" d="m232.32,73.88v1.26h-1.62c-.54,0-.81-.27-.81-.63s.27-.63.81-.63h1.62Z"/><path class="cls-71" d="m260.91,75.14v-1.35h1.62c.54,0,.72.27.72.63,0,.35-.29.64-.64.64-.03,0-.05,0-.08,0h-1.62v.09Z"/><path class="cls-71" d="m260.91,49.94v-1.35h1.62c.54,0,.81.27.81.63s-.27.63-.81.63h-1.62v.09Z"/><path class="cls-80" d="m238.98,76.22h1.23v1.62c0,.54-.27.81-.63.81s-.63-.27-.63-.81l.03-1.62Z"/><path class="cls-80" d="m260.91,55.52v-1.26h1.62c.35-.06.68.18.74.52s-.18.68-.52.74c-.07.01-.14.01-.21,0h-1.62Z"/><path class="cls-80" d="m232.32,54.17v1.26h-1.62c-.54,0-.81-.27-.81-.63s.27-.63.81-.63h1.62Z"/><path class="cls-80" d="m232.32,68.21v1.35h-1.62c-.54,0-.72-.27-.72-.63,0-.35.29-.64.64-.64.03,0,.05,0,.08,0h1.62v-.09Z"/><path class="cls-80" d="m260.91,69.56v-1.35h1.62c.54,0,.81.27.81.63s-.27.63-.81.63h-1.62v.09Z"/><path class="cls-71" d="m233.31,76.22h1.26v1.62c0,.54-.27.72-.63.72-.35,0-.64-.29-.64-.64,0-.03,0-.05,0-.08v-1.62Z"/><path class="cls-71" d="m232.32,48.59v1.35h-1.71c-.35.06-.68-.18-.74-.52s.18-.68.52-.74c.07-.01.14-.01.21,0h1.71v-.09Z"/><path class="cls-71" d="m259.86,47.51h-1.35v-1.62c0-.54.27-.72.63-.72.35,0,.64.29.64.64,0,.03,0,.05,0,.08v1.62h.09Z"/><path class="cls-71" d="m258.51,76.22h1.35v1.62c0,.54-.27.81-.63.81s-.63-.27-.63-.81v-1.62h-.09Z"/><path class="cls-80" d="m254.19,47.51h-1.26v-1.62c0-.54.27-.81.63-.81s.63.27.63.81v1.62Z"/><path class="cls-80" d="m240.21,47.51h-1.26v-1.62c0-.54.27-.81.63-.81s.63.27.63.81v1.62Z"/><path class="cls-71" d="m234.57,47.51h-1.26v-1.62c0-.54.27-.81.63-.81s.63.27.63.81v1.62Z"/><path class="cls-80" d="m252.93,76.22h1.26v1.62c0,.54-.27.72-.63.72-.35,0-.64-.29-.64-.64,0-.03,0-.05,0-.08v-1.62Z"/><path class="cls-77" d="m255.51,73.52h-19.8q-.72,0-.72-.72v-21.78q0-.72.72-.72h19.8v23.22Zm-.9-18.63h0v-2.07c.01-.34-.26-.62-.59-.63-.01,0-.02,0-.04,0h0c-.36.02-.66.28-.72.63h0v2.79c0,.72.09.54-.63.63-.36,0-.45,0-.45-.45v-2.97c.04-.35-.2-.67-.55-.71-.03,0-.05,0-.08,0-.36.02-.66.28-.72.63v3.96c0,.54.27.72.81.72h2.07c.39.05.76-.22.81-.62,0-.06,0-.13,0-.19v-1.89l.09.18Zm-7.65,0v1.98c-.02.39.25.73.63.81.36.09.63-.27.63-.72v-.99q0-.27.27-.27h1.26c.39.02.74-.25.81-.63v-1.98c0-.63-.27-.81-.81-.81h-1.89c-.63,0-.9.18-.9.9v1.8h0v-.09Zm-3.96,0v1.98c0,.36.18.72.54.72h2.25c.4.05.76-.23.81-.63,0-.41-.34-.73-.75-.72-.02,0-.04,0-.06,0h-1.26c-.18,0-.27,0-.27-.27v-2.25c0-.18,0-.27.27-.27h1.26c.37.03.69-.24.72-.61,0-.04,0-.08,0-.11,0-.45-.27-.63-.72-.63h-2.16c-.36,0-.72.18-.72.54v2.07h0l.09.18Zm-5.04,17.46h1.17c.18,0,.36,0,.45-.18s0-.36-.18-.45l-2.43-2.25c-.09-.18-.27-.18-.45-.09s-.18.18-.18.36v2.25c0,.22.15.4.36.45h1.26v-.09Z"/><path class="cls-13" d="m255.51,73.52v-23.22h2.25c.18,0,.36,0,.45.18v22.86c-.12.11-.28.18-.45.18h-2.25Z"/><path class="cls-67" d="m254.61,54.8v1.89c0,.63-.27.81-.81.81h-2.07c-.54,0-.81-.27-.81-.72v-3.87c0-.36.18-.72.54-.72h.09c.35,0,.64.29.64.64,0,.03,0,.05,0,.08v2.97c0,.36.09.45.45.45.72,0,.63,0,.63-.63v-2.79c-.01-.34.26-.62.59-.63.01,0,.02,0,.04,0h0c.34-.01.62.26.63.59,0,.01,0,.02,0,.04h0v2.07h0l.09-.18Z"/><path class="cls-67" d="m246.99,54.8v-1.8c0-.63.27-.81.9-.9h1.98c.39-.05.76.22.81.62,0,.06,0,.13,0,.19v1.8c.02.39-.25.74-.63.81h-1.44q-.27,0-.27.27v.99c.04.35-.2.67-.55.71-.03,0-.05,0-.08,0-.36,0-.63-.27-.63-.81v-1.98l-.09.09Zm1.8-.54c.27,0,.54.09.54-.36s-.18-.45-.54-.36-.54-.09-.54.36.18.45.54.36Z"/><path class="cls-67" d="m243.03,54.8v-1.89c0-.36.18-.72.54-.72h2.34c.35-.04.67.2.71.55,0,.03,0,.05,0,.08,0,.36-.27.63-.72.72-.42.05-.84.05-1.26,0-.36,0-.27,0-.27.27v2.25c0,.18,0,.27.27.27h1.26c.41-.04.77.26.81.66,0,.02,0,.04,0,.06,0,.45-.27.63-.81.63h-2.1c-.36,0-.72-.18-.72-.54v-2.16l-.06-.18Z"/><path class="cls-89" d="m237.99,72.26h-1.26c-.22,0-.4-.15-.45-.36h0v-2.25c0-.18,0-.36.18-.36.16-.02.32,0,.45.09l2.43,2.25c.18.09.18.27.18.45s-.27.18-.45.18h-1.08Z"/><path class="cls-73" d="m248.79,54.17c-.27,0-.54,0-.54-.36s.27-.36.54-.36.54,0,.54.36-.27.36-.54.36Z"/><path d="m230.61,28.52c-1.09-3.4.79-7.04,4.19-8.12.07-.02.15-.05.22-.07,2.09-.66,4.38-.18,6.03,1.26l-1.98,2.07c-.88-.8-2.13-1.04-3.24-.63-1.88.46-3.03,2.37-2.57,4.25.04.15.08.29.14.43.4,1.87,2.25,3.06,4.12,2.66.16-.03.32-.08.47-.14,1.15-.29,2.05-1.19,2.34-2.34l2.79.63c-.6,2.09-2.23,3.72-4.32,4.32-3.37,1.1-7-.74-8.1-4.12-.03-.1-.06-.19-.09-.29v.09Z"/><path d="m254.1,24.11c-.22,2.36-2.31,4.1-4.67,3.88-.03,0-.07,0-.1-.01l-1.89-.18-.36,3.96-2.88-.27,1.17-12.51,4.77.45c2.38.19,4.15,2.27,3.96,4.65,0,0,0,.02,0,.03Zm-2.88-.27c.11-.87-.49-1.66-1.35-1.8l-1.89-.18-.27,3.24,1.89.18c.87.06,1.62-.58,1.71-1.44h-.09Z"/><path d="m255.45,28.79l3.78-7.65,2.61,1.26-3.69,7.38c-.45.81-.36,1.8.99,2.43s2.16.18,2.52-.72l3.69-7.38,2.61,1.26-3.78,7.65c-1.17,2.43-3.78,2.97-6.3,1.71-2.52-1.26-3.6-3.6-2.43-6.03v.09Z"/><circle class="cls-5" cx="340.16" cy="54.44" r="40.5"/><path class="cls-46" d="m370.31,45.71v28.08c-.37.84-1.16,1.42-2.07,1.53h-4.14c-.69-.09-1.38-.09-2.07,0h-3.15c-.57-.09-1.14-.09-1.71,0h-8.46c-.69-.09-1.38-.09-2.07,0h-12.42c-.69-.09-1.38-.09-2.07,0h-3.15c-.57-.09-1.14-.09-1.71,0h-8.55v-31.23h49.14c1.17-.15,2.28.52,2.7,1.62h-.27Zm-40.5,14.04h0v3.15c0,2.29,1.85,4.14,4.14,4.14,2.29,0,4.14-1.85,4.14-4.14h0v-2.08c0-.81-.36-1.17-1.17-1.17h-1.71c-.63-.07-1.19.39-1.26,1.02,0,.02,0,.04,0,.06,0,.63.45.99,1.26.99s.81,0,.81.81c.14,1.14-.67,2.18-1.81,2.31s-2.18-.67-2.31-1.81c0-.05,0-.09-.01-.14v-6.21c-.05-.41.04-.82.27-1.17.55-.99,1.8-1.35,2.79-.81.65.37,1.06,1.05,1.08,1.8.09.72.54,1.17,1.08,1.08.59-.08.99-.63.91-1.21,0-.02,0-.03,0-.05-.13-2.27-2.04-4.03-4.32-3.96-2.09.13-3.78,1.78-3.96,3.87v3.42l.09.09Zm20.79-1.44v4.5c-.06,1.43.67,2.77,1.89,3.51,1.89,1.29,4.46.81,5.76-1.07.46-.67.71-1.45.72-2.26v-9.72c-.09-.46-.52-.78-.99-.72-.46-.02-.87.28-.99.72v9.45c.05,1.14-.84,2.11-1.98,2.16-1.14.05-2.11-.84-2.16-1.98v-9.45c0-.47-.28-.9-.72-1.08-.43-.17-.91-.02-1.17.36-.18.26-.28.58-.27.9v4.5l-.09.18Zm-10.35,1.44v6.21c-.02.51.32.95.81,1.08.44.07.88-.14,1.08-.54.12-.22.15-.48.09-.72v-4.32c0-.45.09-.54.54-.54h1.62c2.21-.05,4-1.84,4.05-4.05.03-2.15-1.56-3.97-3.69-4.23-1.08-.09-2.16,0-3.24,0s-1.35.36-1.35,1.35v5.85l.09-.09Zm-18.72-9.9v1.44c-.01.58.41,1.08.99,1.17.57.07,1.09-.34,1.16-.91,0-.03,0-.05,0-.08v-1.71c0-.36.09-.45.45-.45h1.53c.55.01,1.04-.36,1.17-.9.05-.57-.34-1.08-.9-1.17h-3.15c-.59-.04-1.11.4-1.17.99v1.62h-.09Z"/><path class="cls-26" d="m318.38,75.32v3.06c0,.85-.49,1.63-1.26,1.98-.71.37-1.57.26-2.16-.27-.57-.46-.87-1.16-.81-1.89v-36.9c0-1.44.18-1.35-1.35-1.35-1.35,0-2.34-.36-2.79-1.62v-.9c.37-1.14,1.52-1.83,2.7-1.62h3.15c1.18-.17,2.26.65,2.43,1.83.03.2.03.4,0,.6v37.08h.09Z"/><path class="cls-59" d="m314.15,58.67v13.5h-2.7c-.58.05-1.13-.23-1.44-.72v-12.15c.36-.47.94-.71,1.53-.63h2.61Z"/><path class="cls-59" d="m314.15,46.25v8.28h-2.7c-.58.05-1.13-.23-1.44-.72v-6.93c.36-.47.94-.71,1.53-.63h2.61Z"/><path class="cls-15" d="m329.81,59.75v-3.42c.17-2.28,2.17-4,4.45-3.82,2.08.16,3.72,1.83,3.83,3.91,0,.72-.27,1.17-.9,1.26s-.99-.36-1.08-1.08c0-1.1-.89-1.99-1.99-1.99-.06,0-.11,0-.17,0-.72.03-1.37.44-1.71,1.08-.17.37-.27.76-.27,1.17v5.85c-.14,1.14.67,2.18,1.81,2.31,1.14.14,2.18-.67,2.31-1.81,0-.05,0-.09.01-.14v-.36c.05-.39-.22-.76-.62-.81-.06,0-.13,0-.19,0-.81,0-1.26-.45-1.26-.99s.45-1.08,1.26-1.08h1.71c.81,0,1.17.36,1.17,1.17v2.07c0,2.29-1.86,4.14-4.14,4.14-2.28,0-4.13-1.85-4.14-4.14v-3.15h0l-.09-.18Z"/><path class="cls-12" d="m350.51,58.31v-4.5c-.03-.31.03-.62.18-.9.26-.38.74-.53,1.17-.36.45.16.74.6.72,1.08v9.09c-.05,1.14.84,2.11,1.98,2.16,1.14.05,2.11-.84,2.16-1.98v-9.72c.09-.46.52-.78.99-.72.46-.02.87.28.99.72v9.72c-.05,2.29-1.94,4.1-4.22,4.05-.81-.02-1.59-.27-2.26-.72-1.18-.78-1.88-2.1-1.89-3.51v-4.5l.18.09Z"/><path class="cls-12" d="m340.16,59.66v-5.85c0-.99.36-1.35,1.35-1.35h3.24c2.16.2,3.79,2.06,3.69,4.23-.05,2.21-1.84,4-4.05,4.05h-1.62c-.45,0-.54.09-.54.54v4.32c.02.24-.01.49-.09.72-.17.43-.63.66-1.08.54-.5-.04-.87-.47-.83-.97,0-.04,0-.07.02-.11v-6.12h-.09Zm2.16-3.15v1.62c0,.36,0,.54.45.54h1.62c1.12.02,2.05-.87,2.07-2,0-.02,0-.05,0-.07h0c.02-1.12-.87-2.05-2-2.07-.02,0-.05,0-.07,0h-1.62c-.36,0-.45.18-.45.45v1.53Z"/><path class="cls-53" d="m338.09,75.32v2.79c.05.63-.37,1.21-.99,1.35h-3.06v-4.14h4.05Z"/><path class="cls-53" d="m346.37,79.46h-2.97c-.62.03-1.14-.44-1.17-1.06,0,0,0-.01,0-.02v-2.97h4.14v4.05Z"/><path class="cls-53" d="m368.24,75.32v2.79c.05.63-.37,1.21-.99,1.35h-3.06v-4.14h4.05Z"/><path class="cls-53" d="m326.66,79.46h-2.97c-.62.03-1.14-.44-1.17-1.06,0,0,0-.01,0-.02v-3.06h4.14v4.14Z"/><path class="cls-24" d="m321.44,49.85v-1.44c-.04-.59.4-1.11.99-1.17h3.15c.55-.01,1.04.36,1.17.9.05.57-.34,1.08-.9,1.17h-1.8c-.36,0-.45.09-.45.45v1.53c.01.58-.41,1.08-.99,1.17-.57.07-1.09-.34-1.16-.91,0-.03,0-.05,0-.08v-1.62Z"/><path class="cls-32" d="m331.88,79.46h-3.06v-4.05h0c0-.09,3.06-.09,3.06-.09v4.14Z"/><path class="cls-32" d="m351.59,79.46h-3.06v-4.14h3.06v4.05h0v.09Z"/><path class="cls-32" d="m356.81,79.46h-3.06v-4.14h3.06v4.14Z"/><path class="cls-32" d="m361.94,79.46h-3.06v-4.05h0c0-.09,3.06-.09,3.06-.09v4.14Z"/><path class="cls-54" d="m348.53,75.32v4.14h-2.07v-4.14c.69-.09,1.38-.09,2.07,0Z"/><path class="cls-54" d="m331.88,79.46v-4.14c.69-.09,1.38-.09,2.07,0v4.14h-2.07Z"/><path class="cls-54" d="m361.94,79.46v-4.14c.69-.09,1.38-.09,2.07,0v4.14h-2.07Z"/><path class="cls-54" d="m328.73,75.41v3.96h-.09c-.66.07-1.32.1-1.98.09v-4.14h1.98l.09.09Z"/><path class="cls-54" d="m353.66,75.32v4.14h-2.07v-4.14h2.07Z"/><path class="cls-54" d="m358.88,75.41v3.96h-.09c-.66.07-1.32.1-1.98.09v-4.14h1.98l.09.09Z"/><path class="cls-54" d="m353.39,75.32h-1.71c.57-.09,1.14-.09,1.71,0Z"/><path class="cls-54" d="m351.59,79.37h.09v.09h0l-.09-.09Z"/><path class="cls-85" d="m342.23,56.6v-1.62c0-.36,0-.54.45-.45h1.62c1.14,0,2.07.93,2.07,2.07s-.93,2.07-2.07,2.07h-1.62c-.45,0-.45-.18-.45-.54v-1.53Z"/><path d="m334.22,27.71c1.41,3.15,0,6.84-3.16,8.25-.17.08-.35.15-.53.21-3.51,1.52-7.59-.1-9.11-3.61-.02-.06-.05-.11-.07-.17-1.38-3.6.42-7.64,4.02-9.02,2.13-.82,4.53-.54,6.42.74l-1.89,2.34c-1.88-1.14-4.33-.53-5.46,1.35-.64,1.06-.75,2.36-.3,3.51.81,2.07,2.88,3.06,5.31,2.07,1.41-.41,2.39-1.68,2.43-3.15l-3.33,1.26-.99-2.43,6.21-2.43.45,1.08Z"/><path d="m347.18,25.73c-.13,2.52-2.27,4.45-4.79,4.32-.02,0-.05,0-.07,0h-1.98c0-.09-.18,4.05-.18,4.05l-3.06-.18.63-13.23,5.04.27c2.51.08,4.49,2.18,4.41,4.69,0,.03,0,.05,0,.08Zm-3.06-.18c.06-.91-.62-1.71-1.53-1.8h-1.98c0-.09-.18,3.33-.18,3.33h1.98c.82.11,1.58-.46,1.7-1.28.01-.08.02-.17.01-.25h0Z"/><path d="m348.8,30.59l3.78-8.1,2.7,1.26-3.69,7.92c-.45.9-.36,1.89,1.08,2.52,1.44.63,2.25.09,2.7-.81l3.69-7.92,2.7,1.26-3.78,8.1c-1.17,2.61-3.87,3.24-6.57,1.98-2.7-1.26-3.96-3.69-2.7-6.3l.09.09Z"/><circle class="cls-4" cx="153.28" cy="54.44" r="40.5"/><path class="cls-25" d="m142.12,38.87c.42.19.67.62.63,1.08v4.86h-1.71v-4.77c-.03-.43.18-.85.54-1.08h.54v-.09Z"/><path class="cls-25" d="m159.31,38.87c.4.2.61.64.54,1.08v4.86h-1.71v-4.77c-.03-.43.18-.85.54-1.08h.54l.09-.09Z"/><path class="cls-25" d="m163.9,44.81v-4.77c-.03-.43.18-.85.54-1.08h.54c.37.18.59.58.54.99v4.86h-1.62Z"/><path class="cls-25" d="m178.12,64.16c-.27.36-.73.54-1.17.45h-4.77v-1.71h4.86c.41-.03.8.18.99.54v.72h.09Z"/><path class="cls-25" d="m153.55,38.87c.4.2.61.64.54,1.08v4.86h-1.71v-4.95c-.04-.43.22-.84.63-.99h.54Z"/><path class="cls-25" d="m142.75,82.7v4.59c0,.63-.09,1.08-.81,1.26h-.27c-.43-.31-.67-.82-.63-1.35v-4.59h1.71v.09Z"/><path class="cls-25" d="m159.94,82.7v4.68c.07.53-.23,1.05-.72,1.26h-.27c-.46-.28-.71-.81-.63-1.35v-4.59h1.62Z"/><path class="cls-25" d="m164.53,88.64c-.43-.31-.67-.82-.63-1.35v-4.59h1.71v4.59c0,.63-.09,1.08-.81,1.26h-.27v.09Z"/><path class="cls-25" d="m134.29,53.09h-4.95c-.4.01-.78-.2-.99-.54v-.72c.3-.33.73-.5,1.17-.45h4.77v1.71Z"/><path class="cls-25" d="m128.44,74.87c.19-.36.58-.57.99-.54h4.95v1.71h-4.77c-.44.05-.87-.12-1.17-.45v-.72Z"/><path class="cls-25" d="m172.27,74.33c1.26.09,2.52,0,3.87,0h1.08c.4-.01.78.2.99.54v.54c-.21.34-.59.55-.99.54h-4.95v-1.62Z"/><path class="cls-25" d="m134.29,58.82h-4.95c-.4.01-.78-.2-.99-.54v-.63c.19-.36.58-.57.99-.54h4.95v1.71Z"/><path class="cls-25" d="m146.71,44.81v-4.89c-.01-.43.19-.83.54-1.08h.54c.36.23.57.65.54,1.08v4.86l-1.62.03Z"/><path class="cls-25" d="m172.27,68.66h4.95c.4-.01.78.2.99.54v.54c-.19.36-.58.57-.99.54h-4.95v-1.62Z"/><path class="cls-25" d="m178.12,58.31c-.19.36-.58.57-.99.54h-4.95v-1.71h4.95c.4-.01.78.2.99.54v.63Z"/><path class="cls-25" d="m134.29,64.52h-4.77c-.43.03-.85-.18-1.08-.54v-.54c.26-.33.66-.53,1.08-.54h4.77v1.62Z"/><path class="cls-25" d="m128.44,69.2c.19-.36.58-.57.99-.54h4.95v1.62h-4.95c-.4.01-.78-.2-.99-.54v-.54Z"/><path class="cls-25" d="m178.12,52.52c-.28.35-.72.55-1.17.54h-4.68v-1.71c1.26.09,2.61,0,3.87,0h.9c.46-.04.89.21,1.08.63v.54Z"/><path class="cls-51" d="m147.34,88.64c-.46-.24-.71-.75-.63-1.26v-4.68h1.71c-.09,1.08,0,2.16,0,3.24v1.44c.13.52-.19,1.04-.7,1.17,0,0-.01,0-.02,0h-.27l-.09.09Z"/><path class="cls-51" d="m153.1,88.64c-.41-.25-.65-.69-.63-1.17v-4.68h1.62v4.77c.07.51-.23,1-.72,1.17h-.27v-.09Z"/><path class="cls-37" d="m154.09,82.7h-19.08c-.54,0-.72-.27-.72-.81v-36.27c-.05-.39.22-.76.62-.81.06,0,.13,0,.19,0h36.36c.54,0,.72.27.72.81v36.36c0,.54-.27.81-.72.81h-17.46l.09-.09Zm-.81-6.39h11.97c.45,0,.54-.09.54-.54v-24.03c0-.45-.09-.54-.54-.54h-24.03c-.45,0-.54.09-.54.54v24.03c0,.45.09.54.54.54h12.06Z"/><path class="cls-51" d="m153.28,76.31h-11.97c-.45,0-.54-.09-.54-.54v-24.03c0-.45.09-.54.54-.54h24.03c.45,0,.54.09.54.54v24.03c0,.45-.18.54-.54.54h-12.06Zm-8.46-12.51c0,4.67,3.79,8.46,8.46,8.46,4.67,0,8.46-3.79,8.46-8.46s-3.79-8.46-8.46-8.46h0c-4.68.02-8.48,3.78-8.55,8.46h.09Z"/><path class="cls-64" d="m144.82,63.71c0-4.67,3.79-8.46,8.46-8.46s8.46,3.79,8.46,8.46-3.79,8.46-8.46,8.46h0c-4.67,0-8.46-3.77-8.46-8.44v-.02Zm7.83,6.12c.11-.1.2-.22.27-.36.99-1.53,1.98-3.15,2.97-4.68l1.17-1.89h-2.43c-.36,0-.45-.09-.45-.45v-4.86c-.47.59-.89,1.23-1.26,1.89l-2.88,4.59c0,.09-.18.18-.18.36s.27,0,.36,0h1.89c.36,0,.54.09.54.54v4.77h0v.09Z"/><path class="cls-11" d="m152.56,68.12v-3.06c0-.45-.09-.54-.54-.54h-2.25s0-.27.18-.36l2.88-4.59c.36-.63.81-1.26,1.26-1.89v4.86c0,.36.09.45.45.45h1.44l-2.43,3.78c-.27.49-.6.94-.99,1.35Z"/><path class="cls-16" d="m152.56,68.12c.4-.38.71-.84.9-1.35l2.43-3.78h.99l-1.17,1.89c-.99,1.53-1.98,3.15-2.97,4.68,0,.09-.18.27-.27.36h0v-1.71l.09-.09Z"/><path d="m123.4,40.67c2.02.66,3.12,2.84,2.46,4.86,0,.03-.02.06-.03.09l-.54,1.62,3.33,1.17-.81,2.43-10.71-3.6,1.35-4.05c.69-2.05,2.89-3.17,4.95-2.52Zm-.81,2.43c-.65-.3-1.43-.02-1.73.63-.03.06-.05.12-.07.18l-.54,1.62,2.79.9.54-1.62c.23-.74-.16-1.54-.9-1.8l-.09.09Z"/><path d="m126.73,34.28l2.34,1.53c-.81.68-.92,1.88-.24,2.69.12.14.26.27.42.37l3.06,2.07-1.35,1.98-6.75-4.5,1.35-1.98,1.17.81c-.63-.86-.63-2.02,0-2.88v-.09Z"/><path d="m130.6,35.81c-1.57-1.76-1.41-4.47.36-6.04s4.47-1.41,6.04.36c1.57,1.76,1.41,4.47-.36,6.04h0c-1.7,1.57-4.36,1.47-5.93-.24-.04-.04-.07-.08-.1-.12Zm4.59-4.05c-.56-.76-1.64-.92-2.4-.36-.07.05-.14.11-.21.18-.77.63-.88,1.77-.25,2.53.05.06.1.11.16.17.56.76,1.64.92,2.4.36.07-.05.14-.11.21-.18.77-.63.88-1.77.25-2.53-.05-.06-.1-.11-.16-.17h0Z"/><path d="m138.16,29.42c-1-2.12-.09-4.65,2.03-5.65.01,0,.02-.01.04-.02,1.35-.62,2.92-.48,4.14.36l-1.44,1.98c-.52-.38-1.21-.45-1.8-.18-.9.36-1.33,1.37-.97,2.27.02.05.05.11.07.16.4.94,1.48,1.39,2.43.99,0,0,0,0,0,0,.62-.22,1.04-.79,1.08-1.44l2.43.27c-.11,1.5-1.04,2.82-2.43,3.42-2.14.98-4.66.04-5.64-2.1,0-.02-.02-.04-.03-.06h.09Z"/><path d="m150.94,27.32c.58-.04,1.1-.34,1.44-.81l2.07.81c-.67,1.2-1.88,2-3.24,2.16-2.23.47-4.42-.97-4.89-3.2-.03-.13-.05-.26-.06-.4-.39-2.27,1.12-4.42,3.39-4.82.1-.02.2-.03.3-.04,2.17-.34,4.21,1.14,4.55,3.31.02.13.03.25.04.38v.99l-5.67.81c.41.73,1.26,1.09,2.07.9v-.09Zm1.08-3.15c-.29-.77-1.08-1.22-1.89-1.08-.84.02-1.51.69-1.53,1.53l3.42-.45Z"/><path d="m161.83,27.32c-.27,1.89-1.98,2.43-3.69,2.16-1.44-.05-2.69-.98-3.15-2.34l2.25-.9c.09.64.61,1.13,1.26,1.17.54,0,.9,0,.9-.36.09-.9-3.87-.99-3.51-3.69.27-1.71,1.8-2.43,3.51-2.25,1.28.15,2.37.98,2.88,2.16l-2.16.81c-.11-.46-.52-.79-.99-.81-.45,0-.72,0-.72.36-.09.9,3.87.81,3.51,3.78l-.09-.09Z"/><path d="m168.4,29.87c-.63,1.71-2.43,1.89-4.05,1.26-1.41-.38-2.42-1.61-2.52-3.06l2.34-.36c-.06.61.32,1.17.9,1.35.54.18.9.18.99-.18.36-.81-3.51-1.8-2.52-4.41.63-1.62,2.34-1.98,3.87-1.35,1.23.44,2.12,1.5,2.34,2.79l-2.34.27c0-.47-.28-.9-.72-1.08-.36-.18-.72-.09-.81.18-.36.9,3.6,1.71,2.52,4.5v.09Z"/><path d="m170.11,28.79c1.42-1.86,4.08-2.23,5.94-.81,1.86,1.42,2.23,4.08.81,5.94-1.42,1.86-4.08,2.23-5.94.81-1.86-1.39-2.24-4.02-.85-5.88.01-.02.03-.04.04-.06Zm4.86,3.69c.65-.75.57-1.89-.18-2.54-.03-.02-.06-.05-.09-.07-.77-.63-1.9-.51-2.53.26-.03.03-.05.07-.08.1-.65.75-.57,1.89.18,2.54.03.02.06.05.09.07.77.63,1.9.51,2.53-.26.03-.03.05-.07.08-.1h0Z"/><path d="m184.15,36.62l-2.16,1.71c-.39-.99-1.51-1.47-2.5-1.08-.17.07-.33.16-.47.27l-2.88,2.25-1.44-1.89,6.39-4.95,1.44,1.89-1.17.9c1-.39,2.13,0,2.7.9h.09Z"/><path d="m182.71,46.61c-1.71.81-3.06-.36-3.87-1.89-.73-1.25-.63-2.82.27-3.96l1.98,1.35c-.45.42-.56,1.08-.27,1.62.27.54.54.72.81.54.81-.36-1.35-3.78,1.26-4.95,1.62-.72,3.06.18,3.78,1.71.59,1.16.49,2.54-.27,3.6l-1.89-1.35c.32-.34.4-.84.18-1.26-.18-.36-.45-.54-.72-.45-.81.36,1.44,3.69-1.26,4.95v.09Z"/><line class="cls-3" x1="200.39" y1="224.79" x2="200.29" y2="243.44"/><line class="cls-3" x1="39.5" y1="243.87" x2="360.5" y2="243.87"/><line class="cls-8" x1="39.92" y1="243.67" x2="39.92" y2="252.99"/><polygon class="cls-78" points="33.44 251.1 39.92 262.32 46.41 251.1 33.44 251.1"/><line class="cls-8" x1="120.07" y1="243.67" x2="120.07" y2="252.99"/><polygon class="cls-78" points="113.59 251.1 120.07 262.32 126.55 251.1 113.59 251.1"/><line class="cls-8" x1="200.21" y1="243.67" x2="200.21" y2="252.99"/><polygon class="cls-78" points="193.73 251.1 200.21 262.32 206.69 251.1 193.73 251.1"/><line class="cls-8" x1="280.36" y1="243.67" x2="280.36" y2="252.99"/><polygon class="cls-78" points="273.87 251.1 280.36 262.32 286.84 251.1 273.87 251.1"/><line class="cls-8" x1="360.5" y1="243.67" x2="360.5" y2="252.99"/><polygon class="cls-78" points="354.02 251.1 360.5 262.32 366.98 251.1 354.02 251.1"/><line class="cls-3" x1="196.61" y1="133.69" x2="196.53" y2="115.05"/><line class="cls-3" x1="59.04" y1="115.61" x2="340.96" y2="115.61"/><line class="cls-8" x1="59.47" y1="106.49" x2="59.47" y2="97.16"/><polygon class="cls-78" points="65.96 104.59 59.48 115.81 52.99 104.59 65.96 104.59"/><line class="cls-8" x1="153.14" y1="106.49" x2="153.14" y2="97.16"/><polygon class="cls-78" points="159.62 104.59 153.14 115.81 146.66 104.59 159.62 104.59"/><line class="cls-8" x1="246.81" y1="106.49" x2="246.81" y2="97.16"/><polygon class="cls-78" points="253.29 104.59 246.81 115.81 240.33 104.59 253.29 104.59"/><line class="cls-8" x1="340.47" y1="106.49" x2="340.47" y2="97.16"/><polygon class="cls-78" points="346.96 104.59 340.48 115.81 333.99 104.59 346.96 104.59"/><circle class="cls-7" cx="347.72" cy="177.95" r="40.5"/><path d="m334.13,153.02c1.56,2.06,1.15,4.99-.91,6.54-.14.11-.29.21-.44.3-2.37,1.72-5.68,1.2-7.41-1.17-.02-.03-.04-.06-.06-.09-1.61-2.44-.95-5.72,1.49-7.33,1.45-.96,3.28-1.15,4.9-.5l-.99,1.98c-.9-.37-1.93-.23-2.7.36-1.35.82-1.77,2.59-.95,3.93.04.07.09.14.14.21.88,1.37,2.71,1.77,4.08.89.08-.05.16-.11.24-.17.98-.51,1.5-1.62,1.26-2.7l-2.25,1.53-1.08-1.71,4.23-2.79.45.72Z"/><path d="m338.54,151.4l.81,2.43c.18.63.72.45,1.62.18l.63,1.89c-2.61,1.17-3.6.54-4.23-1.35l-.81-2.43-1.08.36-.63-1.98,1.08-.36-.45-1.26,1.89-1.26.63,1.89,1.44-.45.63,1.98-1.44.45-.09-.09Z"/><path d="m348.8,147.8l.54,7.2-2.16.18v-.72c-.53.64-1.33,1-2.16.99-2.1-.05-3.76-1.8-3.71-3.9.04-1.82,1.38-3.36,3.17-3.66.82-.08,1.63.18,2.25.72v-.72l2.07-.18v.09Zm-1.89,3.78c.04-.86-.63-1.6-1.49-1.64-.1,0-.21,0-.31.02-.93.03-1.66.82-1.63,1.75,0,.05,0,.09.01.14-.04.86.63,1.6,1.49,1.64.1,0,.21,0,.31-.02.93-.03,1.66-.82,1.63-1.75,0-.05,0-.09-.01-.14h0Z"/><path d="m358.61,153.29c-.37,1.98-2.25,3.3-4.23,2.97-.8-.15-1.49-.64-1.89-1.35l-.18.63-2.07-.45,2.25-9.81,2.07.45-.81,3.51c.64-.49,1.49-.62,2.25-.36,1.92.57,3.04,2.56,2.52,4.5l.09-.09Zm-2.07-.45c.29-.81-.13-1.7-.94-1.99-.1-.04-.21-.06-.32-.08-.9-.23-1.81.31-2.04,1.2-.01.05-.02.1-.03.15-.29.81.13,1.7.94,1.99.1.04.21.06.32.08.9.23,1.81-.31,2.04-1.2.01-.05.02-.1.03-.15Z"/><path d="m361.85,156.98l4.77-.9c.7-.07,1.36-.35,1.89-.81.35-.47.26-1.13-.21-1.49-.02-.01-.04-.03-.06-.04-.53-.41-1.27-.41-1.8,0l-.9-2.07c1.26-.76,2.86-.69,4.05.18,1.51.97,1.94,2.97.98,4.48-.02.04-.05.08-.08.11-.77.96-1.92,1.55-3.15,1.62l-2.34.36,2.7,1.98-1.26,1.8-5.58-4.05.99-1.35v.18Z"/><path class="cls-14" d="m331.79,211.25c0-.09-.18-.09-.18-.09-1.2-.4-2-1.53-1.98-2.79v-40.05c-.1-1.54,1.07-2.86,2.6-2.96.06,0,.12,0,.19,0h28.53c0,.18.18.18.27.18,1.04.45,1.71,1.48,1.71,2.61v2.7h-10.53c-.18,0-.36,0-.45.27-.45.45-.9.9-1.44,1.35-1.61,1.53-4.15,1.53-5.76,0-.44-.4-.86-.82-1.26-1.26-.17-.22-.45-.32-.72-.27h-9.81c-.45,0-.54.09-.54.54v33.75c0,.45.18.54.54.54h30.06v2.7c.08,1.18-.61,2.27-1.71,2.7-.09,0-.27,0-.27.27h-29.25v-.18Zm13.14-3.51h-2.61c-.54,0-.81.27-.81.72s.27.72.81.72h5.22c.4.09.79-.16.88-.56.09-.4-.16-.79-.56-.88-.11-.02-.22-.02-.32,0h-2.61Zm2.79-39.69c-.73-.02-1.33.56-1.35,1.3,0,.02,0,.04,0,.05h0c0,.75.6,1.35,1.35,1.35.03,0,.06,0,.09,0,.74-.02,1.33-.61,1.35-1.35.02-.73-.56-1.33-1.3-1.35-.02,0-.04,0-.05,0h-.09Zm6.21,40.41c.02-.37-.26-.69-.63-.72-.39.08-.69.41-.72.81-.01.34.26.62.59.63.01,0,.02,0,.04,0,.39-.03.69-.33.72-.72h0Zm-3.42-.72c-.37.07-.65.35-.72.72.03.39.33.69.72.72.37-.07.65-.35.72-.72-.03-.39-.33-.69-.72-.72Z"/><rect class="cls-29" x="331.52" y="167.15" width="31.5" height="39.6" rx="2.52" ry="2.52"/><path class="cls-76" d="m361.04,211.25c0-.18.18-.18.27-.27,1.1-.43,1.79-1.52,1.71-2.7v-40.23c.04-1.14-.64-2.19-1.71-2.61-.09,0-.27,0-.27-.18h1.98c1.49,0,2.7,1.21,2.7,2.7v39.6c0,1.71-.54,3.06-2.25,3.6h-2.52l.09.09Z"/><path class="cls-50" d="m344.93,207.83h2.52c.45-.04.84.28.9.72-.09.43-.47.73-.9.72h-5.22c-.54,0-.81-.27-.81-.72s.27-.72.81-.72h2.7Z"/><path class="cls-18" d="m353.93,208.46c.02.37-.26.69-.63.72h0c-.34.01-.62-.26-.63-.59,0-.01,0-.02,0-.04.05-.39.34-.72.72-.81.36-.09.63.36.63.72h-.09Z"/><path class="cls-18" d="m350.51,207.83c.36.09.63.36.72.72,0,.4-.32.72-.72.72s-.72-.32-.72-.72c.09-.36.36-.63.72-.72Z"/><g class="cls-19"><path class="cls-27" d="m349.25,182.9h-.54c-.36,0-.72-.18-1.08-.18-.46-.05-.91-.14-1.35-.27l-1.53-.27h-.27c-.18,0-.27-.18-.18-.45.08-.26.2-.5.36-.72.18-.36.36-.81.54-1.17.1-.27.25-.52.45-.72.23-.35.7-.44,1.05-.21.08.06.16.13.21.21.15.13.27.28.36.45.27.37.51.76.72,1.17.45.63.81,1.26,1.26,1.98,0,.07.04.13.09.18,0,.18,0,.27-.27.27l.18-.27Z"/><path class="cls-27" d="m350.15,173.54h.18c.18,0,.27.09.18.27s-.09.18-.18.27c-.45.63-.9,1.17-1.44,1.8s-.9,1.08-1.35,1.53c-.19.28-.48.47-.81.54-.38.04-.76-.06-1.08-.27-.18-.16-.33-.34-.45-.54-.45-.63-.81-1.26-1.26-1.89-.2-.29-.38-.59-.54-.9h0c-.09-.18,0-.36.18-.36.87-.02,1.74-.08,2.61-.18.75-.02,1.5-.08,2.25-.18.54.01,1.08-.02,1.62-.09h.09Z"/></g><path d="m342.05,195.32c.98-.05,1.94.27,2.7.9,1.47,1.55,1.43,3.99-.09,5.49-.82.65-1.83,1-2.88.99-.89.06-1.77-.16-2.52-.63-.72-.43-1.26-1.1-1.53-1.89l2.43-1.44c.21.71.88,1.19,1.62,1.17.81,0,.72-.09.9-.27.21-.19.33-.44.36-.72.01-.29-.12-.56-.36-.72-.26-.2-.58-.29-.9-.27h-3.51l.45-6.48h6.48v2.7h-3.87v1.17h.72Z"/><path d="m357.89,196.13v1.08c.03,1.47-.52,2.89-1.53,3.96-1.06,1.03-2.49,1.58-3.96,1.53-1.57.04-3.09-.54-4.23-1.62-2.16-2.27-2.16-5.83,0-8.1,1.06-1.1,2.52-1.72,4.05-1.71.98-.09,1.97.17,2.79.72.8.43,1.48,1.05,1.98,1.8l-2.43,1.35c-.22-.38-.57-.67-.99-.81-.46-.18-.95-.28-1.44-.27-1.54-.1-2.87,1.06-2.97,2.6,0,.12,0,.25,0,.37-.02.8.27,1.57.81,2.16.61.64,1.46.97,2.34.9,1.05.07,2.05-.5,2.52-1.44h-2.7v-2.43h5.58l.18-.09Z"/><circle class="cls-7" cx="52.28" cy="181.32" r="40.5"/><path d="m38.69,156.39c1.56,2.06,1.15,4.99-.91,6.54-.14.11-.29.21-.44.3-2.37,1.72-5.68,1.2-7.41-1.17-.02-.03-.04-.06-.06-.09-1.61-2.44-.95-5.72,1.49-7.33,1.45-.96,3.28-1.15,4.9-.5l-.99,1.98c-.9-.37-1.93-.23-2.7.36-1.35.82-1.77,2.59-.95,3.93.04.07.09.14.14.21.88,1.37,2.71,1.77,4.08.89.08-.05.16-.11.24-.17.98-.51,1.5-1.62,1.26-2.7l-2.25,1.53-1.08-1.71,4.23-2.79.45.72Z"/><path d="m43.1,154.77l.81,2.43c.18.63.72.45,1.62.18l.63,1.89c-2.61,1.17-3.6.54-4.23-1.35l-.81-2.43-1.08.36-.63-1.98,1.08-.36-.45-1.26,1.89-1.26.63,1.89,1.44-.45.63,1.98-1.44.45-.09-.09Z"/><path d="m53.36,151.17l.54,7.2-2.16.18v-.72c-.53.64-1.33,1-2.16.99-2.1-.05-3.76-1.8-3.71-3.9.04-1.82,1.38-3.36,3.17-3.66.82-.08,1.63.18,2.25.72v-.72l2.07-.18v.09Zm-1.89,3.78c.04-.86-.63-1.6-1.49-1.64-.1,0-.21,0-.31.02-.93.03-1.66.82-1.63,1.75,0,.05,0,.09.01.14-.04.86.63,1.6,1.49,1.64.1,0,.21,0,.31-.02.93-.03,1.66-.82,1.63-1.75,0-.05,0-.09-.01-.14h0Z"/><path d="m63.17,156.66c-.37,1.98-2.25,3.3-4.23,2.97-.8-.15-1.49-.64-1.89-1.35l-.18.63-2.07-.45,2.25-9.81,2.07.45-.81,3.51c.64-.49,1.49-.62,2.25-.36,1.92.57,3.04,2.56,2.52,4.5l.09-.09Zm-2.07-.45c.29-.81-.13-1.7-.94-1.99-.1-.04-.21-.06-.32-.08-.9-.23-1.81.31-2.04,1.2-.01.05-.02.1-.03.15-.29.81.13,1.7.94,1.99.1.04.21.06.32.08.9.23,1.81-.31,2.04-1.2.01-.05.02-.1.03-.15Z"/><path d="m74.78,155.94l-5.67,8.37-1.89-1.26,4.32-6.3-1.71-.63.63-1.98,2.7.72,1.71,1.17-.09-.09Z"/><path class="cls-14" d="m36.35,214.62c0-.09-.18-.09-.18-.09-1.2-.4-2-1.53-1.98-2.79v-40.05c-.1-1.54,1.07-2.86,2.6-2.96.06,0,.12,0,.19,0h28.53c0,.18.18.18.27.18,1.04.45,1.71,1.48,1.71,2.61v2.7h-10.53c-.18,0-.36,0-.45.27-.45.45-.9.9-1.44,1.35-1.61,1.53-4.15,1.53-5.76,0-.44-.4-.86-.82-1.26-1.26-.17-.22-.45-.32-.72-.27h-9.81c-.45,0-.54.09-.54.54v33.75c0,.45.18.54.54.54h30.06v2.7c.08,1.18-.61,2.27-1.71,2.7-.09,0-.27,0-.27.27h-29.25v-.18Zm13.14-3.51h-2.61c-.54,0-.81.27-.81.72s.27.72.81.72h5.22c.4.09.79-.16.88-.56.09-.4-.16-.79-.56-.88-.11-.02-.22-.02-.32,0h-2.61Zm2.79-39.69c-.73-.02-1.33.56-1.35,1.3,0,.02,0,.04,0,.05h0c0,.75.6,1.35,1.35,1.35.03,0,.06,0,.09,0,.74-.02,1.33-.61,1.35-1.35.02-.73-.56-1.33-1.3-1.35-.02,0-.04,0-.05,0h-.09Zm6.21,40.41c.02-.37-.26-.69-.63-.72-.39.08-.69.41-.72.81-.01.34.26.62.59.63.01,0,.02,0,.04,0,.39-.03.69-.33.72-.72h0Zm-3.42-.72c-.37.07-.65.35-.72.72.03.39.33.69.72.72.37-.07.65-.35.72-.72-.03-.39-.33-.69-.72-.72Z"/><rect class="cls-14" x="48.77" y="171.15" width="5.85" height="3.51"/><path class="cls-76" d="m65.6,214.62c0-.18.18-.18.27-.27,1.1-.43,1.79-1.52,1.71-2.7v-40.23c.04-1.14-.64-2.19-1.71-2.61-.09,0-.27,0-.27-.18h1.98c1.49,0,2.7,1.21,2.7,2.7v39.6c0,1.71-.54,3.06-2.25,3.6h-2.52l.09.09Z"/><path class="cls-74" d="m64.79,209.13h-27.27c-.45,0-.54,0-.54-.54v-33.75c0-.45.09-.54.54-.54h9.81c.27,0,1.17-.36,1.35-.18.45.45.18.9.9,1.8s1.98,1.53,3.6,0l1.8-1.8c.09-.18,1.8.18,1.98.18h7.74v34.83h.09Z"/><path class="cls-70" d="m64.79,209.13v-34.83h2.79v34.83h-2.79Z"/><path class="cls-50" d="m49.49,211.2h2.52c.45-.04.84.28.9.72-.09.43-.47.73-.9.72h-5.22c-.54,0-.81-.27-.81-.72s.27-.72.81-.72h2.7Z"/><path class="cls-18" d="m58.49,211.83c.02.37-.26.69-.63.72h0c-.34.01-.62-.26-.63-.59,0-.01,0-.02,0-.04.05-.39.34-.72.72-.81.36-.09.63.36.63.72h-.09Z"/><path class="cls-18" d="m55.07,211.2c.36.09.63.36.72.72,0,.4-.32.72-.72.72s-.72-.32-.72-.72c.09-.36.36-.63.72-.72Z"/><path class="cls-36" d="m54.89,171.51h.18c.18,0,.18.09.18.27s-.09.18-.18.27c-.45.54-.81,1.08-1.26,1.62l-1.17,1.44c-.18.23-.43.39-.72.45-.35.04-.71-.06-.99-.27-.18-.09-.27-.27-.45-.45-.36-.54-.72-1.17-1.08-1.71-.18-.27-.27-.54-.45-.81h0c-.09-.18,0-.27.18-.36.78-.02,1.56-.08,2.34-.18.69-.02,1.38-.08,2.07-.18.48.01.96-.02,1.44-.09h-.09Z"/><path class="cls-72" d="m54.71,189.87h-.54c-.36,0-.72-.18-1.08-.18-.46-.05-.91-.14-1.35-.27l-1.53-.27h-.27c-.18,0-.27-.18-.18-.45.08-.26.2-.5.36-.72.18-.36.36-.81.54-1.17.1-.27.25-.52.45-.72.23-.35.7-.44,1.05-.21.08.06.16.13.21.21.15.13.27.28.36.45.27.37.51.76.72,1.17.45.63.81,1.26,1.26,1.98,0,.07.04.13.09.18,0,.18,0,.27-.27.27l.18-.27Z"/><path class="cls-72" d="m55.61,180.51h.18c.18,0,.27.09.18.27s-.09.18-.18.27c-.45.63-.9,1.17-1.44,1.8-.54.63-.9,1.08-1.35,1.53-.19.28-.48.47-.81.54-.38.04-.76-.06-1.08-.27-.18-.16-.33-.34-.45-.54-.45-.63-.81-1.26-1.26-1.89-.2-.29-.38-.59-.54-.9h0c-.09-.18,0-.36.18-.36.87-.02,1.74-.08,2.61-.18.75-.02,1.5-.08,2.25-.18.54.01,1.08-.02,1.62-.09h.09Z"/><path d="m50.75,201.57v2.52h-1.08v1.71h-2.79v-1.71h-4.86v-2.61l3.33-6.75h3.15l-3.33,6.75h1.71v-1.98h2.79v1.98h1.08v.09Z"/><path d="m62.63,199.5v1.08c.03,1.47-.52,2.89-1.53,3.96-1.06,1.03-2.49,1.58-3.96,1.53-1.57.04-3.09-.54-4.23-1.62-2.16-2.27-2.16-5.83,0-8.1,1.06-1.1,2.52-1.72,4.05-1.71.98-.09,1.97.17,2.79.72.8.43,1.48,1.05,1.98,1.8l-2.43,1.35c-.22-.38-.57-.67-.99-.81-.46-.18-.95-.28-1.44-.27-1.54-.1-2.87,1.06-2.97,2.6,0,.12,0,.25,0,.37-.02.8.27,1.57.81,2.16.61.64,1.46.97,2.34.9,1.05.07,2.05-.5,2.52-1.44h-2.7v-2.43h5.58l.18-.09Z"/><line class="cls-9" x1="250.17" y1="177.45" x2="297.55" y2="176.72"/><line class="cls-8" x1="250.17" y1="177.45" x2="286.79" y2="176.89"/><polygon class="cls-78" points="284.72 184.4 297.55 176.73 284.49 169.44 284.72 184.4"/><line class="cls-9" x1="102.45" y1="177.45" x2="149.83" y2="176.72"/><line class="cls-8" x1="113.21" y1="177.28" x2="149.83" y2="176.72"/><polygon class="cls-78" points="115.51 184.73 102.45 177.45 115.28 169.77 115.51 184.73"/><circle class="cls-6" cx="200" cy="180.72" r="45"/><path d="m167.2,178.22l-.7-2.3c.97-.09,1.76-.83,1.9-1.8.3-1.1-.1-1.5-.5-1.6-.6-.2-1,.4-1.8,1.8-.8,1.4-1.9,2.7-3.8,2.2-1.77-.47-2.82-2.29-2.34-4.05.01-.05.03-.1.04-.15.32-1.62,1.58-2.88,3.2-3.2l.7,2.2c-.81.08-1.47.7-1.6,1.5-.2.7,0,1.2.5,1.3s.8,0,1.7-1.5c.9-1.5,1.8-3,4-2.5,2,.5,2.7,2.3,2.2,4.5-.29,1.8-1.7,3.21-3.5,3.5v.1Z"/><path d="m168.3,168.82c-1.93-1.07-2.63-3.5-1.56-5.44,1.07-1.93,3.5-2.63,5.44-1.56,1.93,1.07,2.63,3.5,1.56,5.44-.01.02-.02.04-.04.06-1.09,1.89-3.49,2.56-5.4,1.5Zm2.8-5c-.85-.44-1.89-.11-2.33.74-.44.85-.11,1.89.74,2.33.82.43,1.83.13,2.3-.67.47-.85.16-1.92-.69-2.39,0,0,0,0-.01,0Z"/><path d="m173,160.92c-1.55-1.41-1.66-3.81-.25-5.35.08-.09.16-.17.25-.25.97-.97,2.36-1.38,3.7-1.1l-.5,2.2c-.59-.2-1.23,0-1.6.5-.62.7-.56,1.78.14,2.4.64.57,1.61.57,2.26,0,.45-.4.61-1.04.4-1.6l2.2-.6c.37,1.35-.01,2.8-1,3.8-1.41,1.55-3.81,1.66-5.35.25-.09-.08-.17-.16-.25-.25Z"/><path d="m190.6,153.52l-1.3-.5c-.51.83-1.29,1.46-2.2,1.8-2,.9-3.9.4-4.7-1.4-.51-1.11-.39-2.4.3-3.4-.47-.34-.84-.79-1.1-1.3-.68-1.59.06-3.43,1.65-4.11.08-.03.16-.07.25-.09,1.38-.63,3.01-.35,4.1.7l-1.4,1.9c-.39-.53-1.09-.74-1.7-.5-.49.15-.76.67-.61,1.16,0,.01,0,.02.01.04.2.5.7.7,1.4,1l2.6,1.2c.03-.57-.04-1.15-.2-1.7l2.3.2c.1.8.1,1.6,0,2.4l1.8.8-1.3,1.7.1.1Zm-3.2-1.4l-2.6-1.1h-.1c-.2.37-.2.83,0,1.2.3.6.9.9,1.9.5.32-.18.62-.38.9-.6h-.1Z"/><path d="m206.5,152.02h-2.4c0-.1.3-6.2.3-6.2l-2.9,4.3h-.3l-2.5-4.6-.3,6.1h-2.4c0-.1.5-10.6.5-10.6h2.4c0,.1,2.6,4.9,2.6,4.9l3.1-4.5h2.4c0,.1-.5,10.6-.5,10.6Z"/><path d="m211.6,152.12c.48.2,1.02.2,1.5,0l1.3,1.6c-1.07.7-2.43.82-3.6.3-2.06-.61-3.24-2.77-2.63-4.83.04-.12.08-.25.13-.37.69-2.01,2.87-3.07,4.88-2.38.07.03.15.05.22.08,1.97.73,2.97,2.91,2.25,4.88-.01.04-.03.08-.05.12-.07.29-.21.57-.4.8l-5-1.9c.02.77.55,1.42,1.3,1.6l.1.1Zm2.3-2.1c.06-.75-.39-1.45-1.1-1.7-.67-.33-1.48-.12-1.9.5l3,1.1v.1Z"/><path d="m226.5,158.72l-2.9,3.6-1.7-1.4,2.8-3.4c.5-.6.5-1.2,0-1.6s-1.2-.3-1.8.3l-2.7,3.3-1.7-1.4,2.8-3.4c.5-.6.5-1.2,0-1.6s-1.2-.3-1.8.3l-2.7,3.3-1.7-1.4,4.8-5.8,1.7,1.4-.4.5c.76-.16,1.54.06,2.1.6.63.46.98,1.22.9,2,.82-.18,1.67.05,2.3.6,1.21.98,1.39,2.76.41,3.97-.07.08-.14.16-.21.23l-.2-.1Z"/><path d="m226.8,160.72c1.88-1.16,4.34-.58,5.51,1.3,1.16,1.88.58,4.34-1.3,5.51-1.88,1.16-4.34.58-5.51-1.3,0,0,0,0,0,0-1.17-1.84-.62-4.28,1.22-5.45.03-.02.05-.03.08-.05Zm3,4.8c.82-.47,1.11-1.51.64-2.33-.01-.02-.03-.05-.04-.07-.46-.79-1.47-1.05-2.26-.59-.05.03-.1.06-.14.09-.82.47-1.11,1.51-.64,2.33.01.02.03.05.04.07.46.79,1.47,1.05,2.26.59.05-.03.1-.06.14-.09Z"/><path d="m236.7,171.92l-2.4.8c-.13-1.05-1.09-1.79-2.14-1.65-.09.01-.18.03-.26.05l-3.2,1.1-.7-2.1,7.1-2.5.7,2.1-1.3.4c.97.02,1.82.67,2.1,1.6l.1.2Z"/><path d="m238,181.22l-7.5-1.6c-2.5-.5-3.6-1.7-3.7-3.8l2.1-.3c-.03.87.63,1.62,1.5,1.7l6.7-3.9.3,2.5-4.3,2.2,4.7.8.3,2.4h-.1Z"/><path class="cls-10" d="m190.9,215.82h-10.5c-.85-.43-1.34-1.36-1.2-2.3v-26.8c0-.7.2-.9.9-1.1.5,0,.7-.4.7-.9v-3c.06-.44-.25-.84-.69-.9,0,0,0,0-.01,0-.8-.2-.9-.4-.9-1.1v-6.4c0-.74.29-1.46.8-2,2-1.9,3.9-3.9,5.9-5.9.53-.52,1.25-.81,2-.8h24.4v.2c.63.47.97,1.22.9,2-.6.2-.8.3-.8.9v6.5c0,.6.2.8.8.9v16.9c-.14-.46-.53-.81-1-.9h-26.3c-.8,0-1.2.4-1.2,1.3v16.2c-.11.67.34,1.29,1.01,1.4.13.02.26.02.39,0h26c.7,0,1.2-.2,1.4-.9v3.8c0,1,0,2-1,2.6h-5.4c-.2-.2-.5-.4-.6-.7-.19-.37-.58-.61-1-.6h-12.5c-.5,0-.9,0-1.1.5-.21.31-.49.59-.8.8l-.2.3Zm9.1-44.8v-3.2c0-.6-.3-.9-.8-.9s-.7.4-.7.9v6.5h0c0,.6.3.9.8.9.39,0,.71-.32.71-.71,0-.03,0-.06,0-.09v-3.3h0v-.1Zm4.7,0v-3.2c0-.6-.3-1-.8-1s-.8.4-.8,1v6.4c0,.6.3,1,.8,1s.8-.3.8-1v-3.1h0v-.1Zm4.7,0v-3.2c0-.6-.3-.9-.8-.9s-.8.4-.8,1v6.4c0,.6.3,1,.8,1s.8-.3.8-.9v-3.2h0v-.2Zm-18.8,0v-3.2c0-.6-.3-.9-.7-.9-.45,0-.81.38-.8.84,0,.02,0,.04,0,.06v6.4c0,.6.3.9.7.9s.8-.3.8-.9v-3.2Zm4.7,0v-3.2c0-.6-.3-1-.8-.9-.44.05-.75.45-.7.89,0,0,0,0,0,.01v6.4c0,.6.3.9.8.9s.7-.3.7-.9v-3.2Zm-11.4,2.1h0v1.3c-.01.38.28.69.66.7.01,0,.03,0,.04,0,.4-.02.73-.31.8-.7h0v-2.6c.02-.41-.29-.76-.7-.8h0c-.4,0-.7.3-.8.8v1.3Z"/><path class="cls-23" d="m212.4,164.72h4.8c.87-.01,1.59.69,1.6,1.56,0,.01,0,.03,0,.04v4.7c0,.3-.1.6-.5.6s-.6.3-.6.8v10.1c0,.4.1.7.5.8s.6.4.6.8v29.6c.09.91-.39,1.78-1.2,2.2h-5.2c.77-.63,1.15-1.62,1-2.6v-37.8c.5,0,.7-.4.7-1v-6.4c.06-.46-.24-.9-.7-1,.07-.78-.27-1.53-.9-2v-.2l-.1-.2Z"/><path class="cls-60" d="m184.7,208.12v-15.5c0-.9.4-1.3,1.2-1.3h22v15c0,1.6-.3,1.8-1.8,1.8h-21.4Z"/><path class="cls-88" d="m184.7,208.12h21.5c1.6,0,1.8-.3,1.8-1.8v-15h4.3c.52,0,.95.39,1,.9v17.1c-.2.7-.7.9-1.4.9h-26c-1,0-1.4-.4-1.4-1.4v-.7h.2Z"/><path class="cls-22" d="m213.4,166.92c.5.1.7.4.7,1v6.4c.06.46-.24.9-.7,1-.6-.1-.8-.3-.8-.9v-6.5c0-.6.2-.8.8-.9v-.1Z"/><path class="cls-22" d="m200,171.02v3.3c.05.39-.23.74-.61.79-.03,0-.06,0-.09,0-.41.03-.77-.27-.8-.67,0-.04,0-.08,0-.13h0v-6.6c-.05-.44.26-.84.7-.9.45,0,.81.38.8.84,0,.02,0,.04,0,.06v3.3Z"/><path class="cls-22" d="m204.7,171.12v3.1c0,.6-.3,1-.8,1s-.8-.3-.8-1v-6.4c0-.6.3-1,.8-1s.8.4.8,1v3.3h0Z"/><path class="cls-22" d="m209.4,171.12v3.2c0,.6-.3,1-.8.9s-.8-.3-.8-1v-6.4c0-.6.3-1,.8-1s.7.4.8.9v3.4h0Z"/><path class="cls-22" d="m190.6,171.12v3.2c0,.6-.3.9-.8.9s-.7-.3-.7-.9v-6.4c0-.6.3-1,.8-.9.44.05.75.45.7.89,0,0,0,0,0,.01v3.2Z"/><path class="cls-22" d="m195.3,171.12v3.2c0,.6-.3.9-.7.9s-.8-.3-.8-.9v-6.4c0-.6.3-.9.7-.9.45,0,.81.38.8.84,0,.02,0,.04,0,.06v3.2Z"/><path class="cls-28" d="m183.9,173.22v-1.3c-.03-.41.27-.77.67-.8.04,0,.08,0,.13,0,.44,0,.79.34.8.78,0,0,0,.01,0,.02h0v2.6c.01.38-.28.69-.66.7-.01,0-.03,0-.04,0h0c-.35.04-.66-.21-.7-.55,0-.05,0-.1,0-.15v-1.3h-.2Z"/></svg>