<?xml version="1.0" encoding="UTF-8"?><svg id="Layer_1" xmlns="http://www.w3.org/2000/svg" viewBox="0 0 400 400"><defs><style>.cls-1,.cls-2,.cls-3,.cls-4,.cls-5{stroke-miterlimit:10;}.cls-1,.cls-6{fill:#fff;}.cls-1,.cls-5{stroke:#231f20;stroke-width:2px;}.cls-2{stroke:#a5262d;}.cls-2,.cls-3,.cls-4{stroke-width:4px;}.cls-2,.cls-3,.cls-4,.cls-5{fill:none;}.cls-3{stroke:#000;}.cls-7{fill:#bd694f;}.cls-8{fill:#ede6e3;}.cls-9{fill:#eb917f;}.cls-10{fill:#b9a1d3;}.cls-11{fill:#fbe501;}.cls-12{fill:#f9f3b1;}.cls-13{fill:#546e7a;}.cls-14{fill:#934d36;}.cls-15{fill:#f3bd99;}.cls-4{stroke:#c000e2;}.cls-16{fill:#4d5961;}.cls-17{fill:#f4bd99;}.cls-18{fill:#5e6b74;}.cls-19{fill:#06687f;}.cls-20{fill:#ffed58;}.cls-21{fill:#36464e;}.cls-22{fill:#baa1d3;}.cls-23{fill:#97d6e5;}.cls-24{fill:#788f9b;}.cls-25{fill:#7dcbe5;}.cls-26{fill:#eecf15;}.cls-27{fill:#9dd8e6;}.cls-28{fill:#0092b9;}.cls-29{fill:#e5eff1;}.cls-30{fill:#baa2d3;}.cls-31{fill:#d8ceca;}.cls-32{fill:#ede4e1;}.cls-33{fill:#525f67;}.cls-34{fill:#fbd734;}.cls-35{fill:#231f20;}.cls-36{fill:#924d36;}.cls-37{fill:#914d37;}.cls-38{fill:#9fddea;}.cls-39{fill:#067fa6;}</style></defs><path class="cls-34" d="m358.18,326.11c.5,0,.99.02,1.49.02.84,0,1.54.69,1.55,1.54,0,.78,0,1.56,0,2.33,0,6.58,0,13.16,0,19.75,0,.43-.02.86-.15,1.28-.15.49-.75.93-1.27.93-5.57,0-11.15,0-16.72,0-.03,0-.05,0-.08,0,0-1.51,0-3.03,0-4.54,1.16,0,2.32,0,3.48-.01.15,0,.32.04.32-.21,0-.57.05-1.16-.08-1.71-.36-1.48-.79-2.95-1.17-4.43-.1-.4-.22-.79-.36-1.18-.22-.61.19-.92.56-1.25.6-.55.85-1.24.99-2.03.3-1.66-1.1-3.65-2.68-4.16-.05-.09-.12-.13-.22-.08-.08-.02-.16-.04-.24-.05-.04-.05-.08-.07-.14-.03-.15-.02-.31-.04-.46-.07,0-2.01,0-4.03,0-6.04,2.86,0,5.71,0,8.57-.02.18,0,.36-.01.53-.02,1.02.03,2.04.05,3.07,0,1,.06,2,.04,3.01,0Z"/><path class="cls-20" d="m343,347.4c0,1.51,0,3.03,0,4.54-.57,0-1.15.01-1.72.01-4.86,0-9.72-.02-14.58.02-1.28.01-1.94-.69-1.94-1.94.04-7.44.03-14.88,0-22.32,0-.89.72-1.6,1.57-1.59.5,0,.99-.01,1.49-.02,1,.03,2,.05,3-.01,1.02.06,2.04.03,3.06.01.17,0,.33.02.5.02,2.87,0,5.74,0,8.61.01,0,2.01,0,4.03,0,6.04-.32.15-.68.08-1.02.21-1.42.55-2.36,1.51-2.7,3.02-.06.03-.11.07-.03.14-.11,1.25.02,2.39,1.14,3.22.35.26.49.65.35,1.14-.09.3-.2.59-.27.9-.2.84-.42,1.66-.64,2.49-.16.61-.35,1.22-.5,1.83-.15.61-.11,1.23-.13,1.85-.01.31.07.42.4.41,1.14-.02,2.27,0,3.41,0Z"/><path class="cls-24" d="m330.83,326.1c-1,.06-2,.04-3,.01,0-2.7-.02-5.41.02-8.11.02-1.25.19-2.49.55-3.71.44-1.46,1.06-2.83,1.9-4.1,1.05-1.58,2.35-2.94,3.9-4.05,1.02-.73,2.09-1.38,3.27-1.78,1.17-.41,2.35-.81,3.61-.9.71-.05,1.41-.16,2.12-.14,1.77.03,3.47.38,5.13,1,1.65.62,3.14,1.52,4.5,2.65,1.17.97,2.13,2.12,2.94,3.4.58.9,1.03,1.86,1.42,2.87.21.55.36,1.12.55,1.68.17.51.21,1.06.27,1.6.35,3.19.08,6.39.17,9.58-1,.04-2,.05-3,0,0-2.28-.02-4.57.01-6.85.02-1.31-.15-2.6-.47-3.87-.45-1.78-1.28-3.39-2.48-4.76-1.47-1.68-3.26-2.95-5.42-3.64-1.53-.49-3.08-.64-4.69-.54-1.49.09-2.89.44-4.22,1.06-2.21,1.03-3.95,2.61-5.24,4.69-1.11,1.79-1.72,3.76-1.8,5.84-.1,2.69-.02,5.38-.02,8.08Z"/><path class="cls-13" d="m352.11,326.11c0-2.42.02-4.85,0-7.27-.01-1.29-.19-2.56-.71-3.76-.41-.95-.96-1.81-1.64-2.6-1.01-1.18-2.27-1.99-3.7-2.51-1.32-.48-2.7-.64-4.13-.46-.87.11-1.71.31-2.49.65-2.18.95-3.78,2.51-4.77,4.69-.46,1.02-.65,2.09-.7,3.2-.13,2.69-.02,5.38-.06,8.06-1.02.02-2.04.04-3.06-.01,0-2.69-.08-5.39.02-8.08.08-2.08.68-4.05,1.8-5.84,1.29-2.08,3.03-3.66,5.24-4.69,1.33-.62,2.73-.97,4.22-1.06,1.61-.09,3.16.06,4.69.54,2.16.69,3.94,1.95,5.42,3.64,1.2,1.38,2.03,2.98,2.48,4.76.32,1.27.49,2.55.47,3.87-.03,2.28-.01,4.57-.01,6.85-1.02.05-2.04.04-3.07,0Z"/><path class="cls-21" d="m343,347.4c-1.14,0-2.27-.02-3.41,0-.33,0-.41-.1-.4-.41.02-.62-.01-1.25.13-1.85.15-.62.34-1.22.5-1.83.22-.83.44-1.66.64-2.49.07-.31.18-.6.27-.9.14-.49,0-.88-.35-1.14-1.12-.83-1.25-1.97-1.14-3.22.06-.03.06-.08.03-.14.34-1.51,1.28-2.47,2.7-3.02.34-.13.7-.05,1.02-.21.15.02.31.04.46.07.03.08.07.12.14.03.08.02.16.04.24.05.04.11.14.08.22.08,1.58.51,2.98,2.5,2.68,4.16-.14.79-.4,1.48-.99,2.03-.36.33-.78.65-.56,1.25.14.39.25.78.36,1.18.38,1.48.81,2.94,1.17,4.43.13.55.09,1.14.08,1.71,0,.25-.17.21-.32.21-1.16,0-2.32,0-3.48.01Z"/><path class="cls-13" d="m344.07,332.42c-.09,0-.18.03-.22-.08.1-.05.17,0,.22.08Z"/><path class="cls-13" d="m343.6,332.29c-.07.09-.11.05-.14-.03.06-.03.1-.02.14.03Z"/><path class="cls-24" d="m339.28,335.41c.03.06.03.1-.03.14-.08-.07-.03-.1.03-.14Z"/><circle class="cls-3" cx="343.13" cy="329.95" r="39.02"/><path class="cls-34" d="m261.18,323.11c.5,0,.99.02,1.49.02.84,0,1.54.69,1.55,1.54,0,.78,0,1.56,0,2.33,0,6.58,0,13.16,0,19.75,0,.43-.02.86-.15,1.28-.15.49-.75.93-1.27.93-5.57,0-11.15,0-16.72,0-.03,0-.05,0-.08,0,0-1.51,0-3.03,0-4.54,1.16,0,2.32,0,3.48-.01.15,0,.32.04.32-.21,0-.57.05-1.16-.08-1.71-.36-1.48-.79-2.95-1.17-4.43-.1-.4-.22-.79-.36-1.18-.22-.61.19-.92.56-1.25.6-.55.85-1.24.99-2.03.3-1.66-1.1-3.65-2.68-4.16-.05-.09-.12-.13-.22-.08-.08-.02-.16-.04-.24-.05-.04-.05-.08-.07-.14-.03-.15-.02-.31-.04-.46-.07,0-2.01,0-4.03,0-6.04,2.86,0,5.71,0,8.57-.02.18,0,.36-.01.53-.02,1.02.03,2.04.05,3.07,0,1,.06,2,.04,3.01,0Z"/><path class="cls-20" d="m246,344.4c0,1.51,0,3.03,0,4.54-.57,0-1.15.01-1.72.01-4.86,0-9.72-.02-14.58.02-1.28.01-1.94-.69-1.94-1.94.04-7.44.03-14.88,0-22.32,0-.89.72-1.6,1.57-1.59.5,0,.99-.01,1.49-.02,1,.03,2,.05,3-.01,1.02.06,2.04.03,3.06.01.17,0,.33.02.5.02,2.87,0,5.74,0,8.61.01,0,2.01,0,4.03,0,6.04-.32.15-.68.08-1.02.21-1.42.55-2.36,1.51-2.7,3.02-.06.03-.11.07-.03.14-.11,1.25.02,2.39,1.14,3.22.35.26.49.65.35,1.14-.09.3-.2.59-.27.9-.2.84-.42,1.66-.64,2.49-.16.61-.35,1.22-.5,1.83-.15.61-.11,1.23-.13,1.85-.01.31.07.42.4.41,1.14-.02,2.27,0,3.41,0Z"/><path class="cls-24" d="m233.83,323.1c-1,.06-2,.04-3,.01,0-2.7-.02-5.41.02-8.11.02-1.25.19-2.49.55-3.71.44-1.46,1.06-2.83,1.9-4.1,1.05-1.58,2.35-2.94,3.9-4.05,1.02-.73,2.09-1.38,3.27-1.78,1.17-.41,2.35-.81,3.61-.9.71-.05,1.41-.16,2.12-.14,1.77.03,3.47.38,5.13,1,1.65.62,3.14,1.52,4.5,2.65,1.17.97,2.13,2.12,2.94,3.4.58.9,1.03,1.86,1.42,2.87.21.55.36,1.12.55,1.68.17.51.21,1.06.27,1.6.35,3.19.08,6.39.17,9.58-1,.04-2,.05-3,0,0-2.28-.02-4.57.01-6.85.02-1.31-.15-2.6-.47-3.87-.45-1.78-1.28-3.39-2.48-4.76-1.47-1.68-3.26-2.95-5.42-3.64-1.53-.49-3.08-.64-4.69-.54-1.49.09-2.89.44-4.22,1.06-2.21,1.03-3.95,2.61-5.24,4.69-1.11,1.79-1.72,3.76-1.8,5.84-.1,2.69-.02,5.38-.02,8.08Z"/><path class="cls-13" d="m255.11,323.11c0-2.42.02-4.85,0-7.27-.01-1.29-.19-2.56-.71-3.76-.41-.95-.96-1.81-1.64-2.6-1.01-1.18-2.27-1.99-3.7-2.51-1.32-.48-2.7-.64-4.13-.46-.87.11-1.71.31-2.49.65-2.18.95-3.78,2.51-4.77,4.69-.46,1.02-.65,2.09-.7,3.2-.13,2.69-.02,5.38-.06,8.06-1.02.02-2.04.04-3.06-.01,0-2.69-.08-5.39.02-8.08.08-2.08.68-4.05,1.8-5.84,1.29-2.08,3.03-3.66,5.24-4.69,1.33-.62,2.73-.97,4.22-1.06,1.61-.09,3.16.06,4.69.54,2.16.69,3.94,1.95,5.42,3.64,1.2,1.38,2.03,2.98,2.48,4.76.32,1.27.49,2.55.47,3.87-.03,2.28-.01,4.57-.01,6.85-1.02.05-2.04.04-3.07,0Z"/><path class="cls-21" d="m246,344.4c-1.14,0-2.27-.02-3.41,0-.33,0-.41-.1-.4-.41.02-.62-.01-1.25.13-1.85.15-.62.34-1.22.5-1.83.22-.83.44-1.66.64-2.49.07-.31.18-.6.27-.9.14-.49,0-.88-.35-1.14-1.12-.83-1.25-1.97-1.14-3.22.06-.03.06-.08.03-.14.34-1.51,1.28-2.47,2.7-3.02.34-.13.7-.05,1.02-.21.15.02.31.04.46.07.03.08.07.12.14.03.08.02.16.04.24.05.04.11.14.08.22.08,1.58.51,2.98,2.5,2.68,4.16-.14.79-.4,1.48-.99,2.03-.36.33-.78.65-.56,1.25.14.39.25.78.36,1.18.38,1.48.81,2.94,1.17,4.43.13.55.09,1.14.08,1.71,0,.25-.17.21-.32.21-1.16,0-2.32,0-3.48.01Z"/><path class="cls-13" d="m247.07,329.42c-.09,0-.18.03-.22-.08.1-.05.17,0,.22.08Z"/><path class="cls-13" d="m246.6,329.29c-.07.09-.11.05-.14-.03.06-.03.1-.02.14.03Z"/><path class="cls-24" d="m242.28,332.41c.03.06.03.1-.03.14-.08-.07-.03-.1.03-.14Z"/><circle class="cls-3" cx="246.13" cy="326.95" r="39.02"/><path class="cls-34" d="m167.18,326.11c.5,0,.99.02,1.49.02.84,0,1.54.69,1.55,1.54,0,.78,0,1.56,0,2.33,0,6.58,0,13.16,0,19.75,0,.43-.02.86-.15,1.28-.15.49-.75.93-1.27.93-5.57,0-11.15,0-16.72,0-.03,0-.05,0-.08,0,0-1.51,0-3.03,0-4.54,1.16,0,2.32,0,3.48-.01.15,0,.32.04.32-.21,0-.57.05-1.16-.08-1.71-.36-1.48-.79-2.95-1.17-4.43-.1-.4-.22-.79-.36-1.18-.22-.61.19-.92.56-1.25.6-.55.85-1.24.99-2.03.3-1.66-1.1-3.65-2.68-4.16-.05-.09-.12-.13-.22-.08-.08-.02-.16-.04-.24-.05-.04-.05-.08-.07-.14-.03-.15-.02-.31-.04-.46-.07,0-2.01,0-4.03,0-6.04,2.86,0,5.71,0,8.57-.02.18,0,.36-.01.53-.02,1.02.03,2.04.05,3.07,0,1,.06,2,.04,3.01,0Z"/><path class="cls-20" d="m152,347.4c0,1.51,0,3.03,0,4.54-.57,0-1.15.01-1.72.01-4.86,0-9.72-.02-14.58.02-1.28.01-1.94-.69-1.94-1.94.04-7.44.03-14.88,0-22.32,0-.89.72-1.6,1.57-1.59.5,0,.99-.01,1.49-.02,1,.03,2,.05,3-.01,1.02.06,2.04.03,3.06.01.17,0,.33.02.5.02,2.87,0,5.74,0,8.61.01,0,2.01,0,4.03,0,6.04-.32.15-.68.08-1.02.21-1.42.55-2.36,1.51-2.7,3.02-.06.03-.11.07-.03.14-.11,1.25.02,2.39,1.14,3.22.35.26.49.65.35,1.14-.09.3-.2.59-.27.9-.2.84-.42,1.66-.64,2.49-.16.61-.35,1.22-.5,1.83-.15.61-.11,1.23-.13,1.85-.01.31.07.42.4.41,1.14-.02,2.27,0,3.41,0Z"/><path class="cls-24" d="m139.83,326.1c-1,.06-2,.04-3,.01,0-2.7-.02-5.41.02-8.11.02-1.25.19-2.49.55-3.71.44-1.46,1.06-2.83,1.9-4.1,1.05-1.58,2.35-2.94,3.9-4.05,1.02-.73,2.09-1.38,3.27-1.78,1.17-.41,2.35-.81,3.61-.9.71-.05,1.41-.16,2.12-.14,1.77.03,3.47.38,5.13,1,1.65.62,3.14,1.52,4.5,2.65,1.17.97,2.13,2.12,2.94,3.4.58.9,1.03,1.86,1.42,2.87.21.55.36,1.12.55,1.68.17.51.21,1.06.27,1.6.35,3.19.08,6.39.17,9.58-1,.04-2,.05-3,0,0-2.28-.02-4.57.01-6.85.02-1.31-.15-2.6-.47-3.87-.45-1.78-1.28-3.39-2.48-4.76-1.47-1.68-3.26-2.95-5.42-3.64-1.53-.49-3.08-.64-4.69-.54-1.49.09-2.89.44-4.22,1.06-2.21,1.03-3.95,2.61-5.24,4.69-1.11,1.79-1.72,3.76-1.8,5.84-.1,2.69-.02,5.38-.02,8.08Z"/><path class="cls-13" d="m161.11,326.11c0-2.42.02-4.85,0-7.27-.01-1.29-.19-2.56-.71-3.76-.41-.95-.96-1.81-1.64-2.6-1.01-1.18-2.27-1.99-3.7-2.51-1.32-.48-2.7-.64-4.13-.46-.87.11-1.71.31-2.49.65-2.18.95-3.78,2.51-4.77,4.69-.46,1.02-.65,2.09-.7,3.2-.13,2.69-.02,5.38-.06,8.06-1.02.02-2.04.04-3.06-.01,0-2.69-.08-5.39.02-8.08.08-2.08.68-4.05,1.8-5.84,1.29-2.08,3.03-3.66,5.24-4.69,1.33-.62,2.73-.97,4.22-1.06,1.61-.09,3.16.06,4.69.54,2.16.69,3.94,1.95,5.42,3.64,1.2,1.38,2.03,2.98,2.48,4.76.32,1.27.49,2.55.47,3.87-.03,2.28-.01,4.57-.01,6.85-1.02.05-2.04.04-3.07,0Z"/><path class="cls-21" d="m152,347.4c-1.14,0-2.27-.02-3.41,0-.33,0-.41-.1-.4-.41.02-.62-.01-1.25.13-1.85.15-.62.34-1.22.5-1.83.22-.83.44-1.66.64-2.49.07-.31.18-.6.27-.9.14-.49,0-.88-.35-1.14-1.12-.83-1.25-1.97-1.14-3.22.06-.03.06-.08.03-.14.34-1.51,1.28-2.47,2.7-3.02.34-.13.7-.05,1.02-.21.15.02.31.04.46.07.03.08.07.12.14.03.08.02.16.04.24.05.04.11.14.08.22.08,1.58.51,2.98,2.5,2.68,4.16-.14.79-.4,1.48-.99,2.03-.36.33-.78.65-.56,1.25.14.39.25.78.36,1.18.38,1.48.81,2.94,1.17,4.43.13.55.09,1.14.08,1.71,0,.25-.17.21-.32.21-1.16,0-2.32,0-3.48.01Z"/><path class="cls-13" d="m153.07,332.42c-.09,0-.18.03-.22-.08.1-.05.17,0,.22.08Z"/><path class="cls-13" d="m152.6,332.29c-.07.09-.11.05-.14-.03.06-.03.1-.02.14.03Z"/><path class="cls-24" d="m148.28,335.41c.03.06.03.1-.03.14-.08-.07-.03-.1.03-.14Z"/><circle class="cls-3" cx="152.13" cy="329.95" r="39.02"/><path class="cls-34" d="m71.18,326.11c.5,0,.99.02,1.49.02.84,0,1.54.69,1.55,1.54,0,.78,0,1.56,0,2.33,0,6.58,0,13.16,0,19.75,0,.43-.02.86-.15,1.28-.15.49-.75.93-1.27.93-5.57,0-11.15,0-16.72,0-.03,0-.05,0-.08,0,0-1.51,0-3.03,0-4.54,1.16,0,2.32,0,3.48-.01.15,0,.32.04.32-.21,0-.57.05-1.16-.08-1.71-.36-1.48-.79-2.95-1.17-4.43-.1-.4-.22-.79-.36-1.18-.22-.61.19-.92.56-1.25.6-.55.85-1.24.99-2.03.3-1.66-1.1-3.65-2.68-4.16-.05-.09-.12-.13-.22-.08-.08-.02-.16-.04-.24-.05-.04-.05-.08-.07-.14-.03-.15-.02-.31-.04-.46-.07,0-2.01,0-4.03,0-6.04,2.86,0,5.71,0,8.57-.02.18,0,.36-.01.53-.02,1.02.03,2.04.05,3.07,0,1,.06,2,.04,3.01,0Z"/><path class="cls-20" d="m56,347.4c0,1.51,0,3.03,0,4.54-.57,0-1.15.01-1.72.01-4.86,0-9.72-.02-14.58.02-1.28.01-1.94-.69-1.94-1.94.04-7.44.03-14.88,0-22.32,0-.89.72-1.6,1.57-1.59.5,0,.99-.01,1.49-.02,1,.03,2,.05,3-.01,1.02.06,2.04.03,3.06.01.17,0,.33.02.5.02,2.87,0,5.74,0,8.61.01,0,2.01,0,4.03,0,6.04-.32.15-.68.08-1.02.21-1.42.55-2.36,1.51-2.7,3.02-.06.03-.11.07-.03.14-.11,1.25.02,2.39,1.14,3.22.35.26.49.65.35,1.14-.09.3-.2.59-.27.9-.2.84-.42,1.66-.64,2.49-.16.61-.35,1.22-.5,1.83-.15.61-.11,1.23-.13,1.85-.01.31.07.42.4.41,1.14-.02,2.27,0,3.41,0Z"/><path class="cls-24" d="m43.83,326.1c-1,.06-2,.04-3,.01,0-2.7-.02-5.41.02-8.11.02-1.25.19-2.49.55-3.71.44-1.46,1.06-2.83,1.9-4.1,1.05-1.58,2.35-2.94,3.9-4.05,1.02-.73,2.09-1.38,3.27-1.78,1.17-.41,2.35-.81,3.61-.9.71-.05,1.41-.16,2.12-.14,1.77.03,3.47.38,5.13,1,1.65.62,3.14,1.52,4.5,2.65,1.17.97,2.13,2.12,2.94,3.4.58.9,1.03,1.86,1.42,2.87.21.55.36,1.12.55,1.68.17.51.21,1.06.27,1.6.35,3.19.08,6.39.17,9.58-1,.04-2,.05-3,0,0-2.28-.02-4.57.01-6.85.02-1.31-.15-2.6-.47-3.87-.45-1.78-1.28-3.39-2.48-4.76-1.47-1.68-3.26-2.95-5.42-3.64-1.53-.49-3.08-.64-4.69-.54-1.49.09-2.89.44-4.22,1.06-2.21,1.03-3.95,2.61-5.24,4.69-1.11,1.79-1.72,3.76-1.8,5.84-.1,2.69-.02,5.38-.02,8.08Z"/><path class="cls-13" d="m65.11,326.11c0-2.42.02-4.85,0-7.27-.01-1.29-.19-2.56-.71-3.76-.41-.95-.96-1.81-1.64-2.6-1.01-1.18-2.27-1.99-3.7-2.51-1.32-.48-2.7-.64-4.13-.46-.87.11-1.71.31-2.49.65-2.18.95-3.78,2.51-4.77,4.69-.46,1.02-.65,2.09-.7,3.2-.13,2.69-.02,5.38-.06,8.06-1.02.02-2.04.04-3.06-.01,0-2.69-.08-5.39.02-8.08.08-2.08.68-4.05,1.8-5.84,1.29-2.08,3.03-3.66,5.24-4.69,1.33-.62,2.73-.97,4.22-1.06,1.61-.09,3.16.06,4.69.54,2.16.69,3.94,1.95,5.42,3.64,1.2,1.38,2.03,2.98,2.48,4.76.32,1.27.49,2.55.47,3.87-.03,2.28-.01,4.57-.01,6.85-1.02.05-2.04.04-3.07,0Z"/><path class="cls-21" d="m56,347.4c-1.14,0-2.27-.02-3.41,0-.33,0-.41-.1-.4-.41.02-.62-.01-1.25.13-1.85.15-.62.34-1.22.5-1.83.22-.83.44-1.66.64-2.49.07-.31.18-.6.27-.9.14-.49,0-.88-.35-1.14-1.12-.83-1.25-1.97-1.14-3.22.06-.03.06-.08.03-.14.34-1.51,1.28-2.47,2.7-3.02.34-.13.7-.05,1.02-.21.15.02.31.04.46.07.03.08.07.12.14.03.08.02.16.04.24.05.04.11.14.08.22.08,1.58.51,2.98,2.5,2.68,4.16-.14.79-.4,1.48-.99,2.03-.36.33-.78.65-.56,1.25.14.39.25.78.36,1.18.38,1.48.81,2.94,1.17,4.43.13.55.09,1.14.08,1.71,0,.25-.17.21-.32.21-1.16,0-2.32,0-3.48.01Z"/><path class="cls-13" d="m57.07,332.42c-.09,0-.18.03-.22-.08.1-.05.17,0,.22.08Z"/><path class="cls-13" d="m56.6,332.29c-.07.09-.11.05-.14-.03.06-.03.1-.02.14.03Z"/><path class="cls-24" d="m52.28,335.41c.03.06.03.1-.03.14-.08-.07-.03-.1.03-.14Z"/><circle class="cls-3" cx="56.13" cy="329.95" r="39.02"/><line class="cls-6" x1="180.05" y1="138.34" x2="157.95" y2="114.13"/><line class="cls-5" x1="172.79" y1="130.39" x2="157.95" y2="114.13"/><polygon class="cls-35" points="176.84 123.73 180.05 138.33 165.8 133.82 176.84 123.73"/><line class="cls-6" x1="242.05" y1="114.13" x2="219.95" y2="138.34"/><line class="cls-5" x1="242.05" y1="114.13" x2="227.21" y2="130.39"/><polygon class="cls-35" points="223.16 123.73 219.95 138.33 234.2 133.82 223.16 123.73"/><circle class="cls-2" cx="275.05" cy="72.32" r="45"/><path class="cls-7" d="m289.05,107.72h-26c0-.2-.2-.2-.4-.3-1.28-.49-2.13-1.73-2.1-3.1v-44.6c.01-1.02.49-1.98,1.3-2.6.4-.3.9-.3,1.2-.8h26c2.2.8,2.9,1.8,2.9,4.2v43.8c-.04,1.41-.9,2.66-2.2,3.2-.27-.04-.54.08-.7.3v-.1Zm-14-2c7.18,0,13-5.82,13-13s-5.82-13-13-13-13,5.82-13,13v.2c0,7.07,5.74,12.81,12.82,12.8.06,0,.12,0,.18,0Zm0-47.2c-5.11.03-9.23,4.19-9.2,9.3.03,5.11,4.19,9.23,9.3,9.2,5.11-.03,9.23-4.19,9.2-9.3-.03-5.07-4.13-9.17-9.2-9.2h-.1Zm7.3,19.3c-.03,1.92,1.48,3.52,3.4,3.6h0c1.95-.01,3.52-1.61,3.5-3.56,0-.05,0-.1,0-.14-.05-1.87-1.53-3.4-3.4-3.5-1.96.06-3.54,1.64-3.6,3.6h.1Zm-18.5,25.8c-.03-.85-.75-1.52-1.6-1.5-.81.05-1.45.69-1.5,1.5-.06.88.62,1.64,1.5,1.7s1.64-.62,1.7-1.5h0v-.2h-.1Zm-1.6-41.7c.85.02,1.57-.65,1.6-1.5h0c.06-.88-.62-1.64-1.5-1.7-.88-.06-1.64.62-1.7,1.5h0v.2c-.02.85.65,1.57,1.5,1.6h0l.1-.1Zm25.4,0c.82-.02,1.48-.68,1.5-1.5h0c-.03-.86-.74-1.53-1.6-1.5-.86.03-1.53.74-1.5,1.6h0c.02.82.68,1.48,1.5,1.5h0l.1-.1Zm0,40.1c-.82-.03-1.52.58-1.6,1.4h0c-.03.86.64,1.57,1.5,1.6.86.03,1.57-.64,1.6-1.5.03-.85-.64-1.57-1.5-1.6h0v.1Z"/><path class="cls-14" d="m261.05,107.72c-.92-.2-1.74-.74-2.3-1.5-.42-.58-.67-1.28-.7-2v-44c-.1-1.41.59-2.76,1.8-3.5.4-.2.7-.3,1.1-.5h1.9c-.3.4-.8.5-1.2.8-.81.62-1.29,1.58-1.3,2.6v44.6c-.03,1.37.82,2.61,2.1,3.1.1,0,.4,0,.4.3h-1.9l.1.1Z"/><path class="cls-22" d="m300.75,68.52c-.3.33-.76.49-1.2.4h-3.8c-.6,0-.9-.2-.9-.7s.3-.8.9-.8h4.1c.37,0,.71.19.9.5v.6Z"/><path class="cls-30" d="m249.35,92.92c.27-.32.69-.47,1.1-.4h3.9c.6,0,.9.2.9.7s-.3.8-.9.8h-4.1c-.37,0-.71-.19-.9-.5v-.6Z"/><path class="cls-30" d="m300.75,93.52c-.29.3-.68.48-1.1.5h-4.3c-.36-.08-.58-.43-.5-.79,0,0,0,0,0-.01.02-.32.28-.58.6-.6h4.5c.3,0,.4.3.7.4v.6l.1-.1Z"/><path class="cls-22" d="m249.35,67.92c.25-.36.67-.55,1.1-.5h4.2c.35.06.58.4.51.75,0,.02,0,.04-.01.05.01.32-.24.59-.56.6-.01,0-.03,0-.04,0h-4.5c-.3,0-.4-.3-.7-.4v-.5h0Z"/><path class="cls-37" d="m275.05,105.72c-7.12-.06-12.85-5.88-12.8-13,.06-7.12,5.88-12.85,13-12.8,7.12.06,12.85,5.88,12.8,13-.05,7.05-5.75,12.74-12.8,12.8h-.2Zm11.1-10.1h0c.41-1.53.48-3.14.2-4.7-1.02-6.23-6.87-10.47-13.1-9.5h-.4c-3.32.57-6.19,2.64-7.8,5.6-.55.88-.93,1.87-1.1,2.9h0c-.36,1.4-.43,2.87-.2,4.3.5,3.72,2.78,6.96,6.1,8.7,1.37.7,2.87,1.11,4.4,1.2,1.21.12,2.44-.02,3.6-.4.24.02.48-.02.7-.1,2.75-.83,5.08-2.7,6.5-5.2.6-.91,1.01-1.93,1.2-3l-.1.2Z"/><path class="cls-36" d="m275.05,58.52c5.14,0,9.3,4.16,9.3,9.3s-4.16,9.3-9.3,9.3-9.3-4.16-9.3-9.3c.03-5.12,4.18-9.27,9.3-9.3Zm-1.2,1.6c-1.95.3-3.7,1.33-4.9,2.9-.88,1-1.41,2.27-1.5,3.6-.2.65-.2,1.35,0,2,.29,2.87,2.19,5.31,4.9,6.3,1.25.58,2.66.72,4,.4h.6c3.04-.78,5.32-3.3,5.8-6.4.2-.82.2-1.68,0-2.5-.7-4.18-4.61-7.03-8.8-6.4h0l-.1.1Z"/><path class="cls-36" d="m282.35,77.82c-.2-2.1,1.9-3.6,3.6-3.6,1.95.07,3.47,1.7,3.41,3.65,0,.05,0,.1,0,.15-.03,1.9-1.6,3.42-3.5,3.4-1.96-.03-3.52-1.64-3.5-3.6h0Zm3.5,2.1c1.16,0,2.09-.94,2.1-2.1h0c-.08-1.13-.97-2.02-2.1-2.1-1.12.05-2.01.98-2,2.1-.04,1.06.78,1.95,1.84,2,.02,0,.04,0,.06,0h0l.1.1Z"/><path class="cls-32" d="m263.95,103.62c.03.86-.64,1.57-1.5,1.6-.86.03-1.57-.64-1.6-1.5v-.2c.05-.88.8-1.55,1.67-1.5,0,0,.02,0,.03,0,.81.05,1.45.69,1.5,1.5l-.1.1Z"/><path class="cls-32" d="m262.35,61.92c-.81.02-1.48-.63-1.5-1.44,0-.02,0-.04,0-.06h0c-.03-.86.64-1.57,1.5-1.6.86-.03,1.57.64,1.6,1.5v.2c-.02.82-.68,1.48-1.5,1.5h0l-.1-.1Z"/><path class="cls-32" d="m287.75,61.92c-.84,0-1.54-.66-1.6-1.5h0c0-.88.72-1.6,1.6-1.6s1.6.72,1.6,1.6h0c-.05.83-.68,1.5-1.5,1.6h0l-.1-.1Z"/><path class="cls-32" d="m287.75,102.12c.82.02,1.48.68,1.5,1.5h0c-.03.86-.74,1.53-1.6,1.5s-1.53-.74-1.5-1.6h0c.02-.82.68-1.48,1.5-1.5h0l.1.1Z"/><path class="cls-22" d="m298.75,61.22c-.01.23-.12.45-.3.6l-2.7,2.7c-.28.33-.77.37-1.1.1h0c-.3-.3-.3-.7.1-1.1l2.7-2.7c.23-.32.67-.41,1-.2.27.12.44.4.4.7l-.1-.1Z"/><path class="cls-10" d="m295.15,96.82c.24-.03.48.09.6.3l2.7,2.7c.3.22.36.65.14.95-.01.02-.03.03-.04.05l-.1.1c-.3.3-.8.3-1.1,0h0c-.9-.9-1.8-1.9-2.8-2.8-.21-.21-.29-.52-.2-.8.08-.3.4-.48.7-.4h0s.1-.1.1-.1Z"/><path class="cls-10" d="m298.75,75.41c0,.29-.21.54-.5.6-.31.08-.65,0-.9-.2l-2.4-2.4-.5-.5c-.28-.25-.3-.67-.05-.95.02-.02.04-.04.05-.05h0c.18-.25.53-.3.78-.12.04.03.08.07.12.12h0l2.9,2.9c.13.14.2.31.2.5l.3.1Z"/><path class="cls-10" d="m298.75,86.12c0,.24-.11.46-.3.6l-2.7,2.7c-.24.31-.66.39-1,.2h0c-.28-.25-.3-.67-.05-.95.02-.02.04-.04.05-.05l.1-.1,2.8-2.8c.21-.21.52-.29.8-.2.25.09.41.34.4.6h-.1Z"/><path class="cls-22" d="m255.75,64.02c-.03.28-.17.53-.4.7-.31.08-.65,0-.9-.2l-2.3-2.3c-.2-.17-.36-.38-.5-.6-.28-.25-.3-.67-.05-.95.02-.02.04-.04.05-.05h0c.25-.28.67-.3.95-.05.02.02.04.03.05.05h0c.46.41.89.84,1.3,1.3.4.5,1,1,1.5,1.5.18.15.29.37.3.6Z"/><path class="cls-10" d="m255.75,97.52c-.01.23-.12.45-.3.6l-2.7,2.7c-.25.35-.74.44-1.1.2h0c-.4-.4-.3-.8.1-1.2l2.7-2.7c.25-.21.59-.28.9-.2.3.11.5.38.5.7l-.1-.1Z"/><path class="cls-10" d="m255.75,72.52c-.01.23-.12.45-.3.6l-2.7,2.7c-.4.4-.8.4-1.1.1-.3-.3-.3-.8,0-1.1h.1c.9-.9,1.8-1.9,2.8-2.8.21-.21.52-.29.8-.2.3.11.5.38.5.7h-.1Z"/><path class="cls-10" d="m255.75,89.02c-.03.28-.17.53-.4.7-.25.15-.55.15-.8,0l-3-3c-.2-.27-.2-.63,0-.9h0c.18-.25.53-.3.78-.12.04.03.08.07.12.12h0l2.9,2.9c.13.14.2.31.2.5l.2-.2Z"/><path class="cls-33" d="m264.05,89.92c.17-1.03.55-2.02,1.1-2.9,3.17-5.49,10.17-7.41,15.7-4.3.42.23.82.5,1.2.8,2.39,1.74,3.97,4.37,4.4,7.3.28,1.53.21,3.1-.2,4.6h0c-.32.11-.66.18-1,.2-1.84.01-3.65-.51-5.2-1.5-.4-.29-.84-.53-1.3-.7v-1.1c-.13-1.48-1.17-2.72-2.6-3.1-.74-.3-1.56-.3-2.3,0-1.2.44-2.1,1.46-2.4,2.7-.1,0-.2,0-.4-.2-1.8-1.39-4.02-2.13-6.3-2.1-.2,0-.5.1-.7,0v.3Z"/><path class="cls-16" d="m264.05,89.92h.7c2.28-.03,4.5.71,6.3,2.1.1,0,.2.1.4.2v.1c-.3,1.77.78,3.49,2.5,4,.59.13,1.2.17,1.8.1.59.93,1.13,1.9,1.6,2.9.68,1.4.82,3,.4,4.5-1.16.38-2.39.52-3.6.4-1.53-.1-3.03-.51-4.4-1.2-3.37-1.69-5.66-4.96-6.1-8.7-.18-1.4-.12-2.82.2-4.2h0l.2-.2Z"/><path class="cls-18" d="m277.75,103.82c.37-1.5.23-3.09-.4-4.5-.47-1-1.01-1.97-1.6-2.9l.4-.2h.2c1.13-.51,1.98-1.5,2.3-2.7.45.19.89.43,1.3.7,1.55.99,3.36,1.51,5.2,1.5h1c-.19,1.07-.6,2.09-1.2,3-1.45,2.48-3.76,4.33-6.5,5.2-.2,0-.5.1-.7.1v-.2Z"/><path class="cls-18" d="m282.65,69.02c-.12,1.25-.61,2.43-1.4,3.4-1.05,1.5-2.62,2.57-4.4,3h-.6c.04-.86-.13-1.72-.5-2.5-1.09-2.29-2.88-4.18-5.1-5.4-.94-.71-2.14-1-3.3-.8.14-1.32.66-2.57,1.5-3.6,1.2-1.57,2.95-2.6,4.9-2.9,0,.93.21,1.85.6,2.7.89,1.75,2.15,3.29,3.7,4.5,1.21,1.15,2.83,1.76,4.5,1.7l.1-.1Zm-7-3.1c-.84-.3-1.77-.02-2.3.7-.5.76-.5,1.74,0,2.5.53.72,1.46,1,2.3.7.88-.25,1.47-1.09,1.4-2,0-.87-.57-1.64-1.4-1.9Z"/><path class="cls-16" d="m282.65,69.02c-1.67.06-3.29-.55-4.5-1.7-1.6-1.16-2.87-2.71-3.7-4.5-.41-.84-.61-1.77-.6-2.7,4.19-.67,8.13,2.18,8.8,6.37,0,0,0,.02,0,.03.2.82.2,1.68,0,2.5Z"/><path class="cls-16" d="m267.45,66.62c1.16-.09,2.31.19,3.3.8,2.2,1.25,3.98,3.13,5.1,5.4.41.76.59,1.64.5,2.5-1.34.33-2.75.19-4-.4-2.69-1.01-4.58-3.45-4.9-6.3-.1-.66-.09-1.34,0-2Z"/><path class="cls-16" d="m285.95,79.92c-1.06.04-1.95-.78-2-1.84,0-.02,0-.04,0-.06h0c.03-1.11.89-2.02,2-2.1,1.16,0,2.1.94,2.1,2.1,0,1.16-.94,2.1-2.1,2.1h0v-.2Z"/><path class="cls-8" d="m278.65,93.41c-.29,1.22-1.14,2.22-2.3,2.7h-.2c-.62-.36-1.16-.83-1.6-1.4-1.13-1.69-.68-3.97,1-5.1h0c.1,0,.4-.1.4-.3,1.42.39,2.45,1.63,2.57,3.1v1.1l.13-.1Z"/><path class="cls-31" d="m276.05,89.32c0,.2-.2.3-.4.3-1.68,1.12-2.21,3.35-1.2,5.1h0c.44.57.98,1.04,1.6,1.4l-.4.2c-.6.02-1.2-.02-1.8-.1-1.73-.58-2.81-2.29-2.6-4.1v-.1c.22-1.3,1.15-2.38,2.4-2.8.74-.3,1.56-.3,2.3,0l.1.1Z"/><path class="cls-8" d="m275.65,65.82c.86.21,1.45,1.01,1.4,1.9-.01.89-.57,1.68-1.4,2,0-.2-.3-.3-.5-.5-.82-.72-.91-1.97-.2-2.8.2-.2.5-.3.7-.6Z"/><path class="cls-31" d="m275.65,65.82c-.1.3-.5.4-.7.6-.71.83-.62,2.08.2,2.8.2.2.4.2.5.5-.84.28-1.76,0-2.3-.7-.5-.76-.5-1.74,0-2.5.53-.72,1.46-1,2.3-.7Z"/><path d="m249.25,54.52l.7-2.6c.99.46,2.17.21,2.9-.6.9-.9.8-1.5.4-1.8-.5-.5-1.2-.2-2.8.7-1.6.9-3.4,1.6-5,0-1.44-1.54-1.35-3.95.18-5.39,0,0,.01-.01.02-.01,1.28-1.37,3.24-1.84,5-1.2l-.6,2.6c-.82-.4-1.81-.19-2.4.5-.6.6-.6,1.2-.2,1.5s.9.4,2.6-.5c1.7-.9,3.5-1.9,5.3-.2,1.6,1.6,1.3,3.9-.5,5.7-1.3,1.59-3.49,2.16-5.4,1.4l-.2-.1Z"/><path d="m264.15,41.52c1.22,2.03.56,4.67-1.47,5.89,0,0-.02.01-.03.01-.82.48-1.8.59-2.7.3l2,3.7-2.3,1.2-5.6-10.5,2.3-1.2.4.7c.22-.95.89-1.73,1.8-2.1,2.14-1,4.68-.08,5.68,2.05,0,.02.01.03.02.05l-.1-.1Zm-2.3,1.2c-.46-1-1.65-1.44-2.66-.97-.05.02-.1.05-.14.07-.98.51-1.37,1.71-.86,2.7.02.04.04.07.06.1.46,1,1.65,1.44,2.66.97.05-.02.1-.05.14-.07.98-.51,1.37-1.71.86-2.7-.02-.04-.04-.07-.06-.1Z"/><path d="m270.65,42.41c.6-.09,1.14-.41,1.5-.9l2.2.8c-.62,1.31-1.86,2.22-3.3,2.4-2.9.5-5-1.1-5.4-3.6-.52-2.32.95-4.63,3.27-5.14.11-.02.22-.04.33-.06,2.31-.44,4.53,1.08,4.97,3.39.01.07.02.14.03.21v1l-5.9,1.1c.46.74,1.37,1.07,2.2.8h.1Zm1-3.3c-.48-.94-1.63-1.31-2.57-.82-.58.3-.97.87-1.03,1.52l3.6-.7Z"/><path d="m285.35,36.32l-1.1,8.4-2.5-.3v-.8c-.64.67-1.6.94-2.5.7-2.33-.44-3.88-2.66-3.5-5,.17-2.33,2.2-4.08,4.53-3.91.02,0,.05,0,.07,0,.95.05,1.84.53,2.4,1.3v-.8c.1,0,2.6.3,2.6.3v.1Zm-3.1,3.9c.23-1.01-.4-2.02-1.41-2.26-.1-.02-.19-.04-.29-.04-1.09-.17-2.11.58-2.28,1.67,0,.04-.01.09-.02.13-.23,1.01.4,2.02,1.41,2.26.1.02.19.04.29.04,1.09.17,2.11-.58,2.28-1.67,0-.04.01-.09.02-.13h0Z"/><path d="m290.05,47.32l-.9-4.5-1.5,3.4-2.3-1.1,4.9-10.8,2.27,1.09-2.9,6.5,3.9-2.3,2.7,1.2-4.6,2.6,1.1,5.2-2.6-1.2-.07-.09Z"/><path d="m297.05,49.62c.47.39,1.09.57,1.7.5l.8,2.2c-1.42.36-2.92-.02-4-1-2-1.46-2.44-4.26-.99-6.26.06-.08.12-.16.19-.24,1.36-2.02,4.11-2.55,6.12-1.18,2.02,1.36,2.55,4.11,1.18,6.12-.16.23-.34.45-.54.65-.21.26-.44.49-.7.7l-4.6-3.9c-.3.83.03,1.76.8,2.2l.03.21Zm3.2-1.4c.32-.76.12-1.65-.5-2.2-.62-.61-1.58-.69-2.3-.2l2.8,2.3v.1Z"/><path d="m309.25,53.62l-2.3,1.7c-.38-1.04-1.53-1.57-2.56-1.2-.19.07-.37.17-.54.3l-3.1,2.3-1.5-2.1,6.9-5,1.5,2.1-1.2.9c1.1-.31,2.28.14,2.9,1.1l-.1-.1Z"/><line class="cls-1" x1="196.61" y1="241.51" x2="196.53" y2="260.16"/><line class="cls-1" x1="59.04" y1="259.59" x2="340.96" y2="259.59"/><line class="cls-5" x1="59.47" y1="259.39" x2="59.47" y2="268.72"/><polygon class="cls-35" points="52.99 266.82 59.47 278.04 65.96 266.82 52.99 266.82"/><line class="cls-5" x1="153.14" y1="259.39" x2="153.14" y2="268.72"/><polygon class="cls-35" points="146.66 266.82 153.14 278.04 159.62 266.82 146.66 266.82"/><line class="cls-5" x1="246.81" y1="259.39" x2="246.81" y2="268.72"/><polygon class="cls-35" points="240.33 266.82 246.81 278.04 253.29 266.82 240.33 266.82"/><line class="cls-5" x1="340.47" y1="259.39" x2="340.47" y2="268.72"/><polygon class="cls-35" points="333.99 266.82 340.47 278.04 346.96 266.82 333.99 266.82"/><line class="cls-6" x1="147.79" y1="190.72" x2="115.01" y2="191.22"/><line class="cls-5" x1="147.79" y1="190.72" x2="125.77" y2="191.05"/><polygon class="cls-35" points="127.85 183.54 115.01 191.22 128.08 198.5 127.85 183.54"/><line class="cls-6" x1="252.21" y1="192.72" x2="284.99" y2="193.22"/><line class="cls-5" x1="252.21" y1="192.72" x2="274.23" y2="193.05"/><polygon class="cls-35" points="271.92 200.5 284.99 193.22 272.15 185.54 271.92 200.5"/><path class="cls-34" d="m345.18,188.61c.5,0,.99.02,1.49.02.84,0,1.54.69,1.55,1.54,0,.78,0,1.56,0,2.33,0,6.58,0,13.16,0,19.75,0,.43-.02.86-.15,1.28-.15.49-.75.93-1.27.93-5.57,0-11.15,0-16.72,0-.03,0-.05,0-.08,0,0-1.51,0-3.03,0-4.54,1.16,0,2.32,0,3.48-.01.15,0,.32.04.32-.21,0-.57.05-1.16-.08-1.71-.36-1.48-.79-2.95-1.17-4.43-.1-.4-.22-.79-.36-1.18-.22-.61.19-.92.56-1.25.6-.55.85-1.24.99-2.03.3-1.66-1.1-3.65-2.68-4.16-.05-.09-.12-.13-.22-.08-.08-.02-.16-.04-.24-.05-.04-.05-.08-.07-.14-.03-.15-.02-.31-.04-.46-.07,0-2.01,0-4.03,0-6.04,2.86,0,5.71,0,8.57-.02.18,0,.36-.01.53-.02,1.02.03,2.04.05,3.07,0,1,.06,2,.04,3.01,0Z"/><path class="cls-20" d="m330,209.9c0,1.51,0,3.03,0,4.54-.57,0-1.15.01-1.72.01-4.86,0-9.72-.02-14.58.02-1.28.01-1.94-.69-1.94-1.94.04-7.44.03-14.88,0-22.32,0-.89.72-1.6,1.57-1.59.5,0,.99-.01,1.49-.02,1,.03,2,.05,3-.01,1.02.06,2.04.03,3.06.01.17,0,.33.02.5.02,2.87,0,5.74,0,8.61.01,0,2.01,0,4.03,0,6.04-.32.15-.68.08-1.02.21-1.42.55-2.36,1.51-2.7,3.02-.06.03-.11.07-.03.14-.11,1.25.02,2.39,1.14,3.22.35.26.49.65.35,1.14-.09.3-.2.59-.27.9-.2.84-.42,1.66-.64,2.49-.16.61-.35,1.22-.5,1.83-.15.61-.11,1.23-.13,1.85-.01.31.07.42.4.41,1.14-.02,2.27,0,3.41,0Z"/><path class="cls-24" d="m317.83,188.6c-1,.06-2,.04-3,.01,0-2.7-.02-5.41.02-8.11.02-1.25.19-2.49.55-3.71.44-1.46,1.06-2.83,1.9-4.1,1.05-1.58,2.35-2.94,3.9-4.05,1.02-.73,2.09-1.38,3.27-1.78,1.17-.41,2.35-.81,3.61-.9.71-.05,1.41-.16,2.12-.14,1.77.03,3.47.38,5.13,1,1.65.62,3.14,1.52,4.5,2.65,1.17.97,2.13,2.12,2.94,3.4.58.9,1.03,1.86,1.42,2.87.21.55.36,1.12.55,1.68.17.51.21,1.06.27,1.6.35,3.19.08,6.39.17,9.58-1,.04-2,.05-3,0,0-2.28-.02-4.57.01-6.85.02-1.31-.15-2.6-.47-3.87-.45-1.78-1.28-3.39-2.48-4.76-1.47-1.68-3.26-2.95-5.42-3.64-1.53-.49-3.08-.64-4.69-.54-1.49.09-2.89.44-4.22,1.06-2.21,1.03-3.95,2.61-5.24,4.69-1.11,1.79-1.72,3.76-1.8,5.84-.1,2.69-.02,5.38-.02,8.08Z"/><path class="cls-13" d="m339.11,188.61c0-2.42.02-4.85,0-7.27-.01-1.29-.19-2.56-.71-3.76-.41-.95-.96-1.81-1.64-2.6-1.01-1.18-2.27-1.99-3.7-2.51-1.32-.48-2.7-.64-4.13-.46-.87.11-1.71.31-2.49.65-2.18.95-3.78,2.51-4.77,4.69-.46,1.02-.65,2.09-.7,3.2-.13,2.69-.02,5.38-.06,8.06-1.02.02-2.04.04-3.06-.01,0-2.69-.08-5.39.02-8.08.08-2.08.68-4.05,1.8-5.84,1.29-2.08,3.03-3.66,5.24-4.69,1.33-.62,2.73-.97,4.22-1.06,1.61-.09,3.16.06,4.69.54,2.16.69,3.94,1.95,5.42,3.64,1.2,1.38,2.03,2.98,2.48,4.76.32,1.27.49,2.55.47,3.87-.03,2.28-.01,4.57-.01,6.85-1.02.05-2.04.04-3.07,0Z"/><path class="cls-21" d="m330,209.9c-1.14,0-2.27-.02-3.41,0-.33,0-.41-.1-.4-.41.02-.62-.01-1.25.13-1.85.15-.62.34-1.22.5-1.83.22-.83.44-1.66.64-2.49.07-.31.18-.6.27-.9.14-.49,0-.88-.35-1.14-1.12-.83-1.25-1.97-1.14-3.22.06-.03.06-.08.03-.14.34-1.51,1.28-2.47,2.7-3.02.34-.13.7-.05,1.02-.21.15.02.31.04.46.07.03.08.07.12.14.03.08.02.16.04.24.05.04.11.14.08.22.08,1.58.51,2.98,2.5,2.68,4.16-.14.79-.4,1.48-.99,2.03-.36.33-.78.65-.56,1.25.14.39.25.78.36,1.18.38,1.48.81,2.94,1.17,4.43.13.55.09,1.14.08,1.71,0,.25-.17.21-.32.21-1.16,0-2.32,0-3.48.01Z"/><path class="cls-13" d="m331.07,194.92c-.09,0-.18.03-.22-.08.1-.05.17,0,.22.08Z"/><path class="cls-13" d="m330.6,194.79c-.07.09-.11.05-.14-.03.06-.03.1-.02.14.03Z"/><path class="cls-24" d="m326.28,197.91c.03.06.03.1-.03.14-.08-.07-.03-.1.03-.14Z"/><circle class="cls-3" cx="330.13" cy="192.45" r="39.02"/><path class="cls-34" d="m144.12,71.56c.56,0,1.12.02,1.68.03.95,0,1.73.78,1.75,1.74.01.88,0,1.76,0,2.63,0,7.43,0,14.85,0,22.28,0,.48-.02.98-.16,1.44-.17.55-.85,1.05-1.43,1.05-6.29,0-12.58,0-18.86,0-.03,0-.06,0-.09-.01,0-1.71,0-3.42,0-5.13,1.31,0,2.62,0,3.93-.01.17,0,.36.04.36-.23.01-.65.06-1.31-.09-1.93-.41-1.67-.89-3.33-1.32-4.99-.12-.45-.24-.9-.4-1.33-.25-.68.22-1.04.63-1.42.68-.62.96-1.4,1.12-2.3.34-1.87-1.24-4.12-3.02-4.69-.06-.1-.14-.15-.25-.09-.09-.02-.18-.04-.27-.06-.04-.06-.09-.07-.16-.04-.17-.02-.35-.05-.52-.07,0-2.27,0-4.54,0-6.81,3.22,0,6.45-.01,9.67-.02.2,0,.4-.02.6-.02,1.15.04,2.31.05,3.46,0,1.13.06,2.26.05,3.39,0Z"/><path class="cls-20" d="m127,95.59c0,1.71,0,3.42,0,5.13-.65,0-1.29.01-1.94.01-5.48,0-10.97-.03-16.45.02-1.44.01-2.19-.77-2.18-2.19.05-8.39.03-16.78,0-25.17,0-1.01.81-1.81,1.77-1.79.56.01,1.12-.01,1.68-.02,1.13.03,2.26.06,3.39-.01,1.15.07,2.3.04,3.45.01.19,0,.37.02.56.02,3.24,0,6.48,0,9.71.01,0,2.27,0,4.54,0,6.81-.36.17-.77.09-1.15.24-1.6.62-2.66,1.7-3.04,3.41-.07.04-.12.08-.03.15-.13,1.41.02,2.7,1.28,3.63.4.29.55.74.39,1.29-.1.34-.23.67-.31,1.01-.22.94-.47,1.88-.72,2.81-.18.69-.4,1.37-.56,2.07-.16.69-.12,1.39-.15,2.09-.01.35.08.47.45.46,1.28-.02,2.56,0,3.84,0Z"/><path class="cls-24" d="m113.27,71.55c-1.13.07-2.26.04-3.39.01,0-3.05-.02-6.1.02-9.15.02-1.41.21-2.81.62-4.18.49-1.65,1.19-3.2,2.14-4.63,1.18-1.79,2.65-3.31,4.4-4.56,1.15-.82,2.36-1.55,3.68-2.01,1.32-.46,2.65-.91,4.07-1.01.8-.06,1.59-.18,2.39-.16,1.99.03,3.92.43,5.78,1.13,1.87.7,3.55,1.72,5.08,2.99,1.32,1.1,2.4,2.4,3.32,3.83.65,1.02,1.17,2.1,1.61,3.23.24.62.41,1.27.62,1.9.2.57.23,1.2.3,1.81.39,3.6.1,7.21.19,10.81-1.13.04-2.26.06-3.39,0,0-2.58-.02-5.15.01-7.73.02-1.48-.17-2.93-.53-4.36-.51-2.01-1.44-3.82-2.8-5.37-1.66-1.9-3.68-3.33-6.11-4.1-1.73-.55-3.48-.72-5.3-.61-1.68.1-3.26.5-4.76,1.2-2.5,1.16-4.46,2.94-5.92,5.29-1.26,2.02-1.94,4.24-2.03,6.59-.11,3.03-.02,6.07-.02,9.11Z"/><path class="cls-13" d="m137.27,71.56c0-2.73.02-5.47,0-8.2-.02-1.45-.22-2.89-.8-4.24-.46-1.07-1.08-2.04-1.85-2.94-1.14-1.33-2.57-2.25-4.18-2.83-1.49-.54-3.05-.72-4.65-.52-.98.12-1.93.35-2.81.73-2.46,1.07-4.27,2.83-5.38,5.29-.52,1.15-.73,2.36-.79,3.61-.15,3.03-.02,6.07-.07,9.1-1.15.02-2.3.05-3.45-.02,0-3.04-.09-6.08.02-9.11.09-2.34.77-4.57,2.03-6.59,1.46-2.34,3.42-4.12,5.92-5.29,1.5-.7,3.08-1.1,4.76-1.2,1.82-.11,3.57.07,5.3.61,2.44.77,4.45,2.2,6.11,4.1,1.36,1.55,2.29,3.36,2.8,5.37.36,1.43.55,2.88.53,4.36-.03,2.58-.01,5.15-.01,7.73-1.15.06-2.31.04-3.46,0Z"/><path class="cls-21" d="m127,95.59c-1.28,0-2.56-.02-3.84,0-.37,0-.46-.11-.45-.46.03-.7-.02-1.41.15-2.09.17-.69.38-1.38.56-2.07.25-.94.5-1.87.72-2.81.08-.34.21-.68.31-1.01.16-.55,0-.99-.39-1.29-1.26-.93-1.41-2.23-1.28-3.63.07-.04.07-.09.03-.15.38-1.7,1.44-2.78,3.04-3.41.38-.15.79-.06,1.15-.24.17.02.35.05.52.07.03.09.08.14.16.04.09.02.18.04.27.06.05.12.15.1.25.09,1.78.57,3.36,2.82,3.02,4.69-.16.9-.45,1.67-1.12,2.3-.41.38-.88.73-.63,1.42.16.43.29.88.4,1.33.43,1.67.91,3.32,1.32,4.99.15.62.1,1.28.09,1.93,0,.28-.19.23-.36.23-1.31,0-2.62,0-3.93.01Z"/><path class="cls-13" d="m128.2,78.68c-.1,0-.2.03-.25-.09.11-.05.19,0,.25.09Z"/><path class="cls-13" d="m127.68,78.53c-.08.1-.12.05-.16-.04.06-.04.12-.02.16.04Z"/><path class="cls-24" d="m122.81,82.06c.04.06.04.12-.03.15-.09-.07-.03-.12.03-.15Z"/><circle class="cls-3" cx="127.15" cy="75.89" r="44.02"/><path class="cls-34" d="m79.61,189.95c.51,0,1.02.02,1.53.02.87,0,1.58.71,1.59,1.58,0,.8,0,1.6,0,2.4,0,6.76,0,13.53,0,20.29,0,.44-.02.89-.15,1.31-.16.5-.77.96-1.3.96-5.73,0-11.46,0-17.19,0-.03,0-.05,0-.08,0,0-1.56,0-3.11,0-4.67,1.19,0,2.39,0,3.58-.01.15,0,.32.04.33-.21,0-.59.05-1.19-.09-1.76-.37-1.52-.81-3.03-1.2-4.55-.11-.41-.22-.82-.37-1.21-.23-.62.2-.95.57-1.29.62-.57.88-1.27,1.02-2.09.31-1.7-1.13-3.75-2.75-4.27-.05-.09-.12-.13-.23-.08-.08-.02-.17-.04-.25-.05-.04-.05-.08-.07-.14-.04-.16-.02-.32-.05-.47-.07,0-2.07,0-4.14,0-6.21,2.94,0,5.87,0,8.81-.02.18,0,.37-.01.55-.02,1.05.03,2.1.05,3.15,0,1.03.06,2.06.04,3.09,0Z"/><path class="cls-20" d="m64.01,211.84c0,1.56,0,3.11,0,4.67-.59,0-1.18.01-1.77.01-5,0-9.99-.03-14.99.02-1.31.01-2-.71-1.99-2,.04-7.65.03-15.29,0-22.94,0-.92.74-1.65,1.61-1.63.51,0,1.02-.01,1.53-.02,1.03.03,2.06.05,3.09-.01,1.05.06,2.1.03,3.15.01.17,0,.34.02.51.02,2.95,0,5.9,0,8.85.01,0,2.07,0,4.14,0,6.21-.33.16-.7.08-1.05.21-1.46.57-2.42,1.55-2.77,3.1-.06.04-.11.07-.03.14-.12,1.28.02,2.46,1.17,3.31.36.27.5.67.36,1.17-.09.31-.21.61-.28.92-.2.86-.43,1.71-.66,2.56-.17.63-.36,1.25-.51,1.89-.15.62-.11,1.27-.14,1.9-.01.32.07.43.41.42,1.17-.02,2.33,0,3.5,0Z"/><path class="cls-24" d="m51.51,189.94c-1.03.06-2.06.04-3.09.01,0-2.78-.02-5.56.02-8.34.02-1.29.19-2.56.57-3.81.45-1.5,1.09-2.91,1.95-4.21,1.08-1.63,2.42-3.02,4.01-4.16,1.05-.75,2.15-1.41,3.36-1.83,1.2-.42,2.41-.83,3.71-.92.73-.05,1.45-.16,2.18-.15,1.82.03,3.57.39,5.27,1.03,1.7.64,3.23,1.56,4.63,2.73,1.2,1,2.19,2.18,3.03,3.49.59.93,1.06,1.91,1.46,2.95.22.57.37,1.16.57,1.73.18.52.21,1.09.27,1.65.36,3.28.09,6.57.17,9.85-1.03.04-2.06.05-3.09,0,0-2.35-.02-4.7.01-7.04.02-1.35-.15-2.67-.48-3.97-.47-1.83-1.31-3.48-2.55-4.89-1.52-1.73-3.35-3.03-5.57-3.74-1.57-.5-3.17-.66-4.82-.56-1.53.09-2.97.45-4.34,1.09-2.27,1.06-4.06,2.68-5.39,4.82-1.14,1.84-1.77,3.87-1.85,6-.1,2.76-.02,5.53-.02,8.3Z"/><path class="cls-13" d="m73.37,189.95c0-2.49.02-4.98,0-7.47-.01-1.32-.2-2.63-.73-3.86-.42-.98-.98-1.86-1.68-2.68-1.04-1.21-2.34-2.05-3.8-2.58-1.36-.49-2.78-.65-4.24-.47-.89.11-1.76.32-2.56.67-2.24.97-3.89,2.58-4.91,4.82-.48,1.05-.67,2.15-.72,3.29-.13,2.76-.02,5.53-.06,8.29-1.05.02-2.1.05-3.15-.01,0-2.77-.08-5.54.02-8.3.08-2.14.7-4.16,1.85-6,1.33-2.13,3.12-3.76,5.39-4.82,1.37-.64,2.81-1,4.34-1.09,1.65-.1,3.25.06,4.82.56,2.22.71,4.05,2.01,5.57,3.74,1.24,1.41,2.09,3.06,2.55,4.89.33,1.3.5,2.62.48,3.97-.03,2.35-.01,4.7-.01,7.04-1.05.05-2.1.04-3.15,0Z"/><path class="cls-21" d="m64.01,211.84c-1.17,0-2.33-.02-3.5,0-.34,0-.42-.1-.41-.42.02-.64-.01-1.28.14-1.9.15-.63.35-1.26.51-1.89.23-.85.45-1.71.66-2.56.07-.31.19-.62.28-.92.15-.5,0-.91-.36-1.17-1.15-.85-1.29-2.03-1.17-3.31.06-.04.06-.08.03-.14.35-1.55,1.31-2.54,2.77-3.1.35-.13.72-.06,1.05-.21.16.02.32.05.47.07.03.08.07.13.14.04.08.02.17.04.25.05.05.11.14.09.23.08,1.63.52,3.06,2.57,2.75,4.27-.15.82-.41,1.52-1.02,2.09-.37.34-.8.67-.57,1.29.15.4.26.8.37,1.21.39,1.52.83,3.03,1.2,4.55.14.57.1,1.17.09,1.76,0,.25-.18.21-.33.21-1.19,0-2.39,0-3.58.01Z"/><path class="cls-13" d="m65.11,196.44c-.09,0-.18.03-.23-.08.1-.05.17,0,.23.08Z"/><path class="cls-13" d="m64.63,196.3c-.07.09-.11.05-.14-.04.06-.03.11-.02.14.04Z"/><path class="cls-24" d="m60.19,199.51c.03.06.03.11-.03.14-.08-.07-.03-.11.03-.14Z"/><circle class="cls-3" cx="64.15" cy="193.89" r="40.11"/><circle class="cls-4" cx="197.62" cy="187.34" r="45"/><path d="m167.52,184.24v2l-5.1-.3,3.5,2.4v.2l-3.8,2,5,.3v2l-8.7-.5v-2c.1,0,4.1-2.1,4.1-2.1l-3.7-2.5v-2l8.7.5Z"/><path d="m167.52,179.94c.15-.42.15-.88,0-1.3l1.3-1.1c.59.85.71,1.95.3,2.9-.52,1.71-2.34,2.67-4.05,2.15-1.71-.52-2.67-2.34-2.15-4.05.55-1.63,2.31-2.51,3.94-1.96.05.02.11.04.16.06.25.06.49.16.7.3l-1.4,4.1c.63-.02,1.17-.48,1.3-1.1h-.1Zm-1.8-1.8c-.59-.05-1.14.33-1.3.9-.21.59,0,1.24.5,1.6l.8-2.5Z"/><path d="m166.12,167.34l7.3,4.5-1,1.6-.5-.3c.19.65.08,1.34-.3,1.9-1.09,1.42-3.14,1.69-4.56.59-1.22-.94-1.61-2.61-.94-3.99.32-.62.91-1.06,1.6-1.2l-2.6-1.6,1-1.6v.1Zm3.7,4.5c-.56-.45-1.38-.35-1.83.21-.07.09-.13.19-.17.29-.43.64-.26,1.5.38,1.93.04.03.08.05.12.07.56.45,1.38.35,1.83-.21.07-.09.13-.19.17-.29.43-.63.27-1.49-.36-1.92-.04-.03-.09-.06-.14-.08Z"/><path d="m168.22,166.14c-.47-.41-.51-1.13-.09-1.6.41-.47,1.13-.51,1.6-.09.46.41.51,1.12.1,1.59-.4.47-1.11.52-1.58.12,0,0-.01-.01-.02-.02Zm1.4.9l1.2-1.4,4.6,4-1.2,1.4-4.6-4Z"/><path d="m176.92,160.14l3.9,4.7-1.4,1.2-.4-.4c-.03.67-.36,1.3-.9,1.7-1.35,1.02-3.28.75-4.3-.6h0c-1.1-1.29-1.01-3.21.2-4.4.52-.46,1.21-.68,1.9-.6l-.4-.4,1.4-1.2Zm.5,3.5c-.52-.63-1.46-.72-2.1-.2-.63.52-.72,1.46-.2,2.1.52.63,1.46.72,2.1.2.63-.43.78-1.29.35-1.92-.04-.06-.09-.12-.15-.18Z"/><path d="m179.62,160.34l4.1-2.1.8,1.6-4.1,2.1-.8-1.6Z"/><path d="m195.12,159.84l-1.9.4-1.1-4.9-1.4,4h-.2l-3-3,1.1,4.9-1.9.4-1.9-8.4,1.9-.4,3.1,3.2,1.4-4.2,1.9-.4,1.9,8.4h.1Z"/><path d="m202.02,154.04l-.3,6.1h-1.8v-.7c-.47.48-1.13.74-1.8.7-1.26-.03-2.25-1.08-2.22-2.34,0-.09,0-.18.02-.26l.2-3.8h1.8l-.1,3.6c0,.61.49,1.1,1.1,1.1.61,0,1.1-.49,1.1-1.1h0v-3.3h2Z"/><path d="m204.62,151.64l1.8.4-1.8,8.8-1.8-.4,1.8-8.8Z"/><path d="m209.32,157.64l-.7,2.14c-.2.5.2.7,1,.9l-.5,1.6c-2.4-.5-2.8-1.4-2.2-3.1l.7-2.1-.9-.3.6-1.7.9.3.4-1.1h1.9l-.5,1.7,1.2.4-.6,1.7-1.2-.4-.1-.04Z"/><path d="m212.52,157.04l1.7.8-2.6,5.5-1.7-.8,2.6-5.5Zm.5-1.6c.28-.55.95-.78,1.5-.5.55.28.78.95.5,1.5-.28.55-.95.78-1.5.5,0,0,0,0,0,0-.54-.28-.76-.95-.5-1.5h0Z"/><path d="m216.62,162.78c1.15-1.38,3.2-1.56,4.58-.4.88.73,1.3,1.87,1.12,3l-1.8-.3c.13-.5-.07-1.02-.5-1.3-.61-.49-1.5-.4-2,.2-.5.54-.47,1.39.07,1.89.04.04.08.07.13.11.4.31.93.39,1.4.2l.7,1.7c-1.65.61-3.49-.23-4.1-1.89-.41-1.1-.18-2.33.6-3.21h-.2Z"/><path d="m228.22,170.24l-4.8,3.8-1.1-1.4.5-.4c-.7-.03-1.34-.4-1.7-1-.99-1.38-.68-3.31.7-4.3,0,0,0,0,0,0,1.3-1.13,3.26-.99,4.4.3.49.5.68,1.22.5,1.9l.5-.4,1.1,1.4-.1.1Zm-3.5.5c.66-.47.81-1.39.34-2.05-.01-.02-.02-.03-.04-.05-.43-.63-1.29-.78-1.92-.35-.06.04-.12.09-.18.15-.66.47-.81,1.39-.34,2.05.01.02.02.03.04.05.42.64,1.28.81,1.91.39.07-.04.13-.09.19-.15v-.04Z"/><path d="m230.92,181.78l-3.5,1.4-.7-1.7,3.3-1.4c.46-.1.76-.56.66-1.02-.01-.06-.03-.12-.06-.18-.2-.6-.8-.7-1.4-.4l-3.2,1.3-.7-1.7,3.3-1.4c.46-.1.76-.56.66-1.02-.01-.06-.03-.12-.06-.18-.2-.6-.8-.7-1.4-.4l-3.2,1.3-.7-1.7,5.7-2.3.7,1.7-.5.2c1.1.35,1.71,1.52,1.36,2.62-.04.13-.1.26-.16.38.67.13,1.22.64,1.4,1.3.5,1.15-.03,2.49-1.18,2.99-.11.05-.21.08-.32.11v.1Z"/><path d="m229.22,186.84c0,.44.23.85.6,1.1l-.7,1.6c-.91-.52-1.51-1.46-1.6-2.5-.31-1.78.89-3.47,2.66-3.78.04,0,.09-.01.14-.02,1.71-.26,3.31.91,3.57,2.62.01.09.02.19.03.28.23,1.69-.95,3.25-2.64,3.48-.05,0-.11.01-.16.02h-.7l-.5-4.3c-.57.31-.86.97-.7,1.6v-.1Zm2.3.9c.58-.2.92-.8.8-1.4,0-.63-.48-1.15-1.1-1.2l.3,2.6Z"/><path d="m234.02,194.64h-2.1c.2-.9,0-2-1.3-2l-2.8-.2v-1.8l6.2.4v1.8h-1.2c.74.33,1.18,1.1,1.1,1.9l.1-.1Z"/><path d="m232.22,202.24l-5.9-1.5.4-1.8h.6c-.42-.5-.54-1.19-.3-1.8.48-1.62,2.17-2.56,3.8-2.1,1.63.29,2.72,1.85,2.42,3.48,0,.04-.01.08-.02.12-.13.69-.57,1.28-1.2,1.6h.6c0,.1-.4,1.9-.4,1.9v.1Zm-2.5-2.5c.72.24,1.5-.15,1.75-.87.02-.07.04-.15.05-.23.22-.75-.21-1.54-.96-1.77-.05-.01-.09-.03-.14-.03-.72-.24-1.5.15-1.75.87-.02.07-.04.15-.05.23-.24.75.16,1.55.91,1.79.06.02.13.04.19.05v-.04Z"/><path class="cls-28" d="m206.12,219.54h-18.1c-.41-1.46-1.16-2.8-2.2-3.9-.3-.3-.3-.4,0-.7,1.3-1.3,2.6-2.5,3.8-3.8,1.17-1.14,1.53-2.89.9-4.4.05-.63.05-1.27,0-1.9-.55-2.26-2.82-3.65-5.08-3.1,0,0-.01,0-.02,0-.74.2-1.43.58-2,1.1-2.3,2.2-4.5,4.5-6.8,6.8-.44.46-.91.89-1.4,1.3v-35.1c-.02-1.5.9-2.86,2.3-3.4.42-.12.86-.19,1.3-.2h35.8c1.85-.14,3.46,1.25,3.6,3.1.01.17.01.33,0,.5v26.5h-8.4c-1.42-.03-2.73.8-3.3,2.1-.7,1.55-.09,3.38,1.4,4.2h.1c.2.5.6.4.8.7-1.79.38-2.92,2.14-2.54,3.93.01.06.03.11.04.17.22.92.8,1.71,1.6,2.2h0c.2.4.6.4.8.6-1.55.39-2.63,1.8-2.6,3.4v-.1Zm-6-32.6v-8.5c.06-.99-.7-1.84-1.69-1.9,0,0,0,0,0,0h-17c-1.02-.13-1.96.59-2.09,1.62-.02.13-.02.25,0,.38v16.7c-.02.98.72,1.82,1.7,1.9h17.2c.9.03,1.67-.61,1.8-1.5v-8.8l.1.1Zm7.7-5.2h3.1q1.3,0,1.3-1.3c0-.4-.1-.5-.5-.5h-6.9q-1.3,0-1.3,1.3c0,1.3.1.5.5.4h3.8v.1Zm3.1-5.2h-2.7q-1.2,0-1.2,1.3c0,.4.2.5.5.5h5.9q1.3,0,1.3-1.4c0-.3-.1-.4-.4-.4h-3.4Zm-7.4.8c0,1-.2.9.8.9.44.06.84-.25.9-.69,0-.07,0-.14,0-.21q0-.9-.9-.9c-.9,0-.8,0-.8.8v.1Z"/><path class="cls-17" d="m175.22,210.94c.5-.4.9-.9,1.4-1.3l6.8-6.8c1.6-1.66,4.24-1.7,5.9-.1.04.03.07.07.1.1.57.53.96,1.23,1.1,2,.15.62.15,1.28,0,1.9-.3.94-.82,1.79-1.5,2.5-2,1.9-3.9,3.9-5.8,5.8-.3.3-.3.4,0,.7,1.02,1.12,1.77,2.45,2.2,3.9h-13.2c-.2,0-.4,0-.4-.2-.09-1.24-.02-2.48.2-3.7.28-1.17.87-2.24,1.7-3.1l1.5-1.5v-.2Z"/><path class="cls-15" d="m207.82,208.78c-1.48-.83-2.09-2.65-1.4-4.2.54-1.33,1.87-2.17,3.3-2.1h8.4c1.66,0,3.08,1.17,3.4,2.8-.2,0-.2.1-.2.2-.37.89-1.09,1.58-2,1.9-.58.2-1.19.3-1.8.3h-8.4c-1-.04-1.2-.04-1.3,1.1Z"/><path class="cls-17" d="m207.82,215.64c-1.61-.93-2.19-2.97-1.3-4.6.49-.8,1.28-1.38,2.2-1.6.37-.02.74-.09,1.1-.2h8.8c.69.21,1.34.55,1.9,1,.48.5.83,1.12,1,1.8,0,0-.2.1-.2.2-.6,1.48-2.11,2.38-3.7,2.2h-8.6c-1,0-1.2.2-1.2,1.2Z"/><path class="cls-17" d="m206.12,219.54c-.02-1.58,1.06-2.95,2.6-3.3.24.02.48-.02.7-.1,3.1,0,6.3.1,9.4,0,0,.2.2.2.3.2,1.21.37,2.13,1.37,2.4,2.6.2.7,0,.8-.6.8h-14.8v-.2Z"/><path class="cls-39" d="m185.42,219.54c-.37-1.47-1.13-2.82-2.2-3.9-.3-.3-.3-.4,0-.7,2-1.9,3.9-3.9,5.8-5.8.71-.69,1.22-1.55,1.5-2.5.63,1.51.27,3.26-.9,4.4l-3.8,3.8c-.3.3-.3.4,0,.7,1.02,1.12,1.77,2.45,2.2,3.9h-2.6v.1Z"/><path class="cls-9" d="m218.82,216.04c-3.1.2-6.3,0-9.4,0-.24-.02-.48.02-.7.1-.3-.2-.6-.2-.8-.5h0c0-1.1.2-1.3,1.2-1.3h8.6c1.7,0,3-.5,3.7-2.2,0,0,.1-.2.2-.2.33,1.75-.7,3.46-2.4,4h-.3l-.1.1Z"/><path class="cls-9" d="m218.62,209.24h-8.8c-.38-.03-.76.04-1.1.2-.2-.2-.6-.2-.8-.6h-.1c.1-1.1.2-1.3,1.3-1.3h8.4c.62.05,1.23-.06,1.8-.3.91-.32,1.63-1.01,2-1.9,0-.1,0-.2.2-.2.39,1.79-.72,3.56-2.5,4h-.4v.1Z"/><path class="cls-19" d="m200.12,186.94v8.5c.03.9-.61,1.67-1.5,1.8h-17.2c-.98.02-1.82-.72-1.9-1.7v-17c-.11-1.01.62-1.91,1.63-2.01.16-.02.32-.01.47.01h16.7c.94-.1,1.79.58,1.89,1.53,0,.02,0,.05,0,.07v8.8h-.1Zm-11.2,4.3c0-1.88-1.52-3.4-3.4-3.4-1.88,0-3.4,1.52-3.4,3.4s1.52,3.4,3.4,3.4h0c1.86.02,3.38-1.48,3.4-3.34,0-.02,0-.04,0-.06Zm0-8.6c0-1.88-1.52-3.4-3.4-3.4-1.88,0-3.4,1.52-3.4,3.4s1.52,3.4,3.4,3.4h0c1.86,0,3.39-1.45,3.5-3.3h0l-.1-.1Zm5.1,3.4c1.88,0,3.4-1.52,3.4-3.4s-1.52-3.4-3.4-3.4c-1.88,0-3.4,1.52-3.4,3.4h0c-.02,1.86,1.48,3.38,3.34,3.4.02,0,.04,0,.06,0Zm2.6,5.2v-1.6c.02-.45-.27-.86-.7-1h-3.5c-.4,0-.9.3-.9.7v3.5c-.04.45.29.85.74.9.02,0,.04,0,.06,0h3.5c.45.04.85-.29.9-.74,0-.02,0-.04,0-.06v-1.7h-.1Z"/><path class="cls-23" d="m207.82,181.78h-3.8c-.3,0-.5,0-.5-.4-.09-.63.35-1.21.98-1.3.11-.02.22-.02.32,0h6.9c.4,0,.5,0,.5.5.09.63-.35,1.21-.98,1.3-.11.02-.22.02-.32,0h-3.1v-.1Z"/><path class="cls-27" d="m210.82,176.54h3.4c.3,0,.4,0,.4.4q0,1.4-1.3,1.4h-5.9c-.4,0-.5,0-.5-.5,0-.86.4-1.3,1.2-1.3h2.7Z"/><path class="cls-27" d="m203.52,177.44c-.05-.39.22-.75.61-.8.06,0,.13,0,.19,0,.53,0,.83.3.9.9q0,.9-.9.9c-.9,0-.8,0-.8-.9v-.1Z"/><path class="cls-15" d="m207.82,208.78h.1c0,.06-.1,0-.1,0Z"/><path class="cls-25" d="m185.92,194.53c1.91-.03,3.43-1.59,3.4-3.5-.03-1.91-1.59-3.43-3.5-3.4-1.91.03-3.43,1.59-3.4,3.5.03,1.87,1.53,3.37,3.4,3.4h.1Zm-2.1-3.78v.4c.01.76.49,1.44,1.2,1.7.91.3,1.89-.19,2.2-1.1.14-.51.07-1.05-.2-1.5-.39-.52-1.06-.76-1.7-.6-1.1,0-1.4.3-1.4,1.2h0l-.1-.1Z"/><path class="cls-25" d="m188.92,182.64c0,1.88-1.52,3.4-3.4,3.4-1.88,0-3.4-1.52-3.4-3.4s1.52-3.4,3.4-3.4h0c1.86-.02,3.38,1.48,3.4,3.34,0,.02,0,.04,0,.06Zm-5-.3c-.21.64.04,1.34.6,1.7.78.55,1.86.36,2.41-.42.26-.37.36-.83.29-1.28-.1-.87-.88-1.5-1.76-1.41-.01,0-.03,0-.04,0h-.2c-.52-.2-1.09.06-1.29.58,0,0,0,.02,0,.02v.7h0v.1Z"/><path class="cls-25" d="m190.45,183.04c.03,1.91,1.59,3.43,3.5,3.4,1.91-.03,3.43-1.59,3.4-3.5-.03-1.91-1.59-3.43-3.5-3.4-1.87.03-3.37,1.53-3.4,3.4v.1Zm1.97-.7c-.3.4,0,.8.2,1.2.36.63,1.09.95,1.8.8.67-.11,1.19-.63,1.3-1.3.18-.77-.19-1.56-.9-1.9-.4-.22-.86-.29-1.3-.2-.6-.09-1.15.32-1.24.92-.02.16-.01.32.04.48h.1Z"/><path class="cls-11" d="m196.62,191.24v1.7c.04.45-.29.85-.74.9-.02,0-.04,0-.06,0h-3.4c-.45.04-.85-.29-.9-.74,0-.02,0-.04,0-.06v-3.5c0-.4.3-.9.7-.9h3.5c.45-.04.85.29.9.74,0,.02,0,.04,0,.06v1.8Zm-3-.4h1.6c.3,0,.5-.1.5-.5s-.3-.3-.5-.3h-1.3c0-.3-.3-.4-.5-.5-.44.03-.82.3-1,.7-.17.25-.13.59.1.8.4.3.7.1,1-.1h0l.1-.1Zm.4,1.7h1.3c.21-.01.39-.19.4-.4h0c.02-.2-.13-.38-.34-.4-.02,0-.04,0-.06,0h-2.5c-.2,0-.4.1-.4.3h0c.01.21.19.39.4.4h1.3l-.1.1Z"/><path class="cls-38" d="m185.12,189.54c.64-.21,1.34.04,1.7.6.56.72.43,1.75-.28,2.32-.04.03-.08.06-.12.08-.43.31-1,.39-1.5.2-.71-.26-1.19-.94-1.2-1.7v-.4c.19.3.57.42.9.3,0,.8.5,1.2,1.1,1,.44-.16.67-.65.5-1.09,0,0,0,0,0,0-.14-.42-.56-.68-1-.6.02-.27-.01-.54-.1-.8v.1Z"/><path class="cls-29" d="m185.12,189.54c.19.22.23.54.1.8-.1.3-.4.5-.6.7-.3,0-.7,0-.9-.3,0-.9.3-1.2,1.4-1.2Z"/><path class="cls-38" d="m185.22,181.04c.88-.2,1.76.33,2,1.2v.2c.07.65-.19,1.29-.7,1.7-.61.4-1.39.4-2,0-.52-.39-.76-1.06-.6-1.7.22.19.54.23.8.1,0,.8.5,1.2,1.1,1,.38-.12.63-.5.6-.9,0-.5-.4-.7-1.1-.7.07-.27.04-.56-.1-.8v-.1Z"/><path class="cls-29" d="m184.72,182.44c-.27.07-.56.04-.8-.1-.2-.52.06-1.09.58-1.29,0,0,.02,0,.02,0h.7c.19.22.23.54.1.8-.2.2-.4.5-.6.6Z"/><path class="cls-38" d="m193.62,180.94c.44-.03.89.04,1.3.2.67.38,1.03,1.14.9,1.9-.21.61-.69,1.09-1.3,1.3-.7.1-1.41-.21-1.8-.8-.26-.34-.34-.79-.2-1.2.25.13.52.19.8.2,0,.4.1.8.6.9s.9,0,1-.4c.3-.6-.1-1.1-1-1.2,0-.3,0-.7-.3-.9Z"/><path class="cls-29" d="m193.62,180.94c.28.2.4.57.3.9-.18.28-.42.52-.7.7-.28.03-.57-.04-.8-.2-.3-.8.3-1.4,1.2-1.4Z"/><path class="cls-26" d="m194.02,192.44h-1.3c-.2,0-.4-.1-.4-.3h0c0-.2.1-.4.3-.4h2.5c.2,0,.4,0,.4.4.02.2-.13.38-.34.4-.02,0-.04,0-.06,0h-1.3l.2-.1Z"/><path class="cls-12" d="m193.62,190.78h0c-.3.2-.6.4-1,.1-.23-.2-.27-.55-.1-.8.16-.42.56-.69,1-.7.26-.02.48.18.5.44,0,.02,0,.04,0,.06.06.3-.06.61-.3.8l-.1.1Z"/><path class="cls-26" d="m193.62,190.78c.2-.22.31-.5.3-.8h1.3c.2,0,.5,0,.5.3.02.26-.18.48-.44.5-.02,0-.04,0-.06,0h-1.6Z"/><path class="cls-25" d="m184.62,191.04c.2-.2.5-.4.6-.7.48-.09.95.22,1.04.7.08.42-.15.84-.54,1-.6.2-1.1-.2-1.1-1Z"/><path class="cls-25" d="m184.72,182.44l.6-.6c.6,0,1,.2,1.1.7.03.4-.22.78-.6.9-.6.2-1.1-.3-1.1-1Z"/><path class="cls-25" d="m193.22,182.44c.28-.18.52-.42.7-.7.8,0,1.2.5,1,1.2-.14.38-.56.57-.94.43-.02,0-.04-.02-.06-.03-.5,0-.6-.5-.6-.9h-.1Z"/></svg>