<?xml version="1.0" encoding="UTF-8"?><svg id="Layer_1" xmlns="http://www.w3.org/2000/svg" viewBox="0 0 400 400"><defs><style>.cls-1{fill:#a7cefe;}.cls-2{stroke:#a5262d;}.cls-2,.cls-3,.cls-4{stroke-width:4px;}.cls-2,.cls-3,.cls-4,.cls-5{stroke-miterlimit:10;}.cls-2,.cls-3,.cls-4,.cls-5,.cls-6{fill:none;}.cls-3{stroke:#0018c6;}.cls-7{fill:#8ac5cd;}.cls-4{stroke:#c000e2;}.cls-8{fill:#717f8f;}.cls-9{fill:#c69c6d;}.cls-5{stroke:#231f20;stroke-width:2px;}.cls-10{fill:#3b566a;}.cls-11{fill:#b2d3d9;}.cls-12{fill:#b3d4da;}.cls-13{fill:#728090;}.cls-14{fill:#484645;}.cls-15{fill:#637889;}.cls-16{fill:#b6d6fd;}.cls-17{fill:#b3b3b3;}.cls-18{fill:#88c4cc;}.cls-19{fill:#2f4859;}.cls-20{fill:#33b1cb;}.cls-21{fill:#304959;}.cls-22{fill:#3f4a5b;}.cls-23{fill:#231f20;}.cls-24{fill:#33b1cc;}.cls-25{fill:#86cde8;}</style></defs><line class="cls-6" x1="200.27" y1="115.12" x2="200.77" y2="147.9"/><line class="cls-5" x1="200.27" y1="115.12" x2="200.61" y2="137.14"/><polygon class="cls-23" points="193.1 135.06 200.77 147.9 208.07 134.84 193.1 135.06"/><line class="cls-6" x1="118.67" y1="110.86" x2="167.33" y2="150.16"/><line class="cls-5" x1="118.67" y1="110.86" x2="158.96" y2="143.4"/><polygon class="cls-23" points="152.55 147.84 167.33 150.17 161.96 136.21 152.55 147.84"/><line class="cls-6" x1="281.33" y1="110.86" x2="232.68" y2="150.16"/><line class="cls-5" x1="281.33" y1="110.86" x2="241.05" y2="143.4"/><polygon class="cls-23" points="238.05 136.21 232.68 150.16 247.46 147.84 238.05 136.21"/><circle class="cls-2" cx="91.11" cy="61.42" r="45"/><path d="m65.01,45.82l1-3c1.15.63,2.58.43,3.5-.5,1.1-1,1-1.7.7-2.1-.6-.6-1.4-.4-3.4.6s-4.1,1.5-5.9-.5c-1.8-2-1.1-4.7.7-6.3,1.58-1.5,3.91-1.9,5.9-1l-1,3c-.95-.52-2.13-.36-2.9.4-.8.7-.8,1.4-.4,1.8s1,.6,3-.4,4.3-1.9,6.2.3c1.8,2,1.2,4.7-1.1,6.7-2.3,2-4.5,2.1-6.5,1.1l.2-.1Z"/><path d="m70.01,29.92c-.44-.88-.08-1.96.8-2.4s1.96-.08,2.4.8.08,1.96-.8,2.4h0c-.89.39-1.92.04-2.4-.8Zm1.5,2.3l2.7-1.4,4.5,8.9-2.7,1.4-4.5-8.9Z"/><path d="m75.81,25.22l2.9-.9,4.5,13.9-2.9.9-4.5-13.9Z"/><path d="m82.41,25.33c-.16-.99.51-1.93,1.5-2.09.99-.16,1.93.51,2.09,1.5.16.99-.5,1.92-1.49,2.09-.98.17-1.92-.49-2.1-1.47,0,0,0-.02,0-.03Zm.7,2.6l3-.5,1.6,9.9-3,.5-1.6-9.9Z"/><path d="m89.01,31.92c.13-2.85,2.55-5.06,5.41-4.92.1,0,.2.01.29.02,1.86.09,3.52,1.21,4.3,2.9l-2.7,1.3c-.53-1.13-1.88-1.62-3.01-1.09-.74.35-1.24,1.07-1.29,1.89-.16,1.22.7,2.33,1.92,2.48.06,0,.12.01.18.02.8.07,1.58-.31,2-1l2.5,1.7c-1.02,1.56-2.84,2.41-4.7,2.2-2.88-.17-5.08-2.65-4.91-5.53,0-.06,0-.11.01-.17v.2Z"/><path d="m99.91,32.92c1.13-2.68,4.22-3.94,6.9-2.81,2.68,1.13,3.94,4.22,2.81,6.9-1.13,2.68-4.22,3.94-6.9,2.81,0,0,0,0,0,0-2.66-1.09-3.94-4.14-2.84-6.8.01-.03.03-.07.04-.1Zm7,2.9c.53-1.17.02-2.54-1.14-3.08-.02,0-.04-.02-.06-.02-1.11-.5-2.42,0-2.92,1.11-.03.06-.05.13-.08.19-.56,1.1-.11,2.45.99,3.01.07.03.14.06.21.09,1.11.5,2.42,0,2.92-1.11.03-.06.05-.13.08-.19Z"/><path d="m119.41,44.02l-4.2,4.5-2.2-2,3.9-4.2c.69-.6.76-1.65.16-2.34-.05-.06-.1-.11-.16-.16-.72-.71-1.87-.7-2.57.02-.08.09-.16.18-.23.28l-3.7,4-2.2-2,6.8-7.4,2.2,2-.6.7c1.07-.18,2.17.19,2.9,1,1.5,1.4,1.8,3.6,0,5.6h-.1Z"/><rect class="cls-9" x="64.21" y="51.92" width="52" height="37" rx="2.9" ry="2.9"/><path class="cls-14" d="m86.41,83.02c-2.18.11-4.34-.45-6.2-1.6-1.58-1.02-2.78-2.53-3.4-4.3l5.2-3c.69,1.97,2.62,3.24,4.7,3.1,2.3,0,2.8-.5,2.8-1.6s-.5-1.2-1.6-1.7c-.97-.38-1.98-.68-3-.9-1.91-.44-3.66-1.37-5.1-2.7-1.32-1.19-2.02-2.93-1.9-4.7-.03-2.02.81-3.95,2.3-5.3,1.65-1.39,3.77-2.11,5.92-1.99,1.87-.07,3.71.42,5.3,1.4,1.54.96,2.76,2.35,3.5,4l-5.1,3c-.5-1.61-2.02-2.67-3.7-2.6-1.7,0-1.3.1-1.6.4-.36.25-.59.66-.6,1.1.05.54.34,1.02.8,1.3,1,.59,2.08,1.03,3.2,1.3,1.1.4,2,.7,2.8,1,.8.34,1.56.74,2.3,1.2.78.55,1.43,1.26,1.9,2.1.41.95.61,1.97.6,3,.11,2.1-.83,4.12-2.5,5.4-1.87,1.4-4.17,2.11-6.5,2l-.12.09Z"/><path class="cls-14" d="m102.61,63.33c-.6.63-1.43.99-2.3,1-1.79.03-3.27-1.4-3.31-3.19-.02-.91.35-1.78,1.01-2.41.61-.6,1.44-.92,2.3-.9.85,0,1.68.32,2.3.9.63.6.99,1.43,1,2.3.02.88-.35,1.72-1,2.3Zm-5.1,19.2v-16.91h5.62v16.9h-5.62Z"/><circle class="cls-2" cx="199.99" cy="61.42" r="45"/><rect class="cls-17" x="173.99" y="51.42" width="52" height="37" rx="2.9" ry="2.9"/><path class="cls-14" d="m200.8,81.72l-1.1-3.4h-8l-1,3.4h-6.5l7.5-23.6h7.6l7.8,23.6h-6.3Zm-7.6-8.6h4.8l-2.4-8-2.4,8Z"/><path class="cls-14" d="m208.49,81.72v-24.7h5.63v24.7h-5.63Z"/><path d="m176.13,40.12l-2.4,3.1,1,1.4-1.6,2.1-6.1-9.3,1.9-2.4,10.5,3.7-1.6,2.1-1.6-.6-.1-.1Zm-2.2-.8l-3.8-1.4,2.3,3.3,1.5-1.9Z"/><path d="m172.8,30.33l1.7-1.4,7,8.4-1.7,1.4-7-8.4Z"/><path d="m184.99,26.52l3.6,6.6-2,1.1-.3-.6c-.11.81-.64,1.49-1.4,1.8-1.33.74-3.01.25-3.75-1.08-.06-.1-.11-.21-.15-.32l-2.2-4,2-1.1,2,3.8c.29.65,1.06.94,1.71.65.03-.01.06-.03.09-.05.67-.32.95-1.12.63-1.79-.04-.07-.08-.15-.13-.21l-2-3.6,2-1.1-.1-.1Z"/><path d="m199.6,26.02l.8,4.5-2.2.4-.8-4.3c-.03-.6-.54-1.05-1.14-1.02-.06,0-.11.01-.16.02-.7.1-1.1.7-.9,1.6l.7,4.2-2.2.4-.8-4.3c-.03-.6-.54-1.05-1.14-1.02-.06,0-.11.01-.16.02-.7.1-1.1.7-.9,1.6l.7,4.2-2.2.4-1.3-7.4,2.2-.4v.7c.41-.67,1.12-1.11,1.9-1.2.76-.23,1.58,0,2.1.6.37-.79,1.13-1.33,2-1.4,1.7-.3,3,.7,3.3,2.6l.2-.2Z"/><path d="m201.9,23.62l2.2.2-.6,7.5-2.2-.2.6-7.5Zm0-2c.08-.75.75-1.29,1.5-1.2.75.08,1.29.75,1.2,1.5s-.75,1.29-1.5,1.2c0,0,0,0,0,0-.72-.05-1.26-.66-1.21-1.38,0-.04,0-.08.01-.12Z"/><path d="m212.9,28.72l-1.2,4.4-2.2-.6,1.1-4.1c.24-.68-.11-1.42-.78-1.66-.04-.01-.08-.03-.12-.04-.69-.26-1.46.08-1.72.76-.04.11-.07.22-.08.34l-1.1,3.9-2.2-.6,2-7.2,2.2.6-.2.7c.67-.47,1.53-.58,2.3-.3,1.49.39,2.38,1.91,2,3.4-.03.1-.06.2-.1.3l.1.1Z"/><path d="m222.49,30.72l-3.8,6.4-1.9-1.2.4-.6c-.77.29-1.63.18-2.3-.3-1.32-.77-1.78-2.46-1.01-3.78.06-.11.13-.22.21-.32l2.4-4,1.9,1.2-2.2,3.7c-.41.5-.34,1.24.16,1.65.07.06.15.11.24.15.63.41,1.48.23,1.89-.4.04-.06.08-.13.11-.2l2.1-3.5,1.9,1.2h-.1Z"/><path d="m230.3,43.02l-3.5,3-1.5-1.7,3.4-2.9c.6-.5.7-1.1.2-1.6-.43-.5-1.18-.55-1.68-.12-.04.04-.08.08-.12.12l-3.2,2.7-1.5-1.7,3.4-2.9c.6-.5.7-1.1.2-1.6-.43-.5-1.18-.55-1.68-.12-.04.04-.08.08-.12.12l-3.2,2.7-1.5-1.7,5.7-4.9,1.5,1.7-.5.4c.76,0,1.49.34,2,.9.54.56.73,1.36.5,2.1.85-.02,1.66.35,2.2,1,1.03,1.19.9,3-.29,4.03-.07.06-.14.11-.21.17l-.1.3Z"/><circle class="cls-2" cx="308.89" cy="61.42" r="45"/><path class="cls-25" d="m278.89,63.72v-.6c.31-.48.83-.78,1.4-.8,1.39-.15,2.46-1.3,2.5-2.7v-.5c.05-.45.46-.77.91-.72.03,0,.06,0,.09.02.46-.01.86.34.9.8-.02.27.02.54.1.8.21,1.11,1.09,1.99,2.2,2.2.7.2.7.1.7-.6v-13.5c-.06-.38.2-.74.58-.8.07-.01.15-.01.22,0h30.63c0,.3-.3.4-.5.6l-7.2,7.2c-.2.17-.36.38-.5.6-.19.4-.11.88.2,1.2.32.33.83.37,1.2.1.21-.11.39-.29.5-.5l8.3-8.3c.29-.27.5-.62.6-1h3.4c0,.3-.3.4-.5.6l-13.3,13.3-.5.5c-.25.29-.25.71,0,1,.16.35.52.55.9.5.33-.05.64-.19.9-.4l14.6-14.6c.29-.21.48-.54.5-.9h1.1c1,0,.9-.1.9.9v28.3q0,.8.8.6c1.27-.35,2.16-1.49,2.2-2.8-.06-.49.29-.94.79-1,.07,0,.14,0,.21,0,.6,0,.9.4,1,1,.05,1.54,1.26,2.8,2.8,2.9.52,0,1,.32,1.2.8v.6c-.22.41-.64.67-1.1.7-1.57.04-2.81,1.33-2.8,2.9-.03.34-.17.65-.4.9-.25.23-.61.27-.9.1-.38-.12-.63-.5-.6-.9-.2-1.6-.9-2.6-2.3-2.9-.7-.2-.7-.1-.7.6v12.6c0,.53-.24.8-.7.8h-21.6c0-.3.3-.4.5-.6l7.5-7.5c.5-.6.6-1.1.1-1.5-.39-.38-1.01-.38-1.4,0l-.1.1-8.7,8.7c-.25.25-.42.56-.5.9h-3.4c0-.3.3-.4.5-.6l13.3-13.3c.2-.17.36-.38.5-.6.24-.39.16-.91-.2-1.2-.31-.33-.83-.35-1.16-.04-.01.01-.03.03-.04.04-.1,0-.2.2-.3.3l-14.63,14.63c-.26.24-.44.55-.5.9h-10.1c-.44.06-.84-.25-.9-.69,0-.07,0-.14,0-.21v-27.53c0-.7,0-.8-.7-.6-1.32.36-2.25,1.54-2.3,2.9.03.52-.36.97-.88,1-.04,0-.08,0-.12,0-.55,0-1-.45-1-1v-.3c-.14-1.41-1.28-2.51-2.7-2.6-.52-.02-.99-.28-1.3-.7l-.2-.1Zm5,.6c.37-.22.68-.53.9-.9-.27-.36-.58-.69-.9-1-.35.25-.65.55-.9.9.25.35.55.65.9.9h0v.1Zm50.9,14.2c-.19-.39-.51-.71-.9-.9-.35.25-.65.55-.9.9l.9.9.9-.9Z"/><path class="cls-24" d="m325.3,47.52c.3-.11.54-.32.7-.6.8-.8,1.6-.6,1.9.5-.04.35-.22.68-.5.9l-14.6,14.6c-.21.28-.55.43-.9.4-.37,0-.71-.19-.9-.5-.2-.3-.2-.7,0-1,.11-.21.29-.39.5-.5l13.3-13.3c.2-.2.4-.3.5-.6v.1Z"/><path class="cls-20" d="m301.49,93.32c-.3.1-.5.4-.8.6-.8.7-1.6.5-1.8-.6.02-.36.21-.69.5-.9l14.6-14.6.3-.3c.36-.25.84-.25,1.2,0,.36.29.44.81.2,1.2-.14.22-.3.43-.5.6l-13.3,13.33c-.2.2-.4.3-.5.6l.1.07Z"/><path class="cls-24" d="m319.2,47.52c.2,0,.4-.2.6-.4,1-1,1.6-.8,2.1.4-.08.39-.29.75-.6,1l-8.3,8.3-.5.5c-.37.27-.88.23-1.2-.1-.38-.25-.49-.77-.24-1.15.01-.02.02-.03.04-.05.11-.24.28-.45.5-.6l7.2-7.2c.2-.2.4-.3.5-.6l-.1-.1Z"/><path class="cls-24" d="m307.49,93.42c-.3.11-.54.32-.7.6-.8.8-1.6.5-1.9-.5.02-.33.21-.63.5-.8l8.7-8.7c.25-.43.8-.58,1.23-.33.06.04.12.08.17.13l.1.1c.39.39.39,1.02,0,1.41-.03.03-.06.06-.1.09l-7.5,7.5c-.2.2-.4.3-.4.6l-.1-.1Z"/><path d="m297.2,31.22c2.03,2.82,1.4,6.75-1.41,8.78-.16.11-.32.22-.49.32-2.98,2.46-7.39,2.05-9.86-.93-2.46-2.98-2.05-7.39.93-9.86.38-.31.79-.58,1.22-.81,1.95-1.32,4.44-1.55,6.6-.6l-1.4,2.7c-1.21-.46-2.57-.27-3.6.5-1.8,1.08-2.37,3.42-1.29,5.22.06.1.12.19.19.28,1.2,1.9,3.5,2.4,5.7,1,1.3-.69,2-2.16,1.7-3.6l-3,1.9-1.5-2.2,5.6-3.7.6,1Z"/><path d="m298.13,23.52l2.8-.7,3.5,13.5-2.8.7-3.5-13.5Z"/><path d="m315.6,26.32l-.2,9.6h-2.9v-1c-.76.77-1.82,1.18-2.9,1.1-2.5,0-4.5-2.3-4.5-5.1-.09-2.62,1.96-4.81,4.58-4.9.04,0,.08,0,.12,0,1.07-.05,2.1.39,2.8,1.2v-.9h3Zm-3,4.7c.1-1.22-.8-2.29-2.01-2.39-.06,0-.13,0-.19,0-1.18-.09-2.21.8-2.3,1.99,0,.1,0,.21,0,.31-.1,1.22.8,2.29,2.01,2.39.06,0,.13,0,.19,0,1.18.09,2.21-.8,2.3-1.99,0-.1,0-.21,0-.31Z"/><path d="m324.3,36.22c-.8,2.1-2.9,2.3-4.8,1.6-1.65-.49-2.86-1.9-3.1-3.6l2.8-.5c-.07.73.39,1.4,1.1,1.6.6.2,1,.2,1.2-.2.4-1-4.2-2.1-3.1-5.2.7-2,2.7-2.3,4.6-1.6,1.45.47,2.53,1.7,2.8,3.2l-2.8.4c.03-.56-.35-1.07-.9-1.2-.5-.2-.8-.1-.9.2-.4,1,4.3,2,3.1,5.3Z"/><path d="m330.99,41.02c-1.3,1.8-3.4,1.4-5.1.2-1.46-.91-2.25-2.6-2-4.3l2.8.3c-.22.72.06,1.5.7,1.9.6.4,1,.4,1.2.1.6-.9-3.5-3.2-1.6-5.8,1.2-1.7,3.3-1.5,4.9-.3,1.27.82,1.97,2.29,1.8,3.8l-2.8-.4c0-.6,0-1.1-.5-1.4s-.8-.3-1,0c-.6.9,3.6,3.1,1.5,5.9h.1Z"/><line class="cls-6" x1="199.7" y1="251.63" x2="200.2" y2="284.41"/><line class="cls-5" x1="199.7" y1="251.63" x2="200.04" y2="273.65"/><polygon class="cls-23" points="192.52 271.57 200.2 284.41 207.48 271.35 192.52 271.57"/><circle class="cls-4" cx="200" cy="338.58" r="45"/><path d="m166.7,323.38c1.9.7,2.8,2.8,2,4.7l-.6,1.5,3.1,1.2-.9,2.2-9.8-3.8,1.4-3.7c.7-1.9,2.8-2.9,4.7-2.1h.1Zm-.9,2.2c-.7-.3-1.5,0-1.7.7l-.6,1.5,2.5,1,.6-1.5c.3-.7,0-1.4-.8-1.7Z"/><path d="m174,316.88l3.7,2.7-1.3,1.8-3.4-2.5c-.7-.6-1.4-.3-1.9.2-.5.7-.4,1.4.4,2l3.3,2.4-1.3,1.8-8.5-6.2,1.3-1.8,3,2.2c-.2-.7,0-1.5.5-2.3.9-1.2,2.5-1.6,4.2-.4v.1Z"/><path d="m175.7,316.28c-1.4-1.8-1.1-4.2.7-5.6,1.7-1.4,4.2-1.1,5.6.6,1.4,1.8,1.1,4.2-.7,5.6-1.7,1.4-4.2,1.1-5.6-.6Zm4.5-3.5c-.7-.8-1.7-.9-2.5-.3s-.9,1.6-.3,2.5c.7.8,1.7.9,2.5.3s.9-1.6.3-2.5Z"/><path d="m189.7,306.98l1.8,4.2-2.1.9-1.7-3.9c-.4-.9-1.1-1-1.7-.7-.8.3-1.1,1-.7,2l1.6,3.8-2.1.9-2.9-6.9,2.1-.9.3.6c.2-.7.7-1.3,1.6-1.7,1.4-.6,3-.1,3.8,1.8v-.1Z"/><path d="m195.9,308.68c.6,0,1.1-.4,1.3-.8l1.9.8c-.6,1.1-1.6,1.8-3,2-2.5.4-4.4-1.1-4.7-3.4-.3-2.2,1.1-4.1,3.4-4.5,2.2-.3,4,1.2,4.3,3.4v.9l-5.3.7c.4.7,1.1.9,1.9.8l.2.1Zm1-2.9c-.4-.8-1.1-1-1.7-1-.8.1-1.4.6-1.5,1.4l3.2-.4Z"/><path d="m201.1,304.58l5.7.6-.2,2.1-5.7-.6.2-2.1Z"/><path d="m216.1,310.18c-.8,2.1-2.9,3.1-4.8,2.4-.9-.4-1.5-.9-1.8-1.6l-.3.7-2.1-.8,3.7-9.8,2.1.8-1.3,3.5c.7-.4,1.5-.4,2.4,0,1.8.7,2.7,2.9,1.9,5l.2-.2Zm-2.1-.8c.4-1.1,0-2-1-2.3-1-.4-1.9,0-2.3,1.1-.4,1.1,0,2,1,2.3,1,.4,1.9,0,2.3-1.1Z"/><path d="m217.2,310.88c1.3-1.8,3.8-2.1,5.6-.8,1.8,1.3,2.2,3.8.8,5.5-1.3,1.8-3.8,2.1-5.6.8-1.8-1.3-2.2-3.8-.8-5.5Zm4.6,3.4c.6-.9.5-1.9-.3-2.5s-1.8-.5-2.4.4-.5,1.9.3,2.5,1.8.5,2.4-.4Z"/><path d="m234.7,318.78l-8.3,6.4-1.4-1.8.6-.4c-.8,0-1.5-.4-2.1-1.2-1.2-1.6-.8-3.9,1-5.3,1.8-1.4,4.1-1.1,5.3.4.6.8.8,1.6.6,2.3l2.9-2.3,1.4,1.8v.1Zm-6.7,2.3c.9-.7,1-1.7.4-2.5s-1.6-1-2.5-.3-1,1.7-.4,2.5,1.6,1,2.5.3Z"/><path d="m236.5,329.78l-7.7.4c-2.5.1-3.9-.7-4.6-2.7l1.9-.8c.4,1,.9,1.3,1.9,1.3l5.5-5.5.9,2.3-3.6,3.3,4.8-.5.9,2.2h0Z"/><path d="m240.5,335.18l-10.3,1.9-.4-2.4,7.8-1.4-.8-1.7,1.9-.9,1.5,2.5.4,2.1-.1-.1Z"/><path class="cls-22" d="m189.4,371.88c0-.2-.2-.1-.4-.2-2-.5-3.4-2.3-3.4-4.4v-38.8c0-2.7,1.1-4.2,3.6-5,0,0,.1,0,.1-.1h3.4v.1c.5,1.3,1.1,2.6,1.6,3.9.1.3.4.4.7.4h9.7c.4,0,.7-.2.8-.5.2-.5.4-1,.6-1.5.3-.8.7-1.5.9-2.4h3.3c.2.2.5.2.8.3,1.8.6,3,2.3,3.1,4.2v38.8c0,2.8-1.1,4.3-3.8,5.2h-21.1.1Zm23.7-7.3h0v-33.8c0-.4-.3-.2-.5-.2h-25.5c-.4,0-.5.1-.5.5v33.4h26.3l.2.1Zm-13.1,3.1h-4.4c-.5,0-.7.2-.6.7,0,.4.4.5.7.5h8.6c.5,0,.7-.2.7-.6,0-.5-.3-.5-.7-.5h-4.3v-.1Z"/><path class="cls-13" d="m207.2,323.38c-.2.8-.6,1.6-.9,2.4-.2.5-.4,1-.6,1.5-.1.3-.4.6-.8.5h-9.7c-.3,0-.6-.1-.7-.4-.5-1.3-1.1-2.6-1.6-3.9v-.1h14.4-.1Z"/><path class="cls-1" d="m186.9,364.58c-.2-.1,0-.3,0-.4v-33c0-.4,0-.5.5-.5h25.5c.2,0,.4-.2.5.2-.2,0-.3.2-.5.4-.4.5-.7,1-1.1,1.4-1.4,1.8-2.9,3.7-4.3,5.5-1.1,1.5-2.3,2.9-3.4,4.4-1.4,1.8-2.9,3.7-4.3,5.5-1.1,1.5-2.3,2.9-3.4,4.4-1.5,2-3.1,3.9-4.6,5.9-1.1,1.4-2.2,2.8-3.2,4.2-.5.7-1.1,1.3-1.5,2h-.2Z"/><path class="cls-16" d="m186.9,364.58c.4-.7,1-1.3,1.5-2,1.1-1.4,2.2-2.8,3.2-4.2,1.5-2,3.1-3.9,4.6-5.9,1.1-1.5,2.3-2.9,3.4-4.4,1.4-1.8,2.9-3.7,4.3-5.5,1.1-1.5,2.3-2.9,3.4-4.4,1.4-1.8,2.9-3.7,4.3-5.5.4-.5.7-.9,1.1-1.4.1-.2.2-.3.5-.4v33.7h-26.3Z"/><path class="cls-8" d="m200,367.68h4.3c.4,0,.7,0,.7.5,0,.4-.2.6-.7.6h-8.6c-.3,0-.6,0-.7-.5,0-.4.1-.7.6-.7h4.4v.1Z"/><path d="m198.3,334.28h5.7v25.9h-6.6v-18.9l-4.5,1.1-1.6-5.6s7-2.5,7-2.5Z"/><circle class="cls-3" cx="199.96" cy="198.55" r="39.41"/><path class="cls-10" d="m210.29,181.39c.19.25.43.46.7.61,1.02.95,1.6,2.28,1.58,3.68v39.67c0,3.15-1.58,4.99-4.82,5.25-5.25.44-10.52.44-15.76,0-2.59-.07-4.63-2.22-4.56-4.81,0-.06,0-.12,0-.19v-39.94c-.14-2.61,1.86-4.85,4.47-4.99.03,0,.05,0,.08,0,4.61-.32,9.23-.38,13.84-.18.32-.01.65.02.96.09,1.22-.02,2.44.19,3.59.61l-.09.18Zm-9.55,5.78h-9.72c-.61,0-.79.18-.79.79v10.07c0,3.33,0,2.1,2.1,2.01h16.73c.53,0,.61-.18.61-.61v-11.59c0-.44-.09-.7-.61-.7h-8.32v.03Zm1.84,25.84c-2.01,0-1.84,0-1.84,1.93,0,.61.26.88.88.88h1.4c1.14,0,1.23,0,1.23-1.14,0-1.93.18-1.66-1.66-1.66Zm-5.17,0h-.96c-.53,0-.88.18-.7.7.18.7-.61,1.84.7,2.1.67.09,1.35.09,2.01,0,.38.02.71-.24.79-.61.44-1.66,0-2.19-1.66-2.19h-.18Zm0-4.12c-1.93,0-1.66-.18-1.75,1.75v.26c0,.61.26.88.79.88h2.01c.35-.02.64-.27.7-.61.44-1.66,0-2.19-1.66-2.19h0l-.09-.09Zm5.25,0h-1.14c-.44,0-.7.18-.7.61,0,2.01-.18,2.28,1.84,2.19h.44c1.14,0,1.23-.18,1.23-1.23,0-1.84.18-1.66-1.66-1.66h0v.09Zm-.09,11.12h.88c.44,0,.88-.09.88-.61,0-.7.44-1.58-.35-2.19h-2.45c-.33-.02-.63.2-.7.53-.44,1.66,0,2.28,1.75,2.28h0Zm-5.08,0h.88c.53,0,.88-.18.88-.7,0-.7.44-1.58-.35-2.1h-2.45c-.3,0-.57.17-.7.44-.53,1.58,0,2.36,1.66,2.36h.09Zm0-15.24h-.79c-.61,0-.88.18-.88.88q0,2.01,2.01,2.01h.7c.41.01.75-.3.79-.7.35-1.75,0-2.19-1.75-2.19h-.09Zm5.25,0h-1.14c-.44,0-.7.18-.7.7,0,2.01-.18,2.28,1.84,2.19h.44c1.14,0,1.23-.18,1.23-1.23,0-1.84.18-1.66-1.66-1.66h0Zm-10.33,15.24h.7c.79,0,1.05-.26.96-1.05,0-2.1.26-1.84-1.84-1.84h-.35c-1.14,0-1.23,0-1.14,1.14,0,1.58-.35,1.75,1.66,1.66v.09Zm15.41-2.89h-.7c-.7-.09-.96.18-.96.96,0,2.01-.35,1.93,1.93,1.93h.35q1.14,0,1.14-1.14c0-1.93.18-1.66-1.66-1.66h0l-.09-.09Zm0-4.12h-.88c-.61,0-.79.26-.79.88,0,2.1-.35,2.01,2.01,2.01h.26c1.05,0,1.14-.09,1.14-1.14,0-1.93.18-1.75-1.66-1.75h-.09Zm-15.33,0h-.77c-.7,0-.96.18-.96.96,0,2.01-.35,1.93,1.93,1.93h.35c1.05,0,1.14-.09,1.14-1.23,0-1.84.18-1.66-1.66-1.66h-.02Zm0-4.12h-.77c-.7,0-.96.18-.88.88,0,2.01-.18,2.01,1.93,1.93h.26c1.14,0,1.23,0,1.23-1.23,0-1.84.18-1.66-1.66-1.66l-.11.09Zm15.41-4.12h-.88c-.61,0-.79.26-.79.88,0,2.1-.18,2.01,2.01,2.01h.26c1.05,0,1.14-.09,1.14-1.14,0-1.93.18-1.66-1.66-1.75h-.09Zm0,4.12c-1.93,0-1.66-.26-1.75,1.75v.18c0,.7.26.96.96.96h1.24c1.05,0,1.14-.09,1.14-1.23,0-1.84.18-1.66-1.66-1.66h.07Zm-15.41-4.12h-.88c-.61,0-.79.26-.79.88,0,2.1-.18,2.01,2.01,2.01h.26c1.05,0,1.14-.09,1.14-1.14,0-1.93.18-1.66-1.66-1.75h-.09Zm9.37-20.06c.35,0,.61-.09.53-.53s-.18-.44-.53-.44-.61.09-.53.53.18.44.53.44Zm2.19-.44c0-.35-.18-.44-.53-.44s-.61,0-.61.44.18.44.53.44.61-.09.61-.44Zm-5.08,42.65c.04-.25-.14-.49-.39-.53-.04,0-.09,0-.13,0-.35,0-.44.26-.44.53s.18.53.44.53c.26-.03.46-.26.44-.53h.09Zm-1.84-43.09c-.28,0-.52.18-.61.44,0,.28.21.52.49.53.01,0,.02,0,.04,0,.26,0,.44-.09.44-.35h0c0-.35-.09-.53-.44-.53l.09-.09Zm2.01.44c0-.35-.18-.44-.53-.44-.24-.05-.48.11-.53.35-.05.24.11.48.35.53.06.01.12.01.18,0,.35,0,.44-.18.44-.44h.09Zm-.18,39.06c0-.35-.26-.44-.53-.44-.23-.02-.42.16-.44.38,0,.02,0,.04,0,.05,0,.35.18.53.44.53s.44-.18.44-.53h.09Zm3.5-.09c0-.18-.09-.35-.44-.35s-.53.09-.53.44.18.53.44.53.44-.18.44-.61h.09Zm-.35,4.12c.26,0,.35-.18.35-.44.02-.26-.17-.5-.44-.53-.23-.02-.43.14-.45.37,0,.05,0,.11.01.16.09.35.18.44.61.44h-.09Zm-1.4-43.09c0-.35-.26-.44-.53-.44s-.44.18-.35.53.26.44.53.44c.26-.03.46-.26.44-.53h-.09Zm-.44,38.8c.23.02.42-.16.44-.38,0-.02,0-.04,0-.05,0-.35-.18-.53-.53-.44s-.44.18-.44.53c.03.26.26.46.53.44h0v-.09Zm-2.63,2.54c.26,0,.44-.09.53-.44s-.09-.53-.44-.53-.44.09-.53.44.09.53.44.53h0Zm4.99-.96c-.21,0-.38.18-.38.39,0,.05,0,.09.03.13,0,.26.18.44.53.35s.44-.26.44-.53c-.03-.26-.26-.46-.53-.44l-.09.09Zm-2.45,3.5c.23.02.42-.16.44-.38,0-.02,0-.04,0-.05,0-.35-.18-.53-.44-.53-.23-.02-.42.16-.44.38,0,.02,0,.04,0,.05,0,.35.18.5.44.5v.03Zm-.53-2.72c0-.26-.09-.44-.44-.44-.23-.02-.42.16-.44.38,0,.02,0,.04,0,.05,0,.26.09.53.35.53.26,0,.47-.19.53-.44h0v-.09Zm.7.35c-.23-.02-.42.16-.44.38,0,.02,0,.04,0,.05.03.26.26.46.53.44h0c.26,0,.35-.26.35-.44.02-.23-.16-.42-.38-.44-.02,0-.04,0-.05,0Zm0-1.66c.02-.22-.13-.41-.35-.44-.26,0-.47.19-.53.44,0,.18.09.44.35.44h0c.26,0,.35-.26.44-.44h.09Zm.88,1.14c.19-.01.34-.16.35-.35,0-.18,0-.35-.26-.44h-.09c-.26,0-.35.18-.44.35s0,.35.35.35l.09.09Z"/><path class="cls-18" d="m203.13,187.17h5.96c.53,0,.61.18.61.7v11.56c0,.44-.09.61-.61.61h-13.4c.02-.19.08-.37.18-.53,1.66-2.72,3.24-5.43,4.9-8.15.87-1.35,1.66-2.76,2.36-4.2Z"/><path class="cls-18" d="m192.34,199.95c-1.4,0-2.1-.67-2.1-2.01v-10.1c0-.61.18-.79.79-.79h8.76c-.61,1.27-1.32,2.5-2.1,3.68-1.75,3.07-3.59,6.04-5.34,9.11v.11Z"/><path class="cls-12" d="m203.13,187.17c-.7,1.45-1.49,2.85-2.36,4.2-1.58,2.72-3.24,5.43-4.9,8.15,0,.18-.18.35-.18.53h-1.4c.02-.19.08-.37.18-.53,1.4-2.28,2.8-4.64,4.12-6.92,1.05-1.84,2.19-3.5,3.15-5.43h1.4Z"/><path class="cls-7" d="m201.71,187.17c-.96,1.84-2.1,3.59-3.15,5.43-1.4,2.36-2.8,4.64-4.12,6.92,0,.18-.18.35-.18.53h-.96c.4-1.03.93-2,1.58-2.89,1.93-3.33,3.94-6.66,5.87-9.9h.96v-.09Z"/><path class="cls-11" d="m200.75,187.17c-1.93,3.33-3.94,6.57-5.87,9.9-.64.89-1.17,1.87-1.58,2.89h-.96c1.84-2.98,3.59-6.04,5.34-9.11.78-1.18,1.49-2.41,2.1-3.68h.96Z"/><path class="cls-15" d="m202.58,213c1.93,0,1.66-.18,1.66,1.66,0,1.05,0,1.14-1.23,1.14h-1.4c-.43.05-.82-.26-.88-.69,0-.06,0-.12,0-.19,0-2.01-.18-2.01,1.84-1.93Z"/><path class="cls-15" d="m197.33,213h0c1.66,0,2.1.53,1.66,2.19-.04.38-.39.66-.78.61,0,0,0,0-.01,0-.67.04-1.34.04-2.01,0-1.31-.26-.53-1.4-.7-2.1-.09-.53.18-.79.7-.7h1.14Z"/><path class="cls-15" d="m197.33,208.86h0c1.66,0,2.1.53,1.66,2.19-.06.34-.35.6-.7.61h-2.01c-.53,0-.88-.26-.79-.88v-.26c0-1.93-.26-1.75,1.75-1.75l.09.09Z"/><path class="cls-15" d="m202.58,208.86c1.84,0,1.66-.18,1.66,1.66,0,1.05-.18,1.23-1.23,1.23h-.44c-2.1,0-1.84-.18-1.84-2.19,0-.44.26-.61.7-.61h1.14v-.09Z"/><path class="cls-15" d="m202.5,220.01c-1.66,0-2.19-.61-1.75-2.28.07-.33.37-.55.7-.53h2.45c.79.61.35,1.49.35,2.19,0,.53-.44.61-.88.61h-.88Z"/><path class="cls-15" d="m197.33,220.01c-1.58,0-2.19-.88-1.66-2.36.06-.3.35-.51.65-.45.02,0,.03,0,.05.01h2.45c.79.61.35,1.4.35,2.1,0,.44-.35.7-.88.7h-.96Z"/><path class="cls-15" d="m197.33,204.68h0c1.75,0,2.1.44,1.75,2.19,0,.44-.35.61-.79.7h-.7q-2.01,0-2.01-2.01c0-2.01.26-.96.88-.88h.88Z"/><path class="cls-15" d="m202.58,204.68c1.84,0,1.66-.18,1.66,1.66,0,1.05-.18,1.23-1.23,1.23h-.44c-2.1,0-1.84-.18-1.84-2.19,0-.44.26-.61.7-.7h1.14Z"/><path class="cls-15" d="m192.25,220.01c-2.01,0-1.66-.09-1.66-1.66q0-1.14,1.14-1.14h.35c2.1,0,1.84-.26,1.84,1.84,0,.79-.26,1.05-.96,1.05h-.7v-.09Z"/><path class="cls-15" d="m207.66,217.12c1.93,0,1.66-.18,1.66,1.66q0,1.14-1.14,1.14h-.35c-2.28,0-1.84,0-1.93-1.93,0-.7.26-1.05.96-.96h.7l.09.09Z"/><path class="cls-15" d="m207.66,213c1.84,0,1.66-.18,1.66,1.75,0,1.05-.09,1.14-1.14,1.14h-.26c-2.36,0-1.93.09-2.01-2.01,0-.61.18-.88.79-.88h.96Z"/><path class="cls-15" d="m192.25,213c1.84,0,1.58-.18,1.66,1.66,0,1.05,0,1.23-1.14,1.23h-.35c-2.28,0-1.84,0-1.93-1.93,0-.7.26-1.05.96-.96h.79Z"/><path class="cls-15" d="m192.25,208.86c1.84,0,1.66-.18,1.66,1.66,0,1.14,0,1.23-1.23,1.23h-.26c-2.1,0-1.84,0-1.93-1.93,0-.7.18-.96.88-.88h.79l.09-.09Z"/><path class="cls-15" d="m207.66,204.68c1.84,0,1.66-.18,1.66,1.75,0,1.05-.09,1.14-1.14,1.14h-.26c-2.19,0-1.93.09-2.01-2.01,0-.61.18-.88.79-.88h.96Z"/><path class="cls-15" d="m207.66,208.86c1.84,0,1.66-.18,1.66,1.66,0,1.14-.09,1.23-1.14,1.23h-1.23c-.7,0-.96-.26-.96-.96v-.18c0-1.93-.26-1.75,1.75-1.75h-.09Z"/><path class="cls-15" d="m192.25,204.68c1.84,0,1.66-.18,1.66,1.66,0,1.05-.09,1.14-1.14,1.14h-.26c-2.19,0-2.01.09-2.01-2.01,0-.61.18-.88.79-.88h.88l.09.09Z"/><path class="cls-19" d="m201.62,184.72c-.26,0-.53-.09-.53-.44,0-.28.21-.52.49-.53.01,0,.02,0,.04,0,.26,0,.53.09.53.44,0,.28-.21.52-.49.53-.01,0-.02,0-.04,0Z"/><path class="cls-19" d="m203.72,184.28c0,.35-.26.44-.61.44s-.53-.18-.53-.44.26-.44.61-.44.53.18.53.44Z"/><path class="cls-21" d="m198.64,226.84c.02.26-.17.5-.44.53-.23.02-.43-.14-.45-.37,0-.05,0-.11.01-.16,0-.26.09-.53.44-.53.25-.04.49.14.53.39,0,.04,0,.09,0,.13h-.09Z"/><path class="cls-19" d="m196.8,183.75c.35,0,.44.18.44.53.02.23-.16.42-.38.44-.02,0-.04,0-.05,0h0c-.35,0-.61-.18-.53-.53s.26-.44.61-.44h-.09Z"/><path class="cls-19" d="m198.82,184.19c0,.35-.18.53-.44.44-.24.05-.48-.11-.53-.35-.05-.24.11-.48.35-.53.06-.01.12-.01.18,0,.26,0,.53.09.53.44h-.09Z"/><path class="cls-19" d="m198.64,223.25c0,.35-.18.53-.44.53s-.44-.18-.44-.53.09-.44.44-.44.53.09.53.44h-.09Z"/><path class="cls-19" d="m202.15,223.16c0,.44-.18.61-.44.61s-.44-.18-.44-.53.26-.44.53-.44c.22-.02.41.13.44.35h-.09Z"/><path class="cls-19" d="m201.8,227.25c-.35,0-.61-.09-.61-.44s.18-.53.44-.53.44.18.44.53-.09.44-.35.44h.09Z"/><path class="cls-19" d="m200.4,184.19c.03.24-.12.46-.35.53-.26,0-.53-.09-.53-.44-.03-.24.12-.46.35-.53.35,0,.53.09.53.44Z"/><path class="cls-19" d="m199.96,222.99c-.26,0-.44-.09-.53-.44s.09-.53.44-.53.53.18.53.44c.02.23-.16.42-.38.44-.02,0-.04,0-.05,0v.09Z"/><path class="cls-19" d="m197.42,225.5c-.35,0-.44-.18-.44-.53s.18-.44.53-.44.44.18.44.53-.18.44-.53.44Z"/><path class="cls-19" d="m202.41,224.57c.35,0,.53.09.53.35s-.09.53-.44.53c-.24.03-.46-.12-.53-.35,0-.35.09-.53.35-.53h.09Z"/><path class="cls-19" d="m199.96,221.06c-.19-.01-.34-.16-.35-.35,0-.18.09-.26.35-.26.18-.02.34.12.35.3,0,.02,0,.04,0,.05,0,.18-.09.26-.35.26Z"/><path class="cls-21" d="m199.43,225.35c-.05.25-.27.43-.53.44-.26,0-.44-.18-.35-.53s.18-.44.44-.44.35.26.44.44v.09Z"/><path class="cls-21" d="m200.13,225.7c.23-.02.42.16.44.38,0,.02,0,.04,0,.05,0,.26,0,.44-.35.44s-.53-.09-.53-.35h0c0-.26.18-.35.44-.44v-.09Z"/><path class="cls-21" d="m200.05,224.13c-.02.23-.2.42-.44.44-.22.02-.41-.13-.44-.35h0c.03-.26.26-.46.53-.44.26,0,.35.18.35.44v-.09Z"/><path class="cls-19" d="m201.01,225.18c-.35,0-.44-.18-.35-.35s.18-.44.44-.35c.19.01.34.16.35.35v.09c-.01.19-.16.34-.35.35l-.09-.09Z"/><path d="m171.76,193.92c2.31-.22,4.36,1.48,4.58,3.79,0,.03,0,.06,0,.09l.18,3.45-8.57.54-.18-3.45c-.16-2.28,1.56-4.25,3.84-4.41.05,0,.1,0,.14,0Zm.15,1.87c-1.2-.05-2.22.88-2.27,2.08,0,.1,0,.21,0,.31l.07,1.5,4.8-.35-.07-1.5c-.05-1.26-1.11-2.23-2.37-2.18-.07,0-.13,0-.2.02l.03.12Z"/><path d="m168.74,191.98c-.62-.11-1.03-.7-.92-1.32.11-.62.7-1.03,1.32-.92.62.11,1.03.7.92,1.32h0c-.1.61-.67,1.03-1.29.93-.01,0-.02,0-.03,0Zm1.61.09l.31-1.78,5.99,1.04-.31,1.78-5.99-1.04Z"/><path d="m176.78,185.28c1.37.46,1.54,1.82,1.05,3.07-.29,1.04-1.16,1.82-2.22,2.01l-.32-1.77c.47.06.9-.25.98-.72.16-.42.11-.66-.16-.73-.68-.23-1.31,2.7-3.29,2.05-1.25-.49-1.51-1.7-1.1-2.99.28-.94,1.05-1.64,2.01-1.83l.25,1.72c-.37.04-.68.28-.82.62-.14.18-.1.44.09.58.01.01.03.02.05.03.68.23,1.24-2.74,3.37-2l.12-.03Z"/><path d="m179.89,178.32c1.45.87,1.92,2.76,1.05,4.21-.02.03-.03.05-.05.08-.38.58-.98.99-1.66,1.12l2.58,1.66-1.04,1.62-7.08-4.86.99-1.55.52.33c-.13-.67.01-1.37.4-1.93.99-1.34,2.89-1.62,4.23-.63.03.02.06.04.09.07l-.03-.12Zm-.99,1.55c-.66-.49-1.58-.35-2.07.31,0,0,0,.01-.01.02-.46.59-.36,1.44.22,1.91.05.04.1.07.15.1.66.49,1.58.35,2.07-.31,0,0,0-.01.01-.02.48-.54.43-1.37-.11-1.85-.08-.07-.16-.13-.25-.18v.02Z"/><path d="m176.94,173.2l1.31-1.24,6.12,6.53-1.31,1.24-6.12-6.53Z"/><path d="m187.17,169.26l3.18,5.26-1.56.97-.3-.5c-.14.67-.58,1.23-1.19,1.53-1.63.75-3.56.04-4.31-1.59-.64-1.39-.22-3.04,1.01-3.96.58-.38,1.3-.49,1.96-.3l-.3-.5,1.56-.97-.05.07Zm.01,3.55c-.38-.71-1.27-.98-1.98-.6-.02,0-.03.02-.05.03-.75.39-1.04,1.32-.65,2.07.39.75,1.32,1.04,2.07.65.75-.39,1.04-1.32.65-2.07-.01-.03-.03-.05-.04-.08Z"/><path d="m195.14,166.88l-.52,6.33c-.18,2.07-1.04,3.08-2.73,3.45l-.42-1.62c.71-.08,1.24-.69,1.21-1.41l-3.83-5.06,1.98-.5,2.29,3.24.15-3.96,1.91-.54-.05.07Z"/><path d="m207.43,174.96l-1.6-2.92-.33,2.68-1.81-.21,1.14-8.51,1.81.21-.71,5.08,2.19-2.39,2.17.31-2.6,2.72,1.85,3.38-2.05-.28-.04-.08Z"/><path d="m212.68,175.08c.41.17.88.17,1.29,0l1.03,1.33c-.89.54-2,.58-2.94.11-1.65-.53-2.56-2.31-2.03-3.96.03-.1.07-.19.11-.28.58-1.6,2.35-2.43,3.95-1.85.1.04.2.08.3.13,1.6.64,2.37,2.46,1.73,4.06-.02.04-.03.08-.05.12-.07.24-.26.44-.33.68l-4.02-1.69c-.01.63.41,1.19,1.03,1.33l-.08.04Zm1.9-1.64c.07-.61-.25-1.19-.8-1.46-.55-.28-1.23-.13-1.59.37l2.43.97-.03.12Z"/><path d="m223.47,176.37l-5.28,3.49c-1.76,1.16-3.1,1.09-4.39,0l1.05-1.37c.5.51,1.3.55,1.85.09l1.54-6.13,1.65,1.19-1.19,3.85,3.13-2.31,1.53,1.16.12.03Z"/><path d="m226.25,184.73c-1.27,1.08-3.18.93-4.26-.35-.02-.03-.05-.05-.07-.08-.46-.52-.65-1.22-.54-1.9l-2.4,1.81-1.11-1.49,6.87-5.15,1.11,1.49-.54.29c.69.11,1.3.5,1.69,1.07.95,1.37.6,3.26-.77,4.2-.03.02-.06.04-.09.06l.12.03Zm-1.11-1.49c.63-.41.81-1.26.4-1.89-.04-.06-.08-.11-.12-.16-.38-.63-1.2-.83-1.83-.44-.08.05-.15.1-.22.17-.63.41-.81,1.26-.4,1.89.04.06.08.11.12.16.38.63,1.2.83,1.83.44.08-.05.15-.1.22-.17h0Z"/><path d="m231.89,190.82l-5.76,2.05-.65-1.74.46-.25c-.65-.2-1.14-.74-1.27-1.4-.41-1.75.67-3.51,2.43-3.92,1.49-.35,3.03.39,3.69,1.77.29.63.24,1.37-.12,1.96l.46-.25c.04.08.69,1.82.69,1.82l.08-.04Zm-3.47-.7c.71-.18,1.15-.9.97-1.62-.02-.09-.05-.18-.09-.26-.25-.74-1.05-1.15-1.79-.9-.03,0-.05.02-.08.03-.71.18-1.15.9-.97,1.62.02.09.05.18.09.26.26.74,1.07,1.13,1.81.87.01,0,.03,0,.04-.01h.03Z"/><path d="m235.1,199.65l-8.57.39-.11-1.84.59-.02c-.55-.41-.85-1.09-.77-1.77.02-1.7,1.4-3.07,3.1-3.09,1.66-.17,3.14,1.04,3.31,2.7,0,.03,0,.05,0,.08.05.69-.19,1.37-.68,1.87l3.01-.15.11,1.84Zm-5.59-1.64c.81,0,1.47-.64,1.47-1.45,0-.02,0-.04,0-.05,0-.76-.63-1.37-1.39-1.36-.05,0-.1,0-.15,0-.81,0-1.47.64-1.47,1.45,0,.02,0,.04,0,.05,0,.76.63,1.37,1.39,1.36.05,0,.1,0,.15,0h0Z"/></svg>