<?xml version="1.0" encoding="UTF-8"?><svg id="Layer_1" xmlns="http://www.w3.org/2000/svg" viewBox="0 0 400 400"><defs><style>.cls-1{stroke:#a5262d;}.cls-1,.cls-2,.cls-3{stroke-width:4px;}.cls-1,.cls-2,.cls-3,.cls-4{stroke-miterlimit:10;}.cls-1,.cls-2,.cls-3,.cls-4,.cls-5{fill:none;}.cls-6{fill:#68d4f0;}.cls-7{fill:#f3c64b;}.cls-2{stroke:#0018c6;}.cls-3{stroke:#c000e2;}.cls-8{fill:#010100;}.cls-9{fill:#f66c82;}.cls-10{fill:#636c77;}.cls-11{fill:#020202;}.cls-12{fill:#fbcc57;}.cls-13{fill:#c69c6d;}.cls-4{stroke:#231f20;stroke-width:2px;}.cls-14{fill:#e2e9f1;}.cls-15{fill:#c5deea;}.cls-16{fill:#484645;}.cls-17{fill:#396ebc;}.cls-18{fill:#e5ecf3;}.cls-19{fill:#c3dbe6;}.cls-20{fill:#b3b3b3;}.cls-21{fill:#e3eaf2;}.cls-22{fill:#231f20;}.cls-23{fill:#010101;}.cls-24{fill:#69d4f0;}</style></defs><line class="cls-5" x1="153.18" y1="118.35" x2="186.82" y2="145.53"/><line class="cls-4" x1="153.18" y1="118.35" x2="178.45" y2="138.77"/><polygon class="cls-22" points="172.05 143.21 186.82 145.54 181.45 131.58 172.05 143.21"/><line class="cls-5" x1="243.82" y1="118.35" x2="210.18" y2="145.53"/><line class="cls-4" x1="243.82" y1="118.35" x2="218.55" y2="138.77"/><polygon class="cls-22" points="215.55 131.58 210.18 145.53 224.95 143.21 215.55 131.58"/><circle class="cls-1" cx="120.49" cy="64.31" r="45"/><rect class="cls-20" x="94.49" y="54.31" width="52" height="37" rx="2.9" ry="2.9"/><path class="cls-16" d="m121.29,84.61l-1.1-3.4h-8l-1,3.4h-6.5l7.5-23.6h7.6l7.8,23.6h-6.3Zm-7.6-8.6h4.81l-2.4-8-2.41,8Z"/><path class="cls-16" d="m128.99,84.61v-24.69h5.6v24.7h-5.6Z"/><path d="m96.59,43.01l-2.4,3.1,1,1.4-1.6,2.1-6.1-9.3,1.9-2.4,10.5,3.7-1.6,2.1-1.6-.6-.1-.1Zm-2.2-.8l-3.8-1.4,2.3,3.3,1.5-1.9Z"/><path d="m93.29,33.21l1.7-1.4,7,8.4-1.7,1.4-7-8.4Z"/><path d="m105.5,29.41l3.6,6.6-2,1.1-.3-.6c-.11.81-.64,1.49-1.4,1.8-1.33.74-3.01.26-3.75-1.08-.06-.1-.11-.21-.15-.31l-2.2-4,2-1.1,2,3.8c.29.65,1.06.94,1.71.65.03-.01.06-.03.09-.05.67-.32.95-1.12.63-1.79-.04-.07-.08-.15-.13-.21l-2-3.6,2-1.1-.1-.11Z"/><path d="m120.09,28.92l.8,4.5-2.2.4-.8-4.3c-.03-.6-.54-1.05-1.14-1.02-.06,0-.11.01-.16.02-.7.1-1.1.7-.9,1.6l.7,4.2-2.2.4-.8-4.3c-.03-.6-.54-1.05-1.14-1.02-.06,0-.11.01-.16.02-.7.1-1.1.7-.9,1.6l.7,4.2-2.2.4-1.3-7.4,2.2-.4v.7c.41-.67,1.12-1.11,1.9-1.2.76-.23,1.58,0,2.1.6.37-.79,1.13-1.33,2-1.4,1.7-.3,3,.7,3.3,2.6l.2-.2Z"/><path d="m122.39,26.51l2.2.2-.6,7.5-2.2-.2.6-7.5Zm0-2c.08-.75.75-1.29,1.5-1.2.75.08,1.29.75,1.2,1.5s-.75,1.29-1.5,1.2c0,0,0,0,0,0-.72-.05-1.26-.66-1.21-1.38,0-.04,0-.08.01-.12Z"/><path d="m133.39,31.61l-1.2,4.4-2.2-.6,1.1-4.1c.24-.68-.11-1.42-.78-1.66-.04-.01-.08-.03-.12-.04-.69-.26-1.46.08-1.72.76-.04.11-.07.22-.08.34l-1.1,3.9-2.2-.6,2-7.2,2.2.6-.2.7c.67-.47,1.53-.58,2.3-.3,1.49.39,2.38,1.91,2,3.4-.03.1-.06.2-.1.3l.1.1Z"/><path d="m142.99,33.61l-3.8,6.4-1.9-1.2.4-.6c-.77.29-1.63.18-2.3-.3-1.32-.77-1.78-2.46-1.01-3.78.06-.11.13-.22.21-.32l2.4-4,1.9,1.2-2.2,3.7c-.41.5-.34,1.24.16,1.65.07.06.15.11.24.15.63.41,1.48.23,1.89-.4.04-.06.08-.13.11-.2l2.1-3.5,1.9,1.2h-.1Z"/><path d="m150.79,45.92l-3.5,3-1.5-1.7,3.4-2.9c.6-.5.7-1.1.2-1.6-.43-.5-1.18-.55-1.68-.12-.04.04-.08.08-.12.12l-3.2,2.7-1.5-1.7,3.4-2.9c.6-.5.7-1.1.2-1.6-.43-.5-1.18-.55-1.68-.12-.04.04-.08.08-.12.12l-3.19,2.7-1.5-1.7,5.7-4.9,1.5,1.7-.5.4c.76,0,1.49.34,2,.9.54.56.73,1.36.5,2.1.85-.02,1.66.35,2.2,1,1.03,1.19.9,3-.29,4.03-.07.06-.14.11-.21.17l-.11.3Z"/><circle class="cls-1" cx="279.51" cy="64.31" r="45" transform="translate(171.26 329.91) rotate(-80.78)"/><path d="m253.41,48.71l1-3c1.15.63,2.58.43,3.5-.5,1.1-1,1-1.7.7-2.1-.6-.6-1.4-.4-3.4.6s-4.1,1.5-5.9-.5-1.1-4.7.7-6.3c1.58-1.5,3.91-1.9,5.9-1l-1,3c-.95-.52-2.13-.36-2.9.4-.8.7-.8,1.4-.4,1.8s1,.6,3-.4,4.3-1.9,6.2.3c1.8,2,1.2,4.7-1.1,6.7s-4.5,2.1-6.5,1.1l.2-.1Z"/><path d="m258.41,32.81c-.44-.88-.08-1.96.8-2.4.88-.44,1.96-.08,2.4.8.44.88.08,1.96-.8,2.4h0c-.89.39-1.92.04-2.4-.8Zm1.5,2.3l2.7-1.4,4.5,8.9-2.7,1.4-4.5-8.9Z"/><path d="m264.21,28.11l2.9-.9,4.5,13.9-2.9.9-4.5-13.9Z"/><path d="m270.81,28.21c-.16-.99.51-1.93,1.5-2.09.99-.16,1.93.51,2.09,1.5.16.99-.5,1.92-1.49,2.09-.98.17-1.92-.49-2.1-1.47,0,0,0-.02,0-.03Zm.7,2.6l3-.5,1.6,9.9-3,.5-1.6-9.9Z"/><path d="m277.41,34.81c.13-2.85,2.55-5.06,5.41-4.92.1,0,.2.01.29.02,1.86.09,3.52,1.21,4.3,2.9l-2.7,1.3c-.53-1.13-1.88-1.62-3.01-1.09-.74.35-1.24,1.07-1.29,1.89-.16,1.22.7,2.33,1.92,2.48.06,0,.12.01.18.02.8.07,1.58-.31,2-1l2.5,1.7c-1.02,1.56-2.84,2.41-4.7,2.2-2.88-.17-5.08-2.65-4.91-5.53,0-.06,0-.11.01-.17v.2Z"/><path d="m288.31,35.81c1.13-2.68,4.22-3.94,6.9-2.81,2.68,1.13,3.94,4.22,2.81,6.9-1.13,2.68-4.22,3.94-6.9,2.81,0,0,0,0,0,0-2.66-1.09-3.94-4.14-2.84-6.8.01-.03.03-.07.04-.1Zm7,2.9c.53-1.17.02-2.54-1.14-3.08-.02,0-.04-.02-.06-.02-1.11-.5-2.42,0-2.92,1.11-.03.06-.05.13-.08.19-.56,1.1-.11,2.45.99,3.01.07.03.14.06.21.09,1.11.5,2.42,0,2.92-1.11.03-.06.05-.13.08-.19Z"/><path d="m307.81,46.92l-4.2,4.5-2.2-2,3.9-4.2c.69-.6.76-1.65.16-2.34-.05-.06-.1-.11-.16-.16-.72-.71-1.87-.7-2.57.02-.08.09-.16.18-.23.28l-3.7,4-2.2-2,6.8-7.4,2.2,2-.6.7c1.07-.18,2.17.19,2.9,1,1.5,1.4,1.8,3.6,0,5.6h-.1Z"/><rect class="cls-13" x="252.61" y="54.81" width="52" height="37" rx="2.9" ry="2.9"/><path class="cls-16" d="m274.81,85.92c-2.18.11-4.34-.45-6.2-1.6-1.58-1.02-2.78-2.53-3.4-4.3l5.2-3c.69,1.97,2.62,3.24,4.7,3.1,2.3,0,2.8-.5,2.8-1.6s-.5-1.2-1.6-1.7c-.97-.38-1.98-.68-3-.9-1.91-.44-3.66-1.37-5.1-2.7-1.32-1.19-2.02-2.93-1.9-4.7-.03-2.02.81-3.95,2.3-5.3,1.64-1.39,3.75-2.11,5.9-2,1.87-.07,3.71.42,5.3,1.4,1.54.96,2.76,2.35,3.5,4l-5.1,3c-.5-1.61-2.02-2.67-3.7-2.6-1.7,0-1.3.1-1.6.4-.36.25-.59.66-.6,1.1.05.54.34,1.02.8,1.3,1,.59,2.08,1.03,3.2,1.3,1.1.4,2,.7,2.8,1,.8.34,1.56.74,2.3,1.2.78.55,1.43,1.26,1.9,2.1.41.95.61,1.97.6,3,.11,2.1-.83,4.12-2.5,5.4-1.87,1.4-4.17,2.11-6.5,2l-.1.1Z"/><path class="cls-16" d="m291.01,66.21c-.6.63-1.43.99-2.3,1-1.79.03-3.27-1.4-3.31-3.19-.02-.91.35-1.78,1.01-2.41.61-.6,1.44-.92,2.3-.9.85,0,1.68.32,2.3.9.63.6.99,1.43,1,2.3.02.88-.35,1.72-1,2.3Zm-5.1,19.2v-16.9h5.59v16.9h-5.59Z"/><circle class="cls-2" cx="198.5" cy="199.49" r="45"/><path class="cls-17" d="m183.5,205.69v-17.3c-.2-3.5,2.48-6.5,5.98-6.7.24-.01.48-.01.72,0h16.5c3.47-.23,6.47,2.4,6.7,5.87.02.28.02.55,0,.83v34.8c.2,3.5-2.48,6.5-5.98,6.7-.24.01-.48.01-.72,0h-16.5c-3.47.23-6.47-2.4-6.7-5.87-.02-.28-.02-.55,0-.83v-17.5Zm1.5,0v17.5c-.18,2.63,1.8,4.92,4.44,5.1.22.02.44.02.66,0h16.7c2.63.18,4.92-1.8,5.1-4.44.02-.22.02-.44,0-.66v-34.9c.18-2.63-1.8-4.92-4.44-5.1-.22-.02-.44-.02-.66,0h-16.7c-2.63-.18-4.92,1.8-5.1,4.44-.02.22-.02.44,0,.66v17.4h0Z"/><path class="cls-23" d="m185,205.79v-17.5c-.18-2.63,1.8-4.92,4.44-5.1.22-.02.44-.02.66,0h16.7c2.63-.18,4.92,1.8,5.1,4.44.02.22.02.44,0,.66v34.9c.18,2.63-1.8,4.92-4.44,5.1-.22.02-.44.02-.66,0h-16.7c-2.63.18-4.92-1.8-5.1-4.44-.02-.22-.02-.44,0-.66v-17.4Zm1.5,0v17.4c-.19,1.8,1.11,3.41,2.9,3.6.23.02.47.02.7,0h16.5c1.8.19,3.41-1.11,3.6-2.9.02-.23.02-.47,0-.7v-34.8c.19-1.8-1.11-3.41-2.9-3.6-.23-.02-.47-.02-.7,0h-16.5c-2.4,0-3.6,1.3-3.6,3.6v17.4h0Z"/><path class="cls-7" d="m186.6,205.79v-17.4c-.19-1.8,1.11-3.41,2.9-3.6.23-.02.47-.02.7,0h16.5c2.4,0,3.6,1.3,3.6,3.6v34.8c.19,1.8-1.11,3.41-2.9,3.6-.23.02-.47.02-.7,0h-16.5c-1.8.19-3.41-1.11-3.6-2.9-.02-.23-.02-.47,0-.7v-17.4Zm12.6-1.6c.1-.4.5-.6.7-.9.3-.5.7-.5,1.2-.2.7.4,1.4.7,2.1,1.1.72.42,1.62.38,2.3-.1,1.1-.8,2.3-1.6,3.4-2.4.99-.65,1.27-1.99.61-2.98,0,0,0-.01-.01-.02-.65-.96-1.96-1.21-2.92-.56-.03.02-.06.04-.08.06-.71.41-1.37.88-2,1.4-.2.1-.3.3-.6.2-.5-.2-.9-.5-1.5-.7,2.1-.8,2.9-2.1,2.4-3.7-.47-1.42-1.95-2.25-3.4-1.9-.69.18-1.29.61-1.7,1.2-.6.91-.6,2.09,0,3-1-.5-1.9-1-2.7-1.4-.8-.5-1.84-.38-2.5.3-1.2,1-2.4,2.1-3.6,3.1-.94.7-1.13,2.03-.42,2.97,0,.01.02.02.02.03.64.9,1.89,1.11,2.79.47.11-.08.22-.17.31-.27l2.2-1.9c.2-.1.3-.4.8-.2-.7.8-1.4,1.5-2.1,2.2-2.2,2.1-4.3,4.2-6.5,6.3-.86.7-.98,1.96-.29,2.81.09.1.18.2.29.29.84.8,2.16.8,3,0,.5-.5,1.1-1,1.6-1.5,1.1-1.1,2.2-2.1,3.3-3.2.3-.2.5-.3.7,0s0,.4-.2.5c-.4.5-.9.9-1.3,1.4-.78.9-.69,2.26.21,3.05.83.72,2.08.7,2.89-.05,1.2-1.2,2.4-2.5,3.5-3.8.8-.76.84-2.02.08-2.83-.19-.2-.42-.36-.68-.47-.58-.37-1.18-.71-1.8-1h0l-.1-.3Zm-.6,11.8h-6.4c-.6,0-1.1,0-1.1.8s.5.8,1.1.8h12.7c.6,0,1.1,0,1.1-.8s-.5-.8-1.1-.8h-6.3Zm-.2,4.3h6.4c.6,0,1.1,0,1.1-.8s-.5-.8-1.1-.8h-12.7c-.6,0-1.1,0-1.1.8s.5.8,1.1.8h6.3Zm4.2,2.8h2.5c.5,0,.9-.2.9-.8s-.4-.8-.9-.8h-4.9c-.5,0-.9.2-.9.7s.4.8.9.8h2.4v.1Zm-4.1-35.7h-1.5c-.41-.03-.77.27-.8.67,0,.04,0,.08,0,.13,0,.5.3.7.8.7h3c.44,0,.8-.36.8-.8s-.36-.8-.8-.8h-1.5v.1Z"/><path class="cls-11" d="m199.2,204.19c.6.3,1.2.7,1.8,1,1.03.47,1.48,1.69,1,2.72-.1.21-.23.41-.4.58-1.1,1.3-2.3,2.6-3.5,3.8-.73.83-1.99.91-2.82.18-.06-.06-.12-.11-.18-.18-.83-.81-.88-2.13-.1-3,.4-.5.9-.9,1.3-1.4.1-.1.5-.3.2-.5s-.5-.2-.7,0c-1.1,1.1-2.2,2.1-3.3,3.2-.5.5-1.1,1-1.6,1.5-.73.83-1.99.91-2.82.18-.06-.06-.12-.11-.18-.18-.86-.8-.9-2.14-.1-3,.03-.04.07-.07.1-.1,2.2-2.1,4.3-4.2,6.5-6.3.7-.7,1.4-1.5,2.1-2.2-.4-.2-.6,0-.8.2-.7.6-1.4,1.3-2.2,1.9-.91.8-2.3.71-3.1-.2-.72-.92-.56-2.26.37-2.98.01,0,.02-.02.03-.02,1.2-1.1,2.4-2.1,3.6-3.1.68-.64,1.69-.76,2.5-.3.9.5,1.7.9,2.7,1.4-.5-.94-.5-2.06,0-3,.41-.59,1.01-1.02,1.7-1.2,1.46-.37,2.95.47,3.4,1.9.5,1.6-.3,2.9-2.4,3.7.48.27.98.51,1.5.7.3.1.4,0,.6-.2.64-.5,1.31-.97,2-1.4.93-.7,2.24-.51,2.94.42.02.03.04.06.06.08.68.92.48,2.22-.44,2.89-.05.04-.1.07-.16.11-1.1.8-2.3,1.6-3.4,2.4-.68.48-1.58.52-2.3.1-.7-.4-1.4-.7-2.1-1.1-.5-.3-.8-.3-1.2.2-.26.28-.49.58-.7.9l.1.3Zm-2.7,7.3c.26,0,.49-.16.6-.4l3.1-3.4c.5-.6.5-.8-.2-1.3s-1.5-.8-2.3-1.3-.9-.9-.2-1.6c.8-.9,1.7-1.8,2.5-2.7.6-.7.6-.9-.2-1.4-1.2-.6-2.4-1.3-3.5-1.9-.3-.2-.7-.2-1,0-1.1,1-2.3,2-3.5,3-.3.3-.5.6-.2.9s.7.2,1,0l1.8-1.5c1.8-1.5,1.2-1.5,3.4-.3.9.5.9.9.3,1.6-.9.9-1.7,1.8-2.6,2.8-.5.6-.5.8.2,1.2s1.5.8,2.3,1.3.9.9.3,1.6-1.3,1.4-2,2.2c-.21.21-.29.52-.2.8,0,.2.3.3.5.3h0l-.1.1Zm11.8-11.57c0-.5-.6-.7-1.1-.4-.8.6-1.7,1.1-2.5,1.7-.36.35-.94.35-1.3,0l-1.2-.6c-.3-.1-.4,0-.4.2s-.6.5-.2.8c.7.4,1.6.8,2.3,1.2.2.1.4,0,.6-.2,1.1-.7,2.2-1.5,3.2-2.2.2-.2.4-.3.4-.6h0l.2.1Zm-13.8,6.7c-.2-.2-.3-.4-.5-.6s-.3-.3-.6,0c-1.5,1.5-3.1,3-4.6,4.4-.3.3-.4.6-.1.9s.6.2.9,0c1.6-1.6,3.3-3.1,4.8-4.6h0l.1-.1Zm6.3-10.4c.01.71.59,1.29,1.3,1.3.68-.02,1.22-.59,1.2-1.28,0,0,0-.01,0-.02,0-.68-.52-1.25-1.2-1.3-.71.01-1.29.59-1.3,1.3Z"/><path class="cls-8" d="m198.6,215.99h6.3c.6,0,1.1,0,1.1.8s-.5.8-1.1.8h-12.7c-.6,0-1.1,0-1.1-.8s.5-.8,1.1-.8h6.4Z"/><path class="cls-8" d="m198.4,220.29h-6.3c-.6,0-1.1,0-1.1-.8s.5-.8,1.1-.8h12.7c.6,0,1.1,0,1.1.8s-.5.8-1.1.8h-6.4Z"/><path class="cls-23" d="m202.6,223.09h-2.4c-.5,0-.9-.2-.9-.8s.4-.7.9-.7h4.9c.5,0,.9.2.9.8s-.3.8-.9.8h-2.5v-.1Z"/><path class="cls-11" d="m198.5,187.39h1.5c.44,0,.8.36.8.8s-.36.8-.8.8h-3c-.39.05-.74-.23-.79-.61,0-.03,0-.06,0-.09-.03-.41.27-.77.67-.8.04,0,.08,0,.13,0h1.5v-.1Z"/><path class="cls-18" d="m196.5,211.49c-.21,0-.4-.11-.5-.3-.08-.28,0-.59.2-.8.7-.7,1.3-1.4,2-2.2s.6-1.1-.3-1.6-1.5-.8-2.3-1.3-.7-.6-.2-1.2c.8-.9,1.7-1.8,2.6-2.8.7-.7.6-1.1-.3-1.6-2.2-1.1-1.6-1.2-3.4.3l-1.8,1.5c-.3.3-.7.4-1,0s0-.7.2-.9c1.2-1,2.3-2,3.5-3,.4-.3.7-.3,1,0,1.2.6,2.4,1.3,3.5,1.9.8.4.8.7.2,1.4-.8.9-1.7,1.8-2.5,2.7-.6.7-.6,1.1.2,1.6s1.5.8,2.3,1.3.8.7.2,1.3l-3.1,3.4c-.2.2-.4.4-.6.4l.1-.1Z"/><path class="cls-21" d="m208.4,199.92c0,.3-.2.4-.4.6-1.1.7-2.2,1.5-3.2,2.2-.2.1-.4.3-.6.2-.8-.34-1.57-.74-2.3-1.2-.4-.3.1-.5.2-.8s.1-.4.4-.2l1.2.6c.4.25.9.25,1.3,0,.79-.62,1.63-1.19,2.5-1.7.5-.3,1-.2,1.1.4l-.2-.1Z"/><path class="cls-14" d="m194.6,206.59c-1.6,1.5-3.2,3.1-4.8,4.6-.3.3-.6.4-.9,0s-.2-.6.1-.9c1.5-1.5,3.1-2.9,4.6-4.4.3-.3.4-.2.6,0s.3.3.5.6l-.1.1Z"/><path class="cls-18" d="m200.8,196.09c.01-.71.59-1.29,1.3-1.3.68.02,1.22.59,1.2,1.28,0,0,0,.01,0,.02,0,.68-.52,1.25-1.2,1.3-.71-.01-1.29-.59-1.3-1.3Z"/><path d="m161.1,202.19h2.3v-4.5h2.7v4.5h4.4v2.73h-12.1v-7.3h2.7v4.57Z"/><path d="m160,194.69c-.83-.17-1.37-.97-1.2-1.8.17-.83.97-1.37,1.8-1.2s1.37.97,1.2,1.8c0,0,0,0,0,0-.18.82-.98,1.35-1.8,1.2Zm2.3.2l.5-2.5,8.4,1.7-.5,2.5-8.4-1.7Z"/><path d="m167.1,187.49l2.8,1.1c.7.3,1-.3,1.3-1.4l2.2.9c-.9,3.3-2.2,3.8-4.5,2.9l-2.8-1.1-.5,1.3-2.3-.9.5-1.3-1.5-.6.2-2.7,2.2.9.7-1.6,2.3.9-.7,1.7.1-.1Z"/><path d="m174.5,177.39l4.2,3.2-1.5,2.1-3.9-2.9c-.61-.54-1.54-.48-2.07.13-.05.05-.09.11-.13.17-.6.8-.5,1.6.5,2.3l3.8,2.8-1.5,2.1-6.9-5.1,1.5-2.1.7.5c-.18-.91.04-1.86.6-2.6,1-1.4,2.9-1.8,4.8-.5l-.1-.1Z"/><path d="m181.7,175.79c.52-.35.88-.89,1-1.5l2.4-.2c-.02,1.46-.77,2.81-2,3.6-1.87,1.57-4.66,1.33-6.23-.54-.1-.12-.19-.24-.27-.36-1.48-1.98-1.08-4.78.9-6.26.07-.05.13-.1.2-.14,1.88-1.41,4.55-1.03,5.96.85.08.11.16.23.24.35.2.28.37.58.5.9l-5,3.6c.76.44,1.72.36,2.4-.2l-.1-.1Zm-.5-3.5c-.65-.6-1.65-.6-2.3,0-.78.43-1.09,1.4-.7,2.2l3-2.2Z"/><path d="m192.1,170.29c.7,1.9-.7,3.2-2.4,3.9-1.41.66-3.08.38-4.2-.7l1.7-2c.4.51,1.08.72,1.7.5.6-.2.8-.5.7-.8-.3-.9-4.1,1-5.2-1.8-.6-1.8.5-3.2,2.2-3.8,1.28-.51,2.74-.28,3.8.6l-1.7,1.9c-.34-.34-.84-.46-1.3-.3-.4.2-.6.4-.5.7.3.9,4.1-1.1,5.2,1.9v-.1Z"/><path d="m199.5,169.49c.2,2-1.4,3-3.2,3.2-1.51.32-3.05-.32-3.9-1.6l2.1-1.5c.27.61.94.95,1.6.8.6,0,.9-.3.9-.6-.1-.9-4.3,0-4.6-2.9-.2-1.9,1.3-3,3-3.2,1.36-.24,2.74.35,3.5,1.5l-2.1,1.4c-.24-.42-.72-.66-1.2-.6-.36-.02-.66.25-.7.6.1,1,4.2-.2,4.6,3v-.1Z"/><path d="m209.2,167.49l-.8,3c-.2.7.4.9,1.5,1.2l-.6,2.3c-3.4-.5-4.1-1.7-3.4-4.1l.8-3-1.3-.3.6-2.4,1.3.3.4-1.6h2.7c0-.1-.6,2.2-.6,2.2l1.7.4-.6,2.4-1.7-.4Z"/><path d="m218.9,168.59l-1.3,2.6c-.87-.75-2.18-.66-2.93.21-.1.12-.19.25-.27.39l-1.7,3.5-2.3-1.1,3.8-7.7,2.3,1.1-.7,1.4c.82-.82,2.1-.98,3.1-.4Z"/><path d="m227.6,175.79l-5.6,6.5-2-1.7.5-.6c-.96.14-1.93-.2-2.6-.9-1.71-1.63-1.78-4.34-.15-6.05.02-.02.03-.03.05-.05,1.49-1.87,4.22-2.19,6.1-.7.75.62,1.22,1.53,1.3,2.5l.5-.6,2,1.7-.1-.1Zm-4.8,1.6c.75-.86.66-2.16-.19-2.91-.86-.75-2.16-.66-2.91.19-.75.86-.66,2.16.19,2.91,0,0,0,0,0,0,.81.75,2.08.7,2.83-.12.03-.03.05-.06.07-.08Z"/><path d="m226,180.59c2.15-1.33,4.96-.66,6.29,1.48,0,0,0,.01,0,.02.88,1.36.92,3.1.1,4.5l-2.3-1.3c.4-.57.4-1.33,0-1.9-.5-.89-1.64-1.21-2.53-.71-.06.03-.11.07-.17.11-.92.48-1.28,1.62-.8,2.54.03.06.06.11.1.16.34.61,1.01.96,1.7.9v2.6c-2.53,0-4.59-2.06-4.59-4.59,0-1.59.83-3.07,2.19-3.91v.1Z"/><path d="m228,195.39l3-3.6-3.7,1-.7-2.5,11.7-3.1.7,2.5-7,1.9,4.3,1.5.8,2.9-5-1.9-3.3,4.2-.8-2.8v-.1Z"/><path d="m230.7,202.29c-.03.62.18,1.24.6,1.7l-1.2,2c-1.16-.91-1.8-2.33-1.7-3.8,0-2.51,2.04-4.55,4.55-4.55s4.55,2.04,4.55,4.55c-.02,2.4-1.98,4.33-4.37,4.31-.08,0-.15,0-.23,0-.34.02-.67-.01-1-.1v-6.1c-.76.36-1.21,1.17-1.1,2h-.1Zm3.1,1.6c.84-.18,1.43-.94,1.4-1.8.05-.86-.48-1.64-1.3-1.9v3.73l-.1-.03Z"/><path d="m235.1,214.49l-2.8-.8c.5-1,.5-2.6-1.2-3l-3.7-1.1.7-2.5,8.3,2.4-.7,2.5-1.5-.4c.93.69,1.3,1.91.9,3v-.1Z"/><path d="m225.7,219.49c-1.7-.9-1.7-2.9-.8-4.5.6-1.44,2.04-2.36,3.6-2.3v2.6c-.63-.15-1.27.19-1.5.8-.3.5-.3.9,0,1.1.8.5,2.4-3.5,5-2.1,1.7.9,1.7,2.7.9,4.3-.64,1.2-1.85,1.99-3.2,2.1v-2.5c.5.02.97-.26,1.2-.7.2-.4.2-.7,0-.9-.9-.5-2.3,3.6-5.1,2.1h-.1Z"/><line class="cls-5" x1="198.2" y1="251.27" x2="198.7" y2="284.05"/><line class="cls-4" x1="198.2" y1="251.27" x2="198.54" y2="273.29"/><polygon class="cls-22" points="191.02 271.21 198.7 284.05 205.98 270.99 191.02 271.21"/><circle class="cls-3" cx="198.5" cy="335.69" r="45"/><path d="m158,335.89l.6-2.5h7.6c0-.1-6.7-3.7-6.7-3.7l.4-1.9,7.6-.3-6.8-3.4.6-2.5,9.6,5.2-.6,2.7-6.4.3,5.7,3.1-.6,2.7-10.9.5-.1-.2Z"/><path d="m169.6,314.19l6.3,4.1-1.2,1.9-.6-.4c.2.7.1,1.5-.4,2.4-1.1,1.7-3.4,2.1-5.3.9-1.9-1.2-2.5-3.5-1.4-5.2.5-.8,1.2-1.3,2-1.4l-.6-.4,1.2-1.9Zm1.9,3.9c-.9-.6-1.9-.4-2.5.5s-.4,1.9.6,2.5,1.9.4,2.5-.5.4-1.9-.6-2.5Z"/><path d="m175.1,311.79l1.9,1.9c.5.5.9.1,1.6-.6l1.4,1.5c-1.9,2.3-3.1,2.2-4.6.7l-1.9-1.9-.9.8-1.5-1.5.9-.8-1-1,1.1-2.1,1.5,1.5,1.1-1.1,1.5,1.5-1.1,1.1Z"/><path d="m178,311.09c-1.2-1.9-.7-4.2,1.2-5.5,1.2-.8,2.7-.8,3.9-.2l-1,2c-.5-.3-1.1-.3-1.7,0-.8.5-1,1.5-.5,2.4.6.9,1.5,1.1,2.4.5.6-.4.9-.9.8-1.5h2.3c0,1.2-.6,2.5-1.8,3.3-1.9,1.2-4.3.7-5.5-1.2l-.1.2Z"/><path d="m191.9,303.59l1.4,4.4-2.1.7-1.3-4.1c-.3-.9-1-1.1-1.7-.9-.8.3-1.2.9-.8,1.9l1.3,3.9-2.1.7-3.3-10,2.1-.7,1.2,3.5c.2-.7.8-1.2,1.7-1.5,1.4-.5,3,.1,3.6,2.1Z"/><path d="m193.9,302.29l5.7-.4.2,2.2-5.7.4-.2-2.2Z"/><path d="m201,304.99l2.2-.8c.2.9.8,1.6,1.9,1.8,1.1.2,1.5-.2,1.5-.6.1-.6-.4-1-1.9-1.7s-2.8-1.7-2.5-3.7c.3-2,2.2-2.9,4-2.6,1.7.3,2.9,1.3,3.4,3l-2.2.8c-.2-.8-.6-1.3-1.6-1.5-.7-.1-1.2.2-1.2.6,0,.5.1.8,1.6,1.6,1.5.7,3.2,1.6,2.8,3.8-.3,2-2.1,2.9-4.4,2.5-2.2-.4-3.4-1.6-3.7-3.3l.1.1Z"/><path d="m213.4,308.89c.6.3,1.1.3,1.5,0l1.2,1.7c-1.1.6-2.3.6-3.6,0-2.3-1.1-3-3.3-2.1-5.4,1-2,3.2-2.9,5.3-1.9,2,.9,2.7,3.2,1.8,5.2-.1.3-.3.5-.5.8l-4.8-2.3c0,.8.4,1.4,1.2,1.7v.2Zm2.4-1.9c.2-.9-.3-1.5-.9-1.8-.8-.4-1.5-.2-2,.4l2.9,1.4Z"/><path d="m224.9,313.69l-3,3.5-1.7-1.5,2.8-3.3c.6-.7.4-1.4-.1-1.9-.6-.5-1.4-.5-2.1.3l-2.7,3.1-1.7-1.5,4.9-5.7,1.7,1.5-.5.5c.7-.2,1.5,0,2.2.7,1.2,1,1.4,2.6.1,4.2l.1.1Z"/><path d="m227.7,321.29c-1.4,1-2.9.2-3.8-1.1-.9-1.2-1.1-2.5-.4-3.7l2,.9c-.3.5-.4,1,0,1.6.3.4.6.6.9.4.7-.5-1.9-3.2.3-4.7,1.3-1,2.8-.3,3.7.9.7,1,.9,2.2.4,3.3l-2-.9c.2-.4.2-.8,0-1.2-.2-.3-.5-.4-.7-.3-.7.5,1.9,3.2-.3,4.8h-.1Z"/><path d="m229.5,321.29c2.1-.9,4.3.1,5.2,2.2.9,2.1,0,4.3-2.1,5.2-2.1.8-4.3-.1-5.2-2.2-.8-2,0-4.3,2.1-5.2Zm2.2,5.3c1-.4,1.4-1.4,1-2.3-.4-.9-1.3-1.3-2.3-.9-1,.4-1.4,1.4-1,2.3s1.3,1.3,2.3.9Z"/><path d="m237.3,333.89l-2.5.4c0-.9-.6-2.2-2.1-1.9l-3.3.6-.4-2.2,7.4-1.3.4,2.2-1.3.2c1,.1,1.7,1,1.8,2Z"/><path d="m232,341.49c-1.7,0-2.4-1.5-2.4-3.2,0-1.5.6-2.6,1.8-3.2l1.1,2c-.6.2-.9.6-.9,1.3,0,.5.2.8.5.8.8,0,.5-3.7,3-3.6,1.6,0,2.4,1.4,2.4,3,0,1.2-.6,2.3-1.7,2.9l-1-1.9c.4-.2.7-.5.7-1,0-.4-.1-.6-.4-.6-.9,0-.3,3.7-3.1,3.6v-.1Z"/><path class="cls-10" d="m201.7,331.59h4.6c1.8,0,2.9,1.2,2.9,2.9v15.4c0,2.1-1.1,3.2-3.1,3.2h-15.1c-2,0-3.1-1.1-3.1-3.1v-15.1c0-2.1,1.1-3.2,3.1-3.2h10.7v-.1Zm1,6.1v-1.4c0-.4-.4-.6-.8-.6s-.7.3-.8.6v1.1h-1.7v-.9c0-.5-.4-.8-.8-.8s-.8.4-.8.8v.9h-1.7v-.9c0-.5-.3-.8-.8-.8s-.8.3-.8.8v1.2l-.5.5h-1.1c-.6,0-.9.4-.9.8s.4.8.9.8h.8v1.7h-.9c-.4,0-.8.3-.8.8,0,.4.3.8.8.8h.9v1.7h-.8c-.5,0-.8.3-.8.8,0,.4.3.8.8.8h1.2l.5.5v1.3c0,.4.4.7.8.7s.7-.3.8-.7v-1h1.7v.9c0,.4.3.8.8.8.4,0,.8-.3.8-.8v-.9h1.7v.9c0,.5.3.8.8.8s.8-.3.8-.8v-1.2l.5-.5h1.2c.5,0,.9-.4.8-.8,0-.5-.4-.8-.8-.8h-.8v-1.7h.9c.4,0,.8-.3.8-.8,0-.4-.3-.8-.8-.8h-.9v-1.7h.8c.5,0,.9-.4.9-.8s-.3-.8-.9-.8h-1.1l-.5-.5h-.2Z"/><path class="cls-6" d="m175.7,333.79c0,.3-.2.5-.3.7-2.1,2.2-3.2,4.9-3.2,8s1.1,5.5,3.2,7.7c.3.3.5.6.3,1.1s-.9.6-1.4.1c-1.3-1.3-2.3-2.8-2.8-4.5-1.7-5-.8-9.4,2.7-13.3.1-.1.3-.3.4-.4.2-.2.6-.2.8,0,.3.1.4.4.4.7l-.1-.1Z"/><path class="cls-6" d="m207,319.49c-.3,0-.5-.2-.7-.4-2.3-2.1-5-3.2-8.1-3.1-2.9,0-5.4,1.2-7.6,3.2-.5.5-1,.5-1.3,0s-.2-.8.2-1.1c1.4-1.3,2.9-2.3,4.7-2.9,4.9-1.6,9.3-.6,13.2,2.8.2.1.3.3.4.5.3.5-.1,1.1-.7,1.1l-.1-.1Z"/><path class="cls-6" d="m226.4,342.29c0,3.4-1.2,6.3-3.5,8.9l-.2.2c-.4.3-.8.3-1.1,0s-.3-.8,0-1.1c.7-.7,1.3-1.5,1.8-2.4,2.5-4.5,1.8-9.6-1.7-13.4-.3-.3-.5-.7-.2-1.1.3-.5.9-.5,1.3,0,1.5,1.6,2.6,3.5,3.2,5.6.3,1.1.5,2.2.5,3.4l-.1-.1Z"/><path class="cls-6" d="m198.5,370.19c-3.4,0-6.3-1.2-8.8-3.5l-.2-.2c-.4-.4-.4-.8,0-1.2s.8-.3,1.2,0c.7.7,1.5,1.3,2.3,1.8,4.5,2.5,9.6,1.9,13.4-1.7.3-.3.7-.5,1.1-.3.5.3.6.9,0,1.4-1.6,1.5-3.5,2.6-5.6,3.2-1.1.3-2.2.5-3.4.5Z"/><path class="cls-6" d="m198.8,366.39c-2.7,0-4.8-.9-6.6-2.5-.3-.3-.5-.7-.2-1.1.3-.5.9-.5,1.3,0,2.8,2.7,7.2,2.7,10.2.2,0,0,.1-.1.2-.2.4-.4.9-.4,1.2,0,.4.4.3.8,0,1.2-1,1-2.3,1.8-3.6,2.2-.9.3-1.8.4-2.4.4l-.1-.2Z"/><path class="cls-6" d="m198.1,318.19c2.9,0,4.9.9,6.7,2.5.5.5.5.9.2,1.3-.4.4-.8.3-1.3-.1-2.9-2.7-7.4-2.7-10.2,0-.5.5-.9.5-1.3.1s-.3-.8.1-1.2c1.4-1.4,3.7-2.6,5.8-2.5v-.1Z"/><path class="cls-6" d="m174.4,342.29c0-2.3.9-4.5,2.4-6.2.5-.5.9-.6,1.3-.2.4.4.3.8-.2,1.3-2.7,2.9-2.7,7.3,0,10.2.3.3.5.7.3,1.1-.3.5-.9.5-1.3,0-1.3-1.3-2.1-2.9-2.4-4.6-.1-.6-.1-1.1-.1-1.7v.1Z"/><path class="cls-6" d="m222.6,342.39c0,2.4-.8,4.4-2.5,6.2-.5.5-.9.6-1.3.2s-.3-.8.1-1.3c2.7-3,2.7-7.3,0-10.3-.4-.5-.5-.9-.1-1.2.4-.4.8-.3,1.3.1,1.6,1.6,2.5,3.9,2.5,6.3Z"/><path class="cls-9" d="m195.3,353.09h6v2c0,1.1-.9,2-2,2h-2.1c-1.1,0-2-.9-2-2v-2h.1Z"/><path class="cls-9" d="m201.7,331.59h-6v-2c0-1.1.9-2,2-2h2.1c1.1,0,2,.9,2,2v2h-.1Z"/><path class="cls-9" d="m187.8,339.09v6h-2c-1.1,0-2-.9-2-2v-2.1c0-1.1.9-2,2-2h2v.1Z"/><path class="cls-9" d="m209.3,345.49v-6h2c1.1,0,2,.9,2,2v2.1c0,1.1-.9,2-2,2h-2v-.1Z"/><path class="cls-24" d="m218.8,342.29c0,1.4-.5,2.6-1.5,3.6-.4.4-.8.5-1.1.1s-.4-.8,0-1.2c1.4-1.8,1.4-3.3,0-5.1-.3-.4-.3-.8,0-1.2s.7-.3,1.1,0c1,1,1.5,2.2,1.5,3.7v.1Z"/><path class="cls-24" d="m198.5,321.99c1.3,0,2.5.5,3.5,1.4.5.5.6.9.3,1.3-.4.4-.8.4-1.3,0-1.2-1-2.5-1.1-3.9-.7-.4.2-.8.4-1.1.7-.5.4-.9.4-1.2,0s-.3-.8.2-1.2c1-.9,2.2-1.4,3.6-1.4l-.1-.1Z"/><path class="cls-24" d="m198.5,362.59c-1.3,0-2.5-.5-3.5-1.3-.6-.5-.6-.9-.3-1.3s.8-.4,1.3,0c1.3,1.1,2.6,1.2,4.1.5.3-.2.6-.4.9-.6.5-.4.9-.3,1.2,0s.3.7-.1,1.1c-1,1-2.2,1.4-3.6,1.5v.1Z"/><path class="cls-24" d="m178.2,342.29c0-1.3.5-2.5,1.4-3.5.5-.6.9-.6,1.3-.3s.4.8,0,1.3c-1,1.2-1.1,2.5-.6,3.9.2.4.4.7.7,1.1.4.5.4.9,0,1.2-.4.4-.8.3-1.2-.2-1-1-1.4-2.2-1.4-3.6l-.2.1Z"/><path class="cls-12" d="m203.5,343.09v1.7c0,.6,0,1.1-.3,1.6l-.5.5c-.5.2-1.1.3-1.6.3h-5.1c-.6,0-1.1,0-1.6-.3l-.5-.5c-.2-.5-.4-1.1-.3-1.6v-5.1c0-.6,0-1.1.3-1.6l.5-.5c.5-.2,1.1-.4,1.6-.3h5.1c.6,0,1.1,0,1.6.3l.5.5c.2.5.3,1.1.3,1.6v3.4Z"/><path class="cls-19" d="m203.5,339.79c0-.6,0-1.1-.3-1.6h1.1c.6,0,.9.4.9.8s-.4.8-.9.8h-.8Z"/><path class="cls-19" d="m203.2,346.39c.2-.5.3-1.1.3-1.6h.8c.5,0,.8.3.8.8,0,.4-.3.8-.8.8h-1.2.1Z"/><path class="cls-19" d="m194.4,346.99c.5.2,1.1.3,1.6.3v1c0,.4-.4.7-.8.7s-.7-.3-.8-.7v-1.3Z"/><path class="cls-19" d="m201,347.29c.6,0,1.1,0,1.6-.3v1.2c0,.5-.3.8-.8.8s-.7-.3-.8-.8v-.9Z"/><path class="cls-19" d="m196,337.29c-.6,0-1.1,0-1.6.3v-1.2c0-.5.3-.8.8-.8s.7.3.8.8v.9Z"/><path class="cls-19" d="m202.6,337.69c-.5-.2-1.1-.4-1.6-.3v-1.1c0-.4.4-.6.8-.6s.7.2.8.6c.1.5,0,.9,0,1.4Z"/><path class="cls-19" d="m193.9,338.19c-.2.5-.4,1.1-.3,1.6h-.8c-.5,0-.9-.4-.9-.8s.3-.8.9-.8h1.1Z"/><path class="cls-19" d="m193.5,344.79c0,.6,0,1.1.3,1.6h-1.2c-.5,0-.9-.4-.8-.8,0-.5.4-.8.8-.8h.9Z"/><path class="cls-15" d="m199.3,337.29h-1.6v-.9c0-.4.3-.8.8-.8.4,0,.8.3.8.8v.9Z"/><path class="cls-15" d="m193.5,341.49v1.6h-.9c-.5,0-.8-.4-.8-.8s.4-.8.8-.8h.9Z"/><path class="cls-15" d="m203.5,343.09v-1.6h.9c.5,0,.8.4.8.8s-.4.8-.8.8h-.9Z"/><path class="cls-15" d="m197.7,347.29h1.6v.9c0,.5-.4.8-.8.8s-.8-.4-.8-.8v-.9Z"/></svg>