<?xml version="1.0" encoding="UTF-8"?><svg id="Layer_1" xmlns="http://www.w3.org/2000/svg" xmlns:xlink="http://www.w3.org/1999/xlink" viewBox="0 0 400 400"><defs><style>.cls-1{fill:#375e7d;}.cls-2{fill:#a7cefe;}.cls-3{stroke:#a5262d;}.cls-3,.cls-4,.cls-5,.cls-6{stroke-width:4px;}.cls-3,.cls-4,.cls-5,.cls-6,.cls-7{stroke-miterlimit:10;}.cls-3,.cls-4,.cls-5,.cls-6,.cls-7,.cls-8{fill:none;}.cls-9{fill:#7da1b1;}.cls-10{fill:#8fbac5;}.cls-11{fill:url(#linear-gradient-2);}.cls-12{fill:#fff;}.cls-4{stroke:#0018c6;}.cls-13{fill:#d1d1d1;}.cls-14{fill:#d2d5d7;}.cls-15{fill:#2b4d66;}.cls-16{fill:#445367;}.cls-17{fill:#8ac5cd;}.cls-18{fill:#fdc00f;}.cls-5{stroke:#c000e2;}.cls-19{fill:#f1f6f6;}.cls-20{fill:#455368;}.cls-21{fill:#2b4e68;}.cls-22{fill:#d0cde6;}.cls-23{fill:#02f1a6;}.cls-24{fill:#2b506b;}.cls-6{stroke:#00b51e;}.cls-25{fill:#717f8f;}.cls-26{fill:#333;}.cls-27{fill:#e5e4ec;}.cls-7{stroke:#231f20;stroke-width:2px;}.cls-28{fill:#3b566a;}.cls-29{fill:#22a5fc;}.cls-30{fill:#b2d3d9;}.cls-31{fill:#fde077;}.cls-32{fill:#fee077;}.cls-33{fill:#ddebf0;}.cls-34{fill:#199dbc;}.cls-35{fill:#16c5d5;}.cls-36{fill:#395f7e;}.cls-37{fill:#fed05b;}.cls-38{fill:#d1d5d6;}.cls-39{fill:#b3d4da;}.cls-40{fill:#728090;}.cls-41{fill:#fec345;}.cls-42{fill:#637889;}.cls-43{fill:#073856;}.cls-44{fill:#0693fb;}.cls-45{fill:#b6d6fd;}.cls-46{fill:#fee078;}.cls-47{fill:#cee5ec;}.cls-48{fill:#88c4cc;}.cls-49{fill:#445368;}.cls-50{fill:#f8f6f7;}.cls-51{fill:#2f4859;}.cls-52{fill:#d0cde7;}.cls-53{fill:#fdd15b;}.cls-54{fill:url(#linear-gradient);}.cls-55{fill:#304959;}.cls-56{fill:#6ab579;}.cls-57{fill:#3f4a5b;}.cls-58{fill:#dcd9ea;}.cls-59{fill:#231f20;}.cls-60{fill:#2c4d66;}</style><linearGradient id="linear-gradient" x1="-401.6" y1="303.22" x2="-400.1" y2="291.62" gradientTransform="translate(426.39 -72.99) rotate(-27.33)" gradientUnits="userSpaceOnUse"><stop offset="0" stop-color="#d53f26"/><stop offset="1" stop-color="#a4252c"/></linearGradient><linearGradient id="linear-gradient-2" x1="-676.68" y1="161.44" x2="-675.18" y2="149.84" gradientTransform="translate(-333.33 -75.22) rotate(-152.4) scale(1 -1)" xlink:href="#linear-gradient"/></defs><path d="m48.68,68.77c-.66.28-1.42-.04-1.7-.7s.04-1.42.7-1.7c.66-.28,1.42.04,1.7.7h0c.28.65-.01,1.4-.66,1.68-.01,0-.02.01-.04.02Zm1.6-.9l-.8-1.9,6.4-2.7.8,1.9-6.4,2.7Z"/><path d="m52.28,57.37c1.6-.4,2.6.8,2.9,2.3.36,1.18.01,2.47-.9,3.3l-1.4-1.5c.49-.23.71-.8.5-1.3-.1-.5-.3-.7-.6-.6-.8.2.4,3.4-1.9,4-1.5.3-2.5-.7-2.9-2.2-.31-1.07,0-2.23.8-3l1.3,1.5c-.33.26-.49.69-.4,1.1-.02.26.18.48.44.5.02,0,.04,0,.06,0,.8-.2-.5-3.4,2-4l.1-.1Z"/><path d="m44.98,45.67l.5-2,9.9,2.5-.5,2-9.9-2.5Z"/><circle class="cls-6" cx="199.96" cy="343.93" r="45"/><path d="m177.46,318.23c2.25,1.86,2.58,5.19.72,7.45-.1.12-.21.24-.32.35-2.13,2.48-5.86,2.77-8.35.65-.02-.02-.04-.03-.05-.05-2.4-2.17-2.59-5.87-.42-8.28,0,0,.01-.02.02-.02,1.29-1.49,3.25-2.21,5.2-1.9l-.5,2.5c-1.06-.16-2.13.26-2.8,1.1-1.22,1.24-1.21,3.25.04,4.47.08.08.17.16.26.23,1.4,1.3,3.3,1.2,4.8-.4.95-.83,1.19-2.19.6-3.3l-2,2.2-1.7-1.45,3.8-4.2.7.6v.05Z"/><path d="m187.66,314.13c1.13,1.9.52,4.35-1.38,5.49,0,0-.02,0-.02.01-.78.49-1.73.6-2.6.3l1.9,3.5-2.1,1.1-5.3-9.9,2.1-1.1.4.7c.22-.87.8-1.59,1.6-2,2.02-.95,4.42-.11,5.4,1.9Zm-2.1,1.1c-.41-.91-1.48-1.32-2.39-.91-.07.03-.14.07-.21.11-.92.45-1.31,1.56-.86,2.49.02.04.04.08.06.11.41.91,1.48,1.32,2.39.91.07-.03.14-.07.21-.11.92-.45,1.31-1.56.86-2.49-.02-.04-.04-.08-.06-.11h0Z"/><path d="m196.66,311.13l1,4.8-2.3.5-.9-4.5c-.05-.7-.66-1.22-1.36-1.17-.12,0-.23.03-.34.07-.75.08-1.29.75-1.21,1.5.01.14.05.27.11.4l.9,4.3-2.4.5-2.3-11,2.3-.5.8,3.9c.39-.77,1.14-1.3,2-1.4,1.62-.34,3.21.7,3.55,2.32.02.09.03.19.05.28h.1Z"/><path d="m198.46,311.93c.17-2.35,2.2-4.12,4.55-3.95s4.12,2.2,3.95,4.55-2.2,4.12-4.55,3.95-4.12-2.2-3.95-4.55Zm6.1.5c.1-1-.63-1.89-1.63-1.99-.02,0-.05,0-.07,0-1.02-.07-1.9.68-2,1.7-.1,1,.63,1.89,1.63,1.99.02,0,.05,0,.07,0,1.02.07,1.9-.68,2-1.7Z"/><path d="m216.16,314.93l-1.7,4.6-2.2-.9,1.6-4.3c.35-.63.12-1.43-.51-1.78-.09-.05-.19-.09-.29-.12-.76-.31-1.63.06-1.94.82-.02.06-.04.12-.06.18l-1.6,4.1-2.2-.9,2.8-7.5,2.2.9-.3.7c.77-.46,1.73-.46,2.5,0,1.5.6,2.4,2.1,1.6,4.2h.1Z"/><path d="m219.56,320.83c.45.36,1.03.5,1.6.4l.9,2c-2.4.59-4.82-.88-5.41-3.27-.3-1.21-.08-2.49.61-3.53,1.3-1.84,3.84-2.27,5.67-.97.08.05.15.11.23.17,1.78,1.31,2.17,3.81.86,5.59-.05.07-.11.14-.16.21-.18.28-.42.52-.7.7l-4.5-3.4c-.21.8.16,1.63.9,2v.1Zm2.9-1.5c.36-.72.1-1.6-.6-2-.63-.55-1.57-.55-2.2,0l2.8,2.1v-.1Z"/><path d="m236.06,325.83l-9.4,6-1.4-2.2,7.2-4.6-1.5-1.4,1.5-1.7,2.5,1.9,1.2,1.9-.1.1Z"/><path class="cls-35" d="m209.96,322.03c-6.59-1.4-13.41-1.4-20,0-2.25.41-3.99,2.23-4.3,4.5-2.5,19.9-1.6,30.9,1.8,51,.5,2.7,2.3,5.2,4,5.5,5.65,1.1,11.45,1.1,17.1,0,1.7-.3,3.5-2.9,4-5.5,3.4-20.1,4.3-31.1,1.8-51-.31-2.27-2.05-4.09-4.3-4.5h-.1Z"/><path class="cls-43" d="m192.56,349.93c4.82,1.47,9.98,1.47,14.8,0,1-.3,1-.7-.1-.7h-14.6c-1.1,0-1.2.4-.1.7Z"/><path class="cls-18" d="m207.76,329.53h-15.5c-1.68.14-2.94,1.62-2.8,3.3,0,0,0,0,0,0v10.6c-.1,1.67,1.13,3.13,2.8,3.3h15.5c1.68-.14,2.94-1.62,2.8-3.3,0,0,0,0,0,0v-10.6c.1-1.67-1.13-3.13-2.8-3.3Z"/><path class="cls-12" d="m195.16,357.33c0,.6-.4,1.1-1,1-1.3-.2-2.6-.5-3.8-.8-.61-.19-1.02-.76-1-1.4,0-1.2,0-2.5-.1-3.7-.05-.46.28-.86.74-.91.09,0,.18,0,.26.01,1.3.3,2.6.6,3.9.8.6,0,1,.7,1,1.3v3.7Z"/><path class="cls-12" d="m202.96,357.53c0,.59-.42,1.1-1,1.2h-3.9c-.6-.06-1.05-.6-1-1.2v-3.7c0-.57.43-1.05,1-1.1h3.9c.55,0,1,.44,1.01.99,0,.04,0,.07,0,.11v3.7Z"/><path class="cls-12" d="m210.66,356.13c-.02.63-.41,1.18-1,1.4-1.3.3-2.6.6-3.8.8-.52.03-.97-.36-1-.88,0-.04,0-.08,0-.12v-3.7c.02-.6.42-1.13,1-1.3,1.3-.2,2.6-.5,3.9-.8.6-.1,1,.2,1,.9,0,1.2,0,2.5-.1,3.7Z"/><path class="cls-12" d="m195.26,364.83c0,.6-.4,1.1-1,1-1.29-.17-2.56-.44-3.8-.8-.59-.22-.98-.77-1-1.4,0-1.2,0-2.5-.1-3.7-.05-.46.28-.86.74-.91.09,0,.18,0,.26.01,1.3.3,2.5.6,3.8.8.6,0,1,.7,1,1.3v3.7h.1Z"/><path class="cls-12" d="m202.86,365.03c0,.59-.42,1.1-1,1.2h-3.8c-.6-.06-1.05-.6-1-1.2v-3.7c-.06-.55.35-1.04.89-1.1.03,0,.07,0,.11,0h3.9c.55,0,1,.44,1.01.99,0,.04,0,.07,0,.11v3.7h-.1Z"/><path class="cls-12" d="m210.46,363.78c-.02.63-.41,1.18-1,1.4-1.2.3-2.5.6-3.8.8-.55,0-1-.45-1-1v-3.7c.02-.6.42-1.13,1-1.3,1.29-.16,2.56-.43,3.8-.8.45-.1.89.19.99.64.02.09.02.18.01.26,0,1.2,0,2.5-.1,3.7h.1Z"/><path class="cls-12" d="m195.36,372.43c0,.6-.4,1.1-1,1-1.2-.2-2.5-.4-3.7-.7-.59-.22-.98-.77-1-1.4,0-1.2,0-2.5-.1-3.7,0-.6.4-1,.9-.9,1.2.3,2.5.6,3.7.8.5,0,1,.7,1,1.3v3.7l.2-.1Z"/><path class="cls-12" d="m202.86,372.53c.05.6-.4,1.14-1,1.2h-3.7c-.58-.1-1.01-.61-1-1.2v-3.7c-.06-.55.35-1.04.89-1.1.03,0,.07,0,.11,0h3.8c.57.05,1,.53,1,1.1v3.7h-.1Z"/><path class="cls-12" d="m210.26,371.23c-.02.63-.41,1.18-1,1.4-1.21.34-2.45.57-3.7.7-.55,0-1-.45-1-1v-3.7c.02-.6.42-1.13,1-1.3,1.25-.16,2.49-.43,3.7-.8.41-.09.81.18.9.59.02.1.02.21,0,.31,0,1.2,0,2.5-.1,3.7l.2.1Z"/><path class="cls-12" d="m202.76,380.13c.05.6-.4,1.14-1,1.2h-3.6c-.58-.1-1.01-.61-1-1.2v-3.7c-.06-.55.35-1.04.89-1.1.03,0,.07,0,.11,0h3.7c.57.05,1,.53,1,1.1v3.7h-.1Z"/><path class="cls-43" d="m198.86,327.78c.02.25-.15.47-.4.5h0c-.25-.03-.42-.25-.4-.5v-4c-.02-.25.15-.47.4-.5h0c.25.03.42.25.4.5v4Z"/><path class="cls-43" d="m200.46,327.78c.02.25-.15.47-.4.5h0c-.25-.03-.42-.25-.4-.5v-4c-.02-.25.15-.47.4-.5h0c.25.03.42.25.4.5v4Z"/><path class="cls-43" d="m202.06,327.78c.02.25-.15.47-.4.5h0c-.25-.03-.42-.25-.4-.5v-4c-.02-.25.15-.47.4-.5h0c.25.03.42.25.4.5v4Z"/><path class="cls-12" d="m202.86,343.33h-.6c-.4,0-.9-.2-1.3-.2-.51-.05-1.01-.15-1.5-.3-.61-.09-1.21-.22-1.8-.4h-.3c-.2,0-.3-.3-.2-.5.07-.29.21-.57.4-.8.2-.5.4-.9.6-1.4.2-.3.3-.6.5-.9.28-.43.87-.56,1.3-.27.07.05.14.11.2.17.17.18.3.38.4.6.3.5.6.9.9,1.4.5.8,1,1.5,1.4,2.3,0,.08.04.15.1.2,0,.2,0,.4-.3.4l.2-.3Z"/><path class="cls-54" d="m210.66,378.83c-.21.02-.42.09-.6.2-.5.1-.9.3-1.4.4s-1.1.3-1.7.5-1.3.4-2,.6h-.3c-.3,0-.4-.1-.4-.4v-3.9c.11-.63.7-1.05,1.32-.94.06,0,.12.02.18.04.26.04.5.14.7.3.5.3,1.1.6,1.6.9.9.5,1.7,1,2.6,1.5.11,0,.2.09.2.2.2.2.2.4,0,.5l-.2.1Z"/><path class="cls-11" d="m189.26,378.83c.21.02.42.09.6.2.5.1.9.3,1.4.4s1.1.3,1.7.5,1.3.4,2,.6h.3c.3,0,.4-.1.4-.4v-3.9c-.11-.63-.7-1.05-1.32-.94-.06,0-.12.02-.18.04-.26.04-.5.14-.7.3-.5.3-1.1.6-1.6.9-.9.5-1.7,1-2.6,1.5-.11,0-.2.09-.2.2-.2.2-.2.4,0,.5l.2.1Z"/><path class="cls-12" d="m203.96,332.53h.2c.2,0,.3.1.2.3s-.2.2-.2.4c-.5.7-1.1,1.4-1.6,2.1l-1.5,1.8c-.25.27-.56.47-.9.6-.42.12-.88,0-1.2-.3-.2-.17-.36-.38-.5-.6-.5-.7-1-1.5-1.4-2.2-.2-.3-.4-.7-.6-1h0c-.1-.3,0-.4.2-.4,1,0,2-.1,3-.2.9-.02,1.8-.08,2.7-.2.63.02,1.27-.02,1.9-.1h0l-.3-.2Z"/><line class="cls-12" x1="282.34" y1="199.38" x2="249.57" y2="198.88"/><line class="cls-7" x1="282.34" y1="199.38" x2="260.33" y2="199.05"/><polygon class="cls-59" points="262.63 191.6 249.57 198.88 262.4 206.56 262.63 191.6"/><line class="cls-12" x1="115.57" y1="200.38" x2="148.34" y2="199.88"/><line class="cls-7" x1="115.57" y1="200.38" x2="137.58" y2="200.05"/><polygon class="cls-59" points="135.51 207.56 148.34 199.88 135.28 192.6 135.51 207.56"/><line class="cls-8" x1="199.24" y1="252.75" x2="199.74" y2="285.52"/><line class="cls-7" x1="199.24" y1="252.75" x2="199.58" y2="274.76"/><polygon class="cls-59" points="192.06 272.69 199.74 285.52 207.02 272.46 192.06 272.69"/><line class="cls-8" x1="198.29" y1="109.06" x2="198.79" y2="141.84"/><line class="cls-7" x1="198.29" y1="109.06" x2="198.63" y2="131.08"/><polygon class="cls-59" points="191.12 129 198.79 141.84 206.07 128.77 191.12 129"/><line class="cls-8" x1="110.72" y1="104.8" x2="159.37" y2="144.1"/><line class="cls-7" x1="110.72" y1="104.8" x2="150.99" y2="137.34"/><polygon class="cls-59" points="144.59 141.78 159.37 144.1 153.99 130.15 144.59 141.78"/><line class="cls-8" x1="286.37" y1="104.8" x2="237.72" y2="144.1"/><line class="cls-7" x1="286.37" y1="104.8" x2="246.09" y2="137.34"/><polygon class="cls-59" points="243.09 130.15 237.72 144.1 252.5 141.78 243.09 130.15"/><circle class="cls-3" cx="65.19" cy="199.21" r="45"/><path class="cls-60" d="m91.19,219.51c-.25.93-.66,1.81-1.2,2.6-1.09,1.51-2.84,2.4-4.7,2.4h-5.4c-.9,0-1-.2-1-1.1v-1.7c1.93.07,3.87.03,5.8-.1,1.02-.03,1.97-.51,2.6-1.3.83-1.28,1.25-2.78,1.2-4.3h2.8v3.5h-.1Z"/><path class="cls-22" d="m91.19,216.01h-2.66v-15.3h2.7v15.3h-.04Z"/><path class="cls-60" d="m91.19,200.61h-2.66v-2.7c-.04-1.8-.93-3.46-2.4-4.5-.78-.5-1.62-.9-2.5-1.2,1.78-.25,3.58.14,5.1,1.1,1.26.91,2.12,2.27,2.4,3.8l.1.1-.04,3.4Z"/><path class="cls-27" d="m41.29,210.81h-4.7c-1.13.11-2.22-.43-2.8-1.4-.05-.05-.12-.09-.2-.1v-1.6h.1c.52.8,1.45,1.23,2.4,1.1h5.1c.14.28.14.62,0,.9-.1.3-.2.5,0,.8v.3h.1Z"/><path class="cls-29" d="m53.69,193.81c.67-.05,1.33-.05,2,0h19.6v23.6c.04.66-.31,1.29-.9,1.6,0-.9-.3-1.2-1.2-1.2h-14.2c-.8,0-1.1.4-1,1.2h-4.4v-25.1l.1-.1Zm12.6,13.7h-6.9c-.9,0-1.4.3-1.3.9s.5.9,1.3.9h14.4c.4,0,.7-.5.7-.9h0c-.02-.4-.31-.73-.7-.8h-7.4l-.1-.1Zm0-8.5h7.1c.7,0,1-.3,1-.8s-.3-.9-1.1-.9h-14.2c-.3,0-.7,0-.9.3-.23.24-.28.61-.1.9.12.38.52.59.9.5h7.3Zm0,5.1h7.24c.35.03.69-.12.9-.4.14-.28.14-.62,0-.9-.2-.3-.6-.3-1-.3h-14.64c-.42.14-.68.56-.6,1h0c.14.43.55.72,1,.7h7.1v-.1Zm0,10.2h7.1c.24.02.48-.02.7-.1.32-.23.47-.62.4-1-.09-.41-.49-.67-.9-.6h-14.4c-.4-.05-.8.15-1,.5-.3.7.2,1.2.9,1.2h7.2Z"/><path class="cls-1" d="m83.53,192.22c.89.28,1.73.68,2.5,1.2,1.41,1.08,2.29,2.72,2.4,4.5v2.7h-1.9c-.61,0-1.11.49-1.12,1.1,0,.07,0,.13.02.2h0v12.8c-.08.64.37,1.21,1.01,1.29.03,0,.06,0,.09,0h1.8c.05,1.52-.37,3.02-1.2,4.3-.65.77-1.59,1.25-2.6,1.3-1.93.13-3.87.17-5.8.1v-28.1c0-1.7.3-1.5,1.6-1.5h3.1l.1.1Z"/><path class="cls-44" d="m78.79,193.61v29.4h-20.4c-.2-.1-.4,0-.6,0h-3.5c-.2,0-.4,0-.5-.2v-3.8h4.3c.2.41.64.65,1.1.6h14.1c.47.01.92-.21,1.2-.6.62-.28.99-.93.9-1.6v-23.6c1.1-.1,2.3,0,3.5,0l-.1-.2Z"/><path class="cls-1" d="m53.69,193.81v25.2h-1.16c-2.17-.4-4.08-1.66-5.3-3.5-.59-.99-1-2.07-1.2-3.2v-9.8c-.1-.94,0-1.9.3-2.8.79-3.48,3.93-5.91,7.5-5.8l-.14-.1Z"/><path class="cls-36" d="m55.69,186.11h-.8c-.6,0-1.1-.3-1.1-.9v-2.4c0-1,.3-1.3,1.3-1.3h11c.51.49.7,1.22.5,1.9v.9c.16.67-.07,1.36-.6,1.8h-10.3Z"/><path class="cls-52" d="m55.69,186.11h12.1v7.6h-2.9v-3c0-.2,0-.4-.2-.5v-.4c.4-.7.2-1-.6-1h-8.4v-2.7Z"/><path class="cls-58" d="m64.69,190.11c.2.1.2.3.2.5v3h-9.2v-5h8.5c.8,0,.9.3.6,1-.3-.7-.7-.8-1.2-.6-.41.2-.59.69-.4,1.1.12.24.34.42.6.5.47.12.95-.14,1.1-.6l-.2.1Zm-5.1-1.1c-.44.04-.81.36-.9.8,0,.5.4.9.9.9.5,0,.9-.4.9-.9,0-.5-.4-.9-.9-.9h0v.1Z"/><path class="cls-58" d="m45.89,202.41v9.2h-2.2c-.74,0-1.43-.33-1.9-.9,0-.16-.14-.29-.3-.3-.2-.3,0-.5,0-.8.05-.3.05-.6,0-.9v-4.7c.09-.98.92-1.72,1.9-1.7h2.6l-.1.1Z"/><path class="cls-50" d="m41.29,205.91v2.9h-5.1c-.96.09-1.9-.37-2.4-1.2.41-1.11,1.52-1.81,2.7-1.7h4.8Z"/><path class="cls-60" d="m67.79,186.11h-1.8c.47-.47.7-1.14.6-1.8v-.9c.15-.69-.08-1.42-.6-1.9h2.7c.55-.06,1.04.35,1.09.89,0,.03,0,.07,0,.11v2.4c0,.9-.4,1.3-1.3,1.3h-.7v-.1Z"/><path class="cls-58" d="m73.29,229.91h1.5c.59.62.86,1.47.74,2.31v.9c-.02.42-.2.81-.5,1.1,0,0-.3.1-.3.3-8.5-.2-17,0-25.5,0s-1.7-.6-1.6-1.6v-1.7c-.03-.68.49-1.27,1.18-1.3,0,0,.01,0,.02,0h24.5-.04Z"/><path class="cls-60" d="m45.89,212.22c.2,1.13.61,2.21,1.2,3.2,1.22,1.84,3.13,3.1,5.3,3.5h1.2v4.1c-3.66-.03-6.83-2.54-7.7-6.1-.12-.86-.18-1.73-.2-2.6v-2.1h.2Z"/><path class="cls-21" d="m53.69,223.01v-.3c.1.3.4.2.6.2h4.1v6.9h-2.1v-4.1c0-.6-.1-.8-.8-.8h-1.7v-2l-.1.1Z"/><path class="cls-15" d="m73.29,229.91h-2v-4.3c.04-.35-.21-.66-.55-.7-.05,0-.1,0-.15,0h-1.9v-2c.77-.05,1.53-.05,2.3,0h2.3v7Z"/><path class="cls-22" d="m74.69,234.61c0-.2.2-.2.3-.3.32-.28.51-.67.54-1.09v-.9c.23-.84-.05-1.73-.7-2.3h3.2c.77-.04,1.43.53,1.5,1.3v1.8c.1.79-.42,1.53-1.2,1.7h-3.6l-.04-.21Z"/><path class="cls-22" d="m45.89,212.22v2.1h-2.5c-1.11.02-2.06-.8-2.2-1.9v-1.5c.1,0,0-.2.1-.3s.2.2.3.3c.45.59,1.16.92,1.9.9h2.2v.5l.2-.1Z"/><path class="cls-1" d="m53.79,224.91h1.74c.6,0,.8.2.8.8-.1,1.4-.1,2.8,0,4.2h-2.4v-5h-.14Z"/><path class="cls-58" d="m88.39,216.01h-1.6c-.64.08-1.21-.37-1.29-1.01,0-.03,0-.06,0-.09v-13c-.08-.64.37-1.21,1.01-1.29.03,0,.06,0,.09,0h1.94v15.3h0l-.14.1Z"/><path class="cls-24" d="m74.53,218.91c-.23.38-.65.61-1.1.6h-14.14c-.45.03-.88-.2-1.1-.6,0-.8.2-1.2,1-1.2h14.1c.9,0,1.24.3,1.24,1.2Z"/><path class="cls-24" d="m66.29,207.41h7.4c.4,0,.7.4.8.8.03.43-.27.82-.7.9h-14.4c-.8,0-1.3-.3-1.3-.9s.4-.9,1.3-.9h6.9v.1Z"/><path class="cls-15" d="m66.29,198.91h-7.2c-.37.03-.73-.17-.9-.5-.07-.3-.03-.62.1-.9.2-.28.57-.4.9-.3h14.2c.7,0,1.1.3,1.1.9s-.3.8-1,.8h-7.2Z"/><path class="cls-15" d="m66.29,204.11h-7.1c-.45.02-.86-.27-1-.7-.12-.43.13-.87.55-.99.02,0,.03,0,.05-.01h14.6c.36-.06.73.05,1,.3.2.27.2.63,0,.9-.19.31-.53.5-.9.5h-7.2Z"/><path class="cls-15" d="m66.29,214.31h-7.2c-.8,0-1.2-.6-.9-1.2.17-.38.59-.59,1-.5h14.4c.43-.04.83.21,1,.6.13.39-.04.81-.4,1-.22.08-.46.12-.7.1h-7.2Z"/><path class="cls-24" d="m64.69,190.11c-.12.46-.59.73-1.05.61-.02,0-.03,0-.05-.01-.43-.09-.71-.52-.61-.95,0-.02,0-.03.01-.05,0-.29.21-.54.5-.6.5-.2.9,0,1.2.6v.4Z"/><path class="cls-24" d="m59.59,189.01c.5,0,.9.4.9.9,0,.5-.4.9-.9.9h0c-.5,0-.9-.4-.9-.9,0-.45.38-.81.84-.8.02,0,.04,0,.06,0v-.1Z"/><path class="cls-36" d="m68.79,229.91v-4.9h1.9c.5,0,.7.2.7.7v4.3h-2.6v-.1Z"/><path d="m24.79,197.41l.4-2.4,7.5-1-6.8-3.3.4-2.4,9.2,4.8-.5,2.8-10.2,1.6v-.1Z"/><path d="m27.89,187.11c-.63-.25-.94-.96-.69-1.6.25-.63.96-.94,1.6-.69.63.25.94.96.69,1.59-.24.63-.94.95-1.57.71,0,0-.02,0-.03-.01Zm1.8.5l.7-2,6.6,2.4-.7,2-6.6-2.4Z"/><path d="m38.19,178.61c1.7.89,2.35,2.99,1.46,4.68-.02.04-.04.08-.06.12-.37.69-1.03,1.17-1.8,1.3l.6.3-1.1,1.8-8.4-5.1,1.1-1.8,3,1.8c-.19-.74-.08-1.53.3-2.2,1.08-1.62,3.27-2.06,4.9-1v.1Zm-1.1,1.8c-.74-.5-1.75-.31-2.25.42-.02.02-.03.05-.05.08-.49.72-.3,1.7.42,2.19.06.04.12.07.18.11.74.5,1.75.31,2.25-.42.02-.02.03-.05.05-.08.49-.72.3-1.7-.42-2.19-.06-.04-.12-.07-.18-.11Z"/><path d="m39.53,172.11l1.7,1.6c-.78.46-1.04,1.46-.58,2.25.08.13.17.25.28.35l2.3,2.2-1.4,1.5-5.1-4.8,1.4-1.5.9.9c-.43-.83-.26-1.84.4-2.5h.1Z"/><path d="m46.69,166.81l4,5.7-1.7,1.2-.4-.5c-.04.8-.49,1.52-1.2,1.9-1.63,1.05-3.81.59-4.87-1.05-.01-.02-.02-.04-.03-.05-1.19-1.49-.95-3.66.54-4.85.02-.02.04-.03.06-.05.62-.48,1.43-.67,2.2-.5l-.4-.5,1.7-1.2.1-.1Zm.3,4.1c-.39-.72-1.3-.99-2.02-.6-.1.05-.19.12-.28.2-.76.5-.98,1.52-.48,2.28.03.04.05.08.08.12.39.72,1.3.99,2.02.6.1-.05.19-.12.28-.2.76-.5.98-1.52.48-2.28-.03-.04-.05-.08-.08-.12Z"/><path d="m52.19,166.61l1,2.3c.2.6.7.4,1.6,0l.7,1.8c-2.4,1.3-3.5.9-4.2-.9l-1-2.3-1,.4-.8-1.9,1-.4-.5-1.2,1.7-1.4.8,1.8,1.3-.6.8,1.9-1.3.6-.1-.1Z"/><path d="m53.79,161.91c-.17-.66.23-1.34.9-1.51.66-.17,1.34.23,1.51.9.17.66-.23,1.34-.9,1.51,0,0,0,0,0,0-.6.2-1.25-.12-1.46-.72-.02-.06-.03-.12-.04-.18Zm.7,1.8l2-.5,1.8,6.8-2,.5-1.8-6.8Z"/><path d="m58.79,166.01c-.17-2.04,1.35-3.83,3.4-4,0,0,0,0,0,0,2-.2,3.79,1.25,3.99,3.25,0,.05,0,.1.01.15.17,2.04-1.35,3.83-3.4,4,0,0,0,0,0,0-2,.2-3.79-1.25-3.99-3.25,0-.05,0-.1-.01-.15Zm5.3-.4c.03-.81-.61-1.49-1.42-1.52-.09,0-.19,0-.28.02-.86.02-1.54.74-1.52,1.6,0,.07,0,.13.02.2-.03.81.61,1.49,1.42,1.52.09,0,.19,0,.28-.02.86-.02,1.54-.74,1.52-1.6,0-.07,0-.13-.02-.2Z"/><path d="m74.53,165.91l-.7,4.2-2.1-.4.7-3.9c.16-.65-.24-1.32-.89-1.48-.04,0-.07-.02-.11-.02-.63-.17-1.29.2-1.46.84-.03.12-.05.24-.04.36l-.6,3.8-2.1-.4,1.2-6.9,2.1.4v.6c.52-.52,1.29-.72,2-.5,1.4.2,2.4,1.4,2.1,3.3l-.1.1Z"/><path d="m76.69,165.71l4.9,2.1-.8,1.9-4.9-2.1.8-1.9Z"/><path d="m91.39,176.22l-2.7,3.3-1.6-1.3,2.6-3.2c.4-.5.5-1.1,0-1.5-.53-.39-1.27-.28-1.66.25-.01.02-.02.03-.04.05l-2.5,3-1.6-1.3,2.6-3.2c.4-.5.5-1.1,0-1.5-.53-.39-1.27-.28-1.66.25-.01.02-.02.03-.04.05l-2.5,3-1.6-1.3,4.5-5.4,1.6,1.3-.4.5c1.33-.21,2.57.7,2.77,2.03.02.16.03.31.03.47.79-.18,1.61.05,2.2.6,1.13.92,1.3,2.57.38,3.7-.06.07-.12.14-.18.2h-.2Z"/><path d="m91.69,178.11c1.71-1.11,4-.61,5.1,1.1,1.11,1.71.61,4-1.1,5.1-1.71,1.11-4,.61-5.1-1.1h0c-1.1-1.71-.61-4,1.1-5.1Zm2.9,4.5c.74-.43.99-1.37.56-2.1-.02-.03-.04-.06-.06-.1-.46-.77-1.46-1.01-2.22-.55-.03.02-.05.03-.08.05-.74.43-.99,1.37-.56,2.1.02.03.04.06.06.1.46.77,1.46,1.01,2.22.55.03-.02.05-.03.08-.05Z"/><path d="m98.39,187.51l-2.3.9c-.6.2-.4.7,0,1.6l-1.8.7c-1.2-2.5-.8-3.5,1.1-4.2l2.3-.9-.4-1,1.9-.7.4,1,1.2-.5,1.3,1.7-1.8.7.5,1.3-1.9.7-.5-1.3Z"/><path d="m97.99,190.31c1.95-.35,3.82.95,4.17,2.9.01.07.02.14.03.2.31,2-1.01,3.9-3,4.3-1.95.35-3.82-.95-4.17-2.9-.01-.07-.02-.14-.03-.2-.31-2,1.01-3.9,3-4.3Zm.9,5.2c.91-.14,1.54-.99,1.4-1.9-.09-.83-.83-1.43-1.66-1.35-.08,0-.16.02-.24.05-.91.14-1.54.99-1.4,1.9.09.83.83,1.43,1.66,1.35.08,0,.16-.02.24-.05Z"/><path d="m102.53,203.41h-2.4c.2-1-.1-2.2-1.5-2.3h-3.2v-2.2l7,.3v2.1h-1.3c.85.39,1.37,1.27,1.3,2.2l.1-.1Z"/><circle class="cls-4" cx="316.18" cy="56.07" r="45"/><path class="cls-10" d="m304.98,92.07c-.81-.23-1.58-.57-2.3-1-1.52-1.03-2.39-2.77-2.3-4.6v-42.9c-.05-2.63,1.81-4.92,4.4-5.4h21.6c0,.2.1.2.2.2,1.33.37,2.47,1.23,3.2,2.4.39.52.6,1.15.6,1.8,0,0-.2-.2-.2-.3-.51-.83-1.42-1.33-2.4-1.3h-3.8c-.64-.04-1.23.32-1.5.9-.2.3-.3.7-.5,1-.28.69-.96,1.13-1.7,1.1h-6.7c-.27.02-.54-.01-.8-.1-.37-.24-.65-.59-.8-1l-.6-1.2c-.2-.42-.63-.7-1.1-.7h-4.75c-1.37.32-2.31,1.59-2.2,3v42.5c-.02,1.48,1.12,2.71,2.6,2.8h22c.45,0,.9-.1,1.3-.3.52-.3.94-.76,1.2-1.3v.2c-.41,1.91-1.83,3.44-3.7,4-.1,0-.4,0-.4.2h-21.35Zm11.9-50.3h1.8c.35.04.66-.21.7-.55,0-.05,0-.1,0-.15,0-.5-.2-.9-.7-.9h-3.5c-.5,0-.7.4-.7.9s.3.6.7.7h1.7Z"/><path class="cls-9" d="m326.38,92.07c0-.3.2-.2.4-.2,1.83-.62,3.22-2.13,3.7-4v-.2c.17-.55.24-1.13.2-1.7v-41.75c.03-.57-.04-1.15-.2-1.7-.03-.64-.24-1.27-.6-1.8-.71-1.19-1.86-2.06-3.2-2.4-.1,0-.2,0-.2-.2h2.4c.66.14,1.3.38,1.9.7,1.73,1.01,2.77,2.89,2.7,4.9v42.7c.1,2.73-1.82,5.11-4.5,5.6h-2.45l-.15.05Z"/><path class="cls-19" d="m312.68,43.77c.3,0,.5.1.8.1h6.7c.75.07,1.46-.38,1.7-1.1.2-.3.3-.7.5-1,.27-.58.86-.94,1.5-.9h.9c0,.2.2.2.3.3.99.49,1.61,1.5,1.6,2.6v42.5c.02,1.08-.56,2.08-1.5,2.6-.16,0-.29.14-.3.3h-19.1c-1.48-.09-2.62-1.32-2.6-2.8v-42.4c-.11-1.41.83-2.68,2.2-3,.47-.05.93-.05,1.4,0,.49.63.93,1.3,1.3,2,.3.65,1,1.01,1.7.9h2.5c.17.03.35,0,.5-.1h-.1Zm-3.5,29.9v10.4c0,1.1.3,1.4,1.4,1.4h12.95c.55.06,1.04-.34,1.1-.89,0-.07,0-.14,0-.21v-21.4c.06-.55-.34-1.04-.89-1.1-.07,0-.14,0-.21,0h-1.1c-.55.06-1.04-.34-1.1-.89,0-.07,0-.14,0-.21v-1.9c.06-.55-.34-1.04-.89-1.1-.07,0-.14,0-.21,0h-6.7c-.8,0-1.1.4-1.1,1.2v1.9c0,.7-.4,1-1.1,1h-.8c-1,0-1.3.3-1.3,1.3v10.5h-.05Zm7.7-24.2c0-.2.1-.3.2-.5.3-.5.7-1,1-1.5s.2-.9-.2-1.1-.8-.3-1,0c-.8,1.1-1.6,2.3-2.3,3.5-.3.6,0,1.1.7,1.1h1.4q.3,0,.2.3c-.5.8-1,1.6-1.6,2.4-.32.37-.32.93,0,1.3.4.3.9.1,1.3-.4.9-1.3,1.7-2.6,2.5-3.9.2-.27.2-.63,0-.9-.18-.26-.48-.42-.8-.4h-1.6l.2.1Z"/><path class="cls-33" d="m324.88,89.22c0-.2.2-.2.3-.3.94-.52,1.52-1.52,1.5-2.6v-42.55c0-1.1-.61-2.11-1.6-2.6-.16,0-.29-.14-.3-.3h2.9c.98-.05,1.91.45,2.4,1.3,0,.1.1.2.2.3.19.56.28,1.16.25,1.75v41.8c.03.57-.04,1.15-.2,1.7-.32.5-.73.94-1.2,1.3-.4.2-.85.31-1.3.3h-2.9l-.05-.1Z"/><path class="cls-33" d="m312.68,43.77c-.1.2-.3.1-.5.1h-2.5c-.7.09-1.38-.27-1.7-.9-.37-.7-.81-1.37-1.3-2h3.4c.47,0,.9.28,1.1.7l.6,1.2c.21.37.48.71.8,1l.1-.1Z"/><path class="cls-9" d="m316.88,41.77h-1.6c-.35.04-.66-.21-.7-.55,0-.05,0-.1,0-.15,0-.5.2-.9.7-.9h3.5c.44.06.75.46.7.9,0,.5-.2.6-.7.7-.6.05-1.2.05-1.8,0h-.1Z"/><path class="cls-23" d="m309.18,73.67v-10.45c0-1,.3-1.3,1.3-1.3h.8c.7,0,1-.3,1.1-1v-1.9c0-.8.3-1.2,1.1-1.2h6.7c.55-.06,1.04.34,1.1.89,0,.07,0,.14,0,.21v1.9c-.06.55.34,1.04.89,1.1.07,0,.14,0,.21,0h1.15c.55-.06,1.04.34,1.1.89,0,.07,0,.14,0,.21v21.4c.06.55-.34,1.04-.89,1.1-.07,0-.14,0-.21,0h-12.9c-1.1,0-1.4-.3-1.4-1.4v-10.45h-.05Zm12.5,2.7v-10.6c0-.5-.3-.8-.9-.8h-7.9c-.44-.06-.84.25-.9.69,0,.07,0,.14,0,.21v15.9c-.06.44.25.84.69.9.07,0,.14,0,.21,0h7.9c.44.06.84-.25.9-.69,0-.07,0-.14,0-.21v-5.4Z"/><path class="cls-46" d="m316.88,49.47h1.65c.4,0,.7,0,.8.4.14.28.14.62,0,.9-.8,1.3-1.7,2.6-2.5,3.9-.26.45-.83.63-1.3.4-.4-.3-.4-.8,0-1.3.5-.8,1-1.6,1.6-2.4.2-.2.1-.3-.2-.3h-1.4c-.7,0-1.1-.6-.7-1.1.7-1.2,1.5-2.3,2.3-3.5.15-.28.5-.38.77-.23.1.05.17.13.23.23.32.27.4.73.2,1.1-.3.5-.7,1-1,1.5,0,.1-.2.2-.2.5l-.25-.1Z"/><path class="cls-33" d="m318.53,64.87h2.4c.45-.04.85.29.9.74,0,.02,0,.04,0,.06v2.55h-2.5c-.4,0-.5.1-.5.5v3.5h-6.7v-4.1h6.2c.2,0,.5.1.5-.2-.05-1.05.25-2.15-.3-3.05Z"/><path class="cls-31" d="m318.28,82.67h-5.3c-.44.06-.84-.25-.9-.69,0-.07,0-.14,0-.21v-3.7h6.7v3.6c.05.4-.15.8-.5,1Z"/><path class="cls-32" d="m312.08,72.27h6.7v4.1h-6.7v-4.1Z"/><path class="cls-19" d="m318.53,64.87c.6,1,.2,2,.3,3,0,.3-.3.2-.5.2h-6.2v-2.3c-.06-.44.25-.84.69-.9.07,0,.14,0,.21,0h5.5Z"/><path class="cls-53" d="m318.28,82.67c.4-.2.5-.5.5-1v-3.6h2.9v3.7c.03.46-.31.87-.78.9-.04,0-.08,0-.12,0h-2.5Z"/><path class="cls-37" d="m318.78,76.37v-4.1h2.9v4.1h-2.9Z"/><path class="cls-47" d="m321.78,72.27h-2.9v-3.5c0-.4.1-.5.5-.5h2.5v4h-.1Z"/><path class="cls-53" d="m312.08,76.37h6.7v1.7h-6.7v-1.7Z"/><path class="cls-41" d="m318.78,78.07v-1.7h2.9v1.7h-2.9Z"/><path d="m281.98,48.67c2.1.33,3.53,2.3,3.2,4.4l-.3,1.6,3.5.5-.4,2.5-11-1.7.6-4.2c.28-2.11,2.21-3.59,4.32-3.31.03,0,.05,0,.08.01v.2Zm-.4,2.5c-.71-.16-1.42.28-1.58.99,0,.04-.01.07-.02.11l-.3,1.6,2.8.4.3-1.6c.09-.71-.41-1.35-1.12-1.44-.03,0-.06,0-.08,0v-.05Z"/><path d="m288.38,40.37l4.4,2.1-1,2.1-4.1-2c-.66-.37-1.5-.13-1.86.53-.01.02-.02.05-.04.07-.4.8-.2,1.5.8,2l3.9,1.9-.95,2.15-10-4.9,1-2.1,3.5,1.7c-.31-.81-.28-1.72.1-2.5.73-1.48,2.53-2.09,4.02-1.36.1.05.19.1.28.16l-.05.15Z"/><path d="m290.08,39.37c-1.68-1.57-1.77-4.21-.19-5.89,1.57-1.68,4.21-1.77,5.89-.19,1.68,1.57,1.77,4.21.2,5.89-1.55,1.68-4.17,1.79-5.85.25-.02-.02-.03-.03-.05-.05Zm4.1-4.4c-.74-.66-1.88-.59-2.54.15-.66.74-.59,1.88.15,2.54.72.64,1.82.6,2.49-.1.69-.7.69-1.83-.01-2.52-.03-.03-.06-.06-.09-.08Z"/><path d="m303.53,27.57l2.4,4.2-2.1,1.2-2.2-3.9c-.25-.66-.98-.99-1.64-.74-.09.04-.18.08-.26.14-.8.4-1,1.2-.5,2.2l2.1,3.8-2.1,1.2-3.9-6.9,2.1-1.2.4.6c0-.7.6-1.4,1.5-2,1.35-.8,3.05-.5,4.2,1.4Z"/><path d="m310.28,28.77c.56-.11,1.06-.44,1.4-.9l2.1.7c-1.12,2.17-3.79,3.02-5.96,1.9-1.11-.57-1.93-1.59-2.24-2.8-.55-2.19.78-4.4,2.97-4.95.08-.02.15-.04.23-.05,2.16-.48,4.29.89,4.77,3.04.01.05.02.1.03.16,0,.3.1.6.1,1l-5.5,1.2c.47.67,1.32.96,2.1.7Zm.8-3.1c-.36-.69-1.14-1.06-1.9-.9-.8.1-1.41.79-1.4,1.6l3.3-.7Z"/><path d="m327.88,27.87c-.38,2.17-2.42,3.63-4.6,3.3-.89-.17-1.65-.72-2.1-1.5l-.2.7-2.3-.5,2.4-10.8,2.3.5-.9,3.8c.71-.55,1.65-.7,2.5-.4,2.12.58,3.37,2.77,2.8,4.9h.1Zm-2.3-.5c.3-.94-.23-1.95-1.17-2.24-.08-.02-.15-.04-.23-.06-.99-.26-2.01.34-2.27,1.34-.01.05-.03.11-.03.16-.3.94.23,1.95,1.17,2.24.08.02.15.04.23.06.99.26,2.01-.34,2.27-1.34.01-.05.03-.11.03-.16h0Z"/><path d="m338.58,29.37l-4.05,6.85-2-1.2.4-.6c-.85.26-1.77.11-2.5-.4-1.84-1.38-2.22-3.99-.84-5.84,1.19-1.6,3.35-2.13,5.14-1.26.78.4,1.33,1.14,1.5,2l.4-.6,2,1.2-.05-.15Zm-4.1,2.2c.57-.82.37-1.94-.45-2.51-.05-.03-.1-.07-.15-.09-.89-.53-2.03-.24-2.57.64-.01.02-.02.04-.03.06-.52.88-.23,2.03.65,2.55.88.52,2.03.23,2.55-.65Z"/><path d="m341.38,35.27l-2,2c-.5.5-.1.9.7,1.6l-1.5,1.5c-2.4-2-2.4-3.3-.8-4.9l2-2-.9-.9,1.6-1.6.9.9,1.1-1.1,2.2,1.2-1.6,1.5,1.1,1.2-1.6,1.6-1.1-1.2-.1.2Z"/><path d="m345.28,40.27l-2.3,1.6c-.6.4-.3.9.3,1.7l-1.8,1.2c-2-2.4-1.7-3.7.1-4.9l2.3-1.6-.7-1.1,1.9-1.3.7,1.1,1.3-.8,1.9,1.6-1.8,1.2.9,1.4-1.9,1.3-.9-1.4Z"/><path d="m345.08,48.37c.2.53.59.96,1.1,1.2l-.4,2.2c-1.29-.39-2.31-1.41-2.7-2.7-.9-2.6.2-4.8,2.4-5.6,2.13-.82,4.53.24,5.35,2.37.02.04.03.09.05.13.76,2.08-.31,4.37-2.39,5.13-.07.03-.14.05-.21.07-.29.11-.59.18-.9.2l-1.9-5.3c-.63.55-.79,1.46-.4,2.2v.1Zm3.2.4c.65-.44.9-1.28.6-2-.18-.82-.98-1.35-1.8-1.2l1.2,3.2Z"/><path d="m352.98,57.27l-2.7.3c0-1-.5-2.3-2-2.2l-3.6.4-.2-2.4,7.9-.8.2,2.4h-1.4c1.01.38,1.72,1.32,1.8,2.4v-.1Z"/><path d="m351.88,67.37l-7.3-3.7c-2.4-1.2-3.2-2.7-2.8-4.9l2.2.3c-.1,1.1.1,1.7,1,2.1l7.9-2.1-.3,2.6-5,1.1,4.6,2.1-.3,2.5h0Z"/><circle class="cls-4" cx="80.88" cy="56.07" r="45"/><path class="cls-28" d="m92.68,36.47c.22.28.49.52.8.7,1.17,1.08,1.82,2.61,1.8,4.2v45.3c0,3.6-1.8,5.7-5.5,6-5.99.5-12.01.5-18,0-2.95-.08-5.29-2.53-5.21-5.49,0-.07,0-.14,0-.21v-45.6c-.16-2.98,2.12-5.53,5.11-5.7.03,0,.06,0,.09,0,5.26-.37,10.53-.43,15.8-.2.37-.02.74.02,1.1.1,1.4-.02,2.79.22,4.1.7l-.1.2Zm-10.9,6.6h-11.1c-.7,0-.9.2-.9.9v11.5c0,3.8,0,2.4,2.4,2.3h19.1c.6,0,.7-.2.7-.7v-13.2c0-.5-.1-.8-.7-.8h-9.5Zm2.1,29.5c-2.3,0-2.1,0-2.1,2.2,0,.7.3,1,1,1h1.6c1.3,0,1.4,0,1.4-1.3,0-2.2.2-1.9-1.9-1.9Zm-5.9,0h-1.1c-.6,0-1,.2-.8.8.2.8-.7,2.1.8,2.4.76.1,1.54.1,2.3,0,.43.02.81-.28.9-.7.5-1.9,0-2.5-1.9-2.5h-.2Zm0-4.7c-2.2,0-1.9-.2-2,2v.35c0,.7.3,1,.9,1h2.3c.4-.02.73-.31.8-.7.5-1.9,0-2.5-1.9-2.5h0l-.1-.15Zm6,0h-1.3c-.5,0-.8.2-.8.7,0,2.3-.2,2.6,2.1,2.5h.55c1.3,0,1.4-.2,1.4-1.4,0-2.1.2-1.9-1.9-1.9h0l-.05.1Zm-.1,12.7h1c.5,0,1-.1,1-.7,0-.8.5-1.8-.4-2.5h-2.8c-.38-.03-.72.23-.8.6-.5,1.9,0,2.6,2,2.6Zm-5.8,0h1c.6,0,1-.2,1-.8,0-.8.5-1.8-.4-2.4h-2.8c-.34,0-.65.19-.8.5-.6,1.8,0,2.7,1.9,2.7h.1Zm0-17.4h-.9c-.7,0-1,.2-1,1q0,2.3,2.3,2.3h.8c.46.01.86-.34.9-.8.4-2,0-2.5-2-2.5h-.1Zm6,0h-1.3c-.5,0-.8.2-.8.8,0,2.3-.2,2.6,2.1,2.5h.5c1.3,0,1.4-.2,1.4-1.4,0-2.1.2-1.9-1.9-1.9Zm-11.8,17.4h.8c.9,0,1.2-.3,1.1-1.2,0-2.4.3-2.1-2.1-2.1h-.4c-1.3,0-1.4,0-1.3,1.3,0,1.8-.4,2,1.9,1.9v.1Zm17.6-3.3h-.8c-.8-.1-1.1.2-1.1,1.1,0,2.3-.4,2.2,2.2,2.2h.4q1.3,0,1.3-1.3c0-2.2.2-1.9-1.9-1.9h0l-.1-.1Zm0-4.7h-1c-.7,0-.9.3-.9,1,0,2.4-.4,2.3,2.3,2.3h.3c1.2,0,1.3-.1,1.3-1.3,0-2.2.2-2-1.9-2h-.1Zm-17.5,0h-.85c-.8,0-1.1.2-1.1,1.1,0,2.3-.4,2.2,2.2,2.2h.4c1.2,0,1.3-.1,1.3-1.4,0-2.1.2-1.9-1.9-1.9h-.05Zm0-4.7h-.85c-.8,0-1.1.2-1,1,0,2.3-.2,2.3,2.2,2.2h.3c1.3,0,1.4,0,1.4-1.4,0-2.1.2-1.9-1.9-1.9l-.15.1Zm17.6-4.65h-1c-.7,0-.9.3-.9,1,0,2.4-.2,2.3,2.3,2.3h.3c1.2,0,1.3-.1,1.3-1.3,0-2.2.2-1.9-1.9-2h-.1Zm0,4.7c-2.2,0-1.9-.3-2,2v.2c0,.8.3,1.1,1.1,1.1h1.45c1.2,0,1.3-.1,1.3-1.4,0-2.1.2-1.9-1.9-1.9h.05Zm-17.6-4.7h-1c-.7,0-.9.3-.9,1,0,2.4-.2,2.3,2.3,2.3h.3c1.2,0,1.3-.1,1.3-1.3,0-2.2.2-1.9-1.9-2h-.1Zm10.7-22.9c.4,0,.7-.1.6-.6s-.2-.5-.6-.5-.7.1-.6.6.2.5.6.5Zm2.5-.5c0-.4-.2-.5-.6-.5s-.7,0-.7.5.2.5.6.5.7-.1.7-.5Zm-5.8,48.7c.04-.29-.16-.56-.45-.6-.05,0-.1,0-.15,0-.4,0-.5.3-.5.6s.2.6.5.6c.3-.03.52-.3.5-.6h.1Zm-2.1-49.2c-.32,0-.59.2-.7.5-.01.32.24.59.56.6.01,0,.03,0,.04,0,.3,0,.5-.1.5-.4h0c0-.4-.1-.6-.5-.6l.1-.1Zm2.3.5c0-.4-.2-.5-.6-.5-.28-.06-.54.12-.6.4s.12.54.4.6c.07.01.13.01.2,0,.4,0,.5-.2.5-.5h.1Zm-.2,44.6c0-.4-.3-.5-.6-.5-.26-.02-.48.18-.5.44,0,.02,0,.04,0,.06,0,.4.2.6.5.6s.5-.2.5-.6h.1Zm4-.1c0-.2-.1-.4-.5-.4s-.6.1-.6.5.2.6.5.6.5-.2.5-.7h.1Zm-.4,4.7c.3,0,.4-.2.4-.5.02-.3-.2-.57-.5-.6-.26-.03-.49.16-.52.42,0,.06,0,.12.02.18.1.4.2.5.7.5h-.1Zm-1.6-49.2c0-.4-.3-.5-.6-.5s-.5.2-.4.6.3.5.6.5c.3-.03.52-.3.5-.6h-.1Zm-.5,44.3c.26.02.48-.18.5-.44,0-.02,0-.04,0-.06,0-.4-.2-.6-.6-.5s-.5.2-.5.6c.03.3.3.52.6.5h0v-.1Zm-3,2.9c.3,0,.5-.1.6-.5s-.1-.6-.5-.6-.5.1-.6.5.1.55.5.55v.05Zm5.7-1.1c-.24,0-.44.21-.43.45,0,.05.01.1.03.15,0,.3.2.5.6.4s.5-.3.5-.6c-.03-.3-.3-.52-.6-.5l-.1.1Zm-2.8,4c.26.02.48-.18.5-.44,0-.02,0-.04,0-.06,0-.4-.2-.6-.5-.6-.26-.02-.48.18-.5.44,0,.02,0,.04,0,.06,0,.35.2.55.5.55v.05Zm-.6-3.1c0-.3-.1-.5-.5-.5-.26-.02-.48.18-.5.44,0,.02,0,.04,0,.06,0,.3.1.6.4.6.29,0,.54-.21.6-.5h0v-.1Zm.8.4c-.26-.02-.48.18-.5.44,0,.02,0,.04,0,.06.03.3.3.52.6.5h0c.3,0,.4-.3.4-.5.02-.26-.18-.48-.44-.5-.02,0-.04,0-.06,0Zm0-1.9c.02-.25-.15-.47-.4-.5-.29,0-.54.21-.6.5,0,.2.1.5.4.5h0c.3,0,.4-.3.5-.5h.1Zm1,1.3c.21-.01.39-.19.4-.4,0-.2,0-.4-.3-.5h-.1c-.3,0-.4.2-.5.4s0,.4.4.4l.1.1Z"/><path class="cls-48" d="m84.53,43.07h6.8c.6,0,.7.2.7.8v13.2c0,.5-.1.7-.7.7h-15.35c.02-.21.09-.42.2-.6,1.9-3.1,3.7-6.2,5.6-9.3,1.01-1.54,1.93-3.15,2.75-4.8Z"/><path class="cls-48" d="m72.18,57.67c-1.6,0-2.4-.77-2.4-2.3v-11.5c0-.7.2-.9.9-.9h10c-.7,1.45-1.5,2.86-2.4,4.2-2,3.5-4.1,6.9-6.1,10.4v.1Z"/><path class="cls-39" d="m84.53,43.07c-.8,1.65-1.7,3.26-2.7,4.8-1.8,3.1-3.7,6.2-5.6,9.3,0,.2-.2.4-.2.6h-1.6c.02-.21.09-.42.2-.6,1.6-2.6,3.2-5.3,4.7-7.9,1.2-2.1,2.5-4,3.6-6.2h1.6Z"/><path class="cls-17" d="m82.88,43.07c-1.1,2.1-2.4,4.1-3.6,6.2-1.6,2.7-3.2,5.3-4.7,7.9,0,.2-.2.4-.2.6h-1.1c.46-1.17,1.06-2.28,1.8-3.3,2.2-3.8,4.5-7.6,6.7-11.3h1.1v-.1Z"/><path class="cls-30" d="m81.78,43.07c-2.2,3.8-4.5,7.5-6.7,11.3-.73,1.02-1.34,2.13-1.8,3.3h-1.1c2.1-3.4,4.1-6.9,6.1-10.4.9-1.34,1.7-2.75,2.4-4.2h1.1Z"/><path class="cls-42" d="m83.88,72.57c2.2,0,1.9-.2,1.9,1.9,0,1.2,0,1.3-1.4,1.3h-1.6c-.49.06-.94-.29-1-.79,0-.07,0-.14,0-.21,0-2.3-.2-2.3,2.1-2.2Z"/><path class="cls-42" d="m77.88,72.57h0c1.9,0,2.4.6,1.9,2.5-.05.44-.45.75-.89.7,0,0,0,0-.01,0-.77.05-1.53.05-2.3,0-1.5-.3-.6-1.6-.8-2.4-.1-.6.2-.9.8-.8h1.3Z"/><path class="cls-42" d="m77.88,67.87h0c1.9,0,2.4.6,1.9,2.5-.07.39-.4.68-.8.7h-2.3c-.6,0-1-.3-.9-1v-.3c0-2.2-.3-2,2-2l.1.1Z"/><path class="cls-42" d="m83.88,67.87c2.1,0,1.9-.2,1.9,1.9,0,1.2-.2,1.4-1.4,1.4h-.5c-2.4,0-2.1-.2-2.1-2.5,0-.5.3-.7.8-.7h1.3v-.1Z"/><path class="cls-42" d="m83.78,80.57c-1.9,0-2.5-.7-2-2.6.08-.37.42-.63.8-.6h2.8c.9.7.4,1.7.4,2.5,0,.6-.5.7-1,.7h-1Z"/><path class="cls-42" d="m77.88,80.57c-1.8,0-2.5-1-1.9-2.7.06-.35.4-.58.75-.51.02,0,.04,0,.05.01h2.8c.9.7.4,1.6.4,2.4,0,.5-.4.8-1,.8h-1.1Z"/><path class="cls-42" d="m77.88,63.07h0c2,0,2.4.5,2,2.5,0,.5-.4.7-.9.8h-.8q-2.3,0-2.3-2.3c0-2.3.3-1.1,1-1h1Z"/><path class="cls-42" d="m83.88,63.07c2.1,0,1.9-.2,1.9,1.9,0,1.2-.2,1.4-1.4,1.4h-.5c-2.4,0-2.1-.2-2.1-2.5,0-.5.3-.7.8-.8h1.3Z"/><path class="cls-42" d="m72.08,80.57c-2.3,0-1.9-.1-1.9-1.9q0-1.3,1.3-1.3h.4c2.4,0,2.1-.3,2.1,2.1,0,.9-.3,1.2-1.1,1.2h-.8v-.1Z"/><path class="cls-42" d="m89.68,77.27c2.2,0,1.9-.2,1.9,1.9q0,1.3-1.3,1.3h-.4c-2.6,0-2.1,0-2.2-2.2,0-.8.3-1.2,1.1-1.1h.8l.1.1Z"/><path class="cls-42" d="m89.68,72.57c2.1,0,1.9-.2,1.9,2,0,1.2-.1,1.3-1.3,1.3h-.3c-2.7,0-2.2.1-2.3-2.3,0-.7.2-1,.9-1h1.1Z"/><path class="cls-42" d="m72.08,72.57c2.1,0,1.8-.2,1.9,1.9,0,1.2,0,1.4-1.3,1.4h-.4c-2.6,0-2.1,0-2.2-2.2,0-.8.3-1.2,1.1-1.1h.9Z"/><path class="cls-42" d="m72.08,67.87c2.1,0,1.9-.2,1.9,1.9,0,1.3,0,1.4-1.4,1.4h-.3c-2.4,0-2.1,0-2.2-2.2,0-.8.2-1.1,1-1h.9l.1-.1Z"/><path class="cls-42" d="m89.68,63.07c2.1,0,1.9-.2,1.9,2,0,1.2-.1,1.3-1.3,1.3h-.3c-2.5,0-2.2.1-2.3-2.3,0-.7.2-1,.9-1h1.1Z"/><path class="cls-42" d="m89.68,67.87c2.1,0,1.9-.2,1.9,1.9,0,1.3-.1,1.4-1.3,1.4h-1.4c-.8,0-1.1-.3-1.1-1.1v-.2c0-2.2-.3-2,2-2h-.1Z"/><path class="cls-42" d="m72.08,63.07c2.1,0,1.9-.2,1.9,1.9,0,1.2-.1,1.3-1.3,1.3h-.3c-2.5,0-2.3.1-2.3-2.3,0-.7.2-1,.9-1h1l.1.1Z"/><path class="cls-51" d="m82.78,40.27c-.3,0-.6-.1-.6-.5-.01-.32.24-.59.56-.6.01,0,.03,0,.04,0,.3,0,.6.1.6.5.01.32-.24.59-.56.6-.01,0-.03,0-.04,0Z"/><path class="cls-51" d="m85.18,39.77c0,.4-.3.5-.7.5s-.6-.2-.6-.5.3-.5.7-.5.6.2.6.5Z"/><path class="cls-55" d="m79.38,88.37c.02.3-.2.57-.5.6-.26.03-.49-.16-.52-.42,0-.06,0-.12.02-.18,0-.3.1-.6.5-.6.29-.04.56.16.6.45,0,.05,0,.1,0,.15h-.1Z"/><path class="cls-51" d="m77.28,39.22c.4,0,.5.2.5.6.02.26-.18.48-.44.5-.02,0-.04,0-.06,0h0c-.4,0-.7-.2-.6-.6s.3-.5.7-.5h-.1Z"/><path class="cls-51" d="m79.58,39.67c0,.4-.2.6-.5.5-.28.06-.54-.12-.6-.4s.12-.54.4-.6c.07-.01.13-.01.2,0,.3,0,.6.1.6.5h-.1Z"/><path class="cls-51" d="m79.38,84.27c0,.4-.2.6-.5.6s-.5-.2-.5-.6.1-.5.5-.5.6.1.6.5h-.1Z"/><path class="cls-51" d="m83.38,84.22c0,.5-.2.7-.5.7s-.5-.2-.5-.6.3-.5.6-.5c.25-.02.47.15.5.4h-.1Z"/><path class="cls-51" d="m82.98,88.87c-.4,0-.7-.1-.7-.5s.2-.6.5-.6.5.2.5.6-.1.5-.4.5h.1Z"/><path class="cls-51" d="m81.38,39.67c.03.27-.14.53-.4.6-.3,0-.6-.1-.6-.5-.03-.27.14-.53.4-.6.4.05.6.1.6.5Z"/><path class="cls-51" d="m80.88,83.97c-.3,0-.5-.1-.6-.5s.1-.6.5-.6.6.2.6.5c.02.26-.18.48-.44.5-.02,0-.04,0-.06,0v.1Z"/><path class="cls-51" d="m77.98,86.87c-.4,0-.5-.2-.5-.6s.2-.5.6-.5.5.2.5.6-.2.5-.6.5Z"/><path class="cls-51" d="m83.68,85.77c.4,0,.6.1.6.4s-.1.6-.5.6c-.27.03-.53-.14-.6-.4,0-.4.1-.6.4-.6h.1Z"/><path class="cls-51" d="m80.88,81.77c-.21-.01-.39-.19-.4-.4,0-.2.1-.3.4-.3.2-.02.38.13.4.34,0,.02,0,.04,0,.06,0,.2-.1.3-.4.3Z"/><path class="cls-55" d="m80.28,86.67c-.06.29-.31.49-.6.5-.3,0-.5-.2-.4-.6s.2-.5.5-.5.4.3.5.5v.1Z"/><path class="cls-55" d="m81.08,87.07c.26-.02.48.18.5.44,0,.02,0,.04,0,.06,0,.3,0,.5-.4.5s-.6-.1-.6-.4h0c0-.3.2-.4.5-.5v-.1Z"/><path class="cls-55" d="m80.98,85.27c-.02.27-.23.48-.5.5-.25.02-.47-.15-.5-.4h0c.03-.3.3-.52.6-.5.3,0,.4.2.4.5v-.1Z"/><path class="cls-51" d="m82.08,86.47c-.4,0-.5-.2-.4-.4s.2-.5.5-.4c.21.01.39.19.4.4v.1c-.01.21-.19.39-.4.4l-.1-.1Z"/><path d="m52.78,68.77c2.09-1.63,5.1-1.27,6.74.82.02.03.04.05.06.08l2.3,3.2-7.9,5.8-2.3-3.2c-1.56-2.09-1.12-5.05.97-6.6.04-.03.09-.06.13-.1Zm1.3,1.7c-1.19.69-1.59,2.21-.9,3.4.06.1.13.2.2.3l1,1.4,4.4-3.3-1-1.4c-.82-1.18-2.45-1.46-3.62-.64-.06.04-.12.09-.18.14l.1.1Z"/><path d="m50.98,48.77c1.93-.06,3.54,1.47,3.6,3.4,0,.03,0,.07,0,.1,0,.79-.33,1.55-.9,2.1h3.5v2.2l-9.8-.3v-2.05h.7c-.54-.56-.83-1.32-.8-2.1.13-1.9,1.77-3.34,3.67-3.21.04,0,.08,0,.13.01l-.1-.15Zm0,2.1c-.93-.06-1.74.64-1.8,1.57,0,0,0,.02,0,.03-.08.85.54,1.61,1.39,1.69.07,0,.14,0,.21,0,.93.06,1.74-.64,1.8-1.57,0,0,0-.02,0-.03.11-.82-.46-1.58-1.28-1.69-.11-.01-.21-.02-.32,0Z"/><path d="m52.38,35.57l6.3,3.1-.9,1.9-.6-.3c.28.72.21,1.54-.2,2.2-1.1,1.73-3.4,2.23-5.12,1.13-1.47-.94-2.09-2.79-1.48-4.43.33-.72.94-1.27,1.7-1.5l-.6-.3.9-1.9v.1Zm2.2,3.4c-.81-.45-1.82-.16-2.27.65,0,.02-.02.04-.03.05-.48.84-.19,1.91.65,2.39.84.48,1.91.19,2.39-.65.48-.84.19-1.91-.65-2.39-.03-.02-.06-.03-.09-.05Z"/><path d="m58.58,28.37l3.4,6.4c1.1,2.1.9,3.6-.5,5l-1.4-1.3c.63-.52.76-1.43.3-2.1l-6.8-2.5,1.6-1.7,4.2,1.7-2.3-3.9,1.5-1.7v.1Z"/><path d="m72.88,20.77l.6,7.3-1.8.8-2.5-3,.4,3.9-1.8.8-4.8-5.6,2.1-.9,2.45,3.15-.4-3.9,1.8-.8,2.4,3-.5-3.9,2.1-.9-.05.05Z"/><path d="m74.53,18.87c-.08-.69.41-1.32,1.1-1.4.69-.08,1.32.41,1.4,1.1.08.69-.41,1.32-1.1,1.4,0,0,0,0,0,0-.68.09-1.3-.38-1.4-1.06,0-.01,0-.03,0-.04Zm.5,1.8l2.1-.3,1,6.9-2.1.3-1-6.9Z"/><path d="m81.88,22.27v2.5c0,.6.5.7,1.4.6v1.9c-2.8.2-3.6-.6-3.5-2.5v-2.5h-1.1v-2h1.1v-1.3l2.1-.6v2h1.4v2h-1.5l.1-.1Z"/><path d="m91.53,24.57l-1,4.2-2-.5.9-3.9c.22-.57-.07-1.21-.64-1.43-.08-.03-.17-.05-.26-.07-.64-.21-1.33.14-1.54.78-.03.1-.05.21-.06.32l-.9,3.7-2-.5,2.3-9.5,2,.5-.8,3.4c.6-.45,1.38-.59,2.1-.4,1.41.32,2.3,1.72,1.98,3.13-.02.09-.05.18-.08.27Z"/><path d="m97.68,33.22v-3.8l-1.8,2.5-1.7-1.2,5.8-7.9,1.7,1.2-3.5,4.7,3.5-1.2,2,1.5-4.1,1.3v4.4l-1.9-1.4v-.1Z"/><path d="m102.88,36.22c.32.4.79.65,1.3.7l.3,1.9c-1.19.05-2.33-.51-3-1.5-1.36-1.44-1.3-3.71.14-5.08.08-.08.17-.15.26-.22,1.46-1.29,3.68-1.15,4.97.31.08.09.16.19.23.29,1.25,1.52,1.03,3.76-.49,5.01-.04.03-.07.06-.11.09-.2.2-.5.3-.7.5l-3.1-3.9c-.36.62-.24,1.42.3,1.9h-.1Zm2.8-.6c.4-.57.4-1.33,0-1.9-.4-.59-1.16-.8-1.8-.5l1.9,2.3-.1.1Z"/><path d="m112.98,43.37l-7.2.6c-2.4.2-3.7-.6-4.4-2.4l1.8-.8c.22.78,1,1.27,1.8,1.1l4.9-5.3,1,2.1-3.3,3.2,4.4-.6.9,2,.1.1Z"/><path d="m111.18,53.27c-1.87.39-3.69-.81-4.08-2.68,0-.04-.02-.08-.02-.12-.17-.77.01-1.58.5-2.2l-3.4.5-.3-2.1,9.7-1.4.3,2.1h-.7c.63.49,1.03,1.21,1.1,2,.2,1.9-1.18,3.59-3.07,3.79-.04,0-.08,0-.13.01l.1.1Zm-.3-2.1c.86-.07,1.5-.82,1.43-1.68,0-.08-.02-.15-.03-.22-.04-.84-.75-1.49-1.59-1.45-.1,0-.21.02-.31.05-.86.07-1.5.82-1.43,1.68,0,.08.02.15.03.22.01.84.7,1.51,1.54,1.5.12,0,.24-.02.36-.05v-.05Z"/><path d="m113.53,62.47l-6.9-1.1.3-2.1h.6c-.55-.55-.74-1.36-.5-2.1.55-1.98,2.6-3.14,4.58-2.6,1.69.47,2.82,2.05,2.72,3.8-.06.79-.51,1.51-1.2,1.9h.6c0,.1-.3,2.2-.3,2.2h.1Zm-3.1-2.6c.81.21,1.64-.28,1.85-1.09.03-.1.04-.21.05-.31.16-.88-.42-1.72-1.3-1.89-.03,0-.07-.01-.1-.01-.81-.21-1.64.28-1.85,1.09-.03.1-.04.21-.05.31-.16.88.41,1.73,1.29,1.89.02,0,.04,0,.06,0h.05Z"/><path d="m111.88,73.07l-8.8-4.3.9-1.9.6.3c-.33-.72-.25-1.55.2-2.2.96-1.69,3.09-2.31,4.8-1.4,1.76.74,2.58,2.77,1.83,4.52-.01.03-.02.05-.03.08-.33.72-.94,1.27-1.7,1.5l3.1,1.5-.9,1.9Zm-4.7-4.7c.81.45,1.82.16,2.27-.65,0-.02.02-.04.03-.05.41-.76.12-1.72-.64-2.13-.05-.03-.1-.05-.16-.07-.81-.45-1.82-.16-2.27.65,0,.02-.02.04-.03.05-.41.76-.12,1.72.64,2.13.05.03.1.05.16.07Z"/><circle class="cls-4" cx="199.71" cy="56.07" r="45"/><path class="cls-34" d="m189.91,93.47c-.2-.15-.45-.22-.7-.2-3.86-.91-6.54-4.43-6.4-8.4v-40.1c-.12-3.36,1.82-6.45,4.9-7.8,1.1-.51,2.29-.78,3.5-.8h17.2c4.59-.04,8.36,3.64,8.4,8.24,0,.05,0,.11,0,.16v40.4c.08,4.01-2.76,7.48-6.7,8.2-.25-.02-.5.05-.7.2h-19.5v.1Zm9.8-33.1h11.4c1.3,0,1.8-.6,1.8-1.8v-15.1c.15-.9-.46-1.75-1.35-1.9-.18-.03-.36-.03-.55,0h-22.6c-.9-.15-1.75.46-1.9,1.35-.03.18-.03.36,0,.55v15c0,1.3.5,1.9,1.9,1.9h11.3Zm3.5,7.4c.02-1.86-1.48-3.38-3.34-3.4-.02,0-.04,0-.06,0-1.92.02-3.48,1.58-3.5,3.5.03,1.9,1.6,3.42,3.5,3.4,1.92-.02,3.48-1.58,3.5-3.5h-.1Zm4.8-.2v1.9c-.06.44.25.84.69.9.07,0,.14,0,.21,0h2.9c.44.06.84-.25.9-.69,0-.07,0-.14,0-.21v-3.9c.06-.44-.25-.84-.69-.9-.07,0-.14,0-.21,0h-2.9c-.44-.06-.84.25-.9.69,0,.07,0,.14,0,.21v2Zm-21.2.3v2c-.06.44.25.84.69.9.07,0,.14,0,.21,0h2.9c.6,0,.9-.3.9-.8v-4c.01-.46-.34-.86-.8-.9h-3c-.6,0-.8.3-.9.9v1.9h0Zm23,14.6h1.9c.6,0,.9-.4.9-1,0-1.4-.1-1.9-.8-2h-3.9c-.46-.03-.87.31-.9.78,0,.04,0,.08,0,.12v1.2c0,.6.3.9,1,.9h1.8Zm-20.28,5.75h.9c1.9,0,1.9-.4,1.9-1.9,0-.8-.3-1.1-1.1-1.1h-2.5c-2.1,0-2,.3-1.9,2.1-.03.52.36.97.88,1,.04,0,.08,0,.12,0h1.8l-.1-.1Zm10.3-5.7h1.7c.8,0,1.1-.3,1.2-1.1v-.8c0-.8-.3-1.1-1.1-1.1h-2.5c-2.2,0-2,.4-2,2.1-.06.49.29.94.79,1,.07,0,.14,0,.21,0h1.8l-.1-.1Zm0,2.6h-1.9c-.44-.06-.84.25-.9.69,0,.07,0,.14,0,.21v1.1c-.06.55.34,1.04.89,1.1.07,0,.14,0,.21,0h2.6c2.1,0,2-.4,2-2.1.06-.49-.29-.94-.79-1-.07,0-.14,0-.21,0h-1.9Zm9.9,3.1h.9c2,.1,1.9-.4,1.9-2v-.2c.03-.46-.31-.87-.78-.9-.04,0-.08,0-.12,0h-3.7c-.51-.04-.95.33-1,.84,0,.02,0,.04,0,.06v1.2c0,.6.4.9,1,.9h1.8v.1Zm-9.9-11.3h.8c2.1,0,2-.3,2-2.1h0c.03-.46-.31-.87-.78-.9-.04,0-.08,0-.12,0h-3.7c-.46-.03-.87.31-.9.78,0,.04,0,.08,0,.12v1.1c0,.7.3,1,1,1h1.7,0Zm9.9,0h1.9c.6,0,.9-.4.9-1,.1-1.3,0-1.9-.7-2.1h-4c-.46-.03-.87.31-.9.78,0,.04,0,.08,0,.12v1.1c-.06.49.29.94.79,1,.07,0,.14,0,.21,0h1.8v.1Zm-20.2,0h1.9c.7,0,.9-.4.9-1.7,0-.9-.3-1.3-.9-1.3h-3.7c-.46-.03-.87.31-.9.78,0,.04,0,.08,0,.12v1.1c0,.7.3,1,1,1h1.7Zm0,5.6h1.9c.6,0,.9-.4.9-1,.1-1.4,0-1.9-.7-2h-3.9c-.49-.06-.94.29-1,.79,0,.07,0,.14,0,.21v1.1c0,.6.3.9,1,1h1.8v-.1Z"/><path class="cls-13" d="m199.71,60.37h-11.18c-1.4,0-1.9-.5-1.9-1.9v-15c0-1.3.5-1.9,1.9-1.9h22.6c1.4,0,1.9.5,1.9,1.9v15.1c0,1.3-.6,1.8-1.8,1.8h-11.52Z"/><path class="cls-26" d="m203.21,67.77c-.02,1.92-1.58,3.48-3.5,3.5-1.87-.05-3.4-1.53-3.5-3.4.02-1.92,1.58-3.48,3.5-3.5,1.86-.02,3.38,1.48,3.4,3.34,0,.02,0,.04,0,.06h.1Z"/><path class="cls-26" d="m208.01,67.57v-2c-.06-.44.25-.84.69-.9.07,0,.14,0,.21,0h2.9c.44-.06.84.25.9.69,0,.07,0,.14,0,.21v3.9c.06.44-.25.84-.69.9-.07,0-.14,0-.21,0h-2.9c-.44.06-.84-.25-.9-.69,0-.07,0-.14,0-.21v-1.9Z"/><path class="cls-26" d="m186.81,67.87v-1.9c-.06-.44.25-.84.69-.9.07,0,.14,0,.21,0h3c.5,0,.8.3.8.9v4c0,.6-.3.8-.9.8h-2.9c-.6,0-.8-.3-.9-.9v-2Z"/><path class="cls-26" d="m209.91,82.47h-1.8c-.51.04-.95-.33-1-.84,0-.02,0-.04,0-.06v-1.2c-.03-.46.31-.87.78-.9.04,0,.08,0,.12,0h3.9c.7.1.9.6.8,2,0,.6-.3,1-.9,1h-1.9Z"/><path class="cls-26" d="m189.61,88.07h-1.8c-.49.06-.94-.29-1-.79,0-.07,0-.14,0-.21,0-1.8-.2-2.2,1.9-2.1h2.5c.8,0,1.1.3,1.1,1.1,0,1.6,0,2-1.9,1.9h-1l.2.1Z"/><path class="cls-26" d="m199.91,82.47h-1.8c-.52.03-.97-.36-1-.88,0-.04,0-.08,0-.12,0-1.7-.2-2.2,2-2.1h2.5c.8,0,1.1.3,1.1,1.1v.8c0,.8-.3,1.1-1.2,1.1h-1.7l.1.1Z"/><path class="cls-26" d="m200.01,85.07h1.8c.52-.03.97.36,1,.88,0,.04,0,.08,0,.12,0,1.7.2,2.2-2,2.1h-2.6c-.7,0-1-.3-1.1-1.1v-1.1c-.03-.46.31-.87.78-.9.04,0,.08,0,.12,0h2Z"/><path class="cls-26" d="m209.81,88.07h-1.8c-.51.04-.95-.33-1-.84,0-.02,0-.04,0-.06v-1.2c0-.6.3-.9,1-.9h3.7c.44-.06.84.25.9.69,0,.07,0,.14,0,.21v.2c0,1.6,0,2.1-1.9,2h-1l.1-.1Z"/><path class="cls-26" d="m199.91,76.87h-1.8c-.49.06-.94-.29-1-.79,0-.07,0-.14,0-.21v-1.1c-.03-.46.31-.87.78-.9.04,0,.08,0,.12,0h3.7c.46-.03.87.31.9.78,0,.04,0,.08,0,.12h0c0,1.8.1,2.2-2,2.1h-.7,0Z"/><path class="cls-26" d="m209.81,76.87h-1.8c-.6,0-.9-.4-1-1v-1.1c-.06-.44.25-.84.69-.9.07,0,.14,0,.21,0h4c.6.2.8.7.7,2.1.04.51-.33.95-.84,1-.02,0-.04,0-.06,0h-1.9v-.1Z"/><path class="cls-26" d="m189.61,76.87h-1.8c-.7,0-1-.3-1-1v-1.1c-.03-.46.31-.87.78-.9.04,0,.08,0,.12,0h3.7c.7,0,.9.4.9,1.3,0,1.3-.2,1.7-.9,1.7h-1.8,0Z"/><path class="cls-26" d="m189.61,82.47h-1.8c-.49.06-.94-.29-1-.79,0-.07,0-.14,0-.21v-1.1c-.03-.52.36-.97.88-1,.04,0,.08,0,.12,0h3.9c.6.1.8.7.7,2,0,.6-.3,1-.9,1h-1.9v.1Z"/><path d="m168.91,78.27c1.61-1.42,4.06-1.28,5.5.3l1.1,1.2,2.6-2.4,1.7,1.9-8.3,7.6-2.9-3.1c-1.47-1.53-1.41-3.96.12-5.43.03-.02.05-.05.08-.07h.1Zm1.7,1.9c-.58.46-.67,1.31-.21,1.88.03.04.07.08.11.12l1.1,1.2,2.1-1.9-1.1-1.2c-.49-.55-1.34-.6-1.89-.11-.04.03-.07.07-.11.11v-.1Z"/><path d="m166.31,68.22l4.4-2.2,1.1,2.2-4.1,2c-.69.26-1.04,1.03-.78,1.73.02.06.05.12.08.17.29.71,1.1,1.05,1.81.76.1-.04.2-.1.29-.16l3.9-1.9,1.1,2.2-10.1,4.9-1.1-2.2,3.5-1.7c-1.59-.46-2.51-2.12-2.05-3.71.27-.92.95-1.66,1.85-1.99l.1-.1Z"/><path d="m166.61,66.22c-2.32.45-4.56-1.07-5-3.38-.45-2.32,1.07-4.56,3.38-5,2.32-.45,4.56,1.07,5,3.38,0,.03.01.07.02.1.42,2.29-1.1,4.48-3.39,4.9,0,0,0,0-.01,0Zm-1-6c-.95.11-1.64.97-1.53,1.93,0,.06.02.11.03.17.18,1.01,1.14,1.69,2.15,1.51.02,0,.03,0,.05,0,.95-.11,1.64-.97,1.53-1.93,0-.06-.02-.11-.03-.17-.18-1.01-1.14-1.69-2.15-1.51-.02,0-.03,0-.05,0Z"/><path d="m165.11,48.37l4.9.5-.3,2.4-4.5-.5c-.73-.14-1.44.34-1.58,1.07,0,.04-.01.09-.02.13,0,.9.3,1.5,1.5,1.7l4.3.5-.3,2.4-8-.9.3-2.4h.7c-.6-.6-.86-1.46-.7-2.3.19-1.65,1.67-2.83,3.32-2.65.1.01.19.03.28.05h.1Z"/><path d="m170.01,43.57c.2-.55.2-1.15,0-1.7l1.8-1.4c.72,1.18.8,2.65.2,3.9-.72,2.22-3.11,3.43-5.33,2.71-2.22-.72-3.43-3.11-2.71-5.33.04-.13.09-.25.14-.38.97-2.15,3.5-3.11,5.65-2.14.26.12.52.27.75.44l-2.2,5.3c.82,0,1.54-.53,1.8-1.3l-.1-.1Zm-2.1-2.5c-.79-.13-1.56.34-1.8,1.1-.36.73-.15,1.61.5,2.1l1.3-3.2Z"/><path d="m171.91,29.67l1-1.1,1.7,1.5-1,1.1,4.2,3.8-1.6,1.8-4.2-3.8-.7.8-1.7-1.5.7-.8c-1.7-1.5-1.8-3.3,0-5.2l1.7,1.5c-.7.6-.9,1.2-.2,1.9h.1Z"/><path d="m177.91,24.27l1.7,2.1c-.94.39-1.39,1.48-.99,2.42.07.17.17.34.29.48l2.2,2.8-1.9,1.5-5-6.3,1.9-1.5.9,1.1c-.33-1,.03-2.1.9-2.7v.1Z"/><path d="m187.11,19.67l3.4,7.2-2.2,1-.3-.7c-.27.85-.89,1.54-1.7,1.9-2.03.87-4.38-.06-5.26-2.09-.02-.04-.03-.07-.04-.11-1.04-1.91-.33-4.3,1.59-5.34.04-.02.07-.04.11-.06.79-.48,1.77-.52,2.6-.1l-.3-.7,2.2-1h-.1Zm-.5,4.6c-.41-.98-1.54-1.45-2.53-1.03-.02.01-.05.02-.07.03-.95.41-1.38,1.51-.97,2.46.02.05.04.09.07.14.41.98,1.54,1.45,2.53,1.03.02-.01.05-.02.07-.03.94-.39,1.38-1.47.99-2.4-.03-.07-.06-.13-.1-.2Z"/><path d="m202.81,20.47l.4,4.9-2.4.2-.4-4.7c.07-.6-.35-1.14-.95-1.21-.12-.01-.23,0-.35.01-.8,0-1.2.7-1.1,1.6l.4,4.5-2.4.2-.4-4.7c.07-.6-.35-1.14-.95-1.21-.12-.01-.23,0-.35.01-.8,0-1.2.7-1.1,1.6l.4,4.5-2.4.2-.7-8,2.4-.2v.7c.48-.69,1.26-1.1,2.1-1.1.84-.09,1.67.25,2.2.9.48-.75,1.31-1.21,2.2-1.2,1.8-.2,3.1,1.1,3.3,3h.1Z"/><path d="m208.41,25.07c.54.15,1.11.07,1.6-.2l1.6,1.6c-1.81,1.57-4.56,1.36-6.12-.45-1.57-1.81-1.36-4.56.45-6.12,1.06-.92,2.51-1.26,3.87-.93,2.11.5,3.41,2.61,2.91,4.72-.03.13-.07.26-.11.38-.05.31-.16.62-.3.9l-5.5-1.5c0,.9.72,1.4,1.6,1.6Zm2.2-2.4c.04-.81-.51-1.53-1.3-1.7-.77-.29-1.64.06-2,.8l3.3.9Z"/><path d="m219.41,32.97v-4.4c.1,0-2,2.8-2,2.8l-1.9-1.5,6.8-8.9,1.9,1.5-4.1,5.3,4-1.3,2.2,1.7-4.7,1.4v5l-2.2-1.7v.1Z"/><path d="m225.31,36.47c.34.45.84.74,1.4.8l.3,2.2c-1.37,0-2.66-.62-3.5-1.7-1.54-1.67-1.43-4.27.24-5.81.11-.1.23-.2.36-.29,1.79-1.47,4.44-1.21,5.91.59.03.04.06.07.09.11,1.39,1.77,1.08,4.33-.69,5.71-.04.03-.07.06-.11.09-.24.2-.51.37-.8.5l-3.5-4.5c-.41.72-.29,1.62.3,2.2v.1Zm3.2-.6c.5-.61.5-1.49,0-2.1-.47-.67-1.35-.91-2.1-.6l2.1,2.7Z"/><path d="m236.61,44.97l-8.2.5c-2.7.2-4.2-.7-5-2.8l2.1-.9c.22.89,1.1,1.46,2,1.3l5.8-5.9,1,2.4-3.78,3.65,5.1-.5,1,2.4-.02-.15Z"/><path d="m234.31,56.27c-2.21.39-4.31-1.09-4.7-3.3,0,0,0,0,0,0-.17-.9.09-1.82.7-2.5l-3.9.5-.3-2.4,11.1-1.4.3,2.4h-.7c.71.57,1.18,1.39,1.3,2.3.21,2.16-1.38,4.08-3.54,4.29-.05,0-.11,0-.16.01l-.1.1Zm-.3-2.4c1.01-.07,1.78-.94,1.72-1.96,0-.05,0-.1-.02-.14-.09-.97-.96-1.69-1.93-1.59-.08,0-.17.02-.25.04-1.01.07-1.78.94-1.72,1.96,0,.05,0,.1.02.14.09.97.96,1.69,1.93,1.59.08,0,.17-.02.25-.04Z"/><path d="m236.81,66.77l-7.9-1.4.4-2.4h.7c-.55-.67-.77-1.55-.6-2.4.45-2.12,2.53-3.48,4.66-3.03.05.01.1.02.14.03,2.19.26,3.76,2.24,3.51,4.44,0,.02,0,.04,0,.06-.11.91-.62,1.72-1.4,2.2h.7c0,.1-.4,2.5-.4,2.5h.2Zm-3.5-3.1c1.03.23,2.05-.41,2.29-1.44,0-.02,0-.04.01-.06.22-.97-.38-1.94-1.35-2.16-.08-.02-.17-.03-.25-.04-.94-.25-1.9.31-2.15,1.25-.02.08-.04.17-.05.25-.22.97.38,1.94,1.35,2.16.08.02.17.03.25.04h-.1Z"/><path d="m234.81,78.77l-10-5.1,1.1-2.1.7.3c-.33-.85-.26-1.81.2-2.6,1.23-1.98,3.83-2.59,5.81-1.35,1.74,1.08,2.45,3.25,1.69,5.15-.37.84-1.11,1.47-2,1.7l3.5,1.8-1.1,2.1.1.1Zm-5.3-5.4c.95.44,2.08.01,2.52-.94.44-.95.01-2.08-.94-2.52-.92-.42-2.01-.04-2.48.86-.5.88-.18,2,.7,2.49.07.04.15.08.22.11h-.02Z"/><circle class="cls-5" cx="198.53" cy="194.6" r="45"/><path d="m165.23,179.4c1.82.66,2.75,2.67,2.08,4.49-.03.07-.05.14-.08.21l-.6,1.5,3.1,1.2-.9,2.2-9.8-3.8,1.4-3.7c.65-1.85,2.66-2.82,4.51-2.17.06.02.13.05.19.07h.1Zm-.9,2.2c-.6-.3-1.34-.06-1.64.55-.02.05-.05.1-.06.15l-.6,1.5,2.5,1,.6-1.5c.28-.62.01-1.35-.61-1.63-.06-.03-.13-.05-.19-.07h0Z"/><path d="m172.53,172.9l3.7,2.7-1.3,1.8-3.4-2.5c-.56-.48-1.41-.42-1.89.14-.48.56-.42,1.41.14,1.89.08.07.16.12.25.17l3.3,2.4-1.3,1.8-8.5-6.2,1.3-1.8,3,2.2c-.17-.8.01-1.64.5-2.3.9-1.2,2.5-1.6,4.2-.4v.1Z"/><path d="m174.23,172.3c-1.36-1.67-1.11-4.13.56-5.49.05-.04.1-.08.14-.11,1.72-1.37,4.21-1.1,5.6.6,1.36,1.67,1.11,4.13-.56,5.49-.05.04-.1.08-.14.11-1.72,1.37-4.21,1.1-5.6-.6Zm4.5-3.5c-.6-.77-1.71-.91-2.48-.31,0,0-.01,0-.02.01-.77.58-.92,1.68-.34,2.45.01.02.03.03.04.05.6.77,1.71.91,2.48.31,0,0,.01,0,.02-.01.77-.58.92-1.68.34-2.45-.01-.02-.03-.03-.04-.05Z"/><path d="m188.23,163l1.8,4.2-2.1.9-1.7-3.9c-.18-.62-.82-.98-1.44-.81-.09.03-.17.06-.26.11-.8.3-1.1,1-.7,2l1.6,3.8-2.1.9-2.9-6.9,2.1-.9.3.6c.24-.78.83-1.41,1.6-1.7,1.4-.6,3-.1,3.8,1.8v-.1Z"/><path d="m194.43,164.7c.55-.01,1.04-.32,1.3-.8l1.9.8c-1.19,1.98-3.75,2.63-5.73,1.44-1.03-.62-1.75-1.65-1.97-2.84-.3-2.18,1.22-4.19,3.4-4.5,2.07-.3,3.98,1.14,4.28,3.21,0,.06.02.13.02.19v.9l-5.3.7c.39.65,1.16.97,1.9.8l.2.1Zm1-2.9c-.31-.65-.98-1.04-1.7-1-.77.04-1.4.63-1.5,1.4l3.2-.4Z"/><path d="m199.63,160.6l5.7.6-.2,2.1-5.7-.6.2-2.1Z"/><path d="m214.63,166.22c-.64,1.98-2.76,3.06-4.73,2.42-.02,0-.04-.01-.07-.02-.79-.28-1.43-.85-1.8-1.6l-.3.7-2.1-.8,3.7-9.8,2.1.8-1.3,3.5c.75-.4,1.65-.4,2.4,0,1.9.86,2.75,3.09,1.9,5l.2-.2Zm-2.1-.8c.41-.79.11-1.76-.68-2.17-.1-.05-.21-.1-.32-.13-.83-.39-1.81-.03-2.19.8-.05.1-.08.2-.11.3-.41.79-.11,1.76.68,2.17.1.05.21.1.32.13.83.38,1.81.02,2.19-.8.05-.1.08-.21.11-.32v.02Z"/><path d="m215.73,166.9c1.33-1.77,3.83-2.13,5.6-.8h0c1.72,1.2,2.15,3.56.96,5.29-.05.07-.1.14-.16.21-1.33,1.77-3.83,2.13-5.6.8h0c-1.72-1.2-2.15-3.56-.96-5.29.05-.07.1-.14.16-.21Zm4.6,3.4c.61-.75.5-1.85-.25-2.46-.02-.01-.03-.03-.05-.04-.67-.57-1.67-.49-2.24.18-.06.07-.11.14-.16.22-.61.75-.5,1.85.25,2.46.02.01.03.03.05.04.67.57,1.67.49,2.24-.18.06-.07.11-.14.16-.22h0Z"/><path d="m233.23,174.8l-8.3,6.4-1.4-1.8.6-.4c-.86-.03-1.64-.48-2.1-1.2-1.19-1.73-.75-4.1.98-5.28,0,0,.02-.01.02-.02,1.57-1.35,3.94-1.18,5.29.39,0,0,0,0,.01.01.55.63.78,1.48.6,2.3l2.9-2.3,1.4,1.8v.1Zm-6.7,2.3c.79-.52,1.01-1.58.5-2.37-.03-.05-.06-.09-.1-.13-.52-.76-1.56-.96-2.32-.44-.06.04-.12.09-.18.14-.79.52-1.01,1.58-.5,2.37.03.05.06.09.1.13.52.76,1.56.96,2.32.44.06-.04.12-.09.18-.14Z"/><path d="m235.03,185.8l-7.7.4c-2.5.1-3.9-.7-4.6-2.7l1.9-.8c.22.85,1.03,1.41,1.9,1.3l5.5-5.5.9,2.3-3.6,3.3,4.8-.5.9,2.2h0Z"/><path d="m239.03,191.22l-10.3,1.9-.4-2.4,7.8-1.4-.8-1.7,1.9-.9,1.5,2.5.4,2.1-.1-.1Z"/><path class="cls-57" d="m187.93,227.9c0-.2-.2-.1-.4-.2-2.01-.51-3.42-2.32-3.4-4.4v-38.8c0-2.7,1.1-4.2,3.6-5,.06,0,.1-.04.1-.1h0s3.4,0,3.4,0v.1c.5,1.3,1.1,2.6,1.6,3.9.12.27.4.44.7.4h9.7c.35.03.67-.17.8-.5l.6-1.5c.36-.78.66-1.58.9-2.4h3.3c.2.2.5.2.8.3,1.8.63,3.02,2.3,3.1,4.2v38.8c0,2.8-1.1,4.3-3.8,5.2h-21Zm23.7-7.3h0v-33.8c0-.4-.3-.2-.5-.2h-25.5c-.4,0-.5.1-.5.5v33.4h26.3l.2.1Zm-13.1,3.1h-4.4c-.5,0-.7.2-.6.7s.4.5.7.5h8.6c.5,0,.7-.2.7-.6s-.3-.5-.7-.5h-4.3v-.1Z"/><path class="cls-40" d="m205.73,179.4c-.26.82-.56,1.62-.9,2.4l-.6,1.5c-.09.35-.44.57-.8.5h-9.7c-.3.04-.58-.13-.7-.4-.5-1.3-1.1-2.6-1.6-3.9v-.1h14.3Z"/><path class="cls-2" d="m185.43,220.6c-.2-.1,0-.3,0-.4v-32.98c0-.4,0-.5.5-.5h25.5c.2,0,.4-.2.5.2-.2,0-.3.2-.5.4-.34.49-.71.95-1.1,1.4l-4.3,5.5c-1.1,1.5-2.3,2.9-3.4,4.4l-4.3,5.5c-1.1,1.5-2.3,2.9-3.4,4.4-1.5,2-3.1,3.9-4.6,5.9-1.1,1.4-2.2,2.8-3.2,4.2-.5.7-1.1,1.3-1.5,2l-.2-.02Z"/><path class="cls-45" d="m185.43,220.6c.4-.7,1-1.3,1.5-2,1.1-1.4,2.2-2.8,3.2-4.2,1.5-2,3.1-3.9,4.6-5.9,1.1-1.5,2.3-2.9,3.4-4.4l4.3-5.5c1.1-1.5,2.3-2.9,3.4-4.4l4.3-5.5,1.1-1.4c.09-.21.28-.36.5-.4v33.7h-26.3Z"/><path class="cls-25" d="m198.53,223.7h4.3c.4,0,.7,0,.7.5s-.2.6-.7.6h-8.6c-.3,0-.6,0-.7-.5s.1-.7.6-.7h4.4v.1Z"/><path d="m196.83,190.3h5.7v25.92h-6.6v-18.9l-4.5,1.1-1.6-5.6,7-2.52Z"/><circle class="cls-3" cx="334.81" cy="199.21" r="45"/><path class="cls-56" d="m334.81,186.01h28.5c2.15-.11,3.99,1.55,4.1,3.7v1c-.08.77-.22,1.54-.4,2.3-.3,1.6,0,2,1.6,1.9,2.7-.1,3.4.8,3.3,3.3v17.8c0,5.9-.7,2.6-2.6,2.6h-5.5c-1.3,0-1.4.1-1.7,1.4l-.7,4.2c-.29,1.92-1.96,3.33-3.9,3.3h-45.3c-1.99.05-3.68-1.42-3.9-3.4-.3-1.5-.5-2.9-.8-4.4-.1-.8-.5-1.1-1.3-1.1h-6.1c-1.13.11-2.14-.68-2.3-1.8v-19.59c-.11-1.13.68-2.14,1.8-2.3h1.8c1.1,0,1.5-.4,1.3-1.6-.12-.91-.29-1.81-.5-2.7-.44-2.1.9-4.15,3-4.6h29.6Zm0,7.6h-19.9c-2.4,0-3.7,1.6-3.3,4,.4,2.4.9,4.9,1.3,7.4.8,4.2,1.5,8.4,2.3,12.6.25,1.5,1.58,2.57,3.1,2.5h32.9c1.52.07,2.85-1,3.1-2.5.5-2.6,1-5.3,1.4-7.9.7-4,1.5-8.1,2.1-12.1.4-2.3-.9-3.8-3.3-3.8h-19.8l.1-.2Zm30.4,5.1c-1.32.04-2.4,1.08-2.5,2.4h0c0,1.33,1.08,2.4,2.41,2.39,1.32,0,2.39-1.07,2.39-2.39h0c.04-1.26-.94-2.33-2.2-2.4h-.1,0Zm-60.8,16.1c1.32-.02,2.38-1.08,2.4-2.4h0c-.05-1.3-1.1-2.35-2.4-2.4-1.35.03-2.42,1.15-2.4,2.5h0c-.07,1.2.85,2.23,2.06,2.3.05,0,.1,0,.14,0h.2Zm-2.4-13.7c.02,1.32,1.08,2.38,2.4,2.4,1.32-.04,2.4-1.08,2.5-2.4.01-1.37-1.09-2.49-2.46-2.5-.01,0-.03,0-.04,0h0c-1.26-.04-2.33.94-2.4,2.2v.3Zm65.6,11.3c0-1.3-1-2.39-2.3-2.5-1.32.04-2.4,1.08-2.5,2.4.02,1.32,1.08,2.38,2.4,2.4,1.24.09,2.31-.85,2.4-2.09,0,0,0,0,0,0v-.2Z"/><path class="cls-14" d="m334.81,193.61h19.9c2.4,0,3.7,1.4,3.3,3.8-.7,4-1.4,8.1-2.1,12.1-.5,2.6-.9,5.3-1.4,7.9-.25,1.5-1.58,2.57-3.1,2.5h-33.1c-1.52.07-2.85-1-3.1-2.5-.8-4.2-1.5-8.4-2.3-12.5-.4-2.5-.9-4.9-1.3-7.4-.4-2.5.9-4,3.3-4h19.9v.1Zm-12.6,8.1c0-1.38-1.12-2.5-2.5-2.5s-2.5,1.12-2.5,2.5,1.12,2.5,2.5,2.5c1.37.01,2.49-1.09,2.5-2.46,0-.01,0-.03,0-.04h0Zm2.5,7.7c-1.32.04-2.4,1.08-2.5,2.4,0,1.38,1.12,2.5,2.5,2.5s2.5-1.12,2.5-2.5c0-1.32-1.06-2.4-2.38-2.4-.04,0-.08,0-.12,0Zm27.7-7.6c.02-1.35-1.05-2.47-2.4-2.5-1.34,0-2.44,1.06-2.5,2.4-.02,1.35,1.05,2.47,2.4,2.5h0c1.35-.03,2.42-1.15,2.4-2.5h0l.1.1Zm-7.5,7.6c.03-1.41,1.19-2.53,2.6-2.5,1.41.03,2.53,1.19,2.5,2.6s-1.19,2.53-2.6,2.5c-1.37-.03-2.47-1.13-2.5-2.5h0v-.1Zm-12.6-7.6c-1.35.03-2.43,1.15-2.4,2.5s1.15,2.43,2.5,2.4c1.35-.03,2.43-1.15,2.4-2.5-.03-1.31-1.09-2.37-2.4-2.4h-.1Zm7.6-2.5c-1.38,0-2.5,1.12-2.5,2.5s1.12,2.5,2.5,2.5,2.5-1.12,2.5-2.5c.01-1.37-1.09-2.49-2.46-2.5-.01,0-.03,0-.04,0h0Zm-2.6,12.7c.02-1.35-1.05-2.47-2.4-2.5-1.35-.03-2.47,1.05-2.5,2.4-.03,1.35,1.05,2.47,2.4,2.5h0c1.35.02,2.47-1.05,2.5-2.4Z"/><path class="cls-38" d="m365.21,198.71c1.26-.04,2.33.94,2.4,2.2v.2c0,1.34-1.06,2.44-2.4,2.5h0c-1.33,0-2.4-1.08-2.39-2.41,0-1.32,1.07-2.39,2.39-2.39h0v-.1Z"/><path class="cls-38" d="m304.41,214.81c-1.23.05-2.28-.87-2.4-2.1v-.2c-.03-1.35,1.05-2.47,2.4-2.5,0,0,0,0,0,0h0c1.35-.03,2.47,1.05,2.5,2.4.03,1.35-1.05,2.47-2.4,2.5h0l-.1-.1Z"/><path class="cls-38" d="m302.01,201.11c-.05-1.23.87-2.28,2.1-2.4h.3c1.32,0,2.4,1.06,2.4,2.38,0,.04,0,.08,0,.12-.05,1.3-1.1,2.35-2.4,2.4-1.32-.02-2.38-1.08-2.4-2.4v-.1Z"/><path class="cls-38" d="m367.61,212.41c.04,1.26-.94,2.33-2.2,2.4h-.2c-1.32-.02-2.38-1.08-2.4-2.4.06-1.34,1.16-2.39,2.5-2.4,1.28,0,2.31,1.05,2.31,2.33,0,.06,0,.11,0,.17v-.1Z"/><path class="cls-20" d="m322.21,201.71c0,1.38-1.12,2.5-2.5,2.5s-2.5-1.12-2.5-2.5,1.12-2.5,2.5-2.5h0c1.36.06,2.44,1.14,2.5,2.5Z"/><path class="cls-16" d="m324.71,209.31c1.32.04,2.4,1.08,2.5,2.4,0,1.38-1.12,2.5-2.5,2.5s-2.5-1.12-2.5-2.5h0c.03-1.35,1.15-2.43,2.5-2.4,0,0,0,0,0,0Z"/><path class="cls-49" d="m352.41,201.71c0,1.38-1.12,2.5-2.5,2.5s-2.5-1.12-2.5-2.5,1.12-2.5,2.5-2.5c1.37-.01,2.49,1.09,2.5,2.46,0,.01,0,.03,0,.04Z"/><path class="cls-16" d="m344.91,209.31c1.38,0,2.5,1.12,2.5,2.5s-1.12,2.5-2.5,2.5-2.5-1.12-2.5-2.5c-.01-1.37,1.09-2.49,2.46-2.5.01,0,.03,0,.04,0Z"/><path class="cls-14" d="m332.35,207.74c1.84-.04,3.3-1.56,3.26-3.39-.04-1.84-1.56-3.3-3.39-3.26s-3.3,1.56-3.26,3.39c.04,1.78,1.47,3.22,3.26,3.26h.14Z"/><path class="cls-16" d="m339.81,199.22c1.38,0,2.5,1.12,2.5,2.5s-1.12,2.5-2.5,2.5-2.5-1.12-2.5-2.5c-.01-1.37,1.09-2.49,2.46-2.5.01,0,.03,0,.04,0Z"/><path class="cls-16" d="m337.21,211.91c-.03,1.35-1.15,2.43-2.5,2.4,0,0,0,0,0,0-1.34-.06-2.39-1.16-2.4-2.5.03-1.35,1.15-2.43,2.5-2.4,0,0,0,0,0,0,1.34.06,2.39,1.16,2.4,2.5Z"/><path d="m319.91,166.91c1.3,2.34.45,5.29-1.89,6.59,0,0,0,0-.01,0l-1.8,1,2.2,3.8-2.8,1.6-7-12.1,4.6-2.6c2.23-1.37,5.15-.67,6.52,1.56.03.05.05.09.08.14h.1Zm-2.8,1.6c-.42-.84-1.44-1.18-2.28-.77-.04.02-.08.04-.12.07l-1.8,1,1.8,3.1,1.8-1c.82-.5,1.09-1.57.6-2.4h0Z"/><path d="m323.01,170.22c-.56-2.87,1.32-5.65,4.2-6.21,2.87-.56,5.65,1.32,6.21,4.2.56,2.87-1.32,5.65-4.2,6.21,0,0,0,0,0,0-2.87.54-5.64-1.34-6.2-4.2Zm7.5-1.4c-.19-1.25-1.35-2.1-2.59-1.92-.04,0-.07.01-.11.02-1.21.19-2.04,1.32-1.86,2.53.01.09.03.18.06.27.19,1.25,1.35,2.1,2.59,1.92.04,0,.07-.01.11-.02,1.19-.17,2.02-1.26,1.85-2.45-.01-.08-.03-.17-.05-.25v-.1Z"/><path d="m342.11,163.91l-.3,3.4c-1.2-.3-3,0-3.2,2l-.4,4.5-3-.3,1-10,3,.3-.2,1.8c.57-1.22,1.87-1.91,3.2-1.7h-.1Z"/><path d="m347.91,168.81l-1.1,3.4c-.3.8.4,1.1,1.7,1.5l-.9,2.6c-3.8-.9-4.5-2.4-3.6-5l1.1-3.4-1.5-.5.9-2.7,1.5.5.6-1.8h3.1c0,.1-.9,2.8-.9,2.8l2,.7-.9,2.7-2-.7v-.1Z"/><path d="m356.41,178.22c-1.2,1.9-3.5,1.7-5.3.5-1.58-.82-2.49-2.53-2.3-4.3l3,.2c-.25.74.09,1.56.8,1.9.6.4,1,.4,1.2,0,.6-.9-3.8-3.1-2-6,1.2-1.8,3.3-1.8,5.1-.6,1.37.81,2.18,2.31,2.1,3.9l-2.9-.2c0-.6,0-1.1-.6-1.5-.4-.3-.8-.3-1,0-.6.99,3.9,2.99,1.9,6.1Z"/><path class="cls-16" d="m331.21,204.71c1.35-.03,2.43-1.15,2.4-2.5-.03-1.35-1.15-2.43-2.5-2.4s-2.43,1.15-2.4,2.5c.03,1.31,1.09,2.37,2.4,2.4h.1Z"/></svg>