<?xml version="1.0" encoding="UTF-8"?><svg id="Layer_1" xmlns="http://www.w3.org/2000/svg" viewBox="0 0 400 400"><defs><style>.cls-1{fill:#a7cefe;}.cls-2{stroke:#a5262d;}.cls-2,.cls-3,.cls-4{stroke-width:4px;}.cls-2,.cls-3,.cls-4,.cls-5{stroke-miterlimit:10;}.cls-2,.cls-3,.cls-4,.cls-5,.cls-6{fill:none;}.cls-3{stroke:#0018c6;}.cls-7{fill:#8ac5cd;}.cls-4{stroke:#c000e2;}.cls-8{fill:#717f8f;}.cls-9{fill:#c69c6d;}.cls-5{stroke:#231f20;stroke-width:2px;}.cls-10{fill:#3b566a;}.cls-11{fill:#b2d3d9;}.cls-12{fill:#b3d4da;}.cls-13{fill:#728090;}.cls-14{fill:#484645;}.cls-15{fill:#637889;}.cls-16{fill:#b6d6fd;}.cls-17{fill:#b3b3b3;}.cls-18{fill:#88c4cc;}.cls-19{fill:#2f4859;}.cls-20{fill:#33b1cb;}.cls-21{fill:#304959;}.cls-22{fill:#3f4a5b;}.cls-23{fill:#231f20;}.cls-24{fill:#33b1cc;}.cls-25{fill:#86cde8;}</style></defs><line class="cls-6" x1="200.27" y1="115.12" x2="200.77" y2="147.9"/><line class="cls-5" x1="200.27" y1="115.12" x2="200.61" y2="137.14"/><polygon class="cls-23" points="193.1 135.06 200.77 147.9 208.07 134.84 193.1 135.06"/><line class="cls-6" x1="118.67" y1="110.86" x2="167.33" y2="150.16"/><line class="cls-5" x1="118.67" y1="110.86" x2="158.96" y2="143.4"/><polygon class="cls-23" points="152.55 147.84 167.33 150.17 161.96 136.21 152.55 147.84"/><line class="cls-6" x1="281.33" y1="110.86" x2="232.68" y2="150.16"/><line class="cls-5" x1="281.33" y1="110.86" x2="241.05" y2="143.4"/><polygon class="cls-23" points="238.05 136.21 232.68 150.16 247.46 147.84 238.05 136.21"/><circle class="cls-2" cx="91.11" cy="61.42" r="45"/><path d="m65.01,45.82l1-3c1.15.63,2.58.43,3.5-.5,1.1-1,1-1.7.7-2.1-.6-.6-1.4-.4-3.4.6s-4.1,1.5-5.9-.5c-1.8-2-1.1-4.7.7-6.3,1.58-1.5,3.91-1.9,5.9-1l-1,3c-.95-.52-2.13-.36-2.9.4-.8.7-.8,1.4-.4,1.8s1,.6,3-.4,4.3-1.9,6.2.3c1.8,2,1.2,4.7-1.1,6.7-2.3,2-4.5,2.1-6.5,1.1l.2-.1Z"/><path d="m70.01,29.92c-.44-.88-.08-1.96.8-2.4s1.96-.08,2.4.8.08,1.96-.8,2.4h0c-.89.39-1.92.04-2.4-.8Zm1.5,2.3l2.7-1.4,4.5,8.9-2.7,1.4-4.5-8.9Z"/><path d="m75.81,25.22l2.9-.9,4.5,13.9-2.9.9-4.5-13.9Z"/><path d="m82.41,25.33c-.16-.99.51-1.93,1.5-2.09.99-.16,1.93.51,2.09,1.5.16.99-.5,1.92-1.49,2.09-.98.17-1.92-.49-2.1-1.47,0,0,0-.02,0-.03Zm.7,2.6l3-.5,1.6,9.9-3,.5-1.6-9.9Z"/><path d="m89.01,31.92c.13-2.85,2.55-5.06,5.41-4.92.1,0,.2.01.29.02,1.86.09,3.52,1.21,4.3,2.9l-2.7,1.3c-.53-1.13-1.88-1.62-3.01-1.09-.74.35-1.24,1.07-1.29,1.89-.16,1.22.7,2.33,1.92,2.48.06,0,.12.01.18.02.8.07,1.58-.31,2-1l2.5,1.7c-1.02,1.56-2.84,2.41-4.7,2.2-2.88-.17-5.08-2.65-4.91-5.53,0-.06,0-.11.01-.17v.2Z"/><path d="m99.91,32.92c1.13-2.68,4.22-3.94,6.9-2.81,2.68,1.13,3.94,4.22,2.81,6.9-1.13,2.68-4.22,3.94-6.9,2.81,0,0,0,0,0,0-2.66-1.09-3.94-4.14-2.84-6.8.01-.03.03-.07.04-.1Zm7,2.9c.53-1.17.02-2.54-1.14-3.08-.02,0-.04-.02-.06-.02-1.11-.5-2.42,0-2.92,1.11-.03.06-.05.13-.08.19-.56,1.1-.11,2.45.99,3.01.07.03.14.06.21.09,1.11.5,2.42,0,2.92-1.11.03-.06.05-.13.08-.19Z"/><path d="m119.41,44.02l-4.2,4.5-2.2-2,3.9-4.2c.69-.6.76-1.65.16-2.34-.05-.06-.1-.11-.16-.16-.72-.71-1.87-.7-2.57.02-.08.09-.16.18-.23.28l-3.7,4-2.2-2,6.8-7.4,2.2,2-.6.7c1.07-.18,2.17.19,2.9,1,1.5,1.4,1.8,3.6,0,5.6h-.1Z"/><rect class="cls-9" x="64.21" y="51.92" width="52" height="37" rx="2.9" ry="2.9"/><path class="cls-14" d="m86.41,83.02c-2.18.11-4.34-.45-6.2-1.6-1.58-1.02-2.78-2.53-3.4-4.3l5.2-3c.69,1.97,2.62,3.24,4.7,3.1,2.3,0,2.8-.5,2.8-1.6s-.5-1.2-1.6-1.7c-.97-.38-1.98-.68-3-.9-1.91-.44-3.66-1.37-5.1-2.7-1.32-1.19-2.02-2.93-1.9-4.7-.03-2.02.81-3.95,2.3-5.3,1.65-1.39,3.77-2.11,5.92-1.99,1.87-.07,3.71.42,5.3,1.4,1.54.96,2.76,2.35,3.5,4l-5.1,3c-.5-1.61-2.02-2.67-3.7-2.6-1.7,0-1.3.1-1.6.4-.36.25-.59.66-.6,1.1.05.54.34,1.02.8,1.3,1,.59,2.08,1.03,3.2,1.3,1.1.4,2,.7,2.8,1,.8.34,1.56.74,2.3,1.2.78.55,1.43,1.26,1.9,2.1.41.95.61,1.97.6,3,.11,2.1-.83,4.12-2.5,5.4-1.87,1.4-4.17,2.11-6.5,2l-.12.09Z"/><path class="cls-14" d="m102.61,63.33c-.6.63-1.43.99-2.3,1-1.79.03-3.27-1.4-3.31-3.19-.02-.91.35-1.78,1.01-2.41.61-.6,1.44-.92,2.3-.9.85,0,1.68.32,2.3.9.63.6.99,1.43,1,2.3.02.88-.35,1.72-1,2.3Zm-5.1,19.2v-16.91h5.62v16.9h-5.62Z"/><circle class="cls-2" cx="199.99" cy="61.42" r="45"/><rect class="cls-17" x="173.99" y="51.42" width="52" height="37" rx="2.9" ry="2.9"/><path class="cls-14" d="m200.8,81.72l-1.1-3.4h-8l-1,3.4h-6.5l7.5-23.6h7.6l7.8,23.6h-6.3Zm-7.6-8.6h4.8l-2.4-8-2.4,8Z"/><path class="cls-14" d="m208.49,81.72v-24.7h5.63v24.7h-5.63Z"/><path d="m176.13,40.12l-2.4,3.1,1,1.4-1.6,2.1-6.1-9.3,1.9-2.4,10.5,3.7-1.6,2.1-1.6-.6-.1-.1Zm-2.2-.8l-3.8-1.4,2.3,3.3,1.5-1.9Z"/><path d="m172.8,30.33l1.7-1.4,7,8.4-1.7,1.4-7-8.4Z"/><path d="m184.99,26.52l3.6,6.6-2,1.1-.3-.6c-.11.81-.64,1.49-1.4,1.8-1.33.74-3.01.25-3.75-1.08-.06-.1-.11-.21-.15-.32l-2.2-4,2-1.1,2,3.8c.29.65,1.06.94,1.71.65.03-.01.06-.03.09-.05.67-.32.95-1.12.63-1.79-.04-.07-.08-.15-.13-.21l-2-3.6,2-1.1-.1-.1Z"/><path d="m199.6,26.02l.8,4.5-2.2.4-.8-4.3c-.03-.6-.54-1.05-1.14-1.02-.06,0-.11.01-.16.02-.7.1-1.1.7-.9,1.6l.7,4.2-2.2.4-.8-4.3c-.03-.6-.54-1.05-1.14-1.02-.06,0-.11.01-.16.02-.7.1-1.1.7-.9,1.6l.7,4.2-2.2.4-1.3-7.4,2.2-.4v.7c.41-.67,1.12-1.11,1.9-1.2.76-.23,1.58,0,2.1.6.37-.79,1.13-1.33,2-1.4,1.7-.3,3,.7,3.3,2.6l.2-.2Z"/><path d="m201.9,23.62l2.2.2-.6,7.5-2.2-.2.6-7.5Zm0-2c.08-.75.75-1.29,1.5-1.2.75.08,1.29.75,1.2,1.5s-.75,1.29-1.5,1.2c0,0,0,0,0,0-.72-.05-1.26-.66-1.21-1.38,0-.04,0-.08.01-.12Z"/><path d="m212.9,28.72l-1.2,4.4-2.2-.6,1.1-4.1c.24-.68-.11-1.42-.78-1.66-.04-.01-.08-.03-.12-.04-.69-.26-1.46.08-1.72.76-.04.11-.07.22-.08.34l-1.1,3.9-2.2-.6,2-7.2,2.2.6-.2.7c.67-.47,1.53-.58,2.3-.3,1.49.39,2.38,1.91,2,3.4-.03.1-.06.2-.1.3l.1.1Z"/><path d="m222.49,30.72l-3.8,6.4-1.9-1.2.4-.6c-.77.29-1.63.18-2.3-.3-1.32-.77-1.78-2.46-1.01-3.78.06-.11.13-.22.21-.32l2.4-4,1.9,1.2-2.2,3.7c-.41.5-.34,1.24.16,1.65.07.06.15.11.24.15.63.41,1.48.23,1.89-.4.04-.06.08-.13.11-.2l2.1-3.5,1.9,1.2h-.1Z"/><path d="m230.3,43.02l-3.5,3-1.5-1.7,3.4-2.9c.6-.5.7-1.1.2-1.6-.43-.5-1.18-.55-1.68-.12-.04.04-.08.08-.12.12l-3.2,2.7-1.5-1.7,3.4-2.9c.6-.5.7-1.1.2-1.6-.43-.5-1.18-.55-1.68-.12-.04.04-.08.08-.12.12l-3.2,2.7-1.5-1.7,5.7-4.9,1.5,1.7-.5.4c.76,0,1.49.34,2,.9.54.56.73,1.36.5,2.1.85-.02,1.66.35,2.2,1,1.03,1.19.9,3-.29,4.03-.07.06-.14.11-.21.17l-.1.3Z"/><circle class="cls-2" cx="308.89" cy="61.42" r="45"/><path class="cls-25" d="m278.89,63.72v-.6c.31-.48.83-.78,1.4-.8,1.39-.15,2.46-1.3,2.5-2.7v-.5c.05-.45.46-.77.91-.72.03,0,.06,0,.09.02.46-.01.86.34.9.8-.02.27.02.54.1.8.21,1.11,1.09,1.99,2.2,2.2.7.2.7.1.7-.6v-13.5c-.06-.38.2-.74.58-.8.07-.01.15-.01.22,0h30.63c0,.3-.3.4-.5.6l-7.2,7.2c-.2.17-.36.38-.5.6-.19.4-.11.88.2,1.2.32.33.83.37,1.2.1.21-.11.39-.29.5-.5l8.3-8.3c.29-.27.5-.62.6-1h3.4c0,.3-.3.4-.5.6l-13.3,13.3-.5.5c-.25.29-.25.71,0,1,.16.35.52.55.9.5.33-.05.64-.19.9-.4l14.6-14.6c.29-.21.48-.54.5-.9h1.1c1,0,.9-.1.9.9v28.3q0,.8.8.6c1.27-.35,2.16-1.49,2.2-2.8-.06-.49.29-.94.79-1,.07,0,.14,0,.21,0,.6,0,.9.4,1,1,.05,1.54,1.26,2.8,2.8,2.9.52,0,1,.32,1.2.8v.6c-.22.41-.64.67-1.1.7-1.57.04-2.81,1.33-2.8,2.9-.03.34-.17.65-.4.9-.25.23-.61.27-.9.1-.38-.12-.63-.5-.6-.9-.2-1.6-.9-2.6-2.3-2.9-.7-.2-.7-.1-.7.6v12.6c0,.53-.24.8-.7.8h-21.6c0-.3.3-.4.5-.6l7.5-7.5c.5-.6.6-1.1.1-1.5-.39-.38-1.01-.38-1.4,0l-.1.1-8.7,8.7c-.25.25-.42.56-.5.9h-3.4c0-.3.3-.4.5-.6l13.3-13.3c.2-.17.36-.38.5-.6.24-.39.16-.91-.2-1.2-.31-.33-.83-.35-1.16-.04-.01.01-.03.03-.04.04-.1,0-.2.2-.3.3l-14.63,14.63c-.26.24-.44.55-.5.9h-10.1c-.44.06-.84-.25-.9-.69,0-.07,0-.14,0-.21v-27.53c0-.7,0-.8-.7-.6-1.32.36-2.25,1.54-2.3,2.9.03.52-.36.97-.88,1-.04,0-.08,0-.12,0-.55,0-1-.45-1-1v-.3c-.14-1.41-1.28-2.51-2.7-2.6-.52-.02-.99-.28-1.3-.7l-.2-.1Zm5,.6c.37-.22.68-.53.9-.9-.27-.36-.58-.69-.9-1-.35.25-.65.55-.9.9.25.35.55.65.9.9h0v.1Zm50.9,14.2c-.19-.39-.51-.71-.9-.9-.35.25-.65.55-.9.9l.9.9.9-.9Z"/><path class="cls-24" d="m325.3,47.52c.3-.11.54-.32.7-.6.8-.8,1.6-.6,1.9.5-.04.35-.22.68-.5.9l-14.6,14.6c-.21.28-.55.43-.9.4-.37,0-.71-.19-.9-.5-.2-.3-.2-.7,0-1,.11-.21.29-.39.5-.5l13.3-13.3c.2-.2.4-.3.5-.6v.1Z"/><path class="cls-20" d="m301.49,93.32c-.3.1-.5.4-.8.6-.8.7-1.6.5-1.8-.6.02-.36.21-.69.5-.9l14.6-14.6.3-.3c.36-.25.84-.25,1.2,0,.36.29.44.81.2,1.2-.14.22-.3.43-.5.6l-13.3,13.33c-.2.2-.4.3-.5.6l.1.07Z"/><path class="cls-24" d="m319.2,47.52c.2,0,.4-.2.6-.4,1-1,1.6-.8,2.1.4-.08.39-.29.75-.6,1l-8.3,8.3-.5.5c-.37.27-.88.23-1.2-.1-.38-.25-.49-.77-.24-1.15.01-.02.02-.03.04-.05.11-.24.28-.45.5-.6l7.2-7.2c.2-.2.4-.3.5-.6l-.1-.1Z"/><path class="cls-24" d="m307.49,93.42c-.3.11-.54.32-.7.6-.8.8-1.6.5-1.9-.5.02-.33.21-.63.5-.8l8.7-8.7c.25-.43.8-.58,1.23-.33.06.04.12.08.17.13l.1.1c.39.39.39,1.02,0,1.41-.03.03-.06.06-.1.09l-7.5,7.5c-.2.2-.4.3-.4.6l-.1-.1Z"/><path d="m297.2,31.22c2.03,2.82,1.4,6.75-1.41,8.78-.16.11-.32.22-.49.32-2.98,2.46-7.39,2.05-9.86-.93-2.46-2.98-2.05-7.39.93-9.86.38-.31.79-.58,1.22-.81,1.95-1.32,4.44-1.55,6.6-.6l-1.4,2.7c-1.21-.46-2.57-.27-3.6.5-1.8,1.08-2.37,3.42-1.29,5.22.06.1.12.19.19.28,1.2,1.9,3.5,2.4,5.7,1,1.3-.69,2-2.16,1.7-3.6l-3,1.9-1.5-2.2,5.6-3.7.6,1Z"/><path d="m298.13,23.52l2.8-.7,3.5,13.5-2.8.7-3.5-13.5Z"/><path d="m315.6,26.32l-.2,9.6h-2.9v-1c-.76.77-1.82,1.18-2.9,1.1-2.5,0-4.5-2.3-4.5-5.1-.09-2.62,1.96-4.81,4.58-4.9.04,0,.08,0,.12,0,1.07-.05,2.1.39,2.8,1.2v-.9h3Zm-3,4.7c.1-1.22-.8-2.29-2.01-2.39-.06,0-.13,0-.19,0-1.18-.09-2.21.8-2.3,1.99,0,.1,0,.21,0,.31-.1,1.22.8,2.29,2.01,2.39.06,0,.13,0,.19,0,1.18.09,2.21-.8,2.3-1.99,0-.1,0-.21,0-.31Z"/><path d="m324.3,36.22c-.8,2.1-2.9,2.3-4.8,1.6-1.65-.49-2.86-1.9-3.1-3.6l2.8-.5c-.07.73.39,1.4,1.1,1.6.6.2,1,.2,1.2-.2.4-1-4.2-2.1-3.1-5.2.7-2,2.7-2.3,4.6-1.6,1.45.47,2.53,1.7,2.8,3.2l-2.8.4c.03-.56-.35-1.07-.9-1.2-.5-.2-.8-.1-.9.2-.4,1,4.3,2,3.1,5.3Z"/><path d="m330.99,41.02c-1.3,1.8-3.4,1.4-5.1.2-1.46-.91-2.25-2.6-2-4.3l2.8.3c-.22.72.06,1.5.7,1.9.6.4,1,.4,1.2.1.6-.9-3.5-3.2-1.6-5.8,1.2-1.7,3.3-1.5,4.9-.3,1.27.82,1.97,2.29,1.8,3.8l-2.8-.4c0-.6,0-1.1-.5-1.4s-.8-.3-1,0c-.6.9,3.6,3.1,1.5,5.9h.1Z"/><line class="cls-6" x1="199.7" y1="251.63" x2="200.2" y2="284.41"/><line class="cls-5" x1="199.7" y1="251.63" x2="200.04" y2="273.65"/><polygon class="cls-23" points="192.52 271.57 200.2 284.41 207.48 271.35 192.52 271.57"/><circle class="cls-4" cx="200" cy="338.58" r="45"/><path d="m166.7,323.38c1.9.7,2.8,2.8,2,4.7l-.6,1.5,3.1,1.2-.9,2.2-9.8-3.8,1.4-3.7c.7-1.9,2.8-2.9,4.7-2.1h.1Zm-.9,2.2c-.7-.3-1.5,0-1.7.7l-.6,1.5,2.5,1,.6-1.5c.3-.7,0-1.4-.8-1.7Z"/><path d="m174,316.88l3.7,2.7-1.3,1.8-3.4-2.5c-.7-.6-1.4-.3-1.9.2-.5.7-.4,1.4.4,2l3.3,2.4-1.3,1.8-8.5-6.2,1.3-1.8,3,2.2c-.2-.7,0-1.5.5-2.3.9-1.2,2.5-1.6,4.2-.4v.1Z"/><path d="m175.7,316.28c-1.4-1.8-1.1-4.2.7-5.6,1.7-1.4,4.2-1.1,5.6.6,1.4,1.8,1.1,4.2-.7,5.6-1.7,1.4-4.2,1.1-5.6-.6Zm4.5-3.5c-.7-.8-1.7-.9-2.5-.3s-.9,1.6-.3,2.5c.7.8,1.7.9,2.5.3s.9-1.6.3-2.5Z"/><path d="m189.7,306.98l1.8,4.2-2.1.9-1.7-3.9c-.4-.9-1.1-1-1.7-.7-.8.3-1.1,1-.7,2l1.6,3.8-2.1.9-2.9-6.9,2.1-.9.3.6c.2-.7.7-1.3,1.6-1.7,1.4-.6,3-.1,3.8,1.8v-.1Z"/><path d="m195.9,308.68c.6,0,1.1-.4,1.3-.8l1.9.8c-.6,1.1-1.6,1.8-3,2-2.5.4-4.4-1.1-4.7-3.4-.3-2.2,1.1-4.1,3.4-4.5,2.2-.3,4,1.2,4.3,3.4v.9l-5.3.7c.4.7,1.1.9,1.9.8l.2.1Zm1-2.9c-.4-.8-1.1-1-1.7-1-.8.1-1.4.6-1.5,1.4l3.2-.4Z"/><path d="m201.1,304.58l5.7.6-.2,2.1-5.7-.6.2-2.1Z"/><path d="m216.1,310.18c-.8,2.1-2.9,3.1-4.8,2.4-.9-.4-1.5-.9-1.8-1.6l-.3.7-2.1-.8,3.7-9.8,2.1.8-1.3,3.5c.7-.4,1.5-.4,2.4,0,1.8.7,2.7,2.9,1.9,5l.2-.2Zm-2.1-.8c.4-1.1,0-2-1-2.3-1-.4-1.9,0-2.3,1.1-.4,1.1,0,2,1,2.3,1,.4,1.9,0,2.3-1.1Z"/><path d="m217.2,310.88c1.3-1.8,3.8-2.1,5.6-.8,1.8,1.3,2.2,3.8.8,5.5-1.3,1.8-3.8,2.1-5.6.8-1.8-1.3-2.2-3.8-.8-5.5Zm4.6,3.4c.6-.9.5-1.9-.3-2.5s-1.8-.5-2.4.4-.5,1.9.3,2.5,1.8.5,2.4-.4Z"/><path d="m234.7,318.78l-8.3,6.4-1.4-1.8.6-.4c-.8,0-1.5-.4-2.1-1.2-1.2-1.6-.8-3.9,1-5.3,1.8-1.4,4.1-1.1,5.3.4.6.8.8,1.6.6,2.3l2.9-2.3,1.4,1.8v.1Zm-6.7,2.3c.9-.7,1-1.7.4-2.5s-1.6-1-2.5-.3-1,1.7-.4,2.5,1.6,1,2.5.3Z"/><path d="m236.5,329.78l-7.7.4c-2.5.1-3.9-.7-4.6-2.7l1.9-.8c.4,1,.9,1.3,1.9,1.3l5.5-5.5.9,2.3-3.6,3.3,4.8-.5.9,2.2h0Z"/><path d="m240.5,335.18l-10.3,1.9-.4-2.4,7.8-1.4-.8-1.7,1.9-.9,1.5,2.5.4,2.1-.1-.1Z"/><path class="cls-22" d="m189.4,371.88c0-.2-.2-.1-.4-.2-2-.5-3.4-2.3-3.4-4.4v-38.8c0-2.7,1.1-4.2,3.6-5,0,0,.1,0,.1-.1h3.4v.1c.5,1.3,1.1,2.6,1.6,3.9.1.3.4.4.7.4h9.7c.4,0,.7-.2.8-.5.2-.5.4-1,.6-1.5.3-.8.7-1.5.9-2.4h3.3c.2.2.5.2.8.3,1.8.6,3,2.3,3.1,4.2v38.8c0,2.8-1.1,4.3-3.8,5.2h-21.1.1Zm23.7-7.3h0v-33.8c0-.4-.3-.2-.5-.2h-25.5c-.4,0-.5.1-.5.5v33.4h26.3l.2.1Zm-13.1,3.1h-4.4c-.5,0-.7.2-.6.7,0,.4.4.5.7.5h8.6c.5,0,.7-.2.7-.6,0-.5-.3-.5-.7-.5h-4.3v-.1Z"/><path class="cls-13" d="m207.2,323.38c-.2.8-.6,1.6-.9,2.4-.2.5-.4,1-.6,1.5-.1.3-.4.6-.8.5h-9.7c-.3,0-.6-.1-.7-.4-.5-1.3-1.1-2.6-1.6-3.9v-.1h14.4-.1Z"/><path class="cls-1" d="m186.9,364.58c-.2-.1,0-.3,0-.4v-33c0-.4,0-.5.5-.5h25.5c.2,0,.4-.2.5.2-.2,0-.3.2-.5.4-.4.5-.7,1-1.1,1.4-1.4,1.8-2.9,3.7-4.3,5.5-1.1,1.5-2.3,2.9-3.4,4.4-1.4,1.8-2.9,3.7-4.3,5.5-1.1,1.5-2.3,2.9-3.4,4.4-1.5,2-3.1,3.9-4.6,5.9-1.1,1.4-2.2,2.8-3.2,4.2-.5.7-1.1,1.3-1.5,2h-.2Z"/><path class="cls-16" d="m186.9,364.58c.4-.7,1-1.3,1.5-2,1.1-1.4,2.2-2.8,3.2-4.2,1.5-2,3.1-3.9,4.6-5.9,1.1-1.5,2.3-2.9,3.4-4.4,1.4-1.8,2.9-3.7,4.3-5.5,1.1-1.5,2.3-2.9,3.4-4.4,1.4-1.8,2.9-3.7,4.3-5.5.4-.5.7-.9,1.1-1.4.1-.2.2-.3.5-.4v33.7h-26.3Z"/><path class="cls-8" d="m200,367.68h4.3c.4,0,.7,0,.7.5,0,.4-.2.6-.7.6h-8.6c-.3,0-.6,0-.7-.5,0-.4.1-.7.6-.7h4.4v.1Z"/><path d="m198.3,334.28h5.7v25.9h-6.6v-18.9l-4.5,1.1-1.6-5.6s7-2.5,7-2.5Z"/><circle class="cls-3" cx="200.04" cy="197.91" r="41.96"/><path class="cls-10" d="m211.05,179.64c.2.26.46.49.75.65,1.09,1.01,1.7,2.43,1.68,3.92v42.24c0,3.36-1.68,5.31-5.13,5.59-5.58.47-11.2.47-16.78,0-2.75-.07-4.93-2.36-4.86-5.12,0-.07,0-.13,0-.2v-42.52c-.15-2.78,1.98-5.16,4.76-5.31.03,0,.06,0,.09,0,4.9-.34,9.82-.4,14.73-.19.34-.02.69.02,1.03.09,1.3-.02,2.6.2,3.82.65l-.09.19Zm-10.16,6.15h-10.35c-.65,0-.84.19-.84.84v10.72c0,3.54,0,2.24,2.24,2.14h17.81c.56,0,.65-.19.65-.65v-12.34c0-.47-.09-.75-.65-.75h-8.86v.03Zm1.96,27.5c-2.14,0-1.96,0-1.96,2.05,0,.65.28.93.93.93h1.49c1.21,0,1.31,0,1.31-1.21,0-2.05.19-1.77-1.77-1.77Zm-5.5,0h-1.03c-.56,0-.93.19-.75.75.19.75-.65,1.96.75,2.24.71.09,1.43.09,2.14,0,.4.02.76-.26.84-.65.47-1.77,0-2.33-1.77-2.33h-.19Zm0-4.38c-2.05,0-1.77-.19-1.86,1.86v.28c0,.65.28.93.84.93h2.14c.37-.02.68-.29.75-.65.47-1.77,0-2.33-1.77-2.33h0l-.09-.09Zm5.59,0h-1.21c-.47,0-.75.19-.75.65,0,2.14-.19,2.42,1.96,2.33h.47c1.21,0,1.31-.19,1.31-1.31,0-1.96.19-1.77-1.77-1.77h0v.09Zm-.09,11.84h.93c.47,0,.93-.09.93-.65,0-.75.47-1.68-.37-2.33h-2.61c-.35-.03-.67.21-.75.56-.47,1.77,0,2.42,1.86,2.42h0Zm-5.41,0h.93c.56,0,.93-.19.93-.75,0-.75.47-1.68-.37-2.24h-2.61c-.32,0-.61.18-.75.47-.56,1.68,0,2.52,1.77,2.52h.09Zm0-16.22h-.84c-.65,0-.93.19-.93.93q0,2.14,2.14,2.14h.75c.43.01.8-.31.84-.75.37-1.86,0-2.33-1.86-2.33h-.09Zm5.59,0h-1.21c-.47,0-.75.19-.75.75,0,2.14-.19,2.42,1.96,2.33h.47c1.21,0,1.31-.19,1.31-1.31,0-1.96.19-1.77-1.77-1.77h0Zm-11,16.22h.75c.84,0,1.12-.28,1.03-1.12,0-2.24.28-1.96-1.96-1.96h-.37c-1.21,0-1.31,0-1.21,1.21,0,1.68-.37,1.86,1.77,1.77v.09Zm16.41-3.08h-.75c-.75-.09-1.03.19-1.03,1.03,0,2.14-.37,2.05,2.05,2.05h.37q1.21,0,1.21-1.21c0-2.05.19-1.77-1.77-1.77h0l-.09-.09Zm0-4.38h-.93c-.65,0-.84.28-.84.93,0,2.24-.37,2.14,2.14,2.14h.28c1.12,0,1.21-.09,1.21-1.21,0-2.05.19-1.86-1.77-1.86h-.09Zm-16.32,0h-.82c-.75,0-1.03.19-1.03,1.03,0,2.14-.37,2.05,2.05,2.05h.37c1.12,0,1.21-.09,1.21-1.31,0-1.96.19-1.77-1.77-1.77h-.02Zm0-4.38h-.82c-.75,0-1.03.19-.93.93,0,2.14-.19,2.14,2.05,2.05h.28c1.21,0,1.31,0,1.31-1.31,0-1.96.19-1.77-1.77-1.77l-.11.09Zm16.41-4.38h-.93c-.65,0-.84.28-.84.93,0,2.24-.19,2.14,2.14,2.14h.28c1.12,0,1.21-.09,1.21-1.21,0-2.05.19-1.77-1.77-1.86h-.09Zm0,4.38c-2.05,0-1.77-.28-1.86,1.86v.19c0,.75.28,1.03,1.03,1.03h1.32c1.12,0,1.21-.09,1.21-1.31,0-1.96.19-1.77-1.77-1.77h.07Zm-16.41-4.38h-.93c-.65,0-.84.28-.84.93,0,2.24-.19,2.14,2.14,2.14h.28c1.12,0,1.21-.09,1.21-1.21,0-2.05.19-1.77-1.77-1.86h-.09Zm9.98-21.35c.37,0,.65-.09.56-.56s-.19-.47-.56-.47-.65.09-.56.56.19.47.56.47Zm2.33-.47c0-.37-.19-.47-.56-.47s-.65,0-.65.47.19.47.56.47.65-.09.65-.47Zm-5.41,45.41c.04-.27-.15-.52-.42-.56-.05,0-.09,0-.14,0-.37,0-.47.28-.47.56s.19.56.47.56c.28-.03.49-.28.47-.56h.09Zm-1.96-45.87c-.29,0-.55.19-.65.47-.01.3.22.55.52.56.01,0,.03,0,.04,0,.28,0,.47-.09.47-.37h0c0-.37-.09-.56-.47-.56l.09-.09Zm2.14.47c0-.37-.19-.47-.56-.47-.26-.05-.51.12-.56.37-.05.26.12.51.37.56.06.01.13.01.19,0,.37,0,.47-.19.47-.47h.09Zm-.19,41.58c0-.37-.28-.47-.56-.47-.24-.02-.45.17-.47.41,0,.02,0,.04,0,.06,0,.37.19.56.47.56s.47-.19.47-.56h.09Zm3.73-.09c0-.19-.09-.37-.47-.37s-.56.09-.56.47.19.56.47.56.47-.19.47-.65h.09Zm-.37,4.38c.28,0,.37-.19.37-.47.02-.28-.18-.53-.47-.56-.24-.03-.46.15-.48.39,0,.06,0,.11.02.17.09.37.19.47.65.47h-.09Zm-1.49-45.87c0-.37-.28-.47-.56-.47s-.47.19-.37.56.28.47.56.47c.28-.03.49-.28.47-.56h-.09Zm-.47,41.3c.24.02.45-.17.47-.41,0-.02,0-.04,0-.06,0-.37-.19-.56-.56-.47s-.47.19-.47.56c.03.28.28.49.56.47h0v-.09Zm-2.8,2.7c.28,0,.47-.09.56-.47s-.09-.56-.47-.56-.47.09-.56.47.09.56.47.56h0Zm5.31-1.03c-.23,0-.41.19-.4.42,0,.05.01.1.03.14,0,.28.19.47.56.37s.47-.28.47-.56c-.03-.28-.28-.49-.56-.47l-.09.09Zm-2.61,3.73c.24.02.45-.17.47-.41,0-.02,0-.04,0-.06,0-.37-.19-.56-.47-.56-.24-.02-.45.17-.47.41,0,.02,0,.04,0,.06,0,.37.19.53.47.53v.03Zm-.56-2.89c0-.28-.09-.47-.47-.47-.24-.02-.45.17-.47.41,0,.02,0,.04,0,.06,0,.28.09.56.37.56.27,0,.5-.2.56-.47h0v-.09Zm.75.37c-.24-.02-.45.17-.47.41,0,.02,0,.04,0,.06.03.28.28.49.56.47h0c.28,0,.37-.28.37-.47.02-.24-.17-.45-.41-.47-.02,0-.04,0-.06,0Zm0-1.77c.02-.23-.14-.44-.37-.47-.27,0-.5.2-.56.47,0,.19.09.47.37.47h0c.28,0,.37-.28.47-.47h.09Zm.93,1.21c.2-.01.36-.17.37-.37,0-.19,0-.37-.28-.47h-.09c-.28,0-.37.19-.47.37s0,.37.37.37l.09.09Z"/><path class="cls-18" d="m203.42,185.79h6.34c.56,0,.65.19.65.75v12.31c0,.47-.09.65-.65.65h-14.26c.02-.2.08-.39.19-.56,1.77-2.89,3.45-5.78,5.22-8.67.93-1.44,1.77-2.93,2.52-4.48Z"/><path class="cls-18" d="m191.93,199.41c-1.49,0-2.24-.71-2.24-2.14v-10.75c0-.65.19-.84.84-.84h9.32c-.65,1.36-1.4,2.66-2.24,3.92-1.86,3.26-3.82,6.43-5.69,9.7v.12Z"/><path class="cls-12" d="m203.42,185.79c-.75,1.54-1.59,3.04-2.52,4.48-1.68,2.89-3.45,5.78-5.22,8.67,0,.19-.19.37-.19.56h-1.49c.02-.2.08-.39.19-.56,1.49-2.42,2.98-4.94,4.38-7.37,1.12-1.96,2.33-3.73,3.36-5.78h1.49Z"/><path class="cls-7" d="m201.91,185.79c-1.03,1.96-2.24,3.82-3.36,5.78-1.49,2.52-2.98,4.94-4.38,7.37,0,.19-.19.37-.19.56h-1.03c.43-1.09.99-2.13,1.68-3.08,2.05-3.54,4.2-7.09,6.25-10.54h1.03v-.09Z"/><path class="cls-11" d="m200.88,185.79c-2.05,3.54-4.2,6.99-6.25,10.54-.68.95-1.25,1.99-1.68,3.08h-1.03c1.96-3.17,3.82-6.43,5.69-9.7.84-1.25,1.58-2.56,2.24-3.92h1.03Z"/><path class="cls-15" d="m202.84,213.3c2.05,0,1.77-.19,1.77,1.77,0,1.12,0,1.21-1.31,1.21h-1.49c-.46.05-.88-.27-.93-.73,0-.07,0-.13,0-.2,0-2.14-.19-2.14,1.96-2.05Z"/><path class="cls-15" d="m197.25,213.3h0c1.77,0,2.24.56,1.77,2.33-.05.41-.42.7-.83.65,0,0,0,0-.01,0-.71.05-1.43.05-2.14,0-1.4-.28-.56-1.49-.75-2.24-.09-.56.19-.84.75-.75h1.21Z"/><path class="cls-15" d="m197.25,208.89h0c1.77,0,2.24.56,1.77,2.33-.07.37-.38.64-.75.65h-2.14c-.56,0-.93-.28-.84-.93v-.28c0-2.05-.28-1.86,1.86-1.86l.09.09Z"/><path class="cls-15" d="m202.84,208.89c1.96,0,1.77-.19,1.77,1.77,0,1.12-.19,1.31-1.31,1.31h-.47c-2.24,0-1.96-.19-1.96-2.33,0-.47.28-.65.75-.65h1.21v-.09Z"/><path class="cls-15" d="m202.75,220.76c-1.77,0-2.33-.65-1.86-2.42.07-.35.39-.59.75-.56h2.61c.84.65.37,1.58.37,2.33,0,.56-.47.65-.93.65h-.93Z"/><path class="cls-15" d="m197.25,220.76c-1.68,0-2.33-.93-1.77-2.52.06-.32.37-.54.7-.48.02,0,.03,0,.05.01h2.61c.84.65.37,1.49.37,2.24,0,.47-.37.75-.93.75h-1.03Z"/><path class="cls-15" d="m197.25,204.44h0c1.86,0,2.24.47,1.86,2.33,0,.47-.37.65-.84.75h-.75q-2.14,0-2.14-2.14c0-2.14.28-1.03.93-.93h.93Z"/><path class="cls-15" d="m202.84,204.44c1.96,0,1.77-.19,1.77,1.77,0,1.12-.19,1.31-1.31,1.31h-.47c-2.24,0-1.96-.19-1.96-2.33,0-.47.28-.65.75-.75h1.21Z"/><path class="cls-15" d="m191.84,220.76c-2.14,0-1.77-.09-1.77-1.77q0-1.21,1.21-1.21h.37c2.24,0,1.96-.28,1.96,1.96,0,.84-.28,1.12-1.03,1.12h-.75v-.09Z"/><path class="cls-15" d="m208.25,217.68c2.05,0,1.77-.19,1.77,1.77q0,1.21-1.21,1.21h-.37c-2.42,0-1.96,0-2.05-2.05,0-.75.28-1.12,1.03-1.03h.75l.09.09Z"/><path class="cls-15" d="m208.25,213.3c1.96,0,1.77-.19,1.77,1.86,0,1.12-.09,1.21-1.21,1.21h-.28c-2.52,0-2.05.09-2.14-2.14,0-.65.19-.93.84-.93h1.03Z"/><path class="cls-15" d="m191.84,213.3c1.96,0,1.68-.19,1.77,1.77,0,1.12,0,1.31-1.21,1.31h-.37c-2.42,0-1.96,0-2.05-2.05,0-.75.28-1.12,1.03-1.03h.84Z"/><path class="cls-15" d="m191.84,208.89c1.96,0,1.77-.19,1.77,1.77,0,1.21,0,1.31-1.31,1.31h-.28c-2.24,0-1.96,0-2.05-2.05,0-.75.19-1.03.93-.93h.84l.09-.09Z"/><path class="cls-15" d="m208.25,204.44c1.96,0,1.77-.19,1.77,1.86,0,1.12-.09,1.21-1.21,1.21h-.28c-2.33,0-2.05.09-2.14-2.14,0-.65.19-.93.84-.93h1.03Z"/><path class="cls-15" d="m208.25,208.89c1.96,0,1.77-.19,1.77,1.77,0,1.21-.09,1.31-1.21,1.31h-1.31c-.75,0-1.03-.28-1.03-1.03v-.19c0-2.05-.28-1.86,1.86-1.86h-.09Z"/><path class="cls-15" d="m191.84,204.44c1.96,0,1.77-.19,1.77,1.77,0,1.12-.09,1.21-1.21,1.21h-.28c-2.33,0-2.14.09-2.14-2.14,0-.65.19-.93.84-.93h.93l.09.09Z"/><path class="cls-19" d="m201.82,183.18c-.28,0-.56-.09-.56-.47-.01-.3.22-.55.52-.56.01,0,.03,0,.04,0,.28,0,.56.09.56.47.01.3-.22.55-.52.56-.01,0-.03,0-.04,0Z"/><path class="cls-19" d="m204.05,182.72c0,.37-.28.47-.65.47s-.56-.19-.56-.47.28-.47.65-.47.56.19.56.47Z"/><path class="cls-21" d="m198.65,228.03c.02.28-.18.53-.47.56-.24.03-.46-.15-.48-.39,0-.06,0-.11.02-.17,0-.28.09-.56.47-.56.27-.04.52.15.56.42,0,.05,0,.09,0,.14h-.09Z"/><path class="cls-19" d="m196.69,182.16c.37,0,.47.19.47.56.02.24-.17.45-.41.47-.02,0-.04,0-.06,0h0c-.37,0-.65-.19-.56-.56s.28-.47.65-.47h-.09Z"/><path class="cls-19" d="m198.83,182.62c0,.37-.19.56-.47.47-.26.05-.51-.12-.56-.37-.05-.26.12-.51.37-.56.06-.01.13-.01.19,0,.28,0,.56.09.56.47h-.09Z"/><path class="cls-19" d="m198.65,224.21c0,.37-.19.56-.47.56s-.47-.19-.47-.56.09-.47.47-.47.56.09.56.47h-.09Z"/><path class="cls-19" d="m202.38,224.11c0,.47-.19.65-.47.65s-.47-.19-.47-.56.28-.47.56-.47c.23-.02.44.14.47.37h-.09Z"/><path class="cls-19" d="m202,228.47c-.37,0-.65-.09-.65-.47s.19-.56.47-.56.47.19.47.56-.09.47-.37.47h.09Z"/><path class="cls-19" d="m200.51,182.62c.03.25-.13.49-.37.56-.28,0-.56-.09-.56-.47-.03-.25.13-.49.37-.56.37,0,.56.09.56.47Z"/><path class="cls-19" d="m200.04,223.93c-.28,0-.47-.09-.56-.47s.09-.56.47-.56.56.19.56.47c.02.24-.17.45-.41.47-.02,0-.04,0-.06,0v.09Z"/><path class="cls-19" d="m197.34,226.6c-.37,0-.47-.19-.47-.56s.19-.47.56-.47.47.19.47.56-.19.47-.56.47Z"/><path class="cls-19" d="m202.65,225.61c.37,0,.56.09.56.37s-.09.56-.47.56c-.25.03-.49-.13-.56-.37,0-.37.09-.56.37-.56h.09Z"/><path class="cls-19" d="m200.04,221.88c-.2-.01-.36-.17-.37-.37,0-.19.09-.28.37-.28.19-.02.36.12.37.31,0,.02,0,.04,0,.06,0,.19-.09.28-.37.28Z"/><path class="cls-21" d="m199.48,226.44c-.06.27-.29.46-.56.47-.28,0-.47-.19-.37-.56s.19-.47.47-.47.37.28.47.47v.09Z"/><path class="cls-21" d="m200.23,226.82c.24-.02.45.17.47.41,0,.02,0,.04,0,.06,0,.28,0,.47-.37.47s-.56-.09-.56-.37h0c0-.28.19-.37.47-.47v-.09Z"/><path class="cls-21" d="m200.14,225.14c-.02.25-.22.45-.47.47-.23.02-.44-.14-.47-.37h0c.03-.28.28-.49.56-.47.28,0,.37.19.37.47v-.09Z"/><path class="cls-19" d="m201.16,226.26c-.37,0-.47-.19-.37-.37s.19-.47.47-.37c.2.01.36.17.37.37v.09c-.01.2-.17.36-.37.37l-.09-.09Z"/><path d="m170.03,192.98c2.46-.23,4.64,1.58,4.88,4.04,0,.03,0,.06,0,.09l.19,3.67-9.12.57-.19-3.67c-.17-2.42,1.66-4.53,4.08-4.7.05,0,.1,0,.15,0Zm.16,1.99c-1.28-.06-2.37.94-2.42,2.22,0,.11,0,.22,0,.33l.08,1.6,5.11-.37-.08-1.6c-.05-1.34-1.18-2.38-2.52-2.32-.07,0-.14,0-.21.02l.03.13Z"/><path d="m166.81,190.92c-.66-.12-1.1-.75-.98-1.41.12-.66.75-1.1,1.41-.98.66.12,1.1.75.98,1.41h0c-.1.65-.72,1.09-1.37.99-.01,0-.02,0-.04,0Zm1.71.1l.33-1.89,6.38,1.1-.33,1.89-6.38-1.1Z"/><path d="m175.37,183.78c1.46.49,1.64,1.94,1.12,3.26-.31,1.11-1.23,1.94-2.37,2.14l-.34-1.88c.5.07.96-.27,1.05-.77.17-.44.12-.7-.17-.77-.73-.25-1.4,2.87-3.5,2.18-1.33-.52-1.61-1.81-1.17-3.19.29-1,1.12-1.75,2.14-1.95l.26,1.83c-.39.04-.73.29-.87.66-.14.19-.1.47.09.61.02.01.03.02.05.03.73.25,1.32-2.92,3.58-2.13l.13-.03Z"/><path d="m178.68,176.38c1.54.93,2.04,2.93,1.11,4.48-.02.03-.03.05-.05.08-.4.62-1.04,1.05-1.76,1.19l2.75,1.76-1.11,1.73-7.54-5.17,1.06-1.65.55.35c-.14-.71.01-1.45.43-2.05,1.06-1.43,3.07-1.73,4.5-.67.03.02.06.05.09.07l-.03-.13Zm-1.06,1.65c-.7-.52-1.69-.37-2.2.33,0,0,0,.01-.01.02-.49.63-.39,1.54.24,2.03.05.04.1.08.16.11.7.52,1.69.37,2.2-.33,0,0,0-.01.01-.02.51-.58.46-1.46-.11-1.97-.08-.07-.17-.14-.27-.19l-.02.02Z"/><path d="m175.54,170.93l1.4-1.32,6.51,6.95-1.4,1.32-6.51-6.95Z"/><path d="m186.43,166.73l3.38,5.6-1.66,1.04-.32-.54c-.14.71-.61,1.31-1.26,1.63-1.74.8-3.79.04-4.59-1.7-.68-1.48-.24-3.24,1.07-4.22.62-.4,1.38-.52,2.09-.32l-.32-.54,1.66-1.04-.05.08Zm.01,3.78c-.41-.76-1.35-1.04-2.11-.64-.02,0-.03.02-.05.03-.8.42-1.11,1.4-.69,2.2.42.8,1.4,1.11,2.2.69.8-.42,1.11-1.4.69-2.2-.01-.03-.03-.05-.04-.08Z"/><path d="m194.92,164.2l-.55,6.73c-.19,2.2-1.11,3.28-2.91,3.67l-.44-1.73c.75-.09,1.32-.74,1.29-1.5l-4.08-5.39,2.11-.53,2.44,3.45.16-4.22,2.03-.58-.05.08Z"/><path d="m208,172.79l-1.7-3.11-.35,2.85-1.93-.22,1.21-9.06,1.93.22-.76,5.41,2.33-2.55,2.31.33-2.77,2.9,1.97,3.6-2.18-.3-.04-.08Z"/><path d="m213.59,172.92c.44.18.94.18,1.38,0l1.1,1.42c-.95.58-2.13.62-3.13.11-1.76-.57-2.72-2.45-2.16-4.21.03-.1.07-.2.11-.3.62-1.7,2.5-2.59,4.2-1.97.11.04.22.08.32.14,1.7.68,2.53,2.62,1.84,4.32-.02.04-.03.08-.05.12-.07.25-.27.47-.35.72l-4.28-1.8c-.02.67.44,1.26,1.1,1.42l-.08.04Zm2.02-1.74c.07-.65-.27-1.27-.85-1.55-.59-.3-1.3-.13-1.7.4l2.58,1.03-.04.13Z"/><path d="m225.07,174.29l-5.62,3.71c-1.87,1.24-3.3,1.16-4.67,0l1.11-1.46c.53.55,1.39.59,1.96.09l1.64-6.53,1.76,1.27-1.27,4.09,3.33-2.46,1.63,1.23.13.04Z"/><path d="m228.03,183.2c-1.35,1.15-3.38.99-4.53-.37-.02-.03-.05-.06-.07-.09-.49-.55-.7-1.3-.58-2.02l-2.56,1.93-1.18-1.58,7.31-5.48,1.18,1.58-.57.31c.73.12,1.38.53,1.79,1.14,1.01,1.46.64,3.47-.82,4.47-.03.02-.07.04-.1.07l.13.04Zm-1.18-1.58c.67-.44.86-1.34.42-2.01-.04-.06-.08-.11-.13-.17-.41-.67-1.28-.88-1.95-.47-.08.05-.16.11-.23.18-.67.44-.86,1.34-.42,2.01.04.06.08.11.13.17.41.67,1.28.88,1.95.47.08-.05.16-.11.23-.18h0Z"/><path d="m234.04,189.69l-6.14,2.19-.69-1.85.49-.27c-.69-.21-1.21-.78-1.35-1.49-.44-1.86.72-3.73,2.58-4.17,1.59-.37,3.23.41,3.93,1.89.31.68.26,1.46-.13,2.09l.49-.27c.04.08.74,1.93.74,1.93l.08-.04Zm-3.7-.74c.76-.19,1.22-.96,1.03-1.72-.02-.09-.06-.19-.1-.27-.26-.79-1.12-1.22-1.91-.96-.03,0-.06.02-.09.03-.76.19-1.22.96-1.03,1.72.02.09.06.19.1.27.28.79,1.14,1.2,1.92.93.01,0,.03,0,.04-.02l.03.02Z"/><path d="m237.46,199.08l-9.12.42-.11-1.96.63-.02c-.59-.44-.9-1.16-.82-1.89.02-1.81,1.49-3.27,3.3-3.29,1.77-.18,3.34,1.11,3.52,2.88,0,.03,0,.05,0,.08.06.73-.21,1.46-.72,1.99l3.21-.16.11,1.96Zm-5.95-1.74c.86,0,1.56-.69,1.57-1.54,0-.02,0-.04,0-.06,0-.81-.67-1.46-1.48-1.45-.05,0-.11,0-.16.01-.86,0-1.56.69-1.57,1.54,0,.02,0,.04,0,.06,0,.81.67,1.46,1.48,1.45.05,0,.11,0,.16-.01h0Z"/></svg>