<?xml version="1.0" encoding="UTF-8"?><svg id="Layer_1" xmlns="http://www.w3.org/2000/svg" viewBox="0 0 400 400"><defs><style>.cls-1{fill:#375e7d;}.cls-2{stroke:#a5262d;}.cls-2,.cls-3,.cls-4,.cls-5,.cls-6{stroke-width:4px;}.cls-2,.cls-3,.cls-4,.cls-5,.cls-6,.cls-7{fill:none;stroke-miterlimit:10;}.cls-8{fill:#93c149;}.cls-3{stroke:#000;}.cls-9{fill:#fff;}.cls-10{fill:#565959;}.cls-11{fill:#535454;}.cls-12{fill:#90b9e0;}.cls-4{stroke:#0018c6;}.cls-13{fill:#e2e7f5;}.cls-14{fill:#d2d5d7;}.cls-15{fill:#2b4d66;}.cls-16{fill:#445367;}.cls-17{fill:#414343;}.cls-18{fill:#d2febf;}.cls-19{fill:#999afe;}.cls-20{fill:#546e7a;}.cls-5{stroke:#c000e2;}.cls-21{fill:#00f6d5;}.cls-22{fill:#f7f6fd;}.cls-23{fill:#455368;}.cls-24{fill:#2b4e68;}.cls-25{fill:#989afe;}.cls-26{fill:#364a5f;}.cls-27{fill:#02f6d5;}.cls-28{fill:#d0cde6;}.cls-29{fill:#656565;}.cls-30{fill:#2b506b;}.cls-6{stroke:#00b51e;}.cls-31{fill:#90bae0;}.cls-32{fill:#e1e6f4;}.cls-33{fill:#afd2ef;}.cls-34{fill:#03f6d5;}.cls-35{fill:#e5e4ec;}.cls-36{fill:#ffed58;}.cls-37{fill:#fcd6ac;}.cls-38{fill:#e6e6e6;}.cls-7{stroke:#231f20;stroke-width:2px;}.cls-39{fill:#36464e;}.cls-40{fill:#22a5fc;}.cls-41{fill:#474c68;}.cls-42{fill:#395f7e;}.cls-43{fill:#b3dd60;}.cls-44{fill:#4582c2;}.cls-45{fill:#607890;}.cls-46{fill:#00244d;}.cls-47{fill:#cbb293;}.cls-48{fill:#6e6f6e;}.cls-49{fill:#374b60;}.cls-50{fill:#b7b7fe;}.cls-51{fill:#979bfd;}.cls-52{fill:#d1d5d6;}.cls-53{fill:#fcd6ad;}.cls-54{fill:#788f9b;}.cls-55{fill:#dee3f1;}.cls-56{fill:#dcdcdc;}.cls-57{fill:#0693fb;}.cls-58{fill:#2b2e3f;}.cls-59{fill:#fde6cd;}.cls-60{fill:#445368;}.cls-61{fill:#f8f6f7;}.cls-62{fill:#4b87d4;}.cls-63{fill:#d0cde7;}.cls-64{fill:#cbb292;}.cls-65{fill:#69a6fe;}.cls-66{fill:#29abe2;}.cls-67{fill:#b8b8fd;}.cls-68{fill:#6ab579;}.cls-69{fill:#fbd734;}.cls-70{fill:#dcd9ea;}.cls-71{fill:#014767;}.cls-72{fill:#eee;}.cls-73{fill:#414242;}.cls-74{fill:#231f20;}.cls-75{fill:#00dbe6;}.cls-76{fill:#474847;}.cls-77{fill:#2c4d66;}.cls-78{fill:#e2c8aa;}</style></defs><circle class="cls-6" cx="99.91" cy="325.06" r="45"/><path d="m84.81,297.36c1.73,2.29,1.28,5.54-1.01,7.27-.16.12-.32.23-.49.33-2.63,1.91-6.31,1.33-8.23-1.3-.02-.03-.05-.07-.07-.1-1.79-2.71-1.05-6.36,1.66-8.15,1.61-1.07,3.65-1.27,5.44-.55l-1.1,2.2c-1-.41-2.14-.26-3,.4-1.5.92-1.97,2.87-1.05,4.37.05.08.1.15.15.23.98,1.53,3.01,1.97,4.53.99.09-.06.18-.12.27-.19,1.09-.57,1.67-1.8,1.4-3l-2.5,1.7-1.2-1.9,4.7-3.1.5.8Z"/><path d="m89.71,295.56l.9,2.7c.2.7.8.5,1.8.2l.7,2.1c-2.9,1.3-4,.6-4.7-1.5l-.9-2.7-1.2.4-.7-2.2,1.2-.4-.5-1.4,2.1-1.4.7,2.1,1.6-.5.7,2.2-1.6.5-.1-.1Z"/><path d="m101.11,291.56l.6,8-2.4.2v-.8c-.59.71-1.47,1.12-2.4,1.1-2.34-.06-4.18-2-4.13-4.33.05-2.03,1.53-3.73,3.53-4.07.91-.09,1.81.2,2.5.8v-.8l2.3-.2v.1Zm-2.1,4.2c.04-.96-.7-1.77-1.66-1.82-.11,0-.23,0-.34.02-1.04.04-1.85.91-1.81,1.95,0,.05,0,.1.01.15-.04.96.7,1.77,1.66,1.82.11,0,.23,0,.34-.02,1.04-.04,1.85-.91,1.81-1.95,0-.05,0-.1-.01-.15h0Z"/><path d="m112.01,297.66c-.41,2.2-2.5,3.66-4.7,3.3-.89-.17-1.65-.72-2.1-1.5l-.2.7-2.3-.5,2.5-10.9,2.3.5-.9,3.9c.72-.54,1.65-.69,2.5-.4,2.14.63,3.38,2.85,2.8,5l.1-.1Zm-2.3-.5c.32-.9-.14-1.89-1.04-2.21-.12-.04-.24-.07-.36-.09-.99-.26-2.01.34-2.27,1.34-.01.05-.03.11-.03.16-.32.9.14,1.89,1.04,2.21.12.04.24.07.36.09.99.26,2.01-.34,2.27-1.34.01-.05.03-.11.03-.16Z"/><path d="m124.91,296.86l-6.3,9.3-2.1-1.4,4.8-7-1.9-.7.7-2.2,3,.8,1.9,1.3-.1-.1Z"/><path class="cls-10" d="m82.21,362.06c0-.1-.2-.1-.2-.1-1.33-.44-2.22-1.7-2.2-3.1v-44.5c-.11-1.71,1.19-3.18,2.89-3.29.07,0,.14,0,.21,0h31.7c0,.2.2.2.3.2,1.16.5,1.9,1.64,1.9,2.9v3h-11.7c-.2,0-.4,0-.5.3-.5.5-1,1-1.6,1.5-1.79,1.7-4.61,1.7-6.4,0-.49-.44-.96-.91-1.4-1.4-.19-.24-.5-.36-.8-.3h-10.9c-.5,0-.6.1-.6.6v37.5c0,.5.2.6.6.6h33.4v3c.09,1.31-.68,2.52-1.9,3-.1,0-.3,0-.3.3h-32.5v-.2Zm14.6-3.9h-2.9c-.6,0-.9.3-.9.8s.3.8.9.8h5.8c.44.1.88-.18.98-.62.1-.44-.18-.88-.62-.98-.12-.03-.24-.03-.36,0h-2.9Zm3.1-44.1c-.81-.02-1.48.63-1.5,1.44,0,.02,0,.04,0,.06h0c0,.83.67,1.5,1.5,1.5.03,0,.07,0,.1,0,.82-.02,1.48-.68,1.5-1.5.02-.81-.63-1.48-1.44-1.5-.02,0-.04,0-.06,0h-.1Zm6.9,44.9c.02-.41-.29-.76-.7-.8-.44.09-.76.46-.8.9-.01.38.28.69.66.7.01,0,.03,0,.04,0,.43-.03.77-.37.8-.8h0Zm-3.8-.8c-.41.08-.72.39-.8.8.03.43.37.77.8.8.41-.08.72-.39.8-.8-.03-.43-.37-.77-.8-.8Z"/><rect class="cls-10" x="96.01" y="313.76" width="6.5" height="3.9"/><path class="cls-73" d="m114.71,362.06c0-.2.2-.2.3-.3,1.22-.48,1.99-1.69,1.9-3v-44.7c.05-1.27-.72-2.43-1.9-2.9-.1,0-.3,0-.3-.2h2.2c1.66,0,3,1.34,3,3v44c0,1.9-.6,3.4-2.5,4h-2.8l.1.1Z"/><path class="cls-66" d="m113.81,355.96h-30.3c-.5,0-.6,0-.6-.6v-37.5c0-.5.1-.6.6-.6h10.9c.3,0,1.3-.4,1.5-.2.5.5.2,1,1,2,.8,1,2.2,1.7,4,0l2-2c.1-.2,2,.2,2.2.2h8.6v38.7h.1Z"/><path class="cls-62" d="m113.81,355.96v-38.7h3.1v38.7h-3.1Z"/><path class="cls-48" d="m96.81,358.26h2.8c.49-.05.94.31,1,.8-.1.47-.52.81-1,.8h-5.8c-.6,0-.9-.3-.9-.8s.3-.8.9-.8h3Z"/><path class="cls-17" d="m106.81,358.96c.02.41-.29.76-.7.8h0c-.38.01-.69-.28-.7-.66,0-.01,0-.03,0-.04.05-.44.37-.8.8-.9.4-.1.7.4.7.8h-.1Z"/><path class="cls-17" d="m103.01,358.26c.4.1.7.4.8.8,0,.44-.36.8-.8.8s-.8-.36-.8-.8c.1-.4.4-.7.8-.8Z"/><path class="cls-38" d="m102.81,314.16h.2c.2,0,.2.1.2.3s-.1.2-.2.3c-.5.6-.9,1.2-1.4,1.8l-1.3,1.6c-.2.26-.48.43-.8.5-.39.04-.78-.06-1.1-.3-.2-.1-.3-.3-.5-.5-.4-.6-.8-1.3-1.2-1.9-.2-.3-.3-.6-.5-.9h0c-.1-.2,0-.3.2-.4.87-.02,1.74-.08,2.6-.2.77-.02,1.54-.08,2.3-.2.54.02,1.07-.02,1.6-.1h-.1Z"/><path class="cls-65" d="m102.61,334.56h-.6c-.4,0-.8-.2-1.2-.2-.51-.05-1.01-.15-1.5-.3l-1.7-.3h-.3c-.2,0-.3-.2-.2-.5.09-.29.23-.55.4-.8.2-.4.4-.9.6-1.3.11-.3.28-.57.5-.8.26-.39.78-.49,1.16-.24.09.06.17.14.24.24.16.14.3.31.4.5.3.41.57.85.8,1.3.5.7.9,1.4,1.4,2.2,0,.08.04.15.1.2,0,.2,0,.3-.3.3l.2-.3Z"/><path class="cls-65" d="m103.61,324.16h.2c.2,0,.3.1.2.3s-.1.2-.2.3c-.5.7-1,1.3-1.6,2s-1,1.2-1.5,1.7c-.21.31-.53.52-.9.6-.42.04-.85-.06-1.2-.3-.2-.17-.36-.38-.5-.6-.5-.7-.9-1.4-1.4-2.1-.22-.32-.42-.65-.6-1h0c-.1-.2,0-.4.2-.4.97-.02,1.94-.08,2.9-.2.84-.02,1.67-.08,2.5-.2.6.02,1.2-.02,1.8-.1h.1Z"/><path d="m98.21,347.56v2.8h-1.2v1.9h-3.1v-1.9h-5.4v-2.9l3.7-7.5h3.5l-3.7,7.5h1.9v-2.2h3.1v2.2h1.2v.1Z"/><path d="m111.41,345.26v1.2c.04,1.63-.58,3.21-1.7,4.4-1.17,1.14-2.76,1.76-4.4,1.7-1.74.05-3.43-.6-4.7-1.8-2.4-2.52-2.4-6.48,0-9,1.18-1.22,2.8-1.91,4.5-1.9,1.09-.1,2.19.19,3.1.8.89.47,1.64,1.16,2.2,2l-2.7,1.5c-.24-.42-.64-.74-1.1-.9-.51-.2-1.05-.31-1.6-.3-1.71-.11-3.19,1.18-3.3,2.89,0,.14,0,.28,0,.41-.02.89.3,1.75.9,2.4.67.71,1.63,1.07,2.6,1,1.17.08,2.27-.55,2.8-1.6h-3v-2.7h6.2l.2-.1Z"/><line class="cls-9" x1="200.64" y1="129.49" x2="200.14" y2="162.27"/><line class="cls-7" x1="200.64" y1="129.49" x2="200.31" y2="151.5"/><polygon class="cls-74" points="192.86 149.2 200.14 162.27 207.82 149.43 192.86 149.2"/><line class="cls-9" x1="257.45" y1="151.78" x2="235.34" y2="175.98"/><line class="cls-7" x1="257.45" y1="151.78" x2="242.6" y2="168.03"/><polygon class="cls-74" points="238.55 161.37 235.34 175.98 249.59 171.46 238.55 161.37"/><line class="cls-9" x1="171.45" y1="263.78" x2="149.34" y2="287.98"/><line class="cls-7" x1="171.45" y1="263.78" x2="156.6" y2="280.03"/><polygon class="cls-74" points="152.55 273.37 149.34 287.98 163.59 283.46 152.55 273.37"/><line class="cls-9" x1="144.34" y1="151.78" x2="166.45" y2="175.98"/><line class="cls-7" x1="144.34" y1="151.78" x2="159.19" y2="168.03"/><polygon class="cls-74" points="152.19 171.46 166.45 175.98 163.23 161.37 152.19 171.46"/><line class="cls-9" x1="232.34" y1="263.78" x2="254.45" y2="287.98"/><line class="cls-7" x1="232.34" y1="263.78" x2="247.19" y2="280.03"/><polygon class="cls-74" points="240.19 283.46 254.45 287.98 251.23 273.37 240.19 283.46"/><line class="cls-9" x1="117" y1="215.36" x2="149.78" y2="215.86"/><line class="cls-7" x1="117" y1="215.36" x2="139.02" y2="215.7"/><polygon class="cls-74" points="136.72 223.14 149.78 215.86 136.94 208.19 136.72 223.14"/><line class="cls-9" x1="283.78" y1="215.36" x2="251" y2="215.86"/><line class="cls-7" x1="283.78" y1="215.36" x2="261.77" y2="215.7"/><polygon class="cls-74" points="263.84 208.19 251 215.86 264.07 223.14 263.84 208.19"/><circle class="cls-5" cx="201.39" cy="219.73" r="45"/><path d="m164.09,211.43l-.6,2.8,8.5,1.8-.5,2.5-8.5-1.8-.6,2.8-2.4-.5,1.7-8.1,2.4.5Z"/><path d="m168.69,203.33l7.2,3.5-1,2.2-.7-.3c.33.85.26,1.81-.2,2.6-.9,1.9-3.3,2.6-5.5,1.6-2.03-.86-2.99-3.21-2.12-5.24,0-.02.02-.04.02-.06.33-.83,1.03-1.46,1.9-1.7l-.7-.3,1-2.2.1-.1Zm2.6,3.9c-.91-.49-2.04-.15-2.53.76-.02.05-.05.09-.07.14-.48.95-.09,2.1.85,2.58.02,0,.03.02.05.02.91.49,2.04.15,2.53-.76.02-.05.05-.09.07-.14.48-.95.09-2.1-.85-2.58-.02,0-.03-.02-.05-.02h0Z"/><path d="m179.39,196.99c1.68,1.45,1.9,3.98.5,5.7-.56.69-1.41,1.09-2.3,1.1l.5.5-1.6,1.8-8.2-7.6,1.6-1.8,2.9,2.7c-.02-.89.3-1.75.9-2.4,1.6-1.5,4.1-1.5,5.7,0Zm-1.6,1.8c-.74-.75-1.94-.75-2.69-.01,0,0,0,0-.01.01-.72.7-.74,1.85-.04,2.57.04.04.09.09.14.13.74.75,1.94.75,2.69.01,0,0,0,0,.01-.01.72-.7.74-1.85.04-2.57-.03-.03-.06-.06-.09-.09l-.05-.04Z"/><path d="m176.49,189.93l2-1.4,6.7,9.6-2,1.4-6.7-9.6Z"/><path d="m188.99,193.93c.54-.23.97-.66,1.2-1.2l2.2.3c-.33,1.34-1.31,2.42-2.6,2.9-2.02,1.04-4.51.25-5.55-1.77-.05-.11-.1-.21-.15-.33-.94-2.15.04-4.66,2.19-5.6,0,0,0,0,0,0,2.02-.9,4.38,0,5.29,2.02.04.09.08.19.11.28l.3.9-5.2,2.2c.61.54,1.47.65,2.2.3Zm.2-3.3c-.47-.68-1.37-.89-2.1-.5-.77.3-1.23,1.09-1.1,1.9l3.2-1.4Z"/><path d="m195.89,187.99l.5,2.8c.1.7.7.6,1.7.4l.4,2.1c-3,.9-4.1.1-4.5-2.1l-.5-2.8-1.3.2-.4-2.3,1.3-.2-.3-1.5,2.2-1.1.4,2.2,1.6-.3.4,2.3-1.6.3h.1Z"/><path d="m199.49,187.33l6.1.2v2.3l-6.1-.2v-2.3Z"/><path d="m215.99,192.23c-.53,2.14-2.71,3.45-4.85,2.91-.02,0-.03,0-.05-.01-.87-.21-1.61-.79-2-1.6l-.2.7-2.3-.7,3.3-10.7,2.3.7-1.2,3.8c.8-.43,1.74-.5,2.6-.2,2.08.74,3.17,3.02,2.43,5.11-.01.03-.02.06-.03.09v-.1Zm-2.3-.7c.37-.92-.07-1.96-.99-2.33-.07-.03-.14-.05-.21-.07-.99-.32-2.05.22-2.37,1.2-.01.03-.02.06-.03.1-.37.92.07,1.96.99,2.33.07.03.14.05.21.07.99.32,2.05-.22,2.37-1.2.01-.03.02-.06.03-.1h0Z"/><path d="m217.19,192.83c1.28-1.93,3.89-2.45,5.81-1.16.03.02.06.04.09.06,1.91,1.22,2.47,3.76,1.25,5.68-.05.08-.1.15-.15.22-1.28,1.93-3.89,2.45-5.81,1.16-.03-.02-.06-.04-.09-.06-1.91-1.22-2.47-3.76-1.25-5.68.05-.08.1-.15.15-.22Zm5,3.4c.58-.86.36-2.02-.5-2.6s-2.02-.36-2.6.5c-.6.75-.48,1.85.27,2.45.07.06.15.11.23.15.82.59,1.97.39,2.55-.43.02-.02.03-.05.05-.07h0Z"/><path d="m236.29,200.63l-8.7,7.1-1.5-1.9.6-.5c-.91-.04-1.75-.48-2.3-1.2-1.3-1.79-.9-4.29.88-5.59,0,0,.01,0,.02-.01,1.66-1.48,4.2-1.34,5.7.3.64.66.9,1.6.7,2.5l3.1-2.5,1.5,1.9v-.1Zm-7.1,2.7c.82-.6,1-1.75.4-2.57-.03-.04-.07-.09-.1-.13-.56-.79-1.65-.98-2.44-.43-.09.07-.18.14-.26.23-.82.6-1,1.75-.4,2.57.03.04.07.09.1.13.56.79,1.65.98,2.44.43.09-.07.18-.14.26-.23h0Z"/><path d="m238.39,212.43l-8.2.6c-2.7.2-4.2-.7-5-2.8l2.1-.9c.22.89,1.1,1.46,2,1.3l5.8-5.9,1,2.4-3.8,3.6,5.1-.6,1,2.4v-.1Z"/><path d="m242.69,218.33l-11,2-.5-2.5,8.4-1.5-.9-1.9,2-1,1.6,2.7.4,2.2Z"/><path class="cls-46" d="m201.39,207.13h12.45c1.92-.07,3.53,1.44,3.6,3.36,0,.01,0,.03,0,.04v34.4c.09,1.38-.66,2.68-1.9,3.3-.3.2-.7.2-1,.4h-13.1v-2.4h12.2c.9,0,1.3-.4,1.3-1.2v-34.3c0-.9-.4-1.2-1.3-1.2h-12.2l-.05-2.4Z"/><path class="cls-71" d="m201.39,245.99v2.4h-13.2c-.1-.2-.4-.2-.5-.2-1.31-.47-2.18-1.71-2.2-3.1v-34.4c-.12-1.42.69-2.75,2-3.3.37-.19.78-.3,1.2-.3h12.7v2.4h-12.2c-.9,0-1.3.3-1.3,1.3v34c0,.9.3,1.3,1.3,1.3h12.2v-.1Z"/><path class="cls-21" d="m201.39,209.53h12.2c.9,0,1.3.4,1.3,1.2v34c0,.9-.4,1.2-1.3,1.2h-12.2v-2.5h3.5c.5,0,1.1-.4,1.1-.9.19-.67-.2-1.37-.87-1.56-.14-.04-.29-.05-.43-.04h-3.3v-9.8c.7-.03,1.24-.63,1.21-1.33,0-.02,0-.05,0-.07v-4.1c.07-.7-.43-1.32-1.13-1.39-.02,0-.05,0-.07,0v-9.8h1.7c.64.02,1.18-.48,1.2-1.12,0-.03,0-.05,0-.08h0c.02-.64-.48-1.18-1.12-1.2-.03,0-.05,0-.08,0h-1.7v-2.5Zm5.9,18.3v-3.84c.01-.47-.21-.92-.6-1.2-.54-.35-1.27-.2-1.62.35-.14.22-.21.49-.18.75v7.5c-.06.51.17,1.01.6,1.3.58.33,1.32.13,1.65-.45.13-.23.18-.49.15-.75v-3.7.04Zm4.7,0v-1c.02-.64-.48-1.18-1.12-1.2-.03,0-.05,0-.08,0h0c-.62-.04-1.16.43-1.2,1.06,0,.01,0,.03,0,.04v2.1c0,.61.49,1.11,1.1,1.12.07,0,.13,0,.2-.02.62-.05,1.1-.57,1.1-1.2v-1h0v.1Z"/><path class="cls-18" d="m201.39,209.53v2.46h-1.55c-.65-.07-1.23.41-1.29,1.05,0,.05,0,.1,0,.15.02.68.59,1.22,1.28,1.2,0,0,.01,0,.02,0h1.6v9.8h0c-.8,0-1.2.7-1.2,1.5v3.9c-.08.74.46,1.41,1.2,1.5h0v9.9h-3.3c-.65-.07-1.23.41-1.29,1.05,0,.05,0,.1,0,.15.02.68.59,1.22,1.28,1.2,0,0,.01,0,.02,0h3.3v2.5h-12.2c-.9,0-1.3-.3-1.3-1.3v-33.8c0-.9.3-1.3,1.3-1.3h12.2l-.05.04Zm-3.6,18.2v-5.9c-.24-.49-.75-.8-1.3-.8-.58.1-1.01.61-1,1.2v10.9c-.02.64.48,1.18,1.12,1.2.03,0,.05,0,.08,0h0c.61.04,1.14-.43,1.17-1.04,0-.1,0-.2-.02-.3v-5.3l-.05.04Zm-4.7,0v-2.2c0-.66-.53-1.2-1.2-1.2s-1.2.53-1.2,1.2h0v4.31c0,.66.53,1.2,1.2,1.2s1.2-.53,1.2-1.2h0v-2.11Z"/><path class="cls-51" d="m207.29,227.83v3.8c.08.66-.39,1.27-1.05,1.35-.26.03-.52-.02-.75-.15-.43-.29-.66-.79-.6-1.3v-7.54c0-1.1,1-1.7,1.8-1.1.39.28.61.73.6,1.2v3.74Z"/><path class="cls-75" d="m201.39,241.13h3.3c.69-.05,1.3.48,1.34,1.17.01.15,0,.29-.04.43,0,.4-.6.8-1.1.9h-3.5v-2.4h0v-.1Z"/><path class="cls-25" d="m211.99,227.83v1c-.03.62-.53,1.12-1.15,1.16-.61-.03-1.11-.49-1.2-1.1v-2.1c.02-.62.53-1.12,1.16-1.1.01,0,.03,0,.04,0,.64-.02,1.18.48,1.2,1.12,0,.03,0,.05,0,.08h0v.9l-.05.04Z"/><path class="cls-19" d="m201.39,224.33c.7.03,1.24.63,1.21,1.33,0,.02,0,.05,0,.07v4.1c.07.7-.43,1.32-1.13,1.39-.02,0-.05,0-.07,0h0v-6.9Z"/><path class="cls-75" d="m201.39,211.99h1.7c.6-.06,1.14.39,1.2.99,0,.07,0,.14,0,.21.02.64-.48,1.18-1.12,1.2-.03,0-.05,0-.08,0h-1.7v-2.4Z"/><path class="cls-67" d="m197.84,227.73v5.4c.04.66-.44,1.23-1.1,1.3-.68,0-1.25-.52-1.3-1.2h0v-10.9c0-.59.42-1.1,1-1.2.57-.07,1.11.26,1.3.8v5.9l.1-.1Z"/><path class="cls-67" d="m193.09,227.83v2.1c0,.66-.53,1.2-1.2,1.2s-1.2-.53-1.2-1.2h0v-4.31c0-.66.53-1.2,1.2-1.2s1.2.53,1.2,1.2h0v2.21Z"/><path class="cls-27" d="m201.39,241.13v2.4h-3.3c-.65.07-1.23-.41-1.29-1.05,0-.05,0-.1,0-.15.02-.68.59-1.22,1.28-1.2,0,0,.01,0,.02,0h3.3Z"/><path class="cls-50" d="m201.39,224.33v6.9c-.8,0-1.2-.7-1.2-1.5v-3.9c-.08-.74.46-1.41,1.2-1.5Z"/><path class="cls-34" d="m201.39,211.99v2.4h-1.55c-.66,0-1.2-.53-1.2-1.2s.53-1.2,1.2-1.2h1.56Z"/><path d="m199.69,214.43h5.7v25.9h-6.55v-18.9l-4.5,1.1-1.6-5.6,6.95-2.5Z"/><circle class="cls-2" cx="64.75" cy="219.73" r="45"/><path class="cls-77" d="m90.75,240.03c-.25.93-.66,1.81-1.2,2.6-1.09,1.51-2.84,2.4-4.7,2.4h-5.4c-.9,0-1-.2-1-1.1v-1.7c1.93.07,3.87.03,5.8-.1,1.02-.03,1.97-.51,2.6-1.3.83-1.28,1.25-2.78,1.2-4.3h2.8v3.5h-.1Z"/><path class="cls-28" d="m90.75,236.53h-2.66v-15.3h2.7v15.3h-.04Z"/><path class="cls-77" d="m90.75,221.13h-2.66v-2.7c-.04-1.8-.93-3.46-2.4-4.5-.78-.5-1.62-.9-2.5-1.2,1.78-.25,3.58.14,5.1,1.1,1.26.91,2.12,2.27,2.4,3.8l.1.1-.04,3.4Z"/><path class="cls-35" d="m40.85,231.33h-4.7c-1.13.11-2.22-.43-2.8-1.4-.05-.05-.12-.09-.2-.1v-1.6h.1c.52.8,1.45,1.23,2.4,1.1h5.1c.14.28.14.62,0,.9-.1.3-.2.5,0,.8v.3h.1Z"/><path class="cls-40" d="m53.25,214.33c.67-.05,1.33-.05,2,0h19.6v23.6c.04.66-.31,1.29-.9,1.6,0-.9-.3-1.2-1.2-1.2h-14.2c-.8,0-1.1.4-1,1.2h-4.4v-25.1l.1-.1Zm12.6,13.7h-6.9c-.9,0-1.4.3-1.3.9s.5.9,1.3.9h14.4c.4,0,.7-.5.7-.9h0c-.02-.4-.31-.73-.7-.8h-7.4l-.1-.1Zm0-8.5h7.1c.7,0,1-.3,1-.8s-.3-.9-1.1-.9h-14.2c-.3,0-.7,0-.9.3-.23.24-.28.61-.1.9.12.38.52.59.9.5h7.3Zm0,5.1h7.24c.35.03.69-.12.9-.4.14-.28.14-.62,0-.9-.2-.3-.6-.3-1-.3h-14.64c-.42.14-.68.56-.6,1h0c.14.43.55.72,1,.7h7.1v-.1Zm0,10.2h7.1c.24.02.48-.02.7-.1.32-.23.47-.62.4-1-.09-.41-.49-.67-.9-.6h-14.4c-.4-.05-.8.15-1,.5-.3.7.2,1.2.9,1.2h7.2Z"/><path class="cls-1" d="m83.09,212.74c.89.28,1.73.68,2.5,1.2,1.41,1.08,2.29,2.72,2.4,4.5v2.7h-1.9c-.61,0-1.11.49-1.12,1.1,0,.07,0,.13.02.2h0v12.8c-.08.64.37,1.21,1.01,1.29.03,0,.06,0,.09,0h1.8c.05,1.52-.37,3.02-1.2,4.3-.65.77-1.59,1.25-2.6,1.3-1.93.13-3.87.17-5.8.1v-28.1c0-1.7.3-1.5,1.6-1.5h3.1l.1.1Z"/><path class="cls-57" d="m78.35,214.13v29.4h-20.4c-.2-.1-.4,0-.6,0h-3.5c-.2,0-.4,0-.5-.2v-3.8h4.3c.2.41.64.65,1.1.6h14.1c.47.01.92-.21,1.2-.6.62-.28.99-.93.9-1.6v-23.6c1.1-.1,2.3,0,3.5,0l-.1-.2Z"/><path class="cls-1" d="m53.25,214.33v25.2h-1.16c-2.17-.4-4.08-1.66-5.3-3.5-.59-.99-1-2.07-1.2-3.2v-9.8c-.1-.94,0-1.9.3-2.8.79-3.48,3.93-5.91,7.5-5.8l-.14-.1Z"/><path class="cls-42" d="m55.25,206.63h-.8c-.6,0-1.1-.3-1.1-.9v-2.4c0-1,.3-1.3,1.3-1.3h11c.51.49.7,1.22.5,1.9v.9c.16.67-.07,1.36-.6,1.8h-10.3Z"/><path class="cls-63" d="m55.25,206.63h12.1v7.6h-2.9v-3c0-.2,0-.4-.2-.5v-.4c.4-.7.2-1-.6-1h-8.4v-2.7Z"/><path class="cls-70" d="m64.25,210.63c.2.1.2.3.2.5v3h-9.2v-5h8.5c.8,0,.9.3.6,1-.3-.7-.7-.8-1.2-.6-.41.2-.59.69-.4,1.1.12.24.34.42.6.5.47.12.95-.14,1.1-.6l-.2.1Zm-5.1-1.1c-.44.04-.81.36-.9.8,0,.5.4.9.9.9.5,0,.9-.4.9-.9,0-.5-.4-.9-.9-.9h0v.1Z"/><path class="cls-70" d="m45.45,222.93v9.2h-2.2c-.74,0-1.43-.33-1.9-.9,0-.16-.14-.29-.3-.3-.2-.3,0-.5,0-.8.05-.3.05-.6,0-.9v-4.7c.09-.98.92-1.72,1.9-1.7h2.6l-.1.1Z"/><path class="cls-61" d="m40.85,226.43v2.9h-5.1c-.96.09-1.9-.37-2.4-1.2.41-1.11,1.52-1.81,2.7-1.7h4.8Z"/><path class="cls-77" d="m67.35,206.63h-1.8c.47-.47.7-1.14.6-1.8v-.9c.15-.69-.08-1.42-.6-1.9h2.7c.55-.06,1.04.35,1.09.89,0,.03,0,.07,0,.11v2.4c0,.9-.4,1.3-1.3,1.3h-.7v-.1Z"/><path class="cls-70" d="m72.85,250.43h1.5c.59.62.86,1.47.74,2.31v.9c-.02.42-.2.81-.5,1.1,0,0-.3.1-.3.3-8.5-.2-17,0-25.5,0s-1.7-.6-1.6-1.6v-1.7c-.03-.68.49-1.27,1.18-1.3,0,0,.01,0,.02,0h24.5-.04Z"/><path class="cls-77" d="m45.45,232.74c.2,1.13.61,2.21,1.2,3.2,1.22,1.84,3.13,3.1,5.3,3.5h1.2v4.1c-3.66-.03-6.83-2.54-7.7-6.1-.12-.86-.18-1.73-.2-2.6v-2.1h.2Z"/><path class="cls-24" d="m53.25,243.53v-.3c.1.3.4.2.6.2h4.1v6.9h-2.1v-4.1c0-.6-.1-.8-.8-.8h-1.7v-2l-.1.1Z"/><path class="cls-15" d="m72.85,250.43h-2v-4.3c.04-.35-.21-.66-.55-.7-.05,0-.1,0-.15,0h-1.9v-2c.77-.05,1.53-.05,2.3,0h2.3v7Z"/><path class="cls-28" d="m74.25,255.13c0-.2.2-.2.3-.3.32-.28.51-.67.54-1.09v-.9c.23-.84-.05-1.73-.7-2.3h3.2c.77-.04,1.43.53,1.5,1.3v1.8c.1.79-.42,1.53-1.2,1.7h-3.6l-.04-.21Z"/><path class="cls-28" d="m45.45,232.74v2.1h-2.5c-1.11.02-2.06-.8-2.2-1.9v-1.5c.1,0,0-.2.1-.3s.2.2.3.3c.45.59,1.16.92,1.9.9h2.2v.5l.2-.1Z"/><path class="cls-1" d="m53.35,245.43h1.74c.6,0,.8.2.8.8-.1,1.4-.1,2.8,0,4.2h-2.4v-5h-.14Z"/><path class="cls-70" d="m87.95,236.53h-1.6c-.64.08-1.21-.37-1.29-1.01,0-.03,0-.06,0-.09v-13c-.08-.64.37-1.21,1.01-1.29.03,0,.06,0,.09,0h1.94v15.3h0l-.14.1Z"/><path class="cls-30" d="m74.09,239.43c-.23.38-.65.61-1.1.6h-14.14c-.45.03-.88-.2-1.1-.6,0-.8.2-1.2,1-1.2h14.1c.9,0,1.24.3,1.24,1.2Z"/><path class="cls-30" d="m65.85,227.93h7.4c.4,0,.7.4.8.8.03.43-.27.82-.7.9h-14.4c-.8,0-1.3-.3-1.3-.9s.4-.9,1.3-.9h6.9v.1Z"/><path class="cls-15" d="m65.85,219.43h-7.2c-.37.03-.73-.17-.9-.5-.07-.3-.03-.62.1-.9.2-.28.57-.4.9-.3h14.2c.7,0,1.1.3,1.1.9s-.3.8-1,.8h-7.2Z"/><path class="cls-15" d="m65.85,224.63h-7.1c-.45.02-.86-.27-1-.7-.12-.43.13-.87.55-.99.02,0,.03,0,.05-.01h14.6c.36-.06.73.05,1,.3.2.27.2.63,0,.9-.19.31-.53.5-.9.5h-7.2Z"/><path class="cls-15" d="m65.85,234.83h-7.2c-.8,0-1.2-.6-.9-1.2.17-.38.59-.59,1-.5h14.4c.43-.04.83.21,1,.6.13.39-.04.81-.4,1-.22.08-.46.12-.7.1h-7.2Z"/><path class="cls-30" d="m64.25,210.63c-.12.46-.59.73-1.05.61-.02,0-.03,0-.05-.01-.43-.09-.71-.52-.61-.95,0-.02,0-.03.01-.05,0-.29.21-.54.5-.6.5-.2.9,0,1.2.6v.4Z"/><path class="cls-30" d="m59.15,209.53c.5,0,.9.4.9.9,0,.5-.4.9-.9.9h0c-.5,0-.9-.4-.9-.9,0-.45.38-.81.84-.8.02,0,.04,0,.06,0v-.1Z"/><path class="cls-42" d="m68.35,250.43v-4.9h1.9c.5,0,.7.2.7.7v4.3h-2.6v-.1Z"/><path d="m24.35,217.93l.4-2.4,7.5-1-6.8-3.3.4-2.4,9.2,4.8-.5,2.8-10.2,1.6v-.1Z"/><path d="m27.45,207.63c-.63-.25-.94-.96-.69-1.6.25-.63.96-.94,1.6-.69.63.25.94.96.69,1.59-.24.63-.94.95-1.57.71,0,0-.02,0-.03-.01Zm1.8.5l.7-2,6.6,2.4-.7,2-6.6-2.4Z"/><path d="m37.75,199.13c1.7.89,2.35,2.99,1.46,4.68-.02.04-.04.08-.06.12-.37.69-1.03,1.17-1.8,1.3l.6.3-1.1,1.8-8.4-5.1,1.1-1.8,3,1.8c-.19-.74-.08-1.53.3-2.2,1.08-1.62,3.27-2.06,4.9-1v.1Zm-1.1,1.8c-.74-.5-1.75-.31-2.25.42-.02.02-.03.05-.05.08-.49.72-.3,1.7.42,2.19.06.04.12.07.18.11.74.5,1.75.31,2.25-.42.02-.02.03-.05.05-.08.49-.72.3-1.7-.42-2.19-.06-.04-.12-.07-.18-.11Z"/><path d="m39.09,192.63l1.7,1.6c-.78.46-1.04,1.46-.58,2.25.08.13.17.25.28.35l2.3,2.2-1.4,1.5-5.1-4.8,1.4-1.5.9.9c-.43-.83-.26-1.84.4-2.5h.1Z"/><path d="m46.25,187.33l4,5.7-1.7,1.2-.4-.5c-.04.8-.49,1.52-1.2,1.9-1.63,1.05-3.81.59-4.87-1.05-.01-.02-.02-.04-.03-.05-1.19-1.49-.95-3.66.54-4.85.02-.02.04-.03.06-.05.62-.48,1.43-.67,2.2-.5l-.4-.5,1.7-1.2.1-.1Zm.3,4.1c-.39-.72-1.3-.99-2.02-.6-.1.05-.19.12-.28.2-.76.5-.98,1.52-.48,2.28.03.04.05.08.08.12.39.72,1.3.99,2.02.6.1-.05.19-.12.28-.2.76-.5.98-1.52.48-2.28-.03-.04-.05-.08-.08-.12Z"/><path d="m51.75,187.13l1,2.3c.2.6.7.4,1.6,0l.7,1.8c-2.4,1.3-3.5.9-4.2-.9l-1-2.3-1,.4-.8-1.9,1-.4-.5-1.2,1.7-1.4.8,1.8,1.3-.6.8,1.9-1.3.6-.1-.1Z"/><path d="m53.35,182.43c-.17-.66.23-1.34.9-1.51s1.34.23,1.51.9c.17.66-.23,1.34-.9,1.51,0,0,0,0,0,0-.6.2-1.25-.12-1.46-.72-.02-.06-.03-.12-.04-.18Zm.7,1.8l2-.5,1.8,6.8-2,.5-1.8-6.8Z"/><path d="m58.35,186.53c-.17-2.04,1.35-3.83,3.4-4,0,0,0,0,0,0,2-.2,3.79,1.25,3.99,3.25,0,.05,0,.1.01.15.17,2.04-1.35,3.83-3.4,4,0,0,0,0,0,0-2,.2-3.79-1.25-3.99-3.25,0-.05,0-.1-.01-.15Zm5.3-.4c.03-.81-.61-1.49-1.42-1.52-.09,0-.19,0-.28.02-.86.02-1.54.74-1.52,1.6,0,.07,0,.13.02.2-.03.81.61,1.49,1.42,1.52.09,0,.19,0,.28-.02.86-.02,1.54-.74,1.52-1.6,0-.07,0-.13-.02-.2Z"/><path d="m74.09,186.43l-.7,4.2-2.1-.4.7-3.9c.16-.65-.24-1.32-.89-1.48-.04,0-.07-.02-.11-.02-.63-.17-1.29.2-1.46.84-.03.12-.05.24-.04.36l-.6,3.8-2.1-.4,1.2-6.9,2.1.4v.6c.52-.52,1.29-.72,2-.5,1.4.2,2.4,1.4,2.1,3.3l-.1.1Z"/><path d="m76.25,186.23l4.9,2.1-.8,1.9-4.9-2.1.8-1.9Z"/><path d="m90.95,196.74l-2.7,3.3-1.6-1.3,2.6-3.2c.4-.5.5-1.1,0-1.5-.53-.39-1.27-.28-1.66.25-.01.02-.02.03-.04.05l-2.5,3-1.6-1.3,2.6-3.2c.4-.5.5-1.1,0-1.5-.53-.39-1.27-.28-1.66.25-.01.02-.02.03-.04.05l-2.5,3-1.6-1.3,4.5-5.4,1.6,1.3-.4.5c1.33-.21,2.57.7,2.77,2.03.02.16.03.31.03.47.79-.18,1.61.05,2.2.6,1.13.92,1.3,2.57.38,3.7-.06.07-.12.14-.18.2h-.2Z"/><path d="m91.25,198.63c1.71-1.11,4-.61,5.1,1.1,1.11,1.71.61,4-1.1,5.1-1.71,1.11-4,.61-5.1-1.1h0c-1.1-1.71-.61-4,1.1-5.1Zm2.9,4.5c.74-.43.99-1.37.56-2.1-.02-.03-.04-.06-.06-.1-.46-.77-1.46-1.01-2.22-.55-.03.02-.05.03-.08.05-.74.43-.99,1.37-.56,2.1.02.03.04.06.06.1.46.77,1.46,1.01,2.22.55.03-.02.05-.03.08-.05Z"/><path d="m97.95,208.03l-2.3.9c-.6.2-.4.7,0,1.6l-1.8.7c-1.2-2.5-.8-3.5,1.1-4.2l2.3-.9-.4-1,1.9-.7.4,1,1.2-.5,1.3,1.7-1.8.7.5,1.3-1.9.7-.5-1.3Z"/><path d="m97.55,210.83c1.95-.35,3.82.95,4.17,2.9.01.07.02.14.03.2.31,2-1.01,3.9-3,4.3-1.95.35-3.82-.95-4.17-2.9-.01-.07-.02-.14-.03-.2-.31-2,1.01-3.9,3-4.3Zm.9,5.2c.91-.14,1.54-.99,1.4-1.9-.09-.83-.83-1.43-1.66-1.35-.08,0-.16.02-.24.05-.91.14-1.54.99-1.4,1.9.09.83.83,1.43,1.66,1.35.08,0,.16-.02.24-.05Z"/><path d="m102.09,223.93h-2.4c.2-1-.1-2.2-1.5-2.3h-3.2v-2.2l7,.3v2.1h-1.3c.85.39,1.37,1.27,1.3,2.2l.1-.1Z"/><circle class="cls-4" cx="102.81" cy="118.94" r="45"/><path class="cls-72" d="m96.01,145.74h-8.3c0-.2-.2-.2-.4-.2-.97-.29-1.62-1.19-1.6-2.2v-32.9c.6.8,1.4.8,1.9.1.35-.48.24-1.15-.23-1.5-.19-.14-.43-.21-.67-.2-.44,0-.84.28-1,.7-.26-1.1.23-2.23,1.2-2.8.1,0,.4,0,.4-.3h8.9c-.1.1-.3.1-.5.2-.93.47-1.48,1.46-1.4,2.5v33.9c-.07,1.09.58,2.11,1.6,2.5v.2h.1Z"/><path class="cls-11" d="m98.21,106.44h22.5c1.24.27,2.07,1.44,1.9,2.7v33.79c.18,1.31-.73,2.52-2.03,2.7-.22.03-.45.03-.67,0h-21.7q0-.1-.2-.2c-.79-.26-1.34-.97-1.4-1.8-.1-1.1,0-2.3,0-3.5.1.19.29.3.5.3h22.6c.8,0,.9-.1.9-.9v-28.79c0-.7-.2-.9-.9-.9h-22.4c-.25-.02-.5.05-.7.2-.2-.4,0-.8,0-1.1-.01-.97.53-1.86,1.4-2.3.11,0,.2-.09.2-.2h0Zm8.7,36.7c.02.89.71,1.63,1.6,1.7.93,0,1.69-.75,1.7-1.68,0,0,0-.01,0-.02-.06-.91-.79-1.64-1.7-1.7-.9-.04-1.66.66-1.7,1.56,0,.05,0,.1,0,.14h.1Zm2.18-34.9c0-.3-.2-.5-.6-.5-.33,0-.6.27-.6.6s.27.6.6.6h0c.29.04.56-.16.6-.45,0-.05,0-.1,0-.15h0v-.1Z"/><path class="cls-56" d="m87.41,106.44c0,.2-.3.2-.4.3-1.01.54-1.51,1.7-1.2,2.8-.05.3-.05.6,0,.9-.1.1,0,.3,0,.4v32.5c.02,1,.66,1.87,1.6,2.2.16-.02.32.06.4.2h-2.4c0-.2-.1-.2-.2-.2-.69-.21-1.24-.73-1.5-1.4,0-.11-.09-.2-.2-.2v-35.8c.08,0,.15-.04.2-.1.25-.64.76-1.15,1.4-1.4,0,0,.1,0,.1-.2h2.2Z"/><path class="cls-76" d="m98.21,106.44c0,.2-.1.2-.2.2-.93.36-1.51,1.3-1.4,2.3-.05.36-.05.74,0,1.1-.14.66-.17,1.33-.1,2v28.2c0,1.2-.1,2.3,0,3.5.09.82.63,1.51,1.4,1.8.11,0,.2.09.2.2-.73.07-1.47.03-2.2-.1-1.02-.39-1.67-1.41-1.6-2.5v-33.9c-.08-1.04.47-2.03,1.4-2.5.2,0,.4,0,.5-.2h1.88l.12-.1Z"/><path class="cls-11" d="m85.81,110.44c-.1-.29-.1-.61,0-.9.16-.42.56-.69,1-.7-.3.9.1,1.5.9,1.6h0c-.5.7-1.3.7-1.9-.1v.1Z"/><path class="cls-29" d="m87.71,110.54h0c-.7-.1-1.1-.7-.9-1.6.59-.02,1.09.44,1.1,1.03,0,.24-.06.47-.2.67v-.1Z"/><path class="cls-29" d="m106.81,143.14c0-.93.75-1.69,1.68-1.7,0,0,.01,0,.02,0,.93.03,1.67.77,1.7,1.7,0,.93-.75,1.69-1.68,1.7,0,0-.01,0-.02,0-.91-.06-1.64-.79-1.7-1.7Zm2.1,0c.02-.26-.18-.48-.44-.5-.02,0-.04,0-.06,0-.3,0-.6.3-.5.5s.2.5.5.4c.26.02.48-.18.5-.44,0-.02,0-.04,0-.06h0v.1Z"/><path class="cls-29" d="m109.09,108.14c.04.29-.16.56-.45.6-.05,0-.1,0-.15,0-.33,0-.6-.27-.6-.6s.27-.6.6-.6h0c.4,0,.5.2.6.5v.1Z"/><path class="cls-11" d="m109.01,143.04c.02.26-.18.48-.44.5-.02,0-.04,0-.06,0-.25.02-.47-.15-.5-.4,0-.3.3-.6.5-.5.26-.02.48.18.5.44,0,.02,0,.04,0,.06v-.1Z"/><path d="m68.41,107.93l-.8,2.8,8.4,2.4-.7,2.5-8.4-2.4-.8,2.8-2.4-.7,2.3-8,2.4.7v-.1Z"/><path d="m73.51,100.24l7,4-1.2,2.1-.7-.4c.29.87.18,1.82-.3,2.6-1.38,1.92-4.06,2.35-5.98.96-1.63-1.17-2.22-3.32-1.42-5.16.41-.8,1.13-1.38,2-1.6l-.7-.4,1.2-2.1h.1Zm2.3,4.1c-.8-.56-1.89-.36-2.45.44-.06.08-.11.17-.15.26-.52.85-.26,1.97.59,2.49.07.04.14.08.21.11.8.56,1.89.36,2.45-.44.06-.08.11-.17.15-.26.52-.85.26-1.97-.59-2.49-.07-.04-.14-.08-.21-.11Z"/><path d="m84.61,94.64c1.57,1.55,1.59,4.08.04,5.66-.01.01-.03.03-.04.04-.63.64-1.51.97-2.4.9l.5.5-1.8,1.6-7.6-8.2,1.8-1.6,2.7,2.9c0-.89.41-1.74,1.1-2.3,1.68-1.44,4.2-1.25,5.64.43.02.02.04.05.06.07Zm-1.8,1.6c-.75-.72-1.94-.7-2.66.04-.72.75-.7,1.94.04,2.66.73.71,1.89.71,2.62,0,.73-.64.77-1.78.13-2.5-.05-.06-.11-.11-.13-.2Z"/><path d="m82.21,87.34l2.1-1.2,6,10-2.1,1.2-6-10Z"/><path d="m94.41,92.24c.56-.14,1.02-.55,1.2-1.1l2.2.4c-.39,1.29-1.41,2.31-2.7,2.7-2.12.91-4.58-.08-5.49-2.2-.04-.1-.08-.2-.11-.3-.83-2.1.2-4.47,2.3-5.29.1-.04.2-.07.3-.11,2.08-.76,4.37.31,5.13,2.39.03.07.05.14.07.21.11.29.18.59.2.9l-5.42,1.9c.56.62,1.46.78,2.2.4l.12.1Zm.4-3.2c-.4-.7-1.28-.97-2-.6-.82.18-1.35.98-1.2,1.8l3.2-1.1v-.1Z"/><path d="m101.71,86.84l.3,2.8c0,.7.7.7,1.7.5l.2,2.2c-3.1.7-4.1-.2-4.3-2.4l-.3-2.8h-1.3c0,.1-.3-2.2-.3-2.2h1.3c0-.1-.2-1.7-.2-1.7l2.3-1,.2,2.2,1.6-.2.3,2.3-1.6.2.1.1Z"/><path d="m112.91,85.24l1.5.3-.4,2.3-1.5-.3-1,5.6-2.4-.4,1-5.6-1.1-.2.4-2.3,1.1.2c.4-2.2,1.9-3.3,4.4-2.7l-.4,2.3c-.9-.2-1.5,0-1.7.8h.1Z"/><path d="m120.71,87.54l-.9,2.6c-.86-.61-2.05-.41-2.66.45-.1.14-.18.29-.24.45l-1.2,3.4-2.3-.8,2.8-7.5,2.3.8-.5,1.3c.69-.8,1.81-1.08,2.8-.7h-.1Z"/><path d="m129.41,93.04l-4.4,6.7-2-1.3.4-.6c-.87.17-1.76-.01-2.5-.5-1.76-1.28-2.15-3.74-.87-5.5.02-.03.05-.06.07-.1,1.4-2,3.8-2.6,5.5-1.4.77.45,1.28,1.22,1.4,2.1l.4-.6,2,1.3v-.1Zm-4.2,2c.62-.8.49-1.95-.31-2.57-.06-.05-.12-.09-.19-.13-.86-.59-2.04-.37-2.63.49-.03.04-.05.07-.07.11-.62.8-.49,1.95.31,2.57.06.05.12.09.19.13.86.59,2.04.37,2.63-.49.03-.04.05-.07.07-.11Z"/><path d="m136.91,106.93l-4,2.9-1.4-1.9,3.8-2.8c.57-.33.77-1.07.44-1.64-.01-.02-.02-.04-.04-.06-.45-.58-1.28-.68-1.85-.23-.05.04-.1.09-.15.13l-3.6,2.7-1.4-1.9,3.8-2.8c.57-.33.77-1.07.44-1.64-.01-.02-.02-.04-.04-.06-.45-.58-1.28-.68-1.85-.23-.05.04-.1.09-.15.13l-3.6,2.7-1.4-1.9,6.5-4.7,1.4,1.9-.6.4c.83.01,1.6.47,2,1.2.55.63.71,1.52.4,2.3.92-.02,1.77.48,2.2,1.3,1.1,1.5.7,3.2-.9,4.4v-.2Z"/><path d="m135.91,114.04c.16.54.52,1,1,1.3l-.5,2.2c-2.59-.39-4.38-2.81-3.99-5.4.39-2.59,2.81-4.38,5.4-3.99,2.59.39,4.38,2.81,3.99,5.4-.25,1.66-1.35,3.06-2.9,3.69-.3,0-.6.2-.9.2l-1.6-5.5c-.67.52-.87,1.44-.5,2.2v-.1Zm3.2.6c.68-.41.97-1.25.7-2-.19-.78-.9-1.33-1.7-1.3l1,3.3Z"/><circle class="cls-4" cx="201.39" cy="74.94" r="45"/><path class="cls-37" d="m228.39,102.24v.8c-.18.53-.53.99-1,1.3l-9.57,6.59c-.87.61-2.08.39-2.69-.48,0,0,0-.01-.01-.02-.3-.5-.7-1-1-1.5-.6-1.25-1.93-1.97-3.3-1.8-1.87.16-3.66-.78-4.6-2.4-.9-1.3-1.7-2.6-2.6-3.9-.1-.2-.2-.4-.4-.4,0-.19-.07-.36-.2-.5-.7-1.1-1.4-2.1-2.1-3.2-1.05-1.47-.72-3.51.75-4.56.02-.01.03-.02.05-.04.45-.31.89-.64,1.3-1,.2,0,.3.2.4.3,1,1.4,1.9,2.9,2.9,4.3l2.4,3.6c.29.42.85.55,1.3.3.41-.3.5-.89.2-1.3h0c0-.1-.1-.2-.2-.3-3.2-4.6-6.3-9.2-9.5-13.9-2-3-4.1-6-6.1-9-.44-.58-.68-1.28-.7-2,0-.3.3-.6.1-1v-.2c1.12-.52,2.45-.19,3.2.8.58.91,1.21,1.78,1.9,2.6,1.2,1.7,2.3,3.4,3.5,5.1.34.61.74,1.17,1.2,1.7h0s0,.2.1.2c.27.42.57.82.9,1.2.3.3.8.3,1.1,0,.4-.3.4-.8,0-1.3-.56-.71-.84-1.6-.8-2.5,0-.3.3-.5.1-.7,1.12-.57,2.48-.23,3.2.8.18.34.41.65.7.9.23.54.53,1.05.9,1.5.32.3.8.38,1.2.2.39-.27.52-.78.3-1.2-.13-.26-.3-.49-.5-.7-.51-.73-.69-1.63-.5-2.5v-.4c.77-.45,1.73-.45,2.5,0,.7.4,1,1.1,1.5,1.6h0c.24.5.54.97.9,1.4.3.3.8.3,1.1,0,.28-.21.43-.55.4-.9-.04-.26-.14-.5-.3-.7-.59-.69-.84-1.6-.7-2.5v-.8c1.2-.51,2.59-.09,3.3,1,1.9,2.8,3.8,5.5,5.6,8.3,1.44,2.31,2.36,4.9,2.7,7.6.22,1.93.29,3.86.2,5.8-.04,1.15.23,2.3.8,3.3l.07.51Zm-2.9-.1c0-.32-.2-.59-.5-.7-.32-.15-.68-.15-1,0-1,.7-2,1.3-3,2-.43.22-.6.74-.38,1.17.02.05.05.09.08.13.3.41.89.5,1.3.2h0c1-.7,2-1.4,3-2,.31-.15.5-.46.5-.8Zm-6.1,4.2c.05-.44-.27-.85-.71-.9-.17-.02-.34.01-.49.1-.32.16-.62.37-.9.6-.3.32-.38.8-.2,1.2.25.38.77.49,1.15.24.02-.01.03-.02.05-.04.28-.18.55-.38.8-.6.2-.2.3-.3.2-.5l.1-.1Z"/><path class="cls-33" d="m183.39,75.74v-12.81c-.03-1.25.79-2.37,2-2.7h2.9c.38.48.57,1.09.53,1.7-.08.97.64,1.82,1.61,1.89.06,0,.12,0,.19,0h6.9c.98.07,1.83-.67,1.9-1.65,0-.08,0-.17,0-.25-.08-.61.1-1.23.5-1.7h2.6c.67.17,1.27.56,1.7,1.1.2.22.31.5.3.8-.8.7-1.6,1.5-2.3,2.2-1.3,1.4-2.5,2.8-3.7,4.3-.19.39-.51.71-.9.9-1.05-.97-2.47-1.45-3.9-1.3-2.61.21-4.69,2.29-4.9,4.9-.12,2.2,1.1,4.26,3.1,5.2-.4.8-.9,1.7-1.3,2.5-1,1.9-1.9,3.9-2.7,5.8-1.18,2.81-2.22,5.68-3.1,8.6-.4,1.3-.7,2.6-1.1,3.9-.16-.38-.23-.79-.2-1.2v-10.39c.1-.3.3-.6.4-.9.68-1.56,1.12-3.21,1.3-4.9.3-2.2.1-4.3-1.7-5.9l-.13-.1Z"/><path class="cls-26" d="m199.82,60.14c-.42.46-.6,1.09-.5,1.7.07.98-.67,1.83-1.65,1.9-.08,0-.17,0-.25,0h-6.9c-.97.03-1.78-.74-1.81-1.71,0-.06,0-.12,0-.19.08-.61-.1-1.23-.5-1.7h11.6Z"/><path class="cls-45" d="m199.59,60.14c-.1.1-.3,0-.5,0h.5Z"/><path class="cls-12" d="m183.59,99.04c.4-1.3.7-2.6,1.1-3.9.88-2.92,1.92-5.79,3.1-8.6.8-1.98,1.7-3.92,2.7-5.8.4-.8.9-1.7,1.3-2.5.2,0,.4.2.6.2.67.27,1.4.34,2.1.2,0,.1.2.2.2.3,2.4,3.5,4.8,7.1,7.2,10.6.42.53.79,1.1,1.1,1.7-.41.36-.85.69-1.3,1-1.49,1.02-1.86,3.06-.84,4.55.01.02.02.03.04.05.7,1.1,1.4,2.1,2.1,3.2.1.2.2.3.2.5-.7.4-1.4.2-2.1.3h-14.8c-1.15.09-2.22-.61-2.6-1.7l-.1-.1Zm10.4-.9h3.3c.7,0,1.1-.3,1.1-.9s-.4-.9-1.1-.9h-6.6c-.7,0-1.1.3-1.1.9s.4.9,1.1.9h3.3Z"/><path class="cls-31" d="m197.49,69.44c.5-.1.6-.5.9-.9,1.2-1.5,2.4-2.9,3.7-4.3.72-.78,1.49-1.52,2.3-2.2.16.38.23.79.2,1.2v16.2c-.53.38-.89.96-1,1.6-.05.47-.05.93,0,1.4-.46-.53-.86-1.09-1.2-1.7-1.2-1.7-2.3-3.4-3.5-5.1.32-.62.49-1.3.5-2,.04-1.57-.62-3.07-1.8-4.1l-.1-.1Z"/><path class="cls-44" d="m197.49,69.44c1.17,1.04,1.82,2.54,1.8,4.1.03.7-.15,1.39-.5,2-.58-.91-1.21-1.78-1.9-2.6-.72-1.03-2.08-1.37-3.2-.8-.29,0-.54.21-.6.5h0c-.06,0-.1.04-.1.1h0c-.06,0-.1.04-.1.1h0c-.06,0-.1.04-.1.1h0c-.58.49-.81,1.27-.6,2,0,.45.18.88.5,1.2.6.9,1.2,1.7,1.7,2.6-.7.13-1.43.06-2.1-.2-.21-.02-.42-.09-.6-.2-2.66-1.2-3.85-4.33-2.65-7,.8-1.77,2.51-2.97,4.45-3.1,1.42-.09,2.82.37,3.9,1.3l.1-.1Z"/><path class="cls-64" d="m194.39,78.64c-.6-.9-1.2-1.7-1.7-2.6-.29-.34-.47-.76-.5-1.2,0-.71.21-1.41.6-2h.1l.1-.1h0l.1-.1h0c.2,0,.4-.2.6-.3.1.3-.1.6-.1,1,.02.72.26,1.42.7,2,2,3,4.1,6,6.1,9,3.2,4.6,6.3,9.2,9.5,13.9,0,.1.2.2.2.3.31.4.23.97-.17,1.28-.01,0-.02.02-.03.02-.45.21-.99.08-1.3-.3l-2.4-3.6c-1-1.4-1.9-2.9-2.9-4.3-.1-.2-.2-.3-.4-.3-.33-.59-.7-1.16-1.1-1.7-2.4-3.5-4.8-7.1-7.2-10.6,0-.1-.2-.2-.2-.3v-.1Z"/><path class="cls-59" d="m225.49,102.14c0,.34-.19.65-.5.8-1,.7-2,1.4-3,2-.42.27-.98.18-1.3-.2-.28-.41-.18-.97.22-1.25.02-.02.05-.03.08-.05,1-.7,2-1.4,3-2,.29-.25.71-.25,1,0,.3.2.5.4.5.7Z"/><path class="cls-47" d="m214.29,79.44c-.16-.75-.05-1.52.3-2.2.3-.46.71-.84,1.2-1.1v.79c-.06.89.18,1.77.7,2.5.2.18.31.43.3.7,0,.4,0,.7-.4.9-.34.2-.76.2-1.1,0-.39-.4-.7-.88-.9-1.4h0l-.1-.19Z"/><path class="cls-47" d="m208.99,80.84c-.38-1.21.17-2.52,1.3-3.1.1.1,0,.3,0,.4-.2.87-.02,1.78.5,2.5.2.2.3.5.5.7.28.41.16.97-.25,1.25s-.97.16-1.25-.25c-.39-.44-.7-.95-.9-1.5h.1Z"/><path class="cls-64" d="m203.49,82.34v-1.41c.21-.6.55-1.15,1-1.6.15-.03.29-.09.4-.2.2.3,0,.5-.1.7,0,.9.28,1.77.8,2.5.35.36.35.94,0,1.3-.3.3-.8.3-1.1,0-.32-.38-.62-.78-.9-1.2,0,0,0-.2-.1-.2h0v.11Z"/><path class="cls-59" d="m219.39,106.24c0,.2,0,.4-.2.5-.22.25-.49.46-.8.6-.36.28-.88.21-1.16-.15-.01-.02-.02-.03-.04-.05-.24-.4-.15-.9.2-1.2l.9-.6c.39-.22.88-.08,1.1.31.08.15.12.32.1.49l-.1.1Z"/><path class="cls-78" d="m193.69,72.24c-.2,0-.4.3-.6.3,0-.3.4-.4.6-.5v.2Z"/><path class="cls-31" d="m203.49,82.34c0,.08.04.15.1.2-.05-.05-.09-.12-.1-.2Z"/><path class="cls-53" d="m183.59,99.04c.38,1.09,1.45,1.79,2.6,1.7h14.8c-.98,1.38-2.24,2.54-3.7,3.4-.2.1-.3.2-.5.3-.7.36-1.09,1.12-1,1.9v3.1c0,1.05-.85,1.9-1.9,1.9h-10.3c-.96.09-1.81-.61-1.9-1.56-.01-.11-.01-.22,0-.34v-3c-.23-.99-.67-1.91-1.3-2.7-.7-1-1.3-2.1-2.1-3.1-.67-.97-1.02-2.12-1-3.3,0-2.3.2-4.6.2-6.9v-3.3c-.04-1.47.24-2.94.8-4.3.82-1.84,1.36-3.8,1.6-5.8.04-.96.86-1.7,1.82-1.66.13,0,.26.03.38.06.9,1.1,1.39,2.48,1.4,3.9-.05,1.35-.25,2.69-.6,4-.27,1.25-.7,2.47-1.3,3.6-.23.47-.05,1.04.4,1.3.42.26.98.13,1.24-.29.02-.04.04-.07.06-.11.05-.11.12-.21.2-.3v10.39c-.03.41.04.82.2,1.2l-.1-.09Zm7.3,7.9h-1.2c-.5-.07-.96.27-1.03.77-.07.5.27.96.77,1.03.09.01.18.01.27,0h2.4c.5.07.96-.27,1.03-.77.07-.5-.27-.96-.77-1.03-.09-.01-.18-.01-.27,0h-1.2Zm-5.3,1.8c.24.02.48-.02.7-.1.38-.17.59-.59.5-1-.14-.43-.55-.72-1-.7-.6,0-1.2,0-1.5.6v.2c0,.7.4,1,1.3,1Z"/><path class="cls-64" d="m183.39,87.44c-.05.11-.12.21-.2.3-.26.45-.83.63-1.3.4-.45-.2-.66-.73-.46-1.19.02-.04.04-.08.06-.11.56-1.15,1-2.36,1.3-3.6.35-1.31.55-2.65.6-4,.04-1.43-.46-2.82-1.4-3.9.49.08.97.25,1.4.5,1.8,1.6,1.9,3.7,1.7,5.9-.18,1.69-.62,3.34-1.3,4.9-.1.3-.3.6-.4.9v-.1Z"/><path class="cls-49" d="m193.99,98.14h-3.3c-.7,0-1.1-.3-1.1-.9s.4-.9,1.1-.9h6.6c.7,0,1.1.4,1.1.9s-.4.9-1.1.9h-3.3Z"/><path class="cls-78" d="m192.82,72.84c-.35.61-.55,1.3-.6,2-.26-.73-.02-1.54.6-2Z"/><path class="cls-59" d="m190.89,106.93h1.1c.5,0,.9.4.9.9s-.4.9-.9.9h-2.4c-.5,0-.9-.4-.9-.9s.4-.9.9-.9h1.3,0Z"/><path class="cls-59" d="m185.69,108.74c-1,0-1.4-.3-1.3-1v-.2c.3-.6.9-.6,1.5-.6.45-.02.86.27,1,.7.14.41-.07.85-.48.99,0,0-.01,0-.02,0-.23.07-.46.11-.7.1Z"/><path d="m165.89,60.74l-.8,2.6,7.8,2.5-.7,2.3-7.8-2.5-.8,2.6-2.2-.7,2.4-7.4,2.2.7-.1-.1Z"/><path d="m169.99,62.54c-1.87-1.11-2.5-3.52-1.39-5.4,1.11-1.87,3.52-2.5,5.4-1.39,1.87,1.1,2.5,3.51,1.4,5.39-1.09,1.87-3.48,2.51-5.36,1.43-.01,0-.03-.02-.04-.03Zm2.9-4.9c-.85-.44-1.89-.11-2.33.74-.44.85-.11,1.89.74,2.33.82.43,1.83.13,2.3-.67.51-.78.29-1.83-.5-2.34-.03-.02-.07-.04-.1-.06h-.1Z"/><path d="m177.49,46.84l5.2,5.4-1.6,1.6-.5-.5c.03.8-.3,1.57-.9,2.1-1.07,1.09-2.83,1.1-3.92.03-.1-.1-.2-.21-.28-.33l-3.2-3.3,1.6-1.6,3,3.1c.38.52,1.11.64,1.63.27.1-.07.19-.16.27-.27.58-.49.66-1.35.17-1.93-.05-.06-.11-.12-.17-.17l-2.8-2.9,1.6-1.6-.1.1Z"/><path d="m181.39,48.54c-1.03-1.96-.27-4.37,1.69-5.4,1.16-.61,2.55-.61,3.71,0l-1.1,2c-.53-.3-1.17-.3-1.7,0-.82.5-1.09,1.57-.6,2.4.38.81,1.35,1.16,2.16.78.05-.02.1-.05.14-.08.57-.26.9-.88.8-1.5h2.33c-.02,1.41-.78,2.7-2,3.4-1.82,1.1-4.19.52-5.29-1.3-.04-.07-.08-.13-.11-.2l-.03-.1Z"/><path d="m195.69,41.74l1.2,4.4-2.2.6-1.1-4.1c-.08-.66-.68-1.14-1.34-1.06-.09.01-.17.03-.26.06-.8.2-1.2.8-.9,1.9l1.1,4-2.2.6-2.8-10.1,2.2-.6,1,3.6c.33-.74,1.01-1.26,1.8-1.4,1.46-.42,2.99.42,3.42,1.89.04.13.07.27.08.41v-.2Z"/><path d="m210.19,36.34l-1.3,10.4-2.2-.3v-.7c-.57.58-1.41.81-2.2.6-2-.2-3.3-2.2-3.1-4.4.17-2.06,1.94-3.6,4-3.5.85.06,1.62.5,2.1,1.2l.5-3.7,2.2.3v.1Zm-3.1,6.4c.18-.91-.41-1.79-1.32-1.97-.06-.01-.12-.02-.18-.03-.95-.15-1.84.51-1.98,1.46,0,.05-.01.1-.02.14-.18.91.41,1.79,1.32,1.97.06.01.12.02.18.03.95.15,1.84-.51,1.98-1.46,0-.05.01-.1.02-.14h0Z"/><path d="m212.29,40.14l2.1.7-2.4,7.1-2.1-.7,2.4-7.1Zm.4-2c.22-.72.98-1.12,1.7-.9.72.22,1.12.98.9,1.7-.22.72-.98,1.12-1.7.9-.71-.23-1.1-.98-.9-1.7Z"/><path d="m219.39,49.04c-.8,1.5-2.5,1.5-3.9.7-1.26-.51-2.06-1.75-2-3.1h2.2c-.07.54.22,1.06.7,1.3.5.3.8.2.9,0,.4-.7-3.1-2.1-1.9-4.4.76-1.23,2.37-1.62,3.6-.86.03.02.06.04.1.06,1.1.5,1.8,1.59,1.8,2.8h-2.2c.04-.43-.21-.83-.6-1-.23-.2-.57-.2-.8,0-.4.8,3.1,2,1.8,4.4l.3.1Z"/><path d="m227.39,53.93c-1.23,1.59-3.51,1.89-5.11.66-.07-.05-.13-.11-.19-.16-.67-.53-1.04-1.35-1-2.2l-2.5,2.7-1.7-1.5,7-7.8,1.7,1.5-.5.5c.84-.04,1.67.24,2.3.8,1.46,1.41,1.51,3.74.1,5.2-.03.03-.06.06-.1.1v.2Zm-1.7-1.5c.72-.67.76-1.8.08-2.52-.03-.03-.06-.06-.08-.08-.67-.67-1.76-.67-2.43,0-.06.06-.12.13-.17.2-.72.67-.76,1.8-.08,2.52.03.03.06.06.08.08.67.67,1.76.67,2.43,0,.06-.06.12-.13.17-.19h0Z"/><path d="m233.89,50.93l1.3,1.8-8.8,6.5-1.3-1.8,8.8-6.5Z"/><path d="m237.29,63.93l-6.8,3.2-.9-2,.6-.3c-.8-.26-1.45-.84-1.8-1.6-.79-1.88.09-4.05,1.97-4.85.04-.02.09-.04.13-.05,1.85-.96,4.13-.25,5.1,1.6.38.75.42,1.62.1,2.4l.6-.3.9,2,.1-.1Zm-4.3-.5c.9-.39,1.32-1.44.93-2.34,0-.02-.02-.04-.03-.06-.37-.86-1.36-1.26-2.22-.89-.06.03-.12.06-.18.09-.9.39-1.32,1.44-.93,2.34,0,.02.02.04.03.06.36.86,1.35,1.26,2.21.9.06-.03.13-.06.19-.09h0Z"/><path d="m239.29,73.84l-7.6-1.3c-2.5-.4-3.7-1.6-3.9-3.7l2.1-.4c.2,1,.6,1.5,1.5,1.6l6.5-4.2.4,2.4-4.2,2.4,4.8.6.4,2.4v.2Z"/><circle class="cls-4" cx="300.52" cy="118.94" r="45"/><path class="cls-41" d="m320.72,124.93v-19c-.02-2.42-1.98-4.38-4.4-4.4h-33c-2.39.09-4.31,2.01-4.4,4.4v15.3c.1.9.2,1.7.3,2.6.3,2.5.8,4.98,1.5,7.4.41,1.43.91,2.83,1.5,4.2,0,.2,0,.4.3.4v-26.29c0-.5.1-.7.6-.7h33.2c.5,0,.6.1.6.6v36.9c0,.5-.1.6-.6.6h-26.6c.1.4.5.6.8.9,1.49,1.41,3.09,2.68,4.8,3.8.3.2.6.3.9.5-.3-1.6.4-2.5,2.1-2.5h3.2c1-.04,1.85.73,1.9,1.74,0,.02,0,.04,0,.06.03.97-.74,1.78-1.71,1.81-.06,0-.12,0-.19,0h-2.8c.1.3.5.4.8.5,2.29,1.01,4.72,1.69,7.2,2,.51-.03,1.02.04,1.5.2h8.1c2.47.01,4.49-1.99,4.5-4.46,0-.01,0-.03,0-.04v-19.7c-.4-2.25-.4-4.55,0-6.8h-.1Zm-20.2-18.9h-5c-.7,0-1.1-.3-1.1-.9s.4-.9,1.1-.9h5.1c.7,0,1.1.3,1.1.9s-.4.9-1.1.9h-.1Zm3.4,0c-.9,0-1.3-.3-1.4-.9s.4-.9,1.3-.9h0c.9,0,1.3.3,1.3.9s-.4.9-1.4.9h.2Z"/><path class="cls-58" d="m278.82,121.14c.1.9.2,1.7.3,2.6.3,2.5.8,4.98,1.5,7.4.41,1.43.91,2.83,1.5,4.2,0,.2,0,.4.3.4v10.9c0,.3,0,.4.4.4h6.9c.15.38.44.7.8.9,1.49,1.41,3.09,2.68,4.8,3.8.3.2.6.3.9.5.26.43.65.78,1.1,1,.4.2.9,0,1.3.1.1.3.5.4.8.5,2.29,1.01,4.72,1.69,7.2,2,.51-.03,1.02.04,1.5.2h-24.3c-2.52.19-4.71-1.7-4.9-4.21-.02-.23-.02-.46,0-.69v-29.9l-.1-.1Z"/><path class="cls-22" d="m289.72,146.84h-.2c-.01-.21-.12-.39-.3-.5-.6-.6-1.1-1.3-1.7-1.9-1.81-2.32-3.36-4.83-4.6-7.5,0-.24-.17-.45-.4-.5v-27.1c0-.5.1-.7.6-.7h33.2c.5,0,.6.1.6.6v36.9c0,.5-.1.6-.6.6h-26.6v.1Zm6.3-29.1h-2.2c-.4,0-.6.1-.6.6v18.9c0,.4,0,.5.5.5h11.7c.4,0,.5-.1.5-.5v-18.9c0-.5-.1-.6-.6-.6h-2.23v-3.2c0-.3,0-.5-.4-.5h-6.4c-.4,0-.4.1-.4.5v3.2h.13Zm.9,25.5c0-.5-.4-.9-.9-.9-.5,0-.9.4-.9.9s.4.9.9.9h0c.44.06.84-.25.9-.69,0-.07,0-.14,0-.21Zm2.7.9c.5,0,.9-.4.9-.9,0-.5-.4-.9-.9-.9-.5,0-.9.4-.9.9h0c-.06.44.25.84.69.9.07,0,.14,0,.21,0Zm3.7-1.8c-.5,0-.9.4-.9.9,0,.5.4.9.9.9.5,0,.9-.4.9-.9h0c.06-.44-.25-.84-.69-.9-.07,0-.14,0-.21,0Z"/><path class="cls-32" d="m298.62,153.24c-.44.02-.87-.02-1.3-.1-.45-.22-.84-.57-1.1-1-.3-1.6.4-2.5,2.1-2.5h3.2c1-.04,1.85.73,1.9,1.74,0,.02,0,.04,0,.06.03.97-.74,1.78-1.71,1.81-.06,0-.12,0-.19,0h-2.9Z"/><path class="cls-32" d="m297.92,106.04h-2.5c-.7,0-1.1-.3-1.1-.9s.4-.9,1.1-.9h5.1c.7,0,1.1.3,1.1.9s-.4.9-1.1.9h-2.6Z"/><path class="cls-55" d="m303.82,106.04c-.9,0-1.3-.3-1.4-.9s.4-.9,1.3-.9h0c.9,0,1.3.3,1.3.9s-.4.9-1.4.9h.2Z"/><path class="cls-13" d="m282.52,136.44c.3,0,.3.3.4.5,1.26,2.66,2.8,5.17,4.6,7.5.51.68,1.08,1.31,1.7,1.9.1.2.3.3.3.5h-6.7c-.3,0-.4,0-.4-.4v-10.1l.1.1Z"/><path class="cls-8" d="m303.42,117.84h2.2c.4,0,.6.1.6.6v18.9c0,.4,0,.5-.5.5h-11.7c-.4,0-.5-.1-.5-.5v-18.9c0-.5.1-.6.6-.6h9.3Zm-7.33,6.09c.23-.44.71-.68,1.2-.6h4.5c.5,0,1.1-.1,1.5.6v-2.9c0-.4-.1-.5-.5-.5h-6.3c-.4,0-.5.1-.5.5v2.9h.1,0Zm0,7.8v2.9c0,.3,0,.4.4.4h6.5c.3,0,.4,0,.4-.4v-3c-.23.44-.71.68-1.2.6h-4.8c-.52.09-1.03-.15-1.3-.6h0v.1Zm7.2-7.2c-.23.44-.71.68-1.2.6h-4.6c-.52.08-1.05-.11-1.4-.5v2.9c.23-.44.71-.68,1.2-.6h4.6c.52-.08,1.05.11,1.4.5v-2.9Zm0,6.6v-3c-.3.6-.7.6-1.2.6h-4.5c-.5,0-1.1.1-1.5-.6v3c.24-.42.72-.66,1.2-.6h4.8c.5,0,.9,0,1.2.6Z"/><path class="cls-43" d="m303.42,117.84h-7.33v-3.2c0-.3,0-.5.4-.5h6.4c.4,0,.4.1.4.5v3.2h.13Z"/><path class="cls-41" d="m297.02,143.24c0,.5-.4.9-.9.9-.5,0-.9-.4-.9-.9s.4-.9.9-.9h0c.44-.06.84.25.9.69,0,.07,0,.14,0,.21Z"/><path class="cls-41" d="m299.72,144.14c-.5,0-.9-.4-.9-.9,0-.5.4-.9.9-.9.5,0,.9.4.9.9h0c.06.44-.25.84-.69.9-.07,0-.14,0-.21,0Z"/><path class="cls-41" d="m303.42,142.34c.5,0,.9.4.9.9,0,.5-.4.9-.9.9-.5,0-.9-.4-.9-.9h0c-.06-.44.25-.84.69-.9.07,0,.14,0,.21,0Z"/><path class="cls-43" d="m296.09,123.84v-2.91c0-.4.1-.5.5-.5h6.3c.4,0,.5.1.5.5v2.9c-.4-.8-1-.6-1.5-.6h-4.5c-.5,0-.9,0-1.2.6h-.1Z"/><path class="cls-43" d="m296.09,131.74c.3.6.8.6,1.3.6h4.8c.5,0,.9,0,1.2-.6v3c0,.3-.1.4-.4.4h-6.5c-.2.02-.38-.13-.4-.34,0-.02,0-.04,0-.06v-3Z"/><path class="cls-43" d="m303.32,124.44v2.9c-.4-.5-.8-.5-1.4-.5h-4.6c-.5,0-.9,0-1.2.6v-2.9c.4.5.8.5,1.4.5h4.57c.53,0,.93,0,1.23-.6Z"/><path class="cls-43" d="m303.32,131.04c-.26-.41-.72-.64-1.2-.6h-4.8c-.5,0-.9,0-1.2.6v-3c.4.7,1,.6,1.5.6h4.47c.5,0,.9,0,1.2-.6l.03,3Z"/><path d="m263.72,108.74l-.6,2.6,8,1.7-.5,2.3-8-1.7-.6,2.6-2.3-.5,1.6-7.6,2.3.5.1.1Z"/><path d="m267.82,101.14l6.8,3.2-1,2-.6-.3c.32.78.28,1.65-.1,2.4-1.19,1.86-3.67,2.4-5.53,1.2-1.5-.96-2.18-2.8-1.67-4.5.33-.78.99-1.37,1.8-1.6l-.6-.3,1-2-.1-.1Zm2.4,3.6c-.9-.38-1.94.04-2.32.94s.04,1.94.94,2.32c.87.37,1.87,0,2.29-.86.43-.87.07-1.93-.8-2.36-.03-.02-.06-.03-.1-.04Z"/><path d="m277.72,95.04c1.63,1.27,1.91,3.62.64,5.25-.01.02-.03.03-.04.05-.52.69-1.34,1.1-2.2,1.1l.5.5-1.5,1.7-7.9-6.9,1.5-1.7,2.8,2.4c-.09-.85.2-1.69.8-2.3,1.35-1.46,3.62-1.56,5.09-.21.07.07.15.14.21.21l.1-.1Zm-1.5,1.7c-.75-.67-1.9-.63-2.6.1-.64.67-.62,1.73.05,2.38.05.04.1.09.15.12.75.67,1.9.63,2.6-.1.65-.61.67-1.63.06-2.28-.08-.08-.17-.16-.26-.22Z"/><path d="m274.72,88.44l1.8-1.4,6.6,8.7-1.8,1.4-6.6-8.7Z"/><path d="m286.62,91.74c.48-.2.85-.6,1-1.1h2.1c-.2,1.3-1.02,2.42-2.2,3-1.88,1.08-4.28.43-5.37-1.45-.05-.08-.09-.17-.13-.25-1-1.86-.31-4.17,1.55-5.18.08-.04.17-.09.25-.12,1.84-.96,4.1-.24,5.06,1.59.05.1.1.2.14.31.08.27.18.54.3.8l-4.8,2.4c.6.6,1.3.5,2.1.1v-.1Zm0-3.1c-.48-.61-1.33-.78-2-.4-.73.26-1.13,1.06-.9,1.8l2.9-1.4Z"/><path d="m292.62,85.84l.6,2.6c.2.6.7.5,1.7.3l.5,2c-2.8,1-3.8.4-4.3-1.7l-.6-2.6-1.2.3-.5-2.1,1.2-.3-.3-1.4,2-1.2.5,2,1.5-.4.5,2.1-1.5.4h-.1Z"/><path d="m308.09,87.24c-.1,2.09-1.88,3.7-3.97,3.6-.01,0-.02,0-.03,0-.83-.02-1.61-.43-2.1-1.1v.7l-2.3-.2,1.1-10.4,2.2.2-.4,3.7c.63-.55,1.47-.81,2.3-.7,2,.27,3.4,2.11,3.13,4.1,0,.07-.02.13-.03.2l.1-.1Zm-2.2-.2c.14-.96-.52-1.85-1.48-1.99-.04,0-.08-.01-.12-.01-.98-.12-1.87.58-2,1.56,0,.01,0,.03,0,.04-.11.99.61,1.89,1.6,2,.99.11,1.89-.61,2-1.6Z"/><path d="m318.22,87.04l-2.8,7-2.1-.8.3-.7c-.76.35-1.64.35-2.4,0-1.86-.83-2.69-3-1.87-4.86.02-.05.04-.1.07-.14.62-1.93,2.68-2.99,4.6-2.37.07.02.13.04.2.07.79.29,1.41.91,1.7,1.7l.3-.7,2.1.8h-.1Zm-3.5,2.6c.41-.89.02-1.94-.87-2.35-.04-.02-.09-.04-.13-.05-.83-.4-1.82-.05-2.21.78-.03.07-.06.14-.09.22-.41.89-.02,1.94.87,2.35.04.02.09.04.13.05.83.4,1.82.05,2.21-.78.03-.07.06-.14.09-.22Z"/><path d="m321.72,91.93l-1.5,2.2c-.4.5,0,.9.9,1.4l-1.2,1.7c-2.6-1.4-2.8-2.7-1.6-4.4l1.5-2.2-1-.7,1.2-1.8,1,.7.8-1.2,2.2.7-1.2,1.7,1.3.9-1.2,1.8-1.3-.9.1.1Z"/><path d="m326.09,95.84l-1.9,1.9c-.5.5-.1.9.6,1.5l-1.4,1.5c-2.3-1.9-2.3-3.1-.8-4.6l1.9-1.9-.9-.8,1.5-1.51.9.8,1-1,2.1,1.1-1.5,1.5,1.1,1.1-1.5,1.5-1.1-1.09Z"/><path d="m327.52,103.34c.29.47.76.79,1.3.9v2.1c-1.25-.09-2.38-.81-3-1.9-1.28-1.76-.89-4.21.87-5.49,1.76-1.28,4.21-.89,5.49.87,1.28,1.76.89,4.21-.87,5.49-.06.04-.12.09-.19.13-.25.17-.51.31-.8.4l-2.9-4.4c-.42.65-.38,1.49.1,2.1v-.2Zm3-.3c.53-.55.57-1.4.1-2-.36-.69-1.18-.99-1.9-.7l1.8,2.7Z"/><path d="m336.92,109.54l-2.4.9c-.1-.99-.98-1.71-1.96-1.62-.16.02-.32.05-.47.11l-3.2,1.2-.8-2.1,7-2.7.8,2.1-1.2.5c1.01,0,1.9.65,2.23,1.61Z"/><path d="m338.52,118.74l-7.6-1.4c-2.5-.5-3.6-1.6-3.8-3.7l2.1-.3c.04.85.67,1.55,1.5,1.7l6.6-4,.4,2.4-4.3,2.3,4.8.7.4,2.4-.1-.1Z"/><circle class="cls-2" cx="335.25" cy="219.73" r="45"/><path class="cls-68" d="m335.25,206.53h28.5c2.15-.11,3.99,1.55,4.1,3.7v1c-.08.77-.22,1.54-.4,2.3-.3,1.6,0,2,1.6,1.9,2.7-.1,3.4.8,3.3,3.3v17.8c0,5.9-.7,2.6-2.6,2.6h-5.5c-1.3,0-1.4.1-1.7,1.4l-.7,4.2c-.29,1.92-1.96,3.33-3.9,3.3h-45.3c-1.99.05-3.68-1.42-3.9-3.4-.3-1.5-.5-2.9-.8-4.4-.1-.8-.5-1.1-1.3-1.1h-6.1c-1.13.11-2.14-.68-2.3-1.8v-19.59c-.11-1.13.68-2.14,1.8-2.3h1.8c1.1,0,1.5-.4,1.3-1.6-.12-.91-.29-1.81-.5-2.7-.44-2.1.9-4.15,3-4.6h29.6Zm0,7.6h-19.9c-2.4,0-3.7,1.6-3.3,4,.4,2.4.9,4.9,1.3,7.4.8,4.2,1.5,8.4,2.3,12.6.25,1.5,1.58,2.57,3.1,2.5h32.9c1.52.07,2.85-1,3.1-2.5.5-2.6,1-5.3,1.4-7.9.7-4,1.5-8.1,2.1-12.1.4-2.3-.9-3.8-3.3-3.8h-19.8l.1-.2Zm30.4,5.1c-1.32.04-2.4,1.08-2.5,2.4h0c0,1.33,1.08,2.4,2.41,2.39,1.32,0,2.39-1.07,2.39-2.39h0c.04-1.26-.94-2.33-2.2-2.4h-.1,0Zm-60.8,16.1c1.32-.02,2.38-1.08,2.4-2.4h0c-.05-1.3-1.1-2.35-2.4-2.4-1.35.03-2.42,1.15-2.4,2.5h0c-.07,1.2.85,2.23,2.06,2.3.05,0,.1,0,.14,0h.2Zm-2.4-13.7c.02,1.32,1.08,2.38,2.4,2.4,1.32-.04,2.4-1.08,2.5-2.4.01-1.37-1.09-2.49-2.46-2.5-.01,0-.03,0-.04,0h0c-1.26-.04-2.33.94-2.4,2.2v.3Zm65.6,11.3c0-1.3-1-2.39-2.3-2.5-1.32.04-2.4,1.08-2.5,2.4.02,1.32,1.08,2.38,2.4,2.4,1.24.09,2.31-.85,2.4-2.09,0,0,0,0,0,0v-.2Z"/><path class="cls-14" d="m335.25,214.13h19.9c2.4,0,3.7,1.4,3.3,3.8-.7,4-1.4,8.1-2.1,12.1-.5,2.6-.9,5.3-1.4,7.9-.25,1.5-1.58,2.57-3.1,2.5h-33.1c-1.52.07-2.85-1-3.1-2.5-.8-4.2-1.5-8.4-2.3-12.5-.4-2.5-.9-4.9-1.3-7.4-.4-2.5.9-4,3.3-4h19.9v.1Zm-12.6,8.1c0-1.38-1.12-2.5-2.5-2.5s-2.5,1.12-2.5,2.5,1.12,2.5,2.5,2.5c1.37.01,2.49-1.09,2.5-2.46,0-.01,0-.03,0-.04h0Zm2.5,7.7c-1.32.04-2.4,1.08-2.5,2.4,0,1.38,1.12,2.5,2.5,2.5s2.5-1.12,2.5-2.5c0-1.32-1.06-2.4-2.38-2.4-.04,0-.08,0-.12,0Zm27.7-7.6c.02-1.35-1.05-2.47-2.4-2.5-1.34,0-2.44,1.06-2.5,2.4-.02,1.35,1.05,2.47,2.4,2.5h0c1.35-.03,2.42-1.15,2.4-2.5h0l.1.1Zm-7.5,7.6c.03-1.41,1.19-2.53,2.6-2.5s2.53,1.19,2.5,2.6-1.19,2.53-2.6,2.5c-1.37-.03-2.47-1.13-2.5-2.5h0v-.1Zm-12.6-7.6c-1.35.03-2.43,1.15-2.4,2.5s1.15,2.43,2.5,2.4,2.43-1.15,2.4-2.5c-.03-1.31-1.09-2.37-2.4-2.4h-.1Zm7.6-2.5c-1.38,0-2.5,1.12-2.5,2.5s1.12,2.5,2.5,2.5,2.5-1.12,2.5-2.5c.01-1.37-1.09-2.49-2.46-2.5-.01,0-.03,0-.04,0h0Zm-2.6,12.7c.02-1.35-1.05-2.47-2.4-2.5-1.35-.03-2.47,1.05-2.5,2.4-.03,1.35,1.05,2.47,2.4,2.5h0c1.35.02,2.47-1.05,2.5-2.4Z"/><path class="cls-52" d="m365.65,219.23c1.26-.04,2.33.94,2.4,2.2v.2c0,1.34-1.06,2.44-2.4,2.5h0c-1.33,0-2.4-1.08-2.39-2.41,0-1.32,1.07-2.39,2.39-2.39h0v-.1Z"/><path class="cls-52" d="m304.85,235.33c-1.23.05-2.28-.87-2.4-2.1v-.2c-.03-1.35,1.05-2.47,2.4-2.5,0,0,0,0,0,0h0c1.35-.03,2.47,1.05,2.5,2.4.03,1.35-1.05,2.47-2.4,2.5h0l-.1-.1Z"/><path class="cls-52" d="m302.45,221.63c-.05-1.23.87-2.28,2.1-2.4h.3c1.32,0,2.4,1.06,2.4,2.38,0,.04,0,.08,0,.12-.05,1.3-1.1,2.35-2.4,2.4-1.32-.02-2.38-1.08-2.4-2.4v-.1Z"/><path class="cls-52" d="m368.05,232.93c.04,1.26-.94,2.33-2.2,2.4h-.2c-1.32-.02-2.38-1.08-2.4-2.4.06-1.34,1.16-2.39,2.5-2.4,1.28,0,2.31,1.05,2.31,2.33,0,.06,0,.11,0,.17v-.1Z"/><path class="cls-23" d="m322.65,222.23c0,1.38-1.12,2.5-2.5,2.5s-2.5-1.12-2.5-2.5,1.12-2.5,2.5-2.5h0c1.36.06,2.44,1.14,2.5,2.5Z"/><path class="cls-16" d="m325.15,229.83c1.32.04,2.4,1.08,2.5,2.4,0,1.38-1.12,2.5-2.5,2.5s-2.5-1.12-2.5-2.5h0c.03-1.35,1.15-2.43,2.5-2.4,0,0,0,0,0,0Z"/><path class="cls-60" d="m352.85,222.23c0,1.38-1.12,2.5-2.5,2.5s-2.5-1.12-2.5-2.5,1.12-2.5,2.5-2.5c1.37-.01,2.49,1.09,2.5,2.46,0,.01,0,.03,0,.04Z"/><path class="cls-16" d="m345.35,229.83c1.38,0,2.5,1.12,2.5,2.5s-1.12,2.5-2.5,2.5-2.5-1.12-2.5-2.5c-.01-1.37,1.09-2.49,2.46-2.5.01,0,.03,0,.04,0Z"/><path class="cls-14" d="m332.79,228.26c1.84-.04,3.3-1.56,3.26-3.39-.04-1.84-1.56-3.3-3.39-3.26-1.84.04-3.3,1.56-3.26,3.39.04,1.78,1.47,3.22,3.26,3.26h.14Z"/><path class="cls-16" d="m340.25,219.74c1.38,0,2.5,1.12,2.5,2.5s-1.12,2.5-2.5,2.5-2.5-1.12-2.5-2.5c-.01-1.37,1.09-2.49,2.46-2.5.01,0,.03,0,.04,0Z"/><path class="cls-16" d="m337.65,232.43c-.03,1.35-1.15,2.43-2.5,2.4,0,0,0,0,0,0-1.34-.06-2.39-1.16-2.4-2.5.03-1.35,1.15-2.43,2.5-2.4,0,0,0,0,0,0,1.34.06,2.39,1.16,2.4,2.5Z"/><path d="m320.35,187.43c1.3,2.34.45,5.29-1.89,6.59,0,0,0,0-.01,0l-1.8,1,2.2,3.8-2.8,1.6-7-12.1,4.6-2.6c2.23-1.37,5.15-.67,6.52,1.56.03.05.05.09.08.14h.1Zm-2.8,1.6c-.42-.84-1.44-1.18-2.28-.77-.04.02-.08.04-.12.07l-1.8,1,1.8,3.1,1.8-1c.82-.5,1.09-1.57.6-2.4h0Z"/><path d="m323.45,190.74c-.56-2.87,1.32-5.65,4.2-6.21,2.87-.56,5.65,1.32,6.21,4.2s-1.32,5.65-4.2,6.21c0,0,0,0,0,0-2.87.54-5.64-1.34-6.2-4.2Zm7.5-1.4c-.19-1.25-1.35-2.1-2.59-1.92-.04,0-.07.01-.11.02-1.21.19-2.04,1.32-1.86,2.53.01.09.03.18.06.27.19,1.25,1.35,2.1,2.59,1.92.04,0,.07-.01.11-.02,1.19-.17,2.02-1.26,1.85-2.45-.01-.08-.03-.17-.05-.25v-.1Z"/><path d="m342.55,184.43l-.3,3.4c-1.2-.3-3,0-3.2,2l-.4,4.5-3-.3,1-10,3,.3-.2,1.8c.57-1.22,1.87-1.91,3.2-1.7h-.1Z"/><path d="m348.35,189.33l-1.1,3.4c-.3.8.4,1.1,1.7,1.5l-.9,2.6c-3.8-.9-4.5-2.4-3.6-5l1.1-3.4-1.5-.5.9-2.7,1.5.5.6-1.8h3.1c0,.1-.9,2.8-.9,2.8l2,.7-.9,2.7-2-.7v-.1Z"/><path d="m356.85,198.74c-1.2,1.9-3.5,1.7-5.3.5-1.58-.82-2.49-2.53-2.3-4.3l3,.2c-.25.74.09,1.56.8,1.9.6.4,1,.4,1.2,0,.6-.9-3.8-3.1-2-6,1.2-1.8,3.3-1.8,5.1-.6,1.37.81,2.18,2.31,2.1,3.9l-2.9-.2c0-.6,0-1.1-.6-1.5-.4-.3-.8-.3-1,0-.6.99,3.9,2.99,1.9,6.1Z"/><path class="cls-16" d="m331.65,225.23c1.35-.03,2.43-1.15,2.4-2.5s-1.15-2.43-2.5-2.4-2.43,1.15-2.4,2.5c.03,1.31,1.09,2.37,2.4,2.4h.1Z"/><path class="cls-69" d="m296.12,326.18c.56,0,1.12.02,1.68.03.95,0,1.73.78,1.75,1.74.01.88,0,1.76,0,2.63,0,7.43,0,14.85,0,22.28,0,.48-.02.98-.16,1.44-.17.55-.85,1.05-1.43,1.05-6.29,0-12.58,0-18.86,0-.03,0-.06,0-.09-.01,0-1.71,0-3.42,0-5.13,1.31,0,2.62,0,3.93-.01.17,0,.36.04.36-.23.01-.65.06-1.31-.09-1.93-.41-1.67-.89-3.33-1.32-4.99-.12-.45-.24-.9-.4-1.33-.25-.68.22-1.04.63-1.42.68-.62.96-1.4,1.12-2.3.34-1.87-1.24-4.12-3.02-4.69-.06-.1-.14-.15-.25-.09-.09-.02-.18-.04-.27-.06-.04-.06-.09-.07-.16-.04-.17-.02-.35-.05-.52-.07,0-2.27,0-4.54,0-6.81,3.22,0,6.45-.01,9.67-.02.2,0,.4-.02.6-.02,1.15.04,2.31.05,3.46,0,1.13.06,2.26.05,3.39,0Z"/><path class="cls-36" d="m279,350.2c0,1.71,0,3.42,0,5.13-.65,0-1.29.01-1.94.01-5.48,0-10.97-.03-16.45.02-1.44.01-2.19-.77-2.18-2.19.05-8.39.03-16.78,0-25.17,0-1.01.81-1.81,1.77-1.79.56.01,1.12-.01,1.68-.02,1.13.03,2.26.06,3.39-.01,1.15.07,2.3.04,3.45.01.19,0,.37.02.56.02,3.24,0,6.48,0,9.71.01,0,2.27,0,4.54,0,6.81-.36.17-.77.09-1.15.24-1.6.62-2.66,1.7-3.04,3.41-.07.04-.12.08-.03.15-.13,1.41.02,2.7,1.28,3.63.4.29.55.74.39,1.29-.1.34-.23.67-.31,1.01-.22.94-.47,1.88-.72,2.81-.18.69-.4,1.37-.56,2.07-.16.69-.12,1.39-.15,2.09-.01.35.08.47.45.46,1.28-.02,2.56,0,3.84,0Z"/><path class="cls-54" d="m265.27,326.17c-1.13.07-2.26.04-3.39.01,0-3.05-.02-6.1.02-9.15.02-1.41.21-2.81.62-4.18.49-1.65,1.19-3.2,2.14-4.63,1.18-1.79,2.65-3.31,4.4-4.56,1.15-.82,2.36-1.55,3.68-2.01,1.32-.46,2.65-.91,4.07-1.01.8-.06,1.59-.18,2.39-.16,1.99.03,3.92.43,5.78,1.13,1.87.7,3.55,1.72,5.08,2.99,1.32,1.1,2.4,2.4,3.32,3.83.65,1.02,1.17,2.1,1.61,3.23.24.62.41,1.27.62,1.9.2.57.23,1.2.3,1.81.39,3.6.1,7.21.19,10.81-1.13.04-2.26.06-3.39,0,0-2.58-.02-5.15.01-7.73.02-1.48-.17-2.93-.53-4.36-.51-2.01-1.44-3.82-2.8-5.37-1.66-1.9-3.68-3.33-6.11-4.1-1.73-.55-3.48-.72-5.3-.61-1.68.1-3.26.5-4.76,1.2-2.5,1.16-4.46,2.94-5.92,5.29-1.26,2.02-1.94,4.24-2.03,6.59-.11,3.03-.02,6.07-.02,9.11Z"/><path class="cls-20" d="m289.27,326.18c0-2.73.02-5.47,0-8.2-.02-1.45-.22-2.89-.8-4.24-.46-1.07-1.08-2.04-1.85-2.94-1.14-1.33-2.57-2.25-4.18-2.83-1.49-.54-3.05-.72-4.65-.52-.98.12-1.93.35-2.81.73-2.46,1.07-4.27,2.83-5.38,5.29-.52,1.15-.73,2.36-.79,3.61-.15,3.03-.02,6.07-.07,9.1-1.15.02-2.3.05-3.45-.02,0-3.04-.09-6.08.02-9.11.09-2.34.77-4.57,2.03-6.59,1.46-2.34,3.42-4.12,5.92-5.29,1.5-.7,3.08-1.1,4.76-1.2,1.82-.11,3.57.07,5.3.61,2.44.77,4.45,2.2,6.11,4.1,1.36,1.55,2.29,3.36,2.8,5.37.36,1.43.55,2.88.53,4.36-.03,2.58-.01,5.15-.01,7.73-1.15.06-2.31.04-3.46,0Z"/><path class="cls-39" d="m279,350.2c-1.28,0-2.56-.02-3.84,0-.37,0-.46-.11-.45-.46.03-.7-.02-1.41.15-2.09.17-.69.38-1.38.56-2.07.25-.94.5-1.87.72-2.81.08-.34.21-.68.31-1.01.16-.55,0-.99-.39-1.29-1.26-.93-1.41-2.23-1.28-3.63.07-.04.07-.09.03-.15.38-1.7,1.44-2.78,3.04-3.41.38-.15.79-.06,1.15-.24.17.02.35.05.52.07.03.09.08.14.16.04.09.02.18.04.27.06.05.12.15.1.25.09,1.78.57,3.36,2.82,3.02,4.69-.16.9-.45,1.67-1.12,2.3-.41.38-.88.73-.63,1.42.16.43.29.88.4,1.33.43,1.67.91,3.32,1.32,4.99.15.62.1,1.28.09,1.93,0,.28-.19.23-.36.23-1.31,0-2.62,0-3.93.01Z"/><path class="cls-20" d="m280.2,333.3c-.1,0-.2.03-.25-.09.11-.05.19,0,.25.09Z"/><path class="cls-20" d="m279.68,333.15c-.08.1-.12.05-.16-.04.06-.04.12-.02.16.04Z"/><path class="cls-54" d="m274.81,336.68c.04.06.04.12-.03.15-.09-.07-.03-.12.03-.15Z"/><circle class="cls-3" cx="279.15" cy="330.51" r="44.02"/></svg>