<?xml version="1.0" encoding="UTF-8"?><svg id="Layer_1" xmlns="http://www.w3.org/2000/svg" viewBox="0 0 400 400"><defs><style>.cls-1{stroke:#a5262d;}.cls-1,.cls-2{stroke-width:4px;}.cls-1,.cls-2,.cls-3{fill:none;stroke-miterlimit:10;}.cls-2{stroke:#000;}.cls-4{fill:#fff;}.cls-5{fill:#4fb76a;}.cls-6{fill:#349951;}.cls-7{fill:#cfe1ed;}.cls-8{fill:#143441;}.cls-9{fill:#a7c1e0;}.cls-10{fill:#546e7a;}.cls-11{fill:#0d202b;}.cls-12{fill:#cbdde9;}.cls-13{fill:#369754;}.cls-14{fill:#163842;}.cls-15{fill:#fdd782;}.cls-16{fill:#ffed58;}.cls-17{fill:#caa158;}.cls-3{stroke:#231f20;stroke-width:2px;}.cls-18{fill:#36464e;}.cls-19{fill:#183c43;}.cls-20{fill:#788f9b;}.cls-21{fill:#fbd734;}.cls-22{fill:#cadce8;}.cls-23{fill:#51b66c;}.cls-24{fill:#231f20;}.cls-25{fill:#153642;}</style></defs><line class="cls-4" x1="199.06" y1="234.43" x2="198.56" y2="267.21"/><line class="cls-3" x1="199.06" y1="234.43" x2="198.72" y2="256.44"/><polygon class="cls-24" points="191.28 254.14 198.56 267.21 206.23 254.37 191.28 254.14"/><line class="cls-4" x1="256.36" y1="118.51" x2="234.25" y2="142.71"/><line class="cls-3" x1="256.36" y1="118.51" x2="241.51" y2="134.77"/><polygon class="cls-24" points="237.47 128.11 234.25 142.71 248.51 138.19 237.47 128.11"/><line class="cls-4" x1="143.25" y1="118.51" x2="165.36" y2="142.71"/><line class="cls-3" x1="143.25" y1="118.51" x2="158.1" y2="134.77"/><polygon class="cls-24" points="151.1 138.19 165.36 142.71 162.15 128.11 151.1 138.19"/><line class="cls-4" x1="282.2" y1="184.1" x2="249.42" y2="184.6"/><line class="cls-3" x1="282.2" y1="184.1" x2="260.18" y2="184.43"/><polygon class="cls-24" points="262.26 176.92 249.42 184.59 262.48 191.88 262.26 176.92"/><line class="cls-4" x1="115.42" y1="184.1" x2="148.2" y2="184.6"/><line class="cls-3" x1="115.42" y1="184.1" x2="137.43" y2="184.43"/><polygon class="cls-24" points="135.13 191.88 148.2 184.6 135.36 176.92 135.13 191.88"/><circle class="cls-1" cx="110" cy="80.34" r="45"/><path class="cls-5" d="m88.4,113.04l-1.8-1.8c-.2-.18-.31-.43-.3-.7v-38.22c-.04-.33.07-.66.3-.9.9-1,1.9-1.9,2.8-2.9.15-.18.37-.29.6-.3h37.8c.2,0,.4,0,.5.2l1.8,1.8v38.7c.02.35-.13.68-.4.9-.8.8-1.6,1.7-2.4,2.5-.25.3-.61.48-1,.5h-37.4c-.21-.02-.41.02-.6.1l.1.12Zm13.7-4.5h2.5v1.9q0,1.1,1.1,1.1c.3,0,.4-.1.4-.4v-2.6h2.5v1.9q0,1.1,1.1,1.1c.3,0,.4-.1.4-.4v-2.6h2.5v1.9q0,1.1,1.1,1.1c.3,0,.4,0,.4-.4v-2.7h2.5v2q0,1.1,1.1,1.1c.4,0,.5-.1.5-.5v-2.6h2.5v1.88q0,1.2,1.2,1.1c.3,0,.4-.1.4-.4v-2.6h2.5v1.9q0,1.2,1.2,1.1c.3,0,.4,0,.4-.4v-2.6c.2,0,.4,0,.4-.3h1.8q1.1,0,1.1-1.1c0-.3-.1-.4-.4-.4h-2.5v-2.5h1.8q1.1,0,1.1-1.1c0-1.1-.1-.5-.4-.5h-2.5v-2.5h1.8c1.3,0,1.1.2,1.1-1.1,0-.3,0-.4-.4-.4h-2.5v-2.5h1.8c1.3,0,1.1.2,1.1-1.1,0-.3-.1-.4-.4-.4h-2.5v-2.5h1.8c1.3,0,1.1.2,1.1-1.1,0-.3-.1-.4-.4-.4h-2.5v-2.5h1.8q1.2,0,1.1-1.2c0-.3-.1-.3-.4-.3h-2.6v-2.5h1.8q1.2,0,1.1-1.2c0-.3-.1-.3-.4-.3h-2.6v-2.5h1.8q1.2,0,1.1-1.2c0-.3-.1-.3-.4-.3h-2.6v-2.5h1.8q1.2,0,1.1-1.2c0-.3-.1-.3-.4-.3h-2.6c0-.3-.1-.4-.4-.4v-1.8q0-1.2-1.2-1.1c-.3,0-.3.1-.3.4v2.6h-2.5v-1.8q0-1.2-1.2-1.1c-.3,0-.3.1-.3.4v2.6h-2.5v-1.8q0-1.2-1.2-1.1c-.3,0-.3.1-.3.4v2.6h-2.5v-1.8q0-1.2-1.2-1.1c-.3,0-.3.1-.3.4v2.6h-2.5v-1.8q0-1.2-1.2-1.1c-.3,0-.3.1-.3.4v2.6h-2.5v-1.9q0-1.2-1.2-1.1c-.3,0-.3.1-.3.4v2.6h-2.5v-1.9q0-1.2-1.2-1.1c-.3,0-.3.1-.3.4v2.6h-2.5v-1.9c0-1.2,0-1.1-1.2-1.1-.3,0-.3.1-.3.4v2.6h-2.5v-1.9c0-1.2,0-1.1-1.2-1.1-.3,0-.3.1-.3.4v2.6h-.6c-.3,0-.4,0-.4.4h-1.2q-1.2,0-1.1,1.2c-.02.15.09.28.24.3.02,0,.04,0,.06,0h2v2.5h-1.2q-1.2,0-1.1,1.2c-.02.15.09.28.24.3.02,0,.04,0,.06,0h2v2.5h-1.2q-1.2,0-1.1,1.2c-.02.15.09.28.24.3.02,0,.04,0,.06,0h2v2.5h-1.2q-1.2,0-1.1,1.2c0,.3.1.3.3.3h2v2.5h-1.2q-1.2,0-1.2,1.2c0,.2,0,.3.3.3h2v2.5h-1.2q-1.2,0-1.2,1.2c0,.3.1.3.4.3h1.9v2.5h-1.2q-1.2,0-1.2,1.2c0,.3.1.3.4.3h1.9v2.5h-1.2q-1.2,0-1.1,1.2c0,.3.1.3.4.3h1.9v2.5h-1.2q-1.2,0-1.1,1.2c0,.3.1.3.4.3h1.9c0,.2,0,.3.3.3h.7v1.9q0,1.2,1.2,1.1c.3,0,.3-.1.3-.4v-2.7h2.5v1.9q0,1.2,1.2,1.1c.3,0,.3-.1.3-.4v-2.7h2.5v1.9q0,1.1,1.1,1.1c.3,0,.4-.1.4-.4v-2.6l.4-.08Z"/><path class="cls-6" d="m88.4,113.04c.2-.2.4-.1.6-.1h37.4c.39,0,.77-.18,1-.5.8-.9,1.6-1.7,2.4-2.5.27-.22.42-.55.4-.9v-38.72c.5.4.9.9,1.4,1.3.2.2.1.4.1.6v38.4c.04.3-.07.6-.3.8-.9.9-1.8,1.9-2.6,2.8-.15.18-.37.29-.6.3h-38c-.22.03-.44-.05-.6-.2-.39-.37-.76-.78-1.1-1.2l-.1-.08Z"/><path class="cls-7" d="m122.1,74.24h2.9v8.7c.13,3.73.07,7.47-.2,11.2-.16,1.7-.53,3.38-1.1,5-.22.64-.52,1.24-.9,1.8v-21.62c0-.5.2-1.1,0-1.3s-.9,0-1.4,0h-25.5c-.4,0-.5.1-.5.5v25.8c0,.4.1.5.5.5h23.1c-.5.2-.9.5-1.4.7-2.51,1-5.2,1.51-7.9,1.5h-18v-32.28c0-.3,0-.4.4-.4h30.1l-.1-.1Z"/><path class="cls-9" d="m91.6,106.94h18c2.71.05,5.4-.46,7.9-1.5.5-.2.9-.5,1.4-.7h3.5c.3,0,.4,0,.4-.4v-3.4c.42-.53.72-1.15.9-1.8.61-1.6.98-3.29,1.1-5,.3-3.7.1-7.5.2-11.2v-8.7h1.1c.3,0,.4,0,.4.4v33.5c0,.3-.2.3-.4.3h-34.2c-.2,0-.3,0-.3-.3v-1.2Z"/><path class="cls-19" d="m120.5,108.44h1.5v2.6c0,.3,0,.4-.4.4q-1.2,0-1.2-1.1v-1.9h.1Z"/><path class="cls-14" d="m116.5,108.44h1.5v2.6c0,.3,0,.5-.5.5q-1.1,0-1.1-1.1v-1.9l.1-.1Z"/><path class="cls-14" d="m124.5,108.44h1.5v2.6c0,.3,0,.4-.4.4q-1.2,0-1.2-1.1v-1.9h.1Z"/><path class="cls-14" d="m118.1,74.24h-1.5v-2.6c0-.2,0-.4.3-.4q1.2,0,1.2,1.1v1.9Z"/><path class="cls-19" d="m122.1,74.24h-1.5v-2.6c0-.2,0-.3.3-.4q1.2,0,1.2,1.1v1.9Z"/><path class="cls-14" d="m126.1,74.24h-1.5v-2.6c0-.2,0-.3.3-.4q1.2,0,1.2,1.1v1.9Z"/><path class="cls-14" d="m126.5,100.14v-1.5h2.5c.3,0,.4.1.4.4,0,1.4.2,1.1-1.1,1.1h-1.8Z"/><path class="cls-14" d="m126.5,92.14v-1.5h2.5c.3,0,.4.1.4.4,0,1.4.2,1.1-1.1,1.1h-1.8Z"/><path class="cls-14" d="m126.5,96.14v-1.5h2.5c.3,0,.4.1.4.4,0,1.4.2,1.1-1.1,1.1h-1.8Z"/><path class="cls-14" d="m126.5,104.14v-1.5h2.5c.3,0,.4.1.4.5q0,1.1-1.1,1.1h-1.8v-.1Z"/><path class="cls-25" d="m92.6,108.44h1.5v2.7c0,.2,0,.4-.3.4q-1.2,0-1.2-1.1v-2Z"/><path class="cls-25" d="m96.6,108.44h1.5v2.7c0,.2,0,.4-.3.4q-1.2,0-1.2-1.1v-2Z"/><path class="cls-25" d="m104.6,108.44h1.5v2.6c0,.3,0,.4-.4.4q-1.1,0-1.1-1.1v-1.9Z"/><path class="cls-14" d="m108.5,108.44h1.5v2.6c0,.3,0,.4-.4.4q-1.1,0-1.1-1.1v-1.9Z"/><path class="cls-14" d="m112.5,108.44h1.5v2.7c0,.3,0,.4-.4.4q-1.1,0-1.1-1.1v-2Z"/><path class="cls-25" d="m100.6,108.44h1.5v2.6c0,.3,0,.4-.4.4q-1.1,0-1.1-1.1v-1.9Z"/><path class="cls-14" d="m126.5,88.14v-1.5h2.6c.2,0,.3,0,.4.3q0,1.2-1.1,1.2h-1.9Z"/><path class="cls-25" d="m126.5,80.14v-1.5h2.6c.2,0,.3,0,.4.3q0,1.2-1.1,1.2h-1.9Z"/><path class="cls-25" d="m126.5,84.14v-1.5h2.6c.2,0,.3,0,.4.3q0,1.2-1.1,1.2h-1.9Z"/><path class="cls-25" d="m126.5,76.14v-1.5h2.6c.2,0,.3,0,.4.3q0,1.2-1.1,1.2h-1.9Z"/><path class="cls-14" d="m114,74.24h-1.5v-2.6c0-.2,0-.4.3-.4q1.2,0,1.2,1.1v1.9Z"/><path class="cls-25" d="m106,74.24h-1.5v-2.6c0-.2,0-.4.3-.4q1.2,0,1.2,1.1v1.9Z"/><path class="cls-14" d="m126.5,108.14v-1.5h2.5c.3,0,.4,0,.4.4q0,1.1-1.1,1.1h-1.8Z"/><path class="cls-25" d="m110,74.24h-1.5v-2.6c0-.2,0-.3.3-.4q1.2,0,1.2,1.1v1.9Z"/><path class="cls-25" d="m102,74.24h-1.5v-2.6c0-.2,0-.4.3-.4q1.2,0,1.2,1.1v1.9Z"/><path class="cls-8" d="m98,74.24h-1.5v-2.6c0-.2,0-.4.3-.4q1.2,0,1.2,1.1v1.9Z"/><path class="cls-8" d="m94,74.24h-1.5v-2.6c0-.2,0-.4.3-.4q1.2,0,1.2,1.1v1.9Z"/><path class="cls-14" d="m91.5,94.64v1.5h-1.9c-.2,0-.4,0-.4-.3q0-1.2,1.2-1.2h1.1,0Z"/><path class="cls-14" d="m91.5,98.64v1.5h-1.9c-.2,0-.4,0-.4-.3q0-1.2,1.2-1.2h1.1,0Z"/><path class="cls-14" d="m91.5,102.64v1.5h-1.9c-.2,0-.4,0-.4-.3q0-1.2,1.1-1.2h1.2Z"/><path class="cls-14" d="m91.5,90.64v1.5c-.67.05-1.33.05-2,0-.2,0-.3,0-.3-.3q0-1.2,1.2-1.2h1.1Z"/><path class="cls-25" d="m91.5,82.64v1.5h-2c-.2,0-.3,0-.3-.3q0-1.2,1.1-1.2h1.2Z"/><path class="cls-25" d="m91.5,78.64v1.5h-2c-.2,0-.3,0-.3-.3q0-1.2,1.1-1.2h1.2Z"/><path class="cls-8" d="m91.5,74.64v1.5h-2c-.2,0-.3,0-.3-.3q0-1.2,1.1-1.2h1.2Z"/><path class="cls-25" d="m91.5,86.64v1.5h-2c-.2,0-.3,0-.3-.3q0-1.2,1.1-1.2h1.2Z"/><path class="cls-14" d="m91.6,106.94v1.2h-2c-.2,0-.3,0-.4-.3q0-1.2,1.1-1.2h1.2v.3h.1Z"/><path class="cls-8" d="m95.3,103.24v-24.8c0-.4.1-.5.5-.5h25.5v4.5c0,3.2.1,6.5,0,9.7-.05,1.31-.35,2.6-.9,3.8-.67,1.8-1.81,3.39-3.3,4.6-2.34,1.73-5.19,2.65-8.1,2.6h-13.6l-.1.1Zm14.4-5.2h2.2v2.7q0,1.1,1.1,1.1c.3,0,.4-.1.4-.4v-3.4h2.3c.3,0,.4,0,.4-.4v-1.8h2.2q1.1,0,1.1-1.1c0-.3-.1-.4-.4-.4h-2.9v-2.2h2.2q1.1,0,1.1-1.1c0-.3-.1-.4-.4-.4h-2.9v-2.2h2.2q1.1,0,1.1-1.1c0-.3-.1-.4-.4-.4h-2.9v-1.9c0-.3,0-.4-.3-.4h-2.4v-2.6q0-1.1-1.1-1.1c-.3,0-.4,0-.4.4v3.3h-2.2v-2.6q0-1.1-1.1-1.1c-.3,0-.4,0-.4.4v3.3h-2.2v-2.6q0-1.1-1.1-1.1c-.3,0-.4,0-.4.4v3.3h-2.1c-.3,0-.4,0-.4.4v1.9h-2.3q-1.1,0-1.1,1.1c0,.3.1.4.4.4h3.1v2.2h-2.3q-1.1,0-1.1,1.1c0,.3.1.4.4.4h3.1v2.18h-2.3q-1.1,0-1.1,1.1c0,.3.1.4.4.4h3.1v1.9q0,.3.4.3h2.2v2.7q0,1.1,1.1,1.1c.3,0,.4-.1.4-.4v-3.4h2.2v2.7q0,1.1,1.1,1.1c.3,0,.4-.1.4-.4v-3.4l-.4.02Z"/><path class="cls-11" d="m95.3,103.24h13.6c2.92.09,5.78-.82,8.1-2.6,1.52-1.19,2.66-2.78,3.3-4.6.5-1.21.8-2.49.9-3.8.2-3.2,0-6.5,0-9.7v-4.5c.5,0,1.1-.2,1.4,0s0,.9,0,1.3v24.98c0,.3,0,.4-.4.4h-26.6c-.4,0-.6,0-.5-.5v-1l.2.02Z"/><path class="cls-23" d="m101.9,86.94v-1.9c0-.3,0-.4.4-.4h12.2c0,2.4.1,4.8-.1,7.1-.06,1.14-.56,2.22-1.4,3v-6.8c0-.3,0-.5-.4-.4h-7.4q-.3,0-.3.3v6.6c0,.4.1.5.5.5h7.4c-.08.18-.22.32-.4.4-1.05.75-2.31,1.14-3.6,1.1h-6.8v-9.6l-.1.1Z"/><path class="cls-13" d="m102,96.54h6.8c1.29.04,2.55-.35,3.6-1.1.18-.08.32-.22.4-.4.1,0,.2-.2.3-.3.8-.81,1.29-1.87,1.4-3,.2-2.4,0-4.7.1-7.1h1.2c.3,0,.3.1.3.4v12.6c0,.3-.1.4-.4.4h-13.4c-.3,0-.4,0-.4-.3v-1.2h.1Z"/><path class="cls-12" d="m111.9,98.04h1.5v3.4c0,.3,0,.4-.4.4q-1.1,0-1.1-1.1v-2.7Z"/><path class="cls-22" d="m108.2,98.04h1.5v3.4c0,.3,0,.4-.4.4q-1.1,0-1.1-1.1v-2.7Z"/><path class="cls-12" d="m104.5,98.04h1.5v3.4c0,.3,0,.4-.4.4q-1.1,0-1.1-1.1v-2.7Z"/><path class="cls-12" d="m105.9,84.64h-1.5v-3.32c0-.3,0-.4.4-.4q1.1,0,1.1,1.1v2.62Z"/><path class="cls-12" d="m109.7,84.64h-1.5v-3.32c0-.3,0-.4.4-.4q1.1,0,1.1,1.1v2.62Z"/><path class="cls-7" d="m113.4,84.64h-1.5v-3.32c0-.3,0-.4.4-.4q1.1,0,1.1,1.1v2.62Z"/><path class="cls-7" d="m101.9,94.32v1.5h-3.1c-.3,0-.4,0-.4-.4q0-1.1,1.1-1.1h2.4Z"/><path class="cls-7" d="m101.9,90.64v1.5h-3.1c-.3,0-.4,0-.4-.4q0-1.1,1.1-1.1h2.4Z"/><path class="cls-12" d="m101.9,86.94v1.5h-3.1c-.3,0-.4,0-.4-.4q0-1.1,1.1-1.1h2.4Z"/><path class="cls-22" d="m116.1,92.14v-1.5h2.9c.3,0,.4,0,.4.4q0,1.1-1.1,1.1h-2.2Z"/><path class="cls-22" d="m116.1,88.44v-1.5h2.9c.3,0,.4,0,.4.4q0,1.1-1.1,1.1h-2.2Z"/><path class="cls-7" d="m116.1,95.84v-1.52h2.9c.3,0,.4,0,.4.4q0,1.1-1.1,1.1l-2.2.02Z"/><path class="cls-15" d="m104.9,93.64v-5.6q0-.3.3-.3h6.3v3.1c.04.58-.14,1.15-.5,1.6-.61.81-1.59,1.27-2.6,1.2h-3.5Z"/><path class="cls-17" d="m104.9,93.64h3.6c1.01.07,1.99-.39,2.6-1.2.32-.47.49-1.03.5-1.6v-3.1h1.1c.4,0,.4.1.4.4v6.8c0,.1-.2.2-.3.3h-7.4c-.4,0-.6,0-.5-.5v-1.1h0Z"/><path d="m85.2,57.32c-2.05-3.07-1.23-7.23,1.85-9.28.12-.08.23-.15.35-.22,1.95-1.27,4.41-1.42,6.5-.4l-1.4,2.7c-1.11-.58-2.46-.51-3.5.2-1.77.94-2.45,3.15-1.5,4.92.09.17.19.33.3.48.93,1.8,3.14,2.51,4.94,1.58.16-.08.31-.18.46-.28,1.08-.62,1.76-1.76,1.8-3h3c-.05,2.26-1.26,4.34-3.2,5.5-3.1,2.05-7.28,1.19-9.32-1.92-.06-.09-.12-.19-.18-.28h-.1Z"/><path d="m107.9,49.14l1.1,5.7-2.8.5-1-5.3c-.02-.82-.7-1.48-1.52-1.46-.13,0-.25.02-.38.06-.94.13-1.59.99-1.46,1.93.01.09.03.18.06.27l.9,5.1-2.8.5-2.4-13.12,2.8-.5.9,4.6c.51-.92,1.45-1.52,2.5-1.6,1.9-.4,3.7.7,4.2,3.2l-.1.12Z"/><path d="m110.7,45.64l2.8.2-.5,9.48-2.8-.2.5-9.48Zm-.1-2.6c.06-.94.86-1.65,1.8-1.59.94.06,1.65.86,1.59,1.8-.06.93-.86,1.65-1.79,1.59-.93-.05-1.65-.84-1.6-1.77,0,0,0-.02,0-.03h0Z"/><path d="m125.6,53.64c-.62,2.52-3.16,4.05-5.68,3.43-.04-.01-.08-.02-.12-.03-1.05-.29-1.93-1.02-2.4-2l-1.4,4.5-2.7-.9,4-12.7,2.7.9-.3.9c.91-.51,2-.62,3-.3,2.42.83,3.71,3.46,2.88,5.88-.03.07-.05.15-.08.22l.1.1Zm-2.7-.9c.44-1.12-.11-2.37-1.23-2.81-.09-.03-.18-.06-.27-.09-1.09-.41-2.31.14-2.72,1.23-.03.09-.06.18-.08.27-.44,1.12.11,2.37,1.23,2.81.09.03.18.06.27.09,1.17.41,2.45-.2,2.86-1.37.02-.04.03-.09.04-.13h-.1Z"/><path d="m132.2,60.54c-1.2,1.8-3.3,1.5-5,.3-1.48-.85-2.3-2.51-2.1-4.2l2.8.3c-.24.69.06,1.45.7,1.8.6.4,1,.4,1.2.1.6-.9-3.5-3.1-1.7-5.8,1.2-1.7,3.2-1.6,4.8-.4,1.28.82,2.01,2.28,1.9,3.8l-2.7-.3c0-.6,0-1.1-.6-1.4-.4-.3-.8-.3-1,0-.6.9,3.6,3,1.6,5.9l.1-.1Z"/><path class="cls-21" d="m302.28,73.37c.53,0,1.07.02,1.6.02.91,0,1.65.74,1.66,1.65.01.83,0,1.67,0,2.5,0,7.06,0,14.12,0,21.19,0,.46-.02.93-.16,1.37-.17.53-.81,1-1.36,1-5.98,0-11.96,0-17.94,0-.03,0-.05,0-.08,0,0-1.63,0-3.25,0-4.88,1.25,0,2.49,0,3.74-.01.16,0,.34.04.34-.22.01-.61.05-1.24-.09-1.84-.39-1.59-.85-3.16-1.25-4.75-.11-.43-.23-.85-.38-1.26-.24-.65.21-.99.6-1.35.64-.59.91-1.33,1.07-2.18.32-1.78-1.18-3.92-2.87-4.46-.06-.09-.13-.14-.24-.09-.09-.02-.17-.04-.26-.06-.04-.06-.09-.07-.15-.04-.17-.02-.33-.05-.5-.07,0-2.16,0-4.32,0-6.48,3.07,0,6.13-.01,9.2-.02.19,0,.38-.01.57-.02,1.1.03,2.19.05,3.29,0,1.07.06,2.15.05,3.22,0Z"/><path class="cls-16" d="m286,96.22c0,1.63,0,3.25,0,4.88-.62,0-1.23.01-1.85.01-5.22,0-10.43-.03-15.65.02-1.37.01-2.08-.74-2.08-2.08.04-7.98.03-15.96,0-23.95,0-.96.77-1.72,1.68-1.7.53,0,1.07-.01,1.6-.02,1.07.03,2.15.05,3.22-.01,1.09.06,2.19.03,3.29.01.18,0,.35.02.53.02,3.08,0,6.16,0,9.24.01,0,2.16,0,4.32,0,6.48-.34.16-.73.08-1.09.22-1.52.59-2.53,1.62-2.89,3.24-.06.04-.12.08-.03.15-.12,1.34.02,2.57,1.22,3.46.38.28.53.7.37,1.22-.09.32-.22.63-.29.96-.21.9-.45,1.79-.69,2.68-.17.66-.38,1.31-.54,1.97-.16.65-.12,1.32-.14,1.99-.01.34.08.45.43.44,1.22-.02,2.44,0,3.65,0Z"/><path class="cls-20" d="m272.94,73.36c-1.07.07-2.15.04-3.22.01,0-2.9-.02-5.8.02-8.71.02-1.34.2-2.67.59-3.98.47-1.57,1.13-3.04,2.03-4.4,1.13-1.7,2.52-3.15,4.19-4.34,1.09-.78,2.24-1.48,3.5-1.91,1.25-.43,2.52-.87,3.87-.96.76-.05,1.51-.17,2.28-.15,1.9.03,3.73.41,5.5,1.07,1.78.67,3.37,1.63,4.83,2.85,1.25,1.05,2.28,2.28,3.16,3.65.62.97,1.11,2,1.53,3.07.23.59.39,1.21.59,1.8.19.54.22,1.14.29,1.72.37,3.42.09,6.86.18,10.28-1.07.04-2.15.05-3.22,0,0-2.45-.02-4.9.01-7.35.02-1.41-.16-2.79-.51-4.15-.49-1.91-1.37-3.63-2.67-5.11-1.58-1.81-3.5-3.16-5.81-3.9-1.64-.52-3.31-.69-5.04-.58-1.6.09-3.1.47-4.53,1.14-2.37,1.1-4.24,2.8-5.63,5.03-1.19,1.92-1.85,4.04-1.93,6.27-.11,2.89-.02,5.78-.02,8.67Z"/><path class="cls-10" d="m295.77,73.37c0-2.6.02-5.2,0-7.8-.02-1.38-.21-2.75-.76-4.03-.44-1.02-1.03-1.94-1.76-2.79-1.09-1.26-2.44-2.14-3.97-2.69-1.42-.51-2.9-.68-4.43-.49-.93.12-1.83.33-2.68.7-2.34,1.02-4.06,2.69-5.12,5.03-.5,1.1-.7,2.24-.76,3.43-.14,2.88-.02,5.77-.07,8.65-1.1.02-2.19.05-3.29-.01,0-2.89-.08-5.78.02-8.67.08-2.23.73-4.35,1.93-6.27,1.38-2.23,3.25-3.92,5.63-5.03,1.43-.66,2.93-1.04,4.53-1.14,1.73-.1,3.39.06,5.04.58,2.32.74,4.23,2.09,5.81,3.9,1.29,1.48,2.18,3.2,2.67,5.11.35,1.36.52,2.74.51,4.15-.03,2.45-.01,4.9-.01,7.35-1.1.06-2.19.04-3.29,0Z"/><path class="cls-18" d="m286,96.22c-1.22,0-2.44-.02-3.65,0-.35,0-.44-.1-.43-.44.02-.67-.02-1.34.14-1.99.16-.66.36-1.31.54-1.97.24-.89.47-1.78.69-2.68.08-.33.2-.64.29-.96.16-.52,0-.94-.37-1.22-1.2-.89-1.34-2.12-1.22-3.46.07-.04.07-.09.03-.15.36-1.62,1.37-2.65,2.89-3.24.36-.14.75-.06,1.09-.22.17.02.33.05.5.07.03.09.07.13.15.04.09.02.17.04.26.06.05.12.15.09.24.09,1.7.54,3.19,2.68,2.87,4.46-.15.85-.42,1.59-1.07,2.18-.39.36-.84.7-.6,1.35.15.41.27.84.38,1.26.41,1.59.87,3.16,1.25,4.75.14.59.1,1.22.09,1.84,0,.26-.18.22-.34.22-1.25,0-2.49,0-3.74.01Z"/><path class="cls-10" d="m287.14,80.14c-.09,0-.19.03-.24-.09.11-.05.18,0,.24.09Z"/><path class="cls-10" d="m286.65,80c-.08.1-.12.05-.15-.04.06-.03.11-.02.15.04Z"/><path class="cls-20" d="m282.01,83.35c.03.06.03.11-.03.15-.08-.07-.03-.11.03-.15Z"/><circle class="cls-2" cx="286.14" cy="77.49" r="41.87"/><path class="cls-21" d="m350.28,181.37c.53,0,1.07.02,1.6.02.91,0,1.65.74,1.66,1.65.01.83,0,1.67,0,2.5,0,7.06,0,14.12,0,21.19,0,.46-.02.93-.16,1.37-.17.53-.81,1-1.36,1-5.98,0-11.96,0-17.94,0-.03,0-.05,0-.08,0,0-1.63,0-3.25,0-4.88,1.25,0,2.49,0,3.74-.01.16,0,.34.04.34-.22.01-.61.05-1.24-.09-1.84-.39-1.59-.85-3.16-1.25-4.75-.11-.43-.23-.85-.38-1.26-.24-.65.21-.99.6-1.35.64-.59.91-1.33,1.07-2.18.32-1.78-1.18-3.92-2.87-4.46-.06-.09-.13-.14-.24-.09-.09-.02-.17-.04-.26-.06-.04-.06-.09-.07-.15-.04-.17-.02-.33-.05-.5-.07,0-2.16,0-4.32,0-6.48,3.07,0,6.13-.01,9.2-.02.19,0,.38-.01.57-.02,1.1.03,2.19.05,3.29,0,1.07.06,2.15.05,3.22,0Z"/><path class="cls-16" d="m334,204.22c0,1.63,0,3.25,0,4.88-.62,0-1.23.01-1.85.01-5.22,0-10.43-.03-15.65.02-1.37.01-2.08-.74-2.08-2.08.04-7.98.03-15.96,0-23.95,0-.96.77-1.72,1.68-1.7.53,0,1.07-.01,1.6-.02,1.07.03,2.15.05,3.22-.01,1.09.06,2.19.03,3.29.01.18,0,.35.02.53.02,3.08,0,6.16,0,9.24.01,0,2.16,0,4.32,0,6.48-.34.16-.73.08-1.09.22-1.52.59-2.53,1.62-2.89,3.24-.06.04-.12.08-.03.15-.12,1.34.02,2.57,1.22,3.46.38.28.53.7.37,1.22-.09.32-.22.63-.29.96-.21.9-.45,1.79-.69,2.68-.17.66-.38,1.31-.54,1.97-.16.65-.12,1.32-.14,1.99-.01.34.08.45.43.44,1.22-.02,2.44,0,3.65,0Z"/><path class="cls-20" d="m320.94,181.36c-1.07.07-2.15.04-3.22.01,0-2.9-.02-5.8.02-8.71.02-1.34.2-2.67.59-3.98.47-1.57,1.13-3.04,2.03-4.4,1.13-1.7,2.52-3.15,4.19-4.34,1.09-.78,2.24-1.48,3.5-1.91,1.25-.43,2.52-.87,3.87-.96.76-.05,1.51-.17,2.28-.15,1.9.03,3.73.41,5.5,1.07,1.78.67,3.37,1.63,4.83,2.85,1.25,1.05,2.28,2.28,3.16,3.65.62.97,1.11,2,1.53,3.07.23.59.39,1.21.59,1.8.19.54.22,1.14.29,1.72.37,3.42.09,6.86.18,10.28-1.07.04-2.15.05-3.22,0,0-2.45-.02-4.9.01-7.35.02-1.41-.16-2.79-.51-4.15-.49-1.91-1.37-3.63-2.67-5.11-1.58-1.81-3.5-3.16-5.81-3.9-1.64-.52-3.31-.69-5.04-.58-1.6.09-3.1.47-4.53,1.14-2.37,1.1-4.24,2.8-5.63,5.03-1.19,1.92-1.85,4.04-1.93,6.27-.11,2.89-.02,5.78-.02,8.67Z"/><path class="cls-10" d="m343.77,181.37c0-2.6.02-5.2,0-7.8-.02-1.38-.21-2.75-.76-4.03-.44-1.02-1.03-1.94-1.76-2.79-1.09-1.26-2.44-2.14-3.97-2.69-1.42-.51-2.9-.68-4.43-.49-.93.12-1.83.33-2.68.7-2.34,1.02-4.06,2.69-5.12,5.03-.5,1.1-.7,2.24-.76,3.43-.14,2.88-.02,5.77-.07,8.65-1.1.02-2.19.05-3.29-.01,0-2.89-.08-5.78.02-8.67.08-2.23.73-4.35,1.93-6.27,1.38-2.23,3.25-3.92,5.63-5.03,1.43-.66,2.93-1.04,4.53-1.14,1.73-.1,3.39.06,5.04.58,2.32.74,4.23,2.09,5.81,3.9,1.29,1.48,2.18,3.2,2.67,5.11.35,1.36.52,2.74.51,4.15-.03,2.45-.01,4.9-.01,7.35-1.1.06-2.19.04-3.29,0Z"/><path class="cls-18" d="m334,204.22c-1.22,0-2.44-.02-3.65,0-.35,0-.44-.1-.43-.44.02-.67-.02-1.34.14-1.99.16-.66.36-1.31.54-1.97.24-.89.47-1.78.69-2.68.08-.33.2-.64.29-.96.16-.52,0-.94-.37-1.22-1.2-.89-1.34-2.12-1.22-3.46.07-.04.07-.09.03-.15.36-1.62,1.37-2.65,2.89-3.24.36-.14.75-.06,1.09-.22.17.02.33.05.5.07.03.09.07.13.15.04.09.02.17.04.26.06.05.12.15.09.24.09,1.7.54,3.19,2.68,2.87,4.46-.15.85-.42,1.59-1.07,2.18-.39.36-.84.7-.6,1.35.15.41.27.84.38,1.26.41,1.59.87,3.16,1.25,4.75.14.59.1,1.22.09,1.84,0,.26-.18.22-.34.22-1.25,0-2.49,0-3.74.01Z"/><path class="cls-10" d="m335.14,188.14c-.09,0-.19.03-.24-.09.11-.05.18,0,.24.09Z"/><path class="cls-10" d="m334.65,188c-.08.1-.12.05-.15-.04.06-.03.11-.02.15.04Z"/><path class="cls-20" d="m330.01,191.35c.03.06.03.11-.03.15-.08-.07-.03-.11.03-.15Z"/><circle class="cls-2" cx="334.14" cy="185.49" r="41.87"/><path class="cls-21" d="m213.28,181.37c.53,0,1.07.02,1.6.02.91,0,1.65.74,1.66,1.65.01.83,0,1.67,0,2.5,0,7.06,0,14.12,0,21.19,0,.46-.02.93-.16,1.37-.17.53-.81,1-1.36,1-5.98,0-11.96,0-17.94,0-.03,0-.05,0-.08,0,0-1.63,0-3.25,0-4.88,1.25,0,2.49,0,3.74-.01.16,0,.34.04.34-.22.01-.61.05-1.24-.09-1.84-.39-1.59-.85-3.16-1.25-4.75-.11-.43-.23-.85-.38-1.26-.24-.65.21-.99.6-1.35.64-.59.91-1.33,1.07-2.18.32-1.78-1.18-3.92-2.87-4.46-.06-.09-.13-.14-.24-.09-.09-.02-.17-.04-.26-.06-.04-.06-.09-.07-.15-.04-.17-.02-.33-.05-.5-.07,0-2.16,0-4.32,0-6.48,3.07,0,6.13-.01,9.2-.02.19,0,.38-.01.57-.02,1.1.03,2.19.05,3.29,0,1.07.06,2.15.05,3.22,0Z"/><path class="cls-16" d="m197,204.22c0,1.63,0,3.25,0,4.88-.62,0-1.23.01-1.85.01-5.22,0-10.43-.03-15.65.02-1.37.01-2.08-.74-2.08-2.08.04-7.98.03-15.96,0-23.95,0-.96.77-1.72,1.68-1.7.53,0,1.07-.01,1.6-.02,1.07.03,2.15.05,3.22-.01,1.09.06,2.19.03,3.29.01.18,0,.35.02.53.02,3.08,0,6.16,0,9.24.01,0,2.16,0,4.32,0,6.48-.34.16-.73.08-1.09.22-1.52.59-2.53,1.62-2.89,3.24-.06.04-.12.08-.03.15-.12,1.34.02,2.57,1.22,3.46.38.28.53.7.37,1.22-.09.32-.22.63-.29.96-.21.9-.45,1.79-.69,2.68-.17.66-.38,1.31-.54,1.97-.16.65-.12,1.32-.14,1.99-.01.34.08.45.43.44,1.22-.02,2.44,0,3.65,0Z"/><path class="cls-20" d="m183.94,181.36c-1.07.07-2.15.04-3.22.01,0-2.9-.02-5.8.02-8.71.02-1.34.2-2.67.59-3.98.47-1.57,1.13-3.04,2.03-4.4,1.13-1.7,2.52-3.15,4.19-4.34,1.09-.78,2.24-1.48,3.5-1.91,1.25-.43,2.52-.87,3.87-.96.76-.05,1.51-.17,2.28-.15,1.9.03,3.73.41,5.5,1.07,1.78.67,3.37,1.63,4.83,2.85,1.25,1.05,2.28,2.28,3.16,3.65.62.97,1.11,2,1.53,3.07.23.59.39,1.21.59,1.8.19.54.22,1.14.29,1.72.37,3.42.09,6.86.18,10.28-1.07.04-2.15.05-3.22,0,0-2.45-.02-4.9.01-7.35.02-1.41-.16-2.79-.51-4.15-.49-1.91-1.37-3.63-2.67-5.11-1.58-1.81-3.5-3.16-5.81-3.9-1.64-.52-3.31-.69-5.04-.58-1.6.09-3.1.47-4.53,1.14-2.37,1.1-4.24,2.8-5.63,5.03-1.19,1.92-1.85,4.04-1.93,6.27-.11,2.89-.02,5.78-.02,8.67Z"/><path class="cls-10" d="m206.77,181.37c0-2.6.02-5.2,0-7.8-.02-1.38-.21-2.75-.76-4.03-.44-1.02-1.03-1.94-1.76-2.79-1.09-1.26-2.44-2.14-3.97-2.69-1.42-.51-2.9-.68-4.43-.49-.93.12-1.83.33-2.68.7-2.34,1.02-4.06,2.69-5.12,5.03-.5,1.1-.7,2.24-.76,3.43-.14,2.88-.02,5.77-.07,8.65-1.1.02-2.19.05-3.29-.01,0-2.89-.08-5.78.02-8.67.08-2.23.73-4.35,1.93-6.27,1.38-2.23,3.25-3.92,5.63-5.03,1.43-.66,2.93-1.04,4.53-1.14,1.73-.1,3.39.06,5.04.58,2.32.74,4.23,2.09,5.81,3.9,1.29,1.48,2.18,3.2,2.67,5.11.35,1.36.52,2.74.51,4.15-.03,2.45-.01,4.9-.01,7.35-1.1.06-2.19.04-3.29,0Z"/><path class="cls-18" d="m197,204.22c-1.22,0-2.44-.02-3.65,0-.35,0-.44-.1-.43-.44.02-.67-.02-1.34.14-1.99.16-.66.36-1.31.54-1.97.24-.89.47-1.78.69-2.68.08-.33.2-.64.29-.96.16-.52,0-.94-.37-1.22-1.2-.89-1.34-2.12-1.22-3.46.07-.04.07-.09.03-.15.36-1.62,1.37-2.65,2.89-3.24.36-.14.75-.06,1.09-.22.17.02.33.05.5.07.03.09.07.13.15.04.09.02.17.04.26.06.05.12.15.09.24.09,1.7.54,3.19,2.68,2.87,4.46-.15.85-.42,1.59-1.07,2.18-.39.36-.84.7-.6,1.35.15.41.27.84.38,1.26.41,1.59.87,3.16,1.25,4.75.14.59.1,1.22.09,1.84,0,.26-.18.22-.34.22-1.25,0-2.49,0-3.74.01Z"/><path class="cls-10" d="m198.14,188.14c-.09,0-.19.03-.24-.09.11-.05.18,0,.24.09Z"/><path class="cls-10" d="m197.65,188c-.08.1-.12.05-.15-.04.06-.03.11-.02.15.04Z"/><path class="cls-20" d="m193.01,191.35c.03.06.03.11-.03.15-.08-.07-.03-.11.03-.15Z"/><circle class="cls-2" cx="197.14" cy="185.49" r="41.87"/><path class="cls-21" d="m214.28,313.37c.53,0,1.07.02,1.6.02.91,0,1.65.74,1.66,1.65.01.83,0,1.67,0,2.5,0,7.06,0,14.12,0,21.19,0,.46-.02.93-.16,1.37-.17.53-.81,1-1.36,1-5.98,0-11.96,0-17.94,0-.03,0-.05,0-.08,0,0-1.63,0-3.25,0-4.88,1.25,0,2.49,0,3.74-.01.16,0,.34.04.34-.22.01-.61.05-1.24-.09-1.84-.39-1.59-.85-3.16-1.25-4.75-.11-.43-.23-.85-.38-1.26-.24-.65.21-.99.6-1.35.64-.59.91-1.33,1.07-2.18.32-1.78-1.18-3.92-2.87-4.46-.06-.09-.13-.14-.24-.09-.09-.02-.17-.04-.26-.06-.04-.06-.09-.07-.15-.04-.17-.02-.33-.05-.5-.07,0-2.16,0-4.32,0-6.48,3.07,0,6.13-.01,9.2-.02.19,0,.38-.01.57-.02,1.1.03,2.19.05,3.29,0,1.07.06,2.15.05,3.22,0Z"/><path class="cls-16" d="m198,336.22c0,1.63,0,3.25,0,4.88-.62,0-1.23.01-1.85.01-5.22,0-10.43-.03-15.65.02-1.37.01-2.08-.74-2.08-2.08.04-7.98.03-15.96,0-23.95,0-.96.77-1.72,1.68-1.7.53,0,1.07-.01,1.6-.02,1.07.03,2.15.05,3.22-.01,1.09.06,2.19.03,3.29.01.18,0,.35.02.53.02,3.08,0,6.16,0,9.24.01,0,2.16,0,4.32,0,6.48-.34.16-.73.08-1.09.22-1.52.59-2.53,1.62-2.89,3.24-.06.04-.12.08-.03.15-.12,1.34.02,2.57,1.22,3.46.38.28.53.7.37,1.22-.09.32-.22.63-.29.96-.21.9-.45,1.79-.69,2.68-.17.66-.38,1.31-.54,1.97-.16.65-.12,1.32-.14,1.99-.01.34.08.45.43.44,1.22-.02,2.44,0,3.65,0Z"/><path class="cls-20" d="m184.94,313.36c-1.07.07-2.15.04-3.22.01,0-2.9-.02-5.8.02-8.71.02-1.34.2-2.67.59-3.98.47-1.57,1.13-3.04,2.03-4.4,1.13-1.7,2.52-3.15,4.19-4.34,1.09-.78,2.24-1.48,3.5-1.91,1.25-.43,2.52-.87,3.87-.96.76-.05,1.51-.17,2.28-.15,1.9.03,3.73.41,5.5,1.07,1.78.67,3.37,1.63,4.83,2.85,1.25,1.05,2.28,2.28,3.16,3.65.62.97,1.11,2,1.53,3.07.23.59.39,1.21.59,1.8.19.54.22,1.14.29,1.72.37,3.42.09,6.86.18,10.28-1.07.04-2.15.05-3.22,0,0-2.45-.02-4.9.01-7.35.02-1.41-.16-2.79-.51-4.15-.49-1.91-1.37-3.63-2.67-5.11-1.58-1.81-3.5-3.16-5.81-3.9-1.64-.52-3.31-.69-5.04-.58-1.6.09-3.1.47-4.53,1.14-2.37,1.1-4.24,2.8-5.63,5.03-1.19,1.92-1.85,4.04-1.93,6.27-.11,2.89-.02,5.78-.02,8.67Z"/><path class="cls-10" d="m207.77,313.37c0-2.6.02-5.2,0-7.8-.02-1.38-.21-2.75-.76-4.03-.44-1.02-1.03-1.94-1.76-2.79-1.09-1.26-2.44-2.14-3.97-2.69-1.42-.51-2.9-.68-4.43-.49-.93.12-1.83.33-2.68.7-2.34,1.02-4.06,2.69-5.12,5.03-.5,1.1-.7,2.24-.76,3.43-.14,2.88-.02,5.77-.07,8.65-1.1.02-2.19.05-3.29-.01,0-2.89-.08-5.78.02-8.67.08-2.23.73-4.35,1.93-6.27,1.38-2.23,3.25-3.92,5.63-5.03,1.43-.66,2.93-1.04,4.53-1.14,1.73-.1,3.39.06,5.04.58,2.32.74,4.23,2.09,5.81,3.9,1.29,1.48,2.18,3.2,2.67,5.11.35,1.36.52,2.74.51,4.15-.03,2.45-.01,4.9-.01,7.35-1.1.06-2.19.04-3.29,0Z"/><path class="cls-18" d="m198,336.22c-1.22,0-2.44-.02-3.65,0-.35,0-.44-.1-.43-.44.02-.67-.02-1.34.14-1.99.16-.66.36-1.31.54-1.97.24-.89.47-1.78.69-2.68.08-.33.2-.64.29-.96.16-.52,0-.94-.37-1.22-1.2-.89-1.34-2.12-1.22-3.46.07-.04.07-.09.03-.15.36-1.62,1.37-2.65,2.89-3.24.36-.14.75-.06,1.09-.22.17.02.33.05.5.07.03.09.07.13.15.04.09.02.17.04.26.06.05.12.15.09.24.09,1.7.54,3.19,2.68,2.87,4.46-.15.85-.42,1.59-1.07,2.18-.39.36-.84.7-.6,1.35.15.41.27.84.38,1.26.41,1.59.87,3.16,1.25,4.75.14.59.1,1.22.09,1.84,0,.26-.18.22-.34.22-1.25,0-2.49,0-3.74.01Z"/><path class="cls-10" d="m199.14,320.14c-.09,0-.19.03-.24-.09.11-.05.18,0,.24.09Z"/><path class="cls-10" d="m198.65,320c-.08.1-.12.05-.15-.04.06-.03.11-.02.15.04Z"/><path class="cls-20" d="m194.01,323.35c.03.06.03.11-.03.15-.08-.07-.03-.11.03-.15Z"/><circle class="cls-2" cx="198.14" cy="317.49" r="41.87"/><path class="cls-21" d="m82.28,177.37c.53,0,1.07.02,1.6.02.91,0,1.65.74,1.66,1.65.01.83,0,1.67,0,2.5,0,7.06,0,14.12,0,21.19,0,.46-.02.93-.16,1.37-.17.53-.81,1-1.36,1-5.98,0-11.96,0-17.94,0-.03,0-.05,0-.08,0,0-1.63,0-3.25,0-4.88,1.25,0,2.49,0,3.74-.01.16,0,.34.04.34-.22.01-.61.05-1.24-.09-1.84-.39-1.59-.85-3.16-1.25-4.75-.11-.43-.23-.85-.38-1.26-.24-.65.21-.99.6-1.35.64-.59.91-1.33,1.07-2.18.32-1.78-1.18-3.92-2.87-4.46-.06-.09-.13-.14-.24-.09-.09-.02-.17-.04-.26-.06-.04-.06-.09-.07-.15-.04-.17-.02-.33-.05-.5-.07,0-2.16,0-4.32,0-6.48,3.07,0,6.13-.01,9.2-.02.19,0,.38-.01.57-.02,1.1.03,2.19.05,3.29,0,1.07.06,2.15.05,3.22,0Z"/><path class="cls-16" d="m66,200.22c0,1.63,0,3.25,0,4.88-.62,0-1.23.01-1.85.01-5.22,0-10.43-.03-15.65.02-1.37.01-2.08-.74-2.08-2.08.04-7.98.03-15.96,0-23.95,0-.96.77-1.72,1.68-1.7.53,0,1.07-.01,1.6-.02,1.07.03,2.15.05,3.22-.01,1.09.06,2.19.03,3.29.01.18,0,.35.02.53.02,3.08,0,6.16,0,9.24.01,0,2.16,0,4.32,0,6.48-.34.16-.73.08-1.09.22-1.52.59-2.53,1.62-2.89,3.24-.06.04-.12.08-.03.15-.12,1.34.02,2.57,1.22,3.46.38.28.53.7.37,1.22-.09.32-.22.63-.29.96-.21.9-.45,1.79-.69,2.68-.17.66-.38,1.31-.54,1.97-.16.65-.12,1.32-.14,1.99-.01.34.08.45.43.44,1.22-.02,2.44,0,3.65,0Z"/><path class="cls-20" d="m52.94,177.36c-1.07.07-2.15.04-3.22.01,0-2.9-.02-5.8.02-8.71.02-1.34.2-2.67.59-3.98.47-1.57,1.13-3.04,2.03-4.4,1.13-1.7,2.52-3.15,4.19-4.34,1.09-.78,2.24-1.48,3.5-1.91,1.25-.43,2.52-.87,3.87-.96.76-.05,1.51-.17,2.28-.15,1.9.03,3.73.41,5.5,1.07,1.78.67,3.37,1.63,4.83,2.85,1.25,1.05,2.28,2.28,3.16,3.65.62.97,1.11,2,1.53,3.07.23.59.39,1.21.59,1.8.19.54.22,1.14.29,1.72.37,3.42.09,6.86.18,10.28-1.07.04-2.15.05-3.22,0,0-2.45-.02-4.9.01-7.35.02-1.41-.16-2.79-.51-4.15-.49-1.91-1.37-3.63-2.67-5.11-1.58-1.81-3.5-3.16-5.81-3.9-1.64-.52-3.31-.69-5.04-.58-1.6.09-3.1.47-4.53,1.14-2.37,1.1-4.24,2.8-5.63,5.03-1.19,1.92-1.85,4.04-1.93,6.27-.11,2.89-.02,5.78-.02,8.67Z"/><path class="cls-10" d="m75.77,177.37c0-2.6.02-5.2,0-7.8-.02-1.38-.21-2.75-.76-4.03-.44-1.02-1.03-1.94-1.76-2.79-1.09-1.26-2.44-2.14-3.97-2.69-1.42-.51-2.9-.68-4.43-.49-.93.12-1.83.33-2.68.7-2.34,1.02-4.06,2.69-5.12,5.03-.5,1.1-.7,2.24-.76,3.43-.14,2.88-.02,5.77-.07,8.65-1.1.02-2.19.05-3.29-.01,0-2.89-.08-5.78.02-8.67.08-2.23.73-4.35,1.93-6.27,1.38-2.23,3.25-3.92,5.63-5.03,1.43-.66,2.93-1.04,4.53-1.14,1.73-.1,3.39.06,5.04.58,2.32.74,4.23,2.09,5.81,3.9,1.29,1.48,2.18,3.2,2.67,5.11.35,1.36.52,2.74.51,4.15-.03,2.45-.01,4.9-.01,7.35-1.1.06-2.19.04-3.29,0Z"/><path class="cls-18" d="m66,200.22c-1.22,0-2.44-.02-3.65,0-.35,0-.44-.1-.43-.44.02-.67-.02-1.34.14-1.99.16-.66.36-1.31.54-1.97.24-.89.47-1.78.69-2.68.08-.33.2-.64.29-.96.16-.52,0-.94-.37-1.22-1.2-.89-1.34-2.12-1.22-3.46.07-.04.07-.09.03-.15.36-1.62,1.37-2.65,2.89-3.24.36-.14.75-.06,1.09-.22.17.02.33.05.5.07.03.09.07.13.15.04.09.02.17.04.26.06.05.12.15.09.24.09,1.7.54,3.19,2.68,2.87,4.46-.15.85-.42,1.59-1.07,2.18-.39.36-.84.7-.6,1.35.15.41.27.84.38,1.26.41,1.59.87,3.16,1.25,4.75.14.59.1,1.22.09,1.84,0,.26-.18.22-.34.22-1.25,0-2.49,0-3.74.01Z"/><path class="cls-10" d="m67.14,184.14c-.09,0-.19.03-.24-.09.11-.05.18,0,.24.09Z"/><path class="cls-10" d="m66.65,184c-.08.1-.12.05-.15-.04.06-.03.11-.02.15.04Z"/><path class="cls-20" d="m62.01,187.35c.03.06.03.11-.03.15-.08-.07-.03-.11.03-.15Z"/><circle class="cls-2" cx="66.14" cy="181.49" r="41.87"/></svg>