<?xml version="1.0" encoding="UTF-8"?><svg id="Layer_1" xmlns="http://www.w3.org/2000/svg" viewBox="0 0 400 400"><defs><style>.cls-1{stroke:#a5262d;}.cls-1,.cls-2{stroke-width:4px;}.cls-1,.cls-2,.cls-3{stroke-miterlimit:10;}.cls-1,.cls-2,.cls-3,.cls-4{fill:none;}.cls-2{stroke:#000;}.cls-5{fill:#fff;}.cls-6{fill:#546e7a;}.cls-7{fill:#ffed58;}.cls-8{fill:#c69c6d;}.cls-3{stroke:#231f20;stroke-width:2px;}.cls-9{fill:#36464e;}.cls-10{fill:#788f9b;}.cls-11{fill:#484645;}.cls-12{fill:#b3b3b3;}.cls-13{fill:#33b1cb;}.cls-14{fill:#fbd734;}.cls-15{fill:#231f20;}.cls-16{fill:#33b1cc;}.cls-17{fill:#86cde8;}</style></defs><line class="cls-5" x1="169.55" y1="257.63" x2="147.45" y2="281.83"/><line class="cls-3" x1="169.55" y1="257.63" x2="154.71" y2="273.89"/><polygon class="cls-15" points="150.66 267.23 147.45 281.83 161.7 277.31 150.66 267.23"/><line class="cls-5" x1="230.45" y1="257.63" x2="252.55" y2="281.83"/><line class="cls-3" x1="230.45" y1="257.63" x2="245.29" y2="273.89"/><polygon class="cls-15" points="238.3 277.32 252.55 281.83 249.34 267.23 238.3 277.32"/><line class="cls-4" x1="199.08" y1="123.84" x2="199.58" y2="156.62"/><line class="cls-3" x1="199.08" y1="123.84" x2="199.41" y2="145.86"/><polygon class="cls-15" points="191.91 143.78 199.58 156.62 206.87 143.56 191.91 143.78"/><line class="cls-4" x1="117.48" y1="119.58" x2="166.13" y2="158.88"/><line class="cls-3" x1="117.48" y1="119.58" x2="157.76" y2="152.12"/><polygon class="cls-15" points="151.35 156.56 166.13 158.89 160.76 144.93 151.35 156.56"/><line class="cls-4" x1="280.13" y1="119.58" x2="231.48" y2="158.88"/><line class="cls-3" x1="280.13" y1="119.58" x2="239.85" y2="152.12"/><polygon class="cls-15" points="236.85 144.93 231.48 158.88 246.26 156.56 236.85 144.93"/><circle class="cls-1" cx="91.11" cy="70.24" r="45"/><path d="m65.01,54.64l1-3c1.15.63,2.58.43,3.5-.5,1.1-1,1-1.7.7-2.1-.6-.6-1.4-.4-3.4.6s-4.1,1.5-5.9-.5-1.1-4.7.7-6.3c1.58-1.5,3.91-1.9,5.9-1l-1,3c-.95-.52-2.13-.36-2.9.4-.8.7-.8,1.4-.4,1.8s1,.6,3-.4,4.3-1.9,6.2.3c1.8,2,1.2,4.7-1.1,6.7s-4.5,2.1-6.5,1.1l.2-.1Z"/><path d="m70.01,38.74c-.44-.88-.08-1.96.8-2.4s1.96-.08,2.4.8.08,1.96-.8,2.4h0c-.89.39-1.92.04-2.4-.8Zm1.5,2.3l2.7-1.4,4.5,8.9-2.7,1.4-4.5-8.9Z"/><path d="m75.81,34.04l2.9-.9,4.5,13.9-2.9.9-4.5-13.9Z"/><path d="m82.41,34.15c-.16-.99.51-1.93,1.5-2.09.99-.16,1.93.51,2.09,1.5.16.99-.5,1.92-1.49,2.09-.98.17-1.92-.49-2.1-1.47,0,0,0-.02,0-.03Zm.7,2.6l3-.5,1.6,9.9-3,.5-1.6-9.9Z"/><path d="m89.01,40.74c.13-2.85,2.55-5.06,5.41-4.92.1,0,.2.01.29.02,1.86.09,3.52,1.21,4.3,2.9l-2.7,1.3c-.53-1.13-1.88-1.62-3.01-1.09-.74.35-1.24,1.07-1.29,1.89-.16,1.22.7,2.33,1.92,2.48.06,0,.12.01.18.02.8.07,1.58-.31,2-1l2.5,1.7c-1.02,1.56-2.84,2.41-4.7,2.2-2.88-.17-5.08-2.65-4.91-5.53,0-.06,0-.11.01-.17v.2Z"/><path d="m99.91,41.74c1.13-2.68,4.22-3.94,6.9-2.81,2.68,1.13,3.94,4.22,2.81,6.9-1.13,2.68-4.22,3.94-6.9,2.81,0,0,0,0,0,0-2.66-1.09-3.94-4.14-2.84-6.8.01-.03.03-.07.04-.1Zm7,2.9c.53-1.17.02-2.54-1.14-3.08-.02,0-.04-.02-.06-.02-1.11-.5-2.42,0-2.92,1.11-.03.06-.05.13-.08.19-.56,1.1-.11,2.45.99,3.01.07.03.14.06.21.09,1.11.5,2.42,0,2.92-1.11.03-.06.05-.13.08-.19Z"/><path d="m119.41,52.84l-4.2,4.5-2.2-2,3.9-4.2c.69-.6.76-1.65.16-2.34-.05-.06-.1-.11-.16-.16-.72-.71-1.87-.7-2.57.02-.08.09-.16.18-.23.28l-3.7,4-2.2-2,6.8-7.4,2.2,2-.6.7c1.07-.18,2.17.19,2.9,1,1.5,1.4,1.8,3.6,0,5.6h-.1Z"/><rect class="cls-8" x="64.21" y="60.74" width="52" height="37" rx="2.9" ry="2.9"/><path class="cls-11" d="m86.41,91.84c-2.18.11-4.34-.45-6.2-1.6-1.58-1.02-2.78-2.53-3.4-4.3l5.2-3c.69,1.97,2.62,3.24,4.7,3.1,2.3,0,2.8-.5,2.8-1.6s-.5-1.2-1.6-1.7c-.97-.38-1.98-.68-3-.9-1.91-.44-3.66-1.37-5.1-2.7-1.32-1.19-2.02-2.93-1.9-4.7-.03-2.02.81-3.95,2.3-5.3,1.65-1.39,3.77-2.11,5.92-1.99,1.87-.07,3.71.42,5.3,1.4,1.54.96,2.76,2.35,3.5,4l-5.1,3c-.5-1.61-2.02-2.67-3.7-2.6-1.7,0-1.3.1-1.6.4-.36.25-.59.66-.6,1.1.05.54.34,1.02.8,1.3,1,.59,2.08,1.03,3.2,1.3,1.1.4,2,.7,2.8,1,.8.34,1.56.74,2.3,1.2.78.55,1.43,1.26,1.9,2.1.41.95.61,1.97.6,3,.11,2.1-.83,4.12-2.5,5.4-1.87,1.4-4.17,2.11-6.5,2l-.12.09Z"/><path class="cls-11" d="m102.61,72.15c-.6.63-1.43.99-2.3,1-1.79.03-3.27-1.4-3.31-3.19-.02-.91.35-1.78,1.01-2.41.61-.6,1.44-.92,2.3-.9.85,0,1.68.32,2.3.9.63.6.99,1.43,1,2.3.02.88-.35,1.72-1,2.3Zm-5.1,19.2v-16.91h5.62v16.9h-5.62Z"/><circle class="cls-1" cx="199.99" cy="70.24" r="45"/><rect class="cls-12" x="173.99" y="60.24" width="52" height="37" rx="2.9" ry="2.9"/><path class="cls-11" d="m200.8,90.54l-1.1-3.4h-8l-1,3.4h-6.5l7.5-23.6h7.6l7.8,23.6h-6.3Zm-7.6-8.6h4.8l-2.4-8-2.4,8Z"/><path class="cls-11" d="m208.49,90.54v-24.7h5.63v24.7h-5.63Z"/><path d="m176.13,48.94l-2.4,3.1,1,1.4-1.6,2.1-6.1-9.3,1.9-2.4,10.5,3.7-1.6,2.1-1.6-.6-.1-.1Zm-2.2-.8l-3.8-1.4,2.3,3.3,1.5-1.9Z"/><path d="m172.8,39.15l1.7-1.4,7,8.4-1.7,1.4-7-8.4Z"/><path d="m184.99,35.34l3.6,6.6-2,1.1-.3-.6c-.11.81-.64,1.49-1.4,1.8-1.33.74-3.01.25-3.75-1.08-.06-.1-.11-.21-.15-.32l-2.2-4,2-1.1,2,3.8c.29.65,1.06.94,1.71.65.03-.01.06-.03.09-.05.67-.32.95-1.12.63-1.79-.04-.07-.08-.15-.13-.21l-2-3.6,2-1.1-.1-.1Z"/><path d="m199.6,34.84l.8,4.5-2.2.4-.8-4.3c-.03-.6-.54-1.05-1.14-1.02-.06,0-.11.01-.16.02-.7.1-1.1.7-.9,1.6l.7,4.2-2.2.4-.8-4.3c-.03-.6-.54-1.05-1.14-1.02-.06,0-.11.01-.16.02-.7.1-1.1.7-.9,1.6l.7,4.2-2.2.4-1.3-7.4,2.2-.4v.7c.41-.67,1.12-1.11,1.9-1.2.76-.23,1.58,0,2.1.6.37-.79,1.13-1.33,2-1.4,1.7-.3,3,.7,3.3,2.6l.2-.2Z"/><path d="m201.9,32.44l2.2.2-.6,7.5-2.2-.2.6-7.5Zm0-2c.08-.75.75-1.29,1.5-1.2.75.08,1.29.75,1.2,1.5s-.75,1.29-1.5,1.2c0,0,0,0,0,0-.72-.05-1.26-.66-1.21-1.38,0-.04,0-.08.01-.12Z"/><path d="m212.9,37.54l-1.2,4.4-2.2-.6,1.1-4.1c.24-.68-.11-1.42-.78-1.66-.04-.01-.08-.03-.12-.04-.69-.26-1.46.08-1.72.76-.04.11-.07.22-.08.34l-1.1,3.9-2.2-.6,2-7.2,2.2.6-.2.7c.67-.47,1.53-.58,2.3-.3,1.49.39,2.38,1.91,2,3.4-.03.1-.06.2-.1.3l.1.1Z"/><path d="m222.49,39.54l-3.8,6.4-1.9-1.2.4-.6c-.77.29-1.63.18-2.3-.3-1.32-.77-1.78-2.46-1.01-3.78.06-.11.13-.22.21-.32l2.4-4,1.9,1.2-2.2,3.7c-.41.5-.34,1.24.16,1.65.07.06.15.11.24.15.63.41,1.48.23,1.89-.4.04-.06.08-.13.11-.2l2.1-3.5,1.9,1.2h-.1Z"/><path d="m230.3,51.84l-3.5,3-1.5-1.7,3.4-2.9c.6-.5.7-1.1.2-1.6-.43-.5-1.18-.55-1.68-.12-.04.04-.08.08-.12.12l-3.2,2.7-1.5-1.7,3.4-2.9c.6-.5.7-1.1.2-1.6-.43-.5-1.18-.55-1.68-.12-.04.04-.08.08-.12.12l-3.2,2.7-1.5-1.7,5.7-4.9,1.5,1.7-.5.4c.76,0,1.49.34,2,.9.54.56.73,1.36.5,2.1.85-.02,1.66.35,2.2,1,1.03,1.19.9,3-.29,4.03-.07.06-.14.11-.21.17l-.1.3Z"/><circle class="cls-1" cx="308.89" cy="69.92" r="45"/><path class="cls-17" d="m278.89,72.22v-.6c.31-.48.83-.78,1.4-.8,1.39-.15,2.46-1.3,2.5-2.7v-.5c.05-.45.46-.77.91-.72.03,0,.06,0,.09.02.46-.01.86.34.9.8-.02.27.02.54.1.8.21,1.11,1.09,1.99,2.2,2.2.7.2.7.1.7-.6v-13.5c-.06-.38.2-.74.58-.8.07-.01.15-.01.22,0h30.63c0,.3-.3.4-.5.6l-7.2,7.2c-.2.17-.36.38-.5.6-.19.4-.11.88.2,1.2.32.33.83.37,1.2.1.21-.11.39-.29.5-.5l8.3-8.3c.29-.27.5-.62.6-1h3.4c0,.3-.3.4-.5.6l-13.3,13.3-.5.5c-.25.29-.25.71,0,1,.16.35.52.55.9.5.33-.05.64-.19.9-.4l14.6-14.6c.29-.21.48-.54.5-.9h1.1c1,0,.9-.1.9.9v28.3q0,.8.8.6c1.27-.35,2.16-1.49,2.2-2.8-.06-.49.29-.94.79-1,.07,0,.14,0,.21,0,.6,0,.9.4,1,1,.05,1.54,1.26,2.8,2.8,2.9.52,0,1,.32,1.2.8v.6c-.22.41-.64.67-1.1.7-1.57.04-2.81,1.33-2.8,2.9-.03.34-.17.65-.4.9-.25.23-.61.27-.9.1-.38-.12-.63-.5-.6-.9-.2-1.6-.9-2.6-2.3-2.9-.7-.2-.7-.1-.7.6v12.6c0,.53-.24.8-.7.8h-21.6c0-.3.3-.4.5-.6l7.5-7.5c.5-.6.6-1.1.1-1.5-.39-.38-1.01-.38-1.4,0l-.1.1-8.7,8.7c-.25.25-.42.56-.5.9h-3.4c0-.3.3-.4.5-.6l13.3-13.3c.2-.17.36-.38.5-.6.24-.39.16-.91-.2-1.2-.31-.33-.83-.35-1.16-.04-.01.01-.03.03-.04.04-.1,0-.2.2-.3.3l-14.63,14.63c-.26.24-.44.55-.5.9h-10.1c-.44.06-.84-.25-.9-.69,0-.07,0-.14,0-.21v-27.53c0-.7,0-.8-.7-.6-1.32.36-2.25,1.54-2.3,2.9.03.52-.36.97-.88,1-.04,0-.08,0-.12,0-.55,0-1-.45-1-1v-.3c-.14-1.41-1.28-2.51-2.7-2.6-.52-.02-.99-.28-1.3-.7l-.2-.1Zm5,.6c.37-.22.68-.53.9-.9-.27-.36-.58-.69-.9-1-.35.25-.65.55-.9.9.25.35.55.65.9.9h0v.1Zm50.9,14.2c-.19-.39-.51-.71-.9-.9-.35.25-.65.55-.9.9l.9.9.9-.9Z"/><path class="cls-16" d="m325.3,56.02c.3-.11.54-.32.7-.6.8-.8,1.6-.6,1.9.5-.04.35-.22.68-.5.9l-14.6,14.6c-.21.28-.55.43-.9.4-.37,0-.71-.19-.9-.5-.2-.3-.2-.7,0-1,.11-.21.29-.39.5-.5l13.3-13.3c.2-.2.4-.3.5-.6v.1Z"/><path class="cls-13" d="m301.49,101.82c-.3.1-.5.4-.8.6-.8.7-1.6.5-1.8-.6.02-.36.21-.69.5-.9l14.6-14.6.3-.3c.36-.25.84-.25,1.2,0,.36.29.44.81.2,1.2-.14.22-.3.43-.5.6l-13.3,13.33c-.2.2-.4.3-.5.6l.1.07Z"/><path class="cls-16" d="m319.2,56.02c.2,0,.4-.2.6-.4,1-1,1.6-.8,2.1.4-.08.39-.29.75-.6,1l-8.3,8.3-.5.5c-.37.27-.88.23-1.2-.1-.38-.25-.49-.77-.24-1.15.01-.02.02-.03.04-.05.11-.24.28-.45.5-.6l7.2-7.2c.2-.2.4-.3.5-.6l-.1-.1Z"/><path class="cls-16" d="m307.49,101.92c-.3.11-.54.32-.7.6-.8.8-1.6.5-1.9-.5.02-.33.21-.63.5-.8l8.7-8.7c.25-.43.8-.58,1.23-.33.06.04.12.08.17.13l.1.1c.39.39.39,1.02,0,1.41-.03.03-.06.06-.1.09l-7.5,7.5c-.2.2-.4.3-.4.6l-.1-.1Z"/><path d="m297.2,39.72c2.03,2.82,1.4,6.75-1.41,8.78-.16.11-.32.22-.49.32-2.98,2.46-7.39,2.05-9.86-.93-2.46-2.98-2.05-7.39.93-9.86.38-.31.79-.58,1.22-.81,1.95-1.32,4.44-1.55,6.6-.6l-1.4,2.7c-1.21-.46-2.57-.27-3.6.5-1.8,1.08-2.37,3.42-1.29,5.22.06.1.12.19.19.28,1.2,1.9,3.5,2.4,5.7,1,1.3-.69,2-2.16,1.7-3.6l-3,1.9-1.5-2.2,5.6-3.7.6,1Z"/><path d="m298.13,32.02l2.8-.7,3.5,13.5-2.8.7-3.5-13.5Z"/><path d="m315.6,34.82l-.2,9.6h-2.9v-1c-.76.77-1.82,1.18-2.9,1.1-2.5,0-4.5-2.3-4.5-5.1-.09-2.62,1.96-4.81,4.58-4.9.04,0,.08,0,.12,0,1.07-.05,2.1.39,2.8,1.2v-.9h3Zm-3,4.7c.1-1.22-.8-2.29-2.01-2.39-.06,0-.13,0-.19,0-1.18-.09-2.21.8-2.3,1.99,0,.1,0,.21,0,.31-.1,1.22.8,2.29,2.01,2.39.06,0,.13,0,.19,0,1.18.09,2.21-.8,2.3-1.99,0-.1,0-.21,0-.31Z"/><path d="m324.3,44.72c-.8,2.1-2.9,2.3-4.8,1.6-1.65-.49-2.86-1.9-3.1-3.6l2.8-.5c-.07.73.39,1.4,1.1,1.6.6.2,1,.2,1.2-.2.4-1-4.2-2.1-3.1-5.2.7-2,2.7-2.3,4.6-1.6,1.45.47,2.53,1.7,2.8,3.2l-2.8.4c.03-.56-.35-1.07-.9-1.2-.5-.2-.8-.1-.9.2-.4,1,4.3,2,3.1,5.3Z"/><path d="m330.99,49.52c-1.3,1.8-3.4,1.4-5.1.2-1.46-.91-2.25-2.6-2-4.3l2.8.3c-.22.72.06,1.5.7,1.9.6.4,1,.4,1.2.1.6-.9-3.5-3.2-1.6-5.8,1.2-1.7,3.3-1.5,4.9-.3,1.27.82,1.97,2.29,1.8,3.8l-2.8-.4c0-.6,0-1.1-.5-1.4s-.8-.3-1,0c-.6.9,3.6,3.1,1.5,5.9h.1Z"/><path class="cls-14" d="m129.06,326.26c.56,0,1.12.02,1.68.03.95,0,1.73.77,1.74,1.73.01.87,0,1.75,0,2.62,0,7.4,0,14.8,0,22.2,0,.48-.02.97-.16,1.44-.17.55-.85,1.04-1.42,1.04-6.27,0-12.53,0-18.8,0-.03,0-.06,0-.09-.01,0-1.7,0-3.41,0-5.11,1.31,0,2.61,0,3.92-.01.17,0,.36.04.36-.23.01-.64.06-1.3-.09-1.92-.4-1.67-.89-3.32-1.31-4.98-.12-.45-.24-.89-.4-1.33-.25-.68.22-1.04.63-1.41.67-.62.96-1.39,1.12-2.29.34-1.86-1.23-4.1-3.01-4.67-.06-.1-.14-.14-.25-.09-.09-.02-.18-.04-.27-.06-.04-.06-.09-.07-.16-.04-.17-.02-.35-.05-.52-.07,0-2.26,0-4.53,0-6.79,3.21,0,6.42-.01,9.64-.02.2,0,.4-.02.6-.02,1.15.04,2.3.05,3.45,0,1.13.06,2.25.05,3.38,0Z"/><path class="cls-7" d="m112,350.2c0,1.7,0,3.41,0,5.11-.65,0-1.29.01-1.94.01-5.47,0-10.93-.03-16.4.02-1.44.01-2.18-.77-2.18-2.18.05-8.36.03-16.73,0-25.09,0-1,.81-1.8,1.76-1.78.56.01,1.12-.01,1.68-.02,1.13.03,2.25.06,3.38-.01,1.15.07,2.29.04,3.44.01.19,0,.37.02.56.02,3.23,0,6.45,0,9.68.01,0,2.26,0,4.53,0,6.79-.36.17-.77.09-1.15.23-1.6.62-2.65,1.7-3.03,3.39-.07.04-.12.08-.03.15-.13,1.4.02,2.69,1.28,3.62.4.29.55.73.39,1.28-.1.33-.23.66-.31,1.01-.22.94-.47,1.87-.72,2.8-.18.69-.39,1.37-.56,2.06-.16.68-.12,1.39-.15,2.08-.01.35.08.47.45.46,1.28-.02,2.55,0,3.83,0Z"/><path class="cls-10" d="m98.32,326.25c-1.13.07-2.25.04-3.38.01,0-3.04-.02-6.08.02-9.12.02-1.41.21-2.8.62-4.17.49-1.64,1.19-3.19,2.13-4.61,1.18-1.78,2.64-3.3,4.39-4.55,1.15-.82,2.35-1.55,3.67-2.01,1.31-.46,2.64-.91,4.06-1.01.79-.06,1.58-.17,2.39-.16,1.99.03,3.91.43,5.76,1.13,1.86.7,3.53,1.71,5.06,2.98,1.31,1.1,2.39,2.39,3.31,3.82.65,1.01,1.16,2.09,1.6,3.22.24.62.4,1.26.62,1.89.19.57.23,1.19.3,1.8.39,3.58.1,7.18.19,10.77-1.13.04-2.25.06-3.38,0,0-2.57-.02-5.14.01-7.7.02-1.48-.17-2.92-.53-4.35-.51-2-1.44-3.81-2.79-5.35-1.66-1.89-3.66-3.32-6.09-4.09-1.72-.55-3.47-.72-5.28-.61-1.67.1-3.25.49-4.75,1.19-2.49,1.16-4.45,2.93-5.9,5.27-1.25,2.01-1.93,4.23-2.02,6.57-.11,3.02-.02,6.05-.02,9.08Z"/><path class="cls-6" d="m122.24,326.26c0-2.72.02-5.45,0-8.17-.02-1.45-.22-2.88-.8-4.23-.46-1.07-1.07-2.04-1.84-2.93-1.14-1.32-2.56-2.24-4.16-2.82-1.48-.54-3.04-.72-4.64-.52-.98.12-1.92.35-2.8.73-2.45,1.07-4.25,2.82-5.37,5.27-.52,1.15-.73,2.35-.79,3.6-.15,3.02-.02,6.04-.07,9.07-1.15.02-2.3.05-3.44-.02,0-3.03-.09-6.06.02-9.08.09-2.34.77-4.55,2.02-6.57,1.45-2.33,3.41-4.11,5.9-5.27,1.5-.7,3.07-1.09,4.75-1.19,1.81-.11,3.56.07,5.28.61,2.43.77,4.43,2.19,6.09,4.09,1.35,1.55,2.28,3.35,2.79,5.35.36,1.43.55,2.87.53,4.35-.03,2.57-.01,5.14-.01,7.7-1.15.06-2.3.04-3.45,0Z"/><path class="cls-9" d="m112,350.2c-1.28,0-2.55-.02-3.83,0-.37,0-.46-.11-.45-.46.03-.7-.02-1.4.15-2.08.17-.69.38-1.37.56-2.06.25-.93.5-1.87.72-2.8.08-.34.21-.67.31-1.01.16-.55,0-.99-.39-1.28-1.26-.93-1.41-2.22-1.28-3.62.07-.04.07-.09.03-.15.38-1.69,1.44-2.77,3.03-3.39.38-.15.79-.06,1.15-.23.17.02.35.05.52.07.03.09.08.14.16.04.09.02.18.04.27.06.05.12.15.09.25.09,1.78.57,3.34,2.81,3.01,4.67-.16.89-.44,1.67-1.12,2.29-.41.38-.88.73-.63,1.41.16.43.29.88.4,1.33.43,1.66.91,3.31,1.31,4.98.15.62.1,1.28.09,1.92,0,.28-.19.23-.36.23-1.31,0-2.61,0-3.92.01Z"/><path class="cls-6" d="m113.2,333.36c-.1,0-.2.03-.25-.09.11-.05.19,0,.25.09Z"/><path class="cls-6" d="m112.68,333.2c-.08.1-.12.05-.16-.04.06-.04.12-.02.16.04Z"/><path class="cls-10" d="m107.82,336.72c.04.06.04.12-.03.15-.09-.07-.03-.12.03-.15Z"/><circle class="cls-2" cx="112.15" cy="330.57" r="43.87"/><path class="cls-14" d="m296.06,326.26c.56,0,1.12.02,1.68.03.95,0,1.73.77,1.74,1.73.01.87,0,1.75,0,2.62,0,7.4,0,14.8,0,22.2,0,.48-.02.97-.16,1.44-.17.55-.85,1.04-1.42,1.04-6.27,0-12.53,0-18.8,0-.03,0-.06,0-.09-.01,0-1.7,0-3.41,0-5.11,1.31,0,2.61,0,3.92-.01.17,0,.36.04.36-.23.01-.64.06-1.3-.09-1.92-.4-1.67-.89-3.32-1.31-4.98-.12-.45-.24-.89-.4-1.33-.25-.68.22-1.04.63-1.41.67-.62.96-1.39,1.12-2.29.34-1.86-1.23-4.1-3.01-4.67-.06-.1-.14-.14-.25-.09-.09-.02-.18-.04-.27-.06-.04-.06-.09-.07-.16-.04-.17-.02-.35-.05-.52-.07,0-2.26,0-4.53,0-6.79,3.21,0,6.42-.01,9.64-.02.2,0,.4-.02.6-.02,1.15.04,2.3.05,3.45,0,1.13.06,2.25.05,3.38,0Z"/><path class="cls-7" d="m279,350.2c0,1.7,0,3.41,0,5.11-.65,0-1.29.01-1.94.01-5.47,0-10.93-.03-16.4.02-1.44.01-2.18-.77-2.18-2.18.05-8.36.03-16.73,0-25.09,0-1,.81-1.8,1.76-1.78.56.01,1.12-.01,1.68-.02,1.13.03,2.25.06,3.38-.01,1.15.07,2.29.04,3.44.01.19,0,.37.02.56.02,3.23,0,6.45,0,9.68.01,0,2.26,0,4.53,0,6.79-.36.17-.77.09-1.15.23-1.6.62-2.65,1.7-3.03,3.39-.07.04-.12.08-.03.15-.13,1.4.02,2.69,1.28,3.62.4.29.55.73.39,1.28-.1.33-.23.66-.31,1.01-.22.94-.47,1.87-.72,2.8-.18.69-.39,1.37-.56,2.06-.16.68-.12,1.39-.15,2.08-.01.35.08.47.45.46,1.28-.02,2.55,0,3.83,0Z"/><path class="cls-10" d="m265.32,326.25c-1.13.07-2.25.04-3.38.01,0-3.04-.02-6.08.02-9.12.02-1.41.21-2.8.62-4.17.49-1.64,1.19-3.19,2.13-4.61,1.18-1.78,2.64-3.3,4.39-4.55,1.15-.82,2.35-1.55,3.67-2.01,1.31-.46,2.64-.91,4.06-1.01.79-.06,1.58-.17,2.39-.16,1.99.03,3.91.43,5.76,1.13,1.86.7,3.53,1.71,5.06,2.98,1.31,1.1,2.39,2.39,3.31,3.82.65,1.01,1.16,2.09,1.6,3.22.24.62.4,1.26.62,1.89.19.57.23,1.19.3,1.8.39,3.58.1,7.18.19,10.77-1.13.04-2.25.06-3.38,0,0-2.57-.02-5.14.01-7.7.02-1.48-.17-2.92-.53-4.35-.51-2-1.44-3.81-2.79-5.35-1.66-1.89-3.66-3.32-6.09-4.09-1.72-.55-3.47-.72-5.28-.61-1.67.1-3.25.49-4.75,1.19-2.49,1.16-4.45,2.93-5.9,5.27-1.25,2.01-1.93,4.23-2.02,6.57-.11,3.02-.02,6.05-.02,9.08Z"/><path class="cls-6" d="m289.24,326.26c0-2.72.02-5.45,0-8.17-.02-1.45-.22-2.88-.8-4.23-.46-1.07-1.07-2.04-1.84-2.93-1.14-1.32-2.56-2.24-4.16-2.82-1.48-.54-3.04-.72-4.64-.52-.98.12-1.92.35-2.8.73-2.45,1.07-4.25,2.82-5.37,5.27-.52,1.15-.73,2.35-.79,3.6-.15,3.02-.02,6.04-.07,9.07-1.15.02-2.3.05-3.44-.02,0-3.03-.09-6.06.02-9.08.09-2.34.77-4.55,2.02-6.57,1.45-2.33,3.41-4.11,5.9-5.27,1.5-.7,3.07-1.09,4.75-1.19,1.81-.11,3.56.07,5.28.61,2.43.77,4.43,2.19,6.09,4.09,1.35,1.55,2.28,3.35,2.79,5.35.36,1.43.55,2.87.53,4.35-.03,2.57-.01,5.14-.01,7.7-1.15.06-2.3.04-3.45,0Z"/><path class="cls-9" d="m279,350.2c-1.28,0-2.55-.02-3.83,0-.37,0-.46-.11-.45-.46.03-.7-.02-1.4.15-2.08.17-.69.38-1.37.56-2.06.25-.93.5-1.87.72-2.8.08-.34.21-.67.31-1.01.16-.55,0-.99-.39-1.28-1.26-.93-1.41-2.22-1.28-3.62.07-.04.07-.09.03-.15.38-1.69,1.44-2.77,3.03-3.39.38-.15.79-.06,1.15-.23.17.02.35.05.52.07.03.09.08.14.16.04.09.02.18.04.27.06.05.12.15.09.25.09,1.78.57,3.34,2.81,3.01,4.67-.16.89-.44,1.67-1.12,2.29-.41.38-.88.73-.63,1.41.16.43.29.88.4,1.33.43,1.66.91,3.31,1.31,4.98.15.62.1,1.28.09,1.92,0,.28-.19.23-.36.23-1.31,0-2.61,0-3.92.01Z"/><path class="cls-6" d="m280.2,333.36c-.1,0-.2.03-.25-.09.11-.05.19,0,.25.09Z"/><path class="cls-6" d="m279.68,333.2c-.08.1-.12.05-.16-.04.06-.04.12-.02.16.04Z"/><path class="cls-10" d="m274.82,336.72c.04.06.04.12-.03.15-.09-.07-.03-.12.03-.15Z"/><circle class="cls-2" cx="279.15" cy="330.57" r="43.87"/><path class="cls-14" d="m216.06,204.26c.56,0,1.12.02,1.68.03.95,0,1.73.77,1.74,1.73.01.87,0,1.75,0,2.62,0,7.4,0,14.8,0,22.2,0,.48-.02.97-.16,1.44-.17.55-.85,1.04-1.42,1.04-6.27,0-12.53,0-18.8,0-.03,0-.06,0-.09-.01,0-1.7,0-3.41,0-5.11,1.31,0,2.61,0,3.92-.01.17,0,.36.04.36-.23.01-.64.06-1.3-.09-1.92-.4-1.67-.89-3.32-1.31-4.98-.12-.45-.24-.89-.4-1.33-.25-.68.22-1.04.63-1.41.67-.62.96-1.39,1.12-2.29.34-1.86-1.23-4.1-3.01-4.67-.06-.1-.14-.14-.25-.09-.09-.02-.18-.04-.27-.06-.04-.06-.09-.07-.16-.04-.17-.02-.35-.05-.52-.07,0-2.26,0-4.53,0-6.79,3.21,0,6.42-.01,9.64-.02.2,0,.4-.02.6-.02,1.15.04,2.3.05,3.45,0,1.13.06,2.25.05,3.38,0Z"/><path class="cls-7" d="m199,228.2c0,1.7,0,3.41,0,5.11-.65,0-1.29.01-1.94.01-5.47,0-10.93-.03-16.4.02-1.44.01-2.18-.77-2.18-2.18.05-8.36.03-16.73,0-25.09,0-1,.81-1.8,1.76-1.78.56.01,1.12-.01,1.68-.02,1.13.03,2.25.06,3.38-.01,1.15.07,2.29.04,3.44.01.19,0,.37.02.56.02,3.23,0,6.45,0,9.68.01,0,2.26,0,4.53,0,6.79-.36.17-.77.09-1.15.23-1.6.62-2.65,1.7-3.03,3.39-.07.04-.12.08-.03.15-.13,1.4.02,2.69,1.28,3.62.4.29.55.73.39,1.28-.1.33-.23.66-.31,1.01-.22.94-.47,1.87-.72,2.8-.18.69-.39,1.37-.56,2.06-.16.68-.12,1.39-.15,2.08-.01.35.08.47.45.46,1.28-.02,2.55,0,3.83,0Z"/><path class="cls-10" d="m185.32,204.25c-1.13.07-2.25.04-3.38.01,0-3.04-.02-6.08.02-9.12.02-1.41.21-2.8.62-4.17.49-1.64,1.19-3.19,2.13-4.61,1.18-1.78,2.64-3.3,4.39-4.55,1.15-.82,2.35-1.55,3.67-2.01,1.31-.46,2.64-.91,4.06-1.01.79-.06,1.58-.17,2.39-.16,1.99.03,3.91.43,5.76,1.13,1.86.7,3.53,1.71,5.06,2.98,1.31,1.1,2.39,2.39,3.31,3.82.65,1.01,1.16,2.09,1.6,3.22.24.62.4,1.26.62,1.89.19.57.23,1.19.3,1.8.39,3.58.1,7.18.19,10.77-1.13.04-2.25.06-3.38,0,0-2.57-.02-5.14.01-7.7.02-1.48-.17-2.92-.53-4.35-.51-2-1.44-3.81-2.79-5.35-1.66-1.89-3.66-3.32-6.09-4.09-1.72-.55-3.47-.72-5.28-.61-1.67.1-3.25.49-4.75,1.19-2.49,1.16-4.45,2.93-5.9,5.27-1.25,2.01-1.93,4.23-2.02,6.57-.11,3.02-.02,6.05-.02,9.08Z"/><path class="cls-6" d="m209.24,204.26c0-2.72.02-5.45,0-8.17-.02-1.45-.22-2.88-.8-4.23-.46-1.07-1.07-2.04-1.84-2.93-1.14-1.32-2.56-2.24-4.16-2.82-1.48-.54-3.04-.72-4.64-.52-.98.12-1.92.35-2.8.73-2.45,1.07-4.25,2.82-5.37,5.27-.52,1.15-.73,2.35-.79,3.6-.15,3.02-.02,6.04-.07,9.07-1.15.02-2.3.05-3.44-.02,0-3.03-.09-6.06.02-9.08.09-2.34.77-4.55,2.02-6.57,1.45-2.33,3.41-4.11,5.9-5.27,1.5-.7,3.07-1.09,4.75-1.19,1.81-.11,3.56.07,5.28.61,2.43.77,4.43,2.19,6.09,4.09,1.35,1.55,2.28,3.35,2.79,5.35.36,1.43.55,2.87.53,4.35-.03,2.57-.01,5.14-.01,7.7-1.15.06-2.3.04-3.45,0Z"/><path class="cls-9" d="m199,228.2c-1.28,0-2.55-.02-3.83,0-.37,0-.46-.11-.45-.46.03-.7-.02-1.4.15-2.08.17-.69.38-1.37.56-2.06.25-.93.5-1.87.72-2.8.08-.34.21-.67.31-1.01.16-.55,0-.99-.39-1.28-1.26-.93-1.41-2.22-1.28-3.62.07-.04.07-.09.03-.15.38-1.69,1.44-2.77,3.03-3.39.38-.15.79-.06,1.15-.23.17.02.35.05.52.07.03.09.08.14.16.04.09.02.18.04.27.06.05.12.15.09.25.09,1.78.57,3.34,2.81,3.01,4.67-.16.89-.44,1.67-1.12,2.29-.41.38-.88.73-.63,1.41.16.43.29.88.4,1.33.43,1.66.91,3.31,1.31,4.98.15.62.1,1.28.09,1.92,0,.28-.19.23-.36.23-1.31,0-2.61,0-3.92.01Z"/><path class="cls-6" d="m200.2,211.36c-.1,0-.2.03-.25-.09.11-.05.19,0,.25.09Z"/><path class="cls-6" d="m199.68,211.2c-.08.1-.12.05-.16-.04.06-.04.12-.02.16.04Z"/><path class="cls-10" d="m194.82,214.72c.04.06.04.12-.03.15-.09-.07-.03-.12.03-.15Z"/><circle class="cls-2" cx="199.15" cy="208.57" r="43.87"/></svg>