<?xml version="1.0" encoding="UTF-8"?><svg id="Layer_1" xmlns="http://www.w3.org/2000/svg" viewBox="0 0 400 400"><defs><style>.cls-1{stroke:#a5262d;}.cls-1,.cls-2{stroke-width:4px;}.cls-1,.cls-2,.cls-3{stroke-miterlimit:10;}.cls-1,.cls-2,.cls-3,.cls-4{fill:none;}.cls-2{stroke:#000;}.cls-5{fill:#fff;}.cls-6{fill:#546e7a;}.cls-7{fill:#bacce9;}.cls-8{fill:#c7c7c7;}.cls-9{fill:#bdbdbd;}.cls-10{fill:#ecf5fe;}.cls-11{fill:#ffed58;}.cls-3{stroke:#231f20;stroke-width:2px;}.cls-12{fill:#36464e;}.cls-13{fill:#b9cce9;}.cls-14{fill:#aaa;}.cls-15{fill:#788f9b;}.cls-16{fill:#484645;}.cls-17{fill:#b3b3b3;}.cls-18{fill:#fbd734;}.cls-19{fill:#d7e1f2;}.cls-20{fill:#231f20;}</style></defs><line class="cls-5" x1="169.55" y1="255.31" x2="147.45" y2="279.51"/><line class="cls-3" x1="169.55" y1="255.31" x2="154.71" y2="271.56"/><polygon class="cls-20" points="150.66 264.9 147.45 279.51 161.7 274.99 150.66 264.9"/><line class="cls-5" x1="230.45" y1="255.31" x2="252.55" y2="279.51"/><line class="cls-3" x1="230.45" y1="255.31" x2="245.29" y2="271.56"/><polygon class="cls-20" points="238.3 274.99 252.55 279.51 249.34 264.9 238.3 274.99"/><path class="cls-18" d="m278.55,327.36c.58,0,1.15.02,1.73.03.98.01,1.78.8,1.79,1.78.01.9,0,1.8,0,2.7,0,7.62,0,15.25,0,22.87,0,.5-.02,1-.17,1.48-.18.57-.87,1.08-1.47,1.08-6.46,0-12.91,0-19.37,0-.03,0-.06,0-.09-.01,0-1.75,0-3.51,0-5.26,1.34,0,2.69,0,4.03-.01.17,0,.37.04.37-.24.01-.66.06-1.34-.1-1.98-.42-1.72-.91-3.42-1.35-5.13-.12-.46-.25-.92-.41-1.37-.26-.7.22-1.07.64-1.45.69-.64.99-1.44,1.15-2.36.35-1.92-1.27-4.23-3.1-4.81-.06-.1-.14-.15-.26-.09-.09-.02-.19-.04-.28-.06-.04-.06-.1-.08-.16-.04-.18-.03-.36-.05-.54-.08,0-2.33,0-4.66,0-6.99,3.31,0,6.62-.01,9.93-.02.21,0,.41-.02.62-.02,1.18.04,2.37.05,3.55,0,1.16.07,2.32.05,3.48,0Z"/><path class="cls-11" d="m260.98,352.03c0,1.75,0,3.51,0,5.26-.66,0-1.33.01-1.99.01-5.63,0-11.26-.03-16.89.02-1.48.01-2.25-.8-2.24-2.25.05-8.61.04-17.23,0-25.84,0-1.03.83-1.86,1.81-1.84.58.01,1.15-.01,1.73-.02,1.16.03,2.32.06,3.48-.01,1.18.07,2.36.04,3.55.02.19,0,.38.02.57.02,3.32,0,6.65,0,9.97.01,0,2.33,0,4.66,0,6.99-.37.18-.79.09-1.18.24-1.64.64-2.73,1.75-3.12,3.5-.07.04-.12.08-.03.16-.13,1.44.02,2.77,1.32,3.73.41.3.57.76.4,1.32-.1.34-.23.68-.32,1.04-.23.97-.49,1.93-.74,2.89-.19.71-.41,1.41-.58,2.12-.17.7-.13,1.43-.15,2.15-.01.36.08.48.46.48,1.31-.02,2.63,0,3.94,0Z"/><path class="cls-15" d="m246.89,327.35c-1.16.07-2.32.04-3.48.01,0-3.13-.03-6.27.02-9.4.02-1.45.22-2.89.64-4.29.51-1.69,1.22-3.28,2.2-4.75,1.22-1.83,2.72-3.4,4.52-4.68,1.18-.84,2.42-1.59,3.78-2.07,1.35-.47,2.72-.94,4.18-1.04.82-.06,1.63-.18,2.46-.17,2.05.04,4.02.44,5.94,1.16,1.92.72,3.64,1.76,5.21,3.07,1.35,1.13,2.46,2.46,3.41,3.94.67,1.05,1.2,2.16,1.65,3.32.25.64.42,1.3.64,1.95.2.58.24,1.23.31,1.85.4,3.69.1,7.4.2,11.1-1.16.04-2.32.06-3.48,0,0-2.65-.02-5.29.01-7.94.02-1.52-.17-3.01-.55-4.48-.52-2.06-1.48-3.92-2.88-5.51-1.71-1.95-3.77-3.42-6.27-4.21-1.77-.56-3.57-.74-5.44-.63-1.72.1-3.35.51-4.89,1.23-2.56,1.19-4.58,3.02-6.07,5.43-1.29,2.07-1.99,4.36-2.08,6.76-.11,3.11-.02,6.24-.02,9.35Z"/><path class="cls-6" d="m271.52,327.36c0-2.81.02-5.61,0-8.42-.02-1.49-.23-2.97-.82-4.35-.47-1.1-1.11-2.1-1.89-3.01-1.17-1.36-2.63-2.31-4.29-2.91-1.53-.55-3.13-.74-4.78-.53-1.01.13-1.98.36-2.89.75-2.52,1.1-4.38,2.91-5.53,5.43-.54,1.18-.75,2.42-.82,3.71-.15,3.11-.02,6.23-.07,9.34-1.18.02-2.36.05-3.55-.02,0-3.12-.09-6.24.02-9.35.09-2.41.79-4.69,2.08-6.76,1.49-2.4,3.51-4.23,6.07-5.43,1.54-.72,3.17-1.13,4.89-1.23,1.86-.11,3.66.07,5.44.63,2.5.8,4.57,2.26,6.27,4.21,1.4,1.59,2.35,3.45,2.88,5.51.37,1.47.56,2.96.55,4.48-.03,2.64-.01,5.29-.01,7.94-1.18.06-2.37.05-3.55,0Z"/><path class="cls-12" d="m260.98,352.03c-1.31,0-2.63-.02-3.94,0-.38,0-.48-.11-.46-.48.03-.72-.02-1.44.15-2.15.17-.71.39-1.42.58-2.12.25-.96.51-1.92.74-2.89.08-.35.21-.69.32-1.04.17-.57,0-1.02-.4-1.32-1.3-.96-1.45-2.29-1.32-3.73.07-.04.07-.1.03-.16.39-1.75,1.48-2.86,3.12-3.5.39-.15.81-.06,1.18-.24.18.03.36.05.54.08.03.09.08.14.16.04.09.02.19.04.28.06.05.12.16.1.26.09,1.83.59,3.45,2.89,3.1,4.81-.17.92-.46,1.72-1.15,2.36-.42.39-.9.75-.64,1.45.16.45.3.9.41,1.37.44,1.71.94,3.41,1.35,5.13.16.64.11,1.32.1,1.98,0,.28-.2.24-.37.24-1.34,0-2.69,0-4.03.01Z"/><path class="cls-6" d="m262.22,334.67c-.1,0-.21.03-.26-.09.12-.06.2,0,.26.09Z"/><path class="cls-6" d="m261.68,334.52c-.08.1-.13.05-.16-.04.07-.04.12-.02.16.04Z"/><path class="cls-15" d="m256.68,338.14c.04.06.04.12-.03.16-.09-.08-.03-.12.03-.16Z"/><circle class="cls-2" cx="261.13" cy="331.81" r="45.19"/><line class="cls-4" x1="154.68" y1="122.47" x2="188.32" y2="149.65"/><line class="cls-3" x1="154.68" y1="122.47" x2="179.96" y2="142.89"/><polygon class="cls-20" points="173.54 147.33 188.32 149.66 182.96 135.7 173.54 147.33"/><line class="cls-4" x1="245.32" y1="122.47" x2="211.68" y2="149.65"/><line class="cls-3" x1="245.32" y1="122.47" x2="220.05" y2="142.89"/><polygon class="cls-20" points="217.05 135.7 211.68 149.65 226.46 147.33 217.05 135.7"/><circle class="cls-1" cx="117.54" cy="68.73" r="45"/><rect class="cls-17" x="91.54" y="58.73" width="52" height="37" rx="2.9" ry="2.9"/><path class="cls-16" d="m118.34,89.04l-1.1-3.4h-8l-1,3.4h-6.5l7.5-23.6h7.6l7.8,23.6h-6.3Zm-7.6-8.6h4.76l-2.4-8-2.36,8Z"/><path class="cls-16" d="m126.04,89.04v-24.71h5.6v24.71h-5.6Z"/><path d="m93.64,47.43l-2.4,3.1,1,1.4-1.6,2.1-6.1-9.3,1.9-2.4,10.5,3.7-1.6,2.1-1.6-.6-.1-.1Zm-2.2-.8l-3.8-1.4,2.3,3.3,1.5-1.9Z"/><path d="m90.34,37.63l1.7-1.4,7,8.4-1.7,1.4-7-8.4Z"/><path d="m102.5,33.83l3.6,6.6-2,1.1-.3-.6c-.11.81-.64,1.49-1.4,1.8-1.33.74-3.01.25-3.75-1.08-.06-.1-.11-.21-.15-.32l-2.2-4,2-1.1,2,3.8c.29.65,1.06.94,1.71.65.03-.01.06-.03.09-.05.67-.32.95-1.12.63-1.79-.04-.07-.08-.15-.13-.21l-2-3.6,2-1.1-.1-.1Z"/><path d="m117.14,33.33l.8,4.5-2.2.4-.8-4.3c-.03-.6-.54-1.05-1.14-1.02-.06,0-.11.01-.16.02-.7.1-1.1.7-.9,1.6l.7,4.2-2.2.4-.8-4.3c-.03-.6-.54-1.05-1.14-1.02-.06,0-.11.01-.16.02-.7.1-1.1.7-.9,1.6l.7,4.2-2.2.4-1.3-7.4,2.2-.4v.7c.41-.67,1.12-1.11,1.9-1.2.76-.23,1.58,0,2.1.6.37-.79,1.13-1.33,2-1.4,1.7-.3,3,.7,3.3,2.6l.2-.2Z"/><path d="m119.44,30.93l2.2.2-.6,7.5-2.2-.2.6-7.5Zm0-2c.08-.75.75-1.29,1.5-1.2.75.08,1.29.75,1.2,1.5s-.75,1.29-1.5,1.2c0,0,0,0,0,0-.72-.05-1.26-.66-1.21-1.38,0-.04,0-.08.01-.12Z"/><path d="m130.44,36.04l-1.2,4.4-2.2-.6,1.1-4.1c.24-.68-.11-1.42-.78-1.66-.04-.01-.08-.03-.12-.04-.69-.26-1.46.08-1.72.76-.04.11-.07.22-.08.34l-1.1,3.9-2.2-.6,2-7.2,2.2.6-.2.7c.67-.47,1.53-.58,2.3-.3,1.49.39,2.38,1.91,2,3.4-.03.1-.06.2-.1.3l.1.1Z"/><path d="m140.04,38.04l-3.8,6.4-1.9-1.2.4-.6c-.77.29-1.63.18-2.3-.3-1.32-.77-1.78-2.46-1.01-3.78.06-.11.13-.22.21-.32l2.4-4,1.9,1.2-2.2,3.7c-.41.5-.34,1.24.16,1.65.07.06.15.11.24.15.63.41,1.48.23,1.89-.4.04-.06.08-.13.11-.2l2.1-3.5,1.9,1.2h-.1Z"/><path d="m147.84,50.33l-3.5,3-1.5-1.7,3.4-2.9c.6-.5.7-1.1.2-1.6-.43-.5-1.18-.55-1.68-.12-.04.04-.08.08-.12.12l-3.2,2.7-1.5-1.7,3.4-2.9c.6-.5.7-1.1.2-1.6-.43-.5-1.18-.55-1.68-.12-.04.04-.08.08-.12.12l-3.2,2.7-1.5-1.7,5.7-4.9,1.5,1.7-.5.4c.76,0,1.49.34,2,.9.54.56.73,1.36.5,2.1.85-.02,1.66.35,2.2,1,1.03,1.19.9,3-.29,4.03-.07.06-.14.11-.21.17l-.1.3Z"/><circle class="cls-1" cx="282.46" cy="71.73" r="45" transform="translate(166.41 339.05) rotate(-80.78)"/><path d="m262.87,42.53c1.57,2.02,1.21,4.92-.8,6.5l-1.6,1.2,2.6,3.3-2.4,1.9-8.3-10.39,3.9-3.1c1.97-1.6,4.87-1.31,6.47.66,0,.01.02.02.03.04l.1-.11Zm-2.4,1.9c-.47-.71-1.43-.9-2.14-.43-.06.04-.11.08-.16.13l-1.6,1.2,2.1,2.7,1.6-1.2c.69-.56.79-1.58.23-2.27,0-.01-.02-.02-.03-.03v-.1Z"/><path d="m263.27,36.83l2.6-1.2,5.8,12.6-2.6,1.2-5.8-12.6Z"/><path d="m280.67,36.33l1.7,9.4-2.8.5-.2-.9c-.58.9-1.53,1.49-2.6,1.6-2.61.37-5.03-1.46-5.4-4.07,0,0,0-.02,0-.03-.62-2.51.92-5.04,3.43-5.66.06-.01.11-.03.17-.04,1.04-.24,2.13-.03,3,.6l-.2-.9,2.8-.5h.1Zm-2,5.2c-.14-1.2-1.22-2.06-2.42-1.93-.06,0-.12.02-.18.03-1.17.14-2,1.2-1.87,2.36.01.11.04.23.07.34.14,1.2,1.22,2.06,2.42,1.93.06,0,.12-.02.18-.03,1.17-.14,2-1.2,1.87-2.36-.01-.11-.04-.23-.07-.34Z"/><path d="m291.17,44.04c-.3,2.2-2.3,2.9-4.3,2.6-1.73-.04-3.25-1.16-3.8-2.8l2.6-1.1c.14.73.76,1.26,1.5,1.3.7,0,1,0,1.1-.5.1-1-4.6-1.1-4.2-4.3.3-2.1,2.1-2.9,4.1-2.6,1.51.13,2.82,1.1,3.4,2.5l-2.6,1c-.16-.54-.64-.94-1.2-1-.5,0-.8,0-.9.4-.1,1.1,4.6,1,4.1,4.4l.2.1Z"/><path d="m296.87,42.04l-1.2,3.1c-.3.8.3,1.1,1.5,1.5l-.9,2.4c-3.6-1-4.2-2.4-3.3-4.9l1.2-3.2-1.4-.5,1-2.6,1.4.5.6-1.7,3,.2-.9,2.5,1.8.7-1,2.6-1.8-.7v.1Z"/><path d="m302.17,41.43l2.4,1.5-4.9,8.2-2.4-1.5,4.9-8.2Zm1.1-2.3c.47-.8,1.5-1.07,2.3-.6.8.47,1.07,1.5.6,2.3-.47.8-1.5,1.07-2.3.6-.8-.45-1.07-1.47-.62-2.26,0-.01.01-.02.02-.04h0Z"/><path d="m303.87,47.93c1.78-2.01,4.86-2.2,6.87-.41.08.07.15.14.23.21,1.3,1.19,1.84,2.99,1.4,4.7l-2.8-.7c.21-.73-.02-1.51-.6-2-.92-.82-2.33-.73-3.15.19-.76.86-.74,2.17.05,3.01.53.59,1.36.79,2.1.5l.8,2.7c-1.7.51-3.54.05-4.8-1.2-2.02-1.89-2.12-5.05-.23-7.07.01-.01.02-.02.03-.03l.1.1Z"/><path class="cls-19" d="m305.84,67.96v.08h-1.6q-.68,0-.68.69v30.31c.02.44-.13.87-.42,1.21-.19.21-.49.24-.68.45h-10.68c0-.09,0-.18,0-.27l-1.28-5.32c-.72-3.12-1.43-6.24-2.15-9.35-1.05-4.55-2.11-9.09-3.16-13.64-.92-4-1.84-7.97-2.75-11.92h15c.23-.04.46.02.63.18v6.2c.02.73.59,1.32,1.32,1.38h3.78c.28,0,.38-.09.38-.37v-1.83c.12,0,.17.11.24.18l2.05,2.02Z"/><path class="cls-13" d="m305.84,99.65c-.39.8-1.26,1.25-2.14,1.1h-1.23c.19-.2.49-.23.68-.45.29-.34.43-.77.41-1.21v-30.35q0-.69.69-.69h1.59v31.6Z"/><path class="cls-9" d="m262.21,60.11v-.9c-.16-.88.29-1.75,1.1-2.12h2c0,.08.04.15.11.19.59.39.91,1.09.81,1.79-.02.37-.02.75,0,1.12h-3.93l-.09-.08Z"/><path class="cls-14" d="m266.21,60.19v-1.12c.11-.7-.21-1.41-.81-1.79-.06-.04-.1-.11-.1-.19h2c.9.4,1.4,1.38,1.2,2.34v.76h-2.29Z"/><path class="cls-10" d="m291.78,100.74h-6.21c0-.06,0-.12,0-.18l-1.83-8-3.17-13.69c-1.07-4.62-2.14-9.24-3.2-13.87-.36-1.61-.73-3.22-1.1-4.83h6.23c.91,4,1.82,7.97,2.74,11.92,1.06,4.55,2.12,9.1,3.17,13.64.72,3.11,1.43,6.22,2.14,9.35.41,1.79.83,3.58,1.24,5.36,0,.1,0,.2-.01.3Z"/><path class="cls-10" d="m298.08,60.38c.14.02.26.1.34.21l5,5,.14.18v1.83c0,.28-.1.37-.37.37h-3.79c-.73-.06-1.29-.65-1.32-1.38v-6.21Z"/><path class="cls-19" d="m276.25,60.2c.37,1.61.74,3.22,1.1,4.83,1.06,4.63,2.13,9.26,3.2,13.87,1.07,4.61,2.13,9.18,3.17,13.69l1.83,8c0,.06,0,.12,0,.18h-14.05v-3c0-.52-.26-.81-.71-.82s-.75.29-.75.82v3h-9.21c-.96.02-1.74-.74-1.76-1.7,0-.01,0-.03,0-.04v-37.1c0-.95.76-1.72,1.71-1.73.02,0,.03,0,.05,0,.45.03.91.03,1.36,0h7.89v3c0,.51.27.81.71.82s.75-.29.75-.82v-3h4.71Zm-4.75,20.32v-1.55c0-.4-.33-.73-.73-.73s-.73.33-.73.73v3c-.05.38.23.73.61.78.05,0,.09,0,.14,0,.39,0,.71-.31.71-.71,0-.02,0-.05,0-.07v-1.45Zm-1.47,6.14v1.55c0,.4.33.73.73.73s.73-.33.73-.73v-3.06c-.03-.41-.35-.73-.76-.75-.38,0-.7.3-.7.68,0,.02,0,.04,0,.06v1.51h0Zm0-12.42v1.51c-.02.41.3.76.71.79.42-.05.74-.4.75-.82v-2.92c0-.54-.26-.83-.74-.82s-.71.29-.72.81,0,1,0,1.46h0Zm0-6.26v1.5c-.04.38.23.72.6.77.04,0,.08,0,.12,0,.39.02.72-.27.74-.65,0-.04,0-.08,0-.13v-2.92c.05-.38-.21-.72-.59-.78-.05,0-.09,0-.14,0-.46,0-.72.28-.72.8v1.41h-.01Zm1.47,25v-1.48c0-.51-.27-.8-.72-.8-.39-.02-.72.27-.74.65,0,.04,0,.08,0,.13v2.91c-.05.38.22.73.6.78.04,0,.08,0,.13,0,.46,0,.71-.29.72-.81s.01-.94.01-1.41v.02Z"/><path class="cls-13" d="m271.5,60.21v3c0,.54-.29.84-.75.83s-.7-.31-.71-.83v-3h1.46Z"/><path class="cls-9" d="m262.29,100.75h3.92v1.18c.1.83-.39,1.63-1.18,1.91h-1.22c-.85.04-1.57-.62-1.61-1.47,0-.05,0-.1,0-.14v-1.41l.09-.07Z"/><path class="cls-14" d="m265.03,103.84c.79-.28,1.28-1.08,1.18-1.91v-1.18h2.29c.04.6.02,1.21-.06,1.81-.12.78-.82,1.34-1.61,1.29h-1.8Z"/><path class="cls-13" d="m270.05,100.74v-3c0-.53.29-.83.75-.82s.71.31.71.82v3h-1.46Z"/><path class="cls-8" d="m262.29,60.19h-.1s0-.06,0-.09l.1.09Z"/><path class="cls-8" d="m262.29,100.75l-.08.08s0-.05,0-.08h.08Z"/><path class="cls-7" d="m271.5,80.52v1.45c0,.4-.33.73-.73.73s-.73-.33-.73-.73v-3c-.04-.38.23-.73.62-.78.03,0,.06,0,.09,0,.39-.02.73.27.75.67,0,.04,0,.08,0,.11v1.55Z"/><path class="cls-13" d="m270.05,86.66v-1.51c-.03-.38.26-.71.64-.74.02,0,.04,0,.06,0,.41.02.73.34.75.75v3.06c.05.4-.24.76-.64.81-.4.05-.76-.24-.81-.64,0-.06,0-.11,0-.17-.01-.53,0-1.04,0-1.56Z"/><path class="cls-13" d="m270.05,74.25v-1.46c0-.52.26-.8.71-.81s.74.28.74.83v2.91c0,.42-.32.77-.74.82-.41-.02-.73-.36-.71-.77,0,0,0-.01,0-.02-.01-.5,0-1.01,0-1.5Z"/><path class="cls-13" d="m270.05,67.98v-1.41c0-.52.26-.8.72-.8.38-.03.71.26.73.64,0,.05,0,.09,0,.14v2.92c.04.38-.23.73-.61.78-.04,0-.08,0-.13,0-.44,0-.7-.28-.72-.77s.01-1,.01-1.5Z"/><path class="cls-13" d="m271.5,92.96v1.41c0,.52-.27.8-.72.81-.39.02-.72-.28-.74-.66,0-.04,0-.08,0-.13v-2.91c-.05-.38.21-.73.59-.78.05,0,.1,0,.15,0,.46,0,.71.29.71.8v1.46Z"/><path class="cls-18" d="m154.06,327.71c.56,0,1.12.02,1.68.03.95,0,1.73.77,1.74,1.73.01.87,0,1.75,0,2.62,0,7.4,0,14.8,0,22.2,0,.48-.02.97-.16,1.44-.17.55-.85,1.04-1.42,1.04-6.27,0-12.53,0-18.8,0-.03,0-.06,0-.09-.01,0-1.7,0-3.41,0-5.11,1.31,0,2.61,0,3.92-.01.17,0,.36.04.36-.23.01-.64.06-1.3-.09-1.92-.4-1.67-.89-3.32-1.31-4.98-.12-.45-.24-.89-.4-1.33-.25-.68.22-1.04.63-1.41.67-.62.96-1.39,1.12-2.29.34-1.86-1.23-4.1-3.01-4.67-.06-.1-.14-.14-.25-.09-.09-.02-.18-.04-.27-.06-.04-.06-.09-.07-.16-.04-.17-.02-.35-.05-.52-.07,0-2.26,0-4.53,0-6.79,3.21,0,6.42-.01,9.64-.02.2,0,.4-.02.6-.02,1.15.04,2.3.05,3.45,0,1.13.06,2.25.05,3.38,0Z"/><path class="cls-11" d="m137,351.65c0,1.7,0,3.41,0,5.11-.65,0-1.29.01-1.94.01-5.47,0-10.93-.03-16.4.02-1.44.01-2.18-.77-2.18-2.18.05-8.36.03-16.73,0-25.09,0-1,.81-1.8,1.76-1.78.56.01,1.12-.01,1.68-.02,1.13.03,2.25.06,3.38-.01,1.15.07,2.29.04,3.44.01.19,0,.37.02.56.02,3.23,0,6.45,0,9.68.01,0,2.26,0,4.53,0,6.79-.36.17-.77.09-1.15.23-1.6.62-2.65,1.7-3.03,3.39-.07.04-.12.08-.03.15-.13,1.4.02,2.69,1.28,3.62.4.29.55.73.39,1.28-.1.33-.23.66-.31,1.01-.22.94-.47,1.87-.72,2.8-.18.69-.39,1.37-.56,2.06-.16.68-.12,1.39-.15,2.08-.01.35.08.47.45.46,1.28-.02,2.55,0,3.83,0Z"/><path class="cls-15" d="m123.32,327.7c-1.13.07-2.25.04-3.38.01,0-3.04-.02-6.08.02-9.12.02-1.41.21-2.8.62-4.17.49-1.64,1.19-3.19,2.13-4.61,1.18-1.78,2.64-3.3,4.39-4.55,1.15-.82,2.35-1.55,3.67-2.01,1.31-.46,2.64-.91,4.06-1.01.79-.06,1.58-.17,2.39-.16,1.99.03,3.91.43,5.76,1.13,1.86.7,3.53,1.71,5.06,2.98,1.31,1.1,2.39,2.39,3.31,3.82.65,1.01,1.16,2.09,1.6,3.22.24.62.4,1.26.62,1.89.19.57.23,1.19.3,1.8.39,3.58.1,7.18.19,10.77-1.13.04-2.25.06-3.38,0,0-2.57-.02-5.14.01-7.7.02-1.48-.17-2.92-.53-4.35-.51-2-1.44-3.81-2.79-5.35-1.66-1.89-3.66-3.32-6.09-4.09-1.72-.55-3.47-.72-5.28-.61-1.67.1-3.25.49-4.75,1.19-2.49,1.16-4.45,2.93-5.9,5.27-1.25,2.01-1.93,4.23-2.02,6.57-.11,3.02-.02,6.05-.02,9.08Z"/><path class="cls-6" d="m147.24,327.71c0-2.72.02-5.45,0-8.17-.02-1.45-.22-2.88-.8-4.23-.46-1.07-1.07-2.04-1.84-2.93-1.14-1.32-2.56-2.24-4.16-2.82-1.48-.54-3.04-.72-4.64-.52-.98.12-1.92.35-2.8.73-2.45,1.07-4.25,2.82-5.37,5.27-.52,1.15-.73,2.35-.79,3.6-.15,3.02-.02,6.04-.07,9.07-1.15.02-2.3.05-3.44-.02,0-3.03-.09-6.06.02-9.08.09-2.34.77-4.55,2.02-6.57,1.45-2.33,3.41-4.11,5.9-5.27,1.5-.7,3.07-1.09,4.75-1.19,1.81-.11,3.56.07,5.28.61,2.43.77,4.43,2.19,6.09,4.09,1.35,1.55,2.28,3.35,2.79,5.35.36,1.43.55,2.87.53,4.35-.03,2.57-.01,5.14-.01,7.7-1.15.06-2.3.04-3.45,0Z"/><path class="cls-12" d="m137,351.65c-1.28,0-2.55-.02-3.83,0-.37,0-.46-.11-.45-.46.03-.7-.02-1.4.15-2.08.17-.69.38-1.37.56-2.06.25-.93.5-1.87.72-2.8.08-.34.21-.67.31-1.01.16-.55,0-.99-.39-1.28-1.26-.93-1.41-2.22-1.28-3.62.07-.04.07-.09.03-.15.38-1.69,1.44-2.77,3.03-3.39.38-.15.79-.06,1.15-.23.17.02.35.05.52.07.03.09.08.14.16.04.09.02.18.04.27.06.05.12.15.09.25.09,1.78.57,3.34,2.81,3.01,4.67-.16.89-.44,1.67-1.12,2.29-.41.38-.88.73-.63,1.41.16.43.29.88.4,1.33.43,1.66.91,3.31,1.31,4.98.15.62.1,1.28.09,1.92,0,.28-.19.23-.36.23-1.31,0-2.61,0-3.92.01Z"/><path class="cls-6" d="m138.2,334.8c-.1,0-.2.03-.25-.09.11-.05.19,0,.25.09Z"/><path class="cls-6" d="m137.68,334.65c-.08.1-.12.05-.16-.04.06-.04.12-.02.16.04Z"/><path class="cls-15" d="m132.82,338.17c.04.06.04.12-.03.15-.09-.07-.03-.12.03-.15Z"/><circle class="cls-2" cx="137.15" cy="332.02" r="43.87"/><path class="cls-18" d="m216.06,201.71c.56,0,1.12.02,1.68.03.95,0,1.73.77,1.74,1.73.01.87,0,1.75,0,2.62,0,7.4,0,14.8,0,22.2,0,.48-.02.97-.16,1.44-.17.55-.85,1.04-1.42,1.04-6.27,0-12.53,0-18.8,0-.03,0-.06,0-.09-.01,0-1.7,0-3.41,0-5.11,1.31,0,2.61,0,3.92-.01.17,0,.36.04.36-.23.01-.64.06-1.3-.09-1.92-.4-1.67-.89-3.32-1.31-4.98-.12-.45-.24-.89-.4-1.33-.25-.68.22-1.04.63-1.41.67-.62.96-1.39,1.12-2.29.34-1.86-1.23-4.1-3.01-4.67-.06-.1-.14-.14-.25-.09-.09-.02-.18-.04-.27-.06-.04-.06-.09-.07-.16-.04-.17-.02-.35-.05-.52-.07,0-2.26,0-4.53,0-6.79,3.21,0,6.42-.01,9.64-.02.2,0,.4-.02.6-.02,1.15.04,2.3.05,3.45,0,1.13.06,2.25.05,3.38,0Z"/><path class="cls-11" d="m199,225.65c0,1.7,0,3.41,0,5.11-.65,0-1.29.01-1.94.01-5.47,0-10.93-.03-16.4.02-1.44.01-2.18-.77-2.18-2.18.05-8.36.03-16.73,0-25.09,0-1,.81-1.8,1.76-1.78.56.01,1.12-.01,1.68-.02,1.13.03,2.25.06,3.38-.01,1.15.07,2.29.04,3.44.01.19,0,.37.02.56.02,3.23,0,6.45,0,9.68.01,0,2.26,0,4.53,0,6.79-.36.17-.77.09-1.15.23-1.6.62-2.65,1.7-3.03,3.39-.07.04-.12.08-.03.15-.13,1.4.02,2.69,1.28,3.62.4.29.55.73.39,1.28-.1.33-.23.66-.31,1.01-.22.94-.47,1.87-.72,2.8-.18.69-.39,1.37-.56,2.06-.16.68-.12,1.39-.15,2.08-.01.35.08.47.45.46,1.28-.02,2.55,0,3.83,0Z"/><path class="cls-15" d="m185.32,201.7c-1.13.07-2.25.04-3.38.01,0-3.04-.02-6.08.02-9.12.02-1.41.21-2.8.62-4.17.49-1.64,1.19-3.19,2.13-4.61,1.18-1.78,2.64-3.3,4.39-4.55,1.15-.82,2.35-1.55,3.67-2.01,1.31-.46,2.64-.91,4.06-1.01.79-.06,1.58-.17,2.39-.16,1.99.03,3.91.43,5.76,1.13,1.86.7,3.53,1.71,5.06,2.98,1.31,1.1,2.39,2.39,3.31,3.82.65,1.01,1.16,2.09,1.6,3.22.24.62.4,1.26.62,1.89.19.57.23,1.19.3,1.8.39,3.58.1,7.18.19,10.77-1.13.04-2.25.06-3.38,0,0-2.57-.02-5.14.01-7.7.02-1.48-.17-2.92-.53-4.35-.51-2-1.44-3.81-2.79-5.35-1.66-1.89-3.66-3.32-6.09-4.09-1.72-.55-3.47-.72-5.28-.61-1.67.1-3.25.49-4.75,1.19-2.49,1.16-4.45,2.93-5.9,5.27-1.25,2.01-1.93,4.23-2.02,6.57-.11,3.02-.02,6.05-.02,9.08Z"/><path class="cls-6" d="m209.24,201.71c0-2.72.02-5.45,0-8.17-.02-1.45-.22-2.88-.8-4.23-.46-1.07-1.07-2.04-1.84-2.93-1.14-1.32-2.56-2.24-4.16-2.82-1.48-.54-3.04-.72-4.64-.52-.98.12-1.92.35-2.8.73-2.45,1.07-4.25,2.82-5.37,5.27-.52,1.15-.73,2.35-.79,3.6-.15,3.02-.02,6.04-.07,9.07-1.15.02-2.3.05-3.44-.02,0-3.03-.09-6.06.02-9.08.09-2.34.77-4.55,2.02-6.57,1.45-2.33,3.41-4.11,5.9-5.27,1.5-.7,3.07-1.09,4.75-1.19,1.81-.11,3.56.07,5.28.61,2.43.77,4.43,2.19,6.09,4.09,1.35,1.55,2.28,3.35,2.79,5.35.36,1.43.55,2.87.53,4.35-.03,2.57-.01,5.14-.01,7.7-1.15.06-2.3.04-3.45,0Z"/><path class="cls-12" d="m199,225.65c-1.28,0-2.55-.02-3.83,0-.37,0-.46-.11-.45-.46.03-.7-.02-1.4.15-2.08.17-.69.38-1.37.56-2.06.25-.93.5-1.87.72-2.8.08-.34.21-.67.31-1.01.16-.55,0-.99-.39-1.28-1.26-.93-1.41-2.22-1.28-3.62.07-.04.07-.09.03-.15.38-1.69,1.44-2.77,3.03-3.39.38-.15.79-.06,1.15-.23.17.02.35.05.52.07.03.09.08.14.16.04.09.02.18.04.27.06.05.12.15.09.25.09,1.78.57,3.34,2.81,3.01,4.67-.16.89-.44,1.67-1.12,2.29-.41.38-.88.73-.63,1.41.16.43.29.88.4,1.33.43,1.66.91,3.31,1.31,4.98.15.62.1,1.28.09,1.92,0,.28-.19.23-.36.23-1.31,0-2.61,0-3.92.01Z"/><path class="cls-6" d="m200.2,208.8c-.1,0-.2.03-.25-.09.11-.05.19,0,.25.09Z"/><path class="cls-6" d="m199.68,208.65c-.08.1-.12.05-.16-.04.06-.04.12-.02.16.04Z"/><path class="cls-15" d="m194.82,212.17c.04.06.04.12-.03.15-.09-.07-.03-.12.03-.15Z"/><circle class="cls-2" cx="199.15" cy="206.02" r="43.87"/></svg>