<?xml version="1.0" encoding="UTF-8"?><svg id="Layer_1" xmlns="http://www.w3.org/2000/svg" viewBox="0 0 400 400"><defs><style>.cls-1{stroke:#a5262d;}.cls-1,.cls-2{stroke-width:4px;}.cls-1,.cls-2,.cls-3{stroke-miterlimit:10;}.cls-1,.cls-2,.cls-3,.cls-4{fill:none;}.cls-2{stroke:#000;}.cls-5{fill:#546e7a;}.cls-6{fill:#ffed58;}.cls-7{fill:#c69c6d;}.cls-3{stroke:#231f20;stroke-width:2px;}.cls-8{fill:#36464e;}.cls-9{fill:#788f9b;}.cls-10{fill:#484645;}.cls-11{fill:#b3b3b3;}.cls-12{fill:#33b1cb;}.cls-13{fill:#fbd734;}.cls-14{fill:#231f20;}.cls-15{fill:#33b1cc;}.cls-16{fill:#86cde8;}</style></defs><line class="cls-4" x1="199.08" y1="110.86" x2="199.58" y2="143.64"/><line class="cls-3" x1="199.08" y1="110.86" x2="199.41" y2="132.88"/><polygon class="cls-14" points="191.91 130.8 199.58 143.64 206.87 130.58 191.91 130.8"/><line class="cls-4" x1="117.48" y1="106.6" x2="166.13" y2="145.9"/><line class="cls-3" x1="117.48" y1="106.6" x2="157.76" y2="139.14"/><polygon class="cls-14" points="151.35 143.58 166.13 145.91 160.76 131.95 151.35 143.58"/><line class="cls-4" x1="280.13" y1="106.6" x2="231.48" y2="145.9"/><line class="cls-3" x1="280.13" y1="106.6" x2="239.85" y2="139.14"/><polygon class="cls-14" points="236.85 131.95 231.48 145.9 246.26 143.58 236.85 131.95"/><circle class="cls-1" cx="91.11" cy="57.26" r="45"/><path d="m65.01,41.66l1-3c1.15.63,2.58.43,3.5-.5,1.1-1,1-1.7.7-2.1-.6-.6-1.4-.4-3.4.6s-4.1,1.5-5.9-.5c-1.8-2-1.1-4.7.7-6.3,1.58-1.5,3.91-1.9,5.9-1l-1,3c-.95-.52-2.13-.36-2.9.4-.8.7-.8,1.4-.4,1.8s1,.6,3-.4,4.3-1.9,6.2.3c1.8,2,1.2,4.7-1.1,6.7-2.3,2-4.5,2.1-6.5,1.1l.2-.1Z"/><path d="m70.01,25.76c-.44-.88-.08-1.96.8-2.4s1.96-.08,2.4.8.08,1.96-.8,2.4h0c-.89.39-1.92.04-2.4-.8Zm1.5,2.3l2.7-1.4,4.5,8.9-2.7,1.4-4.5-8.9Z"/><path d="m75.81,21.06l2.9-.9,4.5,13.9-2.9.9-4.5-13.9Z"/><path d="m82.41,21.17c-.16-.99.51-1.93,1.5-2.09.99-.16,1.93.51,2.09,1.5.16.99-.5,1.92-1.49,2.09-.98.17-1.92-.49-2.1-1.47,0,0,0-.02,0-.03Zm.7,2.6l3-.5,1.6,9.9-3,.5-1.6-9.9Z"/><path d="m89.01,27.76c.13-2.85,2.55-5.06,5.41-4.92.1,0,.2.01.29.02,1.86.09,3.52,1.21,4.3,2.9l-2.7,1.3c-.53-1.13-1.88-1.62-3.01-1.09-.74.35-1.24,1.07-1.29,1.89-.16,1.22.7,2.33,1.92,2.48.06,0,.12.01.18.02.8.07,1.58-.31,2-1l2.5,1.7c-1.02,1.56-2.84,2.41-4.7,2.2-2.88-.17-5.08-2.65-4.91-5.53,0-.06,0-.11.01-.17v.2Z"/><path d="m99.91,28.76c1.13-2.68,4.22-3.94,6.9-2.81,2.68,1.13,3.94,4.22,2.81,6.9-1.13,2.68-4.22,3.94-6.9,2.81,0,0,0,0,0,0-2.66-1.09-3.94-4.14-2.84-6.8.01-.03.03-.07.04-.1Zm7,2.9c.53-1.17.02-2.54-1.14-3.08-.02,0-.04-.02-.06-.02-1.11-.5-2.42,0-2.92,1.11-.03.06-.05.13-.08.19-.56,1.1-.11,2.45.99,3.01.07.03.14.06.21.09,1.11.5,2.42,0,2.92-1.11.03-.06.05-.13.08-.19Z"/><path d="m119.41,39.86l-4.2,4.5-2.2-2,3.9-4.2c.69-.6.76-1.65.16-2.34-.05-.06-.1-.11-.16-.16-.72-.71-1.87-.7-2.57.02-.08.09-.16.18-.23.28l-3.7,4-2.2-2,6.8-7.4,2.2,2-.6.7c1.07-.18,2.17.19,2.9,1,1.5,1.4,1.8,3.6,0,5.6h-.1Z"/><rect class="cls-7" x="64.21" y="47.76" width="52" height="37" rx="2.9" ry="2.9"/><path class="cls-10" d="m86.41,78.86c-2.18.11-4.34-.45-6.2-1.6-1.58-1.02-2.78-2.53-3.4-4.3l5.2-3c.69,1.97,2.62,3.24,4.7,3.1,2.3,0,2.8-.5,2.8-1.6s-.5-1.2-1.6-1.7c-.97-.38-1.98-.68-3-.9-1.91-.44-3.66-1.37-5.1-2.7-1.32-1.19-2.02-2.93-1.9-4.7-.03-2.02.81-3.95,2.3-5.3,1.65-1.39,3.77-2.11,5.92-1.99,1.87-.07,3.71.42,5.3,1.4,1.54.96,2.76,2.35,3.5,4l-5.1,3c-.5-1.61-2.02-2.67-3.7-2.6-1.7,0-1.3.1-1.6.4-.36.25-.59.66-.6,1.1.05.54.34,1.02.8,1.3,1,.59,2.08,1.03,3.2,1.3,1.1.4,2,.7,2.8,1,.8.34,1.56.74,2.3,1.2.78.55,1.43,1.26,1.9,2.1.41.95.61,1.97.6,3,.11,2.1-.83,4.12-2.5,5.4-1.87,1.4-4.17,2.11-6.5,2l-.12.09Z"/><path class="cls-10" d="m102.61,59.17c-.6.63-1.43.99-2.3,1-1.79.03-3.27-1.4-3.31-3.19-.02-.91.35-1.78,1.01-2.41.61-.6,1.44-.92,2.3-.9.85,0,1.68.32,2.3.9.63.6.99,1.43,1,2.3.02.88-.35,1.72-1,2.3Zm-5.1,19.2v-16.91h5.62v16.9h-5.62Z"/><circle class="cls-1" cx="199.99" cy="57.26" r="45"/><rect class="cls-11" x="173.99" y="47.26" width="52" height="37" rx="2.9" ry="2.9"/><path class="cls-10" d="m200.8,77.56l-1.1-3.4h-8l-1,3.4h-6.5l7.5-23.6h7.6l7.8,23.6h-6.3Zm-7.6-8.6h4.8l-2.4-8-2.4,8Z"/><path class="cls-10" d="m208.49,77.56v-24.7h5.63v24.7h-5.63Z"/><path d="m176.13,35.96l-2.4,3.1,1,1.4-1.6,2.1-6.1-9.3,1.9-2.4,10.5,3.7-1.6,2.1-1.6-.6-.1-.1Zm-2.2-.8l-3.8-1.4,2.3,3.3,1.5-1.9Z"/><path d="m172.8,26.17l1.7-1.4,7,8.4-1.7,1.4-7-8.4Z"/><path d="m184.99,22.36l3.6,6.6-2,1.1-.3-.6c-.11.81-.64,1.49-1.4,1.8-1.33.74-3.01.25-3.75-1.08-.06-.1-.11-.21-.15-.32l-2.2-4,2-1.1,2,3.8c.29.65,1.06.94,1.71.65.03-.01.06-.03.09-.05.67-.32.95-1.12.63-1.79-.04-.07-.08-.15-.13-.21l-2-3.6,2-1.1-.1-.1Z"/><path d="m199.6,21.86l.8,4.5-2.2.4-.8-4.3c-.03-.6-.54-1.05-1.14-1.02-.06,0-.11.01-.16.02-.7.1-1.1.7-.9,1.6l.7,4.2-2.2.4-.8-4.3c-.03-.6-.54-1.05-1.14-1.02-.06,0-.11.01-.16.02-.7.1-1.1.7-.9,1.6l.7,4.2-2.2.4-1.3-7.4,2.2-.4v.7c.41-.67,1.12-1.11,1.9-1.2.76-.23,1.58,0,2.1.6.37-.79,1.13-1.33,2-1.4,1.7-.3,3,.7,3.3,2.6l.2-.2Z"/><path d="m201.9,19.46l2.2.2-.6,7.5-2.2-.2.6-7.5Zm0-2c.08-.75.75-1.29,1.5-1.2.75.08,1.29.75,1.2,1.5s-.75,1.29-1.5,1.2c0,0,0,0,0,0-.72-.05-1.26-.66-1.21-1.38,0-.04,0-.08.01-.12Z"/><path d="m212.9,24.56l-1.2,4.4-2.2-.6,1.1-4.1c.24-.68-.11-1.42-.78-1.66-.04-.01-.08-.03-.12-.04-.69-.26-1.46.08-1.72.76-.04.11-.07.22-.08.34l-1.1,3.9-2.2-.6,2-7.2,2.2.6-.2.7c.67-.47,1.53-.58,2.3-.3,1.49.39,2.38,1.91,2,3.4-.03.1-.06.2-.1.3l.1.1Z"/><path d="m222.49,26.56l-3.8,6.4-1.9-1.2.4-.6c-.77.29-1.63.18-2.3-.3-1.32-.77-1.78-2.46-1.01-3.78.06-.11.13-.22.21-.32l2.4-4,1.9,1.2-2.2,3.7c-.41.5-.34,1.24.16,1.65.07.06.15.11.24.15.63.41,1.48.23,1.89-.4.04-.06.08-.13.11-.2l2.1-3.5,1.9,1.2h-.1Z"/><path d="m230.3,38.86l-3.5,3-1.5-1.7,3.4-2.9c.6-.5.7-1.1.2-1.6-.43-.5-1.18-.55-1.68-.12-.04.04-.08.08-.12.12l-3.2,2.7-1.5-1.7,3.4-2.9c.6-.5.7-1.1.2-1.6-.43-.5-1.18-.55-1.68-.12-.04.04-.08.08-.12.12l-3.2,2.7-1.5-1.7,5.7-4.9,1.5,1.7-.5.4c.76,0,1.49.34,2,.9.54.56.73,1.36.5,2.1.85-.02,1.66.35,2.2,1,1.03,1.19.9,3-.29,4.03-.07.06-.14.11-.21.17l-.1.3Z"/><circle class="cls-1" cx="308.89" cy="56.94" r="45"/><path class="cls-16" d="m278.89,59.24v-.6c.31-.48.83-.78,1.4-.8,1.39-.15,2.46-1.3,2.5-2.7v-.5c.05-.45.46-.77.91-.72.03,0,.06,0,.09.02.46-.01.86.34.9.8-.02.27.02.54.1.8.21,1.11,1.09,1.99,2.2,2.2.7.2.7.1.7-.6v-13.5c-.06-.38.2-.74.58-.8.07-.01.15-.01.22,0h30.63c0,.3-.3.4-.5.6l-7.2,7.2c-.2.17-.36.38-.5.6-.19.4-.11.88.2,1.2.32.33.83.37,1.2.1.21-.11.39-.29.5-.5l8.3-8.3c.29-.27.5-.62.6-1h3.4c0,.3-.3.4-.5.6l-13.3,13.3-.5.5c-.25.29-.25.71,0,1,.16.35.52.55.9.5.33-.05.64-.19.9-.4l14.6-14.6c.29-.21.48-.54.5-.9h1.1c1,0,.9-.1.9.9v28.3q0,.8.8.6c1.27-.35,2.16-1.49,2.2-2.8-.06-.49.29-.94.79-1,.07,0,.14,0,.21,0,.6,0,.9.4,1,1,.05,1.54,1.26,2.8,2.8,2.9.52,0,1,.32,1.2.8v.6c-.22.41-.64.67-1.1.7-1.57.04-2.81,1.33-2.8,2.9-.03.34-.17.65-.4.9-.25.23-.61.27-.9.1-.38-.12-.63-.5-.6-.9-.2-1.6-.9-2.6-2.3-2.9-.7-.2-.7-.1-.7.6v12.6c0,.53-.24.8-.7.8h-21.6c0-.3.3-.4.5-.6l7.5-7.5c.5-.6.6-1.1.1-1.5-.39-.38-1.01-.38-1.4,0l-.1.1-8.7,8.7c-.25.25-.42.56-.5.9h-3.4c0-.3.3-.4.5-.6l13.3-13.3c.2-.17.36-.38.5-.6.24-.39.16-.91-.2-1.2-.31-.33-.83-.35-1.16-.04-.01.01-.03.03-.04.04-.1,0-.2.2-.3.3l-14.63,14.63c-.26.24-.44.55-.5.9h-10.1c-.44.06-.84-.25-.9-.69,0-.07,0-.14,0-.21v-27.53c0-.7,0-.8-.7-.6-1.32.36-2.25,1.54-2.3,2.9.03.52-.36.97-.88,1-.04,0-.08,0-.12,0-.55,0-1-.45-1-1v-.3c-.14-1.41-1.28-2.51-2.7-2.6-.52-.02-.99-.28-1.3-.7l-.2-.1Zm5,.6c.37-.22.68-.53.9-.9-.27-.36-.58-.69-.9-1-.35.25-.65.55-.9.9.25.35.55.65.9.9h0v.1Zm50.9,14.2c-.19-.39-.51-.71-.9-.9-.35.25-.65.55-.9.9l.9.9.9-.9Z"/><path class="cls-15" d="m325.3,43.04c.3-.11.54-.32.7-.6.8-.8,1.6-.6,1.9.5-.04.35-.22.68-.5.9l-14.6,14.6c-.21.28-.55.43-.9.4-.37,0-.71-.19-.9-.5-.2-.3-.2-.7,0-1,.11-.21.29-.39.5-.5l13.3-13.3c.2-.2.4-.3.5-.6v.1Z"/><path class="cls-12" d="m301.49,88.84c-.3.1-.5.4-.8.6-.8.7-1.6.5-1.8-.6.02-.36.21-.69.5-.9l14.6-14.6.3-.3c.36-.25.84-.25,1.2,0,.36.29.44.81.2,1.2-.14.22-.3.43-.5.6l-13.3,13.33c-.2.2-.4.3-.5.6l.1.07Z"/><path class="cls-15" d="m319.2,43.04c.2,0,.4-.2.6-.4,1-1,1.6-.8,2.1.4-.08.39-.29.75-.6,1l-8.3,8.3-.5.5c-.37.27-.88.23-1.2-.1-.38-.25-.49-.77-.24-1.15.01-.02.02-.03.04-.05.11-.24.28-.45.5-.6l7.2-7.2c.2-.2.4-.3.5-.6l-.1-.1Z"/><path class="cls-15" d="m307.49,88.94c-.3.11-.54.32-.7.6-.8.8-1.6.5-1.9-.5.02-.33.21-.63.5-.8l8.7-8.7c.25-.43.8-.58,1.23-.33.06.04.12.08.17.13l.1.1c.39.39.39,1.02,0,1.41-.03.03-.06.06-.1.09l-7.5,7.5c-.2.2-.4.3-.4.6l-.1-.1Z"/><path d="m297.2,26.74c2.03,2.82,1.4,6.75-1.41,8.78-.16.11-.32.22-.49.32-2.98,2.46-7.39,2.05-9.86-.93-2.46-2.98-2.05-7.39.93-9.86.38-.31.79-.58,1.22-.81,1.95-1.32,4.44-1.55,6.6-.6l-1.4,2.7c-1.21-.46-2.57-.27-3.6.5-1.8,1.08-2.37,3.42-1.29,5.22.06.1.12.19.19.28,1.2,1.9,3.5,2.4,5.7,1,1.3-.69,2-2.16,1.7-3.6l-3,1.9-1.5-2.2,5.6-3.7.6,1Z"/><path d="m298.13,19.04l2.8-.7,3.5,13.5-2.8.7-3.5-13.5Z"/><path d="m315.6,21.84l-.2,9.6h-2.9v-1c-.76.77-1.82,1.18-2.9,1.1-2.5,0-4.5-2.3-4.5-5.1-.09-2.62,1.96-4.81,4.58-4.9.04,0,.08,0,.12,0,1.07-.05,2.1.39,2.8,1.2v-.9s3,0,3,0Zm-3,4.7c.1-1.22-.8-2.29-2.01-2.39-.06,0-.13,0-.19,0-1.18-.09-2.21.8-2.3,1.99,0,.1,0,.21,0,.31-.1,1.22.8,2.29,2.01,2.39.06,0,.13,0,.19,0,1.18.09,2.21-.8,2.3-1.99,0-.1,0-.21,0-.31Z"/><path d="m324.3,31.74c-.8,2.1-2.9,2.3-4.8,1.6-1.65-.49-2.86-1.9-3.1-3.6l2.8-.5c-.07.73.39,1.4,1.1,1.6.6.2,1,.2,1.2-.2.4-1-4.2-2.1-3.1-5.2.7-2,2.7-2.3,4.6-1.6,1.45.47,2.53,1.7,2.8,3.2l-2.8.4c.03-.56-.35-1.07-.9-1.2-.5-.2-.8-.1-.9.2-.4,1,4.3,2,3.1,5.3Z"/><path d="m330.99,36.54c-1.3,1.8-3.4,1.4-5.1.2-1.46-.91-2.25-2.6-2-4.3l2.8.3c-.22.72.06,1.5.7,1.9.6.4,1,.4,1.2.1.6-.9-3.5-3.2-1.6-5.8,1.2-1.7,3.3-1.5,4.9-.3,1.27.82,1.97,2.29,1.8,3.8l-2.8-.4c0-.6,0-1.1-.5-1.4s-.8-.3-1,0c-.6.9,3.6,3.1,1.5,5.9h.1Z"/><line class="cls-4" x1="199.7" y1="247.77" x2="200.2" y2="280.55"/><line class="cls-3" x1="199.7" y1="247.77" x2="200.04" y2="269.79"/><polygon class="cls-14" points="192.52 267.71 200.2 280.55 207.48 267.49 192.52 267.71"/><path class="cls-13" d="m214.12,329.84c.56,0,1.12.02,1.68.03.95,0,1.73.78,1.75,1.74.01.88,0,1.76,0,2.63,0,7.43,0,14.85,0,22.28,0,.48-.02.98-.16,1.44-.17.55-.85,1.05-1.43,1.05-6.29,0-12.58,0-18.86,0-.03,0-.06,0-.09-.01,0-1.71,0-3.42,0-5.13,1.31,0,2.62,0,3.93-.01.17,0,.36.04.36-.23.01-.65.06-1.31-.09-1.93-.41-1.67-.89-3.33-1.32-4.99-.12-.45-.24-.9-.4-1.33-.25-.68.22-1.04.63-1.42.68-.62.96-1.4,1.12-2.3.34-1.87-1.24-4.12-3.02-4.69-.06-.1-.14-.15-.25-.09-.09-.02-.18-.04-.27-.06-.04-.06-.09-.07-.16-.04-.17-.02-.35-.05-.52-.07,0-2.27,0-4.54,0-6.81,3.22,0,6.45-.01,9.67-.02.2,0,.4-.02.6-.02,1.15.04,2.31.05,3.46,0,1.13.06,2.26.05,3.39,0Z"/><path class="cls-6" d="m197,353.86c0,1.71,0,3.42,0,5.13-.65,0-1.29.01-1.94.01-5.48,0-10.97-.03-16.45.02-1.44.01-2.19-.77-2.18-2.19.05-8.39.03-16.78,0-25.17,0-1.01.81-1.81,1.77-1.79.56.01,1.12-.01,1.68-.02,1.13.03,2.26.06,3.39-.01,1.15.07,2.3.04,3.45.01.19,0,.37.02.56.02,3.24,0,6.48,0,9.71.01,0,2.27,0,4.54,0,6.81-.36.17-.77.09-1.15.24-1.6.62-2.66,1.7-3.04,3.41-.07.04-.12.08-.03.15-.13,1.41.02,2.7,1.28,3.63.4.29.55.74.39,1.29-.1.34-.23.67-.31,1.01-.22.94-.47,1.88-.72,2.81-.18.69-.4,1.37-.56,2.07-.16.69-.12,1.39-.15,2.09-.01.35.08.47.45.46,1.28-.02,2.56,0,3.84,0Z"/><path class="cls-9" d="m183.27,329.83c-1.13.07-2.26.04-3.39.01,0-3.05-.02-6.1.02-9.15.02-1.41.21-2.81.62-4.18.49-1.65,1.19-3.2,2.14-4.63,1.18-1.79,2.65-3.31,4.4-4.56,1.15-.82,2.36-1.55,3.68-2.01,1.32-.46,2.65-.91,4.07-1.01.8-.06,1.59-.18,2.39-.16,1.99.03,3.92.43,5.78,1.13,1.87.7,3.55,1.72,5.08,2.99,1.32,1.1,2.4,2.4,3.32,3.83.65,1.02,1.17,2.1,1.61,3.23.24.62.41,1.27.62,1.9.2.57.23,1.2.3,1.81.39,3.6.1,7.21.19,10.81-1.13.04-2.26.06-3.39,0,0-2.58-.02-5.15.01-7.73.02-1.48-.17-2.93-.53-4.36-.51-2.01-1.44-3.82-2.8-5.37-1.66-1.9-3.68-3.33-6.11-4.1-1.73-.55-3.48-.72-5.3-.61-1.68.1-3.26.5-4.76,1.2-2.5,1.16-4.46,2.94-5.92,5.29-1.26,2.02-1.94,4.24-2.03,6.59-.11,3.03-.02,6.07-.02,9.11Z"/><path class="cls-5" d="m207.27,329.84c0-2.73.02-5.47,0-8.2-.02-1.45-.22-2.89-.8-4.24-.46-1.07-1.08-2.04-1.85-2.94-1.14-1.33-2.57-2.25-4.18-2.83-1.49-.54-3.05-.72-4.65-.52-.98.12-1.93.35-2.81.73-2.46,1.07-4.27,2.83-5.38,5.29-.52,1.15-.73,2.36-.79,3.61-.15,3.03-.02,6.07-.07,9.1-1.15.02-2.3.05-3.45-.02,0-3.04-.09-6.08.02-9.11.09-2.34.77-4.57,2.03-6.59,1.46-2.34,3.42-4.12,5.92-5.29,1.5-.7,3.08-1.1,4.76-1.2,1.82-.11,3.57.07,5.3.61,2.44.77,4.45,2.2,6.11,4.1,1.36,1.55,2.29,3.36,2.8,5.37.36,1.43.55,2.88.53,4.36-.03,2.58-.01,5.15-.01,7.73-1.15.06-2.31.04-3.46,0Z"/><path class="cls-8" d="m197,353.86c-1.28,0-2.56-.02-3.84,0-.37,0-.46-.11-.45-.46.03-.7-.02-1.41.15-2.09.17-.69.38-1.38.56-2.07.25-.94.5-1.87.72-2.81.08-.34.21-.68.31-1.01.16-.55,0-.99-.39-1.29-1.26-.93-1.41-2.23-1.28-3.63.07-.04.07-.09.03-.15.38-1.7,1.44-2.78,3.04-3.41.38-.15.79-.06,1.15-.24.17.02.35.05.52.07.03.09.08.14.16.04.09.02.18.04.27.06.05.12.15.1.25.09,1.78.57,3.36,2.82,3.02,4.69-.16.9-.45,1.67-1.12,2.3-.41.38-.88.73-.63,1.42.16.43.29.88.4,1.33.43,1.67.91,3.32,1.32,4.99.15.62.1,1.28.09,1.93,0,.28-.19.23-.36.23-1.31,0-2.62,0-3.93.01Z"/><path class="cls-5" d="m198.2,336.96c-.1,0-.2.03-.25-.09.11-.05.19,0,.25.09Z"/><path class="cls-5" d="m197.68,336.81c-.08.1-.12.05-.16-.04.06-.04.12-.02.16.04Z"/><path class="cls-9" d="m192.81,340.34c.04.06.04.12-.03.15-.09-.07-.03-.12.03-.15Z"/><circle class="cls-2" cx="197.15" cy="334.17" r="44.02"/><path class="cls-13" d="m216.12,189.84c.56,0,1.12.02,1.68.03.95,0,1.73.78,1.75,1.74.01.88,0,1.76,0,2.63,0,7.43,0,14.85,0,22.28,0,.48-.02.98-.16,1.44-.17.55-.85,1.05-1.43,1.05-6.29,0-12.58,0-18.86,0-.03,0-.06,0-.09-.01,0-1.71,0-3.42,0-5.13,1.31,0,2.62,0,3.93-.01.17,0,.36.04.36-.23.01-.65.06-1.31-.09-1.93-.41-1.67-.89-3.33-1.32-4.99-.12-.45-.24-.9-.4-1.33-.25-.68.22-1.04.63-1.42.68-.62.96-1.4,1.12-2.3.34-1.87-1.24-4.12-3.02-4.69-.06-.1-.14-.15-.25-.09-.09-.02-.18-.04-.27-.06-.04-.06-.09-.07-.16-.04-.17-.02-.35-.05-.52-.07,0-2.27,0-4.54,0-6.81,3.22,0,6.45-.01,9.67-.02.2,0,.4-.02.6-.02,1.15.04,2.31.05,3.46,0,1.13.06,2.26.05,3.39,0Z"/><path class="cls-6" d="m199,213.86c0,1.71,0,3.42,0,5.13-.65,0-1.29.01-1.94.01-5.48,0-10.97-.03-16.45.02-1.44.01-2.19-.77-2.18-2.19.05-8.39.03-16.78,0-25.17,0-1.01.81-1.81,1.77-1.79.56.01,1.12-.01,1.68-.02,1.13.03,2.26.06,3.39-.01,1.15.07,2.3.04,3.45.01.19,0,.37.02.56.02,3.24,0,6.48,0,9.71.01,0,2.27,0,4.54,0,6.81-.36.17-.77.09-1.15.24-1.6.62-2.66,1.7-3.04,3.41-.07.04-.12.08-.03.15-.13,1.41.02,2.7,1.28,3.63.4.29.55.74.39,1.29-.1.34-.23.67-.31,1.01-.22.94-.47,1.88-.72,2.81-.18.69-.4,1.37-.56,2.07-.16.69-.12,1.39-.15,2.09-.01.35.08.47.45.46,1.28-.02,2.56,0,3.84,0Z"/><path class="cls-9" d="m185.27,189.83c-1.13.07-2.26.04-3.39.01,0-3.05-.02-6.1.02-9.15.02-1.41.21-2.81.62-4.18.49-1.65,1.19-3.2,2.14-4.63,1.18-1.79,2.65-3.31,4.4-4.56,1.15-.82,2.36-1.55,3.68-2.01,1.32-.46,2.65-.91,4.07-1.01.8-.06,1.59-.18,2.39-.16,1.99.03,3.92.43,5.78,1.13,1.87.7,3.55,1.72,5.08,2.99,1.32,1.1,2.4,2.4,3.32,3.83.65,1.02,1.17,2.1,1.61,3.23.24.62.41,1.27.62,1.9.2.57.23,1.2.3,1.81.39,3.6.1,7.21.19,10.81-1.13.04-2.26.06-3.39,0,0-2.58-.02-5.15.01-7.73.02-1.48-.17-2.93-.53-4.36-.51-2.01-1.44-3.82-2.8-5.37-1.66-1.9-3.68-3.33-6.11-4.1-1.73-.55-3.48-.72-5.3-.61-1.68.1-3.26.5-4.76,1.2-2.5,1.16-4.46,2.94-5.92,5.29-1.26,2.02-1.94,4.24-2.03,6.59-.11,3.03-.02,6.07-.02,9.11Z"/><path class="cls-5" d="m209.27,189.84c0-2.73.02-5.47,0-8.2-.02-1.45-.22-2.89-.8-4.24-.46-1.07-1.08-2.04-1.85-2.94-1.14-1.33-2.57-2.25-4.18-2.83-1.49-.54-3.05-.72-4.65-.52-.98.12-1.93.35-2.81.73-2.46,1.07-4.27,2.83-5.38,5.29-.52,1.15-.73,2.36-.79,3.61-.15,3.03-.02,6.07-.07,9.1-1.15.02-2.3.05-3.45-.02,0-3.04-.09-6.08.02-9.11.09-2.34.77-4.57,2.03-6.59,1.46-2.34,3.42-4.12,5.92-5.29,1.5-.7,3.08-1.1,4.76-1.2,1.82-.11,3.57.07,5.3.61,2.44.77,4.45,2.2,6.11,4.1,1.36,1.55,2.29,3.36,2.8,5.37.36,1.43.55,2.88.53,4.36-.03,2.58-.01,5.15-.01,7.73-1.15.06-2.31.04-3.46,0Z"/><path class="cls-8" d="m199,213.86c-1.28,0-2.56-.02-3.84,0-.37,0-.46-.11-.45-.46.03-.7-.02-1.41.15-2.09.17-.69.38-1.38.56-2.07.25-.94.5-1.87.72-2.81.08-.34.21-.68.31-1.01.16-.55,0-.99-.39-1.29-1.26-.93-1.41-2.23-1.28-3.63.07-.04.07-.09.03-.15.38-1.7,1.44-2.78,3.04-3.41.38-.15.79-.06,1.15-.24.17.02.35.05.52.07.03.09.08.14.16.04.09.02.18.04.27.06.05.12.15.1.25.09,1.78.57,3.36,2.82,3.02,4.69-.16.9-.45,1.67-1.12,2.3-.41.38-.88.73-.63,1.42.16.43.29.88.4,1.33.43,1.67.91,3.32,1.32,4.99.15.62.1,1.28.09,1.93,0,.28-.19.23-.36.23-1.31,0-2.62,0-3.93.01Z"/><path class="cls-5" d="m200.2,196.96c-.1,0-.2.03-.25-.09.11-.05.19,0,.25.09Z"/><path class="cls-5" d="m199.68,196.81c-.08.1-.12.05-.16-.04.06-.04.12-.02.16.04Z"/><path class="cls-9" d="m194.81,200.34c.04.06.04.12-.03.15-.09-.07-.03-.12.03-.15Z"/><circle class="cls-2" cx="199.15" cy="194.17" r="44.02"/></svg>