<?xml version="1.0" encoding="UTF-8"?><svg id="Layer_1" xmlns="http://www.w3.org/2000/svg" viewBox="0 0 400 400"><defs><style>.cls-1{stroke:#a5262d;}.cls-1,.cls-2,.cls-3,.cls-4{stroke-width:4px;}.cls-1,.cls-2,.cls-3,.cls-4,.cls-5{stroke-miterlimit:10;}.cls-1,.cls-2,.cls-3,.cls-4,.cls-5,.cls-6{fill:none;}.cls-2{stroke:#000;}.cls-7{fill:#fff;}.cls-8{fill:#535454;}.cls-3{stroke:#0018c6;}.cls-9{fill:#d2febf;}.cls-10{fill:#999afe;}.cls-11{fill:#546e7a;}.cls-4{stroke:#c000e2;}.cls-12{fill:#00f6d5;}.cls-13{fill:#989afe;}.cls-14{fill:#bacce9;}.cls-15{fill:#02f6d5;}.cls-16{fill:#656565;}.cls-17{fill:#c7c7c7;}.cls-18{fill:#bdbdbd;}.cls-19{fill:#03f6d5;}.cls-20{fill:#ecf5fe;}.cls-21{fill:#ffed58;}.cls-5{stroke:#231f20;stroke-width:2px;}.cls-22{fill:#36464e;}.cls-23{fill:#00244d;}.cls-24{fill:#b7b7fe;}.cls-25{fill:#b9cce9;}.cls-26{fill:#979bfd;}.cls-27{fill:#aaa;}.cls-28{fill:#788f9b;}.cls-29{fill:#484645;}.cls-30{fill:#dcdcdc;}.cls-31{fill:#b3b3b3;}.cls-32{fill:#b8b8fd;}.cls-33{fill:#fbd734;}.cls-34{fill:#014767;}.cls-35{fill:#eee;}.cls-36{fill:#d7e1f2;}.cls-37{fill:#231f20;}.cls-38{fill:#00dbe6;}.cls-39{fill:#474847;}</style></defs><line class="cls-7" x1="169.55" y1="255.31" x2="147.45" y2="279.51"/><line class="cls-5" x1="169.55" y1="255.31" x2="154.71" y2="271.56"/><polygon class="cls-37" points="150.66 264.9 147.45 279.51 161.7 274.99 150.66 264.9"/><line class="cls-7" x1="230.45" y1="255.31" x2="252.55" y2="279.51"/><line class="cls-5" x1="230.45" y1="255.31" x2="245.29" y2="271.56"/><polygon class="cls-37" points="238.3 274.99 252.55 279.51 249.34 264.9 238.3 274.99"/><circle class="cls-3" cx="200" cy="207.01" r="45"/><path class="cls-35" d="m193.2,233.81h-8.3c0-.2-.2-.2-.4-.2-.97-.29-1.62-1.19-1.6-2.2v-32.9c.6.8,1.4.8,1.9.1.35-.48.24-1.15-.23-1.5-.19-.14-.43-.21-.67-.2-.44,0-.84.28-1,.7-.26-1.1.23-2.23,1.2-2.8.1,0,.4,0,.4-.3h8.9c-.1.1-.3.1-.5.2-.93.47-1.48,1.46-1.4,2.5v33.9c-.07,1.09.58,2.11,1.6,2.5v.2h.1Z"/><path class="cls-8" d="m195.4,194.51h22.5c1.24.27,2.07,1.44,1.9,2.7v33.8c.18,1.31-.73,2.52-2.03,2.7-.22.03-.45.03-.67,0h-21.7q0-.1-.2-.2c-.79-.26-1.34-.97-1.4-1.8-.1-1.1,0-2.3,0-3.5.1.19.29.3.5.3h22.6c.8,0,.9-.1.9-.9v-28.8c0-.7-.2-.9-.9-.9h-22.4c-.25-.02-.5.05-.7.2-.2-.4,0-.8,0-1.1-.01-.97.53-1.86,1.4-2.3.11,0,.2-.09.2-.2Zm8.7,36.7c.02.89.71,1.63,1.6,1.7.93,0,1.69-.75,1.7-1.68,0,0,0-.01,0-.02-.06-.91-.79-1.64-1.7-1.7-.9-.04-1.66.66-1.7,1.56,0,.05,0,.1,0,.14h.1,0Zm2.2-34.9c0-.3-.2-.5-.6-.5-.33,0-.6.27-.6.6,0,.33.27.6.6.6.29.04.56-.16.6-.45,0-.05,0-.1,0-.15h0v-.1Z"/><path class="cls-30" d="m184.6,194.51c0,.2-.3.2-.4.3-.99.53-1.49,1.68-1.2,2.77-.05.3-.05.6,0,.9-.1.1,0,.3,0,.4v32.5c.02,1,.66,1.87,1.6,2.2.16-.02.32.06.4.2h-2.4c0-.2-.1-.2-.2-.2-.69-.21-1.24-.73-1.5-1.4,0-.11-.09-.2-.2-.2v-35.8c.08,0,.15-.04.2-.1.25-.64.76-1.15,1.4-1.4,0,0,.1,0,.1-.2h2.2v.03Z"/><path class="cls-39" d="m195.4,194.51c0,.2-.1.2-.2.2-.93.36-1.51,1.3-1.4,2.3-.05.36-.05.74,0,1.1-.14.66-.17,1.33-.1,2v28.2c0,1.2-.1,2.3,0,3.5.09.82.63,1.51,1.4,1.8.11,0,.2.09.2.2-.73.07-1.47.03-2.2-.1-1.02-.39-1.67-1.41-1.6-2.5v-33.9c-.08-1.04.47-2.03,1.4-2.5.2,0,.4,0,.5-.2h1.9l.1-.1Z"/><path class="cls-8" d="m183,198.51c-.1-.29-.1-.61,0-.9.16-.42.56-.69,1-.7-.3.9.1,1.5.9,1.6h0c-.5.7-1.3.7-1.9-.1v.1Z"/><path class="cls-16" d="m184.9,198.58h0c-.7-.1-1.1-.7-.9-1.6.59-.02,1.09.44,1.1,1.03,0,.24-.06.47-.2.67v-.1Z"/><path class="cls-16" d="m204,231.21c0-.93.75-1.69,1.68-1.7,0,0,.01,0,.02,0,.93.03,1.67.77,1.7,1.7,0,.93-.75,1.69-1.68,1.7,0,0-.01,0-.02,0-.91-.06-1.64-.79-1.7-1.7Zm2.1,0c.02-.26-.18-.48-.44-.5-.02,0-.04,0-.06,0-.3,0-.6.3-.5.5s.2.5.5.4c.26.02.48-.18.5-.44,0-.02,0-.04,0-.06h0v.1Z"/><path class="cls-16" d="m206.3,196.21c.04.29-.16.56-.45.6-.05,0-.1,0-.15,0-.33,0-.6-.27-.6-.6,0-.33.27-.6.6-.6.4,0,.5.2.6.5v.1Z"/><path class="cls-8" d="m206.2,231.11c.02.26-.18.48-.44.5-.02,0-.04,0-.06,0-.25.02-.47-.15-.5-.4,0-.3.3-.6.5-.5.26-.02.48.18.5.44,0,.02,0,.04,0,.06v-.1Z"/><path d="m165.6,196.01l-.8,2.8,8.4,2.4-.7,2.5-8.4-2.4-.8,2.8-2.4-.7,2.3-8,2.4.7v-.1Z"/><path d="m170.7,188.31l7,4-1.2,2.1-.7-.4c.29.87.18,1.82-.3,2.6-1.38,1.92-4.06,2.35-5.98.96-1.63-1.17-2.22-3.32-1.42-5.16.41-.8,1.13-1.38,2-1.6l-.7-.4,1.2-2.1h.1Zm2.3,4.1c-.8-.56-1.89-.36-2.45.44-.06.08-.11.17-.15.26-.52.85-.26,1.97.59,2.49.07.04.14.08.21.11.8.56,1.89.36,2.45-.44.06-.08.11-.17.15-.26.52-.85.26-1.97-.59-2.49-.07-.04-.14-.08-.21-.11Z"/><path d="m181.8,182.71c1.57,1.55,1.59,4.08.04,5.66-.01.01-.03.03-.04.04-.63.64-1.51.97-2.4.9l.5.5-1.8,1.6-7.6-8.2,1.8-1.6,2.7,2.9c0-.89.41-1.74,1.1-2.3,1.68-1.44,4.2-1.25,5.64.43.02.02.04.05.06.07Zm-1.8,1.6c-.75-.72-1.94-.7-2.66.04-.72.75-.7,1.94.04,2.66.73.71,1.89.71,2.62,0,.75-.61.85-1.72.24-2.46-.07-.09-.15-.17-.24-.24h0Z"/><path d="m179.4,175.41l2.1-1.2,6,10-2.1,1.2-6-10Z"/><path d="m191.6,180.31c.56-.14,1.02-.55,1.2-1.1l2.2.4c-.39,1.29-1.41,2.31-2.7,2.7-2.12.91-4.58-.08-5.49-2.2-.04-.1-.08-.2-.11-.3-.83-2.1.2-4.47,2.3-5.29.1-.04.2-.07.3-.11,2.08-.76,4.37.31,5.13,2.39.03.07.05.14.07.21.11.29.18.59.2.9l-5.4,1.9c.56.62,1.46.78,2.2.4l.1.1Zm.4-3.2c-.4-.7-1.28-.97-2-.6-.82.18-1.35.98-1.2,1.8l3.2-1.1v-.1Z"/><path d="m198.9,174.91l.3,2.8c0,.7.7.7,1.7.5l.2,2.2c-3.1.7-4.1-.2-4.3-2.4l-.3-2.8h-1.3c0,.1-.3-2.2-.3-2.2h1.3c0-.1-.2-1.7-.2-1.7l2.3-1,.2,2.2,1.6-.2.3,2.3-1.6.2.1.1Z"/><path d="m210.1,173.31l1.5.3-.4,2.3-1.5-.3-1,5.6-2.4-.4,1-5.6-1.1-.2.4-2.3,1.1.2c.4-2.2,1.9-3.3,4.4-2.7l-.4,2.3c-.9-.2-1.5,0-1.7.8h.1Z"/><path d="m217.9,175.58l-.9,2.6c-.86-.61-2.05-.41-2.66.45-.1.14-.18.29-.24.45l-1.2,3.4-2.3-.8,2.8-7.5,2.3.8-.5,1.3c.69-.8,1.81-1.08,2.8-.7h-.1Z"/><path d="m226.6,181.11l-4.4,6.7-2-1.3.4-.6c-.87.17-1.76-.01-2.5-.5-1.76-1.28-2.15-3.74-.87-5.5.02-.03.05-.06.07-.1,1.4-2,3.8-2.6,5.5-1.4.77.45,1.28,1.22,1.4,2.1l.4-.6,2,1.3v-.1Zm-4.2,2c.62-.8.49-1.95-.31-2.57-.06-.05-.12-.09-.19-.13-.86-.59-2.04-.37-2.63.49-.03.04-.05.07-.07.11-.62.8-.49,1.95.31,2.57.06.05.12.09.19.13.86.59,2.04.37,2.63-.49.03-.04.05-.07.07-.11h0Z"/><path d="m234.1,195.01l-4,2.9-1.4-1.9,3.8-2.8c.57-.33.77-1.07.44-1.64-.01-.02-.02-.04-.04-.06-.45-.58-1.28-.68-1.85-.23-.05.04-.1.09-.15.13l-3.6,2.7-1.4-1.9,3.8-2.8c.57-.33.77-1.07.44-1.64-.01-.02-.02-.04-.04-.06-.45-.58-1.28-.68-1.85-.23-.05.04-.1.09-.15.13l-3.6,2.7-1.4-1.9,6.5-4.7,1.4,1.87-.6.4c.83.01,1.6.47,2,1.2.55.63.71,1.52.4,2.3.92-.02,1.77.48,2.2,1.3,1.1,1.5.7,3.2-.9,4.4v-.17Z"/><path d="m233.1,202.11c.16.54.52,1,1,1.3l-.5,2.2c-2.59-.39-4.38-2.81-3.99-5.4.39-2.59,2.81-4.38,5.4-3.99,2.59.39,4.38,2.81,3.99,5.4-.25,1.66-1.35,3.06-2.9,3.69-.3,0-.6.2-.9.2l-1.6-5.5c-.67.52-.87,1.44-.5,2.2v-.1Zm3.2.6c.68-.41.97-1.25.7-2-.19-.78-.9-1.33-1.7-1.3l1,3.3Z"/><circle class="cls-4" cx="135.99" cy="331.27" r="45"/><path d="m98.69,322.97l-.6,2.8,8.5,1.8-.5,2.5-8.5-1.8-.6,2.8-2.4-.5,1.7-8.1,2.4.5Z"/><path d="m103.29,314.87l7.2,3.5-1,2.2-.7-.3c.3.7.3,1.6-.2,2.6-.9,1.9-3.3,2.6-5.5,1.6-2.1-1-3.1-3.4-2.1-5.3.5-1,1.1-1.5,1.9-1.7l-.7-.3,1-2.2.1-.1Zm2.6,3.9c-1.1-.5-2.1-.1-2.6.9s-.1,2,.9,2.6c1.1.5,2.1.1,2.6-.9s.1-2-.9-2.6Z"/><path d="m113.99,308.57c1.7,1.6,1.9,4.1.5,5.7-.7.8-1.5,1.1-2.3,1.1l.5.5-1.6,1.8-8.2-7.6,1.6-1.8,2.9,2.7c0-.8.2-1.6.9-2.4,1.4-1.5,4-1.5,5.7,0Zm-1.6,1.8c-.9-.8-2-.7-2.7,0-.8.8-.7,1.9.1,2.7.9.8,2,.7,2.7,0,.8-.8.7-1.9-.1-2.7Z"/><path d="m111.09,301.47l2-1.4,6.7,9.6-2,1.4-6.7-9.6Z"/><path d="m123.59,305.47c.6-.3,1-.7,1.2-1.2l2.2.3c-.3,1.3-1.2,2.3-2.6,2.9-2.5,1.1-4.8,0-5.7-2.1-.9-2.2,0-4.6,2.2-5.6,2.1-.9,4.4,0,5.4,2.3.1.3.2.6.3.9l-5.2,2.2c.6.6,1.4.6,2.2.3Zm.2-3.3c-.6-.8-1.4-.8-2.1-.5-.8.4-1.2,1-1.1,1.9l3.2-1.4Z"/><path d="m130.49,299.57l.5,2.8c.1.7.7.6,1.7.4l.4,2.1c-3,.9-4.1.1-4.5-2.1l-.5-2.8-1.3.2-.4-2.3,1.3-.2-.3-1.5,2.2-1.1.4,2.2,1.6-.3.4,2.3-1.6.3h.1Z"/><path d="m134.09,298.87l6.1.2v2.3l-6.1-.2v-2.3Z"/><path d="m150.59,303.77c-.7,2.3-2.9,3.5-4.9,2.9-1-.3-1.7-.9-2-1.6l-.2.7-2.3-.7,3.3-10.7,2.3.7-1.2,3.8c.7-.4,1.5-.5,2.6-.2,2,.6,3.1,2.9,2.4,5.2v-.1Zm-2.3-.7c.4-1.1-.2-2.1-1.2-2.4-1.1-.3-2,.2-2.4,1.3-.4,1.1.2,2.1,1.2,2.4,1.1.3,2-.2,2.4-1.3Z"/><path d="m151.79,304.37c1.3-2,3.9-2.4,5.9-1.1s2.5,3.9,1.1,5.9c-1.3,2-3.9,2.4-5.9,1.1s-2.5-3.9-1.1-5.9Zm5,3.4c.6-.9.4-2-.5-2.6s-1.9-.4-2.6.5-.4,2,.5,2.6,1.9.4,2.6-.5Z"/><path d="m170.89,312.17l-8.7,7.1-1.5-1.9.6-.5c-.8,0-1.6-.4-2.3-1.2-1.3-1.6-1-4.1.9-5.6,1.8-1.5,4.4-1.3,5.7.3.7.8.9,1.7.7,2.5l3.1-2.5,1.5,1.9v-.1Zm-7.1,2.7c.9-.8,1-1.9.3-2.7-.7-.9-1.8-1-2.7-.2-.9.8-1,1.9-.3,2.7.7.9,1.8,1,2.7.2Z"/><path d="m172.99,323.97l-8.2.6c-2.7.2-4.2-.7-5-2.8l2.1-.9c.4,1,1,1.4,2,1.3l5.8-5.9,1,2.4-3.8,3.6,5.1-.6,1,2.4v-.1Z"/><path d="m177.29,329.87l-11,2-.5-2.5,8.4-1.5-.9-1.9,2-1,1.6,2.7.4,2.2Z"/><path class="cls-23" d="m135.99,318.67h12.4c1.9,0,3.6,1.4,3.6,3.4v34.4c0,1.5-.6,2.6-1.9,3.3-.3.2-.7.2-1,.4h-13.1v-2.4h12.2c.9,0,1.3-.4,1.3-1.2v-34.3c0-.9-.4-1.2-1.3-1.2h-12.2v-2.4Z"/><path class="cls-34" d="m135.99,357.57v2.4h-13.2c-.1-.2-.4-.2-.5-.2-1.3-.5-2.2-1.7-2.2-3.1v-34.4c0-1.5.6-2.7,2-3.3.4-.2.8-.3,1.2-.3h12.7v2.4h-12.2c-.9,0-1.3.3-1.3,1.3v34c0,.9.3,1.3,1.3,1.3h12.2v-.1Z"/><path class="cls-12" d="m135.99,321.07h12.2c.9,0,1.3.4,1.3,1.2v34c0,.9-.4,1.2-1.3,1.2h-12.2v-2.5h3.5c.5,0,1.1-.4,1.1-.9.2-.9-.4-1.6-1.3-1.6h-3.3v-9.8c.8-.1,1.2-.6,1.2-1.4v-4.1c0-.8-.4-1.3-1.2-1.4v-9.8h1.7c.7,0,1.2-.5,1.2-1.2h0c0-.7-.5-1.2-1.2-1.2h-1.7v-2.5h0Zm5.9,18.3v-3.8c0-.5-.2-.9-.6-1.2-.8-.5-1.8,0-1.8,1.1v7.5c0,.5.1,1,.6,1.3.8.5,1.8-.1,1.8-1.2v-3.8.1Zm4.7,0v-1c0-.7-.5-1.2-1.2-1.2h0c-.7,0-1.2.5-1.2,1.1v2.1c0,.7.6,1.2,1.3,1.1.6,0,1.1-.6,1.1-1.2v-1h0v.1Z"/><path class="cls-9" d="m135.99,321.07v2.5h-1.6c-.8,0-1.3.5-1.3,1.2s.6,1.2,1.3,1.2h1.6v9.8h0c-.8,0-1.2.7-1.2,1.5v3.9c0,.8.5,1.5,1.2,1.5h0v9.9h-3.3c-.8,0-1.3.5-1.3,1.2s.6,1.2,1.3,1.2h3.3v2.5h-12.2c-.9,0-1.3-.3-1.3-1.3v-33.8c0-.9.3-1.3,1.3-1.3h12.2Zm-3.6,18.2v-5.9c-.2-.5-.8-.8-1.3-.8s-1,.6-1,1.2v10.9c0,.7.5,1.2,1.2,1.2h0c.7,0,1.2-.6,1.1-1.3v-5.4.1Zm-4.7,0v-2.2c0-.7-.5-1.3-1.2-1.3s-1.2.6-1.2,1.3v4.3c0,.7.5,1.3,1.2,1.3s1.2-.6,1.2-1.3v-2.1Z"/><path class="cls-26" d="m141.89,339.37v3.8c0,1.1-1,1.7-1.8,1.2-.5-.3-.6-.8-.6-1.3v-7.5c0-1.1,1-1.7,1.8-1.1.4.3.6.7.6,1.2v3.8-.1Z"/><path class="cls-38" d="m135.99,352.67h3.3c.9,0,1.5.7,1.3,1.6,0,.4-.6.8-1.1.9h-3.5v-2.4h0v-.1Z"/><path class="cls-13" d="m146.59,339.37v1c0,.7-.6,1.2-1.2,1.2s-1.1-.5-1.2-1.1v-2.1c0-.7.6-1.1,1.2-1.1.7,0,1.2.5,1.2,1.2h0v1-.1Z"/><path class="cls-10" d="m135.99,335.87c.8.1,1.2.6,1.2,1.4v4.1c0,.8-.4,1.3-1.2,1.4h0v-6.9h0Z"/><path class="cls-38" d="m135.99,323.57h1.7c.8,0,1.2.5,1.2,1.2s-.5,1.2-1.2,1.2h-1.7v-2.4h0Z"/><path class="cls-32" d="m132.39,339.27v5.4c0,.7-.5,1.3-1.1,1.3-.7,0-1.2-.5-1.3-1.2h0v-10.9c0-.6.5-1.2,1-1.2.6,0,1.1.2,1.3.8v5.9l.1-.1Z"/><path class="cls-32" d="m127.69,339.37v2.1c0,.7-.5,1.3-1.2,1.3s-1.2-.6-1.2-1.3v-4.3c0-.7.5-1.3,1.2-1.3s1.2.6,1.2,1.3v2.2Z"/><path class="cls-15" d="m135.99,352.67v2.4h-3.3c-.8,0-1.3-.5-1.3-1.2s.6-1.2,1.3-1.2c1.1,0,2.2,0,3.3,0Z"/><path class="cls-24" d="m135.99,335.87v6.9c-.8,0-1.2-.7-1.2-1.5v-3.9c0-.8.5-1.5,1.2-1.5Z"/><path class="cls-19" d="m135.99,323.57v2.4h-1.6c-.8,0-1.3-.6-1.3-1.2s.5-1.2,1.3-1.2h1.6Z"/><path d="m134.29,325.97h5.7v25.9h-6.6v-18.9l-4.5,1.1-1.6-5.6,7-2.5Z"/><path class="cls-33" d="m278.55,327.36c.58,0,1.15.02,1.73.03.98.01,1.78.8,1.79,1.78.01.9,0,1.8,0,2.7,0,7.62,0,15.25,0,22.87,0,.5-.02,1-.17,1.48-.18.57-.87,1.08-1.47,1.08-6.46,0-12.91,0-19.37,0-.03,0-.06,0-.09-.01,0-1.75,0-3.51,0-5.26,1.34,0,2.69,0,4.03-.01.17,0,.37.04.37-.24.01-.66.06-1.34-.1-1.98-.42-1.72-.91-3.42-1.35-5.13-.12-.46-.25-.92-.41-1.37-.26-.7.22-1.07.64-1.45.69-.64.99-1.44,1.15-2.36.35-1.92-1.27-4.23-3.1-4.81-.06-.1-.14-.15-.26-.09-.09-.02-.19-.04-.28-.06-.04-.06-.1-.08-.16-.04-.18-.03-.36-.05-.54-.08,0-2.33,0-4.66,0-6.99,3.31,0,6.62-.01,9.93-.02.21,0,.41-.02.62-.02,1.18.04,2.37.05,3.55,0,1.16.07,2.32.05,3.48,0Z"/><path class="cls-21" d="m260.98,352.03c0,1.75,0,3.51,0,5.26-.66,0-1.33.01-1.99.01-5.63,0-11.26-.03-16.89.02-1.48.01-2.25-.8-2.24-2.25.05-8.61.04-17.23,0-25.84,0-1.03.83-1.86,1.81-1.84.58.01,1.15-.01,1.73-.02,1.16.03,2.32.06,3.48-.01,1.18.07,2.36.04,3.55.02.19,0,.38.02.57.02,3.32,0,6.65,0,9.97.01,0,2.33,0,4.66,0,6.99-.37.18-.79.09-1.18.24-1.64.64-2.73,1.75-3.12,3.5-.07.04-.12.08-.03.16-.13,1.44.02,2.77,1.32,3.73.41.3.57.76.4,1.32-.1.34-.23.68-.32,1.04-.23.97-.49,1.93-.74,2.89-.19.71-.41,1.41-.58,2.12-.17.7-.13,1.43-.15,2.15-.01.36.08.48.46.48,1.31-.02,2.63,0,3.94,0Z"/><path class="cls-28" d="m246.89,327.35c-1.16.07-2.32.04-3.48.01,0-3.13-.03-6.27.02-9.4.02-1.45.22-2.89.64-4.29.51-1.69,1.22-3.28,2.2-4.75,1.22-1.83,2.72-3.4,4.52-4.68,1.18-.84,2.42-1.59,3.78-2.07,1.35-.47,2.72-.94,4.18-1.04.82-.06,1.63-.18,2.46-.17,2.05.04,4.02.44,5.94,1.16,1.92.72,3.64,1.76,5.21,3.07,1.35,1.13,2.46,2.46,3.41,3.94.67,1.05,1.2,2.16,1.65,3.32.25.64.42,1.3.64,1.95.2.58.24,1.23.31,1.85.4,3.69.1,7.4.2,11.1-1.16.04-2.32.06-3.48,0,0-2.65-.02-5.29.01-7.94.02-1.52-.17-3.01-.55-4.48-.52-2.06-1.48-3.92-2.88-5.51-1.71-1.95-3.77-3.42-6.27-4.21-1.77-.56-3.57-.74-5.44-.63-1.72.1-3.35.51-4.89,1.23-2.56,1.19-4.58,3.02-6.07,5.43-1.29,2.07-1.99,4.36-2.08,6.76-.11,3.11-.02,6.24-.02,9.35Z"/><path class="cls-11" d="m271.52,327.36c0-2.81.02-5.61,0-8.42-.02-1.49-.23-2.97-.82-4.35-.47-1.1-1.11-2.1-1.89-3.01-1.17-1.36-2.63-2.31-4.29-2.91-1.53-.55-3.13-.74-4.78-.53-1.01.13-1.98.36-2.89.75-2.52,1.1-4.38,2.91-5.53,5.43-.54,1.18-.75,2.42-.82,3.71-.15,3.11-.02,6.23-.07,9.34-1.18.02-2.36.05-3.55-.02,0-3.12-.09-6.24.02-9.35.09-2.41.79-4.69,2.08-6.76,1.49-2.4,3.51-4.23,6.07-5.43,1.54-.72,3.17-1.13,4.89-1.23,1.86-.11,3.66.07,5.44.63,2.5.8,4.57,2.26,6.27,4.21,1.4,1.59,2.35,3.45,2.88,5.51.37,1.47.56,2.96.55,4.48-.03,2.64-.01,5.29-.01,7.94-1.18.06-2.37.05-3.55,0Z"/><path class="cls-22" d="m260.98,352.03c-1.31,0-2.63-.02-3.94,0-.38,0-.48-.11-.46-.48.03-.72-.02-1.44.15-2.15.17-.71.39-1.42.58-2.12.25-.96.51-1.92.74-2.89.08-.35.21-.69.32-1.04.17-.57,0-1.02-.4-1.32-1.3-.96-1.45-2.29-1.32-3.73.07-.04.07-.1.03-.16.39-1.75,1.48-2.86,3.12-3.5.39-.15.81-.06,1.18-.24.18.03.36.05.54.08.03.09.08.14.16.04.09.02.19.04.28.06.05.12.16.1.26.09,1.83.59,3.45,2.89,3.1,4.81-.17.92-.46,1.72-1.15,2.36-.42.39-.9.75-.64,1.45.16.45.3.9.41,1.37.44,1.71.94,3.41,1.35,5.13.16.64.11,1.32.1,1.98,0,.28-.2.24-.37.24-1.34,0-2.69,0-4.03.01Z"/><path class="cls-11" d="m262.22,334.67c-.1,0-.21.03-.26-.09.12-.06.2,0,.26.09Z"/><path class="cls-11" d="m261.68,334.52c-.08.1-.13.05-.16-.04.07-.04.12-.02.16.04Z"/><path class="cls-28" d="m256.68,338.14c.04.06.04.12-.03.16-.09-.08-.03-.12.03-.16Z"/><circle class="cls-2" cx="261.13" cy="331.81" r="45.19"/><line class="cls-6" x1="154.68" y1="122.47" x2="188.32" y2="149.65"/><line class="cls-5" x1="154.68" y1="122.47" x2="179.96" y2="142.89"/><polygon class="cls-37" points="173.54 147.33 188.32 149.66 182.96 135.7 173.54 147.33"/><line class="cls-6" x1="245.32" y1="122.47" x2="211.68" y2="149.65"/><line class="cls-5" x1="245.32" y1="122.47" x2="220.05" y2="142.89"/><polygon class="cls-37" points="217.05 135.7 211.68 149.65 226.46 147.33 217.05 135.7"/><circle class="cls-1" cx="117.54" cy="68.73" r="45"/><rect class="cls-31" x="91.54" y="58.73" width="52" height="37" rx="2.9" ry="2.9"/><path class="cls-29" d="m118.34,89.04l-1.1-3.4h-8l-1,3.4h-6.5l7.5-23.6h7.6l7.8,23.6h-6.3Zm-7.6-8.6h4.76l-2.4-8-2.36,8Z"/><path class="cls-29" d="m126.04,89.04v-24.71h5.6v24.71h-5.6Z"/><path d="m93.64,47.43l-2.4,3.1,1,1.4-1.6,2.1-6.1-9.3,1.9-2.4,10.5,3.7-1.6,2.1-1.6-.6-.1-.1Zm-2.2-.8l-3.8-1.4,2.3,3.3,1.5-1.9Z"/><path d="m90.34,37.63l1.7-1.4,7,8.4-1.7,1.4-7-8.4Z"/><path d="m102.5,33.83l3.6,6.6-2,1.1-.3-.6c-.11.81-.64,1.49-1.4,1.8-1.33.74-3.01.25-3.75-1.08-.06-.1-.11-.21-.15-.32l-2.2-4,2-1.1,2,3.8c.29.65,1.06.94,1.71.65.03-.01.06-.03.09-.05.67-.32.95-1.12.63-1.79-.04-.07-.08-.15-.13-.21l-2-3.6,2-1.1-.1-.1Z"/><path d="m117.14,33.33l.8,4.5-2.2.4-.8-4.3c-.03-.6-.54-1.05-1.14-1.02-.06,0-.11.01-.16.02-.7.1-1.1.7-.9,1.6l.7,4.2-2.2.4-.8-4.3c-.03-.6-.54-1.05-1.14-1.02-.06,0-.11.01-.16.02-.7.1-1.1.7-.9,1.6l.7,4.2-2.2.4-1.3-7.4,2.2-.4v.7c.41-.67,1.12-1.11,1.9-1.2.76-.23,1.58,0,2.1.6.37-.79,1.13-1.33,2-1.4,1.7-.3,3,.7,3.3,2.6l.2-.2Z"/><path d="m119.44,30.93l2.2.2-.6,7.5-2.2-.2.6-7.5Zm0-2c.08-.75.75-1.29,1.5-1.2.75.08,1.29.75,1.2,1.5s-.75,1.29-1.5,1.2c0,0,0,0,0,0-.72-.05-1.26-.66-1.21-1.38,0-.04,0-.08.01-.12Z"/><path d="m130.44,36.04l-1.2,4.4-2.2-.6,1.1-4.1c.24-.68-.11-1.42-.78-1.66-.04-.01-.08-.03-.12-.04-.69-.26-1.46.08-1.72.76-.04.11-.07.22-.08.34l-1.1,3.9-2.2-.6,2-7.2,2.2.6-.2.7c.67-.47,1.53-.58,2.3-.3,1.49.39,2.38,1.91,2,3.4-.03.1-.06.2-.1.3l.1.1Z"/><path d="m140.04,38.04l-3.8,6.4-1.9-1.2.4-.6c-.77.29-1.63.18-2.3-.3-1.32-.77-1.78-2.46-1.01-3.78.06-.11.13-.22.21-.32l2.4-4,1.9,1.2-2.2,3.7c-.41.5-.34,1.24.16,1.65.07.06.15.11.24.15.63.41,1.48.23,1.89-.4.04-.06.08-.13.11-.2l2.1-3.5,1.9,1.2h-.1Z"/><path d="m147.84,50.33l-3.5,3-1.5-1.7,3.4-2.9c.6-.5.7-1.1.2-1.6-.43-.5-1.18-.55-1.68-.12-.04.04-.08.08-.12.12l-3.2,2.7-1.5-1.7,3.4-2.9c.6-.5.7-1.1.2-1.6-.43-.5-1.18-.55-1.68-.12-.04.04-.08.08-.12.12l-3.2,2.7-1.5-1.7,5.7-4.9,1.5,1.7-.5.4c.76,0,1.49.34,2,.9.54.56.73,1.36.5,2.1.85-.02,1.66.35,2.2,1,1.03,1.19.9,3-.29,4.03-.07.06-.14.11-.21.17l-.1.3Z"/><circle class="cls-1" cx="282.46" cy="71.73" r="45" transform="translate(166.41 339.05) rotate(-80.78)"/><path d="m262.87,42.53c1.57,2.02,1.21,4.92-.8,6.5l-1.6,1.2,2.6,3.3-2.4,1.9-8.3-10.39,3.9-3.1c1.97-1.6,4.87-1.31,6.47.66,0,.01.02.02.03.04l.1-.11Zm-2.4,1.9c-.47-.71-1.43-.9-2.14-.43-.06.04-.11.08-.16.13l-1.6,1.2,2.1,2.7,1.6-1.2c.69-.56.79-1.58.23-2.27,0-.01-.02-.02-.03-.03v-.1Z"/><path d="m263.27,36.83l2.6-1.2,5.8,12.6-2.6,1.2-5.8-12.6Z"/><path d="m280.67,36.33l1.7,9.4-2.8.5-.2-.9c-.58.9-1.53,1.49-2.6,1.6-2.61.37-5.03-1.46-5.4-4.07,0,0,0-.02,0-.03-.62-2.51.92-5.04,3.43-5.66.06-.01.11-.03.17-.04,1.04-.24,2.13-.03,3,.6l-.2-.9,2.8-.5h.1Zm-2,5.2c-.14-1.2-1.22-2.06-2.42-1.93-.06,0-.12.02-.18.03-1.17.14-2,1.2-1.87,2.36.01.11.04.23.07.34.14,1.2,1.22,2.06,2.42,1.93.06,0,.12-.02.18-.03,1.17-.14,2-1.2,1.87-2.36-.01-.11-.04-.23-.07-.34Z"/><path d="m291.17,44.04c-.3,2.2-2.3,2.9-4.3,2.6-1.73-.04-3.25-1.16-3.8-2.8l2.6-1.1c.14.73.76,1.26,1.5,1.3.7,0,1,0,1.1-.5.1-1-4.6-1.1-4.2-4.3.3-2.1,2.1-2.9,4.1-2.6,1.51.13,2.82,1.1,3.4,2.5l-2.6,1c-.16-.54-.64-.94-1.2-1-.5,0-.8,0-.9.4-.1,1.1,4.6,1,4.1,4.4l.2.1Z"/><path d="m296.87,42.04l-1.2,3.1c-.3.8.3,1.1,1.5,1.5l-.9,2.4c-3.6-1-4.2-2.4-3.3-4.9l1.2-3.2-1.4-.5,1-2.6,1.4.5.6-1.7,3,.2-.9,2.5,1.8.7-1,2.6-1.8-.7v.1Z"/><path d="m302.17,41.43l2.4,1.5-4.9,8.2-2.4-1.5,4.9-8.2Zm1.1-2.3c.47-.8,1.5-1.07,2.3-.6.8.47,1.07,1.5.6,2.3-.47.8-1.5,1.07-2.3.6-.8-.45-1.07-1.47-.62-2.26,0-.01.01-.02.02-.04h0Z"/><path d="m303.87,47.93c1.78-2.01,4.86-2.2,6.87-.41.08.07.15.14.23.21,1.3,1.19,1.84,2.99,1.4,4.7l-2.8-.7c.21-.73-.02-1.51-.6-2-.92-.82-2.33-.73-3.15.19-.76.86-.74,2.17.05,3.01.53.59,1.36.79,2.1.5l.8,2.7c-1.7.51-3.54.05-4.8-1.2-2.02-1.89-2.12-5.05-.23-7.07.01-.01.02-.02.03-.03l.1.1Z"/><path class="cls-36" d="m305.84,67.96v.08h-1.6q-.68,0-.68.69v30.31c.02.44-.13.87-.42,1.21-.19.21-.49.24-.68.45h-10.68c0-.09,0-.18,0-.27l-1.28-5.32c-.72-3.12-1.43-6.24-2.15-9.35-1.05-4.55-2.11-9.09-3.16-13.64-.92-4-1.84-7.97-2.75-11.92h15c.23-.04.46.02.63.18v6.2c.02.73.59,1.32,1.32,1.38h3.78c.28,0,.38-.09.38-.37v-1.83c.12,0,.17.11.24.18l2.05,2.02Z"/><path class="cls-25" d="m305.84,99.65c-.39.8-1.26,1.25-2.14,1.1h-1.23c.19-.2.49-.23.68-.45.29-.34.43-.77.41-1.21v-30.35q0-.69.69-.69h1.59v31.6Z"/><path class="cls-18" d="m262.21,60.11v-.9c-.16-.88.29-1.75,1.1-2.12h2c0,.08.04.15.11.19.59.39.91,1.09.81,1.79-.02.37-.02.75,0,1.12h-3.93l-.09-.08Z"/><path class="cls-27" d="m266.21,60.19v-1.12c.11-.7-.21-1.41-.81-1.79-.06-.04-.1-.11-.1-.19h2c.9.4,1.4,1.38,1.2,2.34v.76h-2.29Z"/><path class="cls-20" d="m291.78,100.74h-6.21c0-.06,0-.12,0-.18l-1.83-8-3.17-13.69c-1.07-4.62-2.14-9.24-3.2-13.87-.36-1.61-.73-3.22-1.1-4.83h6.23c.91,4,1.82,7.97,2.74,11.92,1.06,4.55,2.12,9.1,3.17,13.64.72,3.11,1.43,6.22,2.14,9.35.41,1.79.83,3.58,1.24,5.36,0,.1,0,.2-.01.3Z"/><path class="cls-20" d="m298.08,60.38c.14.02.26.1.34.21l5,5,.14.18v1.83c0,.28-.1.37-.37.37h-3.79c-.73-.06-1.29-.65-1.32-1.38v-6.21Z"/><path class="cls-36" d="m276.25,60.2c.37,1.61.74,3.22,1.1,4.83,1.06,4.63,2.13,9.26,3.2,13.87,1.07,4.61,2.13,9.18,3.17,13.69l1.83,8c0,.06,0,.12,0,.18h-14.05v-3c0-.52-.26-.81-.71-.82s-.75.29-.75.82v3h-9.21c-.96.02-1.74-.74-1.76-1.7,0-.01,0-.03,0-.04v-37.1c0-.95.76-1.72,1.71-1.73.02,0,.03,0,.05,0,.45.03.91.03,1.36,0h7.89v3c0,.51.27.81.71.82s.75-.29.75-.82v-3h4.71Zm-4.75,20.32v-1.55c0-.4-.33-.73-.73-.73s-.73.33-.73.73v3c-.05.38.23.73.61.78.05,0,.09,0,.14,0,.39,0,.71-.31.71-.71,0-.02,0-.05,0-.07v-1.45Zm-1.47,6.14v1.55c0,.4.33.73.73.73s.73-.33.73-.73v-3.06c-.03-.41-.35-.73-.76-.75-.38,0-.7.3-.7.68,0,.02,0,.04,0,.06v1.51h0Zm0-12.42v1.51c-.02.41.3.76.71.79.42-.05.74-.4.75-.82v-2.92c0-.54-.26-.83-.74-.82s-.71.29-.72.81,0,1,0,1.46h0Zm0-6.26v1.5c-.04.38.23.72.6.77.04,0,.08,0,.12,0,.39.02.72-.27.74-.65,0-.04,0-.08,0-.13v-2.92c.05-.38-.21-.72-.59-.78-.05,0-.09,0-.14,0-.46,0-.72.28-.72.8v1.41h-.01Zm1.47,25v-1.48c0-.51-.27-.8-.72-.8-.39-.02-.72.27-.74.65,0,.04,0,.08,0,.13v2.91c-.05.38.22.73.6.78.04,0,.08,0,.13,0,.46,0,.71-.29.72-.81s.01-.94.01-1.41v.02Z"/><path class="cls-25" d="m271.5,60.21v3c0,.54-.29.84-.75.83s-.7-.31-.71-.83v-3h1.46Z"/><path class="cls-18" d="m262.29,100.75h3.92v1.18c.1.83-.39,1.63-1.18,1.91h-1.22c-.85.04-1.57-.62-1.61-1.47,0-.05,0-.1,0-.14v-1.41l.09-.07Z"/><path class="cls-27" d="m265.03,103.84c.79-.28,1.28-1.08,1.18-1.91v-1.18h2.29c.04.6.02,1.21-.06,1.81-.12.78-.82,1.34-1.61,1.29h-1.8Z"/><path class="cls-25" d="m270.05,100.74v-3c0-.53.29-.83.75-.82s.71.31.71.82v3h-1.46Z"/><path class="cls-17" d="m262.29,60.19h-.1s0-.06,0-.09l.1.09Z"/><path class="cls-17" d="m262.29,100.75l-.08.08s0-.05,0-.08h.08Z"/><path class="cls-14" d="m271.5,80.52v1.45c0,.4-.33.73-.73.73s-.73-.33-.73-.73v-3c-.04-.38.23-.73.62-.78.03,0,.06,0,.09,0,.39-.02.73.27.75.67,0,.04,0,.08,0,.11v1.55Z"/><path class="cls-25" d="m270.05,86.66v-1.51c-.03-.38.26-.71.64-.74.02,0,.04,0,.06,0,.41.02.73.34.75.75v3.06c.05.4-.24.76-.64.81-.4.05-.76-.24-.81-.64,0-.06,0-.11,0-.17-.01-.53,0-1.04,0-1.56Z"/><path class="cls-25" d="m270.05,74.25v-1.46c0-.52.26-.8.71-.81s.74.28.74.83v2.91c0,.42-.32.77-.74.82-.41-.02-.73-.36-.71-.77,0,0,0-.01,0-.02-.01-.5,0-1.01,0-1.5Z"/><path class="cls-25" d="m270.05,67.98v-1.41c0-.52.26-.8.72-.8.38-.03.71.26.73.64,0,.05,0,.09,0,.14v2.92c.04.38-.23.73-.61.78-.04,0-.08,0-.13,0-.44,0-.7-.28-.72-.77s.01-1,.01-1.5Z"/><path class="cls-25" d="m271.5,92.96v1.41c0,.52-.27.8-.72.81-.39.02-.72-.28-.74-.66,0-.04,0-.08,0-.13v-2.91c-.05-.38.21-.73.59-.78.05,0,.1,0,.15,0,.46,0,.71.29.71.8v1.46Z"/></svg>