<?xml version="1.0" encoding="UTF-8"?><svg id="Layer_1" xmlns="http://www.w3.org/2000/svg" viewBox="0 0 400 400"><defs><style>.cls-1{stroke:#a5262d;}.cls-1,.cls-2,.cls-3{stroke-width:4px;}.cls-1,.cls-2,.cls-3,.cls-4{stroke-miterlimit:10;}.cls-1,.cls-2,.cls-3,.cls-4,.cls-5{fill:none;}.cls-2{stroke:#0018c6;}.cls-6{fill:#cbcbcb;}.cls-7{fill:#f6f6f6;}.cls-8{fill:#f2a745;}.cls-9{fill:#e1e6f5;}.cls-3{stroke:#c000e2;}.cls-10{fill:#4d4d4d;}.cls-11{fill:#e0e0e0;}.cls-12{fill:#6bc048;}.cls-4{stroke:#231f20;stroke-width:2px;}.cls-13{fill:#6eaa50;}.cls-14{fill:#f0f1ef;}.cls-15{fill:#f0f1f0;}.cls-16{fill:#484645;}.cls-17{fill:#93c578;}.cls-18{fill:#f1f1f1;}.cls-19{fill:#edcd67;}.cls-20{fill:#559a38;}.cls-21{fill:#cdcdcd;}.cls-22{fill:#231f20;}.cls-23{fill:#f2f2f2;}.cls-24{fill:#64c7ef;}.cls-25{fill:#edcb61;}</style></defs><line class="cls-4" x1="155.35" y1="118.79" x2="180.63" y2="139.21"/><line class="cls-4" x1="246" y1="118.79" x2="220.73" y2="139.21"/><circle class="cls-1" cx="249.32" cy="65.38" r="45"/><path d="m220.62,46.28c-2.47-2.73-2.26-6.95.47-9.42.11-.1.22-.19.33-.28,1.71-1.54,4.12-2.03,6.3-1.3l-1,2.9c-1.18-.37-2.46-.1-3.4.7-1.6,1.47-1.71,3.96-.25,5.57,1.39,1.52,3.72,1.71,5.35.43.96-.77,1.45-1.98,1.3-3.2l3-.5c.33,2.28-.59,4.57-2.4,6-2.8,2.5-7.09,2.25-9.59-.55-.07-.08-.14-.17-.21-.25l.1-.1Z"/><path d="m233,38.98c-.89-2.61.51-5.45,3.12-6.35,2.61-.89,5.45.51,6.35,3.12.88,2.59-.48,5.41-3.06,6.33-2.6.92-5.46-.44-6.38-3.05,0-.02-.01-.04-.02-.05Zm6.8-2.4c-.3-1.12-1.44-1.78-2.56-1.48-.08.02-.16.05-.24.08-1.07.28-1.71,1.37-1.43,2.44.03.12.08.25.13.36.3,1.12,1.44,1.78,2.56,1.48.08-.02.16-.05.24-.08,1.07-.27,1.72-1.35,1.45-2.43-.03-.13-.08-.25-.13-.37h-.02Z"/><path d="m254.92,35.48c.11,2.65-1.95,4.89-4.6,5-1.07.05-2.1-.39-2.8-1.2v.9h-2.9v-13.4h3v4.7c.72-.77,1.75-1.18,2.8-1.1,2.5-.02,4.5,2.2,4.5,5.1Zm-2.8,0c.09-1.17-.78-2.2-1.95-2.29-.08,0-.17,0-.25,0-1.21-.06-2.24.88-2.3,2.1,0,.07,0,.14,0,.2-.09,1.17.78,2.2,1.95,2.29.08,0,.17,0,.25,0,1.21.06,2.24-.88,2.3-2.1,0-.07,0-.14,0-.2Z"/><path d="m267.92,34.98l-3.4,8.9-2.7-1,.3-.8c-.97.51-2.13.51-3.1,0-2.41-1.06-3.53-3.87-2.5-6.3,1-2.6,3.7-4,6-3.1,1.01.33,1.82,1.1,2.2,2.1l.3-.8,2.7,1h.2Zm-4.3,3.4c.51-1.09.04-2.39-1.05-2.9-.08-.04-.17-.07-.25-.1-1.05-.48-2.29-.02-2.77,1.03-.05.12-.1.24-.13.37-.51,1.09-.04,2.39,1.05,2.9.08.04.17.07.25.1,1.05.48,2.29.01,2.77-1.04.06-.12.1-.25.13-.38v.02Z"/><path d="m273.52,33.48l2.3,1.6-8,11.3-2.3-1.6,8-11.3Z"/><path d="m276.52,45.18l-2.4,2.4c-.6.6-.1,1.1.8,2l-1.8,1.8c-2.9-2.4-2.8-4-.9-5.8l2.4-2.4-1.1-1.1,2-1.9,1.1,1.1,1.3-1.3,2.6,1.4-1.9,1.9,1.4,1.4-2,1.9-1.4-1.4h-.1Z"/><rect class="cls-24" x="222.32" y="55.38" width="52" height="37" rx="2.9" ry="2.9"/><path class="cls-16" d="m239.62,86.18c-3.29.1-6.48-1.17-8.8-3.5-4.67-4.94-4.67-12.66,0-17.6,2.31-2.36,5.5-3.63,8.8-3.5,3.5,0,4.1.5,5.9,1.5,1.77.96,3.26,2.37,4.3,4.1l-5.2,3c-.48-.83-1.17-1.52-2-2-.92-.49-1.96-.73-3-.7-1.72-.07-3.38.59-4.6,1.8-1.18,1.23-1.8,2.9-1.7,4.6-.23,3.31,2.27,6.17,5.58,6.39.24.02.48.02.72,0,1.05.14,2.12-.11,3-.7.85-.45,1.55-1.15,2-2l5.2,3c-1.04,1.73-2.53,3.14-4.3,4.1-1.84,1.01-3.9,1.53-6,1.5h.1Z"/><path class="cls-16" d="m260.32,86.18c-2.39.02-4.7-.92-6.4-2.6-1.74-1.63-2.68-3.92-2.6-6.3-.04-2.37.9-4.65,2.6-6.3,1.7-1.68,4.01-2.62,6.4-2.6,2.4-.04,4.71.9,6.4,2.6,3.47,3.48,3.47,9.12,0,12.6-1.69,1.7-4,2.64-6.4,2.6Zm0-5.4c.91.05,1.79-.32,2.4-1,.63-.68.99-1.57,1-2.5.05-.94-.31-1.86-1-2.5-1.31-1.33-3.45-1.33-4.78-.02,0,0-.01.01-.02.02-.63.68-.99,1.57-1,2.5-.05.94.31,1.86,1,2.5.61.68,1.49,1.05,2.4,1Z"/><circle class="cls-1" cx="150.68" cy="65.38" r="45"/><path d="m133.28,41.36l1.9,2-5.4,5-8.6-9.3,2.1-2,6.7,7.2,3.3-3.1v.2Z"/><path d="m129.68,33.58c-.44-.77-.17-1.76.6-2.2.77-.44,1.76-.17,2.2.6.44.77.17,1.75-.6,2.19-.71.46-1.66.26-2.12-.45-.03-.05-.06-.1-.08-.15Zm1.5,1.9l2.3-1.4,4.6,7.7-2.3,1.4-4.6-7.7Z"/><path d="m140.28,33.98l1.1,3c.3.7.9.6,2,0l.8,2.3c-3.2,1.6-4.5.9-5.4-1.5l-1.1-3-1.4.5-.9-2.4,1.4-.5-.6-1.6,2.3-1.7.9,2.4,1.7-.6.9,2.4-1.7.6v.1Z"/><path d="m153.18,32.78l.5,5.5-2.7.2-.4-5.1c.05-.79-.54-1.47-1.33-1.52-.12,0-.25,0-.37.02-1,0-1.6.7-1.5,2l.4,4.9-2.7.2-1-12.6,2.7-.2.4,4.4c.57-.81,1.51-1.3,2.5-1.3,1.8-.2,3.5,1,3.7,3.4l-.2.1Z"/><path d="m156.18,29.78l2.7.4-1.4,8.9-2.7-.4,1.4-8.9Zm.1-2.4c.14-.91.99-1.54,1.9-1.4.91.14,1.54.99,1.4,1.9-.14.91-.99,1.54-1.9,1.4,0,0,0,0,0,0-.91-.15-1.54-1-1.4-1.92v.02Z"/><path d="m170.08,34.08l-3.5,8.3-2.5-1,.3-.8c-.88.46-1.92.46-2.8,0-1.7-.7-2.6-2.5-1.7-4.7l2.1-5.1,2.5,1-2,4.7c-.39.72-.12,1.62.59,2.01.07.04.14.07.21.09.82.39,1.8.04,2.19-.78.05-.1.09-.21.11-.32l1.9-4.5,2.5,1,.1.1Z"/><path d="m181.08,48.36l-4,3.8-1.9-1.9,3.8-3.7c.6-.43.74-1.27.31-1.87-.03-.05-.07-.09-.11-.13-.6-.6-1.4-.6-2.2.2l-3.7,3.5-1.9-1.9,3.8-3.7c.6-.43.74-1.27.31-1.87-.03-.05-.07-.09-.11-.13-.6-.6-1.4-.6-2.2.2l-3.7,3.5-1.9-1.9,6.5-6.3,1.9,1.9-.6.6c.95-.09,1.88.28,2.5,1,.67.64.97,1.58.8,2.5,1.03-.14,2.06.28,2.7,1.1,1.4,1.52,1.3,3.52-.3,5.1Z"/><rect class="cls-10" x="123.68" y="55.38" width="52" height="37" rx="2.9" ry="2.9"/><path class="cls-23" d="m144.88,79.88h8.12v5.8h-14.2v-23.6h6v17.8h.08Z"/><path class="cls-23" d="m160.08,66.48c-.6.63-1.43.99-2.3,1-.88.02-1.72-.35-2.3-1-.63-.6-.99-1.43-1-2.3-.02-.88.35-1.72,1-2.3.61-.6,1.44-.92,2.3-.9.85,0,1.68.32,2.3.9.63.6.99,1.43,1,2.3.02.88-.35,1.72-1,2.3Zm-5.08,19.2v-16.9h5.6v16.9h-5.6Z"/><line class="cls-5" x1="155.35" y1="118.79" x2="189" y2="145.97"/><polygon class="cls-22" points="174.22 143.65 189 145.98 183.63 132.02 174.22 143.65"/><line class="cls-5" x1="246" y1="118.79" x2="212.35" y2="145.97"/><polygon class="cls-22" points="217.73 132.02 212.35 145.97 227.13 143.65 217.73 132.02"/><circle class="cls-2" cx="200" cy="198.59" r="45"/><path class="cls-7" d="m214.6,186.29c3.8-.3,7.5,3.6,7.4,7.4s0,7.8,0,11.7v21.1c.08.83-.17,1.65-.7,2.3h-10.8c-.94.03-1.88-.03-2.8-.2-6.4-.87-12.31-3.86-16.8-8.5h18c2.8,0,2.9-.1,2.9-2.9v-2.9h4.6c.57.1,1.12-.28,1.22-.85.03-.15.02-.3-.02-.45v-6.7c0-.6-.2-.8-.8-.8h-5.1v-4.2c.13-.81-.43-1.57-1.25-1.7-.15-.02-.3-.02-.45,0h-22.3c-2.1,0-2.4.3-2.4,2.3v10.47l-.2-.2c-1.79-3.89-2.71-8.12-2.7-12.4v-12.6c.8-.8,1.9-.7,3-.7h29.2v-.17Z"/><path class="cls-9" d="m190.8,220.09c2.44,2.69,5.45,4.8,8.8,6.2,2.54,1.16,5.23,1.93,8,2.3.93.12,1.86.18,2.8.2h10.8c-.8,2.3-2.7,3.5-4.9,4.2-.54.22-1.13.29-1.7.2h-29.3c-4.03,0-7.3-3.27-7.3-7.3,0-.03,0-.07,0-.1v-29.1c-.13-1.5-.07-3.02.2-4.5.6-2.3,1.8-4.2,4.2-5v12.6c-.01,4.28.91,8.51,2.7,12.4l.2.2v6c-.13.81.43,1.57,1.25,1.7.15.02.3.02.45,0h3.8Z"/><path class="cls-17" d="m188.3,199.59h17.6c-1,2.4-2,4.7-3,7.1-1.4,3.4-2.9,6.8-4.3,10.2l-.3.4c-.67-.26-1.4-.33-2.1-.2-4.11.2-7.6-2.97-7.8-7.08-.01-.24-.01-.48,0-.72v-9.8l-.1.1Z"/><path class="cls-11" d="m198.5,216.89c1.4-3.4,2.9-6.8,4.3-10.2,1-2.4,2-4.7,3-7.1h4.2c1.2,0,1.7.5,1.7,1.7v15.9h-12.2c-.3,0-.7.1-1-.2v-.1Z"/><path class="cls-13" d="m188.3,199.59v9.77c-.2,4.11,2.97,7.6,7.08,7.8.24.01.48.01.72,0,.7,0,1.5-.2,2.1.2-.3.9-.7,1.8-1,2.7h-10.1c-.81.13-1.57-.43-1.7-1.25-.02-.15-.02-.3,0-.45v-16.5c0-2,.3-2.4,2.4-2.3l.5.03Z"/><path class="cls-21" d="m197.2,219.99c.3-.9.7-1.8,1-2.7.1-.1.2-.3.3-.4.3.3.7.2,1,.2h12.2c0,2.8,0,2.9-2.9,2.9h-11.6Z"/><path class="cls-11" d="m213.2,205.36h3.6c.6,0,.8.2.8.8v6.5c-2.33.1-4.3-1.7-4.41-4.03,0-.16,0-.32,0-.47.05-.93.05-1.87,0-2.8Z"/><path class="cls-21" d="m213.2,205.36v2.8c-.16,2.33,1.6,4.34,3.93,4.49.16.01.32.01.47,0v.2c0,.87-.4,1.3-1.2,1.3h-4.6v-8.8h1.4Z"/><path d="m159.5,196.49l.7-2.4,7.6.3-6.5-4,.5-1.9h7.6l-6.6-3.7.7-2.4,9.3,5.6-.7,2.6h-6.4l5.5,3.3-.7,2.6h-11Z"/><path d="m172.2,175.49l6.1,4.4-1.3,1.8-.6-.4c.17.85-.05,1.73-.6,2.4-1.28,1.63-3.64,1.91-5.27.63-.01,0-.02-.02-.03-.03-1.73-1.09-2.25-3.37-1.16-5.1.02-.03.04-.07.06-.1.46-.69,1.18-1.16,2-1.3l-.6-.4,1.3-1.8.1-.1Zm1.7,4c-.66-.6-1.69-.55-2.29.11-.08.09-.15.19-.21.29-.58.71-.47,1.74.23,2.32.08.07.17.13.27.18.66.6,1.69.55,2.29-.11.08-.09.15-.19.21-.29.58-.71.47-1.74-.23-2.32-.08-.07-.17-.13-.27-.18Z"/><path d="m177.8,173.29l1.8,2c.4.5.9.2,1.6-.5l1.3,1.5c-2,2.2-3.2,2.1-4.6.5l-1.8-2-.9.8-1.4-1.6.9-.8-.9-1.1,1.2-2,1.4,1.6,1.2-1,1.4,1.6-1.2,1Z"/><path d="m180.7,172.79c-1.03-1.96-.27-4.37,1.69-5.4,1.16-.61,2.55-.61,3.71,0l-1.1,2c-.53-.3-1.17-.3-1.7,0-.82.5-1.09,1.57-.6,2.4.44.83,1.47,1.14,2.3.7h0c.57-.26.9-.88.8-1.5h2.3c-.02,1.41-.78,2.7-2,3.4-1.84,1.11-4.24.52-5.35-1.32-.02-.03-.03-.05-.05-.08v-.2Z"/><path d="m195,165.99l1.2,4.4-2.2.6-1.1-4.1c-.08-.66-.68-1.14-1.34-1.06-.09.01-.17.03-.26.06-.8.2-1.2.8-.9,1.9l1.1,3.9-2.2.6-2.8-10.1,2.2-.6,1,3.6c.35-.74,1.01-1.29,1.8-1.5,1.46-.43,3,.41,3.43,1.87.03.11.06.22.07.33v.1Z"/><path d="m209,167.19c-.17,2.06-1.94,3.6-4,3.5-.86-.02-1.65-.47-2.1-1.2v.7l-2.3-.3,1.2-10.4,2.2.3-.4,3.7c.63-.55,1.47-.81,2.3-.7,2,.27,3.4,2.11,3.13,4.1,0,.07-.02.13-.03.2v.1Zm-2.2-.3c.17-.92-.43-1.8-1.35-1.97-.08-.02-.17-.02-.25-.03-.95-.15-1.84.51-1.98,1.46,0,.05-.01.1-.02.14-.17.92.43,1.8,1.35,1.97.08.02.17.02.25.03.95.15,1.84-.51,1.98-1.46,0-.05.01-.1.02-.14Z"/><path d="m219.1,167.29l-2.9,6.9-2.1-.9.3-.6c-.76.35-1.64.35-2.4,0-1.85-.91-2.64-3.12-1.8-5,.69-1.92,2.8-2.92,4.72-2.23.03,0,.05.02.08.03.79.29,1.41.91,1.7,1.7l.3-.6,2.1.9v-.2Zm-3.5,2.6c.42-.9.02-1.97-.88-2.39,0,0-.02,0-.02-.01-.93-.39-2,.05-2.39.98,0,0,0,.01,0,.02-.42.9-.02,1.97.88,2.39,0,0,.02,0,.02.01.93.39,2-.05,2.39-.98,0,0,0-.01,0-.02Z"/><path d="m222.5,172.19l-1.6,2.1c-.4.5,0,.9.9,1.4l-1.2,1.6c-2.5-1.5-2.7-2.7-1.5-4.4l1.6-2.1-1-.7,1.3-1.73,1,.7.8-1.1,2.2.8-1.2,1.7,1.2.9-1.3,1.7-1.2-.87Z"/><path d="m226.8,176.19l-1.9,1.9c-.5.5-.1.9.6,1.6l-1.5,1.4c-2.3-1.9-2.2-3.1-.7-4.6l1.9-1.9-.8-.9,1.5-1.5.8.9,1-1,2.1,1.1-1.5,1.5,1.1,1.1-1.5,1.5-1.1-1.1Z"/><path d="m228.1,183.69c.29.47.76.79,1.3.9v2.1c-1.26-.07-2.4-.79-3-1.9-1.28-1.66-.97-4.05.7-5.33.13-.1.26-.19.4-.27,1.79-1.18,4.19-.69,5.38,1.1.04.07.08.13.12.2,1.13,1.72.66,4.02-1.06,5.15-.08.05-.16.1-.24.15-.25.17-.51.31-.8.4l-2.8-4.5c-.45.63-.45,1.47,0,2.1v-.1Zm3-.3c.5-.55.58-1.36.2-2-.36-.69-1.18-.99-1.9-.7l1.7,2.7Z"/><path d="m237.4,190.09l-2.4.9c-.11-.99-.99-1.7-1.98-1.6-.14.02-.28.05-.42.1l-3.2,1.2-.8-2.1,7.1-2.6.8,2.1-1.3.5c.99.05,1.85.68,2.2,1.6v-.1Z"/><path d="m238.8,199.36l-7.6-1.5c-2.5-.5-3.6-1.7-3.8-3.8l2.1-.3c-.03.87.63,1.62,1.5,1.7l6.7-3.9.3,2.5-4.3,2.3,4.7.8.3,2.4.1-.2Z"/><line class="cls-5" x1="199.69" y1="250.54" x2="200.19" y2="283.32"/><line class="cls-4" x1="199.69" y1="250.54" x2="200.03" y2="272.56"/><polygon class="cls-22" points="192.52 270.48 200.19 283.32 207.48 270.26 192.52 270.48"/><circle class="cls-3" cx="200" cy="334.62" r="45"/><path d="m157.7,336.92l.5-2.6,8.1-.6-7.4-3.4.3-2,8.1-.8-7.4-3.2.5-2.6,10.5,4.9-.5,2.9-6.8.7,6.2,2.9-.5,2.9-11.6,1.2v-.3Z"/><path d="m169,313.22l6.9,4.1-1.2,2.1-.6-.4c.3.8.2,1.6-.4,2.5-1.1,1.8-3.5,2.4-5.6,1.1-2.1-1.2-2.8-3.6-1.7-5.4.5-.9,1.3-1.4,2.1-1.6l-.6-.4,1.2-2.1-.1.1Zm2.2,4.1c-1-.6-2.1-.3-2.6.6-.6,1-.3,2,.7,2.6,1,.6,2.1.3,2.6-.6.6-1,.3-2-.7-2.6Z"/><path d="m174.8,310.42l2,2c.5.5,1,.1,1.6-.7l1.6,1.5c-2,2.5-3.3,2.5-4.9.9l-2-2-.9.9-1.6-1.6.9-.9-1.1-1.1,1.2-2.2,1.6,1.6,1.2-1.2,1.6,1.6-1.2,1.2Z"/><path d="m177.9,309.62c-1.3-2-.8-4.5,1.2-5.9,1.3-.9,2.9-.9,4.1-.3l-1.1,2.2c-.5-.3-1.2-.3-1.8.1-.9.6-1.1,1.6-.5,2.5s1.7,1.1,2.5.5c.6-.4.9-1,.8-1.6l2.4-.2c.1,1.4-.6,2.9-1.9,3.7-2,1.3-4.5.8-5.9-1.2l.2.2Z"/><path d="m192.7,301.52l1.5,4.7-2.3.7-1.4-4.3c-.3-.9-1-1.2-1.8-1-.8.3-1.3,1-.9,2l1.4,4.2-2.3.7-3.5-10.6,2.3-.7,1.2,3.8c.2-.7.9-1.3,1.9-1.6,1.5-.5,3.2.2,3.9,2.2v-.1Z"/><path d="m194.9,300.22l6.1-.3v2.3c.1,0-5.9.3-5.9.3v-2.3h-.2Z"/><path d="m203.7,298.02l2.4.3-1,7.9-2.4-.3,1-7.9Zm0-2.2c.1-.8.8-1.3,1.6-1.2.8,0,1.3.8,1.2,1.6,0,.8-.8,1.3-1.6,1.2s-1.3-.8-1.2-1.6Z"/><path d="m215.1,304.12l-1.6,4.6-2.3-.8,1.5-4.3c.3-.9-.1-1.6-.8-1.8-.8-.3-1.6,0-1.9,1.1l-1.4,4.1-2.3-.8,2.6-7.6,2.3.8-.2.7c.6-.4,1.5-.5,2.5-.2,1.5.5,2.5,2.1,1.7,4.1l-.1.1Z"/><path d="m220,306.22l-1.5,2.4c-.4.6,0,1,1,1.5l-1.2,1.8c-2.8-1.4-3.1-2.7-1.9-4.6l1.5-2.4-1.1-.7,1.2-1.9,1.1.7.8-1.3,2.4.7-1.2,1.9,1.4.9-1.2,1.9-1.4-.9h.1Z"/><path d="m223.1,313.72c.5.5,1,.7,1.5.7l.6,2.1c-1.3.2-2.6-.2-3.6-1.3-1.9-1.9-1.8-4.4-.1-6.1,1.7-1.7,4.2-1.7,6,0,1.6,1.7,1.6,4.2-.1,5.9-.2.2-.5.4-.7.6l-4-4c-.4.8,0,1.5.6,2.2l-.2-.1Zm3.1-1c.5-.8.2-1.6-.3-2.1-.6-.6-1.4-.8-2.1-.3l2.4,2.4Z"/><path d="m234.2,318.32l-2.3,1.4c-.4-.9-1.5-1.9-2.8-1.1l-3.1,1.9-1.3-2,6.8-4.2,1.3,2-1.2.7c1.1-.3,2.1.4,2.6,1.2v.1Z"/><path d="m234.6,328.82l-4.7,1.5-.8-2.3,4.3-1.4c.9-.3,1.2-1.1.9-1.8-.3-.8-1-1.2-2-.9l-4.1,1.4-.8-2.3,7.6-2.5.8,2.3-.7.2c.7.2,1.3.9,1.6,1.9.5,1.5-.2,3.2-2.2,3.9h.1Z"/><path d="m238.4,339.12l-8,.3v-2.4h.7c-.6-.5-1-1.3-1.1-2.4,0-2.1,1.7-3.9,4.1-4,2.4,0,4.3,1.6,4.3,3.7,0,1.1-.3,1.9-.9,2.4h.8v2.4h.1Zm-4.1-2.3c1.2,0,1.9-.9,1.9-2s-.8-1.9-2-1.8c-1.2,0-1.9.9-1.9,2s.8,1.9,2,1.8Z"/><path d="m241.5,342.72l-.4,2.4-11.5-2.1.4-2.4,11.5,2.1Z"/><path class="cls-12" d="m174,358.32v-28.8c0-.5.2-.6.7-.6h4.5v2c0,.5,0,.6.6.6h2.4c.4,0,.5,0,.5-.5v-2.1h3.4v2c0,.5,0,.6.6.6h2.4c.4,0,.5,0,.5-.5v-2.1h3.4v2c0,.5,0,.6.6.6h2.4c.4,0,.5,0,.5-.5v-2.1h7.8v4c0,.4,0,.6-.4.8-1,.6-1.5,1.8-1.2,2.9.4,1.4,1.8,2.2,3.2,1.8,1.4-.4,2.2-1.8,1.8-3.2-.2-.7-.6-1.2-1.2-1.6-.2-.1-.4-.2-.4-.6v-4.1h3.4v8.2c0,.5.2,1,.5,1.3,1.8,1.8,3.6,3.6,5.4,5.4.3.3.3.5.2.8-.5,1.6.8,3.2,2.4,3.3,1.2,0,2.1-.6,2.6-2.1v7.3h-.8c-.6,0-.9.3-.9.9h-3.4v-.3c0-.5,0-.6-.6-.6h-2.4c-.3,0-.5,0-.5.4v2.6c0,.4.1.5.5.4h2.2q.8,0,.8-.9h3.5c0,.6.3.9.9.9h.6c-.2.9-1.3,1.7-2.3,1.7h-10.4c0-1.1-.5-1.9-1.5-2.3-.3-.1-.3-.3-.3-.5v-3.9c0-.7-.3-1-1-1h-8.5v-1.8h10c.4,0,.6,0,.8.4.5,1,1.8,1.5,2.9,1.2,1.4-.4,2.2-1.8,1.8-3.2-.2-.9-1-1.6-1.9-1.8-1.1-.3-2.3.2-2.9,1.2-.2.4-.4.4-.8.4h-10v-1.7h3q1.4,0,1.3-1.4c0-.3-.1-.4-.4-.4h-3.9v-1.8h3q1.4,0,1.3-1.4c0-.3-.1-.4-.4-.4h-3.9v-1.4c0-.3,0-.4-.3-.4h-1.4v-3q0-1.4-1.4-1.3c-.3,0-.4.1-.4.4v4h-1.8v-3q0-1.4-1.4-1.3c-.3,0-.4.1-.4.4v4h-1.8v-3q0-1.4-1.4-1.3c-.3,0-.4.1-.4.4v4h-1.8v-3q0-1.4-1.4-1.3c-.3,0-.4.1-.4.4v4h-1.4c-.3,0-.4,0-.3.4v1.4h-3q-1.4,0-1.3,1.4c0,.3.1.4.4.4h3.9v1.8h-3q-1.4,0-1.3,1.4c0,.3.1.4.4.4h3.9v1.8h-3q-1.4,0-1.3,1.4c0,.3.1.4.4.4h3.9v1.8h-3q-1.4,0-1.3,1.4c0,.3.1.4.4.4h3.9v1.4c0,.3,0,.4.3.4h1.4v4.3h-8.7l.6-.6Z"/><path class="cls-20" d="m174,358.32h28.6c0,.5.2,1,.5,1.5.6.9,1.7,1.3,2.8,1.1,1.2-.3,1.8-1.2,2-2.5h10.4c1.1,0,2.1-.8,2.3-1.7h1.6c.3,0,.4,0,.4-.4v-2.8c0-.3-.1-.4-.4-.4h-1.4v-23.7c0-.5,0-.6.6-.6h4.1c.5,0,.6,0,.6.6v33.5c0,.5-.1.6-.6.6h-4.2c-.3,0-.4,0-.4-.4-.3-1.8-1.7-3.1-3.5-3.1s-3.2,1.3-3.4,3.1c0,.3-.1.4-.4.3h-38.8c-.5,0-.6,0-.6-.6v-4.6l-.2.1Z"/><path class="cls-12" d="m220.8,329.42v15.4c-.7-1.8-1.5-2.2-3.5-1.9-.2,0-.3,0-.5-.2-1.8-1.8-3.5-3.5-5.3-5.3-.2-.1-.3-.3-.3-.6v-8h1.9c.5,0,.7.1.7.6.2,1.3,1,2.2,2.2,2.6,1.8.7,3.7-.3,4.4-2v-.1c0-.2.1-.3.2-.5h.2Z"/><path class="cls-14" d="m211.3,328.92v8c0,.2.1.4.3.6,1.8,1.8,3.5,3.5,5.3,5.3.1.1.2.3.5.2,2-.4,2.8.1,3.5,1.9v1c-.6,1.4-1.4,2.1-2.6,2.1-1.7,0-2.9-1.7-2.4-3.3.1-.4,0-.6-.2-.8-1.8-1.8-3.6-3.6-5.4-5.4-.4-.3-.6-.8-.5-1.3v-8.2h1.8l-.3-.1Zm6.9,17.3c.5,0,.9-.4.9-.8s-.4-.9-.8-.9c-.5,0-.9.4-.9.8h0c0,.5.4.9.8.9Z"/><path class="cls-15" d="m206.1,328.92v4.1c0,.4.2.4.4.6,1.2.7,1.7,2.3,1,3.5s-2.3,1.7-3.5,1c-.6-.3-1-.9-1.2-1.6-.3-1.1.2-2.3,1.2-2.9.4-.2.4-.4.4-.8v-3.9h1.8-.1Zm-.9,6.1c-.5,0-.9.4-.9.9s.4.9.9.9.9-.4.9-.9h0c0-.5-.4-.9-.9-.9h0Z"/><path class="cls-25" d="m179.2,330.62v-3.9c0-.3,0-.4.4-.4h2.2v3.3c0,.6-.3,1-1,1-.5,0-1.1,0-1.6,0Z"/><path class="cls-25" d="m186.2,330.62v-3.9c0-.3,0-.4.4-.4h2.2v3.3c0,.6-.3,1-1,1-.5,0-1.1,0-1.6,0Z"/><path class="cls-25" d="m193.1,330.62v-3.9c0-.3.1-.4.4-.4h2.2v3.3c0,.6-.3,1-1,1-.5,0-1.1,0-1.6,0Z"/><path class="cls-8" d="m186.2,330.62h1.6c.6,0,1-.3,1-1v-3.3h.1c.53,0,.8.23.8.7v4c0,.4-.1.5-.5.5h-2.4c-.5,0-.6-.2-.6-.6,0,0,0-.2,0-.3Z"/><path class="cls-8" d="m179.2,330.62h1.6c.6,0,1-.3,1-1v-3.3h.1c.53,0,.8.23.8.7v4c0,.4-.1.5-.5.5h-2.4c-.5,0-.6-.2-.6-.6v-.3Z"/><path class="cls-8" d="m193.1,330.62h1.6c.6,0,1-.3,1-1v-3.3h.1c.53,0,.8.23.8.7v4c0,.4-.1.5-.5.5h-2.4c-.5,0-.6-.2-.6-.6,0,0,0-.2,0-.3Z"/><path class="cls-20" d="m194.8,338.42h1.4c.3,0,.4,0,.3.4v14.9c0,.3,0,.4-.3.4h-14.9c-.3,0-.4,0-.3-.4v-14.9c0-.3,0-.4.3-.4h13.5Zm-10.4,10.4v1.3c0,.4.1.4.5.4h7.7c.4,0,.5-.1.5-.5v-6.5c0-.5.2-1.2-.1-1.6s-1.1,0-1.6,0h-6.5c-.3,0-.4,0-.4.4v6.5h-.1Z"/><path class="cls-15" d="m196.5,352.22v-1.7h8.5c.7,0,1,.3,1,1v3.9c0,1.3,0,.4.3.5,1,.5,1.4,1.3,1.5,2.3-.1,1.3-.8,2.2-2,2.5-1.1.3-2.2-.1-2.8-1.1-.3-.4-.4-.9-.5-1.5,0-1.1.5-1.9,1.5-2.3.2-.1.3-.3.3-.5v-2.6c0-.5,0-.6-.6-.6h-7.2v.1Zm9.5,6.1c0-.5-.4-.9-.9-.9s-.9.4-.9.9.4.9.9.9h0c.5,0,.8-.4.8-.9h.1Z"/><path class="cls-15" d="m196.5,348.82v-1.7h10c.4,0,.6,0,.8-.4.6-1,1.7-1.5,2.9-1.2,1.4.3,2.2,1.7,1.9,3.1-.2.9-.9,1.6-1.8,1.9-1.2.3-2.4-.2-2.9-1.2-.2-.4-.4-.4-.8-.4h-10l-.1-.1Zm13-1.7c-.5,0-.9.4-.9.9s.4.9.9.9.9-.4.9-.9h0c0-.5-.4-.8-.9-.8h0v-.1Z"/><path class="cls-6" d="m215.6,355.72c0,.6-.27.9-.8.9h-2.2c-.3,0-.5,0-.5-.4v-2.6c0-.4.1-.5.5-.4h2.4c.5,0,.7.1.6.6v2-.1Z"/><path class="cls-6" d="m220.8,353.12h1.4c.3,0,.4,0,.4.4v2.8c0,.3-.1.4-.4.4h-2.2c-.6,0-.9-.3-.9-.9v-1.7c0-.6.3-.9.9-.9h.9l-.1-.1Z"/><path class="cls-18" d="m194.8,338.42h-1.7v-4c0-.3,0-.4.4-.4q1.4,0,1.4,1.3v3l-.1.1Z"/><path class="cls-18" d="m180.9,340.12v1.7h-3.9c-.3,0-.4,0-.4-.4q0-1.4,1.3-1.4h3v.1Z"/><path class="cls-18" d="m196.5,341.82v-1.7h3.9c.3,0,.4,0,.4.4q0,1.4-1.3,1.4h-3v-.1Z"/><path class="cls-18" d="m180.9,343.62v1.7h-3.9c-.3,0-.4,0-.4-.4q0-1.4,1.3-1.4h3v.1Z"/><path class="cls-18" d="m196.5,345.32v-1.7h3.9c.3,0,.4,0,.4.4q0,1.4-1.3,1.4h-3v-.1Z"/><path class="cls-18" d="m180.9,347.12v1.7h-3.9c-.3,0-.4,0-.4-.4q0-1.4,1.3-1.4h3v.1Z"/><path class="cls-18" d="m180.9,350.52v1.7h-3.9c-.3,0-.4,0-.4-.4q0-1.4,1.3-1.4h3v.1Z"/><path class="cls-18" d="m184.4,338.42h-1.7v-4c0-.3,0-.4.4-.4q1.4,0,1.4,1.3v3l-.1.1Z"/><path class="cls-18" d="m187.9,338.42h-1.7v-4c0-.3,0-.4.4-.4q1.4,0,1.4,1.3v3l-.1.1Z"/><path class="cls-18" d="m182.7,354.02h1.7v4.3h-1.7v-4.3Z"/><path class="cls-18" d="m191.3,338.42h-1.7v-4c0-.3,0-.4.4-.4q1.4,0,1.4,1.3v3l-.1.1Z"/><path class="cls-18" d="m219.1,354.02v1.7h-3.5v-1.7h3.5Z"/><path class="cls-12" d="m196.5,352.22h7.2c.5,0,.6.2.6.6v2.6c0,.2,0,.4-.3.5-1,.5-1.4,1.3-1.5,2.3h-7.8v-4.3h1.4c.3,0,.4,0,.3-.4v-1.4l.1.1Z"/><path class="cls-12" d="m184.4,358.32v-4.3h1.8v4.3h-1.8Z"/><path class="cls-18" d="m186.2,358.32v-4.3h1.7v4.3h-1.7Z"/><path class="cls-12" d="m187.9,358.32v-4.3h1.8v4.3h-1.8Z"/><path class="cls-18" d="m189.6,358.32v-4.3h1.7v4.3h-1.7Z"/><path class="cls-18" d="m194.8,354.02v4.3h-1.7v-4.3h1.7Z"/><path class="cls-12" d="m193.1,354.02v4.3h-1.8v-4.3h1.8Z"/><path class="cls-19" d="m218.2,346.22c-.5,0-.9-.4-.9-.9s.4-.9.9-.9.9.4.9.9h0c0,.5-.4.8-.9.8v.1Z"/><path class="cls-19" d="m205.2,334.92c.5,0,.9.4.9.9s-.4.9-.9.9-.9-.4-.9-.9h0c0-.5.4-.9.9-.8h0v-.1Z"/><path class="cls-25" d="m184.4,348.82v-6.5c0-.3,0-.4.4-.4h6.5v4.1c0,1.7-1.1,2.8-2.8,2.8h-4.1Z"/><path class="cls-8" d="m184.4,348.82h4.1c1.7,0,2.8-1.1,2.8-2.8v-4.1c.6,0,1.3-.2,1.6,0s.1,1,.1,1.6v6.5c0,.4-.1.5-.5.5h-7.7c-.3,0-.5,0-.5-.4v-1.3h.1Z"/><path class="cls-19" d="m206.1,358.32c0,.5-.4.9-.8.9-.5,0-.9-.4-.9-.8,0-.5.4-.9.8-.9h0c.5,0,.9.4.9.8Z"/><path class="cls-19" d="m209.5,347.02c.5,0,.9.4.9.9s-.4.9-.9.9-.9-.4-.9-.9h0c0-.5.4-.9.9-.9Z"/></svg>