<?xml version="1.0" encoding="UTF-8"?><svg id="Layer_1" xmlns="http://www.w3.org/2000/svg" viewBox="0 0 400 400"><defs><style>.cls-1{stroke:#a5262d;}.cls-1,.cls-2,.cls-3{stroke-width:4px;}.cls-1,.cls-2,.cls-3,.cls-4{fill:none;stroke-miterlimit:10;}.cls-2{stroke:#000;}.cls-5{fill:#fff;}.cls-3{stroke:#0018c6;}.cls-6{fill:#8ac5cd;}.cls-7{fill:#546e7a;}.cls-8{fill:#ffed58;}.cls-9{fill:#c69c6d;}.cls-4{stroke:#231f20;stroke-width:2px;}.cls-10{fill:#36464e;}.cls-11{fill:#3b566a;}.cls-12{fill:#b2d3d9;}.cls-13{fill:#b3d4da;}.cls-14{fill:#788f9b;}.cls-15{fill:#484645;}.cls-16{fill:#637889;}.cls-17{fill:#88c4cc;}.cls-18{fill:#2f4859;}.cls-19{fill:#304959;}.cls-20{fill:#fbd734;}.cls-21{fill:#231f20;}</style></defs><circle class="cls-1" cx="197.68" cy="200.97" r="45"/><path d="m171.58,185.37l1-3c1.1.5,2.3.6,3.5-.5,1.1-1,1-1.7.7-2.1-.6-.6-1.4-.4-3.4.6-1.9.9-4.1,1.5-5.9-.5-1.8-2-1.1-4.7.7-6.3,1.7-1.5,3.8-1.9,5.9-1l-1,3c-1-.4-1.9-.5-2.9.4-.8.7-.8,1.4-.4,1.8.4.5,1,.6,3-.4,2-.9,4.3-1.9,6.2.3,1.8,2,1.2,4.7-1.1,6.7-2.2,1.9-4.5,2.1-6.5,1.1l.2-.1Z"/><path d="m176.58,169.47c-.4-.9,0-2,.8-2.4.9-.4,2,0,2.4.8.4.9,0,2-.8,2.4-.9.4-2,0-2.4-.8Zm1.5,2.3l2.7-1.4,4.5,8.9-2.7,1.4-4.5-8.9Z"/><path d="m182.38,164.77l2.9-.9,4.5,13.9-2.9.9-4.5-13.9Z"/><path d="m188.98,164.87c-.2-1,.5-1.9,1.5-2.1,1-.2,1.9.5,2.1,1.5.2,1-.5,1.9-1.5,2.1-1,.2-1.9-.5-2.1-1.5Zm.7,2.6l3-.5,1.6,9.9-3,.5-1.6-9.9Z"/><path d="m195.58,171.47c.2-3,2.6-5.1,5.7-4.9,1.9.1,3.6,1.3,4.3,2.9l-2.7,1.3c-.3-.7-1-1.2-1.9-1.3-1.3,0-2.3.8-2.4,2.1-.1,1.4.8,2.4,2.1,2.5.9,0,1.6-.3,2-1l2.5,1.7c-1,1.5-2.7,2.4-4.7,2.2-3-.2-5.1-2.7-4.9-5.7v.2Z"/><path d="m206.48,172.47c1.2-2.7,4.2-4,6.9-2.8,2.7,1.1,4,4.2,2.8,6.9-1.2,2.7-4.2,4-6.9,2.8-2.7-1.1-4-4.2-2.8-6.9Zm7,2.9c.5-1.3,0-2.6-1.2-3.1-1.2-.5-2.5,0-3,1.3-.6,1.3,0,2.6,1.2,3.1,1.2.5,2.5,0,3-1.3Z"/><path d="m225.98,183.57l-4.2,4.5-2.2-2,3.9-4.2c.8-.9.7-1.9,0-2.5-.8-.7-1.8-.8-2.8.3l-3.7,4-2.2-2,6.8-7.4,2.2,2-.6.7c.9-.2,2,.1,2.9,1,1.5,1.4,1.8,3.6,0,5.6h-.1Z"/><rect class="cls-9" x="170.78" y="191.47" width="52" height="37" rx="2.9" ry="2.9"/><path class="cls-15" d="m192.98,222.57c-2.5,0-4.6-.5-6.2-1.6s-2.8-2.5-3.4-4.3l5.2-3c.9,2.1,2.4,3.1,4.7,3.1s2.8-.5,2.8-1.6-.5-1.2-1.6-1.7c-.4-.2-1.4-.5-3-.9-2.2-.6-3.9-1.5-5.1-2.7-1.3-1.1-1.9-2.7-1.9-4.7s.8-4,2.3-5.3c1.6-1.4,3.5-2,5.9-2s3.7.5,5.3,1.4c1.5.9,2.7,2.3,3.5,4l-5.1,3c-.7-1.8-2-2.6-3.7-2.6s-1.3.1-1.6.4c-.4.3-.6.7-.6,1.1s.3,1,.8,1.3c.5.4,1.6.8,3.2,1.3,1.1.4,2,.7,2.8,1,.7.3,1.5.7,2.3,1.2.8.6,1.5,1.3,1.9,2.1.4.9.6,1.9.6,3,0,2.3-.8,4.1-2.5,5.4-1.6,1.3-3.8,2-6.5,2l-.1.1Z"/><path class="cls-15" d="m209.18,202.87c-.6.6-1.4,1-2.3,1s-1.6-.3-2.3-1-1-1.4-1-2.3.3-1.6,1-2.3c.6-.6,1.4-.9,2.3-.9s1.6.3,2.3.9c.6.6,1,1.4,1,2.3s-.3,1.6-1,2.3Zm-5.1,19.2v-16.9h5.6v16.9h-5.6Z"/><line class="cls-4" x1="197.68" y1="266.97" x2="197.68" y2="298.2"/><polygon class="cls-21" points="190.2 296.01 197.68 308.97 205.16 296.01 190.2 296.01"/><line class="cls-5" x1="162.71" y1="256.94" x2="140.45" y2="292.55"/><line class="cls-4" x1="162.71" y1="256.94" x2="146.15" y2="283.43"/><polygon class="cls-21" points="140.97 277.61 140.45 292.55 153.66 285.53 140.97 277.61"/><line class="cls-5" x1="138.36" y1="229.9" x2="100.61" y2="248.31"/><line class="cls-4" x1="138.36" y1="229.9" x2="110.29" y2="243.59"/><polygon class="cls-21" points="108.97 235.91 100.61 248.31 115.53 249.35 108.97 235.91"/><line class="cls-5" x1="132.04" y1="194.07" x2="90.27" y2="189.68"/><line class="cls-4" x1="132.04" y1="194.07" x2="100.98" y2="190.8"/><polygon class="cls-21" points="103.94 183.59 90.27 189.68 102.37 198.47 103.94 183.59"/><line class="cls-5" x1="145.67" y1="160.33" x2="112.58" y2="134.47"/><line class="cls-4" x1="145.67" y1="160.33" x2="121.06" y2="141.1"/><polygon class="cls-21" points="127.39 136.55 112.58 134.47 118.18 148.34 127.39 136.55"/><line class="cls-5" x1="175.11" y1="138.95" x2="160.74" y2="99.48"/><line class="cls-4" x1="175.11" y1="138.95" x2="164.42" y2="109.59"/><polygon class="cls-21" points="172.2 109.09 160.74 99.48 158.14 114.21 172.2 109.09"/><line class="cls-5" x1="211.4" y1="136.41" x2="220.14" y2="95.33"/><line class="cls-4" x1="211.4" y1="136.41" x2="217.9" y2="105.85"/><polygon class="cls-21" points="224.76 109.55 220.14 95.33 210.13 106.44 224.76 109.55"/><line class="cls-5" x1="243.53" y1="153.49" x2="272.7" y2="123.28"/><line class="cls-4" x1="243.53" y1="153.49" x2="265.23" y2="131.02"/><polygon class="cls-21" points="269.09 137.79 272.7 123.28 258.33 127.4 269.09 137.79"/><line class="cls-5" x1="261.72" y1="185" x2="302.47" y2="174.84"/><line class="cls-4" x1="261.72" y1="185" x2="292.03" y2="177.44"/><polygon class="cls-21" points="291.71 185.23 302.47 174.84 288.1 170.71 291.71 185.23"/><line class="cls-5" x1="260.45" y1="221.36" x2="300.39" y2="234.34"/><line class="cls-4" x1="260.45" y1="221.36" x2="290.16" y2="231.01"/><polygon class="cls-21" points="285.77 237.45 300.39 234.34 290.39 223.22 285.77 237.45"/><line class="cls-5" x1="240.11" y1="251.52" x2="267.1" y2="283.7"/><line class="cls-4" x1="240.11" y1="251.52" x2="260.18" y2="275.45"/><polygon class="cls-21" points="253.05 278.58 267.1 283.7 264.51 268.97 253.05 278.58"/><path class="cls-20" d="m61.18,177.76c.5,0,.99.02,1.49.02.84,0,1.54.69,1.55,1.54,0,.78,0,1.56,0,2.33,0,6.58,0,13.16,0,19.75,0,.43-.02.86-.15,1.28-.15.49-.75.93-1.27.93-5.57,0-11.15,0-16.72,0-.03,0-.05,0-.08,0,0-1.51,0-3.03,0-4.54,1.16,0,2.32,0,3.48-.01.15,0,.32.04.32-.21,0-.57.05-1.16-.08-1.71-.36-1.48-.79-2.95-1.17-4.43-.1-.4-.22-.79-.36-1.18-.22-.61.19-.92.56-1.25.6-.55.85-1.24.99-2.03.3-1.66-1.1-3.65-2.68-4.16-.05-.09-.12-.13-.22-.08-.08-.02-.16-.04-.24-.05-.04-.05-.08-.07-.14-.03-.15-.02-.31-.04-.46-.07,0-2.01,0-4.03,0-6.04,2.86,0,5.71,0,8.57-.02.18,0,.36-.01.53-.02,1.02.03,2.04.05,3.07,0,1,.06,2,.04,3.01,0Z"/><path class="cls-8" d="m46,199.05c0,1.51,0,3.03,0,4.54-.57,0-1.15.01-1.72.01-4.86,0-9.72-.02-14.58.02-1.28.01-1.94-.69-1.94-1.94.04-7.44.03-14.88,0-22.32,0-.89.72-1.6,1.57-1.59.5,0,.99-.01,1.49-.02,1,.03,2,.05,3-.01,1.02.06,2.04.03,3.06.01.17,0,.33.02.5.02,2.87,0,5.74,0,8.61.01,0,2.01,0,4.03,0,6.04-.32.15-.68.08-1.02.21-1.42.55-2.36,1.51-2.7,3.02-.06.03-.11.07-.03.14-.11,1.25.02,2.39,1.14,3.22.35.26.49.65.35,1.14-.09.3-.2.59-.27.9-.2.84-.42,1.66-.64,2.49-.16.61-.35,1.22-.5,1.83-.15.61-.11,1.23-.13,1.85-.01.31.07.42.4.41,1.14-.02,2.27,0,3.41,0Z"/><path class="cls-14" d="m33.83,177.75c-1,.06-2,.04-3,.01,0-2.7-.02-5.41.02-8.11.02-1.25.19-2.49.55-3.71.44-1.46,1.06-2.83,1.9-4.1,1.05-1.58,2.35-2.94,3.9-4.05,1.02-.73,2.09-1.38,3.27-1.78,1.17-.41,2.35-.81,3.61-.9.71-.05,1.41-.16,2.12-.14,1.77.03,3.47.38,5.13,1,1.65.62,3.14,1.52,4.5,2.65,1.17.97,2.13,2.12,2.94,3.4.58.9,1.03,1.86,1.42,2.87.21.55.36,1.12.55,1.68.17.51.21,1.06.27,1.6.35,3.19.08,6.39.17,9.58-1,.04-2,.05-3,0,0-2.28-.02-4.57.01-6.85.02-1.31-.15-2.6-.47-3.87-.45-1.78-1.28-3.39-2.48-4.76-1.47-1.68-3.26-2.95-5.42-3.64-1.53-.49-3.08-.64-4.69-.54-1.49.09-2.89.44-4.22,1.06-2.21,1.03-3.95,2.61-5.24,4.69-1.11,1.79-1.72,3.76-1.8,5.84-.1,2.69-.02,5.38-.02,8.08Z"/><path class="cls-7" d="m55.11,177.76c0-2.42.02-4.85,0-7.27-.01-1.29-.19-2.56-.71-3.76-.41-.95-.96-1.81-1.64-2.6-1.01-1.18-2.27-1.99-3.7-2.51-1.32-.48-2.7-.64-4.13-.46-.87.11-1.71.31-2.49.65-2.18.95-3.78,2.51-4.77,4.69-.46,1.02-.65,2.09-.7,3.2-.13,2.69-.02,5.38-.06,8.06-1.02.02-2.04.04-3.06-.01,0-2.69-.08-5.39.02-8.08.08-2.08.68-4.05,1.8-5.84,1.29-2.08,3.03-3.66,5.24-4.69,1.33-.62,2.73-.97,4.22-1.06,1.61-.09,3.16.06,4.69.54,2.16.69,3.94,1.95,5.42,3.64,1.2,1.38,2.03,2.98,2.48,4.76.32,1.27.49,2.55.47,3.87-.03,2.28-.01,4.57-.01,6.85-1.02.05-2.04.04-3.07,0Z"/><path class="cls-10" d="m46,199.05c-1.14,0-2.27-.02-3.41,0-.33,0-.41-.1-.4-.41.02-.62-.01-1.25.13-1.85.15-.62.34-1.22.5-1.83.22-.83.44-1.66.64-2.49.07-.31.18-.6.27-.9.14-.49,0-.88-.35-1.14-1.12-.83-1.25-1.97-1.14-3.22.06-.03.06-.08.03-.14.34-1.51,1.28-2.47,2.7-3.02.34-.13.7-.05,1.02-.21.15.02.31.04.46.07.03.08.07.12.14.03.08.02.16.04.24.05.04.11.14.08.22.08,1.58.51,2.98,2.5,2.68,4.16-.14.79-.4,1.48-.99,2.03-.36.33-.78.65-.56,1.25.14.39.25.78.36,1.18.38,1.48.81,2.94,1.17,4.43.13.55.09,1.14.08,1.71,0,.25-.17.21-.32.21-1.16,0-2.32,0-3.48.01Z"/><path class="cls-7" d="m47.07,184.07c-.09,0-.18.03-.22-.08.1-.05.17,0,.22.08Z"/><path class="cls-7" d="m46.6,183.94c-.07.09-.11.05-.14-.03.06-.03.1-.02.14.03Z"/><path class="cls-14" d="m42.28,187.06c.03.06.03.1-.03.14-.08-.07-.03-.1.03-.14Z"/><circle class="cls-2" cx="46.13" cy="181.6" r="39.02"/><path class="cls-20" d="m161.18,50.76c.5,0,.99.02,1.49.02.84,0,1.54.69,1.55,1.54,0,.78,0,1.56,0,2.33,0,6.58,0,13.16,0,19.75,0,.43-.02.86-.15,1.28-.15.49-.75.93-1.27.93-5.57,0-11.15,0-16.72,0-.03,0-.05,0-.08,0,0-1.51,0-3.03,0-4.54,1.16,0,2.32,0,3.48-.01.15,0,.32.04.32-.21,0-.57.05-1.16-.08-1.71-.36-1.48-.79-2.95-1.17-4.43-.1-.4-.22-.79-.36-1.18-.22-.61.19-.92.56-1.25.6-.55.85-1.24.99-2.03.3-1.66-1.1-3.65-2.68-4.16-.05-.09-.12-.13-.22-.08-.08-.02-.16-.04-.24-.05-.04-.05-.08-.07-.14-.03-.15-.02-.31-.04-.46-.07,0-2.01,0-4.03,0-6.04,2.86,0,5.71,0,8.57-.02.18,0,.36-.01.53-.02,1.02.03,2.04.05,3.07,0,1,.06,2,.04,3.01,0Z"/><path class="cls-8" d="m146,72.05c0,1.51,0,3.03,0,4.54-.57,0-1.15.01-1.72.01-4.86,0-9.72-.02-14.58.02-1.28.01-1.94-.69-1.94-1.94.04-7.44.03-14.88,0-22.32,0-.89.72-1.6,1.57-1.59.5,0,.99-.01,1.49-.02,1,.03,2,.05,3-.01,1.02.06,2.04.03,3.06.01.17,0,.33.02.5.02,2.87,0,5.74,0,8.61.01,0,2.01,0,4.03,0,6.04-.32.15-.68.08-1.02.21-1.42.55-2.36,1.51-2.7,3.02-.06.03-.11.07-.03.14-.11,1.25.02,2.39,1.14,3.22.35.26.49.65.35,1.14-.09.3-.2.59-.27.9-.2.84-.42,1.66-.64,2.49-.16.61-.35,1.22-.5,1.83-.15.61-.11,1.23-.13,1.85-.01.31.07.42.4.41,1.14-.02,2.27,0,3.41,0Z"/><path class="cls-14" d="m133.83,50.75c-1,.06-2,.04-3,.01,0-2.7-.02-5.41.02-8.11.02-1.25.19-2.49.55-3.71.44-1.46,1.06-2.83,1.9-4.1,1.05-1.58,2.35-2.94,3.9-4.05,1.02-.73,2.09-1.38,3.27-1.78,1.17-.41,2.35-.81,3.61-.9.71-.05,1.41-.16,2.12-.14,1.77.03,3.47.38,5.13,1,1.65.62,3.14,1.52,4.5,2.65,1.17.97,2.13,2.12,2.94,3.4.58.9,1.03,1.86,1.42,2.87.21.55.36,1.12.55,1.68.17.51.21,1.06.27,1.6.35,3.19.08,6.39.17,9.58-1,.04-2,.05-3,0,0-2.28-.02-4.57.01-6.85.02-1.31-.15-2.6-.47-3.87-.45-1.78-1.28-3.39-2.48-4.76-1.47-1.68-3.26-2.95-5.42-3.64-1.53-.49-3.08-.64-4.69-.54-1.49.09-2.89.44-4.22,1.06-2.21,1.03-3.95,2.61-5.24,4.69-1.11,1.79-1.72,3.76-1.8,5.84-.1,2.69-.02,5.38-.02,8.08Z"/><path class="cls-7" d="m155.11,50.76c0-2.42.02-4.85,0-7.27-.01-1.29-.19-2.56-.71-3.76-.41-.95-.96-1.81-1.64-2.6-1.01-1.18-2.27-1.99-3.7-2.51-1.32-.48-2.7-.64-4.13-.46-.87.11-1.71.31-2.49.65-2.18.95-3.78,2.51-4.77,4.69-.46,1.02-.65,2.09-.7,3.2-.13,2.69-.02,5.38-.06,8.06-1.02.02-2.04.04-3.06-.01,0-2.69-.08-5.39.02-8.08.08-2.08.68-4.05,1.8-5.84,1.29-2.08,3.03-3.66,5.24-4.69,1.33-.62,2.73-.97,4.22-1.06,1.61-.09,3.16.06,4.69.54,2.16.69,3.94,1.95,5.42,3.64,1.2,1.38,2.03,2.98,2.48,4.76.32,1.27.49,2.55.47,3.87-.03,2.28-.01,4.57-.01,6.85-1.02.05-2.04.04-3.07,0Z"/><path class="cls-10" d="m146,72.05c-1.14,0-2.27-.02-3.41,0-.33,0-.41-.1-.4-.41.02-.62-.01-1.25.13-1.85.15-.62.34-1.22.5-1.83.22-.83.44-1.66.64-2.49.07-.31.18-.6.27-.9.14-.49,0-.88-.35-1.14-1.12-.83-1.25-1.97-1.14-3.22.06-.03.06-.08.03-.14.34-1.51,1.28-2.47,2.7-3.02.34-.13.7-.05,1.02-.21.15.02.31.04.46.07.03.08.07.12.14.03.08.02.16.04.24.05.04.11.14.08.22.08,1.58.51,2.98,2.5,2.68,4.16-.14.79-.4,1.48-.99,2.03-.36.33-.78.65-.56,1.25.14.39.25.78.36,1.18.38,1.48.81,2.94,1.17,4.43.13.55.09,1.14.08,1.71,0,.25-.17.21-.32.21-1.16,0-2.32,0-3.48.01Z"/><path class="cls-7" d="m147.07,57.07c-.09,0-.18.03-.22-.08.1-.05.17,0,.22.08Z"/><path class="cls-7" d="m146.6,56.94c-.07.09-.11.05-.14-.03.06-.03.1-.02.14.03Z"/><path class="cls-14" d="m142.28,60.06c.03.06.03.1-.03.14-.08-.07-.03-.1.03-.14Z"/><circle class="cls-2" cx="146.13" cy="54.6" r="39.02"/><path class="cls-20" d="m87.18,92.76c.5,0,.99.02,1.49.02.84,0,1.54.69,1.55,1.54,0,.78,0,1.56,0,2.33,0,6.58,0,13.16,0,19.75,0,.43-.02.86-.15,1.28-.15.49-.75.93-1.27.93-5.57,0-11.15,0-16.72,0-.03,0-.05,0-.08,0,0-1.51,0-3.03,0-4.54,1.16,0,2.32,0,3.48-.01.15,0,.32.04.32-.21,0-.57.05-1.16-.08-1.71-.36-1.48-.79-2.95-1.17-4.43-.1-.4-.22-.79-.36-1.18-.22-.61.19-.92.56-1.25.6-.55.85-1.24.99-2.03.3-1.66-1.1-3.65-2.68-4.16-.05-.09-.12-.13-.22-.08-.08-.02-.16-.04-.24-.05-.04-.05-.08-.07-.14-.03-.15-.02-.31-.04-.46-.07,0-2.01,0-4.03,0-6.04,2.86,0,5.71,0,8.57-.02.18,0,.36-.01.53-.02,1.02.03,2.04.05,3.07,0,1,.06,2,.04,3.01,0Z"/><path class="cls-8" d="m72,114.05c0,1.51,0,3.03,0,4.54-.57,0-1.15.01-1.72.01-4.86,0-9.72-.02-14.58.02-1.28.01-1.94-.69-1.94-1.94.04-7.44.03-14.88,0-22.32,0-.89.72-1.6,1.57-1.59.5,0,.99-.01,1.49-.02,1,.03,2,.05,3-.01,1.02.06,2.04.03,3.06.01.17,0,.33.02.5.02,2.87,0,5.74,0,8.61.01,0,2.01,0,4.03,0,6.04-.32.15-.68.08-1.02.21-1.42.55-2.36,1.51-2.7,3.02-.06.03-.11.07-.03.14-.11,1.25.02,2.39,1.14,3.22.35.26.49.65.35,1.14-.09.3-.2.59-.27.9-.2.84-.42,1.66-.64,2.49-.16.61-.35,1.22-.5,1.83-.15.61-.11,1.23-.13,1.85-.01.31.07.42.4.41,1.14-.02,2.27,0,3.41,0Z"/><path class="cls-14" d="m59.83,92.75c-1,.06-2,.04-3,.01,0-2.7-.02-5.41.02-8.11.02-1.25.19-2.49.55-3.71.44-1.46,1.06-2.83,1.9-4.1,1.05-1.58,2.35-2.94,3.9-4.05,1.02-.73,2.09-1.38,3.27-1.78,1.17-.41,2.35-.81,3.61-.9.71-.05,1.41-.16,2.12-.14,1.77.03,3.47.38,5.13,1,1.65.62,3.14,1.52,4.5,2.65,1.17.97,2.13,2.12,2.94,3.4.58.9,1.03,1.86,1.42,2.87.21.55.36,1.12.55,1.68.17.51.21,1.06.27,1.6.35,3.19.08,6.39.17,9.58-1,.04-2,.05-3,0,0-2.28-.02-4.57.01-6.85.02-1.31-.15-2.6-.47-3.87-.45-1.78-1.28-3.39-2.48-4.76-1.47-1.68-3.26-2.95-5.42-3.64-1.53-.49-3.08-.64-4.69-.54-1.49.09-2.89.44-4.22,1.06-2.21,1.03-3.95,2.61-5.24,4.69-1.11,1.79-1.72,3.76-1.8,5.84-.1,2.69-.02,5.38-.02,8.08Z"/><path class="cls-7" d="m81.11,92.76c0-2.42.02-4.85,0-7.27-.01-1.29-.19-2.56-.71-3.76-.41-.95-.96-1.81-1.64-2.6-1.01-1.18-2.27-1.99-3.7-2.51-1.32-.48-2.7-.64-4.13-.46-.87.11-1.71.31-2.49.65-2.18.95-3.78,2.51-4.77,4.69-.46,1.02-.65,2.09-.7,3.2-.13,2.69-.02,5.38-.06,8.06-1.02.02-2.04.04-3.06-.01,0-2.69-.08-5.39.02-8.08.08-2.08.68-4.05,1.8-5.84,1.29-2.08,3.03-3.66,5.24-4.69,1.33-.62,2.73-.97,4.22-1.06,1.61-.09,3.16.06,4.69.54,2.16.69,3.94,1.95,5.42,3.64,1.2,1.38,2.03,2.98,2.48,4.76.32,1.27.49,2.55.47,3.87-.03,2.28-.01,4.57-.01,6.85-1.02.05-2.04.04-3.07,0Z"/><path class="cls-10" d="m72,114.05c-1.14,0-2.27-.02-3.41,0-.33,0-.41-.1-.4-.41.02-.62-.01-1.25.13-1.85.15-.62.34-1.22.5-1.83.22-.83.44-1.66.64-2.49.07-.31.18-.6.27-.9.14-.49,0-.88-.35-1.14-1.12-.83-1.25-1.97-1.14-3.22.06-.03.06-.08.03-.14.34-1.51,1.28-2.47,2.7-3.02.34-.13.7-.05,1.02-.21.15.02.31.04.46.07.03.08.07.12.14.03.08.02.16.04.24.05.04.11.14.08.22.08,1.58.51,2.98,2.5,2.68,4.16-.14.79-.4,1.48-.99,2.03-.36.33-.78.65-.56,1.25.14.39.25.78.36,1.18.38,1.48.81,2.94,1.17,4.43.13.55.09,1.14.08,1.71,0,.25-.17.21-.32.21-1.16,0-2.32,0-3.48.01Z"/><path class="cls-7" d="m73.07,99.07c-.09,0-.18.03-.22-.08.1-.05.17,0,.22.08Z"/><path class="cls-7" d="m72.6,98.94c-.07.09-.11.05-.14-.03.06-.03.1-.02.14.03Z"/><path class="cls-14" d="m68.28,102.06c.03.06.03.1-.03.14-.08-.07-.03-.1.03-.14Z"/><circle class="cls-2" cx="72.13" cy="96.6" r="39.02"/><path class="cls-20" d="m258.18,46.76c.5,0,.99.02,1.49.02.84,0,1.54.69,1.55,1.54,0,.78,0,1.56,0,2.33,0,6.58,0,13.16,0,19.75,0,.43-.02.86-.15,1.28-.15.49-.75.93-1.27.93-5.57,0-11.15,0-16.72,0-.03,0-.05,0-.08,0,0-1.51,0-3.03,0-4.54,1.16,0,2.32,0,3.48-.01.15,0,.32.04.32-.21,0-.57.05-1.16-.08-1.71-.36-1.48-.79-2.95-1.17-4.43-.1-.4-.22-.79-.36-1.18-.22-.61.19-.92.56-1.25.6-.55.85-1.24.99-2.03.3-1.66-1.1-3.65-2.68-4.16-.05-.09-.12-.13-.22-.08-.08-.02-.16-.04-.24-.05-.04-.05-.08-.07-.14-.03-.15-.02-.31-.04-.46-.07,0-2.01,0-4.03,0-6.04,2.86,0,5.71,0,8.57-.02.18,0,.36-.01.53-.02,1.02.03,2.04.05,3.07,0,1,.06,2,.04,3.01,0Z"/><path class="cls-8" d="m243,68.05c0,1.51,0,3.03,0,4.54-.57,0-1.15.01-1.72.01-4.86,0-9.72-.02-14.58.02-1.28.01-1.94-.69-1.94-1.94.04-7.44.03-14.88,0-22.32,0-.89.72-1.6,1.57-1.59.5,0,.99-.01,1.49-.02,1,.03,2,.05,3-.01,1.02.06,2.04.03,3.06.01.17,0,.33.02.5.02,2.87,0,5.74,0,8.61.01,0,2.01,0,4.03,0,6.04-.32.15-.68.08-1.02.21-1.42.55-2.36,1.51-2.7,3.02-.06.03-.11.07-.03.14-.11,1.25.02,2.39,1.14,3.22.35.26.49.65.35,1.14-.09.3-.2.59-.27.9-.2.84-.42,1.66-.64,2.49-.16.61-.35,1.22-.5,1.83-.15.61-.11,1.23-.13,1.85-.01.31.07.42.4.41,1.14-.02,2.27,0,3.41,0Z"/><path class="cls-14" d="m230.83,46.75c-1,.06-2,.04-3,.01,0-2.7-.02-5.41.02-8.11.02-1.25.19-2.49.55-3.71.44-1.46,1.06-2.83,1.9-4.1,1.05-1.58,2.35-2.94,3.9-4.05,1.02-.73,2.09-1.38,3.27-1.78,1.17-.41,2.35-.81,3.61-.9.71-.05,1.41-.16,2.12-.14,1.77.03,3.47.38,5.13,1,1.65.62,3.14,1.52,4.5,2.65,1.17.97,2.13,2.12,2.94,3.4.58.9,1.03,1.86,1.42,2.87.21.55.36,1.12.55,1.68.17.51.21,1.06.27,1.6.35,3.19.08,6.39.17,9.58-1,.04-2,.05-3,0,0-2.28-.02-4.57.01-6.85.02-1.31-.15-2.6-.47-3.87-.45-1.78-1.28-3.39-2.48-4.76-1.47-1.68-3.26-2.95-5.42-3.64-1.53-.49-3.08-.64-4.69-.54-1.49.09-2.89.44-4.22,1.06-2.21,1.03-3.95,2.61-5.24,4.69-1.11,1.79-1.72,3.76-1.8,5.84-.1,2.69-.02,5.38-.02,8.08Z"/><path class="cls-7" d="m252.11,46.76c0-2.42.02-4.85,0-7.27-.01-1.29-.19-2.56-.71-3.76-.41-.95-.96-1.81-1.64-2.6-1.01-1.18-2.27-1.99-3.7-2.51-1.32-.48-2.7-.64-4.13-.46-.87.11-1.71.31-2.49.65-2.18.95-3.78,2.51-4.77,4.69-.46,1.02-.65,2.09-.7,3.2-.13,2.69-.02,5.38-.06,8.06-1.02.02-2.04.04-3.06-.01,0-2.69-.08-5.39.02-8.08.08-2.08.68-4.05,1.8-5.84,1.29-2.08,3.03-3.66,5.24-4.69,1.33-.62,2.73-.97,4.22-1.06,1.61-.09,3.16.06,4.69.54,2.16.69,3.94,1.95,5.42,3.64,1.2,1.38,2.03,2.98,2.48,4.76.32,1.27.49,2.55.47,3.87-.03,2.28-.01,4.57-.01,6.85-1.02.05-2.04.04-3.07,0Z"/><path class="cls-10" d="m243,68.05c-1.14,0-2.27-.02-3.41,0-.33,0-.41-.1-.4-.41.02-.62-.01-1.25.13-1.85.15-.62.34-1.22.5-1.83.22-.83.44-1.66.64-2.49.07-.31.18-.6.27-.9.14-.49,0-.88-.35-1.14-1.12-.83-1.25-1.97-1.14-3.22.06-.03.06-.08.03-.14.34-1.51,1.28-2.47,2.7-3.02.34-.13.7-.05,1.02-.21.15.02.31.04.46.07.03.08.07.12.14.03.08.02.16.04.24.05.04.11.14.08.22.08,1.58.51,2.98,2.5,2.68,4.16-.14.79-.4,1.48-.99,2.03-.36.33-.78.65-.56,1.25.14.39.25.78.36,1.18.38,1.48.81,2.94,1.17,4.43.13.55.09,1.14.08,1.71,0,.25-.17.21-.32.21-1.16,0-2.32,0-3.48.01Z"/><path class="cls-7" d="m244.07,53.07c-.09,0-.18.03-.22-.08.1-.05.17,0,.22.08Z"/><path class="cls-7" d="m243.6,52.94c-.07.09-.11.05-.14-.03.06-.03.1-.02.14.03Z"/><path class="cls-14" d="m239.28,56.06c.03.06.03.1-.03.14-.08-.07-.03-.1.03-.14Z"/><circle class="cls-2" cx="243.13" cy="50.6" r="39.02"/><path class="cls-20" d="m337.18,83.76c.5,0,.99.02,1.49.02.84,0,1.54.69,1.55,1.54,0,.78,0,1.56,0,2.33,0,6.58,0,13.16,0,19.75,0,.43-.02.86-.15,1.28-.15.49-.75.93-1.27.93-5.57,0-11.15,0-16.72,0-.03,0-.05,0-.08,0,0-1.51,0-3.03,0-4.54,1.16,0,2.32,0,3.48-.01.15,0,.32.04.32-.21,0-.57.05-1.16-.08-1.71-.36-1.48-.79-2.95-1.17-4.43-.1-.4-.22-.79-.36-1.18-.22-.61.19-.92.56-1.25.6-.55.85-1.24.99-2.03.3-1.66-1.1-3.65-2.68-4.16-.05-.09-.12-.13-.22-.08-.08-.02-.16-.04-.24-.05-.04-.05-.08-.07-.14-.03-.15-.02-.31-.04-.46-.07,0-2.01,0-4.03,0-6.04,2.86,0,5.71,0,8.57-.02.18,0,.36-.01.53-.02,1.02.03,2.04.05,3.07,0,1,.06,2,.04,3.01,0Z"/><path class="cls-8" d="m322,105.05c0,1.51,0,3.03,0,4.54-.57,0-1.15.01-1.72.01-4.86,0-9.72-.02-14.58.02-1.28.01-1.94-.69-1.94-1.94.04-7.44.03-14.88,0-22.32,0-.89.72-1.6,1.57-1.59.5,0,.99-.01,1.49-.02,1,.03,2,.05,3-.01,1.02.06,2.04.03,3.06.01.17,0,.33.02.5.02,2.87,0,5.74,0,8.61.01,0,2.01,0,4.03,0,6.04-.32.15-.68.08-1.02.21-1.42.55-2.36,1.51-2.7,3.02-.06.03-.11.07-.03.14-.11,1.25.02,2.39,1.14,3.22.35.26.49.65.35,1.14-.09.3-.2.59-.27.9-.2.84-.42,1.66-.64,2.49-.16.61-.35,1.22-.5,1.83-.15.61-.11,1.23-.13,1.85-.01.31.07.42.4.41,1.14-.02,2.27,0,3.41,0Z"/><path class="cls-14" d="m309.83,83.75c-1,.06-2,.04-3,.01,0-2.7-.02-5.41.02-8.11.02-1.25.19-2.49.55-3.71.44-1.46,1.06-2.83,1.9-4.1,1.05-1.58,2.35-2.94,3.9-4.05,1.02-.73,2.09-1.38,3.27-1.78,1.17-.41,2.35-.81,3.61-.9.71-.05,1.41-.16,2.12-.14,1.77.03,3.47.38,5.13,1,1.65.62,3.14,1.52,4.5,2.65,1.17.97,2.13,2.12,2.94,3.4.58.9,1.03,1.86,1.42,2.87.21.55.36,1.12.55,1.68.17.51.21,1.06.27,1.6.35,3.19.08,6.39.17,9.58-1,.04-2,.05-3,0,0-2.28-.02-4.57.01-6.85.02-1.31-.15-2.6-.47-3.87-.45-1.78-1.28-3.39-2.48-4.76-1.47-1.68-3.26-2.95-5.42-3.64-1.53-.49-3.08-.64-4.69-.54-1.49.09-2.89.44-4.22,1.06-2.21,1.03-3.95,2.61-5.24,4.69-1.11,1.79-1.72,3.76-1.8,5.84-.1,2.69-.02,5.38-.02,8.08Z"/><path class="cls-7" d="m331.11,83.76c0-2.42.02-4.85,0-7.27-.01-1.29-.19-2.56-.71-3.76-.41-.95-.96-1.81-1.64-2.6-1.01-1.18-2.27-1.99-3.7-2.51-1.32-.48-2.7-.64-4.13-.46-.87.11-1.71.31-2.49.65-2.18.95-3.78,2.51-4.77,4.69-.46,1.02-.65,2.09-.7,3.2-.13,2.69-.02,5.38-.06,8.06-1.02.02-2.04.04-3.06-.01,0-2.69-.08-5.39.02-8.08.08-2.08.68-4.05,1.8-5.84,1.29-2.08,3.03-3.66,5.24-4.69,1.33-.62,2.73-.97,4.22-1.06,1.61-.09,3.16.06,4.69.54,2.16.69,3.94,1.95,5.42,3.64,1.2,1.38,2.03,2.98,2.48,4.76.32,1.27.49,2.55.47,3.87-.03,2.28-.01,4.57-.01,6.85-1.02.05-2.04.04-3.07,0Z"/><path class="cls-10" d="m322,105.05c-1.14,0-2.27-.02-3.41,0-.33,0-.41-.1-.4-.41.02-.62-.01-1.25.13-1.85.15-.62.34-1.22.5-1.83.22-.83.44-1.66.64-2.49.07-.31.18-.6.27-.9.14-.49,0-.88-.35-1.14-1.12-.83-1.25-1.97-1.14-3.22.06-.03.06-.08.03-.14.34-1.51,1.28-2.47,2.7-3.02.34-.13.7-.05,1.02-.21.15.02.31.04.46.07.03.08.07.12.14.03.08.02.16.04.24.05.04.11.14.08.22.08,1.58.51,2.98,2.5,2.68,4.16-.14.79-.4,1.48-.99,2.03-.36.33-.78.65-.56,1.25.14.39.25.78.36,1.18.38,1.48.81,2.94,1.17,4.43.13.55.09,1.14.08,1.71,0,.25-.17.21-.32.21-1.16,0-2.32,0-3.48.01Z"/><path class="cls-7" d="m323.07,90.07c-.09,0-.18.03-.22-.08.1-.05.17,0,.22.08Z"/><path class="cls-7" d="m322.6,89.94c-.07.09-.11.05-.14-.03.06-.03.1-.02.14.03Z"/><path class="cls-14" d="m318.28,93.06c.03.06.03.1-.03.14-.08-.07-.03-.1.03-.14Z"/><circle class="cls-2" cx="322.13" cy="87.6" r="39.02"/><path class="cls-20" d="m365.18,165.76c.5,0,.99.02,1.49.02.84,0,1.54.69,1.55,1.54,0,.78,0,1.56,0,2.33,0,6.58,0,13.16,0,19.75,0,.43-.02.86-.15,1.28-.15.49-.75.93-1.27.93-5.57,0-11.15,0-16.72,0-.03,0-.05,0-.08,0,0-1.51,0-3.03,0-4.54,1.16,0,2.32,0,3.48-.01.15,0,.32.04.32-.21,0-.57.05-1.16-.08-1.71-.36-1.48-.79-2.95-1.17-4.43-.1-.4-.22-.79-.36-1.18-.22-.61.19-.92.56-1.25.6-.55.85-1.24.99-2.03.3-1.66-1.1-3.65-2.68-4.16-.05-.09-.12-.13-.22-.08-.08-.02-.16-.04-.24-.05-.04-.05-.08-.07-.14-.03-.15-.02-.31-.04-.46-.07,0-2.01,0-4.03,0-6.04,2.86,0,5.71,0,8.57-.02.18,0,.36-.01.53-.02,1.02.03,2.04.05,3.07,0,1,.06,2,.04,3.01,0Z"/><path class="cls-8" d="m350,187.05c0,1.51,0,3.03,0,4.54-.57,0-1.15.01-1.72.01-4.86,0-9.72-.02-14.58.02-1.28.01-1.94-.69-1.94-1.94.04-7.44.03-14.88,0-22.32,0-.89.72-1.6,1.57-1.59.5,0,.99-.01,1.49-.02,1,.03,2,.05,3-.01,1.02.06,2.04.03,3.06.01.17,0,.33.02.5.02,2.87,0,5.74,0,8.61.01,0,2.01,0,4.03,0,6.04-.32.15-.68.08-1.02.21-1.42.55-2.36,1.51-2.7,3.02-.06.03-.11.07-.03.14-.11,1.25.02,2.39,1.14,3.22.35.26.49.65.35,1.14-.09.3-.2.59-.27.9-.2.84-.42,1.66-.64,2.49-.16.61-.35,1.22-.5,1.83-.15.61-.11,1.23-.13,1.85-.01.31.07.42.4.41,1.14-.02,2.27,0,3.41,0Z"/><path class="cls-14" d="m337.83,165.75c-1,.06-2,.04-3,.01,0-2.7-.02-5.41.02-8.11.02-1.25.19-2.49.55-3.71.44-1.46,1.06-2.83,1.9-4.1,1.05-1.58,2.35-2.94,3.9-4.05,1.02-.73,2.09-1.38,3.27-1.78,1.17-.41,2.35-.81,3.61-.9.71-.05,1.41-.16,2.12-.14,1.77.03,3.47.38,5.13,1,1.65.62,3.14,1.52,4.5,2.65,1.17.97,2.13,2.12,2.94,3.4.58.9,1.03,1.86,1.42,2.87.21.55.36,1.12.55,1.68.17.51.21,1.06.27,1.6.35,3.19.08,6.39.17,9.58-1,.04-2,.05-3,0,0-2.28-.02-4.57.01-6.85.02-1.31-.15-2.6-.47-3.87-.45-1.78-1.28-3.39-2.48-4.76-1.47-1.68-3.26-2.95-5.42-3.64-1.53-.49-3.08-.64-4.69-.54-1.49.09-2.89.44-4.22,1.06-2.21,1.03-3.95,2.61-5.24,4.69-1.11,1.79-1.72,3.76-1.8,5.84-.1,2.69-.02,5.38-.02,8.08Z"/><path class="cls-7" d="m359.11,165.76c0-2.42.02-4.85,0-7.27-.01-1.29-.19-2.56-.71-3.76-.41-.95-.96-1.81-1.64-2.6-1.01-1.18-2.27-1.99-3.7-2.51-1.32-.48-2.7-.64-4.13-.46-.87.11-1.71.31-2.49.65-2.18.95-3.78,2.51-4.77,4.69-.46,1.02-.65,2.09-.7,3.2-.13,2.69-.02,5.38-.06,8.06-1.02.02-2.04.04-3.06-.01,0-2.69-.08-5.39.02-8.08.08-2.08.68-4.05,1.8-5.84,1.29-2.08,3.03-3.66,5.24-4.69,1.33-.62,2.73-.97,4.22-1.06,1.61-.09,3.16.06,4.69.54,2.16.69,3.94,1.95,5.42,3.64,1.2,1.38,2.03,2.98,2.48,4.76.32,1.27.49,2.55.47,3.87-.03,2.28-.01,4.57-.01,6.85-1.02.05-2.04.04-3.07,0Z"/><path class="cls-10" d="m350,187.05c-1.14,0-2.27-.02-3.41,0-.33,0-.41-.1-.4-.41.02-.62-.01-1.25.13-1.85.15-.62.34-1.22.5-1.83.22-.83.44-1.66.64-2.49.07-.31.18-.6.27-.9.14-.49,0-.88-.35-1.14-1.12-.83-1.25-1.97-1.14-3.22.06-.03.06-.08.03-.14.34-1.51,1.28-2.47,2.7-3.02.34-.13.7-.05,1.02-.21.15.02.31.04.46.07.03.08.07.12.14.03.08.02.16.04.24.05.04.11.14.08.22.08,1.58.51,2.98,2.5,2.68,4.16-.14.79-.4,1.48-.99,2.03-.36.33-.78.65-.56,1.25.14.39.25.78.36,1.18.38,1.48.81,2.94,1.17,4.43.13.55.09,1.14.08,1.71,0,.25-.17.21-.32.21-1.16,0-2.32,0-3.48.01Z"/><path class="cls-7" d="m351.07,172.07c-.09,0-.18.03-.22-.08.1-.05.17,0,.22.08Z"/><path class="cls-7" d="m350.6,171.94c-.07.09-.11.05-.14-.03.06-.03.1-.02.14.03Z"/><path class="cls-14" d="m346.28,175.06c.03.06.03.1-.03.14-.08-.07-.03-.1.03-.14Z"/><circle class="cls-2" cx="350.13" cy="169.6" r="39.02"/><path class="cls-20" d="m212.18,350.76c.5,0,.99.02,1.49.02.84,0,1.54.69,1.55,1.54,0,.78,0,1.56,0,2.33,0,6.58,0,13.16,0,19.75,0,.43-.02.86-.15,1.28-.15.49-.75.93-1.27.93-5.57,0-11.15,0-16.72,0-.03,0-.05,0-.08,0,0-1.51,0-3.03,0-4.54,1.16,0,2.32,0,3.48-.01.15,0,.32.04.32-.21,0-.57.05-1.16-.08-1.71-.36-1.48-.79-2.95-1.17-4.43-.1-.4-.22-.79-.36-1.18-.22-.61.19-.92.56-1.25.6-.55.85-1.24.99-2.03.3-1.66-1.1-3.65-2.68-4.16-.05-.09-.12-.13-.22-.08-.08-.02-.16-.04-.24-.05-.04-.05-.08-.07-.14-.03-.15-.02-.31-.04-.46-.07,0-2.01,0-4.03,0-6.04,2.86,0,5.71,0,8.57-.02.18,0,.36-.01.53-.02,1.02.03,2.04.05,3.07,0,1,.06,2,.04,3.01,0Z"/><path class="cls-8" d="m197,372.05c0,1.51,0,3.03,0,4.54-.57,0-1.15.01-1.72.01-4.86,0-9.72-.02-14.58.02-1.28.01-1.94-.69-1.94-1.94.04-7.44.03-14.88,0-22.32,0-.89.72-1.6,1.57-1.59.5,0,.99-.01,1.49-.02,1,.03,2,.05,3-.01,1.02.06,2.04.03,3.06.01.17,0,.33.02.5.02,2.87,0,5.74,0,8.61.01,0,2.01,0,4.03,0,6.04-.32.15-.68.08-1.02.21-1.42.55-2.36,1.51-2.7,3.02-.06.03-.11.07-.03.14-.11,1.25.02,2.39,1.14,3.22.35.26.49.65.35,1.14-.09.3-.2.59-.27.9-.2.84-.42,1.66-.64,2.49-.16.61-.35,1.22-.5,1.83-.15.61-.11,1.23-.13,1.85-.01.31.07.42.4.41,1.14-.02,2.27,0,3.41,0Z"/><path class="cls-14" d="m184.83,350.75c-1,.06-2,.04-3,.01,0-2.7-.02-5.41.02-8.11.02-1.25.19-2.49.55-3.71.44-1.46,1.06-2.83,1.9-4.1,1.05-1.58,2.35-2.94,3.9-4.05,1.02-.73,2.09-1.38,3.27-1.78,1.17-.41,2.35-.81,3.61-.9.71-.05,1.41-.16,2.12-.14,1.77.03,3.47.38,5.13,1,1.65.62,3.14,1.52,4.5,2.65,1.17.97,2.13,2.12,2.94,3.4.58.9,1.03,1.86,1.42,2.87.21.55.36,1.12.55,1.68.17.51.21,1.06.27,1.6.35,3.19.08,6.39.17,9.58-1,.04-2,.05-3,0,0-2.28-.02-4.57.01-6.85.02-1.31-.15-2.6-.47-3.87-.45-1.78-1.28-3.39-2.48-4.76-1.47-1.68-3.26-2.95-5.42-3.64-1.53-.49-3.08-.64-4.69-.54-1.49.09-2.89.44-4.22,1.06-2.21,1.03-3.95,2.61-5.24,4.69-1.11,1.79-1.72,3.76-1.8,5.84-.1,2.69-.02,5.38-.02,8.08Z"/><path class="cls-7" d="m206.11,350.76c0-2.42.02-4.85,0-7.27-.01-1.29-.19-2.56-.71-3.76-.41-.95-.96-1.81-1.64-2.6-1.01-1.18-2.27-1.99-3.7-2.51-1.32-.48-2.7-.64-4.13-.46-.87.11-1.71.31-2.49.65-2.18.95-3.78,2.51-4.77,4.69-.46,1.02-.65,2.09-.7,3.2-.13,2.69-.02,5.38-.06,8.06-1.02.02-2.04.04-3.06-.01,0-2.69-.08-5.39.02-8.08.08-2.08.68-4.05,1.8-5.84,1.29-2.08,3.03-3.66,5.24-4.69,1.33-.62,2.73-.97,4.22-1.06,1.61-.09,3.16.06,4.69.54,2.16.69,3.94,1.95,5.42,3.64,1.2,1.38,2.03,2.98,2.48,4.76.32,1.27.49,2.55.47,3.87-.03,2.28-.01,4.57-.01,6.85-1.02.05-2.04.04-3.07,0Z"/><path class="cls-10" d="m197,372.05c-1.14,0-2.27-.02-3.41,0-.33,0-.41-.1-.4-.41.02-.62-.01-1.25.13-1.85.15-.62.34-1.22.5-1.83.22-.83.44-1.66.64-2.49.07-.31.18-.6.27-.9.14-.49,0-.88-.35-1.14-1.12-.83-1.25-1.97-1.14-3.22.06-.03.06-.08.03-.14.34-1.51,1.28-2.47,2.7-3.02.34-.13.7-.05,1.02-.21.15.02.31.04.46.07.03.08.07.12.14.03.08.02.16.04.24.05.04.11.14.08.22.08,1.58.51,2.98,2.5,2.68,4.16-.14.79-.4,1.48-.99,2.03-.36.33-.78.65-.56,1.25.14.39.25.78.36,1.18.38,1.48.81,2.94,1.17,4.43.13.55.09,1.14.08,1.71,0,.25-.17.21-.32.21-1.16,0-2.32,0-3.48.01Z"/><path class="cls-7" d="m198.07,357.07c-.09,0-.18.03-.22-.08.1-.05.17,0,.22.08Z"/><path class="cls-7" d="m197.6,356.94c-.07.09-.11.05-.14-.03.06-.03.1-.02.14.03Z"/><path class="cls-14" d="m193.28,360.06c.03.06.03.1-.03.14-.08-.07-.03-.1.03-.14Z"/><circle class="cls-2" cx="197.13" cy="354.6" r="39.02"/><path class="cls-20" d="m129.18,329.76c.5,0,.99.02,1.49.02.84,0,1.54.69,1.55,1.54,0,.78,0,1.56,0,2.33,0,6.58,0,13.16,0,19.75,0,.43-.02.86-.15,1.28-.15.49-.75.93-1.27.93-5.57,0-11.15,0-16.72,0-.03,0-.05,0-.08,0,0-1.51,0-3.03,0-4.54,1.16,0,2.32,0,3.48-.01.15,0,.32.04.32-.21,0-.57.05-1.16-.08-1.71-.36-1.48-.79-2.95-1.17-4.43-.1-.4-.22-.79-.36-1.18-.22-.61.19-.92.56-1.25.6-.55.85-1.24.99-2.03.3-1.66-1.1-3.65-2.68-4.16-.05-.09-.12-.13-.22-.08-.08-.02-.16-.04-.24-.05-.04-.05-.08-.07-.14-.03-.15-.02-.31-.04-.46-.07,0-2.01,0-4.03,0-6.04,2.86,0,5.71,0,8.57-.02.18,0,.36-.01.53-.02,1.02.03,2.04.05,3.07,0,1,.06,2,.04,3.01,0Z"/><path class="cls-8" d="m114,351.05c0,1.51,0,3.03,0,4.54-.57,0-1.15.01-1.72.01-4.86,0-9.72-.02-14.58.02-1.28.01-1.94-.69-1.94-1.94.04-7.44.03-14.88,0-22.32,0-.89.72-1.6,1.57-1.59.5,0,.99-.01,1.49-.02,1,.03,2,.05,3-.01,1.02.06,2.04.03,3.06.01.17,0,.33.02.5.02,2.87,0,5.74,0,8.61.01,0,2.01,0,4.03,0,6.04-.32.15-.68.08-1.02.21-1.42.55-2.36,1.51-2.7,3.02-.06.03-.11.07-.03.14-.11,1.25.02,2.39,1.14,3.22.35.26.49.65.35,1.14-.09.3-.2.59-.27.9-.2.84-.42,1.66-.64,2.49-.16.61-.35,1.22-.5,1.83-.15.61-.11,1.23-.13,1.85-.01.31.07.42.4.41,1.14-.02,2.27,0,3.41,0Z"/><path class="cls-14" d="m101.83,329.75c-1,.06-2,.04-3,.01,0-2.7-.02-5.41.02-8.11.02-1.25.19-2.49.55-3.71.44-1.46,1.06-2.83,1.9-4.1,1.05-1.58,2.35-2.94,3.9-4.05,1.02-.73,2.09-1.38,3.27-1.78,1.17-.41,2.35-.81,3.61-.9.71-.05,1.41-.16,2.12-.14,1.77.03,3.47.38,5.13,1,1.65.62,3.14,1.52,4.5,2.65,1.17.97,2.13,2.12,2.94,3.4.58.9,1.03,1.86,1.42,2.87.21.55.36,1.12.55,1.68.17.51.21,1.06.27,1.6.35,3.19.08,6.39.17,9.58-1,.04-2,.05-3,0,0-2.28-.02-4.57.01-6.85.02-1.31-.15-2.6-.47-3.87-.45-1.78-1.28-3.39-2.48-4.76-1.47-1.68-3.26-2.95-5.42-3.64-1.53-.49-3.08-.64-4.69-.54-1.49.09-2.89.44-4.22,1.06-2.21,1.03-3.95,2.61-5.24,4.69-1.11,1.79-1.72,3.76-1.8,5.84-.1,2.69-.02,5.38-.02,8.08Z"/><path class="cls-7" d="m123.11,329.76c0-2.42.02-4.85,0-7.27-.01-1.29-.19-2.56-.71-3.76-.41-.95-.96-1.81-1.64-2.6-1.01-1.18-2.27-1.99-3.7-2.51-1.32-.48-2.7-.64-4.13-.46-.87.11-1.71.31-2.49.65-2.18.95-3.78,2.51-4.77,4.69-.46,1.02-.65,2.09-.7,3.2-.13,2.69-.02,5.38-.06,8.06-1.02.02-2.04.04-3.06-.01,0-2.69-.08-5.39.02-8.08.08-2.08.68-4.05,1.8-5.84,1.29-2.08,3.03-3.66,5.24-4.69,1.33-.62,2.73-.97,4.22-1.06,1.61-.09,3.16.06,4.69.54,2.16.69,3.94,1.95,5.42,3.64,1.2,1.38,2.03,2.98,2.48,4.76.32,1.27.49,2.55.47,3.87-.03,2.28-.01,4.57-.01,6.85-1.02.05-2.04.04-3.07,0Z"/><path class="cls-10" d="m114,351.05c-1.14,0-2.27-.02-3.41,0-.33,0-.41-.1-.4-.41.02-.62-.01-1.25.13-1.85.15-.62.34-1.22.5-1.83.22-.83.44-1.66.64-2.49.07-.31.18-.6.27-.9.14-.49,0-.88-.35-1.14-1.12-.83-1.25-1.97-1.14-3.22.06-.03.06-.08.03-.14.34-1.51,1.28-2.47,2.7-3.02.34-.13.7-.05,1.02-.21.15.02.31.04.46.07.03.08.07.12.14.03.08.02.16.04.24.05.04.11.14.08.22.08,1.58.51,2.98,2.5,2.68,4.16-.14.79-.4,1.48-.99,2.03-.36.33-.78.65-.56,1.25.14.39.25.78.36,1.18.38,1.48.81,2.94,1.17,4.43.13.55.09,1.14.08,1.71,0,.25-.17.21-.32.21-1.16,0-2.32,0-3.48.01Z"/><path class="cls-7" d="m115.07,336.07c-.09,0-.18.03-.22-.08.1-.05.17,0,.22.08Z"/><path class="cls-7" d="m114.6,335.94c-.07.09-.11.05-.14-.03.06-.03.1-.02.14.03Z"/><path class="cls-14" d="m110.28,339.06c.03.06.03.1-.03.14-.08-.07-.03-.1.03-.14Z"/><circle class="cls-2" cx="114.13" cy="333.6" r="39.02"/><path class="cls-20" d="m361.18,258.76c.5,0,.99.02,1.49.02.84,0,1.54.69,1.55,1.54,0,.78,0,1.56,0,2.33,0,6.58,0,13.16,0,19.75,0,.43-.02.86-.15,1.28-.15.49-.75.93-1.27.93-5.57,0-11.15,0-16.72,0-.03,0-.05,0-.08,0,0-1.51,0-3.03,0-4.54,1.16,0,2.32,0,3.48-.01.15,0,.32.04.32-.21,0-.57.05-1.16-.08-1.71-.36-1.48-.79-2.95-1.17-4.43-.1-.4-.22-.79-.36-1.18-.22-.61.19-.92.56-1.25.6-.55.85-1.24.99-2.03.3-1.66-1.1-3.65-2.68-4.16-.05-.09-.12-.13-.22-.08-.08-.02-.16-.04-.24-.05-.04-.05-.08-.07-.14-.03-.15-.02-.31-.04-.46-.07,0-2.01,0-4.03,0-6.04,2.86,0,5.71,0,8.57-.02.18,0,.36-.01.53-.02,1.02.03,2.04.05,3.07,0,1,.06,2,.04,3.01,0Z"/><path class="cls-8" d="m346,280.05c0,1.51,0,3.03,0,4.54-.57,0-1.15.01-1.72.01-4.86,0-9.72-.02-14.58.02-1.28.01-1.94-.69-1.94-1.94.04-7.44.03-14.88,0-22.32,0-.89.72-1.6,1.57-1.59.5,0,.99-.01,1.49-.02,1,.03,2,.05,3-.01,1.02.06,2.04.03,3.06.01.17,0,.33.02.5.02,2.87,0,5.74,0,8.61.01,0,2.01,0,4.03,0,6.04-.32.15-.68.08-1.02.21-1.42.55-2.36,1.51-2.7,3.02-.06.03-.11.07-.03.14-.11,1.25.02,2.39,1.14,3.22.35.26.49.65.35,1.14-.09.3-.2.59-.27.9-.2.84-.42,1.66-.64,2.49-.16.61-.35,1.22-.5,1.83-.15.61-.11,1.23-.13,1.85-.01.31.07.42.4.41,1.14-.02,2.27,0,3.41,0Z"/><path class="cls-14" d="m333.83,258.75c-1,.06-2,.04-3,.01,0-2.7-.02-5.41.02-8.11.02-1.25.19-2.49.55-3.71.44-1.46,1.06-2.83,1.9-4.1,1.05-1.58,2.35-2.94,3.9-4.05,1.02-.73,2.09-1.38,3.27-1.78,1.17-.41,2.35-.81,3.61-.9.71-.05,1.41-.16,2.12-.14,1.77.03,3.47.38,5.13,1,1.65.62,3.14,1.52,4.5,2.65,1.17.97,2.13,2.12,2.94,3.4.58.9,1.03,1.86,1.42,2.87.21.55.36,1.12.55,1.68.17.51.21,1.06.27,1.6.35,3.19.08,6.39.17,9.58-1,.04-2,.05-3,0,0-2.28-.02-4.57.01-6.85.02-1.31-.15-2.6-.47-3.87-.45-1.78-1.28-3.39-2.48-4.76-1.47-1.68-3.26-2.95-5.42-3.64-1.53-.49-3.08-.64-4.69-.54-1.49.09-2.89.44-4.22,1.06-2.21,1.03-3.95,2.61-5.24,4.69-1.11,1.79-1.72,3.76-1.8,5.84-.1,2.69-.02,5.38-.02,8.08Z"/><path class="cls-7" d="m355.11,258.76c0-2.42.02-4.85,0-7.27-.01-1.29-.19-2.56-.71-3.76-.41-.95-.96-1.81-1.64-2.6-1.01-1.18-2.27-1.99-3.7-2.51-1.32-.48-2.7-.64-4.13-.46-.87.11-1.71.31-2.49.65-2.18.95-3.78,2.51-4.77,4.69-.46,1.02-.65,2.09-.7,3.2-.13,2.69-.02,5.38-.06,8.06-1.02.02-2.04.04-3.06-.01,0-2.69-.08-5.39.02-8.08.08-2.08.68-4.05,1.8-5.84,1.29-2.08,3.03-3.66,5.24-4.69,1.33-.62,2.73-.97,4.22-1.06,1.61-.09,3.16.06,4.69.54,2.16.69,3.94,1.95,5.42,3.64,1.2,1.38,2.03,2.98,2.48,4.76.32,1.27.49,2.55.47,3.87-.03,2.28-.01,4.57-.01,6.85-1.02.05-2.04.04-3.07,0Z"/><path class="cls-10" d="m346,280.05c-1.14,0-2.27-.02-3.41,0-.33,0-.41-.1-.4-.41.02-.62-.01-1.25.13-1.85.15-.62.34-1.22.5-1.83.22-.83.44-1.66.64-2.49.07-.31.18-.6.27-.9.14-.49,0-.88-.35-1.14-1.12-.83-1.25-1.97-1.14-3.22.06-.03.06-.08.03-.14.34-1.51,1.28-2.47,2.7-3.02.34-.13.7-.05,1.02-.21.15.02.31.04.46.07.03.08.07.12.14.03.08.02.16.04.24.05.04.11.14.08.22.08,1.58.51,2.98,2.5,2.68,4.16-.14.79-.4,1.48-.99,2.03-.36.33-.78.65-.56,1.25.14.39.25.78.36,1.18.38,1.48.81,2.94,1.17,4.43.13.55.09,1.14.08,1.71,0,.25-.17.21-.32.21-1.16,0-2.32,0-3.48.01Z"/><path class="cls-7" d="m347.07,265.07c-.09,0-.18.03-.22-.08.1-.05.17,0,.22.08Z"/><path class="cls-7" d="m346.6,264.94c-.07.09-.11.05-.14-.03.06-.03.1-.02.14.03Z"/><path class="cls-14" d="m342.28,268.06c.03.06.03.1-.03.14-.08-.07-.03-.1.03-.14Z"/><circle class="cls-2" cx="346.13" cy="262.6" r="39.02"/><path class="cls-20" d="m300.18,333.76c.5,0,.99.02,1.49.02.84,0,1.54.69,1.55,1.54,0,.78,0,1.56,0,2.33,0,6.58,0,13.16,0,19.75,0,.43-.02.86-.15,1.28-.15.49-.75.93-1.27.93-5.57,0-11.15,0-16.72,0-.03,0-.05,0-.08,0,0-1.51,0-3.03,0-4.54,1.16,0,2.32,0,3.48-.01.15,0,.32.04.32-.21,0-.57.05-1.16-.08-1.71-.36-1.48-.79-2.95-1.17-4.43-.1-.4-.22-.79-.36-1.18-.22-.61.19-.92.56-1.25.6-.55.85-1.24.99-2.03.3-1.66-1.1-3.65-2.68-4.16-.05-.09-.12-.13-.22-.08-.08-.02-.16-.04-.24-.05-.04-.05-.08-.07-.14-.03-.15-.02-.31-.04-.46-.07,0-2.01,0-4.03,0-6.04,2.86,0,5.71,0,8.57-.02.18,0,.36-.01.53-.02,1.02.03,2.04.05,3.07,0,1,.06,2,.04,3.01,0Z"/><path class="cls-8" d="m285,355.05c0,1.51,0,3.03,0,4.54-.57,0-1.15.01-1.72.01-4.86,0-9.72-.02-14.58.02-1.28.01-1.94-.69-1.94-1.94.04-7.44.03-14.88,0-22.32,0-.89.72-1.6,1.57-1.59.5,0,.99-.01,1.49-.02,1,.03,2,.05,3-.01,1.02.06,2.04.03,3.06.01.17,0,.33.02.5.02,2.87,0,5.74,0,8.61.01,0,2.01,0,4.03,0,6.04-.32.15-.68.08-1.02.21-1.42.55-2.36,1.51-2.7,3.02-.06.03-.11.07-.03.14-.11,1.25.02,2.39,1.14,3.22.35.26.49.65.35,1.14-.09.3-.2.59-.27.9-.2.84-.42,1.66-.64,2.49-.16.61-.35,1.22-.5,1.83-.15.61-.11,1.23-.13,1.85-.01.31.07.42.4.41,1.14-.02,2.27,0,3.41,0Z"/><path class="cls-14" d="m272.83,333.75c-1,.06-2,.04-3,.01,0-2.7-.02-5.41.02-8.11.02-1.25.19-2.49.55-3.71.44-1.46,1.06-2.83,1.9-4.1,1.05-1.58,2.35-2.94,3.9-4.05,1.02-.73,2.09-1.38,3.27-1.78,1.17-.41,2.35-.81,3.61-.9.71-.05,1.41-.16,2.12-.14,1.77.03,3.47.38,5.13,1,1.65.62,3.14,1.52,4.5,2.65,1.17.97,2.13,2.12,2.94,3.4.58.9,1.03,1.86,1.42,2.87.21.55.36,1.12.55,1.68.17.51.21,1.06.27,1.6.35,3.19.08,6.39.17,9.58-1,.04-2,.05-3,0,0-2.28-.02-4.57.01-6.85.02-1.31-.15-2.6-.47-3.87-.45-1.78-1.28-3.39-2.48-4.76-1.47-1.68-3.26-2.95-5.42-3.64-1.53-.49-3.08-.64-4.69-.54-1.49.09-2.89.44-4.22,1.06-2.21,1.03-3.95,2.61-5.24,4.69-1.11,1.79-1.72,3.76-1.8,5.84-.1,2.69-.02,5.38-.02,8.08Z"/><path class="cls-7" d="m294.11,333.76c0-2.42.02-4.85,0-7.27-.01-1.29-.19-2.56-.71-3.76-.41-.95-.96-1.81-1.64-2.6-1.01-1.18-2.27-1.99-3.7-2.51-1.32-.48-2.7-.64-4.13-.46-.87.11-1.71.31-2.49.65-2.18.95-3.78,2.51-4.77,4.69-.46,1.02-.65,2.09-.7,3.2-.13,2.69-.02,5.38-.06,8.06-1.02.02-2.04.04-3.06-.01,0-2.69-.08-5.39.02-8.08.08-2.08.68-4.05,1.8-5.84,1.29-2.08,3.03-3.66,5.24-4.69,1.33-.62,2.73-.97,4.22-1.06,1.61-.09,3.16.06,4.69.54,2.16.69,3.94,1.95,5.42,3.64,1.2,1.38,2.03,2.98,2.48,4.76.32,1.27.49,2.55.47,3.87-.03,2.28-.01,4.57-.01,6.85-1.02.05-2.04.04-3.07,0Z"/><path class="cls-10" d="m285,355.05c-1.14,0-2.27-.02-3.41,0-.33,0-.41-.1-.4-.41.02-.62-.01-1.25.13-1.85.15-.62.34-1.22.5-1.83.22-.83.44-1.66.64-2.49.07-.31.18-.6.27-.9.14-.49,0-.88-.35-1.14-1.12-.83-1.25-1.97-1.14-3.22.06-.03.06-.08.03-.14.34-1.51,1.28-2.47,2.7-3.02.34-.13.7-.05,1.02-.21.15.02.31.04.46.07.03.08.07.12.14.03.08.02.16.04.24.05.04.11.14.08.22.08,1.58.51,2.98,2.5,2.68,4.16-.14.79-.4,1.48-.99,2.03-.36.33-.78.65-.56,1.25.14.39.25.78.36,1.18.38,1.48.81,2.94,1.17,4.43.13.55.09,1.14.08,1.71,0,.25-.17.21-.32.21-1.16,0-2.32,0-3.48.01Z"/><path class="cls-7" d="m286.07,340.07c-.09,0-.18.03-.22-.08.1-.05.17,0,.22.08Z"/><path class="cls-7" d="m285.6,339.94c-.07.09-.11.05-.14-.03.06-.03.1-.02.14.03Z"/><path class="cls-14" d="m281.28,343.06c.03.06.03.1-.03.14-.08-.07-.03-.1.03-.14Z"/><circle class="cls-2" cx="285.13" cy="337.6" r="39.02"/><circle class="cls-3" cx="49.59" cy="269.48" r="39.41"/><path class="cls-11" d="m59.92,252.31c.19.25.43.46.7.61,1.02.95,1.6,2.28,1.58,3.68v39.67c0,3.15-1.58,4.99-4.82,5.25-5.25.44-10.52.44-15.76,0-2.59-.07-4.63-2.22-4.56-4.81,0-.06,0-.12,0-.19v-39.94c-.14-2.61,1.86-4.85,4.47-4.99.03,0,.05,0,.08,0,4.61-.32,9.23-.38,13.84-.18.32-.01.65.02.96.09,1.22-.02,2.44.19,3.59.61l-.09.18Zm-9.55,5.78h-9.72c-.61,0-.79.18-.79.79v10.07c0,3.33,0,2.1,2.1,2.01h16.73c.53,0,.61-.18.61-.61v-11.59c0-.44-.09-.7-.61-.7h-8.32v.03Zm1.84,25.84c-2.01,0-1.84,0-1.84,1.93,0,.61.26.88.88.88h1.4c1.14,0,1.23,0,1.23-1.14,0-1.93.18-1.66-1.66-1.66Zm-5.17,0h-.96c-.53,0-.88.18-.7.7.18.7-.61,1.84.7,2.1.67.09,1.35.09,2.01,0,.38.02.71-.24.79-.61.44-1.66,0-2.19-1.66-2.19h-.18Zm0-4.12c-1.93,0-1.66-.18-1.75,1.75v.26c0,.61.26.88.79.88h2.01c.35-.02.64-.27.7-.61.44-1.66,0-2.19-1.66-2.19h0l-.09-.09Zm5.25,0h-1.14c-.44,0-.7.18-.7.61,0,2.01-.18,2.28,1.84,2.19h.44c1.14,0,1.23-.18,1.23-1.23,0-1.84.18-1.66-1.66-1.66h0v.09Zm-.09,11.12h.88c.44,0,.88-.09.88-.61,0-.7.44-1.58-.35-2.19h-2.45c-.33-.02-.63.2-.7.53-.44,1.66,0,2.28,1.75,2.28h0Zm-5.08,0h.88c.53,0,.88-.18.88-.7,0-.7.44-1.58-.35-2.1h-2.45c-.3,0-.57.17-.7.44-.53,1.58,0,2.36,1.66,2.36h.09Zm0-15.24h-.79c-.61,0-.88.18-.88.88q0,2.01,2.01,2.01h.7c.41.01.75-.3.79-.7.35-1.75,0-2.19-1.75-2.19h-.09Zm5.25,0h-1.14c-.44,0-.7.18-.7.7,0,2.01-.18,2.28,1.84,2.19h.44c1.14,0,1.23-.18,1.23-1.23,0-1.84.18-1.66-1.66-1.66h0Zm-10.33,15.24h.7c.79,0,1.05-.26.96-1.05,0-2.1.26-1.84-1.84-1.84h-.35c-1.14,0-1.23,0-1.14,1.14,0,1.58-.35,1.75,1.66,1.66v.09Zm15.41-2.89h-.7c-.7-.09-.96.18-.96.96,0,2.01-.35,1.93,1.93,1.93h.35q1.14,0,1.14-1.14c0-1.93.18-1.66-1.66-1.66h0l-.09-.09Zm0-4.12h-.88c-.61,0-.79.26-.79.88,0,2.1-.35,2.01,2.01,2.01h.26c1.05,0,1.14-.09,1.14-1.14,0-1.93.18-1.75-1.66-1.75h-.09Zm-15.33,0h-.77c-.7,0-.96.18-.96.96,0,2.01-.35,1.93,1.93,1.93h.35c1.05,0,1.14-.09,1.14-1.23,0-1.84.18-1.66-1.66-1.66h-.02Zm0-4.12h-.77c-.7,0-.96.18-.88.88,0,2.01-.18,2.01,1.93,1.93h.26c1.14,0,1.23,0,1.23-1.23,0-1.84.18-1.66-1.66-1.66l-.11.09Zm15.41-4.12h-.88c-.61,0-.79.26-.79.88,0,2.1-.18,2.01,2.01,2.01h.26c1.05,0,1.14-.09,1.14-1.14,0-1.93.18-1.66-1.66-1.75h-.09Zm0,4.12c-1.93,0-1.66-.26-1.75,1.75v.18c0,.7.26.96.96.96h1.24c1.05,0,1.14-.09,1.14-1.23,0-1.84.18-1.66-1.66-1.66h.07Zm-15.41-4.12h-.88c-.61,0-.79.26-.79.88,0,2.1-.18,2.01,2.01,2.01h.26c1.05,0,1.14-.09,1.14-1.14,0-1.93.18-1.66-1.66-1.75h-.09Zm9.37-20.06c.35,0,.61-.09.53-.53s-.18-.44-.53-.44-.61.09-.53.53.18.44.53.44Zm2.19-.44c0-.35-.18-.44-.53-.44s-.61,0-.61.44.18.44.53.44.61-.09.61-.44Zm-5.08,42.65c.04-.25-.14-.49-.39-.53-.04,0-.09,0-.13,0-.35,0-.44.26-.44.53s.18.53.44.53c.26-.03.46-.26.44-.53h.09Zm-1.84-43.09c-.28,0-.52.18-.61.44,0,.28.21.52.49.53.01,0,.02,0,.04,0,.26,0,.44-.09.44-.35h0c0-.35-.09-.53-.44-.53l.09-.09Zm2.01.44c0-.35-.18-.44-.53-.44-.24-.05-.48.11-.53.35-.05.24.11.48.35.53.06.01.12.01.18,0,.35,0,.44-.18.44-.44h.09Zm-.18,39.06c0-.35-.26-.44-.53-.44-.23-.02-.42.16-.44.38,0,.02,0,.04,0,.05,0,.35.18.53.44.53s.44-.18.44-.53h.09Zm3.5-.09c0-.18-.09-.35-.44-.35s-.53.09-.53.44.18.53.44.53.44-.18.44-.61h.09Zm-.35,4.12c.26,0,.35-.18.35-.44.02-.26-.17-.5-.44-.53-.23-.02-.43.14-.45.37,0,.05,0,.11.01.16.09.35.18.44.61.44h-.09Zm-1.4-43.09c0-.35-.26-.44-.53-.44s-.44.18-.35.53.26.44.53.44c.26-.03.46-.26.44-.53h-.09Zm-.44,38.8c.23.02.42-.16.44-.38,0-.02,0-.04,0-.05,0-.35-.18-.53-.53-.44s-.44.18-.44.53c.03.26.26.46.53.44h0v-.09Zm-2.63,2.54c.26,0,.44-.09.53-.44s-.09-.53-.44-.53-.44.09-.53.44.09.53.44.53h0Zm4.99-.96c-.21,0-.38.18-.38.39,0,.05,0,.09.03.13,0,.26.18.44.53.35s.44-.26.44-.53c-.03-.26-.26-.46-.53-.44l-.09.09Zm-2.45,3.5c.23.02.42-.16.44-.38,0-.02,0-.04,0-.05,0-.35-.18-.53-.44-.53-.23-.02-.42.16-.44.38,0,.02,0,.04,0,.05,0,.35.18.5.44.5v.03Zm-.53-2.72c0-.26-.09-.44-.44-.44-.23-.02-.42.16-.44.38,0,.02,0,.04,0,.05,0,.26.09.53.35.53.26,0,.47-.19.53-.44h0v-.09Zm.7.35c-.23-.02-.42.16-.44.38,0,.02,0,.04,0,.05.03.26.26.46.53.44h0c.26,0,.35-.26.35-.44.02-.23-.16-.42-.38-.44-.02,0-.04,0-.05,0Zm0-1.66c.02-.22-.13-.41-.35-.44-.26,0-.47.19-.53.44,0,.18.09.44.35.44h0c.26,0,.35-.26.44-.44h.09Zm.88,1.14c.19-.01.34-.16.35-.35,0-.18,0-.35-.26-.44h-.09c-.26,0-.35.18-.44.35s0,.35.35.35l.09.09Z"/><path class="cls-17" d="m52.76,258.09h5.96c.53,0,.61.18.61.7v11.56c0,.44-.09.61-.61.61h-13.4c.02-.19.08-.37.18-.53,1.66-2.72,3.24-5.43,4.9-8.15.87-1.35,1.66-2.76,2.36-4.2Z"/><path class="cls-17" d="m41.97,270.88c-1.4,0-2.1-.67-2.1-2.01v-10.1c0-.61.18-.79.79-.79h8.76c-.61,1.27-1.32,2.5-2.1,3.68-1.75,3.07-3.59,6.04-5.34,9.11v.11Z"/><path class="cls-13" d="m52.76,258.09c-.7,1.45-1.49,2.85-2.36,4.2-1.58,2.72-3.24,5.43-4.9,8.15,0,.18-.18.35-.18.53h-1.4c.02-.19.08-.37.18-.53,1.4-2.28,2.8-4.64,4.12-6.92,1.05-1.84,2.19-3.5,3.15-5.43h1.4Z"/><path class="cls-6" d="m51.34,258.09c-.96,1.84-2.1,3.59-3.15,5.43-1.4,2.36-2.8,4.64-4.12,6.92,0,.18-.18.35-.18.53h-.96c.4-1.03.93-2,1.58-2.89,1.93-3.33,3.94-6.66,5.87-9.9h.96v-.09Z"/><path class="cls-12" d="m50.38,258.09c-1.93,3.33-3.94,6.57-5.87,9.9-.64.89-1.17,1.87-1.58,2.89h-.96c1.84-2.98,3.59-6.04,5.34-9.11.78-1.18,1.49-2.41,2.1-3.68h.96Z"/><path class="cls-16" d="m52.22,283.93c1.93,0,1.66-.18,1.66,1.66,0,1.05,0,1.14-1.23,1.14h-1.4c-.43.05-.82-.26-.88-.69,0-.06,0-.12,0-.19,0-2.01-.18-2.01,1.84-1.93Z"/><path class="cls-16" d="m46.96,283.93h0c1.66,0,2.1.53,1.66,2.19-.04.38-.39.66-.78.61,0,0,0,0-.01,0-.67.04-1.34.04-2.01,0-1.31-.26-.53-1.4-.7-2.1-.09-.53.18-.79.7-.7h1.14Z"/><path class="cls-16" d="m46.96,279.78h0c1.66,0,2.1.53,1.66,2.19-.06.34-.35.6-.7.61h-2.01c-.53,0-.88-.26-.79-.88v-.26c0-1.93-.26-1.75,1.75-1.75l.09.09Z"/><path class="cls-16" d="m52.22,279.78c1.84,0,1.66-.18,1.66,1.66,0,1.05-.18,1.23-1.23,1.23h-.44c-2.1,0-1.84-.18-1.84-2.19,0-.44.26-.61.7-.61h1.14v-.09Z"/><path class="cls-16" d="m52.13,290.93c-1.66,0-2.19-.61-1.75-2.28.07-.33.37-.55.7-.53h2.45c.79.61.35,1.49.35,2.19,0,.53-.44.61-.88.61h-.88Z"/><path class="cls-16" d="m46.96,290.93c-1.58,0-2.19-.88-1.66-2.36.06-.3.35-.51.65-.45.02,0,.03,0,.05.01h2.45c.79.61.35,1.4.35,2.1,0,.44-.35.7-.88.7h-.96Z"/><path class="cls-16" d="m46.96,275.61h0c1.75,0,2.1.44,1.75,2.19,0,.44-.35.61-.79.7h-.7q-2.01,0-2.01-2.01c0-2.01.26-.96.88-.88h.88Z"/><path class="cls-16" d="m52.22,275.61c1.84,0,1.66-.18,1.66,1.66,0,1.05-.18,1.23-1.23,1.23h-.44c-2.1,0-1.84-.18-1.84-2.19,0-.44.26-.61.7-.7h1.14Z"/><path class="cls-16" d="m41.88,290.93c-2.01,0-1.66-.09-1.66-1.66q0-1.14,1.14-1.14h.35c2.1,0,1.84-.26,1.84,1.84,0,.79-.26,1.05-.96,1.05h-.7v-.09Z"/><path class="cls-16" d="m57.3,288.04c1.93,0,1.66-.18,1.66,1.66q0,1.14-1.14,1.14h-.35c-2.28,0-1.84,0-1.93-1.93,0-.7.26-1.05.96-.96h.7l.09.09Z"/><path class="cls-16" d="m57.3,283.93c1.84,0,1.66-.18,1.66,1.75,0,1.05-.09,1.14-1.14,1.14h-.26c-2.36,0-1.93.09-2.01-2.01,0-.61.18-.88.79-.88h.96Z"/><path class="cls-16" d="m41.88,283.93c1.84,0,1.58-.18,1.66,1.66,0,1.05,0,1.23-1.14,1.23h-.35c-2.28,0-1.84,0-1.93-1.93,0-.7.26-1.05.96-.96h.79Z"/><path class="cls-16" d="m41.88,279.78c1.84,0,1.66-.18,1.66,1.66,0,1.14,0,1.23-1.23,1.23h-.26c-2.1,0-1.84,0-1.93-1.93,0-.7.18-.96.88-.88h.79l.09-.09Z"/><path class="cls-16" d="m57.3,275.61c1.84,0,1.66-.18,1.66,1.75,0,1.05-.09,1.14-1.14,1.14h-.26c-2.19,0-1.93.09-2.01-2.01,0-.61.18-.88.79-.88h.96Z"/><path class="cls-16" d="m57.3,279.78c1.84,0,1.66-.18,1.66,1.66,0,1.14-.09,1.23-1.14,1.23h-1.23c-.7,0-.96-.26-.96-.96v-.18c0-1.93-.26-1.75,1.75-1.75h-.09Z"/><path class="cls-16" d="m41.88,275.61c1.84,0,1.66-.18,1.66,1.66,0,1.05-.09,1.14-1.14,1.14h-.26c-2.19,0-2.01.09-2.01-2.01,0-.61.18-.88.79-.88h.88l.09.09Z"/><path class="cls-18" d="m51.25,255.64c-.26,0-.53-.09-.53-.44,0-.28.21-.52.49-.53.01,0,.02,0,.04,0,.26,0,.53.09.53.44,0,.28-.21.52-.49.53-.01,0-.02,0-.04,0Z"/><path class="cls-18" d="m53.35,255.2c0,.35-.26.44-.61.44s-.53-.18-.53-.44.26-.44.61-.44.53.18.53.44Z"/><path class="cls-19" d="m48.27,297.77c.02.26-.17.5-.44.53-.23.02-.43-.14-.45-.37,0-.05,0-.11.01-.16,0-.26.09-.53.44-.53.25-.04.49.14.53.39,0,.04,0,.09,0,.13h-.09Z"/><path class="cls-18" d="m46.43,254.67c.35,0,.44.18.44.53.02.23-.16.42-.38.44-.02,0-.04,0-.05,0h0c-.35,0-.61-.18-.53-.53s.26-.44.61-.44h-.09Z"/><path class="cls-18" d="m48.45,255.11c0,.35-.18.53-.44.44-.24.05-.48-.11-.53-.35-.05-.24.11-.48.35-.53.06-.01.12-.01.18,0,.26,0,.53.09.53.44h-.09Z"/><path class="cls-18" d="m48.27,294.17c0,.35-.18.53-.44.53s-.44-.18-.44-.53.09-.44.44-.44.53.09.53.44h-.09Z"/><path class="cls-18" d="m51.78,294.09c0,.44-.18.61-.44.61s-.44-.18-.44-.53.26-.44.53-.44c.22-.02.41.13.44.35h-.09Z"/><path class="cls-18" d="m51.43,298.18c-.35,0-.61-.09-.61-.44s.18-.53.44-.53.44.18.44.53-.09.44-.35.44h.09Z"/><path class="cls-18" d="m50.03,255.11c.03.24-.12.46-.35.53-.26,0-.53-.09-.53-.44-.03-.24.12-.46.35-.53.35,0,.53.09.53.44Z"/><path class="cls-18" d="m49.59,293.91c-.26,0-.44-.09-.53-.44s.09-.53.44-.53.53.18.53.44c.02.23-.16.42-.38.44-.02,0-.04,0-.05,0v.09Z"/><path class="cls-18" d="m47.05,296.43c-.35,0-.44-.18-.44-.53s.18-.44.53-.44.44.18.44.53-.18.44-.53.44Z"/><path class="cls-18" d="m52.04,295.49c.35,0,.53.09.53.35s-.09.53-.44.53c-.24.03-.46-.12-.53-.35,0-.35.09-.53.35-.53h.09Z"/><path class="cls-18" d="m49.59,291.98c-.19-.01-.34-.16-.35-.35,0-.18.09-.26.35-.26.18-.02.34.12.35.3,0,.02,0,.04,0,.05,0,.18-.09.26-.35.26Z"/><path class="cls-19" d="m49.06,296.28c-.05.25-.27.43-.53.44-.26,0-.44-.18-.35-.53s.18-.44.44-.44.35.26.44.44v.09Z"/><path class="cls-19" d="m49.76,296.63c.23-.02.42.16.44.38,0,.02,0,.04,0,.05,0,.26,0,.44-.35.44s-.53-.09-.53-.35h0c0-.26.18-.35.44-.44v-.09Z"/><path class="cls-19" d="m49.68,295.05c-.02.23-.2.42-.44.44-.22.02-.41-.13-.44-.35h0c.03-.26.26-.46.53-.44.26,0,.35.18.35.44v-.09Z"/><path class="cls-18" d="m50.64,296.1c-.35,0-.44-.18-.35-.35s.18-.44.44-.35c.19.01.34.16.35.35v.09c-.01.19-.16.34-.35.35l-.09-.09Z"/><path d="m21.39,264.84c2.31-.22,4.36,1.48,4.58,3.79,0,.03,0,.06,0,.09l.18,3.45-8.57.54-.18-3.45c-.16-2.28,1.56-4.25,3.84-4.41.05,0,.1,0,.14,0Zm.15,1.87c-1.2-.05-2.22.88-2.27,2.08,0,.1,0,.21,0,.31l.07,1.5,4.8-.35-.07-1.5c-.05-1.26-1.11-2.23-2.37-2.18-.07,0-.13,0-.2.02l.03.12Z"/><path d="m18.37,262.9c-.62-.11-1.03-.7-.92-1.32.11-.62.7-1.03,1.32-.92.62.11,1.03.7.92,1.32h0c-.1.61-.67,1.03-1.29.93-.01,0-.02,0-.03,0Zm1.61.09l.31-1.78,5.99,1.04-.31,1.78-5.99-1.04Z"/><path d="m26.41,256.2c1.37.46,1.54,1.82,1.05,3.07-.29,1.04-1.16,1.82-2.22,2.01l-.32-1.77c.47.06.9-.25.98-.72.16-.42.11-.66-.16-.73-.68-.23-1.31,2.7-3.29,2.05-1.25-.49-1.51-1.7-1.1-2.99.28-.94,1.05-1.64,2.01-1.83l.25,1.72c-.37.04-.68.28-.82.62-.14.18-.1.44.09.58.01.01.03.02.05.03.68.23,1.24-2.74,3.37-2l.12-.03Z"/><path d="m29.52,249.25c1.45.87,1.92,2.76,1.05,4.21-.02.03-.03.05-.05.08-.38.58-.98.99-1.66,1.12l2.58,1.66-1.04,1.62-7.08-4.86.99-1.55.52.33c-.13-.67.01-1.37.4-1.93.99-1.34,2.89-1.62,4.23-.63.03.02.06.04.09.07l-.03-.12Zm-.99,1.55c-.66-.49-1.58-.35-2.07.31,0,0,0,.01-.01.02-.46.59-.36,1.44.22,1.91.05.04.1.07.15.1.66.49,1.58.35,2.07-.31,0,0,0-.01.01-.02.48-.54.43-1.37-.11-1.85-.08-.07-.16-.13-.25-.18v.02Z"/><path d="m26.57,244.12l1.31-1.24,6.12,6.53-1.31,1.24-6.12-6.53Z"/><path d="m36.8,240.18l3.18,5.26-1.56.97-.3-.5c-.14.67-.58,1.23-1.19,1.53-1.63.75-3.56.04-4.31-1.59-.64-1.39-.22-3.04,1.01-3.96.58-.38,1.3-.49,1.96-.3l-.3-.5,1.56-.97-.05.07Zm.01,3.55c-.38-.71-1.27-.98-1.98-.6-.02,0-.03.02-.05.03-.75.39-1.04,1.32-.65,2.07.39.75,1.32,1.04,2.07.65.75-.39,1.04-1.32.65-2.07-.01-.03-.03-.05-.04-.08Z"/><path d="m44.77,237.8l-.52,6.33c-.18,2.07-1.04,3.08-2.73,3.45l-.42-1.62c.71-.08,1.24-.69,1.21-1.41l-3.83-5.06,1.98-.5,2.29,3.24.15-3.96,1.91-.54-.05.07Z"/><path d="m57.06,245.88l-1.6-2.92-.33,2.68-1.81-.21,1.14-8.51,1.81.21-.71,5.08,2.19-2.39,2.17.31-2.6,2.72,1.85,3.38-2.05-.28-.04-.08Z"/><path d="m62.31,246c.41.17.88.17,1.29,0l1.03,1.33c-.89.54-2,.58-2.94.11-1.65-.53-2.56-2.31-2.03-3.96.03-.1.07-.19.11-.28.58-1.6,2.35-2.43,3.95-1.85.1.04.2.08.3.13,1.6.64,2.37,2.46,1.73,4.06-.02.04-.03.08-.05.12-.07.24-.26.44-.33.68l-4.02-1.69c-.01.63.41,1.19,1.03,1.33l-.08.04Zm1.9-1.64c.07-.61-.25-1.19-.8-1.46-.55-.28-1.23-.13-1.59.37l2.43.97-.03.12Z"/><path d="m73.1,247.29l-5.28,3.49c-1.76,1.16-3.1,1.09-4.39,0l1.05-1.37c.5.51,1.3.55,1.85.09l1.54-6.13,1.65,1.19-1.19,3.85,3.13-2.31,1.53,1.16.12.03Z"/><path d="m75.88,255.65c-1.27,1.08-3.18.93-4.26-.35-.02-.03-.05-.05-.07-.08-.46-.52-.65-1.22-.54-1.9l-2.4,1.81-1.11-1.49,6.87-5.15,1.11,1.49-.54.29c.69.11,1.3.5,1.69,1.07.95,1.37.6,3.26-.77,4.2-.03.02-.06.04-.09.06l.12.03Zm-1.11-1.49c.63-.41.81-1.26.4-1.89-.04-.06-.08-.11-.12-.16-.38-.63-1.2-.83-1.83-.44-.08.05-.15.1-.22.17-.63.41-.81,1.26-.4,1.89.04.06.08.11.12.16.38.63,1.2.83,1.83.44.08-.05.15-.1.22-.17h0Z"/><path d="m81.53,261.75l-5.76,2.05-.65-1.74.46-.25c-.65-.2-1.14-.74-1.27-1.4-.41-1.75.67-3.51,2.43-3.92,1.49-.35,3.03.39,3.69,1.77.29.63.24,1.37-.12,1.96l.46-.25c.04.08.69,1.82.69,1.82l.08-.04Zm-3.47-.7c.71-.18,1.15-.9.97-1.62-.02-.09-.05-.18-.09-.26-.25-.74-1.05-1.15-1.79-.9-.03,0-.05.02-.08.03-.71.18-1.15.9-.97,1.62.02.09.05.18.09.26.26.74,1.07,1.13,1.81.87.01,0,.03,0,.04-.01h.03Z"/><path d="m84.73,270.57l-8.57.39-.11-1.84.59-.02c-.55-.41-.85-1.09-.77-1.77.02-1.7,1.4-3.07,3.1-3.09,1.66-.17,3.14,1.04,3.31,2.7,0,.03,0,.05,0,.08.05.69-.19,1.37-.68,1.87l3.01-.15.11,1.84Zm-5.59-1.64c.81,0,1.47-.64,1.47-1.45,0-.02,0-.04,0-.05,0-.76-.63-1.37-1.39-1.36-.05,0-.1,0-.15,0-.81,0-1.47.64-1.47,1.45,0,.02,0,.04,0,.05,0,.76.63,1.37,1.39,1.36.05,0,.1,0,.15,0h0Z"/></svg>