<?xml version="1.0" encoding="UTF-8"?><svg id="Layer_1" xmlns="http://www.w3.org/2000/svg" viewBox="0 0 400 400"><defs><style>.cls-1{fill:#009245;}.cls-2{stroke:#a5262d;}.cls-2,.cls-3,.cls-4{stroke-width:4px;}.cls-2,.cls-3,.cls-4,.cls-5{fill:none;stroke-miterlimit:10;}.cls-3{stroke:#000;}.cls-6{fill:#fff;}.cls-7{fill:#4fb76a;}.cls-8{fill:#349951;}.cls-9{fill:#cfe1ed;}.cls-10{fill:#143441;}.cls-11{fill:#a7c1e0;}.cls-12{fill:#546e7a;}.cls-4{stroke:#c000e2;}.cls-13{fill:#0d202b;}.cls-14{fill:#cbdde9;}.cls-15{fill:#fedd46;}.cls-16{fill:#369754;}.cls-17{fill:#163842;}.cls-18{fill:#fdd782;}.cls-19{fill:#ffed58;}.cls-20{fill:#caa158;}.cls-5{stroke:#231f20;stroke-width:2px;}.cls-21{fill:gray;}.cls-22{fill:#36464e;}.cls-23{fill:#183c43;}.cls-24{fill:#788f9b;}.cls-25{fill:#29abe2;}.cls-26{fill:#fbd734;}.cls-27{fill:#cadce8;}.cls-28{fill:#51b66c;}.cls-29{fill:#231f20;}.cls-30{fill:#153642;}</style></defs><circle class="cls-2" cx="201.49" cy="194.85" r="42.78"/><path class="cls-7" d="m180.95,225.94c-.57-.57-1.14-1.14-1.71-1.71-.19-.19-.29-.38-.29-.67v-36.32c0-.29,0-.57.29-.86.86-.95,1.81-1.81,2.66-2.76.19-.19.38-.29.57-.29h35.94c.19,0,.38,0,.48.19.57.57,1.14,1.14,1.71,1.71v36.79c0,.38-.1.57-.38.86-.76.76-1.52,1.62-2.28,2.38-.29.29-.57.48-.95.48h-35.56c-.19,0-.38,0-.57.1l.1.1Zm13.03-4.28h2.38v1.81q0,1.05,1.05,1.05c.29,0,.38-.1.38-.38v-2.47h2.38v1.81q0,1.05,1.05,1.05c.29,0,.38-.1.38-.38v-2.47h2.38v1.81q0,1.05,1.05,1.05c.29,0,.38,0,.38-.38v-2.57h2.38v1.9q0,1.05,1.05,1.05c.38,0,.48-.1.48-.48v-2.47h2.38v1.81q0,1.14,1.14,1.05c.29,0,.38-.1.38-.38v-2.47h2.38v1.81q0,1.14,1.14,1.05c.29,0,.38,0,.38-.38v-2.47c.19,0,.38,0,.38-.29h1.71q1.05,0,1.05-1.05c0-.29-.1-.38-.38-.38h-2.38v-2.38h1.71q1.05,0,1.05-1.05c0-1.05-.1-.48-.38-.48h-2.38v-2.38h1.71c1.24,0,1.05.19,1.05-1.05,0-.29,0-.38-.38-.38h-2.38v-2.38h1.71c1.24,0,1.05.19,1.05-1.05,0-.29-.1-.38-.38-.38h-2.38v-2.38h1.71c1.24,0,1.05.19,1.05-1.05,0-.29-.1-.38-.38-.38h-2.38v-2.38h1.71q1.14,0,1.05-1.14c0-.29-.1-.29-.38-.29h-2.47v-2.38h1.71q1.14,0,1.05-1.14c0-.29-.1-.29-.38-.29h-2.47v-2.38h1.71q1.14,0,1.05-1.14c0-.29-.1-.29-.38-.29h-2.47v-2.38h1.71q1.14,0,1.05-1.14c0-.29-.1-.29-.38-.29h-2.47c0-.29-.1-.38-.38-.38v-1.71q0-1.14-1.14-1.05c-.29,0-.29.1-.29.38v2.47h-2.38v-1.71q0-1.14-1.14-1.05c-.29,0-.29.1-.29.38v2.47h-2.38v-1.71q0-1.14-1.14-1.05c-.29,0-.29.1-.29.38v2.47h-2.38v-1.71q0-1.14-1.14-1.05c-.29,0-.29.1-.29.38v2.47h-2.38v-1.71q0-1.14-1.14-1.05c-.29,0-.29.1-.29.38v2.47h-2.38v-1.81q0-1.14-1.14-1.05c-.29,0-.29.1-.29.38v2.47h-2.38v-1.81q0-1.14-1.14-1.05c-.29,0-.29.1-.29.38v2.47h-2.38v-1.81c0-1.14,0-1.05-1.14-1.05-.29,0-.29.1-.29.38v2.47h-2.38v-1.81c0-1.14,0-1.05-1.14-1.05-.29,0-.29.1-.29.38v2.47h-.57c-.29,0-.38,0-.38.38h-1.14q-1.14,0-1.05,1.14c0,.19.1.29.29.29h1.9v2.38h-1.14q-1.14,0-1.05,1.14c0,.19.1.29.29.29h1.9v2.38h-1.14q-1.14,0-1.05,1.14c0,.19.1.29.29.29h1.9v2.38h-1.14q-1.14,0-1.05,1.14c0,.29.1.29.29.29h1.9v2.38h-1.14q-1.14,0-1.14,1.14c0,.19,0,.29.29.29h1.9v2.38h-1.14q-1.14,0-1.14,1.14c0,.29.1.29.38.29h1.81v2.38h-1.14q-1.14,0-1.14,1.14c0,.29.1.29.38.29h1.81v2.38h-1.14q-1.14,0-1.05,1.14c0,.29.1.29.38.29h1.81v2.38h-1.14q-1.14,0-1.05,1.14c0,.29.1.29.38.29h1.81c0,.19,0,.29.29.29h.67v1.81q0,1.14,1.14,1.05c.29,0,.29-.1.29-.38v-2.57h2.38v1.81q0,1.14,1.14,1.05c.29,0,.29-.1.29-.38v-2.57h2.38v1.81q0,1.05,1.05,1.05c.29,0,.38-.1.38-.38v-2.47l.38-.1Z"/><path class="cls-8" d="m180.95,225.94c.19-.19.38-.1.57-.1h35.56c.48,0,.67-.19.95-.48.76-.86,1.52-1.62,2.28-2.38.29-.29.38-.48.38-.86v-36.79c.48.38.86.86,1.33,1.24.19.19.1.38.1.57v36.51c0,.29,0,.48-.29.76-.86.86-1.71,1.81-2.47,2.66-.19.19-.38.29-.57.29h-36.13c-.19,0-.38,0-.57-.19-.38-.38-.76-.76-1.05-1.14l-.1-.1Z"/><path class="cls-9" d="m212.99,189.05h2.76v8.27c0,3.52.19,7.13-.19,10.65-.19,1.62-.48,3.23-1.05,4.75-.19.57-.48,1.14-.86,1.71v-20.54c0-.48.19-1.05,0-1.24-.29-.19-.86,0-1.33,0h-24.24c-.38,0-.48.1-.48.48v24.53c0,.38.1.48.48.48h21.96c-.48.19-.86.48-1.33.67-2.38.95-4.94,1.43-7.51,1.43h-17.11v-30.71c0-.29,0-.38.38-.38h28.62l-.1-.1Z"/><path class="cls-11" d="m183.99,220.14h17.11c2.57,0,5.13-.38,7.51-1.43.48-.19.86-.48,1.33-.67h3.33c.29,0,.38,0,.38-.38v-3.23c.38-.48.67-1.05.86-1.71.57-1.52.95-3.14,1.05-4.75.29-3.52.1-7.13.19-10.65v-8.27h1.05c.29,0,.38,0,.38.38v31.85c0,.29-.19.29-.38.29h-32.52c-.19,0-.29,0-.29-.29v-1.14Z"/><path class="cls-23" d="m211.47,221.57h1.43v2.47c0,.29,0,.38-.38.38q-1.14,0-1.14-1.05v-1.81h.1Z"/><path class="cls-17" d="m207.67,221.57h1.43v2.47c0,.29,0,.48-.48.48q-1.05,0-1.05-1.05v-1.81l.1-.1Z"/><path class="cls-17" d="m215.27,221.57h1.43v2.47c0,.29,0,.38-.38.38q-1.14,0-1.14-1.05v-1.81h.1Z"/><path class="cls-17" d="m209.19,189.05h-1.43v-2.47c0-.19,0-.38.29-.38q1.14,0,1.14,1.05v1.81Z"/><path class="cls-23" d="m212.99,189.05h-1.43v-2.47c0-.19,0-.29.29-.38q1.14,0,1.14,1.05v1.81Z"/><path class="cls-17" d="m216.79,189.05h-1.43v-2.47c0-.19,0-.29.29-.38q1.14,0,1.14,1.05v1.81Z"/><path class="cls-17" d="m217.17,213.68v-1.43h2.38c.29,0,.38.1.38.38,0,1.33.19,1.05-1.05,1.05h-1.71Z"/><path class="cls-17" d="m217.17,206.07v-1.43h2.38c.29,0,.38.1.38.38,0,1.33.19,1.05-1.05,1.05h-1.71Z"/><path class="cls-17" d="m217.17,209.87v-1.43h2.38c.29,0,.38.1.38.38,0,1.33.19,1.05-1.05,1.05h-1.71Z"/><path class="cls-17" d="m217.17,217.48v-1.43h2.38c.29,0,.38.1.38.48q0,1.05-1.05,1.05h-1.71v-.1Z"/><path class="cls-30" d="m184.94,221.57h1.43v2.57c0,.19,0,.38-.29.38q-1.14,0-1.14-1.05v-1.9Z"/><path class="cls-30" d="m188.75,221.57h1.43v2.57c0,.19,0,.38-.29.38q-1.14,0-1.14-1.05v-1.9Z"/><path class="cls-30" d="m196.35,221.57h1.43v2.47c0,.29,0,.38-.38.38q-1.05,0-1.05-1.05v-1.81Z"/><path class="cls-17" d="m200.06,221.57h1.43v2.47c0,.29,0,.38-.38.38q-1.05,0-1.05-1.05v-1.81Z"/><path class="cls-17" d="m203.86,221.57h1.43v2.57c0,.29,0,.38-.38.38q-1.05,0-1.05-1.05v-1.9Z"/><path class="cls-30" d="m192.55,221.57h1.43v2.47c0,.29,0,.38-.38.38q-1.05,0-1.05-1.05v-1.81Z"/><path class="cls-17" d="m217.17,202.27v-1.43h2.47c.19,0,.29,0,.38.29q0,1.14-1.05,1.14h-1.81Z"/><path class="cls-30" d="m217.17,194.66v-1.43h2.47c.19,0,.29,0,.38.29q0,1.14-1.05,1.14h-1.81Z"/><path class="cls-30" d="m217.17,198.46v-1.43h2.47c.19,0,.29,0,.38.29q0,1.14-1.05,1.14h-1.81Z"/><path class="cls-30" d="m217.17,190.86v-1.43h2.47c.19,0,.29,0,.38.29q0,1.14-1.05,1.14h-1.81Z"/><path class="cls-17" d="m205.29,189.05h-1.43v-2.47c0-.19,0-.38.29-.38q1.14,0,1.14,1.05v1.81Z"/><path class="cls-30" d="m197.68,189.05h-1.43v-2.47c0-.19,0-.38.29-.38q1.14,0,1.14,1.05v1.81Z"/><path class="cls-17" d="m217.17,221.28v-1.43h2.38c.29,0,.38,0,.38.38q0,1.05-1.05,1.05h-1.71Z"/><path class="cls-30" d="m201.49,189.05h-1.43v-2.47c0-.19,0-.29.29-.38q1.14,0,1.14,1.05v1.81Z"/><path class="cls-30" d="m193.88,189.05h-1.43v-2.47c0-.19,0-.38.29-.38q1.14,0,1.14,1.05v1.81Z"/><path class="cls-10" d="m190.08,189.05h-1.43v-2.47c0-.19,0-.38.29-.38q1.14,0,1.14,1.05v1.81Z"/><path class="cls-10" d="m186.27,189.05h-1.43v-2.47c0-.19,0-.38.29-.38q1.14,0,1.14,1.05v1.81Z"/><path class="cls-17" d="m183.9,208.45v1.43h-1.81c-.19,0-.38,0-.38-.29q0-1.14,1.14-1.14h1.14-.1Z"/><path class="cls-17" d="m183.9,212.25v1.43h-1.81c-.19,0-.38,0-.38-.29q0-1.14,1.14-1.14h1.14-.1Z"/><path class="cls-17" d="m183.9,216.05v1.43h-1.81c-.19,0-.38,0-.38-.29q0-1.14,1.05-1.14h1.14Z"/><path class="cls-17" d="m183.9,204.64v1.43c-.67.1-1.24,0-1.9,0-.19,0-.29,0-.29-.29q0-1.14,1.14-1.14h1.14-.1Z"/><path class="cls-30" d="m183.9,197.04v1.43h-1.9c-.19,0-.29,0-.29-.29q0-1.14,1.05-1.14h1.14Z"/><path class="cls-30" d="m183.9,193.24v1.43h-1.9c-.19,0-.29,0-.29-.29q0-1.14,1.05-1.14h1.14Z"/><path class="cls-10" d="m183.9,189.43v1.43h-1.9c-.19,0-.29,0-.29-.29q0-1.14,1.05-1.14h1.14Z"/><path class="cls-30" d="m183.9,200.84v1.43h-1.9c-.19,0-.29,0-.29-.29q0-1.14,1.05-1.14h1.14Z"/><path class="cls-17" d="m183.99,220.14v1.14h-1.9c-.19,0-.29,0-.38-.29q0-1.14,1.05-1.14h1.14v.29h.1Z"/><path class="cls-10" d="m187.51,216.62v-23.58c0-.38.1-.48.48-.48h24.24v4.28c0,3.04.1,6.18,0,9.22,0,1.24-.38,2.47-.86,3.61-.67,1.71-1.71,3.23-3.14,4.37-2.28,1.81-4.94,2.38-7.7,2.47h-12.93l-.1.1Zm13.69-4.94h2.09v2.57q0,1.05,1.05,1.05c.29,0,.38-.1.38-.38v-3.23h2.19c.29,0,.38,0,.38-.38v-1.71h2.09q1.05,0,1.05-1.05c0-.29-.1-.38-.38-.38h-2.76v-2.09h2.09q1.05,0,1.05-1.05c0-.29-.1-.38-.38-.38h-2.76v-2.09h2.09q1.05,0,1.05-1.05c0-.29-.1-.38-.38-.38h-2.76v-1.81c0-.29,0-.38-.29-.38h-2.28v-2.47q0-1.05-1.05-1.05c-.29,0-.38,0-.38.38v3.14h-2.09v-2.47q0-1.05-1.05-1.05c-.29,0-.38,0-.38.38v3.14h-2.09v-2.47q0-1.05-1.05-1.05c-.29,0-.38,0-.38.38v3.14h-2c-.29,0-.38,0-.38.38v1.81h-2.19q-1.05,0-1.05,1.05c0,.29.1.38.38.38h2.95v2.09h-2.19q-1.05,0-1.05,1.05c0,.29.1.38.38.38h2.95v2.09h-2.19q-1.05,0-1.05,1.05c0,.29.1.38.38.38h2.95v1.81q0,.29.38.29h2.09v2.57q0,1.05,1.05,1.05c.29,0,.38-.1.38-.38v-3.23h2.09v2.57q0,1.05,1.05,1.05c.29,0,.38-.1.38-.38v-3.23h-.38Z"/><path class="cls-13" d="m187.51,216.62h12.93c2.76,0,5.42-.67,7.7-2.47,1.52-1.14,2.47-2.66,3.14-4.37.48-1.14.76-2.38.86-3.61.19-3.04,0-6.18,0-9.22v-4.28c.48,0,1.05-.19,1.33,0,.29.19,0,.86,0,1.24v23.77c0,.29,0,.38-.38.38h-25.29c-.38,0-.57,0-.48-.48v-.95h.19Z"/><path class="cls-28" d="m193.79,201.13v-1.81c0-.29,0-.38.38-.38h11.6c0,2.28.1,4.56-.1,6.75-.1,1.05-.48,2.09-1.33,2.85v-6.47c0-.29,0-.48-.38-.38h-7.04q-.29,0-.29.29v6.28c0,.38.1.48.48.48h7.04c-.1.19-.19.29-.38.38-1.05.76-2.19,1.05-3.42,1.05h-6.47v-9.13l-.1.1Z"/><path class="cls-16" d="m193.88,210.25h6.47c1.24,0,2.38-.29,3.42-1.05.19-.1.29-.19.38-.38.1,0,.19-.19.29-.29.86-.76,1.14-1.81,1.33-2.85.19-2.28,0-4.47.1-6.75h1.14c.29,0,.29.1.29.38v11.98c0,.29-.1.38-.38.38h-12.74c-.29,0-.38,0-.38-.29v-1.14h.1Z"/><path class="cls-14" d="m203.29,211.68h1.43v3.23c0,.29,0,.38-.38.38q-1.05,0-1.05-1.05v-2.57Z"/><path class="cls-27" d="m199.78,211.68h1.43v3.23c0,.29,0,.38-.38.38q-1.05,0-1.05-1.05v-2.57Z"/><path class="cls-14" d="m196.26,211.68h1.43v3.23c0,.29,0,.38-.38.38q-1.05,0-1.05-1.05v-2.57Z"/><path class="cls-14" d="m197.59,198.94h-1.43v-3.14c0-.29,0-.38.38-.38q1.05,0,1.05,1.05v2.47Z"/><path class="cls-14" d="m201.2,198.94h-1.43v-3.14c0-.29,0-.38.38-.38q1.05,0,1.05,1.05v2.47Z"/><path class="cls-9" d="m204.72,198.94h-1.43v-3.14c0-.29,0-.38.38-.38q1.05,0,1.05,1.05v2.47Z"/><path class="cls-9" d="m193.79,208.16v1.43h-2.95c-.29,0-.38,0-.38-.38q0-1.05,1.05-1.05h2.28Z"/><path class="cls-9" d="m193.79,204.64v1.43h-2.95c-.29,0-.38,0-.38-.38q0-1.05,1.05-1.05h2.28Z"/><path class="cls-14" d="m193.79,201.13v1.43h-2.95c-.29,0-.38,0-.38-.38q0-1.05,1.05-1.05h2.28Z"/><path class="cls-27" d="m207.29,206.07v-1.43h2.76c.29,0,.38,0,.38.38q0,1.05-1.05,1.05h-2.09Z"/><path class="cls-27" d="m207.29,202.55v-1.43h2.76c.29,0,.38,0,.38.38q0,1.05-1.05,1.05h-2.09Z"/><path class="cls-9" d="m207.29,209.59v-1.43h2.76c.29,0,.38,0,.38.38q0,1.05-1.05,1.05h-2.09Z"/><path class="cls-18" d="m196.64,207.5v-5.32q0-.29.29-.29h5.99v2.95c0,.57-.1,1.05-.48,1.52-.57.86-1.52,1.14-2.47,1.14h-3.42.1Z"/><path class="cls-20" d="m196.64,207.5h3.42c.95,0,1.9-.29,2.47-1.14.29-.48.48-.95.48-1.52v-2.95h1.05c.38,0,.38.1.38.38v6.47c0,.1-.19.19-.29.29h-7.04c-.38,0-.57,0-.48-.48v-1.05Z"/><path d="m177.91,172.98c-2-3.14-1.14-7.04,2.09-9.03,2-1.24,4.28-1.33,6.18-.38l-1.33,2.57c-.95-.57-2.19-.48-3.33.19-1.9,1.14-2.38,3.23-1.14,5.13,1.14,1.9,3.23,2.47,5.13,1.24,1.05-.67,1.71-1.71,1.71-2.85h2.85c0,2-1.14,4.09-3.04,5.23-3.23,2-7.13,1.05-9.03-2.09h-.1Z"/><path d="m199.49,165.19l1.05,5.42-2.66.48-.95-5.04c-.19-1.14-.95-1.52-1.81-1.33-.95.19-1.52.86-1.33,2.09l.86,4.85-2.66.48-2.28-12.45,2.66-.48.86,4.37c.38-.76,1.14-1.33,2.38-1.52,1.81-.38,3.52.67,3.99,3.04l-.1.1Z"/><path d="m202.15,161.86l2.66.19-.48,9.03-2.66-.19.48-9.03Zm-.1-2.47c0-.86.86-1.62,1.71-1.52.86,0,1.62.86,1.52,1.71,0,.86-.86,1.62-1.71,1.52-.86,0-1.62-.86-1.52-1.71Z"/><path d="m216.32,169.47c-.76,2.57-3.33,3.99-5.51,3.23-1.14-.38-1.9-1.05-2.28-1.9l-1.33,4.28-2.57-.86,3.8-12.07,2.57.86-.29.86c.76-.48,1.71-.57,2.85-.29,2.28.67,3.52,3.23,2.66,5.8l.1.1Zm-2.57-.86c.38-1.33-.19-2.38-1.43-2.76s-2.28.19-2.66,1.43c-.38,1.33.19,2.38,1.43,2.76s2.28-.19,2.76-1.43h-.1Z"/><path d="m222.59,176.03c-1.14,1.71-3.14,1.43-4.75.29-1.52-1.05-2.19-2.38-2-3.99l2.66.29c-.19.67,0,1.33.67,1.71.57.38.95.38,1.14.1.57-.86-3.33-2.95-1.62-5.51,1.14-1.62,3.04-1.52,4.56-.38,1.24.86,1.9,2.09,1.81,3.61l-2.57-.29c0-.57,0-1.05-.57-1.33-.38-.29-.76-.29-.95,0-.57.86,3.42,2.85,1.52,5.61l.1-.1Z"/><circle class="cls-4" cx="185.1" cy="338.8" r="42.78"/><path d="m151.73,336.42c-2.47-.48-4.09-2.76-3.52-5.32.29-1.52,1.33-2.76,2.66-3.23l.67,1.9c-.76.29-1.24.86-1.43,1.81-.29,1.52.48,2.66,2,2.95,1.52.29,2.76-.48,3.04-2,.19-.86,0-1.71-.67-2.19l1.33-1.52c1.05.95,1.52,2.47,1.24,3.99-.48,2.57-2.76,3.99-5.32,3.52v.1Z"/><path d="m154.96,327.77c-1.62-.86-2.28-2.76-1.52-4.37s2.76-2.28,4.37-1.52c1.62.86,2.28,2.76,1.52,4.37-.76,1.62-2.76,2.28-4.37,1.52Zm2.09-4.18c-.76-.38-1.62,0-1.9.67s-.1,1.52.67,1.9c.76.38,1.62,0,1.9-.67.38-.76.1-1.52-.67-1.9Z"/><path d="m164.18,313.32l2.76,2.57-1.24,1.33-2.66-2.47c-.48-.38-.95-.48-1.33,0s-.38,1.05.19,1.52l2.57,2.38-1.24,1.33-2.66-2.47c-.48-.38-.95-.48-1.33,0s-.38,1.05.19,1.52l2.57,2.38-1.24,1.33-4.56-4.18,1.24-1.33.38.38c-.1-.48,0-1.14.57-1.71.48-.57,1.05-.76,1.71-.67-.1-.57,0-1.24.57-1.9.95-1.05,2.38-1.05,3.52,0Z"/><path d="m169.51,307.33l3.23,5.32-1.62.95-.29-.48c0,.57-.38,1.14-1.14,1.52-1.05.67-2.47.48-3.33-.95l-2-3.23,1.62-.95,1.81,3.04c.38.67.95.76,1.52.38s.76-.95.29-1.71l-1.71-2.85,1.62-.95v-.1Z"/><path d="m177.97,306.76l1.14,3.61-1.81.57-1.05-3.33c-.19-.76-.76-.95-1.33-.76-.67.19-.95.76-.67,1.52l1.05,3.23-1.81.57-1.9-5.89,1.81-.57.19.57c.19-.57.67-1.05,1.43-1.24,1.14-.38,2.47.19,2.95,1.71Z"/><path d="m178.83,302.67c0-.57.38-1.14.95-1.24.57,0,1.14.38,1.24.95,0,.57-.38,1.14-.95,1.24-.57,0-1.14-.38-1.24-.95Zm.38,1.62l1.81-.29.86,6.08-1.81.29-.86-6.08Z"/><path d="m182.72,306.86c0-1.81,1.43-3.23,3.33-3.23,1.24,0,2.28.67,2.76,1.62l-1.62.95c-.19-.48-.67-.67-1.14-.76-.76,0-1.43.57-1.43,1.43s.57,1.43,1.33,1.43c.57,0,1.05-.29,1.24-.67l1.62.95c-.57.95-1.62,1.52-2.85,1.52-1.9,0-3.23-1.52-3.23-3.33v.1Z"/><path d="m196.51,305.52l-1.52,5.99-1.81-.48v-.57c-.38.38-1.05.48-1.81.29-1.62-.38-2.57-2.09-2.09-3.9s2.09-2.85,3.61-2.47c.76.19,1.33.57,1.62,1.14v-.57c.1,0,1.9.48,1.9.48l.1.1Zm-2.57,2.57c.19-.86-.29-1.62-1.05-1.81-.86-.19-1.52.19-1.81,1.14-.19.86.29,1.62,1.05,1.81.86.19,1.52-.19,1.81-1.14Z"/><path d="m199.93,309.04l-.95,2c-.19.48.19.76.95,1.05l-.76,1.52c-2.28-.86-2.66-1.81-1.9-3.33l.95-2-.86-.38.76-1.62.86.38.48-1.05,1.9.29-.76,1.52,1.14.57-.76,1.62-1.14-.57h.1Z"/><path d="m203.17,308.76l1.52.95-3.33,5.23-1.52-.95,3.33-5.23Zm.76-1.52c.29-.48,1.05-.67,1.52-.38.48.29.67,1.05.38,1.52s-1.05.67-1.52.38c-.48-.29-.67-1.05-.38-1.52Z"/><path d="m204.21,313.04c1.24-1.33,3.23-1.43,4.66-.19,1.33,1.24,1.43,3.23.19,4.66-1.24,1.33-3.23,1.43-4.66.19-1.33-1.24-1.43-3.23-.19-4.66Zm3.52,3.14c.57-.67.57-1.52,0-2-.57-.57-1.43-.57-2,.1s-.57,1.52,0,2,1.43.57,2-.1Z"/><path d="m213.81,322.92l-3.14,2.09-1.05-1.52,2.95-2c.67-.48.67-1.05.29-1.52-.38-.57-.95-.76-1.71-.19l-2.76,1.9-1.05-1.52,5.13-3.52,1.05,1.52-.48.29c.57,0,1.14.38,1.62,1.05.67,1.05.57,2.38-.86,3.33v.1Z"/><path d="m215.62,330.24c-1.81.67-3.23-.29-3.8-1.9-.48-1.24-.38-2.57.57-3.52l1.52,1.24c-.48.38-.67.86-.38,1.62.29.76.86.95,1.33.76s.76-.67.48-1.43l-.95-2.57,4.75-1.52,1.81,4.66-1.71.67-1.14-2.95-1.14.38.29.67c.57,1.52.19,3.14-1.62,3.8v.1Z"/><path d="m218.28,339.85c-2.66.29-4.37-1.43-4.66-3.8-.29-2.66,1.52-4.85,3.99-5.13,2.47-.29,4.66,1.52,4.94,4.09.19,1.62-.48,3.14-1.62,3.99l-1.14-1.62c.57-.38.86-1.24.76-2.19-.19-1.43-1.33-2.38-2.85-2.28-1.43.19-2.47,1.33-2.28,2.95.1,1.14.67,1.81,1.52,2.09l-.29-2.28,1.71-.19.48,4.28h-.76l.19.1Z"/><path class="cls-15" d="m196.42,326.54c-8.08-.19-16.92-.19-25,0-14.07,1.81-20.92,19.87-11.03,30.23,2.09,3.14-1.52,9.03,2.19,11.22,3.14.95,4.94-3.23,7.04-4.85,8.75-.95,19.3.48,28.33-.48,21.01-2.76,19.68-35.37-1.52-36.32v.19Z"/><path d="m175.59,342.03c1.62,0,3.04.48,4.18,1.43s1.62,2.38,1.62,4.09-.57,3.23-1.81,4.28c-1.24,1.05-2.66,1.52-4.47,1.52s-2.76-.29-3.9-.95c-1.14-.67-1.9-1.62-2.38-2.85l3.8-2.19c.38,1.14,1.14,1.81,2.47,1.81s1.05-.1,1.43-.38c.29-.29.48-.67.48-1.14s-.19-.86-.48-1.14-.76-.38-1.33-.38h-5.42l.67-9.98h9.98v4.18h-5.99v1.81c-.1,0,1.05,0,1.05,0l.1-.1Z"/><path d="m200.03,343.27v1.71c0,2.47-.76,4.47-2.38,6.08-1.52,1.52-3.61,2.28-6.08,2.28s-4.85-.86-6.56-2.57c-1.71-1.71-2.57-3.8-2.57-6.28s.86-4.56,2.57-6.28,3.8-2.57,6.28-2.57,3.04.38,4.37,1.05c1.33.67,2.38,1.62,3.04,2.85l-3.71,2.09c-.38-.57-.86-.95-1.52-1.24s-1.43-.48-2.19-.48c-1.33,0-2.47.48-3.33,1.33s-1.33,2-1.33,3.33.38,2.38,1.24,3.33c.86.95,2,1.33,3.61,1.33s3.23-.76,3.9-2.19h-4.09v-3.71h8.56l.19-.1Z"/><circle class="cls-4" cx="341.88" cy="248.24" r="42.78"/><path d="m308.22,245.86c-2.38-.48-3.8-2.66-3.23-5.04.29-1.43,1.33-2.57,2.57-3.04l.57,1.81c-.67.19-1.24.86-1.43,1.62-.29,1.43.48,2.57,1.9,2.85,1.43.29,2.57-.38,2.85-1.81.19-.76,0-1.62-.57-2.09l1.24-1.33c.95.95,1.43,2.38,1.14,3.8-.57,2.38-2.66,3.71-5.04,3.23Z"/><path d="m311.36,237.78c-1.52-.76-2.09-2.57-1.33-4.18.76-1.52,2.57-2.19,4.09-1.43,1.52.76,2.09,2.57,1.33,4.18-.76,1.52-2.57,2.19-4.09,1.43Zm2-3.99c-.76-.38-1.52,0-1.81.57s-.1,1.43.67,1.81c.76.38,1.52,0,1.81-.57.38-.67.1-1.43-.67-1.81Z"/><path d="m320.1,224.18l2.66,2.38-1.14,1.33-2.57-2.28c-.48-.38-.86-.48-1.24,0s-.29.95.19,1.43l2.47,2.19-1.14,1.33-2.57-2.28c-.48-.38-.86-.48-1.24,0s-.29.95.19,1.43l2.47,2.19-1.14,1.33-4.28-3.9,1.14-1.33.38.38c-.1-.48,0-1.05.57-1.62.48-.48,1.05-.67,1.62-.57-.1-.57,0-1.14.57-1.81.86-.95,2.19-.95,3.23,0l-.19-.19Z"/><path d="m325.05,218.38l3.14,4.94-1.52.95-.29-.48c0,.57-.38,1.05-1.05,1.52-.95.67-2.28.48-3.14-.86l-1.9-3.04,1.52-.95,1.81,2.85c.38.57.95.67,1.43.38.57-.38.76-.86.29-1.62l-1.71-2.66,1.52-.95-.1-.1Z"/><path d="m332.94,217.72l1.24,3.33-1.62.57-1.14-3.14c-.29-.67-.76-.86-1.33-.67-.57.19-.86.76-.67,1.52l1.05,3.04-1.62.57-2-5.51,1.62-.57.19.48c.19-.48.57-.95,1.33-1.24,1.14-.38,2.38,0,2.85,1.52l.1.1Z"/><path d="m333.6,213.72c-.1-.57.29-1.14.86-1.24s1.14.29,1.24.86c.1.57-.29,1.14-.86,1.24-.57.1-1.14-.29-1.24-.86Zm.48,1.52l1.71-.29,1.05,5.7-1.71.29-1.05-5.7Z"/><path d="m337.41,217.53c0-1.71,1.24-3.14,2.95-3.14,1.14,0,2.19.57,2.66,1.43l-1.52.95c-.19-.38-.67-.67-1.14-.67-.76,0-1.33.57-1.24,1.43,0,.76.57,1.33,1.33,1.33.48,0,.95-.29,1.14-.67l1.52.86c-.48.95-1.43,1.52-2.57,1.62-1.81,0-3.14-1.24-3.14-2.95v-.19Z"/><path d="m350.34,215.62l-1.05,5.7-1.71-.29v-.57c-.38.38-.95.57-1.71.38-1.52-.29-2.47-1.81-2.19-3.52s1.81-2.76,3.33-2.57c.76.1,1.24.48,1.62,1.05v-.57c.1,0,1.81.29,1.81.29l-.1.1Zm-2.28,2.57c.19-.86-.29-1.52-1.14-1.62s-1.43.29-1.62,1.14c-.19.86.29,1.52,1.14,1.62.76.19,1.43-.29,1.62-1.14Z"/><path d="m353.76,218.67l-.76,1.9c-.19.48.19.67.95.95l-.57,1.52c-2.19-.57-2.57-1.52-2-3.04l.76-1.9-.86-.38.57-1.52.86.38.38-1.05,1.81.19-.57,1.52,1.14.48-.57,1.52-1.14-.48v-.1Z"/><path d="m356.8,218.19l1.52.86-2.76,5.13-1.52-.86,2.76-5.13Zm.57-1.43c.29-.48.95-.67,1.43-.48.48.29.67.95.48,1.43-.29.48-.95.67-1.43.48s-.67-.95-.48-1.43Z"/><path d="m358.04,222.09c1.05-1.33,2.95-1.62,4.28-.57s1.62,2.95.57,4.28-2.95,1.62-4.28.57-1.62-2.95-.57-4.28Zm3.52,2.66c.48-.67.38-1.43-.19-1.9s-1.43-.38-1.9.29c-.48.67-.38,1.43.19,1.9s1.43.38,1.9-.29Z"/><path d="m367.93,230.65l-2.76,2.28-1.14-1.33,2.57-2.09c.57-.48.57-1.05.19-1.43-.38-.48-.95-.57-1.62,0l-2.47,2-1.14-1.33,4.47-3.71,1.14,1.33-.38.38c.57,0,1.14.19,1.62.86.76.95.76,2.19-.48,3.23v-.19Z"/><path d="m369.45,238.35l-.38-.76-1.14.57-.86-1.71,1.14-.57-1.71-3.33,1.52-.76h5.7l.95,1.71h-5.7l.76,1.52,1.52-.76.86,1.71-1.52.76.38.76-1.52.76v.1Z"/><path d="m374.01,246.24c-2.47.57-4.28-.86-4.75-3.04-.57-2.47.86-4.75,3.14-5.23s4.56.95,5.04,3.23c.38,1.52-.1,2.95-1.05,3.9l-1.24-1.33c.48-.48.67-1.24.48-2.19-.29-1.33-1.52-2.09-2.95-1.81-1.33.29-2.09,1.43-1.81,3.04.19,1.05.86,1.62,1.71,1.81l-.48-2.09,1.62-.38.86,3.99-.67.19.1-.1Z"/><path class="cls-25" d="m353.09,236.83c-8.08-.19-16.92-.19-25,0-14.07,1.81-20.92,19.87-11.03,30.23,2.09,3.14-1.52,9.03,2.19,11.22,3.14.95,4.94-3.23,7.04-4.85,8.75-.95,19.3.48,28.33-.48,21.01-2.76,19.68-35.37-1.52-36.32v.19Z"/><path d="m339.02,256.79v3.99h-1.71v2.57h-4.28v-2.57h-7.42v-3.99l5.04-10.36h4.75l-5.13,10.46h2.66v-3.04h4.28v3.04h1.71l.1-.1Z"/><path d="m357.37,253.56v1.71c0,2.47-.76,4.47-2.38,6.08-1.52,1.52-3.61,2.28-6.08,2.28s-4.85-.86-6.56-2.57c-1.71-1.71-2.57-3.8-2.57-6.28s.86-4.56,2.57-6.28,3.8-2.57,6.28-2.57,3.04.38,4.37,1.05c1.33.67,2.38,1.62,3.04,2.85l-3.71,2.09c-.38-.57-.86-.95-1.52-1.24-.67-.29-1.43-.48-2.19-.48-1.33,0-2.47.48-3.33,1.33s-1.33,2-1.33,3.33.38,2.38,1.24,3.33c.86.95,2,1.33,3.61,1.33s3.23-.76,3.9-2.19h-4.09v-3.71h8.56l.19-.1Z"/><circle class="cls-4" cx="318.94" cy="103.52" r="42.78"/><path d="m285.94,100.19c-2.38-.48-3.8-2.66-3.23-5.04.29-1.43,1.33-2.57,2.57-3.04l.57,1.81c-.67.19-1.24.86-1.43,1.62-.29,1.43.48,2.57,1.9,2.85,1.43.29,2.57-.38,2.85-1.81.19-.76,0-1.62-.57-2.09l1.24-1.33c.95.95,1.43,2.38,1.14,3.8-.57,2.38-2.66,3.71-5.04,3.23Z"/><path d="m289.18,92.11c-1.52-.76-2.09-2.57-1.33-4.18.76-1.52,2.57-2.19,4.09-1.43,1.52.76,2.09,2.57,1.33,4.18-.76,1.52-2.57,2.19-4.09,1.43Zm2-3.99c-.76-.38-1.52,0-1.81.57-.38.67-.1,1.43.67,1.81s1.52,0,1.81-.57c.38-.67.1-1.43-.67-1.81Z"/><path d="m297.92,78.51l2.66,2.38-1.14,1.33-2.57-2.28c-.48-.38-.86-.48-1.24,0s-.29.95.19,1.43l2.47,2.19-1.14,1.33-2.57-2.28c-.48-.38-.86-.48-1.24,0s-.29.95.19,1.43l2.47,2.19-1.14,1.33-4.28-3.9,1.14-1.33.38.38c-.1-.48,0-1.05.57-1.62.48-.48,1.05-.67,1.62-.57-.1-.57,0-1.14.57-1.81.86-.95,2.19-.95,3.23,0l-.19-.19Z"/><path d="m302.77,72.71l3.14,4.94-1.52.95-.29-.48c0,.57-.38,1.05-1.05,1.52-.95.67-2.28.48-3.14-.86l-1.9-3.04,1.52-.95,1.81,2.85c.38.57.95.67,1.43.38.57-.38.76-.86.29-1.62l-1.71-2.66,1.52-.95-.1-.1Z"/><path d="m310.76,72.05l1.24,3.33-1.62.57-1.14-3.14c-.29-.67-.76-.86-1.33-.67-.57.19-.86.76-.67,1.52l1.05,3.04-1.62.57-2-5.51,1.62-.57.19.48c.19-.48.57-.95,1.33-1.24,1.14-.38,2.38,0,2.85,1.52l.1.1Z"/><path d="m311.33,68.05c-.1-.57.29-1.14.86-1.24s1.14.29,1.24.86c.1.57-.29,1.14-.86,1.24-.57.1-1.14-.29-1.24-.86Zm.48,1.52l1.71-.29,1.05,5.7-1.71.29-1.05-5.7Z"/><path d="m315.23,71.86c0-1.71,1.24-3.14,2.95-3.14,1.14,0,2.19.57,2.66,1.43l-1.52.95c-.19-.38-.67-.67-1.14-.67-.76,0-1.33.57-1.24,1.43,0,.76.57,1.33,1.33,1.33.48,0,.95-.29,1.14-.67l1.52.86c-.48.95-1.43,1.52-2.57,1.62-1.81,0-3.14-1.24-3.14-2.95v-.19Z"/><path d="m328.16,69.96l-1.05,5.7-1.71-.29v-.57c-.38.38-.95.57-1.71.38-1.52-.29-2.47-1.81-2.19-3.52.29-1.71,1.81-2.76,3.33-2.57.76.1,1.24.48,1.62,1.05v-.57c.1,0,1.81.29,1.81.29l-.1.1Zm-2.28,2.57c.19-.86-.29-1.52-1.14-1.62-.76-.19-1.43.29-1.62,1.14s.29,1.52,1.14,1.62c.76.19,1.43-.29,1.62-1.14Z"/><path d="m331.49,73l-.76,1.9c-.19.48.19.67.95.95l-.57,1.52c-2.19-.57-2.57-1.52-2-3.04l.76-1.9-.86-.38.57-1.52.86.38.38-1.05,1.81.19-.57,1.52,1.14.48-.57,1.52-1.14-.48v-.1Z"/><path d="m334.53,72.52l1.52.86-2.76,5.13-1.52-.86,2.76-5.13Zm.57-1.43c.29-.48.95-.67,1.43-.48.48.29.67.95.48,1.43-.29.48-.95.67-1.43.48-.48-.29-.67-.95-.48-1.43Z"/><path d="m335.76,76.42c1.05-1.33,2.95-1.62,4.28-.57,1.33,1.05,1.62,2.95.57,4.28-1.05,1.43-2.95,1.62-4.28.57-1.33-1.05-1.62-2.95-.57-4.28Zm3.52,2.66c.48-.67.38-1.43-.19-1.9s-1.43-.38-1.9.29-.38,1.43.19,1.9,1.43.38,1.9-.29Z"/><path d="m345.65,84.88l-2.76,2.28-1.14-1.33,2.57-2.09c.57-.48.57-1.05.19-1.43-.38-.48-.95-.57-1.62,0l-2.47,2-1.14-1.33,4.47-3.71,1.14,1.33-.38.38c.57,0,1.14.19,1.62.86.76.95.76,2.19-.48,3.23v-.19Z"/><path d="m348.12,91.54c-1.62.86-3.04,0-3.8-1.33-.57-1.14-.57-2.38.19-3.33l1.52.95c-.38.38-.48.86-.19,1.52.38.67.86.76,1.33.57s.67-.76.29-1.43l-.19-.38.57-1.14,2.38.48-1.43-2.66,1.52-.86,2.47,4.66-1.33.67-2.28-.38c.19,1.05-.19,2.09-1.24,2.57l.19.1Z"/><path d="m351.74,100.19c-2.47.57-4.28-.76-4.85-3.04-.57-2.47.86-4.75,3.14-5.23,2.28-.57,4.56.86,5.13,3.23.38,1.52-.1,2.95-1.05,3.9l-1.24-1.33c.48-.48.67-1.24.48-2.19-.29-1.33-1.52-2.09-2.95-1.81-1.33.29-2.09,1.52-1.81,3.04.29,1.05.86,1.62,1.71,1.71l-.48-2.09,1.62-.38.95,3.99-.67.19Z"/><path class="cls-1" d="m331.11,92.11c-8.08-.19-16.92-.19-25,0-14.07,1.81-20.92,19.87-11.03,30.23,2.09,3.14-1.52,9.03,2.19,11.22,3.14.95,4.94-3.23,7.04-4.85,8.75-.95,19.3.48,28.33-.48,21.01-2.76,19.68-35.37-1.52-36.32v.19Z"/><path d="m312.28,108.56c1.05.38,2,.95,2.66,1.71s.95,1.81.95,2.95c0,1.81-.57,3.23-1.81,4.18-1.24.95-2.66,1.52-4.47,1.52s-2.66-.29-3.71-.95c-1.05-.67-1.9-1.62-2.38-2.85l3.8-2.19c.38,1.14,1.14,1.81,2.28,1.81s1.05-.19,1.43-.48c.29-.29.48-.67.48-1.14s-.19-.86-.48-1.14-.76-.38-1.43-.38h-.95l-1.71-2.47,2.76-3.33h-5.7v-4.18h11.03v3.42l-2.85,3.52h.1Z"/><path d="m334.62,108.84v1.71c0,2.47-.76,4.47-2.38,6.08-1.52,1.52-3.61,2.28-6.08,2.28s-4.85-.86-6.56-2.57c-1.71-1.71-2.57-3.8-2.57-6.28s.86-4.56,2.57-6.28c1.71-1.71,3.8-2.57,6.28-2.57s3.04.38,4.37,1.05c1.33.67,2.38,1.62,3.04,2.85l-3.71,2.09c-.38-.57-.86-.95-1.52-1.24-.67-.29-1.43-.48-2.19-.48-1.33,0-2.47.48-3.33,1.33-.86.86-1.33,2-1.33,3.33s.38,2.38,1.24,3.33c.86.95,2,1.33,3.61,1.33s3.23-.76,3.9-2.19h-4.09v-3.71h8.56l.19-.1Z"/><circle class="cls-4" cx="141.16" cy="61.2" r="42.78"/><path d="m108.17,57.87c-2.38-.48-3.8-2.66-3.23-5.04.29-1.43,1.33-2.57,2.57-3.04l.57,1.81c-.67.19-1.24.86-1.43,1.62-.29,1.43.48,2.57,1.9,2.85s2.57-.38,2.85-1.81c.19-.76,0-1.62-.57-2.09l1.24-1.33c.95.95,1.43,2.38,1.14,3.8-.57,2.38-2.66,3.71-5.04,3.23Z"/><path d="m111.41,49.79c-1.52-.76-2.09-2.57-1.33-4.18.76-1.52,2.57-2.19,4.09-1.43,1.52.76,2.09,2.57,1.33,4.18-.76,1.52-2.57,2.19-4.09,1.43Zm2-3.99c-.76-.38-1.52,0-1.81.57-.38.67-.1,1.43.67,1.81s1.52,0,1.81-.57c.38-.67.1-1.43-.67-1.81Z"/><path d="m120.15,36.19l2.66,2.38-1.14,1.33-2.57-2.28c-.48-.38-.86-.48-1.24,0s-.29.95.19,1.43l2.47,2.19-1.14,1.33-2.57-2.28c-.48-.38-.86-.48-1.24,0s-.29.95.19,1.43l2.47,2.19-1.14,1.33-4.28-3.9,1.14-1.33.38.38c-.1-.48,0-1.05.57-1.62.48-.48,1.05-.67,1.62-.57-.1-.57,0-1.14.57-1.81.86-.95,2.19-.95,3.23,0l-.19-.19Z"/><path d="m125,30.39l3.14,4.94-1.52.95-.29-.48c0,.57-.38,1.05-1.05,1.52-.95.67-2.28.48-3.14-.86l-1.9-3.04,1.52-.95,1.81,2.85c.38.57.95.67,1.43.38.57-.38.76-.86.29-1.62l-1.71-2.66,1.52-.95-.1-.1Z"/><path d="m132.99,29.73l1.24,3.33-1.62.57-1.14-3.14c-.29-.67-.76-.86-1.33-.67-.57.19-.86.76-.67,1.52l1.05,3.04-1.62.57-2-5.51,1.62-.57.19.48c.19-.48.57-.95,1.33-1.24,1.14-.38,2.38,0,2.85,1.52l.1.1Z"/><path d="m133.56,25.74c-.1-.57.29-1.14.86-1.24s1.14.29,1.24.86c.1.57-.29,1.14-.86,1.24-.57.1-1.14-.29-1.24-.86Zm.48,1.52l1.71-.29,1.05,5.7-1.71.29-1.05-5.7Z"/><path d="m137.46,29.54c0-1.71,1.24-3.14,2.95-3.14,1.14,0,2.19.57,2.66,1.43l-1.52.95c-.19-.38-.67-.67-1.14-.67-.76,0-1.33.57-1.24,1.43,0,.76.57,1.33,1.33,1.33.48,0,.95-.29,1.14-.67l1.52.86c-.48.95-1.43,1.52-2.57,1.62-1.81,0-3.14-1.24-3.14-2.95v-.19Z"/><path d="m150.39,27.64l-1.05,5.7-1.71-.29v-.57c-.38.38-.95.57-1.71.38-1.52-.29-2.47-1.81-2.19-3.52s1.81-2.76,3.33-2.57c.76.1,1.24.48,1.62,1.05v-.57c.1,0,1.81.29,1.81.29l-.1.1Zm-2.28,2.57c.19-.86-.29-1.52-1.14-1.62-.76-.19-1.43.29-1.62,1.14s.29,1.52,1.14,1.62c.76.19,1.43-.29,1.62-1.14Z"/><path d="m153.71,30.68l-.76,1.9c-.19.48.19.67.95.95l-.57,1.52c-2.19-.57-2.57-1.52-2-3.04l.76-1.9-.86-.38.57-1.52.86.38.38-1.05,1.81.19-.57,1.52,1.14.48-.57,1.52-1.14-.48v-.1Z"/><path d="m156.76,30.2l1.52.86-2.76,5.13-1.52-.86,2.76-5.13Zm.57-1.43c.29-.48.95-.67,1.43-.48.48.29.67.95.48,1.43-.29.48-.95.67-1.43.48-.48-.29-.67-.95-.48-1.43Z"/><path d="m157.99,34.1c1.05-1.33,2.95-1.62,4.28-.57s1.62,2.95.57,4.28c-1.05,1.43-2.95,1.62-4.28.57-1.33-1.05-1.62-2.95-.57-4.28Zm3.52,2.66c.48-.67.38-1.43-.19-1.9s-1.43-.38-1.9.29-.38,1.43.19,1.9,1.43.38,1.9-.29Z"/><path d="m167.88,42.56l-2.76,2.28-1.14-1.33,2.57-2.09c.57-.48.57-1.05.19-1.43-.38-.48-.95-.57-1.62,0l-2.47,2-1.14-1.33,4.47-3.71,1.14,1.33-.38.38c.57,0,1.14.19,1.62.86.76.95.76,2.19-.48,3.23v-.19Z"/><path d="m166.55,44.66l3.8,1.14c.67.19,1.24.29,1.71,0,.48-.29.57-.67.38-1.14-.29-.48-.76-.67-1.33-.67v-1.81c1.43-.1,2.38.57,2.95,1.62.67,1.33.48,2.85-1.05,3.61-.86.48-1.81.38-2.85,0l-1.81-.57,1.24,2.38-1.62.86-2.57-4.94,1.24-.67-.1.19Z"/><path d="m173.97,57.49c-2.38.57-4.28-.76-4.85-2.95-.57-2.47.76-4.75,3.04-5.32,2.28-.57,4.56.76,5.13,3.14.38,1.52,0,2.95-.95,3.9l-1.24-1.33c.48-.48.67-1.24.48-2.19-.29-1.33-1.52-2.09-2.95-1.71-1.33.29-2.09,1.52-1.71,3.04.29,1.05.86,1.62,1.71,1.71l-.48-2.09,1.62-.38.95,3.99-.67.19h-.1Z"/><path class="cls-21" d="m153.33,49.79c-8.08-.19-16.92-.19-25,0-14.07,1.81-20.92,19.87-11.03,30.23,2.09,3.14-1.52,9.03,2.19,11.22,3.14.95,4.94-3.23,7.04-4.85,8.75-.95,19.3.48,28.33-.48,21.01-2.76,19.68-35.37-1.52-36.32v.19Z"/><path d="m125.95,76.22v-3.14l5.61-5.89c.57-.57.95-1.14,1.24-1.52.29-.38.38-.76.38-1.14s-.1-.76-.38-1.05c-.29-.29-.67-.38-1.14-.38-1.05,0-1.81.57-2.28,1.81l-3.71-2.09c.57-1.24,1.33-2.28,2.38-2.95,1.05-.67,2.28-.95,3.52-.95s3.04.48,4.18,1.43c1.14.95,1.71,2.28,1.71,3.9s-.19,1.9-.67,2.76-1.14,1.71-2,2.66l-2.28,2.38h5.32v4.18h-11.88Z"/><path d="m156.19,66.52v1.71c0,2.47-.76,4.47-2.38,6.08-1.52,1.52-3.61,2.28-6.08,2.28s-4.85-.86-6.56-2.57c-1.71-1.71-2.57-3.8-2.57-6.28s.86-4.56,2.57-6.28c1.71-1.71,3.8-2.57,6.28-2.57s3.04.38,4.37,1.05c1.33.67,2.38,1.62,3.04,2.85l-3.71,2.09c-.38-.57-.86-.95-1.52-1.24-.67-.29-1.43-.48-2.19-.48-1.33,0-2.47.48-3.33,1.33s-1.33,2-1.33,3.33.38,2.38,1.24,3.33c.86.95,2,1.33,3.61,1.33s3.23-.76,3.9-2.19h-4.09v-3.71h8.56l.19-.1Z"/><g id="_Radial_Repeat_"><line class="cls-6" x1="253.03" y1="214.44" x2="290.36" y2="228.63"/><line class="cls-5" x1="253.03" y1="214.44" x2="280.3" y2="224.81"/><polygon class="cls-29" points="275.59 231.02 290.36 228.63 280.91 217.04 275.59 231.02"/></g><g id="_Radial_Repeat_-2"><line class="cls-6" x1="195.9" y1="249.71" x2="191.86" y2="289.44"/><line class="cls-5" x1="195.9" y1="249.71" x2="192.95" y2="278.73"/><polygon class="cls-29" points="185.73 275.8 191.86 289.44 200.61 277.31 185.73 275.8"/></g><g id="_Radial_Repeat_-3"><line class="cls-6" x1="147.05" y1="203.66" x2="107.63" y2="210.04"/><line class="cls-5" x1="147.05" y1="203.66" x2="118.26" y2="208.32"/><polygon class="cls-29" points="119.22 200.58 107.63 210.03 121.61 215.35 119.22 200.58"/></g><g id="_Radial_Repeat_-4"><line class="cls-6" x1="178.89" y1="144.55" x2="162.53" y2="108.12"/><line class="cls-5" x1="178.89" y1="144.55" x2="166.94" y2="117.94"/><polygon class="cls-29" points="174.66 116.87 162.53 108.12 161.01 123 174.66 116.87"/></g><g id="_Radial_Repeat_-5"><line class="cls-6" x1="244.23" y1="160.01" x2="275.18" y2="134.78"/><line class="cls-5" x1="244.23" y1="160.01" x2="266.84" y2="141.58"/><polygon class="cls-29" points="269.87 148.76 275.18 134.78 260.41 137.16 269.87 148.76"/></g><path class="cls-26" d="m73.18,213.76c.5,0,.99.02,1.49.02.84,0,1.54.69,1.55,1.54,0,.78,0,1.56,0,2.33,0,6.58,0,13.16,0,19.75,0,.43-.02.86-.15,1.28-.15.49-.75.93-1.27.93-5.57,0-11.15,0-16.72,0-.03,0-.05,0-.08,0,0-1.51,0-3.03,0-4.54,1.16,0,2.32,0,3.48-.01.15,0,.32.04.32-.21,0-.57.05-1.16-.08-1.71-.36-1.48-.79-2.95-1.17-4.43-.1-.4-.22-.79-.36-1.18-.22-.61.19-.92.56-1.25.6-.55.85-1.24.99-2.03.3-1.66-1.1-3.65-2.68-4.16-.05-.09-.12-.13-.22-.08-.08-.02-.16-.04-.24-.05-.04-.05-.08-.07-.14-.03-.15-.02-.31-.04-.46-.07,0-2.01,0-4.03,0-6.04,2.86,0,5.71,0,8.57-.02.18,0,.36-.01.53-.02,1.02.03,2.04.05,3.07,0,1,.06,2,.04,3.01,0Z"/><path class="cls-19" d="m58,235.05c0,1.51,0,3.03,0,4.54-.57,0-1.15.01-1.72.01-4.86,0-9.72-.02-14.58.02-1.28.01-1.94-.69-1.94-1.94.04-7.44.03-14.88,0-22.32,0-.89.72-1.6,1.57-1.59.5,0,.99-.01,1.49-.02,1,.03,2,.05,3-.01,1.02.06,2.04.03,3.06.01.17,0,.33.02.5.02,2.87,0,5.74,0,8.61.01,0,2.01,0,4.03,0,6.04-.32.15-.68.08-1.02.21-1.42.55-2.36,1.51-2.7,3.02-.06.03-.11.07-.03.14-.11,1.25.02,2.39,1.14,3.22.35.26.49.65.35,1.14-.09.3-.2.59-.27.9-.2.84-.42,1.66-.64,2.49-.16.61-.35,1.22-.5,1.83-.15.61-.11,1.23-.13,1.85-.01.31.07.42.4.41,1.14-.02,2.27,0,3.41,0Z"/><path class="cls-24" d="m45.83,213.75c-1,.06-2,.04-3,.01,0-2.7-.02-5.41.02-8.11.02-1.25.19-2.49.55-3.71.44-1.46,1.06-2.83,1.9-4.1,1.05-1.58,2.35-2.94,3.9-4.05,1.02-.73,2.09-1.38,3.27-1.78,1.17-.41,2.35-.81,3.61-.9.71-.05,1.41-.16,2.12-.14,1.77.03,3.47.38,5.13,1,1.65.62,3.14,1.52,4.5,2.65,1.17.97,2.13,2.12,2.94,3.4.58.9,1.03,1.86,1.42,2.87.21.55.36,1.12.55,1.68.17.51.21,1.06.27,1.6.35,3.19.08,6.39.17,9.58-1,.04-2,.05-3,0,0-2.28-.02-4.57.01-6.85.02-1.31-.15-2.6-.47-3.87-.45-1.78-1.28-3.39-2.48-4.76-1.47-1.68-3.26-2.95-5.42-3.64-1.53-.49-3.08-.64-4.69-.54-1.49.09-2.89.44-4.22,1.06-2.21,1.03-3.95,2.61-5.24,4.69-1.11,1.79-1.72,3.76-1.8,5.84-.1,2.69-.02,5.38-.02,8.08Z"/><path class="cls-12" d="m67.11,213.76c0-2.42.02-4.85,0-7.27-.01-1.29-.19-2.56-.71-3.76-.41-.95-.96-1.81-1.64-2.6-1.01-1.18-2.27-1.99-3.7-2.51-1.32-.48-2.7-.64-4.13-.46-.87.11-1.71.31-2.49.65-2.18.95-3.78,2.51-4.77,4.69-.46,1.02-.65,2.09-.7,3.2-.13,2.69-.02,5.38-.06,8.06-1.02.02-2.04.04-3.06-.01,0-2.69-.08-5.39.02-8.08.08-2.08.68-4.05,1.8-5.84,1.29-2.08,3.03-3.66,5.24-4.69,1.33-.62,2.73-.97,4.22-1.06,1.61-.09,3.16.06,4.69.54,2.16.69,3.94,1.95,5.42,3.64,1.2,1.38,2.03,2.98,2.48,4.76.32,1.27.49,2.55.47,3.87-.03,2.28-.01,4.57-.01,6.85-1.02.05-2.04.04-3.07,0Z"/><path class="cls-22" d="m58,235.05c-1.14,0-2.27-.02-3.41,0-.33,0-.41-.1-.4-.41.02-.62-.01-1.25.13-1.85.15-.62.34-1.22.5-1.83.22-.83.44-1.66.64-2.49.07-.31.18-.6.27-.9.14-.49,0-.88-.35-1.14-1.12-.83-1.25-1.97-1.14-3.22.06-.03.06-.08.03-.14.34-1.51,1.28-2.47,2.7-3.02.34-.13.7-.05,1.02-.21.15.02.31.04.46.07.03.08.07.12.14.03.08.02.16.04.24.05.04.11.14.08.22.08,1.58.51,2.98,2.5,2.68,4.16-.14.79-.4,1.48-.99,2.03-.36.33-.78.65-.56,1.25.14.39.25.78.36,1.18.38,1.48.81,2.94,1.17,4.43.13.55.09,1.14.08,1.71,0,.25-.17.21-.32.21-1.16,0-2.32,0-3.48.01Z"/><path class="cls-12" d="m59.07,220.07c-.09,0-.18.03-.22-.08.1-.05.17,0,.22.08Z"/><path class="cls-12" d="m58.6,219.94c-.07.09-.11.05-.14-.03.06-.03.1-.02.14.03Z"/><path class="cls-24" d="m54.28,223.06c.03.06.03.1-.03.14-.08-.07-.03-.1.03-.14Z"/><circle class="cls-3" cx="58.13" cy="217.6" r="39.02"/></svg>