<?xml version="1.0" encoding="UTF-8"?><svg id="Layer_1" xmlns="http://www.w3.org/2000/svg" viewBox="0 0 400 400"><defs><style>.cls-1{stroke:#a5262d;}.cls-1,.cls-2,.cls-3{stroke-width:4px;}.cls-1,.cls-2,.cls-3,.cls-4{fill:none;stroke-miterlimit:10;}.cls-2{stroke:#000;}.cls-5{fill:#fff;}.cls-3{stroke:#0018c6;}.cls-6{fill:#8ac5cd;}.cls-7{fill:#546e7a;}.cls-8{fill:#ffed58;}.cls-4{stroke:#231f20;stroke-width:2px;}.cls-9{fill:#36464e;}.cls-10{fill:#3b566a;}.cls-11{fill:#b2d3d9;}.cls-12{fill:#b3d4da;}.cls-13{fill:#788f9b;}.cls-14{fill:#637889;}.cls-15{fill:#88c4cc;}.cls-16{fill:#2f4859;}.cls-17{fill:#33b1cb;}.cls-18{fill:#304959;}.cls-19{fill:#fbd734;}.cls-20{fill:#231f20;}.cls-21{fill:#33b1cc;}.cls-22{fill:#86cde8;}</style></defs><circle class="cls-1" cx="195.17" cy="198.5" r="45"/><path class="cls-22" d="m165.17,200.8v-.6c.3-.6.9-.7,1.4-.8,1.4-.2,2.5-1.3,2.5-2.7v-.5c.1-.5.5-.8,1-.7.5,0,.9.4.9.8,0,.3,0,.5.1.8.2,1.1,1.1,2,2.2,2.2.7.2.7.1.7-.6v-13.5c0-.53.27-.8.8-.8h30.6c0,.3-.3.4-.5.6-2.4,2.4-4.8,4.8-7.2,7.2-.2.2-.4.4-.5.6-.2.4-.1.9.2,1.2s.8.4,1.2.1c.2-.1.4-.3.5-.5,2.8-2.8,5.6-5.6,8.3-8.3.3-.3.5-.6.6-1h3.4c0,.3-.3.4-.5.6l-13.3,13.3-.5.5c-.2.3-.3.7,0,1,.2.3.5.6.9.5.3,0,.6-.2.9-.4l14.6-14.6c.3-.2.5-.6.5-.9h1.1c1,0,.9-.1.9.9v28.3q0,.8.8.6c1.3-.4,2.2-1.5,2.2-2.8,0-.7.4-1,1-1s.9.4,1,1c.2,1.7,1.1,2.6,2.8,2.9.5,0,1,.3,1.2.8v.6c-.2.4-.7.7-1.1.7-1.7.2-2.6,1.1-2.8,2.9,0,.3-.2.7-.4.9-.3.2-.6.3-.9.1-.4-.1-.6-.5-.6-.9-.2-1.6-.9-2.6-2.3-2.9-.7-.2-.7-.1-.7.6v12.6c0,.53-.23.8-.7.8h-21.6c0-.3.3-.4.5-.6l7.5-7.5c.5-.6.6-1.1.1-1.5-.4-.4-1-.4-1.4,0l-.1.1c-2.9,2.9-5.8,5.8-8.7,8.7-.2.2-.4.5-.5.9h-3.4c0-.3.3-.4.5-.6l13.3-13.3c.2-.2.4-.4.5-.6.2-.4.2-.9-.2-1.2-.3-.3-.9-.4-1.2,0-.1,0-.2.2-.3.3l-14.6,14.6c-.3.2-.4.6-.5.9h-10.1c-.6,0-.9-.3-.9-.9v-27.5c0-.7,0-.8-.7-.6-1.3.4-2.1,1.3-2.3,2.9,0,.6-.4,1-1,1s-1-.5-1-1v-.3c-.1-1.4-1.3-2.5-2.7-2.6-.5,0-1-.3-1.3-.7l-.2-.1Zm5,.6c.3-.2.7-.5.9-.9-.3-.4-.6-.7-.9-1-.3.2-.6.5-.9.9.2.3.5.6.9.9h0v.1Zm50.9,14.2c-.2-.4-.5-.7-.9-.9-.4.3-.7.6-.9.9l.9.9.9-.9h0Z"/><path class="cls-21" d="m211.57,184.6c.3-.1.5-.3.7-.6.8-.8,1.6-.6,1.9.5,0,.4-.3.7-.5.9l-14.6,14.6c-.2.3-.5.4-.9.4s-.7-.2-.9-.5-.2-.7,0-1c.1-.2.3-.4.5-.5l13.3-13.3c.2-.2.4-.3.5-.6v.1Z"/><path class="cls-17" d="m187.77,230.4c-.3.1-.5.4-.8.6-.8.7-1.6.5-1.8-.6,0-.3.2-.7.5-.9l14.6-14.6s.2-.2.3-.3c.4-.3.9-.2,1.2,0,.4.3.4.8.2,1.2-.1.2-.3.4-.5.6l-13.3,13.3c-.2.2-.4.3-.5.6l.1.1Z"/><path class="cls-21" d="m205.47,184.6c.2,0,.4-.2.6-.4,1-1,1.6-.8,2.1.4-.1.4-.3.8-.6,1l-8.3,8.3-.5.5c-.4.3-.9.2-1.2-.1-.4-.3-.5-.8-.2-1.2.1-.2.3-.5.5-.6,2.4-2.4,4.8-4.8,7.2-7.2.2-.2.4-.3.5-.6l-.1-.1Z"/><path class="cls-21" d="m193.77,230.5c-.3.1-.5.3-.7.6-.8.8-1.6.5-1.9-.5,0-.3.2-.6.5-.8,2.9-2.9,5.8-5.8,8.7-8.7.3-.5.9-.6,1.4-.2l.1.1c.4.4.4,1-.1,1.5l-7.5,7.5c-.2.2-.4.3-.4.6l-.1-.1Z"/><path d="m183.47,168.3c2.2,3.4,1.2,7.1-1.9,9.1-3.5,2.3-7.7,1.3-9.8-1.9-2.1-3.3-1.2-7.5,2.1-9.7,2.1-1.4,4.6-1.5,6.6-.6l-1.4,2.7c-.9-.4-2.3-.4-3.6.5-1.9,1.2-2.4,3.5-1.1,5.5,1.2,1.9,3.5,2.4,5.7,1,1.5-1,2-2.3,1.7-3.6l-3,1.9-1.5-2.2,5.6-3.7.6,1Z"/><path d="m184.37,160.6l2.8-.7,3.5,13.5-2.8.7-3.5-13.5Z"/><path d="m201.87,163.4l-.2,9.6h-2.9v-1c-.6.7-1.6,1.1-2.9,1.1-2.5,0-4.5-2.3-4.5-5.1s2.2-5,4.7-4.9c1.3,0,2.2.5,2.8,1.2v-.9h3Zm-3,4.7c0-1.4-.9-2.4-2.2-2.4s-2.3.8-2.3,2.3c0,1.4.9,2.4,2.2,2.4s2.3-.8,2.3-2.3Z"/><path d="m210.57,173.3c-.8,2.1-2.9,2.3-4.8,1.6-1.8-.7-2.9-1.9-3.1-3.6l2.8-.5c0,.8.3,1.3,1.1,1.6.6.2,1,.2,1.2-.2.4-1-4.2-2.1-3.1-5.2.7-2,2.7-2.3,4.6-1.6,1.5.5,2.5,1.7,2.8,3.2l-2.8.4c0-.6-.3-1-.9-1.2-.5-.2-.8-.1-.9.2-.4,1,4.3,2,3.1,5.3Z"/><path d="m217.27,178.1c-1.3,1.8-3.4,1.4-5.1.2-1.5-1.1-2.3-2.6-2-4.3l2.8.3c-.2.7,0,1.4.7,1.9.6.4,1,.4,1.2.1.6-.9-3.5-3.2-1.6-5.8,1.2-1.7,3.3-1.5,4.9-.3,1.3.9,2,2.3,1.8,3.8l-2.8-.4c0-.6,0-1.1-.5-1.4-.4-.3-.8-.3-1,0-.6.9,3.6,3.1,1.5,5.9h.1Z"/><line class="cls-5" x1="195.17" y1="251.5" x2="195.17" y2="293.5"/><line class="cls-4" x1="195.17" y1="251.5" x2="195.17" y2="282.74"/><polygon class="cls-20" points="187.69 280.55 195.17 293.5 202.65 280.55 187.69 280.55"/><line class="cls-5" x1="152.66" y1="230.15" x2="118.97" y2="255.23"/><line class="cls-4" x1="152.66" y1="230.15" x2="127.6" y2="248.8"/><polygon class="cls-20" points="124.89 241.5 118.97 255.23 133.82 253.49 124.89 241.5"/><line class="cls-5" x1="144.4" y1="183.3" x2="104.16" y2="171.25"/><line class="cls-4" x1="144.4" y1="183.3" x2="114.47" y2="174.34"/><polygon class="cls-20" points="118.71 167.8 104.16 171.25 114.42 182.13 118.71 167.8"/><line class="cls-5" x1="177.04" y1="148.7" x2="162.68" y2="109.23"/><line class="cls-4" x1="177.04" y1="148.7" x2="166.36" y2="119.34"/><polygon class="cls-20" points="174.14 118.84 162.68 109.23 160.08 123.96 174.14 118.84"/><line class="cls-5" x1="224.29" y1="154.22" x2="247.37" y2="119.13"/><line class="cls-4" x1="224.29" y1="154.22" x2="241.46" y2="128.12"/><polygon class="cls-20" points="246.5 134.06 247.37 119.13 234.01 125.84 246.5 134.06"/><line class="cls-5" x1="248.08" y1="195.42" x2="290.01" y2="192.98"/><line class="cls-4" x1="248.08" y1="195.42" x2="279.26" y2="193.6"/><polygon class="cls-20" points="277.51 201.2 290.01 192.98 276.64 186.26 277.51 201.2"/><line class="cls-5" x1="229.24" y1="239.1" x2="256.24" y2="271.27"/><line class="cls-4" x1="229.24" y1="239.1" x2="249.32" y2="263.03"/><polygon class="cls-20" points="242.18 266.16 256.23 271.27 253.64 256.54 242.18 266.16"/><path class="cls-19" d="m303.12,66.65c.56,0,1.12.02,1.68.03.95,0,1.73.78,1.75,1.74.01.88,0,1.76,0,2.63,0,7.43,0,14.85,0,22.28,0,.48-.02.98-.16,1.44-.17.55-.85,1.05-1.43,1.05-6.29,0-12.58,0-18.86,0-.03,0-.06,0-.09-.01,0-1.71,0-3.42,0-5.13,1.31,0,2.62,0,3.93-.01.17,0,.36.04.36-.23.01-.65.06-1.31-.09-1.93-.41-1.67-.89-3.33-1.32-4.99-.12-.45-.24-.9-.4-1.33-.25-.68.22-1.04.63-1.42.68-.62.96-1.4,1.12-2.3.34-1.87-1.24-4.12-3.02-4.69-.06-.1-.14-.15-.25-.09-.09-.02-.18-.04-.27-.06-.04-.06-.09-.07-.16-.04-.17-.02-.35-.05-.52-.07,0-2.27,0-4.54,0-6.81,3.22,0,6.45-.01,9.67-.02.2,0,.4-.02.6-.02,1.15.04,2.31.05,3.46,0,1.13.06,2.26.05,3.39,0Z"/><path class="cls-8" d="m286,90.67c0,1.71,0,3.42,0,5.13-.65,0-1.29.01-1.94.01-5.48,0-10.97-.03-16.45.02-1.44.01-2.19-.77-2.18-2.19.05-8.39.03-16.78,0-25.17,0-1.01.81-1.81,1.77-1.79.56.01,1.12-.01,1.68-.02,1.13.03,2.26.06,3.39-.01,1.15.07,2.3.04,3.45.01.19,0,.37.02.56.02,3.24,0,6.48,0,9.71.01,0,2.27,0,4.54,0,6.81-.36.17-.77.09-1.15.24-1.6.62-2.66,1.7-3.04,3.41-.07.04-.12.08-.03.15-.13,1.41.02,2.7,1.28,3.63.4.29.55.74.39,1.29-.1.34-.23.67-.31,1.01-.22.94-.47,1.88-.72,2.81-.18.69-.4,1.37-.56,2.07-.16.69-.12,1.39-.15,2.09-.01.35.08.47.45.46,1.28-.02,2.56,0,3.84,0Z"/><path class="cls-13" d="m272.27,66.64c-1.13.07-2.26.04-3.39.01,0-3.05-.02-6.1.02-9.15.02-1.41.21-2.81.62-4.18.49-1.65,1.19-3.2,2.14-4.63,1.18-1.79,2.65-3.31,4.4-4.56,1.15-.82,2.36-1.55,3.68-2.01,1.32-.46,2.65-.91,4.07-1.01.8-.06,1.59-.18,2.39-.16,1.99.03,3.92.43,5.78,1.13,1.87.7,3.55,1.72,5.08,2.99,1.32,1.1,2.4,2.4,3.32,3.83.65,1.02,1.17,2.1,1.61,3.23.24.62.41,1.27.62,1.9.2.57.23,1.2.3,1.81.39,3.6.1,7.21.19,10.81-1.13.04-2.26.06-3.39,0,0-2.58-.02-5.15.01-7.73.02-1.48-.17-2.93-.53-4.36-.51-2.01-1.44-3.82-2.8-5.37-1.66-1.9-3.68-3.33-6.11-4.1-1.73-.55-3.48-.72-5.3-.61-1.68.1-3.26.5-4.76,1.2-2.5,1.16-4.46,2.94-5.92,5.29-1.26,2.02-1.94,4.24-2.03,6.59-.11,3.03-.02,6.07-.02,9.11Z"/><path class="cls-7" d="m296.27,66.65c0-2.73.02-5.47,0-8.2-.02-1.45-.22-2.89-.8-4.24-.46-1.07-1.08-2.04-1.85-2.94-1.14-1.33-2.57-2.25-4.18-2.83-1.49-.54-3.05-.72-4.65-.52-.98.12-1.93.35-2.81.73-2.46,1.07-4.27,2.83-5.38,5.29-.52,1.15-.73,2.36-.79,3.61-.15,3.03-.02,6.07-.07,9.1-1.15.02-2.3.05-3.45-.02,0-3.04-.09-6.08.02-9.11.09-2.34.77-4.57,2.03-6.59,1.46-2.34,3.42-4.12,5.92-5.29,1.5-.7,3.08-1.1,4.76-1.2,1.82-.11,3.57.07,5.3.61,2.44.77,4.45,2.2,6.11,4.1,1.36,1.55,2.29,3.36,2.8,5.37.36,1.43.55,2.88.53,4.36-.03,2.58-.01,5.15-.01,7.73-1.15.06-2.31.04-3.46,0Z"/><path class="cls-9" d="m286,90.67c-1.28,0-2.56-.02-3.84,0-.37,0-.46-.11-.45-.46.03-.7-.02-1.41.15-2.09.17-.69.38-1.38.56-2.07.25-.94.5-1.87.72-2.81.08-.34.21-.68.31-1.01.16-.55,0-.99-.39-1.29-1.26-.93-1.41-2.23-1.28-3.63.07-.04.07-.09.03-.15.38-1.7,1.44-2.78,3.04-3.41.38-.15.79-.06,1.15-.24.17.02.35.05.52.07.03.09.08.14.16.04.09.02.18.04.27.06.05.12.15.1.25.09,1.78.57,3.36,2.82,3.02,4.69-.16.9-.45,1.67-1.12,2.3-.41.38-.88.73-.63,1.42.16.43.29.88.4,1.33.43,1.67.91,3.32,1.32,4.99.15.62.1,1.28.09,1.93,0,.28-.19.23-.36.23-1.31,0-2.62,0-3.93.01Z"/><path class="cls-7" d="m287.2,73.77c-.1,0-.2.03-.25-.09.11-.05.19,0,.25.09Z"/><path class="cls-7" d="m286.68,73.62c-.08.1-.12.05-.16-.04.06-.04.12-.02.16.04Z"/><path class="cls-13" d="m281.81,77.14c.04.06.04.12-.03.15-.09-.07-.03-.12.03-.15Z"/><circle class="cls-2" cx="286.15" cy="70.98" r="44.02"/><path class="cls-19" d="m73.12,149.65c.56,0,1.12.02,1.68.03.95,0,1.73.78,1.75,1.74.01.88,0,1.76,0,2.63,0,7.43,0,14.85,0,22.28,0,.48-.02.98-.16,1.44-.17.55-.85,1.05-1.43,1.05-6.29,0-12.58,0-18.86,0-.03,0-.06,0-.09-.01,0-1.71,0-3.42,0-5.13,1.31,0,2.62,0,3.93-.01.17,0,.36.04.36-.23.01-.65.06-1.31-.09-1.93-.41-1.67-.89-3.33-1.32-4.99-.12-.45-.24-.9-.4-1.33-.25-.68.22-1.04.63-1.42.68-.62.96-1.4,1.12-2.3.34-1.87-1.24-4.12-3.02-4.69-.06-.1-.14-.15-.25-.09-.09-.02-.18-.04-.27-.06-.04-.06-.09-.07-.16-.04-.17-.02-.35-.05-.52-.07,0-2.27,0-4.54,0-6.81,3.22,0,6.45-.01,9.67-.02.2,0,.4-.02.6-.02,1.15.04,2.31.05,3.46,0,1.13.06,2.26.05,3.39,0Z"/><path class="cls-8" d="m56,173.67c0,1.71,0,3.42,0,5.13-.65,0-1.29.01-1.94.01-5.48,0-10.97-.03-16.45.02-1.44.01-2.19-.77-2.18-2.19.05-8.39.03-16.78,0-25.17,0-1.01.81-1.81,1.77-1.79.56.01,1.12-.01,1.68-.02,1.13.03,2.26.06,3.39-.01,1.15.07,2.3.04,3.45.01.19,0,.37.02.56.02,3.24,0,6.48,0,9.71.01,0,2.27,0,4.54,0,6.81-.36.17-.77.09-1.15.24-1.6.62-2.66,1.7-3.04,3.41-.07.04-.12.08-.03.15-.13,1.41.02,2.7,1.28,3.63.4.29.55.74.39,1.29-.1.34-.23.67-.31,1.01-.22.94-.47,1.88-.72,2.81-.18.69-.4,1.37-.56,2.07-.16.69-.12,1.39-.15,2.09-.01.35.08.47.45.46,1.28-.02,2.56,0,3.84,0Z"/><path class="cls-13" d="m42.27,149.64c-1.13.07-2.26.04-3.39.01,0-3.05-.02-6.1.02-9.15.02-1.41.21-2.81.62-4.18.49-1.65,1.19-3.2,2.14-4.63,1.18-1.79,2.65-3.31,4.4-4.56,1.15-.82,2.36-1.55,3.68-2.01,1.32-.46,2.65-.91,4.07-1.01.8-.06,1.59-.18,2.39-.16,1.99.03,3.92.43,5.78,1.13,1.87.7,3.55,1.72,5.08,2.99,1.32,1.1,2.4,2.4,3.32,3.83.65,1.02,1.17,2.1,1.61,3.23.24.62.41,1.27.62,1.9.2.57.23,1.2.3,1.81.39,3.6.1,7.21.19,10.81-1.13.04-2.26.06-3.39,0,0-2.58-.02-5.15.01-7.73.02-1.48-.17-2.93-.53-4.36-.51-2.01-1.44-3.82-2.8-5.37-1.66-1.9-3.68-3.33-6.11-4.1-1.73-.55-3.48-.72-5.3-.61-1.68.1-3.26.5-4.76,1.2-2.5,1.16-4.46,2.94-5.92,5.29-1.26,2.02-1.94,4.24-2.03,6.59-.11,3.03-.02,6.07-.02,9.11Z"/><path class="cls-7" d="m66.27,149.65c0-2.73.02-5.47,0-8.2-.02-1.45-.22-2.89-.8-4.24-.46-1.07-1.08-2.04-1.85-2.94-1.14-1.33-2.57-2.25-4.18-2.83-1.49-.54-3.05-.72-4.65-.52-.98.12-1.93.35-2.81.73-2.46,1.07-4.27,2.83-5.38,5.29-.52,1.15-.73,2.36-.79,3.61-.15,3.03-.02,6.07-.07,9.1-1.15.02-2.3.05-3.45-.02,0-3.04-.09-6.08.02-9.11.09-2.34.77-4.57,2.03-6.59,1.46-2.34,3.42-4.12,5.92-5.29,1.5-.7,3.08-1.1,4.76-1.2,1.82-.11,3.57.07,5.3.61,2.44.77,4.45,2.2,6.11,4.1,1.36,1.55,2.29,3.36,2.8,5.37.36,1.43.55,2.88.53,4.36-.03,2.58-.01,5.15-.01,7.73-1.15.06-2.31.04-3.46,0Z"/><path class="cls-9" d="m56,173.67c-1.28,0-2.56-.02-3.84,0-.37,0-.46-.11-.45-.46.03-.7-.02-1.41.15-2.09.17-.69.38-1.38.56-2.07.25-.94.5-1.87.72-2.81.08-.34.21-.68.31-1.01.16-.55,0-.99-.39-1.29-1.26-.93-1.41-2.23-1.28-3.63.07-.04.07-.09.03-.15.38-1.7,1.44-2.78,3.04-3.41.38-.15.79-.06,1.15-.24.17.02.35.05.52.07.03.09.08.14.16.04.09.02.18.04.27.06.05.12.15.1.25.09,1.78.57,3.36,2.82,3.02,4.69-.16.9-.45,1.67-1.12,2.3-.41.38-.88.73-.63,1.42.16.43.29.88.4,1.33.43,1.67.91,3.32,1.32,4.99.15.62.1,1.28.09,1.93,0,.28-.19.23-.36.23-1.31,0-2.62,0-3.93.01Z"/><path class="cls-7" d="m57.2,156.77c-.1,0-.2.03-.25-.09.11-.05.19,0,.25.09Z"/><path class="cls-7" d="m56.68,156.62c-.08.1-.12.05-.16-.04.06-.04.12-.02.16.04Z"/><path class="cls-13" d="m51.81,160.14c.04.06.04.12-.03.15-.09-.07-.03-.12.03-.15Z"/><circle class="cls-2" cx="56.15" cy="153.98" r="44.02"/><path class="cls-19" d="m154.12,51.65c.56,0,1.12.02,1.68.03.95,0,1.73.78,1.75,1.74.01.88,0,1.76,0,2.63,0,7.43,0,14.85,0,22.28,0,.48-.02.98-.16,1.44-.17.55-.85,1.05-1.43,1.05-6.29,0-12.58,0-18.86,0-.03,0-.06,0-.09-.01,0-1.71,0-3.42,0-5.13,1.31,0,2.62,0,3.93-.01.17,0,.36.04.36-.23.01-.65.06-1.31-.09-1.93-.41-1.67-.89-3.33-1.32-4.99-.12-.45-.24-.9-.4-1.33-.25-.68.22-1.04.63-1.42.68-.62.96-1.4,1.12-2.3.34-1.87-1.24-4.12-3.02-4.69-.06-.1-.14-.15-.25-.09-.09-.02-.18-.04-.27-.06-.04-.06-.09-.07-.16-.04-.17-.02-.35-.05-.52-.07,0-2.27,0-4.54,0-6.81,3.22,0,6.45-.01,9.67-.02.2,0,.4-.02.6-.02,1.15.04,2.31.05,3.46,0,1.13.06,2.26.05,3.39,0Z"/><path class="cls-8" d="m137,75.67c0,1.71,0,3.42,0,5.13-.65,0-1.29.01-1.94.01-5.48,0-10.97-.03-16.45.02-1.44.01-2.19-.77-2.18-2.19.05-8.39.03-16.78,0-25.17,0-1.01.81-1.81,1.77-1.79.56.01,1.12-.01,1.68-.02,1.13.03,2.26.06,3.39-.01,1.15.07,2.3.04,3.45.01.19,0,.37.02.56.02,3.24,0,6.48,0,9.71.01,0,2.27,0,4.54,0,6.81-.36.17-.77.09-1.15.24-1.6.62-2.66,1.7-3.04,3.41-.07.04-.12.08-.03.15-.13,1.41.02,2.7,1.28,3.63.4.29.55.74.39,1.29-.1.34-.23.67-.31,1.01-.22.94-.47,1.88-.72,2.81-.18.69-.4,1.37-.56,2.07-.16.69-.12,1.39-.15,2.09-.01.35.08.47.45.46,1.28-.02,2.56,0,3.84,0Z"/><path class="cls-13" d="m123.27,51.64c-1.13.07-2.26.04-3.39.01,0-3.05-.02-6.1.02-9.15.02-1.41.21-2.81.62-4.18.49-1.65,1.19-3.2,2.14-4.63,1.18-1.79,2.65-3.31,4.4-4.56,1.15-.82,2.36-1.55,3.68-2.01,1.32-.46,2.65-.91,4.07-1.01.8-.06,1.59-.18,2.39-.16,1.99.03,3.92.43,5.78,1.13,1.87.7,3.55,1.72,5.08,2.99,1.32,1.1,2.4,2.4,3.32,3.83.65,1.02,1.17,2.1,1.61,3.23.24.62.41,1.27.62,1.9.2.57.23,1.2.3,1.81.39,3.6.1,7.21.19,10.81-1.13.04-2.26.06-3.39,0,0-2.58-.02-5.15.01-7.73.02-1.48-.17-2.93-.53-4.36-.51-2.01-1.44-3.82-2.8-5.37-1.66-1.9-3.68-3.33-6.11-4.1-1.73-.55-3.48-.72-5.3-.61-1.68.1-3.26.5-4.76,1.2-2.5,1.16-4.46,2.94-5.92,5.29-1.26,2.02-1.94,4.24-2.03,6.59-.11,3.03-.02,6.07-.02,9.11Z"/><path class="cls-7" d="m147.27,51.65c0-2.73.02-5.47,0-8.2-.02-1.45-.22-2.89-.8-4.24-.46-1.07-1.08-2.04-1.85-2.94-1.14-1.33-2.57-2.25-4.18-2.83-1.49-.54-3.05-.72-4.65-.52-.98.12-1.93.35-2.81.73-2.46,1.07-4.27,2.83-5.38,5.29-.52,1.15-.73,2.36-.79,3.61-.15,3.03-.02,6.07-.07,9.1-1.15.02-2.3.05-3.45-.02,0-3.04-.09-6.08.02-9.11.09-2.34.77-4.57,2.03-6.59,1.46-2.34,3.42-4.12,5.92-5.29,1.5-.7,3.08-1.1,4.76-1.2,1.82-.11,3.57.07,5.3.61,2.44.77,4.45,2.2,6.11,4.1,1.36,1.55,2.29,3.36,2.8,5.37.36,1.43.55,2.88.53,4.36-.03,2.58-.01,5.15-.01,7.73-1.15.06-2.31.04-3.46,0Z"/><path class="cls-9" d="m137,75.67c-1.28,0-2.56-.02-3.84,0-.37,0-.46-.11-.45-.46.03-.7-.02-1.41.15-2.09.17-.69.38-1.38.56-2.07.25-.94.5-1.87.72-2.81.08-.34.21-.68.31-1.01.16-.55,0-.99-.39-1.29-1.26-.93-1.41-2.23-1.28-3.63.07-.04.07-.09.03-.15.38-1.7,1.44-2.78,3.04-3.41.38-.15.79-.06,1.15-.24.17.02.35.05.52.07.03.09.08.14.16.04.09.02.18.04.27.06.05.12.15.1.25.09,1.78.57,3.36,2.82,3.02,4.69-.16.9-.45,1.67-1.12,2.3-.41.38-.88.73-.63,1.42.16.43.29.88.4,1.33.43,1.67.91,3.32,1.32,4.99.15.62.1,1.28.09,1.93,0,.28-.19.23-.36.23-1.31,0-2.62,0-3.93.01Z"/><path class="cls-7" d="m138.2,58.77c-.1,0-.2.03-.25-.09.11-.05.19,0,.25.09Z"/><path class="cls-7" d="m137.68,58.62c-.08.1-.12.05-.16-.04.06-.04.12-.02.16.04Z"/><path class="cls-13" d="m132.81,62.14c.04.06.04.12-.03.15-.09-.07-.03-.12.03-.15Z"/><circle class="cls-2" cx="137.15" cy="55.98" r="44.02"/><path class="cls-19" d="m317.12,312.65c.56,0,1.12.02,1.68.03.95,0,1.73.78,1.75,1.74.01.88,0,1.76,0,2.63,0,7.43,0,14.85,0,22.28,0,.48-.02.98-.16,1.44-.17.55-.85,1.05-1.43,1.05-6.29,0-12.58,0-18.86,0-.03,0-.06,0-.09-.01,0-1.71,0-3.42,0-5.13,1.31,0,2.62,0,3.93-.01.17,0,.36.04.36-.23.01-.65.06-1.31-.09-1.93-.41-1.67-.89-3.33-1.32-4.99-.12-.45-.24-.9-.4-1.33-.25-.68.22-1.04.63-1.42.68-.62.96-1.4,1.12-2.3.34-1.87-1.24-4.12-3.02-4.69-.06-.1-.14-.15-.25-.09-.09-.02-.18-.04-.27-.06-.04-.06-.09-.07-.16-.04-.17-.02-.35-.05-.52-.07,0-2.27,0-4.54,0-6.81,3.22,0,6.45-.01,9.67-.02.2,0,.4-.02.6-.02,1.15.04,2.31.05,3.46,0,1.13.06,2.26.05,3.39,0Z"/><path class="cls-8" d="m300,336.67c0,1.71,0,3.42,0,5.13-.65,0-1.29.01-1.94.01-5.48,0-10.97-.03-16.45.02-1.44.01-2.19-.77-2.18-2.19.05-8.39.03-16.78,0-25.17,0-1.01.81-1.81,1.77-1.79.56.01,1.12-.01,1.68-.02,1.13.03,2.26.06,3.39-.01,1.15.07,2.3.04,3.45.01.19,0,.37.02.56.02,3.24,0,6.48,0,9.71.01,0,2.27,0,4.54,0,6.81-.36.17-.77.09-1.15.24-1.6.62-2.66,1.7-3.04,3.41-.07.04-.12.08-.03.15-.13,1.41.02,2.7,1.28,3.63.4.29.55.74.39,1.29-.1.34-.23.67-.31,1.01-.22.94-.47,1.88-.72,2.81-.18.69-.4,1.37-.56,2.07-.16.69-.12,1.39-.15,2.09-.01.35.08.47.45.46,1.28-.02,2.56,0,3.84,0Z"/><path class="cls-13" d="m286.27,312.64c-1.13.07-2.26.04-3.39.01,0-3.05-.02-6.1.02-9.15.02-1.41.21-2.81.62-4.18.49-1.65,1.19-3.2,2.14-4.63,1.18-1.79,2.65-3.31,4.4-4.56,1.15-.82,2.36-1.55,3.68-2.01,1.32-.46,2.65-.91,4.07-1.01.8-.06,1.59-.18,2.39-.16,1.99.03,3.92.43,5.78,1.13,1.87.7,3.55,1.72,5.08,2.99,1.32,1.1,2.4,2.4,3.32,3.83.65,1.02,1.17,2.1,1.61,3.23.24.62.41,1.27.62,1.9.2.57.23,1.2.3,1.81.39,3.6.1,7.21.19,10.81-1.13.04-2.26.06-3.39,0,0-2.58-.02-5.15.01-7.73.02-1.48-.17-2.93-.53-4.36-.51-2.01-1.44-3.82-2.8-5.37-1.66-1.9-3.68-3.33-6.11-4.1-1.73-.55-3.48-.72-5.3-.61-1.68.1-3.26.5-4.76,1.2-2.5,1.16-4.46,2.94-5.92,5.29-1.26,2.02-1.94,4.24-2.03,6.59-.11,3.03-.02,6.07-.02,9.11Z"/><path class="cls-7" d="m310.27,312.65c0-2.73.02-5.47,0-8.2-.02-1.45-.22-2.89-.8-4.24-.46-1.07-1.08-2.04-1.85-2.94-1.14-1.33-2.57-2.25-4.18-2.83-1.49-.54-3.05-.72-4.65-.52-.98.12-1.93.35-2.81.73-2.46,1.07-4.27,2.83-5.38,5.29-.52,1.15-.73,2.36-.79,3.61-.15,3.03-.02,6.07-.07,9.1-1.15.02-2.3.05-3.45-.02,0-3.04-.09-6.08.02-9.11.09-2.34.77-4.57,2.03-6.59,1.46-2.34,3.42-4.12,5.92-5.29,1.5-.7,3.08-1.1,4.76-1.2,1.82-.11,3.57.07,5.3.61,2.44.77,4.45,2.2,6.11,4.1,1.36,1.55,2.29,3.36,2.8,5.37.36,1.43.55,2.88.53,4.36-.03,2.58-.01,5.15-.01,7.73-1.15.06-2.31.04-3.46,0Z"/><path class="cls-9" d="m300,336.67c-1.28,0-2.56-.02-3.84,0-.37,0-.46-.11-.45-.46.03-.7-.02-1.41.15-2.09.17-.69.38-1.38.56-2.07.25-.94.5-1.87.72-2.81.08-.34.21-.68.31-1.01.16-.55,0-.99-.39-1.29-1.26-.93-1.41-2.23-1.28-3.63.07-.04.07-.09.03-.15.38-1.7,1.44-2.78,3.04-3.41.38-.15.79-.06,1.15-.24.17.02.35.05.52.07.03.09.08.14.16.04.09.02.18.04.27.06.05.12.15.1.25.09,1.78.57,3.36,2.82,3.02,4.69-.16.9-.45,1.67-1.12,2.3-.41.38-.88.73-.63,1.42.16.43.29.88.4,1.33.43,1.67.91,3.32,1.32,4.99.15.62.1,1.28.09,1.93,0,.28-.19.23-.36.23-1.31,0-2.62,0-3.93.01Z"/><path class="cls-7" d="m301.2,319.77c-.1,0-.2.03-.25-.09.11-.05.19,0,.25.09Z"/><path class="cls-7" d="m300.68,319.62c-.08.1-.12.05-.16-.04.06-.04.12-.02.16.04Z"/><path class="cls-13" d="m295.81,323.14c.04.06.04.12-.03.15-.09-.07-.03-.12.03-.15Z"/><circle class="cls-2" cx="300.15" cy="316.98" r="44.02"/><path class="cls-19" d="m206.12,343.78c.56,0,1.12.02,1.68.03.95,0,1.73.78,1.75,1.74.01.88,0,1.76,0,2.63,0,7.43,0,14.85,0,22.28,0,.48-.02.98-.16,1.44-.17.55-.85,1.05-1.43,1.05-6.29,0-12.58,0-18.86,0-.03,0-.06,0-.09-.01,0-1.71,0-3.42,0-5.13,1.31,0,2.62,0,3.93-.01.17,0,.36.04.36-.23.01-.65.06-1.31-.09-1.93-.41-1.67-.89-3.33-1.32-4.99-.12-.45-.24-.9-.4-1.33-.25-.68.22-1.04.63-1.42.68-.62.96-1.4,1.12-2.3.34-1.87-1.24-4.12-3.02-4.69-.06-.1-.14-.15-.25-.09-.09-.02-.18-.04-.27-.06-.04-.06-.09-.07-.16-.04-.17-.02-.35-.05-.52-.07,0-2.27,0-4.54,0-6.81,3.22,0,6.45-.01,9.67-.02.2,0,.4-.02.6-.02,1.15.04,2.31.05,3.46,0,1.13.06,2.26.05,3.39,0Z"/><path class="cls-8" d="m189,367.8c0,1.71,0,3.42,0,5.13-.65,0-1.29.01-1.94.01-5.48,0-10.97-.03-16.45.02-1.44.01-2.19-.77-2.18-2.19.05-8.39.03-16.78,0-25.17,0-1.01.81-1.81,1.77-1.79.56.01,1.12-.01,1.68-.02,1.13.03,2.26.06,3.39-.01,1.15.07,2.3.04,3.45.01.19,0,.37.02.56.02,3.24,0,6.48,0,9.71.01,0,2.27,0,4.54,0,6.81-.36.17-.77.09-1.15.24-1.6.62-2.66,1.7-3.04,3.41-.07.04-.12.08-.03.15-.13,1.41.02,2.7,1.28,3.63.4.29.55.74.39,1.29-.1.34-.23.67-.31,1.01-.22.94-.47,1.88-.72,2.81-.18.69-.4,1.37-.56,2.07-.16.69-.12,1.39-.15,2.09-.01.35.08.47.45.46,1.28-.02,2.56,0,3.84,0Z"/><path class="cls-13" d="m175.27,343.77c-1.13.07-2.26.04-3.39.01,0-3.05-.02-6.1.02-9.15.02-1.41.21-2.81.62-4.18.49-1.65,1.19-3.2,2.14-4.63,1.18-1.79,2.65-3.31,4.4-4.56,1.15-.82,2.36-1.55,3.68-2.01,1.32-.46,2.65-.91,4.07-1.01.8-.06,1.59-.18,2.39-.16,1.99.03,3.92.43,5.78,1.13,1.87.7,3.55,1.72,5.08,2.99,1.32,1.1,2.4,2.4,3.32,3.83.65,1.02,1.17,2.1,1.61,3.23.24.62.41,1.27.62,1.9.2.57.23,1.2.3,1.81.39,3.6.1,7.21.19,10.81-1.13.04-2.26.06-3.39,0,0-2.58-.02-5.15.01-7.73.02-1.48-.17-2.93-.53-4.36-.51-2.01-1.44-3.82-2.8-5.37-1.66-1.9-3.68-3.33-6.11-4.1-1.73-.55-3.48-.72-5.3-.61-1.68.1-3.26.5-4.76,1.2-2.5,1.16-4.46,2.94-5.92,5.29-1.26,2.02-1.94,4.24-2.03,6.59-.11,3.03-.02,6.07-.02,9.11Z"/><path class="cls-7" d="m199.27,343.78c0-2.73.02-5.47,0-8.2-.02-1.45-.22-2.89-.8-4.24-.46-1.07-1.08-2.04-1.85-2.94-1.14-1.33-2.57-2.25-4.18-2.83-1.49-.54-3.05-.72-4.65-.52-.98.12-1.93.35-2.81.73-2.46,1.07-4.27,2.83-5.38,5.29-.52,1.15-.73,2.36-.79,3.61-.15,3.03-.02,6.07-.07,9.1-1.15.02-2.3.05-3.45-.02,0-3.04-.09-6.08.02-9.11.09-2.34.77-4.57,2.03-6.59,1.46-2.34,3.42-4.12,5.92-5.29,1.5-.7,3.08-1.1,4.76-1.2,1.82-.11,3.57.07,5.3.61,2.44.77,4.45,2.2,6.11,4.1,1.36,1.55,2.29,3.36,2.8,5.37.36,1.43.55,2.88.53,4.36-.03,2.58-.01,5.15-.01,7.73-1.15.06-2.31.04-3.46,0Z"/><path class="cls-9" d="m189,367.8c-1.28,0-2.56-.02-3.84,0-.37,0-.46-.11-.45-.46.03-.7-.02-1.41.15-2.09.17-.69.38-1.38.56-2.07.25-.94.5-1.87.72-2.81.08-.34.21-.68.31-1.01.16-.55,0-.99-.39-1.29-1.26-.93-1.41-2.23-1.28-3.63.07-.04.07-.09.03-.15.38-1.7,1.44-2.78,3.04-3.41.38-.15.79-.06,1.15-.24.17.02.35.05.52.07.03.09.08.14.16.04.09.02.18.04.27.06.05.12.15.1.25.09,1.78.57,3.36,2.82,3.02,4.69-.16.9-.45,1.67-1.12,2.3-.41.38-.88.73-.63,1.42.16.43.29.88.4,1.33.43,1.67.91,3.32,1.32,4.99.15.62.1,1.28.09,1.93,0,.28-.19.23-.36.23-1.31,0-2.62,0-3.93.01Z"/><path class="cls-7" d="m190.2,350.9c-.1,0-.2.03-.25-.09.11-.05.19,0,.25.09Z"/><path class="cls-7" d="m189.68,350.75c-.08.1-.12.05-.16-.04.06-.04.12-.02.16.04Z"/><path class="cls-13" d="m184.81,354.27c.04.06.04.12-.03.15-.09-.07-.03-.12.03-.15Z"/><circle class="cls-2" cx="189.15" cy="348.11" r="44.02"/><path class="cls-19" d="m362.12,187.78c.56,0,1.12.02,1.68.03.95,0,1.73.78,1.75,1.74.01.88,0,1.76,0,2.63,0,7.43,0,14.85,0,22.28,0,.48-.02.98-.16,1.44-.17.55-.85,1.05-1.43,1.05-6.29,0-12.58,0-18.86,0-.03,0-.06,0-.09-.01,0-1.71,0-3.42,0-5.13,1.31,0,2.62,0,3.93-.01.17,0,.36.04.36-.23.01-.65.06-1.31-.09-1.93-.41-1.67-.89-3.33-1.32-4.99-.12-.45-.24-.9-.4-1.33-.25-.68.22-1.04.63-1.42.68-.62.96-1.4,1.12-2.3.34-1.87-1.24-4.12-3.02-4.69-.06-.1-.14-.15-.25-.09-.09-.02-.18-.04-.27-.06-.04-.06-.09-.07-.16-.04-.17-.02-.35-.05-.52-.07,0-2.27,0-4.54,0-6.81,3.22,0,6.45-.01,9.67-.02.2,0,.4-.02.6-.02,1.15.04,2.31.05,3.46,0,1.13.06,2.26.05,3.39,0Z"/><path class="cls-8" d="m345,211.8c0,1.71,0,3.42,0,5.13-.65,0-1.29.01-1.94.01-5.48,0-10.97-.03-16.45.02-1.44.01-2.19-.77-2.18-2.19.05-8.39.03-16.78,0-25.17,0-1.01.81-1.81,1.77-1.79.56.01,1.12-.01,1.68-.02,1.13.03,2.26.06,3.39-.01,1.15.07,2.3.04,3.45.01.19,0,.37.02.56.02,3.24,0,6.48,0,9.71.01,0,2.27,0,4.54,0,6.81-.36.17-.77.09-1.15.24-1.6.62-2.66,1.7-3.04,3.41-.07.04-.12.08-.03.15-.13,1.41.02,2.7,1.28,3.63.4.29.55.74.39,1.29-.1.34-.23.67-.31,1.01-.22.94-.47,1.88-.72,2.81-.18.69-.4,1.37-.56,2.07-.16.69-.12,1.39-.15,2.09-.01.35.08.47.45.46,1.28-.02,2.56,0,3.84,0Z"/><path class="cls-13" d="m331.27,187.77c-1.13.07-2.26.04-3.39.01,0-3.05-.02-6.1.02-9.15.02-1.41.21-2.81.62-4.18.49-1.65,1.19-3.2,2.14-4.63,1.18-1.79,2.65-3.31,4.4-4.56,1.15-.82,2.36-1.55,3.68-2.01,1.32-.46,2.65-.91,4.07-1.01.8-.06,1.59-.18,2.39-.16,1.99.03,3.92.43,5.78,1.13,1.87.7,3.55,1.72,5.08,2.99,1.32,1.1,2.4,2.4,3.32,3.83.65,1.02,1.17,2.1,1.61,3.23.24.62.41,1.27.62,1.9.2.57.23,1.2.3,1.81.39,3.6.1,7.21.19,10.81-1.13.04-2.26.06-3.39,0,0-2.58-.02-5.15.01-7.73.02-1.48-.17-2.93-.53-4.36-.51-2.01-1.44-3.82-2.8-5.37-1.66-1.9-3.68-3.33-6.11-4.1-1.73-.55-3.48-.72-5.3-.61-1.68.1-3.26.5-4.76,1.2-2.5,1.16-4.46,2.94-5.92,5.29-1.26,2.02-1.94,4.24-2.03,6.59-.11,3.03-.02,6.07-.02,9.11Z"/><path class="cls-7" d="m355.27,187.78c0-2.73.02-5.47,0-8.2-.02-1.45-.22-2.89-.8-4.24-.46-1.07-1.08-2.04-1.85-2.94-1.14-1.33-2.57-2.25-4.18-2.83-1.49-.54-3.05-.72-4.65-.52-.98.12-1.93.35-2.81.73-2.46,1.07-4.27,2.83-5.38,5.29-.52,1.15-.73,2.36-.79,3.61-.15,3.03-.02,6.07-.07,9.1-1.15.02-2.3.05-3.45-.02,0-3.04-.09-6.08.02-9.11.09-2.34.77-4.57,2.03-6.59,1.46-2.34,3.42-4.12,5.92-5.29,1.5-.7,3.08-1.1,4.76-1.2,1.82-.11,3.57.07,5.3.61,2.44.77,4.45,2.2,6.11,4.1,1.36,1.55,2.29,3.36,2.8,5.37.36,1.43.55,2.88.53,4.36-.03,2.58-.01,5.15-.01,7.73-1.15.06-2.31.04-3.46,0Z"/><path class="cls-9" d="m345,211.8c-1.28,0-2.56-.02-3.84,0-.37,0-.46-.11-.45-.46.03-.7-.02-1.41.15-2.09.17-.69.38-1.38.56-2.07.25-.94.5-1.87.72-2.81.08-.34.21-.68.31-1.01.16-.55,0-.99-.39-1.29-1.26-.93-1.41-2.23-1.28-3.63.07-.04.07-.09.03-.15.38-1.7,1.44-2.78,3.04-3.41.38-.15.79-.06,1.15-.24.17.02.35.05.52.07.03.09.08.14.16.04.09.02.18.04.27.06.05.12.15.1.25.09,1.78.57,3.36,2.82,3.02,4.69-.16.9-.45,1.67-1.12,2.3-.41.38-.88.73-.63,1.42.16.43.29.88.4,1.33.43,1.67.91,3.32,1.32,4.99.15.62.1,1.28.09,1.93,0,.28-.19.23-.36.23-1.31,0-2.62,0-3.93.01Z"/><path class="cls-7" d="m346.2,194.9c-.1,0-.2.03-.25-.09.11-.05.19,0,.25.09Z"/><path class="cls-7" d="m345.68,194.75c-.08.1-.12.05-.16-.04.06-.04.12-.02.16.04Z"/><path class="cls-13" d="m340.81,198.27c.04.06.04.12-.03.15-.09-.07-.03-.12.03-.15Z"/><circle class="cls-2" cx="345.15" cy="192.11" r="44.02"/><circle class="cls-3" cx="66.03" cy="289.39" r="46.43"/><path class="cls-10" d="m78.2,269.16c.22.29.51.54.83.72,1.21,1.11,1.88,2.69,1.86,4.33v46.74c0,3.71-1.86,5.88-5.67,6.19-6.18.52-12.39.52-18.57,0-3.05-.08-5.45-2.61-5.38-5.66,0-.07,0-.15.01-.22v-47.05c-.17-3.08,2.19-5.71,5.27-5.88.03,0,.06,0,.09,0,5.43-.38,10.87-.45,16.3-.21.38-.02.76.02,1.13.1,1.44-.02,2.88.22,4.23.72l-.1.21Zm-11.25,6.81h-11.45c-.72,0-.93.21-.93.93v11.87c0,3.92,0,2.48,2.48,2.37h19.71c.62,0,.72-.21.72-.72v-13.65c0-.52-.1-.83-.72-.83h-9.8v.03Zm2.17,30.44c-2.37,0-2.17,0-2.17,2.27,0,.72.31,1.03,1.03,1.03h1.65c1.34,0,1.44,0,1.44-1.34,0-2.27.21-1.96-1.96-1.96Zm-6.09,0h-1.13c-.62,0-1.03.21-.83.83.21.83-.72,2.17.83,2.48.79.1,1.59.1,2.37,0,.44.02.84-.29.93-.72.52-1.96,0-2.58-1.96-2.58h-.21Zm0-4.85c-2.27,0-1.96-.21-2.06,2.06v.31c0,.72.31,1.03.93,1.03h2.37c.41-.02.75-.32.83-.72.52-1.96,0-2.58-1.96-2.58h0l-.1-.1Zm6.19,0h-1.34c-.52,0-.83.21-.83.72,0,2.37-.21,2.68,2.17,2.58h.52c1.34,0,1.44-.21,1.44-1.44,0-2.17.21-1.96-1.96-1.96h0v.1Zm-.1,13.1h1.03c.52,0,1.03-.1,1.03-.72,0-.83.52-1.86-.41-2.58h-2.89c-.39-.03-.74.24-.83.62-.52,1.96,0,2.68,2.06,2.68h0Zm-5.98,0h1.03c.62,0,1.03-.21,1.03-.83,0-.83.52-1.86-.41-2.48h-2.89c-.35,0-.67.2-.83.52-.62,1.86,0,2.79,1.96,2.79h.1Zm0-17.95h-.93c-.72,0-1.03.21-1.03,1.03q0,2.37,2.37,2.37h.83c.48.01.89-.35.93-.83.41-2.06,0-2.58-2.06-2.58h-.1Zm6.19,0h-1.34c-.52,0-.83.21-.83.83,0,2.37-.21,2.68,2.17,2.58h.52c1.34,0,1.44-.21,1.44-1.44,0-2.17.21-1.96-1.96-1.96h0Zm-12.18,17.95h.83c.93,0,1.24-.31,1.13-1.24,0-2.48.31-2.17-2.17-2.17h-.41c-1.34,0-1.44,0-1.34,1.34,0,1.86-.41,2.06,1.96,1.96v.1Zm18.16-3.4h-.83c-.83-.1-1.13.21-1.13,1.13,0,2.37-.41,2.27,2.27,2.27h.41q1.34,0,1.34-1.34c0-2.27.21-1.96-1.96-1.96h0l-.1-.1Zm0-4.85h-1.03c-.72,0-.93.31-.93,1.03,0,2.48-.41,2.37,2.37,2.37h.31c1.24,0,1.34-.1,1.34-1.34,0-2.27.21-2.06-1.96-2.06h-.1Zm-18.06,0h-.91c-.83,0-1.13.21-1.13,1.13,0,2.37-.41,2.27,2.27,2.27h.41c1.24,0,1.34-.1,1.34-1.44,0-2.17.21-1.96-1.96-1.96h-.02Zm0-4.85h-.91c-.83,0-1.13.21-1.03,1.03,0,2.37-.21,2.37,2.27,2.27h.31c1.34,0,1.44,0,1.44-1.44,0-2.17.21-1.96-1.96-1.96l-.12.1Zm18.16-4.85h-1.03c-.72,0-.93.31-.93,1.03,0,2.48-.21,2.37,2.37,2.37h.31c1.24,0,1.34-.1,1.34-1.34,0-2.27.21-1.96-1.96-2.06h-.1Zm0,4.85c-2.27,0-1.96-.31-2.06,2.06v.21c0,.83.31,1.13,1.13,1.13h1.47c1.24,0,1.34-.1,1.34-1.44,0-2.17.21-1.96-1.96-1.96h.08Zm-18.16-4.85h-1.03c-.72,0-.93.31-.93,1.03,0,2.48-.21,2.37,2.37,2.37h.31c1.24,0,1.34-.1,1.34-1.34,0-2.27.21-1.96-1.96-2.06h-.1Zm11.04-23.63c.41,0,.72-.1.62-.62s-.21-.52-.62-.52-.72.1-.62.62.21.52.62.52Zm2.58-.52c0-.41-.21-.52-.62-.52s-.72,0-.72.52.21.52.62.52.72-.1.72-.52Zm-5.98,50.25c.04-.3-.16-.58-.46-.62-.05,0-.1,0-.16,0-.41,0-.52.31-.52.62s.21.62.52.62c.31-.03.54-.31.52-.62h.1Zm-2.17-50.76c-.33,0-.61.21-.72.52-.01.33.25.61.58.62.01,0,.03,0,.04,0,.31,0,.52-.1.52-.41h0c0-.41-.1-.62-.52-.62l.1-.1Zm2.37.52c0-.41-.21-.52-.62-.52-.28-.06-.56.13-.62.41-.06.28.13.56.41.62.07.01.14.01.21,0,.41,0,.52-.21.52-.52h.1Zm-.21,46.02c0-.41-.31-.52-.62-.52-.27-.02-.5.18-.52.45,0,.02,0,.04,0,.06,0,.41.21.62.52.62s.52-.21.52-.62h.1Zm4.13-.1c0-.21-.1-.41-.52-.41s-.62.1-.62.52.21.62.52.62.52-.21.52-.72h.1Zm-.41,4.85c.31,0,.41-.21.41-.52.02-.31-.2-.59-.52-.62-.27-.03-.5.17-.53.43,0,.06,0,.13.02.19.1.41.21.52.72.52h-.1Zm-1.65-50.76c0-.41-.31-.52-.62-.52s-.52.21-.41.62.31.52.62.52c.31-.03.54-.31.52-.62h-.1Zm-.52,45.71c.27.02.5-.18.52-.45,0-.02,0-.04,0-.06,0-.41-.21-.62-.62-.52s-.52.21-.52.62c.03.31.31.54.62.52h0v-.1Zm-3.1,2.99c.31,0,.52-.1.62-.52s-.1-.62-.52-.62-.52.1-.62.52.1.62.52.62h0Zm5.88-1.13c-.25,0-.45.21-.44.46,0,.05.01.11.03.16,0,.31.21.52.62.41s.52-.31.52-.62c-.03-.31-.31-.54-.62-.52l-.1.1Zm-2.89,4.13c.27.02.5-.18.52-.45,0-.02,0-.04,0-.06,0-.41-.21-.62-.52-.62-.27-.02-.5.18-.52.45,0,.02,0,.04,0,.06,0,.41.21.59.52.59v.03Zm-.62-3.2c0-.31-.1-.52-.52-.52-.27-.02-.5.18-.52.45,0,.02,0,.04,0,.06,0,.31.1.62.41.62.3,0,.56-.22.62-.52h0v-.1Zm.83.41c-.27-.02-.5.18-.52.45,0,.02,0,.04,0,.06.03.31.31.54.62.52h0c.31,0,.41-.31.41-.52.02-.27-.18-.5-.45-.52-.02,0-.04,0-.06,0Zm0-1.96c.02-.26-.16-.48-.41-.52-.3,0-.56.22-.62.52,0,.21.1.52.41.52h0c.31,0,.41-.31.52-.52h.1Zm1.03,1.34c.22-.01.4-.19.41-.41,0-.21,0-.41-.31-.52h-.1c-.31,0-.41.21-.52.41s0,.41.41.41l.1.1Z"/><path class="cls-15" d="m69.76,275.97h7.02c.62,0,.72.21.72.83v13.62c0,.52-.1.72-.72.72h-15.79c.02-.22.09-.43.21-.62,1.96-3.2,3.82-6.4,5.78-9.6,1.03-1.59,1.96-3.25,2.79-4.95Z"/><path class="cls-15" d="m57.05,291.04c-1.65,0-2.48-.78-2.48-2.37v-11.9c0-.72.21-.93.93-.93h10.32c-.72,1.5-1.55,2.95-2.48,4.33-2.06,3.61-4.23,7.12-6.29,10.73v.13Z"/><path class="cls-12" d="m69.76,275.97c-.83,1.71-1.76,3.36-2.79,4.95-1.86,3.2-3.82,6.4-5.78,9.6,0,.21-.21.41-.21.62h-1.65c.02-.22.09-.43.21-.62,1.65-2.68,3.3-5.47,4.85-8.15,1.24-2.17,2.58-4.13,3.71-6.4h1.65Z"/><path class="cls-6" d="m68.09,275.97c-1.13,2.17-2.48,4.23-3.71,6.4-1.65,2.79-3.3,5.47-4.85,8.15,0,.21-.21.41-.21.62h-1.13c.47-1.21,1.1-2.35,1.86-3.4,2.27-3.92,4.64-7.84,6.91-11.66h1.13v-.1Z"/><path class="cls-11" d="m66.96,275.97c-2.27,3.92-4.64,7.74-6.91,11.66-.76,1.05-1.38,2.2-1.86,3.4h-1.13c2.17-3.51,4.23-7.12,6.29-10.73.92-1.39,1.75-2.83,2.48-4.33h1.13Z"/><path class="cls-14" d="m69.12,306.41c2.27,0,1.96-.21,1.96,1.96,0,1.24,0,1.34-1.44,1.34h-1.65c-.51.06-.97-.3-1.03-.81,0-.07,0-.15,0-.22,0-2.37-.21-2.37,2.17-2.27Z"/><path class="cls-14" d="m62.93,306.41h0c1.96,0,2.48.62,1.96,2.58-.05.45-.46.78-.92.72,0,0,0,0-.01,0-.79.05-1.58.05-2.37,0-1.55-.31-.62-1.65-.83-2.48-.1-.62.21-.93.83-.83h1.34Z"/><path class="cls-14" d="m62.93,301.53h0c1.96,0,2.48.62,1.96,2.58-.07.4-.42.7-.83.72h-2.37c-.62,0-1.03-.31-.93-1.03v-.31c0-2.27-.31-2.06,2.06-2.06l.1.1Z"/><path class="cls-14" d="m69.12,301.53c2.17,0,1.96-.21,1.96,1.96,0,1.24-.21,1.44-1.44,1.44h-.52c-2.48,0-2.17-.21-2.17-2.58,0-.52.31-.72.83-.72h1.34v-.1Z"/><path class="cls-14" d="m69.02,314.67c-1.96,0-2.58-.72-2.06-2.68.08-.38.43-.65.83-.62h2.89c.93.72.41,1.75.41,2.58,0,.62-.52.72-1.03.72h-1.03Z"/><path class="cls-14" d="m62.93,314.67c-1.86,0-2.58-1.03-1.96-2.79.07-.36.41-.6.77-.53.02,0,.04,0,.06.01h2.89c.93.72.41,1.65.41,2.48,0,.52-.41.83-1.03.83h-1.13Z"/><path class="cls-14" d="m62.93,296.61h0c2.06,0,2.48.52,2.06,2.58,0,.52-.41.72-.93.83h-.83q-2.37,0-2.37-2.37c0-2.37.31-1.13,1.03-1.03h1.03Z"/><path class="cls-14" d="m69.12,296.61c2.17,0,1.96-.21,1.96,1.96,0,1.24-.21,1.44-1.44,1.44h-.52c-2.48,0-2.17-.21-2.17-2.58,0-.52.31-.72.83-.83h1.34Z"/><path class="cls-14" d="m56.95,314.67c-2.37,0-1.96-.1-1.96-1.96q0-1.34,1.34-1.34h.41c2.48,0,2.17-.31,2.17,2.17,0,.93-.31,1.24-1.13,1.24h-.83v-.1Z"/><path class="cls-14" d="m75.11,311.26c2.27,0,1.96-.21,1.96,1.96q0,1.34-1.34,1.34h-.41c-2.68,0-2.17,0-2.27-2.27,0-.83.31-1.24,1.13-1.13h.83l.1.1Z"/><path class="cls-14" d="m75.11,306.41c2.17,0,1.96-.21,1.96,2.06,0,1.24-.1,1.34-1.34,1.34h-.31c-2.79,0-2.27.1-2.37-2.37,0-.72.21-1.03.93-1.03h1.13Z"/><path class="cls-14" d="m56.95,306.41c2.17,0,1.86-.21,1.96,1.96,0,1.24,0,1.44-1.34,1.44h-.41c-2.68,0-2.17,0-2.27-2.27,0-.83.31-1.24,1.13-1.13h.93Z"/><path class="cls-14" d="m56.95,301.53c2.17,0,1.96-.21,1.96,1.96,0,1.34,0,1.44-1.44,1.44h-.31c-2.48,0-2.17,0-2.27-2.27,0-.83.21-1.13,1.03-1.03h.93l.1-.1Z"/><path class="cls-14" d="m75.11,296.61c2.17,0,1.96-.21,1.96,2.06,0,1.24-.1,1.34-1.34,1.34h-.31c-2.58,0-2.27.1-2.37-2.37,0-.72.21-1.03.93-1.03h1.13Z"/><path class="cls-14" d="m75.11,301.53c2.17,0,1.96-.21,1.96,1.96,0,1.34-.1,1.44-1.34,1.44h-1.44c-.83,0-1.13-.31-1.13-1.13v-.21c0-2.27-.31-2.06,2.06-2.06h-.1Z"/><path class="cls-14" d="m56.95,296.61c2.17,0,1.96-.21,1.96,1.96,0,1.24-.1,1.34-1.34,1.34h-.31c-2.58,0-2.37.1-2.37-2.37,0-.72.21-1.03.93-1.03h1.03l.1.1Z"/><path class="cls-16" d="m67.99,273.09c-.31,0-.62-.1-.62-.52-.01-.33.25-.61.58-.62.01,0,.03,0,.04,0,.31,0,.62.1.62.52.01.33-.25.61-.58.62-.01,0-.03,0-.04,0Z"/><path class="cls-16" d="m70.46,272.57c0,.41-.31.52-.72.52s-.62-.21-.62-.52.31-.52.72-.52.62.21.62.52Z"/><path class="cls-18" d="m64.48,322.72c.02.31-.2.59-.52.62-.27.03-.5-.17-.53-.43,0-.06,0-.13.02-.19,0-.31.1-.62.52-.62.3-.04.58.16.62.46,0,.05,0,.1,0,.16h-.1Z"/><path class="cls-16" d="m62.31,271.95c.41,0,.52.21.52.62.02.27-.18.5-.45.52-.02,0-.04,0-.06,0h0c-.41,0-.72-.21-.62-.62s.31-.52.72-.52h-.1Z"/><path class="cls-16" d="m64.69,272.47c0,.41-.21.62-.52.52-.28.06-.56-.13-.62-.41-.06-.28.13-.56.41-.62.07-.01.14-.01.21,0,.31,0,.62.1.62.52h-.1Z"/><path class="cls-16" d="m64.48,318.48c0,.41-.21.62-.52.62s-.52-.21-.52-.62.1-.52.52-.52.62.1.62.52h-.1Z"/><path class="cls-16" d="m68.61,318.38c0,.52-.21.72-.52.72s-.52-.21-.52-.62.31-.52.62-.52c.26-.02.48.16.52.41h-.1Z"/><path class="cls-16" d="m68.19,323.2c-.41,0-.72-.1-.72-.52s.21-.62.52-.62.52.21.52.62-.1.52-.41.52h.1Z"/><path class="cls-16" d="m66.54,272.47c.04.28-.14.54-.41.62-.31,0-.62-.1-.62-.52-.04-.28.14-.54.41-.62.41,0,.62.1.62.52Z"/><path class="cls-16" d="m66.03,318.18c-.31,0-.52-.1-.62-.52s.1-.62.52-.62.62.21.62.52c.02.27-.18.5-.45.52-.02,0-.04,0-.06,0v.1Z"/><path class="cls-16" d="m63.04,321.14c-.41,0-.52-.21-.52-.62s.21-.52.62-.52.52.21.52.62-.21.52-.62.52Z"/><path class="cls-16" d="m68.92,320.03c.41,0,.62.1.62.41s-.1.62-.52.62c-.28.04-.54-.14-.62-.41,0-.41.1-.62.41-.62h.1Z"/><path class="cls-16" d="m66.03,315.91c-.22-.01-.4-.19-.41-.41,0-.21.1-.31.41-.31.21-.02.39.14.41.35,0,.02,0,.04,0,.06,0,.21-.1.31-.41.31Z"/><path class="cls-18" d="m65.41,320.96c-.06.29-.32.51-.62.52-.31,0-.52-.21-.41-.62s.21-.52.52-.52.41.31.52.52v.1Z"/><path class="cls-18" d="m66.23,321.37c.27-.02.5.18.52.45,0,.02,0,.04,0,.06,0,.31,0,.52-.41.52s-.62-.1-.62-.41h0c0-.31.21-.41.52-.52v-.1Z"/><path class="cls-18" d="m66.13,319.52c-.02.28-.24.5-.52.52-.26.02-.48-.16-.52-.41h0c.03-.31.31-.54.62-.52.31,0,.41.21.41.52v-.1Z"/><path class="cls-16" d="m67.27,320.75c-.41,0-.52-.21-.41-.41s.21-.52.52-.41c.22.01.4.19.41.41v.1c-.01.22-.19.4-.41.41l-.1-.1Z"/><path d="m32.81,283.93c2.72-.26,5.14,1.74,5.4,4.47,0,.03,0,.07,0,.1l.21,4.06-10.09.64-.21-4.06c-.19-2.68,1.84-5.01,4.52-5.2.06,0,.11,0,.17,0Zm.18,2.2c-1.42-.06-2.62,1.04-2.68,2.45,0,.12,0,.25.01.37l.09,1.77,5.66-.41-.09-1.77c-.06-1.48-1.31-2.63-2.79-2.57-.08,0-.15,0-.23.02l.03.14Z"/><path d="m29.25,281.64c-.73-.13-1.22-.83-1.09-1.56.13-.73.83-1.22,1.56-1.09.73.13,1.22.83,1.09,1.56h0c-.12.72-.79,1.21-1.51,1.09-.01,0-.03,0-.04,0Zm1.89.11l.36-2.1,7.06,1.22-.36,2.1-7.06-1.22Z"/><path d="m38.73,273.75c1.61.54,1.81,2.14,1.24,3.61-.34,1.23-1.36,2.15-2.62,2.36l-.38-2.08c.55.08,1.07-.3,1.16-.85.19-.49.13-.78-.19-.86-.81-.27-1.55,3.18-3.88,2.41-1.47-.58-1.78-2-1.29-3.53.33-1.1,1.24-1.94,2.37-2.16l.29,2.03c-.43.04-.81.33-.96.73-.16.22-.11.52.1.68.02.01.04.02.05.03.81.27,1.46-3.23,3.97-2.36l.14-.03Z"/><path d="m42.39,265.56c1.71,1.03,2.26,3.25,1.23,4.96-.02.03-.04.06-.06.09-.44.69-1.15,1.16-1.95,1.32l3.04,1.95-1.23,1.91-8.34-5.72,1.17-1.82.61.39c-.16-.79.01-1.61.48-2.27,1.17-1.58,3.4-1.91,4.98-.74.04.03.07.05.1.08l-.03-.14Zm-1.17,1.82c-.77-.57-1.87-.41-2.44.36,0,0-.01.01-.02.02-.55.69-.43,1.7.26,2.25.06.04.12.09.18.12.77.57,1.87.41,2.44-.36,0,0,.01-.01.02-.02.57-.64.51-1.62-.13-2.19-.09-.08-.19-.15-.3-.21l-.02.03Z"/><path d="m38.91,259.52l1.55-1.46,7.2,7.69-1.55,1.46-7.2-7.69Z"/><path d="m50.96,254.87l3.74,6.2-1.84,1.15-.35-.59c-.16.79-.68,1.45-1.4,1.8-1.92.88-4.19.04-5.08-1.88-.76-1.64-.26-3.59,1.19-4.67.68-.44,1.53-.57,2.31-.36l-.35-.59,1.84-1.15-.06.09Zm.02,4.18c-.45-.84-1.49-1.15-2.33-.7-.02,0-.04.02-.05.03-.88.46-1.22,1.55-.76,2.44.46.88,1.55,1.22,2.44.76.88-.46,1.22-1.55.76-2.44-.02-.03-.03-.06-.05-.09Z"/><path d="m60.36,252.08l-.61,7.45c-.21,2.44-1.22,3.63-3.22,4.06l-.49-1.91c.83-.1,1.46-.82,1.43-1.66l-4.51-5.96,2.34-.58,2.7,3.82.18-4.67,2.25-.64-.06.09Z"/><path d="m74.83,261.59l-1.88-3.44-.39,3.15-2.13-.24,1.34-10.02,2.13.24-.84,5.99,2.57-2.82,2.55.37-3.07,3.21,2.18,3.98-2.41-.33-.05-.09Z"/><path d="m81.02,261.73c.49.2,1.04.2,1.52,0l1.21,1.57c-1.05.64-2.36.69-3.46.13-1.95-.63-3.02-2.72-2.39-4.66.04-.11.08-.22.13-.33.68-1.89,2.76-2.86,4.65-2.18.12.04.24.09.35.15,1.88.76,2.8,2.9,2.04,4.78-.02.05-.04.09-.06.14-.08.28-.3.52-.39.8l-4.74-2c-.02.74.49,1.4,1.21,1.57l-.09.05Zm2.24-1.93c.08-.71-.3-1.4-.94-1.72-.65-.33-1.44-.15-1.88.44l2.86,1.14-.04.14Z"/><path d="m93.73,263.25l-6.22,4.11c-2.07,1.37-3.65,1.29-5.17,0l1.23-1.62c.58.6,1.54.65,2.17.1l1.81-7.22,1.94,1.41-1.4,4.53,3.69-2.72,1.8,1.37.14.04Z"/><path d="m97,273.1c-1.5,1.27-3.74,1.09-5.02-.41-.03-.03-.05-.06-.08-.1-.54-.61-.77-1.44-.64-2.24l-2.83,2.14-1.31-1.75,8.09-6.07,1.31,1.75-.63.35c.81.13,1.53.59,1.99,1.27,1.12,1.62.71,3.83-.91,4.95-.04.02-.07.05-.11.07l.14.04Zm-1.31-1.75c.74-.49.95-1.48.47-2.23-.04-.07-.09-.13-.14-.19-.45-.74-1.42-.97-2.16-.52-.09.06-.18.12-.26.2-.74.49-.95,1.48-.47,2.23.04.07.09.13.14.19.45.74,1.42.97,2.16.52.09-.06.18-.12.26-.2h0Z"/><path d="m103.65,280.28l-6.79,2.42-.77-2.05.54-.3c-.77-.23-1.34-.87-1.49-1.65-.49-2.06.79-4.13,2.86-4.62,1.76-.41,3.57.46,4.35,2.09.34.75.28,1.62-.15,2.31l.54-.3c.05.09.82,2.14.82,2.14l.09-.05Zm-4.09-.82c.84-.21,1.35-1.06,1.14-1.9-.03-.1-.06-.21-.11-.3-.29-.88-1.24-1.35-2.11-1.06-.03.01-.06.02-.1.04-.84.21-1.35,1.06-1.14,1.9.03.1.06.21.11.3.3.87,1.26,1.33,2.13,1.03.02,0,.03-.01.05-.02l.03.02Z"/><path d="m107.43,290.68l-10.1.46-.13-2.17.69-.03c-.65-.49-1-1.28-.91-2.09.03-2,1.65-3.62,3.65-3.64,1.96-.2,3.7,1.23,3.9,3.18,0,.03,0,.06,0,.09.06.81-.23,1.61-.8,2.2l3.55-.18.13,2.17Zm-6.58-1.93c.95,0,1.73-.76,1.74-1.71,0-.02,0-.04,0-.06,0-.89-.74-1.61-1.63-1.61-.06,0-.12,0-.18.01-.95,0-1.73.76-1.74,1.71,0,.02,0,.04,0,.06,0,.89.74,1.61,1.63,1.61.06,0,.12,0,.18-.01h0Z"/></svg>