<?xml version="1.0" encoding="UTF-8"?><svg id="Layer_1" xmlns="http://www.w3.org/2000/svg" viewBox="0 0 400 433"><defs><style>.cls-1{fill:#009245;}.cls-2{stroke:#a5262d;}.cls-2,.cls-3,.cls-4{stroke-width:4px;}.cls-2,.cls-3,.cls-4,.cls-5{fill:none;stroke-miterlimit:10;}.cls-3{stroke:#000;}.cls-6{fill:#fff;}.cls-7{fill:#57575e;}.cls-8{fill:#a7b4b9;}.cls-9{fill:#535454;}.cls-10{fill:#72b3e2;}.cls-4{stroke:#0018c6;}.cls-11{fill:#d9d9ea;}.cls-12{fill:#d1d1d1;}.cls-13{fill:#48459c;}.cls-14{fill:#546e7a;}.cls-15{fill:#434348;}.cls-16{fill:#453e43;}.cls-17{fill:#3392f5;}.cls-18{fill:#bacce9;}.cls-19{fill:#444b66;}.cls-20{fill:#656565;}.cls-21{fill:#c7c7c7;}.cls-22{fill:#f8d77c;}.cls-23{fill:#bdbdbd;}.cls-24{fill:#333;}.cls-25{fill:#ecf5fe;}.cls-26{fill:#ffed58;}.cls-5{stroke:#231f20;stroke-width:2px;}.cls-27{fill:#685e66;}.cls-28{fill:gray;}.cls-29{fill:#36464e;}.cls-30{fill:#c6ecf9;}.cls-31{fill:#424248;}.cls-32{fill:#fbbd41;}.cls-33{fill:#199dbc;}.cls-34{fill:#3d435c;}.cls-35{fill:#01b6a0;}.cls-36{fill:#72b2e2;}.cls-37{fill:#b9cce9;}.cls-38{fill:#aaa;}.cls-39{fill:#788f9b;}.cls-40{fill:#3392f6;}.cls-41{fill:#dcdcdc;}.cls-42{fill:#c6ecfa;}.cls-43{fill:#454c67;}.cls-44{fill:#c6d8de;}.cls-45{fill:#c4d8dd;}.cls-46{fill:#29abe2;}.cls-47{fill:#fbd734;}.cls-48{fill:#60acfd;}.cls-49{fill:#eee;}.cls-50{fill:#d7e1f2;}.cls-51{fill:#cad9df;}.cls-52{fill:#231f20;}.cls-53{fill:#c7d9de;}.cls-54{fill:#c5d8de;}.cls-55{fill:#474847;}.cls-56{fill:#6e6b87;}</style></defs><circle class="cls-2" cx="200" cy="216.5" r="45"/><path d="m180.41,187.3c1.57,2.02,1.21,4.92-.8,6.5l-1.6,1.22,2.6,3.3-2.4,1.9-8.3-10.4,3.9-3.1c1.97-1.6,4.87-1.31,6.47.66,0,.01.02.02.03.04l.1-.12Zm-2.4,1.9c-.47-.71-1.43-.9-2.14-.43-.06.04-.11.08-.16.13l-1.6,1.2,2.1,2.7,1.6-1.2c.69-.56.79-1.58.23-2.27,0-.01-.02-.02-.03-.03v-.1Z"/><path d="m180.86,181.6l2.6-1.2,5.75,12.62-2.6,1.2-5.75-12.62Z"/><path d="m198.21,181.1l1.7,9.4-2.8.5-.2-.9c-.58.9-1.53,1.49-2.6,1.6-2.61.37-5.03-1.46-5.4-4.07,0,0,0-.02,0-.03-.62-2.51.92-5.04,3.43-5.66.06-.01.11-.03.17-.04,1.04-.24,2.13-.03,3,.6l-.2-.9,2.8-.5h.1Zm-2,5.2c-.14-1.2-1.22-2.06-2.42-1.93-.06,0-.12.02-.18.03-1.17.14-2,1.2-1.87,2.36.01.11.04.23.07.34.14,1.2,1.22,2.06,2.42,1.93.06,0,.12-.02.18-.03,1.17-.14,2-1.2,1.87-2.36-.01-.11-.04-.23-.07-.34Z"/><path d="m208.71,188.8c-.3,2.2-2.3,2.9-4.3,2.6-1.73-.04-3.25-1.16-3.8-2.8l2.6-1.1c.14.73.76,1.26,1.5,1.3.7,0,1,0,1.1-.5.1-1-4.6-1.1-4.2-4.3.3-2.1,2.1-2.9,4.1-2.6,1.51.13,2.82,1.1,3.4,2.5l-2.6,1c-.16-.54-.64-.94-1.2-1-.5,0-.8,0-.9.4-.1,1.1,4.6,1,4.1,4.4l.2.1Z"/><path d="m214.41,186.8l-1.2,3.1c-.3.8.3,1.1,1.5,1.5l-.9,2.4c-3.6-1-4.2-2.4-3.3-4.9l1.2-3.2-1.4-.5,1-2.6,1.4.5.6-1.7,3,.2-.9,2.5,1.8.7-1,2.6-1.8-.7v.1Z"/><path d="m219.71,186.2l2.4,1.5-4.9,8.2-2.35-1.5,4.85-8.2Zm1.1-2.3c.47-.8,1.5-1.07,2.3-.6.8.47,1.07,1.5.6,2.3-.47.8-1.5,1.07-2.3.6-.78-.47-1.04-1.49-.56-2.28,0,0,0-.01.01-.02h-.05Z"/><path d="m221.41,192.7c1.78-2.01,4.86-2.2,6.87-.41.08.07.15.14.23.21,1.3,1.19,1.84,2.99,1.4,4.7l-2.8-.7c.21-.73-.02-1.51-.6-2-.92-.82-2.33-.73-3.15.19-.76.86-.74,2.17.05,3.01.53.59,1.36.79,2.1.5l.8,2.7c-1.7.51-3.54.05-4.8-1.2-2.02-1.89-2.12-5.05-.23-7.07.01-.01.02-.02.03-.03l.1.1Z"/><path class="cls-50" d="m223.38,212.73v.1h-1.6q-.68,0-.68.69v30.33c.02.44-.13.88-.42,1.21-.19.22-.49.25-.68.45h-10.68c0-.09,0-.18,0-.27l-1.23-5.36c-.72-3.12-1.43-6.23-2.15-9.35-1.05-4.55-2.11-9.1-3.16-13.64-.92-4-1.84-7.97-2.75-11.92h15c.23-.04.46.03.63.18v6.21c.02.73.59,1.32,1.32,1.37h3.78c.28,0,.38-.09.38-.36v-1.84c.12,0,.17.11.24.19l2,2.01Z"/><path class="cls-37" d="m223.38,244.42c-.39.8-1.26,1.25-2.14,1.1-.41-.02-.82-.02-1.23,0,.19-.2.49-.24.67-.45.29-.34.44-.77.42-1.21v-30.35q0-.69.69-.69h1.59v31.6Z"/><path class="cls-23" d="m179.75,204.88v-.9c-.16-.88.3-1.75,1.11-2.11h2c0,.07.04.14.1.19.6.38.92,1.08.82,1.78-.02.38-.02.75,0,1.13h-3.92l-.11-.09Z"/><path class="cls-38" d="m183.75,205.02v-1.13c.15-.73-.17-1.48-.81-1.87-.06-.05-.1-.12-.11-.19h2c.89.41,1.38,1.37,1.17,2.33v.77l-2.25.09Z"/><path class="cls-25" d="m209.32,245.51h-6.22c0-.06,0-.12,0-.18l-1.83-8-3.18-13.66c-1.07-4.62-2.14-9.24-3.23-13.86-.37-1.61-.73-3.22-1.1-4.83h6.22c.91,4,1.82,7.97,2.74,11.91,1.05,4.55,2.11,9.09,3.17,13.64.72,3.12,1.43,6.23,2.14,9.35.41,1.79.82,3.58,1.24,5.36.02.09.04.18.05.27Z"/><path class="cls-25" d="m215.62,205.15c.13.03.26.1.34.21l5,5c.05.05.1.11.14.18v1.83c0,.27-.1.36-.38.36h-3.78c-.72-.06-1.29-.64-1.32-1.37v-6.21Z"/><path class="cls-50" d="m193.79,205.02c.37,1.61.73,3.22,1.1,4.83,1.06,4.62,2.12,9.24,3.19,13.86l3.18,13.65,1.83,8c0,.06,0,.12,0,.18h-14.05v-3c0-.51-.27-.81-.71-.82s-.75.29-.75.82v3h-9.22c-.95.02-1.73-.74-1.75-1.69,0-.01,0-.03,0-.04v-37.11c.01-.94.78-1.69,1.72-1.68.01,0,.02,0,.03,0h9.23v3c-.06.4.22.77.62.82.03,0,.06,0,.09,0,.46,0,.75-.29.75-.83v-3h4.74Zm-4.74,20.27v-1.55c0-.4-.33-.73-.73-.73-.4,0-.73.33-.73.73h0v3c-.04.39.24.74.64.78.04,0,.08,0,.11,0,.4,0,.72-.33.71-.73,0-.02,0-.04,0-.05,0-.47,0-.96,0-1.45Zm-1.47,6.14v1.55c0,.4.33.73.73.73.4,0,.73-.33.73-.73h0v-3.06c-.03-.41-.35-.73-.76-.76-.39,0-.7.31-.7.7,0,.02,0,.03,0,.05v1.52Zm0-12.41v1.5c-.02.41.29.77.71.79h0c.42-.05.74-.4.75-.82v-2.91c0-.55-.26-.83-.74-.83s-.71.29-.72.81,0,1,0,1.46Zm0-6.27v1.51c-.04.37.22.71.59.76.04,0,.08,0,.12,0,.39.03.72-.26.75-.64,0-.05,0-.09,0-.14v-2.92c.04-.38-.23-.73-.61-.78-.04,0-.08,0-.13,0-.45,0-.71.28-.72.8s0,.94,0,1.41h0Zm1.47,25v-1.47c0-.52-.27-.8-.72-.81-.39-.02-.72.27-.74.65,0,.04,0,.08,0,.13v2.92c-.05.38.21.72.59.78.05,0,.09,0,.14,0,.46,0,.71-.29.72-.8s0-.94,0-1.42v.02Z"/><path class="cls-37" d="m189.04,205.02v3c0,.53-.29.84-.75.82s-.7-.31-.71-.82v-3h1.46Z"/><path class="cls-23" d="m179.86,245.52h3.93v1.19c.1.83-.39,1.62-1.18,1.9h-1.27c-.84.04-1.56-.61-1.6-1.46,0-.05,0-.1,0-.14v-1.41l.12-.08Z"/><path class="cls-38" d="m182.57,248.61c.78-.29,1.27-1.07,1.18-1.9v-1.19h2.25c.07.6.07,1.21,0,1.81-.13.78-.82,1.34-1.61,1.29h-1.82Z"/><path class="cls-37" d="m187.59,245.51v-3c0-.54.29-.84.75-.83.4,0,.72.34.72.74,0,.03,0,.06,0,.09v3h-1.46Z"/><path class="cls-21" d="m179.86,205.02h-.09s0-.06,0-.09l.09.09Z"/><path class="cls-21" d="m179.86,245.52l-.07.09s0-.06,0-.09h.07Z"/><path class="cls-18" d="m189.05,225.29v1.46c0,.4-.33.73-.73.73-.4,0-.73-.33-.73-.73h0v-3c-.04-.39.25-.74.64-.78.02,0,.05,0,.07,0,.4-.02.73.29.75.69,0,.03,0,.06,0,.09,0,.49,0,1.03,0,1.54Z"/><path class="cls-37" d="m187.59,231.43v-1.5c-.03-.38.25-.71.63-.75.02,0,.05,0,.07,0,.4.03.72.36.75.76v3.06c.03.37-.24.7-.62.74-.04,0-.08,0-.11,0-.38.02-.7-.27-.72-.66,0-.03,0-.07,0-.1,0-.51,0-1.03,0-1.55Z"/><path class="cls-37" d="m187.59,219.02v-1.46c0-.52.26-.8.71-.8s.74.27.74.82v2.92c0,.42-.33.77-.75.81-.41-.02-.73-.37-.71-.79h0c0-.5.01-1,.01-1.5Z"/><path class="cls-37" d="m187.59,212.75v-1.41c0-.52.26-.8.72-.8.38-.03.71.26.73.64,0,.05,0,.09,0,.14v2.92c0,.4-.33.73-.73.73-.4,0-.73-.33-.73-.73h0c-.01-.46,0-.98,0-1.49Z"/><path class="cls-37" d="m189.05,237.73v1.42c0,.51-.27.8-.72.8-.38.03-.71-.26-.73-.64,0-.05,0-.09,0-.14v-2.92c-.04-.38.23-.73.61-.78.04,0,.08,0,.13,0,.45,0,.7.29.71.81v1.45Z"/><path class="cls-36" d="m300.57,327.81c2.57-.12,5.08.8,6.96,2.56.45.34.56.97.24,1.44-.32.4-.88.4-1.44,0-1.45-1.42-3.42-2.17-5.44-2.08-1.69.04-3.31.7-4.56,1.84-.14.16-.3.29-.48.4-.39.31-.96.24-1.27-.15,0,0,0,0-.01-.01-.28-.35-.28-.85,0-1.2.49-.51,1.06-.95,1.68-1.28,1.32-.86,2.83-1.35,4.4-1.44l-.08-.08Z"/><path class="cls-10" d="m300.97,331.17c1.75-.01,3.44.65,4.72,1.84.56.48.64,1.04.24,1.44-.39.4-1.03.4-1.43.01,0,0,0,0-.01-.01-1.89-1.76-4.83-1.76-6.72,0-.56.48-1.04.48-1.44.08s-.32-.96.16-1.44c1.23-1.12,2.82-1.78,4.48-1.84v-.08Z"/><path class="cls-10" d="m301.05,334.53c1.06,0,2.09.41,2.88,1.12.38.31.49.85.24,1.28h0c-.3.4-.87.47-1.27.17,0,0,0,0-.01-.01h0c-.92-.86-2.36-.86-3.28,0-.27.35-.77.43-1.12.16-.06-.05-.11-.1-.16-.16l-.08-.08c-.31-.42-.23-1.01.19-1.32.02-.01.04-.03.05-.04h0c.76-.71,1.76-1.11,2.8-1.12h-.24Z"/><path class="cls-1" d="m317.53,354.53c-1.2-4.24,2.64-13.2-3.92-13.76h-24.8c-6.96.16-3.12,9.44-4.32,13.76v5.36c1.2,4.24-2.56,12.88,3.68,13.76h25.6c6.32-.8,2.56-9.6,3.76-13.76v-5.36Z"/><circle class="cls-4" cx="301.05" cy="344.61" r="36"/><path d="m282.09,330.53l-.96,1.76-4.56-2.56,2.16,3.84v.24l-4.56.16,4.56,2.56-.96,1.76-7.84-4.4.96-1.76,4.64-.16-2.32-4.08.96-1.76,7.84,4.4h.08Z"/><path d="m280.33,327.97c-1.24-1.37-1.14-3.48.23-4.72.03-.03.06-.05.09-.08,1.42-1.23,3.56-1.09,4.8.32,1.24,1.37,1.14,3.48-.23,4.72-.03.03-.06.05-.09.08-1.42,1.23-3.56,1.09-4.8-.32Zm3.68-3.2c-.55-.58-1.47-.6-2.05-.04-.58.55-.6,1.47-.04,2.05.54.56,1.43.6,2.01.08.59-.47.69-1.33.23-1.92-.04-.06-.09-.11-.15-.16Z"/><path d="m290.25,314.77l3.68,8.16-1.76.8-.24-.56c-.22.7-.75,1.26-1.44,1.52-1.58.68-3.4-.05-4.08-1.63-.03-.07-.06-.14-.08-.21-.83-1.53-.26-3.44,1.27-4.27.03-.02.06-.03.09-.05.65-.3,1.4-.33,2.08-.08l-1.28-2.88,1.76-.8Zm.64,6c-.39-.73-1.3-1.01-2.03-.62-.73.39-1.01,1.3-.62,2.03.37.7,1.22.99,1.94.67.76-.33,1.1-1.21.77-1.97-.02-.04-.03-.07-.05-.11Z"/><path d="m297.77,320.77c.46.01.9-.23,1.12-.64l1.68.64c-.5.98-1.48,1.63-2.58,1.7-1.81.38-3.58-.79-3.95-2.59-.02-.09-.04-.19-.05-.29-.31-1.8.9-3.51,2.7-3.81.06-.01.12-.02.18-.03,1.75-.27,3.38.92,3.65,2.67.01.07.02.14.03.21v.8l-4.48.64c.32.6,1.04.87,1.68.64l.02.06Zm.88-2.48c-.23-.61-.88-.95-1.52-.8-.65.07-1.17.56-1.28,1.2l2.72-.4h.08Z"/><path d="m311.58,319.73l-.8,3.84-1.84-.4.8-3.68c.16-.64-.08-1.12-.72-1.2s-1.04.24-1.2.96l-.72,3.52-1.84-.4.8-3.68c.16-.64-.08-1.12-.72-1.2s-1.04.24-1.2.96l-.72,3.52-1.84-.4,1.36-6.24,1.84.4-.16.56c.5-.45,1.2-.6,1.84-.4.66.11,1.21.57,1.44,1.2.55-.46,1.29-.64,2-.48,1.44.32,2.16,1.52,1.84,3.12h-.16Z"/><path d="m313.77,320.13l4.16,2.48-.96,1.6-4.16-2.48.96-1.6Z"/><path d="m322.49,329.49c-1.14,1.16-3.01,1.17-4.16.02-.08-.08-.16-.17-.24-.26-.99-.9-1.35-2.31-.9-3.58l2,.56c-.3.54-.17,1.22.32,1.6.36.48,1.04.58,1.52.22.03-.02.05-.04.08-.06.4-.4.48-.96-.16-1.6l-.32-.32.24-1.36,2.64-.32-2.32-2.32,1.36-1.36,4.08,4.08-1.2,1.2-2.48.32c.56,1.02.4,2.28-.4,3.12l-.06.06Z"/><path d="m328.65,337.81c-2.03,1.13-4.6.41-5.74-1.63-.07-.12-.13-.25-.18-.37-1.17-2.28-.28-5.07,2-6.24,2.28-1.17,5.07-.28,6.24,2h0c.74,1.38.71,3.05-.08,4.4l-1.68-1.12c.4-.75.4-1.65,0-2.4-.62-1.31-2.19-1.87-3.51-1.25-.03.01-.06.03-.09.05-1.29.58-1.86,2.1-1.28,3.39.05.1.1.2.16.29.37.9,1.26,1.48,2.24,1.44l-1.04-2.16,1.6-.8,2,4-.72.32.08.08Z"/><path d="m294.89,355.17c.94.29,1.77.85,2.4,1.6.61.77.92,1.74.88,2.72.07,1.5-.55,2.94-1.68,3.92-1.16.91-2.6,1.39-4.08,1.36-1.21.06-2.41-.25-3.44-.88-1.04-.56-1.82-1.51-2.16-2.64l3.52-2c.2,1.01,1.14,1.7,2.16,1.6,1.12,0,1.04-.16,1.28-.4.57-.49.64-1.35.15-1.93-.05-.05-.1-.1-.15-.15-.37-.27-.82-.42-1.28-.4h-.9l-1.52-2.24,2.48-3.04h-5.28v-3.82h10.16v3.12l-2.64,3.2.1-.02Z"/><path d="m315.58,355.49v1.6c.2,4.09-2.95,7.56-7.04,7.76-.24.01-.48.01-.72,0-2.23.05-4.39-.78-6-2.32-1.54-1.52-2.38-3.6-2.32-5.76-.02-2.18.81-4.27,2.32-5.84,1.53-1.58,3.64-2.45,5.84-2.4,1.4-.13,2.81.21,4,.96,1.17.62,2.17,1.53,2.88,2.64l-3.36,1.92c-.36-.5-.82-.91-1.36-1.2-.64-.33-1.36-.49-2.08-.48-1.13-.03-2.23.4-3.04,1.2-.81.83-1.25,1.96-1.2,3.12-.05,1.14.39,2.24,1.2,3.04.88.85,2.06,1.31,3.28,1.28,1.36,0,3.04-.72,3.6-2.08h-3.76v-3.44h7.76Z"/><circle class="cls-4" cx="263.57" cy="66.13" r="36"/><path class="cls-16" d="m271.41,50.77h1.52c.62.03,1.12.51,1.2,1.12v34c.09.71-.3,1.4-.96,1.68h-19.44c-.68-.26-1.09-.96-.96-1.68v-1.04h9.36c.24,0,.4,0,.32-.32v-.62c.22-.49.77-.73,1.28-.56.51.15.79.69.64,1.2,0,0,0,0,0,0,0,.24,0,.32.24.32h5.28c.76,0,1.37-.62,1.36-1.37,0-.02,0-.04,0-.07v-2.4c.28-.13.44-.42.4-.72v-24.88c0-.29-.15-.57-.4-.72v-3.92l.16-.02Z"/><path class="cls-27" d="m271.41,50.77v3.92h-15.36c-.72,0-.88.16-.88.88v24.64c0,.72.16.88.88.88h15.52v2.4c.04.75-.54,1.4-1.29,1.44-.02,0-.04,0-.07,0h-5.28c-.24,0-.32-.08-.24-.32.16-.51-.13-1.04-.64-1.2,0,0,0,0,0,0-.51-.17-1.06.07-1.28.56-.08.21-.08.43,0,.64.08.32,0,.32-.32.32h-9.36v-32.48c-.07-.81.52-1.53,1.33-1.6.09,0,.18,0,.27,0h16.96l-.24-.08Z"/><path d="m235.25,58.77c1.87.43,3.05,2.28,2.64,4.16l-.32,1.44,3.12.64-.48,2.24-9.84-2.16.8-3.76c.38-1.89,2.22-3.11,4.11-2.73.02,0,.03,0,.05.01l-.08.16Zm-.48,2.24c-.66-.17-1.33.22-1.5.88,0,.03-.01.05-.02.08l-.32,1.44,2.56.56.32-1.44c.13-.65-.29-1.29-.94-1.42-.03,0-.06-.01-.1-.02v-.08Z"/><path d="m241.65,51.65l3.84,2.24-1.12,1.84-3.52-2.08c-.52-.39-1.25-.29-1.65.22-.04.06-.08.12-.11.18-.41.58-.27,1.38.31,1.78.08.05.16.1.25.14l3.36,2-1.12,1.84-8.72-5.12,1.12-1.84,3.04,1.84c-.24-.76-.13-1.58.32-2.24.72-1.28,2.24-1.76,3.92-.8h.08Z"/><path d="m243.33,50.77c-1.4-1.51-1.3-3.86.2-5.26.04-.04.08-.07.12-.1,1.57-1.39,3.97-1.25,5.36.32,1.33,1.63,1.09,4.02-.54,5.35-1.53,1.25-3.77,1.12-5.14-.31h0Zm4.08-3.6c-.64-.66-1.7-.68-2.36-.04s-.68,1.7-.04,2.36c.63.65,1.66.68,2.33.08.68-.56.78-1.57.22-2.25-.04-.05-.09-.1-.14-.15Z"/><path d="m256.53,41.41l1.76,4.08-2,.88-1.6-3.76c-.22-.64-.92-.99-1.56-.77-.04.01-.08.03-.12.05-.68.26-1.01,1.02-.75,1.7.03.08.07.15.11.22l1.52,3.6-2,.88-2.88-6.64,2-.88.24.64c.2-.76.78-1.36,1.52-1.6,1.36-.56,2.88-.08,3.68,1.68l.08-.08Z"/><path d="m262.53,43.25c.52-.03,1.01-.26,1.36-.64l1.84.8c-.64,1.04-1.74,1.69-2.96,1.76-2,.36-3.91-.98-4.27-2.98-.03-.15-.04-.31-.05-.46-.24-2.05,1.23-3.9,3.28-4.14.05,0,.11-.01.16-.02,2.03-.18,3.82,1.33,3.99,3.35,0,.03,0,.06,0,.09v.88l-5.12.48c.32.72,1.04.88,1.84.88h-.08Zm1.12-2.72c-.22-.67-.9-1.08-1.6-.96-.74-.02-1.37.54-1.44,1.28l3.12-.32h-.08Z"/><path d="m274.53,39.33l1.28.4-.56,2-1.28-.4-1.44,4.88-2.08-.64,1.44-4.88-.96-.24.56-2,.96.24c.56-1.92,2-2.8,4.24-2l-.56,2c-.72-.32-1.36-.24-1.6.56v.08Z"/><path d="m281.33,42.21l-1.12,2.16c-.66-.63-1.71-.61-2.34.05-.12.13-.22.27-.3.43l-1.52,2.88-1.92-.96,3.28-6.4,1.92.96-.56,1.12c.69-.67,1.76-.77,2.56-.24Z"/><path d="m288.53,48.37l-4.8,5.36-1.6-1.44.48-.48c-.8.07-1.59-.23-2.16-.8-1.42-1.55-1.32-3.96.22-5.38,1.36-1.25,3.43-1.35,4.9-.22.65.49,1.01,1.27.96,2.08l.48-.48,1.6,1.44-.08-.08Zm-4,1.2c.62-.73.53-1.82-.2-2.44-.73-.62-1.82-.53-2.44.2-.6.71-.53,1.77.15,2.4.68.64,1.75.61,2.4-.07.03-.03.06-.06.08-.09Z"/><path d="m292.93,61.97l-4,1.84-.88-1.92,3.84-1.76c.64-.32.96-.8.64-1.44-.29-.58-.99-.82-1.57-.54-.04.02-.07.04-.11.06l-3.68,1.68-.88-1.92,3.84-1.76c.64-.32.96-.8.64-1.44-.29-.58-.99-.82-1.57-.54-.04.02-.07.04-.11.06l-3.68,1.68-.88-1.92,6.56-3.04.88,1.92-.64.24c.73.15,1.34.66,1.6,1.36.36.65.36,1.43,0,2.08.8.18,1.46.75,1.76,1.52.72,1.52.08,2.96-1.52,3.76l-.24.08Z"/><path d="m290.61,68.21c.01.52.24,1.02.64,1.36l-.88,1.76c-1.05-.64-1.66-1.81-1.6-3.04-.08-2.48,1.44-4.08,3.6-4.16,2.06-.15,3.84,1.4,3.99,3.46,0,.07,0,.15,0,.22.11,2.01-1.43,3.72-3.43,3.83-.06,0-.11,0-.17,0h-.88l-.24-5.12c-.67.32-1.05,1.03-.96,1.76l-.08-.08Zm2.72,1.2c.7-.2,1.14-.88,1.04-1.6.02-.73-.49-1.36-1.2-1.5l.16,3.1Z"/><path class="cls-36" d="m351.41,255.21c2.57-.12,5.08.8,6.96,2.56.45.34.56.97.24,1.44-.32.4-.88.4-1.44,0-1.45-1.42-3.42-2.17-5.44-2.08-1.69.04-3.31.7-4.56,1.84-.14.16-.3.29-.48.4-.39.31-.96.24-1.27-.15,0,0,0,0-.01-.01-.28-.35-.28-.85,0-1.2.49-.51,1.06-.95,1.68-1.28,1.32-.86,2.83-1.35,4.4-1.44l-.08-.08Z"/><path class="cls-10" d="m351.81,258.57c1.75-.01,3.44.65,4.72,1.84.56.48.64,1.04.24,1.44-.39.4-1.03.4-1.43.01,0,0,0,0-.01-.01-1.89-1.76-4.83-1.76-6.72,0-.56.48-1.04.48-1.44.08s-.32-.96.16-1.44c1.23-1.12,2.82-1.78,4.48-1.84v-.08Z"/><path class="cls-10" d="m351.89,261.93c1.06,0,2.09.41,2.88,1.12.38.31.49.85.24,1.28h0c-.3.4-.87.47-1.27.17,0,0,0,0-.01-.01h0c-.92-.86-2.36-.86-3.28,0-.27.35-.77.43-1.12.16-.06-.05-.11-.1-.16-.16l-.08-.08c-.31-.42-.23-1.01.19-1.32.02-.01.04-.03.05-.04h0c.76-.71,1.76-1.11,2.8-1.12h-.24Z"/><path class="cls-28" d="m368.37,281.93c-1.2-4.24,2.64-13.2-3.92-13.76h-24.8c-6.96.16-3.12,9.44-4.32,13.76v5.36c1.2,4.24-2.56,12.88,3.68,13.76h25.6c6.32-.8,2.56-9.6,3.76-13.76v-5.36Z"/><circle class="cls-4" cx="351.89" cy="272.01" r="36"/><path d="m332.93,257.93l-.96,1.76-4.56-2.56,2.16,3.84v.24l-4.56.16,4.56,2.56-.96,1.76-7.84-4.4.96-1.76,4.64-.16-2.32-4.08.96-1.76,7.84,4.4h.08Z"/><path d="m331.17,255.37c-1.24-1.37-1.14-3.48.23-4.72.03-.03.06-.05.09-.08,1.42-1.23,3.56-1.09,4.8.32,1.24,1.41,1.09,3.56-.32,4.8s-3.56,1.09-4.8-.32Zm3.68-3.2c-.55-.58-1.47-.6-2.05-.04-.58.55-.6,1.47-.04,2.05.54.56,1.43.6,2.01.08.59-.47.69-1.33.23-1.92-.04-.06-.09-.11-.15-.16h0Z"/><path d="m341.09,242.17l3.68,8.16-1.76.8-.24-.56c-.22.7-.75,1.26-1.44,1.52-1.58.68-3.4-.05-4.08-1.63-.03-.07-.06-.14-.08-.21-.83-1.53-.26-3.44,1.27-4.27.03-.02.06-.03.09-.05.65-.3,1.4-.33,2.08-.08l-1.28-2.88,1.76-.8Zm.64,6c-.39-.73-1.3-1.01-2.03-.62-.73.39-1.01,1.3-.62,2.03.37.7,1.22.99,1.94.67.76-.33,1.1-1.21.77-1.97-.02-.04-.03-.07-.05-.11Z"/><path d="m348.61,248.17c.46.01.9-.23,1.12-.64l1.68.64c-.5.97-1.47,1.6-2.56,1.68-1.81.38-3.58-.79-3.95-2.59-.02-.09-.04-.19-.05-.29-.31-1.8.9-3.51,2.7-3.81.06-.01.12-.02.18-.03,1.75-.27,3.38.92,3.65,2.67.01.07.02.14.03.21v.8l-4.48.64c.32.6,1.04.87,1.68.64v.08Zm.88-2.48c-.23-.61-.88-.95-1.52-.8-.65.07-1.17.56-1.28,1.2l2.72-.4h.08Z"/><path d="m362.45,247.13l-.8,3.84-1.84-.4.8-3.68c.16-.64-.08-1.12-.72-1.2s-1.04.24-1.2.96l-.72,3.52-1.84-.4.8-3.68c.16-.64-.08-1.12-.72-1.2s-1.04.24-1.2.96l-.72,3.52-1.84-.4,1.36-6.24,1.84.4-.16.56c.5-.45,1.2-.6,1.84-.4.66.11,1.21.57,1.44,1.2.55-.46,1.29-.64,2-.48,1.44.32,2.16,1.52,1.84,3.12h-.16Z"/><path d="m364.61,247.53l4.16,2.48-.96,1.6-4.16-2.48.96-1.6Z"/><path d="m367.89,253.29h4.32c.63.01,1.25-.19,1.76-.56.38-.34.4-.92.06-1.3-.02-.02-.04-.04-.06-.06-.42-.43-1.07-.53-1.6-.24l-.48-1.92c1.21-.52,2.61-.23,3.52.72,1.19,1.04,1.32,2.84.28,4.03-.04.04-.08.09-.12.13-.8.74-1.87,1.11-2.96,1.04h-2.08l2.16,2.16-1.36,1.36-4.32-4.32,1.04-1.04h-.16Z"/><path d="m379.33,264.73c-1.97,1.17-4.52.51-5.69-1.46-.09-.15-.17-.3-.23-.46-1.27-2.2-.51-5,1.68-6.27.08-.04.16-.09.24-.13,2.27-1.2,5.09-.33,6.29,1.94,0,.02.02.04.03.06.76,1.37.76,3.03,0,4.4l-1.68-1.12c.36-.76.36-1.64,0-2.4-.62-1.28-2.17-1.82-3.45-1.2-.05.02-.1.05-.15.08-1.27.61-1.8,2.14-1.19,3.41.05.09.1.19.15.27.36.94,1.32,1.5,2.32,1.36l-1.12-2.16,1.6-.8,2.08,4-.72.32-.16.16Z"/><path d="m337.89,291.85v-2.88l5.2-5.44c.41-.42.78-.88,1.12-1.36.21-.3.33-.67.32-1.04-.01-.36-.15-.7-.4-.96-.29-.25-.66-.36-1.04-.32-.96.03-1.8.68-2.08,1.6l-3.44-1.92c.88-2.26,3.1-3.7,5.52-3.6,1.39.02,2.74.5,3.84,1.36,1.06.89,1.65,2.22,1.6,3.6.09.88-.14,1.76-.64,2.48-.48.89-1.1,1.7-1.84,2.4l-2.16,2.24h4.88v3.84h-10.88Z"/><path d="m365.81,282.89v1.6c.2,4.09-2.95,7.56-7.04,7.76-.24.01-.48.01-.72,0-2.23.05-4.39-.78-6-2.32-1.54-1.52-2.38-3.6-2.32-5.76-.02-2.18.81-4.27,2.32-5.84,1.53-1.58,3.64-2.45,5.84-2.4,1.4-.13,2.81.21,4,.96,1.17.62,2.17,1.53,2.88,2.64l-3.36,1.92c-.36-.5-.82-.91-1.36-1.2-.64-.33-1.36-.49-2.08-.48-1.13-.03-2.23.4-3.04,1.2-.81.83-1.25,1.96-1.2,3.12-.05,1.14.39,2.24,1.2,3.04.88.85,2.06,1.31,3.28,1.28,1.36,0,3.04-.72,3.6-2.08h-3.76v-3.44h7.76,0Z"/><circle class="cls-4" cx="326.12" cy="117.34" r="36"/><path class="cls-33" d="m318.28,147.26c-.16-.12-.36-.18-.56-.16-3.09-.73-5.24-3.55-5.12-6.72v-32.08c-.1-2.69,1.46-5.16,3.92-6.24.88-.41,1.83-.63,2.8-.64h13.76c3.68-.04,6.68,2.92,6.72,6.59,0,.04,0,.09,0,.13v32.32c.06,3.2-2.21,5.98-5.36,6.56-.2-.02-.4.04-.56.16h-15.6v.08Zm7.84-26.48h9.12c1.04,0,1.44-.48,1.44-1.44v-12.08c.12-.72-.36-1.4-1.08-1.52-.14-.02-.29-.02-.44,0h-18.08c-.72-.12-1.4.36-1.52,1.08-.02.14-.02.29,0,.44v12c0,1.04.4,1.52,1.52,1.52h9.04Zm2.8,5.92c.01-1.49-1.18-2.71-2.67-2.72-.02,0-.03,0-.05,0-1.54.02-2.78,1.26-2.8,2.8.03,1.52,1.28,2.74,2.8,2.72,1.54-.02,2.78-1.26,2.8-2.8h-.08Zm3.84-.16v1.52c-.05.35.2.67.55.72.06,0,.11,0,.17,0h2.32c.35.05.67-.2.72-.55,0-.06,0-.11,0-.17v-3.12c.05-.35-.2-.67-.55-.72-.06,0-.11,0-.17,0h-2.32c-.35-.05-.67.2-.72.55,0,.06,0,.11,0,.17v1.6Zm-16.96.24v1.6c-.05.35.2.67.55.72.06,0,.11,0,.17,0h2.32c.48,0,.72-.24.72-.64v-3.2c0-.37-.27-.69-.64-.72h-2.4c-.48,0-.64.24-.72.72v1.52h0Zm18.4,11.68h1.52c.48,0,.72-.32.72-.8,0-1.12-.08-1.52-.64-1.6h-3.12c-.37-.03-.69.25-.72.62,0,.03,0,.07,0,.1v.96c0,.48.24.72.8.72h1.44Zm-16.24,4.56h.72c1.52,0,1.52-.32,1.52-1.52,0-.64-.24-.88-.88-.88h-2c-1.68,0-1.6.24-1.52,1.68-.03.41.29.77.7.8.03,0,.07,0,.1,0h1.44l-.08-.08Zm8.24-4.56h1.36c.64,0,.88-.24.96-.88v-.64c0-.64-.24-.88-.88-.88h-2c-1.76,0-1.6.32-1.6,1.68-.05.39.24.75.63.8.06,0,.11,0,.17,0h1.44l-.08-.08Zm0,2.08h-1.52c-.35-.05-.67.2-.72.55,0,.06,0,.11,0,.17v.86c-.05.44.27.83.71.88.06,0,.11,0,.17,0h2.08c1.68,0,1.6-.32,1.6-1.68.05-.39-.24-.75-.63-.8-.06,0-.11,0-.17,0h-1.52v.02Zm7.92,2.48h.72c1.6.08,1.52-.32,1.52-1.6v-.16c.03-.37-.25-.69-.62-.72-.03,0-.07,0-.1,0h-2.96c-.4-.04-.76.26-.8.67,0,.02,0,.03,0,.05v.96c0,.48.32.72.8.72h1.44v.08Zm-7.92-9.04h.64c1.68,0,1.6-.24,1.6-1.68h0c.03-.37-.25-.69-.62-.72-.03,0-.07,0-.1,0h-2.96c-.37-.03-.69.25-.72.62,0,.03,0,.07,0,.1v.88c0,.56.24.8.8.8h1.36,0Zm7.92,0h1.52c.48,0,.72-.32.72-.8.08-1.04,0-1.52-.56-1.68h-3.2c-.37-.03-.69.25-.72.62,0,.03,0,.07,0,.1v.88c-.05.39.24.75.63.8.06,0,.11,0,.17,0h1.44v.08Zm-16.16,0h1.52c.56,0,.72-.32.72-1.36,0-.72-.24-1.04-.72-1.04h-2.96c-.37-.03-.69.25-.72.62,0,.03,0,.07,0,.1v.88c0,.56.24.8.8.8h1.36Zm0,4.48h1.52c.48,0,.72-.32.72-.8.08-1.12,0-1.52-.56-1.6h-3.12c-.39-.05-.75.24-.8.63,0,.06,0,.11,0,.17v.88c0,.48.24.72.8.8h1.44v-.08Z"/><path class="cls-12" d="m326.12,120.78h-8.96c-1.12,0-1.52-.4-1.52-1.52v-12c0-1.04.4-1.52,1.52-1.52h18.08c1.12,0,1.52.4,1.52,1.52v12.08c0,1.04-.48,1.44-1.44,1.44h-9.2Z"/><path class="cls-24" d="m328.92,126.7c-.02,1.54-1.26,2.78-2.8,2.8-1.5-.04-2.72-1.22-2.8-2.72.02-1.54,1.26-2.78,2.8-2.8,1.49-.01,2.71,1.18,2.72,2.67,0,.02,0,.03,0,.05h.08Z"/><path class="cls-24" d="m332.76,126.54v-1.6c-.05-.35.2-.67.55-.72.06,0,.11,0,.17,0h2.32c.35-.05.67.2.72.55,0,.06,0,.11,0,.17v3.12c.05.35-.2.67-.55.72-.06,0-.11,0-.17,0h-2.32c-.35.05-.67-.2-.72-.55,0-.06,0-.11,0-.17v-1.52Z"/><path class="cls-24" d="m315.8,126.78v-1.52c-.05-.35.2-.67.55-.72.06,0,.11,0,.17,0h2.4c.4,0,.64.24.64.72v3.2c0,.48-.24.64-.72.64h-2.32c-.48,0-.64-.24-.72-.72v-1.6Z"/><path class="cls-24" d="m334.28,138.46h-1.44c-.4.04-.76-.26-.8-.67,0-.02,0-.03,0-.05v-.96c-.03-.37.25-.69.62-.72.03,0,.07,0,.1,0h3.12c.56.08.72.48.64,1.6,0,.48-.24.8-.72.8h-1.52Z"/><path class="cls-24" d="m318.04,142.93h-1.44c-.39.05-.75-.24-.8-.63,0-.06,0-.11,0-.17,0-1.44-.16-1.76,1.52-1.68h2c.64,0,.88.24.88.88,0,1.28,0,1.6-1.52,1.52h-.8l.16.08Z"/><path class="cls-24" d="m326.28,138.46h-1.44c-.41.03-.77-.29-.8-.7,0-.03,0-.07,0-.1,0-1.36-.16-1.76,1.6-1.68h2c.64,0,.88.24.88.88v.64c0,.64-.24.88-.96.88h-1.36l.08.08Z"/><path class="cls-24" d="m326.36,140.53h1.44c.41-.03.77.29.8.7,0,.03,0,.07,0,.1,0,1.36.16,1.76-1.6,1.68h-2.08c-.56,0-.8-.24-.88-.88v-.88c-.03-.37.25-.69.62-.72.03,0,.07,0,.1,0h1.6Z"/><path class="cls-24" d="m334.2,142.93h-1.44c-.4.04-.76-.26-.8-.67,0-.02,0-.03,0-.05v-.96c0-.48.24-.72.8-.72h2.96c.35-.05.67.2.72.55,0,.06,0,.11,0,.17v.16c0,1.28,0,1.68-1.52,1.6h-.8l.08-.08Z"/><path class="cls-24" d="m326.28,133.98h-1.44c-.39.05-.75-.24-.8-.63,0-.06,0-.11,0-.17v-.88c-.03-.37.25-.69.62-.72.03,0,.07,0,.1,0h2.96c.37-.03.69.25.72.62,0,.03,0,.07,0,.1h0c0,1.44.08,1.76-1.6,1.68h-.56Z"/><path class="cls-24" d="m334.2,133.98h-1.44c-.48,0-.72-.32-.8-.8v-.88c-.05-.35.2-.67.55-.72.06,0,.11,0,.17,0h3.2c.48.16.64.56.56,1.68.04.4-.26.76-.67.8-.02,0-.03,0-.05,0h-1.52v-.08Z"/><path class="cls-24" d="m318.04,133.98h-1.44c-.56,0-.8-.24-.8-.8v-.88c-.03-.37.25-.69.62-.72.03,0,.07,0,.1,0h2.96c.56,0,.72.32.72,1.04,0,1.04-.16,1.36-.72,1.36h-1.44,0Z"/><path class="cls-24" d="m318.04,138.46h-1.44c-.39.05-.75-.24-.8-.63,0-.06,0-.11,0-.17v-.88c-.03-.41.29-.77.7-.8.03,0,.07,0,.1,0h3.12c.48.08.64.56.56,1.6,0,.48-.24.8-.72.8h-1.52v.08Z"/><path d="m301.48,135.1c1.29-1.13,3.24-1.03,4.4.24l.88.96,2.08-1.92,1.36,1.52-6.64,6.08-2.32-2.48c-1.17-1.23-1.13-3.17.1-4.34.02-.02.04-.04.06-.06h.08Zm1.36,1.52c-.46.37-.53,1.05-.16,1.51.03.03.05.06.08.09l.88.96,1.68-1.52-.88-.96c-.39-.44-1.07-.48-1.51-.09-.03.03-.06.06-.09.09v-.08Z"/><path d="m299.4,127.02l3.52-1.76.88,1.76-3.28,1.6c-.55.21-.83.83-.62,1.38.02.05.04.09.06.14.23.57.88.84,1.45.61.08-.03.16-.08.23-.13l3.12-1.52.88,1.76-8.08,3.92-.88-1.76,2.8-1.36c-1.27-.37-2.01-1.7-1.64-2.97.21-.74.76-1.33,1.48-1.59l.08-.08Z"/><path d="m299.64,125.42c-1.85.36-3.64-.85-4-2.71s.85-3.64,2.71-4,3.64.85,4,2.71c0,.03.01.06.01.08.33,1.83-.88,3.58-2.71,3.92,0,0,0,0-.01,0Zm-.8-4.8c-.76.09-1.31.78-1.22,1.54,0,.05.01.09.02.14.14.81.91,1.35,1.72,1.21.01,0,.02,0,.04,0,.76-.09,1.31-.78,1.22-1.54,0-.05-.01-.09-.02-.14-.14-.81-.91-1.35-1.72-1.21-.01,0-.02,0-.04,0Z"/><path d="m298.44,111.18l3.92.4-.24,1.92-3.6-.4c-.59-.11-1.15.27-1.27.86,0,.03-.01.07-.01.1,0,.72.24,1.2,1.2,1.36l3.44.4-.24,1.92-6.4-.72.24-1.92h.56c-.48-.48-.69-1.17-.56-1.84.15-1.32,1.34-2.26,2.65-2.12.08,0,.15.02.23.04h.08Z"/><path d="m302.36,107.34c.16-.44.16-.92,0-1.36l1.44-1.12c.58.95.64,2.12.16,3.12-.58,1.78-2.49,2.75-4.27,2.17-1.78-.58-2.75-2.49-2.17-4.27.03-.1.07-.2.11-.3.78-1.72,2.8-2.48,4.52-1.71.21.1.41.21.6.35l-1.76,4.24c.65,0,1.23-.42,1.44-1.04l-.08-.08Zm-1.68-2c-.63-.11-1.25.27-1.44.88-.29.58-.12,1.29.4,1.68l1.04-2.56Z"/><path d="m303.88,96.22l.8-.88,1.36,1.2-.8.88,3.36,3.04-1.28,1.44-3.36-3.04-.56.64-1.36-1.2.56-.64c-1.36-1.2-1.44-2.64,0-4.16l1.36,1.2c-.56.48-.72.96-.16,1.52h.08Z"/><path d="m308.68,91.9l1.36,1.68c-.75.32-1.11,1.18-.79,1.94.06.14.14.27.23.38l1.76,2.24-1.52,1.2-4-5.04,1.52-1.2.72.88c-.27-.8.03-1.68.72-2.16v.08Z"/><path d="m316.04,88.22l2.72,5.76-1.76.8-.24-.56c-.22.68-.71,1.23-1.36,1.52-1.62.7-3.51-.05-4.2-1.67-.01-.03-.02-.06-.04-.09-.83-1.53-.26-3.44,1.27-4.27.03-.02.06-.03.09-.05.63-.38,1.42-.41,2.08-.08l-.24-.56,1.76-.8h-.08Zm-.4,3.68c-.33-.79-1.23-1.16-2.02-.83-.02,0-.04.02-.06.03-.76.33-1.1,1.21-.77,1.97.02.04.03.07.05.11.33.79,1.23,1.16,2.02.83.02,0,.04-.02.06-.03.75-.31,1.11-1.17.8-1.92-.02-.05-.05-.11-.08-.16Z"/><path d="m328.6,88.86l.32,3.92-1.92.16-.32-3.76c.06-.48-.28-.91-.76-.97-.09-.01-.19,0-.28.01-.64,0-.96.56-.88,1.28l.32,3.6-1.92.16-.32-3.76c.06-.48-.28-.91-.76-.97-.09-.01-.19,0-.28.01-.64,0-.96.56-.88,1.28l.32,3.6-1.92.16-.56-6.4,1.92-.16v.56c.38-.55,1.01-.88,1.68-.88.67-.07,1.33.2,1.76.72.38-.6,1.05-.97,1.76-.96,1.44-.16,2.48.88,2.64,2.4h.08Z"/><path d="m333.08,92.53c.43.12.89.06,1.28-.16l1.28,1.28c-1.45,1.25-3.64,1.09-4.9-.36s-1.09-3.64.36-4.9c.85-.73,2.01-1.01,3.1-.74,1.69.4,2.73,2.09,2.33,3.77-.02.1-.05.21-.09.31-.04.25-.12.49-.24.72l-4.4-1.2c0,.74.56,1.14,1.28,1.28Zm1.76-1.92c.03-.65-.41-1.22-1.04-1.36-.62-.23-1.31.05-1.6.64l2.64.72Z"/><path d="m341.88,98.86v-3.52c.08,0-1.6,2.24-1.6,2.24l-1.52-1.2,5.44-7.12,1.52,1.2-3.28,4.24,3.2-1.04,1.76,1.36-3.76,1.12v4l-1.76-1.36v.08Z"/><path d="m346.6,101.66c.27.36.67.59,1.12.64l.24,1.76c-1.09,0-2.13-.5-2.8-1.36-1.23-1.34-1.14-3.42.19-4.65.09-.08.19-.16.29-.23,1.44-1.18,3.55-.97,4.73.47.02.03.05.06.07.09,1.11,1.41.86,3.46-.55,4.57-.03.02-.06.05-.09.07-.19.16-.41.3-.64.4l-2.8-3.6c-.33.57-.23,1.3.24,1.76v.08Zm2.56-.48c.4-.49.4-1.19,0-1.68-.38-.53-1.08-.73-1.68-.48l1.68,2.16Z"/><path d="m355.64,108.46l-6.56.4c-2.16.16-3.36-.56-4-2.24l1.68-.72c.18.71.88,1.17,1.6,1.04l4.64-4.72.8,1.92-3.04,2.88,4.08-.4.8,1.92v-.08Z"/><path d="m353.8,117.5c-1.77.31-3.45-.87-3.76-2.64h0c-.14-.72.07-1.46.56-2l-3.12.4-.24-1.92,8.88-1.12.24,1.92h-.56c.57.46.94,1.12,1.04,1.84.17,1.73-1.1,3.26-2.83,3.43-.04,0-.09,0-.13,0l-.08.08Zm-.24-1.92c.81-.05,1.43-.75,1.37-1.57,0-.04,0-.08-.01-.11-.05-.78-.73-1.37-1.51-1.32-.09,0-.17.02-.25.04-.81.05-1.43.75-1.37,1.57,0,.04,0,.08.01.11.05.78.73,1.37,1.51,1.32.09,0,.17-.02.25-.04Z"/><path d="m355.8,125.9l-6.32-1.12.32-1.92h.56c-.44-.54-.61-1.24-.48-1.92.36-1.7,2.03-2.79,3.73-2.43.04,0,.08.02.11.03,1.76.21,3.01,1.8,2.8,3.55,0,.01,0,.02,0,.03-.09.73-.5,1.37-1.12,1.76h.56c0,.08-.32,2-.32,2l.16.02Zm-2.8-2.48c.82.19,1.64-.33,1.83-1.15,0-.02,0-.03.01-.05.18-.77-.3-1.55-1.08-1.73-.07-.02-.13-.03-.2-.03-.75-.2-1.52.25-1.72,1-.02.07-.03.13-.04.2-.18.77.3,1.55,1.08,1.73.07.02.13.03.2.03h-.08Z"/><path d="m354.2,135.5l-8-4.08.88-1.68.56.24c-.27-.68-.21-1.45.16-2.08.98-1.58,3.07-2.07,4.65-1.08,1.39.87,1.96,2.6,1.35,4.12-.3.67-.89,1.18-1.6,1.36l2.8,1.44-.88,1.68.08.08Zm-4.24-4.32c.76.35,1.67.01,2.01-.75.35-.76.01-1.67-.75-2.01-.74-.34-1.61-.03-1.98.69-.4.7-.15,1.6.55,2,.06.03.11.06.17.08Z"/><circle class="cls-4" cx="120.8" cy="356.85" r="36"/><path class="cls-49" d="m115.36,378.29h-6.64c0-.16-.16-.16-.32-.16-.77-.23-1.3-.95-1.28-1.76v-26.32c.48.64,1.12.64,1.52.08.28-.38.19-.92-.19-1.2-.15-.11-.34-.17-.53-.16-.36,0-.67.23-.8.56-.21-.88.18-1.79.96-2.24.08,0,.32,0,.32-.24h7.12c-.08.08-.24.08-.4.16-.74.38-1.19,1.17-1.12,2v27.12c-.06.88.46,1.69,1.28,2v.16h.08Z"/><path class="cls-9" d="m117.12,346.85h18c.99.21,1.66,1.15,1.52,2.16v27.04c.15,1.05-.58,2.01-1.63,2.16-.18.02-.36.02-.53,0h-17.36q0-.08-.16-.16c-.63-.21-1.07-.78-1.12-1.44-.08-.88,0-1.84,0-2.8.08.15.23.24.4.24h18.08c.64,0,.72-.08.72-.72v-23.04c0-.56-.16-.72-.72-.72h-17.92c-.2-.02-.4.04-.56.16-.16-.32,0-.64,0-.88,0-.78.43-1.49,1.12-1.84.09,0,.16-.07.16-.16Zm6.96,29.36c.01.71.57,1.3,1.28,1.36.75,0,1.36-.6,1.36-1.34,0,0,0-.01,0-.02-.05-.73-.63-1.31-1.36-1.36-.72-.03-1.33.53-1.36,1.25,0,.04,0,.08,0,.11h.08,0Zm1.76-27.92c0-.24-.16-.4-.48-.4-.27,0-.48.22-.48.48,0,.26.21.48.48.48.23.03.45-.13.48-.36,0-.04,0-.08,0-.12h0v-.08Z"/><path class="cls-41" d="m108.48,346.85c0,.16-.24.16-.32.24-.8.43-1.19,1.34-.96,2.22-.04.24-.04.48,0,.72-.08.08,0,.24,0,.32v26c.02.8.53,1.5,1.28,1.76.13-.02.26.05.32.16h-1.92c0-.16-.08-.16-.16-.16-.55-.17-1-.58-1.2-1.12,0-.09-.07-.16-.16-.16v-28.64c.06,0,.12-.03.16-.08.2-.52.6-.92,1.12-1.12,0,0,.08,0,.08-.16h1.76v.02Z"/><path class="cls-55" d="m117.12,346.85c0,.16-.08.16-.16.16-.75.29-1.21,1.04-1.12,1.84-.04.29-.04.59,0,.88-.11.53-.14,1.07-.08,1.6v22.56c0,.96-.08,1.84,0,2.8.07.65.51,1.21,1.12,1.44.09,0,.16.07.16.16-.59.05-1.18.03-1.76-.08-.82-.31-1.34-1.12-1.28-2v-27.12c-.07-.83.38-1.62,1.12-2,.16,0,.32,0,.4-.16h1.52l.08-.08Z"/><path class="cls-9" d="m107.2,350.05c-.08-.23-.08-.49,0-.72.13-.33.44-.55.8-.56-.24.72.08,1.2.72,1.28h0c-.4.56-1.04.56-1.52-.08v.08Z"/><path class="cls-20" d="m108.72,350.1h0c-.56-.08-.88-.56-.72-1.28.47-.02.87.35.88.83,0,.19-.05.38-.16.53v-.08Z"/><path class="cls-20" d="m124,376.21c0-.75.6-1.36,1.34-1.36,0,0,.01,0,.02,0,.74.02,1.34.62,1.36,1.36,0,.75-.6,1.36-1.34,1.36,0,0-.01,0-.02,0-.73-.05-1.31-.63-1.36-1.36Zm1.68,0c.01-.21-.14-.39-.35-.4-.02,0-.03,0-.05,0-.24,0-.48.24-.4.4s.16.4.4.32c.21.01.39-.14.4-.35,0-.02,0-.03,0-.05h0v.08Z"/><path class="cls-20" d="m125.84,348.21c.03.23-.13.45-.36.48-.04,0-.08,0-.12,0-.27,0-.48-.22-.48-.48,0-.26.21-.48.48-.48.32,0,.4.16.48.4v.08Z"/><path class="cls-9" d="m125.76,376.13c.01.21-.14.39-.35.4-.02,0-.03,0-.05,0-.2.02-.37-.12-.4-.32,0-.24.24-.48.4-.4.21-.01.39.14.4.35,0,.02,0,.03,0,.05v-.08Z"/><path d="m93.28,348.05l-.64,2.24,6.72,1.92-.56,2-6.72-1.92-.64,2.24-1.92-.56,1.84-6.4,1.92.56v-.08Z"/><path d="m97.36,341.89l5.6,3.2-.96,1.68-.56-.32c.23.69.15,1.46-.24,2.08-1.11,1.53-3.25,1.88-4.78.77-1.3-.94-1.77-2.66-1.14-4.13.32-.64.91-1.1,1.6-1.28l-.56-.32.96-1.68h.08Zm1.84,3.28c-.64-.44-1.52-.29-1.96.35-.05.07-.09.14-.12.21-.42.68-.21,1.57.47,1.99.05.03.11.06.17.09.64.44,1.52.29,1.96-.35.05-.07.09-.14.12-.21.42-.68.21-1.57-.47-1.99-.05-.03-.11-.06-.17-.09Z"/><path d="m106.24,337.41c1.26,1.24,1.27,3.27.03,4.53-.01.01-.02.02-.03.03-.5.52-1.2.78-1.92.72l.4.4-1.44,1.28-6.08-6.56,1.44-1.28,2.16,2.32c0-.71.33-1.39.88-1.84,1.34-1.15,3.36-1,4.51.34.02.02.03.04.05.06Zm-1.44,1.28c-.6-.58-1.55-.56-2.13.03-.58.6-.56,1.55.03,2.13.58.57,1.51.57,2.09,0,.6-.49.68-1.37.19-1.97-.06-.07-.12-.13-.19-.19h0Z"/><path d="m104.32,331.57l1.68-.96,4.8,8-1.68.96-4.8-8Z"/><path d="m114.08,335.49c.45-.11.81-.44.96-.88l1.76.32c-.31,1.04-1.12,1.85-2.16,2.16-1.7.73-3.66-.06-4.39-1.76-.03-.08-.06-.16-.09-.24-.66-1.68.16-3.57,1.84-4.23.08-.03.16-.06.24-.09,1.66-.61,3.5.25,4.1,1.91.02.06.04.11.06.17.09.23.15.47.16.72l-4.32,1.52c.45.49,1.17.63,1.76.32l.08.08Zm.32-2.56c-.32-.56-1.02-.77-1.6-.48-.65.14-1.08.78-.96,1.44l2.56-.88v-.08Z"/><path d="m119.92,331.17l.24,2.24c0,.56.56.56,1.36.4l.16,1.76c-2.48.56-3.28-.16-3.44-1.92l-.24-2.24h-1.04c0,.08-.24-1.76-.24-1.76h1.04c0-.08-.16-1.36-.16-1.36l1.84-.8.16,1.76,1.28-.16.24,1.84-1.28.16.08.08Z"/><path d="m128.88,329.89l1.2.24-.32,1.84-1.2-.24-.8,4.48-1.92-.32.8-4.48-.88-.16.32-1.84.88.16c.32-1.76,1.52-2.64,3.52-2.16l-.32,1.84c-.72-.16-1.2,0-1.36.64h.08Z"/><path d="m135.12,331.7l-.72,2.08c-.69-.49-1.64-.33-2.13.36-.08.11-.14.23-.19.36l-.96,2.72-1.84-.64,2.24-6,1.84.64-.4,1.04c.56-.64,1.45-.86,2.24-.56h-.08Z"/><path d="m142.08,336.13l-3.52,5.36-1.6-1.04.32-.48c-.69.13-1.41,0-2-.4-1.41-1.02-1.72-2.99-.7-4.4.02-.03.04-.05.06-.08,1.12-1.6,3.04-2.08,4.4-1.12.61.36,1.03.98,1.12,1.68l.32-.48,1.6,1.04v-.08Zm-3.36,1.6c.5-.64.39-1.56-.25-2.06-.05-.04-.1-.07-.15-.1-.69-.47-1.63-.3-2.1.39-.02.03-.04.06-.06.09-.5.64-.39,1.56.25,2.06.05.04.1.07.15.1.69.47,1.63.3,2.1-.39.02-.03.04-.06.06-.09h0Z"/><path d="m148.08,347.25l-3.2,2.32-1.12-1.52,3.04-2.24c.46-.27.62-.85.35-1.31,0-.02-.02-.03-.03-.05-.36-.46-1.02-.54-1.48-.19-.04.03-.08.07-.12.11l-2.88,2.16-1.12-1.52,3.04-2.24c.46-.27.62-.85.35-1.31,0-.02-.02-.03-.03-.05-.36-.46-1.02-.54-1.48-.19-.04.03-.08.07-.12.11l-2.88,2.16-1.12-1.52,5.2-3.76,1.12,1.5-.48.32c.67.01,1.28.38,1.6.96.44.5.57,1.22.32,1.84.74-.02,1.42.39,1.76,1.04.88,1.2.56,2.56-.72,3.52v-.14Z"/><path d="m147.28,352.93c.13.43.41.8.8,1.04l-.4,1.76c-2.08-.31-3.51-2.25-3.19-4.32.31-2.08,2.25-3.51,4.32-3.19,2.08.31,3.51,2.25,3.19,4.32-.2,1.33-1.08,2.45-2.32,2.95-.24,0-.48.16-.72.16l-1.28-4.4c-.53.42-.7,1.15-.4,1.76v-.08Zm2.56.48c.54-.33.78-1,.56-1.6-.15-.63-.72-1.06-1.36-1.04l.8,2.64Z"/><circle class="cls-4" cx="185.33" cy="54.63" r="36"/><path d="m161.89,40.47c-2.05-1.96-2.13-5.22-.17-7.27.05-.06.11-.11.17-.17,1.21-1.27,3-1.82,4.72-1.44l-.56,2.24c-.94-.25-1.93.06-2.56.8-1.15,1.03-1.25,2.79-.22,3.94.07.08.14.15.22.22.98,1.15,2.71,1.28,3.86.3.11-.09.21-.19.3-.3.72-.64,1-1.64.72-2.56l2.24-.64c.44,1.7-.08,3.51-1.36,4.72-1.91,2.05-5.12,2.17-7.18.26-.09-.08-.18-.17-.26-.26l.08.16Z"/><path d="m176.29,27.51l3.04,6.56-2,.88-.32-.64c-.26.77-.84,1.39-1.6,1.68-1.81.77-3.91-.08-4.68-1.89-.01-.04-.03-.07-.04-.11-.91-1.77-.23-3.94,1.52-4.88.72-.38,1.58-.41,2.32-.08l-.32-.64,2-.88h.08Zm-.48,4.16c-.35-.87-1.34-1.28-2.21-.93-.04.02-.07.03-.11.05-.84.35-1.23,1.31-.89,2.14.03.06.05.12.09.18.37.86,1.37,1.25,2.23.88.02,0,.04-.02.06-.03.83-.35,1.22-1.32.87-2.15-.02-.05-.04-.1-.07-.15h.03Z"/><path d="m190.61,28.79l.16,4.4h-2.19l-.16-4.16c0-.72-.4-1.2-1.04-1.12s-1.12.56-1.04,1.36l.16,4.08h-2.16l-.16-4.16c0-.72-.4-1.2-1.04-1.12s-1.12.56-1.04,1.36l.16,4.08h-2.16l-.24-7.12h2.16v.56c.46-.6,1.17-.95,1.92-.96.75-.05,1.47.28,1.92.88.49-.65,1.26-1.04,2.08-1.04,1.47-.08,2.73,1.05,2.81,2.51,0,.12,0,.24,0,.37l-.13.08Z"/><path d="m195.33,33.35c.49.2,1.03.2,1.52,0l1.28,1.52c-1.02.67-2.31.79-3.44.32-2.32-.88-3.2-2.96-2.4-4.96.64-1.92,2.72-2.97,4.64-2.33.08.03.16.06.24.09,1.85.64,2.83,2.65,2.2,4.5-.03.1-.07.2-.12.3-.08.29-.22.56-.4.8l-4.8-1.76c.02.74.55,1.37,1.28,1.52Zm2.16-2c.07-.71-.36-1.38-1.04-1.6-.66-.34-1.48-.09-1.84.56l2.88,1.04Z"/><path d="m206.18,33.11l-1.36,2c-.62-.73-1.71-.83-2.45-.21-.1.09-.19.18-.27.29l-1.84,2.64-1.76-1.2,4.08-5.92,1.76,1.2-.72,1.04c.76-.56,1.8-.56,2.56,0v.16Z"/><path d="m212.53,40.15l-5.52,4.64-1.36-1.68.48-.4c-.81-.02-1.57-.4-2.08-1.04-1.2-1.6-.92-3.86.64-5.12,1.46-1.36,3.75-1.29,5.12.16.56.61.82,1.42.72,2.24l.48-.4,1.36,1.68.16-.08Zm-4.16.72c.75-.57.89-1.64.31-2.39-.02-.03-.05-.06-.07-.09-.59-.73-1.65-.84-2.37-.25-.04.03-.07.06-.11.09-.75.57-.89,1.64-.31,2.39.02.03.05.06.07.09.59.73,1.65.84,2.37.25.04-.03.07-.06.11-.09h0Z"/><path class="cls-11" d="m208.53,62.71v.16c-.24,0-.16.24-.16.32.01.4-.01.8-.08,1.2-.37,2.72-1.23,5.35-2.56,7.76-1.16,2.09-2.61,4-4.32,5.68-1.82,1.76-3.93,3.19-6.24,4.24-1.93.89-3.98,1.51-6.08,1.84l-1.92.24h-3.04c-.53-.1-1.06-.15-1.6-.16-5.52-.75-10.58-3.48-14.24-7.68-2.98-3.45-4.85-7.71-5.36-12.24.03-.43-.03-.87-.16-1.28v-2.88c.07-.12.1-.26.08-.4,0-.65.08-1.29.24-1.92.41-2.52,1.25-4.96,2.48-7.2,1.13-2.08,2.59-3.97,4.32-5.6,4.9-4.71,11.65-6.97,18.4-6.16,2.55.31,5.04,1.04,7.36,2.16,5.03,2.49,8.98,6.73,11.12,11.92.79,1.89,1.3,3.88,1.52,5.92.13,1.2.19,2.4.16,3.6-.01.16.01.33.08.48h0Zm-19.04,18.32c.9-.14,1.78-.35,2.64-.64,9.55-3.29,15.19-13.14,13.2-23.04-1.52-7.12-5.84-12.08-12.56-14.8-1.02-.45-2.1-.75-3.2-.88-.18-.06-.37-.12-.56-.16-1.67-.25-3.36-.31-5.04-.16-3.13.17-6.17,1.17-8.8,2.88-7.12,4.64-10.32,11.2-9.44,19.68.55,5.53,3.51,10.53,8.08,13.68,3.75,2.72,8.33,4.08,12.96,3.84.92.02,1.84-.11,2.72-.4h0Z"/><path class="cls-7" d="m189.49,81.03c-.89.25-1.8.38-2.72.4-4.64.32-9.24-1.05-12.96-3.84-4.64-3.44-7.52-8-8.08-13.68-.96-8.48,2.32-15.04,9.44-19.68,2.63-1.71,5.67-2.71,8.8-2.88,1.68-.15,3.37-.09,5.04.16.2-.02.4.04.56.16.12.1.26.18.4.24,3.42,1.03,6.42,3.13,8.56,6,1.03,1.33,1.89,2.78,2.56,4.32,1.1,2.58,1.74,5.33,1.89,8.14.04,1.47-.04,2.94-.24,4.4-.31,2.25-.99,4.44-2,6.48-1.09,2.23-2.58,4.24-4.4,5.92-1.5,1.36-3.24,2.44-5.12,3.2-.57.18-1.13.39-1.68.64l-.05.02Zm-18.51-19.68c.02,8.02,6.54,14.5,14.56,14.48s14.5-6.54,14.48-14.56c-.02-8.02-6.54-14.5-14.56-14.48-7.99.02-14.46,6.49-14.48,14.48v.08Z"/><path class="cls-15" d="m189.49,81.03c.54-.26,1.1-.48,1.68-.64,1.88-.77,3.61-1.85,5.12-3.2,1.82-1.68,3.31-3.69,4.4-5.92,1.01-2.04,1.69-4.23,2-6.48.24-1.45.32-2.93.24-4.4-.08-2.82-.73-5.6-1.92-8.16-.67-1.54-1.53-2.99-2.56-4.32-2.14-2.87-5.14-4.97-8.56-6-.16,0-.24-.08-.4-.24,1.1.13,2.18.43,3.2.88,6.72,2.72,11.04,7.68,12.56,14.8,2.04,9.91-3.62,19.79-13.2,23.04-.85.33-1.73.55-2.64.64h.08Z"/><path class="cls-40" d="m170.98,61.43c0-8.04,6.52-14.56,14.56-14.56,8.04,0,14.56,6.52,14.56,14.56,0,8.04-6.52,14.56-14.56,14.56h0c-8.01,0-14.52-6.47-14.56-14.48h0v-.08Zm14.56-9.04h-6.56c-.69-.06-1.37.21-1.84.72-.16.16-.24.32-.4.48-2.26,2.44-3.34,5.74-2.96,9.04.28,2.86,1.62,5.51,3.76,7.44.23.24.55.39.88.4h13.6c.75.03,1.48-.26,2-.8.16-.16.24-.32.4-.4,2.37-2.66,3.4-6.25,2.8-9.76-.42-2.38-1.53-4.57-3.2-6.32-.44-.51-1.08-.81-1.76-.8h-6.72Z"/><path class="cls-13" d="m185.57,52.37h6.72c.68,0,1.32.29,1.76.8,1.7,1.72,2.81,3.93,3.2,6.32.63,3.51-.41,7.12-2.8,9.76-.09.17-.23.31-.4.4-.48.59-1.24.9-2,.8h-13.6c-.33-.01-.65-.16-.88-.4-2.12-1.94-3.46-4.58-3.76-7.44-.38-3.3.7-6.6,2.96-9.04.16-.14.29-.3.4-.48.46-.52,1.15-.79,1.84-.72h6.56Zm6.32,9.04c.02-3.47-2.77-6.3-6.24-6.32-.03,0-.05,0-.08,0-3.49-.04-6.36,2.75-6.4,6.24-.04,3.49,2.75,6.36,6.24,6.4,3.49.04,6.36-2.75,6.4-6.24,0-.03,0-.05,0-.08h.08,0Z"/><path class="cls-31" d="m191.89,61.43c-.04,3.44-2.8,6.23-6.24,6.32-3.39.1-6.22-2.56-6.32-5.95,0-.12,0-.25,0-.37,0-3.49,2.83-6.32,6.32-6.32s6.32,2.83,6.32,6.32h-.08Zm-6.32-3.52c-1.94.02-3.5,1.58-3.52,3.52h0c.02,1.94,1.58,3.5,3.52,3.52,1.93.01,3.51-1.54,3.52-3.47,0-.02,0-.03,0-.05,0-1.95-1.57-3.55-3.52-3.6h0v.08Z"/><path class="cls-48" d="m185.57,64.95c-1.9.04-3.48-1.47-3.52-3.37,0-.05,0-.1,0-.15.02-1.94,1.58-3.5,3.52-3.52h0c.32.16.4.56.48.88.4,1.76.4,3.6,0,5.36,0,.35-.19.68-.48.88v-.08Z"/><path class="cls-17" d="m185.57,64.95c.32-.16.4-.56.48-.88.4-1.76.4-3.6,0-5.36,0-.35-.19-.68-.48-.88,1.97,0,3.56,1.6,3.56,3.56,0,1.96-1.59,3.55-3.56,3.56h0Z"/><path class="cls-36" d="m201.9,356.33c2.58-.12,5.1.81,6.99,2.57.46.34.56.98.24,1.45-.32.4-.88.4-1.44,0-1.45-1.42-3.43-2.18-5.46-2.08-1.7.04-3.33.7-4.58,1.85-.14.16-.3.29-.48.4-.4.31-.97.24-1.28-.15,0,0,0,0,0,0-.28-.35-.28-.85,0-1.21.49-.51,1.06-.95,1.69-1.28,1.32-.86,2.84-1.36,4.42-1.45l-.08-.09Z"/><path class="cls-10" d="m202.31,359.71c1.76-.01,3.45.65,4.74,1.85.57.48.65,1.04.24,1.44-.38.4-1,.41-1.4.04-.01-.01-.03-.02-.04-.04-1.9-1.77-4.85-1.77-6.75,0-.56.49-1.05.49-1.45.08s-.32-.96.16-1.44c1.24-1.13,2.83-1.78,4.5-1.85v-.08Z"/><path class="cls-10" d="m202.39,363.07c1.07.01,2.1.41,2.89,1.13.39.31.49.86.24,1.29h0c-.3.4-.87.47-1.27.17,0,0,0,0-.01-.01h0c-.92-.87-2.37-.87-3.3,0-.3.36-.83.4-1.18.1-.04-.03-.07-.07-.1-.1l-.08-.08c-.32-.42-.23-1.02.19-1.33.02-.01.03-.02.05-.04h0c.76-.71,1.77-1.12,2.82-1.13h-.24Z"/><path class="cls-46" d="m218.94,383.17c-1.21-4.26,2.65-13.26-3.94-13.82h-24.91c-6.99.16-3.14,9.48-4.34,13.82v5.38c1.2,4.26-2.58,12.94,3.7,13.82h25.71c6.34-.8,2.57-9.6,3.78-13.82v-5.38Z"/><circle class="cls-4" cx="202.39" cy="373.21" r="36.16"/><path d="m183.34,359.07l-.96,1.77-4.58-2.57,2.17,3.86v.24l-4.58.16,4.58,2.57-.96,1.77-7.87-4.42.96-1.77,4.66-.16-2.34-4.1.97-1.77,7.87,4.42h.08Z"/><path d="m181.57,356.49c-1.24-1.39-1.11-3.52.28-4.76.02-.02.03-.03.05-.04,1.42-1.22,3.56-1.08,4.8.32,1.24,1.42,1.1,3.58-.32,4.82s-3.58,1.1-4.82-.32l.02-.02Zm3.7-3.2c-.56-.58-1.47-.59-2.05-.04-.58.56-.59,1.47-.04,2.05.54.56,1.42.59,2,.08.6-.46.71-1.32.25-1.92-.05-.07-.11-.13-.17-.19v.02Z"/><path d="m191.54,343.24l3.7,8.19-1.77.8-.24-.56c-.22.71-.76,1.27-1.45,1.53-1.58.68-3.42-.06-4.1-1.64-.03-.07-.06-.14-.08-.21-.82-1.56-.23-3.5,1.34-4.32,0,0,.02,0,.02-.01.66-.31,1.42-.34,2.1-.08l-1.29-2.9,1.77-.8Zm.64,6.02c-.29-.76-1.13-1.14-1.89-.85-.04.02-.08.03-.12.05-.75.31-1.11,1.18-.8,1.93.02.06.05.11.08.16.29.76,1.13,1.14,1.89.85.04-.02.08-.03.12-.05.76-.33,1.11-1.22.78-1.98-.02-.04-.04-.08-.06-.12Z"/><path d="m199.09,349.26c.47.01.9-.24,1.13-.64l1.68.64c-.5.97-1.48,1.61-2.57,1.69-1.82.37-3.59-.81-3.96-2.63-.02-.09-.03-.18-.04-.27-.31-1.81.91-3.52,2.71-3.83.06,0,.12-.02.17-.02,1.74-.28,3.39.91,3.67,2.65.01.08.02.16.03.24v.8l-4.5.64c.32.61,1.04.88,1.69.65l-.02.08Zm.88-2.5c-.23-.61-.88-.95-1.52-.8-.65.06-1.18.56-1.29,1.21l2.73-.41h.08Z"/><path d="m212.99,348.21l-.8,3.86-1.85-.4.8-3.7c.17-.64-.08-1.12-.72-1.21s-1.05.25-1.21.97l-.72,3.54-1.85-.4.8-3.7c.17-.65-.08-1.13-.72-1.21s-1.05.24-1.21.97l-.72,3.54-1.85-.41,1.37-6.26,1.85.4-.16.56c.5-.45,1.2-.6,1.85-.4.66.11,1.21.57,1.44,1.21.56-.47,1.31-.65,2.02-.48,1.44.32,2.17,1.52,1.85,3.13h-.17Z"/><path d="m215.16,348.62l4.18,2.49-.97,1.6-4.14-2.49.94-1.6Z"/><path d="m223.36,359.46l-.64-.64-1.05,1.05-1.45-1.53,1.05-1.05-2.9-2.89,1.37-1.37,6.02-1.93,1.53,1.6-6.02,1.93,1.29,1.37,1.36-1.37,1.45,1.53-1.37,1.36.65.65-1.37,1.36.08-.07Z"/><path d="m230.23,366.77c-2.01,1.11-4.53.38-5.64-1.62-.08-.15-.16-.31-.22-.47-1.24-2.26-.4-5.1,1.86-6.34,2.26-1.24,5.1-.4,6.34,1.86.05.1.1.2.15.3.73,1.4.66,3.07-.16,4.42l-1.69-1.12c.66-1.33.12-2.95-1.21-3.62-.76-.38-1.65-.38-2.41,0-1.32.6-1.91,2.15-1.32,3.47.03.08.07.15.12.23.35.92,1.26,1.51,2.25,1.45l-1.05-2.18,1.6-.8,1.93,4.1-.72.32h.17Z"/><path d="m200.63,387.02v3.7h-1.6v2.4h-4v-2.4h-6.91v-3.7l4.66-9.64h4.42l-4.74,9.64h2.5v-2.81h4v2.81h1.68Z"/><path d="m217.65,384.13v1.6c.2,4.1-2.95,7.59-7.05,7.79-.25.01-.49.01-.74,0-2.24.06-4.41-.78-6.03-2.33-1.54-1.52-2.38-3.62-2.33-5.78-.02-2.18.82-4.29,2.33-5.86,1.54-1.58,3.67-2.45,5.87-2.4,1.4-.13,2.81.21,4,.97,1.18.61,2.18,1.53,2.89,2.65l-3.37,1.93c-.36-.5-.83-.91-1.37-1.21-.65-.33-1.36-.49-2.09-.48-1.14-.03-2.25.4-3.06,1.21-.81.83-1.25,1.96-1.21,3.13-.05,1.14.39,2.25,1.21,3.06.88.86,2.07,1.32,3.3,1.29,1.5.04,2.9-.77,3.62-2.09h-3.78v-3.46h7.81Z"/><circle class="cls-4" cx="354.48" cy="192.53" r="36"/><path class="cls-35" d="m334.64,185.57v-5.92c0-.24,0-.32.32-.32h8.88v1.76q0,.64.64.64h19.92c.4,0,.48-.16.48-.48v-1.92h9.04c.08.16.16.32.16.48v5.44c0,.32-.16.48-.48.48h-1.12c-.88,0-1.52.8-1.44,1.68,0,.8.72,1.44,1.52,1.44h1.12q.48,0,.48.56v19.44c0,.48,0,.56-.56.56h-1.12c-.88,0-1.52.8-1.52,1.6,0,.88.72,1.52,1.52,1.52h1.12c.48,0,.56,0,.56.56v5.28c0,.16,0,.4-.16.48h-9.04v-1.92c0-.32-.16-.48-.48-.48h-20.16c-.4,0-.48.16-.48.48v1.92h-8.88c-.24,0-.32,0-.32-.32v-6.08h1.6c.88,0,1.52-.72,1.52-1.52,0-.88-.64-1.6-1.52-1.6h-1.12c-.16,0-.4,0-.48-.16v-20.24c.16-.08.32-.16.48-.16h1.12c.88,0,1.52-.8,1.52-1.68,0-.8-.64-1.44-1.44-1.52h-1.12c-.16,0-.4,0-.48-.16l-.08.16Zm32.48,15.44h1.44c.48,0,.64-.24.64-.56s-.24-.56-.64-.56h-1.44v-1.36h1.44c.48,0,.72-.24.72-.56s-.24-.56-.72-.56h-1.44v-1.36h1.44c.4,0,.64-.24.64-.56s-.24-.56-.64-.56h-1.44v-1.36h1.44c.48,0,.64-.24.64-.56s-.24-.56-.64-.56h-1.44v-1.36h1.44c.48,0,.64-.24.64-.56s-.24-.56-.64-.56h-1.44v-1.36h1.44c.48,0,.72-.24.72-.56s-.24-.56-.72-.56h-1.44c0-1.04,0-.96-.96-.96v-1.44c0-.48-.24-.64-.56-.64s-.56.24-.56.64v1.44h-1.36v-1.44c0-.48-.24-.72-.56-.72s-.56.24-.56.72v1.44h-1.36v-1.44c0-.48-.24-.72-.56-.72s-.56.24-.56.72v1.44h-1.36v-1.44c0-.48-.24-.72-.56-.72s-.56.24-.56.72v1.44h-1.36v-1.44c0-.48-.24-.72-.56-.72s-.56.24-.56.64v1.44h-1.36v-1.44c0-.48-.24-.72-.56-.72s-.56.24-.56.72v1.44h-1.36v-1.44c0-.48-.24-.72-.56-.72s-.56.24-.56.72v1.44h-1.36v-1.44c0-.48-.24-.72-.56-.72s-.56.24-.56.72v1.44h-1.36v-1.44c0-.48-.24-.72-.56-.72s-.56.24-.56.72v1.44h-1.36v-1.44c0-.48-.24-.72-.56-.72s-.56.24-.56.72v1.44c-.96,0-.88,0-.88.96h-1.44c-.48,0-.72.24-.64.56s.24.56.64.56h1.44v1.36h-1.44c-.48,0-.72.24-.72.56s.24.56.72.56h1.44v1.36h-1.44c-.48,0-.72.24-.72.56s.24.56.72.56h1.44v1.36h-1.52c-.4,0-.72.24-.72.56s.24.56.72.56h1.52v1.36h-1.44c-.48,0-.64.24-.64.56s.24.56.64.56h1.44v1.36h-1.44c-.48,0-.72.24-.72.56s.24.56.72.56h1.44v1.36h-1.44c-.48,0-.72.24-.72.56s.24.56.72.56h1.44v1.36h-1.44c-.48,0-.64.24-.64.56s.24.56.64.56h1.44v1.36h-1.44c-.48,0-.64.24-.64.56s.24.56.64.56h1.44v1.36h-1.44c-.48,0-.72.24-.72.56s.24.56.72.56h1.44c0,.96,0,.88.96.96v1.44c0,.48.24.64.56.64s.56-.24.56-.64v-1.44h1.36v1.44c0,.48.24.72.56.72s.56-.24.56-.72v-1.44h1.36v1.44c0,.48.24.72.56.72s.56-.24.56-.72v-1.44h1.36v1.44c0,.48.24.64.56.64s.56-.24.56-.64v-1.44h1.36v1.44c0,.48.24.64.56.64s.56-.24.56-.64v-1.44h1.36v1.44c0,.48.24.72.56.72s.56-.24.56-.72v-1.44h1.36v1.44c0,.48.24.64.56.64s.56-.24.56-.64v-1.44h1.36v1.44c0,.48.24.64.56.64s.56-.24.56-.64v-1.44h1.36v1.44c0,.48.24.64.56.64s.56-.24.56-.64v-1.44h1.36v1.44c0,.48.24.72.56.72s.56-.24.56-.72v-1.44c1.04,0,.88,0,.96-.96h1.44c.48,0,.64-.24.64-.56s-.24-.56-.64-.56h-1.44v-1.36h1.44c.48,0,.72-.24.72-.56s-.24-.56-.72-.56h-1.44v-1.36h1.44c.48,0,.72-.24.72-.56s-.24-.56-.72-.56h-1.44v-1.36h1.44c.48,0,.64-.24.64-.56s-.24-.56-.64-.56h-1.44v-1.36l-.08.08Zm-29.28-17.36c.64,0,1.2-.56,1.2-1.2h0c0-.64-.56-1.2-1.2-1.2s-1.12.64-1.12,1.28c0,.56.48,1.04,1.12,1.12h0Zm34.16-1.2c0-.64-.56-1.2-1.2-1.2s-1.2.56-1.2,1.2.56,1.2,1.2,1.2,1.2-.48,1.2-1.12h0v-.08Zm-35.28,33.52c0,.64.56,1.2,1.2,1.2s1.2-.56,1.2-1.2h0c0-.64-.56-1.2-1.2-1.2h0c-.64,0-1.2.56-1.2,1.2h0Zm35.28,0c0-.64-.56-1.2-1.2-1.2h0c-.64,0-1.2.56-1.2,1.2s.56,1.2,1.2,1.2,1.2-.56,1.2-1.2Z"/><path class="cls-22" d="m362.48,181.73h-18q-.64,0-.64-.64v-1.76h18.72v2.4h-.08Z"/><path class="cls-22" d="m343.76,218.93v-1.92c0-.32.16-.48.48-.48h18.16v2.4h-18.72.08Z"/><path class="cls-32" d="m362.48,181.73v-2.4h2.4v1.92c0,.32-.16.48-.48.48h-1.92Z"/><path class="cls-32" d="m362.56,218.93v-2.4h1.92c.32,0,.48.16.48.48v1.92h-2.4Z"/><path class="cls-19" d="m345.04,211.89h-2.48c-.96,0-.88,0-.96-.96v-23.6c0-.96,0-.88.96-.96h22.08v2.56c-.08-.08-.24-.16-.4-.16h-19.6q-.64,0-.64.64v19.36q0,.64.64.64h19.6c.16,0,.32,0,.4-.16v2.56h-19.6v.08Z"/><path class="cls-34" d="m364.64,188.93v-2.56h1.52c1.04,0,.88,0,.96.96v23.6c0,1.04,0,.88-.96.96h-1.44v-22.96h-.08Z"/><path class="cls-30" d="m337.84,183.65c-.64,0-1.12-.64-1.12-1.28,0-.56.48-1.04,1.12-1.12.64,0,1.2.56,1.2,1.2s-.56,1.2-1.2,1.2h0Z"/><path class="cls-30" d="m372,182.45c0,.64-.48,1.2-1.2,1.2h0c-.64,0-1.2-.56-1.2-1.2s.56-1.2,1.2-1.2,1.2.56,1.2,1.2Z"/><path class="cls-42" d="m336.72,215.97c0-.64.48-1.2,1.12-1.2h0c.64,0,1.2.56,1.2,1.2h0c0,.64-.56,1.2-1.2,1.2s-1.2-.56-1.2-1.2h.08Z"/><path class="cls-42" d="m372,215.89c0,.64-.48,1.2-1.2,1.2h0c-.64,0-1.2-.56-1.2-1.2s.56-1.2,1.2-1.2,1.2.48,1.2,1.2h0Z"/><path class="cls-45" d="m346.24,186.37h-1.12v-1.44c0-.48.24-.72.56-.72s.56.24.56.72v1.44Z"/><path class="cls-54" d="m367.12,198.45v-1.2h1.44c.48,0,.72.24.72.56s-.24.56-.72.56h-1.44v.08Z"/><path class="cls-54" d="m353.68,186.37h-1.12v-1.44c0-.48.24-.72.56-.72s.56.24.56.72v1.44Z"/><path class="cls-54" d="m356.16,186.37h-1.12v-1.44c0-.48.24-.72.56-.72s.56.24.56.72v1.44Z"/><path class="cls-54" d="m341.68,197.33v1.2h-1.44c-.48,0-.72-.24-.64-.56s.24-.56.64-.56h1.44v-.08Z"/><path class="cls-45" d="m367.12,208.45v-1.2h1.44c.48,0,.72.24.72.56s-.24.56-.72.56h-1.44v.08Z"/><path class="cls-54" d="m367.12,200.93v-1.2h1.44c.48,0,.64.24.64.56s-.24.56-.64.56h-1.44v.08Z"/><path class="cls-45" d="m341.68,207.25v1.2h-1.44c-.48,0-.64-.24-.64-.56s.24-.56.64-.56h1.44v-.08Z"/><path class="cls-45" d="m341.68,189.81v1.2h-1.44c-.48,0-.72-.24-.72-.56s.24-.56.72-.56h1.44v-.08Z"/><path class="cls-45" d="m367.12,191.01v-1.2h1.44c.48,0,.64.24.64.56s-.24.56-.64.56h-1.44v.08Z"/><path class="cls-54" d="m341.68,199.81v1.12h-1.44c-.48,0-.72-.24-.72-.56s.24-.56.72-.56h1.44Z"/><path class="cls-45" d="m345.04,211.89h1.12v1.44c0,.48-.24.72-.56.72s-.56-.24-.56-.72v-1.44Z"/><path class="cls-54" d="m352.56,211.89h1.12v1.44c0,.48-.24.64-.56.64s-.56-.24-.56-.64v-1.44Z"/><path class="cls-54" d="m355.04,211.89h1.12v1.44c0,.48-.24.72-.56.72s-.56-.24-.56-.72v-1.44Z"/><path class="cls-45" d="m362.48,211.89h1.12v1.44c0,.48-.24.64-.56.64s-.56-.24-.56-.64v-1.44Z"/><path class="cls-45" d="m363.6,186.37h-1.12v-1.44c0-.48.24-.72.56-.72s.56.24.56.72v1.44Z"/><path class="cls-53" d="m341.68,194.85v1.12h-1.52c-.4,0-.72-.24-.72-.56s.24-.56.72-.56h1.52Z"/><path class="cls-53" d="m367.12,195.97v-1.12h1.44c.48,0,.64.24.64.56s-.24.56-.64.56h-1.44Z"/><path class="cls-53" d="m357.52,211.89h1.12v1.44c0,.48-.24.64-.56.64s-.56-.24-.56-.64v-1.44Z"/><path class="cls-53" d="m341.68,202.29v1.2h-1.44c-.48,0-.72-.24-.72-.56s.24-.56.72-.56h1.44v-.08Z"/><path class="cls-53" d="m367.12,203.49v-1.2h1.44c.48,0,.64.24.64.56s-.24.56-.64.56h-1.44v.08Z"/><path class="cls-53" d="m351.2,186.37h-1.12v-1.44c0-.48.24-.72.56-.72s.56.24.56.72v1.44Z"/><path class="cls-53" d="m358.64,186.37h-1.12v-1.44c0-.48.24-.72.56-.72s.56.24.56.72v1.44Z"/><path class="cls-53" d="m350,211.89h1.12v1.44c0,.48-.24.64-.56.64s-.56-.24-.56-.64v-1.44Z"/><path class="cls-44" d="m341.68,209.81v1.12h-1.44c-.48,0-.72-.24-.72-.56s.24-.56.72-.56.96,0,1.44,0Z"/><path class="cls-44" d="m367.12,210.93v-1.2h1.44c.48,0,.64.24.64.56s-.24.56-.64.56h-1.44v.08Z"/><path class="cls-44" d="m367.12,188.53v-1.2h1.44c.48,0,.72.24.72.56s-.24.56-.72.56h-1.44v.08Z"/><path class="cls-53" d="m347.6,211.89h1.12v1.44c0,.48-.24.72-.56.72s-.56-.24-.56-.72v-1.44Z"/><path class="cls-53" d="m367.12,193.49v-1.12h1.44c.4,0,.64.24.64.56s-.24.56-.64.56h-1.44Z"/><path class="cls-53" d="m341.68,192.29v1.12h-1.44c-.48,0-.72-.24-.72-.56s.24-.56.72-.56h1.44Z"/><path class="cls-53" d="m341.68,204.77v1.2h-1.44c-.48,0-.64-.24-.64-.56s.24-.56.64-.56h1.44v-.08Z"/><path class="cls-53" d="m367.12,205.97v-1.2h1.44c.48,0,.72.24.72.56s-.24.56-.72.56h-1.44v.08Z"/><path class="cls-44" d="m342.56,211.89h1.12v1.44c0,.48-.24.64-.56.64s-.56-.24-.56-.64v-1.44Z"/><path class="cls-44" d="m341.68,187.33v1.2h-1.52c-.4,0-.64-.24-.64-.56s.24-.56.64-.56h1.52v-.08Z"/><path class="cls-44" d="m366.16,186.37h-1.2v-1.44c0-.48.24-.64.56-.64s.56.24.56.64v1.44h.08Z"/><path class="cls-44" d="m364.96,211.89h1.2v1.44c0,.48-.24.72-.56.72s-.56-.24-.56-.72v-1.44h-.08Z"/><path class="cls-53" d="m361.12,186.37h-1.12v-1.44c0-.48.24-.72.56-.72s.56.24.56.72v1.44Z"/><path class="cls-53" d="m348.72,186.37h-1.12v-1.44c0-.48.24-.72.56-.72s.56.24.56.72v1.44Z"/><path class="cls-44" d="m343.68,186.37h-1.12v-1.44c0-.48.24-.72.56-.72s.56.24.56.72v1.44Z"/><path class="cls-53" d="m360,211.89h1.12v1.44c0,.48-.24.64-.56.64s-.56-.24-.56-.64v-1.44Z"/><path class="cls-51" d="m362.32,209.49h-17.6q-.64,0-.64-.64v-19.36q0-.64.64-.64h17.6v20.72-.08Zm-.8-16.56h0v-1.84c0-.32-.24-.56-.56-.56h0c-.32,0-.56.24-.64.56h0v2.48c0,.64.08.48-.56.56-.32,0-.4,0-.4-.4v-2.64c0-.4-.24-.64-.56-.64s-.56.24-.64.56v3.52c0,.48.24.64.72.64h1.84c.48,0,.72-.24.72-.72v-1.68l.08.16Zm-6.8,0v1.76c0,.4.24.64.56.72s.56-.24.56-.64v-.88q0-.24.24-.24h1.12c.32,0,.64-.16.72-.56v-1.76c0-.56-.24-.72-.72-.72h-1.68c-.56,0-.8.16-.8.8v1.6h0v-.08Zm-3.52,0v1.76c0,.32.16.64.48.64h2c.4,0,.72-.24.72-.56s-.24-.64-.72-.64h-1.12c-.16,0-.24,0-.24-.24v-2c0-.16,0-.24.24-.24h1.12c.4,0,.64-.24.64-.64s-.24-.56-.64-.56h-1.92c-.32,0-.64.16-.64.48v1.84h0l.08.16Zm-4.48,15.52h1.04c.16,0,.32,0,.4-.16,0-.16,0-.32-.16-.4l-2.16-2c-.08-.16-.24-.16-.4-.08-.16,0-.16.16-.16.32v2c0,.16.08.32.32.4h1.12v-.08Z"/><path class="cls-8" d="m362.32,209.49v-20.64h2c.16,0,.32,0,.4.16v20.32c-.08.08-.24.16-.4.16h-2Z"/><path class="cls-43" d="m361.52,192.85v1.68c0,.56-.24.72-.72.72h-1.84c-.48,0-.72-.24-.72-.64v-3.44c0-.32.16-.64.48-.64h.08c.32,0,.56.24.56.64v2.64c0,.32.08.4.4.4.64,0,.56,0,.56-.56v-2.48c0-.32.24-.56.56-.56h0c.32,0,.56.24.56.56h0v1.84h0l.08-.16Z"/><path class="cls-43" d="m354.72,192.85v-1.6c0-.56.24-.72.8-.8h1.76c.48,0,.72.24.72.72v1.6c0,.32-.16.64-.56.72h-1.28q-.24,0-.24.24v.88c0,.4-.24.64-.56.64s-.56-.24-.56-.72v-1.76l-.08.08Zm1.6-.48c.24,0,.48.08.48-.32s-.16-.4-.48-.32-.48-.08-.48.32.16.4.48.32h0Z"/><path class="cls-43" d="m351.2,192.85v-1.68c0-.32.16-.64.48-.64h2.08c.4,0,.64.24.64.56s-.24.56-.64.64-.8,0-1.12,0-.24,0-.24.24v2c0,.16,0,.24.24.24h1.12c.4,0,.72.24.72.64s-.24.56-.72.56h-1.84c-.32,0-.64-.16-.64-.48v-1.92l-.08-.16Z"/><path class="cls-56" d="m346.72,208.37h-1.12c-.16,0-.32-.08-.4-.32h0v-2c0-.16,0-.32.16-.32s.32,0,.4.08l2.16,2c.16.08.16.24.16.4s-.24.16-.4.16h-1.04.08Z"/><path class="cls-45" d="m356.32,192.29c-.24,0-.48,0-.48-.32s.24-.32.48-.32.48,0,.48.32-.24.32-.48.32Z"/><path d="m340.16,169.49c-.96-3.12.72-6.32,3.92-7.28,1.92-.56,3.92-.16,5.36,1.12l-1.76,1.84c-.72-.72-1.76-.88-2.88-.56-1.92.56-2.72,2.24-2.16,4.16s2.16,2.8,4.08,2.24c1.12-.32,1.84-1.12,2.08-2.08l2.48.56c-.48,1.76-1.92,3.28-3.84,3.84-3.2.96-6.32-.72-7.28-3.92v.08Z"/><path d="m361.04,165.57c-.16,2.08-2.08,3.68-4.24,3.44l-1.68-.16-.32,3.52-2.56-.24,1.04-11.12,4.24.4c2.16.24,3.76,2.08,3.52,4.16Zm-2.56-.24c0-.8-.4-1.52-1.2-1.6l-1.68-.16-.24,2.88,1.68.16c.8,0,1.44-.48,1.52-1.28h-.08Z"/><path d="m362.24,169.73l3.36-6.8,2.32,1.12-3.28,6.56c-.4.72-.32,1.6.88,2.16,1.2.64,1.92.16,2.24-.64l3.28-6.56,2.32,1.12-3.36,6.8c-1.04,2.16-3.36,2.64-5.6,1.52-2.24-1.12-3.2-3.2-2.16-5.36v.08Z"/><path class="cls-47" d="m68.18,304.63c.5,0,.99.02,1.49.02.84,0,1.54.69,1.55,1.54,0,.78,0,1.56,0,2.33,0,6.58,0,13.16,0,19.75,0,.43-.02.86-.15,1.28-.15.49-.75.93-1.27.93-5.57,0-11.15,0-16.72,0-.03,0-.05,0-.08,0,0-1.51,0-3.03,0-4.54,1.16,0,2.32,0,3.48-.01.15,0,.32.04.32-.21,0-.57.05-1.16-.08-1.71-.36-1.48-.79-2.95-1.17-4.43-.1-.4-.22-.79-.36-1.18-.22-.61.19-.92.56-1.25.6-.55.85-1.24.99-2.03.3-1.66-1.1-3.65-2.68-4.16-.05-.09-.12-.13-.22-.08-.08-.02-.16-.04-.24-.05-.04-.05-.08-.07-.14-.03-.15-.02-.31-.04-.46-.07,0-2.01,0-4.03,0-6.04,2.86,0,5.71,0,8.57-.02.18,0,.36-.01.53-.02,1.02.03,2.04.05,3.07,0,1,.06,2,.04,3.01,0Z"/><path class="cls-26" d="m53,325.92c0,1.51,0,3.03,0,4.54-.57,0-1.15.01-1.72.01-4.86,0-9.72-.02-14.58.02-1.28.01-1.94-.69-1.94-1.94.04-7.44.03-14.88,0-22.32,0-.89.72-1.6,1.57-1.59.5,0,.99-.01,1.49-.02,1,.03,2,.05,3-.01,1.02.06,2.04.03,3.06.01.17,0,.33.02.5.02,2.87,0,5.74,0,8.61.01,0,2.01,0,4.03,0,6.04-.32.15-.68.08-1.02.21-1.42.55-2.36,1.51-2.7,3.02-.06.03-.11.07-.03.14-.11,1.25.02,2.39,1.14,3.22.35.26.49.65.35,1.14-.09.3-.2.59-.27.9-.2.84-.42,1.66-.64,2.49-.16.61-.35,1.22-.5,1.83-.15.61-.11,1.23-.13,1.85-.01.31.07.42.4.41,1.14-.02,2.27,0,3.41,0Z"/><path class="cls-39" d="m40.83,304.62c-1,.06-2,.04-3,.01,0-2.7-.02-5.41.02-8.11.02-1.25.19-2.49.55-3.71.44-1.46,1.06-2.83,1.9-4.1,1.05-1.58,2.35-2.94,3.9-4.05,1.02-.73,2.09-1.38,3.27-1.78,1.17-.41,2.35-.81,3.61-.9.71-.05,1.41-.16,2.12-.14,1.77.03,3.47.38,5.13,1,1.65.62,3.14,1.52,4.5,2.65,1.17.97,2.13,2.12,2.94,3.4.58.9,1.03,1.86,1.42,2.87.21.55.36,1.12.55,1.68.17.51.21,1.06.27,1.6.35,3.19.08,6.39.17,9.58-1,.04-2,.05-3,0,0-2.28-.02-4.57.01-6.85.02-1.31-.15-2.6-.47-3.87-.45-1.78-1.28-3.39-2.48-4.76-1.47-1.68-3.26-2.95-5.42-3.64-1.53-.49-3.08-.64-4.69-.54-1.49.09-2.89.44-4.22,1.06-2.21,1.03-3.95,2.61-5.24,4.69-1.11,1.79-1.72,3.76-1.8,5.84-.1,2.69-.02,5.38-.02,8.08Z"/><path class="cls-14" d="m62.11,304.63c0-2.42.02-4.85,0-7.27-.01-1.29-.19-2.56-.71-3.76-.41-.95-.96-1.81-1.64-2.6-1.01-1.18-2.27-1.99-3.7-2.51-1.32-.48-2.7-.64-4.13-.46-.87.11-1.71.31-2.49.65-2.18.95-3.78,2.51-4.77,4.69-.46,1.02-.65,2.09-.7,3.2-.13,2.69-.02,5.38-.06,8.06-1.02.02-2.04.04-3.06-.01,0-2.69-.08-5.39.02-8.08.08-2.08.68-4.05,1.8-5.84,1.29-2.08,3.03-3.66,5.24-4.69,1.33-.62,2.73-.97,4.22-1.06,1.61-.09,3.16.06,4.69.54,2.16.69,3.94,1.95,5.42,3.64,1.2,1.38,2.03,2.98,2.48,4.76.32,1.27.49,2.55.47,3.87-.03,2.28-.01,4.57-.01,6.85-1.02.05-2.04.04-3.07,0Z"/><path class="cls-29" d="m53,325.92c-1.14,0-2.27-.02-3.41,0-.33,0-.41-.1-.4-.41.02-.62-.01-1.25.13-1.85.15-.62.34-1.22.5-1.83.22-.83.44-1.66.64-2.49.07-.31.18-.6.27-.9.14-.49,0-.88-.35-1.14-1.12-.83-1.25-1.97-1.14-3.22.06-.03.06-.08.03-.14.34-1.51,1.28-2.47,2.7-3.02.34-.13.7-.05,1.02-.21.15.02.31.04.46.07.03.08.07.12.14.03.08.02.16.04.24.05.04.11.14.08.22.08,1.58.51,2.98,2.5,2.68,4.16-.14.79-.4,1.48-.99,2.03-.36.33-.78.65-.56,1.25.14.39.25.78.36,1.18.38,1.48.81,2.94,1.17,4.43.13.55.09,1.14.08,1.71,0,.25-.17.21-.32.21-1.16,0-2.32,0-3.48.01Z"/><path class="cls-14" d="m54.07,310.94c-.09,0-.18.03-.22-.08.1-.05.17,0,.22.08Z"/><path class="cls-14" d="m53.6,310.81c-.07.09-.11.05-.14-.03.06-.03.1-.02.14.03Z"/><path class="cls-39" d="m49.28,313.93c.03.06.03.1-.03.14-.08-.07-.03-.1.03-.14Z"/><circle class="cls-3" cx="53.13" cy="308.47" r="39.02"/><path class="cls-47" d="m122.18,72.63c.5,0,.99.02,1.49.02.84,0,1.54.69,1.55,1.54,0,.78,0,1.56,0,2.33,0,6.58,0,13.16,0,19.75,0,.43-.02.86-.15,1.28-.15.49-.75.93-1.27.93-5.57,0-11.15,0-16.72,0-.03,0-.05,0-.08,0,0-1.51,0-3.03,0-4.54,1.16,0,2.32,0,3.48-.01.15,0,.32.04.32-.21,0-.57.05-1.16-.08-1.71-.36-1.48-.79-2.95-1.17-4.43-.1-.4-.22-.79-.36-1.18-.22-.61.19-.92.56-1.25.6-.55.85-1.24.99-2.03.3-1.66-1.1-3.65-2.68-4.16-.05-.09-.12-.13-.22-.08-.08-.02-.16-.04-.24-.05-.04-.05-.08-.07-.14-.03-.15-.02-.31-.04-.46-.07,0-2.01,0-4.03,0-6.04,2.86,0,5.71,0,8.57-.02.18,0,.36-.01.53-.02,1.02.03,2.04.05,3.07,0,1,.06,2,.04,3.01,0Z"/><path class="cls-26" d="m107,93.92c0,1.51,0,3.03,0,4.54-.57,0-1.15.01-1.72.01-4.86,0-9.72-.02-14.58.02-1.28.01-1.94-.69-1.94-1.94.04-7.44.03-14.88,0-22.32,0-.89.72-1.6,1.57-1.59.5,0,.99-.01,1.49-.02,1,.03,2,.05,3-.01,1.02.06,2.04.03,3.06.01.17,0,.33.02.5.02,2.87,0,5.74,0,8.61.01,0,2.01,0,4.03,0,6.04-.32.15-.68.08-1.02.21-1.42.55-2.36,1.51-2.7,3.02-.06.03-.11.07-.03.14-.11,1.25.02,2.39,1.14,3.22.35.26.49.65.35,1.14-.09.3-.2.59-.27.9-.2.84-.42,1.66-.64,2.49-.16.61-.35,1.22-.5,1.83-.15.61-.11,1.23-.13,1.85-.01.31.07.42.4.41,1.14-.02,2.27,0,3.41,0Z"/><path class="cls-39" d="m94.83,72.62c-1,.06-2,.04-3,.01,0-2.7-.02-5.41.02-8.11.02-1.25.19-2.49.55-3.71.44-1.46,1.06-2.83,1.9-4.1,1.05-1.58,2.35-2.94,3.9-4.05,1.02-.73,2.09-1.38,3.27-1.78,1.17-.41,2.35-.81,3.61-.9.71-.05,1.41-.16,2.12-.14,1.77.03,3.47.38,5.13,1,1.65.62,3.14,1.52,4.5,2.65,1.17.97,2.13,2.12,2.94,3.4.58.9,1.03,1.86,1.42,2.87.21.55.36,1.12.55,1.68.17.51.21,1.06.27,1.6.35,3.19.08,6.39.17,9.58-1,.04-2,.05-3,0,0-2.28-.02-4.57.01-6.85.02-1.31-.15-2.6-.47-3.87-.45-1.78-1.28-3.39-2.48-4.76-1.47-1.68-3.26-2.95-5.42-3.64-1.53-.49-3.08-.64-4.69-.54-1.49.09-2.89.44-4.22,1.06-2.21,1.03-3.95,2.61-5.24,4.69-1.11,1.79-1.72,3.76-1.8,5.84-.1,2.69-.02,5.38-.02,8.08Z"/><path class="cls-14" d="m116.11,72.63c0-2.42.02-4.85,0-7.27-.01-1.29-.19-2.56-.71-3.76-.41-.95-.96-1.81-1.64-2.6-1.01-1.18-2.27-1.99-3.7-2.51-1.32-.48-2.7-.64-4.13-.46-.87.11-1.71.31-2.49.65-2.18.95-3.78,2.51-4.77,4.69-.46,1.02-.65,2.09-.7,3.2-.13,2.69-.02,5.38-.06,8.06-1.02.02-2.04.04-3.06-.01,0-2.69-.08-5.39.02-8.08.08-2.08.68-4.05,1.8-5.84,1.29-2.08,3.03-3.66,5.24-4.69,1.33-.62,2.73-.97,4.22-1.06,1.61-.09,3.16.06,4.69.54,2.16.69,3.94,1.95,5.42,3.64,1.2,1.38,2.03,2.98,2.48,4.76.32,1.27.49,2.55.47,3.87-.03,2.28-.01,4.57-.01,6.85-1.02.05-2.04.04-3.07,0Z"/><path class="cls-29" d="m107,93.92c-1.14,0-2.27-.02-3.41,0-.33,0-.41-.1-.4-.41.02-.62-.01-1.25.13-1.85.15-.62.34-1.22.5-1.83.22-.83.44-1.66.64-2.49.07-.31.18-.6.27-.9.14-.49,0-.88-.35-1.14-1.12-.83-1.25-1.97-1.14-3.22.06-.03.06-.08.03-.14.34-1.51,1.28-2.47,2.7-3.02.34-.13.7-.05,1.02-.21.15.02.31.04.46.07.03.08.07.12.14.03.08.02.16.04.24.05.04.11.14.08.22.08,1.58.51,2.98,2.5,2.68,4.16-.14.79-.4,1.48-.99,2.03-.36.33-.78.65-.56,1.25.14.39.25.78.36,1.18.38,1.48.81,2.94,1.17,4.43.13.55.09,1.14.08,1.71,0,.25-.17.21-.32.21-1.16,0-2.32,0-3.48.01Z"/><path class="cls-14" d="m108.07,78.94c-.09,0-.18.03-.22-.08.1-.05.17,0,.22.08Z"/><path class="cls-14" d="m107.6,78.81c-.07.09-.11.05-.14-.03.06-.03.1-.02.14.03Z"/><path class="cls-39" d="m103.28,81.93c.03.06.03.1-.03.14-.08-.07-.03-.1.03-.14Z"/><circle class="cls-3" cx="107.13" cy="76.47" r="39.02"/><path class="cls-47" d="m71.35,141.84c.47,0,.94.02,1.41.02.8,0,1.45.65,1.46,1.45,0,.74,0,1.47,0,2.21,0,6.22,0,12.44,0,18.66,0,.4-.01.82-.14,1.21-.15.46-.71.88-1.2.88-5.27,0-10.53,0-15.8,0-.02,0-.05,0-.07,0,0-1.43,0-2.86,0-4.29,1.1,0,2.19,0,3.29-.01.14,0,.3.04.3-.2,0-.54.05-1.1-.08-1.62-.34-1.4-.74-2.79-1.1-4.18-.1-.38-.2-.75-.34-1.11-.21-.57.18-.87.53-1.19.57-.52.8-1.17.94-1.92.28-1.57-1.04-3.45-2.53-3.93-.05-.08-.11-.12-.21-.08-.08-.02-.15-.03-.23-.05-.03-.05-.08-.06-.13-.03-.15-.02-.29-.04-.44-.06,0-1.9,0-3.8,0-5.71,2.7,0,5.4,0,8.1-.02.17,0,.34-.01.5-.02.97.03,1.93.04,2.9,0,.95.05,1.89.04,2.84,0Z"/><path class="cls-26" d="m57.01,161.96c0,1.43,0,2.86,0,4.29-.54,0-1.08.01-1.63.01-4.59,0-9.19-.02-13.78.02-1.21.01-1.84-.65-1.83-1.83.04-7.03.03-14.06,0-21.09,0-.84.68-1.51,1.48-1.5.47,0,.94-.01,1.41-.02.95.02,1.89.05,2.84-.01.96.05,1.93.03,2.89.01.16,0,.31.02.47.02,2.71,0,5.42,0,8.14.01,0,1.9,0,3.8,0,5.71-.3.15-.65.07-.96.2-1.34.52-2.23,1.43-2.55,2.85-.06.03-.1.07-.03.13-.11,1.18.02,2.26,1.07,3.04.33.25.46.62.33,1.08-.08.28-.19.56-.26.85-.19.79-.4,1.57-.6,2.36-.15.58-.33,1.15-.47,1.73-.14.57-.1,1.17-.12,1.75-.01.3.07.39.38.39,1.07-.02,2.15,0,3.22,0Z"/><path class="cls-39" d="m45.51,141.83c-.95.06-1.89.04-2.84.01,0-2.56-.02-5.11.02-7.67.02-1.18.18-2.35.52-3.5.41-1.38,1-2.68,1.79-3.87.99-1.5,2.22-2.78,3.69-3.82.96-.69,1.98-1.3,3.09-1.69,1.1-.38,2.22-.76,3.41-.85.67-.05,1.33-.15,2-.14,1.67.03,3.28.36,4.84.95,1.56.59,2.97,1.44,4.25,2.51,1.1.92,2.01,2.01,2.78,3.21.55.85.98,1.76,1.34,2.71.2.52.34,1.06.52,1.59.16.48.2,1,.25,1.51.33,3.01.08,6.04.16,9.05-.95.03-1.89.05-2.84,0,0-2.16-.02-4.32.01-6.47.02-1.24-.14-2.46-.45-3.65-.43-1.68-1.21-3.2-2.35-4.5-1.39-1.59-3.08-2.79-5.12-3.44-1.45-.46-2.91-.6-4.43-.51-1.41.08-2.73.42-3.99,1-2.09.97-3.74,2.47-4.96,4.43-1.05,1.69-1.63,3.55-1.7,5.52-.09,2.54-.02,5.09-.02,7.63Z"/><path class="cls-14" d="m65.61,141.84c0-2.29.02-4.58,0-6.87-.01-1.22-.18-2.42-.67-3.55-.39-.9-.9-1.71-1.55-2.46-.96-1.11-2.15-1.88-3.5-2.37-1.25-.45-2.55-.6-3.9-.43-.82.1-1.61.29-2.36.61-2.06.9-3.57,2.37-4.51,4.43-.44.97-.61,1.97-.67,3.02-.12,2.54-.02,5.08-.06,7.62-.96.02-1.93.04-2.89-.01,0-2.54-.07-5.09.02-7.63.07-1.96.65-3.83,1.7-5.52,1.22-1.96,2.87-3.45,4.96-4.43,1.26-.59,2.58-.92,3.99-1,1.52-.09,2.99.05,4.43.51,2.04.65,3.73,1.84,5.12,3.44,1.14,1.3,1.92,2.82,2.35,4.5.3,1.2.46,2.41.45,3.65-.03,2.16,0,4.32-.01,6.47-.97.05-1.93.04-2.9,0Z"/><path class="cls-29" d="m57.01,161.96c-1.07,0-2.15-.02-3.22,0-.31,0-.39-.09-.38-.39.02-.59-.01-1.18.12-1.75.14-.58.32-1.15.47-1.73.21-.78.42-1.57.6-2.36.07-.29.17-.57.26-.85.14-.46,0-.83-.33-1.08-1.06-.78-1.18-1.87-1.07-3.04.06-.03.06-.08.03-.13.32-1.42,1.21-2.33,2.55-2.85.32-.12.66-.05.96-.2.15.02.29.04.44.06.03.08.06.12.13.03.08.02.15.03.23.05.04.1.13.08.21.08,1.49.48,2.81,2.36,2.53,3.93-.14.75-.37,1.4-.94,1.92-.34.32-.74.61-.53,1.19.13.36.24.74.34,1.11.36,1.4.76,2.78,1.1,4.18.13.52.09,1.08.08,1.62,0,.23-.16.2-.3.2-1.1,0-2.19,0-3.29.01Z"/><path class="cls-14" d="m58.02,147.81c-.08,0-.17.02-.21-.08.1-.04.16,0,.21.08Z"/><path class="cls-14" d="m57.58,147.68c-.07.08-.1.04-.13-.03.05-.03.1-.02.13.03Z"/><path class="cls-39" d="m53.5,150.63c.03.05.03.1-.03.13-.07-.06-.03-.1.03-.13Z"/><circle class="cls-3" cx="57.13" cy="145.47" r="36.87"/><path class="cls-47" d="m62.73,222.74c.48,0,.96.02,1.45.02.82,0,1.49.67,1.5,1.49,0,.76,0,1.51,0,2.27,0,6.39,0,12.78,0,19.16,0,.42-.02.84-.14,1.24-.15.48-.73.9-1.23.9-5.41,0-10.82,0-16.23,0-.02,0-.05,0-.07,0,0-1.47,0-2.94,0-4.41,1.13,0,2.25,0,3.38-.01.14,0,.31.04.31-.2,0-.56.05-1.13-.08-1.66-.35-1.44-.76-2.86-1.13-4.3-.1-.39-.21-.77-.35-1.14-.22-.59.19-.89.54-1.22.58-.53.83-1.2.97-1.97.29-1.61-1.06-3.54-2.6-4.03-.05-.08-.12-.12-.22-.08-.08-.02-.16-.03-.24-.05-.04-.05-.08-.06-.14-.03-.15-.02-.3-.04-.45-.06,0-1.95,0-3.91,0-5.86,2.77,0,5.55,0,8.32-.02.17,0,.35-.01.52-.02.99.03,1.98.04,2.97,0,.97.06,1.94.04,2.92,0Z"/><path class="cls-26" d="m48,243.41c0,1.47,0,2.94,0,4.41-.56,0-1.11.01-1.67.01-4.72,0-9.44-.02-14.15.02-1.24.01-1.89-.67-1.88-1.88.04-7.22.03-14.44,0-21.66,0-.87.7-1.56,1.52-1.54.48,0,.96-.01,1.45-.02.97.02,1.94.05,2.92-.01.99.06,1.98.03,2.97.01.16,0,.32.02.48.02,2.79,0,5.57,0,8.36.01,0,1.95,0,3.91,0,5.86-.31.15-.66.08-.99.2-1.38.53-2.29,1.47-2.62,2.93-.06.03-.1.07-.03.13-.11,1.21.02,2.32,1.1,3.13.34.25.48.63.34,1.11-.09.29-.19.57-.26.87-.19.81-.41,1.62-.62,2.42-.16.59-.34,1.18-.48,1.78-.14.59-.11,1.2-.13,1.8-.01.3.07.4.39.4,1.1-.02,2.2,0,3.31,0Z"/><path class="cls-39" d="m36.19,222.73c-.97.06-1.94.04-2.92.01,0-2.62-.02-5.25.02-7.87.02-1.21.18-2.42.53-3.6.43-1.42,1.03-2.75,1.84-3.98,1.02-1.54,2.28-2.85,3.79-3.93.99-.7,2.03-1.34,3.17-1.73,1.13-.39,2.28-.78,3.5-.87.69-.05,1.37-.15,2.06-.14,1.72.03,3.37.37,4.98.97,1.61.6,3.05,1.48,4.37,2.57,1.13.95,2.06,2.06,2.86,3.3.56.88,1,1.81,1.38,2.78.21.54.35,1.09.53,1.63.17.49.2,1.03.26,1.55.34,3.09.08,6.2.16,9.3-.97.04-1.94.05-2.92,0,0-2.22-.02-4.43.01-6.65.02-1.28-.14-2.52-.46-3.75-.44-1.73-1.24-3.29-2.41-4.62-1.43-1.63-3.16-2.86-5.26-3.53-1.48-.47-2.99-.62-4.56-.53-1.45.08-2.81.43-4.1,1.03-2.15,1-3.84,2.53-5.09,4.55-1.08,1.74-1.67,3.65-1.74,5.67-.1,2.61-.02,5.23-.02,7.84Z"/><path class="cls-14" d="m56.84,222.74c0-2.35.02-4.7,0-7.06-.01-1.25-.19-2.49-.69-3.65-.4-.92-.93-1.76-1.59-2.53-.98-1.14-2.21-1.94-3.59-2.44-1.28-.46-2.62-.62-4-.44-.84.11-1.66.3-2.42.63-2.12.92-3.67,2.44-4.63,4.55-.45.99-.63,2.03-.68,3.11-.13,2.61-.02,5.22-.06,7.83-.99.02-1.98.04-2.97-.01,0-2.61-.08-5.23.02-7.84.07-2.02.66-3.93,1.74-5.67,1.25-2.02,2.94-3.55,5.09-4.55,1.29-.6,2.65-.94,4.1-1.03,1.56-.09,3.07.06,4.56.53,2.1.67,3.83,1.89,5.26,3.53,1.17,1.34,1.97,2.89,2.41,4.62.31,1.23.47,2.48.46,3.75-.03,2.22-.01,4.43-.01,6.65-.99.05-1.98.04-2.97,0Z"/><path class="cls-29" d="m48,243.41c-1.1,0-2.2-.02-3.31,0-.32,0-.4-.09-.39-.4.02-.6-.01-1.21.13-1.8.14-.6.33-1.19.48-1.78.21-.81.43-1.61.62-2.42.07-.3.18-.58.26-.87.14-.47,0-.85-.34-1.11-1.09-.8-1.21-1.92-1.1-3.13.06-.03.06-.08.03-.13.33-1.46,1.24-2.39,2.62-2.93.33-.13.68-.05.99-.2.15.02.3.04.45.06.03.08.07.12.14.03.08.02.16.03.24.05.04.1.13.08.22.08,1.53.49,2.89,2.42,2.6,4.03-.14.77-.38,1.44-.97,1.97-.35.32-.76.63-.54,1.22.14.37.25.76.35,1.14.37,1.43.78,2.86,1.13,4.3.13.54.09,1.1.08,1.66,0,.24-.17.2-.31.2-1.13,0-2.25,0-3.38.01Z"/><path class="cls-14" d="m49.04,228.87c-.08,0-.17.03-.22-.08.1-.05.16,0,.22.08Z"/><path class="cls-14" d="m48.59,228.74c-.07.09-.11.04-.14-.03.06-.03.1-.02.14.03Z"/><path class="cls-39" d="m44.4,231.77c.03.05.03.1-.03.13-.08-.06-.03-.1.03-.13Z"/><circle class="cls-3" cx="48.13" cy="226.47" r="37.87"/><line class="cls-6" x1="200" y1="282.5" x2="200" y2="324.5"/><line class="cls-5" x1="200" y1="282.5" x2="200" y2="313.74"/><polygon class="cls-52" points="192.52 311.55 200 324.5 207.48 311.55 192.52 311.55"/><line class="cls-6" x1="167.91" y1="274.17" x2="147.49" y2="310.88"/><line class="cls-5" x1="167.91" y1="274.17" x2="152.72" y2="301.47"/><polygon class="cls-52" points="147.25 295.92 147.49 310.88 160.32 303.19 147.25 295.92"/><line class="cls-6" x1="143.92" y1="251.3" x2="108.23" y2="273.44"/><line class="cls-5" x1="143.92" y1="251.3" x2="117.38" y2="267.76"/><polygon class="cls-52" points="115.29 260.26 108.23 273.44 123.18 272.97 115.29 260.26"/><line class="cls-6" x1="134.07" y1="219.64" x2="92.12" y2="221.64"/><line class="cls-5" x1="134.07" y1="219.64" x2="102.87" y2="221.13"/><polygon class="cls-52" points="104.7 213.55 92.12 221.64 105.42 228.49 104.7 213.55"/><line class="cls-6" x1="140.86" y1="187.19" x2="103.23" y2="168.54"/><line class="cls-5" x1="140.86" y1="187.19" x2="112.88" y2="173.32"/><polygon class="cls-52" points="118.16 167.59 103.23 168.54 111.52 180.99 118.16 167.59"/><line class="cls-6" x1="162.57" y1="162.14" x2="138.76" y2="127.54"/><line class="cls-5" x1="162.57" y1="162.14" x2="144.86" y2="136.41"/><polygon class="cls-52" points="152.26 133.97 138.76 127.54 139.94 142.45 152.26 133.97"/><line class="cls-6" x1="193.73" y1="150.8" x2="189.73" y2="108.99"/><line class="cls-5" x1="193.73" y1="150.8" x2="190.76" y2="119.7"/><polygon class="cls-52" points="198.41 121.17 189.73 108.99 183.52 122.59 198.41 121.17"/><line class="cls-6" x1="226.46" y1="156.04" x2="243.3" y2="117.56"/><line class="cls-5" x1="226.46" y1="156.04" x2="238.98" y2="127.42"/><polygon class="cls-52" points="244.96 132.42 243.3 117.56 231.26 126.43 244.96 132.42"/><line class="cls-6" x1="252.52" y1="176.53" x2="285.94" y2="151.09"/><line class="cls-5" x1="252.52" y1="176.53" x2="277.38" y2="157.61"/><polygon class="cls-52" points="280.17 164.89 285.94 151.09 271.11 152.99 280.17 164.89"/><line class="cls-6" x1="265.33" y1="207.11" x2="306.9" y2="201.13"/><line class="cls-5" x1="265.33" y1="207.11" x2="296.25" y2="202.66"/><polygon class="cls-52" points="295.14 210.38 306.9 201.13 293.02 195.57 295.14 210.38"/><line class="cls-6" x1="261.65" y1="240.05" x2="300.89" y2="255.04"/><line class="cls-5" x1="261.65" y1="240.05" x2="290.83" y2="251.2"/><polygon class="cls-52" points="286.12 257.41 300.89 255.04 291.46 243.43 286.12 257.41"/><line class="cls-6" x1="242.42" y1="267.06" x2="269.42" y2="299.23"/><line class="cls-5" x1="242.42" y1="267.06" x2="262.5" y2="290.99"/><polygon class="cls-52" points="255.37 294.12 269.42 299.23 266.83 284.5 255.37 294.12"/></svg>