<?xml version="1.0" encoding="UTF-8"?><svg id="Layer_1" xmlns="http://www.w3.org/2000/svg" viewBox="0 0 400 400"><defs><style>.cls-1{fill:#a7cefe;}.cls-2{stroke:#a5262d;}.cls-2,.cls-3,.cls-4{stroke-width:4px;}.cls-2,.cls-3,.cls-4,.cls-5{stroke-miterlimit:10;}.cls-2,.cls-3,.cls-4,.cls-5,.cls-6{fill:none;}.cls-3{stroke:#0018c6;}.cls-7{fill:#d1d1d1;}.cls-4{stroke:#c000e2;}.cls-8{fill:#bacce9;}.cls-9{fill:#c7c7c7;}.cls-10{fill:#717f8f;}.cls-11{fill:#bdbdbd;}.cls-12{fill:#333;}.cls-13{fill:#ecf5fe;}.cls-5{stroke:#231f20;stroke-width:2px;}.cls-14{fill:#199dbc;}.cls-15{fill:#b9cce9;}.cls-16{fill:#aaa;}.cls-17{fill:#728090;}.cls-18{fill:#484645;}.cls-19{fill:#b6d6fd;}.cls-20{fill:#b3b3b3;}.cls-21{fill:#3f4a5b;}.cls-22{fill:#d7e1f2;}.cls-23{fill:#231f20;}</style></defs><line class="cls-6" x1="154.68" y1="118.92" x2="188.32" y2="146.1"/><line class="cls-5" x1="154.68" y1="118.92" x2="179.96" y2="139.34"/><polygon class="cls-23" points="173.54 143.78 188.32 146.11 182.96 132.15 173.54 143.78"/><line class="cls-6" x1="245.32" y1="118.92" x2="211.68" y2="146.1"/><line class="cls-5" x1="245.32" y1="118.92" x2="220.05" y2="139.34"/><polygon class="cls-23" points="217.05 132.15 211.68 146.1 226.46 143.78 217.05 132.15"/><circle class="cls-2" cx="118.04" cy="64.18" r="45"/><rect class="cls-20" x="92.04" y="54.18" width="52" height="37" rx="2.9" ry="2.9"/><path class="cls-18" d="m118.84,84.49l-1.1-3.4h-8l-1,3.4h-6.5l7.5-23.6h7.6l7.8,23.6h-6.3Zm-7.6-8.6h4.76l-2.4-8-2.36,8Z"/><path class="cls-18" d="m126.54,84.49v-24.71h5.6v24.71h-5.6Z"/><path d="m94.14,42.88l-2.4,3.1,1,1.4-1.6,2.1-6.1-9.3,1.9-2.4,10.5,3.7-1.6,2.1-1.6-.6-.1-.1Zm-2.2-.8l-3.8-1.4,2.3,3.3,1.5-1.9Z"/><path d="m90.84,33.08l1.7-1.4,7,8.4-1.7,1.4-7-8.4Z"/><path d="m103,29.28l3.6,6.6-2,1.1-.3-.6c-.11.81-.64,1.49-1.4,1.8-1.33.74-3.01.25-3.75-1.08-.06-.1-.11-.21-.15-.32l-2.2-4,2-1.1,2,3.8c.29.65,1.06.94,1.71.65.03-.01.06-.03.09-.05.67-.32.95-1.12.63-1.79-.04-.07-.08-.15-.13-.21l-2-3.6,2-1.1-.1-.1Z"/><path d="m117.64,28.78l.8,4.5-2.2.4-.8-4.3c-.03-.6-.54-1.05-1.14-1.02-.06,0-.11.01-.16.02-.7.1-1.1.7-.9,1.6l.7,4.2-2.2.4-.8-4.3c-.03-.6-.54-1.05-1.14-1.02-.06,0-.11.01-.16.02-.7.1-1.1.7-.9,1.6l.7,4.2-2.2.4-1.3-7.4,2.2-.4v.7c.41-.67,1.12-1.11,1.9-1.2.76-.23,1.58,0,2.1.6.37-.79,1.13-1.33,2-1.4,1.7-.3,3,.7,3.3,2.6l.2-.2Z"/><path d="m119.94,26.38l2.2.2-.6,7.5-2.2-.2.6-7.5Zm0-2c.08-.75.75-1.29,1.5-1.2.75.08,1.29.75,1.2,1.5s-.75,1.29-1.5,1.2c0,0,0,0,0,0-.72-.05-1.26-.66-1.21-1.38,0-.04,0-.08.01-.12Z"/><path d="m130.94,31.49l-1.2,4.4-2.2-.6,1.1-4.1c.24-.68-.11-1.42-.78-1.66-.04-.01-.08-.03-.12-.04-.69-.26-1.46.08-1.72.76-.04.11-.07.22-.08.34l-1.1,3.9-2.2-.6,2-7.2,2.2.6-.2.7c.67-.47,1.53-.58,2.3-.3,1.49.39,2.38,1.91,2,3.4-.03.1-.06.2-.1.3l.1.1Z"/><path d="m140.54,33.49l-3.8,6.4-1.9-1.2.4-.6c-.77.29-1.63.18-2.3-.3-1.32-.77-1.78-2.46-1.01-3.78.06-.11.13-.22.21-.32l2.4-4,1.9,1.2-2.2,3.7c-.41.5-.34,1.24.16,1.65.07.06.15.11.24.15.63.41,1.48.23,1.89-.4.04-.06.08-.13.11-.2l2.1-3.5,1.9,1.2h-.1Z"/><path d="m148.34,45.78l-3.5,3-1.5-1.7,3.4-2.9c.6-.5.7-1.1.2-1.6-.43-.5-1.18-.55-1.68-.12-.04.04-.08.08-.12.12l-3.2,2.7-1.5-1.7,3.4-2.9c.6-.5.7-1.1.2-1.6-.43-.5-1.18-.55-1.68-.12-.04.04-.08.08-.12.12l-3.2,2.7-1.5-1.7,5.7-4.9,1.5,1.7-.5.4c.76,0,1.49.34,2,.9.54.56.73,1.36.5,2.1.85-.02,1.66.35,2.2,1,1.03,1.19.9,3-.29,4.03-.07.06-.14.11-.21.17l-.1.3Z"/><circle class="cls-2" cx="281.96" cy="64.18" r="45" transform="translate(173.45 332.22) rotate(-80.78)"/><path d="m262.37,34.98c1.57,2.02,1.21,4.92-.8,6.5l-1.6,1.2,2.6,3.3-2.4,1.9-8.3-10.39,3.9-3.1c1.97-1.6,4.87-1.31,6.47.66,0,.01.02.02.03.04l.1-.11Zm-2.4,1.9c-.47-.71-1.43-.9-2.14-.43-.06.04-.11.08-.16.13l-1.6,1.2,2.1,2.7,1.6-1.2c.69-.56.79-1.58.23-2.27,0-.01-.02-.02-.03-.03v-.1Z"/><path d="m262.77,29.28l2.6-1.2,5.8,12.6-2.6,1.2-5.8-12.6Z"/><path d="m280.17,28.78l1.7,9.4-2.8.5-.2-.9c-.58.9-1.53,1.49-2.6,1.6-2.61.37-5.03-1.46-5.4-4.07,0,0,0-.02,0-.03-.62-2.51.92-5.04,3.43-5.66.06-.01.11-.03.17-.04,1.04-.24,2.13-.03,3,.6l-.2-.9,2.8-.5h.1Zm-2,5.2c-.14-1.2-1.22-2.06-2.42-1.93-.06,0-.12.02-.18.03-1.17.14-2,1.2-1.87,2.36.01.11.04.23.07.34.14,1.2,1.22,2.06,2.42,1.93.06,0,.12-.02.18-.03,1.17-.14,2-1.2,1.87-2.36-.01-.11-.04-.23-.07-.34Z"/><path d="m290.67,36.49c-.3,2.2-2.3,2.9-4.3,2.6-1.73-.04-3.25-1.16-3.8-2.8l2.6-1.1c.14.73.76,1.26,1.5,1.3.7,0,1,0,1.1-.5.1-1-4.6-1.1-4.2-4.3.3-2.1,2.1-2.9,4.1-2.6,1.51.13,2.82,1.1,3.4,2.5l-2.6,1c-.16-.54-.64-.94-1.2-1-.5,0-.8,0-.9.4-.1,1.1,4.6,1,4.1,4.4l.2.1Z"/><path d="m296.37,34.49l-1.2,3.1c-.3.8.3,1.1,1.5,1.5l-.9,2.4c-3.6-1-4.2-2.4-3.3-4.9l1.2-3.2-1.4-.5,1-2.6,1.4.5.6-1.7,3,.2-.9,2.5,1.8.7-1,2.6-1.8-.7v.1Z"/><path d="m301.67,33.88l2.4,1.5-4.9,8.2-2.4-1.5,4.9-8.2Zm1.1-2.3c.47-.8,1.5-1.07,2.3-.6s1.07,1.5.6,2.3c-.47.8-1.5,1.07-2.3.6-.8-.45-1.07-1.47-.62-2.26,0-.01.01-.02.02-.04h0Z"/><path d="m303.37,40.38c1.78-2.01,4.86-2.2,6.87-.41.08.07.15.14.23.21,1.3,1.19,1.84,2.99,1.4,4.7l-2.8-.7c.21-.73-.02-1.51-.6-2-.92-.82-2.33-.73-3.15.19-.76.86-.74,2.17.05,3.01.53.59,1.36.79,2.1.5l.8,2.7c-1.7.51-3.54.05-4.8-1.2-2.02-1.89-2.12-5.05-.23-7.07.01-.01.02-.02.03-.03l.1.1Z"/><path class="cls-22" d="m305.34,60.41v.08h-1.6q-.68,0-.68.69v30.31c.02.44-.13.87-.42,1.21-.19.21-.49.24-.68.45h-10.68c0-.09,0-.18,0-.27l-1.28-5.32c-.72-3.12-1.43-6.24-2.15-9.35-1.05-4.55-2.11-9.09-3.16-13.64-.92-4-1.84-7.97-2.75-11.92h15c.23-.04.46.02.63.18v6.2c.02.73.59,1.32,1.32,1.38h3.78c.28,0,.38-.09.38-.37v-1.83c.12,0,.17.11.24.18l2.05,2.02Z"/><path class="cls-15" d="m305.34,92.1c-.39.8-1.26,1.25-2.14,1.1h-1.23c.19-.2.49-.23.68-.45.29-.34.43-.77.41-1.21v-30.35q0-.69.69-.69h1.59v31.6Z"/><path class="cls-11" d="m261.71,52.56v-.9c-.16-.88.29-1.75,1.1-2.12h2c0,.08.04.15.11.19.59.39.91,1.09.81,1.79-.02.37-.02.75,0,1.12h-3.93l-.09-.08Z"/><path class="cls-16" d="m265.71,52.64v-1.12c.11-.7-.21-1.41-.81-1.79-.06-.04-.1-.11-.1-.19h2c.9.4,1.4,1.38,1.2,2.34v.76h-2.29Z"/><path class="cls-13" d="m291.28,93.19h-6.21c0-.06,0-.12,0-.18l-1.83-8-3.17-13.69c-1.07-4.62-2.14-9.24-3.2-13.87-.36-1.61-.73-3.22-1.1-4.83h6.23c.91,4,1.82,7.97,2.74,11.92,1.06,4.55,2.12,9.1,3.17,13.64.72,3.11,1.43,6.22,2.14,9.35.41,1.79.83,3.58,1.24,5.36,0,.1,0,.2-.01.3Z"/><path class="cls-13" d="m297.58,52.83c.14.02.26.1.34.21l5,5,.14.18v1.83c0,.28-.1.37-.37.37h-3.79c-.73-.06-1.29-.65-1.32-1.38v-6.21Z"/><path class="cls-22" d="m275.75,52.65c.37,1.61.74,3.22,1.1,4.83,1.06,4.63,2.13,9.26,3.2,13.87,1.07,4.61,2.13,9.18,3.17,13.69l1.83,8c0,.06,0,.12,0,.18h-14.05v-3c0-.52-.26-.81-.71-.82s-.75.29-.75.82v3h-9.21c-.96.02-1.74-.74-1.76-1.7,0-.01,0-.03,0-.04v-37.1c0-.95.76-1.72,1.71-1.73.02,0,.03,0,.05,0,.45.03.91.03,1.36,0h7.89v3c0,.51.27.81.71.82s.75-.29.75-.82v-3h4.71Zm-4.75,20.32v-1.55c0-.4-.33-.73-.73-.73s-.73.33-.73.73v3c-.05.38.23.73.61.78.05,0,.09,0,.14,0,.39,0,.71-.31.71-.71,0-.02,0-.05,0-.07v-1.45Zm-1.47,6.14v1.55c0,.4.33.73.73.73s.73-.33.73-.73v-3.06c-.03-.41-.35-.73-.76-.75-.38,0-.7.3-.7.68,0,.02,0,.04,0,.06v1.51h0Zm0-12.42v1.51c-.02.41.3.76.71.79.42-.05.74-.4.75-.82v-2.92c0-.54-.26-.83-.74-.82s-.71.29-.72.81,0,1,0,1.46h0Zm0-6.26v1.5c-.04.38.23.72.6.77.04,0,.08,0,.12,0,.39.02.72-.27.74-.65,0-.04,0-.08,0-.13v-2.92c.05-.38-.21-.72-.59-.78-.05,0-.09,0-.14,0-.46,0-.72.28-.72.8v1.41h-.01Zm1.47,25v-1.48c0-.51-.27-.8-.72-.8-.39-.02-.72.27-.74.65,0,.04,0,.08,0,.13v2.91c-.05.38.22.73.6.78.04,0,.08,0,.13,0,.46,0,.71-.29.72-.81s.01-.94.01-1.41v.02Z"/><path class="cls-15" d="m271,52.66v3c0,.54-.29.84-.75.83s-.7-.31-.71-.83v-3h1.46Z"/><path class="cls-11" d="m261.79,93.2h3.92v1.18c.1.83-.39,1.63-1.18,1.91h-1.22c-.85.04-1.57-.62-1.61-1.47,0-.05,0-.1,0-.14v-1.41l.09-.07Z"/><path class="cls-16" d="m264.53,96.29c.79-.28,1.28-1.08,1.18-1.91v-1.18h2.29c.04.6.02,1.21-.06,1.81-.12.78-.82,1.34-1.61,1.29h-1.8Z"/><path class="cls-15" d="m269.55,93.19v-3c0-.53.29-.83.75-.82s.71.31.71.82v3h-1.46Z"/><path class="cls-9" d="m261.79,52.64h-.1s0-.06,0-.09l.1.09Z"/><path class="cls-9" d="m261.79,93.2l-.08.08s0-.05,0-.08h.08Z"/><path class="cls-8" d="m271,72.97v1.45c0,.4-.33.73-.73.73s-.73-.33-.73-.73v-3c-.04-.38.23-.73.62-.78.03,0,.06,0,.09,0,.39-.02.73.27.75.67,0,.04,0,.08,0,.11v1.55Z"/><path class="cls-15" d="m269.55,79.11v-1.51c-.03-.38.26-.71.64-.74.02,0,.04,0,.06,0,.41.02.73.34.75.75v3.06c.05.4-.24.76-.64.81-.4.05-.76-.24-.81-.64,0-.06,0-.11,0-.17-.01-.53,0-1.04,0-1.56Z"/><path class="cls-15" d="m269.55,66.7v-1.46c0-.52.26-.8.71-.81s.74.28.74.83v2.91c0,.42-.32.77-.74.82-.41-.02-.73-.36-.71-.77,0,0,0-.01,0-.02-.01-.5,0-1.01,0-1.5Z"/><path class="cls-15" d="m269.55,60.43v-1.41c0-.52.26-.8.72-.8.38-.03.71.26.73.64,0,.05,0,.09,0,.14v2.92c.04.38-.23.73-.61.78-.04,0-.08,0-.13,0-.44,0-.7-.28-.72-.77s.01-1,.01-1.5Z"/><path class="cls-15" d="m271,85.41v1.41c0,.52-.27.8-.72.81-.39.02-.72-.28-.74-.66,0-.04,0-.08,0-.13v-2.91c-.05-.38.21-.73.59-.78.05,0,.1,0,.15,0,.46,0,.71.29.71.8v1.46Z"/><circle class="cls-3" cx="200" cy="200.51" r="45"/><path class="cls-14" d="m190.2,237.91c-.2-.15-.45-.22-.7-.2-3.86-.91-6.54-4.43-6.4-8.4v-40.1c-.12-3.36,1.82-6.45,4.9-7.8,1.1-.51,2.29-.78,3.5-.8h17.2c4.59-.04,8.36,3.64,8.4,8.24,0,.05,0,.11,0,.16v40.4c.08,4.01-2.76,7.48-6.7,8.2-.25-.02-.5.05-.7.2h-19.5v.1Zm9.8-33.1h11.4c1.3,0,1.8-.6,1.8-1.8v-15.1c.15-.9-.46-1.75-1.35-1.9-.18-.03-.36-.03-.55,0h-22.6c-.9-.15-1.75.46-1.9,1.35-.03.18-.03.36,0,.55v15c0,1.3.5,1.9,1.9,1.9h11.3Zm3.5,7.4c.02-1.86-1.48-3.38-3.34-3.4-.02,0-.04,0-.06,0-1.92.02-3.48,1.58-3.5,3.5.03,1.9,1.6,3.42,3.5,3.4,1.92-.02,3.48-1.58,3.5-3.5h-.1Zm4.8-.2v1.9c-.06.44.25.84.69.9.07,0,.14,0,.21,0h2.9c.44.06.84-.25.9-.69,0-.07,0-.14,0-.21v-3.9c.06-.44-.25-.84-.69-.9-.07,0-.14,0-.21,0h-2.9c-.44-.06-.84.25-.9.69,0,.07,0,.14,0,.21v2Zm-21.2.3v2c-.06.44.25.84.69.9.07,0,.14,0,.21,0h2.9c.6,0,.9-.3.9-.8v-4c.01-.46-.34-.86-.8-.9h-3c-.6,0-.8.3-.9.9v1.9h0Zm23,14.6h1.9c.6,0,.9-.4.9-1,0-1.4-.1-1.9-.8-2h-3.9c-.46-.03-.87.31-.9.78,0,.04,0,.08,0,.12v1.2c0,.6.3.9,1,.9h1.8Zm-20.3,5.7h.9c1.9,0,1.9-.4,1.9-1.9,0-.8-.3-1.1-1.1-1.1h-2.5c-2.1,0-2,.3-1.9,2.1-.03.52.36.97.88,1,.04,0,.08,0,.12,0h1.8l-.1-.1Zm10.3-5.7h1.7c.8,0,1.1-.3,1.2-1.1v-.8c0-.8-.3-1.1-1.1-1.1h-2.5c-2.2,0-2,.4-2,2.1-.06.49.29.94.79,1,.07,0,.14,0,.21,0h1.8l-.1-.1Zm0,2.6h-1.9c-.44-.06-.84.25-.9.69,0,.07,0,.14,0,.21v1.08c-.06.55.34,1.04.89,1.1.07,0,.14,0,.21,0h2.6c2.1,0,2-.4,2-2.1.06-.49-.29-.94-.79-1-.07,0-.14,0-.21,0h-1.9v.02Zm9.9,3.1h.9c2,.1,1.9-.4,1.9-2v-.2c.03-.46-.31-.87-.78-.9-.04,0-.08,0-.12,0h-3.7c-.51-.04-.95.33-1,.84,0,.02,0,.04,0,.06v1.2c0,.6.4.9,1,.9h1.8v.1Zm-9.9-11.3h.8c2.1,0,2-.3,2-2.1h0c.03-.46-.31-.87-.78-.9-.04,0-.08,0-.12,0h-3.7c-.46-.03-.87.31-.9.78,0,.04,0,.08,0,.12v1.1c0,.7.3,1,1,1h1.7,0Zm9.9,0h1.9c.6,0,.9-.4.9-1,.1-1.3,0-1.9-.7-2.1h-4c-.46-.03-.87.31-.9.78,0,.04,0,.08,0,.12v1.1c-.06.49.29.94.79,1,.07,0,.14,0,.21,0h1.8v.1Zm-20.2,0h1.9c.7,0,.9-.4.9-1.7,0-.9-.3-1.3-.9-1.3h-3.7c-.46-.03-.87.31-.9.78,0,.04,0,.08,0,.12v1.1c0,.7.3,1,1,1h1.7Zm0,5.6h1.9c.6,0,.9-.4.9-1,.1-1.4,0-1.9-.7-2h-3.9c-.49-.06-.94.29-1,.79,0,.07,0,.14,0,.21v1.1c0,.6.3.9,1,1h1.8v-.1Z"/><path class="cls-7" d="m200,204.81h-11.2c-1.4,0-1.9-.5-1.9-1.9v-15c0-1.3.5-1.9,1.9-1.9h22.6c1.4,0,1.9.5,1.9,1.9v15.1c0,1.3-.6,1.8-1.8,1.8h-11.5Z"/><path class="cls-12" d="m203.5,212.21c-.02,1.92-1.58,3.48-3.5,3.5-1.87-.05-3.4-1.53-3.5-3.4.02-1.92,1.58-3.48,3.5-3.5,1.86-.02,3.38,1.48,3.4,3.34,0,.02,0,.04,0,.06h.1Z"/><path class="cls-12" d="m208.3,212.01v-2c-.06-.44.25-.84.69-.9.07,0,.14,0,.21,0h2.9c.44-.06.84.25.9.69,0,.07,0,.14,0,.21v3.9c.06.44-.25.84-.69.9-.07,0-.14,0-.21,0h-2.9c-.44.06-.84-.25-.9-.69,0-.07,0-.14,0-.21v-1.9Z"/><path class="cls-12" d="m187.1,212.31v-1.9c-.06-.44.25-.84.69-.9.07,0,.14,0,.21,0h3c.5,0,.8.3.8.9v4c0,.6-.3.8-.9.8h-2.9c-.6,0-.8-.3-.9-.9v-2Z"/><path class="cls-12" d="m210.2,226.91h-1.8c-.51.04-.95-.33-1-.84,0-.02,0-.04,0-.06v-1.2c-.03-.46.31-.87.78-.9.04,0,.08,0,.12,0h3.9c.7.1.9.6.8,2,0,.6-.3,1-.9,1h-1.9Z"/><path class="cls-12" d="m189.9,232.49h-1.8c-.49.06-.94-.29-1-.79,0-.07,0-.14,0-.21,0-1.8-.2-2.2,1.9-2.1h2.5c.8,0,1.1.3,1.1,1.1,0,1.6,0,2-1.9,1.9h-1l.2.1Z"/><path class="cls-12" d="m200.2,226.91h-1.8c-.52.03-.97-.36-1-.88,0-.04,0-.08,0-.12,0-1.7-.2-2.2,2-2.1h2.5c.8,0,1.1.3,1.1,1.1v.8c0,.8-.3,1.1-1.2,1.1h-1.7l.1.1Z"/><path class="cls-12" d="m200.3,229.49h1.8c.52-.03.97.36,1,.88,0,.04,0,.08,0,.12,0,1.7.2,2.2-2,2.1h-2.6c-.7,0-1-.3-1.1-1.1v-1.1c-.03-.46.31-.87.78-.9.04,0,.08,0,.12,0h2Z"/><path class="cls-12" d="m210.1,232.49h-1.8c-.51.04-.95-.33-1-.84,0-.02,0-.04,0-.06v-1.2c0-.6.3-.9,1-.9h3.7c.44-.06.84.25.9.69,0,.07,0,.14,0,.21v.2c0,1.6,0,2.1-1.9,2h-1l.1-.1Z"/><path class="cls-12" d="m200.2,221.31h-1.8c-.49.06-.94-.29-1-.79,0-.07,0-.14,0-.21v-1.1c-.03-.46.31-.87.78-.9.04,0,.08,0,.12,0h3.7c.46-.03.87.31.9.78,0,.04,0,.08,0,.12h0c0,1.8.1,2.2-2,2.1h-.7Z"/><path class="cls-12" d="m210.1,221.31h-1.8c-.6,0-.9-.4-1-1v-1.1c-.06-.44.25-.84.69-.9.07,0,.14,0,.21,0h4c.6.2.8.7.7,2.1.04.51-.33.95-.84,1-.02,0-.04,0-.06,0h-1.9v-.1Z"/><path class="cls-12" d="m189.9,221.31h-1.8c-.7,0-1-.3-1-1v-1.1c-.03-.46.31-.87.78-.9.04,0,.08,0,.12,0h3.7c.7,0,.9.4.9,1.3,0,1.3-.2,1.7-.9,1.7h-1.8,0Z"/><path class="cls-12" d="m189.9,226.91h-1.8c-.49.06-.94-.29-1-.79,0-.07,0-.14,0-.21v-1.1c-.03-.52.36-.97.88-1,.04,0,.08,0,.12,0h3.9c.6.1.8.7.7,2,0,.6-.3,1-.9,1h-1.9v.1Z"/><path d="m169.2,222.71c1.61-1.42,4.06-1.28,5.5.3l1.1,1.2,2.6-2.4,1.7,1.9-8.3,7.6-2.9-3.1c-1.47-1.53-1.41-3.96.12-5.43.03-.02.05-.05.08-.07h.1Zm1.7,1.9c-.58.46-.67,1.31-.21,1.88.03.04.07.08.11.12l1.1,1.2,2.1-1.9-1.1-1.2c-.49-.55-1.34-.6-1.89-.11-.04.03-.07.07-.11.11v-.1Z"/><path d="m166.6,212.61l4.4-2.2,1.1,2.2-4.1,2c-.69.26-1.04,1.03-.78,1.73.02.06.05.12.08.17.29.71,1.1,1.05,1.81.76.1-.04.2-.1.29-.16l3.9-1.9,1.1,2.2-10.1,4.9-1.1-2.2,3.5-1.7c-1.59-.46-2.51-2.12-2.05-3.71.27-.92.95-1.66,1.85-1.99l.1-.1Z"/><path d="m166.9,210.61c-2.32.45-4.56-1.07-5-3.38s1.07-4.56,3.38-5,4.56,1.07,5,3.38c0,.03.01.07.02.1.42,2.29-1.1,4.48-3.39,4.9,0,0,0,0-.01,0Zm-1-6c-.95.11-1.64.97-1.53,1.93,0,.06.02.11.03.17.18,1.01,1.14,1.69,2.15,1.51.02,0,.03,0,.05,0,.95-.11,1.64-.97,1.53-1.93,0-.06-.02-.11-.03-.17-.18-1.01-1.14-1.69-2.15-1.51-.02,0-.03,0-.05,0Z"/><path d="m165.4,192.81l4.9.5-.3,2.4-4.5-.5c-.73-.14-1.44.34-1.58,1.07,0,.04-.01.09-.02.13,0,.9.3,1.5,1.5,1.7l4.3.5-.3,2.4-8-.9.3-2.4h.7c-.6-.6-.86-1.46-.7-2.3.19-1.65,1.67-2.83,3.32-2.65.1.01.19.03.28.05h.1Z"/><path d="m170.3,188.01c.2-.55.2-1.15,0-1.7l1.8-1.4c.72,1.18.8,2.65.2,3.9-.72,2.22-3.11,3.43-5.33,2.71-2.22-.72-3.43-3.11-2.71-5.33.04-.13.09-.25.14-.38.97-2.15,3.5-3.11,5.65-2.14.26.12.52.27.75.44l-2.2,5.3c.82,0,1.54-.53,1.8-1.3l-.1-.1Zm-2.1-2.5c-.79-.13-1.56.34-1.8,1.1-.36.73-.15,1.61.5,2.1l1.3-3.2Z"/><path d="m172.2,174.11l1-1.1,1.7,1.5-1,1.1,4.2,3.8-1.6,1.8-4.2-3.8-.7.8-1.7-1.5.7-.8c-1.7-1.5-1.8-3.3,0-5.2l1.7,1.5c-.7.6-.9,1.2-.2,1.9h.1Z"/><path d="m178.2,168.71l1.7,2.1c-.94.39-1.39,1.48-.99,2.42.07.17.17.34.29.48l2.2,2.8-1.9,1.5-5-6.3,1.9-1.5.9,1.1c-.33-1,.03-2.1.9-2.7v.1Z"/><path d="m187.4,164.11l3.4,7.2-2.2,1-.3-.7c-.27.85-.89,1.54-1.7,1.9-2.03.87-4.38-.06-5.26-2.09-.02-.04-.03-.07-.04-.11-1.04-1.91-.33-4.3,1.59-5.34.04-.02.07-.04.11-.06.79-.48,1.77-.52,2.6-.1l-.3-.7,2.2-1h-.1Zm-.5,4.6c-.41-.98-1.54-1.45-2.53-1.03-.02.01-.05.02-.07.03-.95.41-1.38,1.51-.97,2.46.02.05.04.09.07.14.41.98,1.54,1.45,2.53,1.03.02-.01.05-.02.07-.03.94-.39,1.38-1.47.99-2.4-.03-.07-.06-.13-.1-.2Z"/><path d="m203.1,164.91l.4,4.9-2.4.2-.4-4.7c.07-.6-.35-1.14-.95-1.21-.12-.01-.23,0-.35.01-.8,0-1.2.7-1.1,1.6l.4,4.5-2.4.2-.4-4.7c.07-.6-.35-1.14-.95-1.21-.12-.01-.23,0-.35.01-.8,0-1.2.7-1.1,1.6l.4,4.5-2.4.2-.7-8,2.4-.2v.7c.48-.69,1.26-1.1,2.1-1.1.84-.09,1.67.25,2.2.9.48-.75,1.31-1.21,2.2-1.2,1.8-.2,3.1,1.1,3.3,3h.1Z"/><path d="m208.7,169.49c.54.15,1.11.07,1.6-.2l1.6,1.6c-1.81,1.57-4.56,1.36-6.12-.45-1.57-1.81-1.36-4.56.45-6.12,1.06-.92,2.51-1.26,3.87-.93,2.11.5,3.41,2.61,2.91,4.72-.03.13-.07.26-.11.38-.05.31-.16.62-.3.9l-5.5-1.5c0,.92.7,1.42,1.6,1.6Zm2.2-2.4c.04-.81-.51-1.53-1.3-1.7-.77-.29-1.64.06-2,.8l3.3.9Z"/><path d="m219.7,177.41v-4.4c.1,0-2,2.8-2,2.8l-1.9-1.5,6.8-8.9,1.9,1.5-4.1,5.3,4-1.3,2.2,1.7-4.7,1.4v5l-2.2-1.7v.1Z"/><path d="m225.6,180.91c.34.45.84.74,1.4.8l.3,2.2c-1.37,0-2.66-.62-3.5-1.7-1.54-1.67-1.43-4.27.24-5.81.11-.1.23-.2.36-.29,1.79-1.47,4.44-1.21,5.91.59.03.04.06.07.09.11,1.39,1.77,1.08,4.33-.69,5.71-.04.03-.07.06-.11.09-.24.2-.51.37-.8.5l-3.5-4.5c-.41.72-.29,1.62.3,2.2v.1Zm3.2-.6c.5-.61.5-1.49,0-2.1-.47-.67-1.35-.91-2.1-.6l2.1,2.7Z"/><path d="m236.9,189.41l-8.2.5c-2.7.2-4.2-.7-5-2.8l2.1-.9c.22.89,1.1,1.46,2,1.3l5.8-5.9,1,2.4-3.8,3.6,5.1-.5,1,2.4v-.1Z"/><path d="m234.6,200.71c-2.21.39-4.31-1.09-4.7-3.3h0c-.17-.9.09-1.82.7-2.5l-3.9.5-.3-2.4,11.1-1.4.3,2.4h-.7c.71.57,1.18,1.39,1.3,2.3.21,2.16-1.38,4.08-3.54,4.29-.05,0-.11,0-.16.01l-.1.1Zm-.3-2.4c1.01-.07,1.78-.94,1.72-1.96,0-.05,0-.1-.02-.14-.06-.98-.91-1.71-1.88-1.65-.11,0-.21.02-.32.05-1.01.07-1.78.94-1.72,1.96,0,.05,0,.1.02.14.06.98.91,1.71,1.88,1.65.11,0,.21-.02.32-.05Z"/><path d="m237.1,211.21l-7.9-1.4.4-2.4h.7c-.55-.67-.77-1.55-.6-2.4.45-2.12,2.53-3.48,4.66-3.03.05.01.1.02.14.03,2.19.26,3.76,2.25,3.5,4.44,0,.01,0,.03,0,.04-.11.91-.62,1.72-1.4,2.2h.7c0,.1-.4,2.5-.4,2.5l.2.02Zm-3.5-3.1c1.03.23,2.05-.41,2.29-1.44,0-.02,0-.04.01-.06.22-.97-.38-1.94-1.35-2.16-.08-.02-.17-.03-.25-.04-.94-.25-1.9.31-2.15,1.25-.02.08-.04.17-.05.25-.22.97.38,1.94,1.35,2.16.08.02.17.03.25.04h-.1Z"/><path d="m235.1,223.21l-10-5.1,1.1-2.1.7.3c-.33-.85-.26-1.81.2-2.6,1.23-1.98,3.83-2.59,5.81-1.35,1.74,1.08,2.45,3.25,1.69,5.15-.37.84-1.11,1.47-2,1.7l3.5,1.8-1.1,2.1.1.1Zm-5.3-5.4c.95.44,2.08.01,2.52-.94.44-.95.01-2.08-.94-2.52-.92-.42-2.01-.04-2.48.86-.5.88-.19,2,.69,2.5.07.04.14.07.21.1Z"/><line class="cls-6" x1="199.7" y1="251.87" x2="200.2" y2="284.65"/><line class="cls-5" x1="199.7" y1="251.87" x2="200.04" y2="273.89"/><polygon class="cls-23" points="192.52 271.81 200.2 284.65 207.48 271.59 192.52 271.81"/><circle class="cls-4" cx="200" cy="335.82" r="45"/><path d="m166.7,320.62c1.9.7,2.8,2.8,2,4.7l-.6,1.5,3.1,1.2-.9,2.2-9.8-3.8,1.4-3.7c.7-1.9,2.8-2.9,4.7-2.1h.1Zm-.9,2.2c-.7-.3-1.5,0-1.7.7l-.6,1.5,2.5,1,.6-1.5c.3-.7,0-1.4-.8-1.7Z"/><path d="m174,314.12l3.7,2.7-1.3,1.8-3.4-2.5c-.7-.6-1.4-.3-1.9.2-.5.7-.4,1.4.4,2l3.3,2.4-1.3,1.8-8.5-6.2,1.3-1.8,3,2.2c-.2-.7,0-1.5.5-2.3.9-1.2,2.5-1.6,4.2-.4v.1Z"/><path d="m175.7,313.52c-1.4-1.8-1.1-4.2.7-5.6,1.7-1.4,4.2-1.1,5.6.6,1.4,1.8,1.1,4.2-.7,5.6-1.7,1.4-4.2,1.1-5.6-.6Zm4.5-3.5c-.7-.8-1.7-.9-2.5-.3s-.9,1.6-.3,2.5c.7.8,1.7.9,2.5.3s.9-1.6.3-2.5Z"/><path d="m189.7,304.22l1.8,4.2-2.1.9-1.7-3.9c-.4-.9-1.1-1-1.7-.7-.8.3-1.1,1-.7,2l1.6,3.8-2.1.9-2.9-6.9,2.1-.9.3.6c.2-.7.7-1.3,1.6-1.7,1.4-.6,3-.1,3.8,1.8v-.1Z"/><path d="m195.9,305.92c.6,0,1.1-.4,1.3-.8l1.9.8c-.6,1.1-1.6,1.8-3,2-2.5.4-4.4-1.1-4.7-3.4-.3-2.2,1.1-4.1,3.4-4.5,2.2-.3,4,1.2,4.3,3.4v.9l-5.3.7c.4.7,1.1.9,1.9.8l.2.1Zm1-2.9c-.4-.8-1.1-1-1.7-1-.8.1-1.4.6-1.5,1.4l3.2-.4Z"/><path d="m201.1,301.82l5.7.6-.2,2.1-5.7-.6.2-2.1Z"/><path d="m216.1,307.42c-.8,2.1-2.9,3.1-4.8,2.4-.9-.4-1.5-.9-1.8-1.6l-.3.7-2.1-.8,3.7-9.8,2.1.8-1.3,3.5c.7-.4,1.5-.4,2.4,0,1.8.7,2.7,2.9,1.9,5l.2-.2Zm-2.1-.8c.4-1.1,0-2-1-2.3-1-.4-1.9,0-2.3,1.1-.4,1.1,0,2,1,2.3,1,.4,1.9,0,2.3-1.1Z"/><path d="m217.2,308.12c1.3-1.8,3.8-2.1,5.6-.8,1.8,1.3,2.2,3.8.8,5.5-1.3,1.8-3.8,2.1-5.6.8-1.8-1.3-2.2-3.8-.8-5.5Zm4.6,3.4c.6-.9.5-1.9-.3-2.5s-1.8-.5-2.4.4-.5,1.9.3,2.5,1.8.5,2.4-.4Z"/><path d="m234.7,316.02l-8.3,6.4-1.4-1.8.6-.4c-.8,0-1.5-.4-2.1-1.2-1.2-1.6-.8-3.9,1-5.3,1.8-1.4,4.1-1.1,5.3.4.6.8.8,1.6.6,2.3l2.9-2.3,1.4,1.8v.1Zm-6.7,2.3c.9-.7,1-1.7.4-2.5s-1.6-1-2.5-.3-1,1.7-.4,2.5,1.6,1,2.5.3Z"/><path d="m236.5,327.02l-7.7.4c-2.5.1-3.9-.7-4.6-2.7l1.9-.8c.4,1,.9,1.3,1.9,1.3l5.5-5.5.9,2.3-3.6,3.3,4.8-.5.9,2.2h0Z"/><path d="m240.5,332.42l-10.3,1.9-.4-2.4,7.8-1.4-.8-1.7,1.9-.9,1.5,2.5.4,2.1-.1-.1Z"/><path class="cls-21" d="m189.4,369.12c0-.2-.2-.1-.4-.2-2-.5-3.4-2.3-3.4-4.4v-38.8c0-2.7,1.1-4.2,3.6-5,0,0,.1,0,.1-.1h3.4v.1c.5,1.3,1.1,2.6,1.6,3.9.1.3.4.4.7.4h9.7c.4,0,.7-.2.8-.5.2-.5.4-1,.6-1.5.3-.8.7-1.5.9-2.4h3.3c.2.2.5.2.8.3,1.8.6,3,2.3,3.1,4.2v38.8c0,2.8-1.1,4.3-3.8,5.2h-21.1.1Zm23.7-7.3h0v-33.8c0-.4-.3-.2-.5-.2h-25.5c-.4,0-.5.1-.5.5v33.4h26.3l.2.1Zm-13.1,3.1h-4.4c-.5,0-.7.2-.6.7,0,.4.4.5.7.5h8.6c.5,0,.7-.2.7-.6,0-.5-.3-.5-.7-.5h-4.3v-.1Z"/><path class="cls-17" d="m207.2,320.62c-.2.8-.6,1.6-.9,2.4-.2.5-.4,1-.6,1.5-.1.3-.4.6-.8.5h-9.7c-.3,0-.6-.1-.7-.4-.5-1.3-1.1-2.6-1.6-3.9v-.1h14.4-.1Z"/><path class="cls-1" d="m186.9,361.82c-.2-.1,0-.3,0-.4v-33c0-.4,0-.5.5-.5h25.5c.2,0,.4-.2.5.2-.2,0-.3.2-.5.4-.4.5-.7,1-1.1,1.4-1.4,1.8-2.9,3.7-4.3,5.5-1.1,1.5-2.3,2.9-3.4,4.4-1.4,1.8-2.9,3.7-4.3,5.5-1.1,1.5-2.3,2.9-3.4,4.4-1.5,2-3.1,3.9-4.6,5.9-1.1,1.4-2.2,2.8-3.2,4.2-.5.7-1.1,1.3-1.5,2h-.2Z"/><path class="cls-19" d="m186.9,361.82c.4-.7,1-1.3,1.5-2,1.1-1.4,2.2-2.8,3.2-4.2,1.5-2,3.1-3.9,4.6-5.9,1.1-1.5,2.3-2.9,3.4-4.4,1.4-1.8,2.9-3.7,4.3-5.5,1.1-1.5,2.3-2.9,3.4-4.4,1.4-1.8,2.9-3.7,4.3-5.5.4-.5.7-.9,1.1-1.4.1-.2.2-.3.5-.4v33.7h-26.3Z"/><path class="cls-10" d="m200,364.92h4.3c.4,0,.7,0,.7.5,0,.4-.2.6-.7.6h-8.6c-.3,0-.6,0-.7-.5,0-.4.1-.7.6-.7h4.4v.1Z"/><path d="m198.3,331.52h5.7v25.9h-6.6v-18.9l-4.5,1.1-1.6-5.6s7-2.5,7-2.5Z"/></svg>