<?xml version="1.0" encoding="UTF-8"?><svg id="Layer_1" xmlns="http://www.w3.org/2000/svg" xmlns:xlink="http://www.w3.org/1999/xlink" viewBox="0 0 400 400"><defs><style>.cls-1{stroke:#a5262d;}.cls-1,.cls-2,.cls-3{stroke-width:4px;}.cls-1,.cls-2,.cls-3,.cls-4{stroke-miterlimit:10;}.cls-1,.cls-2,.cls-3,.cls-4,.cls-5{fill:none;}.cls-6{fill:url(#linear-gradient-2);}.cls-7{fill:#fff;}.cls-8{fill:#bd694f;}.cls-9{fill:#ede6e3;}.cls-10{fill:#eb917f;}.cls-11{fill:#b9a1d3;}.cls-12{fill:#fdc00f;}.cls-13{fill:#934d36;}.cls-14{fill:#f3bd99;}.cls-2{stroke:#c000e2;}.cls-15{fill:#4d5961;}.cls-16{fill:#f4bd99;}.cls-17{fill:#5e6b74;}.cls-3{stroke:#00b51e;}.cls-4{stroke:#231f20;stroke-width:2px;}.cls-18{fill:#baa1d3;}.cls-19{fill:#16c5d5;}.cls-20{fill:#97d6e5;}.cls-21{fill:#1b1464;}.cls-22{fill:#073856;}.cls-23{fill:#9dd8e6;}.cls-24{fill:#baa2d3;}.cls-25{fill:#d8ceca;}.cls-26{fill:#ede4e1;}.cls-27{fill:#525f67;}.cls-28{fill:url(#linear-gradient);}.cls-29{fill:#231f20;}.cls-30{fill:#924d36;}.cls-31{fill:#914d37;}</style><linearGradient id="linear-gradient" x1="-256.54" y1="-281.41" x2="-255.04" y2="-293.01" gradientTransform="translate(564.99 506.61) rotate(-27.33)" gradientUnits="userSpaceOnUse"><stop offset="0" stop-color="#d53f26"/><stop offset="1" stop-color="#a4252c"/></linearGradient><linearGradient id="linear-gradient-2" x1="1704.47" y1="739.16" x2="1705.97" y2="727.56" gradientTransform="translate(2043.28 508.53) rotate(-152.4) scale(1 -1)" xlink:href="#linear-gradient"/></defs><path d="m175.47,45.72l.7-2.6c.99.46,2.17.21,2.9-.6.9-.9.8-1.5.4-1.8-.5-.5-1.2-.2-2.8.7-1.6.9-3.4,1.6-5,0-1.44-1.54-1.35-3.95.18-5.39,0,0,.01-.01.02-.01,1.28-1.37,3.24-1.84,5-1.2l-.6,2.6c-.82-.4-1.81-.19-2.4.5-.6.6-.6,1.2-.2,1.5s.9.4,2.6-.5,3.5-1.9,5.3-.2c1.6,1.6,1.3,3.9-.5,5.7-1.3,1.59-3.49,2.16-5.4,1.4l-.2-.1Z"/><path d="m190.37,32.72c1.22,2.03.56,4.67-1.47,5.89,0,0-.02.01-.03.01-.82.48-1.8.59-2.7.3l2,3.7-2.3,1.2-5.6-10.5,2.3-1.2.4.7c.22-.95.89-1.73,1.8-2.1,2.14-1,4.68-.08,5.68,2.05,0,.02.01.03.02.05l-.1-.1Zm-2.3,1.2c-.46-1-1.65-1.44-2.66-.97-.05.02-.1.05-.14.07-.98.51-1.37,1.71-.86,2.7.02.04.04.07.06.1.46,1,1.65,1.44,2.66.97.05-.02.1-.05.14-.07.98-.51,1.37-1.71.86-2.7-.02-.04-.04-.07-.06-.1Z"/><path d="m196.87,33.62c.6-.09,1.14-.41,1.5-.9l2.2.8c-.62,1.31-1.86,2.22-3.3,2.4-2.9.5-5-1.1-5.4-3.6-.52-2.32.95-4.63,3.27-5.14.11-.02.22-.04.33-.06,2.31-.44,4.53,1.08,4.97,3.39.01.07.02.14.03.21v1l-5.9,1.1c.46.74,1.37,1.07,2.2.8h.1Zm1-3.3c-.48-.94-1.63-1.31-2.57-.82-.58.3-.97.87-1.03,1.52l3.6-.7Z"/><path d="m211.57,27.52l-1.1,8.4-2.5-.3v-.8c-.64.67-1.6.94-2.5.7-2.33-.44-3.88-2.66-3.5-5,.17-2.33,2.2-4.08,4.53-3.91.02,0,.05,0,.07,0,.95.05,1.84.53,2.4,1.3v-.84c.1,0,2.6.3,2.6.3v.14Zm-3.1,3.9c.23-1.01-.4-2.02-1.41-2.26-.1-.02-.19-.04-.29-.04-1.09-.17-2.11.58-2.28,1.67,0,.04-.01.09-.02.13-.23,1.01.4,2.02,1.41,2.26.1.02.19.04.29.04,1.09.17,2.11-.58,2.28-1.67,0-.04.01-.09.02-.13Z"/><path d="m216.27,38.52l-.9-4.5-1.5,3.4-2.3-1.1,4.9-10.8,2.3,1.1-2.9,6.5,3.9-2.3,2.7,1.2-4.6,2.6,1.1,5.2-2.6-1.2-.1-.1Z"/><path d="m223.27,40.82c.47.39,1.09.57,1.7.5l.8,2.2c-1.42.36-2.92-.02-4-1-2-1.46-2.44-4.26-.99-6.26.06-.08.12-.16.19-.24,1.45-1.95,4.22-2.36,6.17-.91,1.95,1.45,2.36,4.22.91,6.17-.09.12-.18.23-.28.34-.21.26-.44.49-.7.7l-4.6-3.9c-.3.83.03,1.76.8,2.2v.2Zm3.2-1.4c.32-.76.12-1.65-.5-2.2-.62-.61-1.58-.69-2.3-.2l2.8,2.3v.1Z"/><path d="m235.47,44.82l-2.3,1.7c-.38-1.04-1.53-1.57-2.56-1.2-.19.07-.37.17-.54.3l-3.1,2.3-1.5-2.1,6.9-5,1.5,2.1-1.2.9c1.1-.31,2.28.14,2.9,1.1l-.1-.1Z"/><circle class="cls-3" cx="198.73" cy="336.48" r="45"/><path d="m176.23,310.78c2.25,1.86,2.58,5.19.72,7.45-.1.12-.21.24-.32.35-2.13,2.48-5.86,2.77-8.35.65-.02-.02-.04-.03-.05-.05-2.4-2.17-2.59-5.87-.42-8.28,0,0,.01-.02.02-.02,1.29-1.49,3.25-2.21,5.2-1.9l-.5,2.5c-1.06-.16-2.13.26-2.8,1.1-1.22,1.24-1.21,3.25.04,4.47.08.08.17.16.26.23,1.4,1.3,3.3,1.2,4.8-.4.95-.83,1.19-2.19.6-3.3l-2,2.2-1.7-1.45,3.8-4.2.7.6v.05Z"/><path d="m186.43,306.68c1.13,1.9.52,4.35-1.38,5.49,0,0-.02,0-.02.01-.78.49-1.73.6-2.6.3l1.9,3.5-2.1,1.1-5.3-9.9,2.1-1.1.4.7c.22-.87.8-1.59,1.6-2,2.02-.95,4.42-.11,5.4,1.9Zm-2.1,1.1c-.41-.91-1.48-1.32-2.39-.91-.07.03-.14.07-.21.11-.92.45-1.31,1.56-.86,2.49.02.04.04.08.06.11.41.91,1.48,1.32,2.39.91.07-.03.14-.07.21-.11.92-.45,1.31-1.56.86-2.49-.02-.04-.04-.08-.06-.11h0Z"/><path d="m195.43,303.68l1,4.8-2.3.5-.9-4.5c-.05-.7-.66-1.22-1.36-1.17-.12,0-.23.03-.34.07-.75.08-1.29.75-1.21,1.5.01.14.05.27.11.4l.9,4.3-2.4.5-2.3-11,2.3-.5.8,3.9c.39-.77,1.14-1.3,2-1.4,1.62-.34,3.21.7,3.55,2.32.02.09.03.19.05.28h.1Z"/><path d="m197.23,304.48c.17-2.35,2.2-4.12,4.55-3.95s4.12,2.2,3.95,4.55-2.2,4.12-4.55,3.95-4.12-2.2-3.95-4.55Zm6.1.5c.1-1-.63-1.89-1.63-1.99-.02,0-.05,0-.07,0-1.02-.07-1.9.68-2,1.7-.1,1,.63,1.89,1.63,1.99.02,0,.05,0,.07,0,1.02.07,1.9-.68,2-1.7Z"/><path d="m214.93,307.48l-1.7,4.6-2.2-.9,1.6-4.3c.35-.63.12-1.43-.51-1.78-.09-.05-.19-.09-.29-.12-.76-.31-1.63.06-1.94.82-.02.06-.04.12-.06.18l-1.6,4.1-2.2-.9,2.8-7.5,2.2.9-.3.7c.77-.46,1.73-.46,2.5,0,1.5.6,2.4,2.1,1.6,4.2h.1Z"/><path d="m218.33,313.38c.45.36,1.03.5,1.6.4l.9,2c-2.4.59-4.82-.88-5.41-3.27-.3-1.21-.08-2.49.61-3.53,1.3-1.84,3.84-2.27,5.67-.97.08.05.15.11.23.17,1.78,1.31,2.17,3.81.86,5.59-.05.07-.11.14-.16.21-.18.28-.42.52-.7.7l-4.5-3.4c-.21.8.16,1.63.9,2v.1Zm2.9-1.5c.36-.72.1-1.6-.6-2-.63-.55-1.57-.55-2.2,0l2.8,2.1v-.1Z"/><path d="m234.83,318.38l-9.4,6-1.4-2.2,7.2-4.6-1.5-1.4,1.5-1.7,2.5,1.9,1.2,1.9-.1.1Z"/><path class="cls-19" d="m208.73,314.58c-6.59-1.4-13.41-1.4-20,0-2.25.41-3.99,2.23-4.3,4.5-2.5,19.9-1.6,30.9,1.8,51,.5,2.7,2.3,5.2,4,5.5,5.65,1.1,11.45,1.1,17.1,0,1.7-.3,3.5-2.9,4-5.5,3.4-20.1,4.3-31.1,1.8-51-.31-2.27-2.05-4.09-4.3-4.5h-.1Z"/><path class="cls-22" d="m191.33,342.48c4.82,1.47,9.98,1.47,14.8,0,1-.3,1-.7-.1-.7h-14.6c-1.1,0-1.2.4-.1.7Z"/><path class="cls-12" d="m206.53,322.08h-15.5c-1.68.14-2.94,1.62-2.8,3.3,0,0,0,0,0,0v10.6c-.1,1.67,1.13,3.13,2.8,3.3h15.5c1.68-.14,2.94-1.62,2.8-3.3,0,0,0,0,0,0v-10.6c.1-1.67-1.13-3.13-2.8-3.3Z"/><path class="cls-7" d="m193.93,349.88c0,.6-.4,1.1-1,1-1.3-.2-2.6-.5-3.8-.8-.61-.19-1.02-.76-1-1.4,0-1.2,0-2.5-.1-3.7-.05-.46.28-.86.74-.91.09,0,.18,0,.26.01,1.3.3,2.6.6,3.9.8.6,0,1,.7,1,1.3v3.7Z"/><path class="cls-7" d="m201.73,350.08c0,.59-.42,1.1-1,1.2h-3.9c-.6-.06-1.05-.6-1-1.2v-3.7c0-.57.43-1.05,1-1.1h3.9c.55,0,1,.44,1.01.99,0,.04,0,.07,0,.11v3.7Z"/><path class="cls-7" d="m209.43,348.68c-.02.63-.41,1.18-1,1.4-1.3.3-2.6.6-3.8.8-.52.03-.97-.36-1-.88,0-.04,0-.08,0-.12v-3.7c.02-.6.42-1.13,1-1.3,1.3-.2,2.6-.5,3.9-.8.6-.1,1,.2,1,.9,0,1.2,0,2.5-.1,3.7Z"/><path class="cls-7" d="m194.03,357.38c0,.6-.4,1.1-1,1-1.29-.17-2.56-.44-3.8-.8-.59-.22-.98-.77-1-1.4,0-1.2,0-2.5-.1-3.7-.05-.46.28-.86.74-.91.09,0,.18,0,.26.01,1.3.3,2.5.6,3.8.8.6,0,1,.7,1,1.3v3.7h.1Z"/><path class="cls-7" d="m201.63,357.58c0,.59-.42,1.1-1,1.2h-3.8c-.6-.06-1.05-.6-1-1.2v-3.7c-.06-.55.35-1.04.89-1.1.03,0,.07,0,.11,0h3.9c.55,0,1,.44,1.01.99,0,.04,0,.07,0,.11v3.7h-.1Z"/><path class="cls-7" d="m209.23,356.33c-.02.63-.41,1.18-1,1.4-1.2.3-2.5.6-3.8.8-.55,0-1-.45-1-1v-3.7c.02-.6.42-1.13,1-1.3,1.29-.16,2.56-.43,3.8-.8.45-.1.89.19.99.64.02.09.02.18.01.26,0,1.2,0,2.5-.1,3.7h.1Z"/><path class="cls-7" d="m194.13,364.98c0,.6-.4,1.1-1,1-1.2-.2-2.5-.4-3.7-.7-.59-.22-.98-.77-1-1.4,0-1.2,0-2.5-.1-3.7,0-.6.4-1,.9-.9,1.2.3,2.5.6,3.7.8.5,0,1,.7,1,1.3v3.7l.2-.1Z"/><path class="cls-7" d="m201.63,365.08c.05.6-.4,1.14-1,1.2h-3.7c-.58-.1-1.01-.61-1-1.2v-3.7c-.06-.55.35-1.04.89-1.1.03,0,.07,0,.11,0h3.8c.57.05,1,.53,1,1.1v3.7h-.1Z"/><path class="cls-7" d="m209.03,363.78c-.02.63-.41,1.18-1,1.4-1.21.34-2.45.57-3.7.7-.55,0-1-.45-1-1v-3.7c.02-.6.42-1.13,1-1.3,1.25-.16,2.49-.43,3.7-.8.41-.09.81.18.9.59.02.1.02.21,0,.31,0,1.2,0,2.5-.1,3.7l.2.1Z"/><path class="cls-7" d="m201.53,372.68c.05.6-.4,1.14-1,1.2h-3.6c-.58-.1-1.01-.61-1-1.2v-3.7c-.06-.55.35-1.04.89-1.1.03,0,.07,0,.11,0h3.7c.57.05,1,.53,1,1.1v3.7h-.1Z"/><path class="cls-22" d="m197.63,320.33c.02.25-.15.47-.4.5h0c-.25-.03-.42-.25-.4-.5v-4c-.02-.25.15-.47.4-.5h0c.25.03.42.25.4.5v4Z"/><path class="cls-22" d="m199.23,320.33c.02.25-.15.47-.4.5h0c-.25-.03-.42-.25-.4-.5v-4c-.02-.25.15-.47.4-.5h0c.25.03.42.25.4.5v4Z"/><path class="cls-22" d="m200.83,320.33c.02.25-.15.47-.4.5h0c-.25-.03-.42-.25-.4-.5v-4c-.02-.25.15-.47.4-.5h0c.25.03.42.25.4.5v4Z"/><path class="cls-7" d="m201.63,335.88h-.6c-.4,0-.9-.2-1.3-.2-.51-.05-1.01-.15-1.5-.3-.61-.09-1.21-.22-1.8-.4h-.3c-.2,0-.3-.3-.2-.5.07-.29.21-.57.4-.8.2-.5.4-.9.6-1.4.2-.3.3-.6.5-.9.28-.43.87-.56,1.3-.27.07.05.14.11.2.17.17.18.3.38.4.6.3.5.6.9.9,1.4.5.8,1,1.5,1.4,2.3,0,.08.04.15.1.2,0,.2,0,.4-.3.4l.2-.3Z"/><path class="cls-28" d="m209.43,371.38c-.21.02-.42.09-.6.2-.5.1-.9.3-1.4.4s-1.1.3-1.7.5-1.3.4-2,.6h-.3c-.3,0-.4-.1-.4-.4v-3.9c.11-.63.7-1.05,1.32-.94.06,0,.12.02.18.04.26.04.5.14.7.3.5.3,1.1.6,1.6.9.9.5,1.7,1,2.6,1.5.11,0,.2.09.2.2.2.2.2.4,0,.5l-.2.1Z"/><path class="cls-6" d="m188.03,371.38c.21.02.42.09.6.2.5.1.9.3,1.4.4s1.1.3,1.7.5,1.3.4,2,.6h.3c.3,0,.4-.1.4-.4v-3.9c-.11-.63-.7-1.05-1.32-.94-.06,0-.12.02-.18.04-.26.04-.5.14-.7.3-.5.3-1.1.6-1.6.9-.9.5-1.7,1-2.6,1.5-.11,0-.2.09-.2.2-.2.2-.2.4,0,.5l.2.1Z"/><path class="cls-7" d="m202.73,325.08h.2c.2,0,.3.1.2.3s-.2.2-.2.4c-.5.7-1.1,1.4-1.6,2.1l-1.5,1.8c-.25.27-.56.47-.9.6-.42.12-.88,0-1.2-.3-.2-.17-.36-.38-.5-.6-.5-.7-1-1.5-1.4-2.2-.2-.3-.4-.7-.6-1h0c-.1-.3,0-.4.2-.4,1,0,2-.1,3-.2.9-.02,1.8-.08,2.7-.2.63.02,1.27-.02,1.9-.1h0l-.3-.2Z"/><line class="cls-5" x1="201.02" y1="115.3" x2="201.52" y2="148.07"/><line class="cls-4" x1="201.02" y1="115.3" x2="201.36" y2="137.31"/><polygon class="cls-29" points="193.84 135.24 201.52 148.07 208.8 135.01 193.84 135.24"/><line class="cls-5" x1="201.02" y1="253.3" x2="201.52" y2="286.07"/><line class="cls-4" x1="201.02" y1="253.3" x2="201.36" y2="275.31"/><polygon class="cls-29" points="193.84 273.24 201.52 286.07 208.8 273.01 193.84 273.24"/><circle class="cls-1" cx="201.27" cy="63.52" r="45"/><path class="cls-8" d="m215.27,98.92h-26c0-.2-.2-.2-.4-.3-1.28-.49-2.13-1.73-2.1-3.1v-44.6c.01-1.02.49-1.98,1.3-2.6.4-.3.9-.3,1.2-.8h26c2.2.8,2.9,1.8,2.9,4.2v43.8c-.04,1.41-.9,2.66-2.2,3.2-.27-.04-.54.08-.7.3v-.1Zm-14-2c7.18,0,13-5.82,13-13s-5.82-13-13-13-13,5.82-13,13v.2c0,7.07,5.74,12.81,12.82,12.8.06,0,.12,0,.18,0Zm0-47.2c-5.11.03-9.23,4.19-9.2,9.3.03,5.11,4.19,9.23,9.3,9.2s9.23-4.19,9.2-9.3c-.03-5.07-4.13-9.17-9.2-9.2h-.1Zm7.3,19.3c-.03,1.92,1.48,3.52,3.4,3.6h0c1.95-.01,3.52-1.61,3.5-3.56,0-.05,0-.1,0-.14-.05-1.87-1.53-3.4-3.4-3.5-1.96.06-3.54,1.64-3.6,3.6h.1Zm-18.5,25.8c-.03-.85-.75-1.52-1.6-1.5-.81.05-1.45.69-1.5,1.5-.06.88.62,1.64,1.5,1.7s1.64-.62,1.7-1.5v-.2h-.1Zm-1.6-41.74c.85.02,1.57-.65,1.6-1.5h0c.06-.88-.62-1.64-1.5-1.7s-1.64.62-1.7,1.5h0v.2c-.02.85.65,1.57,1.5,1.6h0l.1-.1Zm25.4,0c.82-.02,1.48-.68,1.5-1.5h0c-.03-.86-.74-1.53-1.6-1.5-.86.03-1.53.74-1.5,1.6h0c.02.82.68,1.48,1.5,1.5h0l.1-.1Zm0,40.1c-.82-.03-1.52.58-1.6,1.4h0c-.03.86.64,1.57,1.5,1.6.86.03,1.57-.64,1.6-1.5.03-.85-.64-1.57-1.5-1.6h0v.1Z"/><path class="cls-13" d="m187.27,98.92c-.92-.2-1.74-.74-2.3-1.5-.42-.58-.67-1.28-.7-2v-44c-.1-1.41.59-2.76,1.8-3.5.4-.2.7-.3,1.1-.5h1.9c-.3.4-.8.5-1.2.8-.81.62-1.29,1.58-1.3,2.6v44.6c-.03,1.37.82,2.61,2.1,3.1.1,0,.4,0,.4.3h-1.9l.1.1Z"/><path class="cls-18" d="m226.97,59.72c-.3.33-.76.49-1.2.4h-3.8c-.6,0-.9-.2-.9-.7s.3-.8.9-.8h4.1c.37,0,.71.19.9.5v.6Z"/><path class="cls-24" d="m175.57,84.08c.27-.32.69-.47,1.1-.4h3.9c.6,0,.9.2.9.7s-.3.8-.9.8h-4.1c-.37,0-.71-.19-.9-.5v-.6Z"/><path class="cls-24" d="m226.97,84.72c-.29.3-.68.48-1.1.5h-4.3c-.36-.08-.58-.43-.5-.79,0,0,0,0,0-.01.02-.32.28-.58.6-.6h4.5c.3,0,.4.3.7.4v.6l.1-.1Z"/><path class="cls-18" d="m175.57,59.08c.25-.36.67-.55,1.1-.5h4.2c.35.06.58.4.51.75,0,.02,0,.04-.01.05.01.32-.24.59-.56.6-.01,0-.03,0-.04,0h-4.5c-.3,0-.4-.3-.7-.4v-.5Z"/><path class="cls-31" d="m201.27,96.92c-7.12-.06-12.85-5.88-12.8-13,.06-7.12,5.88-12.85,13-12.8,7.12.06,12.85,5.88,12.8,13-.05,7.05-5.75,12.74-12.8,12.8h-.2Zm11.1-10.1h0c.41-1.53.48-3.14.2-4.7-1.02-6.23-6.87-10.47-13.1-9.5h-.4c-3.32.57-6.19,2.64-7.8,5.6-.55.88-.93,1.87-1.1,2.9h0c-.36,1.4-.43,2.87-.2,4.3.5,3.72,2.78,6.96,6.1,8.7,1.37.7,2.87,1.11,4.4,1.2,1.21.12,2.44-.02,3.6-.4.24.02.48-.02.7-.1,2.75-.83,5.08-2.7,6.5-5.2.6-.91,1.01-1.93,1.2-3l-.1.2Z"/><path class="cls-30" d="m201.27,49.72c5.14,0,9.3,4.16,9.3,9.3s-4.16,9.3-9.3,9.3-9.3-4.16-9.3-9.3c.03-5.12,4.18-9.27,9.3-9.3Zm-1.2,1.6c-1.95.3-3.7,1.33-4.9,2.9-.88,1-1.41,2.27-1.5,3.6-.2.65-.2,1.35,0,2,.29,2.87,2.19,5.31,4.9,6.3,1.25.58,2.66.72,4,.4h.6c3.04-.78,5.32-3.3,5.8-6.4.2-.82.2-1.68,0-2.5-.7-4.18-4.61-7.03-8.8-6.4h0l-.1.1Z"/><path class="cls-30" d="m208.57,69.02c-.2-2.1,1.9-3.6,3.6-3.6,1.95.07,3.47,1.7,3.41,3.65,0,.05,0,.1,0,.15-.03,1.9-1.6,3.42-3.5,3.4-1.96-.03-3.52-1.64-3.5-3.6h0Zm3.5,2.1c1.16,0,2.09-.94,2.1-2.1h0c-.08-1.13-.97-2.02-2.1-2.1-1.12.05-2.01.98-2,2.1-.04,1.06.78,1.95,1.84,2,.02,0,.04,0,.06,0h0l.1.1Z"/><path class="cls-26" d="m190.17,94.82c.03.86-.64,1.57-1.5,1.6s-1.57-.64-1.6-1.5v-.2c.05-.88.8-1.55,1.67-1.5,0,0,.02,0,.03,0,.81.05,1.45.69,1.5,1.5l-.1.1Z"/><path class="cls-26" d="m188.57,53.08c-.81.02-1.48-.63-1.5-1.44,0-.02,0-.04,0-.06h0c-.03-.86.64-1.57,1.5-1.6.86-.03,1.57.64,1.6,1.5h0v.2c-.02.82-.68,1.48-1.5,1.5h0l-.1-.1Z"/><path class="cls-26" d="m213.97,53.08c-.84,0-1.54-.66-1.6-1.5h0c0-.88.72-1.6,1.6-1.6.88,0,1.6.72,1.6,1.6-.05.83-.68,1.5-1.5,1.6h0l-.1-.1Z"/><path class="cls-26" d="m213.97,93.32c.82.02,1.48.68,1.5,1.5h0c-.03.86-.74,1.53-1.6,1.5s-1.53-.74-1.5-1.6h0c.02-.82.68-1.48,1.5-1.5h0l.1.1Z"/><path class="cls-18" d="m224.97,52.42c-.01.23-.12.45-.3.6l-2.7,2.7c-.28.33-.77.37-1.1.1h0c-.3-.3-.3-.7.1-1.1l2.7-2.7c.23-.32.67-.41,1-.2.27.12.44.4.4.7l-.1-.1Z"/><path class="cls-11" d="m221.37,88.02c.24-.03.48.09.6.3l2.7,2.7c.3.22.36.65.14.95-.01.02-.03.03-.04.05l-.1.1c-.3.3-.8.3-1.1,0h0c-.9-.9-1.8-1.9-2.8-2.8-.21-.21-.29-.52-.2-.8.08-.3.4-.48.7-.4,0,0,0,0,0,0l.1-.1Z"/><path class="cls-11" d="m224.97,66.62c0,.29-.21.54-.5.6-.31.08-.65,0-.9-.2l-2.4-2.4-.5-.5c-.28-.25-.3-.67-.05-.95.02-.02.04-.04.05-.05h0c.18-.25.53-.3.78-.12.04.03.08.07.12.12h0l2.9,2.9c.13.14.2.31.2.5l.3.1Z"/><path class="cls-11" d="m224.97,77.32c0,.24-.11.46-.3.6l-2.7,2.7c-.24.31-.66.39-1,.2h0c-.28-.25-.3-.67-.05-.95.02-.02.04-.04.05-.05l.1-.1,2.8-2.8c.21-.21.52-.29.8-.2.25.09.41.34.4.6h-.1Z"/><path class="cls-18" d="m181.97,55.22c-.03.28-.17.53-.4.7-.31.08-.65,0-.9-.2l-2.3-2.3c-.2-.17-.36-.38-.5-.6-.28-.25-.3-.67-.05-.95.02-.02.04-.04.05-.05h0c.25-.28.67-.3.95-.05.02.02.04.03.05.05h0c.46.41.89.84,1.3,1.3.4.5,1,1,1.5,1.5.18.15.29.37.3.6Z"/><path class="cls-11" d="m181.97,88.72c-.01.23-.12.45-.3.6l-2.7,2.7c-.25.35-.74.44-1.1.2h0c-.4-.4-.3-.8.1-1.2l2.7-2.7c.25-.21.59-.28.9-.2.3.11.5.38.5.7l-.1-.1Z"/><path class="cls-11" d="m181.97,63.72c-.01.23-.12.45-.3.6l-2.7,2.7c-.4.4-.8.4-1.1.1-.3-.3-.3-.8,0-1.1h.1c.9-.9,1.8-1.9,2.8-2.8.21-.21.52-.29.8-.2.3.11.5.38.5.7h-.1Z"/><path class="cls-11" d="m181.97,80.22c-.03.28-.17.53-.4.7-.25.15-.55.15-.8,0l-3-3c-.2-.27-.2-.63,0-.9h0c.18-.25.53-.3.78-.12.04.03.08.07.12.12h0l2.9,2.9c.13.14.2.31.2.5l.2-.2Z"/><path class="cls-27" d="m190.27,81.08c.17-1.03.55-2.02,1.1-2.9,3.17-5.49,10.17-7.41,15.7-4.3.42.23.82.5,1.2.8,2.39,1.74,3.97,4.37,4.4,7.3.28,1.53.21,3.1-.2,4.6h0c-.32.11-.66.18-1,.2-1.84.01-3.65-.51-5.2-1.5-.4-.29-.84-.53-1.3-.7v-1.1c-.13-1.48-1.17-2.72-2.6-3.1-.74-.3-1.56-.3-2.3,0-1.2.44-2.1,1.46-2.4,2.7-.1,0-.2,0-.4-.2-1.8-1.39-4.02-2.13-6.3-2.1-.2,0-.5.1-.7,0v.3Z"/><path class="cls-15" d="m190.27,81.08h.7c2.28-.03,4.5.71,6.3,2.1.1,0,.2.1.4.2v.1c-.3,1.77.78,3.49,2.5,4,.59.13,1.2.17,1.8.1.59.93,1.13,1.9,1.6,2.9.68,1.4.82,3,.4,4.5-1.16.38-2.39.52-3.6.4-1.53-.1-3.03-.51-4.4-1.2-3.37-1.69-5.66-4.96-6.1-8.7-.18-1.4-.12-2.82.2-4.2h0l.2-.2Z"/><path class="cls-17" d="m203.97,95.02c.37-1.5.23-3.09-.4-4.5-.47-1-1.01-1.97-1.6-2.9l.4-.2h.2c1.13-.51,1.98-1.5,2.3-2.7.45.19.89.43,1.3.7,1.55.99,3.36,1.51,5.2,1.5h1c-.19,1.07-.6,2.09-1.2,3-1.45,2.48-3.76,4.33-6.5,5.2-.2,0-.5.1-.7.1v-.2Z"/><path class="cls-17" d="m208.87,60.22c-.12,1.25-.61,2.43-1.4,3.4-1.05,1.5-2.62,2.57-4.4,3h-.6c.04-.86-.13-1.72-.5-2.5-1.09-2.29-2.88-4.18-5.1-5.4-.94-.71-2.14-1-3.3-.8.14-1.32.66-2.57,1.5-3.6,1.2-1.57,2.95-2.6,4.9-2.9,0,.93.21,1.85.6,2.7.89,1.75,2.15,3.29,3.7,4.5,1.21,1.15,2.83,1.76,4.5,1.7l.1-.1Zm-7-3.1c-.84-.3-1.77-.02-2.3.7-.5.76-.5,1.74,0,2.5.53.72,1.46,1,2.3.7.88-.25,1.47-1.09,1.4-2,.01-.89-.56-1.67-1.4-1.94v.04Z"/><path class="cls-15" d="m208.87,60.22c-1.67.06-3.29-.55-4.5-1.7-1.6-1.16-2.87-2.71-3.7-4.5-.41-.84-.61-1.77-.6-2.7,4.19-.67,8.13,2.18,8.8,6.37,0,0,0,.02,0,.03.2.82.2,1.68,0,2.5Z"/><path class="cls-15" d="m193.67,57.82c1.16-.09,2.31.19,3.3.8,2.2,1.25,3.98,3.13,5.1,5.4.41.76.59,1.64.5,2.5-1.34.33-2.75.19-4-.4-2.69-1.01-4.58-3.45-4.9-6.3-.1-.66-.09-1.34,0-2Z"/><path class="cls-15" d="m212.17,71.08c-1.06.04-1.95-.78-2-1.84,0-.02,0-.04,0-.06h0c.03-1.11.89-2.02,2-2.1,1.16,0,2.1.94,2.1,2.1,0,1.16-.94,2.1-2.1,2.1h0v-.2Z"/><path class="cls-9" d="m204.87,84.62c-.29,1.22-1.14,2.22-2.3,2.7h-.2c-.62-.36-1.16-.83-1.6-1.4-1.13-1.69-.68-3.97,1-5.1h0c.1,0,.4-.1.4-.3,1.43.38,2.47,1.62,2.6,3.1v1.1l.1-.1Z"/><path class="cls-25" d="m202.27,80.52c0,.2-.2.3-.4.3-1.68,1.12-2.21,3.35-1.2,5.1h0c.44.57.98,1.04,1.6,1.4l-.4.2c-.6.02-1.2-.02-1.8-.1-1.73-.58-2.81-2.29-2.6-4.1v-.1c.22-1.3,1.15-2.38,2.4-2.8.74-.3,1.56-.3,2.3,0l.1.1Z"/><path class="cls-9" d="m201.87,57.02c.86.21,1.45,1.01,1.4,1.9-.01.89-.57,1.68-1.4,2,0-.2-.3-.3-.5-.5-.82-.72-.91-1.97-.2-2.8.2-.2.5-.3.7-.6Z"/><path class="cls-25" d="m201.87,57.02c-.1.3-.5.4-.7.6-.71.83-.62,2.08.2,2.8.2.2.4.2.5.5-.84.28-1.76,0-2.3-.7-.5-.76-.5-1.74,0-2.5.53-.72,1.46-1,2.3-.7Z"/><path class="cls-16" d="m178.97,225.54c.5-.4.9-.9,1.4-1.3l6.8-6.8c1.6-1.66,4.24-1.7,5.9-.1.04.03.07.07.1.1.57.53.96,1.23,1.1,2,.15.62.15,1.28,0,1.9-.3.94-.82,1.79-1.5,2.5-2,1.9-3.9,3.9-5.8,5.8-.3.3-.3.4,0,.7,1.02,1.12,1.77,2.45,2.2,3.9h-13.2c-.2,0-.4,0-.4-.2-.09-1.24-.02-2.48.2-3.7.28-1.17.87-2.24,1.7-3.1l1.5-1.5v-.2Z"/><path class="cls-14" d="m211.57,223.34c-1.48-.83-2.09-2.65-1.4-4.2.54-1.33,1.87-2.17,3.3-2.1h8.4c1.66,0,3.08,1.17,3.4,2.8-.2,0-.2.1-.2.2-.37.89-1.09,1.58-2,1.9-.58.2-1.19.3-1.8.3h-8.4c-1,0-1.2,0-1.3,1.1Z"/><path class="cls-16" d="m211.57,230.24c-1.61-.93-2.19-2.97-1.3-4.6.49-.8,1.28-1.38,2.2-1.6.37-.02.74-.09,1.1-.2h8.8c.69.21,1.34.55,1.9,1,.48.5.83,1.12,1,1.8,0,0-.2.1-.2.2-.6,1.48-2.11,2.38-3.7,2.2h-8.6c-1,.04-1.2.2-1.2,1.2Z"/><path class="cls-16" d="m209.87,234.24c-.02-1.58,1.06-2.95,2.6-3.3.24.02.48-.02.7-.1,3.1,0,6.3.1,9.4,0,0,.2.2.2.3.2,1.21.37,2.13,1.37,2.4,2.6.2.7,0,.8-.6.8h-14.8v-.2Z"/><path class="cls-21" d="m189.17,234.24c-.37-1.47-1.13-2.82-2.2-3.9-.3-.3-.3-.4,0-.7,2-1.9,3.9-3.9,5.8-5.8.71-.69,1.22-1.55,1.5-2.5.63,1.51.27,3.26-.9,4.4l-3.8,3.8c-.3.3-.3.4,0,.7,1.02,1.12,1.77,2.45,2.2,3.9h-2.6v.1Z"/><path class="cls-10" d="m222.57,230.64c-3.1.2-6.3,0-9.4,0-.24-.02-.48.02-.7.1-.3-.2-.6-.2-.8-.5h0c0-1.1.2-1.3,1.2-1.3h8.6c1.7,0,3-.5,3.7-2.2,0,0,.1-.2.2-.2.33,1.75-.7,3.46-2.4,4h-.3l-.1.1Z"/><path class="cls-10" d="m222.37,223.84h-8.8c-.38-.03-.76.04-1.1.2-.2-.2-.6-.2-.8-.6h-.1c.1-1.1.2-1.3,1.3-1.3h8.4c.62.05,1.23-.06,1.8-.3.91-.32,1.63-1.01,2-1.9,0-.1,0-.2.2-.2.39,1.79-.72,3.56-2.5,4h-.4v.1Z"/><path class="cls-20" d="m211.57,196.44h-3.8c-.3,0-.5,0-.5-.4-.09-.63.35-1.21.98-1.3.11-.02.22-.02.32,0h6.9c.4,0,.5,0,.5.5.09.63-.35,1.21-.98,1.3-.11.02-.22.02-.32,0h-3.1v-.1Z"/><path class="cls-23" d="m214.57,191.24h3.4c.3,0,.4,0,.4.4q0,1.4-1.3,1.4h-5.9c-.4,0-.5,0-.5-.5,0-.86.4-1.3,1.2-1.3h2.7Z"/><path class="cls-23" d="m207.27,192.08c-.05-.39.22-.75.61-.8.06,0,.13,0,.19,0,.53,0,.83.3.9.9q0,.9-.9.9c-.9,0-.8,0-.8-.9v-.1Z"/><path class="cls-14" d="m211.57,223.34h.1c0,.1-.1,0-.1,0Z"/><path class="cls-21" d="m218.27,186.94h-35.8c-.44-.03-.89.04-1.3.2-1.43.5-2.36,1.88-2.3,3.4v35.1c.5-.4.9-.9,1.4-1.3l6.8-6.8c.53-.57,1.23-.96,2-1.1,2.2-.59,4.46.71,5.05,2.9.02.07.03.13.05.2.15.62.15,1.28,0,1.9.63,1.51.27,3.26-.9,4.4l-3.8,3.8c-.3.3-.3.4,0,.7,1.02,1.12,1.77,2.45,2.2,3.9h18.1c0-1.59,1.07-2.98,2.6-3.4-.3-.2-.6-.2-.8-.5h0c-1.66-1.03-2.17-3.2-1.15-4.86.46-.75,1.19-1.3,2.05-1.54-.2-.2-.6-.2-.8-.6h-.1c-1.47-.93-2.06-2.79-1.4-4.4.54-1.33,1.87-2.17,3.3-2.1h8.4v-26.5c.14-1.85-1.25-3.46-3.1-3.6-.17-.01-.33-.01-.5,0v.2Zm-11,5.14c-.05-.39.22-.75.61-.8.06,0,.13,0,.19,0q.9,0,.9.9t-.9.9c-.9,0-.8,0-.8-.9v-.1Zm7.4,4.4h-6.9c-.3,0-.5,0-.5-.4q0-1.3,1.3-1.3h6.9c.4,0,.5,0,.5.5q0,1.3-1.3,1.3v-.1Zm2.5-3.4h-5.9c-.4,0-.5,0-.5-.5q0-1.3,1.2-1.3h6.1c.3,0,.4,0,.4.4q0,1.4-1.3,1.4Z"/><circle class="cls-2" cx="201.27" cy="200.64" r="45"/><path d="m170.67,201.84l.2,2.1-5.3.4,4,2.1v.2l-3.7,2.6,5.3-.4.2,2.1-9.1.7-.2-2.1,3.9-2.8-4.2-2.2-.2-2.1,9.1-.7v.1Z"/><path d="m170.07,197.44c.1-.44.03-.91-.2-1.3l1.2-1.3c.74.81,1,1.95.7,3-.25,1.83-1.93,3.11-3.76,2.86-.12-.02-.23-.04-.34-.06-1.78-.3-2.98-1.99-2.67-3.77.02-.11.04-.22.07-.33.34-1.75,2.02-2.89,3.77-2.55.08.01.15.03.23.05.25,0,.49.07.7.2l-1,4.5c.66-.09,1.16-.64,1.2-1.3h.1Zm-2.1-1.7c-.79.05-1.4.74-1.35,1.53.03.49.31.93.75,1.17l.6-2.7Z"/><path d="m167.17,184.24l8.2,3.9-.8,1.8-.6-.3c.32.67.28,1.46-.1,2.1-.82,1.56-2.76,2.17-4.32,1.34-.03-.01-.05-.03-.08-.04-1.67-.71-2.46-2.62-1.8-4.3.29-.69.88-1.2,1.6-1.4l-2.9-1.4.8-1.8v.1Zm4.4,4.3c-.77-.38-1.71-.07-2.1.7-.39.73-.11,1.63.61,2.02.06.03.12.06.19.08.77.38,1.71.07,2.1-.7.38-.75.08-1.66-.67-2.04-.04-.02-.09-.04-.13-.06h0Z"/><path d="m169.27,182.74c-.52-.36-.66-1.07-.3-1.6s1.07-.66,1.6-.3c.52.36.66,1.07.3,1.6-.39.48-1.07.61-1.6.3Zm1.5.9l1.1-1.6,5.3,3.8-1.1,1.6-5.3-3.8Z"/><path d="m177.97,175.54l4.5,4.7-1.4,1.4-.4-.4c.02.72-.27,1.41-.8,1.9-1.5,1.18-3.67.92-4.84-.58-1-1.27-.98-3.07.04-4.32.5-.51,1.18-.8,1.9-.8l-.4-.4,1.4-1.4v-.1Zm.9,3.7c-.49-.61-1.37-.71-1.98-.22-.08.06-.15.14-.22.22-.61.55-.66,1.48-.11,2.09.03.04.07.08.11.11.49.61,1.37.71,1.98.22.08-.06.15-.14.22-.22.65-.5.82-1.36.33-2-.08-.1-.17-.19-.33-.2h0Z"/><path d="m180.87,175.44l4.2-2.6,1,1.6-4.2,2.6-1-1.6Z"/><path d="m192.47,165.64l2.8,8.7-1.5.5-4.9-3.6,1.5,4.7-2,.6-2.8-8.7,1.5-.5,4.9,3.6-1.5-4.7,2-.6Z"/><path d="m195.77,170.94c-.12-1.86,1.29-3.47,3.15-3.6.02,0,.03,0,.05,0,1.89-.1,3.53,1.31,3.7,3.2.12,1.86-1.29,3.47-3.15,3.6-.02,0-.03,0-.05,0-1.89.1-3.53-1.31-3.7-3.2Zm4.9-.3c.03-.76-.56-1.39-1.32-1.42-.09,0-.19,0-.28.02-.83.06-1.45.77-1.39,1.6s.77,1.45,1.6,1.39c.82-.06,1.45-.77,1.39-1.59Z"/><path d="m206.97,170.94c.43-1.79,2.24-2.88,4.02-2.45.06.01.12.03.18.05,1.17.32,2.08,1.23,2.4,2.4l-1.9.5c-.07-.52-.48-.93-1-1-.75-.22-1.54.21-1.77.96-.01.05-.03.09-.03.14-.25.73.14,1.52.87,1.76.04.01.09.03.13.04.5.15,1.05,0,1.4-.4l1.4,1.4c-.87.86-2.12,1.2-3.3.9-1.79-.43-2.88-2.24-2.45-4.02.01-.06.03-.12.05-.18v-.1Z"/><path d="m221.47,173.24l-3,5.7-1.7-.9.3-.5c-.7.23-1.46.15-2.1-.2-1.54-.94-2.04-2.95-1.1-4.5.73-1.62,2.63-2.35,4.26-1.62.01,0,.03.01.04.02.67.29,1.16.89,1.3,1.6l.3-.5,1.7.9Zm-3.2,2c.45-.63.3-1.5-.33-1.95-.08-.06-.17-.11-.27-.15-.69-.41-1.59-.19-2,.5-.04.06-.07.13-.1.2-.45.63-.3,1.5.33,1.95.08.06.17.11.27.15.69.41,1.59.19,2-.5.04-.06.07-.13.1-.2Z"/><path d="m228.97,183.34l-2.8,2.8-1.4-1.4,2.7-2.7c.5-.5.5-1,0-1.4s-1-.4-1.6.2l-2.6,2.6-1.4-1.4,2.7-2.7c.5-.5.5-1,0-1.4s-1-.4-1.6.2l-2.6,2.6-1.4-1.4,4.6-4.6,1.4,1.4-.4.4c.68-.12,1.38.15,1.8.7.47.47.7,1.14.6,1.8.71-.14,1.45.13,1.9.7,1,.95,1.04,2.52.09,3.52-.06.06-.12.12-.19.18l.2-.1Z"/><path d="m229.37,189.08c.22.41.57.72,1,.9v1.8c-1.11-.14-2.08-.81-2.6-1.8-1.01-1.54-.57-3.6.97-4.61.11-.07.22-.13.33-.19,1.63-.93,3.71-.35,4.63,1.28.02.04.04.08.07.12.88,1.55.34,3.52-1.22,4.4-.06.03-.12.07-.18.1-.2.1-.5.2-.7.3l-2.2-4c-.45.52-.45,1.28,0,1.8l-.1-.1Zm2.7,0c.5-.43.59-1.17.2-1.7-.29-.59-.97-.89-1.6-.7l1.3,2.5.1-.1Z"/><path d="m237.17,194.94l-2.1.7c-.03-.84-.74-1.5-1.58-1.47-.14,0-.28.03-.42.07l-2.8.9-.6-1.9,6.2-2,.6,1.9-1.1.4c.87.03,1.61.65,1.8,1.5v-.1Z"/><path d="m238.27,203.08l-6.5.8-.2-1.9h.6c-.58-.47-.94-1.16-1-1.9-.15-1.78,1.16-3.34,2.94-3.5.02,0,.04,0,.06,0,1.79-.28,3.48.92,3.8,2.7.13.71-.06,1.44-.5,2h.6l.2,1.9v-.1Zm-3.5-1.5c.8,0,1.43-.66,1.42-1.46,0-.08,0-.16-.02-.24-.04-.78-.7-1.39-1.49-1.35-.11,0-.21.02-.31.05-.8,0-1.43.66-1.42,1.46,0,.08,0,.16.02.24.06.78.74,1.37,1.52,1.31.09,0,.19-.02.28-.05v.04Z"/></svg>