<?xml version="1.0" encoding="UTF-8"?><svg id="Layer_1" xmlns="http://www.w3.org/2000/svg" viewBox="0 0 400 400"><defs><style>.cls-1{fill:#435256;}.cls-2{fill:#565959;}.cls-3{fill:#eb917f;}.cls-4{fill:#fbe501;}.cls-5{fill:#414343;}.cls-6{fill:#d2febf;}.cls-7{opacity:.5;}.cls-8{fill:#f9f3b1;}.cls-9{fill:#999afe;}.cls-10{fill:#fcc472;}.cls-11{fill:#2d3b3d;}.cls-12{fill:#f3bd99;}.cls-13{stroke:#c000e2;}.cls-13,.cls-14{stroke-width:4px;}.cls-13,.cls-14,.cls-15{stroke-miterlimit:10;}.cls-13,.cls-14,.cls-15,.cls-16{fill:none;}.cls-17{fill:#00f6d5;}.cls-18{fill:#007d9e;}.cls-19{fill:#989afe;}.cls-20{fill:#fbc372;}.cls-21{fill:#f4bd99;}.cls-22{fill:#fedd46;}.cls-23{fill:#02f6d5;}.cls-24{fill:#06687f;}.cls-14{stroke:#00b51e;}.cls-25{fill:#03f6d5;}.cls-15{stroke:#231f20;stroke-width:2px;}.cls-26{fill:#00244d;}.cls-27{fill:#6e6f6e;}.cls-28{fill:#b7b7fe;}.cls-29{fill:#979bfd;}.cls-30{fill:#97d6e5;}.cls-31{fill:#7dcbe5;}.cls-32{fill:#eecf15;}.cls-33{fill:#9dd8e6;}.cls-34{fill:#fdc472;}.cls-35{fill:#0092b9;}.cls-36{fill:#e5eff1;}.cls-37{fill:#b8b8fd;}.cls-38{fill:#014767;}.cls-39{fill:#414242;}.cls-40{fill:#231f20;}.cls-41{fill:#00dbe6;}.cls-42{fill:#9fddea;}.cls-43{fill:#067fa6;}.cls-44{fill:#f99e3d;}</style></defs><line class="cls-16" x1="111.61" y1="202.13" x2="144.39" y2="201.63"/><line class="cls-15" x1="111.61" y1="202.13" x2="133.63" y2="201.79"/><polygon class="cls-40" points="131.55 209.31 144.39 201.63 131.32 194.35 131.55 209.31"/><line class="cls-16" x1="289.39" y1="202.13" x2="256.61" y2="201.63"/><line class="cls-15" x1="289.39" y1="202.13" x2="267.37" y2="201.79"/><polygon class="cls-40" points="269.68 194.35 256.61 201.63 269.45 209.31 269.68 194.35"/><line class="cls-16" x1="200.25" y1="113.49" x2="200.75" y2="146.27"/><line class="cls-15" x1="200.25" y1="113.49" x2="200.59" y2="135.51"/><polygon class="cls-40" points="193.07 133.43 200.75 146.27 208.03 133.2 193.07 133.43"/><line class="cls-16" x1="200.25" y1="290.27" x2="200.75" y2="257.49"/><line class="cls-15" x1="200.25" y1="290.27" x2="200.59" y2="268.25"/><polygon class="cls-40" points="208.03 270.56 200.75 257.49 193.07 270.33 208.03 270.56"/><circle class="cls-13" cx="60.56" cy="201.88" r="45"/><path d="m25.5,199.38c-2.5-.43-4.19-2.8-3.76-5.31.02-.1.04-.19.06-.29.27-1.55,1.33-2.84,2.8-3.4l.7,2c-.82.3-1.4,1.04-1.5,1.9-.36,1.31.41,2.66,1.72,3.03.13.03.25.06.38.07,1.36.37,2.76-.43,3.13-1.78.03-.1.05-.21.07-.32.26-.84-.02-1.75-.7-2.3l1.4-1.6c1.13,1.08,1.62,2.67,1.3,4.2-.43,2.5-2.8,4.19-5.31,3.76-.1-.02-.19-.04-.29-.06v.1Z"/><path d="m28.86,190.28c-1.71-.83-2.42-2.89-1.59-4.6.83-1.71,2.89-2.42,4.6-1.59,1.71.83,2.42,2.88,1.6,4.59-.85,1.69-2.89,2.4-4.6,1.6Zm2.2-4.4c-.72-.37-1.61-.08-1.98.65,0,.02-.02.03-.02.05-.34.75-.03,1.63.7,2,.72.37,1.61.08,1.98-.65,0-.02.02-.03.02-.05.38-.69.13-1.55-.55-1.93-.05-.03-.1-.05-.15-.07Z"/><path d="m38.56,175.08l2.9,2.7-1.3,1.4-2.8-2.6c-.5-.4-1-.5-1.4,0-.39.43-.36,1.1.07,1.5.04.04.09.07.13.1l2.7,2.5-1.3,1.4-2.8-2.6c-.5-.4-1-.5-1.4,0-.39.43-.36,1.1.07,1.5.04.04.09.07.13.1l2.7,2.5-1.3,1.4-4.8-4.4,1.3-1.4.4.4c-.12-.66.11-1.34.6-1.8.42-.55,1.12-.82,1.8-.7-.12-.72.1-1.46.6-2,.91-1.02,2.48-1.11,3.5-.2.07.06.14.13.2.2Z"/><path d="m44.16,168.78l3.4,5.6-1.7,1-.3-.5c-.06.72-.53,1.34-1.2,1.6-1.13.72-2.63.39-3.36-.74-.05-.08-.1-.17-.14-.26l-2.1-3.4,1.7-1,1.9,3.2c.19.52.77.78,1.29.59.12-.04.22-.11.31-.19.56-.32.76-1.05.43-1.61-.04-.07-.08-.13-.13-.19l-1.76-3,1.7-1-.04-.1Z"/><path d="m53.06,168.18l1.2,3.8-1.9.6-1.1-3.5c-.06-.55-.56-.94-1.11-.88-.1.01-.2.04-.29.08-.59.14-.95.72-.81,1.31.02.1.06.2.11.29l1.1,3.4-1.9.6-2-6.2,1.9-.6.2.6c.23-.67.81-1.16,1.5-1.3,1.29-.4,2.65.33,3.05,1.61.02.06.04.12.05.19Z"/><path d="m53.96,163.88c-.08-.64.36-1.22,1-1.3.64-.08,1.22.36,1.3,1s-.36,1.22-1,1.3c0,0,0,0,0,0-.62.02-1.16-.4-1.3-1Zm.4,1.7l1.9-.3.9,6.4-1.9.3-.9-6.4Z"/><path d="m58.06,168.28c0-1.88,1.52-3.4,3.4-3.4.03,0,.07,0,.1,0,1.21-.03,2.33.63,2.9,1.7l-1.7,1c-.34-.71-1.18-1.01-1.89-.67-.53.25-.85.79-.81,1.37-.06.77.51,1.43,1.28,1.5.04,0,.08,0,.12,0,.53.03,1.03-.24,1.3-.7l1.7,1c-1.03,1.62-3.17,2.1-4.79,1.07-1.02-.64-1.63-1.77-1.61-2.97v.1Z"/><path d="m72.56,166.88l-1.6,6.3-1.9-.5v-.6c-.54.42-1.26.53-1.9.3-1.71-.48-2.72-2.25-2.24-3.96.01-.05.03-.09.04-.14.34-1.76,2.03-2.92,3.8-2.6.73.12,1.37.56,1.74,1.2v-.6c.1,0,2,.5,2,.5l.06.1Zm-2.7,2.7c.22-.83-.27-1.68-1.1-1.9,0,0,0,0,0,0-.8-.23-1.64.24-1.86,1.04-.01.05-.03.11-.04.16-.22.83.27,1.68,1.1,1.9,0,0,0,0,0,0,.8.23,1.64-.24,1.86-1.04.01-.05.03-.11.04-.16Z"/><path d="m76.16,170.58l-1,2.1c-.2.5.2.8,1,1.1l-.8,1.6c-2.4-.9-2.8-1.9-2-3.5l1-2.1-.9-.4.8-1.7.9.4.5-1.1,2,.3-.8,1.6,1.2.6-.8,1.7-1.2-.6h.1Z"/><path d="m79.56,170.28l1.6,1-3.5,5.5-1.6-1,3.5-5.5Zm.8-1.6c.33-.56,1.05-.74,1.6-.41.56.33.74,1.05.41,1.6-.33.56-1.05.74-1.6.41,0,0,0,0,0,0-.52-.36-.69-1.04-.4-1.6h0Z"/><path d="m80.66,174.78c1.3-1.41,3.49-1.5,4.9-.2,1.41,1.3,1.5,3.49.2,4.9-1.3,1.41-3.49,1.5-4.9.2,0,0,0,0,0,0-1.41-1.3-1.5-3.49-.2-4.9Zm3.7,3.3c.58-.55.6-1.47.05-2.05-.02-.02-.03-.03-.05-.05-.52-.56-1.39-.59-1.95-.06-.05.05-.1.11-.15.16-.55.58-.53,1.5.05,2.05.58.55,1.5.53,2.05-.05,0,0,0,0,0,0Z"/><path d="m90.76,185.18l-3.26,2.2-1.1-1.6,3.1-2.1c.5-.23.72-.83.49-1.33-.05-.1-.11-.19-.19-.27-.4-.6-1-.8-1.8-.2l-2.9,2-1.1-1.6,5.4-3.7,1.1,1.6-.5.3c.71.07,1.34.48,1.7,1.1.75,1.1.46,2.6-.64,3.35-.08.06-.17.11-.26.15l-.04.1Z"/><path d="m92.66,192.88c-1.54.61-3.28-.14-3.89-1.68-.04-.1-.08-.21-.11-.32-.57-1.24-.34-2.7.6-3.7l1.6,1.3c-.54.38-.71,1.11-.4,1.7.3.8.9,1,1.4.8.5-.2.8-.7.5-1.5l-1-2.7,5-1.6,1.9,4.9-1.8.7-1.2-3.1-1.2.4.3.7c.7,1.42.11,3.14-1.31,3.84-.13.06-.26.11-.39.16v.1Z"/><path d="m95.5,202.98c-2.33.36-4.5-1.24-4.86-3.57-.02-.14-.04-.29-.04-.43-.35-2.63,1.5-5.04,4.13-5.39.02,0,.05,0,.07,0,2.6-.27,4.92,1.62,5.19,4.22,0,.03,0,.06,0,.08.21,1.6-.43,3.2-1.7,4.2l-1.2-1.7c.66-.57.96-1.45.8-2.3-.19-1.49-1.56-2.54-3.05-2.35-1.49.19-2.54,1.56-2.35,3.05h0c0,1,.65,1.89,1.6,2.2l-.3-2.4,1.8-.2.5,4.5h-.8l.2.1Z"/><path class="cls-22" d="m72.5,188.98c-8.5-.2-17.8-.2-26.3,0-14.8,1.9-22,20.9-11.6,31.8,2.2,3.3-1.6,9.5,2.3,11.8,3.3,1,5.2-3.4,7.4-5.1,9.2-1,20.3.5,29.8-.5,22.1-2.9,20.7-37.2-1.6-38.2v.2Z"/><path d="m50.56,205.28c1.6-.04,3.16.49,4.4,1.5,1.19,1.1,1.82,2.68,1.7,4.3.08,1.71-.62,3.36-1.9,4.5-1.31,1.1-2.99,1.67-4.7,1.6-1.44.09-2.87-.26-4.1-1-1.16-.67-2.05-1.74-2.5-3l4-2.3c.29,1.18,1.39,1.98,2.6,1.9,1.4,0,1.1-.1,1.5-.4.66-.66.67-1.73,0-2.39,0,0,0,0,0,0-.4-.3-.9-.45-1.4-.4h-5.66l.7-10.5h10.5v4.4h-6.3v1.9h1.1l.06-.1Z"/><path d="m76.26,206.58v1.8c.09,2.39-.81,4.71-2.5,6.4-1.72,1.63-4.03,2.5-6.4,2.4-2.57.05-5.05-.92-6.9-2.7-3.65-3.62-3.67-9.51-.05-13.15,1.76-1.77,4.15-2.76,6.65-2.75,1.61-.12,3.22.26,4.6,1.1,1.35.64,2.47,1.69,3.2,3l-3.9,2.2c-.39-.59-.95-1.04-1.6-1.3-.73-.32-1.51-.49-2.3-.5-2.64-.07-4.83,2.02-4.9,4.66,0,.08,0,.16,0,.24-.04,1.29.42,2.55,1.3,3.5.99,1.02,2.39,1.53,3.8,1.4,1.69.08,3.29-.81,4.1-2.3h-4.3v-3.9h9l.2-.1Z"/><circle class="cls-13" cx="339.44" cy="201.88" r="45"/><path d="m306.64,199.38l-.7-2.3c.97-.09,1.76-.83,1.9-1.8.3-1.1-.1-1.5-.5-1.6-.6-.2-1,.4-1.8,1.8-.8,1.4-1.9,2.7-3.8,2.2-1.77-.47-2.82-2.29-2.34-4.05.01-.05.03-.1.04-.15.32-1.62,1.58-2.88,3.2-3.2l.7,2.2c-.81.08-1.47.7-1.6,1.5-.2.7,0,1.2.5,1.3s.8,0,1.7-1.5c.9-1.5,1.8-3,4-2.5,2,.5,2.7,2.3,2.2,4.5-.29,1.8-1.7,3.21-3.5,3.5v.1Z"/><path d="m307.74,189.98c-1.93-1.07-2.63-3.5-1.56-5.44s3.5-2.63,5.44-1.56c1.93,1.07,2.63,3.5,1.56,5.44-.01.02-.02.04-.04.06-1.09,1.89-3.49,2.56-5.4,1.5Zm2.8-5c-.85-.44-1.89-.11-2.33.74-.44.85-.11,1.89.74,2.33.82.43,1.83.13,2.3-.67.46-.86.14-1.92-.71-2.39,0,0-.02-.01-.03-.01h.04Z"/><path d="m312.44,182.08c-1.55-1.41-1.66-3.81-.25-5.35.08-.09.16-.17.25-.25.97-.97,2.36-1.38,3.7-1.1l-.5,2.2c-.59-.2-1.23,0-1.6.5-.62.7-.56,1.78.14,2.4.64.57,1.61.57,2.26,0,.45-.4.61-1.04.4-1.6l2.2-.6c.37,1.35-.01,2.8-1,3.8-1.41,1.55-3.81,1.66-5.35.25-.09-.08-.17-.16-.25-.25Z"/><path d="m330.04,174.68l-1.3-.5c-.51.83-1.29,1.46-2.2,1.8-2,.9-3.9.4-4.7-1.4-.51-1.11-.39-2.4.3-3.4-.47-.34-.84-.79-1.1-1.3-.68-1.59.06-3.43,1.65-4.11.08-.03.16-.07.25-.09,1.38-.63,3.01-.35,4.1.7l-1.4,1.9c-.39-.53-1.09-.74-1.7-.5-.49.15-.76.67-.61,1.16,0,.01,0,.02.01.04.2.5.7.7,1.4,1l2.6,1.2c.03-.57-.04-1.15-.2-1.7l2.3.2c.1.8.1,1.6,0,2.4l1.8.8-1.3,1.7.1.1Zm-3.2-1.4l-2.6-1.1h-.1c-.2.37-.2.83,0,1.2.3.6.9.9,1.9.5.32-.18.62-.38.9-.6h-.1Z"/><path d="m345.94,173.18h-2.44c0-.1.3-6.2.3-6.2l-2.9,4.3h-.3l-2.5-4.6-.3,6.1h-2.4c0-.1.5-10.6.5-10.6h2.4c0,.1,2.6,4.9,2.6,4.9l3.1-4.5h2.4c.04.1-.46,10.6-.46,10.6Z"/><path d="m351.04,173.28c.48.2,1.02.2,1.5,0l1.3,1.6c-1.07.7-2.43.82-3.6.3-2.06-.61-3.24-2.77-2.63-4.83.04-.12.08-.25.13-.37.69-2.01,2.87-3.07,4.88-2.38.07.03.15.05.22.08,1.97.73,2.97,2.91,2.25,4.88-.01.04-.03.08-.05.12-.07.29-.21.57-.4.8l-5-1.9c.02.77.55,1.42,1.3,1.6l.1.1Zm2.3-2.1c.06-.75-.39-1.45-1.1-1.7-.67-.33-1.48-.12-1.9.5l3,1.1v.1Z"/><path d="m365.94,179.88l-2.9,3.6-1.7-1.4,2.8-3.4c.5-.6.5-1.2,0-1.6s-1.2-.3-1.8.3l-2.7,3.3-1.7-1.4,2.8-3.4c.5-.6.5-1.2,0-1.6s-1.2-.3-1.8.3l-2.7,3.3-1.7-1.4,4.8-5.8,1.7,1.4-.4.5c.76-.16,1.54.06,2.1.6.63.46.98,1.22.9,2,.82-.18,1.67.05,2.3.6,1.21.98,1.39,2.76.41,3.97-.07.08-.14.16-.21.23l-.2-.1Z"/><path d="m366.24,181.88c1.88-1.16,4.34-.58,5.51,1.3,1.16,1.88.58,4.34-1.3,5.51-1.88,1.16-4.34.58-5.51-1.3,0,0,0,0,0,0-1.17-1.84-.62-4.28,1.22-5.45.03-.02.05-.03.08-.05Zm3,4.8c.82-.47,1.11-1.51.64-2.33-.01-.02-.03-.05-.04-.07-.46-.79-1.47-1.05-2.26-.59-.05.03-.1.06-.14.09-.82.47-1.11,1.51-.64,2.33.01.02.03.05.04.07.46.79,1.47,1.05,2.26.59.05-.03.1-.06.14-.09Z"/><path d="m376.14,193.08l-2.4.8c-.13-1.05-1.09-1.79-2.14-1.65-.09.01-.18.03-.26.05l-3.2,1.1-.7-2.1,7.1-2.5.7,2.1-1.3.4c.97.02,1.82.67,2.1,1.6l.1.2Z"/><path d="m377.44,202.38l-7.5-1.6c-2.5-.5-3.6-1.7-3.7-3.8l2.1-.3c-.03.87.63,1.62,1.5,1.7l6.7-3.9.3,2.5-4.3,2.2,4.7.8.3,2.4h-.1Z"/><path class="cls-1" d="m330.34,236.98h-10.5c-.85-.43-1.34-1.36-1.2-2.3v-26.8c0-.7.2-.9.9-1.1.5,0,.7-.4.7-.9v-3c.06-.44-.25-.84-.69-.9,0,0,0,0-.01,0-.8-.2-.9-.4-.9-1.1v-6.4c0-.74.29-1.46.8-2,2-1.9,3.9-3.9,5.9-5.9.53-.52,1.25-.81,2-.8h24.4v.2c.63.47.97,1.22.9,2-.6.2-.8.3-.8.9v6.5c0,.6.2.8.8.9v16.9c-.14-.46-.53-.81-1-.9h-26.3c-.8,0-1.2.4-1.2,1.3v16.2c-.11.67.34,1.29,1.01,1.4.13.02.26.02.39,0h26c.7,0,1.2-.2,1.4-.9v3.8c0,1,0,2-1,2.6h-5.44c-.2-.2-.5-.4-.6-.7-.19-.37-.58-.61-1-.6h-12.5c-.5,0-.9,0-1.1.5-.21.31-.48.59-.8.8l-.16.3Zm9.1-44.8v-3.2c0-.6-.3-.9-.8-.9s-.7.4-.7.9v6.5h0c0,.6.3.9.8.9.39,0,.71-.32.71-.71,0-.03,0-.06,0-.09v-3.3h0v-.1Zm4.7,0v-3.2c0-.6-.3-1-.8-1s-.8.4-.8,1v6.4c0,.6.3,1,.8,1s.8-.3.8-1v-3.1h0v-.1Zm4.7,0v-3.2c0-.6-.3-.9-.8-.9s-.8.4-.8,1v6.4c0,.6.3,1,.8,1s.8-.3.8-.9v-3.2h0v-.2Zm-18.8,0v-3.2c0-.6-.3-.9-.7-.9-.45,0-.81.38-.8.84,0,.02,0,.04,0,.06v6.4c0,.6.3.9.7.9s.8-.3.8-.9v-3.2Zm4.7,0v-3.2c0-.6-.3-1-.8-.9-.44.05-.75.45-.7.89,0,0,0,0,0,.01v6.4c0,.6.3.9.8.9s.7-.3.7-.9v-3.2Zm-11.4,2.1h0v1.3c-.01.38.28.69.66.7.01,0,.03,0,.04,0,.4-.02.73-.31.8-.7h0v-2.6c.02-.41-.29-.76-.7-.8h0c-.4,0-.7.3-.8.8v1.3Z"/><path class="cls-11" d="m351.84,185.88h4.8c.87-.01,1.59.69,1.6,1.56,0,.01,0,.03,0,.04v4.7c0,.3-.1.6-.5.6s-.6.3-.6.8v10.1c0,.4.1.7.5.8s.6.4.6.8v29.6c.09.91-.39,1.78-1.2,2.2h-5.2c.77-.63,1.15-1.62,1-2.6v-37.8c.5,0,.7-.4.7-1v-6.4c.06-.46-.24-.9-.7-1,.07-.78-.27-1.53-.9-2v-.2l-.1-.2Z"/><path class="cls-34" d="m324.14,229.28v-15.5c0-.9.4-1.3,1.2-1.3h22v15c0,1.6-.3,1.8-1.8,1.8h-21.4Z"/><path class="cls-44" d="m324.14,229.28h21.5c1.6,0,1.8-.3,1.8-1.8v-15h4.3c.52,0,.95.39,1,.9v17.1c-.2.7-.7.9-1.4.9h-26c-1,0-1.4-.4-1.4-1.4v-.7h.2Z"/><path class="cls-10" d="m352.84,188.08c.5.1.7.4.7,1v6.4c.06.46-.24.9-.7,1-.6-.1-.8-.3-.8-.9v-6.5c0-.6.2-.8.8-.9v-.1Z"/><path class="cls-10" d="m339.44,192.18v3.3c.05.39-.23.74-.61.79-.03,0-.06,0-.09,0-.41.03-.77-.27-.8-.67,0-.04,0-.08,0-.13h0v-6.6c-.05-.44.26-.84.7-.9.45,0,.81.38.8.84,0,.02,0,.04,0,.06v3.3Z"/><path class="cls-10" d="m344.14,192.28v3.1c0,.6-.3,1-.8,1s-.8-.3-.8-1v-6.4c0-.6.3-1,.8-1s.8.4.8,1v3.3h0Z"/><path class="cls-10" d="m348.84,192.28v3.2c0,.6-.3,1-.8.9s-.8-.3-.8-1v-6.4c0-.6.3-1,.8-1s.7.4.8.9v3.4h0Z"/><path class="cls-10" d="m330.04,192.28v3.2c0,.6-.3.9-.8.9s-.7-.3-.7-.9v-6.4c0-.6.3-1,.8-.9.44.05.75.45.7.89,0,0,0,0,0,.01v3.2Z"/><path class="cls-10" d="m334.74,192.28v3.2c0,.6-.3.9-.7.9s-.8-.3-.8-.9v-6.4c0-.6.3-.9.7-.9.45,0,.81.38.8.84,0,.02,0,.04,0,.06v3.2Z"/><path class="cls-20" d="m323.34,194.38v-1.3c-.03-.41.27-.77.67-.8.04,0,.08,0,.13,0,.44,0,.79.34.8.78,0,0,0,.01,0,.02h0v2.6c.01.38-.28.69-.66.7-.01,0-.03,0-.04,0h0c-.35.04-.66-.21-.7-.55,0-.05,0-.1,0-.15v-1.3h-.2,0Z"/><circle class="cls-14" cx="200.5" cy="201.88" r="45"/><path d="m185.4,174.18c1.73,2.29,1.28,5.54-1.01,7.27-.16.12-.32.23-.49.33-2.63,1.91-6.31,1.33-8.23-1.3-.02-.03-.05-.07-.07-.1-1.79-2.71-1.05-6.36,1.66-8.15,1.61-1.07,3.65-1.27,5.44-.55l-1.1,2.2c-1-.41-2.14-.26-3,.4-1.5.92-1.97,2.87-1.05,4.37.05.08.1.15.15.23.98,1.53,3.01,1.97,4.53.99.09-.06.18-.12.27-.19,1.09-.57,1.67-1.8,1.4-3l-2.5,1.7-1.2-1.9,4.7-3.1.5.8Z"/><path d="m190.3,172.38l.9,2.7c.2.7.8.5,1.8.2l.7,2.1c-2.9,1.3-4,.6-4.7-1.5l-.9-2.7-1.2.4-.7-2.2,1.2-.4-.5-1.4,2.1-1.4.7,2.1,1.6-.5.7,2.2-1.6.5-.1-.1Z"/><path d="m201.7,168.38l.6,8-2.4.2v-.8c-.59.71-1.47,1.12-2.4,1.1-2.34-.06-4.18-2-4.13-4.33.05-2.03,1.53-3.73,3.53-4.07.91-.09,1.81.2,2.5.8v-.8l2.3-.2v.1Zm-2.1,4.2c.04-.96-.7-1.77-1.66-1.82-.11,0-.23,0-.34.02-1.04.04-1.85.91-1.81,1.95,0,.05,0,.1.01.15-.04.96.7,1.77,1.66,1.82.11,0,.23,0,.34-.02,1.04-.04,1.85-.91,1.81-1.95,0-.05,0-.1-.01-.15h0Z"/><path d="m212.6,174.48c-.41,2.2-2.5,3.66-4.7,3.3-.89-.17-1.65-.72-2.1-1.5l-.2.7-2.3-.5,2.5-10.9,2.3.5-.9,3.9c.72-.54,1.65-.69,2.5-.4,2.14.63,3.38,2.85,2.8,5l.1-.1Zm-2.3-.5c.32-.9-.14-1.89-1.04-2.21-.12-.04-.24-.07-.36-.09-.99-.26-2.01.34-2.27,1.34-.01.05-.03.11-.03.16-.32.9.14,1.89,1.04,2.21.12.04.24.07.36.09.99.26,2.01-.34,2.27-1.34.01-.05.03-.11.03-.16Z"/><path d="m216.2,178.58l5.3-1c.78-.07,1.51-.39,2.1-.9.39-.52.29-1.26-.23-1.65-.02-.02-.04-.03-.07-.05-.59-.45-1.41-.45-2,0l-1-2.3c1.4-.85,3.18-.77,4.5.2,1.67,1.07,2.16,3.3,1.08,4.97-.03.04-.06.08-.08.13-.86,1.07-2.13,1.73-3.5,1.8l-2.6.4,3,2.2-1.4,2-6.2-4.5,1.1-1.5v.2Z"/><path class="cls-2" d="m182.8,238.88c0-.1-.2-.1-.2-.1-1.33-.44-2.22-1.7-2.2-3.1v-44.5c-.11-1.71,1.19-3.18,2.89-3.29.07,0,.14,0,.21,0h31.7c0,.2.2.2.3.2,1.16.5,1.9,1.64,1.9,2.9v3h-11.7c-.2,0-.4,0-.5.3-.5.5-1,1-1.6,1.5-1.79,1.7-4.61,1.7-6.4,0-.49-.44-.96-.91-1.4-1.4-.19-.24-.5-.36-.8-.3h-10.9c-.5,0-.6.1-.6.6v37.5c0,.5.2.6.6.6h33.4v3c.09,1.31-.68,2.52-1.9,3-.1,0-.3,0-.3.3h-32.5v-.2Zm14.6-3.9h-2.9c-.6,0-.9.3-.9.8s.3.8.9.8h5.8c.44.1.88-.18.98-.62.1-.44-.18-.88-.62-.98-.12-.03-.24-.03-.36,0h-2.9Zm3.1-44.1c-.81-.02-1.48.63-1.5,1.44,0,.02,0,.04,0,.06h0c0,.83.67,1.5,1.5,1.5.03,0,.07,0,.1,0,.82-.02,1.48-.68,1.5-1.5.02-.81-.63-1.48-1.44-1.5-.02,0-.04,0-.06,0h-.1Zm6.9,44.9c.02-.41-.29-.76-.7-.8-.44.09-.76.46-.8.9-.01.38.28.69.66.7.01,0,.03,0,.04,0,.43-.03.77-.37.8-.8h0Zm-3.8-.8c-.41.08-.72.39-.8.8.03.43.37.77.8.8.41-.08.72-.39.8-.8-.03-.43-.37-.77-.8-.8Z"/><rect class="cls-22" x="182.5" y="189.88" width="35" height="44" rx="2.8" ry="2.8"/><path class="cls-39" d="m215.3,238.88c0-.2.2-.2.3-.3,1.22-.48,1.99-1.69,1.9-3v-44.7c.05-1.27-.72-2.43-1.9-2.9-.1,0-.3,0-.3-.2h2.2c1.66,0,3,1.34,3,3v44c0,1.9-.6,3.4-2.5,4h-2.8l.1.1Z"/><path class="cls-27" d="m197.4,235.08h2.8c.49-.05.94.31,1,.8-.1.47-.52.81-1,.8h-5.8c-.6,0-.9-.3-.9-.8s.3-.8.9-.8h3Z"/><path class="cls-5" d="m207.4,235.78c.02.41-.29.76-.7.8h0c-.38.01-.69-.28-.7-.66,0-.01,0-.03,0-.04.05-.44.37-.8.8-.9.4-.1.7.4.7.8h-.1Z"/><path class="cls-5" d="m203.6,235.08c.4.1.7.4.8.8,0,.44-.36.8-.8.8s-.8-.36-.8-.8c.1-.4.4-.7.8-.8Z"/><g class="cls-7"><path class="cls-18" d="m202.2,207.38h-.6c-.4,0-.8-.2-1.2-.2-.51-.05-1.01-.15-1.5-.3l-1.7-.3h-.3c-.2,0-.3-.2-.2-.5.09-.29.23-.55.4-.8.2-.4.4-.9.6-1.3.11-.3.28-.57.5-.8.26-.39.78-.49,1.16-.24.09.06.17.14.24.24.16.14.3.31.4.5.3.41.57.85.8,1.3.5.7.9,1.4,1.4,2.2,0,.08.04.15.1.2,0,.2,0,.3-.3.3l.2-.3Z"/><path class="cls-18" d="m203.2,196.98h.2c.2,0,.3.1.2.3s-.1.2-.2.3c-.5.7-1,1.3-1.6,2s-1,1.2-1.5,1.7c-.21.31-.53.52-.9.6-.42.04-.85-.06-1.2-.3-.2-.17-.36-.38-.5-.6-.5-.7-.9-1.4-1.4-2.1-.22-.32-.42-.65-.6-1h0c-.1-.2,0-.4.2-.4.97-.02,1.94-.08,2.9-.2.84-.02,1.67-.08,2.5-.2.6.02,1.2-.02,1.8-.1h.1Z"/></g><path d="m194.2,221.18c1.09-.05,2.16.3,3,1,1.64,1.72,1.59,4.43-.1,6.1-.91.73-2.04,1.12-3.2,1.1-.98.07-1.96-.18-2.8-.7-.8-.48-1.4-1.22-1.7-2.1l2.7-1.6c.24.79.98,1.32,1.8,1.3.9,0,.8-.1,1-.3.23-.21.37-.49.4-.8.02-.32-.14-.62-.4-.8-.29-.22-.64-.32-1-.3h-3.9l.5-7.2h7.2v3h-4.3v1.3h.8Z"/><path d="m211.8,222.08v1.2c.04,1.63-.58,3.21-1.7,4.4-1.17,1.14-2.76,1.76-4.4,1.7-1.74.05-3.43-.6-4.7-1.8-2.4-2.52-2.4-6.48,0-9,1.18-1.22,2.8-1.91,4.5-1.9,1.09-.1,2.19.19,3.1.8.89.47,1.64,1.16,2.2,2l-2.7,1.5c-.24-.42-.64-.74-1.1-.9-.51-.2-1.05-.31-1.6-.3-1.71-.11-3.19,1.18-3.3,2.89,0,.14,0,.28,0,.41-.02.89.3,1.75.9,2.4.67.71,1.63,1.07,2.6,1,1.17.08,2.27-.55,2.8-1.6h-3v-2.7h6.2l.2-.1Z"/><circle class="cls-13" cx="200.5" cy="339.77" r="45"/><path d="m163.2,331.47l-.6,2.8,8.5,1.8-.5,2.5-8.5-1.8-.6,2.8-2.4-.5,1.7-8.1,2.4.5Z"/><path d="m167.8,323.37l7.2,3.5-1,2.2-.7-.3c.33.85.26,1.81-.2,2.6-.9,1.9-3.3,2.6-5.5,1.6-2.03-.86-2.99-3.21-2.12-5.24,0-.02.02-.04.02-.06.33-.83,1.03-1.46,1.9-1.7l-.7-.3,1-2.2.1-.1Zm2.6,3.9c-.91-.49-2.04-.15-2.53.76-.02.05-.05.09-.07.14-.48.95-.09,2.1.85,2.58.02,0,.03.02.05.02.91.49,2.04.15,2.53-.76.02-.05.05-.09.07-.14.48-.95.09-2.1-.85-2.58-.02,0-.03-.02-.05-.02h0Z"/><path d="m178.5,317.07c1.68,1.45,1.9,3.98.5,5.7-.56.69-1.41,1.09-2.3,1.1l.5.5-1.6,1.8-8.2-7.6,1.6-1.8,2.9,2.7c-.02-.89.3-1.75.9-2.4,1.6-1.5,4.1-1.5,5.7,0Zm-1.6,1.8c-.74-.75-1.94-.75-2.69-.01,0,0,0,0-.01.01-.72.7-.74,1.85-.04,2.57.04.04.09.09.14.13.74.75,1.94.75,2.69.01,0,0,0,0,.01-.01.72-.7.73-1.86.03-2.57-.04-.04-.08-.08-.13-.12h0Z"/><path d="m175.6,309.97l2-1.4,6.7,9.6-2,1.4-6.7-9.6Z"/><path d="m188.1,313.97c.54-.23.97-.66,1.2-1.2l2.2.3c-.33,1.34-1.31,2.42-2.6,2.9-2.02,1.04-4.51.25-5.55-1.77-.05-.11-.1-.21-.15-.33-.94-2.15.04-4.66,2.19-5.6,0,0,0,0,0,0,2.02-.9,4.38,0,5.29,2.02.04.09.08.19.11.28l.3.9-5.2,2.2c.61.54,1.47.65,2.2.3Zm.2-3.3c-.47-.68-1.37-.89-2.1-.5-.77.3-1.23,1.09-1.1,1.9l3.2-1.4Z"/><path d="m195,308.07l.5,2.8c.1.7.7.6,1.7.4l.4,2.1c-3,.9-4.1.1-4.5-2.1l-.5-2.8-1.3.2-.4-2.3,1.3-.2-.3-1.5,2.2-1.1.4,2.2,1.6-.3.4,2.3-1.6.3h.1Z"/><path d="m198.6,307.37l6.1.2v2.31l-6.1-.2v-2.31Z"/><path d="m215.1,312.27c-.53,2.14-2.71,3.45-4.85,2.91-.02,0-.03,0-.05-.01-.87-.21-1.61-.79-2-1.6l-.2.7-2.3-.7,3.3-10.7,2.3.7-1.2,3.8c.8-.43,1.74-.5,2.6-.2,2.08.74,3.17,3.02,2.43,5.11-.01.03-.02.06-.03.09v-.1Zm-2.3-.7c.37-.92-.07-1.96-.99-2.33-.07-.03-.14-.05-.21-.07-.99-.32-2.05.22-2.37,1.2-.01.03-.02.06-.03.1-.37.92.07,1.96.99,2.33.07.03.14.05.21.07.99.32,2.05-.22,2.37-1.2.01-.03.02-.06.03-.1Z"/><path d="m216.3,312.88c1.28-1.93,3.89-2.45,5.81-1.16.03.02.06.04.09.06,1.91,1.22,2.47,3.76,1.25,5.68-.05.08-.1.15-.15.22-1.28,1.93-3.89,2.45-5.81,1.16-.03-.02-.06-.04-.09-.06-1.91-1.22-2.47-3.76-1.25-5.68.05-.08.1-.15.15-.22Zm5,3.4c.58-.86.36-2.02-.5-2.6-.86-.58-2.02-.36-2.6.5-.6.75-.48,1.85.27,2.45.07.06.15.11.23.15.83.58,1.97.39,2.55-.44.02-.02.03-.05.05-.07h0Z"/><path d="m235.4,320.67l-8.7,7.1-1.5-1.9.6-.5c-.91-.04-1.75-.48-2.3-1.2-1.3-1.79-.9-4.29.88-5.59,0,0,.01,0,.02-.01,1.66-1.48,4.2-1.34,5.7.3.64.66.9,1.6.7,2.5l3.1-2.5,1.5,1.9v-.1Zm-7.1,2.7c.82-.6,1-1.75.4-2.57-.03-.04-.07-.09-.1-.13-.56-.79-1.65-.98-2.44-.43-.09.07-.18.14-.26.23-.82.6-1,1.75-.4,2.57.03.04.07.09.1.13.56.79,1.65.98,2.44.43.09-.07.18-.14.26-.23h0Z"/><path d="m237.5,332.47l-8.2.6c-2.7.2-4.2-.7-5-2.8l2.1-.9c.22.89,1.1,1.46,2,1.3l5.8-5.9,1,2.4-3.8,3.6,5.1-.6,1,2.4v-.1Z"/><path d="m241.8,338.37l-11,2-.5-2.5,8.4-1.5-.9-1.9,2-1,1.6,2.7.4,2.2Z"/><path class="cls-26" d="m200.5,327.17h12.4c1.92-.07,3.53,1.44,3.6,3.36,0,.01,0,.03,0,.04v34.4c.09,1.38-.66,2.68-1.9,3.3-.3.2-.7.2-1,.4h-13.1v-2.4h12.2c.9,0,1.3-.4,1.3-1.2v-34.3c0-.9-.4-1.2-1.3-1.2h-12.2v-2.4Z"/><path class="cls-38" d="m200.5,366.07v2.4h-13.2c-.1-.2-.4-.2-.5-.2-1.31-.47-2.18-1.71-2.2-3.1v-34.4c-.12-1.42.69-2.75,2-3.3.37-.19.78-.3,1.2-.3h12.7v2.4h-12.2c-.9,0-1.3.3-1.3,1.3v34c0,.9.3,1.3,1.3,1.3h12.2v-.1Z"/><path class="cls-17" d="m200.5,329.57h12.2c.9,0,1.3.4,1.3,1.2v34c0,.9-.4,1.2-1.3,1.2h-12.2v-2.5h3.5c.5,0,1.1-.4,1.1-.9.19-.67-.2-1.37-.87-1.56-.14-.04-.29-.05-.43-.04h-3.3v-9.8c.7-.03,1.24-.63,1.21-1.33,0-.02,0-.05,0-.07v-4.1c.07-.7-.43-1.32-1.13-1.39-.02,0-.05,0-.07,0v-9.8h1.7c.64.02,1.18-.48,1.2-1.12,0-.03,0-.05,0-.08h0c.02-.64-.48-1.18-1.12-1.2-.03,0-.05,0-.08,0h-1.7v-2.5h0Zm5.9,18.3v-3.8c.01-.47-.21-.92-.6-1.2-.54-.35-1.27-.2-1.62.35-.14.22-.21.49-.18.75v7.5c-.06.51.17,1.01.6,1.3.58.33,1.32.13,1.65-.45.13-.23.18-.49.15-.75v-3.69h0Zm4.7,0v-1c.02-.64-.48-1.18-1.12-1.2-.03,0-.05,0-.08,0h0c-.62-.04-1.16.43-1.2,1.06,0,.01,0,.03,0,.04v2.11c0,.61.49,1.11,1.1,1.12.07,0,.13,0,.2-.02.62-.05,1.1-.57,1.1-1.2v-1h0v.09Z"/><path class="cls-6" d="m200.5,329.57v2.5h-1.6c-.65-.07-1.23.41-1.29,1.05,0,.05,0,.1,0,.15.02.68.59,1.22,1.28,1.2,0,0,.01,0,.02,0h1.6v9.8h0c-.8,0-1.2.7-1.2,1.5v3.9c-.08.74.46,1.41,1.2,1.5h0v9.9h-3.3c-.65-.07-1.23.41-1.29,1.05,0,.05,0,.1,0,.15.02.68.59,1.22,1.28,1.2,0,0,.01,0,.02,0h3.3v2.5h-12.2c-.9,0-1.3-.3-1.3-1.3v-33.79c0-.9.3-1.3,1.3-1.3h12.2Zm-3.6,18.2v-5.89c-.24-.49-.75-.8-1.3-.8-.58.1-1.01.61-1,1.2v10.9c-.02.64.48,1.18,1.12,1.2.03,0,.05,0,.08,0h0c.61,0,1.11-.49,1.12-1.1,0-.07,0-.13-.02-.2v-5.3h0Zm-4.7,0v-2.2c0-.66-.53-1.2-1.2-1.2-.66,0-1.2.53-1.2,1.2h0v4.32c0,.66.53,1.2,1.2,1.2.66,0,1.2-.53,1.2-1.2h0v-2.12Z"/><path class="cls-29" d="m206.4,347.88v3.8c.08.66-.39,1.27-1.05,1.35-.26.03-.52-.02-.75-.15-.43-.29-.66-.79-.6-1.3v-7.5c0-1.1,1-1.7,1.8-1.1.39.28.61.73.6,1.2v3.7Z"/><path class="cls-41" d="m200.5,361.17h3.3c.69-.05,1.3.48,1.34,1.17.01.15,0,.29-.04.43,0,.4-.6.8-1.1.9h-3.5v-2.4h0v-.1Z"/><path class="cls-19" d="m211.1,347.88v1c-.01.66-.54,1.19-1.2,1.2-.61-.03-1.11-.49-1.2-1.1v-2.1c.02-.62.53-1.12,1.16-1.1.01,0,.03,0,.04,0,.64-.02,1.18.48,1.2,1.12,0,.03,0,.05,0,.08h0v.9Z"/><path class="cls-9" d="m200.5,344.37c.7.03,1.24.63,1.21,1.33,0,.02,0,.05,0,.07v4.11c.07.7-.43,1.32-1.13,1.39-.02,0-.05,0-.07,0h0v-6.9h0Z"/><path class="cls-41" d="m200.5,332.07h1.7c.6-.06,1.14.39,1.2.99,0,.07,0,.14,0,.21.02.64-.48,1.18-1.12,1.2-.03,0-.05,0-.08,0h-1.7v-2.4h0Z"/><path class="cls-37" d="m196.9,347.77v5.4c.04.66-.44,1.23-1.1,1.3-.68,0-1.25-.52-1.3-1.2h0v-10.9c0-.59.42-1.1,1-1.2.57-.07,1.11.26,1.3.8v5.91l.1-.11Z"/><path class="cls-37" d="m192.2,347.88v2.1c0,.66-.53,1.2-1.2,1.2-.66,0-1.2-.53-1.2-1.2h0v-4.31c0-.66.53-1.2,1.2-1.2.66,0,1.2.53,1.2,1.2h0v2.21Z"/><path class="cls-23" d="m200.5,361.17v2.4h-3.3c-.65.07-1.23-.41-1.29-1.05,0-.05,0-.1,0-.15.02-.68.59-1.22,1.28-1.2,0,0,.01,0,.02,0h3.3Z"/><path class="cls-28" d="m200.5,344.37v6.9c-.8,0-1.2-.7-1.2-1.5v-3.89c-.08-.75.45-1.42,1.2-1.51Z"/><path class="cls-25" d="m200.5,332.07v2.4h-1.6c-.66,0-1.2-.53-1.2-1.2,0-.66.53-1.2,1.2-1.2h1.61Z"/><path d="m198.8,334.47h5.7v25.9h-6.6v-18.9l-4.5,1.1-1.6-5.6,7-2.5Z"/><circle class="cls-13" cx="200" cy="60.23" r="45"/><path d="m169.9,57.13v2c-.1,0-5.1-.3-5.1-.3l3.5,2.4v.2l-3.8,2,5,.3v2c-.1,0-8.7-.5-8.7-.5v-2c.1,0,4.1-2.1,4.1-2.1l-3.7-2.5v-2c.1,0,8.7.5,8.7.5Z"/><path d="m169.9,52.83c.2-.5.1-.9,0-1.3l1.3-1.1c.6.8.7,1.8.3,2.9-.7,2-2.4,2.8-4.2,2.2-1.7-.6-2.6-2.3-2-4.1.6-1.7,2.3-2.5,4.1-1.9.2,0,.5.2.7.3l-1.4,4.1c.7,0,1.1-.5,1.3-1.1h-.1Zm-1.8-1.8c-.7,0-1.2.4-1.3.9-.2.7,0,1.2.5,1.6l.8-2.5Z"/><path d="m168.5,40.23l7.3,4.5-1,1.6-.5-.3c.2.6.1,1.2-.3,1.9-.8,1.4-2.7,1.8-4.3.8-1.6-1-2.1-2.8-1.2-4.2.4-.7,1-1.1,1.6-1.2l-2.6-1.6,1-1.6v.1Zm3.7,4.5c-.8-.5-1.6-.3-2,.5-.4.7-.3,1.5.5,2s1.6.3,2-.5.3-1.5-.5-2Z"/><path d="m170.6,39.03c-.5-.4-.5-1.1-.1-1.6s1.1-.5,1.6-.1.5,1.1.1,1.6-1.1.5-1.6.1Zm1.4.9l1.2-1.4,4.6,4-1.2,1.4-4.6-4Z"/><path d="m179.3,33.03l3.9,4.7-1.4,1.2-.4-.4c0,.6-.3,1.2-.9,1.7-1.2,1-3.2.8-4.3-.6-1.1-1.4-1-3.3.2-4.4.6-.5,1.3-.7,1.9-.6l-.4-.4,1.4-1.2Zm.5,3.5c-.6-.7-1.4-.8-2.1-.2-.7.5-.8,1.4-.2,2.1.6.7,1.4.8,2.1.2.7-.5.8-1.4.2-2.1Z"/><path d="m182,33.23l4.1-2.1.8,1.6-4.1,2.1-.8-1.6Z"/><path d="m197.5,32.73l-1.9.4-1.1-4.9-1.4,4h-.2l-3-3,1.1,4.9-1.9.4-1.9-8.4,1.9-.4,3.1,3.2,1.4-4.2,1.9-.4,1.9,8.4h.1Z"/><path d="m204.4,26.93l-.3,6.1h-1.8v-.7c-.3.4-1,.7-1.8.7-1.2,0-2.3-1-2.2-2.6l.2-3.8h1.8l-.1,3.6c0,.8.4,1.1,1,1.2.7,0,1.2-.3,1.2-1.2v-3.3c.1,0,2,0,2,0Z"/><path d="m207,24.53l1.8.4-1.8,8.8-1.8-.4,1.8-8.8Z"/><path d="m211.7,30.53l-.7,2.1c-.2.5.2.7,1,.9l-.5,1.6c-2.4-.5-2.8-1.4-2.2-3.1l.7-2.1-.9-.3.6-1.7.9.3.4-1.1h1.9l-.5,1.7,1.2.4-.6,1.7-1.2-.4h-.1Z"/><path d="m214.9,29.93l1.7.8-2.6,5.5-1.7-.8,2.6-5.5Zm.5-1.6c.3-.5.9-.8,1.5-.5.5.3.8.9.5,1.5-.3.5-.9.8-1.5.5-.5-.3-.8-.9-.5-1.5Z"/><path d="m219,35.63c1.2-1.4,3.1-1.6,4.6-.4.9.8,1.3,1.9,1.1,3l-1.8-.3c.1-.5,0-.9-.5-1.3-.6-.5-1.4-.4-2,.2-.5.7-.5,1.5.2,2,.4.3.9.4,1.4.2l.7,1.7c-1,.4-2.2.2-3.1-.5-1.4-1.2-1.6-3.2-.4-4.6h-.2Z"/><path d="m230.6,43.13l-4.8,3.8-1.1-1.4.5-.4c-.6,0-1.2-.3-1.7-1-1-1.3-.7-3.2.7-4.3,1.4-1.1,3.4-1,4.4.3.5.6.7,1.3.5,1.9l.5-.4,1.1,1.4-.1.1Zm-3.5.5c.7-.6.8-1.4.3-2.1-.5-.7-1.4-.8-2.1-.2-.7.6-.8,1.4-.3,2.1s1.4.8,2.1.2Z"/><path d="m233.3,54.63l-3.5,1.4-.7-1.7,3.3-1.4c.6-.2.8-.7.6-1.2-.2-.6-.8-.7-1.4-.4l-3.2,1.3-.7-1.7,3.3-1.4c.6-.2.8-.7.6-1.2-.2-.6-.8-.7-1.4-.4l-3.2,1.3-.7-1.7,5.7-2.3.7,1.7-.5.2c.5.1,1,.5,1.3,1.2s.2,1.3-.1,1.8c.6.1,1.1.5,1.4,1.3.5,1.3,0,2.5-1.5,3.1v.1Z"/><path d="m231.6,59.73c0,.5.3.9.6,1.1l-.7,1.6c-.9-.5-1.4-1.3-1.6-2.5-.2-2.1,1-3.5,2.8-3.8,1.8-.2,3.4.9,3.6,2.9.2,1.8-1,3.3-2.8,3.5h-.7l-.5-4.3c-.6.3-.8.9-.7,1.6v-.1Zm2.3.9c.7-.3.9-.9.8-1.4,0-.7-.5-1.1-1.1-1.2l.3,2.6Z"/><path d="m236.4,67.53h-2.1c.2-.9,0-2-1.3-2l-2.8-.2v-1.8c.1,0,6.2.4,6.2.4v1.8h-1.2c.8.3,1.1,1.1,1.1,1.9l.1-.1Z"/><path d="m234.6,75.13l-5.9-1.5.4-1.8h.6c-.4-.4-.5-1-.3-1.8.4-1.6,2.1-2.5,3.8-2.1,1.8.4,2.8,2.1,2.4,3.6-.2.8-.6,1.3-1.2,1.6h.6c0,.1-.4,1.9-.4,1.9v.1Zm-2.5-2.5c.9.2,1.6-.2,1.8-1.1.2-.8-.2-1.6-1.1-1.8-.9-.2-1.6.2-1.8,1.1-.2.8.2,1.6,1.1,1.8Z"/><path class="cls-35" d="m208.5,92.43h-18.1c-.4-1.5-1.2-2.8-2.2-3.9-.3-.3-.3-.4,0-.7,1.3-1.3,2.6-2.5,3.8-3.8,1.2-1.2,1.5-2.9.9-4.4.1-.6,0-1.3,0-1.9-.6-2.3-2.9-3.7-5.1-3.1-.8.2-1.4.6-2,1.1-2.3,2.2-4.5,4.5-6.8,6.8-.4.4-.9.9-1.4,1.3v-35.1c0-1.5.9-2.9,2.3-3.4.4-.1.8-.2,1.3-.2h35.8c2.2,0,3.6,1.4,3.6,3.6v26.5h-8.4c-1.4,0-2.8.8-3.3,2.1-.7,1.6,0,3.6,1.4,4.2h.1c.2.5.6.4.8.7-1.8.4-3,2.2-2.5,4.1.2.9.8,1.7,1.6,2.2h0c.2.4.6.4.8.6-1.6.4-2.6,1.8-2.6,3.4v-.1Zm-6-32.6v-8.5c0-1-.7-1.9-1.7-1.9h-17c-1.3,0-2.1.7-2.1,2v16.7c0,1,.7,1.8,1.7,1.9h17.2c.9,0,1.7-.6,1.8-1.5v-8.8l.1.1Zm7.7-5.2h3.1q1.3,0,1.3-1.3c0-.4-.1-.5-.5-.5h-6.9q-1.3,0-1.3,1.3c0,1.3.1.5.5.4h3.8v.1Zm3.1-5.2h-2.7q-1.2,0-1.2,1.3c0,.4.2.5.5.5h5.9q1.3,0,1.3-1.4c0-.3-.1-.4-.4-.4h-3.4,0Zm-7.4.8c0,1-.2.9.8.9.6,0,.9-.3.9-.9q0-.9-.9-.9c-.9,0-.8,0-.8.8v.1Z"/><path class="cls-21" d="m177.6,83.83c.5-.4.9-.9,1.4-1.3,2.3-2.3,4.5-4.5,6.8-6.8,1.6-1.7,4.3-1.7,6,0,.6.5.9,1.2,1.1,2,.1.6.2,1.3,0,1.9-.3.9-.8,1.8-1.5,2.5-2,1.9-3.9,3.9-5.8,5.8-.3.3-.3.4,0,.7,1,1.1,1.8,2.5,2.2,3.9h-13.2c-.2,0-.4,0-.4-.2,0-1.3-.1-2.5.2-3.7.3-1.2.9-2.3,1.7-3.1l1.5-1.5v-.2Z"/><path class="cls-12" d="m210.2,81.63c-1.4-.6-2.1-2.7-1.4-4.2.5-1.3,1.9-2.2,3.3-2.1h8.4c1.9.2,3,1.1,3.4,2.8-.2,0-.2.1-.2.2-.4.9-1.1,1.6-2,1.9-.6.2-1.2.3-1.8.3h-8.4c-1,0-1.2,0-1.3,1.1Z"/><path class="cls-21" d="m210.2,88.53c-1.6-.9-2.2-3-1.3-4.6.5-.8,1.3-1.4,2.2-1.6.4,0,.7-.1,1.1-.2h8.8c.7.2,1.4.6,1.9,1,.5.5.8,1.1,1,1.8,0,0-.2.1-.2.2-.7,1.7-2.1,2.2-3.7,2.2h-8.6c-1,0-1.2.2-1.2,1.2Z"/><path class="cls-21" d="m208.5,92.43c0-1.6,1.1-3,2.6-3.3.2,0,.5,0,.7-.1,3.1,0,6.3.1,9.4,0,0,.2.2.2.3.2,1.2.4,2.1,1.3,2.4,2.6.2.7,0,.8-.6.8h-14.8v-.2Z"/><path class="cls-43" d="m187.8,92.43c-.4-1.5-1.1-2.8-2.2-3.9-.3-.3-.3-.4,0-.7,2-1.9,3.9-3.9,5.8-5.8.7-.7,1.2-1.5,1.5-2.5.6,1.5.3,3.3-.9,4.4-1.3,1.3-2.6,2.6-3.8,3.8-.3.3-.3.4,0,.7,1,1.1,1.8,2.5,2.2,3.9h-2.6v.1Z"/><path class="cls-3" d="m221.2,88.93c-3.1.2-6.3,0-9.4,0-.2,0-.5,0-.7.1-.3-.2-.6-.2-.8-.5h0c0-1.1.2-1.3,1.2-1.3h8.6c1.7,0,3-.5,3.7-2.2,0,0,.1-.2.2-.2.2,2-.7,3.4-2.4,4h-.3l-.1.1Z"/><path class="cls-3" d="m221,82.13h-8.8c-.4,0-.7,0-1.1.2-.2-.2-.6-.2-.8-.6h-.1c.1-1.1.2-1.3,1.3-1.3h8.4c.6,0,1.2,0,1.8-.3.9-.3,1.6-1,2-1.9,0-.1,0-.2.2-.2.4,1.8-.7,3.5-2.5,4h-.4v.1Z"/><path class="cls-24" d="m202.5,59.83v8.5c0,.9-.6,1.7-1.5,1.8h-17.2c-1,0-1.8-.7-1.9-1.7v-17c0-1.3.7-2,2.1-2h16.7c1,0,1.9.6,1.9,1.6v8.8h-.1Zm-11.2,4.3c0-1.9-1.5-3.4-3.4-3.4s-3.4,1.5-3.4,3.4,1.5,3.4,3.4,3.4h0c1.9,0,3.4-1.5,3.4-3.4Zm0-8.6c0-1.9-1.5-3.4-3.4-3.4s-3.4,1.5-3.4,3.4,1.5,3.4,3.4,3.4,3.4-1.5,3.5-3.3h0l-.1-.1Zm5.1,3.4c1.9,0,3.4-1.5,3.4-3.4s-1.5-3.4-3.4-3.4-3.4,1.5-3.4,3.4h0c0,1.9,1.5,3.4,3.4,3.4h0Zm2.6,5.2v-1.6c0-.5-.3-.9-.7-1h-3.5c-.4,0-.9.3-.9.7v3.5c0,.5.3.9.8.9h3.5c.5,0,.9-.3.9-.8v-1.7h-.1Z"/><path class="cls-30" d="m210.2,54.63h-3.8c-.3,0-.5,0-.5-.4,0-.87.43-1.3,1.3-1.3h6.9c.4,0,.5,0,.5.5,0,.87-.43,1.3-1.3,1.3h-3.1v-.1Z"/><path class="cls-33" d="m213.2,49.43h3.4c.3,0,.4,0,.4.4q0,1.4-1.3,1.4h-5.9c-.4,0-.5,0-.5-.5,0-.87.4-1.3,1.2-1.3h2.7Z"/><path class="cls-33" d="m205.9,50.33c0-.53.27-.8.8-.8s.83.3.9.9q0,.9-.9.9c-1,0-.8,0-.8-.9v-.1Z"/><path class="cls-12" d="m210.2,81.63h.1c0,.1-.1,0-.1,0Z"/><path class="cls-31" d="m191.3,64.13c0,1.9-1.6,3.4-3.5,3.4s-3.4-1.6-3.4-3.5,1.6-3.4,3.4-3.4c1.9,0,3.4,1.6,3.4,3.5h.1Zm-5.1-.5v.4c0,.8.5,1.4,1.2,1.7.9.3,1.9-.2,2.2-1.1.2-.5,0-1.1-.2-1.5-.4-.5-1.1-.8-1.7-.6-1.1,0-1.4.3-1.4,1.2h0l-.1-.1Z"/><path class="cls-31" d="m191.3,55.53c0,1.9-1.5,3.4-3.4,3.4s-3.4-1.5-3.4-3.4,1.5-3.4,3.4-3.4h0c1.9,0,3.4,1.5,3.4,3.4h0Zm-5-.3c-.2.6,0,1.3.6,1.7s1.4.4,2,0c.5-.4.8-1,.7-1.7-.1-.9-.9-1.5-1.8-1.4h-.2c-.5-.2-1.1,0-1.3.6v.7h0v.1Z"/><path class="cls-31" d="m196.4,58.93c-1.9,0-3.4-1.6-3.4-3.5s1.6-3.4,3.5-3.4,3.4,1.6,3.4,3.4c0,1.9-1.6,3.4-3.5,3.4v.1Zm-1.6-3.7c-.3.4,0,.8.2,1.2.4.6,1.1,1,1.8.8.7-.1,1.2-.7,1.3-1.3.2-.8-.2-1.5-.9-1.9-.4-.2-.8-.3-1.3-.2-.9,0-1.4.6-1.2,1.4h.1Z"/><path class="cls-4" d="m199,64.13v1.7c0,.5-.3.9-.8.9h-3.4c-.5,0-.9-.3-.9-.8v-3.5c0-.4.3-.9.7-.9h3.5c.5,0,.9.3.9.8v.2c0,.5,0,1.1,0,1.6Zm-3-.4h1.6c.3,0,.5-.1.5-.5s-.3-.3-.5-.3h-1.3c0-.3-.3-.4-.5-.5-.4,0-.8.3-1,.7-.2.2-.1.6.1.8.4.3.7.1,1-.1h0l.1-.1Zm.4,1.7h1.3c.2,0,.4-.2.4-.4h0c0-.3-.2-.4-.4-.4h-2.5c-.2,0-.4.1-.4.3h0c0,.2.2.4.4.4h1.3l-.1.1Z"/><path class="cls-42" d="m187.5,62.43c.6-.2,1.3,0,1.7.6.6.8.4,1.9-.4,2.4-.4.3-1,.4-1.5.2-.7-.3-1.2-.9-1.2-1.7v-.4c.2.3.5.4.9.3,0,.8.5,1.2,1.1,1,.4-.2.7-.6.5-1.1-.1-.4-.6-.7-1-.6,0-.3,0-.6-.1-.8v.1Z"/><path class="cls-36" d="m187.5,62.43c.2.2.2.5.1.8-.1.3-.4.5-.6.7-.3,0-.7,0-.9-.3,0-.9.3-1.2,1.4-1.2Z"/><path class="cls-42" d="m187.6,53.93c.9-.2,1.7.3,2,1.2v.2c.1.6-.2,1.3-.7,1.7-.6.4-1.4.4-2,0-.5-.4-.8-1.1-.6-1.7.2.2.5.2.8.1,0,.8.5,1.2,1.1,1,.4-.1.6-.5.6-.9,0-.5-.4-.7-1.1-.7.1-.3,0-.6-.1-.8v-.1Z"/><path class="cls-36" d="m187.1,55.33c-.3.1-.6,0-.8-.1-.2-.5,0-1.1.6-1.3h.7c.2.2.2.5.1.8-.2.2-.4.5-.6.6Z"/><path class="cls-42" d="m196,53.83c.4,0,.9,0,1.3.2.7.4,1,1.1.9,1.9-.2.6-.7,1.1-1.3,1.3-.7.1-1.4-.2-1.8-.8-.2-.4-.4-.7-.2-1.2.2.1.5.2.8.2,0,.4.1.8.6.9.4.1.9,0,1-.4.3-.6-.1-1.1-1-1.2,0-.3,0-.7-.3-.9Z"/><path class="cls-36" d="m196,53.83c.3.2.4.6.3.9-.2.3-.4.5-.7.7-.3,0-.5,0-.8-.2-.3-.8.3-1.4,1.2-1.4Z"/><path class="cls-32" d="m196.4,65.33h-1.3c-.2,0-.4-.1-.4-.3h0c0-.2.1-.4.3-.4h2.5c.2,0,.4,0,.4.4,0,.2-.1.4-.4.4h-1.3l.2-.1Z"/><path class="cls-8" d="m196,63.63h0c-.3.2-.6.4-1,.1-.2-.2-.3-.5-.1-.8.2-.4.5-.7,1-.7.3,0,.5.2.5.5s0,.6-.3.8l-.1.1Z"/><path class="cls-32" d="m196,63.63c.2-.2.3-.5.3-.8h1.3c.2,0,.5,0,.5.3s-.2.5-.5.5h-1.6Z"/><path class="cls-31" d="m187,63.93c.2-.2.5-.4.6-.7.4-.1.9.1,1,.6.2.4,0,.9-.5,1.1-.6.2-1.1-.2-1.1-1Z"/><path class="cls-31" d="m187.1,55.33l.6-.6c.6,0,1,.2,1.1.7,0,.4-.2.8-.6.9-.6.2-1.1-.3-1.1-1Z"/><path class="cls-31" d="m195.6,55.33c.3-.2.5-.4.7-.7.8,0,1.2.5,1,1.2-.2.4-.6.6-1,.4-.5,0-.6-.5-.6-.9h-.1Z"/></svg>