<?xml version="1.0" encoding="UTF-8"?><svg id="Layer_1" xmlns="http://www.w3.org/2000/svg" viewBox="0 0 400 400"><defs><style>.cls-1{fill:#fe6d3a;}.cls-2{stroke:#a5262d;}.cls-2,.cls-3,.cls-4{stroke-width:4px;}.cls-2,.cls-3,.cls-4,.cls-5{fill:none;stroke-miterlimit:10;}.cls-3{stroke:#000;}.cls-6{fill:#f0ca6f;}.cls-7{fill:#fafdfc;}.cls-8{fill:#fff;}.cls-9{fill:#a7b4b9;}.cls-10{fill:#fcfdfd;}.cls-4{stroke:#0018c6;}.cls-11{fill:#e2bb64;}.cls-12{fill:#fe901f;}.cls-13{fill:#546e7a;}.cls-14{fill:#f9fdfc;}.cls-15{fill:#222;}.cls-16{fill:#bbc3c6;}.cls-17{fill:#386079;}.cls-18{fill:#444b66;}.cls-19{fill:#efc319;}.cls-20{fill:#f8d77c;}.cls-21{fill:#feb024;}.cls-22{fill:#ffed58;}.cls-23{fill:#424240;}.cls-5{stroke:#231f20;stroke-width:2px;}.cls-24{fill:#36464e;}.cls-25{fill:#c6ecf9;}.cls-26{fill:#fbbd41;}.cls-27{fill:#3d435c;}.cls-28{fill:#01b6a0;}.cls-29{fill:#26b899;}.cls-30{fill:#faf8fa;}.cls-31{fill:#fe6e3c;}.cls-32{fill:#212121;}.cls-33{fill:#2e5872;}.cls-34{fill:#efc31a;}.cls-35{fill:#788f9b;}.cls-36{fill:#b09146;}.cls-37{fill:#204958;}.cls-38{fill:#c6ecfa;}.cls-39{fill:#94a4a4;}.cls-40{fill:#f0f3f2;}.cls-41{fill:#3e657d;}.cls-42{fill:#454c67;}.cls-43{fill:#c6d8de;}.cls-44{fill:#c4d8dd;}.cls-45{fill:#fbd734;}.cls-46{fill:#cad9df;}.cls-47{fill:#231f20;}.cls-48{fill:#c7d9de;}.cls-49{fill:#c5d8de;}.cls-50{fill:#fbf9fa;}.cls-51{fill:#28b99a;}.cls-52{fill:#fe901e;}.cls-53{fill:#6e6b87;}</style></defs><line class="cls-8" x1="257.48" y1="138.23" x2="235.37" y2="162.44"/><line class="cls-5" x1="257.48" y1="138.23" x2="242.63" y2="154.49"/><polygon class="cls-47" points="238.58 147.83 235.37 162.44 249.63 157.92 238.58 147.83"/><line class="cls-8" x1="144.37" y1="138.23" x2="166.48" y2="162.44"/><line class="cls-5" x1="144.37" y1="138.23" x2="159.22" y2="154.49"/><polygon class="cls-47" points="152.22 157.92 166.48 162.44 163.27 147.83 152.22 157.92"/><line class="cls-8" x1="170.48" y1="246.73" x2="148.37" y2="270.94"/><line class="cls-5" x1="170.48" y1="246.73" x2="155.63" y2="262.99"/><polygon class="cls-47" points="151.58 256.33 148.37 270.94 162.63 266.42 151.58 256.33"/><line class="cls-8" x1="231.37" y1="246.73" x2="253.48" y2="270.94"/><line class="cls-5" x1="231.37" y1="246.73" x2="246.22" y2="262.99"/><polygon class="cls-47" points="239.22 266.42 253.48 270.94 250.27 256.33 239.22 266.42"/><line class="cls-8" x1="283.31" y1="203.82" x2="250.54" y2="204.32"/><line class="cls-5" x1="283.31" y1="203.82" x2="261.3" y2="204.16"/><polygon class="cls-47" points="263.37 196.64 250.54 204.32 263.6 211.6 263.37 196.64"/><line class="cls-8" x1="116.54" y1="203.82" x2="149.31" y2="204.32"/><line class="cls-5" x1="116.54" y1="203.82" x2="138.55" y2="204.16"/><polygon class="cls-47" points="136.25 211.6 149.31 204.32 136.48 196.64 136.25 211.6"/><circle class="cls-4" cx="66.73" cy="204.07" r="45"/><path class="cls-21" d="m52.83,211.07v-19.6c0-1.5.3-1.9,1.7-2.5h.2c.1.2.3,0,.5,0h19.3c1.07.11,1.86,1.03,1.8,2.1v44.7c.06.96-.5,1.85-1.4,2.2h-19.7c-1.22.11-2.29-.79-2.4-2-.01-.13-.01-.27,0-.4v-24.5Zm16.2,20.6h3.4c.57,0,1.05-.43,1.1-1v-34.5c-.08-.56-.54-.98-1.1-1h-12.1c-.64-.02-1.18.48-1.2,1.12,0,.03,0,.05,0,.08v34.1c-.02.64.48,1.18,1.12,1.2.03,0,.05,0,.08,0h8.7Z"/><path class="cls-12" d="m74.83,237.97c.88-.37,1.43-1.25,1.4-2.2v-44.7c.02-1.06-.75-1.96-1.8-2.1h3.9c1.12.39,1.79,1.53,1.6,2.7v44.3c.12,1.15-.72,2.18-1.88,2.3-.14.01-.28.01-.42,0h-2.8v-.3Z"/><path class="cls-12" d="m52.83,202.17v4.8h-5.1c-.81.13-1.57-.43-1.7-1.25-.02-.15-.02-.3,0-.45v-1.6c-.05-.78.55-1.45,1.34-1.5.05,0,.11,0,.16,0h5.3Z"/><path class="cls-12" d="m52.83,219.87v4.8h-5c-1.2,0-1.7-.5-1.7-1.7v-1.5c-.08-.81.52-1.52,1.33-1.6.09,0,.18,0,.27,0h5.1Z"/><path class="cls-52" d="m52.83,211.07v4.8h-5.1c-.8.08-1.51-.49-1.59-1.29,0-.07,0-.14,0-.21v-1.7c-.06-.77.51-1.45,1.28-1.51.11,0,.21,0,.32.01h5.2l-.1-.1Z"/><path class="cls-31" d="m80.03,206.97v-4.8h5.1c.73-.09,1.4.43,1.49,1.17,0,.08.01.15,0,.23v1.9c.05.78-.55,1.45-1.34,1.5-.05,0-.11,0-.16,0h-5.1Z"/><path class="cls-31" d="m80.03,224.67v-4.8h5.1c.75-.08,1.42.47,1.5,1.23,0,.09,0,.18,0,.27v1.9c.04.74-.53,1.37-1.27,1.41-.08,0-.15,0-.23,0h-5.1Z"/><path class="cls-31" d="m80.03,215.87v-4.8h5.1c.78-.05,1.45.55,1.5,1.34,0,.05,0,.11,0,.16v1.7c.05.78-.55,1.45-1.34,1.5-.05,0-.11,0-.16,0h-5.1v.1Z"/><path class="cls-52" d="m52.83,193.37v4.8h-4.9c-1.3,0-1.8-.5-1.8-1.8v-1.5c-.04-.74.53-1.37,1.27-1.41.08,0,.15,0,.23,0h5.3l-.1-.1Z"/><path class="cls-52" d="m52.83,228.77v4.8h-5c-1.2,0-1.7-.5-1.7-1.7v-1.4c-.1-.78.45-1.5,1.24-1.6.12-.02.24-.02.36,0h5.2l-.1-.1Z"/><path class="cls-1" d="m80.03,198.07v-4.7h5.2c.8-.03,1.47.6,1.5,1.4,0,0,0,0,0,0v1.9c.04.74-.53,1.37-1.27,1.41-.08,0-.15,0-.23,0h-5.2Z"/><path class="cls-1" d="m80.03,233.47v-4.7h5.2c.8-.03,1.47.6,1.5,1.4,0,0,0,0,0,0v1.9c.04.74-.53,1.37-1.27,1.41-.08,0-.15,0-.23,0h-5.2Z"/><path class="cls-33" d="m69.13,231.67h-8.7c-.64.02-1.18-.48-1.2-1.12,0-.03,0-.05,0-.08v-34.1c-.02-.64.48-1.18,1.12-1.2.03,0,.05,0,.08,0h8.7c.62.28.99.93.9,1.6v33.3c.09.67-.28,1.32-.9,1.6Zm-1.9-22.7c-1,.2-2,.3-3,.5q-1,.2-1,1.2c0,.4.2.5.5.5h5.4c.4,0,.5-.1.5-.5s-.1-.5-.5-.5h-3.5c1.1-.3,2.3-.5,3.4-.7.3,0,.6,0,.6-.5.04-.29-.16-.56-.45-.6-.05,0-.1,0-.15,0h-.5c-1-.2-2-.3-3-.5h3.6c.4,0,.5-.2.5-.5s-.1-.5-.5-.5h-4.9c-1.6,0-1.1,0-1,1.1,0,.3.1.4.4.4.74.08,1.48.22,2.2.4.49-.04.97.07,1.4.3v-.1Zm-.8,11.2h2.7c.5,0,.5-.3.5-.7s0-.7-.5-.6h-2.1c-.1,0-.3,0-.3-.1s.2-.1.3-.2l2.2-.6c.4,0,.5-.6.4-1s-.4-.3-.7-.2c-.68.19-1.35.42-2,.7-.3,0-.4,0-.6-.2-.4-.6-1.1-.6-1.8-.6s-1,.5-1.2,1.1,0,1.1-.1,1.7c0,.4.1.6.6.6h2.6v.1Zm-3.2-6.1c0,.4,0,.6.5.7,1.7.3,3.4.7,5.1,1.1.8.2.9,0,.8-.7,0-.3,0-.5-.4-.5-.27.02-.54-.02-.8-.1-.1,0-.2,0-.2-.2-.1-.5,0-.7.5-.8.17.02.35-.02.5-.1.3,0,.5-.5.3-1,0-.4-.3-.3-.6-.2-1.8.4-3.5.8-5.3,1.1-.4,0-.6.2-.5.7h.1Z"/><path class="cls-37" d="m69.13,231.67c.62-.28.99-.93.9-1.6v-33.3c.09-.67-.28-1.32-.9-1.6h3.4c.57,0,1.05.43,1.1,1v34.5c-.08.56-.54.98-1.1,1h-3.4Z"/><path class="cls-30" d="m67.13,208.97c-.4-.3-.9-.2-1.4-.3-.72-.18-1.46-.32-2.2-.4-.2.02-.38-.13-.4-.34,0-.02,0-.04,0-.06q0-1.1,1-1.1h4.9c.4,0,.5.1.5.5s0,.5-.5.5h-3.6c1,.2,2,.3,3,.5h.5c.29-.04.56.16.6.45,0,.05,0,.1,0,.15,0,.5-.3.5-.6.5-1.1.2-2.3.4-3.4.7h3.5c.4,0,.5.1.5.5s-.1.5-.5.5h-5.4c-.4,0-.5,0-.5-.5,0-1,0-1.1,1-1.2,1-.1,1.9-.3,3-.5v.1Z"/><path class="cls-50" d="m66.43,220.17h-2.6c-.29.04-.56-.16-.6-.45,0-.05,0-.1,0-.15-.02-.57.02-1.14.1-1.7.12-.59.6-1.03,1.2-1.1.7,0,1.4,0,1.8.6.2.3.3.3.6.2.68-.19,1.35-.42,2-.7.3,0,.5-.2.7.2.19.32.08.74-.24.93-.05.03-.1.05-.16.07l-2.2.6c-.1,0-.3,0-.3.2s.2.1.3.1h2.1c.5,0,.5.3.5.6s0,.7-.5.7h-2.7v-.1Zm-1.4-1.3h.4c.2,0,.4.1.5-.2s0-.5-.3-.6c-.36-.1-.74-.1-1.1,0-.3.1-.3.3-.3.6s.2.2.4.2h.4Z"/><path class="cls-30" d="m63.23,214.07c0-.4.1-.6.5-.7,1.8-.4,3.5-.8,5.3-1.1.2,0,.5-.1.6.2.1.5,0,.9-.3,1-.17-.02-.35.02-.5.1-.5,0-.6.3-.5.8,0,.11.09.19.2.2.3,0,.5.1.8.1s.4.2.4.5c0,.8,0,.9-.8.7-1.7-.4-3.4-.7-5.1-1.1-.28.01-.52-.2-.54-.48,0-.07,0-.15.04-.22h-.1Zm2.1,0h0c.64.05,1.28.15,1.9.3q.3,0,.3-.3c0-.3,0-.4-.2-.3l-1.9.3h-.1Z"/><path class="cls-17" d="m65.03,218.87h-.5c-.2,0-.4,0-.4-.2s0-.5.3-.6c.36-.1.74-.1,1.1,0,.3,0,.4.3.3.6s-.3.1-.5.2h-.3Z"/><path class="cls-41" d="m65.33,214.07c.64-.05,1.28-.15,1.9-.3.3,0,.2.2.2.3s0,.3-.3.3l-1.9-.3h.1Z"/><path d="m33.53,198.07l-.3,1.1,3.4.8-.6,2.3-10.2-2.5,1-4.1c.49-1.93,2.46-3.1,4.39-2.6,0,0,0,0,0,0,1.27.3,2.25,1.32,2.5,2.6l4.3-1.3-.6,2.5-3.8,1.1-.1.1Zm-2.3.6l.4-1.7c.13-.69-.31-1.35-1-1.5-.66-.2-1.36.15-1.6.8l-.4,1.7,2.6.6v.1Z"/><path d="m35.33,184.07l6.5,3.7-1.1,2-.6-.3c.29.8.18,1.69-.3,2.4-1.34,1.76-3.85,2.1-5.61.76-1.43-1.09-1.96-2.99-1.29-4.66.39-.74,1.08-1.29,1.9-1.5l-.6-.3,1.1-2v-.1Zm2.2,3.8c-.79-.52-1.86-.3-2.38.49-.04.07-.08.14-.12.21-.51.83-.26,1.91.56,2.42.04.03.09.05.14.08.79.52,1.86.3,2.38-.49.04-.07.08-.14.12-.21.51-.83.26-1.91-.56-2.42-.04-.03-.09-.05-.14-.08Z"/><path d="m47.63,175.97l3,3.5-1.7,1.5-2.9-3.3c-.5-.6-1.1-.7-1.6-.2-.5.43-.55,1.18-.12,1.68.04.04.08.08.12.12l2.8,3.2-1.7,1.5-2.9-3.3c-.5-.6-1.1-.7-1.6-.2-.5.43-.55,1.18-.12,1.68.04.04.08.08.12.12l2.8,3.2-1.7,1.5-5-5.6,1.7-1.5.5.5c0-.76.34-1.49.9-2,.54-.56,1.34-.79,2.1-.6-.02-.85.35-1.66,1-2.2,1.16-1.06,2.95-.98,4.01.17.07.07.13.15.19.23h.1Z"/><path d="m61.53,176.27l-1.2-.7c-.64.72-1.47,1.24-2.4,1.5-2.1.6-3.9-.2-4.4-2.1-.3-1.16,0-2.4.8-3.3-.44-.39-.72-.92-.8-1.5-.5-1.7.5-3.3,2.5-3.8,1.44-.45,3.02.07,3.9,1.3l-1.7,1.7c-.32-.56-.95-.88-1.6-.8-.6.2-.9.6-.7,1.1s.6.8,1.2,1.2l2.4,1.6v-1.7l2.2.6c.01.82-.12,1.63-.4,2.4l1.7,1.1-1.5,1.5v-.1Zm-3-1.9l-2.4-1.5h-.1c-.26.34-.34.79-.2,1.2.2.7.8,1.1,1.8.8.36-.11.7-.27,1-.5h-.1Z"/><path d="m67.03,173.07l2.2-.9c.17.97,1.01,1.69,2,1.7,1.1.2,1.5-.2,1.5-.6,0-.6-.5-1-2-1.6-1.5-.6-2.9-1.6-2.6-3.6.31-1.81,2.03-3.02,3.83-2.71.02,0,.05,0,.07.01,1.65.16,3.03,1.31,3.5,2.9l-2.2.9c-.19-.77-.82-1.36-1.6-1.5-.7-.1-1.2.2-1.2.6s.1.8,1.7,1.6,3.2,1.5,2.9,3.7c-.3,2-2.1,3-4.3,2.6-1.84-.09-3.4-1.4-3.8-3.2v.1Z"/><path d="m79.63,172.77l-.9,2.5c-.2.6.3.9,1.2,1.1l-.7,1.9c-2.9-.7-3.4-1.9-2.6-3.8l.9-2.5-1.1-.4.8-2,1.1.4.5-1.3h2.3c0,.1-.7,2.1-.7,2.1l1.4.5-.8,2-1.4-.5Z"/><path d="m81.43,175.17c1.18-1.86,3.66-2.42,5.52-1.23,1.86,1.18,2.42,3.66,1.23,5.52-1.18,1.86-3.66,2.42-5.52,1.23-.01,0-.02-.01-.03-.02-1.84-1.14-2.41-3.56-1.27-5.4.02-.03.04-.07.07-.1Zm4.8,3.1c.54-.74.38-1.77-.36-2.31-.05-.03-.09-.07-.14-.09-.8-.5-1.85-.27-2.36.53-.01.02-.03.05-.04.07-.54.74-.38,1.77.36,2.31.05.03.09.07.14.09.8.5,1.85.27,2.36-.53.01-.02.03-.05.04-.07h0Z"/><path d="m95.13,180.97l-1.8,1.8c-.47-.86-1.55-1.17-2.4-.7-.15.08-.28.18-.4.3l-2.4,2.4-1.6-1.6,5.3-5.3,1.6,1.6-.9.9c.9-.43,1.98-.18,2.6.6Z"/><path d="m100.43,189.07l-6.3,4-1.2-1.9.6-.4c-.82-.19-1.54-.69-2-1.4-1.03-1.77-.42-4.04,1.35-5.07.02,0,.03-.02.05-.03,1.72-1.18,4.06-.78,5.3.9.45.71.6,1.58.4,2.4l.6-.4,1.2,1.9Zm-4.4.1c.84-.46,1.15-1.51.69-2.35-.03-.05-.06-.1-.09-.15-.46-.81-1.5-1.09-2.31-.63-.07.04-.13.08-.19.13-.84.46-1.15,1.51-.69,2.35.03.05.06.1.09.15.45.81,1.46,1.1,2.27.65.08-.04.16-.1.23-.15Z"/><path d="m103.83,199.27l-6.8,2c-2.4.7-4-.9-4.5-2.8-.48-1.35-.17-2.85.8-3.9l1.6,1.5c-.51.49-.67,1.24-.4,1.9.12.82.89,1.39,1.72,1.27.1-.01.19-.04.28-.07l.7-.2c-.77-.32-1.33-.99-1.5-1.8-.52-1.98.63-4.02,2.6-4.6,1.93-.64,4.01.41,4.65,2.34.02.05.03.11.05.16.26.8.15,1.68-.3,2.4l.7-.2.6,2.1-.2-.1Zm-4.1-1.1c.91-.22,1.47-1.13,1.25-2.04-.01-.05-.03-.11-.05-.16-.26-.96-1.24-1.54-2.2-1.3-.91.22-1.47,1.13-1.25,2.04.01.05.03.11.05.16.26.96,1.24,1.54,2.2,1.3h0Z"/><path d="m98.53,206.07c-.04.54.19,1.06.6,1.4l-1,1.8c-1.06-.75-1.67-2-1.6-3.3-.4-2.17,1.04-4.26,3.21-4.66,2.17-.4,4.26,1.04,4.66,3.21.08.41.09.83.03,1.24.02,2.08-1.64,3.78-3.72,3.8-.06,0-.12,0-.18,0h-.9v-5.3c-.73.29-1.18,1.02-1.1,1.8Zm2.7,1.4c.75-.15,1.27-.84,1.2-1.6.09-.77-.44-1.47-1.2-1.6v3.2Z"/><circle class="cls-4" cx="333.27" cy="204.07" r="45"/><path class="cls-28" d="m308.46,195.37v-7.4c0-.3,0-.4.4-.4h11.1v2.2q0,.8.8.8h24.9c.5,0,.6-.2.6-.6v-2.4h11.3c.11.18.18.39.2.6v6.8c.04.29-.16.56-.45.6-.05,0-.1,0-.15,0h-1.4c-1.07.27-1.72,1.36-1.45,2.43.19.75.79,1.32,1.55,1.47h1.4q.6,0,.6.7v24.3c0,.6,0,.7-.7.7h-1.4c-1.07.05-1.9.93-1.9,2,0,1.05.85,1.9,1.9,1.9h1.4c.6,0,.7,0,.7.7v6.6c0,.2,0,.5-.2.6h-11.3v-2.4c.04-.29-.16-.56-.45-.6-.05,0-.1,0-.15,0h-25.2c-.5,0-.6.2-.6.6v2.4h-11.1c-.3,0-.4,0-.4-.4v-7.6h2c1.05,0,1.9-.85,1.9-1.9.04-1.06-.78-1.95-1.84-2-.02,0-.04,0-.06,0h-1.43c-.2,0-.5,0-.6-.2v-25.3c.18-.11.39-.18.6-.2h1.4c1.1-.05,1.95-.99,1.9-2.1,0,0,0,0,0,0-.04-.99-.81-1.8-1.8-1.9h-1.4c-.2,0-.5,0-.6-.2l-.07.2Zm40.57,19.3h1.8c.6,0,.8-.3.8-.7,0-.39-.32-.71-.71-.71-.03,0-.06,0-.09,0h-1.8v-1.7h1.8c.6,0,.9-.3.9-.7s-.3-.7-.9-.7h-1.8v-1.7h1.8c.39.07.75-.19.82-.58s-.19-.75-.58-.82c-.08-.01-.16-.01-.24,0h-1.8v-1.7h1.8c.6,0,.8-.3.8-.7,0-.39-.32-.71-.71-.71-.03,0-.06,0-.09,0h-1.8v-1.7h1.8c.6,0,.8-.3.8-.7,0-.39-.32-.71-.71-.71-.03,0-.06,0-.09,0h-1.8v-1.7h1.8c.6,0,.9-.3.9-.7s-.3-.7-.9-.7h-1.8c0-1.3,0-1.2-1.2-1.2v-1.8c0-.6-.3-.8-.7-.8-.39,0-.71.32-.71.71,0,.03,0,.06,0,.09v1.8h-1.7v-1.8c0-.6-.3-.9-.7-.9s-.7.3-.7.9v1.8h-1.7v-1.8c0-.6-.3-.9-.7-.9s-.7.3-.7.9v1.8h-1.7v-1.8c0-.6-.3-.9-.7-.9s-.7.3-.7.9v1.8h-1.7v-1.8c0-.6-.3-.9-.7-.9-.39,0-.71.32-.71.71,0,.03,0,.06,0,.09v1.8h-1.7v-1.8c0-.6-.3-.9-.7-.9s-.7.3-.7.9v1.8h-1.7v-1.8c0-.6-.3-.9-.7-.9s-.7.3-.7.9v1.8h-1.7v-1.8c0-.6-.3-.9-.7-.9s-.7.3-.7.9v1.8h-1.7v-1.8c0-.6-.3-.9-.7-.9s-.7.3-.7.9v1.8h-1.7v-1.8c0-.6-.3-.9-.7-.9s-.7.3-.7.9v1.8c-1.2,0-1.1,0-1.1,1.2h-1.8c-.6,0-.9.3-.8.7.04.41.39.72.8.7h1.8v1.7h-1.8c-.6,0-.9.3-.9.7s.3.7.9.7h1.8v1.7h-1.8c-.6,0-.9.3-.9.7s.3.7.9.7h1.8v1.7h-1.9c-.44-.05-.84.26-.9.7,0,.4.3.7.9.7h1.9v1.7h-1.8c-.6,0-.8.3-.8.7,0,.39.32.71.71.71.03,0,.06,0,.09,0h1.8v1.7h-1.8c-.6,0-.9.3-.9.7s.3.7.9.7h1.8v1.7h-1.8c-.6,0-.9.3-.9.7s.3.7.9.7h1.8v1.7h-1.8c-.6,0-.8.3-.8.7,0,.39.32.71.71.71.03,0,.06,0,.09,0h1.8v1.7h-1.8c-.6,0-.8.3-.8.7,0,.39.32.71.71.71.03,0,.06,0,.09,0h1.8v1.7h-1.8c-.6,0-.9.3-.9.7s.3.7.9.7h1.8c0,1.2,0,1.1,1.2,1.2v1.8c0,.6.3.8.7.8.39,0,.71-.32.71-.71,0-.03,0-.06,0-.09v-1.8h1.7v1.8c0,.6.3.9.7.9s.7-.3.7-.9v-1.8h1.7v1.8c0,.6.3.9.7.9s.7-.3.7-.9v-1.8h1.7v1.8c0,.6.3.8.7.8.39,0,.71-.32.71-.71,0-.03,0-.06,0-.09v-1.8h1.7v1.8c0,.6.3.8.7.8.39,0,.71-.32.71-.71,0-.03,0-.06,0-.09v-1.8h1.7v1.8c0,.6.3.9.7.9s.7-.3.7-.9v-1.8h1.7v1.8c0,.6.3.8.7.8.39,0,.71-.32.71-.71,0-.03,0-.06,0-.09v-1.8h1.7v1.8c0,.6.3.8.7.8.39,0,.71-.32.71-.71,0-.03,0-.06,0-.09v-1.8h1.7v1.8c0,.6.3.8.7.8.39,0,.71-.32.71-.71,0-.03,0-.06,0-.09v-1.8h1.7v1.8c0,.6.3.9.7.9s.7-.3.7-.9v-1.8c1.3,0,1.1,0,1.2-1.2h1.8c.6,0,.8-.3.8-.7,0-.39-.32-.71-.71-.71-.03,0-.06,0-.09,0h-1.8v-1.7h1.8c.6,0,.9-.3.9-.7s-.3-.7-.9-.7h-1.8v-1.7h1.8c.6,0,.9-.3.9-.7s-.3-.7-.9-.7h-1.8v-1.7h1.8c.6,0,.8-.3.8-.7,0-.39-.32-.71-.71-.71-.03,0-.06,0-.09,0h-1.8v-1.7l-.1.1Zm-36.6-21.7c.82-.02,1.48-.68,1.5-1.5h0c-.03-.8-.7-1.43-1.5-1.4s-1.43.7-1.4,1.5h0c.05.75.65,1.35,1.4,1.4Zm42.7-1.5c0-.83-.67-1.5-1.5-1.5s-1.5.67-1.5,1.5.67,1.5,1.5,1.5c.8.03,1.47-.6,1.5-1.4,0,0,0,0,0,0h0v-.1Zm-44.1,41.9c0,.83.67,1.5,1.5,1.5s1.5-.67,1.5-1.5h0c-.02-.82-.68-1.48-1.5-1.5h0c-.82.02-1.48.68-1.5,1.5Zm44.1,0c-.02-.82-.68-1.48-1.5-1.5h0c-.83,0-1.5.67-1.5,1.5s.67,1.5,1.5,1.5,1.5-.67,1.5-1.5Z"/><path class="cls-20" d="m343.27,190.57h-22.5q-.8,0-.8-.8v-2.2h23.4v3h-.1Z"/><path class="cls-20" d="m319.86,237.07v-2.4c-.04-.29.16-.56.45-.6.05,0,.1,0,.15,0h22.7v3h-23.3Z"/><path class="cls-26" d="m343.27,190.57v-3h3v2.4c.04.29-.16.56-.45.6-.05,0-.1,0-.15,0h-2.4Z"/><path class="cls-26" d="m343.36,237.07v-3h2.4c.29-.04.56.16.6.45,0,.05,0,.1,0,.15v2.4h-3Z"/><path class="cls-18" d="m321.46,228.27h-3.1c-1.2,0-1.1,0-1.2-1.2v-29.5c0-1.2,0-1.1,1.2-1.2h27.6v3.2c-.14-.13-.31-.2-.5-.2h-24.5q-.8,0-.8.8v24.2q0,.8.8.8h24.5c.2,0,.4,0,.5-.2v3.2h-24.5v.1Z"/><path class="cls-27" d="m345.96,199.57v-3.2h1.9c1.3,0,1.1,0,1.2,1.2v29.5c0,1.3,0,1.1-1.2,1.2h-1.83v-28.7h-.1.03Z"/><path class="cls-25" d="m312.46,192.97c-.82-.08-1.43-.78-1.4-1.6.05-.75.65-1.35,1.4-1.4.83,0,1.5.67,1.5,1.5s-.67,1.5-1.5,1.5Z"/><path class="cls-25" d="m355.16,191.47c.02.81-.63,1.48-1.44,1.5-.02,0-.04,0-.06,0h0c-.83,0-1.5-.67-1.5-1.5s.67-1.5,1.5-1.5,1.5.67,1.5,1.5Z"/><path class="cls-38" d="m311.03,233.37c-.03-.8.6-1.47,1.4-1.5,0,0,0,0,0,0h0c.82.02,1.48.68,1.5,1.5h0c0,.83-.67,1.5-1.5,1.5s-1.5-.67-1.5-1.5h.1Z"/><path class="cls-38" d="m355.16,233.27c.02.81-.63,1.48-1.44,1.5-.02,0-.04,0-.06,0h0c-.83,0-1.5-.67-1.5-1.5s.67-1.5,1.5-1.5c.81-.02,1.48.63,1.5,1.44,0,.02,0,.04,0,.06Z"/><path class="cls-44" d="m322.96,196.37h-1.4v-1.8c0-.6.3-.9.7-.9s.7.3.7.9v1.8Z"/><path class="cls-49" d="m349.03,211.47v-1.5h1.8c.6,0,.9.3.9.7s-.3.7-.9.7h-1.8v.1Z"/><path class="cls-49" d="m332.27,196.37h-1.4v-1.8c0-.6.3-.9.7-.9s.7.3.7.9v1.8Z"/><path class="cls-49" d="m335.36,196.37h-1.4v-1.8c0-.6.3-.9.7-.9s.7.3.7.9v1.8Z"/><path class="cls-49" d="m317.27,210.07v1.5h-1.8c-.6,0-.9-.3-.8-.7.04-.41.39-.72.8-.7h1.8v-.1Z"/><path class="cls-44" d="m349.03,223.97v-1.5h1.8c.6,0,.9.3.9.7s-.3.7-.9.7h-1.8v.1Z"/><path class="cls-49" d="m349.03,214.57v-1.5h1.8c.6,0,.8.3.8.7,0,.39-.32.71-.71.71-.03,0-.06,0-.09,0h-1.8v.1Z"/><path class="cls-44" d="m317.27,222.47v1.5h-1.8c-.6,0-.8-.3-.8-.7,0-.39.32-.71.71-.71.03,0,.06,0,.09,0h1.8v-.1Z"/><path class="cls-44" d="m317.27,200.67v1.5h-1.8c-.6,0-.9-.3-.9-.7s.3-.7.9-.7h1.8v-.1Z"/><path class="cls-44" d="m349.03,202.17v-1.5h1.8c.6,0,.8.3.8.7,0,.39-.32.71-.71.71-.03,0-.06,0-.09,0h-1.8v.1Z"/><path class="cls-49" d="m317.27,213.17v1.4h-1.8c-.6,0-.9-.3-.9-.7s.3-.7.9-.7h1.8Z"/><path class="cls-44" d="m321.46,228.27h1.4v1.8c0,.6-.3.9-.7.9s-.7-.3-.7-.9v-1.8Z"/><path class="cls-49" d="m330.86,228.27h1.4v1.8c0,.6-.3.8-.7.8-.39,0-.71-.32-.71-.71,0-.03,0-.06,0-.09v-1.8Z"/><path class="cls-49" d="m333.96,228.27h1.4v1.8c0,.6-.3.9-.7.9s-.7-.3-.7-.9v-1.8Z"/><path class="cls-44" d="m343.27,228.27h1.4v1.8c0,.6-.3.8-.7.8-.39,0-.71-.32-.71-.71,0-.03,0-.06,0-.09v-1.8Z"/><path class="cls-44" d="m344.66,196.37h-1.4v-1.8c0-.6.3-.9.7-.9s.7.3.7.9v1.8Z"/><path class="cls-48" d="m317.27,206.97v1.4h-1.9c-.44.05-.84-.26-.9-.7,0-.4.3-.7.9-.7h1.9Z"/><path class="cls-48" d="m349.03,208.37v-1.4h1.8c.6,0,.8.3.8.7,0,.39-.32.71-.71.71-.03,0-.06,0-.09,0h-1.8Z"/><path class="cls-48" d="m337.03,228.27h1.4v1.8c0,.6-.3.8-.7.8-.39,0-.71-.32-.71-.71,0-.03,0-.06,0-.09v-1.8Z"/><path class="cls-48" d="m317.27,216.27v1.5h-1.8c-.6,0-.9-.3-.9-.7s.3-.7.9-.7h1.8v-.1Z"/><path class="cls-48" d="m349.03,217.77v-1.5h1.8c.6,0,.8.3.8.7,0,.39-.32.71-.71.71-.03,0-.06,0-.09,0h-1.8v.1Z"/><path class="cls-48" d="m329.16,196.37h-1.4v-1.8c0-.6.3-.9.7-.9s.7.3.7.9v1.8Z"/><path class="cls-48" d="m338.46,196.37h-1.43v-1.8c0-.6.3-.9.7-.9s.7.3.7.9l.03,1.8Z"/><path class="cls-48" d="m327.66,228.27h1.37v1.8c0,.6-.3.8-.7.8-.39,0-.71-.32-.71-.71,0-.03,0-.06,0-.09l.03-1.8Z"/><path class="cls-43" d="m317.27,225.67v1.4h-1.8c-.6,0-.9-.3-.9-.7s.3-.7.9-.7h1.8Z"/><path class="cls-43" d="m349.03,227.07v-1.5h1.8c.6,0,.8.3.8.7,0,.39-.32.71-.71.71-.03,0-.06,0-.09,0h-1.8v.1Z"/><path class="cls-43" d="m349.03,199.07v-1.5h1.8c.6,0,.9.3.9.7s-.3.7-.9.7h-1.8v.1Z"/><path class="cls-48" d="m324.66,228.27h1.37v1.8c0,.6-.3.9-.7.9s-.7-.3-.7-.9l.03-1.8Z"/><path class="cls-48" d="m349.03,205.27v-1.4h1.8c.39-.07.75.19.82.58s-.19.75-.58.82c-.08.01-.16.01-.24,0h-1.8Z"/><path class="cls-48" d="m317.27,203.77v1.4h-1.8c-.6,0-.9-.3-.9-.7s.3-.7.9-.7h1.8Z"/><path class="cls-48" d="m317.27,219.37v1.5h-1.8c-.6,0-.8-.3-.8-.7,0-.39.32-.71.71-.71.03,0,.06,0,.09,0h1.8v-.1Z"/><path class="cls-48" d="m349.03,220.87v-1.5h1.8c.6,0,.9.3.9.7s-.3.7-.9.7h-1.8v.1Z"/><path class="cls-43" d="m318.36,228.27h1.4v1.8c0,.6-.3.8-.7.8-.39,0-.71-.32-.71-.71,0-.03,0-.06,0-.09v-1.8Z"/><path class="cls-43" d="m317.27,197.57v1.5h-1.9c-.39.07-.75-.19-.82-.58s.19-.75.58-.82c.08-.01.16-.01.24,0h1.9v-.1Z"/><path class="cls-43" d="m347.86,196.37h-1.5v-1.8c0-.6.3-.8.7-.8.39,0,.71.32.71.71,0,.03,0,.06,0,.09v1.8h.1Z"/><path class="cls-43" d="m346.36,228.27h1.5v1.8c0,.6-.3.9-.7.9s-.7-.3-.7-.9v-1.8h-.1Z"/><path class="cls-48" d="m341.56,196.37h-1.4v-1.8c0-.6.3-.9.7-.9s.7.3.7.9v1.8Z"/><path class="cls-48" d="m326.03,196.37h-1.4v-1.8c0-.6.3-.9.7-.9s.7.3.7.9v1.8Z"/><path class="cls-43" d="m319.77,196.37h-1.4v-1.8c0-.6.3-.9.7-.9s.7.3.7.9v1.8Z"/><path class="cls-48" d="m340.16,228.27h1.4v1.8c0,.6-.3.8-.7.8-.39,0-.71-.32-.71-.71,0-.03,0-.06,0-.09v-1.8Z"/><path class="cls-46" d="m343.03,225.27h-22q-.8,0-.8-.8v-24.2q0-.8.8-.8h22v25.8Zm-1-20.7h0v-2.3c.01-.38-.28-.69-.66-.7-.01,0-.03,0-.04,0h0c-.4.02-.73.31-.8.7h0v3.1c0,.8.1.6-.7.7-.4,0-.5,0-.5-.5v-3.3c.05-.39-.23-.74-.61-.79-.03,0-.06,0-.09,0-.4.02-.73.31-.8.7v4.4c0,.6.3.8.9.8h2.3c.44.06.84-.25.9-.69,0-.07,0-.14,0-.21v-2.1l.1.2Zm-8.5,0v2.2c-.02.43.28.81.7.9.4.1.7-.3.7-.8v-1.1q0-.3.3-.3h1.4c.43.03.82-.27.9-.7v-2.2c0-.7-.3-.9-.9-.9h-2.1c-.7,0-1,.2-1,1v2h0v-.1Zm-4.4,0v2.2c0,.4.2.8.6.8h2.5c.44.05.84-.26.9-.7,0-.45-.38-.81-.84-.8-.02,0-.04,0-.06,0h-1.4c-.2,0-.3,0-.3-.3v-2.5c0-.2,0-.3.3-.3h1.4c.41.03.77-.27.8-.67,0-.04,0-.08,0-.13,0-.5-.3-.7-.8-.7h-2.4c-.4,0-.8.2-.8.6v2.3h0l.1.2Zm-5.6,19.4h1.3c.2,0,.4,0,.5-.2s0-.4-.2-.5l-2.7-2.5c-.1-.2-.3-.2-.5-.1s-.2.2-.2.4v2.5c0,.24.17.45.4.5h1.4v-.1Z"/><path class="cls-9" d="m343.03,225.27v-25.8h2.5c.2,0,.4,0,.5.2v25.4c-.14.13-.31.2-.5.2h-2.5Z"/><path class="cls-42" d="m342.03,204.47v2.1c0,.7-.3.9-.9.9h-2.3c-.6,0-.9-.3-.9-.8v-4.3c0-.4.2-.8.6-.8h.1c.39,0,.71.32.71.71,0,.03,0,.06,0,.09v3.3c0,.4.1.5.5.5.8,0,.7,0,.7-.7v-3.1c-.01-.38.28-.69.66-.7.01,0,.03,0,.04,0h0c.38-.01.69.28.7.66,0,.01,0,.03,0,.04h0v2.3h0l.1-.2Z"/><path class="cls-42" d="m333.56,204.47v-2c0-.7.3-.9,1-1h2.2c.44-.06.84.25.9.69,0,.07,0,.14,0,.21v2c.03.43-.27.82-.7.9h-1.6q-.3,0-.3.3v1.1c.05.39-.23.74-.61.79-.03,0-.06,0-.09,0-.4,0-.7-.3-.7-.9v-2.2l-.1.1Zm2-.6c.3,0,.6.1.6-.4s-.2-.5-.6-.4-.6-.1-.6.4.2.5.6.4Z"/><path class="cls-42" d="m329.16,204.47v-2.1c0-.4.2-.8.6-.8h2.6c.39-.05.74.23.79.61,0,.03,0,.06,0,.09,0,.4-.3.7-.8.8-.47.05-.93.05-1.4,0-.4,0-.3,0-.3.3v2.5c0,.2,0,.3.3.3h1.4c.45-.04.85.29.9.74,0,.02,0,.04,0,.06,0,.5-.3.7-.9.7h-2.33c-.4,0-.8-.2-.8-.6v-2.4l-.07-.2Z"/><path class="cls-53" d="m323.56,223.87h-1.4c-.24,0-.45-.17-.5-.4h0v-2.5c0-.2,0-.4.2-.4.17-.03.35,0,.5.1l2.7,2.5c.2.1.2.3.2.5s-.3.2-.5.2h-1.2Z"/><path class="cls-44" d="m335.56,203.77c-.3,0-.6,0-.6-.4s.3-.4.6-.4.6,0,.6.4-.3.4-.6.4Z"/><path d="m315.36,175.27c-1.21-3.78.88-7.82,4.65-9.03.08-.03.16-.05.25-.07,2.32-.73,4.86-.2,6.7,1.4l-2.2,2.3c-.97-.89-2.36-1.16-3.6-.7-2.09.52-3.37,2.63-2.85,4.72.04.16.09.32.15.48.45,2.08,2.5,3.4,4.57,2.95.18-.04.35-.09.53-.15,1.28-.33,2.27-1.32,2.6-2.6l3.1.7c-.67,2.32-2.48,4.13-4.8,4.8-3.75,1.22-7.78-.82-9-4.57-.04-.11-.07-.22-.1-.33v.1Z"/><path d="m341.46,170.37c-.24,2.62-2.56,4.55-5.19,4.31-.04,0-.07,0-.11-.01l-2.1-.2-.4,4.4-3.2-.3,1.3-13.9,5.3.5c2.64.21,4.61,2.52,4.4,5.17,0,.01,0,.02,0,.03Zm-3.2-.3c.12-.96-.54-1.85-1.5-2l-2.1-.2-.3,3.6,2.1.2c.96.07,1.8-.64,1.9-1.6h-.1Z"/><path d="m342.96,175.57l4.2-8.5,2.9,1.4-4.1,8.2c-.5.9-.4,2,1.1,2.7s2.4.2,2.8-.8l4.1-8.2,2.9,1.4-4.2,8.5c-1.3,2.7-4.2,3.3-7,1.9-2.8-1.4-4-4-2.7-6.7v.1Z"/><circle class="cls-4" cx="120.03" cy="91.61" r="45"/><path class="cls-29" d="m153.53,81.91v31.2c-.42.93-1.29,1.58-2.3,1.7h-4.6c-.76-.1-1.54-.1-2.3,0h-3.5c-.63-.1-1.27-.1-1.9,0h-9.4c-.76-.1-1.54-.1-2.3,0h-13.8c-.76-.1-1.54-.1-2.3,0h-3.5c-.63-.1-1.27-.1-1.9,0h-9.5v-34.7h54.6c1.3-.16,2.54.58,3,1.8h-.3Zm-45,15.6h0v3.5c0,2.54,2.06,4.6,4.6,4.6,2.54,0,4.6-2.06,4.6-4.6h0v-2.31c0-.9-.4-1.3-1.3-1.3h-1.9c-.7-.07-1.32.43-1.39,1.13,0,.02,0,.05,0,.07,0,.7.5,1.1,1.4,1.1s.9,0,.9.9c.15,1.27-.75,2.42-2.02,2.57-1.27.15-2.42-.75-2.57-2.02,0-.05-.01-.1-.01-.16v-6.9c-.06-.46.05-.92.3-1.3.61-1.1,1.99-1.5,3.1-.9.72.41,1.17,1.17,1.2,2,.1.8.6,1.3,1.2,1.2.65-.09,1.1-.7,1.01-1.35,0-.02,0-.04,0-.05-.14-2.53-2.27-4.48-4.8-4.4-2.33.15-4.2,1.98-4.4,4.3v3.8l.1.1Zm23.1-1.6v5c-.06,1.59.74,3.08,2.1,3.9,2.1,1.44,4.96.9,6.4-1.19.51-.74.79-1.61.8-2.51v-10.8c-.1-.51-.58-.86-1.1-.8-.51-.03-.97.31-1.1.8v10.5c.06,1.27-.93,2.34-2.2,2.4-1.27.06-2.34-.93-2.4-2.2v-10.5c0-.52-.32-1-.8-1.2-.47-.19-1.01-.02-1.3.4-.2.29-.31.64-.3,1v5l-.1.2Zm-11.5,1.6v6.9c-.02.56.36,1.06.9,1.2.49.08.97-.16,1.2-.6.13-.25.17-.53.1-.8v-4.8c0-.5.1-.6.6-.6h1.8c2.46-.06,4.44-2.04,4.5-4.5.04-2.39-1.73-4.41-4.1-4.7-1.2-.1-2.4,0-3.6,0s-1.5.4-1.5,1.5v6.5l.1-.1Zm-20.8-11v1.6c-.01.65.46,1.2,1.1,1.3.64.08,1.21-.37,1.29-1.01,0-.03,0-.06,0-.09v-1.9c0-.4.1-.5.5-.5h1.7c.62.02,1.16-.4,1.3-1,.06-.63-.38-1.2-1-1.3h-3.5c-.66-.05-1.24.44-1.3,1.1v1.8h-.1Z"/><path class="cls-16" d="m95.83,114.81v3.4c0,.95-.54,1.81-1.4,2.2-.78.41-1.74.29-2.4-.3-.63-.51-.97-1.29-.9-2.1v-41c0-1.6.2-1.5-1.5-1.5-1.5,0-2.6-.4-3.1-1.8v-1c.41-1.27,1.69-2.03,3-1.8h3.5c1.31-.18,2.52.73,2.7,2.03.03.22.03.45,0,.67v41.2h.1Z"/><path class="cls-39" d="m91.14,96.31v15h-3c-.64.05-1.26-.26-1.6-.8v-13.5c.4-.53,1.05-.79,1.7-.7h2.9Z"/><path class="cls-39" d="m91.14,82.51v9.2h-3c-.64.05-1.26-.26-1.6-.8v-7.7c.4-.53,1.05-.79,1.7-.7h2.9Z"/><path class="cls-10" d="m108.53,97.51v-3.8c.19-2.54,2.41-4.44,4.95-4.25,2.31.18,4.13,2.04,4.25,4.35,0,.8-.3,1.3-1,1.4s-1.1-.4-1.2-1.2c0-1.22-.99-2.21-2.21-2.21-.06,0-.13,0-.19,0-.8.03-1.53.49-1.9,1.2-.19.41-.3.85-.3,1.3v6.5c-.15,1.27.75,2.42,2.02,2.57,1.27.15,2.42-.75,2.57-2.02,0-.05.01-.1.01-.16v-.4c.06-.44-.25-.84-.69-.9-.07,0-.14,0-.21,0-.9,0-1.4-.5-1.4-1.1s.5-1.2,1.4-1.2h1.9c.9,0,1.3.4,1.3,1.3v2.3c0,2.54-2.06,4.6-4.6,4.6-2.54,0-4.59-2.06-4.6-4.6v-3.5h0l-.1-.2Z"/><path class="cls-7" d="m131.53,95.91v-5c-.03-.35.04-.69.2-1,.29-.42.83-.59,1.3-.4.5.18.83.67.8,1.2v10.1c-.06,1.27.93,2.34,2.2,2.4,1.27.06,2.34-.93,2.4-2.2v-10.8c.1-.51.58-.86,1.1-.8.51-.03.97.31,1.1.8v10.8c-.05,2.54-2.15,4.56-4.69,4.5-.9-.02-1.77-.3-2.51-.8-1.31-.87-2.09-2.33-2.1-3.9v-5l.2.1Z"/><path class="cls-7" d="m120.03,97.41v-6.5c0-1.1.4-1.5,1.5-1.5h3.6c2.4.22,4.21,2.29,4.1,4.7-.06,2.46-2.04,4.44-4.5,4.5h-1.8c-.5,0-.6.1-.6.6v4.8c.02.27-.01.54-.1.8-.19.48-.71.74-1.2.6-.55-.04-.96-.53-.92-1.08,0-.04,0-.08.02-.12v-6.8h-.1Zm2.4-3.5v1.8c0,.4,0,.6.5.6h1.8c1.25.02,2.28-.97,2.3-2.22,0-.03,0-.05,0-.08h0c.02-1.25-.97-2.28-2.22-2.3-.03,0-.05,0-.08,0h-1.8c-.4,0-.5.2-.5.5v1.7Z"/><path class="cls-34" d="m117.73,114.81v3.1c.05.7-.41,1.34-1.1,1.5h-3.4v-4.6h4.5Z"/><path class="cls-34" d="m126.93,119.41h-3.3c-.68.03-1.27-.49-1.3-1.18,0,0,0-.01,0-.02v-3.3h4.6v4.5Z"/><path class="cls-34" d="m151.23,114.81v3.1c.05.7-.41,1.34-1.1,1.5h-3.4v-4.6h4.5Z"/><path class="cls-34" d="m105.03,119.41h-3.3c-.68.03-1.27-.49-1.3-1.18,0,0,0-.01,0-.02v-3.4h4.6v4.6Z"/><path class="cls-14" d="m99.23,86.51v-1.6c-.05-.66.44-1.24,1.1-1.3h3.5c.62-.02,1.16.4,1.3,1,.06.63-.38,1.2-1,1.3h-2c-.4,0-.5.1-.5.5v1.7c.01.65-.46,1.2-1.1,1.3-.64.08-1.21-.37-1.29-1.01,0-.03,0-.06,0-.09v-1.8Z"/><path class="cls-19" d="m110.83,119.41h-3.4v-4.5h0c0-.1,3.4-.1,3.4-.1v4.6Z"/><path class="cls-19" d="m132.73,119.41h-3.4v-4.6h3.4v4.5h0v.1Z"/><path class="cls-19" d="m138.53,119.41h-3.4v-4.6h3.4v4.6Z"/><path class="cls-19" d="m144.23,119.41h-3.4v-4.5h0c0-.1,3.4-.1,3.4-.1v4.6Z"/><path class="cls-36" d="m129.33,114.81v4.6h-2.3v-4.6c.76-.1,1.54-.1,2.3,0Z"/><path class="cls-36" d="m110.83,119.41v-4.6c.76-.1,1.54-.1,2.3,0v4.6h-2.3Z"/><path class="cls-36" d="m144.23,119.41v-4.6c.76-.1,1.54-.1,2.3,0v4.6h-2.3Z"/><path class="cls-36" d="m107.33,114.91v4.4h-.1c-.73.08-1.47.12-2.2.1v-4.6h2.2l.1.1Z"/><path class="cls-36" d="m135.03,114.81v4.6h-2.3v-4.6h2.3Z"/><path class="cls-36" d="m140.83,114.91v4.4h-.1c-.73.08-1.47.12-2.2.1v-4.6h2.2l.1.1Z"/><path class="cls-36" d="m134.73,114.81h-1.9c.63-.1,1.27-.1,1.9,0Z"/><path class="cls-36" d="m132.73,119.31h.1v.1h0l-.1-.1Z"/><path class="cls-51" d="m122.33,94.01v-1.8c0-.4,0-.6.5-.5h1.8c1.27,0,2.3,1.03,2.3,2.3s-1.03,2.3-2.3,2.3h-1.8c-.5,0-.5-.2-.5-.6v-1.7Z"/><path d="m113.43,61.91c1.56,3.5,0,7.6-3.51,9.17-.19.09-.39.16-.59.23-3.9,1.69-8.44-.11-10.12-4.01-.03-.06-.05-.12-.08-.19-1.53-4,.47-8.49,4.47-10.02,2.37-.91,5.03-.6,7.13.82l-2.1,2.6c-2.09-1.26-4.81-.59-6.07,1.5-.71,1.18-.83,2.62-.33,3.9.9,2.3,3.2,3.4,5.9,2.3,1.57-.45,2.66-1.87,2.7-3.5l-3.7,1.4-1.1-2.7,6.9-2.7.5,1.2Z"/><path d="m127.83,59.71c-.14,2.8-2.53,4.95-5.32,4.8-.03,0-.05,0-.08,0h-2.2c0-.1-.2,4.5-.2,4.5l-3.4-.2.7-14.7,5.6.3c2.79.09,4.99,2.42,4.9,5.21,0,.03,0,.06,0,.09Zm-3.4-.2c.06-1.02-.69-1.9-1.7-2h-2.2c0-.1-.2,3.7-.2,3.7h2.2c.91.13,1.76-.51,1.88-1.42.01-.09.02-.18.02-.28h0Z"/><path d="m129.64,65.11l4.2-9,3,1.4-4.1,8.8c-.5,1-.4,2.1,1.2,2.8s2.5.1,3-.9l4.1-8.8,3,1.4-4.2,9c-1.3,2.9-4.3,3.6-7.3,2.2-3-1.4-4.4-4.1-3-7l.1.1Z"/><circle class="cls-2" cx="286.93" cy="91.61" r="45"/><path class="cls-15" d="m274.53,74.31c.46.21.74.69.7,1.2v5.4h-1.9v-5.3c-.04-.48.19-.94.6-1.2h.6v-.1Z"/><path class="cls-15" d="m293.63,74.31c.44.23.68.71.6,1.2v5.4h-1.9v-5.3c-.04-.48.19-.94.6-1.2h.6l.1-.1Z"/><path class="cls-15" d="m298.73,80.91v-5.3c-.04-.48.19-.94.6-1.2h.6c.41.2.65.64.6,1.1v5.4h-1.8Z"/><path class="cls-15" d="m314.53,102.41c-.3.4-.81.6-1.3.5h-5.3v-1.9h5.4c.45-.03.88.2,1.1.6v.8h.1Z"/><path class="cls-15" d="m287.23,74.31c.44.23.68.71.6,1.2v5.4h-1.9v-5.5c-.04-.48.25-.93.7-1.1h.6Z"/><path class="cls-15" d="m275.23,123.01v5.1c0,.7-.1,1.2-.9,1.4h-.3c-.48-.34-.75-.91-.7-1.5v-5.1h1.9v.1Z"/><path class="cls-15" d="m294.33,123.01v5.2c.08.59-.25,1.16-.8,1.4h-.3c-.52-.31-.79-.9-.7-1.5v-5.1h1.8Z"/><path class="cls-15" d="m299.43,129.61c-.48-.34-.75-.91-.7-1.5v-5.1h1.9v5.1c0,.7-.1,1.2-.9,1.4h-.3v.1Z"/><path class="cls-15" d="m265.83,90.11h-5.5c-.45.01-.87-.22-1.1-.6v-.8c.33-.36.81-.55,1.3-.5h5.3v1.9Z"/><path class="cls-15" d="m259.33,114.31c.22-.4.65-.63,1.1-.6h5.5v1.9h-5.3c-.49.05-.97-.14-1.3-.5v-.8Z"/><path class="cls-15" d="m308.03,113.71c1.4.1,2.8,0,4.3,0h1.2c.45-.01.87.22,1.1.6v.6c-.23.38-.65.61-1.1.6h-5.5v-1.8Z"/><path class="cls-15" d="m265.83,96.48h-5.5c-.45.01-.87-.22-1.1-.6v-.7c.22-.4.65-.63,1.1-.6h5.5v1.9Z"/><path class="cls-15" d="m279.63,80.91v-5.43c-.01-.47.21-.92.6-1.2h.6c.41.26.64.72.6,1.2v5.4l-1.8.03Z"/><path class="cls-15" d="m308.03,107.41h5.5c.45-.01.87.22,1.1.6v.6c-.22.4-.65.63-1.1.6h-5.5v-1.8Z"/><path class="cls-15" d="m314.53,95.91c-.22.4-.65.63-1.1.6h-5.5v-1.9h5.5c.45-.01.87.22,1.1.6v.7Z"/><path class="cls-15" d="m265.83,102.81h-5.3c-.48.04-.94-.19-1.2-.6v-.6c.29-.37.73-.59,1.2-.6h5.3v1.8Z"/><path class="cls-15" d="m259.33,108.01c.22-.4.65-.63,1.1-.6h5.5v1.8h-5.5c-.45.01-.87-.22-1.1-.6v-.6Z"/><path class="cls-15" d="m314.53,89.48c-.32.39-.8.61-1.3.6h-5.2v-1.9c1.4.1,2.9,0,4.3,0h1c.51-.04.99.24,1.2.7v.6Z"/><path class="cls-32" d="m280.33,129.61c-.51-.27-.79-.83-.7-1.4v-5.2h1.9c-.1,1.2,0,2.4,0,3.6v1.6c.14.57-.21,1.15-.78,1.3,0,0-.01,0-.02,0h-.3l-.1.1Z"/><path class="cls-32" d="m286.73,129.61c-.45-.27-.72-.77-.7-1.3v-5.2h1.8v5.3c.07.57-.26,1.11-.8,1.3h-.3v-.1Z"/><path class="cls-23" d="m287.83,123.01h-21.2c-.6,0-.8-.3-.8-.9v-40.3c-.06-.44.25-.84.69-.9.07,0,.14,0,.21,0h40.4c.6,0,.8.3.8.9v40.4c0,.6-.3.9-.8.9h-19.4l.1-.1Zm-.9-7.1h13.3c.5,0,.6-.1.6-.6v-26.7c0-.5-.1-.6-.6-.6h-26.7c-.5,0-.6.1-.6.6v26.7c0,.5.1.6.6.6h13.4Z"/><path class="cls-32" d="m286.93,115.91h-13.3c-.5,0-.6-.1-.6-.6v-26.7c0-.5.1-.6.6-.6h26.7c.5,0,.6.1.6.6v26.7c0,.5-.2.6-.6.6h-13.4Zm-9.4-13.9c0,5.19,4.21,9.4,9.4,9.4,5.19,0,9.4-4.21,9.4-9.4s-4.21-9.4-9.4-9.4h0c-5.2.02-9.42,4.2-9.5,9.4h.1Z"/><path class="cls-40" d="m277.53,101.91c0-5.19,4.21-9.4,9.4-9.4s9.4,4.21,9.4,9.4-4.21,9.4-9.4,9.4h0c-5.19,0-9.39-4.19-9.4-9.38v-.02Zm8.7,6.8c.12-.11.23-.25.3-.4,1.1-1.7,2.2-3.5,3.3-5.2l1.3-2.1h-2.7c-.4,0-.5-.1-.5-.5v-5.4c-.52.66-.99,1.36-1.4,2.1l-3.2,5.1c0,.1-.2.2-.2.4s.3,0,.4,0h2.1c.4,0,.6.1.6.6v5.3h0v.1Z"/><path class="cls-6" d="m286.13,106.81v-3.4c0-.5-.1-.6-.6-.6h-2.5s0-.3.2-.4l3.2-5.1c.4-.7.9-1.4,1.4-2.1v5.4c0,.4.1.5.5.5h1.6l-2.7,4.2c-.3.55-.67,1.05-1.1,1.5Z"/><path class="cls-11" d="m286.13,106.81c.44-.42.79-.93,1-1.5l2.7-4.2h1.1l-1.3,2.1c-1.1,1.7-2.2,3.5-3.3,5.2,0,.1-.2.3-.3.4h0v-1.9l.1-.1Z"/><path d="m253.73,76.31c2.25.74,3.47,3.15,2.73,5.4-.01.03-.02.07-.03.1l-.6,1.8,3.7,1.3-.9,2.7-11.9-4,1.5-4.5c.77-2.27,3.21-3.52,5.5-2.8Zm-.9,2.7c-.73-.34-1.59-.02-1.93.7-.03.06-.05.13-.07.2l-.6,1.8,3.1,1,.6-1.8c.26-.83-.18-1.71-1-2l-.1.1Z"/><path d="m257.43,69.21l2.6,1.7c-.9.75-1.02,2.09-.27,2.99.13.16.29.3.47.41l3.4,2.3-1.5,2.2-7.5-5,1.5-2.2,1.3.9c-.7-.95-.7-2.25,0-3.2v-.1Z"/><path d="m261.73,70.91c-1.74-1.96-1.57-4.96.39-6.71,1.96-1.74,4.96-1.57,6.71.39,1.74,1.96,1.57,4.96-.39,6.71h0c-1.89,1.75-4.84,1.63-6.58-.26-.04-.04-.08-.09-.12-.13Zm5.1-4.5c-.63-.85-1.82-1.03-2.67-.4-.08.06-.16.13-.23.2-.85.7-.97,1.96-.27,2.82.05.07.11.13.17.18.63.85,1.82,1.03,2.67.4.08-.06.16-.13.23-.2.85-.7.97-1.96.27-2.82-.05-.07-.11-.13-.17-.18h0Z"/><path d="m270.13,63.81c-1.11-2.36-.1-5.17,2.26-6.28.01,0,.03-.01.04-.02,1.5-.69,3.25-.54,4.6.4l-1.6,2.2c-.58-.42-1.35-.5-2-.2-1,.4-1.48,1.53-1.08,2.52.02.06.05.12.08.18.44,1.05,1.65,1.54,2.7,1.1,0,0,0,0,0,0,.69-.24,1.16-.87,1.2-1.6l2.7.3c-.12,1.67-1.16,3.14-2.7,3.8-2.38,1.09-5.18.04-6.27-2.33-.01-.02-.02-.05-.03-.07h.1Z"/><path d="m284.33,61.48c.64-.05,1.23-.38,1.6-.9l2.3.9c-.74,1.33-2.08,2.22-3.6,2.4-2.48.52-4.91-1.08-5.43-3.56-.03-.15-.05-.29-.07-.44-.44-2.52,1.25-4.92,3.77-5.35.11-.02.22-.03.33-.05,2.41-.38,4.67,1.27,5.05,3.68.02.14.04.28.05.42v1.1l-6.3.9c.46.81,1.4,1.21,2.3,1v-.1Zm1.2-3.5c-.32-.85-1.2-1.35-2.1-1.2-.93.03-1.67.77-1.7,1.7l3.8-.5Z"/><path d="m296.43,61.48c-.3,2.1-2.2,2.7-4.1,2.4-1.6-.05-2.99-1.09-3.5-2.6l2.5-1c.09.71.68,1.26,1.4,1.3.6,0,1,0,1-.4.1-1-4.3-1.1-3.9-4.1.3-1.9,2-2.7,3.9-2.5,1.42.17,2.64,1.09,3.2,2.4l-2.4.9c-.12-.51-.57-.88-1.1-.9-.5,0-.8,0-.8.4-.1,1,4.3.9,3.9,4.2l-.1-.1Z"/><path d="m303.73,64.31c-.7,1.9-2.7,2.1-4.5,1.4-1.56-.42-2.69-1.79-2.8-3.4l2.6-.4c-.07.67.35,1.3,1,1.5.6.2,1,.2,1.1-.2.4-.9-3.9-2-2.8-4.9.7-1.8,2.6-2.2,4.3-1.5,1.36.49,2.36,1.67,2.6,3.1l-2.6.3c0-.52-.32-1-.8-1.2-.4-.2-.8-.1-.9.2-.4,1,4,1.9,2.8,5v.1Z"/><path d="m305.63,63.11c1.57-2.07,4.53-2.47,6.6-.9,2.07,1.57,2.47,4.53.9,6.6-1.57,2.07-4.53,2.47-6.6.9-2.07-1.54-2.49-4.47-.95-6.54.02-.02.03-.04.05-.06Zm5.4,4.1c.72-.84.63-2.1-.2-2.82-.03-.03-.06-.05-.1-.08-.86-.7-2.12-.57-2.81.29-.03.04-.06.07-.09.11-.72.84-.63,2.1.2,2.82.03.03.06.05.1.08.86.7,2.12.57,2.81-.29.03-.04.06-.07.09-.11h0Z"/><path d="m321.23,71.81l-2.4,1.9c-.44-1.1-1.68-1.63-2.78-1.2-.19.07-.36.17-.52.3l-3.2,2.5-1.6-2.1,7.1-5.5,1.6,2.1-1.3,1c1.11-.43,2.37-.01,3,1h.1Z"/><path d="m319.63,82.91c-1.9.9-3.4-.4-4.3-2.1-.82-1.39-.7-3.14.3-4.4l2.2,1.5c-.5.46-.62,1.2-.3,1.8.3.6.6.8.9.6.9-.4-1.5-4.2,1.4-5.5,1.8-.8,3.4.2,4.2,1.9.66,1.28.54,2.83-.3,4l-2.1-1.5c.36-.38.44-.94.2-1.4-.2-.4-.5-.6-.8-.5-.9.4,1.6,4.1-1.4,5.5v.1Z"/><path class="cls-45" d="m216.18,197.18c.5,0,.99.02,1.49.02.84,0,1.54.69,1.55,1.54,0,.78,0,1.56,0,2.33,0,6.58,0,13.16,0,19.75,0,.43-.02.86-.15,1.28-.15.49-.75.93-1.27.93-5.57,0-11.15,0-16.72,0-.03,0-.05,0-.08,0,0-1.51,0-3.03,0-4.54,1.16,0,2.32,0,3.48-.01.15,0,.32.04.32-.21,0-.57.05-1.16-.08-1.71-.36-1.48-.79-2.95-1.17-4.43-.1-.4-.22-.79-.36-1.18-.22-.61.19-.92.56-1.25.6-.55.85-1.24.99-2.03.3-1.66-1.1-3.65-2.68-4.16-.05-.09-.12-.13-.22-.08-.08-.02-.16-.04-.24-.05-.04-.05-.08-.07-.14-.03-.15-.02-.31-.04-.46-.07,0-2.01,0-4.03,0-6.04,2.86,0,5.71,0,8.57-.02.18,0,.36-.01.53-.02,1.02.03,2.04.05,3.07,0,1,.06,2,.04,3.01,0Z"/><path class="cls-22" d="m201,218.48c0,1.51,0,3.03,0,4.54-.57,0-1.15.01-1.72.01-4.86,0-9.72-.02-14.58.02-1.28.01-1.94-.69-1.94-1.94.04-7.44.03-14.88,0-22.32,0-.89.72-1.6,1.57-1.59.5,0,.99-.01,1.49-.02,1,.03,2,.05,3-.01,1.02.06,2.04.03,3.06.01.17,0,.33.02.5.02,2.87,0,5.74,0,8.61.01,0,2.01,0,4.03,0,6.04-.32.15-.68.08-1.02.21-1.42.55-2.36,1.51-2.7,3.02-.06.03-.11.07-.03.14-.11,1.25.02,2.39,1.14,3.22.35.26.49.65.35,1.14-.09.3-.2.59-.27.9-.2.84-.42,1.66-.64,2.49-.16.61-.35,1.22-.5,1.83-.15.61-.11,1.23-.13,1.85-.01.31.07.42.4.41,1.14-.02,2.27,0,3.41,0Z"/><path class="cls-35" d="m188.83,197.17c-1,.06-2,.04-3,.01,0-2.7-.02-5.41.02-8.11.02-1.25.19-2.49.55-3.71.44-1.46,1.06-2.83,1.9-4.1,1.05-1.58,2.35-2.94,3.9-4.05,1.02-.73,2.09-1.38,3.27-1.78,1.17-.41,2.35-.81,3.61-.9.71-.05,1.41-.16,2.12-.14,1.77.03,3.47.38,5.13,1,1.65.62,3.14,1.52,4.5,2.65,1.17.97,2.13,2.12,2.94,3.4.58.9,1.03,1.86,1.42,2.87.21.55.36,1.12.55,1.68.17.51.21,1.06.27,1.6.35,3.19.08,6.39.17,9.58-1,.04-2,.05-3,0,0-2.28-.02-4.57.01-6.85.02-1.31-.15-2.6-.47-3.87-.45-1.78-1.28-3.39-2.48-4.76-1.47-1.68-3.26-2.95-5.42-3.64-1.53-.49-3.08-.64-4.69-.54-1.49.09-2.89.44-4.22,1.06-2.21,1.03-3.95,2.61-5.24,4.69-1.11,1.79-1.72,3.76-1.8,5.84-.1,2.69-.02,5.38-.02,8.08Z"/><path class="cls-13" d="m210.11,197.18c0-2.42.02-4.85,0-7.27-.01-1.29-.19-2.56-.71-3.76-.41-.95-.96-1.81-1.64-2.6-1.01-1.18-2.27-1.99-3.7-2.51-1.32-.48-2.7-.64-4.13-.46-.87.11-1.71.31-2.49.65-2.18.95-3.78,2.51-4.77,4.69-.46,1.02-.65,2.09-.7,3.2-.13,2.69-.02,5.38-.06,8.06-1.02.02-2.04.04-3.06-.01,0-2.69-.08-5.39.02-8.08.08-2.08.68-4.05,1.8-5.84,1.29-2.08,3.03-3.66,5.24-4.69,1.33-.62,2.73-.97,4.22-1.06,1.61-.09,3.16.06,4.69.54,2.16.69,3.94,1.95,5.42,3.64,1.2,1.38,2.03,2.98,2.48,4.76.32,1.27.49,2.55.47,3.87-.03,2.28-.01,4.57-.01,6.85-1.02.05-2.04.04-3.07,0Z"/><path class="cls-24" d="m201,218.48c-1.14,0-2.27-.02-3.41,0-.33,0-.41-.1-.4-.41.02-.62-.01-1.25.13-1.85.15-.62.34-1.22.5-1.83.22-.83.44-1.66.64-2.49.07-.31.18-.6.27-.9.14-.49,0-.88-.35-1.14-1.12-.83-1.25-1.97-1.14-3.22.06-.03.06-.08.03-.14.34-1.51,1.28-2.47,2.7-3.02.34-.13.7-.05,1.02-.21.15.02.31.04.46.07.03.08.07.12.14.03.08.02.16.04.24.05.04.11.14.08.22.08,1.58.51,2.98,2.5,2.68,4.16-.14.79-.4,1.48-.99,2.03-.36.33-.78.65-.56,1.25.14.39.25.78.36,1.18.38,1.48.81,2.94,1.17,4.43.13.55.09,1.14.08,1.71,0,.25-.17.21-.32.21-1.16,0-2.32,0-3.48.01Z"/><path class="cls-13" d="m202.07,203.49c-.09,0-.18.03-.22-.08.1-.05.17,0,.22.08Z"/><path class="cls-13" d="m201.6,203.36c-.07.09-.11.05-.14-.03.06-.03.1-.02.14.03Z"/><path class="cls-35" d="m197.28,206.49c.03.06.03.1-.03.14-.08-.07-.03-.1.03-.14Z"/><circle class="cls-3" cx="201.13" cy="201.02" r="39.02"/><path class="cls-45" d="m309.18,318.18c.5,0,.99.02,1.49.02.84,0,1.54.69,1.55,1.54,0,.78,0,1.56,0,2.33,0,6.58,0,13.16,0,19.75,0,.43-.02.86-.15,1.28-.15.49-.75.93-1.27.93-5.57,0-11.15,0-16.72,0-.03,0-.05,0-.08,0,0-1.51,0-3.03,0-4.54,1.16,0,2.32,0,3.48-.01.15,0,.32.04.32-.21,0-.57.05-1.16-.08-1.71-.36-1.48-.79-2.95-1.17-4.43-.1-.4-.22-.79-.36-1.18-.22-.61.19-.92.56-1.25.6-.55.85-1.24.99-2.03.3-1.66-1.1-3.65-2.68-4.16-.05-.09-.12-.13-.22-.08-.08-.02-.16-.04-.24-.05-.04-.05-.08-.07-.14-.03-.15-.02-.31-.04-.46-.07,0-2.01,0-4.03,0-6.04,2.86,0,5.71,0,8.57-.02.18,0,.36-.01.53-.02,1.02.03,2.04.05,3.07,0,1,.06,2,.04,3.01,0Z"/><path class="cls-22" d="m294,339.48c0,1.51,0,3.03,0,4.54-.57,0-1.15.01-1.72.01-4.86,0-9.72-.02-14.58.02-1.28.01-1.94-.69-1.94-1.94.04-7.44.03-14.88,0-22.32,0-.89.72-1.6,1.57-1.59.5,0,.99-.01,1.49-.02,1,.03,2,.05,3-.01,1.02.06,2.04.03,3.06.01.17,0,.33.02.5.02,2.87,0,5.74,0,8.61.01,0,2.01,0,4.03,0,6.04-.32.15-.68.08-1.02.21-1.42.55-2.36,1.51-2.7,3.02-.06.03-.11.07-.03.14-.11,1.25.02,2.39,1.14,3.22.35.26.49.65.35,1.14-.09.3-.2.59-.27.9-.2.84-.42,1.66-.64,2.49-.16.61-.35,1.22-.5,1.83-.15.61-.11,1.23-.13,1.85-.01.31.07.42.4.41,1.14-.02,2.27,0,3.41,0Z"/><path class="cls-35" d="m281.83,318.17c-1,.06-2,.04-3,.01,0-2.7-.02-5.41.02-8.11.02-1.25.19-2.49.55-3.71.44-1.46,1.06-2.83,1.9-4.1,1.05-1.58,2.35-2.94,3.9-4.05,1.02-.73,2.09-1.38,3.27-1.78,1.17-.41,2.35-.81,3.61-.9.71-.05,1.41-.16,2.12-.14,1.77.03,3.47.38,5.13,1,1.65.62,3.14,1.52,4.5,2.65,1.17.97,2.13,2.12,2.94,3.4.58.9,1.03,1.86,1.42,2.87.21.55.36,1.12.55,1.68.17.51.21,1.06.27,1.6.35,3.19.08,6.39.17,9.58-1,.04-2,.05-3,0,0-2.28-.02-4.57.01-6.85.02-1.31-.15-2.6-.47-3.87-.45-1.78-1.28-3.39-2.48-4.76-1.47-1.68-3.26-2.95-5.42-3.64-1.53-.49-3.08-.64-4.69-.54-1.49.09-2.89.44-4.22,1.06-2.21,1.03-3.95,2.61-5.24,4.69-1.11,1.79-1.72,3.76-1.8,5.84-.1,2.69-.02,5.38-.02,8.08Z"/><path class="cls-13" d="m303.11,318.18c0-2.42.02-4.85,0-7.27-.01-1.29-.19-2.56-.71-3.76-.41-.95-.96-1.81-1.64-2.6-1.01-1.18-2.27-1.99-3.7-2.51-1.32-.48-2.7-.64-4.13-.46-.87.11-1.71.31-2.49.65-2.18.95-3.78,2.51-4.77,4.69-.46,1.02-.65,2.09-.7,3.2-.13,2.69-.02,5.38-.06,8.06-1.02.02-2.04.04-3.06-.01,0-2.69-.08-5.39.02-8.08.08-2.08.68-4.05,1.8-5.84,1.29-2.08,3.03-3.66,5.24-4.69,1.33-.62,2.73-.97,4.22-1.06,1.61-.09,3.16.06,4.69.54,2.16.69,3.94,1.95,5.42,3.64,1.2,1.38,2.03,2.98,2.48,4.76.32,1.27.49,2.55.47,3.87-.03,2.28-.01,4.57-.01,6.85-1.02.05-2.04.04-3.07,0Z"/><path class="cls-24" d="m294,339.48c-1.14,0-2.27-.02-3.41,0-.33,0-.41-.1-.4-.41.02-.62-.01-1.25.13-1.85.15-.62.34-1.22.5-1.83.22-.83.44-1.66.64-2.49.07-.31.18-.6.27-.9.14-.49,0-.88-.35-1.14-1.12-.83-1.25-1.97-1.14-3.22.06-.03.06-.08.03-.14.34-1.51,1.28-2.47,2.7-3.02.34-.13.7-.05,1.02-.21.15.02.31.04.46.07.03.08.07.12.14.03.08.02.16.04.24.05.04.11.14.08.22.08,1.58.51,2.98,2.5,2.68,4.16-.14.79-.4,1.48-.99,2.03-.36.33-.78.65-.56,1.25.14.39.25.78.36,1.18.38,1.48.81,2.94,1.17,4.43.13.55.09,1.14.08,1.71,0,.25-.17.21-.32.21-1.16,0-2.32,0-3.48.01Z"/><path class="cls-13" d="m295.07,324.49c-.09,0-.18.03-.22-.08.1-.05.17,0,.22.08Z"/><path class="cls-13" d="m294.6,324.36c-.07.09-.11.05-.14-.03.06-.03.1-.02.14.03Z"/><path class="cls-35" d="m290.28,327.49c.03.06.03.1-.03.14-.08-.07-.03-.1.03-.14Z"/><circle class="cls-3" cx="294.13" cy="322.02" r="39.02"/><path class="cls-45" d="m132.18,314.18c.5,0,.99.02,1.49.02.84,0,1.54.69,1.55,1.54,0,.78,0,1.56,0,2.33,0,6.58,0,13.16,0,19.75,0,.43-.02.86-.15,1.28-.15.49-.75.93-1.27.93-5.57,0-11.15,0-16.72,0-.03,0-.05,0-.08,0,0-1.51,0-3.03,0-4.54,1.16,0,2.32,0,3.48-.01.15,0,.32.04.32-.21,0-.57.05-1.16-.08-1.71-.36-1.48-.79-2.95-1.17-4.43-.1-.4-.22-.79-.36-1.18-.22-.61.19-.92.56-1.25.6-.55.85-1.24.99-2.03.3-1.66-1.1-3.65-2.68-4.16-.05-.09-.12-.13-.22-.08-.08-.02-.16-.04-.24-.05-.04-.05-.08-.07-.14-.03-.15-.02-.31-.04-.46-.07,0-2.01,0-4.03,0-6.04,2.86,0,5.71,0,8.57-.02.18,0,.36-.01.53-.02,1.02.03,2.04.05,3.07,0,1,.06,2,.04,3.01,0Z"/><path class="cls-22" d="m117,335.48c0,1.51,0,3.03,0,4.54-.57,0-1.15.01-1.72.01-4.86,0-9.72-.02-14.58.02-1.28.01-1.94-.69-1.94-1.94.04-7.44.03-14.88,0-22.32,0-.89.72-1.6,1.57-1.59.5,0,.99-.01,1.49-.02,1,.03,2,.05,3-.01,1.02.06,2.04.03,3.06.01.17,0,.33.02.5.02,2.87,0,5.74,0,8.61.01,0,2.01,0,4.03,0,6.04-.32.15-.68.08-1.02.21-1.42.55-2.36,1.51-2.7,3.02-.06.03-.11.07-.03.14-.11,1.25.02,2.39,1.14,3.22.35.26.49.65.35,1.14-.09.3-.2.59-.27.9-.2.84-.42,1.66-.64,2.49-.16.61-.35,1.22-.5,1.83-.15.61-.11,1.23-.13,1.85-.01.31.07.42.4.41,1.14-.02,2.27,0,3.41,0Z"/><path class="cls-35" d="m104.83,314.17c-1,.06-2,.04-3,.01,0-2.7-.02-5.41.02-8.11.02-1.25.19-2.49.55-3.71.44-1.46,1.06-2.83,1.9-4.1,1.05-1.58,2.35-2.94,3.9-4.05,1.02-.73,2.09-1.38,3.27-1.78,1.17-.41,2.35-.81,3.61-.9.71-.05,1.41-.16,2.12-.14,1.77.03,3.47.38,5.13,1,1.65.62,3.14,1.52,4.5,2.65,1.17.97,2.13,2.12,2.94,3.4.58.9,1.03,1.86,1.42,2.87.21.55.36,1.12.55,1.68.17.51.21,1.06.27,1.6.35,3.19.08,6.39.17,9.58-1,.04-2,.05-3,0,0-2.28-.02-4.57.01-6.85.02-1.31-.15-2.6-.47-3.87-.45-1.78-1.28-3.39-2.48-4.76-1.47-1.68-3.26-2.95-5.42-3.64-1.53-.49-3.08-.64-4.69-.54-1.49.09-2.89.44-4.22,1.06-2.21,1.03-3.95,2.61-5.24,4.69-1.11,1.79-1.72,3.76-1.8,5.84-.1,2.69-.02,5.38-.02,8.08Z"/><path class="cls-13" d="m126.11,314.18c0-2.42.02-4.85,0-7.27-.01-1.29-.19-2.56-.71-3.76-.41-.95-.96-1.81-1.64-2.6-1.01-1.18-2.27-1.99-3.7-2.51-1.32-.48-2.7-.64-4.13-.46-.87.11-1.71.31-2.49.65-2.18.95-3.78,2.51-4.77,4.69-.46,1.02-.65,2.09-.7,3.2-.13,2.69-.02,5.38-.06,8.06-1.02.02-2.04.04-3.06-.01,0-2.69-.08-5.39.02-8.08.08-2.08.68-4.05,1.8-5.84,1.29-2.08,3.03-3.66,5.24-4.69,1.33-.62,2.73-.97,4.22-1.06,1.61-.09,3.16.06,4.69.54,2.16.69,3.94,1.95,5.42,3.64,1.2,1.38,2.03,2.98,2.48,4.76.32,1.27.49,2.55.47,3.87-.03,2.28-.01,4.57-.01,6.85-1.02.05-2.04.04-3.07,0Z"/><path class="cls-24" d="m117,335.48c-1.14,0-2.27-.02-3.41,0-.33,0-.41-.1-.4-.41.02-.62-.01-1.25.13-1.85.15-.62.34-1.22.5-1.83.22-.83.44-1.66.64-2.49.07-.31.18-.6.27-.9.14-.49,0-.88-.35-1.14-1.12-.83-1.25-1.97-1.14-3.22.06-.03.06-.08.03-.14.34-1.51,1.28-2.47,2.7-3.02.34-.13.7-.05,1.02-.21.15.02.31.04.46.07.03.08.07.12.14.03.08.02.16.04.24.05.04.11.14.08.22.08,1.58.51,2.98,2.5,2.68,4.16-.14.79-.4,1.48-.99,2.03-.36.33-.78.65-.56,1.25.14.39.25.78.36,1.18.38,1.48.81,2.94,1.17,4.43.13.55.09,1.14.08,1.71,0,.25-.17.21-.32.21-1.16,0-2.32,0-3.48.01Z"/><path class="cls-13" d="m118.07,320.49c-.09,0-.18.03-.22-.08.1-.05.17,0,.22.08Z"/><path class="cls-13" d="m117.6,320.36c-.07.09-.11.05-.14-.03.06-.03.1-.02.14.03Z"/><path class="cls-35" d="m113.28,323.49c.03.06.03.1-.03.14-.08-.07-.03-.1.03-.14Z"/><circle class="cls-3" cx="117.13" cy="318.02" r="39.02"/></svg>