<?xml version="1.0" encoding="UTF-8"?><svg id="Layer_1" xmlns="http://www.w3.org/2000/svg" viewBox="0 0 400 262"><defs><style>.cls-1{stroke:#000;}.cls-1,.cls-2{stroke-width:4px;}.cls-1,.cls-2,.cls-3{stroke-miterlimit:10;}.cls-1,.cls-2,.cls-3,.cls-4{fill:none;}.cls-5{fill:#546e7a;}.cls-2{stroke:#c000e2;}.cls-6{fill:#ffed58;}.cls-3{stroke:#231f20;stroke-width:2px;}.cls-7{fill:gray;}.cls-8{fill:#36464e;}.cls-9{fill:#788f9b;}.cls-10{fill:#fbd734;}.cls-11{fill:#231f20;}</style></defs><line class="cls-4" x1="200.28" y1="115.48" x2="200.78" y2="148.26"/><line class="cls-3" x1="200.28" y1="115.48" x2="200.61" y2="137.5"/><polygon class="cls-11" points="193.1 135.42 200.78 148.26 208.06 135.2 193.1 135.42"/><line class="cls-4" x1="118.68" y1="111.22" x2="167.32" y2="150.52"/><line class="cls-3" x1="118.68" y1="111.22" x2="158.95" y2="143.76"/><polygon class="cls-11" points="152.55 148.2 167.32 150.53 161.95 136.57 152.55 148.2"/><line class="cls-4" x1="281.32" y1="111.22" x2="232.68" y2="150.52"/><line class="cls-3" x1="281.32" y1="111.22" x2="241.05" y2="143.76"/><polygon class="cls-11" points="238.05 136.57 232.68 150.52 247.45 148.2 238.05 136.57"/><circle class="cls-2" cx="202.11" cy="64.17" r="45"/><path d="m167.41,60.67c-2.32-.4-3.88-2.61-3.48-4.94.02-.12.05-.24.08-.36.3-1.45,1.32-2.66,2.7-3.2l.6,1.9c-.76.27-1.32.91-1.5,1.7-.34,1.29.43,2.61,1.72,2.94.09.02.19.04.28.06,1.24.37,2.55-.33,2.93-1.57.03-.11.06-.22.07-.33.23-.79,0-1.64-.6-2.2l1.3-1.4c1.04,1.05,1.49,2.55,1.2,4-.48,2.38-2.8,3.91-5.18,3.43-.04,0-.08-.02-.12-.03Z"/><path d="m170.81,52.17c-1.6-.82-2.23-2.79-1.4-4.39,0,0,0,0,0,0,.77-1.6,2.68-2.27,4.28-1.51,0,0,.01,0,.02,0,1.6.82,2.23,2.79,1.4,4.39,0,0,0,0,0,0-.77,1.6-2.68,2.27-4.28,1.51,0,0-.01,0-.02,0Zm2.1-4.2c-.68-.36-1.53-.1-1.89.58,0,0,0,.01,0,.02-.36.65-.12,1.46.53,1.82.06.03.11.06.17.08.68.36,1.53.1,1.89-.58,0,0,0-.01,0-.02.36-.65.12-1.46-.53-1.82-.06-.03-.11-.06-.17-.08Z"/><path d="m180,37.87l2.8,2.5-1.2,1.4-2.7-2.4c-.5-.4-.9-.5-1.3,0-.37.41-.33,1.05.08,1.41.04.03.07.06.12.09l2.6,2.3-1.2,1.4-2.7-2.4c-.5-.4-.9-.5-1.3,0-.37.41-.33,1.05.08,1.41.04.03.07.06.12.09l2.6,2.3-1.2,1.4-4.5-4.1,1.2-1.4.4.4c-.11-.63.11-1.28.6-1.7.43-.47,1.07-.7,1.7-.6-.12-.69.1-1.4.6-1.9.86-.94,2.31-1.01,3.25-.15.05.05.1.1.15.15l-.2-.2Z"/><path d="m185.11,31.79l3.3,5.2-1.6,1-.3-.5c-.08.68-.49,1.28-1.1,1.6-1.04.69-2.45.41-3.15-.63-.06-.09-.11-.17-.15-.27l-2-3.2,1.6-1,1.9,3c.27.52.92.71,1.43.44.02-.01.04-.02.07-.04.6-.4.8-.9.3-1.7l-1.8-2.8,1.6-1-.1-.1Z"/><path d="m193.51,31.07l1.3,3.5-1.7.6-1.2-3.3c-.11-.54-.64-.89-1.19-.77-.07.02-.15.04-.21.07-.63.24-.95.94-.71,1.57,0,0,0,.02.01.03l1.1,3.2-1.7.6-2.1-5.8,1.7-.6.2.5c.25-.62.76-1.09,1.4-1.3,1.15-.45,2.44.11,2.89,1.25.04.11.08.23.11.35l.1.1Z"/><path d="m194.11,26.87c-.11-.61.29-1.19.9-1.3.61-.11,1.19.29,1.3.9.11.61-.29,1.19-.9,1.3,0,0,0,0,0,0-.61.1-1.18-.3-1.3-.9Zm.5,1.6l1.8-.3,1.1,6-1.8.3-1.1-6Z"/><path d="m198.21,30.87c-.08-1.74,1.27-3.22,3.02-3.3.03,0,.06,0,.08,0,1.13-.03,2.2.54,2.8,1.5l-1.6,1c-.25-.43-.7-.7-1.2-.7-.7-.03-1.29.52-1.32,1.22,0,.09,0,.19.02.28-.02.76.58,1.38,1.34,1.4.02,0,.04,0,.06,0,.5,0,.95-.27,1.2-.7l1.6.9c-.53,1.01-1.56,1.65-2.7,1.7-1.71.11-3.18-1.19-3.29-2.89,0-.07,0-.14,0-.21v-.2Z"/><path d="m211.81,28.87l-1.1,6-1.8-.3v-.6c-.48.45-1.17.61-1.8.4-1.66-.39-2.69-2.04-2.3-3.7,0,0,0,0,0,0,.25-1.7,1.8-2.89,3.5-2.7.71.08,1.34.49,1.7,1.1v-.6c.1,0,1.9.3,1.9.3l-.1.1Zm-2.4,2.7c.21-.7-.18-1.43-.88-1.65-.1-.03-.21-.05-.32-.05-.75-.18-1.5.29-1.67,1.03-.01.05-.02.11-.03.17-.21.7.18,1.43.88,1.65.1.03.21.05.32.05.75.18,1.5-.29,1.67-1.03.01-.05.02-.11.03-.17Z"/><path d="m215.31,32.07l-.8,2c-.2.5.2.7,1,1l-.6,1.6c-2.3-.6-2.7-1.6-2.1-3.2l.8-2-.9-.4.6-1.6.9.4.4-1.1,1.9.2-.6,1.6,1.2.5-.6,1.6-1.2-.5v-.1Z"/><path d="m218.51,31.57l1.6.9-2.9,5.4-1.6-.9,2.9-5.4Zm.6-1.5c.28-.55.95-.78,1.5-.5s.78.95.5,1.5c-.28.55-.95.78-1.5.5,0,0,0,0,0,0-.49-.32-.7-.94-.5-1.5Z"/><path d="m219.81,35.67c1.08-1.41,3.09-1.68,4.5-.6,1.41,1.08,1.68,3.09.6,4.5-1.01,1.4-2.96,1.72-4.35.71-.05-.04-.1-.07-.15-.11-1.41-1.07-1.68-3.08-.61-4.48,0,0,0-.01.01-.02Zm3.7,2.8c.5-.61.41-1.5-.2-2,0,0,0,0,0,0-.58-.48-1.44-.4-1.91.18-.03.04-.06.08-.09.12-.5.61-.41,1.5.2,2,0,0,0,0,0,0,.58.48,1.44.4,1.91-.18.03-.04.06-.08.09-.12Z"/><path d="m230.21,44.57l-2.9,2.4-1.2-1.4,2.7-2.2c.46-.3.59-.92.29-1.38-.03-.04-.06-.08-.09-.12-.4-.5-1-.6-1.7,0l-2.6,2.1-1.2-1.4,4.7-3.9,1.2,1.4-.4.4c.68-.01,1.32.33,1.7.9.82.97.7,2.41-.27,3.23-.07.06-.15.12-.23.17v-.2Z"/><path d="m228.81,46.79l4,1.2c.57.25,1.23.25,1.8,0,.43-.21.62-.73.41-1.16,0-.01-.01-.03-.02-.04-.3-.48-.84-.75-1.4-.7v-1.9c1.29-.14,2.53.54,3.1,1.7.78,1.23.42,2.86-.82,3.64-.09.06-.19.11-.28.16-.95.45-2.05.45-3,0l-1.9-.6,1.3,2.5-1.7.9-2.7-5.2,1.3-.7-.09.2Z"/><path d="m236.61,60.27c-2.17.61-4.42-.65-5.03-2.82-.03-.09-.05-.18-.07-.28-.67-2.41.73-4.91,3.14-5.58.02,0,.04-.01.06-.02,2.35-.61,4.75.8,5.36,3.15.01.05.02.1.04.15.42,1.45.04,3.01-1,4.1l-1.3-1.4c.55-.63.73-1.5.5-2.3-.26-1.29-1.52-2.13-2.81-1.88-.1.02-.19.05-.29.08-1.32.28-2.17,1.59-1.88,2.91.02.1.05.2.08.29.13.94.86,1.67,1.8,1.8l-.5-2.2,1.7-.4,1,4.2-.7.2h-.1Z"/><path class="cls-7" d="m214.91,52.17c-8.5-.2-17.8-.2-26.3,0-14.8,1.9-22,20.9-11.6,31.8,2.2,3.3-1.6,9.5,2.3,11.8,3.3,1,5.2-3.4,7.4-5.1,9.2-1,20.3.5,29.8-.5,22.1-2.9,20.7-37.2-1.6-38.2v.2Z"/><path d="m186.11,79.97v-3.3l5.9-6.2c.47-.5.91-1.03,1.3-1.6.27-.34.41-.77.4-1.2.02-.41-.12-.8-.4-1.1-.33-.29-.76-.44-1.2-.4-1.14,0-2.13.79-2.4,1.9l-3.9-2.2c.52-1.25,1.38-2.33,2.5-3.1,1.11-.68,2.4-1.02,3.7-1,1.59.02,3.13.55,4.4,1.5,1.2,1.02,1.86,2.53,1.8,4.1.11,1.02-.14,2.04-.7,2.9-.59,1.01-1.3,1.95-2.1,2.8l-2.4,2.5h5.6v4.4h-12.5Z"/><path d="m217.91,69.79v1.8c.09,2.39-.81,4.71-2.5,6.4-1.72,1.63-4.03,2.5-6.4,2.4-2.57.05-5.05-.92-6.9-2.7-3.65-3.62-3.67-9.51-.05-13.15,1.76-1.77,4.15-2.76,6.65-2.75,1.61-.12,3.22.26,4.6,1.1,1.35.64,2.47,1.69,3.2,3l-3.9,2.2c-.39-.59-.95-1.04-1.61-1.3-.73-.32-1.51-.49-2.3-.5-2.64-.07-4.83,2.02-4.9,4.66,0,.08,0,.16,0,.24-.04,1.29.42,2.55,1.3,3.5.99,1.02,2.39,1.53,3.8,1.4,1.69.08,3.29-.81,4.1-2.3h-4.3v-3.9h9l.21-.1Z"/><path class="cls-10" d="m333.12,59.97c.56,0,1.12.02,1.68.03.95,0,1.73.78,1.75,1.74.01.88,0,1.76,0,2.63,0,7.43,0,14.85,0,22.28,0,.48-.02.98-.16,1.44-.17.55-.85,1.05-1.43,1.05-6.29,0-12.58,0-18.86,0-.03,0-.06,0-.09-.01,0-1.71,0-3.42,0-5.13,1.31,0,2.62,0,3.93-.01.17,0,.36.04.36-.23.01-.65.06-1.31-.09-1.93-.41-1.67-.89-3.33-1.32-4.99-.12-.45-.24-.9-.4-1.33-.25-.68.22-1.04.63-1.42.68-.62.96-1.4,1.12-2.3.34-1.87-1.24-4.12-3.02-4.69-.06-.1-.14-.15-.25-.09-.09-.02-.18-.04-.27-.06-.04-.06-.09-.07-.16-.04-.17-.02-.35-.05-.52-.07,0-2.27,0-4.54,0-6.81,3.22,0,6.45-.01,9.67-.02.2,0,.4-.02.6-.02,1.15.04,2.31.05,3.46,0,1.13.06,2.26.05,3.39,0Z"/><path class="cls-6" d="m316,83.99c0,1.71,0,3.42,0,5.13-.65,0-1.29.01-1.94.01-5.48,0-10.97-.03-16.45.02-1.44.01-2.19-.77-2.18-2.19.05-8.39.03-16.78,0-25.17,0-1.01.81-1.81,1.77-1.79.56.01,1.12-.01,1.68-.02,1.13.03,2.26.06,3.39-.01,1.15.07,2.3.04,3.45.01.19,0,.37.02.56.02,3.24,0,6.48,0,9.71.01,0,2.27,0,4.54,0,6.81-.36.17-.77.09-1.15.24-1.6.62-2.66,1.7-3.04,3.41-.07.04-.12.08-.03.15-.13,1.41.02,2.7,1.28,3.63.4.29.55.74.39,1.29-.1.34-.23.67-.31,1.01-.22.94-.47,1.88-.72,2.81-.18.69-.4,1.37-.56,2.07-.16.69-.12,1.39-.15,2.09-.01.35.08.47.45.46,1.28-.02,2.56,0,3.84,0Z"/><path class="cls-9" d="m302.27,59.96c-1.13.07-2.26.04-3.39.01,0-3.05-.02-6.1.02-9.15.02-1.41.21-2.81.62-4.18.49-1.65,1.19-3.2,2.14-4.63,1.18-1.79,2.65-3.31,4.4-4.56,1.15-.82,2.36-1.55,3.68-2.01,1.32-.46,2.65-.91,4.07-1.01.8-.06,1.59-.18,2.39-.16,1.99.03,3.92.43,5.78,1.13,1.87.7,3.55,1.72,5.08,2.99,1.32,1.1,2.4,2.4,3.32,3.83.65,1.02,1.17,2.1,1.61,3.23.24.62.41,1.27.62,1.9.2.57.23,1.2.3,1.81.39,3.6.1,7.21.19,10.81-1.13.04-2.26.06-3.39,0,0-2.58-.02-5.15.01-7.73.02-1.48-.17-2.93-.53-4.36-.51-2.01-1.44-3.82-2.8-5.37-1.66-1.9-3.68-3.33-6.11-4.1-1.73-.55-3.48-.72-5.3-.61-1.68.1-3.26.5-4.76,1.2-2.5,1.16-4.46,2.94-5.92,5.29-1.26,2.02-1.94,4.24-2.03,6.59-.11,3.03-.02,6.07-.02,9.11Z"/><path class="cls-5" d="m326.27,59.97c0-2.73.02-5.47,0-8.2-.02-1.45-.22-2.89-.8-4.24-.46-1.07-1.08-2.04-1.85-2.94-1.14-1.33-2.57-2.25-4.18-2.83-1.49-.54-3.05-.72-4.65-.52-.98.12-1.93.35-2.81.73-2.46,1.07-4.27,2.83-5.38,5.29-.52,1.15-.73,2.36-.79,3.61-.15,3.03-.02,6.07-.07,9.1-1.15.02-2.3.05-3.45-.02,0-3.04-.09-6.08.02-9.11.09-2.34.77-4.57,2.03-6.59,1.46-2.34,3.42-4.12,5.92-5.29,1.5-.7,3.08-1.1,4.76-1.2,1.82-.11,3.57.07,5.3.61,2.44.77,4.45,2.2,6.11,4.1,1.36,1.55,2.29,3.36,2.8,5.37.36,1.43.55,2.88.53,4.36-.03,2.58-.01,5.15-.01,7.73-1.15.06-2.31.04-3.46,0Z"/><path class="cls-8" d="m316,83.99c-1.28,0-2.56-.02-3.84,0-.37,0-.46-.11-.45-.46.03-.7-.02-1.41.15-2.09.17-.69.38-1.38.56-2.07.25-.94.5-1.87.72-2.81.08-.34.21-.68.31-1.01.16-.55,0-.99-.39-1.29-1.26-.93-1.41-2.23-1.28-3.63.07-.04.07-.09.03-.15.38-1.7,1.44-2.78,3.04-3.41.38-.15.79-.06,1.15-.24.17.02.35.05.52.07.03.09.08.14.16.04.09.02.18.04.27.06.05.12.15.1.25.09,1.78.57,3.36,2.82,3.02,4.69-.16.9-.45,1.67-1.12,2.3-.41.38-.88.73-.63,1.42.16.43.29.88.4,1.33.43,1.67.91,3.32,1.32,4.99.15.62.1,1.28.09,1.93,0,.28-.19.23-.36.23-1.31,0-2.62,0-3.93.01Z"/><path class="cls-5" d="m317.2,67.09c-.1,0-.2.03-.25-.09.11-.05.19,0,.25.09Z"/><path class="cls-5" d="m316.68,66.94c-.08.1-.12.05-.16-.04.06-.04.12-.02.16.04Z"/><path class="cls-9" d="m311.81,70.46c.04.06.04.12-.03.15-.09-.07-.03-.12.03-.15Z"/><circle class="cls-1" cx="316.15" cy="64.3" r="44.02"/><path class="cls-10" d="m104.12,55.97c.56,0,1.12.02,1.68.03.95,0,1.73.78,1.75,1.74.01.88,0,1.76,0,2.63,0,7.43,0,14.85,0,22.28,0,.48-.02.98-.16,1.44-.17.55-.85,1.05-1.43,1.05-6.29,0-12.58,0-18.86,0-.03,0-.06,0-.09-.01,0-1.71,0-3.42,0-5.13,1.31,0,2.62,0,3.93-.01.17,0,.36.04.36-.23.01-.65.06-1.31-.09-1.93-.41-1.67-.89-3.33-1.32-4.99-.12-.45-.24-.9-.4-1.33-.25-.68.22-1.04.63-1.42.68-.62.96-1.4,1.12-2.3.34-1.87-1.24-4.12-3.02-4.69-.06-.1-.14-.15-.25-.09-.09-.02-.18-.04-.27-.06-.04-.06-.09-.07-.16-.04-.17-.02-.35-.05-.52-.07,0-2.27,0-4.54,0-6.81,3.22,0,6.45-.01,9.67-.02.2,0,.4-.02.6-.02,1.15.04,2.31.05,3.46,0,1.13.06,2.26.05,3.39,0Z"/><path class="cls-6" d="m87,79.99c0,1.71,0,3.42,0,5.13-.65,0-1.29.01-1.94.01-5.48,0-10.97-.03-16.45.02-1.44.01-2.19-.77-2.18-2.19.05-8.39.03-16.78,0-25.17,0-1.01.81-1.81,1.77-1.79.56.01,1.12-.01,1.68-.02,1.13.03,2.26.06,3.39-.01,1.15.07,2.3.04,3.45.01.19,0,.37.02.56.02,3.24,0,6.48,0,9.71.01,0,2.27,0,4.54,0,6.81-.36.17-.77.09-1.15.24-1.6.62-2.66,1.7-3.04,3.41-.07.04-.12.08-.03.15-.13,1.41.02,2.7,1.28,3.63.4.29.55.74.39,1.29-.1.34-.23.67-.31,1.01-.22.94-.47,1.88-.72,2.81-.18.69-.4,1.37-.56,2.07-.16.69-.12,1.39-.15,2.09-.01.35.08.47.45.46,1.28-.02,2.56,0,3.84,0Z"/><path class="cls-9" d="m73.27,55.96c-1.13.07-2.26.04-3.39.01,0-3.05-.02-6.1.02-9.15.02-1.41.21-2.81.62-4.18.49-1.65,1.19-3.2,2.14-4.63,1.18-1.79,2.65-3.31,4.4-4.56,1.15-.82,2.36-1.55,3.68-2.01,1.32-.46,2.65-.91,4.07-1.01.8-.06,1.59-.18,2.39-.16,1.99.03,3.92.43,5.78,1.13,1.87.7,3.55,1.72,5.08,2.99,1.32,1.1,2.4,2.4,3.32,3.83.65,1.02,1.17,2.1,1.61,3.23.24.62.41,1.27.62,1.9.2.57.23,1.2.3,1.81.39,3.6.1,7.21.19,10.81-1.13.04-2.26.06-3.39,0,0-2.58-.02-5.15.01-7.73.02-1.48-.17-2.93-.53-4.36-.51-2.01-1.44-3.82-2.8-5.37-1.66-1.9-3.68-3.33-6.11-4.1-1.73-.55-3.48-.72-5.3-.61-1.68.1-3.26.5-4.76,1.2-2.5,1.16-4.46,2.94-5.92,5.29-1.26,2.02-1.94,4.24-2.03,6.59-.11,3.03-.02,6.07-.02,9.11Z"/><path class="cls-5" d="m97.27,55.97c0-2.73.02-5.47,0-8.2-.02-1.45-.22-2.89-.8-4.24-.46-1.07-1.08-2.04-1.85-2.94-1.14-1.33-2.57-2.25-4.18-2.83-1.49-.54-3.05-.72-4.65-.52-.98.12-1.93.35-2.81.73-2.46,1.07-4.27,2.83-5.38,5.29-.52,1.15-.73,2.36-.79,3.61-.15,3.03-.02,6.07-.07,9.1-1.15.02-2.3.05-3.45-.02,0-3.04-.09-6.08.02-9.11.09-2.34.77-4.57,2.03-6.59,1.46-2.34,3.42-4.12,5.92-5.29,1.5-.7,3.08-1.1,4.76-1.2,1.82-.11,3.57.07,5.3.61,2.44.77,4.45,2.2,6.11,4.1,1.36,1.55,2.29,3.36,2.8,5.37.36,1.43.55,2.88.53,4.36-.03,2.58-.01,5.15-.01,7.73-1.15.06-2.31.04-3.46,0Z"/><path class="cls-8" d="m87,79.99c-1.28,0-2.56-.02-3.84,0-.37,0-.46-.11-.45-.46.03-.7-.02-1.41.15-2.09.17-.69.38-1.38.56-2.07.25-.94.5-1.87.72-2.81.08-.34.21-.68.31-1.01.16-.55,0-.99-.39-1.29-1.26-.93-1.41-2.23-1.28-3.63.07-.04.07-.09.03-.15.38-1.7,1.44-2.78,3.04-3.41.38-.15.79-.06,1.15-.24.17.02.35.05.52.07.03.09.08.14.16.04.09.02.18.04.27.06.05.12.15.1.25.09,1.78.57,3.36,2.82,3.02,4.69-.16.9-.45,1.67-1.12,2.3-.41.38-.88.73-.63,1.42.16.43.29.88.4,1.33.43,1.67.91,3.32,1.32,4.99.15.62.1,1.28.09,1.93,0,.28-.19.23-.36.23-1.31,0-2.62,0-3.93.01Z"/><path class="cls-5" d="m88.2,63.09c-.1,0-.2.03-.25-.09.11-.05.19,0,.25.09Z"/><path class="cls-5" d="m87.68,62.94c-.08.1-.12.05-.16-.04.06-.04.12-.02.16.04Z"/><path class="cls-9" d="m82.81,66.46c.04.06.04.12-.03.15-.09-.07-.03-.12.03-.15Z"/><circle class="cls-1" cx="87.15" cy="60.3" r="44.02"/><path class="cls-10" d="m216.12,198.97c.56,0,1.12.02,1.68.03.95,0,1.73.78,1.75,1.74.01.88,0,1.76,0,2.63,0,7.43,0,14.85,0,22.28,0,.48-.02.98-.16,1.44-.17.55-.85,1.05-1.43,1.05-6.29,0-12.58,0-18.86,0-.03,0-.06,0-.09-.01,0-1.71,0-3.42,0-5.13,1.31,0,2.62,0,3.93-.01.17,0,.36.04.36-.23.01-.65.06-1.31-.09-1.93-.41-1.67-.89-3.33-1.32-4.99-.12-.45-.24-.9-.4-1.33-.25-.68.22-1.04.63-1.42.68-.62.96-1.4,1.12-2.3.34-1.87-1.24-4.12-3.02-4.69-.06-.1-.14-.15-.25-.09-.09-.02-.18-.04-.27-.06-.04-.06-.09-.07-.16-.04-.17-.02-.35-.05-.52-.07,0-2.27,0-4.54,0-6.81,3.22,0,6.45-.01,9.67-.02.2,0,.4-.02.6-.02,1.15.04,2.31.05,3.46,0,1.13.06,2.26.05,3.39,0Z"/><path class="cls-6" d="m199,222.99c0,1.71,0,3.42,0,5.13-.65,0-1.29.01-1.94.01-5.48,0-10.97-.03-16.45.02-1.44.01-2.19-.77-2.18-2.19.05-8.39.03-16.78,0-25.17,0-1.01.81-1.81,1.77-1.79.56.01,1.12-.01,1.68-.02,1.13.03,2.26.06,3.39-.01,1.15.07,2.3.04,3.45.01.19,0,.37.02.56.02,3.24,0,6.48,0,9.71.01,0,2.27,0,4.54,0,6.81-.36.17-.77.09-1.15.24-1.6.62-2.66,1.7-3.04,3.41-.07.04-.12.08-.03.15-.13,1.41.02,2.7,1.28,3.63.4.29.55.74.39,1.29-.1.34-.23.67-.31,1.01-.22.94-.47,1.88-.72,2.81-.18.69-.4,1.37-.56,2.07-.16.69-.12,1.39-.15,2.09-.01.35.08.47.45.46,1.28-.02,2.56,0,3.84,0Z"/><path class="cls-9" d="m185.27,198.96c-1.13.07-2.26.04-3.39.01,0-3.05-.02-6.1.02-9.15.02-1.41.21-2.81.62-4.18.49-1.65,1.19-3.2,2.14-4.63,1.18-1.79,2.65-3.31,4.4-4.56,1.15-.82,2.36-1.55,3.68-2.01,1.32-.46,2.65-.91,4.07-1.01.8-.06,1.59-.18,2.39-.16,1.99.03,3.92.43,5.78,1.13,1.87.7,3.55,1.72,5.08,2.99,1.32,1.1,2.4,2.4,3.32,3.83.65,1.02,1.17,2.1,1.61,3.23.24.62.41,1.27.62,1.9.2.57.23,1.2.3,1.81.39,3.6.1,7.21.19,10.81-1.13.04-2.26.06-3.39,0,0-2.58-.02-5.15.01-7.73.02-1.48-.17-2.93-.53-4.36-.51-2.01-1.44-3.82-2.8-5.37-1.66-1.9-3.68-3.33-6.11-4.1-1.73-.55-3.48-.72-5.3-.61-1.68.1-3.26.5-4.76,1.2-2.5,1.16-4.46,2.94-5.92,5.29-1.26,2.02-1.94,4.24-2.03,6.59-.11,3.03-.02,6.07-.02,9.11Z"/><path class="cls-5" d="m209.27,198.97c0-2.73.02-5.47,0-8.2-.02-1.45-.22-2.89-.8-4.24-.46-1.07-1.08-2.04-1.85-2.94-1.14-1.33-2.57-2.25-4.18-2.83-1.49-.54-3.05-.72-4.65-.52-.98.12-1.93.35-2.81.73-2.46,1.07-4.27,2.83-5.38,5.29-.52,1.15-.73,2.36-.79,3.61-.15,3.03-.02,6.07-.07,9.1-1.15.02-2.3.05-3.45-.02,0-3.04-.09-6.08.02-9.11.09-2.34.77-4.57,2.03-6.59,1.46-2.34,3.42-4.12,5.92-5.29,1.5-.7,3.08-1.1,4.76-1.2,1.82-.11,3.57.07,5.3.61,2.44.77,4.45,2.2,6.11,4.1,1.36,1.55,2.29,3.36,2.8,5.37.36,1.43.55,2.88.53,4.36-.03,2.58-.01,5.15-.01,7.73-1.15.06-2.31.04-3.46,0Z"/><path class="cls-8" d="m199,222.99c-1.28,0-2.56-.02-3.84,0-.37,0-.46-.11-.45-.46.03-.7-.02-1.41.15-2.09.17-.69.38-1.38.56-2.07.25-.94.5-1.87.72-2.81.08-.34.21-.68.31-1.01.16-.55,0-.99-.39-1.29-1.26-.93-1.41-2.23-1.28-3.63.07-.04.07-.09.03-.15.38-1.7,1.44-2.78,3.04-3.41.38-.15.79-.06,1.15-.24.17.02.35.05.52.07.03.09.08.14.16.04.09.02.18.04.27.06.05.12.15.1.25.09,1.78.57,3.36,2.82,3.02,4.69-.16.9-.45,1.67-1.12,2.3-.41.38-.88.73-.63,1.42.16.43.29.88.4,1.33.43,1.67.91,3.32,1.32,4.99.15.62.1,1.28.09,1.93,0,.28-.19.23-.36.23-1.31,0-2.62,0-3.93.01Z"/><path class="cls-5" d="m200.2,206.09c-.1,0-.2.03-.25-.09.11-.05.19,0,.25.09Z"/><path class="cls-5" d="m199.68,205.94c-.08.1-.12.05-.16-.04.06-.04.12-.02.16.04Z"/><path class="cls-9" d="m194.81,209.46c.04.06.04.12-.03.15-.09-.07-.03-.12.03-.15Z"/><circle class="cls-1" cx="199.15" cy="203.3" r="44.02"/></svg>