<?xml version="1.0" encoding="UTF-8"?><svg id="Layer_1" xmlns="http://www.w3.org/2000/svg" viewBox="0 0 400 266"><defs><style>.cls-1{stroke:#a5262d;}.cls-1,.cls-2,.cls-3{stroke-width:4px;}.cls-1,.cls-2,.cls-3,.cls-4{stroke-miterlimit:10;}.cls-1,.cls-2,.cls-3,.cls-4,.cls-5{fill:none;}.cls-6{fill:#7da1b1;}.cls-7{fill:#8fbac5;}.cls-2{stroke:#000;}.cls-3{stroke:#0018c6;}.cls-8{fill:#546e7a;}.cls-9{fill:#f1f6f6;}.cls-10{fill:#4d4d4d;}.cls-11{fill:#02f1a6;}.cls-12{fill:#ffed58;}.cls-4{stroke:#231f20;stroke-width:2px;}.cls-13{fill:#36464e;}.cls-14{fill:#fde077;}.cls-15{fill:#fee077;}.cls-16{fill:#ddebf0;}.cls-17{fill:#fed05b;}.cls-18{fill:#788f9b;}.cls-19{fill:#fec345;}.cls-20{fill:#fee078;}.cls-21{fill:#cee5ec;}.cls-22{fill:#fdd15b;}.cls-23{fill:#fbd734;}.cls-24{fill:#231f20;}.cls-25{fill:#f2f2f2;}</style></defs><circle class="cls-1" cx="202.14" cy="62.88" r="45"/><path d="m184.74,38.88l1.9,2-5.4,5-8.6-9.3,2.1-2,6.7,7.2,3.3-3.1v.2Z"/><path d="m181.14,31.08c-.5-.8-.2-1.8.6-2.2.8-.5,1.8-.2,2.2.6.5.8.2,1.8-.6,2.2-.8.5-1.8.2-2.2-.6Zm1.5,1.9l2.3-1.4,4.6,7.7-2.3,1.4-4.6-7.7Z"/><path d="m191.74,31.48l1.1,3c.3.7.9.6,2,0l.8,2.3c-3.2,1.6-4.5.9-5.4-1.5l-1.1-3-1.4.5-.9-2.4,1.4-.5-.6-1.6,2.3-1.7.9,2.4,1.7-.6.9,2.4-1.7.6v.1Z"/><path d="m204.64,30.28l.5,5.5-2.7.2-.4-5.1c0-1.1-.8-1.6-1.7-1.5-1,0-1.6.7-1.5,2l.4,4.9-2.7.2-1-12.6,2.7-.2.4,4.4c.4-.7,1.3-1.2,2.5-1.3,1.8-.2,3.5,1,3.7,3.4l-.2.1Z"/><path d="m207.64,27.28l2.7.4-1.4,8.9-2.7-.4,1.4-8.9Zm.1-2.4c.1-.9,1-1.5,1.9-1.4s1.5,1,1.4,1.9-1,1.5-1.9,1.4-1.5-1-1.4-1.9Z"/><path d="m221.54,31.58l-3.5,8.3-2.5-1,.3-.8c-.7.4-1.7.5-2.8,0-1.7-.7-2.6-2.5-1.7-4.7l2.1-5.1,2.5,1-2,4.7c-.4,1,0,1.8.8,2.1.9.4,1.8.1,2.3-1.1l1.9-4.5,2.5,1,.1.1Z"/><path d="m232.54,45.88l-4,3.8-1.9-1.9,3.8-3.7c.6-.6.8-1.3.2-2-.6-.6-1.4-.6-2.2.2l-3.7,3.5-1.9-1.9,3.8-3.7c.6-.6.8-1.3.2-2-.6-.6-1.4-.6-2.2.2l-3.7,3.5-1.9-1.9,6.5-6.3,1.9,1.9-.6.6c.7-.1,1.6.1,2.5,1,.7.8,1,1.6.8,2.5.9-.1,1.8.1,2.7,1.1,1.4,1.5,1.3,3.5-.3,5.1Z"/><rect class="cls-10" x="175.14" y="52.88" width="52" height="37" rx="2.9" ry="2.9"/><path class="cls-25" d="m196.34,77.38h8.1v5.8h-14.2v-23.6h6v17.8h.1Z"/><path class="cls-25" d="m211.54,63.98c-.6.6-1.4,1-2.3,1s-1.6-.3-2.3-1c-.6-.6-1-1.4-1-2.3s.3-1.6,1-2.3c.6-.6,1.4-.9,2.3-.9s1.6.3,2.3.9c.6.6,1,1.4,1,2.3s-.3,1.6-1,2.3Zm-5.1,19.2v-16.9h5.6v16.9h-5.6Z"/><circle class="cls-3" cx="202.14" cy="205.12" r="45"/><path class="cls-7" d="m190.94,241.12c-.81-.23-1.58-.57-2.3-1-1.52-1.03-2.39-2.77-2.3-4.6v-42.9c-.05-2.63,1.81-4.92,4.4-5.4h21.6c0,.2.1.2.2.2,1.33.37,2.47,1.23,3.2,2.4.39.52.6,1.15.6,1.8,0,0-.2-.2-.2-.3-.51-.83-1.42-1.33-2.4-1.3h-3.8c-.64-.04-1.23.32-1.5.9-.2.3-.3.7-.5,1-.28.69-.96,1.13-1.7,1.1h-6.7c-.27.02-.54-.01-.8-.1-.37-.24-.65-.59-.8-1l-.6-1.2c-.2-.42-.63-.7-1.1-.7h-4.8c-1.37.32-2.31,1.59-2.2,3v42.5c-.02,1.48,1.12,2.71,2.6,2.8h22c.45,0,.9-.1,1.3-.3.52-.3.94-.76,1.2-1.3v.2c-.41,1.91-1.83,3.44-3.7,4-.1,0-.4,0-.4.2h-21.3Zm11.9-50.26h1.8c.35.04.66-.21.7-.55,0-.05,0-.1,0-.15,0-.5-.2-.9-.7-.9h-3.5c-.5,0-.7.4-.7.9s.3.6.7.7h1.7Z"/><path class="cls-6" d="m212.34,241.12c0-.3.2-.2.4-.2,1.83-.62,3.22-2.13,3.7-4v-.2c.17-.55.24-1.13.2-1.7v-41.8c.03-.57-.04-1.15-.2-1.7-.03-.64-.24-1.27-.6-1.8-.71-1.19-1.86-2.06-3.2-2.4-.1,0-.2,0-.2-.2h2.4c.66.14,1.3.38,1.9.7,1.73,1.01,2.77,2.89,2.7,4.9v42.7c.1,2.73-1.82,5.11-4.5,5.6h-2.5l-.1.1Z"/><path class="cls-9" d="m198.64,192.86c.3,0,.5.1.8.1h6.7c.75.07,1.46-.38,1.7-1.1.2-.3.3-.7.5-1,.27-.58.86-.94,1.5-.9h.9c0,.2.2.2.3.3.99.49,1.61,1.5,1.6,2.6v42.5c.02,1.08-.56,2.08-1.5,2.6-.16,0-.29.14-.3.3h-19.1c-1.48-.09-2.62-1.32-2.6-2.8v-42.4c-.11-1.41.83-2.68,2.2-3,.47-.05.93-.05,1.4,0,.49.63.93,1.3,1.3,2,.3.65,1,1.01,1.7.9h2.5c.17.03.35,0,.5-.1h-.1Zm-3.5,29.9v10.4c0,1.1.3,1.4,1.4,1.4h12.9c.55.06,1.04-.34,1.1-.89,0-.07,0-.14,0-.21v-21.4c.06-.55-.34-1.04-.89-1.1-.07,0-.14,0-.21,0h-1.1c-.55.06-1.04-.34-1.1-.89,0-.07,0-.14,0-.21v-1.9c.06-.55-.34-1.04-.89-1.1-.07,0-.14,0-.21,0h-6.7c-.8,0-1.1.4-1.1,1.2v1.9c0,.7-.4,1-1.1,1h-.8c-1,0-1.3.3-1.3,1.3v10.5h0Zm7.7-24.2c0-.2.1-.3.2-.5.3-.5.7-1,1-1.5s.2-.9-.2-1.1-.8-.3-1,0c-.8,1.1-1.6,2.3-2.3,3.5-.3.6,0,1.1.7,1.1h1.4q.3,0,.2.3c-.5.8-1,1.6-1.6,2.4-.32.37-.32.93,0,1.3.4.3.9.1,1.3-.4.9-1.3,1.7-2.6,2.5-3.9.2-.27.2-.63,0-.9-.18-.26-.48-.42-.8-.4h-1.6l.2.1Z"/><path class="cls-16" d="m210.84,238.22c0-.2.2-.2.3-.3.94-.52,1.52-1.52,1.5-2.6v-42.46c0-1.1-.61-2.11-1.6-2.6-.16,0-.29-.14-.3-.3h2.9c.98-.05,1.91.45,2.4,1.3,0,.1.1.2.2.3.17.55.24,1.13.2,1.7v41.8c.03.57-.04,1.15-.2,1.7-.32.5-.73.94-1.2,1.3-.4.2-.85.31-1.3.3h-2.9v-.14Z"/><path class="cls-16" d="m198.64,192.86c-.1.2-.3.1-.5.1h-2.5c-.7.09-1.38-.27-1.7-.9-.37-.7-.81-1.37-1.3-2h3.4c.47,0,.9.28,1.1.7l.6,1.2c.21.37.48.71.8,1l.1-.1Z"/><path class="cls-6" d="m202.84,190.86h-1.6c-.35.04-.66-.21-.7-.55,0-.05,0-.1,0-.15,0-.5.2-.9.7-.9h3.5c.44.06.75.46.7.9,0,.5-.2.6-.7.7-.6.05-1.2.05-1.8,0h-.1Z"/><path class="cls-11" d="m195.14,222.72v-10.5c0-1,.3-1.3,1.3-1.3h.8c.7,0,1-.3,1.1-1v-1.9c0-.8.3-1.2,1.1-1.2h6.7c.55-.06,1.04.34,1.1.89,0,.07,0,.14,0,.21v1.94c-.06.55.34,1.04.89,1.1.07,0,.14,0,.21,0h1.1c.55-.06,1.04.34,1.1.89,0,.07,0,.14,0,.21v21.4c.06.55-.34,1.04-.89,1.1-.07,0-.14,0-.21,0h-12.9c-1.1,0-1.4-.3-1.4-1.4v-10.44Zm12.5,2.7v-10.56c0-.5-.3-.8-.9-.8h-7.9c-.44-.06-.84.25-.9.69,0,.07,0,.14,0,.21v15.9c-.06.44.25.84.69.9.07,0,.14,0,.21,0h7.9c.44.06.84-.25.9-.69,0-.07,0-.14,0-.21v-5.44Z"/><path class="cls-20" d="m202.84,198.52h1.6c.4,0,.7,0,.8.4.14.28.14.62,0,.9-.8,1.3-1.7,2.6-2.5,3.9-.26.45-.83.63-1.3.4-.4-.3-.4-.8,0-1.3.5-.8,1-1.6,1.6-2.4.2-.2.1-.3-.2-.3h-1.4c-.7,0-1.1-.6-.7-1.1.7-1.2,1.5-2.3,2.3-3.5.15-.28.5-.38.77-.23.1.05.17.13.23.23.32.27.4.73.2,1.1-.3.5-.7,1-1,1.5,0,.1-.2.2-.2.5l-.2-.1Z"/><path class="cls-16" d="m204.44,213.92h2.4c.45-.04.85.29.9.74,0,.02,0,.04,0,.06v2.5h-2.5c-.4,0-.5.1-.5.5v3.5h-6.7v-4.1h6.2c.2,0,.5.1.5-.2,0-1,.3-2.06-.3-3Z"/><path class="cls-14" d="m204.24,231.72h-5.3c-.44.06-.84-.25-.9-.69,0-.07,0-.14,0-.21v-3.7h6.7v3.6c.05.4-.15.8-.5,1Z"/><path class="cls-15" d="m198.04,221.32h6.7v4.1h-6.7v-4.1Z"/><path class="cls-9" d="m204.44,213.92c.6,1,.2,2,.3,3,0,.3-.3.2-.5.2h-6.2v-2.26c-.06-.44.25-.84.69-.9.07,0,.14,0,.21,0l5.5-.04Z"/><path class="cls-22" d="m204.24,231.72c.4-.2.5-.5.5-1v-3.6h2.9v3.74c.03.46-.31.87-.78.9-.04,0-.08,0-.12,0h-2.5v-.04Z"/><path class="cls-17" d="m204.74,225.42v-4.1h2.9v4.1h-2.9Z"/><path class="cls-21" d="m207.74,221.32h-2.9v-3.46c0-.4.1-.5.5-.5h2.5v4l-.1-.04Z"/><path class="cls-22" d="m198.04,225.42h6.7v1.7h-6.7v-1.7Z"/><path class="cls-19" d="m204.74,227.12v-1.7h2.9v1.7h-2.9Z"/><path d="m167.94,197.72c2.1.33,3.53,2.3,3.2,4.4l-.3,1.6,3.5.5-.4,2.5-11-1.7.6-4.2c.28-2.11,2.21-3.59,4.32-3.31.03,0,.05,0,.08.01v.2Zm-.4,2.5c-.71-.16-1.42.28-1.58.99,0,.04-.01.07-.02.11l-.3,1.6,2.8.4.3-1.6c.12-.7-.36-1.37-1.06-1.48-.05,0-.09-.01-.14-.02h0Z"/><path d="m174.34,189.42l4.4,2.1-1,2.1-4.1-2c-.66-.37-1.5-.13-1.86.53-.01.02-.02.05-.04.07-.4.8-.2,1.5.8,2l3.9,1.9-1,2.1-10-4.9,1-2.1,3.5,1.7c-.31-.81-.28-1.72.1-2.5.73-1.48,2.53-2.09,4.02-1.36.1.05.19.1.28.16v.2Z"/><path d="m176.04,188.42c-1.68-1.57-1.77-4.21-.19-5.89,1.57-1.68,4.21-1.77,5.89-.19,1.68,1.57,1.77,4.21.2,5.89-1.55,1.68-4.17,1.79-5.85.25-.02-.02-.03-.03-.05-.05Zm4.1-4.4c-.74-.66-1.88-.59-2.54.15-.66.74-.59,1.88.15,2.54.72.64,1.82.6,2.49-.1.69-.7.69-1.83-.01-2.52-.03-.03-.06-.06-.09-.08Z"/><path d="m189.44,176.62l2.4,4.2-2.1,1.2-2.2-3.9c-.25-.66-.98-.99-1.64-.74-.09.04-.18.08-.26.14-.8.4-1,1.2-.5,2.2l2.1,3.8-2.1,1.2-3.9-6.9,2.1-1.2.4.6c0-.7.6-1.4,1.5-2,1.4-.8,3.1-.5,4.2,1.4Z"/><path d="m196.24,177.86c.56-.11,1.06-.44,1.4-.9l2.1.7c-1.12,2.17-3.79,3.02-5.96,1.9-1.11-.57-1.92-1.59-2.24-2.8-.55-2.19.78-4.4,2.97-4.95.08-.02.15-.04.23-.05,2.16-.48,4.29.89,4.77,3.04.01.05.02.1.03.16,0,.3.1.6.1,1l-5.5,1.2c.47.67,1.32.96,2.1.7Zm.8-3.1c-.36-.69-1.14-1.06-1.9-.9-.8.1-1.41.79-1.4,1.6l3.3-.7Z"/><path d="m213.84,176.92c-.38,2.17-2.42,3.63-4.6,3.3-.89-.17-1.65-.72-2.1-1.5l-.2.7-2.3-.5,2.4-10.8,2.3.5-.9,3.8c.71-.55,1.65-.7,2.5-.4,2.12.58,3.37,2.77,2.8,4.9h.1Zm-2.3-.5c.3-.94-.23-1.95-1.17-2.24-.08-.02-.15-.04-.23-.06-.99-.26-2.01.34-2.27,1.34-.01.05-.03.11-.03.16-.3.94.23,1.95,1.17,2.24.08.02.15.04.23.06.99.26,2.01-.34,2.27-1.34.01-.05.03-.11.03-.16Z"/><path d="m224.54,178.42l-4.1,6.8-2-1.2.4-.6c-.85.26-1.77.11-2.5-.4-1.84-1.38-2.22-3.99-.84-5.84,1.19-1.6,3.35-2.13,5.14-1.26.78.4,1.33,1.14,1.5,2l.4-.6,2,1.2v-.1Zm-4.1,2.2c.57-.82.37-1.94-.45-2.51-.05-.03-.1-.07-.15-.09-.89-.53-2.03-.24-2.57.64-.01.02-.02.04-.03.06-.52.88-.23,2.03.65,2.55.88.52,2.03.23,2.55-.65h0Z"/><path d="m227.34,184.32l-2,2c-.5.5-.1.9.7,1.6l-1.5,1.5c-2.4-2-2.4-3.3-.8-4.9l2-2-.9-.9,1.6-1.6.9.9,1.1-1.1,2.2,1.2-1.6,1.5,1.1,1.2-1.6,1.6-1.1-1.2-.1.2Z"/><path d="m231.24,189.32l-2.3,1.6c-.6.4-.3.9.3,1.7l-1.8,1.2c-2-2.4-1.7-3.7.1-4.9l2.3-1.6-.7-1.1,1.9-1.3.7,1.1,1.3-.8,1.9,1.6-1.8,1.2.9,1.4-1.9,1.3-.9-1.4Z"/><path d="m231.04,197.42c.2.53.59.96,1.1,1.2l-.4,2.2c-1.29-.39-2.31-1.41-2.7-2.7-.9-2.6.2-4.8,2.4-5.6,2.13-.82,4.53.24,5.35,2.37.02.04.03.09.05.13.76,2.08-.31,4.37-2.39,5.13-.07.03-.14.05-.21.07-.29.11-.59.18-.9.2l-1.9-5.3c-.63.55-.79,1.46-.4,2.2v.1Zm3.2.4c.65-.44.9-1.28.6-2-.18-.82-.98-1.35-1.8-1.2l1.2,3.2Z"/><path d="m238.94,206.32l-2.7.3c0-1-.5-2.3-2-2.2l-3.6.4-.2-2.4,7.9-.8.2,2.4h-1.4c1.01.38,1.72,1.32,1.8,2.4v-.1Z"/><path d="m237.84,216.42l-7.3-3.7c-2.4-1.2-3.2-2.7-2.8-4.9l2.2.3c-.1,1.1.1,1.7,1,2.1l7.9-2.1-.3,2.6-5,1.1,4.6,2.1-.3,2.5h0Z"/><line class="cls-5" x1="201.89" y1="118.36" x2="202.39" y2="151.13"/><line class="cls-4" x1="201.89" y1="118.36" x2="202.23" y2="140.37"/><polygon class="cls-24" points="194.71 138.3 202.39 151.13 209.67 138.07 194.71 138.3"/><line class="cls-5" x1="114.32" y1="153.4" x2="162.96" y2="114.09"/><line class="cls-4" x1="122.69" y1="146.63" x2="162.96" y2="114.09"/><polygon class="cls-24" points="119.69 139.44 114.32 153.4 129.09 151.07 119.69 139.44"/><line class="cls-5" x1="289.96" y1="153.4" x2="241.32" y2="114.09"/><line class="cls-4" x1="281.59" y1="146.63" x2="241.32" y2="114.09"/><polygon class="cls-24" points="275.19 151.07 289.96 153.4 284.59 139.44 275.19 151.07"/><path class="cls-23" d="m107.54,194.28c.54,0,1.08.02,1.62.02.92,0,1.68.75,1.69,1.68.01.85,0,1.7,0,2.54,0,7.17,0,14.35,0,21.52,0,.47-.02.94-.16,1.39-.17.54-.82,1.01-1.38,1.01-6.08,0-12.15,0-18.23,0-.03,0-.06,0-.08-.01,0-1.65,0-3.3,0-4.95,1.27,0,2.53,0,3.8-.01.16,0,.34.04.35-.23.01-.62.06-1.26-.09-1.87-.39-1.62-.86-3.21-1.27-4.83-.11-.44-.24-.87-.39-1.28-.24-.66.21-1,.61-1.37.65-.6.93-1.35,1.08-2.22.32-1.81-1.19-3.98-2.92-4.53-.06-.09-.13-.14-.24-.09-.09-.02-.18-.04-.27-.06-.04-.06-.09-.07-.15-.04-.17-.02-.34-.05-.5-.07,0-2.19,0-4.39,0-6.58,3.11,0,6.23-.01,9.34-.02.19,0,.39-.02.58-.02,1.11.03,2.23.05,3.34,0,1.09.06,2.18.05,3.28,0Z"/><path class="cls-12" d="m91,217.49c0,1.65,0,3.3,0,4.95-.63,0-1.25.01-1.88.01-5.3,0-10.6-.03-15.89.02-1.39.01-2.12-.75-2.11-2.12.04-8.11.03-16.22,0-24.32,0-.97.78-1.75,1.71-1.73.54.01,1.08-.01,1.63-.02,1.09.03,2.18.05,3.27-.01,1.11.06,2.22.03,3.34.01.18,0,.36.02.54.02,3.13,0,6.26,0,9.38.01,0,2.19,0,4.39,0,6.58-.35.17-.74.08-1.11.23-1.55.6-2.57,1.65-2.94,3.29-.07.04-.12.08-.03.15-.12,1.36.02,2.61,1.24,3.51.38.28.53.71.38,1.24-.1.32-.22.64-.3.98-.21.91-.46,1.81-.7,2.72-.18.67-.38,1.33-.54,2-.16.66-.12,1.34-.14,2.02-.01.34.08.45.44.45,1.24-.02,2.47,0,3.71,0Z"/><path class="cls-18" d="m77.74,194.28c-1.09.07-2.18.04-3.27.01,0-2.95-.02-5.9.02-8.84.02-1.36.2-2.72.6-4.04.48-1.59,1.15-3.09,2.07-4.47,1.14-1.73,2.56-3.2,4.25-4.41,1.11-.79,2.28-1.5,3.56-1.94,1.27-.44,2.56-.88,3.93-.98.77-.05,1.54-.17,2.31-.16,1.93.03,3.79.42,5.59,1.09,1.8.68,3.43,1.66,4.91,2.89,1.27,1.06,2.32,2.32,3.21,3.71.63.98,1.13,2.03,1.55,3.12.23.6.39,1.23.6,1.83.19.55.23,1.16.29,1.75.38,3.48.09,6.96.19,10.44-1.09.04-2.18.05-3.28,0,0-2.49-.02-4.98.01-7.47.02-1.43-.16-2.83-.51-4.21-.49-1.94-1.39-3.69-2.71-5.19-1.61-1.84-3.55-3.21-5.9-3.96-1.67-.53-3.36-.7-5.12-.59-1.62.1-3.15.48-4.6,1.15-2.41,1.12-4.31,2.84-5.72,5.11-1.21,1.95-1.88,4.1-1.96,6.36-.11,2.93-.02,5.87-.02,8.8Z"/><path class="cls-8" d="m100.92,194.28c0-2.64.02-5.28,0-7.92-.02-1.4-.21-2.79-.77-4.1-.44-1.04-1.04-1.97-1.78-2.84-1.1-1.28-2.48-2.17-4.03-2.74-1.44-.52-2.95-.69-4.5-.5-.95.12-1.86.34-2.72.71-2.38,1.03-4.12,2.73-5.2,5.11-.51,1.12-.71,2.28-.77,3.49-.14,2.93-.02,5.86-.07,8.79-1.11.02-2.23.05-3.34-.01,0-2.93-.09-5.87.02-8.8.08-2.27.75-4.41,1.96-6.36,1.41-2.26,3.31-3.99,5.72-5.11,1.45-.68,2.98-1.06,4.6-1.15,1.75-.1,3.45.06,5.12.59,2.35.75,4.3,2.13,5.9,3.96,1.31,1.5,2.21,3.25,2.71,5.19.35,1.38.53,2.78.51,4.21-.03,2.49-.01,4.98-.01,7.47-1.11.06-2.23.04-3.34,0Z"/><path class="cls-13" d="m91,217.49c-1.24,0-2.48-.02-3.71,0-.36,0-.45-.11-.44-.45.02-.68-.02-1.36.14-2.02.16-.67.37-1.33.54-2,.24-.9.48-1.81.7-2.72.08-.33.2-.65.3-.98.16-.53,0-.96-.38-1.24-1.22-.9-1.36-2.15-1.24-3.51.07-.04.07-.09.03-.15.37-1.64,1.39-2.69,2.94-3.29.37-.14.76-.06,1.11-.23.17.02.34.05.5.07.03.09.07.14.15.04.09.02.18.04.26.06.05.12.15.09.24.09,1.72.55,3.24,2.72,2.92,4.53-.16.87-.43,1.62-1.08,2.22-.4.36-.85.71-.61,1.37.15.42.28.85.39,1.28.41,1.61.88,3.21,1.27,4.83.15.6.1,1.24.09,1.87,0,.27-.19.23-.35.23-1.27,0-2.53,0-3.8.01Z"/><path class="cls-8" d="m92.16,201.16c-.09,0-.19.03-.24-.09.11-.05.18,0,.24.09Z"/><path class="cls-8" d="m91.66,201.02c-.08.1-.12.05-.15-.04.06-.03.11-.02.15.04Z"/><path class="cls-18" d="m86.95,204.43c.03.06.03.11-.03.15-.08-.07-.03-.11.03-.15Z"/><circle class="cls-2" cx="91.14" cy="198.47" r="42.53"/><path class="cls-23" d="m333.54,197.28c.54,0,1.08.02,1.62.02.92,0,1.68.75,1.69,1.68.01.85,0,1.7,0,2.54,0,7.17,0,14.35,0,21.52,0,.47-.02.94-.16,1.39-.17.54-.82,1.01-1.38,1.01-6.08,0-12.15,0-18.23,0-.03,0-.06,0-.08-.01,0-1.65,0-3.3,0-4.95,1.27,0,2.53,0,3.8-.01.16,0,.34.04.35-.23.01-.62.06-1.26-.09-1.87-.39-1.62-.86-3.21-1.27-4.83-.11-.44-.24-.87-.39-1.28-.24-.66.21-1,.61-1.37.65-.6.93-1.35,1.08-2.22.32-1.81-1.19-3.98-2.92-4.53-.06-.09-.13-.14-.24-.09-.09-.02-.18-.04-.27-.06-.04-.06-.09-.07-.15-.04-.17-.02-.34-.05-.5-.07,0-2.19,0-4.39,0-6.58,3.11,0,6.23-.01,9.34-.02.19,0,.39-.02.58-.02,1.11.03,2.23.05,3.34,0,1.09.06,2.18.05,3.28,0Z"/><path class="cls-12" d="m317,220.49c0,1.65,0,3.3,0,4.95-.63,0-1.25.01-1.88.01-5.3,0-10.6-.03-15.89.02-1.39.01-2.12-.75-2.11-2.12.04-8.11.03-16.22,0-24.32,0-.97.78-1.75,1.71-1.73.54.01,1.08-.01,1.63-.02,1.09.03,2.18.05,3.27-.01,1.11.06,2.22.03,3.34.01.18,0,.36.02.54.02,3.13,0,6.26,0,9.38.01,0,2.19,0,4.39,0,6.58-.35.17-.74.08-1.11.23-1.55.6-2.57,1.65-2.94,3.29-.07.04-.12.08-.03.15-.12,1.36.02,2.61,1.24,3.51.38.28.53.71.38,1.24-.1.32-.22.64-.3.98-.21.91-.46,1.81-.7,2.72-.18.67-.38,1.33-.54,2-.16.66-.12,1.34-.14,2.02-.01.34.08.45.44.45,1.24-.02,2.47,0,3.71,0Z"/><path class="cls-18" d="m303.74,197.28c-1.09.07-2.18.04-3.27.01,0-2.95-.02-5.9.02-8.84.02-1.36.2-2.72.6-4.04.48-1.59,1.15-3.09,2.07-4.47,1.14-1.73,2.56-3.2,4.25-4.41,1.11-.79,2.28-1.5,3.56-1.94,1.27-.44,2.56-.88,3.93-.98.77-.05,1.54-.17,2.31-.16,1.93.03,3.79.42,5.59,1.09,1.8.68,3.43,1.66,4.91,2.89,1.27,1.06,2.32,2.32,3.21,3.71.63.98,1.13,2.03,1.55,3.12.23.6.39,1.23.6,1.83.19.55.23,1.16.29,1.75.38,3.48.09,6.96.19,10.44-1.09.04-2.18.05-3.28,0,0-2.49-.02-4.98.01-7.47.02-1.43-.16-2.83-.51-4.21-.49-1.94-1.39-3.69-2.71-5.19-1.61-1.84-3.55-3.21-5.9-3.96-1.67-.53-3.36-.7-5.12-.59-1.62.1-3.15.48-4.6,1.15-2.41,1.12-4.31,2.84-5.72,5.11-1.21,1.95-1.88,4.1-1.96,6.36-.11,2.93-.02,5.87-.02,8.8Z"/><path class="cls-8" d="m326.92,197.28c0-2.64.02-5.28,0-7.92-.02-1.4-.21-2.79-.77-4.1-.44-1.04-1.04-1.97-1.78-2.84-1.1-1.28-2.48-2.17-4.03-2.74-1.44-.52-2.95-.69-4.5-.5-.95.12-1.86.34-2.72.71-2.38,1.03-4.12,2.73-5.2,5.11-.51,1.12-.71,2.28-.77,3.49-.14,2.93-.02,5.86-.07,8.79-1.11.02-2.23.05-3.34-.01,0-2.93-.09-5.87.02-8.8.08-2.27.75-4.41,1.96-6.36,1.41-2.26,3.31-3.99,5.72-5.11,1.45-.68,2.98-1.06,4.6-1.15,1.75-.1,3.45.06,5.12.59,2.35.75,4.3,2.13,5.9,3.96,1.31,1.5,2.21,3.25,2.71,5.19.35,1.38.53,2.78.51,4.21-.03,2.49-.01,4.98-.01,7.47-1.11.06-2.23.04-3.34,0Z"/><path class="cls-13" d="m317,220.49c-1.24,0-2.48-.02-3.71,0-.36,0-.45-.11-.44-.45.02-.68-.02-1.36.14-2.02.16-.67.37-1.33.54-2,.24-.9.48-1.81.7-2.72.08-.33.2-.65.3-.98.16-.53,0-.96-.38-1.24-1.22-.9-1.36-2.15-1.24-3.51.07-.04.07-.09.03-.15.37-1.64,1.39-2.69,2.94-3.29.37-.14.76-.06,1.11-.23.17.02.34.05.5.07.03.09.07.14.15.04.09.02.18.04.26.06.05.12.15.09.24.09,1.72.55,3.24,2.72,2.92,4.53-.16.87-.43,1.62-1.08,2.22-.4.36-.85.71-.61,1.37.15.42.28.85.39,1.28.41,1.61.88,3.21,1.27,4.83.15.6.1,1.24.09,1.87,0,.27-.19.23-.35.23-1.27,0-2.53,0-3.8.01Z"/><path class="cls-8" d="m318.16,204.16c-.09,0-.19.03-.24-.09.11-.05.18,0,.24.09Z"/><path class="cls-8" d="m317.66,204.02c-.08.1-.12.05-.15-.04.06-.03.11-.02.15.04Z"/><path class="cls-18" d="m312.95,207.43c.03.06.03.11-.03.15-.08-.07-.03-.11.03-.15Z"/><circle class="cls-2" cx="317.14" cy="201.47" r="42.53"/></svg>