<?xml version="1.0" encoding="UTF-8"?><svg id="Layer_1" xmlns="http://www.w3.org/2000/svg" viewBox="0 0 400 433"><defs><style>.cls-1{stroke:#a5262d;}.cls-1,.cls-2,.cls-3{stroke-width:4px;}.cls-1,.cls-2,.cls-3,.cls-4{fill:none;stroke-miterlimit:10;}.cls-2{stroke:#000;}.cls-5{fill:#fff;}.cls-6{fill:#72b3e2;}.cls-3{stroke:#0018c6;}.cls-7{fill:#d1d1d1;}.cls-8{fill:#546e7a;}.cls-9{fill:#bacce9;}.cls-10{fill:#c7c7c7;}.cls-11{fill:#bdbdbd;}.cls-12{fill:#333;}.cls-13{fill:#ecf5fe;}.cls-14{fill:#ffed58;}.cls-4{stroke:#231f20;stroke-width:2px;}.cls-15{fill:gray;}.cls-16{fill:#36464e;}.cls-17{fill:#199dbc;}.cls-18{fill:#72b2e2;}.cls-19{fill:#b9cce9;}.cls-20{fill:#aaa;}.cls-21{fill:#788f9b;}.cls-22{fill:#fbd734;}.cls-23{fill:#d7e1f2;}.cls-24{fill:#231f20;}</style></defs><circle class="cls-1" cx="200" cy="216.5" r="45"/><path d="m180.41,187.3c1.57,2.02,1.21,4.92-.8,6.5l-1.6,1.22,2.6,3.3-2.4,1.9-8.3-10.4,3.9-3.1c1.97-1.6,4.87-1.31,6.47.66,0,.01.02.02.03.04l.1-.12Zm-2.4,1.9c-.47-.71-1.43-.9-2.14-.43-.06.04-.11.08-.16.13l-1.6,1.2,2.1,2.7,1.6-1.2c.69-.56.79-1.58.23-2.27,0-.01-.02-.02-.03-.03v-.1Z"/><path d="m180.86,181.6l2.6-1.2,5.75,12.62-2.6,1.2-5.75-12.62Z"/><path d="m198.21,181.1l1.7,9.4-2.8.5-.2-.9c-.58.9-1.53,1.49-2.6,1.6-2.61.37-5.03-1.46-5.4-4.07,0,0,0-.02,0-.03-.62-2.51.92-5.04,3.43-5.66.06-.01.11-.03.17-.04,1.04-.24,2.13-.03,3,.6l-.2-.9,2.8-.5h.1Zm-2,5.2c-.14-1.2-1.22-2.06-2.42-1.93-.06,0-.12.02-.18.03-1.17.14-2,1.2-1.87,2.36.01.11.04.23.07.34.14,1.2,1.22,2.06,2.42,1.93.06,0,.12-.02.18-.03,1.17-.14,2-1.2,1.87-2.36-.01-.11-.04-.23-.07-.34Z"/><path d="m208.71,188.8c-.3,2.2-2.3,2.9-4.3,2.6-1.73-.04-3.25-1.16-3.8-2.8l2.6-1.1c.14.73.76,1.26,1.5,1.3.7,0,1,0,1.1-.5.1-1-4.6-1.1-4.2-4.3.3-2.1,2.1-2.9,4.1-2.6,1.51.13,2.82,1.1,3.4,2.5l-2.6,1c-.16-.54-.64-.94-1.2-1-.5,0-.8,0-.9.4-.1,1.1,4.6,1,4.1,4.4l.2.1Z"/><path d="m214.41,186.8l-1.2,3.1c-.3.8.3,1.1,1.5,1.5l-.9,2.4c-3.6-1-4.2-2.4-3.3-4.9l1.2-3.2-1.4-.5,1-2.6,1.4.5.6-1.7,3,.2-.9,2.5,1.8.7-1,2.6-1.8-.7v.1Z"/><path d="m219.71,186.2l2.4,1.5-4.9,8.2-2.35-1.5,4.85-8.2Zm1.1-2.3c.47-.8,1.5-1.07,2.3-.6.8.47,1.07,1.5.6,2.3-.47.8-1.5,1.07-2.3.6-.78-.47-1.04-1.49-.56-2.28,0,0,0-.01.01-.02h-.05Z"/><path d="m221.41,192.7c1.78-2.01,4.86-2.2,6.87-.41.08.07.15.14.23.21,1.3,1.19,1.84,2.99,1.4,4.7l-2.8-.7c.21-.73-.02-1.51-.6-2-.92-.82-2.33-.73-3.15.19-.76.86-.74,2.17.05,3.01.53.59,1.36.79,2.1.5l.8,2.7c-1.7.51-3.54.05-4.8-1.2-2.02-1.89-2.12-5.05-.23-7.07.01-.01.02-.02.03-.03l.1.1Z"/><path class="cls-23" d="m223.38,212.73v.1h-1.6q-.68,0-.68.69v30.33c.02.44-.13.88-.42,1.21-.19.22-.49.25-.68.45h-10.68c0-.09,0-.18,0-.27l-1.23-5.36c-.72-3.12-1.43-6.23-2.15-9.35-1.05-4.55-2.11-9.1-3.16-13.64-.92-4-1.84-7.97-2.75-11.92h15c.23-.04.46.03.63.18v6.21c.02.73.59,1.32,1.32,1.37h3.78c.28,0,.38-.09.38-.36v-1.84c.12,0,.17.11.24.19l2,2.01Z"/><path class="cls-19" d="m223.38,244.42c-.39.8-1.26,1.25-2.14,1.1-.41-.02-.82-.02-1.23,0,.19-.2.49-.24.67-.45.29-.34.44-.77.42-1.21v-30.35q0-.69.69-.69h1.59v31.6Z"/><path class="cls-11" d="m179.75,204.88v-.9c-.16-.88.3-1.75,1.11-2.11h2c0,.07.04.14.1.19.6.38.92,1.08.82,1.78-.02.38-.02.75,0,1.13h-3.92l-.11-.09Z"/><path class="cls-20" d="m183.75,205.02v-1.13c.15-.73-.17-1.48-.81-1.87-.06-.05-.1-.12-.11-.19h2c.89.41,1.38,1.37,1.17,2.33v.77l-2.25.09Z"/><path class="cls-13" d="m209.32,245.51h-6.22c0-.06,0-.12,0-.18l-1.83-8-3.18-13.66c-1.07-4.62-2.14-9.24-3.23-13.86-.37-1.61-.73-3.22-1.1-4.83h6.22c.91,4,1.82,7.97,2.74,11.91,1.05,4.55,2.11,9.09,3.17,13.64.72,3.12,1.43,6.23,2.14,9.35.41,1.79.82,3.58,1.24,5.36.02.09.04.18.05.27Z"/><path class="cls-13" d="m215.62,205.15c.13.03.26.1.34.21l5,5c.05.05.1.11.14.18v1.83c0,.27-.1.36-.38.36h-3.78c-.72-.06-1.29-.64-1.32-1.37v-6.21Z"/><path class="cls-23" d="m193.79,205.02c.37,1.61.73,3.22,1.1,4.83,1.06,4.62,2.12,9.24,3.19,13.86l3.18,13.65,1.83,8c0,.06,0,.12,0,.18h-14.05v-3c0-.51-.27-.81-.71-.82s-.75.29-.75.82v3h-9.22c-.95.02-1.73-.74-1.75-1.69,0-.01,0-.03,0-.04v-37.11c.01-.94.78-1.69,1.72-1.68.01,0,.02,0,.03,0h9.23v3c-.06.4.22.77.62.82.03,0,.06,0,.09,0,.46,0,.75-.29.75-.83v-3h4.74Zm-4.74,20.27v-1.55c0-.4-.33-.73-.73-.73-.4,0-.73.33-.73.73h0v3c-.04.39.24.74.64.78.04,0,.08,0,.11,0,.4,0,.72-.33.71-.73,0-.02,0-.04,0-.05,0-.47,0-.96,0-1.45Zm-1.47,6.14v1.55c0,.4.33.73.73.73.4,0,.73-.33.73-.73h0v-3.06c-.03-.41-.35-.73-.76-.76-.39,0-.7.31-.7.7,0,.02,0,.03,0,.05v1.52Zm0-12.41v1.5c-.02.41.29.77.71.79h0c.42-.05.74-.4.75-.82v-2.91c0-.55-.26-.83-.74-.83s-.71.29-.72.81,0,1,0,1.46Zm0-6.27v1.51c-.04.37.22.71.59.76.04,0,.08,0,.12,0,.39.03.72-.26.75-.64,0-.05,0-.09,0-.14v-2.92c.04-.38-.23-.73-.61-.78-.04,0-.08,0-.13,0-.45,0-.71.28-.72.8s0,.94,0,1.41h0Zm1.47,25v-1.47c0-.52-.27-.8-.72-.81-.39-.02-.72.27-.74.65,0,.04,0,.08,0,.13v2.92c-.05.38.21.72.59.78.05,0,.09,0,.14,0,.46,0,.71-.29.72-.8s0-.94,0-1.42v.02Z"/><path class="cls-19" d="m189.04,205.02v3c0,.53-.29.84-.75.82s-.7-.31-.71-.82v-3h1.46Z"/><path class="cls-11" d="m179.86,245.52h3.93v1.19c.1.83-.39,1.62-1.18,1.9h-1.27c-.84.04-1.56-.61-1.6-1.46,0-.05,0-.1,0-.14v-1.41l.12-.08Z"/><path class="cls-20" d="m182.57,248.61c.78-.29,1.27-1.07,1.18-1.9v-1.19h2.25c.07.6.07,1.21,0,1.81-.13.78-.82,1.34-1.61,1.29h-1.82Z"/><path class="cls-19" d="m187.59,245.51v-3c0-.54.29-.84.75-.83.4,0,.72.34.72.74,0,.03,0,.06,0,.09v3h-1.46Z"/><path class="cls-10" d="m179.86,205.02h-.09s0-.06,0-.09l.09.09Z"/><path class="cls-10" d="m179.86,245.52l-.07.09s0-.06,0-.09h.07Z"/><path class="cls-9" d="m189.05,225.29v1.46c0,.4-.33.73-.73.73-.4,0-.73-.33-.73-.73h0v-3c-.04-.39.25-.74.64-.78.02,0,.05,0,.07,0,.4-.02.73.29.75.69,0,.03,0,.06,0,.09,0,.49,0,1.03,0,1.54Z"/><path class="cls-19" d="m187.59,231.43v-1.5c-.03-.38.25-.71.63-.75.02,0,.05,0,.07,0,.4.03.72.36.75.76v3.06c.03.37-.24.7-.62.74-.04,0-.08,0-.11,0-.38.02-.7-.27-.72-.66,0-.03,0-.07,0-.1,0-.51,0-1.03,0-1.55Z"/><path class="cls-19" d="m187.59,219.02v-1.46c0-.52.26-.8.71-.8s.74.27.74.82v2.92c0,.42-.33.77-.75.81-.41-.02-.73-.37-.71-.79h0c0-.5.01-1,.01-1.5Z"/><path class="cls-19" d="m187.59,212.75v-1.41c0-.52.26-.8.72-.8.38-.03.71.26.73.64,0,.05,0,.09,0,.14v2.92c0,.4-.33.73-.73.73-.4,0-.73-.33-.73-.73h0c-.01-.46,0-.98,0-1.49Z"/><path class="cls-19" d="m189.05,237.73v1.42c0,.51-.27.8-.72.8-.38.03-.71-.26-.73-.64,0-.05,0-.09,0-.14v-2.92c-.04-.38.23-.73.61-.78.04,0,.08,0,.13,0,.45,0,.7.29.71.81v1.45Z"/><path class="cls-18" d="m351.41,255.21c2.57-.12,5.08.8,6.96,2.56.45.34.56.97.24,1.44-.32.4-.88.4-1.44,0-1.45-1.42-3.42-2.17-5.44-2.08-1.69.04-3.31.7-4.56,1.84-.14.16-.3.29-.48.4-.39.31-.96.24-1.27-.15,0,0,0,0-.01-.01-.28-.35-.28-.85,0-1.2.49-.51,1.06-.95,1.68-1.28,1.32-.86,2.83-1.35,4.4-1.44l-.08-.08Z"/><path class="cls-6" d="m351.81,258.57c1.75-.01,3.44.65,4.72,1.84.56.48.64,1.04.24,1.44-.39.4-1.03.4-1.43.01,0,0,0,0-.01-.01-1.89-1.76-4.83-1.76-6.72,0-.56.48-1.04.48-1.44.08s-.32-.96.16-1.44c1.23-1.12,2.82-1.78,4.48-1.84v-.08Z"/><path class="cls-6" d="m351.89,261.93c1.06,0,2.09.41,2.88,1.12.38.31.49.85.24,1.28h0c-.3.4-.87.47-1.27.17,0,0,0,0-.01-.01h0c-.92-.86-2.36-.86-3.28,0-.27.35-.77.43-1.12.16-.06-.05-.11-.1-.16-.16l-.08-.08c-.31-.42-.23-1.01.19-1.32.02-.01.04-.03.05-.04h0c.76-.71,1.76-1.11,2.8-1.12h-.24Z"/><path class="cls-15" d="m368.37,281.93c-1.2-4.24,2.64-13.2-3.92-13.76h-24.8c-6.96.16-3.12,9.44-4.32,13.76v5.36c1.2,4.24-2.56,12.88,3.68,13.76h25.6c6.32-.8,2.56-9.6,3.76-13.76v-5.36Z"/><circle class="cls-3" cx="351.89" cy="272.01" r="36"/><path d="m332.93,257.93l-.96,1.76-4.56-2.56,2.16,3.84v.24l-4.56.16,4.56,2.56-.96,1.76-7.84-4.4.96-1.76,4.64-.16-2.32-4.08.96-1.76,7.84,4.4h.08Z"/><path d="m331.17,255.37c-1.24-1.37-1.14-3.48.23-4.72.03-.03.06-.05.09-.08,1.42-1.23,3.56-1.09,4.8.32,1.24,1.41,1.09,3.56-.32,4.8s-3.56,1.09-4.8-.32Zm3.68-3.2c-.55-.58-1.47-.6-2.05-.04-.58.55-.6,1.47-.04,2.05.54.56,1.43.6,2.01.08.59-.47.69-1.33.23-1.92-.04-.06-.09-.11-.15-.16h0Z"/><path d="m341.09,242.17l3.68,8.16-1.76.8-.24-.56c-.22.7-.75,1.26-1.44,1.52-1.58.68-3.4-.05-4.08-1.63-.03-.07-.06-.14-.08-.21-.83-1.53-.26-3.44,1.27-4.27.03-.02.06-.03.09-.05.65-.3,1.4-.33,2.08-.08l-1.28-2.88,1.76-.8Zm.64,6c-.39-.73-1.3-1.01-2.03-.62-.73.39-1.01,1.3-.62,2.03.37.7,1.22.99,1.94.67.76-.33,1.1-1.21.77-1.97-.02-.04-.03-.07-.05-.11Z"/><path d="m348.61,248.17c.46.01.9-.23,1.12-.64l1.68.64c-.5.97-1.47,1.6-2.56,1.68-1.81.38-3.58-.79-3.95-2.59-.02-.09-.04-.19-.05-.29-.31-1.8.9-3.51,2.7-3.81.06-.01.12-.02.18-.03,1.75-.27,3.38.92,3.65,2.67.01.07.02.14.03.21v.8l-4.48.64c.32.6,1.04.87,1.68.64v.08Zm.88-2.48c-.23-.61-.88-.95-1.52-.8-.65.07-1.17.56-1.28,1.2l2.72-.4h.08Z"/><path d="m362.45,247.13l-.8,3.84-1.84-.4.8-3.68c.16-.64-.08-1.12-.72-1.2s-1.04.24-1.2.96l-.72,3.52-1.84-.4.8-3.68c.16-.64-.08-1.12-.72-1.2s-1.04.24-1.2.96l-.72,3.52-1.84-.4,1.36-6.24,1.84.4-.16.56c.5-.45,1.2-.6,1.84-.4.66.11,1.21.57,1.44,1.2.55-.46,1.29-.64,2-.48,1.44.32,2.16,1.52,1.84,3.12h-.16Z"/><path d="m364.61,247.53l4.16,2.48-.96,1.6-4.16-2.48.96-1.6Z"/><path d="m367.89,253.29h4.32c.63.01,1.25-.19,1.76-.56.38-.34.4-.92.06-1.3-.02-.02-.04-.04-.06-.06-.42-.43-1.07-.53-1.6-.24l-.48-1.92c1.21-.52,2.61-.23,3.52.72,1.19,1.04,1.32,2.84.28,4.03-.04.04-.08.09-.12.13-.8.74-1.87,1.11-2.96,1.04h-2.08l2.16,2.16-1.36,1.36-4.32-4.32,1.04-1.04h-.16Z"/><path d="m379.33,264.73c-1.97,1.17-4.52.51-5.69-1.46-.09-.15-.17-.3-.23-.46-1.27-2.2-.51-5,1.68-6.27.08-.04.16-.09.24-.13,2.27-1.2,5.09-.33,6.29,1.94,0,.02.02.04.03.06.76,1.37.76,3.03,0,4.4l-1.68-1.12c.36-.76.36-1.64,0-2.4-.62-1.28-2.17-1.82-3.45-1.2-.05.02-.1.05-.15.08-1.27.61-1.8,2.14-1.19,3.41.05.09.1.19.15.27.36.94,1.32,1.5,2.32,1.36l-1.12-2.16,1.6-.8,2.08,4-.72.32-.16.16Z"/><path d="m337.89,291.85v-2.88l5.2-5.44c.41-.42.78-.88,1.12-1.36.21-.3.33-.67.32-1.04-.01-.36-.15-.7-.4-.96-.29-.25-.66-.36-1.04-.32-.96.03-1.8.68-2.08,1.6l-3.44-1.92c.88-2.26,3.1-3.7,5.52-3.6,1.39.02,2.74.5,3.84,1.36,1.06.89,1.65,2.22,1.6,3.6.09.88-.14,1.76-.64,2.48-.48.89-1.1,1.7-1.84,2.4l-2.16,2.24h4.88v3.84h-10.88Z"/><path d="m365.81,282.89v1.6c.2,4.09-2.95,7.56-7.04,7.76-.24.01-.48.01-.72,0-2.23.05-4.39-.78-6-2.32-1.54-1.52-2.38-3.6-2.32-5.76-.02-2.18.81-4.27,2.32-5.84,1.53-1.58,3.64-2.45,5.84-2.4,1.4-.13,2.81.21,4,.96,1.17.62,2.17,1.53,2.88,2.64l-3.36,1.92c-.36-.5-.82-.91-1.36-1.2-.64-.33-1.36-.49-2.08-.48-1.13-.03-2.23.4-3.04,1.2-.81.83-1.25,1.96-1.2,3.12-.05,1.14.39,2.24,1.2,3.04.88.85,2.06,1.31,3.28,1.28,1.36,0,3.04-.72,3.6-2.08h-3.76v-3.44h7.76,0Z"/><path class="cls-22" d="m76.92,300.2c.42,0,.84.02,1.27.02.72,0,1.31.59,1.32,1.31,0,.66,0,1.32,0,1.98,0,5.59,0,11.19,0,16.78,0,.36-.01.73-.12,1.09-.13.42-.64.79-1.08.79-4.74,0-9.48,0-14.21,0-.02,0-.04,0-.06,0,0-1.29,0-2.57,0-3.86.99,0,1.97,0,2.96-.01.13,0,.27.03.27-.18,0-.49.04-.99-.07-1.45-.31-1.26-.67-2.51-.99-3.76-.09-.34-.18-.67-.3-1-.19-.51.16-.78.47-1.07.51-.47.72-1.05.85-1.73.25-1.41-.93-3.1-2.28-3.53-.04-.07-.1-.11-.19-.07-.07-.02-.14-.03-.21-.05-.03-.04-.07-.06-.12-.03-.13-.02-.26-.04-.39-.06,0-1.71,0-3.42,0-5.13,2.43,0,4.86,0,7.29-.01.15,0,.3-.01.45-.02.87.03,1.74.04,2.61,0,.85.05,1.7.04,2.55,0Z"/><path class="cls-14" d="m64.02,318.31c0,1.29,0,2.57,0,3.86-.49,0-.98,0-1.46,0-4.13,0-8.26-.02-12.4.01-1.09,0-1.65-.58-1.65-1.65.03-6.32.03-12.65,0-18.97,0-.76.61-1.36,1.33-1.35.42,0,.84-.01,1.27-.02.85.02,1.7.04,2.55-.01.87.05,1.73.03,2.6.01.14,0,.28.02.42.02,2.44,0,4.88,0,7.32.01,0,1.71,0,3.42,0,5.13-.27.13-.58.07-.87.18-1.21.47-2.01,1.28-2.29,2.57-.05.03-.09.06-.03.12-.1,1.06.01,2.04.97,2.74.3.22.42.55.29.97-.08.25-.17.5-.23.76-.17.71-.36,1.41-.54,2.12-.14.52-.3,1.04-.42,1.56-.12.52-.09,1.05-.11,1.58,0,.27.06.35.34.35.96-.01,1.93,0,2.9,0Z"/><path class="cls-21" d="m53.68,300.2c-.85.05-1.7.03-2.55.01,0-2.3-.02-4.6.02-6.9.02-1.06.16-2.12.47-3.15.37-1.24.9-2.41,1.61-3.49.89-1.35,2-2.5,3.32-3.44.87-.62,1.78-1.17,2.78-1.52.99-.34,2-.69,3.07-.76.6-.04,1.2-.13,1.8-.12,1.5.03,2.95.32,4.36.85,1.41.53,2.67,1.29,3.83,2.25.99.83,1.81,1.81,2.5,2.89.49.77.88,1.58,1.21,2.44.18.47.31.96.47,1.43.15.43.18.9.23,1.36.3,2.71.07,5.43.14,8.15-.85.03-1.7.04-2.55,0,0-1.94-.01-3.88.01-5.82.01-1.12-.13-2.21-.4-3.29-.38-1.51-1.09-2.88-2.11-4.05-1.25-1.43-2.77-2.51-4.6-3.09-1.3-.41-2.62-.54-3.99-.46-1.27.07-2.46.37-3.59.9-1.88.88-3.36,2.22-4.46,3.98-.95,1.52-1.46,3.2-1.53,4.96-.08,2.29-.02,4.58-.02,6.86Z"/><path class="cls-8" d="m71.76,300.21c0-2.06.02-4.12,0-6.18-.01-1.1-.17-2.18-.6-3.2-.35-.81-.81-1.54-1.39-2.21-.86-1-1.93-1.69-3.15-2.13-1.12-.41-2.3-.54-3.51-.39-.74.09-1.45.26-2.12.55-1.85.81-3.21,2.13-4.06,3.99-.39.87-.55,1.77-.6,2.72-.11,2.28-.02,4.57-.05,6.85-.87.02-1.74.04-2.6-.01,0-2.29-.07-4.58.02-6.86.06-1.77.58-3.44,1.53-4.96,1.1-1.77,2.58-3.11,4.46-3.98,1.13-.53,2.32-.83,3.59-.9,1.37-.08,2.69.05,3.99.46,1.84.58,3.35,1.66,4.6,3.09,1.02,1.17,1.73,2.53,2.11,4.05.27,1.08.41,2.17.4,3.29-.02,1.94,0,3.88-.01,5.82-.87.05-1.74.03-2.61,0Z"/><path class="cls-16" d="m64.02,318.31c-.97,0-1.93-.02-2.9,0-.28,0-.35-.08-.34-.35.02-.53-.01-1.06.11-1.58.13-.52.29-1.04.42-1.56.19-.71.38-1.41.54-2.12.06-.26.16-.51.23-.76.12-.41,0-.75-.29-.97-.95-.7-1.06-1.68-.97-2.74.05-.03.05-.07.03-.12.29-1.28,1.09-2.1,2.29-2.57.29-.11.59-.05.87-.18.13.02.26.04.39.06.03.07.06.11.12.03.07.02.14.03.21.05.04.09.12.07.19.07,1.34.43,2.53,2.12,2.28,3.53-.12.68-.34,1.26-.85,1.73-.31.28-.66.55-.47,1.07.12.33.22.66.3,1,.32,1.26.69,2.5.99,3.76.11.47.08.97.07,1.45,0,.21-.15.18-.27.18-.99,0-1.97,0-2.96.01Z"/><path class="cls-8" d="m64.93,305.57c-.07,0-.15.02-.19-.07.09-.04.14,0,.19.07Z"/><path class="cls-8" d="m64.53,305.46c-.06.08-.09.04-.12-.03.05-.03.09-.01.12.03Z"/><path class="cls-21" d="m60.86,308.11s.03.09-.03.12c-.07-.06-.03-.09.03-.12Z"/><circle class="cls-2" cx="64.13" cy="303.47" r="33.17"/><path class="cls-22" d="m135.92,356.2c.42,0,.84.02,1.27.02.72,0,1.31.59,1.32,1.31,0,.66,0,1.32,0,1.98,0,5.59,0,11.19,0,16.78,0,.36-.01.73-.12,1.09-.13.42-.64.79-1.08.79-4.74,0-9.48,0-14.21,0-.02,0-.04,0-.06,0,0-1.29,0-2.57,0-3.86.99,0,1.97,0,2.96-.01.13,0,.27.03.27-.18,0-.49.04-.99-.07-1.45-.31-1.26-.67-2.51-.99-3.76-.09-.34-.18-.67-.3-1-.19-.51.16-.78.47-1.07.51-.47.72-1.05.85-1.73.25-1.41-.93-3.1-2.28-3.53-.04-.07-.1-.11-.19-.07-.07-.02-.14-.03-.21-.05-.03-.04-.07-.06-.12-.03-.13-.02-.26-.04-.39-.06,0-1.71,0-3.42,0-5.13,2.43,0,4.86,0,7.29-.01.15,0,.3-.01.45-.02.87.03,1.74.04,2.61,0,.85.05,1.7.04,2.55,0Z"/><path class="cls-14" d="m123.02,374.31c0,1.29,0,2.57,0,3.86-.49,0-.98,0-1.46,0-4.13,0-8.26-.02-12.4.01-1.09,0-1.65-.58-1.65-1.65.03-6.32.03-12.65,0-18.97,0-.76.61-1.36,1.33-1.35.42,0,.84-.01,1.27-.02.85.02,1.7.04,2.55-.01.87.05,1.73.03,2.6.01.14,0,.28.02.42.02,2.44,0,4.88,0,7.32.01,0,1.71,0,3.42,0,5.13-.27.13-.58.07-.87.18-1.21.47-2.01,1.28-2.29,2.57-.05.03-.09.06-.03.12-.1,1.06.01,2.04.97,2.74.3.22.42.55.29.97-.08.25-.17.5-.23.76-.17.71-.36,1.41-.54,2.12-.14.52-.3,1.04-.42,1.56-.12.52-.09,1.05-.11,1.58,0,.27.06.35.34.35.96-.01,1.93,0,2.9,0Z"/><path class="cls-21" d="m112.68,356.2c-.85.05-1.7.03-2.55.01,0-2.3-.02-4.6.02-6.9.02-1.06.16-2.12.47-3.15.37-1.24.9-2.41,1.61-3.49.89-1.35,2-2.5,3.32-3.44.87-.62,1.78-1.17,2.78-1.52.99-.34,2-.69,3.07-.76.6-.04,1.2-.13,1.8-.12,1.5.03,2.95.32,4.36.85,1.41.53,2.67,1.29,3.83,2.25.99.83,1.81,1.81,2.5,2.89.49.77.88,1.58,1.21,2.44.18.47.31.96.47,1.43.15.43.18.9.23,1.36.3,2.71.07,5.43.14,8.15-.85.03-1.7.04-2.55,0,0-1.94-.01-3.88.01-5.82.01-1.12-.13-2.21-.4-3.29-.38-1.51-1.09-2.88-2.11-4.05-1.25-1.43-2.77-2.51-4.6-3.09-1.3-.41-2.62-.54-3.99-.46-1.27.07-2.46.37-3.59.9-1.88.88-3.36,2.22-4.46,3.98-.95,1.52-1.46,3.2-1.53,4.96-.08,2.29-.02,4.58-.02,6.86Z"/><path class="cls-8" d="m130.76,356.21c0-2.06.02-4.12,0-6.18-.01-1.1-.17-2.18-.6-3.2-.35-.81-.81-1.54-1.39-2.21-.86-1-1.93-1.69-3.15-2.13-1.12-.41-2.3-.54-3.51-.39-.74.09-1.45.26-2.12.55-1.85.81-3.21,2.13-4.06,3.99-.39.87-.55,1.77-.6,2.72-.11,2.28-.02,4.57-.05,6.85-.87.02-1.74.04-2.6-.01,0-2.29-.07-4.58.02-6.86.06-1.77.58-3.44,1.53-4.96,1.1-1.77,2.58-3.11,4.46-3.98,1.13-.53,2.32-.83,3.59-.9,1.37-.08,2.69.05,3.99.46,1.84.58,3.35,1.66,4.6,3.09,1.02,1.17,1.73,2.53,2.11,4.05.27,1.08.41,2.17.4,3.29-.02,1.94,0,3.88-.01,5.82-.87.05-1.74.03-2.61,0Z"/><path class="cls-16" d="m123.02,374.31c-.97,0-1.93-.02-2.9,0-.28,0-.35-.08-.34-.35.02-.53-.01-1.06.11-1.58.13-.52.29-1.04.42-1.56.19-.71.38-1.41.54-2.12.06-.26.16-.51.23-.76.12-.41,0-.75-.29-.97-.95-.7-1.06-1.68-.97-2.74.05-.03.05-.07.03-.12.29-1.28,1.09-2.1,2.29-2.57.29-.11.59-.05.87-.18.13.02.26.04.39.06.03.07.06.11.12.03.07.02.14.03.21.05.04.09.12.07.19.07,1.34.43,2.53,2.12,2.28,3.53-.12.68-.34,1.26-.85,1.73-.31.28-.66.55-.47,1.07.12.33.22.66.3,1,.32,1.26.69,2.5.99,3.76.11.47.08.97.07,1.45,0,.21-.15.18-.27.18-.99,0-1.97,0-2.96.01Z"/><path class="cls-8" d="m123.93,361.57c-.07,0-.15.02-.19-.07.09-.04.14,0,.19.07Z"/><path class="cls-8" d="m123.53,361.46c-.06.08-.09.04-.12-.03.05-.03.09-.01.12.03Z"/><path class="cls-21" d="m119.86,364.11s.03.09-.03.12c-.07-.06-.03-.09.03-.12Z"/><circle class="cls-2" cx="123.13" cy="359.47" r="33.17"/><path class="cls-22" d="m216.92,364.2c.42,0,.84.02,1.27.02.72,0,1.31.59,1.32,1.31,0,.66,0,1.32,0,1.98,0,5.59,0,11.19,0,16.78,0,.36-.01.73-.12,1.09-.13.42-.64.79-1.08.79-4.74,0-9.48,0-14.21,0-.02,0-.04,0-.06,0,0-1.29,0-2.57,0-3.86.99,0,1.97,0,2.96-.01.13,0,.27.03.27-.18,0-.49.04-.99-.07-1.45-.31-1.26-.67-2.51-.99-3.76-.09-.34-.18-.67-.3-1-.19-.51.16-.78.47-1.07.51-.47.72-1.05.85-1.73.25-1.41-.93-3.1-2.28-3.53-.04-.07-.1-.11-.19-.07-.07-.02-.14-.03-.21-.05-.03-.04-.07-.06-.12-.03-.13-.02-.26-.04-.39-.06,0-1.71,0-3.42,0-5.13,2.43,0,4.86,0,7.29-.01.15,0,.3-.01.45-.02.87.03,1.74.04,2.61,0,.85.05,1.7.04,2.55,0Z"/><path class="cls-14" d="m204.02,382.31c0,1.29,0,2.57,0,3.86-.49,0-.98,0-1.46,0-4.13,0-8.26-.02-12.4.01-1.09,0-1.65-.58-1.65-1.65.03-6.32.03-12.65,0-18.97,0-.76.61-1.36,1.33-1.35.42,0,.84-.01,1.27-.02.85.02,1.7.04,2.55-.01.87.05,1.73.03,2.6.01.14,0,.28.02.42.02,2.44,0,4.88,0,7.32.01,0,1.71,0,3.42,0,5.13-.27.13-.58.07-.87.18-1.21.47-2.01,1.28-2.29,2.57-.05.03-.09.06-.03.12-.1,1.06.01,2.04.97,2.74.3.22.42.55.29.97-.08.25-.17.5-.23.76-.17.71-.36,1.41-.54,2.12-.14.52-.3,1.04-.42,1.56-.12.52-.09,1.05-.11,1.58,0,.27.06.35.34.35.96-.01,1.93,0,2.9,0Z"/><path class="cls-21" d="m193.68,364.2c-.85.05-1.7.03-2.55.01,0-2.3-.02-4.6.02-6.9.02-1.06.16-2.12.47-3.15.37-1.24.9-2.41,1.61-3.49.89-1.35,2-2.5,3.32-3.44.87-.62,1.78-1.17,2.78-1.52.99-.34,2-.69,3.07-.76.6-.04,1.2-.13,1.8-.12,1.5.03,2.95.32,4.36.85,1.41.53,2.67,1.29,3.83,2.25.99.83,1.81,1.81,2.5,2.89.49.77.88,1.58,1.21,2.44.18.47.31.96.47,1.43.15.43.18.9.23,1.36.3,2.71.07,5.43.14,8.15-.85.03-1.7.04-2.55,0,0-1.94-.01-3.88.01-5.82.01-1.12-.13-2.21-.4-3.29-.38-1.51-1.09-2.88-2.11-4.05-1.25-1.43-2.77-2.51-4.6-3.09-1.3-.41-2.62-.54-3.99-.46-1.27.07-2.46.37-3.59.9-1.88.88-3.36,2.22-4.46,3.98-.95,1.52-1.46,3.2-1.53,4.96-.08,2.29-.02,4.58-.02,6.86Z"/><path class="cls-8" d="m211.76,364.21c0-2.06.02-4.12,0-6.18-.01-1.1-.17-2.18-.6-3.2-.35-.81-.81-1.54-1.39-2.21-.86-1-1.93-1.69-3.15-2.13-1.12-.41-2.3-.54-3.51-.39-.74.09-1.45.26-2.12.55-1.85.81-3.21,2.13-4.06,3.99-.39.87-.55,1.77-.6,2.72-.11,2.28-.02,4.57-.05,6.85-.87.02-1.74.04-2.6-.01,0-2.29-.07-4.58.02-6.86.06-1.77.58-3.44,1.53-4.96,1.1-1.77,2.58-3.11,4.46-3.98,1.13-.53,2.32-.83,3.59-.9,1.37-.08,2.69.05,3.99.46,1.84.58,3.35,1.66,4.6,3.09,1.02,1.17,1.73,2.53,2.11,4.05.27,1.08.41,2.17.4,3.29-.02,1.94,0,3.88-.01,5.82-.87.05-1.74.03-2.61,0Z"/><path class="cls-16" d="m204.02,382.31c-.97,0-1.93-.02-2.9,0-.28,0-.35-.08-.34-.35.02-.53-.01-1.06.11-1.58.13-.52.29-1.04.42-1.56.19-.71.38-1.41.54-2.12.06-.26.16-.51.23-.76.12-.41,0-.75-.29-.97-.95-.7-1.06-1.68-.97-2.74.05-.03.05-.07.03-.12.29-1.28,1.09-2.1,2.29-2.57.29-.11.59-.05.87-.18.13.02.26.04.39.06.03.07.06.11.12.03.07.02.14.03.21.05.04.09.12.07.19.07,1.34.43,2.53,2.12,2.28,3.53-.12.68-.34,1.26-.85,1.73-.31.28-.66.55-.47,1.07.12.33.22.66.3,1,.32,1.26.69,2.5.99,3.76.11.47.08.97.07,1.45,0,.21-.15.18-.27.18-.99,0-1.97,0-2.96.01Z"/><path class="cls-8" d="m204.93,369.57c-.07,0-.15.02-.19-.07.09-.04.14,0,.19.07Z"/><path class="cls-8" d="m204.53,369.46c-.06.08-.09.04-.12-.03.05-.03.09-.01.12.03Z"/><path class="cls-21" d="m200.86,372.11s.03.09-.03.12c-.07-.06-.03-.09.03-.12Z"/><circle class="cls-2" cx="204.13" cy="367.47" r="33.17"/><path class="cls-22" d="m364.29,189.11c.43,0,.87.02,1.3.02.74,0,1.34.6,1.35,1.35,0,.68,0,1.36,0,2.04,0,5.76,0,11.51,0,17.27,0,.37-.01.76-.13,1.12-.14.43-.66.81-1.11.81-4.88,0-9.75,0-14.63,0-.02,0-.04,0-.07,0,0-1.32,0-2.65,0-3.97,1.02,0,2.03,0,3.05-.01.13,0,.28.03.28-.18,0-.5.04-1.01-.07-1.5-.31-1.3-.69-2.58-1.02-3.87-.09-.35-.19-.69-.31-1.03-.2-.53.17-.81.49-1.1.52-.48.74-1.08.87-1.78.26-1.45-.96-3.19-2.34-3.63-.05-.07-.11-.11-.19-.07-.07-.02-.14-.03-.21-.05-.03-.05-.07-.06-.12-.03-.13-.02-.27-.04-.4-.06,0-1.76,0-3.52,0-5.28,2.5,0,5,0,7.5-.01.16,0,.31-.01.47-.02.89.03,1.79.04,2.68,0,.88.05,1.75.04,2.63,0Z"/><path class="cls-14" d="m351.02,207.74c0,1.32,0,2.65,0,3.97-.5,0-1,.01-1.51.01-4.25,0-8.5-.02-12.75.02-1.12,0-1.7-.6-1.69-1.7.04-6.51.03-13.01,0-19.52,0-.78.63-1.4,1.37-1.39.43,0,.87-.01,1.3-.02.88.02,1.75.04,2.63-.01.89.05,1.79.03,2.68.01.14,0,.29.02.43.02,2.51,0,5.02,0,7.53.01,0,1.76,0,3.52,0,5.28-.28.13-.6.07-.89.18-1.24.48-2.06,1.32-2.36,2.64-.05.03-.09.06-.03.12-.1,1.09.01,2.09.99,2.82.31.23.43.57.3,1-.08.26-.18.52-.24.78-.17.73-.37,1.46-.56,2.18-.14.54-.31,1.07-.44,1.6-.13.53-.1,1.08-.12,1.62-.01.27.06.36.35.36.99-.01,1.99,0,2.98,0Z"/><path class="cls-21" d="m340.37,189.1c-.88.05-1.75.03-2.63.01,0-2.37-.02-4.73.02-7.1.02-1.09.16-2.18.48-3.24.38-1.28.93-2.48,1.66-3.59.92-1.39,2.06-2.57,3.41-3.54.89-.64,1.83-1.2,2.86-1.56,1.02-.35,2.05-.71,3.16-.78.62-.04,1.23-.14,1.86-.12,1.55.03,3.04.33,4.48.88,1.45.54,2.75,1.33,3.94,2.32,1.02.85,1.86,1.86,2.57,2.97.51.79.9,1.63,1.24,2.51.19.48.31.98.48,1.47.15.44.18.93.23,1.4.3,2.79.07,5.59.15,8.38-.88.03-1.75.04-2.63,0,0-2-.01-4,.01-5.99.01-1.15-.13-2.27-.41-3.38-.4-1.56-1.12-2.96-2.17-4.16-1.29-1.47-2.85-2.58-4.74-3.18-1.34-.43-2.7-.56-4.11-.48-1.3.08-2.53.38-3.69.93-1.93.9-3.46,2.28-4.59,4.1-.97,1.57-1.5,3.29-1.57,5.11-.09,2.35-.02,4.71-.02,7.06Z"/><path class="cls-8" d="m358.98,189.11c0-2.12.02-4.24,0-6.36-.01-1.13-.17-2.24-.62-3.29-.36-.83-.84-1.58-1.43-2.28-.89-1.03-1.99-1.74-3.24-2.2-1.15-.42-2.36-.56-3.61-.4-.76.1-1.49.27-2.18.57-1.91.83-3.31,2.19-4.17,4.1-.41.89-.57,1.83-.62,2.8-.11,2.35-.02,4.7-.05,7.05-.89.02-1.79.04-2.68-.01,0-2.35-.07-4.71.02-7.06.07-1.82.6-3.54,1.57-5.11,1.13-1.82,2.65-3.2,4.59-4.1,1.16-.54,2.39-.85,3.69-.93,1.41-.08,2.77.05,4.11.48,1.89.6,3.45,1.71,4.74,3.18,1.05,1.2,1.78,2.61,2.17,4.16.28,1.11.43,2.23.41,3.38-.03,2,0,4-.01,5.99-.89.05-1.79.03-2.68,0Z"/><path class="cls-16" d="m351.02,207.74c-.99,0-1.99-.02-2.98,0-.29,0-.36-.09-.35-.36.02-.54-.01-1.09.12-1.62.13-.54.29-1.07.44-1.6.19-.73.39-1.45.56-2.18.06-.27.16-.52.24-.78.13-.43,0-.77-.3-1-.98-.72-1.09-1.73-.99-2.82.05-.03.05-.07.03-.12.3-1.32,1.12-2.16,2.36-2.64.29-.11.61-.05.89-.18.13.02.27.04.4.06.03.07.06.11.12.03.07.02.14.03.21.05.04.09.12.07.19.07,1.38.44,2.6,2.18,2.34,3.63-.12.7-.35,1.3-.87,1.78-.32.29-.68.57-.49,1.1.12.34.22.68.31,1.03.33,1.29.71,2.58,1.02,3.87.12.48.08,1,.07,1.5,0,.21-.15.18-.28.18-1.02,0-2.03,0-3.05.01Z"/><path class="cls-8" d="m351.95,194.63c-.07,0-.16.02-.19-.07.09-.04.15,0,.19.07Z"/><path class="cls-8" d="m351.54,194.51c-.06.08-.1.04-.12-.03.05-.03.09-.01.12.03Z"/><path class="cls-21" d="m347.77,197.25s.03.09-.03.12c-.07-.06-.03-.09.03-.12Z"/><circle class="cls-2" cx="351.13" cy="192.47" r="34.13"/><path class="cls-22" d="m268.27,70.11c.43,0,.87.02,1.3.02.74,0,1.34.6,1.35,1.35,0,.68,0,1.36,0,2.04,0,5.76,0,11.51,0,17.27,0,.37-.01.76-.13,1.12-.14.43-.66.81-1.11.81-4.88,0-9.75,0-14.63,0-.02,0-.04,0-.07,0,0-1.32,0-2.65,0-3.97,1.02,0,2.03,0,3.05-.01.13,0,.28.03.28-.18,0-.5.04-1.01-.07-1.5-.31-1.3-.69-2.58-1.02-3.87-.09-.35-.19-.69-.31-1.03-.2-.53.17-.81.49-1.1.52-.48.74-1.08.87-1.78.26-1.45-.96-3.19-2.34-3.63-.05-.07-.11-.11-.19-.07-.07-.02-.14-.03-.21-.05-.03-.05-.07-.06-.12-.03-.13-.02-.27-.04-.4-.06,0-1.76,0-3.52,0-5.28,2.5,0,5,0,7.5-.01.16,0,.31-.01.47-.02.89.03,1.79.04,2.68,0,.88.05,1.75.04,2.63,0Z"/><path class="cls-14" d="m255,88.74c0,1.32,0,2.65,0,3.97-.5,0-1,.01-1.51.01-4.25,0-8.5-.02-12.75.02-1.12,0-1.7-.6-1.69-1.7.04-6.51.03-13.01,0-19.52,0-.78.63-1.4,1.37-1.39.43,0,.87-.01,1.3-.02.88.02,1.75.04,2.63-.01.89.05,1.79.03,2.68.01.14,0,.29.02.43.02,2.51,0,5.02,0,7.53.01,0,1.76,0,3.52,0,5.28-.28.13-.6.07-.89.18-1.24.48-2.06,1.32-2.36,2.64-.05.03-.09.06-.03.12-.1,1.09.01,2.09.99,2.82.31.23.43.57.3,1-.08.26-.18.52-.24.78-.17.73-.37,1.46-.56,2.18-.14.54-.31,1.07-.44,1.6-.13.53-.1,1.08-.12,1.62-.01.27.06.36.35.36.99-.01,1.99,0,2.98,0Z"/><path class="cls-21" d="m244.36,70.1c-.88.05-1.75.03-2.63.01,0-2.37-.02-4.73.02-7.1.02-1.09.16-2.18.48-3.24.38-1.28.93-2.48,1.66-3.59.92-1.39,2.06-2.57,3.41-3.54.89-.64,1.83-1.2,2.86-1.56,1.02-.35,2.05-.71,3.16-.78.62-.04,1.23-.14,1.86-.12,1.55.03,3.04.33,4.48.88,1.45.54,2.75,1.33,3.94,2.32,1.02.85,1.86,1.86,2.57,2.97.51.79.9,1.63,1.24,2.51.19.48.31.98.48,1.47.15.44.18.93.23,1.4.3,2.79.07,5.59.15,8.38-.88.03-1.75.04-2.63,0,0-2-.01-4,.01-5.99.01-1.15-.13-2.27-.41-3.38-.4-1.56-1.12-2.96-2.17-4.16-1.29-1.47-2.85-2.58-4.74-3.18-1.34-.43-2.7-.56-4.11-.48-1.3.08-2.53.38-3.69.93-1.93.9-3.46,2.28-4.59,4.1-.97,1.57-1.5,3.29-1.57,5.11-.09,2.35-.02,4.71-.02,7.06Z"/><path class="cls-8" d="m262.96,70.11c0-2.12.02-4.24,0-6.36-.01-1.13-.17-2.24-.62-3.29-.36-.83-.84-1.58-1.43-2.28-.89-1.03-1.99-1.74-3.24-2.2-1.15-.42-2.36-.56-3.61-.4-.76.1-1.49.27-2.18.57-1.91.83-3.31,2.19-4.17,4.1-.41.89-.57,1.83-.62,2.8-.11,2.35-.02,4.7-.05,7.05-.89.02-1.79.04-2.68-.01,0-2.35-.07-4.71.02-7.06.07-1.82.6-3.54,1.57-5.11,1.13-1.82,2.65-3.2,4.59-4.1,1.16-.54,2.39-.85,3.69-.93,1.41-.08,2.77.05,4.11.48,1.89.6,3.45,1.71,4.74,3.18,1.05,1.2,1.78,2.61,2.17,4.16.28,1.11.43,2.23.41,3.38-.03,2,0,4-.01,5.99-.89.05-1.79.03-2.68,0Z"/><path class="cls-16" d="m255,88.74c-.99,0-1.99-.02-2.98,0-.29,0-.36-.09-.35-.36.02-.54-.01-1.09.12-1.62.13-.54.29-1.07.44-1.6.19-.73.39-1.45.56-2.18.06-.27.16-.52.24-.78.13-.43,0-.77-.3-1-.98-.72-1.09-1.73-.99-2.82.05-.03.05-.07.03-.12.3-1.32,1.12-2.16,2.36-2.64.29-.11.61-.05.89-.18.13.02.27.04.4.06.03.07.06.11.12.03.07.02.14.03.21.05.04.09.12.07.19.07,1.38.44,2.6,2.18,2.34,3.63-.12.7-.35,1.3-.87,1.78-.32.29-.68.57-.49,1.1.12.34.22.68.31,1.03.33,1.29.71,2.58,1.02,3.87.12.48.08,1,.07,1.5,0,.21-.15.18-.28.18-1.02,0-2.03,0-3.05.01Z"/><path class="cls-8" d="m255.93,75.63c-.07,0-.16.02-.19-.07.09-.04.15,0,.19.07Z"/><path class="cls-8" d="m255.53,75.51c-.06.08-.1.04-.12-.03.05-.03.09-.01.12.03Z"/><path class="cls-21" d="m251.75,78.25s.03.09-.03.12c-.07-.06-.03-.09.03-.12Z"/><circle class="cls-2" cx="255.11" cy="73.47" r="34.13"/><path class="cls-22" d="m193.27,61.11c.43,0,.87.02,1.3.02.74,0,1.34.6,1.35,1.35,0,.68,0,1.36,0,2.04,0,5.76,0,11.51,0,17.27,0,.37-.01.76-.13,1.12-.14.43-.66.81-1.11.81-4.88,0-9.75,0-14.63,0-.02,0-.04,0-.07,0,0-1.32,0-2.65,0-3.97,1.02,0,2.03,0,3.05-.01.13,0,.28.03.28-.18,0-.5.04-1.01-.07-1.5-.31-1.3-.69-2.58-1.02-3.87-.09-.35-.19-.69-.31-1.03-.2-.53.17-.81.49-1.1.52-.48.74-1.08.87-1.78.26-1.45-.96-3.19-2.34-3.63-.05-.07-.11-.11-.19-.07-.07-.02-.14-.03-.21-.05-.03-.05-.07-.06-.12-.03-.13-.02-.27-.04-.4-.06,0-1.76,0-3.52,0-5.28,2.5,0,5,0,7.5-.01.16,0,.31-.01.47-.02.89.03,1.79.04,2.68,0,.88.05,1.75.04,2.63,0Z"/><path class="cls-14" d="m180,79.74c0,1.32,0,2.65,0,3.97-.5,0-1,.01-1.51.01-4.25,0-8.5-.02-12.75.02-1.12,0-1.7-.6-1.69-1.7.04-6.51.03-13.01,0-19.52,0-.78.63-1.4,1.37-1.39.43,0,.87-.01,1.3-.02.88.02,1.75.04,2.63-.01.89.05,1.79.03,2.68.01.14,0,.29.02.43.02,2.51,0,5.02,0,7.53.01,0,1.76,0,3.52,0,5.28-.28.13-.6.07-.89.18-1.24.48-2.06,1.32-2.36,2.64-.05.03-.09.06-.03.12-.1,1.09.01,2.09.99,2.82.31.23.43.57.3,1-.08.26-.18.52-.24.78-.17.73-.37,1.46-.56,2.18-.14.54-.31,1.07-.44,1.6-.13.53-.1,1.08-.12,1.62-.01.27.06.36.35.36.99-.01,1.99,0,2.98,0Z"/><path class="cls-21" d="m169.36,61.1c-.88.05-1.75.03-2.63.01,0-2.37-.02-4.73.02-7.1.02-1.09.16-2.18.48-3.24.38-1.28.93-2.48,1.66-3.59.92-1.39,2.06-2.57,3.41-3.54.89-.64,1.83-1.2,2.86-1.56,1.02-.35,2.05-.71,3.16-.78.62-.04,1.23-.14,1.86-.12,1.55.03,3.04.33,4.48.88,1.45.54,2.75,1.33,3.94,2.32,1.02.85,1.86,1.86,2.57,2.97.51.79.9,1.63,1.24,2.51.19.48.31.98.48,1.47.15.44.18.93.23,1.4.3,2.79.07,5.59.15,8.38-.88.03-1.75.04-2.63,0,0-2-.01-4,.01-5.99.01-1.15-.13-2.27-.41-3.38-.4-1.56-1.12-2.96-2.17-4.16-1.29-1.47-2.85-2.58-4.74-3.18-1.34-.43-2.7-.56-4.11-.48-1.3.08-2.53.38-3.69.93-1.93.9-3.46,2.28-4.59,4.1-.97,1.57-1.5,3.29-1.57,5.11-.09,2.35-.02,4.71-.02,7.06Z"/><path class="cls-8" d="m187.96,61.11c0-2.12.02-4.24,0-6.36-.01-1.13-.17-2.24-.62-3.29-.36-.83-.84-1.58-1.43-2.28-.89-1.03-1.99-1.74-3.24-2.2-1.15-.42-2.36-.56-3.61-.4-.76.1-1.49.27-2.18.57-1.91.83-3.31,2.19-4.17,4.1-.41.89-.57,1.83-.62,2.8-.11,2.35-.02,4.7-.05,7.05-.89.02-1.79.04-2.68-.01,0-2.35-.07-4.71.02-7.06.07-1.82.6-3.54,1.57-5.11,1.13-1.82,2.65-3.2,4.59-4.1,1.16-.54,2.39-.85,3.69-.93,1.41-.08,2.77.05,4.11.48,1.89.6,3.45,1.71,4.74,3.18,1.05,1.2,1.78,2.61,2.17,4.16.28,1.11.43,2.23.41,3.38-.03,2,0,4-.01,5.99-.89.05-1.79.03-2.68,0Z"/><path class="cls-16" d="m180,79.74c-.99,0-1.99-.02-2.98,0-.29,0-.36-.09-.35-.36.02-.54-.01-1.09.12-1.62.13-.54.29-1.07.44-1.6.19-.73.39-1.45.56-2.18.06-.27.16-.52.24-.78.13-.43,0-.77-.3-1-.98-.72-1.09-1.73-.99-2.82.05-.03.05-.07.03-.12.3-1.32,1.12-2.16,2.36-2.64.29-.11.61-.05.89-.18.13.02.27.04.4.06.03.07.06.11.12.03.07.02.14.03.21.05.04.09.12.07.19.07,1.38.44,2.6,2.18,2.34,3.63-.12.7-.35,1.3-.87,1.78-.32.29-.68.57-.49,1.1.12.34.22.68.31,1.03.33,1.29.71,2.58,1.02,3.87.12.48.08,1,.07,1.5,0,.21-.15.18-.28.18-1.02,0-2.03,0-3.05.01Z"/><path class="cls-8" d="m180.93,66.63c-.07,0-.16.02-.19-.07.09-.04.15,0,.19.07Z"/><path class="cls-8" d="m180.53,66.51c-.06.08-.1.04-.12-.03.05-.03.09-.01.12.03Z"/><path class="cls-21" d="m176.75,69.25s.03.09-.03.12c-.07-.06-.03-.09.03-.12Z"/><circle class="cls-2" cx="180.11" cy="64.47" r="34.13"/><path class="cls-22" d="m301.27,336.11c.43,0,.87.02,1.3.02.74,0,1.34.6,1.35,1.35,0,.68,0,1.36,0,2.04,0,5.76,0,11.51,0,17.27,0,.37-.01.76-.13,1.12-.14.43-.66.81-1.11.81-4.88,0-9.75,0-14.63,0-.02,0-.04,0-.07,0,0-1.32,0-2.65,0-3.97,1.02,0,2.03,0,3.05-.01.13,0,.28.03.28-.18,0-.5.04-1.01-.07-1.5-.31-1.3-.69-2.58-1.02-3.87-.09-.35-.19-.69-.31-1.03-.2-.53.17-.81.49-1.1.52-.48.74-1.08.87-1.78.26-1.45-.96-3.19-2.34-3.63-.05-.07-.11-.11-.19-.07-.07-.02-.14-.03-.21-.05-.03-.05-.07-.06-.12-.03-.13-.02-.27-.04-.4-.06,0-1.76,0-3.52,0-5.28,2.5,0,5,0,7.5-.01.16,0,.31-.01.47-.02.89.03,1.79.04,2.68,0,.88.05,1.75.04,2.63,0Z"/><path class="cls-14" d="m288,354.74c0,1.32,0,2.65,0,3.97-.5,0-1,.01-1.51.01-4.25,0-8.5-.02-12.75.02-1.12,0-1.7-.6-1.69-1.7.04-6.51.03-13.01,0-19.52,0-.78.63-1.4,1.37-1.39.43,0,.87-.01,1.3-.02.88.02,1.75.04,2.63-.01.89.05,1.79.03,2.68.01.14,0,.29.02.43.02,2.51,0,5.02,0,7.53.01,0,1.76,0,3.52,0,5.28-.28.13-.6.07-.89.18-1.24.48-2.06,1.32-2.36,2.64-.05.03-.09.06-.03.12-.1,1.09.01,2.09.99,2.82.31.23.43.57.3,1-.08.26-.18.52-.24.78-.17.73-.37,1.46-.56,2.18-.14.54-.31,1.07-.44,1.6-.13.53-.1,1.08-.12,1.62-.01.27.06.36.35.36.99-.01,1.99,0,2.98,0Z"/><path class="cls-21" d="m277.36,336.1c-.88.05-1.75.03-2.63.01,0-2.37-.02-4.73.02-7.1.02-1.09.16-2.18.48-3.24.38-1.28.93-2.48,1.66-3.59.92-1.39,2.06-2.57,3.41-3.54.89-.64,1.83-1.2,2.86-1.56,1.02-.35,2.05-.71,3.16-.78.62-.04,1.23-.14,1.86-.12,1.55.03,3.04.33,4.48.88,1.45.54,2.75,1.33,3.94,2.32,1.02.85,1.86,1.86,2.57,2.97.51.79.9,1.63,1.24,2.51.19.48.31.98.48,1.47.15.44.18.93.23,1.4.3,2.79.07,5.59.15,8.38-.88.03-1.75.04-2.63,0,0-2-.01-4,.01-5.99.01-1.15-.13-2.27-.41-3.38-.4-1.56-1.12-2.96-2.17-4.16-1.29-1.47-2.85-2.58-4.74-3.18-1.34-.43-2.7-.56-4.11-.48-1.3.08-2.53.38-3.69.93-1.93.9-3.46,2.28-4.59,4.1-.97,1.57-1.5,3.29-1.57,5.11-.09,2.35-.02,4.71-.02,7.06Z"/><path class="cls-8" d="m295.96,336.11c0-2.12.02-4.24,0-6.36-.01-1.13-.17-2.24-.62-3.29-.36-.83-.84-1.58-1.43-2.28-.89-1.03-1.99-1.74-3.24-2.2-1.15-.42-2.36-.56-3.61-.4-.76.1-1.49.27-2.18.57-1.91.83-3.31,2.19-4.17,4.1-.41.89-.57,1.83-.62,2.8-.11,2.35-.02,4.7-.05,7.05-.89.02-1.79.04-2.68-.01,0-2.35-.07-4.71.02-7.06.07-1.82.6-3.54,1.57-5.11,1.13-1.82,2.65-3.2,4.59-4.1,1.16-.54,2.39-.85,3.69-.93,1.41-.08,2.77.05,4.11.48,1.89.6,3.45,1.71,4.74,3.18,1.05,1.2,1.78,2.61,2.17,4.16.28,1.11.43,2.23.41,3.38-.03,2,0,4-.01,5.99-.89.05-1.79.03-2.68,0Z"/><path class="cls-16" d="m288,354.74c-.99,0-1.99-.02-2.98,0-.29,0-.36-.09-.35-.36.02-.54-.01-1.09.12-1.62.13-.54.29-1.07.44-1.6.19-.73.39-1.45.56-2.18.06-.27.16-.52.24-.78.13-.43,0-.77-.3-1-.98-.72-1.09-1.73-.99-2.82.05-.03.05-.07.03-.12.3-1.32,1.12-2.16,2.36-2.64.29-.11.61-.05.89-.18.13.02.27.04.4.06.03.07.06.11.12.03.07.02.14.03.21.05.04.09.12.07.19.07,1.38.44,2.6,2.18,2.34,3.63-.12.7-.35,1.3-.87,1.78-.32.29-.68.57-.49,1.1.12.34.22.68.31,1.03.33,1.29.71,2.58,1.02,3.87.12.48.08,1,.07,1.5,0,.21-.15.18-.28.18-1.02,0-2.03,0-3.05.01Z"/><path class="cls-8" d="m288.93,341.63c-.07,0-.16.02-.19-.07.09-.04.15,0,.19.07Z"/><path class="cls-8" d="m288.53,341.51c-.06.08-.1.04-.12-.03.05-.03.09-.01.12.03Z"/><path class="cls-21" d="m284.75,344.25s.03.09-.03.12c-.07-.06-.03-.09.03-.12Z"/><circle class="cls-2" cx="288.11" cy="339.47" r="34.13"/><path class="cls-22" d="m119.92,73.2c.42,0,.84.02,1.27.02.72,0,1.31.59,1.32,1.31,0,.66,0,1.32,0,1.98,0,5.59,0,11.19,0,16.78,0,.36-.01.73-.12,1.09-.13.42-.64.79-1.08.79-4.74,0-9.48,0-14.21,0-.02,0-.04,0-.06,0,0-1.29,0-2.57,0-3.86.99,0,1.97,0,2.96-.01.13,0,.27.03.27-.18,0-.49.04-.99-.07-1.45-.31-1.26-.67-2.51-.99-3.76-.09-.34-.18-.67-.3-1-.19-.51.16-.78.47-1.07.51-.47.72-1.05.85-1.73.25-1.41-.93-3.1-2.28-3.53-.04-.07-.1-.11-.19-.07-.07-.02-.14-.03-.21-.05-.03-.04-.07-.06-.12-.03-.13-.02-.26-.04-.39-.06,0-1.71,0-3.42,0-5.13,2.43,0,4.86,0,7.29-.01.15,0,.3-.01.45-.02.87.03,1.74.04,2.61,0,.85.05,1.7.04,2.55,0Z"/><path class="cls-14" d="m107.02,91.31c0,1.29,0,2.57,0,3.86-.49,0-.98,0-1.46,0-4.13,0-8.26-.02-12.4.01-1.09,0-1.65-.58-1.65-1.65.03-6.32.03-12.65,0-18.97,0-.76.61-1.36,1.33-1.35.42,0,.84-.01,1.27-.02.85.02,1.7.04,2.55-.01.87.05,1.73.03,2.6.01.14,0,.28.02.42.02,2.44,0,4.88,0,7.32.01,0,1.71,0,3.42,0,5.13-.27.13-.58.07-.87.18-1.21.47-2.01,1.28-2.29,2.57-.05.03-.09.06-.03.12-.1,1.06.01,2.04.97,2.74.3.22.42.55.29.97-.08.25-.17.5-.23.76-.17.71-.36,1.41-.54,2.12-.14.52-.3,1.04-.42,1.56-.12.52-.09,1.05-.11,1.58,0,.27.06.35.34.35.96-.01,1.93,0,2.9,0Z"/><path class="cls-21" d="m96.68,73.2c-.85.05-1.7.03-2.55.01,0-2.3-.02-4.6.02-6.9.02-1.06.16-2.12.47-3.15.37-1.24.9-2.41,1.61-3.49.89-1.35,2-2.5,3.32-3.44.87-.62,1.78-1.17,2.78-1.52.99-.34,2-.69,3.07-.76.6-.04,1.2-.13,1.8-.12,1.5.03,2.95.32,4.36.85,1.41.53,2.67,1.29,3.83,2.25.99.83,1.81,1.81,2.5,2.89.49.77.88,1.58,1.21,2.44.18.47.31.96.47,1.43.15.43.18.9.23,1.36.3,2.71.07,5.43.14,8.15-.85.03-1.7.04-2.55,0,0-1.94-.01-3.88.01-5.82.01-1.12-.13-2.21-.4-3.29-.38-1.51-1.09-2.88-2.11-4.05-1.25-1.43-2.77-2.51-4.6-3.09-1.3-.41-2.62-.54-3.99-.46-1.27.07-2.46.37-3.59.9-1.88.88-3.36,2.22-4.46,3.98-.95,1.52-1.46,3.2-1.53,4.96-.08,2.29-.02,4.58-.02,6.86Z"/><path class="cls-8" d="m114.76,73.21c0-2.06.02-4.12,0-6.18-.01-1.1-.17-2.18-.6-3.2-.35-.81-.81-1.54-1.39-2.21-.86-1-1.93-1.69-3.15-2.13-1.12-.41-2.3-.54-3.51-.39-.74.09-1.45.26-2.12.55-1.85.81-3.21,2.13-4.06,3.99-.39.87-.55,1.77-.6,2.72-.11,2.28-.02,4.57-.05,6.85-.87.02-1.74.04-2.6-.01,0-2.29-.07-4.58.02-6.86.06-1.77.58-3.44,1.53-4.96,1.1-1.77,2.58-3.11,4.46-3.98,1.13-.53,2.32-.83,3.59-.9,1.37-.08,2.69.05,3.99.46,1.84.58,3.35,1.66,4.6,3.09,1.02,1.17,1.73,2.53,2.11,4.05.27,1.08.41,2.17.4,3.29-.02,1.94,0,3.88-.01,5.82-.87.05-1.74.03-2.61,0Z"/><path class="cls-16" d="m107.02,91.31c-.97,0-1.93-.02-2.9,0-.28,0-.35-.08-.34-.35.02-.53-.01-1.06.11-1.58.13-.52.29-1.04.42-1.56.19-.71.38-1.41.54-2.12.06-.26.16-.51.23-.76.12-.41,0-.75-.29-.97-.95-.7-1.06-1.68-.97-2.74.05-.03.05-.07.03-.12.29-1.28,1.09-2.1,2.29-2.57.29-.11.59-.05.87-.18.13.02.26.04.39.06.03.07.06.11.12.03.07.02.14.03.21.05.04.09.12.07.19.07,1.34.43,2.53,2.12,2.28,3.53-.12.68-.34,1.26-.85,1.73-.31.28-.66.55-.47,1.07.12.33.22.66.3,1,.32,1.26.69,2.5.99,3.76.11.47.08.97.07,1.45,0,.21-.15.18-.27.18-.99,0-1.97,0-2.96.01Z"/><path class="cls-8" d="m107.93,78.57c-.07,0-.15.02-.19-.07.09-.04.14,0,.19.07Z"/><path class="cls-8" d="m107.53,78.46c-.06.08-.09.04-.12-.03.05-.03.09-.01.12.03Z"/><path class="cls-21" d="m103.86,81.11s.03.09-.03.12c-.07-.06-.03-.09.03-.12Z"/><circle class="cls-2" cx="107.13" cy="76.47" r="33.17"/><path class="cls-22" d="m69.21,142.38c.4,0,.8.01,1.2.02.68,0,1.23.55,1.24,1.24,0,.62,0,1.25,0,1.87,0,5.29,0,10.57,0,15.86,0,.34-.01.69-.12,1.03-.12.39-.61.75-1.02.75-4.48,0-8.95,0-13.43,0-.02,0-.04,0-.06,0,0-1.22,0-2.43,0-3.65.93,0,1.87,0,2.8,0,.12,0,.25.03.26-.17,0-.46.04-.93-.07-1.37-.29-1.19-.63-2.37-.94-3.56-.08-.32-.17-.64-.29-.95-.18-.49.15-.74.45-1.01.48-.44.68-1,.8-1.63.24-1.33-.88-2.93-2.15-3.34-.04-.07-.1-.1-.18-.06-.07-.01-.13-.03-.2-.04-.03-.04-.07-.05-.11-.03-.12-.02-.25-.04-.37-.05,0-1.62,0-3.23,0-4.85,2.29,0,4.59,0,6.88-.01.14,0,.29-.01.43-.02.82.03,1.64.04,2.46,0,.8.05,1.61.04,2.41,0Z"/><path class="cls-14" d="m57.03,159.49c0,1.22,0,2.43,0,3.65-.46,0-.92,0-1.38,0-3.9,0-7.81-.02-11.71.01-1.03,0-1.56-.55-1.55-1.56.03-5.97.02-11.95,0-17.92,0-.72.58-1.29,1.26-1.27.4,0,.8,0,1.2-.02.8.02,1.61.04,2.41-.01.82.05,1.64.03,2.46.01.13,0,.27.02.4.02,2.31,0,4.61,0,6.92,0,0,1.62,0,3.23,0,4.85-.26.12-.55.06-.82.17-1.14.44-1.89,1.21-2.17,2.42-.05.03-.09.06-.02.11-.09,1,.01,1.92.91,2.59.28.21.39.52.28.92-.07.24-.16.47-.22.72-.16.67-.34,1.34-.51,2-.13.49-.28.98-.4,1.47-.12.49-.09.99-.11,1.49,0,.25.06.33.32.33.91-.01,1.82,0,2.74,0Z"/><path class="cls-21" d="m47.25,142.38c-.8.05-1.61.03-2.41.01,0-2.17-.02-4.34.01-6.52.01-1.01.15-2,.44-2.98.35-1.17.85-2.28,1.52-3.29.84-1.27,1.89-2.36,3.14-3.25.82-.58,1.68-1.11,2.62-1.43.94-.33,1.89-.65,2.9-.72.57-.04,1.13-.12,1.7-.11,1.42.02,2.79.31,4.12.8,1.33.5,2.52,1.22,3.61,2.13.94.78,1.71,1.71,2.36,2.73.46.73.83,1.5,1.14,2.3.17.44.29.9.44,1.35.14.41.17.85.21,1.29.28,2.56.07,5.13.14,7.7-.8.03-1.61.04-2.41,0,0-1.83-.01-3.67,0-5.5.01-1.06-.12-2.09-.38-3.11-.36-1.43-1.03-2.72-2-3.82-1.18-1.35-2.62-2.37-4.35-2.92-1.23-.39-2.48-.51-3.77-.44-1.2.07-2.32.35-3.39.85-1.78.83-3.18,2.1-4.21,3.76-.89,1.44-1.38,3.02-1.44,4.69-.08,2.16-.02,4.32-.02,6.49Z"/><path class="cls-8" d="m64.34,142.39c0-1.95.02-3.89,0-5.84-.01-1.03-.16-2.06-.57-3.02-.33-.76-.77-1.46-1.31-2.09-.81-.95-1.83-1.6-2.97-2.02-1.06-.38-2.17-.51-3.31-.37-.7.09-1.37.25-2,.52-1.75.76-3.04,2.02-3.83,3.77-.37.82-.52,1.68-.57,2.57-.11,2.16-.01,4.32-.05,6.48-.82.01-1.64.04-2.46-.01,0-2.16-.06-4.33.02-6.49.06-1.67.55-3.25,1.44-4.69,1.04-1.67,2.44-2.94,4.21-3.76,1.07-.5,2.2-.78,3.39-.85,1.29-.08,2.54.05,3.77.44,1.73.55,3.17,1.57,4.35,2.92.97,1.1,1.63,2.39,2,3.82.26,1.02.39,2.05.38,3.11-.02,1.83,0,3.67,0,5.5-.82.04-1.64.03-2.46,0Z"/><path class="cls-16" d="m57.03,159.49c-.91,0-1.82-.02-2.74,0-.26,0-.33-.08-.32-.33.02-.5-.01-1,.11-1.49.12-.49.27-.98.4-1.47.18-.67.35-1.33.51-2,.06-.25.15-.48.22-.72.12-.39,0-.71-.28-.92-.9-.66-1-1.59-.91-2.59.05-.03.05-.07.02-.11.27-1.21,1.03-1.98,2.17-2.42.27-.1.56-.04.82-.17.12.02.25.04.37.05.02.06.05.1.11.03.07.01.13.03.2.04.04.09.11.07.18.07,1.27.41,2.39,2.01,2.15,3.34-.11.64-.32,1.19-.8,1.63-.29.27-.63.52-.45,1.01.11.31.2.63.29.95.31,1.19.65,2.36.94,3.56.11.44.07.91.07,1.37,0,.2-.14.17-.26.17-.93,0-1.87,0-2.8,0Z"/><path class="cls-8" d="m57.88,147.45c-.07,0-.14.02-.18-.07.08-.04.14,0,.18.07Z"/><path class="cls-8" d="m57.51,147.35c-.06.07-.09.04-.11-.03.05-.03.08-.01.11.03Z"/><path class="cls-21" d="m54.04,149.86s.03.08-.02.11c-.06-.05-.02-.08.02-.11Z"/><circle class="cls-2" cx="57.13" cy="145.47" r="31.34"/><path class="cls-22" d="m60.54,223.3c.41,0,.82.01,1.23.02.7,0,1.27.57,1.28,1.27,0,.64,0,1.28,0,1.93,0,5.43,0,10.86,0,16.29,0,.35-.01.71-.12,1.05-.13.41-.62.77-1.04.77-4.6,0-9.2,0-13.79,0-.02,0-.04,0-.06,0,0-1.25,0-2.5,0-3.75.96,0,1.92,0,2.87,0,.12,0,.26.03.26-.17,0-.47.04-.96-.07-1.41-.3-1.22-.65-2.43-.96-3.65-.08-.33-.18-.65-.3-.97-.18-.5.16-.76.46-1.04.49-.45.7-1.02.82-1.68.25-1.37-.9-3.01-2.21-3.43-.04-.07-.1-.11-.18-.07-.07-.01-.13-.03-.2-.04-.03-.04-.07-.05-.12-.03-.13-.02-.25-.04-.38-.05,0-1.66,0-3.32,0-4.98,2.36,0,4.71,0,7.07-.01.15,0,.29-.01.44-.02.84.03,1.69.04,2.53,0,.83.05,1.65.04,2.48,0Z"/><path class="cls-14" d="m48.02,240.87c0,1.25,0,2.5,0,3.75-.47,0-.95,0-1.42,0-4.01,0-8.02-.02-12.03.01-1.06,0-1.6-.57-1.6-1.6.03-6.14.02-12.27,0-18.41,0-.74.59-1.32,1.29-1.31.41,0,.82,0,1.23-.02.83.02,1.65.04,2.48-.01.84.05,1.68.03,2.53.01.14,0,.27.02.41.02,2.37,0,4.74,0,7.1.01,0,1.66,0,3.32,0,4.98-.27.13-.56.06-.84.17-1.17.45-1.95,1.25-2.22,2.49-.05.03-.09.06-.02.11-.09,1.03.01,1.98.94,2.66.29.21.4.54.29.94-.07.25-.17.49-.22.74-.16.69-.35,1.37-.53,2.06-.13.51-.29,1.01-.41,1.51-.12.5-.09,1.02-.11,1.53,0,.26.06.34.33.34.94-.01,1.87,0,2.81,0Z"/><path class="cls-21" d="m37.98,223.29c-.83.05-1.65.03-2.48.01,0-2.23-.02-4.46.01-6.69.02-1.03.15-2.06.45-3.06.36-1.21.87-2.34,1.56-3.38.87-1.31,1.94-2.42,3.22-3.34.84-.6,1.73-1.14,2.69-1.47.96-.33,1.94-.67,2.98-.74.58-.04,1.16-.13,1.75-.12,1.46.03,2.87.31,4.23.83,1.37.51,2.59,1.25,3.71,2.19.96.8,1.75,1.75,2.43,2.8.48.74.85,1.54,1.17,2.36.18.46.3.93.45,1.39.14.42.17.88.22,1.32.29,2.63.07,5.27.14,7.91-.83.03-1.65.04-2.48,0,0-1.88-.01-3.77,0-5.65.01-1.08-.12-2.14-.39-3.19-.37-1.47-1.06-2.79-2.05-3.93-1.22-1.39-2.69-2.43-4.47-3-1.26-.4-2.54-.53-3.87-.45-1.23.07-2.39.36-3.48.87-1.82.85-3.26,2.15-4.33,3.87-.92,1.48-1.42,3.1-1.48,4.82-.08,2.22-.02,4.44-.02,6.66Z"/><path class="cls-8" d="m55.53,223.3c0-2,.02-4,0-6-.01-1.06-.16-2.11-.58-3.1-.34-.78-.79-1.49-1.35-2.15-.84-.97-1.88-1.64-3.05-2.07-1.09-.39-2.23-.53-3.4-.38-.72.09-1.41.25-2.06.54-1.8.78-3.12,2.07-3.94,3.87-.38.84-.54,1.72-.58,2.64-.11,2.22-.01,4.44-.05,6.65-.84.02-1.68.04-2.53-.01,0-2.22-.06-4.44.02-6.66.06-1.71.56-3.34,1.48-4.82,1.06-1.71,2.5-3.02,4.33-3.87,1.1-.51,2.26-.8,3.48-.87,1.33-.08,2.61.05,3.87.45,1.78.57,3.25,1.61,4.47,3,.99,1.13,1.68,2.46,2.05,3.93.27,1.05.4,2.11.39,3.19-.02,1.88,0,3.77,0,5.65-.84.04-1.69.03-2.53,0Z"/><path class="cls-16" d="m48.02,240.87c-.94,0-1.87-.02-2.81,0-.27,0-.34-.08-.33-.34.02-.51-.01-1.03.11-1.53.12-.51.28-1.01.41-1.51.18-.68.36-1.37.53-2.06.06-.25.15-.49.22-.74.12-.4,0-.73-.29-.94-.92-.68-1.03-1.63-.94-2.66.05-.03.05-.07.02-.11.28-1.24,1.05-2.04,2.22-2.49.28-.11.58-.05.84-.17.13.02.25.04.38.05.02.07.06.1.12.03.07.01.13.03.2.04.04.09.11.07.18.07,1.3.42,2.45,2.06,2.21,3.43-.12.66-.33,1.22-.82,1.68-.3.28-.64.54-.46,1.04.12.32.21.64.3.97.31,1.22.67,2.43.96,3.65.11.46.08.94.07,1.41,0,.2-.14.17-.26.17-.96,0-1.92,0-2.87,0Z"/><path class="cls-8" d="m48.9,228.51c-.07,0-.15.02-.18-.07.08-.04.14,0,.18.07Z"/><path class="cls-8" d="m48.52,228.4c-.06.07-.09.04-.12-.03.05-.03.09-.01.12.03Z"/><path class="cls-21" d="m44.96,230.98s.03.09-.02.11c-.06-.05-.02-.08.02-.11Z"/><circle class="cls-2" cx="48.13" cy="226.47" r="32.19"/><line class="cls-5" x1="200" y1="282.5" x2="200" y2="324.5"/><line class="cls-4" x1="200" y1="282.5" x2="200" y2="313.74"/><polygon class="cls-24" points="192.52 311.55 200 324.5 207.48 311.55 192.52 311.55"/><line class="cls-5" x1="167.91" y1="274.17" x2="147.49" y2="310.88"/><line class="cls-4" x1="167.91" y1="274.17" x2="152.72" y2="301.47"/><polygon class="cls-24" points="147.25 295.92 147.49 310.88 160.32 303.19 147.25 295.92"/><line class="cls-5" x1="143.92" y1="251.3" x2="108.23" y2="273.44"/><line class="cls-4" x1="143.92" y1="251.3" x2="117.38" y2="267.76"/><polygon class="cls-24" points="115.29 260.26 108.23 273.44 123.18 272.97 115.29 260.26"/><line class="cls-5" x1="134.07" y1="219.64" x2="92.12" y2="221.64"/><line class="cls-4" x1="134.07" y1="219.64" x2="102.87" y2="221.13"/><polygon class="cls-24" points="104.7 213.55 92.12 221.64 105.42 228.49 104.7 213.55"/><line class="cls-5" x1="140.86" y1="187.19" x2="103.23" y2="168.54"/><line class="cls-4" x1="140.86" y1="187.19" x2="112.88" y2="173.32"/><polygon class="cls-24" points="118.16 167.59 103.23 168.54 111.52 180.99 118.16 167.59"/><line class="cls-5" x1="162.57" y1="162.14" x2="138.76" y2="127.54"/><line class="cls-4" x1="162.57" y1="162.14" x2="144.86" y2="136.41"/><polygon class="cls-24" points="152.26 133.97 138.76 127.54 139.94 142.45 152.26 133.97"/><line class="cls-5" x1="193.73" y1="150.8" x2="189.73" y2="108.99"/><line class="cls-4" x1="193.73" y1="150.8" x2="190.76" y2="119.7"/><polygon class="cls-24" points="198.41 121.17 189.73 108.99 183.52 122.59 198.41 121.17"/><line class="cls-5" x1="226.46" y1="156.04" x2="243.3" y2="117.56"/><line class="cls-4" x1="226.46" y1="156.04" x2="238.98" y2="127.42"/><polygon class="cls-24" points="244.96 132.42 243.3 117.56 231.26 126.43 244.96 132.42"/><line class="cls-5" x1="252.52" y1="176.53" x2="285.94" y2="151.09"/><line class="cls-4" x1="252.52" y1="176.53" x2="277.38" y2="157.61"/><polygon class="cls-24" points="280.17 164.89 285.94 151.09 271.11 152.99 280.17 164.89"/><line class="cls-5" x1="265.33" y1="207.11" x2="306.9" y2="201.13"/><line class="cls-4" x1="265.33" y1="207.11" x2="296.25" y2="202.66"/><polygon class="cls-24" points="295.14 210.38 306.9 201.13 293.02 195.57 295.14 210.38"/><line class="cls-5" x1="261.65" y1="240.05" x2="300.89" y2="255.04"/><line class="cls-4" x1="261.65" y1="240.05" x2="290.83" y2="251.2"/><polygon class="cls-24" points="286.12 257.41 300.89 255.04 291.46 243.43 286.12 257.41"/><line class="cls-5" x1="242.42" y1="267.06" x2="269.42" y2="299.23"/><line class="cls-4" x1="242.42" y1="267.06" x2="262.5" y2="290.99"/><polygon class="cls-24" points="255.37 294.12 269.42 299.23 266.83 284.5 255.37 294.12"/><circle class="cls-3" cx="331.73" cy="108.92" r="40.5"/><path class="cls-17" d="m322.91,142.58c-.18-.14-.4-.2-.63-.18-3.48-.82-5.89-3.99-5.76-7.56v-36.09c-.11-3.02,1.64-5.8,4.41-7.02.99-.46,2.06-.71,3.15-.72h15.48c4.14-.04,7.52,3.28,7.56,7.42,0,.05,0,.1,0,.14v36.36c.07,3.6-2.48,6.73-6.03,7.38-.23-.02-.45.04-.63.18h-17.55v.09Zm8.82-29.79h10.26c1.17,0,1.62-.54,1.62-1.62v-13.59c.14-.81-.41-1.57-1.22-1.71-.16-.03-.33-.03-.49,0h-20.34c-.81-.14-1.57.41-1.71,1.22-.03.16-.03.33,0,.49v13.5c0,1.17.45,1.71,1.71,1.71h10.17Zm3.15,6.66c.01-1.68-1.33-3.05-3.01-3.06-.02,0-.04,0-.05,0-1.73.02-3.13,1.42-3.15,3.15.03,1.71,1.44,3.08,3.15,3.06,1.73-.02,3.13-1.42,3.15-3.15h-.09Zm4.32-.18v1.71c-.05.39.22.76.62.81.06,0,.13,0,.19,0h2.61c.39.05.76-.22.81-.62,0-.06,0-.13,0-.19v-3.51c.05-.39-.22-.76-.62-.81-.06,0-.13,0-.19,0h-2.61c-.39-.05-.76.22-.81.62,0,.06,0,.13,0,.19v1.8Zm-19.08.27v1.8c-.05.39.22.76.62.81.06,0,.13,0,.19,0h2.61c.54,0,.81-.27.81-.72v-3.6c.01-.42-.3-.77-.72-.81h-2.7c-.54,0-.72.27-.81.81v1.71h0Zm20.7,13.14h1.71c.54,0,.81-.36.81-.9,0-1.26-.09-1.71-.72-1.8h-3.51c-.42-.03-.78.28-.81.7,0,.04,0,.07,0,.11v1.08c0,.54.27.81.9.81h1.62Zm-18.27,5.13h.81c1.71,0,1.71-.36,1.71-1.71,0-.72-.27-.99-.99-.99h-2.25c-1.89,0-1.8.27-1.71,1.89-.03.47.32.87.79.9.04,0,.07,0,.11,0h1.62l-.09-.09Zm9.27-5.13h1.53c.72,0,.99-.27,1.08-.99v-.72c0-.72-.27-.99-.99-.99h-2.25c-1.98,0-1.8.36-1.8,1.89-.05.44.26.85.71.9.06,0,.13,0,.19,0h1.62l-.09-.09Zm0,2.34h-1.71c-.39-.05-.76.22-.81.62,0,.06,0,.13,0,.19v.97c-.05.49.31.94.8.99.06,0,.13,0,.19,0h2.34c1.89,0,1.8-.36,1.8-1.89.05-.44-.26-.85-.71-.9-.06,0-.13,0-.19,0h-1.71v.02Zm8.91,2.79h.81c1.8.09,1.71-.36,1.71-1.8v-.18c.03-.42-.28-.78-.7-.81-.04,0-.07,0-.11,0h-3.33c-.46-.04-.86.3-.9.75,0,.02,0,.04,0,.06v1.08c0,.54.36.81.9.81h1.62v.09Zm-8.91-10.17h.72c1.89,0,1.8-.27,1.8-1.89h0c.03-.42-.28-.78-.7-.81-.04,0-.07,0-.11,0h-3.33c-.42-.03-.78.28-.81.7,0,.04,0,.07,0,.11v.99c0,.63.27.9.9.9h1.53,0Zm8.91,0h1.71c.54,0,.81-.36.81-.9.09-1.17,0-1.71-.63-1.89h-3.6c-.42-.03-.78.28-.81.7,0,.04,0,.07,0,.11v.99c-.05.44.26.85.71.9.06,0,.13,0,.19,0h1.62v.09Zm-18.18,0h1.71c.63,0,.81-.36.81-1.53,0-.81-.27-1.17-.81-1.17h-3.33c-.42-.03-.78.28-.81.7,0,.04,0,.07,0,.11v.99c0,.63.27.9.9.9h1.53Zm0,5.04h1.71c.54,0,.81-.36.81-.9.09-1.26,0-1.71-.63-1.8h-3.51c-.44-.05-.85.26-.9.71,0,.06,0,.13,0,.19v.99c0,.54.27.81.9.9h1.62v-.09Z"/><path class="cls-7" d="m331.73,112.79h-10.08c-1.26,0-1.71-.45-1.71-1.71v-13.5c0-1.17.45-1.71,1.71-1.71h20.34c1.26,0,1.71.45,1.71,1.71v13.59c0,1.17-.54,1.62-1.62,1.62h-10.35Z"/><path class="cls-12" d="m334.88,119.45c-.02,1.73-1.42,3.13-3.15,3.15-1.69-.04-3.06-1.38-3.15-3.06.02-1.73,1.42-3.13,3.15-3.15,1.68-.01,3.05,1.33,3.06,3.01,0,.02,0,.04,0,.05h.09Z"/><path class="cls-12" d="m339.2,119.27v-1.8c-.05-.39.22-.76.62-.81.06,0,.13,0,.19,0h2.61c.39-.05.76.22.81.62,0,.06,0,.13,0,.19v3.51c.05.39-.22.76-.62.81-.06,0-.13,0-.19,0h-2.61c-.39.05-.76-.22-.81-.62,0-.06,0-.13,0-.19v-1.71Z"/><path class="cls-12" d="m320.12,119.54v-1.71c-.05-.39.22-.76.62-.81.06,0,.13,0,.19,0h2.7c.45,0,.72.27.72.81v3.6c0,.54-.27.72-.81.72h-2.61c-.54,0-.72-.27-.81-.81v-1.8Z"/><path class="cls-12" d="m340.91,132.68h-1.62c-.46.04-.86-.3-.9-.75,0-.02,0-.04,0-.06v-1.08c-.03-.42.28-.78.7-.81.04,0,.07,0,.11,0h3.51c.63.09.81.54.72,1.8,0,.54-.27.9-.81.9h-1.71Z"/><path class="cls-12" d="m322.64,137.7h-1.62c-.44.05-.85-.26-.9-.71,0-.06,0-.13,0-.19,0-1.62-.18-1.98,1.71-1.89h2.25c.72,0,.99.27.99.99,0,1.44,0,1.8-1.71,1.71h-.9l.18.09Z"/><path class="cls-12" d="m331.91,132.68h-1.62c-.47.03-.87-.32-.9-.79,0-.04,0-.07,0-.11,0-1.53-.18-1.98,1.8-1.89h2.25c.72,0,.99.27.99.99v.72c0,.72-.27.99-1.08.99h-1.53l.09.09Z"/><path class="cls-12" d="m332,135h1.62c.47-.03.87.32.9.79,0,.04,0,.07,0,.11,0,1.53.18,1.98-1.8,1.89h-2.34c-.63,0-.9-.27-.99-.99v-.99c-.03-.42.28-.78.7-.81.04,0,.07,0,.11,0h1.8Z"/><path class="cls-12" d="m340.82,137.7h-1.62c-.46.04-.86-.3-.9-.75,0-.02,0-.04,0-.06v-1.08c0-.54.27-.81.9-.81h3.33c.39-.05.76.22.81.62,0,.06,0,.13,0,.19v.18c0,1.44,0,1.89-1.71,1.8h-.9l.09-.09Z"/><path class="cls-12" d="m331.91,127.64h-1.62c-.44.05-.85-.26-.9-.71,0-.06,0-.13,0-.19v-.99c-.03-.42.28-.78.7-.81.04,0,.07,0,.11,0h3.33c.42-.03.78.28.81.7,0,.04,0,.07,0,.11h0c0,1.62.09,1.98-1.8,1.89h-.63Z"/><path class="cls-12" d="m340.82,127.64h-1.62c-.54,0-.81-.36-.9-.9v-.99c-.05-.39.22-.76.62-.81.06,0,.13,0,.19,0h3.6c.54.18.72.63.63,1.89.04.46-.3.86-.75.9-.02,0-.04,0-.06,0h-1.71v-.09Z"/><path class="cls-12" d="m322.64,127.64h-1.62c-.63,0-.9-.27-.9-.9v-.99c-.03-.42.28-.78.7-.81.04,0,.07,0,.11,0h3.33c.63,0,.81.36.81,1.17,0,1.17-.18,1.53-.81,1.53h-1.62,0Z"/><path class="cls-12" d="m322.64,132.68h-1.62c-.44.05-.85-.26-.9-.71,0-.06,0-.13,0-.19v-.99c-.03-.47.32-.87.79-.9.04,0,.07,0,.11,0h3.51c.54.09.72.63.63,1.8,0,.54-.27.9-.81.9h-1.71v.09Z"/><path d="m301.8,109.71c1.87-.47,3.77.65,4.27,2.51l.38,1.41,3.07-.84.57,2.22-9.78,2.65-1.04-3.68c-.54-1.83.51-3.75,2.34-4.29.03,0,.06-.02.09-.03l.08.04Zm.57,2.22c-.65.13-1.07.77-.94,1.42,0,.05.02.09.04.14l.38,1.41,2.46-.65-.38-1.41c-.17-.65-.82-1.03-1.47-.87-.04.01-.09.03-.13.04l.04-.08Z"/><path d="m303.89,100.56l4.43.06-.03,2.21-4.1-.09c-.66-.08-1.26.4-1.34,1.06,0,.06,0,.11,0,.17-.06.69.45,1.3,1.14,1.36.1,0,.2,0,.3,0l3.9.09-.03,2.21-10.1-.25.03-2.21,3.5.09c-1.08-1.02-1.13-2.73-.11-3.82.59-.63,1.45-.93,2.3-.82l.12-.04Z"/><path d="m304.96,99.09c-2.04-.6-3.2-2.73-2.6-4.77s2.73-3.2,4.77-2.6,3.2,2.73,2.6,4.77c0,.03-.02.06-.03.09-.61,2-2.73,3.13-4.73,2.52,0,0,0,0-.01,0Zm1.68-5.21c-.81-.31-1.71.1-2.02.91-.02.05-.03.1-.05.15-.28.88.22,1.82,1.1,2.1.01,0,.03,0,.04.01.81.31,1.71-.1,2.02-.91.02-.05.03-.1.05-.15.28-.88-.22-1.82-1.1-2.1-.01,0-.03,0-.04-.01Z"/><path d="m311.11,84.24l3.71,2.42-1.23,1.8-3.39-2.26c-.53-.42-1.29-.33-1.71.2-.02.03-.05.06-.07.1-.37.72-.38,1.32.5,1.98l3.23,2.18-1.23,1.8-6.02-4.02,1.23-1.8.56.29c-.23-.73-.08-1.53.39-2.13.83-1.24,2.51-1.57,3.74-.75.07.05.14.1.21.15l.08.04Z"/><path d="m317.02,82.42c.39-.36.64-.84.7-1.36l2.02-.38c.09,1.24-.46,2.45-1.45,3.2-1.5,1.48-3.91,1.46-5.38-.04-1.48-1.5-1.46-3.91.04-5.38.09-.08.18-.17.27-.24,1.66-1.32,4.08-1.04,5.4.63.16.2.3.43.42.66l-3.95,3.33c.65.33,1.45.21,1.98-.3l-.04-.12Zm-.65-2.87c-.58-.43-1.38-.37-1.89.14-.59.43-.79,1.23-.47,1.89l2.36-2.02Z"/><path d="m337.7,84.33l-1.66-3.6c.08-.04-.58,3.04-.58,3.04l-2.12-.51,2.2-9.84,2.12.51-1.35,5.88,2.78-2.57,2.44.56-3.31,2.92,1.89,4.09-2.44-.56.04.08Z"/><path d="m343.84,84.96c.44.24.97.28,1.45.13l1.08,1.68c-1.11.52-2.41.5-3.5-.07-1.89-.79-2.78-2.95-1.99-4.84.05-.13.11-.25.18-.37.91-1.88,3.17-2.66,5.05-1.75.04.02.08.04.12.06,1.8.92,2.52,3.13,1.59,4.93-.02.04-.04.08-.06.11-.12.26-.28.5-.47.71l-4.56-2.36c-.07.74.38,1.43,1.08,1.68l.04.08Zm2.39-1.7c.18-.69-.15-1.41-.79-1.72-.64-.37-1.44-.24-1.94.3l2.73,1.41Z"/><path d="m356.28,87.64l-6.51,3.5c-2.13,1.18-3.7,1.01-5.14-.4l1.38-1.53c.52.64,1.45.78,2.12.31l2.51-7.01,1.72,1.58-1.75,4.38,3.98-2.33,1.72,1.58-.04-.08Z"/><path d="m358.66,97.74c-1.66,1.15-3.94.74-5.08-.92h0c-.48-.67-.62-1.52-.37-2.31l-3,1.88-1.15-1.85,8.54-5.33,1.15,1.85-.57.26c.8.2,1.49.69,1.93,1.39.98,1.69.42,3.85-1.27,4.84-.04.02-.09.05-.13.07l-.04.12Zm-1.15-1.85c.8-.44,1.1-1.44.66-2.25-.02-.04-.04-.08-.07-.11-.42-.77-1.39-1.06-2.16-.64-.08.05-.17.1-.24.16-.8.44-1.1,1.44-.66,2.25.02.04.04.08.07.11.42.77,1.39,1.06,2.16.64.08-.05.17-.1.24-.16Z"/><path d="m364.67,105.38l-6.98,1.84-.58-2.11.57-.26c-.7-.34-1.21-.98-1.4-1.73-.43-1.9.76-3.8,2.66-4.24.04,0,.09-.02.13-.03,1.89-.62,3.92.42,4.54,2.31,0,.01,0,.02.01.03.26.78.14,1.64-.31,2.33l.57-.26c.04.08.62,2.19.62,2.19l.17-.06Zm-4.03-1.21c.93-.2,1.52-1.11,1.33-2.04,0-.02,0-.04-.01-.06-.18-.88-1.04-1.44-1.92-1.26-.08.02-.15.04-.22.06-.86.15-1.44.97-1.29,1.83.01.08.03.15.06.22.18.88,1.04,1.44,1.92,1.26.08-.02.15-.04.22-.06l-.08.04Z"/><path d="m367.56,115.94l-10.1-.39.11-2.13.69-.02c-.59-.57-.89-1.38-.82-2.2.26-2.08,2.16-3.56,4.24-3.3,1.83.23,3.23,1.73,3.32,3.58.02.83-.35,1.62-.99,2.14l3.54.15-.11,2.13.12.04Zm-6.37-2.41c.94,0,1.71-.77,1.7-1.72,0-.94-.77-1.71-1.72-1.7-.91,0-1.66.72-1.7,1.64-.08.91.6,1.7,1.5,1.78.07,0,.14,0,.21,0Z"/></svg>