<?xml version="1.0" encoding="UTF-8"?><svg id="Layer_1" xmlns="http://www.w3.org/2000/svg" viewBox="0 0 400 264"><defs><style>.cls-1{fill:#009245;}.cls-2{stroke:#000;}.cls-2,.cls-3{stroke-width:4px;}.cls-2,.cls-3,.cls-4{stroke-miterlimit:10;}.cls-2,.cls-3,.cls-4,.cls-5{fill:none;}.cls-6{fill:#57575e;}.cls-7{fill:#d9d9ea;}.cls-8{fill:#727272;}.cls-9{fill:#eb917f;}.cls-10{fill:#48459c;}.cls-11{fill:#546e7a;}.cls-12{fill:#434348;}.cls-13{fill:#f3bd99;}.cls-3{stroke:#c000e2;}.cls-14{fill:#626363;}.cls-15{fill:#3392f5;}.cls-16{fill:#f4bd99;}.cls-17{fill:#93dbfe;}.cls-18{fill:#ffed58;}.cls-4{stroke:#231f20;stroke-width:2px;}.cls-19{fill:#36464e;}.cls-20{fill:#424248;}.cls-21{fill:#6f7070;}.cls-22{fill:#0aaffe;}.cls-23{fill:#97d6e5;}.cls-24{fill:#788f9b;}.cls-25{fill:#3392f6;}.cls-26{fill:#636363;}.cls-27{fill:#9dd8e6;}.cls-28{fill:#fbd734;}.cls-29{fill:#60acfd;}.cls-30{fill:#231f20;}.cls-31{fill:#2dbafe;}.cls-32{fill:#067fa6;}</style></defs><line class="cls-5" x1="200.28" y1="115.16" x2="200.78" y2="147.94"/><line class="cls-4" x1="200.28" y1="115.16" x2="200.61" y2="137.18"/><polygon class="cls-30" points="193.1 135.1 200.78 147.94 208.06 134.88 193.1 135.1"/><line class="cls-5" x1="118.68" y1="110.9" x2="167.32" y2="150.2"/><line class="cls-4" x1="118.68" y1="110.9" x2="158.95" y2="143.44"/><polygon class="cls-30" points="152.55 147.88 167.32 150.21 161.95 136.25 152.55 147.88"/><line class="cls-5" x1="281.32" y1="110.9" x2="232.68" y2="150.2"/><line class="cls-4" x1="281.32" y1="110.9" x2="241.05" y2="143.44"/><polygon class="cls-30" points="238.05 136.25 232.68 150.2 247.45 147.88 238.05 136.25"/><path class="cls-16" d="m287.52,88.65c.5-.4.9-.9,1.4-1.3l6.8-6.8c1.6-1.66,4.24-1.7,5.9-.1.04.03.07.07.1.1.57.53.96,1.23,1.1,2,.15.62.15,1.28,0,1.9-.3.94-.82,1.79-1.5,2.5-2,1.9-3.9,3.9-5.8,5.8-.3.3-.3.4,0,.7,1.02,1.12,1.77,2.45,2.2,3.9h-13.2c-.2,0-.4,0-.4-.2-.09-1.24-.02-2.48.2-3.7.28-1.17.87-2.24,1.7-3.1l1.5-1.5v-.2Z"/><path class="cls-13" d="m320.12,86.47c-1.48-.83-2.09-2.65-1.4-4.2.54-1.33,1.87-2.17,3.3-2.1h8.4c1.66,0,3.08,1.17,3.4,2.8-.2,0-.2.1-.2.2-.37.89-1.09,1.58-2,1.9-.58.2-1.19.3-1.8.3h-8.4c-1-.02-1.2-.02-1.3,1.1Z"/><path class="cls-16" d="m320.12,93.35c-1.61-.93-2.19-2.97-1.3-4.6.49-.8,1.28-1.38,2.2-1.6.37-.02.74-.09,1.1-.2h8.8c.69.21,1.34.55,1.9,1,.48.5.83,1.12,1,1.8,0,0-.2.1-.2.2-.6,1.48-2.11,2.38-3.7,2.2h-8.6c-1,0-1.2.2-1.2,1.2Z"/><path class="cls-16" d="m318.42,97.35c-.02-1.58,1.06-2.95,2.6-3.3.24.02.48-.02.7-.1,3.1,0,6.3.1,9.4,0,0,.2.2.2.3.2,1.21.37,2.13,1.37,2.4,2.6.2.7,0,.8-.6.8h-14.8v-.2Z"/><path class="cls-32" d="m297.72,97.35c-.37-1.47-1.13-2.82-2.2-3.9-.3-.3-.3-.4,0-.7,2-1.9,3.9-3.9,5.8-5.8.71-.69,1.22-1.55,1.5-2.5.63,1.51.27,3.26-.9,4.4l-3.8,3.8c-.3.3-.3.4,0,.7,1.02,1.12,1.77,2.45,2.2,3.9h-2.6v.1Z"/><path class="cls-9" d="m331.12,93.75c-3.1.2-6.3,0-9.4,0-.24-.02-.48.02-.7.1-.3-.2-.6-.2-.8-.5h0c0-1.1.2-1.3,1.2-1.3h8.58c1.7,0,3-.5,3.7-2.2,0,0,.1-.2.2-.2.33,1.75-.7,3.46-2.4,4h-.3l-.08.1Z"/><path class="cls-9" d="m330.92,86.95h-8.8c-.38-.03-.76.04-1.1.2-.2-.2-.6-.2-.8-.6h-.1c.1-1.1.2-1.3,1.3-1.3h8.4c.62.05,1.23-.06,1.8-.3.91-.32,1.63-1.01,2-1.9,0-.1,0-.2.2-.2.39,1.79-.72,3.56-2.5,4h-.4v.1Z"/><path class="cls-23" d="m320.12,59.55h-3.8c-.3,0-.5,0-.5-.4-.09-.63.35-1.21.98-1.3.11-.02.22-.02.32,0h6.88c.4,0,.5,0,.5.5.09.63-.35,1.21-.98,1.3-.11.02-.22.02-.32,0h-3.1l.02-.1Z"/><path class="cls-27" d="m323.12,54.35h3.4c.3,0,.4,0,.4.4q0,1.4-1.3,1.4h-5.9c-.4,0-.5,0-.5-.5,0-.87.4-1.3,1.2-1.3h2.7Z"/><path class="cls-27" d="m315.82,55.15c-.05-.39.22-.75.61-.8.06,0,.13,0,.19,0,.53,0,.83.3.9.9q0,.9-.9.9c-.9,0-.8,0-.8-.9v-.1Z"/><path class="cls-13" d="m320.12,86.47h.1c0,.08-.1,0-.1,0Z"/><path class="cls-1" d="m326.82,50.05h-35.82c-.44-.03-.89.04-1.3.2-1.43.5-2.36,1.88-2.3,3.4v35.1c.5-.4.9-.9,1.4-1.3l6.8-6.8c.53-.57,1.23-.96,2-1.1,2.2-.59,4.46.71,5.05,2.9.02.07.03.13.05.2.15.62.15,1.28,0,1.9.63,1.51.27,3.26-.9,4.4l-3.8,3.8c-.3.3-.3.4,0,.7,1.02,1.12,1.77,2.45,2.2,3.9h18.1c0-1.59,1.07-2.98,2.6-3.4-.3-.2-.6-.2-.8-.5h0c-1.66-1.03-2.17-3.2-1.15-4.86.46-.75,1.19-1.3,2.05-1.54-.2-.2-.6-.2-.8-.6h-.1c-1.47-.93-2.06-2.79-1.4-4.4.54-1.33,1.87-2.17,3.3-2.1h8.4v-26.48c.14-1.85-1.25-3.46-3.1-3.6-.17-.01-.33-.01-.5,0l.02.18Zm-11,5.1c-.05-.39.22-.75.61-.8.06,0,.13,0,.19,0q.9,0,.9.9t-.9.9c-.9,0-.8,0-.8-.9v-.1Zm7.4,4.4h-6.9c-.3,0-.5,0-.5-.4q0-1.3,1.3-1.3h6.88c.4,0,.5,0,.5.5q0,1.3-1.3,1.3l.02-.1Zm2.5-3.4h-5.9c-.4,0-.5,0-.5-.5q0-1.3,1.2-1.3h6.1c.3,0,.4,0,.4.4q-.02,1.4-1.3,1.4Z"/><path class="cls-7" d="m306.82,61.47h0v.6c-.12.95-.42,1.87-.9,2.7-.39.72-.89,1.36-1.5,1.9-.61.61-1.32,1.12-2.1,1.5-.67.29-1.38.49-2.1.6h-2.22c-1.02-.14-2.01-.48-2.9-1-.72-.42-1.36-.96-1.9-1.6-.55-.62-.99-1.33-1.3-2.1-.29-.67-.49-1.38-.6-2.1v-2.2c.1-.89.41-1.75.9-2.5.41-.7.92-1.34,1.5-1.9,1.68-1.61,3.99-2.38,6.3-2.1.88.03,1.73.27,2.5.7,1.72.87,3.07,2.32,3.8,4.1.27.64.44,1.31.5,2v1.4h.02Zm-6.5,6.2c.31-.02.61-.09.9-.2,3.23-1.12,5.15-4.44,4.5-7.8-.44-2.31-2.08-4.21-4.3-5-.35-.16-.72-.26-1.1-.3h-.2c-.57-.05-1.13-.05-1.7,0-1.08.03-2.12.37-3,1-2.32,1.38-3.58,4.03-3.2,6.7.2,1.9,1.22,3.62,2.8,4.7,1.25.96,2.82,1.43,4.4,1.3.3.02.61-.02.9-.1v-.3Z"/><path class="cls-6" d="m300.32,67.65c-.29.08-.6.12-.9.1-1.58.09-3.14-.36-4.42-1.28-1.58-1.08-2.6-2.8-2.8-4.7-.38-2.67.88-5.32,3.2-6.7.9-.58,1.93-.93,3-1h2c1.14.37,2.15,1.06,2.9,2,.36.46.66.97.9,1.5.4.88.6,1.83.6,2.8v1.5c-.08.77-.32,1.52-.7,2.2-.38.75-.89,1.42-1.5,2-.5.46-1.08.83-1.7,1.1-.21.02-.42.09-.6.2l.02.28Zm-6.3-6.7c0,2.76,2.24,5,5,5s5-2.24,5-5c.03-2.76-2.19-5.02-4.95-5.05-2.76-.03-5.02,2.19-5.05,4.95h0v.1Z"/><path class="cls-12" d="m300.32,67.65c.2-.1.4-.1.6-.2.62-.27,1.2-.64,1.7-1.1.59-.6,1.09-1.27,1.5-2,.34-.7.57-1.44.7-2.2.05-.5.05-1,0-1.5-.04-.96-.25-1.91-.6-2.8-.23-.54-.53-1.05-.9-1.5-.71-.98-1.73-1.68-2.9-2h-.1c.38.05.75.15,1.1.3,2.22.79,3.86,2.69,4.3,5,.67,3.36-1.25,6.7-4.5,7.8-.3.02-.6.2-.9.2Z"/><path class="cls-25" d="m294.12,60.95c0-2.76,2.24-5,5-5s5,2.24,5,5-2.24,5-5,5h0c-2.72,0-4.95-2.18-5-4.9h0v-.1Zm5-3.1h-2.2c-.3,0-.5,0-.6.2,0,.08-.04.15-.1.2-.77.84-1.13,1.97-1,3.1.01.99.49,1.92,1.3,2.5.09.05.2.08.3.1h4.6c.3,0,.5,0,.7-.3l.1-.1c.78-.91,1.11-2.12.9-3.3-.14-.83-.52-1.59-1.1-2.2-.14-.19-.36-.31-.6-.3h-2.3v.1Z"/><path class="cls-10" d="m299,57.85h2.3c.24,0,.46.11.6.3.61.58,1,1.36,1.1,2.2.22,1.18-.11,2.4-.9,3.3l-.1.1c-.18.2-.43.31-.7.3h-4.6c-.11.01-.22-.02-.3-.1-.72-.65-1.18-1.54-1.3-2.5-.13-1.13.23-2.26,1-3.1,0-.08.04-.15.1-.2.2-.2.4-.3.6-.2h2.2v-.1Zm2.2,3.1c.02-1.19-.93-2.18-2.12-2.2-.03,0-.05,0-.08,0-1.13-.03-2.07.87-2.1,2,0,.03,0,.07,0,.1-.02,1.19.93,2.18,2.12,2.2.03,0,.05,0,.08,0,1.13.03,2.07-.87,2.1-2,0-.03,0-.07,0-.1Z"/><path class="cls-20" d="m301.22,60.95c.03,1.13-.87,2.07-2,2.1-.03,0-.07,0-.1,0-1.19.02-2.18-.93-2.2-2.12,0-.03,0-.05,0-.08-.03-1.13.87-2.07,2-2.1.03,0,.07,0,.1,0,1.21.01,2.19.99,2.2,2.2Zm-2.2-1.2c-.64-.02-1.18.48-1.2,1.12,0,.03,0,.05,0,.08h0c0,.66.54,1.2,1.2,1.2s1.2-.54,1.2-1.2-.54-1.2-1.2-1.2Z"/><path class="cls-29" d="m299,62.15c-.66,0-1.2-.54-1.2-1.2s.54-1.2,1.2-1.2h0c.1,0,.1.2.2.3.1.6.1,1.2,0,1.8.02.1.02.2-.2.3Z"/><path class="cls-15" d="m299,62.15c.1,0,.1-.2.2-.3.1-.6.1-1.2,0-1.8,0-.1,0-.2-.2-.3.66,0,1.2.54,1.2,1.2s-.54,1.2-1.2,1.2Z"/><circle class="cls-3" cx="309.82" cy="63.75" r="45"/><path d="m279.22,64.95l.2,2.1-5.3.4,4,2.1v.2l-3.7,2.6,5.3-.4.2,2.1-9.1.7-.2-2.1,3.9-2.8-4.2-2.2-.2-2.1,9.1-.7v.1Z"/><path d="m278.62,60.55c.1-.44.03-.91-.2-1.3l1.2-1.3c.74.81,1,1.95.7,3-.25,1.83-1.93,3.11-3.76,2.86-.12-.02-.23-.04-.34-.06-1.78-.3-2.98-1.99-2.67-3.77.02-.11.04-.22.07-.33.34-1.75,2.02-2.89,3.77-2.55.08.01.15.03.23.05.25,0,.49.07.7.2l-1,4.5c.66-.09,1.16-.64,1.2-1.3h.1Zm-2.1-1.7c-.79.05-1.4.74-1.35,1.53.03.49.31.93.75,1.17l.6-2.7Z"/><path d="m275.72,47.35l8.2,3.9-.8,1.8-.6-.3c.32.67.28,1.46-.1,2.1-.82,1.56-2.76,2.17-4.32,1.34-.03-.01-.05-.03-.08-.04-1.67-.71-2.46-2.62-1.8-4.3.29-.69.88-1.2,1.6-1.4l-2.9-1.4.8-1.8v.1Zm4.4,4.3c-.77-.38-1.71-.07-2.1.7-.39.73-.11,1.63.61,2.02.06.03.12.06.19.08.77.38,1.71.07,2.1-.7.38-.75.08-1.66-.67-2.04-.04-.02-.09-.04-.13-.06Z"/><path d="m277.82,45.85c-.52-.36-.66-1.07-.3-1.6.36-.52,1.07-.66,1.6-.3.52.36.66,1.07.3,1.6-.39.48-1.07.61-1.6.3Zm1.5.9l1.1-1.6,5.3,3.8-1.1,1.6-5.3-3.8Z"/><path d="m286.52,38.65l4.5,4.7-1.4,1.4-.4-.4c.02.72-.27,1.41-.8,1.9-1.5,1.18-3.67.92-4.84-.58-1-1.27-.98-3.07.04-4.32.5-.51,1.18-.8,1.9-.8l-.4-.4,1.4-1.4v-.1Zm.9,3.7c-.49-.61-1.37-.71-1.98-.22-.08.06-.15.14-.22.22-.61.55-.66,1.48-.11,2.09.03.04.07.08.11.11.49.61,1.37.71,1.98.22.08-.06.15-.14.22-.22.61-.55.66-1.48.11-2.09-.04-.04-.07-.08-.11-.11h0Z"/><path d="m289.42,38.55l4.2-2.6,1,1.6-4.2,2.6-1-1.6Z"/><path d="m295.92,37.85l1.4-1.6c.54.64,1.41.88,2.2.6.9-.3,1-.8.9-1.1-.2-.5-.7-.6-2.2-.5-1.5.1-2.9,0-3.4-1.7-.49-1.46.3-3.04,1.76-3.53.08-.03.16-.05.24-.07,1.33-.53,2.85-.17,3.8.9l-1.3,1.5c-.42-.56-1.16-.76-1.8-.5-.6.2-.8.6-.7,1s.4.6,1.9.5,3.1-.1,3.7,1.7c.6,1.8-.4,3.1-2.3,3.7-1.45.64-3.14.28-4.2-.9Z"/><path d="m302.32,29.47c-.08-.64.36-1.22,1-1.3s1.22.36,1.3,1-.36,1.22-1,1.3c0,0,0,0,0,0-.62.1-1.2-.32-1.29-.94,0-.02,0-.04,0-.06Zm.5,1.7l1.9-.3,1.1,6.4-1.9.3-1.1-6.4Z"/><path d="m313,32.95v4h-2v-3.7c.07-.59-.36-1.13-.95-1.19-.05,0-.1,0-.15,0-.62-.05-1.16.42-1.21,1.04,0,.09,0,.17.01.26v3.5h-2v-6.5h2v.6c.47-.56,1.18-.85,1.9-.8,1.33-.01,2.41,1.06,2.42,2.38,0,.11,0,.21-.02.32v.1Z"/><path d="m321.92,32.35l-1.5,6c-.5,2.1-2.4,2.6-4.1,2.2-1.24-.2-2.25-1.1-2.6-2.3l1.8-.5c.1.5.4.9,1.2,1.2.67.28,1.43-.03,1.71-.7.04-.1.07-.2.09-.3v-.6c-.52.45-1.24.6-1.9.4-1.72-.43-2.76-2.18-2.33-3.9,0-.03.02-.07.03-.1.37-1.71,2.05-2.8,3.77-2.43.04,0,.09.02.13.03.72.14,1.32.62,1.6,1.3l.2-.6,1.8.5.1-.2Zm-2.6,2.6c.21-.77-.25-1.56-1.02-1.76-.06-.02-.12-.03-.18-.04-.78-.25-1.61.18-1.86.96-.02.05-.03.1-.04.14-.21.77.25,1.56,1.02,1.76.06.02.12.03.18.04.78.25,1.61-.18,1.86-.96.02-.05.03-.1.04-.14Z"/><path d="m325.12,30.55l1.8.8-3.9,8.7-1.8-.8,3.9-8.7Z"/><path d="m327.72,40.95c.37.29.84.4,1.3.3l.8,1.6c-1.05.38-2.22.19-3.1-.5-1.65-.95-2.21-3.05-1.26-4.7.95-1.65,3.05-2.21,4.7-1.26,1.65.95,2.21,3.05,1.26,4.7-.03.05-.06.11-.1.16-.2.2-.3.4-.5.6l-3.8-2.6c-.2.7.2,1.2.8,1.6l-.1.1Zm2.3-1.3c.25-.61-.01-1.3-.6-1.6-.5-.4-1.2-.4-1.7,0l2.3,1.5v.1Z"/><path d="m334.42,44.25c1.4-1.17,3.48-.99,4.65.41.05.06.1.13.15.19.74.93.93,2.19.5,3.3l-1.8-.7c.19-.47.11-1-.2-1.4-.43-.63-1.29-.78-1.92-.35-.06.04-.12.09-.18.15-.66.47-.81,1.39-.34,2.05.01.02.02.03.04.05.29.47.87.68,1.4.5l.3,1.9c-1.19.16-2.38-.34-3.1-1.3-1.16-1.45-.93-3.57.52-4.74.03-.02.05-.04.08-.06h-.1Z"/><path d="m344.62,54.75l-5.9,2.8-.8-1.8.6-.3c-.69-.2-1.25-.72-1.5-1.4-.68-1.68.13-3.6,1.8-4.3,1.55-.84,3.5-.27,4.34,1.28.02.04.04.08.06.12.38.64.42,1.43.1,2.1l.6-.3.8,1.8h-.1Zm-3.8-.4c.75-.39,1.05-1.32.65-2.08s-1.32-1.05-2.08-.65c-.74.38-1.04,1.28-.68,2.03.33.75,1.21,1.1,1.96.77.05-.02.09-.04.14-.07Z"/><path d="m344.52,67.35l-3.9.6-.3-1.9,3.8-.5c.5,0,.9-.4.9-.9,0-.06,0-.12-.02-.18,0-.6-.6-.9-1.4-.8l-3.6.5-.3-1.9,3.8-.5c.5.01.91-.38.92-.88,0-.07,0-.15-.02-.22,0-.6-.6-.9-1.4-.8l-3.6.5-.3-1.9,6.4-.9.3,1.9h-.6c.6.36.97,1,1,1.7.15.66-.08,1.36-.6,1.8.65.33,1.07.98,1.1,1.7.23,1.3-.64,2.54-1.94,2.77-.12.02-.24.03-.36.03l.12-.12Z"/><path d="m341.32,72.15c-.07.46.04.92.3,1.3l-1.1,1.4c-.79-.78-1.13-1.91-.9-3,.15-1.88,1.79-3.28,3.67-3.13.08,0,.15.01.23.03,1.84.22,3.15,1.89,2.93,3.73,0,.06-.02.12-.03.17-.24,1.8-1.89,3.07-3.69,2.83-.07,0-.14-.02-.21-.03-.28-.02-.55-.09-.8-.2l.7-4.6c-.7.1-1,.7-1.1,1.4v.1Zm2.2,1.5c.8,0,1.1-.6,1.2-1.2.15-.63-.19-1.27-.8-1.5l-.4,2.8v-.1Z"/><path d="m344,81.55l-2.1-.7c.49-.65.35-1.57-.3-2.06-.15-.11-.32-.19-.5-.24l-2.8-1,.6-1.8,6.1,2.1-.6,1.8-1.1-.4c.64.58.88,1.48.6,2.3h.1Z"/><path d="m340,88.75l-5.6-3.3,1-1.7.5.3c-.24-.71-.13-1.49.3-2.1.98-1.49,2.98-1.94,4.5-1,1.58.77,2.24,2.68,1.47,4.27-.02.05-.05.09-.07.13-.3.7-.95,1.19-1.7,1.3l.5.3-1,1.7.1.1Zm-1.8-3.3c.67.45,1.59.27,2.04-.4.02-.03.04-.06.06-.1.42-.73.17-1.66-.56-2.08-.01,0-.03-.02-.04-.02-.67-.45-1.59-.27-2.04.4-.02.03-.04.06-.06.1-.42.72-.18,1.66.55,2.08.02.01.05.03.07.04l-.02-.02Z"/><circle class="cls-3" cx="90.18" cy="63.75" r="45"/><path d="m56.78,48.15c1.87.7,2.82,2.79,2.11,4.66,0,.01,0,.03-.01.04l-.6,1.5,3.1,1.2-.8,2.2-9.8-3.7,1.4-3.7c.69-1.91,2.79-2.89,4.7-2.2h-.1Zm-.8,2.2c-.6-.3-1.34-.06-1.64.55-.02.05-.05.1-.06.15l-.5,1.5,2.5.9.6-1.5c.26-.67-.08-1.42-.75-1.68-.02,0-.04-.01-.05-.02l-.1.1Z"/><path d="m64,41.65l3.7,2.7-1.3,1.8-3.5-2.5c-.64-.41-1.49-.24-1.9.4-.41.64-.24,1.49.4,1.9l3.3,2.4-1.3,1.8-8.5-6.2,1.3-1.8,3,2.2c-.17-.8.01-1.64.5-2.3.98-1.29,2.83-1.55,4.12-.56.03.02.05.04.08.06l.1.1Z"/><path d="m65.78,40.95c-1.39-1.71-1.14-4.23.58-5.63,1.71-1.39,4.23-1.14,5.63.58,1.39,1.71,1.14,4.23-.58,5.63,0,0-.02.01-.03.02-1.72,1.37-4.21,1.1-5.6-.6Zm4.4-3.6c-.6-.77-1.71-.91-2.48-.31,0,0-.01,0-.02.01-.74.54-.9,1.58-.35,2.32.05.06.1.12.15.18.6.77,1.71.91,2.48.31,0,0,.01,0,.02-.01.74-.54.9-1.58.35-2.32-.05-.06-.1-.12-.15-.18Z"/><path d="m79.58,31.55l1.8,4.2-2.1.9-1.7-3.9c-.18-.62-.82-.98-1.44-.81-.09.03-.17.06-.26.11-.8.3-1.1,1-.7,2l1.6,3.8-2.1.9-3-6.9,2.1-.9.3.6c.21-.8.81-1.44,1.6-1.7,1.43-.62,3.09.04,3.71,1.46.03.08.06.16.09.24h.1Z"/><path d="m85.78,33.25c.55-.01,1.04-.32,1.3-.8l1.9.8c-.98,2.02-3.42,2.86-5.44,1.88-2.02-.98-2.86-3.42-1.88-5.44.58-1.19,1.71-2.03,3.02-2.24,2.03-.33,3.94,1.05,4.26,3.08.02.11.03.21.04.32v.9l-5.3.8c.39.65,1.16.97,1.9.8l.2-.1Zm1-2.9c-.29-.66-.99-1.03-1.7-.9-.75.05-1.35.65-1.4,1.4l3.2-.5h-.1Z"/><path d="m91,29.05l5.7.6-.2,2.2-5.7-.6.2-2.1v-.1Z"/><path d="m106.08,34.55c-.6,1.98-2.69,3.11-4.67,2.51,0,0-.02,0-.03,0-.8-.25-1.46-.83-1.8-1.6l-.2.7-2.1-.8,3.6-9.8,2.1.8-1.3,3.5c.75-.4,1.65-.4,2.4,0,1.92.84,2.81,3.07,2,5v-.3Zm-2.1-.8c.41-.79.11-1.76-.68-2.17-.1-.05-.21-.1-.32-.13-.83-.39-1.81-.03-2.19.8-.05.1-.08.2-.11.3-.41.79-.11,1.76.68,2.17.1.05.21.1.32.13.82.4,1.81.05,2.2-.77.05-.11.09-.22.12-.33h-.02Z"/><path d="m107.18,35.15c1.26-1.73,3.69-2.12,5.42-.86.03.02.05.04.08.06,1.74,1.29,2.14,3.72.9,5.5-1.51,1.61-4.05,1.68-5.65.17-1.34-1.26-1.64-3.27-.75-4.87Zm4.6,3.4c.58-.74.45-1.81-.28-2.39,0,0-.01,0-.02-.01-.67-.57-1.67-.49-2.24.18-.06.07-.11.14-.16.22-.58.74-.45,1.81.28,2.39,0,0,.01,0,.02.01.67.57,1.67.49,2.24-.18.06-.07.11-.14.16-.22Z"/><path d="m124.78,42.95l-8.3,6.5-1.4-1.8.6-.4c-.86-.03-1.64-.48-2.1-1.2-1.17-1.72-.77-4.06.9-5.3,1.5-1.36,3.81-1.25,5.17.25.04.05.09.1.13.15.53.64.79,1.47.7,2.3l2.9-2.3,1.4,1.8Zm-6.7,2.4c.76-.48.99-1.48.51-2.23-.06-.1-.13-.19-.21-.27-.53-.76-1.57-.96-2.34-.43-.06.04-.11.08-.16.13-.76.48-.99,1.48-.51,2.23.06.1.13.19.21.27.53.76,1.57.96,2.34.43.06-.04.11-.08.16-.13Z"/><path d="m126.68,53.95l-7.68.52c-2.5.2-3.9-.7-4.6-2.7l1.9-.8c.19.85,1.03,1.39,1.88,1.2,0,0,.01,0,.02,0l5.4-5.5,1,2.3-3.6,3.3,4.8-.5.9,2.2-.02-.02Z"/><path d="m121.38,56.35l4.2,2.9c.54.51,1.26.79,2,.8.55-.03.97-.5.95-1.05,0-.08-.02-.17-.05-.25-.13-.7-.7-1.23-1.4-1.3l.8-2.2c1.48.36,2.59,1.59,2.8,3.1.41,1.78-.7,3.55-2.48,3.96-.07.02-.15.03-.22.04-1.27.12-2.53-.28-3.5-1.1l-2-1.4.6,3.5-2.3.4-1.1-7.1,1.7-.3Z"/><path class="cls-26" d="m95.58,47.95h6.1c1.79.11,3.24,1.51,3.4,3.3v41.4c.12,1.69-.9,3.24-2.5,3.8-.36.11-.73.17-1.1.2h-22.6c-2.03-.03-3.67-1.67-3.7-3.7v-4h1.82v4c-.06,1,.71,1.85,1.71,1.91.1,0,.2,0,.29,0h22.2c1.04.06,1.94-.73,2-1.77,0-.08,0-.15,0-.23v-41c.07-1.03-.7-1.92-1.74-2-.05,0-.11,0-.16,0h-4.6c-.02-.8-.7-1.3-1.12-1.9Z"/><path class="cls-8" d="m95.58,47.95c.4.6,1,1.1,1.1,1.8h-17.3c-1.7,0-2.4.7-2.4,2.4v36.7h-1.8v-36.9c-.11-1.6.81-3.09,2.3-3.7.4-.2.85-.31,1.3-.3h16.8Z"/><path class="cls-31" d="m77,88.95v-36.7c0-1.7.7-2.4,2.4-2.4h17.4v36c.06,1.66-1.24,3.04-2.9,3.1-.03,0-.07,0-.1,0h-16.8Zm13.08-33.48h3.6c1.05.05,1.94-.75,2-1.8.02-1.03-.8-1.89-1.84-1.9-.05,0-.11,0-.16,0h-7.2c-1.05-.05-1.94.75-2,1.8-.02,1.03.8,1.89,1.84,1.9.05,0,.11,0,.16,0h3.6Zm-4.2,22.9c.23-.04.43-.14.6-.3l9.2-9.2c.24-.19.36-.5.3-.8-.1-.3-.2-.6-.6-.7-.39-.11-.81,0-1.1.3l-9.1,9.1-.2.2c-.2.27-.2.63,0,.9.19.31.53.5.9.5Zm5.7-11.1c-.04-.38-.26-.72-.6-.9-.5-.2-.8,0-1.1.4l-5.5,5.5c-.5.5-.5,1.1,0,1.4s1,.4,1.4,0c1.9-1.8,3.7-3.7,5.6-5.5.19-.2.33-.44.4-.7h0l-.2-.2Z"/><path class="cls-22" d="m77.08,88.95h16.7c1.61.05,2.95-1.21,3-2.81,0-.1,0-.19,0-.29v-36h4.5c1-.06,1.85.71,1.91,1.71,0,.1,0,.2,0,.29v41c.06,1.04-.73,1.94-1.77,2-.08,0-.15,0-.23,0h-22.18c-1.06.04-1.95-.78-2-1.84,0-.02,0-.04,0-.06v-4h.08Zm13.1,3.1h-5.4c-.7,0-1.2.3-1.2.9,0,.55.44,1,.99,1.01.04,0,.07,0,.11,0h10.8c.7,0,1.2-.4,1.1-.9-.08-.58-.62-.98-1.2-.9h0s-5.38,0-5.38,0l.18-.1Z"/><path class="cls-21" d="m90.08,55.47h-3.6c-1.03.07-1.92-.7-2-1.74,0-.05,0-.11,0-.16-.01-.99.78-1.8,1.77-1.81.08,0,.16,0,.23.01h7.2c1.03-.07,1.92.7,2,1.74,0,.05,0,.11,0,.16-.02,1.02-.86,1.82-1.87,1.81-.04,0-.08,0-.13,0h-3.6Z"/><path class="cls-17" d="m85.88,78.35c-.37,0-.71-.19-.9-.5-.14-.28-.14-.62,0-.9l.2-.2,9.1-9.1c.29-.29.71-.41,1.1-.3.4.1.5.4.6.7.11.3-.02.64-.3.8l-9.2,9.2c-.15.18-.37.29-.6.3Z"/><path class="cls-14" d="m90.08,91.95h5.4c.7,0,1.2.3,1.2.9s-.4.9-1.1.9h-10.8c-.7,0-1.2-.4-1.1-1s.4-.9,1.2-.9h5.4l-.2.1Z"/><path d="m80.58,86.05v-4.8l8.6-9.1c.71-.7,1.34-1.47,1.9-2.3.36-.5.57-1.09.6-1.7,0-.59-.21-1.16-.6-1.6-.46-.42-1.08-.63-1.7-.6-1.5,0-2.7.9-3.5,2.7l-5.7-3.18c.75-1.81,2.04-3.35,3.7-4.4,3.66-2.23,8.33-1.95,11.7.7,1.76,1.48,2.72,3.7,2.6,6,.13,1.49-.26,2.97-1.1,4.2-.83,1.48-1.88,2.83-3.1,4l-3.5,3.7h8.1v6.4h-18v-.02Z"/><path class="cls-28" d="m217.06,199.36c.56,0,1.12.02,1.68.03.95,0,1.73.77,1.74,1.73.01.87,0,1.75,0,2.62,0,7.4,0,14.8,0,22.2,0,.48-.02.97-.16,1.44-.17.55-.85,1.04-1.42,1.04-6.27,0-12.53,0-18.8,0-.03,0-.06,0-.09-.01,0-1.7,0-3.41,0-5.11,1.31,0,2.61,0,3.92-.01.17,0,.36.04.36-.23.01-.64.06-1.3-.09-1.92-.4-1.67-.89-3.32-1.31-4.98-.12-.45-.24-.89-.4-1.33-.25-.68.22-1.04.63-1.41.67-.62.96-1.39,1.12-2.29.34-1.86-1.23-4.1-3.01-4.67-.06-.1-.14-.14-.25-.09-.09-.02-.18-.04-.27-.06-.04-.06-.09-.07-.16-.04-.17-.02-.35-.05-.52-.07,0-2.26,0-4.53,0-6.79,3.21,0,6.42-.01,9.64-.02.2,0,.4-.02.6-.02,1.15.04,2.3.05,3.45,0,1.13.06,2.25.05,3.38,0Z"/><path class="cls-18" d="m200,223.31c0,1.7,0,3.41,0,5.11-.65,0-1.29.01-1.94.01-5.47,0-10.93-.03-16.4.02-1.44.01-2.18-.77-2.18-2.18.05-8.36.03-16.73,0-25.09,0-1,.81-1.8,1.76-1.78.56.01,1.12-.01,1.68-.02,1.13.03,2.25.06,3.38-.01,1.15.07,2.29.04,3.44.01.19,0,.37.02.56.02,3.23,0,6.45,0,9.68.01,0,2.26,0,4.53,0,6.79-.36.17-.77.09-1.15.23-1.6.62-2.65,1.7-3.03,3.39-.07.04-.12.08-.03.15-.13,1.4.02,2.69,1.28,3.62.4.29.55.73.39,1.28-.1.33-.23.66-.31,1.01-.22.94-.47,1.87-.72,2.8-.18.69-.39,1.37-.56,2.06-.16.68-.12,1.39-.15,2.08-.01.35.08.47.45.46,1.28-.02,2.55,0,3.83,0Z"/><path class="cls-24" d="m186.32,199.36c-1.13.07-2.25.04-3.38.01,0-3.04-.02-6.08.02-9.12.02-1.41.21-2.8.62-4.17.49-1.64,1.19-3.19,2.13-4.61,1.18-1.78,2.64-3.3,4.39-4.55,1.15-.82,2.35-1.55,3.67-2.01,1.31-.46,2.64-.91,4.06-1.01.79-.06,1.58-.17,2.39-.16,1.99.03,3.91.43,5.76,1.13,1.86.7,3.53,1.71,5.06,2.98,1.31,1.1,2.39,2.39,3.31,3.82.65,1.01,1.16,2.09,1.6,3.22.24.62.4,1.26.62,1.89.19.57.23,1.19.3,1.8.39,3.58.1,7.18.19,10.77-1.13.04-2.25.06-3.38,0,0-2.57-.02-5.14.01-7.7.02-1.48-.17-2.92-.53-4.35-.51-2-1.44-3.81-2.79-5.35-1.66-1.89-3.66-3.32-6.09-4.09-1.72-.55-3.47-.72-5.28-.61-1.67.1-3.25.49-4.75,1.19-2.49,1.16-4.45,2.93-5.9,5.27-1.25,2.01-1.93,4.23-2.02,6.57-.11,3.02-.02,6.05-.02,9.08Z"/><path class="cls-11" d="m210.24,199.37c0-2.72.02-5.45,0-8.17-.02-1.45-.22-2.88-.8-4.23-.46-1.07-1.07-2.04-1.84-2.93-1.14-1.32-2.56-2.24-4.16-2.82-1.48-.54-3.04-.72-4.64-.52-.98.12-1.92.35-2.8.73-2.45,1.07-4.25,2.82-5.37,5.27-.52,1.15-.73,2.35-.79,3.6-.15,3.02-.02,6.04-.07,9.07-1.15.02-2.3.05-3.44-.02,0-3.03-.09-6.06.02-9.08.09-2.34.77-4.55,2.02-6.57,1.45-2.33,3.41-4.11,5.9-5.27,1.5-.7,3.07-1.09,4.75-1.19,1.81-.11,3.56.07,5.28.61,2.43.77,4.43,2.19,6.09,4.09,1.35,1.55,2.28,3.35,2.79,5.35.36,1.43.55,2.87.53,4.35-.03,2.57-.01,5.14-.01,7.7-1.15.06-2.3.04-3.45,0Z"/><path class="cls-19" d="m200,223.31c-1.28,0-2.55-.02-3.83,0-.37,0-.46-.11-.45-.46.03-.7-.02-1.4.15-2.08.17-.69.38-1.37.56-2.06.25-.93.5-1.87.72-2.8.08-.34.21-.67.31-1.01.16-.55,0-.99-.39-1.28-1.26-.93-1.41-2.22-1.28-3.62.07-.04.07-.09.03-.15.38-1.69,1.44-2.77,3.03-3.39.38-.15.79-.06,1.15-.23.17.02.35.05.52.07.03.09.08.14.16.04.09.02.18.04.27.06.05.12.15.09.25.09,1.78.57,3.34,2.81,3.01,4.67-.16.89-.44,1.67-1.12,2.29-.41.38-.88.73-.63,1.41.16.43.29.88.4,1.33.43,1.66.91,3.31,1.31,4.98.15.62.1,1.28.09,1.92,0,.28-.19.23-.36.23-1.31,0-2.61,0-3.92.01Z"/><path class="cls-11" d="m201.2,206.46c-.1,0-.2.03-.25-.09.11-.05.19,0,.25.09Z"/><path class="cls-11" d="m200.68,206.31c-.08.1-.12.05-.16-.04.06-.04.12-.02.16.04Z"/><path class="cls-24" d="m195.82,209.83c.04.06.04.12-.03.15-.09-.07-.03-.12.03-.15Z"/><circle class="cls-2" cx="200.15" cy="203.68" r="43.87"/><path class="cls-28" d="m215.06,56.36c.56,0,1.12.02,1.68.03.95,0,1.73.77,1.74,1.73.01.87,0,1.75,0,2.62,0,7.4,0,14.8,0,22.2,0,.48-.02.97-.16,1.44-.17.55-.85,1.04-1.42,1.04-6.27,0-12.53,0-18.8,0-.03,0-.06,0-.09-.01,0-1.7,0-3.41,0-5.11,1.31,0,2.61,0,3.92-.01.17,0,.36.04.36-.23.01-.64.06-1.3-.09-1.92-.4-1.67-.89-3.32-1.31-4.98-.12-.45-.24-.89-.4-1.33-.25-.68.22-1.04.63-1.41.67-.62.96-1.39,1.12-2.29.34-1.86-1.23-4.1-3.01-4.67-.06-.1-.14-.14-.25-.09-.09-.02-.18-.04-.27-.06-.04-.06-.09-.07-.16-.04-.17-.02-.35-.05-.52-.07,0-2.26,0-4.53,0-6.79,3.21,0,6.42-.01,9.64-.02.2,0,.4-.02.6-.02,1.15.04,2.3.05,3.45,0,1.13.06,2.25.05,3.38,0Z"/><path class="cls-18" d="m198,80.31c0,1.7,0,3.41,0,5.11-.65,0-1.29.01-1.94.01-5.47,0-10.93-.03-16.4.02-1.44.01-2.18-.77-2.18-2.18.05-8.36.03-16.73,0-25.09,0-1,.81-1.8,1.76-1.78.56.01,1.12-.01,1.68-.02,1.13.03,2.25.06,3.38-.01,1.15.07,2.29.04,3.44.01.19,0,.37.02.56.02,3.23,0,6.45,0,9.68.01,0,2.26,0,4.53,0,6.79-.36.17-.77.09-1.15.23-1.6.62-2.65,1.7-3.03,3.39-.07.04-.12.08-.03.15-.13,1.4.02,2.69,1.28,3.62.4.29.55.73.39,1.28-.1.33-.23.66-.31,1.01-.22.94-.47,1.87-.72,2.8-.18.69-.39,1.37-.56,2.06-.16.68-.12,1.39-.15,2.08-.01.35.08.47.45.46,1.28-.02,2.55,0,3.83,0Z"/><path class="cls-24" d="m184.32,56.36c-1.13.07-2.25.04-3.38.01,0-3.04-.02-6.08.02-9.12.02-1.41.21-2.8.62-4.17.49-1.64,1.19-3.19,2.13-4.61,1.18-1.78,2.64-3.3,4.39-4.55,1.15-.82,2.35-1.55,3.67-2.01,1.31-.46,2.64-.91,4.06-1.01.79-.06,1.58-.17,2.39-.16,1.99.03,3.91.43,5.76,1.13,1.86.7,3.53,1.71,5.06,2.98,1.31,1.1,2.39,2.39,3.31,3.82.65,1.01,1.16,2.09,1.6,3.22.24.62.4,1.26.62,1.89.19.57.23,1.19.3,1.8.39,3.58.1,7.18.19,10.77-1.13.04-2.25.06-3.38,0,0-2.57-.02-5.14.01-7.7.02-1.48-.17-2.92-.53-4.35-.51-2-1.44-3.81-2.79-5.35-1.66-1.89-3.66-3.32-6.09-4.09-1.72-.55-3.47-.72-5.28-.61-1.67.1-3.25.49-4.75,1.19-2.49,1.16-4.45,2.93-5.9,5.27-1.25,2.01-1.93,4.23-2.02,6.57-.11,3.02-.02,6.05-.02,9.08Z"/><path class="cls-11" d="m208.24,56.37c0-2.72.02-5.45,0-8.17-.02-1.45-.22-2.88-.8-4.23-.46-1.07-1.07-2.04-1.84-2.93-1.14-1.32-2.56-2.24-4.16-2.82-1.48-.54-3.04-.72-4.64-.52-.98.12-1.92.35-2.8.73-2.45,1.07-4.25,2.82-5.37,5.27-.52,1.15-.73,2.35-.79,3.6-.15,3.02-.02,6.04-.07,9.07-1.15.02-2.3.05-3.44-.02,0-3.03-.09-6.06.02-9.08.09-2.34.77-4.55,2.02-6.57,1.45-2.33,3.41-4.11,5.9-5.27,1.5-.7,3.07-1.09,4.75-1.19,1.81-.11,3.56.07,5.28.61,2.43.77,4.43,2.19,6.09,4.09,1.35,1.55,2.28,3.35,2.79,5.35.36,1.43.55,2.87.53,4.35-.03,2.57-.01,5.14-.01,7.7-1.15.06-2.3.04-3.45,0Z"/><path class="cls-19" d="m198,80.31c-1.28,0-2.55-.02-3.83,0-.37,0-.46-.11-.45-.46.03-.7-.02-1.4.15-2.08.17-.69.38-1.37.56-2.06.25-.93.5-1.87.72-2.8.08-.34.21-.67.31-1.01.16-.55,0-.99-.39-1.28-1.26-.93-1.41-2.22-1.28-3.62.07-.04.07-.09.03-.15.38-1.69,1.44-2.77,3.03-3.39.38-.15.79-.06,1.15-.23.17.02.35.05.52.07.03.09.08.14.16.04.09.02.18.04.27.06.05.12.15.09.25.09,1.78.57,3.34,2.81,3.01,4.67-.16.89-.44,1.67-1.12,2.29-.41.38-.88.73-.63,1.41.16.43.29.88.4,1.33.43,1.66.91,3.31,1.31,4.98.15.62.1,1.28.09,1.92,0,.28-.19.23-.36.23-1.31,0-2.61,0-3.92.01Z"/><path class="cls-11" d="m199.2,63.46c-.1,0-.2.03-.25-.09.11-.05.19,0,.25.09Z"/><path class="cls-11" d="m198.68,63.31c-.08.1-.12.05-.16-.04.06-.04.12-.02.16.04Z"/><path class="cls-24" d="m193.82,66.83c.04.06.04.12-.03.15-.09-.07-.03-.12.03-.15Z"/><circle class="cls-2" cx="198.15" cy="60.68" r="43.87"/></svg>