<?xml version="1.0" encoding="UTF-8"?><svg id="Layer_1" xmlns="http://www.w3.org/2000/svg" viewBox="0 0 400 400"><defs><style>.cls-1{fill:#fe6d3a;}.cls-2{stroke:#a5262d;}.cls-2,.cls-3,.cls-4{stroke-width:4px;}.cls-2,.cls-3,.cls-4,.cls-5{fill:none;stroke-miterlimit:10;}.cls-3{stroke:#000;}.cls-6{fill:#fafdfc;}.cls-7{fill:#fff;}.cls-8{fill:#a7b4b9;}.cls-9{fill:#fcfdfd;}.cls-10{fill:#90b9e0;}.cls-4{stroke:#0018c6;}.cls-11{fill:#3b66c8;}.cls-12{fill:#8ac5cd;}.cls-13{fill:#fe901f;}.cls-14{fill:#546e7a;}.cls-15{fill:#f9fdfc;}.cls-16{fill:#4483e7;}.cls-17{fill:#bbc3c6;}.cls-18{fill:#bfd6e5;}.cls-19{fill:#364a5f;}.cls-20{fill:#386079;}.cls-21{fill:#444b66;}.cls-22{fill:#efc319;}.cls-23{fill:#90bae0;}.cls-24{fill:#d7eafb;}.cls-25{fill:#f8d77c;}.cls-26{fill:#feb024;}.cls-27{fill:#afd2ef;}.cls-28{fill:#ffed58;}.cls-29{fill:#c69c6d;}.cls-30{fill:#fcd6ac;}.cls-5{stroke:#231f20;stroke-width:2px;}.cls-31{fill:#36464e;}.cls-32{fill:#c6ecf9;}.cls-33{fill:#3b566a;}.cls-34{fill:#b2d3d9;}.cls-35{fill:#fbbd41;}.cls-36{fill:#3f79d4;}.cls-37{fill:#3d435c;}.cls-38{fill:#01b6a0;}.cls-39{fill:#4582c2;}.cls-40{fill:#fc98c7;}.cls-41{fill:#26b899;}.cls-42{fill:#607890;}.cls-43{fill:#faf8fa;}.cls-44{fill:#cbb293;}.cls-45{fill:#fe6e3c;}.cls-46{fill:#23e6bf;}.cls-47{fill:#e0edf9;}.cls-48{fill:#374b60;}.cls-49{fill:#fcd6ad;}.cls-50{fill:#b3d4da;}.cls-51{fill:#2e5872;}.cls-52{fill:#efc31a;}.cls-53{fill:#788f9b;}.cls-54{fill:#b09146;}.cls-55{fill:#484645;}.cls-56{fill:#204958;}.cls-57{fill:#637889;}.cls-58{fill:#c6ecfa;}.cls-59{fill:#8caabd;}.cls-60{fill:#94a4a4;}.cls-61{fill:#fde6cd;}.cls-62{fill:#88c4cc;}.cls-63{fill:#3e657d;}.cls-64{fill:#454c67;}.cls-65{fill:#2f4859;}.cls-66{fill:#cbb292;}.cls-67{fill:#c6d8de;}.cls-68{fill:#bdd5e5;}.cls-69{fill:#304959;}.cls-70{fill:#c4d8dd;}.cls-71{fill:#fbd734;}.cls-72{fill:#ecf6fe;}.cls-73{fill:#3b66c9;}.cls-74{fill:#cad9df;}.cls-75{fill:#231f20;}.cls-76{fill:#fce00f;}.cls-77{fill:#90ebfe;}.cls-78{fill:#c7d9de;}.cls-79{fill:#c5d8de;}.cls-80{fill:#fbf9fa;}.cls-81{fill:#28b99a;}.cls-82{fill:#fe901e;}.cls-83{fill:#6e6b87;}.cls-84{fill:#e2c8aa;}</style></defs><circle class="cls-2" cx="197.68" cy="200.97" r="45"/><path d="m171.58,185.37l1-3c1.1.5,2.3.6,3.5-.5,1.1-1,1-1.7.7-2.1-.6-.6-1.4-.4-3.4.6-1.9.9-4.1,1.5-5.9-.5-1.8-2-1.1-4.7.7-6.3,1.7-1.5,3.8-1.9,5.9-1l-1,3c-1-.4-1.9-.5-2.9.4-.8.7-.8,1.4-.4,1.8.4.5,1,.6,3-.4,2-.9,4.3-1.9,6.2.3,1.8,2,1.2,4.7-1.1,6.7-2.2,1.9-4.5,2.1-6.5,1.1l.2-.1Z"/><path d="m176.58,169.47c-.4-.9,0-2,.8-2.4.9-.4,2,0,2.4.8.4.9,0,2-.8,2.4-.9.4-2,0-2.4-.8Zm1.5,2.3l2.7-1.4,4.5,8.9-2.7,1.4-4.5-8.9Z"/><path d="m182.38,164.77l2.9-.9,4.5,13.9-2.9.9-4.5-13.9Z"/><path d="m188.98,164.87c-.2-1,.5-1.9,1.5-2.1,1-.2,1.9.5,2.1,1.5.2,1-.5,1.9-1.5,2.1-1,.2-1.9-.5-2.1-1.5Zm.7,2.6l3-.5,1.6,9.9-3,.5-1.6-9.9Z"/><path d="m195.58,171.47c.2-3,2.6-5.1,5.7-4.9,1.9.1,3.6,1.3,4.3,2.9l-2.7,1.3c-.3-.7-1-1.2-1.9-1.3-1.3,0-2.3.8-2.4,2.1-.1,1.4.8,2.4,2.1,2.5.9,0,1.6-.3,2-1l2.5,1.7c-1,1.5-2.7,2.4-4.7,2.2-3-.2-5.1-2.7-4.9-5.7v.2Z"/><path d="m206.48,172.47c1.2-2.7,4.2-4,6.9-2.8,2.7,1.1,4,4.2,2.8,6.9-1.2,2.7-4.2,4-6.9,2.8-2.7-1.1-4-4.2-2.8-6.9Zm7,2.9c.5-1.3,0-2.6-1.2-3.1-1.2-.5-2.5,0-3,1.3-.6,1.3,0,2.6,1.2,3.1,1.2.5,2.5,0,3-1.3Z"/><path d="m225.98,183.57l-4.2,4.5-2.2-2,3.9-4.2c.8-.9.7-1.9,0-2.5-.8-.7-1.8-.8-2.8.3l-3.7,4-2.2-2,6.8-7.4,2.2,2-.6.7c.9-.2,2,.1,2.9,1,1.5,1.4,1.8,3.6,0,5.6h-.1Z"/><rect class="cls-29" x="170.78" y="191.47" width="52" height="37" rx="2.9" ry="2.9"/><path class="cls-55" d="m192.98,222.57c-2.5,0-4.6-.5-6.2-1.6s-2.8-2.5-3.4-4.3l5.2-3c.9,2.1,2.4,3.1,4.7,3.1s2.8-.5,2.8-1.6-.5-1.2-1.6-1.7c-.4-.2-1.4-.5-3-.9-2.2-.6-3.9-1.5-5.1-2.7-1.3-1.1-1.9-2.7-1.9-4.7s.8-4,2.3-5.3c1.6-1.4,3.5-2,5.9-2s3.7.5,5.3,1.4c1.5.9,2.7,2.3,3.5,4l-5.1,3c-.7-1.8-2-2.6-3.7-2.6s-1.3.1-1.6.4c-.4.3-.6.7-.6,1.1s.3,1,.8,1.3c.5.4,1.6.8,3.2,1.3,1.1.4,2,.7,2.8,1,.7.3,1.5.7,2.3,1.2.8.6,1.5,1.3,1.9,2.1.4.9.6,1.9.6,3,0,2.3-.8,4.1-2.5,5.4-1.6,1.3-3.8,2-6.5,2l-.1.1Z"/><path class="cls-55" d="m209.18,202.87c-.6.6-1.4,1-2.3,1s-1.6-.3-2.3-1-1-1.4-1-2.3.3-1.6,1-2.3c.6-.6,1.4-.9,2.3-.9s1.6.3,2.3.9c.6.6,1,1.4,1,2.3s-.3,1.6-1,2.3Zm-5.1,19.2v-16.9h5.6v16.9h-5.6Z"/><circle class="cls-4" cx="49.27" cy="268.77" r="36"/><path class="cls-33" d="m58.71,253.09c.17.23.39.42.64.56.94.86,1.46,2.09,1.44,3.36v36.24c0,2.88-1.44,4.56-4.4,4.8-4.79.4-9.61.4-14.4,0-2.36-.06-4.23-2.03-4.17-4.39,0-.06,0-.11,0-.17v-36.48c-.13-2.39,1.7-4.43,4.09-4.56.02,0,.05,0,.07,0,4.21-.29,8.43-.35,12.64-.16.3-.01.59.01.88.08,1.12-.02,2.23.17,3.28.56l-.08.16Zm-8.72,5.28h-8.88c-.56,0-.72.16-.72.72v9.2c0,3.04,0,1.92,1.92,1.84h15.28c.48,0,.56-.16.56-.56v-10.58c0-.4-.08-.64-.56-.64h-7.6v.02Zm1.68,23.6c-1.84,0-1.68,0-1.68,1.76,0,.56.24.8.8.8h1.28c1.04,0,1.12,0,1.12-1.04,0-1.76.16-1.52-1.52-1.52Zm-4.72,0h-.88c-.48,0-.8.16-.64.64.16.64-.56,1.68.64,1.92.61.08,1.23.08,1.84,0,.34.02.65-.22.72-.56.4-1.52,0-2-1.52-2h-.16Zm0-3.76c-1.76,0-1.52-.16-1.6,1.6v.24c0,.56.24.8.72.8h1.84c.32-.01.58-.25.64-.56.4-1.52,0-2-1.52-2h0l-.08-.08Zm4.8,0h-1.04c-.4,0-.64.16-.64.56,0,1.84-.16,2.08,1.68,2h.4c1.04,0,1.12-.16,1.12-1.12,0-1.68.16-1.52-1.52-1.52h0v.08Zm-.08,10.16h.8c.4,0,.8-.08.8-.56,0-.64.4-1.44-.32-2h-2.24c-.3-.02-.58.18-.64.48-.4,1.52,0,2.08,1.6,2.08h0Zm-4.64,0h.8c.48,0,.8-.16.8-.64,0-.64.4-1.44-.32-1.92h-2.24c-.27,0-.52.16-.64.4-.48,1.44,0,2.16,1.52,2.16h.08Zm0-13.92h-.72c-.56,0-.8.16-.8.8q0,1.84,1.84,1.84h.64c.37,0,.69-.27.72-.64.32-1.6,0-2-1.6-2h-.08Zm4.8,0h-1.04c-.4,0-.64.16-.64.64,0,1.84-.16,2.08,1.68,2h.4c1.04,0,1.12-.16,1.12-1.12,0-1.68.16-1.52-1.52-1.52h0Zm-9.44,13.92h.64c.72,0,.96-.24.88-.96,0-1.92.24-1.68-1.68-1.68h-.32c-1.04,0-1.12,0-1.04,1.04,0,1.44-.32,1.6,1.52,1.52v.08Zm14.08-2.64h-.64c-.64-.08-.88.16-.88.88,0,1.84-.32,1.76,1.76,1.76h.32q1.04,0,1.04-1.04c0-1.76.16-1.52-1.52-1.52h0l-.08-.08Zm0-3.76h-.8c-.56,0-.72.24-.72.8,0,1.92-.32,1.84,1.84,1.84h.24c.96,0,1.04-.08,1.04-1.04,0-1.76.16-1.6-1.52-1.6h-.08Zm-14,0h-.7c-.64,0-.88.16-.88.88,0,1.84-.32,1.76,1.76,1.76h.32c.96,0,1.04-.08,1.04-1.12,0-1.68.16-1.52-1.52-1.52h-.02Zm0-3.76h-.7c-.64,0-.88.16-.8.8,0,1.84-.16,1.84,1.76,1.76h.24c1.04,0,1.12,0,1.12-1.12,0-1.68.16-1.52-1.52-1.52l-.1.08Zm14.08-3.76h-.8c-.56,0-.72.24-.72.8,0,1.92-.16,1.84,1.84,1.84h.24c.96,0,1.04-.08,1.04-1.04,0-1.76.16-1.52-1.52-1.6h-.08Zm0,3.76c-1.76,0-1.52-.24-1.6,1.6v.16c0,.64.24.88.88.88h1.14c.96,0,1.04-.08,1.04-1.12,0-1.68.16-1.52-1.52-1.52h.06Zm-14.08-3.76h-.8c-.56,0-.72.24-.72.8,0,1.92-.16,1.84,1.84,1.84h.24c.96,0,1.04-.08,1.04-1.04,0-1.76.16-1.52-1.52-1.6h-.08Zm8.56-18.32c.32,0,.56-.08.48-.48s-.16-.4-.48-.4-.56.08-.48.48.16.4.48.4Zm2-.4c0-.32-.16-.4-.48-.4s-.56,0-.56.4.16.4.48.4.56-.08.56-.4Zm-4.64,38.96c.03-.23-.13-.45-.36-.48-.04,0-.08,0-.12,0-.32,0-.4.24-.4.48s.16.48.4.48c.24-.03.42-.24.4-.48h.08Zm-1.68-39.36c-.25,0-.48.16-.56.4,0,.26.19.47.45.48.01,0,.02,0,.03,0,.24,0,.4-.08.4-.32h0c0-.32-.08-.48-.4-.48l.08-.08Zm1.84.4c0-.32-.16-.4-.48-.4-.22-.04-.44.1-.48.32-.04.22.1.44.32.48.05.01.11.01.16,0,.32,0,.4-.16.4-.4h.08Zm-.16,35.68c0-.32-.24-.4-.48-.4-.21-.01-.39.14-.4.35,0,.02,0,.03,0,.05,0,.32.16.48.4.48s.4-.16.4-.48h.08Zm3.2-.08c0-.16-.08-.32-.4-.32s-.48.08-.48.4.16.48.4.48.4-.16.4-.56h.08Zm-.32,3.76c.24,0,.32-.16.32-.4.02-.24-.16-.45-.4-.48-.21-.02-.39.13-.41.33,0,.05,0,.1.01.15.08.32.16.4.56.4h-.08Zm-1.28-39.36c0-.32-.24-.4-.48-.4s-.4.16-.32.48.24.4.48.4c.24-.03.42-.24.4-.48h-.08Zm-.4,35.44c.21.01.39-.14.4-.35,0-.02,0-.03,0-.05,0-.32-.16-.48-.48-.4s-.4.16-.4.48c.03.24.24.42.48.4h0v-.08Zm-2.4,2.32c.24,0,.4-.08.48-.4s-.08-.48-.4-.48-.4.08-.48.4.08.48.4.48h0Zm4.56-.88c-.19,0-.35.17-.34.36,0,.04,0,.08.02.12,0,.24.16.4.48.32s.4-.24.4-.48c-.03-.24-.24-.42-.48-.4l-.08.08Zm-2.24,3.2c.21.01.39-.14.4-.35,0-.02,0-.03,0-.05,0-.32-.16-.48-.4-.48-.21-.01-.39.14-.4.35,0,.02,0,.03,0,.05,0,.32.16.46.4.46v.02Zm-.48-2.48c0-.24-.08-.4-.4-.4-.21-.01-.39.14-.4.35,0,.02,0,.03,0,.05,0,.24.08.48.32.48.23,0,.43-.17.48-.4h0v-.08Zm.64.32c-.21-.01-.39.14-.4.35,0,.02,0,.03,0,.05.03.24.24.42.48.4h0c.24,0,.32-.24.32-.4.01-.21-.14-.39-.35-.4-.02,0-.03,0-.05,0Zm0-1.52c.02-.2-.12-.37-.32-.4-.23,0-.43.17-.48.4,0,.16.08.4.32.4h0c.24,0,.32-.24.4-.4h.08Zm.8,1.04c.17-.01.31-.15.32-.32,0-.16,0-.32-.24-.4h-.08c-.24,0-.32.16-.4.32s0,.32.32.32l.08.08Z"/><path class="cls-62" d="m52.17,258.37h5.44c.48,0,.56.16.56.64v10.56c0,.4-.08.56-.56.56h-12.24c.02-.17.07-.33.16-.48,1.52-2.48,2.96-4.96,4.48-7.44.8-1.24,1.52-2.52,2.16-3.84Z"/><path class="cls-62" d="m42.31,270.05c-1.28,0-1.92-.61-1.92-1.84v-9.22c0-.56.16-.72.72-.72h8c-.56,1.16-1.2,2.29-1.92,3.36-1.6,2.8-3.28,5.52-4.88,8.32v.1Z"/><path class="cls-50" d="m52.17,258.37c-.64,1.32-1.36,2.6-2.16,3.84-1.44,2.48-2.96,4.96-4.48,7.44,0,.16-.16.32-.16.48h-1.28c.02-.17.07-.33.16-.48,1.28-2.08,2.56-4.24,3.76-6.32.96-1.68,2-3.2,2.88-4.96h1.28Z"/><path class="cls-12" d="m50.87,258.37c-.88,1.68-1.92,3.28-2.88,4.96-1.28,2.16-2.56,4.24-3.76,6.32,0,.16-.16.32-.16.48h-.88c.37-.94.85-1.82,1.44-2.64,1.76-3.04,3.6-6.08,5.36-9.04h.88v-.08Z"/><path class="cls-34" d="m49.99,258.37c-1.76,3.04-3.6,6-5.36,9.04-.59.82-1.07,1.7-1.44,2.64h-.88c1.68-2.72,3.28-5.52,4.88-8.32.72-1.07,1.36-2.2,1.92-3.36h.88Z"/><path class="cls-57" d="m51.67,281.97c1.76,0,1.52-.16,1.52,1.52,0,.96,0,1.04-1.12,1.04h-1.28c-.39.05-.75-.24-.8-.63,0-.06,0-.11,0-.17,0-1.84-.16-1.84,1.68-1.76Z"/><path class="cls-57" d="m46.87,281.97h0c1.52,0,1.92.48,1.52,2-.04.35-.36.6-.71.56,0,0,0,0,0,0-.61.04-1.23.04-1.84,0-1.2-.24-.48-1.28-.64-1.92-.08-.48.16-.72.64-.64h1.04Z"/><path class="cls-57" d="m46.87,278.19h0c1.52,0,1.92.48,1.52,2-.06.31-.32.55-.64.56h-1.84c-.48,0-.8-.24-.72-.8v-.24c0-1.76-.24-1.6,1.6-1.6l.08.08Z"/><path class="cls-57" d="m51.67,278.19c1.68,0,1.52-.16,1.52,1.52,0,.96-.16,1.12-1.12,1.12h-.4c-1.92,0-1.68-.16-1.68-2,0-.4.24-.56.64-.56h1.04v-.08Z"/><path class="cls-57" d="m51.59,288.37c-1.52,0-2-.56-1.6-2.08.06-.3.34-.5.64-.48h2.24c.72.56.32,1.36.32,2,0,.48-.4.56-.8.56h-.8Z"/><path class="cls-57" d="m46.87,288.37c-1.44,0-2-.8-1.52-2.16.05-.28.32-.46.6-.41.01,0,.03,0,.04,0h2.24c.72.56.32,1.28.32,1.92,0,.4-.32.64-.8.64h-.88Z"/><path class="cls-57" d="m46.87,274.37h0c1.6,0,1.92.4,1.6,2,0,.4-.32.56-.72.64h-.64q-1.84,0-1.84-1.84c0-1.84.24-.88.8-.8h.8Z"/><path class="cls-57" d="m51.67,274.37c1.68,0,1.52-.16,1.52,1.52,0,.96-.16,1.12-1.12,1.12h-.4c-1.92,0-1.68-.16-1.68-2,0-.4.24-.56.64-.64h1.04Z"/><path class="cls-57" d="m42.23,288.37c-1.84,0-1.52-.08-1.52-1.52q0-1.04,1.04-1.04h.32c1.92,0,1.68-.24,1.68,1.68,0,.72-.24.96-.88.96h-.64v-.08Z"/><path class="cls-57" d="m56.31,285.73c1.76,0,1.52-.16,1.52,1.52q0,1.04-1.04,1.04h-.32c-2.08,0-1.68,0-1.76-1.76,0-.64.24-.96.88-.88h.64l.08.08Z"/><path class="cls-57" d="m56.31,281.97c1.68,0,1.52-.16,1.52,1.6,0,.96-.08,1.04-1.04,1.04h-.24c-2.16,0-1.76.08-1.84-1.84,0-.56.16-.8.72-.8h.88Z"/><path class="cls-57" d="m42.23,281.97c1.68,0,1.44-.16,1.52,1.52,0,.96,0,1.12-1.04,1.12h-.32c-2.08,0-1.68,0-1.76-1.76,0-.64.24-.96.88-.88h.72Z"/><path class="cls-57" d="m42.23,278.19c1.68,0,1.52-.16,1.52,1.52,0,1.04,0,1.12-1.12,1.12h-.24c-1.92,0-1.68,0-1.76-1.76,0-.64.16-.88.8-.8h.72l.08-.08Z"/><path class="cls-57" d="m56.31,274.37c1.68,0,1.52-.16,1.52,1.6,0,.96-.08,1.04-1.04,1.04h-.24c-2,0-1.76.08-1.84-1.84,0-.56.16-.8.72-.8h.88Z"/><path class="cls-57" d="m56.31,278.19c1.68,0,1.52-.16,1.52,1.52,0,1.04-.08,1.12-1.04,1.12h-1.12c-.64,0-.88-.24-.88-.88v-.16c0-1.76-.24-1.6,1.6-1.6h-.08Z"/><path class="cls-57" d="m42.23,274.37c1.68,0,1.52-.16,1.52,1.52,0,.96-.08,1.04-1.04,1.04h-.24c-2,0-1.84.08-1.84-1.84,0-.56.16-.8.72-.8h.8l.08.08Z"/><path class="cls-65" d="m50.79,256.13c-.24,0-.48-.08-.48-.4,0-.26.19-.47.45-.48.01,0,.02,0,.03,0,.24,0,.48.08.48.4,0,.26-.19.47-.45.48-.01,0-.02,0-.03,0Z"/><path class="cls-65" d="m52.71,255.73c0,.32-.24.4-.56.4s-.48-.16-.48-.4.24-.4.56-.4.48.16.48.4Z"/><path class="cls-69" d="m48.07,294.61c.02.24-.16.45-.4.48-.21.02-.39-.13-.41-.33,0-.05,0-.1.01-.15,0-.24.08-.48.4-.48.23-.03.45.13.48.36,0,.04,0,.08,0,.12h-.08Z"/><path class="cls-65" d="m46.39,255.25c.32,0,.4.16.4.48.01.21-.14.39-.35.4-.02,0-.03,0-.05,0h0c-.32,0-.56-.16-.48-.48s.24-.4.56-.4h-.08Z"/><path class="cls-65" d="m48.23,255.65c0,.32-.16.48-.4.4-.22.04-.44-.1-.48-.32-.04-.22.1-.44.32-.48.05-.01.11-.01.16,0,.24,0,.48.08.48.4h-.08Z"/><path class="cls-65" d="m48.07,291.33c0,.32-.16.48-.4.48s-.4-.16-.4-.48.08-.4.4-.4.48.08.48.4h-.08Z"/><path class="cls-65" d="m51.27,291.25c0,.4-.16.56-.4.56s-.4-.16-.4-.48.24-.4.48-.4c.2-.02.37.12.4.32h-.08Z"/><path class="cls-65" d="m50.95,294.99c-.32,0-.56-.08-.56-.4s.16-.48.4-.48.4.16.4.48-.08.4-.32.4h.08Z"/><path class="cls-65" d="m49.67,255.65c.03.22-.11.42-.32.48-.24,0-.48-.08-.48-.4-.03-.22.11-.42.32-.48.32,0,.48.08.48.4Z"/><path class="cls-65" d="m49.27,291.09c-.24,0-.4-.08-.48-.4s.08-.48.4-.48.48.16.48.4c.01.21-.14.39-.35.4-.02,0-.03,0-.05,0v.08Z"/><path class="cls-65" d="m46.95,293.39c-.32,0-.4-.16-.4-.48s.16-.4.48-.4.4.16.4.48-.16.4-.48.4Z"/><path class="cls-65" d="m51.51,292.53c.32,0,.48.08.48.32s-.08.48-.4.48c-.22.03-.42-.11-.48-.32,0-.32.08-.48.32-.48h.08Z"/><path class="cls-65" d="m49.27,289.33c-.17-.01-.31-.15-.32-.32,0-.16.08-.24.32-.24.16-.01.31.11.32.27,0,.02,0,.03,0,.05,0,.16-.08.24-.32.24Z"/><path class="cls-69" d="m48.79,293.25c-.05.23-.25.39-.48.4-.24,0-.4-.16-.32-.48s.16-.4.4-.4.32.24.4.4v.08Z"/><path class="cls-69" d="m49.43,293.57c.21-.01.39.14.4.35,0,.02,0,.03,0,.05,0,.24,0,.4-.32.4s-.48-.08-.48-.32h0c0-.24.16-.32.4-.4v-.08Z"/><path class="cls-69" d="m49.35,292.13c-.02.21-.19.38-.4.4-.2.02-.37-.12-.4-.32h0c.03-.24.24-.42.48-.4.24,0,.32.16.32.4v-.08Z"/><path class="cls-65" d="m50.23,293.09c-.32,0-.4-.16-.32-.32s.16-.4.4-.32c.17.01.31.15.32.32v.08c-.01.17-.15.31-.32.32l-.08-.08Z"/><path d="m26.79,278.93c1.67-1.31,4.08-1.01,5.39.66.02.02.03.04.05.06l1.84,2.56-6.32,4.64-1.84-2.56c-1.25-1.67-.9-4.04.77-5.28.03-.03.07-.05.11-.08Zm1.04,1.36c-.95.55-1.27,1.77-.72,2.72.05.08.1.16.16.24l.8,1.12,3.52-2.64-.8-1.12c-.66-.94-1.96-1.17-2.9-.51-.05.03-.1.07-.14.11l.08.08Z"/><path d="m23.51,278.93c-.53.22-1.14-.03-1.36-.56-.22-.53.03-1.14.56-1.36.53-.22,1.14.03,1.36.56h0c.23.52-.01,1.12-.53,1.35,0,0-.02,0-.03.01Zm1.28-.72l-.64-1.52,5.12-2.16.64,1.52-5.12,2.16Z"/><path d="m26.39,269.81c1.28-.32,2.08.64,2.32,1.84.29.95,0,1.97-.72,2.64l-1.12-1.2c.39-.18.57-.64.4-1.04-.08-.4-.24-.56-.48-.48-.64.16.32,2.72-1.52,3.2-1.2.24-2-.56-2.32-1.76-.25-.86,0-1.78.64-2.4l1.04,1.2c-.27.21-.39.55-.32.88-.01.21.14.39.35.4.02,0,.03,0,.05,0,.64-.16-.4-2.72,1.6-3.2l.08-.08Z"/><path d="m25.35,262.93c1.55-.04,2.83,1.17,2.88,2.72,0,.03,0,.05,0,.08,0,.63-.26,1.24-.72,1.68h2.8v1.76l-7.84-.24v-1.68h.56c-.43-.45-.66-1.06-.64-1.68.1-1.52,1.42-2.67,2.94-2.57.03,0,.07,0,.1,0l-.08-.08Zm0,1.68c-.75-.05-1.39.51-1.44,1.26,0,0,0,.01,0,.02-.07.68.43,1.29,1.11,1.35.06,0,.11,0,.17,0,.75.05,1.39-.51,1.44-1.26,0,0,0-.01,0-.02.1-.65-.34-1.27-1-1.37-.09-.01-.19-.02-.28-.01v.02Z"/><path d="m20.55,260.45l.4-1.6,7.92,2-.4,1.6-7.92-2Z"/><path d="m26.47,252.37l5.04,2.48-.72,1.52-.48-.24c.22.58.16,1.23-.16,1.76-.88,1.38-2.72,1.79-4.1.9-1.18-.75-1.67-2.23-1.18-3.54.26-.58.76-1.01,1.36-1.2l-.48-.24.72-1.52v.08Zm1.76,2.72c-.64-.36-1.46-.13-1.82.52,0,.01-.02.03-.02.04-.38.67-.15,1.53.52,1.91.67.38,1.53.15,1.91-.52.38-.67.15-1.53-.52-1.91-.02-.01-.05-.03-.07-.04Z"/><path d="m31.43,246.61l2.72,5.12c.88,1.68.72,2.88-.4,4l-1.12-1.04c.5-.41.61-1.14.24-1.68l-5.44-2,1.28-1.36,3.36,1.36-1.84-3.12,1.2-1.36v.08Z"/><path d="m42.87,240.53l.48,5.84-1.44.64-2-2.4.32,3.12-1.44.64-3.84-4.48,1.68-.72,1.92,2.48-.32-3.12,1.44-.64,1.92,2.4-.4-3.12,1.68-.72v.08Z"/><path d="m44.17,238.99c-.07-.55.33-1.05.88-1.12.55-.07,1.05.33,1.12.88.07.55-.33,1.05-.88,1.12,0,0,0,0,0,0-.54.07-1.04-.31-1.12-.85,0-.01,0-.02,0-.03Zm.4,1.44l1.68-.24.8,5.52-1.68.24-.8-5.52Z"/><path d="m50.07,241.73v2c0,.48.4.56,1.12.48v1.52c-2.24.16-2.88-.48-2.8-2v-2h-.88v-1.6h.88v-1.04l1.68-.48v1.6h1.12v1.6h-1.2l.08-.08Z"/><path d="m57.77,243.57l-.8,3.36-1.6-.4.72-3.12c.18-.46-.05-.97-.51-1.15-.07-.03-.14-.04-.21-.05-.51-.17-1.06.11-1.23.62-.03.08-.04.17-.05.26l-.72,2.96-1.6-.4,1.84-7.6,1.6.4-.64,2.72c.48-.36,1.1-.47,1.68-.32,1.13.26,1.84,1.38,1.58,2.51-.02.07-.04.14-.06.21Z"/><path d="m62.71,250.45v-3.04l-1.44,2-1.36-.96,4.64-6.32,1.36.96-2.8,3.76,2.8-.96,1.6,1.2-3.28,1.04v3.52l-1.52-1.12v-.08Z"/><path d="m66.87,252.85c.26.32.63.52,1.04.56l.24,1.52c-.95.04-1.86-.41-2.4-1.2-1.09-1.15-1.04-2.97.11-4.06.07-.06.14-.12.21-.18,1.17-1.03,2.95-.92,3.97.25.07.07.13.15.19.23,1,1.21.82,3.01-.39,4.01-.03.02-.06.05-.09.07-.16.16-.4.24-.56.4l-2.48-3.12c-.29.5-.19,1.13.24,1.52h-.08Zm2.24-.48c.32-.46.32-1.06,0-1.52-.32-.47-.93-.64-1.44-.4l1.52,1.84-.08.08Z"/><path d="m74.95,258.61l-5.76.48c-1.92.16-2.96-.48-3.52-1.92l1.44-.64c.17.63.8,1.01,1.44.88l3.92-4.24.8,1.68-2.64,2.56,3.52-.48.72,1.6.08.08Z"/><path d="m73.51,266.53c-1.49.31-2.95-.65-3.26-2.14,0-.03-.01-.06-.02-.1-.14-.62,0-1.26.4-1.76l-2.72.4-.24-1.68,7.76-1.12.24,1.68h-.56c.5.39.82.97.88,1.6.16,1.52-.94,2.87-2.46,3.03-.03,0-.07,0-.1,0l.08.08Zm-.24-1.68c.69-.05,1.2-.65,1.15-1.34,0-.06-.01-.12-.03-.18-.03-.67-.6-1.19-1.27-1.16-.08,0-.17.02-.25.04-.69.05-1.2.65-1.15,1.34,0,.06.01.12.03.18.03.67.6,1.19,1.27,1.16.08,0,.17-.02.25-.04h0Z"/><path d="m75.37,273.89l-5.52-.88.24-1.68h.48c-.44-.44-.59-1.09-.4-1.68.44-1.58,2.08-2.51,3.66-2.08,1.35.37,2.26,1.64,2.18,3.04-.05.63-.41,1.2-.96,1.52h.48c0,.08-.24,1.76-.24,1.76h.08Zm-2.48-2.08c.65.17,1.31-.22,1.48-.87.02-.08.03-.16.04-.25.13-.7-.34-1.38-1.04-1.51-.03,0-.05,0-.08-.01-.65-.17-1.31.22-1.48.87-.02.08-.03.16-.04.25-.12.71.36,1.37,1.07,1.49.01,0,.02,0,.04,0l.02.02Z"/><path d="m74.07,282.37l-7.04-3.44.72-1.52.48.24c-.26-.57-.2-1.24.16-1.76.76-1.35,2.47-1.85,3.84-1.12,1.4.59,2.06,2.21,1.47,3.62,0,.02-.02.04-.03.06-.26.58-.76,1.01-1.36,1.2l2.48,1.2-.72,1.52Zm-3.76-3.76c.64.36,1.46.13,1.82-.52,0-.01.02-.03.02-.04.33-.61.1-1.37-.51-1.7-.04-.02-.08-.04-.13-.06-.64-.36-1.46-.13-1.82.52,0,.01-.02.03-.02.04-.33.61-.1,1.37.51,1.7.04.02.08.04.13.06h0Z"/><circle class="cls-4" cx="198.68" cy="354.39" r="36"/><path class="cls-16" d="m190.6,360.87v-19.2c-.12-.97.44-1.9,1.36-2.24h17.36c0,.16.16.16.24.24.49.35.78.92.8,1.52v6.88c-.41-.62-1.1-.98-1.84-.96-.75.03-1.42.46-1.76,1.12-.39.71-.26,1.59.32,2.16.47.56,1.2.83,1.92.72.54-.14,1.02-.45,1.36-.88v4.64l-.24-.24c-.82-.77-2.12-.72-2.88.1-.77.82-.72,2.12.1,2.88.02.02.04.04.06.05.88.72,2,.56,2.96-.4.16.08.08.32.08.4v3.44c.01.27-.01.54-.08.8-.24,1.04-.48,2-.8,2.96-.1.64-.29,1.26-.56,1.84v-.48c.11-1.04-.65-1.97-1.69-2.08-.13-.01-.26-.01-.39,0-1.1.03-1.96.95-1.92,2.04.01.45.18.89.48,1.24.49.63,1.32.88,2.08.64.67-.2,1.2-.71,1.44-1.36v.4c-.32,1.28-.72,2.56-1.04,3.76h-20.88c.8-2.16,1.68-4.4,2.48-6.56.32-.72.56-1.44.88-2.24h18.4c.4,0,.56-.24.56-.64s-.24-.64-.8-.64h-17.84l-.16.08Zm4.96-13.68c-1.1,0-2,.89-2,2,0,.03,0,.05,0,.08.03,1.12.95,2.02,2.08,2,1.1,0,2-.9,2-2s-.9-2-2-2h0l-.08-.08Zm6.56,6.96c-1.13-.02-2.05.88-2.08,2,0,1.1.87,1.99,1.97,2,.01,0,.02,0,.03,0,1.13.02,2.05-.88,2.08-2,.05-1.04-.76-1.92-1.8-1.97-.07,0-.13,0-.2,0v-.03Zm-6.24,12.16c0-1.1-.9-2-2-2s-2,.9-2,2c-.02,1.13.88,2.05,2,2.08,1.1,0,1.99-.87,2-1.97,0-.01,0-.02,0-.03v-.08Zm8.24-17.04c0-1.1-.9-2-2-2s-2,.9-2,2c-.02,1.13.88,2.05,2,2.08,1.1.03,2.01-.83,2.04-1.93,0-.01,0-.03,0-.04l-.04-.11Zm-8.48,4.88c-1.1,0-2,.9-2,2s.9,2,2,2c1.11-.01,2.03-.89,2.08-2,0-1.1-.87-1.99-1.97-2-.01,0-.02,0-.03,0h-.08Zm6.8,12.16c0-1.1-.9-2-2-2s-2,.9-2,2,.9,2,2,2c1.1,0,1.99-.87,2-1.97,0-.01,0-.02,0-.03Zm.16-23.04h1.56c.48,0,.64-.16.64-.64s-.16-.56-.64-.56h-2.96c-.36-.04-.68.23-.72.59,0,.02,0,.03,0,.05,0,.32.24.56.72.64h1.44l-.04-.08Zm-4.72-.64c0,.4.16.64.56.64s.56-.24.56-.64c.03-.33-.21-.61-.54-.64-.03,0-.07,0-.1,0-.4,0-.56.16-.56.64h.08Z"/><path class="cls-72" d="m185.16,381.59c-.64-.32-1.2-.64-1.36-1.36-.13-.58-.01-1.19.32-1.68.48-1.2.88-2.32,1.36-3.52h21.12v.4c-.4,1.36-.8,2.8-1.12,4.16-.12.84-.62,1.58-1.36,2h-18.96Zm11.04-2.32h2.36c.54.07,1.04-.31,1.11-.85,0-.06.01-.12,0-.19.04-.58-.39-1.08-.97-1.12-.05,0-.1,0-.15,0h-4.72c-.6-.02-1.1.44-1.12,1.04,0,0,0,0,0,0,0,.57.45,1.04,1.02,1.04.03,0,.07,0,.1,0h2.32l.04.08Z"/><path class="cls-36" d="m212.44,339.43c1.04.4,1.28,1.2,1.28,2.24v18.96c-.06.93-.25,1.84-.56,2.72-.64,2.4-1.36,4.8-2,7.28-.02.12-.08.23-.16.32h-3.28c.32-1.28.72-2.56,1.04-3.76v-.4h0c.27-.58.46-1.2.56-1.84.32-.96.56-2,.8-2.96,0-.24.08-.56.08-.8v-3.44c.02-.14,0-.28-.08-.4.48-.73.48-1.67,0-2.4.08-.08,0-.16,0-.32v-4.32c.36-.68.36-1.48,0-2.16v-6.88c-.02-.6-.31-1.17-.8-1.52-.13,0-.23-.11-.24-.24h3.2l.16-.08Z"/><path class="cls-47" d="m203.96,381.59h0c.76-.4,1.26-1.15,1.36-2,.4-1.36.72-2.8,1.12-4.16v-.4h3.44c-.48,1.76-.96,3.44-1.44,5.2-.18.66-.7,1.18-1.36,1.36h-3.12Z"/><path class="cls-68" d="m209.96,375.03h-24.56c.48-1.36.96-2.72,1.52-3.92h24.16c-.4,1.36-.72,2.72-1.12,4v-.08Z"/><path class="cls-18" d="m182.36,348.15h-1.4c-.33.05-.66-.07-.88-.32-.16-.24-.08-.4,0-.64.11-.21.33-.33.56-.32,1.12,0,2.16,0,3.28-.08.48,0,.72.24.72.64,0,1.12,0,2.24-.08,3.36,0,.36-.31.65-.67.64-.02,0-.03,0-.05,0-.31.01-.57-.23-.58-.54,0-.06,0-.12.02-.18-.01-.59.02-1.18.08-1.76-.45.52-.85,1.08-1.2,1.68-.85,1.42-1.4,3-1.6,4.64-.32,2.72.24,5.46,1.6,7.84.52.87,1.14,1.67,1.84,2.4.24.32.32.72,0,.96-.27.22-.66.18-.88-.08-2.05-1.96-3.37-4.55-3.76-7.36-.63-3.65.3-7.39,2.56-10.32.08-.16.24-.32.32-.48v-.16l.12.08Z"/><path class="cls-73" d="m190.6,360.87h17.84c.56,0,.8.24.8.64.04.31-.18.6-.49.64-.02,0-.05,0-.07,0h-18.4c.16-.41.24-.84.24-1.28h.08Z"/><path class="cls-76" d="m195.56,347.19c1.1,0,2,.9,2,2s-.9,2-2,2c-1.13.02-2.05-.88-2.08-2,.01-1.11.89-2.03,2-2.08l.08.08Z"/><path class="cls-76" d="m210.28,354.98c.48.73.48,1.67,0,2.4-.96.96-2.08,1.12-2.96.4-.87-.76-.98-2.07-.24-2.96.77-.84,2.07-.9,2.9-.13.02.02.04.03.06.05l.24.24Z"/><path class="cls-77" d="m202.04,354.07c1.1.02,1.98.94,1.96,2.04-.02,1.1-.94,1.98-2.04,1.96-1.1-.02-1.98-.9-2-2,0-1.1.89-2,2-2,.03,0,.05,0,.08,0Z"/><path class="cls-40" d="m195.88,366.23c-.02,1.13-.95,2.02-2.08,2-1.13-.02-2.02-.95-2-2.08.02-1.13.95-2.02,2.08-2,1.1.02,1.98.9,2,2v.08Z"/><path class="cls-40" d="m204.04,349.19c0,1.1-.87,1.99-1.97,2-.01,0-.02,0-.03,0-1.12-.03-2.02-.95-2-2.08,0-1.1.9-2,2-2s2,.9,2,2v.08Z"/><path class="cls-24" d="m195.56,354.07c1.13.02,2.02.95,2,2.08-.02,1.13-.95,2.02-2.08,2s-2.02-.95-2-2.08c.02-1.1.9-1.98,2-2h.08Z"/><path class="cls-24" d="m202.36,366.23c0,1.1-.9,2-2,2s-2-.9-2-2,.9-2,2-2c1.1,0,1.99.87,2,1.97,0,.01,0,.02,0,.03Z"/><path class="cls-46" d="m208.84,366.79h0c-.24.65-.77,1.16-1.44,1.36-.76.26-1.6,0-2.08-.64-.49-.58-.62-1.38-.32-2.08.27-.74.98-1.22,1.76-1.2,1.07-.08,2,.71,2.08,1.78,0,.1,0,.2,0,.3v.48Z"/><path class="cls-46" d="m210.28,348.07c.32.68.32,1.48,0,2.16-.33.45-.81.76-1.36.88-.73.19-1.49-.1-1.92-.72-.53-.59-.66-1.44-.32-2.16.31-.69,1-1.14,1.76-1.12.74-.02,1.43.34,1.84.96Z"/><path class="cls-11" d="m202.56,343.19h-1.44c-.36.04-.68-.23-.72-.59,0-.02,0-.03,0-.05,0-.4.24-.64.72-.64h2.96c.48,0,.64.16.64.56s-.16.64-.64.64h-1.52v.08Z"/><path class="cls-11" d="m197.8,342.55c0-.4.16-.64.56-.64.33-.03.61.21.64.54,0,.03,0,.07,0,.1.04.31-.18.6-.49.64-.02,0-.05,0-.07,0-.4,0-.56-.24-.56-.64h-.08Z"/><path class="cls-59" d="m196.16,379.27h-2.32c-.6.02-1.1-.44-1.12-1.04,0,0,0,0,0,0,.05-.58.53-1.03,1.12-1.04h4.72c.58-.04,1.08.39,1.12.97,0,.05,0,.1,0,.15,0,.57-.45,1.04-1.02,1.04-.03,0-.07,0-.1,0h-2.32l-.08-.08Z"/><path d="m168.84,347.67l1.6.4.8-3.04,1.76.48-.8,3.04,2.96.8-.48,1.84-8.08-2.24,1.36-4.88,1.76.48-.88,3.04v.08Z"/><path d="m173.48,344.58c-1.55-.86-2.11-2.8-1.25-4.35.86-1.55,2.8-2.11,4.35-1.25s2.11,2.8,1.25,4.35c0,.02-.02.03-.03.05-.84,1.52-2.74,2.07-4.26,1.23-.02-.01-.04-.02-.06-.03Zm2.32-3.92c-.66-.39-1.52-.18-1.92.48-.39.62-.21,1.45.42,1.84.05.03.09.05.14.08.66.39,1.52.18,1.92-.48.41-.62.24-1.44-.38-1.85-.06-.04-.12-.07-.18-.1v.03Z"/><path d="m173.24,334.39l1.2-1.36,6.56,5.76-1.2,1.36-6.56-5.76Z"/><path d="m181.32,327.59l5.12,6.72-1.44,1.12-.32-.48c-.02.68-.38,1.31-.96,1.68-1.38.95-3.28.6-4.23-.78,0,0,0-.01-.01-.02-1.07-1.22-.94-3.08.28-4.14.04-.03.08-.07.12-.1.5-.44,1.19-.62,1.84-.48l-1.76-2.32,1.44-1.12-.08-.08Zm1.84,5.36c-.41-.63-1.26-.81-1.89-.4-.04.02-.07.05-.11.08-.61.42-.77,1.25-.35,1.86.03.05.07.1.11.14.41.63,1.26.81,1.89.4.04-.02.07-.05.11-.08.61-.42.77-1.25.35-1.86-.03-.05-.07-.1-.11-.14h0Z"/><path d="m190.68,326.07l2.16,5.6-1.68.64-.24-.56c-.26.64-.79,1.14-1.44,1.36-1.59.53-3.31-.33-3.84-1.92-.7-1.49-.06-3.26,1.43-3.96.03-.01.06-.03.09-.04.61-.28,1.31-.28,1.92,0l-.24-.56,1.68-.64.16.08Zm-.56,3.44c-.32-.72-1.17-1.04-1.88-.71-.72.32-1.04,1.17-.71,1.88.31.68,1.09,1.01,1.8.75.73-.27,1.11-1.08.84-1.82-.01-.03-.03-.07-.04-.1Z"/><path d="m199.8,327.99c.23,1.62-.89,3.12-2.51,3.35-.02,0-.04,0-.05,0-.66.06-1.32-.14-1.84-.56v.56l-1.76.16-.72-8.4,1.76-.16.24,2.96c.43-.54,1.07-.86,1.76-.88,1.6-.16,2.96,1.15,3.12,2.96Zm-1.76.16c.02-.74-.57-1.36-1.32-1.37-.07,0-.14,0-.2.01-.73.01-1.32.61-1.31,1.35,0,.08.01.17.03.25-.02.74.57,1.36,1.32,1.37.07,0,.14,0,.2-.01.75-.03,1.33-.67,1.3-1.42,0-.06,0-.12-.02-.18h0Z"/><path d="m201.64,322.55l1.76.24-1.04,8.72-1.76-.24,1.04-8.72Z"/><path d="m206.68,331.03c.39.14.83.12,1.2-.08l1.12,1.2c-.83.62-1.91.77-2.88.4-1.71-.46-2.72-2.21-2.26-3.92,0-.03.01-.05.02-.08.48-1.65,2.2-2.6,3.85-2.13.05.01.1.03.15.05,1.59.5,2.47,2.18,1.97,3.77-.02.05-.03.1-.05.15-.02.25-.14.47-.32.64l-4.08-1.28c.02.64.52,1.17,1.16,1.23l.12.05Zm1.68-1.76c-.02-.76-.66-1.36-1.43-1.34-.41.01-.8.21-1.05.54l2.48.8Z"/><path d="m222.04,332.39l-5.36,6.48-1.36-1.12.4-.4c-.67.11-1.35-.1-1.84-.56-1.12-1.36-.93-3.38.44-4.5,1.03-.85,2.49-.97,3.64-.3.55.39.87,1.01.88,1.68l1.92-2.24,1.36,1.12-.08-.16Zm-4.88,2.96c.53-.58.5-1.48-.08-2.01-.03-.02-.05-.05-.08-.07-.51-.5-1.33-.49-1.83.03-.06.06-.12.14-.17.21-.53.58-.5,1.48.08,2.01.03.02.05.05.08.07.51.5,1.33.49,1.83-.03.06-.06.12-.14.17-.21h0Z"/><path d="m221.8,335.83l1.12,1.44-4.72,3.76-1.12-1.44,4.72-3.76Zm1.12-1.12c.46-.37,1.14-.3,1.52.16.37.46.3,1.14-.16,1.52-.46.37-1.14.3-1.52-.16-.38-.44-.33-1.1.11-1.48.02-.01.03-.03.05-.04Z"/><path d="m222.68,344.87c-1.2.64-2.32-.08-2.96-1.2-.6-.9-.6-2.06,0-2.96l1.52.96c-.34.31-.38.84-.08,1.2.24.4.4.48.64.4.56-.32-1.2-2.72.64-3.76,1.12-.64,2.24,0,2.88,1.12.53.8.53,1.84,0,2.64l-1.44-.96c.2-.29.2-.67,0-.96-.16-.24-.32-.4-.56-.24-.56.32,1.28,2.72-.72,3.76h.08Z"/><path d="m225.88,351.67c-1.59.53-3.31-.33-3.84-1.92-.22-.64-.13-1.35.24-1.92l-2.88.8-.48-1.76,8.08-2.16.48,1.76-.56.16c.6.32,1.03.87,1.2,1.52.36,1.62-.66,3.23-2.28,3.59-.01,0-.03,0-.04,0l.08-.08Zm-.48-1.76c.73-.13,1.22-.84,1.09-1.57-.01-.06-.03-.13-.05-.19-.16-.72-.87-1.17-1.58-1.01-.06.01-.12.03-.18.05-.73.13-1.22.84-1.09,1.57.01.06.03.13.05.19.16.72.87,1.17,1.58,1.01.06-.01.12-.03.18-.05h0Z"/><path d="m231.64,352.58v1.76l-8.64.56v-1.76l8.64-.56Z"/><path d="m228.2,362.71l-5.92-.8.24-1.76h.56c-.43-.48-.61-1.13-.48-1.76.33-1.62,1.89-2.69,3.52-2.4,1.63.12,2.85,1.54,2.73,3.17,0,.04,0,.07,0,.11-.05.68-.4,1.3-.96,1.68h.56l-.24,1.84v-.08Zm-2.72-2.16c.76.16,1.51-.33,1.66-1.1,0-.03.01-.07.02-.1.12-.76-.4-1.47-1.16-1.59-.04,0-.08-.01-.12-.01-.76-.16-1.51.33-1.66,1.1,0,.03-.01.07-.02.1-.16.72.3,1.44,1.02,1.6.08.02.17.03.26.03v-.03Z"/><path d="m225.32,370.23l-4.56-4.16c-1.52-1.36-1.76-2.64-1.04-4.16l1.52.64c-.36.58-.23,1.34.32,1.76h6.24l-.8,1.84-3.92-.24,2.96,2.48-.72,1.76v.08Z"/><circle class="cls-4" cx="344.72" cy="255.72" r="36"/><path class="cls-41" d="m371.52,247.96v24.96c-.33.74-1.03,1.26-1.84,1.36h-3.68c-.61-.08-1.23-.08-1.84,0h-2.8c-.5-.08-1.02-.08-1.52,0h-7.52c-.61-.08-1.23-.08-1.84,0h-11.04c-.61-.08-1.23-.08-1.84,0h-2.8c-.5-.08-1.02-.08-1.52,0h-7.6v-27.76h43.68c1.04-.13,2.03.46,2.4,1.44h-.24Zm-36,12.48h0v2.8c0,2.03,1.65,3.68,3.68,3.68,2.03,0,3.68-1.65,3.68-3.68v-1.84c0-.72-.32-1.04-1.04-1.04h-1.52c-.56-.06-1.06.35-1.12.91,0,.02,0,.04,0,.05,0,.56.4.88,1.12.88s.72,0,.72.72c.05,1.02-.73,1.89-1.75,1.94-.97.05-1.82-.66-1.93-1.62v-5.52c-.05-.36.04-.73.24-1.04.49-.88,1.6-1.2,2.48-.72.58.33.94.94.96,1.6.08.64.48,1.04.96.96.52-.07.88-.56.81-1.08,0-.01,0-.03,0-.04-.11-2.02-1.82-3.58-3.84-3.52-1.86.12-3.36,1.58-3.52,3.44v3.04l.08.08Zm18.48-1.28v4c-.05,1.27.6,2.47,1.7,3.13,1.68,1.15,3.97.72,5.12-.95.41-.59.63-1.29.64-2.01v-8.64c-.08-.41-.46-.69-.88-.64-.41-.02-.77.25-.88.64v8.4c.04,1.02-.74,1.88-1.76,1.92-1.02.04-1.88-.74-1.92-1.76v-8.4c0-.42-.25-.8-.64-.96-.38-.15-.81-.02-1.04.32-.16.23-.25.51-.24.8v4l-.1.15Zm-9.2,1.28v5.52c-.01.45.28.85.72.96.39.07.78-.13.96-.48.1-.2.13-.42.08-.64v-3.84c0-.4.08-.48.48-.48h1.46c1.97-.05,3.55-1.63,3.6-3.6.03-1.91-1.39-3.53-3.28-3.76-.96-.08-1.92,0-2.88,0s-1.2.32-1.2,1.2v5.2l.06-.08Zm-16.64-8.8v1.28c0,.52.37.96.88,1.04.51.06.97-.3,1.03-.81,0-.02,0-.05,0-.07v-1.52c0-.32.08-.4.4-.4h1.36c.49.01.93-.32,1.04-.8.05-.5-.3-.96-.8-1.04h-2.78c-.53-.04-.99.35-1.04.88v1.44h-.1Z"/><path class="cls-17" d="m325.36,274.29v2.72c0,.76-.43,1.45-1.12,1.76-.63.33-1.39.23-1.92-.24-.5-.41-.77-1.04-.72-1.68v-32.8c0-1.28.16-1.2-1.2-1.2-1.2,0-2.08-.32-2.48-1.44v-.8c.33-1.01,1.35-1.63,2.4-1.44h2.8c1.05-.15,2.01.58,2.16,1.63.02.18.02.36,0,.53v32.96h.08Z"/><path class="cls-60" d="m321.6,259.48v12h-2.4c-.51.04-1.01-.2-1.28-.64v-10.8c.32-.42.84-.63,1.36-.56h2.32Z"/><path class="cls-60" d="m321.6,248.44v7.36h-2.4c-.51.04-1.01-.2-1.28-.64v-6.16c.32-.42.84-.63,1.36-.56h2.32Z"/><path class="cls-9" d="m335.52,260.44v-3.04c.15-2.03,1.93-3.55,3.96-3.4,1.85.14,3.3,1.63,3.4,3.48,0,.64-.24,1.04-.8,1.12s-.88-.32-.96-.96c0-.98-.79-1.77-1.77-1.77-.05,0-.1,0-.15,0-.64.02-1.22.39-1.52.96-.16.32-.24.68-.24,1.04v5.21c-.12,1.01.6,1.93,1.61,2.06s1.93-.6,2.06-1.61c0-.04,0-.08.01-.12v-.32c.05-.35-.2-.67-.55-.72-.06,0-.11,0-.17,0-.72,0-1.12-.4-1.12-.88s.4-.96,1.12-.96h1.52c.72,0,1.04.32,1.04,1.04v1.84c0,2.03-1.65,3.68-3.68,3.68-2.03,0-3.68-1.65-3.68-3.68v-2.8h0l-.08-.17Z"/><path class="cls-6" d="m353.92,259.16v-4c-.02-.28.03-.55.16-.8.23-.34.66-.47,1.04-.32.4.14.66.53.64.96v8.09c-.04,1.02.74,1.88,1.76,1.92,1.02.04,1.88-.74,1.92-1.76v-8.64c.08-.41.46-.69.88-.64.41-.02.77.25.88.64v8.64c-.04,2.03-1.72,3.65-3.75,3.6-.72-.01-1.41-.24-2.01-.64-1.04-.7-1.67-1.87-1.68-3.12v-4l.16.07Z"/><path class="cls-6" d="m344.72,260.36v-5.2c0-.88.32-1.2,1.2-1.2h2.88c1.92.18,3.37,1.83,3.28,3.76-.05,1.97-1.63,3.55-3.6,3.6h-1.44c-.4,0-.48.08-.48.48v3.84c.02.22-.01.43-.08.64-.15.38-.56.59-.96.48-.44-.03-.77-.42-.73-.86,0-.03,0-.07.01-.1v-5.44h-.08Zm1.92-2.8v1.44c0,.32,0,.48.4.48h1.46c1,.02,1.82-.78,1.84-1.78,0-.02,0-.04,0-.06h0c.02-1-.78-1.82-1.78-1.84-.02,0-.04,0-.06,0h-1.44c-.32,0-.4.16-.4.4l-.02,1.36Z"/><path class="cls-52" d="m342.89,274.29v2.48c.04.56-.33,1.07-.88,1.2h-2.72v-3.68h3.6Z"/><path class="cls-52" d="m350.24,277.96h-2.64c-.55.03-1.01-.4-1.04-.94,0,0,0-.01,0-.02v-2.64h3.68v3.6Z"/><path class="cls-52" d="m369.68,274.29v2.48c.04.56-.33,1.07-.88,1.2h-2.7v-3.68h3.6-.02Z"/><path class="cls-52" d="m332.72,277.96h-2.62c-.55.03-1.01-.4-1.04-.94,0,0,0-.01,0-.02v-2.71h3.68l-.02,3.67Z"/><path class="cls-15" d="m328.08,251.64v-1.28c-.04-.53.35-.99.88-1.04h2.8c.49-.01.93.32,1.04.8.05.5-.3.96-.8,1.04h-1.6c-.32,0-.4.08-.4.4v1.36c0,.52-.37.96-.88,1.04-.51.06-.97-.3-1.03-.81,0-.02,0-.05,0-.07v-1.44h0Z"/><path class="cls-22" d="m337.36,277.96h-2.72v-3.6h0c0-.08,2.72-.08,2.72-.08v3.68Z"/><path class="cls-22" d="m354.89,277.96h-2.72v-3.67h2.72v3.6h0v.07Z"/><path class="cls-22" d="m359.52,277.96h-2.72v-3.67h2.72v3.67Z"/><path class="cls-22" d="m364.08,277.96h-2.72v-3.6h0c0-.08,2.72-.08,2.72-.08v3.68Z"/><path class="cls-54" d="m352.16,274.29v3.68h-1.84v-3.68c.61-.08,1.23-.08,1.84,0Z"/><path class="cls-54" d="m337.36,277.96v-3.67c.61-.08,1.23-.08,1.84,0v3.68h-1.84Z"/><path class="cls-54" d="m364.08,277.96v-3.67c.61-.08,1.23-.08,1.84,0v3.68h-1.84Z"/><path class="cls-54" d="m334.56,274.36v3.52h-.08c-.58.07-1.17.09-1.76.08v-3.67h1.76l.08.07Z"/><path class="cls-54" d="m356.72,274.29v3.68h-1.82v-3.68h1.84-.02Z"/><path class="cls-54" d="m361.36,274.36v3.52h-.06c-.58.07-1.17.09-1.76.08v-3.67h1.76l.06.07Z"/><path class="cls-54" d="m356.49,274.29h-1.52c.5-.08,1.02-.08,1.52,0Z"/><path class="cls-54" d="m354.89,277.88h.08v.08h0l-.08-.08Z"/><path class="cls-81" d="m346.56,257.64v-1.44c0-.32,0-.48.4-.4h1.44c1.02,0,1.84.82,1.84,1.84s-.82,1.84-1.84,1.84h-1.44c-.4,0-.4-.16-.4-.48v-1.36Z"/><path d="m339.44,231.96c1.25,2.8,0,6.08-2.81,7.33-.16.07-.31.13-.47.19-3.12,1.35-6.75-.09-8.1-3.21-.02-.05-.04-.1-.06-.15-1.23-3.2.37-6.79,3.58-8.02,1.89-.73,4.02-.48,5.7.66l-1.68,2.08c-1.67-1.01-3.85-.47-4.86,1.2-.57.94-.67,2.1-.26,3.12.72,1.84,2.56,2.72,4.72,1.84,1.25-.36,2.13-1.5,2.16-2.8l-2.96,1.12-.88-2.16,5.52-2.16.4.96Z"/><path d="m350.96,230.2c-.11,2.24-2.02,3.96-4.26,3.84-.02,0-.04,0-.06,0h-1.76c0-.08-.16,3.6-.16,3.6l-2.72-.16.56-11.76,4.48.24c2.23.07,3.99,1.93,3.92,4.17,0,.02,0,.05,0,.07Zm-2.72-.16c.05-.81-.55-1.52-1.36-1.6h-1.76c0-.08-.16,2.96-.16,2.96h1.76c.73.1,1.41-.41,1.51-1.14.01-.07.01-.15.01-.22h0Z"/><path d="m352.4,234.52l3.36-7.2,2.4,1.12-3.28,7.04c-.4.8-.32,1.68.96,2.24s2,.08,2.4-.72l3.28-7.04,2.4,1.12-3.36,7.2c-1.04,2.32-3.44,2.88-5.84,1.76s-3.52-3.28-2.4-5.6l.08.08Z"/><circle class="cls-4" cx="110.29" cy="335.35" r="36"/><path class="cls-30" d="m131.89,357.19v.64c-.15.43-.43.79-.8,1.04l-7.68,5.28c-.7.49-1.66.32-2.15-.38,0,0,0-.01-.01-.02-.24-.4-.56-.8-.8-1.2-.48-1-1.54-1.58-2.64-1.44-1.5.13-2.93-.62-3.68-1.92-.72-1.04-1.36-2.08-2.08-3.12-.08-.16-.16-.32-.32-.32,0-.15-.06-.29-.16-.4-.56-.88-1.12-1.68-1.68-2.56-.84-1.17-.57-2.81.6-3.65.01,0,.03-.02.04-.03.36-.25.71-.51,1.04-.8.16,0,.24.16.32.24.8,1.12,1.52,2.32,2.32,3.44l1.92,2.88c.23.33.68.44,1.04.24.33-.24.4-.71.16-1.04,0,0,0,0,0,0,0-.08-.08-.16-.16-.24-2.56-3.68-5.04-7.36-7.6-11.12-1.6-2.4-3.28-4.8-4.88-7.2-.35-.46-.55-1.02-.56-1.6,0-.24.24-.48.08-.8v-.16c.9-.41,1.96-.15,2.56.64.46.73.97,1.42,1.52,2.08.96,1.36,1.84,2.72,2.8,4.08.27.48.6.94.96,1.36h0s0,.16.08.16c.21.34.45.66.72.96.24.24.64.24.88,0,.32-.24.32-.64,0-1.04-.45-.57-.67-1.28-.64-2,0-.24.24-.4.08-.56.89-.46,1.99-.18,2.56.64.14.27.33.52.56.72.18.43.42.84.72,1.2.26.24.64.31.96.16.31-.21.42-.63.24-.96-.11-.2-.24-.39-.4-.56-.4-.58-.55-1.31-.4-2v-.32c.62-.36,1.38-.36,2,0,.56.32.8.88,1.2,1.28h0c.19.4.43.78.72,1.12.24.24.64.24.88,0,.23-.17.35-.44.32-.72-.03-.2-.11-.4-.24-.56-.47-.55-.67-1.28-.56-2v-.64c.96-.41,2.07-.07,2.64.8,1.52,2.24,3.04,4.4,4.48,6.64,1.15,1.85,1.89,3.92,2.16,6.08.17,1.54.23,3.09.16,4.64-.04.92.19,1.84.64,2.64l.08.4Zm-2.32-.08c0-.25-.16-.48-.4-.56-.25-.12-.55-.12-.8,0-.8.56-1.6,1.04-2.4,1.6-.34.17-.48.59-.31.94.02.04.04.07.07.1.24.33.71.4,1.04.16,0,0,0,0,0,0,.8-.56,1.6-1.12,2.4-1.6.24-.12.4-.37.4-.64Zm-4.88,3.36c.04-.36-.21-.68-.57-.72-.14-.02-.27.01-.39.08-.26.13-.5.29-.72.48-.24.26-.31.64-.16.96.2.31.61.39.92.19.01,0,.03-.02.04-.03.23-.14.44-.3.64-.48.16-.16.24-.24.16-.4l.08-.08Z"/><path class="cls-27" d="m95.89,335.99v-10.24c-.03-1,.63-1.89,1.6-2.16h2.32c.3.39.44.87.4,1.36-.06.78.52,1.45,1.29,1.52.05,0,.1,0,.15,0h5.52c.78.05,1.47-.54,1.52-1.32,0-.07,0-.13,0-.2-.07-.49.08-.98.4-1.36h2.08c.54.14,1.02.45,1.36.88.16.17.25.4.24.64-.64.56-1.28,1.2-1.84,1.76-1.04,1.12-2,2.24-2.96,3.44-.16.31-.41.56-.72.72-.84-.78-1.98-1.16-3.12-1.04-2.09.17-3.75,1.83-3.92,3.92-.1,1.76.88,3.41,2.48,4.16-.32.64-.72,1.36-1.04,2-.8,1.52-1.52,3.12-2.16,4.64-.93,2.25-1.75,4.55-2.44,6.88-.32,1.04-.56,2.08-.88,3.12-.13-.3-.19-.63-.16-.96v-8.32c.08-.24.24-.48.32-.72.54-1.25.89-2.57,1.04-3.92.24-1.76.08-3.44-1.36-4.72l-.12-.08Z"/><path class="cls-19" d="m109.05,323.51c-.33.37-.48.87-.4,1.36.05.78-.54,1.47-1.32,1.52-.07,0-.13,0-.2,0h-5.52c-.78.02-1.42-.59-1.44-1.37,0-.05,0-.1,0-.15.07-.49-.08-.98-.4-1.36h9.28Z"/><path class="cls-42" d="m108.85,323.51c-.08.08-.24,0-.4,0h.4Z"/><path class="cls-10" d="m96.05,354.63c.32-1.04.56-2.08.88-3.12.71-2.33,1.53-4.63,2.48-6.88.64-1.58,1.36-3.13,2.16-4.64.32-.64.72-1.36,1.04-2,.16,0,.32.16.48.16.53.21,1.12.27,1.68.16,0,.08.16.16.16.24,1.92,2.8,3.84,5.68,5.76,8.48.34.42.63.88.88,1.36-.33.29-.68.55-1.04.8-1.19.82-1.49,2.45-.67,3.64,0,.01.02.03.03.04.56.88,1.12,1.68,1.68,2.56.08.16.16.24.16.4-.56.32-1.12.16-1.68.24h-11.84c-.92.07-1.78-.49-2.08-1.36l-.08-.08Zm8.32-.72h2.64c.56,0,.88-.24.88-.72s-.32-.72-.88-.72h-5.28c-.56,0-.88.24-.88.72s.32.72.88.72h2.64Z"/><path class="cls-23" d="m107.17,330.95c.4-.08.48-.4.72-.72.96-1.2,1.92-2.32,2.96-3.44.57-.63,1.19-1.21,1.84-1.76.13.3.19.63.16.96v12.96c-.43.3-.71.76-.8,1.28-.04.37-.04.75,0,1.12-.36-.42-.69-.88-.96-1.36-.96-1.36-1.84-2.72-2.8-4.08.25-.5.39-1.04.4-1.6.03-1.25-.49-2.46-1.44-3.28l-.08-.08Z"/><path class="cls-39" d="m107.17,330.95c.93.83,1.46,2.03,1.44,3.28.02.56-.12,1.12-.4,1.6-.46-.73-.97-1.42-1.52-2.08-.57-.82-1.67-1.1-2.56-.64-.23,0-.43.17-.48.4h0s-.08.04-.08.08h0s-.08.04-.08.08h0s-.08.04-.08.08h0c-.46.39-.65,1.02-.48,1.6,0,.36.14.71.4.96.48.72.96,1.36,1.36,2.08-.56.11-1.15.05-1.68-.16-.17-.02-.33-.07-.48-.16-2.13-.96-3.08-3.47-2.12-5.6.64-1.42,2.01-2.37,3.56-2.48,1.14-.07,2.26.3,3.12,1.04l.08-.08Z"/><path class="cls-66" d="m104.69,338.31c-.48-.72-.96-1.36-1.36-2.08-.23-.27-.37-.61-.4-.96,0-.57.17-1.13.48-1.6h.08l.08-.08h0l.08-.08h0c.16,0,.32-.16.48-.24.08.24-.08.48-.08.8.01.58.21,1.14.56,1.6,1.6,2.4,3.28,4.8,4.88,7.2,2.56,3.68,5.04,7.36,7.6,11.12,0,.08.16.16.16.24.24.32.19.78-.13,1.02,0,0-.02.01-.03.02-.36.17-.79.07-1.04-.24l-1.92-2.88c-.8-1.12-1.52-2.32-2.32-3.44-.08-.16-.16-.24-.32-.24-.26-.47-.56-.93-.88-1.36-1.92-2.8-3.84-5.68-5.76-8.48,0-.08-.16-.16-.16-.24v-.08Z"/><path class="cls-61" d="m129.57,357.11c0,.27-.16.52-.4.64-.8.56-1.6,1.12-2.4,1.6-.34.21-.78.15-1.04-.16-.23-.33-.15-.78.18-1,.02-.01.04-.03.06-.04.8-.56,1.6-1.12,2.4-1.6.23-.2.57-.2.8,0,.24.16.4.32.4.56Z"/><path class="cls-44" d="m120.61,338.95c-.12-.6-.04-1.22.24-1.76.24-.37.57-.67.96-.88v.64c-.05.71.15,1.42.56,2,.16.14.25.35.24.56,0,.32,0,.56-.32.72-.27.16-.61.16-.88,0-.31-.32-.56-.7-.72-1.12h0l-.08-.16Z"/><path class="cls-44" d="m116.37,340.07c-.31-.97.13-2.02,1.04-2.48.08.08,0,.24,0,.32-.16.69-.01,1.42.4,2,.16.16.24.4.4.56.22.33.13.78-.2,1s-.78.13-1-.2c-.31-.35-.56-.76-.72-1.2h.08Z"/><path class="cls-66" d="m111.97,341.27v-1.12c.17-.48.44-.92.8-1.28.12-.02.23-.08.32-.16.16.24,0,.4-.08.56,0,.72.23,1.41.64,2,.28.29.28.75,0,1.04-.24.24-.64.24-.88,0-.26-.31-.5-.63-.72-.96,0,0,0-.16-.08-.16h0v.08Z"/><path class="cls-61" d="m124.69,360.39c0,.16,0,.32-.16.4-.18.2-.4.37-.64.48-.29.22-.71.17-.93-.12-.01-.01-.02-.03-.03-.04-.19-.32-.12-.72.16-.96l.72-.48c.31-.17.71-.06.88.25.07.12.09.26.08.39l-.08.08Z"/><path class="cls-84" d="m104.13,333.19c-.16,0-.32.24-.48.24,0-.24.32-.32.48-.4v.16Z"/><path class="cls-23" d="m111.97,341.27c0,.06.03.12.08.16-.04-.04-.07-.1-.08-.16Z"/><path class="cls-49" d="m96.05,354.63c.3.87,1.16,1.43,2.08,1.36h11.84c-.78,1.11-1.79,2.03-2.96,2.72-.16.08-.24.16-.4.24-.56.29-.87.9-.8,1.52v2.48c0,.84-.68,1.52-1.52,1.52h-8.24c-.77.07-1.45-.49-1.52-1.25,0-.09,0-.18,0-.27v-2.4c-.18-.79-.54-1.53-1.04-2.16-.56-.8-1.04-1.68-1.68-2.48-.54-.77-.82-1.7-.8-2.64,0-1.84.16-3.68.16-5.52v-2.64c-.03-1.18.19-2.35.64-3.44.66-1.47,1.09-3.04,1.28-4.64.03-.77.68-1.36,1.45-1.33.1,0,.21.02.31.05.72.88,1.11,1.98,1.12,3.12-.04,1.08-.2,2.16-.48,3.2-.21,1-.56,1.97-1.04,2.88-.18.38-.04.83.32,1.04.34.21.78.11.99-.23.02-.03.03-.06.05-.09.04-.09.1-.17.16-.24v8.32c-.03.33.03.66.16.96l-.08-.08Zm5.84,6.32h-.96c-.4-.06-.77.21-.83.61s.21.77.61.83c.07.01.14.01.22,0h1.92c.4,0,.72-.32.72-.72s-.32-.72-.72-.72h-.96Zm-4.24,1.44c.19.01.38-.01.56-.08.31-.14.47-.47.4-.8-.11-.35-.44-.58-.8-.56-.48,0-.96,0-1.2.48v.16c0,.56.32.8,1.04.8Z"/><path class="cls-66" d="m95.89,345.35c-.04.09-.1.17-.16.24-.21.36-.66.5-1.04.32-.36-.16-.53-.59-.37-.95.01-.03.03-.06.05-.09.47-.92.83-1.88,1.08-2.88.28-1.04.44-2.12.48-3.2.03-1.14-.37-2.26-1.12-3.12.4.06.78.2,1.12.4,1.44,1.28,1.52,2.96,1.36,4.72-.15,1.35-.5,2.67-1.04,3.92-.08.24-.24.48-.32.72l-.04-.08Z"/><path class="cls-48" d="m104.37,353.91h-2.64c-.56,0-.88-.24-.88-.72s.32-.72.88-.72h5.28c.56,0,.88.32.88.72s-.32.72-.88.72h-2.64Z"/><path class="cls-84" d="m103.45,333.67c-.28.49-.44,1.04-.48,1.6-.21-.58-.01-1.23.48-1.6Z"/><path class="cls-61" d="m101.89,360.95h.88c.4-.06.77.21.83.61s-.21.77-.61.83c-.07.01-.14.01-.22,0h-1.92c-.4,0-.72-.32-.72-.72s.32-.72.72-.72h1.04,0Z"/><path class="cls-61" d="m97.73,362.39c-.8,0-1.12-.24-1.04-.8v-.16c.24-.48.72-.48,1.2-.48.36-.02.69.21.8.56.11.33-.06.68-.38.79,0,0-.01,0-.02,0-.18.06-.37.09-.56.08Z"/><path d="m81.89,323.99l-.64,2.08,6.24,2-.56,1.84-6.24-2-.64,2.08-1.76-.56,1.92-5.92,1.76.56-.08-.08Z"/><path d="m85.17,325.43c-1.5-.88-2-2.82-1.11-4.32.88-1.5,2.82-2,4.32-1.11,1.5.88,2,2.81,1.12,4.31-.87,1.5-2.79,2.01-4.29,1.14-.01,0-.02-.01-.03-.02Zm2.32-3.92c-.68-.35-1.51-.09-1.87.59-.35.68-.09,1.51.59,1.87.66.34,1.47.11,1.84-.54.41-.63.23-1.46-.4-1.87-.03-.02-.05-.03-.08-.05h-.08Z"/><path d="m91.17,312.87l4.16,4.32-1.28,1.28-.4-.4c.02.64-.24,1.26-.72,1.68-.86.87-2.26.88-3.13.02-.08-.08-.16-.17-.23-.26l-2.56-2.64,1.28-1.28,2.4,2.48c.3.42.89.52,1.31.21.08-.06.15-.13.21-.21.46-.39.52-1.08.14-1.54-.04-.05-.09-.09-.14-.14l-2.24-2.32,1.28-1.28-.08.08Z"/><path d="m94.29,314.23c-.82-1.57-.22-3.5,1.35-4.32.93-.49,2.04-.49,2.97,0l-.88,1.6c-.42-.24-.94-.24-1.36,0-.66.4-.87,1.26-.48,1.92.3.65,1.08.93,1.72.62.04-.02.08-.04.12-.06.46-.21.72-.7.64-1.2h1.88c-.02,1.12-.63,2.16-1.6,2.72-1.46.88-3.35.41-4.23-1.04-.03-.05-.06-.11-.09-.16l-.04-.08Z"/><path d="m105.73,308.79l.96,3.52-1.76.48-.88-3.28c-.06-.53-.54-.91-1.08-.85-.07,0-.14.02-.2.05-.64.16-.96.64-.72,1.52l.88,3.2-1.76.48-2.24-8.08,1.76-.48.8,2.88c.27-.59.8-1.01,1.44-1.12,1.17-.34,2.4.34,2.73,1.51.03.11.05.22.07.33v-.16Z"/><path d="m117.33,304.47l-1.04,8.32-1.76-.24v-.56c-.46.46-1.13.65-1.76.48-1.6-.16-2.64-1.76-2.48-3.52.14-1.64,1.55-2.88,3.2-2.8.68.05,1.3.4,1.68.96l.4-2.96,1.76.24v.08Zm-2.48,5.12c.14-.73-.33-1.44-1.06-1.58-.05,0-.09-.02-.14-.02-.76-.12-1.47.4-1.59,1.16,0,.04-.01.08-.01.12-.14.73.33,1.44,1.06,1.58.05,0,.09.02.14.02.76.12,1.47-.4,1.59-1.16,0-.04.01-.08.01-.12Z"/><path d="m119.01,307.51l1.68.56-1.92,5.68-1.68-.56,1.92-5.68Zm.32-1.6c.18-.57.79-.9,1.36-.72.57.18.9.79.72,1.36-.18.57-.79.9-1.36.72-.57-.19-.88-.79-.72-1.36h0Z"/><path d="m124.69,314.63c-.64,1.2-2,1.2-3.12.56-1-.41-1.64-1.4-1.6-2.48h1.76c-.05.43.17.85.56,1.04.4.24.64.16.72,0,.32-.56-2.48-1.68-1.52-3.52.61-.99,1.9-1.3,2.88-.69.03.02.05.03.08.05.88.4,1.44,1.28,1.44,2.24h-1.76c.03-.34-.16-.66-.48-.8-.18-.16-.46-.16-.64,0-.32.64,2.48,1.6,1.44,3.52l.24.08Z"/><path d="m131.09,318.55c-.98,1.27-2.81,1.51-4.08.53-.05-.04-.11-.08-.16-.13-.53-.42-.83-1.08-.8-1.76l-2,2.16-1.36-1.2,5.6-6.24,1.36,1.2-.4.4c.67-.03,1.33.19,1.84.64,1.17,1.13,1.21,2.99.08,4.16-.03.03-.05.05-.08.08v.16Zm-1.36-1.2c.57-.54.6-1.44.07-2.01-.02-.02-.04-.05-.07-.07-.54-.54-1.41-.53-1.95,0-.05.05-.09.1-.13.16-.57.54-.6,1.44-.07,2.01.02.02.04.05.07.07.54.54,1.41.53,1.95,0,.05-.05.09-.1.13-.16Z"/><path d="m136.29,316.15l1.04,1.44-7.04,5.2-1.04-1.44,7.04-5.2Z"/><path d="m139.01,326.55l-5.44,2.56-.72-1.6.48-.24c-.64-.21-1.16-.67-1.44-1.28-.64-1.51.07-3.24,1.58-3.88.03-.01.07-.03.1-.04,1.48-.77,3.3-.2,4.08,1.28.3.6.33,1.3.08,1.92l.48-.24.72,1.6.08-.08Zm-3.44-.4c.72-.31,1.05-1.15.74-1.87,0-.02-.01-.03-.02-.05-.29-.69-1.09-1.01-1.77-.71-.05.02-.1.05-.15.07-.72.31-1.05,1.15-.74,1.87,0,.02.01.03.02.05.29.69,1.09,1.01,1.77.71.05-.02.1-.05.15-.07Z"/><path d="m140.61,334.47l-6.08-1.04c-2-.32-2.96-1.28-3.12-2.96l1.68-.32c.16.8.48,1.2,1.2,1.28l5.2-3.36.32,1.92-3.36,1.92,3.84.48.32,1.92v.16Z"/><circle class="cls-4" cx="294.22" cy="329.78" r="36"/><path class="cls-26" d="m283.1,335.38v-15.68c0-1.2.24-1.52,1.36-2h.16c.08.16.24,0,.4,0h15.44c.85.08,1.49.82,1.44,1.68v35.76c.05.77-.4,1.48-1.12,1.76h-15.76c-.97.09-1.83-.63-1.92-1.6,0-.11,0-.21,0-.32v-19.6Zm12.96,16.48h2.72c.46,0,.84-.34.88-.8v-27.56c-.06-.44-.43-.78-.88-.8h-9.68c-.51-.02-.94.38-.96.89,0,.02,0,.04,0,.07v27.28c-.02.51.38.94.89.96.02,0,.04,0,.07,0l6.96-.04Z"/><path class="cls-13" d="m300.7,356.9c.7-.3,1.15-1,1.12-1.76v-35.76c.02-.85-.6-1.57-1.44-1.68h3.12c.89.31,1.43,1.22,1.28,2.16v35.44c.09.92-.58,1.75-1.5,1.84-.11.01-.22.01-.34,0h-2.24v-.24Z"/><path class="cls-13" d="m283.1,328.3v3.84h-4.08c-.65.1-1.26-.35-1.36-1-.02-.12-.02-.24,0-.36v-1.28c-.04-.63.44-1.16,1.07-1.2.04,0,.09,0,.13,0h4.24Z"/><path class="cls-13" d="m283.1,342.42v3.84h-4c-.96,0-1.36-.4-1.36-1.36v-1.2c-.06-.65.42-1.22,1.06-1.28.07,0,.15,0,.22,0h4.08,0Z"/><path class="cls-82" d="m283.1,335.38v3.84h-4.08c-.64.07-1.21-.4-1.27-1.03,0-.06,0-.11,0-.17v-1.36c-.05-.62.41-1.16,1.02-1.21.09,0,.17,0,.26,0h4.16l-.08-.08Z"/><path class="cls-45" d="m304.86,332.1v-3.8h4.08c.59-.07,1.12.35,1.19.93,0,.06,0,.12,0,.19v1.52c.04.63-.44,1.16-1.07,1.2-.04,0-.09,0-.13,0l-4.08-.04Z"/><path class="cls-45" d="m304.86,346.26v-3.84h4.08c.6-.06,1.14.38,1.2.98,0,.07,0,.15,0,.22v1.52c.03.59-.42,1.1-1.01,1.13-.06,0-.12,0-.19,0h-4.08Z"/><path class="cls-45" d="m304.86,339.22v-3.84h4.08c.63-.04,1.16.44,1.2,1.07,0,.04,0,.09,0,.13v1.36c.04.63-.44,1.16-1.07,1.2-.04,0-.09,0-.13,0h-4.08v.08Z"/><path class="cls-82" d="m283.1,321.22v3.88h-3.92c-1.04,0-1.44-.4-1.44-1.44v-1.2c-.03-.59.42-1.1,1.01-1.13.06,0,.12,0,.19,0h4.24l-.08-.12Z"/><path class="cls-82" d="m283.1,349.54v3.84h-4c-.96,0-1.36-.4-1.36-1.36v-1.12c-.08-.63.36-1.2.99-1.28.1-.01.19-.01.29,0h4.16l-.08-.08Z"/><path class="cls-1" d="m304.86,324.98v-3.76h4.16c.64-.02,1.18.48,1.2,1.12,0,0,0,0,0,0v1.52c.03.59-.42,1.1-1.01,1.13-.06,0-.12,0-.19,0h-4.16Z"/><path class="cls-1" d="m304.86,353.3v-3.76h4.16c.64-.02,1.18.48,1.2,1.12,0,0,0,0,0,0v1.52c.03.59-.42,1.1-1.01,1.13-.06,0-.12,0-.19,0h-4.16Z"/><path class="cls-51" d="m296.14,351.86h-6.96c-.51.02-.94-.38-.96-.89,0-.02,0-.04,0-.07v-27.28c-.02-.51.38-.94.89-.96.02,0,.04,0,.07,0h6.96c.5.22.79.74.72,1.28v26.64c.07.54-.22,1.06-.72,1.28Zm-1.52-18.16c-.8.16-1.6.24-2.4.4s-.8.16-.8.96c0,.32.16.4.4.4h4.32c.32,0,.4-.08.4-.4s-.08-.4-.4-.4h-2.8c.88-.24,1.84-.4,2.72-.56.24,0,.48,0,.48-.4.03-.23-.13-.45-.36-.48-.04,0-.08,0-.12,0h-.4c-.8-.16-1.6-.24-2.4-.4h2.88c.32,0,.4-.16.4-.4s-.08-.4-.4-.4h-3.92c-1.28,0-.88,0-.8.88,0,.24.08.32.32.32.59.07,1.18.17,1.76.32.39-.03.78.05,1.12.24v-.08Zm-.64,8.96h2.16c.4,0,.4-.24.4-.56s0-.56-.4-.48h-1.68c-.08,0-.24,0-.24-.08s.16-.08.24-.16l1.76-.48c.32,0,.4-.48.32-.8s-.32-.24-.56-.16c-.55.15-1.08.34-1.6.56-.24,0-.32,0-.48-.16-.32-.48-.88-.48-1.44-.48s-.8.4-.96.88,0,.88-.08,1.36c0,.32.08.48.48.48h2.08v.08Zm-2.56-4.88c0,.32,0,.48.4.56,1.36.24,2.72.56,4.08.88.64.16.72,0,.64-.56,0-.24,0-.4-.32-.4-.22.01-.43-.01-.64-.08-.08,0-.16,0-.16-.16-.08-.4,0-.56.4-.64.14.01.28-.02.4-.08.24,0,.4-.4.24-.8,0-.32-.24-.24-.48-.16-1.44.32-2.8.64-4.24.88-.32,0-.48.16-.4.56h.08,0Z"/><path class="cls-56" d="m296.14,351.86c.5-.22.79-.74.72-1.28v-26.64c.07-.54-.22-1.06-.72-1.28h2.72c.46,0,.84.34.88.8v27.6c-.06.44-.43.78-.88.8h-2.72Z"/><path class="cls-43" d="m294.54,333.7c-.32-.24-.72-.16-1.12-.24-.58-.15-1.17-.25-1.76-.32-.16.01-.31-.11-.32-.27,0-.02,0-.03,0-.05q0-.88.8-.88h3.92c.32,0,.4.08.4.4s0,.4-.4.4h-2.88c.8.16,1.6.24,2.4.4h.4c.23-.03.45.13.48.36,0,.04,0,.08,0,.12,0,.4-.24.4-.48.4-.88.16-1.84.32-2.72.56h2.8c.32,0,.4.08.4.4s-.08.4-.4.4h-4.32c-.32,0-.4,0-.4-.4,0-.8,0-.88.8-.96s1.52-.24,2.4-.4v.08Z"/><path class="cls-80" d="m293.98,342.7h-2.08c-.23.03-.45-.13-.48-.36,0-.04,0-.08,0-.12-.01-.45.01-.91.08-1.36.09-.47.48-.83.96-.88.56,0,1.12,0,1.44.48.16.24.24.24.48.16.55-.15,1.08-.34,1.6-.56.24,0,.4-.16.56.16.15.26.07.59-.19.75-.04.02-.08.04-.13.05l-1.76.48c-.08,0-.24,0-.24.16s.16.08.24.08h1.68c.4,0,.4.24.4.48s0,.56-.4.56h-2.16v-.08Zm-1.12-1.04h.32c.16,0,.32.08.4-.16s0-.4-.24-.48c-.29-.08-.59-.08-.88,0-.24.08-.24.24-.24.48s.16.16.32.16h.32Z"/><path class="cls-43" d="m291.42,337.78c0-.32.08-.48.4-.56,1.44-.32,2.8-.64,4.24-.88.16,0,.4-.08.48.16.08.4,0,.72-.24.8-.14-.01-.28.02-.4.08-.4,0-.48.24-.4.64,0,.09.07.15.16.16.24,0,.4.08.64.08s.32.16.32.4c0,.64,0,.72-.64.56-1.36-.32-2.72-.56-4.08-.88-.23.01-.42-.16-.43-.39,0-.06,0-.12.03-.17h-.08Zm1.68,0h0c.51.04,1.02.12,1.52.24q.24,0,.24-.24c0-.24,0-.32-.16-.24l-1.52.24h-.08Z"/><path class="cls-20" d="m292.86,341.62h-.4c-.16,0-.32,0-.32-.16s0-.4.24-.48c.29-.08.59-.08.88,0,.24,0,.32.24.24.48s-.24.08-.4.16h-.24Z"/><path class="cls-63" d="m293.1,337.78c.51-.04,1.02-.12,1.52-.24.24,0,.16.16.16.24s0,.24-.24.24l-1.52-.24h.08Z"/><path d="m267.66,324.98l-.24.88,2.72.64-.48,1.84-8.16-2,.8-3.28c.4-1.55,1.97-2.48,3.51-2.08,0,0,0,0,0,0,1.02.24,1.8,1.05,2,2.08l3.44-1.04-.48,2-3.04.88-.08.08Zm-1.84.48l.32-1.36c.1-.55-.25-1.08-.8-1.2-.53-.16-1.09.12-1.28.64l-.32,1.36,2.08.48v.08Z"/><path d="m269.1,313.78l5.2,2.96-.88,1.6-.48-.24c.23.64.14,1.36-.24,1.92-1.07,1.41-3.08,1.68-4.48.61-1.14-.87-1.57-2.39-1.04-3.73.32-.6.87-1.03,1.52-1.2l-.48-.24.88-1.6v-.08Zm1.76,3.04c-.63-.42-1.49-.24-1.91.39-.04.05-.07.11-.09.17-.41.66-.21,1.53.45,1.94.04.02.07.04.11.06.63.42,1.49.24,1.91-.39.04-.05.07-.11.09-.17.41-.66.21-1.53-.45-1.94-.04-.02-.07-.04-.11-.06h0Z"/><path d="m278.94,307.3l2.4,2.8-1.36,1.2-2.32-2.64c-.4-.48-.88-.56-1.28-.16-.4.34-.44.95-.1,1.34.03.03.06.07.1.1l2.24,2.56-1.36,1.2-2.32-2.64c-.4-.48-.88-.56-1.28-.16-.4.34-.44.95-.1,1.34.03.03.06.07.1.1l2.24,2.56-1.36,1.2-4-4.48,1.36-1.2.4.4c0-.61.27-1.19.72-1.6.44-.45,1.07-.63,1.68-.48-.02-.68.28-1.33.8-1.76.92-.85,2.36-.79,3.21.14.05.06.1.12.15.18h.08Z"/><path d="m290.06,307.54l-.96-.56c-.51.58-1.18,1-1.92,1.2-1.68.48-3.12-.16-3.52-1.68-.24-.93,0-1.92.64-2.64-.35-.31-.58-.74-.64-1.2-.4-1.36.4-2.64,2-3.04,1.16-.36,2.41.06,3.12,1.04l-1.36,1.36c-.26-.45-.76-.7-1.28-.64-.48.16-.72.48-.56.88s.48.64.96.96l1.92,1.28v-1.36l1.76.48c.01.65-.1,1.3-.32,1.92l1.36.88-1.2,1.2v-.08Zm-2.4-1.52l-1.92-1.2h-.08c-.21.27-.27.63-.16.96.16.56.64.88,1.44.64.29-.08.56-.22.8-.4h-.08Z"/><path d="m294.46,304.98l1.76-.72c.14.78.81,1.35,1.6,1.36.88.16,1.2-.16,1.2-.48,0-.48-.4-.8-1.6-1.28s-2.32-1.28-2.08-2.88c.25-1.45,1.62-2.42,3.07-2.17.02,0,.04,0,.05,0,1.32.13,2.43,1.05,2.8,2.32l-1.76.72c-.15-.62-.65-1.09-1.28-1.2-.56-.08-.96.16-.96.48s.08.64,1.36,1.28,2.56,1.2,2.32,2.96c-.24,1.6-1.68,2.4-3.44,2.08-1.47-.07-2.72-1.12-3.04-2.56v.08Z"/><path d="m304.54,304.74l-.72,2c-.16.48.24.72.96.88l-.56,1.52c-2.32-.56-2.72-1.52-2.08-3.04l.72-2-.88-.32.64-1.6.88.32.4-1.04h1.84c0,.08-.56,1.68-.56,1.68l1.12.4-.64,1.6-1.12-.4Z"/><path d="m305.98,306.7c.95-1.49,2.92-1.93,4.42-.99,1.49.95,1.93,2.92.99,4.42-.95,1.49-2.92,1.93-4.42.99,0,0-.02-.01-.03-.02-1.47-.91-1.93-2.85-1.01-4.32.02-.03.03-.06.05-.08Zm3.84,2.48c.43-.59.3-1.41-.29-1.84-.04-.03-.08-.05-.11-.08-.64-.4-1.48-.21-1.89.43-.01.02-.02.04-.03.05-.43.59-.3,1.41.29,1.84.04.03.08.05.11.08.64.39,1.49.19,1.88-.45.01-.02.03-.04.04-.07v.04Z"/><path d="m316.94,311.3l-1.44,1.44c-.38-.69-1.24-.93-1.92-.56-.12.06-.22.14-.32.24l-1.92,1.92-1.28-1.24,4.24-4.24,1.28,1.28-.72.72c.71-.35,1.57-.17,2.08.44Z"/><path d="m321.18,317.78l-5.04,3.2-.96-1.52.48-.32c-.66-.15-1.23-.55-1.6-1.12-.82-1.42-.34-3.23,1.08-4.06.01,0,.03-.02.04-.02,1.38-.94,3.25-.62,4.24.72.36.57.48,1.26.32,1.92l.48-.32.96,1.52Zm-3.52.08c.67-.36.92-1.21.56-1.88-.02-.04-.05-.08-.08-.12-.37-.65-1.2-.87-1.84-.5-.05.03-.11.07-.16.1-.67.36-.92,1.21-.56,1.88.02.04.05.08.08.12.34.65,1.15.91,1.8.57.07-.04.14-.08.2-.13v-.04Z"/><path d="m323.9,325.94l-5.44,1.6c-1.92.56-3.2-.72-3.6-2.24-.38-1.08-.13-2.28.64-3.12l1.28,1.2c-.41.39-.54,1-.32,1.52.1.66.71,1.12,1.37,1.02.08-.01.15-.03.23-.06l.56-.16c-.61-.25-1.06-.79-1.2-1.44-.42-1.59.5-3.22,2.08-3.68,1.54-.51,3.21.33,3.72,1.87.01.04.03.09.04.13.21.64.12,1.35-.24,1.92l.56-.16.48,1.68-.16-.08Zm-3.28-.88c.73-.17,1.17-.9,1-1.63-.01-.04-.02-.09-.04-.13-.21-.77-.99-1.23-1.76-1.04-.73.17-1.17.9-1,1.63.01.04.02.09.04.13.19.78.98,1.27,1.76,1.08v-.04Z"/><path d="m319.66,331.38c-.03.43.15.84.48,1.12l-.8,1.44c-.85-.6-1.33-1.6-1.28-2.64-.32-1.74.83-3.41,2.57-3.73s3.41.83,3.73,2.57c.06.33.07.66.03,1,.02,1.66-1.31,3.02-2.97,3.04-.05,0-.1,0-.15,0h-.72v-4.24c-.58.23-.94.82-.88,1.44Zm2.16,1.12c.6-.12,1.01-.67.96-1.28.07-.61-.35-1.17-.96-1.28v2.56Z"/><circle class="cls-4" cx="72.45" cy="104.56" r="36"/><path class="cls-38" d="m52.61,97.6v-5.92c0-.24,0-.32.32-.32h8.88v1.76q0,.64.64.64h19.92c.4,0,.48-.16.48-.48v-1.92h9.04c.08.16.16.32.16.48v5.44c0,.32-.16.48-.48.48h-1.12c-.88,0-1.52.8-1.44,1.68,0,.8.72,1.44,1.52,1.44h1.12q.48,0,.48.56v19.44c0,.48,0,.56-.56.56h-1.12c-.88,0-1.52.8-1.52,1.6,0,.88.72,1.52,1.52,1.52h1.12c.48,0,.56,0,.56.56v5.28c0,.16,0,.4-.16.48h-9.04v-1.92c0-.32-.16-.48-.48-.48h-20.16c-.4,0-.48.16-.48.48v1.92h-8.88c-.24,0-.32,0-.32-.32v-6.08h1.6c.88,0,1.52-.72,1.52-1.52,0-.88-.64-1.6-1.52-1.6h-1.12c-.16,0-.4,0-.48-.16v-20.24c.16-.08.32-.16.48-.16h1.12c.88,0,1.52-.8,1.52-1.68,0-.8-.64-1.44-1.44-1.52h-1.12c-.16,0-.4,0-.48-.16l-.08.16Zm32.48,15.44h1.44c.48,0,.64-.24.64-.56s-.24-.56-.64-.56h-1.44v-1.36h1.44c.48,0,.72-.24.72-.56s-.24-.56-.72-.56h-1.44v-1.36h1.44c.4,0,.64-.24.64-.56s-.24-.56-.64-.56h-1.44v-1.36h1.44c.48,0,.64-.24.64-.56s-.24-.56-.64-.56h-1.44v-1.36h1.44c.48,0,.64-.24.64-.56s-.24-.56-.64-.56h-1.44v-1.36h1.44c.48,0,.72-.24.72-.56s-.24-.56-.72-.56h-1.44c0-1.04,0-.96-.96-.96v-1.44c0-.48-.24-.64-.56-.64s-.56.24-.56.64v1.44h-1.36v-1.44c0-.48-.24-.72-.56-.72s-.56.24-.56.72v1.44h-1.36v-1.44c0-.48-.24-.72-.56-.72s-.56.24-.56.72v1.44h-1.36v-1.44c0-.48-.24-.72-.56-.72s-.56.24-.56.72v1.44h-1.36v-1.44c0-.48-.24-.72-.56-.72s-.56.24-.56.64v1.44h-1.36v-1.44c0-.48-.24-.72-.56-.72s-.56.24-.56.72v1.44h-1.36v-1.44c0-.48-.24-.72-.56-.72s-.56.24-.56.72v1.44h-1.36v-1.44c0-.48-.24-.72-.56-.72s-.56.24-.56.72v1.44h-1.36v-1.44c0-.48-.24-.72-.56-.72s-.56.24-.56.72v1.44h-1.36v-1.44c0-.48-.24-.72-.56-.72s-.56.24-.56.72v1.44c-.96,0-.88,0-.88.96h-1.44c-.48,0-.72.24-.64.56s.24.56.64.56h1.44v1.36h-1.44c-.48,0-.72.24-.72.56s.24.56.72.56h1.44v1.36h-1.44c-.48,0-.72.24-.72.56s.24.56.72.56h1.44v1.36h-1.52c-.4,0-.72.24-.72.56s.24.56.72.56h1.52v1.36h-1.44c-.48,0-.64.24-.64.56s.24.56.64.56h1.44v1.36h-1.44c-.48,0-.72.24-.72.56s.24.56.72.56h1.44v1.36h-1.44c-.48,0-.72.24-.72.56s.24.56.72.56h1.44v1.36h-1.44c-.48,0-.64.24-.64.56s.24.56.64.56h1.44v1.36h-1.44c-.48,0-.64.24-.64.56s.24.56.64.56h1.44v1.36h-1.44c-.48,0-.72.24-.72.56s.24.56.72.56h1.44c0,.96,0,.88.96.96v1.44c0,.48.24.64.56.64s.56-.24.56-.64v-1.44h1.36v1.44c0,.48.24.72.56.72s.56-.24.56-.72v-1.44h1.36v1.44c0,.48.24.72.56.72s.56-.24.56-.72v-1.44h1.36v1.44c0,.48.24.64.56.64s.56-.24.56-.64v-1.44h1.36v1.44c0,.48.24.64.56.64s.56-.24.56-.64v-1.44h1.36v1.44c0,.48.24.72.56.72s.56-.24.56-.72v-1.44h1.36v1.44c0,.48.24.64.56.64s.56-.24.56-.64v-1.44h1.36v1.44c0,.48.24.64.56.64s.56-.24.56-.64v-1.44h1.36v1.44c0,.48.24.64.56.64s.56-.24.56-.64v-1.44h1.36v1.44c0,.48.24.72.56.72s.56-.24.56-.72v-1.44c1.04,0,.88,0,.96-.96h1.44c.48,0,.64-.24.64-.56s-.24-.56-.64-.56h-1.44v-1.36h1.44c.48,0,.72-.24.72-.56s-.24-.56-.72-.56h-1.44v-1.36h1.44c.48,0,.72-.24.72-.56s-.24-.56-.72-.56h-1.44v-1.36h1.44c.48,0,.64-.24.64-.56s-.24-.56-.64-.56h-1.44v-1.36l-.08.08Zm-29.28-17.36c.64,0,1.2-.56,1.2-1.2h0c0-.64-.56-1.2-1.2-1.2s-1.12.64-1.12,1.28c0,.56.48,1.04,1.12,1.12h0Zm34.16-1.2c0-.64-.56-1.2-1.2-1.2s-1.2.56-1.2,1.2.56,1.2,1.2,1.2,1.2-.48,1.2-1.12h0v-.08Zm-35.28,33.52c0,.64.56,1.2,1.2,1.2s1.2-.56,1.2-1.2h0c0-.64-.56-1.2-1.2-1.2h0c-.64,0-1.2.56-1.2,1.2h0Zm35.28,0c0-.64-.56-1.2-1.2-1.2h0c-.64,0-1.2.56-1.2,1.2s.56,1.2,1.2,1.2,1.2-.56,1.2-1.2Z"/><path class="cls-25" d="m80.45,93.76h-18q-.64,0-.64-.64v-1.76h18.72v2.4h-.08Z"/><path class="cls-25" d="m61.73,130.96v-1.92c0-.32.16-.48.48-.48h18.16v2.4h-18.72.08Z"/><path class="cls-35" d="m80.45,93.76v-2.4h2.4v1.92c0,.32-.16.48-.48.48h-1.92Z"/><path class="cls-35" d="m80.53,130.96v-2.4h1.92c.32,0,.48.16.48.48v1.92h-2.4Z"/><path class="cls-21" d="m63.01,123.92h-2.48c-.96,0-.88,0-.96-.96v-23.6c0-.96,0-.88.96-.96h22.08v2.56c-.08-.08-.24-.16-.4-.16h-19.6q-.64,0-.64.64v19.36q0,.64.64.64h19.6c.16,0,.32,0,.4-.16v2.56h-19.6v.08Z"/><path class="cls-37" d="m82.61,100.96v-2.56h1.52c1.04,0,.88,0,.96.96v23.6c0,1.04,0,.88-.96.96h-1.44v-22.96h-.08Z"/><path class="cls-32" d="m55.81,95.68c-.64,0-1.12-.64-1.12-1.28,0-.56.48-1.04,1.12-1.12.64,0,1.2.56,1.2,1.2s-.56,1.2-1.2,1.2h0Z"/><path class="cls-32" d="m89.97,94.48c0,.64-.48,1.2-1.2,1.2h0c-.64,0-1.2-.56-1.2-1.2s.56-1.2,1.2-1.2,1.2.56,1.2,1.2Z"/><path class="cls-58" d="m54.69,128c0-.64.48-1.2,1.12-1.2h0c.64,0,1.2.56,1.2,1.2h0c0,.64-.56,1.2-1.2,1.2s-1.2-.56-1.2-1.2h.08Z"/><path class="cls-58" d="m89.97,127.92c0,.64-.48,1.2-1.2,1.2h0c-.64,0-1.2-.56-1.2-1.2s.56-1.2,1.2-1.2,1.2.48,1.2,1.2h0Z"/><path class="cls-70" d="m64.21,98.4h-1.12v-1.44c0-.48.24-.72.56-.72s.56.24.56.72v1.44Z"/><path class="cls-79" d="m85.09,110.48v-1.2h1.44c.48,0,.72.24.72.56s-.24.56-.72.56h-1.44v.08Z"/><path class="cls-79" d="m71.65,98.4h-1.12v-1.44c0-.48.24-.72.56-.72s.56.24.56.72v1.44Z"/><path class="cls-79" d="m74.13,98.4h-1.12v-1.44c0-.48.24-.72.56-.72s.56.24.56.72v1.44Z"/><path class="cls-79" d="m59.65,109.36v1.2h-1.44c-.48,0-.72-.24-.64-.56s.24-.56.64-.56h1.44v-.08Z"/><path class="cls-70" d="m85.09,120.48v-1.2h1.44c.48,0,.72.24.72.56s-.24.56-.72.56h-1.44v.08Z"/><path class="cls-79" d="m85.09,112.96v-1.2h1.44c.48,0,.64.24.64.56s-.24.56-.64.56h-1.44v.08Z"/><path class="cls-70" d="m59.65,119.28v1.2h-1.44c-.48,0-.64-.24-.64-.56s.24-.56.64-.56h1.44v-.08Z"/><path class="cls-70" d="m59.65,101.84v1.2h-1.44c-.48,0-.72-.24-.72-.56s.24-.56.72-.56h1.44v-.08Z"/><path class="cls-70" d="m85.09,103.04v-1.2h1.44c.48,0,.64.24.64.56s-.24.56-.64.56h-1.44v.08Z"/><path class="cls-79" d="m59.65,111.84v1.12h-1.44c-.48,0-.72-.24-.72-.56s.24-.56.72-.56h1.44Z"/><path class="cls-70" d="m63.01,123.92h1.12v1.44c0,.48-.24.72-.56.72s-.56-.24-.56-.72v-1.44Z"/><path class="cls-79" d="m70.53,123.92h1.12v1.44c0,.48-.24.64-.56.64s-.56-.24-.56-.64v-1.44Z"/><path class="cls-79" d="m73.01,123.92h1.12v1.44c0,.48-.24.72-.56.72s-.56-.24-.56-.72v-1.44Z"/><path class="cls-70" d="m80.45,123.92h1.12v1.44c0,.48-.24.64-.56.64s-.56-.24-.56-.64v-1.44Z"/><path class="cls-70" d="m81.57,98.4h-1.12v-1.44c0-.48.24-.72.56-.72s.56.24.56.72v1.44Z"/><path class="cls-78" d="m59.65,106.88v1.12h-1.52c-.4,0-.72-.24-.72-.56s.24-.56.72-.56h1.52Z"/><path class="cls-78" d="m85.09,108v-1.12h1.44c.48,0,.64.24.64.56s-.24.56-.64.56h-1.44Z"/><path class="cls-78" d="m75.49,123.92h1.12v1.44c0,.48-.24.64-.56.64s-.56-.24-.56-.64v-1.44Z"/><path class="cls-78" d="m59.65,114.32v1.2h-1.44c-.48,0-.72-.24-.72-.56s.24-.56.72-.56h1.44v-.08Z"/><path class="cls-78" d="m85.09,115.52v-1.2h1.44c.48,0,.64.24.64.56s-.24.56-.64.56h-1.44v.08Z"/><path class="cls-78" d="m69.17,98.4h-1.12v-1.44c0-.48.24-.72.56-.72s.56.24.56.72v1.44Z"/><path class="cls-78" d="m76.61,98.4h-1.12v-1.44c0-.48.24-.72.56-.72s.56.24.56.72v1.44Z"/><path class="cls-78" d="m67.97,123.92h1.12v1.44c0,.48-.24.64-.56.64s-.56-.24-.56-.64v-1.44Z"/><path class="cls-67" d="m59.65,121.84v1.12h-1.44c-.48,0-.72-.24-.72-.56s.24-.56.72-.56.96,0,1.44,0Z"/><path class="cls-67" d="m85.09,122.96v-1.2h1.44c.48,0,.64.24.64.56s-.24.56-.64.56h-1.44v.08Z"/><path class="cls-67" d="m85.09,100.56v-1.2h1.44c.48,0,.72.24.72.56s-.24.56-.72.56h-1.44v.08Z"/><path class="cls-78" d="m65.57,123.92h1.12v1.44c0,.48-.24.72-.56.72s-.56-.24-.56-.72v-1.44Z"/><path class="cls-78" d="m85.09,105.52v-1.12h1.44c.4,0,.64.24.64.56s-.24.56-.64.56h-1.44Z"/><path class="cls-78" d="m59.65,104.32v1.12h-1.44c-.48,0-.72-.24-.72-.56s.24-.56.72-.56h1.44Z"/><path class="cls-78" d="m59.65,116.8v1.2h-1.44c-.48,0-.64-.24-.64-.56s.24-.56.64-.56h1.44v-.08Z"/><path class="cls-78" d="m85.09,118v-1.2h1.44c.48,0,.72.24.72.56s-.24.56-.72.56h-1.44v.08Z"/><path class="cls-67" d="m60.53,123.92h1.12v1.44c0,.48-.24.64-.56.64s-.56-.24-.56-.64v-1.44Z"/><path class="cls-67" d="m59.65,99.36v1.2h-1.52c-.4,0-.64-.24-.64-.56s.24-.56.64-.56h1.52v-.08Z"/><path class="cls-67" d="m84.13,98.4h-1.2v-1.44c0-.48.24-.64.56-.64s.56.24.56.64v1.44h.08Z"/><path class="cls-67" d="m82.93,123.92h1.2v1.44c0,.48-.24.72-.56.72s-.56-.24-.56-.72v-1.44h-.08Z"/><path class="cls-78" d="m79.09,98.4h-1.12v-1.44c0-.48.24-.72.56-.72s.56.24.56.72v1.44Z"/><path class="cls-78" d="m66.69,98.4h-1.12v-1.44c0-.48.24-.72.56-.72s.56.24.56.72v1.44Z"/><path class="cls-67" d="m61.65,98.4h-1.12v-1.44c0-.48.24-.72.56-.72s.56.24.56.72v1.44Z"/><path class="cls-78" d="m77.97,123.92h1.12v1.44c0,.48-.24.64-.56.64s-.56-.24-.56-.64v-1.44Z"/><path class="cls-74" d="m80.29,121.52h-17.6q-.64,0-.64-.64v-19.36q0-.64.64-.64h17.6v20.72-.08Zm-.8-16.56h0v-1.84c0-.32-.24-.56-.56-.56h0c-.32,0-.56.24-.64.56h0v2.48c0,.64.08.48-.56.56-.32,0-.4,0-.4-.4v-2.64c0-.4-.24-.64-.56-.64s-.56.24-.64.56v3.52c0,.48.24.64.72.64h1.84c.48,0,.72-.24.72-.72v-1.68l.08.16Zm-6.8,0v1.76c0,.4.24.64.56.72s.56-.24.56-.64v-.88q0-.24.24-.24h1.12c.32,0,.64-.16.72-.56v-1.76c0-.56-.24-.72-.72-.72h-1.68c-.56,0-.8.16-.8.8v1.6h0v-.08Zm-3.52,0v1.76c0,.32.16.64.48.64h2c.4,0,.72-.24.72-.56s-.24-.64-.72-.64h-1.12c-.16,0-.24,0-.24-.24v-2c0-.16,0-.24.24-.24h1.12c.4,0,.64-.24.64-.64s-.24-.56-.64-.56h-1.92c-.32,0-.64.16-.64.48v1.84h0l.08.16Zm-4.48,15.52h1.04c.16,0,.32,0,.4-.16,0-.16,0-.32-.16-.4l-2.16-2c-.08-.16-.24-.16-.4-.08-.16,0-.16.16-.16.32v2c0,.16.08.32.32.4h1.12v-.08Z"/><path class="cls-8" d="m80.29,121.52v-20.64h2c.16,0,.32,0,.4.16v20.32c-.08.08-.24.16-.4.16h-2Z"/><path class="cls-64" d="m79.49,104.88v1.68c0,.56-.24.72-.72.72h-1.84c-.48,0-.72-.24-.72-.64v-3.44c0-.32.16-.64.48-.64h.08c.32,0,.56.24.56.64v2.64c0,.32.08.4.4.4.64,0,.56,0,.56-.56v-2.48c0-.32.24-.56.56-.56h0c.32,0,.56.24.56.56h0v1.84h0l.08-.16Z"/><path class="cls-64" d="m72.69,104.88v-1.6c0-.56.24-.72.8-.8h1.76c.48,0,.72.24.72.72v1.6c0,.32-.16.64-.56.72h-1.28q-.24,0-.24.24v.88c0,.4-.24.64-.56.64s-.56-.24-.56-.72v-1.76l-.08.08Zm1.6-.48c.24,0,.48.08.48-.32s-.16-.4-.48-.32-.48-.08-.48.32.16.4.48.32h0Z"/><path class="cls-64" d="m69.17,104.88v-1.68c0-.32.16-.64.48-.64h2.08c.4,0,.64.24.64.56s-.24.56-.64.64-.8,0-1.12,0-.24,0-.24.24v2c0,.16,0,.24.24.24h1.12c.4,0,.72.24.72.64s-.24.56-.72.56h-1.84c-.32,0-.64-.16-.64-.48v-1.92l-.08-.16Z"/><path class="cls-83" d="m64.69,120.4h-1.12c-.16,0-.32-.08-.4-.32h0v-2c0-.16,0-.32.16-.32s.32,0,.4.08l2.16,2c.16.08.16.24.16.4s-.24.16-.4.16h-1.04.08Z"/><path class="cls-70" d="m74.29,104.32c-.24,0-.48,0-.48-.32s.24-.32.48-.32.48,0,.48.32-.24.32-.48.32Z"/><path d="m58.13,81.52c-.96-3.12.72-6.32,3.92-7.28,1.92-.56,3.92-.16,5.36,1.12l-1.76,1.84c-.72-.72-1.76-.88-2.88-.56-1.92.56-2.72,2.24-2.16,4.16.56,1.92,2.16,2.8,4.08,2.24,1.12-.32,1.84-1.12,2.08-2.08l2.48.56c-.48,1.76-1.92,3.28-3.84,3.84-3.2.96-6.32-.72-7.28-3.92v.08Z"/><path d="m79.01,77.6c-.16,2.08-2.08,3.68-4.24,3.44l-1.68-.16-.32,3.52-2.56-.24,1.04-11.12,4.24.4c2.16.24,3.76,2.08,3.52,4.16Zm-2.56-.24c0-.8-.4-1.52-1.2-1.6l-1.68-.16-.24,2.88,1.68.16c.8,0,1.44-.48,1.52-1.28h-.08Z"/><path d="m80.21,81.76l3.36-6.8,2.32,1.12-3.28,6.56c-.4.72-.32,1.6.88,2.16,1.2.64,1.92.16,2.24-.64l3.28-6.56,2.32,1.12-3.36,6.8c-1.04,2.16-3.36,2.64-5.6,1.52-2.24-1.12-3.2-3.2-2.16-5.36v.08Z"/><line class="cls-5" x1="197.68" y1="266.97" x2="197.68" y2="298.2"/><polygon class="cls-75" points="190.2 296.01 197.68 308.97 205.16 296.01 190.2 296.01"/><line class="cls-7" x1="162.71" y1="256.94" x2="140.45" y2="292.55"/><line class="cls-5" x1="162.71" y1="256.94" x2="146.15" y2="283.43"/><polygon class="cls-75" points="140.97 277.61 140.45 292.55 153.66 285.53 140.97 277.61"/><line class="cls-7" x1="138.36" y1="229.9" x2="100.61" y2="248.31"/><line class="cls-5" x1="138.36" y1="229.9" x2="110.29" y2="243.59"/><polygon class="cls-75" points="108.97 235.91 100.61 248.31 115.53 249.35 108.97 235.91"/><line class="cls-7" x1="132.04" y1="194.07" x2="90.27" y2="189.68"/><line class="cls-5" x1="132.04" y1="194.07" x2="100.98" y2="190.8"/><polygon class="cls-75" points="103.94 183.59 90.27 189.68 102.37 198.47 103.94 183.59"/><line class="cls-7" x1="145.67" y1="160.33" x2="112.58" y2="134.47"/><line class="cls-5" x1="145.67" y1="160.33" x2="121.06" y2="141.1"/><polygon class="cls-75" points="127.39 136.55 112.58 134.47 118.18 148.34 127.39 136.55"/><line class="cls-7" x1="175.11" y1="138.95" x2="160.74" y2="99.48"/><line class="cls-5" x1="175.11" y1="138.95" x2="164.42" y2="109.59"/><polygon class="cls-75" points="172.2 109.09 160.74 99.48 158.14 114.21 172.2 109.09"/><line class="cls-7" x1="211.4" y1="136.41" x2="220.14" y2="95.33"/><line class="cls-5" x1="211.4" y1="136.41" x2="217.9" y2="105.85"/><polygon class="cls-75" points="224.76 109.55 220.14 95.33 210.13 106.44 224.76 109.55"/><line class="cls-7" x1="243.53" y1="153.49" x2="272.7" y2="123.28"/><line class="cls-5" x1="243.53" y1="153.49" x2="265.23" y2="131.02"/><polygon class="cls-75" points="269.09 137.79 272.7 123.28 258.33 127.4 269.09 137.79"/><line class="cls-7" x1="261.72" y1="185" x2="302.47" y2="174.84"/><line class="cls-5" x1="261.72" y1="185" x2="292.03" y2="177.44"/><polygon class="cls-75" points="291.71 185.23 302.47 174.84 288.1 170.71 291.71 185.23"/><line class="cls-7" x1="260.45" y1="221.36" x2="300.39" y2="234.34"/><line class="cls-5" x1="260.45" y1="221.36" x2="290.16" y2="231.01"/><polygon class="cls-75" points="285.77 237.45 300.39 234.34 290.39 223.22 285.77 237.45"/><line class="cls-7" x1="240.11" y1="251.52" x2="267.1" y2="283.7"/><line class="cls-5" x1="240.11" y1="251.52" x2="260.18" y2="275.45"/><polygon class="cls-75" points="253.05 278.58 267.1 283.7 264.51 268.97 253.05 278.58"/><path class="cls-71" d="m65.18,181.76c.5,0,.99.02,1.49.02.84,0,1.54.69,1.55,1.54,0,.78,0,1.56,0,2.33,0,6.58,0,13.16,0,19.75,0,.43-.02.86-.15,1.28-.15.49-.75.93-1.27.93-5.57,0-11.15,0-16.72,0-.03,0-.05,0-.08,0,0-1.51,0-3.03,0-4.54,1.16,0,2.32,0,3.48-.01.15,0,.32.04.32-.21,0-.57.05-1.16-.08-1.71-.36-1.48-.79-2.95-1.17-4.43-.1-.4-.22-.79-.36-1.18-.22-.61.19-.92.56-1.25.6-.55.85-1.24.99-2.03.3-1.66-1.1-3.65-2.68-4.16-.05-.09-.12-.13-.22-.08-.08-.02-.16-.04-.24-.05-.04-.05-.08-.07-.14-.03-.15-.02-.31-.04-.46-.07,0-2.01,0-4.03,0-6.04,2.86,0,5.71,0,8.57-.02.18,0,.36-.01.53-.02,1.02.03,2.04.05,3.07,0,1,.06,2,.04,3.01,0Z"/><path class="cls-28" d="m50,203.05c0,1.51,0,3.03,0,4.54-.57,0-1.15.01-1.72.01-4.86,0-9.72-.02-14.58.02-1.28.01-1.94-.69-1.94-1.94.04-7.44.03-14.88,0-22.32,0-.89.72-1.6,1.57-1.59.5,0,.99-.01,1.49-.02,1,.03,2,.05,3-.01,1.02.06,2.04.03,3.06.01.17,0,.33.02.5.02,2.87,0,5.74,0,8.61.01,0,2.01,0,4.03,0,6.04-.32.15-.68.08-1.02.21-1.42.55-2.36,1.51-2.7,3.02-.06.03-.11.07-.03.14-.11,1.25.02,2.39,1.14,3.22.35.26.49.65.35,1.14-.09.3-.2.59-.27.9-.2.84-.42,1.66-.64,2.49-.16.61-.35,1.22-.5,1.83-.15.61-.11,1.23-.13,1.85-.01.31.07.42.4.41,1.14-.02,2.27,0,3.41,0Z"/><path class="cls-53" d="m37.83,181.75c-1,.06-2,.04-3,.01,0-2.7-.02-5.41.02-8.11.02-1.25.19-2.49.55-3.71.44-1.46,1.06-2.83,1.9-4.1,1.05-1.58,2.35-2.94,3.9-4.05,1.02-.73,2.09-1.38,3.27-1.78,1.17-.41,2.35-.81,3.61-.9.71-.05,1.41-.16,2.12-.14,1.77.03,3.47.38,5.13,1,1.65.62,3.14,1.52,4.5,2.65,1.17.97,2.13,2.12,2.94,3.4.58.9,1.03,1.86,1.42,2.87.21.55.36,1.12.55,1.68.17.51.21,1.06.27,1.6.35,3.19.08,6.39.17,9.58-1,.04-2,.05-3,0,0-2.28-.02-4.57.01-6.85.02-1.31-.15-2.6-.47-3.87-.45-1.78-1.28-3.39-2.48-4.76-1.47-1.68-3.26-2.95-5.42-3.64-1.53-.49-3.08-.64-4.69-.54-1.49.09-2.89.44-4.22,1.06-2.21,1.03-3.95,2.61-5.24,4.69-1.11,1.79-1.72,3.76-1.8,5.84-.1,2.69-.02,5.38-.02,8.08Z"/><path class="cls-14" d="m59.11,181.76c0-2.42.02-4.85,0-7.27-.01-1.29-.19-2.56-.71-3.76-.41-.95-.96-1.81-1.64-2.6-1.01-1.18-2.27-1.99-3.7-2.51-1.32-.48-2.7-.64-4.13-.46-.87.11-1.71.31-2.49.65-2.18.95-3.78,2.51-4.77,4.69-.46,1.02-.65,2.09-.7,3.2-.13,2.69-.02,5.38-.06,8.06-1.02.02-2.04.04-3.06-.01,0-2.69-.08-5.39.02-8.08.08-2.08.68-4.05,1.8-5.84,1.29-2.08,3.03-3.66,5.24-4.69,1.33-.62,2.73-.97,4.22-1.06,1.61-.09,3.16.06,4.69.54,2.16.69,3.94,1.95,5.42,3.64,1.2,1.38,2.03,2.98,2.48,4.76.32,1.27.49,2.55.47,3.87-.03,2.28-.01,4.57-.01,6.85-1.02.05-2.04.04-3.07,0Z"/><path class="cls-31" d="m50,203.05c-1.14,0-2.27-.02-3.41,0-.33,0-.41-.1-.4-.41.02-.62-.01-1.25.13-1.85.15-.62.34-1.22.5-1.83.22-.83.44-1.66.64-2.49.07-.31.18-.6.27-.9.14-.49,0-.88-.35-1.14-1.12-.83-1.25-1.97-1.14-3.22.06-.03.06-.08.03-.14.34-1.51,1.28-2.47,2.7-3.02.34-.13.7-.05,1.02-.21.15.02.31.04.46.07.03.08.07.12.14.03.08.02.16.04.24.05.04.11.14.08.22.08,1.58.51,2.98,2.5,2.68,4.16-.14.79-.4,1.48-.99,2.03-.36.33-.78.65-.56,1.25.14.39.25.78.36,1.18.38,1.48.81,2.94,1.17,4.43.13.55.09,1.14.08,1.71,0,.25-.17.21-.32.21-1.16,0-2.32,0-3.48.01Z"/><path class="cls-14" d="m51.07,188.07c-.09,0-.18.03-.22-.08.1-.05.17,0,.22.08Z"/><path class="cls-14" d="m50.6,187.94c-.07.09-.11.05-.14-.03.06-.03.1-.02.14.03Z"/><path class="cls-53" d="m46.28,191.06c.03.06.03.1-.03.14-.08-.07-.03-.1.03-.14Z"/><circle class="cls-3" cx="50.13" cy="185.6" r="39.02"/><path class="cls-71" d="m161.18,50.76c.5,0,.99.02,1.49.02.84,0,1.54.69,1.55,1.54,0,.78,0,1.56,0,2.33,0,6.58,0,13.16,0,19.75,0,.43-.02.86-.15,1.28-.15.49-.75.93-1.27.93-5.57,0-11.15,0-16.72,0-.03,0-.05,0-.08,0,0-1.51,0-3.03,0-4.54,1.16,0,2.32,0,3.48-.01.15,0,.32.04.32-.21,0-.57.05-1.16-.08-1.71-.36-1.48-.79-2.95-1.17-4.43-.1-.4-.22-.79-.36-1.18-.22-.61.19-.92.56-1.25.6-.55.85-1.24.99-2.03.3-1.66-1.1-3.65-2.68-4.16-.05-.09-.12-.13-.22-.08-.08-.02-.16-.04-.24-.05-.04-.05-.08-.07-.14-.03-.15-.02-.31-.04-.46-.07,0-2.01,0-4.03,0-6.04,2.86,0,5.71,0,8.57-.02.18,0,.36-.01.53-.02,1.02.03,2.04.05,3.07,0,1,.06,2,.04,3.01,0Z"/><path class="cls-28" d="m146,72.05c0,1.51,0,3.03,0,4.54-.57,0-1.15.01-1.72.01-4.86,0-9.72-.02-14.58.02-1.28.01-1.94-.69-1.94-1.94.04-7.44.03-14.88,0-22.32,0-.89.72-1.6,1.57-1.59.5,0,.99-.01,1.49-.02,1,.03,2,.05,3-.01,1.02.06,2.04.03,3.06.01.17,0,.33.02.5.02,2.87,0,5.74,0,8.61.01,0,2.01,0,4.03,0,6.04-.32.15-.68.08-1.02.21-1.42.55-2.36,1.51-2.7,3.02-.06.03-.11.07-.03.14-.11,1.25.02,2.39,1.14,3.22.35.26.49.65.35,1.14-.09.3-.2.59-.27.9-.2.84-.42,1.66-.64,2.49-.16.61-.35,1.22-.5,1.83-.15.61-.11,1.23-.13,1.85-.01.31.07.42.4.41,1.14-.02,2.27,0,3.41,0Z"/><path class="cls-53" d="m133.83,50.75c-1,.06-2,.04-3,.01,0-2.7-.02-5.41.02-8.11.02-1.25.19-2.49.55-3.71.44-1.46,1.06-2.83,1.9-4.1,1.05-1.58,2.35-2.94,3.9-4.05,1.02-.73,2.09-1.38,3.27-1.78,1.17-.41,2.35-.81,3.61-.9.71-.05,1.41-.16,2.12-.14,1.77.03,3.47.38,5.13,1,1.65.62,3.14,1.52,4.5,2.65,1.17.97,2.13,2.12,2.94,3.4.58.9,1.03,1.86,1.42,2.87.21.55.36,1.12.55,1.68.17.51.21,1.06.27,1.6.35,3.19.08,6.39.17,9.58-1,.04-2,.05-3,0,0-2.28-.02-4.57.01-6.85.02-1.31-.15-2.6-.47-3.87-.45-1.78-1.28-3.39-2.48-4.76-1.47-1.68-3.26-2.95-5.42-3.64-1.53-.49-3.08-.64-4.69-.54-1.49.09-2.89.44-4.22,1.06-2.21,1.03-3.95,2.61-5.24,4.69-1.11,1.79-1.72,3.76-1.8,5.84-.1,2.69-.02,5.38-.02,8.08Z"/><path class="cls-14" d="m155.11,50.76c0-2.42.02-4.85,0-7.27-.01-1.29-.19-2.56-.71-3.76-.41-.95-.96-1.81-1.64-2.6-1.01-1.18-2.27-1.99-3.7-2.51-1.32-.48-2.7-.64-4.13-.46-.87.11-1.71.31-2.49.65-2.18.95-3.78,2.51-4.77,4.69-.46,1.02-.65,2.09-.7,3.2-.13,2.69-.02,5.38-.06,8.06-1.02.02-2.04.04-3.06-.01,0-2.69-.08-5.39.02-8.08.08-2.08.68-4.05,1.8-5.84,1.29-2.08,3.03-3.66,5.24-4.69,1.33-.62,2.73-.97,4.22-1.06,1.61-.09,3.16.06,4.69.54,2.16.69,3.94,1.95,5.42,3.64,1.2,1.38,2.03,2.98,2.48,4.76.32,1.27.49,2.55.47,3.87-.03,2.28-.01,4.57-.01,6.85-1.02.05-2.04.04-3.07,0Z"/><path class="cls-31" d="m146,72.05c-1.14,0-2.27-.02-3.41,0-.33,0-.41-.1-.4-.41.02-.62-.01-1.25.13-1.85.15-.62.34-1.22.5-1.83.22-.83.44-1.66.64-2.49.07-.31.18-.6.27-.9.14-.49,0-.88-.35-1.14-1.12-.83-1.25-1.97-1.14-3.22.06-.03.06-.08.03-.14.34-1.51,1.28-2.47,2.7-3.02.34-.13.7-.05,1.02-.21.15.02.31.04.46.07.03.08.07.12.14.03.08.02.16.04.24.05.04.11.14.08.22.08,1.58.51,2.98,2.5,2.68,4.16-.14.79-.4,1.48-.99,2.03-.36.33-.78.65-.56,1.25.14.39.25.78.36,1.18.38,1.48.81,2.94,1.17,4.43.13.55.09,1.14.08,1.71,0,.25-.17.21-.32.21-1.16,0-2.32,0-3.48.01Z"/><path class="cls-14" d="m147.07,57.07c-.09,0-.18.03-.22-.08.1-.05.17,0,.22.08Z"/><path class="cls-14" d="m146.6,56.94c-.07.09-.11.05-.14-.03.06-.03.1-.02.14.03Z"/><path class="cls-53" d="m142.28,60.06c.03.06.03.1-.03.14-.08-.07-.03-.1.03-.14Z"/><circle class="cls-3" cx="146.13" cy="54.6" r="39.02"/><path class="cls-71" d="m258.18,46.76c.5,0,.99.02,1.49.02.84,0,1.54.69,1.55,1.54,0,.78,0,1.56,0,2.33,0,6.58,0,13.16,0,19.75,0,.43-.02.86-.15,1.28-.15.49-.75.93-1.27.93-5.57,0-11.15,0-16.72,0-.03,0-.05,0-.08,0,0-1.51,0-3.03,0-4.54,1.16,0,2.32,0,3.48-.01.15,0,.32.04.32-.21,0-.57.05-1.16-.08-1.71-.36-1.48-.79-2.95-1.17-4.43-.1-.4-.22-.79-.36-1.18-.22-.61.19-.92.56-1.25.6-.55.85-1.24.99-2.03.3-1.66-1.1-3.65-2.68-4.16-.05-.09-.12-.13-.22-.08-.08-.02-.16-.04-.24-.05-.04-.05-.08-.07-.14-.03-.15-.02-.31-.04-.46-.07,0-2.01,0-4.03,0-6.04,2.86,0,5.71,0,8.57-.02.18,0,.36-.01.53-.02,1.02.03,2.04.05,3.07,0,1,.06,2,.04,3.01,0Z"/><path class="cls-28" d="m243,68.05c0,1.51,0,3.03,0,4.54-.57,0-1.15.01-1.72.01-4.86,0-9.72-.02-14.58.02-1.28.01-1.94-.69-1.94-1.94.04-7.44.03-14.88,0-22.32,0-.89.72-1.6,1.57-1.59.5,0,.99-.01,1.49-.02,1,.03,2,.05,3-.01,1.02.06,2.04.03,3.06.01.17,0,.33.02.5.02,2.87,0,5.74,0,8.61.01,0,2.01,0,4.03,0,6.04-.32.15-.68.08-1.02.21-1.42.55-2.36,1.51-2.7,3.02-.06.03-.11.07-.03.14-.11,1.25.02,2.39,1.14,3.22.35.26.49.65.35,1.14-.09.3-.2.59-.27.9-.2.84-.42,1.66-.64,2.49-.16.61-.35,1.22-.5,1.83-.15.61-.11,1.23-.13,1.85-.01.31.07.42.4.41,1.14-.02,2.27,0,3.41,0Z"/><path class="cls-53" d="m230.83,46.75c-1,.06-2,.04-3,.01,0-2.7-.02-5.41.02-8.11.02-1.25.19-2.49.55-3.71.44-1.46,1.06-2.83,1.9-4.1,1.05-1.58,2.35-2.94,3.9-4.05,1.02-.73,2.09-1.38,3.27-1.78,1.17-.41,2.35-.81,3.61-.9.71-.05,1.41-.16,2.12-.14,1.77.03,3.47.38,5.13,1,1.65.62,3.14,1.52,4.5,2.65,1.17.97,2.13,2.12,2.94,3.4.58.9,1.03,1.86,1.42,2.87.21.55.36,1.12.55,1.68.17.51.21,1.06.27,1.6.35,3.19.08,6.39.17,9.58-1,.04-2,.05-3,0,0-2.28-.02-4.57.01-6.85.02-1.31-.15-2.6-.47-3.87-.45-1.78-1.28-3.39-2.48-4.76-1.47-1.68-3.26-2.95-5.42-3.64-1.53-.49-3.08-.64-4.69-.54-1.49.09-2.89.44-4.22,1.06-2.21,1.03-3.95,2.61-5.24,4.69-1.11,1.79-1.72,3.76-1.8,5.84-.1,2.69-.02,5.38-.02,8.08Z"/><path class="cls-14" d="m252.11,46.76c0-2.42.02-4.85,0-7.27-.01-1.29-.19-2.56-.71-3.76-.41-.95-.96-1.81-1.64-2.6-1.01-1.18-2.27-1.99-3.7-2.51-1.32-.48-2.7-.64-4.13-.46-.87.11-1.71.31-2.49.65-2.18.95-3.78,2.51-4.77,4.69-.46,1.02-.65,2.09-.7,3.2-.13,2.69-.02,5.38-.06,8.06-1.02.02-2.04.04-3.06-.01,0-2.69-.08-5.39.02-8.08.08-2.08.68-4.05,1.8-5.84,1.29-2.08,3.03-3.66,5.24-4.69,1.33-.62,2.73-.97,4.22-1.06,1.61-.09,3.16.06,4.69.54,2.16.69,3.94,1.95,5.42,3.64,1.2,1.38,2.03,2.98,2.48,4.76.32,1.27.49,2.55.47,3.87-.03,2.28-.01,4.57-.01,6.85-1.02.05-2.04.04-3.07,0Z"/><path class="cls-31" d="m243,68.05c-1.14,0-2.27-.02-3.41,0-.33,0-.41-.1-.4-.41.02-.62-.01-1.25.13-1.85.15-.62.34-1.22.5-1.83.22-.83.44-1.66.64-2.49.07-.31.18-.6.27-.9.14-.49,0-.88-.35-1.14-1.12-.83-1.25-1.97-1.14-3.22.06-.03.06-.08.03-.14.34-1.51,1.28-2.47,2.7-3.02.34-.13.7-.05,1.02-.21.15.02.31.04.46.07.03.08.07.12.14.03.08.02.16.04.24.05.04.11.14.08.22.08,1.58.51,2.98,2.5,2.68,4.16-.14.79-.4,1.48-.99,2.03-.36.33-.78.65-.56,1.25.14.39.25.78.36,1.18.38,1.48.81,2.94,1.17,4.43.13.55.09,1.14.08,1.71,0,.25-.17.21-.32.21-1.16,0-2.32,0-3.48.01Z"/><path class="cls-14" d="m244.07,53.07c-.09,0-.18.03-.22-.08.1-.05.17,0,.22.08Z"/><path class="cls-14" d="m243.6,52.94c-.07.09-.11.05-.14-.03.06-.03.1-.02.14.03Z"/><path class="cls-53" d="m239.28,56.06c.03.06.03.1-.03.14-.08-.07-.03-.1.03-.14Z"/><circle class="cls-3" cx="243.13" cy="50.6" r="39.02"/><path class="cls-71" d="m337.18,83.76c.5,0,.99.02,1.49.02.84,0,1.54.69,1.55,1.54,0,.78,0,1.56,0,2.33,0,6.58,0,13.16,0,19.75,0,.43-.02.86-.15,1.28-.15.49-.75.93-1.27.93-5.57,0-11.15,0-16.72,0-.03,0-.05,0-.08,0,0-1.51,0-3.03,0-4.54,1.16,0,2.32,0,3.48-.01.15,0,.32.04.32-.21,0-.57.05-1.16-.08-1.71-.36-1.48-.79-2.95-1.17-4.43-.1-.4-.22-.79-.36-1.18-.22-.61.19-.92.56-1.25.6-.55.85-1.24.99-2.03.3-1.66-1.1-3.65-2.68-4.16-.05-.09-.12-.13-.22-.08-.08-.02-.16-.04-.24-.05-.04-.05-.08-.07-.14-.03-.15-.02-.31-.04-.46-.07,0-2.01,0-4.03,0-6.04,2.86,0,5.71,0,8.57-.02.18,0,.36-.01.53-.02,1.02.03,2.04.05,3.07,0,1,.06,2,.04,3.01,0Z"/><path class="cls-28" d="m322,105.05c0,1.51,0,3.03,0,4.54-.57,0-1.15.01-1.72.01-4.86,0-9.72-.02-14.58.02-1.28.01-1.94-.69-1.94-1.94.04-7.44.03-14.88,0-22.32,0-.89.72-1.6,1.57-1.59.5,0,.99-.01,1.49-.02,1,.03,2,.05,3-.01,1.02.06,2.04.03,3.06.01.17,0,.33.02.5.02,2.87,0,5.74,0,8.61.01,0,2.01,0,4.03,0,6.04-.32.15-.68.08-1.02.21-1.42.55-2.36,1.51-2.7,3.02-.06.03-.11.07-.03.14-.11,1.25.02,2.39,1.14,3.22.35.26.49.65.35,1.14-.09.3-.2.59-.27.9-.2.84-.42,1.66-.64,2.49-.16.61-.35,1.22-.5,1.83-.15.61-.11,1.23-.13,1.85-.01.31.07.42.4.41,1.14-.02,2.27,0,3.41,0Z"/><path class="cls-53" d="m309.83,83.75c-1,.06-2,.04-3,.01,0-2.7-.02-5.41.02-8.11.02-1.25.19-2.49.55-3.71.44-1.46,1.06-2.83,1.9-4.1,1.05-1.58,2.35-2.94,3.9-4.05,1.02-.73,2.09-1.38,3.27-1.78,1.17-.41,2.35-.81,3.61-.9.71-.05,1.41-.16,2.12-.14,1.77.03,3.47.38,5.13,1,1.65.62,3.14,1.52,4.5,2.65,1.17.97,2.13,2.12,2.94,3.4.58.9,1.03,1.86,1.42,2.87.21.55.36,1.12.55,1.68.17.51.21,1.06.27,1.6.35,3.19.08,6.39.17,9.58-1,.04-2,.05-3,0,0-2.28-.02-4.57.01-6.85.02-1.31-.15-2.6-.47-3.87-.45-1.78-1.28-3.39-2.48-4.76-1.47-1.68-3.26-2.95-5.42-3.64-1.53-.49-3.08-.64-4.69-.54-1.49.09-2.89.44-4.22,1.06-2.21,1.03-3.95,2.61-5.24,4.69-1.11,1.79-1.72,3.76-1.8,5.84-.1,2.69-.02,5.38-.02,8.08Z"/><path class="cls-14" d="m331.11,83.76c0-2.42.02-4.85,0-7.27-.01-1.29-.19-2.56-.71-3.76-.41-.95-.96-1.81-1.64-2.6-1.01-1.18-2.27-1.99-3.7-2.51-1.32-.48-2.7-.64-4.13-.46-.87.11-1.71.31-2.49.65-2.18.95-3.78,2.51-4.77,4.69-.46,1.02-.65,2.09-.7,3.2-.13,2.69-.02,5.38-.06,8.06-1.02.02-2.04.04-3.06-.01,0-2.69-.08-5.39.02-8.08.08-2.08.68-4.05,1.8-5.84,1.29-2.08,3.03-3.66,5.24-4.69,1.33-.62,2.73-.97,4.22-1.06,1.61-.09,3.16.06,4.69.54,2.16.69,3.94,1.95,5.42,3.64,1.2,1.38,2.03,2.98,2.48,4.76.32,1.27.49,2.55.47,3.87-.03,2.28-.01,4.57-.01,6.85-1.02.05-2.04.04-3.07,0Z"/><path class="cls-31" d="m322,105.05c-1.14,0-2.27-.02-3.41,0-.33,0-.41-.1-.4-.41.02-.62-.01-1.25.13-1.85.15-.62.34-1.22.5-1.83.22-.83.44-1.66.64-2.49.07-.31.18-.6.27-.9.14-.49,0-.88-.35-1.14-1.12-.83-1.25-1.97-1.14-3.22.06-.03.06-.08.03-.14.34-1.51,1.28-2.47,2.7-3.02.34-.13.7-.05,1.02-.21.15.02.31.04.46.07.03.08.07.12.14.03.08.02.16.04.24.05.04.11.14.08.22.08,1.58.51,2.98,2.5,2.68,4.16-.14.79-.4,1.48-.99,2.03-.36.33-.78.65-.56,1.25.14.39.25.78.36,1.18.38,1.48.81,2.94,1.17,4.43.13.55.09,1.14.08,1.71,0,.25-.17.21-.32.21-1.16,0-2.32,0-3.48.01Z"/><path class="cls-14" d="m323.07,90.07c-.09,0-.18.03-.22-.08.1-.05.17,0,.22.08Z"/><path class="cls-14" d="m322.6,89.94c-.07.09-.11.05-.14-.03.06-.03.1-.02.14.03Z"/><path class="cls-53" d="m318.28,93.06c.03.06.03.1-.03.14-.08-.07-.03-.1.03-.14Z"/><circle class="cls-3" cx="322.13" cy="87.6" r="39.02"/><path class="cls-71" d="m365.18,165.76c.5,0,.99.02,1.49.02.84,0,1.54.69,1.55,1.54,0,.78,0,1.56,0,2.33,0,6.58,0,13.16,0,19.75,0,.43-.02.86-.15,1.28-.15.49-.75.93-1.27.93-5.57,0-11.15,0-16.72,0-.03,0-.05,0-.08,0,0-1.51,0-3.03,0-4.54,1.16,0,2.32,0,3.48-.01.15,0,.32.04.32-.21,0-.57.05-1.16-.08-1.71-.36-1.48-.79-2.95-1.17-4.43-.1-.4-.22-.79-.36-1.18-.22-.61.19-.92.56-1.25.6-.55.85-1.24.99-2.03.3-1.66-1.1-3.65-2.68-4.16-.05-.09-.12-.13-.22-.08-.08-.02-.16-.04-.24-.05-.04-.05-.08-.07-.14-.03-.15-.02-.31-.04-.46-.07,0-2.01,0-4.03,0-6.04,2.86,0,5.71,0,8.57-.02.18,0,.36-.01.53-.02,1.02.03,2.04.05,3.07,0,1,.06,2,.04,3.01,0Z"/><path class="cls-28" d="m350,187.05c0,1.51,0,3.03,0,4.54-.57,0-1.15.01-1.72.01-4.86,0-9.72-.02-14.58.02-1.28.01-1.94-.69-1.94-1.94.04-7.44.03-14.88,0-22.32,0-.89.72-1.6,1.57-1.59.5,0,.99-.01,1.49-.02,1,.03,2,.05,3-.01,1.02.06,2.04.03,3.06.01.17,0,.33.02.5.02,2.87,0,5.74,0,8.61.01,0,2.01,0,4.03,0,6.04-.32.15-.68.08-1.02.21-1.42.55-2.36,1.51-2.7,3.02-.06.03-.11.07-.03.14-.11,1.25.02,2.39,1.14,3.22.35.26.49.65.35,1.14-.09.3-.2.59-.27.9-.2.84-.42,1.66-.64,2.49-.16.61-.35,1.22-.5,1.83-.15.61-.11,1.23-.13,1.85-.01.31.07.42.4.41,1.14-.02,2.27,0,3.41,0Z"/><path class="cls-53" d="m337.83,165.75c-1,.06-2,.04-3,.01,0-2.7-.02-5.41.02-8.11.02-1.25.19-2.49.55-3.71.44-1.46,1.06-2.83,1.9-4.1,1.05-1.58,2.35-2.94,3.9-4.05,1.02-.73,2.09-1.38,3.27-1.78,1.17-.41,2.35-.81,3.61-.9.71-.05,1.41-.16,2.12-.14,1.77.03,3.47.38,5.13,1,1.65.62,3.14,1.52,4.5,2.65,1.17.97,2.13,2.12,2.94,3.4.58.9,1.03,1.86,1.42,2.87.21.55.36,1.12.55,1.68.17.51.21,1.06.27,1.6.35,3.19.08,6.39.17,9.58-1,.04-2,.05-3,0,0-2.28-.02-4.57.01-6.85.02-1.31-.15-2.6-.47-3.87-.45-1.78-1.28-3.39-2.48-4.76-1.47-1.68-3.26-2.95-5.42-3.64-1.53-.49-3.08-.64-4.69-.54-1.49.09-2.89.44-4.22,1.06-2.21,1.03-3.95,2.61-5.24,4.69-1.11,1.79-1.72,3.76-1.8,5.84-.1,2.69-.02,5.38-.02,8.08Z"/><path class="cls-14" d="m359.11,165.76c0-2.42.02-4.85,0-7.27-.01-1.29-.19-2.56-.71-3.76-.41-.95-.96-1.81-1.64-2.6-1.01-1.18-2.27-1.99-3.7-2.51-1.32-.48-2.7-.64-4.13-.46-.87.11-1.71.31-2.49.65-2.18.95-3.78,2.51-4.77,4.69-.46,1.02-.65,2.09-.7,3.2-.13,2.69-.02,5.38-.06,8.06-1.02.02-2.04.04-3.06-.01,0-2.69-.08-5.39.02-8.08.08-2.08.68-4.05,1.8-5.84,1.29-2.08,3.03-3.66,5.24-4.69,1.33-.62,2.73-.97,4.22-1.06,1.61-.09,3.16.06,4.69.54,2.16.69,3.94,1.95,5.42,3.64,1.2,1.38,2.03,2.98,2.48,4.76.32,1.27.49,2.55.47,3.87-.03,2.28-.01,4.57-.01,6.85-1.02.05-2.04.04-3.07,0Z"/><path class="cls-31" d="m350,187.05c-1.14,0-2.27-.02-3.41,0-.33,0-.41-.1-.4-.41.02-.62-.01-1.25.13-1.85.15-.62.34-1.22.5-1.83.22-.83.44-1.66.64-2.49.07-.31.18-.6.27-.9.14-.49,0-.88-.35-1.14-1.12-.83-1.25-1.97-1.14-3.22.06-.03.06-.08.03-.14.34-1.51,1.28-2.47,2.7-3.02.34-.13.7-.05,1.02-.21.15.02.31.04.46.07.03.08.07.12.14.03.08.02.16.04.24.05.04.11.14.08.22.08,1.58.51,2.98,2.5,2.68,4.16-.14.79-.4,1.48-.99,2.03-.36.33-.78.65-.56,1.25.14.39.25.78.36,1.18.38,1.48.81,2.94,1.17,4.43.13.55.09,1.14.08,1.71,0,.25-.17.21-.32.21-1.16,0-2.32,0-3.48.01Z"/><path class="cls-14" d="m351.07,172.07c-.09,0-.18.03-.22-.08.1-.05.17,0,.22.08Z"/><path class="cls-14" d="m350.6,171.94c-.07.09-.11.05-.14-.03.06-.03.1-.02.14.03Z"/><path class="cls-53" d="m346.28,175.06c.03.06.03.1-.03.14-.08-.07-.03-.1.03-.14Z"/><circle class="cls-3" cx="350.13" cy="169.6" r="39.02"/></svg>