<?xml version="1.0" encoding="UTF-8"?><svg id="Layer_1" xmlns="http://www.w3.org/2000/svg" viewBox="0 0 400 400"><defs><style>.cls-1{stroke:#a5262d;}.cls-1,.cls-2,.cls-3{stroke-width:4px;}.cls-1,.cls-2,.cls-3,.cls-4{fill:none;stroke-miterlimit:10;}.cls-5{fill:#93c149;}.cls-6{fill:#7da1b1;}.cls-7{fill:#8fbac5;}.cls-2{stroke:#000;}.cls-8{fill:#fafdfc;}.cls-9{fill:#fff;}.cls-10{fill:#fcfdfd;}.cls-3{stroke:#0018c6;}.cls-11{fill:#e2e7f5;}.cls-12{fill:#546e7a;}.cls-13{fill:#f9fdfc;}.cls-14{fill:#bbc3c6;}.cls-15{fill:#f1f6f6;}.cls-16{fill:#f7f6fd;}.cls-17{fill:#02f1a6;}.cls-18{fill:#efc319;}.cls-19{fill:#e1e6f4;}.cls-20{fill:#ffed58;}.cls-4{stroke:#231f20;stroke-width:2px;}.cls-21{fill:#36464e;}.cls-22{fill:#fde077;}.cls-23{fill:#fee077;}.cls-24{fill:#ddebf0;}.cls-25{fill:#474c68;}.cls-26{fill:#b3dd60;}.cls-27{fill:#26b899;}.cls-28{fill:#fed05b;}.cls-29{fill:#efc31a;}.cls-30{fill:#788f9b;}.cls-31{fill:#b09146;}.cls-32{fill:#484645;}.cls-33{fill:#fec345;}.cls-34{fill:#dee3f1;}.cls-35{fill:#2b2e3f;}.cls-36{fill:#94a4a4;}.cls-37{fill:#fee078;}.cls-38{fill:#cee5ec;}.cls-39{fill:#fdd15b;}.cls-40{fill:#fbd734;}.cls-41{fill:#231f20;}.cls-42{fill:#64c7ef;}.cls-43{fill:#28b99a;}</style></defs><line class="cls-9" x1="141.93" y1="201.64" x2="109.16" y2="201.14"/><line class="cls-4" x1="141.93" y1="201.64" x2="119.92" y2="201.3"/><polygon class="cls-41" points="122.22 193.85 109.16 201.13 121.99 208.81 122.22 193.85"/><line class="cls-9" x1="254.16" y1="201.64" x2="286.93" y2="201.14"/><line class="cls-4" x1="254.16" y1="201.64" x2="276.17" y2="201.3"/><polygon class="cls-41" points="274.1 208.81 286.93 201.14 273.87 193.86 274.1 208.81"/><line class="cls-9" x1="197.8" y1="145.77" x2="198.3" y2="113"/><line class="cls-4" x1="197.8" y1="145.77" x2="198.13" y2="123.76"/><polygon class="cls-41" points="205.58 126.06 198.3 113 190.62 125.83 205.58 126.06"/><line class="cls-9" x1="197.8" y1="257" x2="198.3" y2="289.77"/><line class="cls-4" x1="197.8" y1="257" x2="198.13" y2="279.01"/><polygon class="cls-41" points="190.62 276.94 198.3 289.77 205.58 276.71 190.62 276.94"/><circle class="cls-1" cx="198.05" cy="201.39" r="45"/><path d="m169.35,182.29c-2.5-3-2.3-7.2.8-9.7,1.8-1.6,4.2-2,6.3-1.3l-1,2.9c-1.1-.4-2.4-.1-3.4.7-1.8,1.5-1.9,3.7-.4,5.5,1.5,1.8,3.7,2,5.5.5,1-.9,1.5-2.1,1.3-3.2l3-.5c.3,2.2-.5,4.5-2.4,6-3.1,2.6-7.2,2.2-9.8-.8l.1-.1Z"/><path d="m181.75,174.99c-.9-2.7.5-5.5,3.1-6.4,2.6-.9,5.5.4,6.4,3.1.9,2.7-.5,5.5-3.1,6.4-2.6.9-5.5-.4-6.4-3.1Zm6.8-2.4c-.4-1.3-1.6-1.8-2.8-1.4s-1.8,1.6-1.3,2.8c.4,1.3,1.6,1.8,2.8,1.4s1.8-1.6,1.3-2.8Z"/><path d="m203.65,171.49c0,2.8-2.1,5-4.6,5-1.3,0-2.2-.5-2.8-1.2v.9h-2.9v-13.4h3v4.7c.6-.7,1.5-1.1,2.8-1.1,2.5,0,4.5,2.2,4.5,5.1Zm-2.8,0c0-1.4-.9-2.3-2.2-2.3s-2.3.9-2.3,2.3.9,2.3,2.2,2.3,2.3-.9,2.3-2.3Z"/><path d="m216.65,170.99l-3.4,8.9-2.7-1,.3-.8c-.8.5-1.9.5-3.1,0-2.3-.9-3.5-3.7-2.5-6.3,1-2.6,3.7-4,6-3.1,1.2.5,1.9,1.2,2.2,2.1l.3-.8,2.7,1h.2Zm-4.3,3.4c.5-1.3,0-2.5-1.3-3-1.2-.5-2.4,0-2.9,1.4-.5,1.3,0,2.5,1.3,3,1.2.5,2.4,0,2.9-1.4Z"/><path d="m222.25,169.49l2.3,1.6-8,11.3-2.3-1.6,8-11.3Z"/><path d="m225.25,181.19l-2.4,2.4c-.6.6-.1,1.1.8,2l-1.8,1.8c-2.9-2.4-2.8-4-.9-5.8l2.4-2.4-1.1-1.1,2-1.9,1.1,1.1,1.3-1.3,2.6,1.4-1.9,1.9,1.4,1.4-2,1.9-1.4-1.4h-.1Z"/><rect class="cls-42" x="171.05" y="191.39" width="52" height="37" rx="2.9" ry="2.9"/><path class="cls-32" d="m188.35,222.19c-3.6,0-6.5-1.2-8.8-3.5-2.3-2.4-3.5-5.3-3.5-8.8s1.2-6.4,3.5-8.8c2.3-2.4,5.3-3.5,8.8-3.5s4.1.5,5.9,1.5c1.8,1,3.3,2.4,4.3,4.1l-5.2,3c-.5-.8-1.1-1.5-2-2-.9-.5-1.9-.7-3-.7-1.9,0-3.4.6-4.6,1.8-1.2,1.2-1.7,2.7-1.7,4.6s.6,3.5,1.7,4.6c1.1,1.1,2.7,1.8,4.6,1.8s2.1-.2,3-.7c.9-.5,1.6-1.2,2-2l5.2,3c-1,1.7-2.5,3.1-4.3,4.1s-3.8,1.5-6,1.5h.1Z"/><path class="cls-32" d="m209.05,222.19c-2.5,0-4.6-.9-6.4-2.6-1.8-1.7-2.6-3.8-2.6-6.3s.9-4.6,2.6-6.3c1.8-1.7,3.9-2.6,6.4-2.6s4.7.9,6.4,2.6c1.7,1.7,2.6,3.8,2.6,6.3s-.9,4.6-2.6,6.3c-1.7,1.7-3.9,2.6-6.4,2.6Zm0-5.4c1,0,1.8-.3,2.4-1,.6-.7,1-1.5,1-2.5s-.3-1.9-1-2.5c-.6-.7-1.5-1-2.4-1s-1.8.3-2.4,1c-.6.7-1,1.5-1,2.5s.3,1.9,1,2.5c.6.7,1.4,1,2.4,1Z"/><circle class="cls-3" cx="58.08" cy="201.39" r="45"/><path class="cls-27" d="m91.58,191.69v31.2c-.42.93-1.29,1.58-2.3,1.7h-4.6c-.76-.1-1.54-.1-2.3,0h-3.5c-.63-.1-1.27-.1-1.9,0h-9.4c-.76-.1-1.54-.1-2.3,0h-13.8c-.76-.1-1.54-.1-2.3,0h-3.5c-.63-.1-1.27-.1-1.9,0h-9.5v-34.7h54.6c1.3-.16,2.54.58,3,1.8h-.3Zm-45,15.6h0v3.5c0,2.54,2.06,4.6,4.6,4.6,2.54,0,4.59-2.06,4.6-4.6v-2.3c0-.9-.4-1.3-1.3-1.3h-1.9c-.7-.07-1.32.43-1.39,1.13,0,.02,0,.05,0,.07,0,.7.5,1.1,1.4,1.1s.9,0,.9.9c.07,1.27-.91,2.36-2.18,2.43-1.21.06-2.27-.82-2.42-2.03v-6.9c-.06-.46.05-.92.3-1.3.61-1.1,1.99-1.5,3.1-.9.72.41,1.17,1.17,1.2,2,.1.8.6,1.3,1.2,1.2.65-.09,1.1-.7,1.01-1.35,0-.02,0-.04,0-.05-.14-2.53-2.27-4.48-4.8-4.4-2.33.15-4.2,1.98-4.4,4.3v3.8l.1.1Zm23.1-1.6v5c-.06,1.59.75,3.09,2.12,3.91,2.1,1.44,4.96.9,6.4-1.19.51-.74.79-1.61.8-2.51v-10.8c-.1-.51-.58-.86-1.1-.8-.51-.03-.97.31-1.1.8v10.5c.06,1.27-.93,2.34-2.2,2.4-1.27.06-2.34-.93-2.4-2.2v-10.5c0-.52-.32-1-.8-1.2-.47-.19-1.01-.02-1.3.4-.2.29-.31.64-.3,1v5l-.12.19Zm-11.5,1.6v6.9c-.02.56.36,1.06.9,1.2.49.08.97-.16,1.2-.6.13-.25.17-.53.1-.8v-4.8c0-.5.1-.6.6-.6h1.82c2.46-.06,4.44-2.04,4.5-4.5.04-2.39-1.73-4.41-4.1-4.7-1.2-.1-2.4,0-3.6,0s-1.5.4-1.5,1.5v6.5l.08-.1Zm-20.8-11v1.6c-.01.65.46,1.2,1.1,1.3.64.08,1.21-.37,1.29-1.01,0-.03,0-.06,0-.09v-1.9c0-.4.1-.5.5-.5h1.7c.62.02,1.16-.4,1.3-1,.06-.63-.38-1.2-1-1.3h-3.48c-.66-.05-1.24.44-1.3,1.1v1.8h-.12Z"/><path class="cls-14" d="m33.88,224.6v3.4c0,.95-.54,1.81-1.4,2.2-.78.41-1.74.29-2.4-.3-.63-.51-.97-1.29-.9-2.1v-41c0-1.6.2-1.5-1.5-1.5-1.5,0-2.6-.4-3.1-1.8v-1c.41-1.27,1.69-2.03,3-1.8h3.5c1.31-.18,2.52.73,2.7,2.03.03.22.03.45,0,.67v41.2h.1Z"/><path class="cls-36" d="m29.18,206.09v15h-3c-.64.05-1.26-.26-1.6-.8v-13.5c.4-.53,1.05-.79,1.7-.7h2.9Z"/><path class="cls-36" d="m29.18,192.29v9.2h-3c-.64.05-1.26-.26-1.6-.8v-7.7c.4-.53,1.05-.79,1.7-.7h2.9Z"/><path class="cls-10" d="m46.58,207.29v-3.8c.19-2.54,2.41-4.44,4.95-4.25,2.31.18,4.13,2.04,4.25,4.35,0,.8-.3,1.3-1,1.4s-1.1-.4-1.2-1.2c0-1.22-.99-2.21-2.21-2.21-.06,0-.13,0-.19,0-.8.03-1.53.49-1.9,1.2-.19.41-.3.85-.3,1.3v6.51c-.15,1.27.75,2.42,2.02,2.57,1.27.15,2.42-.75,2.57-2.02,0-.05.01-.1.01-.16v-.4c.06-.44-.25-.84-.69-.9-.07,0-.14,0-.21,0-.9,0-1.4-.5-1.4-1.1s.5-1.2,1.4-1.2h1.9c.9,0,1.3.4,1.3,1.3v2.3c0,2.54-2.06,4.6-4.6,4.6-2.54,0-4.59-2.06-4.6-4.6v-3.5h0l-.1-.21Z"/><path class="cls-8" d="m69.58,205.69v-5c-.03-.35.04-.69.2-1,.29-.42.83-.59,1.3-.4.5.18.83.67.8,1.2v10.11c-.06,1.27.93,2.34,2.2,2.4,1.27.06,2.34-.93,2.4-2.2v-10.8c.1-.51.58-.86,1.1-.8.51-.03.97.31,1.1.8v10.8c-.05,2.54-2.15,4.56-4.69,4.5-.9-.02-1.77-.3-2.51-.8-1.31-.87-2.09-2.33-2.1-3.9v-5l.2.09Z"/><path class="cls-8" d="m58.08,207.19v-6.5c0-1.1.4-1.5,1.5-1.5h3.6c2.4.22,4.21,2.29,4.1,4.7-.06,2.46-2.04,4.44-4.5,4.5h-1.8c-.5,0-.6.1-.6.6v4.8c.02.27-.01.54-.1.8-.19.48-.71.74-1.2.6-.55-.04-.96-.53-.92-1.08,0-.04,0-.08.02-.12v-6.8h-.1Zm2.4-3.5v1.8c0,.4,0,.6.5.6h1.82c1.25.02,2.28-.97,2.3-2.22,0-.03,0-.05,0-.08h0c.02-1.25-.97-2.28-2.22-2.3-.03,0-.05,0-.08,0h-1.8c-.4,0-.5.2-.5.5l-.02,1.7Z"/><path class="cls-29" d="m55.8,224.6v3.1c.05.7-.41,1.34-1.1,1.5h-3.4v-4.6h4.5Z"/><path class="cls-29" d="m64.98,229.19h-3.3c-.68.03-1.27-.49-1.3-1.18,0,0,0-.01,0-.02v-3.3h4.6v4.5Z"/><path class="cls-29" d="m89.28,224.6v3.1c.05.7-.41,1.34-1.1,1.5h-3.38v-4.6h4.5-.02Z"/><path class="cls-29" d="m43.08,229.19h-3.28c-.68.03-1.27-.49-1.3-1.18,0,0,0-.01,0-.02v-3.39h4.6l-.02,4.59Z"/><path class="cls-13" d="m37.28,196.29v-1.6c-.05-.66.44-1.24,1.1-1.3h3.5c.62-.02,1.16.4,1.3,1,.06.63-.38,1.2-1,1.3h-2c-.4,0-.5.1-.5.5v1.7c.01.65-.46,1.2-1.1,1.3-.64.08-1.21-.37-1.29-1.01,0-.03,0-.06,0-.09v-1.8h0Z"/><path class="cls-18" d="m48.88,229.19h-3.4v-4.5h0c0-.1,3.4-.1,3.4-.1v4.6Z"/><path class="cls-18" d="m70.8,229.19h-3.4v-4.59h3.4v4.5h0v.09Z"/><path class="cls-18" d="m76.58,229.19h-3.4v-4.59h3.4v4.59Z"/><path class="cls-18" d="m82.28,229.19h-3.4v-4.5h0c0-.1,3.4-.1,3.4-.1v4.6Z"/><path class="cls-31" d="m67.38,224.6v4.6h-2.3v-4.6c.76-.1,1.54-.1,2.3,0Z"/><path class="cls-31" d="m48.88,229.19v-4.59c.76-.1,1.54-.1,2.3,0v4.6h-2.3Z"/><path class="cls-31" d="m82.28,229.19v-4.59c.76-.1,1.54-.1,2.3,0v4.6h-2.3Z"/><path class="cls-31" d="m45.38,224.69v4.4h-.1c-.73.08-1.47.12-2.2.1v-4.59h2.2l.1.09Z"/><path class="cls-31" d="m73.08,224.6v4.6h-2.28v-4.6h2.3-.02Z"/><path class="cls-31" d="m78.88,224.69v4.4h-.08c-.73.08-1.47.12-2.2.1v-4.59h2.2l.08.09Z"/><path class="cls-31" d="m72.8,224.6h-1.9c.63-.1,1.27-.1,1.9,0Z"/><path class="cls-31" d="m70.8,229.09h.1v.1h0l-.1-.1Z"/><path class="cls-43" d="m60.38,203.79v-1.8c0-.4,0-.6.5-.5h1.8c1.27,0,2.3,1.03,2.3,2.3s-1.03,2.3-2.3,2.3h-1.8c-.5,0-.5-.2-.5-.6v-1.7Z"/><path d="m51.48,171.69c1.56,3.5,0,7.6-3.51,9.17-.19.09-.39.16-.59.23-3.9,1.69-8.44-.11-10.12-4.01-.03-.06-.05-.12-.08-.19-1.53-4,.47-8.49,4.47-10.02,2.37-.91,5.03-.6,7.13.82l-2.1,2.6c-2.09-1.26-4.81-.59-6.07,1.5-.71,1.18-.83,2.62-.33,3.9.9,2.3,3.2,3.4,5.9,2.3,1.57-.45,2.66-1.87,2.7-3.5l-3.7,1.4-1.1-2.7,6.9-2.7.5,1.2Z"/><path d="m65.88,169.49c-.14,2.8-2.53,4.95-5.32,4.8-.03,0-.05,0-.08,0h-2.2c0-.1-.2,4.5-.2,4.5l-3.4-.2.7-14.7,5.6.3c2.79.09,4.99,2.42,4.9,5.21,0,.03,0,.06,0,.09Zm-3.4-.2c.06-1.02-.69-1.9-1.7-2h-2.2c0-.1-.2,3.7-.2,3.7h2.2c.91.13,1.76-.51,1.88-1.42.01-.09.02-.18.02-.28h0Z"/><path d="m67.68,174.89l4.2-9,3,1.4-4.1,8.8c-.5,1-.4,2.1,1.2,2.8s2.5.1,3-.9l4.1-8.8,3,1.4-4.2,9c-1.3,2.9-4.3,3.6-7.3,2.2s-4.4-4.1-3-7l.1.1Z"/><circle class="cls-3" cx="198.05" cy="57.63" r="45"/><path class="cls-7" d="m186.85,93.63c-.81-.23-1.58-.57-2.3-1-1.52-1.03-2.39-2.77-2.3-4.6v-42.9c-.05-2.63,1.81-4.92,4.4-5.4h21.6c0,.2.1.2.2.2,1.33.37,2.47,1.23,3.2,2.4.39.52.6,1.15.6,1.8,0,0-.2-.2-.2-.3-.51-.83-1.42-1.33-2.4-1.3h-3.8c-.64-.04-1.23.32-1.5.9-.2.3-.3.7-.5,1-.28.69-.96,1.13-1.7,1.1h-6.7c-.27.02-.54-.01-.8-.1-.37-.24-.65-.59-.8-1l-.6-1.2c-.2-.42-.63-.7-1.1-.7h-4.8c-1.37.32-2.31,1.59-2.2,3v42.5c-.02,1.48,1.12,2.71,2.6,2.8h22c.45,0,.9-.1,1.3-.3.52-.3.94-.76,1.2-1.3v.2c-.41,1.91-1.83,3.44-3.7,4-.1,0-.4,0-.4.2h-21.3Zm11.9-50.26h1.8c.35.04.66-.21.7-.55,0-.05,0-.1,0-.15,0-.5-.2-.9-.7-.9h-3.5c-.5,0-.7.4-.7.9s.3.6.7.7h1.7Z"/><path class="cls-6" d="m208.25,93.63c0-.3.2-.2.4-.2,1.83-.62,3.22-2.13,3.7-4v-.2c.17-.55.24-1.13.2-1.7v-41.8c.03-.57-.04-1.15-.2-1.7-.03-.64-.24-1.27-.6-1.8-.71-1.19-1.86-2.06-3.2-2.4-.1,0-.2,0-.2-.2h2.4c.66.14,1.3.38,1.9.7,1.73,1.01,2.77,2.89,2.7,4.9v42.7c.1,2.73-1.82,5.11-4.5,5.6h-2.5l-.1.1Z"/><path class="cls-15" d="m194.55,45.37c.3,0,.5.1.8.1h6.7c.75.07,1.46-.38,1.7-1.1.2-.3.3-.7.5-1,.27-.58.86-.94,1.5-.9h.9c0,.2.2.2.3.3.99.49,1.61,1.5,1.6,2.6v42.5c.02,1.08-.56,2.08-1.5,2.6-.16,0-.29.14-.3.3h-19.1c-1.48-.09-2.62-1.32-2.6-2.8v-42.4c-.11-1.41.83-2.68,2.2-3,.47-.05.93-.05,1.4,0,.49.63.93,1.3,1.3,2,.3.65,1,1.01,1.7.9h2.5c.17.03.35,0,.5-.1h-.1Zm-3.5,29.9v10.4c0,1.1.3,1.4,1.4,1.4h12.9c.55.06,1.04-.34,1.1-.89,0-.07,0-.14,0-.21v-21.4c.06-.55-.34-1.04-.89-1.1-.07,0-.14,0-.21,0h-1.1c-.55.06-1.04-.34-1.1-.89,0-.07,0-.14,0-.21v-1.9c.06-.55-.34-1.04-.89-1.1-.07,0-.14,0-.21,0h-6.7c-.8,0-1.1.4-1.1,1.2v1.9c0,.7-.4,1-1.1,1h-.8c-1,0-1.3.3-1.3,1.3v10.5h0Zm7.7-24.2c0-.2.1-.3.2-.5.3-.5.7-1,1-1.5s.2-.9-.2-1.1-.8-.3-1,0c-.8,1.1-1.6,2.3-2.3,3.5-.3.6,0,1.1.7,1.1h1.4q.3,0,.2.3c-.5.8-1,1.6-1.6,2.4-.32.37-.32.93,0,1.3.4.3.9.1,1.3-.4.9-1.3,1.7-2.6,2.5-3.9.2-.27.2-.63,0-.9-.18-.26-.48-.42-.8-.4h-1.6l.2.1Z"/><path class="cls-24" d="m206.75,90.73c0-.2.2-.2.3-.3.94-.52,1.52-1.52,1.5-2.6v-42.46c0-1.1-.61-2.11-1.6-2.6-.16,0-.29-.14-.3-.3h2.9c.98-.05,1.91.45,2.4,1.3,0,.1.1.2.2.3.17.55.24,1.13.2,1.7v41.8c.03.57-.04,1.15-.2,1.7-.32.5-.73.94-1.2,1.3-.4.2-.85.31-1.3.3h-2.9v-.14Z"/><path class="cls-24" d="m194.55,45.37c-.1.2-.3.1-.5.1h-2.5c-.7.09-1.38-.27-1.7-.9-.37-.7-.81-1.37-1.3-2h3.4c.47,0,.9.28,1.1.7l.6,1.2c.21.37.48.71.8,1l.1-.1Z"/><path class="cls-6" d="m198.75,43.37h-1.6c-.35.04-.66-.21-.7-.55,0-.05,0-.1,0-.15,0-.5.2-.9.7-.9h3.5c.44.06.75.46.7.9,0,.5-.2.6-.7.7-.6.05-1.2.05-1.8,0h-.1Z"/><path class="cls-17" d="m191.05,75.23v-10.5c0-1,.3-1.3,1.3-1.3h.8c.7,0,1-.3,1.1-1v-1.9c0-.8.3-1.2,1.1-1.2h6.7c.55-.06,1.04.34,1.1.89,0,.07,0,.14,0,.21v1.94c-.06.55.34,1.04.89,1.1.07,0,.14,0,.21,0h1.1c.55-.06,1.04.34,1.1.89,0,.07,0,.14,0,.21v21.4c.06.55-.34,1.04-.89,1.1-.07,0-.14,0-.21,0h-12.9c-1.1,0-1.4-.3-1.4-1.4v-10.44Zm12.5,2.7v-10.56c0-.5-.3-.8-.9-.8h-7.9c-.44-.06-.84.25-.9.69,0,.07,0,.14,0,.21v15.9c-.06.44.25.84.69.9.07,0,.14,0,.21,0h7.9c.44.06.84-.25.9-.69,0-.07,0-.14,0-.21v-5.44Z"/><path class="cls-37" d="m198.75,51.03h1.6c.4,0,.7,0,.8.4.14.28.14.62,0,.9-.8,1.3-1.7,2.6-2.5,3.9-.26.45-.83.63-1.3.4-.4-.3-.4-.8,0-1.3.5-.8,1-1.6,1.6-2.4.2-.2.1-.3-.2-.3h-1.4c-.7,0-1.1-.6-.7-1.1.7-1.2,1.5-2.3,2.3-3.5.15-.28.5-.38.77-.23.1.05.17.13.23.23.32.27.4.73.2,1.1-.3.5-.7,1-1,1.5,0,.1-.2.2-.2.5l-.2-.1Z"/><path class="cls-24" d="m200.35,66.43h2.4c.45-.04.85.29.9.74,0,.02,0,.04,0,.06v2.5h-2.5c-.4,0-.5.1-.5.5v3.5h-6.7v-4.1h6.2c.2,0,.5.1.5-.2,0-1,.3-2.06-.3-3Z"/><path class="cls-22" d="m200.15,84.23h-5.3c-.44.06-.84-.25-.9-.69,0-.07,0-.14,0-.21v-3.7h6.7v3.6c.05.4-.15.8-.5,1Z"/><path class="cls-23" d="m193.95,73.83h6.7v4.1h-6.7v-4.1Z"/><path class="cls-15" d="m200.35,66.43c.6,1,.2,2,.3,3,0,.3-.3.2-.5.2h-6.2v-2.26c-.06-.44.25-.84.69-.9.07,0,.14,0,.21,0l5.5-.04Z"/><path class="cls-39" d="m200.15,84.23c.4-.2.5-.5.5-1v-3.6h2.9v3.74c.03.46-.31.87-.78.9-.04,0-.08,0-.12,0h-2.5v-.04Z"/><path class="cls-28" d="m200.65,77.93v-4.1h2.9v4.1h-2.9Z"/><path class="cls-38" d="m203.65,73.83h-2.9v-3.46c0-.4.1-.5.5-.5h2.5v4l-.1-.04Z"/><path class="cls-39" d="m193.95,77.93h6.7v1.7h-6.7v-1.7Z"/><path class="cls-33" d="m200.65,79.63v-1.7h2.9v1.7h-2.9Z"/><path d="m163.85,50.23c2.1.33,3.53,2.3,3.2,4.4l-.3,1.6,3.5.5-.4,2.5-11-1.7.6-4.2c.28-2.11,2.21-3.59,4.32-3.31.03,0,.05,0,.08.01v.2Zm-.4,2.5c-.71-.16-1.42.28-1.58.99,0,.04-.01.07-.02.11l-.3,1.6,2.8.4.3-1.6c.12-.7-.36-1.37-1.06-1.48-.05,0-.09-.01-.14-.02h0Z"/><path d="m170.25,41.93l4.4,2.1-1,2.1-4.1-2c-.66-.37-1.5-.13-1.86.53-.01.02-.02.05-.04.07-.4.8-.2,1.5.8,2l3.9,1.9-1,2.1-10-4.9,1-2.1,3.5,1.7c-.31-.81-.28-1.72.1-2.5.73-1.48,2.53-2.09,4.02-1.36.1.05.19.1.28.16v.2Z"/><path d="m171.95,40.93c-1.68-1.57-1.77-4.21-.19-5.89,1.57-1.68,4.21-1.77,5.89-.19,1.68,1.57,1.77,4.21.2,5.89-1.55,1.68-4.17,1.79-5.85.25-.02-.02-.03-.03-.05-.05Zm4.1-4.4c-.74-.66-1.88-.59-2.54.15-.66.74-.59,1.88.15,2.54.72.64,1.82.6,2.49-.1.69-.7.69-1.83-.01-2.52-.03-.03-.06-.06-.09-.08Z"/><path d="m185.35,29.13l2.4,4.2-2.1,1.2-2.2-3.9c-.25-.66-.98-.99-1.64-.74-.09.04-.18.08-.26.14-.8.4-1,1.2-.5,2.2l2.1,3.8-2.1,1.2-3.9-6.9,2.1-1.2.4.6c0-.7.6-1.4,1.5-2,1.4-.8,3.1-.5,4.2,1.4Z"/><path d="m192.15,30.37c.56-.11,1.06-.44,1.4-.9l2.1.7c-1.12,2.17-3.79,3.02-5.96,1.9-1.11-.57-1.92-1.59-2.24-2.8-.55-2.19.78-4.4,2.97-4.95.08-.02.15-.04.23-.05,2.16-.48,4.29.89,4.77,3.04.01.05.02.1.03.16,0,.3.1.6.1,1l-5.5,1.2c.47.67,1.32.96,2.1.7Zm.8-3.1c-.36-.69-1.14-1.06-1.9-.9-.8.1-1.41.79-1.4,1.6l3.3-.7Z"/><path d="m209.75,29.43c-.38,2.17-2.42,3.63-4.6,3.3-.89-.17-1.65-.72-2.1-1.5l-.2.7-2.3-.5,2.4-10.8,2.3.5-.9,3.8c.71-.55,1.65-.7,2.5-.4,2.12.58,3.37,2.77,2.8,4.9h.1Zm-2.3-.5c.3-.94-.23-1.95-1.17-2.24-.08-.02-.15-.04-.23-.06-.99-.26-2.01.34-2.27,1.34-.01.05-.03.11-.03.16-.3.94.23,1.95,1.17,2.24.08.02.15.04.23.06.99.26,2.01-.34,2.27-1.34.01-.05.03-.11.03-.16Z"/><path d="m220.45,30.93l-4.1,6.8-2-1.2.4-.6c-.85.26-1.77.11-2.5-.4-1.84-1.38-2.22-3.99-.84-5.84,1.19-1.6,3.35-2.13,5.14-1.26.78.4,1.33,1.14,1.5,2l.4-.6,2,1.2v-.1Zm-4.1,2.2c.57-.82.37-1.94-.45-2.51-.05-.03-.1-.07-.15-.09-.89-.53-2.03-.24-2.57.64-.01.02-.02.04-.03.06-.52.88-.23,2.03.65,2.55.88.52,2.03.23,2.55-.65h0Z"/><path d="m223.25,36.83l-2,2c-.5.5-.1.9.7,1.6l-1.5,1.5c-2.4-2-2.4-3.3-.8-4.9l2-2-.9-.9,1.6-1.6.9.9,1.1-1.1,2.2,1.2-1.6,1.5,1.1,1.2-1.6,1.6-1.1-1.2-.1.2Z"/><path d="m227.15,41.83l-2.3,1.6c-.6.4-.3.9.3,1.7l-1.8,1.2c-2-2.4-1.7-3.7.1-4.9l2.3-1.6-.7-1.1,1.9-1.3.7,1.1,1.3-.8,1.9,1.6-1.8,1.2.9,1.4-1.9,1.3-.9-1.4Z"/><path d="m226.95,49.93c.2.53.59.96,1.1,1.2l-.4,2.2c-1.29-.39-2.31-1.41-2.7-2.7-.9-2.6.2-4.8,2.4-5.6,2.13-.82,4.53.24,5.35,2.37.02.04.03.09.05.13.76,2.08-.31,4.37-2.39,5.13-.07.03-.14.05-.21.07-.29.11-.59.18-.9.2l-1.9-5.3c-.63.55-.79,1.46-.4,2.2v.1Zm3.2.4c.65-.44.9-1.28.6-2-.18-.82-.98-1.35-1.8-1.2l1.2,3.2Z"/><path d="m234.85,58.83l-2.7.3c0-1-.5-2.3-2-2.2l-3.6.4-.2-2.4,7.9-.8.2,2.4h-1.4c1.01.38,1.72,1.32,1.8,2.4v-.1Z"/><path d="m233.75,68.93l-7.3-3.7c-2.4-1.2-3.2-2.7-2.8-4.9l2.2.3c-.1,1.1.1,1.7,1,2.1l7.9-2.1-.3,2.6-5,1.1,4.6,2.1-.3,2.5h0Z"/><circle class="cls-3" cx="198.05" cy="342.37" r="45"/><path class="cls-25" d="m218.25,348.37v-19c-.02-2.42-1.98-4.38-4.4-4.4h-33c-2.39.09-4.31,2.01-4.4,4.4v15.3c.1.9.2,1.7.3,2.6.3,2.5.8,4.98,1.5,7.4.41,1.43.91,2.83,1.5,4.2,0,.2,0,.4.3.4v-26.3c0-.5.1-.7.6-.7h33.2c.5,0,.6.1.6.6v36.9c0,.5-.1.6-.6.6h-26.6c.1.4.5.6.8.9,1.49,1.41,3.09,2.68,4.8,3.8.3.2.6.3.9.5-.3-1.6.4-2.5,2.1-2.5h3.2c1-.04,1.85.73,1.9,1.74,0,.02,0,.04,0,.06.03.97-.74,1.78-1.71,1.81-.06,0-.12,0-.19,0h-2.8c.1.3.5.4.8.5,2.29,1.01,4.72,1.69,7.2,2,.51-.03,1.02.04,1.5.2h8.1c2.47.01,4.49-1.99,4.5-4.46,0-.01,0-.03,0-.04v-19.7c-.4-2.25-.4-4.55,0-6.8h-.1Zm-20.2-18.9h-5c-.7,0-1.1-.3-1.1-.9s.4-.9,1.1-.9h5.1c.7,0,1.1.3,1.1.9s-.4.9-1.1.9h-.1Zm3.4,0c-.9,0-1.3-.3-1.4-.9-.1-.6.4-.9,1.3-.9h0c.9,0,1.3.3,1.3.9s-.4.9-1.4.9h.2Z"/><path class="cls-35" d="m176.35,344.57c.1.9.2,1.7.3,2.6.3,2.5.8,4.98,1.5,7.4.41,1.43.91,2.83,1.5,4.2,0,.2,0,.4.3.4v10.9c0,.3,0,.4.4.4h6.9c.15.38.44.7.8.9,1.49,1.41,3.09,2.68,4.8,3.8.3.2.6.3.9.5.26.43.65.78,1.1,1,.4.2.9,0,1.3.1.1.3.5.4.8.5,2.29,1.01,4.72,1.69,7.2,2,.51-.03,1.02.04,1.5.2h-24.3c-2.52.19-4.71-1.7-4.9-4.21-.02-.23-.02-.46,0-.69v-29.9l-.1-.1Z"/><path class="cls-16" d="m187.25,370.27h-.2c-.01-.21-.12-.39-.3-.5-.6-.6-1.1-1.3-1.7-1.9-1.81-2.32-3.36-4.83-4.6-7.5,0-.24-.17-.45-.4-.5v-27.1c0-.5.1-.7.6-.7h33.2c.5,0,.6.1.6.6v36.9c0,.5-.1.6-.6.6h-26.6v.1Zm6.3-29.1h-2.2c-.4,0-.6.1-.6.6v18.9c0,.4,0,.5.5.5h11.7c.4,0,.5-.1.5-.5v-18.9c0-.5-.1-.6-.6-.6h-2.2v-3.2c0-.3,0-.5-.4-.5h-6.4c-.4,0-.4.1-.4.5v3.2h.1Zm.9,25.5c0-.5-.4-.9-.9-.9s-.9.4-.9.9.4.9.9.9h0c.44.06.84-.25.9-.69,0-.07,0-.14,0-.21Zm2.7.9c.5,0,.9-.4.9-.9s-.4-.9-.9-.9-.9.4-.9.9h0c-.06.44.25.84.69.9.07,0,.14,0,.21,0Zm3.7-1.8c-.5,0-.9.4-.9.9s.4.9.9.9.9-.4.9-.9h0c.06-.44-.25-.84-.69-.9-.07,0-.14,0-.21,0Z"/><path class="cls-19" d="m196.15,376.67c-.44.02-.87-.02-1.3-.1-.45-.22-.84-.57-1.1-1-.3-1.6.4-2.5,2.1-2.5h3.2c1-.04,1.85.73,1.9,1.74,0,.02,0,.04,0,.06.03.97-.74,1.78-1.71,1.81-.06,0-.12,0-.19,0h-2.9Z"/><path class="cls-19" d="m195.45,329.47h-2.5c-.7,0-1.1-.3-1.1-.9s.4-.9,1.1-.9h5.1c.7,0,1.1.3,1.1.9s-.4.9-1.1.9h-2.6Z"/><path class="cls-34" d="m201.35,329.47c-.9,0-1.3-.3-1.4-.9s.4-.9,1.3-.9h0c.9,0,1.3.3,1.3.9s-.4.9-1.4.9h.2Z"/><path class="cls-11" d="m180.05,359.92c.3,0,.3.3.4.5,1.26,2.66,2.8,5.17,4.6,7.5.51.68,1.08,1.31,1.7,1.9.1.2.3.3.3.5h-6.7c-.3,0-.4,0-.4-.4v-10.1l.1.1Z"/><path class="cls-5" d="m200.95,341.27h2.2c.4,0,.6.1.6.6v18.9c0,.4,0,.5-.5.5h-11.7c-.4,0-.5-.1-.5-.5v-18.85c0-.5.1-.6.6-.6h9.3v-.05Zm-7.3,6.1c.23-.44.71-.68,1.2-.6h4.5c.5,0,1.1-.1,1.5.6v-2.9c0-.4-.1-.5-.5-.5h-6.3c-.4,0-.5.1-.5.5v2.9h.1,0Zm0,7.8v2.9c0,.3,0,.4.4.4h6.5c.3,0,.4,0,.4-.4v-3c-.23.44-.71.68-1.2.6h-4.8c-.52.09-1.03-.15-1.3-.6h0v.1Zm7.2-7.2c-.23.44-.71.68-1.2.6h-4.6c-.52.08-1.05-.11-1.4-.5v2.9c.23-.44.71-.68,1.2-.6h4.6c.52-.08,1.05.11,1.4.5v-2.9Zm0,6.6v-3c-.3.6-.7.6-1.2.6h-4.5c-.5,0-1.1.1-1.5-.6v3c.24-.42.72-.66,1.2-.6h4.8c.5,0,.9,0,1.2.6Z"/><path class="cls-26" d="m200.95,341.27h-7.3v-3.2c0-.3,0-.5.4-.5h6.4c.4,0,.4.1.4.5v3.2h.1Z"/><path class="cls-25" d="m194.55,366.67c0,.5-.4.9-.9.9s-.9-.4-.9-.9.4-.9.9-.9h0c.44-.06.84.25.9.69,0,.07,0,.14,0,.21Z"/><path class="cls-25" d="m197.25,367.57c-.5,0-.9-.4-.9-.9s.4-.9.9-.9.9.4.9.9h0c.06.44-.25.84-.69.9-.07,0-.14,0-.21,0Z"/><path class="cls-25" d="m200.95,365.77c.5,0,.9.4.9.9s-.4.9-.9.9-.9-.4-.9-.9h0c-.06-.44.25-.84.69-.9.07,0,.14,0,.21,0Z"/><path class="cls-26" d="m193.65,347.27v-2.9c0-.4.1-.5.5-.5h6.3c.4,0,.5.1.5.5v2.9c-.4-.8-1-.6-1.5-.6h-4.5c-.5,0-.9,0-1.2.6h-.1Z"/><path class="cls-26" d="m193.65,355.17c.3.6.8.6,1.3.6h4.8c.5,0,.9,0,1.2-.6v3c0,.3-.1.4-.4.4h-6.5c-.2.02-.38-.13-.4-.34,0-.02,0-.04,0-.06v-3Z"/><path class="cls-26" d="m200.85,347.92v2.9c-.4-.5-.8-.5-1.4-.5h-4.6c-.5,0-.9,0-1.2.6v-2.9c.4.5.8.5,1.4.5h4.6c.5-.05.9-.05,1.2-.6Z"/><path class="cls-26" d="m200.85,354.47c-.26-.41-.72-.64-1.2-.6h-4.8c-.5,0-.9,0-1.2.6v-3c.4.7,1,.6,1.5.6h4.5c.5,0,.9,0,1.2-.6v3Z"/><path d="m161.25,332.17l-.6,2.6,8,1.7-.5,2.3-8-1.7-.6,2.6-2.3-.5,1.6-7.6,2.3.5.1.1Z"/><path d="m165.35,324.57l6.8,3.2-1,2-.6-.3c.32.78.28,1.65-.1,2.4-1.19,1.86-3.67,2.4-5.53,1.2-1.5-.96-2.18-2.8-1.67-4.5.33-.78.99-1.37,1.8-1.6l-.6-.3,1-2-.1-.1Zm2.4,3.6c-.9-.38-1.94.04-2.32.94-.38.9.04,1.94.94,2.32.87.37,1.87,0,2.29-.86.43-.87.07-1.93-.8-2.36-.03-.02-.06-.03-.1-.04Z"/><path d="m175.25,318.47c1.63,1.27,1.91,3.62.64,5.25-.01.02-.03.03-.04.05-.52.69-1.34,1.1-2.2,1.1l.5.5-1.5,1.7-7.9-6.9,1.5-1.7,2.8,2.45c-.09-.85.2-1.69.8-2.3,1.35-1.46,3.62-1.56,5.09-.21.07.07.15.14.21.21l.1-.15Zm-1.5,1.7c-.75-.67-1.9-.63-2.6.1-.64.67-.62,1.73.05,2.38.05.04.1.09.15.12.75.67,1.9.63,2.6-.1.65-.61.67-1.63.06-2.28-.08-.08-.17-.16-.26-.22Z"/><path d="m172.25,311.92l1.8-1.4,6.6,8.7-1.8,1.4-6.6-8.7Z"/><path d="m184.15,315.17c.48-.2.85-.6,1-1.1h2.1c-.2,1.3-1.02,2.42-2.2,3-1.88,1.08-4.28.43-5.37-1.45-.05-.08-.09-.17-.13-.25-1-1.86-.31-4.17,1.55-5.18.08-.04.17-.09.25-.12,1.84-.96,4.1-.24,5.06,1.59.05.1.1.2.14.31.08.27.18.54.3.8l-4.8,2.4c.6.6,1.3.5,2.1.1v-.1Zm0-3.1c-.48-.61-1.33-.78-2-.4-.73.26-1.13,1.06-.9,1.8l2.9-1.4Z"/><path d="m190.15,309.27l.6,2.6c.2.6.7.5,1.7.3l.5,2c-2.8,1-3.8.4-4.3-1.7l-.6-2.55-1.2.3-.5-2.1,1.2-.3-.3-1.4,2-1.2.5,2,1.5-.4.5,2.1-1.5.4-.1-.05Z"/><path d="m205.65,310.67c-.1,2.09-1.88,3.7-3.97,3.6-.01,0-.02,0-.03,0-.83-.02-1.61-.43-2.1-1.1v.7l-2.3-.2,1.1-10.4,2.2.2-.4,3.7c.63-.55,1.47-.81,2.3-.7,2,.27,3.4,2.11,3.13,4.1,0,.07-.02.13-.03.2l.1-.1Zm-2.2-.2c.14-.96-.52-1.85-1.48-1.99-.04,0-.08-.01-.12-.01-.98-.12-1.87.58-2,1.56,0,.01,0,.03,0,.04-.11.99.61,1.89,1.6,2s1.89-.61,2-1.6Z"/><path d="m215.75,310.47l-2.8,7-2.1-.8.3-.7c-.76.35-1.64.35-2.4,0-1.88-1.16-2.46-3.63-1.3-5.51.9-1.46,2.63-2.18,4.3-1.79.79.29,1.41.91,1.7,1.7l.3-.7,2.1.8h-.1Zm-3.5,2.6c.41-.89.02-1.94-.87-2.35-.04-.02-.09-.04-.13-.05-.83-.4-1.82-.05-2.21.78-.03.07-.06.14-.09.22-.41.89-.02,1.94.87,2.35.04.02.09.04.13.05.83.4,1.82.05,2.21-.78.03-.07.06-.14.09-.22h0Z"/><path d="m219.25,315.37l-1.5,2.2c-.4.5,0,.9.9,1.4l-1.2,1.7c-2.6-1.4-2.8-2.7-1.6-4.4l1.5-2.2-1-.7,1.2-1.8,1,.7.8-1.2,2.2.7-1.2,1.7,1.3.9-1.2,1.8-1.3-.9.1.1Z"/><path d="m223.65,319.27l-1.9,1.9c-.5.5-.1.9.6,1.5l-1.4,1.5c-2.3-1.9-2.3-3.1-.8-4.6l1.9-1.9-.9-.8,1.5-1.5.9.8,1-1,2.1,1.1-1.5,1.5,1.1,1.1-1.5,1.5-1.1-1.1Z"/><path d="m225.05,326.77c.29.47.76.79,1.3.9v2.1c-1.25-.09-2.38-.81-3-1.9-1.28-1.76-.89-4.21.87-5.49,1.76-1.28,4.21-.89,5.49.87,1.28,1.76.89,4.21-.87,5.49-.06.04-.12.09-.19.13-.25.17-.51.31-.8.4l-2.9-4.4c-.42.65-.38,1.49.1,2.1v-.2Zm3-.3c.53-.55.57-1.4.1-2-.36-.69-1.18-.99-1.9-.7l1.8,2.7Z"/><path d="m234.45,332.97l-2.4.9c-.11-.99-.99-1.7-1.98-1.6-.14.02-.28.05-.42.1l-3.2,1.2-.8-2.1,7-2.7.8,2.1-1.2.5c1,.02,1.87.66,2.2,1.6Z"/><path d="m236.05,342.17l-7.6-1.4c-2.5-.5-3.6-1.6-3.8-3.7l2.1-.3c.04.85.67,1.55,1.5,1.7l6.6-4,.4,2.4-4.3,2.3,4.8.7.4,2.4-.1-.1Z"/><path class="cls-40" d="m359.2,196.86c.6,0,1.19.02,1.79.03,1.01.01,1.85.83,1.86,1.85.01.93,0,1.87,0,2.8,0,7.91,0,15.81,0,23.72,0,.51-.02,1.04-.17,1.53-.19.59-.91,1.12-1.52,1.12-6.7,0-13.39,0-20.09,0-.03,0-.06,0-.09-.01,0-1.82,0-3.64,0-5.46,1.39,0,2.79,0,4.18-.01.18,0,.38.04.38-.25.01-.69.06-1.39-.1-2.06-.43-1.78-.95-3.54-1.4-5.32-.12-.48-.26-.95-.43-1.42-.27-.73.23-1.11.67-1.51.72-.66,1.02-1.49,1.19-2.44.36-1.99-1.32-4.38-3.22-4.99-.06-.1-.14-.15-.27-.1-.1-.02-.19-.04-.29-.06-.04-.06-.1-.08-.17-.04-.19-.03-.37-.05-.56-.08,0-2.42,0-4.84,0-7.25,3.43,0,6.86-.01,10.3-.02.21,0,.43-.02.64-.03,1.23.04,2.45.06,3.68,0,1.2.07,2.41.05,3.61,0Z"/><path class="cls-20" d="m340.97,222.44c0,1.82,0,3.64,0,5.46-.69,0-1.38.01-2.07.01-5.84,0-11.68-.03-17.52.02-1.54.01-2.33-.83-2.33-2.33.05-8.93.04-17.87,0-26.8,0-1.07.86-1.93,1.88-1.91.6.01,1.19-.01,1.79-.02,1.2.03,2.41.06,3.61-.02,1.23.07,2.45.04,3.68.02.2,0,.4.02.6.02,3.45,0,6.89.01,10.34.01,0,2.42,0,4.84,0,7.25-.39.18-.82.09-1.22.25-1.7.66-2.83,1.81-3.24,3.63-.07.04-.13.09-.04.16-.14,1.5.02,2.88,1.37,3.87.42.31.59.78.42,1.37-.11.36-.24.71-.33,1.08-.24,1-.5,2-.77,3-.19.74-.42,1.46-.6,2.2-.18.73-.13,1.48-.16,2.23-.01.38.09.5.48.49,1.36-.02,2.73,0,4.09,0Z"/><path class="cls-30" d="m326.36,196.85c-1.2.08-2.41.05-3.61.02,0-3.25-.03-6.5.02-9.75.02-1.5.22-2.99.66-4.45.53-1.76,1.27-3.4,2.28-4.92,1.26-1.9,2.82-3.53,4.69-4.86,1.22-.87,2.51-1.65,3.92-2.14,1.4-.49,2.82-.97,4.34-1.08.85-.06,1.69-.19,2.55-.17,2.12.04,4.17.46,6.16,1.2,1.99.75,3.78,1.83,5.41,3.19,1.4,1.17,2.56,2.55,3.54,4.08.69,1.08,1.24,2.24,1.71,3.44.26.66.43,1.35.66,2.02.21.61.25,1.28.32,1.92.42,3.83.1,7.67.2,11.51-1.2.04-2.41.06-3.61,0,0-2.74-.02-5.49.01-8.23.02-1.58-.18-3.12-.57-4.64-.54-2.14-1.54-4.07-2.98-5.72-1.77-2.02-3.91-3.54-6.51-4.37-1.84-.58-3.7-.77-5.64-.65-1.79.1-3.47.53-5.07,1.27-2.66,1.24-4.75,3.13-6.3,5.63-1.34,2.15-2.07,4.52-2.16,7.01-.12,3.23-.03,6.47-.02,9.7Z"/><path class="cls-12" d="m351.91,196.86c0-2.91.02-5.82,0-8.73-.02-1.55-.23-3.08-.85-4.52-.49-1.14-1.15-2.18-1.97-3.13-1.22-1.41-2.73-2.4-4.45-3.01-1.58-.57-3.25-.77-4.96-.55-1.04.13-2.05.37-3,.78-2.62,1.14-4.54,3.01-5.73,5.64-.56,1.23-.78,2.51-.85,3.84-.16,3.23-.02,6.46-.07,9.69-1.23.02-2.45.05-3.68-.02,0-3.23-.09-6.47.02-9.7.09-2.5.82-4.86,2.16-7.01,1.55-2.49,3.64-4.39,6.3-5.63,1.6-.74,3.28-1.17,5.07-1.27,1.93-.11,3.8.07,5.64.65,2.59.82,4.74,2.34,6.51,4.37,1.45,1.65,2.44,3.58,2.98,5.72.39,1.52.59,3.07.57,4.64-.03,2.74-.01,5.49-.01,8.23-1.23.06-2.45.05-3.68,0Z"/><path class="cls-21" d="m340.97,222.44c-1.36,0-2.73-.02-4.09,0-.39,0-.49-.12-.48-.49.03-.74-.02-1.5.16-2.23.18-.74.4-1.47.6-2.2.26-1,.53-1.99.77-3,.09-.37.22-.72.33-1.08.17-.59,0-1.06-.42-1.37-1.35-.99-1.5-2.37-1.37-3.87.07-.04.07-.1.04-.16.41-1.81,1.53-2.96,3.24-3.63.4-.16.84-.07,1.22-.25.19.03.37.05.55.08.04.1.08.15.17.04.1.02.19.04.29.06.05.13.16.1.27.1,1.9.61,3.57,3,3.22,4.99-.17.95-.47,1.78-1.19,2.44-.44.4-.94.78-.67,1.51.17.46.31.94.43,1.42.46,1.78.97,3.54,1.4,5.32.16.66.11,1.37.1,2.06,0,.29-.21.25-.38.25-1.39,0-2.79,0-4.18.01Z"/><path class="cls-12" d="m342.26,204.44c-.1,0-.21.03-.27-.1.12-.06.2,0,.27.1Z"/><path class="cls-12" d="m341.7,204.28c-.09.11-.13.06-.17-.04.07-.04.12-.02.17.04Z"/><path class="cls-30" d="m336.51,208.03c.04.07.04.12-.04.16-.09-.08-.04-.12.04-.16Z"/><circle class="cls-2" cx="341.13" cy="201.47" r="46.87"/></svg>