<?xml version="1.0" encoding="UTF-8"?><svg id="Layer_1" xmlns="http://www.w3.org/2000/svg" viewBox="0 0 400 400"><defs><style>.cls-1{fill:#bbeb6c;}.cls-2{fill:#68d4f0;}.cls-3{fill:#f3c64b;}.cls-4{fill:#c7eefd;}.cls-5{fill:#fff;}.cls-6{fill:#6c7fd7;}.cls-7{stroke:#0018c6;}.cls-7,.cls-8,.cls-9{stroke-width:4px;}.cls-7,.cls-8,.cls-9,.cls-10{stroke-miterlimit:10;}.cls-7,.cls-8,.cls-9,.cls-10,.cls-11{fill:none;}.cls-8{stroke:#c000e2;}.cls-12{fill:#010100;}.cls-13{fill:#4f66cf;}.cls-14{fill:#f66c82;}.cls-15{fill:#636c77;}.cls-16{fill:#c9f674;}.cls-17{fill:#020202;}.cls-18{fill:#fbcc57;}.cls-9{stroke:#00b51e;}.cls-19{fill:#e9f5fe;}.cls-10{stroke:#231f20;stroke-width:2px;}.cls-20{fill:#e2e9f1;}.cls-21{fill:#c5deea;}.cls-22{fill:#396ebc;}.cls-23{fill:#e5ecf3;}.cls-24{fill:#073856;}.cls-25{fill:#8e9da9;}.cls-26{fill:#c3dbe6;}.cls-27{fill:#999;}.cls-28{fill:#99e4fb;}.cls-29{fill:#a6e9f7;}.cls-30{fill:#e3eaf2;}.cls-31{fill:#db411d;}.cls-32{fill:#231f20;}.cls-33{fill:#666;}.cls-34{fill:#010101;}.cls-35{fill:#69d4f0;}.cls-36{fill:#b72b06;}.cls-37{fill:#ec6363;}</style></defs><line class="cls-5" x1="199.75" y1="250.73" x2="200.25" y2="283.5"/><line class="cls-10" x1="199.75" y1="250.73" x2="200.09" y2="272.74"/><polygon class="cls-32" points="192.57 270.67 200.25 283.5 207.53 270.44 192.57 270.67"/><line class="cls-11" x1="154.68" y1="115.12" x2="188.32" y2="142.3"/><line class="cls-10" x1="154.68" y1="115.12" x2="179.95" y2="135.54"/><polygon class="cls-32" points="173.55 139.98 188.32 142.31 182.95 128.35 173.55 139.98"/><line class="cls-11" x1="245.32" y1="115.12" x2="211.68" y2="142.3"/><line class="cls-10" x1="245.32" y1="115.12" x2="220.05" y2="135.54"/><polygon class="cls-32" points="217.05 128.35 211.68 142.3 226.45 139.98 217.05 128.35"/><circle class="cls-8" cx="200" cy="196.37" r="45"/><path d="m159.5,196.57l.6-2.5h7.6c0-.1-6.7-3.7-6.7-3.7l.4-1.9,7.6-.3-6.8-3.4.6-2.5,9.6,5.2-.6,2.7-6.4.3,5.7,3.1-.6,2.7-10.9.5-.1-.2Z"/><path d="m171.1,174.87l6.3,4.1-1.2,1.9-.6-.4c.2.82.05,1.69-.4,2.4-1.37,1.73-3.89,2.03-5.62.66-1.5-1.18-1.95-3.26-1.08-4.96.42-.75,1.15-1.26,2-1.4l-.6-.4,1.2-1.9Zm1.9,3.9c-.75-.57-1.81-.42-2.38.32-.04.06-.08.12-.12.18-.55.73-.41,1.77.32,2.33.09.07.18.13.28.17.74.57,1.8.43,2.37-.31.05-.06.09-.13.13-.19.55-.73.41-1.77-.32-2.33-.09-.07-.18-.13-.28-.17h0Z"/><path d="m176.6,172.47l1.9,1.9c.5.5.9.1,1.6-.6l1.4,1.5c-1.9,2.3-3.1,2.2-4.6.7l-1.9-1.9-.9.8-1.5-1.5.9-.8-1-1,1.1-2.1,1.5,1.5,1.1-1.1,1.5,1.5-1.1,1.1Z"/><path d="m179.5,171.77c-1.19-1.82-.69-4.26,1.13-5.46.02-.01.05-.03.07-.04,1.17-.76,2.66-.84,3.9-.2l-1,2c-.78-.48-1.8-.22-2.28.56-.35.57-.32,1.3.08,1.84.42.78,1.39,1.07,2.17.65.08-.04.16-.1.23-.15.56-.28.88-.88.8-1.5h2.3c-.01,1.33-.69,2.57-1.8,3.3-1.8,1.2-4.24.71-5.43-1.1-.02-.03-.04-.07-.07-.1l-.1.2Z"/><path d="m193.4,164.27l1.4,4.4-2.1.7-1.3-4.1c-.22-.71-.98-1.1-1.69-.88s-1.1.98-.88,1.69c.02.06.04.13.07.19l1.3,3.9-2.1.7-3.3-10,2.1-.7,1.2,3.5c.28-.76.92-1.32,1.7-1.5,1.41-.51,2.97.23,3.48,1.64.05.15.09.3.12.46Z"/><path d="m195.4,162.97l5.7-.4.2,2.2-5.7.4-.2-2.2Z"/><path d="m202.5,165.67l2.2-.8c.18.95.94,1.67,1.9,1.8,1.1.2,1.5-.2,1.5-.6.1-.6-.4-1-1.9-1.7s-2.8-1.7-2.5-3.7c.32-1.78,2.03-2.96,3.81-2.64.06.01.12.02.19.04,1.64.22,2.98,1.4,3.4,3l-2.2.8c-.14-.8-.79-1.42-1.6-1.5-.7-.1-1.2.2-1.2.6s.1.8,1.6,1.6c1.5.8,3.2,1.6,2.8,3.8-.3,2-2.1,2.9-4.4,2.5-2.3-.4-3.4-1.6-3.7-3.3l.1.1Z"/><path d="m214.9,169.57c.45.3,1.05.3,1.5,0l1.2,1.7c-1.12.6-2.48.6-3.6,0-2.04-.84-3.02-3.18-2.18-5.22.02-.06.05-.12.08-.18.89-1.97,3.2-2.85,5.17-1.96.04.02.09.04.13.06,1.92.9,2.75,3.19,1.84,5.11-.01.03-.03.06-.04.09-.13.29-.3.56-.5.8l-4.8-2.3c-.03.77.46,1.47,1.2,1.7v.2Zm2.4-1.9c.18-.74-.2-1.5-.9-1.8-.67-.4-1.53-.22-2,.4l2.9,1.4Z"/><path d="m226.4,174.37l-3,3.5-1.7-1.5,2.8-3.3c.5-.51.49-1.32-.02-1.82-.03-.03-.05-.05-.08-.08-.59-.51-1.48-.44-1.99.15-.04.05-.08.1-.11.15l-2.7,3.1-1.7-1.5,4.9-5.7,1.7,1.5-.5.5c.81-.2,1.66.07,2.2.7,1.2,1,1.4,2.6.1,4.2l.1.1Z"/><path d="m229.2,181.97c-1.4,1-2.9.2-3.8-1.1-.91-1.02-1.07-2.51-.4-3.7l2,.9c-.35.48-.35,1.12,0,1.6.3.4.6.6.9.4.7-.5-1.9-3.2.3-4.7,1.3-1,2.8-.3,3.7.9.72.95.87,2.21.4,3.3l-2-.9c.2-.38.2-.82,0-1.2-.13-.26-.42-.38-.7-.3-.7.5,1.9,3.2-.3,4.8h-.1Z"/><path d="m231,181.97c1.98-.86,4.27.05,5.13,2.03.02.06.05.12.07.17.89,1.93.05,4.22-1.88,5.11-.07.03-.14.06-.22.09-2.04.86-4.39-.11-5.25-2.15s.11-4.39,2.15-5.25h0Zm2.2,5.3c.87-.39,1.26-1.42.87-2.29-.39-.87-1.42-1.26-2.29-.87-.86.39-1.25,1.39-.88,2.26.34.87,1.33,1.29,2.19.95.04-.01.07-.03.11-.05Z"/><path d="m238.8,194.57l-2.5.4c.1-.97-.61-1.83-1.58-1.93-.17-.02-.35,0-.52.03l-3.3.6-.4-2.2,7.4-1.3.4,2.2-1.3.2c1,.16,1.75.99,1.8,2Z"/><path d="m233.5,202.19c-1.7,0-2.4-1.5-2.4-3.2-.1-1.33.61-2.6,1.8-3.2l1.1,2c-.58.15-.96.7-.9,1.3,0,.5.2.8.5.8.8,0,.5-3.7,3-3.6,1.6,0,2.4,1.4,2.4,3,.02,1.21-.64,2.33-1.7,2.9l-1-1.9c.42-.16.69-.56.7-1,0-.4-.1-.6-.4-.6-.9,0-.3,3.7-3.1,3.6v-.1Z"/><path class="cls-15" d="m203.2,192.27h4.6c1.5-.1,2.8,1.04,2.9,2.55,0,.12,0,.23,0,.35v15.4c0,2.1-1.1,3.2-3.1,3.2h-15.1c-1.54.18-2.92-.93-3.1-2.46-.02-.21-.02-.42,0-.64v-15.1c0-2.1,1.1-3.2,3.1-3.2h10.7v-.1Zm1,6.1v-1.4c0-.4-.4-.6-.8-.6-.37.01-.69.25-.8.6v1.1h-1.7v-.88c0-.44-.34-.79-.78-.8,0,0-.01,0-.02,0-.43.03-.77.37-.8.8v.9h-1.7v-.9c0-.44-.36-.8-.8-.8s-.8.36-.8.8h0v1.2l-.5.5h-1.1c-.45-.04-.85.29-.9.74,0,.02,0,.04,0,.06.04.46.44.81.9.8h.8v1.7h-.9c-.44,0-.8.36-.8.8s.36.8.8.8h.9v1.7h-.8c-.41-.03-.77.27-.8.67,0,.04,0,.08,0,.13,0,.44.34.79.78.8,0,0,.01,0,.02,0h1.2l.5.5v1.3c.04.41.39.72.8.7.4-.02.73-.31.8-.7v-1h1.7v.9c0,.44.36.8.8.8s.8-.36.8-.8v-.9h1.7v.9c0,.44.36.8.8.8s.8-.36.8-.8v-1.2l.5-.5h1.2c.5,0,.9-.4.8-.8,0-.44-.34-.79-.78-.8,0,0-.01,0-.02,0h-.8v-1.7h.9c.44,0,.8-.36.8-.8s-.36-.8-.8-.8h-.9v-1.7h.8c.46.01.86-.34.9-.8,0-.45-.38-.81-.84-.8-.02,0-.04,0-.06,0h-1.1l-.5-.5-.2-.02Z"/><path class="cls-2" d="m177.2,194.47c-.04.26-.14.5-.3.7-2.09,2.14-3.24,5.01-3.2,8-.01,2.89,1.14,5.67,3.2,7.7.35.25.47.71.3,1.1-.22.4-.72.56-1.12.34-.11-.06-.2-.14-.28-.24-1.3-1.24-2.26-2.79-2.8-4.5-1.78-4.58-.73-9.78,2.7-13.3l.4-.4c.23-.2.57-.2.8,0,.27.12.44.4.4.7l-.1-.1Z"/><path class="cls-2" d="m208.5,180.19c-.28-.03-.53-.17-.7-.4-4.42-4.18-11.34-4.13-15.7.1-.5.5-1,.5-1.3,0-.26-.29-.23-.74.06-1,.04-.04.09-.07.14-.1,4.99-4.79,12.86-4.83,17.9-.1.18.12.33.29.4.5.2.36.07.81-.28,1.01-.13.07-.27.1-.42.09l-.1-.1Z"/><path class="cls-2" d="m227.9,202.97c0,3.3-1.24,6.49-3.5,8.9l-.2.2c-.33.28-.82.24-1.1-.08-.25-.29-.25-.73,0-1.02.71-.71,1.31-1.52,1.8-2.4,2.49-4.34,1.8-9.82-1.7-13.4-.35-.25-.44-.74-.2-1.1.21-.36.67-.48,1.02-.28.11.07.21.16.28.28,1.5,1.58,2.6,3.5,3.2,5.6.32,1.11.49,2.25.5,3.4l-.1-.1Z"/><path class="cls-2" d="m200,230.87c-3.28.03-6.44-1.23-8.8-3.5l-.2-.2c-.33-.25-.4-.72-.15-1.05.04-.06.09-.11.15-.15.31-.33.83-.35,1.16-.04.01.01.03.03.04.04.7.68,1.47,1.29,2.3,1.8,4.33,2.54,9.84,1.85,13.4-1.7.27-.32.71-.44,1.1-.3.5.3.6.9,0,1.4-1.58,1.5-3.5,2.6-5.6,3.2-1.11.32-2.25.49-3.4.5Z"/><path class="cls-2" d="m200.3,227.07c-2.44.05-4.8-.85-6.6-2.5-.35-.25-.44-.74-.2-1.1.21-.36.67-.48,1.02-.28.11.07.21.16.28.28,2.85,2.66,7.25,2.75,10.2.2l.2-.2c.25-.33.72-.4,1.05-.15.06.04.11.09.15.15.33.31.35.83.04,1.16-.01.01-.03.03-.04.04-1.01,1.01-2.24,1.76-3.6,2.2-.77.25-1.58.39-2.4.4l-.1-.2Z"/><path class="cls-2" d="m199.6,178.87c2.48-.08,4.88.81,6.7,2.5.5.5.5.9.2,1.3s-.8.3-1.3-.1c-2.86-2.7-7.34-2.7-10.2,0-.5.5-.9.5-1.3.1s-.3-.8.1-1.2c1.53-1.56,3.61-2.46,5.8-2.5v-.1Z"/><path class="cls-2" d="m175.9,202.97c.02-2.29.87-4.49,2.4-6.2.5-.5.9-.6,1.3-.2s.3.8-.2,1.3c-2.7,2.86-2.7,7.34,0,10.2.32.27.44.71.3,1.1-.21.36-.67.48-1.02.28-.11-.07-.21-.16-.28-.28-1.26-1.25-2.09-2.86-2.4-4.6-.08-.56-.12-1.13-.1-1.7v.1Z"/><path class="cls-2" d="m224.1,203.07c.04,2.32-.87,4.55-2.5,6.2-.5.5-.9.6-1.3.2s-.3-.8.1-1.3c2.7-2.9,2.7-7.4,0-10.3-.4-.5-.5-.9-.1-1.2s.8-.3,1.3.1c1.63,1.69,2.53,3.95,2.5,6.3Z"/><path class="cls-14" d="m196.8,213.77h6v2c0,1.1-.9,2-2,2h-2.1c-1.1,0-2-.9-2-2v-2h.1Z"/><path class="cls-14" d="m203.2,192.27h-6v-2c0-1.1.9-2,2-2h2.1c1.1,0,2,.9,2,2v2h-.1Z"/><path class="cls-14" d="m189.3,199.77v6h-2c-1.1,0-2-.9-2-2v-2.1c0-1.1.9-2,2-2h2v.1Z"/><path class="cls-14" d="m210.8,206.19v-6h2c1.1,0,2,.9,2,2v2.1c0,1.1-.9,2-2,2h-2v-.1Z"/><path class="cls-35" d="m220.3,202.97c.02,1.36-.52,2.66-1.5,3.6-.4.4-.8.5-1.1.1-.33-.31-.35-.83-.04-1.16.01-.01.03-.03.04-.04,1.4-1.41,1.4-3.69,0-5.1-.3-.34-.3-.86,0-1.2.3-.4.7-.3,1.1,0,.99.97,1.54,2.31,1.5,3.7v.1Z"/><path class="cls-35" d="m200,182.67c1.3.01,2.55.51,3.5,1.4.5.5.6.9.3,1.3-.3.36-.84.4-1.2.1-.04-.03-.07-.07-.1-.1-1.08-.91-2.57-1.17-3.9-.7-.4.17-.77.41-1.1.7-.5.4-.9.4-1.2,0-.29-.31-.27-.8.04-1.09.05-.04.1-.08.16-.11.98-.91,2.27-1.41,3.6-1.4l-.1-.1Z"/><path class="cls-35" d="m200,223.27c-1.28-.02-2.52-.48-3.5-1.3-.6-.5-.6-.9-.3-1.3s.8-.4,1.3,0c1.11,1.05,2.77,1.25,4.1.5l.9-.6c.3-.33.81-.36,1.14-.06.02.02.04.04.06.06.3.3.3.7-.1,1.1-.97.94-2.25,1.47-3.6,1.5v.1Z"/><path class="cls-35" d="m179.7,202.97c.01-1.3.51-2.55,1.4-3.5.5-.6.9-.6,1.3-.3s.4.8,0,1.3c-.93,1.08-1.17,2.59-.6,3.9.2.39.43.76.7,1.1.4.5.4.9,0,1.2-.4.4-.8.3-1.2-.2-.95-.95-1.46-2.26-1.4-3.6l-.2.1Z"/><path class="cls-18" d="m205,203.77v1.7c.06.55-.05,1.11-.3,1.6l-.5.5c-.51.2-1.05.3-1.6.3h-5.1c-.55.06-1.11-.05-1.6-.3l-.5-.5c-.25-.5-.35-1.05-.3-1.6v-5.1c-.06-.55.05-1.11.3-1.6l.5-.5c.5-.25,1.05-.35,1.6-.3h5.1c.55-.06,1.11.05,1.6.3l.5.5c.2.51.3,1.05.3,1.6v3.4h0Z"/><path class="cls-26" d="m205,200.47c.06-.55-.05-1.11-.3-1.6h1.1c.45-.04.85.29.9.74,0,.02,0,.04,0,.06-.04.46-.44.81-.9.8h-.8Z"/><path class="cls-26" d="m204.7,207.07c.2-.51.3-1.05.3-1.6h.8c.41-.03.77.27.8.67,0,.04,0,.08,0,.13,0,.44-.34.79-.78.8,0,0-.01,0-.02,0h-1.1Z"/><path class="cls-26" d="m195.9,207.67c.51.2,1.05.3,1.6.3v1c-.04.41-.39.72-.8.7-.4-.02-.73-.31-.8-.7v-1.3Z"/><path class="cls-26" d="m202.5,207.97c.55.06,1.11-.05,1.6-.3v1.2c.03.41-.27.77-.67.8-.04,0-.08,0-.13,0-.5,0-.7-.3-.8-.8v-.9Z"/><path class="cls-26" d="m197.5,197.97c-.55-.06-1.11.05-1.6.3v-1.2c-.03-.41.27-.77.67-.8.04,0,.08,0,.13,0,.5,0,.7.3.8.8v.9Z"/><path class="cls-26" d="m204.1,198.37c-.5-.25-1.05-.35-1.6-.3v-1.1c0-.4.4-.6.8-.6.38-.03.72.23.8.6.05.47.05.93,0,1.4Z"/><path class="cls-26" d="m195.4,198.87c-.25.5-.35,1.05-.3,1.6h-.8c-.46.01-.86-.34-.9-.8,0-.45.38-.81.84-.8.02,0,.04,0,.06,0h1.1Z"/><path class="cls-26" d="m195,205.47c-.06.55.05,1.11.3,1.6h-1.2c-.5,0-.9-.4-.8-.8,0-.44.34-.79.78-.8,0,0,.01,0,.02,0h.9Z"/><path class="cls-21" d="m200.8,197.97h-1.6v-.9c0-.44.36-.8.8-.8s.8.36.8.8v.9Z"/><path class="cls-21" d="m195,202.19v1.6h-.9c-.44,0-.79-.34-.8-.78,0,0,0-.01,0-.02.03-.43.37-.77.8-.8h.9Z"/><path class="cls-21" d="m205,203.77v-1.58h.9c.44,0,.79.34.8.78,0,0,0,.01,0,.02-.03.43-.37.77-.8.8l-.9-.02Z"/><path class="cls-21" d="m199.2,207.97h1.6v.9c0,.44-.34.79-.78.8,0,0-.01,0-.02,0-.43-.03-.77-.37-.8-.8v-.9Z"/><circle class="cls-7" cx="287.12" cy="62.32" r="45"/><path class="cls-22" d="m272.12,68.52v-17.33c-.2-3.5,2.48-6.5,5.98-6.7.24-.01.48-.01.72,0h16.5c3.47-.22,6.46,2.42,6.68,5.89.02.27.02.54,0,.81v34.8c.2,3.5-2.48,6.5-5.98,6.7-.24.01-.48.01-.72,0h-16.5c-3.47.23-6.47-2.4-6.7-5.87-.02-.28-.02-.55,0-.83l.02-17.47Zm1.5,0v17.5c-.18,2.63,1.8,4.92,4.44,5.1.22.02.44.02.66,0h16.7c2.63.18,4.92-1.8,5.1-4.44.02-.22.02-.44,0-.66v-34.9c.18-2.63-1.8-4.92-4.44-5.1-.22-.02-.44-.02-.66,0h-16.7c-2.63-.18-4.92,1.8-5.1,4.44-.02.22-.02.44,0,.66v17.4h0Z"/><path class="cls-34" d="m273.62,68.62v-17.5c-.18-2.63,1.8-4.92,4.44-5.1.22-.02.44-.02.66,0h16.7c2.63-.18,4.92,1.8,5.1,4.44.02.22.02.44,0,.66v34.9c.18,2.63-1.8,4.92-4.44,5.1-.22.02-.44.02-.66,0h-16.7c-2.63.18-4.92-1.8-5.1-4.44-.02-.22-.02-.44,0-.66v-17.4h0Zm1.5,0v17.4c-.19,1.8,1.11,3.41,2.9,3.6.23.02.47.02.7,0h16.5c1.8.19,3.41-1.11,3.6-2.9.02-.23.02-.47,0-.7v-34.83c.19-1.8-1.11-3.41-2.9-3.6-.23-.02-.47-.02-.7,0h-16.5c-2.4,0-3.6,1.3-3.6,3.6v17.43Z"/><path class="cls-3" d="m275.22,68.62v-17.43c-.19-1.8,1.11-3.41,2.9-3.6.23-.02.47-.02.7,0h16.5c2.4,0,3.6,1.3,3.6,3.6v34.8c.19,1.8-1.11,3.41-2.9,3.6-.23.02-.47.02-.7,0h-16.5c-1.8.19-3.41-1.11-3.6-2.9-.02-.23-.02-.47,0-.7v-17.37Zm12.6-1.6c.1-.4.5-.6.7-.9.3-.5.7-.5,1.2-.2.7.4,1.4.7,2.1,1.1.72.42,1.62.38,2.3-.1,1.1-.8,2.3-1.6,3.4-2.4.99-.65,1.27-1.99.61-2.98,0,0,0-.01-.01-.02-.65-.96-1.96-1.21-2.92-.56-.03.02-.06.04-.08.06-.71.41-1.37.88-2,1.4-.2.1-.3.3-.6.2-.5-.2-.9-.5-1.5-.7,2.1-.8,2.9-2.1,2.4-3.7-.47-1.42-1.95-2.25-3.4-1.9-.69.18-1.29.61-1.7,1.2-.6.91-.6,2.09,0,3-1-.5-1.9-1-2.7-1.4-.8-.5-1.84-.38-2.5.3-1.2,1-2.4,2.1-3.6,3.1-.94.7-1.13,2.03-.42,2.97,0,.01.02.02.02.03.64.9,1.89,1.11,2.79.47.11-.08.22-.17.31-.27l2.2-1.9c.2-.1.3-.4.8-.2-.7.8-1.4,1.5-2.1,2.2-2.2,2.1-4.3,4.2-6.5,6.3-.86.7-.98,1.96-.29,2.81.09.1.18.2.29.29.84.8,2.16.8,3,0,.5-.5,1.1-1,1.6-1.5,1.1-1.1,2.2-2.1,3.3-3.2.3-.2.5-.3.7,0s0,.4-.2.5c-.4.5-.9.9-1.3,1.4-.78.9-.69,2.26.21,3.05.83.72,2.08.7,2.89-.05,1.2-1.2,2.4-2.5,3.5-3.8.8-.76.84-2.02.08-2.83-.19-.2-.42-.36-.68-.47-.58-.37-1.18-.71-1.8-1h0l-.1-.3Zm-.6,11.8h-6.4c-.6,0-1.1,0-1.1.8s.5.8,1.1.8h12.7c.6,0,1.1,0,1.1-.8s-.5-.8-1.1-.8h-6.3Zm-.2,4.3h6.4c.6,0,1.1,0,1.1-.8s-.5-.8-1.1-.8h-12.7c-.6,0-1.1,0-1.1.8s.5.8,1.1.8h6.3Zm4.2,2.8h2.5c.5,0,.9-.2.9-.8s-.4-.8-.9-.8h-4.9c-.5,0-.9.2-.9.7s.4.8.9.8h2.4v.1Zm-4.1-35.73h-1.5c-.41-.03-.77.27-.8.67,0,.04,0,.08,0,.13,0,.5.3.7.8.7h3c.44,0,.8-.36.8-.8,0-.44-.36-.8-.8-.8h-1.5v.1Z"/><path class="cls-17" d="m287.82,67.02c.6.3,1.2.7,1.8,1,1.03.47,1.48,1.69,1,2.72-.1.21-.23.41-.4.58-1.1,1.3-2.3,2.6-3.5,3.8-.73.83-1.99.91-2.82.18-.06-.06-.12-.11-.18-.18-.83-.81-.88-2.13-.1-3,.4-.5.9-.9,1.3-1.4.1-.1.5-.3.2-.5s-.5-.2-.7,0c-1.1,1.1-2.2,2.1-3.3,3.2-.5.5-1.1,1-1.6,1.5-.73.83-1.99.91-2.82.18-.06-.06-.12-.11-.18-.18-.86-.8-.9-2.14-.1-3,.03-.04.07-.07.1-.1,2.2-2.1,4.3-4.2,6.5-6.3.7-.7,1.4-1.5,2.1-2.2-.4-.2-.6,0-.8.2-.7.6-1.4,1.3-2.2,1.9-.92.8-2.31.7-3.1-.21,0,0-.01-.01-.02-.02-.72-.92-.56-2.26.37-2.98.01,0,.02-.02.03-.02,1.2-1.1,2.4-2.1,3.6-3.1.68-.64,1.69-.76,2.5-.3.9.5,1.7.9,2.7,1.4-.5-.94-.5-2.06,0-3,.41-.59,1.01-1.02,1.7-1.2,1.46-.37,2.95.47,3.4,1.9.5,1.6-.3,2.9-2.4,3.7.48.27.98.51,1.5.7.3.1.4,0,.6-.2.64-.5,1.31-.97,2-1.4.93-.7,2.24-.51,2.94.42.02.03.04.06.06.08.68.92.48,2.22-.44,2.89-.05.04-.1.07-.16.11-1.1.8-2.3,1.6-3.4,2.4-.68.48-1.58.52-2.3.1-.7-.4-1.4-.7-2.1-1.1-.5-.3-.8-.3-1.2.2-.26.28-.49.58-.7.9l.12.33Zm-2.7,7.3c.26,0,.49-.16.6-.4l3.1-3.4c.5-.6.5-.8-.2-1.3s-1.5-.8-2.3-1.3-.9-.9-.2-1.6c.8-.9,1.7-1.8,2.5-2.7.6-.7.6-.9-.2-1.4-1.2-.6-2.4-1.3-3.5-1.9-.3-.2-.7-.2-1,0-1.1,1-2.3,2-3.5,3-.3.3-.5.6-.2.9s.7.2,1,0l1.8-1.5c1.8-1.5,1.2-1.5,3.4-.3.9.5.9.9.3,1.6-.9.9-1.7,1.8-2.6,2.8-.5.6-.5.8.2,1.2s1.5.8,2.3,1.3.9.9.3,1.6-1.3,1.4-2,2.2c-.21.21-.29.52-.2.8,0,.2.3.3.5.3h0l-.1.1Zm11.8-11.6c0-.5-.6-.7-1.1-.4-.8.6-1.7,1.1-2.5,1.7-.36.35-.94.35-1.3,0l-1.2-.6c-.3-.1-.4,0-.4.2s-.6.5-.2.8c.7.4,1.6.8,2.3,1.2.2.1.4,0,.6-.2,1.1-.7,2.2-1.5,3.2-2.2.2-.2.4-.3.4-.6h0l.2.1Zm-13.8,6.7c-.2-.2-.3-.4-.5-.6s-.3-.3-.6,0c-1.5,1.5-3.1,3-4.6,4.4-.3.3-.4.6-.1.9s.6.2.9,0c1.6-1.6,3.3-3.1,4.8-4.6h0l.1-.1Zm6.3-10.4c.01.71.59,1.29,1.3,1.3.68-.02,1.22-.59,1.2-1.28,0,0,0-.01,0-.02,0-.68-.52-1.25-1.2-1.3-.71.01-1.29.59-1.3,1.3h0Z"/><path class="cls-12" d="m287.22,78.82h6.3c.6,0,1.1,0,1.1.8s-.5.8-1.1.8h-12.7c-.6,0-1.1,0-1.1-.8s.5-.8,1.1-.8h6.4Z"/><path class="cls-12" d="m287,83.12h-6.3c-.6,0-1.1,0-1.1-.8s.5-.8,1.1-.8h12.7c.6,0,1.1,0,1.1.8s-.5.8-1.1.8h-6.4Z"/><path class="cls-34" d="m291.22,85.92h-2.4c-.5,0-.9-.2-.9-.8s.4-.7.9-.7h4.9c.5,0,.9.2.9.8s-.3.8-.9.8h-2.5v-.1Z"/><path class="cls-17" d="m287.12,50.19h1.5c.44,0,.8.36.8.8,0,.44-.36.8-.8.8h-3c-.39.05-.74-.23-.79-.61,0-.03,0-.06,0-.09-.03-.41.27-.77.67-.8.04,0,.08,0,.13,0h1.5v-.1Z"/><path class="cls-23" d="m285.12,74.32c-.21,0-.4-.11-.5-.3-.08-.28,0-.59.2-.8.7-.7,1.3-1.4,2-2.2s.6-1.1-.3-1.6-1.5-.8-2.3-1.3-.7-.6-.2-1.2c.8-.9,1.7-1.8,2.6-2.8.7-.7.6-1.1-.3-1.6-2.2-1.1-1.6-1.2-3.4.3l-1.8,1.5c-.3.3-.7.4-1,0s0-.7.2-.9c1.2-1,2.3-2,3.5-3,.4-.3.7-.3,1,0,1.2.6,2.4,1.3,3.5,1.9.8.4.8.7.2,1.4-.8.9-1.7,1.8-2.5,2.7-.6.7-.6,1.1.2,1.6s1.5.8,2.3,1.3.8.7.2,1.3l-3.1,3.4c-.2.2-.4.4-.6.4l.1-.1Z"/><path class="cls-30" d="m297,62.72c0,.3-.2.4-.4.6-1.1.7-2.2,1.5-3.2,2.2-.2.1-.4.3-.6.2-.8-.34-1.57-.74-2.3-1.2-.4-.3.1-.5.2-.8s.1-.4.4-.2l1.2.6c.4.25.9.25,1.3,0,.79-.62,1.63-1.19,2.5-1.7.5-.3,1-.2,1.1.4l-.2-.1Z"/><path class="cls-20" d="m283.22,69.42c-1.6,1.5-3.2,3.1-4.8,4.6-.3.3-.6.4-.9,0s-.2-.6.1-.9c1.5-1.5,3.1-2.9,4.6-4.4.3-.3.4-.2.6,0s.3.3.5.6l-.1.1Z"/><path class="cls-23" d="m289.42,58.92c.01-.71.59-1.29,1.3-1.3.68.02,1.22.59,1.2,1.28,0,0,0,.01,0,.02,0,.68-.52,1.25-1.2,1.3-.71-.01-1.29-.59-1.3-1.3Z"/><path d="m249.72,65.02h2.28v-4.5h2.7v4.5h4.4v2.7h-12.1v-7.3h2.7l.02,4.6Z"/><path d="m248.62,57.52c-.83-.17-1.37-.97-1.2-1.8s.97-1.37,1.8-1.2c.83.17,1.37.97,1.2,1.8,0,0,0,0,0,0-.18.82-.98,1.35-1.8,1.2Zm2.3.2l.5-2.5,8.4,1.7-.5,2.5-8.4-1.7Z"/><path d="m255.72,50.32l2.8,1.1c.7.3,1-.3,1.3-1.4l2.2.9c-.9,3.3-2.2,3.8-4.5,2.9l-2.8-1.1-.5,1.3-2.3-.9.5-1.3-1.5-.6.2-2.7,2.2.9.7-1.6,2.3.9-.7,1.7.1-.1Z"/><path d="m263.12,40.19l4.2,3.2-1.5,2.1-3.9-2.9c-.61-.54-1.54-.48-2.07.13-.05.05-.09.11-.13.17-.6.8-.5,1.6.5,2.3l3.8,2.8-1.5,2.1-6.9-5.1,1.5-2.1.7.5c-.18-.91.04-1.86.6-2.6,1-1.4,2.9-1.8,4.8-.5l-.1-.1Z"/><path d="m270.32,38.62c.52-.35.88-.89,1-1.5l2.4-.2c-.02,1.46-.77,2.81-2,3.6-1.87,1.57-4.66,1.33-6.23-.54-.1-.12-.19-.24-.27-.36-1.48-1.98-1.08-4.78.9-6.26.07-.05.13-.1.2-.14,1.88-1.41,4.55-1.03,5.96.85.08.11.16.23.24.35.2.28.37.58.5.9l-5,3.6c.76.44,1.72.36,2.4-.2l-.1-.1Zm-.5-3.5c-.65-.6-1.65-.6-2.3,0-.78.43-1.09,1.4-.7,2.2l3-2.2Z"/><path d="m280.72,33.12c.7,1.9-.7,3.2-2.4,3.9-1.41.66-3.08.38-4.2-.7l1.7-2c.4.51,1.08.72,1.7.5.6-.2.8-.5.7-.8-.3-.9-4.1,1-5.2-1.8-.6-1.8.5-3.2,2.2-3.8,1.28-.51,2.74-.28,3.8.6l-1.7,1.9c-.34-.34-.84-.46-1.3-.3-.4.2-.6.4-.5.7.3.9,4.1-1.1,5.2,1.9v-.1Z"/><path d="m288.12,32.32c.2,2-1.4,3-3.2,3.2-1.51.32-3.05-.32-3.9-1.6l2.1-1.5c.27.61.94.95,1.6.8.6,0,.9-.3.9-.6-.1-.9-4.3,0-4.6-2.9-.2-1.9,1.3-3,3-3.2,1.36-.24,2.74.35,3.5,1.5l-2.1,1.4c-.24-.42-.72-.66-1.2-.6-.36-.02-.66.25-.7.6.1,1,4.2-.2,4.6,3v-.1Z"/><path d="m297.82,30.32l-.8,3c-.2.7.4.9,1.5,1.2l-.6,2.3c-3.4-.5-4.1-1.7-3.4-4.1l.8-3-1.3-.3.6-2.4,1.3.3.4-1.6h2.68c0-.1-.6,2.2-.6,2.2l1.7.4-.6,2.4-1.68-.4Z"/><path d="m307.52,31.42l-1.3,2.6c-.87-.75-2.18-.66-2.93.21-.1.12-.19.25-.27.39l-1.7,3.5-2.3-1.1,3.8-7.7,2.3,1.1-.7,1.4c.82-.82,2.1-.98,3.1-.4Z"/><path d="m316.22,38.62l-5.6,6.5-2-1.7.5-.6c-.96.14-1.93-.2-2.6-.9-1.71-1.63-1.78-4.34-.15-6.05.02-.02.03-.03.05-.05,1.49-1.87,4.22-2.19,6.1-.7.75.62,1.22,1.53,1.3,2.5l.5-.6,2,1.7-.1-.1Zm-4.8,1.6c.75-.86.66-2.16-.19-2.91s-2.16-.66-2.91.19c-.75.86-.66,2.16.19,2.91,0,0,0,0,0,0,.82.74,2.08.68,2.82-.14.03-.03.05-.06.08-.09v.03Z"/><path d="m314.62,43.42c2.15-1.33,4.96-.66,6.29,1.48,0,0,0,.01,0,.02.88,1.36.92,3.1.1,4.5l-2.3-1.3c.4-.57.4-1.33,0-1.9-.5-.89-1.64-1.21-2.53-.71-.06.03-.11.07-.17.11-.92.48-1.28,1.62-.8,2.54.03.06.06.11.1.16.34.61,1.01.96,1.7.9v2.6c-2.53,0-4.59-2.06-4.59-4.59,0-1.59.83-3.07,2.19-3.91v.1Z"/><path d="m316.62,58.19l3-3.6-3.7,1-.7-2.5,11.7-3.1.7,2.5-7,1.9,4.3,1.5.8,2.9-5-1.9-3.3,4.2-.8-2.8v-.1Z"/><path d="m319.32,65.12c-.03.62.18,1.24.6,1.7l-1.2,2c-1.16-.91-1.8-2.33-1.7-3.8,0-2.51,2.04-4.55,4.55-4.55s4.55,2.04,4.55,4.55c-.02,2.4-1.98,4.33-4.37,4.31-.08,0-.15,0-.23,0-.34.02-.67-.01-1-.1v-6.1c-.76.36-1.21,1.17-1.1,2h-.1Zm3.1,1.6c.84-.18,1.43-.94,1.4-1.8.05-.86-.48-1.64-1.3-1.9v3.7h-.1Z"/><path d="m323.72,77.32l-2.8-.8c.5-1,.5-2.6-1.2-3l-3.7-1.1.7-2.5,8.3,2.4-.7,2.5-1.5-.4c.93.69,1.3,1.91.9,3v-.1Z"/><path d="m314.32,82.32c-1.7-.9-1.7-2.9-.8-4.5.6-1.44,2.04-2.36,3.6-2.3v2.6c-.63-.15-1.27.19-1.5.8-.3.5-.3.9,0,1.1.8.5,2.4-3.5,5-2.1,1.7.9,1.7,2.7.9,4.3-.64,1.2-1.85,1.99-3.2,2.1v-2.5c.5.02.97-.26,1.2-.7.2-.4.2-.7,0-.9-.9-.5-2.3,3.6-5.1,2.1h-.1Z"/><circle class="cls-7" cx="112.88" cy="62.32" r="45"/><path class="cls-13" d="m129.68,46.82h.2c3.2-.16,5.93,2.31,6.09,5.51,0,.1,0,.19,0,.29v37.7c.07,2.7-1.76,5.09-4.4,5.7-.6.1-1.2.2-1.7.3h-.2c0-.2-.2-.2-.3,0h-1.2c0-.4.4-.3.6-.4,2.12-.87,3.53-2.91,3.6-5.2v-38.4c-.07-2.27-1.49-4.27-3.6-5.1-.2,0-.6,0-.6-.4h1.2c0,.1.2.1.3,0Z"/><path class="cls-6" d="m128.28,46.82c0,.4.4.3.6.4,2.12.82,3.54,2.83,3.6,5.1v38.4c-.1,2.28-1.5,4.31-3.6,5.2-.2,0-.6,0-.6.4h-32.2c-.57-.02-1.14-.08-1.7-.2-2.74-.61-4.64-3.1-4.5-5.9v-37.1c-.16-3.2,2.3-5.93,5.5-6.1.21.02.41-.02.6-.1h32.2l.1-.1Zm3.2,20.5v-13.7c0-1.18-.92-2.15-2.1-2.2h-32.7c-1.23.05-2.2,1.07-2.2,2.3v35.47c-.13,1.3.81,2.47,2.12,2.6.16.02.32.02.48,0h31.7c1.9,0,2.7-.8,2.7-2.7v-21.77Z"/><path class="cls-6" d="m129.48,96.32c0-.1.2-.1.3,0h-.3Z"/><path class="cls-6" d="m129.68,46.82c0,.1-.2.1-.3,0h.3Z"/><path class="cls-19" d="m126.18,91.72h-29.1c-1.28.16-2.44-.75-2.6-2.02-.02-.19-.02-.38,0-.58v-21.93h33.3v21.5c0,1.4-.3,2.4-1.6,2.9v.13Zm-6.9-14.7h-2.8c-1.1-.11-2.08.69-2.19,1.79,0,.07-.01.14-.01.21-.03,1.19.91,2.17,2.1,2.2.03,0,.07,0,.1,0h6.4c1.18-.02,2.12-1,2.1-2.18,0,0,0-.01,0-.02,0-1.1-.89-2-2-2-.03,0-.07,0-.1,0h-3.6,0Zm-13.4-5.2h-2.3c-.9,0-1.2.3-1.4,1.2l-.9,5.4c-.13.5.02,1.04.4,1.4.4.4.9.3,1.4,0,.76-.33,1.58-.46,2.4-.4,1.59.25,2.69,1.74,2.44,3.33-.25,1.59-1.74,2.69-3.33,2.44-1.2-.18-2.15-1.09-2.41-2.27-.3-.9-.7-1.3-1.5-1.1-.63.25-.98.94-.8,1.6.59,2.74,3.25,4.51,6,4,2.87-.44,4.84-3.13,4.4-6-.44-2.87-3.13-4.84-6-4.4q-.6,0-.5-.6c.2-.68.3-1.39.3-2.1,0-.4.2-.5.6-.5h3.5c.8,0,1.2-.4,1.2-1.1s-.4-1.1-1.2-1.1h-2.4l.1.2Zm12.6-.3h-2.8c-.64-.07-1.22.39-1.29,1.03,0,.02,0,.05,0,.07.01.66.54,1.19,1.2,1.2h5.7c.6.06,1.14-.39,1.2-.99,0-.07,0-.14,0-.21,0-.7-.5-1.1-1.3-1.1h-2.7Zm1.5,14.9c.04.66.54,1.21,1.2,1.3.68-.08,1.22-.62,1.3-1.3-.04-.64-.56-1.16-1.2-1.2-.64-.02-1.18.48-1.2,1.12,0,.03,0,.05,0,.08h-.1Zm-2.9,0c0-.66-.54-1.2-1.2-1.2-.66,0-1.2.54-1.2,1.2,0,.68.52,1.25,1.2,1.3.65.01,1.19-.5,1.21-1.15,0-.05,0-.1,0-.15Z"/><path class="cls-4" d="m127.78,67.32h-33.3c-.1-2.2,0-4.4,0-6.6h2.6c1.7.2,2.9-.2,3.6-1.9.2-.6.5-.4.7,0,.8,1.4,1.7,2.8,2.5,4.2.21.54.72.89,1.3.9.6,0,.9-.5,1.1-1,.5-1.3,1.1-2.5,1.7-3.8.3.4.6.8.8,1.1.23.44.7.72,1.2.7h10.8c.6.5,1.1,1.1,1.7,1.6.3.36.84.4,1.2.1.04-.03.07-.07.1-.1.8-.9,1.7-1.7,2.5-2.5.75-.61.92-1.69.4-2.5-.51-.74-1.49-.99-2.3-.6-.76.35-1.64.35-2.4,0-1.5-.5-2.5.1-2.7,1.8h-7.9c-.53.04-1.04-.23-1.3-.7-.3-.6-.8-1.1-1.1-1.7-.26-.47-.77-.74-1.3-.7-.5,0-.8.5-1,.9-.5,1.2-1,2.5-1.6,3.8-.2-.24-.37-.51-.5-.8l-2.4-3.9c-.29-.55-.97-.76-1.53-.47-.2.11-.37.27-.47.47-.5.8-1,1.5-1.5,2.3-.16.28-.48.44-.8.4h-3.4v-4.6c-.03-1.24.94-2.27,2.18-2.3,0,0,.01,0,.02,0h29.5c1.19.43,1.87,1.67,1.6,2.9v13h0Z"/><path class="cls-4" d="m126.18,91.72c1.4-.5,1.7-1.5,1.6-2.9v-21.5h3.7v21.8c0,1.9-.8,2.7-2.7,2.7h-2.6v-.1Z"/><path class="cls-28" d="m120.78,60.82h-10.78c-.5.02-.97-.26-1.2-.7-.23-.39-.5-.76-.8-1.1-.6,1.3-1.1,2.6-1.7,3.8-.2.5-.5,1-1.1,1-.59.03-1.12-.34-1.3-.9-.8-1.4-1.7-2.8-2.5-4.2-.2-.4-.5-.6-.7,0-.7,1.7-1.9,2.1-3.6,1.9-.87-.05-1.73-.05-2.6,0v-2.43h3.4c.32.04.64-.12.8-.4.5-.8,1-1.6,1.5-2.3.29-.55.97-.76,1.53-.47.2.11.37.27.47.47l2.4,3.9c.1.2.3.4.5.8.6-1.3,1.1-2.6,1.6-3.8.2-.5.5-.9,1-.9.53-.04,1.04.23,1.3.7.4.54.77,1.11,1.1,1.7.26.47.77.74,1.3.7h7.9c.1,1,1,1.5,1.6,2.2l-.12.03Z"/><path class="cls-29" d="m131.48,67.32h-3.7v-13c0-1.4-.3-2.3-1.6-2.9h3.2c1.18.02,2.12,1,2.1,2.18,0,0,0,.01,0,.02v13.7Z"/><path class="cls-25" d="m105.78,71.82h2.4c.8,0,1.2.4,1.2,1.1s-.4,1.1-1.2,1.1h-3.5c-.3,0-.5,0-.6.5-.05.71-.15,1.41-.3,2.1-.1.5,0,.6.5.6,2.72-.39,5.26,1.41,5.8,4.1.6,2.86-1.23,5.68-4.09,6.28-.04,0-.07.01-.11.02-2.75.51-5.41-1.26-6-4-.2-.8.1-1.5.8-1.6s1.2.2,1.5,1.1c.28,1.45,1.63,2.45,3.1,2.3,1.4-.04,2.55-1.11,2.7-2.5.25-1.56-.81-3.03-2.36-3.28-.04,0-.09-.01-.14-.02-.82-.07-1.65.07-2.4.4-.43.25-.97.25-1.4,0-.5-.3-.5-.8-.4-1.4l.9-5.4c.2-.9.5-1.2,1.4-1.2h2.3l-.1-.2Z"/><path class="cls-16" d="m119.58,81.19h-3.2c-1.19.02-2.18-.93-2.2-2.12,0-.03,0-.05,0-.08,0-1.1.89-2,1.99-2.01.07,0,.14,0,.21.01h2.8c.11.05.21.12.3.2,1.04.48,1.49,1.72,1.01,2.76-.16.34-.4.63-.71.84-.1.1-.3.2-.3.4h.1Z"/><path class="cls-25" d="m118.38,71.52h2.7c.8,0,1.3.4,1.3,1.1.06.6-.39,1.14-.99,1.2-.07,0-.14,0-.21,0h-5.7c-.66-.01-1.19-.54-1.2-1.2.03-.65.59-1.14,1.23-1.11.02,0,.05,0,.07,0h2.8Z"/><path class="cls-1" d="m119.58,81.19c0-.2.1-.3.3-.4.95-.65,1.19-1.95.54-2.89-.21-.31-.5-.55-.84-.71-.1,0-.2-.1-.3-.2h3.4c1.1-.06,2.04.79,2.1,1.9,0,.03,0,.07,0,.1.07,1.14-.79,2.12-1.94,2.2-.05,0-.11,0-.16,0h-3.1,0Z"/><path class="cls-28" d="m119.88,86.52c-.02-.64.48-1.18,1.12-1.2.03,0,.05,0,.08,0,.64.04,1.16.56,1.2,1.2-.08.68-.62,1.22-1.3,1.3-.66-.09-1.16-.64-1.2-1.3h.1Z"/><path class="cls-28" d="m116.88,86.42c0,.66-.53,1.2-1.2,1.2s-1.2-.53-1.2-1.2h0c0-.67.53-1.21,1.2-1.21s1.2.53,1.2,1.2h0Z"/><path class="cls-37" d="m120.78,60.82c-.5-.7-1.4-1.2-1.6-2.2.1-1.6,1.1-2.3,2.7-1.8.77.3,1.63.3,2.4,0,.92-.43,2-.03,2.43.89.36.77.14,1.69-.53,2.21-.8.9-1.7,1.7-2.5,2.5-.3.36-.84.4-1.2.1-.04-.03-.07-.07-.1-.1-.52-.58-1.09-1.12-1.7-1.6h.1Z"/><path d="m71.78,57.72l11.22.47v2.6l-4.6-.2-.2,3.5,4.4.2v2.6l-11.3-.5v-2.6l4.4.2.2-3.5-4.3-.2v-2.6l.18.03Z"/><path d="m82.78,52.72c.2-.55.2-1.15,0-1.7l1.7-1.4c.78,1.11.93,2.55.4,3.8-.59,2.21-2.87,3.53-5.08,2.94-.14-.04-.28-.08-.42-.14-2.15-.77-3.27-3.15-2.5-5.3.77-2.15,3.15-3.27,5.3-2.5.3.1.6.3.9.4l-1.9,5.3c.82-.03,1.52-.6,1.7-1.4h-.1Zm-2.2-2.4c-.8-.05-1.54.44-1.8,1.2-.29.76-.05,1.61.6,2.1l1.2-3.2v-.1Z"/><path d="m84.48,37.92l6.5,4.7-1.4,1.9-.6-.4c.19.88-.03,1.8-.6,2.5-1.37,1.74-3.88,2.03-5.62.67-.03-.02-.06-.04-.08-.07-1.85-1.23-2.38-3.72-1.2-5.6.48-.78,1.29-1.29,2.2-1.4l-.6-.4,1.4-1.9Zm1.8,4.3c-.78-.65-1.93-.54-2.58.23-.04.05-.08.11-.12.17-.63.76-.52,1.89.24,2.52.08.07.17.13.26.18.78.65,1.93.54,2.58-.23.04-.05.08-.11.12-.17.64-.75.55-1.88-.2-2.52-.09-.08-.19-.15-.3-.21v.03Z"/><path d="m84.28,33.19l1.8-1.6,7.8,8.7-1.8,1.6-7.8-8.7Z"/><path d="m94.28,33.02l1.5,2.4c.4.6.9.3,1.8-.3l1.2,1.8c-2.5,2-3.7,1.7-5-.2l-1.5-2.4-1.1.7-1.2-1.9,1.1-.7-.8-1.3,1.6-1.9,1.2,1.9,1.4-.9,1.2,1.9-1.4.9Z"/><path d="m105,29.32l1.6,4.6-2.3.8-1.5-4.3c-.17-.7-.87-1.14-1.58-.97-.08.02-.15.04-.22.07-.81.28-1.23,1.17-.95,1.98.01.04.03.08.05.12l1.5,4.1-2.3.8-3.7-10.6,2.3-.8,1.3,3.7c.3-.82.97-1.45,1.8-1.7,1.52-.57,3.22.2,3.79,1.72.05.12.08.25.11.38l.1.1Z"/><path d="m123.48,29.62l-.6,4.9-2.4-.3.6-4.7c.1-.8-.2-1.3-1-1.4s-1.3.4-1.4,1.3l-.6,4.5-2.4-.3.6-4.7c.1-.8-.2-1.4-1-1.4s-1.3.4-1.4,1.3l-.6,4.5-2.4-.3,1-7.9,2.4.3v.7c1.05-1,2.72-.96,3.72.09.15.15.28.33.38.51.61-.66,1.52-.96,2.4-.8,1.65.17,2.84,1.65,2.67,3.3-.01.14-.04.27-.07.4h.1Z"/><path d="m125,31.32c1.08-2.07,3.63-2.88,5.7-1.81,2.07,1.08,2.88,3.63,1.81,5.7s-3.63,2.88-5.7,1.81c0,0,0,0,0,0-2.06-1.04-2.89-3.56-1.84-5.62.01-.03.03-.06.04-.08Zm5.4,2.8c.5-.83.22-1.9-.61-2.4-.06-.04-.13-.07-.19-.1-.85-.49-1.93-.2-2.42.64-.03.05-.06.1-.08.16-.5.83-.22,1.9.61,2.4.06.04.13.07.19.1.85.48,1.93.18,2.41-.67.02-.04.05-.09.07-.13h.02Z"/><path d="m140.18,40.92l-3.4,3.6-1.7-1.6,3.1-3.3c.55-.48.61-1.32.12-1.88-.04-.04-.08-.08-.12-.12-.6-.6-1.4-.6-2.2.2l-3,3.2-1.7-1.6,5.5-5.8,1.7,1.6-.5.5c.87-.11,1.74.23,2.3.9,1.24,1.15,1.31,3.1.16,4.34-.05.06-.11.11-.16.16l-.1-.2Z"/><path d="m143.88,40.92l1.4,2-6.6,4.6-1.4-2,6.6-4.6Zm1.6-1.4c.66-.44,1.56-.26,2,.4s.26,1.56-.4,2c-.66.44-1.55.26-1.99-.4-.44-.66-.26-1.56.4-2h0Z"/><path d="m145.88,48.72l-2.5,1.2c-.6.3-.4.9.1,1.8l-2,1c-1.7-2.7-1.2-3.9.8-4.9l2.5-1.2-.6-1.2,2.1-1,.6,1.2,1.4-.7,1.7,1.8-2,1,.7,1.5-2.1,1-.7-1.5Z"/><path d="m145.58,51.92c2.29-.5,4.55.92,5.1,3.2.57,2.22-.77,4.48-2.99,5.05-.07.02-.14.03-.21.05-2.29.5-4.55-.92-5.1-3.2-.54-2.27.87-4.55,3.15-5.09.02,0,.04,0,.05-.01Zm1.4,5.9c.95-.16,1.6-1.06,1.44-2.01-.01-.06-.02-.13-.04-.19-.21-1-1.19-1.64-2.19-1.43-.04,0-.07.02-.11.03-.95.16-1.6,1.06-1.44,2.01.01.06.02.13.04.19.21,1,1.19,1.64,2.19,1.43.04,0,.09-.02.13-.03h-.02Z"/><path d="m151.58,66.72h-2.7c.3-.98-.24-2.01-1.22-2.32-.19-.06-.39-.09-.58-.08h-3.6v-2.4h8v2.4h-1.4c1.01.35,1.67,1.33,1.6,2.4h-.1Z"/><path d="m144.48,73.62c-1.8-.4-2.3-2.1-1.9-3.8.17-1.41,1.15-2.58,2.5-3l.7,2.3c-.61.03-1.11.49-1.2,1.1-.1.6,0,.9.3.9.9.2,1.2-3.8,3.9-3.2,1.7.3,2.3,2,1.9,3.6-.19,1.26-1.08,2.31-2.3,2.7l-.7-2.2c.47-.07.83-.43.9-.9,0-.4,0-.7-.3-.7-.9-.2-1.1,3.8-4,3.2h.2Z"/><circle class="cls-9" cx="200" cy="337.68" r="45"/><path class="cls-31" d="m210.9,372.28c0,.8-4.9,1.4-11,1.4h0c-6.1,0-11-.6-11-1.4v-52.1c0-.8,4.9-1.4,11-1.4h0c6.1,0,11,.6,11,1.4v52.1Z"/><path class="cls-36" d="m188.9,321.48v.5c1.4-.4,5.3-.8,11-.8s9.6.4,11,.8v-.5c-2.7-.8-9.4-.8-11-.8s-8.2,0-11,.8Z"/><path class="cls-36" d="m210.9,370.88v-.5c-1.4.4-5.3.8-11,.8s-9.6-.4-11-.8v.5c2.7.8,9.4.8,11,.8s8.2,0,11-.8Z"/><path class="cls-36" d="m199.9,327.18c-3.2,0-6.2.1-8.4.3-1.2,0-2,.2-2.6.3v.6c1.5-.3,5.3-.6,11-.6s9.5.3,11,.6v-.6c-.6-.1-1.4-.2-2.6-.3-2.2-.2-5.2-.3-8.4-.3Z"/><path class="cls-36" d="m210.9,363.98c-1.5.3-5.3.6-11,.6s-9.5-.3-11-.6v.6c.6.1,1.4.2,2.6.3,2.2.2,5.2.3,8.4.3s6.2-.1,8.4-.3c1.2,0,2-.2,2.6-.3v-.6Z"/><rect class="cls-36" x="188.9" y="329.58" width="21.9" height="33.3"/><path class="cls-33" d="m216.7,347.98c-.3.6-.8.8-1.1.5l-2.8-2.6c-.3-.3-.2-.9,0-1.5l3.3-5.7c.3-.6.8-.8,1.1-.5l2.8,2.6c.3.3.2.9,0,1.5l-3.3,5.7Z"/><path class="cls-24" d="m220.9,329.68h1.1c1,0,1.5.8,1.1,2-.3.8-.7,1.6-1.1,2.4-2.6,4.6-5.1,9.3-7.7,13.9-2.4,4.2-4.8,8.3-7.3,12.3-1.2,2-2.7,3.5-4.7,4.2-2.4.8-4.5,0-6.5-1.6-1.2-1-2.1-2.4-2.9-3.9-2.8-4.7-5.5-9.4-8.2-14.2-1.2-2.1-2.3-4.2-3.5-6.3,0-.1-.1-.2-.2-.4-.7-1.6-.4-2.6,1.1-2.8,5.2-.8,10.4-1.5,15.6-2.3,4.6-.7,9.2-1.3,13.7-2,3.2-.5,6.5-.9,9.7-1.3h-.2Z"/><path class="cls-27" d="m218.5,332.08h.9c.8,0,1.3.7.9,1.7-.3.7-.6,1.4-1,2.1-2.2,4-4.4,8.1-6.7,12.1-2.1,3.6-4.2,7.2-6.4,10.7-1.1,1.7-2.4,3.1-4.1,3.7-2.1.7-3.9,0-5.7-1.4-1.1-.9-1.8-2.1-2.5-3.4-2.4-4.1-4.8-8.2-7.2-12.3-1-1.8-2-3.7-3-5.5,0-.1-.1-.2-.2-.3-.6-1.4-.3-2.2.9-2.4,4.5-.7,9-1.3,13.5-2,4-.6,8-1.2,12-1.7,2.8-.4,5.7-.7,8.5-1.1h0l.1-.2Z"/><path d="m180,313.38c2.6,2.6,2.3,5.9,0,8.3-2.6,2.6-6.5,2.6-8.9.2-2.4-2.4-2.4-6.3,0-8.8,1.6-1.6,3.8-2.2,5.6-1.7l-.7,2.6c-.9-.2-2.1.1-3,1.1-1.4,1.4-1.4,3.5,0,5,1.4,1.4,3.5,1.5,5.1-.2,1.1-1.1,1.4-2.3.9-3.4l-2.2,2.2-1.7-1.7,4.2-4.2.7.7v-.1Z"/><path d="m192.4,304.78l.6,8.9-2.2.9-3-3.7.4,4.7-2.2.9-5.7-6.9,2.5-1,2.8,3.8-.5-4.7,2.2-.9,2.9,3.7-.6-4.7,2.5-1h.3Z"/><path d="m203.9,304.18l.3,8.5h-2.5v-.7c-.5.7-1.4,1.1-2.5,1.1-2.2,0-4.1-1.8-4.2-4.3,0-2.5,1.7-4.6,3.9-4.6,1.1,0,2,.3,2.6.9v-.8h2.5l-.1-.1Zm-2.4,4.3c0-1.3-.9-2-2.1-2s-2,.9-1.9,2.2.9,2,2.1,2,2-.9,1.9-2.1v-.1Z"/><path d="m209.8,307.88l-.7,2.9c-.2.7.4.9,1.5,1.1l-.5,2.3c-3.3-.4-4.1-1.6-3.5-3.9l.7-2.9-1.3-.3.5-2.4,1.3.3.4-1.6,2.7-.2-.5,2.3,1.7.4-.5,2.4-1.7-.4h-.1Z"/><path d="m212.4,310.28c1.1-2.3,3.7-3.2,6-2.1,1.5.7,2.4,2.1,2.5,3.6l-2.6.2c0-.7-.4-1.2-1.1-1.6-1-.5-2.1-.1-2.6.9-.5,1.1-.1,2.1.9,2.6.7.3,1.4.3,1.9-.1l1.5,2.1c-1.2.9-2.9,1-4.4.3-2.3-1.1-3.2-3.7-2.1-6v.1Z"/><path d="m227.8,319.48l-3.5,3.9-1.9-1.7,3.2-3.6c.7-.8.5-1.6,0-2.1-.7-.6-1.5-.6-2.3.3l-3.1,3.5-1.9-1.7,7.9-8.9,1.9,1.7-2.8,3.1c.8-.2,1.7,0,2.5.8,1.3,1.1,1.6,3,0,4.7Z"/></svg>