<?xml version="1.0" encoding="UTF-8"?><svg id="Layer_1" xmlns="http://www.w3.org/2000/svg" viewBox="0 0 400 698"><defs><style>.cls-1,.cls-2,.cls-3,.cls-4,.cls-5{stroke-miterlimit:10;}.cls-1,.cls-6{fill:#fff;}.cls-1,.cls-5{stroke:#231f20;stroke-width:2px;}.cls-2{stroke:#a5262d;}.cls-2,.cls-3,.cls-4{stroke-width:4px;}.cls-2,.cls-3,.cls-4,.cls-5{fill:none;}.cls-3{stroke:#000;}.cls-7{fill:#72b3e2;}.cls-4{stroke:#0018c6;}.cls-8{fill:#d1d1d1;}.cls-9{fill:#8ac5cd;}.cls-10{fill:#546e7a;}.cls-11{fill:#333;}.cls-12{fill:#ffed58;}.cls-13{fill:gray;}.cls-14{fill:#36464e;}.cls-15{fill:#3b566a;}.cls-16{fill:#b2d3d9;}.cls-17{fill:#199dbc;}.cls-18{fill:#72b2e2;}.cls-19{fill:#b3d4da;}.cls-20{fill:#788f9b;}.cls-21{fill:#484645;}.cls-22{fill:#637889;}.cls-23{fill:#b3b3b3;}.cls-24{fill:#88c4cc;}.cls-25{fill:#2f4859;}.cls-26{fill:#304959;}.cls-27{fill:#fbd734;}.cls-28{fill:#231f20;}</style></defs><circle class="cls-2" cx="200" cy="58" r="45"/><rect class="cls-23" x="174" y="48" width="52" height="37" rx="2.9" ry="2.9"/><path class="cls-21" d="m200.8,78.3l-1.1-3.4h-8l-1,3.4h-6.5l7.5-23.6h7.6l7.8,23.6h-6.3Zm-7.6-8.6h4.8l-2.4-8-2.4,8Z"/><path class="cls-21" d="m208.5,78.3v-24.7h5.6v24.7h-5.6Z"/><path d="m176.1,36.7l-2.4,3.1,1,1.4-1.6,2.1-6.1-9.3,1.9-2.4,10.5,3.7-1.6,2.1-1.6-.6-.1-.1Zm-2.2-.8l-3.8-1.4,2.3,3.3,1.5-1.9Z"/><path d="m172.8,26.9l1.7-1.4,7,8.4-1.7,1.4-7-8.4Z"/><path d="m185,23.1l3.6,6.6-2,1.1-.3-.6c0,.7-.6,1.4-1.4,1.8-1.3.7-3,.4-3.9-1.4l-2.2-4,2-1.1,2,3.8c.4.8,1.2.9,1.8.6.7-.4,1-1.1.5-2l-2-3.6,2-1.1-.1-.1Z"/><path d="m199.6,22.6l.8,4.5-2.2.4-.8-4.3c-.1-.7-.6-1.1-1.3-1s-1.1.7-.9,1.6l.7,4.2-2.2.4-.8-4.3c-.1-.7-.6-1.1-1.3-1s-1.1.7-.9,1.6l.7,4.2-2.2.4-1.3-7.4,2.2-.4v.7c.4-.6,1-1.1,1.9-1.2.9-.2,1.6,0,2.1.6.3-.7.9-1.2,2-1.4,1.7-.3,3,.7,3.3,2.6l.2-.2Z"/><path d="m201.9,20.2l2.2.2-.6,7.5-2.2-.2.6-7.5Zm0-2c0-.7.7-1.3,1.5-1.2.7,0,1.3.7,1.2,1.5s-.7,1.3-1.5,1.2c-.7,0-1.3-.7-1.2-1.5Z"/><path d="m212.9,25.3l-1.2,4.4-2.2-.6,1.1-4.1c.2-.9-.2-1.5-.9-1.7-.8-.2-1.5,0-1.8,1.1l-1.1,3.9-2.2-.6,2-7.2,2.2.6-.2.7c.5-.4,1.4-.6,2.3-.3,1.5.4,2.4,1.8,1.9,3.7l.1.1Z"/><path d="m222.5,27.3l-3.8,6.4-1.9-1.2.4-.6c-.6.3-1.5.2-2.3-.3-1.3-.8-1.9-2.4-.8-4.1l2.4-4,1.9,1.2-2.2,3.7c-.5.8-.2,1.5.4,1.8.7.4,1.4.3,2-.6l2.1-3.5,1.9,1.2h-.1Z"/><path d="m230.3,39.6l-3.5,3-1.5-1.7,3.4-2.9c.6-.5.7-1.1.2-1.6-.5-.6-1.2-.5-1.8,0l-3.2,2.7-1.5-1.7,3.4-2.9c.6-.5.7-1.1.2-1.6-.5-.6-1.2-.5-1.8,0l-3.2,2.7-1.5-1.7,5.7-4.9,1.5,1.7-.5.4c.6,0,1.3.2,2,.9.6.7.7,1.4.5,2.1.7,0,1.5.2,2.2,1,1.1,1.3.9,3-.5,4.2l-.1.3Z"/><circle class="cls-4" cx="59.12" cy="413.79" r="40.5"/><path class="cls-17" d="m50.3,447.45c-.18-.14-.4-.2-.63-.18-3.48-.82-5.89-3.99-5.76-7.56v-36.09c-.11-3.02,1.64-5.8,4.41-7.02.99-.46,2.06-.71,3.15-.72h15.48c4.14-.04,7.52,3.28,7.56,7.42,0,.05,0,.1,0,.14v36.36c.07,3.6-2.48,6.73-6.03,7.38-.23-.02-.45.04-.63.18h-17.55v.09Zm8.82-29.79h10.26c1.17,0,1.62-.54,1.62-1.62v-13.59c.14-.81-.41-1.57-1.22-1.71-.16-.03-.33-.03-.49,0h-20.34c-.81-.14-1.57.41-1.71,1.22-.03.16-.03.33,0,.49v13.5c0,1.17.45,1.71,1.71,1.71h10.17Zm3.15,6.66c.01-1.68-1.33-3.05-3.01-3.06-.02,0-.04,0-.05,0-1.73.02-3.13,1.42-3.15,3.15.03,1.71,1.44,3.08,3.15,3.06,1.73-.02,3.13-1.42,3.15-3.15h-.09Zm4.32-.18v1.71c-.05.39.22.76.62.81.06,0,.13,0,.19,0h2.61c.39.05.76-.22.81-.62,0-.06,0-.13,0-.19v-3.51c.05-.39-.22-.76-.62-.81-.06,0-.13,0-.19,0h-2.61c-.39-.05-.76.22-.81.62,0,.06,0,.13,0,.19v1.8Zm-19.08.27v1.8c-.05.39.22.76.62.81.06,0,.13,0,.19,0h2.61c.54,0,.81-.27.81-.72v-3.6c.01-.42-.3-.77-.72-.81h-2.7c-.54,0-.72.27-.81.81v1.71h0Zm20.7,13.14h1.71c.54,0,.81-.36.81-.9,0-1.26-.09-1.71-.72-1.8h-3.51c-.42-.03-.78.28-.81.7,0,.04,0,.07,0,.11v1.08c0,.54.27.81.9.81h1.62Zm-18.27,5.13h.81c1.71,0,1.71-.36,1.71-1.71,0-.72-.27-.99-.99-.99h-2.25c-1.89,0-1.8.27-1.71,1.89-.03.47.32.87.79.9.04,0,.07,0,.11,0h1.62l-.09-.09Zm9.27-5.13h1.53c.72,0,.99-.27,1.08-.99v-.72c0-.72-.27-.99-.99-.99h-2.25c-1.98,0-1.8.36-1.8,1.89-.05.44.26.85.71.9.06,0,.13,0,.19,0h1.62l-.09-.09Zm0,2.34h-1.71c-.39-.05-.76.22-.81.62,0,.06,0,.13,0,.19v.97c-.05.49.31.94.8.99.06,0,.13,0,.19,0h2.34c1.89,0,1.8-.36,1.8-1.89.05-.44-.26-.85-.71-.9-.06,0-.13,0-.19,0h-1.71v.02Zm8.91,2.79h.81c1.8.09,1.71-.36,1.71-1.8v-.18c.03-.42-.28-.78-.7-.81-.04,0-.07,0-.11,0h-3.33c-.46-.04-.86.3-.9.75,0,.02,0,.04,0,.06v1.08c0,.54.36.81.9.81h1.62v.09Zm-8.91-10.17h.72c1.89,0,1.8-.27,1.8-1.89h0c.03-.42-.28-.78-.7-.81-.04,0-.07,0-.11,0h-3.33c-.42-.03-.78.28-.81.7,0,.04,0,.07,0,.11v.99c0,.63.27.9.9.9h1.53,0Zm8.91,0h1.71c.54,0,.81-.36.81-.9.09-1.17,0-1.71-.63-1.89h-3.6c-.42-.03-.78.28-.81.7,0,.04,0,.07,0,.11v.99c-.05.44.26.85.71.9.06,0,.13,0,.19,0h1.62v.09Zm-18.18,0h1.71c.63,0,.81-.36.81-1.53,0-.81-.27-1.17-.81-1.17h-3.33c-.42-.03-.78.28-.81.7,0,.04,0,.07,0,.11v.99c0,.63.27.9.9.9h1.53Zm0,5.04h1.71c.54,0,.81-.36.81-.9.09-1.26,0-1.71-.63-1.8h-3.51c-.44-.05-.85.26-.9.71,0,.06,0,.13,0,.19v.99c0,.54.27.81.9.9h1.62v-.09Z"/><path class="cls-8" d="m59.12,417.66h-10.08c-1.26,0-1.71-.45-1.71-1.71v-13.5c0-1.17.45-1.71,1.71-1.71h20.34c1.26,0,1.71.45,1.71,1.71v13.59c0,1.17-.54,1.62-1.62,1.62h-10.35Z"/><path class="cls-11" d="m62.27,424.32c-.02,1.73-1.42,3.13-3.15,3.15-1.69-.04-3.06-1.38-3.15-3.06.02-1.73,1.42-3.13,3.15-3.15,1.68-.01,3.05,1.33,3.06,3.01,0,.02,0,.04,0,.05h.09Z"/><path class="cls-11" d="m66.59,424.14v-1.8c-.05-.39.22-.76.62-.81.06,0,.13,0,.19,0h2.61c.39-.05.76.22.81.62,0,.06,0,.13,0,.19v3.51c.05.39-.22.76-.62.81-.06,0-.13,0-.19,0h-2.61c-.39.05-.76-.22-.81-.62,0-.06,0-.13,0-.19v-1.71Z"/><path class="cls-11" d="m47.51,424.41v-1.71c-.05-.39.22-.76.62-.81.06,0,.13,0,.19,0h2.7c.45,0,.72.27.72.81v3.6c0,.54-.27.72-.81.72h-2.61c-.54,0-.72-.27-.81-.81v-1.8Z"/><path class="cls-11" d="m68.3,437.55h-1.62c-.46.04-.86-.3-.9-.75,0-.02,0-.04,0-.06v-1.08c-.03-.42.28-.78.7-.81.04,0,.07,0,.11,0h3.51c.63.09.81.54.72,1.8,0,.54-.27.9-.81.9h-1.71Z"/><path class="cls-11" d="m50.03,442.57h-1.62c-.44.05-.85-.26-.9-.71,0-.06,0-.13,0-.19,0-1.62-.18-1.98,1.71-1.89h2.25c.72,0,.99.27.99.99,0,1.44,0,1.8-1.71,1.71h-.9l.18.09Z"/><path class="cls-11" d="m59.3,437.55h-1.62c-.47.03-.87-.32-.9-.79,0-.04,0-.07,0-.11,0-1.53-.18-1.98,1.8-1.89h2.25c.72,0,.99.27.99.99v.72c0,.72-.27.99-1.08.99h-1.53l.09.09Z"/><path class="cls-11" d="m59.39,439.87h1.62c.47-.03.87.32.9.79,0,.04,0,.07,0,.11,0,1.53.18,1.98-1.8,1.89h-2.34c-.63,0-.9-.27-.99-.99v-.99c-.03-.42.28-.78.7-.81.04,0,.07,0,.11,0h1.8Z"/><path class="cls-11" d="m68.21,442.57h-1.62c-.46.04-.86-.3-.9-.75,0-.02,0-.04,0-.06v-1.08c0-.54.27-.81.9-.81h3.33c.39-.05.76.22.81.62,0,.06,0,.13,0,.19v.18c0,1.44,0,1.89-1.71,1.8h-.9l.09-.09Z"/><path class="cls-11" d="m59.3,432.51h-1.62c-.44.05-.85-.26-.9-.71,0-.06,0-.13,0-.19v-.99c-.03-.42.28-.78.7-.81.04,0,.07,0,.11,0h3.33c.42-.03.78.28.81.7,0,.04,0,.07,0,.11h0c0,1.62.09,1.98-1.8,1.89h-.63Z"/><path class="cls-11" d="m68.21,432.51h-1.62c-.54,0-.81-.36-.9-.9v-.99c-.05-.39.22-.76.62-.81.06,0,.13,0,.19,0h3.6c.54.18.72.63.63,1.89.04.46-.3.86-.75.9-.02,0-.04,0-.06,0h-1.71v-.09Z"/><path class="cls-11" d="m50.03,432.51h-1.62c-.63,0-.9-.27-.9-.9v-.99c-.03-.42.28-.78.7-.81.04,0,.07,0,.11,0h3.33c.63,0,.81.36.81,1.17,0,1.17-.18,1.53-.81,1.53h-1.62,0Z"/><path class="cls-11" d="m50.03,437.55h-1.62c-.44.05-.85-.26-.9-.71,0-.06,0-.13,0-.19v-.99c-.03-.47.32-.87.79-.9.04,0,.07,0,.11,0h3.51c.54.09.72.63.63,1.8,0,.54-.27.9-.81.9h-1.71v.09Z"/><path d="m31.4,433.77c1.45-1.27,3.65-1.15,4.95.27l.99,1.08,2.34-2.16,1.53,1.71-7.47,6.84-2.61-2.79c-1.32-1.38-1.27-3.57.11-4.89.02-.02.05-.04.07-.06h.09Zm1.53,1.71c-.52.42-.6,1.18-.18,1.7.03.04.06.07.09.1l.99,1.08,1.89-1.71-.99-1.08c-.44-.5-1.21-.54-1.7-.1-.03.03-.07.06-.1.1v-.09Z"/><path d="m29.06,424.68l3.96-1.98.99,1.98-3.69,1.8c-.62.24-.94.93-.7,1.55.02.05.04.11.07.16.26.64.99.95,1.63.68.09-.04.18-.09.26-.14l3.51-1.71.99,1.98-9.09,4.41-.99-1.98,3.15-1.53c-1.43-.41-2.26-1.91-1.85-3.34.24-.83.86-1.49,1.67-1.79l.09-.09Z"/><path d="m29.33,422.88c-2.08.4-4.1-.96-4.5-3.04s.96-4.1,3.04-4.5,4.1.96,4.5,3.04c0,.03.01.06.02.09.38,2.06-.99,4.03-3.05,4.41,0,0,0,0-.01,0Zm-.9-5.4c-.86.1-1.48.88-1.38,1.74,0,.05.01.1.03.15.16.91,1.03,1.52,1.94,1.36.01,0,.03,0,.04,0,.86-.1,1.48-.88,1.38-1.74,0-.05-.01-.1-.03-.15-.16-.91-1.03-1.52-1.94-1.36-.01,0-.03,0-.04,0Z"/><path d="m27.98,406.86l4.41.45-.27,2.16-4.05-.45c-.66-.13-1.3.3-1.42.96,0,.04-.01.08-.02.12,0,.81.27,1.35,1.35,1.53l3.87.45-.27,2.16-7.2-.81.27-2.16h.63c-.54-.54-.78-1.32-.63-2.07.17-1.48,1.5-2.55,2.98-2.38.09,0,.17.02.26.04h.09Z"/><path d="m32.39,402.54c.18-.49.18-1.04,0-1.53l1.62-1.26c.65,1.06.72,2.39.18,3.51-.65,2-2.8,3.09-4.8,2.44-2-.65-3.09-2.8-2.44-4.8.04-.11.08-.23.13-.34.87-1.93,3.15-2.8,5.08-1.92.24.11.46.24.68.39l-1.98,4.77c.73,0,1.38-.48,1.62-1.17l-.09-.09Zm-1.89-2.25c-.71-.12-1.4.3-1.62.99-.32.66-.14,1.45.45,1.89l1.17-2.88Z"/><path d="m34.1,390.03l.9-.99,1.53,1.35-.9.99,3.78,3.42-1.44,1.62-3.78-3.42-.63.72-1.53-1.35.63-.72c-1.53-1.35-1.62-2.97,0-4.68l1.53,1.35c-.63.54-.81,1.08-.18,1.71h.09Z"/><path d="m39.5,385.17l1.53,1.89c-.85.35-1.25,1.33-.89,2.18.07.16.15.3.26.43l1.98,2.52-1.71,1.35-4.5-5.67,1.71-1.35.81.99c-.3-.9.03-1.89.81-2.43v.09Z"/><path d="m47.78,381.03l3.06,6.48-1.98.9-.27-.63c-.24.76-.8,1.38-1.53,1.71-1.83.79-3.94-.06-4.73-1.88-.01-.03-.03-.06-.04-.1-.93-1.72-.29-3.87,1.43-4.81.03-.02.07-.04.1-.05.71-.43,1.6-.46,2.34-.09l-.27-.63,1.98-.9h-.09Zm-.45,4.14c-.37-.88-1.39-1.3-2.27-.93-.02,0-.04.02-.07.03-.85.37-1.24,1.36-.87,2.22.02.04.04.08.06.12.37.88,1.39,1.3,2.27.93.02,0,.04-.02.07-.03.84-.35,1.25-1.32.9-2.16-.03-.06-.05-.12-.09-.18Z"/><path d="m61.91,381.75l.36,4.41-2.16.18-.36-4.23c.07-.54-.32-1.03-.85-1.09-.11-.01-.21,0-.32.01-.72,0-1.08.63-.99,1.44l.36,4.05-2.16.18-.36-4.23c.07-.54-.32-1.03-.85-1.09-.11-.01-.21,0-.32.01-.72,0-1.08.63-.99,1.44l.36,4.05-2.16.18-.63-7.2,2.16-.18v.63c.43-.62,1.14-.99,1.89-.99.75-.08,1.5.22,1.98.81.43-.68,1.18-1.09,1.98-1.08,1.62-.18,2.79.99,2.97,2.7h.09Z"/><path d="m66.95,385.87c.49.13,1,.07,1.44-.18l1.44,1.44c-1.63,1.41-4.1,1.23-5.51-.4s-1.23-4.1.4-5.51c.96-.83,2.26-1.14,3.48-.84,1.9.45,3.07,2.35,2.62,4.25-.03.12-.06.23-.1.34-.05.28-.14.56-.27.81l-4.95-1.35c0,.83.63,1.28,1.44,1.44Zm1.98-2.16c.04-.73-.46-1.38-1.17-1.53-.7-.26-1.48.05-1.8.72l2.97.81Z"/><path d="m76.85,393v-3.96c.09,0-1.8,2.52-1.8,2.52l-1.71-1.35,6.12-8.01,1.71,1.35-3.69,4.77,3.6-1.17,1.98,1.53-4.23,1.26v4.5l-1.98-1.53v.09Z"/><path d="m82.16,396.15c.3.4.76.66,1.26.72l.27,1.98c-1.23,0-2.4-.56-3.15-1.53-1.38-1.5-1.28-3.84.22-5.23.1-.09.21-.18.32-.26,1.61-1.32,4-1.09,5.32.53.03.03.05.07.08.1,1.25,1.59.97,3.89-.62,5.14-.03.03-.07.05-.1.08-.22.18-.46.33-.72.45l-3.15-4.05c-.37.64-.26,1.46.27,1.98v.09Zm2.88-.54c.45-.55.45-1.34,0-1.89-.43-.6-1.21-.82-1.89-.54l1.89,2.43Z"/><path d="m92.33,403.8l-7.38.45c-2.43.18-3.78-.63-4.5-2.52l1.89-.81c.2.8.99,1.31,1.8,1.17l5.22-5.31.9,2.16-3.42,3.24,4.59-.45.9,2.16v-.09Z"/><path d="m90.26,413.97c-1.99.35-3.88-.98-4.23-2.97h0c-.15-.81.08-1.64.63-2.25l-3.51.45-.27-2.16,9.99-1.26.27,2.16h-.63c.64.51,1.06,1.25,1.17,2.07.19,1.94-1.24,3.67-3.18,3.86-.05,0-.1,0-.15.01l-.09.09Zm-.27-2.16c.91-.06,1.6-.85,1.54-1.76,0-.04,0-.09-.01-.13-.06-.88-.82-1.54-1.69-1.49-.1,0-.19.02-.29.05-.91.06-1.6.85-1.54,1.76,0,.04,0,.09.01.13.06.88.82,1.54,1.69,1.49.1,0,.19-.02.29-.05Z"/><path d="m92.51,423.42l-7.11-1.26.36-2.16h.63c-.49-.6-.69-1.4-.54-2.16.4-1.91,2.28-3.13,4.19-2.73.04,0,.09.02.13.03,1.97.23,3.39,2.02,3.15,4,0,.01,0,.02,0,.04-.1.82-.56,1.55-1.26,1.98h.63c0,.09-.36,2.25-.36,2.25l.18.02Zm-3.15-2.79c.93.21,1.85-.37,2.06-1.29,0-.02,0-.04.01-.06.2-.87-.34-1.74-1.21-1.94-.07-.02-.15-.03-.23-.04-.85-.22-1.71.28-1.94,1.12-.02.07-.03.15-.04.23-.2.87.34,1.74,1.21,1.94.07.02.15.03.23.04h-.09Z"/><path d="m90.71,434.22l-9-4.59.99-1.89.63.27c-.3-.77-.23-1.63.18-2.34,1.11-1.78,3.45-2.33,5.23-1.22,1.56.97,2.21,2.93,1.52,4.64-.33.76-1,1.32-1.8,1.53l3.15,1.62-.99,1.89.09.09Zm-4.77-4.86c.86.39,1.87.01,2.27-.85.39-.86.01-1.87-.85-2.27-.83-.38-1.81-.04-2.23.77-.45.79-.17,1.8.62,2.25.06.04.13.07.19.09Z"/><path class="cls-27" d="m352.18,407.97c.5,0,.99.02,1.49.02.84,0,1.54.69,1.55,1.54,0,.78,0,1.56,0,2.33,0,6.58,0,13.16,0,19.75,0,.43-.02.86-.15,1.28-.15.49-.75.93-1.27.93-5.57,0-11.15,0-16.72,0-.03,0-.05,0-.08,0,0-1.51,0-3.03,0-4.54,1.16,0,2.32,0,3.48-.01.15,0,.32.04.32-.21,0-.57.05-1.16-.08-1.71-.36-1.48-.79-2.95-1.17-4.43-.1-.4-.22-.79-.36-1.18-.22-.61.19-.92.56-1.25.6-.55.85-1.24.99-2.03.3-1.66-1.1-3.65-2.68-4.16-.05-.09-.12-.13-.22-.08-.08-.02-.16-.04-.24-.05-.04-.05-.08-.07-.14-.03-.15-.02-.31-.04-.46-.07,0-2.01,0-4.03,0-6.04,2.86,0,5.71,0,8.57-.02.18,0,.36-.01.53-.02,1.02.03,2.04.05,3.07,0,1,.06,2,.04,3.01,0Z"/><path class="cls-12" d="m337,429.26c0,1.51,0,3.03,0,4.54-.57,0-1.15.01-1.72.01-4.86,0-9.72-.02-14.58.02-1.28.01-1.94-.69-1.94-1.94.04-7.44.03-14.88,0-22.32,0-.89.72-1.6,1.57-1.59.5,0,.99-.01,1.49-.02,1,.03,2,.05,3-.01,1.02.06,2.04.03,3.06.01.17,0,.33.02.5.02,2.87,0,5.74,0,8.61.01,0,2.01,0,4.03,0,6.04-.32.15-.68.08-1.02.21-1.42.55-2.36,1.51-2.7,3.02-.06.03-.11.07-.03.14-.11,1.25.02,2.39,1.14,3.22.35.26.49.65.35,1.14-.09.3-.2.59-.27.9-.2.84-.42,1.66-.64,2.49-.16.61-.35,1.22-.5,1.83-.15.61-.11,1.23-.13,1.85-.01.31.07.42.4.41,1.14-.02,2.27,0,3.41,0Z"/><path class="cls-20" d="m324.83,407.96c-1,.06-2,.04-3,.01,0-2.7-.02-5.41.02-8.11.02-1.25.19-2.49.55-3.71.44-1.46,1.06-2.83,1.9-4.1,1.05-1.58,2.35-2.94,3.9-4.05,1.02-.73,2.09-1.38,3.27-1.78,1.17-.41,2.35-.81,3.61-.9.71-.05,1.41-.16,2.12-.14,1.77.03,3.47.38,5.13,1,1.65.62,3.14,1.52,4.5,2.65,1.17.97,2.13,2.12,2.94,3.4.58.9,1.03,1.86,1.42,2.87.21.55.36,1.12.55,1.68.17.51.21,1.06.27,1.6.35,3.19.08,6.39.17,9.58-1,.04-2,.05-3,0,0-2.28-.02-4.57.01-6.85.02-1.31-.15-2.6-.47-3.87-.45-1.78-1.28-3.39-2.48-4.76-1.47-1.68-3.26-2.95-5.42-3.64-1.53-.49-3.08-.64-4.69-.54-1.49.09-2.89.44-4.22,1.06-2.21,1.03-3.95,2.61-5.24,4.69-1.11,1.79-1.72,3.76-1.8,5.84-.1,2.69-.02,5.38-.02,8.08Z"/><path class="cls-10" d="m346.11,407.97c0-2.42.02-4.85,0-7.27-.01-1.29-.19-2.56-.71-3.76-.41-.95-.96-1.81-1.64-2.6-1.01-1.18-2.27-1.99-3.7-2.51-1.32-.48-2.7-.64-4.13-.46-.87.11-1.71.31-2.49.65-2.18.95-3.78,2.51-4.77,4.69-.46,1.02-.65,2.09-.7,3.2-.13,2.69-.02,5.38-.06,8.06-1.02.02-2.04.04-3.06-.01,0-2.69-.08-5.39.02-8.08.08-2.08.68-4.05,1.8-5.84,1.29-2.08,3.03-3.66,5.24-4.69,1.33-.62,2.73-.97,4.22-1.06,1.61-.09,3.16.06,4.69.54,2.16.69,3.94,1.95,5.42,3.64,1.2,1.38,2.03,2.98,2.48,4.76.32,1.27.49,2.55.47,3.87-.03,2.28-.01,4.57-.01,6.85-1.02.05-2.04.04-3.07,0Z"/><path class="cls-14" d="m337,429.26c-1.14,0-2.27-.02-3.41,0-.33,0-.41-.1-.4-.41.02-.62-.01-1.25.13-1.85.15-.62.34-1.22.5-1.83.22-.83.44-1.66.64-2.49.07-.31.18-.6.27-.9.14-.49,0-.88-.35-1.14-1.12-.83-1.25-1.97-1.14-3.22.06-.03.06-.08.03-.14.34-1.51,1.28-2.47,2.7-3.02.34-.13.7-.05,1.02-.21.15.02.31.04.46.07.03.08.07.12.14.03.08.02.16.04.24.05.04.11.14.08.22.08,1.58.51,2.98,2.5,2.68,4.16-.14.79-.4,1.48-.99,2.03-.36.33-.78.65-.56,1.25.14.39.25.78.36,1.18.38,1.48.81,2.94,1.17,4.43.13.55.09,1.14.08,1.71,0,.25-.17.21-.32.21-1.16,0-2.32,0-3.48.01Z"/><path class="cls-10" d="m338.07,414.28c-.09,0-.18.03-.22-.08.1-.05.17,0,.22.08Z"/><path class="cls-10" d="m337.6,414.15c-.07.09-.11.05-.14-.03.06-.03.1-.02.14.03Z"/><path class="cls-20" d="m333.28,417.27c.03.06.03.1-.03.14-.08-.07-.03-.1.03-.14Z"/><circle class="cls-3" cx="337.13" cy="411.81" r="39.02"/><circle class="cls-4" cx="59.12" cy="532.02" r="40.5"/><path class="cls-15" d="m69.74,514.38c.2.26.44.47.72.63,1.05.97,1.64,2.35,1.62,3.78v40.77c0,3.24-1.62,5.13-4.95,5.4-5.39.45-10.81.45-16.2,0-2.66-.07-4.76-2.28-4.69-4.94,0-.06,0-.13,0-.19v-41.04c-.15-2.69,1.91-4.98,4.6-5.13.03,0,.06,0,.08,0,4.73-.33,9.48-.39,14.22-.18.33-.01.67.02.99.09,1.26-.02,2.51.2,3.69.63l-.09.18Zm-9.81,5.94h-9.99c-.63,0-.81.18-.81.81v10.35c0,3.42,0,2.16,2.16,2.07h17.19c.54,0,.63-.18.63-.63v-11.91c0-.45-.09-.72-.63-.72h-8.55v.03Zm1.89,26.55c-2.07,0-1.89,0-1.89,1.98,0,.63.27.9.9.9h1.44c1.17,0,1.26,0,1.26-1.17,0-1.98.18-1.71-1.71-1.71Zm-5.31,0h-.99c-.54,0-.9.18-.72.72.18.72-.63,1.89.72,2.16.69.09,1.38.09,2.07,0,.39.02.73-.25.81-.63.45-1.71,0-2.25-1.71-2.25h-.18Zm0-4.23c-1.98,0-1.71-.18-1.8,1.8v.27c0,.63.27.9.81.9h2.07c.36-.02.66-.28.72-.63.45-1.71,0-2.25-1.71-2.25h0l-.09-.09Zm5.4,0h-1.17c-.45,0-.72.18-.72.63,0,2.07-.18,2.34,1.89,2.25h.45c1.17,0,1.26-.18,1.26-1.26,0-1.89.18-1.71-1.71-1.71h0v.09Zm-.09,11.43h.9c.45,0,.9-.09.9-.63,0-.72.45-1.62-.36-2.25h-2.52c-.34-.03-.65.21-.72.54-.45,1.71,0,2.34,1.8,2.34h0Zm-5.22,0h.9c.54,0,.9-.18.9-.72,0-.72.45-1.62-.36-2.16h-2.52c-.31,0-.59.17-.72.45-.54,1.62,0,2.43,1.71,2.43h.09Zm0-15.66h-.81c-.63,0-.9.18-.9.9q0,2.07,2.07,2.07h.72c.42.01.77-.3.81-.72.36-1.8,0-2.25-1.8-2.25h-.09Zm5.4,0h-1.17c-.45,0-.72.18-.72.72,0,2.07-.18,2.34,1.89,2.25h.45c1.17,0,1.26-.18,1.26-1.26,0-1.89.18-1.71-1.71-1.71h0Zm-10.62,15.66h.72c.81,0,1.08-.27.99-1.08,0-2.16.27-1.89-1.89-1.89h-.36c-1.17,0-1.26,0-1.17,1.17,0,1.62-.36,1.8,1.71,1.71v.09Zm15.84-2.97h-.72c-.72-.09-.99.18-.99.99,0,2.07-.36,1.98,1.98,1.98h.36q1.17,0,1.17-1.17c0-1.98.18-1.71-1.71-1.71h0l-.09-.09Zm0-4.23h-.9c-.63,0-.81.27-.81.9,0,2.16-.36,2.07,2.07,2.07h.27c1.08,0,1.17-.09,1.17-1.17,0-1.98.18-1.8-1.71-1.8h-.09Zm-15.75,0h-.79c-.72,0-.99.18-.99.99,0,2.07-.36,1.98,1.98,1.98h.36c1.08,0,1.17-.09,1.17-1.26,0-1.89.18-1.71-1.71-1.71h-.02Zm0-4.23h-.79c-.72,0-.99.18-.9.9,0,2.07-.18,2.07,1.98,1.98h.27c1.17,0,1.26,0,1.26-1.26,0-1.89.18-1.71-1.71-1.71l-.11.09Zm15.84-4.23h-.9c-.63,0-.81.27-.81.9,0,2.16-.18,2.07,2.07,2.07h.27c1.08,0,1.17-.09,1.17-1.17,0-1.98.18-1.71-1.71-1.8h-.09Zm0,4.23c-1.98,0-1.71-.27-1.8,1.8v.18c0,.72.27.99.99.99h1.28c1.08,0,1.17-.09,1.17-1.26,0-1.89.18-1.71-1.71-1.71h.07Zm-15.84-4.23h-.9c-.63,0-.81.27-.81.9,0,2.16-.18,2.07,2.07,2.07h.27c1.08,0,1.17-.09,1.17-1.17,0-1.98.18-1.71-1.71-1.8h-.09Zm9.63-20.61c.36,0,.63-.09.54-.54s-.18-.45-.54-.45-.63.09-.54.54.18.45.54.45Zm2.25-.45c0-.36-.18-.45-.54-.45s-.63,0-.63.45.18.45.54.45.63-.09.63-.45Zm-5.22,43.83c.04-.26-.14-.5-.4-.54-.05,0-.09,0-.14,0-.36,0-.45.27-.45.54s.18.54.45.54c.27-.03.47-.27.45-.54h.09Zm-1.89-44.28c-.28,0-.54.18-.63.45-.01.29.22.53.5.54.01,0,.02,0,.04,0,.27,0,.45-.09.45-.36h0c0-.36-.09-.54-.45-.54l.09-.09Zm2.07.45c0-.36-.18-.45-.54-.45-.25-.05-.49.11-.54.36-.05.25.11.49.36.54.06.01.12.01.18,0,.36,0,.45-.18.45-.45h.09Zm-.18,40.14c0-.36-.27-.45-.54-.45-.23-.02-.43.16-.45.39,0,.02,0,.04,0,.06,0,.36.18.54.45.54s.45-.18.45-.54h.09Zm3.6-.09c0-.18-.09-.36-.45-.36s-.54.09-.54.45.18.54.45.54.45-.18.45-.63h.09Zm-.36,4.23c.27,0,.36-.18.36-.45.02-.27-.18-.51-.45-.54-.23-.02-.44.14-.46.38,0,.05,0,.11.01.16.09.36.18.45.63.45h-.09Zm-1.44-44.28c0-.36-.27-.45-.54-.45s-.45.18-.36.54.27.45.54.45c.27-.03.47-.27.45-.54h-.09Zm-.45,39.87c.23.02.43-.16.45-.39,0-.02,0-.04,0-.06,0-.36-.18-.54-.54-.45s-.45.18-.45.54c.03.27.27.47.54.45h0v-.09Zm-2.7,2.61c.27,0,.45-.09.54-.45s-.09-.54-.45-.54-.45.09-.54.45.09.54.45.54h0Zm5.13-.99c-.22,0-.39.19-.39.4,0,.05.01.09.03.14,0,.27.18.45.54.36s.45-.27.45-.54c-.03-.27-.27-.47-.54-.45l-.09.09Zm-2.52,3.6c.23.02.43-.16.45-.39,0-.02,0-.04,0-.06,0-.36-.18-.54-.45-.54-.23-.02-.43.16-.45.39,0,.02,0,.04,0,.06,0,.36.18.51.45.51v.03Zm-.54-2.79c0-.27-.09-.45-.45-.45-.23-.02-.43.16-.45.39,0,.02,0,.04,0,.06,0,.27.09.54.36.54.26,0,.49-.19.54-.45h0v-.09Zm.72.36c-.23-.02-.43.16-.45.39,0,.02,0,.04,0,.06.03.27.27.47.54.45h0c.27,0,.36-.27.36-.45.02-.23-.16-.43-.39-.45-.02,0-.04,0-.06,0Zm0-1.71c.02-.22-.14-.42-.36-.45-.26,0-.49.19-.54.45,0,.18.09.45.36.45h0c.27,0,.36-.27.45-.45h.09Zm.9,1.17c.19-.01.35-.17.36-.36,0-.18,0-.36-.27-.45h-.09c-.27,0-.36.18-.45.36s0,.36.36.36l.09.09Z"/><path class="cls-24" d="m62.38,520.32h6.12c.54,0,.63.18.63.72v11.88c0,.45-.09.63-.63.63h-13.77c.02-.19.08-.38.18-.54,1.71-2.79,3.33-5.58,5.04-8.37.9-1.39,1.71-2.83,2.43-4.32Z"/><path class="cls-24" d="m51.29,533.46c-1.44,0-2.16-.68-2.16-2.07v-10.38c0-.63.18-.81.81-.81h9c-.63,1.31-1.35,2.57-2.16,3.78-1.8,3.15-3.69,6.21-5.49,9.36v.12Z"/><path class="cls-19" d="m62.38,520.32c-.72,1.49-1.53,2.93-2.43,4.32-1.62,2.79-3.33,5.58-5.04,8.37,0,.18-.18.36-.18.54h-1.44c.02-.19.08-.38.18-.54,1.44-2.34,2.88-4.77,4.23-7.11,1.08-1.89,2.25-3.6,3.24-5.58h1.44Z"/><path class="cls-9" d="m60.92,520.32c-.99,1.89-2.16,3.69-3.24,5.58-1.44,2.43-2.88,4.77-4.23,7.11,0,.18-.18.36-.18.54h-.99c.41-1.05.96-2.05,1.62-2.97,1.98-3.42,4.05-6.84,6.03-10.17h.99v-.09Z"/><path class="cls-16" d="m59.93,520.32c-1.98,3.42-4.05,6.75-6.03,10.17-.66.92-1.21,1.92-1.62,2.97h-.99c1.89-3.06,3.69-6.21,5.49-9.36.81-1.21,1.53-2.47,2.16-3.78h.99Z"/><path class="cls-22" d="m61.82,546.87c1.98,0,1.71-.18,1.71,1.71,0,1.08,0,1.17-1.26,1.17h-1.44c-.44.05-.85-.26-.9-.71,0-.06,0-.13,0-.19,0-2.07-.18-2.07,1.89-1.98Z"/><path class="cls-22" d="m56.42,546.87h0c1.71,0,2.16.54,1.71,2.25-.05.39-.4.68-.8.63,0,0,0,0-.01,0-.69.05-1.38.05-2.07,0-1.35-.27-.54-1.44-.72-2.16-.09-.54.18-.81.72-.72h1.17Z"/><path class="cls-22" d="m56.42,542.61h0c1.71,0,2.16.54,1.71,2.25-.06.35-.36.61-.72.63h-2.07c-.54,0-.9-.27-.81-.9v-.27c0-1.98-.27-1.8,1.8-1.8l.09.09Z"/><path class="cls-22" d="m61.82,542.61c1.89,0,1.71-.18,1.71,1.71,0,1.08-.18,1.26-1.26,1.26h-.45c-2.16,0-1.89-.18-1.89-2.25,0-.45.27-.63.72-.63h1.17v-.09Z"/><path class="cls-22" d="m61.73,554.07c-1.71,0-2.25-.63-1.8-2.34.07-.33.38-.57.72-.54h2.52c.81.63.36,1.53.36,2.25,0,.54-.45.63-.9.63h-.9Z"/><path class="cls-22" d="m56.42,554.07c-1.62,0-2.25-.9-1.71-2.43.06-.31.36-.52.67-.46.02,0,.03,0,.05.01h2.52c.81.63.36,1.44.36,2.16,0,.45-.36.72-.9.72h-.99Z"/><path class="cls-22" d="m56.42,538.32h0c1.8,0,2.16.45,1.8,2.25,0,.45-.36.63-.81.72h-.72q-2.07,0-2.07-2.07c0-2.07.27-.99.9-.9h.9Z"/><path class="cls-22" d="m61.82,538.32c1.89,0,1.71-.18,1.71,1.71,0,1.08-.18,1.26-1.26,1.26h-.45c-2.16,0-1.89-.18-1.89-2.25,0-.45.27-.63.72-.72h1.17Z"/><path class="cls-22" d="m51.2,554.07c-2.07,0-1.71-.09-1.71-1.71q0-1.17,1.17-1.17h.36c2.16,0,1.89-.27,1.89,1.89,0,.81-.27,1.08-.99,1.08h-.72v-.09Z"/><path class="cls-22" d="m67.04,551.1c1.98,0,1.71-.18,1.71,1.71q0,1.17-1.17,1.17h-.36c-2.34,0-1.89,0-1.98-1.98,0-.72.27-1.08.99-.99h.72l.09.09Z"/><path class="cls-22" d="m67.04,546.87c1.89,0,1.71-.18,1.71,1.8,0,1.08-.09,1.17-1.17,1.17h-.27c-2.43,0-1.98.09-2.07-2.07,0-.63.18-.9.81-.9h.99Z"/><path class="cls-22" d="m51.2,546.87c1.89,0,1.62-.18,1.71,1.71,0,1.08,0,1.26-1.17,1.26h-.36c-2.34,0-1.89,0-1.98-1.98,0-.72.27-1.08.99-.99h.81Z"/><path class="cls-22" d="m51.2,542.61c1.89,0,1.71-.18,1.71,1.71,0,1.17,0,1.26-1.26,1.26h-.27c-2.16,0-1.89,0-1.98-1.98,0-.72.18-.99.9-.9h.81l.09-.09Z"/><path class="cls-22" d="m67.04,538.32c1.89,0,1.71-.18,1.71,1.8,0,1.08-.09,1.17-1.17,1.17h-.27c-2.25,0-1.98.09-2.07-2.07,0-.63.18-.9.81-.9h.99Z"/><path class="cls-22" d="m67.04,542.61c1.89,0,1.71-.18,1.71,1.71,0,1.17-.09,1.26-1.17,1.26h-1.26c-.72,0-.99-.27-.99-.99v-.18c0-1.98-.27-1.8,1.8-1.8h-.09Z"/><path class="cls-22" d="m51.2,538.32c1.89,0,1.71-.18,1.71,1.71,0,1.08-.09,1.17-1.17,1.17h-.27c-2.25,0-2.07.09-2.07-2.07,0-.63.18-.9.81-.9h.9l.09.09Z"/><path class="cls-25" d="m60.83,517.8c-.27,0-.54-.09-.54-.45-.01-.29.22-.53.5-.54.01,0,.02,0,.04,0,.27,0,.54.09.54.45.01.29-.22.53-.5.54-.01,0-.02,0-.04,0Z"/><path class="cls-25" d="m62.99,517.35c0,.36-.27.45-.63.45s-.54-.18-.54-.45.27-.45.63-.45.54.18.54.45Z"/><path class="cls-26" d="m57.77,561.09c.02.27-.18.51-.45.54-.23.02-.44-.14-.46-.38,0-.05,0-.11.01-.16,0-.27.09-.54.45-.54.26-.04.5.14.54.4,0,.05,0,.09,0,.14h-.09Z"/><path class="cls-25" d="m55.88,516.81c.36,0,.45.18.45.54.02.23-.16.43-.39.45-.02,0-.04,0-.06,0h0c-.36,0-.63-.18-.54-.54s.27-.45.63-.45h-.09Z"/><path class="cls-25" d="m57.95,517.26c0,.36-.18.54-.45.45-.25.05-.49-.11-.54-.36-.05-.25.11-.49.36-.54.06-.01.12-.01.18,0,.27,0,.54.09.54.45h-.09Z"/><path class="cls-25" d="m57.77,557.4c0,.36-.18.54-.45.54s-.45-.18-.45-.54.09-.45.45-.45.54.09.54.45h-.09Z"/><path class="cls-25" d="m61.37,557.31c0,.45-.18.63-.45.63s-.45-.18-.45-.54.27-.45.54-.45c.22-.02.42.14.45.36h-.09Z"/><path class="cls-25" d="m61.01,561.51c-.36,0-.63-.09-.63-.45s.18-.54.45-.54.45.18.45.54-.09.45-.36.45h.09Z"/><path class="cls-25" d="m59.57,517.26c.03.24-.12.47-.36.54-.27,0-.54-.09-.54-.45-.03-.24.12-.47.36-.54.36,0,.54.09.54.45Z"/><path class="cls-25" d="m59.12,557.13c-.27,0-.45-.09-.54-.45s.09-.54.45-.54.54.18.54.45c.02.23-.16.43-.39.45-.02,0-.04,0-.06,0v.09Z"/><path class="cls-25" d="m56.51,559.71c-.36,0-.45-.18-.45-.54s.18-.45.54-.45.45.18.45.54-.18.45-.54.45Z"/><path class="cls-25" d="m61.64,558.75c.36,0,.54.09.54.36s-.09.54-.45.54c-.24.03-.47-.12-.54-.36,0-.36.09-.54.36-.54h.09Z"/><path class="cls-25" d="m59.12,555.15c-.19-.01-.35-.17-.36-.36,0-.18.09-.27.36-.27.18-.02.34.12.36.3,0,.02,0,.04,0,.06,0,.18-.09.27-.36.27Z"/><path class="cls-26" d="m58.58,559.56c-.05.26-.28.44-.54.45-.27,0-.45-.18-.36-.54s.18-.45.45-.45.36.27.45.45v.09Z"/><path class="cls-26" d="m59.3,559.92c.23-.02.43.16.45.39,0,.02,0,.04,0,.06,0,.27,0,.45-.36.45s-.54-.09-.54-.36h0c0-.27.18-.36.45-.45v-.09Z"/><path class="cls-26" d="m59.21,558.3c-.02.24-.21.43-.45.45-.22.02-.42-.14-.45-.36h0c.03-.27.27-.47.54-.45.27,0,.36.18.36.45v-.09Z"/><path class="cls-25" d="m60.2,559.38c-.36,0-.45-.18-.36-.36s.18-.45.45-.36c.19.01.35.17.36.36v.09c-.01.19-.17.35-.36.36l-.09-.09Z"/><path d="m33.83,543.45c1.88-1.47,4.59-1.14,6.06.74.02.02.04.05.06.07l2.07,2.88-7.11,5.22-2.07-2.88c-1.4-1.88-1.01-4.54.87-5.94.04-.03.08-.06.12-.09Zm1.17,1.53c-1.07.62-1.43,1.99-.81,3.06.05.09.11.18.18.27l.9,1.26,3.96-2.97-.9-1.26c-.74-1.06-2.2-1.32-3.26-.57-.06.04-.11.08-.16.12l.09.09Z"/><path d="m30.14,543.45c-.6.25-1.28-.03-1.53-.63-.25-.6.03-1.28.63-1.53.6-.25,1.28.03,1.53.63h0c.25.58-.01,1.26-.6,1.52-.01,0-.02,0-.03.01Zm1.44-.81l-.72-1.71,5.76-2.43.72,1.71-5.76,2.43Z"/><path d="m33.38,533.19c1.44-.36,2.34.72,2.61,2.07.33,1.06.01,2.22-.81,2.97l-1.26-1.35c.44-.2.64-.72.45-1.17-.09-.45-.27-.63-.54-.54-.72.18.36,3.06-1.71,3.6-1.35.27-2.25-.63-2.61-1.98-.28-.96,0-2,.72-2.7l1.17,1.35c-.3.23-.44.62-.36.99-.02.23.16.43.39.45.02,0,.04,0,.06,0,.72-.18-.45-3.06,1.8-3.6l.09-.09Z"/><path d="m32.21,525.45c1.74-.05,3.19,1.32,3.24,3.06,0,.03,0,.06,0,.09,0,.71-.3,1.4-.81,1.89h3.15v1.98l-8.82-.27v-1.89h.63c-.49-.51-.75-1.19-.72-1.89.12-1.71,1.6-3,3.31-2.89.04,0,.08,0,.11,0l-.09-.09Zm0,1.89c-.84-.06-1.56.58-1.62,1.42,0,0,0,.02,0,.02-.08.77.49,1.45,1.25,1.52.06,0,.13,0,.19,0,.84.06,1.56-.58,1.62-1.42,0,0,0-.02,0-.02.12-.74-.39-1.43-1.12-1.54-.11-.02-.21-.02-.32-.01v.03Z"/><path d="m26.81,522.66l.45-1.8,8.91,2.25-.45,1.8-8.91-2.25Z"/><path d="m33.47,513.57l5.67,2.79-.81,1.71-.54-.27c.25.65.19,1.38-.18,1.98-.99,1.55-3.06,2.01-4.61,1.01-1.33-.85-1.88-2.51-1.33-3.98.29-.65.85-1.14,1.53-1.35l-.54-.27.81-1.71v.09Zm1.98,3.06c-.73-.4-1.64-.14-2.04.58,0,.02-.02.03-.03.05-.43.76-.17,1.72.59,2.15.76.43,1.72.17,2.15-.59.43-.76.17-1.72-.59-2.15-.03-.01-.05-.03-.08-.04Z"/><path d="m39.05,507.09l3.06,5.76c.99,1.89.81,3.24-.45,4.5l-1.26-1.17c.57-.46.68-1.29.27-1.89l-6.12-2.25,1.44-1.53,3.78,1.53-2.07-3.51,1.35-1.53v.09Z"/><path d="m51.92,500.25l.54,6.57-1.62.72-2.25-2.7.36,3.51-1.62.72-4.32-5.04,1.89-.81,2.16,2.79-.36-3.51,1.62-.72,2.16,2.7-.45-3.51,1.89-.81v.09Z"/><path d="m53.38,498.51c-.08-.62.37-1.19.99-1.26.62-.08,1.19.37,1.26.99.08.62-.37,1.19-.99,1.26,0,0,0,0,0,0-.61.08-1.17-.35-1.26-.96,0-.01,0-.02,0-.03Zm.45,1.62l1.89-.27.9,6.21-1.89.27-.9-6.21Z"/><path d="m60.02,501.6v2.25c0,.54.45.63,1.26.54v1.71c-2.52.18-3.24-.54-3.15-2.25v-2.25h-.99v-1.8h.99v-1.17l1.89-.54v1.8h1.26v1.8h-1.35l.09-.09Z"/><path d="m68.68,503.67l-.9,3.78-1.8-.45.81-3.51c.2-.51-.06-1.09-.57-1.29-.08-.03-.16-.05-.24-.06-.58-.19-1.2.12-1.39.7-.03.09-.05.19-.05.29l-.81,3.33-1.8-.45,2.07-8.55,1.8.45-.72,3.06c.54-.4,1.24-.53,1.89-.36,1.27.29,2.07,1.55,1.78,2.82-.02.08-.04.16-.07.24Z"/><path d="m74.24,511.41v-3.42l-1.62,2.25-1.53-1.08,5.22-7.11,1.53,1.08-3.15,4.23,3.15-1.08,1.8,1.35-3.69,1.17v3.96l-1.71-1.26v-.09Z"/><path d="m78.92,514.11c.29.36.71.59,1.17.63l.27,1.71c-1.07.05-2.1-.46-2.7-1.35-1.23-1.3-1.17-3.34.12-4.57.08-.07.15-.14.24-.2,1.31-1.16,3.31-1.03,4.47.28.07.08.14.17.21.26,1.12,1.37.93,3.39-.44,4.51-.03.03-.07.05-.1.08-.18.18-.45.27-.63.45l-2.79-3.51c-.32.56-.21,1.27.27,1.71h-.09Zm2.52-.54c.36-.51.36-1.2,0-1.71-.36-.53-1.04-.72-1.62-.45l1.71,2.07-.09.09Z"/><path d="m88.01,520.59l-6.48.54c-2.16.18-3.33-.54-3.96-2.16l1.62-.72c.19.71.9,1.14,1.62.99l4.41-4.77.9,1.89-2.97,2.88,3.96-.54.81,1.8.09.09Z"/><path d="m86.39,529.5c-1.68.35-3.32-.73-3.67-2.41,0-.04-.01-.07-.02-.11-.16-.69.01-1.42.45-1.98l-3.06.45-.27-1.89,8.73-1.26.27,1.89h-.63c.56.44.92,1.09.99,1.8.18,1.71-1.06,3.23-2.77,3.41-.04,0-.08,0-.11,0l.09.09Zm-.27-1.89c.77-.06,1.35-.74,1.29-1.51,0-.07-.02-.13-.03-.2-.04-.75-.68-1.34-1.43-1.3-.09,0-.19.02-.28.04-.77.06-1.35.74-1.29,1.51,0,.07.02.13.03.2.04.75.68,1.34,1.43,1.3.09,0,.19-.02.28-.04h0Z"/><path d="m88.48,537.78l-6.21-.99.27-1.89h.54c-.49-.5-.66-1.23-.45-1.89.49-1.78,2.34-2.83,4.12-2.34,1.52.42,2.54,1.84,2.45,3.42-.05.71-.46,1.36-1.08,1.71h.54c0,.09-.27,1.98-.27,1.98h.09Zm-2.79-2.34c.73.19,1.48-.25,1.67-.98.02-.09.04-.19.04-.28.14-.79-.38-1.55-1.17-1.7-.03,0-.06,0-.09-.01-.73-.19-1.48.25-1.67.98-.02.09-.04.19-.04.28-.13.79.41,1.55,1.2,1.68.01,0,.03,0,.04,0l.02.03Z"/><path d="m87.02,547.32l-7.92-3.87.81-1.71.54.27c-.3-.65-.23-1.4.18-1.98.86-1.52,2.78-2.08,4.32-1.26,1.58.67,2.32,2.49,1.65,4.07-.01.02-.02.05-.03.07-.29.65-.85,1.14-1.53,1.35l2.79,1.35-.81,1.71Zm-4.23-4.23c.73.4,1.64.14,2.04-.58,0-.02.02-.03.03-.05.37-.69.11-1.54-.58-1.91-.05-.02-.09-.05-.14-.07-.73-.4-1.64-.14-2.04.58,0,.02-.02.03-.03.05-.37.69-.11,1.54.58,1.91.05.02.09.05.14.07h0Z"/><path class="cls-27" d="m164.18,527.63c.5,0,.99.02,1.49.02.84,0,1.54.69,1.55,1.54,0,.78,0,1.56,0,2.33,0,6.58,0,13.16,0,19.75,0,.43-.02.86-.15,1.28-.15.49-.75.93-1.27.93-5.57,0-11.15,0-16.72,0-.03,0-.05,0-.08,0,0-1.51,0-3.03,0-4.54,1.16,0,2.32,0,3.48-.01.15,0,.32.04.32-.21,0-.57.05-1.16-.08-1.71-.36-1.48-.79-2.95-1.17-4.43-.1-.4-.22-.79-.36-1.18-.22-.61.19-.92.56-1.25.6-.55.85-1.24.99-2.03.3-1.66-1.1-3.65-2.68-4.16-.05-.09-.12-.13-.22-.08-.08-.02-.16-.04-.24-.05-.04-.05-.08-.07-.14-.03-.15-.02-.31-.04-.46-.07,0-2.01,0-4.03,0-6.04,2.86,0,5.71,0,8.57-.02.18,0,.36-.01.53-.02,1.02.03,2.04.05,3.07,0,1,.06,2,.04,3.01,0Z"/><path class="cls-12" d="m149,548.92c0,1.51,0,3.03,0,4.54-.57,0-1.15.01-1.72.01-4.86,0-9.72-.02-14.58.02-1.28.01-1.94-.69-1.94-1.94.04-7.44.03-14.88,0-22.32,0-.89.72-1.6,1.57-1.59.5,0,.99-.01,1.49-.02,1,.03,2,.05,3-.01,1.02.06,2.04.03,3.06.01.17,0,.33.02.5.02,2.87,0,5.74,0,8.61.01,0,2.01,0,4.03,0,6.04-.32.15-.68.08-1.02.21-1.42.55-2.36,1.51-2.7,3.02-.06.03-.11.07-.03.14-.11,1.25.02,2.39,1.14,3.22.35.26.49.65.35,1.14-.09.3-.2.59-.27.9-.2.84-.42,1.66-.64,2.49-.16.61-.35,1.22-.5,1.83-.15.61-.11,1.23-.13,1.85-.01.31.07.42.4.41,1.14-.02,2.27,0,3.41,0Z"/><path class="cls-20" d="m136.83,527.62c-1,.06-2,.04-3,.01,0-2.7-.02-5.41.02-8.11.02-1.25.19-2.49.55-3.71.44-1.46,1.06-2.83,1.9-4.1,1.05-1.58,2.35-2.94,3.9-4.05,1.02-.73,2.09-1.38,3.27-1.78,1.17-.41,2.35-.81,3.61-.9.71-.05,1.41-.16,2.12-.14,1.77.03,3.47.38,5.13,1,1.65.62,3.14,1.52,4.5,2.65,1.17.97,2.13,2.12,2.94,3.4.58.9,1.03,1.86,1.42,2.87.21.55.36,1.12.55,1.68.17.51.21,1.06.27,1.6.35,3.19.08,6.39.17,9.58-1,.04-2,.05-3,0,0-2.28-.02-4.57.01-6.85.02-1.31-.15-2.6-.47-3.87-.45-1.78-1.28-3.39-2.48-4.76-1.47-1.68-3.26-2.95-5.42-3.64-1.53-.49-3.08-.64-4.69-.54-1.49.09-2.89.44-4.22,1.06-2.21,1.03-3.95,2.61-5.24,4.69-1.11,1.79-1.72,3.76-1.8,5.84-.1,2.69-.02,5.38-.02,8.08Z"/><path class="cls-10" d="m158.11,527.63c0-2.42.02-4.85,0-7.27-.01-1.29-.19-2.56-.71-3.76-.41-.95-.96-1.81-1.64-2.6-1.01-1.18-2.27-1.99-3.7-2.51-1.32-.48-2.7-.64-4.13-.46-.87.11-1.71.31-2.49.65-2.18.95-3.78,2.51-4.77,4.69-.46,1.02-.65,2.09-.7,3.2-.13,2.69-.02,5.38-.06,8.06-1.02.02-2.04.04-3.06-.01,0-2.69-.08-5.39.02-8.08.08-2.08.68-4.05,1.8-5.84,1.29-2.08,3.03-3.66,5.24-4.69,1.33-.62,2.73-.97,4.22-1.06,1.61-.09,3.16.06,4.69.54,2.16.69,3.94,1.95,5.42,3.64,1.2,1.38,2.03,2.98,2.48,4.76.32,1.27.49,2.55.47,3.87-.03,2.28-.01,4.57-.01,6.85-1.02.05-2.04.04-3.07,0Z"/><path class="cls-14" d="m149,548.92c-1.14,0-2.27-.02-3.41,0-.33,0-.41-.1-.4-.41.02-.62-.01-1.25.13-1.85.15-.62.34-1.22.5-1.83.22-.83.44-1.66.64-2.49.07-.31.18-.6.27-.9.14-.49,0-.88-.35-1.14-1.12-.83-1.25-1.97-1.14-3.22.06-.03.06-.08.03-.14.34-1.51,1.28-2.47,2.7-3.02.34-.13.7-.05,1.02-.21.15.02.31.04.46.07.03.08.07.12.14.03.08.02.16.04.24.05.04.11.14.08.22.08,1.58.51,2.98,2.5,2.68,4.16-.14.79-.4,1.48-.99,2.03-.36.33-.78.65-.56,1.25.14.39.25.78.36,1.18.38,1.48.81,2.94,1.17,4.43.13.55.09,1.14.08,1.71,0,.25-.17.21-.32.21-1.16,0-2.32,0-3.48.01Z"/><path class="cls-10" d="m150.07,533.94c-.09,0-.18.03-.22-.08.1-.05.17,0,.22.08Z"/><path class="cls-10" d="m149.6,533.81c-.07.09-.11.05-.14-.03.06-.03.1-.02.14.03Z"/><path class="cls-20" d="m145.28,536.93c.03.06.03.1-.03.14-.08-.07-.03-.1.03-.14Z"/><circle class="cls-3" cx="149.13" cy="531.47" r="39.02"/><path class="cls-27" d="m260.18,528.63c.5,0,.99.02,1.49.02.84,0,1.54.69,1.55,1.54,0,.78,0,1.56,0,2.33,0,6.58,0,13.16,0,19.75,0,.43-.02.86-.15,1.28-.15.49-.75.93-1.27.93-5.57,0-11.15,0-16.72,0-.03,0-.05,0-.08,0,0-1.51,0-3.03,0-4.54,1.16,0,2.32,0,3.48-.01.15,0,.32.04.32-.21,0-.57.05-1.16-.08-1.71-.36-1.48-.79-2.95-1.17-4.43-.1-.4-.22-.79-.36-1.18-.22-.61.19-.92.56-1.25.6-.55.85-1.24.99-2.03.3-1.66-1.1-3.65-2.68-4.16-.05-.09-.12-.13-.22-.08-.08-.02-.16-.04-.24-.05-.04-.05-.08-.07-.14-.03-.15-.02-.31-.04-.46-.07,0-2.01,0-4.03,0-6.04,2.86,0,5.71,0,8.57-.02.18,0,.36-.01.53-.02,1.02.03,2.04.05,3.07,0,1,.06,2,.04,3.01,0Z"/><path class="cls-12" d="m245,549.92c0,1.51,0,3.03,0,4.54-.57,0-1.15.01-1.72.01-4.86,0-9.72-.02-14.58.02-1.28.01-1.94-.69-1.94-1.94.04-7.44.03-14.88,0-22.32,0-.89.72-1.6,1.57-1.59.5,0,.99-.01,1.49-.02,1,.03,2,.05,3-.01,1.02.06,2.04.03,3.06.01.17,0,.33.02.5.02,2.87,0,5.74,0,8.61.01,0,2.01,0,4.03,0,6.04-.32.15-.68.08-1.02.21-1.42.55-2.36,1.51-2.7,3.02-.06.03-.11.07-.03.14-.11,1.25.02,2.39,1.14,3.22.35.26.49.65.35,1.14-.09.3-.2.59-.27.9-.2.84-.42,1.66-.64,2.49-.16.61-.35,1.22-.5,1.83-.15.61-.11,1.23-.13,1.85-.01.31.07.42.4.41,1.14-.02,2.27,0,3.41,0Z"/><path class="cls-20" d="m232.83,528.62c-1,.06-2,.04-3,.01,0-2.7-.02-5.41.02-8.11.02-1.25.19-2.49.55-3.71.44-1.46,1.06-2.83,1.9-4.1,1.05-1.58,2.35-2.94,3.9-4.05,1.02-.73,2.09-1.38,3.27-1.78,1.17-.41,2.35-.81,3.61-.9.71-.05,1.41-.16,2.12-.14,1.77.03,3.47.38,5.13,1,1.65.62,3.14,1.52,4.5,2.65,1.17.97,2.13,2.12,2.94,3.4.58.9,1.03,1.86,1.42,2.87.21.55.36,1.12.55,1.68.17.51.21,1.06.27,1.6.35,3.19.08,6.39.17,9.58-1,.04-2,.05-3,0,0-2.28-.02-4.57.01-6.85.02-1.31-.15-2.6-.47-3.87-.45-1.78-1.28-3.39-2.48-4.76-1.47-1.68-3.26-2.95-5.42-3.64-1.53-.49-3.08-.64-4.69-.54-1.49.09-2.89.44-4.22,1.06-2.21,1.03-3.95,2.61-5.24,4.69-1.11,1.79-1.72,3.76-1.8,5.84-.1,2.69-.02,5.38-.02,8.08Z"/><path class="cls-10" d="m254.11,528.63c0-2.42.02-4.85,0-7.27-.01-1.29-.19-2.56-.71-3.76-.41-.95-.96-1.81-1.64-2.6-1.01-1.18-2.27-1.99-3.7-2.51-1.32-.48-2.7-.64-4.13-.46-.87.11-1.71.31-2.49.65-2.18.95-3.78,2.51-4.77,4.69-.46,1.02-.65,2.09-.7,3.2-.13,2.69-.02,5.38-.06,8.06-1.02.02-2.04.04-3.06-.01,0-2.69-.08-5.39.02-8.08.08-2.08.68-4.05,1.8-5.84,1.29-2.08,3.03-3.66,5.24-4.69,1.33-.62,2.73-.97,4.22-1.06,1.61-.09,3.16.06,4.69.54,2.16.69,3.94,1.95,5.42,3.64,1.2,1.38,2.03,2.98,2.48,4.76.32,1.27.49,2.55.47,3.87-.03,2.28-.01,4.57-.01,6.85-1.02.05-2.04.04-3.07,0Z"/><path class="cls-14" d="m245,549.92c-1.14,0-2.27-.02-3.41,0-.33,0-.41-.1-.4-.41.02-.62-.01-1.25.13-1.85.15-.62.34-1.22.5-1.83.22-.83.44-1.66.64-2.49.07-.31.18-.6.27-.9.14-.49,0-.88-.35-1.14-1.12-.83-1.25-1.97-1.14-3.22.06-.03.06-.08.03-.14.34-1.51,1.28-2.47,2.7-3.02.34-.13.7-.05,1.02-.21.15.02.31.04.46.07.03.08.07.12.14.03.08.02.16.04.24.05.04.11.14.08.22.08,1.58.51,2.98,2.5,2.68,4.16-.14.79-.4,1.48-.99,2.03-.36.33-.78.65-.56,1.25.14.39.25.78.36,1.18.38,1.48.81,2.94,1.17,4.43.13.55.09,1.14.08,1.71,0,.25-.17.21-.32.21-1.16,0-2.32,0-3.48.01Z"/><path class="cls-10" d="m246.07,534.94c-.09,0-.18.03-.22-.08.1-.05.17,0,.22.08Z"/><path class="cls-10" d="m245.6,534.81c-.07.09-.11.05-.14-.03.06-.03.1-.02.14.03Z"/><path class="cls-20" d="m241.28,537.93c.03.06.03.1-.03.14-.08-.07-.03-.1.03-.14Z"/><circle class="cls-3" cx="245.13" cy="532.47" r="39.02"/><path class="cls-27" d="m73.18,291.97c.5,0,.99.02,1.49.02.84,0,1.54.69,1.55,1.54,0,.78,0,1.56,0,2.33,0,6.58,0,13.16,0,19.75,0,.43-.02.86-.15,1.28-.15.49-.75.93-1.27.93-5.57,0-11.15,0-16.72,0-.03,0-.05,0-.08,0,0-1.51,0-3.03,0-4.54,1.16,0,2.32,0,3.48-.01.15,0,.32.04.32-.21,0-.57.05-1.16-.08-1.71-.36-1.48-.79-2.95-1.17-4.43-.1-.4-.22-.79-.36-1.18-.22-.61.19-.92.56-1.25.6-.55.85-1.24.99-2.03.3-1.66-1.1-3.65-2.68-4.16-.05-.09-.12-.13-.22-.08-.08-.02-.16-.04-.24-.05-.04-.05-.08-.07-.14-.03-.15-.02-.31-.04-.46-.07,0-2.01,0-4.03,0-6.04,2.86,0,5.71,0,8.57-.02.18,0,.36-.01.53-.02,1.02.03,2.04.05,3.07,0,1,.06,2,.04,3.01,0Z"/><path class="cls-12" d="m58,313.26c0,1.51,0,3.03,0,4.54-.57,0-1.15.01-1.72.01-4.86,0-9.72-.02-14.58.02-1.28.01-1.94-.69-1.94-1.94.04-7.44.03-14.88,0-22.32,0-.89.72-1.6,1.57-1.59.5,0,.99-.01,1.49-.02,1,.03,2,.05,3-.01,1.02.06,2.04.03,3.06.01.17,0,.33.02.5.02,2.87,0,5.74,0,8.61.01,0,2.01,0,4.03,0,6.04-.32.15-.68.08-1.02.21-1.42.55-2.36,1.51-2.7,3.02-.06.03-.11.07-.03.14-.11,1.25.02,2.39,1.14,3.22.35.26.49.65.35,1.14-.09.3-.2.59-.27.9-.2.84-.42,1.66-.64,2.49-.16.61-.35,1.22-.5,1.83-.15.61-.11,1.23-.13,1.85-.01.31.07.42.4.41,1.14-.02,2.27,0,3.41,0Z"/><path class="cls-20" d="m45.83,291.96c-1,.06-2,.04-3,.01,0-2.7-.02-5.41.02-8.11.02-1.25.19-2.49.55-3.71.44-1.46,1.06-2.83,1.9-4.1,1.05-1.58,2.35-2.94,3.9-4.05,1.02-.73,2.09-1.38,3.27-1.78,1.17-.41,2.35-.81,3.61-.9.71-.05,1.41-.16,2.12-.14,1.77.03,3.47.38,5.13,1,1.65.62,3.14,1.52,4.5,2.65,1.17.97,2.13,2.12,2.94,3.4.58.9,1.03,1.86,1.42,2.87.21.55.36,1.12.55,1.68.17.51.21,1.06.27,1.6.35,3.19.08,6.39.17,9.58-1,.04-2,.05-3,0,0-2.28-.02-4.57.01-6.85.02-1.31-.15-2.6-.47-3.87-.45-1.78-1.28-3.39-2.48-4.76-1.47-1.68-3.26-2.95-5.42-3.64-1.53-.49-3.08-.64-4.69-.54-1.49.09-2.89.44-4.22,1.06-2.21,1.03-3.95,2.61-5.24,4.69-1.11,1.79-1.72,3.76-1.8,5.84-.1,2.69-.02,5.38-.02,8.08Z"/><path class="cls-10" d="m67.11,291.97c0-2.42.02-4.85,0-7.27-.01-1.29-.19-2.56-.71-3.76-.41-.95-.96-1.81-1.64-2.6-1.01-1.18-2.27-1.99-3.7-2.51-1.32-.48-2.7-.64-4.13-.46-.87.11-1.71.31-2.49.65-2.18.95-3.78,2.51-4.77,4.69-.46,1.02-.65,2.09-.7,3.2-.13,2.69-.02,5.38-.06,8.06-1.02.02-2.04.04-3.06-.01,0-2.69-.08-5.39.02-8.08.08-2.08.68-4.05,1.8-5.84,1.29-2.08,3.03-3.66,5.24-4.69,1.33-.62,2.73-.97,4.22-1.06,1.61-.09,3.16.06,4.69.54,2.16.69,3.94,1.95,5.42,3.64,1.2,1.38,2.03,2.98,2.48,4.76.32,1.27.49,2.55.47,3.87-.03,2.28-.01,4.57-.01,6.85-1.02.05-2.04.04-3.07,0Z"/><path class="cls-14" d="m58,313.26c-1.14,0-2.27-.02-3.41,0-.33,0-.41-.1-.4-.41.02-.62-.01-1.25.13-1.85.15-.62.34-1.22.5-1.83.22-.83.44-1.66.64-2.49.07-.31.18-.6.27-.9.14-.49,0-.88-.35-1.14-1.12-.83-1.25-1.97-1.14-3.22.06-.03.06-.08.03-.14.34-1.51,1.28-2.47,2.7-3.02.34-.13.7-.05,1.02-.21.15.02.31.04.46.07.03.08.07.12.14.03.08.02.16.04.24.05.04.11.14.08.22.08,1.58.51,2.98,2.5,2.68,4.16-.14.79-.4,1.48-.99,2.03-.36.33-.78.65-.56,1.25.14.39.25.78.36,1.18.38,1.48.81,2.94,1.17,4.43.13.55.09,1.14.08,1.71,0,.25-.17.21-.32.21-1.16,0-2.32,0-3.48.01Z"/><path class="cls-10" d="m59.07,298.28c-.09,0-.18.03-.22-.08.1-.05.17,0,.22.08Z"/><path class="cls-10" d="m58.6,298.15c-.07.09-.11.05-.14-.03.06-.03.1-.02.14.03Z"/><path class="cls-20" d="m54.28,301.27c.03.06.03.1-.03.14-.08-.07-.03-.1.03-.14Z"/><circle class="cls-3" cx="58.13" cy="295.81" r="39.02"/><path class="cls-27" d="m259.18,291.97c.5,0,.99.02,1.49.02.84,0,1.54.69,1.55,1.54,0,.78,0,1.56,0,2.33,0,6.58,0,13.16,0,19.75,0,.43-.02.86-.15,1.28-.15.49-.75.93-1.27.93-5.57,0-11.15,0-16.72,0-.03,0-.05,0-.08,0,0-1.51,0-3.03,0-4.54,1.16,0,2.32,0,3.48-.01.15,0,.32.04.32-.21,0-.57.05-1.16-.08-1.71-.36-1.48-.79-2.95-1.17-4.43-.1-.4-.22-.79-.36-1.18-.22-.61.19-.92.56-1.25.6-.55.85-1.24.99-2.03.3-1.66-1.1-3.65-2.68-4.16-.05-.09-.12-.13-.22-.08-.08-.02-.16-.04-.24-.05-.04-.05-.08-.07-.14-.03-.15-.02-.31-.04-.46-.07,0-2.01,0-4.03,0-6.04,2.86,0,5.71,0,8.57-.02.18,0,.36-.01.53-.02,1.02.03,2.04.05,3.07,0,1,.06,2,.04,3.01,0Z"/><path class="cls-12" d="m244,313.26c0,1.51,0,3.03,0,4.54-.57,0-1.15.01-1.72.01-4.86,0-9.72-.02-14.58.02-1.28.01-1.94-.69-1.94-1.94.04-7.44.03-14.88,0-22.32,0-.89.72-1.6,1.57-1.59.5,0,.99-.01,1.49-.02,1,.03,2,.05,3-.01,1.02.06,2.04.03,3.06.01.17,0,.33.02.5.02,2.87,0,5.74,0,8.61.01,0,2.01,0,4.03,0,6.04-.32.15-.68.08-1.02.21-1.42.55-2.36,1.51-2.7,3.02-.06.03-.11.07-.03.14-.11,1.25.02,2.39,1.14,3.22.35.26.49.65.35,1.14-.09.3-.2.59-.27.9-.2.84-.42,1.66-.64,2.49-.16.61-.35,1.22-.5,1.83-.15.61-.11,1.23-.13,1.85-.01.31.07.42.4.41,1.14-.02,2.27,0,3.41,0Z"/><path class="cls-20" d="m231.83,291.96c-1,.06-2,.04-3,.01,0-2.7-.02-5.41.02-8.11.02-1.25.19-2.49.55-3.71.44-1.46,1.06-2.83,1.9-4.1,1.05-1.58,2.35-2.94,3.9-4.05,1.02-.73,2.09-1.38,3.27-1.78,1.17-.41,2.35-.81,3.61-.9.71-.05,1.41-.16,2.12-.14,1.77.03,3.47.38,5.13,1,1.65.62,3.14,1.52,4.5,2.65,1.17.97,2.13,2.12,2.94,3.4.58.9,1.03,1.86,1.42,2.87.21.55.36,1.12.55,1.68.17.51.21,1.06.27,1.6.35,3.19.08,6.39.17,9.58-1,.04-2,.05-3,0,0-2.28-.02-4.57.01-6.85.02-1.31-.15-2.6-.47-3.87-.45-1.78-1.28-3.39-2.48-4.76-1.47-1.68-3.26-2.95-5.42-3.64-1.53-.49-3.08-.64-4.69-.54-1.49.09-2.89.44-4.22,1.06-2.21,1.03-3.95,2.61-5.24,4.69-1.11,1.79-1.72,3.76-1.8,5.84-.1,2.69-.02,5.38-.02,8.08Z"/><path class="cls-10" d="m253.11,291.97c0-2.42.02-4.85,0-7.27-.01-1.29-.19-2.56-.71-3.76-.41-.95-.96-1.81-1.64-2.6-1.01-1.18-2.27-1.99-3.7-2.51-1.32-.48-2.7-.64-4.13-.46-.87.11-1.71.31-2.49.65-2.18.95-3.78,2.51-4.77,4.69-.46,1.02-.65,2.09-.7,3.2-.13,2.69-.02,5.38-.06,8.06-1.02.02-2.04.04-3.06-.01,0-2.69-.08-5.39.02-8.08.08-2.08.68-4.05,1.8-5.84,1.29-2.08,3.03-3.66,5.24-4.69,1.33-.62,2.73-.97,4.22-1.06,1.61-.09,3.16.06,4.69.54,2.16.69,3.94,1.95,5.42,3.64,1.2,1.38,2.03,2.98,2.48,4.76.32,1.27.49,2.55.47,3.87-.03,2.28-.01,4.57-.01,6.85-1.02.05-2.04.04-3.07,0Z"/><path class="cls-14" d="m244,313.26c-1.14,0-2.27-.02-3.41,0-.33,0-.41-.1-.4-.41.02-.62-.01-1.25.13-1.85.15-.62.34-1.22.5-1.83.22-.83.44-1.66.64-2.49.07-.31.18-.6.27-.9.14-.49,0-.88-.35-1.14-1.12-.83-1.25-1.97-1.14-3.22.06-.03.06-.08.03-.14.34-1.51,1.28-2.47,2.7-3.02.34-.13.7-.05,1.02-.21.15.02.31.04.46.07.03.08.07.12.14.03.08.02.16.04.24.05.04.11.14.08.22.08,1.58.51,2.98,2.5,2.68,4.16-.14.79-.4,1.48-.99,2.03-.36.33-.78.65-.56,1.25.14.39.25.78.36,1.18.38,1.48.81,2.94,1.17,4.43.13.55.09,1.14.08,1.71,0,.25-.17.21-.32.21-1.16,0-2.32,0-3.48.01Z"/><path class="cls-10" d="m245.07,298.28c-.09,0-.18.03-.22-.08.1-.05.17,0,.22.08Z"/><path class="cls-10" d="m244.6,298.15c-.07.09-.11.05-.14-.03.06-.03.1-.02.14.03Z"/><path class="cls-20" d="m240.28,301.27c.03.06.03.1-.03.14-.08-.07-.03-.1.03-.14Z"/><circle class="cls-3" cx="244.13" cy="295.81" r="39.02"/><path class="cls-18" d="m58.58,158.44c2.89-.13,5.71.9,7.83,2.88.51.38.63,1.09.27,1.62-.36.45-.99.45-1.62,0-1.63-1.6-3.84-2.44-6.12-2.34-1.9.05-3.73.78-5.13,2.07-.16.18-.34.33-.54.45-.44.35-1.08.27-1.43-.17,0,0,0,0-.01-.01-.32-.39-.32-.96,0-1.35.55-.58,1.19-1.06,1.89-1.44,1.48-.96,3.19-1.52,4.95-1.62l-.09-.09Z"/><path class="cls-7" d="m59.03,162.22c1.97-.01,3.87.73,5.31,2.07.63.54.72,1.17.27,1.62-.44.45-1.16.45-1.6.02,0,0-.01-.01-.02-.02-2.13-1.98-5.43-1.98-7.56,0-.63.54-1.17.54-1.62.09s-.36-1.08.18-1.62c1.38-1.26,3.17-2,5.04-2.07v-.09Z"/><path class="cls-7" d="m59.12,166c1.2,0,2.35.46,3.24,1.26.43.35.55.96.27,1.44h0c-.34.45-.98.53-1.43.19,0,0,0,0-.01-.01h0c-1.04-.97-2.65-.97-3.69,0-.3.4-.86.48-1.26.18-.07-.05-.13-.11-.18-.18l-.09-.09c-.35-.47-.26-1.13.21-1.49.02-.01.04-.03.06-.04h0c.85-.8,1.98-1.25,3.15-1.26h-.27Z"/><path class="cls-13" d="m77.66,188.5c-1.35-4.77,2.97-14.85-4.41-15.48h-27.9c-7.83.18-3.51,10.62-4.86,15.48v6.03c1.35,4.77-2.88,14.49,4.14,15.48h28.8c7.11-.9,2.88-10.8,4.23-15.48v-6.03Z"/><circle class="cls-4" cx="59.12" cy="177.34" r="40.5"/><path d="m37.79,161.5l-1.08,1.98-5.13-2.88,2.43,4.32v.27l-5.13.18,5.13,2.88-1.08,1.98-8.82-4.95,1.08-1.98,5.22-.18-2.61-4.59,1.08-1.98,8.82,4.95h.09Z"/><path d="m35.81,158.62c-1.4-1.54-1.28-3.92.26-5.31.03-.03.07-.06.1-.09,1.59-1.38,4-1.22,5.4.36,1.39,1.59,1.23,4.01-.36,5.4-1.59,1.39-4.01,1.23-5.4-.36Zm4.14-3.6c-.62-.65-1.65-.67-2.3-.05-.65.62-.67,1.65-.05,2.3.61.63,1.61.67,2.26.09.67-.53.78-1.49.26-2.16-.05-.06-.11-.12-.17-.18h0Z"/><path d="m46.97,143.77l4.14,9.18-1.98.9-.27-.63c-.25.79-.85,1.42-1.62,1.71-1.77.76-3.83-.06-4.59-1.83-.03-.08-.06-.16-.09-.24-.93-1.72-.29-3.87,1.43-4.81.03-.02.07-.04.1-.05.74-.34,1.58-.37,2.34-.09l-1.44-3.24,1.98-.9Zm.72,6.75c-.44-.83-1.46-1.14-2.29-.7-.83.44-1.14,1.46-.7,2.29.42.78,1.37,1.11,2.18.75.85-.37,1.24-1.36.87-2.22-.02-.04-.04-.08-.06-.12Z"/><path d="m55.43,150.52c.52.01,1.01-.26,1.26-.72l1.89.72c-.57,1.09-1.66,1.8-2.88,1.89-2.03.42-4.03-.88-4.45-2.92-.02-.11-.04-.21-.05-.32-.35-2.02,1.01-3.94,3.04-4.29.07-.01.14-.02.2-.03,1.96-.31,3.81,1.04,4.11,3,.01.08.02.16.03.24v.9l-5.04.72c.36.68,1.17.98,1.89.72v.09Zm.99-2.79c-.26-.69-1-1.07-1.71-.9-.73.07-1.32.63-1.44,1.35l3.06-.45h.09Z"/><path d="m71,149.35l-.9,4.32-2.07-.45.9-4.14c.18-.72-.09-1.26-.81-1.35s-1.17.27-1.35,1.08l-.81,3.96-2.07-.45.9-4.14c.18-.72-.09-1.26-.81-1.35s-1.17.27-1.35,1.08l-.81,3.96-2.07-.45,1.53-7.02,2.07.45-.18.63c.56-.5,1.35-.67,2.07-.45.74.12,1.36.64,1.62,1.35.62-.52,1.46-.72,2.25-.54,1.62.36,2.43,1.71,2.07,3.51h-.18Z"/><path d="m73.43,149.8l4.68,2.79-1.08,1.8-4.68-2.79,1.08-1.8Z"/><path d="m77.12,156.28h4.86c.71.01,1.41-.21,1.98-.63.42-.39.45-1.04.07-1.46-.02-.02-.04-.05-.07-.07-.47-.48-1.21-.59-1.8-.27l-.54-2.16c1.36-.59,2.94-.26,3.96.81,1.34,1.16,1.48,3.19.32,4.53-.04.05-.09.1-.14.15-.9.83-2.11,1.25-3.33,1.17h-2.34l2.43,2.43-1.53,1.53-4.86-4.86,1.17-1.17h-.18Z"/><path d="m89.99,169.15c-2.22,1.31-5.09.58-6.4-1.65-.1-.17-.19-.34-.26-.51-1.43-2.47-.58-5.63,1.89-7.06.09-.05.18-.1.27-.14,2.56-1.35,5.73-.37,7.08,2.19.01.02.02.04.03.06.86,1.54.86,3.41,0,4.95l-1.89-1.26c.41-.85.41-1.85,0-2.7-.7-1.44-2.44-2.05-3.88-1.35-.06.03-.11.06-.17.09-1.43.69-2.03,2.4-1.34,3.83.05.11.11.21.17.31.41,1.05,1.49,1.69,2.61,1.53l-1.26-2.43,1.8-.9,2.34,4.5-.81.36-.18.18Z"/><path d="m43.37,199.66v-3.24l5.85-6.12c.46-.47.88-.99,1.26-1.53.24-.34.37-.75.36-1.17-.01-.4-.17-.79-.45-1.08-.32-.28-.75-.41-1.17-.36-1.08.04-2.03.76-2.34,1.8l-3.87-2.16c.99-2.54,3.49-4.16,6.21-4.05,1.57.03,3.09.56,4.32,1.53,1.19,1,1.85,2.49,1.8,4.05.1.99-.16,1.98-.72,2.79-.54,1-1.24,1.92-2.07,2.7l-2.43,2.52h5.49v4.32h-12.24Z"/><path d="m74.78,189.58v1.8c.22,4.6-3.32,8.51-7.92,8.73-.27.01-.54.01-.81,0-2.51.06-4.94-.88-6.75-2.61-1.73-1.7-2.68-4.05-2.61-6.48-.03-2.45.91-4.81,2.61-6.57,1.72-1.77,4.1-2.75,6.57-2.7,1.58-.15,3.16.23,4.5,1.08,1.32.69,2.44,1.72,3.24,2.97l-3.78,2.16c-.4-.56-.92-1.02-1.53-1.35-.72-.37-1.53-.55-2.34-.54-1.28-.04-2.51.45-3.42,1.35-.91.93-1.4,2.2-1.35,3.51-.06,1.28.43,2.52,1.35,3.42.98.96,2.32,1.48,3.69,1.44,1.53,0,3.42-.81,4.05-2.34h-4.23v-3.87h8.73,0Z"/><line class="cls-6" x1="199.13" y1="107.76" x2="196.87" y2="590"/><line class="cls-5" x1="199.13" y1="107.76" x2="196.93" y2="579.24"/><polygon class="cls-28" points="189.46 577.01 196.87 590 204.41 577.08 189.46 577.01"/><line class="cls-1" x1="54.82" y1="112.21" x2="336.74" y2="112.21"/><line class="cls-5" x1="55.26" y1="112" x2="55.26" y2="121.33"/><polygon class="cls-28" points="48.78 119.43 55.26 130.66 61.74 119.43 48.78 119.43"/><line class="cls-5" x1="148.93" y1="112" x2="148.93" y2="121.33"/><polygon class="cls-28" points="142.44 119.43 148.92 130.66 155.41 119.43 142.44 119.43"/><line class="cls-5" x1="242.59" y1="112" x2="242.59" y2="121.33"/><polygon class="cls-28" points="236.11 119.43 242.59 130.66 249.07 119.43 236.11 119.43"/><line class="cls-5" x1="336.26" y1="112" x2="336.26" y2="121.33"/><polygon class="cls-28" points="329.78 119.43 336.26 130.66 342.74 119.43 329.78 119.43"/><line class="cls-1" x1="54.82" y1="465.21" x2="336.74" y2="465.21"/><line class="cls-5" x1="55.26" y1="465" x2="55.26" y2="474.33"/><polygon class="cls-28" points="48.78 472.43 55.26 483.66 61.74 472.43 48.78 472.43"/><line class="cls-5" x1="148.93" y1="465" x2="148.93" y2="474.33"/><polygon class="cls-28" points="142.44 472.43 148.92 483.66 155.41 472.43 142.44 472.43"/><line class="cls-5" x1="242.59" y1="465" x2="242.59" y2="474.33"/><polygon class="cls-28" points="236.11 472.43 242.59 483.66 249.07 472.43 236.11 472.43"/><line class="cls-5" x1="336.26" y1="465" x2="336.26" y2="474.33"/><polygon class="cls-28" points="329.78 472.43 336.26 483.66 342.74 472.43 329.78 472.43"/><line class="cls-1" x1="54.82" y1="346.21" x2="336.74" y2="346.21"/><line class="cls-5" x1="55.26" y1="346" x2="55.26" y2="355.33"/><polygon class="cls-28" points="48.78 353.43 55.26 364.66 61.74 353.43 48.78 353.43"/><line class="cls-5" x1="148.93" y1="346" x2="148.93" y2="355.33"/><polygon class="cls-28" points="142.44 353.43 148.92 364.66 155.41 353.43 142.44 353.43"/><line class="cls-5" x1="242.59" y1="346" x2="242.59" y2="355.33"/><polygon class="cls-28" points="236.11 353.43 242.59 364.66 249.07 353.43 236.11 353.43"/><line class="cls-5" x1="336.26" y1="346" x2="336.26" y2="355.33"/><polygon class="cls-28" points="329.78 353.43 336.26 364.66 342.74 353.43 329.78 353.43"/><line class="cls-1" x1="54.82" y1="230.21" x2="336.74" y2="230.21"/><line class="cls-5" x1="55.26" y1="230" x2="55.26" y2="239.33"/><polygon class="cls-28" points="48.78 237.43 55.26 248.66 61.74 237.43 48.78 237.43"/><line class="cls-5" x1="148.93" y1="230" x2="148.93" y2="239.33"/><polygon class="cls-28" points="142.44 237.43 148.92 248.66 155.41 237.43 142.44 237.43"/><line class="cls-5" x1="242.59" y1="230" x2="242.59" y2="239.33"/><polygon class="cls-28" points="236.11 237.43 242.59 248.66 249.07 237.43 236.11 237.43"/><line class="cls-5" x1="336.26" y1="230" x2="336.26" y2="239.33"/><polygon class="cls-28" points="329.78 237.43 336.26 248.66 342.74 237.43 329.78 237.43"/><path class="cls-27" d="m209.18,629.63c.5,0,.99.02,1.49.02.84,0,1.54.69,1.55,1.54,0,.78,0,1.56,0,2.33,0,6.58,0,13.16,0,19.75,0,.43-.02.86-.15,1.28-.15.49-.75.93-1.27.93-5.57,0-11.15,0-16.72,0-.03,0-.05,0-.08,0,0-1.51,0-3.03,0-4.54,1.16,0,2.32,0,3.48-.01.15,0,.32.04.32-.21,0-.57.05-1.16-.08-1.71-.36-1.48-.79-2.95-1.17-4.43-.1-.4-.22-.79-.36-1.18-.22-.61.19-.92.56-1.25.6-.55.85-1.24.99-2.03.3-1.66-1.1-3.65-2.68-4.16-.05-.09-.12-.13-.22-.08-.08-.02-.16-.04-.24-.05-.04-.05-.08-.07-.14-.03-.15-.02-.31-.04-.46-.07,0-2.01,0-4.03,0-6.04,2.86,0,5.71,0,8.57-.02.18,0,.36-.01.53-.02,1.02.03,2.04.05,3.07,0,1,.06,2,.04,3.01,0Z"/><path class="cls-12" d="m194,650.92c0,1.51,0,3.03,0,4.54-.57,0-1.15.01-1.72.01-4.86,0-9.72-.02-14.58.02-1.28.01-1.94-.69-1.94-1.94.04-7.44.03-14.88,0-22.32,0-.89.72-1.6,1.57-1.59.5,0,.99-.01,1.49-.02,1,.03,2,.05,3-.01,1.02.06,2.04.03,3.06.01.17,0,.33.02.5.02,2.87,0,5.74,0,8.61.01,0,2.01,0,4.03,0,6.04-.32.15-.68.08-1.02.21-1.42.55-2.36,1.51-2.7,3.02-.06.03-.11.07-.03.14-.11,1.25.02,2.39,1.14,3.22.35.26.49.65.35,1.14-.09.3-.2.59-.27.9-.2.84-.42,1.66-.64,2.49-.16.61-.35,1.22-.5,1.83-.15.61-.11,1.23-.13,1.85-.01.31.07.42.4.41,1.14-.02,2.27,0,3.41,0Z"/><path class="cls-20" d="m181.83,629.62c-1,.06-2,.04-3,.01,0-2.7-.02-5.41.02-8.11.02-1.25.19-2.49.55-3.71.44-1.46,1.06-2.83,1.9-4.1,1.05-1.58,2.35-2.94,3.9-4.05,1.02-.73,2.09-1.38,3.27-1.78,1.17-.41,2.35-.81,3.61-.9.71-.05,1.41-.16,2.12-.14,1.77.03,3.47.38,5.13,1,1.65.62,3.14,1.52,4.5,2.65,1.17.97,2.13,2.12,2.94,3.4.58.9,1.03,1.86,1.42,2.87.21.55.36,1.12.55,1.68.17.51.21,1.06.27,1.6.35,3.19.08,6.39.17,9.58-1,.04-2,.05-3,0,0-2.28-.02-4.57.01-6.85.02-1.31-.15-2.6-.47-3.87-.45-1.78-1.28-3.39-2.48-4.76-1.47-1.68-3.26-2.95-5.42-3.64-1.53-.49-3.08-.64-4.69-.54-1.49.09-2.89.44-4.22,1.06-2.21,1.03-3.95,2.61-5.24,4.69-1.11,1.79-1.72,3.76-1.8,5.84-.1,2.69-.02,5.38-.02,8.08Z"/><path class="cls-10" d="m203.11,629.63c0-2.42.02-4.85,0-7.27-.01-1.29-.19-2.56-.71-3.76-.41-.95-.96-1.81-1.64-2.6-1.01-1.18-2.27-1.99-3.7-2.51-1.32-.48-2.7-.64-4.13-.46-.87.11-1.71.31-2.49.65-2.18.95-3.78,2.51-4.77,4.69-.46,1.02-.65,2.09-.7,3.2-.13,2.69-.02,5.38-.06,8.06-1.02.02-2.04.04-3.06-.01,0-2.69-.08-5.39.02-8.08.08-2.08.68-4.05,1.8-5.84,1.29-2.08,3.03-3.66,5.24-4.69,1.33-.62,2.73-.97,4.22-1.06,1.61-.09,3.16.06,4.69.54,2.16.69,3.94,1.95,5.42,3.64,1.2,1.38,2.03,2.98,2.48,4.76.32,1.27.49,2.55.47,3.87-.03,2.28-.01,4.57-.01,6.85-1.02.05-2.04.04-3.07,0Z"/><path class="cls-14" d="m194,650.92c-1.14,0-2.27-.02-3.41,0-.33,0-.41-.1-.4-.41.02-.62-.01-1.25.13-1.85.15-.62.34-1.22.5-1.83.22-.83.44-1.66.64-2.49.07-.31.18-.6.27-.9.14-.49,0-.88-.35-1.14-1.12-.83-1.25-1.97-1.14-3.22.06-.03.06-.08.03-.14.34-1.51,1.28-2.47,2.7-3.02.34-.13.7-.05,1.02-.21.15.02.31.04.46.07.03.08.07.12.14.03.08.02.16.04.24.05.04.11.14.08.22.08,1.58.51,2.98,2.5,2.68,4.16-.14.79-.4,1.48-.99,2.03-.36.33-.78.65-.56,1.25.14.39.25.78.36,1.18.38,1.48.81,2.94,1.17,4.43.13.55.09,1.14.08,1.71,0,.25-.17.21-.32.21-1.16,0-2.32,0-3.48.01Z"/><path class="cls-10" d="m195.07,635.94c-.09,0-.18.03-.22-.08.1-.05.17,0,.22.08Z"/><path class="cls-10" d="m194.6,635.81c-.07.09-.11.05-.14-.03.06-.03.1-.02.14.03Z"/><path class="cls-20" d="m190.28,638.93c.03.06.03.1-.03.14-.08-.07-.03-.1.03-.14Z"/><circle class="cls-3" cx="194.13" cy="633.47" r="39.02"/><path class="cls-27" d="m259.18,409.63c.5,0,.99.02,1.49.02.84,0,1.54.69,1.55,1.54,0,.78,0,1.56,0,2.33,0,6.58,0,13.16,0,19.75,0,.43-.02.86-.15,1.28-.15.49-.75.93-1.27.93-5.57,0-11.15,0-16.72,0-.03,0-.05,0-.08,0,0-1.51,0-3.03,0-4.54,1.16,0,2.32,0,3.48-.01.15,0,.32.04.32-.21,0-.57.05-1.16-.08-1.71-.36-1.48-.79-2.95-1.17-4.43-.1-.4-.22-.79-.36-1.18-.22-.61.19-.92.56-1.25.6-.55.85-1.24.99-2.03.3-1.66-1.1-3.65-2.68-4.16-.05-.09-.12-.13-.22-.08-.08-.02-.16-.04-.24-.05-.04-.05-.08-.07-.14-.03-.15-.02-.31-.04-.46-.07,0-2.01,0-4.03,0-6.04,2.86,0,5.71,0,8.57-.02.18,0,.36-.01.53-.02,1.02.03,2.04.05,3.07,0,1,.06,2,.04,3.01,0Z"/><path class="cls-12" d="m244,430.92c0,1.51,0,3.03,0,4.54-.57,0-1.15.01-1.72.01-4.86,0-9.72-.02-14.58.02-1.28.01-1.94-.69-1.94-1.94.04-7.44.03-14.88,0-22.32,0-.89.72-1.6,1.57-1.59.5,0,.99-.01,1.49-.02,1,.03,2,.05,3-.01,1.02.06,2.04.03,3.06.01.17,0,.33.02.5.02,2.87,0,5.74,0,8.61.01,0,2.01,0,4.03,0,6.04-.32.15-.68.08-1.02.21-1.42.55-2.36,1.51-2.7,3.02-.06.03-.11.07-.03.14-.11,1.25.02,2.39,1.14,3.22.35.26.49.65.35,1.14-.09.3-.2.59-.27.9-.2.84-.42,1.66-.64,2.49-.16.61-.35,1.22-.5,1.83-.15.61-.11,1.23-.13,1.85-.01.31.07.42.4.41,1.14-.02,2.27,0,3.41,0Z"/><path class="cls-20" d="m231.83,409.62c-1,.06-2,.04-3,.01,0-2.7-.02-5.41.02-8.11.02-1.25.19-2.49.55-3.71.44-1.46,1.06-2.83,1.9-4.1,1.05-1.58,2.35-2.94,3.9-4.05,1.02-.73,2.09-1.38,3.27-1.78,1.17-.41,2.35-.81,3.61-.9.71-.05,1.41-.16,2.12-.14,1.77.03,3.47.38,5.13,1,1.65.62,3.14,1.52,4.5,2.65,1.17.97,2.13,2.12,2.94,3.4.58.9,1.03,1.86,1.42,2.87.21.55.36,1.12.55,1.68.17.51.21,1.06.27,1.6.35,3.19.08,6.39.17,9.58-1,.04-2,.05-3,0,0-2.28-.02-4.57.01-6.85.02-1.31-.15-2.6-.47-3.87-.45-1.78-1.28-3.39-2.48-4.76-1.47-1.68-3.26-2.95-5.42-3.64-1.53-.49-3.08-.64-4.69-.54-1.49.09-2.89.44-4.22,1.06-2.21,1.03-3.95,2.61-5.24,4.69-1.11,1.79-1.72,3.76-1.8,5.84-.1,2.69-.02,5.38-.02,8.08Z"/><path class="cls-10" d="m253.11,409.63c0-2.42.02-4.85,0-7.27-.01-1.29-.19-2.56-.71-3.76-.41-.95-.96-1.81-1.64-2.6-1.01-1.18-2.27-1.99-3.7-2.51-1.32-.48-2.7-.64-4.13-.46-.87.11-1.71.31-2.49.65-2.18.95-3.78,2.51-4.77,4.69-.46,1.02-.65,2.09-.7,3.2-.13,2.69-.02,5.38-.06,8.06-1.02.02-2.04.04-3.06-.01,0-2.69-.08-5.39.02-8.08.08-2.08.68-4.05,1.8-5.84,1.29-2.08,3.03-3.66,5.24-4.69,1.33-.62,2.73-.97,4.22-1.06,1.61-.09,3.16.06,4.69.54,2.16.69,3.94,1.95,5.42,3.64,1.2,1.38,2.03,2.98,2.48,4.76.32,1.27.49,2.55.47,3.87-.03,2.28-.01,4.57-.01,6.85-1.02.05-2.04.04-3.07,0Z"/><path class="cls-14" d="m244,430.92c-1.14,0-2.27-.02-3.41,0-.33,0-.41-.1-.4-.41.02-.62-.01-1.25.13-1.85.15-.62.34-1.22.5-1.83.22-.83.44-1.66.64-2.49.07-.31.18-.6.27-.9.14-.49,0-.88-.35-1.14-1.12-.83-1.25-1.97-1.14-3.22.06-.03.06-.08.03-.14.34-1.51,1.28-2.47,2.7-3.02.34-.13.7-.05,1.02-.21.15.02.31.04.46.07.03.08.07.12.14.03.08.02.16.04.24.05.04.11.14.08.22.08,1.58.51,2.98,2.5,2.68,4.16-.14.79-.4,1.48-.99,2.03-.36.33-.78.65-.56,1.25.14.39.25.78.36,1.18.38,1.48.81,2.94,1.17,4.43.13.55.09,1.14.08,1.71,0,.25-.17.21-.32.21-1.16,0-2.32,0-3.48.01Z"/><path class="cls-10" d="m245.07,415.94c-.09,0-.18.03-.22-.08.1-.05.17,0,.22.08Z"/><path class="cls-10" d="m244.6,415.81c-.07.09-.11.05-.14-.03.06-.03.1-.02.14.03Z"/><path class="cls-20" d="m240.28,418.93c.03.06.03.1-.03.14-.08-.07-.03-.1.03-.14Z"/><circle class="cls-3" cx="244.13" cy="413.47" r="39.02"/><path class="cls-27" d="m259.18,173.63c.5,0,.99.02,1.49.02.84,0,1.54.69,1.55,1.54,0,.78,0,1.56,0,2.33,0,6.58,0,13.16,0,19.75,0,.43-.02.86-.15,1.28-.15.49-.75.93-1.27.93-5.57,0-11.15,0-16.72,0-.03,0-.05,0-.08,0,0-1.51,0-3.03,0-4.54,1.16,0,2.32,0,3.48-.01.15,0,.32.04.32-.21,0-.57.05-1.16-.08-1.71-.36-1.48-.79-2.95-1.17-4.43-.1-.4-.22-.79-.36-1.18-.22-.61.19-.92.56-1.25.6-.55.85-1.24.99-2.03.3-1.66-1.1-3.65-2.68-4.16-.05-.09-.12-.13-.22-.08-.08-.02-.16-.04-.24-.05-.04-.05-.08-.07-.14-.03-.15-.02-.31-.04-.46-.07,0-2.01,0-4.03,0-6.04,2.86,0,5.71,0,8.57-.02.18,0,.36-.01.53-.02,1.02.03,2.04.05,3.07,0,1,.06,2,.04,3.01,0Z"/><path class="cls-12" d="m244,194.92c0,1.51,0,3.03,0,4.54-.57,0-1.15.01-1.72.01-4.86,0-9.72-.02-14.58.02-1.28.01-1.94-.69-1.94-1.94.04-7.44.03-14.88,0-22.32,0-.89.72-1.6,1.57-1.59.5,0,.99-.01,1.49-.02,1,.03,2,.05,3-.01,1.02.06,2.04.03,3.06.01.17,0,.33.02.5.02,2.87,0,5.74,0,8.61.01,0,2.01,0,4.03,0,6.04-.32.15-.68.08-1.02.21-1.42.55-2.36,1.51-2.7,3.02-.06.03-.11.07-.03.14-.11,1.25.02,2.39,1.14,3.22.35.26.49.65.35,1.14-.09.3-.2.59-.27.9-.2.84-.42,1.66-.64,2.49-.16.61-.35,1.22-.5,1.83-.15.61-.11,1.23-.13,1.85-.01.31.07.42.4.41,1.14-.02,2.27,0,3.41,0Z"/><path class="cls-20" d="m231.83,173.62c-1,.06-2,.04-3,.01,0-2.7-.02-5.41.02-8.11.02-1.25.19-2.49.55-3.71.44-1.46,1.06-2.83,1.9-4.1,1.05-1.58,2.35-2.94,3.9-4.05,1.02-.73,2.09-1.38,3.27-1.78,1.17-.41,2.35-.81,3.61-.9.71-.05,1.41-.16,2.12-.14,1.77.03,3.47.38,5.13,1,1.65.62,3.14,1.52,4.5,2.65,1.17.97,2.13,2.12,2.94,3.4.58.9,1.03,1.86,1.42,2.87.21.55.36,1.12.55,1.68.17.51.21,1.06.27,1.6.35,3.19.08,6.39.17,9.58-1,.04-2,.05-3,0,0-2.28-.02-4.57.01-6.85.02-1.31-.15-2.6-.47-3.87-.45-1.78-1.28-3.39-2.48-4.76-1.47-1.68-3.26-2.95-5.42-3.64-1.53-.49-3.08-.64-4.69-.54-1.49.09-2.89.44-4.22,1.06-2.21,1.03-3.95,2.61-5.24,4.69-1.11,1.79-1.72,3.76-1.8,5.84-.1,2.69-.02,5.38-.02,8.08Z"/><path class="cls-10" d="m253.11,173.63c0-2.42.02-4.85,0-7.27-.01-1.29-.19-2.56-.71-3.76-.41-.95-.96-1.81-1.64-2.6-1.01-1.18-2.27-1.99-3.7-2.51-1.32-.48-2.7-.64-4.13-.46-.87.11-1.71.31-2.49.65-2.18.95-3.78,2.51-4.77,4.69-.46,1.02-.65,2.09-.7,3.2-.13,2.69-.02,5.38-.06,8.06-1.02.02-2.04.04-3.06-.01,0-2.69-.08-5.39.02-8.08.08-2.08.68-4.05,1.8-5.84,1.29-2.08,3.03-3.66,5.24-4.69,1.33-.62,2.73-.97,4.22-1.06,1.61-.09,3.16.06,4.69.54,2.16.69,3.94,1.95,5.42,3.64,1.2,1.38,2.03,2.98,2.48,4.76.32,1.27.49,2.55.47,3.87-.03,2.28-.01,4.57-.01,6.85-1.02.05-2.04.04-3.07,0Z"/><path class="cls-14" d="m244,194.92c-1.14,0-2.27-.02-3.41,0-.33,0-.41-.1-.4-.41.02-.62-.01-1.25.13-1.85.15-.62.34-1.22.5-1.83.22-.83.44-1.66.64-2.49.07-.31.18-.6.27-.9.14-.49,0-.88-.35-1.14-1.12-.83-1.25-1.97-1.14-3.22.06-.03.06-.08.03-.14.34-1.51,1.28-2.47,2.7-3.02.34-.13.7-.05,1.02-.21.15.02.31.04.46.07.03.08.07.12.14.03.08.02.16.04.24.05.04.11.14.08.22.08,1.58.51,2.98,2.5,2.68,4.16-.14.79-.4,1.48-.99,2.03-.36.33-.78.65-.56,1.25.14.39.25.78.36,1.18.38,1.48.81,2.94,1.17,4.43.13.55.09,1.14.08,1.71,0,.25-.17.21-.32.21-1.16,0-2.32,0-3.48.01Z"/><path class="cls-10" d="m245.07,179.94c-.09,0-.18.03-.22-.08.1-.05.17,0,.22.08Z"/><path class="cls-10" d="m244.6,179.81c-.07.09-.11.05-.14-.03.06-.03.1-.02.14.03Z"/><path class="cls-20" d="m240.28,182.93c.03.06.03.1-.03.14-.08-.07-.03-.1.03-.14Z"/><circle class="cls-3" cx="244.13" cy="177.47" r="39.02"/><path class="cls-27" d="m163.18,172.63c.5,0,.99.02,1.49.02.84,0,1.54.69,1.55,1.54,0,.78,0,1.56,0,2.33,0,6.58,0,13.16,0,19.75,0,.43-.02.86-.15,1.28-.15.49-.75.93-1.27.93-5.57,0-11.15,0-16.72,0-.03,0-.05,0-.08,0,0-1.51,0-3.03,0-4.54,1.16,0,2.32,0,3.48-.01.15,0,.32.04.32-.21,0-.57.05-1.16-.08-1.71-.36-1.48-.79-2.95-1.17-4.43-.1-.4-.22-.79-.36-1.18-.22-.61.19-.92.56-1.25.6-.55.85-1.24.99-2.03.3-1.66-1.1-3.65-2.68-4.16-.05-.09-.12-.13-.22-.08-.08-.02-.16-.04-.24-.05-.04-.05-.08-.07-.14-.03-.15-.02-.31-.04-.46-.07,0-2.01,0-4.03,0-6.04,2.86,0,5.71,0,8.57-.02.18,0,.36-.01.53-.02,1.02.03,2.04.05,3.07,0,1,.06,2,.04,3.01,0Z"/><path class="cls-12" d="m148,193.92c0,1.51,0,3.03,0,4.54-.57,0-1.15.01-1.72.01-4.86,0-9.72-.02-14.58.02-1.28.01-1.94-.69-1.94-1.94.04-7.44.03-14.88,0-22.32,0-.89.72-1.6,1.57-1.59.5,0,.99-.01,1.49-.02,1,.03,2,.05,3-.01,1.02.06,2.04.03,3.06.01.17,0,.33.02.5.02,2.87,0,5.74,0,8.61.01,0,2.01,0,4.03,0,6.04-.32.15-.68.08-1.02.21-1.42.55-2.36,1.51-2.7,3.02-.06.03-.11.07-.03.14-.11,1.25.02,2.39,1.14,3.22.35.26.49.65.35,1.14-.09.3-.2.59-.27.9-.2.84-.42,1.66-.64,2.49-.16.61-.35,1.22-.5,1.83-.15.61-.11,1.23-.13,1.85-.01.31.07.42.4.41,1.14-.02,2.27,0,3.41,0Z"/><path class="cls-20" d="m135.83,172.62c-1,.06-2,.04-3,.01,0-2.7-.02-5.41.02-8.11.02-1.25.19-2.49.55-3.71.44-1.46,1.06-2.83,1.9-4.1,1.05-1.58,2.35-2.94,3.9-4.05,1.02-.73,2.09-1.38,3.27-1.78,1.17-.41,2.35-.81,3.61-.9.71-.05,1.41-.16,2.12-.14,1.77.03,3.47.38,5.13,1,1.65.62,3.14,1.52,4.5,2.65,1.17.97,2.13,2.12,2.94,3.4.58.9,1.03,1.86,1.42,2.87.21.55.36,1.12.55,1.68.17.51.21,1.06.27,1.6.35,3.19.08,6.39.17,9.58-1,.04-2,.05-3,0,0-2.28-.02-4.57.01-6.85.02-1.31-.15-2.6-.47-3.87-.45-1.78-1.28-3.39-2.48-4.76-1.47-1.68-3.26-2.95-5.42-3.64-1.53-.49-3.08-.64-4.69-.54-1.49.09-2.89.44-4.22,1.06-2.21,1.03-3.95,2.61-5.24,4.69-1.11,1.79-1.72,3.76-1.8,5.84-.1,2.69-.02,5.38-.02,8.08Z"/><path class="cls-10" d="m157.11,172.63c0-2.42.02-4.85,0-7.27-.01-1.29-.19-2.56-.71-3.76-.41-.95-.96-1.81-1.64-2.6-1.01-1.18-2.27-1.99-3.7-2.51-1.32-.48-2.7-.64-4.13-.46-.87.11-1.71.31-2.49.65-2.18.95-3.78,2.51-4.77,4.69-.46,1.02-.65,2.09-.7,3.2-.13,2.69-.02,5.38-.06,8.06-1.02.02-2.04.04-3.06-.01,0-2.69-.08-5.39.02-8.08.08-2.08.68-4.05,1.8-5.84,1.29-2.08,3.03-3.66,5.24-4.69,1.33-.62,2.73-.97,4.22-1.06,1.61-.09,3.16.06,4.69.54,2.16.69,3.94,1.95,5.42,3.64,1.2,1.38,2.03,2.98,2.48,4.76.32,1.27.49,2.55.47,3.87-.03,2.28-.01,4.57-.01,6.85-1.02.05-2.04.04-3.07,0Z"/><path class="cls-14" d="m148,193.92c-1.14,0-2.27-.02-3.41,0-.33,0-.41-.1-.4-.41.02-.62-.01-1.25.13-1.85.15-.62.34-1.22.5-1.83.22-.83.44-1.66.64-2.49.07-.31.18-.6.27-.9.14-.49,0-.88-.35-1.14-1.12-.83-1.25-1.97-1.14-3.22.06-.03.06-.08.03-.14.34-1.51,1.28-2.47,2.7-3.02.34-.13.7-.05,1.02-.21.15.02.31.04.46.07.03.08.07.12.14.03.08.02.16.04.24.05.04.11.14.08.22.08,1.58.51,2.98,2.5,2.68,4.16-.14.79-.4,1.48-.99,2.03-.36.33-.78.65-.56,1.25.14.39.25.78.36,1.18.38,1.48.81,2.94,1.17,4.43.13.55.09,1.14.08,1.71,0,.25-.17.21-.32.21-1.16,0-2.32,0-3.48.01Z"/><path class="cls-10" d="m149.07,178.94c-.09,0-.18.03-.22-.08.1-.05.17,0,.22.08Z"/><path class="cls-10" d="m148.6,178.81c-.07.09-.11.05-.14-.03.06-.03.1-.02.14.03Z"/><path class="cls-20" d="m144.28,181.93c.03.06.03.1-.03.14-.08-.07-.03-.1.03-.14Z"/><circle class="cls-3" cx="148.13" cy="176.47" r="39.02"/><path class="cls-27" d="m164.18,288.63c.5,0,.99.02,1.49.02.84,0,1.54.69,1.55,1.54,0,.78,0,1.56,0,2.33,0,6.58,0,13.16,0,19.75,0,.43-.02.86-.15,1.28-.15.49-.75.93-1.27.93-5.57,0-11.15,0-16.72,0-.03,0-.05,0-.08,0,0-1.51,0-3.03,0-4.54,1.16,0,2.32,0,3.48-.01.15,0,.32.04.32-.21,0-.57.05-1.16-.08-1.71-.36-1.48-.79-2.95-1.17-4.43-.1-.4-.22-.79-.36-1.18-.22-.61.19-.92.56-1.25.6-.55.85-1.24.99-2.03.3-1.66-1.1-3.65-2.68-4.16-.05-.09-.12-.13-.22-.08-.08-.02-.16-.04-.24-.05-.04-.05-.08-.07-.14-.03-.15-.02-.31-.04-.46-.07,0-2.01,0-4.03,0-6.04,2.86,0,5.71,0,8.57-.02.18,0,.36-.01.53-.02,1.02.03,2.04.05,3.07,0,1,.06,2,.04,3.01,0Z"/><path class="cls-12" d="m149,309.92c0,1.51,0,3.03,0,4.54-.57,0-1.15.01-1.72.01-4.86,0-9.72-.02-14.58.02-1.28.01-1.94-.69-1.94-1.94.04-7.44.03-14.88,0-22.32,0-.89.72-1.6,1.57-1.59.5,0,.99-.01,1.49-.02,1,.03,2,.05,3-.01,1.02.06,2.04.03,3.06.01.17,0,.33.02.5.02,2.87,0,5.74,0,8.61.01,0,2.01,0,4.03,0,6.04-.32.15-.68.08-1.02.21-1.42.55-2.36,1.51-2.7,3.02-.06.03-.11.07-.03.14-.11,1.25.02,2.39,1.14,3.22.35.26.49.65.35,1.14-.09.3-.2.59-.27.9-.2.84-.42,1.66-.64,2.49-.16.61-.35,1.22-.5,1.83-.15.61-.11,1.23-.13,1.85-.01.31.07.42.4.41,1.14-.02,2.27,0,3.41,0Z"/><path class="cls-20" d="m136.83,288.62c-1,.06-2,.04-3,.01,0-2.7-.02-5.41.02-8.11.02-1.25.19-2.49.55-3.71.44-1.46,1.06-2.83,1.9-4.1,1.05-1.58,2.35-2.94,3.9-4.05,1.02-.73,2.09-1.38,3.27-1.78,1.17-.41,2.35-.81,3.61-.9.71-.05,1.41-.16,2.12-.14,1.77.03,3.47.38,5.13,1,1.65.62,3.14,1.52,4.5,2.65,1.17.97,2.13,2.12,2.94,3.4.58.9,1.03,1.86,1.42,2.87.21.55.36,1.12.55,1.68.17.51.21,1.06.27,1.6.35,3.19.08,6.39.17,9.58-1,.04-2,.05-3,0,0-2.28-.02-4.57.01-6.85.02-1.31-.15-2.6-.47-3.87-.45-1.78-1.28-3.39-2.48-4.76-1.47-1.68-3.26-2.95-5.42-3.64-1.53-.49-3.08-.64-4.69-.54-1.49.09-2.89.44-4.22,1.06-2.21,1.03-3.95,2.61-5.24,4.69-1.11,1.79-1.72,3.76-1.8,5.84-.1,2.69-.02,5.38-.02,8.08Z"/><path class="cls-10" d="m158.11,288.63c0-2.42.02-4.85,0-7.27-.01-1.29-.19-2.56-.71-3.76-.41-.95-.96-1.81-1.64-2.6-1.01-1.18-2.27-1.99-3.7-2.51-1.32-.48-2.7-.64-4.13-.46-.87.11-1.71.31-2.49.65-2.18.95-3.78,2.51-4.77,4.69-.46,1.02-.65,2.09-.7,3.2-.13,2.69-.02,5.38-.06,8.06-1.02.02-2.04.04-3.06-.01,0-2.69-.08-5.39.02-8.08.08-2.08.68-4.05,1.8-5.84,1.29-2.08,3.03-3.66,5.24-4.69,1.33-.62,2.73-.97,4.22-1.06,1.61-.09,3.16.06,4.69.54,2.16.69,3.94,1.95,5.42,3.64,1.2,1.38,2.03,2.98,2.48,4.76.32,1.27.49,2.55.47,3.87-.03,2.28-.01,4.57-.01,6.85-1.02.05-2.04.04-3.07,0Z"/><path class="cls-14" d="m149,309.92c-1.14,0-2.27-.02-3.41,0-.33,0-.41-.1-.4-.41.02-.62-.01-1.25.13-1.85.15-.62.34-1.22.5-1.83.22-.83.44-1.66.64-2.49.07-.31.18-.6.27-.9.14-.49,0-.88-.35-1.14-1.12-.83-1.25-1.97-1.14-3.22.06-.03.06-.08.03-.14.34-1.51,1.28-2.47,2.7-3.02.34-.13.7-.05,1.02-.21.15.02.31.04.46.07.03.08.07.12.14.03.08.02.16.04.24.05.04.11.14.08.22.08,1.58.51,2.98,2.5,2.68,4.16-.14.79-.4,1.48-.99,2.03-.36.33-.78.65-.56,1.25.14.39.25.78.36,1.18.38,1.48.81,2.94,1.17,4.43.13.55.09,1.14.08,1.71,0,.25-.17.21-.32.21-1.16,0-2.32,0-3.48.01Z"/><path class="cls-10" d="m150.07,294.94c-.09,0-.18.03-.22-.08.1-.05.17,0,.22.08Z"/><path class="cls-10" d="m149.6,294.81c-.07.09-.11.05-.14-.03.06-.03.1-.02.14.03Z"/><path class="cls-20" d="m145.28,297.93c.03.06.03.1-.03.14-.08-.07-.03-.1.03-.14Z"/><circle class="cls-3" cx="149.13" cy="292.47" r="39.02"/><path class="cls-27" d="m351.18,527.63c.5,0,.99.02,1.49.02.84,0,1.54.69,1.55,1.54,0,.78,0,1.56,0,2.33,0,6.58,0,13.16,0,19.75,0,.43-.02.86-.15,1.28-.15.49-.75.93-1.27.93-5.57,0-11.15,0-16.72,0-.03,0-.05,0-.08,0,0-1.51,0-3.03,0-4.54,1.16,0,2.32,0,3.48-.01.15,0,.32.04.32-.21,0-.57.05-1.16-.08-1.71-.36-1.48-.79-2.95-1.17-4.43-.1-.4-.22-.79-.36-1.18-.22-.61.19-.92.56-1.25.6-.55.85-1.24.99-2.03.3-1.66-1.1-3.65-2.68-4.16-.05-.09-.12-.13-.22-.08-.08-.02-.16-.04-.24-.05-.04-.05-.08-.07-.14-.03-.15-.02-.31-.04-.46-.07,0-2.01,0-4.03,0-6.04,2.86,0,5.71,0,8.57-.02.18,0,.36-.01.53-.02,1.02.03,2.04.05,3.07,0,1,.06,2,.04,3.01,0Z"/><path class="cls-12" d="m336,548.92c0,1.51,0,3.03,0,4.54-.57,0-1.15.01-1.72.01-4.86,0-9.72-.02-14.58.02-1.28.01-1.94-.69-1.94-1.94.04-7.44.03-14.88,0-22.32,0-.89.72-1.6,1.57-1.59.5,0,.99-.01,1.49-.02,1,.03,2,.05,3-.01,1.02.06,2.04.03,3.06.01.17,0,.33.02.5.02,2.87,0,5.74,0,8.61.01,0,2.01,0,4.03,0,6.04-.32.15-.68.08-1.02.21-1.42.55-2.36,1.51-2.7,3.02-.06.03-.11.07-.03.14-.11,1.25.02,2.39,1.14,3.22.35.26.49.65.35,1.14-.09.3-.2.59-.27.9-.2.84-.42,1.66-.64,2.49-.16.61-.35,1.22-.5,1.83-.15.61-.11,1.23-.13,1.85-.01.31.07.42.4.41,1.14-.02,2.27,0,3.41,0Z"/><path class="cls-20" d="m323.83,527.62c-1,.06-2,.04-3,.01,0-2.7-.02-5.41.02-8.11.02-1.25.19-2.49.55-3.71.44-1.46,1.06-2.83,1.9-4.1,1.05-1.58,2.35-2.94,3.9-4.05,1.02-.73,2.09-1.38,3.27-1.78,1.17-.41,2.35-.81,3.61-.9.71-.05,1.41-.16,2.12-.14,1.77.03,3.47.38,5.13,1,1.65.62,3.14,1.52,4.5,2.65,1.17.97,2.13,2.12,2.94,3.4.58.9,1.03,1.86,1.42,2.87.21.55.36,1.12.55,1.68.17.51.21,1.06.27,1.6.35,3.19.08,6.39.17,9.58-1,.04-2,.05-3,0,0-2.28-.02-4.57.01-6.85.02-1.31-.15-2.6-.47-3.87-.45-1.78-1.28-3.39-2.48-4.76-1.47-1.68-3.26-2.95-5.42-3.64-1.53-.49-3.08-.64-4.69-.54-1.49.09-2.89.44-4.22,1.06-2.21,1.03-3.95,2.61-5.24,4.69-1.11,1.79-1.72,3.76-1.8,5.84-.1,2.69-.02,5.38-.02,8.08Z"/><path class="cls-10" d="m345.11,527.63c0-2.42.02-4.85,0-7.27-.01-1.29-.19-2.56-.71-3.76-.41-.95-.96-1.81-1.64-2.6-1.01-1.18-2.27-1.99-3.7-2.51-1.32-.48-2.7-.64-4.13-.46-.87.11-1.71.31-2.49.65-2.18.95-3.78,2.51-4.77,4.69-.46,1.02-.65,2.09-.7,3.2-.13,2.69-.02,5.38-.06,8.06-1.02.02-2.04.04-3.06-.01,0-2.69-.08-5.39.02-8.08.08-2.08.68-4.05,1.8-5.84,1.29-2.08,3.03-3.66,5.24-4.69,1.33-.62,2.73-.97,4.22-1.06,1.61-.09,3.16.06,4.69.54,2.16.69,3.94,1.95,5.42,3.64,1.2,1.38,2.03,2.98,2.48,4.76.32,1.27.49,2.55.47,3.87-.03,2.28-.01,4.57-.01,6.85-1.02.05-2.04.04-3.07,0Z"/><path class="cls-14" d="m336,548.92c-1.14,0-2.27-.02-3.41,0-.33,0-.41-.1-.4-.41.02-.62-.01-1.25.13-1.85.15-.62.34-1.22.5-1.83.22-.83.44-1.66.64-2.49.07-.31.18-.6.27-.9.14-.49,0-.88-.35-1.14-1.12-.83-1.25-1.97-1.14-3.22.06-.03.06-.08.03-.14.34-1.51,1.28-2.47,2.7-3.02.34-.13.7-.05,1.02-.21.15.02.31.04.46.07.03.08.07.12.14.03.08.02.16.04.24.05.04.11.14.08.22.08,1.58.51,2.98,2.5,2.68,4.16-.14.79-.4,1.48-.99,2.03-.36.33-.78.65-.56,1.25.14.39.25.78.36,1.18.38,1.48.81,2.94,1.17,4.43.13.55.09,1.14.08,1.71,0,.25-.17.21-.32.21-1.16,0-2.32,0-3.48.01Z"/><path class="cls-10" d="m337.07,533.94c-.09,0-.18.03-.22-.08.1-.05.17,0,.22.08Z"/><path class="cls-10" d="m336.6,533.81c-.07.09-.11.05-.14-.03.06-.03.1-.02.14.03Z"/><path class="cls-20" d="m332.28,536.93c.03.06.03.1-.03.14-.08-.07-.03-.1.03-.14Z"/><circle class="cls-3" cx="336.13" cy="531.47" r="39.02"/><path class="cls-27" d="m163.18,406.63c.5,0,.99.02,1.49.02.84,0,1.54.69,1.55,1.54,0,.78,0,1.56,0,2.33,0,6.58,0,13.16,0,19.75,0,.43-.02.86-.15,1.28-.15.49-.75.93-1.27.93-5.57,0-11.15,0-16.72,0-.03,0-.05,0-.08,0,0-1.51,0-3.03,0-4.54,1.16,0,2.32,0,3.48-.01.15,0,.32.04.32-.21,0-.57.05-1.16-.08-1.71-.36-1.48-.79-2.95-1.17-4.43-.1-.4-.22-.79-.36-1.18-.22-.61.19-.92.56-1.25.6-.55.85-1.24.99-2.03.3-1.66-1.1-3.65-2.68-4.16-.05-.09-.12-.13-.22-.08-.08-.02-.16-.04-.24-.05-.04-.05-.08-.07-.14-.03-.15-.02-.31-.04-.46-.07,0-2.01,0-4.03,0-6.04,2.86,0,5.71,0,8.57-.02.18,0,.36-.01.53-.02,1.02.03,2.04.05,3.07,0,1,.06,2,.04,3.01,0Z"/><path class="cls-12" d="m148,427.92c0,1.51,0,3.03,0,4.54-.57,0-1.15.01-1.72.01-4.86,0-9.72-.02-14.58.02-1.28.01-1.94-.69-1.94-1.94.04-7.44.03-14.88,0-22.32,0-.89.72-1.6,1.57-1.59.5,0,.99-.01,1.49-.02,1,.03,2,.05,3-.01,1.02.06,2.04.03,3.06.01.17,0,.33.02.5.02,2.87,0,5.74,0,8.61.01,0,2.01,0,4.03,0,6.04-.32.15-.68.08-1.02.21-1.42.55-2.36,1.51-2.7,3.02-.06.03-.11.07-.03.14-.11,1.25.02,2.39,1.14,3.22.35.26.49.65.35,1.14-.09.3-.2.59-.27.9-.2.84-.42,1.66-.64,2.49-.16.61-.35,1.22-.5,1.83-.15.61-.11,1.23-.13,1.85-.01.31.07.42.4.41,1.14-.02,2.27,0,3.41,0Z"/><path class="cls-20" d="m135.83,406.62c-1,.06-2,.04-3,.01,0-2.7-.02-5.41.02-8.11.02-1.25.19-2.49.55-3.71.44-1.46,1.06-2.83,1.9-4.1,1.05-1.58,2.35-2.94,3.9-4.05,1.02-.73,2.09-1.38,3.27-1.78,1.17-.41,2.35-.81,3.61-.9.71-.05,1.41-.16,2.12-.14,1.77.03,3.47.38,5.13,1,1.65.62,3.14,1.52,4.5,2.65,1.17.97,2.13,2.12,2.94,3.4.58.9,1.03,1.86,1.42,2.87.21.55.36,1.12.55,1.68.17.51.21,1.06.27,1.6.35,3.19.08,6.39.17,9.58-1,.04-2,.05-3,0,0-2.28-.02-4.57.01-6.85.02-1.31-.15-2.6-.47-3.87-.45-1.78-1.28-3.39-2.48-4.76-1.47-1.68-3.26-2.95-5.42-3.64-1.53-.49-3.08-.64-4.69-.54-1.49.09-2.89.44-4.22,1.06-2.21,1.03-3.95,2.61-5.24,4.69-1.11,1.79-1.72,3.76-1.8,5.84-.1,2.69-.02,5.38-.02,8.08Z"/><path class="cls-10" d="m157.11,406.63c0-2.42.02-4.85,0-7.27-.01-1.29-.19-2.56-.71-3.76-.41-.95-.96-1.81-1.64-2.6-1.01-1.18-2.27-1.99-3.7-2.51-1.32-.48-2.7-.64-4.13-.46-.87.11-1.71.31-2.49.65-2.18.95-3.78,2.51-4.77,4.69-.46,1.02-.65,2.09-.7,3.2-.13,2.69-.02,5.38-.06,8.06-1.02.02-2.04.04-3.06-.01,0-2.69-.08-5.39.02-8.08.08-2.08.68-4.05,1.8-5.84,1.29-2.08,3.03-3.66,5.24-4.69,1.33-.62,2.73-.97,4.22-1.06,1.61-.09,3.16.06,4.69.54,2.16.69,3.94,1.95,5.42,3.64,1.2,1.38,2.03,2.98,2.48,4.76.32,1.27.49,2.55.47,3.87-.03,2.28-.01,4.57-.01,6.85-1.02.05-2.04.04-3.07,0Z"/><path class="cls-14" d="m148,427.92c-1.14,0-2.27-.02-3.41,0-.33,0-.41-.1-.4-.41.02-.62-.01-1.25.13-1.85.15-.62.34-1.22.5-1.83.22-.83.44-1.66.64-2.49.07-.31.18-.6.27-.9.14-.49,0-.88-.35-1.14-1.12-.83-1.25-1.97-1.14-3.22.06-.03.06-.08.03-.14.34-1.51,1.28-2.47,2.7-3.02.34-.13.7-.05,1.02-.21.15.02.31.04.46.07.03.08.07.12.14.03.08.02.16.04.24.05.04.11.14.08.22.08,1.58.51,2.98,2.5,2.68,4.16-.14.79-.4,1.48-.99,2.03-.36.33-.78.65-.56,1.25.14.39.25.78.36,1.18.38,1.48.81,2.94,1.17,4.43.13.55.09,1.14.08,1.71,0,.25-.17.21-.32.21-1.16,0-2.32,0-3.48.01Z"/><path class="cls-10" d="m149.07,412.94c-.09,0-.18.03-.22-.08.1-.05.17,0,.22.08Z"/><path class="cls-10" d="m148.6,412.81c-.07.09-.11.05-.14-.03.06-.03.1-.02.14.03Z"/><path class="cls-20" d="m144.28,415.93c.03.06.03.1-.03.14-.08-.07-.03-.1.03-.14Z"/><circle class="cls-3" cx="148.13" cy="410.47" r="39.02"/><path class="cls-27" d="m352.89,289.26c.52,0,1.04.02,1.56.02.88,0,1.61.72,1.62,1.61,0,.81,0,1.63,0,2.44,0,6.89,0,13.78,0,20.67,0,.45-.02.9-.15,1.34-.16.51-.79.97-1.32.97-5.84,0-11.67,0-17.51,0-.03,0-.05,0-.08,0,0-1.59,0-3.17,0-4.76,1.22,0,2.43,0,3.65-.01.16,0,.33.04.34-.22.01-.6.05-1.21-.09-1.79-.38-1.55-.83-3.09-1.22-4.64-.11-.42-.23-.83-.37-1.23-.23-.63.2-.96.58-1.31.63-.58.89-1.3,1.04-2.13.31-1.74-1.15-3.82-2.8-4.35-.06-.09-.13-.13-.23-.08-.08-.02-.17-.04-.25-.06-.04-.05-.09-.07-.15-.04-.16-.02-.32-.05-.48-.07,0-2.11,0-4.22,0-6.32,2.99,0,5.98-.01,8.97-.02.19,0,.37-.01.56-.02,1.07.03,2.14.05,3.21,0,1.05.06,2.1.05,3.15,0Z"/><path class="cls-12" d="m337,311.55c0,1.59,0,3.17,0,4.76-.6,0-1.2.01-1.8.01-5.09,0-10.18-.03-15.27.02-1.34.01-2.03-.72-2.03-2.03.04-7.79.03-15.58,0-23.36,0-.93.75-1.68,1.64-1.66.52,0,1.04-.01,1.56-.02,1.05.03,2.1.05,3.14-.01,1.07.06,2.14.03,3.21.01.17,0,.35.02.52.02,3,0,6.01,0,9.01.01,0,2.11,0,4.22,0,6.32-.34.16-.72.08-1.07.22-1.49.58-2.47,1.58-2.82,3.16-.06.04-.11.08-.03.14-.12,1.31.02,2.51,1.19,3.37.37.27.51.68.36,1.19-.09.31-.21.62-.29.94-.21.87-.44,1.74-.67,2.61-.17.64-.37,1.28-.52,1.92-.15.64-.11,1.29-.14,1.94-.01.33.08.43.42.43,1.19-.02,2.38,0,3.57,0Z"/><path class="cls-20" d="m324.26,289.25c-1.05.07-2.1.04-3.15.01,0-2.83-.02-5.66.02-8.49.02-1.31.2-2.61.58-3.88.46-1.53,1.11-2.97,1.98-4.29,1.1-1.66,2.46-3.08,4.09-4.24,1.07-.76,2.19-1.44,3.42-1.87,1.22-.42,2.46-.85,3.78-.94.74-.05,1.48-.16,2.22-.15,1.85.03,3.64.4,5.37,1.05,1.73.65,3.29,1.59,4.71,2.78,1.22,1.02,2.23,2.22,3.08,3.56.61.95,1.08,1.95,1.49,3,.22.58.38,1.18.58,1.76.18.53.22,1.11.28,1.68.36,3.34.09,6.69.18,10.03-1.05.04-2.1.05-3.15,0,0-2.39-.02-4.78.01-7.17.02-1.38-.16-2.72-.49-4.05-.47-1.87-1.34-3.55-2.6-4.99-1.54-1.76-3.41-3.09-5.67-3.81-1.6-.51-3.23-.67-4.91-.57-1.56.09-3.03.46-4.42,1.11-2.32,1.08-4.14,2.73-5.49,4.91-1.16,1.87-1.8,3.94-1.88,6.11-.1,2.82-.02,5.64-.02,8.46Z"/><path class="cls-10" d="m346.53,289.26c0-2.54.02-5.07,0-7.61-.01-1.35-.2-2.68-.74-3.94-.43-.99-1-1.9-1.71-2.73-1.06-1.23-2.38-2.09-3.88-2.63-1.38-.5-2.83-.67-4.32-.48-.91.11-1.79.32-2.61.68-2.28.99-3.96,2.63-5,4.91-.49,1.07-.68,2.19-.74,3.35-.14,2.81-.02,5.63-.07,8.44-1.07.02-2.14.05-3.21-.01,0-2.82-.08-5.64.02-8.46.08-2.18.72-4.24,1.88-6.11,1.35-2.17,3.17-3.83,5.49-4.91,1.39-.65,2.86-1.02,4.42-1.11,1.68-.1,3.31.06,4.91.57,2.26.72,4.13,2.04,5.67,3.81,1.26,1.44,2.13,3.12,2.6,4.99.34,1.33.51,2.67.49,4.05-.03,2.39-.01,4.78-.01,7.17-1.07.06-2.14.04-3.21,0Z"/><path class="cls-14" d="m337,311.55c-1.19,0-2.38-.02-3.57,0-.34,0-.43-.1-.42-.43.02-.65-.01-1.3.14-1.94.15-.64.35-1.28.52-1.92.23-.87.46-1.74.67-2.61.08-.32.19-.63.29-.94.15-.51,0-.92-.36-1.19-1.17-.87-1.31-2.07-1.19-3.37.07-.04.06-.09.03-.14.35-1.58,1.34-2.58,2.82-3.16.35-.14.73-.06,1.07-.22.16.02.32.05.48.07.03.08.07.13.15.04.08.02.17.04.25.06.05.11.14.09.23.08,1.66.53,3.11,2.62,2.8,4.35-.15.83-.41,1.55-1.04,2.13-.38.35-.82.68-.58,1.31.15.4.27.82.37,1.23.4,1.55.85,3.08,1.22,4.64.14.58.1,1.19.09,1.79,0,.26-.18.22-.34.22-1.22,0-2.43,0-3.65.01Z"/><path class="cls-10" d="m338.12,295.87c-.09,0-.19.03-.23-.08.11-.05.18,0,.23.08Z"/><path class="cls-10" d="m337.63,295.73c-.08.09-.12.05-.15-.04.06-.03.11-.02.15.04Z"/><path class="cls-20" d="m333.11,299c.03.06.03.11-.03.14-.08-.07-.03-.11.03-.14Z"/><circle class="cls-3" cx="337.14" cy="293.28" r="40.85"/><path class="cls-27" d="m352.89,173.26c.52,0,1.04.02,1.56.02.88,0,1.61.72,1.62,1.61,0,.81,0,1.63,0,2.44,0,6.89,0,13.78,0,20.67,0,.45-.02.9-.15,1.34-.16.51-.79.97-1.32.97-5.84,0-11.67,0-17.51,0-.03,0-.05,0-.08,0,0-1.59,0-3.17,0-4.76,1.22,0,2.43,0,3.65-.01.16,0,.33.04.34-.22.01-.6.05-1.21-.09-1.79-.38-1.55-.83-3.09-1.22-4.64-.11-.42-.23-.83-.37-1.23-.23-.63.2-.96.58-1.31.63-.58.89-1.3,1.04-2.13.31-1.74-1.15-3.82-2.8-4.35-.06-.09-.13-.13-.23-.08-.08-.02-.17-.04-.25-.06-.04-.05-.09-.07-.15-.04-.16-.02-.32-.05-.48-.07,0-2.11,0-4.22,0-6.32,2.99,0,5.98-.01,8.97-.02.19,0,.37-.01.56-.02,1.07.03,2.14.05,3.21,0,1.05.06,2.1.05,3.15,0Z"/><path class="cls-12" d="m337,195.55c0,1.59,0,3.17,0,4.76-.6,0-1.2.01-1.8.01-5.09,0-10.18-.03-15.27.02-1.34.01-2.03-.72-2.03-2.03.04-7.79.03-15.58,0-23.36,0-.93.75-1.68,1.64-1.66.52,0,1.04-.01,1.56-.02,1.05.03,2.1.05,3.14-.01,1.07.06,2.14.03,3.21.01.17,0,.35.02.52.02,3,0,6.01,0,9.01.01,0,2.11,0,4.22,0,6.32-.34.16-.72.08-1.07.22-1.49.58-2.47,1.58-2.82,3.16-.06.04-.11.08-.03.14-.12,1.31.02,2.51,1.19,3.37.37.27.51.68.36,1.19-.09.31-.21.62-.29.94-.21.87-.44,1.74-.67,2.61-.17.64-.37,1.28-.52,1.92-.15.64-.11,1.29-.14,1.94-.01.33.08.43.42.43,1.19-.02,2.38,0,3.57,0Z"/><path class="cls-20" d="m324.26,173.25c-1.05.07-2.1.04-3.15.01,0-2.83-.02-5.66.02-8.49.02-1.31.2-2.61.58-3.88.46-1.53,1.11-2.97,1.98-4.29,1.1-1.66,2.46-3.08,4.09-4.24,1.07-.76,2.19-1.44,3.42-1.87,1.22-.42,2.46-.85,3.78-.94.74-.05,1.48-.16,2.22-.15,1.85.03,3.64.4,5.37,1.05,1.73.65,3.29,1.59,4.71,2.78,1.22,1.02,2.23,2.22,3.08,3.56.61.95,1.08,1.95,1.49,3,.22.58.38,1.18.58,1.76.18.53.22,1.11.28,1.68.36,3.34.09,6.69.18,10.03-1.05.04-2.1.05-3.15,0,0-2.39-.02-4.78.01-7.17.02-1.38-.16-2.72-.49-4.05-.47-1.87-1.34-3.55-2.6-4.99-1.54-1.76-3.41-3.09-5.67-3.81-1.6-.51-3.23-.67-4.91-.57-1.56.09-3.03.46-4.42,1.11-2.32,1.08-4.14,2.73-5.49,4.91-1.16,1.87-1.8,3.94-1.88,6.11-.1,2.82-.02,5.64-.02,8.46Z"/><path class="cls-10" d="m346.53,173.26c0-2.54.02-5.07,0-7.61-.01-1.35-.2-2.68-.74-3.94-.43-.99-1-1.9-1.71-2.73-1.06-1.23-2.38-2.09-3.88-2.63-1.38-.5-2.83-.67-4.32-.48-.91.11-1.79.32-2.61.68-2.28.99-3.96,2.63-5,4.91-.49,1.07-.68,2.19-.74,3.35-.14,2.81-.02,5.63-.07,8.44-1.07.02-2.14.05-3.21-.01,0-2.82-.08-5.64.02-8.46.08-2.18.72-4.24,1.88-6.11,1.35-2.17,3.17-3.83,5.49-4.91,1.39-.65,2.86-1.02,4.42-1.11,1.68-.1,3.31.06,4.91.57,2.26.72,4.13,2.04,5.67,3.81,1.26,1.44,2.13,3.12,2.6,4.99.34,1.33.51,2.67.49,4.05-.03,2.39-.01,4.78-.01,7.17-1.07.06-2.14.04-3.21,0Z"/><path class="cls-14" d="m337,195.55c-1.19,0-2.38-.02-3.57,0-.34,0-.43-.1-.42-.43.02-.65-.01-1.3.14-1.94.15-.64.35-1.28.52-1.92.23-.87.46-1.74.67-2.61.08-.32.19-.63.29-.94.15-.51,0-.92-.36-1.19-1.17-.87-1.31-2.07-1.19-3.37.07-.04.06-.09.03-.14.35-1.58,1.34-2.58,2.82-3.16.35-.14.73-.06,1.07-.22.16.02.32.05.48.07.03.08.07.13.15.04.08.02.17.04.25.06.05.11.14.09.23.08,1.66.53,3.11,2.62,2.8,4.35-.15.83-.41,1.55-1.04,2.13-.38.35-.82.68-.58,1.31.15.4.27.82.37,1.23.4,1.55.85,3.08,1.22,4.64.14.58.1,1.19.09,1.79,0,.26-.18.22-.34.22-1.22,0-2.43,0-3.65.01Z"/><path class="cls-10" d="m338.12,179.87c-.09,0-.19.03-.23-.08.11-.05.18,0,.23.08Z"/><path class="cls-10" d="m337.63,179.73c-.08.09-.12.05-.15-.04.06-.03.11-.02.15.04Z"/><path class="cls-20" d="m333.11,183c.03.06.03.11-.03.14-.08-.07-.03-.11.03-.14Z"/><circle class="cls-3" cx="337.14" cy="177.28" r="40.85"/></svg>