<?xml version="1.0" encoding="UTF-8"?><svg id="Layer_1" xmlns="http://www.w3.org/2000/svg" viewBox="0 0 400 400"><defs><style>.cls-1{stroke:#a5262d;}.cls-1,.cls-2,.cls-3{stroke-width:4px;}.cls-1,.cls-2,.cls-3,.cls-4{stroke-miterlimit:10;}.cls-1,.cls-2,.cls-3,.cls-4,.cls-5{fill:none;}.cls-6{fill:#435256;}.cls-7{fill:#fafdfc;}.cls-8{fill:#fff;}.cls-9{fill:#fcfdfd;}.cls-2{stroke:#0018c6;}.cls-10{fill:#a5c2db;}.cls-11{fill:#fcc472;}.cls-12{fill:#2d3b3d;}.cls-13{fill:#f9fdfc;}.cls-3{stroke:#c000e2;}.cls-14{fill:#bbc3c6;}.cls-15{fill:#f15a24;}.cls-16{fill:#fbc372;}.cls-17{fill:#efc319;}.cls-18{fill:#555a6e;}.cls-19{fill:#463c4b;}.cls-20{fill:#a5c3db;}.cls-21{fill:#d3e4ee;}.cls-22{fill:#c69c6d;}.cls-23{fill:#2489c4;}.cls-4{stroke:#231f20;stroke-width:2px;}.cls-24{fill:#26b899;}.cls-25{fill:#58d4fc;}.cls-26{fill:#d6e5ef;}.cls-27{fill:#2487c3;}.cls-28{fill:#efc31a;}.cls-29{fill:#b09146;}.cls-30{fill:#484645;}.cls-31{fill:#2387c3;}.cls-32{fill:#94a4a4;}.cls-33{fill:#fdc472;}.cls-34{fill:#2487c2;}.cls-35{fill:#2387c2;}.cls-36{fill:#a4c2db;}.cls-37{fill:#231f20;}.cls-38{fill:#64c7ef;}.cls-39{fill:#28b99a;}.cls-40{fill:#fccc07;}.cls-41{fill:#f99e3d;}</style></defs><line class="cls-8" x1="164.32" y1="243.62" x2="115.68" y2="282.93"/><line class="cls-4" x1="164.32" y1="243.62" x2="124.05" y2="276.16"/><polygon class="cls-37" points="121.05 268.97 115.68 282.93 130.45 280.61 121.05 268.97"/><line class="cls-8" x1="235.68" y1="246.62" x2="284.32" y2="285.93"/><line class="cls-4" x1="235.68" y1="246.62" x2="275.95" y2="279.16"/><polygon class="cls-37" points="269.55 283.61 284.32 285.93 278.95 271.97 269.55 283.61"/><circle class="cls-1" cx="310.08" cy="61.36" r="45"/><path d="m280.78,46.16c-2.78-2.42-3.08-6.64-.65-9.42.11-.13.23-.26.35-.38,1.53-1.71,3.84-2.51,6.1-2.1l-.7,3c-1.22-.24-2.47.17-3.3,1.1-1.42,1.64-1.24,4.12.4,5.54,1.54,1.33,3.83,1.27,5.3-.14.91-.88,1.26-2.19.9-3.4l2.9-.9c.92,3.67-1.3,7.39-4.97,8.31-2.29.58-4.73-.07-6.43-1.71l.1.1Z"/><path d="m292.28,37.46c-1.21-2.48-.18-5.48,2.31-6.68,2.48-1.21,5.48-.18,6.68,2.31,1.21,2.48.18,5.46-2.29,6.68-2.48,1.22-5.47.19-6.69-2.28,0,0,0-.01,0-.02Zm6.5-3.1c-.57-1.05-1.89-1.45-2.94-.88s-1.45,1.89-.88,2.94c.54,1.01,1.78,1.42,2.82.94,1.08-.48,1.57-1.74,1.09-2.82-.03-.06-.06-.12-.09-.18Z"/><path d="m313.58,31.36c.41,2.62-1.38,5.08-4,5.5-1.04.15-2.09-.14-2.9-.8l.5,4.7-2.8.3-1.5-13.2,2.8-.3v.9c.69-.86,1.7-1.4,2.8-1.5,2.63-.18,4.92,1.81,5.1,4.44,0,.02,0,.04,0,.06v-.1Zm-2.8.3c-.08-1.25-1.16-2.19-2.4-2.11-.03,0-.07,0-.1,0-1.21.08-2.12,1.13-2.03,2.34,0,.09.02.18.03.26.08,1.25,1.16,2.19,2.4,2.11.03,0,.07,0,.1,0,1.21-.08,2.12-1.13,2.03-2.34,0-.09-.02-.18-.03-.26h0Z"/><path d="m325.78,34.06c-.52,2.58-3.01,4.27-5.6,3.8-1.04-.24-1.94-.89-2.5-1.8l-1.1,4.6-2.8-.7,3.2-12.9,2.8.7-.2.9c.9-.55,1.99-.69,3-.4,2.53.76,3.97,3.43,3.21,5.96,0,.01,0,.02-.01.04v-.2Zm-2.8-.7c.27-1.22-.5-2.44-1.72-2.71-1.22-.27-2.44.5-2.71,1.72-.26,1.19.46,2.37,1.63,2.69,1.17.36,2.41-.3,2.77-1.47.02-.07.04-.15.06-.23h-.03Z"/><path d="m330.38,39.76c.57.35,1.24.49,1.9.4l1.2,2.4c-1.52.57-3.22.3-4.5-.7-2.7-1.8-3.2-4.7-1.6-7.1,1.17-2.5,4.14-3.58,6.65-2.42,2.5,1.17,3.58,4.14,2.42,6.65-.2.42-.45.82-.76,1.17-.2.3-.5.6-.7.9l-5.6-3.7c-.16.98.32,1.94,1.2,2.4h-.2Zm3.4-1.9c.37-.91-.02-1.96-.9-2.4-.77-.61-1.88-.57-2.6.1l3.4,2.3h.1Z"/><path d="m344.38,42.98l-2.4,2.1c-.6-1-2.1-2-3.5-.7l-3.2,2.8-1.9-2.1,7.2-6.2,1.9,2.1-1.3,1.1c1.18-.42,2.5-.06,3.3.9h-.1Z"/><rect class="cls-15" x="284.08" y="53.36" width="52" height="37" rx="2.9" ry="2.9"/><path class="cls-30" d="m301.38,84.16c-3.29.1-6.48-1.17-8.8-3.5-4.67-4.94-4.67-12.66,0-17.6,2.31-2.36,5.5-3.63,8.8-3.5,3.5,0,4.1.5,5.9,1.5,1.77.96,3.26,2.37,4.3,4.1l-5.2,3c-.48-.83-1.17-1.52-2-2-.92-.49-1.96-.73-3-.7-1.72-.07-3.38.59-4.6,1.8-1.18,1.23-1.8,2.9-1.7,4.6-.23,3.31,2.27,6.17,5.58,6.39.24.02.48.02.72,0,1.05.14,2.12-.11,3-.7.85-.45,1.55-1.15,2-2l5.2,3c-1.04,1.73-2.53,3.14-4.3,4.1-1.84,1.01-3.9,1.53-6,1.5h.1Z"/><path class="cls-30" d="m324.68,66.76h5.6v16.9h-5.6v-1.68c-1.1,1.47-2.86,2.3-4.7,2.2-1.72.12-3.39-.59-4.5-1.9-1.2-1.2-1.7-3-1.7-5.4v-10.12h5.6v9.4c-.06.74.19,1.46.7,2,.48.47,1.13.73,1.8.7.75.01,1.47-.28,2-.8.53-.65.78-1.47.7-2.3v-9h.1Z"/><line class="cls-5" x1="199.44" y1="112.67" x2="199.94" y2="145.45"/><line class="cls-4" x1="199.44" y1="112.67" x2="199.77" y2="134.69"/><polygon class="cls-37" points="192.26 132.61 199.94 145.45 207.22 132.39 192.26 132.61"/><line class="cls-5" x1="118.36" y1="108.41" x2="167.01" y2="147.71"/><line class="cls-4" x1="118.36" y1="108.41" x2="158.64" y2="140.95"/><polygon class="cls-37" points="152.23 145.39 167.01 147.72 161.64 133.76 152.23 145.39"/><line class="cls-5" x1="281.01" y1="108.41" x2="232.36" y2="147.71"/><line class="cls-4" x1="281.01" y1="108.41" x2="240.74" y2="140.95"/><polygon class="cls-37" points="237.74 133.76 232.36 147.71 247.14 145.39 237.74 133.76"/><circle class="cls-1" cx="200" cy="61.36" r="45"/><path d="m173.9,45.76l1-3c1.15.63,2.58.43,3.5-.5,1.1-1,1-1.7.7-2.1-.6-.6-1.4-.4-3.4.6s-4.1,1.5-5.9-.5c-1.8-2-1.1-4.7.7-6.3,1.58-1.5,3.91-1.9,5.9-1l-1,3c-.95-.52-2.13-.36-2.9.4-.8.7-.8,1.4-.4,1.8s1,.6,3-.4,4.3-1.9,6.2.3c1.8,2,1.2,4.7-1.1,6.7s-4.5,2.1-6.5,1.1l.2-.1Z"/><path d="m178.9,29.86c-.44-.88-.08-1.96.8-2.4.88-.44,1.96-.08,2.4.8.44.88.08,1.96-.8,2.4h0c-.89.39-1.92.04-2.4-.8Zm1.5,2.3l2.7-1.4,4.5,8.9-2.7,1.4-4.5-8.9Z"/><path d="m184.7,25.16l2.9-.9,4.5,13.9-2.9.9-4.5-13.9Z"/><path d="m191.3,25.26c-.16-.99.51-1.93,1.5-2.09.99-.16,1.93.51,2.09,1.5.16.99-.5,1.92-1.49,2.09-.98.17-1.92-.49-2.1-1.47,0,0,0-.02,0-.03Zm.7,2.6l3-.5,1.6,9.9-3,.5-1.6-9.9Z"/><path d="m198.01,31.86c.13-2.85,2.55-5.06,5.41-4.92.1,0,.2.01.29.02,1.86.09,3.52,1.21,4.3,2.9l-2.7,1.3c-.53-1.13-1.88-1.62-3.01-1.09-.74.35-1.24,1.07-1.29,1.89-.16,1.22.7,2.33,1.92,2.48.06,0,.12.01.18.02.8.07,1.58-.31,2-1l2.5,1.7c-1.02,1.56-2.84,2.41-4.7,2.2-2.88-.17-5.08-2.65-4.91-5.53,0-.06,0-.11.01-.17v.2Z"/><path d="m208.8,32.86c1.13-2.68,4.22-3.94,6.9-2.81,2.68,1.13,3.94,4.22,2.81,6.9-1.13,2.68-4.22,3.94-6.9,2.81,0,0,0,0,0,0-2.66-1.09-3.94-4.14-2.84-6.8.01-.03.03-.07.04-.1Zm7,2.9c.53-1.17.02-2.54-1.14-3.08-.02,0-.04-.02-.06-.02-1.11-.5-2.42,0-2.92,1.11-.03.06-.05.13-.08.19-.56,1.1-.11,2.45.99,3.01.07.03.14.06.21.09,1.11.5,2.42,0,2.92-1.11.03-.06.05-.13.08-.19Z"/><path d="m228.3,44.18l-4.2,4.5-2.2-2,3.9-4.2c.69-.6.76-1.65.16-2.34-.05-.06-.1-.11-.16-.16-.72-.71-1.87-.7-2.57.02-.08.09-.16.18-.23.28l-3.7,4-2.2-2,6.8-7.4,2.2,2-.6.7c1.07-.18,2.17.19,2.9,1,1.5,1.4,1.8,3.6,0,5.6h-.1Z"/><rect class="cls-22" x="173" y="52.18" width="52" height="37" rx="2.9" ry="2.9"/><path class="cls-30" d="m195.3,82.98c-2.18.11-4.34-.45-6.2-1.6-1.58-1.02-2.78-2.53-3.4-4.3l5.2-3c.69,1.97,2.62,3.24,4.7,3.1,2.3,0,2.8-.5,2.8-1.6s-.5-1.2-1.6-1.7c-.97-.38-1.98-.68-3-.9-1.91-.44-3.66-1.37-5.1-2.7-1.32-1.19-2.02-2.93-1.9-4.7-.03-2.02.81-3.95,2.3-5.3,1.64-1.39,3.75-2.11,5.9-2,1.87-.07,3.71.42,5.3,1.4,1.54.96,2.76,2.35,3.5,4l-5.1,3c-.5-1.61-2.02-2.67-3.7-2.6-1.7,0-1.3.1-1.6.4-.36.25-.59.66-.6,1.1.05.54.34,1.02.8,1.3,1,.59,2.08,1.03,3.2,1.3,1.1.4,2,.7,2.8,1,.8.34,1.56.74,2.3,1.2.78.55,1.43,1.26,1.9,2.1.41.95.61,1.97.6,3,.11,2.1-.83,4.12-2.5,5.4-1.87,1.4-4.17,2.11-6.5,2l-.1.1Z"/><path class="cls-30" d="m211.5,63.26c-.6.63-1.43.99-2.3,1-1.79.03-3.27-1.4-3.31-3.19-.02-.91.35-1.78,1.01-2.41.61-.6,1.44-.92,2.3-.9.85,0,1.68.32,2.3.9.63.6.99,1.43,1,2.3.02.88-.35,1.72-1,2.3Zm-5.49,18.92v-17h6v17h-6Z"/><circle class="cls-2" cx="200.29" cy="196.77" r="45"/><path class="cls-24" d="m233.79,187.07v31.2c-.42.93-1.29,1.58-2.3,1.7h-4.6c-.76-.1-1.54-.1-2.3,0h-3.5c-.63-.1-1.27-.1-1.9,0h-9.4c-.76-.1-1.54-.1-2.3,0h-13.8c-.76-.1-1.54-.1-2.3,0h-3.5c-.63-.1-1.27-.1-1.9,0h-9.5v-34.7h54.6c1.3-.16,2.54.58,3,1.8h-.3Zm-45,15.6h0v3.5c0,2.54,2.06,4.6,4.6,4.6,2.54,0,4.59-2.06,4.6-4.6v-2.3c0-.9-.4-1.3-1.3-1.3h-1.9c-.7-.07-1.32.43-1.39,1.13,0,.02,0,.05,0,.07,0,.7.5,1.1,1.4,1.1s.9,0,.9.9c.07,1.27-.91,2.36-2.18,2.43-1.21.06-2.27-.82-2.42-2.03v-6.9c-.06-.46.05-.92.3-1.3.61-1.1,1.99-1.5,3.1-.9.72.41,1.17,1.17,1.2,2,.1.8.6,1.3,1.2,1.2.65-.09,1.1-.7,1.01-1.35,0-.02,0-.04,0-.05-.14-2.53-2.27-4.48-4.8-4.4-2.33.15-4.2,1.98-4.4,4.3v3.8l.1.1Zm23.1-1.6v5c-.06,1.59.75,3.09,2.12,3.91,2.1,1.44,4.96.9,6.4-1.19.51-.74.79-1.61.8-2.51v-10.8c-.1-.51-.58-.86-1.1-.8-.51-.03-.97.31-1.1.8v10.5c.06,1.27-.93,2.34-2.2,2.4-1.27.06-2.34-.93-2.4-2.2v-10.5c0-.52-.32-1-.8-1.2-.47-.19-1.01-.02-1.3.4-.2.29-.31.64-.3,1v5l-.12.19Zm-11.5,1.6v6.9c-.02.56.36,1.06.9,1.2.49.08.97-.16,1.2-.6.13-.25.17-.53.1-.8v-4.8c0-.5.1-.6.6-.6h1.82c2.46-.06,4.44-2.04,4.5-4.5.04-2.39-1.73-4.41-4.1-4.7-1.2-.1-2.4,0-3.6,0s-1.5.4-1.5,1.5v6.5l.08-.1Zm-20.8-11v1.6c-.01.65.46,1.2,1.1,1.3.64.08,1.21-.37,1.29-1.01,0-.03,0-.06,0-.09v-1.9c0-.4.1-.5.5-.5h1.7c.62.02,1.16-.4,1.3-1,.06-.63-.38-1.2-1-1.3h-3.48c-.66-.05-1.24.44-1.3,1.1v1.8h-.12Z"/><path class="cls-14" d="m176.09,219.98v3.4c0,.95-.54,1.81-1.4,2.2-.78.41-1.74.29-2.4-.3-.63-.51-.97-1.29-.9-2.1v-41c0-1.6.2-1.5-1.5-1.5-1.5,0-2.6-.4-3.1-1.8v-1c.41-1.27,1.69-2.03,3-1.8h3.5c1.31-.18,2.52.73,2.7,2.03.03.22.03.45,0,.67v41.2h.1Z"/><path class="cls-32" d="m171.39,201.47v15h-3c-.64.05-1.26-.26-1.6-.8v-13.5c.4-.53,1.05-.79,1.7-.7h2.9Z"/><path class="cls-32" d="m171.39,187.67v9.2h-3c-.64.05-1.26-.26-1.6-.8v-7.7c.4-.53,1.05-.79,1.7-.7h2.9Z"/><path class="cls-9" d="m188.79,202.67v-3.8c.19-2.54,2.41-4.44,4.95-4.25,2.31.18,4.13,2.04,4.25,4.35,0,.8-.3,1.3-1,1.4s-1.1-.4-1.2-1.2c0-1.22-.99-2.21-2.21-2.21-.06,0-.13,0-.19,0-.8.03-1.53.49-1.9,1.2-.19.41-.3.85-.3,1.3v6.51c-.15,1.27.75,2.42,2.02,2.57s2.42-.75,2.57-2.02c0-.05.01-.1.01-.16v-.4c.06-.44-.25-.84-.69-.9-.07,0-.14,0-.21,0-.9,0-1.4-.5-1.4-1.1s.5-1.2,1.4-1.2h1.9c.9,0,1.3.4,1.3,1.3v2.3c0,2.54-2.06,4.6-4.6,4.6-2.54,0-4.59-2.06-4.6-4.6v-3.5h0l-.1-.21Z"/><path class="cls-7" d="m211.79,201.07v-5c-.03-.35.04-.69.2-1,.29-.42.83-.59,1.3-.4.5.18.83.67.8,1.2v10.11c-.06,1.27.93,2.34,2.2,2.4,1.27.06,2.34-.93,2.4-2.2v-10.8c.1-.51.58-.86,1.1-.8.51-.03.97.31,1.1.8v10.8c-.05,2.54-2.15,4.56-4.69,4.5-.9-.02-1.77-.3-2.51-.8-1.31-.87-2.09-2.33-2.1-3.9v-5l.2.09Z"/><path class="cls-7" d="m200.29,202.57v-6.5c0-1.1.4-1.5,1.5-1.5h3.6c2.4.22,4.21,2.29,4.1,4.7-.06,2.46-2.04,4.44-4.5,4.5h-1.8c-.5,0-.6.1-.6.6v4.8c.02.27-.01.54-.1.8-.19.48-.71.74-1.2.6-.55-.04-.96-.53-.92-1.08,0-.04,0-.08.02-.12v-6.8h-.1Zm2.4-3.5v1.8c0,.4,0,.6.5.6h1.82c1.25.02,2.28-.97,2.3-2.22,0-.03,0-.05,0-.08h0c.02-1.25-.97-2.28-2.22-2.3-.03,0-.05,0-.08,0h-1.8c-.4,0-.5.2-.5.5l-.02,1.7Z"/><path class="cls-28" d="m198.01,219.98v3.1c.05.7-.41,1.34-1.1,1.5h-3.4v-4.6h4.5Z"/><path class="cls-28" d="m207.19,224.57h-3.3c-.68.03-1.27-.49-1.3-1.18,0,0,0-.01,0-.02v-3.3h4.6v4.5Z"/><path class="cls-28" d="m231.49,219.98v3.1c.05.7-.41,1.34-1.1,1.5h-3.38v-4.6h4.5-.02Z"/><path class="cls-28" d="m185.29,224.57h-3.28c-.68.03-1.27-.49-1.3-1.18,0,0,0-.01,0-.02v-3.39h4.6l-.02,4.59Z"/><path class="cls-13" d="m179.49,191.67v-1.6c-.05-.66.44-1.24,1.1-1.3h3.5c.62-.02,1.16.4,1.3,1,.06.63-.38,1.2-1,1.3h-2c-.4,0-.5.1-.5.5v1.7c.01.65-.46,1.2-1.1,1.3-.64.08-1.21-.37-1.29-1.01,0-.03,0-.06,0-.09v-1.8h0Z"/><path class="cls-17" d="m191.09,224.57h-3.4v-4.5h0c0-.1,3.4-.1,3.4-.1v4.6Z"/><path class="cls-17" d="m213.01,224.57h-3.4v-4.59h3.4v4.5h0v.09Z"/><path class="cls-17" d="m218.79,224.57h-3.4v-4.59h3.4v4.59Z"/><path class="cls-17" d="m224.49,224.57h-3.4v-4.5h0c0-.1,3.4-.1,3.4-.1v4.6Z"/><path class="cls-29" d="m209.59,219.98v4.6h-2.3v-4.6c.76-.1,1.54-.1,2.3,0Z"/><path class="cls-29" d="m191.09,224.57v-4.59c.76-.1,1.54-.1,2.3,0v4.6h-2.3Z"/><path class="cls-29" d="m224.49,224.57v-4.59c.76-.1,1.54-.1,2.3,0v4.6h-2.3Z"/><path class="cls-29" d="m187.59,220.07v4.4h-.1c-.73.08-1.47.12-2.2.1v-4.59h2.2l.1.09Z"/><path class="cls-29" d="m215.29,219.98v4.6h-2.28v-4.6h2.3-.02Z"/><path class="cls-29" d="m221.09,220.07v4.4h-.08c-.73.08-1.47.12-2.2.1v-4.59h2.2l.08.09Z"/><path class="cls-29" d="m215.01,219.98h-1.9c.63-.1,1.27-.1,1.9,0Z"/><path class="cls-29" d="m213.01,224.47h.1v.1h0l-.1-.1Z"/><path class="cls-39" d="m202.59,199.17v-1.8c0-.4,0-.6.5-.5h1.8c1.27,0,2.3,1.03,2.3,2.3s-1.03,2.3-2.3,2.3h-1.8c-.5,0-.5-.2-.5-.6v-1.7Z"/><path d="m193.69,167.07c1.56,3.5,0,7.6-3.51,9.17-.19.09-.39.16-.59.23-3.9,1.69-8.44-.11-10.12-4.01-.03-.06-.05-.12-.08-.19-1.53-4,.47-8.49,4.47-10.02,2.37-.91,5.03-.6,7.13.82l-2.1,2.6c-2.09-1.26-4.81-.59-6.07,1.5-.71,1.18-.83,2.62-.33,3.9.9,2.3,3.2,3.4,5.9,2.3,1.57-.45,2.66-1.87,2.7-3.5l-3.7,1.4-1.1-2.7,6.9-2.7.5,1.2Z"/><path d="m208.09,164.87c-.14,2.8-2.53,4.95-5.32,4.8-.03,0-.05,0-.08,0h-2.2c0-.1-.2,4.5-.2,4.5l-3.4-.2.7-14.7,5.6.3c2.79.09,4.99,2.42,4.9,5.21,0,.03,0,.06,0,.09Zm-3.4-.2c.06-1.02-.69-1.9-1.7-2h-2.2c0-.1-.2,3.7-.2,3.7h2.2c.91.13,1.76-.51,1.88-1.42.01-.09.02-.18.02-.28h0Z"/><path d="m209.89,170.27l4.2-9,3,1.4-4.1,8.8c-.5,1-.4,2.1,1.2,2.8s2.5.1,3-.9l4.1-8.8,3,1.4-4.2,9c-1.3,2.9-4.3,3.6-7.3,2.2s-4.4-4.1-3-7l.1.1Z"/><circle class="cls-1" cx="89.92" cy="60.6" r="45"/><path d="m61.22,41.5c-2.47-2.73-2.26-6.95.47-9.42.11-.1.22-.19.33-.28,1.71-1.54,4.12-2.03,6.3-1.3l-1,2.9c-1.18-.37-2.46-.1-3.4.7-1.6,1.47-1.71,3.96-.25,5.57,1.39,1.52,3.72,1.71,5.35.43.96-.77,1.45-1.98,1.3-3.2l3-.5c.33,2.28-.59,4.57-2.4,6-2.8,2.5-7.09,2.25-9.59-.55-.07-.08-.14-.17-.21-.25l.1-.1Z"/><path d="m73.62,34.2c-.89-2.61.51-5.45,3.12-6.35,2.61-.89,5.45.51,6.35,3.12.88,2.59-.48,5.41-3.06,6.33-2.6.92-5.46-.44-6.38-3.05,0-.02-.01-.04-.02-.05Zm6.8-2.4c-.3-1.12-1.44-1.78-2.56-1.48-.08.02-.16.05-.24.08-1.07.28-1.71,1.37-1.43,2.44.03.12.08.25.13.36.3,1.12,1.44,1.78,2.56,1.48.08-.02.16-.05.24-.08,1.07-.28,1.71-1.37,1.43-2.44-.03-.12-.08-.25-.13-.36Z"/><path d="m95.52,30.7c.11,2.65-1.95,4.89-4.6,5-1.07.05-2.1-.39-2.8-1.2v.9h-2.9v-13.42h3v4.7c.72-.77,1.75-1.18,2.8-1.1,2.5.02,4.5,2.22,4.5,5.12Zm-2.8,0c.09-1.17-.78-2.2-1.95-2.29-.08,0-.17,0-.25,0-1.21-.06-2.24.88-2.3,2.1,0,.07,0,.14,0,.2-.09,1.17.78,2.2,1.95,2.29.08,0,.17,0,.25,0,1.21.06,2.24-.88,2.3-2.1,0-.07,0-.14,0-.2Z"/><path d="m108.52,30.2l-3.4,8.9-2.7-1,.3-.8c-.97.51-2.13.51-3.1,0-2.41-1.06-3.53-3.87-2.5-6.3,1-2.6,3.7-4,6-3.1,1.01.33,1.82,1.1,2.2,2.1l.3-.8,2.7,1h.2Zm-4.3,3.4c.51-1.09.04-2.39-1.05-2.9-.08-.04-.17-.07-.25-.1-1.05-.49-2.29-.04-2.78,1.01-.06.12-.1.24-.13.37-.51,1.09-.04,2.39,1.05,2.9.08.04.17.07.25.1,1.05.49,2.29.04,2.78-1.01.06-.12.1-.24.13-.37Z"/><path d="m114.12,28.7l2.3,1.6-8,11.3-2.3-1.62,8-11.28Z"/><path d="m117.12,40.4l-2.4,2.4c-.6.6-.1,1.1.8,2l-1.8,1.8c-2.9-2.4-2.8-4-.9-5.8l2.4-2.4-1.1-1.1,2-1.9,1.1,1.1,1.3-1.3,2.6,1.4-1.9,1.9,1.4,1.4-2,1.9-1.4-1.4h-.1Z"/><rect class="cls-38" x="62.92" y="50.6" width="52" height="37" rx="2.9" ry="2.9"/><path class="cls-30" d="m80.22,81.4c-3.29.1-6.48-1.17-8.8-3.5-4.67-4.94-4.67-12.66,0-17.6,2.31-2.36,5.5-3.63,8.8-3.5,3.5,0,4.1.5,5.9,1.5,1.77.96,3.26,2.37,4.3,4.1l-5.2,3c-.48-.83-1.17-1.52-2-2-.92-.49-1.96-.73-3-.7-1.72-.07-3.38.59-4.6,1.8-1.18,1.23-1.8,2.9-1.7,4.6-.23,3.31,2.27,6.17,5.58,6.39.24.02.48.02.72,0,1.05.14,2.12-.11,3-.7.85-.45,1.55-1.15,2-2l5.2,3c-1.04,1.73-2.53,3.14-4.3,4.1-1.84,1.01-3.9,1.53-6,1.5h.1Z"/><path class="cls-30" d="m100.92,81.4c-2.39.02-4.7-.92-6.4-2.6-1.74-1.63-2.68-3.92-2.6-6.3-.04-2.37.9-4.65,2.6-6.3,1.7-1.68,4.01-2.62,6.4-2.6,2.4-.04,4.71.9,6.4,2.6,3.47,3.48,3.47,9.12,0,12.6-1.69,1.7-4,2.64-6.4,2.6Zm0-5.4c.91.05,1.79-.32,2.4-1,.63-.68.99-1.57,1-2.5.05-.94-.31-1.86-1-2.5-1.31-1.33-3.45-1.33-4.78-.02,0,0-.01.01-.02.02-.63.68-.99,1.57-1,2.5-.05.94.31,1.86,1,2.5.61.67,1.49,1.03,2.4.98v.02Z"/><circle class="cls-3" cx="301.95" cy="339.4" r="45"/><path d="m269.15,336.9l-.7-2.3c.9-.2,1.7-.6,1.9-1.8.3-1.1-.1-1.5-.5-1.6-.6-.2-1,.4-1.8,1.8-.8,1.4-1.9,2.7-3.8,2.2-2-.5-2.7-2.4-2.3-4.2.4-1.7,1.5-2.8,3.2-3.2l.7,2.2c-.8.2-1.4.5-1.6,1.5-.2.7,0,1.2.5,1.3s.8,0,1.7-1.5c.8-1.4,1.8-3,4-2.5,2,.5,2.7,2.3,2.2,4.5-.5,2.1-1.9,3.3-3.5,3.5v.1Z"/><path d="m270.25,327.5c-1.9-1.1-2.6-3.5-1.5-5.4,1.1-1.9,3.5-2.6,5.4-1.5,1.9,1.1,2.6,3.5,1.5,5.4s-3.5,2.6-5.4,1.5Zm2.8-5c-.9-.5-1.9-.2-2.4.6s-.2,1.8.7,2.4c.9.5,1.9.2,2.4-.6s.2-1.8-.7-2.4Z"/><path d="m274.95,319.6c-1.6-1.6-1.7-4,0-5.6,1-1,2.5-1.4,3.7-1.1l-.5,2.2c-.6-.2-1.2,0-1.6.5-.7.7-.7,1.7,0,2.4.7.7,1.8.7,2.4,0,.5-.5.6-1.1.4-1.6l2.2-.6c.4,1.3,0,2.7-1,3.8-1.6,1.6-4,1.7-5.6,0Z"/><path d="m292.55,312.2l-1.3-.5c-.5.8-1.2,1.4-2.2,1.8-2,.9-3.9.4-4.7-1.4-.5-1.1-.4-2.4.3-3.4-.4-.3-.8-.7-1.1-1.3-.7-1.6,0-3.4,1.9-4.2,1.4-.6,2.9-.4,4.1.7l-1.4,1.9c-.5-.5-1.1-.8-1.7-.5-.5.2-.8.7-.6,1.2s.7.7,1.4,1l2.6,1.2c0-.5,0-1.1-.2-1.7l2.3.2c.1.8.1,1.6,0,2.4l1.8.8-1.3,1.7.1.1Zm-3.2-1.4l-2.6-1.1h-.1c-.2.4-.2.9,0,1.2.3.6.9.9,1.9.5.4-.2.6-.4.9-.6h-.1Z"/><path d="m308.45,310.7h-2.4c0-.1.3-6.2.3-6.2l-2.9,4.3h-.3l-2.5-4.6-.3,6.1h-2.4c0-.1.5-10.6.5-10.6h2.4c0,.1,2.6,4.9,2.6,4.9l3.1-4.5h2.4c0,.1-.5,10.6-.5,10.6Z"/><path d="m313.55,310.8c.6.2,1.2.2,1.5,0l1.3,1.6c-1,.7-2.3.8-3.6.3-2.4-.9-3.3-3.1-2.5-5.2s2.9-3.1,5.1-2.3c2,.8,3,2.9,2.2,5-.1.3-.2.6-.4.8l-5-1.9c0,.8.5,1.3,1.3,1.6l.1.1Zm2.3-2.1c0-.9-.4-1.4-1.1-1.7-.8-.3-1.5-.1-1.9.5l3,1.1v.1Z"/><path d="m328.45,317.4l-2.9,3.6-1.7-1.4,2.8-3.4c.5-.6.5-1.2,0-1.6-.6-.5-1.2-.3-1.8.3l-2.7,3.3-1.7-1.4,2.8-3.4c.5-.6.5-1.2,0-1.6-.6-.5-1.2-.3-1.8.3l-2.7,3.3-1.7-1.4,4.8-5.8,1.7,1.4-.4.5c.6-.2,1.3,0,2.1.6.7.6,1,1.3.9,2,.7-.2,1.5,0,2.3.6,1.3,1.1,1.4,2.8.2,4.2l-.2-.1Z"/><path d="m328.75,319.4c1.9-1.2,4.3-.6,5.5,1.3,1.2,1.9.6,4.3-1.3,5.5s-4.3.6-5.5-1.3c-1.2-1.9-.6-4.3,1.3-5.5Zm3,4.8c.9-.6,1.1-1.6.6-2.4-.5-.8-1.5-1.1-2.4-.5-.9.6-1.1,1.6-.6,2.4s1.5,1.1,2.4.5Z"/><path d="m338.65,330.6l-2.4.8c-.2-.9-1-2-2.4-1.6l-3.2,1.1-.7-2.1,7.1-2.5.7,2.1-1.3.4c1,0,1.8.7,2.1,1.6l.1.2Z"/><path d="m339.95,339.9l-7.5-1.6c-2.5-.5-3.6-1.7-3.7-3.8l2.1-.3c.1,1,.5,1.5,1.5,1.7l6.7-3.9.3,2.5-4.3,2.2,4.7.8.3,2.4h-.1Z"/><path class="cls-6" d="m292.85,374.5h-10.5c-1-.5-1.2-1.3-1.2-2.3v-26.8c0-.7.2-.9.9-1.1.5,0,.7-.4.7-.9v-3c0-.5-.2-.8-.7-.9-.8-.2-.9-.4-.9-1.1v-6.4c0-.7.3-1.5.8-2,2-1.9,3.9-3.9,5.9-5.9.5-.5,1.2-.8,2-.8h24.4v.2c.7.5.9,1.2.9,2-.6.2-.8.3-.8.9v6.5c0,.6.2.8.8.9v16.9c-.2-.5-.5-.8-1-.9h-26.3c-.8,0-1.2.4-1.2,1.3v16.2c0,.9.4,1.4,1.4,1.4h26c.7,0,1.2-.2,1.4-.9v3.8c0,1,0,2-1,2.6h-5.4c-.2-.2-.5-.4-.6-.7-.2-.4-.6-.6-1-.6h-12.5c-.5,0-.9,0-1.1.5-.2.3-.5.6-.8.8l-.2.3Zm9.1-44.8v-3.2c0-.6-.3-.9-.8-.9s-.7.4-.7.9v6.5h0c0,.6.3.9.8.9.4,0,.7-.3.7-.8v-3.3h0v-.1Zm4.7,0v-3.2c0-.6-.3-1-.8-1s-.8.4-.8,1v6.4c0,.6.3,1,.8,1s.8-.3.8-1v-3.1h0v-.1Zm4.7,0v-3.2c0-.6-.3-.9-.8-.9s-.8.4-.8,1v6.4c0,.6.3,1,.8,1s.8-.3.8-.9v-3.2h0v-.2Zm-18.8,0v-3.2c0-.6-.3-.9-.7-.9s-.8.3-.8.9v6.4c0,.6.3.9.7.9.5,0,.8-.3.8-.9v-3.2h0Zm4.7,0v-3.2c0-.6-.3-1-.8-.9s-.7.4-.7.9v6.4c0,.6.3.9.8.9s.7-.3.7-.9v-3.2h0Zm-11.4,2.1h0v1.3c0,.4.3.7.7.7s.7-.3.8-.7h0v-2.6c0-.4-.3-.8-.7-.8h0c-.4,0-.7.3-.8.8v1.3h0Z"/><path class="cls-12" d="m314.35,323.4h4.8c.9,0,1.6.7,1.6,1.6v4.7c0,.3-.1.6-.5.6-.5,0-.6.3-.6.8v10.1c0,.4.1.7.5.8.5,0,.6.4.6.8v29.6c0,1-.3,1.7-1.2,2.2h-5.2c.9-.6,1-1.6,1-2.6v-37.8c.5,0,.7-.4.7-1v-6.4c0-.5-.2-.9-.7-1,0-.8-.2-1.5-.9-2v-.2l-.1-.2Z"/><path class="cls-33" d="m286.65,366.8v-15.5c0-.9.4-1.3,1.2-1.3h22v15c0,1.6-.3,1.8-1.8,1.8h-21.5.1Z"/><path class="cls-41" d="m286.65,366.8h21.5c1.6,0,1.8-.3,1.8-1.8v-15h4.3c.6,0,.9.4,1,.9v17.1c-.2.7-.7.9-1.4.9h-26c-1,0-1.4-.4-1.4-1.4v-.7h.2Z"/><path class="cls-11" d="m315.35,325.6c.5.1.7.4.7,1v6.4c0,.5-.2.9-.7,1-.6-.1-.8-.3-.8-.9v-6.5c0-.6.2-.8.8-.9v-.1Z"/><path class="cls-11" d="m301.95,329.7v3.3c0,.5-.3.8-.7.8-.5,0-.8-.3-.8-.8h0v-6.6c0-.5.3-.9.7-.9s.8.3.8.9v3.3Z"/><path class="cls-11" d="m306.65,329.8v3.1c0,.6-.3,1-.8,1s-.8-.3-.8-1v-6.4c0-.6.3-1,.8-1s.8.4.8,1v3.3Z"/><path class="cls-11" d="m311.35,329.8v3.2c0,.6-.3,1-.8.9s-.8-.3-.8-1v-6.4c0-.6.3-1,.8-1s.7.4.8.9v3.4Z"/><path class="cls-11" d="m292.55,329.8v3.2c0,.6-.3.9-.8.9s-.7-.3-.7-.9v-6.4c0-.6.3-1,.8-.9s.7.4.7.9v3.2Z"/><path class="cls-11" d="m297.25,329.8v3.2c0,.6-.3.9-.7.9-.5,0-.8-.3-.8-.9v-6.4c0-.6.3-.9.7-.9s.8.3.8.9v3.2Z"/><path class="cls-16" d="m285.85,331.9v-1.3c0-.5.3-.8.8-.8.4,0,.8.3.8.8h0v2.6c0,.4-.3.7-.7.7h0c-.5,0-.7-.3-.7-.7v-1.3h-.2Z"/><circle class="cls-3" cx="98.05" cy="339.4" r="45"/><path d="m66.45,344l.6-1.1,1.6,1-.7,1.2c.4.5.8,1.1,1,1.8.7,2.4-.6,4.8-3.1,5.5-2.4.7-4.8-.7-5.5-3.1-.7-2.4.6-4.8,3.1-5.5,1-.3,2.1-.2,3,.2Zm.5,2.9l-.9,1.5-1.6-1,1-1.7c-.4-.1-.9-.1-1.4,0-1.5.4-2.1,1.8-1.8,3.1.4,1.3,1.7,2.1,3.1,1.7,1.5-.4,2.1-1.8,1.8-3.1,0-.2-.1-.4-.2-.6v.1Z"/><path d="m61.55,336.3h6.1v1.7h-.6c.5.3.8.9.8,1.8,0,1.2-.8,2.3-2.5,2.3h-3.8v-1.8h3.5c.8,0,1.1-.5,1.1-1.1,0-.7-.4-1.1-1.3-1.1h-3.3v-1.8Z"/><path d="m63.05,327.8l6,1.3-.4,1.8h-.6c.4.4.5,1,.3,1.8-.3,1.6-2,2.6-3.8,2.2-1.8-.4-2.9-2-2.5-3.6.2-.8.6-1.3,1.1-1.6h-.6c0-.1.4-1.9.4-1.9h.1Zm2.6,2.4c-.9-.2-1.6.3-1.8,1.1s.3,1.5,1.1,1.7c.9.2,1.6-.3,1.8-1.1.2-.8-.3-1.5-1.1-1.7Z"/><path d="m68.45,321.3l3.4,1.6-.8,1.7-3.2-1.5c-.7-.3-1.2,0-1.5.5-.3.6-.1,1.2.7,1.6l3,1.4-.8,1.7-5.5-2.6.8-1.7.5.2c-.3-.5-.3-1.2,0-1.9.5-1.1,1.8-1.7,3.3-1h.1Z"/><path d="m70.25,317.8l1.8,1.3c.4.3.7,0,1.2-.7l1.4,1c-1.2,2.1-2.2,2.2-3.6,1.2l-1.8-1.3-.6.8-1.4-1,.6-.8-.9-.7.6-1.8,1.4,1,.7-1,1.4,1-.7,1h-.1Z"/><path d="m74.95,310.2l4.2,4.4-1.3,1.3-.4-.4c0,.6-.2,1.2-.8,1.8-.9.9-2.3.9-3.4-.3l-2.6-2.7,1.3-1.3,2.4,2.5c.5.6,1.1.5,1.5,0,.5-.5.6-1.1,0-1.7l-2.3-2.4,1.3-1.3.1.1Z"/><path d="m86.15,306.3l1.8,3.3-1.6.9-1.7-3.2c-.3-.5-.7-.8-1.3-.5-.5.3-.6.8-.3,1.5l1.6,3.1-1.6.9-1.7-3.2c-.3-.5-.7-.8-1.3-.5-.5.3-.6.8-.3,1.5l1.6,3.1-1.6.9-2.9-5.4,1.6-.9.3.5c0-.5.4-1,1.1-1.4.6-.3,1.3-.3,1.8,0,0-.6.4-1.1,1.2-1.5,1.2-.7,2.5-.2,3.2,1.2l.1-.3Z"/><path d="m87.75,305.2l4.5-1.1.4,1.7-4.5,1.1-.4-1.7Z"/><path d="m93.95,305.3c0-1.8,1.3-3.3,3.1-3.4,1.2,0,2.3.5,2.8,1.5l-1.6,1c-.2-.4-.7-.7-1.2-.6-.8,0-1.4.6-1.3,1.5,0,.8.6,1.4,1.4,1.4.5,0,1-.3,1.2-.7l1.6.9c-.5,1-1.5,1.6-2.7,1.7-1.9,0-3.3-1.3-3.4-3.1l.1-.2Z"/><path d="m100.45,305.1c.3-1.8,2-2.9,3.7-2.6,1.8.3,3,1.9,2.7,3.7-.3,1.8-2,2.9-3.7,2.6-1.8-.3-3-1.9-2.7-3.7Zm4.6.8c.1-.9-.4-1.5-1.1-1.7-.8-.1-1.5.3-1.6,1.2s.4,1.5,1.1,1.7c.8.1,1.5-.3,1.6-1.2Z"/><path d="m116.85,309.8l-1.6,3.4-1.7-.8,1.5-3.3c.3-.6.2-1-.4-1.3s-1,0-1.4.6l-1.5,3.1-1.7-.8,1.5-3.3c.3-.6.2-1-.4-1.3-.6-.3-1,0-1.4.6l-1.5,3.1-1.7-.8,2.6-5.5,1.7.8-.2.5c.4-.3,1.1-.3,1.8,0,.7.3,1,.8,1.1,1.4.5-.3,1.2-.3,2,0,1.3.6,1.7,1.9,1,3.3l.3.3Z"/><path d="m122.75,315.8c-1.2,1.4-3.1,1.6-4.3.5-.6-.5-.9-1.2-.9-1.8l-2,2.3-1.4-1.2,5.7-6.4,1.4,1.2-.4.4c.6,0,1.2.1,1.9.6,1.2,1.1,1.3,3,0,4.4Zm-1.4-1.2c.6-.7.5-1.5-.1-2.1s-1.5-.5-2.1.2-.5,1.5.1,2.1,1.5.5,2.1-.2Z"/><path d="m129.45,319.8l-5,3.5-1.1-1.5.5-.3c-.6,0-1.2-.3-1.6-1-.7-1-.6-2.4.7-3.3l3.1-2.2,1.1,1.5-2.8,2c-.6.4-.6,1-.3,1.5.4.5,1,.7,1.7.2l2.7-1.9,1.1,1.5h-.1Z"/><path d="m129.75,324.5l-2,.9c-.5.2-.3.7,0,1.4l-1.5.7c-1.3-2.1-.9-3,.7-3.7l2-.9-.4-.9,1.6-.8.4.9,1.1-.5,1.3,1.4-1.5.7.5,1.1-1.6.8-.5-1.1h-.1Z"/><path d="m134.15,332.6l-5.9,1.5-.5-1.8h.6c-.6-.4-1-.9-1.2-1.7-.4-1.6.6-3.2,2.4-3.6,1.8-.5,3.5.5,3.9,2,.2.8,0,1.4-.3,2h.6c0-.1.5,1.6.5,1.6h-.1Zm-3.4-1c.9-.2,1.3-1,1.1-1.8-.2-.8-.9-1.3-1.8-1-.9.2-1.3,1-1.1,1.8.2.8.9,1.3,1.8,1Z"/><path d="m132.75,337.1h-2.2c-.5.2-.5.6-.4,1.4h-1.7c-.4-2.3.3-3,2-3.1h2.2v-1.1h1.8c0-.1,0,.9,0,.9h1.2l.7,1.7h-1.7v1.4h-1.8c0,.1,0-1.2,0-1.2h-.1Z"/><path d="m134.55,339.9v1.8c-.1,0-6.2-.4-6.2-.4v-1.8c.1,0,6.2.4,6.2.4Zm1.7,0c.6,0,1.1.6,1,1.2,0,.6-.6,1.1-1.2,1s-1.1-.6-1-1.2.6-1.1,1.2-1Z"/><path d="m131.35,342.7c1.8.4,2.8,2.1,2.4,3.9-.4,1.8-2.1,2.9-3.9,2.5s-2.8-2.1-2.4-3.9c.4-1.8,2.1-2.9,3.9-2.5Zm-1,4.5c.8.2,1.5-.3,1.7-1.1s-.3-1.5-1.1-1.7c-.8-.2-1.5.3-1.7,1.1s.3,1.5,1.1,1.7Z"/><path d="m127.65,355.9l-3.4-1.6.8-1.7,3.2,1.5c.7.3,1.2,0,1.5-.5.3-.6.1-1.2-.7-1.6l-3-1.4.8-1.7,5.5,2.6-.8,1.7-.5-.2c.3.5.3,1.2,0,1.9-.5,1.1-1.8,1.7-3.3,1h-.1Z"/><path class="cls-35" d="m77.85,335.1v-8.8c0-1.4.7-2.1,2.1-2.1h30.5c1.4,0,2.1.7,2.1,2.1v28.7c0,1.2-.7,1.9-1.9,1.9h-30.8c-1.2,0-1.9-.8-1.9-1.9v-19.9h-.1Zm19.2,18.2c.4,0,.6-.3.9-.6.9-.8,1.6-1.7,2.1-2.7.2-.4.4-.5.8-.5.9,0,1.9,0,2.8-.2,2.4-.6,3.7-2.2,3.5-4.5,0-1.2-.6-2.4-1.3-3.4-.4-.5-.4-.9,0-1.5.8-1.2,1.3-2.5,1.3-4,1.3-.9,1.1-2.4.1-3.1-.7-.5-1.4-.4-2,0-.2-.3-.6-.4-.9-.5-1.1-.4-2.2-.5-3.4-.4-.5,0-.8-.1-1-.6-.5-1.1-1.2-2-2.1-2.7-1.2-1.1-3-1.4-4.5-.6-1,.5-1.8,1.4-2.4,2.3-.3.5-.5,1.2-1,1.5s-1.2,0-1.8,0c-1.1,0-2.1.2-3,.9-.5-.2-.9-.3-1.4-.2-.7.2-1.2.7-1.4,1.4-.2.9.2,1.5.9,2,0,1.6.6,2.9,1.4,4.2.3.4.3.7,0,1.1-.7,1-1.1,2.1-1.3,3.2-.2,1.6.2,3,1.5,4,1.2.9,2.7,1.2,4.2,1.1.8,0,1.4.1,1.6,1,0,.2.2.4.4.6.7.9,1.3,1.8,2.4,2.2,0,.8.4,1.4,1.1,1.8,1,.5,2.5-.1,2.6-1.7l-.1-.1Z"/><path class="cls-18" d="m77.85,335.1v19.9c0,1.2.7,1.9,1.9,1.9h30.8c1.2,0,1.9-.8,1.9-1.9v-19.9h2.4c2.1.5,3.1,2.1,3.1,4.2v23.1h-45.6v-24c0-1.7,1.7-3.3,3.3-3.4h2.1l.1.1Z"/><path class="cls-26" d="m72.45,362.4h45.7c0,.8,0,1.5-.3,2.3-.5,1.3-1.5,2-2.8,2.3h-39c-1.9,0-3.5-1.6-3.5-3.5v-1l-.1-.1Z"/><path class="cls-19" d="m118.05,362.4v-23.1c0-2.2-1-3.7-3.1-4.2h3.2c1.9,0,3.4,1.6,3.5,3.4v23.9h-3.7.1Z"/><path class="cls-26" d="m99.75,370.6h.1c-.9.7-1.2,1.6-1,2.7h-12.3c-.4,0-.5,0-.5-.5-.1-1.5.9-2.4,2.2-2.3h2.7c.4,0,.6,0,.6-.5v-1.3h4.1q1.3,0,1.3,1.3c0,.5.2.6.6.6.7,0,1.4,0,2.2,0Z"/><path class="cls-36" d="m99.75,370.6h-2.2c-.4,0-.6,0-.6-.6q0-1.3-1.3-1.3h-4.1v-1.8h8.2v3.7Z"/><path class="cls-20" d="m118.05,362.5h3.6c0,1.1,0,2.2-.7,3.1-.6.9-1.6,1.4-2.7,1.4h-3.2c1.3-.3,2.3-1,2.8-2.3.3-.7.3-1.5.3-2.2h-.1Z"/><path class="cls-10" d="m98.85,373.4c-.2-1.1.1-2,1-2.7h2.6c1.4,0,2,1.2,1.8,2.5,0,.3-.3.2-.5.2h-5,.1Z"/><path class="cls-25" d="m107.15,335.8c0,1.5-.5,2.8-1.3,4-.4.6-.4.9,0,1.5.7,1,1.2,2.1,1.3,3.4.2,2.3-1.1,3.9-3.5,4.5-.9.2-1.9.3-2.8.2-.4,0-.7.1-.8.5-.5,1.1-1.2,2-2.1,2.7-.3.2-.5.5-.9.6,0-.3-.2-.6-.3-.9,1.2-.6,1.8-1.7,2.4-2.8.1-.3,0-.3-.2-.3-1.1-.2-2.3-.5-3.3-.9-.3-.1-.6-.1-.9,0-1,.4-2.1.7-3.2.9-.5,0-.4.2-.3.6.6,1,1.3,1.9,2.2,2.7l-.2.8c-1.1-.4-1.7-1.3-2.4-2.2-.2-.2-.3-.4-.4-.6-.2-.8-.8-1-1.6-1-1.5,0-3-.2-4.2-1.1-1.3-1-1.7-2.4-1.5-4,.2-1.2.6-2.3,1.3-3.2.3-.4.3-.7,0-1.1-.8-1.3-1.4-2.6-1.4-4.2.3.1.6.2.9.2,0,1.4.6,2.6,1.4,3.8.9-1.1,1.9-2.1,3-2.9.1-.1.2-.3.2-.4.2-1.1.4-2.2.8-3.3.2-.5,0-.6-.4-.6-1.2,0-2.3.2-3.4.6l-.6-.6c.9-.7,2-.8,3-.9.6,0,1.4.2,1.8,0,.5-.3.6-1,1-1.5.6-.9,1.4-1.8,2.4-2.3,1.5-.8,3.3-.5,4.5.6.9.8,1.6,1.7,2.1,2.7.2.5.5.6,1,.6,1.2,0,2.3,0,3.4.4.3.1.6.2.9.5-.2.2-.3.5-.6.6-1.1-.4-2.2-.6-3.3-.6-.5,0-.6.2-.4.6.3.9.6,1.9.7,2.8,0,.6.5,1,.9,1.4.2.2.5.4.7.6.5.5,1,1,1.4,1.5,0,.1.2.4.4,0,.7-1.1,1.2-2.2,1.3-3.5.3,0,.6-.1.9-.2l.1-.2Zm-17.9,4.9c0,.7.1,1.6.1,2.4,0,.5.3.9.7,1.2,1.5,1.1,3.1,2,4.8,2.7.2.1.5.1.7,0,1.7-.8,3.4-1.7,4.9-2.8.3-.2.5-.5.5-.8.2-1.9.2-3.9,0-5.8,0-.3-.2-.5-.4-.7-1.6-1.1-3.3-2.1-5.1-2.9h-.6c-1.8.8-3.4,1.7-5,2.8-.2.1-.4.4-.4.7-.1,1-.2,2-.2,3.1v.1Zm6-12.5c-.3,0-.5,0-.8.1-1.6.5-2.5,1.8-3.3,3.2-.2.3,0,.3.3.3,1.1.2,2.2.5,3.3.9.3.1.6.1.9,0,1.1-.4,2.2-.7,3.3-.9.3,0,.4-.1.2-.4-.3-.6-.6-1.1-1-1.6-.8-.9-1.7-1.6-2.9-1.7h0v.1Zm-6.5,20.3h.3q.7,0,.5-.7c-.3-.9-.5-1.8-.7-2.7,0-.3,0-.7-.3-.9-1-.8-1.9-1.6-2.6-2.6-.2-.3-.3-.2-.5,0-.5.7-.8,1.5-1,2.4-.3,1.2-.2,2.4.8,3.3,1,1,2.3,1.1,3.6,1.2h-.1Zm12.7,0c1.1,0,1.8-.1,2.5-.3,1.8-.6,2.6-2,2.3-3.9-.2-1-.6-1.8-1.1-2.6-.2-.4-.3-.4-.6,0-.6.8-1.4,1.6-2.2,2.2-.4.3-.7.8-.7,1.3,0,.8-.3,1.6-.6,2.4q-.3,1,.4,1h0v-.1Zm-12.9-5.6c-.2-1.6-.2-3.2,0-4.8-.9.6-1.5,1.4-2.1,2.1-.2.2-.2.4,0,.6h0c.7.7,1.2,1.5,2.1,2.1Zm8-9.4c1.5.7,2.9,1.5,4.2,2.4-.2-1-.4-1.9-.8-2.9,0-.2-.1-.4-.4-.4-1,.2-2,.4-3,.8h0v.1Zm-2.6,14.1c-1.5-.7-2.8-1.5-4.2-2.4.2,1,.4,2,.8,2.9,0,.2.1.3.3.3,1-.2,2-.4,3-.8h.1Zm-4.2-11.6c1.4-1,2.7-1.7,4.2-2.5-1-.3-2-.6-3-.8-.3,0-.3.1-.4.3-.4.9-.6,1.9-.8,2.9h0v.1Zm12.2,2.2c.2,1.6.2,3.2,0,4.8.9-.6,1.5-1.4,2.1-2.1.2-.2.1-.5,0-.7-.6-.7-1.2-1.4-2.1-2h0Zm-5.4,9.4c1.1.4,2,.6,3,.8.2,0,.3,0,.3-.2.4-1,.7-2,.8-3-1.3.9-2.7,1.7-4.2,2.4h.1Z"/><path class="cls-21" d="m104.65,333.2c.3-.1.4-.4.6-.6.7-.3,1.4-.4,2,0,1,.7,1.2,2.2-.1,3.1-.3.1-.6.2-.9.2-1.4-.2-2.1-1.2-1.7-2.5v-.3l.1.1Z"/><path class="cls-21" d="m93.35,353.2l.2-.8c1.3-1.3,2.1-1.3,3.3,0,0,.3.2.6.3.9,0,1.6-1.5,2.2-2.6,1.8-.7-.3-1.1-1-1.1-1.8l-.1-.1Z"/><path class="cls-21" d="m84.15,336c-.3,0-.6-.1-.9-.2-.7-.5-1.1-1.1-.9-2,.2-.7.6-1.2,1.4-1.4.5-.1,1,0,1.4.2l.6.6c.5,1.7,0,2.6-1.6,2.8Z"/><path class="cls-34" d="m89.25,340.7c0-1,0-2.1.2-3.1,0-.3.2-.5.4-.7,1.6-1.1,3.2-2.1,5-2.8.2,0,.4-.1.6,0,1.8.8,3.5,1.8,5.1,2.9.2.1.4.4.4.7.2,1.9.3,3.9,0,5.8,0,.3-.2.6-.5.8-1.5,1.1-3.2,2-4.9,2.8-.2.1-.5.1-.7,0-1.7-.8-3.3-1.7-4.8-2.7-.4-.2-.7-.7-.7-1.2,0-.9-.2-1.7-.1-2.4v-.1Zm8.7-.2c0-1.5-1.2-2.7-2.8-2.7-1.5,0-2.7,1.2-2.7,2.8,0,1.5,1.2,2.7,2.7,2.7s2.7-1.2,2.7-2.7h0l.1-.1Z"/><path class="cls-31" d="m95.25,328.2c1.3,0,2.2.8,2.9,1.7.4.5.7,1,1,1.6.2.3.1.4-.2.4-1.1.2-2.2.5-3.3.9-.3.1-.6.1-.9,0-1.1-.4-2.2-.7-3.3-.9-.2,0-.4,0-.3-.3.8-1.4,1.6-2.7,3.3-3.2.3,0,.5-.1.8-.1v-.1Z"/><path class="cls-31" d="m88.75,348.5c-1.3,0-2.6-.2-3.6-1.2-1-.9-1.1-2.1-.8-3.3.2-.8.6-1.6,1-2.4.2-.3.3-.3.5,0,.8,1,1.7,1.8,2.6,2.6.3.3.3.6.3.9.2.9.4,1.8.7,2.7q.2.7-.5.7h-.3.1Z"/><path class="cls-31" d="m101.35,348.5q-.7,0-.4-1c.2-.8.5-1.6.6-2.4,0-.5.3-1,.7-1.3.8-.6,1.6-1.4,2.2-2.2.2-.3.4-.3.6,0,.5.8.9,1.7,1.1,2.6.3,1.9-.5,3.3-2.3,3.9-.7.2-1.4.3-2.5.3v.1Z"/><path class="cls-27" d="m96.85,352.4c-1.1-1.2-1.9-1.2-3.3,0-.9-.7-1.7-1.7-2.2-2.7-.2-.4-.2-.5.3-.6,1.1-.2,2.1-.5,3.2-.9.3-.1.6-.1.9,0,1.1.4,2.2.7,3.3.9.2,0,.4,0,.2.3-.6,1.1-1.2,2.2-2.4,2.8v.2Z"/><path class="cls-27" d="m84.15,336c1.5-.2,2.1-1.1,1.6-2.8,1.1-.4,2.2-.6,3.4-.6.4,0,.6.1.4.6-.4,1.1-.7,2.2-.8,3.3,0,.2,0,.3-.2.4-1.1.9-2.1,1.9-3,2.9-.8-1.2-1.4-2.4-1.4-3.8Z"/><path class="cls-27" d="m104.65,333.2v.3c-.4,1.4.3,2.3,1.7,2.5,0,1.3-.6,2.4-1.3,3.5-.2.3-.3,0-.4,0-.4-.5-.9-1-1.4-1.5-.2-.2-.4-.4-.7-.6-.4-.4-.8-.7-.9-1.4,0-1-.4-1.9-.7-2.8-.2-.4-.1-.6.4-.6,1.1,0,2.3.2,3.3.6Z"/><path class="cls-23" d="m88.55,342.9c-.9-.6-1.5-1.4-2.1-2.1-.2-.1-.2-.4,0-.6h0c.6-.7,1.2-1.5,2.1-2.1-.2,1.6-.2,3.2,0,4.8Z"/><path class="cls-23" d="m96.55,333.5c1-.4,2-.6,3-.8.3,0,.3.2.4.4.4.9.6,1.9.8,2.9-1.3-.9-2.7-1.7-4.2-2.4v-.1Z"/><path class="cls-23" d="m93.95,347.6c-1.1.4-2,.6-3,.8-.2,0-.3-.1-.3-.3-.4-.9-.6-1.9-.8-2.9,1.3.9,2.7,1.7,4.2,2.4h-.1Z"/><path class="cls-23" d="m89.75,336c.2-1,.4-2,.8-2.9,0-.2.1-.4.4-.3,1,.2,2,.4,3,.8-1.5.7-2.8,1.5-4.2,2.5v-.1Z"/><path class="cls-23" d="m101.95,338.2c.9.6,1.4,1.3,2.1,2,.2.2.3.4,0,.7-.7.7-1.2,1.5-2.1,2.1.2-1.6.2-3.2,0-4.8Z"/><path class="cls-23" d="m96.55,347.6c1.4-.7,2.8-1.5,4.2-2.4-.2,1-.4,2-.8,3,0,.1-.1.3-.3.2-1-.2-2-.4-3-.8h-.1Z"/><path class="cls-40" d="m97.95,340.5c0,1.5-1.2,2.8-2.7,2.8s-2.8-1.2-2.8-2.7,1.2-2.8,2.7-2.8h0c1.5,0,2.7,1.2,2.7,2.7h.1Z"/></svg>