<?xml version="1.0" encoding="UTF-8"?><svg id="Layer_1" xmlns="http://www.w3.org/2000/svg" viewBox="0 0 400 400"><defs><style>.cls-1{stroke:#a5262d;}.cls-1,.cls-2,.cls-3,.cls-4{stroke-width:4px;}.cls-1,.cls-2,.cls-3,.cls-4,.cls-5{stroke-miterlimit:10;}.cls-1,.cls-2,.cls-3,.cls-4,.cls-5,.cls-6{fill:none;}.cls-2{stroke:#000;}.cls-3{stroke:#0018c6;}.cls-7{fill:#727272;}.cls-8{fill:#0c4a4e;}.cls-9{fill:#546e7a;}.cls-4{stroke:#c000e2;}.cls-10{fill:#d9cfca;}.cls-11{fill:#626363;}.cls-12{fill:#e5dedc;}.cls-13{fill:#453e43;}.cls-14{fill:#97f8fe;}.cls-15{fill:#f1efef;}.cls-16{fill:#bacce9;}.cls-17{fill:#c7c7c7;}.cls-18{fill:#fe7038;}.cls-19{fill:#bdbdbd;}.cls-20{fill:#93dbfe;}.cls-21{fill:#ecf5fe;}.cls-22{fill:#ffed58;}.cls-23{fill:#152433;}.cls-5{stroke:#231f20;stroke-width:2px;}.cls-24{fill:#685e66;}.cls-25{fill:#36464e;}.cls-26{fill:#fe415d;}.cls-27{fill:#6f7070;}.cls-28{fill:#0aaffe;}.cls-29{fill:#e6dedc;}.cls-30{fill:#b9cce9;}.cls-31{fill:#aaa;}.cls-32{fill:#788f9b;}.cls-33{fill:#484645;}.cls-34{fill:#636363;}.cls-35{fill:#b3b3b3;}.cls-36{fill:#d0c8c3;}.cls-37{fill:#fbd734;}.cls-38{fill:#d7e1f2;}.cls-39{fill:#7dd4f3;}.cls-40{fill:#231f20;}.cls-41{fill:#2dbafe;}</style></defs><line class="cls-6" x1="154.68" y1="116.53" x2="188.32" y2="143.71"/><line class="cls-5" x1="154.68" y1="116.53" x2="179.96" y2="136.95"/><polygon class="cls-40" points="173.54 141.39 188.32 143.72 182.96 129.76 173.54 141.39"/><line class="cls-6" x1="245.32" y1="116.53" x2="211.68" y2="143.71"/><line class="cls-5" x1="245.32" y1="116.53" x2="220.05" y2="136.95"/><polygon class="cls-40" points="217.05 129.76 211.68 143.71 226.46 141.39 217.05 129.76"/><circle class="cls-1" cx="117.54" cy="62.79" r="45"/><rect class="cls-35" x="91.54" y="52.79" width="52" height="37" rx="2.9" ry="2.9"/><path class="cls-33" d="m118.34,83.1l-1.1-3.4h-8l-1,3.4h-6.5l7.5-23.6h7.6l7.8,23.6h-6.3Zm-7.6-8.6h4.76l-2.4-8-2.36,8Z"/><path class="cls-33" d="m126.04,83.1v-24.71h5.6v24.71h-5.6Z"/><path d="m93.64,41.49l-2.4,3.1,1,1.4-1.6,2.1-6.1-9.3,1.9-2.4,10.5,3.7-1.6,2.1-1.6-.6-.1-.1Zm-2.2-.8l-3.8-1.4,2.3,3.3,1.5-1.9Z"/><path d="m90.34,31.69l1.7-1.4,7,8.4-1.7,1.4-7-8.4Z"/><path d="m102.5,27.89l3.6,6.6-2,1.1-.3-.6c-.11.81-.64,1.49-1.4,1.8-1.33.74-3.01.25-3.75-1.08-.06-.1-.11-.21-.15-.32l-2.2-4,2-1.1,2,3.8c.29.65,1.06.94,1.71.65.03-.01.06-.03.09-.05.67-.32.95-1.12.63-1.79-.04-.07-.08-.15-.13-.21l-2-3.6,2-1.1-.1-.1Z"/><path d="m117.14,27.39l.8,4.5-2.2.4-.8-4.3c-.03-.6-.54-1.05-1.14-1.02-.06,0-.11.01-.16.02-.7.1-1.1.7-.9,1.6l.7,4.2-2.2.4-.8-4.3c-.03-.6-.54-1.05-1.14-1.02-.06,0-.11.01-.16.02-.7.1-1.1.7-.9,1.6l.7,4.2-2.2.4-1.3-7.4,2.2-.4v.7c.41-.67,1.12-1.11,1.9-1.2.76-.23,1.58,0,2.1.6.37-.79,1.13-1.33,2-1.4,1.7-.3,3,.7,3.3,2.6l.2-.2Z"/><path d="m119.44,24.99l2.2.2-.6,7.5-2.2-.2.6-7.5Zm0-2c.08-.75.75-1.29,1.5-1.2.75.08,1.29.75,1.2,1.5s-.75,1.29-1.5,1.2c0,0,0,0,0,0-.72-.05-1.26-.66-1.21-1.38,0-.04,0-.08.01-.12Z"/><path d="m130.44,30.1l-1.2,4.4-2.2-.6,1.1-4.1c.24-.68-.11-1.42-.78-1.66-.04-.01-.08-.03-.12-.04-.69-.26-1.46.08-1.72.76-.04.11-.07.22-.08.34l-1.1,3.9-2.2-.6,2-7.2,2.2.6-.2.7c.67-.47,1.53-.58,2.3-.3,1.49.39,2.38,1.91,2,3.4-.03.1-.06.2-.1.3l.1.1Z"/><path d="m140.04,32.1l-3.8,6.4-1.9-1.2.4-.6c-.77.29-1.63.18-2.3-.3-1.32-.77-1.78-2.46-1.01-3.78.06-.11.13-.22.21-.32l2.4-4,1.9,1.2-2.2,3.7c-.41.5-.34,1.24.16,1.65.07.06.15.11.24.15.63.41,1.48.23,1.89-.4.04-.06.08-.13.11-.2l2.1-3.5,1.9,1.2h-.1Z"/><path d="m147.84,44.39l-3.5,3-1.5-1.7,3.4-2.9c.6-.5.7-1.1.2-1.6-.43-.5-1.18-.55-1.68-.12-.04.04-.08.08-.12.12l-3.2,2.7-1.5-1.7,3.4-2.9c.6-.5.7-1.1.2-1.6-.43-.5-1.18-.55-1.68-.12-.04.04-.08.08-.12.12l-3.2,2.7-1.5-1.7,5.7-4.9,1.5,1.7-.5.4c.76,0,1.49.34,2,.9.54.56.73,1.36.5,2.1.85-.02,1.66.35,2.2,1,1.03,1.19.9,3-.29,4.03-.07.06-.14.11-.21.17l-.1.3Z"/><circle class="cls-1" cx="282.46" cy="65.79" r="45" transform="translate(172.27 334.07) rotate(-80.78)"/><path d="m262.87,36.59c1.57,2.02,1.21,4.92-.8,6.5l-1.6,1.2,2.6,3.3-2.4,1.9-8.3-10.39,3.9-3.1c1.97-1.6,4.87-1.31,6.47.66,0,.01.02.02.03.04l.1-.11Zm-2.4,1.9c-.47-.71-1.43-.9-2.14-.43-.06.04-.11.08-.16.13l-1.6,1.2,2.1,2.7,1.6-1.2c.69-.56.79-1.58.23-2.27,0-.01-.02-.02-.03-.03v-.1Z"/><path d="m263.27,30.89l2.6-1.2,5.8,12.6-2.6,1.2-5.8-12.6Z"/><path d="m280.67,30.39l1.7,9.4-2.8.5-.2-.9c-.58.9-1.53,1.49-2.6,1.6-2.61.37-5.03-1.46-5.4-4.07,0,0,0-.02,0-.03-.62-2.51.92-5.04,3.43-5.66.06-.01.11-.03.17-.04,1.04-.24,2.13-.03,3,.6l-.2-.9,2.8-.5h.1Zm-2,5.2c-.14-1.2-1.22-2.06-2.42-1.93-.06,0-.12.02-.18.03-1.17.14-2,1.2-1.87,2.36.01.11.04.23.07.34.14,1.2,1.22,2.06,2.42,1.93.06,0,.12-.02.18-.03,1.17-.14,2-1.2,1.87-2.36-.01-.11-.04-.23-.07-.34Z"/><path d="m291.17,38.1c-.3,2.2-2.3,2.9-4.3,2.6-1.73-.04-3.25-1.16-3.8-2.8l2.6-1.1c.14.73.76,1.26,1.5,1.3.7,0,1,0,1.1-.5.1-1-4.6-1.1-4.2-4.3.3-2.1,2.1-2.9,4.1-2.6,1.51.13,2.82,1.1,3.4,2.5l-2.6,1c-.16-.54-.64-.94-1.2-1-.5,0-.8,0-.9.4-.1,1.1,4.6,1,4.1,4.4l.2.1Z"/><path d="m296.87,36.1l-1.2,3.1c-.3.8.3,1.1,1.5,1.5l-.9,2.4c-3.6-1-4.2-2.4-3.3-4.9l1.2-3.2-1.4-.5,1-2.6,1.4.5.6-1.7,3,.2-.9,2.5,1.8.7-1,2.6-1.8-.7v.1Z"/><path d="m302.17,35.49l2.4,1.5-4.9,8.2-2.4-1.5,4.9-8.2Zm1.1-2.3c.47-.8,1.5-1.07,2.3-.6s1.07,1.5.6,2.3c-.47.8-1.5,1.07-2.3.6-.8-.45-1.07-1.47-.62-2.26,0-.01.01-.02.02-.04h0Z"/><path d="m303.87,41.99c1.78-2.01,4.86-2.2,6.87-.41.08.07.15.14.23.21,1.3,1.19,1.84,2.99,1.4,4.7l-2.8-.7c.21-.73-.02-1.51-.6-2-.92-.82-2.33-.73-3.15.19-.76.86-.74,2.17.05,3.01.53.59,1.36.79,2.1.5l.8,2.7c-1.7.51-3.54.05-4.8-1.2-2.02-1.89-2.12-5.05-.23-7.07.01-.01.02-.02.03-.03l.1.1Z"/><path class="cls-38" d="m305.84,62.02v.08h-1.6q-.68,0-.68.69v30.31c.02.44-.13.87-.42,1.21-.19.21-.49.24-.68.45h-10.68c0-.09,0-.18,0-.27l-1.28-5.32c-.72-3.12-1.43-6.24-2.15-9.35-1.05-4.55-2.11-9.09-3.16-13.64-.92-4-1.84-7.97-2.75-11.92h15c.23-.04.46.02.63.18v6.2c.02.73.59,1.32,1.32,1.38h3.78c.28,0,.38-.09.38-.37v-1.83c.12,0,.17.11.24.18l2.05,2.02Z"/><path class="cls-30" d="m305.84,93.71c-.39.8-1.26,1.25-2.14,1.1h-1.23c.19-.2.49-.23.68-.45.29-.34.43-.77.41-1.21v-30.35q0-.69.69-.69h1.59v31.6Z"/><path class="cls-19" d="m262.21,54.17v-.9c-.16-.88.29-1.75,1.1-2.12h2c0,.08.04.15.11.19.59.39.91,1.09.81,1.79-.02.37-.02.75,0,1.12h-3.93l-.09-.08Z"/><path class="cls-31" d="m266.21,54.25v-1.12c.11-.7-.21-1.41-.81-1.79-.06-.04-.1-.11-.1-.19h2c.9.4,1.4,1.38,1.2,2.34v.76h-2.29Z"/><path class="cls-21" d="m291.78,94.8h-6.21c0-.06,0-.12,0-.18l-1.83-8-3.17-13.69c-1.07-4.62-2.14-9.24-3.2-13.87-.36-1.61-.73-3.22-1.1-4.83h6.23c.91,4,1.82,7.97,2.74,11.92,1.06,4.55,2.12,9.1,3.17,13.64.72,3.11,1.43,6.22,2.14,9.35.41,1.79.83,3.58,1.24,5.36,0,.1,0,.2-.01.3Z"/><path class="cls-21" d="m298.08,54.44c.14.02.26.1.34.21l5,5,.14.18v1.83c0,.28-.1.37-.37.37h-3.79c-.73-.06-1.29-.65-1.32-1.38v-6.21Z"/><path class="cls-38" d="m276.25,54.26c.37,1.61.74,3.22,1.1,4.83,1.06,4.63,2.13,9.26,3.2,13.87,1.07,4.61,2.13,9.18,3.17,13.69l1.83,8c0,.06,0,.12,0,.18h-14.05v-3c0-.52-.26-.81-.71-.82s-.75.29-.75.82v3h-9.21c-.96.02-1.74-.74-1.76-1.7,0-.01,0-.03,0-.04v-37.1c0-.95.76-1.72,1.71-1.73.02,0,.03,0,.05,0,.45.03.91.03,1.36,0h7.89v3c0,.51.27.81.71.82s.75-.29.75-.82v-3h4.71Zm-4.75,20.32v-1.55c0-.4-.33-.73-.73-.73s-.73.33-.73.73v3c-.05.38.23.73.61.78.05,0,.09,0,.14,0,.39,0,.71-.31.71-.71,0-.02,0-.05,0-.07v-1.45Zm-1.47,6.14v1.55c0,.4.33.73.73.73s.73-.33.73-.73v-3.06c-.03-.41-.35-.73-.76-.75-.38,0-.7.3-.7.68,0,.02,0,.04,0,.06v1.51h0Zm0-12.42v1.51c-.02.41.3.76.71.79.42-.05.74-.4.75-.82v-2.92c0-.54-.26-.83-.74-.82s-.71.29-.72.81,0,1,0,1.46h0Zm0-6.26v1.5c-.04.38.23.72.6.77.04,0,.08,0,.12,0,.39.02.72-.27.74-.65,0-.04,0-.08,0-.13v-2.92c.05-.38-.21-.72-.59-.78-.05,0-.09,0-.14,0-.46,0-.72.28-.72.8v1.41h-.01Zm1.47,25v-1.48c0-.51-.27-.8-.72-.8-.39-.02-.72.27-.74.65,0,.04,0,.08,0,.13v2.91c-.05.38.22.73.6.78.04,0,.08,0,.13,0,.46,0,.71-.29.72-.81s.01-.94.01-1.41v.02Z"/><path class="cls-30" d="m271.5,54.27v3c0,.54-.29.84-.75.83s-.7-.31-.71-.83v-3h1.46Z"/><path class="cls-19" d="m262.29,94.81h3.92v1.18c.1.83-.39,1.63-1.18,1.91h-1.22c-.85.04-1.57-.62-1.61-1.47,0-.05,0-.1,0-.14v-1.41l.09-.07Z"/><path class="cls-31" d="m265.03,97.9c.79-.28,1.28-1.08,1.18-1.91v-1.18h2.29c.04.6.02,1.21-.06,1.81-.12.78-.82,1.34-1.61,1.29h-1.8Z"/><path class="cls-30" d="m270.05,94.8v-3c0-.53.29-.83.75-.82s.71.31.71.82v3h-1.46Z"/><path class="cls-17" d="m262.29,54.25h-.1s0-.06,0-.09l.1.09Z"/><path class="cls-17" d="m262.29,94.81l-.08.08s0-.05,0-.08h.08Z"/><path class="cls-16" d="m271.5,74.58v1.45c0,.4-.33.73-.73.73s-.73-.33-.73-.73v-3c-.04-.38.23-.73.62-.78.03,0,.06,0,.09,0,.39-.02.73.27.75.67,0,.04,0,.08,0,.11v1.55Z"/><path class="cls-30" d="m270.05,80.72v-1.51c-.03-.38.26-.71.64-.74.02,0,.04,0,.06,0,.41.02.73.34.75.75v3.06c.05.4-.24.76-.64.81-.4.05-.76-.24-.81-.64,0-.06,0-.11,0-.17-.01-.53,0-1.04,0-1.56Z"/><path class="cls-30" d="m270.05,68.31v-1.46c0-.52.26-.8.71-.81s.74.28.74.83v2.91c0,.42-.32.77-.74.82-.41-.02-.73-.36-.71-.77,0,0,0-.01,0-.02-.01-.5,0-1.01,0-1.5Z"/><path class="cls-30" d="m270.05,62.04v-1.41c0-.52.26-.8.72-.8.38-.03.71.26.73.64,0,.05,0,.09,0,.14v2.92c.04.38-.23.73-.61.78-.04,0-.08,0-.13,0-.44,0-.7-.28-.72-.77s.01-1,.01-1.5Z"/><path class="cls-30" d="m271.5,87.02v1.41c0,.52-.27.8-.72.81-.39.02-.72-.28-.74-.66,0-.04,0-.08,0-.13v-2.91c-.05-.38.21-.73.59-.78.05,0,.1,0,.15,0,.46,0,.71.29.71.8v1.46Z"/><circle class="cls-3" cx="200" cy="197.87" r="45"/><path class="cls-13" d="m209.8,178.67h1.9c.77.04,1.4.63,1.5,1.4v42.5c.12.89-.37,1.75-1.2,2.1h-24.3c-.85-.32-1.36-1.2-1.2-2.1v-1.3h11.7c.3,0,.5,0,.4-.4v-.77c.28-.61.97-.91,1.6-.7.63.19.99.86.8,1.5,0,0,0,0,0,0,0,.3,0,.4.3.4h6.6c.94,0,1.71-.77,1.7-1.72,0-.03,0-.05,0-.08v-3c.35-.16.55-.52.5-.9v-31.1c0-.37-.19-.71-.5-.9v-4.9l.2-.03Z"/><path class="cls-24" d="m209.8,178.67v4.9h-19.2c-.9,0-1.1.2-1.1,1.1v30.8c0,.9.2,1.1,1.1,1.1h19.4v3c.05.94-.67,1.75-1.62,1.8-.03,0-.05,0-.08,0h-6.6c-.3,0-.4-.1-.3-.4.19-.63-.16-1.3-.8-1.5,0,0,0,0,0,0-.63-.21-1.32.09-1.6.7-.1.26-.1.54,0,.8.1.4,0,.4-.4.4h-11.7v-40.6c-.09-1.01.65-1.91,1.66-2,.11-.01.22-.01.34,0h21.2l-.3-.1Z"/><path d="m164.6,188.67c2.34.53,3.82,2.85,3.3,5.2l-.4,1.8,3.9.8-.6,2.8-12.3-2.7,1-4.7c.48-2.36,2.77-3.89,5.13-3.41.02,0,.04,0,.07.01l-.1.2Zm-.6,2.8c-.82-.21-1.66.28-1.88,1.1,0,.03-.02.06-.02.1l-.4,1.8,3.2.7.4-1.8c.17-.82-.36-1.61-1.18-1.78-.04,0-.08-.01-.12-.02v-.1Z"/><path d="m172.6,179.77l4.8,2.8-1.4,2.3-4.4-2.6c-.65-.49-1.57-.37-2.06.28-.05.07-.1.14-.14.22-.51.72-.33,1.72.39,2.23.1.07.2.13.31.17l4.2,2.5-1.4,2.3-10.9-6.4,1.4-2.3,3.8,2.3c-.3-.95-.16-1.98.4-2.8.9-1.6,2.8-2.2,4.9-1h.1Z"/><path d="m174.7,178.67c-1.74-1.88-1.63-4.83.25-6.57.05-.04.1-.09.15-.13,1.96-1.74,4.96-1.56,6.7.4,1.66,2.03,1.36,5.02-.67,6.68-1.92,1.56-4.71,1.4-6.43-.38h0Zm5.1-4.5c-.8-.83-2.12-.85-2.96-.05s-.85,2.12-.05,2.96c.78.81,2.07.86,2.91.1.85-.7.97-1.96.27-2.82-.05-.07-.11-.13-.17-.18Z"/><path d="m191.2,166.97l2.2,5.1-2.5,1.1-2-4.7c-.28-.8-1.15-1.23-1.96-.96-.05.02-.1.04-.14.06-.85.33-1.27,1.28-.94,2.12.04.1.08.19.14.28l1.9,4.5-2.5,1.1-3.6-8.3,2.5-1.1.3.8c.25-.95.97-1.7,1.9-2,1.7-.7,3.6-.1,4.6,2.1l.1-.1Z"/><path d="m198.7,169.27c.65-.03,1.26-.32,1.7-.8l2.3,1c-.8,1.29-2.18,2.12-3.7,2.2-2.5.44-4.89-1.22-5.33-3.72-.03-.19-.06-.38-.07-.58-.3-2.56,1.53-4.88,4.1-5.18.07,0,.14-.01.2-.02,2.54-.22,4.77,1.66,4.99,4.19,0,.04,0,.07,0,.11v1.1l-6.4.6c.4.9,1.3,1.1,2.3,1.1h-.1Zm1.4-3.4c-.28-.84-1.13-1.35-2-1.2-.93-.02-1.72.68-1.8,1.6l3.9-.4h-.1Z"/><path d="m213.7,164.37l1.6.5-.7,2.5-1.6-.5-1.8,6.1-2.6-.8,1.8-6.1-1.2-.3.7-2.5,1.2.3c.7-2.4,2.5-3.5,5.3-2.5l-.7,2.5c-.9-.4-1.7-.3-2,.7v.1Z"/><path d="m222.2,167.97l-1.4,2.7c-.83-.79-2.14-.76-2.93.06-.15.16-.28.34-.37.54l-1.9,3.6-2.4-1.2,4.1-8,2.4,1.2-.7,1.4c.86-.84,2.19-.96,3.2-.3Z"/><path d="m231.2,175.67l-6,6.7-2-1.8.6-.6c-1,.08-1.99-.28-2.7-1-1.78-1.93-1.66-4.95.28-6.73,1.7-1.57,4.29-1.68,6.12-.27.81.61,1.27,1.59,1.2,2.6l.6-.6,2,1.8-.1-.1Zm-5,1.5c.77-.91.66-2.27-.25-3.04-.91-.77-2.27-.66-3.04.25-.75.89-.67,2.21.19,3,.85.8,2.19.77,3-.08.04-.04.07-.08.1-.12Z"/><path d="m236.7,192.67l-5,2.3-1.1-2.4,4.8-2.2c.8-.4,1.2-1,.8-1.8-.36-.73-1.24-1.03-1.97-.67-.05.02-.09.05-.13.07l-4.6,2.1-1.1-2.4,4.8-2.2c.8-.4,1.2-1,.8-1.8-.36-.73-1.24-1.03-1.97-.67-.05.02-.09.05-.13.07l-4.6,2.1-1.1-2.4,8.2-3.8,1.1,2.4-.8.3c.92.18,1.67.83,2,1.7.45.81.45,1.79,0,2.6,1,.23,1.83.94,2.2,1.9.9,1.9.1,3.7-1.9,4.7l-.3.1Z"/><path d="m233.8,200.47c.01.65.3,1.27.8,1.7l-1.1,2.2c-1.31-.81-2.08-2.26-2-3.8-.1-3.1,1.8-5.1,4.5-5.2,2.57-.18,4.81,1.76,4.99,4.33,0,.09.01.18.01.27.14,2.51-1.78,4.66-4.29,4.79-.07,0-.14,0-.21,0h-1.1l-.3-6.4c-.83.4-1.32,1.28-1.2,2.2l-.1-.1Zm3.4,1.5c.87-.25,1.43-1.1,1.3-2,.03-.91-.61-1.7-1.5-1.87l.2,3.87Z"/><line class="cls-6" x1="199.75" y1="251.16" x2="200.25" y2="283.93"/><line class="cls-5" x1="199.75" y1="251.16" x2="200.09" y2="273.17"/><polygon class="cls-40" points="192.57 271.1 200.25 283.93 207.53 270.87 192.57 271.1"/><line class="cls-6" x1="112.18" y1="286.2" x2="160.82" y2="246.89"/><line class="cls-5" x1="120.55" y1="279.43" x2="160.82" y2="246.89"/><polygon class="cls-40" points="117.55 272.24 112.18 286.2 126.95 283.87 117.55 272.24"/><line class="cls-6" x1="287.82" y1="286.2" x2="239.18" y2="246.89"/><line class="cls-5" x1="279.45" y1="279.43" x2="239.18" y2="246.89"/><polygon class="cls-40" points="273.05 283.87 287.82 286.2 282.45 272.24 273.05 283.87"/><circle class="cls-4" cx="200" cy="337.21" r="45"/><path d="m165.6,323.31c1.9.6,3,2.6,2.4,4.6l-.5,1.5,3.2,1-.7,2.3-10-3.1,1.2-3.8c.6-2,2.6-3,4.5-2.5h-.1Zm-.7,2.3c-.7-.2-1.4.1-1.7.8l-.5,1.5,2.6.8.5-1.5c.2-.7-.2-1.4-.9-1.6Z"/><path d="m172.4,316.31l3.9,2.5-1.2,1.9-3.6-2.3c-.8-.5-1.5-.2-1.9.4-.4.7-.3,1.4.6,2l3.5,2.2-1.2,1.9-8.9-5.6,1.2-1.9,3.1,2c-.2-.6-.2-1.5.4-2.3.8-1.3,2.4-1.8,4.1-.7v-.1Z"/><path d="m174.1,315.61c-1.5-1.7-1.3-4.1.3-5.6,1.6-1.5,4.1-1.4,5.6.3s1.3,4.1-.3,5.6c-1.6,1.5-4.1,1.4-5.6-.3Zm4.2-3.8c-.7-.8-1.7-.8-2.5-.2-.7.7-.8,1.7,0,2.5.7.8,1.7.8,2.5.2.7-.7.8-1.7,0-2.5Z"/><path d="m187.4,305.41l2.1,4.1-2,1-1.9-3.8c-.4-.8-1.1-1-1.8-.6s-1,1.1-.5,2l1.9,3.7-2,1-3.4-6.7,2-1,.3.6c.1-.7.6-1.3,1.5-1.8,1.4-.7,3-.3,3.9,1.5h-.1Z"/><path d="m193.7,306.61c.6-.1,1.1-.5,1.3-.9l2,.6c-.5,1.1-1.5,1.9-2.9,2.2-2.5.5-4.4-.8-4.9-3s.8-4.2,3.1-4.7c2.1-.4,4.1.9,4.5,3.1v.9l-5.2,1.1c.4.7,1.2.8,2,.7h.1Zm.8-3c-.4-.8-1.1-1-1.8-.8-.8.2-1.3.7-1.4,1.5l3.2-.7Z"/><path d="m198.6,302.21l5.7.2v2.2l-5.8-.2v-2.2h.1Z"/><path d="m213.9,306.81c-.7,2.1-2.7,3.3-4.6,2.7-1-.3-1.6-.8-1.9-1.5l-.2.7-2.2-.7,3.1-10,2.2.7-1.1,3.5c.6-.4,1.4-.5,2.4-.2,1.9.6,2.9,2.7,2.3,4.8Zm-2.2-.7c.3-1.1-.2-2-1.2-2.3s-1.9.2-2.2,1.2.2,2,1.2,2.3,1.9-.2,2.2-1.2Z"/><path d="m215.1,307.31c1.2-1.9,3.6-2.4,5.5-1.2,1.9,1.2,2.4,3.6,1.2,5.5-1.2,1.9-3.6,2.4-5.5,1.2-1.9-1.2-2.4-3.6-1.2-5.5Zm4.8,3.1c.6-.9.3-1.9-.5-2.4s-1.8-.3-2.4.6-.3,1.9.5,2.4,1.8.3,2.4-.6Z"/><path d="m233.1,314.01l-7.9,6.9-1.5-1.7.5-.5c-.8,0-1.5-.3-2.2-1.1-1.3-1.5-1.1-3.8.6-5.3,1.7-1.5,4-1.4,5.3,0,.7.8.9,1.5.8,2.3l2.8-2.4,1.5,1.7.1.1Zm-6.6,2.8c.8-.7.9-1.8.2-2.5-.7-.8-1.7-.9-2.6-.1s-.9,1.8-.2,2.5c.7.8,1.7.9,2.6.1Z"/><path d="m235.6,324.91l-7.7.9c-2.5.3-4-.5-4.8-2.4l1.9-.9c.5.9,1,1.2,1.9,1.1l5.1-5.9,1.1,2.2-3.4,3.5,4.7-.8,1.1,2.2.1.1Z"/><path d="m233.6,334.31c-2.3.5-3.8-1-4.3-2.9-.4-1.5,0-3.1,1.4-4.1l1.6,1.8c-.6.4-.9.9-.7,1.8.2,1,.8,1.3,1.5,1.1.6-.1,1-.7.8-1.6v-.5c-.1,0,1-1.2,1-1.2l2.8,1.3-.9-3.7,2.2-.5,1.5,6.6-1.9.4-2.7-1.3c-.2,1.4-1,2.5-2.4,2.8h.1Z"/><path class="cls-8" d="m189.5,370.11c0-.2-.3-.1-.4-.2-2.9-.7-4.8-3.1-4.8-6.1v-37.4c0-2.7,1.3-4.7,3.7-5.9.6-.3,1.4-.5,2.1-.5h9.8v9.2h-3.7c-2.2-.2-4-2.1-4.1-4.3,0-1.1-.5-1.7-1.3-1.9-.5,0-.9,0-1.3.1-1.4.5-2.3,1.7-2.3,3.4v37.8c.2,1.7,1.7,2.9,3.3,2.8h9.3v2.9h-10.5l.2.1Z"/><path class="cls-23" d="m200,329.31v-9.2h10c2.7,0,5.3,2.6,5.6,5.2v38.5c0,3-1.9,5.5-4.8,6.2-.2,0-.4,0-.5.1h-10.4v-2.9h10.1c1.6-.4,2.6-1.7,2.6-3.4v-37.6c0-1.6-1.1-3-2.7-3.2-1.2-.2-2.2.5-2.3,1.7,0,2.6-2.1,4.5-4.7,4.6h-3.1.2Z"/><path class="cls-15" d="m190.7,367.21c-1.7,0-3.1-1.1-3.3-2.8v-37.8c0-1.7.8-2.9,2.3-3.4.4-.2.9-.2,1.3-.1.9.2,1.3.8,1.3,1.9,0,2.2,1.9,4.1,4.1,4.3h3.7v3.3h-7.8c-.9,0-1.5.6-1.5,1.5v14.1c0,.9.6,1.5,1.5,1.5h7.8v3.3c-.2,0-.5.1-.8,0h-7.1c-.2,0-.5,0-.7.1-.6.4-.9,1.1-.7,1.7s.8,1,1.5,1h7.8v3.3h-7.6c-1.1,0-1.7.5-1.7,1.7v6.2l-.1.2Z"/><path class="cls-18" d="m190.7,367.21v-6.2c0-1.1.5-1.7,1.7-1.7h7.6v7.8h-9.3v.1Z"/><path class="cls-12" d="m200,332.61v-3.3h3.1c2.6,0,4.6-1.9,4.7-4.6,0-1.2,1-1.9,2.3-1.7,1.6.3,2.7,1.7,2.7,3.2v37.5c0,1.7-1,3-2.6,3.4h-.7v-5.6c0-1.8-.4-2.3-2.3-2.3h-7.1v-3.3h1.6c.7,0,1.4-.6,1.4-1.3s-.5-1.4-1.2-1.5c-.6-.1-1.2,0-1.8,0h0v-3.3h7.6c1,0,1.7-.7,1.7-1.7v-13.6c0-4.5-.5-1.8-1.8-1.8h-7.5l-.1-.1Zm7.8,23.3c.8,0,1.5-.6,1.5-1.4s-.6-1.5-1.4-1.5h0c-.7,0-1.6.8-1.5,1.5,0,.6.4,1.4,1.4,1.4h0Z"/><path class="cls-26" d="m200,359.31h7.1c1.9,0,2.3.4,2.3,2.3v5.6h-9.4v-7.8h0v-.1Z"/><path class="cls-39" d="m200,332.61h7.5c1.2,0,1.8.6,1.8,1.8v13.6c0,1-.7,1.7-1.7,1.7h-7.6v-17h0v-.1Z"/><path class="cls-14" d="m200,332.71v17h-7.8c-.9,0-1.5-.6-1.5-1.5v-14.1c0-.9.6-1.5,1.5-1.5h7.8v.1Z"/><path class="cls-29" d="m200,356.01h-7.8c-.7,0-1.3-.4-1.5-1s.1-1.3.7-1.7c.2-.1.4-.1.7-.1h7.9v2.9h0v-.1Z"/><path class="cls-10" d="m200,355.91v-2.9h1.8c.7.2,1.2.8,1.2,1.5s-.7,1.3-1.4,1.3h-1.6v.1Z"/><path class="cls-36" d="m207.8,355.91c-1,0-1.4-.8-1.4-1.4,0-.7.8-1.5,1.5-1.5.8,0,1.5.7,1.4,1.5h0c0,.8-.6,1.4-1.5,1.4Z"/><path d="m203.4,345.41c1.7.5,3,1.4,4,2.7s1.5,2.8,1.5,4.6c0,2.8-.9,4.9-2.7,6.4s-4.1,2.3-6.8,2.3-4.1-.5-5.7-1.5-2.9-2.4-3.6-4.4l5.8-3.3c.5,1.8,1.7,2.7,3.6,2.7s1.7-.2,2.2-.7c.5-.4.8-1,.8-1.8s-.3-1.3-.8-1.8c-.5-.4-1.2-.6-2.2-.6h-1.4l-2.6-3.8,4.1-5.1h-8.7v-6.3h16.8v5.2l-4.3,5.3v.1Z"/><circle class="cls-4" cx="84.27" cy="337.21" r="45"/><path d="m50.87,321.61c1.9.7,2.8,2.8,2.1,4.7l-.6,1.5,3.1,1.2-.8,2.2-9.8-3.7,1.4-3.7c.7-1.9,2.8-2.9,4.7-2.2h-.1Zm-.8,2.2c-.7-.3-1.5,0-1.7.7l-.5,1.5,2.5.9.6-1.5c.3-.7-.1-1.4-.8-1.7l-.1.1Z"/><path d="m58.07,315.11l3.7,2.7-1.3,1.8-3.5-2.5c-.8-.5-1.4-.3-1.9.3-.5.7-.4,1.4.4,2l3.3,2.4-1.3,1.8-8.5-6.2,1.3-1.8,3,2.2c-.2-.7,0-1.5.5-2.3.9-1.2,2.5-1.6,4.2-.5l.1.1Z"/><path d="m59.87,314.41c-1.4-1.7-1.1-4.2.6-5.6s4.2-1.1,5.6.6,1.1,4.2-.6,5.6-4.2,1.1-5.6-.6Zm4.4-3.6c-.7-.8-1.7-.9-2.5-.3s-.9,1.6-.2,2.5c.7.8,1.7.9,2.5.3s.9-1.6.2-2.5Z"/><path d="m73.67,305.01l1.8,4.2-2.1.9-1.7-3.9c-.4-.9-1.1-1-1.7-.7-.8.3-1.1,1-.7,2l1.6,3.8-2.1.9-3-6.9,2.1-.9.3.6c.1-.7.7-1.3,1.6-1.7,1.4-.6,3-.1,3.8,1.7h.1Z"/><path d="m79.87,306.71c.6,0,1.1-.4,1.3-.8l1.9.8c-.6,1.1-1.6,1.8-3,2-2.5.4-4.4-1.1-4.7-3.3s1-4.2,3.4-4.5c2.2-.3,4,1.1,4.3,3.4v.9l-5.3.8c.4.7,1.1.9,1.9.8l.2-.1Zm1-2.9c-.4-.8-1.1-1-1.7-.9-.8.1-1.3.6-1.4,1.4l3.2-.5h-.1Z"/><path d="m85.07,302.51l5.7.6-.2,2.2-5.7-.6.2-2.1v-.1Z"/><path d="m100.17,308.01c-.8,2.1-2.9,3.2-4.7,2.5-.9-.3-1.5-.9-1.8-1.6l-.2.7-2.1-.8,3.6-9.8,2.1.8-1.3,3.5c.7-.4,1.5-.4,2.4,0,1.8.7,2.8,2.9,2,5v-.3Zm-2.1-.8c.4-1.1,0-2-1-2.3-1-.4-1.9,0-2.3,1.1-.4,1.1,0,2,1,2.3,1,.4,1.9,0,2.3-1.1Z"/><path d="m101.27,308.61c1.3-1.8,3.8-2.1,5.5-.8s2.2,3.7.9,5.5c-1.3,1.8-3.8,2.1-5.5.8-1.8-1.3-2.2-3.7-.9-5.5Zm4.6,3.4c.6-.9.4-1.9-.3-2.4-.8-.6-1.8-.5-2.4.4s-.4,1.9.3,2.4c.8.6,1.8.5,2.4-.4Z"/><path d="m118.87,316.41l-8.3,6.5-1.4-1.8.6-.4c-.8,0-1.5-.4-2.1-1.2-1.2-1.5-.8-3.9.9-5.3,1.8-1.4,4.1-1.2,5.3.4.6.8.8,1.6.7,2.3l2.9-2.3,1.4,1.8Zm-6.7,2.4c.9-.7,1-1.7.3-2.5-.6-.8-1.7-1-2.5-.3-.9.7-1,1.7-.3,2.5.6.8,1.7,1,2.5.3Z"/><path d="m120.77,327.41l-7.7.5c-2.5.2-3.9-.7-4.6-2.7l1.9-.8c.4,1,.9,1.3,1.9,1.2l5.4-5.5,1,2.3-3.6,3.3,4.8-.5.9,2.2h0Z"/><path d="m115.47,329.81l4.2,2.9c.7.5,1.4.9,2,.8.7-.1,1-.6.9-1.3s-.7-1.2-1.4-1.3l.8-2.2c1.6.4,2.6,1.7,2.8,3.1.3,1.9-.7,3.7-2.7,4-1.2.2-2.4-.3-3.5-1.1l-2-1.4.6,3.5-2.3.4-1.1-7.1,1.7-.3Z"/><path class="cls-34" d="m89.67,321.41h6.1c1.7,0,3.3,1.6,3.4,3.3v41.4c0,1.9-.9,3.2-2.5,3.8-.4.1-.8.2-1.1.2h-22.6c-2,0-3.7-1.7-3.7-3.7v-4h1.8v4c0,1.2.8,1.9,2,1.9h22.2c1.2,0,2-.8,2-2v-41c0-1.2-.8-2-1.9-2h-4.6c0-.8-.7-1.3-1.1-1.9Z"/><path class="cls-7" d="m89.67,321.41c.4.6,1,1.1,1.1,1.8h-17.3c-1.7,0-2.4.7-2.4,2.4v36.7h-1.8v-36.9c0-1.7.7-3,2.3-3.7.4-.2.8-.3,1.3-.3h16.9-.1Z"/><path class="cls-41" d="m71.07,362.41v-36.7c0-1.7.7-2.4,2.4-2.4h17.4v36c0,1.7-1.3,3.1-3,3.1h-16.8Zm13.1-33.5h3.6c1.1,0,2-.8,2-1.8,0-1.1-.8-1.9-2-1.9h-7.2c-1.1,0-2,.8-2,1.8,0,1.1.8,1.9,2,1.9h3.6Zm-4.2,22.9c.2,0,.5-.2.6-.3l9.2-9.2c.2-.2.4-.5.3-.8s-.2-.6-.6-.7c-.4-.1-.8,0-1.1.3-3,3-6.1,6.1-9.1,9.1l-.2.2c-.2.3-.2.6,0,.9.2.3.5.5.9.5h0Zm5.7-11.1c0-.4-.3-.7-.6-.9-.5-.2-.8,0-1.1.4l-5.5,5.5c-.5.5-.5,1.1,0,1.4s1,.4,1.4,0c1.9-1.8,3.7-3.7,5.6-5.5.2-.2.3-.4.4-.7h0l-.2-.2Z"/><path class="cls-28" d="m71.17,362.41h16.7c1.8,0,3-1.3,3-3.1v-36h4.5c1.2,0,1.9.8,1.9,2v41c0,1.2-.8,2-2,2h-22.2c-1.1,0-1.9-.7-2-1.9v-4h.1Zm13.1,3.1h-5.4c-.7,0-1.2.3-1.2.9s.4,1,1.1,1h10.8c.7,0,1.2-.4,1.1-.9s-.4-.9-1.2-.9h-5.4l.2-.1Z"/><path class="cls-27" d="m84.17,328.91h-3.6c-1.2,0-2-.8-2-1.9s.8-1.8,2-1.8h7.2c1.2,0,2,.8,2,1.9s-.9,1.8-2,1.8h-3.6Z"/><path class="cls-20" d="m79.97,351.81c-.4,0-.7-.2-.9-.5-.2-.3-.1-.7,0-.9l.2-.2c3-3,6.1-6.1,9.1-9.1.3-.3.7-.4,1.1-.3.4.1.5.4.6.7s0,.6-.3.8l-9.2,9.2c-.2.2-.4.3-.6.3Z"/><path class="cls-11" d="m84.17,365.41h5.4c.7,0,1.2.3,1.2.9s-.4.9-1.1.9h-10.8c-.7,0-1.2-.4-1.1-1s.4-.9,1.2-.9h5.4l-.2.1Z"/><path d="m74.67,359.51v-4.8l8.6-9.1c.9-.9,1.5-1.7,1.9-2.3s.6-1.2.6-1.7-.2-1.2-.6-1.6-1-.6-1.7-.6c-1.5,0-2.7.9-3.5,2.7l-5.7-3.2c.8-1.9,2.1-3.4,3.7-4.4,1.6-1,3.4-1.5,5.4-1.5s4.6.7,6.3,2.2c1.8,1.5,2.6,3.5,2.6,6s-.4,2.9-1.1,4.2c-.7,1.3-1.7,2.6-3.1,4l-3.5,3.7h8.1v6.4h-18.1.1Z"/><path class="cls-37" d="m341.66,333c.55,0,1.09.02,1.64.03.93,0,1.69.76,1.7,1.69.01.85,0,1.71,0,2.56,0,7.23,0,14.46,0,21.69,0,.47-.02.95-.16,1.4-.17.54-.83,1.02-1.39,1.02-6.12,0-12.25,0-18.37,0-.03,0-.06,0-.08-.01,0-1.66,0-3.33,0-4.99,1.28,0,2.55,0,3.83-.01.16,0,.35.04.35-.23.01-.63.06-1.27-.09-1.88-.4-1.63-.87-3.24-1.28-4.86-.11-.44-.24-.87-.39-1.3-.25-.67.21-1.01.61-1.38.66-.61.94-1.36,1.09-2.24.33-1.82-1.2-4.01-2.94-4.57-.06-.09-.13-.14-.24-.09-.09-.02-.18-.04-.27-.06-.04-.06-.09-.07-.15-.04-.17-.02-.34-.05-.51-.07,0-2.21,0-4.42,0-6.64,3.14,0,6.28-.01,9.42-.02.2,0,.39-.02.59-.02,1.12.03,2.25.05,3.37,0,1.1.06,2.2.05,3.3,0Z"/><path class="cls-22" d="m324.99,356.39c0,1.66,0,3.33,0,4.99-.63,0-1.26.01-1.89.01-5.34,0-10.68-.03-16.02.02-1.41.01-2.13-.75-2.13-2.13.05-8.17.03-16.34,0-24.52,0-.98.79-1.76,1.72-1.74.55.01,1.09-.01,1.64-.02,1.1.03,2.2.05,3.3-.01,1.12.06,2.24.04,3.36.01.18,0,.36.02.55.02,3.15,0,6.31,0,9.46.01,0,2.21,0,4.42,0,6.64-.35.17-.75.09-1.12.23-1.56.61-2.59,1.66-2.96,3.32-.07.04-.12.08-.03.15-.12,1.37.02,2.63,1.25,3.54.39.29.54.72.38,1.25-.1.33-.22.65-.3.99-.22.92-.46,1.83-.7,2.74-.18.67-.39,1.34-.55,2.02-.16.67-.12,1.35-.14,2.04-.01.34.08.46.44.45,1.25-.02,2.49,0,3.74,0Z"/><path class="cls-32" d="m311.62,332.99c-1.1.07-2.2.04-3.3.01,0-2.97-.02-5.94.02-8.91.02-1.38.21-2.74.61-4.07.48-1.61,1.16-3.11,2.08-4.5,1.15-1.74,2.58-3.23,4.29-4.44,1.12-.8,2.3-1.51,3.59-1.96,1.28-.45,2.58-.89,3.97-.99.78-.05,1.55-.17,2.33-.16,1.94.03,3.82.42,5.63,1.1,1.82.68,3.45,1.67,4.94,2.91,1.28,1.07,2.34,2.33,3.23,3.73.64.99,1.14,2.05,1.56,3.15.24.61.4,1.24.61,1.85.19.55.23,1.17.29,1.76.38,3.5.09,7.02.19,10.53-1.1.04-2.2.06-3.3,0,0-2.51-.02-5.02.01-7.53.02-1.44-.16-2.86-.52-4.25-.5-1.96-1.41-3.72-2.73-5.23-1.62-1.85-3.58-3.24-5.95-3.99-1.68-.53-3.39-.7-5.16-.6-1.64.1-3.18.48-4.64,1.16-2.43,1.13-4.34,2.87-5.76,5.15-1.22,1.97-1.89,4.13-1.97,6.42-.11,2.95-.02,5.92-.02,8.87Z"/><path class="cls-9" d="m334.99,333c0-2.66.02-5.33,0-7.99-.02-1.42-.21-2.82-.78-4.13-.45-1.04-1.05-1.99-1.8-2.86-1.11-1.29-2.5-2.19-4.07-2.76-1.45-.52-2.97-.7-4.53-.5-.95.12-1.88.34-2.74.71-2.39,1.04-4.15,2.76-5.24,5.15-.51,1.12-.71,2.29-.77,3.52-.14,2.95-.02,5.91-.07,8.86-1.12.02-2.24.05-3.36-.01,0-2.96-.09-5.92.02-8.87.08-2.28.75-4.45,1.97-6.42,1.42-2.28,3.33-4.02,5.76-5.15,1.46-.68,3-1.07,4.64-1.16,1.77-.1,3.48.06,5.16.6,2.37.75,4.33,2.14,5.95,3.99,1.32,1.51,2.23,3.27,2.73,5.23.35,1.39.54,2.8.52,4.25-.03,2.51-.01,5.02-.01,7.53-1.12.06-2.24.04-3.37,0Z"/><path class="cls-25" d="m324.99,356.39c-1.25,0-2.49-.02-3.74,0-.36,0-.45-.11-.44-.45.03-.68-.02-1.37.14-2.04.16-.68.37-1.34.55-2.02.24-.91.49-1.82.7-2.74.08-.34.2-.66.3-.99.16-.54,0-.97-.38-1.25-1.23-.91-1.37-2.17-1.25-3.54.07-.04.07-.09.03-.15.37-1.66,1.4-2.71,2.96-3.32.37-.14.77-.06,1.12-.23.17.02.34.05.51.07.03.09.08.14.15.04.09.02.18.04.27.06.05.12.15.09.24.09,1.74.56,3.27,2.74,2.94,4.57-.16.87-.43,1.63-1.09,2.24-.4.37-.86.71-.61,1.38.16.42.28.86.39,1.3.42,1.62.89,3.23,1.28,4.86.15.61.1,1.25.09,1.88,0,.27-.19.23-.35.23-1.28,0-2.55,0-3.83.01Z"/><path class="cls-9" d="m326.16,339.93c-.09,0-.19.03-.24-.09.11-.05.19,0,.24.09Z"/><path class="cls-9" d="m325.65,339.78c-.08.1-.12.05-.15-.04.06-.03.11-.02.15.04Z"/><path class="cls-32" d="m320.9,343.22c.04.06.04.11-.03.15-.09-.07-.03-.11.03-.15Z"/><circle class="cls-2" cx="325.13" cy="337.21" r="42.87"/></svg>