<?xml version="1.0" encoding="UTF-8"?><svg id="Layer_1" xmlns="http://www.w3.org/2000/svg" viewBox="0 0 400 400"><defs><style>.cls-1{fill:#fcfcfd;}.cls-2{fill:#deb6a3;}.cls-3{fill:#fff;}.cls-4{stroke:#0018c6;}.cls-4,.cls-5,.cls-6{stroke-width:4px;}.cls-4,.cls-5,.cls-6,.cls-7{stroke-miterlimit:10;}.cls-4,.cls-5,.cls-6,.cls-7,.cls-8{fill:none;}.cls-9{fill:#fcd303;}.cls-10{fill:#3f5c6c;}.cls-5{stroke:#c000e2;}.cls-11{fill:#54747f;}.cls-12{fill:#364a5f;}.cls-6{stroke:#00b51e;}.cls-13{fill:#b68c7b;}.cls-14{fill:#f7cf06;}.cls-7{stroke:#231f20;stroke-width:2px;}.cls-15{fill:#685e66;}.cls-16{fill:gray;}.cls-17{fill:#ddebf0;}.cls-18{fill:#dfc7be;}.cls-19{fill:#f0f6f6;}.cls-20{fill:#073856;}.cls-21{fill:#999;}.cls-22{fill:#5ecaed;}.cls-23{fill:#3b97d2;}.cls-24{fill:#5d707d;}.cls-25{fill:#bdc3c7;}.cls-26{fill:#db411d;}.cls-27{fill:#c59a85;}.cls-28{fill:#231f20;}.cls-29{fill:#666;}.cls-30{fill:#b72b06;}</style></defs><line class="cls-3" x1="199.75" y1="255.99" x2="200.25" y2="288.77"/><line class="cls-7" x1="199.75" y1="255.99" x2="200.09" y2="278"/><polygon class="cls-28" points="192.57 275.93 200.25 288.77 207.53 275.7 192.57 275.93"/><circle class="cls-6" cx="200" cy="342.94" r="45"/><path class="cls-26" d="m210.9,377.54c0,.8-4.9,1.4-11,1.4h0c-6.1,0-11-.6-11-1.4v-52.1c0-.8,4.9-1.4,11-1.4h0c6.1,0,11,.6,11,1.4v52.1Z"/><path class="cls-30" d="m188.9,326.74v.5c1.4-.4,5.3-.8,11-.8s9.6.4,11,.8v-.5c-2.7-.8-9.4-.8-11-.8s-8.2,0-11,.8Z"/><path class="cls-30" d="m210.9,376.14v-.5c-1.4.4-5.3.8-11,.8s-9.6-.4-11-.8v.5c2.7.8,9.4.8,11,.8s8.2,0,11-.8Z"/><path class="cls-30" d="m199.9,332.44c-3.2,0-6.2.1-8.4.3-1.2,0-2,.2-2.6.3v.6c1.5-.3,5.3-.6,11-.6s9.5.3,11,.6v-.6c-.6-.1-1.4-.2-2.6-.3-2.2-.2-5.2-.3-8.4-.3Z"/><path class="cls-30" d="m210.9,369.24c-1.5.3-5.3.6-11,.6s-9.5-.3-11-.6v.6c.6.1,1.4.2,2.6.3,2.2.2,5.2.3,8.4.3s6.2-.1,8.4-.3c1.2,0,2-.2,2.6-.3v-.6Z"/><rect class="cls-30" x="188.9" y="334.84" width="21.9" height="33.3"/><path class="cls-29" d="m216.7,353.24c-.3.6-.8.8-1.1.5l-2.8-2.6c-.3-.3-.2-.9,0-1.5l3.3-5.7c.3-.6.8-.8,1.1-.5l2.8,2.6c.3.3.2.9,0,1.5l-3.3,5.7Z"/><path class="cls-20" d="m220.9,334.94h1.1c1,0,1.5.8,1.1,2-.3.8-.7,1.6-1.1,2.4-2.6,4.6-5.1,9.3-7.7,13.9-2.4,4.2-4.8,8.3-7.3,12.3-1.2,2-2.7,3.5-4.7,4.2-2.4.8-4.5,0-6.5-1.6-1.2-1-2.1-2.4-2.9-3.9-2.8-4.7-5.5-9.4-8.2-14.2-1.2-2.1-2.3-4.2-3.5-6.3,0-.1-.1-.2-.2-.4-.7-1.6-.4-2.6,1.1-2.8,5.2-.8,10.4-1.5,15.6-2.3,4.6-.7,9.2-1.3,13.7-2,3.2-.5,6.5-.9,9.7-1.3h-.2Z"/><path class="cls-21" d="m218.5,337.34h.9c.8,0,1.3.7.9,1.7-.3.7-.6,1.4-1,2.1-2.2,4-4.4,8.1-6.7,12.1-2.1,3.6-4.2,7.2-6.4,10.7-1.1,1.7-2.4,3.1-4.1,3.7-2.1.7-3.9,0-5.7-1.4-1.1-.9-1.8-2.1-2.5-3.4-2.4-4.1-4.8-8.2-7.2-12.3-1-1.8-2-3.7-3-5.5,0-.1-.1-.2-.2-.3-.6-1.4-.3-2.2.9-2.4,4.5-.7,9-1.3,13.5-2,4-.6,8-1.2,12-1.7,2.8-.4,5.7-.7,8.5-1.1h0l.1-.2Z"/><path d="m180,318.64c2.6,2.6,2.3,5.9,0,8.3-2.6,2.6-6.5,2.6-8.9.2-2.4-2.4-2.4-6.3,0-8.8,1.6-1.6,3.8-2.2,5.6-1.7l-.7,2.6c-.9-.2-2.1.1-3,1.1-1.4,1.4-1.4,3.5,0,5,1.4,1.4,3.5,1.5,5.1-.2,1.1-1.1,1.4-2.3.9-3.4l-2.2,2.2-1.7-1.7,4.2-4.2.7.7v-.1Z"/><path d="m192.4,310.04l.6,8.9-2.2.9-3-3.7.4,4.7-2.2.9-5.7-6.9,2.5-1,2.8,3.8-.5-4.7,2.2-.9,2.9,3.7-.6-4.7,2.5-1h.3Z"/><path d="m203.9,309.44l.3,8.5h-2.5v-.7c-.5.7-1.4,1.1-2.5,1.1-2.2,0-4.1-1.8-4.2-4.3,0-2.5,1.7-4.6,3.9-4.6,1.1,0,2,.3,2.6.9v-.8h2.5l-.1-.1Zm-2.4,4.3c0-1.3-.9-2-2.1-2s-2,.9-1.9,2.2.9,2,2.1,2,2-.9,1.9-2.1v-.1Z"/><path d="m209.8,313.14l-.7,2.9c-.2.7.4.9,1.5,1.1l-.5,2.3c-3.3-.4-4.1-1.6-3.5-3.9l.7-2.9-1.3-.3.5-2.4,1.3.3.4-1.6,2.7-.2-.5,2.3,1.7.4-.5,2.4-1.7-.4h-.1Z"/><path d="m212.4,315.54c1.1-2.3,3.7-3.2,6-2.1,1.5.7,2.4,2.1,2.5,3.6l-2.6.2c0-.7-.4-1.2-1.1-1.6-1-.5-2.1-.1-2.6.9-.5,1.1-.1,2.1.9,2.6.7.3,1.4.3,1.9-.1l1.5,2.1c-1.2.9-2.9,1-4.4.3-2.3-1.1-3.2-3.7-2.1-6v.1Z"/><path d="m227.8,324.74l-3.5,3.9-1.9-1.7,3.2-3.6c.7-.8.5-1.6,0-2.1-.7-.6-1.5-.6-2.3.3l-3.1,3.5-1.9-1.7,7.9-8.9,1.9,1.7-2.8,3.1c.8-.2,1.7,0,2.5.8,1.3,1.1,1.6,3,0,4.7Z"/><line class="cls-8" x1="199.75" y1="114.31" x2="200.25" y2="147.09"/><line class="cls-7" x1="199.75" y1="114.31" x2="200.09" y2="136.33"/><polygon class="cls-28" points="192.57 134.25 200.25 147.09 207.53 134.03 192.57 134.25"/><line class="cls-8" x1="112.18" y1="110.05" x2="160.82" y2="149.36"/><line class="cls-7" x1="112.18" y1="110.05" x2="152.45" y2="142.59"/><polygon class="cls-28" points="146.05 147.03 160.82 149.36 155.45 135.4 146.05 147.03"/><line class="cls-8" x1="287.82" y1="110.05" x2="239.18" y2="149.36"/><line class="cls-7" x1="287.82" y1="110.05" x2="247.55" y2="142.59"/><polygon class="cls-28" points="244.55 135.4 239.18 149.36 253.95 147.03 244.55 135.4"/><circle class="cls-4" cx="317.29" cy="57.06" r="45"/><path class="cls-24" d="m314.09,104.26c.27-.2.63-.2.9,0h-.9Z"/><path class="cls-24" d="m316.39,104.26c.13-.17.37-.2.53-.07.02.02.05.04.07.07h-.6Z"/><path class="cls-15" d="m331.79,88.36h-32.2c-1.89-.35-3.63-1.26-5-2.6-1.48-1.45-2.31-3.43-2.3-5.5v-26.6c-.01-3.7,2.51-6.92,6.1-7.8l1.1-.3h32.2c3.72.49,6.66,3.39,7.2,7.1v27.4c0,3.7-2.9,7.3-6.2,7.9-.4,0-.7.3-1,.3l.1.1Zm-16.1-39h-12.2c-3.76-.11-6.89,2.86-7,6.62,0,.09,0,.19,0,.28v21.5c-.05,3.76,2.96,6.85,6.72,6.9.09,0,.19,0,.28,0h24.51c.61.03,1.22-.04,1.8-.2,3.1-.78,5.26-3.6,5.2-6.8v-20.9c.24-3.79-2.64-7.06-6.43-7.3-.29-.02-.58-.02-.87,0h-12v-.1Z"/><path class="cls-22" d="m339.09,70.36v-6.9h2c.55-.06,1.04.34,1.1.89,0,.07,0,.14,0,.21v4.7c.06.55-.34,1.04-.89,1.1-.07,0-.14,0-.21,0h-2Z"/><path d="m276.79,55.26l.8-2.6,8.3.6-7-4.6.7-2,8.4.4-7.1-4.4.9-2.6,10,6.6-.9,2.9-7.1-.3,5.9,3.9-.9,2.9-12-.5v-.3Z"/><path d="m292.09,32.76l6.3,5.3-1.6,1.9-.6-.5c.16.91-.14,1.85-.8,2.5-1.74,1.69-4.52,1.65-6.21-.09-1.44-1.49-1.65-3.78-.49-5.51.57-.7,1.41-1.12,2.31-1.15l-.6-.5,1.6-1.9.09-.05Zm1.6,4.5c-.86-.7-2.12-.57-2.81.29-.7.86-.57,2.12.29,2.81.86.7,2.12.57,2.81-.29,0,0,0,0,.01-.01.7-.75.66-1.93-.09-2.63-.07-.06-.14-.12-.21-.17Z"/><path d="m298.59,30.86l1.7,2.4c.4.6.9.3,1.8-.4l1.3,1.8c-2.4,2.1-3.8,1.9-5.1,0l-1.7-2.4-1.1.8-1.4-1.9,1.1-.8-.9-1.3,1.6-2,1.3,1.9,1.4-1,1.4,1.9-1.4,1Z"/><path d="m301.89,30.66c-.95-2.15.03-4.67,2.19-5.61.07-.03.14-.06.21-.09,1.39-.61,3-.42,4.2.5l-1.5,2c-.51-.41-1.21-.49-1.8-.2-.9.64-1.11,1.89-.47,2.79.45.63,1.21.94,1.97.81.65-.21,1.09-.82,1.1-1.5l2.5.3c-.32,2.36-2.5,4.02-4.86,3.7-1.55-.21-2.86-1.24-3.44-2.7h-.1Z"/><path d="m318.49,25.46l.5,5-2.5.3-.5-4.7c0-.73-.6-1.33-1.33-1.33-.09,0-.18,0-.27.03-.9,0-1.5.7-1.3,1.9l.5,4.5-2.5.3-1.2-11.5,2.5-.3.4,4c.51-.73,1.31-1.21,2.2-1.3,1.7-.2,3.2.8,3.4,3.1h.1Z"/><path d="m328.79,23.96l1.5.4-.6,2.3-1.5-.4-1.5,5.7-2.4-.6,1.5-5.7-1.1-.3.6-2.3,1.1.3c.6-2.2,2.1-3.3,4.8-2.4l-.6,2.3c-.9-.3-1.5-.2-1.8.7Z"/><path d="m336.59,26.96l-1.2,2.5c-.79-.69-1.99-.61-2.68.19-.13.15-.24.33-.32.51l-1.6,3.4-2.2-1,3.4-7.5,2.2,1-.6,1.3c.75-.81,1.96-.98,2.9-.4h.1Z"/><path d="m345.19,33.46l-5.2,6.4-1.9-1.6.5-.6c-.91.16-1.85-.14-2.5-.8-1.71-1.73-1.69-4.51.04-6.22,1.46-1.45,3.73-1.69,5.46-.58.78.52,1.26,1.37,1.3,2.3l.5-.6,1.9,1.6-.1.1Zm-4.5,1.7c.7-.75.66-1.93-.09-2.63-.07-.06-.14-.12-.21-.17-.86-.69-2.11-.55-2.8.3-.7.75-.66,1.93.09,2.63.07.06.14.12.21.17.84.7,2.09.59,2.8-.25v-.05Z"/><path d="m351.29,48.56l-4.4,2.5-1.2-2.2,4.2-2.4c.61-.22.92-.9.69-1.5-.03-.07-.06-.14-.09-.2-.4-.7-1.1-.8-2-.4l-4,2.3-1.2-2.2,4.2-2.4c.61-.22.92-.9.69-1.5-.03-.07-.06-.14-.09-.2-.4-.7-1.1-.8-2-.4l-4,2.3-1.2-2.2,7.2-4.1,1.2,2.2-.7.4c.86.11,1.61.63,2,1.4.48.72.52,1.64.1,2.4.92.08,1.73.65,2.1,1.5.87,1.47.39,3.36-1.08,4.23-.1.06-.21.12-.32.17l-.1.3Z"/><path d="m349.39,55.86c0,.63.35,1.2.9,1.5l-.8,2.1c-1.24-.66-2.07-1.9-2.2-3.3-.51-2.33.96-4.63,3.3-5.14.1-.02.2-.04.3-.06,2.35-.33,4.52,1.3,4.85,3.65.33,2.35-1.3,4.52-3.65,4.85h-1l-.9-5.8c-.74.42-1.1,1.28-.9,2.1l.1.1Zm3.2,1.1c.74-.31,1.16-1.11,1-1.9-.06-.86-.74-1.54-1.6-1.6l.5,3.5h.1Z"/><circle class="cls-4" cx="200" cy="58.16" r="45"/><path class="cls-2" d="m191.7,92.86c-.36-.13-.72-.23-1.1-.3-2.91-.73-5.5-2.38-7.4-4.7-1.76-2.01-3.15-4.31-4.1-6.8v-.3h12.4c1.48.09,2.97-.08,4.4-.5.65,1.4,1.42,2.74,2.3,4,.46.72,1.03,1.37,1.7,1.9,0,.4.4.5.6.7,1.61,1.64,3.8,2.57,6.1,2.6.87.02,1.58.73,1.6,1.6-.02.65-.36,1.24-.9,1.6h.5v.1h-15.9l-.2.1Z"/><path class="cls-27" d="m206.8,40.46c2.04.03,4.02.66,5.7,1.8,2.51,1.59,4.57,3.79,6,6.4,1.94,3.3,3.27,6.92,3.9,10.7.55,3.27.75,6.59.6,9.9.06,1.02-.07,2.04-.4,3-.3,0-.4.2-.6.4-.72.8-1.56,1.48-2.5,2-1.9,1-4.07,1.39-6.2,1.1-1.45-.16-2.85-.64-4.1-1.4-1.3-.79-2.39-1.87-3.2-3.15,0-.9.2-1.9.2-2.8.03-1.84-.04-3.67-.2-5.5-.27-2.69-.84-5.34-1.7-7.9-.91-2.92-2.49-5.59-4.6-7.8,0-.4.5-.5.7-.8,1.61-1.57,3.75-2.46,6-2.5.6,0,1.16-.35,1.4-.9.48-.84.19-1.92-.66-2.4-.11-.06-.22-.11-.34-.15Zm7.8,23.2c-1.99,0-3.6,1.61-3.6,3.6,0,1.99,1.61,3.6,3.6,3.6,1.99,0,3.6-1.61,3.6-3.6,0-1.99-1.61-3.6-3.6-3.6Z"/><path class="cls-13" d="m206,71.06c.83,1.28,1.92,2.37,3.2,3.2,1.25.76,2.65,1.24,4.1,1.4,2.13.25,4.29-.13,6.2-1.1.96-.5,1.81-1.18,2.5-2,.2-.2.3-.4.6-.4-.38,3.46-1.32,6.84-2.8,10-1.19,2.78-2.97,5.27-5.2,7.3-1.92,1.82-4.37,2.98-7,3.3h-.5c.54-.4.87-1.03.9-1.7.01-.87-.69-1.59-1.56-1.6-.01,0-.03,0-.04,0-2.3-.03-4.49-.96-6.1-2.6-.2-.2-.6-.3-.6-.7l.6-.6c1.77-2.13,3.13-4.57,4-7.2.77-2.42,1.34-4.89,1.7-7.4v.1Z"/><path class="cls-2" d="m195.9,52.76c-1.35-.47-2.78-.64-4.2-.5h-12.6c.98-2.37,2.3-4.59,3.9-6.6,1.23-1.49,2.72-2.75,4.4-3.7,1.46-.85,3.11-1.34,4.8-1.4h14.5c.9.26,1.43,1.2,1.17,2.1-.04.14-.1.28-.17.4-.31.5-.82.83-1.4.9-2.24.06-4.38.95-6,2.5-.3.2-.7.3-.7.8-.4.2-.7.7-1,1-1.12,1.41-2.06,2.96-2.8,4.6l.1-.1Z"/><path class="cls-18" d="m214.6,63.66c1.99,0,3.6,1.61,3.6,3.6,0,1.99-1.61,3.6-3.6,3.6-1.99,0-3.6-1.61-3.6-3.6,0-1.99,1.61-3.6,3.6-3.6Z"/><path d="m161.3,51.21l.9-2.4,7.6,1-6.1-4.6.7-1.8,7.6.8-6.2-4.4.9-2.4,8.8,6.6-1,2.6-6.4-.7,5.2,3.9-1,2.6-10.9-1.2h-.1Z"/><path d="m176.3,31.36l5.6,5.1-1.5,1.7-.5-.5c.01.84-.27,1.65-.8,2.3-1.48,1.49-3.88,1.5-5.37.03,0,0-.02-.02-.03-.03-1.62-1.29-1.9-3.65-.61-5.27.04-.04.07-.09.11-.13.5-.7,1.34-1.08,2.2-1l-.5-.5,1.5-1.7h-.1Zm1.3,4.2c-.67-.72-1.8-.76-2.52-.08-.03.03-.06.06-.08.08-.67.67-.67,1.76,0,2.43.06.06.13.12.2.17.67.72,1.8.76,2.52.08.03-.03.06-.06.08-.08.67-.67.67-1.76,0-2.43-.06-.06-.13-.12-.2-.17Z"/><path d="m182.2,29.86l1.5,2.2c.4.5.9.3,1.7-.3l1.1,1.7c-2.3,1.9-3.5,1.6-4.7-.1l-1.5-2.2-1,.7-1.2-1.8,1-.7-.8-1.2,1.5-1.8,1.2,1.85,1.3-.9,1.2,1.8-1.3.9v-.15Z"/><path d="m185.3,29.76c-.83-2.01.14-4.31,2.15-5.14.05-.02.1-.04.15-.06,1.3-.51,2.77-.32,3.9.5l-1.4,1.8c-.47-.42-1.15-.5-1.7-.2-.87.34-1.29,1.33-.95,2.19.01.04.03.07.05.11.24.84,1.12,1.33,1.97,1.09.08-.02.16-.05.23-.09.58-.19,1.01-.69,1.1-1.3l2.3.3c-.24,1.4-1.19,2.57-2.5,3.1-2.01.84-4.32-.1-5.16-2.1-.01-.03-.03-.07-.04-.1l-.1-.1Z"/><path d="m200.5,25.21l.5,4.6-2.3.2-.5-4.3c0-.68-.57-1.23-1.25-1.23-.08,0-.17.01-.25.03-.8,0-1.3.6-1.2,1.7l.4,4.1-2.3.2-1.1-10.5,2.3-.2.4,3.7c.47-.66,1.19-1.1,2-1.2,1.5-.2,2.9.8,3.2,2.8l.1.1Z"/><path d="m214.3,28.96c-.48,1.99-2.47,3.21-4.46,2.74-.05-.01-.09-.02-.14-.04-.85-.21-1.55-.8-1.9-1.6l-.2.7-2.2-.7,3.2-10.1,2.2.7-1.1,3.6c.73-.42,1.61-.5,2.4-.2,1.98.73,3,2.91,2.3,4.9h-.1Zm-2.2-.7c.3-.96-.24-1.99-1.2-2.29s-1.99.24-2.29,1.2c-.3.96.23,1.98,1.19,2.29.91.33,1.92-.14,2.25-1.05.02-.05.03-.1.05-.15Z"/><path d="m224.3,31.06l-4.3,6.2-1.9-1.3.4-.6c-.83.16-1.7-.02-2.4-.5-1.65-1.25-1.98-3.61-.72-5.27,0-.01.02-.02.02-.03,1.01-1.75,3.24-2.34,4.99-1.33.07.04.14.09.21.13.69.46,1.16,1.18,1.3,2l.4-.6,1.9,1.3h.1Zm-4,1.8c.58-.78.43-1.88-.35-2.46-.02-.01-.03-.02-.05-.04-.76-.57-1.84-.4-2.41.36-.03.05-.07.09-.09.14-.58.78-.43,1.88.35,2.46.02.01.03.02.05.04.75.57,1.81.42,2.38-.32.04-.06.08-.12.12-.18Z"/><path d="m228.8,40.66l-3.6,2.9-1.4-1.8,3.4-2.7c.61-.43.75-1.26.32-1.87,0-.01-.02-.02-.02-.03-.45-.6-1.3-.73-1.9-.28-.07.05-.14.11-.2.18l-3.2,2.6-1.4-1.8,5.9-4.7,1.4,1.8-.6.4c.83.03,1.6.43,2.1,1.1,1,1.2.9,2.9-.7,4.2h-.1Z"/><path d="m238.3,47.56l-9.8,4-.9-2.1.7-.3c-.79-.29-1.41-.91-1.7-1.7-.57-2.14.71-4.33,2.84-4.89,1.8-.48,3.69.35,4.56,1.99.35.76.35,1.64,0,2.4l3.5-1.4.9,2.1-.1-.1Zm-7.2.5c.9-.28,1.39-1.24,1.11-2.13-.03-.09-.07-.18-.11-.27-.31-.91-1.29-1.39-2.19-1.09-.07.02-.14.05-.21.09-.92.34-1.39,1.35-1.05,2.27.02.04.03.09.05.13.31.91,1.29,1.39,2.19,1.09.07-.02.14-.05.21-.09Z"/><circle class="cls-4" cx="82.71" cy="58.16" r="45"/><path class="cls-19" d="m90,45.66h5.9c.2.4.6.3.9.4,2.75,1,4.61,3.58,4.7,6.5v33.65c-.04,2.47-1.42,4.73-3.6,5.9-.72.31-1.45.58-2.2.8h-30c-3.43.02-6.38-2.43-7-5.8v-34.6c0-2.07,1-4.01,2.7-5.2,1.3-1.04,2.94-1.57,4.6-1.5h24.1l-.1-.15Zm-7.89,41.55h12.2c.5.02,1-.02,1.5-.1,2.56-.55,4.34-2.88,4.2-5.5v-24.7c.03-.51-.04-1.02-.2-1.5-.58-2.49-2.85-4.21-5.4-4.1h-24.6c-3.5,0-5.8,2.2-5.8,5.7v24.4c-.1,3.1,2.33,5.7,5.43,5.8.12,0,.24,0,.37,0,4.1-.1,8.1,0,12.2,0h.1Z"/><path class="cls-17" d="m95.71,92.86c.75-.22,1.48-.49,2.2-.8,2.17-1.18,3.54-3.43,3.6-5.9v-33.6c-.08-2.93-1.95-5.51-4.7-6.5-.3-.1-.7,0-.9-.4,1.78-.13,3.57.04,5.3.5,2.65.98,4.43,3.48,4.5,6.3v33.6c-.06,3.25-2.4,6.01-5.6,6.6-1.46.13-2.93.17-4.4.1v.1Z"/><path class="cls-14" d="m90.71,83.76h-3.2c-.8,0-1.3-.4-1.3-1.1s.5-1.1,1.3-1.1h6.49c.8,0,1.3.4,1.3,1.1s-.5,1.1-1.3,1.1h-3.29Z"/><path class="cls-9" d="m73.41,56.96h-3.2c-.8,0-1.2-.4-1.2-1s.5-1,1.2-1h6.6c.8,0,1.2.4,1.2,1.1s-.4,1-1.2,1h-3.4v-.1Z"/><path class="cls-16" d="m99.91,55.46c-.58-2.49-2.85-4.21-5.4-4.1h-24.6c-3.5,0-5.8,2.2-5.8,5.7v24.4c-.1,3.1,2.33,5.7,5.43,5.8.12,0,.24,0,.37,0,4.1-.1,8.1,0,12.2,0h12.2c.5.02,1-.02,1.5-.1,2.56-.55,4.34-2.88,4.2-5.5v-24.7c.03-.51-.04-1.02-.2-1.5h.1Zm-8.9,9.8h0c.42-.49.36-1.23-.14-1.65-.02-.02-.04-.03-.06-.05-1.38-1.27-3.02-2.23-4.8-2.8,1.78.57,3.42,1.53,4.8,2.8.6.65.7,1.2.19,1.7h.01Zm-.3.2-10.1-5.2c-.44.02-.87.09-1.3.2-2.25.49-4.3,1.64-5.9,3.3h0c1.65-1.59,3.68-2.73,5.9-3.3.42-.12.86-.18,1.3-.2Zm-4.8,4.2c-.08,0-.15.04-.2.1.08,0,.15-.04.2-.1Zm-6.9-8.5c0-.6.5-1,1.2-1h6.6c.8,0,1.2.4,1.2,1.1s-.4,1-1.2,1h-6.6c-.8,0-1.2-.4-1.2-1v-.1Zm7,11.7h0c0,.08.04.15.1.2,0-.08-.04-.15-.1-.2Zm.8.7c-.19,0-.36-.07-.5-.2.14.13.31.2.5.2.42-.02.81-.2,1.1-.5,1.1-1,2.51-1.6,4-1.7,1.7-.07,3.35.55,4.6,1.7.6.6,1.3.6,1.7,0,.32-.43.27-1.02-.1-1.4.4.5.5.9.1,1.4s-1.1.6-1.7,0c-1.22-1.2-2.89-1.81-4.6-1.7-1.51-.01-2.96.6-4,1.7-.27.32-.68.5-1.1.5Zm1.7,3.2c.4.2.8,0,1.2-.3.67-.58,1.51-.93,2.4-1-.9.02-1.75.38-2.4,1-.31.33-.78.44-1.2.3h0Zm3.6,5.9h0c1.1,0,2-.89,2-2,0-.03,0-.07,0-.1,0-1.1-.9-2-2-2,1.1,0,2,.9,2,2,.06,1.1-.79,2.04-1.9,2.1-.04,0-.08,0-.11,0h0Zm3.2-5.8c.27,0,.52-.1.7-.3.38-.53.3-1.27-.2-1.7-.98-.91-2.27-1.41-3.6-1.4h0c1.33,0,2.62.49,3.6,1.4.51.32.67,1,.34,1.52-.04.07-.09.13-.14.18-.2.2-.5.4-.7.3h0Zm8.7,12.2h-6.5c-.8,0-1.3-.4-1.3-1.1.03-.65.59-1.14,1.23-1.11.02,0,.05,0,.07,0h6.5c.8,0,1.3.4,1.3,1.1-.03.65-.59,1.14-1.23,1.11-.02,0-.05,0-.07,0h0Z"/><path d="m41.61,57.21l.8-2.6,8.1.3-6.9-4.3.6-2h8.1c0,.1-7-3.9-7-3.9l.7-2.6,9.9,6.1-.8,2.8h-6.9l5.8,3.5-.8,2.8-11.6-.2v.1Z"/><path d="m55.51,34.96l6.4,4.8-1.4,1.9-.6-.5c.19.9-.07,1.83-.7,2.5-1.59,1.74-4.29,1.86-6.03.27-1.51-1.38-1.83-3.63-.77-5.37.46-.78,1.29-1.28,2.2-1.3l-.6-.5,1.4-1.9.1.1Zm1.7,4.3c-.81-.66-2.01-.54-2.67.27,0,.01-.02.02-.03.03-.65.78-.53,1.94.25,2.59.05.04.1.08.15.11.81.66,2.01.54,2.67-.27,0-.01.02-.02.03-.03.65-.78.53-1.94-.25-2.59-.05-.04-.1-.08-.15-.11Z"/><path d="m61.61,32.76l1.8,2.2c.4.5.9.2,1.7-.5l1.4,1.7c-2.2,2.2-3.5,2.1-4.9.3l-1.8-2.2-1,.8-1.5-1.8,1-.8-1-1.2,1.4-2.1,1.4,1.7,1.3-1,1.5,1.8-1.3,1v.1Z"/><path d="m64.81,32.36c-1.08-2.02-.31-4.53,1.7-5.6.06-.03.13-.07.2-.1,1.33-.69,2.94-.62,4.2.2l-1.3,2c-.53-.4-1.27-.4-1.8,0-.9.44-1.28,1.53-.83,2.44.01.02.02.04.03.06.48.91,1.6,1.26,2.51.78.56-.29.93-.85.99-1.48h2.4c-.03,1.54-.92,2.93-2.3,3.6-2.01,1.1-4.53.35-5.63-1.66-.02-.05-.05-.09-.07-.14l-.1-.1Z"/><path d="m80.41,25.96l1,4.8-2.4.5-.9-4.5c-.05-.7-.66-1.22-1.36-1.17-.12,0-.23.03-.34.07-.75.08-1.29.75-1.21,1.5.01.14.05.27.11.4l.9,4.3-2.4.5-2.3-11,2.4-.5.8,3.9c.39-.77,1.14-1.3,2-1.4,1.62-.34,3.21.7,3.55,2.32.02.09.03.19.05.28h.1Z"/><path d="m96.31,21.46l-2.3,11-2.3-.5.2-.7c-.72.53-1.63.71-2.5.5-2.23-.65-3.51-2.98-2.86-5.2.58-1.99,2.51-3.26,4.56-3,.87.14,1.64.65,2.1,1.4l.8-3.9,2.3.5v-.1Zm-3.8,6.5c.27-.98-.31-1.99-1.3-2.26-.07-.02-.14-.03-.2-.04-.99-.26-2.01.34-2.27,1.34-.01.05-.03.11-.03.16-.27.98.31,1.99,1.3,2.26.07.02.14.03.2.04.99.26,2.01-.34,2.27-1.34.01-.05.03-.11.03-.16Z"/><path d="m98.31,25.76l2.2,1-3.3,7.3-2.2-1,3.3-7.3Zm.7-2.1c.33-.72,1.18-1.03,1.9-.7.72.33,1.03,1.18.7,1.9-.33.72-1.18,1.03-1.9.7-.71-.34-1.02-1.18-.71-1.9h0Z"/><path d="m104.81,36.06c-1,1.5-2.8,1.3-4.2.3-1.24-.7-1.95-2.08-1.8-3.5l2.4.2c-.21.58.05,1.22.6,1.5.5.3.8.3,1,0,.5-.7-3-2.6-1.5-4.8,1-1.4,2.7-1.3,4.1-.4,1.09.68,1.71,1.92,1.6,3.2l-2.3-.2c0-.5,0-.9-.5-1.2-.23-.2-.57-.2-.8,0-.5.8,3.1,2.5,1.4,4.9Z"/><path d="m112.61,42.26c-1.58,1.55-4.11,1.52-5.66-.06-.01-.01-.03-.03-.04-.04-.61-.64-.91-1.52-.8-2.4l-3,2.6-1.6-1.8,8.5-7.3,1.6,1.8-.6.5c.91.04,1.75.48,2.3,1.2,1.38,1.76,1.08,4.3-.68,5.69,0,0-.01,0-.02.01v-.2Zm-1.6-1.8c.79-.56.98-1.66.41-2.45-.06-.09-.13-.17-.21-.25-.68-.8-1.88-.9-2.68-.22,0,0-.01.01-.02.02-.79.56-.98,1.66-.41,2.45.06.09.13.17.21.25.68.8,1.88.89,2.68.21,0,0,0,0,.01,0h.01Z"/><path d="m120,40.06l1.2,2.1-10.2,5.6-1.2-2.1,10.2-5.6Z"/><path d="m121.61,54.36l-7.7,2.3-.7-2.3.7-.2c-.81-.39-1.39-1.13-1.6-2-.52-2.18.82-4.37,3-4.9,2.09-.72,4.37.38,5.09,2.47,0,.01,0,.02.01.03.32.87.21,1.83-.3,2.6l.7-.2.7,2.3.1-.1Zm-4.5-1.2c.96-.2,1.59-1.14,1.39-2.1-.02-.1-.05-.2-.09-.3-.24-.99-1.24-1.59-2.22-1.35-.06.01-.12.03-.18.05-.96.2-1.59,1.14-1.39,2.1.02.1.05.2.09.3.21.99,1.19,1.62,2.19,1.41.07-.02.14-.04.21-.06v-.05Z"/><path d="m122.11,65.26l-7.8-2.7c-2.5-.9-3.6-2.3-3.5-4.5h2.19c-.1.89.45,1.73,1.3,2l7.6-3.2v2.6l-4.9,1.8,4.9,1.5v2.6l.21-.1Z"/><circle class="cls-5" cx="200" cy="204.15" r="45"/><path d="m158.5,202.15l.6-2.5h7.6c0-.1-6.7-3.7-6.7-3.7l.4-1.9,7.6-.3-6.8-3.4.6-2.5,9.6,5.2-.6,2.7-6.4.3,5.7,3.1-.6,2.7-10.9.5-.1-.2Z"/><path d="m170.2,180.55l6.3,4.1-1.2,1.9-.6-.4c.2.82.05,1.69-.4,2.4-1.37,1.73-3.89,2.03-5.62.66-1.5-1.18-1.95-3.26-1.08-4.96.42-.75,1.15-1.26,2-1.4l-.6-.4,1.2-1.9Zm1.9,3.9c-.75-.57-1.81-.42-2.38.32-.04.06-.08.12-.12.18-.55.73-.41,1.77.32,2.33.09.07.18.13.28.17.74.57,1.8.43,2.37-.31.05-.06.09-.13.13-.19.55-.73.41-1.77-.32-2.33-.09-.07-.18-.13-.28-.17h0Z"/><path d="m175.6,178.05l1.9,1.9c.5.5.9.1,1.6-.6l1.4,1.5c-1.9,2.3-3.1,2.2-4.6.7l-1.9-1.9-.9.8-1.5-1.5.9-.8-1-1,1.1-2.1,1.5,1.5,1.1-1.1,1.5,1.5-1.1,1.1Z"/><path d="m178.5,177.45c-1.19-1.82-.69-4.26,1.13-5.46.02-.01.05-.03.07-.04,1.17-.76,2.66-.84,3.9-.2l-1,2c-.78-.48-1.8-.22-2.28.56-.35.57-.32,1.3.08,1.84.42.78,1.39,1.07,2.17.65.08-.04.16-.1.23-.15.52-.32.83-.89.8-1.5h2.3c-.01,1.33-.69,2.57-1.8,3.3-1.8,1.2-4.24.71-5.43-1.1-.02-.03-.04-.07-.07-.1l-.1.2Z"/><path d="m192.4,169.85l1.4,4.4-2.1.7-1.3-4.1c-.22-.71-.98-1.1-1.69-.88s-1.1.98-.88,1.69c.02.06.04.13.07.19l1.3,3.9-2.1.7-3.3-10,2.1-.7,1.2,3.5c.29-.78.98-1.35,1.8-1.5,1.41-.51,2.97.23,3.48,1.64.05.15.09.3.12.46h-.1Z"/><path d="m194.5,168.55l5.7-.4.2,2.2-5.7.4-.2-2.2Z"/><path d="m205.7,172.55c.52.13,1.07.02,1.5-.3l1.6,1.3c-.93.89-2.24,1.26-3.5,1-2.17-.23-3.74-2.18-3.51-4.35.23-2.17,2.18-3.74,4.35-3.51.12.01.24.03.36.05,2.07.33,3.48,2.27,3.15,4.34-.01.09-.03.18-.05.26-.02.31-.09.61-.2.9l-5.2-.9c.15.76.82,1.31,1.6,1.3l-.1-.1Zm1.8-2.5c-.02-.77-.63-1.38-1.4-1.4-.74-.16-1.48.22-1.8.9l3.2.5Z"/><path d="m213.4,176.85l-.5-2.4-2.1,1.3-2.4-1,4-2.4-.9-4.4,2.4,1,.5,2.2,1.9-1.2,2.4,1-3.9,2.3.9,4.6-2.4-1h.1Z"/><path d="m221.3,175.55l-1.5,2.2c-.4.5,0,.9.9,1.4l-1.2,1.7c-2.6-1.5-2.7-2.7-1.5-4.4l1.5-2.2-1-.7,1.3-1.8,1,.7.8-1.2,2.2.8-1.2,1.7,1.3.9-1.3,1.8-1.3-.9Z"/><path d="m223.9,182.65c.33.44.85.7,1.4.7l.4,2c-1.27.13-2.51-.4-3.3-1.4-1.55-1.49-1.6-3.95-.11-5.5.07-.07.14-.14.21-.2,1.53-1.52,4-1.51,5.52.02,1.52,1.53,1.51,4-.02,5.52-.09.09-.19.18-.3.27-.21.2-.44.37-.7.5l-3.6-3.9c-.32.68-.16,1.49.4,2h.1Zm2.9-.8c.46-.62.37-1.48-.2-2-.48-.61-1.33-.78-2-.4l2.2,2.4Z"/><path d="m234.2,187.35l-2.2,1.3c-.24-.95-1.2-1.52-2.15-1.28-.16.04-.31.1-.45.18l-2.9,1.7-1.1-1.9,6.5-3.8,1.1,1.9-1.2.7c.97-.14,1.93.34,2.4,1.2Z"/><path d="m234.4,197.05l-4.4,1.4-.7-2.1,4.1-1.3c.69-.16,1.11-.85.95-1.54-.01-.05-.03-.11-.05-.16-.17-.72-.9-1.17-1.63-1-.09.02-.18.06-.27.1l-3.9,1.2-.7-2.1,7.2-2.34.7,2.1-.7.2c.78.29,1.35.98,1.5,1.8.48,1.46-.32,3.04-1.79,3.52-.1.03-.21.06-.31.08v.14Z"/><path d="m237.9,206.75l-7.5.2v-2.2h.6c-.66-.54-1.03-1.35-1-2.2.04-2.06,1.74-3.71,3.8-3.7,2.08-.12,3.89,1.42,4.1,3.5.05.84-.24,1.67-.8,2.3h.7v2.2l.1-.1Zm-3.8-2.1c.95.04,1.76-.7,1.8-1.66,0-.05,0-.1,0-.14.01-.93-.73-1.7-1.67-1.71-.08,0-.16,0-.23.01-.99,0-1.79.79-1.8,1.78,0,0,0,.01,0,.02-.01.93.73,1.7,1.67,1.71.08,0,.16,0,.23-.01h0Z"/><path d="m240.9,209.95l-.4,2.2-10.8-1.8.4-2.2,10.8,1.8Z"/><path class="cls-23" d="m209.5,230.05c-1,2.4-2.1,4.7-3.1,7.1-.41.73-1.09,1.27-1.9,1.5h-12.7c-1.13-.38-2.02-1.27-2.4-2.4-.8-1.9-1.7-3.8-2.5-5.7-.04-.18-.11-.35-.2-.5h22.8,0Z"/><path class="cls-12" d="m209.5,230.05h-22.9c-.67.02-1.34-.01-2-.1-2.33-.5-3.94-2.62-3.8-5v-28.2c-.14-2.17,1.22-4.16,3.3-4.8.55-.16,1.13-.23,1.7-.2h23.7c.67-.02,1.34.02,2,.1,2.12.44,3.67,2.24,3.8,4.4v28.7c.11,2.34-1.5,4.42-3.8,4.9-.7.1-1.3,0-2,.1v.1Zm.6-34.5h-24.2c-1,0-1.2.2-1.2,1.2v26.46c-.2.55-.2,1.15,0,1.7.2,1,.3,1.1,1.4,1.1h24.1c1,0,1.3-.3,1.3-1.3v-28.3c-.03-.55-.5-.97-1.05-.95-.08,0-.17.02-.25.05h-.1v.04Z"/><path class="cls-23" d="m209.5,191.75h-22.9c.7-1.6,1.4-3.2,2.1-4.9.3-.6.5-1.3.8-1.9.5-1.15,1.65-1.86,2.9-1.8h11.3c1.09-.07,2.12.52,2.6,1.5,1.1,2.3,2.1,4.7,3.1,7.1h.1Z"/><path class="cls-25" d="m215.3,205.15v-8.6h1.8c1.1-.06,2.04.79,2.1,1.9,0,.03,0,.07,0,.1v4.66c0,1.1-.89,2-2,2-.03,0-.07,0-.1,0h-1.8v-.06Z"/><path class="cls-10" d="m210.1,195.65c.61-.17,1.23.19,1.4.8,0,0,0,0,0,0v28.5c0,1-.3,1.3-1.3,1.3h-24.1c-1.1,0-1.2,0-1.4-1.1-.1-.56-.1-1.14,0-1.7.3-.6.1-1.2.2-1.9.2-1.4.4-2.8.7-4.2.4-2.02,1-4,1.8-5.9,1.2-2.81,2.89-5.38,5-7.6,1.53-1.61,3.28-2.99,5.2-4.1,3.23-1.91,6.79-3.2,10.5-3.8.67-.05,1.34-.15,2-.3h0Zm-11,10.2v-4.4c.04-.51-.33-.95-.84-1-.02,0-.04,0-.06,0-.49-.06-.94.29-1,.79,0,.07,0,.14,0,.21v9.2c0,.48.17.95.5,1.3,2.1,2,4.1,4.1,6.2,6.2l.4.4c.4.29.96.19,1.24-.21.02-.03.04-.06.06-.09.2-.3.2-.7,0-1-.1-.2-.3-.3-.4-.4l-5.8-5.8c-.2-.22-.31-.5-.3-.8v-4.4h0Z"/><path class="cls-11" d="m210.1,195.65c-.66.16-1.33.26-2,.3-3.71.6-7.27,1.89-10.5,3.8-1.92,1.11-3.67,2.49-5.2,4.1-2.11,2.22-3.8,4.79-5,7.6-.8,1.9-1.4,3.88-1.8,5.9-.3,1.4-.5,2.8-.7,4.2.03.64-.03,1.28-.2,1.9v-26.5c0-1,.2-1.2,1.2-1.2h24.2v-.1Z"/><path class="cls-1" d="m199,205.75v4.3c0,.3.1.58.3.8l5.8,5.8.4.4c.29.4.19.96-.21,1.24-.03.02-.06.04-.09.06-.3.2-.7.2-1,0-.18-.08-.32-.22-.4-.4l-6.2-6.2c-.4-.3-.6-.81-.5-1.3v-9.24c-.03-.52.36-.97.88-1,.04,0,.08,0,.12,0,.51,0,.91.43.9.94,0,.02,0,.04,0,.06v4.54Z"/></svg>