<?xml version="1.0" encoding="UTF-8"?><svg id="Layer_1" xmlns="http://www.w3.org/2000/svg" viewBox="0 0 400 400"><defs><style>.cls-1{fill:#375e7d;}.cls-2{stroke:#a5262d;}.cls-2,.cls-3,.cls-4{stroke-width:4px;}.cls-2,.cls-3,.cls-4,.cls-5{fill:none;stroke-miterlimit:10;}.cls-6{fill:#93c149;}.cls-3{stroke:#000;}.cls-7{fill:#fff;}.cls-8{fill:#535454;}.cls-4{stroke:#0018c6;}.cls-9{fill:#e2e7f5;}.cls-10{fill:#2b4d66;}.cls-11{fill:#546e7a;}.cls-12{fill:#f7f6fd;}.cls-13{fill:#2b4e68;}.cls-14{fill:#d0cde6;}.cls-15{fill:#656565;}.cls-16{fill:#2b506b;}.cls-17{fill:#e1e6f4;}.cls-18{fill:#e5e4ec;}.cls-19{fill:#ffed58;}.cls-5{stroke:#231f20;stroke-width:2px;}.cls-20{fill:#36464e;}.cls-21{fill:#22a5fc;}.cls-22{fill:#474c68;}.cls-23{fill:#395f7e;}.cls-24{fill:#b3dd60;}.cls-25{fill:#788f9b;}.cls-26{fill:#dee3f1;}.cls-27{fill:#dcdcdc;}.cls-28{fill:#0693fb;}.cls-29{fill:#2b2e3f;}.cls-30{fill:#f8f6f7;}.cls-31{fill:#d0cde7;}.cls-32{fill:#fbd734;}.cls-33{fill:#dcd9ea;}.cls-34{fill:#eee;}.cls-35{fill:#231f20;}.cls-36{fill:#474847;}.cls-37{fill:#2c4d66;}</style></defs><line class="cls-7" x1="201.12" y1="249.42" x2="200.62" y2="282.2"/><line class="cls-5" x1="201.12" y1="249.42" x2="200.78" y2="271.43"/><polygon class="cls-35" points="193.34 269.13 200.62 282.2 208.3 269.36 193.34 269.13"/><line class="cls-7" x1="139.68" y1="106.15" x2="188.32" y2="145.46"/><line class="cls-5" x1="139.68" y1="106.15" x2="179.95" y2="138.7"/><polygon class="cls-35" points="173.55 143.14 188.32 145.46 182.95 131.5 173.55 143.14"/><line class="cls-7" x1="260.32" y1="106.15" x2="211.68" y2="145.46"/><line class="cls-5" x1="260.32" y1="106.15" x2="220.05" y2="138.7"/><polygon class="cls-35" points="217.05 131.5 211.68 145.46 226.45 143.14 217.05 131.5"/><circle class="cls-2" cx="306.45" cy="66.19" r="45"/><path class="cls-37" d="m332.45,86.49c-.25.93-.66,1.81-1.2,2.6-1.09,1.51-2.84,2.4-4.7,2.4h-5.4c-.9,0-1-.2-1-1.1v-1.7c1.93.07,3.87.03,5.8-.1,1.02-.03,1.97-.51,2.6-1.3.83-1.28,1.25-2.78,1.2-4.3h2.8v3.5h-.1Z"/><path class="cls-14" d="m332.45,82.99h-2.7v-15.3h2.7v15.3Z"/><path class="cls-37" d="m332.45,67.59h-2.7v-2.7c-.04-1.8-.93-3.46-2.4-4.5-.78-.5-1.62-.9-2.5-1.2,1.78-.25,3.58.14,5.1,1.1,1.26.91,2.12,2.27,2.4,3.8l.1.1v3.4Z"/><path class="cls-18" d="m282.56,77.79h-4.7c-1.13.11-2.22-.43-2.8-1.4-.05-.05-.12-.09-.2-.1v-1.6h.1c.52.8,1.45,1.23,2.4,1.1h5.1c.14.28.14.62,0,.9-.1.3-.2.5,0,.8v.3h.1Z"/><path class="cls-21" d="m294.95,60.79c.67-.05,1.33-.05,2,0h19.6v23.6c.04.66-.31,1.29-.9,1.6,0-.9-.3-1.2-1.2-1.2h-14.2c-.8,0-1.1.4-1,1.2h-4.4v-25.1l.1-.1Zm12.6,13.7h-6.9c-.9,0-1.4.3-1.3.9s.5.9,1.3.9h14.4c.4,0,.7-.5.7-.9h0c-.02-.4-.31-.73-.7-.8h-7.4l-.1-.1Zm0-8.5h7.1c.7,0,1-.3,1-.8s-.3-.9-1.1-.9h-14.2c-.3,0-.7,0-.9.3-.23.24-.28.61-.1.9.12.38.52.59.9.5h7.3Zm0,5.1h7.2c.35.03.69-.12.9-.4.14-.28.14-.62,0-.9-.2-.3-.6-.3-1-.3h-14.6c-.42.14-.68.56-.6,1h0c.14.43.55.72,1,.7h7.1v-.1Zm0,10.2h7.1c.24.02.48-.02.7-.1.32-.23.47-.62.4-1-.09-.41-.49-.67-.9-.6h-14.4c-.4-.05-.8.15-1,.5-.3.7.2,1.2.9,1.2h7.2Z"/><path class="cls-1" d="m324.76,59.19c.89.28,1.73.68,2.5,1.2,1.41,1.08,2.29,2.72,2.4,4.5v2.7h-1.9c-.61,0-1.11.49-1.12,1.1,0,.07,0,.13.02.2h0v12.8c-.08.64.37,1.21,1.01,1.29.03,0,.06,0,.09,0h1.8c.05,1.52-.37,3.02-1.2,4.3-.65.77-1.59,1.25-2.6,1.3-1.93.13-3.87.17-5.8.1v-28.1c0-1.7.3-1.5,1.6-1.5h3.1l.1.1Z"/><path class="cls-28" d="m320.06,60.59v29.4h-20.4c-.2-.1-.4,0-.6,0h-3.5c-.2,0-.4,0-.5-.2v-3.8h4.3c.2.41.64.65,1.1.6h14.1c.47.01.92-.21,1.2-.6.62-.28.99-.93.9-1.6v-23.6c1.1-.1,2.3,0,3.5,0l-.1-.2Z"/><path class="cls-1" d="m294.95,60.79v25.2h-1.2c-2.17-.4-4.08-1.66-5.3-3.5-.59-.99-1-2.07-1.2-3.2v-9.8c-.1-.94,0-1.9.3-2.8.79-3.48,3.93-5.91,7.5-5.8l-.1-.1Z"/><path class="cls-23" d="m296.95,53.09h-.8c-.6,0-1.1-.3-1.1-.9v-2.4c0-1,.3-1.3,1.3-1.3h11c.51.49.7,1.22.5,1.9v.91c.16.67-.07,1.36-.6,1.8h-10.3Z"/><path class="cls-31" d="m296.95,53.09h12.1v7.6h-2.9v-3c0-.2,0-.4-.2-.5v-.4c.4-.7.2-1-.6-1h-8.4v-2.7h0Z"/><path class="cls-33" d="m305.95,57.09c.2.1.2.3.2.5v3h-9.2v-5h8.5c.8,0,.9.3.6,1-.3-.7-.7-.8-1.2-.6-.41.2-.59.69-.4,1.1.12.24.34.42.6.5.47.12.95-.14,1.1-.6l-.2.1Zm-5.1-1.1c-.44.04-.81.36-.9.8,0,.5.4.9.9.9s.9-.4.9-.9-.4-.9-.9-.9h0v.1Z"/><path class="cls-33" d="m287.15,69.39v9.2h-2.2c-.74,0-1.43-.33-1.9-.9,0-.16-.14-.29-.3-.3-.2-.3,0-.5,0-.8.05-.3.05-.6,0-.9v-4.7c.09-.98.92-1.72,1.9-1.7h2.6l-.1.1Z"/><path class="cls-30" d="m282.56,72.89v2.9h-5.1c-.96.09-1.9-.37-2.4-1.2.41-1.11,1.52-1.81,2.7-1.7h4.8Z"/><path class="cls-37" d="m309.06,53.09h-1.8c.47-.47.7-1.14.6-1.8v-.9c.15-.69-.08-1.42-.6-1.9h2.7c.55-.06,1.04.35,1.1.89,0,.03,0,.07,0,.11v2.4c0,.9-.4,1.3-1.3,1.3h-.7v-.1Z"/><path class="cls-33" d="m314.56,96.89h1.5c.57.62.83,1.47.7,2.3v.9c-.02.42-.2.81-.5,1.1,0,0-.3.1-.3.3-8.5-.2-17,0-25.5,0s-1.7-.6-1.6-1.6v-1.7c-.03-.68.49-1.27,1.18-1.3,0,0,.01,0,.02,0h24.5Z"/><path class="cls-37" d="m287.15,79.19c.2,1.13.61,2.21,1.2,3.2,1.22,1.84,3.13,3.1,5.3,3.5h1.2v4.1c-3.66-.03-6.83-2.54-7.7-6.1-.12-.86-.18-1.73-.2-2.6v-2.1h.2Z"/><path class="cls-13" d="m294.95,89.99v-.3c.1.3.4.2.6.2h4.1v6.9h-2.1v-4.1c0-.6-.1-.8-.8-.8h-1.7v-2l-.1.1Z"/><path class="cls-10" d="m314.56,96.89h-2v-4.3c.04-.35-.21-.66-.55-.7-.05,0-.1,0-.15,0h-1.9v-2c.77-.05,1.53-.05,2.3,0h2.3v7Z"/><path class="cls-14" d="m315.95,101.59c0-.2.2-.2.3-.3.3-.29.48-.68.5-1.1v-.89c.23-.84-.05-1.73-.7-2.3h3.2c.77-.04,1.43.53,1.5,1.3v1.8c.1.79-.42,1.53-1.2,1.7h-3.6v-.21Z"/><path class="cls-14" d="m287.15,79.19v2.11h-2.5c-1.11.02-2.06-.8-2.2-1.9v-1.5c.1,0,0-.2.1-.3s.2.2.3.3c.45.59,1.16.92,1.9.9h2.2v.5l.2-.11Z"/><path class="cls-1" d="m295.06,91.89h1.7c.6,0,.8.2.8.8-.1,1.4-.1,2.8,0,4.2h-2.4v-5h-.1Z"/><path class="cls-33" d="m329.65,82.99h-1.6c-.64.08-1.21-.37-1.29-1.01,0-.03,0-.06,0-.09v-13c-.08-.64.37-1.21,1.01-1.29.03,0,.06,0,.09,0h1.9v15.3h0l-.1.1Z"/><path class="cls-16" d="m315.76,85.89c-.23.38-.65.61-1.1.6h-14.1c-.45.03-.88-.2-1.1-.6,0-.8.2-1.2,1-1.2h14.1c.9,0,1.2.3,1.2,1.2Z"/><path class="cls-16" d="m307.56,74.39h7.4c.4,0,.7.4.8.8.03.43-.27.82-.7.9h-14.4c-.8,0-1.3-.3-1.3-.9s.4-.9,1.3-.9h6.9v.1Z"/><path class="cls-10" d="m307.56,65.89h-7.2c-.37.03-.73-.17-.9-.5-.07-.3-.03-.62.1-.9.2-.28.57-.4.9-.3h14.2c.7,0,1.1.3,1.1.9s-.3.8-1,.8h-7.2Z"/><path class="cls-10" d="m307.56,71.09h-7.1c-.45.02-.86-.27-1-.7-.12-.43.13-.87.55-.99.02,0,.03,0,.05-.01h14.6c.36-.06.73.05,1,.3.2.27.2.63,0,.9-.19.31-.53.5-.9.5h-7.2Z"/><path class="cls-10" d="m307.56,81.3h-7.2c-.8,0-1.2-.6-.9-1.2.17-.38.59-.59,1-.5h14.4c.43-.04.83.21,1,.6.13.39-.04.81-.4,1-.22.08-.46.12-.7.1h-7.2Z"/><path class="cls-16" d="m305.95,57.09c-.12.46-.59.73-1.05.61-.02,0-.03,0-.05-.01-.43-.09-.71-.52-.61-.95,0-.02,0-.03.01-.05,0-.29.21-.54.5-.6.5-.2.9,0,1.2.6v.4Z"/><path class="cls-16" d="m300.85,55.99c.5,0,.9.4.9.9,0,.5-.4.9-.9.9h0c-.5,0-.9-.4-.9-.9,0-.45.38-.81.84-.8.02,0,.04,0,.06,0v-.1Z"/><path class="cls-23" d="m310.06,96.89v-4.9h1.9c.5,0,.7.2.7.7v4.3h-2.6v-.1Z"/><path d="m266.06,64.39l.4-2.4,7.5-1-6.8-3.3.4-2.4,9.2,4.8-.5,2.8-10.2,1.6v-.1Z"/><path d="m269.15,54.09c-.63-.25-.94-.96-.69-1.6.25-.63.96-.94,1.6-.69.63.25.94.96.69,1.59-.24.63-.94.95-1.57.71,0,0-.02,0-.03-.01Zm1.8.5l.7-2,6.6,2.4-.7,2-6.6-2.4Z"/><path d="m279.45,45.59c1.7.89,2.35,2.99,1.46,4.68-.02.04-.04.08-.06.12-.37.69-1.03,1.17-1.8,1.3l.6.3-1.1,1.8-8.4-5.1,1.1-1.8,3,1.8c-.19-.74-.08-1.53.3-2.2,1.08-1.62,3.27-2.06,4.9-1v.1Zm-1.1,1.8c-.74-.5-1.75-.31-2.25.42-.02.02-.03.05-.05.08-.49.72-.3,1.7.42,2.19.06.04.12.07.18.11.74.5,1.75.31,2.25-.42.02-.02.03-.05.05-.08.49-.72.3-1.7-.42-2.19-.06-.04-.12-.07-.18-.11Z"/><path d="m280.76,39.09l1.7,1.6c-.78.46-1.04,1.46-.58,2.25.08.13.17.25.28.35l2.3,2.2-1.4,1.5-5.1-4.8,1.4-1.5.9.9c-.43-.83-.26-1.84.4-2.5h.1Z"/><path d="m287.95,33.79l4,5.7-1.7,1.2-.4-.5c-.04.8-.49,1.52-1.2,1.9-1.63,1.05-3.81.59-4.87-1.05-.01-.02-.02-.04-.03-.05-1.19-1.49-.95-3.66.54-4.85.02-.02.04-.03.06-.05.62-.48,1.43-.67,2.2-.5l-.4-.5,1.7-1.2.1-.1Zm.3,4.1c-.39-.72-1.3-.99-2.02-.6-.1.05-.19.12-.28.2-.76.5-.98,1.52-.48,2.28.03.04.05.08.08.12.39.72,1.3.99,2.02.6.1-.05.19-.12.28-.2.76-.5.98-1.52.48-2.28-.03-.04-.05-.08-.08-.12Z"/><path d="m293.45,33.59l1,2.3c.2.6.7.4,1.6,0l.7,1.8c-2.4,1.3-3.5.9-4.2-.9l-1-2.3-1,.4-.8-1.9,1-.4-.5-1.2,1.7-1.4.8,1.8,1.3-.6.8,1.9-1.3.6-.1-.1Z"/><path d="m295.06,28.89c-.17-.66.23-1.34.9-1.51s1.34.23,1.51.9-.23,1.34-.9,1.51c0,0,0,0,0,0-.6.2-1.25-.12-1.46-.72-.02-.06-.03-.12-.04-.18Zm.7,1.8l2-.5,1.8,6.8-2,.5-1.8-6.8Z"/><path d="m300.06,32.99c-.17-2.04,1.35-3.83,3.4-4,0,0,0,0,0,0,2-.2,3.79,1.25,3.99,3.25,0,.05,0,.1.01.15.17,2.04-1.35,3.83-3.4,4,0,0,0,0,0,0-2,.2-3.79-1.25-3.99-3.25,0-.05,0-.1-.01-.15Zm5.3-.4c.03-.81-.61-1.49-1.42-1.52-.09,0-.19,0-.28.02-.86.02-1.54.74-1.52,1.6,0,.07,0,.13.02.2-.03.81.61,1.49,1.42,1.52.09,0,.19,0,.28-.02.86-.02,1.54-.74,1.52-1.6,0-.07,0-.13-.02-.2h0Z"/><path d="m315.76,32.89l-.7,4.2-2.1-.4.7-3.9c.16-.65-.24-1.32-.89-1.48-.04,0-.07-.02-.11-.02-.63-.17-1.29.2-1.46.84-.03.12-.05.24-.04.36l-.6,3.8-2.1-.4,1.2-6.9,2.1.4v.6c.52-.52,1.29-.72,2-.5,1.4.2,2.4,1.4,2.1,3.3l-.1.1Z"/><path d="m317.95,32.69l4.9,2.1-.8,1.9-4.9-2.1.8-1.9Z"/><path d="m332.65,43.19l-2.7,3.3-1.6-1.3,2.6-3.2c.4-.5.5-1.1,0-1.5-.53-.39-1.27-.28-1.66.25-.01.02-.02.03-.04.05l-2.5,3-1.6-1.3,2.6-3.2c.4-.5.5-1.1,0-1.5-.53-.39-1.27-.28-1.66.25-.01.02-.02.03-.04.05l-2.5,3-1.6-1.3,4.5-5.4,1.6,1.3-.4.5c1.33-.21,2.57.7,2.77,2.03.02.16.03.31.03.47.79-.18,1.61.05,2.2.6,1.13.92,1.3,2.57.38,3.7-.06.07-.12.14-.18.2h-.2Z"/><path d="m332.95,45.09c1.71-1.11,4-.61,5.1,1.1,1.11,1.71.61,4-1.1,5.1s-4,.61-5.1-1.1c0,0,0,0,0,0-1.1-1.71-.61-4,1.1-5.1Zm2.9,4.5c.74-.43.99-1.37.56-2.1-.02-.03-.04-.06-.06-.1-.46-.77-1.46-1.01-2.22-.55-.03.02-.05.03-.08.05-.74.43-.99,1.37-.56,2.1.02.03.04.06.06.1.46.77,1.46,1.01,2.22.55.03-.02.05-.03.08-.05Z"/><path d="m339.65,54.49l-2.3.9c-.6.2-.4.7,0,1.6l-1.8.7c-1.2-2.5-.8-3.5,1.1-4.2l2.3-.9-.4-1,1.9-.7.4,1,1.2-.5,1.3,1.7-1.8.7.5,1.3-1.9.7-.5-1.3Z"/><path d="m339.26,57.3c1.95-.35,3.82.95,4.17,2.9.01.07.02.14.03.2.31,2-1.01,3.9-3,4.3-1.95.35-3.82-.95-4.17-2.9-.01-.07-.02-.14-.03-.2-.31-2,1.01-3.9,3-4.3Zm.9,5.2c.91-.14,1.54-.99,1.4-1.9-.09-.83-.83-1.43-1.66-1.35-.08,0-.16.02-.24.05-.91.14-1.54.99-1.4,1.9.09.83.84,1.43,1.67,1.33.08,0,.16-.02.23-.04h0Z"/><path d="m343.76,70.39h-2.4c.2-1-.1-2.2-1.5-2.3h-3.2v-2.2l7,.3v2.11h-1.3c.85.39,1.37,1.27,1.3,2.2l.1-.11Z"/><circle class="cls-4" cx="93.54" cy="66.19" r="45"/><path class="cls-22" d="m113.75,72.19v-19c-.02-2.42-1.98-4.38-4.4-4.4h-33c-2.39.09-4.31,2.01-4.4,4.4v15.3c.1.9.2,1.7.3,2.6.3,2.5.8,4.98,1.5,7.4.41,1.43.91,2.83,1.5,4.2,0,.2,0,.4.3.4v-26.3c0-.5.1-.7.6-.7h33.2c.5,0,.6.1.6.6v36.9c0,.5-.1.6-.6.6h-26.6c.1.4.5.6.8.9,1.49,1.41,3.09,2.68,4.8,3.8.3.2.6.3.9.5-.3-1.6.4-2.5,2.1-2.5h3.2c1-.04,1.85.73,1.9,1.74,0,.02,0,.04,0,.06.03.97-.74,1.78-1.71,1.81-.06,0-.12,0-.19,0h-2.8c.1.3.5.4.8.5,2.29,1.01,4.72,1.69,7.2,2,.51-.03,1.02.04,1.5.2h8.1c2.47.01,4.49-1.99,4.5-4.46,0-.01,0-.03,0-.04v-19.7c-.4-2.25-.4-4.55,0-6.8h-.1Zm-20.2-18.9h-5c-.7,0-1.1-.3-1.1-.9s.4-.9,1.1-.9h5.1c.7,0,1.1.3,1.1.9s-.4.9-1.1.9h-.1Zm3.4,0c-.9,0-1.3-.3-1.4-.9s.4-.9,1.3-.9h0c.9,0,1.3.3,1.3.9s-.4.9-1.4.9h.2Z"/><path class="cls-29" d="m71.84,68.39c.1.9.2,1.7.3,2.6.3,2.5.8,4.98,1.5,7.4.41,1.43.91,2.83,1.5,4.2,0,.2,0,.4.3.4v10.9c0,.3,0,.4.4.4h6.9c.15.38.44.7.8.9,1.49,1.41,3.09,2.68,4.8,3.8.3.2.6.3.9.5.26.43.65.78,1.1,1,.4.2.9,0,1.3.1.1.3.5.4.8.5,2.29,1.01,4.72,1.69,7.2,2,.51-.03,1.02.04,1.5.2h-24.3c-2.52.19-4.71-1.7-4.9-4.21-.02-.23-.02-.46,0-.69v-29.9l-.1-.1Z"/><path class="cls-12" d="m82.75,94.09h-.2c-.01-.21-.12-.39-.3-.5-.6-.6-1.1-1.3-1.7-1.9-1.81-2.32-3.36-4.83-4.6-7.5,0-.24-.17-.45-.4-.5v-27.1c0-.5.1-.7.6-.7h33.2c.5,0,.6.1.6.6v36.9c0,.5-.1.6-.6.6h-26.6v.1Zm6.3-29.1h-2.2c-.4,0-.6.1-.6.6v18.9c0,.4,0,.5.5.5h11.71c.4,0,.5-.1.5-.5v-18.9c0-.5-.1-.6-.6-.6h-2.2v-3.2c0-.3,0-.5-.4-.5h-6.4c-.4,0-.4.1-.4.5v3.2h.09Zm.9,25.5c0-.5-.4-.9-.9-.9s-.9.4-.9.9.4.9.9.9h0c.44.06.84-.25.9-.69,0-.07,0-.14,0-.21Zm2.7.9c.5,0,.9-.4.9-.9s-.4-.9-.9-.9-.9.4-.9.9h0c-.06.44.25.84.69.9.07,0,.14,0,.21,0Zm3.7-1.8c-.5,0-.9.4-.9.9s.4.9.9.9.9-.4.9-.9h0c.06-.44-.25-.84-.69-.9-.07,0-.14,0-.21,0Z"/><path class="cls-17" d="m91.64,100.49c-.44.02-.87-.02-1.3-.1-.45-.22-.84-.57-1.1-1-.3-1.6.4-2.5,2.1-2.5h3.2c1-.04,1.85.73,1.9,1.74,0,.02,0,.04,0,.06.03.97-.74,1.78-1.71,1.81-.06,0-.12,0-.19,0h-2.9Z"/><path class="cls-17" d="m90.95,53.29h-2.49c-.7,0-1.1-.3-1.1-.9s.4-.9,1.1-.9h5.1c.7,0,1.1.3,1.1.9s-.4.9-1.1.9h-2.61Z"/><path class="cls-26" d="m96.84,53.29c-.9,0-1.3-.3-1.4-.9s.4-.9,1.3-.9h0c.9,0,1.3.3,1.3.9s-.4.9-1.4.9h.2Z"/><path class="cls-9" d="m75.55,83.69c.3,0,.3.3.4.5,1.26,2.66,2.8,5.17,4.6,7.5.51.68,1.08,1.31,1.7,1.9.1.2.3.3.3.5h-6.7c-.3,0-.4,0-.4-.4v-10.1l.1.1Z"/><path class="cls-6" d="m96.45,65.09h2.2c.4,0,.6.1.6.6v18.9c0,.4,0,.5-.5.5h-11.71c-.4,0-.5-.1-.5-.5v-18.9c0-.5.1-.6.6-.6h9.31Zm-7.3,6.1c.23-.44.71-.68,1.2-.6h4.5c.5,0,1.1-.1,1.5.6v-2.9c0-.4-.1-.5-.5-.5h-6.3c-.4,0-.5.1-.5.5v2.9h.1Zm0,7.8v2.9c0,.3,0,.4.4.4h6.5c.3,0,.4,0,.4-.4v-3c-.23.44-.71.68-1.2.6h-4.8c-.52.09-1.03-.15-1.3-.6h0v.1Zm7.2-7.2c-.23.44-.71.68-1.2.6h-4.6c-.52.08-1.05-.11-1.4-.5v2.9c.23-.44.71-.68,1.2-.6h4.6c.52-.08,1.05.11,1.4.5v-2.9Zm0,6.6v-3c-.3.6-.7.6-1.2.6h-4.5c-.5,0-1.1.1-1.5-.6v3c.24-.42.72-.66,1.2-.6h4.8c.5,0,.9,0,1.2.6Z"/><path class="cls-24" d="m96.45,65.09h-7.3v-3.2c0-.3,0-.5.4-.5h6.4c.4,0,.4.1.4.5v3.2h.1Z"/><path class="cls-22" d="m90.05,90.49c0,.5-.4.9-.9.9s-.9-.4-.9-.9.4-.9.9-.9h0c.44-.06.84.25.9.69,0,.07,0,.14,0,.21Z"/><path class="cls-22" d="m92.75,91.39c-.5,0-.9-.4-.9-.9s.4-.9.9-.9.9.4.9.9h0c.06.44-.25.84-.69.9-.07,0-.14,0-.21,0Z"/><path class="cls-22" d="m96.45,89.59c.5,0,.9.4.9.9s-.4.9-.9.9-.9-.4-.9-.9h0c-.06-.44.25-.84.69-.9.07,0,.14,0,.21,0Z"/><path class="cls-24" d="m89.14,71.09v-2.9c0-.4.1-.5.5-.5h6.3c.4,0,.5.1.5.5v2.9c-.4-.8-1-.6-1.5-.6h-4.49c-.5,0-.9,0-1.2.6h-.11Z"/><path class="cls-24" d="m89.14,78.99c.3.6.8.6,1.3.6h4.8c.5,0,.9,0,1.2-.6v3c0,.3-.1.4-.4.4h-6.5c-.2.02-.38-.13-.4-.34,0-.02,0-.04,0-.06v-3Z"/><path class="cls-24" d="m96.34,71.69v2.9c-.4-.5-.8-.5-1.4-.5h-4.6c-.5,0-.9,0-1.2.6v-2.9c.4.5.8.5,1.4.5h4.6c.5,0,.9,0,1.2-.6Z"/><path class="cls-24" d="m96.34,78.29c-.26-.41-.72-.64-1.2-.6h-4.8c-.5,0-.9,0-1.2.6v-3c.4.7,1,.6,1.5.6h4.5c.5,0,.9,0,1.2-.6v3Z"/><path d="m56.75,55.99l-.6,2.6,8,1.7-.5,2.3-8-1.7-.6,2.6-2.3-.5,1.6-7.6,2.3.5.1.1Z"/><path d="m60.84,48.39l6.8,3.2-1,2-.6-.3c.32.78.28,1.65-.1,2.4-.97,1.85-3.25,2.56-5.1,1.6-1.93-.78-2.87-2.97-2.1-4.9.33-.78.99-1.37,1.8-1.6l-.6-.3,1-2-.1-.1Zm2.4,3.6c-.9-.38-1.94.04-2.32.94-.38.9.04,1.94.94,2.32.87.37,1.87,0,2.29-.86.43-.87.07-1.93-.8-2.36-.03-.02-.06-.03-.1-.04Z"/><path d="m70.75,42.29c1.63,1.27,1.91,3.62.64,5.25-.01.02-.03.03-.04.05-.52.69-1.34,1.1-2.2,1.1l.5.5-1.5,1.7-7.9-6.9,1.5-1.7,2.8,2.4c-.09-.85.2-1.69.8-2.3,1.35-1.46,3.62-1.56,5.09-.21.07.07.15.14.21.21l.1-.1Zm-1.5,1.7c-.75-.67-1.9-.63-2.6.1-.64.67-.62,1.73.05,2.38.05.04.1.09.15.12.75.67,1.9.63,2.6-.1.65-.61.67-1.63.06-2.28-.08-.08-.17-.16-.26-.22Z"/><path d="m67.75,35.69l1.8-1.4,6.6,8.7-1.8,1.4-6.6-8.7Z"/><path d="m79.64,38.99c.48-.2.85-.6,1-1.1h2.1c-.2,1.3-1.02,2.42-2.2,3-1.88,1.08-4.28.43-5.37-1.45-.05-.08-.09-.17-.13-.25-1-1.86-.31-4.17,1.55-5.18.08-.04.17-.09.25-.12,1.84-.96,4.1-.24,5.06,1.59.05.1.1.2.14.31.08.27.18.54.3.8l-4.8,2.4c.6.6,1.3.5,2.1.1v-.1Zm0-3.1c-.48-.61-1.33-.78-2-.4-.73.26-1.13,1.06-.9,1.8l2.9-1.4Z"/><path d="m85.64,33.09l.6,2.6c.2.6.7.5,1.7.3l.5,2c-2.8,1-3.8.4-4.3-1.7l-.6-2.6-1.2.3-.5-2.1,1.2-.3-.3-1.4,2-1.2.5,2,1.5-.4.5,2.1-1.5.4h-.1Z"/><path d="m101.15,34.49c-.1,2.09-1.88,3.7-3.97,3.6-.01,0-.02,0-.03,0-.83-.02-1.61-.43-2.1-1.1v.7l-2.3-.2,1.1-10.4,2.2.2-.4,3.7c.63-.55,1.47-.81,2.3-.7,2,.27,3.4,2.11,3.13,4.1,0,.07-.02.13-.03.2l.1-.1Zm-2.2-.2c.14-.96-.52-1.85-1.48-1.99-.04,0-.08-.01-.12-.01-.98-.12-1.87.58-2,1.56,0,.01,0,.03,0,.04-.11.99.61,1.89,1.6,2s1.89-.61,2-1.6Z"/><path d="m111.25,34.29l-2.8,7-2.1-.8.3-.7c-.76.35-1.64.35-2.4,0-1.88-1.16-2.46-3.63-1.3-5.51.9-1.46,2.63-2.18,4.3-1.79.79.29,1.41.91,1.7,1.7l.3-.7,2.1.8h-.1Zm-3.5,2.6c.41-.89.02-1.94-.87-2.35-.04-.02-.09-.04-.13-.05-.83-.4-1.82-.05-2.21.78-.03.07-.06.14-.09.22-.41.89-.02,1.94.87,2.35.04.02.09.04.13.05.83.4,1.82.05,2.21-.78.03-.07.06-.14.09-.22h0Z"/><path d="m114.75,39.19l-1.5,2.2c-.4.5,0,.9.9,1.4l-1.2,1.7c-2.6-1.4-2.8-2.7-1.6-4.4l1.5-2.2-1-.7,1.2-1.8,1,.7.8-1.2,2.2.7-1.2,1.7,1.3.9-1.2,1.8-1.3-.9.1.1Z"/><path d="m119.15,43.09l-1.9,1.9c-.5.5-.1.9.6,1.5l-1.39,1.5c-2.3-1.9-2.3-3.1-.8-4.6l1.9-1.9-.9-.8,1.5-1.5.9.8,1-1,2.1,1.1-1.5,1.5,1.1,1.1-1.5,1.5-1.11-1.1Z"/><path d="m120.54,50.59c.29.47.76.79,1.3.9v2.1c-1.25-.09-2.38-.81-3-1.9-1.28-1.76-.89-4.21.87-5.49,1.76-1.28,4.21-.89,5.49.87,1.28,1.76.89,4.21-.87,5.49-.06.04-.12.09-.19.13-.25.17-.51.31-.8.4l-2.89-4.4c-.42.65-.38,1.49.1,2.1v-.2Zm3-.3c.53-.55.57-1.4.1-2-.36-.69-1.18-.99-1.9-.7l1.8,2.7Z"/><path d="m129.94,56.79l-2.4.9c-.11-.99-.99-1.7-1.98-1.6-.14.02-.28.05-.42.1l-3.2,1.2-.8-2.1,7-2.7.8,2.1-1.2.5c1,.02,1.87.66,2.2,1.6Z"/><path d="m131.54,65.99l-7.6-1.4c-2.5-.5-3.6-1.6-3.8-3.7l2.1-.3c.04.85.67,1.55,1.5,1.7l6.6-4,.4,2.4-4.29,2.3,4.8.7.4,2.4-.11-.1Z"/><line class="cls-7" x1="111.83" y1="200.26" x2="144.6" y2="199.76"/><line class="cls-5" x1="111.83" y1="200.26" x2="133.84" y2="199.93"/><polygon class="cls-35" points="131.77 207.44 144.6 199.76 131.54 192.48 131.77 207.44"/><line class="cls-7" x1="290.6" y1="200.26" x2="257.83" y2="199.76"/><line class="cls-5" x1="290.6" y1="200.26" x2="268.59" y2="199.93"/><polygon class="cls-35" points="270.89 192.48 257.83 199.76 270.66 207.44 270.89 192.48"/><circle class="cls-4" cx="341.07" cy="200.01" r="45"/><path class="cls-34" d="m334.27,226.81h-8.3c0-.2-.2-.2-.4-.2-.97-.29-1.62-1.19-1.6-2.2v-32.9c.6.8,1.4.8,1.9.1.35-.48.24-1.15-.23-1.5-.19-.14-.43-.21-.67-.2-.44,0-.84.28-1,.7-.26-1.1.23-2.23,1.2-2.8.1,0,.4,0,.4-.3h8.9c-.1.1-.3.1-.5.2-.93.47-1.48,1.46-1.4,2.5v33.9c-.07,1.09.58,2.11,1.6,2.5v.2h.1Z"/><path class="cls-8" d="m336.46,187.51h22.5c1.24.27,2.07,1.44,1.9,2.7v33.8c.18,1.31-.73,2.52-2.03,2.7-.22.03-.45.03-.67,0h-21.7q0-.1-.2-.2c-.79-.26-1.34-.97-1.4-1.8-.1-1.1,0-2.3,0-3.5.1.19.29.3.5.3h22.6c.8,0,.9-.1.9-.9v-28.8c0-.7-.2-.9-.9-.9h-22.4c-.25-.02-.5.05-.7.2-.2-.4,0-.8,0-1.1-.01-.97.53-1.86,1.4-2.3.11,0,.2-.09.2-.2h0Zm8.7,36.7c.02.89.71,1.63,1.6,1.7.93,0,1.69-.75,1.7-1.68,0,0,0-.01,0-.02-.06-.91-.79-1.64-1.7-1.7-.9-.04-1.66.66-1.7,1.56,0,.05,0,.1,0,.14h.1Zm2.2-34.9c0-.3-.2-.5-.6-.5-.33,0-.6.27-.6.6,0,.33.27.6.6.6.29.04.56-.16.6-.45,0-.05,0-.1,0-.15h0v-.1Z"/><path class="cls-27" d="m325.67,187.51c0,.2-.3.2-.4.3-1.01.54-1.51,1.7-1.2,2.8-.05.3-.05.6,0,.9-.1.1,0,.3,0,.4v32.5c.02,1,.66,1.87,1.6,2.2.16-.02.32.06.4.2h-2.4c0-.2-.1-.2-.2-.2-.69-.21-1.24-.73-1.5-1.4,0-.11-.09-.2-.2-.2h0v-35.8c.08,0,.15-.04.2-.1.25-.64.76-1.15,1.4-1.4,0,0,.1,0,.1-.2h2.2Z"/><path class="cls-36" d="m336.46,187.51c0,.2-.1.2-.2.2-.93.36-1.51,1.3-1.4,2.3-.05.36-.05.74,0,1.1-.14.66-.17,1.33-.1,2v28.2c0,1.2-.1,2.3,0,3.5.09.82.63,1.51,1.4,1.8.11,0,.2.09.2.2h0c-.73.07-1.47.03-2.2-.1-1.02-.39-1.67-1.41-1.6-2.5v-33.9c-.08-1.04.47-2.03,1.4-2.5.2,0,.4,0,.5-.2h1.9l.1-.1Z"/><path class="cls-8" d="m324.07,191.51c-.1-.29-.1-.61,0-.9.16-.42.56-.69,1-.7-.3.9.1,1.5.9,1.6h0c-.5.7-1.3.7-1.9-.1v.1Z"/><path class="cls-15" d="m325.96,191.61h0c-.7-.1-1.1-.7-.9-1.6.59-.02,1.09.44,1.1,1.03,0,.24-.06.47-.2.67v-.1Z"/><path class="cls-15" d="m345.07,224.21c0-.93.75-1.69,1.68-1.7,0,0,.01,0,.02,0,.93.03,1.67.77,1.7,1.7,0,.93-.75,1.69-1.68,1.7,0,0-.01,0-.02,0-.91-.06-1.64-.79-1.7-1.7Zm2.1,0c.02-.26-.18-.48-.44-.5-.02,0-.04,0-.06,0-.3,0-.6.3-.5.5s.2.5.5.4c.26.02.48-.18.5-.44,0-.02,0-.04,0-.06h0v.1Z"/><path class="cls-15" d="m347.36,189.21c.04.29-.16.56-.45.6-.05,0-.1,0-.15,0-.33,0-.6-.27-.6-.6,0-.33.27-.6.6-.6h0c.4,0,.5.2.6.5v.1Z"/><path class="cls-8" d="m347.27,224.11c.02.26-.18.48-.44.5-.02,0-.04,0-.06,0-.25.02-.47-.15-.5-.4,0-.3.3-.6.5-.5.26-.02.48.18.5.44,0,.02,0,.04,0,.06v-.1Z"/><path d="m306.67,189.01l-.8,2.8,8.4,2.4-.7,2.5-8.4-2.4-.8,2.8-2.4-.7,2.3-8,2.4.7v-.1Z"/><path d="m311.76,181.31l7,4-1.2,2.1-.7-.4c.29.87.18,1.82-.3,2.6-1.38,1.92-4.06,2.35-5.98.96-1.63-1.17-2.22-3.32-1.42-5.16.41-.8,1.13-1.38,2-1.6l-.7-.4,1.2-2.1h.1Zm2.3,4.1c-.8-.56-1.89-.36-2.45.44-.06.08-.11.17-.15.26-.52.85-.26,1.97.59,2.49.07.04.14.08.21.11.8.56,1.89.36,2.45-.44.06-.08.11-.17.15-.26.52-.85.26-1.97-.59-2.49-.07-.04-.14-.08-.21-.11h0Z"/><path d="m322.86,175.71c1.57,1.55,1.59,4.08.04,5.66-.01.01-.03.03-.04.04-.63.64-1.51.97-2.4.9l.5.5-1.8,1.6-7.6-8.2,1.8-1.6,2.7,2.9c0-.89.41-1.74,1.1-2.3,1.68-1.44,4.2-1.25,5.64.43.02.02.04.05.06.07Zm-1.8,1.6c-.75-.72-1.94-.7-2.66.04-.72.75-.7,1.94.04,2.66.73.71,1.89.71,2.62,0,.75-.62.85-1.72.24-2.46-.07-.09-.15-.17-.24-.24Z"/><path d="m320.46,168.41l2.1-1.2,6,10-2.1,1.2-6-10Z"/><path d="m332.67,173.31c.56-.14,1.02-.55,1.2-1.1l2.2.4c-.39,1.29-1.41,2.31-2.7,2.7-2.12.91-4.58-.08-5.49-2.2-.04-.1-.08-.2-.11-.3-.83-2.1.2-4.47,2.3-5.29.1-.04.2-.07.3-.11,2.08-.76,4.37.31,5.13,2.39.03.07.05.14.07.21.11.29.18.59.2.9l-5.4,1.9c.56.62,1.46.78,2.2.4l.1.1Zm.4-3.2c-.4-.7-1.28-.97-2-.6-.82.18-1.35.98-1.2,1.8l3.2-1.1v-.1Z"/><path d="m339.96,167.91l.3,2.8c0,.7.7.7,1.7.5l.2,2.2c-3.1.7-4.1-.2-4.3-2.4l-.3-2.8h-1.29c0,.1-.3-2.2-.3-2.2h1.3c0-.1-.2-1.7-.2-1.7l2.3-1,.2,2.2,1.6-.2.3,2.3-1.6.2.09.1Z"/><path d="m351.17,166.31l1.5.3-.4,2.3-1.5-.3-1,5.6-2.4-.4,1-5.6-1.09-.2.4-2.3,1.1.2c.4-2.2,1.9-3.3,4.4-2.7l-.4,2.3c-.9-.2-1.5,0-1.7.8h.09Z"/><path d="m358.96,168.61l-.9,2.6c-.86-.61-2.05-.41-2.66.45-.1.14-.18.29-.24.45l-1.2,3.4-2.3-.8,2.8-7.5,2.3.8-.5,1.3c.69-.8,1.81-1.08,2.8-.7h-.1Z"/><path d="m367.67,174.11l-4.4,6.7-2-1.3.4-.6c-.87.17-1.76-.01-2.5-.5-1.76-1.28-2.15-3.74-.87-5.5.02-.03.05-.06.07-.1,1.4-2,3.8-2.6,5.5-1.4.77.45,1.28,1.22,1.4,2.1l.4-.6,2,1.3v-.1Zm-4.2,2c.62-.8.49-1.95-.31-2.57-.06-.05-.12-.09-.19-.13-.86-.59-2.04-.37-2.63.49-.03.04-.05.07-.07.11-.62.8-.49,1.95.31,2.57.06.05.12.09.19.13.86.59,2.04.37,2.63-.49.03-.04.05-.07.07-.11Z"/><path d="m375.17,188.01l-4,2.9-1.4-1.9,3.8-2.8c.57-.33.77-1.07.44-1.64-.01-.02-.02-.04-.04-.06-.45-.58-1.28-.68-1.85-.23-.05.04-.1.09-.15.13l-3.6,2.7-1.4-1.9,3.8-2.8c.57-.33.77-1.07.44-1.64-.01-.02-.02-.04-.04-.06-.45-.58-1.28-.68-1.85-.23-.05.04-.1.09-.15.13l-3.6,2.7-1.4-1.9,6.5-4.7,1.4,1.9-.6.4c.83.01,1.6.47,2,1.2.55.63.71,1.52.4,2.3.92-.02,1.77.48,2.2,1.3,1.1,1.5.7,3.2-.9,4.4v-.2Z"/><path d="m374.17,195.11c.16.54.52,1,1,1.3l-.5,2.2c-2.59-.39-4.38-2.81-3.99-5.4.39-2.59,2.81-4.38,5.4-3.99,2.59.39,4.38,2.81,3.99,5.4-.25,1.66-1.35,3.06-2.9,3.69-.3,0-.6.2-.9.2l-1.6-5.5c-.67.52-.87,1.44-.5,2.2v-.1Zm3.2.6c.68-.41.97-1.25.7-2-.19-.78-.9-1.33-1.7-1.3l1,3.3Z"/><path class="cls-32" d="m215.18,190.18c.5,0,.99.02,1.49.02.84,0,1.54.69,1.55,1.54,0,.78,0,1.56,0,2.33,0,6.58,0,13.16,0,19.75,0,.43-.02.86-.15,1.28-.15.49-.75.93-1.27.93-5.57,0-11.15,0-16.72,0-.03,0-.05,0-.08,0,0-1.51,0-3.03,0-4.54,1.16,0,2.32,0,3.48-.01.15,0,.32.04.32-.21,0-.57.05-1.16-.08-1.71-.36-1.48-.79-2.95-1.17-4.43-.1-.4-.22-.79-.36-1.18-.22-.61.19-.92.56-1.25.6-.55.85-1.24.99-2.03.3-1.66-1.1-3.65-2.68-4.16-.05-.09-.12-.13-.22-.08-.08-.02-.16-.04-.24-.05-.04-.05-.08-.07-.14-.03-.15-.02-.31-.04-.46-.07,0-2.01,0-4.03,0-6.04,2.86,0,5.71,0,8.57-.02.18,0,.36-.01.53-.02,1.02.03,2.04.05,3.07,0,1,.06,2,.04,3.01,0Z"/><path class="cls-19" d="m200,211.48c0,1.51,0,3.03,0,4.54-.57,0-1.15.01-1.72.01-4.86,0-9.72-.02-14.58.02-1.28.01-1.94-.69-1.94-1.94.04-7.44.03-14.88,0-22.32,0-.89.72-1.6,1.57-1.59.5,0,.99-.01,1.49-.02,1,.03,2,.05,3-.01,1.02.06,2.04.03,3.06.01.17,0,.33.02.5.02,2.87,0,5.74,0,8.61.01,0,2.01,0,4.03,0,6.04-.32.15-.68.08-1.02.21-1.42.55-2.36,1.51-2.7,3.02-.06.03-.11.07-.03.14-.11,1.25.02,2.39,1.14,3.22.35.26.49.65.35,1.14-.09.3-.2.59-.27.9-.2.84-.42,1.66-.64,2.49-.16.61-.35,1.22-.5,1.83-.15.61-.11,1.23-.13,1.85-.01.31.07.42.4.41,1.14-.02,2.27,0,3.41,0Z"/><path class="cls-25" d="m187.83,190.17c-1,.06-2,.04-3,.01,0-2.7-.02-5.41.02-8.11.02-1.25.19-2.49.55-3.71.44-1.46,1.06-2.83,1.9-4.1,1.05-1.58,2.35-2.94,3.9-4.05,1.02-.73,2.09-1.38,3.27-1.78,1.17-.41,2.35-.81,3.61-.9.71-.05,1.41-.16,2.12-.14,1.77.03,3.47.38,5.13,1,1.65.62,3.14,1.52,4.5,2.65,1.17.97,2.13,2.12,2.94,3.4.58.9,1.03,1.86,1.42,2.87.21.55.36,1.12.55,1.68.17.51.21,1.06.27,1.6.35,3.19.08,6.39.17,9.58-1,.04-2,.05-3,0,0-2.28-.02-4.57.01-6.85.02-1.31-.15-2.6-.47-3.87-.45-1.78-1.28-3.39-2.48-4.76-1.47-1.68-3.26-2.95-5.42-3.64-1.53-.49-3.08-.64-4.69-.54-1.49.09-2.89.44-4.22,1.06-2.21,1.03-3.95,2.61-5.24,4.69-1.11,1.79-1.72,3.76-1.8,5.84-.1,2.69-.02,5.38-.02,8.08Z"/><path class="cls-11" d="m209.11,190.18c0-2.42.02-4.85,0-7.27-.01-1.29-.19-2.56-.71-3.76-.41-.95-.96-1.81-1.64-2.6-1.01-1.18-2.27-1.99-3.7-2.51-1.32-.48-2.7-.64-4.13-.46-.87.11-1.71.31-2.49.65-2.18.95-3.78,2.51-4.77,4.69-.46,1.02-.65,2.09-.7,3.2-.13,2.69-.02,5.38-.06,8.06-1.02.02-2.04.04-3.06-.01,0-2.69-.08-5.39.02-8.08.08-2.08.68-4.05,1.8-5.84,1.29-2.08,3.03-3.66,5.24-4.69,1.33-.62,2.73-.97,4.22-1.06,1.61-.09,3.16.06,4.69.54,2.16.69,3.94,1.95,5.42,3.64,1.2,1.38,2.03,2.98,2.48,4.76.32,1.27.49,2.55.47,3.87-.03,2.28-.01,4.57-.01,6.85-1.02.05-2.04.04-3.07,0Z"/><path class="cls-20" d="m200,211.48c-1.14,0-2.27-.02-3.41,0-.33,0-.41-.1-.4-.41.02-.62-.01-1.25.13-1.85.15-.62.34-1.22.5-1.83.22-.83.44-1.66.64-2.49.07-.31.18-.6.27-.9.14-.49,0-.88-.35-1.14-1.12-.83-1.25-1.97-1.14-3.22.06-.03.06-.08.03-.14.34-1.51,1.28-2.47,2.7-3.02.34-.13.7-.05,1.02-.21.15.02.31.04.46.07.03.08.07.12.14.03.08.02.16.04.24.05.04.11.14.08.22.08,1.58.51,2.98,2.5,2.68,4.16-.14.79-.4,1.48-.99,2.03-.36.33-.78.65-.56,1.25.14.39.25.78.36,1.18.38,1.48.81,2.94,1.17,4.43.13.55.09,1.14.08,1.71,0,.25-.17.21-.32.21-1.16,0-2.32,0-3.48.01Z"/><path class="cls-11" d="m201.07,196.49c-.09,0-.18.03-.22-.08.1-.05.17,0,.22.08Z"/><path class="cls-11" d="m200.6,196.36c-.07.09-.11.05-.14-.03.06-.03.1-.02.14.03Z"/><path class="cls-25" d="m196.28,199.49c.03.06.03.1-.03.14-.08-.07-.03-.1.03-.14Z"/><circle class="cls-3" cx="200.13" cy="194.02" r="39.02"/><path class="cls-32" d="m215.18,330.18c.5,0,.99.02,1.49.02.84,0,1.54.69,1.55,1.54,0,.78,0,1.56,0,2.33,0,6.58,0,13.16,0,19.75,0,.43-.02.86-.15,1.28-.15.49-.75.93-1.27.93-5.57,0-11.15,0-16.72,0-.03,0-.05,0-.08,0,0-1.51,0-3.03,0-4.54,1.16,0,2.32,0,3.48-.01.15,0,.32.04.32-.21,0-.57.05-1.16-.08-1.71-.36-1.48-.79-2.95-1.17-4.43-.1-.4-.22-.79-.36-1.18-.22-.61.19-.92.56-1.25.6-.55.85-1.24.99-2.03.3-1.66-1.1-3.65-2.68-4.16-.05-.09-.12-.13-.22-.08-.08-.02-.16-.04-.24-.05-.04-.05-.08-.07-.14-.03-.15-.02-.31-.04-.46-.07,0-2.01,0-4.03,0-6.04,2.86,0,5.71,0,8.57-.02.18,0,.36-.01.53-.02,1.02.03,2.04.05,3.07,0,1,.06,2,.04,3.01,0Z"/><path class="cls-19" d="m200,351.48c0,1.51,0,3.03,0,4.54-.57,0-1.15.01-1.72.01-4.86,0-9.72-.02-14.58.02-1.28.01-1.94-.69-1.94-1.94.04-7.44.03-14.88,0-22.32,0-.89.72-1.6,1.57-1.59.5,0,.99-.01,1.49-.02,1,.03,2,.05,3-.01,1.02.06,2.04.03,3.06.01.17,0,.33.02.5.02,2.87,0,5.74,0,8.61.01,0,2.01,0,4.03,0,6.04-.32.15-.68.08-1.02.21-1.42.55-2.36,1.51-2.7,3.02-.06.03-.11.07-.03.14-.11,1.25.02,2.39,1.14,3.22.35.26.49.65.35,1.14-.09.3-.2.59-.27.9-.2.84-.42,1.66-.64,2.49-.16.61-.35,1.22-.5,1.83-.15.61-.11,1.23-.13,1.85-.01.31.07.42.4.41,1.14-.02,2.27,0,3.41,0Z"/><path class="cls-25" d="m187.83,330.17c-1,.06-2,.04-3,.01,0-2.7-.02-5.41.02-8.11.02-1.25.19-2.49.55-3.71.44-1.46,1.06-2.83,1.9-4.1,1.05-1.58,2.35-2.94,3.9-4.05,1.02-.73,2.09-1.38,3.27-1.78,1.17-.41,2.35-.81,3.61-.9.71-.05,1.41-.16,2.12-.14,1.77.03,3.47.38,5.13,1,1.65.62,3.14,1.52,4.5,2.65,1.17.97,2.13,2.12,2.94,3.4.58.9,1.03,1.86,1.42,2.87.21.55.36,1.12.55,1.68.17.51.21,1.06.27,1.6.35,3.19.08,6.39.17,9.58-1,.04-2,.05-3,0,0-2.28-.02-4.57.01-6.85.02-1.31-.15-2.6-.47-3.87-.45-1.78-1.28-3.39-2.48-4.76-1.47-1.68-3.26-2.95-5.42-3.64-1.53-.49-3.08-.64-4.69-.54-1.49.09-2.89.44-4.22,1.06-2.21,1.03-3.95,2.61-5.24,4.69-1.11,1.79-1.72,3.76-1.8,5.84-.1,2.69-.02,5.38-.02,8.08Z"/><path class="cls-11" d="m209.11,330.18c0-2.42.02-4.85,0-7.27-.01-1.29-.19-2.56-.71-3.76-.41-.95-.96-1.81-1.64-2.6-1.01-1.18-2.27-1.99-3.7-2.51-1.32-.48-2.7-.64-4.13-.46-.87.11-1.71.31-2.49.65-2.18.95-3.78,2.51-4.77,4.69-.46,1.02-.65,2.09-.7,3.2-.13,2.69-.02,5.38-.06,8.06-1.02.02-2.04.04-3.06-.01,0-2.69-.08-5.39.02-8.08.08-2.08.68-4.05,1.8-5.84,1.29-2.08,3.03-3.66,5.24-4.69,1.33-.62,2.73-.97,4.22-1.06,1.61-.09,3.16.06,4.69.54,2.16.69,3.94,1.95,5.42,3.64,1.2,1.38,2.03,2.98,2.48,4.76.32,1.27.49,2.55.47,3.87-.03,2.28-.01,4.57-.01,6.85-1.02.05-2.04.04-3.07,0Z"/><path class="cls-20" d="m200,351.48c-1.14,0-2.27-.02-3.41,0-.33,0-.41-.1-.4-.41.02-.62-.01-1.25.13-1.85.15-.62.34-1.22.5-1.83.22-.83.44-1.66.64-2.49.07-.31.18-.6.27-.9.14-.49,0-.88-.35-1.14-1.12-.83-1.25-1.97-1.14-3.22.06-.03.06-.08.03-.14.34-1.51,1.28-2.47,2.7-3.02.34-.13.7-.05,1.02-.21.15.02.31.04.46.07.03.08.07.12.14.03.08.02.16.04.24.05.04.11.14.08.22.08,1.58.51,2.98,2.5,2.68,4.16-.14.79-.4,1.48-.99,2.03-.36.33-.78.65-.56,1.25.14.39.25.78.36,1.18.38,1.48.81,2.94,1.17,4.43.13.55.09,1.14.08,1.71,0,.25-.17.21-.32.21-1.16,0-2.32,0-3.48.01Z"/><path class="cls-11" d="m201.07,336.49c-.09,0-.18.03-.22-.08.1-.05.17,0,.22.08Z"/><path class="cls-11" d="m200.6,336.36c-.07.09-.11.05-.14-.03.06-.03.1-.02.14.03Z"/><path class="cls-25" d="m196.28,339.49c.03.06.03.1-.03.14-.08-.07-.03-.1.03-.14Z"/><circle class="cls-3" cx="200.13" cy="334.02" r="39.02"/><path class="cls-32" d="m75.18,196.18c.5,0,.99.02,1.49.02.84,0,1.54.69,1.55,1.54,0,.78,0,1.56,0,2.33,0,6.58,0,13.16,0,19.75,0,.43-.02.86-.15,1.28-.15.49-.75.93-1.27.93-5.57,0-11.15,0-16.72,0-.03,0-.05,0-.08,0,0-1.51,0-3.03,0-4.54,1.16,0,2.32,0,3.48-.01.15,0,.32.04.32-.21,0-.57.05-1.16-.08-1.71-.36-1.48-.79-2.95-1.17-4.43-.1-.4-.22-.79-.36-1.18-.22-.61.19-.92.56-1.25.6-.55.85-1.24.99-2.03.3-1.66-1.1-3.65-2.68-4.16-.05-.09-.12-.13-.22-.08-.08-.02-.16-.04-.24-.05-.04-.05-.08-.07-.14-.03-.15-.02-.31-.04-.46-.07,0-2.01,0-4.03,0-6.04,2.86,0,5.71,0,8.57-.02.18,0,.36-.01.53-.02,1.02.03,2.04.05,3.07,0,1,.06,2,.04,3.01,0Z"/><path class="cls-19" d="m60,217.48c0,1.51,0,3.03,0,4.54-.57,0-1.15.01-1.72.01-4.86,0-9.72-.02-14.58.02-1.28.01-1.94-.69-1.94-1.94.04-7.44.03-14.88,0-22.32,0-.89.72-1.6,1.57-1.59.5,0,.99-.01,1.49-.02,1,.03,2,.05,3-.01,1.02.06,2.04.03,3.06.01.17,0,.33.02.5.02,2.87,0,5.74,0,8.61.01,0,2.01,0,4.03,0,6.04-.32.15-.68.08-1.02.21-1.42.55-2.36,1.51-2.7,3.02-.06.03-.11.07-.03.14-.11,1.25.02,2.39,1.14,3.22.35.26.49.65.35,1.14-.09.3-.2.59-.27.9-.2.84-.42,1.66-.64,2.49-.16.61-.35,1.22-.5,1.83-.15.61-.11,1.23-.13,1.85-.01.31.07.42.4.41,1.14-.02,2.27,0,3.41,0Z"/><path class="cls-25" d="m47.83,196.17c-1,.06-2,.04-3,.01,0-2.7-.02-5.41.02-8.11.02-1.25.19-2.49.55-3.71.44-1.46,1.06-2.83,1.9-4.1,1.05-1.58,2.35-2.94,3.9-4.05,1.02-.73,2.09-1.38,3.27-1.78,1.17-.41,2.35-.81,3.61-.9.71-.05,1.41-.16,2.12-.14,1.77.03,3.47.38,5.13,1,1.65.62,3.14,1.52,4.5,2.65,1.17.97,2.13,2.12,2.94,3.4.58.9,1.03,1.86,1.42,2.87.21.55.36,1.12.55,1.68.17.51.21,1.06.27,1.6.35,3.19.08,6.39.17,9.58-1,.04-2,.05-3,0,0-2.28-.02-4.57.01-6.85.02-1.31-.15-2.6-.47-3.87-.45-1.78-1.28-3.39-2.48-4.76-1.47-1.68-3.26-2.95-5.42-3.64-1.53-.49-3.08-.64-4.69-.54-1.49.09-2.89.44-4.22,1.06-2.21,1.03-3.95,2.61-5.24,4.69-1.11,1.79-1.72,3.76-1.8,5.84-.1,2.69-.02,5.38-.02,8.08Z"/><path class="cls-11" d="m69.11,196.18c0-2.42.02-4.85,0-7.27-.01-1.29-.19-2.56-.71-3.76-.41-.95-.96-1.81-1.64-2.6-1.01-1.18-2.27-1.99-3.7-2.51-1.32-.48-2.7-.64-4.13-.46-.87.11-1.71.31-2.49.65-2.18.95-3.78,2.51-4.77,4.69-.46,1.02-.65,2.09-.7,3.2-.13,2.69-.02,5.38-.06,8.06-1.02.02-2.04.04-3.06-.01,0-2.69-.08-5.39.02-8.08.08-2.08.68-4.05,1.8-5.84,1.29-2.08,3.03-3.66,5.24-4.69,1.33-.62,2.73-.97,4.22-1.06,1.61-.09,3.16.06,4.69.54,2.16.69,3.94,1.95,5.42,3.64,1.2,1.38,2.03,2.98,2.48,4.76.32,1.27.49,2.55.47,3.87-.03,2.28-.01,4.57-.01,6.85-1.02.05-2.04.04-3.07,0Z"/><path class="cls-20" d="m60,217.48c-1.14,0-2.27-.02-3.41,0-.33,0-.41-.1-.4-.41.02-.62-.01-1.25.13-1.85.15-.62.34-1.22.5-1.83.22-.83.44-1.66.64-2.49.07-.31.18-.6.27-.9.14-.49,0-.88-.35-1.14-1.12-.83-1.25-1.97-1.14-3.22.06-.03.06-.08.03-.14.34-1.51,1.28-2.47,2.7-3.02.34-.13.7-.05,1.02-.21.15.02.31.04.46.07.03.08.07.12.14.03.08.02.16.04.24.05.04.11.14.08.22.08,1.58.51,2.98,2.5,2.68,4.16-.14.79-.4,1.48-.99,2.03-.36.33-.78.65-.56,1.25.14.39.25.78.36,1.18.38,1.48.81,2.94,1.17,4.43.13.55.09,1.14.08,1.71,0,.25-.17.21-.32.21-1.16,0-2.32,0-3.48.01Z"/><path class="cls-11" d="m61.07,202.49c-.09,0-.18.03-.22-.08.1-.05.17,0,.22.08Z"/><path class="cls-11" d="m60.6,202.36c-.07.09-.11.05-.14-.03.06-.03.1-.02.14.03Z"/><path class="cls-25" d="m56.28,205.49c.03.06.03.1-.03.14-.08-.07-.03-.1.03-.14Z"/><circle class="cls-3" cx="60.13" cy="200.02" r="39.02"/></svg>