<?xml version="1.0" encoding="UTF-8"?><svg id="Layer_1" xmlns="http://www.w3.org/2000/svg" viewBox="0 0 400 400"><defs><style>.cls-1{fill:#a7cefe;}.cls-2{stroke:#a5262d;}.cls-2,.cls-3{stroke-width:4px;}.cls-2,.cls-3,.cls-4{fill:none;stroke-miterlimit:10;}.cls-5{fill:#fff;}.cls-6{fill:#727272;}.cls-7{fill:#d2d5d7;}.cls-8{fill:#445367;}.cls-9{fill:#0c4a4e;}.cls-10{fill:#d2febf;}.cls-11{fill:#999afe;}.cls-3{stroke:#c000e2;}.cls-12{fill:#d9cfca;}.cls-13{fill:#00f6d5;}.cls-14{fill:#626363;}.cls-15{fill:#e5dedc;}.cls-16{fill:#455368;}.cls-17{fill:#97f8fe;}.cls-18{fill:#f1efef;}.cls-19{fill:#989afe;}.cls-20{fill:#02f6d5;}.cls-21{fill:#fe7038;}.cls-22{fill:#717f8f;}.cls-23{fill:#93dbfe;}.cls-24{fill:#03f6d5;}.cls-25{fill:#152433;}.cls-4{stroke:#231f20;stroke-width:2px;}.cls-26{fill:#fe415d;}.cls-27{fill:#6f7070;}.cls-28{fill:#0aaffe;}.cls-29{fill:#00244d;}.cls-30{fill:#e6dedc;}.cls-31{fill:#b7b7fe;}.cls-32{fill:#979bfd;}.cls-33{fill:#d1d5d6;}.cls-34{fill:#728090;}.cls-35{fill:#636363;}.cls-36{fill:#b6d6fd;}.cls-37{fill:#445368;}.cls-38{fill:#d0c8c3;}.cls-39{fill:#b8b8fd;}.cls-40{fill:#6ab579;}.cls-41{fill:#3f4a5b;}.cls-42{fill:#014767;}.cls-43{fill:#7dd4f3;}.cls-44{fill:#231f20;}.cls-45{fill:#00dbe6;}.cls-46{fill:#2dbafe;}</style></defs><line class="cls-5" x1="144.26" y1="200.07" x2="111.48" y2="199.57"/><line class="cls-4" x1="144.26" y1="200.07" x2="122.25" y2="199.73"/><polygon class="cls-44" points="124.55 192.28 111.48 199.57 124.32 207.24 124.55 192.28"/><line class="cls-5" x1="256.48" y1="200.07" x2="289.26" y2="199.57"/><line class="cls-4" x1="256.48" y1="200.07" x2="278.5" y2="199.73"/><polygon class="cls-44" points="276.42 207.24 289.26 199.57 276.2 192.29 276.42 207.24"/><line class="cls-5" x1="200.12" y1="144.2" x2="200.62" y2="111.43"/><line class="cls-4" x1="200.12" y1="144.2" x2="200.46" y2="122.19"/><polygon class="cls-44" points="207.9 124.49 200.62 111.43 192.95 124.26 207.9 124.49"/><line class="cls-5" x1="200.12" y1="255.43" x2="200.62" y2="288.2"/><line class="cls-4" x1="200.12" y1="255.43" x2="200.46" y2="277.44"/><polygon class="cls-44" points="192.95 275.37 200.62 288.2 207.9 275.14 192.95 275.37"/><circle class="cls-3" cx="200.47" cy="338.55" r="45"/><path d="m167.17,323.35c1.9.7,2.8,2.8,2,4.7l-.6,1.5,3.1,1.2-.9,2.2-9.8-3.8,1.4-3.7c.7-1.9,2.8-2.9,4.7-2.1h.1Zm-.9,2.2c-.7-.3-1.5,0-1.7.7l-.6,1.5,2.5,1,.6-1.5c.3-.7,0-1.4-.8-1.7Z"/><path d="m174.47,316.85l3.7,2.7-1.3,1.8-3.4-2.5c-.7-.6-1.4-.3-1.9.2-.5.7-.4,1.4.4,2l3.3,2.4-1.3,1.8-8.5-6.2,1.3-1.8,3,2.2c-.2-.7,0-1.5.5-2.3.9-1.2,2.5-1.6,4.2-.4v.1Z"/><path d="m176.17,316.25c-1.4-1.8-1.1-4.2.7-5.6,1.7-1.4,4.2-1.1,5.6.6,1.4,1.8,1.1,4.2-.7,5.6-1.7,1.4-4.2,1.1-5.6-.6Zm4.5-3.5c-.7-.8-1.7-.9-2.5-.3s-.9,1.6-.3,2.5c.7.8,1.7.9,2.5.3s.9-1.6.3-2.5Z"/><path d="m190.17,306.95l1.8,4.2-2.1.9-1.7-3.9c-.4-.9-1.1-1-1.7-.7-.8.3-1.1,1-.7,2l1.6,3.8-2.1.9-2.9-6.9,2.1-.9.3.6c.2-.7.7-1.3,1.6-1.7,1.4-.6,3-.1,3.8,1.8v-.1Z"/><path d="m196.37,308.65c.6,0,1.1-.4,1.3-.8l1.9.8c-.6,1.1-1.6,1.8-3,2-2.5.4-4.4-1.1-4.7-3.4-.3-2.2,1.1-4.1,3.4-4.5,2.2-.3,4,1.2,4.3,3.4v.9l-5.3.7c.4.7,1.1.9,1.9.8l.2.1Zm1-2.9c-.4-.8-1.1-1-1.7-1-.8.1-1.4.6-1.5,1.4l3.2-.4Z"/><path d="m201.57,304.55l5.7.6-.2,2.1-5.7-.6.2-2.1Z"/><path d="m216.57,310.15c-.8,2.1-2.9,3.1-4.8,2.4-.9-.4-1.5-.9-1.8-1.6l-.3.7-2.1-.8,3.7-9.8,2.1.8-1.3,3.5c.7-.4,1.5-.4,2.4,0,1.8.7,2.7,2.9,1.9,5l.2-.2Zm-2.1-.8c.4-1.1,0-2-1-2.3-1-.4-1.9,0-2.3,1.1-.4,1.1,0,2,1,2.3,1,.4,1.9,0,2.3-1.1Z"/><path d="m217.67,310.85c1.3-1.8,3.8-2.1,5.6-.8,1.8,1.3,2.2,3.8.8,5.5-1.3,1.8-3.8,2.1-5.6.8-1.8-1.3-2.2-3.8-.8-5.5Zm4.6,3.4c.6-.9.5-1.9-.3-2.5s-1.8-.5-2.4.4-.5,1.9.3,2.5,1.8.5,2.4-.4Z"/><path d="m235.17,318.75l-8.3,6.4-1.4-1.8.6-.4c-.8,0-1.5-.4-2.1-1.2-1.2-1.6-.8-3.9,1-5.3,1.8-1.4,4.1-1.1,5.3.4.6.8.8,1.6.6,2.3l2.9-2.3,1.4,1.8v.1Zm-6.7,2.3c.9-.7,1-1.7.4-2.5s-1.6-1-2.5-.3-1,1.7-.4,2.5,1.6,1,2.5.3Z"/><path d="m236.97,329.75l-7.7.4c-2.5.1-3.9-.7-4.6-2.7l1.9-.8c.4,1,.9,1.3,1.9,1.3l5.5-5.5.9,2.3-3.6,3.3,4.8-.5.9,2.2h0Z"/><path d="m240.97,335.15l-10.3,1.9-.4-2.4,7.8-1.4-.8-1.7,1.9-.9,1.5,2.5.4,2.1-.1-.1Z"/><path class="cls-41" d="m189.87,371.85c0-.2-.2-.1-.4-.2-2-.5-3.4-2.3-3.4-4.4v-38.8c0-2.7,1.1-4.2,3.6-5,0,0,.1,0,.1-.1h3.4v.1c.5,1.3,1.1,2.6,1.6,3.9.1.3.4.4.7.4h9.7c.4,0,.7-.2.8-.5.2-.5.4-1,.6-1.5.3-.8.7-1.5.9-2.4h3.3c.2.2.5.2.8.3,1.8.6,3,2.3,3.1,4.2v38.8c0,2.8-1.1,4.3-3.8,5.2h-21.1.1Zm23.7-7.3h0v-33.8c0-.4-.3-.2-.5-.2h-25.5c-.4,0-.5.1-.5.5v33.4h26.3l.2.1Zm-13.1,3.1h-4.4c-.5,0-.7.2-.6.7,0,.4.4.5.7.5h8.6c.5,0,.7-.2.7-.6,0-.5-.3-.5-.7-.5h-4.3v-.1Z"/><path class="cls-34" d="m207.67,323.35c-.2.8-.6,1.6-.9,2.4-.2.5-.4,1-.6,1.5-.1.3-.4.6-.8.5h-9.7c-.3,0-.6-.1-.7-.4-.5-1.3-1.1-2.6-1.6-3.9v-.1h14.4-.1Z"/><path class="cls-1" d="m187.37,364.55c-.2-.1,0-.3,0-.4v-33c0-.4,0-.5.5-.5h25.5c.2,0,.4-.2.5.2-.2,0-.3.2-.5.4-.4.5-.7,1-1.1,1.4-1.4,1.8-2.9,3.7-4.3,5.5-1.1,1.5-2.3,2.9-3.4,4.4-1.4,1.8-2.9,3.7-4.3,5.5-1.1,1.5-2.3,2.9-3.4,4.4-1.5,2-3.1,3.9-4.6,5.9-1.1,1.4-2.2,2.8-3.2,4.2-.5.7-1.1,1.3-1.5,2h-.2Z"/><path class="cls-36" d="m187.37,364.55c.4-.7,1-1.3,1.5-2,1.1-1.4,2.2-2.8,3.2-4.2,1.5-2,3.1-3.9,4.6-5.9,1.1-1.5,2.3-2.9,3.4-4.4,1.4-1.8,2.9-3.7,4.3-5.5,1.1-1.5,2.3-2.9,3.4-4.4,1.4-1.8,2.9-3.7,4.3-5.5.4-.5.7-.9,1.1-1.4.1-.2.2-.3.5-.4v33.7h-26.3Z"/><path class="cls-22" d="m200.47,367.65h4.3c.4,0,.7,0,.7.5,0,.4-.2.6-.7.6h-8.6c-.3,0-.6,0-.7-.5,0-.4.1-.7.6-.7h4.4v.1Z"/><path d="m198.77,334.25h5.7v25.9h-6.6v-18.9l-4.5,1.1-1.6-5.6,7-2.5Z"/><circle class="cls-3" cx="200.47" cy="61.45" r="45"/><path d="m163.17,53.15l-.6,2.8,8.5,1.8-.5,2.5-8.5-1.8-.6,2.8-2.4-.5,1.7-8.1,2.4.5Z"/><path d="m167.77,45.05l7.2,3.5-1,2.2-.7-.3c.3.7.3,1.6-.2,2.6-.9,1.9-3.3,2.6-5.5,1.6-2.1-1-3.1-3.4-2.1-5.3.5-1,1.1-1.5,1.9-1.7l-.7-.3,1-2.2.1-.1Zm2.6,3.9c-1.1-.5-2.1-.1-2.6.9s-.1,2,.9,2.6c1.1.5,2.1.1,2.6-.9s.1-2-.9-2.6Z"/><path d="m178.47,38.75c1.7,1.6,1.9,4.1.5,5.7-.7.8-1.5,1.1-2.3,1.1l.5.5-1.6,1.8-8.2-7.6,1.6-1.8,2.9,2.7c0-.8.2-1.6.9-2.4,1.4-1.5,4-1.5,5.7,0Zm-1.6,1.8c-.9-.8-2-.7-2.7,0-.8.8-.7,1.9.1,2.7.9.8,2,.7,2.7,0,.8-.8.7-1.9-.1-2.7Z"/><path d="m175.57,31.65l2-1.4,6.7,9.6-2,1.4-6.7-9.6Z"/><path d="m188.07,35.65c.6-.3,1-.7,1.2-1.2l2.2.3c-.3,1.3-1.2,2.3-2.6,2.9-2.5,1.1-4.8,0-5.7-2.1-.9-2.2,0-4.6,2.2-5.6,2.1-.9,4.4,0,5.4,2.3.1.3.2.6.3.9l-5.2,2.2c.6.6,1.4.6,2.2.3Zm.2-3.3c-.6-.8-1.4-.8-2.1-.5-.8.4-1.2,1-1.1,1.9l3.2-1.4Z"/><path d="m194.97,29.75l.5,2.8c.1.7.7.6,1.7.4l.4,2.1c-3,.9-4.1.1-4.5-2.1l-.5-2.8-1.3.2-.4-2.3,1.3-.2-.3-1.5,2.2-1.1.4,2.2,1.6-.3.4,2.3-1.6.3h.1Z"/><path d="m198.57,29.05l6.1.2v2.3l-6.1-.2v-2.3Z"/><path d="m215.07,33.95c-.7,2.3-2.9,3.5-4.9,2.9-1-.3-1.7-.9-2-1.6l-.2.7-2.3-.7,3.3-10.7,2.3.7-1.2,3.8c.7-.4,1.5-.5,2.6-.2,2,.6,3.1,2.9,2.4,5.2v-.1Zm-2.3-.7c.4-1.1-.2-2.1-1.2-2.4-1.1-.3-2,.2-2.4,1.3-.4,1.1.2,2.1,1.2,2.4,1.1.3,2-.2,2.4-1.3Z"/><path d="m216.27,34.55c1.3-2,3.9-2.4,5.9-1.1s2.5,3.9,1.1,5.9c-1.3,2-3.9,2.4-5.9,1.1s-2.5-3.9-1.1-5.9Zm5,3.4c.6-.9.4-2-.5-2.6s-1.9-.4-2.6.5c-.7.9-.4,2,.5,2.6s1.9.4,2.6-.5Z"/><path d="m235.37,42.35l-8.7,7.1-1.5-1.9.6-.5c-.8,0-1.6-.4-2.3-1.2-1.3-1.6-1-4.1.9-5.6,1.8-1.5,4.4-1.3,5.7.3.7.8.9,1.7.7,2.5l3.1-2.5,1.5,1.9v-.1Zm-7.1,2.7c.9-.8,1-1.9.3-2.7-.7-.9-1.8-1-2.7-.2-.9.8-1,1.9-.3,2.7.7.9,1.8,1,2.7.2Z"/><path d="m237.47,54.15l-8.2.6c-2.7.2-4.2-.7-5-2.8l2.1-.9c.4,1,1,1.4,2,1.3l5.8-5.9,1,2.4-3.8,3.6,5.1-.6,1,2.4v-.1Z"/><path d="m241.77,60.05l-11,2-.5-2.5,8.4-1.5-.9-1.9,2-1,1.6,2.7.4,2.2Z"/><path class="cls-29" d="m200.47,48.85h12.4c1.9,0,3.6,1.4,3.6,3.4v34.4c0,1.5-.6,2.6-1.9,3.3-.3.2-.7.2-1,.4h-13.1v-2.4h12.2c.9,0,1.3-.4,1.3-1.2v-34.3c0-.9-.4-1.2-1.3-1.2h-12.2v-2.4Z"/><path class="cls-42" d="m200.47,87.75v2.4h-13.2c-.1-.2-.4-.2-.5-.2-1.3-.5-2.2-1.7-2.2-3.1v-34.4c0-1.5.6-2.7,2-3.3.4-.2.8-.3,1.2-.3h12.7v2.4h-12.2c-.9,0-1.3.3-1.3,1.3v34c0,.9.3,1.3,1.3,1.3h12.2v-.1Z"/><path class="cls-13" d="m200.47,51.25h12.2c.9,0,1.3.4,1.3,1.2v34c0,.9-.4,1.2-1.3,1.2h-12.2v-2.5h3.5c.5,0,1.1-.4,1.1-.9.2-.9-.4-1.6-1.3-1.6h-3.3v-9.8c.8-.1,1.2-.6,1.2-1.4v-4.1c0-.8-.4-1.3-1.2-1.4v-9.8h1.7c.7,0,1.2-.5,1.2-1.2h0c0-.7-.5-1.2-1.2-1.2h-1.7v-2.5h0Zm5.9,18.3v-3.8c0-.5-.2-.9-.6-1.2-.8-.5-1.8,0-1.8,1.1v7.5c0,.5.1,1,.6,1.3.8.5,1.8-.1,1.8-1.2v-3.8.1Zm4.7,0v-1c0-.7-.5-1.2-1.2-1.2h0c-.7,0-1.2.5-1.2,1.1v2.1c0,.7.6,1.2,1.3,1.1.6,0,1.1-.6,1.1-1.2v-1h0v.1Z"/><path class="cls-10" d="m200.47,51.25v2.5h-1.6c-.8,0-1.3.5-1.3,1.2s.6,1.2,1.3,1.2h1.6v9.8h0c-.8,0-1.2.7-1.2,1.5v3.9c0,.8.5,1.5,1.2,1.5h0v9.9h-3.3c-.8,0-1.3.5-1.3,1.2s.6,1.2,1.3,1.2h3.3v2.5h-12.2c-.9,0-1.3-.3-1.3-1.3v-33.8c0-.9.3-1.3,1.3-1.3h12.2Zm-3.6,18.2v-5.9c-.2-.5-.8-.8-1.3-.8s-1,.6-1,1.2v10.9c0,.7.5,1.2,1.2,1.2h0c.7,0,1.2-.6,1.1-1.3v-5.4.1Zm-4.7,0v-2.2c0-.7-.5-1.3-1.2-1.3s-1.2.6-1.2,1.3v4.3c0,.7.5,1.3,1.2,1.3s1.2-.6,1.2-1.3v-2.1Z"/><path class="cls-32" d="m206.37,69.55v3.8c0,1.1-1,1.7-1.8,1.2-.5-.3-.6-.8-.6-1.3v-7.5c0-1.1,1-1.7,1.8-1.1.4.3.6.7.6,1.2v3.8-.1Z"/><path class="cls-45" d="m200.47,82.85h3.3c.9,0,1.5.7,1.3,1.6,0,.4-.6.8-1.1.9h-3.5v-2.4h0v-.1Z"/><path class="cls-19" d="m211.07,69.55v1c0,.7-.6,1.2-1.2,1.2s-1.1-.5-1.2-1.1v-2.1c0-.7.6-1.1,1.2-1.1.7,0,1.2.5,1.2,1.2h0v1-.1Z"/><path class="cls-11" d="m200.47,66.05c.8.1,1.2.6,1.2,1.4v4.1c0,.8-.4,1.3-1.2,1.4h0v-6.9h0Z"/><path class="cls-45" d="m200.47,53.75h1.7c.8,0,1.2.5,1.2,1.2s-.5,1.2-1.2,1.2h-1.7v-2.4h0Z"/><path class="cls-39" d="m196.87,69.45v5.4c0,.7-.5,1.3-1.1,1.3-.7,0-1.2-.5-1.3-1.2h0v-10.9c0-.6.5-1.2,1-1.2.6,0,1.1.2,1.3.8v5.9l.1-.1Z"/><path class="cls-39" d="m192.17,69.55v2.1c0,.7-.5,1.3-1.2,1.3s-1.2-.6-1.2-1.3v-4.3c0-.7.5-1.3,1.2-1.3s1.2.6,1.2,1.3v2.2Z"/><path class="cls-20" d="m200.47,82.85v2.4h-3.3c-.8,0-1.3-.5-1.3-1.2s.6-1.2,1.3-1.2c1.1,0,2.2,0,3.3,0Z"/><path class="cls-31" d="m200.47,66.05v6.9c-.8,0-1.2-.7-1.2-1.5v-3.9c0-.8.5-1.5,1.2-1.5Z"/><path class="cls-24" d="m200.47,53.75v2.4h-1.6c-.8,0-1.3-.6-1.3-1.2s.5-1.2,1.3-1.2h1.6Z"/><path d="m198.77,56.15h5.7v25.9h-6.6v-18.9l-4.5,1.1-1.6-5.6s7-2.5,7-2.5Z"/><circle class="cls-3" cx="60.68" cy="199.55" r="45"/><path d="m27.28,183.95c1.9.7,2.8,2.8,2.1,4.7l-.6,1.5,3.1,1.2-.8,2.2-9.8-3.7,1.4-3.7c.7-1.9,2.8-2.9,4.7-2.2h-.1Zm-.8,2.2c-.7-.3-1.5,0-1.7.7l-.5,1.5,2.5.9.6-1.5c.3-.7-.1-1.4-.8-1.7l-.1.1Z"/><path d="m34.48,177.45l3.7,2.7-1.3,1.8-3.5-2.5c-.8-.5-1.4-.3-1.9.3-.5.7-.4,1.4.4,2l3.3,2.4-1.3,1.8-8.5-6.2,1.3-1.8,3,2.2c-.2-.7,0-1.5.5-2.3.9-1.2,2.5-1.6,4.2-.5l.1.1Z"/><path d="m36.28,176.75c-1.4-1.7-1.1-4.2.6-5.6s4.2-1.1,5.6.6,1.1,4.2-.6,5.6-4.2,1.1-5.6-.6Zm4.4-3.6c-.7-.8-1.7-.9-2.5-.3s-.9,1.6-.2,2.5c.7.8,1.7.9,2.5.3s.9-1.6.2-2.5Z"/><path d="m50.08,167.35l1.8,4.2-2.1.9-1.7-3.9c-.4-.9-1.1-1-1.7-.7-.8.3-1.1,1-.7,2l1.6,3.8-2.1.9-3-6.9,2.1-.9.3.6c.1-.7.7-1.3,1.6-1.7,1.4-.6,3-.1,3.8,1.7h.1Z"/><path d="m56.28,169.05c.6,0,1.1-.4,1.3-.8l1.9.8c-.6,1.1-1.6,1.8-3,2-2.5.4-4.4-1.1-4.7-3.3s1-4.2,3.4-4.5c2.2-.3,4,1.1,4.3,3.4v.9l-5.3.8c.4.7,1.1.9,1.9.8l.2-.1Zm1-2.9c-.4-.8-1.1-1-1.7-.9-.8.1-1.3.6-1.4,1.4l3.2-.5h-.1Z"/><path d="m61.48,164.85l5.7.6-.2,2.2-5.7-.6.2-2.1v-.1Z"/><path d="m76.58,170.35c-.8,2.1-2.9,3.2-4.7,2.5-.9-.3-1.5-.9-1.8-1.6l-.2.7-2.1-.8,3.6-9.8,2.1.8-1.3,3.5c.7-.4,1.5-.4,2.4,0,1.8.7,2.8,2.9,2,5v-.3Zm-2.1-.8c.4-1.1,0-2-1-2.3-1-.4-1.9,0-2.3,1.1-.4,1.1,0,2,1,2.3,1,.4,1.9,0,2.3-1.1Z"/><path d="m77.68,170.95c1.3-1.8,3.8-2.1,5.5-.8s2.2,3.7.9,5.5c-1.3,1.8-3.8,2.1-5.5.8-1.8-1.3-2.2-3.7-.9-5.5Zm4.6,3.4c.6-.9.4-1.9-.3-2.4-.8-.6-1.8-.5-2.4.4s-.4,1.9.3,2.4c.8.6,1.8.5,2.4-.4Z"/><path d="m95.28,178.75l-8.3,6.5-1.4-1.8.6-.4c-.8,0-1.5-.4-2.1-1.2-1.2-1.5-.8-3.9.9-5.3,1.8-1.4,4.1-1.2,5.3.4.6.8.8,1.6.7,2.3l2.9-2.3,1.4,1.8Zm-6.7,2.4c.9-.7,1-1.7.3-2.5-.6-.8-1.7-1-2.5-.3-.9.7-1,1.7-.3,2.5.6.8,1.7,1,2.5.3Z"/><path d="m97.18,189.75l-7.7.5c-2.5.2-3.9-.7-4.6-2.7l1.9-.8c.4,1,.9,1.3,1.9,1.2l5.4-5.5,1,2.3-3.6,3.3,4.8-.5.9,2.2h0Z"/><path d="m91.88,192.15l4.2,2.9c.7.5,1.4.9,2,.8.7-.1,1-.6.9-1.3s-.7-1.2-1.4-1.3l.8-2.2c1.6.4,2.6,1.7,2.8,3.1.3,1.9-.7,3.7-2.7,4-1.2.2-2.4-.3-3.5-1.1l-2-1.4.6,3.5-2.3.4-1.1-7.1,1.7-.3Z"/><path class="cls-35" d="m66.08,183.75h6.1c1.7,0,3.3,1.6,3.4,3.3v41.4c0,1.9-.9,3.2-2.5,3.8-.4.1-.8.2-1.1.2h-22.6c-2,0-3.7-1.7-3.7-3.7v-4h1.8v4c0,1.2.8,1.9,2,1.9h22.2c1.2,0,2-.8,2-2v-41c0-1.2-.8-2-1.9-2h-4.6c0-.8-.7-1.3-1.1-1.9Z"/><path class="cls-6" d="m66.08,183.75c.4.6,1,1.1,1.1,1.8h-17.3c-1.7,0-2.4.7-2.4,2.4v36.7h-1.8v-36.9c0-1.7.7-3,2.3-3.7.4-.2.8-.3,1.3-.3h16.9-.1Z"/><path class="cls-46" d="m47.48,224.75v-36.7c0-1.7.7-2.4,2.4-2.4h17.4v36c0,1.7-1.3,3.1-3,3.1h-16.8Zm13.1-33.5h3.6c1.1,0,2-.8,2-1.8,0-1.1-.8-1.9-2-1.9h-7.2c-1.1,0-2,.8-2,1.8,0,1.1.8,1.9,2,1.9h3.6Zm-4.2,22.9c.2,0,.5-.2.6-.3l9.2-9.2c.2-.2.4-.5.3-.8s-.2-.6-.6-.7c-.4-.1-.8,0-1.1.3-3,3-6.1,6.1-9.1,9.1l-.2.2c-.2.3-.2.6,0,.9.2.3.5.5.9.5h0Zm5.7-11.1c0-.4-.3-.7-.6-.9-.5-.2-.8,0-1.1.4l-5.5,5.5c-.5.5-.5,1.1,0,1.4s1,.4,1.4,0c1.9-1.8,3.7-3.7,5.6-5.5.2-.2.3-.4.4-.7h0l-.2-.2Z"/><path class="cls-28" d="m47.58,224.75h16.7c1.8,0,3-1.3,3-3.1v-36h4.5c1.2,0,1.9.8,1.9,2v41c0,1.2-.8,2-2,2h-22.2c-1.1,0-1.9-.7-2-1.9v-4h.1Zm13.1,3.1h-5.4c-.7,0-1.2.3-1.2.9s.4,1,1.1,1h10.8c.7,0,1.2-.4,1.1-.9s-.4-.9-1.2-.9h-5.4l.2-.1Z"/><path class="cls-27" d="m60.58,191.25h-3.6c-1.2,0-2-.8-2-1.9s.8-1.8,2-1.8h7.2c1.2,0,2,.8,2,1.9s-.9,1.8-2,1.8h-3.6Z"/><path class="cls-23" d="m56.38,214.15c-.4,0-.7-.2-.9-.5-.2-.3-.1-.7,0-.9l.2-.2c3-3,6.1-6.1,9.1-9.1.3-.3.7-.4,1.1-.3.4.1.5.4.6.7s0,.6-.3.8l-9.2,9.2c-.2.2-.4.3-.6.3Z"/><path class="cls-14" d="m60.58,227.75h5.4c.7,0,1.2.3,1.2.9s-.4.9-1.1.9h-10.8c-.7,0-1.2-.4-1.1-1s.4-.9,1.2-.9h5.4l-.2.1Z"/><path d="m51.08,221.85v-4.8l8.6-9.1c.9-.9,1.5-1.7,1.9-2.3s.6-1.2.6-1.7-.2-1.2-.6-1.6-1-.6-1.7-.6c-1.5,0-2.7.9-3.5,2.7l-5.7-3.2c.8-1.9,2.1-3.4,3.7-4.4,1.6-1,3.4-1.5,5.4-1.5s4.6.7,6.3,2.2c1.8,1.5,2.6,3.5,2.6,6s-.4,2.9-1.1,4.2c-.7,1.3-1.7,2.6-3.1,4l-3.5,3.7h8.1v6.4h-18.1.1Z"/><circle class="cls-3" cx="339.32" cy="199.55" r="45"/><path d="m304.92,185.65c1.9.6,3,2.6,2.4,4.6l-.5,1.5,3.2,1-.7,2.3-10-3.1,1.2-3.8c.6-2,2.6-3,4.5-2.5h-.1Zm-.7,2.3c-.7-.2-1.4.1-1.7.8l-.5,1.5,2.6.8.5-1.5c.2-.7-.2-1.4-.9-1.6Z"/><path d="m311.72,178.65l3.9,2.5-1.2,1.9-3.6-2.3c-.8-.5-1.5-.2-1.9.4-.4.7-.3,1.4.6,2l3.5,2.2-1.2,1.9-8.9-5.6,1.2-1.9,3.1,2c-.2-.6-.2-1.5.4-2.3.8-1.3,2.4-1.8,4.1-.7v-.1Z"/><path d="m313.42,177.95c-1.5-1.7-1.3-4.1.3-5.6,1.6-1.5,4.1-1.4,5.6.3s1.3,4.1-.3,5.6c-1.6,1.5-4.1,1.4-5.6-.3Zm4.2-3.8c-.7-.8-1.7-.8-2.5-.2-.7.7-.8,1.7,0,2.5.7.8,1.7.8,2.5.2.7-.7.8-1.7,0-2.5Z"/><path d="m326.72,167.75l2.1,4.1-2,1-1.9-3.8c-.4-.8-1.1-1-1.8-.6s-1,1.1-.5,2l1.9,3.7-2,1-3.4-6.7,2-1,.3.6c.1-.7.6-1.3,1.5-1.8,1.4-.7,3-.3,3.9,1.5h-.1Z"/><path d="m333.02,168.95c.6-.1,1.1-.5,1.3-.9l2,.6c-.5,1.1-1.5,1.9-2.9,2.2-2.5.5-4.4-.8-4.9-3s.8-4.2,3.1-4.7c2.1-.4,4.1.9,4.5,3.1v.9l-5.2,1.1c.4.7,1.2.8,2,.7h.1Zm.8-3c-.4-.8-1.1-1-1.8-.8-.8.2-1.3.7-1.4,1.5l3.2-.7Z"/><path d="m337.92,164.55l5.7.2v2.2l-5.8-.2v-2.2h.1Z"/><path d="m353.22,169.15c-.7,2.1-2.7,3.3-4.6,2.7-1-.3-1.6-.8-1.9-1.5l-.2.7-2.2-.7,3.1-10,2.2.7-1.1,3.5c.6-.4,1.4-.5,2.4-.2,1.9.6,2.9,2.7,2.3,4.8Zm-2.2-.7c.3-1.1-.2-2-1.2-2.3s-1.9.2-2.2,1.2.2,2,1.2,2.3,1.9-.2,2.2-1.2Z"/><path d="m354.42,169.65c1.2-1.9,3.6-2.4,5.5-1.2,1.9,1.2,2.4,3.6,1.2,5.5s-3.6,2.4-5.5,1.2c-1.9-1.2-2.4-3.6-1.2-5.5Zm4.8,3.1c.6-.9.3-1.9-.5-2.4s-1.8-.3-2.4.6c-.6.9-.3,1.9.5,2.4s1.8.3,2.4-.6Z"/><path d="m372.42,176.35l-7.9,6.9-1.5-1.7.5-.5c-.8,0-1.5-.3-2.2-1.1-1.3-1.5-1.1-3.8.6-5.3,1.7-1.5,4-1.4,5.3,0,.7.8.9,1.5.8,2.3l2.8-2.4,1.5,1.7.1.1Zm-6.6,2.8c.8-.7.9-1.8.2-2.5-.7-.8-1.7-.9-2.6-.1s-.9,1.8-.2,2.5c.7.8,1.7.9,2.6.1Z"/><path d="m374.92,187.25l-7.7.9c-2.5.3-4-.5-4.8-2.4l1.9-.9c.5.9,1,1.2,1.9,1.1l5.1-5.9,1.1,2.2-3.4,3.5,4.7-.8,1.1,2.2.1.1Z"/><path d="m372.92,196.65c-2.3.5-3.8-1-4.3-2.9-.4-1.5,0-3.1,1.4-4.1l1.6,1.8c-.6.4-.9.9-.7,1.8.2,1,.8,1.3,1.5,1.1.6-.1,1-.7.8-1.6v-.5c-.1,0,1-1.2,1-1.2l2.8,1.3-.9-3.7,2.2-.5,1.5,6.6-1.9.4-2.7-1.3c-.2,1.4-1,2.5-2.4,2.8h.1Z"/><path class="cls-9" d="m328.82,232.45c0-.2-.3-.1-.4-.2-2.9-.7-4.8-3.1-4.8-6.1v-37.4c0-2.7,1.3-4.7,3.7-5.9.6-.3,1.4-.5,2.1-.5h9.8v9.2h-3.7c-2.2-.2-4-2.1-4.1-4.3,0-1.1-.5-1.7-1.3-1.9-.5,0-.9,0-1.3.1-1.4.5-2.3,1.7-2.3,3.4v37.8c.2,1.7,1.7,2.9,3.3,2.8h9.3v2.9h-10.5l.2.1Z"/><path class="cls-25" d="m339.32,191.65v-9.2h10c2.7,0,5.3,2.6,5.6,5.2v38.5c0,3-1.9,5.5-4.8,6.2-.2,0-.4,0-.5.1h-10.4v-2.9h10.1c1.6-.4,2.6-1.7,2.6-3.4v-37.6c0-1.6-1.1-3-2.7-3.2-1.2-.2-2.2.5-2.3,1.7,0,2.6-2.1,4.5-4.7,4.6h-3.1.2Z"/><path class="cls-18" d="m330.02,229.55c-1.7,0-3.1-1.1-3.3-2.8v-37.8c0-1.7.8-2.9,2.3-3.4.4-.2.9-.2,1.3-.1.9.2,1.3.8,1.3,1.9,0,2.2,1.9,4.1,4.1,4.3h3.7v3.3h-7.8c-.9,0-1.5.6-1.5,1.5v14.1c0,.9.6,1.5,1.5,1.5h7.8v3.3c-.2,0-.5.1-.8,0h-7.1c-.2,0-.5,0-.7.1-.6.4-.9,1.1-.7,1.7s.8,1,1.5,1h7.8v3.3h-7.6c-1.1,0-1.7.5-1.7,1.7v6.2l-.1.2Z"/><path class="cls-21" d="m330.02,229.55v-6.2c0-1.1.5-1.7,1.7-1.7h7.6v7.8h-9.3v.1Z"/><path class="cls-15" d="m339.32,194.95v-3.3h3.1c2.6,0,4.6-1.9,4.7-4.6,0-1.2,1-1.9,2.3-1.7,1.6.3,2.7,1.7,2.7,3.2v37.5c0,1.7-1,3-2.6,3.4h-.7v-5.6c0-1.8-.4-2.3-2.3-2.3h-7.1v-3.3h1.6c.7,0,1.4-.6,1.4-1.3s-.5-1.4-1.2-1.5c-.6-.1-1.2,0-1.8,0h0v-3.3h7.6c1,0,1.7-.7,1.7-1.7v-13.6c0-4.5-.5-1.8-1.8-1.8h-7.5l-.1-.1Zm7.8,23.3c.8,0,1.5-.6,1.5-1.4s-.6-1.5-1.4-1.5h0c-.7,0-1.6.8-1.5,1.5,0,.6.4,1.4,1.4,1.4h0Z"/><path class="cls-26" d="m339.32,221.65h7.1c1.9,0,2.3.4,2.3,2.3v5.6h-9.4v-7.8h0v-.1Z"/><path class="cls-43" d="m339.32,194.95h7.5c1.2,0,1.8.6,1.8,1.8v13.6c0,1-.7,1.7-1.7,1.7h-7.6v-17h0v-.1Z"/><path class="cls-17" d="m339.32,195.05v17h-7.8c-.9,0-1.5-.6-1.5-1.5v-14.1c0-.9.6-1.5,1.5-1.5h7.8v.1Z"/><path class="cls-30" d="m339.32,218.35h-7.8c-.7,0-1.3-.4-1.5-1s.1-1.3.7-1.7c.2-.1.4-.1.7-.1h7.9v2.9h0v-.1Z"/><path class="cls-12" d="m339.32,218.25v-2.9h1.8c.7.2,1.2.8,1.2,1.5s-.7,1.3-1.4,1.3h-1.6v.1Z"/><path class="cls-38" d="m347.12,218.25c-1,0-1.4-.8-1.4-1.4,0-.7.8-1.5,1.5-1.5.8,0,1.5.7,1.4,1.5h0c0,.8-.6,1.4-1.5,1.4Z"/><path d="m342.72,207.75c1.7.5,3,1.4,4,2.7s1.5,2.8,1.5,4.6c0,2.8-.9,4.9-2.7,6.4-1.8,1.5-4.1,2.3-6.8,2.3s-4.1-.5-5.7-1.5-2.9-2.4-3.6-4.4l5.8-3.3c.5,1.8,1.7,2.7,3.6,2.7s1.7-.2,2.2-.7c.5-.4.8-1,.8-1.8s-.3-1.3-.8-1.8c-.5-.4-1.2-.6-2.2-.6h-1.4l-2.6-3.8,4.1-5.1h-8.7v-6.3h16.8v5.2l-4.3,5.3v.1Z"/><circle class="cls-2" cx="200.47" cy="199.55" r="45"/><path class="cls-40" d="m200.47,186.35h28.5c2.1-.1,4,1.5,4.1,3.7v1c-.1.8-.2,1.5-.4,2.3-.3,1.6,0,2,1.6,1.9,2.7-.1,3.4.8,3.3,3.3v17.8c0,5.9-.7,2.6-2.6,2.6h-5.5c-1.3,0-1.4.1-1.7,1.4l-.7,4.2c-.3,1.9-2,3.4-3.9,3.3h-45.3c-2,0-3.7-1.4-3.9-3.4-.3-1.5-.5-2.9-.8-4.4-.1-.8-.5-1.1-1.3-1.1h-6.1c-1.1.1-2.2-.7-2.3-1.8v-19.6c-.1-1.1.7-2.2,1.8-2.3h1.8c1.1,0,1.5-.4,1.3-1.6-.1-.9-.3-1.8-.5-2.7-.4-2.1.9-4.2,3-4.6h29.6Zm0,7.6h-19.9c-2.4,0-3.7,1.6-3.3,4s.9,4.9,1.3,7.4c.8,4.2,1.5,8.4,2.3,12.6.2,1.5,1.6,2.6,3.1,2.5h32.9c1.5.1,2.9-1,3.1-2.5.5-2.6,1-5.3,1.4-7.9.7-4,1.5-8.1,2.1-12.1.4-2.3-.9-3.8-3.3-3.8h-19.8l.1-.2Zm30.4,5.1c-1.3,0-2.4,1.1-2.5,2.4h0c0,1.3,1.1,2.4,2.4,2.4s2.4-1.1,2.4-2.4h0c0-1.3-.9-2.3-2.2-2.4h-.2.1Zm-60.8,16.1c1.3,0,2.4-1.1,2.4-2.4h0c0-1.3-1.1-2.3-2.4-2.4-1.3,0-2.4,1.1-2.4,2.5h0c0,1.3.9,2.3,2.2,2.3h.2Zm-2.4-13.7c0,1.3,1.1,2.4,2.4,2.4s2.4-1.1,2.5-2.4c0-1.4-1.1-2.5-2.5-2.5h0c-1.3,0-2.3.9-2.4,2.2v.3Zm65.6,11.3c0-1.3-1-2.4-2.3-2.5-1.3,0-2.4,1.1-2.5,2.4,0,1.3,1.1,2.4,2.4,2.4s2.4-.9,2.4-2.1v-.2Z"/><path class="cls-7" d="m200.47,193.95h19.9c2.4,0,3.7,1.4,3.3,3.8-.7,4-1.4,8.1-2.1,12.1-.5,2.6-.9,5.3-1.4,7.9-.2,1.5-1.6,2.6-3.1,2.5h-33.1c-1.5.1-2.9-1-3.1-2.5-.8-4.2-1.5-8.4-2.3-12.5-.4-2.5-.9-4.9-1.3-7.4-.4-2.4.9-4,3.3-4h19.9v.1Zm-12.6,8.1c0-1.4-1.1-2.5-2.5-2.5s-2.5,1.1-2.5,2.5,1.1,2.5,2.5,2.5,2.5-1.1,2.5-2.5Zm2.5,7.7c-1.3,0-2.4,1.1-2.5,2.4,0,1.4,1.1,2.5,2.5,2.5s2.5-1.1,2.5-2.5-1.2-2.5-2.5-2.4h0Zm27.7-7.6c0-1.4-1.1-2.5-2.4-2.5s-2.5,1.1-2.5,2.4c0,1.4,1.1,2.5,2.4,2.5h0c1.3,0,2.4-1.1,2.4-2.5h0l.1.1Zm-7.5,7.6c-1.4,0-2.5,1.1-2.5,2.5s1.1,2.5,2.4,2.5c1.4,0,2.5-1.1,2.5-2.4,0-1.4-1.1-2.5-2.4-2.5h0v-.1Zm-12.6-7.6c0-1.4-1.1-2.5-2.4-2.5-1.4,0-2.5,1.1-2.5,2.5s1.1,2.5,2.5,2.5,2.5-1.1,2.5-2.5h-.1Zm7.6-2.5c-1.4,0-2.5,1.1-2.5,2.5s1.1,2.5,2.5,2.5,2.5-1.1,2.5-2.5-1.1-2.5-2.5-2.5Zm-2.6,12.7c0-1.4-1.1-2.5-2.4-2.5s-2.5,1.1-2.5,2.4,1.1,2.5,2.4,2.5c1.4,0,2.5-1.1,2.5-2.4h0Z"/><path class="cls-33" d="m230.87,199.05c1.3,0,2.3.9,2.4,2.2v.2c0,1.3-1,2.4-2.4,2.5h0c-1.3,0-2.4-1.1-2.4-2.4s1.1-2.4,2.4-2.4h0v-.1Z"/><path class="cls-33" d="m170.07,215.15c-1.3,0-2.3-.9-2.4-2.1v-.2c0-1.3,1-2.5,2.4-2.5h0c1.3,0,2.4,1.1,2.5,2.4,0,1.3-1.1,2.4-2.4,2.5h0l-.1-.1Z"/><path class="cls-33" d="m167.67,201.45c0-1.3.9-2.3,2.1-2.4h.3c1.4,0,2.4,1.1,2.4,2.5,0,1.3-1.1,2.3-2.4,2.4-1.3,0-2.4-1.1-2.4-2.4v-.1Z"/><path class="cls-33" d="m233.27,212.75c0,1.3-.9,2.3-2.2,2.4h-.2c-1.3,0-2.4-1.1-2.4-2.4s1.2-2.4,2.5-2.4,2.4,1.1,2.3,2.5v-.1Z"/><path class="cls-16" d="m187.87,202.05c0,1.4-1.1,2.5-2.5,2.5s-2.5-1.1-2.5-2.5,1.1-2.5,2.5-2.5h0c1.3,0,2.4,1.1,2.5,2.5Z"/><path class="cls-8" d="m190.37,209.65c1.3,0,2.4,1.1,2.5,2.4,0,1.4-1.1,2.5-2.5,2.5s-2.5-1.1-2.5-2.5h0c0-1.4,1.2-2.4,2.5-2.4Z"/><path class="cls-37" d="m218.07,202.05c0,1.4-1.1,2.5-2.5,2.5s-2.5-1.1-2.5-2.5,1.1-2.5,2.5-2.5,2.5,1.1,2.5,2.5Z"/><path class="cls-8" d="m210.57,209.65c1.4,0,2.5,1.1,2.5,2.5s-1.1,2.5-2.5,2.5-2.5-1.1-2.5-2.5,1.1-2.5,2.5-2.5Z"/><path class="cls-8" d="m197.87,202.05c0,1.4-1.1,2.5-2.5,2.5s-2.5-1.1-2.5-2.5,1.1-2.5,2.5-2.5,2.4,1.2,2.4,2.5h.1Z"/><path class="cls-8" d="m205.47,199.55c1.4,0,2.5,1.1,2.5,2.5s-1.1,2.5-2.5,2.5-2.5-1.1-2.5-2.5,1.1-2.5,2.5-2.5Z"/><path class="cls-8" d="m202.87,212.25c0,1.4-1.2,2.4-2.5,2.4s-2.4-1.2-2.4-2.5c0-1.4,1.2-2.4,2.5-2.4s2.4,1.2,2.4,2.5Z"/><path d="m185.57,167.25c1.3,2.3.5,5.2-1.9,6.6l-1.8,1,2.2,3.8-2.8,1.6-7-12.1,4.6-2.6c2.4-1.4,5.3-.6,6.6,1.7h.1Zm-2.8,1.6c-.5-.9-1.5-1.2-2.4-.7l-1.8,1,1.8,3.1,1.8-1c.8-.5,1.1-1.5.6-2.4Z"/><path d="m188.67,170.55c-.6-2.9,1.3-5.6,4.2-6.2s5.6,1.3,6.2,4.2c.6,2.9-1.3,5.6-4.2,6.2-2.9.5-5.6-1.3-6.2-4.2Zm7.5-1.4c-.3-1.4-1.4-2.1-2.7-1.9s-2.1,1.4-1.8,2.8,1.4,2.1,2.7,1.9,2.1-1.4,1.8-2.7v-.1Z"/><path d="m207.77,164.25l-.3,3.4c-1.2-.3-3,0-3.2,2l-.4,4.5-3-.3,1-10,3,.3-.2,1.8c.5-1.3,1.9-1.8,3.2-1.7h-.1Z"/><path d="m213.57,169.15l-1.1,3.4c-.3.8.4,1.1,1.7,1.5l-.9,2.6c-3.8-.9-4.5-2.4-3.6-5l1.1-3.4-1.5-.5.9-2.7,1.5.5.6-1.8h3.1c0,.1-.9,2.8-.9,2.8l2,.7-.9,2.7-2-.7v-.1Z"/><path d="m222.07,178.55c-1.2,1.9-3.5,1.7-5.3.5-1.7-1.1-2.5-2.5-2.3-4.3l3,.2c-.2.8,0,1.4.8,1.9.6.4,1,.4,1.2,0,.6-.9-3.8-3.1-2-6,1.2-1.8,3.3-1.8,5.1-.6,1.4.9,2.2,2.3,2.1,3.9l-2.9-.2c0-.6,0-1.1-.6-1.5-.4-.3-.8-.3-1,0-.6,1,3.9,3,1.9,6.1Z"/></svg>