<?xml version="1.0" encoding="UTF-8"?><svg id="Layer_1" xmlns="http://www.w3.org/2000/svg" viewBox="0 0 400 400"><defs><style>.cls-1{stroke:#000;}.cls-1,.cls-2{stroke-width:4px;}.cls-1,.cls-2,.cls-3{fill:none;stroke-miterlimit:10;}.cls-4{fill:#fff;}.cls-5{fill:#eb917f;}.cls-6{fill:#fbe501;}.cls-7{fill:#f9f3b1;}.cls-8{fill:#546e7a;}.cls-9{fill:#f3bd99;}.cls-2{stroke:#c000e2;}.cls-10{fill:#f4bd99;}.cls-11{fill:#fedd46;}.cls-12{fill:#06687f;}.cls-13{fill:#ffed58;}.cls-3{stroke:#231f20;stroke-width:2px;}.cls-14{fill:#36464e;}.cls-15{fill:#97d6e5;}.cls-16{fill:#788f9b;}.cls-17{fill:#7dcbe5;}.cls-18{fill:#eecf15;}.cls-19{fill:#9dd8e6;}.cls-20{fill:#0092b9;}.cls-21{fill:#e5eff1;}.cls-22{fill:#fbd734;}.cls-23{fill:#231f20;}.cls-24{fill:#9fddea;}.cls-25{fill:#067fa6;}</style></defs><line class="cls-4" x1="199.75" y1="111.88" x2="200.25" y2="144.65"/><line class="cls-3" x1="199.75" y1="111.88" x2="200.09" y2="133.89"/><polygon class="cls-23" points="192.57 131.82 200.25 144.65 207.53 131.59 192.57 131.82"/><line class="cls-4" x1="199.75" y1="288.65" x2="200.25" y2="255.88"/><line class="cls-3" x1="199.75" y1="288.65" x2="200.09" y2="266.64"/><polygon class="cls-23" points="207.53 268.94 200.25 255.88 192.57 268.71 207.53 268.94"/><circle class="cls-2" cx="200" cy="61.69" r="45"/><path d="m169.9,58.59v2c-.1,0-5.1-.3-5.1-.3l3.5,2.4v.2l-3.8,2,5,.3v2c-.1,0-8.7-.5-8.7-.5v-2c.1,0,4.1-2.1,4.1-2.1l-3.7-2.5v-2c.1,0,8.7.5,8.7.5Z"/><path d="m169.9,54.29c.2-.5.1-.9,0-1.3l1.3-1.1c.6.8.7,1.8.3,2.9-.7,2-2.4,2.8-4.2,2.2-1.7-.6-2.6-2.3-2-4.1.6-1.7,2.3-2.5,4.1-1.9.2,0,.5.2.7.3l-1.4,4.1c.7,0,1.1-.5,1.3-1.1h-.1Zm-1.8-1.8c-.7,0-1.2.4-1.3.9-.2.7,0,1.2.5,1.6l.8-2.5Z"/><path d="m168.5,41.69l7.3,4.5-1,1.6-.5-.3c.2.6.1,1.2-.3,1.9-.8,1.4-2.7,1.8-4.3.8-1.6-1-2.1-2.8-1.2-4.2.4-.7,1-1.1,1.6-1.2l-2.6-1.6,1-1.6v.1Zm3.7,4.5c-.8-.5-1.6-.3-2,.5-.4.7-.3,1.5.5,2s1.6.3,2-.5.3-1.5-.5-2Z"/><path d="m170.6,40.49c-.5-.4-.5-1.1-.1-1.6s1.1-.5,1.6-.1.5,1.1.1,1.6-1.1.5-1.6.1Zm1.4.9l1.2-1.4,4.6,4-1.2,1.4-4.6-4Z"/><path d="m179.3,34.49l3.9,4.7-1.4,1.2-.4-.4c0,.6-.3,1.2-.9,1.7-1.2,1-3.2.8-4.3-.6s-1-3.3.2-4.4c.6-.5,1.3-.7,1.9-.6l-.4-.4,1.4-1.2Zm.5,3.5c-.6-.7-1.4-.8-2.1-.2-.7.5-.8,1.4-.2,2.1.6.7,1.4.8,2.1.2.7-.5.8-1.4.2-2.1Z"/><path d="m182,34.69l4.1-2.1.8,1.6-4.1,2.1-.8-1.6Z"/><path d="m197.5,34.19l-1.9.4-1.1-4.9-1.4,4h-.2l-3-3,1.1,4.9-1.9.4-1.9-8.4,1.9-.4,3.1,3.2,1.4-4.2,1.9-.4,1.9,8.4h.1Z"/><path d="m204.4,28.39l-.3,6.1h-1.8v-.7c-.3.4-1,.7-1.8.7-1.2,0-2.3-1-2.2-2.6l.2-3.8h1.8l-.1,3.6c0,.8.4,1.1,1,1.2.7,0,1.2-.3,1.2-1.2v-3.3c.1,0,2,0,2,0Z"/><path d="m207,25.99l1.8.4-1.8,8.8-1.8-.4,1.8-8.8Z"/><path d="m211.7,31.99l-.7,2.1c-.2.5.2.7,1,.9l-.5,1.6c-2.4-.5-2.8-1.4-2.2-3.1l.7-2.1-.9-.3.6-1.7.9.3.4-1.1h1.9l-.5,1.7,1.2.4-.6,1.7-1.2-.4h-.1Z"/><path d="m214.9,31.39l1.7.8-2.6,5.5-1.7-.8,2.6-5.5Zm.5-1.6c.3-.5.9-.8,1.5-.5.5.3.8.9.5,1.5-.3.5-.9.8-1.5.5-.5-.3-.8-.9-.5-1.5Z"/><path d="m219,37.09c1.2-1.4,3.1-1.6,4.6-.4.9.8,1.3,1.9,1.1,3l-1.8-.3c.1-.5,0-.9-.5-1.3-.6-.5-1.4-.4-2,.2-.5.7-.5,1.5.2,2,.4.3.9.4,1.4.2l.7,1.7c-1,.4-2.2.2-3.1-.5-1.4-1.2-1.6-3.2-.4-4.6h-.2Z"/><path d="m230.6,44.59l-4.8,3.8-1.1-1.4.5-.4c-.6,0-1.2-.3-1.7-1-1-1.3-.7-3.2.7-4.3,1.4-1.1,3.4-1,4.4.3.5.6.7,1.3.5,1.9l.5-.4,1.1,1.4-.1.1Zm-3.5.5c.7-.6.8-1.4.3-2.1-.5-.7-1.4-.8-2.1-.2-.7.6-.8,1.4-.3,2.1s1.4.8,2.1.2Z"/><path d="m233.3,56.09l-3.5,1.4-.7-1.7,3.3-1.4c.6-.2.8-.7.6-1.2-.2-.6-.8-.7-1.4-.4l-3.2,1.3-.7-1.7,3.3-1.4c.6-.2.8-.7.6-1.2-.2-.6-.8-.7-1.4-.4l-3.2,1.3-.7-1.7,5.7-2.3.7,1.7-.5.2c.5.1,1,.5,1.3,1.2s.2,1.3-.1,1.8c.6.1,1.1.5,1.4,1.3.5,1.3,0,2.5-1.5,3.1v.1Z"/><path d="m231.6,61.19c0,.5.3.9.6,1.1l-.7,1.6c-.9-.5-1.4-1.3-1.6-2.5-.2-2.1,1-3.5,2.8-3.8,1.8-.2,3.4.9,3.6,2.9.2,1.8-1,3.3-2.8,3.5h-.7l-.5-4.3c-.6.3-.8.9-.7,1.6v-.1Zm2.3.9c.7-.3.9-.9.8-1.4,0-.7-.5-1.1-1.1-1.2l.3,2.6Z"/><path d="m236.4,68.99h-2.1c.2-.9,0-2-1.3-2l-2.8-.2v-1.8c.1,0,6.2.4,6.2.4v1.8h-1.2c.8.3,1.1,1.1,1.1,1.9l.1-.1Z"/><path d="m234.6,76.59l-5.9-1.5.4-1.8h.6c-.4-.4-.5-1-.3-1.8.4-1.6,2.1-2.5,3.8-2.1,1.8.4,2.8,2.1,2.4,3.6-.2.8-.6,1.3-1.2,1.6h.6c0,.1-.4,1.9-.4,1.9v.1Zm-2.5-2.5c.9.2,1.6-.2,1.8-1.1.2-.8-.2-1.6-1.1-1.8s-1.6.2-1.8,1.1c-.2.8.2,1.6,1.1,1.8Z"/><path class="cls-20" d="m208.5,93.89h-18.1c-.4-1.5-1.2-2.8-2.2-3.9-.3-.3-.3-.4,0-.7,1.3-1.3,2.6-2.5,3.8-3.8,1.2-1.2,1.5-2.9.9-4.4.1-.6,0-1.3,0-1.9-.6-2.3-2.9-3.7-5.1-3.1-.8.2-1.4.6-2,1.1-2.3,2.2-4.5,4.5-6.8,6.8-.4.4-.9.9-1.4,1.3v-35.1c0-1.5.9-2.9,2.3-3.4.4-.1.8-.2,1.3-.2h35.8c2.2,0,3.6,1.4,3.6,3.6v26.5h-8.4c-1.4,0-2.8.8-3.3,2.1-.7,1.6,0,3.6,1.4,4.2h.1c.2.5.6.4.8.7-1.8.4-3,2.2-2.5,4.1.2.9.8,1.7,1.6,2.2h0c.2.4.6.4.8.6-1.6.4-2.6,1.8-2.6,3.4v-.1Zm-6-32.6v-8.5c0-1-.7-1.9-1.7-1.9h-17c-1.3,0-2.1.7-2.1,2v16.7c0,1,.7,1.8,1.7,1.9h17.2c.9,0,1.7-.6,1.8-1.5v-8.8l.1.1Zm7.7-5.2h3.1q1.3,0,1.3-1.3c0-.4-.1-.5-.5-.5h-6.9q-1.3,0-1.3,1.3c0,1.3.1.5.5.4h3.8v.1Zm3.1-5.2h-2.7q-1.2,0-1.2,1.3c0,.4.2.5.5.5h5.9q1.3,0,1.3-1.4c0-.3-.1-.4-.4-.4h-3.4,0Zm-7.4.8c0,1-.2.9.8.9.6,0,.9-.3.9-.9q0-.9-.9-.9c-.9,0-.8,0-.8.8v.1Z"/><path class="cls-10" d="m177.6,85.29c.5-.4.9-.9,1.4-1.3,2.3-2.3,4.5-4.5,6.8-6.8,1.6-1.7,4.3-1.7,6,0,.6.5.9,1.2,1.1,2,.1.6.2,1.3,0,1.9-.3.9-.8,1.8-1.5,2.5-2,1.9-3.9,3.9-5.8,5.8-.3.3-.3.4,0,.7,1,1.1,1.8,2.5,2.2,3.9h-13.2c-.2,0-.4,0-.4-.2,0-1.3-.1-2.5.2-3.7.3-1.2.9-2.3,1.7-3.1l1.5-1.5v-.2Z"/><path class="cls-9" d="m210.2,83.09c-1.4-.6-2.1-2.7-1.4-4.2.5-1.3,1.9-2.2,3.3-2.1h8.4c1.9.2,3,1.1,3.4,2.8-.2,0-.2.1-.2.2-.4.9-1.1,1.6-2,1.9-.6.2-1.2.3-1.8.3h-8.4c-1,0-1.2,0-1.3,1.1Z"/><path class="cls-10" d="m210.2,89.99c-1.6-.9-2.2-3-1.3-4.6.5-.8,1.3-1.4,2.2-1.6.4,0,.7-.1,1.1-.2h8.8c.7.2,1.4.6,1.9,1,.5.5.8,1.1,1,1.8,0,0-.2.1-.2.2-.7,1.7-2.1,2.2-3.7,2.2h-8.6c-1,0-1.2.2-1.2,1.2Z"/><path class="cls-10" d="m208.5,93.89c0-1.6,1.1-3,2.6-3.3.2,0,.5,0,.7-.1,3.1,0,6.3.1,9.4,0,0,.2.2.2.3.2,1.2.4,2.1,1.3,2.4,2.6.2.7,0,.8-.6.8h-14.8v-.2Z"/><path class="cls-25" d="m187.8,93.89c-.4-1.5-1.1-2.8-2.2-3.9-.3-.3-.3-.4,0-.7,2-1.9,3.9-3.9,5.8-5.8.7-.7,1.2-1.5,1.5-2.5.6,1.5.3,3.3-.9,4.4-1.3,1.3-2.6,2.6-3.8,3.8-.3.3-.3.4,0,.7,1,1.1,1.8,2.5,2.2,3.9h-2.6v.1Z"/><path class="cls-5" d="m221.2,90.39c-3.1.2-6.3,0-9.4,0-.2,0-.5,0-.7.1-.3-.2-.6-.2-.8-.5h0c0-1.1.2-1.3,1.2-1.3h8.6c1.7,0,3-.5,3.7-2.2,0,0,.1-.2.2-.2.2,2-.7,3.4-2.4,4h-.3l-.1.1Z"/><path class="cls-5" d="m221,83.59h-8.8c-.4,0-.7,0-1.1.2-.2-.2-.6-.2-.8-.6h-.1c.1-1.1.2-1.3,1.3-1.3h8.4c.6,0,1.2,0,1.8-.3.9-.3,1.6-1,2-1.9,0-.1,0-.2.2-.2.4,1.8-.7,3.5-2.5,4h-.4v.1Z"/><path class="cls-12" d="m202.5,61.29v8.5c0,.9-.6,1.7-1.5,1.8h-17.2c-1,0-1.8-.7-1.9-1.7v-17c0-1.3.7-2,2.1-2h16.7c1,0,1.9.6,1.9,1.6v8.8h-.1Zm-11.2,4.3c0-1.9-1.5-3.4-3.4-3.4s-3.4,1.5-3.4,3.4,1.5,3.4,3.4,3.4h0c1.9,0,3.4-1.5,3.4-3.4Zm0-8.6c0-1.9-1.5-3.4-3.4-3.4s-3.4,1.5-3.4,3.4,1.5,3.4,3.4,3.4,3.4-1.5,3.5-3.3h0l-.1-.1Zm5.1,3.4c1.9,0,3.4-1.5,3.4-3.4s-1.5-3.4-3.4-3.4-3.4,1.5-3.4,3.4h0c0,1.9,1.5,3.4,3.4,3.4h0Zm2.6,5.2v-1.6c0-.5-.3-.9-.7-1h-3.5c-.4,0-.9.3-.9.7v3.5c0,.5.3.9.8.9h3.5c.5,0,.9-.3.9-.8v-1.7h-.1Z"/><path class="cls-15" d="m210.2,56.09h-3.8c-.3,0-.5,0-.5-.4,0-.87.43-1.3,1.3-1.3h6.9c.4,0,.5,0,.5.5,0,.87-.43,1.3-1.3,1.3h-3.1v-.1Z"/><path class="cls-19" d="m213.2,50.89h3.4c.3,0,.4,0,.4.4q0,1.4-1.3,1.4h-5.9c-.4,0-.5,0-.5-.5,0-.87.4-1.3,1.2-1.3h2.7Z"/><path class="cls-19" d="m205.9,51.79c0-.53.27-.8.8-.8s.83.3.9.9q0,.9-.9.9c-1,0-.8,0-.8-.9v-.1Z"/><path class="cls-9" d="m210.2,83.09h.1c0,.1-.1,0-.1,0Z"/><path class="cls-17" d="m191.3,65.59c0,1.9-1.6,3.4-3.5,3.4s-3.4-1.6-3.4-3.5,1.6-3.4,3.4-3.4c1.9,0,3.4,1.6,3.4,3.5h.1Zm-5.1-.5v.4c0,.8.5,1.4,1.2,1.7.9.3,1.9-.2,2.2-1.1.2-.5,0-1.1-.2-1.5-.4-.5-1.1-.8-1.7-.6-1.1,0-1.4.3-1.4,1.2h0l-.1-.1Z"/><path class="cls-17" d="m191.3,56.99c0,1.9-1.5,3.4-3.4,3.4s-3.4-1.5-3.4-3.4,1.5-3.4,3.4-3.4h0c1.9,0,3.4,1.5,3.4,3.4h0Zm-5-.3c-.2.6,0,1.3.6,1.7s1.4.4,2,0c.5-.4.8-1,.7-1.7-.1-.9-.9-1.5-1.8-1.4h-.2c-.5-.2-1.1,0-1.3.6v.7h0v.1Z"/><path class="cls-17" d="m196.4,60.39c-1.9,0-3.4-1.6-3.4-3.5s1.6-3.4,3.5-3.4,3.4,1.6,3.4,3.4c0,1.9-1.6,3.4-3.5,3.4v.1Zm-1.6-3.7c-.3.4,0,.8.2,1.2.4.6,1.1,1,1.8.8.7-.1,1.2-.7,1.3-1.3.2-.8-.2-1.5-.9-1.9-.4-.2-.8-.3-1.3-.2-.9,0-1.4.6-1.2,1.4h.1Z"/><path class="cls-6" d="m199,65.59v1.7c0,.5-.3.9-.8.9h-3.4c-.5,0-.9-.3-.9-.8v-3.5c0-.4.3-.9.7-.9h3.5c.5,0,.9.3.9.8v.2c0,.5,0,1.1,0,1.6Zm-3-.4h1.6c.3,0,.5-.1.5-.5s-.3-.3-.5-.3h-1.3c0-.3-.3-.4-.5-.5-.4,0-.8.3-1,.7-.2.2-.1.6.1.8.4.3.7.1,1-.1h0l.1-.1Zm.4,1.7h1.3c.2,0,.4-.2.4-.4h0c0-.3-.2-.4-.4-.4h-2.5c-.2,0-.4.1-.4.3h0c0,.2.2.4.4.4h1.3l-.1.1Z"/><path class="cls-24" d="m187.5,63.89c.6-.2,1.3,0,1.7.6.6.8.4,1.9-.4,2.4-.4.3-1,.4-1.5.2-.7-.3-1.2-.9-1.2-1.7v-.4c.2.3.5.4.9.3,0,.8.5,1.2,1.1,1,.4-.2.7-.6.5-1.1-.1-.4-.6-.7-1-.6,0-.3,0-.6-.1-.8v.1Z"/><path class="cls-21" d="m187.5,63.89c.2.2.2.5.1.8-.1.3-.4.5-.6.7-.3,0-.7,0-.9-.3,0-.9.3-1.2,1.4-1.2Z"/><path class="cls-24" d="m187.6,55.39c.9-.2,1.7.3,2,1.2v.2c.1.6-.2,1.3-.7,1.7-.6.4-1.4.4-2,0-.5-.4-.8-1.1-.6-1.7.2.2.5.2.8.1,0,.8.5,1.2,1.1,1,.4-.1.6-.5.6-.9,0-.5-.4-.7-1.1-.7.1-.3,0-.6-.1-.8v-.1Z"/><path class="cls-21" d="m187.1,56.79c-.3.1-.6,0-.8-.1-.2-.5,0-1.1.6-1.3h.7c.2.2.2.5.1.8-.2.2-.4.5-.6.6Z"/><path class="cls-24" d="m196,55.29c.4,0,.9,0,1.3.2.7.4,1,1.1.9,1.9-.2.6-.7,1.1-1.3,1.3-.7.1-1.4-.2-1.8-.8-.2-.4-.4-.7-.2-1.2.2.1.5.2.8.2,0,.4.1.8.6.9.4.1.9,0,1-.4.3-.6-.1-1.1-1-1.2,0-.3,0-.7-.3-.9Z"/><path class="cls-21" d="m196,55.29c.3.2.4.6.3.9-.2.3-.4.5-.7.7-.3,0-.5,0-.8-.2-.3-.8.3-1.4,1.2-1.4Z"/><path class="cls-18" d="m196.4,66.79h-1.3c-.2,0-.4-.1-.4-.3h0c0-.2.1-.4.3-.4h2.5c.2,0,.4,0,.4.4,0,.2-.1.4-.4.4h-1.3l.2-.1Z"/><path class="cls-7" d="m196,65.09h0c-.3.2-.6.4-1,.1-.2-.2-.3-.5-.1-.8.2-.4.5-.7,1-.7.3,0,.5.2.5.5s0,.6-.3.8l-.1.1Z"/><path class="cls-18" d="m196,65.09c.2-.2.3-.5.3-.8h1.3c.2,0,.5,0,.5.3s-.2.5-.5.5h-1.6Z"/><path class="cls-17" d="m187,65.39c.2-.2.5-.4.6-.7.4-.1.9.1,1,.6.2.4,0,.9-.5,1.1-.6.2-1.1-.2-1.1-1Z"/><path class="cls-17" d="m187.1,56.79l.6-.6c.6,0,1,.2,1.1.7,0,.4-.2.8-.6.9-.6.2-1.1-.3-1.1-1Z"/><path class="cls-17" d="m195.6,56.79c.3-.2.5-.4.7-.7.8,0,1.2.5,1,1.2-.2.4-.6.6-1,.4-.5,0-.6-.5-.6-.9h-.1Z"/><line class="cls-4" x1="113.6" y1="200.52" x2="146.37" y2="200.02"/><line class="cls-3" x1="113.6" y1="200.52" x2="135.61" y2="200.18"/><polygon class="cls-23" points="133.54 207.69 146.37 200.02 133.31 192.74 133.54 207.69"/><line class="cls-4" x1="286.4" y1="200.52" x2="253.63" y2="200.02"/><line class="cls-3" x1="286.4" y1="200.52" x2="264.39" y2="200.18"/><polygon class="cls-23" points="266.69 192.73 253.63 200.02 266.46 207.69 266.69 192.73"/><circle class="cls-2" cx="59.97" cy="200.27" r="45"/><path d="m24.87,197.77c-2.6-.5-4.3-2.9-3.7-5.6.3-1.6,1.4-2.9,2.8-3.4l.7,2c-.8.3-1.3.9-1.5,1.9-.3,1.6.5,2.8,2.1,3.1,1.6.3,2.9-.5,3.2-2.1.2-.9,0-1.8-.7-2.3l1.4-1.6c1.1,1,1.6,2.6,1.3,4.2-.5,2.7-2.9,4.2-5.6,3.7v.1Z"/><path d="m28.27,188.67c-1.7-.9-2.4-2.9-1.6-4.6.8-1.7,2.9-2.4,4.6-1.6,1.7.9,2.4,2.9,1.6,4.6-.8,1.7-2.9,2.4-4.6,1.6Zm2.2-4.4c-.8-.4-1.7,0-2,.7s-.1,1.6.7,2c.8.4,1.7,0,2-.7.4-.8.1-1.6-.7-2Z"/><path d="m37.97,173.47l2.9,2.7-1.3,1.4-2.8-2.6c-.5-.4-1-.5-1.4,0s-.4,1.1.2,1.6l2.7,2.5-1.3,1.4-2.8-2.6c-.5-.4-1-.5-1.4,0s-.4,1.1.2,1.6l2.7,2.5-1.3,1.4-4.8-4.4,1.3-1.4.4.4c-.1-.5,0-1.2.6-1.8.5-.6,1.1-.8,1.8-.7-.1-.6,0-1.3.6-2,1-1.1,2.5-1.1,3.7,0Z"/><path d="m43.57,167.17l3.4,5.6-1.7,1-.3-.5c0,.6-.4,1.2-1.2,1.6-1.1.7-2.6.5-3.5-1l-2.1-3.4,1.7-1,1.9,3.2c.4.7,1,.8,1.6.4s.8-1,.3-1.8l-1.8-3,1.7-1v-.1Z"/><path d="m52.47,166.57l1.2,3.8-1.9.6-1.1-3.5c-.2-.8-.8-1-1.4-.8-.7.2-1,.8-.7,1.6l1.1,3.4-1.9.6-2-6.2,1.9-.6.2.6c.2-.6.7-1.1,1.5-1.3,1.2-.4,2.6.2,3.1,1.8Z"/><path d="m53.37,162.27c0-.6.4-1.2,1-1.3.6,0,1.2.4,1.3,1,0,.6-.4,1.2-1,1.3-.6,0-1.2-.4-1.3-1Zm.4,1.7l1.9-.3.9,6.4-1.9.3-.9-6.4Z"/><path d="m57.47,166.67c0-1.9,1.5-3.4,3.5-3.4,1.3,0,2.4.7,2.9,1.7l-1.7,1c-.2-.5-.7-.7-1.2-.8-.8,0-1.5.6-1.5,1.5s.6,1.5,1.4,1.5c.6,0,1.1-.3,1.3-.7l1.7,1c-.6,1-1.7,1.6-3,1.6-2,0-3.4-1.6-3.4-3.5v.1Z"/><path d="m71.97,165.27l-1.6,6.3-1.9-.5v-.6c-.4.4-1.1.5-1.9.3-1.7-.4-2.7-2.2-2.2-4.1s2.2-3,3.8-2.6c.8.2,1.4.6,1.7,1.2v-.6c.1,0,2,.5,2,.5l.1.1Zm-2.7,2.7c.2-.9-.3-1.7-1.1-1.9-.9-.2-1.6.2-1.9,1.2-.2.9.3,1.7,1.1,1.9.9.2,1.6-.2,1.9-1.2Z"/><path d="m75.57,168.97l-1,2.1c-.2.5.2.8,1,1.1l-.8,1.6c-2.4-.9-2.8-1.9-2-3.5l1-2.1-.9-.4.8-1.7.9.4.5-1.1,2,.3-.8,1.6,1.2.6-.8,1.7-1.2-.6h.1Z"/><path d="m78.97,168.67l1.6,1-3.5,5.5-1.6-1,3.5-5.5Zm.8-1.6c.3-.5,1.1-.7,1.6-.4.5.3.7,1.1.4,1.6s-1.1.7-1.6.4c-.5-.3-.7-1.1-.4-1.6Z"/><path d="m80.07,173.17c1.3-1.4,3.4-1.5,4.9-.2,1.4,1.3,1.5,3.4.2,4.9-1.3,1.4-3.4,1.5-4.9.2-1.4-1.3-1.5-3.4-.2-4.9Zm3.7,3.3c.6-.7.6-1.6,0-2.1-.6-.6-1.5-.6-2.1.1s-.6,1.6,0,2.1,1.5.6,2.1-.1Z"/><path d="m90.17,183.57l-3.3,2.2-1.1-1.6,3.1-2.1c.7-.5.7-1.1.3-1.6-.4-.6-1-.8-1.8-.2l-2.9,2-1.1-1.6,5.4-3.7,1.1,1.6-.5.3c.6,0,1.2.4,1.7,1.1.7,1.1.6,2.5-.9,3.5v.1Z"/><path d="m92.07,191.27c-1.9.7-3.4-.3-4-2-.5-1.3-.4-2.7.6-3.7l1.6,1.3c-.5.4-.7.9-.4,1.7.3.8.9,1,1.4.8s.8-.7.5-1.5l-1-2.7,5-1.6,1.9,4.9-1.8.7-1.2-3.1-1.2.4.3.7c.6,1.6.2,3.3-1.7,4v.1Z"/><path d="m94.87,201.37c-2.8.3-4.6-1.5-4.9-4-.3-2.8,1.6-5.1,4.2-5.4,2.6-.3,4.9,1.6,5.2,4.3.2,1.7-.5,3.3-1.7,4.2l-1.2-1.7c.6-.4.9-1.3.8-2.3-.2-1.5-1.4-2.5-3-2.4-1.5.2-2.6,1.4-2.4,3.1.1,1.2.7,1.9,1.6,2.2l-.3-2.4,1.8-.2.5,4.5h-.8l.2.1Z"/><path class="cls-11" d="m71.87,187.37c-8.5-.2-17.8-.2-26.3,0-14.8,1.9-22,20.9-11.6,31.8,2.2,3.3-1.6,9.5,2.3,11.8,3.3,1,5.2-3.4,7.4-5.1,9.2-1,20.3.5,29.8-.5,22.1-2.9,20.7-37.2-1.6-38.2v.2Z"/><path d="m49.97,203.67c1.7,0,3.2.5,4.4,1.5s1.7,2.5,1.7,4.3-.6,3.4-1.9,4.5c-1.3,1.1-2.8,1.6-4.7,1.6s-2.9-.3-4.1-1c-1.2-.7-2-1.7-2.5-3l4-2.3c.4,1.2,1.2,1.9,2.6,1.9s1.1-.1,1.5-.4c.3-.3.5-.7.5-1.2s-.2-.9-.5-1.2-.8-.4-1.4-.4h-5.7l.7-10.5h10.5v4.4h-6.3v1.9c-.1,0,1.1,0,1.1,0l.1-.1Z"/><path d="m75.67,204.97v1.8c0,2.6-.8,4.7-2.5,6.4-1.6,1.6-3.8,2.4-6.4,2.4s-5.1-.9-6.9-2.7c-1.8-1.8-2.7-4-2.7-6.6s.9-4.8,2.7-6.6,4-2.7,6.6-2.7,3.2.4,4.6,1.1c1.4.7,2.5,1.7,3.2,3l-3.9,2.2c-.4-.6-.9-1-1.6-1.3s-1.5-.5-2.3-.5c-1.4,0-2.6.5-3.5,1.4s-1.4,2.1-1.4,3.5.4,2.5,1.3,3.5c.9,1,2.1,1.4,3.8,1.4s3.4-.8,4.1-2.3h-4.3v-3.9h9l.2-.1Z"/><path class="cls-22" d="m213.18,193.1c.5,0,.99.02,1.49.02.84,0,1.54.69,1.55,1.54,0,.78,0,1.56,0,2.33,0,6.58,0,13.16,0,19.75,0,.43-.02.86-.15,1.28-.15.49-.75.93-1.27.93-5.57,0-11.15,0-16.72,0-.03,0-.05,0-.08,0,0-1.51,0-3.03,0-4.54,1.16,0,2.32,0,3.48-.01.15,0,.32.04.32-.21,0-.57.05-1.16-.08-1.71-.36-1.48-.79-2.95-1.17-4.43-.1-.4-.22-.79-.36-1.18-.22-.61.19-.92.56-1.25.6-.55.85-1.24.99-2.03.3-1.66-1.1-3.65-2.68-4.16-.05-.09-.12-.13-.22-.08-.08-.02-.16-.04-.24-.05-.04-.05-.08-.07-.14-.03-.15-.02-.31-.04-.46-.07,0-2.01,0-4.03,0-6.04,2.86,0,5.71,0,8.57-.02.18,0,.36-.01.53-.02,1.02.03,2.04.05,3.07,0,1,.06,2,.04,3.01,0Z"/><path class="cls-13" d="m198,214.39c0,1.51,0,3.03,0,4.54-.57,0-1.15.01-1.72.01-4.86,0-9.72-.02-14.58.02-1.28.01-1.94-.69-1.94-1.94.04-7.44.03-14.88,0-22.32,0-.89.72-1.6,1.57-1.59.5,0,.99-.01,1.49-.02,1,.03,2,.05,3-.01,1.02.06,2.04.03,3.06.01.17,0,.33.02.5.02,2.87,0,5.74,0,8.61.01,0,2.01,0,4.03,0,6.04-.32.15-.68.08-1.02.21-1.42.55-2.36,1.51-2.7,3.02-.06.03-.11.07-.03.14-.11,1.25.02,2.39,1.14,3.22.35.26.49.65.35,1.14-.09.3-.2.59-.27.9-.2.84-.42,1.66-.64,2.49-.16.61-.35,1.22-.5,1.83-.15.61-.11,1.23-.13,1.85-.01.31.07.42.4.41,1.14-.02,2.27,0,3.41,0Z"/><path class="cls-16" d="m185.83,193.09c-1,.06-2,.04-3,.01,0-2.7-.02-5.41.02-8.11.02-1.25.19-2.49.55-3.71.44-1.46,1.06-2.83,1.9-4.1,1.05-1.58,2.35-2.94,3.9-4.05,1.02-.73,2.09-1.38,3.27-1.78,1.17-.41,2.35-.81,3.61-.9.71-.05,1.41-.16,2.12-.14,1.77.03,3.47.38,5.13,1,1.65.62,3.14,1.52,4.5,2.65,1.17.97,2.13,2.12,2.94,3.4.58.9,1.03,1.86,1.42,2.87.21.55.36,1.12.55,1.68.17.51.21,1.06.27,1.6.35,3.19.08,6.39.17,9.58-1,.04-2,.05-3,0,0-2.28-.02-4.57.01-6.85.02-1.31-.15-2.6-.47-3.87-.45-1.78-1.28-3.39-2.48-4.76-1.47-1.68-3.26-2.95-5.42-3.64-1.53-.49-3.08-.64-4.69-.54-1.49.09-2.89.44-4.22,1.06-2.21,1.03-3.95,2.61-5.24,4.69-1.11,1.79-1.72,3.76-1.8,5.84-.1,2.69-.02,5.38-.02,8.08Z"/><path class="cls-8" d="m207.11,193.1c0-2.42.02-4.85,0-7.27-.01-1.29-.19-2.56-.71-3.76-.41-.95-.96-1.81-1.64-2.6-1.01-1.18-2.27-1.99-3.7-2.51-1.32-.48-2.7-.64-4.13-.46-.87.11-1.71.31-2.49.65-2.18.95-3.78,2.51-4.77,4.69-.46,1.02-.65,2.09-.7,3.2-.13,2.69-.02,5.38-.06,8.06-1.02.02-2.04.04-3.06-.01,0-2.69-.08-5.39.02-8.08.08-2.08.68-4.05,1.8-5.84,1.29-2.08,3.03-3.66,5.24-4.69,1.33-.62,2.73-.97,4.22-1.06,1.61-.09,3.16.06,4.69.54,2.16.69,3.94,1.95,5.42,3.64,1.2,1.38,2.03,2.98,2.48,4.76.32,1.27.49,2.55.47,3.87-.03,2.28-.01,4.57-.01,6.85-1.02.05-2.04.04-3.07,0Z"/><path class="cls-14" d="m198,214.39c-1.14,0-2.27-.02-3.41,0-.33,0-.41-.1-.4-.41.02-.62-.01-1.25.13-1.85.15-.62.34-1.22.5-1.83.22-.83.44-1.66.64-2.49.07-.31.18-.6.27-.9.14-.49,0-.88-.35-1.14-1.12-.83-1.25-1.97-1.14-3.22.06-.03.06-.08.03-.14.34-1.51,1.28-2.47,2.7-3.02.34-.13.7-.05,1.02-.21.15.02.31.04.46.07.03.08.07.12.14.03.08.02.16.04.24.05.04.11.14.08.22.08,1.58.51,2.98,2.5,2.68,4.16-.14.79-.4,1.48-.99,2.03-.36.33-.78.65-.56,1.25.14.39.25.78.36,1.18.38,1.48.81,2.94,1.17,4.43.13.55.09,1.14.08,1.71,0,.25-.17.21-.32.21-1.16,0-2.32,0-3.48.01Z"/><path class="cls-8" d="m199.07,199.41c-.09,0-.18.03-.22-.08.1-.05.17,0,.22.08Z"/><path class="cls-8" d="m198.6,199.28c-.07.09-.11.05-.14-.03.06-.03.1-.02.14.03Z"/><path class="cls-16" d="m194.28,202.4c.03.06.03.1-.03.14-.08-.07-.03-.1.03-.14Z"/><circle class="cls-1" cx="198.13" cy="196.94" r="39.02"/><path class="cls-22" d="m351.18,195.1c.5,0,.99.02,1.49.02.84,0,1.54.69,1.55,1.54,0,.78,0,1.56,0,2.33,0,6.58,0,13.16,0,19.75,0,.43-.02.86-.15,1.28-.15.49-.75.93-1.27.93-5.57,0-11.15,0-16.72,0-.03,0-.05,0-.08,0,0-1.51,0-3.03,0-4.54,1.16,0,2.32,0,3.48-.01.15,0,.32.04.32-.21,0-.57.05-1.16-.08-1.71-.36-1.48-.79-2.95-1.17-4.43-.1-.4-.22-.79-.36-1.18-.22-.61.19-.92.56-1.25.6-.55.85-1.24.99-2.03.3-1.66-1.1-3.65-2.68-4.16-.05-.09-.12-.13-.22-.08-.08-.02-.16-.04-.24-.05-.04-.05-.08-.07-.14-.03-.15-.02-.31-.04-.46-.07,0-2.01,0-4.03,0-6.04,2.86,0,5.71,0,8.57-.02.18,0,.36-.01.53-.02,1.02.03,2.04.05,3.07,0,1,.06,2,.04,3.01,0Z"/><path class="cls-13" d="m336,216.39c0,1.51,0,3.03,0,4.54-.57,0-1.15.01-1.72.01-4.86,0-9.72-.02-14.58.02-1.28.01-1.94-.69-1.94-1.94.04-7.44.03-14.88,0-22.32,0-.89.72-1.6,1.57-1.59.5,0,.99-.01,1.49-.02,1,.03,2,.05,3-.01,1.02.06,2.04.03,3.06.01.17,0,.33.02.5.02,2.87,0,5.74,0,8.61.01,0,2.01,0,4.03,0,6.04-.32.15-.68.08-1.02.21-1.42.55-2.36,1.51-2.7,3.02-.06.03-.11.07-.03.14-.11,1.25.02,2.39,1.14,3.22.35.26.49.65.35,1.14-.09.3-.2.59-.27.9-.2.84-.42,1.66-.64,2.49-.16.61-.35,1.22-.5,1.83-.15.61-.11,1.23-.13,1.85-.01.31.07.42.4.41,1.14-.02,2.27,0,3.41,0Z"/><path class="cls-16" d="m323.83,195.09c-1,.06-2,.04-3,.01,0-2.7-.02-5.41.02-8.11.02-1.25.19-2.49.55-3.71.44-1.46,1.06-2.83,1.9-4.1,1.05-1.58,2.35-2.94,3.9-4.05,1.02-.73,2.09-1.38,3.27-1.78,1.17-.41,2.35-.81,3.61-.9.71-.05,1.41-.16,2.12-.14,1.77.03,3.47.38,5.13,1,1.65.62,3.14,1.52,4.5,2.65,1.17.97,2.13,2.12,2.94,3.4.58.9,1.03,1.86,1.42,2.87.21.55.36,1.12.55,1.68.17.51.21,1.06.27,1.6.35,3.19.08,6.39.17,9.58-1,.04-2,.05-3,0,0-2.28-.02-4.57.01-6.85.02-1.31-.15-2.6-.47-3.87-.45-1.78-1.28-3.39-2.48-4.76-1.47-1.68-3.26-2.95-5.42-3.64-1.53-.49-3.08-.64-4.69-.54-1.49.09-2.89.44-4.22,1.06-2.21,1.03-3.95,2.61-5.24,4.69-1.11,1.79-1.72,3.76-1.8,5.84-.1,2.69-.02,5.38-.02,8.08Z"/><path class="cls-8" d="m345.11,195.1c0-2.42.02-4.85,0-7.27-.01-1.29-.19-2.56-.71-3.76-.41-.95-.96-1.81-1.64-2.6-1.01-1.18-2.27-1.99-3.7-2.51-1.32-.48-2.7-.64-4.13-.46-.87.11-1.71.31-2.49.65-2.18.95-3.78,2.51-4.77,4.69-.46,1.02-.65,2.09-.7,3.2-.13,2.69-.02,5.38-.06,8.06-1.02.02-2.04.04-3.06-.01,0-2.69-.08-5.39.02-8.08.08-2.08.68-4.05,1.8-5.84,1.29-2.08,3.03-3.66,5.24-4.69,1.33-.62,2.73-.97,4.22-1.06,1.61-.09,3.16.06,4.69.54,2.16.69,3.94,1.95,5.42,3.64,1.2,1.38,2.03,2.98,2.48,4.76.32,1.27.49,2.55.47,3.87-.03,2.28-.01,4.57-.01,6.85-1.02.05-2.04.04-3.07,0Z"/><path class="cls-14" d="m336,216.39c-1.14,0-2.27-.02-3.41,0-.33,0-.41-.1-.4-.41.02-.62-.01-1.25.13-1.85.15-.62.34-1.22.5-1.83.22-.83.44-1.66.64-2.49.07-.31.18-.6.27-.9.14-.49,0-.88-.35-1.14-1.12-.83-1.25-1.97-1.14-3.22.06-.03.06-.08.03-.14.34-1.51,1.28-2.47,2.7-3.02.34-.13.7-.05,1.02-.21.15.02.31.04.46.07.03.08.07.12.14.03.08.02.16.04.24.05.04.11.14.08.22.08,1.58.51,2.98,2.5,2.68,4.16-.14.79-.4,1.48-.99,2.03-.36.33-.78.65-.56,1.25.14.39.25.78.36,1.18.38,1.48.81,2.94,1.17,4.43.13.55.09,1.14.08,1.71,0,.25-.17.21-.32.21-1.16,0-2.32,0-3.48.01Z"/><path class="cls-8" d="m337.07,201.41c-.09,0-.18.03-.22-.08.1-.05.17,0,.22.08Z"/><path class="cls-8" d="m336.6,201.28c-.07.09-.11.05-.14-.03.06-.03.1-.02.14.03Z"/><path class="cls-16" d="m332.28,204.4c.03.06.03.1-.03.14-.08-.07-.03-.1.03-.14Z"/><circle class="cls-1" cx="336.13" cy="198.94" r="39.02"/><path class="cls-22" d="m210.18,335.1c.5,0,.99.02,1.49.02.84,0,1.54.69,1.55,1.54,0,.78,0,1.56,0,2.33,0,6.58,0,13.16,0,19.75,0,.43-.02.86-.15,1.28-.15.49-.75.93-1.27.93-5.57,0-11.15,0-16.72,0-.03,0-.05,0-.08,0,0-1.51,0-3.03,0-4.54,1.16,0,2.32,0,3.48-.01.15,0,.32.04.32-.21,0-.57.05-1.16-.08-1.71-.36-1.48-.79-2.95-1.17-4.43-.1-.4-.22-.79-.36-1.18-.22-.61.19-.92.56-1.25.6-.55.85-1.24.99-2.03.3-1.66-1.1-3.65-2.68-4.16-.05-.09-.12-.13-.22-.08-.08-.02-.16-.04-.24-.05-.04-.05-.08-.07-.14-.03-.15-.02-.31-.04-.46-.07,0-2.01,0-4.03,0-6.04,2.86,0,5.71,0,8.57-.02.18,0,.36-.01.53-.02,1.02.03,2.04.05,3.07,0,1,.06,2,.04,3.01,0Z"/><path class="cls-13" d="m195,356.39c0,1.51,0,3.03,0,4.54-.57,0-1.15.01-1.72.01-4.86,0-9.72-.02-14.58.02-1.28.01-1.94-.69-1.94-1.94.04-7.44.03-14.88,0-22.32,0-.89.72-1.6,1.57-1.59.5,0,.99-.01,1.49-.02,1,.03,2,.05,3-.01,1.02.06,2.04.03,3.06.01.17,0,.33.02.5.02,2.87,0,5.74,0,8.61.01,0,2.01,0,4.03,0,6.04-.32.15-.68.08-1.02.21-1.42.55-2.36,1.51-2.7,3.02-.06.03-.11.07-.03.14-.11,1.25.02,2.39,1.14,3.22.35.26.49.65.35,1.14-.09.3-.2.59-.27.9-.2.84-.42,1.66-.64,2.49-.16.61-.35,1.22-.5,1.83-.15.61-.11,1.23-.13,1.85-.01.31.07.42.4.41,1.14-.02,2.27,0,3.41,0Z"/><path class="cls-16" d="m182.83,335.09c-1,.06-2,.04-3,.01,0-2.7-.02-5.41.02-8.11.02-1.25.19-2.49.55-3.71.44-1.46,1.06-2.83,1.9-4.1,1.05-1.58,2.35-2.94,3.9-4.05,1.02-.73,2.09-1.38,3.27-1.78,1.17-.41,2.35-.81,3.61-.9.71-.05,1.41-.16,2.12-.14,1.77.03,3.47.38,5.13,1,1.65.62,3.14,1.52,4.5,2.65,1.17.97,2.13,2.12,2.94,3.4.58.9,1.03,1.86,1.42,2.87.21.55.36,1.12.55,1.68.17.51.21,1.06.27,1.6.35,3.19.08,6.39.17,9.58-1,.04-2,.05-3,0,0-2.28-.02-4.57.01-6.85.02-1.31-.15-2.6-.47-3.87-.45-1.78-1.28-3.39-2.48-4.76-1.47-1.68-3.26-2.95-5.42-3.64-1.53-.49-3.08-.64-4.69-.54-1.49.09-2.89.44-4.22,1.06-2.21,1.03-3.95,2.61-5.24,4.69-1.11,1.79-1.72,3.76-1.8,5.84-.1,2.69-.02,5.38-.02,8.08Z"/><path class="cls-8" d="m204.11,335.1c0-2.42.02-4.85,0-7.27-.01-1.29-.19-2.56-.71-3.76-.41-.95-.96-1.81-1.64-2.6-1.01-1.18-2.27-1.99-3.7-2.51-1.32-.48-2.7-.64-4.13-.46-.87.11-1.71.31-2.49.65-2.18.95-3.78,2.51-4.77,4.69-.46,1.02-.65,2.09-.7,3.2-.13,2.69-.02,5.38-.06,8.06-1.02.02-2.04.04-3.06-.01,0-2.69-.08-5.39.02-8.08.08-2.08.68-4.05,1.8-5.84,1.29-2.08,3.03-3.66,5.24-4.69,1.33-.62,2.73-.97,4.22-1.06,1.61-.09,3.16.06,4.69.54,2.16.69,3.94,1.95,5.42,3.64,1.2,1.38,2.03,2.98,2.48,4.76.32,1.27.49,2.55.47,3.87-.03,2.28-.01,4.57-.01,6.85-1.02.05-2.04.04-3.07,0Z"/><path class="cls-14" d="m195,356.39c-1.14,0-2.27-.02-3.41,0-.33,0-.41-.1-.4-.41.02-.62-.01-1.25.13-1.85.15-.62.34-1.22.5-1.83.22-.83.44-1.66.64-2.49.07-.31.18-.6.27-.9.14-.49,0-.88-.35-1.14-1.12-.83-1.25-1.97-1.14-3.22.06-.03.06-.08.03-.14.34-1.51,1.28-2.47,2.7-3.02.34-.13.7-.05,1.02-.21.15.02.31.04.46.07.03.08.07.12.14.03.08.02.16.04.24.05.04.11.14.08.22.08,1.58.51,2.98,2.5,2.68,4.16-.14.79-.4,1.48-.99,2.03-.36.33-.78.65-.56,1.25.14.39.25.78.36,1.18.38,1.48.81,2.94,1.17,4.43.13.55.09,1.14.08,1.71,0,.25-.17.21-.32.21-1.16,0-2.32,0-3.48.01Z"/><path class="cls-8" d="m196.07,341.41c-.09,0-.18.03-.22-.08.1-.05.17,0,.22.08Z"/><path class="cls-8" d="m195.6,341.28c-.07.09-.11.05-.14-.03.06-.03.1-.02.14.03Z"/><path class="cls-16" d="m191.28,344.4c.03.06.03.1-.03.14-.08-.07-.03-.1.03-.14Z"/><circle class="cls-1" cx="195.13" cy="338.94" r="39.02"/></svg>