<?xml version="1.0" encoding="UTF-8"?><svg id="Layer_1" xmlns="http://www.w3.org/2000/svg" viewBox="0 0 400 400"><defs><style>.cls-1{stroke:#a5262d;}.cls-1,.cls-2,.cls-3{stroke-width:4px;}.cls-1,.cls-2,.cls-3,.cls-4{fill:none;stroke-miterlimit:10;}.cls-2{stroke:#000;}.cls-5{fill:#fff;}.cls-6{fill:#90b9e0;}.cls-3{stroke:#0018c6;}.cls-7{fill:#8ac5cd;}.cls-8{fill:#546e7a;}.cls-9{fill:#364a5f;}.cls-10{fill:#90bae0;}.cls-11{fill:#afd2ef;}.cls-12{fill:#ffed58;}.cls-13{fill:#c69c6d;}.cls-14{fill:#fcd6ac;}.cls-4{stroke:#231f20;stroke-width:2px;}.cls-15{fill:#36464e;}.cls-16{fill:#3b566a;}.cls-17{fill:#b2d3d9;}.cls-18{fill:#4582c2;}.cls-19{fill:#607890;}.cls-20{fill:#cbb293;}.cls-21{fill:#374b60;}.cls-22{fill:#fcd6ad;}.cls-23{fill:#b3d4da;}.cls-24{fill:#788f9b;}.cls-25{fill:#484645;}.cls-26{fill:#637889;}.cls-27{fill:#fde6cd;}.cls-28{fill:#88c4cc;}.cls-29{fill:#2f4859;}.cls-30{fill:#cbb292;}.cls-31{fill:#304959;}.cls-32{fill:#fbd734;}.cls-33{fill:#231f20;}.cls-34{fill:#e2c8aa;}</style></defs><circle class="cls-1" cx="197.68" cy="200.97" r="45"/><path d="m171.58,185.37l1-3c1.1.5,2.3.6,3.5-.5,1.1-1,1-1.7.7-2.1-.6-.6-1.4-.4-3.4.6-1.9.9-4.1,1.5-5.9-.5-1.8-2-1.1-4.7.7-6.3,1.7-1.5,3.8-1.9,5.9-1l-1,3c-1-.4-1.9-.5-2.9.4-.8.7-.8,1.4-.4,1.8.4.5,1,.6,3-.4,2-.9,4.3-1.9,6.2.3,1.8,2,1.2,4.7-1.1,6.7-2.2,1.9-4.5,2.1-6.5,1.1l.2-.1Z"/><path d="m176.58,169.47c-.4-.9,0-2,.8-2.4.9-.4,2,0,2.4.8.4.9,0,2-.8,2.4-.9.4-2,0-2.4-.8Zm1.5,2.3l2.7-1.4,4.5,8.9-2.7,1.4-4.5-8.9Z"/><path d="m182.38,164.77l2.9-.9,4.5,13.9-2.9.9-4.5-13.9Z"/><path d="m188.98,164.87c-.2-1,.5-1.9,1.5-2.1,1-.2,1.9.5,2.1,1.5.2,1-.5,1.9-1.5,2.1-1,.2-1.9-.5-2.1-1.5Zm.7,2.6l3-.5,1.6,9.9-3,.5-1.6-9.9Z"/><path d="m195.58,171.47c.2-3,2.6-5.1,5.7-4.9,1.9.1,3.6,1.3,4.3,2.9l-2.7,1.3c-.3-.7-1-1.2-1.9-1.3-1.3,0-2.3.8-2.4,2.1-.1,1.4.8,2.4,2.1,2.5.9,0,1.6-.3,2-1l2.5,1.7c-1,1.5-2.7,2.4-4.7,2.2-3-.2-5.1-2.7-4.9-5.7v.2Z"/><path d="m206.48,172.47c1.2-2.7,4.2-4,6.9-2.8,2.7,1.1,4,4.2,2.8,6.9-1.2,2.7-4.2,4-6.9,2.8-2.7-1.1-4-4.2-2.8-6.9Zm7,2.9c.5-1.3,0-2.6-1.2-3.1-1.2-.5-2.5,0-3,1.3-.6,1.3,0,2.6,1.2,3.1,1.2.5,2.5,0,3-1.3Z"/><path d="m225.98,183.57l-4.2,4.5-2.2-2,3.9-4.2c.8-.9.7-1.9,0-2.5-.8-.7-1.8-.8-2.8.3l-3.7,4-2.2-2,6.8-7.4,2.2,2-.6.7c.9-.2,2,.1,2.9,1,1.5,1.4,1.8,3.6,0,5.6h-.1Z"/><rect class="cls-13" x="170.78" y="191.47" width="52" height="37" rx="2.9" ry="2.9"/><path class="cls-25" d="m192.98,222.57c-2.5,0-4.6-.5-6.2-1.6s-2.8-2.5-3.4-4.3l5.2-3c.9,2.1,2.4,3.1,4.7,3.1s2.8-.5,2.8-1.6-.5-1.2-1.6-1.7c-.4-.2-1.4-.5-3-.9-2.2-.6-3.9-1.5-5.1-2.7-1.3-1.1-1.9-2.7-1.9-4.7s.8-4,2.3-5.3c1.6-1.4,3.5-2,5.9-2s3.7.5,5.3,1.4c1.5.9,2.7,2.3,3.5,4l-5.1,3c-.7-1.8-2-2.6-3.7-2.6s-1.3.1-1.6.4c-.4.3-.6.7-.6,1.1s.3,1,.8,1.3c.5.4,1.6.8,3.2,1.3,1.1.4,2,.7,2.8,1,.7.3,1.5.7,2.3,1.2.8.6,1.5,1.3,1.9,2.1.4.9.6,1.9.6,3,0,2.3-.8,4.1-2.5,5.4-1.6,1.3-3.8,2-6.5,2l-.1.1Z"/><path class="cls-25" d="m209.18,202.87c-.6.6-1.4,1-2.3,1s-1.6-.3-2.3-1-1-1.4-1-2.3.3-1.6,1-2.3c.6-.6,1.4-.9,2.3-.9s1.6.3,2.3.9c.6.6,1,1.4,1,2.3s-.3,1.6-1,2.3Zm-5.1,19.2v-16.9h5.6v16.9h-5.6Z"/><circle class="cls-3" cx="110.29" cy="335.35" r="36"/><path class="cls-14" d="m131.89,357.19v.64c-.15.43-.43.79-.8,1.04l-7.68,5.28c-.7.49-1.66.32-2.15-.38,0,0,0-.01-.01-.02-.24-.4-.56-.8-.8-1.2-.48-1-1.54-1.58-2.64-1.44-1.5.13-2.93-.62-3.68-1.92-.72-1.04-1.36-2.08-2.08-3.12-.08-.16-.16-.32-.32-.32,0-.15-.06-.29-.16-.4-.56-.88-1.12-1.68-1.68-2.56-.84-1.17-.57-2.81.6-3.65.01,0,.03-.02.04-.03.36-.25.71-.51,1.04-.8.16,0,.24.16.32.24.8,1.12,1.52,2.32,2.32,3.44l1.92,2.88c.23.33.68.44,1.04.24.33-.24.4-.71.16-1.04,0,0,0,0,0,0,0-.08-.08-.16-.16-.24-2.56-3.68-5.04-7.36-7.6-11.12-1.6-2.4-3.28-4.8-4.88-7.2-.35-.46-.55-1.02-.56-1.6,0-.24.24-.48.08-.8v-.16c.9-.41,1.96-.15,2.56.64.46.73.97,1.42,1.52,2.08.96,1.36,1.84,2.72,2.8,4.08.27.48.6.94.96,1.36h0s0,.16.08.16c.21.34.45.66.72.96.24.24.64.24.88,0,.32-.24.32-.64,0-1.04-.45-.57-.67-1.28-.64-2,0-.24.24-.4.08-.56.89-.46,1.99-.18,2.56.64.14.27.33.52.56.72.18.43.42.84.72,1.2.26.24.64.31.96.16.31-.21.42-.63.24-.96-.11-.2-.24-.39-.4-.56-.4-.58-.55-1.31-.4-2v-.32c.62-.36,1.38-.36,2,0,.56.32.8.88,1.2,1.28h0c.19.4.43.78.72,1.12.24.24.64.24.88,0,.23-.17.35-.44.32-.72-.03-.2-.11-.4-.24-.56-.47-.55-.67-1.28-.56-2v-.64c.96-.41,2.07-.07,2.64.8,1.52,2.24,3.04,4.4,4.48,6.64,1.15,1.85,1.89,3.92,2.16,6.08.17,1.54.23,3.09.16,4.64-.04.92.19,1.84.64,2.64l.08.4Zm-2.32-.08c0-.25-.16-.48-.4-.56-.25-.12-.55-.12-.8,0-.8.56-1.6,1.04-2.4,1.6-.34.17-.48.59-.31.94.02.04.04.07.07.1.24.33.71.4,1.04.16,0,0,0,0,0,0,.8-.56,1.6-1.12,2.4-1.6.24-.12.4-.37.4-.64Zm-4.88,3.36c.04-.36-.21-.68-.57-.72-.14-.02-.27.01-.39.08-.26.13-.5.29-.72.48-.24.26-.31.64-.16.96.2.31.61.39.92.19.01,0,.03-.02.04-.03.23-.14.44-.3.64-.48.16-.16.24-.24.16-.4l.08-.08Z"/><path class="cls-11" d="m95.89,335.99v-10.24c-.03-1,.63-1.89,1.6-2.16h2.32c.3.39.44.87.4,1.36-.06.78.52,1.45,1.29,1.52.05,0,.1,0,.15,0h5.52c.78.05,1.47-.54,1.52-1.32,0-.07,0-.13,0-.2-.07-.49.08-.98.4-1.36h2.08c.54.14,1.02.45,1.36.88.16.17.25.4.24.64-.64.56-1.28,1.2-1.84,1.76-1.04,1.12-2,2.24-2.96,3.44-.16.31-.41.56-.72.72-.84-.78-1.98-1.16-3.12-1.04-2.09.17-3.75,1.83-3.92,3.92-.1,1.76.88,3.41,2.48,4.16-.32.64-.72,1.36-1.04,2-.8,1.52-1.52,3.12-2.16,4.64-.93,2.25-1.75,4.55-2.44,6.88-.32,1.04-.56,2.08-.88,3.12-.13-.3-.19-.63-.16-.96v-8.32c.08-.24.24-.48.32-.72.54-1.25.89-2.57,1.04-3.92.24-1.76.08-3.44-1.36-4.72l-.12-.08Z"/><path class="cls-9" d="m109.05,323.51c-.33.37-.48.87-.4,1.36.05.78-.54,1.47-1.32,1.52-.07,0-.13,0-.2,0h-5.52c-.78.02-1.42-.59-1.44-1.37,0-.05,0-.1,0-.15.07-.49-.08-.98-.4-1.36h9.28Z"/><path class="cls-19" d="m108.85,323.51c-.08.08-.24,0-.4,0h.4Z"/><path class="cls-6" d="m96.05,354.63c.32-1.04.56-2.08.88-3.12.71-2.33,1.53-4.63,2.48-6.88.64-1.58,1.36-3.13,2.16-4.64.32-.64.72-1.36,1.04-2,.16,0,.32.16.48.16.53.21,1.12.27,1.68.16,0,.08.16.16.16.24,1.92,2.8,3.84,5.68,5.76,8.48.34.42.63.88.88,1.36-.33.29-.68.55-1.04.8-1.19.82-1.49,2.45-.67,3.64,0,.01.02.03.03.04.56.88,1.12,1.68,1.68,2.56.08.16.16.24.16.4-.56.32-1.12.16-1.68.24h-11.84c-.92.07-1.78-.49-2.08-1.36l-.08-.08Zm8.32-.72h2.64c.56,0,.88-.24.88-.72s-.32-.72-.88-.72h-5.28c-.56,0-.88.24-.88.72s.32.72.88.72h2.64Z"/><path class="cls-10" d="m107.17,330.95c.4-.08.48-.4.72-.72.96-1.2,1.92-2.32,2.96-3.44.57-.63,1.19-1.21,1.84-1.76.13.3.19.63.16.96v12.96c-.43.3-.71.76-.8,1.28-.04.37-.04.75,0,1.12-.36-.42-.69-.88-.96-1.36-.96-1.36-1.84-2.72-2.8-4.08.25-.5.39-1.04.4-1.6.03-1.25-.49-2.46-1.44-3.28l-.08-.08Z"/><path class="cls-18" d="m107.17,330.95c.93.83,1.46,2.03,1.44,3.28.02.56-.12,1.12-.4,1.6-.46-.73-.97-1.42-1.52-2.08-.57-.82-1.67-1.1-2.56-.64-.23,0-.43.17-.48.4h0s-.08.04-.08.08h0s-.08.04-.08.08h0s-.08.04-.08.08h0c-.46.39-.65,1.02-.48,1.6,0,.36.14.71.4.96.48.72.96,1.36,1.36,2.08-.56.11-1.15.05-1.68-.16-.17-.02-.33-.07-.48-.16-2.13-.96-3.08-3.47-2.12-5.6.64-1.42,2.01-2.37,3.56-2.48,1.14-.07,2.26.3,3.12,1.04l.08-.08Z"/><path class="cls-30" d="m104.69,338.31c-.48-.72-.96-1.36-1.36-2.08-.23-.27-.37-.61-.4-.96,0-.57.17-1.13.48-1.6h.08l.08-.08h0l.08-.08h0c.16,0,.32-.16.48-.24.08.24-.08.48-.08.8.01.58.21,1.14.56,1.6,1.6,2.4,3.28,4.8,4.88,7.2,2.56,3.68,5.04,7.36,7.6,11.12,0,.08.16.16.16.24.24.32.19.78-.13,1.02,0,0-.02.01-.03.02-.36.17-.79.07-1.04-.24l-1.92-2.88c-.8-1.12-1.52-2.32-2.32-3.44-.08-.16-.16-.24-.32-.24-.26-.47-.56-.93-.88-1.36-1.92-2.8-3.84-5.68-5.76-8.48,0-.08-.16-.16-.16-.24v-.08Z"/><path class="cls-27" d="m129.57,357.11c0,.27-.16.52-.4.64-.8.56-1.6,1.12-2.4,1.6-.34.21-.78.15-1.04-.16-.23-.33-.15-.78.18-1,.02-.01.04-.03.06-.04.8-.56,1.6-1.12,2.4-1.6.23-.2.57-.2.8,0,.24.16.4.32.4.56Z"/><path class="cls-20" d="m120.61,338.95c-.12-.6-.04-1.22.24-1.76.24-.37.57-.67.96-.88v.64c-.05.71.15,1.42.56,2,.16.14.25.35.24.56,0,.32,0,.56-.32.72-.27.16-.61.16-.88,0-.31-.32-.56-.7-.72-1.12h0l-.08-.16Z"/><path class="cls-20" d="m116.37,340.07c-.31-.97.13-2.02,1.04-2.48.08.08,0,.24,0,.32-.16.69-.01,1.42.4,2,.16.16.24.4.4.56.22.33.13.78-.2,1s-.78.13-1-.2c-.31-.35-.56-.76-.72-1.2h.08Z"/><path class="cls-30" d="m111.97,341.27v-1.12c.17-.48.44-.92.8-1.28.12-.02.23-.08.32-.16.16.24,0,.4-.08.56,0,.72.23,1.41.64,2,.28.29.28.75,0,1.04-.24.24-.64.24-.88,0-.26-.31-.5-.63-.72-.96,0,0,0-.16-.08-.16h0v.08Z"/><path class="cls-27" d="m124.69,360.39c0,.16,0,.32-.16.4-.18.2-.4.37-.64.48-.29.22-.71.17-.93-.12-.01-.01-.02-.03-.03-.04-.19-.32-.12-.72.16-.96l.72-.48c.31-.17.71-.06.88.25.07.12.09.26.08.39l-.08.08Z"/><path class="cls-34" d="m104.13,333.19c-.16,0-.32.24-.48.24,0-.24.32-.32.48-.4v.16Z"/><path class="cls-10" d="m111.97,341.27c0,.06.03.12.08.16-.04-.04-.07-.1-.08-.16Z"/><path class="cls-22" d="m96.05,354.63c.3.87,1.16,1.43,2.08,1.36h11.84c-.78,1.11-1.79,2.03-2.96,2.72-.16.08-.24.16-.4.24-.56.29-.87.9-.8,1.52v2.48c0,.84-.68,1.52-1.52,1.52h-8.24c-.77.07-1.45-.49-1.52-1.25,0-.09,0-.18,0-.27v-2.4c-.18-.79-.54-1.53-1.04-2.16-.56-.8-1.04-1.68-1.68-2.48-.54-.77-.82-1.7-.8-2.64,0-1.84.16-3.68.16-5.52v-2.64c-.03-1.18.19-2.35.64-3.44.66-1.47,1.09-3.04,1.28-4.64.03-.77.68-1.36,1.45-1.33.1,0,.21.02.31.05.72.88,1.11,1.98,1.12,3.12-.04,1.08-.2,2.16-.48,3.2-.21,1-.56,1.97-1.04,2.88-.18.38-.04.83.32,1.04.34.21.78.11.99-.23.02-.03.03-.06.05-.09.04-.09.1-.17.16-.24v8.32c-.03.33.03.66.16.96l-.08-.08Zm5.84,6.32h-.96c-.4-.06-.77.21-.83.61s.21.77.61.83c.07.01.14.01.22,0h1.92c.4,0,.72-.32.72-.72s-.32-.72-.72-.72h-.96Zm-4.24,1.44c.19.01.38-.01.56-.08.31-.14.47-.47.4-.8-.11-.35-.44-.58-.8-.56-.48,0-.96,0-1.2.48v.16c0,.56.32.8,1.04.8Z"/><path class="cls-30" d="m95.89,345.35c-.04.09-.1.17-.16.24-.21.36-.66.5-1.04.32-.36-.16-.53-.59-.37-.95.01-.03.03-.06.05-.09.47-.92.83-1.88,1.08-2.88.28-1.04.44-2.12.48-3.2.03-1.14-.37-2.26-1.12-3.12.4.06.78.2,1.12.4,1.44,1.28,1.52,2.96,1.36,4.72-.15,1.35-.5,2.67-1.04,3.92-.08.24-.24.48-.32.72l-.04-.08Z"/><path class="cls-21" d="m104.37,353.91h-2.64c-.56,0-.88-.24-.88-.72s.32-.72.88-.72h5.28c.56,0,.88.32.88.72s-.32.72-.88.72h-2.64Z"/><path class="cls-34" d="m103.45,333.67c-.28.49-.44,1.04-.48,1.6-.21-.58-.01-1.23.48-1.6Z"/><path class="cls-27" d="m101.89,360.95h.88c.4-.06.77.21.83.61s-.21.77-.61.83c-.07.01-.14.01-.22,0h-1.92c-.4,0-.72-.32-.72-.72s.32-.72.72-.72h1.04,0Z"/><path class="cls-27" d="m97.73,362.39c-.8,0-1.12-.24-1.04-.8v-.16c.24-.48.72-.48,1.2-.48.36-.02.69.21.8.56.11.33-.06.68-.38.79,0,0-.01,0-.02,0-.18.06-.37.09-.56.08Z"/><path d="m81.89,323.99l-.64,2.08,6.24,2-.56,1.84-6.24-2-.64,2.08-1.76-.56,1.92-5.92,1.76.56-.08-.08Z"/><path d="m85.17,325.43c-1.5-.88-2-2.82-1.11-4.32.88-1.5,2.82-2,4.32-1.11,1.5.88,2,2.81,1.12,4.31-.87,1.5-2.79,2.01-4.29,1.14-.01,0-.02-.01-.03-.02Zm2.32-3.92c-.68-.35-1.51-.09-1.87.59-.35.68-.09,1.51.59,1.87.66.34,1.47.11,1.84-.54.41-.63.23-1.46-.4-1.87-.03-.02-.05-.03-.08-.05h-.08Z"/><path d="m91.17,312.87l4.16,4.32-1.28,1.28-.4-.4c.02.64-.24,1.26-.72,1.68-.86.87-2.26.88-3.13.02-.08-.08-.16-.17-.23-.26l-2.56-2.64,1.28-1.28,2.4,2.48c.3.42.89.52,1.31.21.08-.06.15-.13.21-.21.46-.39.52-1.08.14-1.54-.04-.05-.09-.09-.14-.14l-2.24-2.32,1.28-1.28-.08.08Z"/><path d="m94.29,314.23c-.82-1.57-.22-3.5,1.35-4.32.93-.49,2.04-.49,2.97,0l-.88,1.6c-.42-.24-.94-.24-1.36,0-.66.4-.87,1.26-.48,1.92.3.65,1.08.93,1.72.62.04-.02.08-.04.12-.06.46-.21.72-.7.64-1.2h1.88c-.02,1.12-.63,2.16-1.6,2.72-1.46.88-3.35.41-4.23-1.04-.03-.05-.06-.11-.09-.16l-.04-.08Z"/><path d="m105.73,308.79l.96,3.52-1.76.48-.88-3.28c-.06-.53-.54-.91-1.08-.85-.07,0-.14.02-.2.05-.64.16-.96.64-.72,1.52l.88,3.2-1.76.48-2.24-8.08,1.76-.48.8,2.88c.27-.59.8-1.01,1.44-1.12,1.17-.34,2.4.34,2.73,1.51.03.11.05.22.07.33v-.16Z"/><path d="m117.33,304.47l-1.04,8.32-1.76-.24v-.56c-.46.46-1.13.65-1.76.48-1.6-.16-2.64-1.76-2.48-3.52.14-1.64,1.55-2.88,3.2-2.8.68.05,1.3.4,1.68.96l.4-2.96,1.76.24v.08Zm-2.48,5.12c.14-.73-.33-1.44-1.06-1.58-.05,0-.09-.02-.14-.02-.76-.12-1.47.4-1.59,1.16,0,.04-.01.08-.01.12-.14.73.33,1.44,1.06,1.58.05,0,.09.02.14.02.76.12,1.47-.4,1.59-1.16,0-.04.01-.08.01-.12Z"/><path d="m119.01,307.51l1.68.56-1.92,5.68-1.68-.56,1.92-5.68Zm.32-1.6c.18-.57.79-.9,1.36-.72.57.18.9.79.72,1.36-.18.57-.79.9-1.36.72-.57-.19-.88-.79-.72-1.36h0Z"/><path d="m124.69,314.63c-.64,1.2-2,1.2-3.12.56-1-.41-1.64-1.4-1.6-2.48h1.76c-.05.43.17.85.56,1.04.4.24.64.16.72,0,.32-.56-2.48-1.68-1.52-3.52.61-.99,1.9-1.3,2.88-.69.03.02.05.03.08.05.88.4,1.44,1.28,1.44,2.24h-1.76c.03-.34-.16-.66-.48-.8-.18-.16-.46-.16-.64,0-.32.64,2.48,1.6,1.44,3.52l.24.08Z"/><path d="m131.09,318.55c-.98,1.27-2.81,1.51-4.08.53-.05-.04-.11-.08-.16-.13-.53-.42-.83-1.08-.8-1.76l-2,2.16-1.36-1.2,5.6-6.24,1.36,1.2-.4.4c.67-.03,1.33.19,1.84.64,1.17,1.13,1.21,2.99.08,4.16-.03.03-.05.05-.08.08v.16Zm-1.36-1.2c.57-.54.6-1.44.07-2.01-.02-.02-.04-.05-.07-.07-.54-.54-1.41-.53-1.95,0-.05.05-.09.1-.13.16-.57.54-.6,1.44-.07,2.01.02.02.04.05.07.07.54.54,1.41.53,1.95,0,.05-.05.09-.1.13-.16Z"/><path d="m136.29,316.15l1.04,1.44-7.04,5.2-1.04-1.44,7.04-5.2Z"/><path d="m139.01,326.55l-5.44,2.56-.72-1.6.48-.24c-.64-.21-1.16-.67-1.44-1.28-.64-1.51.07-3.24,1.58-3.88.03-.01.07-.03.1-.04,1.48-.77,3.3-.2,4.08,1.28.3.6.33,1.3.08,1.92l.48-.24.72,1.6.08-.08Zm-3.44-.4c.72-.31,1.05-1.15.74-1.87,0-.02-.01-.03-.02-.05-.29-.69-1.09-1.01-1.77-.71-.05.02-.1.05-.15.07-.72.31-1.05,1.15-.74,1.87,0,.02.01.03.02.05.29.69,1.09,1.01,1.77.71.05-.02.1-.05.15-.07Z"/><path d="m140.61,334.47l-6.08-1.04c-2-.32-2.96-1.28-3.12-2.96l1.68-.32c.16.8.48,1.2,1.2,1.28l5.2-3.36.32,1.92-3.36,1.92,3.84.48.32,1.92v.16Z"/><line class="cls-4" x1="197.68" y1="266.97" x2="197.68" y2="298.2"/><polygon class="cls-33" points="190.2 296.01 197.68 308.97 205.16 296.01 190.2 296.01"/><line class="cls-5" x1="162.71" y1="256.94" x2="140.45" y2="292.55"/><line class="cls-4" x1="162.71" y1="256.94" x2="146.15" y2="283.43"/><polygon class="cls-33" points="140.97 277.61 140.45 292.55 153.66 285.53 140.97 277.61"/><line class="cls-5" x1="138.36" y1="229.9" x2="100.61" y2="248.31"/><line class="cls-4" x1="138.36" y1="229.9" x2="110.29" y2="243.59"/><polygon class="cls-33" points="108.97 235.91 100.61 248.31 115.53 249.35 108.97 235.91"/><line class="cls-5" x1="132.04" y1="194.07" x2="90.27" y2="189.68"/><line class="cls-4" x1="132.04" y1="194.07" x2="100.98" y2="190.8"/><polygon class="cls-33" points="103.94 183.59 90.27 189.68 102.37 198.47 103.94 183.59"/><line class="cls-5" x1="145.67" y1="160.33" x2="112.58" y2="134.47"/><line class="cls-4" x1="145.67" y1="160.33" x2="121.06" y2="141.1"/><polygon class="cls-33" points="127.39 136.55 112.58 134.47 118.18 148.34 127.39 136.55"/><line class="cls-5" x1="175.11" y1="138.95" x2="160.74" y2="99.48"/><line class="cls-4" x1="175.11" y1="138.95" x2="164.42" y2="109.59"/><polygon class="cls-33" points="172.2 109.09 160.74 99.48 158.14 114.21 172.2 109.09"/><line class="cls-5" x1="211.4" y1="136.41" x2="220.14" y2="95.33"/><line class="cls-4" x1="211.4" y1="136.41" x2="217.9" y2="105.85"/><polygon class="cls-33" points="224.76 109.55 220.14 95.33 210.13 106.44 224.76 109.55"/><line class="cls-5" x1="243.53" y1="153.49" x2="272.7" y2="123.28"/><line class="cls-4" x1="243.53" y1="153.49" x2="265.23" y2="131.02"/><polygon class="cls-33" points="269.09 137.79 272.7 123.28 258.33 127.4 269.09 137.79"/><line class="cls-5" x1="261.72" y1="185" x2="302.47" y2="174.84"/><line class="cls-4" x1="261.72" y1="185" x2="292.03" y2="177.44"/><polygon class="cls-33" points="291.71 185.23 302.47 174.84 288.1 170.71 291.71 185.23"/><line class="cls-5" x1="260.45" y1="221.36" x2="300.39" y2="234.34"/><line class="cls-4" x1="260.45" y1="221.36" x2="290.16" y2="231.01"/><polygon class="cls-33" points="285.77 237.45 300.39 234.34 290.39 223.22 285.77 237.45"/><line class="cls-5" x1="240.11" y1="251.52" x2="267.1" y2="283.7"/><line class="cls-4" x1="240.11" y1="251.52" x2="260.18" y2="275.45"/><polygon class="cls-33" points="253.05 278.58 267.1 283.7 264.51 268.97 253.05 278.58"/><path class="cls-32" d="m61.18,177.76c.5,0,.99.02,1.49.02.84,0,1.54.69,1.55,1.54,0,.78,0,1.56,0,2.33,0,6.58,0,13.16,0,19.75,0,.43-.02.86-.15,1.28-.15.49-.75.93-1.27.93-5.57,0-11.15,0-16.72,0-.03,0-.05,0-.08,0,0-1.51,0-3.03,0-4.54,1.16,0,2.32,0,3.48-.01.15,0,.32.04.32-.21,0-.57.05-1.16-.08-1.71-.36-1.48-.79-2.95-1.17-4.43-.1-.4-.22-.79-.36-1.18-.22-.61.19-.92.56-1.25.6-.55.85-1.24.99-2.03.3-1.66-1.1-3.65-2.68-4.16-.05-.09-.12-.13-.22-.08-.08-.02-.16-.04-.24-.05-.04-.05-.08-.07-.14-.03-.15-.02-.31-.04-.46-.07,0-2.01,0-4.03,0-6.04,2.86,0,5.71,0,8.57-.02.18,0,.36-.01.53-.02,1.02.03,2.04.05,3.07,0,1,.06,2,.04,3.01,0Z"/><path class="cls-12" d="m46,199.05c0,1.51,0,3.03,0,4.54-.57,0-1.15.01-1.72.01-4.86,0-9.72-.02-14.58.02-1.28.01-1.94-.69-1.94-1.94.04-7.44.03-14.88,0-22.32,0-.89.72-1.6,1.57-1.59.5,0,.99-.01,1.49-.02,1,.03,2,.05,3-.01,1.02.06,2.04.03,3.06.01.17,0,.33.02.5.02,2.87,0,5.74,0,8.61.01,0,2.01,0,4.03,0,6.04-.32.15-.68.08-1.02.21-1.42.55-2.36,1.51-2.7,3.02-.06.03-.11.07-.03.14-.11,1.25.02,2.39,1.14,3.22.35.26.49.65.35,1.14-.09.3-.2.59-.27.9-.2.84-.42,1.66-.64,2.49-.16.61-.35,1.22-.5,1.83-.15.61-.11,1.23-.13,1.85-.01.31.07.42.4.41,1.14-.02,2.27,0,3.41,0Z"/><path class="cls-24" d="m33.83,177.75c-1,.06-2,.04-3,.01,0-2.7-.02-5.41.02-8.11.02-1.25.19-2.49.55-3.71.44-1.46,1.06-2.83,1.9-4.1,1.05-1.58,2.35-2.94,3.9-4.05,1.02-.73,2.09-1.38,3.27-1.78,1.17-.41,2.35-.81,3.61-.9.71-.05,1.41-.16,2.12-.14,1.77.03,3.47.38,5.13,1,1.65.62,3.14,1.52,4.5,2.65,1.17.97,2.13,2.12,2.94,3.4.58.9,1.03,1.86,1.42,2.87.21.55.36,1.12.55,1.68.17.51.21,1.06.27,1.6.35,3.19.08,6.39.17,9.58-1,.04-2,.05-3,0,0-2.28-.02-4.57.01-6.85.02-1.31-.15-2.6-.47-3.87-.45-1.78-1.28-3.39-2.48-4.76-1.47-1.68-3.26-2.95-5.42-3.64-1.53-.49-3.08-.64-4.69-.54-1.49.09-2.89.44-4.22,1.06-2.21,1.03-3.95,2.61-5.24,4.69-1.11,1.79-1.72,3.76-1.8,5.84-.1,2.69-.02,5.38-.02,8.08Z"/><path class="cls-8" d="m55.11,177.76c0-2.42.02-4.85,0-7.27-.01-1.29-.19-2.56-.71-3.76-.41-.95-.96-1.81-1.64-2.6-1.01-1.18-2.27-1.99-3.7-2.51-1.32-.48-2.7-.64-4.13-.46-.87.11-1.71.31-2.49.65-2.18.95-3.78,2.51-4.77,4.69-.46,1.02-.65,2.09-.7,3.2-.13,2.69-.02,5.38-.06,8.06-1.02.02-2.04.04-3.06-.01,0-2.69-.08-5.39.02-8.08.08-2.08.68-4.05,1.8-5.84,1.29-2.08,3.03-3.66,5.24-4.69,1.33-.62,2.73-.97,4.22-1.06,1.61-.09,3.16.06,4.69.54,2.16.69,3.94,1.95,5.42,3.64,1.2,1.38,2.03,2.98,2.48,4.76.32,1.27.49,2.55.47,3.87-.03,2.28-.01,4.57-.01,6.85-1.02.05-2.04.04-3.07,0Z"/><path class="cls-15" d="m46,199.05c-1.14,0-2.27-.02-3.41,0-.33,0-.41-.1-.4-.41.02-.62-.01-1.25.13-1.85.15-.62.34-1.22.5-1.83.22-.83.44-1.66.64-2.49.07-.31.18-.6.27-.9.14-.49,0-.88-.35-1.14-1.12-.83-1.25-1.97-1.14-3.22.06-.03.06-.08.03-.14.34-1.51,1.28-2.47,2.7-3.02.34-.13.7-.05,1.02-.21.15.02.31.04.46.07.03.08.07.12.14.03.08.02.16.04.24.05.04.11.14.08.22.08,1.58.51,2.98,2.5,2.68,4.16-.14.79-.4,1.48-.99,2.03-.36.33-.78.65-.56,1.25.14.39.25.78.36,1.18.38,1.48.81,2.94,1.17,4.43.13.55.09,1.14.08,1.71,0,.25-.17.21-.32.21-1.16,0-2.32,0-3.48.01Z"/><path class="cls-8" d="m47.07,184.07c-.09,0-.18.03-.22-.08.1-.05.17,0,.22.08Z"/><path class="cls-8" d="m46.6,183.94c-.07.09-.11.05-.14-.03.06-.03.1-.02.14.03Z"/><path class="cls-24" d="m42.28,187.06c.03.06.03.1-.03.14-.08-.07-.03-.1.03-.14Z"/><circle class="cls-2" cx="46.13" cy="181.6" r="39.02"/><path class="cls-32" d="m161.18,50.76c.5,0,.99.02,1.49.02.84,0,1.54.69,1.55,1.54,0,.78,0,1.56,0,2.33,0,6.58,0,13.16,0,19.75,0,.43-.02.86-.15,1.28-.15.49-.75.93-1.27.93-5.57,0-11.15,0-16.72,0-.03,0-.05,0-.08,0,0-1.51,0-3.03,0-4.54,1.16,0,2.32,0,3.48-.01.15,0,.32.04.32-.21,0-.57.05-1.16-.08-1.71-.36-1.48-.79-2.95-1.17-4.43-.1-.4-.22-.79-.36-1.18-.22-.61.19-.92.56-1.25.6-.55.85-1.24.99-2.03.3-1.66-1.1-3.65-2.68-4.16-.05-.09-.12-.13-.22-.08-.08-.02-.16-.04-.24-.05-.04-.05-.08-.07-.14-.03-.15-.02-.31-.04-.46-.07,0-2.01,0-4.03,0-6.04,2.86,0,5.71,0,8.57-.02.18,0,.36-.01.53-.02,1.02.03,2.04.05,3.07,0,1,.06,2,.04,3.01,0Z"/><path class="cls-12" d="m146,72.05c0,1.51,0,3.03,0,4.54-.57,0-1.15.01-1.72.01-4.86,0-9.72-.02-14.58.02-1.28.01-1.94-.69-1.94-1.94.04-7.44.03-14.88,0-22.32,0-.89.72-1.6,1.57-1.59.5,0,.99-.01,1.49-.02,1,.03,2,.05,3-.01,1.02.06,2.04.03,3.06.01.17,0,.33.02.5.02,2.87,0,5.74,0,8.61.01,0,2.01,0,4.03,0,6.04-.32.15-.68.08-1.02.21-1.42.55-2.36,1.51-2.7,3.02-.06.03-.11.07-.03.14-.11,1.25.02,2.39,1.14,3.22.35.26.49.65.35,1.14-.09.3-.2.59-.27.9-.2.84-.42,1.66-.64,2.49-.16.61-.35,1.22-.5,1.83-.15.61-.11,1.23-.13,1.85-.01.31.07.42.4.41,1.14-.02,2.27,0,3.41,0Z"/><path class="cls-24" d="m133.83,50.75c-1,.06-2,.04-3,.01,0-2.7-.02-5.41.02-8.11.02-1.25.19-2.49.55-3.71.44-1.46,1.06-2.83,1.9-4.1,1.05-1.58,2.35-2.94,3.9-4.05,1.02-.73,2.09-1.38,3.27-1.78,1.17-.41,2.35-.81,3.61-.9.71-.05,1.41-.16,2.12-.14,1.77.03,3.47.38,5.13,1,1.65.62,3.14,1.52,4.5,2.65,1.17.97,2.13,2.12,2.94,3.4.58.9,1.03,1.86,1.42,2.87.21.55.36,1.12.55,1.68.17.51.21,1.06.27,1.6.35,3.19.08,6.39.17,9.58-1,.04-2,.05-3,0,0-2.28-.02-4.57.01-6.85.02-1.31-.15-2.6-.47-3.87-.45-1.78-1.28-3.39-2.48-4.76-1.47-1.68-3.26-2.95-5.42-3.64-1.53-.49-3.08-.64-4.69-.54-1.49.09-2.89.44-4.22,1.06-2.21,1.03-3.95,2.61-5.24,4.69-1.11,1.79-1.72,3.76-1.8,5.84-.1,2.69-.02,5.38-.02,8.08Z"/><path class="cls-8" d="m155.11,50.76c0-2.42.02-4.85,0-7.27-.01-1.29-.19-2.56-.71-3.76-.41-.95-.96-1.81-1.64-2.6-1.01-1.18-2.27-1.99-3.7-2.51-1.32-.48-2.7-.64-4.13-.46-.87.11-1.71.31-2.49.65-2.18.95-3.78,2.51-4.77,4.69-.46,1.02-.65,2.09-.7,3.2-.13,2.69-.02,5.38-.06,8.06-1.02.02-2.04.04-3.06-.01,0-2.69-.08-5.39.02-8.08.08-2.08.68-4.05,1.8-5.84,1.29-2.08,3.03-3.66,5.24-4.69,1.33-.62,2.73-.97,4.22-1.06,1.61-.09,3.16.06,4.69.54,2.16.69,3.94,1.95,5.42,3.64,1.2,1.38,2.03,2.98,2.48,4.76.32,1.27.49,2.55.47,3.87-.03,2.28-.01,4.57-.01,6.85-1.02.05-2.04.04-3.07,0Z"/><path class="cls-15" d="m146,72.05c-1.14,0-2.27-.02-3.41,0-.33,0-.41-.1-.4-.41.02-.62-.01-1.25.13-1.85.15-.62.34-1.22.5-1.83.22-.83.44-1.66.64-2.49.07-.31.18-.6.27-.9.14-.49,0-.88-.35-1.14-1.12-.83-1.25-1.97-1.14-3.22.06-.03.06-.08.03-.14.34-1.51,1.28-2.47,2.7-3.02.34-.13.7-.05,1.02-.21.15.02.31.04.46.07.03.08.07.12.14.03.08.02.16.04.24.05.04.11.14.08.22.08,1.58.51,2.98,2.5,2.68,4.16-.14.79-.4,1.48-.99,2.03-.36.33-.78.65-.56,1.25.14.39.25.78.36,1.18.38,1.48.81,2.94,1.17,4.43.13.55.09,1.14.08,1.71,0,.25-.17.21-.32.21-1.16,0-2.32,0-3.48.01Z"/><path class="cls-8" d="m147.07,57.07c-.09,0-.18.03-.22-.08.1-.05.17,0,.22.08Z"/><path class="cls-8" d="m146.6,56.94c-.07.09-.11.05-.14-.03.06-.03.1-.02.14.03Z"/><path class="cls-24" d="m142.28,60.06c.03.06.03.1-.03.14-.08-.07-.03-.1.03-.14Z"/><circle class="cls-2" cx="146.13" cy="54.6" r="39.02"/><path class="cls-32" d="m87.18,92.76c.5,0,.99.02,1.49.02.84,0,1.54.69,1.55,1.54,0,.78,0,1.56,0,2.33,0,6.58,0,13.16,0,19.75,0,.43-.02.86-.15,1.28-.15.49-.75.93-1.27.93-5.57,0-11.15,0-16.72,0-.03,0-.05,0-.08,0,0-1.51,0-3.03,0-4.54,1.16,0,2.32,0,3.48-.01.15,0,.32.04.32-.21,0-.57.05-1.16-.08-1.71-.36-1.48-.79-2.95-1.17-4.43-.1-.4-.22-.79-.36-1.18-.22-.61.19-.92.56-1.25.6-.55.85-1.24.99-2.03.3-1.66-1.1-3.65-2.68-4.16-.05-.09-.12-.13-.22-.08-.08-.02-.16-.04-.24-.05-.04-.05-.08-.07-.14-.03-.15-.02-.31-.04-.46-.07,0-2.01,0-4.03,0-6.04,2.86,0,5.71,0,8.57-.02.18,0,.36-.01.53-.02,1.02.03,2.04.05,3.07,0,1,.06,2,.04,3.01,0Z"/><path class="cls-12" d="m72,114.05c0,1.51,0,3.03,0,4.54-.57,0-1.15.01-1.72.01-4.86,0-9.72-.02-14.58.02-1.28.01-1.94-.69-1.94-1.94.04-7.44.03-14.88,0-22.32,0-.89.72-1.6,1.57-1.59.5,0,.99-.01,1.49-.02,1,.03,2,.05,3-.01,1.02.06,2.04.03,3.06.01.17,0,.33.02.5.02,2.87,0,5.74,0,8.61.01,0,2.01,0,4.03,0,6.04-.32.15-.68.08-1.02.21-1.42.55-2.36,1.51-2.7,3.02-.06.03-.11.07-.03.14-.11,1.25.02,2.39,1.14,3.22.35.26.49.65.35,1.14-.09.3-.2.59-.27.9-.2.84-.42,1.66-.64,2.49-.16.61-.35,1.22-.5,1.83-.15.61-.11,1.23-.13,1.85-.01.31.07.42.4.41,1.14-.02,2.27,0,3.41,0Z"/><path class="cls-24" d="m59.83,92.75c-1,.06-2,.04-3,.01,0-2.7-.02-5.41.02-8.11.02-1.25.19-2.49.55-3.71.44-1.46,1.06-2.83,1.9-4.1,1.05-1.58,2.35-2.94,3.9-4.05,1.02-.73,2.09-1.38,3.27-1.78,1.17-.41,2.35-.81,3.61-.9.71-.05,1.41-.16,2.12-.14,1.77.03,3.47.38,5.13,1,1.65.62,3.14,1.52,4.5,2.65,1.17.97,2.13,2.12,2.94,3.4.58.9,1.03,1.86,1.42,2.87.21.55.36,1.12.55,1.68.17.51.21,1.06.27,1.6.35,3.19.08,6.39.17,9.58-1,.04-2,.05-3,0,0-2.28-.02-4.57.01-6.85.02-1.31-.15-2.6-.47-3.87-.45-1.78-1.28-3.39-2.48-4.76-1.47-1.68-3.26-2.95-5.42-3.64-1.53-.49-3.08-.64-4.69-.54-1.49.09-2.89.44-4.22,1.06-2.21,1.03-3.95,2.61-5.24,4.69-1.11,1.79-1.72,3.76-1.8,5.84-.1,2.69-.02,5.38-.02,8.08Z"/><path class="cls-8" d="m81.11,92.76c0-2.42.02-4.85,0-7.27-.01-1.29-.19-2.56-.71-3.76-.41-.95-.96-1.81-1.64-2.6-1.01-1.18-2.27-1.99-3.7-2.51-1.32-.48-2.7-.64-4.13-.46-.87.11-1.71.31-2.49.65-2.18.95-3.78,2.51-4.77,4.69-.46,1.02-.65,2.09-.7,3.2-.13,2.69-.02,5.38-.06,8.06-1.02.02-2.04.04-3.06-.01,0-2.69-.08-5.39.02-8.08.08-2.08.68-4.05,1.8-5.84,1.29-2.08,3.03-3.66,5.24-4.69,1.33-.62,2.73-.97,4.22-1.06,1.61-.09,3.16.06,4.69.54,2.16.69,3.94,1.95,5.42,3.64,1.2,1.38,2.03,2.98,2.48,4.76.32,1.27.49,2.55.47,3.87-.03,2.28-.01,4.57-.01,6.85-1.02.05-2.04.04-3.07,0Z"/><path class="cls-15" d="m72,114.05c-1.14,0-2.27-.02-3.41,0-.33,0-.41-.1-.4-.41.02-.62-.01-1.25.13-1.85.15-.62.34-1.22.5-1.83.22-.83.44-1.66.64-2.49.07-.31.18-.6.27-.9.14-.49,0-.88-.35-1.14-1.12-.83-1.25-1.97-1.14-3.22.06-.03.06-.08.03-.14.34-1.51,1.28-2.47,2.7-3.02.34-.13.7-.05,1.02-.21.15.02.31.04.46.07.03.08.07.12.14.03.08.02.16.04.24.05.04.11.14.08.22.08,1.58.51,2.98,2.5,2.68,4.16-.14.79-.4,1.48-.99,2.03-.36.33-.78.65-.56,1.25.14.39.25.78.36,1.18.38,1.48.81,2.94,1.17,4.43.13.55.09,1.14.08,1.71,0,.25-.17.21-.32.21-1.16,0-2.32,0-3.48.01Z"/><path class="cls-8" d="m73.07,99.07c-.09,0-.18.03-.22-.08.1-.05.17,0,.22.08Z"/><path class="cls-8" d="m72.6,98.94c-.07.09-.11.05-.14-.03.06-.03.1-.02.14.03Z"/><path class="cls-24" d="m68.28,102.06c.03.06.03.1-.03.14-.08-.07-.03-.1.03-.14Z"/><circle class="cls-2" cx="72.13" cy="96.6" r="39.02"/><path class="cls-32" d="m258.18,46.76c.5,0,.99.02,1.49.02.84,0,1.54.69,1.55,1.54,0,.78,0,1.56,0,2.33,0,6.58,0,13.16,0,19.75,0,.43-.02.86-.15,1.28-.15.49-.75.93-1.27.93-5.57,0-11.15,0-16.72,0-.03,0-.05,0-.08,0,0-1.51,0-3.03,0-4.54,1.16,0,2.32,0,3.48-.01.15,0,.32.04.32-.21,0-.57.05-1.16-.08-1.71-.36-1.48-.79-2.95-1.17-4.43-.1-.4-.22-.79-.36-1.18-.22-.61.19-.92.56-1.25.6-.55.85-1.24.99-2.03.3-1.66-1.1-3.65-2.68-4.16-.05-.09-.12-.13-.22-.08-.08-.02-.16-.04-.24-.05-.04-.05-.08-.07-.14-.03-.15-.02-.31-.04-.46-.07,0-2.01,0-4.03,0-6.04,2.86,0,5.71,0,8.57-.02.18,0,.36-.01.53-.02,1.02.03,2.04.05,3.07,0,1,.06,2,.04,3.01,0Z"/><path class="cls-12" d="m243,68.05c0,1.51,0,3.03,0,4.54-.57,0-1.15.01-1.72.01-4.86,0-9.72-.02-14.58.02-1.28.01-1.94-.69-1.94-1.94.04-7.44.03-14.88,0-22.32,0-.89.72-1.6,1.57-1.59.5,0,.99-.01,1.49-.02,1,.03,2,.05,3-.01,1.02.06,2.04.03,3.06.01.17,0,.33.02.5.02,2.87,0,5.74,0,8.61.01,0,2.01,0,4.03,0,6.04-.32.15-.68.08-1.02.21-1.42.55-2.36,1.51-2.7,3.02-.06.03-.11.07-.03.14-.11,1.25.02,2.39,1.14,3.22.35.26.49.65.35,1.14-.09.3-.2.59-.27.9-.2.84-.42,1.66-.64,2.49-.16.61-.35,1.22-.5,1.83-.15.61-.11,1.23-.13,1.85-.01.31.07.42.4.41,1.14-.02,2.27,0,3.41,0Z"/><path class="cls-24" d="m230.83,46.75c-1,.06-2,.04-3,.01,0-2.7-.02-5.41.02-8.11.02-1.25.19-2.49.55-3.71.44-1.46,1.06-2.83,1.9-4.1,1.05-1.58,2.35-2.94,3.9-4.05,1.02-.73,2.09-1.38,3.27-1.78,1.17-.41,2.35-.81,3.61-.9.71-.05,1.41-.16,2.12-.14,1.77.03,3.47.38,5.13,1,1.65.62,3.14,1.52,4.5,2.65,1.17.97,2.13,2.12,2.94,3.4.58.9,1.03,1.86,1.42,2.87.21.55.36,1.12.55,1.68.17.51.21,1.06.27,1.6.35,3.19.08,6.39.17,9.58-1,.04-2,.05-3,0,0-2.28-.02-4.57.01-6.85.02-1.31-.15-2.6-.47-3.87-.45-1.78-1.28-3.39-2.48-4.76-1.47-1.68-3.26-2.95-5.42-3.64-1.53-.49-3.08-.64-4.69-.54-1.49.09-2.89.44-4.22,1.06-2.21,1.03-3.95,2.61-5.24,4.69-1.11,1.79-1.72,3.76-1.8,5.84-.1,2.69-.02,5.38-.02,8.08Z"/><path class="cls-8" d="m252.11,46.76c0-2.42.02-4.85,0-7.27-.01-1.29-.19-2.56-.71-3.76-.41-.95-.96-1.81-1.64-2.6-1.01-1.18-2.27-1.99-3.7-2.51-1.32-.48-2.7-.64-4.13-.46-.87.11-1.71.31-2.49.65-2.18.95-3.78,2.51-4.77,4.69-.46,1.02-.65,2.09-.7,3.2-.13,2.69-.02,5.38-.06,8.06-1.02.02-2.04.04-3.06-.01,0-2.69-.08-5.39.02-8.08.08-2.08.68-4.05,1.8-5.84,1.29-2.08,3.03-3.66,5.24-4.69,1.33-.62,2.73-.97,4.22-1.06,1.61-.09,3.16.06,4.69.54,2.16.69,3.94,1.95,5.42,3.64,1.2,1.38,2.03,2.98,2.48,4.76.32,1.27.49,2.55.47,3.87-.03,2.28-.01,4.57-.01,6.85-1.02.05-2.04.04-3.07,0Z"/><path class="cls-15" d="m243,68.05c-1.14,0-2.27-.02-3.41,0-.33,0-.41-.1-.4-.41.02-.62-.01-1.25.13-1.85.15-.62.34-1.22.5-1.83.22-.83.44-1.66.64-2.49.07-.31.18-.6.27-.9.14-.49,0-.88-.35-1.14-1.12-.83-1.25-1.97-1.14-3.22.06-.03.06-.08.03-.14.34-1.51,1.28-2.47,2.7-3.02.34-.13.7-.05,1.02-.21.15.02.31.04.46.07.03.08.07.12.14.03.08.02.16.04.24.05.04.11.14.08.22.08,1.58.51,2.98,2.5,2.68,4.16-.14.79-.4,1.48-.99,2.03-.36.33-.78.65-.56,1.25.14.39.25.78.36,1.18.38,1.48.81,2.94,1.17,4.43.13.55.09,1.14.08,1.71,0,.25-.17.21-.32.21-1.16,0-2.32,0-3.48.01Z"/><path class="cls-8" d="m244.07,53.07c-.09,0-.18.03-.22-.08.1-.05.17,0,.22.08Z"/><path class="cls-8" d="m243.6,52.94c-.07.09-.11.05-.14-.03.06-.03.1-.02.14.03Z"/><path class="cls-24" d="m239.28,56.06c.03.06.03.1-.03.14-.08-.07-.03-.1.03-.14Z"/><circle class="cls-2" cx="243.13" cy="50.6" r="39.02"/><path class="cls-32" d="m337.18,83.76c.5,0,.99.02,1.49.02.84,0,1.54.69,1.55,1.54,0,.78,0,1.56,0,2.33,0,6.58,0,13.16,0,19.75,0,.43-.02.86-.15,1.28-.15.49-.75.93-1.27.93-5.57,0-11.15,0-16.72,0-.03,0-.05,0-.08,0,0-1.51,0-3.03,0-4.54,1.16,0,2.32,0,3.48-.01.15,0,.32.04.32-.21,0-.57.05-1.16-.08-1.71-.36-1.48-.79-2.95-1.17-4.43-.1-.4-.22-.79-.36-1.18-.22-.61.19-.92.56-1.25.6-.55.85-1.24.99-2.03.3-1.66-1.1-3.65-2.68-4.16-.05-.09-.12-.13-.22-.08-.08-.02-.16-.04-.24-.05-.04-.05-.08-.07-.14-.03-.15-.02-.31-.04-.46-.07,0-2.01,0-4.03,0-6.04,2.86,0,5.71,0,8.57-.02.18,0,.36-.01.53-.02,1.02.03,2.04.05,3.07,0,1,.06,2,.04,3.01,0Z"/><path class="cls-12" d="m322,105.05c0,1.51,0,3.03,0,4.54-.57,0-1.15.01-1.72.01-4.86,0-9.72-.02-14.58.02-1.28.01-1.94-.69-1.94-1.94.04-7.44.03-14.88,0-22.32,0-.89.72-1.6,1.57-1.59.5,0,.99-.01,1.49-.02,1,.03,2,.05,3-.01,1.02.06,2.04.03,3.06.01.17,0,.33.02.5.02,2.87,0,5.74,0,8.61.01,0,2.01,0,4.03,0,6.04-.32.15-.68.08-1.02.21-1.42.55-2.36,1.51-2.7,3.02-.06.03-.11.07-.03.14-.11,1.25.02,2.39,1.14,3.22.35.26.49.65.35,1.14-.09.3-.2.59-.27.9-.2.84-.42,1.66-.64,2.49-.16.61-.35,1.22-.5,1.83-.15.61-.11,1.23-.13,1.85-.01.31.07.42.4.41,1.14-.02,2.27,0,3.41,0Z"/><path class="cls-24" d="m309.83,83.75c-1,.06-2,.04-3,.01,0-2.7-.02-5.41.02-8.11.02-1.25.19-2.49.55-3.71.44-1.46,1.06-2.83,1.9-4.1,1.05-1.58,2.35-2.94,3.9-4.05,1.02-.73,2.09-1.38,3.27-1.78,1.17-.41,2.35-.81,3.61-.9.71-.05,1.41-.16,2.12-.14,1.77.03,3.47.38,5.13,1,1.65.62,3.14,1.52,4.5,2.65,1.17.97,2.13,2.12,2.94,3.4.58.9,1.03,1.86,1.42,2.87.21.55.36,1.12.55,1.68.17.51.21,1.06.27,1.6.35,3.19.08,6.39.17,9.58-1,.04-2,.05-3,0,0-2.28-.02-4.57.01-6.85.02-1.31-.15-2.6-.47-3.87-.45-1.78-1.28-3.39-2.48-4.76-1.47-1.68-3.26-2.95-5.42-3.64-1.53-.49-3.08-.64-4.69-.54-1.49.09-2.89.44-4.22,1.06-2.21,1.03-3.95,2.61-5.24,4.69-1.11,1.79-1.72,3.76-1.8,5.84-.1,2.69-.02,5.38-.02,8.08Z"/><path class="cls-8" d="m331.11,83.76c0-2.42.02-4.85,0-7.27-.01-1.29-.19-2.56-.71-3.76-.41-.95-.96-1.81-1.64-2.6-1.01-1.18-2.27-1.99-3.7-2.51-1.32-.48-2.7-.64-4.13-.46-.87.11-1.71.31-2.49.65-2.18.95-3.78,2.51-4.77,4.69-.46,1.02-.65,2.09-.7,3.2-.13,2.69-.02,5.38-.06,8.06-1.02.02-2.04.04-3.06-.01,0-2.69-.08-5.39.02-8.08.08-2.08.68-4.05,1.8-5.84,1.29-2.08,3.03-3.66,5.24-4.69,1.33-.62,2.73-.97,4.22-1.06,1.61-.09,3.16.06,4.69.54,2.16.69,3.94,1.95,5.42,3.64,1.2,1.38,2.03,2.98,2.48,4.76.32,1.27.49,2.55.47,3.87-.03,2.28-.01,4.57-.01,6.85-1.02.05-2.04.04-3.07,0Z"/><path class="cls-15" d="m322,105.05c-1.14,0-2.27-.02-3.41,0-.33,0-.41-.1-.4-.41.02-.62-.01-1.25.13-1.85.15-.62.34-1.22.5-1.83.22-.83.44-1.66.64-2.49.07-.31.18-.6.27-.9.14-.49,0-.88-.35-1.14-1.12-.83-1.25-1.97-1.14-3.22.06-.03.06-.08.03-.14.34-1.51,1.28-2.47,2.7-3.02.34-.13.7-.05,1.02-.21.15.02.31.04.46.07.03.08.07.12.14.03.08.02.16.04.24.05.04.11.14.08.22.08,1.58.51,2.98,2.5,2.68,4.16-.14.79-.4,1.48-.99,2.03-.36.33-.78.65-.56,1.25.14.39.25.78.36,1.18.38,1.48.81,2.94,1.17,4.43.13.55.09,1.14.08,1.71,0,.25-.17.21-.32.21-1.16,0-2.32,0-3.48.01Z"/><path class="cls-8" d="m323.07,90.07c-.09,0-.18.03-.22-.08.1-.05.17,0,.22.08Z"/><path class="cls-8" d="m322.6,89.94c-.07.09-.11.05-.14-.03.06-.03.1-.02.14.03Z"/><path class="cls-24" d="m318.28,93.06c.03.06.03.1-.03.14-.08-.07-.03-.1.03-.14Z"/><circle class="cls-2" cx="322.13" cy="87.6" r="39.02"/><path class="cls-32" d="m365.18,165.76c.5,0,.99.02,1.49.02.84,0,1.54.69,1.55,1.54,0,.78,0,1.56,0,2.33,0,6.58,0,13.16,0,19.75,0,.43-.02.86-.15,1.28-.15.49-.75.93-1.27.93-5.57,0-11.15,0-16.72,0-.03,0-.05,0-.08,0,0-1.51,0-3.03,0-4.54,1.16,0,2.32,0,3.48-.01.15,0,.32.04.32-.21,0-.57.05-1.16-.08-1.71-.36-1.48-.79-2.95-1.17-4.43-.1-.4-.22-.79-.36-1.18-.22-.61.19-.92.56-1.25.6-.55.85-1.24.99-2.03.3-1.66-1.1-3.65-2.68-4.16-.05-.09-.12-.13-.22-.08-.08-.02-.16-.04-.24-.05-.04-.05-.08-.07-.14-.03-.15-.02-.31-.04-.46-.07,0-2.01,0-4.03,0-6.04,2.86,0,5.71,0,8.57-.02.18,0,.36-.01.53-.02,1.02.03,2.04.05,3.07,0,1,.06,2,.04,3.01,0Z"/><path class="cls-12" d="m350,187.05c0,1.51,0,3.03,0,4.54-.57,0-1.15.01-1.72.01-4.86,0-9.72-.02-14.58.02-1.28.01-1.94-.69-1.94-1.94.04-7.44.03-14.88,0-22.32,0-.89.72-1.6,1.57-1.59.5,0,.99-.01,1.49-.02,1,.03,2,.05,3-.01,1.02.06,2.04.03,3.06.01.17,0,.33.02.5.02,2.87,0,5.74,0,8.61.01,0,2.01,0,4.03,0,6.04-.32.15-.68.08-1.02.21-1.42.55-2.36,1.51-2.7,3.02-.06.03-.11.07-.03.14-.11,1.25.02,2.39,1.14,3.22.35.26.49.65.35,1.14-.09.3-.2.59-.27.9-.2.84-.42,1.66-.64,2.49-.16.61-.35,1.22-.5,1.83-.15.61-.11,1.23-.13,1.85-.01.31.07.42.4.41,1.14-.02,2.27,0,3.41,0Z"/><path class="cls-24" d="m337.83,165.75c-1,.06-2,.04-3,.01,0-2.7-.02-5.41.02-8.11.02-1.25.19-2.49.55-3.71.44-1.46,1.06-2.83,1.9-4.1,1.05-1.58,2.35-2.94,3.9-4.05,1.02-.73,2.09-1.38,3.27-1.78,1.17-.41,2.35-.81,3.61-.9.71-.05,1.41-.16,2.12-.14,1.77.03,3.47.38,5.13,1,1.65.62,3.14,1.52,4.5,2.65,1.17.97,2.13,2.12,2.94,3.4.58.9,1.03,1.86,1.42,2.87.21.55.36,1.12.55,1.68.17.51.21,1.06.27,1.6.35,3.19.08,6.39.17,9.58-1,.04-2,.05-3,0,0-2.28-.02-4.57.01-6.85.02-1.31-.15-2.6-.47-3.87-.45-1.78-1.28-3.39-2.48-4.76-1.47-1.68-3.26-2.95-5.42-3.64-1.53-.49-3.08-.64-4.69-.54-1.49.09-2.89.44-4.22,1.06-2.21,1.03-3.95,2.61-5.24,4.69-1.11,1.79-1.72,3.76-1.8,5.84-.1,2.69-.02,5.38-.02,8.08Z"/><path class="cls-8" d="m359.11,165.76c0-2.42.02-4.85,0-7.27-.01-1.29-.19-2.56-.71-3.76-.41-.95-.96-1.81-1.64-2.6-1.01-1.18-2.27-1.99-3.7-2.51-1.32-.48-2.7-.64-4.13-.46-.87.11-1.71.31-2.49.65-2.18.95-3.78,2.51-4.77,4.69-.46,1.02-.65,2.09-.7,3.2-.13,2.69-.02,5.38-.06,8.06-1.02.02-2.04.04-3.06-.01,0-2.69-.08-5.39.02-8.08.08-2.08.68-4.05,1.8-5.84,1.29-2.08,3.03-3.66,5.24-4.69,1.33-.62,2.73-.97,4.22-1.06,1.61-.09,3.16.06,4.69.54,2.16.69,3.94,1.95,5.42,3.64,1.2,1.38,2.03,2.98,2.48,4.76.32,1.27.49,2.55.47,3.87-.03,2.28-.01,4.57-.01,6.85-1.02.05-2.04.04-3.07,0Z"/><path class="cls-15" d="m350,187.05c-1.14,0-2.27-.02-3.41,0-.33,0-.41-.1-.4-.41.02-.62-.01-1.25.13-1.85.15-.62.34-1.22.5-1.83.22-.83.44-1.66.64-2.49.07-.31.18-.6.27-.9.14-.49,0-.88-.35-1.14-1.12-.83-1.25-1.97-1.14-3.22.06-.03.06-.08.03-.14.34-1.51,1.28-2.47,2.7-3.02.34-.13.7-.05,1.02-.21.15.02.31.04.46.07.03.08.07.12.14.03.08.02.16.04.24.05.04.11.14.08.22.08,1.58.51,2.98,2.5,2.68,4.16-.14.79-.4,1.48-.99,2.03-.36.33-.78.65-.56,1.25.14.39.25.78.36,1.18.38,1.48.81,2.94,1.17,4.43.13.55.09,1.14.08,1.71,0,.25-.17.21-.32.21-1.16,0-2.32,0-3.48.01Z"/><path class="cls-8" d="m351.07,172.07c-.09,0-.18.03-.22-.08.1-.05.17,0,.22.08Z"/><path class="cls-8" d="m350.6,171.94c-.07.09-.11.05-.14-.03.06-.03.1-.02.14.03Z"/><path class="cls-24" d="m346.28,175.06c.03.06.03.1-.03.14-.08-.07-.03-.1.03-.14Z"/><circle class="cls-2" cx="350.13" cy="169.6" r="39.02"/><path class="cls-32" d="m212.18,350.76c.5,0,.99.02,1.49.02.84,0,1.54.69,1.55,1.54,0,.78,0,1.56,0,2.33,0,6.58,0,13.16,0,19.75,0,.43-.02.86-.15,1.28-.15.49-.75.93-1.27.93-5.57,0-11.15,0-16.72,0-.03,0-.05,0-.08,0,0-1.51,0-3.03,0-4.54,1.16,0,2.32,0,3.48-.01.15,0,.32.04.32-.21,0-.57.05-1.16-.08-1.71-.36-1.48-.79-2.95-1.17-4.43-.1-.4-.22-.79-.36-1.18-.22-.61.19-.92.56-1.25.6-.55.85-1.24.99-2.03.3-1.66-1.1-3.65-2.68-4.16-.05-.09-.12-.13-.22-.08-.08-.02-.16-.04-.24-.05-.04-.05-.08-.07-.14-.03-.15-.02-.31-.04-.46-.07,0-2.01,0-4.03,0-6.04,2.86,0,5.71,0,8.57-.02.18,0,.36-.01.53-.02,1.02.03,2.04.05,3.07,0,1,.06,2,.04,3.01,0Z"/><path class="cls-12" d="m197,372.05c0,1.51,0,3.03,0,4.54-.57,0-1.15.01-1.72.01-4.86,0-9.72-.02-14.58.02-1.28.01-1.94-.69-1.94-1.94.04-7.44.03-14.88,0-22.32,0-.89.72-1.6,1.57-1.59.5,0,.99-.01,1.49-.02,1,.03,2,.05,3-.01,1.02.06,2.04.03,3.06.01.17,0,.33.02.5.02,2.87,0,5.74,0,8.61.01,0,2.01,0,4.03,0,6.04-.32.15-.68.08-1.02.21-1.42.55-2.36,1.51-2.7,3.02-.06.03-.11.07-.03.14-.11,1.25.02,2.39,1.14,3.22.35.26.49.65.35,1.14-.09.3-.2.59-.27.9-.2.84-.42,1.66-.64,2.49-.16.61-.35,1.22-.5,1.83-.15.61-.11,1.23-.13,1.85-.01.31.07.42.4.41,1.14-.02,2.27,0,3.41,0Z"/><path class="cls-24" d="m184.83,350.75c-1,.06-2,.04-3,.01,0-2.7-.02-5.41.02-8.11.02-1.25.19-2.49.55-3.71.44-1.46,1.06-2.83,1.9-4.1,1.05-1.58,2.35-2.94,3.9-4.05,1.02-.73,2.09-1.38,3.27-1.78,1.17-.41,2.35-.81,3.61-.9.71-.05,1.41-.16,2.12-.14,1.77.03,3.47.38,5.13,1,1.65.62,3.14,1.52,4.5,2.65,1.17.97,2.13,2.12,2.94,3.4.58.9,1.03,1.86,1.42,2.87.21.55.36,1.12.55,1.68.17.51.21,1.06.27,1.6.35,3.19.08,6.39.17,9.58-1,.04-2,.05-3,0,0-2.28-.02-4.57.01-6.85.02-1.31-.15-2.6-.47-3.87-.45-1.78-1.28-3.39-2.48-4.76-1.47-1.68-3.26-2.95-5.42-3.64-1.53-.49-3.08-.64-4.69-.54-1.49.09-2.89.44-4.22,1.06-2.21,1.03-3.95,2.61-5.24,4.69-1.11,1.79-1.72,3.76-1.8,5.84-.1,2.69-.02,5.38-.02,8.08Z"/><path class="cls-8" d="m206.11,350.76c0-2.42.02-4.85,0-7.27-.01-1.29-.19-2.56-.71-3.76-.41-.95-.96-1.81-1.64-2.6-1.01-1.18-2.27-1.99-3.7-2.51-1.32-.48-2.7-.64-4.13-.46-.87.11-1.71.31-2.49.65-2.18.95-3.78,2.51-4.77,4.69-.46,1.02-.65,2.09-.7,3.2-.13,2.69-.02,5.38-.06,8.06-1.02.02-2.04.04-3.06-.01,0-2.69-.08-5.39.02-8.08.08-2.08.68-4.05,1.8-5.84,1.29-2.08,3.03-3.66,5.24-4.69,1.33-.62,2.73-.97,4.22-1.06,1.61-.09,3.16.06,4.69.54,2.16.69,3.94,1.95,5.42,3.64,1.2,1.38,2.03,2.98,2.48,4.76.32,1.27.49,2.55.47,3.87-.03,2.28-.01,4.57-.01,6.85-1.02.05-2.04.04-3.07,0Z"/><path class="cls-15" d="m197,372.05c-1.14,0-2.27-.02-3.41,0-.33,0-.41-.1-.4-.41.02-.62-.01-1.25.13-1.85.15-.62.34-1.22.5-1.83.22-.83.44-1.66.64-2.49.07-.31.18-.6.27-.9.14-.49,0-.88-.35-1.14-1.12-.83-1.25-1.97-1.14-3.22.06-.03.06-.08.03-.14.34-1.51,1.28-2.47,2.7-3.02.34-.13.7-.05,1.02-.21.15.02.31.04.46.07.03.08.07.12.14.03.08.02.16.04.24.05.04.11.14.08.22.08,1.58.51,2.98,2.5,2.68,4.16-.14.79-.4,1.48-.99,2.03-.36.33-.78.65-.56,1.25.14.39.25.78.36,1.18.38,1.48.81,2.94,1.17,4.43.13.55.09,1.14.08,1.71,0,.25-.17.21-.32.21-1.16,0-2.32,0-3.48.01Z"/><path class="cls-8" d="m198.07,357.07c-.09,0-.18.03-.22-.08.1-.05.17,0,.22.08Z"/><path class="cls-8" d="m197.6,356.94c-.07.09-.11.05-.14-.03.06-.03.1-.02.14.03Z"/><path class="cls-24" d="m193.28,360.06c.03.06.03.1-.03.14-.08-.07-.03-.1.03-.14Z"/><circle class="cls-2" cx="197.13" cy="354.6" r="39.02"/><path class="cls-32" d="m361.18,258.76c.5,0,.99.02,1.49.02.84,0,1.54.69,1.55,1.54,0,.78,0,1.56,0,2.33,0,6.58,0,13.16,0,19.75,0,.43-.02.86-.15,1.28-.15.49-.75.93-1.27.93-5.57,0-11.15,0-16.72,0-.03,0-.05,0-.08,0,0-1.51,0-3.03,0-4.54,1.16,0,2.32,0,3.48-.01.15,0,.32.04.32-.21,0-.57.05-1.16-.08-1.71-.36-1.48-.79-2.95-1.17-4.43-.1-.4-.22-.79-.36-1.18-.22-.61.19-.92.56-1.25.6-.55.85-1.24.99-2.03.3-1.66-1.1-3.65-2.68-4.16-.05-.09-.12-.13-.22-.08-.08-.02-.16-.04-.24-.05-.04-.05-.08-.07-.14-.03-.15-.02-.31-.04-.46-.07,0-2.01,0-4.03,0-6.04,2.86,0,5.71,0,8.57-.02.18,0,.36-.01.53-.02,1.02.03,2.04.05,3.07,0,1,.06,2,.04,3.01,0Z"/><path class="cls-12" d="m346,280.05c0,1.51,0,3.03,0,4.54-.57,0-1.15.01-1.72.01-4.86,0-9.72-.02-14.58.02-1.28.01-1.94-.69-1.94-1.94.04-7.44.03-14.88,0-22.32,0-.89.72-1.6,1.57-1.59.5,0,.99-.01,1.49-.02,1,.03,2,.05,3-.01,1.02.06,2.04.03,3.06.01.17,0,.33.02.5.02,2.87,0,5.74,0,8.61.01,0,2.01,0,4.03,0,6.04-.32.15-.68.08-1.02.21-1.42.55-2.36,1.51-2.7,3.02-.06.03-.11.07-.03.14-.11,1.25.02,2.39,1.14,3.22.35.26.49.65.35,1.14-.09.3-.2.59-.27.9-.2.84-.42,1.66-.64,2.49-.16.61-.35,1.22-.5,1.83-.15.61-.11,1.23-.13,1.85-.01.31.07.42.4.41,1.14-.02,2.27,0,3.41,0Z"/><path class="cls-24" d="m333.83,258.75c-1,.06-2,.04-3,.01,0-2.7-.02-5.41.02-8.11.02-1.25.19-2.49.55-3.71.44-1.46,1.06-2.83,1.9-4.1,1.05-1.58,2.35-2.94,3.9-4.05,1.02-.73,2.09-1.38,3.27-1.78,1.17-.41,2.35-.81,3.61-.9.71-.05,1.41-.16,2.12-.14,1.77.03,3.47.38,5.13,1,1.65.62,3.14,1.52,4.5,2.65,1.17.97,2.13,2.12,2.94,3.4.58.9,1.03,1.86,1.42,2.87.21.55.36,1.12.55,1.68.17.51.21,1.06.27,1.6.35,3.19.08,6.39.17,9.58-1,.04-2,.05-3,0,0-2.28-.02-4.57.01-6.85.02-1.31-.15-2.6-.47-3.87-.45-1.78-1.28-3.39-2.48-4.76-1.47-1.68-3.26-2.95-5.42-3.64-1.53-.49-3.08-.64-4.69-.54-1.49.09-2.89.44-4.22,1.06-2.21,1.03-3.95,2.61-5.24,4.69-1.11,1.79-1.72,3.76-1.8,5.84-.1,2.69-.02,5.38-.02,8.08Z"/><path class="cls-8" d="m355.11,258.76c0-2.42.02-4.85,0-7.27-.01-1.29-.19-2.56-.71-3.76-.41-.95-.96-1.81-1.64-2.6-1.01-1.18-2.27-1.99-3.7-2.51-1.32-.48-2.7-.64-4.13-.46-.87.11-1.71.31-2.49.65-2.18.95-3.78,2.51-4.77,4.69-.46,1.02-.65,2.09-.7,3.2-.13,2.69-.02,5.38-.06,8.06-1.02.02-2.04.04-3.06-.01,0-2.69-.08-5.39.02-8.08.08-2.08.68-4.05,1.8-5.84,1.29-2.08,3.03-3.66,5.24-4.69,1.33-.62,2.73-.97,4.22-1.06,1.61-.09,3.16.06,4.69.54,2.16.69,3.94,1.95,5.42,3.64,1.2,1.38,2.03,2.98,2.48,4.76.32,1.27.49,2.55.47,3.87-.03,2.28-.01,4.57-.01,6.85-1.02.05-2.04.04-3.07,0Z"/><path class="cls-15" d="m346,280.05c-1.14,0-2.27-.02-3.41,0-.33,0-.41-.1-.4-.41.02-.62-.01-1.25.13-1.85.15-.62.34-1.22.5-1.83.22-.83.44-1.66.64-2.49.07-.31.18-.6.27-.9.14-.49,0-.88-.35-1.14-1.12-.83-1.25-1.97-1.14-3.22.06-.03.06-.08.03-.14.34-1.51,1.28-2.47,2.7-3.02.34-.13.7-.05,1.02-.21.15.02.31.04.46.07.03.08.07.12.14.03.08.02.16.04.24.05.04.11.14.08.22.08,1.58.51,2.98,2.5,2.68,4.16-.14.79-.4,1.48-.99,2.03-.36.33-.78.65-.56,1.25.14.39.25.78.36,1.18.38,1.48.81,2.94,1.17,4.43.13.55.09,1.14.08,1.71,0,.25-.17.21-.32.21-1.16,0-2.32,0-3.48.01Z"/><path class="cls-8" d="m347.07,265.07c-.09,0-.18.03-.22-.08.1-.05.17,0,.22.08Z"/><path class="cls-8" d="m346.6,264.94c-.07.09-.11.05-.14-.03.06-.03.1-.02.14.03Z"/><path class="cls-24" d="m342.28,268.06c.03.06.03.1-.03.14-.08-.07-.03-.1.03-.14Z"/><circle class="cls-2" cx="346.13" cy="262.6" r="39.02"/><path class="cls-32" d="m300.18,333.76c.5,0,.99.02,1.49.02.84,0,1.54.69,1.55,1.54,0,.78,0,1.56,0,2.33,0,6.58,0,13.16,0,19.75,0,.43-.02.86-.15,1.28-.15.49-.75.93-1.27.93-5.57,0-11.15,0-16.72,0-.03,0-.05,0-.08,0,0-1.51,0-3.03,0-4.54,1.16,0,2.32,0,3.48-.01.15,0,.32.04.32-.21,0-.57.05-1.16-.08-1.71-.36-1.48-.79-2.95-1.17-4.43-.1-.4-.22-.79-.36-1.18-.22-.61.19-.92.56-1.25.6-.55.85-1.24.99-2.03.3-1.66-1.1-3.65-2.68-4.16-.05-.09-.12-.13-.22-.08-.08-.02-.16-.04-.24-.05-.04-.05-.08-.07-.14-.03-.15-.02-.31-.04-.46-.07,0-2.01,0-4.03,0-6.04,2.86,0,5.71,0,8.57-.02.18,0,.36-.01.53-.02,1.02.03,2.04.05,3.07,0,1,.06,2,.04,3.01,0Z"/><path class="cls-12" d="m285,355.05c0,1.51,0,3.03,0,4.54-.57,0-1.15.01-1.72.01-4.86,0-9.72-.02-14.58.02-1.28.01-1.94-.69-1.94-1.94.04-7.44.03-14.88,0-22.32,0-.89.72-1.6,1.57-1.59.5,0,.99-.01,1.49-.02,1,.03,2,.05,3-.01,1.02.06,2.04.03,3.06.01.17,0,.33.02.5.02,2.87,0,5.74,0,8.61.01,0,2.01,0,4.03,0,6.04-.32.15-.68.08-1.02.21-1.42.55-2.36,1.51-2.7,3.02-.06.03-.11.07-.03.14-.11,1.25.02,2.39,1.14,3.22.35.26.49.65.35,1.14-.09.3-.2.59-.27.9-.2.84-.42,1.66-.64,2.49-.16.61-.35,1.22-.5,1.83-.15.61-.11,1.23-.13,1.85-.01.31.07.42.4.41,1.14-.02,2.27,0,3.41,0Z"/><path class="cls-24" d="m272.83,333.75c-1,.06-2,.04-3,.01,0-2.7-.02-5.41.02-8.11.02-1.25.19-2.49.55-3.71.44-1.46,1.06-2.83,1.9-4.1,1.05-1.58,2.35-2.94,3.9-4.05,1.02-.73,2.09-1.38,3.27-1.78,1.17-.41,2.35-.81,3.61-.9.71-.05,1.41-.16,2.12-.14,1.77.03,3.47.38,5.13,1,1.65.62,3.14,1.52,4.5,2.65,1.17.97,2.13,2.12,2.94,3.4.58.9,1.03,1.86,1.42,2.87.21.55.36,1.12.55,1.68.17.51.21,1.06.27,1.6.35,3.19.08,6.39.17,9.58-1,.04-2,.05-3,0,0-2.28-.02-4.57.01-6.85.02-1.31-.15-2.6-.47-3.87-.45-1.78-1.28-3.39-2.48-4.76-1.47-1.68-3.26-2.95-5.42-3.64-1.53-.49-3.08-.64-4.69-.54-1.49.09-2.89.44-4.22,1.06-2.21,1.03-3.95,2.61-5.24,4.69-1.11,1.79-1.72,3.76-1.8,5.84-.1,2.69-.02,5.38-.02,8.08Z"/><path class="cls-8" d="m294.11,333.76c0-2.42.02-4.85,0-7.27-.01-1.29-.19-2.56-.71-3.76-.41-.95-.96-1.81-1.64-2.6-1.01-1.18-2.27-1.99-3.7-2.51-1.32-.48-2.7-.64-4.13-.46-.87.11-1.71.31-2.49.65-2.18.95-3.78,2.51-4.77,4.69-.46,1.02-.65,2.09-.7,3.2-.13,2.69-.02,5.38-.06,8.06-1.02.02-2.04.04-3.06-.01,0-2.69-.08-5.39.02-8.08.08-2.08.68-4.05,1.8-5.84,1.29-2.08,3.03-3.66,5.24-4.69,1.33-.62,2.73-.97,4.22-1.06,1.61-.09,3.16.06,4.69.54,2.16.69,3.94,1.95,5.42,3.64,1.2,1.38,2.03,2.98,2.48,4.76.32,1.27.49,2.55.47,3.87-.03,2.28-.01,4.57-.01,6.85-1.02.05-2.04.04-3.07,0Z"/><path class="cls-15" d="m285,355.05c-1.14,0-2.27-.02-3.41,0-.33,0-.41-.1-.4-.41.02-.62-.01-1.25.13-1.85.15-.62.34-1.22.5-1.83.22-.83.44-1.66.64-2.49.07-.31.18-.6.27-.9.14-.49,0-.88-.35-1.14-1.12-.83-1.25-1.97-1.14-3.22.06-.03.06-.08.03-.14.34-1.51,1.28-2.47,2.7-3.02.34-.13.7-.05,1.02-.21.15.02.31.04.46.07.03.08.07.12.14.03.08.02.16.04.24.05.04.11.14.08.22.08,1.58.51,2.98,2.5,2.68,4.16-.14.79-.4,1.48-.99,2.03-.36.33-.78.65-.56,1.25.14.39.25.78.36,1.18.38,1.48.81,2.94,1.17,4.43.13.55.09,1.14.08,1.71,0,.25-.17.21-.32.21-1.16,0-2.32,0-3.48.01Z"/><path class="cls-8" d="m286.07,340.07c-.09,0-.18.03-.22-.08.1-.05.17,0,.22.08Z"/><path class="cls-8" d="m285.6,339.94c-.07.09-.11.05-.14-.03.06-.03.1-.02.14.03Z"/><path class="cls-24" d="m281.28,343.06c.03.06.03.1-.03.14-.08-.07-.03-.1.03-.14Z"/><circle class="cls-2" cx="285.13" cy="337.6" r="39.02"/><circle class="cls-3" cx="54.57" cy="269.94" r="38.3"/><path class="cls-16" d="m64.61,253.26c.19.24.42.44.68.6,1,.92,1.55,2.22,1.53,3.57v38.55c0,3.06-1.53,4.85-4.68,5.11-5.1.43-10.22.43-15.32,0-2.51-.07-4.5-2.16-4.43-4.67,0-.06,0-.12,0-.18v-38.81c-.14-2.54,1.81-4.71,4.35-4.85.03,0,.05,0,.08,0,4.48-.31,8.96-.37,13.45-.17.31-.01.63.01.94.09,1.19-.02,2.37.19,3.49.6l-.09.17Zm-9.28,5.62h-9.45c-.6,0-.77.17-.77.77v9.79c0,3.23,0,2.04,2.04,1.96h16.26c.51,0,.6-.17.6-.6v-11.26c0-.43-.09-.68-.6-.68h-8.09v.03Zm1.79,25.11c-1.96,0-1.79,0-1.79,1.87,0,.6.26.85.85.85h1.36c1.11,0,1.19,0,1.19-1.11,0-1.87.17-1.62-1.62-1.62Zm-5.02,0h-.94c-.51,0-.85.17-.68.68.17.68-.6,1.79.68,2.04.65.09,1.31.09,1.96,0,.37.02.69-.24.77-.6.43-1.62,0-2.13-1.62-2.13h-.17Zm0-4c-1.87,0-1.62-.17-1.7,1.7v.26c0,.6.26.85.77.85h1.96c.34-.01.62-.26.68-.6.43-1.62,0-2.13-1.62-2.13h0l-.09-.09Zm5.11,0h-1.11c-.43,0-.68.17-.68.6,0,1.96-.17,2.21,1.79,2.13h.43c1.11,0,1.19-.17,1.19-1.19,0-1.79.17-1.62-1.62-1.62h0v.09Zm-.09,10.81h.85c.43,0,.85-.09.85-.6,0-.68.43-1.53-.34-2.13h-2.38c-.32-.02-.61.19-.68.51-.43,1.62,0,2.21,1.7,2.21h0Zm-4.94,0h.85c.51,0,.85-.17.85-.68,0-.68.43-1.53-.34-2.04h-2.38c-.29,0-.55.17-.68.43-.51,1.53,0,2.3,1.62,2.3h.09Zm0-14.81h-.77c-.6,0-.85.17-.85.85q0,1.96,1.96,1.96h.68c.39.01.73-.29.77-.68.34-1.7,0-2.13-1.7-2.13h-.09Zm5.11,0h-1.11c-.43,0-.68.17-.68.68,0,1.96-.17,2.21,1.79,2.13h.43c1.11,0,1.19-.17,1.19-1.19,0-1.79.17-1.62-1.62-1.62h0Zm-10.04,14.81h.68c.77,0,1.02-.26.94-1.02,0-2.04.26-1.79-1.79-1.79h-.34c-1.11,0-1.19,0-1.11,1.11,0,1.53-.34,1.7,1.62,1.62v.09Zm14.98-2.81h-.68c-.68-.09-.94.17-.94.94,0,1.96-.34,1.87,1.87,1.87h.34q1.11,0,1.11-1.11c0-1.87.17-1.62-1.62-1.62h0l-.09-.09Zm0-4h-.85c-.6,0-.77.26-.77.85,0,2.04-.34,1.96,1.96,1.96h.26c1.02,0,1.11-.09,1.11-1.11,0-1.87.17-1.7-1.62-1.7h-.09Zm-14.89,0h-.75c-.68,0-.94.17-.94.94,0,1.96-.34,1.87,1.87,1.87h.34c1.02,0,1.11-.09,1.11-1.19,0-1.79.17-1.62-1.62-1.62h-.02Zm0-4h-.75c-.68,0-.94.17-.85.85,0,1.96-.17,1.96,1.87,1.87h.26c1.11,0,1.19,0,1.19-1.19,0-1.79.17-1.62-1.62-1.62l-.1.09Zm14.98-4h-.85c-.6,0-.77.26-.77.85,0,2.04-.17,1.96,1.96,1.96h.26c1.02,0,1.11-.09,1.11-1.11,0-1.87.17-1.62-1.62-1.7h-.09Zm0,4c-1.87,0-1.62-.26-1.7,1.7v.17c0,.68.26.94.94.94h1.21c1.02,0,1.11-.09,1.11-1.19,0-1.79.17-1.62-1.62-1.62h.07Zm-14.98-4h-.85c-.6,0-.77.26-.77.85,0,2.04-.17,1.96,1.96,1.96h.26c1.02,0,1.11-.09,1.11-1.11,0-1.87.17-1.62-1.62-1.7h-.09Zm9.11-19.49c.34,0,.6-.09.51-.51s-.17-.43-.51-.43-.6.09-.51.51.17.43.51.43Zm2.13-.43c0-.34-.17-.43-.51-.43s-.6,0-.6.43.17.43.51.43.6-.09.6-.43Zm-4.94,41.45c.04-.25-.14-.48-.38-.51-.04,0-.09,0-.13,0-.34,0-.43.26-.43.51s.17.51.43.51c.26-.03.45-.25.43-.51h.09Zm-1.79-41.87c-.27,0-.51.17-.6.43,0,.27.2.5.48.51.01,0,.02,0,.03,0,.26,0,.43-.09.43-.34h0c0-.34-.09-.51-.43-.51l.09-.09Zm1.96.43c0-.34-.17-.43-.51-.43-.24-.05-.46.1-.51.34-.05.24.1.46.34.51.06.01.11.01.17,0,.34,0,.43-.17.43-.43h.09Zm-.17,37.96c0-.34-.26-.43-.51-.43-.22-.01-.41.15-.43.37,0,.02,0,.04,0,.05,0,.34.17.51.43.51s.43-.17.43-.51h.09Zm3.4-.09c0-.17-.09-.34-.43-.34s-.51.09-.51.43.17.51.43.51.43-.17.43-.6h.09Zm-.34,4c.26,0,.34-.17.34-.43.02-.26-.17-.48-.43-.51-.22-.02-.42.14-.44.36,0,.05,0,.1.01.15.09.34.17.43.6.43h-.09Zm-1.36-41.87c0-.34-.26-.43-.51-.43s-.43.17-.34.51.26.43.51.43c.26-.03.45-.25.43-.51h-.09Zm-.43,37.7c.22.01.41-.15.43-.37,0-.02,0-.04,0-.05,0-.34-.17-.51-.51-.43s-.43.17-.43.51c.03.26.25.45.51.43h0v-.09Zm-2.55,2.47c.26,0,.43-.09.51-.43s-.09-.51-.43-.51-.43.09-.51.43.09.51.43.51h0Zm4.85-.94c-.21,0-.37.18-.37.38,0,.04,0,.09.03.13,0,.26.17.43.51.34s.43-.26.43-.51c-.03-.26-.25-.45-.51-.43l-.09.09Zm-2.38,3.4c.22.01.41-.15.43-.37,0-.02,0-.04,0-.05,0-.34-.17-.51-.43-.51-.22-.01-.41.15-.43.37,0,.02,0,.04,0,.05,0,.34.17.49.43.49v.03Zm-.51-2.64c0-.26-.09-.43-.43-.43-.22-.01-.41.15-.43.37,0,.02,0,.04,0,.05,0,.26.09.51.34.51.25,0,.46-.18.51-.43h0v-.09Zm.68.34c-.22-.01-.41.15-.43.37,0,.02,0,.04,0,.05.03.26.25.45.51.43h0c.26,0,.34-.26.34-.43.01-.22-.15-.41-.37-.43-.02,0-.04,0-.05,0Zm0-1.62c.02-.21-.13-.4-.34-.43-.25,0-.46.18-.51.43,0,.17.09.43.34.43h0c.26,0,.34-.26.43-.43h.09Zm.85,1.11c.18-.01.33-.16.34-.34,0-.17,0-.34-.26-.43h-.09c-.26,0-.34.17-.43.34s0,.34.34.34l.09.09Z"/><path class="cls-28" d="m57.65,258.88h5.79c.51,0,.6.17.6.68v11.23c0,.43-.09.6-.6.6h-13.02c.02-.18.08-.36.17-.51,1.62-2.64,3.15-5.28,4.77-7.91.85-1.31,1.62-2.68,2.3-4.09Z"/><path class="cls-28" d="m47.16,271.3c-1.36,0-2.04-.65-2.04-1.96v-9.81c0-.6.17-.77.77-.77h8.51c-.6,1.24-1.28,2.43-2.04,3.57-1.7,2.98-3.49,5.87-5.19,8.85v.11Z"/><path class="cls-23" d="m57.65,258.88c-.68,1.41-1.45,2.77-2.3,4.09-1.53,2.64-3.15,5.28-4.77,7.91,0,.17-.17.34-.17.51h-1.36c.02-.18.08-.36.17-.51,1.36-2.21,2.72-4.51,4-6.72,1.02-1.79,2.13-3.4,3.06-5.28h1.36Z"/><path class="cls-7" d="m56.27,258.88c-.94,1.79-2.04,3.49-3.06,5.28-1.36,2.3-2.72,4.51-4,6.72,0,.17-.17.34-.17.51h-.94c.39-1,.9-1.94,1.53-2.81,1.87-3.23,3.83-6.47,5.7-9.62h.94v-.09Z"/><path class="cls-17" d="m55.34,258.88c-1.87,3.23-3.83,6.38-5.7,9.62-.62.87-1.14,1.81-1.53,2.81h-.94c1.79-2.89,3.49-5.87,5.19-8.85.76-1.14,1.44-2.34,2.04-3.57h.94Z"/><path class="cls-26" d="m57.12,283.98c1.87,0,1.62-.17,1.62,1.62,0,1.02,0,1.11-1.19,1.11h-1.36c-.42.05-.8-.25-.85-.67,0-.06,0-.12,0-.18,0-1.96-.17-1.96,1.79-1.87Z"/><path class="cls-26" d="m52.02,283.98h0c1.62,0,2.04.51,1.62,2.13-.04.37-.38.64-.76.6,0,0,0,0-.01,0-.65.04-1.31.04-1.96,0-1.28-.26-.51-1.36-.68-2.04-.09-.51.17-.77.68-.68h1.11Z"/><path class="cls-26" d="m52.02,279.96h0c1.62,0,2.04.51,1.62,2.13-.06.33-.34.58-.68.6h-1.96c-.51,0-.85-.26-.77-.85v-.26c0-1.87-.26-1.7,1.7-1.7l.09.09Z"/><path class="cls-26" d="m57.12,279.96c1.79,0,1.62-.17,1.62,1.62,0,1.02-.17,1.19-1.19,1.19h-.43c-2.04,0-1.79-.17-1.79-2.13,0-.43.26-.6.68-.6h1.11v-.09Z"/><path class="cls-26" d="m57.04,290.79c-1.62,0-2.13-.6-1.7-2.21.07-.32.36-.53.68-.51h2.38c.77.6.34,1.45.34,2.13,0,.51-.43.6-.85.6h-.85Z"/><path class="cls-26" d="m52.02,290.79c-1.53,0-2.13-.85-1.62-2.3.05-.3.34-.49.63-.44.02,0,.03,0,.05.01h2.38c.77.6.34,1.36.34,2.04,0,.43-.34.68-.85.68h-.94Z"/><path class="cls-26" d="m52.02,275.9h0c1.7,0,2.04.43,1.7,2.13,0,.43-.34.6-.77.68h-.68q-1.96,0-1.96-1.96c0-1.96.26-.94.85-.85h.85Z"/><path class="cls-26" d="m57.12,275.9c1.79,0,1.62-.17,1.62,1.62,0,1.02-.17,1.19-1.19,1.19h-.43c-2.04,0-1.79-.17-1.79-2.13,0-.43.26-.6.68-.68h1.11Z"/><path class="cls-26" d="m47.08,290.79c-1.96,0-1.62-.09-1.62-1.62q0-1.11,1.11-1.11h.34c2.04,0,1.79-.26,1.79,1.79,0,.77-.26,1.02-.94,1.02h-.68v-.09Z"/><path class="cls-26" d="m62.06,287.98c1.87,0,1.62-.17,1.62,1.62q0,1.11-1.11,1.11h-.34c-2.21,0-1.79,0-1.87-1.87,0-.68.26-1.02.94-.94h.68l.09.09Z"/><path class="cls-26" d="m62.06,283.98c1.79,0,1.62-.17,1.62,1.7,0,1.02-.09,1.11-1.11,1.11h-.26c-2.3,0-1.87.09-1.96-1.96,0-.6.17-.85.77-.85h.94Z"/><path class="cls-26" d="m47.08,283.98c1.79,0,1.53-.17,1.62,1.62,0,1.02,0,1.19-1.11,1.19h-.34c-2.21,0-1.79,0-1.87-1.87,0-.68.26-1.02.94-.94h.77Z"/><path class="cls-26" d="m47.08,279.96c1.79,0,1.62-.17,1.62,1.62,0,1.11,0,1.19-1.19,1.19h-.26c-2.04,0-1.79,0-1.87-1.87,0-.68.17-.94.85-.85h.77l.09-.09Z"/><path class="cls-26" d="m62.06,275.9c1.79,0,1.62-.17,1.62,1.7,0,1.02-.09,1.11-1.11,1.11h-.26c-2.13,0-1.87.09-1.96-1.96,0-.6.17-.85.77-.85h.94Z"/><path class="cls-26" d="m62.06,279.96c1.79,0,1.62-.17,1.62,1.62,0,1.11-.09,1.19-1.11,1.19h-1.19c-.68,0-.94-.26-.94-.94v-.17c0-1.87-.26-1.7,1.7-1.7h-.09Z"/><path class="cls-26" d="m47.08,275.9c1.79,0,1.62-.17,1.62,1.62,0,1.02-.09,1.11-1.11,1.11h-.26c-2.13,0-1.96.09-1.96-1.96,0-.6.17-.85.77-.85h.85l.09.09Z"/><path class="cls-29" d="m56.19,256.49c-.26,0-.51-.09-.51-.43,0-.27.2-.5.48-.51.01,0,.02,0,.03,0,.26,0,.51.09.51.43,0,.27-.2.5-.48.51-.01,0-.02,0-.03,0Z"/><path class="cls-29" d="m58.23,256.07c0,.34-.26.43-.6.43s-.51-.17-.51-.43.26-.43.6-.43.51.17.51.43Z"/><path class="cls-31" d="m53.29,297.43c.02.26-.17.48-.43.51-.22.02-.42-.14-.44-.36,0-.05,0-.1.01-.15,0-.26.09-.51.43-.51.25-.04.48.14.51.38,0,.04,0,.09,0,.13h-.09Z"/><path class="cls-29" d="m51.51,255.56c.34,0,.43.17.43.51.01.22-.15.41-.37.43-.02,0-.04,0-.05,0h0c-.34,0-.6-.17-.51-.51s.26-.43.6-.43h-.09Z"/><path class="cls-29" d="m53.46,255.98c0,.34-.17.51-.43.43-.24.05-.46-.1-.51-.34-.05-.24.1-.46.34-.51.06-.01.11-.01.17,0,.26,0,.51.09.51.43h-.09Z"/><path class="cls-29" d="m53.29,293.94c0,.34-.17.51-.43.51s-.43-.17-.43-.51.09-.43.43-.43.51.09.51.43h-.09Z"/><path class="cls-29" d="m56.7,293.86c0,.43-.17.6-.43.6s-.43-.17-.43-.51.26-.43.51-.43c.21-.02.4.13.43.34h-.09Z"/><path class="cls-29" d="m56.36,297.83c-.34,0-.6-.09-.6-.43s.17-.51.43-.51.43.17.43.51-.09.43-.34.43h.09Z"/><path class="cls-29" d="m54.99,255.98c.03.23-.12.45-.34.51-.26,0-.51-.09-.51-.43-.03-.23.12-.45.34-.51.34,0,.51.09.51.43Z"/><path class="cls-29" d="m54.57,293.69c-.26,0-.43-.09-.51-.43s.09-.51.43-.51.51.17.51.43c.01.22-.15.41-.37.43-.02,0-.04,0-.05,0v.09Z"/><path class="cls-29" d="m52.1,296.13c-.34,0-.43-.17-.43-.51s.17-.43.51-.43.43.17.43.51-.17.43-.51.43Z"/><path class="cls-29" d="m56.95,295.22c.34,0,.51.09.51.34s-.09.51-.43.51c-.23.03-.45-.12-.51-.34,0-.34.09-.51.34-.51h.09Z"/><path class="cls-29" d="m54.57,291.81c-.18-.01-.33-.16-.34-.34,0-.17.09-.26.34-.26.17-.01.33.11.34.29,0,.02,0,.04,0,.05,0,.17-.09.26-.34.26Z"/><path class="cls-31" d="m54.06,295.98c-.05.24-.26.42-.51.43-.26,0-.43-.17-.34-.51s.17-.43.43-.43.34.26.43.43v.09Z"/><path class="cls-31" d="m54.74,296.32c.22-.01.41.15.43.37,0,.02,0,.04,0,.05,0,.26,0,.43-.34.43s-.51-.09-.51-.34h0c0-.26.17-.34.43-.43v-.09Z"/><path class="cls-31" d="m54.65,294.79c-.02.23-.2.41-.43.43-.21.02-.4-.13-.43-.34h0c.03-.26.25-.45.51-.43.26,0,.34.17.34.43v-.09Z"/><path class="cls-29" d="m55.59,295.81c-.34,0-.43-.17-.34-.34s.17-.43.43-.34c.18.01.33.16.34.34v.09c-.01.18-.16.33-.34.34l-.09-.09Z"/><path d="m27.17,265.44c2.25-.21,4.24,1.44,4.45,3.68,0,.03,0,.06,0,.09l.18,3.35-8.32.52-.18-3.35c-.15-2.21,1.52-4.13,3.73-4.29.05,0,.09,0,.14,0Zm.15,1.82c-1.17-.05-2.16.85-2.21,2.02,0,.1,0,.2,0,.3l.07,1.46,4.67-.34-.07-1.46c-.05-1.22-1.08-2.17-2.3-2.12-.06,0-.13,0-.19.02l.03.12Z"/><path d="m24.23,263.55c-.6-.11-1-.68-.9-1.28.11-.6.68-1,1.28-.9.6.11,1,.68.9,1.28h0c-.1.59-.65,1-1.25.9-.01,0-.02,0-.03,0Zm1.56.09l.3-1.73,5.83,1.01-.3,1.73-5.83-1.01Z"/><path d="m32.05,257.04c1.33.45,1.49,1.77,1.02,2.98-.28,1.01-1.12,1.77-2.16,1.95l-.31-1.72c.46.06.88-.25.96-.7.16-.4.11-.64-.15-.71-.66-.22-1.28,2.62-3.2,1.99-1.21-.47-1.47-1.65-1.07-2.91.27-.91,1.02-1.6,1.95-1.78l.24,1.67c-.36.03-.66.27-.79.6-.13.18-.09.43.08.56.01.01.03.02.04.03.66.22,1.2-2.67,3.27-1.95l.12-.03Z"/><path d="m35.07,250.28c1.41.85,1.86,2.68,1.02,4.09-.01.02-.03.05-.05.07-.37.57-.95.96-1.61,1.09l2.51,1.61-1.01,1.58-6.88-4.72.97-1.5.5.32c-.13-.65.01-1.33.39-1.87.97-1.3,2.8-1.58,4.11-.61.03.02.06.04.09.07l-.03-.12Zm-.97,1.5c-.64-.47-1.54-.34-2.01.3,0,0,0,.01-.01.02-.45.57-.35,1.4.22,1.85.05.04.1.07.15.1.64.47,1.54.34,2.01-.3,0,0,0-.01.01-.02.47-.53.42-1.33-.1-1.8-.08-.07-.16-.12-.25-.17v.02Z"/><path d="m32.2,245.31l1.28-1.2,5.94,6.34-1.28,1.2-5.94-6.34Z"/><path d="m42.14,241.47l3.09,5.12-1.52.95-.29-.49c-.13.65-.56,1.2-1.15,1.48-1.58.73-3.46.04-4.19-1.55-.62-1.35-.22-2.96.98-3.85.56-.37,1.26-.47,1.91-.29l-.29-.49,1.52-.95-.05.07Zm.01,3.45c-.37-.69-1.23-.95-1.92-.58-.02,0-.03.02-.04.03-.73.38-1.01,1.28-.63,2.01.38.73,1.28,1.01,2.01.63.73-.38,1.01-1.28.63-2.01-.01-.02-.03-.05-.04-.07Z"/><path d="m49.89,239.17l-.51,6.15c-.18,2.01-1.01,2.99-2.66,3.35l-.41-1.57c.69-.08,1.2-.67,1.18-1.37l-3.72-4.92,1.93-.48,2.23,3.15.14-3.85,1.86-.53-.05.07Z"/><path d="m61.83,247.01l-1.55-2.84-.32,2.6-1.76-.2,1.11-8.27,1.76.2-.69,4.94,2.12-2.33,2.11.3-2.53,2.64,1.8,3.29-1.99-.27-.04-.07Z"/><path d="m66.94,247.13c.4.17.86.16,1.26,0l1,1.3c-.87.53-1.95.57-2.85.1-1.61-.52-2.49-2.24-1.97-3.85.03-.09.06-.18.1-.27.56-1.56,2.28-2.36,3.84-1.8.1.04.2.08.29.12,1.55.62,2.31,2.39,1.68,3.94-.02.04-.03.08-.05.11-.07.23-.25.43-.32.66l-3.91-1.65c-.01.61.4,1.15,1,1.3l-.07.04Zm1.85-1.59c.07-.59-.24-1.16-.78-1.42-.53-.28-1.19-.12-1.55.36l2.36.94-.03.12Z"/><path d="m77.42,248.38l-5.13,3.39c-1.71,1.13-3.01,1.06-4.27,0l1.02-1.33c.48.5,1.27.54,1.79.09l1.49-5.96,1.6,1.16-1.16,3.74,3.04-2.24,1.49,1.13.12.03Z"/><path d="m80.11,256.51c-1.24,1.05-3.09.9-4.14-.34-.02-.03-.04-.05-.07-.08-.44-.51-.64-1.18-.52-1.85l-2.33,1.76-1.08-1.45,6.67-5.01,1.08,1.45-.52.29c.67.11,1.26.48,1.64,1.04.92,1.33.59,3.16-.75,4.08-.03.02-.06.04-.09.06l.12.03Zm-1.08-1.45c.61-.4.79-1.22.39-1.84-.04-.05-.07-.1-.12-.15-.37-.61-1.17-.8-1.78-.43-.08.05-.15.1-.21.16-.61.4-.79,1.22-.39,1.84.04.05.07.1.12.15.37.61,1.17.8,1.78.43.08-.05.15-.1.21-.16h0Z"/><path d="m85.6,262.43l-5.6,2-.63-1.69.45-.24c-.63-.19-1.11-.72-1.23-1.36-.4-1.7.65-3.41,2.36-3.81,1.45-.34,2.94.38,3.58,1.72.28.62.24,1.33-.12,1.91l.45-.24c.04.07.67,1.77.67,1.77l.07-.04Zm-3.38-.68c.69-.17,1.11-.88.94-1.57-.02-.09-.05-.17-.09-.25-.24-.72-1.02-1.12-1.74-.88-.03,0-.05.02-.08.03-.69.17-1.11.88-.94,1.57.02.09.05.17.09.25.25.72,1.04,1.1,1.76.85.01,0,.03,0,.04-.01h.03Z"/><path d="m88.72,271.01l-8.33.38-.1-1.79.57-.02c-.54-.4-.82-1.06-.75-1.72.02-1.65,1.36-2.99,3.01-3.01,1.61-.16,3.05,1.01,3.22,2.63,0,.02,0,.05,0,.07.05.67-.19,1.33-.66,1.81l2.93-.15.1,1.79Zm-5.43-1.59c.78,0,1.43-.63,1.43-1.41,0-.02,0-.03,0-.05,0-.74-.61-1.33-1.35-1.33-.05,0-.1,0-.15,0-.78,0-1.43.63-1.43,1.41,0,.02,0,.03,0,.05,0,.74.61,1.33,1.35,1.33.05,0,.1,0,.15,0h0Z"/></svg>