<?xml version="1.0" encoding="UTF-8"?><svg id="Layer_1" xmlns="http://www.w3.org/2000/svg" viewBox="0 0 400 400"><defs><style>.cls-1{stroke:#a5262d;}.cls-1,.cls-2,.cls-3{stroke-width:4px;}.cls-1,.cls-2,.cls-3,.cls-4{fill:none;stroke-miterlimit:10;}.cls-2{stroke:#000;}.cls-5{fill:#fff;}.cls-6{fill:#57575e;}.cls-7{fill:#90b9e0;}.cls-3{stroke:#0018c6;}.cls-8{fill:#d9d9ea;}.cls-9{fill:#fbe501;}.cls-10{fill:#3b66c8;}.cls-11{fill:#8ac5cd;}.cls-12{fill:#48459c;}.cls-13{fill:#f9f3b1;}.cls-14{fill:#546e7a;}.cls-15{fill:#4483e7;}.cls-16{fill:#434348;}.cls-17{fill:#3392f5;}.cls-18{fill:#bfd6e5;}.cls-19{fill:#364a5f;}.cls-20{fill:#06687f;}.cls-21{fill:#90bae0;}.cls-22{fill:#d7eafb;}.cls-23{fill:#afd2ef;}.cls-24{fill:#ffed58;}.cls-25{fill:#fcd6ac;}.cls-4{stroke:#231f20;stroke-width:2px;}.cls-26{fill:#36464e;}.cls-27{fill:#424248;}.cls-28{fill:#3b566a;}.cls-29{fill:#b2d3d9;}.cls-30{fill:#3f79d4;}.cls-31{fill:#4582c2;}.cls-32{fill:#fc98c7;}.cls-33{fill:#607890;}.cls-34{fill:#cbb293;}.cls-35{fill:#23e6bf;}.cls-36{fill:#e0edf9;}.cls-37{fill:#374b60;}.cls-38{fill:#fcd6ad;}.cls-39{fill:#b3d4da;}.cls-40{fill:#788f9b;}.cls-41{fill:#3392f6;}.cls-42{fill:#7dcbe5;}.cls-43{fill:#637889;}.cls-44{fill:#eecf15;}.cls-45{fill:#8caabd;}.cls-46{fill:#fde6cd;}.cls-47{fill:#88c4cc;}.cls-48{fill:#e5eff1;}.cls-49{fill:#2f4859;}.cls-50{fill:#33b1cb;}.cls-51{fill:#cbb292;}.cls-52{fill:#bdd5e5;}.cls-53{fill:#304959;}.cls-54{fill:#fbd734;}.cls-55{fill:#60acfd;}.cls-56{fill:#ecf6fe;}.cls-57{fill:#3b66c9;}.cls-58{fill:#231f20;}.cls-59{fill:#fce00f;}.cls-60{fill:#90ebfe;}.cls-61{fill:#33b1cc;}.cls-62{fill:#9fddea;}.cls-63{fill:#86cde8;}.cls-64{fill:#e2c8aa;}</style></defs><circle class="cls-1" cx="195.17" cy="198.5" r="45"/><path class="cls-63" d="m165.17,200.8v-.6c.3-.6.9-.7,1.4-.8,1.4-.2,2.5-1.3,2.5-2.7v-.5c.1-.5.5-.8,1-.7.5,0,.9.4.9.8,0,.3,0,.5.1.8.2,1.1,1.1,2,2.2,2.2.7.2.7.1.7-.6v-13.5c0-.53.27-.8.8-.8h30.6c0,.3-.3.4-.5.6-2.4,2.4-4.8,4.8-7.2,7.2-.2.2-.4.4-.5.6-.2.4-.1.9.2,1.2s.8.4,1.2.1c.2-.1.4-.3.5-.5,2.8-2.8,5.6-5.6,8.3-8.3.3-.3.5-.6.6-1h3.4c0,.3-.3.4-.5.6l-13.3,13.3-.5.5c-.2.3-.3.7,0,1,.2.3.5.6.9.5.3,0,.6-.2.9-.4l14.6-14.6c.3-.2.5-.6.5-.9h1.1c1,0,.9-.1.9.9v28.3q0,.8.8.6c1.3-.4,2.2-1.5,2.2-2.8,0-.7.4-1,1-1s.9.4,1,1c.2,1.7,1.1,2.6,2.8,2.9.5,0,1,.3,1.2.8v.6c-.2.4-.7.7-1.1.7-1.7.2-2.6,1.1-2.8,2.9,0,.3-.2.7-.4.9-.3.2-.6.3-.9.1-.4-.1-.6-.5-.6-.9-.2-1.6-.9-2.6-2.3-2.9-.7-.2-.7-.1-.7.6v12.6c0,.53-.23.8-.7.8h-21.6c0-.3.3-.4.5-.6l7.5-7.5c.5-.6.6-1.1.1-1.5-.4-.4-1-.4-1.4,0l-.1.1c-2.9,2.9-5.8,5.8-8.7,8.7-.2.2-.4.5-.5.9h-3.4c0-.3.3-.4.5-.6l13.3-13.3c.2-.2.4-.4.5-.6.2-.4.2-.9-.2-1.2-.3-.3-.9-.4-1.2,0-.1,0-.2.2-.3.3l-14.6,14.6c-.3.2-.4.6-.5.9h-10.1c-.6,0-.9-.3-.9-.9v-27.5c0-.7,0-.8-.7-.6-1.3.4-2.1,1.3-2.3,2.9,0,.6-.4,1-1,1s-1-.5-1-1v-.3c-.1-1.4-1.3-2.5-2.7-2.6-.5,0-1-.3-1.3-.7l-.2-.1Zm5,.6c.3-.2.7-.5.9-.9-.3-.4-.6-.7-.9-1-.3.2-.6.5-.9.9.2.3.5.6.9.9h0v.1Zm50.9,14.2c-.2-.4-.5-.7-.9-.9-.4.3-.7.6-.9.9l.9.9.9-.9h0Z"/><path class="cls-61" d="m211.57,184.6c.3-.1.5-.3.7-.6.8-.8,1.6-.6,1.9.5,0,.4-.3.7-.5.9l-14.6,14.6c-.2.3-.5.4-.9.4s-.7-.2-.9-.5-.2-.7,0-1c.1-.2.3-.4.5-.5l13.3-13.3c.2-.2.4-.3.5-.6v.1Z"/><path class="cls-50" d="m187.77,230.4c-.3.1-.5.4-.8.6-.8.7-1.6.5-1.8-.6,0-.3.2-.7.5-.9l14.6-14.6s.2-.2.3-.3c.4-.3.9-.2,1.2,0,.4.3.4.8.2,1.2-.1.2-.3.4-.5.6l-13.3,13.3c-.2.2-.4.3-.5.6l.1.1Z"/><path class="cls-61" d="m205.47,184.6c.2,0,.4-.2.6-.4,1-1,1.6-.8,2.1.4-.1.4-.3.8-.6,1l-8.3,8.3-.5.5c-.4.3-.9.2-1.2-.1-.4-.3-.5-.8-.2-1.2.1-.2.3-.5.5-.6,2.4-2.4,4.8-4.8,7.2-7.2.2-.2.4-.3.5-.6l-.1-.1Z"/><path class="cls-61" d="m193.77,230.5c-.3.1-.5.3-.7.6-.8.8-1.6.5-1.9-.5,0-.3.2-.6.5-.8,2.9-2.9,5.8-5.8,8.7-8.7.3-.5.9-.6,1.4-.2l.1.1c.4.4.4,1-.1,1.5l-7.5,7.5c-.2.2-.4.3-.4.6l-.1-.1Z"/><path d="m183.47,168.3c2.2,3.4,1.2,7.1-1.9,9.1-3.5,2.3-7.7,1.3-9.8-1.9-2.1-3.3-1.2-7.5,2.1-9.7,2.1-1.4,4.6-1.5,6.6-.6l-1.4,2.7c-.9-.4-2.3-.4-3.6.5-1.9,1.2-2.4,3.5-1.1,5.5,1.2,1.9,3.5,2.4,5.7,1,1.5-1,2-2.3,1.7-3.6l-3,1.9-1.5-2.2,5.6-3.7.6,1Z"/><path d="m184.37,160.6l2.8-.7,3.5,13.5-2.8.7-3.5-13.5Z"/><path d="m201.87,163.4l-.2,9.6h-2.9v-1c-.6.7-1.6,1.1-2.9,1.1-2.5,0-4.5-2.3-4.5-5.1s2.2-5,4.7-4.9c1.3,0,2.2.5,2.8,1.2v-.9h3Zm-3,4.7c0-1.4-.9-2.4-2.2-2.4s-2.3.8-2.3,2.3c0,1.4.9,2.4,2.2,2.4s2.3-.8,2.3-2.3Z"/><path d="m210.57,173.3c-.8,2.1-2.9,2.3-4.8,1.6-1.8-.7-2.9-1.9-3.1-3.6l2.8-.5c0,.8.3,1.3,1.1,1.6.6.2,1,.2,1.2-.2.4-1-4.2-2.1-3.1-5.2.7-2,2.7-2.3,4.6-1.6,1.5.5,2.5,1.7,2.8,3.2l-2.8.4c0-.6-.3-1-.9-1.2-.5-.2-.8-.1-.9.2-.4,1,4.3,2,3.1,5.3Z"/><path d="m217.27,178.1c-1.3,1.8-3.4,1.4-5.1.2-1.5-1.1-2.3-2.6-2-4.3l2.8.3c-.2.7,0,1.4.7,1.9.6.4,1,.4,1.2.1.6-.9-3.5-3.2-1.6-5.8,1.2-1.7,3.3-1.5,4.9-.3,1.3.9,2,2.3,1.8,3.8l-2.8-.4c0-.6,0-1.1-.5-1.4-.4-.3-.8-.3-1,0-.6.9,3.6,3.1,1.5,5.9h.1Z"/><circle class="cls-3" cx="349.17" cy="193.93" r="45"/><path class="cls-15" d="m339.07,202.03v-24c-.15-1.22.55-2.38,1.7-2.8h21.7c0,.2.2.2.3.3.61.44.98,1.15,1,1.9v8.6c-.51-.77-1.38-1.22-2.3-1.2-.93.03-1.77.57-2.2,1.4-.48.89-.32,1.99.4,2.7.59.7,1.5,1.04,2.4.9.67-.17,1.27-.56,1.7-1.1v5.8l-.3-.3c-1.03-.96-2.64-.9-3.6.13-.96,1.03-.9,2.64.13,3.6.02.02.05.04.07.07,1.1.9,2.5.7,3.7-.5.2.1.1.4.1.5v4.3c.02.34-.02.67-.1,1-.3,1.3-.6,2.5-1,3.7-.13.8-.36,1.57-.7,2.3v-.6c.13-1.3-.81-2.47-2.12-2.6-.16-.02-.32-.02-.48,0-1.37.04-2.44,1.19-2.4,2.56.02.57.23,1.11.6,1.54.61.78,1.65,1.1,2.6.8.83-.25,1.5-.88,1.8-1.7v.5c-.4,1.6-.9,3.2-1.3,4.7h-26.1c1-2.7,2.1-5.5,3.1-8.2.4-.9.7-1.8,1.1-2.8h23c.5,0,.7-.3.7-.8s-.3-.8-1-.8h-22.3l-.2.1Zm6.2-17.1c-1.38,0-2.5,1.12-2.5,2.5,0,.03,0,.07,0,.1.03,1.41,1.19,2.52,2.6,2.5,1.38,0,2.5-1.12,2.5-2.5s-1.12-2.5-2.5-2.5h0l-.1-.1Zm8.2,8.7c-1.41-.02-2.57,1.09-2.6,2.5-.01,1.37,1.09,2.49,2.46,2.5.01,0,.03,0,.04,0,1.41.02,2.57-1.09,2.6-2.5.06-1.3-.95-2.4-2.25-2.46-.08,0-.16,0-.25,0v-.04Zm-7.8,15.2c0-1.38-1.12-2.5-2.5-2.5s-2.5,1.12-2.5,2.5c-.02,1.41,1.09,2.57,2.5,2.6,1.37.01,2.49-1.09,2.5-2.46,0-.01,0-.03,0-.04v-.1Zm10.3-21.3c0-1.38-1.12-2.5-2.5-2.5s-2.5,1.12-2.5,2.5c-.02,1.41,1.09,2.57,2.5,2.6,1.37.04,2.51-1.04,2.55-2.41,0-.02,0-.03,0-.05l-.05-.14Zm-10.6,6.1c-1.38,0-2.5,1.12-2.5,2.5s1.12,2.5,2.5,2.5c1.39-.01,2.53-1.11,2.6-2.5.01-1.37-1.09-2.49-2.46-2.5-.01,0-.03,0-.04,0h-.1Zm8.5,15.2c0-1.38-1.12-2.5-2.5-2.5s-2.5,1.12-2.5,2.5,1.12,2.5,2.5,2.5c1.37.01,2.49-1.09,2.5-2.46,0-.01,0-.03,0-.04Zm.2-28.8h1.95c.6,0,.8-.2.8-.8s-.2-.7-.8-.7h-3.7c-.45-.04-.85.29-.9.74,0,.02,0,.04,0,.06,0,.4.3.7.9.8h1.8l-.05-.1Zm-5.9-.8c0,.5.2.8.7.8s.7-.3.7-.8c.03-.41-.27-.77-.67-.8-.04,0-.08,0-.13,0-.5,0-.7.2-.7.8h.1Z"/><path class="cls-56" d="m332.27,227.93c-.8-.4-1.5-.8-1.7-1.7-.16-.73-.02-1.49.4-2.1.6-1.5,1.1-2.9,1.7-4.4h26.4v.5c-.5,1.7-1,3.5-1.4,5.2-.15,1.05-.77,1.98-1.7,2.5h-23.7Zm13.8-2.9h2.95c.68.09,1.3-.39,1.39-1.07.01-.08.01-.15,0-.23.05-.72-.49-1.35-1.21-1.4-.06,0-.12,0-.19,0h-5.9c-.75-.03-1.37.55-1.4,1.3,0,0,0,0,0,0,0,.71.56,1.3,1.28,1.3.04,0,.08,0,.12,0h2.9l.05.1Z"/><path class="cls-30" d="m366.37,175.23c1.3.5,1.6,1.5,1.6,2.8v23.7c-.08,1.16-.31,2.3-.7,3.4-.8,3-1.7,6-2.5,9.1-.03.15-.09.29-.2.4h-4.1c.4-1.6.9-3.2,1.3-4.7v-.5h0c.34-.73.57-1.5.7-2.3.4-1.2.7-2.5,1-3.7,0-.3.1-.7.1-1v-4.3c.03-.17,0-.35-.1-.5.6-.91.6-2.09,0-3,.1-.1,0-.2,0-.4v-5.4c.45-.84.45-1.86,0-2.7v-8.6c-.02-.75-.39-1.46-1-1.9-.16,0-.29-.14-.3-.3h4l.2-.1Z"/><path class="cls-36" d="m355.77,227.93h0c.94-.5,1.58-1.44,1.7-2.5.5-1.7.9-3.5,1.4-5.2v-.5h4.3c-.6,2.2-1.2,4.3-1.8,6.5-.23.83-.87,1.47-1.7,1.7h-3.9Z"/><path class="cls-52" d="m363.27,219.73h-30.7c.6-1.7,1.2-3.4,1.9-4.9h30.2c-.5,1.7-.9,3.4-1.4,5v-.1Z"/><path class="cls-18" d="m328.77,186.13h-1.75c-.41.07-.83-.08-1.1-.4-.2-.3-.1-.5,0-.8.14-.26.41-.41.7-.4,1.4,0,2.7,0,4.1-.1.6,0,.9.3.9.8,0,1.4,0,2.8-.1,4.2,0,.45-.38.81-.84.8-.02,0-.04,0-.06,0-.39.02-.71-.28-.73-.67,0-.08,0-.16.03-.23-.01-.73.02-1.47.1-2.2-.57.65-1.07,1.35-1.5,2.1-1.06,1.77-1.74,3.75-2,5.8-.4,3.4.3,6.83,2,9.8.65,1.08,1.42,2.09,2.3,3,.3.4.4.9,0,1.2-.33.27-.82.23-1.1-.1-2.56-2.45-4.21-5.69-4.7-9.2-.78-4.56.38-9.24,3.2-12.9.1-.2.3-.4.4-.6v-.2l.15.1Z"/><path class="cls-57" d="m339.07,202.03h22.3c.7,0,1,.3,1,.8.05.39-.23.74-.61.79-.03,0-.06,0-.09,0h-23c.2-.51.3-1.05.3-1.6h.1Z"/><path class="cls-59" d="m345.27,184.93c1.38,0,2.5,1.12,2.5,2.5s-1.12,2.5-2.5,2.5c-1.41.02-2.57-1.09-2.6-2.5.01-1.39,1.11-2.53,2.5-2.6l.1.1Z"/><path class="cls-59" d="m363.67,194.67c.6.91.6,2.09,0,3-1.2,1.2-2.6,1.4-3.7.5-1.09-.95-1.22-2.59-.3-3.7.96-1.05,2.58-1.12,3.63-.17.02.02.05.04.07.07l.3.3Z"/><path class="cls-60" d="m353.37,193.53c1.38.03,2.48,1.17,2.45,2.55s-1.17,2.48-2.55,2.45c-1.37-.02-2.48-1.13-2.5-2.5,0-1.38,1.12-2.5,2.5-2.5.03,0,.07,0,.1,0Z"/><path class="cls-32" d="m345.67,208.73c-.03,1.41-1.19,2.53-2.6,2.5-1.41-.03-2.53-1.19-2.5-2.6s1.19-2.53,2.6-2.5c1.37.03,2.47,1.13,2.5,2.5v.1Z"/><path class="cls-32" d="m355.87,187.43c.01,1.37-1.09,2.49-2.46,2.5-.01,0-.03,0-.04,0-1.41-.03-2.52-1.19-2.5-2.6,0-1.38,1.12-2.5,2.5-2.5s2.5,1.12,2.5,2.5v.1Z"/><path class="cls-22" d="m345.27,193.53c1.41.03,2.53,1.19,2.5,2.6-.03,1.41-1.19,2.53-2.6,2.5-1.41-.03-2.53-1.19-2.5-2.6.03-1.37,1.13-2.47,2.5-2.5h.1Z"/><path class="cls-22" d="m353.77,208.73c0,1.38-1.12,2.5-2.5,2.5s-2.5-1.12-2.5-2.5,1.12-2.5,2.5-2.5c1.37-.01,2.49,1.09,2.5,2.46,0,.01,0,.03,0,.04Z"/><path class="cls-35" d="m361.87,209.43h0c-.3.82-.97,1.45-1.8,1.7-.95.32-2,0-2.6-.8-.62-.72-.77-1.73-.4-2.6.34-.92,1.22-1.52,2.2-1.5,1.33-.1,2.5.89,2.6,2.23,0,.12,0,.25,0,.37v.6Z"/><path class="cls-35" d="m363.67,186.03c.4.86.4,1.84,0,2.7-.41.56-1.02.96-1.7,1.1-.91.23-1.87-.13-2.4-.9-.67-.74-.82-1.8-.4-2.7.38-.87,1.25-1.42,2.2-1.4.92-.02,1.79.43,2.3,1.2Z"/><path class="cls-10" d="m354.02,179.93h-1.8c-.45.04-.85-.29-.9-.74,0-.02,0-.04,0-.06,0-.5.3-.8.9-.8h3.7c.6,0,.8.2.8.7s-.2.8-.8.8h-1.9v.1Z"/><path class="cls-10" d="m348.07,179.13c0-.5.2-.8.7-.8.41-.03.77.27.8.67,0,.04,0,.08,0,.13.05.39-.23.74-.61.79-.03,0-.06,0-.09,0-.5,0-.7-.3-.7-.8h-.1Z"/><path class="cls-45" d="m346.02,225.03h-2.9c-.75.03-1.37-.55-1.4-1.3,0,0,0,0,0,0,.06-.73.67-1.29,1.4-1.3h5.9c.72-.05,1.35.49,1.4,1.21,0,.06,0,.12,0,.19,0,.71-.56,1.3-1.28,1.3-.04,0-.08,0-.12,0h-2.9l-.1-.1Z"/><path d="m311.87,185.53l2,.5,1-3.8,2.2.6-1,3.8,3.7,1-.6,2.3-10.1-2.8,1.7-6.1,2.2.6-1.1,3.8v.1Z"/><path d="m317.67,181.67c-1.93-1.07-2.63-3.5-1.56-5.44s3.5-2.63,5.44-1.56c1.93,1.07,2.63,3.5,1.56,5.44-.01.02-.02.04-.04.06-1.04,1.9-3.43,2.59-5.32,1.54-.03-.01-.05-.03-.08-.04Zm2.9-4.9c-.83-.49-1.9-.22-2.4.6-.49.78-.26,1.81.52,2.3.06.04.12.07.18.1.83.49,1.9.22,2.4-.6.51-.77.3-1.81-.47-2.31-.07-.05-.15-.09-.23-.13v.04Z"/><path d="m317.37,168.93l1.5-1.7,8.2,7.2-1.5,1.7-8.2-7.2Z"/><path d="m327.47,160.43l6.4,8.4-1.8,1.4-.4-.6c-.03.86-.48,1.64-1.2,2.1-1.73,1.19-4.1.75-5.28-.98,0,0-.01-.02-.02-.02-1.33-1.53-1.17-3.85.35-5.18.05-.04.1-.08.15-.12.63-.55,1.48-.78,2.3-.6l-2.2-2.9,1.8-1.4-.1-.1Zm2.3,6.7c-.52-.79-1.58-1.01-2.37-.5-.05.03-.09.06-.13.1-.76.52-.96,1.56-.44,2.32.04.06.09.12.14.18.52.79,1.58,1.01,2.37.5.05-.03.09-.06.13-.1.76-.52.96-1.56.44-2.32-.04-.06-.09-.12-.14-.18h0Z"/><path d="m339.17,158.53l2.7,7-2.1.8-.3-.7c-.33.8-.98,1.42-1.8,1.7-1.99.66-4.13-.41-4.8-2.4-.87-1.86-.07-4.08,1.79-4.95.04-.02.08-.03.11-.05.76-.35,1.64-.35,2.4,0l-.3-.7,2.1-.8.2.1Zm-.7,4.3c-.4-.9-1.46-1.29-2.35-.89-.9.4-1.29,1.46-.89,2.35.39.85,1.37,1.26,2.24.94.92-.34,1.39-1.35,1.05-2.27-.02-.04-.03-.09-.05-.13Z"/><path d="m350.57,160.93c.29,2.02-1.11,3.9-3.13,4.19-.02,0-.04,0-.07,0-.83.08-1.65-.17-2.3-.7v.7l-2.2.2-.9-10.5,2.2-.2.3,3.7c.54-.67,1.34-1.07,2.2-1.1,2-.2,3.7,1.44,3.9,3.7Zm-2.2.2c.02-.93-.72-1.7-1.65-1.71-.09,0-.17,0-.25.01-.92.01-1.65.77-1.64,1.68,0,.11.01.21.04.32-.02.93.72,1.7,1.65,1.71.09,0,.17,0,.25-.01.94-.04,1.67-.83,1.63-1.77,0-.08-.01-.15-.03-.23h0Z"/><path d="m352.87,154.13l2.2.3-1.3,10.9-2.2-.3,1.3-10.9Z"/><path d="m359.17,164.73c.49.18,1.04.14,1.5-.1l1.4,1.5c-1.04.77-2.39.96-3.6.5-2.13-.57-3.4-2.77-2.83-4.9,0-.03.02-.07.03-.1.6-2.06,2.75-3.25,4.82-2.66.06.02.12.04.18.06,1.98.62,3.09,2.73,2.46,4.71-.02.06-.04.13-.06.19-.03.31-.17.59-.4.8l-5.1-1.6c.03.81.65,1.46,1.45,1.54l.15.06Zm2.1-2.2c-.03-.95-.83-1.7-1.78-1.67-.52.02-1,.26-1.32.67l3.1,1Z"/><path d="m378.37,166.43l-6.7,8.1-1.7-1.4.5-.5c-.83.13-1.68-.12-2.3-.7-1.4-1.71-1.16-4.23.54-5.63,1.29-1.06,3.11-1.21,4.56-.37.68.48,1.09,1.26,1.1,2.1l2.4-2.8,1.7,1.4-.1-.2Zm-6.1,3.7c.67-.72.62-1.85-.1-2.52-.03-.03-.06-.06-.1-.08-.64-.62-1.67-.61-2.29.03-.08.08-.15.17-.21.27-.67.72-.62,1.85.1,2.52.03.03.06.06.1.08.64.62,1.67.61,2.29-.03.08-.08.15-.17.21-.27h0Z"/><path d="m378.07,170.73l1.4,1.8-5.9,4.7-1.4-1.8,5.9-4.7Zm1.4-1.4c.58-.47,1.43-.38,1.9.2.47.58.38,1.43-.2,1.9-.58.47-1.43.38-1.9-.2-.47-.55-.41-1.37.14-1.85.02-.02.04-.04.06-.05Z"/><path d="m379.17,182.03c-1.5.8-2.9-.1-3.7-1.5-.75-1.12-.75-2.58,0-3.7l1.9,1.2c-.43.39-.47,1.05-.1,1.5.3.5.5.6.8.5.7-.4-1.5-3.4.8-4.7,1.4-.8,2.8,0,3.6,1.4.66,1,.66,2.3,0,3.3l-1.8-1.2c.25-.36.25-.84,0-1.2-.2-.3-.4-.5-.7-.3-.7.4,1.6,3.4-.9,4.7h.1Z"/><path d="m383.17,190.53c-1.99.66-4.13-.41-4.8-2.4-.28-.8-.17-1.69.3-2.4l-3.6,1-.6-2.2,10.1-2.7.6,2.2-.7.2c.74.39,1.29,1.08,1.5,1.9.45,2.03-.82,4.04-2.85,4.49-.02,0-.03,0-.05.01l.1-.1Zm-.6-2.2c.92-.17,1.53-1.05,1.36-1.97-.01-.08-.03-.16-.06-.23-.2-.9-1.08-1.46-1.98-1.27-.08.02-.15.04-.22.07-.92.17-1.53,1.05-1.36,1.97.01.08.03.16.06.23.2.9,1.08,1.46,1.98,1.27.08-.02.15-.04.22-.07h0Z"/><path d="m390.37,191.67v2.2l-10.8.7v-2.2l10.8-.7Z"/><path d="m386.07,204.33l-7.4-1,.3-2.2h.7c-.54-.6-.76-1.41-.6-2.2.41-2.03,2.36-3.36,4.4-3,2.04.15,3.57,1.93,3.41,3.97,0,.04,0,.09-.01.13-.06.85-.5,1.62-1.2,2.1h.7l-.3,2.3v-.1Zm-3.4-2.7c.95.2,1.88-.42,2.08-1.37,0-.04.02-.09.02-.13.15-.95-.51-1.84-1.46-1.98-.05,0-.1-.01-.14-.02-.95-.2-1.88.42-2.08,1.37,0,.04-.02.09-.02.13-.2.91.37,1.8,1.28,2,.11.02.21.04.32.04v-.04Z"/><path d="m382.47,213.73l-5.7-5.2c-1.9-1.7-2.2-3.3-1.3-5.2l1.9.8c-.45.73-.28,1.68.4,2.2h7.8l-1,2.3-4.9-.3,3.7,3.1-.9,2.2v.1Z"/><circle class="cls-3" cx="139.78" cy="57.88" r="45"/><path class="cls-25" d="m166.78,85.18v.8c-.18.53-.53.99-1,1.3l-9.6,6.6c-.87.61-2.08.39-2.69-.48,0,0,0-.01-.01-.02-.3-.5-.7-1-1-1.5-.6-1.25-1.93-1.97-3.3-1.8-1.87.16-3.66-.78-4.6-2.4-.9-1.3-1.7-2.6-2.6-3.9-.1-.2-.2-.4-.4-.4,0-.19-.07-.36-.2-.5-.7-1.1-1.4-2.1-2.1-3.2-1.05-1.47-.72-3.51.75-4.56.02-.01.03-.02.05-.04.45-.31.89-.64,1.3-1,.2,0,.3.2.4.3,1,1.4,1.9,2.9,2.9,4.3l2.4,3.6c.29.42.85.55,1.3.3.41-.3.5-.89.2-1.3,0,0,0,0,0,0,0-.1-.1-.2-.2-.3-3.2-4.6-6.3-9.2-9.5-13.9-2-3-4.1-6-6.1-9-.44-.58-.68-1.28-.7-2,0-.3.3-.6.1-1v-.2c1.12-.52,2.45-.19,3.2.8.58.91,1.21,1.78,1.9,2.6,1.2,1.7,2.3,3.4,3.5,5.1.34.61.74,1.17,1.2,1.7h0s0,.2.1.2c.27.42.57.82.9,1.2.3.3.8.3,1.1,0,.4-.3.4-.8,0-1.3-.56-.71-.84-1.6-.8-2.5,0-.3.3-.5.1-.7,1.12-.57,2.48-.23,3.2.8.18.34.41.65.7.9.23.54.53,1.05.9,1.5.32.3.8.38,1.2.2.39-.27.52-.78.3-1.2-.13-.26-.3-.49-.5-.7-.51-.73-.69-1.63-.5-2.5v-.4c.77-.45,1.73-.45,2.5,0,.7.4,1,1.1,1.5,1.6h0c.24.5.54.97.9,1.4.3.3.8.3,1.1,0,.28-.21.43-.55.4-.9-.04-.26-.14-.5-.3-.7-.59-.69-.84-1.6-.7-2.5v-.8c1.2-.51,2.59-.09,3.3,1,1.9,2.8,3.8,5.5,5.6,8.3,1.44,2.31,2.36,4.9,2.7,7.6.22,1.93.29,3.86.2,5.8-.04,1.15.23,2.3.8,3.3l.1.5Zm-2.9-.1c0-.32-.2-.59-.5-.7-.32-.15-.68-.15-1,0-1,.7-2,1.3-3,2-.43.22-.6.74-.38,1.17.02.05.05.09.08.13.3.41.89.5,1.3.2,0,0,0,0,0,0,1-.7,2-1.4,3-2,.31-.15.5-.46.5-.8Zm-6.1,4.2c.05-.44-.27-.85-.71-.9-.17-.02-.34.01-.49.1-.32.16-.62.37-.9.6-.3.32-.38.8-.2,1.2.25.38.77.49,1.15.24.02-.01.03-.02.05-.04.28-.18.55-.38.8-.6.2-.2.3-.3.2-.5l.1-.1Z"/><path class="cls-23" d="m121.78,58.68v-12.8c-.03-1.25.79-2.37,2-2.7h2.9c.37.48.55,1.09.5,1.7-.08.97.64,1.82,1.61,1.89.06,0,.12,0,.19,0h6.9c.98.07,1.83-.67,1.9-1.65,0-.08,0-.17,0-.25-.08-.61.1-1.23.5-1.7h2.6c.67.17,1.27.56,1.7,1.1.2.22.31.5.3.8-.8.7-1.6,1.5-2.3,2.2-1.3,1.4-2.5,2.8-3.7,4.3-.19.39-.51.71-.9.9-1.05-.97-2.47-1.45-3.9-1.3-2.61.21-4.69,2.29-4.9,4.9-.12,2.2,1.1,4.26,3.1,5.2-.4.8-.9,1.7-1.3,2.5-1,1.9-1.9,3.9-2.7,5.8-1.16,2.81-2.18,5.68-3.05,8.6-.4,1.3-.7,2.6-1.1,3.9-.16-.38-.23-.79-.2-1.2v-10.4c.1-.3.3-.6.4-.9.68-1.56,1.12-3.21,1.3-4.9.3-2.2.1-4.3-1.7-5.9l-.15-.1Z"/><path class="cls-19" d="m138.23,43.08c-.42.46-.6,1.09-.5,1.7.07.98-.67,1.83-1.65,1.9-.08,0-.17,0-.25,0h-6.9c-.97.03-1.78-.74-1.81-1.71,0-.06,0-.12,0-.19.08-.61-.1-1.23-.5-1.7h11.6Z"/><path class="cls-33" d="m137.98,43.08c-.1.1-.3,0-.5,0h.5Z"/><path class="cls-7" d="m121.98,81.98c.4-1.3.7-2.6,1.1-3.9.88-2.92,1.92-5.79,3.1-8.6.8-1.98,1.7-3.92,2.7-5.8.4-.8.9-1.7,1.3-2.5.2,0,.4.2.6.2.67.27,1.4.34,2.1.2,0,.1.2.2.2.3,2.4,3.5,4.8,7.1,7.2,10.6.42.53.79,1.1,1.1,1.7-.41.36-.85.69-1.3,1-1.49,1.02-1.86,3.06-.84,4.55.01.02.02.03.04.05.7,1.1,1.4,2.1,2.1,3.2.1.2.2.3.2.5-.7.4-1.4.2-2.1.3h-14.8c-1.15.09-2.22-.61-2.6-1.7l-.1-.1Zm10.4-.9h3.3c.7,0,1.1-.3,1.1-.9s-.4-.9-1.1-.9h-6.6c-.7,0-1.1.3-1.1.9s.4.9,1.1.9h3.3Z"/><path class="cls-21" d="m135.88,52.38c.5-.1.6-.5.9-.9,1.2-1.5,2.4-2.9,3.7-4.3.72-.78,1.49-1.52,2.3-2.2.16.38.23.79.2,1.2v16.2c-.53.38-.89.96-1,1.6-.05.47-.05.93,0,1.4-.46-.53-.86-1.09-1.2-1.7-1.2-1.7-2.3-3.4-3.5-5.1.32-.62.49-1.3.5-2,.04-1.57-.62-3.07-1.8-4.1l-.1-.1Z"/><path class="cls-31" d="m135.88,52.38c1.17,1.04,1.82,2.54,1.8,4.1.03.7-.15,1.39-.5,2-.58-.91-1.21-1.78-1.9-2.6-.72-1.03-2.08-1.37-3.2-.8-.29,0-.54.21-.6.5h0c-.06,0-.1.04-.1.1h0c-.06,0-.1.04-.1.1h0c-.06,0-.1.04-.1.1h0c-.58.49-.81,1.27-.6,2,0,.45.18.88.5,1.2.6.9,1.2,1.7,1.7,2.6-.7.13-1.43.06-2.1-.2-.21-.02-.42-.09-.6-.2-2.66-1.2-3.85-4.33-2.65-7,.8-1.77,2.51-2.97,4.45-3.1,1.42-.09,2.82.37,3.9,1.3l.1-.1Z"/><path class="cls-51" d="m132.78,61.58c-.6-.9-1.2-1.7-1.7-2.6-.29-.34-.47-.76-.5-1.2,0-.71.21-1.41.6-2h.1l.1-.1h0l.1-.1h0c.2,0,.4-.2.6-.3.1.3-.1.6-.1,1,.02.72.26,1.42.7,2,2,3,4.1,6,6.1,9,3.2,4.6,6.3,9.2,9.5,13.9,0,.1.2.2.2.3.31.4.23.97-.17,1.28-.01,0-.02.02-.03.02-.45.21-.99.08-1.3-.3l-2.4-3.6c-1-1.4-1.9-2.9-2.9-4.3-.1-.2-.2-.3-.4-.3-.33-.59-.7-1.16-1.1-1.7-2.4-3.5-4.8-7.1-7.2-10.6,0-.1-.2-.2-.2-.3v-.1Z"/><path class="cls-46" d="m163.88,85.08c0,.34-.19.65-.5.8-1,.7-2,1.4-3,2-.42.27-.98.18-1.3-.2-.28-.41-.18-.97.22-1.25.02-.02.05-.03.08-.05,1-.7,2-1.4,3-2,.29-.25.71-.25,1,0,.3.2.5.4.5.7Z"/><path class="cls-34" d="m152.68,62.38c-.16-.75-.05-1.52.3-2.2.3-.46.71-.84,1.2-1.1v.8c-.06.89.18,1.77.7,2.5.2.18.31.43.3.7,0,.4,0,.7-.4.9-.34.2-.76.2-1.1,0-.39-.4-.7-.88-.9-1.4h0l-.1-.2Z"/><path class="cls-34" d="m147.38,63.78c-.38-1.21.17-2.52,1.3-3.1.1.1,0,.3,0,.4-.2.87-.02,1.78.5,2.5.2.2.3.5.5.7.28.41.16.97-.25,1.25s-.97.16-1.25-.25c-.39-.44-.7-.95-.9-1.5h.1Z"/><path class="cls-51" d="m141.88,65.28v-1.4c.21-.6.55-1.15,1-1.6.15-.03.29-.09.4-.2.2.3,0,.5-.1.7,0,.9.28,1.77.8,2.5.35.36.35.94,0,1.3-.3.3-.8.3-1.1,0-.32-.38-.62-.78-.9-1.2,0,0,0-.2-.1-.2h0v.1Z"/><path class="cls-46" d="m157.78,89.18c0,.2,0,.4-.2.5-.22.25-.49.46-.8.6-.36.28-.88.21-1.16-.15-.01-.02-.02-.03-.04-.05-.24-.4-.15-.9.2-1.2l.9-.6c.39-.22.88-.08,1.1.31.08.15.12.32.1.49l-.1.1Z"/><path class="cls-64" d="m132.08,55.18c-.2,0-.4.3-.6.3,0-.3.4-.4.6-.5v.2Z"/><path class="cls-21" d="m141.88,65.28c0,.08.04.15.1.2-.05-.05-.09-.12-.1-.2Z"/><path class="cls-38" d="m121.98,81.98c.38,1.09,1.45,1.79,2.6,1.7h14.8c-.98,1.38-2.24,2.54-3.7,3.4-.2.1-.3.2-.5.3-.7.36-1.09,1.12-1,1.9v3.1c0,1.05-.85,1.9-1.9,1.9h-10.3c-.96.09-1.81-.61-1.9-1.56-.01-.11-.01-.22,0-.34v-3c-.23-.99-.67-1.91-1.3-2.7-.7-1-1.3-2.1-2.1-3.1-.67-.97-1.02-2.12-1-3.3,0-2.3.2-4.6.2-6.9v-3.3c-.04-1.47.24-2.94.8-4.3.82-1.84,1.36-3.8,1.6-5.8.04-.96.86-1.7,1.82-1.66.13,0,.26.03.38.06.9,1.1,1.39,2.48,1.4,3.9-.05,1.35-.25,2.69-.6,4-.27,1.25-.7,2.47-1.3,3.6-.23.47-.05,1.04.4,1.3.42.26.98.13,1.24-.29.02-.04.04-.07.06-.11.05-.11.12-.21.2-.3v10.4c-.03.41.04.82.2,1.2l-.1-.1Zm7.3,7.9h-1.2c-.5-.07-.96.27-1.03.77s.27.96.77,1.03c.09.01.18.01.27,0h2.4c.5,0,.9-.4.9-.9s-.4-.9-.9-.9h-1.2Zm-5.3,1.8c.24.02.48-.02.7-.1.38-.17.59-.59.5-1-.14-.43-.55-.72-1-.7-.6,0-1.2,0-1.5.6v.2c0,.7.4,1,1.3,1Z"/><path class="cls-51" d="m121.78,70.38c-.05.11-.12.21-.2.3-.26.45-.83.63-1.3.4-.45-.2-.66-.73-.46-1.19.02-.04.04-.08.06-.11.58-1.15,1.03-2.35,1.35-3.6.35-1.31.55-2.65.6-4,.04-1.43-.46-2.82-1.4-3.9.49.08.97.25,1.4.5,1.8,1.6,1.9,3.7,1.7,5.9-.18,1.69-.62,3.34-1.3,4.9-.1.3-.3.6-.4.9l-.05-.1Z"/><path class="cls-37" d="m132.38,81.08h-3.3c-.7,0-1.1-.3-1.1-.9s.4-.9,1.1-.9h6.6c.7,0,1.1.4,1.1.9s-.4.9-1.1.9h-3.3Z"/><path class="cls-64" d="m131.23,55.78c-.35.61-.55,1.3-.6,2-.26-.73-.02-1.54.6-2Z"/><path class="cls-46" d="m129.28,89.88h1.1c.5-.07.96.27,1.03.77s-.27.96-.77,1.03c-.09.01-.18.01-.27,0h-2.4c-.5,0-.9-.4-.9-.9s.4-.9.9-.9h1.3,0Z"/><path class="cls-46" d="m124.08,91.68c-1,0-1.4-.3-1.3-1v-.2c.3-.6.9-.6,1.5-.6.45-.02.86.27,1,.7.14.41-.07.85-.48.99,0,0-.01,0-.02,0-.23.07-.46.11-.7.1Z"/><path d="m104.28,43.68l-.8,2.6,7.8,2.5-.7,2.3-7.8-2.5-.8,2.6-2.2-.7,2.4-7.4,2.2.7-.1-.1Z"/><path d="m108.38,45.48c-1.87-1.11-2.5-3.52-1.39-5.4,1.11-1.87,3.52-2.5,5.4-1.39,1.87,1.1,2.5,3.51,1.4,5.39-1.09,1.87-3.48,2.51-5.36,1.43-.01,0-.03-.02-.04-.03Zm2.9-4.9c-.85-.44-1.89-.11-2.33.74-.44.85-.11,1.89.74,2.33.82.43,1.83.13,2.3-.67.51-.78.29-1.83-.5-2.34-.03-.02-.07-.04-.1-.06h-.1Z"/><path d="m115.88,29.78l5.2,5.4-1.6,1.6-.5-.5c.03.8-.3,1.57-.9,2.1-1.07,1.09-2.83,1.1-3.92.03-.1-.1-.2-.21-.28-.33l-3.2-3.3,1.6-1.6,3,3.1c.38.52,1.11.64,1.63.27.1-.07.19-.16.27-.27.58-.49.66-1.35.17-1.93-.05-.06-.11-.12-.17-.17l-2.8-2.9,1.6-1.6-.1.1Z"/><path d="m119.78,31.48c-1.03-1.96-.27-4.37,1.69-5.4,1.16-.61,2.55-.61,3.71,0l-1.1,2c-.53-.3-1.17-.3-1.7,0-.82.5-1.09,1.57-.6,2.4.38.81,1.35,1.16,2.16.78.05-.02.1-.05.14-.08.57-.26.9-.88.8-1.5h2.35c-.02,1.41-.78,2.7-2,3.4-1.82,1.1-4.19.52-5.29-1.3-.04-.07-.08-.13-.11-.2l-.05-.1Z"/><path d="m134.08,24.68l1.2,4.4-2.2.6-1.1-4.1c-.08-.66-.68-1.14-1.34-1.06-.09.01-.17.03-.26.06-.8.2-1.2.8-.9,1.9l1.1,4-2.2.6-2.8-10.1,2.2-.6,1,3.6c.33-.74,1.01-1.26,1.8-1.4,1.46-.42,2.99.42,3.42,1.89.04.13.07.27.08.41v-.2Z"/><path d="m148.58,19.28l-1.3,10.4-2.2-.3v-.7c-.57.58-1.41.81-2.2.6-2-.2-3.3-2.2-3.1-4.4.17-2.06,1.94-3.6,4-3.5.85.06,1.62.5,2.1,1.2l.5-3.7,2.2.3v.1Zm-3.1,6.4c.18-.91-.41-1.79-1.32-1.97-.06-.01-.12-.02-.18-.03-.95-.15-1.84.51-1.98,1.46,0,.05-.01.1-.02.14-.18.91.41,1.79,1.32,1.97.06.01.12.02.18.03.95.15,1.84-.51,1.98-1.46,0-.05.01-.1.02-.14Z"/><path d="m150.68,23.08l2.1.7-2.4,7.1-2.1-.7,2.4-7.1Zm.4-2c.22-.72.98-1.12,1.7-.9.72.22,1.12.98.9,1.7-.22.72-.98,1.12-1.7.9-.71-.23-1.1-.98-.9-1.7h0Z"/><path d="m157.78,31.98c-.8,1.5-2.5,1.5-3.9.7-1.26-.51-2.06-1.75-2-3.1h2.2c-.07.54.22,1.06.7,1.3.5.3.8.2.9,0,.4-.7-3.1-2.1-1.9-4.4.76-1.23,2.37-1.62,3.6-.86.03.02.06.04.1.06,1.1.5,1.8,1.59,1.8,2.8h-2.2c.04-.43-.21-.83-.6-1-.23-.2-.57-.2-.8,0-.4.8,3.1,2,1.8,4.4l.3.1Z"/><path d="m165.78,36.88c-1.23,1.59-3.51,1.89-5.11.66-.07-.05-.13-.11-.19-.16-.67-.53-1.04-1.35-1-2.2l-2.5,2.7-1.7-1.5,7-7.8,1.7,1.5-.5.5c.84-.04,1.67.24,2.3.8,1.46,1.41,1.51,3.74.1,5.2-.03.03-.06.06-.1.1v.2Zm-1.7-1.5c.72-.67.76-1.8.08-2.52-.03-.03-.06-.06-.08-.08-.67-.67-1.76-.67-2.43,0-.06.06-.12.13-.17.2-.72.67-.76,1.8-.08,2.52.03.03.06.06.08.08.67.67,1.76.67,2.43,0,.06-.06.12-.13.17-.2Z"/><path d="m172.28,33.88l1.3,1.8-8.8,6.5-1.3-1.8,8.8-6.5Z"/><path d="m175.68,46.88l-6.8,3.2-.9-2,.6-.3c-.8-.26-1.45-.84-1.8-1.6-.79-1.88.09-4.05,1.97-4.85.04-.02.09-.04.13-.05,1.85-.96,4.13-.25,5.1,1.6.38.75.42,1.62.1,2.4l.6-.3.9,2,.1-.1Zm-4.3-.5c.9-.39,1.32-1.44.93-2.34,0-.02-.02-.04-.03-.06-.37-.86-1.36-1.26-2.22-.89-.06.03-.12.06-.18.09-.9.39-1.32,1.44-.93,2.34,0,.02.02.04.03.06.37.86,1.36,1.26,2.22.89.06-.03.12-.06.18-.09Z"/><path d="m177.68,56.78l-7.6-1.3c-2.5-.4-3.7-1.6-3.9-3.7l2.1-.4c.2,1,.6,1.5,1.5,1.6l6.5-4.2.4,2.4-4.2,2.4,4.8.6.4,2.4v.2Z"/><circle class="cls-3" cx="299.79" cy="316.2" r="45"/><path d="m270.49,298.5c-2.57-2.45-2.66-6.52-.21-9.09.07-.07.14-.14.21-.21,1.52-1.59,3.75-2.27,5.9-1.8l-.7,2.8c-1.17-.32-2.42.07-3.2,1-1.44,1.29-1.56,3.49-.27,4.93.09.1.18.19.27.27,1.23,1.44,3.39,1.61,4.82.38.14-.12.26-.24.38-.38.9-.8,1.26-2.05.9-3.2l2.8-.8c.55,2.13-.11,4.39-1.7,5.9-2.39,2.57-6.41,2.71-8.97.33-.11-.1-.22-.21-.33-.33l.1.2Z"/><path d="m288.49,282.3l3.8,8.2-2.5,1.1-.4-.8c-.32.96-1.05,1.73-2,2.1-2.27.96-4.89-.1-5.85-2.37-.02-.04-.04-.09-.05-.13-1.14-2.21-.29-4.92,1.9-6.1.9-.48,1.97-.52,2.9-.1l-.4-.8,2.5-1.1h.1Zm-.6,5.2c-.44-1.08-1.68-1.6-2.76-1.16-.05.02-.09.04-.14.06-1.05.43-1.54,1.63-1.11,2.68.03.08.07.15.11.22.47,1.07,1.71,1.57,2.79,1.1.02-.01.05-.02.07-.03,1.04-.44,1.53-1.64,1.09-2.69-.03-.06-.06-.12-.09-.18h.04Z"/><path d="m306.39,283.9l.2,5.5h-2.74l-.2-5.2c0-.9-.5-1.5-1.3-1.4s-1.4.7-1.3,1.7l.2,5.1h-2.7l-.2-5.2c0-.9-.5-1.5-1.3-1.4s-1.4.7-1.3,1.7l.2,5.1h-2.7l-.3-8.9h2.7v.7c.57-.75,1.46-1.19,2.4-1.2.93-.06,1.84.35,2.4,1.1.62-.81,1.58-1.3,2.6-1.3,1.84-.1,3.41,1.31,3.51,3.14,0,.15,0,.3,0,.46l-.16.1Z"/><path d="m312.29,289.6c.61.25,1.29.25,1.9,0l1.6,1.9c-1.28.83-2.89.98-4.3.4-2.9-1.1-4-3.7-3-6.2.8-2.41,3.4-3.71,5.8-2.91.1.03.2.07.3.11,2.31.8,3.54,3.32,2.75,5.63-.04.13-.09.25-.15.37-.11.36-.27.7-.5,1l-6-2.2c.03.93.69,1.71,1.6,1.9Zm2.7-2.5c.09-.89-.45-1.72-1.3-2-.83-.42-1.85-.11-2.3.7l3.6,1.3Z"/><path d="m325.85,289.3l-1.7,2.5c-.77-.92-2.14-1.03-3.06-.26-.13.11-.24.23-.34.36l-2.3,3.3-2.2-1.5,5.1-7.4,2.2,1.5-.9,1.3c.95-.7,2.25-.7,3.2,0v.2Z"/><path d="m333.79,298.1l-6.9,5.8-1.7-2.1.6-.5c-1.02-.03-1.97-.5-2.6-1.3-1.5-2-1.15-4.83.8-6.4,1.83-1.71,4.68-1.62,6.4.2.7.76,1.02,1.78.9,2.8l.6-.5,1.7,2.1.2-.1Zm-5.2.9c.93-.72,1.11-2.05.39-2.99-.03-.04-.06-.08-.09-.11-.73-.91-2.06-1.05-2.97-.32-.05.04-.09.08-.13.12-.93.72-1.11,2.05-.39,2.99.03.04.06.08.09.11.73.91,2.06,1.05,2.97.32.05-.04.09-.08.13-.12h0Z"/><path class="cls-8" d="m328.79,326.3v.2c-.3,0-.2.3-.2.4.02.5-.02,1-.1,1.5-.46,3.4-1.54,6.69-3.2,9.7-1.45,2.61-3.27,5.01-5.4,7.1-2.28,2.2-4.92,3.99-7.8,5.3-2.42,1.11-4.97,1.89-7.6,2.3l-2.4.3h-3.8c-.66-.12-1.33-.19-2-.2-6.9-.93-13.23-4.34-17.8-9.6-3.72-4.31-6.06-9.64-6.7-15.3.03-.54-.04-1.08-.2-1.6v-3.6c.09-.15.13-.33.1-.5,0-.81.1-1.62.3-2.4.52-3.15,1.57-6.2,3.1-9,1.42-2.61,3.24-4.97,5.4-7,6.12-5.88,14.57-8.71,23-7.7,3.19.39,6.3,1.31,9.2,2.7,6.29,3.11,11.23,8.41,13.9,14.9.98,2.36,1.62,4.86,1.9,7.4.17,1.49.23,3,.2,4.5-.02.21.02.41.1.6h0Zm-23.8,22.9c1.12-.17,2.22-.44,3.3-.8,11.94-4.11,18.99-16.42,16.5-28.8-1.9-8.9-7.3-15.1-15.7-18.5-1.27-.56-2.62-.93-4-1.1-.23-.08-.46-.15-.7-.2-2.08-.32-4.2-.38-6.3-.2-3.92.22-7.71,1.46-11,3.6-8.9,5.8-12.9,14-11.8,24.6.69,6.91,4.39,13.16,10.1,17.1,4.69,3.4,10.41,5.1,16.2,4.8,1.15.03,2.3-.14,3.4-.5h0Z"/><path class="cls-6" d="m304.99,349.2c-1.11.31-2.25.48-3.4.5-5.8.39-11.55-1.31-16.2-4.8-5.8-4.3-9.4-10-10.1-17.1-1.2-10.6,2.9-18.8,11.8-24.6,3.29-2.14,7.08-3.38,11-3.6,2.1-.18,4.22-.12,6.3.2.25-.02.5.05.7.2.15.12.32.22.5.3,4.28,1.29,8.03,3.92,10.7,7.5,1.29,1.66,2.37,3.47,3.2,5.4,1.38,3.22,2.18,6.67,2.36,10.17.05,1.84-.05,3.68-.3,5.5-.39,2.82-1.23,5.55-2.5,8.1-1.36,2.79-3.22,5.29-5.5,7.4-1.88,1.7-4.05,3.05-6.4,4-.72.22-1.42.49-2.1.8l-.06.03Zm-23.14-24.6c.03,10.02,8.18,18.13,18.2,18.1,10.02-.03,18.13-8.18,18.1-18.2-.03-10.02-8.18-18.13-18.2-18.1-9.98.03-18.07,8.12-18.1,18.1v.1Z"/><path class="cls-16" d="m304.99,349.2c.68-.33,1.38-.59,2.1-.8,2.35-.96,4.51-2.31,6.4-4,2.28-2.11,4.14-4.61,5.5-7.4,1.27-2.55,2.11-5.28,2.5-8.1.3-1.82.4-3.66.3-5.5-.09-3.53-.91-7-2.4-10.2-.83-1.93-1.91-3.74-3.2-5.4-2.67-3.58-6.42-6.21-10.7-7.5-.2,0-.3-.1-.5-.3,1.38.17,2.73.54,4,1.1,8.4,3.4,13.8,9.6,15.7,18.5,2.55,12.39-4.52,24.74-16.5,28.8-1.06.42-2.17.69-3.3.8h.1Z"/><path class="cls-41" d="m281.85,324.7c0-10.05,8.15-18.2,18.2-18.2,10.05,0,18.2,8.15,18.2,18.2,0,10.05-8.15,18.2-18.2,18.2h0c-10.02.01-18.16-8.08-18.2-18.1h0v-.1Zm18.2-11.3h-8.2c-.86-.07-1.71.26-2.3.9-.2.2-.3.4-.5.6-2.83,3.04-4.18,7.17-3.7,11.3.35,3.58,2.03,6.89,4.7,9.3.29.3.68.48,1.1.5h17c.94.03,1.85-.33,2.5-1,.2-.2.3-.4.5-.5,2.96-3.32,4.25-7.81,3.5-12.2-.53-2.97-1.92-5.72-4-7.9-.55-.64-1.36-1.01-2.2-1h-8.4Z"/><path class="cls-12" d="m300.09,313.37h8.4c.84,0,1.65.36,2.2,1,2.12,2.16,3.52,4.92,4,7.9.78,4.39-.51,8.89-3.5,12.2-.11.21-.29.39-.5.5-.6.74-1.55,1.12-2.5,1h-17c-.42-.02-.81-.2-1.1-.5-2.65-2.42-4.32-5.73-4.7-9.3-.48-4.13.87-8.26,3.7-11.3.2-.17.36-.38.5-.6.58-.65,1.43-.99,2.3-.9h8.2Zm7.9,11.3c.03-4.34-3.46-7.87-7.8-7.9-.03,0-.07,0-.1,0-4.36-.06-7.94,3.44-8,7.8-.06,4.36,3.44,7.94,7.8,8,4.36.06,7.94-3.44,8-7.8,0-.03,0-.07,0-.1h.1,0Z"/><path class="cls-27" d="m307.99,324.7c-.05,4.3-3.5,7.79-7.8,7.9-4.23.13-7.77-3.2-7.9-7.43,0-.16,0-.31,0-.47,0-4.36,3.54-7.9,7.9-7.9s7.9,3.54,7.9,7.9h-.1Zm-7.9-4.4c-2.42.02-4.38,1.98-4.4,4.4h0c.02,2.42,1.98,4.38,4.4,4.4,2.41.02,4.38-1.93,4.4-4.34,0-.02,0-.04,0-.06,0-2.44-1.96-4.44-4.4-4.5h0v.1Z"/><path class="cls-55" d="m300.09,329.1c-2.38.05-4.35-1.84-4.4-4.22,0-.06,0-.12,0-.18.02-2.42,1.98-4.38,4.4-4.4h0c.4.2.5.7.6,1.1.5,2.21.5,4.49,0,6.7-.01.44-.24.85-.6,1.1v-.1Z"/><path class="cls-17" d="m300.09,329.1c.4-.2.5-.7.6-1.1.5-2.21.5-4.49,0-6.7-.01-.44-.24-.85-.6-1.1,2.46,0,4.45,2,4.44,4.46,0,2.45-1.99,4.44-4.44,4.44h0Z"/><circle class="cls-3" cx="192.72" cy="350.86" r="45"/><path d="m164.82,339.06l-.7,2.5-6.3-1.7,3.8,4v.3l-5.4,1.6,6.3,1.7-.7,2.5-10.8-2.9.7-2.5,5.6-1.6-4-4.2.7-2.5,10.8,2.9v-.1Z"/><path d="m163.22,327.56l6.6,4.5-1.4,2-.6-.4c.2.7.1,1.6-.5,2.4-.9,1.3-2.6,1.8-4.4.6l-4-2.8,1.4-2,3.8,2.6c.8.6,1.6.3,2-.3.5-.7.4-1.5-.5-2.2l-3.6-2.5,1.4-2-.2.1Z"/><path d="m162.72,322.86l1.7-1.7,8.1,8.4-1.7,1.7-8.1-8.4Z"/><path d="m172.72,322.36l1.6,2.3c.4.6.9.3,1.7-.4l1.2,1.8c-2.4,2.1-3.7,1.8-5,0l-1.6-2.3-1,.7-1.3-1.9,1-.7-.9-1.2,1.6-2,1.3,1.8,1.4-.9,1.3,1.9-1.4.9h.1Z"/><path d="m173.52,316.66c-.3-.7,0-1.6.7-1.9s1.6,0,1.9.7c.3.7,0,1.6-.7,1.9s-1.6,0-1.9-.7Zm1.2,1.8l2.2-1.1,3.5,7.2-2.2,1.1-3.5-7.2Z"/><path d="m179.92,318.26l5.9-1.6.6,2.2-5.9,1.6-.6-2.2Z"/><path d="m188.02,318.16c0-2.4,1.7-4.3,4.1-4.3,1.6,0,2.9.7,3.7,2l-2.1,1.3c-.3-.6-.9-.9-1.6-.9-1,0-1.8.8-1.8,1.9s.8,1.8,1.9,1.8c.7,0,1.3-.4,1.5-.9l2.1,1.1c-.7,1.3-2,2.1-3.6,2.2-2.4,0-4.3-1.7-4.3-4.1l.1-.1Z"/><path d="m206.02,316.16l-1.9,7.8-2.3-.6.2-.7c-.7.5-1.5.6-2.5.4-2-.5-3.3-2.7-2.7-5,.6-2.3,2.7-3.7,4.7-3.2,1,.3,1.7.8,2.1,1.5l.2-.7,2.3.6-.1-.1Zm-3.3,3.3c.3-1.2-.3-2.1-1.4-2.4-1.1-.3-2,.3-2.3,1.4-.3,1.2.3,2.1,1.4,2.4s2-.3,2.3-1.4Z"/><path d="m217.62,326.76l-2.8,4-2-1.4,2.7-3.9c.5-.7.4-1.3-.2-1.7-.7-.5-1.3-.2-1.9.5l-2.6,3.7-2-1.4,2.7-3.9c.5-.7.4-1.3-.2-1.7-.7-.5-1.3-.2-1.9.5l-2.6,3.7-2-1.4,4.5-6.6,2,1.4-.4.6c.6-.2,1.4-.2,2.3.4.8.5,1.1,1.3,1.1,2.1.7-.3,1.6-.2,2.5.4,1.5,1,1.8,2.8.6,4.5l.2.2Z"/><path d="m219.02,333.76c.4.5.9.8,1.4.9l.2,2.2c-1.3,0-2.5-.6-3.4-1.9-1.6-2.2-1.1-4.7.8-6.1s4.4-1.1,5.9,1c1.4,1.9.9,4.4-1.1,5.8-.3.2-.6.4-.8.5l-3.3-4.6c-.5.7-.3,1.5.2,2.2h.1Zm3.2-.5c.6-.7.5-1.5,0-2.1-.5-.7-1.3-1-2-.7l2,2.8Z"/><path d="m229.32,340.06l-2.5,1c-.2-1-1.1-2.1-2.6-1.5l-3.3,1.4-.9-2.2,7.4-3.1.9,2.2-1.3.5c1.1-.1,2,.7,2.4,1.6l-.1.1Z"/><path d="m231.22,350.26l-7.9,1.3-.4-2.4h.7c-.7-.5-1.2-1.3-1.3-2.3-.3-2.1,1.2-4.1,3.6-4.4,2.4-.4,4.4,1,4.8,3.1.2,1.1,0,1.9-.6,2.5h.7c0-.1.4,2.2.4,2.2Zm-4.3-1.7c1.2-.2,1.8-1.1,1.6-2.2-.2-1.1-1-1.8-2.2-1.6s-1.8,1.1-1.6,2.2c.2,1.1,1,1.8,2.2,1.6Z"/><path class="cls-20" d="m216.32,362.36v19.3c.2,2.1-1.4,3.9-3.4,4.1h-39.4c-2.3.2-4.2-1.5-4.4-3.8v-38.7c0-3,1.7-4.6,4.7-4.6h38c2.3-.2,4.2,1.5,4.4,3.7v20h.1Zm-25.5,9.8c0-4.3-3.5-7.8-7.8-7.8s-7.8,3.5-7.8,7.8,3.5,7.8,7.8,7.8h0c4.3,0,7.8-3.5,7.8-7.8Zm0-19.7c0-4.3-3.5-7.8-7.8-7.8s-7.8,3.5-7.8,7.8,3.5,7.8,7.8,7.8,7.8-3.3,7.9-7.6v-.2h-.1Zm11.7,7.8c4.3,0,7.9-3.5,7.9-7.8s-3.5-7.9-7.8-7.9-7.9,3.5-7.9,7.8h0c0,4.3,3.5,7.9,7.8,7.9h0Zm6,11.8v-3.7c.1-1.1-.6-2-1.7-2.2h-8c-1-.1-1.9.6-2.1,1.6v8c0,1.1.7,2,1.7,2.1h7.9c1.1,0,2-.7,2.1-1.8v-4.1l.1.1Z"/><path class="cls-42" d="m190.82,372.16c0,4.3-3.6,7.8-7.9,7.7-4.3,0-7.8-3.6-7.7-7.9,0-4.3,3.5-7.7,7.8-7.7s7.9,3.6,7.8,7.9h0Zm-11.7-1.1v.9c0,1.7,1.1,3.3,2.7,3.9,2.1.7,4.3-.5,5-2.6.4-1.2.2-2.5-.6-3.5-.9-1.2-2.4-1.8-3.9-1.5-2.4,0-3.2.6-3.2,2.7h0v.1Z"/><path class="cls-42" d="m190.82,352.46c0,4.3-3.5,7.8-7.8,7.8s-7.8-3.5-7.8-7.8,3.5-7.8,7.8-7.8h0c4.3,0,7.8,3.5,7.8,7.8h0Zm-11.5-.7c-.4,1.5.1,3.1,1.3,4,1.4,1,3.2,1,4.6,0,1.2-.8,1.9-2.3,1.6-3.8-.2-2-2.1-3.5-4.1-3.2h-.5c-1.2-.4-2.6.2-3,1.4-.2.5-.2,1.1,0,1.6h.1Z"/><path class="cls-42" d="m202.62,360.36c-4.3,0-7.8-3.6-7.8-7.9s3.6-7.8,7.9-7.8,7.8,3.6,7.8,7.9-3.6,7.8-7.9,7.8Zm-3.7-8.6c-.6,1,0,1.9.4,2.7.8,1.5,2.5,2.2,4.1,1.9,1.5-.3,2.7-1.5,3.1-3,.4-1.7-.4-3.5-2-4.3-.9-.4-1.9-.6-2.9-.5-2,0-3.3,1.3-2.7,3.2Z"/><path class="cls-9" d="m208.52,372.16v3.8c0,1.1-.7,2-1.8,2.1h-7.9c-1.1.1-2-.7-2.1-1.7v-8c-.1-1,.6-1.9,1.6-2.1h8c1.1,0,2,.7,2.1,1.7v4.1l.1.1Zm-6.9-1h3.7c.7,0,1.2-.3,1.2-1.1s-.6-.8-1.2-.8h-2.9c-.1-.6-.6-1-1.2-1.1-1,0-1.9.6-2.2,1.5-.4.6-.3,1.3.2,1.8.8.7,1.6.3,2.3-.2,0,0,0-.1.1-.2h0v.1Zm1,4h2.9c.5,0,1-.4,1-.9v-.1c0-.7-.4-.8-1-.8h-5.7c-.5,0-.9.3-1,.7v.2c0,.5.4.9.9.9h3-.1Z"/><path class="cls-62" d="m182.32,368.36c1.5-.4,3,.2,3.9,1.4,1.3,1.8.9,4.2-.9,5.5-1,.7-2.3.9-3.5.5-1.6-.6-2.7-2.1-2.7-3.9v-.9c.5.6,1.3.9,2,.7.1,1.9,1.2,2.8,2.6,2.2,1-.4,1.5-1.5,1.1-2.5-.3-1-1.3-1.6-2.3-1.3.2-.6.1-1.3-.2-1.8v.1Z"/><path class="cls-48" d="m182.32,368.36c.4.5.5,1.2.3,1.8-.3.7-.9,1.1-1.4,1.6-.7.2-1.5,0-2-.7,0-2.1.7-2.8,3.2-2.7h-.1Z"/><path class="cls-62" d="m182.32,348.76c2-.5,4,.7,4.5,2.6v.5c.2,1.5-.4,3-1.6,3.8-1.4,1-3.2,1-4.6,0-1.2-.9-1.8-2.4-1.3-3.9.5.4,1.2.5,1.9.2,0,1.7,1.2,2.8,2.5,2.3.9-.2,1.5-1.1,1.3-2-.1-1.2-1-1.7-2.4-1.7.3-.6.2-1.4-.2-1.9l-.1.1Z"/><path class="cls-48" d="m181.12,352.06c-.6.3-1.3.2-1.9-.2-.4-1.2.2-2.6,1.4-3,.5-.2,1.1-.2,1.6,0,.4.5.5,1.2.2,1.8-.4.6-.8,1-1.4,1.4h.1Z"/><path class="cls-62" d="m201.62,348.56c1-.1,2,0,2.9.5,1.6.8,2.4,2.6,2,4.3-.4,1.5-1.6,2.6-3.1,2.9-1.6.3-3.3-.5-4.1-1.9-.4-.8-1-1.7-.4-2.7.5.3,1.2.5,1.8.4,0,1,.3,1.9,1.4,2.1.9.3,2-.1,2.3-1,.6-1.4-.3-2.5-2.2-2.7.2-.7,0-1.5-.6-2v.1Z"/><path class="cls-48" d="m201.62,348.56c.6.5.9,1.3.7,2-.4.6-1,1.2-1.6,1.6-.6,0-1.2-.1-1.8-.4-.6-1.9.7-3.2,2.7-3.2Z"/><path class="cls-44" d="m202.62,375.06h-2.9c-.5,0-.9-.3-1-.8v-.1c0-.5.3-.9.8-1h5.9c.6,0,1,.1,1,.8,0,.5-.3,1-.9,1h-3l.1.1Z"/><path class="cls-13" d="m201.62,371.16s-.1,0-.2.1c-.7.5-1.5.9-2.3.2-.5-.4-.6-1.2-.2-1.8.4-.9,1.3-1.5,2.2-1.5.6,0,1.1.5,1.2,1.1,0,.7-.2,1.3-.6,1.8l-.1.1Z"/><path class="cls-44" d="m201.62,371.16c.4-.5.7-1.2.7-1.8h3c.6,0,1.2,0,1.2.8s-.4,1.1-1.2,1.1h-3.7v-.1Z"/><path class="cls-42" d="m181.12,371.76c.5-.5,1.2-.8,1.4-1.6,1-.2,2,.3,2.3,1.3.4,1-.1,2.1-1.1,2.5-1.4.5-2.5-.4-2.6-2.2Z"/><path class="cls-42" d="m181.12,352.06c.6-.4,1-.8,1.4-1.4,1.4,0,2.3.6,2.4,1.7.1.9-.4,1.8-1.3,2-1.3.5-2.5-.6-2.5-2.3Z"/><path class="cls-42" d="m200.72,352.26c.6-.5,1.2-1,1.6-1.6,1.9.1,2.8,1.2,2.2,2.7-.4.9-1.4,1.3-2.3,1-1.1-.2-1.4-1.1-1.4-2.1h-.1Z"/><line class="cls-5" x1="195.17" y1="251.5" x2="195.17" y2="293.5"/><line class="cls-4" x1="195.17" y1="251.5" x2="195.17" y2="282.74"/><polygon class="cls-58" points="187.69 280.55 195.17 293.5 202.65 280.55 187.69 280.55"/><line class="cls-5" x1="152.66" y1="230.15" x2="118.97" y2="255.23"/><line class="cls-4" x1="152.66" y1="230.15" x2="127.6" y2="248.8"/><polygon class="cls-58" points="124.89 241.5 118.97 255.23 133.82 253.49 124.89 241.5"/><line class="cls-5" x1="144.4" y1="183.3" x2="104.16" y2="171.25"/><line class="cls-4" x1="144.4" y1="183.3" x2="114.47" y2="174.34"/><polygon class="cls-58" points="118.71 167.8 104.16 171.25 114.42 182.13 118.71 167.8"/><line class="cls-5" x1="177.04" y1="148.7" x2="162.68" y2="109.23"/><line class="cls-4" x1="177.04" y1="148.7" x2="166.36" y2="119.34"/><polygon class="cls-58" points="174.14 118.84 162.68 109.23 160.08 123.96 174.14 118.84"/><line class="cls-5" x1="224.29" y1="154.22" x2="247.37" y2="119.13"/><line class="cls-4" x1="224.29" y1="154.22" x2="241.46" y2="128.12"/><polygon class="cls-58" points="246.5 134.06 247.37 119.13 234.01 125.84 246.5 134.06"/><line class="cls-5" x1="248.08" y1="195.42" x2="290.01" y2="192.98"/><line class="cls-4" x1="248.08" y1="195.42" x2="279.26" y2="193.6"/><polygon class="cls-58" points="277.51 201.2 290.01 192.98 276.64 186.26 277.51 201.2"/><line class="cls-5" x1="229.24" y1="239.1" x2="256.24" y2="271.27"/><line class="cls-4" x1="229.24" y1="239.1" x2="249.32" y2="263.03"/><polygon class="cls-58" points="242.18 266.16 256.23 271.27 253.64 256.54 242.18 266.16"/><path class="cls-54" d="m303.12,66.65c.56,0,1.12.02,1.68.03.95,0,1.73.78,1.75,1.74.01.88,0,1.76,0,2.63,0,7.43,0,14.85,0,22.28,0,.48-.02.98-.16,1.44-.17.55-.85,1.05-1.43,1.05-6.29,0-12.58,0-18.86,0-.03,0-.06,0-.09-.01,0-1.71,0-3.42,0-5.13,1.31,0,2.62,0,3.93-.01.17,0,.36.04.36-.23.01-.65.06-1.31-.09-1.93-.41-1.67-.89-3.33-1.32-4.99-.12-.45-.24-.9-.4-1.33-.25-.68.22-1.04.63-1.42.68-.62.96-1.4,1.12-2.3.34-1.87-1.24-4.12-3.02-4.69-.06-.1-.14-.15-.25-.09-.09-.02-.18-.04-.27-.06-.04-.06-.09-.07-.16-.04-.17-.02-.35-.05-.52-.07,0-2.27,0-4.54,0-6.81,3.22,0,6.45-.01,9.67-.02.2,0,.4-.02.6-.02,1.15.04,2.31.05,3.46,0,1.13.06,2.26.05,3.39,0Z"/><path class="cls-24" d="m286,90.67c0,1.71,0,3.42,0,5.13-.65,0-1.29.01-1.94.01-5.48,0-10.97-.03-16.45.02-1.44.01-2.19-.77-2.18-2.19.05-8.39.03-16.78,0-25.17,0-1.01.81-1.81,1.77-1.79.56.01,1.12-.01,1.68-.02,1.13.03,2.26.06,3.39-.01,1.15.07,2.3.04,3.45.01.19,0,.37.02.56.02,3.24,0,6.48,0,9.71.01,0,2.27,0,4.54,0,6.81-.36.17-.77.09-1.15.24-1.6.62-2.66,1.7-3.04,3.41-.07.04-.12.08-.03.15-.13,1.41.02,2.7,1.28,3.63.4.29.55.74.39,1.29-.1.34-.23.67-.31,1.01-.22.94-.47,1.88-.72,2.81-.18.69-.4,1.37-.56,2.07-.16.69-.12,1.39-.15,2.09-.01.35.08.47.45.46,1.28-.02,2.56,0,3.84,0Z"/><path class="cls-40" d="m272.27,66.64c-1.13.07-2.26.04-3.39.01,0-3.05-.02-6.1.02-9.15.02-1.41.21-2.81.62-4.18.49-1.65,1.19-3.2,2.14-4.63,1.18-1.79,2.65-3.31,4.4-4.56,1.15-.82,2.36-1.55,3.68-2.01,1.32-.46,2.65-.91,4.07-1.01.8-.06,1.59-.18,2.39-.16,1.99.03,3.92.43,5.78,1.13,1.87.7,3.55,1.72,5.08,2.99,1.32,1.1,2.4,2.4,3.32,3.83.65,1.02,1.17,2.1,1.61,3.23.24.62.41,1.27.62,1.9.2.57.23,1.2.3,1.81.39,3.6.1,7.21.19,10.81-1.13.04-2.26.06-3.39,0,0-2.58-.02-5.15.01-7.73.02-1.48-.17-2.93-.53-4.36-.51-2.01-1.44-3.82-2.8-5.37-1.66-1.9-3.68-3.33-6.11-4.1-1.73-.55-3.48-.72-5.3-.61-1.68.1-3.26.5-4.76,1.2-2.5,1.16-4.46,2.94-5.92,5.29-1.26,2.02-1.94,4.24-2.03,6.59-.11,3.03-.02,6.07-.02,9.11Z"/><path class="cls-14" d="m296.27,66.65c0-2.73.02-5.47,0-8.2-.02-1.45-.22-2.89-.8-4.24-.46-1.07-1.08-2.04-1.85-2.94-1.14-1.33-2.57-2.25-4.18-2.83-1.49-.54-3.05-.72-4.65-.52-.98.12-1.93.35-2.81.73-2.46,1.07-4.27,2.83-5.38,5.29-.52,1.15-.73,2.36-.79,3.61-.15,3.03-.02,6.07-.07,9.1-1.15.02-2.3.05-3.45-.02,0-3.04-.09-6.08.02-9.11.09-2.34.77-4.57,2.03-6.59,1.46-2.34,3.42-4.12,5.92-5.29,1.5-.7,3.08-1.1,4.76-1.2,1.82-.11,3.57.07,5.3.61,2.44.77,4.45,2.2,6.11,4.1,1.36,1.55,2.29,3.36,2.8,5.37.36,1.43.55,2.88.53,4.36-.03,2.58-.01,5.15-.01,7.73-1.15.06-2.31.04-3.46,0Z"/><path class="cls-26" d="m286,90.67c-1.28,0-2.56-.02-3.84,0-.37,0-.46-.11-.45-.46.03-.7-.02-1.41.15-2.09.17-.69.38-1.38.56-2.07.25-.94.5-1.87.72-2.81.08-.34.21-.68.31-1.01.16-.55,0-.99-.39-1.29-1.26-.93-1.41-2.23-1.28-3.63.07-.04.07-.09.03-.15.38-1.7,1.44-2.78,3.04-3.41.38-.15.79-.06,1.15-.24.17.02.35.05.52.07.03.09.08.14.16.04.09.02.18.04.27.06.05.12.15.1.25.09,1.78.57,3.36,2.82,3.02,4.69-.16.9-.45,1.67-1.12,2.3-.41.38-.88.73-.63,1.42.16.43.29.88.4,1.33.43,1.67.91,3.32,1.32,4.99.15.62.1,1.28.09,1.93,0,.28-.19.23-.36.23-1.31,0-2.62,0-3.93.01Z"/><path class="cls-14" d="m287.2,73.77c-.1,0-.2.03-.25-.09.11-.05.19,0,.25.09Z"/><path class="cls-14" d="m286.68,73.62c-.08.1-.12.05-.16-.04.06-.04.12-.02.16.04Z"/><path class="cls-40" d="m281.81,77.14c.04.06.04.12-.03.15-.09-.07-.03-.12.03-.15Z"/><circle class="cls-2" cx="286.15" cy="70.98" r="44.02"/><path class="cls-54" d="m73.12,149.65c.56,0,1.12.02,1.68.03.95,0,1.73.78,1.75,1.74.01.88,0,1.76,0,2.63,0,7.43,0,14.85,0,22.28,0,.48-.02.98-.16,1.44-.17.55-.85,1.05-1.43,1.05-6.29,0-12.58,0-18.86,0-.03,0-.06,0-.09-.01,0-1.71,0-3.42,0-5.13,1.31,0,2.62,0,3.93-.01.17,0,.36.04.36-.23.01-.65.06-1.31-.09-1.93-.41-1.67-.89-3.33-1.32-4.99-.12-.45-.24-.9-.4-1.33-.25-.68.22-1.04.63-1.42.68-.62.96-1.4,1.12-2.3.34-1.87-1.24-4.12-3.02-4.69-.06-.1-.14-.15-.25-.09-.09-.02-.18-.04-.27-.06-.04-.06-.09-.07-.16-.04-.17-.02-.35-.05-.52-.07,0-2.27,0-4.54,0-6.81,3.22,0,6.45-.01,9.67-.02.2,0,.4-.02.6-.02,1.15.04,2.31.05,3.46,0,1.13.06,2.26.05,3.39,0Z"/><path class="cls-24" d="m56,173.67c0,1.71,0,3.42,0,5.13-.65,0-1.29.01-1.94.01-5.48,0-10.97-.03-16.45.02-1.44.01-2.19-.77-2.18-2.19.05-8.39.03-16.78,0-25.17,0-1.01.81-1.81,1.77-1.79.56.01,1.12-.01,1.68-.02,1.13.03,2.26.06,3.39-.01,1.15.07,2.3.04,3.45.01.19,0,.37.02.56.02,3.24,0,6.48,0,9.71.01,0,2.27,0,4.54,0,6.81-.36.17-.77.09-1.15.24-1.6.62-2.66,1.7-3.04,3.41-.07.04-.12.08-.03.15-.13,1.41.02,2.7,1.28,3.63.4.29.55.74.39,1.29-.1.34-.23.67-.31,1.01-.22.94-.47,1.88-.72,2.81-.18.69-.4,1.37-.56,2.07-.16.69-.12,1.39-.15,2.09-.01.35.08.47.45.46,1.28-.02,2.56,0,3.84,0Z"/><path class="cls-40" d="m42.27,149.64c-1.13.07-2.26.04-3.39.01,0-3.05-.02-6.1.02-9.15.02-1.41.21-2.81.62-4.18.49-1.65,1.19-3.2,2.14-4.63,1.18-1.79,2.65-3.31,4.4-4.56,1.15-.82,2.36-1.55,3.68-2.01,1.32-.46,2.65-.91,4.07-1.01.8-.06,1.59-.18,2.39-.16,1.99.03,3.92.43,5.78,1.13,1.87.7,3.55,1.72,5.08,2.99,1.32,1.1,2.4,2.4,3.32,3.83.65,1.02,1.17,2.1,1.61,3.23.24.62.41,1.27.62,1.9.2.57.23,1.2.3,1.81.39,3.6.1,7.21.19,10.81-1.13.04-2.26.06-3.39,0,0-2.58-.02-5.15.01-7.73.02-1.48-.17-2.93-.53-4.36-.51-2.01-1.44-3.82-2.8-5.37-1.66-1.9-3.68-3.33-6.11-4.1-1.73-.55-3.48-.72-5.3-.61-1.68.1-3.26.5-4.76,1.2-2.5,1.16-4.46,2.94-5.92,5.29-1.26,2.02-1.94,4.24-2.03,6.59-.11,3.03-.02,6.07-.02,9.11Z"/><path class="cls-14" d="m66.27,149.65c0-2.73.02-5.47,0-8.2-.02-1.45-.22-2.89-.8-4.24-.46-1.07-1.08-2.04-1.85-2.94-1.14-1.33-2.57-2.25-4.18-2.83-1.49-.54-3.05-.72-4.65-.52-.98.12-1.93.35-2.81.73-2.46,1.07-4.27,2.83-5.38,5.29-.52,1.15-.73,2.36-.79,3.61-.15,3.03-.02,6.07-.07,9.1-1.15.02-2.3.05-3.45-.02,0-3.04-.09-6.08.02-9.11.09-2.34.77-4.57,2.03-6.59,1.46-2.34,3.42-4.12,5.92-5.29,1.5-.7,3.08-1.1,4.76-1.2,1.82-.11,3.57.07,5.3.61,2.44.77,4.45,2.2,6.11,4.1,1.36,1.55,2.29,3.36,2.8,5.37.36,1.43.55,2.88.53,4.36-.03,2.58-.01,5.15-.01,7.73-1.15.06-2.31.04-3.46,0Z"/><path class="cls-26" d="m56,173.67c-1.28,0-2.56-.02-3.84,0-.37,0-.46-.11-.45-.46.03-.7-.02-1.41.15-2.09.17-.69.38-1.38.56-2.07.25-.94.5-1.87.72-2.81.08-.34.21-.68.31-1.01.16-.55,0-.99-.39-1.29-1.26-.93-1.41-2.23-1.28-3.63.07-.04.07-.09.03-.15.38-1.7,1.44-2.78,3.04-3.41.38-.15.79-.06,1.15-.24.17.02.35.05.52.07.03.09.08.14.16.04.09.02.18.04.27.06.05.12.15.1.25.09,1.78.57,3.36,2.82,3.02,4.69-.16.9-.45,1.67-1.12,2.3-.41.38-.88.73-.63,1.42.16.43.29.88.4,1.33.43,1.67.91,3.32,1.32,4.99.15.62.1,1.28.09,1.93,0,.28-.19.23-.36.23-1.31,0-2.62,0-3.93.01Z"/><path class="cls-14" d="m57.2,156.77c-.1,0-.2.03-.25-.09.11-.05.19,0,.25.09Z"/><path class="cls-14" d="m56.68,156.62c-.08.1-.12.05-.16-.04.06-.04.12-.02.16.04Z"/><path class="cls-40" d="m51.81,160.14c.04.06.04.12-.03.15-.09-.07-.03-.12.03-.15Z"/><circle class="cls-2" cx="56.15" cy="153.98" r="44.02"/><circle class="cls-3" cx="78.04" cy="290.91" r="45.96"/><path class="cls-28" d="m90.09,270.9c.22.29.5.53.82.71,1.19,1.1,1.86,2.66,1.84,4.29v46.26c0,3.68-1.84,5.82-5.62,6.13-6.12.51-12.27.51-18.38,0-3.02-.08-5.4-2.59-5.32-5.6,0-.07,0-.15,0-.22v-46.57c-.17-3.05,2.17-5.65,5.22-5.82.03,0,.06,0,.09,0,5.37-.38,10.76-.44,16.14-.2.38-.02.76.02,1.12.1,1.43-.02,2.85.22,4.19.71l-.1.2Zm-11.13,6.74h-11.34c-.71,0-.92.2-.92.92v11.74c0,3.88,0,2.45,2.45,2.35h19.51c.61,0,.71-.2.71-.71v-13.51c0-.51-.1-.82-.71-.82h-9.7v.03Zm2.14,30.13c-2.35,0-2.14,0-2.14,2.25,0,.71.31,1.02,1.02,1.02h1.63c1.33,0,1.43,0,1.43-1.33,0-2.25.2-1.94-1.94-1.94Zm-6.03,0h-1.12c-.61,0-1.02.2-.82.82.2.82-.71,2.14.82,2.45.78.1,1.57.1,2.35,0,.44.02.83-.28.92-.71.51-1.94,0-2.55-1.94-2.55h-.2Zm0-4.8c-2.25,0-1.94-.2-2.04,2.04v.31c0,.71.31,1.02.92,1.02h2.35c.41-.02.75-.31.82-.71.51-1.94,0-2.55-1.94-2.55h0l-.1-.1Zm6.13,0h-1.33c-.51,0-.82.2-.82.71,0,2.35-.2,2.66,2.14,2.55h.51c1.33,0,1.43-.2,1.43-1.43,0-2.14.2-1.94-1.94-1.94h0v.1Zm-.1,12.97h1.02c.51,0,1.02-.1,1.02-.71,0-.82.51-1.84-.41-2.55h-2.86c-.39-.03-.74.23-.82.61-.51,1.94,0,2.66,2.04,2.66h0Zm-5.92,0h1.02c.61,0,1.02-.2,1.02-.82,0-.82.51-1.84-.41-2.45h-2.86c-.35,0-.66.2-.82.51-.61,1.84,0,2.76,1.94,2.76h.1Zm0-17.77h-.92c-.71,0-1.02.2-1.02,1.02q0,2.35,2.35,2.35h.82c.47.01.88-.34.92-.82.41-2.04,0-2.55-2.04-2.55h-.1Zm6.13,0h-1.33c-.51,0-.82.2-.82.82,0,2.35-.2,2.66,2.14,2.55h.51c1.33,0,1.43-.2,1.43-1.43,0-2.14.2-1.94-1.94-1.94h0Zm-12.05,17.77h.82c.92,0,1.23-.31,1.12-1.23,0-2.45.31-2.14-2.14-2.14h-.41c-1.33,0-1.43,0-1.33,1.33,0,1.84-.41,2.04,1.94,1.94v.1Zm17.97-3.37h-.82c-.82-.1-1.12.2-1.12,1.12,0,2.35-.41,2.25,2.25,2.25h.41q1.33,0,1.33-1.33c0-2.25.2-1.94-1.94-1.94h0l-.1-.1Zm0-4.8h-1.02c-.71,0-.92.31-.92,1.02,0,2.45-.41,2.35,2.35,2.35h.31c1.23,0,1.33-.1,1.33-1.33,0-2.25.2-2.04-1.94-2.04h-.1Zm-17.87,0h-.9c-.82,0-1.12.2-1.12,1.12,0,2.35-.41,2.25,2.25,2.25h.41c1.23,0,1.33-.1,1.33-1.43,0-2.14.2-1.94-1.94-1.94h-.02Zm0-4.8h-.9c-.82,0-1.12.2-1.02,1.02,0,2.35-.2,2.35,2.25,2.25h.31c1.33,0,1.43,0,1.43-1.43,0-2.14.2-1.94-1.94-1.94l-.12.1Zm17.97-4.8h-1.02c-.71,0-.92.31-.92,1.02,0,2.45-.2,2.35,2.35,2.35h.31c1.23,0,1.33-.1,1.33-1.33,0-2.25.2-1.94-1.94-2.04h-.1Zm0,4.8c-2.25,0-1.94-.31-2.04,2.04v.2c0,.82.31,1.12,1.12,1.12h1.45c1.23,0,1.33-.1,1.33-1.43,0-2.14.2-1.94-1.94-1.94h.08Zm-17.97-4.8h-1.02c-.71,0-.92.31-.92,1.02,0,2.45-.2,2.35,2.35,2.35h.31c1.23,0,1.33-.1,1.33-1.33,0-2.25.2-1.94-1.94-2.04h-.1Zm10.93-23.39c.41,0,.71-.1.61-.61s-.2-.51-.61-.51-.71.1-.61.61.2.51.61.51Zm2.55-.51c0-.41-.2-.51-.61-.51s-.71,0-.71.51.2.51.61.51.71-.1.71-.51Zm-5.92,49.73c.04-.3-.16-.57-.46-.61-.05,0-.1,0-.15,0-.41,0-.51.31-.51.61s.2.61.51.61c.31-.03.53-.3.51-.61h.1Zm-2.14-50.24c-.32,0-.61.21-.71.51-.01.33.24.6.57.61.01,0,.03,0,.04,0,.31,0,.51-.1.51-.41h0c0-.41-.1-.61-.51-.61l.1-.1Zm2.35.51c0-.41-.2-.51-.61-.51-.28-.06-.56.13-.61.41-.06.28.13.56.41.61.07.01.14.01.21,0,.41,0,.51-.2.51-.51h.1Zm-.2,45.55c0-.41-.31-.51-.61-.51-.26-.02-.49.18-.51.45,0,.02,0,.04,0,.06,0,.41.2.61.51.61s.51-.2.51-.61h.1Zm4.08-.1c0-.2-.1-.41-.51-.41s-.61.1-.61.51.2.61.51.61.51-.2.51-.71h.1Zm-.41,4.8c.31,0,.41-.2.41-.51.02-.31-.2-.58-.51-.61-.26-.03-.5.16-.53.43,0,.06,0,.13.02.19.1.41.2.51.71.51h-.1Zm-1.63-50.24c0-.41-.31-.51-.61-.51s-.51.2-.41.61.31.51.61.51c.31-.03.53-.3.51-.61h-.1Zm-.51,45.24c.26.02.49-.18.51-.45,0-.02,0-.04,0-.06,0-.41-.2-.61-.61-.51s-.51.2-.51.61c.03.31.3.53.61.51h0v-.1Zm-3.06,2.96c.31,0,.51-.1.61-.51s-.1-.61-.51-.61-.51.1-.61.51.1.61.51.61h0Zm5.82-1.12c-.25,0-.44.21-.44.46,0,.05.01.1.03.15,0,.31.2.51.61.41s.51-.31.51-.61c-.03-.31-.3-.53-.61-.51l-.1.1Zm-2.86,4.08c.26.02.49-.18.51-.45,0-.02,0-.04,0-.06,0-.41-.2-.61-.51-.61-.26-.02-.49.18-.51.45,0,.02,0,.04,0,.06,0,.41.2.58.51.58v.03Zm-.61-3.17c0-.31-.1-.51-.51-.51-.26-.02-.49.18-.51.45,0,.02,0,.04,0,.06,0,.31.1.61.41.61.3,0,.55-.22.61-.51h0v-.1Zm.82.41c-.26-.02-.49.18-.51.45,0,.02,0,.04,0,.06.03.31.3.53.61.51h0c.31,0,.41-.31.41-.51.02-.26-.18-.49-.45-.51-.02,0-.04,0-.06,0Zm0-1.94c.02-.25-.16-.48-.41-.51-.3,0-.55.22-.61.51,0,.2.1.51.41.51h0c.31,0,.41-.31.51-.51h.1Zm1.02,1.33c.22-.01.39-.19.41-.41,0-.2,0-.41-.31-.51h-.1c-.31,0-.41.2-.51.41s0,.41.41.41l.1.1Z"/><path class="cls-47" d="m81.74,277.64h6.94c.61,0,.71.2.71.82v13.48c0,.51-.1.71-.71.71h-15.62c.02-.22.09-.43.2-.61,1.94-3.17,3.78-6.33,5.72-9.5,1.02-1.58,1.94-3.21,2.76-4.9Z"/><path class="cls-47" d="m69.16,292.55c-1.63,0-2.45-.78-2.45-2.35v-11.77c0-.71.2-.92.92-.92h10.21c-.72,1.48-1.54,2.92-2.45,4.29-2.04,3.57-4.19,7.05-6.23,10.62v.13Z"/><path class="cls-39" d="m81.74,277.64c-.82,1.69-1.74,3.33-2.76,4.9-1.84,3.17-3.78,6.33-5.72,9.5,0,.2-.2.41-.2.61h-1.63c.02-.22.09-.43.2-.61,1.63-2.66,3.27-5.41,4.8-8.07,1.23-2.14,2.55-4.08,3.68-6.33h1.63Z"/><path class="cls-11" d="m80.09,277.64c-1.12,2.14-2.45,4.19-3.68,6.33-1.63,2.76-3.27,5.41-4.8,8.07,0,.2-.2.41-.2.61h-1.12c.47-1.2,1.08-2.33,1.84-3.37,2.25-3.88,4.6-7.76,6.84-11.54h1.12v-.1Z"/><path class="cls-29" d="m78.96,277.64c-2.25,3.88-4.6,7.66-6.84,11.54-.75,1.04-1.37,2.17-1.84,3.37h-1.12c2.14-3.47,4.19-7.05,6.23-10.62.91-1.37,1.73-2.8,2.45-4.29h1.12Z"/><path class="cls-43" d="m81.11,307.77c2.25,0,1.94-.2,1.94,1.94,0,1.23,0,1.33-1.43,1.33h-1.63c-.5.06-.96-.3-1.02-.8,0-.07,0-.14,0-.22,0-2.35-.2-2.35,2.14-2.25Z"/><path class="cls-43" d="m74.98,307.77h0c1.94,0,2.45.61,1.94,2.55-.05.45-.46.77-.91.72,0,0,0,0-.01,0-.78.05-1.57.05-2.35,0-1.53-.31-.61-1.63-.82-2.45-.1-.61.2-.92.82-.82h1.33Z"/><path class="cls-43" d="m74.98,302.93h0c1.94,0,2.45.61,1.94,2.55-.07.4-.41.7-.82.71h-2.35c-.61,0-1.02-.31-.92-1.02v-.31c0-2.25-.31-2.04,2.04-2.04l.1.1Z"/><path class="cls-43" d="m81.11,302.93c2.14,0,1.94-.2,1.94,1.94,0,1.23-.2,1.43-1.43,1.43h-.51c-2.45,0-2.14-.2-2.14-2.55,0-.51.31-.71.82-.71h1.33v-.1Z"/><path class="cls-43" d="m81.01,315.94c-1.94,0-2.55-.71-2.04-2.66.08-.38.43-.64.82-.61h2.86c.92.71.41,1.74.41,2.55,0,.61-.51.71-1.02.71h-1.02Z"/><path class="cls-43" d="m74.98,315.94c-1.84,0-2.55-1.02-1.94-2.76.07-.35.41-.59.76-.52.02,0,.04,0,.06.01h2.86c.92.71.41,1.63.41,2.45,0,.51-.41.82-1.02.82h-1.12Z"/><path class="cls-43" d="m74.98,298.06h0c2.04,0,2.45.51,2.04,2.55,0,.51-.41.71-.92.82h-.82q-2.35,0-2.35-2.35c0-2.35.31-1.12,1.02-1.02h1.02Z"/><path class="cls-43" d="m81.11,298.06c2.14,0,1.94-.2,1.94,1.94,0,1.23-.2,1.43-1.43,1.43h-.51c-2.45,0-2.14-.2-2.14-2.55,0-.51.31-.71.82-.82h1.33Z"/><path class="cls-43" d="m69.06,315.94c-2.35,0-1.94-.1-1.94-1.94q0-1.33,1.33-1.33h.41c2.45,0,2.14-.31,2.14,2.14,0,.92-.31,1.23-1.12,1.23h-.82v-.1Z"/><path class="cls-43" d="m87.03,312.57c2.25,0,1.94-.2,1.94,1.94q0,1.33-1.33,1.33h-.41c-2.66,0-2.14,0-2.25-2.25,0-.82.31-1.23,1.12-1.12h.82l.1.1Z"/><path class="cls-43" d="m87.03,307.77c2.14,0,1.94-.2,1.94,2.04,0,1.23-.1,1.33-1.33,1.33h-.31c-2.76,0-2.25.1-2.35-2.35,0-.71.2-1.02.92-1.02h1.12Z"/><path class="cls-43" d="m69.06,307.77c2.14,0,1.84-.2,1.94,1.94,0,1.23,0,1.43-1.33,1.43h-.41c-2.66,0-2.14,0-2.25-2.25,0-.82.31-1.23,1.12-1.12h.92Z"/><path class="cls-43" d="m69.06,302.93c2.14,0,1.94-.2,1.94,1.94,0,1.33,0,1.43-1.43,1.43h-.31c-2.45,0-2.14,0-2.25-2.25,0-.82.2-1.12,1.02-1.02h.92l.1-.1Z"/><path class="cls-43" d="m87.03,298.06c2.14,0,1.94-.2,1.94,2.04,0,1.23-.1,1.33-1.33,1.33h-.31c-2.55,0-2.25.1-2.35-2.35,0-.71.2-1.02.92-1.02h1.12Z"/><path class="cls-43" d="m87.03,302.93c2.14,0,1.94-.2,1.94,1.94,0,1.33-.1,1.43-1.33,1.43h-1.43c-.82,0-1.12-.31-1.12-1.12v-.2c0-2.25-.31-2.04,2.04-2.04h-.1Z"/><path class="cls-43" d="m69.06,298.06c2.14,0,1.94-.2,1.94,1.94,0,1.23-.1,1.33-1.33,1.33h-.31c-2.55,0-2.35.1-2.35-2.35,0-.71.2-1.02.92-1.02h1.02l.1.1Z"/><path class="cls-49" d="m79.98,274.78c-.31,0-.61-.1-.61-.51-.01-.33.24-.6.57-.61.01,0,.03,0,.04,0,.31,0,.61.1.61.51.01.33-.24.6-.57.61-.01,0-.03,0-.04,0Z"/><path class="cls-49" d="m82.44,274.27c0,.41-.31.51-.71.51s-.61-.2-.61-.51.31-.51.71-.51.61.2.61.51Z"/><path class="cls-53" d="m76.51,323.9c.02.31-.2.58-.51.61-.26.03-.5-.16-.53-.43,0-.06,0-.13.02-.19,0-.31.1-.61.51-.61.3-.04.57.16.61.46,0,.05,0,.1,0,.15h-.1Z"/><path class="cls-49" d="m74.37,273.66c.41,0,.51.2.51.61.02.26-.18.49-.45.51-.02,0-.04,0-.06,0h0c-.41,0-.71-.2-.61-.61s.31-.51.71-.51h-.1Z"/><path class="cls-49" d="m76.72,274.17c0,.41-.2.61-.51.51-.28.06-.56-.13-.61-.41-.06-.28.13-.56.41-.61.07-.01.14-.01.21,0,.31,0,.61.1.61.51h-.1Z"/><path class="cls-49" d="m76.51,319.71c0,.41-.2.61-.51.61s-.51-.2-.51-.61.1-.51.51-.51.61.1.61.51h-.1Z"/><path class="cls-49" d="m80.6,319.61c0,.51-.2.71-.51.71s-.51-.2-.51-.61.31-.51.61-.51c.25-.02.48.16.51.41h-.1Z"/><path class="cls-49" d="m80.19,324.38c-.41,0-.71-.1-.71-.51s.2-.61.51-.61.51.2.51.61-.1.51-.41.51h.1Z"/><path class="cls-49" d="m78.55,274.17c.04.28-.14.54-.41.61-.31,0-.61-.1-.61-.51-.04-.28.14-.54.41-.61.41,0,.61.1.61.51Z"/><path class="cls-49" d="m78.04,319.41c-.31,0-.51-.1-.61-.51s.1-.61.51-.61.61.2.61.51c.02.26-.18.49-.45.51-.02,0-.04,0-.06,0v.1Z"/><path class="cls-49" d="m75.08,322.34c-.41,0-.51-.2-.51-.61s.2-.51.61-.51.51.2.51.61-.2.51-.61.51Z"/><path class="cls-49" d="m80.9,321.25c.41,0,.61.1.61.41s-.1.61-.51.61c-.28.04-.54-.14-.61-.41,0-.41.1-.61.41-.61h.1Z"/><path class="cls-49" d="m78.04,317.16c-.22-.01-.39-.19-.41-.41,0-.2.1-.31.41-.31.21-.02.39.14.41.34,0,.02,0,.04,0,.06,0,.2-.1.31-.41.31Z"/><path class="cls-53" d="m77.43,322.16c-.06.29-.31.5-.61.51-.31,0-.51-.2-.41-.61s.2-.51.51-.51.41.31.51.51v.1Z"/><path class="cls-53" d="m78.25,322.57c.26-.02.49.18.51.45,0,.02,0,.04,0,.06,0,.31,0,.51-.41.51s-.61-.1-.61-.41h0c0-.31.2-.41.51-.51v-.1Z"/><path class="cls-53" d="m78.15,320.74c-.02.27-.24.49-.51.51-.25.02-.48-.16-.51-.41h0c.03-.31.3-.53.61-.51.31,0,.41.2.41.51v-.1Z"/><path class="cls-49" d="m79.27,321.96c-.41,0-.51-.2-.41-.41s.2-.51.51-.41c.22.01.39.19.41.41v.1c-.01.22-.19.39-.41.41l-.1-.1Z"/><path d="m45.16,285.51c2.7-.25,5.09,1.73,5.34,4.42,0,.03,0,.07,0,.1l.21,4.02-9.99.63-.21-4.02c-.18-2.66,1.82-4.96,4.47-5.14.06,0,.11,0,.17,0Zm.18,2.18c-1.4-.06-2.59,1.03-2.65,2.43,0,.12,0,.24.01.37l.09,1.75,5.6-.41-.09-1.75c-.06-1.47-1.3-2.6-2.76-2.54-.08,0-.15,0-.23.02l.03.14Z"/><path d="m41.64,283.25c-.72-.13-1.2-.82-1.08-1.54.13-.72.82-1.2,1.54-1.08.72.13,1.2.82,1.08,1.54h0c-.11.71-.79,1.2-1.5,1.08-.01,0-.03,0-.04,0Zm1.87.11l.36-2.07,6.99,1.21-.36,2.07-6.99-1.21Z"/><path d="m51.02,275.44c1.6.54,1.79,2.12,1.22,3.58-.34,1.22-1.35,2.13-2.59,2.34l-.38-2.06c.55.08,1.05-.3,1.15-.84.19-.48.13-.77-.18-.85-.8-.27-1.53,3.14-3.84,2.39-1.45-.57-1.76-1.98-1.28-3.49.32-1.09,1.22-1.92,2.34-2.14l.29,2.01c-.43.04-.8.32-.95.72-.16.21-.11.51.1.67.02.01.03.02.05.03.8.27,1.45-3.2,3.93-2.34l.14-.03Z"/><path d="m54.65,267.33c1.69,1.02,2.24,3.21,1.22,4.91-.02.03-.04.06-.05.09-.44.68-1.14,1.15-1.93,1.31l3.01,1.93-1.21,1.89-8.26-5.66,1.16-1.81.6.39c-.16-.78.01-1.59.47-2.25,1.16-1.56,3.36-1.89,4.93-.73.03.03.07.05.1.08l-.03-.14Zm-1.16,1.81c-.77-.57-1.85-.41-2.41.36,0,0-.01.01-.02.02-.54.69-.42,1.68.26,2.22.06.04.11.08.18.12.77.57,1.85.41,2.41-.36,0,0,.01-.01.02-.02.56-.63.51-1.6-.13-2.16-.09-.08-.19-.15-.3-.21l-.02.03Z"/><path d="m51.2,261.35l1.53-1.44,7.13,7.61-1.53,1.44-7.13-7.61Z"/><path d="m63.13,256.75l3.71,6.14-1.82,1.14-.35-.59c-.16.78-.67,1.44-1.39,1.78-1.9.88-4.15.04-5.03-1.86-.75-1.62-.26-3.55,1.17-4.62.68-.44,1.51-.57,2.29-.35l-.35-.59,1.82-1.14-.06.09Zm.02,4.14c-.45-.83-1.48-1.14-2.31-.7-.02,0-.04.02-.05.03-.87.46-1.21,1.54-.75,2.41.46.87,1.54,1.21,2.41.75.87-.46,1.21-1.54.75-2.41-.02-.03-.03-.06-.05-.09Z"/><path d="m72.43,253.98l-.61,7.38c-.21,2.41-1.21,3.59-3.19,4.02l-.49-1.89c.83-.1,1.44-.81,1.42-1.64l-4.47-5.9,2.31-.58,2.67,3.78.17-4.62,2.23-.63-.06.09Z"/><path d="m86.75,263.4l-1.86-3.4-.39,3.12-2.11-.24,1.33-9.92,2.11.24-.83,5.93,2.55-2.79,2.53.36-3.04,3.17,2.16,3.94-2.39-.32-.05-.09Z"/><path d="m92.88,263.54c.48.2,1.03.2,1.51,0l1.2,1.56c-1.04.63-2.34.68-3.42.13-1.93-.62-2.98-2.69-2.36-4.62.04-.11.08-.22.12-.33.68-1.87,2.74-2.83,4.6-2.16.12.04.24.09.35.15,1.86.75,2.77,2.87,2.02,4.73-.02.05-.04.09-.06.14-.08.28-.3.51-.38.79l-4.69-1.98c-.02.74.48,1.38,1.2,1.56l-.09.05Zm2.21-1.91c.08-.71-.29-1.39-.93-1.7-.64-.33-1.43-.15-1.86.43l2.83,1.13-.04.14Z"/><path d="m105.46,265.04l-6.16,4.07c-2.05,1.36-3.61,1.28-5.12,0l1.22-1.6c.58.6,1.52.64,2.15.1l1.79-7.15,1.92,1.39-1.39,4.48,3.65-2.69,1.79,1.35.14.04Z"/><path d="m108.7,274.8c-1.48,1.26-3.71,1.08-4.97-.4-.03-.03-.05-.06-.08-.1-.53-.61-.76-1.42-.63-2.22l-2.8,2.11-1.3-1.73,8.01-6.01,1.3,1.73-.63.34c.8.13,1.51.58,1.97,1.25,1.11,1.6.7,3.8-.9,4.9-.04.02-.07.05-.11.07l.14.04Zm-1.3-1.73c.74-.48.94-1.47.46-2.2-.04-.06-.09-.13-.14-.18-.45-.73-1.4-.96-2.13-.52-.09.06-.18.12-.26.19-.74.48-.94,1.47-.46,2.2.04.06.09.13.14.18.45.73,1.4.96,2.13.52.09-.06.18-.12.26-.19h0Z"/><path d="m115.28,281.9l-6.72,2.39-.76-2.03.54-.29c-.76-.23-1.33-.86-1.48-1.64-.48-2.04.79-4.09,2.83-4.57,1.74-.41,3.53.45,4.3,2.07.34.74.28,1.6-.14,2.29l.54-.29c.05.09.81,2.12.81,2.12l.09-.05Zm-4.05-.81c.83-.21,1.34-1.05,1.13-1.88-.03-.1-.06-.2-.11-.3-.29-.87-1.22-1.34-2.09-1.05-.03.01-.06.02-.1.03-.83.21-1.34,1.05-1.13,1.88.03.1.06.2.11.3.3.86,1.25,1.32,2.11,1.02.02,0,.03-.01.05-.02l.03.02Z"/><path d="m119.03,292.19l-9.99.46-.12-2.14.68-.03c-.65-.48-.99-1.27-.9-2.07.03-1.98,1.63-3.58,3.62-3.61,1.94-.2,3.66,1.22,3.86,3.15,0,.03,0,.06,0,.09.06.81-.23,1.6-.79,2.18l3.51-.17.12,2.14Zm-6.51-1.91c.94,0,1.71-.75,1.72-1.69,0-.02,0-.04,0-.06,0-.89-.73-1.6-1.62-1.59-.06,0-.12,0-.18.01-.94,0-1.71.75-1.72,1.69,0,.02,0,.04,0,.06,0,.89.73,1.6,1.62,1.59.06,0,.12,0,.18-.01h0Z"/></svg>