<?xml version="1.0" encoding="UTF-8"?><svg id="Layer_1" xmlns="http://www.w3.org/2000/svg" viewBox="0 0 400 400"><defs><style>.cls-1{fill:#1f2275;}.cls-2{fill:#009245;}.cls-3,.cls-4,.cls-5,.cls-6,.cls-7,.cls-8{stroke-miterlimit:10;}.cls-3,.cls-9{fill:#fff;}.cls-3,.cls-8{stroke:#231f20;stroke-width:2px;}.cls-4{stroke:#a5262d;}.cls-4,.cls-5,.cls-6,.cls-7{stroke-width:4px;}.cls-4,.cls-5,.cls-6,.cls-7,.cls-8{fill:none;}.cls-10{fill:#57575e;}.cls-11{fill:#565959;}.cls-12{fill:#bd694f;}.cls-5{stroke:#0018c6;}.cls-13{fill:#ede6e3;}.cls-14{fill:#d9d9ea;}.cls-15{fill:#eb917f;}.cls-16{fill:#b9a1d3;}.cls-17{fill:#3a926c;}.cls-18{fill:#414343;}.cls-19{fill:#48459c;}.cls-20{fill:#434348;}.cls-21{fill:#934d36;}.cls-22{fill:#f3bd99;}.cls-6{stroke:#c000e2;}.cls-23{fill:#3392f5;}.cls-24{fill:#4d5961;}.cls-25{fill:#f4bd99;}.cls-26{fill:#c9c9c9;}.cls-27{fill:#5e6b74;}.cls-7{stroke:#00b51e;}.cls-28{fill:#b63cdb;}.cls-29{fill:#c69c6d;}.cls-30{fill:#e6e6e6;}.cls-31{fill:#baa1d3;}.cls-32{fill:#424248;}.cls-33{fill:#6e6f6e;}.cls-34{fill:#97d6e5;}.cls-35{fill:#3392f6;}.cls-36{fill:#ff1d25;}.cls-37{fill:#8622fd;}.cls-38{fill:#9dd8e6;}.cls-39{fill:#6665c6;}.cls-40{fill:#fd6220;}.cls-41{fill:#751d0a;}.cls-42{fill:#baa2d3;}.cls-43{fill:#d8ceca;}.cls-44{fill:#ede4e1;}.cls-45{fill:#4b87d4;}.cls-46{fill:#525f67;}.cls-47{fill:#69a6fe;}.cls-48{fill:#29abe2;}.cls-49{fill:#db411d;}.cls-50{fill:#754c24;}.cls-51{fill:#60acfd;}.cls-52{fill:#414242;}.cls-53{fill:#ccf2ff;isolation:isolate;opacity:.5;}.cls-54{fill:#231f20;}.cls-55{fill:#924d36;}.cls-56{fill:#c65d42;}.cls-57{fill:#914d37;}.cls-58{fill:#067fa6;}</style></defs><circle class="cls-7" cx="154.08" cy="328.61" r="40.5"/><path d="m133.83,305.84c2.03,1.67,2.32,4.67.65,6.7-.09.11-.19.22-.29.32-1.91,2.24-5.28,2.5-7.51.58-.02-.01-.03-.03-.05-.04-2.16-1.95-2.33-5.29-.38-7.45,0,0,.01-.01.02-.02,1.16-1.34,2.93-1.99,4.68-1.71l-.45,2.25c-.96-.15-1.92.23-2.52.99-1.1,1.12-1.09,2.92.03,4.02.07.07.15.14.24.21,1.26,1.17,2.97,1.08,4.32-.36.85-.74,1.07-1.98.54-2.97l-1.8,1.98-1.53-1.34,3.42-3.78.63.54v.08Z"/><path d="m143.01,302.15c1.02,1.71.47,3.92-1.24,4.94,0,0-.01,0-.02.01-.7.44-1.56.54-2.34.27l1.71,3.15-1.89.99-4.77-8.91,1.89-.99.36.63c.2-.78.72-1.43,1.44-1.8,1.81-.86,3.98-.1,4.86,1.71Zm-1.89.99c-.37-.82-1.33-1.19-2.15-.82-.06.03-.13.06-.19.1-.83.4-1.18,1.41-.77,2.24.02.03.04.07.05.1.37.82,1.33,1.19,2.15.82.06-.03.13-.06.19-.1.83-.4,1.18-1.41.77-2.24-.02-.03-.04-.07-.05-.1h0Z"/><path d="m151.11,299.45l.9,4.32-2.16.45-.81-4.05c-.05-.63-.59-1.1-1.22-1.06-.1,0-.21.03-.31.07-.67.07-1.16.68-1.09,1.35.01.13.05.25.1.36l.81,3.87-2.16.45-2.07-9.9,2.07-.45.72,3.51c.35-.7,1.03-1.17,1.8-1.26,1.46-.31,2.89.63,3.2,2.08.02.08.03.17.04.26h.18Z"/><path d="m152.73,300.17c.13-2.11,1.94-3.72,4.06-3.6s3.72,1.94,3.6,4.06-1.94,3.72-4.06,3.6c-.03,0-.06,0-.09,0-2.08-.14-3.65-1.95-3.51-4.03,0,0,0-.01,0-.02Zm5.49.45c.09-.9-.56-1.7-1.46-1.79-.02,0-.04,0-.07,0-.92-.06-1.71.62-1.8,1.53-.09.9.56,1.7,1.46,1.79.02,0,.04,0,.07,0,.87.12,1.67-.49,1.79-1.35,0-.06.01-.12.01-.18Z"/><path d="m168.66,302.87l-1.53,4.14-1.98-.81,1.44-3.87c.32-.57.11-1.29-.46-1.6-.08-.05-.17-.08-.26-.11-.69-.28-1.47.05-1.75.74-.02.05-.04.11-.05.16l-1.44,3.69-1.98-.81,2.52-6.75,1.98.81-.27.63c.69-.41,1.56-.41,2.25,0,1.35.54,2.16,1.89,1.44,3.78h.09Z"/><path d="m171.72,308.18c.41.32.93.45,1.44.36l.81,1.8c-2.16.53-4.34-.79-4.87-2.95-.27-1.09-.07-2.24.55-3.17,1.17-1.65,3.45-2.04,5.11-.88.07.05.14.1.2.16,1.6,1.17,1.95,3.43.78,5.03-.05.06-.1.13-.15.19-.16.25-.38.47-.63.63l-4.05-3.06c-.19.72.15,1.47.81,1.8v.09Zm2.61-1.35c.33-.65.09-1.44-.54-1.8-.57-.5-1.41-.5-1.98,0l2.52,1.89v-.09Z"/><path d="m181.08,320.24l-.54-.9-1.35.81-1.17-1.98,1.35-.81-2.34-3.96,1.8-1.08,7.11-.36,1.26,2.16-7.11.36,1.08,1.8,1.89-1.08,1.17,1.98-1.89,1.08.54.9-1.8,1.08Z"/><path class="cls-29" d="m143.82,311.51h20.7c2.02-.02,3.67,1.6,3.69,3.62,0,.02,0,.05,0,.07v44.2c.02,2.02-1.6,3.67-3.62,3.69-.02,0-.05,0-.07,0h-20.7c-2.02.02-3.67-1.6-3.69-3.62,0-.02,0-.05,0-.07v-44.19c-.02-2.02,1.59-3.67,3.61-3.7.03,0,.05,0,.08,0Z"/><path class="cls-50" d="m164.52,311.51h-20.7c-2.02-.02-3.67,1.6-3.69,3.62,0,.02,0,.05,0,.07v44.2l28.08-44.19c.02-2.02-1.59-3.67-3.61-3.7-.03,0-.05,0-.08,0Z"/><path class="cls-48" d="m166.05,356.51h-23.76c-.84,0-1.53-.67-1.53-1.51,0,0,0-.01,0-.02v-38.7c0-.94.77-1.71,1.71-1.71h23.58c.84,0,1.53.67,1.53,1.51,0,0,0,.01,0,.02v38.88c0,.84-.67,1.53-1.51,1.53,0,0-.01,0-.02,0Z"/><path class="cls-9" d="m157.05,313.04c-.02.29-.25.52-.54.54h-4.77c-.29-.02-.52-.25-.54-.54h0c.02-.29.25-.52.54-.54h4.77c.29.02.52.25.54.54Z"/><path class="cls-9" d="m156.06,361.37h-.45c-.31-.02-.61-.08-.9-.18-.36,0-.72-.18-1.08-.18-.43-.04-.85-.13-1.26-.27h-.18c-.18,0-.18-.18-.18-.36.05-.22.14-.44.27-.63.13-.34.28-.67.45-.99.09-.18.27-.45.36-.63.18-.3.57-.39.86-.22.09.05.16.13.22.22.09.09.18.27.36.45.18.36.45.63.63.99l1.08,1.62v.18c0,.18,0,.27-.18.27v-.27Z"/><path class="cls-36" d="m156.24,328.34h-.45c-.34-.02-.67-.08-.99-.18-.4-.05-.79-.14-1.17-.27-.46-.05-.91-.14-1.35-.27h-.18c-.18,0-.18-.18-.18-.36s.18-.45.27-.63c.18-.36.27-.72.45-1.08.1-.22.22-.43.36-.63.22-.32.67-.4.99-.18.07.05.13.11.18.18.14.13.26.28.36.45.24.34.45.7.63,1.08.36.54.72,1.17,1.08,1.71v.18c0,.18,0,.27-.18.27l.18-.27Z"/><path class="cls-36" d="m157.05,320.15h.18c.18,0,.18.09.18.27s-.09.18-.18.27c-.45.54-.81,1.08-1.26,1.53-.36.47-.75.92-1.17,1.35-.2.2-.45.35-.72.45-.31.04-.63-.03-.9-.18-.17-.11-.29-.26-.36-.45-.36-.54-.72-1.08-1.08-1.71-.13-.25-.28-.49-.45-.72h0c-.09-.18,0-.27.18-.27.75-.02,1.5-.08,2.25-.18.66-.02,1.32-.08,1.98-.18h1.44l-.09-.18Z"/><path d="m152.73,344.63v1.98h-.81v1.26h-2.16v-1.26h-3.69v-1.98l2.52-5.13h2.43l-2.52,5.22h1.35v-1.52h2.16v1.53h.81l-.09-.1Z"/><path d="m161.91,343.01v.9c.07,1.11-.36,2.2-1.17,2.97-.81.8-1.92,1.23-3.06,1.17-1.2.02-2.37-.43-3.24-1.26-.83-.84-1.28-1.97-1.26-3.15,0-1.17.45-2.3,1.26-3.15.84-.83,1.97-1.28,3.15-1.26.76-.08,1.52.11,2.16.54.63.33,1.16.83,1.53,1.44l-1.8,1.08c-.2-.26-.44-.47-.72-.63-.33-.18-.7-.28-1.08-.27-1.27.03-2.27,1.08-2.25,2.34.01.57.24,1.11.63,1.53.47.49,1.12.75,1.8.72.81.04,1.58-.38,1.98-1.08h-2.07v-1.89h4.14Z"/><polygon class="cls-53" points="143.01 356.51 143.01 314.48 165.33 314.48 143.01 356.51"/><circle class="cls-7" cx="60.24" cy="328.61" r="40.5"/><path d="m39.72,304.85c1.9,1.5,2.23,4.25.73,6.16-.11.15-.24.28-.37.41-1.68,2.08-4.73,2.4-6.81.72-.07-.06-.14-.12-.21-.18-2.06-1.85-2.23-5.03-.38-7.09,1.07-1.19,2.65-1.8,4.25-1.64l-.45,2.07c-.89-.09-1.77.27-2.34.96-1.02,1.08-.98,2.79.11,3.82.05.05.11.1.16.14,1.08,1.03,2.79.99,3.82-.08.08-.09.16-.18.23-.28.77-.71.99-1.84.54-2.79l-1.71,1.89-1.44-1.26,3.15-3.51.63.54.09.12Z"/><path d="m48.09,301.16c1.02,1.57.57,3.66-.99,4.68-.64.43-1.44.53-2.16.27l1.71,2.88-1.71.99-4.77-8.19,1.71-.99.36.54c.16-.75.66-1.38,1.35-1.71,1.67-.87,3.72-.22,4.59,1.44l-.09.09Zm-1.71.99c-.39-.78-1.35-1.09-2.13-.7-.04.02-.08.04-.12.07-.75.38-1.05,1.3-.67,2.05.04.07.08.14.13.2.39.78,1.35,1.09,2.13.7.04-.02.08-.04.12-.07.75-.38,1.05-1.3.67-2.05-.04-.07-.08-.14-.13-.2h0Z"/><path d="m55.56,298.28l.99,4.05-1.98.54-.99-3.69c-.07-.6-.61-1.02-1.21-.95-.08,0-.16.03-.23.05-.66.13-1.09.77-.95,1.43.01.07.03.13.05.19l.9,3.6-1.98.54-2.34-9.18,1.98-.54.81,3.24c.32-.64.92-1.11,1.62-1.26,1.32-.38,2.69.38,3.07,1.7.03.12.06.24.08.37l.18-.09Z"/><path d="m57.09,298.91c0-1.99,1.61-3.6,3.6-3.6,1.99,0,3.6,1.61,3.6,3.6,0,1.99-1.61,3.6-3.6,3.6-.03,0-.06,0-.09,0-1.95-.01-3.53-1.61-3.51-3.56,0-.01,0-.02,0-.04Zm5.13,0c.07-.82-.54-1.55-1.36-1.62-.06,0-.11,0-.17,0-.87-.02-1.59.66-1.62,1.53-.07.82.54,1.55,1.36,1.62.06,0,.11,0,.17,0,.87.02,1.59-.66,1.62-1.53Z"/><path d="m72.21,300.35l-1.17,3.96-1.98-.54,1.08-3.69c.24-.57-.02-1.22-.59-1.46-.07-.03-.14-.05-.22-.07-.62-.24-1.31.07-1.55.69-.04.1-.06.2-.07.3l-.99,3.51-1.98-.54,1.89-6.48,1.98.54-.18.63c.61-.42,1.38-.52,2.07-.27,1.35.36,2.16,1.62,1.62,3.42h.09Z"/><path d="m75.54,305.03c.4.25.88.35,1.35.27l.9,1.62c-1.96.68-4.1-.35-4.78-2.3-.36-1.02-.26-2.15.28-3.1.96-1.64,3.06-2.2,4.7-1.24.09.05.17.1.25.16,1.6.99,2.09,3.08,1.11,4.68-.04.06-.08.12-.12.18-.16.23-.34.44-.54.63l-4.05-2.52c-.13.69.25,1.36.9,1.62Zm2.34-1.44c.24-.81-.23-1.66-1.04-1.9-.48-.14-1-.04-1.39.28l2.43,1.53v.09Z"/><path d="m86.34,313.85c-1.38,1.06-3.35.81-4.42-.57-.06-.08-.12-.16-.17-.24-.96-1.07-1.11-2.64-.36-3.87l1.98.81c-.41.53-.41,1.27,0,1.8.54.72,1.17.72,1.62.36.45-.33.54-.96.21-1.41-.06-.08-.13-.15-.21-.21l-.27-.36.45-1.44h2.79l-2.07-2.7,1.62-1.26,3.69,4.86-1.44,1.08h-2.61c.44,1.13.08,2.42-.9,3.15h.09Z"/><path class="cls-28" d="m49.98,311.51h20.7c2.02-.02,3.67,1.6,3.69,3.62,0,.02,0,.05,0,.07v44.16c.02,2.02-1.6,3.67-3.62,3.69-.02,0-.05,0-.07,0h-20.7c-2.02.02-3.67-1.6-3.69-3.62,0-.02,0-.05,0-.07v-44.19c0-2.02,1.63-3.66,3.64-3.66.02,0,.03,0,.05,0Z"/><path class="cls-37" d="m70.68,311.51h-20.7c-2.02-.02-3.67,1.6-3.69,3.62,0,.02,0,.05,0,.07v44.16l28.08-44.19c0-2.02-1.63-3.66-3.64-3.66-.02,0-.03,0-.05,0Z"/><rect class="cls-17" x="49.17" y="314.48" width="22.32" height="42.03"/><path class="cls-9" d="m63.21,313.04c-.02.29-.25.52-.54.54h-4.77c-.29-.02-.52-.25-.54-.54h0c.02-.29.25-.52.54-.54h4.77c.29.02.52.25.54.54Z"/><path class="cls-9" d="m62.22,361.37h-.45c-.31-.02-.61-.08-.9-.18-.36,0-.72-.18-1.08-.18-.43-.04-.85-.13-1.26-.27h-.18c-.18,0-.18-.18-.18-.36.05-.22.14-.44.27-.63.13-.34.28-.67.45-.99.09-.18.27-.45.36-.63.18-.3.57-.39.86-.22.09.05.16.13.22.22.09.09.18.27.36.45.18.36.45.63.63.99l1.08,1.62v.18c0,.18,0,.27-.18.27v-.27Z"/><path class="cls-36" d="m62.4,328.34h-.45c-.34-.02-.67-.08-.99-.18-.4-.05-.79-.14-1.17-.27-.46-.05-.91-.14-1.35-.27h-.18c-.18,0-.18-.18-.18-.36s.18-.45.27-.63c.18-.36.27-.72.45-1.08.1-.22.22-.43.36-.63.22-.32.67-.4.99-.18.07.05.13.11.18.18.14.13.26.28.36.45.24.34.45.7.63,1.08.36.54.72,1.17,1.08,1.71v.18c0,.18,0,.27-.18.27l.18-.27Z"/><path class="cls-36" d="m63.21,320.15h.18c.18,0,.18.09.18.27s-.09.18-.18.27c-.45.54-.81,1.08-1.26,1.53-.36.47-.75.92-1.17,1.35-.2.2-.45.35-.72.45-.31.04-.63-.03-.9-.18-.17-.11-.29-.26-.36-.45-.36-.54-.72-1.08-1.08-1.71-.13-.25-.28-.49-.45-.72h0c-.09-.18,0-.27.18-.27.75-.02,1.5-.08,2.25-.18.66-.02,1.32-.08,1.98-.18h1.44l-.09-.18Z"/><path d="m56.73,342.92c.52.14.96.46,1.26.9.28.43.44.93.45,1.44.07.8-.27,1.58-.9,2.07-.63.46-1.38.72-2.16.72-.66.01-1.31-.14-1.89-.45-.53-.35-.94-.85-1.17-1.44l1.89-1.08c.09.56.6.95,1.17.9.63,0,.54,0,.72-.18.16-.14.26-.33.27-.54,0-.18,0-.45-.27-.54s-.36-.18-.72-.18h-.45l-.81-1.26,1.35-1.62h-2.79v-2.1h5.49v1.71l-1.44,1.71v-.06Z"/><path d="m67.89,343.01v.9c.07,1.11-.36,2.2-1.17,2.97-.81.8-1.92,1.23-3.06,1.17-1.2.02-2.37-.43-3.24-1.26-.83-.84-1.28-1.97-1.26-3.15,0-1.17.45-2.3,1.26-3.15.84-.83,1.97-1.28,3.15-1.26.76-.08,1.52.11,2.16.54.63.33,1.16.83,1.53,1.44l-1.8,1.08c-.2-.26-.44-.47-.72-.63-.33-.18-.7-.28-1.08-.27-1.27.03-2.27,1.08-2.25,2.34.01.57.24,1.11.63,1.53.47.49,1.12.75,1.8.72.81.04,1.58-.38,1.98-1.08h-2.07v-1.89h4.14Z"/><polygon class="cls-53" points="49.17 356.51 49.17 314.48 71.49 314.48 49.17 356.51"/><circle class="cls-7" cx="341.76" cy="328.61" r="40.5"/><path d="m321.51,306.29c2.03,1.67,2.32,4.67.65,6.7-.09.11-.19.22-.29.32-1.91,2.24-5.28,2.5-7.51.58-.02-.01-.03-.03-.05-.04-2.16-1.95-2.33-5.29-.38-7.45,0,0,.01-.01.02-.02,1.16-1.34,2.93-1.99,4.68-1.71l-.45,2.25c-.96-.15-1.92.23-2.52.99-1.1,1.12-1.09,2.92.03,4.02.07.07.15.14.24.21,1.26,1.17,2.97,1.08,4.32-.36.85-.74,1.07-1.98.54-2.97l-1.8,1.98-1.53-1.35,3.42-3.78.63.54v.09Z"/><path d="m330.69,302.6c1.02,1.71.47,3.92-1.24,4.94,0,0-.01,0-.02.01-.7.44-1.56.54-2.34.27l1.71,3.15-1.89.99-4.77-8.91,1.89-.99.36.63c.2-.78.72-1.43,1.44-1.8,1.81-.86,3.98-.1,4.86,1.71Zm-1.89.99c-.37-.82-1.33-1.19-2.15-.82-.06.03-.13.06-.19.1-.83.4-1.18,1.41-.77,2.24.02.03.04.07.05.1.37.82,1.33,1.19,2.15.82.06-.03.13-.06.19-.1.83-.4,1.18-1.41.77-2.24-.02-.03-.04-.07-.05-.1h0Z"/><path d="m338.79,299.99l.9,4.32-2.16.45-.81-4.05c-.05-.63-.59-1.1-1.22-1.06-.1,0-.21.03-.31.07-.67.07-1.16.68-1.09,1.35.01.13.05.25.1.36l.81,3.87-2.07.45-2.07-9.9,2.07-.45.72,3.51c.35-.7,1.03-1.17,1.8-1.26,1.46-.31,2.89.63,3.2,2.08.02.08.03.17.04.26h.09Z"/><path d="m340.41,300.62c.13-2.11,1.94-3.72,4.06-3.6s3.72,1.94,3.6,4.06-1.94,3.72-4.06,3.6c-.03,0-.06,0-.09,0-2.08-.14-3.65-1.95-3.51-4.03,0,0,0-.01,0-.02Zm5.49.45c.09-.9-.56-1.7-1.46-1.79-.02,0-.04,0-.07,0-.92-.06-1.71.62-1.8,1.53-.09.9.56,1.7,1.46,1.79.02,0,.04,0,.07,0,.92.06,1.71-.62,1.8-1.53Z"/><path d="m356.34,303.32l-1.53,4.14-1.98-.81,1.44-3.87c.32-.57.11-1.29-.46-1.6-.08-.05-.17-.08-.26-.11-.69-.28-1.47.05-1.75.74-.02.05-.04.11-.05.16l-1.44,3.69-1.98-.81,2.52-6.75,1.98.81-.27.63c.69-.41,1.56-.41,2.25,0,1.35.54,2.16,1.89,1.44,3.78h.09Z"/><path d="m359.4,308.63c.41.32.93.45,1.44.36l.81,1.8c-2.16.53-4.34-.79-4.87-2.95-.27-1.09-.07-2.24.55-3.17,1.17-1.65,3.45-2.04,5.11-.88.07.05.14.1.2.16,1.6,1.17,1.95,3.43.78,5.03-.05.06-.1.13-.15.19-.16.25-.38.47-.63.63l-4.05-3.06c-.19.72.15,1.47.81,1.8v.09Zm2.61-1.35c.33-.65.09-1.44-.54-1.8-.57-.5-1.41-.5-1.98,0l2.52,1.89v-.09Z"/><path d="m370.11,319.43c-1.82.98-4.1.3-5.09-1.52-.94-1.74-.37-3.91,1.31-4.96.63-.36,1.34-.54,2.07-.54l5.58.27,1.35,2.25-3.87-.27c.93,1.64.35,3.72-1.29,4.65-.02.01-.04.02-.06.03v.09Zm-1.17-1.98c.66-.37.89-1.2.52-1.86-.02-.04-.05-.08-.07-.12-.34-.66-1.14-.92-1.8-.59-.03.02-.06.03-.09.05-.65.32-.91,1.1-.6,1.75.04.08.09.16.15.23.34.66,1.14.92,1.8.59.03-.02.06-.03.09-.05Z"/><path class="cls-56" d="m331.5,311.51h20.7c2.02-.02,3.67,1.6,3.69,3.62,0,.02,0,.05,0,.07v44.19c.02,2.02-1.6,3.67-3.62,3.69-.02,0-.05,0-.07,0h-20.7c-2.02.02-3.67-1.6-3.69-3.62,0-.02,0-.05,0-.07v-44.19c-.02-2.02,1.6-3.67,3.62-3.69.02,0,.05,0,.07,0Z"/><path class="cls-41" d="m352.2,311.51h-20.7c-2.02-.02-3.67,1.6-3.69,3.62,0,.02,0,.05,0,.07v44.19l28.08-44.19c.02-2.02-1.6-3.67-3.62-3.69-.02,0-.05,0-.07,0Z"/><path class="cls-48" d="m353.73,356.51h-23.76c-.85,0-1.54-.7-1.53-1.55,0-.02,0-.05,0-.07v-39.78c0-.96.75-1.75,1.71-1.8h23.58c.85,0,1.54.7,1.53,1.55,0,.02,0,.05,0,.07v39.96c.02.87-.66,1.59-1.53,1.62Z"/><path class="cls-9" d="m343.74,361.37h-.45c-.31-.02-.61-.08-.9-.18-.36,0-.72-.18-1.08-.18-.43-.04-.85-.13-1.26-.27h-.18c-.18,0-.18-.18-.18-.36.05-.22.14-.44.27-.63.13-.34.28-.67.45-.99.09-.18.27-.45.36-.63.18-.3.57-.39.86-.22.09.05.16.13.22.22.09.09.18.27.36.45.18.36.45.63.63.99l1.08,1.62v.18c0,.18,0,.27-.18.27v-.27Z"/><path class="cls-36" d="m343.92,328.34h-.45c-.34-.02-.67-.08-.99-.18-.4-.05-.79-.14-1.17-.27-.46-.05-.91-.14-1.35-.27h-.18c-.18,0-.18-.18-.18-.36s.18-.45.27-.63c.18-.36.27-.72.45-1.08.1-.22.22-.43.36-.63.22-.32.67-.4.99-.18.07.05.13.11.18.18.14.13.26.28.36.45.24.34.45.7.63,1.08.36.54.72,1.17,1.08,1.71v.18c0,.18,0,.27-.18.27l.18-.27Z"/><path class="cls-36" d="m344.73,320.15h.18c.18,0,.18.09.18.27s-.09.18-.18.27c-.45.54-.81,1.08-1.26,1.53-.36.47-.75.92-1.17,1.35-.2.2-.45.35-.72.45-.31.04-.63-.03-.9-.18-.17-.11-.29-.26-.36-.45-.36-.54-.72-1.08-1.08-1.71-.13-.25-.28-.49-.45-.72h0c-.09-.18,0-.27.18-.27.75-.02,1.5-.08,2.25-.18.66-.02,1.32-.08,1.98-.18h1.44l-.09-.18Z"/><path d="m340.41,344.63v1.98h-.81v1.26h-2.16v-1.26h-3.69v-1.98l2.52-5.13h2.43l-2.52,5.22h1.35v-1.53h2.16v1.53h.81l-.09-.09Z"/><path d="m349.59,343.01v.9c.07,1.11-.36,2.2-1.17,2.97-.81.8-1.92,1.23-3.06,1.17-1.2.02-2.37-.43-3.24-1.26-.83-.84-1.28-1.97-1.26-3.15,0-1.17.45-2.3,1.26-3.15.84-.83,1.97-1.28,3.15-1.26.76-.08,1.52.11,2.16.54.63.33,1.16.83,1.53,1.44l-1.8,1.08c-.2-.26-.44-.47-.72-.63-.33-.18-.7-.28-1.08-.27-1.27.03-2.27,1.08-2.25,2.34.01.57.24,1.11.63,1.53.47.49,1.12.75,1.8.72.81.04,1.58-.38,1.98-1.08h-2.07v-1.89h4.14Z"/><path class="cls-53" d="m329.61,354.26c-.21.34-.66.45-1,.24-.21-.13-.34-.35-.35-.6v-38.79c-.03-.91.69-1.68,1.6-1.71.04,0,.07,0,.11,0h23.76c.46,0,.84.38.83.84,0,.15-.04.29-.11.42l-24.84,39.69v-.09Z"/><polyline class="cls-41" points="345.36 315.11 337.89 315.11 336.36 311.51 347.07 311.51"/><path class="cls-9" d="m344.73,313.94c-.02.29-.25.52-.54.54h-4.77c-.29-.02-.52-.25-.54-.54h0c.02-.29.25-.52.54-.54h4.77c.29.02.52.25.54.54Z"/><circle class="cls-7" cx="247.92" cy="328.61" r="40.5"/><path d="m227.67,305.93c2.03,1.67,2.32,4.67.65,6.7-.09.11-.19.22-.29.32-1.91,2.24-5.28,2.5-7.51.58-.02-.01-.03-.03-.05-.04-2.16-1.95-2.33-5.29-.38-7.45,0,0,.01-.01.02-.02,1.16-1.34,2.93-1.99,4.68-1.71l-.45,2.25c-.96-.15-1.92.23-2.52.99-1.1,1.12-1.09,2.92.03,4.02.07.07.15.14.24.21,1.26,1.17,2.97,1.08,4.32-.36.85-.74,1.07-1.98.54-2.97l-1.8,1.98-1.53-1.35,3.42-3.78.63.54v.09Z"/><path d="m236.85,302.24c1.02,1.71.47,3.92-1.24,4.94,0,0-.01,0-.02.01-.7.44-1.56.54-2.34.27l1.71,3.15-1.89.99-4.77-8.91,1.89-.99.36.63c.2-.78.72-1.43,1.44-1.8,1.81-.86,3.98-.1,4.86,1.71Zm-1.89.99c-.37-.82-1.33-1.19-2.15-.82-.06.03-.13.06-.19.1-.83.4-1.18,1.41-.77,2.24.02.03.04.07.05.1.37.82,1.33,1.19,2.15.82.06-.03.13-.06.19-.1.83-.4,1.18-1.41.77-2.24-.02-.03-.04-.07-.05-.1h0Z"/><path d="m244.95,299.63l.9,4.32-2.16.45-.81-4.05c-.05-.63-.59-1.1-1.22-1.06-.1,0-.21.03-.31.07-.67.07-1.16.68-1.09,1.35.01.13.05.25.1.36l.81,3.87-2.16.45-2.07-9.9,2.16-.45.72,3.51c.35-.7,1.03-1.17,1.8-1.26,1.46-.31,2.89.63,3.2,2.08.02.08.03.17.04.26h.09Z"/><path d="m246.57,300.26c.13-2.11,1.94-3.72,4.06-3.6s3.72,1.94,3.6,4.06-1.94,3.72-4.06,3.6c-.03,0-.06,0-.09,0-2.08-.14-3.65-1.95-3.51-4.03,0,0,0-.01,0-.02Zm5.49.45c.09-.9-.56-1.7-1.46-1.79-.02,0-.04,0-.07,0-.92-.06-1.71.62-1.8,1.53-.09.9.56,1.7,1.46,1.79.02,0,.04,0,.07,0,.92.06,1.71-.62,1.8-1.53Z"/><path d="m262.5,302.96l-1.53,4.14-1.98-.81,1.44-3.87c.32-.57.11-1.29-.46-1.6-.08-.05-.17-.08-.26-.11-.69-.28-1.47.05-1.75.74-.02.05-.04.11-.05.16l-1.44,3.69-1.98-.81,2.52-6.75,1.98.81-.27.63c.69-.41,1.56-.41,2.25,0,1.35.54,2.16,1.89,1.44,3.78h.09Z"/><path d="m265.56,308.36c.41.32.93.45,1.44.36l.81,1.8c-2.16.53-4.34-.79-4.87-2.95-.27-1.09-.07-2.24.55-3.17,1.17-1.65,3.45-2.04,5.11-.88.07.05.14.1.2.16,1.6,1.17,1.95,3.43.78,5.03-.05.06-.1.13-.15.19-.16.25-.38.47-.63.63l-4.05-3.06c-.19.72.15,1.47.81,1.8v.09Zm2.61-1.35c.33-.65.09-1.44-.54-1.8-.57-.5-1.41-.5-1.98,0l2.52,1.89v-.09Z"/><path d="m276,318.98c-1.89,1.17-3.78.18-4.77-1.44-.86-1.28-.86-2.95,0-4.23l1.98,1.17c-.48.53-.52,1.32-.09,1.89.23.6.9.91,1.51.68.04-.01.07-.03.11-.05.54-.36.72-.9.27-1.71l-1.62-2.7,5.22-2.61,2.97,5.04-1.89,1.08-1.89-3.15-1.26.63.45.72c1.02,1.4.72,3.37-.68,4.39-.15.11-.31.21-.49.29h.18Z"/><path class="cls-39" d="m237.66,311.51h20.7c2.02-.02,3.67,1.6,3.69,3.62,0,.02,0,.05,0,.07v44.19c.02,2.02-1.6,3.67-3.62,3.69-.02,0-.05,0-.07,0h-20.7c-2.02.02-3.67-1.6-3.69-3.62,0-.02,0-.05,0-.07v-44.19c-.02-2.02,1.6-3.67,3.62-3.69.02,0,.05,0,.07,0Z"/><path class="cls-1" d="m258.36,311.51h-20.7c-2.02-.02-3.67,1.6-3.69,3.62,0,.02,0,.05,0,.07v44.19l28.08-44.19c.02-2.02-1.6-3.67-3.62-3.69-.02,0-.05,0-.07,0Z"/><path class="cls-17" d="m259.89,356.51h-23.76c-.85,0-1.54-.7-1.53-1.55,0-.02,0-.05,0-.07v-39.78c0-.96.75-1.75,1.71-1.8h23.58c.85,0,1.54.7,1.53,1.55,0,.02,0,.05,0,.07v39.96c.02.87-.66,1.59-1.53,1.62Z"/><path class="cls-9" d="m249.9,361.37h-.45c-.31-.02-.61-.08-.9-.18-.36,0-.72-.18-1.08-.18-.43-.04-.85-.13-1.26-.27h-.18c-.18,0-.18-.18-.18-.36.05-.22.14-.44.27-.63.13-.34.28-.67.45-.99.09-.18.27-.45.36-.63.18-.3.57-.39.86-.22.09.05.16.13.22.22.09.09.18.27.36.45.18.36.45.63.63.99l1.08,1.62v.18c0,.18,0,.27-.18.27v-.27Z"/><path class="cls-36" d="m250.08,328.34h-.45c-.34-.02-.67-.08-.99-.18-.4-.05-.79-.14-1.17-.27-.46-.05-.91-.14-1.35-.27h-.18c-.18,0-.18-.18-.18-.36s.18-.45.27-.63c.18-.36.27-.72.45-1.08.1-.22.22-.43.36-.63.22-.32.67-.4.99-.18.07.05.13.11.18.18.14.13.26.28.36.45.24.34.45.7.63,1.08.36.54.72,1.17,1.08,1.71v.18c0,.18,0,.27-.18.27l.18-.27Z"/><path class="cls-36" d="m250.89,320.15h.18c.18,0,.18.09.18.27s-.09.18-.18.27c-.45.54-.81,1.08-1.26,1.53-.36.47-.75.92-1.17,1.35-.2.2-.45.35-.72.45-.31.04-.63-.03-.9-.18-.17-.11-.29-.26-.36-.45-.36-.54-.72-1.08-1.08-1.71-.13-.25-.28-.49-.45-.72h0c-.09-.18,0-.27.18-.27.75-.02,1.5-.08,2.25-.18.66-.02,1.32-.08,1.98-.18h1.44l-.09-.18Z"/><path d="m244.41,342.92c.52.14.96.46,1.26.9.32.41.48.92.45,1.44.07.8-.27,1.58-.9,2.07-.65.48-1.44.73-2.25.72-.66.02-1.31-.13-1.89-.45-.53-.35-.94-.85-1.17-1.44l1.89-1.08c.09.56.6.95,1.17.9.63,0,.54,0,.72-.18.16-.14.26-.33.27-.54,0-.18,0-.45-.27-.54-.22-.11-.47-.17-.72-.18h-.45l-.81-1.26,1.35-1.62h-2.79v-2.07h5.49v1.71l-1.44,1.71.09-.09Z"/><path d="m255.57,343.01v.9c.07,1.11-.36,2.2-1.17,2.97-.81.8-1.92,1.23-3.06,1.17-1.2.02-2.37-.43-3.24-1.26-.83-.84-1.28-1.97-1.26-3.15,0-1.17.45-2.3,1.26-3.15.84-.83,1.97-1.28,3.15-1.26.76-.08,1.52.11,2.16.54.63.33,1.16.83,1.53,1.44l-1.8,1.08c-.2-.26-.44-.47-.72-.63-.33-.18-.7-.28-1.08-.27-1.27.03-2.27,1.08-2.25,2.34.01.57.24,1.11.63,1.53.47.49,1.12.75,1.8.72.81.04,1.58-.38,1.98-1.08h-2.07v-1.89h4.14Z"/><path class="cls-53" d="m235.77,354.26c-.21.34-.66.45-1,.24-.21-.13-.34-.35-.35-.6v-38.79c-.03-.91.69-1.68,1.6-1.71.04,0,.07,0,.11,0h23.76c.46,0,.84.38.83.84,0,.15-.04.29-.11.42l-24.84,39.69v-.09Z"/><polyline class="cls-1" points="251.52 315.11 244.05 315.11 242.52 311.51 253.23 311.51"/><path class="cls-9" d="m250.89,313.94c-.02.29-.25.52-.54.54h-4.77c-.29-.02-.52-.25-.54-.54h0c.02-.29.25-.52.54-.54h4.77c.29.02.52.25.54.54Z"/><line class="cls-9" x1="181.05" y1="142.9" x2="158.95" y2="118.7"/><line class="cls-8" x1="173.79" y1="134.96" x2="158.95" y2="118.7"/><polygon class="cls-54" points="177.84 128.3 181.05 142.9 166.8 138.38 177.84 128.3"/><line class="cls-9" x1="243.05" y1="118.7" x2="220.95" y2="142.9"/><line class="cls-8" x1="243.05" y1="118.7" x2="228.21" y2="134.96"/><polygon class="cls-54" points="224.16 128.3 220.95 142.9 235.2 138.38 224.16 128.3"/><circle class="cls-4" cx="275.2" cy="75.89" r="45"/><path class="cls-12" d="m289.2,111.29h-26c0-.2-.2-.2-.4-.3-1.28-.49-2.13-1.73-2.1-3.1v-44.6c.01-1.02.49-1.98,1.3-2.6.4-.3.9-.3,1.2-.8h26c2.2.8,2.9,1.8,2.9,4.2v43.8c-.04,1.41-.9,2.66-2.2,3.2-.27-.04-.54.08-.7.3v-.1Zm-14-2c7.18,0,13-5.82,13-13s-5.82-13-13-13-13,5.82-13,13v.2c0,7.07,5.74,12.81,12.82,12.8.06,0,.12,0,.18,0Zm0-47.2c-5.11.03-9.23,4.19-9.2,9.3.03,5.11,4.19,9.23,9.3,9.2,5.11-.03,9.23-4.19,9.2-9.3-.03-5.07-4.13-9.17-9.2-9.2h-.1Zm7.3,19.3c-.03,1.92,1.48,3.52,3.4,3.6h0c1.95-.01,3.52-1.61,3.5-3.56,0-.05,0-.1,0-.14-.05-1.87-1.53-3.4-3.4-3.5-1.96.06-3.54,1.64-3.6,3.6h.1Zm-18.5,25.8c-.03-.85-.75-1.52-1.6-1.5-.81.05-1.45.69-1.5,1.5-.06.88.62,1.64,1.5,1.7s1.64-.62,1.7-1.5h0v-.2h-.1Zm-1.6-41.7c.85.02,1.57-.65,1.6-1.5h0c.06-.88-.62-1.64-1.5-1.7s-1.64.62-1.7,1.5h0v.2c-.02.85.65,1.57,1.5,1.6h0l.1-.1Zm25.4,0c.82-.02,1.48-.68,1.5-1.5h0c-.03-.86-.74-1.53-1.6-1.5-.86.03-1.53.74-1.5,1.6h0c.02.82.68,1.48,1.5,1.5h0l.1-.1Zm0,40.1c-.82-.03-1.52.58-1.6,1.4h0c-.03.86.64,1.57,1.5,1.6.86.03,1.57-.64,1.6-1.5.03-.85-.64-1.57-1.5-1.6h0v.1Z"/><path class="cls-21" d="m261.2,111.29c-.92-.2-1.74-.74-2.3-1.5-.42-.58-.67-1.28-.7-2v-44c-.1-1.41.59-2.76,1.8-3.5.4-.2.7-.3,1.1-.5h1.9c-.3.4-.8.5-1.2.8-.81.62-1.29,1.58-1.3,2.6v44.6c-.03,1.37.82,2.61,2.1,3.1.1,0,.4,0,.4.3h-1.9l.1.1Z"/><path class="cls-31" d="m300.9,72.09c-.3.33-.76.49-1.2.4h-3.8c-.6,0-.9-.2-.9-.7s.3-.8.9-.8h4.1c.37,0,.71.19.9.5v.6Z"/><path class="cls-42" d="m249.5,96.49c.27-.32.69-.47,1.1-.4h3.9c.6,0,.9.2.9.7s-.3.8-.9.8h-4.1c-.37,0-.71-.19-.9-.5v-.6Z"/><path class="cls-42" d="m300.9,97.09c-.29.3-.68.48-1.1.5h-4.3c-.36-.08-.58-.43-.5-.79,0,0,0,0,0-.01.02-.32.28-.58.6-.6h4.5c.3,0,.4.3.7.4v.6l.1-.1Z"/><path class="cls-31" d="m249.5,71.49c.25-.36.67-.55,1.1-.5h4.2c.35.06.58.4.51.75,0,.02,0,.04-.01.05.01.32-.24.59-.56.6-.01,0-.03,0-.04,0h-4.5c-.3,0-.4-.3-.7-.4v-.5h0Z"/><path class="cls-57" d="m275.2,109.29c-7.12-.06-12.85-5.88-12.8-13,.06-7.12,5.88-12.85,13-12.8,7.12.06,12.85,5.88,12.8,13-.05,7.05-5.75,12.74-12.8,12.8h-.2Zm11.1-10.1h0c.41-1.53.48-3.14.2-4.7-1.02-6.23-6.87-10.47-13.1-9.5h-.4c-3.32.57-6.19,2.64-7.8,5.6-.55.88-.93,1.87-1.1,2.9h0c-.36,1.4-.43,2.87-.2,4.3.5,3.72,2.78,6.96,6.1,8.7,1.37.7,2.87,1.11,4.4,1.2,1.21.12,2.44-.02,3.6-.4.24.02.48-.02.7-.1,2.75-.83,5.08-2.7,6.5-5.2.6-.91,1.01-1.93,1.2-3l-.1.2Z"/><path class="cls-55" d="m275.2,62.09c5.14,0,9.3,4.16,9.3,9.3s-4.16,9.3-9.3,9.3-9.3-4.16-9.3-9.3c.03-5.12,4.18-9.27,9.3-9.3Zm-1.2,1.6c-1.95.3-3.7,1.33-4.9,2.9-.88,1-1.41,2.27-1.5,3.6-.2.65-.2,1.35,0,2,.29,2.87,2.19,5.31,4.9,6.3,1.25.58,2.66.72,4,.4h.6c3.04-.78,5.32-3.3,5.8-6.4.2-.82.2-1.68,0-2.5-.7-4.18-4.61-7.03-8.8-6.4h0l-.1.1Z"/><path class="cls-55" d="m282.5,81.39c-.2-2.1,1.9-3.6,3.6-3.6,1.95.07,3.47,1.7,3.41,3.65,0,.05,0,.1,0,.15-.03,1.9-1.6,3.42-3.5,3.4-1.96-.03-3.52-1.64-3.5-3.6h0Zm3.5,2.1c1.16,0,2.09-.94,2.1-2.1h0c-.08-1.13-.97-2.02-2.1-2.1-1.12.05-2.01.98-2,2.1-.04,1.06.78,1.95,1.84,2,.02,0,.04,0,.06,0h0l.1.1Z"/><path class="cls-44" d="m264.1,107.19c.03.86-.64,1.57-1.5,1.6s-1.57-.64-1.6-1.5v-.2c.05-.88.8-1.55,1.67-1.5,0,0,.02,0,.03,0,.81.05,1.45.69,1.5,1.5l-.1.1Z"/><path class="cls-44" d="m262.5,65.49c-.81.02-1.48-.63-1.5-1.44,0-.02,0-.04,0-.06h0c-.03-.86.64-1.57,1.5-1.6.86-.03,1.57.64,1.6,1.5v.2c-.02.82-.68,1.48-1.5,1.5h0l-.1-.1Z"/><path class="cls-44" d="m287.9,65.49c-.84,0-1.54-.66-1.6-1.5h0c0-.88.72-1.6,1.6-1.6s1.6.72,1.6,1.6h0c-.05.83-.68,1.5-1.5,1.6h0l-.1-.1Z"/><path class="cls-44" d="m287.9,105.69c.82.02,1.48.68,1.5,1.5h0c-.03.86-.74,1.53-1.6,1.5s-1.53-.74-1.5-1.6h0c.02-.82.68-1.48,1.5-1.5h0l.1.1Z"/><path class="cls-31" d="m298.9,64.79c-.01.23-.12.45-.3.6l-2.7,2.7c-.28.33-.77.37-1.1.1h0c-.3-.3-.3-.7.1-1.1l2.7-2.7c.23-.32.67-.41,1-.2.27.12.44.4.4.7l-.1-.1Z"/><path class="cls-16" d="m295.3,100.39c.24-.03.48.09.6.3l2.7,2.7c.3.22.36.65.14.95-.01.02-.03.03-.04.05l-.1.1c-.3.3-.8.3-1.1,0h0c-.9-.9-1.8-1.9-2.8-2.8-.21-.21-.29-.52-.2-.8.08-.3.4-.48.7-.4h0s.1-.1.1-.1Z"/><path class="cls-16" d="m298.9,78.98c0,.29-.21.54-.5.6-.31.08-.65,0-.9-.2l-2.4-2.4-.5-.5c-.28-.25-.3-.67-.05-.95.02-.02.04-.04.05-.05h0c.18-.25.53-.3.78-.12.04.03.08.07.12.12h0l2.9,2.9c.13.14.2.31.2.5l.3.1Z"/><path class="cls-16" d="m298.9,89.69c0,.24-.11.46-.3.6l-2.7,2.7c-.24.31-.66.39-1,.2h0c-.28-.25-.3-.67-.05-.95.02-.02.04-.04.05-.05l.1-.1,2.8-2.8c.21-.21.52-.29.8-.2.25.09.41.34.4.6h-.1Z"/><path class="cls-31" d="m255.9,67.59c-.03.28-.17.53-.4.7-.31.08-.65,0-.9-.2l-2.3-2.3c-.2-.17-.36-.38-.5-.6-.28-.25-.3-.67-.05-.95.02-.02.04-.04.05-.05h0c.25-.28.67-.3.95-.05.02.02.04.03.05.05h0c.46.41.89.84,1.3,1.3.4.5,1,1,1.5,1.5.18.15.29.37.3.6Z"/><path class="cls-16" d="m255.9,101.09c-.01.23-.12.45-.3.6l-2.7,2.7c-.25.35-.74.44-1.1.2h0c-.4-.4-.3-.8.1-1.2l2.7-2.7c.25-.21.59-.28.9-.2.3.11.5.38.5.7l-.1-.1Z"/><path class="cls-16" d="m255.9,76.09c-.01.23-.12.45-.3.6l-2.7,2.7c-.4.4-.8.4-1.1.1-.3-.3-.3-.8,0-1.1h.1c.9-.9,1.8-1.9,2.8-2.8.21-.21.52-.29.8-.2.3.11.5.38.5.7h-.1Z"/><path class="cls-16" d="m255.9,92.59c-.03.28-.17.53-.4.7-.25.15-.55.15-.8,0l-3-3c-.2-.27-.2-.63,0-.9h0c.18-.25.53-.3.78-.12.04.03.08.07.12.12h0l2.9,2.9c.13.14.2.31.2.5l.2-.2Z"/><path class="cls-46" d="m264.2,93.49c.17-1.03.55-2.02,1.1-2.9,3.17-5.49,10.17-7.41,15.7-4.3.42.23.82.5,1.2.8,2.39,1.74,3.97,4.37,4.4,7.3.28,1.53.21,3.1-.2,4.6h0c-.32.11-.66.18-1,.2-1.84.01-3.65-.51-5.2-1.5-.4-.29-.84-.53-1.3-.7v-1.1c-.13-1.48-1.17-2.72-2.6-3.1-.74-.3-1.56-.3-2.3,0-1.2.44-2.1,1.46-2.4,2.7-.1,0-.2,0-.4-.2-1.8-1.39-4.02-2.13-6.3-2.1-.2,0-.5.1-.7,0v.3Z"/><path class="cls-24" d="m264.2,93.49h.7c2.28-.03,4.5.71,6.3,2.1.1,0,.2.1.4.2v.1c-.3,1.77.78,3.49,2.5,4,.59.13,1.2.17,1.8.1.59.93,1.13,1.9,1.6,2.9.68,1.4.82,3,.4,4.5-1.16.38-2.39.52-3.6.4-1.53-.1-3.03-.51-4.4-1.2-3.37-1.69-5.66-4.96-6.1-8.7-.18-1.4-.12-2.82.2-4.2h0l.2-.2Z"/><path class="cls-27" d="m277.9,107.39c.37-1.5.23-3.09-.4-4.5-.47-1-1.01-1.97-1.6-2.9l.4-.2h.2c1.13-.51,1.98-1.5,2.3-2.7.45.19.89.43,1.3.7,1.55.99,3.36,1.51,5.2,1.5h1c-.19,1.07-.6,2.09-1.2,3-1.45,2.48-3.76,4.33-6.5,5.2-.2,0-.5.1-.7.1v-.2Z"/><path class="cls-27" d="m282.8,72.59c-.12,1.25-.61,2.43-1.4,3.4-1.05,1.5-2.62,2.57-4.4,3h-.6c.04-.86-.13-1.72-.5-2.5-1.09-2.29-2.88-4.18-5.1-5.4-.94-.71-2.14-1-3.3-.8.14-1.32.66-2.57,1.5-3.6,1.2-1.57,2.95-2.6,4.9-2.9,0,.93.21,1.85.6,2.7.89,1.75,2.15,3.29,3.7,4.5,1.21,1.15,2.83,1.76,4.5,1.7l.1-.1Zm-7-3.1c-.84-.3-1.77-.02-2.3.7-.5.76-.5,1.74,0,2.5.53.72,1.46,1,2.3.7.88-.25,1.47-1.09,1.4-2,0-.87-.57-1.64-1.4-1.9Z"/><path class="cls-24" d="m282.8,72.59c-1.67.06-3.29-.55-4.5-1.7-1.6-1.16-2.87-2.71-3.7-4.5-.41-.84-.61-1.77-.6-2.7,4.19-.67,8.13,2.18,8.8,6.37,0,0,0,.02,0,.03.2.82.2,1.68,0,2.5Z"/><path class="cls-24" d="m267.6,70.19c1.16-.09,2.31.19,3.3.8,2.2,1.25,3.98,3.13,5.1,5.4.41.76.59,1.64.5,2.5-1.34.33-2.75.19-4-.4-2.69-1.01-4.58-3.45-4.9-6.3-.1-.66-.09-1.34,0-2Z"/><path class="cls-24" d="m286.1,83.49c-1.06.04-1.95-.78-2-1.84,0-.02,0-.04,0-.06h0c.03-1.11.89-2.02,2-2.1,1.16,0,2.1.94,2.1,2.1,0,1.16-.94,2.1-2.1,2.1h0v-.2Z"/><path class="cls-13" d="m278.8,96.98c-.29,1.22-1.14,2.22-2.3,2.7h-.2c-.62-.36-1.16-.83-1.6-1.4-1.13-1.69-.68-3.97,1-5.1h0c.1,0,.4-.1.4-.3,1.42.39,2.45,1.63,2.57,3.1v1.1l.13-.1Z"/><path class="cls-43" d="m276.2,92.89c0,.2-.2.3-.4.3-1.68,1.12-2.21,3.35-1.2,5.1h0c.44.57.98,1.04,1.6,1.4l-.4.2c-.6.02-1.2-.02-1.8-.1-1.73-.58-2.81-2.29-2.6-4.1v-.1c.22-1.3,1.15-2.38,2.4-2.8.74-.3,1.56-.3,2.3,0l.1.1Z"/><path class="cls-13" d="m275.8,69.39c.86.21,1.45,1.01,1.4,1.9-.01.89-.57,1.68-1.4,2,0-.2-.3-.3-.5-.5-.82-.72-.91-1.97-.2-2.8.2-.2.5-.3.7-.6Z"/><path class="cls-43" d="m275.8,69.39c-.1.3-.5.4-.7.6-.71.83-.62,2.08.2,2.8.2.2.4.2.5.5-.84.28-1.76,0-2.3-.7-.5-.76-.5-1.74,0-2.5.53-.72,1.46-1,2.3-.7Z"/><path d="m249.4,58.09l.7-2.6c.99.46,2.17.21,2.9-.6.9-.9.8-1.5.4-1.8-.5-.5-1.2-.2-2.8.7-1.6.9-3.4,1.6-5,0-1.44-1.54-1.35-3.95.18-5.39,0,0,.01-.01.02-.01,1.28-1.37,3.24-1.84,5-1.2l-.6,2.6c-.82-.4-1.81-.19-2.4.5-.6.6-.6,1.2-.2,1.5s.9.4,2.6-.5,3.5-1.9,5.3-.2c1.6,1.6,1.3,3.9-.5,5.7-1.3,1.59-3.49,2.16-5.4,1.4l-.2-.1Z"/><path d="m264.3,45.09c1.22,2.03.56,4.67-1.47,5.89,0,0-.02.01-.03.01-.82.48-1.8.59-2.7.3l2,3.7-2.3,1.2-5.6-10.5,2.3-1.2.4.7c.22-.95.89-1.73,1.8-2.1,2.14-1,4.68-.08,5.68,2.05,0,.02.01.03.02.05l-.1-.1Zm-2.3,1.2c-.46-1-1.65-1.44-2.66-.97-.05.02-.1.05-.14.07-.98.51-1.37,1.71-.86,2.7.02.04.04.07.06.1.46,1,1.65,1.44,2.66.97.05-.02.1-.05.14-.07.98-.51,1.37-1.71.86-2.7-.02-.04-.04-.07-.06-.1Z"/><path d="m270.8,45.98c.6-.09,1.14-.41,1.5-.9l2.2.8c-.62,1.31-1.86,2.22-3.3,2.4-2.9.5-5-1.1-5.4-3.6-.52-2.32.95-4.63,3.27-5.14.11-.02.22-.04.33-.06,2.31-.44,4.53,1.08,4.97,3.39.01.07.02.14.03.21v1l-5.9,1.1c.46.74,1.37,1.07,2.2.8h.1Zm1-3.3c-.48-.94-1.63-1.31-2.57-.82-.58.3-.97.87-1.03,1.52l3.6-.7Z"/><path d="m285.5,39.89l-1.1,8.4-2.5-.3v-.8c-.64.67-1.6.94-2.5.7-2.33-.44-3.88-2.66-3.5-5,.17-2.33,2.2-4.08,4.53-3.91.02,0,.05,0,.07,0,.95.05,1.84.53,2.4,1.3v-.8c.1,0,2.6.3,2.6.3v.1Zm-3.1,3.9c.23-1.01-.4-2.02-1.41-2.26-.1-.02-.19-.04-.29-.04-1.09-.17-2.11.58-2.28,1.67,0,.04-.01.09-.02.13-.23,1.01.4,2.02,1.41,2.26.1.02.19.04.29.04,1.09.17,2.11-.58,2.28-1.67,0-.04.01-.09.02-.13h0Z"/><path d="m290.2,50.89l-.9-4.5-1.5,3.4-2.3-1.1,4.9-10.8,2.27,1.09-2.9,6.5,3.9-2.3,2.7,1.2-4.6,2.6,1.1,5.2-2.6-1.2-.07-.09Z"/><path d="m297.2,53.19c.47.39,1.09.57,1.7.5l.8,2.2c-1.42.36-2.92-.02-4-1-2-1.46-2.44-4.26-.99-6.26.06-.08.12-.16.19-.24,1.36-2.02,4.11-2.55,6.12-1.18,2.02,1.36,2.55,4.11,1.18,6.12-.16.23-.34.45-.54.65-.21.26-.44.49-.7.7l-4.6-3.9c-.3.83.03,1.76.8,2.2l.03.21Zm3.2-1.4c.32-.76.12-1.65-.5-2.2-.62-.61-1.58-.69-2.3-.2l2.8,2.3v.1Z"/><path d="m309.4,57.19l-2.3,1.7c-.38-1.04-1.53-1.57-2.56-1.2-.19.07-.37.17-.54.3l-3.1,2.3-1.5-2.1,6.9-5,1.5,2.1-1.2.9c1.1-.31,2.28.14,2.9,1.1l-.1-.1Z"/><circle class="cls-5" cx="126.8" cy="78.89" r="45"/><path d="m97.5,61.19c-2.57-2.45-2.66-6.52-.21-9.09.07-.07.14-.14.21-.21,1.52-1.59,3.75-2.27,5.9-1.8l-.7,2.8c-1.17-.32-2.42.07-3.2,1-1.44,1.29-1.56,3.49-.27,4.93.09.1.18.19.27.27,1.23,1.44,3.39,1.61,4.82.38.14-.12.26-.24.38-.38.9-.8,1.26-2.05.9-3.2l2.8-.8c.55,2.13-.11,4.39-1.7,5.9-2.39,2.57-6.41,2.71-8.97.33-.11-.1-.22-.21-.33-.33l.1.2Z"/><path d="m115.5,44.98l3.8,8.2-2.5,1.1-.4-.8c-.32.96-1.05,1.73-2,2.1-2.27.96-4.89-.1-5.85-2.37-.02-.04-.04-.09-.05-.13-1.14-2.21-.29-4.92,1.9-6.1.9-.48,1.97-.52,2.9-.1l-.4-.8,2.5-1.1h.1Zm-.6,5.2c-.44-1.08-1.68-1.6-2.76-1.16-.05.02-.09.04-.14.06-1.05.43-1.54,1.63-1.11,2.68.03.08.07.15.11.22.44,1.08,1.68,1.6,2.76,1.16.05-.02.09-.04.14-.06,1.04-.44,1.54-1.64,1.1-2.68-.03-.07-.06-.14-.1-.21h0Z"/><path d="m133.4,46.59l.2,5.5h-2.7l-.2-5.2c0-.9-.5-1.5-1.3-1.4s-1.4.7-1.3,1.7l.2,5.1h-2.7l-.2-5.2c0-.9-.5-1.5-1.3-1.4s-1.4.7-1.3,1.7l.2,5.1h-2.67l-.3-8.9h2.7v.7c.57-.75,1.46-1.19,2.4-1.2.93-.06,1.84.35,2.4,1.1.62-.81,1.58-1.3,2.6-1.3,1.84-.1,3.41,1.31,3.51,3.14,0,.15,0,.3,0,.46l-.23.1Z"/><path d="m139.33,52.29c.61.25,1.29.25,1.9,0l1.6,1.9c-1.28.83-2.89.98-4.3.4-2.9-1.1-4-3.7-3-6.2.8-2.41,3.4-3.71,5.8-2.91.1.03.2.07.3.11,2.31.8,3.54,3.32,2.75,5.63-.04.13-.09.25-.15.37-.11.36-.27.7-.5,1l-6-2.2c.03.93.69,1.71,1.6,1.9Zm2.7-2.5c.09-.89-.45-1.72-1.3-2-.83-.42-1.85-.11-2.3.7l3.6,1.3Z"/><path d="m152.9,51.98l-1.7,2.5c-.77-.92-2.14-1.03-3.06-.26-.13.11-.24.23-.34.36l-2.3,3.3-2.2-1.5,5.1-7.4,2.2,1.5-.9,1.3c.95-.7,2.25-.7,3.2,0v.2Z"/><path d="m160.8,60.79l-6.9,5.8-1.7-2.1.6-.5c-1.02-.03-1.97-.5-2.6-1.3-1.5-2-1.15-4.83.8-6.4,1.83-1.71,4.68-1.62,6.4.2.7.76,1.02,1.78.9,2.8l.6-.5,1.7,2.1.2-.1Zm-5.2.9c.93-.72,1.11-2.05.39-2.99-.03-.04-.06-.08-.09-.11-.73-.91-2.06-1.05-2.97-.32-.05.04-.09.08-.13.12-.93.72-1.11,2.05-.39,2.99.03.04.06.08.09.11.73.91,2.06,1.05,2.97.32.05-.04.09-.08.13-.12Z"/><path class="cls-14" d="m155.8,88.98v.2c-.3,0-.2.3-.2.4.02.5-.02,1-.1,1.5-.46,3.4-1.54,6.69-3.2,9.7-1.45,2.61-3.27,5.01-5.4,7.1-2.28,2.2-4.92,3.99-7.8,5.3-2.42,1.11-4.97,1.89-7.6,2.3l-2.4.3h-3.77c-.66-.12-1.33-.19-2-.2-6.9-.93-13.23-4.34-17.8-9.6-3.72-4.31-6.06-9.64-6.7-15.3.03-.54-.04-1.08-.2-1.6v-3.6c.09-.15.13-.33.1-.5,0-.81.1-1.62.3-2.4.52-3.15,1.57-6.2,3.1-9,1.42-2.61,3.24-4.97,5.4-7,6.12-5.88,14.57-8.71,23-7.7,3.19.39,6.3,1.31,9.2,2.7,6.29,3.11,11.23,8.41,13.9,14.9.98,2.36,1.62,4.86,1.9,7.4.17,1.49.23,3,.2,4.5-.02.21.02.41.1.6h-.03Zm-23.8,22.9c1.12-.17,2.22-.44,3.3-.8,11.94-4.11,18.99-16.42,16.5-28.8-1.9-8.9-7.3-15.1-15.7-18.5-1.27-.56-2.62-.93-4-1.1-.23-.08-.46-.15-.7-.2-2.08-.32-4.2-.38-6.3-.2-3.92.22-7.71,1.46-11,3.6-8.9,5.8-12.9,14-11.8,24.6.69,6.91,4.39,13.16,10.1,17.1,4.69,3.4,10.41,5.1,16.2,4.8,1.15.03,2.3-.13,3.4-.49h0Z"/><path class="cls-10" d="m132,111.89c-1.11.31-2.25.48-3.4.5-5.8.39-11.55-1.31-16.2-4.8-5.8-4.3-9.4-10-10.1-17.1-1.2-10.6,2.9-18.8,11.8-24.6,3.29-2.14,7.08-3.38,11-3.6,2.1-.18,4.22-.12,6.3.2.25-.02.5.05.7.2.15.12.32.22.5.3,4.28,1.29,8.03,3.92,10.7,7.5,1.29,1.66,2.37,3.47,3.2,5.4,1.4,3.23,2.21,6.68,2.4,10.2.05,1.84-.05,3.68-.3,5.5-.39,2.82-1.23,5.55-2.5,8.1-1.36,2.79-3.22,5.29-5.5,7.4-1.88,1.7-4.05,3.05-6.4,4-.72.22-1.42.49-2.1.8h-.1Zm-23.1-24.6c.03,10.02,8.18,18.13,18.2,18.1,10.02-.03,18.13-8.18,18.1-18.2-.03-10.02-8.18-18.13-18.2-18.1-9.98.03-18.07,8.12-18.1,18.1v.1Z"/><path class="cls-20" d="m132,111.89c.68-.33,1.38-.59,2.1-.8,2.35-.96,4.51-2.31,6.4-4,2.28-2.11,4.14-4.61,5.5-7.4,1.27-2.55,2.11-5.28,2.5-8.1.3-1.82.4-3.66.3-5.5-.09-3.53-.91-7-2.4-10.2-.83-1.93-1.91-3.74-3.2-5.4-2.67-3.58-6.42-6.21-10.7-7.5-.2,0-.3-.1-.5-.3,1.38.17,2.73.54,4,1.1,8.4,3.4,13.8,9.6,15.7,18.5,2.55,12.39-4.52,24.74-16.5,28.8-1.06.42-2.17.69-3.3.8h.1Z"/><path class="cls-35" d="m108.9,87.39c0-10.05,8.15-18.2,18.2-18.2s18.2,8.15,18.2,18.2c0,10.05-8.15,18.2-18.2,18.2h0c-10.02.01-18.16-8.08-18.2-18.1h0v-.1Zm18.2-11.3h-8.2c-.86-.07-1.71.26-2.3.9-.2.2-.3.4-.5.6-2.83,3.04-4.18,7.17-3.7,11.3.35,3.58,2.03,6.89,4.7,9.3.29.3.68.48,1.1.5h17c.94.03,1.85-.33,2.5-1,.2-.2.3-.4.5-.5,2.96-3.32,4.25-7.81,3.5-12.2-.53-2.97-1.92-5.72-4-7.9-.55-.64-1.36-1.01-2.2-1h-8.4Z"/><path class="cls-19" d="m127.1,76.09h8.4c.84,0,1.65.36,2.2,1,2.12,2.16,3.52,4.92,4,7.9.78,4.39-.51,8.89-3.5,12.2-.11.21-.29.39-.5.5-.6.74-1.55,1.12-2.5,1h-17c-.42-.02-.81-.2-1.1-.5-2.65-2.42-4.32-5.73-4.7-9.3-.48-4.13.87-8.26,3.7-11.3.2-.17.36-.38.5-.6.58-.65,1.43-.99,2.3-.9h8.2Zm7.9,11.3c.03-4.34-3.46-7.87-7.8-7.9-.03,0-.07,0-.1,0-4.36-.06-7.94,3.44-8,7.8-.06,4.36,3.44,7.94,7.8,8s7.94-3.44,8-7.8c0-.03,0-.07,0-.1h.1,0Z"/><path class="cls-32" d="m135,87.39c-.05,4.3-3.5,7.79-7.8,7.9-4.23.13-7.77-3.2-7.9-7.43,0-.16,0-.31,0-.47,0-4.36,3.54-7.9,7.9-7.9s7.9,3.54,7.9,7.9h-.1Zm-7.9-4.4c-2.42.02-4.38,1.98-4.4,4.4h0c.02,2.42,1.98,4.38,4.4,4.4,2.41.02,4.38-1.93,4.4-4.34,0-.02,0-.04,0-.06,0-2.44-1.96-4.44-4.4-4.5h0v.1Z"/><path class="cls-51" d="m127.1,91.79c-2.38.05-4.35-1.84-4.4-4.22,0-.06,0-.12,0-.18.02-2.42,1.98-4.38,4.4-4.4h0c.4.2.5.7.6,1.1.5,2.21.5,4.49,0,6.7-.01.44-.24.85-.6,1.1v-.1Z"/><path class="cls-23" d="m127.1,91.79c.4-.2.5-.7.6-1.1.5-2.21.5-4.49,0-6.7-.01-.44-.24-.85-.6-1.1,2.46,0,4.45,2,4.44,4.46,0,2.45-1.99,4.44-4.44,4.44h0Z"/><circle class="cls-7" cx="333.74" cy="192.37" r="40.5"/><path d="m313.22,169.15c1.9,1.5,2.23,4.25.73,6.16-.11.15-.24.28-.37.41-1.68,2.08-4.73,2.4-6.81.72-.07-.06-.14-.12-.21-.18-2.06-1.85-2.23-5.03-.38-7.09,1.07-1.19,2.65-1.8,4.25-1.64l-.45,2.07c-.9-.08-1.77.29-2.34.99-1.02,1.08-.98,2.79.11,3.82.05.05.11.1.16.14,1.08,1.03,2.79.99,3.82-.08.08-.09.16-.18.23-.28.77-.71.99-1.84.54-2.79l-1.71,1.89-1.44-1.26,3.15-3.51.63.54.09.09Z"/><path d="m321.59,165.46c1.02,1.57.57,3.66-.99,4.68-.64.43-1.44.53-2.16.27l1.71,2.88-1.71.99-4.77-8.19,1.71-.99.36.54c.16-.75.66-1.38,1.35-1.71,1.67-.87,3.72-.22,4.59,1.44l-.09.09Zm-1.71.99c-.39-.78-1.35-1.09-2.13-.7-.04.02-.08.04-.12.07-.75.38-1.05,1.3-.67,2.05.04.07.08.14.13.2.39.78,1.35,1.09,2.13.7.04-.02.08-.04.12-.07.75-.38,1.05-1.3.67-2.05-.04-.07-.08-.14-.13-.2Z"/><path d="m329.06,162.58l.99,4.05-1.98.54-.99-3.69c-.07-.6-.61-1.02-1.21-.95-.08,0-.16.03-.23.05-.66.13-1.09.77-.95,1.43.01.07.03.13.05.19l.9,3.6-1.98.54-2.34-9.18,1.98-.54.81,3.24c.32-.64.92-1.11,1.62-1.26,1.32-.38,2.69.38,3.07,1.7.03.12.06.24.08.37l.18-.09Z"/><path d="m330.59,163.12c0-1.99,1.61-3.6,3.6-3.6,1.99,0,3.6,1.61,3.6,3.6,0,1.99-1.61,3.6-3.6,3.6-.03,0-.06,0-.09,0-1.95-.01-3.53-1.61-3.51-3.56,0-.01,0-.02,0-.04Zm5.13,0c.07-.82-.54-1.55-1.36-1.62-.06,0-.11,0-.17,0-.87-.02-1.59.66-1.62,1.53-.07.82.54,1.55,1.36,1.62.06,0,.11,0,.17,0,.87.02,1.59-.66,1.62-1.53Z"/><path d="m345.71,164.56l-1.17,3.96-1.98-.54,1.08-3.69c.24-.57-.02-1.22-.59-1.46-.07-.03-.14-.05-.22-.07-.62-.24-1.31.07-1.55.69-.04.1-.06.2-.07.3l-.99,3.51-1.98-.54,1.89-6.48,1.98.54-.18.63c.61-.42,1.38-.52,2.07-.27,1.35.36,2.16,1.62,1.62,3.42h.09Z"/><path d="m349.04,169.33c.4.25.88.35,1.35.27l.9,1.62c-1.96.68-4.1-.35-4.78-2.3-.36-1.02-.26-2.15.28-3.1.96-1.64,3.06-2.2,4.7-1.24.09.05.17.1.25.16,1.6.99,2.09,3.08,1.11,4.68-.04.06-.08.12-.12.18-.16.23-.34.44-.54.63l-4.05-2.52c-.13.69.25,1.36.9,1.62Zm2.34-1.44c.24-.81-.23-1.66-1.04-1.9-.48-.14-1-.04-1.39.28l2.43,1.53v.09Z"/><path d="m354.62,173.65l4.5.54c.64.12,1.31.02,1.89-.27.45-.33.54-.97.2-1.41,0,0-.01-.02-.02-.03-.38-.5-1.04-.69-1.62-.45l-.27-2.07c1.34-.32,2.75.18,3.6,1.26,1.1,1.29.94,3.23-.35,4.33-.03.03-.07.06-.1.08-.94.66-2.12.89-3.24.63l-2.25-.27,1.89,2.52-1.62,1.26-3.96-5.13,1.26-.99h.09Z"/><path class="cls-49" d="m323.48,175.23h20.7c2.02-.02,3.67,1.6,3.69,3.62,0,.02,0,.05,0,.07v44.19c.02,2.02-1.6,3.67-3.62,3.69-.02,0-.05,0-.07,0h-20.7c-2.02.02-3.67-1.6-3.69-3.62,0-.02,0-.05,0-.07v-44.19c-.02-2.02,1.6-3.67,3.62-3.69.02,0,.05,0,.07,0Z"/><path class="cls-40" d="m344.18,175.23h-20.7c-2.02-.02-3.67,1.6-3.69,3.62,0,.02,0,.05,0,.07v44.19l28.08-44.19c.02-2.02-1.6-3.67-3.62-3.69-.02,0-.05,0-.07,0Z"/><rect class="cls-26" x="322.13" y="181.75" width="23.31" height="34.92"/><path class="cls-9" d="m336.71,176.8c-.02.29-.25.52-.54.54h-4.77c-.29-.02-.52-.25-.54-.54h0c.02-.29.25-.52.54-.54h4.77c.29.02.52.25.54.54Z"/><path class="cls-9" d="m335.72,223.15h-.45c-.31-.02-.61-.08-.9-.18-.36,0-.72-.18-1.08-.18-.43-.04-.85-.13-1.26-.27h-.18c-.18,0-.18-.18-.18-.36.05-.22.14-.44.27-.63.13-.34.28-.67.45-.99.09-.18.27-.45.36-.63.18-.3.57-.39.86-.22.09.05.16.13.22.22.09.09.18.27.36.45.18.36.45.63.63.99l1.08,1.62v.18c0,.18,0,.27-.18.27v-.27Z"/><path class="cls-9" d="m328.16,219.82c0,.09-.18.27-.27.36l-.54.81c-.18.27-.45.63-.63.9l-.81,1.08c0,.07-.04.13-.09.18-.1.09-.26.09-.36,0-.18-.18-.27-.36-.45-.54s-.45-.54-.72-.81c-.17-.19-.32-.41-.45-.63-.2-.3-.13-.7.17-.9.06-.04.12-.07.19-.09.18,0,.36-.09.54-.09.4-.02.79-.08,1.17-.18.64-.05,1.27-.14,1.89-.27h.18c.18,0,.27.09.18.27v-.09Z"/><path class="cls-9" d="m339.32,219.28c.13-.01.25.02.36.09l.9.27c.36.09.72.27,1.08.36s.81.27,1.26.45h.18c.18,0,.18.18.09.36s-.27.36-.36.54c-.18.32-.39.62-.63.9-.18.18-.27.36-.45.54-.28.3-.74.31-1.04.04-.01-.01-.03-.02-.04-.04-.09-.18-.18-.27-.27-.45l-.54-1.08c-.27-.54-.54-1.17-.81-1.71v-.22c0-.18,0-.27.27-.27v.22Z"/><path class="cls-36" d="m335.9,192.1h-.45c-.34-.02-.67-.08-.99-.18-.4-.05-.79-.14-1.17-.27-.46-.05-.91-.14-1.35-.27h-.18c-.18,0-.18-.18-.18-.36s.18-.45.27-.63c.18-.36.27-.72.45-1.08.1-.22.22-.43.36-.63.22-.32.67-.4.99-.18.07.05.13.11.18.18.14.13.26.28.36.45.24.34.45.7.63,1.08.36.54.72,1.17,1.08,1.71v.18c0,.18,0,.27-.18.27l.18-.27Z"/><path class="cls-36" d="m336.71,183.91h.18c.18,0,.18.09.18.27s-.09.18-.18.27c-.45.54-.81,1.08-1.26,1.53-.36.47-.75.92-1.17,1.35-.2.2-.45.35-.72.45-.31.04-.63-.03-.9-.18-.17-.11-.29-.26-.36-.45-.36-.54-.72-1.08-1.08-1.71-.13-.25-.28-.49-.45-.72h0c-.09-.18,0-.27.18-.27.75-.02,1.5-.08,2.25-.18.66-.02,1.32-.08,1.98-.18h1.44l-.09-.18Z"/><path d="m326.81,211.63v-1.53l2.79-2.97c.27-.27.45-.54.63-.72.1-.16.16-.35.18-.54.03-.2-.04-.4-.18-.54-.16-.11-.35-.18-.54-.18-.55,0-1.03.37-1.17.9l-1.89-1.08c.23-.59.64-1.09,1.17-1.44.54-.34,1.17-.49,1.8-.45.75,0,1.48.26,2.07.72.58.5.91,1.22.9,1.98.06.48-.07.96-.36,1.35-.29.48-.62.93-.99,1.35l-1.17,1.17h2.61v2.07h-5.94l.09-.09Z"/><path d="m341.84,206.73v.9c.07,1.11-.36,2.2-1.17,2.97-.81.8-1.92,1.23-3.06,1.17-1.2.02-2.37-.43-3.24-1.26-.83-.84-1.28-1.97-1.26-3.15,0-1.17.45-2.3,1.26-3.15.84-.83,1.97-1.28,3.15-1.26.76-.08,1.52.11,2.16.54.63.33,1.16.83,1.53,1.44l-1.8,1.08c-.2-.26-.44-.47-.72-.63-.33-.18-.7-.28-1.08-.27-1.27.03-2.27,1.08-2.25,2.34.01.57.24,1.11.63,1.53.47.49,1.12.75,1.8.72.81.04,1.58-.38,1.98-1.08h-2.07v-1.89h4.14Z"/><polygon class="cls-53" points="322.04 215.77 322.04 181.57 345.26 181.57 322.04 215.77"/><circle class="cls-7" cx="68.26" cy="191.54" r="40.5"/><path d="m54.67,166.61c1.56,2.06,1.15,4.99-.91,6.54-.14.11-.29.21-.44.3-2.37,1.72-5.68,1.2-7.41-1.17-.02-.03-.04-.06-.06-.09-1.61-2.44-.95-5.72,1.49-7.33,1.45-.96,3.28-1.15,4.9-.5l-.99,1.98c-.9-.37-1.93-.23-2.7.36-1.35.82-1.77,2.59-.95,3.93.04.07.09.14.14.21.88,1.37,2.71,1.77,4.08.89.08-.05.16-.11.24-.17.98-.51,1.5-1.62,1.26-2.7l-2.25,1.53-1.08-1.71,4.23-2.79.45.72Z"/><path d="m59.08,164.99l.81,2.43c.18.63.72.45,1.62.18l.63,1.89c-2.61,1.17-3.6.54-4.23-1.35l-.81-2.43-1.08.36-.63-1.98,1.08-.36-.45-1.26,1.89-1.26.63,1.89,1.44-.45.63,1.98-1.44.45-.09-.09Z"/><path d="m69.34,161.39l.54,7.2-2.16.18v-.72c-.53.64-1.33,1-2.16.99-2.1-.05-3.76-1.8-3.71-3.9.04-1.82,1.38-3.36,3.17-3.66.82-.08,1.63.18,2.25.72v-.72l2.07-.18v.09Zm-1.89,3.78c.04-.86-.63-1.6-1.49-1.64-.1,0-.21,0-.31.02-.93.03-1.66.82-1.63,1.75,0,.05,0,.09.01.14-.04.86.63,1.6,1.49,1.64.1,0,.21,0,.31-.02.93-.03,1.66-.82,1.63-1.75,0-.05,0-.09-.01-.14h0Z"/><path d="m79.15,166.88c-.37,1.98-2.25,3.3-4.23,2.97-.8-.15-1.49-.64-1.89-1.35l-.18.63-2.07-.45,2.25-9.81,2.07.45-.81,3.51c.64-.49,1.49-.62,2.25-.36,1.92.57,3.04,2.56,2.52,4.5l.09-.09Zm-2.07-.45c.29-.81-.13-1.7-.94-1.99-.1-.04-.21-.06-.32-.08-.9-.23-1.81.31-2.04,1.2-.01.05-.02.1-.03.15-.29.81.13,1.7.94,1.99.1.04.21.06.32.08.9.23,1.81-.31,2.04-1.2.01-.05.02-.1.03-.15Z"/><path d="m90.76,166.16l-5.67,8.37-1.89-1.26,4.32-6.3-1.71-.63.63-1.98,2.7.72,1.71,1.17-.09-.09Z"/><path class="cls-11" d="m52.33,224.84c0-.09-.18-.09-.18-.09-1.2-.4-2-1.53-1.98-2.79v-40.05c-.1-1.54,1.07-2.86,2.6-2.96.06,0,.12,0,.19,0h28.53c0,.18.18.18.27.18,1.04.45,1.71,1.48,1.71,2.61v2.7h-10.53c-.18,0-.36,0-.45.27-.45.45-.9.9-1.44,1.35-1.61,1.53-4.15,1.53-5.76,0-.44-.4-.86-.82-1.26-1.26-.17-.22-.45-.32-.72-.27h-9.81c-.45,0-.54.09-.54.54v33.75c0,.45.18.54.54.54h30.06v2.7c.08,1.18-.61,2.27-1.71,2.7-.09,0-.27,0-.27.27h-29.25v-.18Zm13.14-3.51h-2.61c-.54,0-.81.27-.81.72s.27.72.81.72h5.22c.4.09.79-.16.88-.56.09-.4-.16-.79-.56-.88-.11-.02-.22-.02-.32,0h-2.61Zm2.79-39.69c-.73-.02-1.33.56-1.35,1.3,0,.02,0,.04,0,.05h0c0,.75.6,1.35,1.35,1.35.03,0,.06,0,.09,0,.74-.02,1.33-.61,1.35-1.35.02-.73-.56-1.33-1.3-1.35-.02,0-.04,0-.05,0h-.09Zm6.21,40.41c.02-.37-.26-.69-.63-.72-.39.08-.69.41-.72.81-.01.34.26.62.59.63.01,0,.02,0,.04,0,.39-.03.69-.33.72-.72h0Zm-3.42-.72c-.37.07-.65.35-.72.72.03.39.33.69.72.72.37-.07.65-.35.72-.72-.03-.39-.33-.69-.72-.72Z"/><rect class="cls-11" x="64.75" y="181.37" width="5.85" height="3.51"/><path class="cls-52" d="m81.58,224.84c0-.18.18-.18.27-.27,1.1-.43,1.79-1.52,1.71-2.7v-40.23c.04-1.14-.64-2.19-1.71-2.61-.09,0-.27,0-.27-.18h1.98c1.49,0,2.7,1.21,2.7,2.7v39.6c0,1.71-.54,3.06-2.25,3.6h-2.52l.09.09Z"/><path class="cls-48" d="m80.77,219.35h-27.27c-.45,0-.54,0-.54-.54v-33.75c0-.45.09-.54.54-.54h9.81c.27,0,1.17-.36,1.35-.18.45.45.18.9.9,1.8s1.98,1.53,3.6,0l1.8-1.8c.09-.18,1.8.18,1.98.18h7.74v34.83h.09Z"/><path class="cls-45" d="m80.77,219.35v-34.83h2.79v34.83h-2.79Z"/><path class="cls-33" d="m65.47,221.42h2.52c.45-.04.84.28.9.72-.09.43-.47.73-.9.72h-5.22c-.54,0-.81-.27-.81-.72s.27-.72.81-.72h2.7Z"/><path class="cls-18" d="m74.47,222.05c.02.37-.26.69-.63.72h0c-.34.01-.62-.26-.63-.59,0-.01,0-.02,0-.04.05-.39.34-.72.72-.81.36-.09.63.36.63.72h-.09Z"/><path class="cls-18" d="m71.05,221.42c.36.09.63.36.72.72,0,.4-.32.72-.72.72s-.72-.32-.72-.72c.09-.36.36-.63.72-.72Z"/><path class="cls-30" d="m70.87,181.73h.18c.18,0,.18.09.18.27s-.09.18-.18.27c-.45.54-.81,1.08-1.26,1.62l-1.17,1.44c-.18.23-.43.39-.72.45-.35.04-.71-.06-.99-.27-.18-.09-.27-.27-.45-.45-.36-.54-.72-1.17-1.08-1.71-.18-.27-.27-.54-.45-.81h0c-.09-.18,0-.27.18-.36.78-.02,1.56-.08,2.34-.18.69-.02,1.38-.08,2.07-.18.48.01.96-.02,1.44-.09h-.09Z"/><path class="cls-47" d="m70.69,200.09h-.54c-.36,0-.72-.18-1.08-.18-.46-.05-.91-.14-1.35-.27l-1.53-.27h-.27c-.18,0-.27-.18-.18-.45.08-.26.2-.5.36-.72.18-.36.36-.81.54-1.17.1-.27.25-.52.45-.72.23-.35.7-.44,1.05-.21.08.06.16.13.21.21.15.13.27.28.36.45.27.37.51.76.72,1.17.45.63.81,1.26,1.26,1.98,0,.07.04.13.09.18,0,.18,0,.27-.27.27l.18-.27Z"/><path class="cls-47" d="m71.59,190.73h.18c.18,0,.27.09.18.27s-.09.18-.18.27c-.45.63-.9,1.17-1.44,1.8s-.9,1.08-1.35,1.53c-.19.28-.48.47-.81.54-.38.04-.76-.06-1.08-.27-.18-.16-.33-.34-.45-.54-.45-.63-.81-1.26-1.26-1.89-.2-.29-.38-.59-.54-.9h0c-.09-.18,0-.36.18-.36.87-.02,1.74-.08,2.61-.18.75-.02,1.5-.08,2.25-.18.54.01,1.08-.02,1.62-.09h.09Z"/><path d="m66.73,211.79v2.52h-1.08v1.71h-2.79v-1.71h-4.86v-2.61l3.33-6.75h3.15l-3.33,6.75h1.71v-1.98h2.79v1.98h1.08v.09Z"/><path d="m78.61,209.72v1.08c.03,1.47-.52,2.89-1.53,3.96-1.06,1.03-2.49,1.58-3.96,1.53-1.57.04-3.09-.54-4.23-1.62-2.16-2.27-2.16-5.83,0-8.1,1.06-1.1,2.52-1.72,4.05-1.71.98-.09,1.97.17,2.79.72.8.43,1.48,1.05,1.98,1.8l-2.43,1.35c-.22-.38-.57-.67-.99-.81-.46-.18-.95-.28-1.44-.27-1.54-.1-2.87,1.06-2.97,2.6,0,.12,0,.25,0,.37-.02.8.27,1.57.81,2.16.61.64,1.46.97,2.34.9,1.05.07,2.05-.5,2.52-1.44h-2.7v-2.43h5.58l.18-.09Z"/><line class="cls-9" x1="148.13" y1="191.29" x2="115.35" y2="191.79"/><line class="cls-8" x1="148.13" y1="191.29" x2="126.11" y2="191.62"/><polygon class="cls-54" points="128.19 184.11 115.35 191.78 128.42 199.07 128.19 184.11"/><line class="cls-9" x1="253.35" y1="193.29" x2="286.13" y2="193.79"/><line class="cls-8" x1="253.35" y1="193.29" x2="275.37" y2="193.62"/><polygon class="cls-54" points="273.06 201.07 286.13 193.79 273.29 186.11 273.06 201.07"/><path class="cls-25" d="m175.44,216.45c.5-.4.9-.9,1.4-1.3l6.8-6.8c1.6-1.66,4.24-1.7,5.9-.1.04.03.07.07.1.1.57.53.96,1.23,1.1,2,.15.62.15,1.28,0,1.9-.3.94-.82,1.79-1.5,2.5-2,1.9-3.9,3.9-5.8,5.8-.3.3-.3.4,0,.7,1.02,1.12,1.77,2.45,2.2,3.9h-13.2c-.2,0-.4,0-.4-.2-.09-1.24-.02-2.48.2-3.7.28-1.17.87-2.24,1.7-3.1l1.5-1.5v-.2Z"/><path class="cls-22" d="m208.04,214.24c-1.48-.83-2.09-2.65-1.4-4.2.54-1.33,1.87-2.17,3.3-2.1h8.4c1.66,0,3.08,1.17,3.4,2.8-.2,0-.2.1-.2.2-.37.89-1.09,1.58-2,1.9-.58.2-1.19.3-1.8.3h-8.4c-1,0-1.2,0-1.3,1.1Z"/><path class="cls-25" d="m208.04,221.14c-1.61-.93-2.19-2.97-1.3-4.6.49-.8,1.28-1.38,2.2-1.6.37-.02.74-.09,1.1-.2h8.8c.69.21,1.34.55,1.9,1,.48.5.83,1.12,1,1.8,0,0-.2.1-.2.2-.6,1.48-2.11,2.38-3.7,2.2h-8.6c-1,0-1.2.2-1.2,1.2Z"/><path class="cls-25" d="m206.34,225.14c-.02-1.58,1.06-2.95,2.6-3.3.24.02.48-.02.7-.1,3.1,0,6.3.1,9.4,0,0,.2.2.2.3.2,1.21.37,2.13,1.37,2.4,2.6.2.7,0,.8-.6.8h-14.8v-.2Z"/><path class="cls-58" d="m185.64,225.14c-.37-1.47-1.13-2.82-2.2-3.9-.3-.3-.3-.4,0-.7,2-1.9,3.9-3.9,5.8-5.8.71-.69,1.22-1.55,1.5-2.5.63,1.51.27,3.26-.9,4.4l-3.8,3.8c-.3.3-.3.4,0,.7,1.02,1.12,1.77,2.45,2.2,3.9h-2.6v.1Z"/><path class="cls-15" d="m219.04,221.54c-3.1.2-6.3,0-9.4,0-.24-.02-.48.02-.7.1-.3-.2-.6-.2-.8-.5h0c0-1.1.2-1.3,1.2-1.3h8.6c1.7,0,3-.5,3.7-2.2,0,0,.1-.2.2-.2.33,1.75-.7,3.46-2.4,4h-.3l-.1.1Z"/><path class="cls-15" d="m218.84,214.74h-8.8c-.38-.03-.76.04-1.1.2-.2-.2-.6-.2-.8-.6h-.1c.1-1.1.2-1.3,1.3-1.3h8.4c.62.05,1.23-.06,1.8-.3.91-.32,1.63-1.01,2-1.9,0-.1,0-.2.2-.2.39,1.79-.72,3.56-2.5,4h-.4v.1Z"/><path class="cls-34" d="m208.04,187.34h-3.8c-.3,0-.5,0-.5-.4-.09-.63.35-1.21.98-1.3.11-.02.22-.02.32,0h6.9c.4,0,.5,0,.5.5.09.63-.35,1.21-.98,1.3-.11.02-.22.02-.32,0h-3.1v-.1Z"/><path class="cls-38" d="m211.04,182.14h3.4c.3,0,.4,0,.4.4q0,1.4-1.3,1.4h-5.9c-.4,0-.5,0-.5-.5,0-.86.4-1.3,1.2-1.3h2.7Z"/><path class="cls-38" d="m203.74,182.94c-.05-.39.22-.75.61-.8.06,0,.13,0,.19,0,.53,0,.83.3.9.9q0,.9-.9.9c-.9,0-.8,0-.8-.9v-.1Z"/><path class="cls-22" d="m208.04,214.24h.1c0,.1-.1,0-.1,0Z"/><path class="cls-2" d="m214.74,177.84h-35.8c-.44-.03-.89.04-1.3.2-1.43.5-2.36,1.88-2.3,3.4v35.1c.5-.4.9-.9,1.4-1.3l6.8-6.8c.53-.57,1.23-.96,2-1.1,2.2-.59,4.46.71,5.05,2.9.02.07.03.13.05.2.15.62.15,1.28,0,1.9.63,1.51.27,3.26-.9,4.4l-3.8,3.8c-.3.3-.3.4,0,.7,1.02,1.12,1.77,2.45,2.2,3.9h18.1c0-1.59,1.07-2.98,2.6-3.4-.3-.2-.6-.2-.8-.5h0c-1.66-1.03-2.17-3.2-1.15-4.86.46-.75,1.19-1.3,2.05-1.54-.2-.2-.6-.2-.8-.6h-.1c-1.47-.93-2.06-2.79-1.4-4.4.54-1.33,1.87-2.17,3.3-2.1h8.4v-26.5c.14-1.85-1.25-3.46-3.1-3.6-.17-.01-.33-.01-.5,0v.2Zm-11,5.1c-.05-.39.22-.75.61-.8.06,0,.13,0,.19,0q.9,0,.9.9t-.9.9c-.9,0-.8,0-.8-.9v-.1Zm7.4,4.4h-6.9c-.3,0-.5,0-.5-.4q0-1.3,1.3-1.3h6.9c.4,0,.5,0,.5.5q0,1.3-1.3,1.3v-.1Zm2.5-3.4h-5.9c-.4,0-.5,0-.5-.5q0-1.3,1.2-1.3h6.1c.3,0,.4,0,.4.4q0,1.4-1.3,1.4Z"/><path class="cls-14" d="m194.74,189.24h0v.6c-.12.95-.42,1.87-.9,2.7-.39.72-.89,1.36-1.5,1.9-.61.61-1.32,1.12-2.1,1.5-.67.29-1.38.49-2.1.6h-2.2c-1.02-.14-2.01-.48-2.9-1-.72-.42-1.36-.96-1.9-1.6-.55-.62-.99-1.33-1.3-2.1-.29-.67-.49-1.38-.6-2.1v-2.2c.1-.89.41-1.75.9-2.5.41-.7.92-1.34,1.5-1.9,1.68-1.61,3.99-2.38,6.3-2.1.88.03,1.73.27,2.5.7,1.72.87,3.07,2.32,3.8,4.1.27.64.44,1.31.5,2v1.4Zm-6.5,6.2c.31-.02.61-.09.9-.2,3.23-1.12,5.15-4.44,4.5-7.8-.44-2.31-2.08-4.21-4.3-5-.35-.16-.72-.26-1.1-.3h-.2c-.57-.05-1.13-.05-1.7,0-1.08.03-2.12.37-3,1-2.32,1.38-3.58,4.03-3.2,6.7.2,1.9,1.22,3.62,2.8,4.7,1.25.96,2.82,1.43,4.4,1.3.3.02.61-.02.9-.1v-.3Z"/><path class="cls-10" d="m188.24,195.45c-.29.08-.6.12-.9.1-1.57.08-3.12-.38-4.4-1.3-1.58-1.08-2.6-2.8-2.8-4.7-.38-2.67.88-5.32,3.2-6.7.9-.58,1.93-.93,3-1h2c1.14.37,2.15,1.06,2.9,2,.36.46.66.97.9,1.5.4.88.6,1.83.6,2.8v1.5c-.08.77-.32,1.52-.7,2.2-.38.75-.89,1.42-1.5,2-.5.46-1.08.83-1.7,1.1-.21.02-.42.09-.6.2v.3Zm-6.3-6.7c0,2.76,2.24,5,5,5s5-2.24,5-5c.03-2.76-2.19-5.02-4.95-5.05-2.76-.03-5.02,2.19-5.05,4.95h0v.1Z"/><path class="cls-20" d="m188.24,195.45c.2-.1.4-.1.6-.2.62-.27,1.2-.64,1.7-1.1.59-.6,1.09-1.27,1.5-2,.34-.7.57-1.44.7-2.2.05-.5.05-1,0-1.5-.04-.96-.25-1.91-.6-2.8-.23-.54-.53-1.05-.9-1.5-.71-.98-1.73-1.68-2.9-2h-.1c.38.05.75.15,1.1.3,2.22.79,3.86,2.69,4.3,5,.67,3.36-1.25,6.7-4.5,7.8-.3,0-.6.2-.9.2Z"/><path class="cls-35" d="m182.04,188.74c0-2.76,2.24-5,5-5s5,2.24,5,5-2.24,5-5,5h0c-2.72,0-4.95-2.18-5-4.9h0v-.1Zm5-3.1h-2.2c-.3,0-.5,0-.6.2,0,.08-.04.15-.1.2-.77.84-1.13,1.97-1,3.1.01.99.49,1.92,1.3,2.5.09.05.2.08.3.1h4.6c.3,0,.5,0,.7-.3l.1-.1c.78-.91,1.11-2.12.9-3.3-.14-.83-.52-1.59-1.1-2.2-.14-.19-.36-.31-.6-.3h-2.3v.1Z"/><path class="cls-19" d="m186.94,185.64h2.3c.24,0,.46.11.6.3.61.58,1,1.36,1.1,2.2.22,1.18-.11,2.4-.9,3.3l-.1.1c-.18.2-.43.31-.7.3h-4.6c-.11.01-.22-.02-.3-.1-.72-.65-1.18-1.54-1.3-2.5-.13-1.13.23-2.26,1-3.1,0-.08.04-.15.1-.2.2-.2.4-.3.6-.2h2.2v-.1Zm2.2,3.1c.02-1.19-.93-2.18-2.12-2.2-.03,0-.05,0-.08,0-1.13-.03-2.07.87-2.1,2,0,.03,0,.07,0,.1-.02,1.19.93,2.18,2.12,2.2.03,0,.05,0,.08,0,1.13.03,2.07-.87,2.1-2,0-.03,0-.07,0-.1Z"/><path class="cls-32" d="m189.14,188.74c.03,1.13-.87,2.07-2,2.1-.03,0-.07,0-.1,0-1.19.02-2.18-.93-2.2-2.12,0-.03,0-.05,0-.08-.03-1.13.87-2.07,2-2.1.03,0,.07,0,.1,0,1.21.01,2.19.99,2.2,2.2Zm-2.2-1.2c-.64-.02-1.18.48-1.2,1.12,0,.03,0,.05,0,.08h0c0,.66.54,1.2,1.2,1.2s1.2-.54,1.2-1.2c0-.66-.54-1.2-1.2-1.2Z"/><path class="cls-51" d="m186.94,189.94c-.66,0-1.2-.53-1.2-1.2,0-.66.53-1.2,1.2-1.2h0c.1,0,.1.2.2.3.1.6.1,1.2,0,1.8,0,.1,0,.2-.2.3Z"/><path class="cls-23" d="m186.94,189.94c.1,0,.1-.2.2-.3.1-.6.1-1.2,0-1.8,0-.1,0-.2-.2-.3.66,0,1.2.54,1.2,1.2,0,.66-.54,1.2-1.2,1.2h0Z"/><circle class="cls-6" cx="197.74" cy="191.54" r="45"/><path d="m167.14,192.74l.2,2.1-5.3.4,4,2.1v.2l-3.7,2.6,5.3-.4.2,2.1-9.1.7-.2-2.1,3.9-2.8-4.2-2.2-.2-2.1,9.1-.7v.1Z"/><path d="m166.54,188.34c.1-.44.03-.91-.2-1.3l1.2-1.3c.74.81,1,1.95.7,3-.25,1.83-1.93,3.11-3.76,2.86-.12-.02-.23-.04-.34-.06-1.78-.3-2.98-1.99-2.67-3.77.02-.11.04-.22.07-.33.34-1.75,2.02-2.89,3.77-2.55.08.01.15.03.23.05.25,0,.49.07.7.2l-1,4.5c.66-.09,1.16-.64,1.2-1.3h.1Zm-2.1-1.7c-.79.05-1.4.74-1.35,1.53.03.49.31.93.75,1.17l.6-2.7Z"/><path d="m163.64,175.14l8.2,3.9-.8,1.8-.6-.3c.32.67.28,1.46-.1,2.1-.82,1.56-2.76,2.17-4.32,1.34-.03-.01-.05-.03-.08-.04-1.67-.71-2.46-2.62-1.8-4.3.29-.69.88-1.2,1.6-1.4l-2.9-1.4.8-1.8v.1Zm4.4,4.3c-.77-.38-1.71-.07-2.1.7-.39.73-.11,1.63.61,2.02.06.03.12.06.19.08.77.38,1.71.07,2.1-.7.37-.75.07-1.66-.68-2.04-.04-.02-.08-.04-.12-.05h0Z"/><path d="m165.74,173.64c-.52-.36-.66-1.07-.3-1.6s1.07-.66,1.6-.3c.52.36.66,1.07.3,1.6-.39.48-1.07.61-1.6.3Zm1.5.9l1.1-1.6,5.3,3.8-1.1,1.6-5.3-3.8Z"/><path d="m174.44,166.45l4.5,4.7-1.4,1.4-.4-.4c.02.72-.27,1.41-.8,1.9-1.5,1.18-3.67.92-4.84-.58-1-1.27-.98-3.07.04-4.32.5-.51,1.18-.8,1.9-.8l-.4-.4,1.4-1.4v-.1Zm.9,3.7c-.49-.61-1.37-.71-1.98-.22-.08.06-.15.14-.22.22-.61.55-.66,1.48-.11,2.09.03.04.07.08.11.11.49.61,1.37.71,1.98.22.08-.06.15-.14.22-.22.56-.57.49-1.56,0-2.21h0Z"/><path d="m177.34,166.34l4.2-2.6,1,1.6-4.2,2.6-1-1.6Z"/><path d="m183.84,165.64l1.4-1.6c.54.64,1.41.88,2.2.6.9-.3,1-.8.9-1.1-.2-.5-.7-.6-2.2-.5-1.5.1-2.9,0-3.4-1.7-.49-1.46.3-3.04,1.76-3.53.08-.03.16-.05.24-.07,1.33-.53,2.85-.17,3.8.9l-1.3,1.5c-.42-.56-1.16-.76-1.8-.5-.6.2-.8.6-.7,1s.4.6,1.9.5c1.5-.1,3.1-.1,3.7,1.7.6,1.8-.4,3.1-2.3,3.7-1.45.64-3.14.28-4.2-.9Z"/><path d="m190.24,157.24c-.08-.64.36-1.22,1-1.3.64-.08,1.22.36,1.3,1s-.36,1.22-1,1.3c0,0,0,0,0,0-.62.1-1.2-.32-1.29-.94,0-.02,0-.04,0-.06Zm.5,1.7l1.9-.3,1.1,6.4-1.9.3-1.1-6.4Z"/><path d="m200.94,160.74v4h-2v-3.7c.07-.59-.36-1.13-.95-1.19-.05,0-.1,0-.15,0-.62-.05-1.16.42-1.21,1.04,0,.09,0,.17.01.26v3.5h-2v-6.5h2v.6c.47-.56,1.18-.85,1.9-.8,1.33-.01,2.41,1.06,2.42,2.38,0,.11,0,.21-.02.32v.1Z"/><path d="m209.84,160.14l-1.5,6c-.5,2.1-2.4,2.6-4.1,2.2-1.24-.2-2.25-1.1-2.6-2.3l1.8-.5c.1.5.4.9,1.2,1.2.67.28,1.43-.03,1.71-.7.04-.1.07-.2.09-.3v-.6c-.52.45-1.24.6-1.9.4-1.72-.43-2.76-2.18-2.33-3.9,0-.03.02-.07.03-.1.37-1.71,2.05-2.8,3.77-2.43.04,0,.09.02.13.03.72.14,1.32.63,1.6,1.31l.2-.6,1.8.5.1-.21Zm-2.6,2.6c.21-.77-.25-1.56-1.02-1.76-.06-.02-.12-.03-.18-.04-.78-.25-1.61.18-1.86.96-.02.05-.03.1-.04.14-.21.77.25,1.56,1.02,1.76.06.02.12.03.18.04.78.25,1.61-.18,1.86-.96.02-.05.03-.1.04-.14h0Z"/><path d="m213.04,158.34l1.8.8-3.9,8.7-1.8-.8,3.9-8.7Z"/><path d="m215.64,168.74c.37.29.84.4,1.3.3l.8,1.6c-1.05.38-2.22.19-3.1-.5-1.65-.95-2.21-3.05-1.26-4.7.95-1.65,3.05-2.21,4.7-1.26,1.65.95,2.21,3.05,1.26,4.7-.03.05-.06.11-.1.16-.2.2-.3.4-.5.6l-3.8-2.6c-.2.7.2,1.2.8,1.6l-.1.1Zm2.3-1.3c.25-.61-.01-1.3-.6-1.6-.5-.4-1.2-.4-1.7,0l2.3,1.5v.1Z"/><path d="m222.34,172.04c1.4-1.17,3.48-.99,4.65.41.05.06.1.13.15.19.74.93.93,2.19.5,3.3l-1.8-.7c.19-.47.11-1-.2-1.4-.43-.63-1.29-.78-1.92-.35-.06.04-.12.09-.18.15-.66.47-.81,1.39-.34,2.05.01.02.02.03.04.05.29.47.87.68,1.4.5l.3,1.9c-1.19.16-2.38-.34-3.1-1.3-1.16-1.45-.93-3.57.52-4.74.03-.02.05-.04.08-.06h-.1Z"/><path d="m232.54,182.54l-5.9,2.8-.8-1.8.6-.3c-.69-.2-1.25-.72-1.5-1.4-.68-1.68.13-3.6,1.8-4.3,1.55-.84,3.5-.27,4.34,1.28.02.04.04.08.06.12.38.64.42,1.43.1,2.1l.6-.3.8,1.8h-.1Zm-3.8-.4c.75-.39,1.05-1.32.65-2.08-.39-.75-1.32-1.05-2.08-.65-.74.38-1.04,1.28-.68,2.03.33.75,1.21,1.1,1.96.77.05-.02.09-.04.14-.07Z"/><path d="m232.44,195.14l-3.9.6-.3-1.9,3.8-.5c.5.01.91-.38.92-.88,0-.07,0-.15-.02-.22,0-.6-.6-.9-1.4-.8l-3.6.5-.3-1.9,3.8-.5c.5.01.91-.38.92-.88,0-.07,0-.15-.02-.22,0-.6-.6-.9-1.4-.8l-3.6.5-.3-1.9,6.4-.9.3,1.9h-.6c.6.36.97,1,1,1.7.15.66-.08,1.36-.6,1.8.65.33,1.07.98,1.1,1.7.23,1.3-.64,2.54-1.94,2.77-.12.02-.24.03-.36.03l.1-.1Z"/><path d="m229.24,199.94c-.07.46.04.92.3,1.3l-1.1,1.4c-.79-.78-1.13-1.91-.9-3,.15-1.88,1.79-3.28,3.67-3.13.08,0,.15.01.23.03,1.84.22,3.15,1.89,2.93,3.73,0,.06-.02.12-.03.17-.24,1.8-1.89,3.07-3.69,2.83-.07,0-.14-.02-.21-.03-.28-.02-.55-.09-.8-.2l.7-4.6c-.7.1-1,.7-1.1,1.4v.1Zm2.2,1.5c.8,0,1.1-.6,1.2-1.2.15-.63-.19-1.27-.8-1.5l-.4,2.8v-.1Z"/><path d="m231.94,209.34l-2.1-.7c.49-.65.35-1.57-.3-2.06-.15-.11-.32-.19-.5-.24l-2.8-1,.6-1.8,6.1,2.1-.6,1.8-1.1-.4c.64.58.88,1.48.6,2.3h.1Z"/><path d="m227.94,216.54l-5.6-3.3,1-1.7.5.3c-.24-.71-.13-1.49.3-2.1.98-1.49,2.98-1.94,4.5-1,1.58.77,2.24,2.68,1.47,4.27-.02.05-.05.09-.07.13-.3.7-.95,1.19-1.7,1.3l.5.3-1,1.7.1.1Zm-1.8-3.3c.67.45,1.59.27,2.04-.4.02-.03.04-.06.06-.1.42-.73.17-1.66-.56-2.08-.01,0-.03-.02-.04-.02-.67-.45-1.59-.27-2.04.4-.02.03-.04.06-.06.1-.42.73-.17,1.66.56,2.08.01,0,.03.02.04.02Z"/><line class="cls-3" x1="197.61" y1="242.08" x2="197.53" y2="260.73"/><line class="cls-3" x1="60.04" y1="260.16" x2="341.96" y2="260.16"/><line class="cls-8" x1="60.47" y1="259.96" x2="60.47" y2="269.28"/><polygon class="cls-54" points="53.99 267.39 60.47 278.61 66.96 267.39 53.99 267.39"/><line class="cls-8" x1="154.14" y1="259.96" x2="154.14" y2="269.28"/><polygon class="cls-54" points="147.66 267.39 154.14 278.61 160.62 267.39 147.66 267.39"/><line class="cls-8" x1="247.81" y1="259.96" x2="247.81" y2="269.28"/><polygon class="cls-54" points="241.33 267.39 247.81 278.61 254.29 267.39 241.33 267.39"/><line class="cls-8" x1="341.47" y1="259.96" x2="341.47" y2="269.28"/><polygon class="cls-54" points="334.99 267.39 341.47 278.61 347.96 267.39 334.99 267.39"/></svg>