<?xml version="1.0" encoding="UTF-8"?><svg id="Layer_1" xmlns="http://www.w3.org/2000/svg" viewBox="0 0 400 400"><defs><style>.cls-1{fill:#a7cefe;}.cls-2{stroke:#a5262d;}.cls-2,.cls-3,.cls-4{stroke-width:4px;}.cls-2,.cls-3,.cls-4,.cls-5{stroke-miterlimit:10;}.cls-2,.cls-3,.cls-4,.cls-5,.cls-6{fill:none;}.cls-3{stroke:#0018c6;}.cls-7{fill:#8ac5cd;}.cls-4{stroke:#c000e2;}.cls-8{fill:#717f8f;}.cls-9{fill:#c69c6d;}.cls-5{stroke:#231f20;stroke-width:2px;}.cls-10{fill:#3b566a;}.cls-11{fill:#b2d3d9;}.cls-12{fill:#b3d4da;}.cls-13{fill:#728090;}.cls-14{fill:#484645;}.cls-15{fill:#637889;}.cls-16{fill:#b6d6fd;}.cls-17{fill:#b3b3b3;}.cls-18{fill:#88c4cc;}.cls-19{fill:#2f4859;}.cls-20{fill:#33b1cb;}.cls-21{fill:#304959;}.cls-22{fill:#3f4a5b;}.cls-23{fill:#231f20;}.cls-24{fill:#33b1cc;}.cls-25{fill:#86cde8;}</style></defs><line class="cls-6" x1="200.27" y1="115.12" x2="200.77" y2="147.9"/><line class="cls-5" x1="200.27" y1="115.12" x2="200.61" y2="137.14"/><polygon class="cls-23" points="193.1 135.06 200.77 147.9 208.07 134.84 193.1 135.06"/><line class="cls-6" x1="118.67" y1="110.86" x2="167.33" y2="150.16"/><line class="cls-5" x1="118.67" y1="110.86" x2="158.96" y2="143.4"/><polygon class="cls-23" points="152.55 147.84 167.33 150.17 161.96 136.21 152.55 147.84"/><line class="cls-6" x1="281.33" y1="110.86" x2="232.68" y2="150.16"/><line class="cls-5" x1="281.33" y1="110.86" x2="241.05" y2="143.4"/><polygon class="cls-23" points="238.05 136.21 232.68 150.16 247.46 147.84 238.05 136.21"/><circle class="cls-2" cx="91.11" cy="61.42" r="45"/><path d="m65.01,45.82l1-3c1.15.63,2.58.43,3.5-.5,1.1-1,1-1.7.7-2.1-.6-.6-1.4-.4-3.4.6s-4.1,1.5-5.9-.5c-1.8-2-1.1-4.7.7-6.3,1.58-1.5,3.91-1.9,5.9-1l-1,3c-.95-.52-2.13-.36-2.9.4-.8.7-.8,1.4-.4,1.8s1,.6,3-.4,4.3-1.9,6.2.3c1.8,2,1.2,4.7-1.1,6.7-2.3,2-4.5,2.1-6.5,1.1l.2-.1Z"/><path d="m70.01,29.92c-.44-.88-.08-1.96.8-2.4s1.96-.08,2.4.8.08,1.96-.8,2.4h0c-.89.39-1.92.04-2.4-.8Zm1.5,2.3l2.7-1.4,4.5,8.9-2.7,1.4-4.5-8.9Z"/><path d="m75.81,25.22l2.9-.9,4.5,13.9-2.9.9-4.5-13.9Z"/><path d="m82.41,25.33c-.16-.99.51-1.93,1.5-2.09.99-.16,1.93.51,2.09,1.5.16.99-.5,1.92-1.49,2.09-.98.17-1.92-.49-2.1-1.47,0,0,0-.02,0-.03Zm.7,2.6l3-.5,1.6,9.9-3,.5-1.6-9.9Z"/><path d="m89.01,31.92c.13-2.85,2.55-5.06,5.41-4.92.1,0,.2.01.29.02,1.86.09,3.52,1.21,4.3,2.9l-2.7,1.3c-.53-1.13-1.88-1.62-3.01-1.09-.74.35-1.24,1.07-1.29,1.89-.16,1.22.7,2.33,1.92,2.48.06,0,.12.01.18.02.8.07,1.58-.31,2-1l2.5,1.7c-1.02,1.56-2.84,2.41-4.7,2.2-2.88-.17-5.08-2.65-4.91-5.53,0-.06,0-.11.01-.17v.2Z"/><path d="m99.91,32.92c1.13-2.68,4.22-3.94,6.9-2.81,2.68,1.13,3.94,4.22,2.81,6.9-1.13,2.68-4.22,3.94-6.9,2.81,0,0,0,0,0,0-2.66-1.09-3.94-4.14-2.84-6.8.01-.03.03-.07.04-.1Zm7,2.9c.53-1.17.02-2.54-1.14-3.08-.02,0-.04-.02-.06-.02-1.11-.5-2.42,0-2.92,1.11-.03.06-.05.13-.08.19-.56,1.1-.11,2.45.99,3.01.07.03.14.06.21.09,1.11.5,2.42,0,2.92-1.11.03-.06.05-.13.08-.19Z"/><path d="m119.41,44.02l-4.2,4.5-2.2-2,3.9-4.2c.69-.6.76-1.65.16-2.34-.05-.06-.1-.11-.16-.16-.72-.71-1.87-.7-2.57.02-.08.09-.16.18-.23.28l-3.7,4-2.2-2,6.8-7.4,2.2,2-.6.7c1.07-.18,2.17.19,2.9,1,1.5,1.4,1.8,3.6,0,5.6h-.1Z"/><rect class="cls-9" x="64.21" y="51.92" width="52" height="37" rx="2.9" ry="2.9"/><path class="cls-14" d="m86.41,83.02c-2.18.11-4.34-.45-6.2-1.6-1.58-1.02-2.78-2.53-3.4-4.3l5.2-3c.69,1.97,2.62,3.24,4.7,3.1,2.3,0,2.8-.5,2.8-1.6s-.5-1.2-1.6-1.7c-.97-.38-1.98-.68-3-.9-1.91-.44-3.66-1.37-5.1-2.7-1.32-1.19-2.02-2.93-1.9-4.7-.03-2.02.81-3.95,2.3-5.3,1.65-1.39,3.77-2.11,5.92-1.99,1.87-.07,3.71.42,5.3,1.4,1.54.96,2.76,2.35,3.5,4l-5.1,3c-.5-1.61-2.02-2.67-3.7-2.6-1.7,0-1.3.1-1.6.4-.36.25-.59.66-.6,1.1.05.54.34,1.02.8,1.3,1,.59,2.08,1.03,3.2,1.3,1.1.4,2,.7,2.8,1,.8.34,1.56.74,2.3,1.2.78.55,1.43,1.26,1.9,2.1.41.95.61,1.97.6,3,.11,2.1-.83,4.12-2.5,5.4-1.87,1.4-4.17,2.11-6.5,2l-.12.09Z"/><path class="cls-14" d="m102.61,63.33c-.6.63-1.43.99-2.3,1-1.79.03-3.27-1.4-3.31-3.19-.02-.91.35-1.78,1.01-2.41.61-.6,1.44-.92,2.3-.9.85,0,1.68.32,2.3.9.63.6.99,1.43,1,2.3.02.88-.35,1.72-1,2.3Zm-5.1,19.2v-16.91h5.62v16.9h-5.62Z"/><circle class="cls-2" cx="199.99" cy="61.42" r="45"/><rect class="cls-17" x="173.99" y="51.42" width="52" height="37" rx="2.9" ry="2.9"/><path class="cls-14" d="m200.8,81.72l-1.1-3.4h-8l-1,3.4h-6.5l7.5-23.6h7.6l7.8,23.6h-6.3Zm-7.6-8.6h4.8l-2.4-8-2.4,8Z"/><path class="cls-14" d="m208.49,81.72v-24.7h5.63v24.7h-5.63Z"/><path d="m176.13,40.12l-2.4,3.1,1,1.4-1.6,2.1-6.1-9.3,1.9-2.4,10.5,3.7-1.6,2.1-1.6-.6-.1-.1Zm-2.2-.8l-3.8-1.4,2.3,3.3,1.5-1.9Z"/><path d="m172.8,30.33l1.7-1.4,7,8.4-1.7,1.4-7-8.4Z"/><path d="m184.99,26.52l3.6,6.6-2,1.1-.3-.6c-.11.81-.64,1.49-1.4,1.8-1.33.74-3.01.25-3.75-1.08-.06-.1-.11-.21-.15-.32l-2.2-4,2-1.1,2,3.8c.29.65,1.06.94,1.71.65.03-.01.06-.03.09-.05.67-.32.95-1.12.63-1.79-.04-.07-.08-.15-.13-.21l-2-3.6,2-1.1-.1-.1Z"/><path d="m199.6,26.02l.8,4.5-2.2.4-.8-4.3c-.03-.6-.54-1.05-1.14-1.02-.06,0-.11.01-.16.02-.7.1-1.1.7-.9,1.6l.7,4.2-2.2.4-.8-4.3c-.03-.6-.54-1.05-1.14-1.02-.06,0-.11.01-.16.02-.7.1-1.1.7-.9,1.6l.7,4.2-2.2.4-1.3-7.4,2.2-.4v.7c.41-.67,1.12-1.11,1.9-1.2.76-.23,1.58,0,2.1.6.37-.79,1.13-1.33,2-1.4,1.7-.3,3,.7,3.3,2.6l.2-.2Z"/><path d="m201.9,23.62l2.2.2-.6,7.5-2.2-.2.6-7.5Zm0-2c.08-.75.75-1.29,1.5-1.2.75.08,1.29.75,1.2,1.5s-.75,1.29-1.5,1.2c0,0,0,0,0,0-.72-.05-1.26-.66-1.21-1.38,0-.04,0-.08.01-.12Z"/><path d="m212.9,28.72l-1.2,4.4-2.2-.6,1.1-4.1c.24-.68-.11-1.42-.78-1.66-.04-.01-.08-.03-.12-.04-.69-.26-1.46.08-1.72.76-.04.11-.07.22-.08.34l-1.1,3.9-2.2-.6,2-7.2,2.2.6-.2.7c.67-.47,1.53-.58,2.3-.3,1.49.39,2.38,1.91,2,3.4-.03.1-.06.2-.1.3l.1.1Z"/><path d="m222.49,30.72l-3.8,6.4-1.9-1.2.4-.6c-.77.29-1.63.18-2.3-.3-1.32-.77-1.78-2.46-1.01-3.78.06-.11.13-.22.21-.32l2.4-4,1.9,1.2-2.2,3.7c-.41.5-.34,1.24.16,1.65.07.06.15.11.24.15.63.41,1.48.23,1.89-.4.04-.06.08-.13.11-.2l2.1-3.5,1.9,1.2h-.1Z"/><path d="m230.3,43.02l-3.5,3-1.5-1.7,3.4-2.9c.6-.5.7-1.1.2-1.6-.43-.5-1.18-.55-1.68-.12-.04.04-.08.08-.12.12l-3.2,2.7-1.5-1.7,3.4-2.9c.6-.5.7-1.1.2-1.6-.43-.5-1.18-.55-1.68-.12-.04.04-.08.08-.12.12l-3.2,2.7-1.5-1.7,5.7-4.9,1.5,1.7-.5.4c.76,0,1.49.34,2,.9.54.56.73,1.36.5,2.1.85-.02,1.66.35,2.2,1,1.03,1.19.9,3-.29,4.03-.07.06-.14.11-.21.17l-.1.3Z"/><circle class="cls-2" cx="308.89" cy="61.42" r="45"/><path class="cls-25" d="m278.89,63.72v-.6c.31-.48.83-.78,1.4-.8,1.39-.15,2.46-1.3,2.5-2.7v-.5c.05-.45.46-.77.91-.72.03,0,.06,0,.09.02.46-.01.86.34.9.8-.02.27.02.54.1.8.21,1.11,1.09,1.99,2.2,2.2.7.2.7.1.7-.6v-13.5c-.06-.38.2-.74.58-.8.07-.01.15-.01.22,0h30.63c0,.3-.3.4-.5.6l-7.2,7.2c-.2.17-.36.38-.5.6-.19.4-.11.88.2,1.2.32.33.83.37,1.2.1.21-.11.39-.29.5-.5l8.3-8.3c.29-.27.5-.62.6-1h3.4c0,.3-.3.4-.5.6l-13.3,13.3-.5.5c-.25.29-.25.71,0,1,.16.35.52.55.9.5.33-.05.64-.19.9-.4l14.6-14.6c.29-.21.48-.54.5-.9h1.1c1,0,.9-.1.9.9v28.3q0,.8.8.6c1.27-.35,2.16-1.49,2.2-2.8-.06-.49.29-.94.79-1,.07,0,.14,0,.21,0,.6,0,.9.4,1,1,.05,1.54,1.26,2.8,2.8,2.9.52,0,1,.32,1.2.8v.6c-.22.41-.64.67-1.1.7-1.57.04-2.81,1.33-2.8,2.9-.03.34-.17.65-.4.9-.25.23-.61.27-.9.1-.38-.12-.63-.5-.6-.9-.2-1.6-.9-2.6-2.3-2.9-.7-.2-.7-.1-.7.6v12.6c0,.53-.24.8-.7.8h-21.6c0-.3.3-.4.5-.6l7.5-7.5c.5-.6.6-1.1.1-1.5-.39-.38-1.01-.38-1.4,0l-.1.1-8.7,8.7c-.25.25-.42.56-.5.9h-3.4c0-.3.3-.4.5-.6l13.3-13.3c.2-.17.36-.38.5-.6.24-.39.16-.91-.2-1.2-.31-.33-.83-.35-1.16-.04-.01.01-.03.03-.04.04-.1,0-.2.2-.3.3l-14.63,14.63c-.26.24-.44.55-.5.9h-10.1c-.44.06-.84-.25-.9-.69,0-.07,0-.14,0-.21v-27.53c0-.7,0-.8-.7-.6-1.32.36-2.25,1.54-2.3,2.9.03.52-.36.97-.88,1-.04,0-.08,0-.12,0-.55,0-1-.45-1-1v-.3c-.14-1.41-1.28-2.51-2.7-2.6-.52-.02-.99-.28-1.3-.7l-.2-.1Zm5,.6c.37-.22.68-.53.9-.9-.27-.36-.58-.69-.9-1-.35.25-.65.55-.9.9.25.35.55.65.9.9h0v.1Zm50.9,14.2c-.19-.39-.51-.71-.9-.9-.35.25-.65.55-.9.9l.9.9.9-.9Z"/><path class="cls-24" d="m325.3,47.52c.3-.11.54-.32.7-.6.8-.8,1.6-.6,1.9.5-.04.35-.22.68-.5.9l-14.6,14.6c-.21.28-.55.43-.9.4-.37,0-.71-.19-.9-.5-.2-.3-.2-.7,0-1,.11-.21.29-.39.5-.5l13.3-13.3c.2-.2.4-.3.5-.6v.1Z"/><path class="cls-20" d="m301.49,93.32c-.3.1-.5.4-.8.6-.8.7-1.6.5-1.8-.6.02-.36.21-.69.5-.9l14.6-14.6.3-.3c.36-.25.84-.25,1.2,0,.36.29.44.81.2,1.2-.14.22-.3.43-.5.6l-13.3,13.33c-.2.2-.4.3-.5.6l.1.07Z"/><path class="cls-24" d="m319.2,47.52c.2,0,.4-.2.6-.4,1-1,1.6-.8,2.1.4-.08.39-.29.75-.6,1l-8.3,8.3-.5.5c-.37.27-.88.23-1.2-.1-.38-.25-.49-.77-.24-1.15.01-.02.02-.03.04-.05.11-.24.28-.45.5-.6l7.2-7.2c.2-.2.4-.3.5-.6l-.1-.1Z"/><path class="cls-24" d="m307.49,93.42c-.3.11-.54.32-.7.6-.8.8-1.6.5-1.9-.5.02-.33.21-.63.5-.8l8.7-8.7c.25-.43.8-.58,1.23-.33.06.04.12.08.17.13l.1.1c.39.39.39,1.02,0,1.41-.03.03-.06.06-.1.09l-7.5,7.5c-.2.2-.4.3-.4.6l-.1-.1Z"/><path d="m297.2,31.22c2.03,2.82,1.4,6.75-1.41,8.78-.16.11-.32.22-.49.32-2.98,2.46-7.39,2.05-9.86-.93-2.46-2.98-2.05-7.39.93-9.86.38-.31.79-.58,1.22-.81,1.95-1.32,4.44-1.55,6.6-.6l-1.4,2.7c-1.21-.46-2.57-.27-3.6.5-1.8,1.08-2.37,3.42-1.29,5.22.06.1.12.19.19.28,1.2,1.9,3.5,2.4,5.7,1,1.3-.69,2-2.16,1.7-3.6l-3,1.9-1.5-2.2,5.6-3.7.6,1Z"/><path d="m298.13,23.52l2.8-.7,3.5,13.5-2.8.7-3.5-13.5Z"/><path d="m315.6,26.32l-.2,9.6h-2.9v-1c-.76.77-1.82,1.18-2.9,1.1-2.5,0-4.5-2.3-4.5-5.1-.09-2.62,1.96-4.81,4.58-4.9.04,0,.08,0,.12,0,1.07-.05,2.1.39,2.8,1.2v-.9h3Zm-3,4.7c.1-1.22-.8-2.29-2.01-2.39-.06,0-.13,0-.19,0-1.18-.09-2.21.8-2.3,1.99,0,.1,0,.21,0,.31-.1,1.22.8,2.29,2.01,2.39.06,0,.13,0,.19,0,1.18.09,2.21-.8,2.3-1.99,0-.1,0-.21,0-.31Z"/><path d="m324.3,36.22c-.8,2.1-2.9,2.3-4.8,1.6-1.65-.49-2.86-1.9-3.1-3.6l2.8-.5c-.07.73.39,1.4,1.1,1.6.6.2,1,.2,1.2-.2.4-1-4.2-2.1-3.1-5.2.7-2,2.7-2.3,4.6-1.6,1.45.47,2.53,1.7,2.8,3.2l-2.8.4c.03-.56-.35-1.07-.9-1.2-.5-.2-.8-.1-.9.2-.4,1,4.3,2,3.1,5.3Z"/><path d="m330.99,41.02c-1.3,1.8-3.4,1.4-5.1.2-1.46-.91-2.25-2.6-2-4.3l2.8.3c-.22.72.06,1.5.7,1.9.6.4,1,.4,1.2.1.6-.9-3.5-3.2-1.6-5.8,1.2-1.7,3.3-1.5,4.9-.3,1.27.82,1.97,2.29,1.8,3.8l-2.8-.4c0-.6,0-1.1-.5-1.4s-.8-.3-1,0c-.6.9,3.6,3.1,1.5,5.9h.1Z"/><line class="cls-6" x1="199.7" y1="251.63" x2="200.2" y2="284.41"/><line class="cls-5" x1="199.7" y1="251.63" x2="200.04" y2="273.65"/><polygon class="cls-23" points="192.52 271.57 200.2 284.41 207.48 271.35 192.52 271.57"/><circle class="cls-4" cx="200" cy="338.58" r="45"/><path d="m166.7,323.38c1.9.7,2.8,2.8,2,4.7l-.6,1.5,3.1,1.2-.9,2.2-9.8-3.8,1.4-3.7c.7-1.9,2.8-2.9,4.7-2.1h.1Zm-.9,2.2c-.7-.3-1.5,0-1.7.7l-.6,1.5,2.5,1,.6-1.5c.3-.7,0-1.4-.8-1.7Z"/><path d="m174,316.88l3.7,2.7-1.3,1.8-3.4-2.5c-.7-.6-1.4-.3-1.9.2-.5.7-.4,1.4.4,2l3.3,2.4-1.3,1.8-8.5-6.2,1.3-1.8,3,2.2c-.2-.7,0-1.5.5-2.3.9-1.2,2.5-1.6,4.2-.4v.1Z"/><path d="m175.7,316.28c-1.4-1.8-1.1-4.2.7-5.6,1.7-1.4,4.2-1.1,5.6.6,1.4,1.8,1.1,4.2-.7,5.6-1.7,1.4-4.2,1.1-5.6-.6Zm4.5-3.5c-.7-.8-1.7-.9-2.5-.3s-.9,1.6-.3,2.5c.7.8,1.7.9,2.5.3s.9-1.6.3-2.5Z"/><path d="m189.7,306.98l1.8,4.2-2.1.9-1.7-3.9c-.4-.9-1.1-1-1.7-.7-.8.3-1.1,1-.7,2l1.6,3.8-2.1.9-2.9-6.9,2.1-.9.3.6c.2-.7.7-1.3,1.6-1.7,1.4-.6,3-.1,3.8,1.8v-.1Z"/><path d="m195.9,308.68c.6,0,1.1-.4,1.3-.8l1.9.8c-.6,1.1-1.6,1.8-3,2-2.5.4-4.4-1.1-4.7-3.4-.3-2.2,1.1-4.1,3.4-4.5,2.2-.3,4,1.2,4.3,3.4v.9l-5.3.7c.4.7,1.1.9,1.9.8l.2.1Zm1-2.9c-.4-.8-1.1-1-1.7-1-.8.1-1.4.6-1.5,1.4l3.2-.4Z"/><path d="m201.1,304.58l5.7.6-.2,2.1-5.7-.6.2-2.1Z"/><path d="m216.1,310.18c-.8,2.1-2.9,3.1-4.8,2.4-.9-.4-1.5-.9-1.8-1.6l-.3.7-2.1-.8,3.7-9.8,2.1.8-1.3,3.5c.7-.4,1.5-.4,2.4,0,1.8.7,2.7,2.9,1.9,5l.2-.2Zm-2.1-.8c.4-1.1,0-2-1-2.3-1-.4-1.9,0-2.3,1.1-.4,1.1,0,2,1,2.3,1,.4,1.9,0,2.3-1.1Z"/><path d="m217.2,310.88c1.3-1.8,3.8-2.1,5.6-.8,1.8,1.3,2.2,3.8.8,5.5-1.3,1.8-3.8,2.1-5.6.8-1.8-1.3-2.2-3.8-.8-5.5Zm4.6,3.4c.6-.9.5-1.9-.3-2.5s-1.8-.5-2.4.4-.5,1.9.3,2.5,1.8.5,2.4-.4Z"/><path d="m234.7,318.78l-8.3,6.4-1.4-1.8.6-.4c-.8,0-1.5-.4-2.1-1.2-1.2-1.6-.8-3.9,1-5.3,1.8-1.4,4.1-1.1,5.3.4.6.8.8,1.6.6,2.3l2.9-2.3,1.4,1.8v.1Zm-6.7,2.3c.9-.7,1-1.7.4-2.5s-1.6-1-2.5-.3-1,1.7-.4,2.5,1.6,1,2.5.3Z"/><path d="m236.5,329.78l-7.7.4c-2.5.1-3.9-.7-4.6-2.7l1.9-.8c.4,1,.9,1.3,1.9,1.3l5.5-5.5.9,2.3-3.6,3.3,4.8-.5.9,2.2h0Z"/><path d="m240.5,335.18l-10.3,1.9-.4-2.4,7.8-1.4-.8-1.7,1.9-.9,1.5,2.5.4,2.1-.1-.1Z"/><path class="cls-22" d="m189.4,371.88c0-.2-.2-.1-.4-.2-2-.5-3.4-2.3-3.4-4.4v-38.8c0-2.7,1.1-4.2,3.6-5,0,0,.1,0,.1-.1h3.4v.1c.5,1.3,1.1,2.6,1.6,3.9.1.3.4.4.7.4h9.7c.4,0,.7-.2.8-.5.2-.5.4-1,.6-1.5.3-.8.7-1.5.9-2.4h3.3c.2.2.5.2.8.3,1.8.6,3,2.3,3.1,4.2v38.8c0,2.8-1.1,4.3-3.8,5.2h-21.1.1Zm23.7-7.3h0v-33.8c0-.4-.3-.2-.5-.2h-25.5c-.4,0-.5.1-.5.5v33.4h26.3l.2.1Zm-13.1,3.1h-4.4c-.5,0-.7.2-.6.7,0,.4.4.5.7.5h8.6c.5,0,.7-.2.7-.6,0-.5-.3-.5-.7-.5h-4.3v-.1Z"/><path class="cls-13" d="m207.2,323.38c-.2.8-.6,1.6-.9,2.4-.2.5-.4,1-.6,1.5-.1.3-.4.6-.8.5h-9.7c-.3,0-.6-.1-.7-.4-.5-1.3-1.1-2.6-1.6-3.9v-.1h14.4-.1Z"/><path class="cls-1" d="m186.9,364.58c-.2-.1,0-.3,0-.4v-33c0-.4,0-.5.5-.5h25.5c.2,0,.4-.2.5.2-.2,0-.3.2-.5.4-.4.5-.7,1-1.1,1.4-1.4,1.8-2.9,3.7-4.3,5.5-1.1,1.5-2.3,2.9-3.4,4.4-1.4,1.8-2.9,3.7-4.3,5.5-1.1,1.5-2.3,2.9-3.4,4.4-1.5,2-3.1,3.9-4.6,5.9-1.1,1.4-2.2,2.8-3.2,4.2-.5.7-1.1,1.3-1.5,2h-.2Z"/><path class="cls-16" d="m186.9,364.58c.4-.7,1-1.3,1.5-2,1.1-1.4,2.2-2.8,3.2-4.2,1.5-2,3.1-3.9,4.6-5.9,1.1-1.5,2.3-2.9,3.4-4.4,1.4-1.8,2.9-3.7,4.3-5.5,1.1-1.5,2.3-2.9,3.4-4.4,1.4-1.8,2.9-3.7,4.3-5.5.4-.5.7-.9,1.1-1.4.1-.2.2-.3.5-.4v33.7h-26.3Z"/><path class="cls-8" d="m200,367.68h4.3c.4,0,.7,0,.7.5,0,.4-.2.6-.7.6h-8.6c-.3,0-.6,0-.7-.5,0-.4.1-.7.6-.7h4.4v.1Z"/><path d="m198.3,334.28h5.7v25.9h-6.6v-18.9l-4.5,1.1-1.6-5.6s7-2.5,7-2.5Z"/><circle class="cls-3" cx="199.36" cy="197.7" r="38.3"/><path class="cls-10" d="m209.4,181.02c.19.24.42.44.68.6,1,.92,1.55,2.22,1.53,3.57v38.55c0,3.06-1.53,4.85-4.68,5.11-5.1.43-10.22.43-15.32,0-2.51-.07-4.5-2.16-4.43-4.67,0-.06,0-.12,0-.18v-38.81c-.14-2.54,1.81-4.71,4.35-4.85.03,0,.05,0,.08,0,4.48-.31,8.96-.37,13.45-.17.31-.01.63.01.94.09,1.19-.02,2.37.19,3.49.6l-.09.17Zm-9.28,5.62h-9.45c-.6,0-.77.17-.77.77v9.79c0,3.23,0,2.04,2.04,1.96h16.26c.51,0,.6-.17.6-.6v-11.26c0-.43-.09-.68-.6-.68h-8.09v.03Zm1.79,25.11c-1.96,0-1.79,0-1.79,1.87,0,.6.26.85.85.85h1.36c1.11,0,1.19,0,1.19-1.11,0-1.87.17-1.62-1.62-1.62Zm-5.02,0h-.94c-.51,0-.85.17-.68.68.17.68-.6,1.79.68,2.04.65.09,1.31.09,1.96,0,.37.02.69-.24.77-.6.43-1.62,0-2.13-1.62-2.13h-.17Zm0-4c-1.87,0-1.62-.17-1.7,1.7v.26c0,.6.26.85.77.85h1.96c.34-.01.62-.26.68-.6.43-1.62,0-2.13-1.62-2.13h0l-.09-.09Zm5.11,0h-1.11c-.43,0-.68.17-.68.6,0,1.96-.17,2.21,1.79,2.13h.43c1.11,0,1.19-.17,1.19-1.19,0-1.79.17-1.62-1.62-1.62h0v.09Zm-.09,10.81h.85c.43,0,.85-.09.85-.6,0-.68.43-1.53-.34-2.13h-2.38c-.32-.02-.61.19-.68.51-.43,1.62,0,2.21,1.7,2.21h0Zm-4.94,0h.85c.51,0,.85-.17.85-.68,0-.68.43-1.53-.34-2.04h-2.38c-.29,0-.55.17-.68.43-.51,1.53,0,2.3,1.62,2.3h.09Zm0-14.81h-.77c-.6,0-.85.17-.85.85q0,1.96,1.96,1.96h.68c.39.01.73-.29.77-.68.34-1.7,0-2.13-1.7-2.13h-.09Zm5.11,0h-1.11c-.43,0-.68.17-.68.68,0,1.96-.17,2.21,1.79,2.13h.43c1.11,0,1.19-.17,1.19-1.19,0-1.79.17-1.62-1.62-1.62h0Zm-10.04,14.81h.68c.77,0,1.02-.26.94-1.02,0-2.04.26-1.79-1.79-1.79h-.34c-1.11,0-1.19,0-1.11,1.11,0,1.53-.34,1.7,1.62,1.62v.09Zm14.98-2.81h-.68c-.68-.09-.94.17-.94.94,0,1.96-.34,1.87,1.87,1.87h.34q1.11,0,1.11-1.11c0-1.87.17-1.62-1.62-1.62h0l-.09-.09Zm0-4h-.85c-.6,0-.77.26-.77.85,0,2.04-.34,1.96,1.96,1.96h.26c1.02,0,1.11-.09,1.11-1.11,0-1.87.17-1.7-1.62-1.7h-.09Zm-14.89,0h-.75c-.68,0-.94.17-.94.94,0,1.96-.34,1.87,1.87,1.87h.34c1.02,0,1.11-.09,1.11-1.19,0-1.79.17-1.62-1.62-1.62h-.02Zm0-4h-.75c-.68,0-.94.17-.85.85,0,1.96-.17,1.96,1.87,1.87h.26c1.11,0,1.19,0,1.19-1.19,0-1.79.17-1.62-1.62-1.62l-.1.09Zm14.98-4h-.85c-.6,0-.77.26-.77.85,0,2.04-.17,1.96,1.96,1.96h.26c1.02,0,1.11-.09,1.11-1.11,0-1.87.17-1.62-1.62-1.7h-.09Zm0,4c-1.87,0-1.62-.26-1.7,1.7v.17c0,.68.26.94.94.94h1.21c1.02,0,1.11-.09,1.11-1.19,0-1.79.17-1.62-1.62-1.62h.07Zm-14.98-4h-.85c-.6,0-.77.26-.77.85,0,2.04-.17,1.96,1.96,1.96h.26c1.02,0,1.11-.09,1.11-1.11,0-1.87.17-1.62-1.62-1.7h-.09Zm9.11-19.49c.34,0,.6-.09.51-.51s-.17-.43-.51-.43-.6.09-.51.51.17.43.51.43Zm2.13-.43c0-.34-.17-.43-.51-.43s-.6,0-.6.43.17.43.51.43.6-.09.6-.43Zm-4.94,41.45c.04-.25-.14-.48-.38-.51-.04,0-.09,0-.13,0-.34,0-.43.26-.43.51s.17.51.43.51c.26-.03.45-.25.43-.51h.09Zm-1.79-41.87c-.27,0-.51.17-.6.43,0,.27.2.5.48.51.01,0,.02,0,.03,0,.26,0,.43-.09.43-.34h0c0-.34-.09-.51-.43-.51l.09-.09Zm1.96.43c0-.34-.17-.43-.51-.43-.24-.05-.46.1-.51.34-.05.24.1.46.34.51.06.01.11.01.17,0,.34,0,.43-.17.43-.43h.09Zm-.17,37.96c0-.34-.26-.43-.51-.43-.22-.01-.41.15-.43.37,0,.02,0,.04,0,.05,0,.34.17.51.43.51s.43-.17.43-.51h.09Zm3.4-.09c0-.17-.09-.34-.43-.34s-.51.09-.51.43.17.51.43.51.43-.17.43-.6h.09Zm-.34,4c.26,0,.34-.17.34-.43.02-.26-.17-.48-.43-.51-.22-.02-.42.14-.44.36,0,.05,0,.1.01.15.09.34.17.43.6.43h-.09Zm-1.36-41.87c0-.34-.26-.43-.51-.43s-.43.17-.34.51.26.43.51.43c.26-.03.45-.25.43-.51h-.09Zm-.43,37.7c.22.01.41-.15.43-.37,0-.02,0-.04,0-.05,0-.34-.17-.51-.51-.43s-.43.17-.43.51c.03.26.25.45.51.43h0v-.09Zm-2.55,2.47c.26,0,.43-.09.51-.43s-.09-.51-.43-.51-.43.09-.51.43.09.51.43.51h0Zm4.85-.94c-.21,0-.37.18-.37.38,0,.04,0,.09.03.13,0,.26.17.43.51.34s.43-.26.43-.51c-.03-.26-.25-.45-.51-.43l-.09.09Zm-2.38,3.4c.22.01.41-.15.43-.37,0-.02,0-.04,0-.05,0-.34-.17-.51-.43-.51-.22-.01-.41.15-.43.37,0,.02,0,.04,0,.05,0,.34.17.49.43.49v.03Zm-.51-2.64c0-.26-.09-.43-.43-.43-.22-.01-.41.15-.43.37,0,.02,0,.04,0,.05,0,.26.09.51.34.51.25,0,.46-.18.51-.43h0v-.09Zm.68.34c-.22-.01-.41.15-.43.37,0,.02,0,.04,0,.05.03.26.25.45.51.43h0c.26,0,.34-.26.34-.43.01-.22-.15-.41-.37-.43-.02,0-.04,0-.05,0Zm0-1.62c.02-.21-.13-.4-.34-.43-.25,0-.46.18-.51.43,0,.17.09.43.34.43h0c.26,0,.34-.26.43-.43h.09Zm.85,1.11c.18-.01.33-.16.34-.34,0-.17,0-.34-.26-.43h-.09c-.26,0-.34.17-.43.34s0,.34.34.34l.09.09Z"/><path class="cls-18" d="m202.44,186.64h5.79c.51,0,.6.17.6.68v11.23c0,.43-.09.6-.6.6h-13.02c.02-.18.08-.36.17-.51,1.62-2.64,3.15-5.28,4.77-7.91.85-1.31,1.62-2.68,2.3-4.09Z"/><path class="cls-18" d="m191.96,199.06c-1.36,0-2.04-.65-2.04-1.96v-9.81c0-.6.17-.77.77-.77h8.51c-.6,1.24-1.28,2.43-2.04,3.57-1.7,2.98-3.49,5.87-5.19,8.85v.11Z"/><path class="cls-12" d="m202.44,186.64c-.68,1.41-1.45,2.77-2.3,4.09-1.53,2.64-3.15,5.28-4.77,7.91,0,.17-.17.34-.17.51h-1.36c.02-.18.08-.36.17-.51,1.36-2.21,2.72-4.51,4-6.72,1.02-1.79,2.13-3.4,3.06-5.28h1.36Z"/><path class="cls-7" d="m201.06,186.64c-.94,1.79-2.04,3.49-3.06,5.28-1.36,2.3-2.72,4.51-4,6.72,0,.17-.17.34-.17.51h-.94c.39-1,.9-1.94,1.53-2.81,1.87-3.23,3.83-6.47,5.7-9.62h.94v-.09Z"/><path class="cls-11" d="m200.13,186.64c-1.87,3.23-3.83,6.38-5.7,9.62-.62.87-1.14,1.81-1.53,2.81h-.94c1.79-2.89,3.49-5.87,5.19-8.85.76-1.14,1.44-2.34,2.04-3.57h.94Z"/><path class="cls-15" d="m201.91,211.74c1.87,0,1.62-.17,1.62,1.62,0,1.02,0,1.11-1.19,1.11h-1.36c-.42.05-.8-.25-.85-.67,0-.06,0-.12,0-.18,0-1.96-.17-1.96,1.79-1.87Z"/><path class="cls-15" d="m196.81,211.74h0c1.62,0,2.04.51,1.62,2.13-.04.37-.38.64-.76.6,0,0,0,0-.01,0-.65.04-1.31.04-1.96,0-1.28-.26-.51-1.36-.68-2.04-.09-.51.17-.77.68-.68h1.11Z"/><path class="cls-15" d="m196.81,207.72h0c1.62,0,2.04.51,1.62,2.13-.06.33-.34.58-.68.6h-1.96c-.51,0-.85-.26-.77-.85v-.26c0-1.87-.26-1.7,1.7-1.7l.09.09Z"/><path class="cls-15" d="m201.91,207.72c1.79,0,1.62-.17,1.62,1.62,0,1.02-.17,1.19-1.19,1.19h-.43c-2.04,0-1.79-.17-1.79-2.13,0-.43.26-.6.68-.6h1.11v-.09Z"/><path class="cls-15" d="m201.83,218.55c-1.62,0-2.13-.6-1.7-2.21.07-.32.36-.53.68-.51h2.38c.77.6.34,1.45.34,2.13,0,.51-.43.6-.85.6h-.85Z"/><path class="cls-15" d="m196.81,218.55c-1.53,0-2.13-.85-1.62-2.3.05-.3.34-.49.63-.44.02,0,.03,0,.05.01h2.38c.77.6.34,1.36.34,2.04,0,.43-.34.68-.85.68h-.94Z"/><path class="cls-15" d="m196.81,203.66h0c1.7,0,2.04.43,1.7,2.13,0,.43-.34.6-.77.68h-.68q-1.96,0-1.96-1.96c0-1.96.26-.94.85-.85h.85Z"/><path class="cls-15" d="m201.91,203.66c1.79,0,1.62-.17,1.62,1.62,0,1.02-.17,1.19-1.19,1.19h-.43c-2.04,0-1.79-.17-1.79-2.13,0-.43.26-.6.68-.68h1.11Z"/><path class="cls-15" d="m191.87,218.55c-1.96,0-1.62-.09-1.62-1.62q0-1.11,1.11-1.11h.34c2.04,0,1.79-.26,1.79,1.79,0,.77-.26,1.02-.94,1.02h-.68v-.09Z"/><path class="cls-15" d="m206.85,215.74c1.87,0,1.62-.17,1.62,1.62q0,1.11-1.11,1.11h-.34c-2.21,0-1.79,0-1.87-1.87,0-.68.26-1.02.94-.94h.68l.09.09Z"/><path class="cls-15" d="m206.85,211.74c1.79,0,1.62-.17,1.62,1.7,0,1.02-.09,1.11-1.11,1.11h-.26c-2.3,0-1.87.09-1.96-1.96,0-.6.17-.85.77-.85h.94Z"/><path class="cls-15" d="m191.87,211.74c1.79,0,1.53-.17,1.62,1.62,0,1.02,0,1.19-1.11,1.19h-.34c-2.21,0-1.79,0-1.87-1.87,0-.68.26-1.02.94-.94h.77Z"/><path class="cls-15" d="m191.87,207.72c1.79,0,1.62-.17,1.62,1.62,0,1.11,0,1.19-1.19,1.19h-.26c-2.04,0-1.79,0-1.87-1.87,0-.68.17-.94.85-.85h.77l.09-.09Z"/><path class="cls-15" d="m206.85,203.66c1.79,0,1.62-.17,1.62,1.7,0,1.02-.09,1.11-1.11,1.11h-.26c-2.13,0-1.87.09-1.96-1.96,0-.6.17-.85.77-.85h.94Z"/><path class="cls-15" d="m206.85,207.72c1.79,0,1.62-.17,1.62,1.62,0,1.11-.09,1.19-1.11,1.19h-1.19c-.68,0-.94-.26-.94-.94v-.17c0-1.87-.26-1.7,1.7-1.7h-.09Z"/><path class="cls-15" d="m191.87,203.66c1.79,0,1.62-.17,1.62,1.62,0,1.02-.09,1.11-1.11,1.11h-.26c-2.13,0-1.96.09-1.96-1.96,0-.6.17-.85.77-.85h.85l.09.09Z"/><path class="cls-19" d="m200.98,184.26c-.26,0-.51-.09-.51-.43,0-.27.2-.5.48-.51.01,0,.02,0,.03,0,.26,0,.51.09.51.43,0,.27-.2.5-.48.51-.01,0-.02,0-.03,0Z"/><path class="cls-19" d="m203.02,183.83c0,.34-.26.43-.6.43s-.51-.17-.51-.43.26-.43.6-.43.51.17.51.43Z"/><path class="cls-21" d="m198.09,225.19c.02.26-.17.48-.43.51-.22.02-.42-.14-.44-.36,0-.05,0-.1.01-.15,0-.26.09-.51.43-.51.25-.04.48.14.51.38,0,.04,0,.09,0,.13h-.09Z"/><path class="cls-19" d="m196.3,183.32c.34,0,.43.17.43.51.01.22-.15.41-.37.43-.02,0-.04,0-.05,0h0c-.34,0-.6-.17-.51-.51s.26-.43.6-.43h-.09Z"/><path class="cls-19" d="m198.26,183.74c0,.34-.17.51-.43.43-.24.05-.46-.1-.51-.34-.05-.24.1-.46.34-.51.06-.01.11-.01.17,0,.26,0,.51.09.51.43h-.09Z"/><path class="cls-19" d="m198.09,221.7c0,.34-.17.51-.43.51s-.43-.17-.43-.51.09-.43.43-.43.51.09.51.43h-.09Z"/><path class="cls-19" d="m201.49,221.62c0,.43-.17.6-.43.6s-.43-.17-.43-.51.26-.43.51-.43c.21-.02.4.13.43.34h-.09Z"/><path class="cls-19" d="m201.15,225.59c-.34,0-.6-.09-.6-.43s.17-.51.43-.51.43.17.43.51-.09.43-.34.43h.09Z"/><path class="cls-19" d="m199.79,183.74c.03.23-.12.45-.34.51-.26,0-.51-.09-.51-.43-.03-.23.12-.45.34-.51.34,0,.51.09.51.43Z"/><path class="cls-19" d="m199.36,221.45c-.26,0-.43-.09-.51-.43s.09-.51.43-.51.51.17.51.43c.01.22-.15.41-.37.43-.02,0-.04,0-.05,0v.09Z"/><path class="cls-19" d="m196.89,223.89c-.34,0-.43-.17-.43-.51s.17-.43.51-.43.43.17.43.51-.17.43-.51.43Z"/><path class="cls-19" d="m201.74,222.98c.34,0,.51.09.51.34s-.09.51-.43.51c-.23.03-.45-.12-.51-.34,0-.34.09-.51.34-.51h.09Z"/><path class="cls-19" d="m199.36,219.57c-.18-.01-.33-.16-.34-.34,0-.17.09-.26.34-.26.17-.01.33.11.34.29,0,.02,0,.04,0,.05,0,.17-.09.26-.34.26Z"/><path class="cls-21" d="m198.85,223.74c-.05.24-.26.42-.51.43-.26,0-.43-.17-.34-.51s.17-.43.43-.43.34.26.43.43v.09Z"/><path class="cls-21" d="m199.53,224.09c.22-.01.41.15.43.37,0,.02,0,.04,0,.05,0,.26,0,.43-.34.43s-.51-.09-.51-.34h0c0-.26.17-.34.43-.43v-.09Z"/><path class="cls-21" d="m199.45,222.55c-.02.23-.2.41-.43.43-.21.02-.4-.13-.43-.34h0c.03-.26.25-.45.51-.43.26,0,.34.17.34.43v-.09Z"/><path class="cls-19" d="m200.38,223.57c-.34,0-.43-.17-.34-.34s.17-.43.43-.34c.18.01.33.16.34.34v.09c-.01.18-.16.33-.34.34l-.09-.09Z"/><path d="m171.96,193.2c2.25-.21,4.24,1.44,4.45,3.68,0,.03,0,.06,0,.09l.18,3.35-8.32.52-.18-3.35c-.15-2.21,1.52-4.13,3.73-4.29.05,0,.09,0,.14,0Zm.15,1.82c-1.17-.05-2.16.85-2.21,2.02,0,.1,0,.2,0,.3l.07,1.46,4.67-.34-.07-1.46c-.05-1.22-1.08-2.17-2.3-2.12-.06,0-.13,0-.19.02l.03.12Z"/><path d="m169.02,191.31c-.6-.11-1-.68-.9-1.28.11-.6.68-1,1.28-.9.6.11,1,.68.9,1.28h0c-.1.59-.65,1-1.25.9-.01,0-.02,0-.03,0Zm1.56.09l.3-1.73,5.83,1.01-.3,1.73-5.83-1.01Z"/><path d="m176.84,184.8c1.33.45,1.49,1.77,1.02,2.98-.28,1.01-1.12,1.77-2.16,1.95l-.31-1.72c.46.06.88-.25.96-.7.16-.4.11-.64-.15-.71-.66-.22-1.28,2.62-3.2,1.99-1.21-.47-1.47-1.65-1.07-2.91.27-.91,1.02-1.6,1.95-1.78l.24,1.67c-.36.03-.66.27-.79.6-.13.18-.09.43.08.56.01.01.03.02.04.03.66.22,1.2-2.67,3.27-1.95l.12-.03Z"/><path d="m179.86,178.05c1.41.85,1.86,2.68,1.02,4.09-.01.02-.03.05-.05.07-.37.57-.95.96-1.61,1.09l2.51,1.61-1.01,1.58-6.88-4.72.97-1.5.5.32c-.13-.65.01-1.33.39-1.87.97-1.3,2.8-1.58,4.11-.61.03.02.06.04.09.07l-.03-.12Zm-.97,1.5c-.64-.47-1.54-.34-2.01.3,0,0,0,.01-.01.02-.45.57-.35,1.4.22,1.85.05.04.1.07.15.1.64.47,1.54.34,2.01-.3,0,0,0-.01.01-.02.47-.53.42-1.33-.1-1.8-.08-.07-.16-.12-.25-.17v.02Z"/><path d="m176.99,173.07l1.28-1.2,5.94,6.34-1.28,1.2-5.94-6.34Z"/><path d="m186.93,169.23l3.09,5.12-1.52.95-.29-.49c-.13.65-.56,1.2-1.15,1.48-1.58.73-3.46.04-4.19-1.55-.62-1.35-.22-2.96.98-3.85.56-.37,1.26-.47,1.91-.29l-.29-.49,1.52-.95-.05.07Zm.01,3.45c-.37-.69-1.23-.95-1.92-.58-.02,0-.03.02-.04.03-.73.38-1.01,1.28-.63,2.01.38.73,1.28,1.01,2.01.63.73-.38,1.01-1.28.63-2.01-.01-.02-.03-.05-.04-.07Z"/><path d="m194.68,166.93l-.51,6.15c-.18,2.01-1.01,2.99-2.66,3.35l-.41-1.57c.69-.08,1.2-.67,1.18-1.37l-3.72-4.92,1.93-.48,2.23,3.15.14-3.85,1.86-.53-.05.07Z"/><path d="m206.62,174.77l-1.55-2.84-.32,2.6-1.76-.2,1.11-8.27,1.76.2-.69,4.94,2.12-2.33,2.11.3-2.53,2.64,1.8,3.29-1.99-.27-.04-.07Z"/><path d="m211.73,174.89c.4.17.86.16,1.26,0l1,1.3c-.87.53-1.95.57-2.85.1-1.61-.52-2.49-2.24-1.97-3.85.03-.09.06-.18.1-.27.56-1.56,2.28-2.36,3.84-1.8.1.04.2.08.29.12,1.55.62,2.31,2.39,1.68,3.94-.02.04-.03.08-.05.11-.07.23-.25.43-.32.66l-3.91-1.65c-.01.61.4,1.15,1,1.3l-.07.04Zm1.85-1.59c.07-.59-.24-1.16-.78-1.42-.53-.28-1.19-.12-1.55.36l2.36.94-.03.12Z"/><path d="m222.21,176.14l-5.13,3.39c-1.71,1.13-3.01,1.06-4.27,0l1.02-1.33c.48.5,1.27.54,1.79.09l1.49-5.96,1.6,1.16-1.16,3.74,3.04-2.24,1.49,1.13.12.03Z"/><path d="m224.91,184.27c-1.24,1.05-3.09.9-4.14-.34-.02-.03-.04-.05-.07-.08-.44-.51-.64-1.18-.52-1.85l-2.33,1.76-1.08-1.45,6.67-5.01,1.08,1.45-.52.29c.67.11,1.26.48,1.64,1.04.92,1.33.59,3.16-.75,4.08-.03.02-.06.04-.09.06l.12.03Zm-1.08-1.45c.61-.4.79-1.22.39-1.84-.04-.05-.07-.1-.12-.15-.37-.61-1.17-.8-1.78-.43-.08.05-.15.1-.21.16-.61.4-.79,1.22-.39,1.84.04.05.07.1.12.15.37.61,1.17.8,1.78.43.08-.05.15-.1.21-.16h0Z"/><path d="m230.4,190.19l-5.6,2-.63-1.69.45-.24c-.63-.19-1.11-.72-1.23-1.36-.4-1.7.65-3.41,2.36-3.81,1.45-.34,2.94.38,3.58,1.72.28.62.24,1.33-.12,1.91l.45-.24c.04.07.67,1.77.67,1.77l.07-.04Zm-3.38-.68c.69-.17,1.11-.88.94-1.57-.02-.09-.05-.17-.09-.25-.24-.72-1.02-1.12-1.74-.88-.03,0-.05.02-.08.03-.69.17-1.11.88-.94,1.57.02.09.05.17.09.25.25.72,1.04,1.1,1.76.85.01,0,.03,0,.04-.01h.03Z"/><path d="m233.51,198.77l-8.33.38-.1-1.79.57-.02c-.54-.4-.82-1.06-.75-1.72.02-1.65,1.36-2.99,3.01-3.01,1.61-.16,3.05,1.01,3.22,2.63,0,.02,0,.05,0,.07.05.67-.19,1.33-.66,1.81l2.93-.15.1,1.79Zm-5.43-1.59c.78,0,1.43-.63,1.43-1.41,0-.02,0-.03,0-.05,0-.74-.61-1.33-1.35-1.33-.05,0-.1,0-.15,0-.78,0-1.43.63-1.43,1.41,0,.02,0,.03,0,.05,0,.74.61,1.33,1.35,1.33.05,0,.1,0,.15,0h0Z"/></svg>