<?xml version="1.0" encoding="UTF-8"?><svg id="Layer_1" xmlns="http://www.w3.org/2000/svg" viewBox="0 0 400 400"><defs><style>.cls-1{fill:#a7cefe;}.cls-2{stroke:#a5262d;}.cls-2,.cls-3,.cls-4{stroke-width:4px;}.cls-2,.cls-3,.cls-4,.cls-5{fill:none;stroke-miterlimit:10;}.cls-3{stroke:#000;}.cls-6{fill:#fff;}.cls-7{fill:#727272;}.cls-8{fill:#d2d5d7;}.cls-9{fill:#445367;}.cls-10{fill:#546e7a;}.cls-4{stroke:#c000e2;}.cls-11{fill:#626363;}.cls-12{fill:#455368;}.cls-13{fill:#717f8f;}.cls-14{fill:#93dbfe;}.cls-15{fill:#ffed58;}.cls-5{stroke:#231f20;stroke-width:2px;}.cls-16{fill:#36464e;}.cls-17{fill:#6f7070;}.cls-18{fill:#0aaffe;}.cls-19{fill:#d1d5d6;}.cls-20{fill:#728090;}.cls-21{fill:#788f9b;}.cls-22{fill:#636363;}.cls-23{fill:#b6d6fd;}.cls-24{fill:#445368;}.cls-25{fill:#6ab579;}.cls-26{fill:#3f4a5b;}.cls-27{fill:#fbd734;}.cls-28{fill:#231f20;}.cls-29{fill:#2dbafe;}</style></defs><line class="cls-6" x1="144.26" y1="200.07" x2="111.48" y2="199.57"/><line class="cls-5" x1="144.26" y1="200.07" x2="122.25" y2="199.73"/><polygon class="cls-28" points="124.55 192.28 111.48 199.57 124.32 207.24 124.55 192.28"/><line class="cls-6" x1="256.48" y1="200.07" x2="289.26" y2="199.57"/><line class="cls-5" x1="256.48" y1="200.07" x2="278.5" y2="199.73"/><polygon class="cls-28" points="276.42 207.24 289.26 199.57 276.2 192.29 276.42 207.24"/><line class="cls-6" x1="200.12" y1="144.2" x2="200.62" y2="111.43"/><line class="cls-5" x1="200.12" y1="144.2" x2="200.46" y2="122.19"/><polygon class="cls-28" points="207.9 124.49 200.62 111.43 192.95 124.26 207.9 124.49"/><line class="cls-6" x1="200.12" y1="255.43" x2="200.62" y2="288.2"/><line class="cls-5" x1="200.12" y1="255.43" x2="200.46" y2="277.44"/><polygon class="cls-28" points="192.95 275.37 200.62 288.2 207.9 275.14 192.95 275.37"/><circle class="cls-4" cx="200.47" cy="338.55" r="45"/><path d="m167.17,323.35c1.9.7,2.8,2.8,2,4.7l-.6,1.5,3.1,1.2-.9,2.2-9.8-3.8,1.4-3.7c.7-1.9,2.8-2.9,4.7-2.1h.1Zm-.9,2.2c-.7-.3-1.5,0-1.7.7l-.6,1.5,2.5,1,.6-1.5c.3-.7,0-1.4-.8-1.7Z"/><path d="m174.47,316.85l3.7,2.7-1.3,1.8-3.4-2.5c-.7-.6-1.4-.3-1.9.2-.5.7-.4,1.4.4,2l3.3,2.4-1.3,1.8-8.5-6.2,1.3-1.8,3,2.2c-.2-.7,0-1.5.5-2.3.9-1.2,2.5-1.6,4.2-.4v.1Z"/><path d="m176.17,316.25c-1.4-1.8-1.1-4.2.7-5.6,1.7-1.4,4.2-1.1,5.6.6,1.4,1.8,1.1,4.2-.7,5.6-1.7,1.4-4.2,1.1-5.6-.6Zm4.5-3.5c-.7-.8-1.7-.9-2.5-.3s-.9,1.6-.3,2.5c.7.8,1.7.9,2.5.3s.9-1.6.3-2.5Z"/><path d="m190.17,306.95l1.8,4.2-2.1.9-1.7-3.9c-.4-.9-1.1-1-1.7-.7-.8.3-1.1,1-.7,2l1.6,3.8-2.1.9-2.9-6.9,2.1-.9.3.6c.2-.7.7-1.3,1.6-1.7,1.4-.6,3-.1,3.8,1.8v-.1Z"/><path d="m196.37,308.65c.6,0,1.1-.4,1.3-.8l1.9.8c-.6,1.1-1.6,1.8-3,2-2.5.4-4.4-1.1-4.7-3.4-.3-2.2,1.1-4.1,3.4-4.5,2.2-.3,4,1.2,4.3,3.4v.9l-5.3.7c.4.7,1.1.9,1.9.8l.2.1Zm1-2.9c-.4-.8-1.1-1-1.7-1-.8.1-1.4.6-1.5,1.4l3.2-.4Z"/><path d="m201.57,304.55l5.7.6-.2,2.1-5.7-.6.2-2.1Z"/><path d="m216.57,310.15c-.8,2.1-2.9,3.1-4.8,2.4-.9-.4-1.5-.9-1.8-1.6l-.3.7-2.1-.8,3.7-9.8,2.1.8-1.3,3.5c.7-.4,1.5-.4,2.4,0,1.8.7,2.7,2.9,1.9,5l.2-.2Zm-2.1-.8c.4-1.1,0-2-1-2.3-1-.4-1.9,0-2.3,1.1-.4,1.1,0,2,1,2.3,1,.4,1.9,0,2.3-1.1Z"/><path d="m217.67,310.85c1.3-1.8,3.8-2.1,5.6-.8,1.8,1.3,2.2,3.8.8,5.5-1.3,1.8-3.8,2.1-5.6.8-1.8-1.3-2.2-3.8-.8-5.5Zm4.6,3.4c.6-.9.5-1.9-.3-2.5s-1.8-.5-2.4.4-.5,1.9.3,2.5,1.8.5,2.4-.4Z"/><path d="m235.17,318.75l-8.3,6.4-1.4-1.8.6-.4c-.8,0-1.5-.4-2.1-1.2-1.2-1.6-.8-3.9,1-5.3,1.8-1.4,4.1-1.1,5.3.4.6.8.8,1.6.6,2.3l2.9-2.3,1.4,1.8v.1Zm-6.7,2.3c.9-.7,1-1.7.4-2.5s-1.6-1-2.5-.3-1,1.7-.4,2.5,1.6,1,2.5.3Z"/><path d="m236.97,329.75l-7.7.4c-2.5.1-3.9-.7-4.6-2.7l1.9-.8c.4,1,.9,1.3,1.9,1.3l5.5-5.5.9,2.3-3.6,3.3,4.8-.5.9,2.2h0Z"/><path d="m240.97,335.15l-10.3,1.9-.4-2.4,7.8-1.4-.8-1.7,1.9-.9,1.5,2.5.4,2.1-.1-.1Z"/><path class="cls-26" d="m189.87,371.85c0-.2-.2-.1-.4-.2-2-.5-3.4-2.3-3.4-4.4v-38.8c0-2.7,1.1-4.2,3.6-5,0,0,.1,0,.1-.1h3.4v.1c.5,1.3,1.1,2.6,1.6,3.9.1.3.4.4.7.4h9.7c.4,0,.7-.2.8-.5.2-.5.4-1,.6-1.5.3-.8.7-1.5.9-2.4h3.3c.2.2.5.2.8.3,1.8.6,3,2.3,3.1,4.2v38.8c0,2.8-1.1,4.3-3.8,5.2h-21.1.1Zm23.7-7.3h0v-33.8c0-.4-.3-.2-.5-.2h-25.5c-.4,0-.5.1-.5.5v33.4h26.3l.2.1Zm-13.1,3.1h-4.4c-.5,0-.7.2-.6.7,0,.4.4.5.7.5h8.6c.5,0,.7-.2.7-.6,0-.5-.3-.5-.7-.5h-4.3v-.1Z"/><path class="cls-20" d="m207.67,323.35c-.2.8-.6,1.6-.9,2.4-.2.5-.4,1-.6,1.5-.1.3-.4.6-.8.5h-9.7c-.3,0-.6-.1-.7-.4-.5-1.3-1.1-2.6-1.6-3.9v-.1h14.4-.1Z"/><path class="cls-1" d="m187.37,364.55c-.2-.1,0-.3,0-.4v-33c0-.4,0-.5.5-.5h25.5c.2,0,.4-.2.5.2-.2,0-.3.2-.5.4-.4.5-.7,1-1.1,1.4-1.4,1.8-2.9,3.7-4.3,5.5-1.1,1.5-2.3,2.9-3.4,4.4-1.4,1.8-2.9,3.7-4.3,5.5-1.1,1.5-2.3,2.9-3.4,4.4-1.5,2-3.1,3.9-4.6,5.9-1.1,1.4-2.2,2.8-3.2,4.2-.5.7-1.1,1.3-1.5,2h-.2Z"/><path class="cls-23" d="m187.37,364.55c.4-.7,1-1.3,1.5-2,1.1-1.4,2.2-2.8,3.2-4.2,1.5-2,3.1-3.9,4.6-5.9,1.1-1.5,2.3-2.9,3.4-4.4,1.4-1.8,2.9-3.7,4.3-5.5,1.1-1.5,2.3-2.9,3.4-4.4,1.4-1.8,2.9-3.7,4.3-5.5.4-.5.7-.9,1.1-1.4.1-.2.2-.3.5-.4v33.7h-26.3Z"/><path class="cls-13" d="m200.47,367.65h4.3c.4,0,.7,0,.7.5,0,.4-.2.6-.7.6h-8.6c-.3,0-.6,0-.7-.5,0-.4.1-.7.6-.7h4.4v.1Z"/><path d="m198.77,334.25h5.7v25.9h-6.6v-18.9l-4.5,1.1-1.6-5.6,7-2.5Z"/><circle class="cls-4" cx="60.68" cy="199.55" r="45"/><path d="m27.28,183.95c1.9.7,2.8,2.8,2.1,4.7l-.6,1.5,3.1,1.2-.8,2.2-9.8-3.7,1.4-3.7c.7-1.9,2.8-2.9,4.7-2.2h-.1Zm-.8,2.2c-.7-.3-1.5,0-1.7.7l-.5,1.5,2.5.9.6-1.5c.3-.7-.1-1.4-.8-1.7l-.1.1Z"/><path d="m34.48,177.45l3.7,2.7-1.3,1.8-3.5-2.5c-.8-.5-1.4-.3-1.9.3-.5.7-.4,1.4.4,2l3.3,2.4-1.3,1.8-8.5-6.2,1.3-1.8,3,2.2c-.2-.7,0-1.5.5-2.3.9-1.2,2.5-1.6,4.2-.5l.1.1Z"/><path d="m36.28,176.75c-1.4-1.7-1.1-4.2.6-5.6s4.2-1.1,5.6.6,1.1,4.2-.6,5.6-4.2,1.1-5.6-.6Zm4.4-3.6c-.7-.8-1.7-.9-2.5-.3s-.9,1.6-.2,2.5c.7.8,1.7.9,2.5.3s.9-1.6.2-2.5Z"/><path d="m50.08,167.35l1.8,4.2-2.1.9-1.7-3.9c-.4-.9-1.1-1-1.7-.7-.8.3-1.1,1-.7,2l1.6,3.8-2.1.9-3-6.9,2.1-.9.3.6c.1-.7.7-1.3,1.6-1.7,1.4-.6,3-.1,3.8,1.7h.1Z"/><path d="m56.28,169.05c.6,0,1.1-.4,1.3-.8l1.9.8c-.6,1.1-1.6,1.8-3,2-2.5.4-4.4-1.1-4.7-3.3s1-4.2,3.4-4.5c2.2-.3,4,1.1,4.3,3.4v.9l-5.3.8c.4.7,1.1.9,1.9.8l.2-.1Zm1-2.9c-.4-.8-1.1-1-1.7-.9-.8.1-1.3.6-1.4,1.4l3.2-.5h-.1Z"/><path d="m61.48,164.85l5.7.6-.2,2.2-5.7-.6.2-2.1v-.1Z"/><path d="m76.58,170.35c-.8,2.1-2.9,3.2-4.7,2.5-.9-.3-1.5-.9-1.8-1.6l-.2.7-2.1-.8,3.6-9.8,2.1.8-1.3,3.5c.7-.4,1.5-.4,2.4,0,1.8.7,2.8,2.9,2,5v-.3Zm-2.1-.8c.4-1.1,0-2-1-2.3-1-.4-1.9,0-2.3,1.1-.4,1.1,0,2,1,2.3,1,.4,1.9,0,2.3-1.1Z"/><path d="m77.68,170.95c1.3-1.8,3.8-2.1,5.5-.8s2.2,3.7.9,5.5c-1.3,1.8-3.8,2.1-5.5.8-1.8-1.3-2.2-3.7-.9-5.5Zm4.6,3.4c.6-.9.4-1.9-.3-2.4-.8-.6-1.8-.5-2.4.4s-.4,1.9.3,2.4c.8.6,1.8.5,2.4-.4Z"/><path d="m95.28,178.75l-8.3,6.5-1.4-1.8.6-.4c-.8,0-1.5-.4-2.1-1.2-1.2-1.5-.8-3.9.9-5.3,1.8-1.4,4.1-1.2,5.3.4.6.8.8,1.6.7,2.3l2.9-2.3,1.4,1.8Zm-6.7,2.4c.9-.7,1-1.7.3-2.5-.6-.8-1.7-1-2.5-.3-.9.7-1,1.7-.3,2.5.6.8,1.7,1,2.5.3Z"/><path d="m97.18,189.75l-7.7.5c-2.5.2-3.9-.7-4.6-2.7l1.9-.8c.4,1,.9,1.3,1.9,1.2l5.4-5.5,1,2.3-3.6,3.3,4.8-.5.9,2.2h0Z"/><path d="m91.88,192.15l4.2,2.9c.7.5,1.4.9,2,.8.7-.1,1-.6.9-1.3s-.7-1.2-1.4-1.3l.8-2.2c1.6.4,2.6,1.7,2.8,3.1.3,1.9-.7,3.7-2.7,4-1.2.2-2.4-.3-3.5-1.1l-2-1.4.6,3.5-2.3.4-1.1-7.1,1.7-.3Z"/><path class="cls-22" d="m66.08,183.75h6.1c1.7,0,3.3,1.6,3.4,3.3v41.4c0,1.9-.9,3.2-2.5,3.8-.4.1-.8.2-1.1.2h-22.6c-2,0-3.7-1.7-3.7-3.7v-4h1.8v4c0,1.2.8,1.9,2,1.9h22.2c1.2,0,2-.8,2-2v-41c0-1.2-.8-2-1.9-2h-4.6c0-.8-.7-1.3-1.1-1.9Z"/><path class="cls-7" d="m66.08,183.75c.4.6,1,1.1,1.1,1.8h-17.3c-1.7,0-2.4.7-2.4,2.4v36.7h-1.8v-36.9c0-1.7.7-3,2.3-3.7.4-.2.8-.3,1.3-.3h16.9-.1Z"/><path class="cls-29" d="m47.48,224.75v-36.7c0-1.7.7-2.4,2.4-2.4h17.4v36c0,1.7-1.3,3.1-3,3.1h-16.8Zm13.1-33.5h3.6c1.1,0,2-.8,2-1.8,0-1.1-.8-1.9-2-1.9h-7.2c-1.1,0-2,.8-2,1.8,0,1.1.8,1.9,2,1.9h3.6Zm-4.2,22.9c.2,0,.5-.2.6-.3l9.2-9.2c.2-.2.4-.5.3-.8s-.2-.6-.6-.7c-.4-.1-.8,0-1.1.3-3,3-6.1,6.1-9.1,9.1l-.2.2c-.2.3-.2.6,0,.9.2.3.5.5.9.5h0Zm5.7-11.1c0-.4-.3-.7-.6-.9-.5-.2-.8,0-1.1.4l-5.5,5.5c-.5.5-.5,1.1,0,1.4s1,.4,1.4,0c1.9-1.8,3.7-3.7,5.6-5.5.2-.2.3-.4.4-.7h0l-.2-.2Z"/><path class="cls-18" d="m47.58,224.75h16.7c1.8,0,3-1.3,3-3.1v-36h4.5c1.2,0,1.9.8,1.9,2v41c0,1.2-.8,2-2,2h-22.2c-1.1,0-1.9-.7-2-1.9v-4h.1Zm13.1,3.1h-5.4c-.7,0-1.2.3-1.2.9s.4,1,1.1,1h10.8c.7,0,1.2-.4,1.1-.9s-.4-.9-1.2-.9h-5.4l.2-.1Z"/><path class="cls-17" d="m60.58,191.25h-3.6c-1.2,0-2-.8-2-1.9s.8-1.8,2-1.8h7.2c1.2,0,2,.8,2,1.9s-.9,1.8-2,1.8h-3.6Z"/><path class="cls-14" d="m56.38,214.15c-.4,0-.7-.2-.9-.5-.2-.3-.1-.7,0-.9l.2-.2c3-3,6.1-6.1,9.1-9.1.3-.3.7-.4,1.1-.3.4.1.5.4.6.7s0,.6-.3.8l-9.2,9.2c-.2.2-.4.3-.6.3Z"/><path class="cls-11" d="m60.58,227.75h5.4c.7,0,1.2.3,1.2.9s-.4.9-1.1.9h-10.8c-.7,0-1.2-.4-1.1-1s.4-.9,1.2-.9h5.4l-.2.1Z"/><path d="m51.08,221.85v-4.8l8.6-9.1c.9-.9,1.5-1.7,1.9-2.3s.6-1.2.6-1.7-.2-1.2-.6-1.6-1-.6-1.7-.6c-1.5,0-2.7.9-3.5,2.7l-5.7-3.2c.8-1.9,2.1-3.4,3.7-4.4,1.6-1,3.4-1.5,5.4-1.5s4.6.7,6.3,2.2c1.8,1.5,2.6,3.5,2.6,6s-.4,2.9-1.1,4.2c-.7,1.3-1.7,2.6-3.1,4l-3.5,3.7h8.1v6.4h-18.1.1Z"/><circle class="cls-2" cx="200.47" cy="199.55" r="45"/><path class="cls-25" d="m200.47,186.35h28.5c2.1-.1,4,1.5,4.1,3.7v1c-.1.8-.2,1.5-.4,2.3-.3,1.6,0,2,1.6,1.9,2.7-.1,3.4.8,3.3,3.3v17.8c0,5.9-.7,2.6-2.6,2.6h-5.5c-1.3,0-1.4.1-1.7,1.4l-.7,4.2c-.3,1.9-2,3.4-3.9,3.3h-45.3c-2,0-3.7-1.4-3.9-3.4-.3-1.5-.5-2.9-.8-4.4-.1-.8-.5-1.1-1.3-1.1h-6.1c-1.1.1-2.2-.7-2.3-1.8v-19.6c-.1-1.1.7-2.2,1.8-2.3h1.8c1.1,0,1.5-.4,1.3-1.6-.1-.9-.3-1.8-.5-2.7-.4-2.1.9-4.2,3-4.6h29.6Zm0,7.6h-19.9c-2.4,0-3.7,1.6-3.3,4s.9,4.9,1.3,7.4c.8,4.2,1.5,8.4,2.3,12.6.2,1.5,1.6,2.6,3.1,2.5h32.9c1.5.1,2.9-1,3.1-2.5.5-2.6,1-5.3,1.4-7.9.7-4,1.5-8.1,2.1-12.1.4-2.3-.9-3.8-3.3-3.8h-19.8l.1-.2Zm30.4,5.1c-1.3,0-2.4,1.1-2.5,2.4h0c0,1.3,1.1,2.4,2.4,2.4s2.4-1.1,2.4-2.4h0c0-1.3-.9-2.3-2.2-2.4h-.2.1Zm-60.8,16.1c1.3,0,2.4-1.1,2.4-2.4h0c0-1.3-1.1-2.3-2.4-2.4-1.3,0-2.4,1.1-2.4,2.5h0c0,1.3.9,2.3,2.2,2.3h.2Zm-2.4-13.7c0,1.3,1.1,2.4,2.4,2.4s2.4-1.1,2.5-2.4c0-1.4-1.1-2.5-2.5-2.5h0c-1.3,0-2.3.9-2.4,2.2v.3Zm65.6,11.3c0-1.3-1-2.4-2.3-2.5-1.3,0-2.4,1.1-2.5,2.4,0,1.3,1.1,2.4,2.4,2.4s2.4-.9,2.4-2.1v-.2Z"/><path class="cls-8" d="m200.47,193.95h19.9c2.4,0,3.7,1.4,3.3,3.8-.7,4-1.4,8.1-2.1,12.1-.5,2.6-.9,5.3-1.4,7.9-.2,1.5-1.6,2.6-3.1,2.5h-33.1c-1.5.1-2.9-1-3.1-2.5-.8-4.2-1.5-8.4-2.3-12.5-.4-2.5-.9-4.9-1.3-7.4-.4-2.4.9-4,3.3-4h19.9v.1Zm-12.6,8.1c0-1.4-1.1-2.5-2.5-2.5s-2.5,1.1-2.5,2.5,1.1,2.5,2.5,2.5,2.5-1.1,2.5-2.5Zm2.5,7.7c-1.3,0-2.4,1.1-2.5,2.4,0,1.4,1.1,2.5,2.5,2.5s2.5-1.1,2.5-2.5-1.2-2.5-2.5-2.4h0Zm27.7-7.6c0-1.4-1.1-2.5-2.4-2.5s-2.5,1.1-2.5,2.4c0,1.4,1.1,2.5,2.4,2.5h0c1.3,0,2.4-1.1,2.4-2.5h0l.1.1Zm-7.5,7.6c-1.4,0-2.5,1.1-2.5,2.5s1.1,2.5,2.4,2.5c1.4,0,2.5-1.1,2.5-2.4,0-1.4-1.1-2.5-2.4-2.5h0v-.1Zm-12.6-7.6c0-1.4-1.1-2.5-2.4-2.5-1.4,0-2.5,1.1-2.5,2.5s1.1,2.5,2.5,2.5,2.5-1.1,2.5-2.5h-.1Zm7.6-2.5c-1.4,0-2.5,1.1-2.5,2.5s1.1,2.5,2.5,2.5,2.5-1.1,2.5-2.5-1.1-2.5-2.5-2.5Zm-2.6,12.7c0-1.4-1.1-2.5-2.4-2.5s-2.5,1.1-2.5,2.4,1.1,2.5,2.4,2.5c1.4,0,2.5-1.1,2.5-2.4h0Z"/><path class="cls-19" d="m230.87,199.05c1.3,0,2.3.9,2.4,2.2v.2c0,1.3-1,2.4-2.4,2.5h0c-1.3,0-2.4-1.1-2.4-2.4s1.1-2.4,2.4-2.4h0v-.1Z"/><path class="cls-19" d="m170.07,215.15c-1.3,0-2.3-.9-2.4-2.1v-.2c0-1.3,1-2.5,2.4-2.5h0c1.3,0,2.4,1.1,2.5,2.4,0,1.3-1.1,2.4-2.4,2.5h0l-.1-.1Z"/><path class="cls-19" d="m167.67,201.45c0-1.3.9-2.3,2.1-2.4h.3c1.4,0,2.4,1.1,2.4,2.5,0,1.3-1.1,2.3-2.4,2.4-1.3,0-2.4-1.1-2.4-2.4v-.1Z"/><path class="cls-19" d="m233.27,212.75c0,1.3-.9,2.3-2.2,2.4h-.2c-1.3,0-2.4-1.1-2.4-2.4s1.2-2.4,2.5-2.4,2.4,1.1,2.3,2.5v-.1Z"/><path class="cls-12" d="m187.87,202.05c0,1.4-1.1,2.5-2.5,2.5s-2.5-1.1-2.5-2.5,1.1-2.5,2.5-2.5h0c1.3,0,2.4,1.1,2.5,2.5Z"/><path class="cls-9" d="m190.37,209.65c1.3,0,2.4,1.1,2.5,2.4,0,1.4-1.1,2.5-2.5,2.5s-2.5-1.1-2.5-2.5h0c0-1.4,1.2-2.4,2.5-2.4Z"/><path class="cls-24" d="m218.07,202.05c0,1.4-1.1,2.5-2.5,2.5s-2.5-1.1-2.5-2.5,1.1-2.5,2.5-2.5,2.5,1.1,2.5,2.5Z"/><path class="cls-9" d="m210.57,209.65c1.4,0,2.5,1.1,2.5,2.5s-1.1,2.5-2.5,2.5-2.5-1.1-2.5-2.5,1.1-2.5,2.5-2.5Z"/><path class="cls-9" d="m197.87,202.05c0,1.4-1.1,2.5-2.5,2.5s-2.5-1.1-2.5-2.5,1.1-2.5,2.5-2.5,2.4,1.2,2.4,2.5h.1Z"/><path class="cls-9" d="m205.47,199.55c1.4,0,2.5,1.1,2.5,2.5s-1.1,2.5-2.5,2.5-2.5-1.1-2.5-2.5,1.1-2.5,2.5-2.5Z"/><path class="cls-9" d="m202.87,212.25c0,1.4-1.2,2.4-2.5,2.4s-2.4-1.2-2.4-2.5c0-1.4,1.2-2.4,2.5-2.4s2.4,1.2,2.4,2.5Z"/><path d="m185.57,167.25c1.3,2.3.5,5.2-1.9,6.6l-1.8,1,2.2,3.8-2.8,1.6-7-12.1,4.6-2.6c2.4-1.4,5.3-.6,6.6,1.7h.1Zm-2.8,1.6c-.5-.9-1.5-1.2-2.4-.7l-1.8,1,1.8,3.1,1.8-1c.8-.5,1.1-1.5.6-2.4Z"/><path d="m188.67,170.55c-.6-2.9,1.3-5.6,4.2-6.2s5.6,1.3,6.2,4.2c.6,2.9-1.3,5.6-4.2,6.2-2.9.5-5.6-1.3-6.2-4.2Zm7.5-1.4c-.3-1.4-1.4-2.1-2.7-1.9s-2.1,1.4-1.8,2.8,1.4,2.1,2.7,1.9,2.1-1.4,1.8-2.7v-.1Z"/><path d="m207.77,164.25l-.3,3.4c-1.2-.3-3,0-3.2,2l-.4,4.5-3-.3,1-10,3,.3-.2,1.8c.5-1.3,1.9-1.8,3.2-1.7h-.1Z"/><path d="m213.57,169.15l-1.1,3.4c-.3.8.4,1.1,1.7,1.5l-.9,2.6c-3.8-.9-4.5-2.4-3.6-5l1.1-3.4-1.5-.5.9-2.7,1.5.5.6-1.8h3.1c0,.1-.9,2.8-.9,2.8l2,.7-.9,2.7-2-.7v-.1Z"/><path d="m222.07,178.55c-1.2,1.9-3.5,1.7-5.3.5-1.7-1.1-2.5-2.5-2.3-4.3l3,.2c-.2.8,0,1.4.8,1.9.6.4,1,.4,1.2,0,.6-.9-3.8-3.1-2-6,1.2-1.8,3.3-1.8,5.1-.6,1.4.9,2.2,2.3,2.1,3.9l-2.9-.2c0-.6,0-1.1-.6-1.5-.4-.3-.8-.3-1,0-.6,1,3.9,3,1.9,6.1Z"/><path class="cls-27" d="m356.12,195.58c.56,0,1.12.02,1.68.03.95,0,1.73.78,1.75,1.74.01.88,0,1.76,0,2.63,0,7.43,0,14.85,0,22.28,0,.48-.02.98-.16,1.44-.17.55-.85,1.05-1.43,1.05-6.29,0-12.58,0-18.86,0-.03,0-.06,0-.09-.01,0-1.71,0-3.42,0-5.13,1.31,0,2.62,0,3.93-.01.17,0,.36.04.36-.23.01-.65.06-1.31-.09-1.93-.41-1.67-.89-3.33-1.32-4.99-.12-.45-.24-.9-.4-1.33-.25-.68.22-1.04.63-1.42.68-.62.96-1.4,1.12-2.3.34-1.87-1.24-4.12-3.02-4.69-.06-.1-.14-.15-.25-.09-.09-.02-.18-.04-.27-.06-.04-.06-.09-.07-.16-.04-.17-.02-.35-.05-.52-.07,0-2.27,0-4.54,0-6.81,3.22,0,6.45-.01,9.67-.02.2,0,.4-.02.6-.02,1.15.04,2.31.05,3.46,0,1.13.06,2.26.05,3.39,0Z"/><path class="cls-15" d="m339,219.61c0,1.71,0,3.42,0,5.13-.65,0-1.29.01-1.94.01-5.48,0-10.97-.03-16.45.02-1.44.01-2.19-.77-2.18-2.19.05-8.39.03-16.78,0-25.17,0-1.01.81-1.81,1.77-1.79.56.01,1.12-.01,1.68-.02,1.13.03,2.26.06,3.39-.01,1.15.07,2.3.04,3.45.01.19,0,.37.02.56.02,3.24,0,6.48,0,9.71.01,0,2.27,0,4.54,0,6.81-.36.17-.77.09-1.15.24-1.6.62-2.66,1.7-3.04,3.41-.07.04-.12.08-.03.15-.13,1.41.02,2.7,1.28,3.63.4.29.55.74.39,1.29-.1.34-.23.67-.31,1.01-.22.94-.47,1.88-.72,2.81-.18.69-.4,1.37-.56,2.07-.16.69-.12,1.39-.15,2.09-.01.35.08.47.45.46,1.28-.02,2.56,0,3.84,0Z"/><path class="cls-21" d="m325.27,195.58c-1.13.07-2.26.04-3.39.01,0-3.05-.02-6.1.02-9.15.02-1.41.21-2.81.62-4.18.49-1.65,1.19-3.2,2.14-4.63,1.18-1.79,2.65-3.31,4.4-4.56,1.15-.82,2.36-1.55,3.68-2.01,1.32-.46,2.65-.91,4.07-1.01.8-.06,1.59-.18,2.39-.16,1.99.03,3.92.43,5.78,1.13,1.87.7,3.55,1.72,5.08,2.99,1.32,1.1,2.4,2.4,3.32,3.83.65,1.02,1.17,2.1,1.61,3.23.24.62.41,1.27.62,1.9.2.57.23,1.2.3,1.81.39,3.6.1,7.21.19,10.81-1.13.04-2.26.06-3.39,0,0-2.58-.02-5.15.01-7.73.02-1.48-.17-2.93-.53-4.36-.51-2.01-1.44-3.82-2.8-5.37-1.66-1.9-3.68-3.33-6.11-4.1-1.73-.55-3.48-.72-5.3-.61-1.68.1-3.26.5-4.76,1.2-2.5,1.16-4.46,2.94-5.92,5.29-1.26,2.02-1.94,4.24-2.03,6.59-.11,3.03-.02,6.07-.02,9.11Z"/><path class="cls-10" d="m349.27,195.58c0-2.73.02-5.47,0-8.2-.02-1.45-.22-2.89-.8-4.24-.46-1.07-1.08-2.04-1.85-2.94-1.14-1.33-2.57-2.25-4.18-2.83-1.49-.54-3.05-.72-4.65-.52-.98.12-1.93.35-2.81.73-2.46,1.07-4.27,2.83-5.38,5.29-.52,1.15-.73,2.36-.79,3.61-.15,3.03-.02,6.07-.07,9.1-1.15.02-2.3.05-3.45-.02,0-3.04-.09-6.08.02-9.11.09-2.34.77-4.57,2.03-6.59,1.46-2.34,3.42-4.12,5.92-5.29,1.5-.7,3.08-1.1,4.76-1.2,1.82-.11,3.57.07,5.3.61,2.44.77,4.45,2.2,6.11,4.1,1.36,1.55,2.29,3.36,2.8,5.37.36,1.43.55,2.88.53,4.36-.03,2.58-.01,5.15-.01,7.73-1.15.06-2.31.04-3.46,0Z"/><path class="cls-16" d="m339,219.61c-1.28,0-2.56-.02-3.84,0-.37,0-.46-.11-.45-.46.03-.7-.02-1.41.15-2.09.17-.69.38-1.38.56-2.07.25-.94.5-1.87.72-2.81.08-.34.21-.68.31-1.01.16-.55,0-.99-.39-1.29-1.26-.93-1.41-2.23-1.28-3.63.07-.04.07-.09.03-.15.38-1.7,1.44-2.78,3.04-3.41.38-.15.79-.06,1.15-.24.17.02.35.05.52.07.03.09.08.14.16.04.09.02.18.04.27.06.05.12.15.1.25.09,1.78.57,3.36,2.82,3.02,4.69-.16.9-.45,1.67-1.12,2.3-.41.38-.88.73-.63,1.42.16.43.29.88.4,1.33.43,1.67.91,3.32,1.32,4.99.15.62.1,1.28.09,1.93,0,.28-.19.23-.36.23-1.31,0-2.62,0-3.93.01Z"/><path class="cls-10" d="m340.2,202.71c-.1,0-.2.03-.25-.09.11-.05.19,0,.25.09Z"/><path class="cls-10" d="m339.68,202.55c-.08.1-.12.05-.16-.04.06-.04.12-.02.16.04Z"/><path class="cls-21" d="m334.81,206.08c.04.06.04.12-.03.15-.09-.07-.03-.12.03-.15Z"/><circle class="cls-3" cx="339.15" cy="199.91" r="44.02"/><path class="cls-27" d="m215.12,47.58c.56,0,1.12.02,1.68.03.95,0,1.73.78,1.75,1.74.01.88,0,1.76,0,2.63,0,7.43,0,14.85,0,22.28,0,.48-.02.98-.16,1.44-.17.55-.85,1.05-1.43,1.05-6.29,0-12.58,0-18.86,0-.03,0-.06,0-.09-.01,0-1.71,0-3.42,0-5.13,1.31,0,2.62,0,3.93-.01.17,0,.36.04.36-.23.01-.65.06-1.31-.09-1.93-.41-1.67-.89-3.33-1.32-4.99-.12-.45-.24-.9-.4-1.33-.25-.68.22-1.04.63-1.42.68-.62.96-1.4,1.12-2.3.34-1.87-1.24-4.12-3.02-4.69-.06-.1-.14-.15-.25-.09-.09-.02-.18-.04-.27-.06-.04-.06-.09-.07-.16-.04-.17-.02-.35-.05-.52-.07,0-2.27,0-4.54,0-6.81,3.22,0,6.45-.01,9.67-.02.2,0,.4-.02.6-.02,1.15.04,2.31.05,3.46,0,1.13.06,2.26.05,3.39,0Z"/><path class="cls-15" d="m198,71.61c0,1.71,0,3.42,0,5.13-.65,0-1.29.01-1.94.01-5.48,0-10.97-.03-16.45.02-1.44.01-2.19-.77-2.18-2.19.05-8.39.03-16.78,0-25.17,0-1.01.81-1.81,1.77-1.79.56.01,1.12-.01,1.68-.02,1.13.03,2.26.06,3.39-.01,1.15.07,2.3.04,3.45.01.19,0,.37.02.56.02,3.24,0,6.48,0,9.71.01,0,2.27,0,4.54,0,6.81-.36.17-.77.09-1.15.24-1.6.62-2.66,1.7-3.04,3.41-.07.04-.12.08-.03.15-.13,1.41.02,2.7,1.28,3.63.4.29.55.74.39,1.29-.1.34-.23.67-.31,1.01-.22.94-.47,1.88-.72,2.81-.18.69-.4,1.37-.56,2.07-.16.69-.12,1.39-.15,2.09-.01.35.08.47.45.46,1.28-.02,2.56,0,3.84,0Z"/><path class="cls-21" d="m184.27,47.58c-1.13.07-2.26.04-3.39.01,0-3.05-.02-6.1.02-9.15.02-1.41.21-2.81.62-4.18.49-1.65,1.19-3.2,2.14-4.63,1.18-1.79,2.65-3.31,4.4-4.56,1.15-.82,2.36-1.55,3.68-2.01,1.32-.46,2.65-.91,4.07-1.01.8-.06,1.59-.18,2.39-.16,1.99.03,3.92.43,5.78,1.13,1.87.7,3.55,1.72,5.08,2.99,1.32,1.1,2.4,2.4,3.32,3.83.65,1.02,1.17,2.1,1.61,3.23.24.62.41,1.27.62,1.9.2.57.23,1.2.3,1.81.39,3.6.1,7.21.19,10.81-1.13.04-2.26.06-3.39,0,0-2.58-.02-5.15.01-7.73.02-1.48-.17-2.93-.53-4.36-.51-2.01-1.44-3.82-2.8-5.37-1.66-1.9-3.68-3.33-6.11-4.1-1.73-.55-3.48-.72-5.3-.61-1.68.1-3.26.5-4.76,1.2-2.5,1.16-4.46,2.94-5.92,5.29-1.26,2.02-1.94,4.24-2.03,6.59-.11,3.03-.02,6.07-.02,9.11Z"/><path class="cls-10" d="m208.27,47.58c0-2.73.02-5.47,0-8.2-.02-1.45-.22-2.89-.8-4.24-.46-1.07-1.08-2.04-1.85-2.94-1.14-1.33-2.57-2.25-4.18-2.83-1.49-.54-3.05-.72-4.65-.52-.98.12-1.93.35-2.81.73-2.46,1.07-4.27,2.83-5.38,5.29-.52,1.15-.73,2.36-.79,3.61-.15,3.03-.02,6.07-.07,9.1-1.15.02-2.3.05-3.45-.02,0-3.04-.09-6.08.02-9.11.09-2.34.77-4.57,2.03-6.59,1.46-2.34,3.42-4.12,5.92-5.29,1.5-.7,3.08-1.1,4.76-1.2,1.82-.11,3.57.07,5.3.61,2.44.77,4.45,2.2,6.11,4.1,1.36,1.55,2.29,3.36,2.8,5.37.36,1.43.55,2.88.53,4.36-.03,2.58-.01,5.15-.01,7.73-1.15.06-2.31.04-3.46,0Z"/><path class="cls-16" d="m198,71.61c-1.28,0-2.56-.02-3.84,0-.37,0-.46-.11-.45-.46.03-.7-.02-1.41.15-2.09.17-.69.38-1.38.56-2.07.25-.94.5-1.87.72-2.81.08-.34.21-.68.31-1.01.16-.55,0-.99-.39-1.29-1.26-.93-1.41-2.23-1.28-3.63.07-.04.07-.09.03-.15.38-1.7,1.44-2.78,3.04-3.41.38-.15.79-.06,1.15-.24.17.02.35.05.52.07.03.09.08.14.16.04.09.02.18.04.27.06.05.12.15.1.25.09,1.78.57,3.36,2.82,3.02,4.69-.16.9-.45,1.67-1.12,2.3-.41.38-.88.73-.63,1.42.16.43.29.88.4,1.33.43,1.67.91,3.32,1.32,4.99.15.62.1,1.28.09,1.93,0,.28-.19.23-.36.23-1.31,0-2.62,0-3.93.01Z"/><path class="cls-10" d="m199.2,54.71c-.1,0-.2.03-.25-.09.11-.05.19,0,.25.09Z"/><path class="cls-10" d="m198.68,54.55c-.08.1-.12.05-.16-.04.06-.04.12-.02.16.04Z"/><path class="cls-21" d="m193.81,58.08c.04.06.04.12-.03.15-.09-.07-.03-.12.03-.15Z"/><circle class="cls-3" cx="198.15" cy="51.91" r="44.02"/></svg>