<?xml version="1.0" encoding="UTF-8"?><svg id="Layer_1" xmlns="http://www.w3.org/2000/svg" viewBox="0 0 400 400"><defs><style>.cls-1{stroke:#a5262d;}.cls-1,.cls-2{stroke-width:4px;}.cls-1,.cls-2,.cls-3{stroke-miterlimit:10;}.cls-1,.cls-2,.cls-3,.cls-4{fill:none;}.cls-2{stroke:#000;}.cls-5{fill:#fff;}.cls-6{fill:#546e7a;}.cls-7{fill:#f15a24;}.cls-8{fill:#ffed58;}.cls-9{fill:#c69c6d;}.cls-3{stroke:#231f20;stroke-width:2px;}.cls-10{fill:#36464e;}.cls-11{fill:#788f9b;}.cls-12{fill:#484645;}.cls-13{fill:#b3b3b3;}.cls-14{fill:#fbd734;}.cls-15{fill:#231f20;}</style></defs><line class="cls-5" x1="169.55" y1="259.19" x2="147.45" y2="283.39"/><line class="cls-3" x1="169.55" y1="259.19" x2="154.71" y2="275.45"/><polygon class="cls-15" points="150.66 268.79 147.45 283.39 161.7 278.87 150.66 268.79"/><line class="cls-5" x1="230.45" y1="259.19" x2="252.55" y2="283.39"/><line class="cls-3" x1="230.45" y1="259.19" x2="245.29" y2="275.45"/><polygon class="cls-15" points="238.3 278.87 252.55 283.39 249.34 268.79 238.3 278.87"/><circle class="cls-1" cx="309.05" cy="72.08" r="45"/><path d="m279.74,56.88c-2.78-2.42-3.08-6.64-.65-9.42.11-.13.23-.26.35-.38,1.53-1.71,3.84-2.51,6.1-2.1l-.7,3c-1.22-.24-2.47.17-3.3,1.1-1.42,1.64-1.24,4.12.4,5.54,1.54,1.33,3.83,1.27,5.3-.14.91-.88,1.26-2.19.9-3.4l2.9-.9c.92,3.67-1.3,7.39-4.97,8.31-2.29.58-4.73-.07-6.43-1.71l.1.1Z"/><path d="m291.24,48.18c-1.21-2.48-.18-5.48,2.31-6.68,2.48-1.21,5.48-.18,6.68,2.31,1.21,2.48.18,5.46-2.29,6.68-2.48,1.22-5.47.19-6.69-2.28,0,0,0-.01,0-.02Zm6.5-3.1c-.57-1.05-1.89-1.45-2.94-.88s-1.45,1.89-.88,2.94c.54,1.01,1.78,1.42,2.82.94,1.08-.48,1.57-1.74,1.09-2.82-.03-.06-.06-.12-.09-.18Z"/><path d="m312.55,42.08c.41,2.62-1.38,5.08-4,5.5-1.04.15-2.09-.14-2.9-.8l.5,4.7-2.8.3-1.5-13.2,2.8-.3v.9c.69-.86,1.7-1.4,2.8-1.5,2.63-.18,4.92,1.81,5.1,4.44,0,.02,0,.04,0,.06v-.1Zm-2.8.3c-.08-1.25-1.16-2.19-2.4-2.11-.03,0-.07,0-.1,0-1.21.08-2.12,1.13-2.03,2.34,0,.09.02.18.03.26.08,1.25,1.16,2.19,2.4,2.11.03,0,.07,0,.1,0,1.21-.08,2.12-1.13,2.03-2.34,0-.09-.02-.18-.03-.26h0Z"/><path d="m324.74,44.78c-.52,2.58-3.01,4.27-5.6,3.8-1.04-.24-1.94-.89-2.5-1.8l-1.1,4.6-2.8-.7,3.2-12.9,2.8.7-.2.9c.9-.55,1.99-.69,3-.4,2.53.76,3.97,3.43,3.21,5.96,0,.01,0,.02-.01.04v-.2Zm-2.8-.7c.27-1.22-.5-2.44-1.72-2.71-1.22-.27-2.44.5-2.71,1.72-.26,1.19.46,2.37,1.63,2.69,1.17.36,2.41-.3,2.77-1.47.02-.07.04-.15.06-.23h-.03Z"/><path d="m329.34,50.48c.57.35,1.24.49,1.9.4l1.2,2.4c-1.52.57-3.22.3-4.5-.7-2.7-1.8-3.2-4.7-1.6-7.1,1.17-2.5,4.14-3.58,6.65-2.42,2.5,1.17,3.58,4.14,2.42,6.65-.2.42-.45.82-.76,1.17-.2.3-.5.6-.7.9l-5.6-3.7c-.16.98.32,1.94,1.2,2.4h-.2Zm3.4-1.9c.37-.91-.02-1.96-.9-2.4-.77-.61-1.88-.57-2.6.1l3.4,2.3h.1Z"/><path d="m343.34,53.68l-2.4,2.1c-.6-1-2.1-2-3.5-.7l-3.2,2.8-1.9-2.1,7.2-6.2,1.9,2.1-1.3,1.1c1.18-.42,2.5-.06,3.3.9h-.1Z"/><rect class="cls-7" x="283.05" y="64.08" width="52" height="37" rx="2.9" ry="2.9"/><path class="cls-12" d="m300.34,94.88c-3.29.1-6.48-1.17-8.8-3.5-4.67-4.94-4.67-12.66,0-17.6,2.31-2.36,5.5-3.63,8.8-3.5,3.5,0,4.1.5,5.9,1.5,1.77.96,3.26,2.37,4.3,4.1l-5.2,3c-.48-.83-1.17-1.52-2-2-.92-.49-1.96-.73-3-.7-1.72-.07-3.38.59-4.6,1.8-1.18,1.23-1.8,2.9-1.7,4.6-.23,3.31,2.27,6.17,5.58,6.39.24.02.48.02.72,0,1.05.14,2.12-.11,3-.7.85-.45,1.55-1.15,2-2l5.2,3c-1.04,1.73-2.53,3.14-4.3,4.1-1.84,1.01-3.9,1.53-6,1.5h.1Z"/><path class="cls-12" d="m323.65,77.48h5.6v16.9h-5.6v-1.7c-1.1,1.47-2.86,2.3-4.7,2.2-1.72.12-3.39-.59-4.5-1.9-1.2-1.2-1.7-3-1.7-5.4v-10.1h5.6v9.4c-.06.74.19,1.46.7,2,.48.47,1.13.73,1.8.7.75.01,1.47-.28,2-.8.53-.65.78-1.47.7-2.3v-9h.1Z"/><line class="cls-4" x1="198.92" y1="125.68" x2="199.42" y2="158.46"/><line class="cls-3" x1="198.92" y1="125.68" x2="199.26" y2="147.7"/><polygon class="cls-15" points="191.75 145.62 199.42 158.46 206.72 145.4 191.75 145.62"/><line class="cls-4" x1="117.32" y1="121.42" x2="165.97" y2="160.72"/><line class="cls-3" x1="117.32" y1="121.42" x2="157.6" y2="153.96"/><polygon class="cls-15" points="151.19 158.4 165.97 160.73 160.6 146.77 151.19 158.4"/><line class="cls-4" x1="279.97" y1="121.42" x2="231.33" y2="160.72"/><line class="cls-3" x1="279.97" y1="121.42" x2="239.7" y2="153.96"/><polygon class="cls-15" points="236.7 146.77 231.33 160.72 246.1 158.4 236.7 146.77"/><circle class="cls-1" cx="90.95" cy="72.08" r="45"/><path d="m64.85,56.48l1-3c1.15.63,2.58.43,3.5-.5,1.1-1,1-1.7.7-2.1-.6-.6-1.4-.4-3.4.6s-4.1,1.5-5.9-.5-1.1-4.7.7-6.3c1.58-1.5,3.91-1.9,5.9-1l-1,3c-.95-.52-2.13-.36-2.9.4-.8.7-.8,1.4-.4,1.8s1,.6,3-.4,4.3-1.9,6.2.3c1.8,2,1.2,4.7-1.1,6.7s-4.5,2.1-6.5,1.1l.2-.1Z"/><path d="m69.85,40.58c-.44-.88-.08-1.96.8-2.4s1.96-.08,2.4.8.08,1.96-.8,2.4h0c-.89.39-1.92.04-2.4-.8Zm1.5,2.3l2.7-1.4,4.5,8.9-2.7,1.4-4.5-8.9Z"/><path d="m75.65,35.88l2.9-.9,4.5,13.9-2.9.9-4.5-13.9Z"/><path d="m82.25,35.99c-.16-.99.51-1.93,1.5-2.09.99-.16,1.93.51,2.09,1.5.16.99-.5,1.92-1.49,2.09-.98.17-1.92-.49-2.1-1.47,0,0,0-.02,0-.03Zm.7,2.6l3-.5,1.6,9.9-3,.5-1.6-9.9Z"/><path d="m88.85,42.58c.13-2.85,2.55-5.06,5.41-4.92.1,0,.2.01.29.02,1.86.09,3.52,1.21,4.3,2.9l-2.7,1.3c-.53-1.13-1.88-1.62-3.01-1.09-.74.35-1.24,1.07-1.29,1.89-.16,1.22.7,2.33,1.92,2.48.06,0,.12.01.18.02.8.07,1.58-.31,2-1l2.5,1.7c-1.02,1.56-2.84,2.41-4.7,2.2-2.88-.17-5.08-2.65-4.91-5.53,0-.06,0-.11.01-.17v.2Z"/><path d="m99.75,43.58c1.13-2.68,4.22-3.94,6.9-2.81,2.68,1.13,3.94,4.22,2.81,6.9-1.13,2.68-4.22,3.94-6.9,2.81,0,0,0,0,0,0-2.66-1.09-3.94-4.14-2.84-6.8.01-.03.03-.07.04-.1Zm7,2.9c.53-1.17.02-2.54-1.14-3.08-.02,0-.04-.02-.06-.02-1.11-.5-2.42,0-2.92,1.11-.03.06-.05.13-.08.19-.56,1.1-.11,2.45.99,3.01.07.03.14.06.21.09,1.11.5,2.42,0,2.92-1.11.03-.06.05-.13.08-.19Z"/><path d="m119.25,54.68l-4.2,4.5-2.2-2,3.9-4.2c.69-.6.76-1.65.16-2.34-.05-.06-.1-.11-.16-.16-.72-.71-1.87-.7-2.57.02-.08.09-.16.18-.23.28l-3.7,4-2.2-2,6.8-7.4,2.2,2-.6.7c1.07-.18,2.17.19,2.9,1,1.5,1.4,1.8,3.6,0,5.6h-.1Z"/><rect class="cls-9" x="64.05" y="62.58" width="52" height="37" rx="2.9" ry="2.9"/><path class="cls-12" d="m86.25,93.68c-2.18.11-4.34-.45-6.2-1.6-1.58-1.02-2.78-2.53-3.4-4.3l5.2-3c.69,1.97,2.62,3.24,4.7,3.1,2.3,0,2.8-.5,2.8-1.6s-.5-1.2-1.6-1.7c-.97-.38-1.98-.68-3-.9-1.91-.44-3.66-1.37-5.1-2.7-1.32-1.19-2.02-2.93-1.9-4.7-.03-2.02.81-3.95,2.3-5.3,1.65-1.39,3.77-2.11,5.92-1.99,1.87-.07,3.71.42,5.3,1.4,1.54.96,2.76,2.35,3.5,4l-5.1,3c-.5-1.61-2.02-2.67-3.7-2.6-1.7,0-1.3.1-1.6.4-.36.25-.59.66-.6,1.1.05.54.34,1.02.8,1.3,1,.59,2.08,1.03,3.2,1.3,1.1.4,2,.7,2.8,1,.8.34,1.56.74,2.3,1.2.78.55,1.43,1.26,1.9,2.1.41.95.61,1.97.6,3,.11,2.1-.83,4.12-2.5,5.4-1.87,1.4-4.17,2.11-6.5,2l-.12.09Z"/><path class="cls-12" d="m102.45,73.99c-.6.63-1.43.99-2.3,1-1.79.03-3.27-1.4-3.31-3.19-.02-.91.35-1.78,1.01-2.41.61-.6,1.44-.92,2.3-.9.85,0,1.68.32,2.3.9.63.6.99,1.43,1,2.3.02.88-.35,1.72-1,2.3Zm-5.1,19.2v-16.91h5.62v16.9h-5.62Z"/><circle class="cls-1" cx="199.99" cy="72.08" r="45"/><rect class="cls-13" x="173.99" y="62.08" width="52" height="37" rx="2.9" ry="2.9"/><path class="cls-12" d="m200.8,92.38l-1.1-3.4h-8l-1,3.4h-6.5l7.5-23.6h7.6l7.8,23.6h-6.3Zm-7.6-8.6h4.78l-2.4-8-2.38,8Z"/><path class="cls-12" d="m208.49,92.38v-24.7h5.6v24.7h-5.6Z"/><path d="m176.09,50.78l-2.4,3.1,1,1.4-1.6,2.1-6.1-9.3,1.9-2.4,10.5,3.7-1.6,2.1-1.6-.6-.1-.1Zm-2.2-.8l-3.8-1.4,2.3,3.3,1.5-1.9Z"/><path d="m172.8,40.99l1.7-1.4,7,8.4-1.7,1.4-7-8.4Z"/><path d="m184.97,37.18l3.6,6.6-2,1.1-.3-.6c-.11.81-.64,1.49-1.4,1.8-1.33.74-3.01.25-3.75-1.08-.06-.1-.11-.21-.15-.32l-2.2-4,2-1.1,2,3.8c.29.65,1.06.94,1.71.65.03-.01.06-.03.09-.05.67-.32.95-1.12.63-1.79-.04-.07-.08-.15-.13-.21l-2-3.6,2-1.1-.1-.1Z"/><path d="m199.59,36.68l.8,4.5-2.2.4-.8-4.3c-.03-.6-.54-1.05-1.14-1.02-.06,0-.11.01-.16.02-.7.1-1.1.7-.9,1.6l.7,4.2-2.2.4-.8-4.3c-.03-.6-.54-1.05-1.14-1.02-.06,0-.11.01-.16.02-.7.1-1.1.7-.9,1.6l.7,4.2-2.2.4-1.3-7.4,2.2-.4v.7c.41-.67,1.12-1.11,1.9-1.2.76-.23,1.58,0,2.1.6.37-.79,1.13-1.33,2-1.4,1.7-.3,3,.7,3.3,2.6l.2-.2Z"/><path d="m201.89,34.28l2.2.2-.6,7.5-2.2-.2.6-7.5Zm0-2c.08-.75.75-1.29,1.5-1.2.75.08,1.29.75,1.2,1.5s-.75,1.29-1.5,1.2c0,0,0,0,0,0-.72-.05-1.26-.66-1.21-1.38,0-.04,0-.08.01-.12Z"/><path d="m212.89,39.38l-1.2,4.4-2.2-.6,1.1-4.1c.24-.68-.11-1.42-.78-1.66-.04-.01-.08-.03-.12-.04-.69-.26-1.46.08-1.72.76-.04.11-.07.22-.08.34l-1.1,3.9-2.2-.6,2-7.2,2.2.6-.2.7c.67-.47,1.53-.58,2.3-.3,1.49.39,2.38,1.91,2,3.4-.03.1-.06.2-.1.3l.1.1Z"/><path d="m222.49,41.38l-3.8,6.4-1.9-1.2.4-.6c-.77.29-1.63.18-2.3-.3-1.32-.77-1.78-2.46-1.01-3.78.06-.11.13-.22.21-.32l2.4-4,1.9,1.2-2.2,3.7c-.41.5-.34,1.24.16,1.65.07.06.15.11.24.15.63.41,1.48.23,1.89-.4.04-.06.08-.13.11-.2l2.1-3.5,1.9,1.2h-.1Z"/><path d="m230.3,53.68l-3.5,3-1.5-1.7,3.4-2.9c.6-.5.7-1.1.2-1.6-.43-.5-1.18-.55-1.68-.12-.04.04-.08.08-.12.12l-3.2,2.7-1.5-1.7,3.4-2.9c.6-.5.7-1.1.2-1.6-.43-.5-1.18-.55-1.68-.12-.04.04-.08.08-.12.12l-3.2,2.7-1.5-1.7,5.7-4.9,1.5,1.7-.5.4c.76,0,1.49.34,2,.9.54.56.73,1.36.5,2.1.85-.02,1.66.35,2.2,1,1.03,1.19.9,3-.29,4.03-.07.06-.14.11-.21.17l-.1.3Z"/><path class="cls-14" d="m128.66,319.91c.55,0,1.09.02,1.64.03.93,0,1.69.76,1.7,1.69.01.85,0,1.71,0,2.56,0,7.23,0,14.46,0,21.69,0,.47-.02.95-.16,1.4-.17.54-.83,1.02-1.39,1.02-6.12,0-12.25,0-18.37,0-.03,0-.06,0-.08-.01,0-1.66,0-3.33,0-4.99,1.28,0,2.55,0,3.83-.01.16,0,.35.04.35-.23.01-.63.06-1.27-.09-1.88-.4-1.63-.87-3.24-1.28-4.86-.11-.44-.24-.87-.39-1.3-.25-.67.21-1.01.61-1.38.66-.61.94-1.36,1.09-2.24.33-1.82-1.2-4.01-2.94-4.57-.06-.09-.13-.14-.24-.09-.09-.02-.18-.04-.27-.06-.04-.06-.09-.07-.15-.04-.17-.02-.34-.05-.51-.07,0-2.21,0-4.42,0-6.64,3.14,0,6.28-.01,9.42-.02.2,0,.39-.02.59-.02,1.12.03,2.25.05,3.37,0,1.1.06,2.2.05,3.3,0Z"/><path class="cls-8" d="m111.99,343.31c0,1.66,0,3.33,0,4.99-.63,0-1.26.01-1.89.01-5.34,0-10.68-.03-16.02.02-1.41.01-2.13-.75-2.13-2.13.05-8.17.03-16.35,0-24.52,0-.98.79-1.76,1.72-1.74.55.01,1.09-.01,1.64-.02,1.1.03,2.2.05,3.3-.01,1.12.06,2.24.04,3.36.01.18,0,.36.02.55.02,3.15,0,6.31,0,9.46.01,0,2.21,0,4.42,0,6.64-.35.17-.75.09-1.12.23-1.56.61-2.59,1.66-2.96,3.32-.07.04-.12.08-.03.15-.12,1.37.02,2.63,1.25,3.54.39.29.54.72.38,1.25-.1.33-.22.65-.3.99-.22.92-.46,1.83-.7,2.74-.18.67-.39,1.34-.55,2.02-.16.67-.12,1.35-.14,2.04-.01.34.08.46.44.45,1.25-.02,2.49,0,3.74,0Z"/><path class="cls-11" d="m98.62,319.9c-1.1.07-2.2.04-3.3.01,0-2.97-.02-5.94.02-8.91.02-1.38.21-2.74.61-4.07.48-1.61,1.16-3.11,2.08-4.5,1.15-1.74,2.58-3.23,4.29-4.44,1.12-.8,2.3-1.51,3.59-1.96,1.28-.45,2.58-.89,3.97-.99.78-.05,1.55-.17,2.33-.16,1.94.03,3.82.42,5.63,1.1,1.82.68,3.45,1.67,4.94,2.91,1.28,1.07,2.34,2.33,3.23,3.73.64.99,1.14,2.05,1.56,3.15.24.61.4,1.24.61,1.85.19.55.23,1.17.29,1.76.38,3.5.09,7.02.19,10.53-1.1.04-2.2.06-3.3,0,0-2.51-.02-5.02.01-7.53.02-1.44-.16-2.86-.52-4.25-.5-1.96-1.41-3.72-2.73-5.23-1.62-1.85-3.58-3.24-5.95-3.99-1.68-.53-3.39-.7-5.16-.6-1.64.1-3.18.48-4.64,1.16-2.43,1.13-4.34,2.87-5.76,5.15-1.22,1.97-1.89,4.13-1.97,6.42-.11,2.95-.02,5.92-.02,8.87Z"/><path class="cls-6" d="m121.99,319.91c0-2.66.02-5.33,0-7.99-.02-1.42-.21-2.82-.78-4.13-.45-1.04-1.05-1.99-1.8-2.86-1.11-1.29-2.5-2.19-4.07-2.76-1.45-.52-2.97-.7-4.53-.5-.96.12-1.88.34-2.74.71-2.39,1.04-4.16,2.76-5.24,5.15-.51,1.12-.71,2.29-.77,3.52-.14,2.95-.02,5.91-.07,8.86-1.12.02-2.24.05-3.36-.01,0-2.96-.09-5.92.02-8.87.08-2.28.75-4.45,1.97-6.42,1.42-2.28,3.33-4.02,5.76-5.15,1.46-.68,3-1.07,4.64-1.16,1.77-.1,3.48.06,5.16.6,2.37.75,4.33,2.14,5.95,3.99,1.32,1.51,2.23,3.27,2.73,5.23.35,1.39.54,2.8.52,4.25-.03,2.51-.01,5.02-.01,7.53-1.12.06-2.25.04-3.37,0Z"/><path class="cls-10" d="m111.99,343.31c-1.25,0-2.5-.02-3.74,0-.36,0-.45-.11-.44-.45.03-.68-.02-1.37.14-2.04.16-.68.37-1.34.55-2.02.24-.91.49-1.82.7-2.74.08-.34.2-.66.3-.99.16-.54,0-.97-.38-1.25-1.23-.91-1.37-2.17-1.25-3.54.07-.04.07-.09.03-.15.37-1.66,1.4-2.71,2.96-3.32.37-.14.77-.06,1.12-.23.17.02.34.05.51.07.03.09.08.14.15.04.09.02.18.04.27.06.05.12.15.09.24.09,1.74.56,3.27,2.74,2.94,4.57-.16.87-.43,1.63-1.09,2.24-.4.37-.86.71-.61,1.38.16.42.28.86.39,1.3.42,1.62.89,3.23,1.28,4.86.15.61.1,1.25.09,1.88,0,.27-.19.23-.35.23-1.28,0-2.55,0-3.83.01Z"/><path class="cls-6" d="m113.16,326.85c-.09,0-.19.03-.24-.09.11-.05.19,0,.24.09Z"/><path class="cls-6" d="m112.65,326.7c-.08.1-.12.05-.15-.04.06-.03.11-.02.15.04Z"/><path class="cls-11" d="m107.9,330.13c.04.06.04.11-.03.15-.09-.07-.03-.11.03-.15Z"/><circle class="cls-2" cx="112.13" cy="324.13" r="42.87"/><path class="cls-14" d="m219.67,205.91c.55,0,1.09.02,1.64.03.93,0,1.69.76,1.7,1.69.01.85,0,1.71,0,2.56,0,7.23,0,14.46,0,21.69,0,.47-.02.95-.16,1.4-.17.54-.83,1.02-1.39,1.02-6.12,0-12.25,0-18.37,0-.03,0-.06,0-.08-.01,0-1.66,0-3.33,0-4.99,1.28,0,2.55,0,3.83-.01.16,0,.35.04.35-.23.01-.63.06-1.27-.09-1.88-.4-1.63-.87-3.24-1.28-4.86-.11-.44-.24-.87-.39-1.3-.25-.67.21-1.01.61-1.38.66-.61.94-1.36,1.09-2.24.33-1.82-1.2-4.01-2.94-4.57-.06-.09-.13-.14-.24-.09-.09-.02-.18-.04-.27-.06-.04-.06-.09-.07-.15-.04-.17-.02-.34-.05-.51-.07,0-2.21,0-4.42,0-6.64,3.14,0,6.28-.01,9.42-.02.2,0,.39-.02.59-.02,1.12.03,2.25.05,3.37,0,1.1.06,2.2.05,3.3,0Z"/><path class="cls-8" d="m203,229.31c0,1.66,0,3.33,0,4.99-.63,0-1.26.01-1.89.01-5.34,0-10.68-.03-16.02.02-1.41.01-2.13-.75-2.13-2.13.05-8.17.03-16.35,0-24.52,0-.98.79-1.76,1.72-1.74.55.01,1.09-.01,1.64-.02,1.1.03,2.2.05,3.3-.01,1.12.06,2.24.04,3.36.01.18,0,.36.02.55.02,3.15,0,6.31,0,9.46.01,0,2.21,0,4.42,0,6.64-.35.17-.75.09-1.12.23-1.56.61-2.59,1.66-2.96,3.32-.07.04-.12.08-.03.15-.12,1.37.02,2.63,1.25,3.54.39.29.54.72.38,1.25-.1.33-.22.65-.3.99-.22.92-.46,1.83-.7,2.74-.18.67-.39,1.34-.55,2.02-.16.67-.12,1.35-.14,2.04-.01.34.08.46.44.45,1.25-.02,2.49,0,3.74,0Z"/><path class="cls-11" d="m189.63,205.9c-1.1.07-2.2.04-3.3.01,0-2.97-.02-5.94.02-8.91.02-1.38.21-2.74.61-4.07.48-1.61,1.16-3.11,2.08-4.5,1.15-1.74,2.58-3.23,4.29-4.44,1.12-.8,2.3-1.51,3.59-1.96,1.28-.45,2.58-.89,3.97-.99.78-.05,1.55-.17,2.33-.16,1.94.03,3.82.42,5.63,1.1,1.82.68,3.45,1.67,4.94,2.91,1.28,1.07,2.34,2.33,3.23,3.73.64.99,1.14,2.05,1.56,3.15.24.61.4,1.24.61,1.85.19.55.23,1.17.29,1.76.38,3.5.09,7.02.19,10.53-1.1.04-2.2.06-3.3,0,0-2.51-.02-5.02.01-7.53.02-1.44-.16-2.86-.52-4.25-.5-1.96-1.41-3.72-2.73-5.23-1.62-1.85-3.58-3.24-5.95-3.99-1.68-.53-3.39-.7-5.16-.6-1.64.1-3.18.48-4.64,1.16-2.43,1.13-4.34,2.87-5.76,5.15-1.22,1.97-1.89,4.13-1.97,6.42-.11,2.95-.02,5.92-.02,8.87Z"/><path class="cls-6" d="m213,205.91c0-2.66.02-5.33,0-7.99-.02-1.42-.21-2.82-.78-4.13-.45-1.04-1.05-1.99-1.8-2.86-1.11-1.29-2.5-2.19-4.07-2.76-1.45-.52-2.97-.7-4.53-.5-.96.12-1.88.34-2.74.71-2.39,1.04-4.16,2.76-5.24,5.15-.51,1.12-.71,2.29-.77,3.52-.14,2.95-.02,5.91-.07,8.86-1.12.02-2.24.05-3.36-.01,0-2.96-.09-5.92.02-8.87.08-2.28.75-4.45,1.97-6.42,1.42-2.28,3.33-4.02,5.76-5.15,1.46-.68,3-1.07,4.64-1.16,1.77-.1,3.48.06,5.16.6,2.37.75,4.33,2.14,5.95,3.99,1.32,1.51,2.23,3.27,2.73,5.23.35,1.39.54,2.8.52,4.25-.03,2.51-.01,5.02-.01,7.53-1.12.06-2.25.04-3.37,0Z"/><path class="cls-10" d="m203,229.31c-1.25,0-2.5-.02-3.74,0-.36,0-.45-.11-.44-.45.03-.68-.02-1.37.14-2.04.16-.68.37-1.34.55-2.02.24-.91.49-1.82.7-2.74.08-.34.2-.66.3-.99.16-.54,0-.97-.38-1.25-1.23-.91-1.37-2.17-1.25-3.54.07-.04.07-.09.03-.15.37-1.66,1.4-2.71,2.96-3.32.37-.14.77-.06,1.12-.23.17.02.34.05.51.07.03.09.08.14.15.04.09.02.18.04.27.06.05.12.15.09.24.09,1.74.56,3.27,2.74,2.94,4.57-.16.87-.43,1.63-1.09,2.24-.4.37-.86.71-.61,1.38.16.42.28.86.39,1.3.42,1.62.89,3.23,1.28,4.86.15.61.1,1.25.09,1.88,0,.27-.19.23-.35.23-1.28,0-2.55,0-3.83.01Z"/><path class="cls-6" d="m204.17,212.85c-.09,0-.19.03-.24-.09.11-.05.19,0,.24.09Z"/><path class="cls-6" d="m203.66,212.7c-.08.1-.12.05-.15-.04.06-.03.11-.02.15.04Z"/><path class="cls-11" d="m198.92,216.13c.04.06.04.11-.03.15-.09-.07-.03-.11.03-.15Z"/><circle class="cls-2" cx="203.14" cy="210.13" r="42.87"/><path class="cls-14" d="m305.67,315.91c.55,0,1.09.02,1.64.03.93,0,1.69.76,1.7,1.69.01.85,0,1.71,0,2.56,0,7.23,0,14.46,0,21.69,0,.47-.02.95-.16,1.4-.17.54-.83,1.02-1.39,1.02-6.12,0-12.25,0-18.37,0-.03,0-.06,0-.08-.01,0-1.66,0-3.33,0-4.99,1.28,0,2.55,0,3.83-.01.16,0,.35.04.35-.23.01-.63.06-1.27-.09-1.88-.4-1.63-.87-3.24-1.28-4.86-.11-.44-.24-.87-.39-1.3-.25-.67.21-1.01.61-1.38.66-.61.94-1.36,1.09-2.24.33-1.82-1.2-4.01-2.94-4.57-.06-.09-.13-.14-.24-.09-.09-.02-.18-.04-.27-.06-.04-.06-.09-.07-.15-.04-.17-.02-.34-.05-.51-.07,0-2.21,0-4.42,0-6.64,3.14,0,6.28-.01,9.42-.02.2,0,.39-.02.59-.02,1.12.03,2.25.05,3.37,0,1.1.06,2.2.05,3.3,0Z"/><path class="cls-8" d="m289,339.31c0,1.66,0,3.33,0,4.99-.63,0-1.26.01-1.89.01-5.34,0-10.68-.03-16.02.02-1.41.01-2.13-.75-2.13-2.13.05-8.17.03-16.35,0-24.52,0-.98.79-1.76,1.72-1.74.55.01,1.09-.01,1.64-.02,1.1.03,2.2.05,3.3-.01,1.12.06,2.24.04,3.36.01.18,0,.36.02.55.02,3.15,0,6.31,0,9.46.01,0,2.21,0,4.42,0,6.64-.35.17-.75.09-1.12.23-1.56.61-2.59,1.66-2.96,3.32-.07.04-.12.08-.03.15-.12,1.37.02,2.63,1.25,3.54.39.29.54.72.38,1.25-.1.33-.22.65-.3.99-.22.92-.46,1.83-.7,2.74-.18.67-.39,1.34-.55,2.02-.16.67-.12,1.35-.14,2.04-.01.34.08.46.44.45,1.25-.02,2.49,0,3.74,0Z"/><path class="cls-11" d="m275.63,315.9c-1.1.07-2.2.04-3.3.01,0-2.97-.02-5.94.02-8.91.02-1.38.21-2.74.61-4.07.48-1.61,1.16-3.11,2.08-4.5,1.15-1.74,2.58-3.23,4.29-4.44,1.12-.8,2.3-1.51,3.59-1.96,1.28-.45,2.58-.89,3.97-.99.78-.05,1.55-.17,2.33-.16,1.94.03,3.82.42,5.63,1.1,1.82.68,3.45,1.67,4.94,2.91,1.28,1.07,2.34,2.33,3.23,3.73.64.99,1.14,2.05,1.56,3.15.24.61.4,1.24.61,1.85.19.55.23,1.17.29,1.76.38,3.5.09,7.02.19,10.53-1.1.04-2.2.06-3.3,0,0-2.51-.02-5.02.01-7.53.02-1.44-.16-2.86-.52-4.25-.5-1.96-1.41-3.72-2.73-5.23-1.62-1.85-3.58-3.24-5.95-3.99-1.68-.53-3.39-.7-5.16-.6-1.64.1-3.18.48-4.64,1.16-2.43,1.13-4.34,2.87-5.76,5.15-1.22,1.97-1.89,4.13-1.97,6.42-.11,2.95-.02,5.92-.02,8.87Z"/><path class="cls-6" d="m299,315.91c0-2.66.02-5.33,0-7.99-.02-1.42-.21-2.82-.78-4.13-.45-1.04-1.05-1.99-1.8-2.86-1.11-1.29-2.5-2.19-4.07-2.76-1.45-.52-2.97-.7-4.53-.5-.96.12-1.88.34-2.74.71-2.39,1.04-4.16,2.76-5.24,5.15-.51,1.12-.71,2.29-.77,3.52-.14,2.95-.02,5.91-.07,8.86-1.12.02-2.24.05-3.36-.01,0-2.96-.09-5.92.02-8.87.08-2.28.75-4.45,1.97-6.42,1.42-2.28,3.33-4.02,5.76-5.15,1.46-.68,3-1.07,4.64-1.16,1.77-.1,3.48.06,5.16.6,2.37.75,4.33,2.14,5.95,3.99,1.32,1.51,2.23,3.27,2.73,5.23.35,1.39.54,2.8.52,4.25-.03,2.51-.01,5.02-.01,7.53-1.12.06-2.25.04-3.37,0Z"/><path class="cls-10" d="m289,339.31c-1.25,0-2.5-.02-3.74,0-.36,0-.45-.11-.44-.45.03-.68-.02-1.37.14-2.04.16-.68.37-1.34.55-2.02.24-.91.49-1.82.7-2.74.08-.34.2-.66.3-.99.16-.54,0-.97-.38-1.25-1.23-.91-1.37-2.17-1.25-3.54.07-.04.07-.09.03-.15.37-1.66,1.4-2.71,2.96-3.32.37-.14.77-.06,1.12-.23.17.02.34.05.51.07.03.09.08.14.15.04.09.02.18.04.27.06.05.12.15.09.24.09,1.74.56,3.27,2.74,2.94,4.57-.16.87-.43,1.63-1.09,2.24-.4.37-.86.71-.61,1.38.16.42.28.86.39,1.3.42,1.62.89,3.23,1.28,4.86.15.61.1,1.25.09,1.88,0,.27-.19.23-.35.23-1.28,0-2.55,0-3.83.01Z"/><path class="cls-6" d="m290.17,322.85c-.09,0-.19.03-.24-.09.11-.05.19,0,.24.09Z"/><path class="cls-6" d="m289.66,322.7c-.08.1-.12.05-.15-.04.06-.03.11-.02.15.04Z"/><path class="cls-11" d="m284.92,326.13c.04.06.04.11-.03.15-.09-.07-.03-.11.03-.15Z"/><circle class="cls-2" cx="289.14" cy="320.13" r="42.87"/></svg>