<?xml version="1.0" encoding="UTF-8"?><svg id="Layer_1" xmlns="http://www.w3.org/2000/svg" viewBox="0 0 400 400"><defs><style>.cls-1{stroke:#a5262d;}.cls-1,.cls-2,.cls-3{stroke-width:4px;}.cls-1,.cls-2,.cls-3,.cls-4{stroke-miterlimit:10;}.cls-1,.cls-2,.cls-3,.cls-4,.cls-5{fill:none;}.cls-6{fill:#1f444f;}.cls-2{stroke:#0018c6;}.cls-7{fill:#cbcbcb;}.cls-8{fill:#2d5a5d;}.cls-9{fill:#f2a745;}.cls-10{fill:#dda927;}.cls-3{stroke:#c000e2;}.cls-11{fill:#f15a24;}.cls-12{fill:#1e4b4c;}.cls-13{fill:#c69c6d;}.cls-14{fill:#6bc048;}.cls-4{stroke:#231f20;stroke-width:2px;}.cls-15{fill:#f0f1ef;}.cls-16{fill:#f0f1f0;}.cls-17{fill:#484645;}.cls-18{fill:#2e5a5d;}.cls-19{fill:#b3b3b3;}.cls-20{fill:#f1f1f1;}.cls-21{fill:#edcd67;}.cls-22{fill:#559a38;}.cls-23{fill:#231f20;}.cls-24{fill:#f0c343;}.cls-25{fill:#1a846e;}.cls-26{fill:#dca826;}.cls-27{fill:#249582;}.cls-28{fill:#edcb61;}</style></defs><line class="cls-5" x1="199.7" y1="251.77" x2="200.2" y2="284.55"/><line class="cls-4" x1="199.7" y1="251.77" x2="200.04" y2="273.79"/><polygon class="cls-23" points="192.52 271.71 200.2 284.55 207.48 271.49 192.52 271.71"/><line class="cls-5" x1="199.75" y1="115.77" x2="200.25" y2="148.55"/><line class="cls-4" x1="199.75" y1="115.77" x2="200.09" y2="137.79"/><polygon class="cls-23" points="192.57 135.71 200.25 148.55 207.53 135.49 192.57 135.71"/><line class="cls-5" x1="112.18" y1="111.51" x2="160.82" y2="150.81"/><line class="cls-4" x1="112.18" y1="111.51" x2="152.45" y2="144.05"/><polygon class="cls-23" points="146.05 148.49 160.82 150.82 155.45 136.86 146.05 148.49"/><line class="cls-5" x1="287.82" y1="111.51" x2="239.18" y2="150.81"/><line class="cls-4" x1="287.82" y1="111.51" x2="247.55" y2="144.05"/><polygon class="cls-23" points="244.55 136.86 239.18 150.81 253.95 148.49 244.55 136.86"/><circle class="cls-1" cx="91.32" cy="62.06" r="45"/><path d="m65.22,46.46l1-3c1.15.63,2.58.43,3.5-.5,1.1-1,1-1.7.7-2.1-.6-.6-1.4-.4-3.4.6s-4.1,1.5-5.9-.5c-1.8-2-1.1-4.7.7-6.3,1.58-1.5,3.91-1.9,5.9-1l-1,3c-.95-.52-2.13-.36-2.9.4-.8.7-.8,1.4-.4,1.8s1,.6,3-.4,4.3-1.9,6.2.3c1.8,2,1.2,4.7-1.1,6.7s-4.5,2.1-6.5,1.1l.2-.1Z"/><path d="m70.22,30.56c-.44-.88-.08-1.96.8-2.4.88-.44,1.96-.08,2.4.8.44.88.08,1.96-.8,2.4h0c-.89.39-1.92.04-2.4-.8Zm1.5,2.3l2.7-1.4,4.5,8.9-2.7,1.4-4.5-8.9Z"/><path d="m76,25.86l2.9-.9,4.5,13.9-2.9.9-4.5-13.9Z"/><path d="m82.62,25.96c-.16-.99.51-1.93,1.5-2.09.99-.16,1.93.51,2.09,1.5.16.99-.5,1.92-1.49,2.09-.98.17-1.92-.49-2.1-1.47,0,0,0-.02,0-.03Zm.7,2.6l3-.5,1.6,9.9-3,.5-1.6-9.9Z"/><path d="m89.22,32.56c.13-2.85,2.55-5.06,5.41-4.92.1,0,.2.01.29.02,1.86.09,3.52,1.21,4.3,2.9l-2.7,1.3c-.53-1.13-1.88-1.62-3.01-1.09-.74.35-1.24,1.07-1.29,1.89-.16,1.22.7,2.33,1.92,2.48.06,0,.12.01.18.02.8.07,1.58-.31,2-1l2.5,1.7c-1.02,1.56-2.84,2.41-4.7,2.2-2.88-.17-5.08-2.65-4.91-5.53,0-.06,0-.11.01-.17v.2Z"/><path d="m100.12,33.56c1.13-2.68,4.22-3.94,6.9-2.81,2.68,1.13,3.94,4.22,2.81,6.9-1.13,2.68-4.22,3.94-6.9,2.81,0,0,0,0,0,0-2.66-1.09-3.94-4.14-2.84-6.8.01-.03.03-.07.04-.1Zm7,2.9c.53-1.17.02-2.54-1.14-3.08-.02,0-.04-.02-.06-.02-1.11-.5-2.42,0-2.92,1.11-.03.06-.05.13-.08.19-.56,1.1-.11,2.45.99,3.01.07.03.14.06.21.09,1.11.5,2.42,0,2.92-1.11.03-.06.05-.13.08-.19Z"/><path d="m119.62,44.66l-4.2,4.5-2.2-2,3.9-4.2c.69-.6.76-1.65.16-2.34-.05-.06-.1-.11-.16-.16-.72-.71-1.87-.7-2.57.02-.08.09-.16.18-.23.28l-3.7,4-2.2-2,6.8-7.4,2.2,2-.6.7c1.07-.18,2.17.19,2.9,1,1.5,1.4,1.8,3.6,0,5.6h-.1Z"/><rect class="cls-13" x="64.42" y="52.56" width="52" height="37" rx="2.9" ry="2.9"/><path class="cls-17" d="m86.62,83.66c-2.18.11-4.34-.45-6.2-1.6-1.58-1.02-2.78-2.53-3.4-4.3l5.2-3c.69,1.97,2.62,3.24,4.7,3.1,2.3,0,2.8-.5,2.8-1.6s-.5-1.2-1.6-1.7c-.97-.38-1.98-.68-3-.9-1.91-.44-3.66-1.37-5.1-2.7-1.32-1.19-2.02-2.93-1.9-4.7-.03-2.02.81-3.95,2.3-5.3,1.64-1.39,3.75-2.11,5.9-2,1.87-.07,3.71.42,5.3,1.4,1.54.96,2.76,2.35,3.5,4l-5.1,3c-.5-1.61-2.02-2.67-3.7-2.6-1.7,0-1.3.1-1.6.4-.36.25-.59.66-.6,1.1.05.54.34,1.02.8,1.3,1,.59,2.08,1.03,3.2,1.3,1.1.4,2,.7,2.8,1,.8.34,1.56.74,2.3,1.2.78.55,1.43,1.26,1.9,2.1.41.95.61,1.97.6,3,.11,2.1-.83,4.12-2.5,5.4-1.87,1.4-4.17,2.11-6.5,2l-.1.1Z"/><path class="cls-17" d="m102.82,63.96c-.6.63-1.43.99-2.3,1-1.79.03-3.27-1.4-3.31-3.19-.02-.91.35-1.78,1.01-2.41.61-.6,1.44-.92,2.3-.9.85,0,1.68.32,2.3.9.63.6.99,1.43,1,2.3.02.88-.35,1.72-1,2.3Zm-5.1,19.2v-16.9h5.6v16.9h-5.6Z"/><circle class="cls-1" cx="200" cy="62.06" r="45"/><rect class="cls-19" x="174" y="52.06" width="52" height="37" rx="2.9" ry="2.9"/><path class="cls-17" d="m200.8,82.36l-1.1-3.4h-8l-1,3.4h-6.5l7.5-23.6h7.6l7.8,23.6h-6.3Zm-7.6-8.6h4.8l-2.4-8-2.4,8Z"/><path class="cls-17" d="m208.5,82.36v-24.7h5.6v24.7h-5.6Z"/><path d="m176.1,40.76l-2.4,3.1,1,1.4-1.6,2.1-6.1-9.28,1.9-2.4,10.5,3.7-1.6,2.1-1.6-.6-.1-.12Zm-2.2-.8l-3.8-1.4,2.3,3.3,1.5-1.9Z"/><path d="m172.8,30.96l1.7-1.4,7,8.4-1.7,1.4-7-8.4Z"/><path d="m185,27.16l3.6,6.6-2,1.1-.3-.6c-.11.81-.64,1.49-1.4,1.8-1.33.74-3.01.25-3.75-1.08-.06-.1-.11-.21-.15-.32l-2.2-4,2-1.1,2,3.8c.29.65,1.06.94,1.71.65.03-.01.06-.03.09-.05.67-.32.95-1.12.63-1.79-.04-.07-.08-.15-.13-.21l-2-3.6,2-1.1-.1-.1Z"/><path d="m199.6,26.66l.8,4.5-2.2.4-.8-4.3c-.03-.6-.54-1.05-1.14-1.02-.06,0-.11.01-.16.02-.7.1-1.1.7-.9,1.6l.7,4.2-2.2.4-.8-4.3c-.03-.6-.54-1.05-1.14-1.02-.06,0-.11.01-.16.02-.7.1-1.1.7-.9,1.6l.7,4.2-2.2.4-1.3-7.4,2.2-.4v.7c.42-.66,1.12-1.1,1.9-1.18.76-.23,1.58,0,2.1.6.37-.79,1.13-1.33,2-1.4,1.7-.3,3,.7,3.3,2.6l.2-.22Z"/><path d="m201.9,24.26l2.2.2-.6,7.5-2.2-.2.6-7.5Zm0-2c.08-.75.75-1.29,1.5-1.2.75.08,1.29.75,1.2,1.5s-.75,1.29-1.5,1.2c0,0,0,0,0,0-.72-.05-1.26-.66-1.21-1.38,0-.04,0-.08.01-.12Z"/><path d="m212.9,29.36l-1.2,4.4-2.2-.6,1.1-4.1c.24-.68-.11-1.42-.78-1.66-.04-.01-.08-.03-.12-.04-.69-.26-1.46.08-1.72.76-.04.11-.07.22-.08.34l-1.1,3.9-2.2-.6,2-7.2,2.2.6-.2.7c.67-.47,1.53-.58,2.3-.3,1.49.39,2.38,1.91,2,3.4-.03.1-.06.2-.1.3l.1.1Z"/><path d="m222.5,31.36l-3.8,6.4-1.9-1.2.4-.6c-.77.29-1.63.18-2.3-.3-1.32-.77-1.78-2.46-1.01-3.78.06-.11.13-.22.21-.32l2.4-4,1.9,1.2-2.2,3.7c-.41.5-.34,1.24.16,1.65.07.06.15.11.24.15.63.41,1.48.23,1.89-.4.04-.06.08-.13.11-.2l2.1-3.5,1.9,1.2h-.1Z"/><path d="m230.3,43.66l-3.5,3-1.5-1.7,3.4-2.9c.6-.5.7-1.1.2-1.6-.43-.5-1.18-.55-1.68-.12-.04.04-.08.08-.12.12l-3.2,2.7-1.5-1.7,3.4-2.9c.6-.5.7-1.1.2-1.6-.43-.5-1.18-.55-1.68-.12-.04.04-.08.08-.12.12l-3.2,2.7-1.5-1.7,5.7-4.9,1.5,1.7-.5.4c.76,0,1.49.34,2,.9.54.56.73,1.36.5,2.1.85-.02,1.66.35,2.2,1,1.03,1.19.9,3-.29,4.03-.07.06-.14.11-.21.17l-.1.3Z"/><circle class="cls-1" cx="308.68" cy="61.57" r="45"/><path d="m279.38,46.37c-2.78-2.42-3.08-6.64-.65-9.42.11-.13.23-.26.35-.38,1.53-1.71,3.84-2.51,6.1-2.1l-.7,3c-1.22-.24-2.47.17-3.3,1.1-1.42,1.64-1.24,4.12.4,5.54,1.54,1.33,3.83,1.27,5.3-.14.91-.88,1.26-2.19.9-3.4l2.9-.9c.92,3.67-1.3,7.39-4.97,8.31-2.29.58-4.73-.07-6.43-1.71l.1.1Z"/><path d="m290.88,37.67c-1.21-2.48-.18-5.48,2.31-6.68,2.48-1.21,5.48-.18,6.68,2.31,1.21,2.48.18,5.46-2.29,6.68-2.48,1.22-5.47.19-6.69-2.28,0,0,0-.01,0-.02Zm6.5-3.1c-.57-1.05-1.89-1.45-2.94-.88s-1.45,1.89-.88,2.94c.54,1.01,1.78,1.42,2.82.94,1.08-.48,1.57-1.74,1.09-2.82-.03-.06-.06-.12-.09-.18Z"/><path d="m312.18,31.57c.41,2.62-1.38,5.08-4,5.5-1.04.15-2.09-.14-2.9-.8l.5,4.7-2.8.3-1.5-13.19,2.8-.3v.9c.69-.86,1.7-1.4,2.8-1.5,2.63-.18,4.92,1.81,5.1,4.44,0,.02,0,.04,0,.06v-.11Zm-2.8.3c-.08-1.25-1.16-2.19-2.4-2.11-.03,0-.07,0-.1,0-1.21.08-2.12,1.13-2.03,2.34,0,.09.02.18.03.26.08,1.25,1.16,2.19,2.4,2.11.03,0,.07,0,.1,0,1.21-.08,2.12-1.13,2.03-2.34,0-.09-.02-.18-.03-.26Z"/><path d="m324.38,34.27c-.52,2.58-3.01,4.27-5.6,3.8-1.04-.24-1.94-.89-2.5-1.8l-1.1,4.6-2.8-.7,3.2-12.9,2.8.7-.2.9c.9-.55,1.99-.69,3-.4,2.53.76,3.97,3.43,3.21,5.96,0,.01,0,.02-.01.04v-.2Zm-2.8-.7c.27-1.22-.5-2.44-1.72-2.71-1.22-.27-2.44.5-2.71,1.72-.26,1.19.46,2.37,1.63,2.69,1.18.34,2.41-.33,2.75-1.51.02-.06.03-.13.05-.19h0Z"/><path d="m329,39.97c.57.35,1.24.49,1.9.4l1.2,2.4c-1.52.57-3.22.3-4.5-.7-2.7-1.8-3.2-4.7-1.6-7.1,1.17-2.5,4.14-3.58,6.65-2.42,2.5,1.17,3.58,4.14,2.42,6.65-.2.42-.45.82-.76,1.17-.2.3-.5.6-.7.9l-5.6-3.7c-.16.98.32,1.94,1.2,2.4h-.2Zm3.4-1.9c.37-.91-.02-1.96-.9-2.4-.77-.61-1.88-.57-2.6.1l3.4,2.3h.1Z"/><path d="m343,43.17l-2.4,2.1c-.6-1-2.1-2-3.5-.7l-3.2,2.8-1.9-2.1,7.2-6.2,1.9,2.1-1.3,1.1c1.18-.42,2.5-.06,3.3.9h-.1Z"/><rect class="cls-11" x="282.68" y="53.57" width="52" height="37" rx="2.9" ry="2.9"/><path class="cls-17" d="m300,84.37c-3.29.1-6.48-1.17-8.8-3.5-4.67-4.94-4.67-12.66,0-17.6,2.31-2.36,5.5-3.63,8.8-3.5,3.5,0,4.1.5,5.9,1.5,1.77.96,3.26,2.37,4.3,4.1l-5.2,3c-.48-.83-1.17-1.52-2-2-.92-.49-1.96-.73-3-.7-1.72-.07-3.38.59-4.6,1.8-1.18,1.23-1.8,2.9-1.7,4.6-.23,3.31,2.27,6.17,5.58,6.39.24.02.48.02.72,0,1.05.14,2.12-.11,3-.7.85-.45,1.55-1.15,2-2l5.2,3c-1.04,1.73-2.53,3.14-4.3,4.1-1.84,1.01-3.9,1.53-6,1.5h.1Z"/><path class="cls-17" d="m323.28,66.97h5.6v16.9h-5.6v-1.7c-1.1,1.47-2.86,2.3-4.7,2.2-1.72.12-3.39-.59-4.5-1.9-1.2-1.2-1.7-3-1.7-5.4v-10.1h5.62v9.4c-.06.74.19,1.46.7,2,.48.47,1.13.73,1.8.7.75.01,1.47-.28,2-.8.53-.65.78-1.47.7-2.3v-9h.08Z"/><circle class="cls-2" cx="200" cy="199.57" r="45"/><path class="cls-25" d="m166.9,196.77c.17-.23.42-.37.7-.4h6.8v3.3c-.48.3-.75.84-.7,1.4v12.7c0,.9.4,1.3,1.3,1.3h4.7c.6,0,1.3-.3,1.1-1.2v-.5h4.6v.3c0,1.1.3,1.4,1.4,1.4h4.6c.8,0,1.1-.4,1.2-1.1v-.6h4.6v.3c0,1.2.2,1.4,1.4,1.4h4.3c.9,0,1.3-.4,1.3-1.3v-.5h4.6v.3c0,1.1.3,1.4,1.4,1.4h4.6c.8,0,1.1-.4,1.2-1.2v-.5h4.6v.4c0,1.1.2,1.2,1.2,1.2h2.6c.79.2,1.61.2,2.4,0,.5,0,.8-.4.8-1-.02-.24.02-.48.1-.7h6.8v5h-68.3v-9.6c.31-.05.62-.16.9-.3,1.26-.42,2.13-1.57,2.2-2.9.06-1.36-.8-2.59-2.1-3l-1-.3v-5.6l.7.3Z"/><path class="cls-24" d="m212.8,218.37h1.5v2.3c-.03.52.36.97.88,1,.04,0,.08,0,.12,0,.7,0,1-.3,1-1v-2.3h1.6v2.3c0,.8.3,1.1,1,1.1.55,0,1-.44,1.01-.99,0-.04,0-.07,0-.11v-2.3h1.6v2.2c0,.8.3,1.2,1,1.2s1-.4,1-1.2v-2.2h1.5v2.1c0,.8.4,1.2,1.1,1.2s1-.4,1.1-1.2v-2.1h1.5v2.2c-.01.54.37,1.01.9,1.1.6,0,1-.2,1.1-.8.08-.83.12-1.67.1-2.5h4.4v3.3c.02.98-.72,1.82-1.7,1.9h-63.7c-1.14.15-2.22-.52-2.6-1.6v-3.7h4.6v2.2c0,.8.3,1.2,1,1.2s1-.4,1-1.2v-2.2h1.5v2.1c0,.8.4,1.2,1.1,1.2s1-.4,1.1-1.2v-2.1h1.5v2.2c-.01.54.37,1.01.9,1.1.6,0,1-.2,1.1-.8.08-.83.12-1.67.1-2.5h1.5v2.3c-.03.52.36.97.88,1,.04,0,.08,0,.12,0,.7,0,1-.3,1-1v-2.3h1.6v2.3c0,.8.3,1.1,1,1.1.55,0,1-.44,1.01-.99,0-.04,0-.07,0-.11v-2.3h1.5c-.07.87-.04,1.74.1,2.6.05.44.45.75.89.7,0,0,0,0,.01,0,.7,0,1.1-.4,1.1-1.2v-2.2h1.5v2.1c0,.8.4,1.2,1.1,1.2s1-.4,1.1-1.2v-2.1h1.5v2.3c-.06.55.34,1.04.89,1.1.07,0,.14,0,.21,0,.7,0,.9-.3.9-1.1v-2.3h1.6v2.3c0,.7.3,1,1,1s1-.3,1-1v-2.3h1.6v2.3c0,.8.3,1.1,1,1.1.55,0,1-.44,1.01-.99,0-.04,0-.07,0-.11v-2.3h1.5v2.1c0,.8.4,1.2,1.1,1.2s1-.4,1.1-1.2v-2.1h1.5v2.3c-.04.51.33.95.84,1,.02,0,.04,0,.06,0,.6,0,1-.2,1.1-.8.1-.83.1-1.67,0-2.5l-.6.2Z"/><path class="cls-27" d="m235,213.37h-6.8v-12.8c0-.7-.5-1-1.2-1h-4.6c-1.1,0-1.3.3-1.3,1.3v12.3h-4.6v-12.4c0-.9-.3-1.3-1.3-1.3h-4.4c-1.3,0-1.5.3-1.5,1.5v12.2h-4.6v-12.4c0-1-.3-1.3-1.3-1.3h-4.4c-1.2,0-1.4.2-1.4,1.4v12.3h-4.6v-12.3c0-1-.3-1.3-1.3-1.4h-4.7c-.9,0-1.3.3-1.3,1.3v12.4h-4.6v-12.5c.08-.58-.32-1.12-.9-1.2-.1-.01-.2-.01-.3,0h-5.3v-3.3h59.1c1.3,0,1.4,0,1.4,1.3v3.9c.07.41-.19.81-.6.9-1.48.29-2.53,1.6-2.5,3.1,0,1.49,1.04,2.78,2.5,3.1.36.03.62.34.6.7v4l-.1.2Z"/><path class="cls-12" d="m174.5,199.67h3.4c-.41.38-.6.95-.5,1.5v1.4c-.7,0-.9.5-.9,1.1v7.6c-.11.54.24,1.07.78,1.18.04,0,.08.01.12.02-.07.85.07,1.71.4,2.5h-2.7c-.9,0-1.3-.4-1.3-1.3v-12.7c-.09-.57.19-1.13.7-1.4v.1Z"/><path class="cls-8" d="m225.1,199.67h1.8c.54-.11,1.07.24,1.18.78.01.07.02.15.02.22v12.8c-.2.2-.1.5-.1.7.05.5-.3.94-.8,1-.8.1-1.6.1-2.4,0-.4-.7-.2-1.4-.3-2.1.6,0,.9-.4.9-1.1v-7.89c.06-.55-.34-1.04-.89-1.1,0,0,0,0,0,0v-1.5c-.08-.61.1-1.23.5-1.7l.1-.11Z"/><path class="cls-12" d="m209.2,213.37v-12.2c0-1.2.3-1.5,1.5-1.5h2.6c-.41.38-.6.95-.5,1.5v1.6c-.7,0-1,.3-1.1,1.2v7.4c0,.9.3,1.2,1.1,1.2-.11.82.03,1.66.4,2.4h-2.6c-1.1,0-1.4-.3-1.4-1.4v-.2Z"/><path class="cls-12" d="m185.7,213.37v-12.4c0-.9.3-1.3,1.3-1.3h2.9c-.45.36-.65.95-.5,1.5v1.5c-.7,0-1.1.4-1.1,1.2v7.5c0,.8.4,1.1,1.1,1.2,0,.9-.2,1.7.4,2.5h-2.6c-.9,0-1.4-.3-1.4-1.4v-.3h-.1Z"/><path class="cls-12" d="m197.5,213.37v-12.29c0-1.2.2-1.4,1.4-1.4h2.5c-.25.98-.35,1.99-.3,3-.8.1-1.1.4-1.1,1.2v7.6c0,.7.3,1,1.1,1.2-.05.81.05,1.63.3,2.4h-2.4c-1.2,0-1.4-.2-1.4-1.4v-.3h-.1Z"/><path class="cls-12" d="m224.6,212.77c-.11.71,0,1.44.3,2.1h-2.6c-1.1,0-1.2-.2-1.2-1.2v-12.7c0-1.1.3-1.3,1.3-1.3h2.8c-.47.43-.66,1.08-.5,1.7v1.5c-.8.1-1.1.4-1.1,1.2v7.6c0,.7.3,1,1.1,1.2l-.1-.1Z"/><path class="cls-8" d="m189.7,215.08c-.42-.76-.56-1.65-.4-2.5.7,0,1-.4,1-1.1v-7.6c.06-.55-.35-1.04-.89-1.1-.03,0-.07,0-.11,0v-1.5c-.1-.55.09-1.12.5-1.5h1.8c1,0,1.3.4,1.3,1.4v12.9c0,.8-.4,1.1-1.2,1.1h-2v-.1Z"/><path class="cls-18" d="m212.8,202.87v-1.6c-.05-.55.13-1.09.5-1.5h1.8c.9,0,1.3.4,1.3,1.3v12.9c0,.8-.3,1.2-1.2,1.2h-2c-.38-.74-.52-1.58-.4-2.4.55.06,1.04-.35,1.1-.89,0-.03,0-.07,0-.11v-7.8c0-.55-.44-1-.99-1.01-.04,0-.07,0-.11,0v-.1Z"/><path class="cls-18" d="m177.8,215.08c-.37-.78-.51-1.65-.4-2.5.8-.1,1.1-.4,1.1-1.2v-7.6c0-.7-.3-1-1.1-1.2v-1.4c-.05-.55.13-1.09.5-1.5h1.9c.9,0,1.2.4,1.2,1.2v13c.11.54-.23,1.07-.77,1.19-.11.02-.22.03-.33.01h-2.1,0Z"/><path class="cls-18" d="m201.1,202.67c-.15-1.01-.05-2.04.3-3h1.9c1,0,1.3.3,1.3,1.3v12.9c0,.9-.3,1.2-1.3,1.3h-1.9c-.29-.76-.4-1.59-.3-2.4.55-.05.95-.54.9-1.09,0,0,0,0,0,0v-7.8c.06-.55-.34-1.04-.89-1.1,0,0,0,0,0,0v-.1Z"/><path class="cls-10" d="m195,218.37v2.1c0,.8-.4,1.2-1.1,1.2s-1-.4-1.1-1.2v-2.1h2.2Z"/><path class="cls-10" d="m209.2,218.37v2.1c0,.8-.4,1.2-1.1,1.2s-1-.4-1.1-1.2v-2.1h2.2Z"/><path class="cls-10" d="m212.8,218.37v2.5c0,.46-.36.84-.81.85-.1,0-.19-.01-.29-.05-.51-.05-.9-.48-.9-1v-2.3h2Z"/><path class="cls-10" d="m227,218.37v2.1c0,.8-.4,1.2-1.1,1.2s-1-.4-1.1-1.2v-2.1h2.2Z"/><path class="cls-10" d="m177.2,218.37v2.1c0,.8-.4,1.2-1.1,1.2s-1-.4-1.1-1.2v-2.1h2.2Z"/><path class="cls-10" d="m191.4,218.37v2.2c0,.8-.4,1.2-1.1,1.2-.44.06-.84-.25-.9-.69,0,0,0,0,0-.01-.08-.86-.11-1.73-.1-2.6h2.1v-.1Z"/><path class="cls-10" d="m180.8,218.37c.02.83-.02,1.67-.1,2.5-.03.49-.44.86-.93.83-.06,0-.11-.01-.17-.03-.55-.05-.95-.54-.9-1.09,0,0,0,0,0,0v-2.2h2.1Z"/><path class="cls-10" d="m230.6,218.37c.02.83-.02,1.67-.1,2.5-.03.49-.44.86-.93.83-.06,0-.11-.01-.17-.03-.55-.05-.95-.54-.9-1.09,0,0,0,0,0,0v-2.2h2.1Z"/><path class="cls-26" d="m202,218.37v2.3c0,.7-.3,1-1,1s-1-.3-1-1v-2.3h2Z"/><path class="cls-26" d="m184.2,218.37v2.3c0,.7-.3,1-1,1-.52.03-.97-.36-1-.88,0-.04,0-.08,0-.12v-2.3h2Z"/><path class="cls-26" d="m187.8,218.37v2.3c.06.55-.35,1.04-.89,1.1-.03,0-.07,0-.11,0-.7,0-1-.3-1-1.1v-2.3h2Z"/><path class="cls-26" d="m205.6,218.37v2.3c.06.55-.35,1.04-.89,1.1-.03,0-.07,0-.11,0-.7,0-1-.3-1-1.1v-2.3h2Z"/><path class="cls-26" d="m216.3,218.37v2.3c0,.7-.3,1-1,1-.52.03-.97-.36-1-.88,0-.04,0-.08,0-.12v-2.3h2Z"/><path class="cls-26" d="m219.8,218.37v2.3c.06.55-.35,1.04-.89,1.1-.03,0-.07,0-.11,0-.7,0-1-.3-1-1.1v-2.3h2Z"/><path class="cls-10" d="m173.6,218.37v2.2c.05.6-.4,1.14-1,1.2-.7,0-1-.3-1-1.2v-2.2h2Z"/><path class="cls-26" d="m198.4,218.37v2.3c0,.8-.3,1.1-.9,1.1s-1-.4-1.1-1.1v-2.3h2Z"/><path class="cls-10" d="m223.4,218.37v2.2c.05.6-.4,1.14-1,1.2-.7,0-1-.3-1-1.2v-2.2h2Z"/><path class="cls-6" d="m177.4,202.57c.8.1,1.1.4,1.1,1.2v7.6c0,.7-.3,1-1.1,1.2-.55-.04-.96-.53-.92-1.08,0-.04,0-.08.02-.12v-7.6c-.06-.55.34-1.04.89-1.1,0,0,0,0,0,0v-.1Z"/><path class="cls-6" d="m224.6,212.77c-.8-.1-1.1-.4-1.1-1.2v-7.6c0-.7.3-1,1.1-1.2.6,0,.9.4.9,1.1v7.9c.06.55-.34,1.04-.89,1.1,0,0,0,0,0,0v-.1Z"/><path class="cls-6" d="m212.8,202.87c.55-.06,1.04.35,1.1.89,0,.03,0,.07,0,.11v7.8c0,.55-.44,1-.99,1.01-.04,0-.07,0-.11,0-.7,0-1-.3-1.1-1.2v-7.39c0-.91.3-1.21,1.1-1.21Z"/><path class="cls-6" d="m189.3,202.67c.7,0,1,.4,1,1.1v7.6c.06.55-.35,1.04-.89,1.1-.03,0-.07,0-.11,0-.7,0-1.1-.4-1.1-1.2v-7.5c0-.8.4-1.1,1.1-1.2v.1Z"/><path class="cls-6" d="m201.1,202.67c.6,0,.9.4.9,1.1v7.8c0,.7-.4.9-.9,1.1-.8-.1-1.1-.4-1.1-1.2v-7.6c0-.7.3-1,1.1-1.2Z"/><path d="m174.8,180.57l1-2.7c1,.62,2.3.46,3.1-.4,1-.9,1-1.5.7-1.9-.5-.6-1.2-.4-3,.4-1.8.8-3.8,1.3-5.3-.6-1.5-1.9-.9-4.3.8-5.7,1.49-1.29,3.6-1.61,5.4-.8l-.9,2.7c-.83-.5-1.9-.38-2.6.3-.7.6-.7,1.2-.4,1.6s.9.5,2.7-.3c1.8-.8,3.9-1.6,5.6.4s1,4.2-1.1,6c-1.57,1.56-3.98,1.88-5.9.8l-.1.2Z"/><path d="m185,169.27l1.4,2.9c.3.7,1,.5,2,0l1,2.2c-3,1.8-4.4,1.3-5.5-1l-1.4-2.9-1.3.6-1.1-2.3,1.3-.6-.7-1.5,2.1-1.9,1.1,2.3,1.7-.8,1.1,2.3-1.7.8v-.1Z"/><path d="m188.6,169.57c-.5-2.59,1.2-5.1,3.79-5.6,0,0,0,0,.01,0,2.55-.53,5.04,1.1,5.57,3.65.01.05.02.1.03.15.5,2.59-1.2,5.1-3.79,5.6,0,0,0,0-.01,0-2.55.53-5.04-1.1-5.57-3.65-.01-.05-.02-.1-.03-.15Zm6.7-1.3c-.29-1.07-1.39-1.69-2.46-1.4-1.07.29-1.69,1.39-1.4,2.46.27.99,1.25,1.61,2.26,1.45,1.06-.13,1.81-1.1,1.68-2.15-.01-.12-.04-.23-.08-.35Z"/><path d="m205.7,163.77l-.2,3.1c-1.01-.44-2.19.02-2.63,1.03-.12.27-.18.57-.17.87l-.3,4.1-2.7-.2.6-9,2.7.2v1.6c.39-1.12,1.53-1.79,2.7-1.6v-.1Z"/><path d="m217,167.17l-2.9,8.5-2.6-.9.3-.8c-.88.52-1.96.6-2.9.2-2.31-.95-3.43-3.58-2.5-5.9.9-2.5,3.4-3.9,5.6-3.1.95.32,1.74,1,2.2,1.9l.3-.8,2.6.9h-.1Zm-4,3.4c.45-1.06-.04-2.28-1.1-2.73-.06-.03-.13-.05-.2-.07-1.02-.42-2.19.08-2.61,1.1-.04.1-.07.2-.09.3-.45,1.06.04,2.28,1.1,2.73.06.03.13.05.2.07,1.02.42,2.19-.08,2.61-1.1.04-.1.07-.2.09-.3h0Z"/><path d="m227.8,174.87l-5.3,6.7c-1.9,2.4-4.5,1.9-6.4.4-1.45-.96-2.23-2.67-2-4.4l2.6.4c-.14.84.21,1.7.9,2.2.64.71,1.74.77,2.46.12.14-.12.25-.27.34-.42l.5-.7c-.99.2-2.02-.05-2.8-.7-1.96-1.57-2.27-4.44-.7-6.4,1.57-1.96,4.44-2.27,6.4-.7.81.58,1.29,1.51,1.3,2.5l.6-.7,2.1,1.6v.1Zm-4.7,1.8c.77-.91.66-2.28-.25-3.06-.91-.77-2.28-.66-3.06.25-.77.91-.66,2.28.25,3.06.02.02.04.03.06.05.81.76,2.07.72,2.83-.09.06-.07.12-.14.17-.21Z"/><path d="m227.2,185.37c.34.54.88.93,1.5,1.1v2.5c-1.52-.09-2.88-.96-3.6-2.3-1.57-2.06-1.18-5,.88-6.57.1-.08.21-.15.32-.23,2.07-1.47,4.93-.98,6.4,1.09.07.1.14.2.2.31,1.37,2.09.79,4.9-1.3,6.27-.07.04-.13.09-.2.13-.3.23-.64.39-1,.5l-3.5-5.3c-.52.76-.48,1.78.1,2.5h.2Zm3.6-.4c.63-.66.67-1.69.1-2.4-.43-.83-1.42-1.22-2.3-.9l2.1,3.2.1.1Z"/><circle class="cls-3" cx="200" cy="338.43" r="45"/><path d="m157.7,340.73l.5-2.6,8.1-.6-7.4-3.4.3-2,8.1-.8-7.4-3.2.5-2.6,10.5,4.9-.5,2.9-6.8.7,6.2,2.9-.5,2.9-11.6,1.2v-.3Z"/><path d="m169,317.03l6.9,4.1-1.2,2.1-.6-.4c.3.8.2,1.6-.4,2.5-1.1,1.8-3.5,2.4-5.6,1.1-2.1-1.2-2.8-3.6-1.7-5.4.5-.9,1.3-1.4,2.1-1.6l-.6-.4,1.2-2.1-.1.1Zm2.2,4.1c-1-.6-2.1-.3-2.6.6-.6,1-.3,2,.7,2.6s2.1.3,2.6-.6c.6-1,.3-2-.7-2.6Z"/><path d="m174.8,314.23l2,2c.5.5,1,.1,1.6-.7l1.6,1.5c-2,2.5-3.3,2.5-4.9.9l-2-2-.9.9-1.6-1.6.9-.9-1.1-1.1,1.2-2.2,1.6,1.6,1.2-1.2,1.6,1.6-1.2,1.2Z"/><path d="m177.9,313.43c-1.3-2-.8-4.5,1.2-5.9,1.3-.9,2.9-.9,4.1-.3l-1.1,2.2c-.5-.3-1.2-.3-1.8.1-.9.6-1.1,1.6-.5,2.5s1.7,1.1,2.5.5c.6-.4.9-1,.8-1.6l2.4-.2c.1,1.4-.6,2.9-1.9,3.7-2,1.3-4.5.8-5.9-1.2l.2.2Z"/><path d="m192.7,305.33l1.5,4.7-2.3.7-1.4-4.3c-.3-.9-1-1.2-1.8-1-.8.3-1.3,1-.9,2l1.4,4.2-2.3.7-3.5-10.6,2.3-.7,1.2,3.8c.2-.7.9-1.3,1.9-1.6,1.5-.5,3.2.2,3.9,2.2v-.1Z"/><path d="m194.9,304.03l6.1-.3v2.3c.1,0-5.9.3-5.9.3v-2.3h-.2Z"/><path d="m203.7,301.83l2.4.3-1,7.9-2.4-.3,1-7.9Zm0-2.2c.1-.8.8-1.3,1.6-1.2.8,0,1.3.8,1.2,1.6,0,.8-.8,1.3-1.6,1.2s-1.3-.8-1.2-1.6Z"/><path d="m215.1,307.93l-1.6,4.6-2.3-.8,1.5-4.3c.3-.9-.1-1.6-.8-1.8-.8-.3-1.6,0-1.9,1.1l-1.4,4.1-2.3-.8,2.6-7.6,2.3.8-.2.7c.6-.4,1.5-.5,2.5-.2,1.5.5,2.5,2.1,1.7,4.1l-.1.1Z"/><path d="m220,310.03l-1.5,2.4c-.4.6,0,1,1,1.5l-1.2,1.8c-2.8-1.4-3.1-2.7-1.9-4.6l1.5-2.4-1.1-.7,1.2-1.9,1.1.7.8-1.3,2.4.7-1.2,1.9,1.4.9-1.2,1.9-1.4-.9h.1Z"/><path d="m223.1,317.53c.5.5,1,.7,1.5.7l.6,2.1c-1.3.2-2.6-.2-3.6-1.3-1.9-1.9-1.8-4.4-.1-6.1,1.7-1.7,4.2-1.7,6,0,1.6,1.7,1.6,4.2-.1,5.9-.2.2-.5.4-.7.6l-4-4c-.4.8,0,1.5.6,2.2l-.2-.1Zm3.1-1c.5-.8.2-1.6-.3-2.1-.6-.6-1.4-.8-2.1-.3l2.4,2.4Z"/><path d="m234.2,322.13l-2.3,1.4c-.4-.9-1.5-1.9-2.8-1.1l-3.1,1.9-1.3-2,6.8-4.2,1.3,2-1.2.7c1.1-.3,2.1.4,2.6,1.2v.1Z"/><path d="m234.6,332.63l-4.7,1.5-.8-2.3,4.3-1.4c.9-.3,1.2-1.1.9-1.8-.3-.8-1-1.2-2-.9l-4.1,1.4-.8-2.3,7.6-2.5.8,2.3-.7.2c.7.2,1.3.9,1.6,1.9.5,1.5-.2,3.2-2.2,3.9h.1Z"/><path d="m238.4,342.93l-8,.3v-2.4h.7c-.6-.5-1-1.3-1.1-2.4,0-2.1,1.7-3.9,4.1-4,2.4,0,4.3,1.6,4.3,3.7,0,1.1-.3,1.9-.9,2.4h.8v2.4h.1Zm-4.1-2.3c1.2,0,1.9-.9,1.9-2s-.8-1.9-2-1.8c-1.2,0-1.9.9-1.9,2s.8,1.9,2,1.8Z"/><path d="m241.5,346.53l-.4,2.4-11.5-2.1.4-2.4,11.5,2.1Z"/><path class="cls-14" d="m174,362.13v-28.8c0-.5.2-.6.7-.6h4.5v2c0,.5,0,.6.6.6h2.4c.4,0,.5,0,.5-.5v-2.1h3.4v2c0,.5,0,.6.6.6h2.4c.4,0,.5,0,.5-.5v-2.1h3.4v2c0,.5,0,.6.6.6h2.4c.4,0,.5,0,.5-.5v-2.1h7.8v4c0,.4,0,.6-.4.8-1,.6-1.5,1.8-1.2,2.9.4,1.4,1.8,2.2,3.2,1.8,1.4-.4,2.2-1.8,1.8-3.2-.2-.7-.6-1.2-1.2-1.6-.2-.1-.4-.2-.4-.6v-4.1h3.4v8.2c0,.5.2,1,.5,1.3l5.4,5.4c.3.3.3.5.2.8-.5,1.6.8,3.2,2.4,3.3,1.2,0,2.1-.6,2.6-2.1v7.3h-.8c-.6,0-.9.3-.9.9h-3.4v-.3c0-.5,0-.6-.6-.6h-2.4c-.3,0-.5,0-.5.4v2.6c0,.4.1.5.5.4h2.2q.8,0,.8-.9h3.5c0,.6.3.9.9.9h.6c-.2.9-1.3,1.7-2.3,1.7h-10.4c0-1.1-.5-1.9-1.5-2.3-.3-.1-.3-.3-.3-.5v-3.9c0-.7-.3-1-1-1h-8.5v-1.8h10c.4,0,.6,0,.8.4.5,1,1.8,1.5,2.9,1.2,1.4-.4,2.2-1.8,1.8-3.2-.2-.9-1-1.6-1.9-1.8-1.1-.3-2.3.2-2.9,1.2-.2.4-.4.4-.8.4h-10v-1.7h3q1.4,0,1.3-1.4c0-.3-.1-.4-.4-.4h-3.9v-1.8h3q1.4,0,1.3-1.4c0-.3-.1-.4-.4-.4h-3.9v-1.4c0-.3,0-.4-.3-.4h-1.4v-3q0-1.4-1.4-1.3c-.3,0-.4.1-.4.4v4h-1.8v-3q0-1.4-1.4-1.3c-.3,0-.4.1-.4.4v4h-1.8v-3q0-1.4-1.4-1.3c-.3,0-.4.1-.4.4v4h-1.8v-3q0-1.4-1.4-1.3c-.3,0-.4.1-.4.4v4h-1.4c-.3,0-.4,0-.3.4v1.4h-3q-1.4,0-1.3,1.4c0,.3.1.4.4.4h3.9v1.8h-3q-1.4,0-1.3,1.4c0,.3.1.4.4.4h3.9v1.8h-3q-1.4,0-1.3,1.4c0,.3.1.4.4.4h3.9v1.8h-3q-1.4,0-1.3,1.4c0,.3.1.4.4.4h3.9v1.4c0,.3,0,.4.3.4h1.4v4.3h-8.7l.6-.6Z"/><path class="cls-22" d="m174,362.13h28.6c0,.5.2,1,.5,1.5.6.9,1.7,1.3,2.8,1.1,1.2-.3,1.8-1.2,2-2.5h10.4c1.1,0,2.1-.8,2.3-1.7h1.6c.3,0,.4,0,.4-.4v-2.8c0-.3-.1-.4-.4-.4h-1.4v-23.7c0-.5,0-.6.6-.6h4.1c.5,0,.6,0,.6.6v33.5c0,.5-.1.6-.6.6h-4.2c-.3,0-.4,0-.4-.4-.3-1.8-1.7-3.1-3.5-3.1s-3.2,1.3-3.4,3.1c0,.3-.1.4-.4.3h-38.8c-.5,0-.6,0-.6-.6v-4.6l-.2.1Z"/><path class="cls-14" d="m220.8,333.23v15.4c-.7-1.8-1.5-2.2-3.5-1.9-.2,0-.3,0-.5-.2-1.8-1.8-3.5-3.5-5.3-5.3-.2-.1-.3-.3-.3-.6v-8h1.9c.5,0,.7.1.7.6.2,1.3,1,2.2,2.2,2.6,1.8.7,3.7-.3,4.4-2v-.1c0-.2.1-.3.2-.5h.2Z"/><path class="cls-15" d="m211.3,332.73v8c0,.2.1.4.3.6,1.8,1.8,3.5,3.5,5.3,5.3.1.1.2.3.5.2,2-.4,2.8.1,3.5,1.9v1c-.6,1.4-1.4,2.1-2.6,2.1-1.7,0-2.9-1.7-2.4-3.3.1-.4,0-.6-.2-.8-1.8-1.8-3.6-3.6-5.4-5.4-.4-.3-.6-.8-.5-1.3v-8.2h1.8l-.3-.1Zm6.9,17.3c.5,0,.9-.4.9-.8s-.4-.9-.8-.9c-.5,0-.9.4-.9.8h0c0,.5.4.9.8.9Z"/><path class="cls-16" d="m206.1,332.73v4.1c0,.4.2.4.4.6,1.2.7,1.7,2.3,1,3.5s-2.3,1.7-3.5,1c-.6-.3-1-.9-1.2-1.6-.3-1.1.2-2.3,1.2-2.9.4-.2.4-.4.4-.8v-3.9h1.8-.1Zm-.9,6.1c-.5,0-.9.4-.9.9s.4.9.9.9.9-.4.9-.9h0c0-.5-.4-.9-.9-.9h0Z"/><path class="cls-28" d="m179.2,334.43v-3.9c0-.3,0-.4.4-.4h2.2v3.3c0,.6-.3,1-1,1-.5,0-1.1,0-1.6,0Z"/><path class="cls-28" d="m186.2,334.43v-3.9c0-.3,0-.4.4-.4h2.2v3.3c0,.6-.3,1-1,1-.5,0-1.1,0-1.6,0Z"/><path class="cls-28" d="m193.1,334.43v-3.9c0-.3.1-.4.4-.4h2.2v3.3c0,.6-.3,1-1,1-.5,0-1.1,0-1.6,0Z"/><path class="cls-9" d="m186.2,334.43h1.6c.6,0,1-.3,1-1v-3.3h.1c.53,0,.8.23.8.7v4c0,.4-.1.5-.5.5h-2.4c-.5,0-.6-.2-.6-.6,0,0,0-.2,0-.3Z"/><path class="cls-9" d="m179.2,334.43h1.6c.6,0,1-.3,1-1v-3.3h.1c.53,0,.8.23.8.7v4c0,.4-.1.5-.5.5h-2.4c-.5,0-.6-.2-.6-.6v-.3Z"/><path class="cls-9" d="m193.1,334.43h1.6c.6,0,1-.3,1-1v-3.3h.1c.53,0,.8.23.8.7v4c0,.4-.1.5-.5.5h-2.4c-.5,0-.6-.2-.6-.6,0,0,0-.2,0-.3Z"/><path class="cls-22" d="m194.8,342.23h1.4c.3,0,.4,0,.3.4v14.9c0,.3,0,.4-.3.4h-14.9c-.3,0-.4,0-.3-.4v-14.9c0-.3,0-.4.3-.4h13.5Zm-10.4,10.4v1.3c0,.4.1.4.5.4h7.7c.4,0,.5-.1.5-.5v-6.5c0-.5.2-1.2-.1-1.6s-1.1,0-1.6,0h-6.5c-.3,0-.4,0-.4.4v6.5h-.1Z"/><path class="cls-16" d="m196.5,356.03v-1.7h8.5c.7,0,1,.3,1,1v3.9c0,1.3,0,.4.3.5,1,.5,1.4,1.3,1.5,2.3-.1,1.3-.8,2.2-2,2.5-1.1.3-2.2-.1-2.8-1.1-.3-.4-.4-.9-.5-1.5,0-1.1.5-1.9,1.5-2.3.2-.1.3-.3.3-.5v-2.6c0-.5,0-.6-.6-.6h-7.2v.1Zm9.5,6.1c0-.5-.4-.9-.9-.9s-.9.4-.9.9.4.9.9.9h0c.5,0,.8-.4.8-.9h.1Z"/><path class="cls-16" d="m196.5,352.63v-1.7h10c.4,0,.6,0,.8-.4.6-1,1.7-1.5,2.9-1.2,1.4.3,2.2,1.7,1.9,3.1-.2.9-.9,1.6-1.8,1.9-1.2.3-2.4-.2-2.9-1.2-.2-.4-.4-.4-.8-.4h-10l-.1-.1Zm13-1.7c-.5,0-.9.4-.9.9s.4.9.9.9.9-.4.9-.9h0c0-.5-.4-.8-.9-.8h0v-.1Z"/><path class="cls-7" d="m215.6,359.53c0,.6-.27.9-.8.9h-2.2c-.3,0-.5,0-.5-.4v-2.6c0-.4.1-.5.5-.4h2.4c.5,0,.7.1.6.6v2-.1Z"/><path class="cls-7" d="m220.8,356.93h1.4c.3,0,.4,0,.4.4v2.8c0,.3-.1.4-.4.4h-2.2c-.6,0-.9-.3-.9-.9v-1.7c0-.6.3-.9.9-.9h.9l-.1-.1Z"/><path class="cls-20" d="m194.8,342.23h-1.7v-4c0-.3,0-.4.4-.4q1.4,0,1.4,1.3v3l-.1.1Z"/><path class="cls-20" d="m180.9,343.93v1.7h-3.9c-.3,0-.4,0-.4-.4q0-1.4,1.3-1.4h3v.1Z"/><path class="cls-20" d="m196.5,345.63v-1.7h3.9c.3,0,.4,0,.4.4q0,1.4-1.3,1.4h-3v-.1Z"/><path class="cls-20" d="m180.9,347.43v1.7h-3.9c-.3,0-.4,0-.4-.4q0-1.4,1.3-1.4h3v.1Z"/><path class="cls-20" d="m196.5,349.13v-1.7h3.9c.3,0,.4,0,.4.4q0,1.4-1.3,1.4h-3v-.1Z"/><path class="cls-20" d="m180.9,350.93v1.7h-3.9c-.3,0-.4,0-.4-.4q0-1.4,1.3-1.4h3v.1Z"/><path class="cls-20" d="m180.9,354.33v1.7h-3.9c-.3,0-.4,0-.4-.4q0-1.4,1.3-1.4h3v.1Z"/><path class="cls-20" d="m184.4,342.23h-1.7v-4c0-.3,0-.4.4-.4q1.4,0,1.4,1.3v3l-.1.1Z"/><path class="cls-20" d="m187.9,342.23h-1.7v-4c0-.3,0-.4.4-.4q1.4,0,1.4,1.3v3l-.1.1Z"/><path class="cls-20" d="m182.7,357.83h1.7v4.3h-1.7v-4.3Z"/><path class="cls-20" d="m191.3,342.23h-1.7v-4c0-.3,0-.4.4-.4q1.4,0,1.4,1.3v3l-.1.1Z"/><path class="cls-20" d="m219.1,357.83v1.7h-3.5v-1.7h3.5Z"/><path class="cls-14" d="m196.5,356.03h7.2c.5,0,.6.2.6.6v2.6c0,.2,0,.4-.3.5-1,.5-1.4,1.3-1.5,2.3h-7.8v-4.3h1.4c.3,0,.4,0,.3-.4v-1.4l.1.1Z"/><path class="cls-14" d="m184.4,362.13v-4.3h1.8v4.3h-1.8Z"/><path class="cls-20" d="m186.2,362.13v-4.3h1.7v4.3h-1.7Z"/><path class="cls-14" d="m187.9,362.13v-4.3h1.8v4.3h-1.8Z"/><path class="cls-20" d="m189.6,362.13v-4.3h1.7v4.3h-1.7Z"/><path class="cls-20" d="m194.8,357.83v4.3h-1.7v-4.3h1.7Z"/><path class="cls-14" d="m193.1,357.83v4.3h-1.8v-4.3h1.8Z"/><path class="cls-21" d="m218.2,350.03c-.5,0-.9-.4-.9-.9s.4-.9.9-.9.9.4.9.9h0c0,.5-.4.8-.9.8v.1Z"/><path class="cls-21" d="m205.2,338.73c.5,0,.9.4.9.9s-.4.9-.9.9-.9-.4-.9-.9h0c0-.5.4-.9.9-.8h0v-.1Z"/><path class="cls-28" d="m184.4,352.63v-6.5c0-.3,0-.4.4-.4h6.5v4.1c0,1.7-1.1,2.8-2.8,2.8h-4.1Z"/><path class="cls-9" d="m184.4,352.63h4.1c1.7,0,2.8-1.1,2.8-2.8v-4.1c.6,0,1.3-.2,1.6,0s.1,1,.1,1.6v6.5c0,.4-.1.5-.5.5h-7.7c-.3,0-.5,0-.5-.4v-1.3h.1Z"/><path class="cls-21" d="m206.1,362.13c0,.5-.4.9-.8.9-.5,0-.9-.4-.9-.8,0-.5.4-.9.8-.9h0c.5,0,.9.4.9.8Z"/><path class="cls-21" d="m209.5,350.83c.5,0,.9.4.9.9s-.4.9-.9.9-.9-.4-.9-.9h0c0-.5.4-.9.9-.9Z"/></svg>