<?xml version="1.0" encoding="UTF-8"?><svg id="Layer_1" xmlns="http://www.w3.org/2000/svg" viewBox="0 0 400 256"><defs><style>.cls-1{fill:#009245;}.cls-2{stroke:#a5262d;}.cls-2,.cls-3{stroke-width:4px;}.cls-2,.cls-3,.cls-4{stroke-miterlimit:10;}.cls-2,.cls-3,.cls-4,.cls-5{fill:none;}.cls-6{fill:#57575e;}.cls-7{fill:#bd694f;}.cls-8{fill:#ede6e3;}.cls-9{fill:#d9d9ea;}.cls-10{fill:#eb917f;}.cls-11{fill:#b9a1d3;}.cls-12{fill:#fbe501;}.cls-13{fill:#48459c;}.cls-14{fill:#f9f3b1;}.cls-15{fill:#434348;}.cls-16{fill:#934d36;}.cls-17{fill:#f3bd99;}.cls-3{stroke:#c000e2;}.cls-18{fill:#3392f5;}.cls-19{fill:#4d5961;}.cls-20{fill:#f4bd99;}.cls-21{fill:#5e6b74;}.cls-22{fill:#06687f;}.cls-4{stroke:#231f20;stroke-width:2px;}.cls-23{fill:#baa1d3;}.cls-24{fill:#424248;}.cls-25{fill:#97d6e5;}.cls-26{fill:#3392f6;}.cls-27{fill:#7dcbe5;}.cls-28{fill:#1b1464;}.cls-29{fill:#eecf15;}.cls-30{fill:#9dd8e6;}.cls-31{fill:#0092b9;}.cls-32{fill:#e5eff1;}.cls-33{fill:#baa2d3;}.cls-34{fill:#d8ceca;}.cls-35{fill:#ede4e1;}.cls-36{fill:#525f67;}.cls-37{fill:#60acfd;}.cls-38{fill:#231f20;}.cls-39{fill:#924d36;}.cls-40{fill:#914d37;}.cls-41{fill:#9fddea;}.cls-42{fill:#067fa6;}</style></defs><circle class="cls-2" cx="199.36" cy="58" r="45"/><path class="cls-7" d="m213.36,93.4h-26c0-.2-.2-.2-.4-.3-1.3-.6-2.1-1.6-2.1-3.1v-44.6c0-1,.5-2,1.3-2.6.4-.3.9-.3,1.2-.8h26c2.2.8,2.9,1.8,2.9,4.2v43.8c0,1.4-.9,2.6-2.2,3.2-.2,0-.5,0-.7.3v-.1Zm-14-2c7.2,0,13-5.8,13-13s-5.8-13-13-13-13,5.8-13,13v.2c0,7.1,5.8,12.9,13,12.8h0Zm0-47.2c-5.1,0-9.3,4.2-9.3,9.3s4.2,9.3,9.3,9.3,9.2-4.2,9.3-9.3c0-5.1-4.1-9.3-9.2-9.3h-.1Zm7.3,19.3c0,1.9,1.5,3.6,3.4,3.6h0c2,0,3.6-1.7,3.5-3.7,0-1.9-1.6-3.4-3.4-3.5-1.6,0-3.7,1.5-3.6,3.6h.1Zm-18.5,25.8c0-.9-.8-1.5-1.6-1.5s-1.4.7-1.5,1.5c0,.9.6,1.6,1.5,1.7.9,0,1.6-.6,1.7-1.5v-.2h-.1Zm-1.6-41.7c.8,0,1.6-.6,1.6-1.5h0c0-.9-.6-1.6-1.5-1.7-.9,0-1.6.6-1.7,1.5v.2c0,.9.7,1.6,1.5,1.6h0l.1-.1Zm25.4,0c.8,0,1.5-.7,1.5-1.5h0c0-.9-.7-1.5-1.6-1.5s-1.5.7-1.5,1.6c0,.8.7,1.5,1.5,1.5h0l.1-.1Zm0,40.1c-.8,0-1.6.6-1.6,1.4h0c0,.9.7,1.6,1.5,1.6.9,0,1.6-.7,1.6-1.5s-.6-1.6-1.5-1.6h0v.1Z"/><path class="cls-16" d="m185.36,93.4c-.9-.2-1.7-.7-2.3-1.5-.4-.6-.7-1.3-.7-2v-44c-.1-1.4.6-2.8,1.8-3.5.4-.2.7-.3,1.1-.5h1.9c-.3.4-.8.5-1.2.8-.8.6-1.3,1.6-1.3,2.6v44.6c0,1.5.8,2.5,2.1,3.1.1,0,.4,0,.4.3h-1.9l.1.1Z"/><path class="cls-23" d="m225.06,54.2c-.3.3-.7.5-1.2.4h-3.8c-.6,0-.9-.2-.9-.7s.3-.8.9-.8h4.1c.4,0,.7.2.9.5v.6Z"/><path class="cls-33" d="m173.66,78.6c.3-.3.7-.5,1.1-.4h3.9c.6,0,.9.2.9.7s-.3.8-.9.8h-4.1c-.4,0-.7-.2-.9-.5v-.6Z"/><path class="cls-33" d="m225.06,79.2c-.3.3-.7.5-1.1.5h-4.3c-.4-.1-.6-.5-.5-.8,0-.3.3-.6.6-.6h4.5c.3,0,.4.3.7.4v.6l.1-.1Z"/><path class="cls-23" d="m173.66,53.6c.2-.4.7-.5,1.1-.5h4.2c.3,0,.6.4.5.8,0,.4-.3.6-.6.6h-4.5c-.3,0-.4-.3-.7-.4v-.6.1Z"/><path class="cls-40" d="m199.36,91.4c-7.2,0-13-5.9-13-13s5.9-13,13-13,13,5.8,13,13-5.7,12.9-12.8,13h-.2Zm11.1-10.1h0c.4-1.6.5-3.2.2-4.7-1-6.2-6.9-10.5-13.1-9.5h-.4c-3.3.6-6.2,2.6-7.8,5.6-.6.9-.9,1.9-1.1,2.9h0c-.4,1.5-.4,2.9-.2,4.3.5,3.7,2.8,7,6.1,8.7,1.4.7,2.8,1.1,4.4,1.2,1.2.1,2.4,0,3.6-.4.2,0,.5,0,.7-.1,2.7-.8,5.1-2.7,6.5-5.2.6-.9,1-1.9,1.2-3l-.1.2Z"/><path class="cls-39" d="m199.36,44.2c5.1,0,9.3,4.2,9.3,9.3s-4.2,9.3-9.3,9.3-9.3-4.2-9.3-9.3,4.1-9.3,9.3-9.3h0Zm-1.2,1.6c-1.9.3-3.7,1.3-4.9,2.9-.9,1-1.4,2.3-1.5,3.6-.2.7-.2,1.4,0,2,.3,2.9,2.2,5.3,4.9,6.3,1.3.6,2.7.7,4,.4h.6c1.8-.4,3.4-1.5,4.4-3,.8-1,1.2-2.2,1.4-3.4.2-.8.2-1.7,0-2.5-.7-4.2-4.6-7-8.8-6.4h0l-.1.1Z"/><path class="cls-39" d="m206.66,63.5c-.2-2.1,1.9-3.6,3.6-3.6,2,0,3.5,1.8,3.4,3.8,0,1.9-1.6,3.4-3.5,3.4s-3.5-1.6-3.5-3.6h0Zm3.5,2.1c1.1,0,2.1-.9,2.1-2.1h0c0-1.1-1-2-2.1-2.1-1.1,0-2,1-2,2.1s.8,2,1.9,2h0l.1.1Z"/><path class="cls-35" d="m188.26,89.3c0,.9-.6,1.6-1.5,1.6s-1.6-.6-1.6-1.5v-.2c0-.9.8-1.5,1.7-1.5.8,0,1.4.7,1.5,1.5l-.1.1Z"/><path class="cls-35" d="m186.66,47.6c-.9,0-1.5-.7-1.5-1.5h0c0-.9.6-1.6,1.5-1.6s1.6.6,1.6,1.5v.2c0,.8-.7,1.5-1.5,1.5h0l-.1-.1Z"/><path class="cls-35" d="m212.06,47.6c-.8,0-1.5-.6-1.6-1.5h0c0-.9.7-1.6,1.6-1.6s1.6.7,1.6,1.6c0,.8-.7,1.5-1.5,1.6h0l-.1-.1Z"/><path class="cls-35" d="m212.06,87.8c.8,0,1.5.7,1.5,1.5h0c0,.9-.7,1.5-1.6,1.5s-1.5-.7-1.5-1.6h0c0-.8.7-1.5,1.5-1.5h0l.1.1Z"/><path class="cls-23" d="m223.06,46.9c0,.3-.2.5-.3.6-.9.9-1.8,1.8-2.7,2.7-.3.3-.8.4-1.1.1h0c-.3-.3-.3-.7.1-1.1l2.7-2.7c.2-.3.6-.4,1-.2.3.1.4.4.4.7l-.1-.1Z"/><path class="cls-11" d="m219.46,82.5c.2,0,.4,0,.6.3.9.9,1.8,1.8,2.7,2.7.3.3.4.7.1,1l-.1.1c-.3.3-.8.3-1.1,0h0c-.9-.9-1.8-1.9-2.8-2.8-.2-.2-.3-.5-.2-.8.1-.3.4-.5.7-.4l.1-.1Z"/><path class="cls-11" d="m223.06,61.1c0,.3-.2.5-.5.6s-.7,0-.9-.2l-2.4-2.4c-.2-.2-.3-.3-.5-.5-.3-.3-.3-.7,0-1h0c.2-.3.6-.3.9,0h0c1,1,2,2,2.9,2.9.1.1.2.3.2.5l.3.1Z"/><path class="cls-11" d="m223.06,71.8c0,.2-.1.5-.3.6l-2.7,2.7c-.2.3-.7.4-1,.2h0c-.3-.3-.3-.7,0-1l.1-.1c.9-.9,1.9-1.9,2.8-2.8.2-.2.5-.3.8-.2s.4.4.4.6h-.1Z"/><path class="cls-23" d="m180.06,49.7c0,.3-.2.5-.4.7-.3.1-.7,0-.9-.2l-2.3-2.3c-.2-.2-.4-.4-.5-.6-.3-.3-.3-.7,0-1h0c.3-.3.8-.3,1,0h0c.4.4.9.8,1.3,1.3s1,1,1.5,1.5c.2.2.3.4.3.6Z"/><path class="cls-11" d="m180.06,83.2c0,.2-.1.4-.3.6-.9.9-1.8,1.8-2.7,2.7-.3.4-.8.4-1.1.2h0c-.4-.4-.3-.8.1-1.2.9-.9,1.8-1.8,2.7-2.7.2-.2.6-.3.9-.2.3.1.5.4.5.7l-.1-.1Z"/><path class="cls-11" d="m180.06,58.2c0,.2-.1.4-.3.6-.9.9-1.8,1.8-2.7,2.7-.4.4-.8.4-1.1.1-.3-.3-.3-.8,0-1.1h.1c.9-.9,1.8-1.9,2.8-2.8.2-.2.5-.3.8-.2s.5.4.5.7h-.1Z"/><path class="cls-11" d="m180.06,74.7c0,.3-.2.5-.4.7-.3.2-.6.1-.8,0l-3-3c-.2-.3-.2-.7,0-.9h0c.2-.3.7-.3.9,0h0c1,1,1.9,1.9,2.9,2.9.1.1.2.3.2.5l.2-.2Z"/><path class="cls-36" d="m188.36,75.6c.2-1,.5-2,1.1-2.9,3.1-5.5,10.2-7.4,15.7-4.3.4.2.8.5,1.2.8,2.4,1.8,4,4.4,4.4,7.3.3,1.5.2,3.1-.2,4.6h0c-.3.1-.7.2-1,.2-1.9.1-3.6-.6-5.2-1.5-.4-.3-.8-.5-1.3-.7v-1.1c-.1-1.5-1.2-2.7-2.6-3.1-.7-.3-1.6-.3-2.3,0-1.2.4-2.1,1.5-2.4,2.7-.1,0-.2,0-.4-.2-.6-.5-1.3-.9-2-1.2-1.4-.6-2.8-1.1-4.3-.9-.2,0-.5.1-.7,0v.3Z"/><path class="cls-19" d="m188.36,75.6h.7c1.5-.2,2.9.3,4.3.9.7.3,1.4.7,2,1.2.1,0,.2.1.4.2v.1c-.3,1.8.8,3.5,2.5,4,.6.1,1.2.2,1.8.1.6.9,1.1,1.9,1.6,2.9.7,1.4.8,3,.4,4.5-1.2.4-2.4.5-3.6.4-1.5-.1-3-.5-4.4-1.2-3.4-1.7-5.6-4.9-6.1-8.7-.2-1.4-.1-2.8.2-4.2h0l.2-.2Z"/><path class="cls-21" d="m202.06,89.5c.4-1.5.2-3.1-.4-4.5-.5-1-1-2-1.6-2.9l.4-.2h.2c1.1-.5,2-1.5,2.3-2.7.4.2.9.4,1.3.7,1.6.9,3.3,1.6,5.2,1.5h1c-.2,1.1-.6,2.1-1.2,3-1.4,2.5-3.8,4.3-6.5,5.2-.2,0-.5.1-.7.1v-.2Z"/><path class="cls-21" d="m206.96,54.7c-.1,1.2-.6,2.4-1.4,3.4-1.1,1.5-2.6,2.6-4.4,3h-.6c0-.9-.1-1.7-.5-2.5-1.1-2.3-2.9-4.2-5.1-5.4-.9-.7-2.1-1-3.3-.8.1-1.3.7-2.6,1.5-3.6,1.2-1.6,3-2.6,4.9-2.9,0,.9.2,1.8.6,2.7.9,1.8,2.2,3.3,3.7,4.5,1.3,1,2.7,1.9,4.5,1.7l.1-.1Zm-7-3.1c-.8-.3-1.8,0-2.3.7s-.5,1.7,0,2.5c.5.7,1.4,1,2.3.7.9-.3,1.5-1.1,1.4-2,0-.9-.6-1.7-1.4-1.9Z"/><path class="cls-19" d="m206.96,54.7c-1.8.2-3.2-.7-4.5-1.7-1.6-1.2-2.9-2.7-3.7-4.5-.4-.8-.6-1.7-.6-2.7,4.2-.7,8.1,2.2,8.8,6.4.2.8.2,1.7,0,2.5Z"/><path class="cls-19" d="m191.76,52.3c1.2-.1,2.3.2,3.3.8,2.2,1.3,4,3.1,5.1,5.4.4.8.6,1.6.5,2.5-1.4.3-2.8.2-4-.4-2.7-1-4.6-3.5-4.9-6.3-.1-.7-.1-1.3,0-2Z"/><path class="cls-19" d="m210.26,65.6c-1.1,0-2-.8-2-1.9h0c0-1.1.9-2,2-2.1,1.1,0,2.1.9,2.1,2.1,0,1.1-.9,2.1-2.1,2.1h0v-.2Z"/><path class="cls-8" d="m202.96,79.1c-.3,1.2-1.1,2.2-2.3,2.7h-.2c-.6-.4-1.2-.8-1.6-1.4-1.1-1.7-.7-4,1-5.1h0c.1,0,.4-.1.4-.3,1.4.4,2.5,1.6,2.6,3.1v1.1l.1-.1Z"/><path class="cls-34" d="m200.36,75c0,.2-.2.3-.4.3-1.7,1.1-2.2,3.4-1.2,5.1h0c.4.6,1,1,1.6,1.4l-.4.2c-.6,0-1.2,0-1.8-.1-1.7-.5-2.8-2.3-2.6-4.1v-.1c.2-1.3,1.1-2.3,2.4-2.8.7-.3,1.6-.3,2.3,0l.1.1Z"/><path class="cls-8" d="m199.96,51.5c.9.2,1.4,1,1.4,1.9s-.6,1.7-1.4,2c0-.2-.3-.3-.5-.5-.8-.7-.9-2-.2-2.8.2-.2.5-.3.7-.6Z"/><path class="cls-34" d="m199.96,51.5c-.1.3-.5.4-.7.6-.7.8-.6,2.1.2,2.8.2.2.4.2.5.5-.8.3-1.7,0-2.3-.7-.5-.7-.5-1.7,0-2.5.5-.7,1.4-1,2.3-.7Z"/><path d="m173.56,40.2l.7-2.6c1,.4,2,.3,2.9-.6s.8-1.5.4-1.8c-.5-.5-1.2-.2-2.8.7-1.6.9-3.4,1.6-5,0-1.6-1.6-1.2-3.9.2-5.4,1.4-1.4,3.1-1.8,5-1.2l-.6,2.6c-.9-.3-1.7-.3-2.4.5-.6.6-.6,1.2-.2,1.5.4.4.9.4,2.6-.5,1.6-.9,3.5-1.9,5.3-.2,1.6,1.6,1.3,3.9-.5,5.7-1.7,1.8-3.7,2.1-5.4,1.4l-.2-.1Z"/><path d="m188.46,27.2c1.2,2.2.5,4.8-1.5,5.9-1,.5-1.9.6-2.7.3l2,3.7-2.3,1.2-5.6-10.5,2.3-1.2.4.7c.2-.8.7-1.6,1.8-2.1,2-1,4.5-.2,5.7,2.1l-.1-.1Zm-2.3,1.2c-.6-1.1-1.7-1.4-2.8-.9-1,.5-1.4,1.7-.8,2.8.6,1.1,1.7,1.4,2.8.9,1-.5,1.4-1.7.8-2.8Z"/><path d="m194.96,28.1c.7-.1,1.2-.5,1.5-.9l2.2.8c-.6,1.3-1.7,2.1-3.3,2.4-2.9.5-5-1.1-5.4-3.6-.5-2.5,1-4.7,3.6-5.2,2.4-.4,4.6,1.1,5,3.6v1l-5.9,1.1c.5.8,1.3,1,2.2.8h.1Zm1-3.3c-.4-.9-1.3-1.1-2-1-1,.2-1.5.8-1.6,1.7l3.6-.7Z"/><path d="m209.66,22l-1.1,8.4-2.5-.3v-.8c-.5.6-1.4.9-2.5.7-2.2-.3-3.8-2.5-3.5-5,.3-2.5,2.4-4.2,4.6-3.9,1.1.1,1.9.6,2.4,1.3v-.8c.1,0,2.6.3,2.6.3v.1Zm-3.1,3.9c.2-1.3-.6-2.2-1.7-2.3-1.2-.1-2.1.5-2.3,1.8-.2,1.3.6,2.2,1.7,2.3,1.2.1,2.1-.5,2.3-1.8Z"/><path d="m214.36,33l-.9-4.5-1.5,3.4-2.3-1.1,4.9-10.8,2.3,1.1-2.9,6.5,3.9-2.3,2.7,1.2-4.6,2.6,1.1,5.2-2.6-1.2-.1-.1Z"/><path d="m221.36,35.3c.5.4,1.2.6,1.7.5l.8,2.2c-1.4.4-2.7,0-4-1-2.2-1.9-2.4-4.5-.8-6.5,1.6-1.9,4.3-2.3,6.3-.6,1.9,1.6,2.1,4.2.5,6.2-.2.3-.5.5-.7.7l-4.6-3.9c-.3.9,0,1.6.8,2.2v.2Zm3.2-1.4c.4-.9,0-1.7-.5-2.2-.7-.6-1.5-.7-2.3-.2l2.8,2.3v.1Z"/><path d="m233.56,39.3l-2.3,1.7c-.5-1-1.7-1.9-3.1-.9l-3.1,2.3-1.5-2.1,6.9-5,1.5,2.1-1.2.9c1.1-.4,2.2.2,2.9,1.1l-.1-.1Z"/><line class="cls-5" x1="199.75" y1="110.48" x2="200.25" y2="143.25"/><line class="cls-4" x1="199.75" y1="110.48" x2="200.09" y2="132.49"/><polygon class="cls-38" points="192.57 130.42 200.25 143.25 207.53 130.19 192.57 130.42"/><line class="cls-5" x1="112.18" y1="145.52" x2="160.82" y2="106.21"/><line class="cls-4" x1="120.55" y1="138.75" x2="160.82" y2="106.21"/><polygon class="cls-38" points="117.55 131.56 112.18 145.52 126.95 143.19 117.55 131.56"/><line class="cls-5" x1="287.82" y1="145.52" x2="239.18" y2="106.21"/><line class="cls-4" x1="279.45" y1="138.75" x2="239.18" y2="106.21"/><polygon class="cls-38" points="273.05 143.19 287.82 145.52 282.45 131.56 273.05 143.19"/><path class="cls-20" d="m178.34,218.95c.5-.4.9-.9,1.4-1.3,2.3-2.3,4.5-4.5,6.8-6.8,1.6-1.7,4.3-1.7,6,0,.6.5.9,1.2,1.1,2,.1.6.2,1.3,0,1.9-.3.9-.8,1.8-1.5,2.5-2,1.9-3.9,3.9-5.8,5.8-.3.3-.3.4,0,.7,1,1.1,1.8,2.5,2.2,3.9h-13.2c-.2,0-.4,0-.4-.2,0-1.3-.1-2.5.2-3.7.3-1.2.9-2.3,1.7-3.1l1.5-1.5v-.2Z"/><path class="cls-17" d="m210.94,216.75c-1.4-.6-2.1-2.7-1.4-4.2.5-1.3,1.9-2.2,3.3-2.1h8.4c1.9.2,3,1.1,3.4,2.8-.2,0-.2.1-.2.2-.4.9-1.1,1.6-2,1.9-.6.2-1.2.3-1.8.3h-8.4c-1,0-1.2,0-1.3,1.1Z"/><path class="cls-20" d="m210.94,223.65c-1.6-.9-2.2-3-1.3-4.6.5-.8,1.3-1.4,2.2-1.6.4,0,.7-.1,1.1-.2h8.8c.7.2,1.4.6,1.9,1,.5.5.8,1.1,1,1.8,0,0-.2.1-.2.2-.7,1.7-2.1,2.2-3.7,2.2h-8.6c-1,0-1.2.2-1.2,1.2Z"/><path class="cls-20" d="m209.24,227.65c0-1.6,1.1-3,2.6-3.3.2,0,.5,0,.7-.1,3.1,0,6.3.1,9.4,0,0,.2.2.2.3.2,1.2.4,2.1,1.3,2.4,2.6.2.7,0,.8-.6.8h-14.8v-.2Z"/><path class="cls-42" d="m188.54,227.65c-.4-1.5-1.1-2.8-2.2-3.9-.3-.3-.3-.4,0-.7,2-1.9,3.9-3.9,5.8-5.8.7-.7,1.2-1.5,1.5-2.5.6,1.5.3,3.3-.9,4.4-1.3,1.3-2.6,2.6-3.8,3.8-.3.3-.3.4,0,.7,1,1.1,1.8,2.5,2.2,3.9h-2.6v.1Z"/><path class="cls-10" d="m221.94,224.05c-3.1.2-6.3,0-9.4,0-.2,0-.5,0-.7.1-.3-.2-.6-.2-.8-.5h0c0-1.1.2-1.3,1.2-1.3h8.6c1.7,0,3-.5,3.7-2.2,0,0,.1-.2.2-.2.2,2-.7,3.4-2.4,4h-.3l-.1.1Z"/><path class="cls-10" d="m221.74,217.25h-8.8c-.4,0-.7,0-1.1.2-.2-.2-.6-.2-.8-.6h-.1c.1-1.1.2-1.3,1.3-1.3h8.4c.6,0,1.2,0,1.8-.3.9-.3,1.6-1,2-1.9,0-.1,0-.2.2-.2.4,1.8-.7,3.5-2.5,4h-.4v.1Z"/><path class="cls-25" d="m210.94,189.85h-3.8c-.3,0-.5,0-.5-.4,0-.87.43-1.3,1.3-1.3h6.9c.4,0,.5,0,.5.5,0,.87-.43,1.3-1.3,1.3h-3.1v-.1Z"/><path class="cls-30" d="m213.94,184.65h3.4c.3,0,.4,0,.4.4q0,1.4-1.3,1.4h-5.9c-.4,0-.5,0-.5-.5,0-.87.4-1.3,1.2-1.3h2.7Z"/><path class="cls-30" d="m206.64,185.45c0-.53.27-.8.8-.8s.83.3.9.9q0,.9-.9.9c-1,0-.8,0-.8-.9v-.1Z"/><path class="cls-17" d="m210.94,216.75h.1c0,.1-.1,0-.1,0Z"/><path class="cls-1" d="m217.64,180.35h-35.8c-.4,0-.9,0-1.3.2-1.4.5-2.4,1.9-2.3,3.4v35.1c.5-.4.9-.9,1.4-1.3,2.3-2.3,4.5-4.5,6.8-6.8.5-.6,1.2-.9,2-1.1,2.3-.6,4.6.8,5.1,3.1.1.6.2,1.3,0,1.9.6,1.5.3,3.3-.9,4.4-1.3,1.3-2.6,2.6-3.8,3.8-.3.3-.3.4,0,.7,1,1.1,1.8,2.5,2.2,3.9h18.1c0-1.6,1.1-3,2.6-3.4-.3-.2-.6-.2-.8-.5h0c-.8-.5-1.4-1.3-1.6-2.3-.4-1.8.7-3.6,2.5-4.1-.2-.2-.6-.2-.8-.6h-.1c-1.4-.8-2.1-2.8-1.4-4.4.5-1.3,1.9-2.2,3.3-2.1h8.4v-26.5c0-2.2-1.4-3.6-3.6-3.6v.2Zm-11,5.1c0-.53.27-.8.8-.8q.9,0,.9.9t-.9.9c-1,0-.8,0-.8-.9v-.1Zm7.4,4.4h-6.9c-.3,0-.5,0-.5-.4q0-1.3,1.3-1.3h6.9c.4,0,.5,0,.5.5q0,1.3-1.3,1.3v-.1Zm2.5-3.4h-5.9c-.4,0-.5,0-.5-.5q0-1.3,1.2-1.3h6.1c.3,0,.4,0,.4.4q0,1.4-1.3,1.4Z"/><path class="cls-9" d="m197.64,191.75h0v.6c-.1.9-.4,1.8-.9,2.7-.4.7-.9,1.4-1.5,1.9-.6.6-1.3,1.1-2.1,1.5-.7.3-1.4.5-2.1.6h-2.2c-1-.1-2-.5-2.9-1-.7-.4-1.4-1-1.9-1.6s-1-1.3-1.3-2.1c-.3-.7-.5-1.4-.6-2.1v-2.2c.1-.9.4-1.7.9-2.5.4-.7.9-1.3,1.5-1.9,1.7-1.6,4-2.4,6.3-2.1.9,0,1.7.3,2.5.7,1.7.9,3.1,2.3,3.8,4.1.3.6.4,1.3.5,2v1.2s0,.1,0,.2Zm-6.5,6.2c.3,0,.6-.1.9-.2,3.2-1.1,5.2-4.5,4.5-7.8-.5-2.4-2-4.1-4.3-5-.3-.1-.7-.3-1.1-.3h-.2c-.6,0-1.1-.1-1.7,0-1.1,0-2.1.4-3,1-2.4,1.6-3.5,3.8-3.2,6.7.2,2,1.2,3.5,2.8,4.7,1.3,1,2.8,1.4,4.4,1.3.3,0,.6,0,.9-.1v-.3Z"/><path class="cls-6" d="m191.14,197.95c-.3.1-.6.1-.9.1-1.6,0-3.1-.3-4.4-1.3-1.6-1.2-2.6-2.7-2.8-4.7-.3-2.9.8-5.1,3.2-6.7.9-.6,1.9-.9,3-1h2c1.2.4,2.2,1.1,2.9,2,.4.5.6.9.9,1.5.4.9.6,1.8.6,2.8v1.5c-.1.8-.3,1.5-.7,2.2-.4.8-.9,1.4-1.5,2-.5.5-1.1.8-1.7,1.1-.2,0-.4.1-.6.2v.3Zm-6.3-6.7c0,2.7,2.2,5,5,5s5-2.2,5-5-2.2-5-5-5-5,2.2-5,4.9h0v.1Z"/><path class="cls-15" d="m191.14,197.95c.2-.1.4-.1.6-.2.6-.3,1.2-.6,1.7-1.1.6-.6,1.1-1.3,1.5-2,.3-.7.6-1.4.7-2.2,0-.5.1-1,0-1.5,0-1-.3-1.9-.6-2.8-.2-.5-.5-1-.9-1.5-.8-1-1.7-1.7-2.9-2h-.1c.4,0,.7.2,1.1.3,2.3.9,3.8,2.6,4.3,5,.7,3.3-1.3,6.8-4.5,7.8-.3,0-.6.2-.9.2Z"/><path class="cls-26" d="m184.94,191.25c0-2.7,2.2-5,5-5s5,2.2,5,5-2.2,5-5,5h0c-2.7,0-5-2.2-5-4.9h0v-.1Zm5-3.1h-2.2c-.3,0-.5,0-.6.2,0,0,0,.1-.1.2-.8.9-1.1,1.9-1,3.1,0,1,.5,1.9,1.3,2.5,0,0,.2.1.3.1h4.6c.3,0,.5,0,.7-.3l.1-.1c.8-1,1.1-2.1.9-3.3-.1-.8-.5-1.5-1.1-2.2-.2-.2-.3-.3-.6-.3h-2.3v.1Z"/><path class="cls-13" d="m189.84,188.15h2.3c.3,0,.4.1.6.3.6.6,1,1.3,1.1,2.2.2,1.2-.1,2.4-.9,3.3l-.1.1c-.2.2-.4.3-.7.3h-4.6c-.1,0-.2,0-.3-.1-.7-.7-1.2-1.5-1.3-2.5-.1-1.2.2-2.2,1-3.1,0,0,0-.1.1-.2.2-.2.4-.3.6-.2h2.2v-.1Zm2.2,3.1c0-1.2-.9-2.2-2.2-2.2-1.2,0-2.1.9-2.1,2.1s.9,2.2,2.2,2.2c1.2,0,2.1-.9,2.1-2.1h0Z"/><path class="cls-24" d="m192.04,191.25c0,1.2-.9,2.1-2.1,2.1s-2.2-.9-2.2-2.2c0-1.2.9-2.1,2.1-2.1s2.1.9,2.2,2.2Zm-2.2-1.2c-.7,0-1.2.5-1.2,1.2h0c0,.7.5,1.2,1.2,1.2s1.2-.5,1.2-1.2-.5-1.2-1.2-1.2h0Z"/><path class="cls-37" d="m189.84,192.45c-.7,0-1.2-.5-1.2-1.2s.5-1.2,1.2-1.2h0c.1,0,.1.2.2.3.1.6.1,1.2,0,1.8,0,.1,0,.2-.2.3Z"/><path class="cls-18" d="m189.84,192.45c.1,0,.1-.2.2-.3.1-.6.1-1.2,0-1.8,0-.1,0-.2-.2-.3.7,0,1.2.6,1.2,1.2s-.5,1.2-1.2,1.2Z"/><circle class="cls-3" cx="200.64" cy="194.05" r="45"/><path d="m170.04,195.25l.2,2.1-5.3.4,4,2.1v.2l-3.7,2.6,5.3-.4.2,2.1-9.1.7-.2-2.1,3.9-2.8-4.2-2.2-.2-2.1,9.1-.7v.1Z"/><path d="m169.44,190.85c.1-.5,0-1-.2-1.3l1.2-1.3c.7.8,1,1.8.7,3-.5,2.2-2.2,3.2-4.1,2.8s-3.1-2.1-2.6-4.1c.4-1.9,2.1-2.9,4-2.5.3,0,.5.1.7.2l-1,4.5c.7-.1,1.1-.6,1.2-1.3h.1Zm-2.1-1.7c-.8,0-1.2.6-1.3,1.1-.2.7.1,1.3.7,1.6l.6-2.7Z"/><path d="m166.54,177.65l8.2,3.9-.8,1.8-.6-.3c.3.6.3,1.3-.1,2.1-.7,1.5-2.7,2.2-4.4,1.3-1.7-.8-2.5-2.7-1.8-4.3.4-.8.9-1.2,1.6-1.4l-2.9-1.4.8-1.8v.1Zm4.4,4.3c-.9-.4-1.7,0-2.1.7-.4.8-.1,1.7.8,2.1.9.4,1.7,0,2.1-.7s.1-1.7-.8-2.1Z"/><path d="m168.64,176.15c-.5-.4-.6-1.1-.3-1.6.4-.5,1.1-.6,1.6-.3.5.4.6,1.1.3,1.6-.4.5-1.1.6-1.6.3Zm1.5.9l1.1-1.6,5.3,3.8-1.1,1.6-5.3-3.8Z"/><path d="m177.34,168.95l4.5,4.7-1.4,1.4-.4-.4c0,.7-.2,1.3-.8,1.9-1.2,1.2-3.3,1.1-4.6-.3-1.4-1.4-1.4-3.4-.2-4.6.6-.6,1.3-.8,1.9-.8l-.4-.4,1.4-1.4v-.1Zm.9,3.7c-.7-.7-1.6-.7-2.2,0-.6.6-.7,1.5,0,2.2s1.6.7,2.2,0c.6-.6.7-1.5,0-2.2Z"/><path d="m180.24,168.85l4.2-2.6,1,1.6-4.2,2.6-1-1.6Z"/><path d="m186.74,168.15l1.4-1.6c.6.6,1.2.9,2.2.6.9-.3,1-.8.9-1.1-.2-.5-.7-.6-2.2-.5-1.4,0-2.9,0-3.4-1.7-.6-1.7.5-3.1,2-3.6,1.4-.5,2.8-.2,3.8.9l-1.3,1.5c-.5-.5-1-.8-1.8-.5-.6.2-.8.6-.7,1s.4.6,1.9.5c1.4,0,3.1-.1,3.7,1.7.6,1.7-.4,3.1-2.3,3.7-1.8.6-3.3.2-4.2-.9Z"/><path d="m193.14,159.75c-.1-.6.3-1.2,1-1.3.6-.1,1.2.3,1.3,1,.1.6-.3,1.2-1,1.3-.6.1-1.2-.3-1.3-1Zm.5,1.7l1.9-.3,1.1,6.4-1.9.3-1.1-6.4Z"/><path d="m203.84,163.25v4h-2v-3.7c0-.8-.5-1.2-1.1-1.2-.7,0-1.2.4-1.2,1.3v3.5h-2v-6.5h2v.6c.4-.5,1-.8,1.9-.8,1.3,0,2.4.9,2.4,2.7v.1Z"/><path d="m212.74,162.65l-1.5,6c-.5,2.1-2.4,2.6-4.1,2.2-1.3-.3-2.3-1.1-2.6-2.3l1.8-.5c.1.5.4.9,1.2,1.2.9.2,1.5,0,1.8-1v-.6c-.4.4-1.1.6-1.9.4-1.8-.4-2.7-2.2-2.3-4,.4-1.7,2.1-2.9,3.9-2.4.8.2,1.4.7,1.6,1.3l.2-.6,1.8.5.1-.2Zm-2.6,2.6c.2-.9-.3-1.6-1.2-1.8-.9-.2-1.7.2-1.9,1.1s.3,1.6,1.2,1.8c.9.2,1.7-.2,1.9-1.1Z"/><path d="m215.94,160.85l1.8.8-3.9,8.7-1.8-.8,3.9-8.7Z"/><path d="m218.54,171.25c.4.3.9.4,1.3.3l.8,1.6c-1,.4-2.1.2-3.1-.5-1.9-1.2-2.2-3.2-1.1-4.9,1.1-1.6,3.1-2.1,4.8-.9,1.6,1,1.9,3.1.9,4.7-.2.2-.3.4-.5.6l-3.8-2.6c-.2.7.2,1.2.8,1.6l-.1.1Zm2.3-1.3c.2-.7,0-1.3-.6-1.6-.6-.4-1.2-.4-1.7,0l2.3,1.5v.1Z"/><path d="m225.24,174.55c1.5-1.2,3.6-1,4.8.6.8,1,.9,2.3.5,3.3l-1.8-.7c.2-.5.1-1-.2-1.4-.5-.7-1.4-.8-2.1-.2-.7.6-.8,1.4-.3,2.1.4.5.9.7,1.4.5l.3,1.9c-1.1.2-2.3-.3-3.1-1.3-1.2-1.6-.9-3.6.6-4.8h-.1Z"/><path d="m235.44,185.05l-5.9,2.8-.8-1.8.6-.3c-.6-.2-1.2-.6-1.5-1.4-.7-1.5,0-3.4,1.8-4.3,1.8-.8,3.7-.2,4.4,1.4.4.8.4,1.5.1,2.1l.6-.3.8,1.8h-.1Zm-3.8-.4c.9-.4,1.2-1.3.8-2.1-.4-.8-1.2-1.1-2.1-.7-.9.4-1.2,1.3-.8,2.1.4.8,1.2,1.1,2.1.7Z"/><path d="m235.34,197.65l-3.9.6-.3-1.9,3.8-.5c.6,0,1-.5.9-1.1,0-.6-.6-.9-1.4-.8l-3.6.5-.3-1.9,3.8-.5c.6,0,1-.5.9-1.1,0-.6-.6-.9-1.4-.8l-3.6.5-.3-1.9,6.4-.9.3,1.9h-.6c.5.3.9.8,1,1.7.1.8-.1,1.4-.6,1.8.6.3,1,.8,1.1,1.7.2,1.5-.7,2.6-2.3,2.8l.1-.1Z"/><path d="m232.14,202.45c0,.5,0,1,.3,1.3l-1.1,1.4c-.8-.8-1.1-1.8-.9-3,.3-2.2,2-3.3,3.9-3.1,1.9.3,3.2,1.9,2.9,3.9-.3,1.9-1.9,3.1-3.9,2.8-.3,0-.5-.1-.8-.2l.7-4.6c-.7.1-1,.7-1.1,1.4v.1Zm2.2,1.5c.8,0,1.1-.6,1.2-1.2.1-.7-.2-1.3-.8-1.5l-.4,2.8v-.1Z"/><path d="m234.84,211.85l-2.1-.7c.4-.7.5-1.9-.8-2.3l-2.8-1,.6-1.8,6.1,2.1-.6,1.8-1.1-.4c.7.5.8,1.5.6,2.3h.1Z"/><path d="m230.84,219.05l-5.6-3.3,1-1.7.5.3c-.2-.6-.2-1.3.3-2.1.9-1.5,2.9-1.9,4.5-1,1.7,1,2.3,2.9,1.4,4.4-.4.8-1,1.2-1.7,1.3l.5.3-1,1.7.1.1Zm-1.8-3.3c.8.5,1.7.2,2.1-.5.4-.8.2-1.6-.6-2.1-.8-.5-1.7-.2-2.1.5-.4.8-.2,1.6.6,2.1Z"/><path class="cls-20" d="m59.7,218.95c.5-.4.9-.9,1.4-1.3,2.3-2.3,4.5-4.5,6.8-6.8,1.6-1.7,4.3-1.7,6,0,.6.5.9,1.2,1.1,2,.1.6.2,1.3,0,1.9-.3.9-.8,1.8-1.5,2.5-2,1.9-3.9,3.9-5.8,5.8-.3.3-.3.4,0,.7,1,1.1,1.8,2.5,2.2,3.9h-13.2c-.2,0-.4,0-.4-.2,0-1.3-.1-2.5.2-3.7.3-1.2.9-2.3,1.7-3.1l1.5-1.5v-.2Z"/><path class="cls-17" d="m92.3,216.75c-1.4-.6-2.1-2.7-1.4-4.2.5-1.3,1.9-2.2,3.3-2.1h8.4c1.9.2,3,1.1,3.4,2.8-.2,0-.2.1-.2.2-.4.9-1.1,1.6-2,1.9-.6.2-1.2.3-1.8.3h-8.4c-1,0-1.2,0-1.3,1.1Z"/><path class="cls-20" d="m92.3,223.65c-1.6-.9-2.2-3-1.3-4.6.5-.8,1.3-1.4,2.2-1.6.4,0,.7-.1,1.1-.2h8.8c.7.2,1.4.6,1.9,1,.5.5.8,1.1,1,1.8,0,0-.2.1-.2.2-.7,1.7-2.1,2.2-3.7,2.2h-8.6c-1,0-1.2.2-1.2,1.2Z"/><path class="cls-20" d="m90.6,227.65c0-1.6,1.1-3,2.6-3.3.2,0,.5,0,.7-.1,3.1,0,6.3.1,9.4,0,0,.2.2.2.3.2,1.2.4,2.1,1.3,2.4,2.6.2.7,0,.8-.6.8h-14.8v-.2Z"/><path class="cls-28" d="m69.9,227.65c-.4-1.5-1.1-2.8-2.2-3.9-.3-.3-.3-.4,0-.7,2-1.9,3.9-3.9,5.8-5.8.7-.7,1.2-1.5,1.5-2.5.6,1.5.3,3.3-.9,4.4-1.3,1.3-2.6,2.6-3.8,3.8-.3.3-.3.4,0,.7,1,1.1,1.8,2.5,2.2,3.9h-2.6v.1Z"/><path class="cls-10" d="m103.3,224.05c-3.1.2-6.3,0-9.4,0-.2,0-.5,0-.7.1-.3-.2-.6-.2-.8-.5h0c0-1.1.2-1.3,1.2-1.3h8.6c1.7,0,3-.5,3.7-2.2,0,0,.1-.2.2-.2.2,2-.7,3.4-2.4,4h-.3l-.1.1Z"/><path class="cls-10" d="m103.1,217.25h-8.8c-.4,0-.7,0-1.1.2-.2-.2-.6-.2-.8-.6h-.1c.1-1.1.2-1.3,1.3-1.3h8.4c.6,0,1.2,0,1.8-.3.9-.3,1.6-1,2-1.9,0-.1,0-.2.2-.2.4,1.8-.7,3.5-2.5,4h-.4v.1Z"/><path class="cls-25" d="m92.3,189.85h-3.8c-.3,0-.5,0-.5-.4,0-.87.43-1.3,1.3-1.3h6.9c.4,0,.5,0,.5.5,0,.87-.43,1.3-1.3,1.3h-3.1v-.1Z"/><path class="cls-30" d="m95.3,184.65h3.4c.3,0,.4,0,.4.4q0,1.4-1.3,1.4h-5.9c-.4,0-.5,0-.5-.5,0-.87.4-1.3,1.2-1.3h2.7Z"/><path class="cls-30" d="m88,185.45c0-.53.27-.8.8-.8s.83.3.9.9q0,.9-.9.9c-1,0-.8,0-.8-.9v-.1Z"/><path class="cls-17" d="m92.3,216.75h.1c0,.1-.1,0-.1,0Z"/><path class="cls-28" d="m99,180.35h-35.8c-.4,0-.9,0-1.3.2-1.4.5-2.4,1.9-2.3,3.4v35.1c.5-.4.9-.9,1.4-1.3,2.3-2.3,4.5-4.5,6.8-6.8.5-.6,1.2-.9,2-1.1,2.3-.6,4.6.8,5.1,3.1.1.6.2,1.3,0,1.9.6,1.5.3,3.3-.9,4.4-1.3,1.3-2.6,2.6-3.8,3.8-.3.3-.3.4,0,.7,1,1.1,1.8,2.5,2.2,3.9h18.1c0-1.6,1.1-3,2.6-3.4-.3-.2-.6-.2-.8-.5h0c-.8-.5-1.4-1.3-1.6-2.3-.4-1.8.7-3.6,2.5-4.1-.2-.2-.6-.2-.8-.6h-.1c-1.4-.8-2.1-2.8-1.4-4.4.5-1.3,1.9-2.2,3.3-2.1h8.4v-26.5c0-2.2-1.4-3.6-3.6-3.6v.2Zm-11,5.1c0-.53.27-.8.8-.8q.9,0,.9.9t-.9.9c-1,0-.8,0-.8-.9v-.1Zm7.4,4.4h-6.9c-.3,0-.5,0-.5-.4q0-1.3,1.3-1.3h6.9c.4,0,.5,0,.5.5q0,1.3-1.3,1.3v-.1Zm2.5-3.4h-5.9c-.4,0-.5,0-.5-.5q0-1.3,1.2-1.3h6.1c.3,0,.4,0,.4.4q0,1.4-1.3,1.4Z"/><circle class="cls-3" cx="82" cy="194.05" r="45"/><path d="m51.4,195.25l.2,2.1-5.3.4,4,2.1v.2l-3.7,2.6,5.3-.4.2,2.1-9.1.7-.2-2.1,3.9-2.8-4.2-2.2-.2-2.1,9.1-.7v.1Z"/><path d="m50.8,190.85c.1-.5,0-1-.2-1.3l1.2-1.3c.7.8,1,1.8.7,3-.5,2.2-2.2,3.2-4.1,2.8s-3.1-2.1-2.6-4.1c.4-1.9,2.1-2.9,4-2.5.3,0,.5.1.7.2l-1,4.5c.7-.1,1.1-.6,1.2-1.3h.1Zm-2.1-1.7c-.8,0-1.2.6-1.3,1.1-.2.7.1,1.3.7,1.6l.6-2.7Z"/><path d="m47.9,177.65l8.2,3.9-.8,1.8-.6-.3c.3.6.3,1.3-.1,2.1-.7,1.5-2.7,2.2-4.4,1.3-1.7-.8-2.5-2.7-1.8-4.3.4-.8.9-1.2,1.6-1.4l-2.9-1.4.8-1.8v.1Zm4.4,4.3c-.9-.4-1.7,0-2.1.7-.4.8-.1,1.7.8,2.1.9.4,1.7,0,2.1-.7s.1-1.7-.8-2.1Z"/><path d="m50,176.15c-.5-.4-.6-1.1-.3-1.6.4-.5,1.1-.6,1.6-.3.5.4.6,1.1.3,1.6-.4.5-1.1.6-1.6.3Zm1.5.9l1.1-1.6,5.3,3.8-1.1,1.6-5.3-3.8Z"/><path d="m58.7,168.95l4.5,4.7-1.4,1.4-.4-.4c0,.7-.2,1.3-.8,1.9-1.2,1.2-3.3,1.1-4.6-.3-1.4-1.4-1.4-3.4-.2-4.6.6-.6,1.3-.8,1.9-.8l-.4-.4,1.4-1.4v-.1Zm.9,3.7c-.7-.7-1.6-.7-2.2,0-.6.6-.7,1.5,0,2.2s1.6.7,2.2,0c.6-.6.7-1.5,0-2.2Z"/><path d="m61.6,168.85l4.2-2.6,1,1.6-4.2,2.6-1-1.6Z"/><path d="m73.2,159.05l2.8,8.7-1.5.5-4.9-3.6,1.5,4.7-2,.6-2.8-8.7,1.5-.5,4.9,3.6-1.5-4.7,2-.6Z"/><path d="m76.5,164.35c-.1-1.9,1.3-3.5,3.2-3.6s3.5,1.3,3.7,3.2c.1,1.9-1.3,3.5-3.2,3.6s-3.5-1.3-3.7-3.2Zm4.9-.3c0-.9-.7-1.5-1.6-1.4-.8,0-1.5.7-1.4,1.6.1.9.7,1.5,1.6,1.4.8,0,1.5-.7,1.4-1.6Z"/><path d="m87.7,164.35c.5-1.9,2.3-2.9,4.2-2.4,1.2.3,2.1,1.3,2.4,2.4l-1.9.5c0-.5-.5-.9-1-1-.8-.2-1.6.2-1.8,1.1s.2,1.6,1,1.8c.6.1,1.1,0,1.4-.4l1.4,1.4c-.8.8-2,1.2-3.3.9-1.9-.5-2.9-2.3-2.4-4.2v-.1Z"/><path d="m102.2,166.65l-3,5.7-1.7-.9.3-.5c-.6.2-1.3.2-2.1-.2-1.5-.8-2-2.8-1.1-4.5s2.8-2.4,4.3-1.6c.8.4,1.2,1,1.3,1.6l.3-.5,1.7.9h0Zm-3.2,2c.5-.9.2-1.7-.6-2.1-.8-.4-1.7-.2-2.1.7-.5.9-.2,1.7.6,2.1.8.4,1.7.2,2.1-.7Z"/><path d="m109.7,176.75l-2.8,2.8-1.4-1.4,2.7-2.7c.5-.5.5-1,0-1.4-.5-.5-1-.4-1.6.2l-2.6,2.6-1.4-1.4,2.7-2.7c.5-.5.5-1,0-1.4-.5-.5-1-.4-1.6.2l-2.6,2.6-1.4-1.4,4.6-4.6,1.4,1.4-.4.4c.5-.1,1.2,0,1.8.7.5.5.7,1.2.6,1.8.6-.1,1.3,0,1.9.7,1.1,1.1,1,2.5-.1,3.7l.2-.1Z"/><path d="m110.1,182.45c.3.5.7.8,1,.9v1.8c-1.1-.1-2-.8-2.6-1.8-1.1-1.9-.4-3.9,1.3-4.8s3.7-.4,4.7,1.4c.9,1.7.3,3.6-1.4,4.5-.2.1-.5.2-.7.3l-2.2-4c-.5.5-.4,1.2,0,1.8l-.1-.1Zm2.7,0c.6-.5.5-1.2.2-1.7-.4-.6-.9-.9-1.6-.7l1.3,2.5.1-.1Z"/><path d="m117.9,188.35l-2.1.7c-.1-.8-.8-1.8-2-1.4l-2.8.9-.6-1.9,6.2-2,.6,1.9-1.1.4c.9,0,1.6.7,1.8,1.5v-.1Z"/><path d="m119,196.45l-6.5.8-.2-1.9h.6c-.5-.4-.9-1-1-1.9-.2-1.7,1.1-3.3,3-3.5s3.6,1,3.8,2.7c.1.9-.1,1.5-.5,2h.6l.2,1.9v-.1Zm-3.5-1.5c1-.1,1.5-.8,1.4-1.7-.1-.9-.8-1.5-1.8-1.3-1,.1-1.5.8-1.4,1.7s.8,1.5,1.8,1.3Z"/><circle class="cls-3" cx="316.72" cy="194.05" r="45"/><path d="m286.62,190.95v2c-.1,0-5.1-.3-5.1-.3l3.5,2.4v.2l-3.8,2,5,.3v2c-.1,0-8.7-.5-8.7-.5v-2c.1,0,4.1-2.1,4.1-2.1l-3.7-2.5v-2c.1,0,8.7.5,8.7.5Z"/><path d="m286.62,186.65c.2-.5.1-.9,0-1.3l1.3-1.1c.6.8.7,1.8.3,2.9-.7,2-2.4,2.8-4.2,2.2-1.7-.6-2.6-2.3-2-4.1.6-1.7,2.3-2.5,4.1-1.9.2,0,.5.2.7.3l-1.4,4.1c.7,0,1.1-.5,1.3-1.1h-.1Zm-1.8-1.8c-.7,0-1.2.4-1.3.9-.2.7,0,1.2.5,1.6l.8-2.5Z"/><path d="m285.22,174.05l7.3,4.5-1,1.6-.5-.3c.2.6.1,1.2-.3,1.9-.8,1.4-2.7,1.8-4.3.8-1.6-1-2.1-2.8-1.2-4.2.4-.7,1-1.1,1.6-1.2l-2.6-1.6,1-1.6v.1Zm3.7,4.5c-.8-.5-1.6-.3-2,.5-.4.7-.3,1.5.5,2,.8.5,1.6.3,2-.5.4-.8.3-1.5-.5-2Z"/><path d="m287.32,172.85c-.5-.4-.5-1.1-.1-1.6s1.1-.5,1.6-.1.5,1.1.1,1.6c-.4.5-1.1.5-1.6.1Zm1.4.9l1.2-1.4,4.6,4-1.2,1.4s-4.6-4-4.6-4Z"/><path d="m296.02,166.85l3.9,4.7-1.4,1.2-.4-.4c0,.6-.3,1.2-.9,1.7-1.2,1-3.2.8-4.3-.6-1.1-1.4-1-3.3.2-4.4.6-.5,1.3-.7,1.9-.6l-.4-.4s1.4-1.2,1.4-1.2Zm.5,3.5c-.6-.7-1.4-.8-2.1-.2-.7.5-.8,1.4-.2,2.1.6.7,1.4.8,2.1.2.7-.5.8-1.4.2-2.1Z"/><path d="m298.72,167.05l4.1-2.1.8,1.6-4.1,2.1-.8-1.6Z"/><path d="m314.22,166.55l-1.9.4-1.1-4.9-1.4,4h-.2l-3-3,1.1,4.9-1.9.4-1.9-8.4,1.9-.4,3.1,3.2,1.4-4.2,1.9-.4,1.9,8.4h.1Z"/><path d="m321.12,160.75l-.3,6.1h-1.8v-.7c-.3.4-1,.7-1.8.7-1.2,0-2.3-1-2.2-2.6l.2-3.8h1.8l-.1,3.6c0,.8.4,1.1,1,1.2.7,0,1.2-.3,1.2-1.2v-3.3c.1,0,2,0,2,0Z"/><path d="m323.72,158.35l1.8.4-1.8,8.8-1.8-.4,1.8-8.8Z"/><path d="m328.42,164.35l-.7,2.1c-.2.5.2.7,1,.9l-.5,1.6c-2.4-.5-2.8-1.4-2.2-3.1l.7-2.1-.9-.3.6-1.7.9.3.4-1.1h1.9l-.5,1.7,1.2.4-.6,1.7-1.2-.4h-.1Z"/><path d="m331.62,163.75l1.7.8-2.6,5.5-1.7-.8,2.6-5.5Zm.5-1.6c.3-.5.9-.8,1.5-.5.5.3.8.9.5,1.5-.3.5-.9.8-1.5.5-.5-.3-.8-.9-.5-1.5Z"/><path d="m335.72,169.45c1.2-1.4,3.1-1.6,4.6-.4.9.8,1.3,1.9,1.1,3l-1.8-.3c.1-.5,0-.9-.5-1.3-.6-.5-1.4-.4-2,.2-.5.7-.5,1.5.2,2,.4.3.9.4,1.4.2l.7,1.7c-1,.4-2.2.2-3.1-.5-1.4-1.2-1.6-3.2-.4-4.6h-.2Z"/><path d="m347.32,176.95l-4.8,3.8-1.1-1.4.5-.4c-.6,0-1.2-.3-1.7-1-1-1.3-.7-3.2.7-4.3,1.4-1.1,3.4-1,4.4.3.5.6.7,1.3.5,1.9l.5-.4,1.1,1.4-.1.1Zm-3.5.5c.7-.6.8-1.4.3-2.1-.5-.7-1.4-.8-2.1-.2-.7.6-.8,1.4-.3,2.1s1.4.8,2.1.2Z"/><path d="m350.02,188.45l-3.5,1.4-.7-1.7,3.3-1.4c.6-.2.8-.7.6-1.2-.2-.6-.8-.7-1.4-.4l-3.2,1.3-.7-1.7,3.3-1.4c.6-.2.8-.7.6-1.2-.2-.6-.8-.7-1.4-.4l-3.2,1.3-.7-1.7,5.7-2.3.7,1.7-.5.2c.5.1,1,.5,1.3,1.2s.2,1.3-.1,1.8c.6.1,1.1.5,1.4,1.3.5,1.3,0,2.5-1.5,3.1v.1Z"/><path d="m348.32,193.55c0,.5.3.9.6,1.1l-.7,1.6c-.9-.5-1.4-1.3-1.6-2.5-.2-2.1,1-3.5,2.8-3.8,1.8-.2,3.4.9,3.6,2.9.2,1.8-1,3.3-2.8,3.5h-.7l-.5-4.3c-.6.3-.8.9-.7,1.6v-.1Zm2.3.9c.7-.3.9-.9.8-1.4,0-.7-.5-1.1-1.1-1.2,0,0,.3,2.6.3,2.6Z"/><path d="m353.12,201.35h-2.1c.2-.9,0-2-1.3-2l-2.8-.2v-1.8c.1,0,6.2.4,6.2.4v1.8h-1.2c.8.3,1.1,1.1,1.1,1.9l.1-.1Z"/><path d="m351.32,208.95l-5.9-1.5.4-1.8h.6c-.4-.4-.5-1-.3-1.8.4-1.6,2.1-2.5,3.8-2.1,1.8.4,2.8,2.1,2.4,3.6-.2.8-.6,1.3-1.2,1.6h.6c0,.1-.4,1.9-.4,1.9v.1Zm-2.5-2.5c.9.2,1.6-.2,1.8-1.1.2-.8-.2-1.6-1.1-1.8s-1.6.2-1.8,1.1c-.2.8.2,1.6,1.1,1.8Z"/><path class="cls-31" d="m325.22,226.25h-18.1c-.4-1.5-1.2-2.8-2.2-3.9-.3-.3-.3-.4,0-.7,1.3-1.3,2.6-2.5,3.8-3.8,1.2-1.2,1.5-2.9.9-4.4.1-.6,0-1.3,0-1.9-.6-2.3-2.9-3.7-5.1-3.1-.8.2-1.4.6-2,1.1-2.3,2.2-4.5,4.5-6.8,6.8-.4.4-.9.9-1.4,1.3v-35.1c0-1.5.9-2.9,2.3-3.4.4-.1.8-.2,1.3-.2h35.8c2.2,0,3.6,1.4,3.6,3.6v26.5h-8.4c-1.4,0-2.8.8-3.3,2.1-.7,1.6,0,3.6,1.4,4.2h.1c.2.5.6.4.8.7-1.8.4-3,2.2-2.5,4.1.2.9.8,1.7,1.6,2.2h0c.2.4.6.4.8.6-1.6.4-2.6,1.8-2.6,3.4v-.1Zm-6-32.6v-8.5c0-1-.7-1.9-1.7-1.9h-17c-1.3,0-2.1.7-2.1,2v16.7c0,1,.7,1.8,1.7,1.9h17.2c.9,0,1.7-.6,1.8-1.5v-8.8l.1.1Zm7.7-5.2h3.1q1.3,0,1.3-1.3c0-.4-.1-.5-.5-.5h-6.9q-1.3,0-1.3,1.3c0,1.3.1.5.5.4h3.8v.1Zm3.1-5.2h-2.7q-1.2,0-1.2,1.3c0,.4.2.5.5.5h5.9q1.3,0,1.3-1.4c0-.3-.1-.4-.4-.4h-3.4,0Zm-7.4.8c0,1-.2.9.8.9.6,0,.9-.3.9-.9q0-.9-.9-.9c-.9,0-.8,0-.8.8v.1Z"/><path class="cls-20" d="m294.32,217.65c.5-.4.9-.9,1.4-1.3,2.3-2.3,4.5-4.5,6.8-6.8,1.6-1.7,4.3-1.7,6,0,.6.5.9,1.2,1.1,2,.1.6.2,1.3,0,1.9-.3.9-.8,1.8-1.5,2.5-2,1.9-3.9,3.9-5.8,5.8-.3.3-.3.4,0,.7,1,1.1,1.8,2.5,2.2,3.9h-13.2c-.2,0-.4,0-.4-.2,0-1.3-.1-2.5.2-3.7.3-1.2.9-2.3,1.7-3.1l1.5-1.5v-.2Z"/><path class="cls-17" d="m326.92,215.45c-1.4-.6-2.1-2.7-1.4-4.2.5-1.3,1.9-2.2,3.3-2.1h8.4c1.9.2,3,1.1,3.4,2.8-.2,0-.2.1-.2.2-.4.9-1.1,1.6-2,1.9-.6.2-1.2.3-1.8.3h-8.4c-1,0-1.2,0-1.3,1.1Z"/><path class="cls-20" d="m326.92,222.35c-1.6-.9-2.2-3-1.3-4.6.5-.8,1.3-1.4,2.2-1.6.4,0,.7-.1,1.1-.2h8.8c.7.2,1.4.6,1.9,1,.5.5.8,1.1,1,1.8,0,0-.2.1-.2.2-.7,1.7-2.1,2.2-3.7,2.2h-8.6c-1,0-1.2.2-1.2,1.2Z"/><path class="cls-20" d="m325.22,226.25c0-1.6,1.1-3,2.6-3.3.2,0,.5,0,.7-.1,3.1,0,6.3.1,9.4,0,0,.2.2.2.3.2,1.2.4,2.1,1.3,2.4,2.6.2.7,0,.8-.6.8h-14.8v-.2Z"/><path class="cls-42" d="m304.52,226.25c-.4-1.5-1.1-2.8-2.2-3.9-.3-.3-.3-.4,0-.7,2-1.9,3.9-3.9,5.8-5.8.7-.7,1.2-1.5,1.5-2.5.6,1.5.3,3.3-.9,4.4-1.3,1.3-2.6,2.6-3.8,3.8-.3.3-.3.4,0,.7,1,1.1,1.8,2.5,2.2,3.9h-2.6v.1Z"/><path class="cls-10" d="m337.92,222.75c-3.1.2-6.3,0-9.4,0-.2,0-.5,0-.7.1-.3-.2-.6-.2-.8-.5h0c0-1.1.2-1.3,1.2-1.3h8.6c1.7,0,3-.5,3.7-2.2,0,0,.1-.2.2-.2.2,2-.7,3.4-2.4,4h-.3l-.1.1Z"/><path class="cls-10" d="m337.72,215.95h-8.8c-.4,0-.7,0-1.1.2-.2-.2-.6-.2-.8-.6h-.1c.1-1.1.2-1.3,1.3-1.3h8.4c.6,0,1.2,0,1.8-.3.9-.3,1.6-1,2-1.9,0-.1,0-.2.2-.2.4,1.8-.7,3.5-2.5,4h-.4v.1Z"/><path class="cls-22" d="m319.22,193.65v8.5c0,.9-.6,1.7-1.5,1.8h-17.2c-1,0-1.8-.7-1.9-1.7v-17c0-1.3.7-2,2.1-2h16.7c1,0,1.9.6,1.9,1.6v8.8h-.1Zm-11.2,4.3c0-1.9-1.5-3.4-3.4-3.4s-3.4,1.5-3.4,3.4,1.5,3.4,3.4,3.4h0c1.9,0,3.4-1.5,3.4-3.4Zm0-8.6c0-1.9-1.5-3.4-3.4-3.4s-3.4,1.5-3.4,3.4,1.5,3.4,3.4,3.4,3.4-1.5,3.5-3.3h0l-.1-.1Zm5.1,3.4c1.9,0,3.4-1.5,3.4-3.4s-1.5-3.4-3.4-3.4-3.4,1.5-3.4,3.4h0c0,1.9,1.5,3.4,3.4,3.4h0Zm2.6,5.2v-1.6c0-.5-.3-.9-.7-1h-3.5c-.4,0-.9.3-.9.7v3.5c0,.5.3.9.8.9h3.5c.5,0,.9-.3.9-.8v-1.7h-.1Z"/><path class="cls-25" d="m326.92,188.45h-3.8c-.3,0-.5,0-.5-.4,0-.87.43-1.3,1.3-1.3h6.9c.4,0,.5,0,.5.5,0,.87-.43,1.3-1.3,1.3h-3.1v-.1Z"/><path class="cls-30" d="m329.92,183.25h3.4c.3,0,.4,0,.4.4q0,1.4-1.3,1.4h-5.9c-.4,0-.5,0-.5-.5,0-.87.4-1.3,1.2-1.3h2.7Z"/><path class="cls-30" d="m322.62,184.15c0-.53.27-.8.8-.8s.83.3.9.9q0,.9-.9.9c-1,0-.8,0-.8-.9v-.1Z"/><path class="cls-17" d="m326.92,215.45h.1c0,.1-.1,0-.1,0Z"/><path class="cls-27" d="m308.02,197.95c0,1.9-1.6,3.4-3.5,3.4s-3.4-1.6-3.4-3.5,1.6-3.4,3.4-3.4c1.9,0,3.4,1.6,3.4,3.5h.1Zm-5.1-.5v.4c0,.8.5,1.4,1.2,1.7.9.3,1.9-.2,2.2-1.1.2-.5,0-1.1-.2-1.5-.4-.5-1.1-.8-1.7-.6-1.1,0-1.4.3-1.4,1.2h0l-.1-.1Z"/><path class="cls-27" d="m308.02,189.35c0,1.9-1.5,3.4-3.4,3.4s-3.4-1.5-3.4-3.4,1.5-3.4,3.4-3.4h0c1.9,0,3.4,1.5,3.4,3.4h0Zm-5-.3c-.2.6,0,1.3.6,1.7s1.4.4,2,0c.5-.4.8-1,.7-1.7-.1-.9-.9-1.5-1.8-1.4h-.2c-.5-.2-1.1,0-1.3.6v.7h0v.1Z"/><path class="cls-27" d="m313.12,192.75c-1.9,0-3.4-1.6-3.4-3.5s1.6-3.4,3.5-3.4,3.4,1.6,3.4,3.4c0,1.9-1.6,3.4-3.5,3.4v.1Zm-1.6-3.7c-.3.4,0,.8.2,1.2.4.6,1.1,1,1.8.8.7-.1,1.2-.7,1.3-1.3.2-.8-.2-1.5-.9-1.9-.4-.2-.8-.3-1.3-.2-.9,0-1.4.6-1.2,1.4h.1Z"/><path class="cls-12" d="m315.72,197.95v1.7c0,.5-.3.9-.8.9h-3.4c-.5,0-.9-.3-.9-.8v-3.5c0-.4.3-.9.7-.9h3.5c.5,0,.9.3.9.8v.2c0,.5,0,1.1,0,1.6Zm-3-.4h1.6c.3,0,.5-.1.5-.5s-.3-.3-.5-.3h-1.3c0-.3-.3-.4-.5-.5-.4,0-.8.3-1,.7-.2.2-.1.6.1.8.4.3.7.1,1-.1h0l.1-.1Zm.4,1.7h1.3c.2,0,.4-.2.4-.4h0c0-.3-.2-.4-.4-.4h-2.5c-.2,0-.4.1-.4.3h0c0,.2.2.4.4.4h1.3l-.1.1Z"/><path class="cls-41" d="m304.22,196.25c.6-.2,1.3,0,1.7.6.6.8.4,1.9-.4,2.4-.4.3-1,.4-1.5.2-.7-.3-1.2-.9-1.2-1.7v-.4c.2.3.5.4.9.3,0,.8.5,1.2,1.1,1,.4-.2.7-.6.5-1.1-.1-.4-.6-.7-1-.6,0-.3,0-.6-.1-.8v.1Z"/><path class="cls-32" d="m304.22,196.25c.2.2.2.5.1.8-.1.3-.4.5-.6.7-.3,0-.7,0-.9-.3,0-.9.3-1.2,1.4-1.2Z"/><path class="cls-41" d="m304.32,187.75c.9-.2,1.7.3,2,1.2v.2c.1.6-.2,1.3-.7,1.7-.6.4-1.4.4-2,0-.5-.4-.8-1.1-.6-1.7.2.2.5.2.8.1,0,.8.5,1.2,1.1,1,.4-.1.6-.5.6-.9,0-.5-.4-.7-1.1-.7.1-.3,0-.6-.1-.8v-.1Z"/><path class="cls-32" d="m303.82,189.15c-.3.1-.6,0-.8-.1-.2-.5,0-1.1.6-1.3h.7c.2.2.2.5.1.8-.2.2-.4.5-.6.6Z"/><path class="cls-41" d="m312.72,187.65c.4,0,.9,0,1.3.2.7.4,1,1.1.9,1.9-.2.6-.7,1.1-1.3,1.3-.7.1-1.4-.2-1.8-.8-.2-.4-.4-.7-.2-1.2.2.1.5.2.8.2,0,.4.1.8.6.9.4.1.9,0,1-.4.3-.6-.1-1.1-1-1.2,0-.3,0-.7-.3-.9Z"/><path class="cls-32" d="m312.72,187.65c.3.2.4.6.3.9-.2.3-.4.5-.7.7-.3,0-.5,0-.8-.2-.3-.8.3-1.4,1.2-1.4Z"/><path class="cls-29" d="m313.12,199.15h-1.3c-.2,0-.4-.1-.4-.3h0c0-.2.1-.4.3-.4h2.5c.2,0,.4,0,.4.4,0,.2-.1.4-.4.4h-1.3l.2-.1Z"/><path class="cls-14" d="m312.72,197.45h0c-.3.2-.6.4-1,.1-.2-.2-.3-.5-.1-.8.2-.4.5-.7,1-.7.3,0,.5.2.5.5s0,.6-.3.8l-.1.1Z"/><path class="cls-29" d="m312.72,197.45c.2-.2.3-.5.3-.8h1.3c.2,0,.5,0,.5.3s-.2.5-.5.5h-1.6Z"/><path class="cls-27" d="m303.72,197.75c.2-.2.5-.4.6-.7.4-.1.9.1,1,.6.2.4,0,.9-.5,1.1-.6.2-1.1-.2-1.1-1Z"/><path class="cls-27" d="m303.82,189.15l.6-.6c.6,0,1,.2,1.1.7,0,.4-.2.8-.6.9-.6.2-1.1-.3-1.1-1Z"/><path class="cls-27" d="m312.32,189.15c.3-.2.5-.4.7-.7.8,0,1.2.5,1,1.2-.2.4-.6.6-1,.4-.5,0-.6-.5-.6-.9h-.1Z"/></svg>