<?xml version="1.0" encoding="UTF-8"?><svg id="Layer_1" xmlns="http://www.w3.org/2000/svg" viewBox="0 0 400 400"><defs><style>.cls-1{fill:#375e7d;}.cls-2{fill:#a7cefe;}.cls-3{stroke:#a5262d;}.cls-3,.cls-4,.cls-5{stroke-width:4px;}.cls-3,.cls-4,.cls-5,.cls-6{fill:none;stroke-miterlimit:10;}.cls-4{stroke:#000;}.cls-7{fill:#fff;}.cls-8{fill:#2b4d66;}.cls-9{fill:#546e7a;}.cls-5{stroke:#c000e2;}.cls-10{fill:#2b4e68;}.cls-11{fill:#d0cde6;}.cls-12{fill:#2b506b;}.cls-13{fill:#717f8f;}.cls-14{fill:#e5e4ec;}.cls-15{fill:#ffed58;}.cls-6{stroke:#231f20;stroke-width:2px;}.cls-16{fill:#36464e;}.cls-17{fill:#22a5fc;}.cls-18{fill:#395f7e;}.cls-19{fill:#728090;}.cls-20{fill:#788f9b;}.cls-21{fill:#0693fb;}.cls-22{fill:#b6d6fd;}.cls-23{fill:#f8f6f7;}.cls-24{fill:#d0cde7;}.cls-25{fill:#3f4a5b;}.cls-26{fill:#fbd734;}.cls-27{fill:#dcd9ea;}.cls-28{fill:#231f20;}.cls-29{fill:#2c4d66;}</style></defs><line class="cls-7" x1="201.28" y1="142.86" x2="201.78" y2="110.08"/><line class="cls-6" x1="201.28" y1="142.86" x2="201.61" y2="120.85"/><polygon class="cls-28" points="209.06 123.15 201.78 110.08 194.1 122.92 209.06 123.15"/><line class="cls-7" x1="168.32" y1="147.12" x2="119.68" y2="107.82"/><line class="cls-6" x1="168.32" y1="147.12" x2="128.05" y2="114.58"/><polygon class="cls-28" points="134.45 110.14 119.68 107.82 125.05 121.78 134.45 110.14"/><line class="cls-7" x1="233.68" y1="147.12" x2="282.32" y2="107.82"/><line class="cls-6" x1="233.68" y1="147.12" x2="273.95" y2="114.58"/><polygon class="cls-28" points="276.95 121.78 282.32 107.82 267.55 110.14 276.95 121.78"/><line class="cls-7" x1="201.28" y1="257.08" x2="201.78" y2="289.86"/><line class="cls-6" x1="201.28" y1="257.08" x2="201.61" y2="279.1"/><polygon class="cls-28" points="194.1 277.02 201.78 289.86 209.06 276.8 194.1 277.02"/><line class="cls-7" x1="168.32" y1="252.82" x2="119.68" y2="292.12"/><line class="cls-6" x1="168.32" y1="252.82" x2="128.05" y2="285.36"/><polygon class="cls-28" points="125.05 278.17 119.68 292.12 134.45 289.8 125.05 278.17"/><line class="cls-7" x1="233.68" y1="252.82" x2="282.32" y2="292.12"/><line class="cls-6" x1="233.68" y1="252.82" x2="273.95" y2="285.36"/><polygon class="cls-28" points="267.55 289.8 282.32 292.13 276.95 278.17 267.55 289.8"/><circle class="cls-3" cx="201" cy="199.97" r="45"/><path class="cls-29" d="m227,220.27c-.2.9-.7,1.8-1.2,2.6-1.1,1.5-2.8,2.4-4.7,2.4h-5.4c-.9,0-1-.2-1-1.1v-1.7c1.9,0,3.8.1,5.8-.1,1,0,1.9-.5,2.6-1.3.8-1.3,1.3-2.8,1.2-4.3h2.8v3.5h-.1Z"/><path class="cls-11" d="m227,216.77h-2.7v-15.3h2.7v15.4-.1Z"/><path class="cls-29" d="m227,201.37h-2.7v-2.7c0-1.8-1-3.5-2.4-4.5-.8-.5-1.6-.9-2.5-1.2,1.8-.1,3.6,0,5.1,1.1,1.3.9,2.1,2.3,2.4,3.8l.1.1v3.4Z"/><path class="cls-14" d="m177.1,211.57h-4.7c-1.1.1-2.2-.4-2.8-1.4,0,0-.1-.1-.2-.1v-1.6h.1c.5.8,1.4,1.2,2.4,1.1h5.1c.2.3.1.6,0,.9s-.2.5,0,.8v.3h.1Z"/><path class="cls-17" d="m189.5,194.57c.7-.1,1.3,0,2,0h19.6v23.6c0,.7-.3,1.3-.9,1.6,0-.9-.3-1.2-1.2-1.2h-14.2c-.8,0-1.1.4-1,1.2h-4.4v-25.1l.1-.1Zm12.6,13.7h-6.9c-.9,0-1.4.3-1.3.9s.5.9,1.3.9h14.4c.4,0,.7-.5.7-.9h0c0-.4-.3-.7-.7-.8h-7.4l-.1-.1Zm0-8.5h7.1c.7,0,1-.3,1-.8s-.3-.9-1.1-.9h-14.2c-.3,0-.7,0-.9.3-.2.2-.3.6-.1.9.2.4.5.6.9.5h7.3Zm0,5.1h7.2c.4,0,.7-.1.9-.4.2-.3.1-.6,0-.9-.2-.3-.6-.3-1-.3h-14.6c-.4.1-.7.6-.6,1h0c.1.4.5.7,1,.7h7.1v-.1Zm0,10.2h7.1c.2,0,.5,0,.7-.1.3-.2.5-.6.4-1s-.5-.7-.9-.6h-14.4c-.4,0-.8.1-1,.5-.3.7.2,1.2.9,1.2h7.2Z"/><path class="cls-1" d="m219.3,192.97c.9.3,1.8.7,2.5,1.2,1.4,1.1,2.3,2.7,2.4,4.5v2.7h-1.9c-.7,0-1.2.6-1.1,1.3h0v12.8c0,.7.4,1.3,1.1,1.3h1.8c0,1.5-.3,3-1.2,4.3-.6.8-1.6,1.2-2.6,1.3-1.9.3-3.8,0-5.8.1v-28.1c0-1.7.3-1.5,1.6-1.5h3.1l.1.1Z"/><path class="cls-21" d="m214.6,194.37v29.4h-20.4c-.2-.1-.4,0-.6,0h-3.5c-.2,0-.4,0-.5-.2v-3.8h4.3c.2.4.7.7,1.1.6h14.1c.5,0,.9-.2,1.2-.6.6-.3,1-.9.9-1.6v-23.6c1.1-.1,2.3,0,3.5,0l-.1-.2Z"/><path class="cls-1" d="m189.5,194.57v25.2h-1.2c-2.2-.4-4.1-1.7-5.3-3.5-.6-1-1-2.1-1.2-3.2v-9.8c-.1-.9,0-1.9.3-2.8.8-3.5,4.2-6.1,7.5-5.8l-.1-.1Z"/><path class="cls-18" d="m191.5,186.87h-.8c-.6,0-1.1-.3-1.1-.9v-2.4c0-1,.3-1.3,1.3-1.3h11c.5.5.7,1.2.5,1.9v.9c.1.7,0,1.3-.6,1.8h-10.3Z"/><path class="cls-24" d="m191.5,186.87h12.1v7.6h-2.9v-3c0-.2,0-.4-.2-.5v-.4c.4-.7.2-1-.6-1h-8.4v-2.7Z"/><path class="cls-27" d="m200.5,190.87c.2.1.2.3.2.5v3h-9.2v-5h8.5c.8,0,.9.3.6,1-.3-.7-.7-.8-1.2-.6-.4.2-.6.7-.4,1.1.1.2.3.4.6.5.5.1.9-.1,1.1-.6l-.2.1Zm-5.1-1.1c-.5,0-.8.4-.9.8,0,.5.4.9.9.9s.9-.4.9-.9-.4-.9-.9-.9h0v.1Z"/><path class="cls-27" d="m181.7,203.17v9.2h-2.2c-.7,0-1.4-.3-1.9-.9,0-.1-.1-.3-.3-.3-.2-.3,0-.5,0-.8s.1-.6,0-.9v-4.7c0-.9.9-1.7,1.9-1.7h2.6l-.1.1Z"/><path class="cls-23" d="m177.1,206.67v2.9h-5.1c-1,.1-1.9-.4-2.4-1.2.4-1.1,1.5-1.8,2.7-1.7h4.8Z"/><path class="cls-29" d="m203.6,186.87h-1.8c.5-.5.7-1.2.6-1.8v-.9c.1-.7,0-1.4-.6-1.9h2.7c.6,0,1.1.4,1.1,1v2.4c0,.9-.4,1.3-1.3,1.3h-.7v-.1Z"/><path class="cls-27" d="m209.1,230.67h1.5c.6.6.8,1.5.7,2.3v.9c0,.4-.2.8-.5,1.1,0,0-.3.1-.3.3-8.5-.2-17,0-25.5,0s-1.7-.6-1.6-1.6v-1.7c0-.7.5-1.3,1.2-1.3h24.5Z"/><path class="cls-29" d="m181.7,212.97c.2,1.1.6,2.2,1.2,3.2,1.2,1.8,3.1,3.1,5.3,3.5h1.2v4.1c-3.7,0-6.8-2.6-7.7-6.1-.1-.9-.2-1.7-.2-2.6v-2.1h.2Z"/><path class="cls-10" d="m189.5,223.77v-.3c.1.3.4.2.6.2h4.1v6.9h-2.1v-4.1c0-.6-.1-.8-.8-.8h-1.7v-2l-.1.1Z"/><path class="cls-8" d="m209.1,230.67h-2v-4.3c0-.4-.2-.7-.7-.7h-1.9v-2c.7,0,1.5-.1,2.3,0h2.3c0,2.4,0,4.7,0,7Z"/><path class="cls-11" d="m210.5,235.37c0-.2.2-.2.3-.3.3-.3.5-.7.5-1.1v-.9c.2-.8,0-1.7-.7-2.3h3.2c.8,0,1.4.5,1.5,1.3v1.8c.1.8-.4,1.5-1.2,1.7h-3.6v-.2Z"/><path class="cls-11" d="m181.7,212.97v2.1h-2.5c-1.1,0-2.1-.8-2.2-1.9v-1.5c.1,0,0-.2.1-.3.2,0,.2.2.3.3.4.6,1.2.9,1.9.9h2.2v.5l.2-.1Z"/><path class="cls-1" d="m189.6,225.67h1.7c.6,0,.8.2.8.8-.1,1.4-.1,2.8,0,4.2h-2.4v-5h-.1Z"/><path class="cls-27" d="m224.2,216.77h-1.6c-.7,0-1.3-.4-1.3-1.1v-13c0-.7.4-1.3,1.1-1.3h1.9v15.3h0l-.1.1Z"/><path class="cls-12" d="m210.3,219.67c-.2.4-.7.6-1.1.6h-14.1c-.5,0-.9-.2-1.1-.6,0-.8.2-1.2,1-1.2h14.1c.9,0,1.2.3,1.2,1.2Z"/><path class="cls-12" d="m202.1,208.17h7.4c.4,0,.7.4.8.8,0,.4-.2.8-.7.9h-14.4c-.8,0-1.3-.3-1.3-.9s.4-.9,1.3-.9h6.9v.1Z"/><path class="cls-8" d="m202.1,199.67h-7.2c-.4,0-.8-.2-.9-.5-.1-.3,0-.6.1-.9.2-.3.6-.4.9-.3h14.2c.7,0,1.1.3,1.1.9s-.3.8-1,.8h-7.2Z"/><path class="cls-8" d="m202.1,204.87h-7.1c-.4,0-.9-.2-1-.7-.1-.4.1-.9.6-1h14.6c.4,0,.7,0,1,.3.2.3.2.6,0,.9-.2.3-.5.5-.9.5,0,0-7.2,0-7.2,0Z"/><path class="cls-8" d="m202.1,215.07h-7.2c-.8,0-1.2-.6-.9-1.2.2-.4.6-.6,1-.5h14.4c.4,0,.9.2,1,.6s0,.8-.4,1c-.2.1-.5.1-.7.1h-7.2Z"/><path class="cls-12" d="m200.5,190.87c-.1.5-.6.7-1.1.6-.5-.1-.7-.6-.6-1,0-.3.2-.5.5-.6.5-.2.9,0,1.2.6v.4Z"/><path class="cls-12" d="m195.4,189.77c.5,0,.9.4.9.9s-.4.9-.9.9h0c-.5,0-.9-.4-.9-.9s.4-.8.9-.8v-.1Z"/><path class="cls-18" d="m204.6,230.67v-4.9h1.9c.5,0,.7.2.7.7v4.3h-2.6v-.1Z"/><path d="m160.6,198.17l.4-2.4,7.5-1-6.8-3.3.4-2.4,9.2,4.8-.5,2.8-10.2,1.6v-.1Z"/><path d="m163.7,187.87c-.6-.2-1-1-.7-1.6.2-.6,1-1,1.6-.7.6.2,1,1,.7,1.6-.2.6-1,1-1.6.7Zm1.8.5l.7-2,6.6,2.4-.7,2-6.6-2.4Z"/><path d="m174,179.37c1.8,1.1,2.4,3.2,1.4,4.8-.5.8-1.1,1.2-1.8,1.3l.6.3-1.1,1.8-8.4-5.1,1.1-1.8,3,1.8c-.2-.7-.1-1.4.3-2.2.9-1.6,3.1-2,4.9-1v.1Zm-1.1,1.8c-.9-.5-1.8-.3-2.3.5-.5.8-.3,1.8.6,2.3s1.8.3,2.3-.5.3-1.8-.6-2.3Z"/><path d="m175.3,172.87l1.7,1.6c-.7.5-1.3,1.7-.3,2.6l2.3,2.2-1.4,1.5-5.1-4.8,1.4-1.5.9.9c-.5-.8-.2-1.8.4-2.5h.1Z"/><path d="m182.5,167.57l4,5.7-1.7,1.2-.4-.5c0,.7-.4,1.4-1.2,1.9-1.5,1.1-3.7.6-4.9-1.1-1.2-1.7-.9-3.9.6-4.9.8-.5,1.5-.7,2.2-.5l-.4-.5,1.7-1.2.1-.1Zm.3,4.1c-.6-.9-1.6-1-2.3-.4-.8.6-1,1.5-.4,2.4s1.6,1,2.3.4c.8-.6,1-1.5.4-2.4Z"/><path d="m188,167.37l1,2.3c.2.6.7.4,1.6,0l.7,1.8c-2.4,1.3-3.5.9-4.2-.9l-1-2.3-1,.4-.8-1.9,1-.4-.5-1.2,1.7-1.4.8,1.8,1.3-.6.8,1.9-1.3.6-.1-.1Z"/><path d="m189.6,162.67c-.2-.7.2-1.4.9-1.5.7-.2,1.4.2,1.5.9.2.7-.2,1.4-.9,1.5-.7.2-1.4-.2-1.5-.9Zm.7,1.8l2-.5,1.8,6.8-2,.5-1.8-6.8Z"/><path d="m194.6,166.77c-.2-2.1,1.4-3.8,3.4-4,2.1-.2,3.8,1.3,4,3.4.2,2.1-1.4,3.8-3.4,4-2.1.2-3.8-1.3-4-3.4Zm5.3-.4c0-1-.8-1.6-1.7-1.5-.9,0-1.6.8-1.5,1.8,0,1,.8,1.6,1.7,1.5.9,0,1.6-.8,1.5-1.8Z"/><path d="m210.3,166.67l-.7,4.2-2.1-.4.7-3.9c.1-.9-.3-1.3-1-1.5-.8-.1-1.4.2-1.5,1.2l-.6,3.8-2.1-.4,1.2-6.9,2.1.4v.6c.3-.4,1.1-.7,2-.5,1.4.2,2.4,1.4,2.1,3.3l-.1.1Z"/><path d="m212.5,166.47l4.9,2.1-.8,1.9-4.9-2.1.8-1.9Z"/><path d="m227.2,176.97l-2.7,3.3-1.6-1.3,2.6-3.2c.4-.5.5-1.1,0-1.5s-1.2-.3-1.7.3l-2.5,3-1.6-1.3,2.6-3.2c.4-.5.5-1.1,0-1.5s-1.2-.3-1.7.3l-2.5,3-1.6-1.3,4.5-5.4,1.6,1.3-.4.5c.6-.2,1.3,0,2,.6.6.5.9,1.2.8,1.9.7-.2,1.4,0,2.2.6,1.2,1,1.3,2.6.2,3.9h-.2Z"/><path d="m227.5,178.87c1.8-1.1,4-.6,5.1,1.1s.6,4-1.1,5.1c-1.8,1.1-4,.6-5.1-1.1-1.1-1.7-.6-4,1.1-5.1Zm2.9,4.5c.8-.5,1-1.5.5-2.2-.5-.8-1.4-1-2.3-.5-.8.5-1,1.5-.5,2.2.5.8,1.4,1,2.3.5Z"/><path d="m234.2,188.27l-2.3.9c-.6.2-.4.7,0,1.6l-1.8.7c-1.2-2.5-.8-3.5,1.1-4.2l2.3-.9-.4-1,1.9-.7.4,1,1.2-.5,1.3,1.7-1.8.7.5,1.3-1.9.7s-.5-1.3-.5-1.3Z"/><path d="m233.8,191.07c2.1-.3,3.9,1,4.2,3.1.3,2-1,3.9-3,4.3-2.1.3-3.9-1-4.2-3.1-.3-2,1-3.9,3-4.3Zm.9,5.2c1-.2,1.5-1,1.4-1.9s-.9-1.5-1.9-1.3-1.5,1-1.4,1.9.9,1.5,1.9,1.3Z"/><path d="m238.3,204.17h-2.4c.2-1-.1-2.2-1.5-2.3h-3.2v-2.2l7,.3v2.1h-1.3c.9.3,1.3,1.3,1.3,2.2l.1-.1Z"/><circle class="cls-5" cx="88.63" cy="56.21" r="45"/><path d="m55.33,41.01c1.9.7,2.8,2.8,2,4.7l-.6,1.5,3.1,1.2-.9,2.2-9.8-3.8,1.4-3.7c.7-1.9,2.8-2.9,4.7-2.1h.1Zm-.9,2.2c-.7-.3-1.5,0-1.7.7l-.6,1.5,2.5,1,.6-1.5c.3-.7,0-1.4-.8-1.7Z"/><path d="m62.63,34.51l3.7,2.7-1.3,1.8-3.4-2.5c-.7-.6-1.4-.3-1.9.2-.5.7-.4,1.4.4,2l3.3,2.4-1.3,1.8-8.5-6.2,1.3-1.8,3,2.2c-.2-.7,0-1.5.5-2.3.9-1.2,2.5-1.6,4.2-.4v.1Z"/><path d="m64.33,33.91c-1.4-1.8-1.1-4.2.7-5.6,1.7-1.4,4.2-1.1,5.6.6,1.4,1.8,1.1,4.2-.7,5.6-1.7,1.4-4.2,1.1-5.6-.6Zm4.5-3.5c-.7-.8-1.7-.9-2.5-.3s-.9,1.6-.3,2.5c.7.8,1.7.9,2.5.3s.9-1.6.3-2.5Z"/><path d="m78.33,24.61l1.8,4.2-2.1.9-1.7-3.9c-.4-.9-1.1-1-1.7-.7-.8.3-1.1,1-.7,2l1.6,3.8-2.1.9-2.9-6.9,2.1-.9.3.6c.2-.7.7-1.3,1.6-1.7,1.4-.6,3-.1,3.8,1.8v-.1Z"/><path d="m84.53,26.31c.6,0,1.1-.4,1.3-.8l1.9.8c-.6,1.1-1.6,1.8-3,2-2.5.4-4.4-1.1-4.7-3.4-.3-2.2,1.1-4.1,3.4-4.5,2.2-.3,4,1.2,4.3,3.4v.9l-5.3.7c.4.7,1.1.9,1.9.8l.2.1Zm1-2.9c-.4-.8-1.1-1-1.7-1-.8.1-1.4.6-1.5,1.4l3.2-.4Z"/><path d="m89.73,22.21l5.7.6-.2,2.1-5.7-.6.2-2.1Z"/><path d="m104.73,27.81c-.8,2.1-2.9,3.1-4.8,2.4-.9-.4-1.5-.9-1.8-1.6l-.3.7-2.1-.8,3.7-9.8,2.1.8-1.3,3.5c.7-.4,1.5-.4,2.4,0,1.8.7,2.7,2.9,1.9,5l.2-.2Zm-2.1-.8c.4-1.1,0-2-1-2.3-1-.4-1.9,0-2.3,1.1-.4,1.1,0,2,1,2.3,1,.4,1.9,0,2.3-1.1Z"/><path d="m105.83,28.51c1.3-1.8,3.8-2.1,5.6-.8,1.8,1.3,2.2,3.8.8,5.5-1.3,1.8-3.8,2.1-5.6.8-1.8-1.3-2.2-3.8-.8-5.5Zm4.6,3.4c.6-.9.5-1.9-.3-2.5s-1.8-.5-2.4.4-.5,1.9.3,2.5,1.8.5,2.4-.4Z"/><path d="m123.33,36.41l-8.3,6.4-1.4-1.8.6-.4c-.8,0-1.5-.4-2.1-1.2-1.2-1.6-.8-3.9,1-5.3s4.1-1.1,5.3.4c.6.8.8,1.6.6,2.3l2.9-2.3,1.4,1.8v.1Zm-6.7,2.3c.9-.7,1-1.7.4-2.5s-1.6-1-2.5-.3-1,1.7-.4,2.5,1.6,1,2.5.3Z"/><path d="m125.13,47.41l-7.7.4c-2.5.1-3.9-.7-4.6-2.7l1.9-.8c.4,1,.9,1.3,1.9,1.3l5.5-5.5.9,2.3-3.6,3.3,4.8-.5.9,2.2h0Z"/><path d="m129.13,52.81l-10.3,1.9-.4-2.4,7.8-1.4-.8-1.7,1.9-.9,1.5,2.5.4,2.1-.1-.1Z"/><path class="cls-25" d="m78.03,89.51c0-.2-.2-.1-.4-.2-2-.5-3.4-2.3-3.4-4.4v-38.8c0-2.7,1.1-4.2,3.6-5,0,0,.1,0,.1-.1h3.4v.1c.5,1.3,1.1,2.6,1.6,3.9.1.3.4.4.7.4h9.7c.4,0,.7-.2.8-.5.2-.5.4-1,.6-1.5.3-.8.7-1.5.9-2.4h3.3c.2.2.5.2.8.3,1.8.6,3,2.3,3.1,4.2v38.8c0,2.8-1.1,4.3-3.8,5.2h-21.1.1Zm23.7-7.3h0v-33.8c0-.4-.3-.2-.5-.2h-25.5c-.4,0-.5.1-.5.5v33.4h26.3l.2.1Zm-13.1,3.1h-4.4c-.5,0-.7.2-.6.7,0,.4.4.5.7.5h8.6c.5,0,.7-.2.7-.6,0-.5-.3-.5-.7-.5h-4.3v-.1Z"/><path class="cls-19" d="m95.83,41.01c-.2.8-.6,1.6-.9,2.4-.2.5-.4,1-.6,1.5-.1.3-.4.6-.8.5h-9.7c-.3,0-.6-.1-.7-.4-.5-1.3-1.1-2.6-1.6-3.9v-.1h14.4-.1Z"/><path class="cls-2" d="m75.53,82.21c-.2-.1,0-.3,0-.4v-33c0-.4,0-.5.5-.5h25.5c.2,0,.4-.2.5.2-.2,0-.3.2-.5.4-.4.5-.7,1-1.1,1.4-1.4,1.8-2.9,3.7-4.3,5.5-1.1,1.5-2.3,2.9-3.4,4.4-1.4,1.8-2.9,3.7-4.3,5.5-1.1,1.5-2.3,2.9-3.4,4.4-1.5,2-3.1,3.9-4.6,5.9-1.1,1.4-2.2,2.8-3.2,4.2-.5.7-1.1,1.3-1.5,2h-.2Z"/><path class="cls-22" d="m75.53,82.21c.4-.7,1-1.3,1.5-2,1.1-1.4,2.2-2.8,3.2-4.2,1.5-2,3.1-3.9,4.6-5.9,1.1-1.5,2.3-2.9,3.4-4.4,1.4-1.8,2.9-3.7,4.3-5.5,1.1-1.5,2.3-2.9,3.4-4.4,1.4-1.8,2.9-3.7,4.3-5.5.4-.5.7-.9,1.1-1.4.1-.2.2-.3.5-.4v33.7h-26.3Z"/><path class="cls-13" d="m88.63,85.31h4.3c.4,0,.7,0,.7.5,0,.4-.2.6-.7.6h-8.6c-.3,0-.6,0-.7-.5,0-.4.1-.7.6-.7h4.4v.1Z"/><path d="m86.93,51.91h5.7v25.9h-6.6v-18.9l-4.5,1.1-1.6-5.6,7-2.5Z"/><path class="cls-26" d="m218.82,51.08c.58,0,1.17.02,1.75.03.99.01,1.81.81,1.82,1.81.01.91,0,1.83,0,2.74,0,7.74,0,15.47,0,23.21,0,.5-.02,1.02-.17,1.5-.18.58-.89,1.09-1.49,1.09-6.55,0-13.1,0-19.66,0-.03,0-.06,0-.09-.01,0-1.78,0-3.56,0-5.34,1.36,0,2.73,0,4.09-.01.17,0,.37.04.38-.24.01-.67.06-1.36-.1-2.01-.42-1.74-.93-3.47-1.37-5.2-.12-.47-.25-.93-.42-1.39-.26-.71.23-1.08.65-1.48.7-.65,1-1.46,1.17-2.39.35-1.95-1.29-4.29-3.15-4.89-.06-.1-.14-.15-.26-.1-.1-.02-.19-.04-.29-.06-.04-.06-.1-.08-.16-.04-.18-.03-.36-.05-.54-.08,0-2.37,0-4.73,0-7.1,3.36,0,6.72-.01,10.08-.02.21,0,.42-.02.63-.03,1.2.04,2.4.05,3.6,0,1.18.07,2.35.05,3.53,0Z"/><path class="cls-15" d="m200.98,76.12c0,1.78,0,3.56,0,5.34-.67,0-1.35.01-2.02.01-5.71,0-11.43-.03-17.14.02-1.5.01-2.28-.81-2.28-2.28.05-8.74.04-17.49,0-26.23,0-1.05.84-1.88,1.84-1.87.58.01,1.17-.01,1.75-.02,1.18.03,2.35.06,3.53-.01,1.2.07,2.4.04,3.6.02.19,0,.39.02.58.02,3.37,0,6.75.01,10.12.01,0,2.37,0,4.73,0,7.1-.38.18-.8.09-1.2.24-1.67.65-2.77,1.78-3.17,3.55-.07.04-.13.08-.04.16-.13,1.47.02,2.81,1.34,3.79.41.31.58.77.41,1.34-.1.35-.24.69-.32,1.05-.23.98-.49,1.96-.75,2.93-.19.72-.41,1.43-.59,2.16-.17.71-.13,1.45-.16,2.18-.01.37.09.49.47.48,1.33-.02,2.67,0,4,0Z"/><path class="cls-20" d="m186.67,51.07c-1.18.07-2.35.04-3.53.02,0-3.18-.03-6.36.02-9.54.02-1.47.22-2.93.65-4.36.52-1.72,1.24-3.33,2.23-4.82,1.23-1.86,2.76-3.45,4.59-4.76,1.2-.85,2.46-1.62,3.84-2.1,1.37-.48,2.76-.95,4.24-1.05.83-.06,1.66-.18,2.49-.17,2.08.04,4.08.45,6.03,1.18,1.95.73,3.69,1.79,5.29,3.12,1.37,1.15,2.5,2.5,3.46,4,.68,1.06,1.22,2.19,1.67,3.37.25.65.42,1.32.65,1.98.2.59.24,1.25.31,1.88.41,3.75.1,7.51.2,11.26-1.18.04-2.36.06-3.53,0,0-2.68-.02-5.37.01-8.05.02-1.55-.17-3.06-.55-4.55-.53-2.09-1.5-3.98-2.92-5.6-1.73-1.98-3.83-3.47-6.37-4.27-1.8-.57-3.63-.75-5.52-.64-1.75.1-3.4.52-4.96,1.25-2.6,1.21-4.65,3.07-6.17,5.51-1.31,2.1-2.02,4.42-2.11,6.86-.12,3.16-.03,6.33-.02,9.49Z"/><path class="cls-9" d="m211.68,51.08c0-2.85.02-5.7,0-8.55-.02-1.51-.23-3.01-.83-4.42-.48-1.12-1.12-2.13-1.92-3.06-1.19-1.38-2.67-2.34-4.35-2.95-1.55-.56-3.18-.75-4.85-.54-1.02.13-2.01.36-2.93.76-2.56,1.11-4.45,2.95-5.61,5.51-.55,1.2-.76,2.45-.83,3.76-.15,3.16-.02,6.32-.07,9.48-1.2.02-2.4.05-3.6-.02,0-3.17-.09-6.33.02-9.49.09-2.44.8-4.76,2.11-6.86,1.52-2.44,3.56-4.3,6.17-5.51,1.57-.73,3.21-1.14,4.96-1.25,1.89-.11,3.72.07,5.52.64,2.54.81,4.63,2.29,6.37,4.27,1.42,1.62,2.39,3.5,2.92,5.6.38,1.49.57,3,.55,4.55-.03,2.68-.01,5.37-.01,8.05-1.2.06-2.4.05-3.6,0Z"/><path class="cls-16" d="m200.98,76.12c-1.33,0-2.67-.02-4,0-.38,0-.48-.11-.47-.48.03-.73-.02-1.46.16-2.18.17-.72.4-1.44.59-2.16.26-.98.52-1.95.75-2.93.08-.36.22-.7.32-1.05.17-.57,0-1.04-.41-1.34-1.32-.97-1.47-2.32-1.34-3.79.07-.04.07-.1.04-.16.4-1.77,1.5-2.9,3.17-3.55.4-.15.82-.06,1.2-.24.18.03.36.05.54.08.03.1.08.15.16.04.1.02.19.04.29.06.05.13.16.1.26.1,1.86.6,3.5,2.94,3.15,4.89-.17.93-.46,1.74-1.17,2.39-.43.39-.92.76-.65,1.48.17.45.3.92.42,1.39.45,1.74.95,3.46,1.37,5.2.16.65.11,1.34.1,2.01,0,.29-.2.24-.38.24-1.36,0-2.73,0-4.09.01Z"/><path class="cls-9" d="m202.23,58.5c-.1,0-.21.03-.26-.1.12-.06.2,0,.26.1Z"/><path class="cls-9" d="m201.68,58.35c-.08.11-.13.05-.16-.04.07-.04.12-.02.16.04Z"/><path class="cls-20" d="m196.61,62.02c.04.06.04.12-.04.16-.09-.08-.03-.12.04-.16Z"/><circle class="cls-4" cx="201.13" cy="55.6" r="45.87"/><path class="cls-26" d="m340.84,51.08c.58,0,1.17.02,1.75.03.99.01,1.81.81,1.82,1.81.01.91,0,1.83,0,2.74,0,7.74,0,15.47,0,23.21,0,.5-.02,1.02-.17,1.5-.18.58-.89,1.09-1.49,1.09-6.55,0-13.1,0-19.66,0-.03,0-.06,0-.09-.01,0-1.78,0-3.56,0-5.34,1.36,0,2.73,0,4.09-.01.17,0,.37.04.38-.24.01-.67.06-1.36-.1-2.01-.42-1.74-.93-3.47-1.37-5.2-.12-.47-.25-.93-.42-1.39-.26-.71.23-1.08.65-1.48.7-.65,1-1.46,1.17-2.39.35-1.95-1.29-4.29-3.15-4.89-.06-.1-.14-.15-.26-.1-.1-.02-.19-.04-.29-.06-.04-.06-.1-.08-.16-.04-.18-.03-.36-.05-.54-.08,0-2.37,0-4.73,0-7.1,3.36,0,6.72-.01,10.08-.02.21,0,.42-.02.63-.03,1.2.04,2.4.05,3.6,0,1.18.07,2.35.05,3.53,0Z"/><path class="cls-15" d="m323,76.12c0,1.78,0,3.56,0,5.34-.67,0-1.35.01-2.02.01-5.71,0-11.43-.03-17.14.02-1.5.01-2.28-.81-2.28-2.28.05-8.74.04-17.49,0-26.23,0-1.05.84-1.88,1.84-1.87.58.01,1.17-.01,1.75-.02,1.18.03,2.35.06,3.53-.01,1.2.07,2.4.04,3.6.02.19,0,.39.02.58.02,3.37,0,6.75.01,10.12.01,0,2.37,0,4.73,0,7.1-.38.18-.8.09-1.2.24-1.67.65-2.77,1.78-3.17,3.55-.07.04-.13.08-.04.16-.13,1.47.02,2.81,1.34,3.79.41.31.58.77.41,1.34-.1.35-.24.69-.32,1.05-.23.98-.49,1.96-.75,2.93-.19.72-.41,1.43-.59,2.16-.17.71-.13,1.45-.16,2.18-.01.37.09.49.47.48,1.33-.02,2.67,0,4,0Z"/><path class="cls-20" d="m308.7,51.07c-1.18.07-2.35.04-3.53.02,0-3.18-.03-6.36.02-9.54.02-1.47.22-2.93.65-4.36.52-1.72,1.24-3.33,2.23-4.82,1.23-1.86,2.76-3.45,4.59-4.76,1.2-.85,2.46-1.62,3.84-2.1,1.37-.48,2.76-.95,4.24-1.05.83-.06,1.66-.18,2.49-.17,2.08.04,4.08.45,6.03,1.18,1.95.73,3.69,1.79,5.29,3.12,1.37,1.15,2.5,2.5,3.46,4,.68,1.06,1.22,2.19,1.67,3.37.25.65.42,1.32.65,1.98.2.59.24,1.25.31,1.88.41,3.75.1,7.51.2,11.26-1.18.04-2.36.06-3.53,0,0-2.68-.02-5.37.01-8.05.02-1.55-.17-3.06-.55-4.55-.53-2.09-1.5-3.98-2.92-5.6-1.73-1.98-3.83-3.47-6.37-4.27-1.8-.57-3.63-.75-5.52-.64-1.75.1-3.4.52-4.96,1.25-2.6,1.21-4.65,3.07-6.17,5.51-1.31,2.1-2.02,4.42-2.11,6.86-.12,3.16-.03,6.33-.02,9.49Z"/><path class="cls-9" d="m333.7,51.08c0-2.85.02-5.7,0-8.55-.02-1.51-.23-3.01-.83-4.42-.48-1.12-1.12-2.13-1.92-3.06-1.19-1.38-2.67-2.34-4.35-2.95-1.55-.56-3.18-.75-4.85-.54-1.02.13-2.01.36-2.93.76-2.56,1.11-4.45,2.95-5.61,5.51-.55,1.2-.76,2.45-.83,3.76-.15,3.16-.02,6.32-.07,9.48-1.2.02-2.4.05-3.6-.02,0-3.17-.09-6.33.02-9.49.09-2.44.8-4.76,2.11-6.86,1.52-2.44,3.56-4.3,6.17-5.51,1.57-.73,3.21-1.14,4.96-1.25,1.89-.11,3.72.07,5.52.64,2.54.81,4.63,2.29,6.37,4.27,1.42,1.62,2.39,3.5,2.92,5.6.38,1.49.57,3,.55,4.55-.03,2.68-.01,5.37-.01,8.05-1.2.06-2.4.05-3.6,0Z"/><path class="cls-16" d="m323,76.12c-1.33,0-2.67-.02-4,0-.38,0-.48-.11-.47-.48.03-.73-.02-1.46.16-2.18.17-.72.4-1.44.59-2.16.26-.98.52-1.95.75-2.93.08-.36.22-.7.32-1.05.17-.57,0-1.04-.41-1.34-1.32-.97-1.47-2.32-1.34-3.79.07-.04.07-.1.04-.16.4-1.77,1.5-2.9,3.17-3.55.4-.15.82-.06,1.2-.24.18.03.36.05.54.08.03.1.08.15.16.04.1.02.19.04.29.06.05.13.16.1.26.1,1.86.6,3.5,2.94,3.15,4.89-.17.93-.46,1.74-1.17,2.39-.43.39-.92.76-.65,1.48.17.45.3.92.42,1.39.45,1.74.95,3.46,1.37,5.2.16.65.11,1.34.1,2.01,0,.29-.2.24-.38.24-1.36,0-2.73,0-4.09.01Z"/><path class="cls-9" d="m324.25,58.5c-.1,0-.21.03-.26-.1.12-.06.2,0,.26.1Z"/><path class="cls-9" d="m323.71,58.35c-.08.11-.13.05-.16-.04.07-.04.12-.02.16.04Z"/><path class="cls-20" d="m318.63,62.02c.04.06.04.12-.04.16-.09-.08-.03-.12.04-.16Z"/><circle class="cls-4" cx="323.15" cy="55.6" r="45.87"/><path class="cls-26" d="m339.66,340.04c.55,0,1.09.02,1.64.03.93,0,1.69.76,1.7,1.69.01.85,0,1.71,0,2.56,0,7.23,0,14.46,0,21.69,0,.47-.02.95-.16,1.4-.17.54-.83,1.02-1.39,1.02-6.12,0-12.25,0-18.37,0-.03,0-.06,0-.08-.01,0-1.66,0-3.33,0-4.99,1.28,0,2.55,0,3.83-.01.16,0,.35.04.35-.23.01-.63.06-1.27-.09-1.88-.4-1.63-.87-3.24-1.28-4.86-.11-.44-.24-.87-.39-1.3-.25-.67.21-1.01.61-1.38.66-.61.94-1.36,1.09-2.24.33-1.82-1.2-4.01-2.94-4.57-.06-.09-.13-.14-.24-.09-.09-.02-.18-.04-.27-.06-.04-.06-.09-.07-.15-.04-.17-.02-.34-.05-.51-.07,0-2.21,0-4.42,0-6.64,3.14,0,6.28-.01,9.42-.02.2,0,.39-.02.59-.02,1.12.03,2.25.05,3.37,0,1.1.06,2.2.05,3.3,0Z"/><path class="cls-15" d="m322.99,363.44c0,1.66,0,3.33,0,4.99-.63,0-1.26.01-1.89.01-5.34,0-10.68-.03-16.02.02-1.41.01-2.13-.75-2.13-2.13.05-8.17.03-16.34,0-24.52,0-.98.79-1.76,1.72-1.74.55.01,1.09-.01,1.64-.02,1.1.03,2.2.05,3.3-.01,1.12.06,2.24.04,3.36.01.18,0,.36.02.55.02,3.15,0,6.31,0,9.46.01,0,2.21,0,4.42,0,6.64-.35.17-.75.09-1.12.23-1.56.61-2.59,1.66-2.96,3.32-.07.04-.12.08-.03.15-.12,1.37.02,2.63,1.25,3.54.39.29.54.72.38,1.25-.1.33-.22.65-.3.99-.22.92-.46,1.83-.7,2.74-.18.67-.39,1.34-.55,2.02-.16.67-.12,1.35-.14,2.04-.01.34.08.46.44.45,1.25-.02,2.49,0,3.74,0Z"/><path class="cls-20" d="m309.62,340.04c-1.1.07-2.2.04-3.3.01,0-2.97-.02-5.94.02-8.91.02-1.38.21-2.74.61-4.07.48-1.61,1.16-3.11,2.08-4.5,1.15-1.74,2.58-3.23,4.29-4.44,1.12-.8,2.3-1.51,3.59-1.96,1.28-.45,2.58-.89,3.97-.99.78-.05,1.55-.17,2.33-.16,1.94.03,3.82.42,5.63,1.1,1.82.68,3.45,1.67,4.94,2.91,1.28,1.07,2.34,2.33,3.23,3.73.64.99,1.14,2.05,1.56,3.15.24.61.4,1.24.61,1.85.19.55.23,1.17.29,1.76.38,3.5.09,7.02.19,10.53-1.1.04-2.2.06-3.3,0,0-2.51-.02-5.02.01-7.53.02-1.44-.16-2.86-.52-4.25-.5-1.96-1.41-3.72-2.73-5.23-1.62-1.85-3.58-3.24-5.95-3.99-1.68-.53-3.39-.7-5.16-.6-1.64.1-3.18.48-4.64,1.16-2.43,1.13-4.34,2.87-5.76,5.15-1.22,1.97-1.89,4.13-1.97,6.42-.11,2.95-.02,5.92-.02,8.87Z"/><path class="cls-9" d="m332.99,340.05c0-2.66.02-5.33,0-7.99-.02-1.42-.21-2.82-.78-4.13-.45-1.04-1.05-1.99-1.8-2.86-1.11-1.29-2.5-2.19-4.07-2.76-1.45-.52-2.97-.7-4.53-.5-.95.12-1.88.34-2.74.71-2.39,1.04-4.15,2.76-5.24,5.15-.51,1.12-.71,2.29-.77,3.52-.14,2.95-.02,5.91-.07,8.86-1.12.02-2.24.05-3.36-.01,0-2.96-.09-5.92.02-8.87.08-2.28.75-4.45,1.97-6.42,1.42-2.28,3.33-4.02,5.76-5.15,1.46-.68,3-1.07,4.64-1.16,1.77-.1,3.48.06,5.16.6,2.37.75,4.33,2.14,5.95,3.99,1.32,1.51,2.23,3.27,2.73,5.23.35,1.39.54,2.8.52,4.25-.03,2.51-.01,5.02-.01,7.53-1.12.06-2.24.04-3.37,0Z"/><path class="cls-16" d="m322.99,363.44c-1.25,0-2.49-.02-3.74,0-.36,0-.45-.11-.44-.45.03-.68-.02-1.37.14-2.04.16-.68.37-1.34.55-2.02.24-.91.49-1.82.7-2.74.08-.34.2-.66.3-.99.16-.54,0-.97-.38-1.25-1.23-.91-1.37-2.17-1.25-3.54.07-.04.07-.09.03-.15.37-1.66,1.4-2.71,2.96-3.32.37-.14.77-.06,1.12-.23.17.02.34.05.51.07.03.09.08.14.15.04.09.02.18.04.27.06.05.12.15.09.24.09,1.74.56,3.27,2.74,2.94,4.57-.16.87-.43,1.63-1.09,2.24-.4.37-.86.71-.61,1.38.16.42.28.86.39,1.3.42,1.62.89,3.23,1.28,4.86.15.61.1,1.25.09,1.88,0,.27-.19.23-.35.23-1.28,0-2.55,0-3.83.01Z"/><path class="cls-9" d="m324.16,346.98c-.09,0-.19.03-.24-.09.11-.05.19,0,.24.09Z"/><path class="cls-9" d="m323.65,346.83c-.08.1-.12.05-.15-.04.06-.03.11-.02.15.04Z"/><path class="cls-20" d="m318.9,350.27c.04.06.04.11-.03.15-.09-.07-.03-.11.03-.15Z"/><circle class="cls-4" cx="323.13" cy="344.26" r="42.87"/><path class="cls-26" d="m105.67,340.04c.55,0,1.09.02,1.64.03.93,0,1.69.76,1.7,1.69.01.85,0,1.71,0,2.56,0,7.23,0,14.46,0,21.69,0,.47-.02.95-.16,1.4-.17.54-.83,1.02-1.39,1.02-6.12,0-12.25,0-18.37,0-.03,0-.06,0-.08-.01,0-1.66,0-3.33,0-4.99,1.28,0,2.55,0,3.83-.01.16,0,.35.04.35-.23.01-.63.06-1.27-.09-1.88-.4-1.63-.87-3.24-1.28-4.86-.11-.44-.24-.87-.39-1.3-.25-.67.21-1.01.61-1.38.66-.61.94-1.36,1.09-2.24.33-1.82-1.2-4.01-2.94-4.57-.06-.09-.13-.14-.24-.09-.09-.02-.18-.04-.27-.06-.04-.06-.09-.07-.15-.04-.17-.02-.34-.05-.51-.07,0-2.21,0-4.42,0-6.64,3.14,0,6.28-.01,9.42-.02.2,0,.39-.02.59-.02,1.12.03,2.25.05,3.37,0,1.1.06,2.2.05,3.3,0Z"/><path class="cls-15" d="m89,363.44c0,1.66,0,3.33,0,4.99-.63,0-1.26.01-1.89.01-5.34,0-10.68-.03-16.02.02-1.41.01-2.13-.75-2.13-2.13.05-8.17.03-16.34,0-24.52,0-.98.79-1.76,1.72-1.74.55.01,1.09-.01,1.64-.02,1.1.03,2.2.05,3.3-.01,1.12.06,2.24.04,3.36.01.18,0,.36.02.55.02,3.15,0,6.31,0,9.46.01,0,2.21,0,4.42,0,6.64-.35.17-.75.09-1.12.23-1.56.61-2.59,1.66-2.96,3.32-.07.04-.12.08-.03.15-.12,1.37.02,2.63,1.25,3.54.39.29.54.72.38,1.25-.1.33-.22.65-.3.99-.22.92-.46,1.83-.7,2.74-.18.67-.39,1.34-.55,2.02-.16.67-.12,1.35-.14,2.04-.01.34.08.46.44.45,1.25-.02,2.49,0,3.74,0Z"/><path class="cls-20" d="m75.63,340.04c-1.1.07-2.2.04-3.3.01,0-2.97-.02-5.94.02-8.91.02-1.38.21-2.74.61-4.07.48-1.61,1.16-3.11,2.08-4.5,1.15-1.74,2.58-3.23,4.29-4.44,1.12-.8,2.3-1.51,3.59-1.96,1.28-.45,2.58-.89,3.97-.99.78-.05,1.55-.17,2.33-.16,1.94.03,3.82.42,5.63,1.1,1.82.68,3.45,1.67,4.94,2.91,1.28,1.07,2.34,2.33,3.23,3.73.64.99,1.14,2.05,1.56,3.15.24.61.4,1.24.61,1.85.19.55.23,1.17.29,1.76.38,3.5.09,7.02.19,10.53-1.1.04-2.2.06-3.3,0,0-2.51-.02-5.02.01-7.53.02-1.44-.16-2.86-.52-4.25-.5-1.96-1.41-3.72-2.73-5.23-1.62-1.85-3.58-3.24-5.95-3.99-1.68-.53-3.39-.7-5.16-.6-1.64.1-3.18.48-4.64,1.16-2.43,1.13-4.34,2.87-5.76,5.15-1.22,1.97-1.89,4.13-1.97,6.42-.11,2.95-.02,5.92-.02,8.87Z"/><path class="cls-9" d="m99,340.05c0-2.66.02-5.33,0-7.99-.02-1.42-.21-2.82-.78-4.13-.45-1.04-1.05-1.99-1.8-2.86-1.11-1.29-2.5-2.19-4.07-2.76-1.45-.52-2.97-.7-4.53-.5-.95.12-1.88.34-2.74.71-2.39,1.04-4.15,2.76-5.24,5.15-.51,1.12-.71,2.29-.77,3.52-.14,2.95-.02,5.91-.07,8.86-1.12.02-2.24.05-3.36-.01,0-2.96-.09-5.92.02-8.87.08-2.28.75-4.45,1.97-6.42,1.42-2.28,3.33-4.02,5.76-5.15,1.46-.68,3-1.07,4.64-1.16,1.77-.1,3.48.06,5.16.6,2.37.75,4.33,2.14,5.95,3.99,1.32,1.51,2.23,3.27,2.73,5.23.35,1.39.54,2.8.52,4.25-.03,2.51-.01,5.02-.01,7.53-1.12.06-2.24.04-3.37,0Z"/><path class="cls-16" d="m89,363.44c-1.25,0-2.49-.02-3.74,0-.36,0-.45-.11-.44-.45.03-.68-.02-1.37.14-2.04.16-.68.37-1.34.55-2.02.24-.91.49-1.82.7-2.74.08-.34.2-.66.3-.99.16-.54,0-.97-.38-1.25-1.23-.91-1.37-2.17-1.25-3.54.07-.04.07-.09.03-.15.37-1.66,1.4-2.71,2.96-3.32.37-.14.77-.06,1.12-.23.17.02.34.05.51.07.03.09.08.14.15.04.09.02.18.04.27.06.05.12.15.09.24.09,1.74.56,3.27,2.74,2.94,4.57-.16.87-.43,1.63-1.09,2.24-.4.37-.86.71-.61,1.38.16.42.28.86.39,1.3.42,1.62.89,3.23,1.28,4.86.15.61.1,1.25.09,1.88,0,.27-.19.23-.35.23-1.28,0-2.55,0-3.83.01Z"/><path class="cls-9" d="m90.17,346.98c-.09,0-.19.03-.24-.09.11-.05.19,0,.24.09Z"/><path class="cls-9" d="m89.66,346.83c-.08.1-.12.05-.15-.04.06-.03.11-.02.15.04Z"/><path class="cls-20" d="m84.92,350.27c.04.06.04.11-.03.15-.09-.07-.03-.11.03-.15Z"/><circle class="cls-4" cx="89.14" cy="344.26" r="42.87"/><path class="cls-26" d="m218.67,340.04c.55,0,1.09.02,1.64.03.93,0,1.69.76,1.7,1.69.01.85,0,1.71,0,2.56,0,7.23,0,14.46,0,21.69,0,.47-.02.95-.16,1.4-.17.54-.83,1.02-1.39,1.02-6.12,0-12.25,0-18.37,0-.03,0-.06,0-.08-.01,0-1.66,0-3.33,0-4.99,1.28,0,2.55,0,3.83-.01.16,0,.35.04.35-.23.01-.63.06-1.27-.09-1.88-.4-1.63-.87-3.24-1.28-4.86-.11-.44-.24-.87-.39-1.3-.25-.67.21-1.01.61-1.38.66-.61.94-1.36,1.09-2.24.33-1.82-1.2-4.01-2.94-4.57-.06-.09-.13-.14-.24-.09-.09-.02-.18-.04-.27-.06-.04-.06-.09-.07-.15-.04-.17-.02-.34-.05-.51-.07,0-2.21,0-4.42,0-6.64,3.14,0,6.28-.01,9.42-.02.2,0,.39-.02.59-.02,1.12.03,2.25.05,3.37,0,1.1.06,2.2.05,3.3,0Z"/><path class="cls-15" d="m202,363.44c0,1.66,0,3.33,0,4.99-.63,0-1.26.01-1.89.01-5.34,0-10.68-.03-16.02.02-1.41.01-2.13-.75-2.13-2.13.05-8.17.03-16.34,0-24.52,0-.98.79-1.76,1.72-1.74.55.01,1.09-.01,1.64-.02,1.1.03,2.2.05,3.3-.01,1.12.06,2.24.04,3.36.01.18,0,.36.02.55.02,3.15,0,6.31,0,9.46.01,0,2.21,0,4.42,0,6.64-.35.17-.75.09-1.12.23-1.56.61-2.59,1.66-2.96,3.32-.07.04-.12.08-.03.15-.12,1.37.02,2.63,1.25,3.54.39.29.54.72.38,1.25-.1.33-.22.65-.3.99-.22.92-.46,1.83-.7,2.74-.18.67-.39,1.34-.55,2.02-.16.67-.12,1.35-.14,2.04-.01.34.08.46.44.45,1.25-.02,2.49,0,3.74,0Z"/><path class="cls-20" d="m188.63,340.04c-1.1.07-2.2.04-3.3.01,0-2.97-.02-5.94.02-8.91.02-1.38.21-2.74.61-4.07.48-1.61,1.16-3.11,2.08-4.5,1.15-1.74,2.58-3.23,4.29-4.44,1.12-.8,2.3-1.51,3.59-1.96,1.28-.45,2.58-.89,3.97-.99.78-.05,1.55-.17,2.33-.16,1.94.03,3.82.42,5.63,1.1,1.82.68,3.45,1.67,4.94,2.91,1.28,1.07,2.34,2.33,3.23,3.73.64.99,1.14,2.05,1.56,3.15.24.61.4,1.24.61,1.85.19.55.23,1.17.29,1.76.38,3.5.09,7.02.19,10.53-1.1.04-2.2.06-3.3,0,0-2.51-.02-5.02.01-7.53.02-1.44-.16-2.86-.52-4.25-.5-1.96-1.41-3.72-2.73-5.23-1.62-1.85-3.58-3.24-5.95-3.99-1.68-.53-3.39-.7-5.16-.6-1.64.1-3.18.48-4.64,1.16-2.43,1.13-4.34,2.87-5.76,5.15-1.22,1.97-1.89,4.13-1.97,6.42-.11,2.95-.02,5.92-.02,8.87Z"/><path class="cls-9" d="m212,340.05c0-2.66.02-5.33,0-7.99-.02-1.42-.21-2.82-.78-4.13-.45-1.04-1.05-1.99-1.8-2.86-1.11-1.29-2.5-2.19-4.07-2.76-1.45-.52-2.97-.7-4.53-.5-.95.12-1.88.34-2.74.71-2.39,1.04-4.15,2.76-5.24,5.15-.51,1.12-.71,2.29-.77,3.52-.14,2.95-.02,5.91-.07,8.86-1.12.02-2.24.05-3.36-.01,0-2.96-.09-5.92.02-8.87.08-2.28.75-4.45,1.97-6.42,1.42-2.28,3.33-4.02,5.76-5.15,1.46-.68,3-1.07,4.64-1.16,1.77-.1,3.48.06,5.16.6,2.37.75,4.33,2.14,5.95,3.99,1.32,1.51,2.23,3.27,2.73,5.23.35,1.39.54,2.8.52,4.25-.03,2.51-.01,5.02-.01,7.53-1.12.06-2.24.04-3.37,0Z"/><path class="cls-16" d="m202,363.44c-1.25,0-2.49-.02-3.74,0-.36,0-.45-.11-.44-.45.03-.68-.02-1.37.14-2.04.16-.68.37-1.34.55-2.02.24-.91.49-1.82.7-2.74.08-.34.2-.66.3-.99.16-.54,0-.97-.38-1.25-1.23-.91-1.37-2.17-1.25-3.54.07-.04.07-.09.03-.15.37-1.66,1.4-2.71,2.96-3.32.37-.14.77-.06,1.12-.23.17.02.34.05.51.07.03.09.08.14.15.04.09.02.18.04.27.06.05.12.15.09.24.09,1.74.56,3.27,2.74,2.94,4.57-.16.87-.43,1.63-1.09,2.24-.4.37-.86.71-.61,1.38.16.42.28.86.39,1.3.42,1.62.89,3.23,1.28,4.86.15.61.1,1.25.09,1.88,0,.27-.19.23-.35.23-1.28,0-2.55,0-3.83.01Z"/><path class="cls-9" d="m203.17,346.98c-.09,0-.19.03-.24-.09.11-.05.19,0,.24.09Z"/><path class="cls-9" d="m202.66,346.83c-.08.1-.12.05-.15-.04.06-.03.11-.02.15.04Z"/><path class="cls-20" d="m197.92,350.27c.04.06.04.11-.03.15-.09-.07-.03-.11.03-.15Z"/><circle class="cls-4" cx="202.14" cy="344.26" r="42.87"/></svg>