<?xml version="1.0" encoding="UTF-8"?><svg id="Layer_1" xmlns="http://www.w3.org/2000/svg" viewBox="0 0 400 400"><defs><style>.cls-1{fill:#a7a7a7;}.cls-2{stroke:#a5262d;}.cls-2,.cls-3,.cls-4,.cls-5,.cls-6{stroke-width:4px;}.cls-2,.cls-3,.cls-4,.cls-5,.cls-6,.cls-7{stroke-miterlimit:10;}.cls-2,.cls-3,.cls-4,.cls-5,.cls-6,.cls-7,.cls-8{fill:none;}.cls-9{fill:#fab644;}.cls-3{stroke:#000;}.cls-10{fill:#fff;}.cls-11{fill:#565959;}.cls-12{fill:#72b3e2;}.cls-4{stroke:#0018c6;}.cls-13{fill:#cbcbcb;}.cls-14{fill:#4fb76a;}.cls-15{fill:#349951;}.cls-16{fill:#cfe1ed;}.cls-17{fill:#cacaca;}.cls-18{fill:#143441;}.cls-19{fill:#414343;}.cls-20{fill:#0277b5;}.cls-21,.cls-22{opacity:.5;}.cls-23{fill:#a7c1e0;}.cls-24{fill:#546e7a;}.cls-5{stroke:#c000e2;}.cls-25{fill:#0d202b;}.cls-26{fill:#cbdde9;}.cls-27{fill:#007d9e;}.cls-28{fill:#fedd46;}.cls-29{fill:#369754;}.cls-30{fill:#2a7ec6;}.cls-31{fill:#163842;}.cls-6{stroke:#00b51e;}.cls-32{fill:#fdd782;}.cls-33{fill:#ffed58;}.cls-34{fill:#caa158;}.cls-35{fill:#adbbff;}.cls-36{fill:#42210b;}.cls-7{stroke:#231f20;stroke-width:2px;}.cls-37{fill:#36464e;}.cls-38{fill:#015078;}.cls-39{fill:#000d6a;}.cls-40{fill:#183c43;}.cls-41{fill:#72b2e2;}.cls-42{fill:#eef0fb;}.cls-43{fill:#6e6f6e;}.cls-44{fill:#0296e4;}.cls-45{fill:#788f9b;}.cls-46{fill:#7dcbe5;}.cls-47{fill:#0295e3;}.cls-48{fill:#0276b3;}.cls-49{fill:#fab643;}.cls-50{fill:#529aff;}.cls-51{fill:#0376b4;}.cls-52{fill:#e5eff1;}.cls-53{fill:#1a1a1a;}.cls-54{fill:#a8a8a8;}.cls-55{fill:#db411d;}.cls-56{fill:#fbd734;}.cls-57{fill:#cadce8;}.cls-58{fill:#414242;}.cls-59{fill:#51b66c;}.cls-22{fill:#ccf2ff;isolation:isolate;}.cls-60{fill:#231f20;}.cls-61{fill:#b9c2fe;}.cls-62{fill:#153642;}.cls-63{fill:#9fddea;}.cls-64{fill:#3636a0;}</style></defs><circle class="cls-6" cx="200.3" cy="340.69" r="45"/><path d="m178.1,315.09c2.37,1.94,2.71,5.43.77,7.8-.15.18-.3.35-.47.5-2.19,2.63-6.1,2.98-8.73.79-2.63-2.19-2.98-6.1-.79-8.73.1-.12.21-.24.32-.36,1.38-1.56,3.45-2.31,5.5-2l-.6,2.6c-1.14-.15-2.28.3-3,1.2-1.33,1.34-1.32,3.51.02,4.84.06.06.12.11.18.16,1.5,1.4,3.5,1.3,5.1-.4,1.02-.86,1.31-2.31.7-3.5l-2.2,2.3-1.7-1.6,4.1-4.4.7.7.1.1Z"/><path d="m189.2,310.99c1.13,2.07.37,4.66-1.69,5.8,0,0,0,0,0,0-.83.46-1.81.53-2.7.2l1.9,3.8-2.3,1.1-5.3-10.7,2.3-1.1.4.7c.29-.91.94-1.67,1.8-2.1,2.15-.94,4.66.05,5.6,2.2v.1Zm-2.3,1.1c-.44-1.01-1.62-1.47-2.63-1.03-.02,0-.04.02-.07.03-.98.4-1.45,1.52-1.05,2.5.04.1.09.2.15.3.5.99,1.71,1.4,2.7.9.99-.5,1.4-1.71.9-2.7h0Z"/><path d="m199,308.29l.8,5.2-2.5.4-.7-4.8c-.08-.8-.79-1.39-1.59-1.31-.04,0-.07,0-.11.01-.9.1-1.5.8-1.3,2l.7,4.6-2.5.4-1.8-11.8,2.5-.4.6,4.2c.48-.78,1.29-1.29,2.2-1.4,1.7-.3,3.3.7,3.7,3v-.1Z"/><path d="m201,309.19c.37-2.45,2.64-4.15,5.1-3.8,2.41.29,4.12,2.48,3.83,4.89,0,.07-.02.14-.03.21-.37,2.45-2.64,4.15-5.1,3.8-2.43-.32-4.14-2.56-3.82-4.99,0-.04.01-.08.02-.11Zm6.4,1c.23-1.02-.41-2.04-1.44-2.27-.05-.01-.11-.02-.16-.03-.98-.21-1.95.41-2.16,1.4-.02.1-.03.2-.04.3-.18,1.07.53,2.1,1.6,2.3.98.21,1.95-.41,2.16-1.4.02-.1.03-.2.04-.3h0Z"/><path d="m219.5,313.89l-2.3,4.7-2.3-1.1,2.1-4.4c.39-.65.19-1.49-.46-1.88-.08-.05-.16-.09-.24-.12-.74-.41-1.67-.13-2.08.61-.05.09-.09.19-.12.29l-2,4.2-2.3-1.1,3.7-7.7,2.3,1.1-.3.7c.83-.42,1.81-.38,2.6.1,1.5.7,2.3,2.5,1.3,4.6h.1Z"/><path d="m222.6,320.59c.4.45,1,.68,1.6.6l.7,2.2c-1.42.29-2.89-.16-3.9-1.2-1.9-1.55-2.18-4.35-.62-6.25.07-.09.15-.17.22-.25,1.59-1.82,4.36-2,6.18-.41.08.07.15.13.22.21,1.74,1.56,1.88,4.24.32,5.97-.07.08-.14.15-.22.23-.22.28-.49.52-.8.7l-4.4-4.1c-.4.9,0,1.6.7,2.3h0Zm3.3-1.2c.45-.73.28-1.68-.4-2.2-.6-.64-1.56-.76-2.3-.3l2.7,2.5Z"/><path d="m234.8,333.49l-6.5-1.2-1.2-2.9,4.5.9c-.73-2.21.47-4.59,2.68-5.32,2.11-.7,4.39.36,5.22,2.42,1.03,2.07.18,4.58-1.89,5.6-.07.03-.14.07-.21.1-.79.34-1.66.45-2.5.3l-.1.1Zm-.7-3.7c.36.86,1.34,1.26,2.2.9.86-.36,1.26-1.34.9-2.2-.36-.85-1.34-1.26-2.2-.9-.85.34-1.26,1.31-.92,2.16,0,.01.01.03.02.04Z"/><path class="cls-55" d="m218.1,331.79l-16.6-5.6c-1.24-.4-2.56-.4-3.8,0l-16.6,5.6c-1.51.55-2.52,1.99-2.5,3.6v35.6c.01,1.18.57,2.28,1.5,3,.64.47,1.41.71,2.2.7q.8,0,1.2-.2l14.8-5c.91-.3,1.89-.3,2.8,0l14.8,5c1.15.39,2.41.2,3.4-.5.97-.69,1.53-1.81,1.5-3v-35.6c-.1-1.63-1.16-3.05-2.7-3.6h0Z"/><path class="cls-28" d="m217.3,333.49l-16.3-5.5c-.91-.3-1.89-.3-2.8,0l-16.3,5.5c-.97.29-1.62,1.19-1.6,2.2v35.3c.02.52.28.99.7,1.3.29.2.64.31,1,.3h.5l16.2-5.5c.55-.2,1.15-.2,1.7,0l16.3,5.5c.52.16,1.08.04,1.5-.3.42-.31.68-.78.7-1.3v-35.3c-.02-1-.66-1.87-1.6-2.2h0Z"/><path class="cls-28" d="m217.3,370.99h0l-16.3-5.5c-.91-.3-1.89-.3-2.8,0l-16.2,5.5v-35.3c-.02-.3.2-.57.5-.6l16.3-5.5c.3,0,.6-.1.9-.1.3-.02.61.02.9.1l16.3,5.5c.27.09.46.32.5.6v35.3h-.1Z"/><path d="m212.6,337.59l-12.4-3.7c-.33-.1-.67-.1-1,0l-13.2,4.3c-.47.16-.8.6-.8,1.1v8.8c.03.31.17.59.4.8.18.11.39.18.6.2h.3l13.2-4.3h0l12.4,3.7c.3.07.62.03.9-.1.23-.21.37-.49.4-.8v-8.8c-.09-.5-.43-.92-.9-1.1h0l.1-.1Z"/><path d="m211.8,346.69l-11.7-3.5c-.33-.1-.67-.1-1,0l-12.5,4v-7.8l13-4.1h0l12.2,3.7v7.7Z"/><path d="m195.9,361.89c-.27.03-.54.1-.8.2l-1.8.3c-.7.1-1.4.3-2.2.4-.86.19-1.73.32-2.6.4h-.4c-.3,0-.4-.2-.3-.4.2-.4.3-.8.5-1.2.3-.6.6-1.3.9-1.9.19-.45.43-.89.7-1.3.42-.79,1.37-1.14,2.2-.8.22.14.43.3.6.5.4.4.9.8,1.3,1.2.7.6,1.4,1.3,2,1.9l.2.2c.1.2,0,.4-.4.5h.1Z"/><path d="m197.3,348.39h.3c.3,0,.4,0,.3.3s-.2.4-.3.6c-.8,1.1-1.5,2.2-2.3,3.3-.68,1.01-1.41,1.98-2.2,2.9-.36.48-.8.88-1.3,1.2-.55.31-1.2.38-1.8.2-.3,0-.6-.3-.8-.5-.7-.7-1.5-1.3-2.2-2l-.9-.9h0c-.2-.3,0-.5.3-.6,1.5-.6,3-1.1,4.4-1.7l3.9-1.5c.9-.4,1.8-.7,2.7-1h0l-.1-.3Z"/><path d="m205.3,353.99c.85.27,1.54.89,1.9,1.7.56,1.04.83,2.22.8,3.4.08,1.06-.2,2.12-.8,3-.47.61-1.3.81-2,.5-.68-.26-1.27-.71-1.7-1.3-.53-.74-.87-1.6-1-2.5l1.7-1.1c.2.9.5,1.5,1.1,1.7s.5,0,.6-.1.2-.4.2-.8c.04-.35-.03-.7-.2-1-.15-.22-.35-.4-.6-.5l-2.4-.7.3-7.4,4.5,1.2v3.2l-2.7-.8v1.4l.5.2-.2-.1Z"/><path d="m217,358.39v1.4c.12,1.59-.31,3.18-1.2,4.5-.67.96-1.91,1.33-3,.9-1.39-.55-2.51-1.63-3.1-3-.82-1.65-1.23-3.46-1.2-5.3-.09-1.62.33-3.23,1.2-4.6.62-1.03,1.84-1.52,3-1.2.86.17,1.61.67,2.1,1.4.71.77,1.22,1.69,1.5,2.7l-1.8,1.2c-.15-.44-.39-.85-.7-1.2-.3-.32-.68-.56-1.1-.7-.61-.23-1.29.03-1.6.6-.44.76-.65,1.63-.6,2.5-.03.97.18,1.93.6,2.8.32.75.94,1.32,1.7,1.6.76.25,1.58-.15,1.84-.91.03-.09.05-.19.06-.29l-2-.6v-3l4.3,1.3v-.1Z"/><path class="cls-56" d="m347.18,324.08c.5,0,.99.02,1.49.02.84,0,1.54.69,1.55,1.54,0,.78,0,1.56,0,2.33,0,6.58,0,13.16,0,19.75,0,.43-.02.86-.15,1.28-.15.49-.75.93-1.27.93-5.57,0-11.15,0-16.72,0-.03,0-.05,0-.08,0,0-1.51,0-3.03,0-4.54,1.16,0,2.32,0,3.48-.01.15,0,.32.04.32-.21,0-.57.05-1.16-.08-1.71-.36-1.48-.79-2.95-1.17-4.43-.1-.4-.22-.79-.36-1.18-.22-.61.19-.92.56-1.25.6-.55.85-1.24.99-2.03.3-1.66-1.1-3.65-2.68-4.16-.05-.09-.12-.13-.22-.08-.08-.02-.16-.04-.24-.05-.04-.05-.08-.07-.14-.03-.15-.02-.31-.04-.46-.07,0-2.01,0-4.03,0-6.04,2.86,0,5.71,0,8.57-.02.18,0,.36-.01.53-.02,1.02.03,2.04.05,3.07,0,1,.06,2,.04,3.01,0Z"/><path class="cls-33" d="m332,345.37c0,1.51,0,3.03,0,4.54-.57,0-1.15.01-1.72.01-4.86,0-9.72-.02-14.58.02-1.28.01-1.94-.69-1.94-1.94.04-7.44.03-14.88,0-22.32,0-.89.72-1.6,1.57-1.59.5,0,.99-.01,1.49-.02,1,.03,2,.05,3-.01,1.02.06,2.04.03,3.06.01.17,0,.33.02.5.02,2.87,0,5.74,0,8.61.01,0,2.01,0,4.03,0,6.04-.32.15-.68.08-1.02.21-1.42.55-2.36,1.51-2.7,3.02-.06.03-.11.07-.03.14-.11,1.25.02,2.39,1.14,3.22.35.26.49.65.35,1.14-.09.3-.2.59-.27.9-.2.84-.42,1.66-.64,2.49-.16.61-.35,1.22-.5,1.83-.15.61-.11,1.23-.13,1.85-.01.31.07.42.4.41,1.14-.02,2.27,0,3.41,0Z"/><path class="cls-45" d="m319.83,324.07c-1,.06-2,.04-3,.01,0-2.7-.02-5.41.02-8.11.02-1.25.19-2.49.55-3.71.44-1.46,1.06-2.83,1.9-4.1,1.05-1.58,2.35-2.94,3.9-4.05,1.02-.73,2.09-1.38,3.27-1.78,1.17-.41,2.35-.81,3.61-.9.71-.05,1.41-.16,2.12-.14,1.77.03,3.47.38,5.13,1,1.65.62,3.14,1.52,4.5,2.65,1.17.97,2.13,2.12,2.94,3.4.58.9,1.03,1.86,1.42,2.87.21.55.36,1.12.55,1.68.17.51.21,1.06.27,1.6.35,3.19.08,6.39.17,9.58-1,.04-2,.05-3,0,0-2.28-.02-4.57.01-6.85.02-1.31-.15-2.6-.47-3.87-.45-1.78-1.28-3.39-2.48-4.76-1.47-1.68-3.26-2.95-5.42-3.64-1.53-.49-3.08-.64-4.69-.54-1.49.09-2.89.44-4.22,1.06-2.21,1.03-3.95,2.61-5.24,4.69-1.11,1.79-1.72,3.76-1.8,5.84-.1,2.69-.02,5.38-.02,8.08Z"/><path class="cls-24" d="m341.11,324.08c0-2.42.02-4.85,0-7.27-.01-1.29-.19-2.56-.71-3.76-.41-.95-.96-1.81-1.64-2.6-1.01-1.18-2.27-1.99-3.7-2.51-1.32-.48-2.7-.64-4.13-.46-.87.11-1.71.31-2.49.65-2.18.95-3.78,2.51-4.77,4.69-.46,1.02-.65,2.09-.7,3.2-.13,2.69-.02,5.38-.06,8.06-1.02.02-2.04.04-3.06-.01,0-2.69-.08-5.39.02-8.08.08-2.08.68-4.05,1.8-5.84,1.29-2.08,3.03-3.66,5.24-4.69,1.33-.62,2.73-.97,4.22-1.06,1.61-.09,3.16.06,4.69.54,2.16.69,3.94,1.95,5.42,3.64,1.2,1.38,2.03,2.98,2.48,4.76.32,1.27.49,2.55.47,3.87-.03,2.28-.01,4.57-.01,6.85-1.02.05-2.04.04-3.07,0Z"/><path class="cls-37" d="m332,345.37c-1.14,0-2.27-.02-3.41,0-.33,0-.41-.1-.4-.41.02-.62-.01-1.25.13-1.85.15-.62.34-1.22.5-1.83.22-.83.44-1.66.64-2.49.07-.31.18-.6.27-.9.14-.49,0-.88-.35-1.14-1.12-.83-1.25-1.97-1.14-3.22.06-.03.06-.08.03-.14.34-1.51,1.28-2.47,2.7-3.02.34-.13.7-.05,1.02-.21.15.02.31.04.46.07.03.08.07.12.14.03.08.02.16.04.24.05.04.11.14.08.22.08,1.58.51,2.98,2.5,2.68,4.16-.14.79-.4,1.48-.99,2.03-.36.33-.78.65-.56,1.25.14.39.25.78.36,1.18.38,1.48.81,2.94,1.17,4.43.13.55.09,1.14.08,1.71,0,.25-.17.21-.32.21-1.16,0-2.32,0-3.48.01Z"/><path class="cls-24" d="m333.07,330.39c-.09,0-.18.03-.22-.08.1-.05.17,0,.22.08Z"/><path class="cls-24" d="m332.6,330.25c-.07.09-.11.05-.14-.03.06-.03.1-.02.14.03Z"/><path class="cls-45" d="m328.28,333.38c.03.06.03.1-.03.14-.08-.07-.03-.1.03-.14Z"/><circle class="cls-3" cx="332.13" cy="327.91" r="39.02"/><path class="cls-56" d="m72.18,327.08c.5,0,.99.02,1.49.02.84,0,1.54.69,1.55,1.54,0,.78,0,1.56,0,2.33,0,6.58,0,13.16,0,19.75,0,.43-.02.86-.15,1.28-.15.49-.75.93-1.27.93-5.57,0-11.15,0-16.72,0-.03,0-.05,0-.08,0,0-1.51,0-3.03,0-4.54,1.16,0,2.32,0,3.48-.01.15,0,.32.04.32-.21,0-.57.05-1.16-.08-1.71-.36-1.48-.79-2.95-1.17-4.43-.1-.4-.22-.79-.36-1.18-.22-.61.19-.92.56-1.25.6-.55.85-1.24.99-2.03.3-1.66-1.1-3.65-2.68-4.16-.05-.09-.12-.13-.22-.08-.08-.02-.16-.04-.24-.05-.04-.05-.08-.07-.14-.03-.15-.02-.31-.04-.46-.07,0-2.01,0-4.03,0-6.04,2.86,0,5.71,0,8.57-.02.18,0,.36-.01.53-.02,1.02.03,2.04.05,3.07,0,1,.06,2,.04,3.01,0Z"/><path class="cls-33" d="m57,348.37c0,1.51,0,3.03,0,4.54-.57,0-1.15.01-1.72.01-4.86,0-9.72-.02-14.58.02-1.28.01-1.94-.69-1.94-1.94.04-7.44.03-14.88,0-22.32,0-.89.72-1.6,1.57-1.59.5,0,.99-.01,1.49-.02,1,.03,2,.05,3-.01,1.02.06,2.04.03,3.06.01.17,0,.33.02.5.02,2.87,0,5.74,0,8.61.01,0,2.01,0,4.03,0,6.04-.32.15-.68.08-1.02.21-1.42.55-2.36,1.51-2.7,3.02-.06.03-.11.07-.03.14-.11,1.25.02,2.39,1.14,3.22.35.26.49.65.35,1.14-.09.3-.2.59-.27.9-.2.84-.42,1.66-.64,2.49-.16.61-.35,1.22-.5,1.83-.15.61-.11,1.23-.13,1.85-.01.31.07.42.4.41,1.14-.02,2.27,0,3.41,0Z"/><path class="cls-45" d="m44.83,327.07c-1,.06-2,.04-3,.01,0-2.7-.02-5.41.02-8.11.02-1.25.19-2.49.55-3.71.44-1.46,1.06-2.83,1.9-4.1,1.05-1.58,2.35-2.94,3.9-4.05,1.02-.73,2.09-1.38,3.27-1.78,1.17-.41,2.35-.81,3.61-.9.71-.05,1.41-.16,2.12-.14,1.77.03,3.47.38,5.13,1,1.65.62,3.14,1.52,4.5,2.65,1.17.97,2.13,2.12,2.94,3.4.58.9,1.03,1.86,1.42,2.87.21.55.36,1.12.55,1.68.17.51.21,1.06.27,1.6.35,3.19.08,6.39.17,9.58-1,.04-2,.05-3,0,0-2.28-.02-4.57.01-6.85.02-1.31-.15-2.6-.47-3.87-.45-1.78-1.28-3.39-2.48-4.76-1.47-1.68-3.26-2.95-5.42-3.64-1.53-.49-3.08-.64-4.69-.54-1.49.09-2.89.44-4.22,1.06-2.21,1.03-3.95,2.61-5.24,4.69-1.11,1.79-1.72,3.76-1.8,5.84-.1,2.69-.02,5.38-.02,8.08Z"/><path class="cls-24" d="m66.11,327.08c0-2.42.02-4.85,0-7.27-.01-1.29-.19-2.56-.71-3.76-.41-.95-.96-1.81-1.64-2.6-1.01-1.18-2.27-1.99-3.7-2.51-1.32-.48-2.7-.64-4.13-.46-.87.11-1.71.31-2.49.65-2.18.95-3.78,2.51-4.77,4.69-.46,1.02-.65,2.09-.7,3.2-.13,2.69-.02,5.38-.06,8.06-1.02.02-2.04.04-3.06-.01,0-2.69-.08-5.39.02-8.08.08-2.08.68-4.05,1.8-5.84,1.29-2.08,3.03-3.66,5.24-4.69,1.33-.62,2.73-.97,4.22-1.06,1.61-.09,3.16.06,4.69.54,2.16.69,3.94,1.95,5.42,3.64,1.2,1.38,2.03,2.98,2.48,4.76.32,1.27.49,2.55.47,3.87-.03,2.28-.01,4.57-.01,6.85-1.02.05-2.04.04-3.07,0Z"/><path class="cls-37" d="m57,348.37c-1.14,0-2.27-.02-3.41,0-.33,0-.41-.1-.4-.41.02-.62-.01-1.25.13-1.85.15-.62.34-1.22.5-1.83.22-.83.44-1.66.64-2.49.07-.31.18-.6.27-.9.14-.49,0-.88-.35-1.14-1.12-.83-1.25-1.97-1.14-3.22.06-.03.06-.08.03-.14.34-1.51,1.28-2.47,2.7-3.02.34-.13.7-.05,1.02-.21.15.02.31.04.46.07.03.08.07.12.14.03.08.02.16.04.24.05.04.11.14.08.22.08,1.58.51,2.98,2.5,2.68,4.16-.14.79-.4,1.48-.99,2.03-.36.33-.78.65-.56,1.25.14.39.25.78.36,1.18.38,1.48.81,2.94,1.17,4.43.13.55.09,1.14.08,1.71,0,.25-.17.21-.32.21-1.16,0-2.32,0-3.48.01Z"/><path class="cls-24" d="m58.07,333.39c-.09,0-.18.03-.22-.08.1-.05.17,0,.22.08Z"/><path class="cls-24" d="m57.6,333.25c-.07.09-.11.05-.14-.03.06-.03.1-.02.14.03Z"/><path class="cls-45" d="m53.28,336.38c.03.06.03.1-.03.14-.08-.07-.03-.1.03-.14Z"/><circle class="cls-3" cx="57.13" cy="330.91" r="39.02"/><line class="cls-8" x1="199.75" y1="116.5" x2="200.25" y2="149.27"/><line class="cls-7" x1="199.75" y1="116.5" x2="200.09" y2="138.51"/><polygon class="cls-60" points="192.57 136.44 200.25 149.27 207.53 136.21 192.57 136.44"/><line class="cls-8" x1="112.18" y1="112.23" x2="160.82" y2="151.54"/><line class="cls-7" x1="112.18" y1="112.23" x2="152.45" y2="144.77"/><polygon class="cls-60" points="146.05 149.21 160.82 151.54 155.45 137.58 146.05 149.21"/><line class="cls-8" x1="287.82" y1="112.23" x2="239.18" y2="151.54"/><line class="cls-7" x1="287.82" y1="112.23" x2="247.55" y2="144.77"/><polygon class="cls-60" points="244.55 137.58 239.18 151.54 253.95 149.21 244.55 137.58"/><line class="cls-8" x1="199.75" y1="255.5" x2="200.25" y2="288.27"/><line class="cls-7" x1="199.75" y1="255.5" x2="200.09" y2="277.51"/><polygon class="cls-60" points="192.57 275.44 200.25 288.27 207.53 275.21 192.57 275.44"/><line class="cls-8" x1="112.18" y1="290.54" x2="160.82" y2="251.23"/><line class="cls-7" x1="120.55" y1="283.77" x2="160.82" y2="251.23"/><polygon class="cls-60" points="117.55 276.58 112.18 290.54 126.95 288.21 117.55 276.58"/><line class="cls-8" x1="287.82" y1="290.54" x2="239.18" y2="251.23"/><line class="cls-7" x1="279.45" y1="283.77" x2="239.18" y2="251.23"/><polygon class="cls-60" points="273.05 288.21 287.82 290.54 282.45 276.58 273.05 288.21"/><path class="cls-17" d="m315.23,89.92c1.21-.1,2.42,0,3.6.3,2.05.71,3.49,2.54,3.7,4.7,0,.5-.2.5-.5.5h-18.9c-.5,0-.6-.2-.5-.6.33-2.74,2.62-4.82,5.37-4.9h7.23Z"/><path class="cls-54" d="m315.23,89.92h-5.4c.2-1,.5-1.9.7-2.8,1.36.2,2.74.2,4.1,0,.19.94.42,1.88.7,2.8h-.1Z"/><path class="cls-20" d="m308.93,46.31c-.5,0-.9-.4-.9-.9,0-.5.4-.9.9-.9.5,0,.9.4.9.9h0c0,.5-.4.9-.9.9Z"/><path class="cls-20" d="m312.53,44.51c.5,0,.9.4.9.9,0,.5-.4.9-.9.9-.5,0-.9-.4-.9-.9h0c0-.5.4-.9.9-.9Z"/><path class="cls-20" d="m317,45.41c0,.48-.33.9-.8,1-.49.06-.93-.28-1-.77,0-.01,0-.02,0-.03v-.2c0-.5.4-.9.9-.9h0c.5,0,.9.4.9.9Z"/><path class="cls-51" d="m322.53,72.61c-.55,5.5-5.45,9.5-10.95,8.95-4.73-.48-8.48-4.22-8.95-8.95h19.9Zm-6.2,6.1c.11.01.22-.02.3-.1.93-.6,1.69-1.42,2.2-2.4.17-.39.05-.85-.3-1.1h0c-.36-.28-.88-.21-1.16.15-.01.02-.02.03-.04.05-.46.69-1.03,1.3-1.7,1.8-.31.24-.39.66-.2,1,.1.4.4.5,1,.6h-.1Zm-3.2-.7h-.7c-.5.07-.84.54-.77,1.03.06.4.37.71.77.77h0c.47.02.94-.02,1.4-.1.35-.11.59-.43.6-.8.03-.35-.17-.67-.5-.8-.23-.05-.47-.05-.7,0l-.1-.1Z"/><path class="cls-47" d="m316.33,78.71c-.43.04-.83-.21-1-.6-.15-.34-.07-.74.2-1,.67-.5,1.24-1.11,1.7-1.8.25-.38.77-.49,1.15-.24.02.01.03.02.05.04.41.2.59.69.4,1.1h0c-.51.98-1.27,1.8-2.2,2.4-.09.05-.2.08-.3.1Z"/><path class="cls-47" d="m313.13,78.11h.7c.29.17.48.47.5.8.03.38-.23.72-.6.8-.44.19-.93.22-1.4.1-.45,0-.81-.38-.8-.84,0-.02,0-.04,0-.06h0c-.04-.45.29-.85.74-.9.02,0,.04,0,.06,0h.7l.1.1Z"/><path d="m280.63,37.11c-.66-.55-.75-1.54-.2-2.2.55-.66,1.54-.75,2.2-.2h0c.66.55.75,1.54.2,2.2-.58.61-1.52.7-2.2.2Zm1.9,1.2l1.6-2,6.6,5.4-1.6,2-6.6-5.4Z"/><path d="m288.53,37.61c-1.58-1.82-1.39-4.58.44-6.16.05-.05.11-.09.16-.14,1.23-1.01,2.91-1.27,4.4-.7l-.9,2.4c-.63-.3-1.39-.18-1.9.3-.79.56-.98,1.65-.43,2.44.07.09.14.18.23.26.66.83,1.87.97,2.7.31.55-.43.81-1.13.7-1.81l2.5-.4c.29,1.56-.33,3.15-1.6,4.1-1.89,1.58-4.69,1.32-6.27-.56-.01-.01-.02-.03-.03-.04Z"/><path d="m299,25.51l1.3,2.6c-1.09.2-1.8,1.25-1.6,2.33.04.2.1.39.2.57l1.7,3.4-2.3,1.1-3.7-7.6,2.3-1.1.7,1.4c-.14-1.11.47-2.17,1.5-2.6l-.1-.1Z"/><path d="m301.73,29.01c-.52-2.42.99-4.82,3.4-5.4,2.4-.57,4.8.9,5.38,3.3,0,.03.02.07.02.1.55,2.43-.97,4.85-3.4,5.4s-4.85-.97-5.4-3.4Zm6.3-1.4c-.15-1-1.09-1.7-2.1-1.54-.07.01-.14.02-.2.04-1.05.21-1.74,1.23-1.53,2.28,0,.04.02.08.03.12.15,1,1.09,1.7,2.1,1.54.07-.01.14-.02.2-.04,1.05-.22,1.72-1.25,1.49-2.3,0-.03-.01-.07-.02-.1h.03Z"/><path d="m321.63,27.92c-.12,2.37-2.13,4.2-4.5,4.1-.95-.05-1.84-.53-2.4-1.3l-.4,4.2-2.5-.2,1.1-11.8,2.5.2v.8c.65-.66,1.59-.96,2.5-.8,2.31.31,3.93,2.43,3.62,4.74,0,.05-.02.11-.02.16l.1-.1Zm-2.5-.2c.17-1.09-.58-2.11-1.67-2.28-.04,0-.09-.01-.13-.02-1.05-.15-2.02.57-2.18,1.62-.01.09-.02.19-.02.28-.17,1.09.58,2.11,1.67,2.28.04,0,.09.01.13.02,1.05.15,2.02-.57,2.18-1.62.01-.1.02-.19.02-.29h0Z"/><path d="m331.33,30.81l-2.1,4.8-2.3-1,1.9-4.5c.38-.66.14-1.51-.52-1.88-.09-.05-.18-.09-.28-.12-.7-.38-1.57-.12-1.95.58-.07.13-.12.27-.15.42l-1.8,4.3-2.3-1,4.7-10.9,2.3,1-1.6,3.9c.82-.4,1.78-.4,2.6,0,1.6.7,2.4,2.4,1.5,4.5v-.1Z"/><path d="m332.53,32.61c1.59-1.88,4.39-2.11,6.27-.52,0,0,.02.02.03.02,1.87,1.52,2.16,4.26.64,6.13-.05.06-.09.11-.14.17-1.59,1.88-4.39,2.11-6.27.52,0,0-.02-.02-.03-.02-1.87-1.52-2.16-4.26-.64-6.13.05-.06.09-.11.14-.17Zm4.9,4.2c.73-.73.72-1.91,0-2.63-.06-.06-.13-.12-.2-.17-.77-.7-1.96-.65-2.66.12-.05.06-.1.12-.14.18-.73.73-.72,1.91,0,2.63.06.06.13.12.2.17.77.7,1.96.65,2.66-.12.05-.06.1-.12.14-.18Z"/><circle class="cls-2" cx="312.53" cy="59.31" r="45"/><path class="cls-44" d="m302.53,59.92v-7.5c.31-5.51,5.04-9.73,10.55-9.42,4.39.25,8.11,3.34,9.15,7.62.12.63.19,1.26.2,1.9v7.5h-20l.1-.1Zm6.3-13.6c.5,0,.9-.4.9-.9h0c0-.5-.4-.9-.9-.9-.5,0-.9.4-.9.9s.4.9.9.9h0Zm3.6-1.8c-.5,0-.9.4-.9.9,0,.5.4.9.9.9.5,0,.9-.4.9-.9h0c0-.5-.4-.9-.9-.9Zm4.6,1c0-.5-.4-.9-.9-.9h0c-.5,0-.91.4-.92.9,0,.43.3.81.72.9h.2c.45.04.85-.29.9-.74,0-.02,0-.04,0-.06v-.1Zm-11.8,2.7c-.5,0-.9.4-.9.9,0,.5.4.9.9.9.5,0,.9-.4.9-.9h0c0-.5-.4-.9-.9-.9Zm4.6.9c0-.5-.4-.9-.9-.9-.5,0-.9.4-.9.9s.4.9.9.9h0c.45.04.85-.29.9-.74,0-.02,0-.04,0-.06h0v-.1Zm2.7-.9c-.5,0-.9.4-.9.9,0,.5.4.9.9.9.5,0,.9-.4.9-.9h0c0-.5-.4-.9-.9-.9Zm4.6.9c0-.5-.4-.9-.9-.9-.5,0-.9.4-.9.9s.4.9.9.9h0c.45.04.85-.29.9-.74,0-.02,0-.04,0-.06h0v-.1Zm2.7-.9c-.5,0-.9.4-.9.9,0,.5.4.9.9.9.5,0,.9-.4.9-.9h0c0-.5-.4-.9-.9-.9Zm-13.6,4.5c.04-.45-.29-.85-.74-.9-.02,0-.04,0-.06,0h0c-.55-.06-1.04.35-1.09.89-.06.55.35,1.04.89,1.09.55.06,1.04-.35,1.09-.89,0-.03,0-.06,0-.09h0l-.1-.1Zm7.3,3.6c0-.5-.4-.9-.9-.9-.5,0-.9.4-.9.9s.4.9.9.9h0c.46.01.86-.34.9-.8v-.1Zm2.7-.9c-.5,0-.9.4-.9.9,0,.5.4.9.9.9.5,0,.9-.4.9-.9h0c0-.5-.4-.9-.9-.9Zm4.5,1c0-.5-.4-.9-.9-.9-.5,0-.9.4-.9.9s.4.9.9.9h0c.48,0,.9-.33,1-.8h0l-.1-.1Zm-15.4-.9c-.5,0-.9.4-.9.9,0,.5.4.9.9.9.5,0,.9-.4.9-.9h0c0-.5-.4-.9-.9-.9Zm14.5-1.8c.5,0,.9-.4.9-.9,0-.5-.4-.9-.9-.9-.5,0-.9.4-.9.9h0c0,.5.4.9.9.9Zm-2.7-.9c.06-.55-.35-1.04-.89-1.09-.55-.06-1.04.35-1.1.9-.06.55.35,1.04.9,1.09.03,0,.06,0,.09,0h0c.45.04.85-.29.9-.74,0-.02,0-.04,0-.06h0l.1-.1Zm-4.6-.9c-.5,0-.9.4-.9.9,0,.5.4.9.9.9.5,0,.9-.4.9-.9h0c0-.5-.4-.9-.9-.9Zm-2.7.9c0-.5-.4-.9-.9-.9-.5,0-.9.4-.9.9s.4.9.9.9h0c.45.04.85-.29.9-.74,0-.02,0-.04,0-.06h0v-.1Zm0,3.6c0-.5-.4-.9-.9-.9-.5,0-.9.4-.9.9s.4.9.9.9h0c.48,0,.9-.33,1-.8h0l-.1-.1Z"/><path class="cls-17" d="m302.53,59.92h20.9c1.1,0,.9-.1.9.9v3.6h-23.6v-3.6c0-1-.1-.9.9-.9h.9Z"/><path class="cls-13" d="m327,64.41v8.1c-.01,6.7-4.6,12.52-11.1,14.1-.5.1-1,.2-1.4.3-1.36.2-2.74.2-4.1,0-1.59-.29-3.14-.79-4.6-1.5-4.01-2.07-6.85-5.87-7.7-10.3-.16-.86-.23-1.73-.2-2.6v-8.1h1.8v8.51c0,.81.1,1.62.3,2.4,1.53,6.81,8.28,11.1,15.1,9.6,2.76-.59,5.23-2.11,7-4.3,1.79-2.02,2.82-4.6,2.9-7.3.1-3,0-6,0-9h1.8l.2.09Z"/><path class="cls-9" d="m292.23,49.92c.02-2.44.86-4.8,2.4-6.7.5-.6,1-.7,1.4-.3.38.39.38,1.01,0,1.4-2.7,3.25-2.7,7.95,0,11.2.4.6.4,1.1,0,1.4-.42.27-.98.18-1.3-.2h0c-1.58-1.91-2.43-4.32-2.4-6.8h-.1Z"/><path class="cls-49" d="m332.83,49.92c-.01,2.47-.86,4.87-2.4,6.8-.26.45-.83.63-1.3.4h0c-.5-.3-.5-.9,0-1.4,2.7-3.25,2.7-7.95,0-11.2-.5-.6-.5-1.1,0-1.4.4-.32.99-.25,1.31.15.04.05.07.09.09.15,1.58,1.91,2.43,4.32,2.4,6.8l-.1-.3Z"/><path class="cls-49" d="m299,44.51c.32,0,.59.2.7.5.2.3.2.7,0,1-1.75,2.21-1.83,5.3-.2,7.6.05.11.12.21.2.3.37.34.4.93.05,1.3s-.93.4-1.3.05c-.02-.02-.04-.03-.05-.05l-.1-.2c-.79-1.03-1.34-2.23-1.6-3.5-.42-2.28.12-4.63,1.5-6.5.18-.32.54-.49.9-.4l-.1-.1Z"/><path class="cls-49" d="m328.63,50.41c-.05,1.62-.65,3.17-1.7,4.4-.25.41-.79.55-1.2.3-.41-.25-.55-.79-.3-1.2,0-.08.04-.15.1-.2,1.8-2.29,1.8-5.51,0-7.8-.35-.36-.35-.94,0-1.3h.1c.46-.31,1.08-.18,1.39.28,0,0,0,.01.01.02,1.18,1.54,1.79,3.46,1.7,5.4l-.1.1Z"/><path class="cls-17" d="m297,64.41v.3c0,.4,0,.6-.6.6h-2.6c-.9,0-.5,0-.5-.4v-4.6c0-.4.2-.4.5-.4h2.5c.5,0,.7.1.6.6v3.9h.1Z"/><path class="cls-17" d="m327.93,60.81v-.3c0-.4.1-.6.6-.6h2.6c.9,0,.5,0,.5.4v4.61c0,.4-.2.4-.5.4h-2.5c-.5,0-.7-.1-.6-.6v-3.9h-.1Z"/><path class="cls-1" d="m297,64.41v-3.6h3.6v3.6h-3.6Z"/><path class="cls-1" d="m327.93,60.81v3.6h-3.6v-3.6h3.6Z"/><path class="cls-20" d="m305.23,48.11c.5,0,.9.4.9.9,0,.5-.4.9-.9.9-.5,0-.9-.4-.9-.9h0c0-.5.4-.9.9-.9Z"/><path class="cls-20" d="m309.83,49.01c0,.5-.4.9-.9.9-.5,0-.9-.4-.9-.9s.4-.9.9-.9h0c.5,0,.9.4.9.9Z"/><path class="cls-20" d="m312.53,48.11c.5,0,.9.4.9.9,0,.5-.4.9-.9.9-.5,0-.9-.4-.9-.9h0c0-.5.4-.9.9-.9Z"/><path class="cls-20" d="m317,49.01c0,.5-.4.9-.9.9-.5,0-.9-.4-.9-.9s.4-.9.9-.9h0c.5,0,.9.4.9.9Z"/><path class="cls-20" d="m319.73,48.11c.5,0,.9.4.9.9,0,.5-.4.9-.9.9-.5,0-.9-.4-.9-.9h0c0-.5.4-.9.9-.9Z"/><path class="cls-20" d="m306.13,52.71c0,.5-.4.9-.9.9-.5,0-.9-.4-.9-.9s.4-.9.9-.9h0c.5,0,.9.4.9.9Z"/><path class="cls-20" d="m313.43,56.21c0,.5-.4.9-.9.9-.5,0-.9-.4-.9-.9s.4-.9.9-.9h0c.5,0,.9.4.9.9Z"/><path class="cls-20" d="m316.13,55.41c.5,0,.9.4.9.9,0,.5-.4.9-.9.9-.5,0-.9-.4-.9-.9h0c0-.5.4-.9.9-.9Z"/><path class="cls-20" d="m320.73,56.31c0,.5-.4.9-.9.9-.5,0-.9-.4-.9-.9s.4-.9.9-.9h0c.5,0,.9.4.9.9Z"/><path class="cls-20" d="m305.23,55.41c.5,0,.9.4.9.9,0,.5-.4.9-.9.9-.5,0-.9-.4-.9-.9h0c0-.5.4-.9.9-.9Z"/><path class="cls-20" d="m319.73,53.51c-.5-.06-.85-.5-.8-1,0-.4.4-.7.8-.8.49-.1.97.21,1.08.7s-.21.97-.7,1.08c-.06.01-.12.02-.18.02h-.2Z"/><path class="cls-20" d="m317,52.61c0,.5-.4.9-.9.9-.5,0-.9-.4-.9-.9s.4-.9.9-.9h0c.5,0,.9.4.9.9Z"/><path class="cls-20" d="m312.53,51.71c.5,0,.9.4.9.9,0,.5-.4.9-.9.9-.5,0-.9-.4-.9-.9h0c0-.5.4-.9.9-.9Z"/><path class="cls-20" d="m309.83,52.61c0,.5-.4.9-.9.9-.5,0-.9-.4-.9-.9s.4-.9.9-.9h0c.5,0,.9.4.9.9Z"/><path class="cls-20" d="m309.83,56.31c0,.5-.4.9-.9.9h0c-.53.14-1.08-.17-1.22-.71-.14-.53.17-1.08.71-1.22.2-.05.42-.04.62.03.5,0,.9.4.9.9l-.1.1Z"/><path class="cls-38" d="m302.53,66.21v-1.8h19.9v1.8h-19.9Z"/><path class="cls-17" d="m322.53,72.61h-19.9v-4.6h19.9v4.6Z"/><path class="cls-48" d="m322.53,68.11h-19.9v-1.8h19.9v1.8Z"/><path d="m288,44.41l-1.1,2.5-6.4-2.7,3.4,4.8v.3c-.1,0-6,.8-6,.8l6.4,2.7-1.1,2.5-10.9-4.7,1.1-2.5,6.1-.9-3.6-5.1,1.1-2.5,10.9,4.7.1.1Z"/><path d="m345.83,46.31l-4.4,2.8-1.43-2.19,4.1-2.6c.69-.32.99-1.15.66-1.84-.04-.09-.1-.18-.16-.26-.41-.73-1.33-.98-2.06-.57-.09.05-.17.11-.24.17l-3.9,2.5-1.4-2.2,7.2-4.5,1.4,2.2-.7.4c.93.11,1.75.67,2.2,1.5.9,1.5.7,3.3-1.3,4.6h.03Z"/><path d="m344.93,53.61c.13.61.53,1.13,1.1,1.4l-.6,2.3c-1.33-.56-2.32-1.71-2.7-3.1-.83-2.22.29-4.69,2.51-5.52.19-.07.39-.13.59-.18,2.37-.64,4.81.78,5.45,3.15.64,2.37-.78,4.81-3.15,5.45h0c-.3,0-.7.2-1,.2l-1.6-5.8c-.74.51-.99,1.49-.6,2.3v-.2Zm3.4.7c.75-.41,1.09-1.3.8-2.1-.19-.83-.94-1.42-1.8-1.4l1,3.5Z"/><path class="cls-40" d="m210.5,87.41h1.5v2.6c0,.3,0,.4-.4.4q-1.2,0-1.2-1.1v-1.9h.1Z"/><path class="cls-31" d="m206.5,87.41h1.5v2.6c0,.3,0,.5-.5.5q-1.1,0-1.1-1.1v-1.9l.1-.1Z"/><path class="cls-31" d="m214.5,87.41h1.5v2.6c0,.3,0,.4-.4.4q-1.2,0-1.2-1.1v-1.9h.1Z"/><path class="cls-31" d="m216.5,79.11v-1.5h2.5c.3,0,.4.1.4.4,0,1.4.2,1.1-1.1,1.1h-1.8Z"/><path class="cls-31" d="m216.5,75.11v-1.5h2.5c.3,0,.4.1.4.4,0,1.4.2,1.1-1.1,1.1h-1.8Z"/><path class="cls-31" d="m216.5,83.11v-1.5h2.5c.3,0,.4.1.4.5q0,1.1-1.1,1.1h-1.8v-.1Z"/><path class="cls-62" d="m182.6,87.41h1.5v2.7c0,.2,0,.4-.3.4q-1.2,0-1.2-1.1v-2h0Z"/><path class="cls-62" d="m186.6,87.41h1.5v2.7c0,.2,0,.4-.3.4q-1.2,0-1.2-1.1v-2h0Z"/><path class="cls-62" d="m194.6,87.41h1.5v2.6c0,.3,0,.4-.4.4q-1.1,0-1.1-1.1v-1.9Z"/><path class="cls-31" d="m198.5,87.41h1.5v2.6c0,.3,0,.4-.4.4q-1.1,0-1.1-1.1v-1.9Z"/><path class="cls-31" d="m202.5,87.41h1.5v2.7c0,.3,0,.4-.4.4q-1.1,0-1.1-1.1v-2h0Z"/><path class="cls-62" d="m190.6,87.41h1.5v2.6c0,.3,0,.4-.4.4q-1.1,0-1.1-1.1v-1.9Z"/><path class="cls-31" d="m216.5,87.11v-1.5h2.5c.3,0,.4,0,.4.4q0,1.1-1.1,1.1h-1.8Z"/><path class="cls-31" d="m181.5,73.61v1.5h-1.9c-.2,0-.4,0-.4-.3q0-1.2,1.2-1.2h1.1,0Z"/><path class="cls-31" d="m181.5,77.61v1.5h-1.9c-.2,0-.4,0-.4-.3q0-1.2,1.2-1.2h1.1,0Z"/><path class="cls-31" d="m181.5,81.61v1.5h-1.9c-.2,0-.4,0-.4-.3q0-1.2,1.1-1.2h1.2Z"/><path class="cls-31" d="m181.6,85.92v1.2h-2c-.2,0-.3,0-.4-.3q0-1.2,1.1-1.2h1.2v.3h.1Z"/><path class="cls-26" d="m201.9,77.01h1.5v3.4c0,.3,0,.4-.4.4q-1.1,0-1.1-1.1v-2.7Z"/><path class="cls-57" d="m198.2,77.01h1.5v3.4c0,.3,0,.4-.4.4q-1.1,0-1.1-1.1v-2.7Z"/><path class="cls-26" d="m194.5,77.01h1.5v3.4c0,.3,0,.4-.4.4q-1.1,0-1.1-1.1v-2.7Z"/><path class="cls-16" d="m191.9,73.31v1.5h-3.1c-.3,0-.4,0-.4-.4q0-1.1,1.1-1.1h2.4Z"/><path class="cls-16" d="m206.1,74.81v-1.5h2.9c.3,0,.4,0,.4.4q0,1.1-1.1,1.1h-2.2Z"/><path d="m175.2,36.31c-2.05-3.07-1.23-7.23,1.85-9.28.12-.08.23-.15.35-.22,1.95-1.27,4.41-1.42,6.5-.4l-1.4,2.7c-1.11-.58-2.46-.51-3.5.2-1.91,1.11-2.56,3.56-1.45,5.47,1.11,1.91,3.56,2.56,5.47,1.45,1.16-.67,1.91-1.88,1.99-3.22h3c-.05,2.26-1.26,4.34-3.2,5.5-3.1,2.05-7.28,1.19-9.32-1.92-.06-.09-.12-.19-.18-.28h-.1Z"/><path d="m197.9,28.11l1.1,5.7-2.8.5-1-5.3c-.02-.82-.7-1.48-1.52-1.46-.13,0-.25.02-.38.06-.94.13-1.59.99-1.46,1.93.01.09.03.18.06.27l.9,5.1-2.8.5-2.4-13.1,2.8-.5.9,4.6c.51-.92,1.45-1.52,2.5-1.6,1.9-.4,3.7.7,4.2,3.2l-.1.1Z"/><path d="m200.7,24.61l2.8.2-.5,9.5-2.8-.2.5-9.5Zm-.1-2.6c.06-.94.86-1.65,1.8-1.59.94.06,1.65.86,1.59,1.8-.06.93-.86,1.65-1.79,1.59-.93-.05-1.65-.84-1.6-1.77,0,0,0-.02,0-.03h0Z"/><path d="m215.6,32.61c-.62,2.52-3.16,4.05-5.68,3.43-.04-.01-.08-.02-.12-.03-1.05-.29-1.93-1.02-2.4-2l-1.4,4.5-2.7-.9,4-12.7,2.7.9-.3.9c.91-.51,2-.62,3-.3,2.42.83,3.71,3.46,2.88,5.88-.03.07-.05.15-.08.22l.1.1Zm-2.7-.9c.44-1.12-.11-2.37-1.23-2.81-.09-.03-.18-.06-.27-.09-1.09-.41-2.31.14-2.72,1.23-.03.09-.06.18-.08.27-.44,1.12.11,2.37,1.23,2.81.09.03.18.06.27.09,1.17.41,2.45-.2,2.86-1.37.02-.04.03-.09.04-.13h-.1Z"/><path d="m222.2,39.51c-1.2,1.8-3.3,1.5-5,.3-1.48-.85-2.3-2.51-2.1-4.2l2.8.3c-.24.69.06,1.45.7,1.8.6.4,1,.4,1.2.1.6-.9-3.5-3.1-1.7-5.8,1.2-1.7,3.2-1.6,4.8-.4,1.28.82,2.01,2.28,1.9,3.8l-2.7-.3c0-.6,0-1.1-.6-1.4-.4-.3-.8-.3-1,0-.6.9,3.6,3,1.6,5.9l.1-.1Z"/><circle class="cls-2" cx="200" cy="59.31" r="45"/><path class="cls-14" d="m178.4,92.01l-1.8-1.8c-.2-.18-.31-.43-.3-.7v-38.2c-.04-.33.07-.66.3-.9.9-1,1.9-1.9,2.8-2.9.15-.18.37-.29.6-.3h37.8c.2,0,.4,0,.5.2l1.8,1.8v38.71c.02.35-.13.68-.4.9-.8.8-1.6,1.7-2.4,2.5-.25.3-.61.48-1,.5h-37.4c-.21-.02-.41.02-.6.1l.1.09Zm13.7-4.5h2.5v1.9q0,1.1,1.1,1.1c.3,0,.4-.1.4-.4v-2.6h2.5v1.9q0,1.1,1.1,1.1c.3,0,.4-.1.4-.4v-2.6h2.5v1.9q0,1.1,1.1,1.1c.3,0,.4,0,.4-.4v-2.7h2.5v2q0,1.1,1.1,1.1c.4,0,.5-.1.5-.5v-2.6h2.5v1.9q0,1.2,1.2,1.1c.3,0,.4-.1.4-.4v-2.6h2.5v1.9q0,1.2,1.2,1.1c.3,0,.4,0,.4-.4v-2.6c.2,0,.4,0,.4-.3h1.8q1.1,0,1.1-1.1c0-.3-.1-.4-.4-.4h-2.5v-2.5h1.8q1.1,0,1.1-1.1c0-1.1-.1-.5-.4-.5h-2.5v-2.5h1.8c1.3,0,1.1.2,1.1-1.1,0-.3,0-.4-.4-.4h-2.5v-2.5h1.8c1.3,0,1.1.2,1.1-1.1,0-.3-.1-.4-.4-.4h-2.5v-2.5h1.8c1.3,0,1.1.2,1.1-1.1,0-.3-.1-.4-.4-.4h-2.5v-2.5h1.8q1.2,0,1.1-1.2c0-.3-.1-.3-.4-.3h-2.6v-2.5h1.8q1.2,0,1.1-1.2c0-.3-.1-.3-.4-.3h-2.6v-2.5h1.8q1.2,0,1.1-1.2c0-.3-.1-.3-.4-.3h-2.6v-2.5h1.8q1.2,0,1.1-1.2c0-.3-.1-.3-.4-.3h-2.6c0-.3-.1-.4-.4-.4v-1.8q0-1.2-1.2-1.1c-.3,0-.3.1-.3.4v2.6h-2.5v-1.8q0-1.2-1.2-1.1c-.3,0-.3.1-.3.4v2.6h-2.5v-1.8q0-1.2-1.2-1.1c-.3,0-.3.1-.3.4v2.6h-2.5v-1.8q0-1.2-1.2-1.1c-.3,0-.3.1-.3.4v2.6h-2.5v-1.8q0-1.2-1.2-1.1c-.3,0-.3.1-.3.4v2.6h-2.5v-1.9q0-1.2-1.2-1.1c-.3,0-.3.1-.3.4v2.6h-2.5v-1.9q0-1.2-1.2-1.1c-.3,0-.3.1-.3.4v2.6h-2.5v-1.9c0-1.2,0-1.1-1.2-1.1-.3,0-.3.1-.3.4v2.6h-2.5v-1.9c0-1.2,0-1.1-1.2-1.1-.3,0-.3.1-.3.4v2.6h-.6c-.3,0-.4,0-.4.4h-1.2q-1.2,0-1.1,1.2c-.02.15.09.28.24.3.02,0,.04,0,.06,0h2v2.5h-1.2q-1.2,0-1.1,1.2c-.02.15.09.28.24.3.02,0,.04,0,.06,0h2v2.5h-1.2q-1.2,0-1.1,1.2c-.02.15.09.28.24.3.02,0,.04,0,.06,0h2v2.5h-1.2q-1.2,0-1.1,1.2c0,.3.1.3.3.3h2v2.5h-1.2q-1.2,0-1.2,1.2c0,.2,0,.3.3.3h2v2.5h-1.2q-1.2,0-1.2,1.2c0,.3.1.3.4.3h1.9v2.5h-1.2q-1.2,0-1.2,1.2c0,.3.1.3.4.3h1.9v2.5h-1.2q-1.2,0-1.1,1.2c0,.3.1.3.4.3h1.9v2.5h-1.2q-1.2,0-1.1,1.2c0,.3.1.3.4.3h1.9c0,.2,0,.3.3.3h.7v1.9q0,1.2,1.2,1.1c.3,0,.3-.1.3-.4v-2.7h2.5v1.9q0,1.2,1.2,1.1c.3,0,.3-.1.3-.4v-2.7h2.5v1.9q0,1.1,1.1,1.1c.3,0,.4-.1.4-.4v-2.6l.4-.1Z"/><path class="cls-15" d="m178.4,92.01c.2-.2.4-.1.6-.1h37.4c.39,0,.77-.18,1-.5.8-.9,1.6-1.7,2.4-2.5.27-.22.42-.55.4-.9v-38.7c.5.4.9.9,1.4,1.3.2.2.1.4.1.6v38.4c.04.3-.07.6-.3.8-.9.9-1.8,1.9-2.6,2.8-.15.18-.37.29-.6.3h-38c-.22.03-.44-.05-.6-.2-.39-.37-.76-.78-1.1-1.2l-.1-.1Z"/><path class="cls-16" d="m212.1,53.21h2.9v8.71c.13,3.73.07,7.47-.2,11.2-.16,1.7-.53,3.38-1.1,5-.22.64-.52,1.24-.9,1.8v-21.6c0-.5.2-1.1,0-1.3s-.9,0-1.4,0h-25.5c-.4,0-.5.1-.5.5v25.8c0,.4.1.5.5.5h23.1c-.5.2-.9.5-1.4.7-2.51,1-5.2,1.51-7.9,1.5h-18v-32.3c0-.3,0-.4.4-.4h30.1l-.1-.11Z"/><path class="cls-23" d="m181.6,85.92h18c2.71.05,5.4-.46,7.9-1.5.5-.2.9-.5,1.4-.7h3.5c.3,0,.4,0,.4-.4v-3.4c.42-.53.72-1.15.9-1.8.61-1.6.98-3.29,1.1-5,.3-3.7.1-7.5.2-11.2v-8.7h1.1c.3,0,.4,0,.4.4v33.5c0,.3-.2.3-.4.3h-34.2c-.2,0-.3,0-.3-.3v-1.2Z"/><path class="cls-31" d="m208.1,53.21h-1.5v-2.6c0-.2,0-.4.3-.4q1.2,0,1.2,1.1v1.9Z"/><path class="cls-40" d="m212.1,53.21h-1.5v-2.6c0-.2,0-.3.3-.4q1.2,0,1.2,1.1v1.9Z"/><path class="cls-31" d="m216.1,53.21h-1.5v-2.6c0-.2,0-.3.3-.4q1.2,0,1.2,1.1v1.9Z"/><path class="cls-31" d="m216.5,71.11v-1.5h2.5c.3,0,.4.1.4.4,0,1.4.2,1.1-1.1,1.1h-1.8Z"/><path class="cls-31" d="m216.5,67.11v-1.5h2.6c.2,0,.3,0,.4.3q0,1.2-1.1,1.2h-1.9Z"/><path class="cls-62" d="m216.5,59.11v-1.5h2.6c.2,0,.3,0,.4.3q0,1.2-1.1,1.2h-1.9Z"/><path class="cls-62" d="m216.5,63.11v-1.5h2.6c.2,0,.3,0,.4.3q0,1.2-1.1,1.2h-1.9Z"/><path class="cls-62" d="m216.5,55.11v-1.5h2.6c.2,0,.3,0,.4.3q0,1.2-1.1,1.2h-1.9Z"/><path class="cls-31" d="m204,53.21h-1.5v-2.6c0-.2,0-.4.3-.4q1.2,0,1.2,1.1v1.9Z"/><path class="cls-62" d="m196,53.21h-1.5v-2.6c0-.2,0-.4.3-.4q1.2,0,1.2,1.1v1.9Z"/><path class="cls-62" d="m200,53.21h-1.5v-2.6c0-.2,0-.3.3-.4q1.2,0,1.2,1.1v1.9Z"/><path class="cls-62" d="m192,53.21h-1.5v-2.6c0-.2,0-.4.3-.4q1.2,0,1.2,1.1v1.9Z"/><path class="cls-18" d="m188,53.21h-1.5v-2.6c0-.2,0-.4.3-.4q1.2,0,1.2,1.1v1.9Z"/><path class="cls-18" d="m184,53.21h-1.5v-2.6c0-.2,0-.4.3-.4q1.2,0,1.2,1.1v1.9Z"/><path class="cls-31" d="m181.5,69.61v1.5c-.67.05-1.33.05-2,0-.2,0-.3,0-.3-.3q0-1.2,1.2-1.2h1.1Z"/><path class="cls-62" d="m181.5,61.61v1.5h-2c-.2,0-.3,0-.3-.3q0-1.2,1.1-1.2h1.2Z"/><path class="cls-62" d="m181.5,57.61v1.5h-2c-.2,0-.3,0-.3-.3q0-1.2,1.1-1.2h1.2Z"/><path class="cls-18" d="m181.5,53.61v1.5h-2c-.2,0-.3,0-.3-.3q0-1.2,1.1-1.2h1.2Z"/><path class="cls-62" d="m181.5,65.61v1.5h-2c-.2,0-.3,0-.3-.3q0-1.2,1.1-1.2h1.2Z"/><path class="cls-18" d="m185.3,82.21v-24.8c0-.4.1-.5.5-.5h25.5v4.5c0,3.2.1,6.5,0,9.7-.05,1.31-.35,2.6-.9,3.8-.67,1.8-1.81,3.39-3.3,4.6-2.34,1.73-5.19,2.65-8.1,2.6h-13.6l-.1.1Zm14.4-5.2h2.2v2.7q0,1.1,1.1,1.1c.3,0,.4-.1.4-.4v-3.4h2.3c.3,0,.4,0,.4-.4v-1.8h2.2q1.1,0,1.1-1.1c0-.3-.1-.4-.4-.4h-2.9v-2.2h2.2q1.1,0,1.1-1.1c0-.3-.1-.4-.4-.4h-2.9v-2.2h2.2q1.1,0,1.1-1.1c0-.3-.1-.4-.4-.4h-2.9v-1.9c0-.3,0-.4-.3-.4h-2.4v-2.6q0-1.1-1.1-1.1c-.3,0-.4,0-.4.4v3.3h-2.2v-2.6q0-1.1-1.1-1.1c-.3,0-.4,0-.4.4v3.3h-2.2v-2.6q0-1.1-1.1-1.1c-.3,0-.4,0-.4.4v3.3h-2.1c-.3,0-.4,0-.4.4v1.91h-2.3q-1.1,0-1.1,1.1c0,.3.1.4.4.4h3.1v2.2h-2.3q-1.1,0-1.1,1.1c0,.3.1.4.4.4h3.1v2.2h-2.3q-1.1,0-1.1,1.1c0,.3.1.4.4.4h3.1v1.9q0,.3.4.3h2.2v2.7q0,1.1,1.1,1.1c.3,0,.4-.1.4-.4v-3.4h2.2v2.7q0,1.1,1.1,1.1c.3,0,.4-.1.4-.4v-3.4h-.4Z"/><path class="cls-25" d="m185.3,82.21h13.6c2.92.09,5.78-.82,8.1-2.6,1.52-1.19,2.66-2.78,3.3-4.6.5-1.21.8-2.49.9-3.8.2-3.2,0-6.5,0-9.7v-4.5c.5,0,1.1-.2,1.4,0s0,.9,0,1.3v25c0,.3,0,.4-.4.4h-26.6c-.4,0-.6,0-.5-.5v-1h.2Z"/><path class="cls-59" d="m191.9,65.92v-1.9c0-.3,0-.4.4-.4h12.2c0,2.4.1,4.8-.1,7.1-.06,1.14-.56,2.22-1.4,3v-6.8c0-.3,0-.5-.4-.4h-7.4q-.3,0-.3.3v6.6c0,.4.1.5.5.5h7.4c-.08.18-.22.32-.4.4-1.05.75-2.31,1.14-3.6,1.1h-6.8v-9.6l-.1.1Z"/><path class="cls-29" d="m192,75.51h6.8c1.29.04,2.55-.35,3.6-1.1.18-.08.32-.22.4-.4.1,0,.2-.2.3-.3.8-.81,1.29-1.87,1.4-3,.2-2.4,0-4.7.1-7.1h1.2c.3,0,.3.1.3.4v12.6c0,.3-.1.4-.4.4h-13.4c-.3,0-.4,0-.4-.3v-1.2h.1Z"/><path class="cls-26" d="m195.9,63.61h-1.5v-3.3c0-.3,0-.4.4-.4q1.1,0,1.1,1.1v2.6Z"/><path class="cls-26" d="m199.7,63.61h-1.5v-3.3c0-.3,0-.4.4-.4q1.1,0,1.1,1.1v2.6Z"/><path class="cls-16" d="m203.4,63.61h-1.5v-3.3c0-.3,0-.4.4-.4q1.1,0,1.1,1.1v2.6Z"/><path class="cls-16" d="m191.9,69.61v1.5h-3.1c-.3,0-.4,0-.4-.4q0-1.1,1.1-1.1h2.4Z"/><path class="cls-26" d="m191.9,65.92v1.5h-3.1c-.3,0-.4,0-.4-.4q0-1.1,1.1-1.1h2.4Z"/><path class="cls-57" d="m206.1,71.11v-1.5h2.9c.3,0,.4,0,.4.4q0,1.1-1.1,1.1h-2.2Z"/><path class="cls-57" d="m206.1,67.41v-1.49h2.9c.3,0,.4,0,.4.4q0,1.1-1.1,1.1h-2.2Z"/><path class="cls-32" d="m194.9,72.61v-5.6q0-.3.3-.3h6.3v3.1c.04.58-.14,1.15-.5,1.6-.61.81-1.59,1.27-2.6,1.2h-3.5Z"/><path class="cls-34" d="m194.9,72.61h3.6c1.01.07,1.99-.39,2.6-1.2.32-.47.49-1.03.5-1.6v-3.1h1.1c.4,0,.4.1.4.4v6.81c0,.1-.2.2-.3.3h-7.4c-.4,0-.6,0-.5-.5v-1.1h0Z"/><path class="cls-41" d="m86.87,38.31c3.21-.15,6.35,1.01,8.7,3.2.57.42.7,1.22.3,1.8-.4.5-1.1.5-1.8,0-1.81-1.77-4.27-2.72-6.8-2.6-2.12.05-4.14.87-5.7,2.3-.17.2-.38.36-.6.5-.49.39-1.2.31-1.59-.18,0,0,0-.01-.01-.02-.35-.44-.35-1.06,0-1.5.61-.64,1.32-1.18,2.1-1.6,1.64-1.07,3.54-1.69,5.5-1.8l-.1-.1Z"/><path d="m63.77,41.71l-1.2,2.2-5.7-3.2,2.7,4.8v.3l-5.7.2,5.7,3.2-1.2,2.2-9.8-5.5,1.2-2.2,5.8-.2-2.9-5.1,1.2-2.2,9.8,5.5h.1Z"/><path d="m61.57,38.51c-1.55-1.71-1.42-4.35.29-5.9.04-.03.07-.06.11-.1,1.77-1.54,4.45-1.36,6,.4,1.55,1.77,1.37,4.45-.4,6s-4.45,1.37-6-.4h0Zm4.6-4c-.69-.72-1.84-.75-2.56-.06s-.75,1.84-.06,2.56c.68.71,1.79.75,2.51.1.74-.58.87-1.66.28-2.4-.06-.07-.12-.14-.18-.2Z"/><path d="m74,22.01l4.6,10.2-2.2,1-.3-.7c-.28.88-.94,1.58-1.8,1.9-1.97.85-4.25-.06-5.1-2.03-.04-.09-.07-.18-.1-.27-1.04-1.91-.33-4.3,1.59-5.34.04-.02.07-.04.11-.06.82-.38,1.75-.41,2.6-.1l-1.6-3.6,2.2-1Zm.8,7.5c-.49-.92-1.62-1.27-2.54-.78-.92.49-1.27,1.62-.78,2.54.46.87,1.52,1.24,2.42.84.94-.43,1.36-1.53.93-2.47-.02-.04-.04-.08-.06-.13h.03Z"/><path d="m83.37,29.51c.58.02,1.12-.29,1.4-.8l2.1.8c-.63,1.21-1.84,2-3.2,2.1-2.26.47-4.47-.98-4.94-3.24-.02-.12-.04-.24-.06-.36-.38-2.25,1.13-4.38,3.37-4.77.08-.01.15-.02.23-.03,2.18-.34,4.23,1.15,4.57,3.34.01.09.02.18.03.26v1l-5.6.8c.4.75,1.3,1.09,2.1.8v.1Zm1.1-3.1c-.29-.76-1.11-1.19-1.9-1-.8.1-1.44.71-1.57,1.51l3.4-.5h.07Z"/><path d="m100.67,28.21l-1,4.8-2.3-.5,1-4.6c.2-.8-.1-1.4-.9-1.5s-1.3.3-1.5,1.2l-.9,4.4-2.3-.5,1-4.6c.2-.8-.1-1.4-.9-1.5s-1.3.3-1.5,1.2l-.9,4.4-2.3-.5,1.7-7.8,2.3.5-.17.71c.63-.56,1.5-.75,2.3-.5.83.14,1.52.71,1.8,1.5.69-.58,1.62-.8,2.5-.6,1.8.4,2.7,1.9,2.3,3.9h-.23Z"/><path d="m103.37,28.71l5.2,3.1-1.2,2-5.2-3.1,1.2-2Z"/><path d="m114.27,40.41c-1.43,1.45-3.76,1.46-5.2.03-.11-.1-.2-.21-.3-.33-1.31-1.1-1.75-2.92-1.1-4.5l2.5.7c-.37.71-.2,1.58.4,2.1.45.6,1.3.73,1.9.28.03-.02.07-.05.1-.08.5-.46.54-1.24.08-1.74-.05-.06-.12-.11-.18-.16l-2.5-2.5,4.9-4.2,4.6,4.6-1.7,1.7-2.9-2.9-1.2,1,.6.6c1.44,1.34,1.44,3.68.11,5.12-.06.07-.12.13-.11.28Z"/><path class="cls-12" d="m87.37,42.51c2.19-.01,4.3.81,5.9,2.3.7.6.8,1.3.3,1.8-.49.5-1.28.51-1.78.02,0,0-.01-.01-.02-.02-2.37-2.2-6.03-2.2-8.4,0-.7.6-1.3.6-1.8.1s-.4-1.2.2-1.8c1.54-1.4,3.52-2.22,5.6-2.3v-.1Z"/><path class="cls-12" d="m87.47,46.71c1.33,0,2.61.51,3.6,1.4.48.39.61,1.07.3,1.6h0c-.38.5-1.09.59-1.58.21,0,0-.01,0-.02-.01h0c-1.15-1.08-2.95-1.08-4.1,0-.33.44-.96.53-1.4.2-.08-.06-.14-.12-.2-.2l-.1-.1c-.39-.52-.29-1.26.23-1.65.02-.02.04-.03.07-.05h0c.95-.89,2.2-1.39,3.5-1.4h-.3Z"/><path class="cls-28" d="m108.07,71.71c-1.5-5.3,3.3-16.5-4.9-17.2h-31c-8.7.2-3.9,11.8-5.4,17.2v6.7c1.5,5.3-3.2,16.1,4.6,17.2h32c7.9-1,3.2-12,4.7-17.2v-6.7Z"/><circle class="cls-4" cx="87.47" cy="59.31" r="45"/><path d="m122,50.81c-2.54,1.42-5.75.51-7.17-2.03-.08-.15-.16-.31-.23-.47-1.46-2.84-.34-6.34,2.5-7.8,2.84-1.46,6.34-.34,7.8,2.5.92,1.73.89,3.81-.1,5.5l-2.1-1.4c.5-.94.5-2.06,0-3-.78-1.64-2.74-2.34-4.38-1.56-.04.02-.08.04-.12.06-1.61.73-2.32,2.63-1.59,4.24.06.13.12.25.19.36.46,1.13,1.58,1.85,2.8,1.8l-1.3-2.7,2-1,2.5,5-.9.4.1.1Z"/><path d="m77.47,71.41c1.75-.04,3.46.57,4.8,1.7,2.61,2.74,2.52,7.07-.2,9.7-1.43,1.18-3.25,1.78-5.1,1.7-1.57.05-3.13-.33-4.5-1.1-1.3-.72-2.3-1.9-2.8-3.3l4.4-2.5c.32,1.3,1.57,2.16,2.9,2,1.5,0,1.3-.2,1.6-.5.72-.61.8-1.69.19-2.41-.06-.07-.12-.13-.19-.19-.43-.33-.96-.5-1.5-.5h-6.3l.8-11.5h11.5v4.8h-6.9v2.1h1.3Z"/><path d="m105.67,72.92v2c.25,5.11-3.69,9.45-8.8,9.7-.3.01-.6.01-.9,0-2.79.07-5.48-.98-7.5-2.9-1.92-1.89-2.97-4.5-2.9-7.2-.03-2.72,1.01-5.34,2.9-7.3,1.91-1.97,4.56-3.06,7.3-3,1.75-.16,3.51.26,5,1.2,1.47.77,2.71,1.91,3.6,3.3l-4.2,2.4c-.44-.62-1.03-1.14-1.7-1.5-.8-.41-1.7-.61-2.6-.6-1.42-.04-2.79.5-3.8,1.5-1.02,1.04-1.56,2.45-1.5,3.9-.06,1.42.48,2.8,1.5,3.8,1.09,1.07,2.57,1.64,4.1,1.6,1.7,0,3.8-.9,4.5-2.6h-4.8v-4.3s9.8,0,9.8,0Z"/><circle class="cls-6" cx="339.44" cy="202.8" r="45"/><path d="m324.34,175.1c1.73,2.29,1.28,5.54-1.01,7.27-.16.12-.32.23-.49.33-2.63,1.91-6.31,1.33-8.23-1.3-.02-.03-.05-.07-.07-.1-1.79-2.71-1.05-6.36,1.66-8.15,1.61-1.07,3.65-1.27,5.44-.55l-1.1,2.2c-1-.41-2.14-.26-3,.4-1.5.92-1.97,2.87-1.05,4.37.05.08.1.15.15.23.98,1.53,3.01,1.97,4.53.99.09-.06.18-.12.27-.19,1.09-.57,1.67-1.8,1.4-3l-2.5,1.7-1.2-1.9,4.7-3.1.5.8Z"/><path d="m329.24,173.3l.9,2.7c.2.7.8.5,1.8.2l.7,2.1c-2.9,1.3-4,.6-4.7-1.5l-.9-2.7-1.2.4-.7-2.2,1.2-.4-.5-1.4,2.1-1.4.7,2.1,1.6-.5.7,2.2-1.6.5-.1-.1Z"/><path d="m340.64,169.3l.6,8-2.4.2v-.8c-.59.71-1.47,1.12-2.4,1.1-2.34-.06-4.18-2-4.13-4.33.05-2.03,1.53-3.73,3.53-4.07.91-.09,1.81.2,2.5.8v-.8l2.3-.2v.1Zm-2.1,4.2c.04-.96-.7-1.77-1.66-1.82-.11,0-.23,0-.34.02-1.04.04-1.85.91-1.81,1.95,0,.05,0,.1.01.15-.04.96.7,1.77,1.66,1.82.11,0,.23,0,.34-.02,1.04-.04,1.85-.91,1.81-1.95,0-.05,0-.1-.01-.15h0Z"/><path d="m351.54,175.4c-.41,2.2-2.5,3.66-4.7,3.3-.89-.17-1.65-.72-2.1-1.5l-.2.7-2.3-.5,2.5-10.9,2.3.5-.9,3.9c.72-.54,1.65-.69,2.5-.4,2.14.63,3.38,2.85,2.8,5l.1-.1Zm-2.3-.5c.32-.9-.14-1.89-1.04-2.21-.12-.04-.24-.07-.36-.09-.99-.26-2.01.34-2.27,1.34-.01.05-.03.11-.03.16-.32.9.14,1.89,1.04,2.21.12.04.24.07.36.09.99.26,2.01-.34,2.27-1.34.01-.05.03-.11.03-.16Z"/><path d="m355.14,179.5l5.3-1c.78-.07,1.51-.39,2.1-.9.39-.52.29-1.26-.23-1.65-.02-.02-.04-.03-.07-.05-.59-.45-1.41-.45-2,0l-1-2.3c1.4-.85,3.18-.77,4.5.2,1.67,1.07,2.16,3.3,1.08,4.97-.03.04-.06.08-.08.13-.86,1.07-2.13,1.73-3.5,1.8l-2.6.4,3,2.2-1.4,2-6.2-4.5,1.1-1.5v.2Z"/><path class="cls-11" d="m321.74,239.8c0-.1-.2-.1-.2-.1-1.33-.44-2.22-1.7-2.2-3.1v-44.5c-.11-1.71,1.19-3.18,2.89-3.29.07,0,.14,0,.21,0h31.7c0,.2.2.2.3.2,1.16.5,1.9,1.64,1.9,2.9v3h-11.7c-.2,0-.4,0-.5.3-.5.5-1,1-1.6,1.5-1.79,1.7-4.61,1.7-6.4,0-.49-.44-.96-.91-1.4-1.4-.19-.24-.5-.36-.8-.3h-10.9c-.5,0-.6.1-.6.6v37.5c0,.5.2.6.6.6h33.4v3c.09,1.31-.68,2.52-1.9,3-.1,0-.3,0-.3.3h-32.5v-.2Zm14.6-3.9h-2.9c-.6,0-.9.3-.9.8s.3.8.9.8h5.8c.44.1.88-.18.98-.62.1-.44-.18-.88-.62-.98-.12-.03-.24-.03-.36,0h-2.9Zm3.1-44.1c-.81-.02-1.48.63-1.5,1.44,0,.02,0,.04,0,.06h0c0,.83.67,1.5,1.5,1.5.03,0,.07,0,.1,0,.82-.02,1.48-.68,1.5-1.5.02-.81-.63-1.48-1.44-1.5-.02,0-.04,0-.06,0h-.1Zm6.9,44.9c.02-.41-.29-.76-.7-.8-.44.09-.76.46-.8.9-.01.38.28.69.66.7.01,0,.03,0,.04,0,.43-.03.77-.37.8-.8h0Zm-3.8-.8c-.41.08-.72.39-.8.8.03.43.37.77.8.8.41-.08.72-.39.8-.8-.03-.43-.37-.77-.8-.8Z"/><rect class="cls-28" x="321.44" y="190.8" width="35" height="44" rx="2.8" ry="2.8"/><path class="cls-58" d="m354.24,239.8c0-.2.2-.2.3-.3,1.22-.48,1.99-1.69,1.9-3v-44.7c.05-1.27-.72-2.43-1.9-2.9-.1,0-.3,0-.3-.2h2.2c1.66,0,3,1.34,3,3v44c0,1.9-.6,3.4-2.5,4h-2.8l.1.1Z"/><path class="cls-43" d="m336.34,236h2.8c.49-.05.94.31,1,.8-.1.47-.52.81-1,.8h-5.8c-.6,0-.9-.3-.9-.8s.3-.8.9-.8h3Z"/><path class="cls-19" d="m346.34,236.7c.02.41-.29.76-.7.8h0c-.38.01-.69-.28-.7-.66,0-.01,0-.03,0-.04.05-.44.37-.8.8-.9.4-.1.7.4.7.8h-.1Z"/><path class="cls-19" d="m342.54,236c.4.1.7.4.8.8,0,.44-.36.8-.8.8s-.8-.36-.8-.8c.1-.4.4-.7.8-.8Z"/><g class="cls-21"><path class="cls-27" d="m341.14,208.3h-.6c-.4,0-.8-.2-1.2-.2-.51-.05-1.01-.15-1.5-.3l-1.7-.3h-.3c-.2,0-.3-.2-.2-.5.09-.29.23-.55.4-.8.2-.4.4-.9.6-1.3.11-.3.28-.57.5-.8.26-.39.78-.49,1.16-.24.09.06.17.14.24.24.16.14.3.31.4.5.3.41.57.85.8,1.3.5.7.9,1.4,1.4,2.2,0,.08.04.15.1.2,0,.2,0,.3-.3.3l.2-.3Z"/><path class="cls-27" d="m342.14,197.9h.2c.2,0,.3.1.2.3s-.1.2-.2.3c-.5.7-1,1.3-1.6,2s-1,1.2-1.5,1.7c-.21.31-.53.52-.9.6-.42.04-.85-.06-1.2-.3-.2-.17-.36-.38-.5-.6-.5-.7-.9-1.4-1.4-2.1-.22-.32-.42-.65-.6-1h0c-.1-.2,0-.4.2-.4.97-.02,1.94-.08,2.9-.2.84-.02,1.67-.08,2.5-.2.6.02,1.2-.02,1.8-.1h.1Z"/></g><path d="m333.14,222.1c1.09-.05,2.16.3,3,1,1.64,1.72,1.59,4.43-.1,6.1-.91.73-2.04,1.12-3.2,1.1-.98.07-1.96-.18-2.8-.7-.8-.48-1.4-1.22-1.7-2.1l2.7-1.6c.24.79.98,1.32,1.8,1.3.9,0,.8-.1,1-.3.23-.21.37-.49.4-.8.02-.32-.14-.62-.4-.8-.29-.22-.64-.32-1-.3h-3.9l.5-7.2h7.2v3h-4.3v1.3h.8Z"/><path d="m350.74,223v1.2c.04,1.63-.58,3.21-1.7,4.4-1.17,1.14-2.76,1.76-4.4,1.7-1.74.05-3.43-.6-4.7-1.8-2.4-2.52-2.4-6.48,0-9,1.18-1.22,2.8-1.91,4.5-1.9,1.09-.1,2.19.19,3.1.8.89.47,1.64,1.16,2.2,2l-2.7,1.5c-.24-.42-.64-.74-1.1-.9-.51-.2-1.05-.31-1.6-.3-1.71-.11-3.19,1.18-3.3,2.89,0,.14,0,.28,0,.41-.02.89.3,1.75.9,2.4.67.71,1.63,1.07,2.6,1,1.17.08,2.27-.55,2.8-1.6h-3v-2.7h6.2l.2-.1Z"/><circle class="cls-6" cx="60.56" cy="202.8" r="45"/><path d="m38.06,176.4c2.25,1.86,2.58,5.19.72,7.45-.1.12-.21.24-.32.35-2.13,2.48-5.86,2.77-8.35.65-.02-.02-.04-.03-.05-.05-2.4-2.17-2.59-5.87-.42-8.28,0,0,.01-.02.02-.02,1.29-1.49,3.25-2.21,5.2-1.9l-.5,2.5c-1.06-.16-2.13.26-2.8,1.1-1.22,1.24-1.21,3.25.04,4.47.08.08.17.16.26.23,1.4,1.3,3.3,1.2,4.8-.4.95-.83,1.19-2.19.6-3.3l-2,2.2-1.7-1.5,3.8-4.2.7.6v.1Z"/><path d="m48.26,172.2c1.13,1.9.52,4.35-1.38,5.49,0,0-.02,0-.02.01-.78.49-1.73.6-2.6.3l1.9,3.5-2.1,1.1-5.3-9.9,2.1-1.1.4.7c.22-.87.8-1.59,1.6-2,2.02-.95,4.42-.11,5.4,1.9Zm-2.1,1.1c-.41-.91-1.48-1.32-2.39-.91-.07.03-.14.07-.21.11-.92.45-1.31,1.56-.86,2.49.02.04.04.08.06.11.41.91,1.48,1.32,2.39.91.07-.03.14-.07.21-.11.92-.45,1.31-1.56.86-2.49-.02-.04-.04-.08-.06-.11h0Z"/><path d="m57.26,169.3l1,4.8-2.4.5-.9-4.5c-.05-.7-.66-1.22-1.36-1.17-.12,0-.23.03-.34.07-.75.08-1.29.75-1.21,1.5.01.14.05.27.11.4l.9,4.3-2.4.5-2.3-11,2.4-.5.8,3.9c.39-.77,1.14-1.3,2-1.4,1.62-.34,3.21.7,3.55,2.32.02.09.03.19.05.28h.1Z"/><path d="m59.06,170c.14-2.35,2.16-4.14,4.51-4s4.14,2.16,4,4.51-2.16,4.14-4.51,4c-.03,0-.07,0-.1,0-2.31-.16-4.06-2.16-3.9-4.48,0,0,0-.01,0-.02Zm6.1.5c.1-1-.63-1.89-1.63-1.99-.02,0-.05,0-.07,0-1.02-.07-1.9.68-2,1.7-.1,1,.63,1.89,1.63,1.99.02,0,.05,0,.07,0,1.02.07,1.9-.68,2-1.7Z"/><path d="m76.76,173l-1.7,4.6-2.2-.9,1.6-4.3c.35-.63.12-1.43-.51-1.78-.09-.05-.19-.09-.29-.12-.76-.31-1.63.06-1.94.82-.02.06-.04.12-.06.18l-1.6,4.1-2.2-.9,2.8-7.5,2.2.9-.3.7c.77-.46,1.73-.46,2.5,0,1.5.6,2.4,2.1,1.6,4.2h.1Z"/><path d="m80.16,179c.45.36,1.03.5,1.6.4l.9,2c-2.4.59-4.82-.88-5.41-3.27-.3-1.21-.08-2.49.61-3.53,1.3-1.84,3.84-2.27,5.67-.97.08.05.15.11.23.17,1.78,1.31,2.17,3.81.86,5.59-.05.07-.11.14-.16.21-.18.28-.42.52-.7.7l-4.5-3.4c-.21.8.16,1.63.9,2v.1Zm2.9-1.4c.36-.72.1-1.6-.6-2-.63-.55-1.57-.55-2.2,0l2.8,2.1v-.1Z"/><path d="m91.56,191.3c-1.8,1-3.7.4-5-1.9s-.9-4.2.8-5.3c.95-.6,2.15-.6,3.1,0,.09-.89.61-1.67,1.4-2.1,1.9-1.1,3.7-.2,4.8,1.5,1.1,1.7.9,3.8-1,4.9-.76.46-1.68.53-2.5.2,0,1.1-.61,2.11-1.6,2.6v.1Zm-1-2.4c.66-.42.85-1.29.44-1.95-.01-.02-.02-.04-.04-.05-.5-.8-1.2-1.1-1.9-.7-.66.42-.85,1.29-.44,1.95.01.02.02.04.04.05.5.8,1.2,1.1,1.9.7Zm2.4-4.6c-.54.34-.71,1.05-.4,1.6.26.55.92.78,1.47.52.01,0,.02-.01.03-.02.54-.34.71-1.05.4-1.6-.26-.55-.92-.78-1.47-.52-.01,0-.02.01-.03.02Z"/><path class="cls-39" d="m43.16,187.8h20.6c2.04,0,3.69,1.64,3.7,3.68,0,0,0,.01,0,.02v43.9c0,2.04-1.64,3.69-3.68,3.7,0,0-.01,0-.02,0h-20.6c-2.04,0-3.69-1.64-3.7-3.68,0,0,0-.01,0-.02v-43.9c0-2.04,1.64-3.69,3.68-3.7,0,0,.01,0,.02,0Z"/><path class="cls-30" d="m58.36,219c-.27.01-.54-.02-.8-.1-.61-.09-1.21-.22-1.8-.4-.7-.1-1.5-.3-2.2-.4-.9-.2-1.7-.3-2.6-.5-.14.01-.28-.02-.4-.1-.27-.1-.41-.39-.31-.66,0-.01,0-.02.01-.04.21-.38.38-.78.5-1.2.3-.7.6-1.3.9-2,.23-.45.5-.89.8-1.3.4-.63,1.24-.81,1.87-.41.13.08.24.19.33.31.22.25.42.52.6.8.4.7.9,1.3,1.3,2l2.1,3.3c.05.11.12.21.2.3.1.3,0,.5-.4.5l-.1-.1Z"/><path class="cls-30" d="m59.86,203.3h.3c.3,0,.4.2.3.4s-.2.3-.3.5c-.8,1-1.5,2-2.3,3s-1.5,1.8-2.2,2.6c-.38.41-.87.72-1.4.9-.63.12-1.28-.02-1.8-.4-.29-.28-.56-.58-.8-.9-.7-1.1-1.4-2.1-2.1-3.2-.3-.5-.6-1-.9-1.4h0c-.2-.4,0-.6.3-.6l4.3-.3c1.3,0,2.6-.2,3.8-.3.9-.02,1.8-.08,2.7-.2h0l.1-.1Z"/><path class="cls-30" d="m56.56,187.8h20.6c2.04,0,3.69,1.64,3.7,3.68,0,0,0,.01,0,.02v43.9c0,2.04-1.64,3.69-3.68,3.7,0,0-.01,0-.02,0h-20.6c-2.04,0-3.69-1.64-3.7-3.68,0,0,0-.01,0-.02v-43.9c0-2.04,1.64-3.69,3.68-3.7,0,0,.01,0,.02,0Z"/><path class="cls-64" d="m77.16,187.8h-20.6c-2.04,0-3.69,1.64-3.7,3.68,0,0,0,.01,0,.02v43.9l27.9-43.9c0-2.04-1.64-3.69-3.68-3.7,0,0-.01,0-.02,0h.1Z"/><path class="cls-28" d="m78.66,237.8h-23.6c-.93-.05-1.65-.84-1.6-1.77,0,0,0-.02,0-.03v-44.4c-.06-1.01.69-1.89,1.7-2h23.4c.93.05,1.65.84,1.6,1.77,0,0,0,.02,0,.03v44.6c.06.93-.64,1.74-1.57,1.8,0,0-.02,0-.03,0h.1Z"/><path class="cls-50" d="m68.96,204.6h-.4c-.34-.03-.68-.09-1-.2-.4,0-.8-.2-1.2-.2-.44-.05-.88-.15-1.3-.3h-.2c-.2,0-.2-.2-.2-.4s.2-.4.3-.6.3-.7.5-1c.09-.25.23-.49.4-.7.19-.3.59-.39.9-.2.08.05.15.12.2.2.1.1.2.3.3.4.2.36.43.69.7,1,.4.6.7,1.1,1.1,1.7v.2c0,.2,0,.3-.2.3l.1-.2Z"/><path class="cls-50" d="m69.76,196.4h.2c.1,0,.2.1.1.2-.05.11-.12.21-.2.3l-1.2,1.5c-.4.44-.76.91-1.1,1.4-.19.22-.43.39-.7.5-.31.03-.63-.04-.9-.2-.18-.12-.33-.29-.4-.5-.4-.6-.7-1.1-1.1-1.7-.17-.21-.31-.45-.4-.7h0c0-.2,0-.3.2-.3.77-.02,1.54-.08,2.3-.2.67.02,1.34-.02,2-.1h1.4l-.2-.2Z"/><path d="m62.26,218.5c.76-.03,1.51.22,2.1.7.52.53.81,1.25.8,2,.02.8-.31,1.57-.9,2.1-.62.5-1.41.75-2.2.7-1.33.07-2.56-.68-3.1-1.9l1.9-1.1c.13.55.64.93,1.2.9.6,0,.5,0,.7-.2s.2-.3.2-.6,0-.4-.2-.6c-.19-.17-.45-.24-.7-.2h-2.7l.3-4.9h4.9v2h-3v.9h.5l.2.2Z"/><path d="m74.36,219.2v.9c.03,1.12-.4,2.21-1.2,3-.8.77-1.89,1.17-3,1.1-1.2.04-2.37-.43-3.2-1.3-.81-.83-1.28-1.94-1.3-3.1-.04-1.17.43-2.31,1.3-3.1.83-.81,1.94-1.28,3.1-1.3.77-.04,1.53.14,2.2.5.63.3,1.16.79,1.5,1.4l-1.8,1c-.16-.28-.4-.49-.7-.6-.35-.12-.73-.19-1.1-.2-.59-.03-1.18.18-1.6.6-.42.46-.63,1.08-.6,1.7-.03.59.18,1.18.6,1.6.48.47,1.13.72,1.8.7.8.04,1.54-.39,1.9-1.1h-2v-1.8h4.1Z"/><path class="cls-22" d="m54.76,236.4c-.4.7-1.4.4-1.4-.5v-44.3c-.06-1.01.69-1.89,1.7-2h23.7c.55.09.92.6.83,1.15-.02.13-.06.25-.13.35l-24.7,45.3Z"/><path class="cls-53" d="m69.76,191.2c.02.26-.18.48-.44.5-.02,0-.04,0-.06,0h-4.7c-.26.02-.48-.18-.5-.44,0-.02,0-.04,0-.06h0c-.02-.26.18-.48.44-.5.02,0,.04,0,.06,0h4.7c.26-.02.48.18.5.44,0,.02,0,.04,0,.06Z"/><rect class="cls-36" x="41.76" y="190.3" width="9.8" height="9.5" rx="2" ry="2"/><circle cx="44.36" cy="193.3" r=".9"/><path class="cls-46" d="m44.46,194.9c-1.1,0-2-.9-2-2,0-1.1.9-2,2-2,1.1,0,2,.9,2,2,0,.03,0,.07,0,.1-.01,1.06-.88,1.91-1.94,1.9-.02,0-.04,0-.06,0Zm-.9-2.1c-.07.24-.04.49.1.7.17.38.59.59,1,.5.38-.06.69-.33.8-.7.15-.44-.07-.92-.5-1.1-.21-.13-.46-.17-.7-.1-.5,0-.8.3-.7.8v-.1Z"/><path class="cls-63" d="m44.26,192c.24-.02.48.02.7.1.39.21.6.66.5,1.1,0,.4-.4.6-.8.7-.4.05-.8-.15-1-.5-.14-.21-.17-.46-.1-.7.1,0,.3.1.4.1,0,.2,0,.5.3.5s.5,0,.6-.3,0-.6-.5-.7c0-.2,0-.4-.2-.5l.1.2Z"/><path class="cls-52" d="m44.26,192c.13.14.2.31.2.5-.08.18-.22.32-.4.4-.2,0-.3,0-.4-.1-.1-.5.2-.8.7-.8h-.1Z"/><circle cx="48.76" cy="193.3" r=".9"/><path class="cls-46" d="m48.96,194.9c-1.1,0-2-.9-2-2,0-1.1.9-2,2-2,1.1,0,2,.9,2,2,0,.03,0,.07,0,.1-.01,1.06-.88,1.91-1.94,1.9-.02,0-.04,0-.06,0Zm-.9-2.1c-.07.24-.04.49.1.7.17.38.59.59,1,.5.38-.06.69-.33.8-.7.15-.44-.07-.92-.5-1.1-.21-.13-.46-.17-.7-.1-.5,0-.8.3-.7.8v-.1Z"/><path class="cls-63" d="m48.66,192c.24-.02.48.02.7.1.39.21.6.66.5,1.1,0,.4-.4.6-.8.7-.4.05-.8-.15-1-.5-.14-.21-.17-.46-.1-.7.1,0,.3.1.4.1,0,.2,0,.5.3.5s.5,0,.6-.3,0-.6-.5-.7c0-.2,0-.4-.2-.5l.1.2Z"/><path class="cls-52" d="m48.66,192c.13.14.2.31.2.5-.08.18-.22.32-.4.4-.2,0-.3,0-.4-.1-.1-.5.2-.8.7-.8h-.1Z"/><circle cx="44.36" cy="197.1" r=".5"/><path class="cls-61" d="m44.46,198c-.61,0-1.1-.49-1.1-1.1s.49-1.1,1.1-1.1,1.1.49,1.1,1.1c0,.61-.49,1.09-1.1,1.1Zm-.5-1.2v.4c.12.21.36.33.6.3.21-.01.39-.19.4-.4,0-.2,0-.5-.3-.6h-.4c-.3,0-.5.2-.4.4l.1-.1Z"/><path class="cls-35" d="m44.36,196.4h.4c.19.14.31.36.3.6-.01.21-.19.39-.4.4-.2,0-.5,0-.6-.3,0-.1-.1-.2,0-.4h.2c0,.1,0,.3.2.3s.3,0,.3-.1,0-.3-.3-.4v-.3l-.1.2Z"/><path class="cls-42" d="m44.36,196.4s.1.2,0,.3-.1.2-.2.2h-.2c0-.3,0-.4.4-.4v-.1Z"/><circle cx="48.86" cy="197.1" r=".3"/><path class="cls-46" d="m48.96,197.5c-.33,0-.6-.27-.6-.6s.27-.6.6-.6.6.27.6.6c-.02.32-.28.58-.6.6Zm-.3-.7v.2c.03.1.13.16.23.13.02,0,.05-.02.07-.03.11,0,.19-.09.2-.2,0-.1,0-.3-.2-.3h-.2c-.2,0-.3.1-.2.2h.1Z"/><path class="cls-63" d="m48.86,196.6h.2c.1,0,.2.2.2.3,0,.11-.09.19-.2.2-.1,0-.3,0-.3-.1v-.2h.1c0,.08.04.15.1.2h.2c0-.1,0-.2-.2-.2v-.2h-.1Z"/><path class="cls-52" d="m48.86,196.6v.2l-.1.1h-.1c0-.1,0-.2.2-.2v-.1Z"/><line class="cls-10" x1="145.33" y1="203.05" x2="112.55" y2="202.55"/><line class="cls-7" x1="145.33" y1="203.05" x2="123.31" y2="202.71"/><polygon class="cls-60" points="125.61 195.27 112.55 202.55 125.39 210.22 125.61 195.27"/><line class="cls-10" x1="252.55" y1="203.05" x2="285.33" y2="202.55"/><line class="cls-7" x1="252.55" y1="203.05" x2="274.56" y2="202.71"/><polygon class="cls-60" points="272.49 210.22 285.33 202.55 272.26 195.27 272.49 210.22"/><circle class="cls-5" cx="196.72" cy="202.8" r="45"/><path d="m161.62,200.3c-2.5-.43-4.19-2.8-3.76-5.31.02-.1.04-.19.06-.29.27-1.55,1.33-2.84,2.8-3.4l.7,2c-.82.3-1.4,1.04-1.5,1.9-.36,1.31.41,2.66,1.72,3.03.13.03.25.06.38.07,1.36.37,2.76-.43,3.13-1.78.03-.1.05-.21.07-.32.26-.84-.02-1.75-.7-2.3l1.4-1.6c1.13,1.08,1.62,2.67,1.3,4.2-.43,2.5-2.8,4.19-5.31,3.76-.1-.02-.19-.04-.29-.06v.1Z"/><path d="m165.02,191.25c-1.71-.83-2.42-2.89-1.59-4.6.83-1.71,2.89-2.42,4.6-1.59,1.71.83,2.42,2.88,1.6,4.59-.85,1.69-2.89,2.4-4.6,1.6Zm2.2-4.4c-.72-.37-1.61-.08-1.98.65,0,.02-.02.03-.02.05-.34.75-.03,1.63.7,2,.72.37,1.61.08,1.98-.65,0-.02.02-.03.02-.05.4-.67.18-1.55-.49-1.95-.07-.04-.14-.07-.21-.1v.05Z"/><path d="m174.72,176l2.9,2.7-1.3,1.4-2.8-2.6c-.5-.4-1-.5-1.4,0-.39.43-.36,1.1.07,1.5.04.04.09.07.13.1l2.7,2.5-1.3,1.4-2.8-2.6c-.5-.4-1-.5-1.4,0-.39.43-.36,1.1.07,1.5.04.04.09.07.13.1l2.7,2.5-1.3,1.4-4.8-4.4,1.3-1.4.4.4c-.12-.66.11-1.34.6-1.8.42-.55,1.12-.82,1.8-.7-.12-.72.1-1.46.6-2,.91-1.02,2.48-1.11,3.5-.2.07.06.14.13.2.2Z"/><path d="m180.32,169.7l3.4,5.6-1.7,1-.3-.5c-.06.72-.53,1.34-1.2,1.6-1.13.72-2.63.39-3.36-.74-.05-.08-.1-.17-.14-.26l-2.1-3.4,1.7-1,1.9,3.2c.19.52.77.78,1.29.59.12-.04.22-.11.31-.19.57-.32.76-1.05.43-1.61-.04-.07-.08-.13-.13-.19l-1.8-3,1.7-1v-.1Z"/><path d="m189.22,169.1l1.2,3.8-1.9.6-1.1-3.5c-.06-.55-.56-.94-1.11-.88-.1.01-.2.04-.29.08-.59.14-.95.72-.81,1.31.02.1.06.2.11.29l1.1,3.4-1.9.6-2-6.2,1.9-.6.2.6c.23-.67.81-1.16,1.5-1.3,1.29-.4,2.65.33,3.05,1.61.02.06.04.12.05.19Z"/><path d="m190.12,164.8c-.08-.64.36-1.22,1-1.3.64-.08,1.22.36,1.3,1s-.36,1.22-1,1.3c0,0,0,0,0,0-.62.02-1.16-.4-1.3-1Zm.4,1.7l1.9-.3.9,6.4-1.9.3-.9-6.4Z"/><path d="m194.22,169.25c0-1.88,1.52-3.4,3.4-3.4.03,0,.07,0,.1,0,1.21-.03,2.33.63,2.9,1.7l-1.7,1c-.34-.71-1.18-1.01-1.89-.67-.53.25-.85.79-.81,1.37-.06.77.51,1.43,1.28,1.5.04,0,.08,0,.12,0,.53.03,1.03-.24,1.3-.7l1.7,1c-1.03,1.62-3.17,2.1-4.79,1.07-1.02-.64-1.63-1.77-1.61-2.97v.1Z"/><path d="m208.72,167.8l-1.6,6.3-1.9-.5v-.6c-.54.42-1.26.53-1.9.3-1.71-.48-2.72-2.25-2.24-3.96.01-.05.03-.09.04-.14.34-1.76,2.03-2.92,3.8-2.6.72.13,1.34.57,1.7,1.2v-.55c.1,0,2,.5,2,.5l.1.05Zm-2.7,2.7c.22-.83-.27-1.68-1.1-1.9,0,0,0,0,0,0-.8-.23-1.64.24-1.86,1.04-.01.05-.03.11-.04.16-.22.83.27,1.68,1.1,1.9,0,0,0,0,0,0,.8.23,1.64-.24,1.86-1.04.01-.05.03-.11.04-.16Z"/><path d="m212.32,171.5l-1,2.1c-.2.5.2.8,1,1.1l-.8,1.6c-2.4-.9-2.8-1.9-2-3.5l1-2.1-.9-.4.8-1.7.9.4.5-1.1,2,.3-.8,1.6,1.2.6-.8,1.7-1.2-.6h.1Z"/><path d="m215.72,171.25l1.6,1-3.5,5.5-1.6-1,3.5-5.5Zm.8-1.6c.33-.56,1.05-.74,1.6-.41.56.33.74,1.05.41,1.6-.33.56-1.05.74-1.6.41,0,0,0,0,0,0-.54-.36-.72-1.08-.4-1.65v.05Z"/><path d="m216.82,175.7c1.3-1.41,3.49-1.5,4.9-.2,1.41,1.3,1.5,3.49.2,4.9-1.3,1.41-3.49,1.5-4.9.2,0,0,0,0,0,0-1.41-1.3-1.5-3.49-.2-4.9Zm3.7,3.3c.58-.55.6-1.47.05-2.05-.02-.02-.03-.03-.05-.05-.52-.56-1.39-.59-1.95-.06-.05.05-.1.11-.15.16-.55.58-.53,1.5.05,2.05s1.5.53,2.05-.05Z"/><path d="m226.92,186.1l-3.3,2.2-1.1-1.6,3.1-2.1c.5-.23.72-.83.49-1.33-.05-.1-.11-.19-.19-.27-.4-.6-1-.8-1.8-.2l-2.9,2-1.1-1.6,5.4-3.7,1.1,1.6-.5.3c.71.07,1.34.48,1.7,1.1.75,1.1.46,2.6-.64,3.35-.08.06-.17.11-.26.15v.1Z"/><path d="m228.82,193.8c-1.54.61-3.28-.14-3.89-1.68-.04-.1-.08-.21-.11-.32-.57-1.24-.34-2.7.6-3.7l1.6,1.3c-.54.38-.71,1.11-.4,1.7.3.8.9,1,1.4.8s.8-.7.5-1.5l-1-2.7,5-1.6,1.9,4.9-1.8.7-1.2-3.1-1.2.4.3.7c.7,1.42.11,3.14-1.31,3.84-.13.06-.26.11-.39.16v.1Z"/><path d="m231.62,203.9c-2.33.36-4.5-1.24-4.86-3.57-.02-.14-.04-.29-.04-.43-.35-2.63,1.5-5.04,4.13-5.39.02,0,.05,0,.07,0,2.6-.27,4.92,1.62,5.19,4.22,0,.03,0,.05,0,.08.21,1.6-.43,3.2-1.7,4.2l-1.2-1.7c.66-.57.96-1.45.8-2.3-.19-1.49-1.56-2.54-3.05-2.35-1.49.19-2.54,1.56-2.35,3.05h0c0,1,.65,1.89,1.6,2.2l-.3-2.4,1.8-.2.5,4.5h-.8l.2.1Z"/><path class="cls-28" d="m208.62,189.9c-8.5-.2-17.8-.2-26.3,0-14.8,1.9-22,20.9-11.6,31.8,2.2,3.3-1.6,9.5,2.3,11.8,3.3,1,5.2-3.4,7.4-5.1,9.2-1,20.3.5,29.8-.5,22.1-2.9,20.7-37.2-1.6-38.2v.2Z"/><path d="m186.72,206.25c1.6-.04,3.16.49,4.4,1.5,1.19,1.1,1.82,2.68,1.7,4.3.08,1.71-.62,3.36-1.9,4.5-1.31,1.1-2.99,1.67-4.7,1.6-1.44.09-2.87-.26-4.1-1-1.16-.67-2.05-1.74-2.5-3l4-2.3c.29,1.18,1.39,1.98,2.6,1.9,1.4,0,1.1-.1,1.5-.4.66-.66.67-1.73,0-2.39,0,0,0,0,0,0-.4-.3-.9-.45-1.4-.4h-5.7l.7-10.5h10.5v4.4h-6.3v1.9h1.1l.1-.1Z"/><path d="m212.42,207.5v1.8c.09,2.39-.81,4.71-2.5,6.4-1.72,1.63-4.03,2.5-6.4,2.4-2.57.05-5.05-.92-6.9-2.7-3.65-3.62-3.67-9.51-.05-13.15,1.76-1.77,4.15-2.76,6.65-2.75,1.61-.12,3.22.26,4.6,1.1,1.35.64,2.47,1.69,3.2,3l-3.9,2.2c-.39-.59-.95-1.04-1.6-1.3-.73-.32-1.51-.49-2.3-.5-2.64-.07-4.83,2.02-4.9,4.66,0,.08,0,.16,0,.24-.04,1.29.42,2.55,1.3,3.5.99,1.02,2.39,1.53,3.8,1.4,1.69.08,3.29-.81,4.1-2.3h-4.3v-3.9h9l.2-.1Z"/></svg>