<?xml version="1.0" encoding="UTF-8"?><svg id="Layer_1" xmlns="http://www.w3.org/2000/svg" viewBox="0 0 400 400"><defs><style>.cls-1{stroke:#a5262d;}.cls-1,.cls-2,.cls-3{stroke-width:4px;}.cls-1,.cls-2,.cls-3,.cls-4{fill:none;stroke-miterlimit:10;}.cls-2{stroke:#000;}.cls-5{fill:#fff;}.cls-3{stroke:#0018c6;}.cls-6{fill:#8ac5cd;}.cls-7{fill:#546e7a;}.cls-8{fill:#ffed58;}.cls-9{fill:#c69c6d;}.cls-4{stroke:#231f20;stroke-width:2px;}.cls-10{fill:#36464e;}.cls-11{fill:#3b566a;}.cls-12{fill:#b2d3d9;}.cls-13{fill:#b3d4da;}.cls-14{fill:#788f9b;}.cls-15{fill:#484645;}.cls-16{fill:#637889;}.cls-17{fill:#88c4cc;}.cls-18{fill:#2f4859;}.cls-19{fill:#304959;}.cls-20{fill:#fbd734;}.cls-21{fill:#231f20;}</style></defs><circle class="cls-1" cx="197.68" cy="200.97" r="45"/><path d="m171.58,185.37l1-3c1.1.5,2.3.6,3.5-.5,1.1-1,1-1.7.7-2.1-.6-.6-1.4-.4-3.4.6-1.9.9-4.1,1.5-5.9-.5-1.8-2-1.1-4.7.7-6.3,1.7-1.5,3.8-1.9,5.9-1l-1,3c-1-.4-1.9-.5-2.9.4-.8.7-.8,1.4-.4,1.8.4.5,1,.6,3-.4,2-.9,4.3-1.9,6.2.3,1.8,2,1.2,4.7-1.1,6.7-2.2,1.9-4.5,2.1-6.5,1.1l.2-.1Z"/><path d="m176.58,169.47c-.4-.9,0-2,.8-2.4.9-.4,2,0,2.4.8.4.9,0,2-.8,2.4-.9.4-2,0-2.4-.8Zm1.5,2.3l2.7-1.4,4.5,8.9-2.7,1.4-4.5-8.9Z"/><path d="m182.38,164.77l2.9-.9,4.5,13.9-2.9.9-4.5-13.9Z"/><path d="m188.98,164.87c-.2-1,.5-1.9,1.5-2.1,1-.2,1.9.5,2.1,1.5.2,1-.5,1.9-1.5,2.1-1,.2-1.9-.5-2.1-1.5Zm.7,2.6l3-.5,1.6,9.9-3,.5-1.6-9.9Z"/><path d="m195.58,171.47c.2-3,2.6-5.1,5.7-4.9,1.9.1,3.6,1.3,4.3,2.9l-2.7,1.3c-.3-.7-1-1.2-1.9-1.3-1.3,0-2.3.8-2.4,2.1-.1,1.4.8,2.4,2.1,2.5.9,0,1.6-.3,2-1l2.5,1.7c-1,1.5-2.7,2.4-4.7,2.2-3-.2-5.1-2.7-4.9-5.7v.2Z"/><path d="m206.48,172.47c1.2-2.7,4.2-4,6.9-2.8,2.7,1.1,4,4.2,2.8,6.9-1.2,2.7-4.2,4-6.9,2.8-2.7-1.1-4-4.2-2.8-6.9Zm7,2.9c.5-1.3,0-2.6-1.2-3.1-1.2-.5-2.5,0-3,1.3-.6,1.3,0,2.6,1.2,3.1,1.2.5,2.5,0,3-1.3Z"/><path d="m225.98,183.57l-4.2,4.5-2.2-2,3.9-4.2c.8-.9.7-1.9,0-2.5-.8-.7-1.8-.8-2.8.3l-3.7,4-2.2-2,6.8-7.4,2.2,2-.6.7c.9-.2,2,.1,2.9,1,1.5,1.4,1.8,3.6,0,5.6h-.1Z"/><rect class="cls-9" x="170.78" y="191.47" width="52" height="37" rx="2.9" ry="2.9"/><path class="cls-15" d="m192.98,222.57c-2.5,0-4.6-.5-6.2-1.6s-2.8-2.5-3.4-4.3l5.2-3c.9,2.1,2.4,3.1,4.7,3.1s2.8-.5,2.8-1.6-.5-1.2-1.6-1.7c-.4-.2-1.4-.5-3-.9-2.2-.6-3.9-1.5-5.1-2.7-1.3-1.1-1.9-2.7-1.9-4.7s.8-4,2.3-5.3c1.6-1.4,3.5-2,5.9-2s3.7.5,5.3,1.4c1.5.9,2.7,2.3,3.5,4l-5.1,3c-.7-1.8-2-2.6-3.7-2.6s-1.3.1-1.6.4c-.4.3-.6.7-.6,1.1s.3,1,.8,1.3c.5.4,1.6.8,3.2,1.3,1.1.4,2,.7,2.8,1,.7.3,1.5.7,2.3,1.2.8.6,1.5,1.3,1.9,2.1.4.9.6,1.9.6,3,0,2.3-.8,4.1-2.5,5.4-1.6,1.3-3.8,2-6.5,2l-.1.1Z"/><path class="cls-15" d="m209.18,202.87c-.6.6-1.4,1-2.3,1s-1.6-.3-2.3-1-1-1.4-1-2.3.3-1.6,1-2.3c.6-.6,1.4-.9,2.3-.9s1.6.3,2.3.9c.6.6,1,1.4,1,2.3s-.3,1.6-1,2.3Zm-5.1,19.2v-16.9h5.6v16.9h-5.6Z"/><circle class="cls-3" cx="56.27" cy="270.77" r="36"/><path class="cls-11" d="m65.71,255.09c.17.23.39.42.64.56.94.86,1.46,2.09,1.44,3.36v36.24c0,2.88-1.44,4.56-4.4,4.8-4.79.4-9.61.4-14.4,0-2.36-.06-4.23-2.03-4.17-4.39,0-.06,0-.11,0-.17v-36.48c-.13-2.39,1.7-4.43,4.09-4.56.02,0,.05,0,.07,0,4.21-.29,8.43-.35,12.64-.16.3-.01.59.01.88.08,1.12-.02,2.23.17,3.28.56l-.08.16Zm-8.72,5.28h-8.88c-.56,0-.72.16-.72.72v9.2c0,3.04,0,1.92,1.92,1.84h15.28c.48,0,.56-.16.56-.56v-10.58c0-.4-.08-.64-.56-.64h-7.6v.02Zm1.68,23.6c-1.84,0-1.68,0-1.68,1.76,0,.56.24.8.8.8h1.28c1.04,0,1.12,0,1.12-1.04,0-1.76.16-1.52-1.52-1.52Zm-4.72,0h-.88c-.48,0-.8.16-.64.64.16.64-.56,1.68.64,1.92.61.08,1.23.08,1.84,0,.34.02.65-.22.72-.56.4-1.52,0-2-1.52-2h-.16Zm0-3.76c-1.76,0-1.52-.16-1.6,1.6v.24c0,.56.24.8.72.8h1.84c.32-.01.58-.25.64-.56.4-1.52,0-2-1.52-2h0l-.08-.08Zm4.8,0h-1.04c-.4,0-.64.16-.64.56,0,1.84-.16,2.08,1.68,2h.4c1.04,0,1.12-.16,1.12-1.12,0-1.68.16-1.52-1.52-1.52h0v.08Zm-.08,10.16h.8c.4,0,.8-.08.8-.56,0-.64.4-1.44-.32-2h-2.24c-.3-.02-.58.18-.64.48-.4,1.52,0,2.08,1.6,2.08h0Zm-4.64,0h.8c.48,0,.8-.16.8-.64,0-.64.4-1.44-.32-1.92h-2.24c-.27,0-.52.16-.64.4-.48,1.44,0,2.16,1.52,2.16h.08Zm0-13.92h-.72c-.56,0-.8.16-.8.8q0,1.84,1.84,1.84h.64c.37,0,.69-.27.72-.64.32-1.6,0-2-1.6-2h-.08Zm4.8,0h-1.04c-.4,0-.64.16-.64.64,0,1.84-.16,2.08,1.68,2h.4c1.04,0,1.12-.16,1.12-1.12,0-1.68.16-1.52-1.52-1.52h0Zm-9.44,13.92h.64c.72,0,.96-.24.88-.96,0-1.92.24-1.68-1.68-1.68h-.32c-1.04,0-1.12,0-1.04,1.04,0,1.44-.32,1.6,1.52,1.52v.08Zm14.08-2.64h-.64c-.64-.08-.88.16-.88.88,0,1.84-.32,1.76,1.76,1.76h.32q1.04,0,1.04-1.04c0-1.76.16-1.52-1.52-1.52h0l-.08-.08Zm0-3.76h-.8c-.56,0-.72.24-.72.8,0,1.92-.32,1.84,1.84,1.84h.24c.96,0,1.04-.08,1.04-1.04,0-1.76.16-1.6-1.52-1.6h-.08Zm-14,0h-.7c-.64,0-.88.16-.88.88,0,1.84-.32,1.76,1.76,1.76h.32c.96,0,1.04-.08,1.04-1.12,0-1.68.16-1.52-1.52-1.52h-.02Zm0-3.76h-.7c-.64,0-.88.16-.8.8,0,1.84-.16,1.84,1.76,1.76h.24c1.04,0,1.12,0,1.12-1.12,0-1.68.16-1.52-1.52-1.52l-.1.08Zm14.08-3.76h-.8c-.56,0-.72.24-.72.8,0,1.92-.16,1.84,1.84,1.84h.24c.96,0,1.04-.08,1.04-1.04,0-1.76.16-1.52-1.52-1.6h-.08Zm0,3.76c-1.76,0-1.52-.24-1.6,1.6v.16c0,.64.24.88.88.88h1.14c.96,0,1.04-.08,1.04-1.12,0-1.68.16-1.52-1.52-1.52h.06Zm-14.08-3.76h-.8c-.56,0-.72.24-.72.8,0,1.92-.16,1.84,1.84,1.84h.24c.96,0,1.04-.08,1.04-1.04,0-1.76.16-1.52-1.52-1.6h-.08Zm8.56-18.32c.32,0,.56-.08.48-.48s-.16-.4-.48-.4-.56.08-.48.48.16.4.48.4Zm2-.4c0-.32-.16-.4-.48-.4s-.56,0-.56.4.16.4.48.4.56-.08.56-.4Zm-4.64,38.96c.03-.23-.13-.45-.36-.48-.04,0-.08,0-.12,0-.32,0-.4.24-.4.48s.16.48.4.48c.24-.03.42-.24.4-.48h.08Zm-1.68-39.36c-.25,0-.48.16-.56.4,0,.26.19.47.45.48.01,0,.02,0,.03,0,.24,0,.4-.08.4-.32h0c0-.32-.08-.48-.4-.48l.08-.08Zm1.84.4c0-.32-.16-.4-.48-.4-.22-.04-.44.1-.48.32-.04.22.1.44.32.48.05.01.11.01.16,0,.32,0,.4-.16.4-.4h.08Zm-.16,35.68c0-.32-.24-.4-.48-.4-.21-.01-.39.14-.4.35,0,.02,0,.03,0,.05,0,.32.16.48.4.48s.4-.16.4-.48h.08Zm3.2-.08c0-.16-.08-.32-.4-.32s-.48.08-.48.4.16.48.4.48.4-.16.4-.56h.08Zm-.32,3.76c.24,0,.32-.16.32-.4.02-.24-.16-.45-.4-.48-.21-.02-.39.13-.41.33,0,.05,0,.1.01.15.08.32.16.4.56.4h-.08Zm-1.28-39.36c0-.32-.24-.4-.48-.4s-.4.16-.32.48.24.4.48.4c.24-.03.42-.24.4-.48h-.08Zm-.4,35.44c.21.01.39-.14.4-.35,0-.02,0-.03,0-.05,0-.32-.16-.48-.48-.4s-.4.16-.4.48c.03.24.24.42.48.4h0v-.08Zm-2.4,2.32c.24,0,.4-.08.48-.4s-.08-.48-.4-.48-.4.08-.48.4.08.48.4.48h0Zm4.56-.88c-.19,0-.35.17-.34.36,0,.04,0,.08.02.12,0,.24.16.4.48.32s.4-.24.4-.48c-.03-.24-.24-.42-.48-.4l-.08.08Zm-2.24,3.2c.21.01.39-.14.4-.35,0-.02,0-.03,0-.05,0-.32-.16-.48-.4-.48-.21-.01-.39.14-.4.35,0,.02,0,.03,0,.05,0,.32.16.46.4.46v.02Zm-.48-2.48c0-.24-.08-.4-.4-.4-.21-.01-.39.14-.4.35,0,.02,0,.03,0,.05,0,.24.08.48.32.48.23,0,.43-.17.48-.4h0v-.08Zm.64.32c-.21-.01-.39.14-.4.35,0,.02,0,.03,0,.05.03.24.24.42.48.4h0c.24,0,.32-.24.32-.4.01-.21-.14-.39-.35-.4-.02,0-.03,0-.05,0Zm0-1.52c.02-.2-.12-.37-.32-.4-.23,0-.43.17-.48.4,0,.16.08.4.32.4h0c.24,0,.32-.24.4-.4h.08Zm.8,1.04c.17-.01.31-.15.32-.32,0-.16,0-.32-.24-.4h-.08c-.24,0-.32.16-.4.32s0,.32.32.32l.08.08Z"/><path class="cls-17" d="m59.17,260.37h5.44c.48,0,.56.16.56.64v10.56c0,.4-.08.56-.56.56h-12.24c.02-.17.07-.33.16-.48,1.52-2.48,2.96-4.96,4.48-7.44.8-1.24,1.52-2.52,2.16-3.84Z"/><path class="cls-17" d="m49.31,272.05c-1.28,0-1.92-.61-1.92-1.84v-9.22c0-.56.16-.72.72-.72h8c-.56,1.16-1.2,2.29-1.92,3.36-1.6,2.8-3.28,5.52-4.88,8.32v.1Z"/><path class="cls-13" d="m59.17,260.37c-.64,1.32-1.36,2.6-2.16,3.84-1.44,2.48-2.96,4.96-4.48,7.44,0,.16-.16.32-.16.48h-1.28c.02-.17.07-.33.16-.48,1.28-2.08,2.56-4.24,3.76-6.32.96-1.68,2-3.2,2.88-4.96h1.28Z"/><path class="cls-6" d="m57.87,260.37c-.88,1.68-1.92,3.28-2.88,4.96-1.28,2.16-2.56,4.24-3.76,6.32,0,.16-.16.32-.16.48h-.88c.37-.94.85-1.82,1.44-2.64,1.76-3.04,3.6-6.08,5.36-9.04h.88v-.08Z"/><path class="cls-12" d="m56.99,260.37c-1.76,3.04-3.6,6-5.36,9.04-.59.82-1.07,1.7-1.44,2.64h-.88c1.68-2.72,3.28-5.52,4.88-8.32.72-1.07,1.36-2.2,1.92-3.36h.88Z"/><path class="cls-16" d="m58.67,283.97c1.76,0,1.52-.16,1.52,1.52,0,.96,0,1.04-1.12,1.04h-1.28c-.39.05-.75-.24-.8-.63,0-.06,0-.11,0-.17,0-1.84-.16-1.84,1.68-1.76Z"/><path class="cls-16" d="m53.87,283.97h0c1.52,0,1.92.48,1.52,2-.04.35-.36.6-.71.56,0,0,0,0,0,0-.61.04-1.23.04-1.84,0-1.2-.24-.48-1.28-.64-1.92-.08-.48.16-.72.64-.64h1.04Z"/><path class="cls-16" d="m53.87,280.19h0c1.52,0,1.92.48,1.52,2-.06.31-.32.55-.64.56h-1.84c-.48,0-.8-.24-.72-.8v-.24c0-1.76-.24-1.6,1.6-1.6l.08.08Z"/><path class="cls-16" d="m58.67,280.19c1.68,0,1.52-.16,1.52,1.52,0,.96-.16,1.12-1.12,1.12h-.4c-1.92,0-1.68-.16-1.68-2,0-.4.24-.56.64-.56h1.04v-.08Z"/><path class="cls-16" d="m58.59,290.37c-1.52,0-2-.56-1.6-2.08.06-.3.34-.5.64-.48h2.24c.72.56.32,1.36.32,2,0,.48-.4.56-.8.56h-.8Z"/><path class="cls-16" d="m53.87,290.37c-1.44,0-2-.8-1.52-2.16.05-.28.32-.46.6-.41.01,0,.03,0,.04,0h2.24c.72.56.32,1.28.32,1.92,0,.4-.32.64-.8.64h-.88Z"/><path class="cls-16" d="m53.87,276.37h0c1.6,0,1.92.4,1.6,2,0,.4-.32.56-.72.64h-.64q-1.84,0-1.84-1.84c0-1.84.24-.88.8-.8h.8Z"/><path class="cls-16" d="m58.67,276.37c1.68,0,1.52-.16,1.52,1.52,0,.96-.16,1.12-1.12,1.12h-.4c-1.92,0-1.68-.16-1.68-2,0-.4.24-.56.64-.64h1.04Z"/><path class="cls-16" d="m49.23,290.37c-1.84,0-1.52-.08-1.52-1.52q0-1.04,1.04-1.04h.32c1.92,0,1.68-.24,1.68,1.68,0,.72-.24.96-.88.96h-.64v-.08Z"/><path class="cls-16" d="m63.31,287.73c1.76,0,1.52-.16,1.52,1.52q0,1.04-1.04,1.04h-.32c-2.08,0-1.68,0-1.76-1.76,0-.64.24-.96.88-.88h.64l.08.08Z"/><path class="cls-16" d="m63.31,283.97c1.68,0,1.52-.16,1.52,1.6,0,.96-.08,1.04-1.04,1.04h-.24c-2.16,0-1.76.08-1.84-1.84,0-.56.16-.8.72-.8h.88Z"/><path class="cls-16" d="m49.23,283.97c1.68,0,1.44-.16,1.52,1.52,0,.96,0,1.12-1.04,1.12h-.32c-2.08,0-1.68,0-1.76-1.76,0-.64.24-.96.88-.88h.72Z"/><path class="cls-16" d="m49.23,280.19c1.68,0,1.52-.16,1.52,1.52,0,1.04,0,1.12-1.12,1.12h-.24c-1.92,0-1.68,0-1.76-1.76,0-.64.16-.88.8-.8h.72l.08-.08Z"/><path class="cls-16" d="m63.31,276.37c1.68,0,1.52-.16,1.52,1.6,0,.96-.08,1.04-1.04,1.04h-.24c-2,0-1.76.08-1.84-1.84,0-.56.16-.8.72-.8h.88Z"/><path class="cls-16" d="m63.31,280.19c1.68,0,1.52-.16,1.52,1.52,0,1.04-.08,1.12-1.04,1.12h-1.12c-.64,0-.88-.24-.88-.88v-.16c0-1.76-.24-1.6,1.6-1.6h-.08Z"/><path class="cls-16" d="m49.23,276.37c1.68,0,1.52-.16,1.52,1.52,0,.96-.08,1.04-1.04,1.04h-.24c-2,0-1.84.08-1.84-1.84,0-.56.16-.8.72-.8h.8l.08.08Z"/><path class="cls-18" d="m57.79,258.13c-.24,0-.48-.08-.48-.4,0-.26.19-.47.45-.48.01,0,.02,0,.03,0,.24,0,.48.08.48.4,0,.26-.19.47-.45.48-.01,0-.02,0-.03,0Z"/><path class="cls-18" d="m59.71,257.73c0,.32-.24.4-.56.4s-.48-.16-.48-.4.24-.4.56-.4.48.16.48.4Z"/><path class="cls-19" d="m55.07,296.61c.02.24-.16.45-.4.48-.21.02-.39-.13-.41-.33,0-.05,0-.1.01-.15,0-.24.08-.48.4-.48.23-.03.45.13.48.36,0,.04,0,.08,0,.12h-.08Z"/><path class="cls-18" d="m53.39,257.25c.32,0,.4.16.4.48.01.21-.14.39-.35.4-.02,0-.03,0-.05,0h0c-.32,0-.56-.16-.48-.48s.24-.4.56-.4h-.08Z"/><path class="cls-18" d="m55.23,257.65c0,.32-.16.48-.4.4-.22.04-.44-.1-.48-.32-.04-.22.1-.44.32-.48.05-.01.11-.01.16,0,.24,0,.48.08.48.4h-.08Z"/><path class="cls-18" d="m55.07,293.33c0,.32-.16.48-.4.48s-.4-.16-.4-.48.08-.4.4-.4.48.08.48.4h-.08Z"/><path class="cls-18" d="m58.27,293.25c0,.4-.16.56-.4.56s-.4-.16-.4-.48.24-.4.48-.4c.2-.02.37.12.4.32h-.08Z"/><path class="cls-18" d="m57.95,296.99c-.32,0-.56-.08-.56-.4s.16-.48.4-.48.4.16.4.48-.08.4-.32.4h.08Z"/><path class="cls-18" d="m56.67,257.65c.03.22-.11.42-.32.48-.24,0-.48-.08-.48-.4-.03-.22.11-.42.32-.48.32,0,.48.08.48.4Z"/><path class="cls-18" d="m56.27,293.09c-.24,0-.4-.08-.48-.4s.08-.48.4-.48.48.16.48.4c.01.21-.14.39-.35.4-.02,0-.03,0-.05,0v.08Z"/><path class="cls-18" d="m53.95,295.39c-.32,0-.4-.16-.4-.48s.16-.4.48-.4.4.16.4.48-.16.4-.48.4Z"/><path class="cls-18" d="m58.51,294.53c.32,0,.48.08.48.32s-.08.48-.4.48c-.22.03-.42-.11-.48-.32,0-.32.08-.48.32-.48h.08Z"/><path class="cls-18" d="m56.27,291.33c-.17-.01-.31-.15-.32-.32,0-.16.08-.24.32-.24.16-.01.31.11.32.27,0,.02,0,.03,0,.05,0,.16-.08.24-.32.24Z"/><path class="cls-19" d="m55.79,295.25c-.05.23-.25.39-.48.4-.24,0-.4-.16-.32-.48s.16-.4.4-.4.32.24.4.4v.08Z"/><path class="cls-19" d="m56.43,295.57c.21-.01.39.14.4.35,0,.02,0,.03,0,.05,0,.24,0,.4-.32.4s-.48-.08-.48-.32h0c0-.24.16-.32.4-.4v-.08Z"/><path class="cls-19" d="m56.35,294.13c-.02.21-.19.38-.4.4-.2.02-.37-.12-.4-.32h0c.03-.24.24-.42.48-.4.24,0,.32.16.32.4v-.08Z"/><path class="cls-18" d="m57.23,295.09c-.32,0-.4-.16-.32-.32s.16-.4.4-.32c.17.01.31.15.32.32v.08c-.01.17-.15.31-.32.32l-.08-.08Z"/><path d="m33.79,280.93c1.67-1.31,4.08-1.01,5.39.66.02.02.03.04.05.06l1.84,2.56-6.32,4.64-1.84-2.56c-1.25-1.67-.9-4.04.77-5.28.03-.03.07-.05.11-.08Zm1.04,1.36c-.95.55-1.27,1.77-.72,2.72.05.08.1.16.16.24l.8,1.12,3.52-2.64-.8-1.12c-.66-.94-1.96-1.17-2.9-.51-.05.03-.1.07-.14.11l.08.08Z"/><path d="m30.51,280.93c-.53.22-1.14-.03-1.36-.56-.22-.53.03-1.14.56-1.36.53-.22,1.14.03,1.36.56h0c.23.52-.01,1.12-.53,1.35,0,0-.02,0-.03.01Zm1.28-.72l-.64-1.52,5.12-2.16.64,1.52-5.12,2.16Z"/><path d="m33.39,271.81c1.28-.32,2.08.64,2.32,1.84.29.95,0,1.97-.72,2.64l-1.12-1.2c.39-.18.57-.64.4-1.04-.08-.4-.24-.56-.48-.48-.64.16.32,2.72-1.52,3.2-1.2.24-2-.56-2.32-1.76-.25-.86,0-1.78.64-2.4l1.04,1.2c-.27.21-.39.55-.32.88-.01.21.14.39.35.4.02,0,.03,0,.05,0,.64-.16-.4-2.72,1.6-3.2l.08-.08Z"/><path d="m32.35,264.93c1.55-.04,2.83,1.17,2.88,2.72,0,.03,0,.05,0,.08,0,.63-.26,1.24-.72,1.68h2.8v1.76l-7.84-.24v-1.68h.56c-.43-.45-.66-1.06-.64-1.68.1-1.52,1.42-2.67,2.94-2.57.03,0,.07,0,.1,0l-.08-.08Zm0,1.68c-.75-.05-1.39.51-1.44,1.26,0,0,0,.01,0,.02-.07.68.43,1.29,1.11,1.35.06,0,.11,0,.17,0,.75.05,1.39-.51,1.44-1.26,0,0,0-.01,0-.02.1-.65-.34-1.27-1-1.37-.09-.01-.19-.02-.28-.01v.02Z"/><path d="m27.55,262.45l.4-1.6,7.92,2-.4,1.6-7.92-2Z"/><path d="m33.47,254.37l5.04,2.48-.72,1.52-.48-.24c.22.58.16,1.23-.16,1.76-.88,1.38-2.72,1.79-4.1.9-1.18-.75-1.67-2.23-1.18-3.54.26-.58.76-1.01,1.36-1.2l-.48-.24.72-1.52v.08Zm1.76,2.72c-.64-.36-1.46-.13-1.82.52,0,.01-.02.03-.02.04-.38.67-.15,1.53.52,1.91.67.38,1.53.15,1.91-.52.38-.67.15-1.53-.52-1.91-.02-.01-.05-.03-.07-.04Z"/><path d="m38.43,248.61l2.72,5.12c.88,1.68.72,2.88-.4,4l-1.12-1.04c.5-.41.61-1.14.24-1.68l-5.44-2,1.28-1.36,3.36,1.36-1.84-3.12,1.2-1.36v.08Z"/><path d="m49.87,242.53l.48,5.84-1.44.64-2-2.4.32,3.12-1.44.64-3.84-4.48,1.68-.72,1.92,2.48-.32-3.12,1.44-.64,1.92,2.4-.4-3.12,1.68-.72v.08Z"/><path d="m51.17,240.99c-.07-.55.33-1.05.88-1.12.55-.07,1.05.33,1.12.88.07.55-.33,1.05-.88,1.12,0,0,0,0,0,0-.54.07-1.04-.31-1.12-.85,0-.01,0-.02,0-.03Zm.4,1.44l1.68-.24.8,5.52-1.68.24-.8-5.52Z"/><path d="m57.07,243.73v2c0,.48.4.56,1.12.48v1.52c-2.24.16-2.88-.48-2.8-2v-2h-.88v-1.6h.88v-1.04l1.68-.48v1.6h1.12v1.6h-1.2l.08-.08Z"/><path d="m64.77,245.57l-.8,3.36-1.6-.4.72-3.12c.18-.46-.05-.97-.51-1.15-.07-.03-.14-.04-.21-.05-.51-.17-1.06.11-1.23.62-.03.08-.04.17-.05.26l-.72,2.96-1.6-.4,1.84-7.6,1.6.4-.64,2.72c.48-.36,1.1-.47,1.68-.32,1.13.26,1.84,1.38,1.58,2.51-.02.07-.04.14-.06.21Z"/><path d="m69.71,252.45v-3.04l-1.44,2-1.36-.96,4.64-6.32,1.36.96-2.8,3.76,2.8-.96,1.6,1.2-3.28,1.04v3.52l-1.52-1.12v-.08Z"/><path d="m73.87,254.85c.26.32.63.52,1.04.56l.24,1.52c-.95.04-1.86-.41-2.4-1.2-1.09-1.15-1.04-2.97.11-4.06.07-.06.14-.12.21-.18,1.17-1.03,2.95-.92,3.97.25.07.07.13.15.19.23,1,1.21.82,3.01-.39,4.01-.03.02-.06.05-.09.07-.16.16-.4.24-.56.4l-2.48-3.12c-.29.5-.19,1.13.24,1.52h-.08Zm2.24-.48c.32-.46.32-1.06,0-1.52-.32-.47-.93-.64-1.44-.4l1.52,1.84-.08.08Z"/><path d="m81.95,260.61l-5.76.48c-1.92.16-2.96-.48-3.52-1.92l1.44-.64c.17.63.8,1.01,1.44.88l3.92-4.24.8,1.68-2.64,2.56,3.52-.48.72,1.6.08.08Z"/><path d="m80.51,268.53c-1.49.31-2.95-.65-3.26-2.14,0-.03-.01-.06-.02-.1-.14-.62,0-1.26.4-1.76l-2.72.4-.24-1.68,7.76-1.12.24,1.68h-.56c.5.39.82.97.88,1.6.16,1.52-.94,2.87-2.46,3.03-.03,0-.07,0-.1,0l.08.08Zm-.24-1.68c.69-.05,1.2-.65,1.15-1.34,0-.06-.01-.12-.03-.18-.03-.67-.6-1.19-1.27-1.16-.08,0-.17.02-.25.04-.69.05-1.2.65-1.15,1.34,0,.06.01.12.03.18.03.67.6,1.19,1.27,1.16.08,0,.17-.02.25-.04h0Z"/><path d="m82.37,275.89l-5.52-.88.24-1.68h.48c-.44-.44-.59-1.09-.4-1.68.44-1.58,2.08-2.51,3.66-2.08,1.35.37,2.26,1.64,2.18,3.04-.05.63-.41,1.2-.96,1.52h.48c0,.08-.24,1.76-.24,1.76h.08Zm-2.48-2.08c.65.17,1.31-.22,1.48-.87.02-.08.03-.16.04-.25.13-.7-.34-1.38-1.04-1.51-.03,0-.05,0-.08-.01-.65-.17-1.31.22-1.48.87-.02.08-.03.16-.04.25-.12.71.36,1.37,1.07,1.49.01,0,.02,0,.04,0l.02.02Z"/><path d="m81.07,284.37l-7.04-3.44.72-1.52.48.24c-.26-.57-.2-1.24.16-1.76.76-1.35,2.47-1.85,3.84-1.12,1.4.59,2.06,2.21,1.47,3.62,0,.02-.02.04-.03.06-.26.58-.76,1.01-1.36,1.2l2.48,1.2-.72,1.52Zm-3.76-3.76c.64.36,1.46.13,1.82-.52,0-.01.02-.03.02-.04.33-.61.1-1.37-.51-1.7-.04-.02-.08-.04-.13-.06-.64-.36-1.46-.13-1.82.52,0,.01-.02.03-.02.04-.33.61-.1,1.37.51,1.7.04.02.08.04.13.06h0Z"/><line class="cls-4" x1="197.68" y1="266.97" x2="197.68" y2="298.2"/><polygon class="cls-21" points="190.2 296.01 197.68 308.97 205.16 296.01 190.2 296.01"/><line class="cls-5" x1="162.71" y1="256.94" x2="140.45" y2="292.55"/><line class="cls-4" x1="162.71" y1="256.94" x2="146.15" y2="283.43"/><polygon class="cls-21" points="140.97 277.61 140.45 292.55 153.66 285.53 140.97 277.61"/><line class="cls-5" x1="138.36" y1="229.9" x2="100.61" y2="248.31"/><line class="cls-4" x1="138.36" y1="229.9" x2="110.29" y2="243.59"/><polygon class="cls-21" points="108.97 235.91 100.61 248.31 115.53 249.35 108.97 235.91"/><line class="cls-5" x1="132.04" y1="194.07" x2="90.27" y2="189.68"/><line class="cls-4" x1="132.04" y1="194.07" x2="100.98" y2="190.8"/><polygon class="cls-21" points="103.94 183.59 90.27 189.68 102.37 198.47 103.94 183.59"/><line class="cls-5" x1="145.67" y1="160.33" x2="112.58" y2="134.47"/><line class="cls-4" x1="145.67" y1="160.33" x2="121.06" y2="141.1"/><polygon class="cls-21" points="127.39 136.55 112.58 134.47 118.18 148.34 127.39 136.55"/><line class="cls-5" x1="175.11" y1="138.95" x2="160.74" y2="99.48"/><line class="cls-4" x1="175.11" y1="138.95" x2="164.42" y2="109.59"/><polygon class="cls-21" points="172.2 109.09 160.74 99.48 158.14 114.21 172.2 109.09"/><line class="cls-5" x1="211.4" y1="136.41" x2="220.14" y2="95.33"/><line class="cls-4" x1="211.4" y1="136.41" x2="217.9" y2="105.85"/><polygon class="cls-21" points="224.76 109.55 220.14 95.33 210.13 106.44 224.76 109.55"/><line class="cls-5" x1="243.53" y1="153.49" x2="272.7" y2="123.28"/><line class="cls-4" x1="243.53" y1="153.49" x2="265.23" y2="131.02"/><polygon class="cls-21" points="269.09 137.79 272.7 123.28 258.33 127.4 269.09 137.79"/><line class="cls-5" x1="261.72" y1="185" x2="302.47" y2="174.84"/><line class="cls-4" x1="261.72" y1="185" x2="292.03" y2="177.44"/><polygon class="cls-21" points="291.71 185.23 302.47 174.84 288.1 170.71 291.71 185.23"/><line class="cls-5" x1="260.45" y1="221.36" x2="300.39" y2="234.34"/><line class="cls-4" x1="260.45" y1="221.36" x2="290.16" y2="231.01"/><polygon class="cls-21" points="285.77 237.45 300.39 234.34 290.39 223.22 285.77 237.45"/><line class="cls-5" x1="240.11" y1="251.52" x2="267.1" y2="283.7"/><line class="cls-4" x1="240.11" y1="251.52" x2="260.18" y2="275.45"/><polygon class="cls-21" points="253.05 278.58 267.1 283.7 264.51 268.97 253.05 278.58"/><path class="cls-20" d="m61.18,177.76c.5,0,.99.02,1.49.02.84,0,1.54.69,1.55,1.54,0,.78,0,1.56,0,2.33,0,6.58,0,13.16,0,19.75,0,.43-.02.86-.15,1.28-.15.49-.75.93-1.27.93-5.57,0-11.15,0-16.72,0-.03,0-.05,0-.08,0,0-1.51,0-3.03,0-4.54,1.16,0,2.32,0,3.48-.01.15,0,.32.04.32-.21,0-.57.05-1.16-.08-1.71-.36-1.48-.79-2.95-1.17-4.43-.1-.4-.22-.79-.36-1.18-.22-.61.19-.92.56-1.25.6-.55.85-1.24.99-2.03.3-1.66-1.1-3.65-2.68-4.16-.05-.09-.12-.13-.22-.08-.08-.02-.16-.04-.24-.05-.04-.05-.08-.07-.14-.03-.15-.02-.31-.04-.46-.07,0-2.01,0-4.03,0-6.04,2.86,0,5.71,0,8.57-.02.18,0,.36-.01.53-.02,1.02.03,2.04.05,3.07,0,1,.06,2,.04,3.01,0Z"/><path class="cls-8" d="m46,199.05c0,1.51,0,3.03,0,4.54-.57,0-1.15.01-1.72.01-4.86,0-9.72-.02-14.58.02-1.28.01-1.94-.69-1.94-1.94.04-7.44.03-14.88,0-22.32,0-.89.72-1.6,1.57-1.59.5,0,.99-.01,1.49-.02,1,.03,2,.05,3-.01,1.02.06,2.04.03,3.06.01.17,0,.33.02.5.02,2.87,0,5.74,0,8.61.01,0,2.01,0,4.03,0,6.04-.32.15-.68.08-1.02.21-1.42.55-2.36,1.51-2.7,3.02-.06.03-.11.07-.03.14-.11,1.25.02,2.39,1.14,3.22.35.26.49.65.35,1.14-.09.3-.2.59-.27.9-.2.84-.42,1.66-.64,2.49-.16.61-.35,1.22-.5,1.83-.15.61-.11,1.23-.13,1.85-.01.31.07.42.4.41,1.14-.02,2.27,0,3.41,0Z"/><path class="cls-14" d="m33.83,177.75c-1,.06-2,.04-3,.01,0-2.7-.02-5.41.02-8.11.02-1.25.19-2.49.55-3.71.44-1.46,1.06-2.83,1.9-4.1,1.05-1.58,2.35-2.94,3.9-4.05,1.02-.73,2.09-1.38,3.27-1.78,1.17-.41,2.35-.81,3.61-.9.71-.05,1.41-.16,2.12-.14,1.77.03,3.47.38,5.13,1,1.65.62,3.14,1.52,4.5,2.65,1.17.97,2.13,2.12,2.94,3.4.58.9,1.03,1.86,1.42,2.87.21.55.36,1.12.55,1.68.17.51.21,1.06.27,1.6.35,3.19.08,6.39.17,9.58-1,.04-2,.05-3,0,0-2.28-.02-4.57.01-6.85.02-1.31-.15-2.6-.47-3.87-.45-1.78-1.28-3.39-2.48-4.76-1.47-1.68-3.26-2.95-5.42-3.64-1.53-.49-3.08-.64-4.69-.54-1.49.09-2.89.44-4.22,1.06-2.21,1.03-3.95,2.61-5.24,4.69-1.11,1.79-1.72,3.76-1.8,5.84-.1,2.69-.02,5.38-.02,8.08Z"/><path class="cls-7" d="m55.11,177.76c0-2.42.02-4.85,0-7.27-.01-1.29-.19-2.56-.71-3.76-.41-.95-.96-1.81-1.64-2.6-1.01-1.18-2.27-1.99-3.7-2.51-1.32-.48-2.7-.64-4.13-.46-.87.11-1.71.31-2.49.65-2.18.95-3.78,2.51-4.77,4.69-.46,1.02-.65,2.09-.7,3.2-.13,2.69-.02,5.38-.06,8.06-1.02.02-2.04.04-3.06-.01,0-2.69-.08-5.39.02-8.08.08-2.08.68-4.05,1.8-5.84,1.29-2.08,3.03-3.66,5.24-4.69,1.33-.62,2.73-.97,4.22-1.06,1.61-.09,3.16.06,4.69.54,2.16.69,3.94,1.95,5.42,3.64,1.2,1.38,2.03,2.98,2.48,4.76.32,1.27.49,2.55.47,3.87-.03,2.28-.01,4.57-.01,6.85-1.02.05-2.04.04-3.07,0Z"/><path class="cls-10" d="m46,199.05c-1.14,0-2.27-.02-3.41,0-.33,0-.41-.1-.4-.41.02-.62-.01-1.25.13-1.85.15-.62.34-1.22.5-1.83.22-.83.44-1.66.64-2.49.07-.31.18-.6.27-.9.14-.49,0-.88-.35-1.14-1.12-.83-1.25-1.97-1.14-3.22.06-.03.06-.08.03-.14.34-1.51,1.28-2.47,2.7-3.02.34-.13.7-.05,1.02-.21.15.02.31.04.46.07.03.08.07.12.14.03.08.02.16.04.24.05.04.11.14.08.22.08,1.58.51,2.98,2.5,2.68,4.16-.14.79-.4,1.48-.99,2.03-.36.33-.78.65-.56,1.25.14.39.25.78.36,1.18.38,1.48.81,2.94,1.17,4.43.13.55.09,1.14.08,1.71,0,.25-.17.21-.32.21-1.16,0-2.32,0-3.48.01Z"/><path class="cls-7" d="m47.07,184.07c-.09,0-.18.03-.22-.08.1-.05.17,0,.22.08Z"/><path class="cls-7" d="m46.6,183.94c-.07.09-.11.05-.14-.03.06-.03.1-.02.14.03Z"/><path class="cls-14" d="m42.28,187.06c.03.06.03.1-.03.14-.08-.07-.03-.1.03-.14Z"/><circle class="cls-2" cx="46.13" cy="181.6" r="39.02"/><path class="cls-20" d="m161.18,50.76c.5,0,.99.02,1.49.02.84,0,1.54.69,1.55,1.54,0,.78,0,1.56,0,2.33,0,6.58,0,13.16,0,19.75,0,.43-.02.86-.15,1.28-.15.49-.75.93-1.27.93-5.57,0-11.15,0-16.72,0-.03,0-.05,0-.08,0,0-1.51,0-3.03,0-4.54,1.16,0,2.32,0,3.48-.01.15,0,.32.04.32-.21,0-.57.05-1.16-.08-1.71-.36-1.48-.79-2.95-1.17-4.43-.1-.4-.22-.79-.36-1.18-.22-.61.19-.92.56-1.25.6-.55.85-1.24.99-2.03.3-1.66-1.1-3.65-2.68-4.16-.05-.09-.12-.13-.22-.08-.08-.02-.16-.04-.24-.05-.04-.05-.08-.07-.14-.03-.15-.02-.31-.04-.46-.07,0-2.01,0-4.03,0-6.04,2.86,0,5.71,0,8.57-.02.18,0,.36-.01.53-.02,1.02.03,2.04.05,3.07,0,1,.06,2,.04,3.01,0Z"/><path class="cls-8" d="m146,72.05c0,1.51,0,3.03,0,4.54-.57,0-1.15.01-1.72.01-4.86,0-9.72-.02-14.58.02-1.28.01-1.94-.69-1.94-1.94.04-7.44.03-14.88,0-22.32,0-.89.72-1.6,1.57-1.59.5,0,.99-.01,1.49-.02,1,.03,2,.05,3-.01,1.02.06,2.04.03,3.06.01.17,0,.33.02.5.02,2.87,0,5.74,0,8.61.01,0,2.01,0,4.03,0,6.04-.32.15-.68.08-1.02.21-1.42.55-2.36,1.51-2.7,3.02-.06.03-.11.07-.03.14-.11,1.25.02,2.39,1.14,3.22.35.26.49.65.35,1.14-.09.3-.2.59-.27.9-.2.84-.42,1.66-.64,2.49-.16.61-.35,1.22-.5,1.83-.15.61-.11,1.23-.13,1.85-.01.31.07.42.4.41,1.14-.02,2.27,0,3.41,0Z"/><path class="cls-14" d="m133.83,50.75c-1,.06-2,.04-3,.01,0-2.7-.02-5.41.02-8.11.02-1.25.19-2.49.55-3.71.44-1.46,1.06-2.83,1.9-4.1,1.05-1.58,2.35-2.94,3.9-4.05,1.02-.73,2.09-1.38,3.27-1.78,1.17-.41,2.35-.81,3.61-.9.71-.05,1.41-.16,2.12-.14,1.77.03,3.47.38,5.13,1,1.65.62,3.14,1.52,4.5,2.65,1.17.97,2.13,2.12,2.94,3.4.58.9,1.03,1.86,1.42,2.87.21.55.36,1.12.55,1.68.17.51.21,1.06.27,1.6.35,3.19.08,6.39.17,9.58-1,.04-2,.05-3,0,0-2.28-.02-4.57.01-6.85.02-1.31-.15-2.6-.47-3.87-.45-1.78-1.28-3.39-2.48-4.76-1.47-1.68-3.26-2.95-5.42-3.64-1.53-.49-3.08-.64-4.69-.54-1.49.09-2.89.44-4.22,1.06-2.21,1.03-3.95,2.61-5.24,4.69-1.11,1.79-1.72,3.76-1.8,5.84-.1,2.69-.02,5.38-.02,8.08Z"/><path class="cls-7" d="m155.11,50.76c0-2.42.02-4.85,0-7.27-.01-1.29-.19-2.56-.71-3.76-.41-.95-.96-1.81-1.64-2.6-1.01-1.18-2.27-1.99-3.7-2.51-1.32-.48-2.7-.64-4.13-.46-.87.11-1.71.31-2.49.65-2.18.95-3.78,2.51-4.77,4.69-.46,1.02-.65,2.09-.7,3.2-.13,2.69-.02,5.38-.06,8.06-1.02.02-2.04.04-3.06-.01,0-2.69-.08-5.39.02-8.08.08-2.08.68-4.05,1.8-5.84,1.29-2.08,3.03-3.66,5.24-4.69,1.33-.62,2.73-.97,4.22-1.06,1.61-.09,3.16.06,4.69.54,2.16.69,3.94,1.95,5.42,3.64,1.2,1.38,2.03,2.98,2.48,4.76.32,1.27.49,2.55.47,3.87-.03,2.28-.01,4.57-.01,6.85-1.02.05-2.04.04-3.07,0Z"/><path class="cls-10" d="m146,72.05c-1.14,0-2.27-.02-3.41,0-.33,0-.41-.1-.4-.41.02-.62-.01-1.25.13-1.85.15-.62.34-1.22.5-1.83.22-.83.44-1.66.64-2.49.07-.31.18-.6.27-.9.14-.49,0-.88-.35-1.14-1.12-.83-1.25-1.97-1.14-3.22.06-.03.06-.08.03-.14.34-1.51,1.28-2.47,2.7-3.02.34-.13.7-.05,1.02-.21.15.02.31.04.46.07.03.08.07.12.14.03.08.02.16.04.24.05.04.11.14.08.22.08,1.58.51,2.98,2.5,2.68,4.16-.14.79-.4,1.48-.99,2.03-.36.33-.78.65-.56,1.25.14.39.25.78.36,1.18.38,1.48.81,2.94,1.17,4.43.13.55.09,1.14.08,1.71,0,.25-.17.21-.32.21-1.16,0-2.32,0-3.48.01Z"/><path class="cls-7" d="m147.07,57.07c-.09,0-.18.03-.22-.08.1-.05.17,0,.22.08Z"/><path class="cls-7" d="m146.6,56.94c-.07.09-.11.05-.14-.03.06-.03.1-.02.14.03Z"/><path class="cls-14" d="m142.28,60.06c.03.06.03.1-.03.14-.08-.07-.03-.1.03-.14Z"/><circle class="cls-2" cx="146.13" cy="54.6" r="39.02"/><path class="cls-20" d="m87.18,92.76c.5,0,.99.02,1.49.02.84,0,1.54.69,1.55,1.54,0,.78,0,1.56,0,2.33,0,6.58,0,13.16,0,19.75,0,.43-.02.86-.15,1.28-.15.49-.75.93-1.27.93-5.57,0-11.15,0-16.72,0-.03,0-.05,0-.08,0,0-1.51,0-3.03,0-4.54,1.16,0,2.32,0,3.48-.01.15,0,.32.04.32-.21,0-.57.05-1.16-.08-1.71-.36-1.48-.79-2.95-1.17-4.43-.1-.4-.22-.79-.36-1.18-.22-.61.19-.92.56-1.25.6-.55.85-1.24.99-2.03.3-1.66-1.1-3.65-2.68-4.16-.05-.09-.12-.13-.22-.08-.08-.02-.16-.04-.24-.05-.04-.05-.08-.07-.14-.03-.15-.02-.31-.04-.46-.07,0-2.01,0-4.03,0-6.04,2.86,0,5.71,0,8.57-.02.18,0,.36-.01.53-.02,1.02.03,2.04.05,3.07,0,1,.06,2,.04,3.01,0Z"/><path class="cls-8" d="m72,114.05c0,1.51,0,3.03,0,4.54-.57,0-1.15.01-1.72.01-4.86,0-9.72-.02-14.58.02-1.28.01-1.94-.69-1.94-1.94.04-7.44.03-14.88,0-22.32,0-.89.72-1.6,1.57-1.59.5,0,.99-.01,1.49-.02,1,.03,2,.05,3-.01,1.02.06,2.04.03,3.06.01.17,0,.33.02.5.02,2.87,0,5.74,0,8.61.01,0,2.01,0,4.03,0,6.04-.32.15-.68.08-1.02.21-1.42.55-2.36,1.51-2.7,3.02-.06.03-.11.07-.03.14-.11,1.25.02,2.39,1.14,3.22.35.26.49.65.35,1.14-.09.3-.2.59-.27.9-.2.84-.42,1.66-.64,2.49-.16.61-.35,1.22-.5,1.83-.15.61-.11,1.23-.13,1.85-.01.31.07.42.4.41,1.14-.02,2.27,0,3.41,0Z"/><path class="cls-14" d="m59.83,92.75c-1,.06-2,.04-3,.01,0-2.7-.02-5.41.02-8.11.02-1.25.19-2.49.55-3.71.44-1.46,1.06-2.83,1.9-4.1,1.05-1.58,2.35-2.94,3.9-4.05,1.02-.73,2.09-1.38,3.27-1.78,1.17-.41,2.35-.81,3.61-.9.71-.05,1.41-.16,2.12-.14,1.77.03,3.47.38,5.13,1,1.65.62,3.14,1.52,4.5,2.65,1.17.97,2.13,2.12,2.94,3.4.58.9,1.03,1.86,1.42,2.87.21.55.36,1.12.55,1.68.17.51.21,1.06.27,1.6.35,3.19.08,6.39.17,9.58-1,.04-2,.05-3,0,0-2.28-.02-4.57.01-6.85.02-1.31-.15-2.6-.47-3.87-.45-1.78-1.28-3.39-2.48-4.76-1.47-1.68-3.26-2.95-5.42-3.64-1.53-.49-3.08-.64-4.69-.54-1.49.09-2.89.44-4.22,1.06-2.21,1.03-3.95,2.61-5.24,4.69-1.11,1.79-1.72,3.76-1.8,5.84-.1,2.69-.02,5.38-.02,8.08Z"/><path class="cls-7" d="m81.11,92.76c0-2.42.02-4.85,0-7.27-.01-1.29-.19-2.56-.71-3.76-.41-.95-.96-1.81-1.64-2.6-1.01-1.18-2.27-1.99-3.7-2.51-1.32-.48-2.7-.64-4.13-.46-.87.11-1.71.31-2.49.65-2.18.95-3.78,2.51-4.77,4.69-.46,1.02-.65,2.09-.7,3.2-.13,2.69-.02,5.38-.06,8.06-1.02.02-2.04.04-3.06-.01,0-2.69-.08-5.39.02-8.08.08-2.08.68-4.05,1.8-5.84,1.29-2.08,3.03-3.66,5.24-4.69,1.33-.62,2.73-.97,4.22-1.06,1.61-.09,3.16.06,4.69.54,2.16.69,3.94,1.95,5.42,3.64,1.2,1.38,2.03,2.98,2.48,4.76.32,1.27.49,2.55.47,3.87-.03,2.28-.01,4.57-.01,6.85-1.02.05-2.04.04-3.07,0Z"/><path class="cls-10" d="m72,114.05c-1.14,0-2.27-.02-3.41,0-.33,0-.41-.1-.4-.41.02-.62-.01-1.25.13-1.85.15-.62.34-1.22.5-1.83.22-.83.44-1.66.64-2.49.07-.31.18-.6.27-.9.14-.49,0-.88-.35-1.14-1.12-.83-1.25-1.97-1.14-3.22.06-.03.06-.08.03-.14.34-1.51,1.28-2.47,2.7-3.02.34-.13.7-.05,1.02-.21.15.02.31.04.46.07.03.08.07.12.14.03.08.02.16.04.24.05.04.11.14.08.22.08,1.58.51,2.98,2.5,2.68,4.16-.14.79-.4,1.48-.99,2.03-.36.33-.78.65-.56,1.25.14.39.25.78.36,1.18.38,1.48.81,2.94,1.17,4.43.13.55.09,1.14.08,1.71,0,.25-.17.21-.32.21-1.16,0-2.32,0-3.48.01Z"/><path class="cls-7" d="m73.07,99.07c-.09,0-.18.03-.22-.08.1-.05.17,0,.22.08Z"/><path class="cls-7" d="m72.6,98.94c-.07.09-.11.05-.14-.03.06-.03.1-.02.14.03Z"/><path class="cls-14" d="m68.28,102.06c.03.06.03.1-.03.14-.08-.07-.03-.1.03-.14Z"/><circle class="cls-2" cx="72.13" cy="96.6" r="39.02"/><path class="cls-20" d="m258.18,46.76c.5,0,.99.02,1.49.02.84,0,1.54.69,1.55,1.54,0,.78,0,1.56,0,2.33,0,6.58,0,13.16,0,19.75,0,.43-.02.86-.15,1.28-.15.49-.75.93-1.27.93-5.57,0-11.15,0-16.72,0-.03,0-.05,0-.08,0,0-1.51,0-3.03,0-4.54,1.16,0,2.32,0,3.48-.01.15,0,.32.04.32-.21,0-.57.05-1.16-.08-1.71-.36-1.48-.79-2.95-1.17-4.43-.1-.4-.22-.79-.36-1.18-.22-.61.19-.92.56-1.25.6-.55.85-1.24.99-2.03.3-1.66-1.1-3.65-2.68-4.16-.05-.09-.12-.13-.22-.08-.08-.02-.16-.04-.24-.05-.04-.05-.08-.07-.14-.03-.15-.02-.31-.04-.46-.07,0-2.01,0-4.03,0-6.04,2.86,0,5.71,0,8.57-.02.18,0,.36-.01.53-.02,1.02.03,2.04.05,3.07,0,1,.06,2,.04,3.01,0Z"/><path class="cls-8" d="m243,68.05c0,1.51,0,3.03,0,4.54-.57,0-1.15.01-1.72.01-4.86,0-9.72-.02-14.58.02-1.28.01-1.94-.69-1.94-1.94.04-7.44.03-14.88,0-22.32,0-.89.72-1.6,1.57-1.59.5,0,.99-.01,1.49-.02,1,.03,2,.05,3-.01,1.02.06,2.04.03,3.06.01.17,0,.33.02.5.02,2.87,0,5.74,0,8.61.01,0,2.01,0,4.03,0,6.04-.32.15-.68.08-1.02.21-1.42.55-2.36,1.51-2.7,3.02-.06.03-.11.07-.03.14-.11,1.25.02,2.39,1.14,3.22.35.26.49.65.35,1.14-.09.3-.2.59-.27.9-.2.84-.42,1.66-.64,2.49-.16.61-.35,1.22-.5,1.83-.15.61-.11,1.23-.13,1.85-.01.31.07.42.4.41,1.14-.02,2.27,0,3.41,0Z"/><path class="cls-14" d="m230.83,46.75c-1,.06-2,.04-3,.01,0-2.7-.02-5.41.02-8.11.02-1.25.19-2.49.55-3.71.44-1.46,1.06-2.83,1.9-4.1,1.05-1.58,2.35-2.94,3.9-4.05,1.02-.73,2.09-1.38,3.27-1.78,1.17-.41,2.35-.81,3.61-.9.71-.05,1.41-.16,2.12-.14,1.77.03,3.47.38,5.13,1,1.65.62,3.14,1.52,4.5,2.65,1.17.97,2.13,2.12,2.94,3.4.58.9,1.03,1.86,1.42,2.87.21.55.36,1.12.55,1.68.17.51.21,1.06.27,1.6.35,3.19.08,6.39.17,9.58-1,.04-2,.05-3,0,0-2.28-.02-4.57.01-6.85.02-1.31-.15-2.6-.47-3.87-.45-1.78-1.28-3.39-2.48-4.76-1.47-1.68-3.26-2.95-5.42-3.64-1.53-.49-3.08-.64-4.69-.54-1.49.09-2.89.44-4.22,1.06-2.21,1.03-3.95,2.61-5.24,4.69-1.11,1.79-1.72,3.76-1.8,5.84-.1,2.69-.02,5.38-.02,8.08Z"/><path class="cls-7" d="m252.11,46.76c0-2.42.02-4.85,0-7.27-.01-1.29-.19-2.56-.71-3.76-.41-.95-.96-1.81-1.64-2.6-1.01-1.18-2.27-1.99-3.7-2.51-1.32-.48-2.7-.64-4.13-.46-.87.11-1.71.31-2.49.65-2.18.95-3.78,2.51-4.77,4.69-.46,1.02-.65,2.09-.7,3.2-.13,2.69-.02,5.38-.06,8.06-1.02.02-2.04.04-3.06-.01,0-2.69-.08-5.39.02-8.08.08-2.08.68-4.05,1.8-5.84,1.29-2.08,3.03-3.66,5.24-4.69,1.33-.62,2.73-.97,4.22-1.06,1.61-.09,3.16.06,4.69.54,2.16.69,3.94,1.95,5.42,3.64,1.2,1.38,2.03,2.98,2.48,4.76.32,1.27.49,2.55.47,3.87-.03,2.28-.01,4.57-.01,6.85-1.02.05-2.04.04-3.07,0Z"/><path class="cls-10" d="m243,68.05c-1.14,0-2.27-.02-3.41,0-.33,0-.41-.1-.4-.41.02-.62-.01-1.25.13-1.85.15-.62.34-1.22.5-1.83.22-.83.44-1.66.64-2.49.07-.31.18-.6.27-.9.14-.49,0-.88-.35-1.14-1.12-.83-1.25-1.97-1.14-3.22.06-.03.06-.08.03-.14.34-1.51,1.28-2.47,2.7-3.02.34-.13.7-.05,1.02-.21.15.02.31.04.46.07.03.08.07.12.14.03.08.02.16.04.24.05.04.11.14.08.22.08,1.58.51,2.98,2.5,2.68,4.16-.14.79-.4,1.48-.99,2.03-.36.33-.78.65-.56,1.25.14.39.25.78.36,1.18.38,1.48.81,2.94,1.17,4.43.13.55.09,1.14.08,1.71,0,.25-.17.21-.32.21-1.16,0-2.32,0-3.48.01Z"/><path class="cls-7" d="m244.07,53.07c-.09,0-.18.03-.22-.08.1-.05.17,0,.22.08Z"/><path class="cls-7" d="m243.6,52.94c-.07.09-.11.05-.14-.03.06-.03.1-.02.14.03Z"/><path class="cls-14" d="m239.28,56.06c.03.06.03.1-.03.14-.08-.07-.03-.1.03-.14Z"/><circle class="cls-2" cx="243.13" cy="50.6" r="39.02"/><path class="cls-20" d="m337.18,83.76c.5,0,.99.02,1.49.02.84,0,1.54.69,1.55,1.54,0,.78,0,1.56,0,2.33,0,6.58,0,13.16,0,19.75,0,.43-.02.86-.15,1.28-.15.49-.75.93-1.27.93-5.57,0-11.15,0-16.72,0-.03,0-.05,0-.08,0,0-1.51,0-3.03,0-4.54,1.16,0,2.32,0,3.48-.01.15,0,.32.04.32-.21,0-.57.05-1.16-.08-1.71-.36-1.48-.79-2.95-1.17-4.43-.1-.4-.22-.79-.36-1.18-.22-.61.19-.92.56-1.25.6-.55.85-1.24.99-2.03.3-1.66-1.1-3.65-2.68-4.16-.05-.09-.12-.13-.22-.08-.08-.02-.16-.04-.24-.05-.04-.05-.08-.07-.14-.03-.15-.02-.31-.04-.46-.07,0-2.01,0-4.03,0-6.04,2.86,0,5.71,0,8.57-.02.18,0,.36-.01.53-.02,1.02.03,2.04.05,3.07,0,1,.06,2,.04,3.01,0Z"/><path class="cls-8" d="m322,105.05c0,1.51,0,3.03,0,4.54-.57,0-1.15.01-1.72.01-4.86,0-9.72-.02-14.58.02-1.28.01-1.94-.69-1.94-1.94.04-7.44.03-14.88,0-22.32,0-.89.72-1.6,1.57-1.59.5,0,.99-.01,1.49-.02,1,.03,2,.05,3-.01,1.02.06,2.04.03,3.06.01.17,0,.33.02.5.02,2.87,0,5.74,0,8.61.01,0,2.01,0,4.03,0,6.04-.32.15-.68.08-1.02.21-1.42.55-2.36,1.51-2.7,3.02-.06.03-.11.07-.03.14-.11,1.25.02,2.39,1.14,3.22.35.26.49.65.35,1.14-.09.3-.2.59-.27.9-.2.84-.42,1.66-.64,2.49-.16.61-.35,1.22-.5,1.83-.15.61-.11,1.23-.13,1.85-.01.31.07.42.4.41,1.14-.02,2.27,0,3.41,0Z"/><path class="cls-14" d="m309.83,83.75c-1,.06-2,.04-3,.01,0-2.7-.02-5.41.02-8.11.02-1.25.19-2.49.55-3.71.44-1.46,1.06-2.83,1.9-4.1,1.05-1.58,2.35-2.94,3.9-4.05,1.02-.73,2.09-1.38,3.27-1.78,1.17-.41,2.35-.81,3.61-.9.71-.05,1.41-.16,2.12-.14,1.77.03,3.47.38,5.13,1,1.65.62,3.14,1.52,4.5,2.65,1.17.97,2.13,2.12,2.94,3.4.58.9,1.03,1.86,1.42,2.87.21.55.36,1.12.55,1.68.17.51.21,1.06.27,1.6.35,3.19.08,6.39.17,9.58-1,.04-2,.05-3,0,0-2.28-.02-4.57.01-6.85.02-1.31-.15-2.6-.47-3.87-.45-1.78-1.28-3.39-2.48-4.76-1.47-1.68-3.26-2.95-5.42-3.64-1.53-.49-3.08-.64-4.69-.54-1.49.09-2.89.44-4.22,1.06-2.21,1.03-3.95,2.61-5.24,4.69-1.11,1.79-1.72,3.76-1.8,5.84-.1,2.69-.02,5.38-.02,8.08Z"/><path class="cls-7" d="m331.11,83.76c0-2.42.02-4.85,0-7.27-.01-1.29-.19-2.56-.71-3.76-.41-.95-.96-1.81-1.64-2.6-1.01-1.18-2.27-1.99-3.7-2.51-1.32-.48-2.7-.64-4.13-.46-.87.11-1.71.31-2.49.65-2.18.95-3.78,2.51-4.77,4.69-.46,1.02-.65,2.09-.7,3.2-.13,2.69-.02,5.38-.06,8.06-1.02.02-2.04.04-3.06-.01,0-2.69-.08-5.39.02-8.08.08-2.08.68-4.05,1.8-5.84,1.29-2.08,3.03-3.66,5.24-4.69,1.33-.62,2.73-.97,4.22-1.06,1.61-.09,3.16.06,4.69.54,2.16.69,3.94,1.95,5.42,3.64,1.2,1.38,2.03,2.98,2.48,4.76.32,1.27.49,2.55.47,3.87-.03,2.28-.01,4.57-.01,6.85-1.02.05-2.04.04-3.07,0Z"/><path class="cls-10" d="m322,105.05c-1.14,0-2.27-.02-3.41,0-.33,0-.41-.1-.4-.41.02-.62-.01-1.25.13-1.85.15-.62.34-1.22.5-1.83.22-.83.44-1.66.64-2.49.07-.31.18-.6.27-.9.14-.49,0-.88-.35-1.14-1.12-.83-1.25-1.97-1.14-3.22.06-.03.06-.08.03-.14.34-1.51,1.28-2.47,2.7-3.02.34-.13.7-.05,1.02-.21.15.02.31.04.46.07.03.08.07.12.14.03.08.02.16.04.24.05.04.11.14.08.22.08,1.58.51,2.98,2.5,2.68,4.16-.14.79-.4,1.48-.99,2.03-.36.33-.78.65-.56,1.25.14.39.25.78.36,1.18.38,1.48.81,2.94,1.17,4.43.13.55.09,1.14.08,1.71,0,.25-.17.21-.32.21-1.16,0-2.32,0-3.48.01Z"/><path class="cls-7" d="m323.07,90.07c-.09,0-.18.03-.22-.08.1-.05.17,0,.22.08Z"/><path class="cls-7" d="m322.6,89.94c-.07.09-.11.05-.14-.03.06-.03.1-.02.14.03Z"/><path class="cls-14" d="m318.28,93.06c.03.06.03.1-.03.14-.08-.07-.03-.1.03-.14Z"/><circle class="cls-2" cx="322.13" cy="87.6" r="39.02"/><path class="cls-20" d="m365.18,165.76c.5,0,.99.02,1.49.02.84,0,1.54.69,1.55,1.54,0,.78,0,1.56,0,2.33,0,6.58,0,13.16,0,19.75,0,.43-.02.86-.15,1.28-.15.49-.75.93-1.27.93-5.57,0-11.15,0-16.72,0-.03,0-.05,0-.08,0,0-1.51,0-3.03,0-4.54,1.16,0,2.32,0,3.48-.01.15,0,.32.04.32-.21,0-.57.05-1.16-.08-1.71-.36-1.48-.79-2.95-1.17-4.43-.1-.4-.22-.79-.36-1.18-.22-.61.19-.92.56-1.25.6-.55.85-1.24.99-2.03.3-1.66-1.1-3.65-2.68-4.16-.05-.09-.12-.13-.22-.08-.08-.02-.16-.04-.24-.05-.04-.05-.08-.07-.14-.03-.15-.02-.31-.04-.46-.07,0-2.01,0-4.03,0-6.04,2.86,0,5.71,0,8.57-.02.18,0,.36-.01.53-.02,1.02.03,2.04.05,3.07,0,1,.06,2,.04,3.01,0Z"/><path class="cls-8" d="m350,187.05c0,1.51,0,3.03,0,4.54-.57,0-1.15.01-1.72.01-4.86,0-9.72-.02-14.58.02-1.28.01-1.94-.69-1.94-1.94.04-7.44.03-14.88,0-22.32,0-.89.72-1.6,1.57-1.59.5,0,.99-.01,1.49-.02,1,.03,2,.05,3-.01,1.02.06,2.04.03,3.06.01.17,0,.33.02.5.02,2.87,0,5.74,0,8.61.01,0,2.01,0,4.03,0,6.04-.32.15-.68.08-1.02.21-1.42.55-2.36,1.51-2.7,3.02-.06.03-.11.07-.03.14-.11,1.25.02,2.39,1.14,3.22.35.26.49.65.35,1.14-.09.3-.2.59-.27.9-.2.84-.42,1.66-.64,2.49-.16.61-.35,1.22-.5,1.83-.15.61-.11,1.23-.13,1.85-.01.31.07.42.4.41,1.14-.02,2.27,0,3.41,0Z"/><path class="cls-14" d="m337.83,165.75c-1,.06-2,.04-3,.01,0-2.7-.02-5.41.02-8.11.02-1.25.19-2.49.55-3.71.44-1.46,1.06-2.83,1.9-4.1,1.05-1.58,2.35-2.94,3.9-4.05,1.02-.73,2.09-1.38,3.27-1.78,1.17-.41,2.35-.81,3.61-.9.71-.05,1.41-.16,2.12-.14,1.77.03,3.47.38,5.13,1,1.65.62,3.14,1.52,4.5,2.65,1.17.97,2.13,2.12,2.94,3.4.58.9,1.03,1.86,1.42,2.87.21.55.36,1.12.55,1.68.17.51.21,1.06.27,1.6.35,3.19.08,6.39.17,9.58-1,.04-2,.05-3,0,0-2.28-.02-4.57.01-6.85.02-1.31-.15-2.6-.47-3.87-.45-1.78-1.28-3.39-2.48-4.76-1.47-1.68-3.26-2.95-5.42-3.64-1.53-.49-3.08-.64-4.69-.54-1.49.09-2.89.44-4.22,1.06-2.21,1.03-3.95,2.61-5.24,4.69-1.11,1.79-1.72,3.76-1.8,5.84-.1,2.69-.02,5.38-.02,8.08Z"/><path class="cls-7" d="m359.11,165.76c0-2.42.02-4.85,0-7.27-.01-1.29-.19-2.56-.71-3.76-.41-.95-.96-1.81-1.64-2.6-1.01-1.18-2.27-1.99-3.7-2.51-1.32-.48-2.7-.64-4.13-.46-.87.11-1.71.31-2.49.65-2.18.95-3.78,2.51-4.77,4.69-.46,1.02-.65,2.09-.7,3.2-.13,2.69-.02,5.38-.06,8.06-1.02.02-2.04.04-3.06-.01,0-2.69-.08-5.39.02-8.08.08-2.08.68-4.05,1.8-5.84,1.29-2.08,3.03-3.66,5.24-4.69,1.33-.62,2.73-.97,4.22-1.06,1.61-.09,3.16.06,4.69.54,2.16.69,3.94,1.95,5.42,3.64,1.2,1.38,2.03,2.98,2.48,4.76.32,1.27.49,2.55.47,3.87-.03,2.28-.01,4.57-.01,6.85-1.02.05-2.04.04-3.07,0Z"/><path class="cls-10" d="m350,187.05c-1.14,0-2.27-.02-3.41,0-.33,0-.41-.1-.4-.41.02-.62-.01-1.25.13-1.85.15-.62.34-1.22.5-1.83.22-.83.44-1.66.64-2.49.07-.31.18-.6.27-.9.14-.49,0-.88-.35-1.14-1.12-.83-1.25-1.97-1.14-3.22.06-.03.06-.08.03-.14.34-1.51,1.28-2.47,2.7-3.02.34-.13.7-.05,1.02-.21.15.02.31.04.46.07.03.08.07.12.14.03.08.02.16.04.24.05.04.11.14.08.22.08,1.58.51,2.98,2.5,2.68,4.16-.14.79-.4,1.48-.99,2.03-.36.33-.78.65-.56,1.25.14.39.25.78.36,1.18.38,1.48.81,2.94,1.17,4.43.13.55.09,1.14.08,1.71,0,.25-.17.21-.32.21-1.16,0-2.32,0-3.48.01Z"/><path class="cls-7" d="m351.07,172.07c-.09,0-.18.03-.22-.08.1-.05.17,0,.22.08Z"/><path class="cls-7" d="m350.6,171.94c-.07.09-.11.05-.14-.03.06-.03.1-.02.14.03Z"/><path class="cls-14" d="m346.28,175.06c.03.06.03.1-.03.14-.08-.07-.03-.1.03-.14Z"/><circle class="cls-2" cx="350.13" cy="169.6" r="39.02"/><path class="cls-20" d="m212.18,350.76c.5,0,.99.02,1.49.02.84,0,1.54.69,1.55,1.54,0,.78,0,1.56,0,2.33,0,6.58,0,13.16,0,19.75,0,.43-.02.86-.15,1.28-.15.49-.75.93-1.27.93-5.57,0-11.15,0-16.72,0-.03,0-.05,0-.08,0,0-1.51,0-3.03,0-4.54,1.16,0,2.32,0,3.48-.01.15,0,.32.04.32-.21,0-.57.05-1.16-.08-1.71-.36-1.48-.79-2.95-1.17-4.43-.1-.4-.22-.79-.36-1.18-.22-.61.19-.92.56-1.25.6-.55.85-1.24.99-2.03.3-1.66-1.1-3.65-2.68-4.16-.05-.09-.12-.13-.22-.08-.08-.02-.16-.04-.24-.05-.04-.05-.08-.07-.14-.03-.15-.02-.31-.04-.46-.07,0-2.01,0-4.03,0-6.04,2.86,0,5.71,0,8.57-.02.18,0,.36-.01.53-.02,1.02.03,2.04.05,3.07,0,1,.06,2,.04,3.01,0Z"/><path class="cls-8" d="m197,372.05c0,1.51,0,3.03,0,4.54-.57,0-1.15.01-1.72.01-4.86,0-9.72-.02-14.58.02-1.28.01-1.94-.69-1.94-1.94.04-7.44.03-14.88,0-22.32,0-.89.72-1.6,1.57-1.59.5,0,.99-.01,1.49-.02,1,.03,2,.05,3-.01,1.02.06,2.04.03,3.06.01.17,0,.33.02.5.02,2.87,0,5.74,0,8.61.01,0,2.01,0,4.03,0,6.04-.32.15-.68.08-1.02.21-1.42.55-2.36,1.51-2.7,3.02-.06.03-.11.07-.03.14-.11,1.25.02,2.39,1.14,3.22.35.26.49.65.35,1.14-.09.3-.2.59-.27.9-.2.84-.42,1.66-.64,2.49-.16.61-.35,1.22-.5,1.83-.15.61-.11,1.23-.13,1.85-.01.31.07.42.4.41,1.14-.02,2.27,0,3.41,0Z"/><path class="cls-14" d="m184.83,350.75c-1,.06-2,.04-3,.01,0-2.7-.02-5.41.02-8.11.02-1.25.19-2.49.55-3.71.44-1.46,1.06-2.83,1.9-4.1,1.05-1.58,2.35-2.94,3.9-4.05,1.02-.73,2.09-1.38,3.27-1.78,1.17-.41,2.35-.81,3.61-.9.71-.05,1.41-.16,2.12-.14,1.77.03,3.47.38,5.13,1,1.65.62,3.14,1.52,4.5,2.65,1.17.97,2.13,2.12,2.94,3.4.58.9,1.03,1.86,1.42,2.87.21.55.36,1.12.55,1.68.17.51.21,1.06.27,1.6.35,3.19.08,6.39.17,9.58-1,.04-2,.05-3,0,0-2.28-.02-4.57.01-6.85.02-1.31-.15-2.6-.47-3.87-.45-1.78-1.28-3.39-2.48-4.76-1.47-1.68-3.26-2.95-5.42-3.64-1.53-.49-3.08-.64-4.69-.54-1.49.09-2.89.44-4.22,1.06-2.21,1.03-3.95,2.61-5.24,4.69-1.11,1.79-1.72,3.76-1.8,5.84-.1,2.69-.02,5.38-.02,8.08Z"/><path class="cls-7" d="m206.11,350.76c0-2.42.02-4.85,0-7.27-.01-1.29-.19-2.56-.71-3.76-.41-.95-.96-1.81-1.64-2.6-1.01-1.18-2.27-1.99-3.7-2.51-1.32-.48-2.7-.64-4.13-.46-.87.11-1.71.31-2.49.65-2.18.95-3.78,2.51-4.77,4.69-.46,1.02-.65,2.09-.7,3.2-.13,2.69-.02,5.38-.06,8.06-1.02.02-2.04.04-3.06-.01,0-2.69-.08-5.39.02-8.08.08-2.08.68-4.05,1.8-5.84,1.29-2.08,3.03-3.66,5.24-4.69,1.33-.62,2.73-.97,4.22-1.06,1.61-.09,3.16.06,4.69.54,2.16.69,3.94,1.95,5.42,3.64,1.2,1.38,2.03,2.98,2.48,4.76.32,1.27.49,2.55.47,3.87-.03,2.28-.01,4.57-.01,6.85-1.02.05-2.04.04-3.07,0Z"/><path class="cls-10" d="m197,372.05c-1.14,0-2.27-.02-3.41,0-.33,0-.41-.1-.4-.41.02-.62-.01-1.25.13-1.85.15-.62.34-1.22.5-1.83.22-.83.44-1.66.64-2.49.07-.31.18-.6.27-.9.14-.49,0-.88-.35-1.14-1.12-.83-1.25-1.97-1.14-3.22.06-.03.06-.08.03-.14.34-1.51,1.28-2.47,2.7-3.02.34-.13.7-.05,1.02-.21.15.02.31.04.46.07.03.08.07.12.14.03.08.02.16.04.24.05.04.11.14.08.22.08,1.58.51,2.98,2.5,2.68,4.16-.14.79-.4,1.48-.99,2.03-.36.33-.78.65-.56,1.25.14.39.25.78.36,1.18.38,1.48.81,2.94,1.17,4.43.13.55.09,1.14.08,1.71,0,.25-.17.21-.32.21-1.16,0-2.32,0-3.48.01Z"/><path class="cls-7" d="m198.07,357.07c-.09,0-.18.03-.22-.08.1-.05.17,0,.22.08Z"/><path class="cls-7" d="m197.6,356.94c-.07.09-.11.05-.14-.03.06-.03.1-.02.14.03Z"/><path class="cls-14" d="m193.28,360.06c.03.06.03.1-.03.14-.08-.07-.03-.1.03-.14Z"/><circle class="cls-2" cx="197.13" cy="354.6" r="39.02"/><path class="cls-20" d="m129.18,329.76c.5,0,.99.02,1.49.02.84,0,1.54.69,1.55,1.54,0,.78,0,1.56,0,2.33,0,6.58,0,13.16,0,19.75,0,.43-.02.86-.15,1.28-.15.49-.75.93-1.27.93-5.57,0-11.15,0-16.72,0-.03,0-.05,0-.08,0,0-1.51,0-3.03,0-4.54,1.16,0,2.32,0,3.48-.01.15,0,.32.04.32-.21,0-.57.05-1.16-.08-1.71-.36-1.48-.79-2.95-1.17-4.43-.1-.4-.22-.79-.36-1.18-.22-.61.19-.92.56-1.25.6-.55.85-1.24.99-2.03.3-1.66-1.1-3.65-2.68-4.16-.05-.09-.12-.13-.22-.08-.08-.02-.16-.04-.24-.05-.04-.05-.08-.07-.14-.03-.15-.02-.31-.04-.46-.07,0-2.01,0-4.03,0-6.04,2.86,0,5.71,0,8.57-.02.18,0,.36-.01.53-.02,1.02.03,2.04.05,3.07,0,1,.06,2,.04,3.01,0Z"/><path class="cls-8" d="m114,351.05c0,1.51,0,3.03,0,4.54-.57,0-1.15.01-1.72.01-4.86,0-9.72-.02-14.58.02-1.28.01-1.94-.69-1.94-1.94.04-7.44.03-14.88,0-22.32,0-.89.72-1.6,1.57-1.59.5,0,.99-.01,1.49-.02,1,.03,2,.05,3-.01,1.02.06,2.04.03,3.06.01.17,0,.33.02.5.02,2.87,0,5.74,0,8.61.01,0,2.01,0,4.03,0,6.04-.32.15-.68.08-1.02.21-1.42.55-2.36,1.51-2.7,3.02-.06.03-.11.07-.03.14-.11,1.25.02,2.39,1.14,3.22.35.26.49.65.35,1.14-.09.3-.2.59-.27.9-.2.84-.42,1.66-.64,2.49-.16.61-.35,1.22-.5,1.83-.15.61-.11,1.23-.13,1.85-.01.31.07.42.4.41,1.14-.02,2.27,0,3.41,0Z"/><path class="cls-14" d="m101.83,329.75c-1,.06-2,.04-3,.01,0-2.7-.02-5.41.02-8.11.02-1.25.19-2.49.55-3.71.44-1.46,1.06-2.83,1.9-4.1,1.05-1.58,2.35-2.94,3.9-4.05,1.02-.73,2.09-1.38,3.27-1.78,1.17-.41,2.35-.81,3.61-.9.71-.05,1.41-.16,2.12-.14,1.77.03,3.47.38,5.13,1,1.65.62,3.14,1.52,4.5,2.65,1.17.97,2.13,2.12,2.94,3.4.58.9,1.03,1.86,1.42,2.87.21.55.36,1.12.55,1.68.17.51.21,1.06.27,1.6.35,3.19.08,6.39.17,9.58-1,.04-2,.05-3,0,0-2.28-.02-4.57.01-6.85.02-1.31-.15-2.6-.47-3.87-.45-1.78-1.28-3.39-2.48-4.76-1.47-1.68-3.26-2.95-5.42-3.64-1.53-.49-3.08-.64-4.69-.54-1.49.09-2.89.44-4.22,1.06-2.21,1.03-3.95,2.61-5.24,4.69-1.11,1.79-1.72,3.76-1.8,5.84-.1,2.69-.02,5.38-.02,8.08Z"/><path class="cls-7" d="m123.11,329.76c0-2.42.02-4.85,0-7.27-.01-1.29-.19-2.56-.71-3.76-.41-.95-.96-1.81-1.64-2.6-1.01-1.18-2.27-1.99-3.7-2.51-1.32-.48-2.7-.64-4.13-.46-.87.11-1.71.31-2.49.65-2.18.95-3.78,2.51-4.77,4.69-.46,1.02-.65,2.09-.7,3.2-.13,2.69-.02,5.38-.06,8.06-1.02.02-2.04.04-3.06-.01,0-2.69-.08-5.39.02-8.08.08-2.08.68-4.05,1.8-5.84,1.29-2.08,3.03-3.66,5.24-4.69,1.33-.62,2.73-.97,4.22-1.06,1.61-.09,3.16.06,4.69.54,2.16.69,3.94,1.95,5.42,3.64,1.2,1.38,2.03,2.98,2.48,4.76.32,1.27.49,2.55.47,3.87-.03,2.28-.01,4.57-.01,6.85-1.02.05-2.04.04-3.07,0Z"/><path class="cls-10" d="m114,351.05c-1.14,0-2.27-.02-3.41,0-.33,0-.41-.1-.4-.41.02-.62-.01-1.25.13-1.85.15-.62.34-1.22.5-1.83.22-.83.44-1.66.64-2.49.07-.31.18-.6.27-.9.14-.49,0-.88-.35-1.14-1.12-.83-1.25-1.97-1.14-3.22.06-.03.06-.08.03-.14.34-1.51,1.28-2.47,2.7-3.02.34-.13.7-.05,1.02-.21.15.02.31.04.46.07.03.08.07.12.14.03.08.02.16.04.24.05.04.11.14.08.22.08,1.58.51,2.98,2.5,2.68,4.16-.14.79-.4,1.48-.99,2.03-.36.33-.78.65-.56,1.25.14.39.25.78.36,1.18.38,1.48.81,2.94,1.17,4.43.13.55.09,1.14.08,1.71,0,.25-.17.21-.32.21-1.16,0-2.32,0-3.48.01Z"/><path class="cls-7" d="m115.07,336.07c-.09,0-.18.03-.22-.08.1-.05.17,0,.22.08Z"/><path class="cls-7" d="m114.6,335.94c-.07.09-.11.05-.14-.03.06-.03.1-.02.14.03Z"/><path class="cls-14" d="m110.28,339.06c.03.06.03.1-.03.14-.08-.07-.03-.1.03-.14Z"/><circle class="cls-2" cx="114.13" cy="333.6" r="39.02"/><path class="cls-20" d="m361.18,258.76c.5,0,.99.02,1.49.02.84,0,1.54.69,1.55,1.54,0,.78,0,1.56,0,2.33,0,6.58,0,13.16,0,19.75,0,.43-.02.86-.15,1.28-.15.49-.75.93-1.27.93-5.57,0-11.15,0-16.72,0-.03,0-.05,0-.08,0,0-1.51,0-3.03,0-4.54,1.16,0,2.32,0,3.48-.01.15,0,.32.04.32-.21,0-.57.05-1.16-.08-1.71-.36-1.48-.79-2.95-1.17-4.43-.1-.4-.22-.79-.36-1.18-.22-.61.19-.92.56-1.25.6-.55.85-1.24.99-2.03.3-1.66-1.1-3.65-2.68-4.16-.05-.09-.12-.13-.22-.08-.08-.02-.16-.04-.24-.05-.04-.05-.08-.07-.14-.03-.15-.02-.31-.04-.46-.07,0-2.01,0-4.03,0-6.04,2.86,0,5.71,0,8.57-.02.18,0,.36-.01.53-.02,1.02.03,2.04.05,3.07,0,1,.06,2,.04,3.01,0Z"/><path class="cls-8" d="m346,280.05c0,1.51,0,3.03,0,4.54-.57,0-1.15.01-1.72.01-4.86,0-9.72-.02-14.58.02-1.28.01-1.94-.69-1.94-1.94.04-7.44.03-14.88,0-22.32,0-.89.72-1.6,1.57-1.59.5,0,.99-.01,1.49-.02,1,.03,2,.05,3-.01,1.02.06,2.04.03,3.06.01.17,0,.33.02.5.02,2.87,0,5.74,0,8.61.01,0,2.01,0,4.03,0,6.04-.32.15-.68.08-1.02.21-1.42.55-2.36,1.51-2.7,3.02-.06.03-.11.07-.03.14-.11,1.25.02,2.39,1.14,3.22.35.26.49.65.35,1.14-.09.3-.2.59-.27.9-.2.84-.42,1.66-.64,2.49-.16.61-.35,1.22-.5,1.83-.15.61-.11,1.23-.13,1.85-.01.31.07.42.4.41,1.14-.02,2.27,0,3.41,0Z"/><path class="cls-14" d="m333.83,258.75c-1,.06-2,.04-3,.01,0-2.7-.02-5.41.02-8.11.02-1.25.19-2.49.55-3.71.44-1.46,1.06-2.83,1.9-4.1,1.05-1.58,2.35-2.94,3.9-4.05,1.02-.73,2.09-1.38,3.27-1.78,1.17-.41,2.35-.81,3.61-.9.71-.05,1.41-.16,2.12-.14,1.77.03,3.47.38,5.13,1,1.65.62,3.14,1.52,4.5,2.65,1.17.97,2.13,2.12,2.94,3.4.58.9,1.03,1.86,1.42,2.87.21.55.36,1.12.55,1.68.17.51.21,1.06.27,1.6.35,3.19.08,6.39.17,9.58-1,.04-2,.05-3,0,0-2.28-.02-4.57.01-6.85.02-1.31-.15-2.6-.47-3.87-.45-1.78-1.28-3.39-2.48-4.76-1.47-1.68-3.26-2.95-5.42-3.64-1.53-.49-3.08-.64-4.69-.54-1.49.09-2.89.44-4.22,1.06-2.21,1.03-3.95,2.61-5.24,4.69-1.11,1.79-1.72,3.76-1.8,5.84-.1,2.69-.02,5.38-.02,8.08Z"/><path class="cls-7" d="m355.11,258.76c0-2.42.02-4.85,0-7.27-.01-1.29-.19-2.56-.71-3.76-.41-.95-.96-1.81-1.64-2.6-1.01-1.18-2.27-1.99-3.7-2.51-1.32-.48-2.7-.64-4.13-.46-.87.11-1.71.31-2.49.65-2.18.95-3.78,2.51-4.77,4.69-.46,1.02-.65,2.09-.7,3.2-.13,2.69-.02,5.38-.06,8.06-1.02.02-2.04.04-3.06-.01,0-2.69-.08-5.39.02-8.08.08-2.08.68-4.05,1.8-5.84,1.29-2.08,3.03-3.66,5.24-4.69,1.33-.62,2.73-.97,4.22-1.06,1.61-.09,3.16.06,4.69.54,2.16.69,3.94,1.95,5.42,3.64,1.2,1.38,2.03,2.98,2.48,4.76.32,1.27.49,2.55.47,3.87-.03,2.28-.01,4.57-.01,6.85-1.02.05-2.04.04-3.07,0Z"/><path class="cls-10" d="m346,280.05c-1.14,0-2.27-.02-3.41,0-.33,0-.41-.1-.4-.41.02-.62-.01-1.25.13-1.85.15-.62.34-1.22.5-1.83.22-.83.44-1.66.64-2.49.07-.31.18-.6.27-.9.14-.49,0-.88-.35-1.14-1.12-.83-1.25-1.97-1.14-3.22.06-.03.06-.08.03-.14.34-1.51,1.28-2.47,2.7-3.02.34-.13.7-.05,1.02-.21.15.02.31.04.46.07.03.08.07.12.14.03.08.02.16.04.24.05.04.11.14.08.22.08,1.58.51,2.98,2.5,2.68,4.16-.14.79-.4,1.48-.99,2.03-.36.33-.78.65-.56,1.25.14.39.25.78.36,1.18.38,1.48.81,2.94,1.17,4.43.13.55.09,1.14.08,1.71,0,.25-.17.21-.32.21-1.16,0-2.32,0-3.48.01Z"/><path class="cls-7" d="m347.07,265.07c-.09,0-.18.03-.22-.08.1-.05.17,0,.22.08Z"/><path class="cls-7" d="m346.6,264.94c-.07.09-.11.05-.14-.03.06-.03.1-.02.14.03Z"/><path class="cls-14" d="m342.28,268.06c.03.06.03.1-.03.14-.08-.07-.03-.1.03-.14Z"/><circle class="cls-2" cx="346.13" cy="262.6" r="39.02"/><path class="cls-20" d="m300.18,333.76c.5,0,.99.02,1.49.02.84,0,1.54.69,1.55,1.54,0,.78,0,1.56,0,2.33,0,6.58,0,13.16,0,19.75,0,.43-.02.86-.15,1.28-.15.49-.75.93-1.27.93-5.57,0-11.15,0-16.72,0-.03,0-.05,0-.08,0,0-1.51,0-3.03,0-4.54,1.16,0,2.32,0,3.48-.01.15,0,.32.04.32-.21,0-.57.05-1.16-.08-1.71-.36-1.48-.79-2.95-1.17-4.43-.1-.4-.22-.79-.36-1.18-.22-.61.19-.92.56-1.25.6-.55.85-1.24.99-2.03.3-1.66-1.1-3.65-2.68-4.16-.05-.09-.12-.13-.22-.08-.08-.02-.16-.04-.24-.05-.04-.05-.08-.07-.14-.03-.15-.02-.31-.04-.46-.07,0-2.01,0-4.03,0-6.04,2.86,0,5.71,0,8.57-.02.18,0,.36-.01.53-.02,1.02.03,2.04.05,3.07,0,1,.06,2,.04,3.01,0Z"/><path class="cls-8" d="m285,355.05c0,1.51,0,3.03,0,4.54-.57,0-1.15.01-1.72.01-4.86,0-9.72-.02-14.58.02-1.28.01-1.94-.69-1.94-1.94.04-7.44.03-14.88,0-22.32,0-.89.72-1.6,1.57-1.59.5,0,.99-.01,1.49-.02,1,.03,2,.05,3-.01,1.02.06,2.04.03,3.06.01.17,0,.33.02.5.02,2.87,0,5.74,0,8.61.01,0,2.01,0,4.03,0,6.04-.32.15-.68.08-1.02.21-1.42.55-2.36,1.51-2.7,3.02-.06.03-.11.07-.03.14-.11,1.25.02,2.39,1.14,3.22.35.26.49.65.35,1.14-.09.3-.2.59-.27.9-.2.84-.42,1.66-.64,2.49-.16.61-.35,1.22-.5,1.83-.15.61-.11,1.23-.13,1.85-.01.31.07.42.4.41,1.14-.02,2.27,0,3.41,0Z"/><path class="cls-14" d="m272.83,333.75c-1,.06-2,.04-3,.01,0-2.7-.02-5.41.02-8.11.02-1.25.19-2.49.55-3.71.44-1.46,1.06-2.83,1.9-4.1,1.05-1.58,2.35-2.94,3.9-4.05,1.02-.73,2.09-1.38,3.27-1.78,1.17-.41,2.35-.81,3.61-.9.71-.05,1.41-.16,2.12-.14,1.77.03,3.47.38,5.13,1,1.65.62,3.14,1.52,4.5,2.65,1.17.97,2.13,2.12,2.94,3.4.58.9,1.03,1.86,1.42,2.87.21.55.36,1.12.55,1.68.17.51.21,1.06.27,1.6.35,3.19.08,6.39.17,9.58-1,.04-2,.05-3,0,0-2.28-.02-4.57.01-6.85.02-1.31-.15-2.6-.47-3.87-.45-1.78-1.28-3.39-2.48-4.76-1.47-1.68-3.26-2.95-5.42-3.64-1.53-.49-3.08-.64-4.69-.54-1.49.09-2.89.44-4.22,1.06-2.21,1.03-3.95,2.61-5.24,4.69-1.11,1.79-1.72,3.76-1.8,5.84-.1,2.69-.02,5.38-.02,8.08Z"/><path class="cls-7" d="m294.11,333.76c0-2.42.02-4.85,0-7.27-.01-1.29-.19-2.56-.71-3.76-.41-.95-.96-1.81-1.64-2.6-1.01-1.18-2.27-1.99-3.7-2.51-1.32-.48-2.7-.64-4.13-.46-.87.11-1.71.31-2.49.65-2.18.95-3.78,2.51-4.77,4.69-.46,1.02-.65,2.09-.7,3.2-.13,2.69-.02,5.38-.06,8.06-1.02.02-2.04.04-3.06-.01,0-2.69-.08-5.39.02-8.08.08-2.08.68-4.05,1.8-5.84,1.29-2.08,3.03-3.66,5.24-4.69,1.33-.62,2.73-.97,4.22-1.06,1.61-.09,3.16.06,4.69.54,2.16.69,3.94,1.95,5.42,3.64,1.2,1.38,2.03,2.98,2.48,4.76.32,1.27.49,2.55.47,3.87-.03,2.28-.01,4.57-.01,6.85-1.02.05-2.04.04-3.07,0Z"/><path class="cls-10" d="m285,355.05c-1.14,0-2.27-.02-3.41,0-.33,0-.41-.1-.4-.41.02-.62-.01-1.25.13-1.85.15-.62.34-1.22.5-1.83.22-.83.44-1.66.64-2.49.07-.31.18-.6.27-.9.14-.49,0-.88-.35-1.14-1.12-.83-1.25-1.97-1.14-3.22.06-.03.06-.08.03-.14.34-1.51,1.28-2.47,2.7-3.02.34-.13.7-.05,1.02-.21.15.02.31.04.46.07.03.08.07.12.14.03.08.02.16.04.24.05.04.11.14.08.22.08,1.58.51,2.98,2.5,2.68,4.16-.14.79-.4,1.48-.99,2.03-.36.33-.78.65-.56,1.25.14.39.25.78.36,1.18.38,1.48.81,2.94,1.17,4.43.13.55.09,1.14.08,1.71,0,.25-.17.21-.32.21-1.16,0-2.32,0-3.48.01Z"/><path class="cls-7" d="m286.07,340.07c-.09,0-.18.03-.22-.08.1-.05.17,0,.22.08Z"/><path class="cls-7" d="m285.6,339.94c-.07.09-.11.05-.14-.03.06-.03.1-.02.14.03Z"/><path class="cls-14" d="m281.28,343.06c.03.06.03.1-.03.14-.08-.07-.03-.1.03-.14Z"/><circle class="cls-2" cx="285.13" cy="337.6" r="39.02"/></svg>