<?xml version="1.0" encoding="UTF-8"?><svg id="Layer_1" xmlns="http://www.w3.org/2000/svg" viewBox="0 0 400 400"><defs><style>.cls-1{fill:#a7cefe;}.cls-2{fill:#fff;}.cls-2,.cls-3,.cls-4,.cls-5,.cls-6,.cls-7{stroke-miterlimit:10;}.cls-2,.cls-7{stroke:#231f20;stroke-width:2px;}.cls-3{stroke:#a5262d;}.cls-3,.cls-4,.cls-5,.cls-6{stroke-width:4px;}.cls-3,.cls-4,.cls-5,.cls-6,.cls-7,.cls-8{fill:none;}.cls-9{fill:#7da1b1;}.cls-10{fill:#8fbac5;}.cls-4{stroke:#000;}.cls-5{stroke:#0018c6;}.cls-11{fill:#546e7a;}.cls-6{stroke:#c000e2;}.cls-12{fill:#f1f6f6;}.cls-13{fill:#4d4d4d;}.cls-14{fill:#02f1a6;}.cls-15{fill:#717f8f;}.cls-16{fill:#ffed58;}.cls-17{fill:#36464e;}.cls-18{fill:#fde077;}.cls-19{fill:#fee077;}.cls-20{fill:#ddebf0;}.cls-21{fill:#fed05b;}.cls-22{fill:#728090;}.cls-23{fill:#788f9b;}.cls-24{fill:#484645;}.cls-25{fill:#fec345;}.cls-26{fill:#b6d6fd;}.cls-27{fill:#fee078;}.cls-28{fill:#cee5ec;}.cls-29{fill:#fdd15b;}.cls-30{fill:#3f4a5b;}.cls-31{fill:#fbd734;}.cls-32{fill:#231f20;}.cls-33{fill:#f2f2f2;}.cls-34{fill:#64c7ef;}</style></defs><line class="cls-8" x1="154.68" y1="121.52" x2="188.32" y2="148.7"/><line class="cls-7" x1="150.58" y1="117.42" x2="179.96" y2="141.94"/><polygon class="cls-32" points="173.54 146.38 188.32 148.71 182.96 134.75 173.54 146.38"/><line class="cls-8" x1="245.32" y1="121.52" x2="211.68" y2="148.7"/><line class="cls-7" x1="250.42" y1="116.42" x2="220.05" y2="141.94"/><polygon class="cls-32" points="217.05 134.75 211.68 148.7 226.46 146.38 217.05 134.75"/><path d="m268,41.71c-.89-2.61.51-5.45,3.12-6.35s5.45.51,6.35,3.12c.88,2.59-.48,5.41-3.06,6.33-2.6.92-5.46-.44-6.38-3.05,0-.02-.01-.04-.02-.05Zm6.8-2.4c-.3-1.12-1.44-1.78-2.56-1.48-.08.02-.16.05-.24.08-1.07.28-1.71,1.37-1.43,2.44.03.12.08.25.13.36.3,1.12,1.44,1.78,2.56,1.48.08-.02.16-.05.24-.08,1.07-.27,1.72-1.35,1.45-2.43-.03-.13-.08-.25-.13-.37h-.02Z"/><path d="m289.92,38.21c.11,2.65-1.95,4.89-4.6,5-1.07.05-2.1-.39-2.8-1.2v.9h-2.9v-13.4h3v4.7c.72-.77,1.75-1.18,2.8-1.1,2.5-.02,4.5,2.2,4.5,5.1Zm-2.8,0c.09-1.17-.78-2.2-1.95-2.29-.08,0-.17,0-.25,0-1.21-.06-2.24.88-2.3,2.1,0,.07,0,.14,0,.2-.09,1.17.78,2.2,1.95,2.29.08,0,.17,0,.25,0,1.21.06,2.24-.88,2.3-2.1,0-.07,0-.14,0-.2Z"/><path d="m98.28,44.09l1.9,2-5.4,5-8.6-9.3,2.1-2,6.7,7.2,3.3-3.1v.2Z"/><path d="m94.68,36.31c-.44-.77-.17-1.76.6-2.2.77-.44,1.76-.17,2.2.6.44.77.17,1.75-.6,2.19-.71.46-1.66.26-2.12-.45-.03-.05-.06-.1-.08-.15Zm1.5,1.9l2.3-1.4,4.6,7.7-2.3,1.4-4.6-7.7Z"/><path d="m105.28,36.71l1.1,3c.3.7.9.6,2,0l.8,2.3c-3.2,1.6-4.5.9-5.4-1.5l-1.1-3-1.4.5-.9-2.4,1.4-.5-.6-1.6,2.3-1.7.9,2.4,1.7-.6.9,2.4-1.7.6v.1Z"/><path d="m118.18,35.51l.5,5.5-2.7.2-.4-5.1c.05-.79-.54-1.47-1.33-1.52-.12,0-.25,0-.37.02-1,0-1.6.7-1.5,2l.4,4.9-2.7.2-1-12.6,2.7-.2.4,4.4c.57-.81,1.51-1.3,2.5-1.3,1.8-.2,3.5,1,3.7,3.4l-.2.1Z"/><path d="m121.18,32.51l2.7.4-1.4,8.9-2.7-.4,1.4-8.9Zm.1-2.4c.14-.91.99-1.54,1.9-1.4.91.14,1.54.99,1.4,1.9-.14.91-.99,1.54-1.9,1.4,0,0,0,0,0,0-.91-.15-1.54-1-1.4-1.92v.02Z"/><path d="m135.08,36.81l-3.5,8.3-2.5-1,.3-.8c-.88.46-1.92.46-2.8,0-1.7-.7-2.6-2.5-1.7-4.7l2.1-5.1,2.5,1-2,4.7c-.39.72-.12,1.62.59,2.01.07.04.14.07.21.09.82.39,1.8.04,2.19-.78.05-.1.09-.21.11-.32l1.9-4.5,2.5,1,.1.1Z"/><circle class="cls-3" cx="284.32" cy="68.11" r="45"/><path d="m255.62,49.01c-2.47-2.73-2.26-6.95.47-9.42.11-.1.22-.19.33-.28,1.71-1.54,4.12-2.03,6.3-1.3l-1,2.9c-1.18-.37-2.46-.1-3.4.7-1.6,1.47-1.71,3.96-.25,5.57,1.39,1.52,3.72,1.71,5.35.43.96-.77,1.45-1.98,1.3-3.2l3-.5c.33,2.28-.59,4.57-2.4,6-2.8,2.5-7.09,2.25-9.59-.55-.07-.08-.14-.17-.21-.25l.1-.1Z"/><path d="m302.92,37.71l-3.4,8.9-2.7-1,.3-.8c-.97.51-2.13.51-3.1,0-2.41-1.06-3.53-3.87-2.5-6.3,1-2.6,3.7-4,6-3.1,1.01.33,1.82,1.1,2.2,2.1l.3-.8,2.7,1h.2Zm-4.3,3.4c.51-1.09.04-2.39-1.05-2.9-.08-.04-.17-.07-.25-.1-1.05-.48-2.29-.02-2.77,1.03-.05.12-.1.24-.13.37-.51,1.09-.04,2.39,1.05,2.9.08.04.17.07.25.1,1.05.48,2.29.01,2.77-1.04.06-.12.1-.25.13-.38v.02Z"/><path d="m308.52,36.21l2.3,1.6-8,11.3-2.3-1.6,8-11.3Z"/><path d="m311.52,47.91l-2.4,2.4c-.6.6-.1,1.1.8,2l-1.8,1.8c-2.9-2.4-2.8-4-.9-5.8l2.4-2.4-1.1-1.1,2-1.9,1.1,1.1,1.3-1.3,2.6,1.4-1.9,1.9,1.4,1.4-2,1.9-1.4-1.4h-.1Z"/><rect class="cls-34" x="257.32" y="58.11" width="52" height="37" rx="2.9" ry="2.9"/><path class="cls-24" d="m274.62,88.91c-3.29.1-6.48-1.17-8.8-3.5-4.67-4.94-4.67-12.66,0-17.6,2.31-2.36,5.5-3.63,8.8-3.5,3.5,0,4.1.5,5.9,1.5,1.77.96,3.26,2.37,4.3,4.1l-5.2,3c-.48-.83-1.17-1.52-2-2-.92-.49-1.96-.73-3-.7-1.72-.07-3.38.59-4.6,1.8-1.18,1.23-1.8,2.9-1.7,4.6-.23,3.31,2.27,6.17,5.58,6.39.24.02.48.02.72,0,1.05.14,2.12-.11,3-.7.85-.45,1.55-1.15,2-2l5.2,3c-1.04,1.73-2.53,3.14-4.3,4.1-1.84,1.01-3.9,1.53-6,1.5h.1Z"/><path class="cls-24" d="m295.32,88.91c-2.39.02-4.7-.92-6.4-2.6-1.74-1.63-2.68-3.92-2.6-6.3-.04-2.37.9-4.65,2.6-6.3,1.7-1.68,4.01-2.62,6.4-2.6,2.4-.04,4.71.9,6.4,2.6,3.47,3.48,3.47,9.12,0,12.6-1.69,1.7-4,2.64-6.4,2.6Zm0-5.4c.91.05,1.79-.32,2.4-1,.63-.68.99-1.57,1-2.5.05-.94-.31-1.86-1-2.5-1.31-1.33-3.45-1.33-4.78-.02,0,0-.01.01-.02.02-.63.68-.99,1.57-1,2.5-.05.94.31,1.86,1,2.5.61.68,1.49,1.05,2.4,1Z"/><circle class="cls-3" cx="115.68" cy="68.11" r="45"/><path d="m146.08,51.09l-4,3.8-1.9-1.9,3.8-3.7c.6-.43.74-1.27.31-1.87-.03-.05-.07-.09-.11-.13-.6-.6-1.4-.6-2.2.2l-3.7,3.5-1.9-1.9,3.8-3.7c.6-.43.74-1.27.31-1.87-.03-.05-.07-.09-.11-.13-.6-.6-1.4-.6-2.2.2l-3.7,3.5-1.9-1.9,6.5-6.3,1.9,1.9-.6.6c.95-.09,1.88.28,2.5,1,.67.64.97,1.58.8,2.5,1.03-.14,2.06.28,2.7,1.1,1.4,1.52,1.3,3.52-.3,5.1Z"/><rect class="cls-13" x="88.68" y="58.11" width="52" height="37" rx="2.9" ry="2.9"/><path class="cls-33" d="m109.88,82.61h8.12v5.8h-14.2v-23.6h6v17.8h.08Z"/><path class="cls-33" d="m125.08,69.21c-.6.63-1.43.99-2.3,1-.88.02-1.72-.35-2.3-1-.63-.6-.99-1.43-1-2.3-.02-.88.35-1.72,1-2.3.61-.6,1.44-.92,2.3-.9.85,0,1.68.32,2.3.9.63.6.99,1.43,1,2.3.02.88-.35,1.72-1,2.3Zm-5.08,19.2v-16.9h5.6v16.9h-5.6Z"/><circle class="cls-5" cx="200" cy="202.35" r="45"/><path class="cls-10" d="m188.8,238.35c-.81-.23-1.58-.57-2.3-1-1.52-1.03-2.39-2.77-2.3-4.6v-42.9c-.05-2.63,1.81-4.92,4.4-5.4h21.6c0,.2.1.2.2.2,1.33.37,2.47,1.23,3.2,2.4.39.52.6,1.15.6,1.8,0,0-.2-.2-.2-.3-.51-.83-1.42-1.33-2.4-1.3h-3.8c-.64-.04-1.23.32-1.5.9-.2.3-.3.7-.5,1-.28.69-.96,1.13-1.7,1.1h-6.7c-.27.02-.54-.01-.8-.1-.37-.24-.65-.59-.8-1l-.6-1.2c-.2-.42-.63-.7-1.1-.7h-4.8c-1.37.32-2.31,1.59-2.2,3v42.5c-.02,1.48,1.12,2.71,2.6,2.8h22c.45,0,.9-.1,1.3-.3.52-.3.94-.76,1.2-1.3v.2c-.41,1.91-1.83,3.44-3.7,4-.1,0-.4,0-.4.2h-21.3Zm11.9-50.26h1.8c.35.04.66-.21.7-.55,0-.05,0-.1,0-.15,0-.5-.2-.9-.7-.9h-3.5c-.5,0-.7.4-.7.9s.3.6.7.7h1.7Z"/><path class="cls-9" d="m210.2,238.35c0-.3.2-.2.4-.2,1.83-.62,3.22-2.13,3.7-4v-.2c.17-.55.24-1.13.2-1.7v-41.8c.03-.57-.04-1.15-.2-1.7-.03-.64-.24-1.27-.6-1.8-.71-1.19-1.86-2.06-3.2-2.4-.1,0-.2,0-.2-.2h2.4c.66.14,1.3.38,1.9.7,1.73,1.01,2.77,2.89,2.7,4.9v42.7c.1,2.73-1.82,5.11-4.5,5.6h-2.5l-.1.1Z"/><path class="cls-12" d="m196.5,190.09c.3,0,.5.1.8.1h6.7c.75.07,1.46-.38,1.7-1.1.2-.3.3-.7.5-1,.27-.58.86-.94,1.5-.9h.9c0,.2.2.2.3.3.99.49,1.61,1.5,1.6,2.6v42.5c.02,1.08-.56,2.08-1.5,2.6-.16,0-.29.14-.3.3h-19.1c-1.48-.09-2.62-1.32-2.6-2.8v-42.4c-.11-1.41.83-2.68,2.2-3,.47-.05.93-.05,1.4,0,.49.63.93,1.3,1.3,2,.3.65,1,1.01,1.7.9h2.5c.17.03.35,0,.5-.1h-.1Zm-3.5,29.9v10.4c0,1.1.3,1.4,1.4,1.4h12.9c.55.06,1.04-.34,1.1-.89,0-.07,0-.14,0-.21v-21.4c.06-.55-.34-1.04-.89-1.1-.07,0-.14,0-.21,0h-1.1c-.55.06-1.04-.34-1.1-.89,0-.07,0-.14,0-.21v-1.9c.06-.55-.34-1.04-.89-1.1-.07,0-.14,0-.21,0h-6.7c-.8,0-1.1.4-1.1,1.2v1.9c0,.7-.4,1-1.1,1h-.8c-1,0-1.3.3-1.3,1.3v10.5h0Zm7.7-24.2c0-.2.1-.3.2-.5.3-.5.7-1,1-1.5s.2-.9-.2-1.1-.8-.3-1,0c-.8,1.1-1.6,2.3-2.3,3.5-.3.6,0,1.1.7,1.1h1.4q.3,0,.2.3c-.5.8-1,1.6-1.6,2.4-.32.37-.32.93,0,1.3.4.3.9.1,1.3-.4.9-1.3,1.7-2.6,2.5-3.9.2-.27.2-.63,0-.9-.18-.26-.48-.42-.8-.4h-1.6l.2.1Z"/><path class="cls-20" d="m208.7,235.45c0-.2.2-.2.3-.3.94-.52,1.52-1.52,1.5-2.6v-42.46c0-1.1-.61-2.11-1.6-2.6-.16,0-.29-.14-.3-.3h2.9c.98-.05,1.91.45,2.4,1.3,0,.1.1.2.2.3.17.55.24,1.13.2,1.7v41.8c.03.57-.04,1.15-.2,1.7-.32.5-.73.94-1.2,1.3-.4.2-.85.31-1.3.3h-2.9v-.14Z"/><path class="cls-20" d="m196.5,190.09c-.1.2-.3.1-.5.1h-2.5c-.7.09-1.38-.27-1.7-.9-.37-.7-.81-1.37-1.3-2h3.4c.47,0,.9.28,1.1.7l.6,1.2c.21.37.48.71.8,1l.1-.1Z"/><path class="cls-9" d="m200.7,188.09h-1.6c-.35.04-.66-.21-.7-.55,0-.05,0-.1,0-.15,0-.5.2-.9.7-.9h3.5c.44.06.75.46.7.9,0,.5-.2.6-.7.7-.6.05-1.2.05-1.8,0h-.1Z"/><path class="cls-14" d="m193,219.95v-10.5c0-1,.3-1.3,1.3-1.3h.8c.7,0,1-.3,1.1-1v-1.9c0-.8.3-1.2,1.1-1.2h6.7c.55-.06,1.04.34,1.1.89,0,.07,0,.14,0,.21v1.94c-.06.55.34,1.04.89,1.1.07,0,.14,0,.21,0h1.1c.55-.06,1.04.34,1.1.89,0,.07,0,.14,0,.21v21.4c.06.55-.34,1.04-.89,1.1-.07,0-.14,0-.21,0h-12.9c-1.1,0-1.4-.3-1.4-1.4v-10.44Zm12.5,2.7v-10.56c0-.5-.3-.8-.9-.8h-7.9c-.44-.06-.84.25-.9.69,0,.07,0,.14,0,.21v15.9c-.06.44.25.84.69.9.07,0,.14,0,.21,0h7.9c.44.06.84-.25.9-.69,0-.07,0-.14,0-.21v-5.44Z"/><path class="cls-27" d="m200.7,195.75h1.6c.4,0,.7,0,.8.4.14.28.14.62,0,.9-.8,1.3-1.7,2.6-2.5,3.9-.26.45-.83.63-1.3.4-.4-.3-.4-.8,0-1.3.5-.8,1-1.6,1.6-2.4.2-.2.1-.3-.2-.3h-1.4c-.7,0-1.1-.6-.7-1.1.7-1.2,1.5-2.3,2.3-3.5.15-.28.5-.38.77-.23.1.05.17.13.23.23.32.27.4.73.2,1.1-.3.5-.7,1-1,1.5,0,.1-.2.2-.2.5l-.2-.1Z"/><path class="cls-20" d="m202.3,211.15h2.4c.45-.04.85.29.9.74,0,.02,0,.04,0,.06v2.5h-2.5c-.4,0-.5.1-.5.5v3.5h-6.7v-4.1h6.2c.2,0,.5.1.5-.2,0-1,.3-2.06-.3-3Z"/><path class="cls-18" d="m202.1,228.95h-5.3c-.44.06-.84-.25-.9-.69,0-.07,0-.14,0-.21v-3.7h6.7v3.6c.05.4-.15.8-.5,1Z"/><path class="cls-19" d="m195.9,218.55h6.7v4.1h-6.7v-4.1Z"/><path class="cls-12" d="m202.3,211.15c.6,1,.2,2,.3,3,0,.3-.3.2-.5.2h-6.2v-2.26c-.06-.44.25-.84.69-.9.07,0,.14,0,.21,0l5.5-.04Z"/><path class="cls-29" d="m202.1,228.95c.4-.2.5-.5.5-1v-3.6h2.9v3.74c.03.46-.31.87-.78.9-.04,0-.08,0-.12,0h-2.5v-.04Z"/><path class="cls-21" d="m202.6,222.65v-4.1h2.9v4.1h-2.9Z"/><path class="cls-28" d="m205.6,218.55h-2.9v-3.46c0-.4.1-.5.5-.5h2.5v4l-.1-.04Z"/><path class="cls-29" d="m195.9,222.65h6.7v1.7h-6.7v-1.7Z"/><path class="cls-25" d="m202.6,224.35v-1.7h2.9v1.7h-2.9Z"/><path d="m165.8,194.95c2.1.33,3.53,2.3,3.2,4.4l-.3,1.6,3.5.5-.4,2.5-11-1.7.6-4.2c.28-2.11,2.21-3.59,4.32-3.31.03,0,.05,0,.08.01v.2Zm-.4,2.5c-.71-.16-1.42.28-1.58.99,0,.04-.01.07-.02.11l-.3,1.6,2.8.4.3-1.6c.12-.7-.36-1.37-1.06-1.48-.05,0-.09-.01-.14-.02h0Z"/><path d="m172.2,186.65l4.4,2.1-1,2.1-4.1-2c-.66-.37-1.5-.13-1.86.53-.01.02-.02.05-.04.07-.4.8-.2,1.5.8,2l3.9,1.9-1,2.1-10-4.9,1-2.1,3.5,1.7c-.31-.81-.28-1.72.1-2.5.73-1.48,2.53-2.09,4.02-1.36.1.05.19.1.28.16v.2Z"/><path d="m173.9,185.65c-1.68-1.57-1.77-4.21-.19-5.89,1.57-1.68,4.21-1.77,5.89-.19,1.68,1.57,1.77,4.21.2,5.89-1.55,1.68-4.17,1.79-5.85.25-.02-.02-.03-.03-.05-.05Zm4.1-4.4c-.74-.66-1.88-.59-2.54.15-.66.74-.59,1.88.15,2.54.72.64,1.82.6,2.49-.1.69-.7.69-1.83-.01-2.52-.03-.03-.06-.06-.09-.08Z"/><path d="m187.3,173.85l2.4,4.2-2.1,1.2-2.2-3.9c-.25-.66-.98-.99-1.64-.74-.09.04-.18.08-.26.14-.8.4-1,1.2-.5,2.2l2.1,3.8-2.1,1.2-3.9-6.9,2.1-1.2.4.6c0-.7.6-1.4,1.5-2,1.4-.8,3.1-.5,4.2,1.4Z"/><path d="m194.1,175.09c.56-.11,1.06-.44,1.4-.9l2.1.7c-1.12,2.17-3.79,3.02-5.96,1.9-1.11-.57-1.92-1.59-2.24-2.8-.55-2.19.78-4.4,2.97-4.95.08-.02.15-.04.23-.05,2.16-.48,4.29.89,4.77,3.04.01.05.02.1.03.16,0,.3.1.6.1,1l-5.5,1.2c.47.67,1.32.96,2.1.7Zm.8-3.1c-.36-.69-1.14-1.06-1.9-.9-.8.1-1.41.79-1.4,1.6l3.3-.7Z"/><path d="m211.7,174.15c-.38,2.17-2.42,3.63-4.6,3.3-.89-.17-1.65-.72-2.1-1.5l-.2.7-2.3-.5,2.4-10.8,2.3.5-.9,3.8c.71-.55,1.65-.7,2.5-.4,2.12.58,3.37,2.77,2.8,4.9h.1Zm-2.3-.5c.3-.94-.23-1.95-1.17-2.24-.08-.02-.15-.04-.23-.06-.99-.26-2.01.34-2.27,1.34-.01.05-.03.11-.03.16-.3.94.23,1.95,1.17,2.24.08.02.15.04.23.06.99.26,2.01-.34,2.27-1.34.01-.05.03-.11.03-.16Z"/><path d="m222.4,175.65l-4.1,6.8-2-1.2.4-.6c-.85.26-1.77.11-2.5-.4-1.84-1.38-2.22-3.99-.84-5.84,1.19-1.6,3.35-2.13,5.14-1.26.78.4,1.33,1.14,1.5,2l.4-.6,2,1.2v-.1Zm-4.1,2.2c.57-.82.37-1.94-.45-2.51-.05-.03-.1-.07-.15-.09-.89-.53-2.03-.24-2.57.64-.01.02-.02.04-.03.06-.52.88-.23,2.03.65,2.55.88.52,2.03.23,2.55-.65h0Z"/><path d="m225.2,181.55l-2,2c-.5.5-.1.9.7,1.6l-1.5,1.5c-2.4-2-2.4-3.3-.8-4.9l2-2-.9-.9,1.6-1.6.9.9,1.1-1.1,2.2,1.2-1.6,1.5,1.1,1.2-1.6,1.6-1.1-1.2-.1.2Z"/><path d="m229.1,186.55l-2.3,1.6c-.6.4-.3.9.3,1.7l-1.8,1.2c-2-2.4-1.7-3.7.1-4.9l2.3-1.6-.7-1.1,1.9-1.3.7,1.1,1.3-.8,1.9,1.6-1.8,1.2.9,1.4-1.9,1.3-.9-1.4Z"/><path d="m228.9,194.65c.2.53.59.96,1.1,1.2l-.4,2.2c-1.29-.39-2.31-1.41-2.7-2.7-.9-2.6.2-4.8,2.4-5.6,2.13-.82,4.53.24,5.35,2.37.02.04.03.09.05.13.76,2.08-.31,4.37-2.39,5.13-.07.03-.14.05-.21.07-.29.11-.59.18-.9.2l-1.9-5.3c-.63.55-.79,1.46-.4,2.2v.1Zm3.2.4c.65-.44.9-1.28.6-2-.18-.82-.98-1.35-1.8-1.2l1.2,3.2Z"/><path d="m236.8,203.55l-2.7.3c0-1-.5-2.3-2-2.2l-3.6.4-.2-2.4,7.9-.8.2,2.4h-1.4c1.01.38,1.72,1.32,1.8,2.4v-.1Z"/><path d="m235.7,213.65l-7.3-3.7c-2.4-1.2-3.2-2.7-2.8-4.9l2.2.3c-.1,1.1.1,1.7,1,2.1l7.9-2.1-.3,2.6-5,1.1,4.6,2.1-.3,2.5h0Z"/><circle class="cls-6" cx="54.98" cy="336.39" r="40.5"/><path d="m25.01,322.71c1.71.63,2.52,2.52,1.8,4.23l-.54,1.35,2.79,1.08-.81,1.98-8.82-3.42,1.26-3.33c.63-1.71,2.52-2.61,4.23-1.89h.09Zm-.81,1.98c-.63-.27-1.35,0-1.53.63l-.54,1.35,2.25.9.54-1.35c.27-.63,0-1.26-.72-1.53Z"/><path d="m31.58,316.86l3.33,2.43-1.17,1.62-3.06-2.25c-.63-.54-1.26-.27-1.71.18-.45.63-.36,1.26.36,1.8l2.97,2.16-1.17,1.62-7.65-5.58,1.17-1.62,2.7,1.98c-.18-.63,0-1.35.45-2.07.81-1.08,2.25-1.44,3.78-.36v.09Z"/><path d="m33.11,316.32c-1.26-1.62-.99-3.78.63-5.04,1.53-1.26,3.78-.99,5.04.54,1.26,1.62.99,3.78-.63,5.04-1.53,1.26-3.78.99-5.04-.54Zm4.05-3.15c-.63-.72-1.53-.81-2.25-.27s-.81,1.44-.27,2.25c.63.72,1.53.81,2.25.27s.81-1.44.27-2.25Z"/><path d="m45.71,307.95l1.62,3.78-1.89.81-1.53-3.51c-.36-.81-.99-.9-1.53-.63-.72.27-.99.9-.63,1.8l1.44,3.42-1.89.81-2.61-6.21,1.89-.81.27.54c.18-.63.63-1.17,1.44-1.53,1.26-.54,2.7-.09,3.42,1.62v-.09Z"/><path d="m51.29,309.48c.54,0,.99-.36,1.17-.72l1.71.72c-.54.99-1.44,1.62-2.7,1.8-2.25.36-3.96-.99-4.23-3.06-.27-1.98.99-3.69,3.06-4.05,1.98-.27,3.6,1.08,3.87,3.06v.81l-4.77.63c.36.63.99.81,1.71.72l.18.09Zm.9-2.61c-.36-.72-.99-.9-1.53-.9-.72.09-1.26.54-1.35,1.26l2.88-.36Z"/><path d="m55.97,305.79l5.13.54-.18,1.89-5.13-.54.18-1.89Z"/><path d="m69.47,310.83c-.72,1.89-2.61,2.79-4.32,2.16-.81-.36-1.35-.81-1.62-1.44l-.27.63-1.89-.72,3.33-8.82,1.89.72-1.17,3.15c.63-.36,1.35-.36,2.16,0,1.62.63,2.43,2.61,1.71,4.5l.18-.18Zm-1.89-.72c.36-.99,0-1.8-.9-2.07-.9-.36-1.71,0-2.07.99-.36.99,0,1.8.9,2.07.9.36,1.71,0,2.07-.99Z"/><path d="m70.46,311.46c1.17-1.62,3.42-1.89,5.04-.72,1.62,1.17,1.98,3.42.72,4.95-1.17,1.62-3.42,1.89-5.04.72-1.62-1.17-1.98-3.42-.72-4.95Zm4.14,3.06c.54-.81.45-1.71-.27-2.25s-1.62-.45-2.16.36-.45,1.71.27,2.25,1.62.45,2.16-.36Z"/><path d="m86.21,318.57l-7.47,5.76-1.26-1.62.54-.36c-.72,0-1.35-.36-1.89-1.08-1.08-1.44-.72-3.51.9-4.77s3.69-.99,4.77.36c.54.72.72,1.44.54,2.07l2.61-2.07,1.26,1.62v.09Zm-6.03,2.07c.81-.63.9-1.53.36-2.25s-1.44-.9-2.25-.27-.9,1.53-.36,2.25,1.44.9,2.25.27Z"/><path d="m87.83,328.47l-6.93.36c-2.25.09-3.51-.63-4.14-2.43l1.71-.72c.36.9.81,1.17,1.71,1.17l4.95-4.95.81,2.07-3.24,2.97,4.32-.45.81,1.98h0Z"/><path d="m91.43,333.33l-9.27,1.71-.36-2.16,7.02-1.26-.72-1.53,1.71-.81,1.35,2.25.36,1.89-.09-.09Z"/><path class="cls-30" d="m45.44,366.36c0-.18-.18-.09-.36-.18-1.8-.45-3.06-2.07-3.06-3.96v-34.92c0-2.43.99-3.78,3.24-4.5,0,0,.09,0,.09-.09h3.06v.09c.45,1.17.99,2.34,1.44,3.51.09.27.36.36.63.36h8.73c.36,0,.63-.18.72-.45.18-.45.36-.9.54-1.35.27-.72.63-1.35.81-2.16h2.97c.18.18.45.18.72.27,1.62.54,2.7,2.07,2.79,3.78v34.92c0,2.52-.99,3.87-3.42,4.68h-18.99.09Zm21.33-6.57h0v-30.42c0-.36-.27-.18-.45-.18h-22.95c-.36,0-.45.09-.45.45v30.06h23.67l.18.09Zm-11.79,2.79h-3.96c-.45,0-.63.18-.54.63,0,.36.36.45.63.45h7.74c.45,0,.63-.18.63-.54,0-.45-.27-.45-.63-.45h-3.87v-.09Z"/><path class="cls-22" d="m61.46,322.71c-.18.72-.54,1.44-.81,2.16-.18.45-.36.9-.54,1.35-.09.27-.36.54-.72.45h-8.73c-.27,0-.54-.09-.63-.36-.45-1.17-.99-2.34-1.44-3.51v-.09h12.96-.09Z"/><path class="cls-1" d="m43.19,359.79c-.18-.09,0-.27,0-.36v-29.7c0-.36,0-.45.45-.45h22.95c.18,0,.36-.18.45.18-.18,0-.27.18-.45.36-.36.45-.63.9-.99,1.26-1.26,1.62-2.61,3.33-3.87,4.95-.99,1.35-2.07,2.61-3.06,3.96-1.26,1.62-2.61,3.33-3.87,4.95-.99,1.35-2.07,2.61-3.06,3.96-1.35,1.8-2.79,3.51-4.14,5.31-.99,1.26-1.98,2.52-2.88,3.78-.45.63-.99,1.17-1.35,1.8h-.18Z"/><path class="cls-26" d="m43.19,359.79c.36-.63.9-1.17,1.35-1.8.99-1.26,1.98-2.52,2.88-3.78,1.35-1.8,2.79-3.51,4.14-5.31.99-1.35,2.07-2.61,3.06-3.96,1.26-1.62,2.61-3.33,3.87-4.95.99-1.35,2.07-2.61,3.06-3.96,1.26-1.62,2.61-3.33,3.87-4.95.36-.45.63-.81.99-1.26.09-.18.18-.27.45-.36v30.33h-23.67Z"/><path class="cls-15" d="m54.98,362.58h3.87c.36,0,.63,0,.63.45,0,.36-.18.54-.63.54h-7.74c-.27,0-.54,0-.63-.45,0-.36.09-.63.54-.63h3.96v.09Z"/><path d="m53.45,332.52h5.13v23.31h-5.94v-17.01l-4.05.99-1.44-5.04s6.3-2.25,6.3-2.25Z"/><path class="cls-31" d="m356.18,332.08c.5,0,.99.02,1.49.02.84,0,1.54.69,1.55,1.54,0,.78,0,1.56,0,2.33,0,6.58,0,13.16,0,19.75,0,.43-.02.86-.15,1.28-.15.49-.75.93-1.27.93-5.57,0-11.15,0-16.72,0-.03,0-.05,0-.08,0,0-1.51,0-3.03,0-4.54,1.16,0,2.32,0,3.48-.01.15,0,.32.04.32-.21,0-.57.05-1.16-.08-1.71-.36-1.48-.79-2.95-1.17-4.43-.1-.4-.22-.79-.36-1.18-.22-.61.19-.92.56-1.25.6-.55.85-1.24.99-2.03.3-1.66-1.1-3.65-2.68-4.16-.05-.09-.12-.13-.22-.08-.08-.02-.16-.04-.24-.05-.04-.05-.08-.07-.14-.03-.15-.02-.31-.04-.46-.07,0-2.01,0-4.03,0-6.04,2.86,0,5.71,0,8.57-.02.18,0,.36-.01.53-.02,1.02.03,2.04.05,3.07,0,1,.06,2,.04,3.01,0Z"/><path class="cls-16" d="m341,353.37c0,1.51,0,3.03,0,4.54-.57,0-1.15.01-1.72.01-4.86,0-9.72-.02-14.58.02-1.28.01-1.94-.69-1.94-1.94.04-7.44.03-14.88,0-22.32,0-.89.72-1.6,1.57-1.59.5,0,.99-.01,1.49-.02,1,.03,2,.05,3-.01,1.02.06,2.04.03,3.06.01.17,0,.33.02.5.02,2.87,0,5.74,0,8.61.01,0,2.01,0,4.03,0,6.04-.32.15-.68.08-1.02.21-1.42.55-2.36,1.51-2.7,3.02-.06.03-.11.07-.03.14-.11,1.25.02,2.39,1.14,3.22.35.26.49.65.35,1.14-.09.3-.2.59-.27.9-.2.84-.42,1.66-.64,2.49-.16.61-.35,1.22-.5,1.83-.15.61-.11,1.23-.13,1.85-.01.31.07.42.4.41,1.14-.02,2.27,0,3.41,0Z"/><path class="cls-23" d="m328.83,332.07c-1,.06-2,.04-3,.01,0-2.7-.02-5.41.02-8.11.02-1.25.19-2.49.55-3.71.44-1.46,1.06-2.83,1.9-4.1,1.05-1.58,2.35-2.94,3.9-4.05,1.02-.73,2.09-1.38,3.27-1.78,1.17-.41,2.35-.81,3.61-.9.71-.05,1.41-.16,2.12-.14,1.77.03,3.47.38,5.13,1,1.65.62,3.14,1.52,4.5,2.65,1.17.97,2.13,2.12,2.94,3.4.58.9,1.03,1.86,1.42,2.87.21.55.36,1.12.55,1.68.17.51.21,1.06.27,1.6.35,3.19.08,6.39.17,9.58-1,.04-2,.05-3,0,0-2.28-.02-4.57.01-6.85.02-1.31-.15-2.6-.47-3.87-.45-1.78-1.28-3.39-2.48-4.76-1.47-1.68-3.26-2.95-5.42-3.64-1.53-.49-3.08-.64-4.69-.54-1.49.09-2.89.44-4.22,1.06-2.21,1.03-3.95,2.61-5.24,4.69-1.11,1.79-1.72,3.76-1.8,5.84-.1,2.69-.02,5.38-.02,8.08Z"/><path class="cls-11" d="m350.11,332.08c0-2.42.02-4.85,0-7.27-.01-1.29-.19-2.56-.71-3.76-.41-.95-.96-1.81-1.64-2.6-1.01-1.18-2.27-1.99-3.7-2.51-1.32-.48-2.7-.64-4.13-.46-.87.11-1.71.31-2.49.65-2.18.95-3.78,2.51-4.77,4.69-.46,1.02-.65,2.09-.7,3.2-.13,2.69-.02,5.38-.06,8.06-1.02.02-2.04.04-3.06-.01,0-2.69-.08-5.39.02-8.08.08-2.08.68-4.05,1.8-5.84,1.29-2.08,3.03-3.66,5.24-4.69,1.33-.62,2.73-.97,4.22-1.06,1.61-.09,3.16.06,4.69.54,2.16.69,3.94,1.95,5.42,3.64,1.2,1.38,2.03,2.98,2.48,4.76.32,1.27.49,2.55.47,3.87-.03,2.28-.01,4.57-.01,6.85-1.02.05-2.04.04-3.07,0Z"/><path class="cls-17" d="m341,353.37c-1.14,0-2.27-.02-3.41,0-.33,0-.41-.1-.4-.41.02-.62-.01-1.25.13-1.85.15-.62.34-1.22.5-1.83.22-.83.44-1.66.64-2.49.07-.31.18-.6.27-.9.14-.49,0-.88-.35-1.14-1.12-.83-1.25-1.97-1.14-3.22.06-.03.06-.08.03-.14.34-1.51,1.28-2.47,2.7-3.02.34-.13.7-.05,1.02-.21.15.02.31.04.46.07.03.08.07.12.14.03.08.02.16.04.24.05.04.11.14.08.22.08,1.58.51,2.98,2.5,2.68,4.16-.14.79-.4,1.48-.99,2.03-.36.33-.78.65-.56,1.25.14.39.25.78.36,1.18.38,1.48.81,2.94,1.17,4.43.13.55.09,1.14.08,1.71,0,.25-.17.21-.32.21-1.16,0-2.32,0-3.48.01Z"/><path class="cls-11" d="m342.07,338.39c-.09,0-.18.03-.22-.08.1-.05.17,0,.22.08Z"/><path class="cls-11" d="m341.6,338.25c-.07.09-.11.05-.14-.03.06-.03.1-.02.14.03Z"/><path class="cls-23" d="m337.28,341.38c.03.06.03.1-.03.14-.08-.07-.03-.1.03-.14Z"/><circle class="cls-4" cx="341.13" cy="335.91" r="39.02"/><path class="cls-31" d="m260.18,334.08c.5,0,.99.02,1.49.02.84,0,1.54.69,1.55,1.54,0,.78,0,1.56,0,2.33,0,6.58,0,13.16,0,19.75,0,.43-.02.86-.15,1.28-.15.49-.75.93-1.27.93-5.57,0-11.15,0-16.72,0-.03,0-.05,0-.08,0,0-1.51,0-3.03,0-4.54,1.16,0,2.32,0,3.48-.01.15,0,.32.04.32-.21,0-.57.05-1.16-.08-1.71-.36-1.48-.79-2.95-1.17-4.43-.1-.4-.22-.79-.36-1.18-.22-.61.19-.92.56-1.25.6-.55.85-1.24.99-2.03.3-1.66-1.1-3.65-2.68-4.16-.05-.09-.12-.13-.22-.08-.08-.02-.16-.04-.24-.05-.04-.05-.08-.07-.14-.03-.15-.02-.31-.04-.46-.07,0-2.01,0-4.03,0-6.04,2.86,0,5.71,0,8.57-.02.18,0,.36-.01.53-.02,1.02.03,2.04.05,3.07,0,1,.06,2,.04,3.01,0Z"/><path class="cls-16" d="m245,355.37c0,1.51,0,3.03,0,4.54-.57,0-1.15.01-1.72.01-4.86,0-9.72-.02-14.58.02-1.28.01-1.94-.69-1.94-1.94.04-7.44.03-14.88,0-22.32,0-.89.72-1.6,1.57-1.59.5,0,.99-.01,1.49-.02,1,.03,2,.05,3-.01,1.02.06,2.04.03,3.06.01.17,0,.33.02.5.02,2.87,0,5.74,0,8.61.01,0,2.01,0,4.03,0,6.04-.32.15-.68.08-1.02.21-1.42.55-2.36,1.51-2.7,3.02-.06.03-.11.07-.03.14-.11,1.25.02,2.39,1.14,3.22.35.26.49.65.35,1.14-.09.3-.2.59-.27.9-.2.84-.42,1.66-.64,2.49-.16.61-.35,1.22-.5,1.83-.15.61-.11,1.23-.13,1.85-.01.31.07.42.4.41,1.14-.02,2.27,0,3.41,0Z"/><path class="cls-23" d="m232.83,334.07c-1,.06-2,.04-3,.01,0-2.7-.02-5.41.02-8.11.02-1.25.19-2.49.55-3.71.44-1.46,1.06-2.83,1.9-4.1,1.05-1.58,2.35-2.94,3.9-4.05,1.02-.73,2.09-1.38,3.27-1.78,1.17-.41,2.35-.81,3.61-.9.71-.05,1.41-.16,2.12-.14,1.77.03,3.47.38,5.13,1,1.65.62,3.14,1.52,4.5,2.65,1.17.97,2.13,2.12,2.94,3.4.58.9,1.03,1.86,1.42,2.87.21.55.36,1.12.55,1.68.17.51.21,1.06.27,1.6.35,3.19.08,6.39.17,9.58-1,.04-2,.05-3,0,0-2.28-.02-4.57.01-6.85.02-1.31-.15-2.6-.47-3.87-.45-1.78-1.28-3.39-2.48-4.76-1.47-1.68-3.26-2.95-5.42-3.64-1.53-.49-3.08-.64-4.69-.54-1.49.09-2.89.44-4.22,1.06-2.21,1.03-3.95,2.61-5.24,4.69-1.11,1.79-1.72,3.76-1.8,5.84-.1,2.69-.02,5.38-.02,8.08Z"/><path class="cls-11" d="m254.11,334.08c0-2.42.02-4.85,0-7.27-.01-1.29-.19-2.56-.71-3.76-.41-.95-.96-1.81-1.64-2.6-1.01-1.18-2.27-1.99-3.7-2.51-1.32-.48-2.7-.64-4.13-.46-.87.11-1.71.31-2.49.65-2.18.95-3.78,2.51-4.77,4.69-.46,1.02-.65,2.09-.7,3.2-.13,2.69-.02,5.38-.06,8.06-1.02.02-2.04.04-3.06-.01,0-2.69-.08-5.39.02-8.08.08-2.08.68-4.05,1.8-5.84,1.29-2.08,3.03-3.66,5.24-4.69,1.33-.62,2.73-.97,4.22-1.06,1.61-.09,3.16.06,4.69.54,2.16.69,3.94,1.95,5.42,3.64,1.2,1.38,2.03,2.98,2.48,4.76.32,1.27.49,2.55.47,3.87-.03,2.28-.01,4.57-.01,6.85-1.02.05-2.04.04-3.07,0Z"/><path class="cls-17" d="m245,355.37c-1.14,0-2.27-.02-3.41,0-.33,0-.41-.1-.4-.41.02-.62-.01-1.25.13-1.85.15-.62.34-1.22.5-1.83.22-.83.44-1.66.64-2.49.07-.31.18-.6.27-.9.14-.49,0-.88-.35-1.14-1.12-.83-1.25-1.97-1.14-3.22.06-.03.06-.08.03-.14.34-1.51,1.28-2.47,2.7-3.02.34-.13.7-.05,1.02-.21.15.02.31.04.46.07.03.08.07.12.14.03.08.02.16.04.24.05.04.11.14.08.22.08,1.58.51,2.98,2.5,2.68,4.16-.14.79-.4,1.48-.99,2.03-.36.33-.78.65-.56,1.25.14.39.25.78.36,1.18.38,1.48.81,2.94,1.17,4.43.13.55.09,1.14.08,1.71,0,.25-.17.21-.32.21-1.16,0-2.32,0-3.48.01Z"/><path class="cls-11" d="m246.07,340.39c-.09,0-.18.03-.22-.08.1-.05.17,0,.22.08Z"/><path class="cls-11" d="m245.6,340.25c-.07.09-.11.05-.14-.03.06-.03.1-.02.14.03Z"/><path class="cls-23" d="m241.28,343.38c.03.06.03.1-.03.14-.08-.07-.03-.1.03-.14Z"/><circle class="cls-4" cx="245.13" cy="337.91" r="39.02"/><path class="cls-31" d="m166.5,334.1c.47,0,.95.02,1.42.02.81,0,1.47.66,1.48,1.47,0,.74,0,1.48,0,2.23,0,6.28,0,12.56,0,18.84,0,.41-.02.82-.14,1.22-.15.47-.72.89-1.21.89-5.32,0-10.64,0-15.96,0-.02,0-.05,0-.07,0,0-1.45,0-2.89,0-4.34,1.11,0,2.22,0,3.32-.01.14,0,.3.04.31-.2,0-.55.05-1.11-.08-1.63-.34-1.41-.75-2.81-1.12-4.22-.1-.38-.21-.76-.34-1.12-.21-.58.18-.88.53-1.2.57-.53.81-1.18.95-1.94.28-1.58-1.05-3.48-2.55-3.97-.05-.08-.12-.12-.21-.08-.08-.02-.15-.03-.23-.05-.04-.05-.08-.06-.13-.03-.15-.02-.29-.04-.44-.06,0-1.92,0-3.84,0-5.76,2.73,0,5.45,0,8.18-.02.17,0,.34-.01.51-.02.97.03,1.95.04,2.92,0,.96.05,1.91.04,2.87,0Z"/><path class="cls-16" d="m152.02,354.42c0,1.45,0,2.89,0,4.34-.55,0-1.1.01-1.64.01-4.64,0-9.28-.02-13.91.02-1.22.01-1.85-.66-1.85-1.85.04-7.1.03-14.2,0-21.29,0-.85.68-1.53,1.49-1.51.47,0,.95-.01,1.42-.02.96.02,1.91.05,2.87-.01.97.06,1.95.03,2.92.01.16,0,.32.02.47.02,2.74,0,5.48,0,8.22.01,0,1.92,0,3.84,0,5.76-.31.15-.65.07-.97.2-1.35.53-2.25,1.44-2.57,2.88-.06.03-.1.07-.03.13-.11,1.19.02,2.28,1.09,3.07.34.25.47.62.33,1.09-.08.28-.19.56-.26.86-.19.8-.4,1.59-.61,2.38-.15.58-.33,1.16-.48,1.75-.14.58-.1,1.18-.13,1.77-.01.3.07.4.38.39,1.08-.02,2.17,0,3.25,0Z"/><path class="cls-23" d="m140.41,334.1c-.96.06-1.91.04-2.87.01,0-2.58-.02-5.16.02-7.74.02-1.19.18-2.38.53-3.54.42-1.39,1.01-2.7,1.81-3.91,1-1.51,2.24-2.8,3.72-3.86.97-.69,2-1.31,3.12-1.7,1.11-.39,2.24-.77,3.44-.86.67-.05,1.35-.15,2.02-.14,1.69.03,3.31.36,4.89.96,1.58.59,3,1.45,4.29,2.53,1.12.93,2.03,2.03,2.81,3.24.55.86.99,1.78,1.36,2.73.2.53.34,1.07.53,1.6.17.48.2,1.01.25,1.53.33,3.04.08,6.1.16,9.14-.96.03-1.91.05-2.87,0,0-2.18-.02-4.36.01-6.54.02-1.25-.14-2.48-.45-3.69-.43-1.7-1.22-3.23-2.37-4.54-1.41-1.61-3.11-2.81-5.17-3.47-1.46-.46-2.94-.61-4.48-.52-1.42.08-2.76.42-4.03,1.01-2.11.98-3.77,2.49-5,4.47-1.06,1.71-1.64,3.59-1.71,5.57-.09,2.57-.02,5.14-.02,7.71Z"/><path class="cls-11" d="m160.71,334.1c0-2.31.02-4.63,0-6.94-.01-1.23-.19-2.45-.68-3.59-.39-.91-.91-1.73-1.56-2.48-.97-1.12-2.17-1.9-3.53-2.39-1.26-.45-2.58-.61-3.94-.44-.83.1-1.63.29-2.38.62-2.08.91-3.61,2.39-4.55,4.48-.44.98-.62,1.99-.67,3.05-.12,2.56-.02,5.13-.06,7.69-.97.02-1.95.04-2.92-.01,0-2.57-.08-5.14.02-7.71.07-1.98.65-3.86,1.71-5.57,1.23-1.98,2.89-3.49,5-4.47,1.27-.59,2.61-.93,4.03-1.01,1.54-.09,3.02.06,4.48.52,2.06.66,3.76,1.86,5.17,3.47,1.15,1.31,1.94,2.84,2.37,4.54.31,1.21.47,2.44.45,3.69-.03,2.18-.01,4.36-.01,6.54-.97.05-1.95.04-2.92,0Z"/><path class="cls-17" d="m152.02,354.42c-1.08,0-2.17-.02-3.25,0-.31,0-.39-.09-.38-.39.02-.59-.01-1.19.13-1.77.14-.59.32-1.17.48-1.75.21-.79.42-1.58.61-2.38.07-.29.18-.57.26-.86.14-.47,0-.84-.33-1.09-1.07-.79-1.19-1.88-1.09-3.07.06-.03.06-.08.03-.13.32-1.44,1.22-2.35,2.57-2.88.32-.12.67-.05.97-.2.15.02.29.04.44.06.03.08.07.12.13.03.08.02.15.03.23.05.04.1.13.08.21.08,1.51.48,2.84,2.38,2.55,3.97-.14.76-.38,1.42-.95,1.94-.35.32-.74.62-.53,1.2.14.37.24.74.34,1.12.36,1.41.77,2.81,1.12,4.22.13.53.09,1.09.08,1.63,0,.23-.16.2-.31.2-1.11,0-2.22,0-3.32.01Z"/><path class="cls-11" d="m153.04,340.13c-.08,0-.17.03-.21-.08.1-.05.16,0,.21.08Z"/><path class="cls-11" d="m152.6,340c-.07.09-.11.04-.13-.03.05-.03.1-.02.13.03Z"/><path class="cls-23" d="m148.48,342.98c.03.05.03.1-.03.13-.07-.06-.03-.1.03-.13Z"/><circle class="cls-4" cx="152.15" cy="337.77" r="37.23"/><line class="cls-2" x1="196.61" y1="252.6" x2="196.53" y2="271.25"/><line class="cls-2" x1="59.04" y1="270.68" x2="340.96" y2="270.68"/><line class="cls-7" x1="59.47" y1="270.48" x2="59.47" y2="279.8"/><polygon class="cls-32" points="52.99 277.91 59.47 289.13 65.96 277.91 52.99 277.91"/><line class="cls-7" x1="153.14" y1="270.48" x2="153.14" y2="279.8"/><polygon class="cls-32" points="146.66 277.91 153.14 289.13 159.62 277.91 146.66 277.91"/><line class="cls-7" x1="246.81" y1="270.48" x2="246.81" y2="279.8"/><polygon class="cls-32" points="240.33 277.91 246.81 289.13 253.29 277.91 240.33 277.91"/><line class="cls-7" x1="340.47" y1="270.48" x2="340.47" y2="279.8"/><polygon class="cls-32" points="333.99 277.91 340.47 289.13 346.96 277.91 333.99 277.91"/></svg>