<?xml version="1.0" encoding="UTF-8"?><svg id="Layer_1" xmlns="http://www.w3.org/2000/svg" viewBox="0 0 400 400"><defs><style>.cls-1{stroke:#a5262d;}.cls-1,.cls-2{stroke-width:4px;}.cls-1,.cls-2,.cls-3{stroke-miterlimit:10;}.cls-1,.cls-2,.cls-3,.cls-4{fill:none;}.cls-2{stroke:#000;}.cls-5{fill:#546e7a;}.cls-6{fill:#f15a24;}.cls-7{fill:#bacce9;}.cls-8{fill:#c7c7c7;}.cls-9{fill:#bdbdbd;}.cls-10{fill:#ecf5fe;}.cls-11{fill:#ffed58;}.cls-3{stroke:#231f20;stroke-width:2px;}.cls-12{fill:#36464e;}.cls-13{fill:#b9cce9;}.cls-14{fill:#aaa;}.cls-15{fill:#788f9b;}.cls-16{fill:#484645;}.cls-17{fill:#33b1cb;}.cls-18{fill:#fbd734;}.cls-19{fill:#d7e1f2;}.cls-20{fill:#231f20;}.cls-21{fill:#33b1cc;}.cls-22{fill:#86cde8;}</style></defs><circle class="cls-1" cx="308.81" cy="62.51" r="45"/><path d="m279.51,47.31c-2.78-2.42-3.08-6.64-.65-9.42.11-.13.23-.26.35-.38,1.53-1.71,3.84-2.51,6.1-2.1l-.7,3c-1.22-.24-2.47.17-3.3,1.1-1.42,1.64-1.24,4.12.4,5.54,1.54,1.33,3.83,1.27,5.3-.14.91-.88,1.26-2.19.9-3.4l2.9-.9c.92,3.67-1.3,7.39-4.97,8.31-2.29.58-4.73-.07-6.43-1.71l.1.1Z"/><path d="m291.01,38.61c-1.21-2.48-.18-5.48,2.31-6.68,2.48-1.21,5.48-.18,6.68,2.31,1.21,2.48.18,5.46-2.29,6.68-2.48,1.22-5.47.19-6.69-2.28,0,0,0-.01,0-.02Zm6.5-3.1c-.57-1.05-1.89-1.45-2.94-.88s-1.45,1.89-.88,2.94c.54,1.01,1.78,1.42,2.82.94,1.08-.48,1.57-1.74,1.09-2.82-.03-.06-.06-.12-.09-.18Z"/><path d="m312,32.47c.41,2.65-1.4,5.14-4.05,5.57-1.05.15-2.11-.14-2.94-.81l.51,4.76-2.84.3-1.52-13.37,2.84-.3v.91c.7-.87,1.72-1.42,2.84-1.52,2.67-.18,4.98,1.83,5.16,4.5,0,.02,0,.04,0,.06v-.1Zm-2,.33c-.08-1.25-1.16-2.19-2.4-2.11-.03,0-.07,0-.1,0-1.21.08-2.12,1.13-2.03,2.34,0,.09.02.18.03.26.08,1.25,1.16,2.19,2.4,2.11.03,0,.07,0,.1,0,1.21-.08,2.12-1.12,2.04-2.33,0-.1-.02-.2-.04-.3v.03Z"/><path d="m325,35.21c-.52,2.58-3.01,4.27-5.6,3.8-1.04-.24-1.94-.89-2.5-1.8l-1.1,4.6-2.8-.7,3.2-12.9,2.8.7-.2.9c.9-.55,1.99-.69,3-.4,2.53.76,3.97,3.43,3.21,5.96,0,.01,0,.02-.01.04v-.2Zm-3.29-1.12c.32-1.41-.76-2.81-2.32-2.76-.78.02-1.52.49-1.88,1.17-.72,1.36.03,2.92,1.41,3.29,1.17.36,2.41-.3,2.77-1.47.02-.07.04-.15.06-.23h-.03Z"/><path d="m329.11,41.09c.57.35,1.24.49,1.9.4l1.2,2.4c-1.52.57-3.22.3-4.5-.7-2.7-1.8-3.2-4.7-1.6-7.1,1.38-2.96,5.29-3.93,7.95-1.55.6.53,1.05,1.22,1.31,1.98.6,1.83.16,3.67-.96,4.96-.2.3-.5.6-.7.9l-5.6-3.7c-.16.98.32,1.94,1.2,2.4h-.2Zm3.4-2c.37-.91-.02-1.96-.9-2.4-.77-.61-1.88-.57-2.6.1l3.4,2.3h.1Z"/><path d="m343.11,44.09l-2.4,2.1c-.6-1-2.1-2-3.5-.7l-3.2,2.8-1.9-2.1,7.2-6.2,1.9,2.1-1.3,1.1c1.18-.42,2.5-.06,3.3.9h-.1Z"/><rect class="cls-6" x="283" y="54.09" width="52" height="37" rx="2.9" ry="2.9"/><path class="cls-16" d="m300.11,85.09c-3.29.1-6.48-1.17-8.8-3.5-4.67-4.94-4.67-12.66,0-17.6,2.31-2.36,5.5-3.63,8.8-3.5,3.5,0,4.1.5,5.9,1.5,1.77.96,3.26,2.37,4.3,4.1l-5.2,3c-.48-.83-1.17-1.52-2-2-.92-.49-1.96-.73-3-.7-1.72-.07-3.38.59-4.6,1.8-1.18,1.23-1.8,2.9-1.7,4.6-.23,3.31,2.27,6.17,5.58,6.39.24.02.48.02.72,0,1.05.14,2.12-.11,3-.7.85-.45,1.55-1.15,2-2l5.2,3c-1.04,1.73-2.53,3.14-4.3,4.1-1.84,1.01-3.9,1.53-6,1.5h.1Z"/><path class="cls-16" d="m323.1,68.09h5.9v17h-6v-1.71c-1.11,1.49-2.89,2.32-4.74,2.22-1.73.12-3.42-.59-4.54-1.91-1.21-1.21-1.72-3.02-1.72-5.44v-10.15h6v9.4c-.06.74.18,1.46.67,2,.46.47,1.09.73,1.73.7.72.01,1.41-.28,1.92-.8.51-.65.75-1.47.67-2.3v-9h.1Z"/><line class="cls-4" x1="198" y1="116.09" x2="198.5" y2="149.09"/><line class="cls-3" x1="198" y1="116.09" x2="198.33" y2="138.09"/><polygon class="cls-20" points="190.99 136.31 198.67 149.15 205.95 136.09 190.99 136.31"/><line class="cls-4" x1="117.09" y1="112.21" x2="165.74" y2="151.51"/><line class="cls-3" x1="117.09" y1="112.21" x2="157.37" y2="144.75"/><polygon class="cls-20" points="150.96 149.19 165.74 151.52 160.37 137.56 150.96 149.19"/><line class="cls-4" x1="279.74" y1="112.21" x2="231.09" y2="151.51"/><line class="cls-3" x1="279.74" y1="112.21" x2="239.47" y2="144.75"/><polygon class="cls-20" points="236.47 137.56 231.09 151.51 245.87 149.19 236.47 137.56"/><circle class="cls-1" cx="91.19" cy="62.51" r="45"/><path class="cls-22" d="m61,64.86v-.64c.31-.49.85-.8,1.44-.82,1.43-.15,2.53-1.33,2.56-2.77v-.77c.06-.45.47-.77.93-.72.03,0,.06,0,.09.02.47-.01.88.34.92.8-.02.27.02.54.1.8.22,1.11,1.11,1.99,2.24,2.2.71.2.71.1.71-.6v-13.47c-.05-.39.22-.75.62-.8.07,0,.13,0,.2,0h30.57s-.3.72-.5.92l-7.15,7.2c-.2.17-.36.38-.5.6-.19.4-.11.88.2,1.2.32.33.83.37,1.2.1.21-.11.39-.29.5-.5l8.3-8.3c.29-.27.5-.62.6-.22h3.4c0-.48-.3-.38-.5-.18l-13.3,13.3-.5.5c-.25.29-.25.71,0,1,.16.35.52.55.9.5.33-.05.64-.19.9-.4l14.6-14.6c.29-.21.48-.54.5-.12h1.1c1-.78.9-.88.86.12v28.3q.04.8.84.6c1.27-.35,2.16-1.49,2.2-2.8-.06-.49.29-.94.79-1,.07,0,.14,0,.21,0,.6,0,.9.4,1,1,.05,1.54,1.26,2.8,2.8,2.9.52,0,1.16.8,1.16.8v.6s-.6.67-1.06.7c-1.57.04-2.81,1.33-2.8,2.9-.03.34-.17.65-.4.9-.25.23-.61.27-.9.1-.38-.12-.63-.5-.6-.9-.2-1.6-.9-2.6-2.3-2.9-.7-.2-.7-.1-.94.6v12.6c.24.53,0,.8-.46.48h-21.65s.3-.08.5-.28l7.5-7.5c.5-.6.6-1.1.1-1.5-.39-.38-1.01-.38-1.4,0l-.1.1-8.7,8.7c-.25.25-.5,1.48-.5,1.48h-3.4s.3-.98.5-1.18l13.35-13.3c.2-.17.36-.38.5-.6.24-.39.16-.91-.2-1.2-.31-.33-.83-.35-1.16-.04-.01.01-.03.03-.04.04-.1,0-.2.2-.3.3l-14.6,14.6c-.26.24-.44.55-.5,1.38h-10.15c-.44-.42-.84-.73-.9-1.17,0-.07,0-.14-.39-.21v-27.5c.39-.7.39-.8-.31-.6-1.32.36-2.25,1.54-2.3,2.9.03.52-.36.97-.88,1-.04,0-.08,0-.12,0-.55,0-1.39-1-1.39-1v-.38c-.13-1.34-1.22-2.39-2.57-2.48-.49-.02-.95-.27-1.24-.67l-.19-.12Zm5,.52c.37-.22.68-.53.9-.9-.27-.36-.58-.69-.9-1-.35.25-.65.55-.9.9.25.35.55.65.9.9h0v.1Zm51.09,14.2c-.19-.39-.51-.71-.9-.9-.35.25-.65.55-.9.9l.9.9.9-.9Z"/><path class="cls-21" d="m108,48.61c.3-.11.54-.32.7-.6.8-.8,1.6-.6,1.9.5-.04.35-.22.68-.5.9l-14.6,14.6c-.21.28-.55.43-.9.4-.37,0-.71-.19-.9-.5-.2-.3-.2-.7,0-1,.11-.21.29-.39.5-.5l13.3-13.3c.2-.2.4-.3.5-.6v.1Z"/><path class="cls-17" d="m83.79,94.41c-.3.1-.5.4-.8.6-.8.7-1.6.5-1.8-.6.02-.36.21-.69.5-.9l14.6-14.6.3-.3c.36-.25.84-.25,1.2,0,.36.29.44.81.2,1.2-.14.22-.3.43-.5.6l-13.3,13.3c-.2.2-.4.3-.5.6l.1.1Z"/><path class="cls-21" d="m101.49,48.61c.2,0,.4-.2.6-.4,1-1,1.6-.8,2.1.4-.08.39-.29.75-.6,1l-8.3,8.3-.5.5c-.37.27-.88.23-1.2-.1-.38-.25-.49-.77-.24-1.15.01-.02.02-.03.04-.05.11-.24.28-.45.5-.6l7.2-7.2c.2-.2.4-.3.5-.6l-.1-.1Z"/><path class="cls-21" d="m89.79,94.51c-.3.11-.54.32-.7.6-.8.8-1.6.5-1.9-.5.02-.33.21-.63.5-.8l8.7-8.7c.25-.43.8-.58,1.23-.33.06.04.12.08.17.13l.1.1c.39.39.39,1.02,0,1.41-.03.03-.06.06-.1.09l-7.5,7.5c-.2.2-.4.3-.4.6l-.1-.1Z"/><path d="m79.49,32.31c2.03,2.82,1.4,6.75-1.41,8.78-.16.11-.32.22-.49.32-3.03,2.4-7.43,1.9-9.83-1.13-2.4-3.03-1.9-7.43,1.13-9.83.32-.25.65-.47,1.01-.67,1.95-1.32,4.44-1.55,6.6-.6l-1.4,2.7c-1.21-.46-2.57-.27-3.6.5-1.8,1.08-2.37,3.42-1.29,5.22.06.1.12.19.19.28,1.2,1.9,3.5,2.4,5.7,1,1.3-.69,2-2.16,1.7-3.6l-3,1.9-1.5-2.2,5.6-3.7.6,1.03Z"/><path d="m80.39,24.61l2.8-.7,3.55,13.5-2.8.7-3.55-13.5Z"/><path d="m97.89,27.09l-.2,10h-3.69v-1.08c.03.77-1.03,1.18-2.11,1.1-2.5,0-4.5-2.3-4.5-5.1-.09-2.62,1.96-4.81,4.58-4.9.04,0,.08,0,.12,0,1.07-.05,2.1.39,2.91,1.2v-1.22h2.89Zm-3,5.02c.1-1.22-.8-2.29-2.01-2.39-.06,0-.13,0-.19,0-1.18-.09-2.21.8-2.3,1.99,0,.1,0,.21,0,.31-.1,1.22.8,2.29,2.01,2.39.06,0,.13,0,.19,0,1.18.09,2.21-.8,2.3-1.99,0-.1,0-.21,0-.31Z"/><path d="m106.59,37.31c-.8,2.1-2.9,2.3-4.8,1.6-1.65-.49-2.86-1.9-3.1-3.6l2.8-.5c-.07.73.39,1.4,1.1,1.6.6.2,1,.2,1.2-.2.4-1-4.2-2.1-3.1-5.2.7-2,2.7-2.3,4.6-1.6,1.45.47,2.53,1.7,2.8,3.2l-2.8.4c.03-.56-.35-1.07-.9-1.2-.5-.2-.8-.1-.9.2-.4,1,4.3,2,3.1,5.3Z"/><path d="m113.29,42.09c-1.3,1.8-3.4,1.4-5.1.2-1.46-.91-2.25-2.6-2-4.3l2.8.3c-.22.72.06,1.5.7,1.9.6.4,1,.4,1.2.1.6-.9-3.5-3.2-1.6-5.8,1.2-1.7,3.3-1.5,4.9-.3,1.27.82,1.97,2.29,1.8,3.8l-2.8-.4c0-.6,0-1.1-.5-1.4s-.8-.3-1,0c-.6.9,3.6,3.1,1.5,5.9h.1Z"/><circle class="cls-1" cx="200" cy="62.51" r="45"/><path d="m180.41,33.31c1.57,2.02,1.21,4.92-.8,6.5l-1.6,1.2,2.6,3.3-2.4,1.9-8.3-10.43,3.9-3.1c1.97-1.6,4.87-1.31,6.47.66,0,.01.02.02.03.04l.1-.07Zm-2.41,1.9c-.47-.71-1.43-.9-2.14-.43-.06.04-.11.08-.16.13l-1.6,1.2,2.1,2.7,1.6-1.2c.69-.56.79-1.58.23-2.27,0-.01-.02-.02-.03-.03v-.1Z"/><path d="m180.81,27.61l2.6-1.2,5.8,12.6-2.6,1.2-5.8-12.6Z"/><path d="m198.21,27.09l1.7,9.4-2.8.5-.2-.9c-.58.9-1.53,1.49-2.6,1.6-2.61.37-5.03-1.46-5.4-4.07l-.04-.32c-.15-1.12,0-2.28.59-3.25.72-1.18,1.83-1.91,3.05-2.16,1.04-.24,2.13-.03,3,.6l-.2-.9,2.8-.5h.1Zm-2,5.22c-.14-1.2-1.22-2.06-2.42-1.93-.06,0-.12.02-.18.03-1.17.14-2,1.2-1.87,2.36.01.11.04.23.07.34.14,1.2,1.22,2.06,2.42,1.93.06,0,.12-.02.18-.03,1.17-.14,2-1.2,1.87-2.36-.01-.11-.04-.23-.07-.34Z"/><path d="m208.74,34.78c-.3,2.2-2.3,2.9-4.3,2.6-1.73-.04-3.25-1.16-3.8-2.8l2.6-1.1c.14.73.76,1.26,1.5,1.3.7,0,1,0,1.1-.5.1-1-4.6-1.1-4.2-4.3.3-2.1,2.1-2.9,4.1-2.6,1.51.13,2.82,1.1,3.4,2.5l-2.6,1c-.16-.54-.64-.94-1.2-1-.5,0-.8,0-.9.4-.1,1.1,4.6,1,4.1,4.4l.2.1Z"/><path d="m214,32.78l-1.2,3.1c-.3.8.3,1.1,1.5,1.5l-.9,2.4c-3.6-1-4.2-2.4-3.3-4.9l1.2-3.2-1.4-.5,1-2.6,1.4.5.6-1.7,3,.2-.9,2.5,1.8.7-1,2.6-1.8-.7v.1Z"/><path d="m219.74,32.21l2.4,1.5-4.9,8.2-2.4-1.5,4.9-8.2Zm1.1-2.12c.47-.8,1.5-1.07,2.3-.6.8.47,1.07,1.5.6,2.3-.47.8-1.5,1.07-2.3.6-.8-.44-1.1-1.45-.66-2.25,0-.02.02-.03.03-.05h.03Z"/><path d="m221.41,38.71c1.78-2.01,4.86-2.2,6.87-.41.08.07.15.14.23.21,1.3,1.19,1.84,2.99,1.4,4.7l-2.8-.7c.21-.73-.02-1.51-.6-2-.92-.82-2.33-.73-3.15.19-.76.86-.74,2.17.05,3.01.53.59,1.36.79,2.1.5l.8,2.7c-1.7.51-3.54.05-4.8-1.2-2.02-1.89-2.12-5.05-.23-7.07.01-.01.02-.02.03-.03l.1.1Z"/><path class="cls-19" d="m223,58.78v.31h-1.26c-.68-.21-.74.48-.74.48v30.85c.02.45-.13.88-.42,1.22-.19.22-.5.25-.69.45h-10.75c0-.09,0-.18,0-.27l-1.24-5.42c-.73-3.14-1.44-6.29-2.17-9.45-1.08-4.63-2.16-9.23-3.23-13.82-.93-4.04-1.86-8.06-2.78-12.04h15.64c.23-.04.47.03.65.18v6.37c0,.76.59,1.39,1.35,1.45h3.37s.38-.4.28-.67v-1.83c.22,0,.27.1.34.18l1.66,2.01Z"/><path class="cls-13" d="m223,90.43c0,.8-.88,1.25-1.76,1.1-.41-.02-.82-.02-1.23,0,.19-.2.49-.24.68-.45.28-.34.43-.77.31-1.21v-30.35q.1-.69.79-.43h1.21v31.34Z"/><path class="cls-9" d="m180,51v-.87c-.16-.84.28-1.69,1.06-2.04h1.94c0,.07.04.14.1.18.58.37.89,1.04.79,1.72-.02.36-.02.73,0,1.09h-3.81l-.08-.09Z"/><path class="cls-14" d="m184,51.09v-1.24c-.15-.7-.47-1.4-1.07-1.78-.06-.05-.1-.12-.1.02h2c.89.19,1.38,1.16,1.17,2.12v.88h-2Z"/><path class="cls-10" d="m209.44,92.04l-.04.05h-6.28c0-.06,0-.13,0-.19l-1.85-8.08-3.21-13.8c-1.08-4.65-2.16-9.33-3.23-14.04-.37-1.63-.74-3.25-1.11-4.88h6.28c.92,4.04,1.84,8.05,2.77,12.03,1.06,4.59,2.13,9.19,3.2,13.78.73,3.15,1.45,6.3,2.16,9.45.44,1.9.88,3.8,1.32,5.69Z"/><path class="cls-10" d="m216,51.51c.12.03.23.1.31.21l4.56,5,.12.32v1.66c0,.21-.17.38-.38.38h-3.42c-.66-.06-1.18-.64-1.2-1.37v-6.21Z"/><path class="cls-19" d="m193.79,51.09c.37,1.51.73,3.12,1.1,4.73,1.06,4.62,2.12,9.24,3.19,13.86l3.18,13.69,1.83,8c0,.06,0,.72,0,.72h-14.09v-3.53c.04-.51-.23-.81-.67-.82s-.33.82-.33.82v3.53h-9.26c-.95,0-1.73-.78-1.74-1.73v-.02c0-12.51,0-25.01,0-37.51-.01-.95.74-1.73,1.69-1.74.02,0-.32,0-.32,0h9.63v2.91c-.46.4-.18.77.22.82.03,0,.06,0,.09,0,.46,0,.75-.29.69-.83v-2.91h4.79Zm-4.79,20.21v-1.52c.05-.4-.28-.73-.68-.73s-.73.33-.32.73v3c-.41.4-.08.73.32.73s.73-.33.73-.73c.01-.5,0-1-.05-1.48Zm-1,6.14v1.55s-.09.73.31.73.69-.73.69-.73v-3.06s-.31-.73-.72-.76c-.39,0-1.28.7-1.28.7l1,.05v1.52Zm0-12.41v1.5c-.44.41-.13.77.29.79,0,0,0,0,0,0,.42-.05.74-.4.71-.82v-2.91c.04-.55-.22-.83-.7-.83s-.71.29-.72.81,0,1,.42,1.46Zm0-6.27v1.51c-.47.37-.2.71.17.76.04,0,.08,0,.13,0,.39.02.72-.27.74-.65,0-.04,0-.08-.04-.13v-2.92c.08-.38-.19-.73-.57-.78-.04,0-.08,0-.13,0-.45,0-.71.28-.72.8s0,.94,0,1.41h.42Zm1,25v-1.47c.05-.52-.22-.8-.67-.81-.39-.02-.72.27-.74.65,0,.04,0,.08.41.13v2.92c-.46.38-.2.72.18.78.05,0,.09,0,.14,0,.46,0,.71-.29.72-.8s.01-.94-.04-1.38v-.02Z"/><path class="cls-13" d="m189,51.09v2.91c.04.53-.25.84-.71.82s-.7-.31-.29-.82v-2.91h1Z"/><path class="cls-9" d="m180.08,91.09h3.92v1.16c.1.81-.39,1.57-1.18,1.84h-1.22c-.84.04-1.56-.59-1.6-1.41,0-.05,0-.09,0-.14v-1.37l.08-.08Z"/><path class="cls-14" d="m182.86,94.08c.98-.36,1.48-1.53.91-2.55l.25-.44h2.16c.06.58.06,1.17,0,1.75-.12.76-.79,1.3-1.56,1.25h-1.76Z"/><path class="cls-13" d="m188,91.09v-2.57c-.41-.54-.12-.84.34-.83.4,0,.72.34.72.74,0,.03,0,.06-.06.09v2.57h-1Z"/><path class="cls-8" d="m179.82,51.09h-.08s0-.06,0-.09l.08.09Z"/><path class="cls-8" d="m179.82,91.09l-.07.09s0-.06,0-.09h.07Z"/><path class="cls-7" d="m189,71.3v1.48c.05.4-.28.73-.68.73s-.73-.33-.32-.73v-3c-.41-.4-.08-.73.32-.73s.73.33.73.73c.01.47,0,1-.05,1.52Z"/><path class="cls-13" d="m188,77.44v-1.5c-.44-.38-.16-.71.22-.75.02,0,.05,0,.07,0,.4.03.72.36.71.76v3.06c.07.37-.2.7-.58.74-.04,0-.08,0-.11,0-.38.02-.7-.27-.72-.66,0-.03,0-.07,0-.1-.01-.51,0-1.03.41-1.55Z"/><path class="cls-13" d="m188,65.03v-1.46s-.15-.8.3-.8.7.82.7.82v2.92s-.28.76-.7.81c-.41-.02-.74-.36-.72-.78,0,0-.58-.01-.58-.01l1-1.5Z"/><path class="cls-13" d="m188,58.78v-1.43c-.41-.52-.15-.8.31-.8.38-.03.71.26.73.64,0,.05,0,.09-.04.14v2.92c.04.4-.29.73-.69.73s-.73-.33-.73-.73c0-.47.01-.98.42-1.47Z"/><path class="cls-13" d="m189,83.78v1.42c.05.51-.22.8-.67.8-.38.03-.71-.26-.73-.64,0-.05,0-.09.4-.14v-2.92c-.44-.38-.17-.73.21-.78.04,0,.08,0,.13,0,.45,0,.7.29.66.81v1.45Z"/><line class="cls-4" x1="201" y1="251.09" x2="201.5" y2="284.09"/><line class="cls-3" x1="201" y1="251.09" x2="201.34" y2="273.09"/><polygon class="cls-20" points="193.52 270.31 201.2 283.15 208.48 270.09 193.52 270.31"/><path class="cls-18" d="m217.12,195.88c.56,0,1.12.02,1.68.03.95,0,1.73.78,1.75,1.74.01.88,0,1.76,0,2.63,0,7.43,0,14.85,0,22.28,0,.48-.02.98-.16,1.44-.17.55-.85,1.05-1.43,1.05-6.29,0-12.58,0-18.86,0-.03,0-.06,0-.09-.01,0-1.71,0-3.42,0-5.13,1.31,0,2.62,0,3.93-.01.17,0,.36.04.36-.23.01-.65.06-1.31-.09-1.93-.41-1.67-.89-3.33-1.32-4.99-.12-.45-.24-.9-.4-1.33-.25-.68.22-1.04.63-1.42.68-.62.96-1.4,1.12-2.3.34-1.87-1.24-4.12-3.02-4.69-.06-.1-.14-.15-.25-.09-.09-.02-.18-.04-.27-.06-.04-.06-.09-.07-.16-.04-.17-.02-.35-.05-.52-.07,0-2.27,0-4.54,0-6.81,3.22,0,6.45-.01,9.67-.02.2,0,.4-.02.6-.02,1.15.04,2.31.05,3.46,0,1.13.06,2.26.05,3.39,0Z"/><path class="cls-11" d="m200,219.91c0,1.71,0,3.42,0,5.13-.65,0-1.29.01-1.94.01-5.48,0-10.97-.03-16.45.02-1.44.01-2.19-.77-2.18-2.19.05-8.39.03-16.78,0-25.17,0-1.01.81-1.81,1.77-1.79.56.01,1.12-.01,1.68-.02,1.13.03,2.26.06,3.39-.01,1.15.07,2.3.04,3.45.01.19,0,.37.02.56.02,3.24,0,6.48,0,9.71.01,0,2.27,0,4.54,0,6.81-.36.17-.77.09-1.15.24-1.6.62-2.66,1.7-3.04,3.41-.07.04-.12.08-.03.15-.13,1.41.02,2.7,1.28,3.63.4.29.55.74.39,1.29-.1.34-.23.67-.31,1.01-.22.94-.47,1.88-.72,2.81-.18.69-.4,1.37-.56,2.07-.16.69-.12,1.39-.15,2.09-.01.35.08.47.45.46,1.28-.02,2.56,0,3.84,0Z"/><path class="cls-15" d="m186.27,195.87c-1.13.07-2.26.04-3.39.01,0-3.05-.02-6.1.02-9.15.02-1.41.21-2.81.62-4.18.49-1.65,1.19-3.2,2.14-4.63,1.18-1.79,2.65-3.31,4.4-4.56,1.15-.82,2.36-1.55,3.68-2.01,1.32-.46,2.65-.91,4.07-1.01.8-.06,1.59-.18,2.39-.16,1.99.03,3.92.43,5.78,1.13,1.87.7,3.55,1.72,5.08,2.99,1.32,1.1,2.4,2.4,3.32,3.83.65,1.02,1.17,2.1,1.61,3.23.24.62.41,1.27.62,1.9.2.57.23,1.2.3,1.81.39,3.6.1,7.21.19,10.81-1.13.04-2.26.06-3.39,0,0-2.58-.02-5.15.01-7.73.02-1.48-.17-2.93-.53-4.36-.51-2.01-1.44-3.82-2.8-5.37-1.66-1.9-3.68-3.33-6.11-4.1-1.73-.55-3.48-.72-5.3-.61-1.68.1-3.26.5-4.76,1.2-2.5,1.16-4.46,2.94-5.92,5.29-1.26,2.02-1.94,4.24-2.03,6.59-.11,3.03-.02,6.07-.02,9.11Z"/><path class="cls-5" d="m210.27,195.88c0-2.73.02-5.47,0-8.2-.02-1.45-.22-2.89-.8-4.24-.46-1.07-1.08-2.04-1.85-2.94-1.14-1.33-2.57-2.25-4.18-2.83-1.49-.54-3.05-.72-4.65-.52-.98.12-1.93.35-2.81.73-2.46,1.07-4.27,2.83-5.38,5.29-.52,1.15-.73,2.36-.79,3.61-.15,3.03-.02,6.07-.07,9.1-1.15.02-2.3.05-3.45-.02,0-3.04-.09-6.08.02-9.11.09-2.34.77-4.57,2.03-6.59,1.46-2.34,3.42-4.12,5.92-5.29,1.5-.7,3.08-1.1,4.76-1.2,1.82-.11,3.57.07,5.3.61,2.44.77,4.45,2.2,6.11,4.1,1.36,1.55,2.29,3.36,2.8,5.37.36,1.43.55,2.88.53,4.36-.03,2.58-.01,5.15-.01,7.73-1.15.06-2.31.04-3.46,0Z"/><path class="cls-12" d="m200,219.91c-1.28,0-2.56-.02-3.84,0-.37,0-.46-.11-.45-.46.03-.7-.02-1.41.15-2.09.17-.69.38-1.38.56-2.07.25-.94.5-1.87.72-2.81.08-.34.21-.68.31-1.01.16-.55,0-.99-.39-1.29-1.26-.93-1.41-2.23-1.28-3.63.07-.04.07-.09.03-.15.38-1.7,1.44-2.78,3.04-3.41.38-.15.79-.06,1.15-.24.17.02.35.05.52.07.03.09.08.14.16.04.09.02.18.04.27.06.05.12.15.1.25.09,1.78.57,3.36,2.82,3.02,4.69-.16.9-.45,1.67-1.12,2.3-.41.38-.88.73-.63,1.42.16.43.29.88.4,1.33.43,1.67.91,3.32,1.32,4.99.15.62.1,1.28.09,1.93,0,.28-.19.23-.36.23-1.31,0-2.62,0-3.93.01Z"/><path class="cls-5" d="m201.2,203c-.1,0-.2.03-.25-.09.11-.05.19,0,.25.09Z"/><path class="cls-5" d="m200.68,202.85c-.08.1-.12.05-.16-.04.06-.04.12-.02.16.04Z"/><path class="cls-15" d="m195.81,206.38c.04.06.04.12-.03.15-.09-.07-.03-.12.03-.15Z"/><circle class="cls-2" cx="200.15" cy="200.21" r="44.02"/><path class="cls-18" d="m217.12,328.88c.56,0,1.12.02,1.68.03.95,0,1.73.78,1.75,1.74.01.88,0,1.76,0,2.63,0,7.43,0,14.85,0,22.28,0,.48-.02.98-.16,1.44-.17.55-.85,1.05-1.43,1.05-6.29,0-12.58,0-18.86,0-.03,0-.06,0-.09-.01,0-1.71,0-3.42,0-5.13,1.31,0,2.62,0,3.93-.01.17,0,.36.04.36-.23.01-.65.06-1.31-.09-1.93-.41-1.67-.89-3.33-1.32-4.99-.12-.45-.24-.9-.4-1.33-.25-.68.22-1.04.63-1.42.68-.62.96-1.4,1.12-2.3.34-1.87-1.24-4.12-3.02-4.69-.06-.1-.14-.15-.25-.09-.09-.02-.18-.04-.27-.06-.04-.06-.09-.07-.16-.04-.17-.02-.35-.05-.52-.07,0-2.27,0-4.54,0-6.81,3.22,0,6.45-.01,9.67-.02.2,0,.4-.02.6-.02,1.15.04,2.31.05,3.46,0,1.13.06,2.26.05,3.39,0Z"/><path class="cls-11" d="m200,352.91c0,1.71,0,3.42,0,5.13-.65,0-1.29.01-1.94.01-5.48,0-10.97-.03-16.45.02-1.44.01-2.19-.77-2.18-2.19.05-8.39.03-16.78,0-25.17,0-1.01.81-1.81,1.77-1.79.56.01,1.12-.01,1.68-.02,1.13.03,2.26.06,3.39-.01,1.15.07,2.3.04,3.45.01.19,0,.37.02.56.02,3.24,0,6.48,0,9.71.01,0,2.27,0,4.54,0,6.81-.36.17-.77.09-1.15.24-1.6.62-2.66,1.7-3.04,3.41-.07.04-.12.08-.03.15-.13,1.41.02,2.7,1.28,3.63.4.29.55.74.39,1.29-.1.34-.23.67-.31,1.01-.22.94-.47,1.88-.72,2.81-.18.69-.4,1.37-.56,2.07-.16.69-.12,1.39-.15,2.09-.01.35.08.47.45.46,1.28-.02,2.56,0,3.84,0Z"/><path class="cls-15" d="m186.27,328.87c-1.13.07-2.26.04-3.39.01,0-3.05-.02-6.1.02-9.15.02-1.41.21-2.81.62-4.18.49-1.65,1.19-3.2,2.14-4.63,1.18-1.79,2.65-3.31,4.4-4.56,1.15-.82,2.36-1.55,3.68-2.01,1.32-.46,2.65-.91,4.07-1.01.8-.06,1.59-.18,2.39-.16,1.99.03,3.92.43,5.78,1.13,1.87.7,3.55,1.72,5.08,2.99,1.32,1.1,2.4,2.4,3.32,3.83.65,1.02,1.17,2.1,1.61,3.23.24.62.41,1.27.62,1.9.2.57.23,1.2.3,1.81.39,3.6.1,7.21.19,10.81-1.13.04-2.26.06-3.39,0,0-2.58-.02-5.15.01-7.73.02-1.48-.17-2.93-.53-4.36-.51-2.01-1.44-3.82-2.8-5.37-1.66-1.9-3.68-3.33-6.11-4.1-1.73-.55-3.48-.72-5.3-.61-1.68.1-3.26.5-4.76,1.2-2.5,1.16-4.46,2.94-5.92,5.29-1.26,2.02-1.94,4.24-2.03,6.59-.11,3.03-.02,6.07-.02,9.11Z"/><path class="cls-5" d="m210.27,328.88c0-2.73.02-5.47,0-8.2-.02-1.45-.22-2.89-.8-4.24-.46-1.07-1.08-2.04-1.85-2.94-1.14-1.33-2.57-2.25-4.18-2.83-1.49-.54-3.05-.72-4.65-.52-.98.12-1.93.35-2.81.73-2.46,1.07-4.27,2.83-5.38,5.29-.52,1.15-.73,2.36-.79,3.61-.15,3.03-.02,6.07-.07,9.1-1.15.02-2.3.05-3.45-.02,0-3.04-.09-6.08.02-9.11.09-2.34.77-4.57,2.03-6.59,1.46-2.34,3.42-4.12,5.92-5.29,1.5-.7,3.08-1.1,4.76-1.2,1.82-.11,3.57.07,5.3.61,2.44.77,4.45,2.2,6.11,4.1,1.36,1.55,2.29,3.36,2.8,5.37.36,1.43.55,2.88.53,4.36-.03,2.58-.01,5.15-.01,7.73-1.15.06-2.31.04-3.46,0Z"/><path class="cls-12" d="m200,352.91c-1.28,0-2.56-.02-3.84,0-.37,0-.46-.11-.45-.46.03-.7-.02-1.41.15-2.09.17-.69.38-1.38.56-2.07.25-.94.5-1.87.72-2.81.08-.34.21-.68.31-1.01.16-.55,0-.99-.39-1.29-1.26-.93-1.41-2.23-1.28-3.63.07-.04.07-.09.03-.15.38-1.7,1.44-2.78,3.04-3.41.38-.15.79-.06,1.15-.24.17.02.35.05.52.07.03.09.08.14.16.04.09.02.18.04.27.06.05.12.15.1.25.09,1.78.57,3.36,2.82,3.02,4.69-.16.9-.45,1.67-1.12,2.3-.41.38-.88.73-.63,1.42.16.43.29.88.4,1.33.43,1.67.91,3.32,1.32,4.99.15.62.1,1.28.09,1.93,0,.28-.19.23-.36.23-1.31,0-2.62,0-3.93.01Z"/><path class="cls-5" d="m201.2,336c-.1,0-.2.03-.25-.09.11-.05.19,0,.25.09Z"/><path class="cls-5" d="m200.68,335.85c-.08.1-.12.05-.16-.04.06-.04.12-.02.16.04Z"/><path class="cls-15" d="m195.81,339.38c.04.06.04.12-.03.15-.09-.07-.03-.12.03-.15Z"/><circle class="cls-2" cx="200.15" cy="333.21" r="44.02"/></svg>