<?xml version="1.0" encoding="UTF-8"?><svg id="Layer_1" xmlns="http://www.w3.org/2000/svg" viewBox="0 0 400 400"><defs><style>.cls-1{fill:#435256;}.cls-2{stroke:#000;}.cls-2,.cls-3{stroke-width:4px;}.cls-2,.cls-3,.cls-4{stroke-miterlimit:10;}.cls-2,.cls-3,.cls-4,.cls-5{fill:none;}.cls-6{fill:#d2febf;}.cls-7{fill:#999afe;}.cls-8{fill:#546e7a;}.cls-9{fill:#fcc472;}.cls-10{fill:#2d3b3d;}.cls-3{stroke:#c000e2;}.cls-11{fill:#00f6d5;}.cls-12{fill:#989afe;}.cls-13{fill:#fbc372;}.cls-14{fill:#02f6d5;}.cls-15{fill:#03f6d5;}.cls-16{fill:#ffed58;}.cls-4{stroke:#231f20;stroke-width:2px;}.cls-17{fill:#36464e;}.cls-18{fill:#00244d;}.cls-19{fill:#b7b7fe;}.cls-20{fill:#979bfd;}.cls-21{fill:#788f9b;}.cls-22{fill:#fdc472;}.cls-23{fill:#b8b8fd;}.cls-24{fill:#fbd734;}.cls-25{fill:#014767;}.cls-26{fill:#231f20;}.cls-27{fill:#00dbe6;}.cls-28{fill:#f99e3d;}</style></defs><line class="cls-5" x1="111.61" y1="202.13" x2="144.39" y2="201.63"/><line class="cls-4" x1="111.61" y1="202.13" x2="133.63" y2="201.79"/><polygon class="cls-26" points="131.55 209.31 144.39 201.63 131.32 194.35 131.55 209.31"/><line class="cls-5" x1="289.39" y1="202.13" x2="256.61" y2="201.63"/><line class="cls-4" x1="289.39" y1="202.13" x2="267.37" y2="201.79"/><polygon class="cls-26" points="269.68 194.35 256.61 201.63 269.45 209.31 269.68 194.35"/><line class="cls-5" x1="200.25" y1="113.49" x2="200.75" y2="146.27"/><line class="cls-4" x1="200.25" y1="113.49" x2="200.59" y2="135.51"/><polygon class="cls-26" points="193.07 133.43 200.75 146.27 208.03 133.2 193.07 133.43"/><line class="cls-5" x1="200.25" y1="290.27" x2="200.75" y2="257.49"/><line class="cls-4" x1="200.25" y1="290.27" x2="200.59" y2="268.25"/><polygon class="cls-26" points="208.03 270.56 200.75 257.49 193.07 270.33 208.03 270.56"/><circle class="cls-3" cx="339.44" cy="201.88" r="45"/><path d="m306.64,199.38l-.7-2.3c.97-.09,1.76-.83,1.9-1.8.3-1.1-.1-1.5-.5-1.6-.6-.2-1,.4-1.8,1.8-.8,1.4-1.9,2.7-3.8,2.2-1.77-.47-2.82-2.29-2.34-4.05.01-.05.03-.1.04-.15.32-1.62,1.58-2.88,3.2-3.2l.7,2.2c-.81.08-1.47.7-1.6,1.5-.2.7,0,1.2.5,1.3s.8,0,1.7-1.5c.9-1.5,1.8-3,4-2.5,2,.5,2.7,2.3,2.2,4.5-.29,1.8-1.7,3.21-3.5,3.5v.1Z"/><path d="m307.74,189.98c-1.93-1.07-2.63-3.5-1.56-5.44s3.5-2.63,5.44-1.56c1.93,1.07,2.63,3.5,1.56,5.44-.01.02-.02.04-.04.06-1.09,1.89-3.49,2.56-5.4,1.5Zm2.8-5c-.85-.44-1.89-.11-2.33.74-.44.85-.11,1.89.74,2.33.82.43,1.83.13,2.3-.67.46-.86.14-1.92-.71-2.39,0,0-.02-.01-.03-.01h.04Z"/><path d="m312.44,182.08c-1.55-1.41-1.66-3.81-.25-5.35.08-.09.16-.17.25-.25.97-.97,2.36-1.38,3.7-1.1l-.5,2.2c-.59-.2-1.23,0-1.6.5-.62.7-.56,1.78.14,2.4.64.57,1.61.57,2.26,0,.45-.4.61-1.04.4-1.6l2.2-.6c.37,1.35-.01,2.8-1,3.8-1.41,1.55-3.81,1.66-5.35.25-.09-.08-.17-.16-.25-.25Z"/><path d="m330.04,174.68l-1.3-.5c-.51.83-1.29,1.46-2.2,1.8-2,.9-3.9.4-4.7-1.4-.51-1.11-.39-2.4.3-3.4-.47-.34-.84-.79-1.1-1.3-.68-1.59.06-3.43,1.65-4.11.08-.03.16-.07.25-.09,1.38-.63,3.01-.35,4.1.7l-1.4,1.9c-.39-.53-1.09-.74-1.7-.5-.49.15-.76.67-.61,1.16,0,.01,0,.02.01.04.2.5.7.7,1.4,1l2.6,1.2c.03-.57-.04-1.15-.2-1.7l2.3.2c.1.8.1,1.6,0,2.4l1.8.8-1.3,1.7.1.1Zm-3.2-1.4l-2.6-1.1h-.1c-.2.37-.2.83,0,1.2.3.6.9.9,1.9.5.32-.18.62-.38.9-.6h-.1Z"/><path d="m345.94,173.18h-2.44c0-.1.3-6.2.3-6.2l-2.9,4.3h-.3l-2.5-4.6-.3,6.1h-2.4c0-.1.5-10.6.5-10.6h2.4c0,.1,2.6,4.9,2.6,4.9l3.1-4.5h2.4c.04.1-.46,10.6-.46,10.6Z"/><path d="m351.04,173.28c.48.2,1.02.2,1.5,0l1.3,1.6c-1.07.7-2.43.82-3.6.3-2.06-.61-3.24-2.77-2.63-4.83.04-.12.08-.25.13-.37.69-2.01,2.87-3.07,4.88-2.38.07.03.15.05.22.08,1.97.73,2.97,2.91,2.25,4.88-.01.04-.03.08-.05.12-.07.29-.21.57-.4.8l-5-1.9c.02.77.55,1.42,1.3,1.6l.1.1Zm2.3-2.1c.06-.75-.39-1.45-1.1-1.7-.67-.33-1.48-.12-1.9.5l3,1.1v.1Z"/><path d="m365.94,179.88l-2.9,3.6-1.7-1.4,2.8-3.4c.5-.6.5-1.2,0-1.6s-1.2-.3-1.8.3l-2.7,3.3-1.7-1.4,2.8-3.4c.5-.6.5-1.2,0-1.6s-1.2-.3-1.8.3l-2.7,3.3-1.7-1.4,4.8-5.8,1.7,1.4-.4.5c.76-.16,1.54.06,2.1.6.63.46.98,1.22.9,2,.82-.18,1.67.05,2.3.6,1.21.98,1.39,2.76.41,3.97-.07.08-.14.16-.21.23l-.2-.1Z"/><path d="m366.24,181.88c1.88-1.16,4.34-.58,5.51,1.3,1.16,1.88.58,4.34-1.3,5.51-1.88,1.16-4.34.58-5.51-1.3,0,0,0,0,0,0-1.17-1.84-.62-4.28,1.22-5.45.03-.02.05-.03.08-.05Zm3,4.8c.82-.47,1.11-1.51.64-2.33-.01-.02-.03-.05-.04-.07-.46-.79-1.47-1.05-2.26-.59-.05.03-.1.06-.14.09-.82.47-1.11,1.51-.64,2.33.01.02.03.05.04.07.46.79,1.47,1.05,2.26.59.05-.03.1-.06.14-.09Z"/><path d="m376.14,193.08l-2.4.8c-.13-1.05-1.09-1.79-2.14-1.65-.09.01-.18.03-.26.05l-3.2,1.1-.7-2.1,7.1-2.5.7,2.1-1.3.4c.97.02,1.82.67,2.1,1.6l.1.2Z"/><path d="m377.44,202.38l-7.5-1.6c-2.5-.5-3.6-1.7-3.7-3.8l2.1-.3c-.03.87.63,1.62,1.5,1.7l6.7-3.9.3,2.5-4.3,2.2,4.7.8.3,2.4h-.1Z"/><path class="cls-1" d="m330.34,236.98h-10.5c-.85-.43-1.34-1.36-1.2-2.3v-26.8c0-.7.2-.9.9-1.1.5,0,.7-.4.7-.9v-3c.06-.44-.25-.84-.69-.9,0,0,0,0-.01,0-.8-.2-.9-.4-.9-1.1v-6.4c0-.74.29-1.46.8-2,2-1.9,3.9-3.9,5.9-5.9.53-.52,1.25-.81,2-.8h24.4v.2c.63.47.97,1.22.9,2-.6.2-.8.3-.8.9v6.5c0,.6.2.8.8.9v16.9c-.14-.46-.53-.81-1-.9h-26.3c-.8,0-1.2.4-1.2,1.3v16.2c-.11.67.34,1.29,1.01,1.4.13.02.26.02.39,0h26c.7,0,1.2-.2,1.4-.9v3.8c0,1,0,2-1,2.6h-5.44c-.2-.2-.5-.4-.6-.7-.19-.37-.58-.61-1-.6h-12.5c-.5,0-.9,0-1.1.5-.21.31-.48.59-.8.8l-.16.3Zm9.1-44.8v-3.2c0-.6-.3-.9-.8-.9s-.7.4-.7.9v6.5h0c0,.6.3.9.8.9.39,0,.71-.32.71-.71,0-.03,0-.06,0-.09v-3.3h0v-.1Zm4.7,0v-3.2c0-.6-.3-1-.8-1s-.8.4-.8,1v6.4c0,.6.3,1,.8,1s.8-.3.8-1v-3.1h0v-.1Zm4.7,0v-3.2c0-.6-.3-.9-.8-.9s-.8.4-.8,1v6.4c0,.6.3,1,.8,1s.8-.3.8-.9v-3.2h0v-.2Zm-18.8,0v-3.2c0-.6-.3-.9-.7-.9-.45,0-.81.38-.8.84,0,.02,0,.04,0,.06v6.4c0,.6.3.9.7.9s.8-.3.8-.9v-3.2Zm4.7,0v-3.2c0-.6-.3-1-.8-.9-.44.05-.75.45-.7.89,0,0,0,0,0,.01v6.4c0,.6.3.9.8.9s.7-.3.7-.9v-3.2Zm-11.4,2.1h0v1.3c-.01.38.28.69.66.7.01,0,.03,0,.04,0,.4-.02.73-.31.8-.7h0v-2.6c.02-.41-.29-.76-.7-.8h0c-.4,0-.7.3-.8.8v1.3Z"/><path class="cls-10" d="m351.84,185.88h4.8c.87-.01,1.59.69,1.6,1.56,0,.01,0,.03,0,.04v4.7c0,.3-.1.6-.5.6s-.6.3-.6.8v10.1c0,.4.1.7.5.8s.6.4.6.8v29.6c.09.91-.39,1.78-1.2,2.2h-5.2c.77-.63,1.15-1.62,1-2.6v-37.8c.5,0,.7-.4.7-1v-6.4c.06-.46-.24-.9-.7-1,.07-.78-.27-1.53-.9-2v-.2l-.1-.2Z"/><path class="cls-22" d="m324.14,229.28v-15.5c0-.9.4-1.3,1.2-1.3h22v15c0,1.6-.3,1.8-1.8,1.8h-21.4Z"/><path class="cls-28" d="m324.14,229.28h21.5c1.6,0,1.8-.3,1.8-1.8v-15h4.3c.52,0,.95.39,1,.9v17.1c-.2.7-.7.9-1.4.9h-26c-1,0-1.4-.4-1.4-1.4v-.7h.2Z"/><path class="cls-9" d="m352.84,188.08c.5.1.7.4.7,1v6.4c.06.46-.24.9-.7,1-.6-.1-.8-.3-.8-.9v-6.5c0-.6.2-.8.8-.9v-.1Z"/><path class="cls-9" d="m339.44,192.18v3.3c.05.39-.23.74-.61.79-.03,0-.06,0-.09,0-.41.03-.77-.27-.8-.67,0-.04,0-.08,0-.13h0v-6.6c-.05-.44.26-.84.7-.9.45,0,.81.38.8.84,0,.02,0,.04,0,.06v3.3Z"/><path class="cls-9" d="m344.14,192.28v3.1c0,.6-.3,1-.8,1s-.8-.3-.8-1v-6.4c0-.6.3-1,.8-1s.8.4.8,1v3.3h0Z"/><path class="cls-9" d="m348.84,192.28v3.2c0,.6-.3,1-.8.9s-.8-.3-.8-1v-6.4c0-.6.3-1,.8-1s.7.4.8.9v3.4h0Z"/><path class="cls-9" d="m330.04,192.28v3.2c0,.6-.3.9-.8.9s-.7-.3-.7-.9v-6.4c0-.6.3-1,.8-.9.44.05.75.45.7.89,0,0,0,0,0,.01v3.2Z"/><path class="cls-9" d="m334.74,192.28v3.2c0,.6-.3.9-.7.9s-.8-.3-.8-.9v-6.4c0-.6.3-.9.7-.9.45,0,.81.38.8.84,0,.02,0,.04,0,.06v3.2Z"/><path class="cls-13" d="m323.34,194.38v-1.3c-.03-.41.27-.77.67-.8.04,0,.08,0,.13,0,.44,0,.79.34.8.78,0,0,0,.01,0,.02h0v2.6c.01.38-.28.69-.66.7-.01,0-.03,0-.04,0h0c-.35.04-.66-.21-.7-.55,0-.05,0-.1,0-.15v-1.3h-.2,0Z"/><circle class="cls-3" cx="200.5" cy="339.77" r="45"/><path d="m163.2,331.47l-.6,2.8,8.5,1.8-.5,2.5-8.5-1.8-.6,2.8-2.4-.5,1.7-8.1,2.4.5Z"/><path d="m167.8,323.37l7.2,3.5-1,2.2-.7-.3c.33.85.26,1.81-.2,2.6-.9,1.9-3.3,2.6-5.5,1.6-2.03-.86-2.99-3.21-2.12-5.24,0-.02.02-.04.02-.06.33-.83,1.03-1.46,1.9-1.7l-.7-.3,1-2.2.1-.1Zm2.6,3.9c-.91-.49-2.04-.15-2.53.76-.02.05-.05.09-.07.14-.48.95-.09,2.1.85,2.58.02,0,.03.02.05.02.91.49,2.04.15,2.53-.76.02-.05.05-.09.07-.14.48-.95.09-2.1-.85-2.58-.02,0-.03-.02-.05-.02h0Z"/><path d="m178.5,317.07c1.68,1.45,1.9,3.98.5,5.7-.56.69-1.41,1.09-2.3,1.1l.5.5-1.6,1.8-8.2-7.6,1.6-1.8,2.9,2.7c-.02-.89.3-1.75.9-2.4,1.6-1.5,4.1-1.5,5.7,0Zm-1.6,1.8c-.74-.75-1.94-.75-2.69-.01,0,0,0,0-.01.01-.72.7-.74,1.85-.04,2.57.04.04.09.09.14.13.74.75,1.94.75,2.69.01,0,0,0,0,.01-.01.72-.7.73-1.86.03-2.57-.04-.04-.08-.08-.13-.12h0Z"/><path d="m175.6,309.97l2-1.4,6.7,9.6-2,1.4-6.7-9.6Z"/><path d="m188.1,313.97c.54-.23.97-.66,1.2-1.2l2.2.3c-.33,1.34-1.31,2.42-2.6,2.9-2.02,1.04-4.51.25-5.55-1.77-.05-.11-.1-.21-.15-.33-.94-2.15.04-4.66,2.19-5.6,0,0,0,0,0,0,2.02-.9,4.38,0,5.29,2.02.04.09.08.19.11.28l.3.9-5.2,2.2c.61.54,1.47.65,2.2.3Zm.2-3.3c-.47-.68-1.37-.89-2.1-.5-.77.3-1.23,1.09-1.1,1.9l3.2-1.4Z"/><path d="m195,308.07l.5,2.8c.1.7.7.6,1.7.4l.4,2.1c-3,.9-4.1.1-4.5-2.1l-.5-2.8-1.3.2-.4-2.3,1.3-.2-.3-1.5,2.2-1.1.4,2.2,1.6-.3.4,2.3-1.6.3h.1Z"/><path d="m198.6,307.37l6.1.2v2.31l-6.1-.2v-2.31Z"/><path d="m215.1,312.27c-.53,2.14-2.71,3.45-4.85,2.91-.02,0-.03,0-.05-.01-.87-.21-1.61-.79-2-1.6l-.2.7-2.3-.7,3.3-10.7,2.3.7-1.2,3.8c.8-.43,1.74-.5,2.6-.2,2.08.74,3.17,3.02,2.43,5.11-.01.03-.02.06-.03.09v-.1Zm-2.3-.7c.37-.92-.07-1.96-.99-2.33-.07-.03-.14-.05-.21-.07-.99-.32-2.05.22-2.37,1.2-.01.03-.02.06-.03.1-.37.92.07,1.96.99,2.33.07.03.14.05.21.07.99.32,2.05-.22,2.37-1.2.01-.03.02-.06.03-.1Z"/><path d="m216.3,312.88c1.28-1.93,3.89-2.45,5.81-1.16.03.02.06.04.09.06,1.91,1.22,2.47,3.76,1.25,5.68-.05.08-.1.15-.15.22-1.28,1.93-3.89,2.45-5.81,1.16-.03-.02-.06-.04-.09-.06-1.91-1.22-2.47-3.76-1.25-5.68.05-.08.1-.15.15-.22Zm5,3.4c.58-.86.36-2.02-.5-2.6-.86-.58-2.02-.36-2.6.5-.6.75-.48,1.85.27,2.45.07.06.15.11.23.15.83.58,1.97.39,2.55-.44.02-.02.03-.05.05-.07h0Z"/><path d="m235.4,320.67l-8.7,7.1-1.5-1.9.6-.5c-.91-.04-1.75-.48-2.3-1.2-1.3-1.79-.9-4.29.88-5.59,0,0,.01,0,.02-.01,1.66-1.48,4.2-1.34,5.7.3.64.66.9,1.6.7,2.5l3.1-2.5,1.5,1.9v-.1Zm-7.1,2.7c.82-.6,1-1.75.4-2.57-.03-.04-.07-.09-.1-.13-.56-.79-1.65-.98-2.44-.43-.09.07-.18.14-.26.23-.82.6-1,1.75-.4,2.57.03.04.07.09.1.13.56.79,1.65.98,2.44.43.09-.07.18-.14.26-.23h0Z"/><path d="m237.5,332.47l-8.2.6c-2.7.2-4.2-.7-5-2.8l2.1-.9c.22.89,1.1,1.46,2,1.3l5.8-5.9,1,2.4-3.8,3.6,5.1-.6,1,2.4v-.1Z"/><path d="m241.8,338.37l-11,2-.5-2.5,8.4-1.5-.9-1.9,2-1,1.6,2.7.4,2.2Z"/><path class="cls-18" d="m200.5,327.17h12.4c1.92-.07,3.53,1.44,3.6,3.36,0,.01,0,.03,0,.04v34.4c.09,1.38-.66,2.68-1.9,3.3-.3.2-.7.2-1,.4h-13.1v-2.4h12.2c.9,0,1.3-.4,1.3-1.2v-34.3c0-.9-.4-1.2-1.3-1.2h-12.2v-2.4Z"/><path class="cls-25" d="m200.5,366.07v2.4h-13.2c-.1-.2-.4-.2-.5-.2-1.31-.47-2.18-1.71-2.2-3.1v-34.4c-.12-1.42.69-2.75,2-3.3.37-.19.78-.3,1.2-.3h12.7v2.4h-12.2c-.9,0-1.3.3-1.3,1.3v34c0,.9.3,1.3,1.3,1.3h12.2v-.1Z"/><path class="cls-11" d="m200.5,329.57h12.2c.9,0,1.3.4,1.3,1.2v34c0,.9-.4,1.2-1.3,1.2h-12.2v-2.5h3.5c.5,0,1.1-.4,1.1-.9.19-.67-.2-1.37-.87-1.56-.14-.04-.29-.05-.43-.04h-3.3v-9.8c.7-.03,1.24-.63,1.21-1.33,0-.02,0-.05,0-.07v-4.1c.07-.7-.43-1.32-1.13-1.39-.02,0-.05,0-.07,0v-9.8h1.7c.64.02,1.18-.48,1.2-1.12,0-.03,0-.05,0-.08h0c.02-.64-.48-1.18-1.12-1.2-.03,0-.05,0-.08,0h-1.7v-2.5h0Zm5.9,18.3v-3.8c.01-.47-.21-.92-.6-1.2-.54-.35-1.27-.2-1.62.35-.14.22-.21.49-.18.75v7.5c-.06.51.17,1.01.6,1.3.58.33,1.32.13,1.65-.45.13-.23.18-.49.15-.75v-3.69h0Zm4.7,0v-1c.02-.64-.48-1.18-1.12-1.2-.03,0-.05,0-.08,0h0c-.62-.04-1.16.43-1.2,1.06,0,.01,0,.03,0,.04v2.11c0,.61.49,1.11,1.1,1.12.07,0,.13,0,.2-.02.62-.05,1.1-.57,1.1-1.2v-1h0v.09Z"/><path class="cls-6" d="m200.5,329.57v2.5h-1.6c-.65-.07-1.23.41-1.29,1.05,0,.05,0,.1,0,.15.02.68.59,1.22,1.28,1.2,0,0,.01,0,.02,0h1.6v9.8h0c-.8,0-1.2.7-1.2,1.5v3.9c-.08.74.46,1.41,1.2,1.5h0v9.9h-3.3c-.65-.07-1.23.41-1.29,1.05,0,.05,0,.1,0,.15.02.68.59,1.22,1.28,1.2,0,0,.01,0,.02,0h3.3v2.5h-12.2c-.9,0-1.3-.3-1.3-1.3v-33.79c0-.9.3-1.3,1.3-1.3h12.2Zm-3.6,18.2v-5.89c-.24-.49-.75-.8-1.3-.8-.58.1-1.01.61-1,1.2v10.9c-.02.64.48,1.18,1.12,1.2.03,0,.05,0,.08,0h0c.61,0,1.11-.49,1.12-1.1,0-.07,0-.13-.02-.2v-5.3h0Zm-4.7,0v-2.2c0-.66-.53-1.2-1.2-1.2-.66,0-1.2.53-1.2,1.2h0v4.32c0,.66.53,1.2,1.2,1.2.66,0,1.2-.53,1.2-1.2h0v-2.12Z"/><path class="cls-20" d="m206.4,347.88v3.8c.08.66-.39,1.27-1.05,1.35-.26.03-.52-.02-.75-.15-.43-.29-.66-.79-.6-1.3v-7.5c0-1.1,1-1.7,1.8-1.1.39.28.61.73.6,1.2v3.7Z"/><path class="cls-27" d="m200.5,361.17h3.3c.69-.05,1.3.48,1.34,1.17.01.15,0,.29-.04.43,0,.4-.6.8-1.1.9h-3.5v-2.4h0v-.1Z"/><path class="cls-12" d="m211.1,347.88v1c-.01.66-.54,1.19-1.2,1.2-.61-.03-1.11-.49-1.2-1.1v-2.1c.02-.62.53-1.12,1.16-1.1.01,0,.03,0,.04,0,.64-.02,1.18.48,1.2,1.12,0,.03,0,.05,0,.08h0v.9Z"/><path class="cls-7" d="m200.5,344.37c.7.03,1.24.63,1.21,1.33,0,.02,0,.05,0,.07v4.11c.07.7-.43,1.32-1.13,1.39-.02,0-.05,0-.07,0h0v-6.9h0Z"/><path class="cls-27" d="m200.5,332.07h1.7c.6-.06,1.14.39,1.2.99,0,.07,0,.14,0,.21.02.64-.48,1.18-1.12,1.2-.03,0-.05,0-.08,0h-1.7v-2.4h0Z"/><path class="cls-23" d="m196.9,347.77v5.4c.04.66-.44,1.23-1.1,1.3-.68,0-1.25-.52-1.3-1.2h0v-10.9c0-.59.42-1.1,1-1.2.57-.07,1.11.26,1.3.8v5.91l.1-.11Z"/><path class="cls-23" d="m192.2,347.88v2.1c0,.66-.53,1.2-1.2,1.2-.66,0-1.2-.53-1.2-1.2h0v-4.31c0-.66.53-1.2,1.2-1.2.66,0,1.2.53,1.2,1.2h0v2.21Z"/><path class="cls-14" d="m200.5,361.17v2.4h-3.3c-.65.07-1.23-.41-1.29-1.05,0-.05,0-.1,0-.15.02-.68.59-1.22,1.28-1.2,0,0,.01,0,.02,0h3.3Z"/><path class="cls-19" d="m200.5,344.37v6.9c-.8,0-1.2-.7-1.2-1.5v-3.89c-.08-.75.45-1.42,1.2-1.51Z"/><path class="cls-15" d="m200.5,332.07v2.4h-1.6c-.66,0-1.2-.53-1.2-1.2,0-.66.53-1.2,1.2-1.2h1.61Z"/><path d="m198.8,334.47h5.7v25.9h-6.6v-18.9l-4.5,1.1-1.6-5.6,7-2.5Z"/><path class="cls-24" d="m216.12,54.22c.56,0,1.12.02,1.68.03.95,0,1.73.78,1.75,1.74.01.88,0,1.76,0,2.63,0,7.43,0,14.85,0,22.28,0,.48-.02.98-.16,1.44-.17.55-.85,1.05-1.43,1.05-6.29,0-12.58,0-18.86,0-.03,0-.06,0-.09-.01,0-1.71,0-3.42,0-5.13,1.31,0,2.62,0,3.93-.01.17,0,.36.04.36-.23.01-.65.06-1.31-.09-1.93-.41-1.67-.89-3.33-1.32-4.99-.12-.45-.24-.9-.4-1.33-.25-.68.22-1.04.63-1.42.68-.62.96-1.4,1.12-2.3.34-1.87-1.24-4.12-3.02-4.69-.06-.1-.14-.15-.25-.09-.09-.02-.18-.04-.27-.06-.04-.06-.09-.07-.16-.04-.17-.02-.35-.05-.52-.07,0-2.27,0-4.54,0-6.81,3.22,0,6.45-.01,9.67-.02.2,0,.4-.02.6-.02,1.15.04,2.31.05,3.46,0,1.13.06,2.26.05,3.39,0Z"/><path class="cls-16" d="m199,78.25c0,1.71,0,3.42,0,5.13-.65,0-1.29.01-1.94.01-5.48,0-10.97-.03-16.45.02-1.44.01-2.19-.77-2.18-2.19.05-8.39.03-16.78,0-25.17,0-1.01.81-1.81,1.77-1.79.56.01,1.12-.01,1.68-.02,1.13.03,2.26.06,3.39-.01,1.15.07,2.3.04,3.45.01.19,0,.37.02.56.02,3.24,0,6.48,0,9.71.01,0,2.27,0,4.54,0,6.81-.36.17-.77.09-1.15.24-1.6.62-2.66,1.7-3.04,3.41-.07.04-.12.08-.03.15-.13,1.41.02,2.7,1.28,3.63.4.29.55.74.39,1.29-.1.34-.23.67-.31,1.01-.22.94-.47,1.88-.72,2.81-.18.69-.4,1.37-.56,2.07-.16.69-.12,1.39-.15,2.09-.01.35.08.47.45.46,1.28-.02,2.56,0,3.84,0Z"/><path class="cls-21" d="m185.27,54.21c-1.13.07-2.26.04-3.39.01,0-3.05-.02-6.1.02-9.15.02-1.41.21-2.81.62-4.18.49-1.65,1.19-3.2,2.14-4.63,1.18-1.79,2.65-3.31,4.4-4.56,1.15-.82,2.36-1.55,3.68-2.01,1.32-.46,2.65-.91,4.07-1.01.8-.06,1.59-.18,2.39-.16,1.99.03,3.92.43,5.78,1.13,1.87.7,3.55,1.72,5.08,2.99,1.32,1.1,2.4,2.4,3.32,3.83.65,1.02,1.17,2.1,1.61,3.23.24.62.41,1.27.62,1.9.2.57.23,1.2.3,1.81.39,3.6.1,7.21.19,10.81-1.13.04-2.26.06-3.39,0,0-2.58-.02-5.15.01-7.73.02-1.48-.17-2.93-.53-4.36-.51-2.01-1.44-3.82-2.8-5.37-1.66-1.9-3.68-3.33-6.11-4.1-1.73-.55-3.48-.72-5.3-.61-1.68.1-3.26.5-4.76,1.2-2.5,1.16-4.46,2.94-5.92,5.29-1.26,2.02-1.94,4.24-2.03,6.59-.11,3.03-.02,6.07-.02,9.11Z"/><path class="cls-8" d="m209.27,54.22c0-2.73.02-5.47,0-8.2-.02-1.45-.22-2.89-.8-4.24-.46-1.07-1.08-2.04-1.85-2.94-1.14-1.33-2.57-2.25-4.18-2.83-1.49-.54-3.05-.72-4.65-.52-.98.12-1.93.35-2.81.73-2.46,1.07-4.27,2.83-5.38,5.29-.52,1.15-.73,2.36-.79,3.61-.15,3.03-.02,6.07-.07,9.1-1.15.02-2.3.05-3.45-.02,0-3.04-.09-6.08.02-9.11.09-2.34.77-4.57,2.03-6.59,1.46-2.34,3.42-4.12,5.92-5.29,1.5-.7,3.08-1.1,4.76-1.2,1.82-.11,3.57.07,5.3.61,2.44.77,4.45,2.2,6.11,4.1,1.36,1.55,2.29,3.36,2.8,5.37.36,1.43.55,2.88.53,4.36-.03,2.58-.01,5.15-.01,7.73-1.15.06-2.31.04-3.46,0Z"/><path class="cls-17" d="m199,78.25c-1.28,0-2.56-.02-3.84,0-.37,0-.46-.11-.45-.46.03-.7-.02-1.41.15-2.09.17-.69.38-1.38.56-2.07.25-.94.5-1.87.72-2.81.08-.34.21-.68.31-1.01.16-.55,0-.99-.39-1.29-1.26-.93-1.41-2.23-1.28-3.63.07-.04.07-.09.03-.15.38-1.7,1.44-2.78,3.04-3.41.38-.15.79-.06,1.15-.24.17.02.35.05.52.07.03.09.08.14.16.04.09.02.18.04.27.06.05.12.15.1.25.09,1.78.57,3.36,2.82,3.02,4.69-.16.9-.45,1.67-1.12,2.3-.41.38-.88.73-.63,1.42.16.43.29.88.4,1.33.43,1.67.91,3.32,1.32,4.99.15.62.1,1.28.09,1.93,0,.28-.19.23-.36.23-1.31,0-2.62,0-3.93.01Z"/><path class="cls-8" d="m200.2,61.34c-.1,0-.2.03-.25-.09.11-.05.19,0,.25.09Z"/><path class="cls-8" d="m199.68,61.19c-.08.1-.12.05-.16-.04.06-.04.12-.02.16.04Z"/><path class="cls-21" d="m194.81,64.72c.04.06.04.12-.03.15-.09-.07-.03-.12.03-.15Z"/><circle class="cls-2" cx="199.15" cy="58.55" r="44.02"/><path class="cls-24" d="m77.12,200.22c.56,0,1.12.02,1.68.03.95,0,1.73.78,1.75,1.74.01.88,0,1.76,0,2.63,0,7.43,0,14.85,0,22.28,0,.48-.02.98-.16,1.44-.17.55-.85,1.05-1.43,1.05-6.29,0-12.58,0-18.86,0-.03,0-.06,0-.09-.01,0-1.71,0-3.42,0-5.13,1.31,0,2.62,0,3.93-.01.17,0,.36.04.36-.23.01-.65.06-1.31-.09-1.93-.41-1.67-.89-3.33-1.32-4.99-.12-.45-.24-.9-.4-1.33-.25-.68.22-1.04.63-1.42.68-.62.96-1.4,1.12-2.3.34-1.87-1.24-4.12-3.02-4.69-.06-.1-.14-.15-.25-.09-.09-.02-.18-.04-.27-.06-.04-.06-.09-.07-.16-.04-.17-.02-.35-.05-.52-.07,0-2.27,0-4.54,0-6.81,3.22,0,6.45-.01,9.67-.02.2,0,.4-.02.6-.02,1.15.04,2.31.05,3.46,0,1.13.06,2.26.05,3.39,0Z"/><path class="cls-16" d="m60,224.25c0,1.71,0,3.42,0,5.13-.65,0-1.29.01-1.94.01-5.48,0-10.97-.03-16.45.02-1.44.01-2.19-.77-2.18-2.19.05-8.39.03-16.78,0-25.17,0-1.01.81-1.81,1.77-1.79.56.01,1.12-.01,1.68-.02,1.13.03,2.26.06,3.39-.01,1.15.07,2.3.04,3.45.01.19,0,.37.02.56.02,3.24,0,6.48,0,9.71.01,0,2.27,0,4.54,0,6.81-.36.17-.77.09-1.15.24-1.6.62-2.66,1.7-3.04,3.41-.07.04-.12.08-.03.15-.13,1.41.02,2.7,1.28,3.63.4.29.55.74.39,1.29-.1.34-.23.67-.31,1.01-.22.94-.47,1.88-.72,2.81-.18.69-.4,1.37-.56,2.07-.16.69-.12,1.39-.15,2.09-.01.35.08.47.45.46,1.28-.02,2.56,0,3.84,0Z"/><path class="cls-21" d="m46.27,200.21c-1.13.07-2.26.04-3.39.01,0-3.05-.02-6.1.02-9.15.02-1.41.21-2.81.62-4.18.49-1.65,1.19-3.2,2.14-4.63,1.18-1.79,2.65-3.31,4.4-4.56,1.15-.82,2.36-1.55,3.68-2.01,1.32-.46,2.65-.91,4.07-1.01.8-.06,1.59-.18,2.39-.16,1.99.03,3.92.43,5.78,1.13,1.87.7,3.55,1.72,5.08,2.99,1.32,1.1,2.4,2.4,3.32,3.83.65,1.02,1.17,2.1,1.61,3.23.24.62.41,1.27.62,1.9.2.57.23,1.2.3,1.81.39,3.6.1,7.21.19,10.81-1.13.04-2.26.06-3.39,0,0-2.58-.02-5.15.01-7.73.02-1.48-.17-2.93-.53-4.36-.51-2.01-1.44-3.82-2.8-5.37-1.66-1.9-3.68-3.33-6.11-4.1-1.73-.55-3.48-.72-5.3-.61-1.68.1-3.26.5-4.76,1.2-2.5,1.16-4.46,2.94-5.92,5.29-1.26,2.02-1.94,4.24-2.03,6.59-.11,3.03-.02,6.07-.02,9.11Z"/><path class="cls-8" d="m70.27,200.22c0-2.73.02-5.47,0-8.2-.02-1.45-.22-2.89-.8-4.24-.46-1.07-1.08-2.04-1.85-2.94-1.14-1.33-2.57-2.25-4.18-2.83-1.49-.54-3.05-.72-4.65-.52-.98.12-1.93.35-2.81.73-2.46,1.07-4.27,2.83-5.38,5.29-.52,1.15-.73,2.36-.79,3.61-.15,3.03-.02,6.07-.07,9.1-1.15.02-2.3.05-3.45-.02,0-3.04-.09-6.08.02-9.11.09-2.34.77-4.57,2.03-6.59,1.46-2.34,3.42-4.12,5.92-5.29,1.5-.7,3.08-1.1,4.76-1.2,1.82-.11,3.57.07,5.3.61,2.44.77,4.45,2.2,6.11,4.1,1.36,1.55,2.29,3.36,2.8,5.37.36,1.43.55,2.88.53,4.36-.03,2.58-.01,5.15-.01,7.73-1.15.06-2.31.04-3.46,0Z"/><path class="cls-17" d="m60,224.25c-1.28,0-2.56-.02-3.84,0-.37,0-.46-.11-.45-.46.03-.7-.02-1.41.15-2.09.17-.69.38-1.38.56-2.07.25-.94.5-1.87.72-2.81.08-.34.21-.68.31-1.01.16-.55,0-.99-.39-1.29-1.26-.93-1.41-2.23-1.28-3.63.07-.04.07-.09.03-.15.38-1.7,1.44-2.78,3.04-3.41.38-.15.79-.06,1.15-.24.17.02.35.05.52.07.03.09.08.14.16.04.09.02.18.04.27.06.05.12.15.1.25.09,1.78.57,3.36,2.82,3.02,4.69-.16.9-.45,1.67-1.12,2.3-.41.38-.88.73-.63,1.42.16.43.29.88.4,1.33.43,1.67.91,3.32,1.32,4.99.15.62.1,1.28.09,1.93,0,.28-.19.23-.36.23-1.31,0-2.62,0-3.93.01Z"/><path class="cls-8" d="m61.2,207.34c-.1,0-.2.03-.25-.09.11-.05.19,0,.25.09Z"/><path class="cls-8" d="m60.68,207.19c-.08.1-.12.05-.16-.04.06-.04.12-.02.16.04Z"/><path class="cls-21" d="m55.81,210.72c.04.06.04.12-.03.15-.09-.07-.03-.12.03-.15Z"/><circle class="cls-2" cx="60.15" cy="204.55" r="44.02"/><path class="cls-24" d="m216.12,196.22c.56,0,1.12.02,1.68.03.95,0,1.73.78,1.75,1.74.01.88,0,1.76,0,2.63,0,7.43,0,14.85,0,22.28,0,.48-.02.98-.16,1.44-.17.55-.85,1.05-1.43,1.05-6.29,0-12.58,0-18.86,0-.03,0-.06,0-.09-.01,0-1.71,0-3.42,0-5.13,1.31,0,2.62,0,3.93-.01.17,0,.36.04.36-.23.01-.65.06-1.31-.09-1.93-.41-1.67-.89-3.33-1.32-4.99-.12-.45-.24-.9-.4-1.33-.25-.68.22-1.04.63-1.42.68-.62.96-1.4,1.12-2.3.34-1.87-1.24-4.12-3.02-4.69-.06-.1-.14-.15-.25-.09-.09-.02-.18-.04-.27-.06-.04-.06-.09-.07-.16-.04-.17-.02-.35-.05-.52-.07,0-2.27,0-4.54,0-6.81,3.22,0,6.45-.01,9.67-.02.2,0,.4-.02.6-.02,1.15.04,2.31.05,3.46,0,1.13.06,2.26.05,3.39,0Z"/><path class="cls-16" d="m199,220.25c0,1.71,0,3.42,0,5.13-.65,0-1.29.01-1.94.01-5.48,0-10.97-.03-16.45.02-1.44.01-2.19-.77-2.18-2.19.05-8.39.03-16.78,0-25.17,0-1.01.81-1.81,1.77-1.79.56.01,1.12-.01,1.68-.02,1.13.03,2.26.06,3.39-.01,1.15.07,2.3.04,3.45.01.19,0,.37.02.56.02,3.24,0,6.48,0,9.71.01,0,2.27,0,4.54,0,6.81-.36.17-.77.09-1.15.24-1.6.62-2.66,1.7-3.04,3.41-.07.04-.12.08-.03.15-.13,1.41.02,2.7,1.28,3.63.4.29.55.74.39,1.29-.1.34-.23.67-.31,1.01-.22.94-.47,1.88-.72,2.81-.18.69-.4,1.37-.56,2.07-.16.69-.12,1.39-.15,2.09-.01.35.08.47.45.46,1.28-.02,2.56,0,3.84,0Z"/><path class="cls-21" d="m185.27,196.21c-1.13.07-2.26.04-3.39.01,0-3.05-.02-6.1.02-9.15.02-1.41.21-2.81.62-4.18.49-1.65,1.19-3.2,2.14-4.63,1.18-1.79,2.65-3.31,4.4-4.56,1.15-.82,2.36-1.55,3.68-2.01,1.32-.46,2.65-.91,4.07-1.01.8-.06,1.59-.18,2.39-.16,1.99.03,3.92.43,5.78,1.13,1.87.7,3.55,1.72,5.08,2.99,1.32,1.1,2.4,2.4,3.32,3.83.65,1.02,1.17,2.1,1.61,3.23.24.62.41,1.27.62,1.9.2.57.23,1.2.3,1.81.39,3.6.1,7.21.19,10.81-1.13.04-2.26.06-3.39,0,0-2.58-.02-5.15.01-7.73.02-1.48-.17-2.93-.53-4.36-.51-2.01-1.44-3.82-2.8-5.37-1.66-1.9-3.68-3.33-6.11-4.1-1.73-.55-3.48-.72-5.3-.61-1.68.1-3.26.5-4.76,1.2-2.5,1.16-4.46,2.94-5.92,5.29-1.26,2.02-1.94,4.24-2.03,6.59-.11,3.03-.02,6.07-.02,9.11Z"/><path class="cls-8" d="m209.27,196.22c0-2.73.02-5.47,0-8.2-.02-1.45-.22-2.89-.8-4.24-.46-1.07-1.08-2.04-1.85-2.94-1.14-1.33-2.57-2.25-4.18-2.83-1.49-.54-3.05-.72-4.65-.52-.98.12-1.93.35-2.81.73-2.46,1.07-4.27,2.83-5.38,5.29-.52,1.15-.73,2.36-.79,3.61-.15,3.03-.02,6.07-.07,9.1-1.15.02-2.3.05-3.45-.02,0-3.04-.09-6.08.02-9.11.09-2.34.77-4.57,2.03-6.59,1.46-2.34,3.42-4.12,5.92-5.29,1.5-.7,3.08-1.1,4.76-1.2,1.82-.11,3.57.07,5.3.61,2.44.77,4.45,2.2,6.11,4.1,1.36,1.55,2.29,3.36,2.8,5.37.36,1.43.55,2.88.53,4.36-.03,2.58-.01,5.15-.01,7.73-1.15.06-2.31.04-3.46,0Z"/><path class="cls-17" d="m199,220.25c-1.28,0-2.56-.02-3.84,0-.37,0-.46-.11-.45-.46.03-.7-.02-1.41.15-2.09.17-.69.38-1.38.56-2.07.25-.94.5-1.87.72-2.81.08-.34.21-.68.31-1.01.16-.55,0-.99-.39-1.29-1.26-.93-1.41-2.23-1.28-3.63.07-.04.07-.09.03-.15.38-1.7,1.44-2.78,3.04-3.41.38-.15.79-.06,1.15-.24.17.02.35.05.52.07.03.09.08.14.16.04.09.02.18.04.27.06.05.12.15.1.25.09,1.78.57,3.36,2.82,3.02,4.69-.16.9-.45,1.67-1.12,2.3-.41.38-.88.73-.63,1.42.16.43.29.88.4,1.33.43,1.67.91,3.32,1.32,4.99.15.62.1,1.28.09,1.93,0,.28-.19.23-.36.23-1.31,0-2.62,0-3.93.01Z"/><path class="cls-8" d="m200.2,203.34c-.1,0-.2.03-.25-.09.11-.05.19,0,.25.09Z"/><path class="cls-8" d="m199.68,203.19c-.08.1-.12.05-.16-.04.06-.04.12-.02.16.04Z"/><path class="cls-21" d="m194.81,206.72c.04.06.04.12-.03.15-.09-.07-.03-.12.03-.15Z"/><circle class="cls-2" cx="199.15" cy="200.55" r="44.02"/></svg>