<?xml version="1.0" encoding="UTF-8"?><svg id="Layer_1" xmlns="http://www.w3.org/2000/svg" viewBox="0 0 400 256"><defs><style>.cls-1{stroke:#a5262d;}.cls-1,.cls-2,.cls-3{stroke-width:4px;}.cls-1,.cls-2,.cls-3,.cls-4{stroke-miterlimit:10;}.cls-1,.cls-2,.cls-3,.cls-4,.cls-5{fill:none;}.cls-2{stroke:#000;}.cls-6{fill:#bd694f;}.cls-7{fill:#ede6e3;}.cls-8{fill:#eb917f;}.cls-9{fill:#b9a1d3;}.cls-10{fill:#546e7a;}.cls-11{fill:#934d36;}.cls-12{fill:#f3bd99;}.cls-3{stroke:#c000e2;}.cls-13{fill:#4d5961;}.cls-14{fill:#f4bd99;}.cls-15{fill:#5e6b74;}.cls-16{fill:#ffed58;}.cls-4{stroke:#231f20;stroke-width:2px;}.cls-17{fill:#36464e;}.cls-18{fill:#baa1d3;}.cls-19{fill:#97d6e5;}.cls-20{fill:#788f9b;}.cls-21{fill:#1b1464;}.cls-22{fill:#9dd8e6;}.cls-23{fill:#baa2d3;}.cls-24{fill:#d8ceca;}.cls-25{fill:#ede4e1;}.cls-26{fill:#525f67;}.cls-27{fill:#fbd734;}.cls-28{fill:#231f20;}.cls-29{fill:#924d36;}.cls-30{fill:#914d37;}</style></defs><circle class="cls-1" cx="199.36" cy="58" r="45"/><path class="cls-6" d="m213.36,93.4h-26c0-.2-.2-.2-.4-.3-1.3-.6-2.1-1.6-2.1-3.1v-44.6c0-1,.5-2,1.3-2.6.4-.3.9-.3,1.2-.8h26c2.2.8,2.9,1.8,2.9,4.2v43.8c0,1.4-.9,2.6-2.2,3.2-.2,0-.5,0-.7.3v-.1Zm-14-2c7.2,0,13-5.8,13-13s-5.8-13-13-13-13,5.8-13,13v.2c0,7.1,5.8,12.9,13,12.8h0Zm0-47.2c-5.1,0-9.3,4.2-9.3,9.3s4.2,9.3,9.3,9.3,9.2-4.2,9.3-9.3c0-5.1-4.1-9.3-9.2-9.3h-.1Zm7.3,19.3c0,1.9,1.5,3.6,3.4,3.6h0c2,0,3.6-1.7,3.5-3.7,0-1.9-1.6-3.4-3.4-3.5-1.6,0-3.7,1.5-3.6,3.6h.1Zm-18.5,25.8c0-.9-.8-1.5-1.6-1.5s-1.4.7-1.5,1.5c0,.9.6,1.6,1.5,1.7.9,0,1.6-.6,1.7-1.5v-.2h-.1Zm-1.6-41.7c.8,0,1.6-.6,1.6-1.5h0c0-.9-.6-1.6-1.5-1.7-.9,0-1.6.6-1.7,1.5v.2c0,.9.7,1.6,1.5,1.6h0l.1-.1Zm25.4,0c.8,0,1.5-.7,1.5-1.5h0c0-.9-.7-1.5-1.6-1.5s-1.5.7-1.5,1.6c0,.8.7,1.5,1.5,1.5h0l.1-.1Zm0,40.1c-.8,0-1.6.6-1.6,1.4h0c0,.9.7,1.6,1.5,1.6.9,0,1.6-.7,1.6-1.5s-.6-1.6-1.5-1.6h0v.1Z"/><path class="cls-11" d="m185.36,93.4c-.9-.2-1.7-.7-2.3-1.5-.4-.6-.7-1.3-.7-2v-44c-.1-1.4.6-2.8,1.8-3.5.4-.2.7-.3,1.1-.5h1.9c-.3.4-.8.5-1.2.8-.8.6-1.3,1.6-1.3,2.6v44.6c0,1.5.8,2.5,2.1,3.1.1,0,.4,0,.4.3h-1.9l.1.1Z"/><path class="cls-18" d="m225.06,54.2c-.3.3-.7.5-1.2.4h-3.8c-.6,0-.9-.2-.9-.7s.3-.8.9-.8h4.1c.4,0,.7.2.9.5v.6Z"/><path class="cls-23" d="m173.66,78.6c.3-.3.7-.5,1.1-.4h3.9c.6,0,.9.2.9.7s-.3.8-.9.8h-4.1c-.4,0-.7-.2-.9-.5v-.6Z"/><path class="cls-23" d="m225.06,79.2c-.3.3-.7.5-1.1.5h-4.3c-.4-.1-.6-.5-.5-.8,0-.3.3-.6.6-.6h4.5c.3,0,.4.3.7.4v.6l.1-.1Z"/><path class="cls-18" d="m173.66,53.6c.2-.4.7-.5,1.1-.5h4.2c.3,0,.6.4.5.8,0,.4-.3.6-.6.6h-4.5c-.3,0-.4-.3-.7-.4v-.6.1Z"/><path class="cls-30" d="m199.36,91.4c-7.2,0-13-5.9-13-13s5.9-13,13-13,13,5.8,13,13-5.7,12.9-12.8,13h-.2Zm11.1-10.1h0c.4-1.6.5-3.2.2-4.7-1-6.2-6.9-10.5-13.1-9.5h-.4c-3.3.6-6.2,2.6-7.8,5.6-.6.9-.9,1.9-1.1,2.9h0c-.4,1.5-.4,2.9-.2,4.3.5,3.7,2.8,7,6.1,8.7,1.4.7,2.8,1.1,4.4,1.2,1.2.1,2.4,0,3.6-.4.2,0,.5,0,.7-.1,2.7-.8,5.1-2.7,6.5-5.2.6-.9,1-1.9,1.2-3l-.1.2Z"/><path class="cls-29" d="m199.36,44.2c5.1,0,9.3,4.2,9.3,9.3s-4.2,9.3-9.3,9.3-9.3-4.2-9.3-9.3,4.1-9.3,9.3-9.3h0Zm-1.2,1.6c-1.9.3-3.7,1.3-4.9,2.9-.9,1-1.4,2.3-1.5,3.6-.2.7-.2,1.4,0,2,.3,2.9,2.2,5.3,4.9,6.3,1.3.6,2.7.7,4,.4h.6c1.8-.4,3.4-1.5,4.4-3,.8-1,1.2-2.2,1.4-3.4.2-.8.2-1.7,0-2.5-.7-4.2-4.6-7-8.8-6.4h0l-.1.1Z"/><path class="cls-29" d="m206.66,63.5c-.2-2.1,1.9-3.6,3.6-3.6,2,0,3.5,1.8,3.4,3.8,0,1.9-1.6,3.4-3.5,3.4s-3.5-1.6-3.5-3.6h0Zm3.5,2.1c1.1,0,2.1-.9,2.1-2.1h0c0-1.1-1-2-2.1-2.1-1.1,0-2,1-2,2.1s.8,2,1.9,2h0l.1.1Z"/><path class="cls-25" d="m188.26,89.3c0,.9-.6,1.6-1.5,1.6s-1.6-.6-1.6-1.5v-.2c0-.9.8-1.5,1.7-1.5.8,0,1.4.7,1.5,1.5l-.1.1Z"/><path class="cls-25" d="m186.66,47.6c-.9,0-1.5-.7-1.5-1.5h0c0-.9.6-1.6,1.5-1.6s1.6.6,1.6,1.5v.2c0,.8-.7,1.5-1.5,1.5h0l-.1-.1Z"/><path class="cls-25" d="m212.06,47.6c-.8,0-1.5-.6-1.6-1.5h0c0-.9.7-1.6,1.6-1.6s1.6.7,1.6,1.6c0,.8-.7,1.5-1.5,1.6h0l-.1-.1Z"/><path class="cls-25" d="m212.06,87.8c.8,0,1.5.7,1.5,1.5h0c0,.9-.7,1.5-1.6,1.5s-1.5-.7-1.5-1.6h0c0-.8.7-1.5,1.5-1.5h0l.1.1Z"/><path class="cls-18" d="m223.06,46.9c0,.3-.2.5-.3.6-.9.9-1.8,1.8-2.7,2.7-.3.3-.8.4-1.1.1h0c-.3-.3-.3-.7.1-1.1l2.7-2.7c.2-.3.6-.4,1-.2.3.1.4.4.4.7l-.1-.1Z"/><path class="cls-9" d="m219.46,82.5c.2,0,.4,0,.6.3.9.9,1.8,1.8,2.7,2.7.3.3.4.7.1,1l-.1.1c-.3.3-.8.3-1.1,0h0c-.9-.9-1.8-1.9-2.8-2.8-.2-.2-.3-.5-.2-.8.1-.3.4-.5.7-.4l.1-.1Z"/><path class="cls-9" d="m223.06,61.1c0,.3-.2.5-.5.6s-.7,0-.9-.2l-2.4-2.4c-.2-.2-.3-.3-.5-.5-.3-.3-.3-.7,0-1h0c.2-.3.6-.3.9,0h0c1,1,2,2,2.9,2.9.1.1.2.3.2.5l.3.1Z"/><path class="cls-9" d="m223.06,71.8c0,.2-.1.5-.3.6l-2.7,2.7c-.2.3-.7.4-1,.2h0c-.3-.3-.3-.7,0-1l.1-.1c.9-.9,1.9-1.9,2.8-2.8.2-.2.5-.3.8-.2s.4.4.4.6h-.1Z"/><path class="cls-18" d="m180.06,49.7c0,.3-.2.5-.4.7-.3.1-.7,0-.9-.2l-2.3-2.3c-.2-.2-.4-.4-.5-.6-.3-.3-.3-.7,0-1h0c.3-.3.8-.3,1,0h0c.4.4.9.8,1.3,1.3s1,1,1.5,1.5c.2.2.3.4.3.6Z"/><path class="cls-9" d="m180.06,83.2c0,.2-.1.4-.3.6-.9.9-1.8,1.8-2.7,2.7-.3.4-.8.4-1.1.2h0c-.4-.4-.3-.8.1-1.2.9-.9,1.8-1.8,2.7-2.7.2-.2.6-.3.9-.2.3.1.5.4.5.7l-.1-.1Z"/><path class="cls-9" d="m180.06,58.2c0,.2-.1.4-.3.6-.9.9-1.8,1.8-2.7,2.7-.4.4-.8.4-1.1.1-.3-.3-.3-.8,0-1.1h.1c.9-.9,1.8-1.9,2.8-2.8.2-.2.5-.3.8-.2s.5.4.5.7h-.1Z"/><path class="cls-9" d="m180.06,74.7c0,.3-.2.5-.4.7-.3.2-.6.1-.8,0l-3-3c-.2-.3-.2-.7,0-.9h0c.2-.3.7-.3.9,0h0c1,1,1.9,1.9,2.9,2.9.1.1.2.3.2.5l.2-.2Z"/><path class="cls-26" d="m188.36,75.6c.2-1,.5-2,1.1-2.9,3.1-5.5,10.2-7.4,15.7-4.3.4.2.8.5,1.2.8,2.4,1.8,4,4.4,4.4,7.3.3,1.5.2,3.1-.2,4.6h0c-.3.1-.7.2-1,.2-1.9.1-3.6-.6-5.2-1.5-.4-.3-.8-.5-1.3-.7v-1.1c-.1-1.5-1.2-2.7-2.6-3.1-.7-.3-1.6-.3-2.3,0-1.2.4-2.1,1.5-2.4,2.7-.1,0-.2,0-.4-.2-.6-.5-1.3-.9-2-1.2-1.4-.6-2.8-1.1-4.3-.9-.2,0-.5.1-.7,0v.3Z"/><path class="cls-13" d="m188.36,75.6h.7c1.5-.2,2.9.3,4.3.9.7.3,1.4.7,2,1.2.1,0,.2.1.4.2v.1c-.3,1.8.8,3.5,2.5,4,.6.1,1.2.2,1.8.1.6.9,1.1,1.9,1.6,2.9.7,1.4.8,3,.4,4.5-1.2.4-2.4.5-3.6.4-1.5-.1-3-.5-4.4-1.2-3.4-1.7-5.6-4.9-6.1-8.7-.2-1.4-.1-2.8.2-4.2h0l.2-.2Z"/><path class="cls-15" d="m202.06,89.5c.4-1.5.2-3.1-.4-4.5-.5-1-1-2-1.6-2.9l.4-.2h.2c1.1-.5,2-1.5,2.3-2.7.4.2.9.4,1.3.7,1.6.9,3.3,1.6,5.2,1.5h1c-.2,1.1-.6,2.1-1.2,3-1.4,2.5-3.8,4.3-6.5,5.2-.2,0-.5.1-.7.1v-.2Z"/><path class="cls-15" d="m206.96,54.7c-.1,1.2-.6,2.4-1.4,3.4-1.1,1.5-2.6,2.6-4.4,3h-.6c0-.9-.1-1.7-.5-2.5-1.1-2.3-2.9-4.2-5.1-5.4-.9-.7-2.1-1-3.3-.8.1-1.3.7-2.6,1.5-3.6,1.2-1.6,3-2.6,4.9-2.9,0,.9.2,1.8.6,2.7.9,1.8,2.2,3.3,3.7,4.5,1.3,1,2.7,1.9,4.5,1.7l.1-.1Zm-7-3.1c-.8-.3-1.8,0-2.3.7s-.5,1.7,0,2.5c.5.7,1.4,1,2.3.7.9-.3,1.5-1.1,1.4-2,0-.9-.6-1.7-1.4-1.9Z"/><path class="cls-13" d="m206.96,54.7c-1.8.2-3.2-.7-4.5-1.7-1.6-1.2-2.9-2.7-3.7-4.5-.4-.8-.6-1.7-.6-2.7,4.2-.7,8.1,2.2,8.8,6.4.2.8.2,1.7,0,2.5Z"/><path class="cls-13" d="m191.76,52.3c1.2-.1,2.3.2,3.3.8,2.2,1.3,4,3.1,5.1,5.4.4.8.6,1.6.5,2.5-1.4.3-2.8.2-4-.4-2.7-1-4.6-3.5-4.9-6.3-.1-.7-.1-1.3,0-2Z"/><path class="cls-13" d="m210.26,65.6c-1.1,0-2-.8-2-1.9h0c0-1.1.9-2,2-2.1,1.1,0,2.1.9,2.1,2.1,0,1.1-.9,2.1-2.1,2.1h0v-.2Z"/><path class="cls-7" d="m202.96,79.1c-.3,1.2-1.1,2.2-2.3,2.7h-.2c-.6-.4-1.2-.8-1.6-1.4-1.1-1.7-.7-4,1-5.1h0c.1,0,.4-.1.4-.3,1.4.4,2.5,1.6,2.6,3.1v1.1l.1-.1Z"/><path class="cls-24" d="m200.36,75c0,.2-.2.3-.4.3-1.7,1.1-2.2,3.4-1.2,5.1h0c.4.6,1,1,1.6,1.4l-.4.2c-.6,0-1.2,0-1.8-.1-1.7-.5-2.8-2.3-2.6-4.1v-.1c.2-1.3,1.1-2.3,2.4-2.8.7-.3,1.6-.3,2.3,0l.1.1Z"/><path class="cls-7" d="m199.96,51.5c.9.2,1.4,1,1.4,1.9s-.6,1.7-1.4,2c0-.2-.3-.3-.5-.5-.8-.7-.9-2-.2-2.8.2-.2.5-.3.7-.6Z"/><path class="cls-24" d="m199.96,51.5c-.1.3-.5.4-.7.6-.7.8-.6,2.1.2,2.8.2.2.4.2.5.5-.8.3-1.7,0-2.3-.7-.5-.7-.5-1.7,0-2.5.5-.7,1.4-1,2.3-.7Z"/><path d="m173.56,40.2l.7-2.6c1,.4,2,.3,2.9-.6s.8-1.5.4-1.8c-.5-.5-1.2-.2-2.8.7-1.6.9-3.4,1.6-5,0-1.6-1.6-1.2-3.9.2-5.4,1.4-1.4,3.1-1.8,5-1.2l-.6,2.6c-.9-.3-1.7-.3-2.4.5-.6.6-.6,1.2-.2,1.5.4.4.9.4,2.6-.5,1.6-.9,3.5-1.9,5.3-.2,1.6,1.6,1.3,3.9-.5,5.7-1.7,1.8-3.7,2.1-5.4,1.4l-.2-.1Z"/><path d="m188.46,27.2c1.2,2.2.5,4.8-1.5,5.9-1,.5-1.9.6-2.7.3l2,3.7-2.3,1.2-5.6-10.5,2.3-1.2.4.7c.2-.8.7-1.6,1.8-2.1,2-1,4.5-.2,5.7,2.1l-.1-.1Zm-2.3,1.2c-.6-1.1-1.7-1.4-2.8-.9-1,.5-1.4,1.7-.8,2.8.6,1.1,1.7,1.4,2.8.9,1-.5,1.4-1.7.8-2.8Z"/><path d="m194.96,28.1c.7-.1,1.2-.5,1.5-.9l2.2.8c-.6,1.3-1.7,2.1-3.3,2.4-2.9.5-5-1.1-5.4-3.6-.5-2.5,1-4.7,3.6-5.2,2.4-.4,4.6,1.1,5,3.6v1l-5.9,1.1c.5.8,1.3,1,2.2.8h.1Zm1-3.3c-.4-.9-1.3-1.1-2-1-1,.2-1.5.8-1.6,1.7l3.6-.7Z"/><path d="m209.66,22l-1.1,8.4-2.5-.3v-.8c-.5.6-1.4.9-2.5.7-2.2-.3-3.8-2.5-3.5-5,.3-2.5,2.4-4.2,4.6-3.9,1.1.1,1.9.6,2.4,1.3v-.8c.1,0,2.6.3,2.6.3v.1Zm-3.1,3.9c.2-1.3-.6-2.2-1.7-2.3-1.2-.1-2.1.5-2.3,1.8-.2,1.3.6,2.2,1.7,2.3,1.2.1,2.1-.5,2.3-1.8Z"/><path d="m214.36,33l-.9-4.5-1.5,3.4-2.3-1.1,4.9-10.8,2.3,1.1-2.9,6.5,3.9-2.3,2.7,1.2-4.6,2.6,1.1,5.2-2.6-1.2-.1-.1Z"/><path d="m221.36,35.3c.5.4,1.2.6,1.7.5l.8,2.2c-1.4.4-2.7,0-4-1-2.2-1.9-2.4-4.5-.8-6.5,1.6-1.9,4.3-2.3,6.3-.6,1.9,1.6,2.1,4.2.5,6.2-.2.3-.5.5-.7.7l-4.6-3.9c-.3.9,0,1.6.8,2.2v.2Zm3.2-1.4c.4-.9,0-1.7-.5-2.2-.7-.6-1.5-.7-2.3-.2l2.8,2.3v.1Z"/><path d="m233.56,39.3l-2.3,1.7c-.5-1-1.7-1.9-3.1-.9l-3.1,2.3-1.5-2.1,6.9-5,1.5,2.1-1.2.9c1.1-.4,2.2.2,2.9,1.1l-.1-.1Z"/><line class="cls-5" x1="199.75" y1="110.48" x2="200.25" y2="143.25"/><line class="cls-4" x1="199.75" y1="110.48" x2="200.09" y2="132.49"/><polygon class="cls-28" points="192.57 130.42 200.25 143.25 207.53 130.19 192.57 130.42"/><line class="cls-5" x1="112.18" y1="145.52" x2="160.82" y2="106.21"/><line class="cls-4" x1="120.55" y1="138.75" x2="160.82" y2="106.21"/><polygon class="cls-28" points="117.55 131.56 112.18 145.52 126.95 143.19 117.55 131.56"/><line class="cls-5" x1="287.82" y1="145.52" x2="239.18" y2="106.21"/><line class="cls-4" x1="279.45" y1="138.75" x2="239.18" y2="106.21"/><polygon class="cls-28" points="273.05 143.19 287.82 145.52 282.45 131.56 273.05 143.19"/><path class="cls-14" d="m59.7,218.95c.5-.4.9-.9,1.4-1.3,2.3-2.3,4.5-4.5,6.8-6.8,1.6-1.7,4.3-1.7,6,0,.6.5.9,1.2,1.1,2,.1.6.2,1.3,0,1.9-.3.9-.8,1.8-1.5,2.5-2,1.9-3.9,3.9-5.8,5.8-.3.3-.3.4,0,.7,1,1.1,1.8,2.5,2.2,3.9h-13.2c-.2,0-.4,0-.4-.2,0-1.3-.1-2.5.2-3.7.3-1.2.9-2.3,1.7-3.1l1.5-1.5v-.2Z"/><path class="cls-12" d="m92.3,216.75c-1.4-.6-2.1-2.7-1.4-4.2.5-1.3,1.9-2.2,3.3-2.1h8.4c1.9.2,3,1.1,3.4,2.8-.2,0-.2.1-.2.2-.4.9-1.1,1.6-2,1.9-.6.2-1.2.3-1.8.3h-8.4c-1,0-1.2,0-1.3,1.1Z"/><path class="cls-14" d="m92.3,223.65c-1.6-.9-2.2-3-1.3-4.6.5-.8,1.3-1.4,2.2-1.6.4,0,.7-.1,1.1-.2h8.8c.7.2,1.4.6,1.9,1,.5.5.8,1.1,1,1.8,0,0-.2.1-.2.2-.7,1.7-2.1,2.2-3.7,2.2h-8.6c-1,0-1.2.2-1.2,1.2Z"/><path class="cls-14" d="m90.6,227.65c0-1.6,1.1-3,2.6-3.3.2,0,.5,0,.7-.1,3.1,0,6.3.1,9.4,0,0,.2.2.2.3.2,1.2.4,2.1,1.3,2.4,2.6.2.7,0,.8-.6.8h-14.8v-.2Z"/><path class="cls-21" d="m69.9,227.65c-.4-1.5-1.1-2.8-2.2-3.9-.3-.3-.3-.4,0-.7,2-1.9,3.9-3.9,5.8-5.8.7-.7,1.2-1.5,1.5-2.5.6,1.5.3,3.3-.9,4.4-1.3,1.3-2.6,2.6-3.8,3.8-.3.3-.3.4,0,.7,1,1.1,1.8,2.5,2.2,3.9h-2.6v.1Z"/><path class="cls-8" d="m103.3,224.05c-3.1.2-6.3,0-9.4,0-.2,0-.5,0-.7.1-.3-.2-.6-.2-.8-.5h0c0-1.1.2-1.3,1.2-1.3h8.6c1.7,0,3-.5,3.7-2.2,0,0,.1-.2.2-.2.2,2-.7,3.4-2.4,4h-.3l-.1.1Z"/><path class="cls-8" d="m103.1,217.25h-8.8c-.4,0-.7,0-1.1.2-.2-.2-.6-.2-.8-.6h-.1c.1-1.1.2-1.3,1.3-1.3h8.4c.6,0,1.2,0,1.8-.3.9-.3,1.6-1,2-1.9,0-.1,0-.2.2-.2.4,1.8-.7,3.5-2.5,4h-.4v.1Z"/><path class="cls-19" d="m92.3,189.85h-3.8c-.3,0-.5,0-.5-.4,0-.87.43-1.3,1.3-1.3h6.9c.4,0,.5,0,.5.5,0,.87-.43,1.3-1.3,1.3h-3.1v-.1Z"/><path class="cls-22" d="m95.3,184.65h3.4c.3,0,.4,0,.4.4q0,1.4-1.3,1.4h-5.9c-.4,0-.5,0-.5-.5,0-.87.4-1.3,1.2-1.3h2.7Z"/><path class="cls-22" d="m88,185.45c0-.53.27-.8.8-.8s.83.3.9.9q0,.9-.9.9c-1,0-.8,0-.8-.9v-.1Z"/><path class="cls-12" d="m92.3,216.75h.1c0,.1-.1,0-.1,0Z"/><path class="cls-21" d="m99,180.35h-35.8c-.4,0-.9,0-1.3.2-1.4.5-2.4,1.9-2.3,3.4v35.1c.5-.4.9-.9,1.4-1.3,2.3-2.3,4.5-4.5,6.8-6.8.5-.6,1.2-.9,2-1.1,2.3-.6,4.6.8,5.1,3.1.1.6.2,1.3,0,1.9.6,1.5.3,3.3-.9,4.4-1.3,1.3-2.6,2.6-3.8,3.8-.3.3-.3.4,0,.7,1,1.1,1.8,2.5,2.2,3.9h18.1c0-1.6,1.1-3,2.6-3.4-.3-.2-.6-.2-.8-.5h0c-.8-.5-1.4-1.3-1.6-2.3-.4-1.8.7-3.6,2.5-4.1-.2-.2-.6-.2-.8-.6h-.1c-1.4-.8-2.1-2.8-1.4-4.4.5-1.3,1.9-2.2,3.3-2.1h8.4v-26.5c0-2.2-1.4-3.6-3.6-3.6v.2Zm-11,5.1c0-.53.27-.8.8-.8q.9,0,.9.9t-.9.9c-1,0-.8,0-.8-.9v-.1Zm7.4,4.4h-6.9c-.3,0-.5,0-.5-.4q0-1.3,1.3-1.3h6.9c.4,0,.5,0,.5.5q0,1.3-1.3,1.3v-.1Zm2.5-3.4h-5.9c-.4,0-.5,0-.5-.5q0-1.3,1.2-1.3h6.1c.3,0,.4,0,.4.4q0,1.4-1.3,1.4Z"/><circle class="cls-3" cx="82" cy="194.05" r="45"/><path d="m51.4,195.25l.2,2.1-5.3.4,4,2.1v.2l-3.7,2.6,5.3-.4.2,2.1-9.1.7-.2-2.1,3.9-2.8-4.2-2.2-.2-2.1,9.1-.7v.1Z"/><path d="m50.8,190.85c.1-.5,0-1-.2-1.3l1.2-1.3c.7.8,1,1.8.7,3-.5,2.2-2.2,3.2-4.1,2.8s-3.1-2.1-2.6-4.1c.4-1.9,2.1-2.9,4-2.5.3,0,.5.1.7.2l-1,4.5c.7-.1,1.1-.6,1.2-1.3h.1Zm-2.1-1.7c-.8,0-1.2.6-1.3,1.1-.2.7.1,1.3.7,1.6l.6-2.7Z"/><path d="m47.9,177.65l8.2,3.9-.8,1.8-.6-.3c.3.6.3,1.3-.1,2.1-.7,1.5-2.7,2.2-4.4,1.3-1.7-.8-2.5-2.7-1.8-4.3.4-.8.9-1.2,1.6-1.4l-2.9-1.4.8-1.8v.1Zm4.4,4.3c-.9-.4-1.7,0-2.1.7-.4.8-.1,1.7.8,2.1.9.4,1.7,0,2.1-.7s.1-1.7-.8-2.1Z"/><path d="m50,176.15c-.5-.4-.6-1.1-.3-1.6.4-.5,1.1-.6,1.6-.3.5.4.6,1.1.3,1.6-.4.5-1.1.6-1.6.3Zm1.5.9l1.1-1.6,5.3,3.8-1.1,1.6-5.3-3.8Z"/><path d="m58.7,168.95l4.5,4.7-1.4,1.4-.4-.4c0,.7-.2,1.3-.8,1.9-1.2,1.2-3.3,1.1-4.6-.3-1.4-1.4-1.4-3.4-.2-4.6.6-.6,1.3-.8,1.9-.8l-.4-.4,1.4-1.4v-.1Zm.9,3.7c-.7-.7-1.6-.7-2.2,0-.6.6-.7,1.5,0,2.2s1.6.7,2.2,0c.6-.6.7-1.5,0-2.2Z"/><path d="m61.6,168.85l4.2-2.6,1,1.6-4.2,2.6-1-1.6Z"/><path d="m73.2,159.05l2.8,8.7-1.5.5-4.9-3.6,1.5,4.7-2,.6-2.8-8.7,1.5-.5,4.9,3.6-1.5-4.7,2-.6Z"/><path d="m76.5,164.35c-.1-1.9,1.3-3.5,3.2-3.6s3.5,1.3,3.7,3.2c.1,1.9-1.3,3.5-3.2,3.6s-3.5-1.3-3.7-3.2Zm4.9-.3c0-.9-.7-1.5-1.6-1.4-.8,0-1.5.7-1.4,1.6.1.9.7,1.5,1.6,1.4.8,0,1.5-.7,1.4-1.6Z"/><path d="m87.7,164.35c.5-1.9,2.3-2.9,4.2-2.4,1.2.3,2.1,1.3,2.4,2.4l-1.9.5c0-.5-.5-.9-1-1-.8-.2-1.6.2-1.8,1.1s.2,1.6,1,1.8c.6.1,1.1,0,1.4-.4l1.4,1.4c-.8.8-2,1.2-3.3.9-1.9-.5-2.9-2.3-2.4-4.2v-.1Z"/><path d="m102.2,166.65l-3,5.7-1.7-.9.3-.5c-.6.2-1.3.2-2.1-.2-1.5-.8-2-2.8-1.1-4.5s2.8-2.4,4.3-1.6c.8.4,1.2,1,1.3,1.6l.3-.5,1.7.9h0Zm-3.2,2c.5-.9.2-1.7-.6-2.1-.8-.4-1.7-.2-2.1.7-.5.9-.2,1.7.6,2.1.8.4,1.7.2,2.1-.7Z"/><path d="m109.7,176.75l-2.8,2.8-1.4-1.4,2.7-2.7c.5-.5.5-1,0-1.4-.5-.5-1-.4-1.6.2l-2.6,2.6-1.4-1.4,2.7-2.7c.5-.5.5-1,0-1.4-.5-.5-1-.4-1.6.2l-2.6,2.6-1.4-1.4,4.6-4.6,1.4,1.4-.4.4c.5-.1,1.2,0,1.8.7.5.5.7,1.2.6,1.8.6-.1,1.3,0,1.9.7,1.1,1.1,1,2.5-.1,3.7l.2-.1Z"/><path d="m110.1,182.45c.3.5.7.8,1,.9v1.8c-1.1-.1-2-.8-2.6-1.8-1.1-1.9-.4-3.9,1.3-4.8s3.7-.4,4.7,1.4c.9,1.7.3,3.6-1.4,4.5-.2.1-.5.2-.7.3l-2.2-4c-.5.5-.4,1.2,0,1.8l-.1-.1Zm2.7,0c.6-.5.5-1.2.2-1.7-.4-.6-.9-.9-1.6-.7l1.3,2.5.1-.1Z"/><path d="m117.9,188.35l-2.1.7c-.1-.8-.8-1.8-2-1.4l-2.8.9-.6-1.9,6.2-2,.6,1.9-1.1.4c.9,0,1.6.7,1.8,1.5v-.1Z"/><path d="m119,196.45l-6.5.8-.2-1.9h.6c-.5-.4-.9-1-1-1.9-.2-1.7,1.1-3.3,3-3.5s3.6,1,3.8,2.7c.1.9-.1,1.5-.5,2h.6l.2,1.9v-.1Zm-3.5-1.5c1-.1,1.5-.8,1.4-1.7-.1-.9-.8-1.5-1.8-1.3-1,.1-1.5.8-1.4,1.7s.8,1.5,1.8,1.3Z"/><path class="cls-27" d="m325.12,193.82c.56,0,1.12.02,1.68.03.95,0,1.73.78,1.75,1.74.01.88,0,1.76,0,2.63,0,7.43,0,14.85,0,22.28,0,.48-.02.98-.16,1.44-.17.55-.85,1.05-1.43,1.05-6.29,0-12.58,0-18.86,0-.03,0-.06,0-.09-.01,0-1.71,0-3.42,0-5.13,1.31,0,2.62,0,3.93-.01.17,0,.36.04.36-.23.01-.65.06-1.31-.09-1.93-.41-1.67-.89-3.33-1.32-4.99-.12-.45-.24-.9-.4-1.33-.25-.68.22-1.04.63-1.42.68-.62.96-1.4,1.12-2.3.34-1.87-1.24-4.12-3.02-4.69-.06-.1-.14-.15-.25-.09-.09-.02-.18-.04-.27-.06-.04-.06-.09-.07-.16-.04-.17-.02-.35-.05-.52-.07,0-2.27,0-4.54,0-6.81,3.22,0,6.45-.01,9.67-.02.2,0,.4-.02.6-.02,1.15.04,2.31.05,3.46,0,1.13.06,2.26.05,3.39,0Z"/><path class="cls-16" d="m308,217.84c0,1.71,0,3.42,0,5.13-.65,0-1.29.01-1.94.01-5.48,0-10.97-.03-16.45.02-1.44.01-2.19-.77-2.18-2.19.05-8.39.03-16.78,0-25.17,0-1.01.81-1.81,1.77-1.79.56.01,1.12-.01,1.68-.02,1.13.03,2.26.06,3.39-.01,1.15.07,2.3.04,3.45.01.19,0,.37.02.56.02,3.24,0,6.48,0,9.71.01,0,2.27,0,4.54,0,6.81-.36.17-.77.09-1.15.24-1.6.62-2.66,1.7-3.04,3.41-.07.04-.12.08-.03.15-.13,1.41.02,2.7,1.28,3.63.4.29.55.74.39,1.29-.1.34-.23.67-.31,1.01-.22.94-.47,1.88-.72,2.81-.18.69-.4,1.37-.56,2.07-.16.69-.12,1.39-.15,2.09-.01.35.08.47.45.46,1.28-.02,2.56,0,3.84,0Z"/><path class="cls-20" d="m294.27,193.81c-1.13.07-2.26.04-3.39.01,0-3.05-.02-6.1.02-9.15.02-1.41.21-2.81.62-4.18.49-1.65,1.19-3.2,2.14-4.63,1.18-1.79,2.65-3.31,4.4-4.56,1.15-.82,2.36-1.55,3.68-2.01,1.32-.46,2.65-.91,4.07-1.01.8-.06,1.59-.18,2.39-.16,1.99.03,3.92.43,5.78,1.13,1.87.7,3.55,1.72,5.08,2.99,1.32,1.1,2.4,2.4,3.32,3.83.65,1.02,1.17,2.1,1.61,3.23.24.62.41,1.27.62,1.9.2.57.23,1.2.3,1.81.39,3.6.1,7.21.19,10.81-1.13.04-2.26.06-3.39,0,0-2.58-.02-5.15.01-7.73.02-1.48-.17-2.93-.53-4.36-.51-2.01-1.44-3.82-2.8-5.37-1.66-1.9-3.68-3.33-6.11-4.1-1.73-.55-3.48-.72-5.3-.61-1.68.1-3.26.5-4.76,1.2-2.5,1.16-4.46,2.94-5.92,5.29-1.26,2.02-1.94,4.24-2.03,6.59-.11,3.03-.02,6.07-.02,9.11Z"/><path class="cls-10" d="m318.27,193.82c0-2.73.02-5.47,0-8.2-.02-1.45-.22-2.89-.8-4.24-.46-1.07-1.08-2.04-1.85-2.94-1.14-1.33-2.57-2.25-4.18-2.83-1.49-.54-3.05-.72-4.65-.52-.98.12-1.93.35-2.81.73-2.46,1.07-4.27,2.83-5.38,5.29-.52,1.15-.73,2.36-.79,3.61-.15,3.03-.02,6.07-.07,9.1-1.15.02-2.3.05-3.45-.02,0-3.04-.09-6.08.02-9.11.09-2.34.77-4.57,2.03-6.59,1.46-2.34,3.42-4.12,5.92-5.29,1.5-.7,3.08-1.1,4.76-1.2,1.82-.11,3.57.07,5.3.61,2.44.77,4.45,2.2,6.11,4.1,1.36,1.55,2.29,3.36,2.8,5.37.36,1.43.55,2.88.53,4.36-.03,2.58-.01,5.15-.01,7.73-1.15.06-2.31.04-3.46,0Z"/><path class="cls-17" d="m308,217.84c-1.28,0-2.56-.02-3.84,0-.37,0-.46-.11-.45-.46.03-.7-.02-1.41.15-2.09.17-.69.38-1.38.56-2.07.25-.94.5-1.87.72-2.81.08-.34.21-.68.31-1.01.16-.55,0-.99-.39-1.29-1.26-.93-1.41-2.23-1.28-3.63.07-.04.07-.09.03-.15.38-1.7,1.44-2.78,3.04-3.41.38-.15.79-.06,1.15-.24.17.02.35.05.52.07.03.09.08.14.16.04.09.02.18.04.27.06.05.12.15.1.25.09,1.78.57,3.36,2.82,3.02,4.69-.16.9-.45,1.67-1.12,2.3-.41.38-.88.73-.63,1.42.16.43.29.88.4,1.33.43,1.67.91,3.32,1.32,4.99.15.62.1,1.28.09,1.93,0,.28-.19.23-.36.23-1.31,0-2.62,0-3.93.01Z"/><path class="cls-10" d="m309.2,200.94c-.1,0-.2.03-.25-.09.11-.05.19,0,.25.09Z"/><path class="cls-10" d="m308.68,200.79c-.08.1-.12.05-.16-.04.06-.04.12-.02.16.04Z"/><path class="cls-20" d="m303.81,204.31c.04.06.04.12-.03.15-.09-.07-.03-.12.03-.15Z"/><circle class="cls-2" cx="308.15" cy="198.15" r="44.02"/><path class="cls-27" d="m214.12,195.82c.56,0,1.12.02,1.68.03.95,0,1.73.78,1.75,1.74.01.88,0,1.76,0,2.63,0,7.43,0,14.85,0,22.28,0,.48-.02.98-.16,1.44-.17.55-.85,1.05-1.43,1.05-6.29,0-12.58,0-18.86,0-.03,0-.06,0-.09-.01,0-1.71,0-3.42,0-5.13,1.31,0,2.62,0,3.93-.01.17,0,.36.04.36-.23.01-.65.06-1.31-.09-1.93-.41-1.67-.89-3.33-1.32-4.99-.12-.45-.24-.9-.4-1.33-.25-.68.22-1.04.63-1.42.68-.62.96-1.4,1.12-2.3.34-1.87-1.24-4.12-3.02-4.69-.06-.1-.14-.15-.25-.09-.09-.02-.18-.04-.27-.06-.04-.06-.09-.07-.16-.04-.17-.02-.35-.05-.52-.07,0-2.27,0-4.54,0-6.81,3.22,0,6.45-.01,9.67-.02.2,0,.4-.02.6-.02,1.15.04,2.31.05,3.46,0,1.13.06,2.26.05,3.39,0Z"/><path class="cls-16" d="m197,219.84c0,1.71,0,3.42,0,5.13-.65,0-1.29.01-1.94.01-5.48,0-10.97-.03-16.45.02-1.44.01-2.19-.77-2.18-2.19.05-8.39.03-16.78,0-25.17,0-1.01.81-1.81,1.77-1.79.56.01,1.12-.01,1.68-.02,1.13.03,2.26.06,3.39-.01,1.15.07,2.3.04,3.45.01.19,0,.37.02.56.02,3.24,0,6.48,0,9.71.01,0,2.27,0,4.54,0,6.81-.36.17-.77.09-1.15.24-1.6.62-2.66,1.7-3.04,3.41-.07.04-.12.08-.03.15-.13,1.41.02,2.7,1.28,3.63.4.29.55.74.39,1.29-.1.34-.23.67-.31,1.01-.22.94-.47,1.88-.72,2.81-.18.69-.4,1.37-.56,2.07-.16.69-.12,1.39-.15,2.09-.01.35.08.47.45.46,1.28-.02,2.56,0,3.84,0Z"/><path class="cls-20" d="m183.27,195.81c-1.13.07-2.26.04-3.39.01,0-3.05-.02-6.1.02-9.15.02-1.41.21-2.81.62-4.18.49-1.65,1.19-3.2,2.14-4.63,1.18-1.79,2.65-3.31,4.4-4.56,1.15-.82,2.36-1.55,3.68-2.01,1.32-.46,2.65-.91,4.07-1.01.8-.06,1.59-.18,2.39-.16,1.99.03,3.92.43,5.78,1.13,1.87.7,3.55,1.72,5.08,2.99,1.32,1.1,2.4,2.4,3.32,3.83.65,1.02,1.17,2.1,1.61,3.23.24.62.41,1.27.62,1.9.2.57.23,1.2.3,1.81.39,3.6.1,7.21.19,10.81-1.13.04-2.26.06-3.39,0,0-2.58-.02-5.15.01-7.73.02-1.48-.17-2.93-.53-4.36-.51-2.01-1.44-3.82-2.8-5.37-1.66-1.9-3.68-3.33-6.11-4.1-1.73-.55-3.48-.72-5.3-.61-1.68.1-3.26.5-4.76,1.2-2.5,1.16-4.46,2.94-5.92,5.29-1.26,2.02-1.94,4.24-2.03,6.59-.11,3.03-.02,6.07-.02,9.11Z"/><path class="cls-10" d="m207.27,195.82c0-2.73.02-5.47,0-8.2-.02-1.45-.22-2.89-.8-4.24-.46-1.07-1.08-2.04-1.85-2.94-1.14-1.33-2.57-2.25-4.18-2.83-1.49-.54-3.05-.72-4.65-.52-.98.12-1.93.35-2.81.73-2.46,1.07-4.27,2.83-5.38,5.29-.52,1.15-.73,2.36-.79,3.61-.15,3.03-.02,6.07-.07,9.1-1.15.02-2.3.05-3.45-.02,0-3.04-.09-6.08.02-9.11.09-2.34.77-4.57,2.03-6.59,1.46-2.34,3.42-4.12,5.92-5.29,1.5-.7,3.08-1.1,4.76-1.2,1.82-.11,3.57.07,5.3.61,2.44.77,4.45,2.2,6.11,4.1,1.36,1.55,2.29,3.36,2.8,5.37.36,1.43.55,2.88.53,4.36-.03,2.58-.01,5.15-.01,7.73-1.15.06-2.31.04-3.46,0Z"/><path class="cls-17" d="m197,219.84c-1.28,0-2.56-.02-3.84,0-.37,0-.46-.11-.45-.46.03-.7-.02-1.41.15-2.09.17-.69.38-1.38.56-2.07.25-.94.5-1.87.72-2.81.08-.34.21-.68.31-1.01.16-.55,0-.99-.39-1.29-1.26-.93-1.41-2.23-1.28-3.63.07-.04.07-.09.03-.15.38-1.7,1.44-2.78,3.04-3.41.38-.15.79-.06,1.15-.24.17.02.35.05.52.07.03.09.08.14.16.04.09.02.18.04.27.06.05.12.15.1.25.09,1.78.57,3.36,2.82,3.02,4.69-.16.9-.45,1.67-1.12,2.3-.41.38-.88.73-.63,1.42.16.43.29.88.4,1.33.43,1.67.91,3.32,1.32,4.99.15.62.1,1.28.09,1.93,0,.28-.19.23-.36.23-1.31,0-2.62,0-3.93.01Z"/><path class="cls-10" d="m198.2,202.94c-.1,0-.2.03-.25-.09.11-.05.19,0,.25.09Z"/><path class="cls-10" d="m197.68,202.79c-.08.1-.12.05-.16-.04.06-.04.12-.02.16.04Z"/><path class="cls-20" d="m192.81,206.31c.04.06.04.12-.03.15-.09-.07-.03-.12.03-.15Z"/><circle class="cls-2" cx="197.15" cy="200.15" r="44.02"/></svg>