<?xml version="1.0" encoding="UTF-8"?><svg id="Layer_1" xmlns="http://www.w3.org/2000/svg" viewBox="0 0 400 400"><defs><style>.cls-1{stroke:#a5262d;}.cls-1,.cls-2{stroke-width:4px;}.cls-1,.cls-2,.cls-3{stroke-miterlimit:10;}.cls-1,.cls-2,.cls-3,.cls-4{fill:none;}.cls-2{stroke:#000;}.cls-5{fill:#546e7a;}.cls-6{fill:#bacce9;}.cls-7{fill:#c7c7c7;}.cls-8{fill:#bdbdbd;}.cls-9{fill:#ecf5fe;}.cls-10{fill:#ffed58;}.cls-3{stroke:#231f20;stroke-width:2px;}.cls-11{fill:#36464e;}.cls-12{fill:#b9cce9;}.cls-13{fill:#aaa;}.cls-14{fill:#788f9b;}.cls-15{fill:#484645;}.cls-16{fill:#b3b3b3;}.cls-17{fill:#fbd734;}.cls-18{fill:#d7e1f2;}.cls-19{fill:#231f20;}</style></defs><line class="cls-4" x1="154.68" y1="117.49" x2="188.32" y2="144.67"/><line class="cls-3" x1="154.68" y1="117.49" x2="179.96" y2="137.91"/><polygon class="cls-19" points="173.54 142.35 188.32 144.68 182.96 130.72 173.54 142.35"/><line class="cls-4" x1="245.32" y1="117.49" x2="211.68" y2="144.67"/><line class="cls-3" x1="245.32" y1="117.49" x2="220.05" y2="137.91"/><polygon class="cls-19" points="217.05 130.72 211.68 144.67 226.46 142.35 217.05 130.72"/><circle class="cls-1" cx="116.04" cy="63.75" r="45"/><rect class="cls-16" x="90.04" y="53.75" width="52" height="37" rx="2.9" ry="2.9"/><path class="cls-15" d="m116.84,84.06l-1.1-3.4h-8l-1,3.4h-6.5l7.5-23.6h7.6l7.8,23.6h-6.3Zm-7.6-8.6h4.76l-2.4-8-2.36,8Z"/><path class="cls-15" d="m124.54,84.06v-24.71h5.6v24.71h-5.6Z"/><path d="m92.14,42.45l-2.4,3.1,1,1.4-1.6,2.1-6.1-9.3,1.9-2.4,10.5,3.7-1.6,2.1-1.6-.6-.1-.1Zm-2.2-.8l-3.8-1.4,2.3,3.3,1.5-1.9Z"/><path d="m88.84,32.65l1.7-1.4,7,8.4-1.7,1.4-7-8.4Z"/><path d="m101,28.85l3.6,6.6-2,1.1-.3-.6c-.11.81-.64,1.49-1.4,1.8-1.33.74-3.01.25-3.75-1.08-.06-.1-.11-.21-.15-.32l-2.2-4,2-1.1,2,3.8c.29.65,1.06.94,1.71.65.03-.01.06-.03.09-.05.67-.32.95-1.12.63-1.79-.04-.07-.08-.15-.13-.21l-2-3.6,2-1.1-.1-.1Z"/><path d="m115.64,28.35l.8,4.5-2.2.4-.8-4.3c-.03-.6-.54-1.05-1.14-1.02-.06,0-.11.01-.16.02-.7.1-1.1.7-.9,1.6l.7,4.2-2.2.4-.8-4.3c-.03-.6-.54-1.05-1.14-1.02-.06,0-.11.01-.16.02-.7.1-1.1.7-.9,1.6l.7,4.2-2.2.4-1.3-7.4,2.2-.4v.7c.41-.67,1.12-1.11,1.9-1.2.76-.23,1.58,0,2.1.6.37-.79,1.13-1.33,2-1.4,1.7-.3,3,.7,3.3,2.6l.2-.2Z"/><path d="m117.94,25.95l2.2.2-.6,7.5-2.2-.2.6-7.5Zm0-2c.08-.75.75-1.29,1.5-1.2.75.08,1.29.75,1.2,1.5s-.75,1.29-1.5,1.2c0,0,0,0,0,0-.72-.05-1.26-.66-1.21-1.38,0-.04,0-.08.01-.12Z"/><path d="m128.94,31.06l-1.2,4.4-2.2-.6,1.1-4.1c.24-.68-.11-1.42-.78-1.66-.04-.01-.08-.03-.12-.04-.69-.26-1.46.08-1.72.76-.04.11-.07.22-.08.34l-1.1,3.9-2.2-.6,2-7.2,2.2.6-.2.7c.67-.47,1.53-.58,2.3-.3,1.49.39,2.38,1.91,2,3.4-.03.1-.06.2-.1.3l.1.1Z"/><path d="m138.54,33.06l-3.8,6.4-1.9-1.2.4-.6c-.77.29-1.63.18-2.3-.3-1.32-.77-1.78-2.46-1.01-3.78.06-.11.13-.22.21-.32l2.4-4,1.9,1.2-2.2,3.7c-.41.5-.34,1.24.16,1.65.07.06.15.11.24.15.63.41,1.48.23,1.89-.4.04-.06.08-.13.11-.2l2.1-3.5,1.9,1.2h-.1Z"/><path d="m146.34,45.35l-3.5,3-1.5-1.7,3.4-2.9c.6-.5.7-1.1.2-1.6-.43-.5-1.18-.55-1.68-.12-.04.04-.08.08-.12.12l-3.2,2.7-1.5-1.7,3.4-2.9c.6-.5.7-1.1.2-1.6-.43-.5-1.18-.55-1.68-.12-.04.04-.08.08-.12.12l-3.2,2.7-1.5-1.7,5.7-4.9,1.5,1.7-.5.4c.76,0,1.49.34,2,.9.54.56.73,1.36.5,2.1.85-.02,1.66.35,2.2,1,1.03,1.19.9,3-.29,4.03-.07.06-.14.11-.21.17l-.1.3Z"/><circle class="cls-1" cx="283.96" cy="63.75" r="45" transform="translate(175.55 333.83) rotate(-80.78)"/><path d="m264.37,34.55c1.57,2.02,1.21,4.92-.8,6.5l-1.6,1.2,2.6,3.3-2.4,1.9-8.3-10.39,3.9-3.1c1.97-1.6,4.87-1.31,6.47.66,0,.01.02.02.03.04l.1-.11Zm-2.4,1.9c-.47-.71-1.43-.9-2.14-.43-.06.04-.11.08-.16.13l-1.6,1.2,2.1,2.7,1.6-1.2c.69-.56.79-1.58.23-2.27,0-.01-.02-.02-.03-.03v-.1Z"/><path d="m264.77,28.85l2.6-1.2,5.8,12.6-2.6,1.2-5.8-12.6Z"/><path d="m282.17,28.35l1.7,9.4-2.8.5-.2-.9c-.58.9-1.53,1.49-2.6,1.6-2.61.37-5.03-1.46-5.4-4.07,0,0,0-.02,0-.03-.62-2.51.92-5.04,3.43-5.66.06-.01.11-.03.17-.04,1.04-.24,2.13-.03,3,.6l-.2-.9,2.8-.5h.1Zm-2,5.2c-.14-1.2-1.22-2.06-2.42-1.93-.06,0-.12.02-.18.03-1.17.14-2,1.2-1.87,2.36.01.11.04.23.07.34.14,1.2,1.22,2.06,2.42,1.93.06,0,.12-.02.18-.03,1.17-.14,2-1.2,1.87-2.36-.01-.11-.04-.23-.07-.34Z"/><path d="m292.67,36.06c-.3,2.2-2.3,2.9-4.3,2.6-1.73-.04-3.25-1.16-3.8-2.8l2.6-1.1c.14.73.76,1.26,1.5,1.3.7,0,1,0,1.1-.5.1-1-4.6-1.1-4.2-4.3.3-2.1,2.1-2.9,4.1-2.6,1.51.13,2.82,1.1,3.4,2.5l-2.6,1c-.16-.54-.64-.94-1.2-1-.5,0-.8,0-.9.4-.1,1.1,4.6,1,4.1,4.4l.2.1Z"/><path d="m298.37,34.06l-1.2,3.1c-.3.8.3,1.1,1.5,1.5l-.9,2.4c-3.6-1-4.2-2.4-3.3-4.9l1.2-3.2-1.4-.5,1-2.6,1.4.5.6-1.7,3,.2-.9,2.5,1.8.7-1,2.6-1.8-.7v.1Z"/><path d="m303.67,33.45l2.4,1.5-4.9,8.2-2.4-1.5,4.9-8.2Zm1.1-2.3c.47-.8,1.5-1.07,2.3-.6s1.07,1.5.6,2.3c-.47.8-1.5,1.07-2.3.6-.8-.45-1.07-1.47-.62-2.26,0-.01.01-.02.02-.04h0Z"/><path d="m305.37,39.95c1.78-2.01,4.86-2.2,6.87-.41.08.07.15.14.23.21,1.3,1.19,1.84,2.99,1.4,4.7l-2.8-.7c.21-.73-.02-1.51-.6-2-.92-.82-2.33-.73-3.15.19-.76.86-.74,2.17.05,3.01.53.59,1.36.79,2.1.5l.8,2.7c-1.7.51-3.54.05-4.8-1.2-2.02-1.89-2.12-5.05-.23-7.07.01-.01.02-.02.03-.03l.1.1Z"/><path class="cls-18" d="m307.34,59.98v.08h-1.6q-.68,0-.68.69v30.31c.02.44-.13.87-.42,1.21-.19.21-.49.24-.68.45h-10.68c0-.09,0-.18,0-.27l-1.28-5.32c-.72-3.12-1.43-6.24-2.15-9.35-1.05-4.55-2.11-9.09-3.16-13.64-.92-4-1.84-7.97-2.75-11.92h15c.23-.04.46.02.63.18v6.2c.02.73.59,1.32,1.32,1.38h3.78c.28,0,.38-.09.38-.37v-1.83c.12,0,.17.11.24.18l2.05,2.02Z"/><path class="cls-12" d="m307.34,91.67c-.39.8-1.26,1.25-2.14,1.1h-1.23c.19-.2.49-.23.68-.45.29-.34.43-.77.41-1.21v-30.35q0-.69.69-.69h1.59v31.6Z"/><path class="cls-8" d="m263.71,52.13v-.9c-.16-.88.29-1.75,1.1-2.12h2c0,.08.04.15.11.19.59.39.91,1.09.81,1.79-.02.37-.02.75,0,1.12h-3.93l-.09-.08Z"/><path class="cls-13" d="m267.71,52.21v-1.12c.11-.7-.21-1.41-.81-1.79-.06-.04-.1-.11-.1-.19h2c.9.4,1.4,1.38,1.2,2.34v.76h-2.29Z"/><path class="cls-9" d="m293.28,92.76h-6.21c0-.06,0-.12,0-.18l-1.83-8-3.17-13.69c-1.07-4.62-2.14-9.24-3.2-13.87-.36-1.61-.73-3.22-1.1-4.83h6.23c.91,4,1.82,7.97,2.74,11.92,1.06,4.55,2.12,9.1,3.17,13.64.72,3.11,1.43,6.22,2.14,9.35.41,1.79.83,3.58,1.24,5.36,0,.1,0,.2-.01.3Z"/><path class="cls-9" d="m299.58,52.4c.14.02.26.1.34.21l5,5,.14.18v1.83c0,.28-.1.37-.37.37h-3.79c-.73-.06-1.29-.65-1.32-1.38v-6.21Z"/><path class="cls-18" d="m277.75,52.22c.37,1.61.74,3.22,1.1,4.83,1.06,4.63,2.13,9.26,3.2,13.87,1.07,4.61,2.13,9.18,3.17,13.69l1.83,8c0,.06,0,.12,0,.18h-14.05v-3c0-.52-.26-.81-.71-.82s-.75.29-.75.82v3h-9.21c-.96.02-1.74-.74-1.76-1.7,0-.01,0-.03,0-.04v-37.1c0-.95.76-1.72,1.71-1.73.02,0,.03,0,.05,0,.45.03.91.03,1.36,0h7.89v3c0,.51.27.81.71.82s.75-.29.75-.82v-3h4.71Zm-4.75,20.32v-1.55c0-.4-.33-.73-.73-.73s-.73.33-.73.73v3c-.05.38.23.73.61.78.05,0,.09,0,.14,0,.39,0,.71-.31.71-.71,0-.02,0-.05,0-.07v-1.45Zm-1.47,6.14v1.55c0,.4.33.73.73.73s.73-.33.73-.73v-3.06c-.03-.41-.35-.73-.76-.75-.38,0-.7.3-.7.68,0,.02,0,.04,0,.06v1.51h0Zm0-12.42v1.51c-.02.41.3.76.71.79.42-.05.74-.4.75-.82v-2.92c0-.54-.26-.83-.74-.82s-.71.29-.72.81,0,1,0,1.46h0Zm0-6.26v1.5c-.04.38.23.72.6.77.04,0,.08,0,.12,0,.39.02.72-.27.74-.65,0-.04,0-.08,0-.13v-2.92c.05-.38-.21-.72-.59-.78-.05,0-.09,0-.14,0-.46,0-.72.28-.72.8v1.41h-.01Zm1.47,25v-1.48c0-.51-.27-.8-.72-.8-.39-.02-.72.27-.74.65,0,.04,0,.08,0,.13v2.91c-.05.38.22.73.6.78.04,0,.08,0,.13,0,.46,0,.71-.29.72-.81s.01-.94.01-1.41v.02Z"/><path class="cls-12" d="m273,52.23v3c0,.54-.29.84-.75.83s-.7-.31-.71-.83v-3h1.46Z"/><path class="cls-8" d="m263.79,92.77h3.92v1.18c.1.83-.39,1.63-1.18,1.91h-1.22c-.85.04-1.57-.62-1.61-1.47,0-.05,0-.1,0-.14v-1.41l.09-.07Z"/><path class="cls-13" d="m266.53,95.86c.79-.28,1.28-1.08,1.18-1.91v-1.18h2.29c.04.6.02,1.21-.06,1.81-.12.78-.82,1.34-1.61,1.29h-1.8Z"/><path class="cls-12" d="m271.55,92.76v-3c0-.53.29-.83.75-.82s.71.31.71.82v3h-1.46Z"/><path class="cls-7" d="m263.79,52.21h-.1s0-.06,0-.09l.1.09Z"/><path class="cls-7" d="m263.79,92.77l-.08.08s0-.05,0-.08h.08Z"/><path class="cls-6" d="m273,72.54v1.45c0,.4-.33.73-.73.73s-.73-.33-.73-.73v-3c-.04-.38.23-.73.62-.78.03,0,.06,0,.09,0,.39-.02.73.27.75.67,0,.04,0,.08,0,.11v1.55Z"/><path class="cls-12" d="m271.55,78.68v-1.51c-.03-.38.26-.71.64-.74.02,0,.04,0,.06,0,.41.02.73.34.75.75v3.06c.05.4-.24.76-.64.81-.4.05-.76-.24-.81-.64,0-.06,0-.11,0-.17-.01-.53,0-1.04,0-1.56Z"/><path class="cls-12" d="m271.55,66.27v-1.46c0-.52.26-.8.71-.81s.74.28.74.83v2.91c0,.42-.32.77-.74.82-.41-.02-.73-.36-.71-.77,0,0,0-.01,0-.02-.01-.5,0-1.01,0-1.5Z"/><path class="cls-12" d="m271.55,60v-1.41c0-.52.26-.8.72-.8.38-.03.71.26.73.64,0,.05,0,.09,0,.14v2.92c.04.38-.23.73-.61.78-.04,0-.08,0-.13,0-.44,0-.7-.28-.72-.77s.01-1,.01-1.5Z"/><path class="cls-12" d="m273,84.98v1.41c0,.52-.27.8-.72.81-.39.02-.72-.28-.74-.66,0-.04,0-.08,0-.13v-2.91c-.05-.38.21-.73.59-.78.05,0,.1,0,.15,0,.46,0,.71.29.71.8v1.46Z"/><line class="cls-4" x1="199.7" y1="251.09" x2="200.2" y2="283.87"/><line class="cls-3" x1="199.7" y1="251.09" x2="200.04" y2="273.11"/><polygon class="cls-19" points="192.52 271.03 200.2 283.87 207.48 270.81 192.52 271.03"/><path class="cls-17" d="m212.18,195.08c.5,0,.99.02,1.49.02.84,0,1.54.69,1.55,1.54,0,.78,0,1.56,0,2.33,0,6.58,0,13.16,0,19.75,0,.43-.02.86-.15,1.28-.15.49-.75.93-1.27.93-5.57,0-11.15,0-16.72,0-.03,0-.05,0-.08,0,0-1.51,0-3.03,0-4.54,1.16,0,2.32,0,3.48-.01.15,0,.32.04.32-.21,0-.57.05-1.16-.08-1.71-.36-1.48-.79-2.95-1.17-4.43-.1-.4-.22-.79-.36-1.18-.22-.61.19-.92.56-1.25.6-.55.85-1.24.99-2.03.3-1.66-1.1-3.65-2.68-4.16-.05-.09-.12-.13-.22-.08-.08-.02-.16-.04-.24-.05-.04-.05-.08-.07-.14-.03-.15-.02-.31-.04-.46-.07,0-2.01,0-4.03,0-6.04,2.86,0,5.71,0,8.57-.02.18,0,.36-.01.53-.02,1.02.03,2.04.05,3.07,0,1,.06,2,.04,3.01,0Z"/><path class="cls-10" d="m197,216.37c0,1.51,0,3.03,0,4.54-.57,0-1.15.01-1.72.01-4.86,0-9.72-.02-14.58.02-1.28.01-1.94-.69-1.94-1.94.04-7.44.03-14.88,0-22.32,0-.89.72-1.6,1.57-1.59.5,0,.99-.01,1.49-.02,1,.03,2,.05,3-.01,1.02.06,2.04.03,3.06.01.17,0,.33.02.5.02,2.87,0,5.74,0,8.61.01,0,2.01,0,4.03,0,6.04-.32.15-.68.08-1.02.21-1.42.55-2.36,1.51-2.7,3.02-.06.03-.11.07-.03.14-.11,1.25.02,2.39,1.14,3.22.35.26.49.65.35,1.14-.09.3-.2.59-.27.9-.2.84-.42,1.66-.64,2.49-.16.61-.35,1.22-.5,1.83-.15.61-.11,1.23-.13,1.85-.01.31.07.42.4.41,1.14-.02,2.27,0,3.41,0Z"/><path class="cls-14" d="m184.83,195.07c-1,.06-2,.04-3,.01,0-2.7-.02-5.41.02-8.11.02-1.25.19-2.49.55-3.71.44-1.46,1.06-2.83,1.9-4.1,1.05-1.58,2.35-2.94,3.9-4.05,1.02-.73,2.09-1.38,3.27-1.78,1.17-.41,2.35-.81,3.61-.9.71-.05,1.41-.16,2.12-.14,1.77.03,3.47.38,5.13,1,1.65.62,3.14,1.52,4.5,2.65,1.17.97,2.13,2.12,2.94,3.4.58.9,1.03,1.86,1.42,2.87.21.55.36,1.12.55,1.68.17.51.21,1.06.27,1.6.35,3.19.08,6.39.17,9.58-1,.04-2,.05-3,0,0-2.28-.02-4.57.01-6.85.02-1.31-.15-2.6-.47-3.87-.45-1.78-1.28-3.39-2.48-4.76-1.47-1.68-3.26-2.95-5.42-3.64-1.53-.49-3.08-.64-4.69-.54-1.49.09-2.89.44-4.22,1.06-2.21,1.03-3.95,2.61-5.24,4.69-1.11,1.79-1.72,3.76-1.8,5.84-.1,2.69-.02,5.38-.02,8.08Z"/><path class="cls-5" d="m206.11,195.08c0-2.42.02-4.85,0-7.27-.01-1.29-.19-2.56-.71-3.76-.41-.95-.96-1.81-1.64-2.6-1.01-1.18-2.27-1.99-3.7-2.51-1.32-.48-2.7-.64-4.13-.46-.87.11-1.71.31-2.49.65-2.18.95-3.78,2.51-4.77,4.69-.46,1.02-.65,2.09-.7,3.2-.13,2.69-.02,5.38-.06,8.06-1.02.02-2.04.04-3.06-.01,0-2.69-.08-5.39.02-8.08.08-2.08.68-4.05,1.8-5.84,1.29-2.08,3.03-3.66,5.24-4.69,1.33-.62,2.73-.97,4.22-1.06,1.61-.09,3.16.06,4.69.54,2.16.69,3.94,1.95,5.42,3.64,1.2,1.38,2.03,2.98,2.48,4.76.32,1.27.49,2.55.47,3.87-.03,2.28-.01,4.57-.01,6.85-1.02.05-2.04.04-3.07,0Z"/><path class="cls-11" d="m197,216.37c-1.14,0-2.27-.02-3.41,0-.33,0-.41-.1-.4-.41.02-.62-.01-1.25.13-1.85.15-.62.34-1.22.5-1.83.22-.83.44-1.66.64-2.49.07-.31.18-.6.27-.9.14-.49,0-.88-.35-1.14-1.12-.83-1.25-1.97-1.14-3.22.06-.03.06-.08.03-.14.34-1.51,1.28-2.47,2.7-3.02.34-.13.7-.05,1.02-.21.15.02.31.04.46.07.03.08.07.12.14.03.08.02.16.04.24.05.04.11.14.08.22.08,1.58.51,2.98,2.5,2.68,4.16-.14.79-.4,1.48-.99,2.03-.36.33-.78.65-.56,1.25.14.39.25.78.36,1.18.38,1.48.81,2.94,1.17,4.43.13.55.09,1.14.08,1.71,0,.25-.17.21-.32.21-1.16,0-2.32,0-3.48.01Z"/><path class="cls-5" d="m198.07,201.39c-.09,0-.18.03-.22-.08.1-.05.17,0,.22.08Z"/><path class="cls-5" d="m197.6,201.25c-.07.09-.11.05-.14-.03.06-.03.1-.02.14.03Z"/><path class="cls-14" d="m193.28,204.38c.03.06.03.1-.03.14-.08-.07-.03-.1.03-.14Z"/><circle class="cls-2" cx="197.13" cy="198.91" r="39.02"/><path class="cls-17" d="m213.18,330.08c.5,0,.99.02,1.49.02.84,0,1.54.69,1.55,1.54,0,.78,0,1.56,0,2.33,0,6.58,0,13.16,0,19.75,0,.43-.02.86-.15,1.28-.15.49-.75.93-1.27.93-5.57,0-11.15,0-16.72,0-.03,0-.05,0-.08,0,0-1.51,0-3.03,0-4.54,1.16,0,2.32,0,3.48-.01.15,0,.32.04.32-.21,0-.57.05-1.16-.08-1.71-.36-1.48-.79-2.95-1.17-4.43-.1-.4-.22-.79-.36-1.18-.22-.61.19-.92.56-1.25.6-.55.85-1.24.99-2.03.3-1.66-1.1-3.65-2.68-4.16-.05-.09-.12-.13-.22-.08-.08-.02-.16-.04-.24-.05-.04-.05-.08-.07-.14-.03-.15-.02-.31-.04-.46-.07,0-2.01,0-4.03,0-6.04,2.86,0,5.71,0,8.57-.02.18,0,.36-.01.53-.02,1.02.03,2.04.05,3.07,0,1,.06,2,.04,3.01,0Z"/><path class="cls-10" d="m198,351.37c0,1.51,0,3.03,0,4.54-.57,0-1.15.01-1.72.01-4.86,0-9.72-.02-14.58.02-1.28.01-1.94-.69-1.94-1.94.04-7.44.03-14.88,0-22.32,0-.89.72-1.6,1.57-1.59.5,0,.99-.01,1.49-.02,1,.03,2,.05,3-.01,1.02.06,2.04.03,3.06.01.17,0,.33.02.5.02,2.87,0,5.74,0,8.61.01,0,2.01,0,4.03,0,6.04-.32.15-.68.08-1.02.21-1.42.55-2.36,1.51-2.7,3.02-.06.03-.11.07-.03.14-.11,1.25.02,2.39,1.14,3.22.35.26.49.65.35,1.14-.09.3-.2.59-.27.9-.2.84-.42,1.66-.64,2.49-.16.61-.35,1.22-.5,1.83-.15.61-.11,1.23-.13,1.85-.01.31.07.42.4.41,1.14-.02,2.27,0,3.41,0Z"/><path class="cls-14" d="m185.83,330.07c-1,.06-2,.04-3,.01,0-2.7-.02-5.41.02-8.11.02-1.25.19-2.49.55-3.71.44-1.46,1.06-2.83,1.9-4.1,1.05-1.58,2.35-2.94,3.9-4.05,1.02-.73,2.09-1.38,3.27-1.78,1.17-.41,2.35-.81,3.61-.9.71-.05,1.41-.16,2.12-.14,1.77.03,3.47.38,5.13,1,1.65.62,3.14,1.52,4.5,2.65,1.17.97,2.13,2.12,2.94,3.4.58.9,1.03,1.86,1.42,2.87.21.55.36,1.12.55,1.68.17.51.21,1.06.27,1.6.35,3.19.08,6.39.17,9.58-1,.04-2,.05-3,0,0-2.28-.02-4.57.01-6.85.02-1.31-.15-2.6-.47-3.87-.45-1.78-1.28-3.39-2.48-4.76-1.47-1.68-3.26-2.95-5.42-3.64-1.53-.49-3.08-.64-4.69-.54-1.49.09-2.89.44-4.22,1.06-2.21,1.03-3.95,2.61-5.24,4.69-1.11,1.79-1.72,3.76-1.8,5.84-.1,2.69-.02,5.38-.02,8.08Z"/><path class="cls-5" d="m207.11,330.08c0-2.42.02-4.85,0-7.27-.01-1.29-.19-2.56-.71-3.76-.41-.95-.96-1.81-1.64-2.6-1.01-1.18-2.27-1.99-3.7-2.51-1.32-.48-2.7-.64-4.13-.46-.87.11-1.71.31-2.49.65-2.18.95-3.78,2.51-4.77,4.69-.46,1.02-.65,2.09-.7,3.2-.13,2.69-.02,5.38-.06,8.06-1.02.02-2.04.04-3.06-.01,0-2.69-.08-5.39.02-8.08.08-2.08.68-4.05,1.8-5.84,1.29-2.08,3.03-3.66,5.24-4.69,1.33-.62,2.73-.97,4.22-1.06,1.61-.09,3.16.06,4.69.54,2.16.69,3.94,1.95,5.42,3.64,1.2,1.38,2.03,2.98,2.48,4.76.32,1.27.49,2.55.47,3.87-.03,2.28-.01,4.57-.01,6.85-1.02.05-2.04.04-3.07,0Z"/><path class="cls-11" d="m198,351.37c-1.14,0-2.27-.02-3.41,0-.33,0-.41-.1-.4-.41.02-.62-.01-1.25.13-1.85.15-.62.34-1.22.5-1.83.22-.83.44-1.66.64-2.49.07-.31.18-.6.27-.9.14-.49,0-.88-.35-1.14-1.12-.83-1.25-1.97-1.14-3.22.06-.03.06-.08.03-.14.34-1.51,1.28-2.47,2.7-3.02.34-.13.7-.05,1.02-.21.15.02.31.04.46.07.03.08.07.12.14.03.08.02.16.04.24.05.04.11.14.08.22.08,1.58.51,2.98,2.5,2.68,4.16-.14.79-.4,1.48-.99,2.03-.36.33-.78.65-.56,1.25.14.39.25.78.36,1.18.38,1.48.81,2.94,1.17,4.43.13.55.09,1.14.08,1.71,0,.25-.17.21-.32.21-1.16,0-2.32,0-3.48.01Z"/><path class="cls-5" d="m199.07,336.39c-.09,0-.18.03-.22-.08.1-.05.17,0,.22.08Z"/><path class="cls-5" d="m198.6,336.25c-.07.09-.11.05-.14-.03.06-.03.1-.02.14.03Z"/><path class="cls-14" d="m194.28,339.38c.03.06.03.1-.03.14-.08-.07-.03-.1.03-.14Z"/><circle class="cls-2" cx="198.13" cy="333.91" r="39.02"/></svg>