<?xml version="1.0" encoding="UTF-8"?><svg id="Layer_1" xmlns="http://www.w3.org/2000/svg" viewBox="0 0 400 400"><defs><style>.cls-1{fill:#009245;}.cls-2{stroke:#a5262d;}.cls-2,.cls-3,.cls-4{stroke-width:4px;}.cls-2,.cls-3,.cls-4,.cls-5{stroke-miterlimit:10;}.cls-2,.cls-3,.cls-4,.cls-5,.cls-6{fill:none;}.cls-7{fill:#72b3e2;}.cls-3{stroke:#0018c6;}.cls-4{stroke:#c000e2;}.cls-8{fill:#f15a24;}.cls-9{fill:#bacce9;}.cls-10{fill:#c7c7c7;}.cls-11{fill:#bdbdbd;}.cls-12{fill:#ecf5fe;}.cls-5{stroke:#231f20;stroke-width:2px;}.cls-13{fill:#72b2e2;}.cls-14{fill:#b9cce9;}.cls-15{fill:#aaa;}.cls-16{fill:#484645;}.cls-17{fill:#b3b3b3;}.cls-18{fill:#d7e1f2;}.cls-19{fill:#231f20;}</style></defs><circle class="cls-2" cx="309.97" cy="61.43" r="45"/><path d="m280.66,46.23c-2.78-2.42-3.08-6.64-.65-9.42.11-.13.23-.26.35-.38,1.53-1.71,3.84-2.51,6.1-2.1l-.7,3c-1.22-.24-2.47.17-3.3,1.1-1.42,1.64-1.24,4.12.4,5.54,1.54,1.33,3.83,1.27,5.3-.14.91-.88,1.26-2.19.9-3.4l2.9-.9c.92,3.67-1.3,7.39-4.97,8.31-2.29.58-4.73-.07-6.43-1.71l.1.1Z"/><path d="m292.16,37.53c-1.21-2.48-.18-5.48,2.31-6.68,2.48-1.21,5.48-.18,6.68,2.31,1.21,2.48.18,5.46-2.29,6.68-2.48,1.22-5.47.19-6.69-2.28,0,0,0-.01,0-.02Zm6.5-3.1c-.57-1.05-1.89-1.45-2.94-.88s-1.45,1.89-.88,2.94c.54,1.01,1.78,1.42,2.82.94,1.08-.48,1.57-1.74,1.09-2.82-.03-.06-.06-.12-.09-.18Z"/><path d="m313.47,31.43c.41,2.62-1.38,5.08-4,5.5-1.04.15-2.09-.14-2.9-.8l.5,4.7-2.8.3-1.5-13.18,2.8-.3v.9c.69-.86,1.7-1.4,2.8-1.5,2.63-.18,4.92,1.81,5.1,4.44,0,.02,0,.04,0,.06v-.12Zm-2.8.3c-.08-1.25-1.16-2.19-2.4-2.11-.03,0-.07,0-.1,0-1.21.08-2.12,1.13-2.03,2.34,0,.09.02.18.03.26.08,1.25,1.16,2.19,2.4,2.11.03,0,.07,0,.1,0,1.21-.08,2.12-1.13,2.03-2.34,0-.09-.02-.18-.03-.26h0Z"/><path d="m325.66,34.13c-.52,2.58-3.01,4.27-5.6,3.8-1.04-.24-1.94-.89-2.5-1.8l-1.1,4.6-2.8-.7,3.2-12.9,2.8.7-.2.9c.9-.55,1.99-.69,3-.4,2.53.76,3.97,3.43,3.21,5.96,0,.01,0,.02-.01.04v-.2Zm-2.8-.7c.27-1.22-.5-2.44-1.72-2.71-1.22-.27-2.44.5-2.71,1.72-.26,1.19.46,2.37,1.63,2.69,1.17.36,2.41-.3,2.77-1.47.02-.07.04-.15.06-.23h-.03Z"/><path d="m330.26,39.83c.57.35,1.24.49,1.9.4l1.2,2.4c-1.51.56-3.2.3-4.47-.68-2.7-1.8-3.2-4.7-1.6-7.1,1.17-2.5,4.14-3.58,6.65-2.42,2.5,1.17,3.58,4.14,2.42,6.65-.2.42-.45.82-.76,1.17-.2.3-.5.6-.7.9l-5.6-3.7c-.16.98.32,1.94,1.2,2.4l-.23-.02Zm3.4-1.9c.37-.91-.02-1.96-.9-2.4-.77-.61-1.88-.57-2.6.1l3.4,2.3h.1Z"/><path d="m344.26,43.03l-2.4,2.1c-.6-1-2.1-2-3.5-.7l-3.2,2.8-1.9-2.1,7.2-6.2,1.9,2.1-1.3,1.1c1.18-.42,2.5-.06,3.3.9h-.1Z"/><rect class="cls-8" x="283.97" y="53.43" width="52" height="37" rx="2.9" ry="2.9"/><path class="cls-16" d="m301.26,84.23c-3.29.1-6.48-1.17-8.8-3.5-4.67-4.94-4.67-12.66,0-17.6,2.31-2.36,5.5-3.63,8.8-3.5,3.5,0,4.1.5,5.9,1.5,1.77.96,3.26,2.37,4.3,4.1l-5.2,3c-.48-.83-1.17-1.52-2-2-.92-.49-1.96-.73-3-.7-1.72-.07-3.38.59-4.6,1.8-1.18,1.23-1.8,2.9-1.7,4.6-.23,3.31,2.27,6.17,5.58,6.39.24.02.48.02.72,0,1.05.14,2.12-.11,3-.7.85-.45,1.55-1.15,2-2l5.2,3c-1.04,1.73-2.53,3.14-4.3,4.1-1.84,1.01-3.9,1.53-6,1.5h.1Z"/><path class="cls-16" d="m324.57,66.83h5.6v16.9h-5.6v-1.7c-1.1,1.47-2.86,2.3-4.7,2.2-1.72.12-3.39-.59-4.5-1.9-1.2-1.2-1.7-3-1.7-5.4v-10.1h5.6v9.4c-.06.74.19,1.46.7,2,.48.47,1.13.73,1.8.7.75.01,1.47-.28,2-.8.53-.65.78-1.47.7-2.3v-9h.1Z"/><circle class="cls-2" cx="200" cy="61.43" r="45"/><rect class="cls-17" x="174" y="51.43" width="52" height="37" rx="2.9" ry="2.9"/><path class="cls-16" d="m200.79,81.73l-1.1-3.4h-8l-1,3.4h-6.5l7.5-23.6h7.6l7.8,23.6h-6.3Zm-7.6-8.6h4.8l-2.4-8-2.4,8Z"/><path class="cls-16" d="m208.5,81.73v-24.7h5.6v24.7h-5.6Z"/><path d="m176.09,40.13l-2.4,3.1,1,1.4-1.6,2.1-6.1-9.3,1.9-2.4,10.5,3.7-1.6,2.1-1.6-.6-.1-.1Zm-2.2-.8l-3.8-1.38,2.3,3.3,1.5-1.92Z"/><path d="m172.79,30.33l1.7-1.4,7,8.4-1.7,1.4-7-8.4Z"/><path d="m185,26.53l3.6,6.6-2,1.1-.3-.6c-.11.81-.64,1.49-1.4,1.8-1.33.74-3.01.25-3.75-1.08-.06-.1-.11-.21-.15-.32l-2.2-4,2-1.1,2,3.8c.29.65,1.06.94,1.71.65.03-.01.06-.03.09-.05.67-.32.95-1.12.63-1.79-.04-.07-.08-.15-.13-.21l-2-3.6,2-1.1-.1-.1Z"/><path d="m199.59,26.03l.8,4.5-2.2.4-.8-4.3c-.03-.6-.54-1.05-1.14-1.02-.06,0-.11.01-.16.02-.7.1-1.1.7-.9,1.6l.7,4.2-2.2.4-.8-4.3c-.03-.6-.54-1.05-1.14-1.02-.06,0-.11.01-.16.02-.7.1-1.1.7-.9,1.6l.7,4.2-2.2.4-1.3-7.4,2.2-.4v.7c.41-.67,1.12-1.11,1.9-1.2.76-.23,1.58,0,2.1.6.37-.79,1.13-1.33,2-1.4,1.7-.3,3,.7,3.3,2.6l.2-.2Z"/><path d="m201.89,23.63l2.2.2-.6,7.5-2.2-.2.6-7.5Zm0-2c.08-.75.75-1.29,1.5-1.2.75.08,1.29.75,1.2,1.5-.08.75-.75,1.29-1.5,1.2,0,0,0,0,0,0-.72-.05-1.26-.66-1.21-1.38,0-.04,0-.08.01-.12Z"/><path d="m212.89,28.73l-1.2,4.4-2.2-.6,1.1-4.1c.24-.68-.11-1.42-.78-1.66-.04-.01-.08-.03-.12-.04-.69-.26-1.46.08-1.72.76-.04.11-.07.22-.08.34l-1.1,3.9-2.2-.6,2-7.2,2.2.6-.2.7c.68-.46,1.53-.57,2.3-.28,1.49.39,2.38,1.91,2,3.4-.03.1-.06.2-.1.3l.1.08Z"/><path d="m222.5,30.73l-3.8,6.4-1.9-1.18.4-.6c-.77.29-1.63.18-2.3-.3-1.32-.77-1.78-2.46-1.01-3.78.06-.11.13-.22.21-.32l2.4-4,1.9,1.2-2.2,3.7c-.41.5-.34,1.24.16,1.65.07.06.15.11.24.15.63.41,1.48.23,1.89-.4.04-.06.08-.13.11-.2l2.1-3.5,1.9,1.2-.1-.02Z"/><path d="m230.29,43.03l-3.5,3-1.5-1.7,3.4-2.9c.6-.5.7-1.1.2-1.6-.43-.5-1.18-.55-1.68-.12-.04.04-.08.08-.12.12l-3.2,2.7-1.5-1.7,3.4-2.9c.6-.5.7-1.1.2-1.6-.43-.5-1.18-.55-1.68-.12-.04.04-.08.08-.12.12l-3.2,2.7-1.5-1.7,5.7-4.9,1.5,1.7-.5.4c.76,0,1.49.34,2,.9.54.56.73,1.36.5,2.1.85-.02,1.66.35,2.2,1,1.03,1.19.9,3-.29,4.03-.07.06-.14.11-.21.17l-.1.3Z"/><circle class="cls-2" cx="90.03" cy="61.43" r="45"/><path d="m70.44,32.23c1.57,2.02,1.21,4.92-.8,6.5l-1.6,1.22,2.6,3.3-2.4,1.9-8.3-10.4,3.9-3.1c1.97-1.6,4.87-1.31,6.47.66,0,.01.02.02.03.04l.1-.12Zm-2.4,1.9c-.47-.71-1.43-.9-2.14-.43-.06.04-.11.08-.16.13l-1.6,1.2,2.1,2.7,1.6-1.2c.69-.56.79-1.58.23-2.27,0-.01-.02-.02-.03-.03v-.1Z"/><path d="m70.89,26.53l2.6-1.2,5.75,12.62-2.6,1.2-5.75-12.62Z"/><path d="m88.24,26.03l1.7,9.4-2.8.5-.2-.9c-.58.9-1.53,1.49-2.6,1.6-2.61.37-5.03-1.46-5.4-4.07,0,0,0-.02,0-.03-.62-2.51.92-5.04,3.43-5.66.06-.01.11-.03.17-.04,1.04-.24,2.13-.03,3,.6l-.2-.9,2.8-.5h.1Zm-2,5.2c-.14-1.2-1.22-2.06-2.42-1.93-.06,0-.12.02-.18.03-1.17.14-2,1.2-1.87,2.36.01.11.04.23.07.34.14,1.2,1.22,2.06,2.42,1.93.06,0,.12-.02.18-.03,1.17-.14,2-1.2,1.87-2.36-.01-.11-.04-.23-.07-.34Z"/><path d="m98.74,33.73c-.3,2.2-2.3,2.9-4.3,2.6-1.73-.04-3.25-1.16-3.8-2.8l2.6-1.1c.14.73.76,1.26,1.5,1.3.7,0,1,0,1.1-.5.1-1-4.6-1.1-4.2-4.3.3-2.1,2.1-2.9,4.1-2.6,1.51.13,2.82,1.1,3.4,2.5l-2.6,1c-.16-.54-.64-.94-1.2-1-.5,0-.8,0-.9.4-.1,1.1,4.6,1,4.1,4.4l.2.1Z"/><path d="m104.44,31.73l-1.2,3.1c-.3.8.3,1.1,1.5,1.5l-.9,2.4c-3.6-1-4.2-2.4-3.3-4.9l1.2-3.2-1.4-.5,1-2.6,1.4.5.6-1.7,3,.2-.9,2.5,1.8.7-1,2.6-1.8-.7v.1Z"/><path d="m109.74,31.13l2.4,1.5-4.9,8.2-2.35-1.5,4.85-8.2Zm1.1-2.3c.47-.8,1.5-1.07,2.3-.6.8.47,1.07,1.5.6,2.3-.47.8-1.5,1.07-2.3.6-.78-.47-1.04-1.49-.56-2.28,0,0,0-.01.01-.02h-.05Z"/><path d="m111.44,37.63c1.78-2.01,4.86-2.2,6.87-.41.08.07.15.14.23.21,1.3,1.19,1.84,2.99,1.4,4.7l-2.8-.7c.21-.73-.02-1.51-.6-2-.92-.82-2.33-.73-3.15.19-.76.86-.74,2.17.05,3.01.53.59,1.36.79,2.1.5l.8,2.7c-1.7.51-3.54.05-4.8-1.2-2.02-1.89-2.12-5.05-.23-7.07.01-.01.02-.02.03-.03l.1.1Z"/><path class="cls-18" d="m113.41,57.66v.1h-1.6q-.68,0-.68.69v30.33c.02.44-.13.88-.42,1.21-.19.22-.49.25-.68.45h-10.68c0-.09,0-.18,0-.27l-1.23-5.36c-.72-3.12-1.43-6.23-2.15-9.35-1.05-4.55-2.11-9.1-3.16-13.64-.92-4-1.84-7.97-2.75-11.92h15c.23-.04.46.03.63.18v6.21c.02.73.59,1.32,1.32,1.37h3.78c.28,0,.38-.09.38-.36v-1.84c.12,0,.17.11.24.19l2,2.01Z"/><path class="cls-14" d="m113.41,89.35c-.39.8-1.26,1.25-2.14,1.1-.41-.02-.82-.02-1.23,0,.19-.2.49-.24.67-.45.29-.34.44-.77.42-1.21v-30.35q0-.69.69-.69h1.59v31.6Z"/><path class="cls-11" d="m69.78,49.81v-.9c-.16-.88.3-1.75,1.11-2.11h2c0,.07.04.14.1.19.6.38.92,1.08.82,1.78-.02.38-.02.75,0,1.13h-3.92l-.11-.09Z"/><path class="cls-15" d="m73.78,49.95v-1.13c.15-.73-.17-1.48-.81-1.87-.06-.05-.1-.12-.11-.19h2c.89.41,1.38,1.37,1.17,2.33v.77l-2.25.09Z"/><path class="cls-12" d="m99.35,90.44h-6.22c0-.06,0-.12,0-.18l-1.83-8-3.18-13.66c-1.07-4.62-2.14-9.24-3.23-13.86-.37-1.61-.73-3.22-1.1-4.83h6.22c.91,4,1.82,7.97,2.74,11.91,1.05,4.55,2.11,9.09,3.17,13.64.72,3.12,1.43,6.23,2.14,9.35.41,1.79.82,3.58,1.24,5.36.02.09.04.18.05.27Z"/><path class="cls-12" d="m105.65,50.08c.13.03.26.1.34.21l5,5c.05.05.1.11.14.18v1.83c0,.27-.1.36-.38.36h-3.78c-.72-.06-1.29-.64-1.32-1.37v-6.21Z"/><path class="cls-18" d="m83.82,49.95c.37,1.61.73,3.22,1.1,4.83,1.06,4.62,2.12,9.24,3.19,13.86l3.18,13.65,1.83,8c0,.06,0,.12,0,.18h-14.05v-3c0-.51-.27-.81-.71-.82s-.75.29-.75.82v3h-9.22c-.95.02-1.73-.74-1.75-1.69,0-.01,0-.03,0-.04v-37.11c.01-.94.78-1.69,1.72-1.68.01,0,.02,0,.03,0h9.23v3c-.06.4.22.77.62.82.03,0,.06,0,.09,0,.46,0,.75-.29.75-.83v-3h4.74Zm-4.74,20.27v-1.55c0-.4-.33-.73-.73-.73-.4,0-.73.33-.73.73h0v3c-.04.39.24.74.64.78.04,0,.08,0,.11,0,.4,0,.72-.33.71-.73,0-.02,0-.04,0-.05,0-.47,0-.96,0-1.45Zm-1.47,6.14v1.55c0,.4.33.73.73.73.4,0,.73-.33.73-.73h0v-3.06c-.03-.41-.35-.73-.76-.76-.39,0-.7.31-.7.7,0,.02,0,.03,0,.05v1.52Zm0-12.41v1.5c-.02.41.29.77.71.79h0c.42-.05.74-.4.75-.82v-2.91c0-.55-.26-.83-.74-.83s-.71.29-.72.81,0,1,0,1.46Zm0-6.27v1.51c-.04.37.22.71.59.76.04,0,.08,0,.12,0,.39.03.72-.26.75-.64,0-.05,0-.09,0-.14v-2.92c.04-.38-.23-.73-.61-.78-.04,0-.08,0-.13,0-.45,0-.71.28-.72.8s0,.94,0,1.41h0Zm1.47,25v-1.47c0-.52-.27-.8-.72-.81-.39-.02-.72.27-.74.65,0,.04,0,.08,0,.13v2.92c-.05.38.21.72.59.78.05,0,.09,0,.14,0,.46,0,.71-.29.72-.8s0-.94,0-1.42v.02Z"/><path class="cls-14" d="m79.07,49.95v3c0,.53-.29.84-.75.82s-.7-.31-.71-.82v-3h1.46Z"/><path class="cls-11" d="m69.89,90.45h3.93v1.19c.1.83-.39,1.62-1.18,1.9h-1.27c-.84.04-1.56-.61-1.6-1.46,0-.05,0-.1,0-.14v-1.41l.12-.08Z"/><path class="cls-15" d="m72.6,93.54c.78-.29,1.27-1.07,1.18-1.9v-1.19h2.25c.07.6.07,1.21,0,1.81-.13.78-.82,1.34-1.61,1.29h-1.82Z"/><path class="cls-14" d="m77.63,90.44v-3c0-.54.29-.84.75-.83.4,0,.72.34.72.74,0,.03,0,.06,0,.09v3h-1.46Z"/><path class="cls-10" d="m69.89,49.95h-.09s0-.06,0-.09l.09.09Z"/><path class="cls-10" d="m69.89,90.45l-.07.09s0-.06,0-.09h.07Z"/><path class="cls-9" d="m79.08,70.22v1.46c0,.4-.33.73-.73.73-.4,0-.73-.33-.73-.73h0v-3c-.04-.39.25-.74.64-.78.02,0,.05,0,.07,0,.4-.02.73.29.75.69,0,.03,0,.06,0,.09,0,.49,0,1.03,0,1.54Z"/><path class="cls-14" d="m77.63,76.36v-1.5c-.03-.38.25-.71.63-.75.02,0,.05,0,.07,0,.4.03.72.36.75.76v3.06c.03.37-.24.7-.62.74-.04,0-.08,0-.11,0-.38.02-.7-.27-.72-.66,0-.03,0-.07,0-.1,0-.51,0-1.03,0-1.55Z"/><path class="cls-14" d="m77.63,63.95v-1.46c0-.52.26-.8.71-.8s.74.27.74.82v2.92c0,.42-.33.77-.75.81-.41-.02-.73-.37-.71-.79h0c0-.5.01-1,.01-1.5Z"/><path class="cls-14" d="m77.63,57.68v-1.41c0-.52.26-.8.72-.8.38-.03.71.26.73.64,0,.05,0,.09,0,.14v2.92c0,.4-.33.73-.73.73-.4,0-.73-.33-.73-.73h0c-.01-.46,0-.98,0-1.49Z"/><path class="cls-14" d="m79.08,82.66v1.42c0,.51-.27.8-.72.8-.38.03-.71-.26-.73-.64,0-.05,0-.09,0-.14v-2.92c-.04-.38.23-.73.61-.78.04,0,.08,0,.13,0,.45,0,.7.29.71.81v1.45Z"/><line class="cls-6" x1="199.32" y1="112.64" x2="199.82" y2="145.42"/><line class="cls-5" x1="199.32" y1="112.64" x2="199.65" y2="134.66"/><polygon class="cls-19" points="192.14 132.58 199.82 145.42 207.11 132.36 192.14 132.58"/><line class="cls-6" x1="118.24" y1="108.38" x2="166.89" y2="147.68"/><line class="cls-5" x1="118.24" y1="108.38" x2="158.53" y2="140.92"/><polygon class="cls-19" points="152.11 145.36 166.89 147.69 161.53 133.73 152.11 145.36"/><line class="cls-6" x1="280.89" y1="108.38" x2="232.25" y2="147.68"/><line class="cls-5" x1="280.89" y1="108.38" x2="240.62" y2="140.92"/><polygon class="cls-19" points="237.62 133.73 232.25 147.68 247.03 145.36 237.62 133.73"/><path class="cls-13" d="m198.12,174.62c3.21-.15,6.35,1.01,8.7,3.2.57.42.7,1.22.3,1.8-.4.5-1.1.5-1.8,0-1.81-1.77-4.27-2.72-6.8-2.6-2.12.05-4.14.87-5.7,2.3-.17.2-.38.36-.6.5-.49.39-1.2.31-1.59-.18,0,0,0-.01-.01-.02-.35-.44-.35-1.06,0-1.5.61-.64,1.32-1.18,2.1-1.6,1.64-1.07,3.54-1.69,5.5-1.8l-.1-.1Z"/><path class="cls-7" d="m198.62,178.82c2.19-.01,4.3.81,5.9,2.3.7.6.8,1.3.3,1.8-.49.5-1.28.51-1.78.02,0,0-.01-.01-.02-.02-2.37-2.2-6.03-2.2-8.4,0-.7.6-1.3.6-1.8.1s-.4-1.2.2-1.8c1.54-1.4,3.52-2.22,5.6-2.3v-.1Z"/><path class="cls-7" d="m198.72,183.02c1.33,0,2.61.51,3.6,1.4.48.39.61,1.07.3,1.6h0c-.38.5-1.09.59-1.58.21,0,0-.01,0-.02-.01h0c-1.15-1.08-2.95-1.08-4.1,0-.33.44-.96.53-1.4.2-.08-.06-.14-.12-.2-.2l-.1-.1c-.39-.52-.29-1.26.23-1.65.02-.02.04-.03.07-.05h0c.95-.89,2.2-1.39,3.5-1.4h-.3Z"/><path class="cls-1" d="m219.32,208.02c-1.5-5.3,3.3-16.5-4.9-17.2h-31c-8.7.2-3.9,11.8-5.4,17.2v6.7c1.5,5.3-3.2,16.1,4.6,17.2h32c7.9-1,3.2-12,4.7-17.2v-6.7Z"/><circle class="cls-3" cx="198.72" cy="195.62" r="45"/><path d="m175.03,178.02l-1.2,2.2-5.7-3.2,2.7,4.8v.3l-5.7.2,5.7,3.2-1.2,2.2-9.8-5.5,1.2-2.2,5.8-.2-2.9-5.1,1.2-2.2,9.8,5.5h.1Z"/><path d="m172.82,174.82c-1.55-1.71-1.42-4.35.29-5.9.04-.03.07-.06.11-.1,1.77-1.54,4.45-1.36,6,.4,1.55,1.71,1.42,4.35-.29,5.9-.04.03-.07.06-.11.1-1.77,1.54-4.45,1.36-6-.4Zm4.6-4c-.69-.72-1.84-.75-2.56-.06-.72.69-.75,1.84-.06,2.56.68.71,1.79.75,2.51.1.74-.58.87-1.66.28-2.4-.06-.07-.12-.14-.18-.2Z"/><path d="m185.22,158.32l4.6,10.2-2.2,1-.3-.7c-.28.88-.94,1.58-1.8,1.9-1.97.85-4.25-.06-5.1-2.03-.04-.09-.07-.18-.1-.27-1.04-1.91-.33-4.3,1.59-5.34.04-.02.07-.04.11-.06.82-.38,1.75-.41,2.6-.1l-1.6-3.6,2.2-1Zm.8,7.5c-.49-.92-1.62-1.27-2.54-.78-.92.49-1.27,1.62-.78,2.54.46.87,1.52,1.24,2.42.84.95-.41,1.38-1.51.97-2.46-.02-.05-.04-.09-.07-.14Z"/><path d="m194.62,165.82c.58.02,1.12-.29,1.4-.8l2.1.8c-.63,1.23-1.85,2.04-3.23,2.13-2.26.47-4.47-.98-4.94-3.24-.02-.12-.04-.24-.06-.36-.38-2.25,1.13-4.38,3.37-4.77.08-.01.15-.02.23-.03,2.18-.34,4.23,1.15,4.57,3.34.01.09.02.18.03.26v1l-5.6.8c.4.75,1.3,1.09,2.1.8l.03.07Zm1.1-3.1c-.29-.76-1.11-1.19-1.9-1-.81.08-1.46.7-1.6,1.5l3.4-.5h.1Z"/><path d="m211.89,164.52l-1,4.8-2.3-.5,1-4.6c.2-.8-.1-1.4-.9-1.5s-1.3.3-1.5,1.2l-.9,4.4-2.3-.5,1-4.6c.2-.8-.1-1.4-.9-1.5s-1.3.3-1.5,1.2l-.9,4.4-2.3-.5,1.7-7.8,2.3.5-.2.7c.63-.56,1.5-.75,2.3-.5.83.14,1.52.71,1.8,1.5.69-.58,1.62-.8,2.5-.6,1.8.4,2.7,1.9,2.3,3.9h-.2Z"/><path d="m214.62,165.02l5.2,3.1-1.2,2-5.2-3.1,1.2-2Z"/><path d="m225.53,176.72c-1.43,1.45-3.76,1.46-5.2.03-.11-.1-.2-.21-.3-.33-1.24-1.13-1.68-2.89-1.13-4.47l2.5.7c-.38.67-.21,1.52.4,2,.45.6,1.3.73,1.9.28.03-.02.07-.05.1-.08.5-.5.6-1.2-.2-2l-.4-.4.3-1.7,3.3-.4-2.9-2.9,1.7-1.7,5.1,5.1-1.5,1.5-3.1.4c.7,1.27.5,2.85-.5,3.9l-.07.07Z"/><path d="m233.22,187.12c-2.54,1.42-5.75.51-7.17-2.03-.08-.15-.16-.31-.23-.47-1.46-2.84-.34-6.34,2.5-7.8,2.84-1.46,6.34-.34,7.8,2.5h0c.92,1.73.89,3.81-.1,5.5l-2.1-1.4c.5-.94.5-2.06,0-3-.78-1.64-2.74-2.34-4.38-1.56-.04.02-.08.04-.12.06-1.61.73-2.32,2.63-1.59,4.24.06.13.12.25.19.36.46,1.13,1.58,1.85,2.8,1.8l-1.3-2.7,2-1,2.5,5-.9.4.1.1Z"/><path d="m191.03,208.82c1.17.36,2.21,1.06,3,2,.76.97,1.15,2.17,1.1,3.4.09,1.87-.68,3.68-2.1,4.9-1.45,1.14-3.25,1.74-5.1,1.7-1.51.07-3.01-.31-4.3-1.1-1.3-.7-2.27-1.89-2.7-3.3l4.4-2.5c.26,1.26,1.42,2.12,2.7,2,1.4,0,1.3-.2,1.6-.5.72-.61.8-1.69.19-2.41-.06-.07-.12-.13-.19-.19-.46-.34-1.03-.52-1.6-.5h-1.13l-1.9-2.8,3.1-3.8h-6.6v-4.77h12.7v3.9l-3.3,4,.13-.03Z"/><path d="m216.89,209.22v2c.25,5.11-3.69,9.45-8.8,9.7-.3.01-.6.01-.9,0-2.79.07-5.48-.98-7.5-2.9-1.92-1.89-2.97-4.5-2.9-7.2-.03-2.72,1.01-5.34,2.9-7.3,1.91-1.97,4.56-3.06,7.3-3,1.75-.16,3.51.26,5,1.2,1.47.77,2.71,1.91,3.6,3.3l-4.2,2.4c-.44-.62-1.03-1.14-1.7-1.5-.8-.41-1.7-.61-2.6-.6-1.42-.04-2.79.5-3.8,1.5-1.02,1.04-1.56,2.45-1.5,3.9-.06,1.42.48,2.8,1.5,3.8,1.09,1.07,2.57,1.64,4.1,1.6,1.7,0,3.8-.9,4.5-2.6h-4.7v-4.3h9.7Z"/><line class="cls-6" x1="199.7" y1="248.41" x2="200.2" y2="281.19"/><line class="cls-5" x1="199.7" y1="248.41" x2="200.04" y2="270.43"/><polygon class="cls-19" points="192.52 268.35 200.2 281.19 207.48 268.13 192.52 268.35"/><circle class="cls-4" cx="200" cy="338.57" r="45"/><path d="m165.3,335.07c-2.5-.5-4-2.8-3.4-5.3.3-1.5,1.4-2.7,2.7-3.2l.6,1.9c-.7.2-1.3.9-1.5,1.7-.3,1.5.5,2.7,2,3,1.5.3,2.7-.4,3-1.9.2-.8,0-1.7-.6-2.2l1.3-1.4c1,1,1.5,2.5,1.2,4-.6,2.5-2.8,3.9-5.3,3.4Z"/><path d="m168.7,326.57c-1.6-.8-2.2-2.7-1.4-4.4.8-1.6,2.7-2.3,4.3-1.5s2.2,2.7,1.4,4.4c-.8,1.6-2.7,2.3-4.3,1.5Zm2.1-4.2c-.8-.4-1.6,0-1.9.6-.4.7-.1,1.5.7,1.9s1.6,0,1.9-.6c.4-.7.1-1.5-.7-1.9Z"/><path d="m177.9,312.27l2.8,2.5-1.2,1.4-2.7-2.4c-.5-.4-.9-.5-1.3,0s-.3,1,.2,1.5l2.6,2.3-1.2,1.4-2.7-2.4c-.5-.4-.9-.5-1.3,0s-.3,1,.2,1.5l2.6,2.3-1.2,1.4-4.5-4.1,1.2-1.4.4.4c-.1-.5,0-1.1.6-1.7.5-.5,1.1-.7,1.7-.6-.1-.6,0-1.2.6-1.9.9-1,2.3-1,3.4,0l-.2-.2Z"/><path d="m183,306.17l3.3,5.2-1.6,1-.3-.5c0,.6-.4,1.1-1.1,1.6-1,.7-2.4.5-3.3-.9l-2-3.2,1.6-1,1.9,3c.4.6,1,.7,1.5.4.6-.4.8-.9.3-1.7l-1.8-2.8,1.6-1-.1-.1Z"/><path d="m191.4,305.47l1.3,3.5-1.7.6-1.2-3.3c-.3-.7-.8-.9-1.4-.7-.6.2-.9.8-.7,1.6l1.1,3.2-1.7.6-2.1-5.8,1.7-.6.2.5c.2-.5.6-1,1.4-1.3,1.2-.4,2.5,0,3,1.6l.1.1Z"/><path d="m192,301.27c-.1-.6.3-1.2.9-1.3s1.2.3,1.3.9c.1.6-.3,1.2-.9,1.3-.6.1-1.2-.3-1.3-.9Zm.5,1.6l1.8-.3,1.1,6-1.8.3-1.1-6Z"/><path d="m196.1,305.27c0-1.8,1.3-3.3,3.1-3.3,1.2,0,2.3.6,2.8,1.5l-1.6,1c-.2-.4-.7-.7-1.2-.7-.8,0-1.4.6-1.3,1.5,0,.8.6,1.4,1.4,1.4.5,0,1-.3,1.2-.7l1.6.9c-.5,1-1.5,1.6-2.7,1.7-1.9,0-3.3-1.3-3.3-3.1v-.2Z"/><path d="m209.7,303.27l-1.1,6-1.8-.3v-.6c-.4.4-1,.6-1.8.4-1.6-.3-2.6-1.9-2.3-3.7.3-1.8,1.9-2.9,3.5-2.7.8.1,1.3.5,1.7,1.1v-.6c.1,0,1.9.3,1.9.3l-.1.1Zm-2.4,2.7c.2-.9-.3-1.6-1.2-1.7-.8-.2-1.5.3-1.7,1.2s.3,1.6,1.2,1.7c.8.2,1.5-.3,1.7-1.2Z"/><path d="m213.2,306.47l-.8,2c-.2.5.2.7,1,1l-.6,1.6c-2.3-.6-2.7-1.6-2.1-3.2l.8-2-.9-.4.6-1.6.9.4.4-1.1,1.9.2-.6,1.6,1.2.5-.6,1.6-1.2-.5v-.1Z"/><path d="m216.4,305.97l1.6.9-2.9,5.4-1.6-.9,2.9-5.4Zm.6-1.5c.3-.5,1-.7,1.5-.5.5.3.7,1,.5,1.5-.3.5-1,.7-1.5.5-.5-.3-.7-1-.5-1.5Z"/><path d="m217.7,310.07c1.1-1.4,3.1-1.7,4.5-.6,1.4,1.1,1.7,3.1.6,4.5-1.1,1.5-3.1,1.7-4.5.6s-1.7-3.1-.6-4.5Zm3.7,2.8c.5-.7.4-1.5-.2-2s-1.5-.4-2,.3-.4,1.5.2,2,1.5.4,2-.3Z"/><path d="m228.1,318.97l-2.9,2.4-1.2-1.4,2.7-2.2c.6-.5.6-1.1.2-1.5-.4-.5-1-.6-1.7,0l-2.6,2.1-1.2-1.4,4.7-3.9,1.2,1.4-.4.4c.6,0,1.2.2,1.7.9.8,1,.8,2.3-.5,3.4v-.2Z"/><path d="m230.7,325.97c-1.7.9-3.2,0-4-1.4-.6-1.2-.6-2.5.2-3.5l1.6,1c-.4.4-.5.9-.2,1.6.4.7.9.8,1.4.6s.7-.8.3-1.5l-.2-.4.6-1.2,2.5.5-1.5-2.8,1.6-.9,2.6,4.9-1.4.7-2.4-.4c.2,1.1-.2,2.2-1.3,2.7l.2.1Z"/><path d="m234.5,335.07c-2.6.6-4.5-.8-5.1-3.2-.6-2.6.9-5,3.3-5.5,2.4-.6,4.8.9,5.4,3.4.4,1.6-.1,3.1-1.1,4.1l-1.3-1.4c.5-.5.7-1.3.5-2.3-.3-1.4-1.6-2.2-3.1-1.9-1.4.3-2.2,1.6-1.9,3.2.3,1.1.9,1.7,1.8,1.8l-.5-2.2,1.7-.4,1,4.2-.7.2Z"/><path class="cls-1" d="m212.8,326.57c-8.5-.2-17.8-.2-26.3,0-14.8,1.9-22,20.9-11.6,31.8,2.2,3.3-1.6,9.5,2.3,11.8,3.3,1,5.2-3.4,7.4-5.1,9.2-1,20.3.5,29.8-.5,22.1-2.9,20.7-37.2-1.6-38.2v.2Z"/><path d="m193,343.87c1.1.4,2.1,1,2.8,1.8s1,1.9,1,3.1c0,1.9-.6,3.4-1.9,4.4-1.3,1-2.8,1.6-4.7,1.6s-2.8-.3-3.9-1c-1.1-.7-2-1.7-2.5-3l4-2.3c.4,1.2,1.2,1.9,2.4,1.9s1.1-.2,1.5-.5c.3-.3.5-.7.5-1.2s-.2-.9-.5-1.2-.8-.4-1.5-.4h-1l-1.8-2.6,2.9-3.5h-6v-4.4h11.6v3.6l-3,3.7h.1Z"/><path d="m216.5,344.17v1.8c0,2.6-.8,4.7-2.5,6.4-1.6,1.6-3.8,2.4-6.4,2.4s-5.1-.9-6.9-2.7c-1.8-1.8-2.7-4-2.7-6.6s.9-4.8,2.7-6.6,4-2.7,6.6-2.7,3.2.4,4.6,1.1c1.4.7,2.5,1.7,3.2,3l-3.9,2.2c-.4-.6-.9-1-1.6-1.3-.7-.3-1.5-.5-2.3-.5-1.4,0-2.6.5-3.5,1.4s-1.4,2.1-1.4,3.5.4,2.5,1.3,3.5c.9,1,2.1,1.4,3.8,1.4s3.4-.8,4.1-2.3h-4.3v-3.9h9l.2-.1Z"/></svg>