<?xml version="1.0" encoding="UTF-8"?><svg id="Layer_1" xmlns="http://www.w3.org/2000/svg" viewBox="0 0 400 400"><defs><style>.cls-1{stroke:#a5262d;}.cls-1,.cls-2,.cls-3{stroke-width:4px;}.cls-1,.cls-2,.cls-3,.cls-4{stroke-miterlimit:10;}.cls-1,.cls-2,.cls-3,.cls-4,.cls-5{fill:none;}.cls-6{fill:#435256;}.cls-7{fill:#a7b4b9;}.cls-2{stroke:#0018c6;}.cls-8{fill:#cbcbcb;}.cls-9{fill:#a5c2db;}.cls-10{fill:#f2a745;}.cls-11{fill:#fcc472;}.cls-12{fill:#2d3b3d;}.cls-3{stroke:#c000e2;}.cls-13{fill:#f15a24;}.cls-14{fill:#fbc372;}.cls-15{fill:#bacce9;}.cls-16{fill:#444b66;}.cls-17{fill:#c7c7c7;}.cls-18{fill:#555a6e;}.cls-19{fill:#f8d77c;}.cls-20{fill:#463c4b;}.cls-21{fill:#a5c3db;}.cls-22{fill:#bdbdbd;}.cls-23{fill:#d3e4ee;}.cls-24{fill:#ecf5fe;}.cls-25{fill:#c69c6d;}.cls-26{fill:#6bc048;}.cls-27{fill:#2489c4;}.cls-4{stroke:#231f20;stroke-width:2px;}.cls-28{fill:#c6ecf9;}.cls-29{fill:#fbbd41;}.cls-30{fill:#3d435c;}.cls-31{fill:#01b6a0;}.cls-32{fill:#f0f1ef;}.cls-33{fill:#58d4fc;}.cls-34{fill:#d6e5ef;}.cls-35{fill:#b9cce9;}.cls-36{fill:#2487c3;}.cls-37{fill:#f0f1f0;}.cls-38{fill:#aaa;}.cls-39{fill:#484645;}.cls-40{fill:#c6ecfa;}.cls-41{fill:#2387c3;}.cls-42{fill:#fdc472;}.cls-43{fill:#2487c2;}.cls-44{fill:#f1f1f1;}.cls-45{fill:#454c67;}.cls-46{fill:#2387c2;}.cls-47{fill:#c6d8de;}.cls-48{fill:#edcd67;}.cls-49{fill:#c4d8dd;}.cls-50{fill:#559a38;}.cls-51{fill:#d7e1f2;}.cls-52{fill:#a4c2db;}.cls-53{fill:#cad9df;}.cls-54{fill:#231f20;}.cls-55{fill:#c7d9de;}.cls-56{fill:#c5d8de;}.cls-57{fill:#fccc07;}.cls-58{fill:#edcb61;}.cls-59{fill:#f99e3d;}.cls-60{fill:#6e6b87;}</style></defs><polygon class="cls-54" points="152.55 142.43 167.33 144.76 161.96 130.8 152.55 142.43"/><line class="cls-5" x1="199.75" y1="109.71" x2="200.25" y2="142.49"/><line class="cls-4" x1="199.75" y1="109.71" x2="200.08" y2="131.73"/><polygon class="cls-54" points="192.58 129.65 200.25 142.49 207.54 129.43 192.58 129.65"/><line class="cls-5" x1="118.67" y1="105.45" x2="167.33" y2="144.75"/><line class="cls-4" x1="118.67" y1="105.45" x2="158.96" y2="137.99"/><line class="cls-5" x1="281.33" y1="105.45" x2="232.68" y2="144.75"/><line class="cls-4" x1="281.33" y1="105.45" x2="241.05" y2="137.99"/><polygon class="cls-54" points="238.05 130.8 232.68 144.75 247.46 142.43 238.05 130.8"/><circle class="cls-1" cx="309.97" cy="58.4" r="45"/><path d="m280.66,43.2c-2.78-2.42-3.08-6.64-.65-9.42.11-.13.23-.26.35-.38,1.53-1.71,3.84-2.51,6.1-2.1l-.7,3c-1.22-.24-2.47.17-3.3,1.1-1.42,1.64-1.24,4.12.4,5.54,1.54,1.33,3.83,1.27,5.3-.14.91-.88,1.26-2.19.9-3.4l2.9-.9c.92,3.67-1.3,7.39-4.97,8.31-2.29.58-4.73-.07-6.43-1.71l.1.1Z"/><path d="m292.16,34.5c-1.21-2.48-.18-5.48,2.31-6.68,2.48-1.21,5.48-.18,6.68,2.31,1.21,2.48.18,5.46-2.29,6.68-2.48,1.22-5.47.19-6.69-2.28,0,0,0-.01,0-.02Zm6.5-3.1c-.57-1.05-1.89-1.45-2.94-.88s-1.45,1.89-.88,2.94c.54,1.01,1.78,1.42,2.82.94,1.08-.48,1.57-1.74,1.09-2.82-.03-.06-.06-.12-.09-.18Z"/><path d="m313.47,28.4c.41,2.62-1.38,5.08-4,5.5-1.04.15-2.09-.14-2.9-.8l.5,4.7-2.8.3-1.5-13.2,2.8-.3v.9c.69-.86,1.7-1.4,2.8-1.5,2.63-.18,4.92,1.81,5.1,4.44,0,.02,0,.04,0,.06v-.1Zm-2.8.3c-.08-1.25-1.16-2.19-2.4-2.11-.03,0-.07,0-.1,0-1.21.08-2.12,1.13-2.03,2.34,0,.09.02.18.03.26.08,1.25,1.16,2.19,2.4,2.11.03,0,.07,0,.1,0,1.21-.08,2.12-1.13,2.03-2.34,0-.09-.02-.18-.03-.26h0Z"/><path d="m325.66,31.1c-.52,2.58-3.01,4.27-5.6,3.8-1.04-.24-1.94-.89-2.5-1.8l-1.1,4.6-2.8-.7,3.2-12.9,2.8.7-.2.9c.9-.55,1.99-.69,3-.4,2.53.76,3.97,3.43,3.21,5.96,0,.01,0,.02-.01.04v-.2Zm-2.8-.7c.27-1.22-.5-2.44-1.72-2.71-1.22-.27-2.44.5-2.71,1.72-.26,1.19.46,2.37,1.63,2.69,1.17.36,2.41-.3,2.77-1.47.02-.07.04-.15.06-.23h-.03Z"/><path d="m330.26,36.8c.57.35,1.24.49,1.9.4l1.2,2.4c-1.52.57-3.22.3-4.5-.7-2.7-1.8-3.2-4.7-1.6-7.1,1.17-2.5,4.14-3.58,6.65-2.42,2.5,1.17,3.58,4.14,2.42,6.65-.2.42-.45.82-.76,1.17-.2.3-.5.6-.7.9l-5.6-3.7c-.16.98.32,1.94,1.2,2.4h-.2Zm3.4-1.9c.37-.91-.02-1.96-.9-2.4-.77-.61-1.88-.57-2.6.1l3.4,2.3h.1Z"/><path d="m344.26,40.02l-2.4,2.1c-.6-1-2.1-2-3.5-.7l-3.2,2.8-1.9-2.1,7.2-6.2,1.9,2.1-1.3,1.1c1.18-.42,2.5-.06,3.3.9h-.1Z"/><rect class="cls-13" x="283.97" y="50.4" width="52" height="37" rx="2.9" ry="2.9"/><path class="cls-39" d="m301.26,81.2c-3.29.1-6.48-1.17-8.8-3.5-4.67-4.94-4.67-12.66,0-17.6,2.31-2.36,5.5-3.63,8.8-3.5,3.5,0,4.1.5,5.9,1.5,1.77.96,3.26,2.37,4.3,4.1l-5.2,3c-.48-.83-1.17-1.52-2-2-.92-.49-1.96-.73-3-.7-1.72-.07-3.38.59-4.6,1.8-1.18,1.23-1.8,2.9-1.7,4.6-.23,3.31,2.27,6.17,5.58,6.39.24.02.48.02.72,0,1.05.14,2.12-.11,3-.7.85-.45,1.55-1.15,2-2l5.2,3c-1.04,1.73-2.53,3.14-4.3,4.1-1.84,1.01-3.9,1.53-6,1.5h.1Z"/><path class="cls-39" d="m324.57,63.8h5.6v16.9h-5.6v-1.68c-1.1,1.47-2.86,2.3-4.7,2.2-1.72.12-3.39-.59-4.5-1.9-1.2-1.2-1.7-3-1.7-5.4v-10.12h5.6v9.4c-.06.74.19,1.46.7,2,.48.47,1.13.73,1.8.7.75.01,1.47-.28,2-.8.53-.65.78-1.47.7-2.3v-9h.1Z"/><circle class="cls-1" cx="90.03" cy="58.4" r="45"/><path d="m70.44,29.2c1.57,2.02,1.21,4.92-.8,6.5l-1.6,1.2,2.6,3.3-2.4,1.9-8.3-10.4,3.9-3.1c1.97-1.6,4.87-1.31,6.47.66,0,.01.02.02.03.04l.1-.1Zm-2.4,1.9c-.47-.71-1.43-.9-2.14-.43-.06.04-.11.08-.16.13l-1.6,1.22,2.1,2.7,1.6-1.2c.69-.56.79-1.58.23-2.27,0-.01-.02-.02-.03-.03v-.12Z"/><path d="m70.89,23.5l2.6-1.2,5.8,12.6-2.6,1.2-5.8-12.6Z"/><path d="m88.24,23.02l1.7,9.4-2.8.5-.2-.9c-.58.9-1.53,1.49-2.6,1.6-2.61.37-5.03-1.46-5.4-4.07,0,0,0-.02,0-.03-.62-2.51.92-5.04,3.43-5.66.06-.01.11-.03.17-.04,1.04-.24,2.13-.03,3,.6l-.2-.9,2.8-.5h.1Zm-2,5.2c-.14-1.2-1.22-2.06-2.42-1.93-.06,0-.12.02-.18.03-1.16.16-1.98,1.24-1.81,2.41.01.1.03.2.06.29.14,1.2,1.22,2.06,2.42,1.93.06,0,.12-.02.18-.03,1.17-.16,1.98-1.24,1.82-2.4-.01-.11-.04-.21-.07-.32v.02Z"/><path d="m98.74,30.7c-.3,2.2-2.3,2.9-4.3,2.6-1.73-.04-3.25-1.16-3.8-2.8l2.6-1.1c.14.73.76,1.26,1.5,1.3.7,0,1,0,1.1-.5.1-1-4.6-1.1-4.2-4.3.3-2.1,2.1-2.9,4.1-2.6,1.51.13,2.82,1.1,3.4,2.5l-2.6,1c-.16-.54-.64-.94-1.2-1-.5,0-.8,0-.9.4-.1,1.1,4.6,1,4.1,4.4l.2.1Z"/><path d="m104.44,28.7l-1.2,3.1c-.3.8.3,1.1,1.5,1.5l-.9,2.4c-3.6-1-4.2-2.4-3.3-4.9l1.2-3.2-1.4-.5,1-2.6,1.4.5.6-1.7,3,.2-.9,2.5,1.8.7-1,2.6-1.8-.7v.1Z"/><path d="m109.74,28.1l2.4,1.5-4.9,8.2-2.35-1.5,4.85-8.2Zm1.1-2.3c.47-.8,1.5-1.07,2.3-.6.8.47,1.07,1.5.6,2.3-.47.8-1.5,1.07-2.3.6-.78-.47-1.04-1.49-.56-2.28,0,0,0-.01.01-.02h-.05Z"/><path d="m111.44,34.6c1.78-2.01,4.86-2.2,6.87-.41.08.07.15.14.23.21,1.3,1.19,1.84,2.99,1.4,4.7l-2.8-.7c.21-.73-.02-1.51-.6-2-.92-.82-2.33-.73-3.15.19-.76.86-.74,2.17.05,3.01.53.59,1.36.79,2.1.5l.8,2.7c-1.7.51-3.54.05-4.8-1.2-2.02-1.89-2.12-5.05-.23-7.07.01-.01.02-.02.03-.03l.1.1Z"/><path class="cls-51" d="m113.41,54.63v.1h-1.6q-.68,0-.68.69v30.33c.02.44-.13.88-.42,1.21-.19.22-.49.25-.68.45h-10.68c0-.09,0-.18,0-.27l-1.23-5.36c-.72-3.12-1.43-6.23-2.15-9.35-1.05-4.55-2.11-9.09-3.16-13.64-.92-4-1.84-7.97-2.75-11.92h15c.23-.04.46.03.63.18v6.21c.02.73.59,1.32,1.32,1.37h3.78c.28,0,.38-.09.38-.36v-1.84c.12,0,.17.11.24.19l2,2.01Z"/><path class="cls-35" d="m113.41,86.32c-.39.8-1.26,1.25-2.14,1.1-.41-.02-.82-.02-1.23,0,.19-.2.49-.24.67-.45.29-.34.44-.77.42-1.21v-30.35q0-.69.69-.69h1.59v31.6Z"/><path class="cls-22" d="m69.78,46.78v-.9c-.16-.88.3-1.75,1.11-2.11h2c0,.07.04.14.1.19.6.38.92,1.08.82,1.78-.02.38-.02.75,0,1.13h-3.92l-.11-.09Z"/><path class="cls-38" d="m73.78,46.87v-1.13c.11-.7-.21-1.4-.81-1.78-.06-.05-.1-.12-.11-.19h2c.89.41,1.38,1.37,1.17,2.33v.77h-2.25Z"/><path class="cls-24" d="m99.35,87.41h-6.22c0-.06,0-.12,0-.18l-1.83-8-3.18-13.66c-1.07-4.62-2.14-9.24-3.23-13.86-.37-1.61-.73-3.22-1.1-4.83h6.22c.91,4,1.82,7.97,2.74,11.91,1.05,4.55,2.11,9.1,3.17,13.64.72,3.12,1.43,6.23,2.14,9.35.41,1.79.82,3.57,1.24,5.36.02.09.04.18.05.27Z"/><path class="cls-24" d="m105.65,47.02c.13.03.26.1.34.21l5,5c.05.05.1.11.14.18v1.83c0,.27-.1.36-.38.36h-3.78c-.72-.06-1.29-.64-1.32-1.37v-6.21Z"/><path class="cls-51" d="m83.82,46.88c.37,1.61.73,3.22,1.1,4.83,1.06,4.62,2.12,9.24,3.19,13.86l3.18,13.69,1.83,8c0,.06,0,.12,0,.18h-14.05v-3c0-.51-.27-.81-.71-.82s-.75.29-.75.82v3h-9.22c-.95.02-1.73-.74-1.75-1.69,0-.01,0-.03,0-.04v-37.11c-.01-.94.74-1.71,1.68-1.72.02,0,.05,0,.07,0h9.23v3c-.06.4.22.77.62.82.03,0,.06,0,.09,0,.46,0,.75-.29.75-.83v-3h4.74Zm-4.74,20.31v-1.55c0-.4-.33-.73-.73-.73-.4,0-.73.33-.73.73h0v3c-.04.39.24.74.64.78.04,0,.08,0,.11,0,.4,0,.72-.33.71-.73,0-.02,0-.04,0-.05,0-.47,0-.96,0-1.45Zm-1.47,6.14v1.55c0,.4.33.73.73.73.4,0,.73-.33.73-.73h0v-3.06c-.03-.41-.35-.73-.76-.76-.39,0-.7.31-.7.7,0,.02,0,.03,0,.05v1.52Zm0-12.41v1.5c-.02.41.29.77.71.79h0c.42-.05.74-.4.75-.82v-2.91c0-.55-.26-.83-.74-.83s-.71.29-.72.81c-.01.52,0,1,0,1.46Zm0-6.27v1.51c-.04.37.22.71.59.76.04,0,.08,0,.12,0,.39.03.72-.26.75-.64,0-.05,0-.09,0-.14v-2.92c.04-.38-.23-.73-.61-.78-.04,0-.08,0-.13,0-.45,0-.71.28-.72.8-.01.52,0,.94,0,1.41h0Zm1.47,25v-1.47c0-.52-.27-.8-.72-.81-.39-.02-.72.27-.74.65,0,.04,0,.08,0,.13v2.92c-.05.38.21.72.59.78.05,0,.09,0,.14,0,.46,0,.71-.29.72-.8s0-.94,0-1.42v.02Z"/><path class="cls-35" d="m79.07,46.89v3c0,.53-.29.84-.75.82s-.7-.31-.71-.82v-3h1.46Z"/><path class="cls-22" d="m69.89,87.42h3.93v1.19c.1.83-.39,1.62-1.18,1.9h-1.27c-.84.04-1.56-.61-1.6-1.46,0-.05,0-.1,0-.14v-1.41l.12-.08Z"/><path class="cls-38" d="m72.6,90.51c.78-.29,1.27-1.07,1.18-1.9v-1.19h2.25c.07.6.07,1.21,0,1.81-.13.78-.82,1.34-1.61,1.29h-1.82Z"/><path class="cls-35" d="m77.62,87.41v-3c0-.54.29-.84.75-.83.4,0,.72.34.72.74,0,.03,0,.06,0,.09v3h-1.46Z"/><path class="cls-17" d="m69.89,46.87h-.09s0-.06,0-.09l.09.09Z"/><path class="cls-17" d="m69.89,87.42l-.07.09s0-.06,0-.09h.07Z"/><path class="cls-15" d="m79.08,67.19v1.46c0,.4-.33.73-.73.73-.4,0-.73-.33-.73-.73h0v-3c-.04-.39.25-.74.64-.78.02,0,.05,0,.07,0,.4-.02.73.29.75.69,0,.03,0,.06,0,.09,0,.49,0,1.03,0,1.54Z"/><path class="cls-35" d="m77.62,73.33v-1.5c-.03-.38.25-.71.63-.75.02,0,.05,0,.07,0,.4.03.72.36.75.76v3.06c.03.37-.24.7-.62.74-.04,0-.08,0-.11,0-.38.02-.7-.27-.72-.66,0-.03,0-.07,0-.1,0-.51,0-1.03,0-1.55Z"/><path class="cls-35" d="m77.62,60.92v-1.46c0-.52.26-.8.71-.8s.74.27.74.82v2.92c0,.42-.33.77-.75.81-.41-.02-.73-.37-.71-.79h0c0-.5.01-1,.01-1.5Z"/><path class="cls-35" d="m77.62,54.65v-1.41c0-.52.26-.8.72-.8.38-.03.71.26.73.64,0,.05,0,.09,0,.14v2.92c0,.4-.33.73-.73.73-.4,0-.73-.33-.73-.73h0c-.01-.46,0-.98,0-1.49Z"/><path class="cls-35" d="m79.08,79.63v1.39c0,.51-.27.8-.72.8-.38.03-.71-.26-.73-.64,0-.05,0-.09,0-.14v-2.92c-.04-.38.23-.73.61-.78.04,0,.08,0,.13,0,.45,0,.7.29.71.81v1.48Z"/><circle class="cls-1" cx="199.89" cy="58.4" r="45"/><path d="m173.79,42.8l1-3c1.15.63,2.58.43,3.5-.5,1.1-1,1-1.7.7-2.1-.6-.6-1.4-.4-3.4.6s-4.1,1.5-5.9-.5-1.1-4.7.7-6.3c1.58-1.5,3.91-1.9,5.9-1l-1,3c-.95-.52-2.13-.36-2.9.4-.8.7-.8,1.4-.4,1.8s1,.6,3-.4,4.3-1.9,6.2.3c1.8,2,1.2,4.7-1.1,6.7-2.3,2-4.5,2.1-6.5,1.1l.2-.1Z"/><path d="m178.79,26.9c-.44-.88-.08-1.96.8-2.4.88-.44,1.96-.08,2.4.8.44.88.08,1.96-.8,2.4h0c-.89.39-1.92.04-2.4-.8Zm1.5,2.3l2.7-1.4,4.5,8.9-2.7,1.4-4.5-8.9Z"/><path d="m184.59,22.2l2.9-.9,4.5,13.9-2.9.9-4.5-13.9Z"/><path d="m191.19,22.3c-.16-.99.51-1.93,1.5-2.09.99-.16,1.93.51,2.09,1.5.16.99-.5,1.92-1.49,2.09-.98.17-1.92-.49-2.1-1.47,0,0,0-.02,0-.03Zm.7,2.6l3-.5,1.6,9.9-3,.5-1.6-9.9Z"/><path d="m197.89,28.9c.13-2.85,2.55-5.06,5.41-4.92.1,0,.2.01.29.02,1.86.09,3.52,1.21,4.3,2.9l-2.7,1.3c-.53-1.13-1.88-1.62-3.01-1.09-.74.35-1.24,1.07-1.29,1.89-.16,1.22.7,2.33,1.92,2.48.06,0,.12.01.18.02.8.07,1.58-.31,2-1l2.5,1.7c-1.02,1.56-2.84,2.41-4.7,2.2-2.88-.17-5.08-2.65-4.91-5.53,0-.06,0-.11.01-.17v.2Z"/><path d="m208.69,29.9c1.13-2.68,4.22-3.94,6.9-2.81,2.68,1.13,3.94,4.22,2.81,6.9-1.13,2.68-4.22,3.94-6.9,2.81,0,0,0,0,0,0-2.66-1.09-3.94-4.14-2.84-6.8.01-.03.03-.07.04-.1Zm7,2.9c.53-1.17.02-2.54-1.14-3.08-.02,0-.04-.02-.06-.02-1.11-.5-2.42,0-2.92,1.11-.03.06-.05.13-.08.19-.56,1.1-.11,2.45.99,3.01.07.03.14.06.21.09,1.11.5,2.42,0,2.92-1.11.03-.06.05-.13.08-.19Z"/><path d="m228.19,41.22l-4.2,4.5-2.2-2,3.9-4.2c.69-.6.76-1.65.16-2.34-.05-.06-.1-.11-.16-.16-.72-.71-1.87-.7-2.57.02-.08.09-.16.18-.23.28l-3.7,4-2.2-2,6.8-7.4,2.2,2-.6.7c1.07-.18,2.17.19,2.9,1,1.5,1.4,1.8,3.6,0,5.6h-.1Z"/><rect class="cls-25" x="172.89" y="49.22" width="52" height="37" rx="2.9" ry="2.9"/><path class="cls-39" d="m195.19,80.02c-2.18.11-4.34-.45-6.2-1.6-1.58-1.02-2.78-2.53-3.4-4.3l5.2-3c.69,1.97,2.62,3.24,4.7,3.1,2.3,0,2.8-.5,2.8-1.6s-.5-1.2-1.6-1.7c-.97-.38-1.98-.68-3-.9-1.91-.44-3.66-1.37-5.1-2.7-1.32-1.19-2.02-2.93-1.9-4.7-.03-2.02.81-3.95,2.3-5.3,1.64-1.39,3.75-2.11,5.9-2,1.87-.07,3.71.42,5.3,1.4,1.54.96,2.76,2.35,3.5,4l-5.1,3c-.5-1.61-2.02-2.67-3.7-2.6-1.7,0-1.3.1-1.6.4-.36.25-.59.66-.6,1.1.05.54.34,1.02.8,1.3,1,.59,2.08,1.03,3.2,1.3,1.1.4,2,.7,2.8,1,.8.34,1.56.74,2.3,1.2.78.55,1.43,1.26,1.9,2.1.41.95.61,1.97.6,3,.11,2.1-.83,4.12-2.5,5.4-1.87,1.4-4.17,2.11-6.5,2l-.1.1Z"/><path class="cls-39" d="m211.39,60.3c-.6.63-1.43.99-2.3,1-1.79.03-3.27-1.4-3.31-3.19-.02-.91.35-1.78,1.01-2.41.61-.6,1.44-.92,2.3-.9.85,0,1.68.32,2.3.9.63.6.99,1.43,1,2.3.02.88-.35,1.72-1,2.3Zm-5.5,18.92v-17h6v17h-6Z"/><line class="cls-5" x1="199.75" y1="244.68" x2="200.25" y2="277.45"/><line class="cls-4" x1="199.75" y1="244.68" x2="200.09" y2="266.69"/><polygon class="cls-54" points="192.57 264.62 200.25 277.45 207.53 264.39 192.57 264.62"/><line class="cls-5" x1="112.18" y1="279.72" x2="160.82" y2="240.41"/><line class="cls-4" x1="120.55" y1="272.95" x2="160.82" y2="240.41"/><polygon class="cls-54" points="117.55 265.76 112.18 279.72 126.95 277.39 117.55 265.76"/><line class="cls-5" x1="287.82" y1="279.72" x2="239.18" y2="240.41"/><line class="cls-4" x1="279.45" y1="272.95" x2="239.18" y2="240.41"/><polygon class="cls-54" points="273.05 277.39 287.82 279.72 282.45 265.76 273.05 277.39"/><circle class="cls-3" cx="328.15" cy="341.6" r="45"/><path d="m285.85,343.9l.5-2.6,8.1-.6-7.4-3.4.3-2,8.1-.8-7.4-3.2.5-2.6,10.5,4.9-.5,2.9-6.8.7,6.2,2.9-.5,2.9-11.6,1.2v-.3Z"/><path d="m297.15,320.2l6.9,4.1-1.2,2.1-.6-.4c.3.8.2,1.6-.4,2.5-1.1,1.8-3.5,2.4-5.6,1.1-2.1-1.2-2.8-3.6-1.7-5.4.5-.9,1.3-1.4,2.1-1.6l-.6-.4,1.2-2.1-.1.1Zm2.2,4.1c-1-.6-2.1-.3-2.6.6-.6,1-.3,2,.7,2.6s2.1.3,2.6-.6c.6-1,.3-2-.7-2.6Z"/><path d="m302.95,317.4l2,2c.5.5,1,.1,1.6-.7l1.6,1.5c-2,2.5-3.3,2.5-4.9.9l-2-2-.9.9-1.6-1.6.9-.9-1.1-1.1,1.2-2.2,1.6,1.6,1.2-1.2,1.6,1.6-1.2,1.2Z"/><path d="m306.05,316.6c-1.3-2-.8-4.5,1.2-5.9,1.3-.9,2.9-.9,4.1-.3l-1.1,2.2c-.5-.3-1.2-.3-1.8.1-.9.6-1.1,1.6-.5,2.5s1.7,1.1,2.5.5c.6-.4.9-1,.8-1.6l2.4-.2c.1,1.4-.6,2.9-1.9,3.7-2,1.3-4.5.8-5.9-1.2l.2.2Z"/><path d="m320.85,308.5l1.5,4.7-2.3.7-1.4-4.3c-.3-.9-1-1.2-1.8-1-.8.3-1.3,1-.9,2l1.4,4.2-2.3.7-3.5-10.6,2.3-.7,1.2,3.8c.2-.7.9-1.3,1.9-1.6,1.5-.5,3.2.2,3.9,2.2v-.1Z"/><path d="m323.05,307.2l6.1-.3v2.3c.1,0-5.9.3-5.9.3v-2.3h-.2Z"/><path d="m331.85,305l2.4.3-1,7.9-2.4-.3,1-7.9Zm0-2.2c.1-.8.8-1.3,1.6-1.2.8,0,1.3.8,1.2,1.6,0,.8-.8,1.3-1.6,1.2s-1.3-.8-1.2-1.6Z"/><path d="m343.25,311.1l-1.6,4.6-2.3-.8,1.5-4.3c.3-.9-.1-1.6-.8-1.8-.8-.3-1.6,0-1.9,1.1l-1.4,4.1-2.3-.8,2.6-7.6,2.3.8-.2.7c.6-.4,1.5-.5,2.5-.2,1.5.5,2.5,2.1,1.7,4.1l-.1.1Z"/><path d="m348.15,313.2l-1.5,2.4c-.4.6,0,1,1,1.5l-1.2,1.8c-2.8-1.4-3.1-2.7-1.9-4.6l1.5-2.4-1.1-.7,1.2-1.9,1.1.7.8-1.3,2.4.7-1.2,1.9,1.4.9-1.2,1.9-1.4-.9h.1Z"/><path d="m351.25,320.7c.5.5,1,.7,1.5.7l.6,2.1c-1.3.2-2.6-.2-3.6-1.3-1.9-1.9-1.8-4.4-.1-6.1,1.7-1.7,4.2-1.7,6,0,1.6,1.7,1.6,4.2-.1,5.9-.2.2-.5.4-.7.6l-4-4c-.4.8,0,1.5.6,2.2l-.2-.1Zm3.1-1c.5-.8.2-1.6-.3-2.1-.6-.6-1.4-.8-2.1-.3l2.4,2.4Z"/><path d="m362.35,325.3l-2.3,1.4c-.4-.9-1.5-1.9-2.8-1.1l-3.1,1.9-1.3-2,6.8-4.2,1.3,2-1.2.7c1.1-.3,2.1.4,2.6,1.2v.1Z"/><path d="m362.75,335.8l-4.7,1.5-.8-2.3,4.3-1.4c.9-.3,1.2-1.1.9-1.8-.3-.8-1-1.2-2-.9l-4.1,1.4-.8-2.3,7.6-2.5.8,2.3-.7.2c.7.2,1.3.9,1.6,1.9.5,1.5-.2,3.2-2.2,3.9h.1Z"/><path d="m366.55,346.1l-8,.3v-2.4h.7c-.6-.5-1-1.3-1.1-2.4,0-2.1,1.7-3.9,4.1-4,2.4,0,4.3,1.6,4.3,3.7,0,1.1-.3,1.9-.9,2.4h.8v2.4h.1Zm-4.1-2.3c1.2,0,1.9-.9,1.9-2s-.8-1.9-2-1.8c-1.2,0-1.9.9-1.9,2s.8,1.9,2,1.8Z"/><path d="m369.65,349.7l-.4,2.4-11.5-2.1.4-2.4,11.5,2.1Z"/><path class="cls-26" d="m302.15,365.3v-28.8c0-.5.2-.6.7-.6h4.5v2c0,.5,0,.6.6.6h2.4c.4,0,.5,0,.5-.5v-2.1h3.4v2c0,.5,0,.6.6.6h2.4c.4,0,.5,0,.5-.5v-2.1h3.4v2c0,.5,0,.6.6.6h2.4c.4,0,.5,0,.5-.5v-2.1h7.8v4c0,.4,0,.6-.4.8-1,.6-1.5,1.8-1.2,2.9.4,1.4,1.8,2.2,3.2,1.8s2.2-1.8,1.8-3.2c-.2-.7-.6-1.2-1.2-1.6-.2-.1-.4-.2-.4-.6v-4.1h3.4v8.2c0,.5.2,1,.5,1.3l5.4,5.4c.3.3.3.5.2.8-.5,1.6.8,3.2,2.4,3.3,1.2,0,2.1-.6,2.6-2.1v7.3h-.8c-.6,0-.9.3-.9.9h-3.4v-.3c0-.5,0-.6-.6-.6h-2.4c-.3,0-.5,0-.5.4v2.6c0,.4.1.5.5.4h2.2q.8,0,.8-.9h3.5c0,.6.3.9.9.9h.6c-.2.9-1.3,1.7-2.3,1.7h-10.4c0-1.1-.5-1.9-1.5-2.3-.3-.1-.3-.3-.3-.5v-3.9c0-.7-.3-1-1-1h-8.5v-1.8h10c.4,0,.6,0,.8.4.5,1,1.8,1.5,2.9,1.2,1.4-.4,2.2-1.8,1.8-3.2-.2-.9-1-1.6-1.9-1.8-1.1-.3-2.3.2-2.9,1.2-.2.4-.4.4-.8.4h-10v-1.7h3q1.4,0,1.3-1.4c0-.3-.1-.4-.4-.4h-3.9v-1.8h3q1.4,0,1.3-1.4c0-.3-.1-.4-.4-.4h-3.9v-1.4c0-.3,0-.4-.3-.4h-1.4v-3q0-1.4-1.4-1.3c-.3,0-.4.1-.4.4v4h-1.8v-3q0-1.4-1.4-1.3c-.3,0-.4.1-.4.4v4h-1.8v-3q0-1.4-1.4-1.3c-.3,0-.4.1-.4.4v4h-1.8v-3q0-1.4-1.4-1.3c-.3,0-.4.1-.4.4v4h-1.4c-.3,0-.4,0-.3.4v1.4h-3q-1.4,0-1.3,1.4c0,.3.1.4.4.4h3.9v1.8h-3q-1.4,0-1.3,1.4c0,.3.1.4.4.4h3.9v1.8h-3q-1.4,0-1.3,1.4c0,.3.1.4.4.4h3.9v1.8h-3q-1.4,0-1.3,1.4c0,.3.1.4.4.4h3.9v1.4c0,.3,0,.4.3.4h1.4v4.3h-8.7l.6-.6Z"/><path class="cls-50" d="m302.15,365.3h28.6c0,.5.2,1,.5,1.5.6.9,1.7,1.3,2.8,1.1,1.2-.3,1.8-1.2,2-2.5h10.4c1.1,0,2.1-.8,2.3-1.7h1.6c.3,0,.4,0,.4-.4v-2.8c0-.3-.1-.4-.4-.4h-1.4v-23.7c0-.5,0-.6.6-.6h4.1c.5,0,.6,0,.6.6v33.5c0,.5-.1.6-.6.6h-4.2c-.3,0-.4,0-.4-.4-.3-1.8-1.7-3.1-3.5-3.1s-3.2,1.3-3.4,3.1c0,.3-.1.4-.4.3h-38.8c-.5,0-.6,0-.6-.6v-4.6l-.2.1Z"/><path class="cls-26" d="m348.95,336.4v15.4c-.7-1.8-1.5-2.2-3.5-1.9-.2,0-.3,0-.5-.2-1.8-1.8-3.5-3.5-5.3-5.3-.2-.1-.3-.3-.3-.6v-8h1.9c.5,0,.7.1.7.6.2,1.3,1,2.2,2.2,2.6,1.8.7,3.7-.3,4.4-2v-.1c0-.2.1-.3.2-.5h.2Z"/><path class="cls-32" d="m339.45,335.9v8c0,.2.1.4.3.6,1.8,1.8,3.5,3.5,5.3,5.3.1.1.2.3.5.2,2-.4,2.8.1,3.5,1.9v1c-.6,1.4-1.4,2.1-2.6,2.1-1.7,0-2.9-1.7-2.4-3.3.1-.4,0-.6-.2-.8-1.8-1.8-3.6-3.6-5.4-5.4-.4-.3-.6-.8-.5-1.3v-8.2h1.8l-.3-.1Zm6.9,17.3c.5,0,.9-.4.9-.8s-.4-.9-.8-.9c-.5,0-.9.4-.9.8h0c0,.5.4.9.8.9Z"/><path class="cls-37" d="m334.25,335.9v4.1c0,.4.2.4.4.6,1.2.7,1.7,2.3,1,3.5s-2.3,1.7-3.5,1c-.6-.3-1-.9-1.2-1.6-.3-1.1.2-2.3,1.2-2.9.4-.2.4-.4.4-.8v-3.9h1.8-.1Zm-.9,6.1c-.5,0-.9.4-.9.9s.4.9.9.9.9-.4.9-.9h0c0-.5-.4-.9-.9-.9h0Z"/><path class="cls-58" d="m307.35,337.6v-3.9c0-.3,0-.4.4-.4h2.2v3.3c0,.6-.3,1-1,1-.5,0-1.1,0-1.6,0Z"/><path class="cls-58" d="m314.35,337.6v-3.9c0-.3,0-.4.4-.4h2.2v3.3c0,.6-.3,1-1,1-.5,0-1.1,0-1.6,0Z"/><path class="cls-58" d="m321.25,337.6v-3.9c0-.3.1-.4.4-.4h2.2v3.3c0,.6-.3,1-1,1-.5,0-1.1,0-1.6,0Z"/><path class="cls-10" d="m314.35,337.6h1.6c.6,0,1-.3,1-1v-3.3h.1c.53,0,.8.23.8.7v4c0,.4-.1.5-.5.5h-2.4c-.5,0-.6-.2-.6-.6,0,0,0-.2,0-.3Z"/><path class="cls-10" d="m307.35,337.6h1.6c.6,0,1-.3,1-1v-3.3h.1c.53,0,.8.23.8.7v4c0,.4-.1.5-.5.5h-2.4c-.5,0-.6-.2-.6-.6v-.3Z"/><path class="cls-10" d="m321.25,337.6h1.6c.6,0,1-.3,1-1v-3.3h.1c.53,0,.8.23.8.7v4c0,.4-.1.5-.5.5h-2.4c-.5,0-.6-.2-.6-.6,0,0,0-.2,0-.3Z"/><path class="cls-50" d="m322.95,345.4h1.4c.3,0,.4,0,.3.4v14.9c0,.3,0,.4-.3.4h-14.9c-.3,0-.4,0-.3-.4v-14.9c0-.3,0-.4.3-.4h1.4s12.1,0,12.1,0Zm-10.4,10.4v1.3c0,.4.1.4.5.4h7.7c.4,0,.5-.1.5-.5v-6.5c0-.5.2-1.2-.1-1.6s-1.1,0-1.6,0h-6.5c-.3,0-.4,0-.4.4v6.5h-.1Z"/><path class="cls-37" d="m324.65,359.2v-1.7h8.5c.7,0,1,.3,1,1v3.9c0,1.3,0,.4.3.5,1,.5,1.4,1.3,1.5,2.3-.1,1.3-.8,2.2-2,2.5-1.1.3-2.2-.1-2.8-1.1-.3-.4-.4-.9-.5-1.5,0-1.1.5-1.9,1.5-2.3.2-.1.3-.3.3-.5v-2.6c0-.5,0-.6-.6-.6h-7.2v.1Zm9.5,6.1c0-.5-.4-.9-.9-.9s-.9.4-.9.9.4.9.9.9h0c.5,0,.8-.4.8-.9h.1Z"/><path class="cls-37" d="m324.65,355.8v-1.7h10c.4,0,.6,0,.8-.4.6-1,1.7-1.5,2.9-1.2,1.4.3,2.2,1.7,1.9,3.1-.2.9-.9,1.6-1.8,1.9-1.2.3-2.4-.2-2.9-1.2-.2-.4-.4-.4-.8-.4h-10l-.1-.1Zm13-1.7c-.5,0-.9.4-.9.9s.4.9.9.9.9-.4.9-.9h0c0-.5-.4-.8-.9-.8h0v-.1Z"/><path class="cls-8" d="m343.75,362.7c0,.6-.27.9-.8.9h-2.2c-.3,0-.5,0-.5-.4v-2.6c0-.4.1-.5.5-.4h2.4c.5,0,.7.1.6.6v2-.1Z"/><path class="cls-8" d="m348.95,360.1h1.4c.3,0,.4,0,.4.4v2.8c0,.3-.1.4-.4.4h-2.2c-.6,0-.9-.3-.9-.9v-1.7c0-.6.3-.9.9-.9h.9l-.1-.1Z"/><path class="cls-44" d="m322.95,345.4h-1.7v-4c0-.3,0-.4.4-.4q1.4,0,1.4,1.3v3l-.1.1Z"/><path class="cls-44" d="m309.05,347.1v1.7h-3.9c-.3,0-.4,0-.4-.4q0-1.4,1.3-1.4h3v.1Z"/><path class="cls-44" d="m324.65,348.8v-1.7h3.9c.3,0,.4,0,.4.4q0,1.4-1.3,1.4h-3v-.1Z"/><path class="cls-44" d="m309.05,350.6v1.7h-3.9c-.3,0-.4,0-.4-.4q0-1.4,1.3-1.4h3v.1Z"/><path class="cls-44" d="m324.65,352.3v-1.7h3.9c.3,0,.4,0,.4.4q0,1.4-1.3,1.4h-3v-.1Z"/><path class="cls-44" d="m309.05,354.1v1.7h-3.9c-.3,0-.4,0-.4-.4q0-1.4,1.3-1.4h3v.1Z"/><path class="cls-44" d="m309.05,357.5v1.7h-3.9c-.3,0-.4,0-.4-.4q0-1.4,1.3-1.4h3v.1Z"/><path class="cls-44" d="m312.55,345.4h-1.7v-4c0-.3,0-.4.4-.4q1.4,0,1.4,1.3v3l-.1.1Z"/><path class="cls-44" d="m316.05,345.4h-1.7v-4c0-.3,0-.4.4-.4q1.4,0,1.4,1.3v3l-.1.1Z"/><path class="cls-44" d="m310.85,361h1.7v4.3h-1.7v-4.3Z"/><path class="cls-44" d="m319.45,345.4h-1.7v-4c0-.3,0-.4.4-.4q1.4,0,1.4,1.3v3l-.1.1Z"/><path class="cls-44" d="m347.25,361v1.7h-3.5v-1.7h3.5Z"/><path class="cls-26" d="m324.65,359.2h7.2c.5,0,.6.2.6.6v2.6c0,.2,0,.4-.3.5-1,.5-1.4,1.3-1.5,2.3h-7.8v-4.3h1.4c.3,0,.4,0,.3-.4v-1.4l.1.1Z"/><path class="cls-26" d="m312.55,365.3v-4.3h1.8v4.3h-1.8Z"/><path class="cls-44" d="m314.35,365.3v-4.3h1.7v4.3h-1.7Z"/><path class="cls-26" d="m316.05,365.3v-4.3h1.8v4.3h-1.8Z"/><path class="cls-44" d="m317.75,365.3v-4.3h1.7v4.3h-1.7Z"/><path class="cls-44" d="m322.95,361v4.3h-1.7v-4.3h1.7Z"/><path class="cls-26" d="m321.25,361v4.3h-1.8v-4.3h1.8Z"/><path class="cls-48" d="m346.35,353.2c-.5,0-.9-.4-.9-.9s.4-.9.9-.9.9.4.9.9h0c0,.5-.4.8-.9.8v.1Z"/><path class="cls-48" d="m333.35,341.9c.5,0,.9.4.9.9s-.4.9-.9.9-.9-.4-.9-.9h0c0-.5.4-.9.9-.8h0v-.1Z"/><path class="cls-58" d="m312.55,355.8v-6.5c0-.3,0-.4.4-.4h6.5v4.1c0,1.7-1.1,2.8-2.8,2.8h-4.1Z"/><path class="cls-10" d="m312.55,355.8h4.1c1.7,0,2.8-1.1,2.8-2.8v-4.1c.6,0,1.3-.2,1.6,0s.1,1,.1,1.6v6.5c0,.4-.1.5-.5.5h-7.7c-.3,0-.5,0-.5-.4v-1.3h.1Z"/><path class="cls-48" d="m334.25,365.3c0,.5-.4.9-.8.9-.5,0-.9-.4-.9-.8,0-.5.4-.9.8-.9h0c.5,0,.9.4.9.8Z"/><path class="cls-48" d="m337.65,354c.5,0,.9.4.9.9s-.4.9-.9.9-.9-.4-.9-.9h0c0-.5.4-.9.9-.9Z"/><circle class="cls-3" cx="201.94" cy="341.6" r="45"/><path d="m169.14,339.1l-.7-2.3c.9-.2,1.7-.6,1.9-1.8.3-1.1-.1-1.5-.5-1.6-.6-.2-1,.4-1.8,1.8-.8,1.4-1.9,2.7-3.8,2.2-2-.5-2.7-2.4-2.3-4.2.4-1.7,1.5-2.8,3.2-3.2l.7,2.2c-.8.2-1.4.5-1.6,1.5-.2.7,0,1.2.5,1.3s.8,0,1.7-1.5c.8-1.4,1.8-3,4-2.5,2,.5,2.7,2.3,2.2,4.5-.5,2.1-1.9,3.3-3.5,3.5v.1Z"/><path d="m170.24,329.7c-1.9-1.1-2.6-3.5-1.5-5.4,1.1-1.9,3.5-2.6,5.4-1.5,1.9,1.1,2.6,3.5,1.5,5.4s-3.5,2.6-5.4,1.5Zm2.8-5c-.9-.5-1.9-.2-2.4.6s-.2,1.8.7,2.4c.9.5,1.9.2,2.4-.6s.2-1.8-.7-2.4Z"/><path d="m174.94,321.8c-1.6-1.6-1.7-4,0-5.6,1-1,2.5-1.4,3.7-1.1l-.5,2.2c-.6-.2-1.2,0-1.6.5-.7.7-.7,1.7,0,2.4.7.7,1.8.7,2.4,0,.5-.5.6-1.1.4-1.6l2.2-.6c.4,1.3,0,2.7-1,3.8-1.6,1.6-4,1.7-5.6,0Z"/><path d="m192.54,314.4l-1.3-.5c-.5.8-1.2,1.4-2.2,1.8-2,.9-3.9.4-4.7-1.4-.5-1.1-.4-2.4.3-3.4-.4-.3-.8-.7-1.1-1.3-.7-1.6,0-3.4,1.9-4.2,1.4-.6,2.9-.4,4.1.7l-1.4,1.9c-.5-.5-1.1-.8-1.7-.5-.5.2-.8.7-.6,1.2s.7.7,1.4,1l2.6,1.2c0-.5,0-1.1-.2-1.7l2.3.2c.1.8.1,1.6,0,2.4l1.8.8-1.3,1.7.1.1Zm-3.2-1.4l-2.6-1.1h-.1c-.2.4-.2.9,0,1.2.3.6.9.9,1.9.5.4-.2.6-.4.9-.6h-.1Z"/><path d="m208.44,312.9h-2.4c0-.1.3-6.2.3-6.2l-2.9,4.3h-.3l-2.5-4.6-.3,6.1h-2.4c0-.1.5-10.6.5-10.6h2.4c0,.1,2.6,4.9,2.6,4.9l3.1-4.5h2.4c0,.1-.5,10.6-.5,10.6Z"/><path d="m213.54,313c.6.2,1.2.2,1.5,0l1.3,1.6c-1,.7-2.3.8-3.6.3-2.4-.9-3.3-3.1-2.5-5.2s2.9-3.1,5.1-2.3c2,.8,3,2.9,2.2,5-.1.3-.2.6-.4.8l-5-1.9c0,.8.5,1.3,1.3,1.6l.1.1Zm2.3-2.1c0-.9-.4-1.4-1.1-1.7-.8-.3-1.5-.1-1.9.5l3,1.1v.1Z"/><path d="m228.44,319.6l-2.9,3.6-1.7-1.4,2.8-3.4c.5-.6.5-1.2,0-1.6-.6-.5-1.2-.3-1.8.3l-2.7,3.3-1.7-1.4,2.8-3.4c.5-.6.5-1.2,0-1.6-.6-.5-1.2-.3-1.8.3l-2.7,3.3-1.7-1.4,4.8-5.8,1.7,1.4-.4.5c.6-.2,1.3,0,2.1.6.7.6,1,1.3.9,2,.7-.2,1.5,0,2.3.6,1.3,1.1,1.4,2.8.2,4.2l-.2-.1Z"/><path d="m228.74,321.6c1.9-1.2,4.3-.6,5.5,1.3,1.2,1.9.6,4.3-1.3,5.5s-4.3.6-5.5-1.3c-1.2-1.9-.6-4.3,1.3-5.5Zm3,4.8c.9-.6,1.1-1.6.6-2.4-.5-.8-1.5-1.1-2.4-.5-.9.6-1.1,1.6-.6,2.4s1.5,1.1,2.4.5Z"/><path d="m238.64,332.8l-2.4.8c-.2-.9-1-2-2.4-1.6l-3.2,1.1-.7-2.1,7.1-2.5.7,2.1-1.3.4c1,0,1.8.7,2.1,1.6l.1.2Z"/><path d="m239.94,342.1l-7.5-1.6c-2.5-.5-3.6-1.7-3.7-3.8l2.1-.3c.1,1,.5,1.5,1.5,1.7l6.7-3.9.3,2.5-4.3,2.2,4.7.8.3,2.4h-.1Z"/><path class="cls-6" d="m192.84,376.7h-10.5c-1-.5-1.2-1.3-1.2-2.3v-26.8c0-.7.2-.9.9-1.1.5,0,.7-.4.7-.9v-3c0-.5-.2-.8-.7-.9-.8-.2-.9-.4-.9-1.1v-6.4c0-.7.3-1.5.8-2,2-1.9,3.9-3.9,5.9-5.9.5-.5,1.2-.8,2-.8h24.4v.2c.7.5.9,1.2.9,2-.6.2-.8.3-.8.9v6.5c0,.6.2.8.8.9v16.9c-.2-.5-.5-.8-1-.9h-26.3c-.8,0-1.2.4-1.2,1.3v16.2c0,.9.4,1.4,1.4,1.4h26c.7,0,1.2-.2,1.4-.9v3.8c0,1,0,2-1,2.6h-5.4c-.2-.2-.5-.4-.6-.7-.2-.4-.6-.6-1-.6h-12.5c-.5,0-.9,0-1.1.5-.2.3-.5.6-.8.8l-.2.3Zm9.1-44.8v-3.2c0-.6-.3-.9-.8-.9s-.7.4-.7.9v6.5h0c0,.6.3.9.8.9.4,0,.7-.3.7-.8v-3.3h0v-.1Zm4.7,0v-3.2c0-.6-.3-1-.8-1s-.8.4-.8,1v6.4c0,.6.3,1,.8,1s.8-.3.8-1v-3.1h0v-.1Zm4.7,0v-3.2c0-.6-.3-.9-.8-.9s-.8.4-.8,1v6.4c0,.6.3,1,.8,1s.8-.3.8-.9v-3.2h0v-.2Zm-18.8,0v-3.2c0-.6-.3-.9-.7-.9s-.8.3-.8.9v6.4c0,.6.3.9.7.9.5,0,.8-.3.8-.9v-3.2h0Zm4.7,0v-3.2c0-.6-.3-1-.8-.9s-.7.4-.7.9v6.4c0,.6.3.9.8.9s.7-.3.7-.9v-3.2h0Zm-11.4,2.1h0v1.3c0,.4.3.7.7.7s.7-.3.8-.7h0v-2.6c0-.4-.3-.8-.7-.8h0c-.4,0-.7.3-.8.8v1.3h0Z"/><path class="cls-12" d="m214.34,325.6h4.8c.9,0,1.6.7,1.6,1.6v4.7c0,.3-.1.6-.5.6-.5,0-.6.3-.6.8v10.1c0,.4.1.7.5.8.5,0,.6.4.6.8v29.6c0,1-.3,1.7-1.2,2.2h-5.2c.9-.6,1-1.6,1-2.6v-37.8c.5,0,.7-.4.7-1v-6.4c0-.5-.2-.9-.7-1,0-.8-.2-1.5-.9-2v-.2l-.1-.2Z"/><path class="cls-42" d="m186.64,369v-15.5c0-.9.4-1.3,1.2-1.3h22v15c0,1.6-.3,1.8-1.8,1.8h-21.5.1Z"/><path class="cls-59" d="m186.64,369h21.5c1.6,0,1.8-.3,1.8-1.8v-15h4.3c.6,0,.9.4,1,.9v17.1c-.2.7-.7.9-1.4.9h-26c-1,0-1.4-.4-1.4-1.4v-.7h.2Z"/><path class="cls-11" d="m215.34,327.8c.5.1.7.4.7,1v6.4c0,.5-.2.9-.7,1-.6-.1-.8-.3-.8-.9v-6.5c0-.6.2-.8.8-.9v-.1Z"/><path class="cls-11" d="m201.94,331.9v3.3c0,.5-.3.8-.7.8-.5,0-.8-.3-.8-.8h0v-6.6c0-.5.3-.9.7-.9s.8.3.8.9v3.3Z"/><path class="cls-11" d="m206.64,332v3.1c0,.6-.3,1-.8,1s-.8-.3-.8-1v-6.4c0-.6.3-1,.8-1s.8.4.8,1v3.3Z"/><path class="cls-11" d="m211.34,332v3.2c0,.6-.3,1-.8.9s-.8-.3-.8-1v-6.4c0-.6.3-1,.8-1s.7.4.8.9v3.4Z"/><path class="cls-11" d="m192.54,332v3.2c0,.6-.3.9-.8.9s-.7-.3-.7-.9v-6.4c0-.6.3-1,.8-.9s.7.4.7.9v3.2Z"/><path class="cls-11" d="m197.24,332v3.2c0,.6-.3.9-.7.9-.5,0-.8-.3-.8-.9v-6.4c0-.6.3-.9.7-.9s.8.3.8.9v3.2Z"/><path class="cls-14" d="m185.84,334.1v-1.3c0-.5.3-.8.8-.8.4,0,.8.3.8.8h0v2.6c0,.4-.3.7-.7.7h0c-.5,0-.7-.3-.7-.7v-1.3h-.2Z"/><circle class="cls-3" cx="71.85" cy="341.6" r="45"/><path d="m40.25,346.2l.6-1.1,1.6,1-.7,1.2c.4.5.8,1.1,1,1.8.7,2.4-.6,4.8-3.1,5.5-2.4.7-4.8-.7-5.5-3.1-.7-2.4.6-4.8,3.1-5.5,1-.3,2.1-.2,3,.2Zm.5,2.9l-.9,1.5-1.6-1,1-1.7c-.4-.1-.9-.1-1.4,0-1.5.4-2.1,1.8-1.8,3.1.4,1.3,1.7,2.1,3.1,1.7,1.5-.4,2.1-1.8,1.8-3.1,0-.2-.1-.4-.2-.6v.1Z"/><path d="m35.35,338.5h6.1v1.7h-.6c.5.3.8.9.8,1.8,0,1.2-.8,2.3-2.5,2.3h-3.8v-1.8h3.5c.8,0,1.1-.5,1.1-1.1,0-.7-.4-1.1-1.3-1.1h-3.3s0-1.8,0-1.8Z"/><path d="m36.85,330l6,1.3-.4,1.8h-.6c.4.4.5,1,.3,1.8-.3,1.6-2,2.6-3.8,2.2-1.8-.4-2.9-2-2.5-3.6.2-.8.6-1.3,1.1-1.6h-.6c0-.1.4-1.9.4-1.9h.1Zm2.6,2.4c-.9-.2-1.6.3-1.8,1.1s.3,1.5,1.1,1.7c.9.2,1.6-.3,1.8-1.1.2-.8-.3-1.5-1.1-1.7Z"/><path d="m42.25,323.5l3.4,1.6-.8,1.7-3.2-1.5c-.7-.3-1.2,0-1.5.5-.3.6-.1,1.2.7,1.6l3,1.4-.8,1.7-5.5-2.6.8-1.7.5.2c-.3-.5-.3-1.2,0-1.9.5-1.1,1.8-1.7,3.3-1h.1Z"/><path d="m44.05,320l1.8,1.3c.4.3.7,0,1.2-.7l1.4,1c-1.2,2.1-2.2,2.2-3.6,1.2l-1.8-1.3-.6.8-1.4-1,.6-.8-.9-.7.6-1.8,1.4,1,.7-1,1.4,1-.7,1h-.1Z"/><path d="m48.75,312.4l4.2,4.4-1.3,1.3-.4-.4c0,.6-.2,1.2-.8,1.8-.9.9-2.3.9-3.4-.3l-2.6-2.7,1.3-1.3,2.4,2.5c.5.6,1.1.5,1.5,0,.5-.5.6-1.1,0-1.7l-2.3-2.4,1.3-1.3.1.1Z"/><path d="m59.95,308.5l1.8,3.3-1.6.9-1.7-3.2c-.3-.5-.7-.8-1.3-.5-.5.3-.6.8-.3,1.5l1.6,3.1-1.6.9-1.7-3.2c-.3-.5-.7-.8-1.3-.5-.5.3-.6.8-.3,1.5l1.6,3.1-1.6.9-2.9-5.4,1.6-.9.3.5c0-.5.4-1,1.1-1.4.6-.3,1.3-.3,1.8,0,0-.6.4-1.1,1.2-1.5,1.2-.7,2.5-.2,3.2,1.2l.1-.3Z"/><path d="m61.55,307.4l4.5-1.1.4,1.7-4.5,1.1-.4-1.7Z"/><path d="m67.75,307.5c0-1.8,1.3-3.3,3.1-3.4,1.2,0,2.3.5,2.8,1.5l-1.6,1c-.2-.4-.7-.7-1.2-.6-.8,0-1.4.6-1.3,1.5,0,.8.6,1.4,1.4,1.4.5,0,1-.3,1.2-.7l1.6.9c-.5,1-1.5,1.6-2.7,1.7-1.9,0-3.3-1.3-3.4-3.1l.1-.2Z"/><path d="m74.25,307.3c.3-1.8,2-2.9,3.7-2.6,1.8.3,3,1.9,2.7,3.7-.3,1.8-2,2.9-3.7,2.6-1.8-.3-3-1.9-2.7-3.7Zm4.6.8c.1-.9-.4-1.5-1.1-1.7-.8-.1-1.5.3-1.6,1.2s.4,1.5,1.1,1.7c.8.1,1.5-.3,1.6-1.2Z"/><path d="m90.65,312l-1.6,3.4-1.7-.8,1.5-3.3c.3-.6.2-1-.4-1.3s-1,0-1.4.6l-1.5,3.1-1.7-.8,1.5-3.3c.3-.6.2-1-.4-1.3-.6-.3-1,0-1.4.6l-1.5,3.1-1.7-.8,2.6-5.5,1.7.8-.2.5c.4-.3,1.1-.3,1.8,0,.7.3,1,.8,1.1,1.4.5-.3,1.2-.3,2,0,1.3.6,1.7,1.9,1,3.3l.3.3Z"/><path d="m96.55,318c-1.2,1.4-3.1,1.6-4.3.5-.6-.5-.9-1.2-.9-1.8l-2,2.3-1.4-1.2,5.7-6.4,1.4,1.2-.4.4c.6,0,1.2.1,1.9.6,1.2,1.1,1.3,3,0,4.4Zm-1.4-1.2c.6-.7.5-1.5-.1-2.1s-1.5-.5-2.1.2-.5,1.5.1,2.1,1.5.5,2.1-.2Z"/><path d="m103.25,322l-5,3.5-1.1-1.5.5-.3c-.6,0-1.2-.3-1.6-1-.7-1-.6-2.4.7-3.3l3.1-2.2,1.1,1.5-2.8,2c-.6.4-.6,1-.3,1.5.4.5,1,.7,1.7.2l2.7-1.9,1.1,1.5h-.1Z"/><path d="m103.55,326.7l-2,.9c-.5.2-.3.7,0,1.4l-1.5.7c-1.3-2.1-.9-3,.7-3.7l2-.9-.4-.9,1.6-.8.4.9,1.1-.5,1.3,1.4-1.5.7.5,1.1-1.6.8-.5-1.1h-.1Z"/><path d="m107.95,334.8l-5.9,1.5-.5-1.8h.6c-.6-.4-1-.9-1.2-1.7-.4-1.6.6-3.2,2.4-3.6,1.8-.5,3.5.5,3.9,2,.2.8,0,1.4-.3,2h.6c0-.1.5,1.6.5,1.6h-.1Zm-3.4-1c.9-.2,1.3-1,1.1-1.8-.2-.8-.9-1.3-1.8-1-.9.2-1.3,1-1.1,1.8.2.8.9,1.3,1.8,1Z"/><path d="m106.55,339.3h-2.2c-.5.2-.5.6-.4,1.4h-1.7c-.4-2.3.3-3,2-3.1h2.2v-1.1h1.8c0-.1,0,.9,0,.9h1.2l.7,1.7h-1.7v1.4h-1.8c0,.1,0-1.2,0-1.2h-.1Z"/><path d="m108.35,342.1v1.8c-.1,0-6.2-.4-6.2-.4v-1.8c.1,0,6.2.4,6.2.4Zm1.7,0c.6,0,1.1.6,1,1.2,0,.6-.6,1.1-1.2,1s-1.1-.6-1-1.2.6-1.1,1.2-1Z"/><path d="m105.15,344.9c1.8.4,2.8,2.1,2.4,3.9-.4,1.8-2.1,2.9-3.9,2.5s-2.8-2.1-2.4-3.9c.4-1.8,2.1-2.9,3.9-2.5Zm-1,4.5c.8.2,1.5-.3,1.7-1.1s-.3-1.5-1.1-1.7c-.8-.2-1.5.3-1.7,1.1s.3,1.5,1.1,1.7Z"/><path d="m101.45,358.1l-3.4-1.6.8-1.7,3.2,1.5c.7.3,1.2,0,1.5-.5.3-.6.1-1.2-.7-1.6l-3-1.4.8-1.7,5.5,2.6-.8,1.7-.5-.2c.3.5.3,1.2,0,1.9-.5,1.1-1.8,1.7-3.3,1h-.1Z"/><path class="cls-46" d="m51.65,337.3v-8.8c0-1.4.7-2.1,2.1-2.1h30.5c1.4,0,2.1.7,2.1,2.1v28.7c0,1.2-.7,1.9-1.9,1.9h-30.8c-1.2,0-1.9-.8-1.9-1.9v-19.9h-.1Zm19.2,18.2c.4,0,.6-.3.9-.6.9-.8,1.6-1.7,2.1-2.7.2-.4.4-.5.8-.5.9,0,1.9,0,2.8-.2,2.4-.6,3.7-2.2,3.5-4.5,0-1.2-.6-2.4-1.3-3.4-.4-.5-.4-.9,0-1.5.8-1.2,1.3-2.5,1.3-4,1.3-.9,1.1-2.4.1-3.1-.7-.5-1.4-.4-2,0-.2-.3-.6-.4-.9-.5-1.1-.4-2.2-.5-3.4-.4-.5,0-.8-.1-1-.6-.5-1.1-1.2-2-2.1-2.7-1.2-1.1-3-1.4-4.5-.6-1,.5-1.8,1.4-2.4,2.3-.3.5-.5,1.2-1,1.5s-1.2,0-1.8,0c-1.1,0-2.1.2-3,.9-.5-.2-.9-.3-1.4-.2-.7.2-1.2.7-1.4,1.4-.2.9.2,1.5.9,2,0,1.6.6,2.9,1.4,4.2.3.4.3.7,0,1.1-.7,1-1.1,2.1-1.3,3.2-.2,1.6.2,3,1.5,4,1.2.9,2.7,1.2,4.2,1.1.8,0,1.4.1,1.6,1,0,.2.2.4.4.6.7.9,1.3,1.8,2.4,2.2,0,.8.4,1.4,1.1,1.8,1,.5,2.5-.1,2.6-1.7l-.1-.1Z"/><path class="cls-18" d="m51.65,337.3v19.9c0,1.2.7,1.9,1.9,1.9h30.8c1.2,0,1.9-.8,1.9-1.9v-19.9h2.4c2.1.5,3.1,2.1,3.1,4.2v23.1h-45.6v-24c0-1.7,1.7-3.3,3.3-3.4h2.1l.1.1Z"/><path class="cls-34" d="m46.25,364.6h45.7c0,.8,0,1.5-.3,2.3-.5,1.3-1.5,2-2.8,2.3h-39c-1.9,0-3.5-1.6-3.5-3.5v-1l-.1-.1Z"/><path class="cls-20" d="m91.85,364.6v-23.1c0-2.2-1-3.7-3.1-4.2h3.2c1.9,0,3.4,1.6,3.5,3.4v23.9h-3.7.1Z"/><path class="cls-34" d="m73.55,372.8h.1c-.9.7-1.2,1.6-1,2.7h-12.3c-.4,0-.5,0-.5-.5-.1-1.5.9-2.4,2.2-2.3h2.7c.4,0,.6,0,.6-.5v-1.3h4.1q1.3,0,1.3,1.3c0,.5.2.6.6.6.7,0,1.4,0,2.2,0Z"/><path class="cls-52" d="m73.55,372.8h-2.2c-.4,0-.6,0-.6-.6q0-1.3-1.3-1.3h-4.1v-1.8h8.2s0,3.7,0,3.7Z"/><path class="cls-21" d="m91.85,364.7h3.6c0,1.1,0,2.2-.7,3.1-.6.9-1.6,1.4-2.7,1.4h-3.2c1.3-.3,2.3-1,2.8-2.3.3-.7.3-1.5.3-2.2h-.1Z"/><path class="cls-9" d="m72.65,375.6c-.2-1.1.1-2,1-2.7h2.6c1.4,0,2,1.2,1.8,2.5,0,.3-.3.2-.5.2h-5,.1Z"/><path class="cls-33" d="m80.95,338c0,1.5-.5,2.8-1.3,4-.4.6-.4.9,0,1.5.7,1,1.2,2.1,1.3,3.4.2,2.3-1.1,3.9-3.5,4.5-.9.2-1.9.3-2.8.2-.4,0-.7.1-.8.5-.5,1.1-1.2,2-2.1,2.7-.3.2-.5.5-.9.6,0-.3-.2-.6-.3-.9,1.2-.6,1.8-1.7,2.4-2.8.1-.3,0-.3-.2-.3-1.1-.2-2.3-.5-3.3-.9-.3-.1-.6-.1-.9,0-1,.4-2.1.7-3.2.9-.5,0-.4.2-.3.6.6,1,1.3,1.9,2.2,2.7l-.2.8c-1.1-.4-1.7-1.3-2.4-2.2-.2-.2-.3-.4-.4-.6-.2-.8-.8-1-1.6-1-1.5,0-3-.2-4.2-1.1-1.3-1-1.7-2.4-1.5-4,.2-1.2.6-2.3,1.3-3.2.3-.4.3-.7,0-1.1-.8-1.3-1.4-2.6-1.4-4.2.3.1.6.2.9.2,0,1.4.6,2.6,1.4,3.8.9-1.1,1.9-2.1,3-2.9.1-.1.2-.3.2-.4.2-1.1.4-2.2.8-3.3.2-.5,0-.6-.4-.6-1.2,0-2.3.2-3.4.6l-.6-.6c.9-.7,2-.8,3-.9.6,0,1.4.2,1.8,0,.5-.3.6-1,1-1.5.6-.9,1.4-1.8,2.4-2.3,1.5-.8,3.3-.5,4.5.6.9.8,1.6,1.7,2.1,2.7.2.5.5.6,1,.6,1.2,0,2.3,0,3.4.4.3.1.6.2.9.5-.2.2-.3.5-.6.6-1.1-.4-2.2-.6-3.3-.6-.5,0-.6.2-.4.6.3.9.6,1.9.7,2.8,0,.6.5,1,.9,1.4.2.2.5.4.7.6.5.5,1,1,1.4,1.5,0,.1.2.4.4,0,.7-1.1,1.2-2.2,1.3-3.5.3,0,.6-.1.9-.2l.1-.2Zm-17.9,4.9c0,.7.1,1.6.1,2.4,0,.5.3.9.7,1.2,1.5,1.1,3.1,2,4.8,2.7.2.1.5.1.7,0,1.7-.8,3.4-1.7,4.9-2.8.3-.2.5-.5.5-.8.2-1.9.2-3.9,0-5.8,0-.3-.2-.5-.4-.7-1.6-1.1-3.3-2.1-5.1-2.9h-.6c-1.8.8-3.4,1.7-5,2.8-.2.1-.4.4-.4.7-.1,1-.2,2-.2,3.1v.1Zm6-12.5c-.3,0-.5,0-.8.1-1.6.5-2.5,1.8-3.3,3.2-.2.3,0,.3.3.3,1.1.2,2.2.5,3.3.9.3.1.6.1.9,0,1.1-.4,2.2-.7,3.3-.9.3,0,.4-.1.2-.4-.3-.6-.6-1.1-1-1.6-.8-.9-1.7-1.6-2.9-1.7h0v.1Zm-6.5,20.3h.3q.7,0,.5-.7c-.3-.9-.5-1.8-.7-2.7,0-.3,0-.7-.3-.9-1-.8-1.9-1.6-2.6-2.6-.2-.3-.3-.2-.5,0-.5.7-.8,1.5-1,2.4-.3,1.2-.2,2.4.8,3.3,1,1,2.3,1.1,3.6,1.2h-.1Zm12.7,0c1.1,0,1.8-.1,2.5-.3,1.8-.6,2.6-2,2.3-3.9-.2-1-.6-1.8-1.1-2.6-.2-.4-.3-.4-.6,0-.6.8-1.4,1.6-2.2,2.2-.4.3-.7.8-.7,1.3,0,.8-.3,1.6-.6,2.4q-.3,1,.4,1h0v-.1Zm-12.9-5.6c-.2-1.6-.2-3.2,0-4.8-.9.6-1.5,1.4-2.1,2.1-.2.2-.2.4,0,.6h0c.7.7,1.2,1.5,2.1,2.1Zm8-9.4c1.5.7,2.9,1.5,4.2,2.4-.2-1-.4-1.9-.8-2.9,0-.2-.1-.4-.4-.4-1,.2-2,.4-3,.8h0v.1Zm-2.6,14.1c-1.5-.7-2.8-1.5-4.2-2.4.2,1,.4,2,.8,2.9,0,.2.1.3.3.3,1-.2,2-.4,3-.8h.1Zm-4.2-11.6c1.4-1,2.7-1.7,4.2-2.5-1-.3-2-.6-3-.8-.3,0-.3.1-.4.3-.4.9-.6,1.9-.8,2.9h0v.1Zm12.2,2.2c.2,1.6.2,3.2,0,4.8.9-.6,1.5-1.4,2.1-2.1.2-.2.1-.5,0-.7-.6-.7-1.2-1.4-2.1-2h0Zm-5.4,9.4c1.1.4,2,.6,3,.8.2,0,.3,0,.3-.2.4-1,.7-2,.8-3-1.3.9-2.7,1.7-4.2,2.4h.1Z"/><path class="cls-23" d="m78.45,335.4c.3-.1.4-.4.6-.6.7-.3,1.4-.4,2,0,1,.7,1.2,2.2-.1,3.1-.3.1-.6.2-.9.2-1.4-.2-2.1-1.2-1.7-2.5v-.3l.1.1Z"/><path class="cls-23" d="m67.15,355.4l.2-.8c1.3-1.3,2.1-1.3,3.3,0,0,.3.2.6.3.9,0,1.6-1.5,2.2-2.6,1.8-.7-.3-1.1-1-1.1-1.8l-.1-.1Z"/><path class="cls-23" d="m57.95,338.2c-.3,0-.6-.1-.9-.2-.7-.5-1.1-1.1-.9-2,.2-.7.6-1.2,1.4-1.4.5-.1,1,0,1.4.2l.6.6c.5,1.7,0,2.6-1.6,2.8Z"/><path class="cls-43" d="m63.05,342.9c0-1,0-2.1.2-3.1,0-.3.2-.5.4-.7,1.6-1.1,3.2-2.1,5-2.8.2,0,.4-.1.6,0,1.8.8,3.5,1.8,5.1,2.9.2.1.4.4.4.7.2,1.9.3,3.9,0,5.8,0,.3-.2.6-.5.8-1.5,1.1-3.2,2-4.9,2.8-.2.1-.5.1-.7,0-1.7-.8-3.3-1.7-4.8-2.7-.4-.2-.7-.7-.7-1.2,0-.9-.2-1.7-.1-2.4v-.1Zm8.7-.2c0-1.5-1.2-2.7-2.8-2.7-1.5,0-2.7,1.2-2.7,2.8,0,1.5,1.2,2.7,2.7,2.7s2.7-1.2,2.7-2.7h0l.1-.1Z"/><path class="cls-41" d="m69.05,330.4c1.3,0,2.2.8,2.9,1.7.4.5.7,1,1,1.6.2.3.1.4-.2.4-1.1.2-2.2.5-3.3.9-.3.1-.6.1-.9,0-1.1-.4-2.2-.7-3.3-.9-.2,0-.4,0-.3-.3.8-1.4,1.6-2.7,3.3-3.2.3,0,.5-.1.8-.1v-.1Z"/><path class="cls-41" d="m62.55,350.7c-1.3,0-2.6-.2-3.6-1.2-1-.9-1.1-2.1-.8-3.3.2-.8.6-1.6,1-2.4.2-.3.3-.3.5,0,.8,1,1.7,1.8,2.6,2.6.3.3.3.6.3.9.2.9.4,1.8.7,2.7q.2.7-.5.7h-.3.1Z"/><path class="cls-41" d="m75.15,350.7q-.7,0-.4-1c.2-.8.5-1.6.6-2.4,0-.5.3-1,.7-1.3.8-.6,1.6-1.4,2.2-2.2.2-.3.4-.3.6,0,.5.8.9,1.7,1.1,2.6.3,1.9-.5,3.3-2.3,3.9-.7.2-1.4.3-2.5.3v.1Z"/><path class="cls-36" d="m70.65,354.6c-1.1-1.2-1.9-1.2-3.3,0-.9-.7-1.7-1.7-2.2-2.7-.2-.4-.2-.5.3-.6,1.1-.2,2.1-.5,3.2-.9.3-.1.6-.1.9,0,1.1.4,2.2.7,3.3.9.2,0,.4,0,.2.3-.6,1.1-1.2,2.2-2.4,2.8v.2Z"/><path class="cls-36" d="m57.95,338.2c1.5-.2,2.1-1.1,1.6-2.8,1.1-.4,2.2-.6,3.4-.6.4,0,.6.1.4.6-.4,1.1-.7,2.2-.8,3.3,0,.2,0,.3-.2.4-1.1.9-2.1,1.9-3,2.9-.8-1.2-1.4-2.4-1.4-3.8Z"/><path class="cls-36" d="m78.45,335.4v.3c-.4,1.4.3,2.3,1.7,2.5,0,1.3-.6,2.4-1.3,3.5-.2.3-.3,0-.4,0-.4-.5-.9-1-1.4-1.5-.2-.2-.4-.4-.7-.6-.4-.4-.8-.7-.9-1.4,0-1-.4-1.9-.7-2.8-.2-.4-.1-.6.4-.6,1.1,0,2.3.2,3.3.6Z"/><path class="cls-27" d="m62.35,345.1c-.9-.6-1.5-1.4-2.1-2.1-.2-.1-.2-.4,0-.6h0c.6-.7,1.2-1.5,2.1-2.1-.2,1.6-.2,3.2,0,4.8Z"/><path class="cls-27" d="m70.35,335.7c1-.4,2-.6,3-.8.3,0,.3.2.4.4.4.9.6,1.9.8,2.9-1.3-.9-2.7-1.7-4.2-2.4v-.1Z"/><path class="cls-27" d="m67.75,349.8c-1.1.4-2,.6-3,.8-.2,0-.3-.1-.3-.3-.4-.9-.6-1.9-.8-2.9,1.3.9,2.7,1.7,4.2,2.4h-.1Z"/><path class="cls-27" d="m63.55,338.2c.2-1,.4-2,.8-2.9,0-.2.1-.4.4-.3,1,.2,2,.4,3,.8-1.5.7-2.8,1.5-4.2,2.5v-.1Z"/><path class="cls-27" d="m75.75,340.4c.9.6,1.4,1.3,2.1,2,.2.2.3.4,0,.7-.7.7-1.2,1.5-2.1,2.1.2-1.6.2-3.2,0-4.8Z"/><path class="cls-27" d="m70.35,349.8c1.4-.7,2.8-1.5,4.2-2.4-.2,1-.4,2-.8,3,0,.1-.1.3-.3.2-1-.2-2-.4-3-.8h-.1Z"/><path class="cls-57" d="m71.75,342.7c0,1.5-1.2,2.8-2.7,2.8s-2.8-1.2-2.8-2.7,1.2-2.8,2.7-2.8h0c1.5,0,2.7,1.2,2.7,2.7h.1Z"/><circle class="cls-2" cx="200" cy="194.79" r="45"/><path class="cls-31" d="m175.2,186.09v-7.4c0-.3,0-.4.4-.4h11.1v2.2q0,.8.8.8h24.9c.5,0,.6-.2.6-.6v-2.4h11.3c.1.2.2.4.2.6v6.8c0,.4-.2.6-.6.6h-1.4c-1.1,0-1.9,1-1.8,2.1,0,1,.9,1.8,1.9,1.8h1.4q.6,0,.6.7v24.3c0,.6,0,.7-.7.7h-1.4c-1.1,0-1.9,1-1.9,2,0,1.1.9,1.9,1.9,1.9h1.4c.6,0,.7,0,.7.7v6.6c0,.2,0,.5-.2.6h-11.3v-2.4c0-.4-.2-.6-.6-.6h-25.2c-.5,0-.6.2-.6.6v2.4h-11.1c-.3,0-.4,0-.4-.4v-7.6h2c1.1,0,1.9-.9,1.9-1.9,0-1.1-.8-2-1.9-2h-1.4c-.2,0-.5,0-.6-.2v-25.3c.2-.1.4-.2.6-.2h1.4c1.1,0,1.9-1,1.9-2.1,0-1-.8-1.8-1.8-1.9h-1.4c-.2,0-.5,0-.6-.2l-.1.2Zm40.6,19.3h1.8c.6,0,.8-.3.8-.7s-.3-.7-.8-.7h-1.8v-1.7h1.8c.6,0,.9-.3.9-.7s-.3-.7-.9-.7h-1.8v-1.7h1.8c.5,0,.8-.3.8-.7s-.3-.7-.8-.7h-1.8v-1.7h1.8c.6,0,.8-.3.8-.7s-.3-.7-.8-.7h-1.8v-1.7h1.8c.6,0,.8-.3.8-.7s-.3-.7-.8-.7h-1.8v-1.7h1.8c.6,0,.9-.3.9-.7s-.3-.7-.9-.7h-1.8c0-1.3,0-1.2-1.2-1.2v-1.8c0-.6-.3-.8-.7-.8s-.7.3-.7.8v1.8h-1.7v-1.8c0-.6-.3-.9-.7-.9s-.7.3-.7.9v1.8h-1.7v-1.8c0-.6-.3-.9-.7-.9s-.7.3-.7.9v1.8h-1.7v-1.8c0-.6-.3-.9-.7-.9s-.7.3-.7.9v1.8h-1.7v-1.8c0-.6-.3-.9-.7-.9s-.7.3-.7.8v1.8h-1.7v-1.8c0-.6-.3-.9-.7-.9s-.7.3-.7.9v1.8h-1.7v-1.8c0-.6-.3-.9-.7-.9s-.7.3-.7.9v1.8h-1.7v-1.8c0-.6-.3-.9-.7-.9s-.7.3-.7.9v1.8h-1.7v-1.8c0-.6-.3-.9-.7-.9s-.7.3-.7.9v1.8h-1.7v-1.8c0-.6-.3-.9-.7-.9s-.7.3-.7.9v1.8c-1.2,0-1.1,0-1.1,1.2h-1.8c-.6,0-.9.3-.8.7s.3.7.8.7h1.8v1.7h-1.8c-.6,0-.9.3-.9.7s.3.7.9.7h1.8v1.7h-1.8c-.6,0-.9.3-.9.7s.3.7.9.7h1.8v1.7h-1.9c-.5,0-.9.3-.9.7s.3.7.9.7h1.9v1.7h-1.8c-.6,0-.8.3-.8.7s.3.7.8.7h1.8v1.7h-1.8c-.6,0-.9.3-.9.7s.3.7.9.7h1.8v1.7h-1.8c-.6,0-.9.3-.9.7s.3.7.9.7h1.8v1.7h-1.8c-.6,0-.8.3-.8.7s.3.7.8.7h1.8v1.7h-1.8c-.6,0-.8.3-.8.7s.3.7.8.7h1.8v1.7h-1.8c-.6,0-.9.3-.9.7s.3.7.9.7h1.8c0,1.2,0,1.1,1.2,1.2v1.8c0,.6.3.8.7.8s.7-.3.7-.8v-1.8h1.7v1.8c0,.6.3.9.7.9s.7-.3.7-.9v-1.8h1.7v1.8c0,.6.3.9.7.9s.7-.3.7-.9v-1.8h1.7v1.8c0,.6.3.8.7.8s.7-.3.7-.8v-1.8h1.7v1.8c0,.6.3.8.7.8s.7-.3.7-.8v-1.8h1.7v1.8c0,.6.3.9.7.9s.7-.3.7-.9v-1.8h1.7v1.8c0,.6.3.8.7.8s.7-.3.7-.8v-1.8h1.7v1.8c0,.6.3.8.7.8s.7-.3.7-.8v-1.8h1.7v1.8c0,.6.3.8.7.8s.7-.3.7-.8v-1.8h1.7v1.8c0,.6.3.9.7.9s.7-.3.7-.9v-1.8c1.3,0,1.1,0,1.2-1.2h1.8c.6,0,.8-.3.8-.7s-.3-.7-.8-.7h-1.8v-1.7h1.8c.6,0,.9-.3.9-.7s-.3-.7-.9-.7h-1.8v-1.7h1.8c.6,0,.9-.3.9-.7s-.3-.7-.9-.7h-1.8v-1.7h1.8c.6,0,.8-.3.8-.7s-.3-.7-.8-.7h-1.8v-1.7l-.1.1Zm-36.6-21.7c.8,0,1.5-.7,1.5-1.5h0c0-.8-.7-1.5-1.5-1.5s-1.4.8-1.4,1.6c0,.7.6,1.3,1.4,1.4h0Zm42.7-1.5c0-.8-.7-1.5-1.5-1.5s-1.5.7-1.5,1.5.7,1.5,1.5,1.5,1.5-.6,1.5-1.4h0v-.1Zm-44.1,41.9c0,.8.7,1.5,1.5,1.5s1.5-.7,1.5-1.5h0c0-.8-.7-1.5-1.5-1.5h0c-.8,0-1.5.7-1.5,1.5h0Zm44.1,0c0-.8-.7-1.5-1.5-1.5h0c-.8,0-1.5.7-1.5,1.5s.7,1.5,1.5,1.5,1.5-.7,1.5-1.5Z"/><path class="cls-19" d="m210,181.29h-22.5q-.8,0-.8-.8v-2.2h23.4v3h-.1Z"/><path class="cls-19" d="m186.6,227.79v-2.4c0-.4.2-.6.6-.6h22.7v3h-23.4.1Z"/><path class="cls-29" d="m210,181.29v-3h3v2.4c0,.4-.2.6-.6.6h-2.4Z"/><path class="cls-29" d="m210.1,227.79v-3h2.4c.4,0,.6.2.6.6v2.4h-3Z"/><path class="cls-16" d="m188.2,218.99h-3.1c-1.2,0-1.1,0-1.2-1.2v-29.5c0-1.2,0-1.1,1.2-1.2h27.6v3.2c-.1-.1-.3-.2-.5-.2h-24.5q-.8,0-.8.8v24.2q0,.8.8.8h24.5c.2,0,.4,0,.5-.2v3.2h-24.5v.1Z"/><path class="cls-30" d="m212.7,190.29v-3.2h1.9c1.3,0,1.1,0,1.2,1.2v29.5c0,1.3,0,1.1-1.2,1.2h-1.8v-28.7h-.1Z"/><path class="cls-28" d="m179.2,183.69c-.8,0-1.4-.8-1.4-1.6,0-.7.6-1.3,1.4-1.4.8,0,1.5.7,1.5,1.5s-.7,1.5-1.5,1.5h0Z"/><path class="cls-28" d="m221.9,182.19c0,.8-.6,1.5-1.5,1.5h0c-.8,0-1.5-.7-1.5-1.5s.7-1.5,1.5-1.5,1.5.7,1.5,1.5Z"/><path class="cls-40" d="m177.8,224.09c0-.8.6-1.5,1.4-1.5h0c.8,0,1.5.7,1.5,1.5h0c0,.8-.7,1.5-1.5,1.5s-1.5-.7-1.5-1.5h.1Z"/><path class="cls-40" d="m221.9,223.99c0,.8-.6,1.5-1.5,1.5h0c-.8,0-1.5-.7-1.5-1.5s.7-1.5,1.5-1.5,1.5.6,1.5,1.5h0Z"/><path class="cls-49" d="m189.7,187.09h-1.4v-1.8c0-.6.3-.9.7-.9s.7.3.7.9v1.8Z"/><path class="cls-56" d="m215.8,202.19v-1.5h1.8c.6,0,.9.3.9.7s-.3.7-.9.7h-1.8v.1Z"/><path class="cls-56" d="m199,187.09h-1.4v-1.8c0-.6.3-.9.7-.9s.7.3.7.9v1.8Z"/><path class="cls-56" d="m202.1,187.09h-1.4v-1.8c0-.6.3-.9.7-.9s.7.3.7.9v1.8Z"/><path class="cls-56" d="m184,200.79v1.5h-1.8c-.6,0-.9-.3-.8-.7s.3-.7.8-.7h1.8v-.1Z"/><path class="cls-49" d="m215.8,214.69v-1.5h1.8c.6,0,.9.3.9.7s-.3.7-.9.7h-1.8v.1Z"/><path class="cls-56" d="m215.8,205.29v-1.5h1.8c.6,0,.8.3.8.7s-.3.7-.8.7h-1.8v.1Z"/><path class="cls-49" d="m184,213.19v1.5h-1.8c-.6,0-.8-.3-.8-.7s.3-.7.8-.7h1.8v-.1Z"/><path class="cls-49" d="m184,191.39v1.5h-1.8c-.6,0-.9-.3-.9-.7s.3-.7.9-.7h1.8v-.1Z"/><path class="cls-49" d="m215.8,192.89v-1.5h1.8c.6,0,.8.3.8.7s-.3.7-.8.7h-1.8v.1Z"/><path class="cls-56" d="m184,203.89v1.4h-1.8c-.6,0-.9-.3-.9-.7s.3-.7.9-.7h1.8Z"/><path class="cls-49" d="m188.2,218.99h1.4v1.8c0,.6-.3.9-.7.9s-.7-.3-.7-.9v-1.8Z"/><path class="cls-56" d="m197.6,218.99h1.4v1.8c0,.6-.3.8-.7.8s-.7-.3-.7-.8v-1.8Z"/><path class="cls-56" d="m200.7,218.99h1.4v1.8c0,.6-.3.9-.7.9s-.7-.3-.7-.9v-1.8Z"/><path class="cls-49" d="m210,218.99h1.4v1.8c0,.6-.3.8-.7.8s-.7-.3-.7-.8v-1.8Z"/><path class="cls-49" d="m211.4,187.09h-1.4v-1.8c0-.6.3-.9.7-.9s.7.3.7.9v1.8Z"/><path class="cls-55" d="m184,197.69v1.4h-1.9c-.5,0-.9-.3-.9-.7s.3-.7.9-.7h1.9Z"/><path class="cls-55" d="m215.8,199.09v-1.4h1.8c.6,0,.8.3.8.7s-.3.7-.8.7h-1.8Z"/><path class="cls-55" d="m203.8,218.99h1.4v1.8c0,.6-.3.8-.7.8s-.7-.3-.7-.8v-1.8Z"/><path class="cls-55" d="m184,206.99v1.5h-1.8c-.6,0-.9-.3-.9-.7s.3-.7.9-.7h1.8v-.1Z"/><path class="cls-55" d="m215.8,208.49v-1.5h1.8c.6,0,.8.3.8.7s-.3.7-.8.7h-1.8v.1Z"/><path class="cls-55" d="m195.9,187.09h-1.4v-1.8c0-.6.3-.9.7-.9s.7.3.7.9v1.8Z"/><path class="cls-55" d="m205.2,187.09h-1.4v-1.8c0-.6.3-.9.7-.9s.7.3.7.9v1.8Z"/><path class="cls-55" d="m194.4,218.99h1.4v1.8c0,.6-.3.8-.7.8s-.7-.3-.7-.8v-1.8Z"/><path class="cls-47" d="m184,216.39v1.4h-1.8c-.6,0-.9-.3-.9-.7s.3-.7.9-.7,1.2,0,1.8,0Z"/><path class="cls-47" d="m215.8,217.79v-1.5h1.8c.6,0,.8.3.8.7s-.3.7-.8.7h-1.8v.1Z"/><path class="cls-47" d="m215.8,189.79v-1.5h1.8c.6,0,.9.3.9.7s-.3.7-.9.7h-1.8v.1Z"/><path class="cls-55" d="m191.4,218.99h1.4v1.8c0,.6-.3.9-.7.9s-.7-.3-.7-.9v-1.8Z"/><path class="cls-55" d="m215.8,195.99v-1.4h1.8c.5,0,.8.3.8.7s-.3.7-.8.7h-1.8Z"/><path class="cls-55" d="m184,194.49v1.4h-1.8c-.6,0-.9-.3-.9-.7s.3-.7.9-.7h1.8Z"/><path class="cls-55" d="m184,210.09v1.5h-1.8c-.6,0-.8-.3-.8-.7s.3-.7.8-.7h1.8v-.1Z"/><path class="cls-55" d="m215.8,211.59v-1.5h1.8c.6,0,.9.3.9.7s-.3.7-.9.7h-1.8v.1Z"/><path class="cls-47" d="m185.1,218.99h1.4v1.8c0,.6-.3.8-.7.8s-.7-.3-.7-.8v-1.8Z"/><path class="cls-47" d="m184,188.29v1.5h-1.9c-.5,0-.8-.3-.8-.7s.3-.7.8-.7h1.9v-.1Z"/><path class="cls-47" d="m214.6,187.09h-1.5v-1.8c0-.6.3-.8.7-.8s.7.3.7.8v1.8h.1Z"/><path class="cls-47" d="m213.1,218.99h1.5v1.8c0,.6-.3.9-.7.9s-.7-.3-.7-.9v-1.8h-.1Z"/><path class="cls-55" d="m208.3,187.09h-1.4v-1.8c0-.6.3-.9.7-.9s.7.3.7.9v1.8Z"/><path class="cls-55" d="m192.8,187.09h-1.4v-1.8c0-.6.3-.9.7-.9s.7.3.7.9v1.8Z"/><path class="cls-47" d="m186.5,187.09h-1.4v-1.8c0-.6.3-.9.7-.9s.7.3.7.9v1.8Z"/><path class="cls-55" d="m206.9,218.99h1.4v1.8c0,.6-.3.8-.7.8s-.7-.3-.7-.8v-1.8Z"/><path class="cls-53" d="m209.8,215.99h-22q-.8,0-.8-.8v-24.2q0-.8.8-.8h22v25.9-.1Zm-1-20.7h0v-2.3c0-.4-.3-.7-.7-.7h0c-.4,0-.7.3-.8.7h0v3.1c0,.8.1.6-.7.7-.4,0-.5,0-.5-.5v-3.3c0-.5-.3-.8-.7-.8s-.7.3-.8.7v4.4c0,.6.3.8.9.8h2.3c.6,0,.9-.3.9-.9v-2.1l.1.2Zm-8.5,0v2.2c0,.5.3.8.7.9s.7-.3.7-.8v-1.1q0-.3.3-.3h1.4c.4,0,.8-.2.9-.7v-2.2c0-.7-.3-.9-.9-.9h-2.1c-.7,0-1,.2-1,1v2h0v-.1Zm-4.4,0v2.2c0,.4.2.8.6.8h2.5c.5,0,.9-.3.9-.7s-.3-.8-.9-.8h-1.4c-.2,0-.3,0-.3-.3v-2.5c0-.2,0-.3.3-.3h1.4c.5,0,.8-.3.8-.8s-.3-.7-.8-.7h-2.4c-.4,0-.8.2-.8.6v2.3h0l.1.2Zm-5.6,19.4h1.3c.2,0,.4,0,.5-.2,0-.2,0-.4-.2-.5l-2.7-2.5c-.1-.2-.3-.2-.5-.1-.2,0-.2.2-.2.4v2.5c0,.2.1.4.4.5h1.4v-.1Z"/><path class="cls-7" d="m209.8,215.99v-25.8h2.5c.2,0,.4,0,.5.2v25.4c-.1.1-.3.2-.5.2h-2.5Z"/><path class="cls-45" d="m208.8,195.19v2.1c0,.7-.3.9-.9.9h-2.3c-.6,0-.9-.3-.9-.8v-4.3c0-.4.2-.8.6-.8h.1c.4,0,.7.3.7.8v3.3c0,.4.1.5.5.5.8,0,.7,0,.7-.7v-3.1c0-.4.3-.7.7-.7h0c.4,0,.7.3.7.7h0v2.3h0l.1-.2Z"/><path class="cls-45" d="m200.3,195.19v-2c0-.7.3-.9,1-1h2.2c.6,0,.9.3.9.9v2c0,.4-.2.8-.7.9h-1.6q-.3,0-.3.3v1.1c0,.5-.3.8-.7.8s-.7-.3-.7-.9v-2.2l-.1.1Zm2-.6c.3,0,.6.1.6-.4s-.2-.5-.6-.4-.6-.1-.6.4.2.5.6.4h0Z"/><path class="cls-45" d="m195.9,195.19v-2.1c0-.4.2-.8.6-.8h2.6c.5,0,.8.3.8.7s-.3.7-.8.8-1,0-1.4,0-.3,0-.3.3v2.5c0,.2,0,.3.3.3h1.4c.5,0,.9.3.9.8s-.3.7-.9.7h-2.3c-.4,0-.8-.2-.8-.6v-2.4l-.1-.2Z"/><path class="cls-60" d="m190.3,214.59h-1.4c-.2,0-.4-.1-.5-.4h0v-2.5c0-.2,0-.4.2-.4s.4,0,.5.1l2.7,2.5c.2.1.2.3.2.5s-.3.2-.5.2h-1.3.1Z"/><path class="cls-49" d="m202.3,194.49c-.3,0-.6,0-.6-.4s.3-.4.6-.4.6,0,.6.4-.3.4-.6.4Z"/><path d="m182.1,165.99c-1.2-3.9.9-7.9,4.9-9.1,2.4-.7,4.9-.2,6.7,1.4l-2.2,2.3c-.9-.9-2.2-1.1-3.6-.7-2.4.7-3.4,2.8-2.7,5.2s2.7,3.5,5.1,2.8c1.4-.4,2.3-1.4,2.6-2.6l3.1.7c-.6,2.2-2.4,4.1-4.8,4.8-4,1.2-7.9-.9-9.1-4.9v.1Z"/><path d="m208.2,161.09c-.2,2.6-2.6,4.6-5.3,4.3l-2.1-.2-.4,4.4-3.2-.3,1.3-13.9,5.3.5c2.7.3,4.7,2.6,4.4,5.2Zm-3.2-.3c0-1-.5-1.9-1.5-2l-2.1-.2-.3,3.6,2.1.2c1,0,1.8-.6,1.9-1.6h-.1Z"/><path d="m209.7,166.29l4.2-8.5,2.9,1.4-4.1,8.2c-.5.9-.4,2,1.1,2.7,1.5.8,2.4.2,2.8-.8l4.1-8.2,2.9,1.4-4.2,8.5c-1.3,2.7-4.2,3.3-7,1.9-2.8-1.4-4-4-2.7-6.7v.1Z"/></svg>