<?xml version="1.0" encoding="UTF-8"?><svg id="Layer_1" xmlns="http://www.w3.org/2000/svg" viewBox="0 0 400 355"><defs><style>.cls-1,.cls-2,.cls-3,.cls-4{stroke-miterlimit:10;}.cls-1,.cls-5{fill:#fff;}.cls-1,.cls-4{stroke:#231f20;stroke-width:2px;}.cls-2{stroke:#a5262d;}.cls-2,.cls-3{stroke-width:4px;}.cls-2,.cls-3,.cls-4{fill:none;}.cls-3{stroke:#000;}.cls-6{fill:#f0ca6f;}.cls-7{fill:#e2bb64;}.cls-8{fill:#546e7a;}.cls-9{fill:#222;}.cls-10{fill:#ffed58;}.cls-11{fill:#424240;}.cls-12{fill:#36464e;}.cls-13{fill:#212121;}.cls-14{fill:#788f9b;}.cls-15{fill:#f0f3f2;}.cls-16{fill:#fbd734;}.cls-17{fill:#231f20;}</style></defs><path class="cls-16" d="m215.12,302.99c.43,0,.86.02,1.29.02.73,0,1.33.6,1.34,1.33,0,.67,0,1.35,0,2.02,0,5.69,0,11.38,0,17.07,0,.37-.01.75-.13,1.1-.13.42-.65.8-1.09.8-4.82,0-9.64,0-14.46,0-.02,0-.04,0-.07,0,0-1.31,0-2.62,0-3.93,1,0,2.01,0,3.01-.01.13,0,.27.03.28-.18,0-.5.04-1-.07-1.48-.31-1.28-.68-2.55-1.01-3.83-.09-.35-.19-.69-.31-1.02-.19-.52.17-.8.48-1.09.52-.48.74-1.07.86-1.76.26-1.43-.95-3.16-2.31-3.59-.05-.07-.1-.11-.19-.07-.07-.02-.14-.03-.21-.05-.03-.04-.07-.06-.12-.03-.13-.02-.27-.04-.4-.06,0-1.74,0-3.48,0-5.22,2.47,0,4.94,0,7.41-.01.15,0,.31-.01.46-.02.88.03,1.77.04,2.65,0,.87.05,1.73.04,2.6,0Z"/><path class="cls-10" d="m202,321.4c0,1.31,0,2.62,0,3.93-.5,0-.99.01-1.49.01-4.2,0-8.41-.02-12.61.02-1.11,0-1.68-.59-1.67-1.68.04-6.43.03-12.86,0-19.3,0-.77.62-1.39,1.35-1.37.43,0,.86-.01,1.29-.02.87.02,1.73.04,2.6-.01.88.05,1.76.03,2.65.01.14,0,.29.02.43.02,2.48,0,4.96,0,7.44.01,0,1.74,0,3.48,0,5.22-.28.13-.59.07-.88.18-1.23.48-2.04,1.31-2.33,2.61-.05.03-.09.06-.03.12-.1,1.08.01,2.07.98,2.79.3.22.42.56.3.99-.08.26-.17.51-.24.78-.17.72-.36,1.44-.55,2.16-.14.53-.3,1.05-.43,1.59-.13.53-.09,1.07-.11,1.6,0,.27.06.36.35.35.98-.01,1.96,0,2.95,0Z"/><path class="cls-14" d="m191.48,302.98c-.87.05-1.73.03-2.6.01,0-2.34-.02-4.68.02-7.02.02-1.08.16-2.15.48-3.2.38-1.26.91-2.45,1.64-3.55.91-1.37,2.03-2.54,3.38-3.5.88-.63,1.81-1.19,2.82-1.54,1.01-.35,2.03-.7,3.12-.78.61-.04,1.22-.13,1.83-.12,1.53.03,3,.33,4.43.87,1.43.54,2.72,1.31,3.89,2.29,1.01.84,1.84,1.84,2.55,2.94.5.78.89,1.61,1.23,2.48.19.48.31.97.48,1.45.15.44.18.92.23,1.38.3,2.76.07,5.52.15,8.29-.87.03-1.73.04-2.6,0,0-1.97-.01-3.95.01-5.92.01-1.14-.13-2.25-.41-3.34-.39-1.54-1.11-2.93-2.15-4.12-1.28-1.46-2.82-2.55-4.68-3.14-1.32-.42-2.67-.55-4.06-.47-1.29.08-2.5.38-3.65.92-1.91.89-3.42,2.26-4.53,4.05-.96,1.55-1.49,3.25-1.55,5.05-.09,2.32-.02,4.66-.02,6.98Z"/><path class="cls-8" d="m209.87,302.99c0-2.1.02-4.19,0-6.29-.01-1.11-.17-2.22-.61-3.25-.35-.82-.83-1.57-1.41-2.25-.88-1.02-1.97-1.72-3.2-2.17-1.14-.41-2.34-.55-3.57-.4-.75.09-1.48.27-2.16.56-1.88.82-3.27,2.17-4.13,4.06-.4.88-.56,1.81-.61,2.77-.11,2.32-.02,4.65-.05,6.97-.88.02-1.77.04-2.65-.01,0-2.33-.07-4.66.02-6.98.07-1.8.59-3.5,1.55-5.05,1.12-1.8,2.62-3.16,4.53-4.05,1.15-.54,2.36-.84,3.65-.92,1.39-.08,2.74.05,4.06.47,1.87.59,3.41,1.69,4.68,3.14,1.04,1.19,1.76,2.58,2.15,4.12.28,1.1.42,2.21.41,3.34-.02,1.97,0,3.95-.01,5.92-.88.05-1.77.03-2.65,0Z"/><path class="cls-12" d="m202,321.4c-.98,0-1.96-.02-2.95,0-.28,0-.36-.08-.35-.35.02-.54-.01-1.08.11-1.6.13-.53.29-1.06.43-1.59.19-.72.38-1.43.55-2.16.06-.26.16-.52.24-.78.13-.42,0-.76-.3-.99-.97-.72-1.08-1.71-.98-2.79.05-.03.05-.07.03-.12.29-1.3,1.1-2.13,2.33-2.61.29-.11.6-.05.88-.18.13.02.27.04.4.06.03.07.06.11.12.03.07.02.14.03.21.05.04.09.12.07.19.07,1.37.44,2.57,2.16,2.31,3.59-.12.69-.34,1.28-.86,1.76-.31.29-.67.56-.48,1.09.12.33.22.67.31,1.02.33,1.28.7,2.55,1.01,3.83.12.48.08.98.07,1.48,0,.21-.15.18-.28.18-1,0-2.01,0-3.01.01Z"/><path class="cls-8" d="m202.92,308.45c-.07,0-.15.02-.19-.07.09-.04.15,0,.19.07Z"/><path class="cls-8" d="m202.52,308.33c-.06.08-.1.04-.12-.03.05-.03.09-.01.12.03Z"/><path class="cls-14" d="m198.79,311.04s.03.09-.03.12c-.07-.06-.03-.09.03-.12Z"/><circle class="cls-3" cx="202.11" cy="306.31" r="33.74"/><path class="cls-16" d="m132.13,302.99c.43,0,.86.02,1.29.02.73,0,1.33.6,1.34,1.33,0,.67,0,1.35,0,2.02,0,5.69,0,11.38,0,17.07,0,.37-.01.75-.13,1.1-.13.42-.65.8-1.09.8-4.82,0-9.64,0-14.46,0-.02,0-.04,0-.07,0,0-1.31,0-2.62,0-3.93,1,0,2.01,0,3.01-.01.13,0,.27.03.28-.18,0-.5.04-1-.07-1.48-.31-1.28-.68-2.55-1.01-3.83-.09-.35-.19-.69-.31-1.02-.19-.52.17-.8.48-1.09.52-.48.74-1.07.86-1.76.26-1.43-.95-3.16-2.31-3.59-.05-.07-.1-.11-.19-.07-.07-.02-.14-.03-.21-.05-.03-.04-.07-.06-.12-.03-.13-.02-.27-.04-.4-.06,0-1.74,0-3.48,0-5.22,2.47,0,4.94,0,7.41-.01.15,0,.31-.01.46-.02.88.03,1.77.04,2.65,0,.87.05,1.73.04,2.6,0Z"/><path class="cls-10" d="m119.01,321.4c0,1.31,0,2.62,0,3.93-.5,0-.99.01-1.49.01-4.2,0-8.41-.02-12.61.02-1.11,0-1.68-.59-1.67-1.68.04-6.43.03-12.86,0-19.3,0-.77.62-1.39,1.35-1.37.43,0,.86-.01,1.29-.02.87.02,1.73.04,2.6-.01.88.05,1.76.03,2.65.01.14,0,.29.02.43.02,2.48,0,4.96,0,7.44.01,0,1.74,0,3.48,0,5.22-.28.13-.59.07-.88.18-1.23.48-2.04,1.31-2.33,2.61-.05.03-.09.06-.03.12-.1,1.08.01,2.07.98,2.79.3.22.42.56.3.99-.08.26-.17.51-.24.78-.17.72-.36,1.44-.55,2.16-.14.53-.3,1.05-.43,1.59-.13.53-.09,1.07-.11,1.6,0,.27.06.36.35.35.98-.01,1.96,0,2.95,0Z"/><path class="cls-14" d="m108.49,302.98c-.87.05-1.73.03-2.6.01,0-2.34-.02-4.68.02-7.02.02-1.08.16-2.15.48-3.2.38-1.26.91-2.45,1.64-3.55.91-1.37,2.03-2.54,3.38-3.5.88-.63,1.81-1.19,2.82-1.54,1.01-.35,2.03-.7,3.12-.78.61-.04,1.22-.13,1.83-.12,1.53.03,3,.33,4.43.87,1.43.54,2.72,1.31,3.89,2.29,1.01.84,1.84,1.84,2.55,2.94.5.78.89,1.61,1.23,2.48.19.48.31.97.48,1.45.15.44.18.92.23,1.38.3,2.76.07,5.52.15,8.29-.87.03-1.73.04-2.6,0,0-1.97-.01-3.95.01-5.92.01-1.14-.13-2.25-.41-3.34-.39-1.54-1.11-2.93-2.15-4.12-1.28-1.46-2.82-2.55-4.68-3.14-1.32-.42-2.67-.55-4.06-.47-1.29.08-2.5.38-3.65.92-1.91.89-3.42,2.26-4.53,4.05-.96,1.55-1.49,3.25-1.55,5.05-.09,2.32-.02,4.66-.02,6.98Z"/><path class="cls-8" d="m126.89,302.99c0-2.1.02-4.19,0-6.29-.01-1.11-.17-2.22-.61-3.25-.35-.82-.83-1.57-1.41-2.25-.88-1.02-1.97-1.72-3.2-2.17-1.14-.41-2.34-.55-3.57-.4-.75.09-1.48.27-2.16.56-1.88.82-3.27,2.17-4.13,4.06-.4.88-.56,1.81-.61,2.77-.11,2.32-.02,4.65-.05,6.97-.88.02-1.77.04-2.65-.01,0-2.33-.07-4.66.02-6.98.07-1.8.59-3.5,1.55-5.05,1.12-1.8,2.62-3.16,4.53-4.05,1.15-.54,2.36-.84,3.65-.92,1.39-.08,2.74.05,4.06.47,1.87.59,3.41,1.69,4.68,3.14,1.04,1.19,1.76,2.58,2.15,4.12.28,1.1.42,2.21.41,3.34-.02,1.97,0,3.95-.01,5.92-.88.05-1.77.03-2.65,0Z"/><path class="cls-12" d="m119.01,321.4c-.98,0-1.96-.02-2.95,0-.28,0-.36-.08-.35-.35.02-.54-.01-1.08.11-1.6.13-.53.29-1.06.43-1.59.19-.72.38-1.43.55-2.16.06-.26.16-.52.24-.78.13-.42,0-.76-.3-.99-.97-.72-1.08-1.71-.98-2.79.05-.03.05-.07.03-.12.29-1.3,1.1-2.13,2.33-2.61.29-.11.6-.05.88-.18.13.02.27.04.4.06.03.07.06.11.12.03.07.02.14.03.21.05.04.09.12.07.19.07,1.37.44,2.57,2.16,2.31,3.59-.12.69-.34,1.28-.86,1.76-.31.29-.67.56-.48,1.09.12.33.22.67.31,1.02.33,1.28.7,2.55,1.01,3.83.12.48.08.98.07,1.48,0,.21-.15.18-.28.18-1,0-2.01,0-3.01.01Z"/><path class="cls-8" d="m119.93,308.45c-.07,0-.15.02-.19-.07.09-.04.15,0,.19.07Z"/><path class="cls-8" d="m119.53,308.33c-.06.08-.1.04-.12-.03.05-.03.09-.01.12.03Z"/><path class="cls-14" d="m115.8,311.04s.03.09-.03.12c-.07-.06-.03-.09.03-.12Z"/><circle class="cls-3" cx="119.12" cy="306.31" r="33.74"/><path class="cls-16" d="m54.13,302.99c.43,0,.86.02,1.29.02.73,0,1.33.6,1.34,1.33,0,.67,0,1.35,0,2.02,0,5.69,0,11.38,0,17.07,0,.37-.01.75-.13,1.1-.13.42-.65.8-1.09.8-4.82,0-9.64,0-14.46,0-.02,0-.04,0-.07,0,0-1.31,0-2.62,0-3.93,1,0,2.01,0,3.01-.01.13,0,.27.03.28-.18,0-.5.04-1-.07-1.48-.31-1.28-.68-2.55-1.01-3.83-.09-.35-.19-.69-.31-1.02-.19-.52.17-.8.48-1.09.52-.48.74-1.07.86-1.76.26-1.43-.95-3.16-2.31-3.59-.05-.07-.1-.11-.19-.07-.07-.02-.14-.03-.21-.05-.03-.04-.07-.06-.12-.03-.13-.02-.27-.04-.4-.06,0-1.74,0-3.48,0-5.22,2.47,0,4.94,0,7.41-.01.15,0,.31-.01.46-.02.88.03,1.77.04,2.65,0,.87.05,1.73.04,2.6,0Z"/><path class="cls-10" d="m41.01,321.4c0,1.31,0,2.62,0,3.93-.5,0-.99.01-1.49.01-4.2,0-8.41-.02-12.61.02-1.11,0-1.68-.59-1.67-1.68.04-6.43.03-12.86,0-19.3,0-.77.62-1.39,1.35-1.37.43,0,.86-.01,1.29-.02.87.02,1.73.04,2.6-.01.88.05,1.76.03,2.65.01.14,0,.29.02.43.02,2.48,0,4.96,0,7.44.01,0,1.74,0,3.48,0,5.22-.28.13-.59.07-.88.18-1.23.48-2.04,1.31-2.33,2.61-.05.03-.09.06-.03.12-.1,1.08.01,2.07.98,2.79.3.22.42.56.3.99-.08.26-.17.51-.24.78-.17.72-.36,1.44-.55,2.16-.14.53-.3,1.05-.43,1.59-.13.53-.09,1.07-.11,1.6,0,.27.06.36.35.35.98-.01,1.96,0,2.95,0Z"/><path class="cls-14" d="m30.49,302.98c-.87.05-1.73.03-2.6.01,0-2.34-.02-4.68.02-7.02.02-1.08.16-2.15.48-3.2.38-1.26.91-2.45,1.64-3.55.91-1.37,2.03-2.54,3.38-3.5.88-.63,1.81-1.19,2.82-1.54,1.01-.35,2.03-.7,3.12-.78.61-.04,1.22-.13,1.83-.12,1.53.03,3,.33,4.43.87,1.43.54,2.72,1.31,3.89,2.29,1.01.84,1.84,1.84,2.55,2.94.5.78.89,1.61,1.23,2.48.19.48.31.97.48,1.45.15.44.18.92.23,1.38.3,2.76.07,5.52.15,8.29-.87.03-1.73.04-2.6,0,0-1.97-.01-3.95.01-5.92.01-1.14-.13-2.25-.41-3.34-.39-1.54-1.11-2.93-2.15-4.12-1.28-1.46-2.82-2.55-4.68-3.14-1.32-.42-2.67-.55-4.06-.47-1.29.08-2.5.38-3.65.92-1.91.89-3.42,2.26-4.53,4.05-.96,1.55-1.49,3.25-1.55,5.05-.09,2.32-.02,4.66-.02,6.98Z"/><path class="cls-8" d="m48.89,302.99c0-2.1.02-4.19,0-6.29-.01-1.11-.17-2.22-.61-3.25-.35-.82-.83-1.57-1.41-2.25-.88-1.02-1.97-1.72-3.2-2.17-1.14-.41-2.34-.55-3.57-.4-.75.09-1.48.27-2.16.56-1.88.82-3.27,2.17-4.13,4.06-.4.88-.56,1.81-.61,2.77-.11,2.32-.02,4.65-.05,6.97-.88.02-1.77.04-2.65-.01,0-2.33-.07-4.66.02-6.98.07-1.8.59-3.5,1.55-5.05,1.12-1.8,2.62-3.16,4.53-4.05,1.15-.54,2.36-.84,3.65-.92,1.39-.08,2.74.05,4.06.47,1.87.59,3.41,1.69,4.68,3.14,1.04,1.19,1.76,2.58,2.15,4.12.28,1.1.42,2.21.41,3.34-.02,1.97,0,3.95-.01,5.92-.88.05-1.77.03-2.65,0Z"/><path class="cls-12" d="m41.01,321.4c-.98,0-1.96-.02-2.95,0-.28,0-.36-.08-.35-.35.02-.54-.01-1.08.11-1.6.13-.53.29-1.06.43-1.59.19-.72.38-1.43.55-2.16.06-.26.16-.52.24-.78.13-.42,0-.76-.3-.99-.97-.72-1.08-1.71-.98-2.79.05-.03.05-.07.03-.12.29-1.3,1.1-2.13,2.33-2.61.29-.11.6-.05.88-.18.13.02.27.04.4.06.03.07.06.11.12.03.07.02.14.03.21.05.04.09.12.07.19.07,1.37.44,2.57,2.16,2.31,3.59-.12.69-.34,1.28-.86,1.76-.31.29-.67.56-.48,1.09.12.33.22.67.31,1.02.33,1.28.7,2.55,1.01,3.83.12.48.08.98.07,1.48,0,.21-.15.18-.28.18-1,0-2.01,0-3.01.01Z"/><path class="cls-8" d="m41.93,308.45c-.07,0-.15.02-.19-.07.09-.04.15,0,.19.07Z"/><path class="cls-8" d="m41.53,308.33c-.06.08-.1.04-.12-.03.05-.03.09-.01.12.03Z"/><path class="cls-14" d="m37.8,311.04s.03.09-.03.12c-.07-.06-.03-.09.03-.12Z"/><circle class="cls-3" cx="41.12" cy="306.31" r="33.74"/><path class="cls-16" d="m375.13,302.99c.43,0,.86.02,1.29.02.73,0,1.33.6,1.34,1.33,0,.67,0,1.35,0,2.02,0,5.69,0,11.38,0,17.07,0,.37-.01.75-.13,1.1-.13.42-.65.8-1.09.8-4.82,0-9.64,0-14.46,0-.02,0-.04,0-.07,0,0-1.31,0-2.62,0-3.93,1,0,2.01,0,3.01-.01.13,0,.27.03.28-.18,0-.5.04-1-.07-1.48-.31-1.28-.68-2.55-1.01-3.83-.09-.35-.19-.69-.31-1.02-.19-.52.17-.8.48-1.09.52-.48.74-1.07.86-1.76.26-1.43-.95-3.16-2.31-3.59-.05-.07-.1-.11-.19-.07-.07-.02-.14-.03-.21-.05-.03-.04-.07-.06-.12-.03-.13-.02-.27-.04-.4-.06,0-1.74,0-3.48,0-5.22,2.47,0,4.94,0,7.41-.01.15,0,.31-.01.46-.02.88.03,1.77.04,2.65,0,.87.05,1.73.04,2.6,0Z"/><path class="cls-10" d="m362.01,321.4c0,1.31,0,2.62,0,3.93-.5,0-.99.01-1.49.01-4.2,0-8.41-.02-12.61.02-1.11,0-1.68-.59-1.67-1.68.04-6.43.03-12.86,0-19.3,0-.77.62-1.39,1.35-1.37.43,0,.86-.01,1.29-.02.87.02,1.73.04,2.6-.01.88.05,1.76.03,2.65.01.14,0,.29.02.43.02,2.48,0,4.96,0,7.44.01,0,1.74,0,3.48,0,5.22-.28.13-.59.07-.88.18-1.23.48-2.04,1.31-2.33,2.61-.05.03-.09.06-.03.12-.1,1.08.01,2.07.98,2.79.3.22.42.56.3.99-.08.26-.17.51-.24.78-.17.72-.36,1.44-.55,2.16-.14.53-.3,1.05-.43,1.59-.13.53-.09,1.07-.11,1.6,0,.27.06.36.35.35.98-.01,1.96,0,2.95,0Z"/><path class="cls-14" d="m351.49,302.98c-.87.05-1.73.03-2.6.01,0-2.34-.02-4.68.02-7.02.02-1.08.16-2.15.48-3.2.38-1.26.91-2.45,1.64-3.55.91-1.37,2.03-2.54,3.38-3.5.88-.63,1.81-1.19,2.82-1.54,1.01-.35,2.03-.7,3.12-.78.61-.04,1.22-.13,1.83-.12,1.53.03,3,.33,4.43.87,1.43.54,2.72,1.31,3.89,2.29,1.01.84,1.84,1.84,2.55,2.94.5.78.89,1.61,1.23,2.48.19.48.31.97.48,1.45.15.44.18.92.23,1.38.3,2.76.07,5.52.15,8.29-.87.03-1.73.04-2.6,0,0-1.97-.01-3.95.01-5.92.01-1.14-.13-2.25-.41-3.34-.39-1.54-1.11-2.93-2.15-4.12-1.28-1.46-2.82-2.55-4.68-3.14-1.32-.42-2.67-.55-4.06-.47-1.29.08-2.5.38-3.65.92-1.91.89-3.42,2.26-4.53,4.05-.96,1.55-1.49,3.25-1.55,5.05-.09,2.32-.02,4.66-.02,6.98Z"/><path class="cls-8" d="m369.89,302.99c0-2.1.02-4.19,0-6.29-.01-1.11-.17-2.22-.61-3.25-.35-.82-.83-1.57-1.41-2.25-.88-1.02-1.97-1.72-3.2-2.17-1.14-.41-2.34-.55-3.57-.4-.75.09-1.48.27-2.16.56-1.88.82-3.27,2.17-4.13,4.06-.4.88-.56,1.81-.61,2.77-.11,2.32-.02,4.65-.05,6.97-.88.02-1.77.04-2.65-.01,0-2.33-.07-4.66.02-6.98.07-1.8.59-3.5,1.55-5.05,1.12-1.8,2.62-3.16,4.53-4.05,1.15-.54,2.36-.84,3.65-.92,1.39-.08,2.74.05,4.06.47,1.87.59,3.41,1.69,4.68,3.14,1.04,1.19,1.76,2.58,2.15,4.12.28,1.1.42,2.21.41,3.34-.02,1.97,0,3.95-.01,5.92-.88.05-1.77.03-2.65,0Z"/><path class="cls-12" d="m362.01,321.4c-.98,0-1.96-.02-2.95,0-.28,0-.36-.08-.35-.35.02-.54-.01-1.08.11-1.6.13-.53.29-1.06.43-1.59.19-.72.38-1.43.55-2.16.06-.26.16-.52.24-.78.13-.42,0-.76-.3-.99-.97-.72-1.08-1.71-.98-2.79.05-.03.05-.07.03-.12.29-1.3,1.1-2.13,2.33-2.61.29-.11.6-.05.88-.18.13.02.27.04.4.06.03.07.06.11.12.03.07.02.14.03.21.05.04.09.12.07.19.07,1.37.44,2.57,2.16,2.31,3.59-.12.69-.34,1.28-.86,1.76-.31.29-.67.56-.48,1.09.12.33.22.67.31,1.02.33,1.28.7,2.55,1.01,3.83.12.48.08.98.07,1.48,0,.21-.15.18-.28.18-1,0-2.01,0-3.01.01Z"/><path class="cls-8" d="m362.93,308.45c-.07,0-.15.02-.19-.07.09-.04.15,0,.19.07Z"/><path class="cls-8" d="m362.53,308.33c-.06.08-.1.04-.12-.03.05-.03.09-.01.12.03Z"/><path class="cls-14" d="m358.8,311.04s.03.09-.03.12c-.07-.06-.03-.09.03-.12Z"/><circle class="cls-3" cx="362.12" cy="306.31" r="33.74"/><path class="cls-16" d="m294.13,302.99c.43,0,.86.02,1.29.02.73,0,1.33.6,1.34,1.33,0,.67,0,1.35,0,2.02,0,5.69,0,11.38,0,17.07,0,.37-.01.75-.13,1.1-.13.42-.65.8-1.09.8-4.82,0-9.64,0-14.46,0-.02,0-.04,0-.07,0,0-1.31,0-2.62,0-3.93,1,0,2.01,0,3.01-.01.13,0,.27.03.28-.18,0-.5.04-1-.07-1.48-.31-1.28-.68-2.55-1.01-3.83-.09-.35-.19-.69-.31-1.02-.19-.52.17-.8.48-1.09.52-.48.74-1.07.86-1.76.26-1.43-.95-3.16-2.31-3.59-.05-.07-.1-.11-.19-.07-.07-.02-.14-.03-.21-.05-.03-.04-.07-.06-.12-.03-.13-.02-.27-.04-.4-.06,0-1.74,0-3.48,0-5.22,2.47,0,4.94,0,7.41-.01.15,0,.31-.01.46-.02.88.03,1.77.04,2.65,0,.87.05,1.73.04,2.6,0Z"/><path class="cls-10" d="m281.01,321.4c0,1.31,0,2.62,0,3.93-.5,0-.99.01-1.49.01-4.2,0-8.41-.02-12.61.02-1.11,0-1.68-.59-1.67-1.68.04-6.43.03-12.86,0-19.3,0-.77.62-1.39,1.35-1.37.43,0,.86-.01,1.29-.02.87.02,1.73.04,2.6-.01.88.05,1.76.03,2.65.01.14,0,.29.02.43.02,2.48,0,4.96,0,7.44.01,0,1.74,0,3.48,0,5.22-.28.13-.59.07-.88.18-1.23.48-2.04,1.31-2.33,2.61-.05.03-.09.06-.03.12-.1,1.08.01,2.07.98,2.79.3.22.42.56.3.99-.08.26-.17.51-.24.78-.17.72-.36,1.44-.55,2.16-.14.53-.3,1.05-.43,1.59-.13.53-.09,1.07-.11,1.6,0,.27.06.36.35.35.98-.01,1.96,0,2.95,0Z"/><path class="cls-14" d="m270.49,302.98c-.87.05-1.73.03-2.6.01,0-2.34-.02-4.68.02-7.02.02-1.08.16-2.15.48-3.2.38-1.26.91-2.45,1.64-3.55.91-1.37,2.03-2.54,3.38-3.5.88-.63,1.81-1.19,2.82-1.54,1.01-.35,2.03-.7,3.12-.78.61-.04,1.22-.13,1.83-.12,1.53.03,3,.33,4.43.87,1.43.54,2.72,1.31,3.89,2.29,1.01.84,1.84,1.84,2.55,2.94.5.78.89,1.61,1.23,2.48.19.48.31.97.48,1.45.15.44.18.92.23,1.38.3,2.76.07,5.52.15,8.29-.87.03-1.73.04-2.6,0,0-1.97-.01-3.95.01-5.92.01-1.14-.13-2.25-.41-3.34-.39-1.54-1.11-2.93-2.15-4.12-1.28-1.46-2.82-2.55-4.68-3.14-1.32-.42-2.67-.55-4.06-.47-1.29.08-2.5.38-3.65.92-1.91.89-3.42,2.26-4.53,4.05-.96,1.55-1.49,3.25-1.55,5.05-.09,2.32-.02,4.66-.02,6.98Z"/><path class="cls-8" d="m288.89,302.99c0-2.1.02-4.19,0-6.29-.01-1.11-.17-2.22-.61-3.25-.35-.82-.83-1.57-1.41-2.25-.88-1.02-1.97-1.72-3.2-2.17-1.14-.41-2.34-.55-3.57-.4-.75.09-1.48.27-2.16.56-1.88.82-3.27,2.17-4.13,4.06-.4.88-.56,1.81-.61,2.77-.11,2.32-.02,4.65-.05,6.97-.88.02-1.77.04-2.65-.01,0-2.33-.07-4.66.02-6.98.07-1.8.59-3.5,1.55-5.05,1.12-1.8,2.62-3.16,4.53-4.05,1.15-.54,2.36-.84,3.65-.92,1.39-.08,2.74.05,4.06.47,1.87.59,3.41,1.69,4.68,3.14,1.04,1.19,1.76,2.58,2.15,4.12.28,1.1.42,2.21.41,3.34-.02,1.97,0,3.95-.01,5.92-.88.05-1.77.03-2.65,0Z"/><path class="cls-12" d="m281.01,321.4c-.98,0-1.96-.02-2.95,0-.28,0-.36-.08-.35-.35.02-.54-.01-1.08.11-1.6.13-.53.29-1.06.43-1.59.19-.72.38-1.43.55-2.16.06-.26.16-.52.24-.78.13-.42,0-.76-.3-.99-.97-.72-1.08-1.71-.98-2.79.05-.03.05-.07.03-.12.29-1.3,1.1-2.13,2.33-2.61.29-.11.6-.05.88-.18.13.02.27.04.4.06.03.07.06.11.12.03.07.02.14.03.21.05.04.09.12.07.19.07,1.37.44,2.57,2.16,2.31,3.59-.12.69-.34,1.28-.86,1.76-.31.29-.67.56-.48,1.09.12.33.22.67.31,1.02.33,1.28.7,2.55,1.01,3.83.12.48.08.98.07,1.48,0,.21-.15.18-.28.18-1,0-2.01,0-3.01.01Z"/><path class="cls-8" d="m281.93,308.45c-.07,0-.15.02-.19-.07.09-.04.15,0,.19.07Z"/><path class="cls-8" d="m281.53,308.33c-.06.08-.1.04-.12-.03.05-.03.09-.01.12.03Z"/><path class="cls-14" d="m277.8,311.04s.03.09-.03.12c-.07-.06-.03-.09.03-.12Z"/><circle class="cls-3" cx="281.12" cy="306.31" r="33.74"/><path class="cls-16" d="m356.58,172.82c.48,0,.95.02,1.43.02.81,0,1.48.66,1.49,1.48,0,.75,0,1.5,0,2.24,0,6.32,0,12.65,0,18.97,0,.41-.02.83-.14,1.23-.15.47-.72.89-1.22.89-5.36,0-10.71,0-16.07,0-.02,0-.05,0-.07,0,0-1.46,0-2.91,0-4.37,1.12,0,2.23,0,3.35-.01.14,0,.3.04.31-.2,0-.55.05-1.11-.08-1.64-.35-1.42-.76-2.83-1.12-4.25-.1-.38-.21-.76-.34-1.13-.21-.58.19-.88.53-1.21.58-.53.82-1.19.96-1.95.29-1.59-1.05-3.51-2.57-3.99-.05-.08-.12-.12-.21-.08-.08-.02-.16-.03-.23-.05-.04-.05-.08-.06-.13-.03-.15-.02-.3-.04-.44-.06,0-1.93,0-3.87,0-5.8,2.74,0,5.49,0,8.23-.02.17,0,.34-.01.51-.02.98.03,1.96.04,2.94,0,.96.06,1.92.04,2.89,0Z"/><path class="cls-10" d="m342,193.28c0,1.46,0,2.91,0,4.37-.55,0-1.1.01-1.65.01-4.67,0-9.34-.02-14.01.02-1.23.01-1.87-.66-1.86-1.86.04-7.15.03-14.29,0-21.44,0-.86.69-1.54,1.5-1.52.48,0,.96-.01,1.43-.02.96.02,1.92.05,2.89-.01.98.06,1.96.03,2.94.01.16,0,.32.02.48.02,2.76,0,5.51,0,8.27.01,0,1.93,0,3.87,0,5.8-.31.15-.66.07-.98.2-1.36.53-2.27,1.45-2.59,2.9-.06.03-.1.07-.03.13-.11,1.2.02,2.3,1.09,3.1.34.25.47.63.33,1.1-.08.29-.19.57-.26.86-.19.8-.4,1.6-.61,2.4-.16.59-.34,1.17-.48,1.76-.14.58-.1,1.18-.13,1.78-.01.3.07.4.38.39,1.09-.02,2.18,0,3.27,0Z"/><path class="cls-14" d="m330.31,172.81c-.96.06-1.92.04-2.89.01,0-2.6-.02-5.2.02-7.8.02-1.2.18-2.39.53-3.56.42-1.4,1.02-2.72,1.82-3.94,1.01-1.52,2.26-2.82,3.75-3.89.98-.7,2.01-1.32,3.14-1.71,1.12-.39,2.26-.78,3.47-.86.68-.05,1.35-.15,2.04-.14,1.7.03,3.34.37,4.93.96,1.59.6,3.02,1.46,4.32,2.55,1.12.94,2.04,2.04,2.83,3.27.56.87.99,1.79,1.37,2.75.21.53.35,1.08.53,1.62.17.49.2,1.02.26,1.54.33,3.06.08,6.14.16,9.21-.96.04-1.92.05-2.89,0,0-2.19-.02-4.39.01-6.58.02-1.26-.14-2.5-.45-3.72-.44-1.71-1.23-3.25-2.39-4.57-1.42-1.62-3.13-2.83-5.2-3.49-1.47-.47-2.96-.61-4.51-.52-1.43.08-2.78.42-4.06,1.02-2.13.99-3.8,2.51-5.04,4.5-1.07,1.72-1.65,3.61-1.73,5.61-.09,2.58-.02,5.17-.02,7.76Z"/><path class="cls-8" d="m350.75,172.82c0-2.33.02-4.66,0-6.98-.01-1.24-.19-2.46-.68-3.61-.39-.91-.92-1.74-1.57-2.5-.97-1.13-2.18-1.92-3.56-2.41-1.27-.46-2.6-.61-3.96-.44-.84.1-1.64.3-2.4.62-2.09.91-3.63,2.41-4.59,4.51-.45.98-.62,2.01-.68,3.08-.13,2.58-.02,5.17-.06,7.75-.98.02-1.96.04-2.94-.01,0-2.59-.08-5.18.02-7.76.07-2,.66-3.89,1.73-5.61,1.24-2,2.91-3.51,5.04-4.5,1.28-.6,2.63-.93,4.06-1.02,1.55-.09,3.04.06,4.51.52,2.07.66,3.79,1.88,5.2,3.49,1.16,1.32,1.95,2.86,2.39,4.57.31,1.22.47,2.45.45,3.72-.03,2.19-.01,4.39-.01,6.58-.98.05-1.96.04-2.94,0Z"/><path class="cls-12" d="m342,193.28c-1.09,0-2.18-.02-3.27,0-.31,0-.39-.09-.38-.39.02-.6-.01-1.2.13-1.78.14-.59.32-1.17.48-1.76.21-.8.42-1.59.61-2.4.07-.29.18-.58.26-.86.14-.47,0-.85-.33-1.1-1.08-.8-1.2-1.9-1.09-3.1.06-.03.06-.08.03-.13.32-1.45,1.23-2.37,2.59-2.9.32-.13.67-.05.98-.2.15.02.3.04.44.06.03.08.07.12.13.03.08.02.16.03.23.05.04.1.13.08.21.08,1.52.49,2.86,2.4,2.57,3.99-.14.76-.38,1.43-.96,1.95-.35.32-.75.62-.53,1.21.14.37.24.75.34,1.13.37,1.42.78,2.83,1.12,4.25.13.53.09,1.09.08,1.64,0,.24-.16.2-.31.2-1.12,0-2.23,0-3.35.01Z"/><path class="cls-8" d="m343.03,178.89c-.08,0-.17.03-.21-.08.1-.05.16,0,.21.08Z"/><path class="cls-8" d="m342.58,178.76c-.07.09-.11.04-.13-.03.06-.03.1-.02.13.03Z"/><path class="cls-14" d="m338.43,181.76c.03.05.03.1-.03.13-.07-.06-.03-.1.03-.13Z"/><circle class="cls-3" cx="342.12" cy="176.51" r="37.49"/><path class="cls-16" d="m353.58,51.82c.48,0,.95.02,1.43.02.81,0,1.48.66,1.49,1.48,0,.75,0,1.5,0,2.24,0,6.32,0,12.65,0,18.97,0,.41-.02.83-.14,1.23-.15.47-.72.89-1.22.89-5.36,0-10.71,0-16.07,0-.02,0-.05,0-.07,0,0-1.46,0-2.91,0-4.37,1.12,0,2.23,0,3.35-.01.14,0,.3.04.31-.2,0-.55.05-1.11-.08-1.64-.35-1.42-.76-2.83-1.12-4.25-.1-.38-.21-.76-.34-1.13-.21-.58.19-.88.53-1.21.58-.53.82-1.19.96-1.95.29-1.59-1.05-3.51-2.57-3.99-.05-.08-.12-.12-.21-.08-.08-.02-.16-.03-.23-.05-.04-.05-.08-.06-.13-.03-.15-.02-.3-.04-.44-.06,0-1.93,0-3.87,0-5.8,2.74,0,5.49,0,8.23-.02.17,0,.34-.01.51-.02.98.03,1.96.04,2.94,0,.96.06,1.92.04,2.89,0Z"/><path class="cls-10" d="m339,72.28c0,1.46,0,2.91,0,4.37-.55,0-1.1.01-1.65.01-4.67,0-9.34-.02-14.01.02-1.23.01-1.87-.66-1.86-1.86.04-7.15.03-14.29,0-21.44,0-.86.69-1.54,1.5-1.52.48,0,.96-.01,1.43-.02.96.02,1.92.05,2.89-.01.98.06,1.96.03,2.94.01.16,0,.32.02.48.02,2.76,0,5.51,0,8.27.01,0,1.93,0,3.87,0,5.8-.31.15-.66.07-.98.2-1.36.53-2.27,1.45-2.59,2.9-.06.03-.1.07-.03.13-.11,1.2.02,2.3,1.09,3.1.34.25.47.63.33,1.1-.08.29-.19.57-.26.86-.19.8-.4,1.6-.61,2.4-.16.59-.34,1.17-.48,1.76-.14.58-.1,1.18-.13,1.78-.01.3.07.4.38.39,1.09-.02,2.18,0,3.27,0Z"/><path class="cls-14" d="m327.31,51.81c-.96.06-1.92.04-2.89.01,0-2.6-.02-5.2.02-7.8.02-1.2.18-2.39.53-3.56.42-1.4,1.02-2.72,1.82-3.94,1.01-1.52,2.26-2.82,3.75-3.89.98-.7,2.01-1.32,3.14-1.71,1.12-.39,2.26-.78,3.47-.86.68-.05,1.35-.15,2.04-.14,1.7.03,3.34.37,4.93.96,1.59.6,3.02,1.46,4.32,2.55,1.12.94,2.04,2.04,2.83,3.27.56.87.99,1.79,1.37,2.75.21.53.35,1.08.53,1.62.17.49.2,1.02.26,1.54.33,3.06.08,6.14.16,9.21-.96.04-1.92.05-2.89,0,0-2.19-.02-4.39.01-6.58.02-1.26-.14-2.5-.45-3.72-.44-1.71-1.23-3.25-2.39-4.57-1.42-1.62-3.13-2.83-5.2-3.49-1.47-.47-2.96-.61-4.51-.52-1.43.08-2.78.42-4.06,1.02-2.13.99-3.8,2.51-5.04,4.5-1.07,1.72-1.65,3.61-1.73,5.61-.09,2.58-.02,5.17-.02,7.76Z"/><path class="cls-8" d="m347.75,51.82c0-2.33.02-4.66,0-6.98-.01-1.24-.19-2.46-.68-3.61-.39-.91-.92-1.74-1.57-2.5-.97-1.13-2.18-1.92-3.56-2.41-1.27-.46-2.6-.61-3.96-.44-.84.1-1.64.3-2.4.62-2.09.91-3.63,2.41-4.59,4.51-.45.98-.62,2.01-.68,3.08-.13,2.58-.02,5.17-.06,7.75-.98.02-1.96.04-2.94-.01,0-2.59-.08-5.18.02-7.76.07-2,.66-3.89,1.73-5.61,1.24-2,2.91-3.51,5.04-4.5,1.28-.6,2.63-.93,4.06-1.02,1.55-.09,3.04.06,4.51.52,2.07.66,3.79,1.88,5.2,3.49,1.16,1.32,1.95,2.86,2.39,4.57.31,1.22.47,2.45.45,3.72-.03,2.19-.01,4.39-.01,6.58-.98.05-1.96.04-2.94,0Z"/><path class="cls-12" d="m339,72.28c-1.09,0-2.18-.02-3.27,0-.31,0-.39-.09-.38-.39.02-.6-.01-1.2.13-1.78.14-.59.32-1.17.48-1.76.21-.8.42-1.59.61-2.4.07-.29.18-.58.26-.86.14-.47,0-.85-.33-1.1-1.08-.8-1.2-1.9-1.09-3.1.06-.03.06-.08.03-.13.32-1.45,1.23-2.37,2.59-2.9.32-.13.67-.05.98-.2.15.02.3.04.44.06.03.08.07.12.13.03.08.02.16.03.23.05.04.1.13.08.21.08,1.52.49,2.86,2.4,2.57,3.99-.14.76-.38,1.43-.96,1.95-.35.32-.75.62-.53,1.21.14.37.24.75.34,1.13.37,1.42.78,2.83,1.12,4.25.13.53.09,1.09.08,1.64,0,.24-.16.2-.31.2-1.12,0-2.23,0-3.35.01Z"/><path class="cls-8" d="m340.03,57.89c-.08,0-.17.03-.21-.08.1-.05.16,0,.21.08Z"/><path class="cls-8" d="m339.58,57.76c-.07.09-.11.04-.13-.03.06-.03.1-.02.13.03Z"/><path class="cls-14" d="m335.43,60.76c.03.05.03.1-.03.13-.07-.06-.03-.1.03-.13Z"/><circle class="cls-3" cx="339.12" cy="55.51" r="37.49"/><path class="cls-16" d="m259.58,49.82c.48,0,.95.02,1.43.02.81,0,1.48.66,1.49,1.48,0,.75,0,1.5,0,2.24,0,6.32,0,12.65,0,18.97,0,.41-.02.83-.14,1.23-.15.47-.72.89-1.22.89-5.36,0-10.71,0-16.07,0-.02,0-.05,0-.07,0,0-1.46,0-2.91,0-4.37,1.12,0,2.23,0,3.35-.01.14,0,.3.04.31-.2,0-.55.05-1.11-.08-1.64-.35-1.42-.76-2.83-1.12-4.25-.1-.38-.21-.76-.34-1.13-.21-.58.19-.88.53-1.21.58-.53.82-1.19.96-1.95.29-1.59-1.05-3.51-2.57-3.99-.05-.08-.12-.12-.21-.08-.08-.02-.16-.03-.23-.05-.04-.05-.08-.06-.13-.03-.15-.02-.3-.04-.44-.06,0-1.93,0-3.87,0-5.8,2.74,0,5.49,0,8.23-.02.17,0,.34-.01.51-.02.98.03,1.96.04,2.94,0,.96.06,1.92.04,2.89,0Z"/><path class="cls-10" d="m245,70.28c0,1.46,0,2.91,0,4.37-.55,0-1.1.01-1.65.01-4.67,0-9.34-.02-14.01.02-1.23.01-1.87-.66-1.86-1.86.04-7.15.03-14.29,0-21.44,0-.86.69-1.54,1.5-1.52.48,0,.96-.01,1.43-.02.96.02,1.92.05,2.89-.01.98.06,1.96.03,2.94.01.16,0,.32.02.48.02,2.76,0,5.51,0,8.27.01,0,1.93,0,3.87,0,5.8-.31.15-.66.07-.98.2-1.36.53-2.27,1.45-2.59,2.9-.06.03-.1.07-.03.13-.11,1.2.02,2.3,1.09,3.1.34.25.47.63.33,1.1-.08.29-.19.57-.26.86-.19.8-.4,1.6-.61,2.4-.16.59-.34,1.17-.48,1.76-.14.58-.1,1.18-.13,1.78-.01.3.07.4.38.39,1.09-.02,2.18,0,3.27,0Z"/><path class="cls-14" d="m233.31,49.81c-.96.06-1.92.04-2.89.01,0-2.6-.02-5.2.02-7.8.02-1.2.18-2.39.53-3.56.42-1.4,1.02-2.72,1.82-3.94,1.01-1.52,2.26-2.82,3.75-3.89.98-.7,2.01-1.32,3.14-1.71,1.12-.39,2.26-.78,3.47-.86.68-.05,1.35-.15,2.04-.14,1.7.03,3.34.37,4.93.96,1.59.6,3.02,1.46,4.32,2.55,1.12.94,2.04,2.04,2.83,3.27.56.87.99,1.79,1.37,2.75.21.53.35,1.08.53,1.62.17.49.2,1.02.26,1.54.33,3.06.08,6.14.16,9.21-.96.04-1.92.05-2.89,0,0-2.19-.02-4.39.01-6.58.02-1.26-.14-2.5-.45-3.72-.44-1.71-1.23-3.25-2.39-4.57-1.42-1.62-3.13-2.83-5.2-3.49-1.47-.47-2.96-.61-4.51-.52-1.43.08-2.78.42-4.06,1.02-2.13.99-3.8,2.51-5.04,4.5-1.07,1.72-1.65,3.61-1.73,5.61-.09,2.58-.02,5.17-.02,7.76Z"/><path class="cls-8" d="m253.75,49.82c0-2.33.02-4.66,0-6.98-.01-1.24-.19-2.46-.68-3.61-.39-.91-.92-1.74-1.57-2.5-.97-1.13-2.18-1.92-3.56-2.41-1.27-.46-2.6-.61-3.96-.44-.84.1-1.64.3-2.4.62-2.09.91-3.63,2.41-4.59,4.51-.45.98-.62,2.01-.68,3.08-.13,2.58-.02,5.17-.06,7.75-.98.02-1.96.04-2.94-.01,0-2.59-.08-5.18.02-7.76.07-2,.66-3.89,1.73-5.61,1.24-2,2.91-3.51,5.04-4.5,1.28-.6,2.63-.93,4.06-1.02,1.55-.09,3.04.06,4.51.52,2.07.66,3.79,1.88,5.2,3.49,1.16,1.32,1.95,2.86,2.39,4.57.31,1.22.47,2.45.45,3.72-.03,2.19-.01,4.39-.01,6.58-.98.05-1.96.04-2.94,0Z"/><path class="cls-12" d="m245,70.28c-1.09,0-2.18-.02-3.27,0-.31,0-.39-.09-.38-.39.02-.6-.01-1.2.13-1.78.14-.59.32-1.17.48-1.76.21-.8.42-1.59.61-2.4.07-.29.18-.58.26-.86.14-.47,0-.85-.33-1.1-1.08-.8-1.2-1.9-1.09-3.1.06-.03.06-.08.03-.13.32-1.45,1.23-2.37,2.59-2.9.32-.13.67-.05.98-.2.15.02.3.04.44.06.03.08.07.12.13.03.08.02.16.03.23.05.04.1.13.08.21.08,1.52.49,2.86,2.4,2.57,3.99-.14.76-.38,1.43-.96,1.95-.35.32-.75.62-.53,1.21.14.37.24.75.34,1.13.37,1.42.78,2.83,1.12,4.25.13.53.09,1.09.08,1.64,0,.24-.16.2-.31.2-1.12,0-2.23,0-3.35.01Z"/><path class="cls-8" d="m246.03,55.89c-.08,0-.17.03-.21-.08.1-.05.16,0,.21.08Z"/><path class="cls-8" d="m245.58,55.76c-.07.09-.11.04-.13-.03.06-.03.1-.02.13.03Z"/><path class="cls-14" d="m241.43,58.76c.03.05.03.1-.03.13-.07-.06-.03-.1.03-.13Z"/><circle class="cls-3" cx="245.12" cy="53.51" r="37.49"/><path class="cls-16" d="m72.58,51.82c.48,0,.95.02,1.43.02.81,0,1.48.66,1.49,1.48,0,.75,0,1.5,0,2.24,0,6.32,0,12.65,0,18.97,0,.41-.02.83-.14,1.23-.15.47-.72.89-1.22.89-5.36,0-10.71,0-16.07,0-.02,0-.05,0-.07,0,0-1.46,0-2.91,0-4.37,1.12,0,2.23,0,3.35-.01.14,0,.3.04.31-.2,0-.55.05-1.11-.08-1.64-.35-1.42-.76-2.83-1.12-4.25-.1-.38-.21-.76-.34-1.13-.21-.58.19-.88.53-1.21.58-.53.82-1.19.96-1.95.29-1.59-1.05-3.51-2.57-3.99-.05-.08-.12-.12-.21-.08-.08-.02-.16-.03-.23-.05-.04-.05-.08-.06-.13-.03-.15-.02-.3-.04-.44-.06,0-1.93,0-3.87,0-5.8,2.74,0,5.49,0,8.23-.02.17,0,.34-.01.51-.02.98.03,1.96.04,2.94,0,.96.06,1.92.04,2.89,0Z"/><path class="cls-10" d="m58,72.28c0,1.46,0,2.91,0,4.37-.55,0-1.1.01-1.65.01-4.67,0-9.34-.02-14.01.02-1.23.01-1.87-.66-1.86-1.86.04-7.15.03-14.29,0-21.44,0-.86.69-1.54,1.5-1.52.48,0,.96-.01,1.43-.02.96.02,1.92.05,2.89-.01.98.06,1.96.03,2.94.01.16,0,.32.02.48.02,2.76,0,5.51,0,8.27.01,0,1.93,0,3.87,0,5.8-.31.15-.66.07-.98.2-1.36.53-2.27,1.45-2.59,2.9-.06.03-.1.07-.03.13-.11,1.2.02,2.3,1.09,3.1.34.25.47.63.33,1.1-.08.29-.19.57-.26.86-.19.8-.4,1.6-.61,2.4-.16.59-.34,1.17-.48,1.76-.14.58-.1,1.18-.13,1.78-.01.3.07.4.38.39,1.09-.02,2.18,0,3.27,0Z"/><path class="cls-14" d="m46.31,51.81c-.96.06-1.92.04-2.89.01,0-2.6-.02-5.2.02-7.8.02-1.2.18-2.39.53-3.56.42-1.4,1.02-2.72,1.82-3.94,1.01-1.52,2.26-2.82,3.75-3.89.98-.7,2.01-1.32,3.14-1.71,1.12-.39,2.26-.78,3.47-.86.68-.05,1.35-.15,2.04-.14,1.7.03,3.34.37,4.93.96,1.59.6,3.02,1.46,4.32,2.55,1.12.94,2.04,2.04,2.83,3.27.56.87.99,1.79,1.37,2.75.21.53.35,1.08.53,1.62.17.49.2,1.02.26,1.54.33,3.06.08,6.14.16,9.21-.96.04-1.92.05-2.89,0,0-2.19-.02-4.39.01-6.58.02-1.26-.14-2.5-.45-3.72-.44-1.71-1.23-3.25-2.39-4.57-1.42-1.62-3.13-2.83-5.2-3.49-1.47-.47-2.96-.61-4.51-.52-1.43.08-2.78.42-4.06,1.02-2.13.99-3.8,2.51-5.04,4.5-1.07,1.72-1.65,3.61-1.73,5.61-.09,2.58-.02,5.17-.02,7.76Z"/><path class="cls-8" d="m66.75,51.82c0-2.33.02-4.66,0-6.98-.01-1.24-.19-2.46-.68-3.61-.39-.91-.92-1.74-1.57-2.5-.97-1.13-2.18-1.92-3.56-2.41-1.27-.46-2.6-.61-3.96-.44-.84.1-1.64.3-2.4.62-2.09.91-3.63,2.41-4.59,4.51-.45.98-.62,2.01-.68,3.08-.13,2.58-.02,5.17-.06,7.75-.98.02-1.96.04-2.94-.01,0-2.59-.08-5.18.02-7.76.07-2,.66-3.89,1.73-5.61,1.24-2,2.91-3.51,5.04-4.5,1.28-.6,2.63-.93,4.06-1.02,1.55-.09,3.04.06,4.51.52,2.07.66,3.79,1.88,5.2,3.49,1.16,1.32,1.95,2.86,2.39,4.57.31,1.22.47,2.45.45,3.72-.03,2.19-.01,4.39-.01,6.58-.98.05-1.96.04-2.94,0Z"/><path class="cls-12" d="m58,72.28c-1.09,0-2.18-.02-3.27,0-.31,0-.39-.09-.38-.39.02-.6-.01-1.2.13-1.78.14-.59.32-1.17.48-1.76.21-.8.42-1.59.61-2.4.07-.29.18-.58.26-.86.14-.47,0-.85-.33-1.1-1.08-.8-1.2-1.9-1.09-3.1.06-.03.06-.08.03-.13.32-1.45,1.23-2.37,2.59-2.9.32-.13.67-.05.98-.2.15.02.3.04.44.06.03.08.07.12.13.03.08.02.16.03.23.05.04.1.13.08.21.08,1.52.49,2.86,2.4,2.57,3.99-.14.76-.38,1.43-.96,1.95-.35.32-.75.62-.53,1.21.14.37.24.75.34,1.13.37,1.42.78,2.83,1.12,4.25.13.53.09,1.09.08,1.64,0,.24-.16.2-.31.2-1.12,0-2.23,0-3.35.01Z"/><path class="cls-8" d="m59.03,57.89c-.08,0-.17.03-.21-.08.1-.05.16,0,.21.08Z"/><path class="cls-8" d="m58.58,57.76c-.07.09-.11.04-.13-.03.06-.03.1-.02.13.03Z"/><path class="cls-14" d="m54.43,60.76c.03.05.03.1-.03.13-.07-.06-.03-.1.03-.13Z"/><circle class="cls-3" cx="58.12" cy="55.51" r="37.49"/><path class="cls-16" d="m210.58,173.82c.48,0,.95.02,1.43.02.81,0,1.48.66,1.49,1.48,0,.75,0,1.5,0,2.24,0,6.32,0,12.65,0,18.97,0,.41-.02.83-.14,1.23-.15.47-.72.89-1.22.89-5.36,0-10.71,0-16.07,0-.02,0-.05,0-.07,0,0-1.46,0-2.91,0-4.37,1.12,0,2.23,0,3.35-.01.14,0,.3.04.31-.2,0-.55.05-1.11-.08-1.64-.35-1.42-.76-2.83-1.12-4.25-.1-.38-.21-.76-.34-1.13-.21-.58.19-.88.53-1.21.58-.53.82-1.19.96-1.95.29-1.59-1.05-3.51-2.57-3.99-.05-.08-.12-.12-.21-.08-.08-.02-.16-.03-.23-.05-.04-.05-.08-.06-.13-.03-.15-.02-.3-.04-.44-.06,0-1.93,0-3.87,0-5.8,2.74,0,5.49,0,8.23-.02.17,0,.34-.01.51-.02.98.03,1.96.04,2.94,0,.96.06,1.92.04,2.89,0Z"/><path class="cls-10" d="m196,194.28c0,1.46,0,2.91,0,4.37-.55,0-1.1.01-1.65.01-4.67,0-9.34-.02-14.01.02-1.23.01-1.87-.66-1.86-1.86.04-7.15.03-14.29,0-21.44,0-.86.69-1.54,1.5-1.52.48,0,.96-.01,1.43-.02.96.02,1.92.05,2.89-.01.98.06,1.96.03,2.94.01.16,0,.32.02.48.02,2.76,0,5.51,0,8.27.01,0,1.93,0,3.87,0,5.8-.31.15-.66.07-.98.2-1.36.53-2.27,1.45-2.59,2.9-.06.03-.1.07-.03.13-.11,1.2.02,2.3,1.09,3.1.34.25.47.63.33,1.1-.08.29-.19.57-.26.86-.19.8-.4,1.6-.61,2.4-.16.59-.34,1.17-.48,1.76-.14.58-.1,1.18-.13,1.78-.01.3.07.4.38.39,1.09-.02,2.18,0,3.27,0Z"/><path class="cls-14" d="m184.31,173.81c-.96.06-1.92.04-2.89.01,0-2.6-.02-5.2.02-7.8.02-1.2.18-2.39.53-3.56.42-1.4,1.02-2.72,1.82-3.94,1.01-1.52,2.26-2.82,3.75-3.89.98-.7,2.01-1.32,3.14-1.71,1.12-.39,2.26-.78,3.47-.86.68-.05,1.35-.15,2.04-.14,1.7.03,3.34.37,4.93.96,1.59.6,3.02,1.46,4.32,2.55,1.12.94,2.04,2.04,2.83,3.27.56.87.99,1.79,1.37,2.75.21.53.35,1.08.53,1.62.17.49.2,1.02.26,1.54.33,3.06.08,6.14.16,9.21-.96.04-1.92.05-2.89,0,0-2.19-.02-4.39.01-6.58.02-1.26-.14-2.5-.45-3.72-.44-1.71-1.23-3.25-2.39-4.57-1.42-1.62-3.13-2.83-5.2-3.49-1.47-.47-2.96-.61-4.51-.52-1.43.08-2.78.42-4.06,1.02-2.13.99-3.8,2.51-5.04,4.5-1.07,1.72-1.65,3.61-1.73,5.61-.09,2.58-.02,5.17-.02,7.76Z"/><path class="cls-8" d="m204.75,173.82c0-2.33.02-4.66,0-6.98-.01-1.24-.19-2.46-.68-3.61-.39-.91-.92-1.74-1.57-2.5-.97-1.13-2.18-1.92-3.56-2.41-1.27-.46-2.6-.61-3.96-.44-.84.1-1.64.3-2.4.62-2.09.91-3.63,2.41-4.59,4.51-.45.98-.62,2.01-.68,3.08-.13,2.58-.02,5.17-.06,7.75-.98.02-1.96.04-2.94-.01,0-2.59-.08-5.18.02-7.76.07-2,.66-3.89,1.73-5.61,1.24-2,2.91-3.51,5.04-4.5,1.28-.6,2.63-.93,4.06-1.02,1.55-.09,3.04.06,4.51.52,2.07.66,3.79,1.88,5.2,3.49,1.16,1.32,1.95,2.86,2.39,4.57.31,1.22.47,2.45.45,3.72-.03,2.19-.01,4.39-.01,6.58-.98.05-1.96.04-2.94,0Z"/><path class="cls-12" d="m196,194.28c-1.09,0-2.18-.02-3.27,0-.31,0-.39-.09-.38-.39.02-.6-.01-1.2.13-1.78.14-.59.32-1.17.48-1.76.21-.8.42-1.59.61-2.4.07-.29.18-.58.26-.86.14-.47,0-.85-.33-1.1-1.08-.8-1.2-1.9-1.09-3.1.06-.03.06-.08.03-.13.32-1.45,1.23-2.37,2.59-2.9.32-.13.67-.05.98-.2.15.02.3.04.44.06.03.08.07.12.13.03.08.02.16.03.23.05.04.1.13.08.21.08,1.52.49,2.86,2.4,2.57,3.99-.14.76-.38,1.43-.96,1.95-.35.32-.75.62-.53,1.21.14.37.24.75.34,1.13.37,1.42.78,2.83,1.12,4.25.13.53.09,1.09.08,1.64,0,.24-.16.2-.31.2-1.12,0-2.23,0-3.35.01Z"/><path class="cls-8" d="m197.03,179.89c-.08,0-.17.03-.21-.08.1-.05.16,0,.21.08Z"/><path class="cls-8" d="m196.58,179.76c-.07.09-.11.04-.13-.03.06-.03.1-.02.13.03Z"/><path class="cls-14" d="m192.43,182.76c.03.05.03.1-.03.13-.07-.06-.03-.1.03-.13Z"/><circle class="cls-3" cx="196.12" cy="177.51" r="37.49"/><path class="cls-16" d="m70.58,172.82c.48,0,.95.02,1.43.02.81,0,1.48.66,1.49,1.48,0,.75,0,1.5,0,2.24,0,6.32,0,12.65,0,18.97,0,.41-.02.83-.14,1.23-.15.47-.72.89-1.22.89-5.36,0-10.71,0-16.07,0-.02,0-.05,0-.07,0,0-1.46,0-2.91,0-4.37,1.12,0,2.23,0,3.35-.01.14,0,.3.04.31-.2,0-.55.05-1.11-.08-1.64-.35-1.42-.76-2.83-1.12-4.25-.1-.38-.21-.76-.34-1.13-.21-.58.19-.88.53-1.21.58-.53.82-1.19.96-1.95.29-1.59-1.05-3.51-2.57-3.99-.05-.08-.12-.12-.21-.08-.08-.02-.16-.03-.23-.05-.04-.05-.08-.06-.13-.03-.15-.02-.3-.04-.44-.06,0-1.93,0-3.87,0-5.8,2.74,0,5.49,0,8.23-.02.17,0,.34-.01.51-.02.98.03,1.96.04,2.94,0,.96.06,1.92.04,2.89,0Z"/><path class="cls-10" d="m56,193.28c0,1.46,0,2.91,0,4.37-.55,0-1.1.01-1.65.01-4.67,0-9.34-.02-14.01.02-1.23.01-1.87-.66-1.86-1.86.04-7.15.03-14.29,0-21.44,0-.86.69-1.54,1.5-1.52.48,0,.96-.01,1.43-.02.96.02,1.92.05,2.89-.01.98.06,1.96.03,2.94.01.16,0,.32.02.48.02,2.76,0,5.51,0,8.27.01,0,1.93,0,3.87,0,5.8-.31.15-.66.07-.98.2-1.36.53-2.27,1.45-2.59,2.9-.06.03-.1.07-.03.13-.11,1.2.02,2.3,1.09,3.1.34.25.47.63.33,1.1-.08.29-.19.57-.26.86-.19.8-.4,1.6-.61,2.4-.16.59-.34,1.17-.48,1.76-.14.58-.1,1.18-.13,1.78-.01.3.07.4.38.39,1.09-.02,2.18,0,3.27,0Z"/><path class="cls-14" d="m44.31,172.81c-.96.06-1.92.04-2.89.01,0-2.6-.02-5.2.02-7.8.02-1.2.18-2.39.53-3.56.42-1.4,1.02-2.72,1.82-3.94,1.01-1.52,2.26-2.82,3.75-3.89.98-.7,2.01-1.32,3.14-1.71,1.12-.39,2.26-.78,3.47-.86.68-.05,1.35-.15,2.04-.14,1.7.03,3.34.37,4.93.96,1.59.6,3.02,1.46,4.32,2.55,1.12.94,2.04,2.04,2.83,3.27.56.87.99,1.79,1.37,2.75.21.53.35,1.08.53,1.62.17.49.2,1.02.26,1.54.33,3.06.08,6.14.16,9.21-.96.04-1.92.05-2.89,0,0-2.19-.02-4.39.01-6.58.02-1.26-.14-2.5-.45-3.72-.44-1.71-1.23-3.25-2.39-4.57-1.42-1.62-3.13-2.83-5.2-3.49-1.47-.47-2.96-.61-4.51-.52-1.43.08-2.78.42-4.06,1.02-2.13.99-3.8,2.51-5.04,4.5-1.07,1.72-1.65,3.61-1.73,5.61-.09,2.58-.02,5.17-.02,7.76Z"/><path class="cls-8" d="m64.75,172.82c0-2.33.02-4.66,0-6.98-.01-1.24-.19-2.46-.68-3.61-.39-.91-.92-1.74-1.57-2.5-.97-1.13-2.18-1.92-3.56-2.41-1.27-.46-2.6-.61-3.96-.44-.84.1-1.64.3-2.4.62-2.09.91-3.63,2.41-4.59,4.51-.45.98-.62,2.01-.68,3.08-.13,2.58-.02,5.17-.06,7.75-.98.02-1.96.04-2.94-.01,0-2.59-.08-5.18.02-7.76.07-2,.66-3.89,1.73-5.61,1.24-2,2.91-3.51,5.04-4.5,1.28-.6,2.63-.93,4.06-1.02,1.55-.09,3.04.06,4.51.52,2.07.66,3.79,1.88,5.2,3.49,1.16,1.32,1.95,2.86,2.39,4.57.31,1.22.47,2.45.45,3.72-.03,2.19-.01,4.39-.01,6.58-.98.05-1.96.04-2.94,0Z"/><path class="cls-12" d="m56,193.28c-1.09,0-2.18-.02-3.27,0-.31,0-.39-.09-.38-.39.02-.6-.01-1.2.13-1.78.14-.59.32-1.17.48-1.76.21-.8.42-1.59.61-2.4.07-.29.18-.58.26-.86.14-.47,0-.85-.33-1.1-1.08-.8-1.2-1.9-1.09-3.1.06-.03.06-.08.03-.13.32-1.45,1.23-2.37,2.59-2.9.32-.13.67-.05.98-.2.15.02.3.04.44.06.03.08.07.12.13.03.08.02.16.03.23.05.04.1.13.08.21.08,1.52.49,2.86,2.4,2.57,3.99-.14.76-.38,1.43-.96,1.95-.35.32-.75.62-.53,1.21.14.37.24.75.34,1.13.37,1.42.78,2.83,1.12,4.25.13.53.09,1.09.08,1.64,0,.24-.16.2-.31.2-1.12,0-2.23,0-3.35.01Z"/><path class="cls-8" d="m57.03,178.89c-.08,0-.17.03-.21-.08.1-.05.16,0,.21.08Z"/><path class="cls-8" d="m56.58,178.76c-.07.09-.11.04-.13-.03.06-.03.1-.02.13.03Z"/><path class="cls-14" d="m52.43,181.76c.03.05.03.1-.03.13-.07-.06-.03-.1.03-.13Z"/><circle class="cls-3" cx="56.12" cy="176.51" r="37.49"/><circle class="cls-2" cx="153.28" cy="54.44" r="40.5"/><path class="cls-9" d="m142.12,38.87c.42.19.67.62.63,1.08v4.86h-1.71v-4.77c-.03-.43.18-.85.54-1.08h.54v-.09Z"/><path class="cls-9" d="m159.31,38.87c.4.2.61.64.54,1.08v4.86h-1.71v-4.77c-.03-.43.18-.85.54-1.08h.54l.09-.09Z"/><path class="cls-9" d="m163.9,44.81v-4.77c-.03-.43.18-.85.54-1.08h.54c.37.18.59.58.54.99v4.86h-1.62Z"/><path class="cls-9" d="m178.12,64.16c-.27.36-.73.54-1.17.45h-4.77v-1.71h4.86c.41-.03.8.18.99.54v.72h.09Z"/><path class="cls-9" d="m153.55,38.87c.4.2.61.64.54,1.08v4.86h-1.71v-4.95c-.04-.43.22-.84.63-.99h.54Z"/><path class="cls-9" d="m142.75,82.7v4.59c0,.63-.09,1.08-.81,1.26h-.27c-.43-.31-.67-.82-.63-1.35v-4.59h1.71v.09Z"/><path class="cls-9" d="m159.94,82.7v4.68c.07.53-.23,1.05-.72,1.26h-.27c-.46-.28-.71-.81-.63-1.35v-4.59h1.62Z"/><path class="cls-9" d="m164.53,88.64c-.43-.31-.67-.82-.63-1.35v-4.59h1.71v4.59c0,.63-.09,1.08-.81,1.26h-.27v.09Z"/><path class="cls-9" d="m134.29,53.09h-4.95c-.4.01-.78-.2-.99-.54v-.72c.3-.33.73-.5,1.17-.45h4.77v1.71Z"/><path class="cls-9" d="m128.44,74.87c.19-.36.58-.57.99-.54h4.95v1.71h-4.77c-.44.05-.87-.12-1.17-.45v-.72Z"/><path class="cls-9" d="m172.27,74.33c1.26.09,2.52,0,3.87,0h1.08c.4-.01.78.2.99.54v.54c-.21.34-.59.55-.99.54h-4.95v-1.62Z"/><path class="cls-9" d="m134.29,58.82h-4.95c-.4.01-.78-.2-.99-.54v-.63c.19-.36.58-.57.99-.54h4.95v1.71Z"/><path class="cls-9" d="m146.71,44.81v-4.89c-.01-.43.19-.83.54-1.08h.54c.36.23.57.65.54,1.08v4.86l-1.62.03Z"/><path class="cls-9" d="m172.27,68.66h4.95c.4-.01.78.2.99.54v.54c-.19.36-.58.57-.99.54h-4.95v-1.62Z"/><path class="cls-9" d="m178.12,58.31c-.19.36-.58.57-.99.54h-4.95v-1.71h4.95c.4-.01.78.2.99.54v.63Z"/><path class="cls-9" d="m134.29,64.52h-4.77c-.43.03-.85-.18-1.08-.54v-.54c.26-.33.66-.53,1.08-.54h4.77v1.62Z"/><path class="cls-9" d="m128.44,69.2c.19-.36.58-.57.99-.54h4.95v1.62h-4.95c-.4.01-.78-.2-.99-.54v-.54Z"/><path class="cls-9" d="m178.12,52.52c-.28.35-.72.55-1.17.54h-4.68v-1.71c1.26.09,2.61,0,3.87,0h.9c.46-.04.89.21,1.08.63v.54Z"/><path class="cls-13" d="m147.34,88.64c-.46-.24-.71-.75-.63-1.26v-4.68h1.71c-.09,1.08,0,2.16,0,3.24v1.44c.13.52-.19,1.04-.7,1.17,0,0-.01,0-.02,0h-.27l-.09.09Z"/><path class="cls-13" d="m153.1,88.64c-.41-.25-.65-.69-.63-1.17v-4.68h1.62v4.77c.07.51-.23,1-.72,1.17h-.27v-.09Z"/><path class="cls-11" d="m154.09,82.7h-19.08c-.54,0-.72-.27-.72-.81v-36.27c-.05-.39.22-.76.62-.81.06,0,.13,0,.19,0h36.36c.54,0,.72.27.72.81v36.36c0,.54-.27.81-.72.81h-17.46l.09-.09Zm-.81-6.39h11.97c.45,0,.54-.09.54-.54v-24.03c0-.45-.09-.54-.54-.54h-24.03c-.45,0-.54.09-.54.54v24.03c0,.45.09.54.54.54h12.06Z"/><path class="cls-13" d="m153.28,76.31h-11.97c-.45,0-.54-.09-.54-.54v-24.03c0-.45.09-.54.54-.54h24.03c.45,0,.54.09.54.54v24.03c0,.45-.18.54-.54.54h-12.06Zm-8.46-12.51c0,4.67,3.79,8.46,8.46,8.46,4.67,0,8.46-3.79,8.46-8.46s-3.79-8.46-8.46-8.46h0c-4.68.02-8.48,3.78-8.55,8.46h.09Z"/><path class="cls-15" d="m144.82,63.71c0-4.67,3.79-8.46,8.46-8.46s8.46,3.79,8.46,8.46-3.79,8.46-8.46,8.46h0c-4.67,0-8.46-3.77-8.46-8.44v-.02Zm7.83,6.12c.11-.1.2-.22.27-.36.99-1.53,1.98-3.15,2.97-4.68l1.17-1.89h-2.43c-.36,0-.45-.09-.45-.45v-4.86c-.47.59-.89,1.23-1.26,1.89l-2.88,4.59c0,.09-.18.18-.18.36s.27,0,.36,0h1.89c.36,0,.54.09.54.54v4.77h0v.09Z"/><path class="cls-6" d="m152.56,68.12v-3.06c0-.45-.09-.54-.54-.54h-2.25s0-.27.18-.36l2.88-4.59c.36-.63.81-1.26,1.26-1.89v4.86c0,.36.09.45.45.45h1.44l-2.43,3.78c-.27.49-.6.94-.99,1.35Z"/><path class="cls-7" d="m152.56,68.12c.4-.38.71-.84.9-1.35l2.43-3.78h.99l-1.17,1.89c-.99,1.53-1.98,3.15-2.97,4.68,0,.09-.18.27-.27.36h0v-1.71l.09-.09Z"/><path d="m123.4,40.67c2.02.66,3.12,2.84,2.46,4.86,0,.03-.02.06-.03.09l-.54,1.62,3.33,1.17-.81,2.43-10.71-3.6,1.35-4.05c.69-2.05,2.89-3.17,4.95-2.52Zm-.81,2.43c-.65-.3-1.43-.02-1.73.63-.03.06-.05.12-.07.18l-.54,1.62,2.79.9.54-1.62c.23-.74-.16-1.54-.9-1.8l-.09.09Z"/><path d="m126.73,34.28l2.34,1.53c-.81.68-.92,1.88-.24,2.69.12.14.26.27.42.37l3.06,2.07-1.35,1.98-6.75-4.5,1.35-1.98,1.17.81c-.63-.86-.63-2.02,0-2.88v-.09Z"/><path d="m130.6,35.81c-1.57-1.76-1.41-4.47.36-6.04s4.47-1.41,6.04.36c1.57,1.76,1.41,4.47-.36,6.04h0c-1.7,1.57-4.36,1.47-5.93-.24-.04-.04-.07-.08-.1-.12Zm4.59-4.05c-.56-.76-1.64-.92-2.4-.36-.07.05-.14.11-.21.18-.77.63-.88,1.77-.25,2.53.05.06.1.11.16.17.56.76,1.64.92,2.4.36.07-.05.14-.11.21-.18.77-.63.88-1.77.25-2.53-.05-.06-.1-.11-.16-.17h0Z"/><path d="m138.16,29.42c-1-2.12-.09-4.65,2.03-5.65.01,0,.02-.01.04-.02,1.35-.62,2.92-.48,4.14.36l-1.44,1.98c-.52-.38-1.21-.45-1.8-.18-.9.36-1.33,1.37-.97,2.27.02.05.05.11.07.16.4.94,1.48,1.39,2.43.99,0,0,0,0,0,0,.62-.22,1.04-.79,1.08-1.44l2.43.27c-.11,1.5-1.04,2.82-2.43,3.42-2.14.98-4.66.04-5.64-2.1,0-.02-.02-.04-.03-.06h.09Z"/><path d="m150.94,27.32c.58-.04,1.1-.34,1.44-.81l2.07.81c-.67,1.2-1.88,2-3.24,2.16-2.23.47-4.42-.97-4.89-3.2-.03-.13-.05-.26-.06-.4-.39-2.27,1.12-4.42,3.39-4.82.1-.02.2-.03.3-.04,2.17-.34,4.21,1.14,4.55,3.31.02.13.03.25.04.38v.99l-5.67.81c.41.73,1.26,1.09,2.07.9v-.09Zm1.08-3.15c-.29-.77-1.08-1.22-1.89-1.08-.84.02-1.51.69-1.53,1.53l3.42-.45Z"/><path d="m161.83,27.32c-.27,1.89-1.98,2.43-3.69,2.16-1.44-.05-2.69-.98-3.15-2.34l2.25-.9c.09.64.61,1.13,1.26,1.17.54,0,.9,0,.9-.36.09-.9-3.87-.99-3.51-3.69.27-1.71,1.8-2.43,3.51-2.25,1.28.15,2.37.98,2.88,2.16l-2.16.81c-.11-.46-.52-.79-.99-.81-.45,0-.72,0-.72.36-.09.9,3.87.81,3.51,3.78l-.09-.09Z"/><path d="m168.4,29.87c-.63,1.71-2.43,1.89-4.05,1.26-1.41-.38-2.42-1.61-2.52-3.06l2.34-.36c-.06.61.32,1.17.9,1.35.54.18.9.18.99-.18.36-.81-3.51-1.8-2.52-4.41.63-1.62,2.34-1.98,3.87-1.35,1.23.44,2.12,1.5,2.34,2.79l-2.34.27c0-.47-.28-.9-.72-1.08-.36-.18-.72-.09-.81.18-.36.9,3.6,1.71,2.52,4.5v.09Z"/><path d="m170.11,28.79c1.42-1.86,4.08-2.23,5.94-.81,1.86,1.42,2.23,4.08.81,5.94-1.42,1.86-4.08,2.23-5.94.81-1.86-1.39-2.24-4.02-.85-5.88.01-.02.03-.04.04-.06Zm4.86,3.69c.65-.75.57-1.89-.18-2.54-.03-.02-.06-.05-.09-.07-.77-.63-1.9-.51-2.53.26-.03.03-.05.07-.08.1-.65.75-.57,1.89.18,2.54.03.02.06.05.09.07.77.63,1.9.51,2.53-.26.03-.03.05-.07.08-.1h0Z"/><path d="m184.15,36.62l-2.16,1.71c-.39-.99-1.51-1.47-2.5-1.08-.17.07-.33.16-.47.27l-2.88,2.25-1.44-1.89,6.39-4.95,1.44,1.89-1.17.9c1-.39,2.13,0,2.7.9h.09Z"/><path d="m182.71,46.61c-1.71.81-3.06-.36-3.87-1.89-.73-1.25-.63-2.82.27-3.96l1.98,1.35c-.45.42-.56,1.08-.27,1.62.27.54.54.72.81.54.81-.36-1.35-3.78,1.26-4.95,1.62-.72,3.06.18,3.78,1.71.59,1.16.49,2.54-.27,3.6l-1.89-1.35c.32-.34.4-.84.18-1.26-.18-.36-.45-.54-.72-.45-.81.36,1.44,3.69-1.26,4.95v.09Z"/><line class="cls-1" x1="200.39" y1="224.79" x2="200.29" y2="243.44"/><line class="cls-1" x1="39.5" y1="243.87" x2="360.5" y2="243.87"/><line class="cls-4" x1="39.92" y1="243.67" x2="39.92" y2="252.99"/><polygon class="cls-17" points="33.44 251.1 39.92 262.32 46.41 251.1 33.44 251.1"/><line class="cls-4" x1="120.07" y1="243.67" x2="120.07" y2="252.99"/><polygon class="cls-17" points="113.59 251.1 120.07 262.32 126.55 251.1 113.59 251.1"/><line class="cls-4" x1="200.21" y1="243.67" x2="200.21" y2="252.99"/><polygon class="cls-17" points="193.73 251.1 200.21 262.32 206.69 251.1 193.73 251.1"/><line class="cls-4" x1="280.36" y1="243.67" x2="280.36" y2="252.99"/><polygon class="cls-17" points="273.87 251.1 280.36 262.32 286.84 251.1 273.87 251.1"/><line class="cls-4" x1="360.5" y1="243.67" x2="360.5" y2="252.99"/><polygon class="cls-17" points="354.02 251.1 360.5 262.32 366.98 251.1 354.02 251.1"/><line class="cls-1" x1="196.61" y1="133.69" x2="196.53" y2="115.05"/><line class="cls-1" x1="59.04" y1="115.61" x2="340.96" y2="115.61"/><line class="cls-4" x1="59.47" y1="106.49" x2="59.47" y2="97.16"/><polygon class="cls-17" points="65.96 104.59 59.48 115.81 52.99 104.59 65.96 104.59"/><line class="cls-4" x1="153.14" y1="106.49" x2="153.14" y2="97.16"/><polygon class="cls-17" points="159.62 104.59 153.14 115.81 146.66 104.59 159.62 104.59"/><line class="cls-4" x1="246.81" y1="106.49" x2="246.81" y2="97.16"/><polygon class="cls-17" points="253.29 104.59 246.81 115.81 240.33 104.59 253.29 104.59"/><line class="cls-4" x1="340.47" y1="106.49" x2="340.47" y2="97.16"/><polygon class="cls-17" points="346.96 104.59 340.48 115.81 333.99 104.59 346.96 104.59"/><line class="cls-5" x1="250.17" y1="177.45" x2="297.55" y2="176.72"/><line class="cls-4" x1="250.17" y1="177.45" x2="286.79" y2="176.89"/><polygon class="cls-17" points="284.72 184.4 297.55 176.73 284.49 169.44 284.72 184.4"/><line class="cls-5" x1="102.45" y1="177.45" x2="149.83" y2="176.72"/><line class="cls-4" x1="113.21" y1="177.28" x2="149.83" y2="176.72"/><polygon class="cls-17" points="115.51 184.73 102.45 177.45 115.28 169.77 115.51 184.73"/></svg>