<?xml version="1.0" encoding="UTF-8"?><svg id="Layer_1" xmlns="http://www.w3.org/2000/svg" viewBox="0 0 400 400"><defs><style>.cls-1{fill:#eb917f;}.cls-2{fill:#fbe501;}.cls-3{fill:#a5c2db;}.cls-4{fill:#d1fdbf;}.cls-5{fill:#f9f3b1;}.cls-6{fill:#999afe;}.cls-7{fill:#f3bd99;}.cls-8{stroke:#c000e2;}.cls-8,.cls-9{stroke-width:4px;}.cls-8,.cls-9,.cls-10{stroke-miterlimit:10;}.cls-8,.cls-9,.cls-10,.cls-11{fill:none;}.cls-12{fill:#00f6d5;}.cls-13{fill:#01264f;}.cls-14{fill:#7ac943;}.cls-15{fill:#034868;}.cls-16{fill:#f4bd99;}.cls-17{fill:#fedd46;}.cls-18{fill:#02f6d5;}.cls-19{fill:#06687f;}.cls-9{stroke:#00b51e;}.cls-20{fill:#555a6e;}.cls-21{fill:#463c4b;}.cls-22{fill:#a5c3db;}.cls-23{fill:#d3e4ee;}.cls-24{fill:#2489c4;}.cls-10{stroke:#231f20;stroke-width:2px;}.cls-25{fill:#58d4fc;}.cls-26{fill:#d6e5ef;}.cls-27{fill:#ff931e;}.cls-28{fill:#0071bc;}.cls-29{fill:#b7b7fe;}.cls-30{fill:#2487c3;}.cls-31{fill:#979bfd;}.cls-32{fill:#97d6e5;}.cls-33{fill:#7dcbe5;}.cls-34{fill:#eecf15;}.cls-35{fill:#2387c3;}.cls-36{fill:#9dd8e6;}.cls-37{fill:#2487c2;}.cls-38{fill:#0092b9;}.cls-39{fill:#e5eff1;}.cls-40{fill:#2387c2;}.cls-41{fill:#69a6fe;}.cls-42{fill:#b8b8fd;}.cls-43{fill:#a4c2db;}.cls-44{fill:#231f20;}.cls-45{fill:#00dbe6;}.cls-46{fill:#9fddea;}.cls-47{fill:#fccc07;}.cls-48{fill:#067fa6;}</style></defs><line class="cls-11" x1="199.75" y1="113.36" x2="200.25" y2="146.14"/><line class="cls-10" x1="199.83" y1="113.36" x2="200.17" y2="135.38"/><polygon class="cls-44" points="192.52 133.3 200.2 146.14 207.48 133.07 192.52 133.3"/><line class="cls-11" x1="199.75" y1="290.14" x2="200.25" y2="257.36"/><line class="cls-10" x1="199.83" y1="290.14" x2="200.17" y2="268.12"/><polygon class="cls-44" points="207.48 270.43 200.2 257.36 192.52 270.2 207.48 270.43"/><path d="m52.07,169.05l1.2,3.8-1.9.6-1.1-3.5c-.06-.55-.56-.94-1.11-.88-.1.01-.2.04-.29.08-.59.14-.95.72-.81,1.31.02.1.06.2.11.29l1.1,3.4-1.9.6-2-6.2,1.9-.6.2.6c.23-.67.81-1.16,1.5-1.3,1.29-.4,2.65.33,3.05,1.61.02.06.04.12.05.19Z"/><path d="m52.97,164.75c-.08-.64.36-1.22,1-1.3.64-.08,1.22.36,1.3,1s-.36,1.22-1,1.3c0,0,0,0,0,0-.62.02-1.16-.4-1.3-1Zm.4,1.7l1.9-.3.9,6.4-1.9.3-.9-6.4Z"/><path d="m57.07,169.15c0-1.88,1.52-3.4,3.4-3.4.03,0,.07,0,.1,0,1.21-.03,2.33.63,2.9,1.7l-1.7,1c-.34-.71-1.18-1.01-1.89-.67-.53.25-.85.79-.81,1.37-.06.77.51,1.43,1.28,1.5.04,0,.08,0,.12,0,.53.03,1.03-.24,1.3-.7l1.7,1c-1.03,1.62-3.17,2.1-4.79,1.07-1.02-.64-1.63-1.77-1.61-2.97v.1Z"/><path d="m71.57,167.75l-1.6,6.3-1.9-.5v-.6c-.54.42-1.26.53-1.9.3-1.71-.48-2.72-2.25-2.24-3.96.01-.05.03-.09.04-.14.34-1.76,2.03-2.92,3.8-2.6.72.13,1.34.57,1.7,1.2v-.6c.1,0,2,.5,2,.5l.1.1Zm-2.7,2.7c.22-.83-.27-1.68-1.1-1.9,0,0,0,0,0,0-.8-.23-1.64.24-1.86,1.04-.01.05-.03.11-.04.16-.22.83.27,1.68,1.1,1.9,0,0,0,0,0,0,.8.23,1.64-.24,1.86-1.04.01-.05.03-.11.04-.16Z"/><path d="m330.14,167.55l4.5-1.1.4,1.7-4.5,1.1-.4-1.7Z"/><path d="m336.33,167.65c-.05-1.78,1.32-3.29,3.1-3.4,1.14-.08,2.23.51,2.8,1.5l-1.6,1c-.23-.44-.71-.68-1.2-.6-.7-.03-1.29.52-1.32,1.22,0,.09,0,.19.02.28-.02.76.58,1.38,1.34,1.4.02,0,.04,0,.06,0,.5,0,.95-.27,1.2-.7l1.6.9c-.53,1.01-1.56,1.65-2.7,1.7-1.79.08-3.32-1.3-3.4-3.09,0,0,0,0,0,0l.1-.2Z"/><path d="m342.83,167.45c.27-1.77,1.93-2.99,3.7-2.72,1.77.27,2.99,1.93,2.72,3.7-.27,1.77-1.93,2.99-3.7,2.72,0,0-.01,0-.02,0-1.74-.23-2.95-1.83-2.72-3.56,0-.05.01-.09.02-.14Zm4.6.8c.13-.77-.35-1.51-1.1-1.7-.71-.15-1.41.32-1.56,1.03-.01.06-.02.11-.02.17-.13.77.35,1.51,1.1,1.7.71.15,1.41-.32,1.56-1.03.01-.06.02-.11.02-.17Z"/><path d="m359.24,172.15l-1.6,3.4-1.7-.8,1.5-3.3c.3-.6.2-1-.4-1.3s-1,0-1.4.6l-1.5,3.1-1.7-.8,1.5-3.3c.3-.6.2-1-.4-1.3s-1,0-1.4.6l-1.5,3.1-1.7-.8,2.6-5.5,1.7.8-.2.5c.56-.3,1.24-.3,1.8,0,.6.23,1.02.77,1.1,1.4.63-.3,1.37-.3,2,0,1.14.49,1.67,1.81,1.19,2.95-.05.12-.11.24-.19.35l.3.3Z"/><path class="cls-26" d="m314.83,224.75h45.7c.05.78-.05,1.56-.3,2.3-.46,1.21-1.53,2.08-2.8,2.3h-39c-1.92-.02-3.48-1.58-3.5-3.5v-1l-.1-.1Z"/><path class="cls-26" d="m342.14,232.95h.1c-.85.61-1.25,1.68-1,2.7h-12.3c-.4,0-.5,0-.5-.5-.17-1.09.57-2.12,1.66-2.29.18-.03.36-.03.54-.01h2.7c.4,0,.6,0,.6-.5v-1.3h4.1q1.3,0,1.3,1.3c0,.5.2.6.6.6h2.2Z"/><path class="cls-43" d="m342.14,232.95h-2.2c-.4,0-.6,0-.6-.6q0-1.3-1.3-1.3h-4.1v-1.8h8.2v3.7Z"/><path class="cls-22" d="m360.43,224.85h3.6c.13,1.08-.12,2.18-.7,3.1-.61.89-1.62,1.42-2.7,1.4h-3.2c1.27-.22,2.34-1.09,2.8-2.3.25-.71.35-1.45.3-2.2h-.1Z"/><path class="cls-3" d="m341.24,235.75c-.25-1.02.15-2.09,1-2.7h2.6c1.4,0,2,1.2,1.8,2.5,0,.3-.3.2-.5.2h-4.9Z"/><line class="cls-11" x1="110.87" y1="202" x2="143.65" y2="201.5"/><line class="cls-10" x1="110.87" y1="202" x2="132.89" y2="201.66"/><polygon class="cls-44" points="130.81 209.18 143.65 201.5 130.58 194.22 130.81 209.18"/><line class="cls-11" x1="288.65" y1="202" x2="255.86" y2="201.5"/><line class="cls-10" x1="288.65" y1="202" x2="266.62" y2="201.66"/><polygon class="cls-44" points="268.93 194.22 255.86 201.5 268.71 209.18 268.93 194.22"/><circle class="cls-8" cx="59.57" cy="202.75" r="45"/><path d="m24.47,200.25c-2.5-.43-4.19-2.8-3.76-5.31.02-.1.04-.19.06-.29.27-1.55,1.33-2.84,2.8-3.4l.7,2c-.82.3-1.4,1.04-1.5,1.9-.36,1.31.41,2.66,1.72,3.03.13.03.25.06.38.07,1.36.37,2.76-.43,3.13-1.78.03-.1.05-.21.07-.32.26-.84-.02-1.75-.7-2.3l1.4-1.6c1.13,1.08,1.62,2.67,1.3,4.2-.43,2.5-2.8,4.19-5.31,3.76-.1-.02-.19-.04-.29-.06v.1Z"/><path d="m27.87,191.15c-1.71-.83-2.42-2.89-1.59-4.6.83-1.71,2.89-2.42,4.6-1.59,1.71.83,2.42,2.88,1.6,4.59-.85,1.69-2.89,2.4-4.6,1.6Zm2.2-4.4c-.72-.37-1.61-.08-1.98.65,0,.02-.02.03-.02.05-.34.75-.03,1.63.7,2,.72.37,1.61.08,1.98-.65,0-.02.02-.03.02-.05.38-.69.13-1.55-.55-1.93-.05-.03-.1-.05-.15-.07Z"/><path d="m37.57,175.95l2.9,2.7-1.3,1.4-2.8-2.6c-.5-.4-1-.5-1.4,0-.39.43-.36,1.1.07,1.5.04.04.09.07.13.1l2.7,2.5-1.3,1.4-2.81-2.6c-.5-.4-1-.5-1.4,0-.39.43-.36,1.1.07,1.5.04.04.09.07.13.1l2.7,2.5-1.3,1.4-4.8-4.4,1.3-1.4.4.4c-.12-.66.11-1.34.6-1.8.42-.55,1.12-.82,1.8-.7-.12-.72.1-1.46.6-2,.91-1.02,2.48-1.12,3.5-.21.07.07.14.14.21.21Z"/><path d="m43.17,169.65l3.4,5.6-1.7,1-.3-.5c-.06.72-.53,1.34-1.2,1.6-1.13.72-2.63.39-3.36-.74-.05-.08-.1-.17-.14-.26l-2.11-3.4,1.7-1,1.9,3.2c.19.52.77.78,1.29.59.12-.04.22-.11.31-.19.56-.32.76-1.05.43-1.61-.04-.07-.08-.13-.13-.19l-1.8-3,1.7-1v-.1Z"/><path d="m75.17,171.45l-1,2.1c-.2.5.2.8,1,1.1l-.8,1.6c-2.4-.9-2.8-1.9-2-3.5l1-2.1-.9-.4.8-1.7.9.4.5-1.1,2,.3-.8,1.6,1.2.6-.8,1.7-1.2-.6h.1Z"/><path d="m78.57,171.15l1.6,1-3.5,5.5-1.6-1,3.5-5.5Zm.8-1.6c.33-.56,1.05-.74,1.6-.41.56.33.74,1.05.41,1.6-.33.56-1.05.74-1.6.41,0,0,0,0,0,0-.52-.36-.69-1.04-.4-1.6h0Z"/><path d="m79.67,175.65c1.3-1.41,3.49-1.5,4.9-.2,1.41,1.3,1.5,3.49.2,4.9-1.3,1.41-3.49,1.5-4.9.2,0,0,0,0,0,0-1.41-1.3-1.5-3.49-.2-4.9Zm3.7,3.3c.58-.55.6-1.47.05-2.05-.02-.02-.03-.03-.05-.05-.52-.56-1.39-.59-1.95-.06-.05.05-.1.11-.15.16-.55.58-.53,1.5.05,2.05.58.55,1.5.53,2.05-.05,0,0,0,0,0,0Z"/><path d="m89.76,186.05l-3.3,2.2-1.1-1.6,3.1-2.1c.5-.23.72-.83.49-1.33-.05-.1-.11-.19-.19-.27-.4-.6-1-.8-1.8-.2l-2.9,2-1.1-1.6,5.4-3.7,1.1,1.6-.5.3c.71.07,1.34.48,1.7,1.1.75,1.1.46,2.6-.64,3.35-.08.06-.17.11-.26.15v.1Z"/><path d="m91.67,193.75c-1.54.61-3.28-.14-3.89-1.68-.04-.1-.08-.21-.11-.32-.57-1.24-.34-2.7.6-3.7l1.6,1.3c-.54.38-.71,1.11-.4,1.7.3.8.9,1,1.4.8s.8-.7.5-1.5l-1-2.7,5-1.6,1.9,4.9-1.8.7-1.2-3.1-1.2.4.3.7c.7,1.42.11,3.14-1.31,3.84-.13.06-.26.11-.39.16v.1Z"/><path d="m94.47,203.85c-2.33.36-4.5-1.24-4.86-3.57-.02-.14-.04-.29-.04-.43-.35-2.63,1.5-5.04,4.13-5.39.02,0,.05,0,.07,0,2.6-.27,4.92,1.62,5.19,4.22,0,.03,0,.06,0,.08.21,1.6-.43,3.2-1.7,4.2l-1.2-1.7c.66-.57.96-1.45.8-2.3-.19-1.49-1.56-2.54-3.05-2.35-1.49.19-2.54,1.56-2.35,3.05h0c0,1,.65,1.89,1.6,2.2l-.3-2.4,1.8-.2.5,4.5h-.8l.2.1Z"/><path class="cls-17" d="m71.47,189.85c-8.5-.2-17.8-.2-26.3,0-14.8,1.9-22,20.9-11.6,31.8,2.2,3.3-1.6,9.5,2.3,11.8,3.3,1,5.2-3.4,7.4-5.1,9.2-1,20.3.5,29.8-.5,22.1-2.9,20.7-37.2-1.6-38.2v.2Z"/><path d="m49.57,206.15c1.6-.04,3.16.49,4.4,1.5,1.19,1.1,1.82,2.68,1.7,4.3.08,1.71-.62,3.36-1.9,4.5-1.31,1.1-2.99,1.67-4.7,1.6-1.44.09-2.87-.26-4.1-1-1.16-.67-2.05-1.74-2.5-3l4-2.3c.29,1.18,1.39,1.98,2.6,1.9,1.4,0,1.1-.1,1.5-.4.66-.66.67-1.73,0-2.39,0,0,0,0,0,0-.4-.3-.9-.45-1.4-.4h-5.7l.7-10.5h10.5v4.4h-6.3v1.9h1.1l.1-.1Z"/><path d="m75.27,207.45v1.8c.09,2.39-.81,4.71-2.5,6.4-1.72,1.63-4.03,2.5-6.4,2.4-2.57.05-5.05-.92-6.9-2.7-3.65-3.62-3.67-9.51-.05-13.15,1.76-1.77,4.15-2.76,6.65-2.75,1.61-.12,3.22.26,4.6,1.1,1.35.64,2.47,1.69,3.2,3l-3.9,2.2c-.39-.59-.95-1.04-1.6-1.3-.73-.32-1.51-.49-2.3-.5-2.64-.07-4.83,2.02-4.9,4.66,0,.08,0,.16,0,.24-.04,1.29.42,2.55,1.3,3.5.99,1.02,2.39,1.53,3.8,1.4,1.69.08,3.29-.81,4.1-2.3h-4.3v-3.9h9l.2-.1Z"/><circle class="cls-8" cx="340.43" cy="201.75" r="45"/><path d="m308.83,206.35l.6-1.1,1.6,1-.7,1.2c.45.53.79,1.14,1,1.8.71,2.3-.58,4.73-2.88,5.44-.07.02-.15.04-.22.06-2.34.68-4.8-.67-5.48-3.01,0-.03-.02-.06-.02-.09-.71-2.3.58-4.73,2.88-5.44.07-.02.15-.04.22-.06.99-.29,2.05-.22,3,.2Zm.5,2.9l-.9,1.5-1.6-1,1-1.7c-.46-.1-.94-.1-1.4,0-1.34.34-2.15,1.71-1.81,3.05,0,.02,0,.03.01.05.37,1.32,1.74,2.08,3.06,1.71.01,0,.03,0,.04-.01,1.34-.34,2.15-1.71,1.81-3.05,0-.02,0-.03-.01-.05-.02-.21-.09-.42-.2-.6v.1Z"/><path d="m303.93,198.65h6.1v1.7h-.6c.56.42.87,1.1.8,1.8.03,1.25-.96,2.28-2.21,2.31-.1,0-.2,0-.29-.01h-3.8v-1.8h3.5c.55.06,1.04-.34,1.1-.89,0-.07,0-.14,0-.21,0-.7-.4-1.1-1.3-1.1h-3.3v-1.8Z"/><path d="m305.43,190.15l6,1.3-.4,1.8h-.6c.42.5.54,1.19.3,1.8-.54,1.7-2.37,2.65-4.07,2.1-1.49-.48-2.43-1.95-2.23-3.5.13-.66.53-1.24,1.1-1.6h-.6c0-.1.4-1.9.4-1.9h.1Zm2.6,2.4c-.77-.21-1.57.25-1.78,1.02,0,.03-.01.05-.02.08-.18.75.27,1.5,1.02,1.68.03,0,.06.01.08.02.77.21,1.57-.25,1.78-1.02,0-.03.01-.05.02-.08.18-.75-.27-1.5-1.02-1.68-.03,0-.06-.01-.08-.02h0Z"/><path d="m310.83,183.65l3.4,1.6-.8,1.7-3.2-1.5c-.54-.28-1.2-.07-1.48.47,0,.01-.01.02-.02.03-.3.6-.1,1.2.7,1.6l3,1.4-.8,1.7-5.5-2.6.8-1.7.5.2c-.3-.6-.3-1.3,0-1.9.55-1.16,1.94-1.66,3.1-1.1.07.03.13.07.2.1h.1Z"/><path d="m312.64,180.15l1.8,1.3c.4.3.7,0,1.2-.7l1.4,1c-1.2,2.1-2.2,2.2-3.6,1.2l-1.8-1.3-.6.8-1.4-1,.6-.8-.9-.7.6-1.8,1.4,1,.7-1,1.4,1-.7,1h-.1Z"/><path d="m317.33,172.55l4.2,4.4-1.3,1.3-.4-.4c0,.69-.29,1.34-.8,1.8-.89.87-2.31.85-3.18-.04-.08-.08-.15-.17-.22-.26l-2.6-2.7,1.3-1.3,2.4,2.5c.26.41.81.54,1.23.27.11-.07.2-.16.27-.27.47-.37.55-1.05.18-1.52-.05-.07-.12-.13-.18-.18l-2.3-2.4,1.3-1.3.1.1Z"/><path d="m328.54,168.65l1.8,3.3-1.6.9-1.7-3.2c-.3-.5-.7-.8-1.3-.5s-.6.8-.3,1.5l1.6,3.1-1.6.9-1.7-3.2c-.3-.5-.7-.8-1.3-.5s-.6.8-.3,1.5l1.6,3.1-1.6.9-2.9-5.4,1.6-.9.3.5c0-.5.4-1,1.1-1.4.56-.3,1.24-.3,1.8,0,0-.6.4-1.1,1.2-1.5,1.06-.61,2.42-.24,3.03.82.07.12.13.25.17.38l.1-.3Z"/><path d="m365.14,178.15c-1,1.32-2.88,1.58-4.2.58-.03-.02-.07-.05-.1-.08-.55-.44-.88-1.1-.9-1.8l-2,2.3-1.4-1.2,5.7-6.4,1.4,1.2-.4.4c1.54-.1,2.87,1.08,2.97,2.62.06.92-.34,1.81-1.07,2.38h0Zm-1.4-1.2c.55-.58.53-1.5-.05-2.05-.02-.02-.04-.03-.05-.05-.55-.53-1.43-.52-1.97.04-.05.05-.09.11-.13.16-.55.58-.53,1.5.05,2.05.02.02.04.03.05.05.55.54,1.43.53,1.97-.01.06-.06.11-.12.15-.19h-.02Z"/><path d="m371.83,182.15l-5,3.5-1.1-1.5.5-.3c-.68,0-1.29-.39-1.6-1-.74-1.02-.5-2.45.52-3.18.06-.04.12-.08.18-.12l3.1-2.2,1.1,1.5-2.8,2c-.48.27-.66.87-.39,1.36.03.05.06.1.09.14.36.52,1.07.65,1.59.29.04-.03.08-.06.11-.09l2.7-1.9,1.1,1.5h-.1Z"/><path d="m372.14,186.85l-2,.9c-.5.2-.3.7,0,1.4l-1.5.7c-1.3-2.1-.9-3,.7-3.7l2-.9-.4-.9,1.6-.8.4.9,1.1-.5,1.3,1.4-1.5.7.5,1.1-1.6.8-.5-1.1h-.1Z"/><path d="m376.54,194.95l-5.9,1.5-.5-1.8h.6c-.61-.38-1.04-1-1.2-1.7-.36-1.62.66-3.22,2.28-3.58.04,0,.08-.02.12-.02,1.63-.52,3.37.37,3.9,2,.16.68.06,1.4-.3,2h.6c0-.1.5,1.6.5,1.6h-.1Zm-3.4-1c.77-.14,1.28-.89,1.13-1.66,0-.05-.02-.1-.03-.14-.13-.72-.82-1.2-1.54-1.07-.09.02-.17.04-.26.07-.77.14-1.28.89-1.13,1.66,0,.05.02.1.03.14.13.72.82,1.2,1.54,1.07.09-.02.17-.04.26-.07Z"/><path d="m375.14,199.45h-2.2c-.5.2-.5.6-.4,1.4h-1.7c-.4-2.3.3-3,2-3.1h2.2v-1.1h1.8v.9h1.2l.7,1.7h-1.7v1.4h-1.8v-1.2h-.1Z"/><path d="m376.93,202.25v1.8l-6.2-.4v-1.8l6.2.4Zm1.7,0c.61.06,1.06.59,1,1.2-.06.61-.59,1.06-1.2,1s-1.06-.59-1-1.2c.06-.61.59-1.06,1.2-1h0Z"/><path d="m373.76,205.05c1.71.37,2.8,2.05,2.43,3.77,0,.04-.02.09-.03.13-.36,1.75-2.06,2.88-3.81,2.52-.03,0-.06-.01-.09-.02-1.71-.37-2.8-2.05-2.43-3.77,0-.04.02-.09.03-.13.36-1.75,2.06-2.88,3.81-2.52.03,0,.06.01.09.02Zm-1,4.5c.77.16,1.53-.33,1.7-1.1s-.33-1.53-1.1-1.7c-.77-.16-1.53.33-1.7,1.1-.18.75.27,1.5,1.02,1.68.03,0,.06.01.08.02Z"/><path d="m370.04,218.25l-3.4-1.6.8-1.7,3.2,1.5c.54.28,1.2.07,1.48-.47,0-.01.01-.02.02-.03.3-.6.1-1.2-.7-1.6l-3-1.4.8-1.7,5.5,2.6-.8,1.7-.5-.2c.3.6.3,1.3,0,1.9-.55,1.16-1.94,1.66-3.1,1.1-.07-.03-.13-.07-.2-.1h-.1Z"/><path class="cls-40" d="m320.24,197.45v-8.8c-.14-1.02.57-1.96,1.58-2.1.17-.02.34-.02.52,0h30.5c1.02-.14,1.96.57,2.1,1.58.02.17.02.34,0,.52v28.7c.09.96-.61,1.81-1.56,1.9-.11.01-.22.01-.34,0h-30.8c-.98.07-1.83-.67-1.9-1.65,0-.08,0-.17,0-.25v-19.9h-.1Zm19.2,18.2c.4,0,.6-.3.9-.6.87-.76,1.58-1.67,2.1-2.7.12-.33.45-.54.8-.5.94.03,1.88-.03,2.8-.2,2.4-.6,3.7-2.2,3.5-4.5-.08-1.24-.54-2.42-1.3-3.4-.4-.42-.4-1.08,0-1.5.83-1.17,1.28-2.57,1.3-4,.87-.51,1.17-1.63.66-2.5-.14-.24-.33-.44-.56-.6-.59-.45-1.41-.45-2,0-.24-.26-.55-.44-.9-.5-1.09-.38-2.25-.52-3.4-.4-.44.08-.86-.18-1-.6-.47-1.06-1.19-1.99-2.1-2.7-1.22-1.13-3.02-1.37-4.5-.6-.98.55-1.81,1.34-2.4,2.3-.3.5-.5,1.2-1,1.5s-1.2,0-1.8,0c-1.07-.06-2.13.26-3,.9-.43-.21-.92-.28-1.4-.2-.68.19-1.21.72-1.4,1.4-.18.79.18,1.61.9,2,.05,1.51.54,2.96,1.4,4.2.3.3.3.8,0,1.1-.65.96-1.09,2.05-1.28,3.2-.3,1.51.28,3.06,1.5,4,1.22.86,2.71,1.25,4.2,1.1.8,0,1.4.1,1.6,1,0,.2.2.4.4.6.57.95,1.4,1.72,2.4,2.2,0,.76.42,1.46,1.1,1.8.93.42,2.02,0,2.44-.92.11-.25.17-.51.16-.78l-.12-.1Z"/><path class="cls-20" d="m320.24,197.45v19.9c-.09.96.61,1.81,1.56,1.9.11.01.22.01.34,0h30.8c.98.07,1.83-.67,1.9-1.65,0-.08,0-.17,0-.25v-19.9h2.4c1.95.42,3.28,2.22,3.1,4.2v23.1h-45.58v-24c.15-1.78,1.53-3.2,3.3-3.4h2.1l.08.1Z"/><path class="cls-21" d="m360.43,224.75v-23.1c0-2.2-1-3.7-3.1-4.2h3.2c1.87.05,3.4,1.53,3.5,3.4v23.9h-3.6Z"/><path class="cls-25" d="m349.54,198.15c-.02,1.43-.47,2.83-1.3,4-.4.42-.4,1.08,0,1.5.74.99,1.19,2.17,1.3,3.4.2,2.3-1.1,3.9-3.5,4.5-.92.22-1.86.28-2.8.2-.4,0-.7.1-.8.5-.47,1.06-1.19,1.99-2.1,2.7-.3.2-.5.5-.9.6-.05-.31-.16-.62-.3-.9,1.07-.66,1.91-1.64,2.4-2.8.1-.3,0-.3-.2-.3-1.13-.19-2.23-.49-3.3-.9-.29-.1-.61-.1-.9,0-1.03.4-2.11.71-3.2.9-.5,0-.4.2-.3.6.59,1.01,1.33,1.92,2.2,2.7l-.2.8c-1-.48-1.83-1.25-2.4-2.2-.17-.18-.3-.38-.4-.6-.2-.8-.8-1-1.6-1-1.48.1-2.96-.28-4.2-1.1-1.22-.94-1.8-2.49-1.5-4,.16-1.16.61-2.26,1.3-3.2.3-.3.3-.8,0-1.1-.86-1.24-1.35-2.69-1.4-4.2.29.11.59.18.9.2.07,1.38.56,2.7,1.4,3.8.87-1.09,1.88-2.06,3-2.9.11-.11.17-.25.2-.4.17-1.12.44-2.22.8-3.3.2-.5,0-.6-.4-.6-1.16,0-2.31.2-3.4.6l-.6-.6c.89-.58,1.93-.9,3-.9.6,0,1.4.2,1.8,0s.6-1,1-1.5c.59-.96,1.42-1.75,2.4-2.3,1.48-.77,3.28-.53,4.5.6.87.76,1.58,1.67,2.1,2.7.14.42.56.68,1,.6,1.15-.07,2.3.06,3.4.4.34.09.65.26.9.5-.2.2-.3.5-.6.6-1.06-.39-2.17-.6-3.3-.6-.5,0-.6.2-.4.6.33.91.56,1.85.7,2.8,0,.6.5,1,.9,1.4.2.2.5.4.7.6.49.47.96.98,1.4,1.5,0,.1.2.4.4,0,.72-1.04,1.17-2.24,1.3-3.5.31-.02.61-.09.9-.2l.1-.2Zm-17.9,4.9c0,.7.1,1.6.1,2.4.03.49.29.94.7,1.2,1.48,1.09,3.1,2,4.8,2.7.22.1.48.1.7,0,1.72-.78,3.36-1.71,4.9-2.8.29-.17.48-.47.5-.8.2-1.93.2-3.87,0-5.8-.03-.28-.17-.53-.4-.7-1.61-1.12-3.31-2.09-5.1-2.9h-.6c-1.75.77-3.42,1.71-5,2.8-.24.15-.39.41-.4.7-.12,1.03-.19,2.06-.2,3.1v.1Zm6-12.5c-.27-.02-.54.02-.8.1-1.48.59-2.66,1.74-3.3,3.2-.2.3,0,.3.3.3,1.12.21,2.23.51,3.3.9.29.1.61.1.9,0,1.07-.39,2.18-.69,3.3-.9.3,0,.4-.1.2-.4-.27-.57-.61-1.1-1-1.6-.7-.93-1.75-1.54-2.9-1.7h0v.1Zm-6.5,20.3h.3q.7,0,.5-.7c-.28-.89-.51-1.79-.7-2.7,0-.3,0-.7-.3-.9-.99-.74-1.86-1.61-2.6-2.6-.2-.3-.3-.2-.5,0-.49.72-.83,1.54-1,2.4-.41,1.16-.09,2.45.8,3.3,1.01.84,2.29,1.26,3.6,1.2h-.1,0Zm12.7,0c.84.02,1.69-.08,2.5-.3,1.7-.46,2.73-2.19,2.3-3.9-.2-.93-.57-1.81-1.1-2.6-.2-.4-.3-.4-.6,0-.63.83-1.37,1.57-2.2,2.2-.42.31-.68.78-.7,1.3-.06.83-.26,1.64-.6,2.4q-.3,1,.4,1h0v-.1Zm-12.9-5.6c-.2-1.59-.2-3.21,0-4.8-.8.6-1.5,1.3-2.1,2.1-.17.13-.2.37-.07.53.02.02.04.05.07.07h0c.62.77,1.33,1.48,2.1,2.1h0Zm8-9.4c1.47.68,2.87,1.48,4.2,2.4-.17-.99-.44-1.96-.8-2.9.02-.2-.13-.38-.34-.4-.02,0-.04,0-.06,0-1.02.17-2.03.44-3,.8h0v.1Zm-2.6,14.1c-1.45-.7-2.86-1.5-4.2-2.4.16.99.43,1.97.8,2.9-.02.15.09.28.24.3.02,0,.04,0,.06,0,1.02-.17,2.03-.44,3-.8h.1Zm-4.2-11.6c1.34-.93,2.74-1.76,4.2-2.5-1-.3-2-.6-3-.8-.3,0-.3.1-.4.3-.37.93-.64,1.91-.8,2.9h0v.1Zm12.2,2.2c.2,1.59.2,3.21,0,4.8.8-.6,1.5-1.3,2.1-2.1.2-.2.1-.5,0-.7-.6-.76-1.31-1.44-2.1-2Zm-5.4,9.4c.98.35,1.98.61,3,.8.2,0,.3,0,.3-.2.41-.96.67-1.97.8-3-1.33.92-2.73,1.72-4.2,2.4h.1Z"/><path class="cls-23" d="m347.04,195.55c.3-.1.4-.4.6-.6.62-.36,1.38-.36,2,0,.84.56,1.06,1.7.5,2.54-.15.23-.36.42-.6.56-.29.11-.59.18-.9.2-1.02,0-1.83-.84-1.82-1.86,0-.22.04-.44.12-.64v-.3l.1.1Z"/><path class="cls-23" d="m335.76,215.55l.2-.8c1.3-1.3,2.1-1.3,3.3,0,.05.31.16.62.3.9,0,1.02-.83,1.85-1.85,1.85s-1.85-.83-1.85-1.85l-.1-.1Z"/><path class="cls-23" d="m326.54,198.35c-.31-.02-.61-.09-.9-.2-.89-.5-1.2-1.62-.7-2.51.26-.46.69-.78,1.2-.89.48-.09.97-.02,1.4.2l.6.6c.5,1.7,0,2.6-1.6,2.8Z"/><path class="cls-37" d="m331.64,203.05c-.03-1.04.03-2.08.2-3.1.03-.28.17-.53.4-.7,1.55-1.13,3.23-2.06,5-2.8.2,0,.4-.1.6,0,1.79.81,3.49,1.78,5.1,2.9.24.15.39.41.4.7.25,1.93.25,3.87,0,5.8-.02.33-.21.63-.5.8-1.54,1.09-3.18,2.02-4.9,2.8-.22.1-.48.1-.7,0-1.66-.78-3.27-1.68-4.8-2.7-.43-.25-.7-.7-.7-1.2-.08-.8-.11-1.6-.1-2.4v-.1Zm8.7-.2c-.03-1.52-1.28-2.73-2.8-2.7-1.52.03-2.73,1.28-2.7,2.8.03,1.48,1.22,2.67,2.7,2.7,1.49,0,2.69-1.19,2.7-2.68,0,0,0-.01,0-.02h0l.1-.1Z"/><path class="cls-35" d="m337.64,190.55c1.18.07,2.26.7,2.9,1.7.39.5.73,1.03,1,1.6.2.3.1.4-.2.4-1.12.21-2.23.51-3.3.9-.29.1-.61.1-.9,0-1.07-.39-2.18-.69-3.3-.9-.2,0-.4,0-.3-.3.8-1.4,1.6-2.7,3.3-3.2.3,0,.5-.1.8-.1v-.1Z"/><path class="cls-35" d="m331.14,210.85c-1.31.11-2.62-.32-3.6-1.2-.89-.85-1.21-2.14-.8-3.3.25-.83.58-1.64,1-2.4.2-.3.3-.3.5,0,.79.94,1.66,1.81,2.6,2.6.23.24.34.57.3.9.19.91.42,1.81.7,2.7q.2.7-.5.7h-.2Z"/><path class="cls-35" d="m343.76,210.85q-.7,0-.4-1c.25-.79.45-1.59.6-2.4.02-.52.28-.99.7-1.3.83-.63,1.57-1.37,2.2-2.2.2-.3.4-.3.6,0,.51.8.88,1.68,1.1,2.6.43,1.71-.6,3.44-2.3,3.9-.81.22-1.66.32-2.5.3v.1Z"/><path class="cls-30" d="m339.24,214.75c-1.1-1.2-1.9-1.2-3.3,0-.92-.73-1.67-1.65-2.2-2.7-.2-.4-.2-.5.3-.6,1.09-.21,2.16-.51,3.2-.9.29-.1.61-.1.9,0,1.07.39,2.18.69,3.3.9.2,0,.4,0,.2.3-.49,1.16-1.33,2.14-2.4,2.8v.2Z"/><path class="cls-30" d="m326.54,198.35c1.5-.2,2.1-1.1,1.6-2.8,1.09-.4,2.24-.6,3.4-.6.4,0,.6.1.4.6-.41,1.06-.68,2.17-.8,3.3,0,.2,0,.3-.2.4-1.07.89-2.07,1.86-3,2.9-.84-1.1-1.33-2.42-1.4-3.8Z"/><path class="cls-30" d="m347.04,195.55v.3c-.38.92.06,1.98.98,2.36.23.09.47.14.72.14-.08,1.27-.54,2.48-1.3,3.5-.2.3-.3,0-.4,0-.44-.52-.91-1.03-1.4-1.5-.21-.22-.45-.43-.7-.6-.46-.34-.79-.84-.9-1.4-.08-.97-.32-1.91-.7-2.8-.2-.4-.1-.6.4-.6,1.13,0,2.25.2,3.3.6Z"/><path class="cls-24" d="m330.93,205.25c-.8-.6-1.5-1.3-2.1-2.1-.2-.1-.2-.4,0-.6h0c.6-.8,1.3-1.5,2.1-2.1-.2,1.59-.2,3.21,0,4.8Z"/><path class="cls-24" d="m338.93,195.85c.97-.36,1.98-.63,3-.8.3,0,.3.2.4.4.37.93.64,1.91.8,2.9-1.33-.92-2.73-1.72-4.2-2.4v-.1Z"/><path class="cls-24" d="m336.33,209.95c-.98.35-1.98.61-3,.8-.15.02-.28-.09-.3-.24,0-.02,0-.04,0-.06-.37-.93-.64-1.91-.8-2.9,1.33.92,2.73,1.72,4.2,2.4h-.1Z"/><path class="cls-24" d="m332.14,198.35c.16-.99.43-1.97.8-2.9,0-.2.1-.4.4-.3,1.02.17,2.03.44,3,.8-1.48.7-2.88,1.54-4.2,2.5v-.1Z"/><path class="cls-24" d="m344.33,200.55c.77.59,1.47,1.26,2.1,2,.19.13.25.39.12.58-.03.05-.07.09-.12.12-.62.77-1.33,1.48-2.1,2.1.2-1.59.2-3.21,0-4.8Z"/><path class="cls-24" d="m338.93,209.95c1.44-.72,2.84-1.53,4.2-2.4-.17,1.02-.44,2.03-.8,3,0,.1-.1.3-.3.2-1.02-.17-2.03-.44-3-.8h-.1Z"/><path class="cls-47" d="m340.33,202.85c.03,1.52-1.18,2.77-2.7,2.8-1.52.03-2.77-1.18-2.8-2.7-.03-1.52,1.18-2.77,2.7-2.8h0c1.49,0,2.69,1.19,2.7,2.68,0,0,0,.01,0,.02h.1Z"/><polygon class="cls-41" points="197.76 227.75 185.86 227.75 187.45 222.45 196.86 222.45 197.76 227.75"/><circle class="cls-9" cx="199.76" cy="201.75" r="45"/><path d="m177.26,176.75c2.25,1.86,2.58,5.19.72,7.45-.1.12-.21.24-.32.35-2.13,2.48-5.86,2.77-8.35.65-.02-.02-.04-.03-.05-.05-2.4-2.17-2.59-5.87-.42-8.28,0,0,.01-.02.02-.02,1.29-1.49,3.25-2.21,5.2-1.9l-.5,2.5c-1.06-.16-2.13.26-2.8,1.1-1.22,1.24-1.21,3.25.04,4.47.08.08.17.16.26.23,1.4,1.3,3.3,1.2,4.8-.4.95-.83,1.19-2.19.6-3.3l-2,2.2-1.7-1.5,3.8-4.2.7.6v.1Z"/><path d="m187.45,172.65c1.13,1.9.52,4.35-1.38,5.49,0,0-.02,0-.02.01-.78.49-1.73.6-2.6.3l1.9,3.5-2.1,1.1-5.3-9.9,2.1-1.1.4.7c.22-.87.8-1.59,1.6-2,2.02-.95,4.42-.11,5.4,1.9Zm-2.1,1.1c-.41-.91-1.48-1.32-2.39-.91-.07.03-.14.07-.21.11-.92.45-1.31,1.56-.86,2.49.02.04.04.08.06.11.41.91,1.48,1.32,2.39.91.07-.03.14-.07.21-.11.92-.45,1.31-1.56.86-2.49-.02-.04-.04-.08-.06-.11h0Z"/><path d="m196.45,169.65l1,4.8-2.4.5-.9-4.5c-.05-.7-.66-1.22-1.36-1.17-.12,0-.23.03-.34.07-.75.08-1.29.75-1.21,1.5.01.14.05.27.11.4l.9,4.3-2.4.5-2.3-11,2.3-.5.8,3.9c.39-.77,1.14-1.3,2-1.4,1.62-.34,3.21.7,3.55,2.32.02.09.03.19.05.28h.2Z"/><path d="m198.26,170.45c.14-2.35,2.16-4.14,4.51-4,2.35.14,4.14,2.16,4,4.51s-2.16,4.14-4.51,4c-.03,0-.07,0-.1,0-2.31-.16-4.06-2.16-3.9-4.48,0,0,0-.01,0-.02Zm6.1.5c.1-1-.63-1.89-1.63-1.99-.02,0-.05,0-.07,0-.96-.13-1.85.54-1.98,1.5,0,.07-.01.13-.02.2-.1,1,.63,1.89,1.63,1.99.02,0,.05,0,.07,0,1.02.07,1.9-.68,2-1.7Z"/><path d="m215.95,173.35l-1.7,4.6-2.2-.9,1.6-4.3c.35-.63.12-1.43-.51-1.78-.09-.05-.19-.09-.29-.12-.76-.31-1.63.06-1.94.82-.02.06-.04.12-.06.18l-1.6,4.1-2.2-.9,2.8-7.5,2.2.9-.3.7c.77-.46,1.73-.46,2.5,0,1.5.6,2.4,2.1,1.6,4.2h.1Z"/><path d="m219.36,179.35c.45.36,1.03.5,1.6.4l.9,2c-2.4.59-4.82-.88-5.41-3.27-.3-1.21-.08-2.49.61-3.53,1.3-1.84,3.84-2.27,5.67-.97.08.05.15.11.23.17,1.78,1.31,2.17,3.81.86,5.59-.05.07-.11.14-.16.21-.18.28-.42.52-.7.7l-4.5-3.4c-.21.8.16,1.63.9,2v.1Zm2.9-1.5c.36-.72.1-1.6-.6-2-.63-.55-1.57-.55-2.2,0l2.8,2.1v-.1Z"/><path d="m227.06,191.65l1.9-3.2h-3.7l-1.4-2.6h6.6l3.2-5.4,1.4,2.5-1.7,3h3.4l1.4,2.6h-6.3l-3.3,5.7-1.4-2.5-.1-.1Z"/><path class="cls-28" d="m181.15,210.15h5.5l5.1,15.2h0c.11.35.43.6.8.6h.1c.4,0,.7-.4.8-.8l.8-15h25.6c.2,0,.5,0,.6-.3s.3-.4.3-.6v-24.6c0-.2,0-.5-.3-.6s-.4-.3-.6-.3h-38.7c-.5,0-.9.4-.9.9v24.6c0,.2,0,.5.3.6s.4.3.6.3h0Z"/><path class="cls-41" d="m191.95,220.45l-3.8-11.3v-1.9h0c.4.2.85.31,1.3.3l1.5,2.3c.17.23.42.37.7.4h.8l-.6,10.3.1-.1Z"/><path class="cls-27" d="m189.95,224.25v-1.8h-6.2c-.5,0-.9.4-.9.9v9.7c0,.2,0,.5.3.6s.4.3.6.3h16.7c.2,0,.5,0,.6-.3s.3-.4.3-.6v-9.7c0-.2,0-.5-.3-.6s-.4-.3-.6-.3h-5.3v1.8h.9v2.6h-5.9c-1.1,0-2-.9-2-2h0c.02-.32.28-.58.6-.6h1.2Z"/><path class="cls-41" d="m207.56,200.45h9.7c.2,0,.5,0,.6-.3s.3-.4.3-.6v-12.3c0-.2,0-.5-.3-.6s-.4-.3-.6-.3h-9.7c-.5,0-.9.4-.9.9v12.3c0,.2,0,.5.3.6s.4.3.6.3Zm.9-12.3h7.9v10.6h-7.9v-10.6Z"/><path class="cls-41" d="m217.26,201.35h-6.2c-.5,0-.9.4-.9.9v4.4c0,.2,0,.5.3.6s.4.3.6.3h6.2c.2,0,.5,0,.6-.3s.3-.4.3-.6v-4.4c0-.2,0-.5-.3-.6s-.4-.3-.6-.3Zm-.9,4.4h-4.4v-2.6h4.4v2.6Z"/><path class="cls-41" d="m183.76,194.35h6.2v1.8h-6.2v-1.8Z"/><path class="cls-41" d="m183.76,197.85h3.5v1.8h-3.5v-1.8Z"/><path class="cls-14" d="m184.26,229.85h2.6c.21.01.39.19.4.4v.9c-.01.21-.19.39-.4.4h-2.6c-.21-.01-.39-.19-.4-.4v-.9c.01-.21.19-.39.4-.4Z"/><path class="cls-14" d="m190.76,229.85h2.6c.21.01.39.19.4.4v.9c-.01.21-.19.39-.4.4h-2.6c-.21-.01-.39-.19-.4-.4v-.9c.01-.21.19-.39.4-.4Z"/><path class="cls-14" d="m197.26,229.85h2.6c.21.01.39.19.4.4v.9c-.01.21-.19.39-.4.4h-2.6c-.21-.01-.39-.19-.4-.4v-.9c.01-.21.19-.39.4-.4Z"/><path class="cls-41" d="m198.36,203.35c-.27.01-.54-.02-.8-.1-.61-.09-1.21-.22-1.8-.4-.7-.1-1.5-.3-2.2-.4-.9-.2-1.7-.3-2.6-.5-.14.01-.28-.02-.4-.1-.27-.1-.41-.39-.31-.66,0-.01,0-.02.01-.04.21-.38.38-.78.5-1.2.3-.7.6-1.3.9-2,.23-.45.5-.89.8-1.3.4-.63,1.24-.81,1.87-.41.13.08.24.19.33.31.22.25.42.52.6.8.4.7.9,1.3,1.3,2l2.1,3.3c.05.11.12.21.2.3.1.3,0,.5-.4.5l-.1-.1Z"/><path class="cls-41" d="m199.86,187.65h.3c.3,0,.4.2.3.4s-.2.3-.3.5c-.8,1-1.5,2-2.3,3s-1.5,1.8-2.2,2.6c-.38.41-.87.72-1.4.9-.63.12-1.28-.02-1.8-.4-.29-.28-.56-.58-.8-.9-.7-1.1-1.4-2.1-2.1-3.2-.3-.5-.6-1-.9-1.4h0c-.2-.4,0-.6.3-.6l4.3-.3c1.3,0,2.6-.2,3.8-.3.9-.02,1.8-.08,2.7-.2h0l.1-.1Z"/><circle class="cls-8" cx="200" cy="60.08" r="45"/><path d="m169.9,56.98v2c-.1,0-5.1-.3-5.1-.3l3.5,2.4v.2l-3.8,2,5,.3v2c-.1,0-8.7-.5-8.7-.5v-2c.1,0,4.1-2.1,4.1-2.1l-3.7-2.5v-2c.1,0,8.7.5,8.7.5Z"/><path d="m169.9,52.68c.2-.5.1-.9,0-1.3l1.3-1.1c.6.8.7,1.8.3,2.9-.7,2-2.4,2.8-4.2,2.2-1.7-.6-2.6-2.3-2-4.1.6-1.7,2.3-2.5,4.1-1.9.2,0,.5.2.7.3l-1.4,4.1c.7,0,1.1-.5,1.3-1.1h-.1Zm-1.8-1.8c-.7,0-1.2.4-1.3.9-.2.7,0,1.2.5,1.6l.8-2.5Z"/><path d="m168.5,40.08l7.3,4.5-1,1.6-.5-.3c.2.6.1,1.2-.3,1.9-.8,1.4-2.7,1.8-4.3.8-1.6-1-2.1-2.8-1.2-4.2.4-.7,1-1.1,1.6-1.2l-2.6-1.6,1-1.6v.1Zm3.7,4.5c-.8-.5-1.6-.3-2,.5-.4.7-.3,1.5.5,2s1.6.3,2-.5.3-1.5-.5-2Z"/><path d="m170.6,38.88c-.5-.4-.5-1.1-.1-1.6s1.1-.5,1.6-.1.5,1.1.1,1.6-1.1.5-1.6.1Zm1.4.9l1.2-1.4,4.6,4-1.2,1.4-4.6-4Z"/><path d="m179.3,32.88l3.9,4.7-1.4,1.2-.4-.4c0,.6-.3,1.2-.9,1.7-1.2,1-3.2.8-4.3-.6s-1-3.3.2-4.4c.6-.5,1.3-.7,1.9-.6l-.4-.4,1.4-1.2Zm.5,3.5c-.6-.7-1.4-.8-2.1-.2-.7.5-.8,1.4-.2,2.1.6.7,1.4.8,2.1.2.7-.5.8-1.4.2-2.1Z"/><path d="m182,33.08l4.1-2.1.8,1.6-4.1,2.1-.8-1.6Z"/><path d="m197.5,32.58l-1.9.4-1.1-4.9-1.4,4h-.2l-3-3,1.1,4.9-1.9.4-1.9-8.4,1.9-.4,3.1,3.2,1.4-4.2,1.9-.4,1.9,8.4h.1Z"/><path d="m204.4,26.78l-.3,6.1h-1.8v-.7c-.3.4-1,.7-1.8.7-1.2,0-2.3-1-2.2-2.6l.2-3.8h1.8l-.1,3.6c0,.8.4,1.1,1,1.2.7,0,1.2-.3,1.2-1.2v-3.3c.1,0,2,0,2,0Z"/><path d="m207,24.38l1.8.4-1.8,8.8-1.8-.4,1.8-8.8Z"/><path d="m211.7,30.38l-.7,2.1c-.2.5.2.7,1,.9l-.5,1.6c-2.4-.5-2.8-1.4-2.2-3.1l.7-2.1-.9-.3.6-1.7.9.3.4-1.1h1.9l-.5,1.7,1.2.4-.6,1.7-1.2-.4h-.1Z"/><path d="m214.9,29.78l1.7.8-2.6,5.5-1.7-.8,2.6-5.5Zm.5-1.6c.3-.5.9-.8,1.5-.5.5.3.8.9.5,1.5-.3.5-.9.8-1.5.5-.5-.3-.8-.9-.5-1.5Z"/><path d="m219,35.48c1.2-1.4,3.1-1.6,4.6-.4.9.8,1.3,1.9,1.1,3l-1.8-.3c.1-.5,0-.9-.5-1.3-.6-.5-1.4-.4-2,.2-.5.7-.5,1.5.2,2,.4.3.9.4,1.4.2l.7,1.7c-1,.4-2.2.2-3.1-.5-1.4-1.2-1.6-3.2-.4-4.6h-.2Z"/><path d="m230.6,42.98l-4.8,3.8-1.1-1.4.5-.4c-.6,0-1.2-.3-1.7-1-1-1.3-.7-3.2.7-4.3,1.4-1.1,3.4-1,4.4.3.5.6.7,1.3.5,1.9l.5-.4,1.1,1.4-.1.1Zm-3.5.5c.7-.6.8-1.4.3-2.1-.5-.7-1.4-.8-2.1-.2-.7.6-.8,1.4-.3,2.1.5.7,1.4.8,2.1.2Z"/><path d="m233.3,54.48l-3.5,1.4-.7-1.7,3.3-1.4c.6-.2.8-.7.6-1.2-.2-.6-.8-.7-1.4-.4l-3.2,1.3-.7-1.7,3.3-1.4c.6-.2.8-.7.6-1.2-.2-.6-.8-.7-1.4-.4l-3.2,1.3-.7-1.7,5.7-2.3.7,1.7-.5.2c.5.1,1,.5,1.3,1.2s.2,1.3-.1,1.8c.6.1,1.1.5,1.4,1.3.5,1.3,0,2.5-1.5,3.1v.1Z"/><path d="m231.6,59.58c0,.5.3.9.6,1.1l-.7,1.6c-.9-.5-1.4-1.3-1.6-2.5-.2-2.1,1-3.5,2.8-3.8,1.8-.2,3.4.9,3.6,2.9.2,1.8-1,3.3-2.8,3.5h-.7l-.5-4.3c-.6.3-.8.9-.7,1.6v-.1Zm2.3.9c.7-.3.9-.9.8-1.4,0-.7-.5-1.1-1.1-1.2l.3,2.6Z"/><path d="m236.4,67.38h-2.1c.2-.9,0-2-1.3-2l-2.8-.2v-1.8c.1,0,6.2.4,6.2.4v1.8h-1.2c.8.3,1.1,1.1,1.1,1.9l.1-.1Z"/><path d="m234.6,74.98l-5.9-1.5.4-1.8h.6c-.4-.4-.5-1-.3-1.8.4-1.6,2.1-2.5,3.8-2.1,1.8.4,2.8,2.1,2.4,3.6-.2.8-.6,1.3-1.2,1.6h.6c0,.1-.4,1.9-.4,1.9v.1Zm-2.5-2.5c.9.2,1.6-.2,1.8-1.1.2-.8-.2-1.6-1.1-1.8s-1.6.2-1.8,1.1c-.2.8.2,1.6,1.1,1.8Z"/><path class="cls-38" d="m208.5,92.28h-18.1c-.4-1.5-1.2-2.8-2.2-3.9-.3-.3-.3-.4,0-.7,1.3-1.3,2.6-2.5,3.8-3.8,1.2-1.2,1.5-2.9.9-4.4.1-.6,0-1.3,0-1.9-.6-2.3-2.9-3.7-5.1-3.1-.8.2-1.4.6-2,1.1-2.3,2.2-4.5,4.5-6.8,6.8-.4.4-.9.9-1.4,1.3v-35.1c0-1.5.9-2.9,2.3-3.4.4-.1.8-.2,1.3-.2h35.8c2.2,0,3.6,1.4,3.6,3.6v26.5h-8.4c-1.4,0-2.8.8-3.3,2.1-.7,1.6,0,3.6,1.4,4.2h.1c.2.5.6.4.8.7-1.8.4-3,2.2-2.5,4.1.2.9.8,1.7,1.6,2.2h0c.2.4.6.4.8.6-1.6.4-2.6,1.8-2.6,3.4v-.1Zm-6-32.6v-8.5c0-1-.7-1.9-1.7-1.9h-17c-1.3,0-2.1.7-2.1,2v16.7c0,1,.7,1.8,1.7,1.9h17.2c.9,0,1.7-.6,1.8-1.5v-8.8l.1.1Zm7.7-5.2h3.1q1.3,0,1.3-1.3c0-.4-.1-.5-.5-.5h-6.9q-1.3,0-1.3,1.3c0,1.3.1.5.5.4h3.8v.1Zm3.1-5.2h-2.7q-1.2,0-1.2,1.3c0,.4.2.5.5.5h5.9q1.3,0,1.3-1.4c0-.3-.1-.4-.4-.4h-3.4,0Zm-7.4.8c0,1-.2.9.8.9.6,0,.9-.3.9-.9q0-.9-.9-.9c-.9,0-.8,0-.8.8v.1Z"/><path class="cls-16" d="m177.6,83.68c.5-.4.9-.9,1.4-1.3,2.3-2.3,4.5-4.5,6.8-6.8,1.6-1.7,4.3-1.7,6,0,.6.5.9,1.2,1.1,2,.1.6.2,1.3,0,1.9-.3.9-.8,1.8-1.5,2.5-2,1.9-3.9,3.9-5.8,5.8-.3.3-.3.4,0,.7,1,1.1,1.8,2.5,2.2,3.9h-13.2c-.2,0-.4,0-.4-.2,0-1.3-.1-2.5.2-3.7.3-1.2.9-2.3,1.7-3.1l1.5-1.5v-.2Z"/><path class="cls-7" d="m210.2,81.48c-1.4-.6-2.1-2.7-1.4-4.2.5-1.3,1.9-2.2,3.3-2.1h8.4c1.9.2,3,1.1,3.4,2.8-.2,0-.2.1-.2.2-.4.9-1.1,1.6-2,1.9-.6.2-1.2.3-1.8.3h-8.4c-1,0-1.2,0-1.3,1.1Z"/><path class="cls-16" d="m210.2,88.38c-1.6-.9-2.2-3-1.3-4.6.5-.8,1.3-1.4,2.2-1.6.4,0,.7-.1,1.1-.2h8.8c.7.2,1.4.6,1.9,1,.5.5.8,1.1,1,1.8,0,0-.2.1-.2.2-.7,1.7-2.1,2.2-3.7,2.2h-8.6c-1,0-1.2.2-1.2,1.2Z"/><path class="cls-16" d="m208.5,92.28c0-1.6,1.1-3,2.6-3.3.2,0,.5,0,.7-.1,3.1,0,6.3.1,9.4,0,0,.2.2.2.3.2,1.2.4,2.1,1.3,2.4,2.6.2.7,0,.8-.6.8h-14.8v-.2Z"/><path class="cls-48" d="m187.8,92.28c-.4-1.5-1.1-2.8-2.2-3.9-.3-.3-.3-.4,0-.7,2-1.9,3.9-3.9,5.8-5.8.7-.7,1.2-1.5,1.5-2.5.6,1.5.3,3.3-.9,4.4-1.3,1.3-2.6,2.6-3.8,3.8-.3.3-.3.4,0,.7,1,1.1,1.8,2.5,2.2,3.9h-2.6v.1Z"/><path class="cls-1" d="m221.2,88.78c-3.1.2-6.3,0-9.4,0-.2,0-.5,0-.7.1-.3-.2-.6-.2-.8-.5h0c0-1.1.2-1.3,1.2-1.3h8.6c1.7,0,3-.5,3.7-2.2,0,0,.1-.2.2-.2.2,2-.7,3.4-2.4,4h-.3l-.1.1Z"/><path class="cls-1" d="m221,81.98h-8.8c-.4,0-.7,0-1.1.2-.2-.2-.6-.2-.8-.6h-.1c.1-1.1.2-1.3,1.3-1.3h8.4c.6,0,1.2,0,1.8-.3.9-.3,1.6-1,2-1.9,0-.1,0-.2.2-.2.4,1.8-.7,3.5-2.5,4h-.4v.1Z"/><path class="cls-19" d="m202.5,59.68v8.5c0,.9-.6,1.7-1.5,1.8h-17.2c-1,0-1.8-.7-1.9-1.7v-17c0-1.3.7-2,2.1-2h16.7c1,0,1.9.6,1.9,1.6v8.8h-.1Zm-11.2,4.3c0-1.9-1.5-3.4-3.4-3.4s-3.4,1.5-3.4,3.4,1.5,3.4,3.4,3.4h0c1.9,0,3.4-1.5,3.4-3.4Zm0-8.6c0-1.9-1.5-3.4-3.4-3.4s-3.4,1.5-3.4,3.4,1.5,3.4,3.4,3.4,3.4-1.5,3.5-3.3h0l-.1-.1Zm5.1,3.4c1.9,0,3.4-1.5,3.4-3.4s-1.5-3.4-3.4-3.4-3.4,1.5-3.4,3.4h0c0,1.9,1.5,3.4,3.4,3.4h0Zm2.6,5.2v-1.6c0-.5-.3-.9-.7-1h-3.5c-.4,0-.9.3-.9.7v3.5c0,.5.3.9.8.9h3.5c.5,0,.9-.3.9-.8v-1.7h-.1Z"/><path class="cls-32" d="m210.2,54.48h-3.8c-.3,0-.5,0-.5-.4,0-.87.43-1.3,1.3-1.3h6.9c.4,0,.5,0,.5.5,0,.87-.43,1.3-1.3,1.3h-3.1v-.1Z"/><path class="cls-36" d="m213.2,49.28h3.4c.3,0,.4,0,.4.4q0,1.4-1.3,1.4h-5.9c-.4,0-.5,0-.5-.5,0-.87.4-1.3,1.2-1.3h2.7Z"/><path class="cls-36" d="m205.9,50.18c0-.53.27-.8.8-.8s.83.3.9.9q0,.9-.9.9c-1,0-.8,0-.8-.9v-.1Z"/><path class="cls-7" d="m210.2,81.48h.1c0,.1-.1,0-.1,0Z"/><path class="cls-33" d="m191.3,63.98c0,1.9-1.6,3.4-3.5,3.4s-3.4-1.6-3.4-3.5,1.6-3.4,3.4-3.4c1.9,0,3.4,1.6,3.4,3.5h.1Zm-5.1-.5v.4c0,.8.5,1.4,1.2,1.7.9.3,1.9-.2,2.2-1.1.2-.5,0-1.1-.2-1.5-.4-.5-1.1-.8-1.7-.6-1.1,0-1.4.3-1.4,1.2h0l-.1-.1Z"/><path class="cls-33" d="m191.3,55.38c0,1.9-1.5,3.4-3.4,3.4s-3.4-1.5-3.4-3.4,1.5-3.4,3.4-3.4h0c1.9,0,3.4,1.5,3.4,3.4h0Zm-5-.3c-.2.6,0,1.3.6,1.7.6.4,1.4.4,2,0,.5-.4.8-1,.7-1.7-.1-.9-.9-1.5-1.8-1.4h-.2c-.5-.2-1.1,0-1.3.6v.7h0v.1Z"/><path class="cls-33" d="m196.4,58.78c-1.9,0-3.4-1.6-3.4-3.5s1.6-3.4,3.5-3.4,3.4,1.6,3.4,3.4c0,1.9-1.6,3.4-3.5,3.4v.1Zm-1.6-3.7c-.3.4,0,.8.2,1.2.4.6,1.1,1,1.8.8.7-.1,1.2-.7,1.3-1.3.2-.8-.2-1.5-.9-1.9-.4-.2-.8-.3-1.3-.2-.9,0-1.4.6-1.2,1.4h.1Z"/><path class="cls-2" d="m199,63.98v1.7c0,.5-.3.9-.8.9h-3.4c-.5,0-.9-.3-.9-.8v-3.5c0-.4.3-.9.7-.9h3.5c.5,0,.9.3.9.8v.2c0,.5,0,1.1,0,1.6Zm-3-.4h1.6c.3,0,.5-.1.5-.5s-.3-.3-.5-.3h-1.3c0-.3-.3-.4-.5-.5-.4,0-.8.3-1,.7-.2.2-.1.6.1.8.4.3.7.1,1-.1h0l.1-.1Zm.4,1.7h1.3c.2,0,.4-.2.4-.4h0c0-.3-.2-.4-.4-.4h-2.5c-.2,0-.4.1-.4.3h0c0,.2.2.4.4.4h1.3l-.1.1Z"/><path class="cls-46" d="m187.5,62.28c.6-.2,1.3,0,1.7.6.6.8.4,1.9-.4,2.4-.4.3-1,.4-1.5.2-.7-.3-1.2-.9-1.2-1.7v-.4c.2.3.5.4.9.3,0,.8.5,1.2,1.1,1,.4-.2.7-.6.5-1.1-.1-.4-.6-.7-1-.6,0-.3,0-.6-.1-.8v.1Z"/><path class="cls-39" d="m187.5,62.28c.2.2.2.5.1.8-.1.3-.4.5-.6.7-.3,0-.7,0-.9-.3,0-.9.3-1.2,1.4-1.2Z"/><path class="cls-46" d="m187.6,53.78c.9-.2,1.7.3,2,1.2v.2c.1.6-.2,1.3-.7,1.7-.6.4-1.4.4-2,0-.5-.4-.8-1.1-.6-1.7.2.2.5.2.8.1,0,.8.5,1.2,1.1,1,.4-.1.6-.5.6-.9,0-.5-.4-.7-1.1-.7.1-.3,0-.6-.1-.8v-.1Z"/><path class="cls-39" d="m187.1,55.18c-.3.1-.6,0-.8-.1-.2-.5,0-1.1.6-1.3h.7c.2.2.2.5.1.8-.2.2-.4.5-.6.6Z"/><path class="cls-46" d="m196,53.68c.4,0,.9,0,1.3.2.7.4,1,1.1.9,1.9-.2.6-.7,1.1-1.3,1.3-.7.1-1.4-.2-1.8-.8-.2-.4-.4-.7-.2-1.2.2.1.5.2.8.2,0,.4.1.8.6.9.4.1.9,0,1-.4.3-.6-.1-1.1-1-1.2,0-.3,0-.7-.3-.9Z"/><path class="cls-39" d="m196,53.68c.3.2.4.6.3.9-.2.3-.4.5-.7.7-.3,0-.5,0-.8-.2-.3-.8.3-1.4,1.2-1.4Z"/><path class="cls-34" d="m196.4,65.18h-1.3c-.2,0-.4-.1-.4-.3h0c0-.2.1-.4.3-.4h2.5c.2,0,.4,0,.4.4,0,.2-.1.4-.4.4h-1.3l.2-.1Z"/><path class="cls-5" d="m196,63.48h0c-.3.2-.6.4-1,.1-.2-.2-.3-.5-.1-.8.2-.4.5-.7,1-.7.3,0,.5.2.5.5s0,.6-.3.8l-.1.1Z"/><path class="cls-34" d="m196,63.48c.2-.2.3-.5.3-.8h1.3c.2,0,.5,0,.5.3s-.2.5-.5.5h-1.6Z"/><path class="cls-33" d="m187,63.78c.2-.2.5-.4.6-.7.4-.1.9.1,1,.6.2.4,0,.9-.5,1.1-.6.2-1.1-.2-1.1-1Z"/><path class="cls-33" d="m187.1,55.18l.6-.6c.6,0,1,.2,1.1.7,0,.4-.2.8-.6.9-.6.2-1.1-.3-1.1-1Z"/><path class="cls-33" d="m195.6,55.18c.3-.2.5-.4.7-.7.8,0,1.2.5,1,1.2-.2.4-.6.6-1,.4-.5,0-.6-.5-.6-.9h-.1Z"/><circle class="cls-8" cx="198.06" cy="337.34" r="40.94"/><path class="cls-13" d="m198.06,323.33h10.01c1.73,0,3.37,1.55,3.55,3.27v37.57c0,2-1.09,3.55-2.91,4.09-.18,0-.36,0-.45.18h-10.28v-2.64h9.28c1.18,0,1.64-.45,1.64-1.64v-36.57c0-1.18-.45-1.64-1.64-1.64h-9.28v-2.64h.09Z"/><path class="cls-15" d="m198.06,323.33v2.64h-9.64c-.36,0-.64.18-.91.36-.36.36-.45.82-.45,1.27v36.75c0,.82.55,1.36,1.46,1.36h9.55v2.64h-10.37c0-.09-.18-.09-.27-.18-1.82-.55-2.82-1.82-3-3.73v-36.84c0-2,1-3.46,2.64-4.09.36-.09.73-.18,1.09-.18h9.92Z"/><path class="cls-12" d="m198.06,325.97h9.28c1.18,0,1.64.45,1.64,1.64v36.48c0,1.18-.45,1.64-1.64,1.64h-9.28v-2.82h3.73c.73,0,1.27-.55,1.27-1.27,0-.82-.55-1.36-1.46-1.36h-3.55v-7.1c.91-.09,1.27-.55,1.27-1.46v-11.74c0-.91-.45-1.36-1.27-1.46v-7.37h1.73c.82,0,1.36-.73,1.46-1.27,0-.73-.64-1.36-1.46-1.36h-1.73v-2.55h0Zm3.82,19.83v2.46c0,.82.55,1.36,1.27,1.36s1.36-.55,1.36-1.27h0v-4.91c0-.73-.64-1.36-1.36-1.27h0c-.73,0-1.27.64-1.27,1.46v2.37h0v-.18Z"/><path class="cls-4" d="m198.06,325.97v2.55h-1.82c-.73,0-1.36.64-1.36,1.36s.64,1.27,1.36,1.27h1.73v7.37h0c-.82,0-1.27.55-1.27,1.36v11.92c0,.82.55,1.27,1.27,1.36h0v7.1h-3.55c-.82,0-1.46.55-1.46,1.36,0,.73.64,1.27,1.46,1.27h3.55v2.82h-9.55c-.82,0-1.36-.55-1.46-1.36v-36.75c0-.45,0-.91.45-1.27.27-.27.55-.36.91-.36h9.73Zm-3.82,19.92v-2.55c0-.18,0-.45-.18-.55-.27-.45-.91-.82-1.36-.64-.73.18-1.09.64-1.09,1.36v4.82c0,.73.64,1.36,1.36,1.36.82,0,1.27-.55,1.27-1.46v-2.37Z"/><path class="cls-6" d="m198.06,338.52c.91,0,1.27.55,1.27,1.46v11.74c0,.91-.36,1.36-1.27,1.46h0v-14.65h0Z"/><path class="cls-31" d="m201.88,345.8v-2.37c0-.82.55-1.36,1.27-1.46.73,0,1.36.55,1.36,1.27h0v4.91c0,.73-.64,1.27-1.36,1.27h0c-.73,0-1.27-.64-1.27-1.36v-2.46h0v.18Z"/><path class="cls-45" d="m198.06,360.26h3.55c.91,0,1.46.55,1.46,1.36,0,.73-.55,1.27-1.27,1.27h-3.73v-2.64h0Z"/><path class="cls-45" d="m198.06,328.52h1.73c.73,0,1.46.64,1.46,1.36,0,.55-.64,1.36-1.46,1.27h-1.73v-2.64h0Z"/><path class="cls-29" d="m198.06,338.52v14.65c-.82,0-1.27-.55-1.27-1.36v-11.92c0-.82.45-1.27,1.27-1.36Z"/><path class="cls-42" d="m194.15,345.89v2.37c0,.82-.45,1.36-1.27,1.46-.64,0-1.36-.55-1.36-1.36v-4.82c0-.73.45-1.18,1.09-1.36.45-.09,1.09.18,1.36.64.09.18.18.36.18.55v2.55Z"/><path class="cls-18" d="m198.06,360.26v2.64h-3.55c-.82,0-1.46-.55-1.46-1.27s.64-1.27,1.46-1.36h3.55Z"/><path class="cls-18" d="m198.06,328.52v2.64h-1.73c-.82,0-1.36-.55-1.36-1.27s.64-1.36,1.36-1.36h1.82-.09Z"/><path d="m168.04,323.42c1.64.64,2.46,2.55,1.82,4.37l-.55,1.36,2.82,1.09-.82,2-8.82-3.55,1.36-3.37c.73-1.73,2.64-2.55,4.28-1.91h-.09Zm-.82,2c-.64-.27-1.36,0-1.55.64l-.55,1.36,2.27.91.55-1.36c.27-.64,0-1.27-.73-1.55Z"/><path d="m174.78,317.69l3.37,2.55-1.27,1.64-3.09-2.37c-.64-.55-1.27-.36-1.73.18-.45.64-.45,1.27.36,1.82l3,2.27-1.27,1.64-7.55-5.82,1.27-1.64,2.64,2c-.18-.64,0-1.36.55-2.09.82-1.09,2.37-1.46,3.82-.27l-.09.09Z"/><path d="m176.32,317.15c-1.27-1.64-.91-3.82.73-5.09,1.64-1.18,3.82-.91,5.09.64,1.27,1.64.91,3.82-.73,5.09-1.64,1.18-3.82.91-5.09-.64Zm4.09-3.18c-.55-.73-1.55-.91-2.18-.36s-.82,1.46-.27,2.27c.55.73,1.55.91,2.18.36.73-.55.82-1.46.27-2.27Z"/><path d="m189.15,308.96l1.55,3.91-1.91.73-1.46-3.64c-.36-.82-1-.91-1.55-.73-.73.27-1,.91-.64,1.82l1.36,3.46-1.91.73-2.55-6.37,1.91-.73.27.64c.18-.64.64-1.18,1.46-1.55,1.27-.55,2.73,0,3.46,1.64v.09Z"/><path d="m194.79,310.6c.55,0,1-.36,1.27-.64l1.73.73c-.55,1-1.46,1.64-2.82,1.73-2.27.27-3.91-1.09-4.18-3.09-.27-2,1-3.73,3.18-4,2-.27,3.64,1.09,3.91,3.18v.82l-4.82.55c.36.64,1,.82,1.73.73Zm.91-2.64c-.27-.73-.91-1-1.55-.91-.73.09-1.27.55-1.36,1.27l2.91-.36Z"/><path d="m199.52,306.87l5.19.64-.27,1.91-5.19-.64.27-1.91Z"/><path d="m213.16,312.23c-.73,1.91-2.73,2.82-4.37,2.09-.82-.36-1.36-.91-1.55-1.55l-.27.64-1.91-.73,3.55-8.91,1.91.73-1.27,3.09c.64-.27,1.36-.36,2.18,0,1.64.64,2.46,2.64,1.73,4.55v.09Zm-1.91-.73c.36-.91,0-1.82-.91-2.18s-1.73,0-2.09.91c-.36.91,0,1.82.91,2.18s1.73,0,2.09-.91Z"/><path d="m214.07,312.87c1.27-1.64,3.46-1.82,5.09-.64,1.55,1.18,1.91,3.46.64,5.09-1.27,1.64-3.46,1.82-5.09.64-1.55-1.18-1.91-3.46-.64-5.09Zm4.09,3.18c.64-.73.45-1.73-.27-2.27s-1.64-.45-2.18.27c-.64.73-.45,1.73.27,2.27s1.64.45,2.18-.27Z"/><path d="m229.99,320.33l-7.64,5.64-1.18-1.64.55-.36c-.73,0-1.36-.36-1.91-1.18-1.09-1.46-.64-3.55,1-4.73,1.64-1.18,3.73-1,4.82.45.55.73.73,1.46.55,2.09l2.73-2,1.18,1.64-.09.09Zm-6.19,2c.82-.64.91-1.55.36-2.27s-1.46-.91-2.27-.27-.91,1.55-.36,2.27,1.46.91,2.27.27Z"/><path d="m231.36,330.43l-7,.27c-2.27,0-3.55-.73-4.18-2.55l1.82-.73c.36.91.82,1.18,1.64,1.18l5.09-4.91.82,2.09-3.37,2.91,4.37-.36.82,2v.09Z"/><path d="m227.45,339.89v-.91c-.09,0-1.64.18-1.64.18l-.27-2.18,1.55-.18-.55-4.28,2-.27,6.37,2.27.27,2.37-6.37-2.27.27,2,2-.27.27,2.18-2,.27v.91c.09,0-1.91.27-1.91.27v-.09Z"/><path d="m207.34,346.98v5.46h-2.37v3.64h-6v-3.64h-10.37v-5.55l7-14.37h6.64l-7.1,14.46h3.73v-4.28h6v4.28h2.46Z"/></svg>