<?xml version="1.0" encoding="UTF-8"?><svg id="Layer_1" xmlns="http://www.w3.org/2000/svg" viewBox="0 0 400 400"><defs><style>.cls-1{stroke:#a5262d;}.cls-1,.cls-2,.cls-3,.cls-4{stroke-width:4px;}.cls-1,.cls-2,.cls-3,.cls-4,.cls-5{stroke-miterlimit:10;}.cls-1,.cls-2,.cls-3,.cls-4,.cls-5,.cls-6{fill:none;}.cls-7{fill:#93c149;}.cls-2{stroke:#000;}.cls-8{fill:#fff;}.cls-3{stroke:#0018c6;}.cls-9{fill:#e2e7f5;}.cls-10{fill:#d2febf;}.cls-11{fill:#999afe;}.cls-12{fill:#546e7a;}.cls-4{stroke:#c000e2;}.cls-13{fill:#00f6d5;}.cls-14{fill:#f7f6fd;}.cls-15{fill:#4d4d4d;}.cls-16{fill:#989afe;}.cls-17{fill:#02f6d5;}.cls-18{fill:#e1e6f4;}.cls-19{fill:#03f6d5;}.cls-20{fill:#ffed58;}.cls-5{stroke:#231f20;stroke-width:2px;}.cls-21{fill:#36464e;}.cls-22{fill:#474c68;}.cls-23{fill:#b3dd60;}.cls-24{fill:#00244d;}.cls-25{fill:#b7b7fe;}.cls-26{fill:#979bfd;}.cls-27{fill:#788f9b;}.cls-28{fill:#484645;}.cls-29{fill:#dee3f1;}.cls-30{fill:#2b2e3f;}.cls-31{fill:#b8b8fd;}.cls-32{fill:#fbd734;}.cls-33{fill:#014767;}.cls-34{fill:#231f20;}.cls-35{fill:#00dbe6;}.cls-36{fill:#f2f2f2;}.cls-37{fill:#64c7ef;}</style></defs><line class="cls-8" x1="165.17" y1="254.33" x2="143.06" y2="278.53"/><line class="cls-5" x1="165.17" y1="254.33" x2="150.32" y2="270.58"/><polygon class="cls-34" points="146.28 263.92 143.06 278.53 157.32 274.01 146.28 263.92"/><line class="cls-8" x1="226.06" y1="254.33" x2="248.17" y2="278.53"/><line class="cls-5" x1="226.06" y1="254.33" x2="240.91" y2="270.58"/><polygon class="cls-34" points="233.91 274.01 248.17 278.53 244.96 263.92 233.91 274.01"/><line class="cls-6" x1="150.97" y1="125.12" x2="184.62" y2="152.3"/><line class="cls-5" x1="150.97" y1="125.12" x2="176.25" y2="145.54"/><polygon class="cls-34" points="169.84 149.98 184.62 152.31 179.25 138.35 169.84 149.98"/><line class="cls-6" x1="241.62" y1="125.12" x2="207.97" y2="152.3"/><line class="cls-5" x1="241.62" y1="125.12" x2="216.35" y2="145.54"/><polygon class="cls-34" points="213.35 138.35 207.97 152.3 222.75 149.98 213.35 138.35"/><circle class="cls-1" cx="244.94" cy="71.71" r="45"/><path d="m216.24,52.61c-2.47-2.73-2.26-6.95.47-9.42.11-.1.22-.19.33-.28,1.71-1.54,4.12-2.03,6.3-1.3l-1,2.9c-1.18-.37-2.46-.1-3.4.7-1.6,1.47-1.71,3.96-.25,5.57,1.39,1.52,3.72,1.71,5.35.43.96-.77,1.45-1.98,1.3-3.2l3-.5c.33,2.28-.59,4.57-2.4,6-2.8,2.5-7.09,2.25-9.59-.55-.07-.08-.14-.17-.21-.25l.1-.1Z"/><path d="m228.62,45.31c-.89-2.61.51-5.45,3.12-6.35s5.45.51,6.35,3.12c.88,2.59-.48,5.41-3.06,6.33-2.6.92-5.46-.44-6.38-3.05,0-.02-.01-.04-.02-.05Zm6.8-2.4c-.3-1.12-1.44-1.78-2.56-1.48-.08.02-.16.05-.24.08-1.07.28-1.71,1.37-1.43,2.44.03.12.08.25.13.36.3,1.12,1.44,1.78,2.56,1.48.08-.02.16-.05.24-.08,1.07-.27,1.72-1.35,1.45-2.43-.03-.13-.08-.25-.13-.37h-.02Z"/><path d="m250.54,41.81c.11,2.65-1.95,4.89-4.6,5-1.07.05-2.1-.39-2.8-1.2v.9h-2.9v-13.4h3v4.7c.72-.77,1.75-1.18,2.8-1.1,2.5-.02,4.5,2.2,4.5,5.1Zm-2.8,0c.09-1.17-.78-2.2-1.95-2.29-.08,0-.17,0-.25,0-1.21-.06-2.24.88-2.3,2.1,0,.07,0,.14,0,.2-.09,1.17.78,2.2,1.95,2.29.08,0,.17,0,.25,0,1.21.06,2.24-.88,2.3-2.1,0-.07,0-.14,0-.2Z"/><path d="m263.54,41.31l-3.4,8.9-2.7-1,.3-.8c-.97.51-2.13.51-3.1,0-2.41-1.06-3.53-3.87-2.5-6.3,1-2.6,3.7-4,6-3.1,1.01.33,1.82,1.1,2.2,2.1l.3-.8,2.7,1h.2Zm-4.3,3.4c.51-1.09.04-2.39-1.05-2.9-.08-.04-.17-.07-.25-.1-1.05-.48-2.29-.02-2.77,1.03-.05.12-.1.24-.13.37-.51,1.09-.04,2.39,1.05,2.9.08.04.17.07.25.1,1.05.48,2.29.01,2.77-1.04.06-.12.1-.25.13-.38v.02Z"/><path d="m269.14,39.81l2.3,1.6-8,11.3-2.3-1.6,8-11.3Z"/><path d="m272.14,51.51l-2.4,2.4c-.6.6-.1,1.1.8,2l-1.8,1.8c-2.9-2.4-2.8-4-.9-5.8l2.4-2.4-1.1-1.1,2-1.9,1.1,1.1,1.3-1.3,2.6,1.4-1.9,1.9,1.4,1.4-2,1.9-1.4-1.4h-.1Z"/><rect class="cls-37" x="217.94" y="61.71" width="52" height="37" rx="2.9" ry="2.9"/><path class="cls-28" d="m235.24,92.51c-3.29.1-6.48-1.17-8.8-3.5-4.67-4.94-4.67-12.66,0-17.6,2.31-2.36,5.5-3.63,8.8-3.5,3.5,0,4.1.5,5.9,1.5,1.77.96,3.26,2.37,4.3,4.1l-5.2,3c-.48-.83-1.17-1.52-2-2-.92-.49-1.96-.73-3-.7-1.72-.07-3.38.59-4.6,1.8-1.18,1.23-1.8,2.9-1.7,4.6-.23,3.31,2.27,6.17,5.58,6.39.24.02.48.02.72,0,1.05.14,2.12-.11,3-.7.85-.45,1.55-1.15,2-2l5.2,3c-1.04,1.73-2.53,3.14-4.3,4.1-1.84,1.01-3.9,1.53-6,1.5h.1Z"/><path class="cls-28" d="m255.94,92.51c-2.39.02-4.7-.92-6.4-2.6-1.74-1.63-2.68-3.92-2.6-6.3-.04-2.37.9-4.65,2.6-6.3,1.7-1.68,4.01-2.62,6.4-2.6,2.4-.04,4.71.9,6.4,2.6,3.47,3.48,3.47,9.12,0,12.6-1.69,1.7-4,2.64-6.4,2.6Zm0-5.4c.91.05,1.79-.32,2.4-1,.63-.68.99-1.57,1-2.5.05-.94-.31-1.86-1-2.5-1.31-1.33-3.45-1.33-4.78-.02,0,0-.01.01-.02.02-.63.68-.99,1.57-1,2.5-.05.94.31,1.86,1,2.5.61.68,1.49,1.05,2.4,1Z"/><circle class="cls-1" cx="146.3" cy="71.71" r="45"/><path d="m128.9,47.69l1.9,2-5.4,5-8.6-9.3,2.1-2,6.7,7.2,3.3-3.1v.2Z"/><path d="m125.3,39.91c-.44-.77-.17-1.76.6-2.2.77-.44,1.76-.17,2.2.6.44.77.17,1.75-.6,2.19-.71.46-1.66.26-2.12-.45-.03-.05-.06-.1-.08-.15Zm1.5,1.9l2.3-1.4,4.6,7.7-2.3,1.4-4.6-7.7Z"/><path d="m135.9,40.31l1.1,3c.3.7.9.6,2,0l.8,2.3c-3.2,1.6-4.5.9-5.4-1.5l-1.1-3-1.4.5-.9-2.4,1.4-.5-.6-1.6,2.3-1.7.9,2.4,1.7-.6.9,2.4-1.7.6v.1Z"/><path d="m148.8,39.11l.5,5.5-2.7.2-.4-5.1c.05-.79-.54-1.47-1.33-1.52-.12,0-.25,0-.37.02-1,0-1.6.7-1.5,2l.4,4.9-2.7.2-1-12.6,2.7-.2.4,4.4c.57-.81,1.51-1.3,2.5-1.3,1.8-.2,3.5,1,3.7,3.4l-.2.1Z"/><path d="m151.8,36.11l2.7.4-1.4,8.9-2.7-.4,1.4-8.9Zm.1-2.4c.14-.91.99-1.54,1.9-1.4.91.14,1.54.99,1.4,1.9-.14.91-.99,1.54-1.9,1.4,0,0,0,0,0,0-.91-.15-1.54-1-1.4-1.92v.02Z"/><path d="m165.7,40.41l-3.5,8.3-2.5-1,.3-.8c-.88.46-1.92.46-2.8,0-1.7-.7-2.6-2.5-1.7-4.7l2.1-5.1,2.5,1-2,4.7c-.39.72-.12,1.62.59,2.01.07.04.14.07.21.09.82.39,1.8.04,2.19-.78.05-.1.09-.21.11-.32l1.9-4.5,2.5,1,.1.1Z"/><path d="m176.7,54.69l-4,3.8-1.9-1.9,3.8-3.7c.6-.43.74-1.27.31-1.87-.03-.05-.07-.09-.11-.13-.6-.6-1.4-.6-2.2.2l-3.7,3.5-1.9-1.9,3.8-3.7c.6-.43.74-1.27.31-1.87-.03-.05-.07-.09-.11-.13-.6-.6-1.4-.6-2.2.2l-3.7,3.5-1.9-1.9,6.5-6.3,1.9,1.9-.6.6c.95-.09,1.88.28,2.5,1,.67.64.97,1.58.8,2.5,1.03-.14,2.06.28,2.7,1.1,1.4,1.52,1.3,3.52-.3,5.1Z"/><rect class="cls-15" x="119.3" y="61.71" width="52" height="37" rx="2.9" ry="2.9"/><path class="cls-36" d="m140.5,86.21h8.12v5.8h-14.2v-23.6h6v17.8h.08Z"/><path class="cls-36" d="m155.7,72.81c-.6.63-1.43.99-2.3,1-.88.02-1.72-.35-2.3-1-.63-.6-.99-1.43-1-2.3-.02-.88.35-1.72,1-2.3.61-.6,1.44-.92,2.3-.9.85,0,1.68.32,2.3.9.63.6.99,1.43,1,2.3.02.88-.35,1.72-1,2.3Zm-5.08,19.2v-16.9h5.6v16.9h-5.6Z"/><circle class="cls-3" cx="195.62" cy="206.14" r="45"/><path class="cls-22" d="m215.82,212.14v-19c-.02-2.42-1.98-4.38-4.4-4.4h-33c-2.39.09-4.31,2.01-4.4,4.4v15.3c.1.9.2,1.7.3,2.6.3,2.5.8,4.98,1.5,7.4.41,1.43.91,2.83,1.5,4.2,0,.2,0,.4.3.4v-26.3c0-.5.1-.7.6-.7h33.2c.5,0,.6.1.6.6v36.9c0,.5-.1.6-.6.6h-26.6c.1.4.5.6.8.9,1.49,1.41,3.09,2.68,4.8,3.8.3.2.6.3.9.5-.3-1.6.4-2.5,2.1-2.5h3.2c1-.04,1.85.73,1.9,1.74,0,.02,0,.04,0,.06.03.97-.74,1.78-1.71,1.81-.06,0-.12,0-.19,0h-2.8c.1.3.5.4.8.5,2.29,1.01,4.72,1.69,7.2,2,.51-.03,1.02.04,1.5.2h8.1c2.47.01,4.49-1.99,4.5-4.46,0-.01,0-.03,0-.04v-19.7c-.4-2.25-.4-4.55,0-6.8h-.1Zm-20.2-18.9h-5c-.7,0-1.1-.3-1.1-.9s.4-.9,1.1-.9h5.1c.7,0,1.1.3,1.1.9s-.4.9-1.1.9h-.1Zm3.4,0c-.9,0-1.3-.3-1.4-.9s.4-.9,1.3-.9h0c.9,0,1.3.3,1.3.9s-.4.9-1.4.9h.2Z"/><path class="cls-30" d="m173.92,208.34c.1.9.2,1.7.3,2.6.3,2.5.8,4.98,1.5,7.4.41,1.43.91,2.83,1.5,4.2,0,.2,0,.4.3.4v10.9c0,.3,0,.4.4.4h6.9c.15.38.44.7.8.9,1.49,1.41,3.09,2.68,4.8,3.8.3.2.6.3.9.5.26.43.65.78,1.1,1,.4.2.9,0,1.3.1.1.3.5.4.8.5,2.29,1.01,4.72,1.69,7.2,2,.51-.03,1.02.04,1.5.2h-24.3c-2.52.19-4.71-1.7-4.9-4.21-.02-.23-.02-.46,0-.69v-29.9l-.1-.1Z"/><path class="cls-14" d="m184.82,234.04h-.2c-.01-.21-.12-.39-.3-.5-.6-.6-1.1-1.3-1.7-1.9-1.81-2.32-3.36-4.83-4.6-7.5,0-.24-.17-.45-.4-.5v-27.1c0-.5.1-.7.6-.7h33.2c.5,0,.6.1.6.6v36.9c0,.5-.1.6-.6.6h-26.6v.1Zm6.3-29.1h-2.2c-.4,0-.6.1-.6.6v18.9c0,.4,0,.5.5.5h11.7c.4,0,.5-.1.5-.5v-18.9c0-.5-.1-.6-.6-.6h-2.2v-3.2c0-.3,0-.5-.4-.5h-6.4c-.4,0-.4.1-.4.5v3.2h.1Zm.9,25.5c0-.5-.4-.9-.9-.9s-.9.4-.9.9.4.9.9.9h0c.44.06.84-.25.9-.69,0-.07,0-.14,0-.21Zm2.7.9c.5,0,.9-.4.9-.9s-.4-.9-.9-.9-.9.4-.9.9h0c-.06.44.25.84.69.9.07,0,.14,0,.21,0Zm3.7-1.8c-.5,0-.9.4-.9.9s.4.9.9.9.9-.4.9-.9h0c.06-.44-.25-.84-.69-.9-.07,0-.14,0-.21,0Z"/><path class="cls-18" d="m193.72,240.44c-.44.02-.87-.02-1.3-.1-.45-.22-.84-.57-1.1-1-.3-1.6.4-2.5,2.1-2.5h3.2c1-.04,1.85.73,1.9,1.74,0,.02,0,.04,0,.06.03.97-.74,1.78-1.71,1.81-.06,0-.12,0-.19,0h-2.9Z"/><path class="cls-18" d="m193.02,193.24h-2.5c-.7,0-1.1-.3-1.1-.9s.4-.9,1.1-.9h5.1c.7,0,1.1.3,1.1.9s-.4.9-1.1.9h-2.6Z"/><path class="cls-29" d="m198.92,193.24c-.9,0-1.3-.3-1.4-.9s.4-.9,1.3-.9h0c.9,0,1.3.3,1.3.9s-.4.9-1.4.9h.2Z"/><path class="cls-9" d="m177.62,223.69c.3,0,.3.3.4.5,1.26,2.66,2.8,5.17,4.6,7.5.51.68,1.08,1.31,1.7,1.9.1.2.3.3.3.5h-6.7c-.3,0-.4,0-.4-.4v-10.1l.1.1Z"/><path class="cls-7" d="m198.52,205.04h2.2c.4,0,.6.1.6.6v18.9c0,.4,0,.5-.5.5h-11.7c-.4,0-.5-.1-.5-.5v-18.85c0-.5.1-.6.6-.6h9.3v-.05Zm-7.3,6.1c.23-.44.71-.68,1.2-.6h4.5c.5,0,1.1-.1,1.5.6v-2.9c0-.4-.1-.5-.5-.5h-6.3c-.4,0-.5.1-.5.5v2.9h.1,0Zm0,7.8v2.9c0,.3,0,.4.4.4h6.5c.3,0,.4,0,.4-.4v-3c-.23.44-.71.68-1.2.6h-4.8c-.52.09-1.03-.15-1.3-.6h0v.1Zm7.2-7.2c-.23.44-.71.68-1.2.6h-4.6c-.52.08-1.05-.11-1.4-.5v2.9c.23-.44.71-.68,1.2-.6h4.6c.52-.08,1.05.11,1.4.5v-2.9Zm0,6.6v-3c-.3.6-.7.6-1.2.6h-4.5c-.5,0-1.1.1-1.5-.6v3c.24-.42.72-.66,1.2-.6h4.8c.5,0,.9,0,1.2.6Z"/><path class="cls-23" d="m198.52,205.04h-7.3v-3.2c0-.3,0-.5.4-.5h6.4c.4,0,.4.1.4.5v3.2h.1Z"/><path class="cls-22" d="m192.12,230.44c0,.5-.4.9-.9.9s-.9-.4-.9-.9.4-.9.9-.9h0c.44-.06.84.25.9.69,0,.07,0,.14,0,.21Z"/><path class="cls-22" d="m194.82,231.34c-.5,0-.9-.4-.9-.9s.4-.9.9-.9.9.4.9.9h0c.06.44-.25.84-.69.9-.07,0-.14,0-.21,0Z"/><path class="cls-22" d="m198.52,229.54c.5,0,.9.4.9.9s-.4.9-.9.9-.9-.4-.9-.9h0c-.06-.44.25-.84.69-.9.07,0,.14,0,.21,0Z"/><path class="cls-23" d="m191.22,211.04v-2.9c0-.4.1-.5.5-.5h6.3c.4,0,.5.1.5.5v2.9c-.4-.8-1-.6-1.5-.6h-4.5c-.5,0-.9,0-1.2.6h-.1Z"/><path class="cls-23" d="m191.22,218.94c.3.6.8.6,1.3.6h4.8c.5,0,.9,0,1.2-.6v3c0,.3-.1.4-.4.4h-6.5c-.2.02-.38-.13-.4-.34,0-.02,0-.04,0-.06v-3Z"/><path class="cls-23" d="m198.42,211.69v2.9c-.4-.5-.8-.5-1.4-.5h-4.6c-.5,0-.9,0-1.2.6v-2.9c.4.5.8.5,1.4.5h4.6c.5-.05.9-.05,1.2-.6Z"/><path class="cls-23" d="m198.42,218.24c-.26-.41-.72-.64-1.2-.6h-4.8c-.5,0-.9,0-1.2.6v-3c.4.7,1,.6,1.5.6h4.5c.5,0,.9,0,1.2-.6v3Z"/><path d="m158.82,195.94l-.6,2.6,8,1.7-.5,2.3-8-1.7-.6,2.6-2.3-.5,1.6-7.6,2.3.5.1.1Z"/><path d="m162.92,188.34l6.8,3.2-1,2-.6-.3c.32.78.28,1.65-.1,2.4-1.19,1.86-3.67,2.4-5.53,1.2-1.5-.96-2.18-2.8-1.67-4.5.33-.78.99-1.37,1.8-1.6l-.6-.3,1-2-.1-.1Zm2.4,3.6c-.9-.38-1.94.04-2.32.94-.38.9.04,1.94.94,2.32.87.37,1.87,0,2.29-.86.43-.87.07-1.93-.8-2.36-.03-.02-.06-.03-.1-.04Z"/><path d="m172.82,182.24c1.63,1.27,1.91,3.62.64,5.25-.01.02-.03.03-.04.05-.52.69-1.34,1.1-2.2,1.1l.5.5-1.5,1.7-7.9-6.9,1.5-1.7,2.8,2.45c-.09-.85.2-1.69.8-2.3,1.35-1.46,3.62-1.56,5.09-.21.07.07.15.14.21.21l.1-.15Zm-1.5,1.7c-.75-.67-1.9-.63-2.6.1-.64.67-.62,1.73.05,2.38.05.04.1.09.15.12.75.67,1.9.63,2.6-.1.65-.61.67-1.63.06-2.28-.08-.08-.17-.16-.26-.22Z"/><path d="m169.82,175.69l1.8-1.4,6.6,8.7-1.8,1.4-6.6-8.7Z"/><path d="m181.72,178.94c.48-.2.85-.6,1-1.1h2.1c-.2,1.3-1.02,2.42-2.2,3-1.88,1.08-4.28.43-5.37-1.45-.05-.08-.09-.17-.13-.25-1-1.86-.31-4.17,1.55-5.18.08-.04.17-.09.25-.12,1.84-.96,4.1-.24,5.06,1.59.05.1.1.2.14.31.08.27.18.54.3.8l-4.8,2.4c.6.6,1.3.5,2.1.1v-.1Zm0-3.1c-.48-.61-1.33-.78-2-.4-.73.26-1.13,1.06-.9,1.8l2.9-1.4Z"/><path d="m187.72,173.04l.6,2.6c.2.6.7.5,1.7.3l.5,2c-2.8,1-3.8.4-4.3-1.7l-.6-2.55-1.2.3-.5-2.1,1.2-.3-.3-1.4,2-1.2.5,2,1.5-.4.5,2.1-1.5.4-.1-.05Z"/><path d="m203.22,174.44c-.1,2.09-1.88,3.7-3.97,3.6-.01,0-.02,0-.03,0-.83-.02-1.61-.43-2.1-1.1v.7l-2.3-.2,1.1-10.4,2.2.2-.4,3.7c.63-.55,1.47-.81,2.3-.7,2,.27,3.4,2.11,3.13,4.1,0,.07-.02.13-.03.2l.1-.1Zm-2.2-.2c.14-.96-.52-1.85-1.48-1.99-.04,0-.08-.01-.12-.01-.98-.12-1.87.58-2,1.56,0,.01,0,.03,0,.04-.11.99.61,1.89,1.6,2s1.89-.61,2-1.6Z"/><path d="m213.32,174.24l-2.8,7-2.1-.8.3-.7c-.76.35-1.64.35-2.4,0-1.88-1.16-2.46-3.63-1.3-5.51.9-1.46,2.63-2.18,4.3-1.79.79.29,1.41.91,1.7,1.7l.3-.7,2.1.8h-.1Zm-3.5,2.6c.41-.89.02-1.94-.87-2.35-.04-.02-.09-.04-.13-.05-.83-.4-1.82-.05-2.21.78-.03.07-.06.14-.09.22-.41.89-.02,1.94.87,2.35.04.02.09.04.13.05.83.4,1.82.05,2.21-.78.03-.07.06-.14.09-.22h0Z"/><path d="m216.82,179.14l-1.5,2.2c-.4.5,0,.9.9,1.4l-1.2,1.7c-2.6-1.4-2.8-2.7-1.6-4.4l1.5-2.2-1-.7,1.2-1.8,1,.7.8-1.2,2.2.7-1.2,1.7,1.3.9-1.2,1.8-1.3-.9.1.1Z"/><path d="m221.22,183.04l-1.9,1.9c-.5.5-.1.9.6,1.5l-1.4,1.5c-2.3-1.9-2.3-3.1-.8-4.6l1.9-1.9-.9-.8,1.5-1.5.9.8,1-1,2.1,1.1-1.5,1.5,1.1,1.1-1.5,1.5-1.1-1.1Z"/><path d="m222.62,190.54c.29.47.76.79,1.3.9v2.1c-1.25-.09-2.38-.81-3-1.9-1.28-1.76-.89-4.21.87-5.49,1.76-1.28,4.21-.89,5.49.87,1.28,1.76.89,4.21-.87,5.49-.06.04-.12.09-.19.13-.25.17-.51.31-.8.4l-2.9-4.4c-.42.65-.38,1.49.1,2.1v-.2Zm3-.3c.53-.55.57-1.4.1-2-.36-.69-1.18-.99-1.9-.7l1.8,2.7Z"/><path d="m232.02,196.74l-2.4.9c-.11-.99-.99-1.7-1.98-1.6-.14.02-.28.05-.42.1l-3.2,1.2-.8-2.1,7-2.7.8,2.1-1.2.5c1,.02,1.87.66,2.2,1.6Z"/><path d="m233.62,205.94l-7.6-1.4c-2.5-.5-3.6-1.6-3.8-3.7l2.1-.3c.04.85.67,1.55,1.5,1.7l6.6-4,.4,2.4-4.3,2.3,4.8.7.4,2.4-.1-.1Z"/><circle class="cls-4" cx="128.49" cy="328.29" r="45"/><path d="m91.19,319.99l-.6,2.8,8.5,1.8-.5,2.5-8.5-1.8-.6,2.8-2.4-.5,1.7-8.1,2.4.5Z"/><path d="m95.79,311.89l7.2,3.5-1,2.2-.7-.3c.3.7.3,1.6-.2,2.6-.9,1.9-3.3,2.6-5.5,1.6-2.1-1-3.1-3.4-2.1-5.3.5-1,1.1-1.5,1.9-1.7l-.7-.3,1-2.2.1-.1Zm2.6,3.9c-1.1-.5-2.1-.1-2.6.9s-.1,2,.9,2.6c1.1.5,2.1.1,2.6-.9s.1-2-.9-2.6Z"/><path d="m106.49,305.59c1.7,1.6,1.9,4.1.5,5.7-.7.8-1.5,1.1-2.3,1.1l.5.5-1.6,1.8-8.2-7.6,1.6-1.8,2.9,2.7c0-.8.2-1.6.9-2.4,1.4-1.5,4-1.5,5.7,0Zm-1.6,1.8c-.9-.8-2-.7-2.7,0-.8.8-.7,1.9.1,2.7.9.8,2,.7,2.7,0,.8-.8.7-1.9-.1-2.7Z"/><path d="m103.59,298.49l2-1.4,6.7,9.6-2,1.4-6.7-9.6Z"/><path d="m116.09,302.49c.6-.3,1-.7,1.2-1.2l2.2.3c-.3,1.3-1.2,2.3-2.6,2.9-2.5,1.1-4.8,0-5.7-2.1-.9-2.2,0-4.6,2.2-5.6,2.1-.9,4.4,0,5.4,2.3.1.3.2.6.3.9l-5.2,2.2c.6.6,1.4.6,2.2.3Zm.2-3.3c-.6-.8-1.4-.8-2.1-.5-.8.4-1.2,1-1.1,1.9l3.2-1.4Z"/><path d="m122.99,296.59l.5,2.8c.1.7.7.6,1.7.4l.4,2.1c-3,.9-4.1.1-4.5-2.1l-.5-2.8-1.3.2-.4-2.3,1.3-.2-.3-1.5,2.2-1.1.4,2.2,1.6-.3.4,2.3-1.6.3h.1Z"/><path d="m126.59,295.89l6.1.2v2.3l-6.1-.2v-2.3Z"/><path d="m143.09,300.79c-.7,2.3-2.9,3.5-4.9,2.9-1-.3-1.7-.9-2-1.6l-.2.7-2.3-.7,3.3-10.7,2.3.7-1.2,3.8c.7-.4,1.5-.5,2.6-.2,2,.6,3.1,2.9,2.4,5.2v-.1Zm-2.3-.7c.4-1.1-.2-2.1-1.2-2.4-1.1-.3-2,.2-2.4,1.3-.4,1.1.2,2.1,1.2,2.4,1.1.3,2-.2,2.4-1.3Z"/><path d="m144.29,301.39c1.3-2,3.9-2.4,5.9-1.1s2.5,3.9,1.1,5.9c-1.3,2-3.9,2.4-5.9,1.1s-2.5-3.9-1.1-5.9Zm5,3.4c.6-.9.4-2-.5-2.6s-1.9-.4-2.6.5-.4,2,.5,2.6,1.9.4,2.6-.5Z"/><path d="m163.39,309.19l-8.7,7.1-1.5-1.9.6-.5c-.8,0-1.6-.4-2.3-1.2-1.3-1.6-1-4.1.9-5.6,1.8-1.5,4.4-1.3,5.7.3.7.8.9,1.7.7,2.5l3.1-2.5,1.5,1.9v-.1Zm-7.1,2.7c.9-.8,1-1.9.3-2.7-.7-.9-1.8-1-2.7-.2-.9.8-1,1.9-.3,2.7.7.9,1.8,1,2.7.2Z"/><path d="m165.49,320.99l-8.2.6c-2.7.2-4.2-.7-5-2.8l2.1-.9c.4,1,1,1.4,2,1.3l5.8-5.9,1,2.4-3.8,3.6,5.1-.6,1,2.4v-.1Z"/><path d="m169.79,326.89l-11,2-.5-2.5,8.4-1.5-.9-1.9,2-1,1.6,2.7.4,2.2Z"/><path class="cls-24" d="m128.49,315.69h12.4c1.9,0,3.6,1.4,3.6,3.4v34.4c0,1.5-.6,2.6-1.9,3.3-.3.2-.7.2-1,.4h-13.1v-2.4h12.2c.9,0,1.3-.4,1.3-1.2v-34.3c0-.9-.4-1.2-1.3-1.2h-12.2v-2.4Z"/><path class="cls-33" d="m128.49,354.59v2.4h-13.2c-.1-.2-.4-.2-.5-.2-1.3-.5-2.2-1.7-2.2-3.1v-34.4c0-1.5.6-2.7,2-3.3.4-.2.8-.3,1.2-.3h12.7v2.4h-12.2c-.9,0-1.3.3-1.3,1.3v34c0,.9.3,1.3,1.3,1.3h12.2v-.1Z"/><path class="cls-13" d="m128.49,318.09h12.2c.9,0,1.3.4,1.3,1.2v34c0,.9-.4,1.2-1.3,1.2h-12.2v-2.5h3.5c.5,0,1.1-.4,1.1-.9.2-.9-.4-1.6-1.3-1.6h-3.3v-9.8c.8-.1,1.2-.6,1.2-1.4v-4.1c0-.8-.4-1.3-1.2-1.4v-9.8h1.7c.7,0,1.2-.5,1.2-1.2h0c0-.7-.5-1.2-1.2-1.2h-1.7v-2.5h0Zm5.9,18.3v-3.8c0-.5-.2-.9-.6-1.2-.8-.5-1.8,0-1.8,1.1v7.5c0,.5.1,1,.6,1.3.8.5,1.8-.1,1.8-1.2v-3.8.1Zm4.7,0v-1c0-.7-.5-1.2-1.2-1.2h0c-.7,0-1.2.5-1.2,1.1v2.1c0,.7.6,1.2,1.3,1.1.6,0,1.1-.6,1.1-1.2v-1h0v.1Z"/><path class="cls-10" d="m128.49,318.09v2.5h-1.6c-.8,0-1.3.5-1.3,1.2s.6,1.2,1.3,1.2h1.6v9.8h0c-.8,0-1.2.7-1.2,1.5v3.9c0,.8.5,1.5,1.2,1.5h0v9.9h-3.3c-.8,0-1.3.5-1.3,1.2s.6,1.2,1.3,1.2h3.3v2.5h-12.2c-.9,0-1.3-.3-1.3-1.3v-33.8c0-.9.3-1.3,1.3-1.3h12.2Zm-3.6,18.2v-5.9c-.2-.5-.8-.8-1.3-.8s-1,.6-1,1.2v10.9c0,.7.5,1.2,1.2,1.2h0c.7,0,1.2-.6,1.1-1.3v-5.4.1Zm-4.7,0v-2.2c0-.7-.5-1.3-1.2-1.3s-1.2.6-1.2,1.3v4.3c0,.7.5,1.3,1.2,1.3s1.2-.6,1.2-1.3v-2.1Z"/><path class="cls-26" d="m134.39,336.39v3.8c0,1.1-1,1.7-1.8,1.2-.5-.3-.6-.8-.6-1.3v-7.5c0-1.1,1-1.7,1.8-1.1.4.3.6.7.6,1.2v3.8-.1Z"/><path class="cls-35" d="m128.49,349.69h3.3c.9,0,1.5.7,1.3,1.6,0,.4-.6.8-1.1.9h-3.5v-2.4h0v-.1Z"/><path class="cls-16" d="m139.09,336.39v1c0,.7-.6,1.2-1.2,1.2s-1.1-.5-1.2-1.1v-2.1c0-.7.6-1.1,1.2-1.1.7,0,1.2.5,1.2,1.2h0v1-.1Z"/><path class="cls-11" d="m128.49,332.89c.8.1,1.2.6,1.2,1.4v4.1c0,.8-.4,1.3-1.2,1.4h0v-6.9h0Z"/><path class="cls-35" d="m128.49,320.59h1.7c.8,0,1.2.5,1.2,1.2s-.5,1.2-1.2,1.2h-1.7v-2.4h0Z"/><path class="cls-31" d="m124.89,336.29v5.4c0,.7-.5,1.3-1.1,1.3-.7,0-1.2-.5-1.3-1.2h0v-10.9c0-.6.5-1.2,1-1.2.6,0,1.1.2,1.3.8v5.9l.1-.1Z"/><path class="cls-31" d="m120.19,336.39v2.1c0,.7-.5,1.3-1.2,1.3s-1.2-.6-1.2-1.3v-4.3c0-.7.5-1.3,1.2-1.3s1.2.6,1.2,1.3v2.2Z"/><path class="cls-17" d="m128.49,349.69v2.4h-3.3c-.8,0-1.3-.5-1.3-1.2s.6-1.2,1.3-1.2c1.1,0,2.2,0,3.3,0Z"/><path class="cls-25" d="m128.49,332.89v6.9c-.8,0-1.2-.7-1.2-1.5v-3.9c0-.8.5-1.5,1.2-1.5Z"/><path class="cls-19" d="m128.49,320.59v2.4h-1.6c-.8,0-1.3-.6-1.3-1.2s.5-1.2,1.3-1.2h1.6Z"/><path d="m126.79,322.99h5.7v25.9h-6.6v-18.9l-4.5,1.1-1.6-5.6,7-2.5Z"/><path class="cls-32" d="m280.05,322.49c.56,0,1.12.02,1.68.03.95,0,1.73.77,1.74,1.73.01.87,0,1.75,0,2.62,0,7.4,0,14.8,0,22.2,0,.48-.02.97-.16,1.44-.17.55-.85,1.04-1.42,1.04-6.27,0-12.53,0-18.8,0-.03,0-.06,0-.09-.01,0-1.7,0-3.41,0-5.11,1.31,0,2.61,0,3.92-.01.17,0,.36.04.36-.23.01-.64.06-1.3-.09-1.92-.4-1.67-.89-3.32-1.31-4.98-.12-.45-.24-.89-.4-1.33-.25-.68.22-1.04.63-1.41.67-.62.96-1.39,1.12-2.29.34-1.86-1.23-4.1-3.01-4.67-.06-.1-.14-.14-.25-.09-.09-.02-.18-.04-.27-.06-.04-.06-.09-.07-.16-.04-.17-.02-.35-.05-.52-.07,0-2.26,0-4.53,0-6.79,3.21,0,6.42-.01,9.64-.02.2,0,.4-.02.6-.02,1.15.04,2.3.05,3.45,0,1.13.06,2.25.05,3.38,0Z"/><path class="cls-20" d="m262.98,346.43c0,1.7,0,3.41,0,5.11-.65,0-1.29.01-1.94.01-5.47,0-10.93-.03-16.4.02-1.44.01-2.18-.77-2.18-2.18.05-8.36.03-16.73,0-25.09,0-1,.81-1.8,1.76-1.78.56.01,1.12-.01,1.68-.02,1.13.03,2.25.06,3.38-.01,1.15.07,2.29.04,3.44.01.19,0,.37.02.56.02,3.23,0,6.45,0,9.68.01,0,2.26,0,4.53,0,6.79-.36.17-.77.09-1.15.23-1.6.62-2.65,1.7-3.03,3.39-.07.04-.12.08-.03.15-.13,1.4.02,2.69,1.28,3.62.4.29.55.73.39,1.28-.1.33-.23.66-.31,1.01-.22.94-.47,1.87-.72,2.8-.18.69-.39,1.37-.56,2.06-.16.68-.12,1.39-.15,2.08-.01.35.08.47.45.46,1.28-.02,2.55,0,3.83,0Z"/><path class="cls-27" d="m249.3,322.48c-1.13.07-2.25.04-3.38.01,0-3.04-.02-6.08.02-9.12.02-1.41.21-2.8.62-4.17.49-1.64,1.19-3.19,2.13-4.61,1.18-1.78,2.64-3.3,4.39-4.55,1.15-.82,2.35-1.55,3.67-2.01,1.31-.46,2.64-.91,4.06-1.01.79-.06,1.58-.17,2.39-.16,1.99.03,3.91.43,5.76,1.13,1.86.7,3.53,1.71,5.06,2.98,1.31,1.1,2.39,2.39,3.31,3.82.65,1.01,1.16,2.09,1.6,3.22.24.62.4,1.26.62,1.89.19.57.23,1.19.3,1.8.39,3.58.1,7.18.19,10.77-1.13.04-2.25.06-3.38,0,0-2.57-.02-5.14.01-7.7.02-1.48-.17-2.92-.53-4.35-.51-2-1.44-3.81-2.79-5.35-1.66-1.89-3.66-3.32-6.09-4.09-1.72-.55-3.47-.72-5.28-.61-1.67.1-3.25.49-4.75,1.19-2.49,1.16-4.45,2.93-5.9,5.27-1.25,2.01-1.93,4.23-2.02,6.57-.11,3.02-.02,6.05-.02,9.08Z"/><path class="cls-12" d="m273.22,322.49c0-2.72.02-5.45,0-8.17-.02-1.45-.22-2.88-.8-4.23-.46-1.07-1.07-2.04-1.84-2.93-1.14-1.32-2.56-2.24-4.16-2.82-1.48-.54-3.04-.72-4.64-.52-.98.12-1.92.35-2.8.73-2.45,1.07-4.25,2.82-5.37,5.27-.52,1.15-.73,2.35-.79,3.6-.15,3.02-.02,6.04-.07,9.07-1.15.02-2.3.05-3.44-.02,0-3.03-.09-6.06.02-9.08.09-2.34.77-4.55,2.02-6.57,1.45-2.33,3.41-4.11,5.9-5.27,1.5-.7,3.07-1.09,4.75-1.19,1.81-.11,3.56.07,5.28.61,2.43.77,4.43,2.19,6.09,4.09,1.35,1.55,2.28,3.35,2.79,5.35.36,1.43.55,2.87.53,4.35-.03,2.57-.01,5.14-.01,7.7-1.15.06-2.3.04-3.45,0Z"/><path class="cls-21" d="m262.98,346.43c-1.28,0-2.55-.02-3.83,0-.37,0-.46-.11-.45-.46.03-.7-.02-1.4.15-2.08.17-.69.38-1.37.56-2.06.25-.93.5-1.87.72-2.8.08-.34.21-.67.31-1.01.16-.55,0-.99-.39-1.28-1.26-.93-1.41-2.22-1.28-3.62.07-.04.07-.09.03-.15.38-1.69,1.44-2.77,3.03-3.39.38-.15.79-.06,1.15-.23.17.02.35.05.52.07.03.09.08.14.16.04.09.02.18.04.27.06.05.12.15.09.25.09,1.78.57,3.34,2.81,3.01,4.67-.16.89-.44,1.67-1.12,2.29-.41.38-.88.73-.63,1.41.16.43.29.88.4,1.33.43,1.66.91,3.31,1.31,4.98.15.62.1,1.28.09,1.92,0,.28-.19.23-.36.23-1.31,0-2.61,0-3.92.01Z"/><path class="cls-12" d="m264.18,329.59c-.1,0-.2.03-.25-.09.11-.05.19,0,.25.09Z"/><path class="cls-12" d="m263.66,329.44c-.08.1-.12.05-.16-.04.06-.04.12-.02.16.04Z"/><path class="cls-27" d="m258.81,332.95c.04.06.04.12-.03.15-.09-.07-.03-.12.03-.15Z"/><circle class="cls-2" cx="263.13" cy="326.81" r="43.87"/></svg>