<?xml version="1.0" encoding="UTF-8"?><svg id="Layer_1" xmlns="http://www.w3.org/2000/svg" viewBox="0 0 400 400"><defs><style>.cls-1{fill:#a7cefe;}.cls-2{stroke:#a5262d;}.cls-2,.cls-3,.cls-4{stroke-width:4px;}.cls-2,.cls-3,.cls-4,.cls-5{stroke-miterlimit:10;}.cls-2,.cls-3,.cls-4,.cls-5,.cls-6{fill:none;}.cls-3{stroke:#0018c6;}.cls-7{fill:#8ac5cd;}.cls-4{stroke:#c000e2;}.cls-8{fill:#717f8f;}.cls-9{fill:#c69c6d;}.cls-5{stroke:#231f20;stroke-width:2px;}.cls-10{fill:#3b566a;}.cls-11{fill:#b2d3d9;}.cls-12{fill:#b3d4da;}.cls-13{fill:#728090;}.cls-14{fill:#484645;}.cls-15{fill:#637889;}.cls-16{fill:#b6d6fd;}.cls-17{fill:#b3b3b3;}.cls-18{fill:#88c4cc;}.cls-19{fill:#2f4859;}.cls-20{fill:#33b1cb;}.cls-21{fill:#304959;}.cls-22{fill:#3f4a5b;}.cls-23{fill:#231f20;}.cls-24{fill:#33b1cc;}.cls-25{fill:#86cde8;}</style></defs><line class="cls-6" x1="200.27" y1="115.12" x2="200.77" y2="147.9"/><line class="cls-5" x1="200.27" y1="115.12" x2="200.61" y2="137.14"/><polygon class="cls-23" points="193.1 135.06 200.77 147.9 208.07 134.84 193.1 135.06"/><line class="cls-6" x1="118.67" y1="110.86" x2="167.33" y2="150.16"/><line class="cls-5" x1="118.67" y1="110.86" x2="158.96" y2="143.4"/><polygon class="cls-23" points="152.55 147.84 167.33 150.17 161.96 136.21 152.55 147.84"/><line class="cls-6" x1="281.33" y1="110.86" x2="232.68" y2="150.16"/><line class="cls-5" x1="281.33" y1="110.86" x2="241.05" y2="143.4"/><polygon class="cls-23" points="238.05 136.21 232.68 150.16 247.46 147.84 238.05 136.21"/><circle class="cls-2" cx="91.11" cy="61.42" r="45"/><path d="m65.01,45.82l1-3c1.15.63,2.58.43,3.5-.5,1.1-1,1-1.7.7-2.1-.6-.6-1.4-.4-3.4.6s-4.1,1.5-5.9-.5c-1.8-2-1.1-4.7.7-6.3,1.58-1.5,3.91-1.9,5.9-1l-1,3c-.95-.52-2.13-.36-2.9.4-.8.7-.8,1.4-.4,1.8s1,.6,3-.4,4.3-1.9,6.2.3c1.8,2,1.2,4.7-1.1,6.7-2.3,2-4.5,2.1-6.5,1.1l.2-.1Z"/><path d="m70.01,29.92c-.44-.88-.08-1.96.8-2.4s1.96-.08,2.4.8.08,1.96-.8,2.4h0c-.89.39-1.92.04-2.4-.8Zm1.5,2.3l2.7-1.4,4.5,8.9-2.7,1.4-4.5-8.9Z"/><path d="m75.81,25.22l2.9-.9,4.5,13.9-2.9.9-4.5-13.9Z"/><path d="m82.41,25.33c-.16-.99.51-1.93,1.5-2.09.99-.16,1.93.51,2.09,1.5.16.99-.5,1.92-1.49,2.09-.98.17-1.92-.49-2.1-1.47,0,0,0-.02,0-.03Zm.7,2.6l3-.5,1.6,9.9-3,.5-1.6-9.9Z"/><path d="m89.01,31.92c.13-2.85,2.55-5.06,5.41-4.92.1,0,.2.01.29.02,1.86.09,3.52,1.21,4.3,2.9l-2.7,1.3c-.53-1.13-1.88-1.62-3.01-1.09-.74.35-1.24,1.07-1.29,1.89-.16,1.22.7,2.33,1.92,2.48.06,0,.12.01.18.02.8.07,1.58-.31,2-1l2.5,1.7c-1.02,1.56-2.84,2.41-4.7,2.2-2.88-.17-5.08-2.65-4.91-5.53,0-.06,0-.11.01-.17v.2Z"/><path d="m99.91,32.92c1.13-2.68,4.22-3.94,6.9-2.81,2.68,1.13,3.94,4.22,2.81,6.9-1.13,2.68-4.22,3.94-6.9,2.81,0,0,0,0,0,0-2.66-1.09-3.94-4.14-2.84-6.8.01-.03.03-.07.04-.1Zm7,2.9c.53-1.17.02-2.54-1.14-3.08-.02,0-.04-.02-.06-.02-1.11-.5-2.42,0-2.92,1.11-.03.06-.05.13-.08.19-.56,1.1-.11,2.45.99,3.01.07.03.14.06.21.09,1.11.5,2.42,0,2.92-1.11.03-.06.05-.13.08-.19Z"/><path d="m119.41,44.02l-4.2,4.5-2.2-2,3.9-4.2c.69-.6.76-1.65.16-2.34-.05-.06-.1-.11-.16-.16-.72-.71-1.87-.7-2.57.02-.08.09-.16.18-.23.28l-3.7,4-2.2-2,6.8-7.4,2.2,2-.6.7c1.07-.18,2.17.19,2.9,1,1.5,1.4,1.8,3.6,0,5.6h-.1Z"/><rect class="cls-9" x="64.21" y="51.92" width="52" height="37" rx="2.9" ry="2.9"/><path class="cls-14" d="m86.41,83.02c-2.18.11-4.34-.45-6.2-1.6-1.58-1.02-2.78-2.53-3.4-4.3l5.2-3c.69,1.97,2.62,3.24,4.7,3.1,2.3,0,2.8-.5,2.8-1.6s-.5-1.2-1.6-1.7c-.97-.38-1.98-.68-3-.9-1.91-.44-3.66-1.37-5.1-2.7-1.32-1.19-2.02-2.93-1.9-4.7-.03-2.02.81-3.95,2.3-5.3,1.65-1.39,3.77-2.11,5.92-1.99,1.87-.07,3.71.42,5.3,1.4,1.54.96,2.76,2.35,3.5,4l-5.1,3c-.5-1.61-2.02-2.67-3.7-2.6-1.7,0-1.3.1-1.6.4-.36.25-.59.66-.6,1.1.05.54.34,1.02.8,1.3,1,.59,2.08,1.03,3.2,1.3,1.1.4,2,.7,2.8,1,.8.34,1.56.74,2.3,1.2.78.55,1.43,1.26,1.9,2.1.41.95.61,1.97.6,3,.11,2.1-.83,4.12-2.5,5.4-1.87,1.4-4.17,2.11-6.5,2l-.12.09Z"/><path class="cls-14" d="m102.61,63.33c-.6.63-1.43.99-2.3,1-1.79.03-3.27-1.4-3.31-3.19-.02-.91.35-1.78,1.01-2.41.61-.6,1.44-.92,2.3-.9.85,0,1.68.32,2.3.9.63.6.99,1.43,1,2.3.02.88-.35,1.72-1,2.3Zm-5.1,19.2v-16.91h5.62v16.9h-5.62Z"/><circle class="cls-2" cx="199.99" cy="61.42" r="45"/><rect class="cls-17" x="173.99" y="51.42" width="52" height="37" rx="2.9" ry="2.9"/><path class="cls-14" d="m200.8,81.72l-1.1-3.4h-8l-1,3.4h-6.5l7.5-23.6h7.6l7.8,23.6h-6.3Zm-7.6-8.6h4.8l-2.4-8-2.4,8Z"/><path class="cls-14" d="m208.49,81.72v-24.7h5.63v24.7h-5.63Z"/><path d="m176.13,40.12l-2.4,3.1,1,1.4-1.6,2.1-6.1-9.3,1.9-2.4,10.5,3.7-1.6,2.1-1.6-.6-.1-.1Zm-2.2-.8l-3.8-1.4,2.3,3.3,1.5-1.9Z"/><path d="m172.8,30.33l1.7-1.4,7,8.4-1.7,1.4-7-8.4Z"/><path d="m184.99,26.52l3.6,6.6-2,1.1-.3-.6c-.11.81-.64,1.49-1.4,1.8-1.33.74-3.01.25-3.75-1.08-.06-.1-.11-.21-.15-.32l-2.2-4,2-1.1,2,3.8c.29.65,1.06.94,1.71.65.03-.01.06-.03.09-.05.67-.32.95-1.12.63-1.79-.04-.07-.08-.15-.13-.21l-2-3.6,2-1.1-.1-.1Z"/><path d="m199.6,26.02l.8,4.5-2.2.4-.8-4.3c-.03-.6-.54-1.05-1.14-1.02-.06,0-.11.01-.16.02-.7.1-1.1.7-.9,1.6l.7,4.2-2.2.4-.8-4.3c-.03-.6-.54-1.05-1.14-1.02-.06,0-.11.01-.16.02-.7.1-1.1.7-.9,1.6l.7,4.2-2.2.4-1.3-7.4,2.2-.4v.7c.41-.67,1.12-1.11,1.9-1.2.76-.23,1.58,0,2.1.6.37-.79,1.13-1.33,2-1.4,1.7-.3,3,.7,3.3,2.6l.2-.2Z"/><path d="m201.9,23.62l2.2.2-.6,7.5-2.2-.2.6-7.5Zm0-2c.08-.75.75-1.29,1.5-1.2.75.08,1.29.75,1.2,1.5s-.75,1.29-1.5,1.2c0,0,0,0,0,0-.72-.05-1.26-.66-1.21-1.38,0-.04,0-.08.01-.12Z"/><path d="m212.9,28.72l-1.2,4.4-2.2-.6,1.1-4.1c.24-.68-.11-1.42-.78-1.66-.04-.01-.08-.03-.12-.04-.69-.26-1.46.08-1.72.76-.04.11-.07.22-.08.34l-1.1,3.9-2.2-.6,2-7.2,2.2.6-.2.7c.67-.47,1.53-.58,2.3-.3,1.49.39,2.38,1.91,2,3.4-.03.1-.06.2-.1.3l.1.1Z"/><path d="m222.49,30.72l-3.8,6.4-1.9-1.2.4-.6c-.77.29-1.63.18-2.3-.3-1.32-.77-1.78-2.46-1.01-3.78.06-.11.13-.22.21-.32l2.4-4,1.9,1.2-2.2,3.7c-.41.5-.34,1.24.16,1.65.07.06.15.11.24.15.63.41,1.48.23,1.89-.4.04-.06.08-.13.11-.2l2.1-3.5,1.9,1.2h-.1Z"/><path d="m230.3,43.02l-3.5,3-1.5-1.7,3.4-2.9c.6-.5.7-1.1.2-1.6-.43-.5-1.18-.55-1.68-.12-.04.04-.08.08-.12.12l-3.2,2.7-1.5-1.7,3.4-2.9c.6-.5.7-1.1.2-1.6-.43-.5-1.18-.55-1.68-.12-.04.04-.08.08-.12.12l-3.2,2.7-1.5-1.7,5.7-4.9,1.5,1.7-.5.4c.76,0,1.49.34,2,.9.54.56.73,1.36.5,2.1.85-.02,1.66.35,2.2,1,1.03,1.19.9,3-.29,4.03-.07.06-.14.11-.21.17l-.1.3Z"/><circle class="cls-2" cx="308.89" cy="61.42" r="45"/><path class="cls-25" d="m278.89,63.72v-.6c.31-.48.83-.78,1.4-.8,1.39-.15,2.46-1.3,2.5-2.7v-.5c.05-.45.46-.77.91-.72.03,0,.06,0,.09.02.46-.01.86.34.9.8-.02.27.02.54.1.8.21,1.11,1.09,1.99,2.2,2.2.7.2.7.1.7-.6v-13.5c-.06-.38.2-.74.58-.8.07-.01.15-.01.22,0h30.63c0,.3-.3.4-.5.6l-7.2,7.2c-.2.17-.36.38-.5.6-.19.4-.11.88.2,1.2.32.33.83.37,1.2.1.21-.11.39-.29.5-.5l8.3-8.3c.29-.27.5-.62.6-1h3.4c0,.3-.3.4-.5.6l-13.3,13.3-.5.5c-.25.29-.25.71,0,1,.16.35.52.55.9.5.33-.05.64-.19.9-.4l14.6-14.6c.29-.21.48-.54.5-.9h1.1c1,0,.9-.1.9.9v28.3q0,.8.8.6c1.27-.35,2.16-1.49,2.2-2.8-.06-.49.29-.94.79-1,.07,0,.14,0,.21,0,.6,0,.9.4,1,1,.05,1.54,1.26,2.8,2.8,2.9.52,0,1,.32,1.2.8v.6c-.22.41-.64.67-1.1.7-1.57.04-2.81,1.33-2.8,2.9-.03.34-.17.65-.4.9-.25.23-.61.27-.9.1-.38-.12-.63-.5-.6-.9-.2-1.6-.9-2.6-2.3-2.9-.7-.2-.7-.1-.7.6v12.6c0,.53-.24.8-.7.8h-21.6c0-.3.3-.4.5-.6l7.5-7.5c.5-.6.6-1.1.1-1.5-.39-.38-1.01-.38-1.4,0l-.1.1-8.7,8.7c-.25.25-.42.56-.5.9h-3.4c0-.3.3-.4.5-.6l13.3-13.3c.2-.17.36-.38.5-.6.24-.39.16-.91-.2-1.2-.31-.33-.83-.35-1.16-.04-.01.01-.03.03-.04.04-.1,0-.2.2-.3.3l-14.63,14.63c-.26.24-.44.55-.5.9h-10.1c-.44.06-.84-.25-.9-.69,0-.07,0-.14,0-.21v-27.53c0-.7,0-.8-.7-.6-1.32.36-2.25,1.54-2.3,2.9.03.52-.36.97-.88,1-.04,0-.08,0-.12,0-.55,0-1-.45-1-1v-.3c-.14-1.41-1.28-2.51-2.7-2.6-.52-.02-.99-.28-1.3-.7l-.2-.1Zm5,.6c.37-.22.68-.53.9-.9-.27-.36-.58-.69-.9-1-.35.25-.65.55-.9.9.25.35.55.65.9.9h0v.1Zm50.9,14.2c-.19-.39-.51-.71-.9-.9-.35.25-.65.55-.9.9l.9.9.9-.9Z"/><path class="cls-24" d="m325.3,47.52c.3-.11.54-.32.7-.6.8-.8,1.6-.6,1.9.5-.04.35-.22.68-.5.9l-14.6,14.6c-.21.28-.55.43-.9.4-.37,0-.71-.19-.9-.5-.2-.3-.2-.7,0-1,.11-.21.29-.39.5-.5l13.3-13.3c.2-.2.4-.3.5-.6v.1Z"/><path class="cls-20" d="m301.49,93.32c-.3.1-.5.4-.8.6-.8.7-1.6.5-1.8-.6.02-.36.21-.69.5-.9l14.6-14.6.3-.3c.36-.25.84-.25,1.2,0,.36.29.44.81.2,1.2-.14.22-.3.43-.5.6l-13.3,13.33c-.2.2-.4.3-.5.6l.1.07Z"/><path class="cls-24" d="m319.2,47.52c.2,0,.4-.2.6-.4,1-1,1.6-.8,2.1.4-.08.39-.29.75-.6,1l-8.3,8.3-.5.5c-.37.27-.88.23-1.2-.1-.38-.25-.49-.77-.24-1.15.01-.02.02-.03.04-.05.11-.24.28-.45.5-.6l7.2-7.2c.2-.2.4-.3.5-.6l-.1-.1Z"/><path class="cls-24" d="m307.49,93.42c-.3.11-.54.32-.7.6-.8.8-1.6.5-1.9-.5.02-.33.21-.63.5-.8l8.7-8.7c.25-.43.8-.58,1.23-.33.06.04.12.08.17.13l.1.1c.39.39.39,1.02,0,1.41-.03.03-.06.06-.1.09l-7.5,7.5c-.2.2-.4.3-.4.6l-.1-.1Z"/><path d="m297.2,31.22c2.03,2.82,1.4,6.75-1.41,8.78-.16.11-.32.22-.49.32-2.98,2.46-7.39,2.05-9.86-.93-2.46-2.98-2.05-7.39.93-9.86.38-.31.79-.58,1.22-.81,1.95-1.32,4.44-1.55,6.6-.6l-1.4,2.7c-1.21-.46-2.57-.27-3.6.5-1.8,1.08-2.37,3.42-1.29,5.22.06.1.12.19.19.28,1.2,1.9,3.5,2.4,5.7,1,1.3-.69,2-2.16,1.7-3.6l-3,1.9-1.5-2.2,5.6-3.7.6,1Z"/><path d="m298.13,23.52l2.8-.7,3.5,13.5-2.8.7-3.5-13.5Z"/><path d="m315.6,26.32l-.2,9.6h-2.9v-1c-.76.77-1.82,1.18-2.9,1.1-2.5,0-4.5-2.3-4.5-5.1-.09-2.62,1.96-4.81,4.58-4.9.04,0,.08,0,.12,0,1.07-.05,2.1.39,2.8,1.2v-.9h3Zm-3,4.7c.1-1.22-.8-2.29-2.01-2.39-.06,0-.13,0-.19,0-1.18-.09-2.21.8-2.3,1.99,0,.1,0,.21,0,.31-.1,1.22.8,2.29,2.01,2.39.06,0,.13,0,.19,0,1.18.09,2.21-.8,2.3-1.99,0-.1,0-.21,0-.31Z"/><path d="m324.3,36.22c-.8,2.1-2.9,2.3-4.8,1.6-1.65-.49-2.86-1.9-3.1-3.6l2.8-.5c-.07.73.39,1.4,1.1,1.6.6.2,1,.2,1.2-.2.4-1-4.2-2.1-3.1-5.2.7-2,2.7-2.3,4.6-1.6,1.45.47,2.53,1.7,2.8,3.2l-2.8.4c.03-.56-.35-1.07-.9-1.2-.5-.2-.8-.1-.9.2-.4,1,4.3,2,3.1,5.3Z"/><path d="m330.99,41.02c-1.3,1.8-3.4,1.4-5.1.2-1.46-.91-2.25-2.6-2-4.3l2.8.3c-.22.72.06,1.5.7,1.9.6.4,1,.4,1.2.1.6-.9-3.5-3.2-1.6-5.8,1.2-1.7,3.3-1.5,4.9-.3,1.27.82,1.97,2.29,1.8,3.8l-2.8-.4c0-.6,0-1.1-.5-1.4s-.8-.3-1,0c-.6.9,3.6,3.1,1.5,5.9h.1Z"/><circle class="cls-3" cx="200" cy="197.66" r="45"/><path class="cls-10" d="m211.8,178.06c.22.28.49.52.8.7,1.17,1.08,1.82,2.61,1.8,4.2v45.3c0,3.6-1.8,5.7-5.5,6-5.99.5-12.01.5-18,0-2.95-.08-5.29-2.53-5.21-5.49,0-.07,0-.14,0-.21v-45.6c-.16-2.98,2.12-5.53,5.11-5.7.03,0,.06,0,.09,0,5.26-.37,10.53-.43,15.8-.2.37-.02.74.02,1.1.1,1.4-.02,2.79.22,4.1.7l-.1.2Zm-10.9,6.6h-11.1c-.7,0-.9.2-.9.9v11.5c0,3.8,0,2.4,2.4,2.3h19.1c.6,0,.7-.2.7-.7v-13.23c0-.5-.1-.8-.7-.8h-9.5v.03Zm2.1,29.5c-2.3,0-2.1,0-2.1,2.2,0,.7.3,1,1,1h1.6c1.3,0,1.4,0,1.4-1.3,0-2.2.2-1.9-1.9-1.9Zm-5.9,0h-1.1c-.6,0-1,.2-.8.8.2.8-.7,2.1.8,2.4.76.1,1.54.1,2.3,0,.43.02.81-.28.9-.7.5-1.9,0-2.5-1.9-2.5h-.2Zm0-4.7c-2.2,0-1.9-.2-2,2v.3c0,.7.3,1,.9,1h2.3c.4-.02.73-.31.8-.7.5-1.9,0-2.5-1.9-2.5h0l-.1-.1Zm6,0h-1.3c-.5,0-.8.2-.8.7,0,2.3-.2,2.6,2.1,2.5h.5c1.3,0,1.4-.2,1.4-1.4,0-2.1.2-1.9-1.9-1.9h0v.1Zm-.1,12.7h1c.5,0,1-.1,1-.7,0-.8.5-1.8-.4-2.5h-2.8c-.38-.03-.72.23-.8.6-.5,1.9,0,2.6,2,2.6h0Zm-5.8,0h1c.6,0,1-.2,1-.8,0-.8.5-1.8-.4-2.4h-2.8c-.34,0-.65.19-.8.5-.6,1.8,0,2.7,1.9,2.7h.1Zm0-17.4h-.9c-.7,0-1,.2-1,1q0,2.3,2.3,2.3h.8c.46.01.86-.34.9-.8.4-2,0-2.5-2-2.5h-.1Zm6,0h-1.3c-.5,0-.8.2-.8.8,0,2.3-.2,2.6,2.1,2.5h.5c1.3,0,1.4-.2,1.4-1.4,0-2.1.2-1.9-1.9-1.9h0Zm-11.8,17.4h.8c.9,0,1.2-.3,1.1-1.2,0-2.4.3-2.1-2.1-2.1h-.4c-1.3,0-1.4,0-1.3,1.3,0,1.8-.4,2,1.9,1.9v.1Zm17.6-3.3h-.8c-.8-.1-1.1.2-1.1,1.1,0,2.3-.4,2.2,2.2,2.2h.4q1.3,0,1.3-1.3c0-2.2.2-1.9-1.9-1.9h0l-.1-.1Zm0-4.7h-1c-.7,0-.9.3-.9,1,0,2.4-.4,2.3,2.3,2.3h.3c1.2,0,1.3-.1,1.3-1.3,0-2.2.2-2-1.9-2h-.1Zm-17.5,0h-.88c-.8,0-1.1.2-1.1,1.1,0,2.3-.4,2.2,2.2,2.2h.4c1.2,0,1.3-.1,1.3-1.4,0-2.1.2-1.9-1.9-1.9h-.02Zm0-4.7h-.88c-.8,0-1.1.2-1,1,0,2.3-.2,2.3,2.2,2.2h.3c1.3,0,1.4,0,1.4-1.4,0-2.1.2-1.9-1.9-1.9l-.12.1Zm17.6-4.7h-1c-.7,0-.9.3-.9,1,0,2.4-.2,2.3,2.3,2.3h.3c1.2,0,1.3-.1,1.3-1.3,0-2.2.2-1.9-1.9-2h-.1Zm0,4.7c-2.2,0-1.9-.3-2,2v.2c0,.8.3,1.1,1.1,1.1h1.42c1.2,0,1.3-.1,1.3-1.4,0-2.1.2-1.9-1.9-1.9h.08Zm-17.6-4.7h-1c-.7,0-.9.3-.9,1,0,2.4-.2,2.3,2.3,2.3h.3c1.2,0,1.3-.1,1.3-1.3,0-2.2.2-1.9-1.9-2h-.1Zm10.7-22.9c.4,0,.7-.1.6-.6s-.2-.5-.6-.5-.7.1-.6.6.2.5.6.5Zm2.5-.5c0-.4-.2-.5-.6-.5s-.7,0-.7.5.2.5.6.5.7-.1.7-.5Zm-5.8,48.7c.04-.29-.16-.56-.45-.6-.05,0-.1,0-.15,0-.4,0-.5.3-.5.6s.2.6.5.6c.3-.03.52-.3.5-.6h.1Zm-2.1-49.2c-.32,0-.59.2-.7.5-.01.32.24.59.56.6.01,0,.03,0,.04,0,.3,0,.5-.1.5-.4h0c0-.4-.1-.6-.5-.6l.1-.1Zm2.3.5c0-.4-.2-.5-.6-.5-.28-.06-.54.12-.6.4-.06.28.12.54.4.6.07.01.13.01.2,0,.4,0,.5-.2.5-.5h.1Zm-.2,44.6c0-.4-.3-.5-.6-.5-.26-.02-.48.18-.5.44,0,.02,0,.04,0,.06,0,.4.2.6.5.6s.5-.2.5-.6h.1Zm4-.1c0-.2-.1-.4-.5-.4s-.6.1-.6.5.2.6.5.6.5-.2.5-.7h.1Zm-.4,4.7c.3,0,.4-.2.4-.5.02-.3-.2-.57-.5-.6-.26-.03-.49.16-.52.42,0,.06,0,.12.02.18.1.4.2.5.7.5h-.1Zm-1.6-49.2c0-.4-.3-.5-.6-.5s-.5.2-.4.6.3.5.6.5c.3-.03.52-.3.5-.6h-.1Zm-.5,44.3c.26.02.48-.18.5-.44,0-.02,0-.04,0-.06,0-.4-.2-.6-.6-.5s-.5.2-.5.6c.03.3.3.52.6.5h0v-.1Zm-3,2.9c.3,0,.5-.1.6-.5s-.1-.6-.5-.6-.5.1-.6.5.1.6.5.6h0Zm5.7-1.1c-.24,0-.44.21-.43.45,0,.05.01.1.03.15,0,.3.2.5.6.4s.5-.3.5-.6c-.03-.3-.3-.52-.6-.5l-.1.1Zm-2.8,4c.26.02.48-.18.5-.44,0-.02,0-.04,0-.06,0-.4-.2-.6-.5-.6-.26-.02-.48.18-.5.44,0,.02,0,.04,0,.06,0,.4.2.57.5.57v.03Zm-.6-3.1c0-.3-.1-.5-.5-.5-.26-.02-.48.18-.5.44,0,.02,0,.04,0,.06,0,.3.1.6.4.6.29,0,.54-.21.6-.5h0v-.1Zm.8.4c-.26-.02-.48.18-.5.44,0,.02,0,.04,0,.06.03.3.3.52.6.5h0c.3,0,.4-.3.4-.5.02-.26-.18-.48-.44-.5-.02,0-.04,0-.06,0Zm0-1.9c.02-.25-.15-.47-.4-.5-.29,0-.54.21-.6.5,0,.2.1.5.4.5h0c.3,0,.4-.3.5-.5h.1Zm1,1.3c.21-.01.39-.19.4-.4,0-.2,0-.4-.3-.5h-.1c-.3,0-.4.2-.5.4s0,.4.4.4l.1.1Z"/><path class="cls-18" d="m203.62,184.66h6.8c.6,0,.7.2.7.8v13.2c0,.5-.1.7-.7.7h-15.3c.02-.21.09-.42.2-.6,1.9-3.1,3.7-6.2,5.6-9.3,1-1.54,1.9-3.15,2.7-4.8Z"/><path class="cls-18" d="m191.3,199.26c-1.6,0-2.4-.76-2.4-2.3v-11.53c0-.7.2-.9.9-.9h10c-.7,1.45-1.5,2.86-2.4,4.2-2,3.5-4.1,6.9-6.1,10.4v.13Z"/><path class="cls-12" d="m203.62,184.66c-.8,1.65-1.7,3.26-2.7,4.8-1.8,3.1-3.7,6.2-5.6,9.3,0,.2-.2.4-.2.6h-1.6c.02-.21.09-.42.2-.6,1.6-2.6,3.2-5.3,4.7-7.9,1.2-2.1,2.5-4,3.6-6.2h1.6Z"/><path class="cls-7" d="m202,184.66c-1.1,2.1-2.4,4.1-3.6,6.2-1.6,2.7-3.2,5.3-4.7,7.9,0,.2-.2.4-.2.6h-1.1c.46-1.17,1.06-2.28,1.8-3.3,2.2-3.8,4.5-7.6,6.7-11.3h1.1v-.1Z"/><path class="cls-11" d="m200.9,184.66c-2.2,3.8-4.5,7.5-6.7,11.3-.73,1.02-1.34,2.13-1.8,3.3h-1.1c2.1-3.4,4.1-6.9,6.1-10.4.9-1.34,1.7-2.75,2.4-4.2h1.1Z"/><path class="cls-15" d="m203,214.16c2.2,0,1.9-.2,1.9,1.9,0,1.2,0,1.3-1.4,1.3h-1.6c-.49.06-.94-.29-1-.79,0-.07,0-.14,0-.21,0-2.3-.2-2.3,2.1-2.2Z"/><path class="cls-15" d="m197,214.16h0c1.9,0,2.4.6,1.9,2.5-.05.44-.45.75-.89.7,0,0,0,0-.01,0-.77.05-1.53.05-2.3,0-1.5-.3-.6-1.6-.8-2.4-.1-.6.2-.9.8-.8h1.3Z"/><path class="cls-15" d="m197,209.43h0c1.9,0,2.4.6,1.9,2.5-.07.39-.4.68-.8.7h-2.3c-.6,0-1-.3-.9-1v-.3c0-2.2-.3-2,2-2l.1.1Z"/><path class="cls-15" d="m203,209.43c2.1,0,1.9-.2,1.9,1.9,0,1.2-.2,1.4-1.4,1.4h-.5c-2.4,0-2.1-.2-2.1-2.5,0-.5.3-.7.8-.7h1.3v-.1Z"/><path class="cls-15" d="m202.9,222.16c-1.9,0-2.5-.7-2-2.6.08-.37.42-.63.8-.6h2.8c.9.7.4,1.7.4,2.5,0,.6-.5.7-1,.7h-1Z"/><path class="cls-15" d="m197,222.16c-1.8,0-2.5-1-1.9-2.7.06-.35.4-.58.75-.51.02,0,.04,0,.05.01h2.8c.9.7.4,1.6.4,2.4,0,.5-.4.8-1,.8h-1.1Z"/><path class="cls-15" d="m197,204.66h0c2,0,2.4.5,2,2.5,0,.5-.4.7-.9.8h-.8q-2.3,0-2.3-2.3c0-2.3.3-1.1,1-1h1Z"/><path class="cls-15" d="m203,204.66c2.1,0,1.9-.2,1.9,1.9,0,1.2-.2,1.4-1.4,1.4h-.5c-2.4,0-2.1-.2-2.1-2.5,0-.5.3-.7.8-.8h1.3Z"/><path class="cls-15" d="m191.2,222.16c-2.3,0-1.9-.1-1.9-1.9q0-1.3,1.3-1.3h.4c2.4,0,2.1-.3,2.1,2.1,0,.9-.3,1.2-1.1,1.2h-.8v-.1Z"/><path class="cls-15" d="m208.8,218.86c2.2,0,1.9-.2,1.9,1.9q0,1.3-1.3,1.3h-.4c-2.6,0-2.1,0-2.2-2.2,0-.8.3-1.2,1.1-1.1h.8l.1.1Z"/><path class="cls-15" d="m208.8,214.16c2.1,0,1.9-.2,1.9,2,0,1.2-.1,1.3-1.3,1.3h-.3c-2.7,0-2.2.1-2.3-2.3,0-.7.2-1,.9-1h1.1Z"/><path class="cls-15" d="m191.2,214.16c2.1,0,1.8-.2,1.9,1.9,0,1.2,0,1.4-1.3,1.4h-.4c-2.6,0-2.1,0-2.2-2.2,0-.8.3-1.2,1.1-1.1h.9Z"/><path class="cls-15" d="m191.2,209.43c2.1,0,1.9-.2,1.9,1.9,0,1.3,0,1.4-1.4,1.4h-.3c-2.4,0-2.1,0-2.2-2.2,0-.8.2-1.1,1-1h.9l.1-.1Z"/><path class="cls-15" d="m208.8,204.66c2.1,0,1.9-.2,1.9,2,0,1.2-.1,1.3-1.3,1.3h-.3c-2.5,0-2.2.1-2.3-2.3,0-.7.2-1,.9-1h1.1Z"/><path class="cls-15" d="m208.8,209.43c2.1,0,1.9-.2,1.9,1.9,0,1.3-.1,1.4-1.3,1.4h-1.4c-.8,0-1.1-.3-1.1-1.1v-.2c0-2.2-.3-2,2-2h-.1Z"/><path class="cls-15" d="m191.2,204.66c2.1,0,1.9-.2,1.9,1.9,0,1.2-.1,1.3-1.3,1.3h-.3c-2.5,0-2.3.1-2.3-2.3,0-.7.2-1,.9-1h1l.1.1Z"/><path class="cls-19" d="m201.9,181.86c-.3,0-.6-.1-.6-.5-.01-.32.24-.59.56-.6.01,0,.03,0,.04,0,.3,0,.6.1.6.5.01.32-.24.59-.56.6-.01,0-.03,0-.04,0Z"/><path class="cls-19" d="m204.3,181.36c0,.4-.3.5-.7.5s-.6-.2-.6-.5.3-.5.7-.5.6.2.6.5Z"/><path class="cls-21" d="m198.5,229.96c.02.3-.2.57-.5.6-.26.03-.49-.16-.52-.42,0-.06,0-.12.02-.18,0-.3.1-.6.5-.6.29-.04.56.16.6.45,0,.05,0,.1,0,.15h-.1Z"/><path class="cls-19" d="m196.4,180.76c.4,0,.5.2.5.6.02.26-.18.48-.44.5-.02,0-.04,0-.06,0h0c-.4,0-.7-.2-.6-.6s.3-.5.7-.5h-.1Z"/><path class="cls-19" d="m198.7,181.26c0,.4-.2.6-.5.5-.28.06-.54-.12-.6-.4-.06-.28.12-.54.4-.6.07-.01.13-.01.2,0,.3,0,.6.1.6.5h-.1Z"/><path class="cls-19" d="m198.5,225.86c0,.4-.2.6-.5.6s-.5-.2-.5-.6.1-.5.5-.5.6.1.6.5h-.1Z"/><path class="cls-19" d="m202.5,225.76c0,.5-.2.7-.5.7s-.5-.2-.5-.6.3-.5.6-.5c.25-.02.47.15.5.4h-.1Z"/><path class="cls-19" d="m202.1,230.43c-.4,0-.7-.1-.7-.5s.2-.6.5-.6.5.2.5.6-.1.5-.4.5h.1Z"/><path class="cls-19" d="m200.5,181.26c.03.27-.14.53-.4.6-.3,0-.6-.1-.6-.5-.03-.27.14-.53.4-.6.4,0,.6.1.6.5Z"/><path class="cls-19" d="m200,225.56c-.3,0-.5-.1-.6-.5s.1-.6.5-.6.6.2.6.5c.02.26-.18.48-.44.5-.02,0-.04,0-.06,0v.1Z"/><path class="cls-19" d="m197.1,228.43c-.4,0-.5-.2-.5-.6s.2-.5.6-.5.5.2.5.6-.2.5-.6.5Z"/><path class="cls-19" d="m202.8,227.36c.4,0,.6.1.6.4s-.1.6-.5.6c-.27.03-.53-.14-.6-.4,0-.4.1-.6.4-.6h.1Z"/><path class="cls-19" d="m200,223.36c-.21-.01-.39-.19-.4-.4,0-.2.1-.3.4-.3.2-.02.38.13.4.34,0,.02,0,.04,0,.06,0,.2-.1.3-.4.3Z"/><path class="cls-21" d="m199.4,228.26c-.06.29-.31.49-.6.5-.3,0-.5-.2-.4-.6s.2-.5.5-.5.4.3.5.5v.1Z"/><path class="cls-21" d="m200.2,228.66c.26-.02.48.18.5.44,0,.02,0,.04,0,.06,0,.3,0,.5-.4.5s-.6-.1-.6-.4h0c0-.3.2-.4.5-.5v-.1Z"/><path class="cls-21" d="m200.1,226.86c-.02.27-.23.48-.5.5-.25.02-.47-.15-.5-.4h0c.03-.3.3-.52.6-.5.3,0,.4.2.4.5v-.1Z"/><path class="cls-19" d="m201.2,228.06c-.4,0-.5-.2-.4-.4s.2-.5.5-.4c.21.01.39.19.4.4v.1c-.01.21-.19.39-.4.4l-.1-.1Z"/><path d="m171.9,210.36c2.09-1.63,5.1-1.27,6.74.82.02.03.04.05.06.08l2.3,3.2-7.9,5.8-2.3-3.2c-1.56-2.09-1.12-5.05.97-6.6.04-.03.09-.06.13-.1Zm1.3,1.7c-1.19.69-1.59,2.21-.9,3.4.06.1.13.2.2.3l1,1.4,4.4-3.3-1-1.4c-.82-1.18-2.45-1.46-3.62-.64-.06.04-.12.09-.18.14l.1.1Z"/><path d="m167.8,210.36c-.66.28-1.42-.04-1.7-.7-.28-.66.04-1.42.7-1.7.66-.28,1.42.04,1.7.7h0c.28.65-.01,1.4-.66,1.68-.01,0-.02.01-.04.02Zm1.6-.9l-.8-1.9,6.4-2.7.8,1.9-6.4,2.7Z"/><path d="m171.4,198.96c1.6-.4,2.6.8,2.9,2.3.36,1.18.01,2.47-.9,3.3l-1.4-1.5c.49-.23.71-.8.5-1.3-.1-.5-.3-.7-.6-.6-.8.2.4,3.4-1.9,4-1.5.3-2.5-.7-2.9-2.2-.31-1.07,0-2.23.8-3l1.3,1.5c-.33.26-.49.69-.4,1.1-.02.26.18.48.44.5.02,0,.04,0,.06,0,.8-.2-.5-3.4,2-4l.1-.1Z"/><path d="m170.1,190.36c1.93-.06,3.54,1.47,3.6,3.4,0,.03,0,.07,0,.1,0,.79-.33,1.55-.9,2.1h3.5v2.2l-9.8-.3v-2.1h.7c-.54-.56-.83-1.32-.8-2.1.13-1.9,1.77-3.34,3.67-3.21.04,0,.08,0,.13.01l-.1-.1Zm0,2.1c-.93-.06-1.74.64-1.8,1.57,0,0,0,.02,0,.03-.08.85.54,1.61,1.39,1.69.07,0,.14,0,.21,0,.93.06,1.74-.64,1.8-1.57,0,0,0-.02,0-.03.13-.82-.43-1.59-1.25-1.72-.12-.02-.24-.02-.35-.01v.03Z"/><path d="m164.1,187.26l.5-2,9.9,2.5-.5,2-9.9-2.5Z"/><path d="m171.5,177.16l6.3,3.1-.9,1.9-.6-.3c.28.72.21,1.54-.2,2.2-1.1,1.73-3.4,2.23-5.12,1.13-1.47-.94-2.09-2.79-1.48-4.43.33-.72.94-1.27,1.7-1.5l-.6-.3.9-1.9v.1Zm2.2,3.4c-.81-.45-1.82-.16-2.27.65,0,.02-.02.04-.03.05-.48.84-.19,1.91.65,2.39.84.48,1.91.19,2.39-.65.48-.84.19-1.91-.65-2.39-.03-.02-.06-.03-.09-.05Z"/><path d="m177.7,169.96l3.4,6.4c1.1,2.1.9,3.6-.5,5l-1.4-1.3c.63-.52.76-1.43.3-2.1l-6.8-2.5,1.6-1.7,4.2,1.7-2.3-3.9,1.5-1.7v.1Z"/><path d="m192,162.36l.6,7.3-1.8.8-2.5-3,.4,3.9-1.8.8-4.8-5.6,2.1-.9,2.4,3.1-.4-3.9,1.8-.8,2.4,3-.5-3.9,2.1-.9v.1Z"/><path d="m193.62,160.43c-.08-.69.41-1.32,1.1-1.4.69-.08,1.32.41,1.4,1.1.08.69-.41,1.32-1.1,1.4,0,0,0,0,0,0-.68.09-1.3-.38-1.4-1.06,0-.01,0-.03,0-.04Zm.5,1.8l2.1-.3,1,6.9-2.1.3-1-6.9Z"/><path d="m201,163.86v2.5c0,.6.5.7,1.4.6v1.9c-2.8.2-3.6-.6-3.5-2.5v-2.5h-1.1v-2h1.1v-1.3l2.1-.6v2h1.4v2h-1.5l.1-.1Z"/><path d="m210.62,166.16l-1,4.2-2-.5.9-3.9c.22-.57-.07-1.21-.64-1.43-.08-.03-.17-.05-.26-.07-.64-.21-1.33.14-1.54.78-.03.1-.05.21-.06.32l-.9,3.7-2-.5,2.3-9.5,2,.5-.8,3.4c.6-.45,1.38-.59,2.1-.4,1.41.32,2.3,1.72,1.97,3.13-.02.09-.05.18-.07.26Z"/><path d="m216.8,174.76v-3.8l-1.8,2.5-1.7-1.2,5.8-7.9,1.7,1.2-3.5,4.7,3.5-1.2,2,1.5-4.1,1.3v4.4l-1.9-1.4v-.1Z"/><path d="m222,177.76c.32.4.79.65,1.3.7l.3,1.9c-1.19.05-2.33-.51-3-1.5-1.36-1.44-1.3-3.71.14-5.08.08-.08.17-.15.26-.22,1.46-1.29,3.68-1.15,4.97.31.08.09.16.19.23.29,1.25,1.52,1.03,3.76-.49,5.01-.04.03-.07.06-.11.09-.2.2-.5.3-.7.5l-3.1-3.9c-.36.62-.24,1.42.3,1.9h-.1Zm2.8-.6c.4-.57.4-1.33,0-1.9-.4-.59-1.16-.8-1.8-.5l1.9,2.3-.1.1Z"/><path d="m232.1,184.96l-7.2.6c-2.4.2-3.7-.6-4.4-2.4l1.8-.8c.22.78,1,1.27,1.8,1.1l4.9-5.3,1,2.1-3.3,3.2,4.4-.6.9,2,.1.1Z"/><path d="m230.3,194.86c-1.87.39-3.69-.81-4.08-2.68,0-.04-.02-.08-.02-.12-.17-.77.01-1.58.5-2.2l-3.4.5-.3-2.1,9.7-1.4.3,2.1h-.7c.63.49,1.03,1.21,1.1,2,.2,1.9-1.18,3.59-3.07,3.79-.04,0-.08,0-.13.01l.1.1Zm-.3-2.1c.86-.07,1.5-.82,1.43-1.68,0-.08-.02-.15-.03-.22-.04-.84-.75-1.49-1.59-1.45-.1,0-.21.02-.31.05-.86.07-1.5.82-1.43,1.68,0,.08.02.15.03.22.04.84.75,1.49,1.59,1.45.1,0,.21-.02.31-.05h0Z"/><path d="m232.62,204.06l-6.9-1.1.3-2.1h.6c-.55-.55-.74-1.36-.5-2.1.55-1.98,2.6-3.14,4.58-2.6,1.69.47,2.82,2.05,2.72,3.8-.06.79-.51,1.51-1.2,1.9h.6c0,.1-.3,2.2-.3,2.2h.1Zm-3.1-2.6c.81.21,1.64-.28,1.85-1.09.03-.1.04-.21.05-.31.16-.88-.42-1.72-1.3-1.89-.03,0-.07-.01-.1-.01-.81-.21-1.64.28-1.85,1.09-.03.1-.04.21-.05.31-.15.88.45,1.72,1.33,1.86.02,0,.03,0,.05,0l.02.03Z"/><path d="m231,214.66l-8.8-4.3.9-1.9.6.3c-.33-.72-.25-1.55.2-2.2.96-1.69,3.09-2.31,4.8-1.4,1.76.74,2.58,2.77,1.83,4.52-.01.03-.02.05-.03.08-.33.72-.94,1.27-1.7,1.5l3.1,1.5-.9,1.9Zm-4.7-4.7c.81.45,1.82.16,2.27-.65,0-.02.02-.04.03-.05.41-.76.12-1.72-.64-2.13-.05-.03-.1-.05-.16-.07-.81-.45-1.82-.16-2.27.65,0,.02-.02.04-.03.05-.41.76-.12,1.72.64,2.13.05.03.1.05.16.07h0Z"/><line class="cls-6" x1="199.7" y1="251.63" x2="200.2" y2="284.41"/><line class="cls-5" x1="199.7" y1="251.63" x2="200.04" y2="273.65"/><polygon class="cls-23" points="192.52 271.57 200.2 284.41 207.48 271.35 192.52 271.57"/><circle class="cls-4" cx="200" cy="338.58" r="45"/><path d="m166.7,323.38c1.9.7,2.8,2.8,2,4.7l-.6,1.5,3.1,1.2-.9,2.2-9.8-3.8,1.4-3.7c.7-1.9,2.8-2.9,4.7-2.1h.1Zm-.9,2.2c-.7-.3-1.5,0-1.7.7l-.6,1.5,2.5,1,.6-1.5c.3-.7,0-1.4-.8-1.7Z"/><path d="m174,316.88l3.7,2.7-1.3,1.8-3.4-2.5c-.7-.6-1.4-.3-1.9.2-.5.7-.4,1.4.4,2l3.3,2.4-1.3,1.8-8.5-6.2,1.3-1.8,3,2.2c-.2-.7,0-1.5.5-2.3.9-1.2,2.5-1.6,4.2-.4v.1Z"/><path d="m175.7,316.28c-1.4-1.8-1.1-4.2.7-5.6,1.7-1.4,4.2-1.1,5.6.6,1.4,1.8,1.1,4.2-.7,5.6-1.7,1.4-4.2,1.1-5.6-.6Zm4.5-3.5c-.7-.8-1.7-.9-2.5-.3s-.9,1.6-.3,2.5c.7.8,1.7.9,2.5.3s.9-1.6.3-2.5Z"/><path d="m189.7,306.98l1.8,4.2-2.1.9-1.7-3.9c-.4-.9-1.1-1-1.7-.7-.8.3-1.1,1-.7,2l1.6,3.8-2.1.9-2.9-6.9,2.1-.9.3.6c.2-.7.7-1.3,1.6-1.7,1.4-.6,3-.1,3.8,1.8v-.1Z"/><path d="m195.9,308.68c.6,0,1.1-.4,1.3-.8l1.9.8c-.6,1.1-1.6,1.8-3,2-2.5.4-4.4-1.1-4.7-3.4-.3-2.2,1.1-4.1,3.4-4.5,2.2-.3,4,1.2,4.3,3.4v.9l-5.3.7c.4.7,1.1.9,1.9.8l.2.1Zm1-2.9c-.4-.8-1.1-1-1.7-1-.8.1-1.4.6-1.5,1.4l3.2-.4Z"/><path d="m201.1,304.58l5.7.6-.2,2.1-5.7-.6.2-2.1Z"/><path d="m216.1,310.18c-.8,2.1-2.9,3.1-4.8,2.4-.9-.4-1.5-.9-1.8-1.6l-.3.7-2.1-.8,3.7-9.8,2.1.8-1.3,3.5c.7-.4,1.5-.4,2.4,0,1.8.7,2.7,2.9,1.9,5l.2-.2Zm-2.1-.8c.4-1.1,0-2-1-2.3-1-.4-1.9,0-2.3,1.1-.4,1.1,0,2,1,2.3,1,.4,1.9,0,2.3-1.1Z"/><path d="m217.2,310.88c1.3-1.8,3.8-2.1,5.6-.8,1.8,1.3,2.2,3.8.8,5.5-1.3,1.8-3.8,2.1-5.6.8-1.8-1.3-2.2-3.8-.8-5.5Zm4.6,3.4c.6-.9.5-1.9-.3-2.5s-1.8-.5-2.4.4-.5,1.9.3,2.5,1.8.5,2.4-.4Z"/><path d="m234.7,318.78l-8.3,6.4-1.4-1.8.6-.4c-.8,0-1.5-.4-2.1-1.2-1.2-1.6-.8-3.9,1-5.3,1.8-1.4,4.1-1.1,5.3.4.6.8.8,1.6.6,2.3l2.9-2.3,1.4,1.8v.1Zm-6.7,2.3c.9-.7,1-1.7.4-2.5s-1.6-1-2.5-.3-1,1.7-.4,2.5,1.6,1,2.5.3Z"/><path d="m236.5,329.78l-7.7.4c-2.5.1-3.9-.7-4.6-2.7l1.9-.8c.4,1,.9,1.3,1.9,1.3l5.5-5.5.9,2.3-3.6,3.3,4.8-.5.9,2.2h0Z"/><path d="m240.5,335.18l-10.3,1.9-.4-2.4,7.8-1.4-.8-1.7,1.9-.9,1.5,2.5.4,2.1-.1-.1Z"/><path class="cls-22" d="m189.4,371.88c0-.2-.2-.1-.4-.2-2-.5-3.4-2.3-3.4-4.4v-38.8c0-2.7,1.1-4.2,3.6-5,0,0,.1,0,.1-.1h3.4v.1c.5,1.3,1.1,2.6,1.6,3.9.1.3.4.4.7.4h9.7c.4,0,.7-.2.8-.5.2-.5.4-1,.6-1.5.3-.8.7-1.5.9-2.4h3.3c.2.2.5.2.8.3,1.8.6,3,2.3,3.1,4.2v38.8c0,2.8-1.1,4.3-3.8,5.2h-21.1.1Zm23.7-7.3h0v-33.8c0-.4-.3-.2-.5-.2h-25.5c-.4,0-.5.1-.5.5v33.4h26.3l.2.1Zm-13.1,3.1h-4.4c-.5,0-.7.2-.6.7,0,.4.4.5.7.5h8.6c.5,0,.7-.2.7-.6,0-.5-.3-.5-.7-.5h-4.3v-.1Z"/><path class="cls-13" d="m207.2,323.38c-.2.8-.6,1.6-.9,2.4-.2.5-.4,1-.6,1.5-.1.3-.4.6-.8.5h-9.7c-.3,0-.6-.1-.7-.4-.5-1.3-1.1-2.6-1.6-3.9v-.1h14.4-.1Z"/><path class="cls-1" d="m186.9,364.58c-.2-.1,0-.3,0-.4v-33c0-.4,0-.5.5-.5h25.5c.2,0,.4-.2.5.2-.2,0-.3.2-.5.4-.4.5-.7,1-1.1,1.4-1.4,1.8-2.9,3.7-4.3,5.5-1.1,1.5-2.3,2.9-3.4,4.4-1.4,1.8-2.9,3.7-4.3,5.5-1.1,1.5-2.3,2.9-3.4,4.4-1.5,2-3.1,3.9-4.6,5.9-1.1,1.4-2.2,2.8-3.2,4.2-.5.7-1.1,1.3-1.5,2h-.2Z"/><path class="cls-16" d="m186.9,364.58c.4-.7,1-1.3,1.5-2,1.1-1.4,2.2-2.8,3.2-4.2,1.5-2,3.1-3.9,4.6-5.9,1.1-1.5,2.3-2.9,3.4-4.4,1.4-1.8,2.9-3.7,4.3-5.5,1.1-1.5,2.3-2.9,3.4-4.4,1.4-1.8,2.9-3.7,4.3-5.5.4-.5.7-.9,1.1-1.4.1-.2.2-.3.5-.4v33.7h-26.3Z"/><path class="cls-8" d="m200,367.68h4.3c.4,0,.7,0,.7.5,0,.4-.2.6-.7.6h-8.6c-.3,0-.6,0-.7-.5,0-.4.1-.7.6-.7h4.4v.1Z"/><path d="m198.3,334.28h5.7v25.9h-6.6v-18.9l-4.5,1.1-1.6-5.6s7-2.5,7-2.5Z"/></svg>