<?xml version="1.0" encoding="UTF-8"?><svg id="Layer_1" xmlns="http://www.w3.org/2000/svg" viewBox="0 0 400 400"><defs><style>.cls-1{stroke:#a5262d;}.cls-1,.cls-2{stroke-width:4px;}.cls-1,.cls-2,.cls-3{fill:none;stroke-miterlimit:10;}.cls-4{fill:#fff;}.cls-5{fill:#57575e;}.cls-6{fill:#90b9e0;}.cls-7{fill:#75e1f7;}.cls-2{stroke:#0018c6;}.cls-8{fill:#d9d9ea;}.cls-9{fill:#fcd303;}.cls-10{fill:#fbe501;}.cls-11{fill:#3b66c8;}.cls-12{fill:#8ac5cd;}.cls-13{fill:#48459c;}.cls-14{fill:#f9f3b1;}.cls-15{fill:#4483e7;}.cls-16{fill:#434348;}.cls-17{fill:#3392f5;}.cls-18{fill:#bfd6e5;}.cls-19{fill:#364a5f;}.cls-20{fill:#06687f;}.cls-21{fill:#90bae0;}.cls-22{fill:#f7cf06;}.cls-23{fill:#d7eafb;}.cls-24{fill:#afd2ef;}.cls-25{fill:#fcd6ac;}.cls-3{stroke:#231f20;stroke-width:2px;}.cls-26{fill:gray;}.cls-27{fill:#275d77;}.cls-28{fill:#424248;}.cls-29{fill:#3b566a;}.cls-30{fill:#b2d3d9;}.cls-31{fill:#ddebf0;}.cls-32{fill:#3f79d4;}.cls-33{fill:#4582c2;}.cls-34{fill:#fc98c7;}.cls-35{fill:#607890;}.cls-36{fill:#cbb293;}.cls-37{fill:#23e6bf;}.cls-38{fill:#e0edf9;}.cls-39{fill:#374b60;}.cls-40{fill:#275d76;}.cls-41{fill:#f0f6f6;}.cls-42{fill:#fcd6ad;}.cls-43{fill:#b3d4da;}.cls-44{fill:#3392f6;}.cls-45{fill:#7dcbe5;}.cls-46{fill:#00d7df;}.cls-47{fill:#637889;}.cls-48{fill:#eecf15;}.cls-49{fill:#8caabd;}.cls-50{fill:#fde6cd;}.cls-51{fill:#88c4cc;}.cls-52{fill:#1d475a;}.cls-53{fill:#e5eff1;}.cls-54{fill:#2f4859;}.cls-55{fill:#33b1cb;}.cls-56{fill:#cbb292;}.cls-57{fill:#bdd5e5;}.cls-58{fill:#304959;}.cls-59{fill:#60acfd;}.cls-60{fill:#ecf6fe;}.cls-61{fill:#3b66c9;}.cls-62{fill:#231f20;}.cls-63{fill:#fce00f;}.cls-64{fill:#90ebfe;}.cls-65{fill:#33b1cc;}.cls-66{fill:#9fddea;}.cls-67{fill:#86cde8;}.cls-68{fill:#e2c8aa;}</style></defs><circle class="cls-1" cx="195.17" cy="198.5" r="45"/><path class="cls-67" d="m165.17,200.8v-.6c.3-.6.9-.7,1.4-.8,1.4-.2,2.5-1.3,2.5-2.7v-.5c.1-.5.5-.8,1-.7.5,0,.9.4.9.8,0,.3,0,.5.1.8.2,1.1,1.1,2,2.2,2.2.7.2.7.1.7-.6v-13.5c0-.53.27-.8.8-.8h30.6c0,.3-.3.4-.5.6-2.4,2.4-4.8,4.8-7.2,7.2-.2.2-.4.4-.5.6-.2.4-.1.9.2,1.2s.8.4,1.2.1c.2-.1.4-.3.5-.5,2.8-2.8,5.6-5.6,8.3-8.3.3-.3.5-.6.6-1h3.4c0,.3-.3.4-.5.6l-13.3,13.3-.5.5c-.2.3-.3.7,0,1,.2.3.5.6.9.5.3,0,.6-.2.9-.4l14.6-14.6c.3-.2.5-.6.5-.9h1.1c1,0,.9-.1.9.9v28.3q0,.8.8.6c1.3-.4,2.2-1.5,2.2-2.8,0-.7.4-1,1-1s.9.4,1,1c.2,1.7,1.1,2.6,2.8,2.9.5,0,1,.3,1.2.8v.6c-.2.4-.7.7-1.1.7-1.7.2-2.6,1.1-2.8,2.9,0,.3-.2.7-.4.9-.3.2-.6.3-.9.1-.4-.1-.6-.5-.6-.9-.2-1.6-.9-2.6-2.3-2.9-.7-.2-.7-.1-.7.6v12.6c0,.53-.23.8-.7.8h-21.6c0-.3.3-.4.5-.6l7.5-7.5c.5-.6.6-1.1.1-1.5-.4-.4-1-.4-1.4,0l-.1.1c-2.9,2.9-5.8,5.8-8.7,8.7-.2.2-.4.5-.5.9h-3.4c0-.3.3-.4.5-.6l13.3-13.3c.2-.2.4-.4.5-.6.2-.4.2-.9-.2-1.2-.3-.3-.9-.4-1.2,0-.1,0-.2.2-.3.3l-14.6,14.6c-.3.2-.4.6-.5.9h-10.1c-.6,0-.9-.3-.9-.9v-27.5c0-.7,0-.8-.7-.6-1.3.4-2.1,1.3-2.3,2.9,0,.6-.4,1-1,1s-1-.5-1-1v-.3c-.1-1.4-1.3-2.5-2.7-2.6-.5,0-1-.3-1.3-.7l-.2-.1Zm5,.6c.3-.2.7-.5.9-.9-.3-.4-.6-.7-.9-1-.3.2-.6.5-.9.9.2.3.5.6.9.9h0v.1Zm50.9,14.2c-.2-.4-.5-.7-.9-.9-.4.3-.7.6-.9.9l.9.9.9-.9h0Z"/><path class="cls-65" d="m211.57,184.6c.3-.1.5-.3.7-.6.8-.8,1.6-.6,1.9.5,0,.4-.3.7-.5.9l-14.6,14.6c-.2.3-.5.4-.9.4s-.7-.2-.9-.5-.2-.7,0-1c.1-.2.3-.4.5-.5l13.3-13.3c.2-.2.4-.3.5-.6v.1Z"/><path class="cls-55" d="m187.77,230.4c-.3.1-.5.4-.8.6-.8.7-1.6.5-1.8-.6,0-.3.2-.7.5-.9l14.6-14.6s.2-.2.3-.3c.4-.3.9-.2,1.2,0,.4.3.4.8.2,1.2-.1.2-.3.4-.5.6l-13.3,13.3c-.2.2-.4.3-.5.6l.1.1Z"/><path class="cls-65" d="m205.47,184.6c.2,0,.4-.2.6-.4,1-1,1.6-.8,2.1.4-.1.4-.3.8-.6,1l-8.3,8.3-.5.5c-.4.3-.9.2-1.2-.1-.4-.3-.5-.8-.2-1.2.1-.2.3-.5.5-.6,2.4-2.4,4.8-4.8,7.2-7.2.2-.2.4-.3.5-.6l-.1-.1Z"/><path class="cls-65" d="m193.77,230.5c-.3.1-.5.3-.7.6-.8.8-1.6.5-1.9-.5,0-.3.2-.6.5-.8,2.9-2.9,5.8-5.8,8.7-8.7.3-.5.9-.6,1.4-.2l.1.1c.4.4.4,1-.1,1.5l-7.5,7.5c-.2.2-.4.3-.4.6l-.1-.1Z"/><path d="m183.47,168.3c2.2,3.4,1.2,7.1-1.9,9.1-3.5,2.3-7.7,1.3-9.8-1.9-2.1-3.3-1.2-7.5,2.1-9.7,2.1-1.4,4.6-1.5,6.6-.6l-1.4,2.7c-.9-.4-2.3-.4-3.6.5-1.9,1.2-2.4,3.5-1.1,5.5,1.2,1.9,3.5,2.4,5.7,1,1.5-1,2-2.3,1.7-3.6l-3,1.9-1.5-2.2,5.6-3.7.6,1Z"/><path d="m184.37,160.6l2.8-.7,3.5,13.5-2.8.7-3.5-13.5Z"/><path d="m201.87,163.4l-.2,9.6h-2.9v-1c-.6.7-1.6,1.1-2.9,1.1-2.5,0-4.5-2.3-4.5-5.1s2.2-5,4.7-4.9c1.3,0,2.2.5,2.8,1.2v-.9h3Zm-3,4.7c0-1.4-.9-2.4-2.2-2.4s-2.3.8-2.3,2.3c0,1.4.9,2.4,2.2,2.4s2.3-.8,2.3-2.3Z"/><path d="m210.57,173.3c-.8,2.1-2.9,2.3-4.8,1.6-1.8-.7-2.9-1.9-3.1-3.6l2.8-.5c0,.8.3,1.3,1.1,1.6.6.2,1,.2,1.2-.2.4-1-4.2-2.1-3.1-5.2.7-2,2.7-2.3,4.6-1.6,1.5.5,2.5,1.7,2.8,3.2l-2.8.4c0-.6-.3-1-.9-1.2-.5-.2-.8-.1-.9.2-.4,1,4.3,2,3.1,5.3Z"/><path d="m217.27,178.1c-1.3,1.8-3.4,1.4-5.1.2-1.5-1.1-2.3-2.6-2-4.3l2.8.3c-.2.7,0,1.4.7,1.9.6.4,1,.4,1.2.1.6-.9-3.5-3.2-1.6-5.8,1.2-1.7,3.3-1.5,4.9-.3,1.3.9,2,2.3,1.8,3.8l-2.8-.4c0-.6,0-1.1-.5-1.4-.4-.3-.8-.3-1,0-.6.9,3.6,3.1,1.5,5.9h.1Z"/><circle class="cls-2" cx="77.76" cy="290.3" r="45"/><path class="cls-29" d="m89.56,270.7c.22.28.49.52.8.7,1.17,1.08,1.82,2.61,1.8,4.2v45.3c0,3.6-1.8,5.7-5.5,6-5.99.5-12.01.5-18,0-2.95-.08-5.29-2.53-5.21-5.49,0-.07,0-.14,0-.21v-45.6c-.16-2.98,2.12-5.53,5.11-5.7.03,0,.06,0,.09,0,5.26-.37,10.53-.43,15.8-.2.37-.02.74.02,1.1.1,1.4-.02,2.79.22,4.1.7l-.1.2Zm-10.9,6.6h-11.1c-.7,0-.9.2-.9.9v11.5c0,3.8,0,2.4,2.4,2.3h19.1c.6,0,.7-.2.7-.7v-13.23c0-.5-.1-.8-.7-.8h-9.5v.03Zm2.1,29.5c-2.3,0-2.1,0-2.1,2.2,0,.7.3,1,1,1h1.6c1.3,0,1.4,0,1.4-1.3,0-2.2.2-1.9-1.9-1.9Zm-5.9,0h-1.1c-.6,0-1,.2-.8.8.2.8-.7,2.1.8,2.4.76.1,1.54.1,2.3,0,.43.02.81-.28.9-.7.5-1.9,0-2.5-1.9-2.5h-.2Zm0-4.7c-2.2,0-1.9-.2-2,2v.3c0,.7.3,1,.9,1h2.3c.4-.02.73-.31.8-.7.5-1.9,0-2.5-1.9-2.5h0l-.1-.1Zm6,0h-1.3c-.5,0-.8.2-.8.7,0,2.3-.2,2.6,2.1,2.5h.5c1.3,0,1.4-.2,1.4-1.4,0-2.1.2-1.9-1.9-1.9h0v.1Zm-.1,12.7h1c.5,0,1-.1,1-.7,0-.8.5-1.8-.4-2.5h-2.8c-.38-.03-.72.23-.8.6-.5,1.9,0,2.6,2,2.6h0Zm-5.8,0h1c.6,0,1-.2,1-.8,0-.8.5-1.8-.4-2.4h-2.8c-.34,0-.65.19-.8.5-.6,1.8,0,2.7,1.9,2.7h.1Zm0-17.4h-.9c-.7,0-1,.2-1,1q0,2.3,2.3,2.3h.8c.46.01.86-.34.9-.8.4-2,0-2.5-2-2.5h-.1Zm6,0h-1.3c-.5,0-.8.2-.8.8,0,2.3-.2,2.6,2.1,2.5h.5c1.3,0,1.4-.2,1.4-1.4,0-2.1.2-1.9-1.9-1.9h0Zm-11.8,17.4h.8c.9,0,1.2-.3,1.1-1.2,0-2.4.3-2.1-2.1-2.1h-.4c-1.3,0-1.4,0-1.3,1.3,0,1.8-.4,2,1.9,1.9v.1Zm17.6-3.3h-.8c-.8-.1-1.1.2-1.1,1.1,0,2.3-.4,2.2,2.2,2.2h.4q1.3,0,1.3-1.3c0-2.2.2-1.9-1.9-1.9h0l-.1-.1Zm0-4.7h-1c-.7,0-.9.3-.9,1,0,2.4-.4,2.3,2.3,2.3h.3c1.2,0,1.3-.1,1.3-1.3,0-2.2.2-2-1.9-2h-.1Zm-17.5,0h-.88c-.8,0-1.1.2-1.1,1.1,0,2.3-.4,2.2,2.2,2.2h.4c1.2,0,1.3-.1,1.3-1.4,0-2.1.2-1.9-1.9-1.9h-.02Zm0-4.7h-.88c-.8,0-1.1.2-1,1,0,2.3-.2,2.3,2.2,2.2h.3c1.3,0,1.4,0,1.4-1.4,0-2.1.2-1.9-1.9-1.9l-.12.1Zm17.6-4.7h-1c-.7,0-.9.3-.9,1,0,2.4-.2,2.3,2.3,2.3h.3c1.2,0,1.3-.1,1.3-1.3,0-2.2.2-1.9-1.9-2h-.1Zm0,4.7c-2.2,0-1.9-.3-2,2v.2c0,.8.3,1.1,1.1,1.1h1.42c1.2,0,1.3-.1,1.3-1.4,0-2.1.2-1.9-1.9-1.9h.08Zm-17.6-4.7h-1c-.7,0-.9.3-.9,1,0,2.4-.2,2.3,2.3,2.3h.3c1.2,0,1.3-.1,1.3-1.3,0-2.2.2-1.9-1.9-2h-.1Zm10.7-22.9c.4,0,.7-.1.6-.6s-.2-.5-.6-.5-.7.1-.6.6.2.5.6.5Zm2.5-.5c0-.4-.2-.5-.6-.5s-.7,0-.7.5.2.5.6.5.7-.1.7-.5Zm-5.8,48.7c.04-.29-.16-.56-.45-.6-.05,0-.1,0-.15,0-.4,0-.5.3-.5.6s.2.6.5.6c.3-.03.52-.3.5-.6h.1Zm-2.1-49.2c-.32,0-.59.2-.7.5-.01.32.24.59.56.6.01,0,.03,0,.04,0,.3,0,.5-.1.5-.4h0c0-.4-.1-.6-.5-.6l.1-.1Zm2.3.5c0-.4-.2-.5-.6-.5-.28-.06-.54.12-.6.4-.06.28.12.54.4.6.07.01.13.01.2,0,.4,0,.5-.2.5-.5h.1Zm-.2,44.6c0-.4-.3-.5-.6-.5-.26-.02-.48.18-.5.44,0,.02,0,.04,0,.06,0,.4.2.6.5.6s.5-.2.5-.6h.1Zm4-.1c0-.2-.1-.4-.5-.4s-.6.1-.6.5.2.6.5.6.5-.2.5-.7h.1Zm-.4,4.7c.3,0,.4-.2.4-.5.02-.3-.2-.57-.5-.6-.26-.03-.49.16-.52.42,0,.06,0,.12.02.18.1.4.2.5.7.5h-.1Zm-1.6-49.2c0-.4-.3-.5-.6-.5s-.5.2-.4.6.3.5.6.5c.3-.03.52-.3.5-.6h-.1Zm-.5,44.3c.26.02.48-.18.5-.44,0-.02,0-.04,0-.06,0-.4-.2-.6-.6-.5s-.5.2-.5.6c.03.3.3.52.6.5h0v-.1Zm-3,2.9c.3,0,.5-.1.6-.5s-.1-.6-.5-.6-.5.1-.6.5.1.6.5.6h0Zm5.7-1.1c-.24,0-.44.21-.43.45,0,.05.01.1.03.15,0,.3.2.5.6.4s.5-.3.5-.6c-.03-.3-.3-.52-.6-.5l-.1.1Zm-2.8,4c.26.02.48-.18.5-.44,0-.02,0-.04,0-.06,0-.4-.2-.6-.5-.6-.26-.02-.48.18-.5.44,0,.02,0,.04,0,.06,0,.4.2.57.5.57v.03Zm-.6-3.1c0-.3-.1-.5-.5-.5-.26-.02-.48.18-.5.44,0,.02,0,.04,0,.06,0,.3.1.6.4.6.29,0,.54-.21.6-.5h0v-.1Zm.8.4c-.26-.02-.48.18-.5.44,0,.02,0,.04,0,.06.03.3.3.52.6.5h0c.3,0,.4-.3.4-.5.02-.26-.18-.48-.44-.5-.02,0-.04,0-.06,0Zm0-1.9c.02-.25-.15-.47-.4-.5-.29,0-.54.21-.6.5,0,.2.1.5.4.5h0c.3,0,.4-.3.5-.5h.1Zm1,1.3c.21-.01.39-.19.4-.4,0-.2,0-.4-.3-.5h-.1c-.3,0-.4.2-.5.4s0,.4.4.4l.1.1Z"/><path class="cls-51" d="m81.38,277.3h6.8c.6,0,.7.2.7.8v13.2c0,.5-.1.7-.7.7h-15.3c.02-.21.09-.42.2-.6,1.9-3.1,3.7-6.2,5.6-9.3,1-1.54,1.9-3.15,2.7-4.8Z"/><path class="cls-51" d="m69.06,291.9c-1.6,0-2.4-.76-2.4-2.3v-11.53c0-.7.2-.9.9-.9h10c-.7,1.45-1.5,2.86-2.4,4.2-2,3.5-4.1,6.9-6.1,10.4v.13Z"/><path class="cls-43" d="m81.38,277.3c-.8,1.65-1.7,3.26-2.7,4.8-1.8,3.1-3.7,6.2-5.6,9.3,0,.2-.2.4-.2.6h-1.6c.02-.21.09-.42.2-.6,1.6-2.6,3.2-5.3,4.7-7.9,1.2-2.1,2.5-4,3.6-6.2h1.6Z"/><path class="cls-12" d="m79.76,277.3c-1.1,2.1-2.4,4.1-3.6,6.2-1.6,2.7-3.2,5.3-4.7,7.9,0,.2-.2.4-.2.6h-1.1c.46-1.17,1.06-2.28,1.8-3.3,2.2-3.8,4.5-7.6,6.7-11.3h1.1v-.1Z"/><path class="cls-30" d="m78.66,277.3c-2.2,3.8-4.5,7.5-6.7,11.3-.73,1.02-1.34,2.13-1.8,3.3h-1.1c2.1-3.4,4.1-6.9,6.1-10.4.9-1.34,1.7-2.75,2.4-4.2h1.1Z"/><path class="cls-47" d="m80.76,306.8c2.2,0,1.9-.2,1.9,1.9,0,1.2,0,1.3-1.4,1.3h-1.6c-.49.06-.94-.29-1-.79,0-.07,0-.14,0-.21,0-2.3-.2-2.3,2.1-2.2Z"/><path class="cls-47" d="m74.76,306.8h0c1.9,0,2.4.6,1.9,2.5-.05.44-.45.75-.89.7,0,0,0,0-.01,0-.77.05-1.53.05-2.3,0-1.5-.3-.6-1.6-.8-2.4-.1-.6.2-.9.8-.8h1.3Z"/><path class="cls-47" d="m74.76,302.07h0c1.9,0,2.4.6,1.9,2.5-.07.39-.4.68-.8.7h-2.3c-.6,0-1-.3-.9-1v-.3c0-2.2-.3-2,2-2l.1.1Z"/><path class="cls-47" d="m80.76,302.07c2.1,0,1.9-.2,1.9,1.9,0,1.2-.2,1.4-1.4,1.4h-.5c-2.4,0-2.1-.2-2.1-2.5,0-.5.3-.7.8-.7h1.3v-.1Z"/><path class="cls-47" d="m80.66,314.8c-1.9,0-2.5-.7-2-2.6.08-.37.42-.63.8-.6h2.8c.9.7.4,1.7.4,2.5,0,.6-.5.7-1,.7h-1Z"/><path class="cls-47" d="m74.76,314.8c-1.8,0-2.5-1-1.9-2.7.06-.35.4-.58.75-.51.02,0,.04,0,.05.01h2.8c.9.7.4,1.6.4,2.4,0,.5-.4.8-1,.8h-1.1Z"/><path class="cls-47" d="m74.76,297.3h0c2,0,2.4.5,2,2.5,0,.5-.4.7-.9.8h-.8q-2.3,0-2.3-2.3c0-2.3.3-1.1,1-1h1Z"/><path class="cls-47" d="m80.76,297.3c2.1,0,1.9-.2,1.9,1.9,0,1.2-.2,1.4-1.4,1.4h-.5c-2.4,0-2.1-.2-2.1-2.5,0-.5.3-.7.8-.8h1.3Z"/><path class="cls-47" d="m68.96,314.8c-2.3,0-1.9-.1-1.9-1.9q0-1.3,1.3-1.3h.4c2.4,0,2.1-.3,2.1,2.1,0,.9-.3,1.2-1.1,1.2h-.8v-.1Z"/><path class="cls-47" d="m86.56,311.5c2.2,0,1.9-.2,1.9,1.9q0,1.3-1.3,1.3h-.4c-2.6,0-2.1,0-2.2-2.2,0-.8.3-1.2,1.1-1.1h.8l.1.1Z"/><path class="cls-47" d="m86.56,306.8c2.1,0,1.9-.2,1.9,2,0,1.2-.1,1.3-1.3,1.3h-.3c-2.7,0-2.2.1-2.3-2.3,0-.7.2-1,.9-1h1.1Z"/><path class="cls-47" d="m68.96,306.8c2.1,0,1.8-.2,1.9,1.9,0,1.2,0,1.4-1.3,1.4h-.4c-2.6,0-2.1,0-2.2-2.2,0-.8.3-1.2,1.1-1.1h.9Z"/><path class="cls-47" d="m68.96,302.07c2.1,0,1.9-.2,1.9,1.9,0,1.3,0,1.4-1.4,1.4h-.3c-2.4,0-2.1,0-2.2-2.2,0-.8.2-1.1,1-1h.9l.1-.1Z"/><path class="cls-47" d="m86.56,297.3c2.1,0,1.9-.2,1.9,2,0,1.2-.1,1.3-1.3,1.3h-.3c-2.5,0-2.2.1-2.3-2.3,0-.7.2-1,.9-1h1.1Z"/><path class="cls-47" d="m86.56,302.07c2.1,0,1.9-.2,1.9,1.9,0,1.3-.1,1.4-1.3,1.4h-1.4c-.8,0-1.1-.3-1.1-1.1v-.2c0-2.2-.3-2,2-2h-.1Z"/><path class="cls-47" d="m68.96,297.3c2.1,0,1.9-.2,1.9,1.9,0,1.2-.1,1.3-1.3,1.3h-.3c-2.5,0-2.3.1-2.3-2.3,0-.7.2-1,.9-1h1l.1.1Z"/><path class="cls-54" d="m79.66,274.5c-.3,0-.6-.1-.6-.5-.01-.32.24-.59.56-.6.01,0,.03,0,.04,0,.3,0,.6.1.6.5.01.32-.24.59-.56.6-.01,0-.03,0-.04,0Z"/><path class="cls-54" d="m82.06,274c0,.4-.3.5-.7.5s-.6-.2-.6-.5.3-.5.7-.5.6.2.6.5Z"/><path class="cls-58" d="m76.26,322.6c.02.3-.2.57-.5.6-.26.03-.49-.16-.52-.42,0-.06,0-.12.02-.18,0-.3.1-.6.5-.6.29-.04.56.16.6.45,0,.05,0,.1,0,.15h-.1Z"/><path class="cls-54" d="m74.16,273.4c.4,0,.5.2.5.6.02.26-.18.48-.44.5-.02,0-.04,0-.06,0h0c-.4,0-.7-.2-.6-.6s.3-.5.7-.5h-.1Z"/><path class="cls-54" d="m76.46,273.9c0,.4-.2.6-.5.5-.28.06-.54-.12-.6-.4-.06-.28.12-.54.4-.6.07-.01.13-.01.2,0,.3,0,.6.1.6.5h-.1Z"/><path class="cls-54" d="m76.26,318.5c0,.4-.2.6-.5.6s-.5-.2-.5-.6.1-.5.5-.5.6.1.6.5h-.1Z"/><path class="cls-54" d="m80.26,318.4c0,.5-.2.7-.5.7s-.5-.2-.5-.6.3-.5.6-.5c.25-.02.47.15.5.4h-.1Z"/><path class="cls-54" d="m79.86,323.07c-.4,0-.7-.1-.7-.5s.2-.6.5-.6.5.2.5.6-.1.5-.4.5h.1Z"/><path class="cls-54" d="m78.26,273.9c.03.27-.14.53-.4.6-.3,0-.6-.1-.6-.5-.03-.27.14-.53.4-.6.4,0,.6.1.6.5Z"/><path class="cls-54" d="m77.76,318.2c-.3,0-.5-.1-.6-.5s.1-.6.5-.6.6.2.6.5c.02.26-.18.48-.44.5-.02,0-.04,0-.06,0v.1Z"/><path class="cls-54" d="m74.86,321.07c-.4,0-.5-.2-.5-.6s.2-.5.6-.5.5.2.5.6-.2.5-.6.5Z"/><path class="cls-54" d="m80.56,320c.4,0,.6.1.6.4s-.1.6-.5.6c-.27.03-.53-.14-.6-.4,0-.4.1-.6.4-.6h.1Z"/><path class="cls-54" d="m77.76,316c-.21-.01-.39-.19-.4-.4,0-.2.1-.3.4-.3.2-.02.38.13.4.34,0,.02,0,.04,0,.06,0,.2-.1.3-.4.3Z"/><path class="cls-58" d="m77.16,320.9c-.06.29-.31.49-.6.5-.3,0-.5-.2-.4-.6s.2-.5.5-.5.4.3.5.5v.1Z"/><path class="cls-58" d="m77.96,321.3c.26-.02.48.18.5.44,0,.02,0,.04,0,.06,0,.3,0,.5-.4.5s-.6-.1-.6-.4h0c0-.3.2-.4.5-.5v-.1Z"/><path class="cls-58" d="m77.86,319.5c-.02.27-.23.48-.5.5-.25.02-.47-.15-.5-.4h0c.03-.3.3-.52.6-.5.3,0,.4.2.4.5v-.1Z"/><path class="cls-54" d="m78.96,320.7c-.4,0-.5-.2-.4-.4s.2-.5.5-.4c.21.01.39.19.4.4v.1c-.01.21-.19.39-.4.4l-.1-.1Z"/><path d="m49.66,303c2.09-1.63,5.1-1.27,6.74.82.02.03.04.05.06.08l2.3,3.2-7.9,5.8-2.3-3.2c-1.56-2.09-1.12-5.05.97-6.6.04-.03.09-.06.13-.1Zm1.3,1.7c-1.19.69-1.59,2.21-.9,3.4.06.1.13.2.2.3l1,1.4,4.4-3.3-1-1.4c-.82-1.18-2.45-1.46-3.62-.64-.06.04-.12.09-.18.14l.1.1Z"/><path d="m45.56,303c-.66.28-1.42-.04-1.7-.7-.28-.66.04-1.42.7-1.7.66-.28,1.42.04,1.7.7h0c.28.65-.01,1.4-.66,1.68-.01,0-.02.01-.04.02Zm1.6-.9l-.8-1.9,6.4-2.7.8,1.9-6.4,2.7Z"/><path d="m49.16,291.6c1.6-.4,2.6.8,2.9,2.3.36,1.18.01,2.47-.9,3.3l-1.4-1.5c.49-.23.71-.8.5-1.3-.1-.5-.3-.7-.6-.6-.8.2.4,3.4-1.9,4-1.5.3-2.5-.7-2.9-2.2-.31-1.07,0-2.23.8-3l1.3,1.5c-.33.26-.49.69-.4,1.1-.02.26.18.48.44.5.02,0,.04,0,.06,0,.8-.2-.5-3.4,2-4l.1-.1Z"/><path d="m47.86,283c1.93-.06,3.54,1.47,3.6,3.4,0,.03,0,.07,0,.1,0,.79-.33,1.55-.9,2.1h3.5v2.2l-9.8-.3v-2.1h.7c-.54-.56-.83-1.32-.8-2.1.13-1.9,1.77-3.34,3.67-3.21.04,0,.08,0,.13.01l-.1-.1Zm0,2.1c-.93-.06-1.74.64-1.8,1.57,0,0,0,.02,0,.03-.08.85.54,1.61,1.39,1.69.07,0,.14,0,.21,0,.93.06,1.74-.64,1.8-1.57,0,0,0-.02,0-.03.13-.82-.43-1.59-1.25-1.72-.12-.02-.24-.02-.35-.01v.03Z"/><path d="m41.86,279.9l.5-2,9.9,2.5-.5,2-9.9-2.5Z"/><path d="m49.26,269.8l6.3,3.1-.9,1.9-.6-.3c.28.72.21,1.54-.2,2.2-1.1,1.73-3.4,2.23-5.12,1.13-1.47-.94-2.09-2.79-1.48-4.43.33-.72.94-1.27,1.7-1.5l-.6-.3.9-1.9v.1Zm2.2,3.4c-.81-.45-1.82-.16-2.27.65,0,.02-.02.04-.03.05-.48.84-.19,1.91.65,2.39.84.48,1.91.19,2.39-.65.48-.84.19-1.91-.65-2.39-.03-.02-.06-.03-.09-.05Z"/><path d="m55.46,262.6l3.4,6.4c1.1,2.1.9,3.6-.5,5l-1.4-1.3c.63-.52.76-1.43.3-2.1l-6.8-2.5,1.6-1.7,4.2,1.7-2.3-3.9,1.5-1.7v.1Z"/><path d="m69.76,255l.6,7.3-1.8.8-2.5-3,.4,3.9-1.8.8-4.8-5.6,2.1-.9,2.4,3.1-.4-3.9,1.8-.8,2.4,3-.5-3.9,2.1-.9v.1Z"/><path d="m71.38,253.07c-.08-.69.41-1.32,1.1-1.4.69-.08,1.32.41,1.4,1.1.08.69-.41,1.32-1.1,1.4,0,0,0,0,0,0-.68.09-1.3-.38-1.4-1.06,0-.01,0-.03,0-.04Zm.5,1.8l2.1-.3,1,6.9-2.1.3-1-6.9Z"/><path d="m78.76,256.5v2.5c0,.6.5.7,1.4.6v1.9c-2.8.2-3.6-.6-3.5-2.5v-2.5h-1.1v-2h1.1v-1.3l2.1-.6v2h1.4v2h-1.5l.1-.1Z"/><path d="m88.38,258.8l-1,4.2-2-.5.9-3.9c.22-.57-.07-1.21-.64-1.43-.08-.03-.17-.05-.26-.07-.64-.21-1.33.14-1.54.78-.03.1-.05.21-.06.32l-.9,3.7-2-.5,2.3-9.5,2,.5-.8,3.4c.6-.45,1.38-.59,2.1-.4,1.41.32,2.3,1.72,1.97,3.13-.02.09-.05.18-.07.26Z"/><path d="m94.56,267.4v-3.8l-1.8,2.5-1.7-1.2,5.8-7.9,1.7,1.2-3.5,4.7,3.5-1.2,2,1.5-4.1,1.3v4.4l-1.9-1.4v-.1Z"/><path d="m99.76,270.4c.32.4.79.65,1.3.7l.3,1.9c-1.19.05-2.33-.51-3-1.5-1.36-1.44-1.3-3.71.14-5.08.08-.08.17-.15.26-.22,1.46-1.29,3.68-1.15,4.97.31.08.09.16.19.23.29,1.25,1.52,1.03,3.76-.49,5.01-.04.03-.07.06-.11.09-.2.2-.5.3-.7.5l-3.1-3.9c-.36.62-.24,1.42.3,1.9h-.1Zm2.8-.6c.4-.57.4-1.33,0-1.9-.4-.59-1.16-.8-1.8-.5l1.9,2.3-.1.1Z"/><path d="m109.86,277.6l-7.2.6c-2.4.2-3.7-.6-4.4-2.4l1.8-.8c.22.78,1,1.27,1.8,1.1l4.9-5.3,1,2.1-3.3,3.2,4.4-.6.9,2,.1.1Z"/><path d="m108.06,287.5c-1.87.39-3.69-.81-4.08-2.68,0-.04-.02-.08-.02-.12-.17-.77.01-1.58.5-2.2l-3.4.5-.3-2.1,9.7-1.4.3,2.1h-.7c.63.49,1.03,1.21,1.1,2,.2,1.9-1.18,3.59-3.07,3.79-.04,0-.08,0-.13.01l.1.1Zm-.3-2.1c.86-.07,1.5-.82,1.43-1.68,0-.08-.02-.15-.03-.22-.04-.84-.75-1.49-1.59-1.45-.1,0-.21.02-.31.05-.86.07-1.5.82-1.43,1.68,0,.08.02.15.03.22.04.84.75,1.49,1.59,1.45.1,0,.21-.02.31-.05h0Z"/><path d="m110.38,296.7l-6.9-1.1.3-2.1h.6c-.55-.55-.74-1.36-.5-2.1.55-1.98,2.6-3.14,4.58-2.6,1.69.47,2.82,2.05,2.72,3.8-.06.79-.51,1.51-1.2,1.9h.6c0,.1-.3,2.2-.3,2.2h.1Zm-3.1-2.6c.81.21,1.64-.28,1.85-1.09.03-.1.04-.21.05-.31.16-.88-.42-1.72-1.3-1.89-.03,0-.07-.01-.1-.01-.81-.21-1.64.28-1.85,1.09-.03.1-.04.21-.05.31-.15.88.45,1.72,1.33,1.86.02,0,.03,0,.05,0l.02.03Z"/><path d="m108.76,307.3l-8.8-4.3.9-1.9.6.3c-.33-.72-.25-1.55.2-2.2.96-1.69,3.09-2.31,4.8-1.4,1.76.74,2.58,2.77,1.83,4.52-.01.03-.02.05-.03.08-.33.72-.94,1.27-1.7,1.5l3.1,1.5-.9,1.9Zm-4.7-4.7c.81.45,1.82.16,2.27-.65,0-.02.02-.04.03-.05.41-.76.12-1.72-.64-2.13-.05-.03-.1-.05-.16-.07-.81-.45-1.82-.16-2.27.65,0,.02-.02.04-.03.05-.41.76-.12,1.72.64,2.13.05.03.1.05.16.07h0Z"/><circle class="cls-2" cx="349.17" cy="193.93" r="45"/><path class="cls-15" d="m339.07,202.03v-24c-.15-1.22.55-2.38,1.7-2.8h21.7c0,.2.2.2.3.3.61.44.98,1.15,1,1.9v8.6c-.51-.77-1.38-1.22-2.3-1.2-.93.03-1.77.57-2.2,1.4-.48.89-.32,1.99.4,2.7.59.7,1.5,1.04,2.4.9.67-.17,1.27-.56,1.7-1.1v5.8l-.3-.3c-1.03-.96-2.64-.9-3.6.13-.96,1.03-.9,2.64.13,3.6.02.02.05.04.07.07,1.1.9,2.5.7,3.7-.5.2.1.1.4.1.5v4.3c.02.34-.02.67-.1,1-.3,1.3-.6,2.5-1,3.7-.13.8-.36,1.57-.7,2.3v-.6c.13-1.3-.81-2.47-2.12-2.6-.16-.02-.32-.02-.48,0-1.37.04-2.44,1.19-2.4,2.56.02.57.23,1.11.6,1.54.61.78,1.65,1.1,2.6.8.83-.25,1.5-.88,1.8-1.7v.5c-.4,1.6-.9,3.2-1.3,4.7h-26.1c1-2.7,2.1-5.5,3.1-8.2.4-.9.7-1.8,1.1-2.8h23c.5,0,.7-.3.7-.8s-.3-.8-1-.8h-22.3l-.2.1Zm6.2-17.1c-1.38,0-2.5,1.12-2.5,2.5,0,.03,0,.07,0,.1.03,1.41,1.19,2.52,2.6,2.5,1.38,0,2.5-1.12,2.5-2.5s-1.12-2.5-2.5-2.5h0l-.1-.1Zm8.2,8.7c-1.41-.02-2.57,1.09-2.6,2.5-.01,1.37,1.09,2.49,2.46,2.5.01,0,.03,0,.04,0,1.41.02,2.57-1.09,2.6-2.5.06-1.3-.95-2.4-2.25-2.46-.08,0-.16,0-.25,0v-.04Zm-7.8,15.2c0-1.38-1.12-2.5-2.5-2.5s-2.5,1.12-2.5,2.5c-.02,1.41,1.09,2.57,2.5,2.6,1.37.01,2.49-1.09,2.5-2.46,0-.01,0-.03,0-.04v-.1Zm10.3-21.3c0-1.38-1.12-2.5-2.5-2.5s-2.5,1.12-2.5,2.5c-.02,1.41,1.09,2.57,2.5,2.6,1.37.04,2.51-1.04,2.55-2.41,0-.02,0-.03,0-.05l-.05-.14Zm-10.6,6.1c-1.38,0-2.5,1.12-2.5,2.5s1.12,2.5,2.5,2.5c1.39-.01,2.53-1.11,2.6-2.5.01-1.37-1.09-2.49-2.46-2.5-.01,0-.03,0-.04,0h-.1Zm8.5,15.2c0-1.38-1.12-2.5-2.5-2.5s-2.5,1.12-2.5,2.5,1.12,2.5,2.5,2.5c1.37.01,2.49-1.09,2.5-2.46,0-.01,0-.03,0-.04Zm.2-28.8h1.95c.6,0,.8-.2.8-.8s-.2-.7-.8-.7h-3.7c-.45-.04-.85.29-.9.74,0,.02,0,.04,0,.06,0,.4.3.7.9.8h1.8l-.05-.1Zm-5.9-.8c0,.5.2.8.7.8s.7-.3.7-.8c.03-.41-.27-.77-.67-.8-.04,0-.08,0-.13,0-.5,0-.7.2-.7.8h.1Z"/><path class="cls-60" d="m332.27,227.93c-.8-.4-1.5-.8-1.7-1.7-.16-.73-.02-1.49.4-2.1.6-1.5,1.1-2.9,1.7-4.4h26.4v.5c-.5,1.7-1,3.5-1.4,5.2-.15,1.05-.77,1.98-1.7,2.5h-23.7Zm13.8-2.9h2.95c.68.09,1.3-.39,1.39-1.07.01-.08.01-.15,0-.23.05-.72-.49-1.35-1.21-1.4-.06,0-.12,0-.19,0h-5.9c-.75-.03-1.37.55-1.4,1.3,0,0,0,0,0,0,0,.71.56,1.3,1.28,1.3.04,0,.08,0,.12,0h2.9l.05.1Z"/><path class="cls-32" d="m366.37,175.23c1.3.5,1.6,1.5,1.6,2.8v23.7c-.08,1.16-.31,2.3-.7,3.4-.8,3-1.7,6-2.5,9.1-.03.15-.09.29-.2.4h-4.1c.4-1.6.9-3.2,1.3-4.7v-.5h0c.34-.73.57-1.5.7-2.3.4-1.2.7-2.5,1-3.7,0-.3.1-.7.1-1v-4.3c.03-.17,0-.35-.1-.5.6-.91.6-2.09,0-3,.1-.1,0-.2,0-.4v-5.4c.45-.84.45-1.86,0-2.7v-8.6c-.02-.75-.39-1.46-1-1.9-.16,0-.29-.14-.3-.3h4l.2-.1Z"/><path class="cls-38" d="m355.77,227.93h0c.94-.5,1.58-1.44,1.7-2.5.5-1.7.9-3.5,1.4-5.2v-.5h4.3c-.6,2.2-1.2,4.3-1.8,6.5-.23.83-.87,1.47-1.7,1.7h-3.9Z"/><path class="cls-57" d="m363.27,219.73h-30.7c.6-1.7,1.2-3.4,1.9-4.9h30.2c-.5,1.7-.9,3.4-1.4,5v-.1Z"/><path class="cls-18" d="m328.77,186.13h-1.75c-.41.07-.83-.08-1.1-.4-.2-.3-.1-.5,0-.8.14-.26.41-.41.7-.4,1.4,0,2.7,0,4.1-.1.6,0,.9.3.9.8,0,1.4,0,2.8-.1,4.2,0,.45-.38.81-.84.8-.02,0-.04,0-.06,0-.39.02-.71-.28-.73-.67,0-.08,0-.16.03-.23-.01-.73.02-1.47.1-2.2-.57.65-1.07,1.35-1.5,2.1-1.06,1.77-1.74,3.75-2,5.8-.4,3.4.3,6.83,2,9.8.65,1.08,1.42,2.09,2.3,3,.3.4.4.9,0,1.2-.33.27-.82.23-1.1-.1-2.56-2.45-4.21-5.69-4.7-9.2-.78-4.56.38-9.24,3.2-12.9.1-.2.3-.4.4-.6v-.2l.15.1Z"/><path class="cls-61" d="m339.07,202.03h22.3c.7,0,1,.3,1,.8.05.39-.23.74-.61.79-.03,0-.06,0-.09,0h-23c.2-.51.3-1.05.3-1.6h.1Z"/><path class="cls-63" d="m345.27,184.93c1.38,0,2.5,1.12,2.5,2.5s-1.12,2.5-2.5,2.5c-1.41.02-2.57-1.09-2.6-2.5.01-1.39,1.11-2.53,2.5-2.6l.1.1Z"/><path class="cls-63" d="m363.67,194.67c.6.91.6,2.09,0,3-1.2,1.2-2.6,1.4-3.7.5-1.09-.95-1.22-2.59-.3-3.7.96-1.05,2.58-1.12,3.63-.17.02.02.05.04.07.07l.3.3Z"/><path class="cls-64" d="m353.37,193.53c1.38.03,2.48,1.17,2.45,2.55s-1.17,2.48-2.55,2.45c-1.37-.02-2.48-1.13-2.5-2.5,0-1.38,1.12-2.5,2.5-2.5.03,0,.07,0,.1,0Z"/><path class="cls-34" d="m345.67,208.73c-.03,1.41-1.19,2.53-2.6,2.5-1.41-.03-2.53-1.19-2.5-2.6s1.19-2.53,2.6-2.5c1.37.03,2.47,1.13,2.5,2.5v.1Z"/><path class="cls-34" d="m355.87,187.43c.01,1.37-1.09,2.49-2.46,2.5-.01,0-.03,0-.04,0-1.41-.03-2.52-1.19-2.5-2.6,0-1.38,1.12-2.5,2.5-2.5s2.5,1.12,2.5,2.5v.1Z"/><path class="cls-23" d="m345.27,193.53c1.41.03,2.53,1.19,2.5,2.6-.03,1.41-1.19,2.53-2.6,2.5-1.41-.03-2.53-1.19-2.5-2.6.03-1.37,1.13-2.47,2.5-2.5h.1Z"/><path class="cls-23" d="m353.77,208.73c0,1.38-1.12,2.5-2.5,2.5s-2.5-1.12-2.5-2.5,1.12-2.5,2.5-2.5c1.37-.01,2.49,1.09,2.5,2.46,0,.01,0,.03,0,.04Z"/><path class="cls-37" d="m361.87,209.43h0c-.3.82-.97,1.45-1.8,1.7-.95.32-2,0-2.6-.8-.62-.72-.77-1.73-.4-2.6.34-.92,1.22-1.52,2.2-1.5,1.33-.1,2.5.89,2.6,2.23,0,.12,0,.25,0,.37v.6Z"/><path class="cls-37" d="m363.67,186.03c.4.86.4,1.84,0,2.7-.41.56-1.02.96-1.7,1.1-.91.23-1.87-.13-2.4-.9-.67-.74-.82-1.8-.4-2.7.38-.87,1.25-1.42,2.2-1.4.92-.02,1.79.43,2.3,1.2Z"/><path class="cls-11" d="m354.02,179.93h-1.8c-.45.04-.85-.29-.9-.74,0-.02,0-.04,0-.06,0-.5.3-.8.9-.8h3.7c.6,0,.8.2.8.7s-.2.8-.8.8h-1.9v.1Z"/><path class="cls-11" d="m348.07,179.13c0-.5.2-.8.7-.8.41-.03.77.27.8.67,0,.04,0,.08,0,.13.05.39-.23.74-.61.79-.03,0-.06,0-.09,0-.5,0-.7-.3-.7-.8h-.1Z"/><path class="cls-49" d="m346.02,225.03h-2.9c-.75.03-1.37-.55-1.4-1.3,0,0,0,0,0,0,.06-.73.67-1.29,1.4-1.3h5.9c.72-.05,1.35.49,1.4,1.21,0,.06,0,.12,0,.19,0,.71-.56,1.3-1.28,1.3-.04,0-.08,0-.12,0h-2.9l-.1-.1Z"/><path d="m311.87,185.53l2,.5,1-3.8,2.2.6-1,3.8,3.7,1-.6,2.3-10.1-2.8,1.7-6.1,2.2.6-1.1,3.8v.1Z"/><path d="m317.67,181.67c-1.93-1.07-2.63-3.5-1.56-5.44s3.5-2.63,5.44-1.56c1.93,1.07,2.63,3.5,1.56,5.44-.01.02-.02.04-.04.06-1.04,1.9-3.43,2.59-5.32,1.54-.03-.01-.05-.03-.08-.04Zm2.9-4.9c-.83-.49-1.9-.22-2.4.6-.49.78-.26,1.81.52,2.3.06.04.12.07.18.1.83.49,1.9.22,2.4-.6.51-.77.3-1.81-.47-2.31-.07-.05-.15-.09-.23-.13v.04Z"/><path d="m317.37,168.93l1.5-1.7,8.2,7.2-1.5,1.7-8.2-7.2Z"/><path d="m327.47,160.43l6.4,8.4-1.8,1.4-.4-.6c-.03.86-.48,1.64-1.2,2.1-1.73,1.19-4.1.75-5.28-.98,0,0-.01-.02-.02-.02-1.33-1.53-1.17-3.85.35-5.18.05-.04.1-.08.15-.12.63-.55,1.48-.78,2.3-.6l-2.2-2.9,1.8-1.4-.1-.1Zm2.3,6.7c-.52-.79-1.58-1.01-2.37-.5-.05.03-.09.06-.13.1-.76.52-.96,1.56-.44,2.32.04.06.09.12.14.18.52.79,1.58,1.01,2.37.5.05-.03.09-.06.13-.1.76-.52.96-1.56.44-2.32-.04-.06-.09-.12-.14-.18h0Z"/><path d="m339.17,158.53l2.7,7-2.1.8-.3-.7c-.33.8-.98,1.42-1.8,1.7-1.99.66-4.13-.41-4.8-2.4-.87-1.86-.07-4.08,1.79-4.95.04-.02.08-.03.11-.05.76-.35,1.64-.35,2.4,0l-.3-.7,2.1-.8.2.1Zm-.7,4.3c-.4-.9-1.46-1.29-2.35-.89-.9.4-1.29,1.46-.89,2.35.39.85,1.37,1.26,2.24.94.92-.34,1.39-1.35,1.05-2.27-.02-.04-.03-.09-.05-.13Z"/><path d="m350.57,160.93c.29,2.02-1.11,3.9-3.13,4.19-.02,0-.04,0-.07,0-.83.08-1.65-.17-2.3-.7v.7l-2.2.2-.9-10.5,2.2-.2.3,3.7c.54-.67,1.34-1.07,2.2-1.1,2-.2,3.7,1.44,3.9,3.7Zm-2.2.2c.02-.93-.72-1.7-1.65-1.71-.09,0-.17,0-.25.01-.92.01-1.65.77-1.64,1.68,0,.11.01.21.04.32-.02.93.72,1.7,1.65,1.71.09,0,.17,0,.25-.01.94-.04,1.67-.83,1.63-1.77,0-.08-.01-.15-.03-.23h0Z"/><path d="m352.87,154.13l2.2.3-1.3,10.9-2.2-.3,1.3-10.9Z"/><path d="m359.17,164.73c.49.18,1.04.14,1.5-.1l1.4,1.5c-1.04.77-2.39.96-3.6.5-2.13-.57-3.4-2.77-2.83-4.9,0-.03.02-.07.03-.1.6-2.06,2.75-3.25,4.82-2.66.06.02.12.04.18.06,1.98.62,3.09,2.73,2.46,4.71-.02.06-.04.13-.06.19-.03.31-.17.59-.4.8l-5.1-1.6c.03.81.65,1.46,1.45,1.54l.15.06Zm2.1-2.2c-.03-.95-.83-1.7-1.78-1.67-.52.02-1,.26-1.32.67l3.1,1Z"/><path d="m378.37,166.43l-6.7,8.1-1.7-1.4.5-.5c-.83.13-1.68-.12-2.3-.7-1.4-1.71-1.16-4.23.54-5.63,1.29-1.06,3.11-1.21,4.56-.37.68.48,1.09,1.26,1.1,2.1l2.4-2.8,1.7,1.4-.1-.2Zm-6.1,3.7c.67-.72.62-1.85-.1-2.52-.03-.03-.06-.06-.1-.08-.64-.62-1.67-.61-2.29.03-.08.08-.15.17-.21.27-.67.72-.62,1.85.1,2.52.03.03.06.06.1.08.64.62,1.67.61,2.29-.03.08-.08.15-.17.21-.27h0Z"/><path d="m378.07,170.73l1.4,1.8-5.9,4.7-1.4-1.8,5.9-4.7Zm1.4-1.4c.58-.47,1.43-.38,1.9.2.47.58.38,1.43-.2,1.9-.58.47-1.43.38-1.9-.2-.47-.55-.41-1.37.14-1.85.02-.02.04-.04.06-.05Z"/><path d="m379.17,182.03c-1.5.8-2.9-.1-3.7-1.5-.75-1.12-.75-2.58,0-3.7l1.9,1.2c-.43.39-.47,1.05-.1,1.5.3.5.5.6.8.5.7-.4-1.5-3.4.8-4.7,1.4-.8,2.8,0,3.6,1.4.66,1,.66,2.3,0,3.3l-1.8-1.2c.25-.36.25-.84,0-1.2-.2-.3-.4-.5-.7-.3-.7.4,1.6,3.4-.9,4.7h.1Z"/><path d="m383.17,190.53c-1.99.66-4.13-.41-4.8-2.4-.28-.8-.17-1.69.3-2.4l-3.6,1-.6-2.2,10.1-2.7.6,2.2-.7.2c.74.39,1.29,1.08,1.5,1.9.45,2.03-.82,4.04-2.85,4.49-.02,0-.03,0-.05.01l.1-.1Zm-.6-2.2c.92-.17,1.53-1.05,1.36-1.97-.01-.08-.03-.16-.06-.23-.2-.9-1.08-1.46-1.98-1.27-.08.02-.15.04-.22.07-.92.17-1.53,1.05-1.36,1.97.01.08.03.16.06.23.2.9,1.08,1.46,1.98,1.27.08-.02.15-.04.22-.07h0Z"/><path d="m390.37,191.67v2.2l-10.8.7v-2.2l10.8-.7Z"/><path d="m386.07,204.33l-7.4-1,.3-2.2h.7c-.54-.6-.76-1.41-.6-2.2.41-2.03,2.36-3.36,4.4-3,2.04.15,3.57,1.93,3.41,3.97,0,.04,0,.09-.01.13-.06.85-.5,1.62-1.2,2.1h.7l-.3,2.3v-.1Zm-3.4-2.7c.95.2,1.88-.42,2.08-1.37,0-.04.02-.09.02-.13.15-.95-.51-1.84-1.46-1.98-.05,0-.1-.01-.14-.02-.95-.2-1.88.42-2.08,1.37,0,.04-.02.09-.02.13-.2.91.37,1.8,1.28,2,.11.02.21.04.32.04v-.04Z"/><path d="m382.47,213.73l-5.7-5.2c-1.9-1.7-2.2-3.3-1.3-5.2l1.9.8c-.45.73-.28,1.68.4,2.2h7.8l-1,2.3-4.9-.3,3.7,3.1-.9,2.2v.1Z"/><circle class="cls-2" cx="139.78" cy="57.88" r="45"/><path class="cls-25" d="m166.78,85.18v.8c-.18.53-.53.99-1,1.3l-9.6,6.6c-.87.61-2.08.39-2.69-.48,0,0,0-.01-.01-.02-.3-.5-.7-1-1-1.5-.6-1.25-1.93-1.97-3.3-1.8-1.87.16-3.66-.78-4.6-2.4-.9-1.3-1.7-2.6-2.6-3.9-.1-.2-.2-.4-.4-.4,0-.19-.07-.36-.2-.5-.7-1.1-1.4-2.1-2.1-3.2-1.05-1.47-.72-3.51.75-4.56.02-.01.03-.02.05-.04.45-.31.89-.64,1.3-1,.2,0,.3.2.4.3,1,1.4,1.9,2.9,2.9,4.3l2.4,3.6c.29.42.85.55,1.3.3.41-.3.5-.89.2-1.3,0,0,0,0,0,0,0-.1-.1-.2-.2-.3-3.2-4.6-6.3-9.2-9.5-13.9-2-3-4.1-6-6.1-9-.44-.58-.68-1.28-.7-2,0-.3.3-.6.1-1v-.2c1.12-.52,2.45-.19,3.2.8.58.91,1.21,1.78,1.9,2.6,1.2,1.7,2.3,3.4,3.5,5.1.34.61.74,1.17,1.2,1.7h0s0,.2.1.2c.27.42.57.82.9,1.2.3.3.8.3,1.1,0,.4-.3.4-.8,0-1.3-.56-.71-.84-1.6-.8-2.5,0-.3.3-.5.1-.7,1.12-.57,2.48-.23,3.2.8.18.34.41.65.7.9.23.54.53,1.05.9,1.5.32.3.8.38,1.2.2.39-.27.52-.78.3-1.2-.13-.26-.3-.49-.5-.7-.51-.73-.69-1.63-.5-2.5v-.4c.77-.45,1.73-.45,2.5,0,.7.4,1,1.1,1.5,1.6h0c.24.5.54.97.9,1.4.3.3.8.3,1.1,0,.28-.21.43-.55.4-.9-.04-.26-.14-.5-.3-.7-.59-.69-.84-1.6-.7-2.5v-.8c1.2-.51,2.59-.09,3.3,1,1.9,2.8,3.8,5.5,5.6,8.3,1.44,2.31,2.36,4.9,2.7,7.6.22,1.93.29,3.86.2,5.8-.04,1.15.23,2.3.8,3.3l.1.5Zm-2.9-.1c0-.32-.2-.59-.5-.7-.32-.15-.68-.15-1,0-1,.7-2,1.3-3,2-.43.22-.6.74-.38,1.17.02.05.05.09.08.13.3.41.89.5,1.3.2,0,0,0,0,0,0,1-.7,2-1.4,3-2,.31-.15.5-.46.5-.8Zm-6.1,4.2c.05-.44-.27-.85-.71-.9-.17-.02-.34.01-.49.1-.32.16-.62.37-.9.6-.3.32-.38.8-.2,1.2.25.38.77.49,1.15.24.02-.01.03-.02.05-.04.28-.18.55-.38.8-.6.2-.2.3-.3.2-.5l.1-.1Z"/><path class="cls-24" d="m121.78,58.68v-12.8c-.03-1.25.79-2.37,2-2.7h2.9c.37.48.55,1.09.5,1.7-.08.97.64,1.82,1.61,1.89.06,0,.12,0,.19,0h6.9c.98.07,1.83-.67,1.9-1.65,0-.08,0-.17,0-.25-.08-.61.1-1.23.5-1.7h2.6c.67.17,1.27.56,1.7,1.1.2.22.31.5.3.8-.8.7-1.6,1.5-2.3,2.2-1.3,1.4-2.5,2.8-3.7,4.3-.19.39-.51.71-.9.9-1.05-.97-2.47-1.45-3.9-1.3-2.61.21-4.69,2.29-4.9,4.9-.12,2.2,1.1,4.26,3.1,5.2-.4.8-.9,1.7-1.3,2.5-1,1.9-1.9,3.9-2.7,5.8-1.16,2.81-2.18,5.68-3.05,8.6-.4,1.3-.7,2.6-1.1,3.9-.16-.38-.23-.79-.2-1.2v-10.4c.1-.3.3-.6.4-.9.68-1.56,1.12-3.21,1.3-4.9.3-2.2.1-4.3-1.7-5.9l-.15-.1Z"/><path class="cls-19" d="m138.23,43.08c-.42.46-.6,1.09-.5,1.7.07.98-.67,1.83-1.65,1.9-.08,0-.17,0-.25,0h-6.9c-.97.03-1.78-.74-1.81-1.71,0-.06,0-.12,0-.19.08-.61-.1-1.23-.5-1.7h11.6Z"/><path class="cls-35" d="m137.98,43.08c-.1.1-.3,0-.5,0h.5Z"/><path class="cls-6" d="m121.98,81.98c.4-1.3.7-2.6,1.1-3.9.88-2.92,1.92-5.79,3.1-8.6.8-1.98,1.7-3.92,2.7-5.8.4-.8.9-1.7,1.3-2.5.2,0,.4.2.6.2.67.27,1.4.34,2.1.2,0,.1.2.2.2.3,2.4,3.5,4.8,7.1,7.2,10.6.42.53.79,1.1,1.1,1.7-.41.36-.85.69-1.3,1-1.49,1.02-1.86,3.06-.84,4.55.01.02.02.03.04.05.7,1.1,1.4,2.1,2.1,3.2.1.2.2.3.2.5-.7.4-1.4.2-2.1.3h-14.8c-1.15.09-2.22-.61-2.6-1.7l-.1-.1Zm10.4-.9h3.3c.7,0,1.1-.3,1.1-.9s-.4-.9-1.1-.9h-6.6c-.7,0-1.1.3-1.1.9s.4.9,1.1.9h3.3Z"/><path class="cls-21" d="m135.88,52.38c.5-.1.6-.5.9-.9,1.2-1.5,2.4-2.9,3.7-4.3.72-.78,1.49-1.52,2.3-2.2.16.38.23.79.2,1.2v16.2c-.53.38-.89.96-1,1.6-.05.47-.05.93,0,1.4-.46-.53-.86-1.09-1.2-1.7-1.2-1.7-2.3-3.4-3.5-5.1.32-.62.49-1.3.5-2,.04-1.57-.62-3.07-1.8-4.1l-.1-.1Z"/><path class="cls-33" d="m135.88,52.38c1.17,1.04,1.82,2.54,1.8,4.1.03.7-.15,1.39-.5,2-.58-.91-1.21-1.78-1.9-2.6-.72-1.03-2.08-1.37-3.2-.8-.29,0-.54.21-.6.5h0c-.06,0-.1.04-.1.1h0c-.06,0-.1.04-.1.1h0c-.06,0-.1.04-.1.1h0c-.58.49-.81,1.27-.6,2,0,.45.18.88.5,1.2.6.9,1.2,1.7,1.7,2.6-.7.13-1.43.06-2.1-.2-.21-.02-.42-.09-.6-.2-2.66-1.2-3.85-4.33-2.65-7,.8-1.77,2.51-2.97,4.45-3.1,1.42-.09,2.82.37,3.9,1.3l.1-.1Z"/><path class="cls-56" d="m132.78,61.58c-.6-.9-1.2-1.7-1.7-2.6-.29-.34-.47-.76-.5-1.2,0-.71.21-1.41.6-2h.1l.1-.1h0l.1-.1h0c.2,0,.4-.2.6-.3.1.3-.1.6-.1,1,.02.72.26,1.42.7,2,2,3,4.1,6,6.1,9,3.2,4.6,6.3,9.2,9.5,13.9,0,.1.2.2.2.3.31.4.23.97-.17,1.28-.01,0-.02.02-.03.02-.45.21-.99.08-1.3-.3l-2.4-3.6c-1-1.4-1.9-2.9-2.9-4.3-.1-.2-.2-.3-.4-.3-.33-.59-.7-1.16-1.1-1.7-2.4-3.5-4.8-7.1-7.2-10.6,0-.1-.2-.2-.2-.3v-.1Z"/><path class="cls-50" d="m163.88,85.08c0,.34-.19.65-.5.8-1,.7-2,1.4-3,2-.42.27-.98.18-1.3-.2-.28-.41-.18-.97.22-1.25.02-.02.05-.03.08-.05,1-.7,2-1.4,3-2,.29-.25.71-.25,1,0,.3.2.5.4.5.7Z"/><path class="cls-36" d="m152.68,62.38c-.16-.75-.05-1.52.3-2.2.3-.46.71-.84,1.2-1.1v.8c-.06.89.18,1.77.7,2.5.2.18.31.43.3.7,0,.4,0,.7-.4.9-.34.2-.76.2-1.1,0-.39-.4-.7-.88-.9-1.4h0l-.1-.2Z"/><path class="cls-36" d="m147.38,63.78c-.38-1.21.17-2.52,1.3-3.1.1.1,0,.3,0,.4-.2.87-.02,1.78.5,2.5.2.2.3.5.5.7.28.41.16.97-.25,1.25s-.97.16-1.25-.25c-.39-.44-.7-.95-.9-1.5h.1Z"/><path class="cls-56" d="m141.88,65.28v-1.4c.21-.6.55-1.15,1-1.6.15-.03.29-.09.4-.2.2.3,0,.5-.1.7,0,.9.28,1.77.8,2.5.35.36.35.94,0,1.3-.3.3-.8.3-1.1,0-.32-.38-.62-.78-.9-1.2,0,0,0-.2-.1-.2h0v.1Z"/><path class="cls-50" d="m157.78,89.18c0,.2,0,.4-.2.5-.22.25-.49.46-.8.6-.36.28-.88.21-1.16-.15-.01-.02-.02-.03-.04-.05-.24-.4-.15-.9.2-1.2l.9-.6c.39-.22.88-.08,1.1.31.08.15.12.32.1.49l-.1.1Z"/><path class="cls-68" d="m132.08,55.18c-.2,0-.4.3-.6.3,0-.3.4-.4.6-.5v.2Z"/><path class="cls-21" d="m141.88,65.28c0,.08.04.15.1.2-.05-.05-.09-.12-.1-.2Z"/><path class="cls-42" d="m121.98,81.98c.38,1.09,1.45,1.79,2.6,1.7h14.8c-.98,1.38-2.24,2.54-3.7,3.4-.2.1-.3.2-.5.3-.7.36-1.09,1.12-1,1.9v3.1c0,1.05-.85,1.9-1.9,1.9h-10.3c-.96.09-1.81-.61-1.9-1.56-.01-.11-.01-.22,0-.34v-3c-.23-.99-.67-1.91-1.3-2.7-.7-1-1.3-2.1-2.1-3.1-.67-.97-1.02-2.12-1-3.3,0-2.3.2-4.6.2-6.9v-3.3c-.04-1.47.24-2.94.8-4.3.82-1.84,1.36-3.8,1.6-5.8.04-.96.86-1.7,1.82-1.66.13,0,.26.03.38.06.9,1.1,1.39,2.48,1.4,3.9-.05,1.35-.25,2.69-.6,4-.27,1.25-.7,2.47-1.3,3.6-.23.47-.05,1.04.4,1.3.42.26.98.13,1.24-.29.02-.04.04-.07.06-.11.05-.11.12-.21.2-.3v10.4c-.03.41.04.82.2,1.2l-.1-.1Zm7.3,7.9h-1.2c-.5-.07-.96.27-1.03.77s.27.96.77,1.03c.09.01.18.01.27,0h2.4c.5,0,.9-.4.9-.9s-.4-.9-.9-.9h-1.2Zm-5.3,1.8c.24.02.48-.02.7-.1.38-.17.59-.59.5-1-.14-.43-.55-.72-1-.7-.6,0-1.2,0-1.5.6v.2c0,.7.4,1,1.3,1Z"/><path class="cls-56" d="m121.78,70.38c-.05.11-.12.21-.2.3-.26.45-.83.63-1.3.4-.45-.2-.66-.73-.46-1.19.02-.04.04-.08.06-.11.58-1.15,1.03-2.35,1.35-3.6.35-1.31.55-2.65.6-4,.04-1.43-.46-2.82-1.4-3.9.49.08.97.25,1.4.5,1.8,1.6,1.9,3.7,1.7,5.9-.18,1.69-.62,3.34-1.3,4.9-.1.3-.3.6-.4.9l-.05-.1Z"/><path class="cls-39" d="m132.38,81.08h-3.3c-.7,0-1.1-.3-1.1-.9s.4-.9,1.1-.9h6.6c.7,0,1.1.4,1.1.9s-.4.9-1.1.9h-3.3Z"/><path class="cls-68" d="m131.23,55.78c-.35.61-.55,1.3-.6,2-.26-.73-.02-1.54.6-2Z"/><path class="cls-50" d="m129.28,89.88h1.1c.5-.07.96.27,1.03.77s-.27.96-.77,1.03c-.09.01-.18.01-.27,0h-2.4c-.5,0-.9-.4-.9-.9s.4-.9.9-.9h1.3,0Z"/><path class="cls-50" d="m124.08,91.68c-1,0-1.4-.3-1.3-1v-.2c.3-.6.9-.6,1.5-.6.45-.02.86.27,1,.7.14.41-.07.85-.48.99,0,0-.01,0-.02,0-.23.07-.46.11-.7.1Z"/><path d="m104.28,43.68l-.8,2.6,7.8,2.5-.7,2.3-7.8-2.5-.8,2.6-2.2-.7,2.4-7.4,2.2.7-.1-.1Z"/><path d="m108.38,45.48c-1.87-1.11-2.5-3.52-1.39-5.4,1.11-1.87,3.52-2.5,5.4-1.39,1.87,1.1,2.5,3.51,1.4,5.39-1.09,1.87-3.48,2.51-5.36,1.43-.01,0-.03-.02-.04-.03Zm2.9-4.9c-.85-.44-1.89-.11-2.33.74-.44.85-.11,1.89.74,2.33.82.43,1.83.13,2.3-.67.51-.78.29-1.83-.5-2.34-.03-.02-.07-.04-.1-.06h-.1Z"/><path d="m115.88,29.78l5.2,5.4-1.6,1.6-.5-.5c.03.8-.3,1.57-.9,2.1-1.07,1.09-2.83,1.1-3.92.03-.1-.1-.2-.21-.28-.33l-3.2-3.3,1.6-1.6,3,3.1c.38.52,1.11.64,1.63.27.1-.07.19-.16.27-.27.58-.49.66-1.35.17-1.93-.05-.06-.11-.12-.17-.17l-2.8-2.9,1.6-1.6-.1.1Z"/><path d="m119.78,31.48c-1.03-1.96-.27-4.37,1.69-5.4,1.16-.61,2.55-.61,3.71,0l-1.1,2c-.53-.3-1.17-.3-1.7,0-.82.5-1.09,1.57-.6,2.4.38.81,1.35,1.16,2.16.78.05-.02.1-.05.14-.08.57-.26.9-.88.8-1.5h2.35c-.02,1.41-.78,2.7-2,3.4-1.82,1.1-4.19.52-5.29-1.3-.04-.07-.08-.13-.11-.2l-.05-.1Z"/><path d="m134.08,24.68l1.2,4.4-2.2.6-1.1-4.1c-.08-.66-.68-1.14-1.34-1.06-.09.01-.17.03-.26.06-.8.2-1.2.8-.9,1.9l1.1,4-2.2.6-2.8-10.1,2.2-.6,1,3.6c.33-.74,1.01-1.26,1.8-1.4,1.46-.42,2.99.42,3.42,1.89.04.13.07.27.08.41v-.2Z"/><path d="m148.58,19.28l-1.3,10.4-2.2-.3v-.7c-.57.58-1.41.81-2.2.6-2-.2-3.3-2.2-3.1-4.4.17-2.06,1.94-3.6,4-3.5.85.06,1.62.5,2.1,1.2l.5-3.7,2.2.3v.1Zm-3.1,6.4c.18-.91-.41-1.79-1.32-1.97-.06-.01-.12-.02-.18-.03-.95-.15-1.84.51-1.98,1.46,0,.05-.01.1-.02.14-.18.91.41,1.79,1.32,1.97.06.01.12.02.18.03.95.15,1.84-.51,1.98-1.46,0-.05.01-.1.02-.14Z"/><path d="m150.68,23.08l2.1.7-2.4,7.1-2.1-.7,2.4-7.1Zm.4-2c.22-.72.98-1.12,1.7-.9.72.22,1.12.98.9,1.7-.22.72-.98,1.12-1.7.9-.71-.23-1.1-.98-.9-1.7h0Z"/><path d="m157.78,31.98c-.8,1.5-2.5,1.5-3.9.7-1.26-.51-2.06-1.75-2-3.1h2.2c-.07.54.22,1.06.7,1.3.5.3.8.2.9,0,.4-.7-3.1-2.1-1.9-4.4.76-1.23,2.37-1.62,3.6-.86.03.02.06.04.1.06,1.1.5,1.8,1.59,1.8,2.8h-2.2c.04-.43-.21-.83-.6-1-.23-.2-.57-.2-.8,0-.4.8,3.1,2,1.8,4.4l.3.1Z"/><path d="m165.78,36.88c-1.23,1.59-3.51,1.89-5.11.66-.07-.05-.13-.11-.19-.16-.67-.53-1.04-1.35-1-2.2l-2.5,2.7-1.7-1.5,7-7.8,1.7,1.5-.5.5c.84-.04,1.67.24,2.3.8,1.46,1.41,1.51,3.74.1,5.2-.03.03-.06.06-.1.1v.2Zm-1.7-1.5c.72-.67.76-1.8.08-2.52-.03-.03-.06-.06-.08-.08-.67-.67-1.76-.67-2.43,0-.06.06-.12.13-.17.2-.72.67-.76,1.8-.08,2.52.03.03.06.06.08.08.67.67,1.76.67,2.43,0,.06-.06.12-.13.17-.2Z"/><path d="m172.28,33.88l1.3,1.8-8.8,6.5-1.3-1.8,8.8-6.5Z"/><path d="m175.68,46.88l-6.8,3.2-.9-2,.6-.3c-.8-.26-1.45-.84-1.8-1.6-.79-1.88.09-4.05,1.97-4.85.04-.02.09-.04.13-.05,1.85-.96,4.13-.25,5.1,1.6.38.75.42,1.62.1,2.4l.6-.3.9,2,.1-.1Zm-4.3-.5c.9-.39,1.32-1.44.93-2.34,0-.02-.02-.04-.03-.06-.37-.86-1.36-1.26-2.22-.89-.06.03-.12.06-.18.09-.9.39-1.32,1.44-.93,2.34,0,.02.02.04.03.06.37.86,1.36,1.26,2.22.89.06-.03.12-.06.18-.09Z"/><path d="m177.68,56.78l-7.6-1.3c-2.5-.4-3.7-1.6-3.9-3.7l2.1-.4c.2,1,.6,1.5,1.5,1.6l6.5-4.2.4,2.4-4.2,2.4,4.8.6.4,2.4v.2Z"/><circle class="cls-2" cx="299.79" cy="316.2" r="45"/><path d="m270.49,298.5c-2.57-2.45-2.66-6.52-.21-9.09.07-.07.14-.14.21-.21,1.52-1.59,3.75-2.27,5.9-1.8l-.7,2.8c-1.17-.32-2.42.07-3.2,1-1.44,1.29-1.56,3.49-.27,4.93.09.1.18.19.27.27,1.23,1.44,3.39,1.61,4.82.38.14-.12.26-.24.38-.38.9-.8,1.26-2.05.9-3.2l2.8-.8c.55,2.13-.11,4.39-1.7,5.9-2.39,2.57-6.41,2.71-8.97.33-.11-.1-.22-.21-.33-.33l.1.2Z"/><path d="m288.49,282.3l3.8,8.2-2.5,1.1-.4-.8c-.32.96-1.05,1.73-2,2.1-2.27.96-4.89-.1-5.85-2.37-.02-.04-.04-.09-.05-.13-1.14-2.21-.29-4.92,1.9-6.1.9-.48,1.97-.52,2.9-.1l-.4-.8,2.5-1.1h.1Zm-.6,5.2c-.44-1.08-1.68-1.6-2.76-1.16-.05.02-.09.04-.14.06-1.05.43-1.54,1.63-1.11,2.68.03.08.07.15.11.22.47,1.07,1.71,1.57,2.79,1.1.02-.01.05-.02.07-.03,1.04-.44,1.53-1.64,1.09-2.69-.03-.06-.06-.12-.09-.18h.04Z"/><path d="m306.39,283.9l.2,5.5h-2.74l-.2-5.2c0-.9-.5-1.5-1.3-1.4s-1.4.7-1.3,1.7l.2,5.1h-2.7l-.2-5.2c0-.9-.5-1.5-1.3-1.4s-1.4.7-1.3,1.7l.2,5.1h-2.7l-.3-8.9h2.7v.7c.57-.75,1.46-1.19,2.4-1.2.93-.06,1.84.35,2.4,1.1.62-.81,1.58-1.3,2.6-1.3,1.84-.1,3.41,1.31,3.51,3.14,0,.15,0,.3,0,.46l-.16.1Z"/><path d="m312.29,289.6c.61.25,1.29.25,1.9,0l1.6,1.9c-1.28.83-2.89.98-4.3.4-2.9-1.1-4-3.7-3-6.2.8-2.41,3.4-3.71,5.8-2.91.1.03.2.07.3.11,2.31.8,3.54,3.32,2.75,5.63-.04.13-.09.25-.15.37-.11.36-.27.7-.5,1l-6-2.2c.03.93.69,1.71,1.6,1.9Zm2.7-2.5c.09-.89-.45-1.72-1.3-2-.83-.42-1.85-.11-2.3.7l3.6,1.3Z"/><path d="m325.85,289.3l-1.7,2.5c-.77-.92-2.14-1.03-3.06-.26-.13.11-.24.23-.34.36l-2.3,3.3-2.2-1.5,5.1-7.4,2.2,1.5-.9,1.3c.95-.7,2.25-.7,3.2,0v.2Z"/><path d="m333.79,298.1l-6.9,5.8-1.7-2.1.6-.5c-1.02-.03-1.97-.5-2.6-1.3-1.5-2-1.15-4.83.8-6.4,1.83-1.71,4.68-1.62,6.4.2.7.76,1.02,1.78.9,2.8l.6-.5,1.7,2.1.2-.1Zm-5.2.9c.93-.72,1.11-2.05.39-2.99-.03-.04-.06-.08-.09-.11-.73-.91-2.06-1.05-2.97-.32-.05.04-.09.08-.13.12-.93.72-1.11,2.05-.39,2.99.03.04.06.08.09.11.73.91,2.06,1.05,2.97.32.05-.04.09-.08.13-.12h0Z"/><path class="cls-8" d="m328.79,326.3v.2c-.3,0-.2.3-.2.4.02.5-.02,1-.1,1.5-.46,3.4-1.54,6.69-3.2,9.7-1.45,2.61-3.27,5.01-5.4,7.1-2.28,2.2-4.92,3.99-7.8,5.3-2.42,1.11-4.97,1.89-7.6,2.3l-2.4.3h-3.8c-.66-.12-1.33-.19-2-.2-6.9-.93-13.23-4.34-17.8-9.6-3.72-4.31-6.06-9.64-6.7-15.3.03-.54-.04-1.08-.2-1.6v-3.6c.09-.15.13-.33.1-.5,0-.81.1-1.62.3-2.4.52-3.15,1.57-6.2,3.1-9,1.42-2.61,3.24-4.97,5.4-7,6.12-5.88,14.57-8.71,23-7.7,3.19.39,6.3,1.31,9.2,2.7,6.29,3.11,11.23,8.41,13.9,14.9.98,2.36,1.62,4.86,1.9,7.4.17,1.49.23,3,.2,4.5-.02.21.02.41.1.6h0Zm-23.8,22.9c1.12-.17,2.22-.44,3.3-.8,11.94-4.11,18.99-16.42,16.5-28.8-1.9-8.9-7.3-15.1-15.7-18.5-1.27-.56-2.62-.93-4-1.1-.23-.08-.46-.15-.7-.2-2.08-.32-4.2-.38-6.3-.2-3.92.22-7.71,1.46-11,3.6-8.9,5.8-12.9,14-11.8,24.6.69,6.91,4.39,13.16,10.1,17.1,4.69,3.4,10.41,5.1,16.2,4.8,1.15.03,2.3-.14,3.4-.5h0Z"/><path class="cls-5" d="m304.99,349.2c-1.11.31-2.25.48-3.4.5-5.8.39-11.55-1.31-16.2-4.8-5.8-4.3-9.4-10-10.1-17.1-1.2-10.6,2.9-18.8,11.8-24.6,3.29-2.14,7.08-3.38,11-3.6,2.1-.18,4.22-.12,6.3.2.25-.02.5.05.7.2.15.12.32.22.5.3,4.28,1.29,8.03,3.92,10.7,7.5,1.29,1.66,2.37,3.47,3.2,5.4,1.38,3.22,2.18,6.67,2.36,10.17.05,1.84-.05,3.68-.3,5.5-.39,2.82-1.23,5.55-2.5,8.1-1.36,2.79-3.22,5.29-5.5,7.4-1.88,1.7-4.05,3.05-6.4,4-.72.22-1.42.49-2.1.8l-.06.03Zm-23.14-24.6c.03,10.02,8.18,18.13,18.2,18.1,10.02-.03,18.13-8.18,18.1-18.2-.03-10.02-8.18-18.13-18.2-18.1-9.98.03-18.07,8.12-18.1,18.1v.1Z"/><path class="cls-16" d="m304.99,349.2c.68-.33,1.38-.59,2.1-.8,2.35-.96,4.51-2.31,6.4-4,2.28-2.11,4.14-4.61,5.5-7.4,1.27-2.55,2.11-5.28,2.5-8.1.3-1.82.4-3.66.3-5.5-.09-3.53-.91-7-2.4-10.2-.83-1.93-1.91-3.74-3.2-5.4-2.67-3.58-6.42-6.21-10.7-7.5-.2,0-.3-.1-.5-.3,1.38.17,2.73.54,4,1.1,8.4,3.4,13.8,9.6,15.7,18.5,2.55,12.39-4.52,24.74-16.5,28.8-1.06.42-2.17.69-3.3.8h.1Z"/><path class="cls-44" d="m281.85,324.7c0-10.05,8.15-18.2,18.2-18.2,10.05,0,18.2,8.15,18.2,18.2,0,10.05-8.15,18.2-18.2,18.2h0c-10.02.01-18.16-8.08-18.2-18.1h0v-.1Zm18.2-11.3h-8.2c-.86-.07-1.71.26-2.3.9-.2.2-.3.4-.5.6-2.83,3.04-4.18,7.17-3.7,11.3.35,3.58,2.03,6.89,4.7,9.3.29.3.68.48,1.1.5h17c.94.03,1.85-.33,2.5-1,.2-.2.3-.4.5-.5,2.96-3.32,4.25-7.81,3.5-12.2-.53-2.97-1.92-5.72-4-7.9-.55-.64-1.36-1.01-2.2-1h-8.4Z"/><path class="cls-13" d="m300.09,313.37h8.4c.84,0,1.65.36,2.2,1,2.12,2.16,3.52,4.92,4,7.9.78,4.39-.51,8.89-3.5,12.2-.11.21-.29.39-.5.5-.6.74-1.55,1.12-2.5,1h-17c-.42-.02-.81-.2-1.1-.5-2.65-2.42-4.32-5.73-4.7-9.3-.48-4.13.87-8.26,3.7-11.3.2-.17.36-.38.5-.6.58-.65,1.43-.99,2.3-.9h8.2Zm7.9,11.3c.03-4.34-3.46-7.87-7.8-7.9-.03,0-.07,0-.1,0-4.36-.06-7.94,3.44-8,7.8-.06,4.36,3.44,7.94,7.8,8,4.36.06,7.94-3.44,8-7.8,0-.03,0-.07,0-.1h.1,0Z"/><path class="cls-28" d="m307.99,324.7c-.05,4.3-3.5,7.79-7.8,7.9-4.23.13-7.77-3.2-7.9-7.43,0-.16,0-.31,0-.47,0-4.36,3.54-7.9,7.9-7.9s7.9,3.54,7.9,7.9h-.1Zm-7.9-4.4c-2.42.02-4.38,1.98-4.4,4.4h0c.02,2.42,1.98,4.38,4.4,4.4,2.41.02,4.38-1.93,4.4-4.34,0-.02,0-.04,0-.06,0-2.44-1.96-4.44-4.4-4.5h0v.1Z"/><path class="cls-59" d="m300.09,329.1c-2.38.05-4.35-1.84-4.4-4.22,0-.06,0-.12,0-.18.02-2.42,1.98-4.38,4.4-4.4h0c.4.2.5.7.6,1.1.5,2.21.5,4.49,0,6.7-.01.44-.24.85-.6,1.1v-.1Z"/><path class="cls-17" d="m300.09,329.1c.4-.2.5-.7.6-1.1.5-2.21.5-4.49,0-6.7-.01-.44-.24-.85-.6-1.1,2.46,0,4.45,2,4.44,4.46,0,2.45-1.99,4.44-4.44,4.44h0Z"/><circle class="cls-2" cx="277.15" cy="65.59" r="45"/><path class="cls-41" d="m284.45,53.09h5.9c.2.4.6.3.9.4,2.75,1,4.61,3.58,4.7,6.5v33.6c-.04,2.47-1.42,4.73-3.6,5.9-.72.31-1.45.58-2.2.8h-30c-3.43.02-6.38-2.43-7-5.8v-34.6c0-2.07,1-4.01,2.7-5.2,1.3-1.04,2.94-1.57,4.6-1.5h24.1l-.1-.1Zm-7.9,41.5h12.2c.5.02,1-.02,1.5-.1,2.56-.55,4.34-2.88,4.2-5.5v-24.7c.03-.51-.04-1.02-.2-1.5-.58-2.49-2.85-4.21-5.4-4.1h-24.6c-3.5,0-5.8,2.2-5.8,5.7v24.4c-.1,3.1,2.33,5.7,5.43,5.8.12,0,.24,0,.37,0,4.1-.1,8.1,0,12.2,0h.1Z"/><path class="cls-31" d="m290.15,100.29c.75-.22,1.48-.49,2.2-.8,2.17-1.18,3.54-3.43,3.6-5.9v-33.6c-.08-2.93-1.95-5.51-4.7-6.5-.3-.1-.7,0-.9-.4,1.78-.13,3.57.04,5.3.5,2.65.98,4.43,3.48,4.5,6.3v33.6c-.06,3.25-2.4,6.01-5.6,6.6-1.46.13-2.93.17-4.4.1v.1Z"/><path class="cls-22" d="m285.15,91.19h-3.2c-.8,0-1.3-.4-1.3-1.1s.5-1.1,1.3-1.1h6.5c.8,0,1.3.4,1.3,1.1s-.5,1.1-1.3,1.1h-3.3Z"/><path class="cls-9" d="m267.85,64.38h-3.2c-.8,0-1.2-.4-1.2-1s.5-1,1.2-1h6.6c.8,0,1.2.4,1.2,1.1s-.4,1-1.2,1h-3.4v-.1Z"/><path class="cls-26" d="m294.35,62.89c-.58-2.49-2.85-4.21-5.4-4.1h-24.6c-3.5,0-5.8,2.2-5.8,5.7v24.4c-.1,3.1,2.33,5.7,5.43,5.8.12,0,.24,0,.37,0,4.1-.1,8.1,0,12.2,0h12.2c.5.02,1-.02,1.5-.1,2.56-.55,4.34-2.88,4.2-5.5v-24.71c.03-.51-.04-1.02-.2-1.5h.1Zm-8.9,9.8h0c.42-.49.36-1.23-.14-1.65-.02-.02-.04-.03-.06-.05-1.38-1.27-3.02-2.23-4.8-2.8,1.78.57,3.42,1.53,4.8,2.8.6.6.7,1.2.2,1.7Zm-.3.2-10.1-5.2c-.44.02-.87.09-1.3.2-2.25.49-4.3,1.64-5.9,3.3h0c1.65-1.59,3.68-2.73,5.9-3.3.42-.12.86-.18,1.3-.2Zm-4.8,4.2c-.08,0-.15.04-.2.1.08,0,.15-.04.2-.1h0Zm-6.9-8.5c0-.6.5-1,1.2-1h6.6c.8,0,1.2.4,1.2,1.1s-.4,1-1.2,1h-6.6c-.8,0-1.2-.4-1.2-1v-.1Zm7,11.7h0c0,.08.04.15.1.2,0-.08-.04-.15-.1-.2h0Zm.8.7c-.19,0-.36-.07-.5-.2.14.13.31.2.5.2.42-.02.81-.2,1.1-.5,1.1-1,2.51-1.6,4-1.7,1.7-.07,3.35.55,4.6,1.7.6.6,1.3.6,1.7,0,.32-.43.27-1.02-.1-1.4.4.5.5.9.1,1.4s-1.1.6-1.7,0c-1.22-1.2-2.89-1.81-4.6-1.7-1.51-.01-2.96.6-4,1.7-.27.32-.68.5-1.1.5h0Zm1.7,3.2c.4.2.8,0,1.2-.3.67-.58,1.51-.93,2.4-1-.9.02-1.75.38-2.4,1-.31.33-.78.44-1.2.3h0Zm3.6,5.9h0c1.1,0,2-.89,2-2,0-.03,0-.07,0-.1,0-1.1-.9-2-2-2,1.1,0,2,.9,2,2,.06,1.1-.79,2.04-1.9,2.1-.03,0-.07,0-.1,0h0Zm3.2-5.8c.27,0,.52-.1.7-.3.38-.53.3-1.27-.2-1.7-.98-.91-2.27-1.41-3.6-1.4h0c1.33,0,2.62.49,3.6,1.4.51.32.67,1,.34,1.52-.04.07-.09.13-.14.18-.2.2-.5.4-.7.3h0Zm8.7,12.2h-6.5c-.8,0-1.3-.4-1.3-1.1.03-.65.59-1.14,1.23-1.11.02,0,.05,0,.07,0h6.5c.8,0,1.3.4,1.3,1.1-.03.65-.59,1.14-1.23,1.11-.02,0-.05,0-.07,0h0Z"/><path d="m236.05,64.59l.8-2.6,8.1.3-6.9-4.3.6-2h8.1c0,.1-7-3.9-7-3.9l.7-2.6,9.9,6.1-.8,2.8h-6.9l5.8,3.5-.8,2.8-11.6-.2v.1Z"/><path d="m249.95,42.38l6.4,4.8-1.4,1.9-.6-.5c.19.9-.07,1.83-.7,2.5-1.59,1.74-4.29,1.86-6.03.27-1.51-1.38-1.83-3.63-.77-5.37.46-.78,1.29-1.28,2.2-1.3l-.6-.5,1.4-1.9.1.1Zm1.7,4.3c-.81-.66-2.01-.54-2.67.27,0,.01-.02.02-.03.03-.65.78-.53,1.94.25,2.59.05.04.1.08.15.11.81.66,2.01.54,2.67-.27,0-.01.02-.02.03-.03.64-.79.52-1.95-.26-2.59-.04-.04-.09-.07-.14-.1h0Z"/><path d="m256.05,40.19l1.8,2.2c.4.5.9.2,1.7-.5l1.4,1.7c-2.2,2.2-3.5,2.1-4.9.3l-1.8-2.2-1,.8-1.5-1.8,1-.8-1-1.2,1.4-2.1,1.4,1.7,1.3-1,1.5,1.8-1.3,1v.1Z"/><path d="m259.25,39.79c-1.08-2.02-.31-4.53,1.7-5.6.06-.03.13-.07.2-.1,1.33-.69,2.94-.62,4.2.2l-1.3,2c-.53-.4-1.27-.4-1.8,0-.9.44-1.28,1.53-.83,2.44.01.02.02.04.03.06.48.91,1.6,1.26,2.51.78.56-.29.93-.85.99-1.48h2.4c-.03,1.54-.92,2.93-2.3,3.6-2.01,1.1-4.53.35-5.63-1.66-.02-.05-.05-.09-.07-.14l-.1-.1Z"/><path d="m274.85,33.38l1,4.8-2.4.5-.9-4.5c-.05-.7-.66-1.22-1.36-1.17-.12,0-.23.03-.34.07-.75.08-1.29.75-1.21,1.5.01.14.05.27.11.4l.9,4.3-2.4.5-2.3-11,2.4-.5.8,3.9c.39-.77,1.14-1.3,2-1.4,1.62-.34,3.21.7,3.55,2.32.02.09.03.19.05.28h.1Z"/><path d="m290.75,28.89l-2.3,11-2.3-.51.2-.7c-.72.53-1.63.71-2.5.5-2.23-.65-3.51-2.98-2.86-5.2.58-1.99,2.51-3.26,4.56-3,.87.14,1.64.65,2.1,1.4l.8-3.9,2.3.5v-.09Zm-3.8,6.5c.27-.98-.31-1.99-1.3-2.26-.07-.02-.14-.03-.2-.04-.99-.26-2.01.34-2.27,1.34-.01.05-.03.11-.03.16-.27.98.31,1.99,1.3,2.26.07.02.14.03.2.04.99.26,2.01-.34,2.26-1.34.01-.06.03-.11.04-.17h0Z"/><path d="m292.75,33.19l2.2,1-3.3,7.3-2.2-1,3.3-7.3Zm.7-2.1c.33-.72,1.18-1.03,1.9-.7.72.33,1.03,1.18.7,1.9-.33.72-1.18,1.03-1.9.7-.7-.35-1.01-1.18-.7-1.9h0Z"/><path d="m299.25,43.49c-1,1.5-2.8,1.3-4.2.3-1.24-.7-1.95-2.08-1.8-3.5l2.4.2c-.21.58.05,1.22.6,1.5.5.3.8.3,1,0,.5-.7-3-2.6-1.5-4.8,1-1.4,2.7-1.3,4.1-.4,1.09.68,1.71,1.92,1.6,3.2l-2.3-.2c0-.5,0-.9-.5-1.2-.23-.2-.57-.2-.8,0-.5.79,3.1,2.5,1.4,4.9Z"/><path d="m307.05,49.69c-1.58,1.55-4.11,1.52-5.66-.06-.01-.01-.03-.03-.04-.04-.61-.64-.91-1.52-.8-2.4l-3,2.6-1.6-1.8,8.5-7.3,1.6,1.8-.6.5c.91.04,1.75.48,2.3,1.2,1.38,1.76,1.08,4.3-.68,5.69,0,0-.01,0-.02.01v-.2Zm-1.6-1.8c.79-.56.98-1.66.41-2.45-.06-.09-.13-.17-.21-.25-.68-.8-1.88-.9-2.68-.22,0,0-.01.01-.02.02-.79.56-.98,1.66-.41,2.45.06.09.13.17.21.25.68.8,1.88.9,2.68.22,0,0,.01-.01.02-.02h0Z"/><path d="m314.45,47.49l1.2,2.1-10.2,5.6-1.2-2.1,10.2-5.6Z"/><path d="m316.05,61.79l-7.7,2.3-.7-2.3.7-.2c-.81-.39-1.39-1.13-1.6-2-.52-2.18.82-4.37,3-4.9,2.09-.72,4.37.38,5.09,2.47,0,.01,0,.02.01.03.32.87.21,1.83-.3,2.6l.7-.2.7,2.3.1-.1Zm-4.5-1.2c.96-.2,1.59-1.14,1.39-2.1-.02-.1-.05-.2-.09-.3-.24-.99-1.24-1.59-2.22-1.35-.06.01-.12.03-.18.05-.96.2-1.59,1.14-1.39,2.1.02.1.05.2.09.3.24.99,1.24,1.59,2.22,1.35.06-.01.12-.03.18-.05Z"/><path d="m316.55,72.69l-7.8-2.7c-2.5-.9-3.6-2.3-3.5-4.5h2.2c-.1.89.45,1.73,1.3,2l7.6-3.2v2.6l-4.9,1.8,4.9,1.5v2.6l.2-.1Z"/><circle class="cls-2" cx="50.83" cy="152.63" r="45"/><path class="cls-52" d="m63.13,137.16c.89.22,1.74.59,2.5,1.1,1.35,1.02,2.16,2.61,2.2,4.3v40.4c.1,2.51-1.5,4.76-3.9,5.5-.39.15-.79.25-1.2.3h-12.6v-3h11.9c.53.07,1.07-.07,1.5-.4.83-.5,1.29-1.44,1.2-2.4v-40.3c0-1.18-.84-2.18-2-2.4-.6-.05-1.2-.05-1.8,0-.5,0-.8.1-.9.6-.4,1.4-.9,2.8-1.4,4.2-.3.7-.7,1.2-1.4,1.2h-7.1v-9.1h13Z"/><path class="cls-40" d="m50.13,185.63v3h-12.5c-2.97-.14-5.28-2.63-5.2-5.6v-40.1c-.12-2.34,1.24-4.5,3.4-5.4.4-.2.9-.3,1.3-.5h13v9.13h-6.8c-.79.1-1.53-.42-1.7-1.2-.5-1.5-1-2.9-1.5-4.4,0-.3-.2-.4-.6-.4h-1.2c-1.42-.18-2.72.82-2.9,2.24-.03.22-.03.44,0,.66v39.8c-.16,1.39.84,2.64,2.23,2.8.19.02.38.02.57,0h11.9v-.03Z"/><path class="cls-46" d="m50.13,146.16h7.1c.7,0,1.1-.4,1.4-1.2.5-1.4,1-2.8,1.4-4.2.2-.5.4-.7.9-.6h1.8c1.13.25,1.96,1.24,2,2.4v40.3c.07.96-.39,1.88-1.2,2.4-.45.27-.97.41-1.5.4h-11.9v-39.5Zm9,8.8c-.01.34.05.69.2,1,.1.84.86,1.44,1.7,1.34.07,0,.13-.02.2-.04.81-.18,1.31-.99,1.13-1.8,0-.03-.02-.07-.03-.1-.3-1.6-.6-3.2-1-4.7-.17-.78-.93-1.28-1.72-1.12-.03,0-.05.01-.08.02l-4.6.9c-.86.16-1.46.93-1.4,1.8.18.86,1.02,1.41,1.88,1.23.04,0,.08-.02.12-.03.34-.03.68-.09,1-.2-.12.21-.25.41-.4.6-1.5,2.4-3.1,4.7-4.6,7.1-.3.4-.41.91-.3,1.4.15.57.62,1,1.2,1.1.63.14,1.28-.14,1.6-.7,1.2-1.9,2.5-3.8,3.7-5.6.5-.7.9-1.4,1.5-2.3h0l-.1.1Z"/><path class="cls-7" d="m50.13,146.23v39.4h-11.9c-1.39.16-2.64-.84-2.8-2.23-.02-.19-.02-.38,0-.57v-39.8c-.18-1.42.82-2.72,2.24-2.9.22-.03.44-.03.66,0h1.2c.27-.03.53.14.6.4.5,1.5,1,2.9,1.5,4.4.17.78.91,1.3,1.7,1.2h6.8v.1Zm-9,30.5c0-.34-.08-.68-.2-1-.19-.87-1.02-1.44-1.9-1.3-.78.17-1.28.93-1.12,1.72,0,.03.01.05.02.08.3,1.6.6,3.2,1,4.8.19.8,1,1.29,1.8,1.1h0c1.5-.3,3.1-.6,4.6-1,.27,0,.52-.1.7-.3.59-.4.8-1.16.5-1.8-.32-.68-1.06-1.06-1.8-.9-.3,0-.6.2-1,.2.6-1,1.3-1.9,1.9-2.9,1.1-1.6,2.2-3.3,3.2-4.9.4-.5.4-1.2,0-1.7-.3-.53-.9-.82-1.5-.7-.5.07-.95.36-1.2.8-1.6,2.4-3.1,4.8-4.7,7.2-.07.21-.22.38-.4.5l.1.1Z"/><path class="cls-52" d="m59.13,155.03c-.6.8-1,1.5-1.5,2.3-1.2,1.9-2.5,3.8-3.7,5.6-.32.56-.97.84-1.6.7-.58-.1-1.05-.53-1.2-1.1-.1-.49.01-.99.3-1.4,1.6-2.4,3.1-4.7,4.6-7.1.1-.22.23-.42.4-.6-.34,0-.68.08-1,.2-.84.25-1.73-.24-1.97-1.08-.01-.04-.02-.08-.03-.12-.14-.85.44-1.65,1.29-1.79.04,0,.07-.01.11-.01,1.5-.3,3-.6,4.6-.9.8-.19,1.61.3,1.8,1.1h0c.4,1.6.7,3.1,1,4.7.22.83-.27,1.68-1.1,1.9,0,0,0,0,0,0-.85.19-1.69-.35-1.88-1.2,0-.03-.01-.06-.02-.1-.03-.34-.09-.68-.2-1l.1-.1Z"/><path class="cls-27" d="m41.13,176.73c.18-.12.33-.29.4-.5,1.6-2.4,3.1-4.8,4.7-7.2.25-.44.7-.73,1.2-.8.58-.02,1.14.24,1.5.7.3.53.3,1.17,0,1.7-1.1,1.6-2.2,3.3-3.2,4.9-.6.9-1.2,1.9-1.9,2.9.34,0,.68-.08,1-.2.74-.16,1.48.22,1.8.9.25.64.04,1.38-.5,1.8-.2.2-.5.2-.7.3-1.5.3-3,.6-4.6,1-.8.19-1.61-.3-1.8-1.1h0c-.4-1.6-.7-3.2-1-4.8-.23-.74.18-1.52.92-1.76.06-.02.12-.03.18-.04.85-.19,1.69.35,1.88,1.2,0,.03.01.06.02.1.03.34.09.68.2,1l-.1-.1Z"/><path d="m19.93,145.43l-.8,3.8,1.5.9-.5,2.6-9.5-5.7.6-3,11-1.3-.5,2.6-1.7.2-.1-.1Zm-2.4.2l-4,.4,3.5,2,.5-2.4Z"/><path d="m16.83,131.03l9.2,5-1.1,2-.6-.3c.29.8.18,1.69-.3,2.4-1.08,1.76-3.38,2.31-5.14,1.24-.02-.01-.04-.02-.06-.04-1.82-.83-2.63-2.99-1.79-4.81.03-.06.06-.13.09-.19.34-.79,1.05-1.35,1.9-1.5l-3.2-1.8,1.1-2h-.1Zm4.8,5.2c-.85-.51-1.95-.23-2.45.62-.02.03-.03.05-.05.08-.48.8-.23,1.85.58,2.33.04.02.08.05.12.07.85.51,1.95.23,2.45-.62.02-.03.03-.05.05-.08.48-.8.23-1.85-.58-2.33-.04-.02-.08-.05-.12-.07h0Z"/><path d="m26.33,124.93l3.5,7.2-1.8,1.8-7.3-3.2,1.7-1.8,4.5,2.2-2.3-4.4,1.7-1.8Z"/><path d="m34.33,119.73l3.9,6.4-1.9,1.2-.4-.6c-.17.81-.68,1.5-1.4,1.9-1.8,1.02-4.08.39-5.1-1.41-.01-.02-.02-.04-.03-.06-1.17-1.65-.79-3.93.86-5.1.05-.03.09-.06.14-.1.71-.45,1.58-.6,2.4-.4l-.4-.6,1.93-1.23Zm0,4.4c-.4-.83-1.39-1.17-2.22-.77-.1.05-.2.11-.28.17-.83.42-1.16,1.44-.74,2.27.04.08.09.16.14.23.4.83,1.39,1.17,2.22.77.1-.05.2-.11.28-.17.83-.45,1.14-1.49.69-2.32-.03-.05-.06-.1-.09-.15v-.03Z"/><path d="m44.83,119.43l1.2,4.4-2.2.6-1.2-4.1c-.3-.9-.9-1.2-1.6-1s-1.2.8-.9,1.9l1.1,3.9-2.2.6-2-7.2,2.2-.6.2.7c.35-.74,1.01-1.29,1.8-1.5,1.46-.43,3,.41,3.43,1.87.03.11.06.22.07.33l.1.1Z"/><path d="m46.63,120.03c-.07-2.14,1.6-3.93,3.74-4,.05,0,.11,0,.16,0,1.4-.07,2.72.67,3.4,1.9l-1.9,1.2c-.52-.81-1.6-1.04-2.41-.52-.51.33-.81.91-.79,1.52,0,.93.75,1.69,1.68,1.7,0,0,.01,0,.02,0,.62.07,1.2-.31,1.4-.9l2,1.1c-.64,1.23-1.91,2-3.3,2-2.21.06-4.04-1.69-4.1-3.9,0,0,0,0,0,0l.1-.1Z"/><path d="m58.33,122.73c.51.11,1.04.03,1.5-.2l1.5,1.4c-.96.83-2.27,1.13-3.5.8-2.2-.23-3.79-2.2-3.56-4.4.23-2.2,2.2-3.79,4.4-3.56.26.03.51.08.76.16,2.04.48,3.31,2.52,2.83,4.57-.01.04-.02.09-.03.13-.05.31-.16.62-.3.9l-5.2-1.2c.1.8.7,1.2,1.5,1.4h.1Zm2-2.4c.04-.77-.54-1.43-1.3-1.5-.75-.27-1.57.08-1.9.8l3.1.7h.1Z"/><path d="m73.63,119.93l-5,9.2-2-1.1.3-.6c-.8.29-1.69.18-2.4-.3-1.77-1.1-2.34-3.4-1.3-5.2.88-1.88,3.11-2.68,4.99-1.81,0,0,0,0,.01,0,.79.34,1.35,1.05,1.5,1.9l1.8-3.3,2,1.1.1.1Zm-5.2,4.9c.51-.85.23-1.95-.62-2.45-.03-.02-.05-.03-.08-.05-.79-.47-1.82-.21-2.29.58-.04.07-.08.14-.11.22-.51.85-.23,1.95.62,2.45.03.02.05.03.08.05.8.46,1.82.18,2.28-.62.03-.06.06-.12.09-.18h.03Z"/><path d="m85.03,131.43l-8.2,6.6-1.4-1.8.5-.4c-.86-.03-1.64-.48-2.1-1.2-1.2-1.69-.85-4.04.8-5.3,1.55-1.38,3.92-1.24,5.3.3.53.64.79,1.47.7,2.3l2.9-2.3,1.4,1.8h.1Zm-6.7,2.5c.76-.48.99-1.48.51-2.23-.06-.1-.13-.19-.21-.27-.56-.74-1.61-.88-2.35-.32-.05.04-.1.08-.15.12-.76.48-.99,1.48-.51,2.23.06.1.13.19.21.27.55.74,1.6.89,2.34.34.06-.04.11-.09.16-.14h0Z"/><path d="m83.93,135.63l1,2-6.7,3.4-1-2,6.7-3.4Zm1.7-1.1c.66-.33,1.47-.06,1.8.6.33.66.06,1.47-.6,1.8-.67.28-1.44.02-1.8-.6-.29-.66-.03-1.44.6-1.8Z"/><path d="m82.83,147.03c-1.6.5-2.8-.7-3.3-2.2-.56-1.23-.28-2.67.7-3.6l1.7,1.5c-.51.31-.69.97-.4,1.5.2.5.4.7.7.6.8-.3-.8-3.6,1.7-4.4,1.34-.39,2.75.38,3.14,1.72.03.09.05.18.06.28.42,1.13.19,2.39-.6,3.3l-1.6-1.5c.35-.29.47-.78.3-1.2-.1-.4-.3-.6-.6-.5-.8.3.9,3.6-1.8,4.5h0Z"/><path d="m85.13,156.03c-2.06.21-3.92-1.25-4.2-3.3-.1-.85.2-1.69.8-2.3l-3.7.2v-2.2l10.3-.7v2.2h-.6c.65.55,1.05,1.35,1.1,2.2.05,2.05-1.57,3.75-3.62,3.8-.03,0-.05,0-.08,0v.1Zm-.1-2.2c.93.02,1.7-.72,1.71-1.65,0-.09,0-.17-.01-.25-.02-.96-.81-1.73-1.77-1.71-.04,0-.09,0-.13,0-.93-.02-1.7.72-1.71,1.65,0,.09,0,.17.01.25.02.96.81,1.73,1.77,1.71.04,0,.09,0,.13,0h0Z"/><path d="m91.93,158.53l-.3,2.2-10.8-1.5.3-2.2,10.9,1.5h-.1Z"/><path d="m85.23,170.23l-7.1-2.5.7-2.1.7.2c-.44-.73-.47-1.63-.1-2.4.77-1.93,2.97-2.87,4.9-2.1,1.96.55,3.1,2.58,2.55,4.54-.02.05-.03.11-.05.16-.25.8-.83,1.46-1.6,1.8l.7.2-.7,2.1v.1Zm-2.8-3.4c.83.39,1.81.03,2.19-.8.05-.1.08-.2.11-.3.36-.87-.05-1.87-.92-2.24-.06-.02-.12-.05-.18-.06-.83-.39-1.81-.03-2.19.8-.05.1-.08.2-.11.3-.37.87.04,1.87.91,2.24.05.02.11.04.16.06h.03Z"/><path d="m79.83,178.73l-4.5-6.2c-1.5-2-1.5-3.7-.2-5.3l1.7,1.2c-.6.65-.6,1.65,0,2.3l7.6,1.6-1.4,2-4.7-1.2,3,3.8-1.4,2-.1-.2Z"/><circle class="cls-2" cx="192.72" cy="350.86" r="45"/><path d="m164.82,339.06l-.7,2.5-6.3-1.7,3.8,4v.3l-5.4,1.6,6.3,1.7-.7,2.5-10.8-2.9.7-2.5,5.6-1.6-4-4.2.7-2.5,10.8,2.9v-.1Z"/><path d="m163.22,327.56l6.6,4.5-1.4,2-.6-.4c.2.7.1,1.6-.5,2.4-.9,1.3-2.6,1.8-4.4.6l-4-2.8,1.4-2,3.8,2.6c.8.6,1.6.3,2-.3.5-.7.4-1.5-.5-2.2l-3.6-2.5,1.4-2-.2.1Z"/><path d="m162.72,322.86l1.7-1.7,8.1,8.4-1.7,1.7-8.1-8.4Z"/><path d="m172.72,322.36l1.6,2.3c.4.6.9.3,1.7-.4l1.2,1.8c-2.4,2.1-3.7,1.8-5,0l-1.6-2.3-1,.7-1.3-1.9,1-.7-.9-1.2,1.6-2,1.3,1.8,1.4-.9,1.3,1.9-1.4.9h.1Z"/><path d="m173.52,316.66c-.3-.7,0-1.6.7-1.9s1.6,0,1.9.7c.3.7,0,1.6-.7,1.9s-1.6,0-1.9-.7Zm1.2,1.8l2.2-1.1,3.5,7.2-2.2,1.1-3.5-7.2Z"/><path d="m179.92,318.26l5.9-1.6.6,2.2-5.9,1.6-.6-2.2Z"/><path d="m188.02,318.16c0-2.4,1.7-4.3,4.1-4.3,1.6,0,2.9.7,3.7,2l-2.1,1.3c-.3-.6-.9-.9-1.6-.9-1,0-1.8.8-1.8,1.9s.8,1.8,1.9,1.8c.7,0,1.3-.4,1.5-.9l2.1,1.1c-.7,1.3-2,2.1-3.6,2.2-2.4,0-4.3-1.7-4.3-4.1l.1-.1Z"/><path d="m206.02,316.16l-1.9,7.8-2.3-.6.2-.7c-.7.5-1.5.6-2.5.4-2-.5-3.3-2.7-2.7-5,.6-2.3,2.7-3.7,4.7-3.2,1,.3,1.7.8,2.1,1.5l.2-.7,2.3.6-.1-.1Zm-3.3,3.3c.3-1.2-.3-2.1-1.4-2.4-1.1-.3-2,.3-2.3,1.4-.3,1.2.3,2.1,1.4,2.4s2-.3,2.3-1.4Z"/><path d="m217.62,326.76l-2.8,4-2-1.4,2.7-3.9c.5-.7.4-1.3-.2-1.7-.7-.5-1.3-.2-1.9.5l-2.6,3.7-2-1.4,2.7-3.9c.5-.7.4-1.3-.2-1.7-.7-.5-1.3-.2-1.9.5l-2.6,3.7-2-1.4,4.5-6.6,2,1.4-.4.6c.6-.2,1.4-.2,2.3.4.8.5,1.1,1.3,1.1,2.1.7-.3,1.6-.2,2.5.4,1.5,1,1.8,2.8.6,4.5l.2.2Z"/><path d="m219.02,333.76c.4.5.9.8,1.4.9l.2,2.2c-1.3,0-2.5-.6-3.4-1.9-1.6-2.2-1.1-4.7.8-6.1s4.4-1.1,5.9,1c1.4,1.9.9,4.4-1.1,5.8-.3.2-.6.4-.8.5l-3.3-4.6c-.5.7-.3,1.5.2,2.2h.1Zm3.2-.5c.6-.7.5-1.5,0-2.1-.5-.7-1.3-1-2-.7l2,2.8Z"/><path d="m229.32,340.06l-2.5,1c-.2-1-1.1-2.1-2.6-1.5l-3.3,1.4-.9-2.2,7.4-3.1.9,2.2-1.3.5c1.1-.1,2,.7,2.4,1.6l-.1.1Z"/><path d="m231.22,350.26l-7.9,1.3-.4-2.4h.7c-.7-.5-1.2-1.3-1.3-2.3-.3-2.1,1.2-4.1,3.6-4.4,2.4-.4,4.4,1,4.8,3.1.2,1.1,0,1.9-.6,2.5h.7c0-.1.4,2.2.4,2.2Zm-4.3-1.7c1.2-.2,1.8-1.1,1.6-2.2-.2-1.1-1-1.8-2.2-1.6s-1.8,1.1-1.6,2.2c.2,1.1,1,1.8,2.2,1.6Z"/><path class="cls-20" d="m216.32,362.36v19.3c.2,2.1-1.4,3.9-3.4,4.1h-39.4c-2.3.2-4.2-1.5-4.4-3.8v-38.7c0-3,1.7-4.6,4.7-4.6h38c2.3-.2,4.2,1.5,4.4,3.7v20h.1Zm-25.5,9.8c0-4.3-3.5-7.8-7.8-7.8s-7.8,3.5-7.8,7.8,3.5,7.8,7.8,7.8h0c4.3,0,7.8-3.5,7.8-7.8Zm0-19.7c0-4.3-3.5-7.8-7.8-7.8s-7.8,3.5-7.8,7.8,3.5,7.8,7.8,7.8,7.8-3.3,7.9-7.6v-.2h-.1Zm11.7,7.8c4.3,0,7.9-3.5,7.9-7.8s-3.5-7.9-7.8-7.9-7.9,3.5-7.9,7.8h0c0,4.3,3.5,7.9,7.8,7.9h0Zm6,11.8v-3.7c.1-1.1-.6-2-1.7-2.2h-8c-1-.1-1.9.6-2.1,1.6v8c0,1.1.7,2,1.7,2.1h7.9c1.1,0,2-.7,2.1-1.8v-4.1l.1.1Z"/><path class="cls-45" d="m190.82,372.16c0,4.3-3.6,7.8-7.9,7.7-4.3,0-7.8-3.6-7.7-7.9,0-4.3,3.5-7.7,7.8-7.7s7.9,3.6,7.8,7.9h0Zm-11.7-1.1v.9c0,1.7,1.1,3.3,2.7,3.9,2.1.7,4.3-.5,5-2.6.4-1.2.2-2.5-.6-3.5-.9-1.2-2.4-1.8-3.9-1.5-2.4,0-3.2.6-3.2,2.7h0v.1Z"/><path class="cls-45" d="m190.82,352.46c0,4.3-3.5,7.8-7.8,7.8s-7.8-3.5-7.8-7.8,3.5-7.8,7.8-7.8h0c4.3,0,7.8,3.5,7.8,7.8h0Zm-11.5-.7c-.4,1.5.1,3.1,1.3,4,1.4,1,3.2,1,4.6,0,1.2-.8,1.9-2.3,1.6-3.8-.2-2-2.1-3.5-4.1-3.2h-.5c-1.2-.4-2.6.2-3,1.4-.2.5-.2,1.1,0,1.6h.1Z"/><path class="cls-45" d="m202.62,360.36c-4.3,0-7.8-3.6-7.8-7.9s3.6-7.8,7.9-7.8,7.8,3.6,7.8,7.9-3.6,7.8-7.9,7.8Zm-3.7-8.6c-.6,1,0,1.9.4,2.7.8,1.5,2.5,2.2,4.1,1.9,1.5-.3,2.7-1.5,3.1-3,.4-1.7-.4-3.5-2-4.3-.9-.4-1.9-.6-2.9-.5-2,0-3.3,1.3-2.7,3.2Z"/><path class="cls-10" d="m208.52,372.16v3.8c0,1.1-.7,2-1.8,2.1h-7.9c-1.1.1-2-.7-2.1-1.7v-8c-.1-1,.6-1.9,1.6-2.1h8c1.1,0,2,.7,2.1,1.7v4.1l.1.1Zm-6.9-1h3.7c.7,0,1.2-.3,1.2-1.1s-.6-.8-1.2-.8h-2.9c-.1-.6-.6-1-1.2-1.1-1,0-1.9.6-2.2,1.5-.4.6-.3,1.3.2,1.8.8.7,1.6.3,2.3-.2,0,0,0-.1.1-.2h0v.1Zm1,4h2.9c.5,0,1-.4,1-.9v-.1c0-.7-.4-.8-1-.8h-5.7c-.5,0-.9.3-1,.7v.2c0,.5.4.9.9.9h3-.1Z"/><path class="cls-66" d="m182.32,368.36c1.5-.4,3,.2,3.9,1.4,1.3,1.8.9,4.2-.9,5.5-1,.7-2.3.9-3.5.5-1.6-.6-2.7-2.1-2.7-3.9v-.9c.5.6,1.3.9,2,.7.1,1.9,1.2,2.8,2.6,2.2,1-.4,1.5-1.5,1.1-2.5-.3-1-1.3-1.6-2.3-1.3.2-.6.1-1.3-.2-1.8v.1Z"/><path class="cls-53" d="m182.32,368.36c.4.5.5,1.2.3,1.8-.3.7-.9,1.1-1.4,1.6-.7.2-1.5,0-2-.7,0-2.1.7-2.8,3.2-2.7h-.1Z"/><path class="cls-66" d="m182.32,348.76c2-.5,4,.7,4.5,2.6v.5c.2,1.5-.4,3-1.6,3.8-1.4,1-3.2,1-4.6,0-1.2-.9-1.8-2.4-1.3-3.9.5.4,1.2.5,1.9.2,0,1.7,1.2,2.8,2.5,2.3.9-.2,1.5-1.1,1.3-2-.1-1.2-1-1.7-2.4-1.7.3-.6.2-1.4-.2-1.9l-.1.1Z"/><path class="cls-53" d="m181.12,352.06c-.6.3-1.3.2-1.9-.2-.4-1.2.2-2.6,1.4-3,.5-.2,1.1-.2,1.6,0,.4.5.5,1.2.2,1.8-.4.6-.8,1-1.4,1.4h.1Z"/><path class="cls-66" d="m201.62,348.56c1-.1,2,0,2.9.5,1.6.8,2.4,2.6,2,4.3-.4,1.5-1.6,2.6-3.1,2.9-1.6.3-3.3-.5-4.1-1.9-.4-.8-1-1.7-.4-2.7.5.3,1.2.5,1.8.4,0,1,.3,1.9,1.4,2.1.9.3,2-.1,2.3-1,.6-1.4-.3-2.5-2.2-2.7.2-.7,0-1.5-.6-2v.1Z"/><path class="cls-53" d="m201.62,348.56c.6.5.9,1.3.7,2-.4.6-1,1.2-1.6,1.6-.6,0-1.2-.1-1.8-.4-.6-1.9.7-3.2,2.7-3.2Z"/><path class="cls-48" d="m202.62,375.06h-2.9c-.5,0-.9-.3-1-.8v-.1c0-.5.3-.9.8-1h5.9c.6,0,1,.1,1,.8,0,.5-.3,1-.9,1h-3l.1.1Z"/><path class="cls-14" d="m201.62,371.16s-.1,0-.2.1c-.7.5-1.5.9-2.3.2-.5-.4-.6-1.2-.2-1.8.4-.9,1.3-1.5,2.2-1.5.6,0,1.1.5,1.2,1.1,0,.7-.2,1.3-.6,1.8l-.1.1Z"/><path class="cls-48" d="m201.62,371.16c.4-.5.7-1.2.7-1.8h3c.6,0,1.2,0,1.2.8s-.4,1.1-1.2,1.1h-3.7v-.1Z"/><path class="cls-45" d="m181.12,371.76c.5-.5,1.2-.8,1.4-1.6,1-.2,2,.3,2.3,1.3.4,1-.1,2.1-1.1,2.5-1.4.5-2.5-.4-2.6-2.2Z"/><path class="cls-45" d="m181.12,352.06c.6-.4,1-.8,1.4-1.4,1.4,0,2.3.6,2.4,1.7.1.9-.4,1.8-1.3,2-1.3.5-2.5-.6-2.5-2.3Z"/><path class="cls-45" d="m200.72,352.26c.6-.5,1.2-1,1.6-1.6,1.9.1,2.8,1.2,2.2,2.7-.4.9-1.4,1.3-2.3,1-1.1-.2-1.4-1.1-1.4-2.1h-.1Z"/><line class="cls-4" x1="195.17" y1="251.5" x2="195.17" y2="293.5"/><line class="cls-3" x1="195.17" y1="251.5" x2="195.17" y2="282.74"/><polygon class="cls-62" points="187.69 280.55 195.17 293.5 202.65 280.55 187.69 280.55"/><line class="cls-4" x1="152.66" y1="230.15" x2="118.97" y2="255.23"/><line class="cls-3" x1="152.66" y1="230.15" x2="127.6" y2="248.8"/><polygon class="cls-62" points="124.89 241.5 118.97 255.23 133.82 253.49 124.89 241.5"/><line class="cls-4" x1="144.4" y1="183.3" x2="104.16" y2="171.25"/><line class="cls-3" x1="144.4" y1="183.3" x2="114.47" y2="174.34"/><polygon class="cls-62" points="118.71 167.8 104.16 171.25 114.42 182.13 118.71 167.8"/><line class="cls-4" x1="177.04" y1="148.7" x2="162.68" y2="109.23"/><line class="cls-3" x1="177.04" y1="148.7" x2="166.36" y2="119.34"/><polygon class="cls-62" points="174.14 118.84 162.68 109.23 160.08 123.96 174.14 118.84"/><line class="cls-4" x1="224.29" y1="154.22" x2="247.37" y2="119.13"/><line class="cls-3" x1="224.29" y1="154.22" x2="241.46" y2="128.12"/><polygon class="cls-62" points="246.5 134.06 247.37 119.13 234.01 125.84 246.5 134.06"/><line class="cls-4" x1="248.08" y1="195.42" x2="290.01" y2="192.98"/><line class="cls-3" x1="248.08" y1="195.42" x2="279.26" y2="193.6"/><polygon class="cls-62" points="277.51 201.2 290.01 192.98 276.64 186.26 277.51 201.2"/><line class="cls-4" x1="229.24" y1="239.1" x2="256.24" y2="271.27"/><line class="cls-3" x1="229.24" y1="239.1" x2="249.32" y2="263.03"/><polygon class="cls-62" points="242.18 266.16 256.23 271.27 253.64 256.54 242.18 266.16"/></svg>