<?xml version="1.0" encoding="UTF-8"?><svg id="Layer_1" xmlns="http://www.w3.org/2000/svg" viewBox="0 0 400 400"><defs><style>.cls-1{fill:#009245;}.cls-2{stroke:#a5262d;}.cls-2,.cls-3,.cls-4{stroke-width:4px;}.cls-2,.cls-3,.cls-4,.cls-5{fill:none;stroke-miterlimit:10;}.cls-3{stroke:#000;}.cls-6{fill:#fff;}.cls-7{fill:#57575e;}.cls-8{fill:#72b3e2;}.cls-4{stroke:#0018c6;}.cls-9{fill:#d9d9ea;}.cls-10{fill:#48459c;}.cls-11{fill:#546e7a;}.cls-12{fill:#434348;}.cls-13{fill:#f15a24;}.cls-14{fill:#3392f5;}.cls-15{fill:#ffed58;}.cls-5{stroke:#231f20;stroke-width:2px;}.cls-16{fill:gray;}.cls-17{fill:#36464e;}.cls-18{fill:#424248;}.cls-19{fill:#72b2e2;}.cls-20{fill:#788f9b;}.cls-21{fill:#484645;}.cls-22{fill:#3392f6;}.cls-23{fill:#fbd734;}.cls-24{fill:#60acfd;}.cls-25{fill:#231f20;}</style></defs><circle class="cls-2" cx="205.34" cy="200.82" r="45"/><path d="m176.04,185.62c-2.9-2.7-3.1-6.8-.3-9.8,1.6-1.8,4-2.5,6.1-2.1l-.7,3c-1.2-.3-2.4.2-3.3,1.1-1.6,1.7-1.5,3.9.2,5.5,1.7,1.6,3.9,1.6,5.5-.1.9-1,1.3-2.2.9-3.4l2.9-.9c.6,2.1,0,4.5-1.6,6.3-2.7,2.9-6.9,3-9.8.3l.1.1Z"/><path d="m187.54,176.92c-1.2-2.5-.2-5.5,2.3-6.7,2.5-1.2,5.5-.2,6.7,2.3s.2,5.5-2.3,6.7-5.5.2-6.7-2.3Zm6.5-3.1c-.6-1.2-1.8-1.6-2.9-1.1-1.1.5-1.6,1.8-1,3s1.8,1.6,2.9,1.1c1.1-.5,1.6-1.8,1-3Z"/><path d="m208.84,170.82c.3,2.8-1.5,5.2-4,5.5-1.3.1-2.2-.2-2.9-.8l.5,4.7-2.8.3-1.5-13.2,2.8-.3v.9c.6-.8,1.5-1.3,2.8-1.5,2.5-.3,4.8,1.7,5.1,4.5v-.1Zm-2.8.3c-.2-1.4-1.2-2.2-2.5-2.1s-2.1,1.1-2,2.6c.2,1.4,1.2,2.2,2.5,2.1s2.1-1.1,2-2.6Z"/><path d="m221.04,173.52c-.7,2.7-3.2,4.4-5.6,3.8-1.2-.3-2-1-2.5-1.8l-1.1,4.6-2.8-.7,3.2-12.9,2.8.7-.2.9c.8-.5,1.8-.7,3-.4,2.4.6,3.9,3.2,3.2,6v-.2Zm-2.8-.7c.3-1.4-.4-2.5-1.6-2.8-1.3-.3-2.4.3-2.8,1.7-.3,1.4.4,2.5,1.6,2.8,1.3.3,2.4-.3,2.8-1.7Z"/><path d="m225.64,179.22c.7.4,1.4.5,1.9.4l1.2,2.4c-1.5.6-3,.3-4.5-.7-2.7-1.8-3.2-4.7-1.6-7.1,1.6-2.4,4.5-3.1,7-1.4,2.3,1.5,2.8,4.5,1.3,6.8-.2.3-.5.6-.7.9l-5.6-3.7c-.2,1,.3,1.8,1.2,2.4h-.2Zm3.4-1.9c.4-1.1-.1-1.9-.9-2.4-.9-.6-1.8-.6-2.6.1l3.4,2.3h.1Z"/><path d="m239.64,182.42l-2.4,2.1c-.6-1-2.1-2-3.5-.7l-3.2,2.8-1.9-2.1,7.2-6.2,1.9,2.1-1.3,1.1c1.2-.5,2.5,0,3.3.9h-.1Z"/><rect class="cls-13" x="179.43" y="194.49" width="52" height="37" rx="2.9" ry="2.9"/><path class="cls-21" d="m196.64,223.62c-3.6,0-6.5-1.2-8.8-3.5-2.3-2.4-3.5-5.3-3.5-8.8s1.2-6.4,3.5-8.8c2.3-2.4,5.3-3.5,8.8-3.5s4.1.5,5.9,1.5c1.8,1,3.3,2.4,4.3,4.1l-5.2,3c-.5-.8-1.1-1.5-2-2s-1.9-.7-3-.7c-1.9,0-3.4.6-4.6,1.8-1.2,1.2-1.7,2.7-1.7,4.6s.6,3.5,1.7,4.6c1.1,1.1,2.7,1.8,4.6,1.8s2.1-.2,3-.7,1.6-1.2,2-2l5.2,3c-1,1.7-2.5,3.1-4.3,4.1s-3.8,1.5-6,1.5h.1Z"/><path class="cls-21" d="m219.94,206.22h5.6v16.9h-5.6v-1.7c-1,1.4-2.6,2.2-4.7,2.2s-3.3-.6-4.5-1.9c-1.2-1.2-1.7-3-1.7-5.4v-10.1h5.6v9.4c0,.9.2,1.5.7,2s1.1.7,1.8.7,1.6-.3,2-.8c.5-.5.7-1.3.7-2.3v-9h.1Z"/><path class="cls-19" d="m349.22,222.02c2.57-.12,5.08.8,6.96,2.56.45.34.56.97.24,1.44-.32.4-.88.4-1.44,0-1.45-1.42-3.42-2.17-5.44-2.08-1.69.04-3.31.7-4.56,1.84-.14.16-.3.29-.48.4-.39.31-.96.24-1.27-.15,0,0,0,0-.01-.01-.28-.35-.28-.85,0-1.2.49-.51,1.06-.95,1.68-1.28,1.32-.86,2.83-1.35,4.4-1.44l-.08-.08Z"/><path class="cls-8" d="m349.62,225.38c1.75-.01,3.44.65,4.72,1.84.56.48.64,1.04.24,1.44-.39.4-1.03.4-1.43.01,0,0,0,0-.01-.01-1.89-1.76-4.83-1.76-6.72,0-.56.48-1.04.48-1.44.08s-.32-.96.16-1.44c1.23-1.12,2.82-1.78,4.48-1.84v-.08Z"/><path class="cls-8" d="m349.7,228.74c1.06,0,2.09.41,2.88,1.12.38.31.49.85.24,1.28h0c-.3.4-.87.47-1.27.17,0,0,0,0-.01-.01h0c-.92-.86-2.36-.86-3.28,0-.27.35-.77.43-1.12.16-.06-.05-.11-.1-.16-.16l-.08-.08c-.31-.42-.23-1.01.19-1.32.02-.01.04-.03.05-.04h0c.76-.71,1.76-1.11,2.8-1.12h-.24Z"/><path class="cls-1" d="m366.18,248.74c-1.2-4.24,2.64-13.2-3.92-13.76h-24.8c-6.96.16-3.12,9.44-4.32,13.76v5.36c1.2,4.24-2.56,12.88,3.68,13.76h25.6c6.32-.8,2.56-9.6,3.76-13.76v-5.36Z"/><circle class="cls-4" cx="349.7" cy="238.82" r="36"/><path d="m330.74,224.74l-.96,1.76-4.56-2.56,2.16,3.84v.24l-4.56.16,4.56,2.56-.96,1.76-7.84-4.4.96-1.76,4.64-.16-2.32-4.08.96-1.76,7.84,4.4h.08Z"/><path d="m328.98,222.18c-1.24-1.37-1.14-3.48.23-4.72.03-.03.06-.05.09-.08,1.42-1.23,3.56-1.09,4.8.32,1.24,1.37,1.14,3.48-.23,4.72-.03.03-.06.05-.09.08-1.42,1.23-3.56,1.09-4.8-.32Zm3.68-3.2c-.55-.58-1.47-.6-2.05-.04-.58.55-.6,1.47-.04,2.05.54.56,1.43.6,2.01.08.59-.47.69-1.33.23-1.92-.04-.06-.09-.11-.15-.16Z"/><path d="m338.9,208.98l3.68,8.16-1.76.8-.24-.56c-.22.7-.75,1.26-1.44,1.52-1.58.68-3.4-.05-4.08-1.63-.03-.07-.06-.14-.08-.21-.83-1.53-.26-3.44,1.27-4.27.03-.02.06-.03.09-.05.65-.3,1.4-.33,2.08-.08l-1.28-2.88,1.76-.8Zm.64,6c-.39-.73-1.3-1.01-2.03-.62-.73.39-1.01,1.3-.62,2.03.37.7,1.22.99,1.94.67.76-.33,1.1-1.21.77-1.97-.02-.04-.03-.07-.05-.11Z"/><path d="m346.42,214.98c.46.01.9-.23,1.12-.64l1.68.64c-.5.98-1.48,1.63-2.58,1.7-1.81.38-3.58-.79-3.95-2.59-.02-.09-.04-.19-.05-.29-.31-1.8.9-3.51,2.7-3.81.06-.01.12-.02.18-.03,1.75-.27,3.38.92,3.65,2.67.01.07.02.14.03.21v.8l-4.48.64c.32.6,1.04.87,1.68.64l.02.06Zm.88-2.48c-.23-.61-.88-.95-1.52-.8-.65.07-1.17.56-1.28,1.2l2.72-.4h.08Z"/><path d="m360.24,213.94l-.8,3.84-1.84-.4.8-3.68c.16-.64-.08-1.12-.72-1.2s-1.04.24-1.2.96l-.72,3.52-1.84-.4.8-3.68c.16-.64-.08-1.12-.72-1.2s-1.04.24-1.2.96l-.72,3.52-1.84-.4,1.36-6.24,1.84.4-.16.56c.5-.45,1.2-.6,1.84-.4.66.11,1.21.57,1.44,1.2.55-.46,1.29-.64,2-.48,1.44.32,2.16,1.52,1.84,3.12h-.16Z"/><path d="m362.42,214.34l4.16,2.48-.96,1.6-4.16-2.48.96-1.6Z"/><path d="m371.14,223.7c-1.14,1.16-3.01,1.17-4.16.02-.08-.08-.16-.17-.24-.26-.99-.9-1.35-2.31-.9-3.58l2,.56c-.3.54-.17,1.22.32,1.6.36.48,1.04.58,1.52.22.03-.02.05-.04.08-.06.4-.4.48-.96-.16-1.6l-.32-.32.24-1.36,2.64-.32-2.32-2.32,1.36-1.36,4.08,4.08-1.2,1.2-2.48.32c.56,1.02.4,2.28-.4,3.12l-.06.06Z"/><path d="m377.3,232.02c-2.03,1.13-4.6.41-5.74-1.63-.07-.12-.13-.25-.18-.37-1.17-2.28-.28-5.07,2-6.24,2.28-1.17,5.07-.28,6.24,2h0c.74,1.38.71,3.05-.08,4.4l-1.68-1.12c.4-.75.4-1.65,0-2.4-.62-1.31-2.19-1.87-3.51-1.25-.03.01-.06.03-.09.05-1.29.58-1.86,2.1-1.28,3.39.05.1.1.2.16.29.37.9,1.26,1.48,2.24,1.44l-1.04-2.16,1.6-.8,2,4-.72.32.08.08Z"/><path d="m343.54,249.38c.94.29,1.77.85,2.4,1.6.61.77.92,1.74.88,2.72.07,1.5-.55,2.94-1.68,3.92-1.16.91-2.6,1.39-4.08,1.36-1.21.06-2.41-.25-3.44-.88-1.04-.56-1.82-1.51-2.16-2.64l3.52-2c.2,1.01,1.14,1.7,2.16,1.6,1.12,0,1.04-.16,1.28-.4.57-.49.64-1.35.15-1.93-.05-.05-.1-.1-.15-.15-.37-.27-.82-.42-1.28-.4h-.9l-1.52-2.24,2.48-3.04h-5.28v-3.82h10.16v3.12l-2.64,3.2.1-.02Z"/><path d="m364.24,249.7v1.6c.2,4.09-2.95,7.56-7.04,7.76-.24.01-.48.01-.72,0-2.23.05-4.39-.78-6-2.32-1.54-1.52-2.38-3.6-2.32-5.76-.02-2.18.81-4.27,2.32-5.84,1.53-1.58,3.64-2.45,5.84-2.4,1.4-.13,2.81.21,4,.96,1.17.62,2.17,1.53,2.88,2.64l-3.36,1.92c-.36-.5-.82-.91-1.36-1.2-.64-.33-1.36-.49-2.08-.48-1.13-.03-2.23.4-3.04,1.2-.81.83-1.25,1.96-1.2,3.12-.05,1.14.39,2.24,1.2,3.04.88.85,2.06,1.31,3.28,1.28,1.36,0,3.04-.72,3.6-2.08h-3.76v-3.44h7.76Z"/><path class="cls-19" d="m303.03,310.09c2.57-.12,5.08.8,6.96,2.56.45.34.56.97.24,1.44-.32.4-.88.4-1.44,0-1.45-1.42-3.42-2.17-5.44-2.08-1.69.04-3.31.7-4.56,1.84-.14.16-.3.29-.48.4-.39.31-.96.24-1.27-.15,0,0,0,0-.01-.01-.28-.35-.28-.85,0-1.2.49-.51,1.06-.95,1.68-1.28,1.32-.86,2.83-1.35,4.4-1.44l-.08-.08Z"/><path class="cls-8" d="m303.43,313.45c1.75-.01,3.44.65,4.72,1.84.56.48.64,1.04.24,1.44-.39.4-1.03.4-1.43.01,0,0,0,0-.01-.01-1.89-1.76-4.83-1.76-6.72,0-.56.48-1.04.48-1.44.08s-.32-.96.16-1.44c1.23-1.12,2.82-1.78,4.48-1.84v-.08Z"/><path class="cls-8" d="m303.51,316.81c1.06,0,2.09.41,2.88,1.12.38.31.49.85.24,1.28h0c-.3.4-.87.47-1.27.17,0,0,0,0-.01-.01h0c-.92-.86-2.36-.86-3.28,0-.27.35-.77.43-1.12.16-.06-.05-.11-.1-.16-.16l-.08-.08c-.31-.42-.23-1.01.19-1.32.02-.01.04-.03.05-.04h0c.76-.71,1.76-1.11,2.8-1.12h-.24Z"/><path class="cls-16" d="m319.99,336.81c-1.2-4.24,2.64-13.2-3.92-13.76h-24.8c-6.96.16-3.12,9.44-4.32,13.76v5.36c1.2,4.24-2.56,12.88,3.68,13.76h25.6c6.32-.8,2.56-9.6,3.76-13.76v-5.36Z"/><circle class="cls-4" cx="303.51" cy="326.89" r="36"/><path d="m284.55,312.81l-.96,1.76-4.56-2.56,2.16,3.84v.24l-4.56.16,4.56,2.56-.96,1.76-7.84-4.4.96-1.76,4.64-.16-2.32-4.08.96-1.76,7.84,4.4h.08Z"/><path d="m282.79,310.25c-1.24-1.37-1.14-3.48.23-4.72.03-.03.06-.05.09-.08,1.42-1.23,3.56-1.09,4.8.32,1.24,1.41,1.09,3.56-.32,4.8s-3.56,1.09-4.8-.32Zm3.68-3.2c-.55-.58-1.47-.6-2.05-.04-.58.55-.6,1.47-.04,2.05.54.56,1.43.6,2.01.08.59-.47.69-1.33.23-1.92-.04-.06-.09-.11-.15-.16h0Z"/><path d="m292.71,297.05l3.68,8.16-1.76.8-.24-.56c-.22.7-.75,1.26-1.44,1.52-1.58.68-3.4-.05-4.08-1.63-.03-.07-.06-.14-.08-.21-.83-1.53-.26-3.44,1.27-4.27.03-.02.06-.03.09-.05.65-.3,1.4-.33,2.08-.08l-1.28-2.88,1.76-.8Zm.64,6c-.39-.73-1.3-1.01-2.03-.62-.73.39-1.01,1.3-.62,2.03.37.7,1.22.99,1.94.67.76-.33,1.1-1.21.77-1.97-.02-.04-.03-.07-.05-.11Z"/><path d="m300.23,303.05c.46.01.9-.23,1.12-.64l1.68.64c-.5.97-1.47,1.6-2.56,1.68-1.81.38-3.58-.79-3.95-2.59-.02-.09-.04-.19-.05-.29-.31-1.8.9-3.51,2.7-3.81.06-.01.12-.02.18-.03,1.75-.27,3.38.92,3.65,2.67.01.07.02.14.03.21v.8l-4.48.64c.32.6,1.04.87,1.68.64v.08Zm.88-2.48c-.23-.61-.88-.95-1.52-.8-.65.07-1.17.56-1.28,1.2l2.72-.4h.08Z"/><path d="m314.07,302.01l-.8,3.84-1.84-.4.8-3.68c.16-.64-.08-1.12-.72-1.2s-1.04.24-1.2.96l-.72,3.52-1.84-.4.8-3.68c.16-.64-.08-1.12-.72-1.2s-1.04.24-1.2.96l-.72,3.52-1.84-.4,1.36-6.24,1.84.4-.16.56c.5-.45,1.2-.6,1.84-.4.66.11,1.21.57,1.44,1.2.55-.46,1.29-.64,2-.48,1.44.32,2.16,1.52,1.84,3.12h-.16Z"/><path d="m316.23,302.41l4.16,2.48-.96,1.6-4.16-2.48.96-1.6Z"/><path d="m319.51,308.17h4.32c.63.01,1.25-.19,1.76-.56.38-.34.4-.92.06-1.3-.02-.02-.04-.04-.06-.06-.42-.43-1.07-.53-1.6-.24l-.48-1.92c1.21-.52,2.61-.23,3.52.72,1.19,1.04,1.32,2.84.28,4.03-.04.04-.08.09-.12.13-.8.74-1.87,1.11-2.96,1.04h-2.08l2.16,2.16-1.36,1.36-4.32-4.32,1.04-1.04h-.16Z"/><path d="m330.95,319.61c-1.97,1.17-4.52.51-5.69-1.46-.09-.15-.17-.3-.23-.46-1.27-2.2-.51-5,1.68-6.27.08-.04.16-.09.24-.13,2.27-1.2,5.09-.33,6.29,1.94,0,.02.02.04.03.06.76,1.37.76,3.03,0,4.4l-1.68-1.12c.36-.76.36-1.64,0-2.4-.62-1.28-2.17-1.82-3.45-1.2-.05.02-.1.05-.15.08-1.27.61-1.8,2.14-1.19,3.41.05.09.1.19.15.27.36.94,1.32,1.5,2.32,1.36l-1.12-2.16,1.6-.8,2.08,4-.72.32-.16.16Z"/><path d="m289.51,346.73v-2.88l5.2-5.44c.41-.42.78-.88,1.12-1.36.21-.3.33-.67.32-1.04-.01-.36-.15-.7-.4-.96-.29-.25-.66-.36-1.04-.32-.96.03-1.8.68-2.08,1.6l-3.44-1.92c.88-2.26,3.1-3.7,5.52-3.6,1.39.02,2.74.5,3.84,1.36,1.06.89,1.65,2.22,1.6,3.6.09.88-.14,1.76-.64,2.48-.48.89-1.1,1.7-1.84,2.4l-2.16,2.24h4.88v3.84h-10.88Z"/><path d="m317.43,337.77v1.6c.2,4.09-2.95,7.56-7.04,7.76-.24.01-.48.01-.72,0-2.23.05-4.39-.78-6-2.32-1.54-1.52-2.38-3.6-2.32-5.76-.02-2.18.81-4.27,2.32-5.84,1.53-1.58,3.64-2.45,5.84-2.4,1.4-.13,2.81.21,4,.96,1.17.62,2.17,1.53,2.88,2.64l-3.36,1.92c-.36-.5-.82-.91-1.36-1.2-.64-.33-1.36-.49-2.08-.48-1.13-.03-2.23.4-3.04,1.2-.81.83-1.25,1.96-1.2,3.12-.05,1.14.39,2.24,1.2,3.04.88.85,2.06,1.31,3.28,1.28,1.36,0,3.04-.72,3.6-2.08h-3.76v-3.44h7.76,0Z"/><circle class="cls-4" cx="199.34" cy="46.52" r="36"/><path d="m175.9,32.36c-2.05-1.96-2.13-5.22-.17-7.27.05-.06.11-.11.17-.17,1.21-1.27,3-1.82,4.72-1.44l-.56,2.24c-.94-.25-1.93.06-2.56.8-1.15,1.03-1.25,2.79-.22,3.94.07.08.14.15.22.22.98,1.15,2.71,1.28,3.86.3.11-.09.21-.19.3-.3.72-.64,1-1.64.72-2.56l2.24-.64c.44,1.7-.08,3.51-1.36,4.72-1.91,2.05-5.12,2.17-7.18.26-.09-.08-.18-.17-.26-.26l.08.16Z"/><path d="m190.3,19.4l3.04,6.56-2,.88-.32-.64c-.26.77-.84,1.39-1.6,1.68-1.81.77-3.91-.08-4.68-1.89-.01-.04-.03-.07-.04-.11-.91-1.77-.23-3.94,1.52-4.88.72-.38,1.58-.41,2.32-.08l-.32-.64,2-.88h.08Zm-.48,4.16c-.35-.87-1.34-1.28-2.21-.93-.04.02-.07.03-.11.05-.84.35-1.23,1.31-.89,2.14.03.06.05.12.09.18.37.86,1.37,1.25,2.23.88.02,0,.04-.02.06-.03.83-.35,1.22-1.32.87-2.15-.02-.05-.04-.1-.07-.15h.03Z"/><path d="m204.62,20.68l.16,4.4h-2.19l-.16-4.16c0-.72-.4-1.2-1.04-1.12s-1.12.56-1.04,1.36l.16,4.08h-2.16l-.16-4.16c0-.72-.4-1.2-1.04-1.12s-1.12.56-1.04,1.36l.16,4.08h-2.16l-.24-7.12h2.16v.56c.46-.6,1.17-.95,1.92-.96.75-.05,1.47.28,1.92.88.49-.65,1.26-1.04,2.08-1.04,1.47-.08,2.73,1.05,2.81,2.51,0,.12,0,.24,0,.37l-.13.08Z"/><path d="m209.34,25.24c.49.2,1.03.2,1.52,0l1.28,1.52c-1.02.67-2.31.79-3.44.32-2.32-.88-3.2-2.96-2.4-4.96.64-1.92,2.72-2.97,4.64-2.33.08.03.16.06.24.09,1.85.64,2.83,2.65,2.2,4.5-.03.1-.07.2-.12.3-.08.29-.22.56-.4.8l-4.8-1.76c.02.74.55,1.37,1.28,1.52Zm2.16-2c.07-.71-.36-1.38-1.04-1.6-.66-.34-1.48-.09-1.84.56l2.88,1.04Z"/><path d="m220.19,25l-1.36,2c-.62-.73-1.71-.83-2.45-.21-.1.09-.19.18-.27.29l-1.84,2.64-1.76-1.2,4.08-5.92,1.76,1.2-.72,1.04c.76-.56,1.8-.56,2.56,0v.16Z"/><path d="m226.54,32.04l-5.52,4.64-1.36-1.68.48-.4c-.81-.02-1.57-.4-2.08-1.04-1.2-1.6-.92-3.86.64-5.12,1.46-1.36,3.75-1.29,5.12.16.56.61.82,1.42.72,2.24l.48-.4,1.36,1.68.16-.08Zm-4.16.72c.75-.57.89-1.64.31-2.39-.02-.03-.05-.06-.07-.09-.59-.73-1.65-.84-2.37-.25-.04.03-.07.06-.11.09-.75.57-.89,1.64-.31,2.39.02.03.05.06.07.09.59.73,1.65.84,2.37.25.04-.03.07-.06.11-.09h0Z"/><path class="cls-9" d="m222.54,54.6v.16c-.24,0-.16.24-.16.32.01.4-.01.8-.08,1.2-.37,2.72-1.23,5.35-2.56,7.76-1.16,2.09-2.61,4-4.32,5.68-1.82,1.76-3.93,3.19-6.24,4.24-1.93.89-3.98,1.51-6.08,1.84l-1.92.24h-3.04c-.53-.1-1.06-.15-1.6-.16-5.52-.75-10.58-3.48-14.24-7.68-2.98-3.45-4.85-7.71-5.36-12.24.03-.43-.03-.87-.16-1.28v-2.88c.07-.12.1-.26.08-.4,0-.65.08-1.29.24-1.92.41-2.52,1.25-4.96,2.48-7.2,1.13-2.08,2.59-3.97,4.32-5.6,4.9-4.71,11.65-6.97,18.4-6.16,2.55.31,5.04,1.04,7.36,2.16,5.03,2.49,8.98,6.73,11.12,11.92.79,1.89,1.3,3.88,1.52,5.92.13,1.2.19,2.4.16,3.6-.01.16.01.33.08.48h0Zm-19.04,18.32c.9-.14,1.78-.35,2.64-.64,9.55-3.29,15.19-13.14,13.2-23.04-1.52-7.12-5.84-12.08-12.56-14.8-1.02-.45-2.1-.75-3.2-.88-.18-.06-.37-.12-.56-.16-1.67-.25-3.36-.31-5.04-.16-3.13.17-6.17,1.17-8.8,2.88-7.12,4.64-10.32,11.2-9.44,19.68.55,5.53,3.51,10.53,8.08,13.68,3.75,2.72,8.33,4.08,12.96,3.84.92.02,1.84-.11,2.72-.4h0Z"/><path class="cls-7" d="m203.5,72.92c-.89.25-1.8.38-2.72.4-4.64.32-9.24-1.05-12.96-3.84-4.64-3.44-7.52-8-8.08-13.68-.96-8.48,2.32-15.04,9.44-19.68,2.63-1.71,5.67-2.71,8.8-2.88,1.68-.15,3.37-.09,5.04.16.2-.02.4.04.56.16.12.1.26.18.4.24,3.42,1.03,6.42,3.13,8.56,6,1.03,1.33,1.89,2.78,2.56,4.32,1.1,2.58,1.74,5.33,1.89,8.14.04,1.47-.04,2.94-.24,4.4-.31,2.25-.99,4.44-2,6.48-1.09,2.23-2.58,4.24-4.4,5.92-1.5,1.36-3.24,2.44-5.12,3.2-.57.18-1.13.39-1.68.64l-.05.02Zm-18.51-19.68c.02,8.02,6.54,14.5,14.56,14.48,8.02-.02,14.5-6.54,14.48-14.56-.02-8.02-6.54-14.5-14.56-14.48-7.99.02-14.46,6.49-14.48,14.48v.08Z"/><path class="cls-12" d="m203.5,72.92c.54-.26,1.1-.48,1.68-.64,1.88-.77,3.61-1.85,5.12-3.2,1.82-1.68,3.31-3.69,4.4-5.92,1.01-2.04,1.69-4.23,2-6.48.24-1.45.32-2.93.24-4.4-.08-2.82-.73-5.6-1.92-8.16-.67-1.54-1.53-2.99-2.56-4.32-2.14-2.87-5.14-4.97-8.56-6-.16,0-.24-.08-.4-.24,1.1.13,2.18.43,3.2.88,6.72,2.72,11.04,7.68,12.56,14.8,2.04,9.91-3.62,19.79-13.2,23.04-.85.33-1.73.55-2.64.64h.08Z"/><path class="cls-22" d="m184.99,53.32c0-8.04,6.52-14.56,14.56-14.56,8.04,0,14.56,6.52,14.56,14.56,0,8.04-6.52,14.56-14.56,14.56h0c-8.01,0-14.52-6.47-14.56-14.48h0v-.08Zm14.56-9.04h-6.56c-.69-.06-1.37.21-1.84.72-.16.16-.24.32-.4.48-2.26,2.44-3.34,5.74-2.96,9.04.28,2.86,1.62,5.51,3.76,7.44.23.24.55.39.88.4h13.6c.75.03,1.48-.26,2-.8.16-.16.24-.32.4-.4,2.37-2.66,3.4-6.25,2.8-9.76-.42-2.38-1.53-4.57-3.2-6.32-.44-.51-1.08-.81-1.76-.8h-6.72Z"/><path class="cls-10" d="m199.58,44.25h6.72c.68,0,1.32.29,1.76.8,1.7,1.72,2.81,3.93,3.2,6.32.63,3.51-.41,7.12-2.8,9.76-.09.17-.23.31-.4.4-.48.59-1.24.9-2,.8h-13.6c-.33-.01-.65-.16-.88-.4-2.12-1.94-3.46-4.58-3.76-7.44-.38-3.3.7-6.6,2.96-9.04.16-.14.29-.3.4-.48.46-.52,1.15-.79,1.84-.72h6.56Zm6.32,9.04c.02-3.47-2.77-6.3-6.24-6.32-.03,0-.05,0-.08,0-3.49-.04-6.36,2.75-6.4,6.24-.04,3.49,2.75,6.36,6.24,6.4s6.36-2.75,6.4-6.24c0-.03,0-.05,0-.08h.08,0Z"/><path class="cls-18" d="m205.9,53.32c-.04,3.44-2.8,6.23-6.24,6.32-3.39.1-6.22-2.56-6.32-5.95,0-.12,0-.25,0-.37,0-3.49,2.83-6.32,6.32-6.32s6.32,2.83,6.32,6.32h-.08Zm-6.32-3.52c-1.94.02-3.5,1.58-3.52,3.52h0c.02,1.94,1.58,3.5,3.52,3.52,1.93.01,3.51-1.54,3.52-3.47,0-.02,0-.03,0-.05,0-1.95-1.57-3.55-3.52-3.6h0v.08Z"/><path class="cls-24" d="m199.58,56.84c-1.9.04-3.48-1.47-3.52-3.37,0-.05,0-.1,0-.15.02-1.94,1.58-3.5,3.52-3.52h0c.32.16.4.56.48.88.4,1.76.4,3.6,0,5.36,0,.35-.19.68-.48.88v-.08Z"/><path class="cls-14" d="m199.58,56.84c.32-.16.4-.56.48-.88.4-1.76.4-3.6,0-5.36,0-.35-.19-.68-.48-.88,1.97,0,3.56,1.6,3.56,3.56,0,1.96-1.59,3.55-3.56,3.56h0Z"/><line class="cls-6" x1="205.34" y1="257.82" x2="205.34" y2="299.82"/><line class="cls-5" x1="205.34" y1="257.82" x2="205.34" y2="289.06"/><polygon class="cls-25" points="197.86 286.87 205.34 299.82 212.82 286.87 197.86 286.87"/><line class="cls-6" x1="172.2" y1="247.19" x2="147.77" y2="281.36"/><line class="cls-5" x1="172.2" y1="247.19" x2="154.03" y2="272.6"/><polygon class="cls-25" points="149.22 266.47 147.77 281.36 161.39 275.17 149.22 266.47"/><line class="cls-6" x1="151.41" y1="219.27" x2="111.67" y2="232.87"/><line class="cls-5" x1="151.41" y1="219.27" x2="121.86" y2="229.38"/><polygon class="cls-25" points="121.5 221.6 111.67 232.87 126.35 235.75 121.5 221.6"/><line class="cls-6" x1="150.74" y1="184.47" x2="110.5" y2="172.43"/><line class="cls-5" x1="150.74" y1="184.47" x2="120.81" y2="175.51"/><polygon class="cls-25" points="125.05 168.98 110.5 172.43 120.76 183.31 125.05 168.98"/><line class="cls-6" x1="170.42" y1="155.77" x2="144.69" y2="122.57"/><line class="cls-5" x1="170.42" y1="155.77" x2="151.29" y2="131.08"/><polygon class="cls-25" points="158.54 128.23 144.69 122.57 146.72 137.39 158.54 128.23"/><line class="cls-6" x1="203.13" y1="143.86" x2="201.5" y2="101.89"/><line class="cls-5" x1="203.13" y1="143.86" x2="201.92" y2="112.65"/><polygon class="cls-25" points="209.48 114.55 201.5 101.89 194.53 115.13 209.48 114.55"/><line class="cls-6" x1="236.66" y1="153.2" x2="259.74" y2="118.11"/><line class="cls-5" x1="236.66" y1="153.2" x2="253.83" y2="127.1"/><polygon class="cls-25" points="258.87 133.04 259.74 118.11 246.38 124.82 258.87 133.04"/><line class="cls-6" x1="258.51" y1="180.29" x2="297.7" y2="165.16"/><line class="cls-5" x1="258.51" y1="180.29" x2="287.65" y2="169.04"/><polygon class="cls-25" points="288.31 176.8 297.7 165.16 282.92 162.85 288.31 176.8"/><line class="cls-6" x1="260.54" y1="215.04" x2="301.21" y2="225.51"/><line class="cls-5" x1="260.54" y1="215.04" x2="290.79" y2="222.83"/><polygon class="cls-25" points="286.8 229.53 301.21 225.51 290.53 215.04 286.8 229.53"/><line class="cls-6" x1="241.98" y1="244.48" x2="268.98" y2="276.66"/><line class="cls-5" x1="241.98" y1="244.48" x2="262.06" y2="268.41"/><polygon class="cls-25" points="254.92 271.54 268.98 276.66 266.38 261.93 254.92 271.54"/><path class="cls-23" d="m128.18,326.63c.5,0,.99.02,1.49.02.84,0,1.54.69,1.55,1.54,0,.78,0,1.56,0,2.33,0,6.58,0,13.16,0,19.75,0,.43-.02.86-.15,1.28-.15.49-.75.93-1.27.93-5.57,0-11.15,0-16.72,0-.03,0-.05,0-.08,0,0-1.51,0-3.03,0-4.54,1.16,0,2.32,0,3.48-.01.15,0,.32.04.32-.21,0-.57.05-1.16-.08-1.71-.36-1.48-.79-2.95-1.17-4.43-.1-.4-.22-.79-.36-1.18-.22-.61.19-.92.56-1.25.6-.55.85-1.24.99-2.03.3-1.66-1.1-3.65-2.68-4.16-.05-.09-.12-.13-.22-.08-.08-.02-.16-.04-.24-.05-.04-.05-.08-.07-.14-.03-.15-.02-.31-.04-.46-.07,0-2.01,0-4.03,0-6.04,2.86,0,5.71,0,8.57-.02.18,0,.36-.01.53-.02,1.02.03,2.04.05,3.07,0,1,.06,2,.04,3.01,0Z"/><path class="cls-15" d="m113,347.92c0,1.51,0,3.03,0,4.54-.57,0-1.15.01-1.72.01-4.86,0-9.72-.02-14.58.02-1.28.01-1.94-.69-1.94-1.94.04-7.44.03-14.88,0-22.32,0-.89.72-1.6,1.57-1.59.5,0,.99-.01,1.49-.02,1,.03,2,.05,3-.01,1.02.06,2.04.03,3.06.01.17,0,.33.02.5.02,2.87,0,5.74,0,8.61.01,0,2.01,0,4.03,0,6.04-.32.15-.68.08-1.02.21-1.42.55-2.36,1.51-2.7,3.02-.06.03-.11.07-.03.14-.11,1.25.02,2.39,1.14,3.22.35.26.49.65.35,1.14-.09.3-.2.59-.27.9-.2.84-.42,1.66-.64,2.49-.16.61-.35,1.22-.5,1.83-.15.61-.11,1.23-.13,1.85-.01.31.07.42.4.41,1.14-.02,2.27,0,3.41,0Z"/><path class="cls-20" d="m100.83,326.62c-1,.06-2,.04-3,.01,0-2.7-.02-5.41.02-8.11.02-1.25.19-2.49.55-3.71.44-1.46,1.06-2.83,1.9-4.1,1.05-1.58,2.35-2.94,3.9-4.05,1.02-.73,2.09-1.38,3.27-1.78,1.17-.41,2.35-.81,3.61-.9.71-.05,1.41-.16,2.12-.14,1.77.03,3.47.38,5.13,1,1.65.62,3.14,1.52,4.5,2.65,1.17.97,2.13,2.12,2.94,3.4.58.9,1.03,1.86,1.42,2.87.21.55.36,1.12.55,1.68.17.51.21,1.06.27,1.6.35,3.19.08,6.39.17,9.58-1,.04-2,.05-3,0,0-2.28-.02-4.57.01-6.85.02-1.31-.15-2.6-.47-3.87-.45-1.78-1.28-3.39-2.48-4.76-1.47-1.68-3.26-2.95-5.42-3.64-1.53-.49-3.08-.64-4.69-.54-1.49.09-2.89.44-4.22,1.06-2.21,1.03-3.95,2.61-5.24,4.69-1.11,1.79-1.72,3.76-1.8,5.84-.1,2.69-.02,5.38-.02,8.08Z"/><path class="cls-11" d="m122.11,326.63c0-2.42.02-4.85,0-7.27-.01-1.29-.19-2.56-.71-3.76-.41-.95-.96-1.81-1.64-2.6-1.01-1.18-2.27-1.99-3.7-2.51-1.32-.48-2.7-.64-4.13-.46-.87.11-1.71.31-2.49.65-2.18.95-3.78,2.51-4.77,4.69-.46,1.02-.65,2.09-.7,3.2-.13,2.69-.02,5.38-.06,8.06-1.02.02-2.04.04-3.06-.01,0-2.69-.08-5.39.02-8.08.08-2.08.68-4.05,1.8-5.84,1.29-2.08,3.03-3.66,5.24-4.69,1.33-.62,2.73-.97,4.22-1.06,1.61-.09,3.16.06,4.69.54,2.16.69,3.94,1.95,5.42,3.64,1.2,1.38,2.03,2.98,2.48,4.76.32,1.27.49,2.55.47,3.87-.03,2.28-.01,4.57-.01,6.85-1.02.05-2.04.04-3.07,0Z"/><path class="cls-17" d="m113,347.92c-1.14,0-2.27-.02-3.41,0-.33,0-.41-.1-.4-.41.02-.62-.01-1.25.13-1.85.15-.62.34-1.22.5-1.83.22-.83.44-1.66.64-2.49.07-.31.18-.6.27-.9.14-.49,0-.88-.35-1.14-1.12-.83-1.25-1.97-1.14-3.22.06-.03.06-.08.03-.14.34-1.51,1.28-2.47,2.7-3.02.34-.13.7-.05,1.02-.21.15.02.31.04.46.07.03.08.07.12.14.03.08.02.16.04.24.05.04.11.14.08.22.08,1.58.51,2.98,2.5,2.68,4.16-.14.79-.4,1.48-.99,2.03-.36.33-.78.65-.56,1.25.14.39.25.78.36,1.18.38,1.48.81,2.94,1.17,4.43.13.55.09,1.14.08,1.71,0,.25-.17.21-.32.21-1.16,0-2.32,0-3.48.01Z"/><path class="cls-11" d="m114.07,332.94c-.09,0-.18.03-.22-.08.1-.05.17,0,.22.08Z"/><path class="cls-11" d="m113.6,332.81c-.07.09-.11.05-.14-.03.06-.03.1-.02.14.03Z"/><path class="cls-20" d="m109.28,335.93c.03.06.03.1-.03.14-.08-.07-.03-.1.03-.14Z"/><circle class="cls-3" cx="113.13" cy="330.47" r="39.02"/><path class="cls-23" d="m218.18,348.63c.5,0,.99.02,1.49.02.84,0,1.54.69,1.55,1.54,0,.78,0,1.56,0,2.33,0,6.58,0,13.16,0,19.75,0,.43-.02.86-.15,1.28-.15.49-.75.93-1.27.93-5.57,0-11.15,0-16.72,0-.03,0-.05,0-.08,0,0-1.51,0-3.03,0-4.54,1.16,0,2.32,0,3.48-.01.15,0,.32.04.32-.21,0-.57.05-1.16-.08-1.71-.36-1.48-.79-2.95-1.17-4.43-.1-.4-.22-.79-.36-1.18-.22-.61.19-.92.56-1.25.6-.55.85-1.24.99-2.03.3-1.66-1.1-3.65-2.68-4.16-.05-.09-.12-.13-.22-.08-.08-.02-.16-.04-.24-.05-.04-.05-.08-.07-.14-.03-.15-.02-.31-.04-.46-.07,0-2.01,0-4.03,0-6.04,2.86,0,5.71,0,8.57-.02.18,0,.36-.01.53-.02,1.02.03,2.04.05,3.07,0,1,.06,2,.04,3.01,0Z"/><path class="cls-15" d="m203,369.92c0,1.51,0,3.03,0,4.54-.57,0-1.15.01-1.72.01-4.86,0-9.72-.02-14.58.02-1.28.01-1.94-.69-1.94-1.94.04-7.44.03-14.88,0-22.32,0-.89.72-1.6,1.57-1.59.5,0,.99-.01,1.49-.02,1,.03,2,.05,3-.01,1.02.06,2.04.03,3.06.01.17,0,.33.02.5.02,2.87,0,5.74,0,8.61.01,0,2.01,0,4.03,0,6.04-.32.15-.68.08-1.02.21-1.42.55-2.36,1.51-2.7,3.02-.06.03-.11.07-.03.14-.11,1.25.02,2.39,1.14,3.22.35.26.49.65.35,1.14-.09.3-.2.59-.27.9-.2.84-.42,1.66-.64,2.49-.16.61-.35,1.22-.5,1.83-.15.61-.11,1.23-.13,1.85-.01.31.07.42.4.41,1.14-.02,2.27,0,3.41,0Z"/><path class="cls-20" d="m190.83,348.62c-1,.06-2,.04-3,.01,0-2.7-.02-5.41.02-8.11.02-1.25.19-2.49.55-3.71.44-1.46,1.06-2.83,1.9-4.1,1.05-1.58,2.35-2.94,3.9-4.05,1.02-.73,2.09-1.38,3.27-1.78,1.17-.41,2.35-.81,3.61-.9.71-.05,1.41-.16,2.12-.14,1.77.03,3.47.38,5.13,1,1.65.62,3.14,1.52,4.5,2.65,1.17.97,2.13,2.12,2.94,3.4.58.9,1.03,1.86,1.42,2.87.21.55.36,1.12.55,1.68.17.51.21,1.06.27,1.6.35,3.19.08,6.39.17,9.58-1,.04-2,.05-3,0,0-2.28-.02-4.57.01-6.85.02-1.31-.15-2.6-.47-3.87-.45-1.78-1.28-3.39-2.48-4.76-1.47-1.68-3.26-2.95-5.42-3.64-1.53-.49-3.08-.64-4.69-.54-1.49.09-2.89.44-4.22,1.06-2.21,1.03-3.95,2.61-5.24,4.69-1.11,1.79-1.72,3.76-1.8,5.84-.1,2.69-.02,5.38-.02,8.08Z"/><path class="cls-11" d="m212.11,348.63c0-2.42.02-4.85,0-7.27-.01-1.29-.19-2.56-.71-3.76-.41-.95-.96-1.81-1.64-2.6-1.01-1.18-2.27-1.99-3.7-2.51-1.32-.48-2.7-.64-4.13-.46-.87.11-1.71.31-2.49.65-2.18.95-3.78,2.51-4.77,4.69-.46,1.02-.65,2.09-.7,3.2-.13,2.69-.02,5.38-.06,8.06-1.02.02-2.04.04-3.06-.01,0-2.69-.08-5.39.02-8.08.08-2.08.68-4.05,1.8-5.84,1.29-2.08,3.03-3.66,5.24-4.69,1.33-.62,2.73-.97,4.22-1.06,1.61-.09,3.16.06,4.69.54,2.16.69,3.94,1.95,5.42,3.64,1.2,1.38,2.03,2.98,2.48,4.76.32,1.27.49,2.55.47,3.87-.03,2.28-.01,4.57-.01,6.85-1.02.05-2.04.04-3.07,0Z"/><path class="cls-17" d="m203,369.92c-1.14,0-2.27-.02-3.41,0-.33,0-.41-.1-.4-.41.02-.62-.01-1.25.13-1.85.15-.62.34-1.22.5-1.83.22-.83.44-1.66.64-2.49.07-.31.18-.6.27-.9.14-.49,0-.88-.35-1.14-1.12-.83-1.25-1.97-1.14-3.22.06-.03.06-.08.03-.14.34-1.51,1.28-2.47,2.7-3.02.34-.13.7-.05,1.02-.21.15.02.31.04.46.07.03.08.07.12.14.03.08.02.16.04.24.05.04.11.14.08.22.08,1.58.51,2.98,2.5,2.68,4.16-.14.79-.4,1.48-.99,2.03-.36.33-.78.65-.56,1.25.14.39.25.78.36,1.18.38,1.48.81,2.94,1.17,4.43.13.55.09,1.14.08,1.71,0,.25-.17.21-.32.21-1.16,0-2.32,0-3.48.01Z"/><path class="cls-11" d="m204.07,354.94c-.09,0-.18.03-.22-.08.1-.05.17,0,.22.08Z"/><path class="cls-11" d="m203.6,354.81c-.07.09-.11.05-.14-.03.06-.03.1-.02.14.03Z"/><path class="cls-20" d="m199.28,357.93c.03.06.03.1-.03.14-.08-.07-.03-.1.03-.14Z"/><circle class="cls-3" cx="203.13" cy="352.47" r="39.02"/><path class="cls-23" d="m74.18,158.63c.5,0,.99.02,1.49.02.84,0,1.54.69,1.55,1.54,0,.78,0,1.56,0,2.33,0,6.58,0,13.16,0,19.75,0,.43-.02.86-.15,1.28-.15.49-.75.93-1.27.93-5.57,0-11.15,0-16.72,0-.03,0-.05,0-.08,0,0-1.51,0-3.03,0-4.54,1.16,0,2.32,0,3.48-.01.15,0,.32.04.32-.21,0-.57.05-1.16-.08-1.71-.36-1.48-.79-2.95-1.17-4.43-.1-.4-.22-.79-.36-1.18-.22-.61.19-.92.56-1.25.6-.55.85-1.24.99-2.03.3-1.66-1.1-3.65-2.68-4.16-.05-.09-.12-.13-.22-.08-.08-.02-.16-.04-.24-.05-.04-.05-.08-.07-.14-.03-.15-.02-.31-.04-.46-.07,0-2.01,0-4.03,0-6.04,2.86,0,5.71,0,8.57-.02.18,0,.36-.01.53-.02,1.02.03,2.04.05,3.07,0,1,.06,2,.04,3.01,0Z"/><path class="cls-15" d="m59,179.92c0,1.51,0,3.03,0,4.54-.57,0-1.15.01-1.72.01-4.86,0-9.72-.02-14.58.02-1.28.01-1.94-.69-1.94-1.94.04-7.44.03-14.88,0-22.32,0-.89.72-1.6,1.57-1.59.5,0,.99-.01,1.49-.02,1,.03,2,.05,3-.01,1.02.06,2.04.03,3.06.01.17,0,.33.02.5.02,2.87,0,5.74,0,8.61.01,0,2.01,0,4.03,0,6.04-.32.15-.68.08-1.02.21-1.42.55-2.36,1.51-2.7,3.02-.06.03-.11.07-.03.14-.11,1.25.02,2.39,1.14,3.22.35.26.49.65.35,1.14-.09.3-.2.59-.27.9-.2.84-.42,1.66-.64,2.49-.16.61-.35,1.22-.5,1.83-.15.61-.11,1.23-.13,1.85-.01.31.07.42.4.41,1.14-.02,2.27,0,3.41,0Z"/><path class="cls-20" d="m46.83,158.62c-1,.06-2,.04-3,.01,0-2.7-.02-5.41.02-8.11.02-1.25.19-2.49.55-3.71.44-1.46,1.06-2.83,1.9-4.1,1.05-1.58,2.35-2.94,3.9-4.05,1.02-.73,2.09-1.38,3.27-1.78,1.17-.41,2.35-.81,3.61-.9.71-.05,1.41-.16,2.12-.14,1.77.03,3.47.38,5.13,1,1.65.62,3.14,1.52,4.5,2.65,1.17.97,2.13,2.12,2.94,3.4.58.9,1.03,1.86,1.42,2.87.21.55.36,1.12.55,1.68.17.51.21,1.06.27,1.6.35,3.19.08,6.39.17,9.58-1,.04-2,.05-3,0,0-2.28-.02-4.57.01-6.85.02-1.31-.15-2.6-.47-3.87-.45-1.78-1.28-3.39-2.48-4.76-1.47-1.68-3.26-2.95-5.42-3.64-1.53-.49-3.08-.64-4.69-.54-1.49.09-2.89.44-4.22,1.06-2.21,1.03-3.95,2.61-5.24,4.69-1.11,1.79-1.72,3.76-1.8,5.84-.1,2.69-.02,5.38-.02,8.08Z"/><path class="cls-11" d="m68.11,158.63c0-2.42.02-4.85,0-7.27-.01-1.29-.19-2.56-.71-3.76-.41-.95-.96-1.81-1.64-2.6-1.01-1.18-2.27-1.99-3.7-2.51-1.32-.48-2.7-.64-4.13-.46-.87.11-1.71.31-2.49.65-2.18.95-3.78,2.51-4.77,4.69-.46,1.02-.65,2.09-.7,3.2-.13,2.69-.02,5.38-.06,8.06-1.02.02-2.04.04-3.06-.01,0-2.69-.08-5.39.02-8.08.08-2.08.68-4.05,1.8-5.84,1.29-2.08,3.03-3.66,5.24-4.69,1.33-.62,2.73-.97,4.22-1.06,1.61-.09,3.16.06,4.69.54,2.16.69,3.94,1.95,5.42,3.64,1.2,1.38,2.03,2.98,2.48,4.76.32,1.27.49,2.55.47,3.87-.03,2.28-.01,4.57-.01,6.85-1.02.05-2.04.04-3.07,0Z"/><path class="cls-17" d="m59,179.92c-1.14,0-2.27-.02-3.41,0-.33,0-.41-.1-.4-.41.02-.62-.01-1.25.13-1.85.15-.62.34-1.22.5-1.83.22-.83.44-1.66.64-2.49.07-.31.18-.6.27-.9.14-.49,0-.88-.35-1.14-1.12-.83-1.25-1.97-1.14-3.22.06-.03.06-.08.03-.14.34-1.51,1.28-2.47,2.7-3.02.34-.13.7-.05,1.02-.21.15.02.31.04.46.07.03.08.07.12.14.03.08.02.16.04.24.05.04.11.14.08.22.08,1.58.51,2.98,2.5,2.68,4.16-.14.79-.4,1.48-.99,2.03-.36.33-.78.65-.56,1.25.14.39.25.78.36,1.18.38,1.48.81,2.94,1.17,4.43.13.55.09,1.14.08,1.71,0,.25-.17.21-.32.21-1.16,0-2.32,0-3.48.01Z"/><path class="cls-11" d="m60.07,164.94c-.09,0-.18.03-.22-.08.1-.05.17,0,.22.08Z"/><path class="cls-11" d="m59.6,164.81c-.07.09-.11.05-.14-.03.06-.03.1-.02.14.03Z"/><path class="cls-20" d="m55.28,167.93c.03.06.03.1-.03.14-.08-.07-.03-.1.03-.14Z"/><circle class="cls-3" cx="59.13" cy="162.47" r="39.02"/><path class="cls-23" d="m126.18,77.63c.5,0,.99.02,1.49.02.84,0,1.54.69,1.55,1.54,0,.78,0,1.56,0,2.33,0,6.58,0,13.16,0,19.75,0,.43-.02.86-.15,1.28-.15.49-.75.93-1.27.93-5.57,0-11.15,0-16.72,0-.03,0-.05,0-.08,0,0-1.51,0-3.03,0-4.54,1.16,0,2.32,0,3.48-.01.15,0,.32.04.32-.21,0-.57.05-1.16-.08-1.71-.36-1.48-.79-2.95-1.17-4.43-.1-.4-.22-.79-.36-1.18-.22-.61.19-.92.56-1.25.6-.55.85-1.24.99-2.03.3-1.66-1.1-3.65-2.68-4.16-.05-.09-.12-.13-.22-.08-.08-.02-.16-.04-.24-.05-.04-.05-.08-.07-.14-.03-.15-.02-.31-.04-.46-.07,0-2.01,0-4.03,0-6.04,2.86,0,5.71,0,8.57-.02.18,0,.36-.01.53-.02,1.02.03,2.04.05,3.07,0,1,.06,2,.04,3.01,0Z"/><path class="cls-15" d="m111,98.92c0,1.51,0,3.03,0,4.54-.57,0-1.15.01-1.72.01-4.86,0-9.72-.02-14.58.02-1.28.01-1.94-.69-1.94-1.94.04-7.44.03-14.88,0-22.32,0-.89.72-1.6,1.57-1.59.5,0,.99-.01,1.49-.02,1,.03,2,.05,3-.01,1.02.06,2.04.03,3.06.01.17,0,.33.02.5.02,2.87,0,5.74,0,8.61.01,0,2.01,0,4.03,0,6.04-.32.15-.68.08-1.02.21-1.42.55-2.36,1.51-2.7,3.02-.06.03-.11.07-.03.14-.11,1.25.02,2.39,1.14,3.22.35.26.49.65.35,1.14-.09.3-.2.59-.27.9-.2.84-.42,1.66-.64,2.49-.16.61-.35,1.22-.5,1.83-.15.61-.11,1.23-.13,1.85-.01.31.07.42.4.41,1.14-.02,2.27,0,3.41,0Z"/><path class="cls-20" d="m98.83,77.62c-1,.06-2,.04-3,.01,0-2.7-.02-5.41.02-8.11.02-1.25.19-2.49.55-3.71.44-1.46,1.06-2.83,1.9-4.1,1.05-1.58,2.35-2.94,3.9-4.05,1.02-.73,2.09-1.38,3.27-1.78,1.17-.41,2.35-.81,3.61-.9.71-.05,1.41-.16,2.12-.14,1.77.03,3.47.38,5.13,1,1.65.62,3.14,1.52,4.5,2.65,1.17.97,2.13,2.12,2.94,3.4.58.9,1.03,1.86,1.42,2.87.21.55.36,1.12.55,1.68.17.51.21,1.06.27,1.6.35,3.19.08,6.39.17,9.58-1,.04-2,.05-3,0,0-2.28-.02-4.57.01-6.85.02-1.31-.15-2.6-.47-3.87-.45-1.78-1.28-3.39-2.48-4.76-1.47-1.68-3.26-2.95-5.42-3.64-1.53-.49-3.08-.64-4.69-.54-1.49.09-2.89.44-4.22,1.06-2.21,1.03-3.95,2.61-5.24,4.69-1.11,1.79-1.72,3.76-1.8,5.84-.1,2.69-.02,5.38-.02,8.08Z"/><path class="cls-11" d="m120.11,77.63c0-2.42.02-4.85,0-7.27-.01-1.29-.19-2.56-.71-3.76-.41-.95-.96-1.81-1.64-2.6-1.01-1.18-2.27-1.99-3.7-2.51-1.32-.48-2.7-.64-4.13-.46-.87.11-1.71.31-2.49.65-2.18.95-3.78,2.51-4.77,4.69-.46,1.02-.65,2.09-.7,3.2-.13,2.69-.02,5.38-.06,8.06-1.02.02-2.04.04-3.06-.01,0-2.69-.08-5.39.02-8.08.08-2.08.68-4.05,1.8-5.84,1.29-2.08,3.03-3.66,5.24-4.69,1.33-.62,2.73-.97,4.22-1.06,1.61-.09,3.16.06,4.69.54,2.16.69,3.94,1.95,5.42,3.64,1.2,1.38,2.03,2.98,2.48,4.76.32,1.27.49,2.55.47,3.87-.03,2.28-.01,4.57-.01,6.85-1.02.05-2.04.04-3.07,0Z"/><path class="cls-17" d="m111,98.92c-1.14,0-2.27-.02-3.41,0-.33,0-.41-.1-.4-.41.02-.62-.01-1.25.13-1.85.15-.62.34-1.22.5-1.83.22-.83.44-1.66.64-2.49.07-.31.18-.6.27-.9.14-.49,0-.88-.35-1.14-1.12-.83-1.25-1.97-1.14-3.22.06-.03.06-.08.03-.14.34-1.51,1.28-2.47,2.7-3.02.34-.13.7-.05,1.02-.21.15.02.31.04.46.07.03.08.07.12.14.03.08.02.16.04.24.05.04.11.14.08.22.08,1.58.51,2.98,2.5,2.68,4.16-.14.79-.4,1.48-.99,2.03-.36.33-.78.65-.56,1.25.14.39.25.78.36,1.18.38,1.48.81,2.94,1.17,4.43.13.55.09,1.14.08,1.71,0,.25-.17.21-.32.21-1.16,0-2.32,0-3.48.01Z"/><path class="cls-11" d="m112.07,83.94c-.09,0-.18.03-.22-.08.1-.05.17,0,.22.08Z"/><path class="cls-11" d="m111.6,83.81c-.07.09-.11.05-.14-.03.06-.03.1-.02.14.03Z"/><path class="cls-20" d="m107.28,86.93c.03.06.03.1-.03.14-.08-.07-.03-.1.03-.14Z"/><circle class="cls-3" cx="111.13" cy="81.47" r="39.02"/><path class="cls-23" d="m306.18,67.63c.5,0,.99.02,1.49.02.84,0,1.54.69,1.55,1.54,0,.78,0,1.56,0,2.33,0,6.58,0,13.16,0,19.75,0,.43-.02.86-.15,1.28-.15.49-.75.93-1.27.93-5.57,0-11.15,0-16.72,0-.03,0-.05,0-.08,0,0-1.51,0-3.03,0-4.54,1.16,0,2.32,0,3.48-.01.15,0,.32.04.32-.21,0-.57.05-1.16-.08-1.71-.36-1.48-.79-2.95-1.17-4.43-.1-.4-.22-.79-.36-1.18-.22-.61.19-.92.56-1.25.6-.55.85-1.24.99-2.03.3-1.66-1.1-3.65-2.68-4.16-.05-.09-.12-.13-.22-.08-.08-.02-.16-.04-.24-.05-.04-.05-.08-.07-.14-.03-.15-.02-.31-.04-.46-.07,0-2.01,0-4.03,0-6.04,2.86,0,5.71,0,8.57-.02.18,0,.36-.01.53-.02,1.02.03,2.04.05,3.07,0,1,.06,2,.04,3.01,0Z"/><path class="cls-15" d="m291,88.92c0,1.51,0,3.03,0,4.54-.57,0-1.15.01-1.72.01-4.86,0-9.72-.02-14.58.02-1.28.01-1.94-.69-1.94-1.94.04-7.44.03-14.88,0-22.32,0-.89.72-1.6,1.57-1.59.5,0,.99-.01,1.49-.02,1,.03,2,.05,3-.01,1.02.06,2.04.03,3.06.01.17,0,.33.02.5.02,2.87,0,5.74,0,8.61.01,0,2.01,0,4.03,0,6.04-.32.15-.68.08-1.02.21-1.42.55-2.36,1.51-2.7,3.02-.06.03-.11.07-.03.14-.11,1.25.02,2.39,1.14,3.22.35.26.49.65.35,1.14-.09.3-.2.59-.27.9-.2.84-.42,1.66-.64,2.49-.16.61-.35,1.22-.5,1.83-.15.61-.11,1.23-.13,1.85-.01.31.07.42.4.41,1.14-.02,2.27,0,3.41,0Z"/><path class="cls-20" d="m278.83,67.62c-1,.06-2,.04-3,.01,0-2.7-.02-5.41.02-8.11.02-1.25.19-2.49.55-3.71.44-1.46,1.06-2.83,1.9-4.1,1.05-1.58,2.35-2.94,3.9-4.05,1.02-.73,2.09-1.38,3.27-1.78,1.17-.41,2.35-.81,3.61-.9.71-.05,1.41-.16,2.12-.14,1.77.03,3.47.38,5.13,1,1.65.62,3.14,1.52,4.5,2.65,1.17.97,2.13,2.12,2.94,3.4.58.9,1.03,1.86,1.42,2.87.21.55.36,1.12.55,1.68.17.51.21,1.06.27,1.6.35,3.19.08,6.39.17,9.58-1,.04-2,.05-3,0,0-2.28-.02-4.57.01-6.85.02-1.31-.15-2.6-.47-3.87-.45-1.78-1.28-3.39-2.48-4.76-1.47-1.68-3.26-2.95-5.42-3.64-1.53-.49-3.08-.64-4.69-.54-1.49.09-2.89.44-4.22,1.06-2.21,1.03-3.95,2.61-5.24,4.69-1.11,1.79-1.72,3.76-1.8,5.84-.1,2.69-.02,5.38-.02,8.08Z"/><path class="cls-11" d="m300.11,67.63c0-2.42.02-4.85,0-7.27-.01-1.29-.19-2.56-.71-3.76-.41-.95-.96-1.81-1.64-2.6-1.01-1.18-2.27-1.99-3.7-2.51-1.32-.48-2.7-.64-4.13-.46-.87.11-1.71.31-2.49.65-2.18.95-3.78,2.51-4.77,4.69-.46,1.02-.65,2.09-.7,3.2-.13,2.69-.02,5.38-.06,8.06-1.02.02-2.04.04-3.06-.01,0-2.69-.08-5.39.02-8.08.08-2.08.68-4.05,1.8-5.84,1.29-2.08,3.03-3.66,5.24-4.69,1.33-.62,2.73-.97,4.22-1.06,1.61-.09,3.16.06,4.69.54,2.16.69,3.94,1.95,5.42,3.64,1.2,1.38,2.03,2.98,2.48,4.76.32,1.27.49,2.55.47,3.87-.03,2.28-.01,4.57-.01,6.85-1.02.05-2.04.04-3.07,0Z"/><path class="cls-17" d="m291,88.92c-1.14,0-2.27-.02-3.41,0-.33,0-.41-.1-.4-.41.02-.62-.01-1.25.13-1.85.15-.62.34-1.22.5-1.83.22-.83.44-1.66.64-2.49.07-.31.18-.6.27-.9.14-.49,0-.88-.35-1.14-1.12-.83-1.25-1.97-1.14-3.22.06-.03.06-.08.03-.14.34-1.51,1.28-2.47,2.7-3.02.34-.13.7-.05,1.02-.21.15.02.31.04.46.07.03.08.07.12.14.03.08.02.16.04.24.05.04.11.14.08.22.08,1.58.51,2.98,2.5,2.68,4.16-.14.79-.4,1.48-.99,2.03-.36.33-.78.65-.56,1.25.14.39.25.78.36,1.18.38,1.48.81,2.94,1.17,4.43.13.55.09,1.14.08,1.71,0,.25-.17.21-.32.21-1.16,0-2.32,0-3.48.01Z"/><path class="cls-11" d="m292.07,73.94c-.09,0-.18.03-.22-.08.1-.05.17,0,.22.08Z"/><path class="cls-11" d="m291.6,73.81c-.07.09-.11.05-.14-.03.06-.03.1-.02.14.03Z"/><path class="cls-20" d="m287.28,76.93c.03.06.03.1-.03.14-.08-.07-.03-.1.03-.14Z"/><circle class="cls-3" cx="291.13" cy="71.47" r="39.02"/><path class="cls-23" d="m366.18,143.63c.5,0,.99.02,1.49.02.84,0,1.54.69,1.55,1.54,0,.78,0,1.56,0,2.33,0,6.58,0,13.16,0,19.75,0,.43-.02.86-.15,1.28-.15.49-.75.93-1.27.93-5.57,0-11.15,0-16.72,0-.03,0-.05,0-.08,0,0-1.51,0-3.03,0-4.54,1.16,0,2.32,0,3.48-.01.15,0,.32.04.32-.21,0-.57.05-1.16-.08-1.71-.36-1.48-.79-2.95-1.17-4.43-.1-.4-.22-.79-.36-1.18-.22-.61.19-.92.56-1.25.6-.55.85-1.24.99-2.03.3-1.66-1.1-3.65-2.68-4.16-.05-.09-.12-.13-.22-.08-.08-.02-.16-.04-.24-.05-.04-.05-.08-.07-.14-.03-.15-.02-.31-.04-.46-.07,0-2.01,0-4.03,0-6.04,2.86,0,5.71,0,8.57-.02.18,0,.36-.01.53-.02,1.02.03,2.04.05,3.07,0,1,.06,2,.04,3.01,0Z"/><path class="cls-15" d="m351,164.92c0,1.51,0,3.03,0,4.54-.57,0-1.15.01-1.72.01-4.86,0-9.72-.02-14.58.02-1.28.01-1.94-.69-1.94-1.94.04-7.44.03-14.88,0-22.32,0-.89.72-1.6,1.57-1.59.5,0,.99-.01,1.49-.02,1,.03,2,.05,3-.01,1.02.06,2.04.03,3.06.01.17,0,.33.02.5.02,2.87,0,5.74,0,8.61.01,0,2.01,0,4.03,0,6.04-.32.15-.68.08-1.02.21-1.42.55-2.36,1.51-2.7,3.02-.06.03-.11.07-.03.14-.11,1.25.02,2.39,1.14,3.22.35.26.49.65.35,1.14-.09.3-.2.59-.27.9-.2.84-.42,1.66-.64,2.49-.16.61-.35,1.22-.5,1.83-.15.61-.11,1.23-.13,1.85-.01.31.07.42.4.41,1.14-.02,2.27,0,3.41,0Z"/><path class="cls-20" d="m338.83,143.62c-1,.06-2,.04-3,.01,0-2.7-.02-5.41.02-8.11.02-1.25.19-2.49.55-3.71.44-1.46,1.06-2.83,1.9-4.1,1.05-1.58,2.35-2.94,3.9-4.05,1.02-.73,2.09-1.38,3.27-1.78,1.17-.41,2.35-.81,3.61-.9.71-.05,1.41-.16,2.12-.14,1.77.03,3.47.38,5.13,1,1.65.62,3.14,1.52,4.5,2.65,1.17.97,2.13,2.12,2.94,3.4.58.9,1.03,1.86,1.42,2.87.21.55.36,1.12.55,1.68.17.51.21,1.06.27,1.6.35,3.19.08,6.39.17,9.58-1,.04-2,.05-3,0,0-2.28-.02-4.57.01-6.85.02-1.31-.15-2.6-.47-3.87-.45-1.78-1.28-3.39-2.48-4.76-1.47-1.68-3.26-2.95-5.42-3.64-1.53-.49-3.08-.64-4.69-.54-1.49.09-2.89.44-4.22,1.06-2.21,1.03-3.95,2.61-5.24,4.69-1.11,1.79-1.72,3.76-1.8,5.84-.1,2.69-.02,5.38-.02,8.08Z"/><path class="cls-11" d="m360.11,143.63c0-2.42.02-4.85,0-7.27-.01-1.29-.19-2.56-.71-3.76-.41-.95-.96-1.81-1.64-2.6-1.01-1.18-2.27-1.99-3.7-2.51-1.32-.48-2.7-.64-4.13-.46-.87.11-1.71.31-2.49.65-2.18.95-3.78,2.51-4.77,4.69-.46,1.02-.65,2.09-.7,3.2-.13,2.69-.02,5.38-.06,8.06-1.02.02-2.04.04-3.06-.01,0-2.69-.08-5.39.02-8.08.08-2.08.68-4.05,1.8-5.84,1.29-2.08,3.03-3.66,5.24-4.69,1.33-.62,2.73-.97,4.22-1.06,1.61-.09,3.16.06,4.69.54,2.16.69,3.94,1.95,5.42,3.64,1.2,1.38,2.03,2.98,2.48,4.76.32,1.27.49,2.55.47,3.87-.03,2.28-.01,4.57-.01,6.85-1.02.05-2.04.04-3.07,0Z"/><path class="cls-17" d="m351,164.92c-1.14,0-2.27-.02-3.41,0-.33,0-.41-.1-.4-.41.02-.62-.01-1.25.13-1.85.15-.62.34-1.22.5-1.83.22-.83.44-1.66.64-2.49.07-.31.18-.6.27-.9.14-.49,0-.88-.35-1.14-1.12-.83-1.25-1.97-1.14-3.22.06-.03.06-.08.03-.14.34-1.51,1.28-2.47,2.7-3.02.34-.13.7-.05,1.02-.21.15.02.31.04.46.07.03.08.07.12.14.03.08.02.16.04.24.05.04.11.14.08.22.08,1.58.51,2.98,2.5,2.68,4.16-.14.79-.4,1.48-.99,2.03-.36.33-.78.65-.56,1.25.14.39.25.78.36,1.18.38,1.48.81,2.94,1.17,4.43.13.55.09,1.14.08,1.71,0,.25-.17.21-.32.21-1.16,0-2.32,0-3.48.01Z"/><path class="cls-11" d="m352.07,149.94c-.09,0-.18.03-.22-.08.1-.05.17,0,.22.08Z"/><path class="cls-11" d="m351.6,149.81c-.07.09-.11.05-.14-.03.06-.03.1-.02.14.03Z"/><path class="cls-20" d="m347.28,152.93c.03.06.03.1-.03.14-.08-.07-.03-.1.03-.14Z"/><circle class="cls-3" cx="351.13" cy="147.47" r="39.02"/><path class="cls-23" d="m79.18,251.63c.5,0,.99.02,1.49.02.84,0,1.54.69,1.55,1.54,0,.78,0,1.56,0,2.33,0,6.58,0,13.16,0,19.75,0,.43-.02.86-.15,1.28-.15.49-.75.93-1.27.93-5.57,0-11.15,0-16.72,0-.03,0-.05,0-.08,0,0-1.51,0-3.03,0-4.54,1.16,0,2.32,0,3.48-.01.15,0,.32.04.32-.21,0-.57.05-1.16-.08-1.71-.36-1.48-.79-2.95-1.17-4.43-.1-.4-.22-.79-.36-1.18-.22-.61.19-.92.56-1.25.6-.55.85-1.24.99-2.03.3-1.66-1.1-3.65-2.68-4.16-.05-.09-.12-.13-.22-.08-.08-.02-.16-.04-.24-.05-.04-.05-.08-.07-.14-.03-.15-.02-.31-.04-.46-.07,0-2.01,0-4.03,0-6.04,2.86,0,5.71,0,8.57-.02.18,0,.36-.01.53-.02,1.02.03,2.04.05,3.07,0,1,.06,2,.04,3.01,0Z"/><path class="cls-15" d="m64,272.92c0,1.51,0,3.03,0,4.54-.57,0-1.15.01-1.72.01-4.86,0-9.72-.02-14.58.02-1.28.01-1.94-.69-1.94-1.94.04-7.44.03-14.88,0-22.32,0-.89.72-1.6,1.57-1.59.5,0,.99-.01,1.49-.02,1,.03,2,.05,3-.01,1.02.06,2.04.03,3.06.01.17,0,.33.02.5.02,2.87,0,5.74,0,8.61.01,0,2.01,0,4.03,0,6.04-.32.15-.68.08-1.02.21-1.42.55-2.36,1.51-2.7,3.02-.06.03-.11.07-.03.14-.11,1.25.02,2.39,1.14,3.22.35.26.49.65.35,1.14-.09.3-.2.59-.27.9-.2.84-.42,1.66-.64,2.49-.16.61-.35,1.22-.5,1.83-.15.61-.11,1.23-.13,1.85-.01.31.07.42.4.41,1.14-.02,2.27,0,3.41,0Z"/><path class="cls-20" d="m51.83,251.62c-1,.06-2,.04-3,.01,0-2.7-.02-5.41.02-8.11.02-1.25.19-2.49.55-3.71.44-1.46,1.06-2.83,1.9-4.1,1.05-1.58,2.35-2.94,3.9-4.05,1.02-.73,2.09-1.38,3.27-1.78,1.17-.41,2.35-.81,3.61-.9.71-.05,1.41-.16,2.12-.14,1.77.03,3.47.38,5.13,1,1.65.62,3.14,1.52,4.5,2.65,1.17.97,2.13,2.12,2.94,3.4.58.9,1.03,1.86,1.42,2.87.21.55.36,1.12.55,1.68.17.51.21,1.06.27,1.6.35,3.19.08,6.39.17,9.58-1,.04-2,.05-3,0,0-2.28-.02-4.57.01-6.85.02-1.31-.15-2.6-.47-3.87-.45-1.78-1.28-3.39-2.48-4.76-1.47-1.68-3.26-2.95-5.42-3.64-1.53-.49-3.08-.64-4.69-.54-1.49.09-2.89.44-4.22,1.06-2.21,1.03-3.95,2.61-5.24,4.69-1.11,1.79-1.72,3.76-1.8,5.84-.1,2.69-.02,5.38-.02,8.08Z"/><path class="cls-11" d="m73.11,251.63c0-2.42.02-4.85,0-7.27-.01-1.29-.19-2.56-.71-3.76-.41-.95-.96-1.81-1.64-2.6-1.01-1.18-2.27-1.99-3.7-2.51-1.32-.48-2.7-.64-4.13-.46-.87.11-1.71.31-2.49.65-2.18.95-3.78,2.51-4.77,4.69-.46,1.02-.65,2.09-.7,3.2-.13,2.69-.02,5.38-.06,8.06-1.02.02-2.04.04-3.06-.01,0-2.69-.08-5.39.02-8.08.08-2.08.68-4.05,1.8-5.84,1.29-2.08,3.03-3.66,5.24-4.69,1.33-.62,2.73-.97,4.22-1.06,1.61-.09,3.16.06,4.69.54,2.16.69,3.94,1.95,5.42,3.64,1.2,1.38,2.03,2.98,2.48,4.76.32,1.27.49,2.55.47,3.87-.03,2.28-.01,4.57-.01,6.85-1.02.05-2.04.04-3.07,0Z"/><path class="cls-17" d="m64,272.92c-1.14,0-2.27-.02-3.41,0-.33,0-.41-.1-.4-.41.02-.62-.01-1.25.13-1.85.15-.62.34-1.22.5-1.83.22-.83.44-1.66.64-2.49.07-.31.18-.6.27-.9.14-.49,0-.88-.35-1.14-1.12-.83-1.25-1.97-1.14-3.22.06-.03.06-.08.03-.14.34-1.51,1.28-2.47,2.7-3.02.34-.13.7-.05,1.02-.21.15.02.31.04.46.07.03.08.07.12.14.03.08.02.16.04.24.05.04.11.14.08.22.08,1.58.51,2.98,2.5,2.68,4.16-.14.79-.4,1.48-.99,2.03-.36.33-.78.65-.56,1.25.14.39.25.78.36,1.18.38,1.48.81,2.94,1.17,4.43.13.55.09,1.14.08,1.71,0,.25-.17.21-.32.21-1.16,0-2.32,0-3.48.01Z"/><path class="cls-11" d="m65.07,257.94c-.09,0-.18.03-.22-.08.1-.05.17,0,.22.08Z"/><path class="cls-11" d="m64.6,257.81c-.07.09-.11.05-.14-.03.06-.03.1-.02.14.03Z"/><path class="cls-20" d="m60.28,260.93c.03.06.03.1-.03.14-.08-.07-.03-.1.03-.14Z"/><circle class="cls-3" cx="64.13" cy="255.47" r="39.02"/></svg>