<?xml version="1.0" encoding="UTF-8"?><svg id="Layer_1" xmlns="http://www.w3.org/2000/svg" viewBox="0 0 400 355"><defs><style>.cls-1{fill:#375e7d;}.cls-2,.cls-3,.cls-4,.cls-5,.cls-6,.cls-7,.cls-8{stroke-miterlimit:10;}.cls-2,.cls-9{fill:#fff;}.cls-2,.cls-8{stroke:#231f20;stroke-width:2px;}.cls-3{stroke:#a5262d;}.cls-3,.cls-4,.cls-5,.cls-6,.cls-7{stroke-width:4px;}.cls-3,.cls-4,.cls-5,.cls-6,.cls-7,.cls-8{fill:none;}.cls-10{fill:#7da1b1;}.cls-11{fill:#8fbac5;}.cls-4{stroke:#000;}.cls-12{fill:#90b9e0;}.cls-5{stroke:#0018c6;}.cls-13{fill:#727272;}.cls-14{fill:#d2d5d7;}.cls-15{fill:#2b4d66;}.cls-16{fill:#3a926c;}.cls-17{fill:#445367;}.cls-18{fill:#546e7a;}.cls-6{stroke:#c000e2;}.cls-19{fill:#f1f6f6;}.cls-20{fill:#626363;}.cls-21{fill:#453e43;}.cls-22{fill:#455368;}.cls-23{fill:#2b4e68;}.cls-24{fill:#364a5f;}.cls-25{fill:#d0cde6;}.cls-26{fill:#c9c9c9;}.cls-27{fill:#02f1a6;}.cls-28{fill:#2b506b;}.cls-7{stroke:#00b51e;}.cls-29{fill:#b63cdb;}.cls-30{fill:#90bae0;}.cls-31{fill:#93dbfe;}.cls-32{fill:#afd2ef;}.cls-33{fill:#e5e4ec;}.cls-34{fill:#ffed58;}.cls-35{fill:#fcd6ac;}.cls-36{fill:#685e66;}.cls-37{fill:#36464e;}.cls-38{fill:#22a5fc;}.cls-39{fill:#6f7070;}.cls-40{fill:#fde077;}.cls-41{fill:#fee077;}.cls-42{fill:#ddebf0;}.cls-43{fill:#0aaffe;}.cls-44{fill:#395f7e;}.cls-45{fill:#4582c2;}.cls-46{fill:#607890;}.cls-47{fill:#cbb293;}.cls-48{fill:#374b60;}.cls-49{fill:#fed05b;}.cls-50{fill:#d1d5d6;}.cls-51{fill:#fcd6ad;}.cls-52{fill:#788f9b;}.cls-53{fill:#fec345;}.cls-54{fill:#ff1d25;}.cls-55{fill:#636363;}.cls-56{fill:#8622fd;}.cls-57{fill:#0693fb;}.cls-58{fill:#fee078;}.cls-59{fill:#fd6220;}.cls-60{fill:#cee5ec;}.cls-61{fill:#fde6cd;}.cls-62{fill:#445368;}.cls-63{fill:#f8f6f7;}.cls-64{fill:#d0cde7;}.cls-65{fill:#fdd15b;}.cls-66{fill:#cbb292;}.cls-67{fill:#6ab579;}.cls-68{fill:#db411d;}.cls-69{fill:#fbd734;}.cls-70{fill:#dcd9ea;}.cls-71{fill:#ccf2ff;isolation:isolate;opacity:.5;}.cls-72{fill:#231f20;}.cls-73{fill:#2dbafe;}.cls-74{fill:#2c4d66;}.cls-75{fill:#e2c8aa;}</style></defs><circle class="cls-7" cx="346" cy="174.09" r="40.5"/><path d="m325.48,150.33c1.9,1.5,2.23,4.25.73,6.16-.11.15-.24.28-.37.41-1.68,2.08-4.73,2.4-6.81.72-.07-.06-.14-.12-.21-.18-2.06-1.85-2.23-5.03-.38-7.09,1.07-1.19,2.65-1.8,4.25-1.64l-.45,2.07c-.89-.09-1.77.27-2.34.96-1.02,1.08-.98,2.79.11,3.82.05.05.11.1.16.14,1.08,1.03,2.79.99,3.82-.08.08-.09.16-.18.23-.28.77-.71.99-1.84.54-2.79l-1.71,1.89-1.44-1.26,3.15-3.51.63.54.09.12Z"/><path d="m333.85,146.64c1.02,1.57.57,3.66-.99,4.68-.64.43-1.44.53-2.16.27l1.71,2.88-1.71.99-4.77-8.19,1.71-.99.36.54c.16-.75.66-1.38,1.35-1.71,1.67-.87,3.72-.22,4.59,1.44l-.09.09Zm-1.71.99c-.39-.78-1.35-1.09-2.13-.7-.04.02-.08.04-.12.07-.75.38-1.05,1.3-.67,2.05.04.07.08.14.13.2.39.78,1.35,1.09,2.13.7.04-.02.08-.04.12-.07.75-.38,1.05-1.3.67-2.05-.04-.07-.08-.14-.13-.2h0Z"/><path d="m341.32,143.76l.99,4.05-1.98.54-.99-3.69c-.07-.6-.61-1.02-1.21-.95-.08,0-.16.03-.23.05-.66.13-1.09.77-.95,1.43.01.07.03.13.05.19l.9,3.6-1.98.54-2.34-9.18,1.98-.54.81,3.24c.32-.64.92-1.11,1.62-1.26,1.32-.38,2.69.38,3.07,1.7.03.12.06.24.08.37l.18-.09Z"/><path d="m342.85,144.39c0-1.99,1.61-3.6,3.6-3.6,1.99,0,3.6,1.61,3.6,3.6,0,1.99-1.61,3.6-3.6,3.6-.03,0-.06,0-.09,0-1.95-.01-3.53-1.61-3.51-3.56,0-.01,0-.02,0-.04Zm5.13,0c.07-.82-.54-1.55-1.36-1.62-.06,0-.11,0-.17,0-.87-.02-1.59.66-1.62,1.53-.07.82.54,1.55,1.36,1.62.06,0,.11,0,.17,0,.87.02,1.59-.66,1.62-1.53Z"/><path d="m357.97,145.83l-1.17,3.96-1.98-.54,1.08-3.69c.24-.57-.02-1.22-.59-1.46-.07-.03-.14-.05-.22-.07-.62-.24-1.31.07-1.55.69-.04.1-.06.2-.07.3l-.99,3.51-1.98-.54,1.89-6.48,1.98.54-.18.63c.61-.42,1.38-.52,2.07-.27,1.35.36,2.16,1.62,1.62,3.42h.09Z"/><path d="m361.3,150.51c.4.25.88.35,1.35.27l.9,1.62c-1.96.68-4.1-.35-4.78-2.3-.36-1.02-.26-2.15.28-3.1.96-1.64,3.06-2.2,4.7-1.24.09.05.17.1.25.16,1.6.99,2.09,3.08,1.11,4.68-.04.06-.08.12-.12.18-.16.23-.34.44-.54.63l-4.05-2.52c-.13.69.25,1.36.9,1.62Zm2.34-1.44c.24-.81-.23-1.66-1.04-1.9-.48-.14-1-.04-1.39.28l2.43,1.53v.09Z"/><path d="m372.1,159.33c-1.38,1.06-3.35.81-4.42-.57-.06-.08-.12-.16-.17-.24-.96-1.07-1.11-2.64-.36-3.87l1.98.81c-.41.53-.41,1.27,0,1.8.54.72,1.17.72,1.62.36.45-.33.54-.96.21-1.41-.06-.08-.13-.15-.21-.21l-.27-.36.45-1.44h2.79l-2.07-2.7,1.62-1.26,3.69,4.86-1.44,1.08h-2.61c.44,1.13.08,2.42-.9,3.15h.09Z"/><path class="cls-29" d="m335.74,156.99h20.7c2.02-.02,3.67,1.6,3.69,3.62,0,.02,0,.05,0,.07v44.16c.02,2.02-1.6,3.67-3.62,3.69-.02,0-.05,0-.07,0h-20.7c-2.02.02-3.67-1.6-3.69-3.62,0-.02,0-.05,0-.07v-44.19c0-2.02,1.63-3.66,3.64-3.66.02,0,.03,0,.05,0Z"/><path class="cls-56" d="m356.44,156.99h-20.7c-2.02-.02-3.67,1.6-3.69,3.62,0,.02,0,.05,0,.07v44.16l28.08-44.19c0-2.02-1.63-3.66-3.64-3.66-.02,0-.03,0-.05,0Z"/><rect class="cls-16" x="334.93" y="159.96" width="22.32" height="42.03"/><path class="cls-9" d="m348.97,158.52c-.02.29-.25.52-.54.54h-4.77c-.29-.02-.52-.25-.54-.54h0c.02-.29.25-.52.54-.54h4.77c.29.02.52.25.54.54Z"/><path class="cls-9" d="m347.98,206.85h-.45c-.31-.02-.61-.08-.9-.18-.36,0-.72-.18-1.08-.18-.43-.04-.85-.13-1.26-.27h-.18c-.18,0-.18-.18-.18-.36.05-.22.14-.44.27-.63.13-.34.28-.67.45-.99.09-.18.27-.45.36-.63.18-.3.57-.39.86-.22.09.05.16.13.22.22.09.09.18.27.36.45.18.36.45.63.63.99l1.08,1.62v.18c0,.18,0,.27-.18.27v-.27Z"/><path class="cls-54" d="m348.16,173.82h-.45c-.34-.02-.67-.08-.99-.18-.4-.05-.79-.14-1.17-.27-.46-.05-.91-.14-1.35-.27h-.18c-.18,0-.18-.18-.18-.36s.18-.45.27-.63c.18-.36.27-.72.45-1.08.1-.22.22-.43.36-.63.22-.32.67-.4.99-.18.07.05.13.11.18.18.14.13.26.28.36.45.24.34.45.7.63,1.08.36.54.72,1.17,1.08,1.71v.18c0,.18,0,.27-.18.27l.18-.27Z"/><path class="cls-54" d="m348.97,165.63h.18c.18,0,.18.09.18.27s-.09.18-.18.27c-.45.54-.81,1.08-1.26,1.53-.36.47-.75.92-1.17,1.35-.2.2-.45.35-.72.45-.31.04-.63-.03-.9-.18-.17-.11-.29-.26-.36-.45-.36-.54-.72-1.08-1.08-1.71-.13-.25-.28-.49-.45-.72h0c-.09-.18,0-.27.18-.27.75-.02,1.5-.08,2.25-.18.66-.02,1.32-.08,1.98-.18h1.44l-.09-.18Z"/><path d="m342.49,188.4c.52.14.96.46,1.26.9.28.43.44.93.45,1.44.07.8-.27,1.58-.9,2.07-.63.46-1.38.72-2.16.72-.66.01-1.31-.14-1.89-.45-.53-.35-.94-.85-1.17-1.44l1.89-1.08c.09.56.6.95,1.17.9.63,0,.54,0,.72-.18.16-.14.26-.33.27-.54,0-.18,0-.45-.27-.54s-.36-.18-.72-.18h-.45l-.81-1.26,1.35-1.62h-2.79v-2.1h5.49v1.71l-1.44,1.71v-.06Z"/><path d="m353.65,188.49v.9c.07,1.11-.36,2.2-1.17,2.97-.81.8-1.92,1.23-3.06,1.17-1.2.02-2.37-.43-3.24-1.26-.83-.84-1.28-1.97-1.26-3.15,0-1.17.45-2.3,1.26-3.15.84-.83,1.97-1.28,3.15-1.26.76-.08,1.52.11,2.16.54.63.33,1.16.83,1.53,1.44l-1.8,1.08c-.2-.26-.44-.47-.72-.63-.33-.18-.7-.28-1.08-.27-1.27.03-2.27,1.08-2.25,2.34.01.57.24,1.11.63,1.53.47.49,1.12.75,1.8.72.81.04,1.58-.38,1.98-1.08h-2.07v-1.89h4.14Z"/><polygon class="cls-71" points="334.93 201.99 334.93 159.96 357.25 159.96 334.93 201.99"/><circle class="cls-7" cx="54" cy="174.09" r="40.5"/><path d="m33.48,150.87c1.9,1.5,2.23,4.25.73,6.16-.11.15-.24.28-.37.41-1.68,2.08-4.73,2.4-6.81.72-.07-.06-.14-.12-.21-.18-2.06-1.85-2.23-5.03-.38-7.09,1.07-1.19,2.65-1.8,4.25-1.64l-.45,2.07c-.9-.08-1.77.29-2.34.99-1.02,1.08-.98,2.79.11,3.82.05.05.11.1.16.14,1.08,1.03,2.79.99,3.82-.08.08-.09.16-.18.23-.28.77-.71.99-1.84.54-2.79l-1.71,1.89-1.44-1.26,3.15-3.51.63.54.09.09Z"/><path d="m41.85,147.18c1.02,1.57.57,3.66-.99,4.68-.64.43-1.44.53-2.16.27l1.71,2.88-1.71.99-4.77-8.19,1.71-.99.36.54c.16-.75.66-1.38,1.35-1.71,1.67-.87,3.72-.22,4.59,1.44l-.09.09Zm-1.71.99c-.39-.78-1.35-1.09-2.13-.7-.04.02-.08.04-.12.07-.75.38-1.05,1.3-.67,2.05.04.07.08.14.13.2.39.78,1.35,1.09,2.13.7.04-.02.08-.04.12-.07.75-.38,1.05-1.3.67-2.05-.04-.07-.08-.14-.13-.2Z"/><path d="m49.32,144.3l.99,4.05-1.98.54-.99-3.69c-.07-.6-.61-1.02-1.21-.95-.08,0-.16.03-.23.05-.66.13-1.09.77-.95,1.43.01.07.03.13.05.19l.9,3.6-1.98.54-2.34-9.18,1.98-.54.81,3.24c.32-.64.92-1.11,1.62-1.26,1.32-.38,2.69.38,3.07,1.7.03.12.06.24.08.37l.18-.09Z"/><path d="m50.85,144.84c0-1.99,1.61-3.6,3.6-3.6,1.99,0,3.6,1.61,3.6,3.6,0,1.99-1.61,3.6-3.6,3.6-.03,0-.06,0-.09,0-1.95-.01-3.53-1.61-3.51-3.56,0-.01,0-.02,0-.04Zm5.13,0c.07-.82-.54-1.55-1.36-1.62-.06,0-.11,0-.17,0-.87-.02-1.59.66-1.62,1.53-.07.82.54,1.55,1.36,1.62.06,0,.11,0,.17,0,.87.02,1.59-.66,1.62-1.53Z"/><path d="m65.97,146.28l-1.17,3.96-1.98-.54,1.08-3.69c.24-.57-.02-1.22-.59-1.46-.07-.03-.14-.05-.22-.07-.62-.24-1.31.07-1.55.69-.04.1-.06.2-.07.3l-.99,3.51-1.98-.54,1.89-6.48,1.98.54-.18.63c.61-.42,1.38-.52,2.07-.27,1.35.36,2.16,1.62,1.62,3.42h.09Z"/><path d="m69.3,151.05c.4.25.88.35,1.35.27l.9,1.62c-1.96.68-4.1-.35-4.78-2.3-.36-1.02-.26-2.15.28-3.1.96-1.64,3.06-2.2,4.7-1.24.09.05.17.1.25.16,1.6.99,2.09,3.08,1.11,4.68-.04.06-.08.12-.12.18-.16.23-.34.44-.54.63l-4.05-2.52c-.13.69.25,1.36.9,1.62Zm2.34-1.44c.24-.81-.23-1.66-1.04-1.9-.48-.14-1-.04-1.39.28l2.43,1.53v.09Z"/><path d="m74.88,155.37l4.5.54c.64.12,1.31.02,1.89-.27.45-.33.54-.97.2-1.41,0,0-.01-.02-.02-.03-.38-.5-1.04-.69-1.62-.45l-.27-2.07c1.34-.32,2.75.18,3.6,1.26,1.1,1.29.94,3.23-.35,4.33-.03.03-.07.06-.1.08-.94.66-2.12.89-3.24.63l-2.25-.27,1.89,2.52-1.62,1.26-3.96-5.13,1.26-.99h.09Z"/><path class="cls-68" d="m43.74,156.95h20.7c2.02-.02,3.67,1.6,3.69,3.62,0,.02,0,.05,0,.07v44.19c.02,2.02-1.6,3.67-3.62,3.69-.02,0-.05,0-.07,0h-20.7c-2.02.02-3.67-1.6-3.69-3.62,0-.02,0-.05,0-.07v-44.19c-.02-2.02,1.6-3.67,3.62-3.69.02,0,.05,0,.07,0Z"/><path class="cls-59" d="m64.44,156.95h-20.7c-2.02-.02-3.67,1.6-3.69,3.62,0,.02,0,.05,0,.07v44.19l28.08-44.19c.02-2.02-1.6-3.67-3.62-3.69-.02,0-.05,0-.07,0Z"/><rect class="cls-26" x="42.39" y="163.47" width="23.31" height="34.92"/><path class="cls-9" d="m56.97,158.52c-.02.29-.25.52-.54.54h-4.77c-.29-.02-.52-.25-.54-.54h0c.02-.29.25-.52.54-.54h4.77c.29.02.52.25.54.54Z"/><path class="cls-9" d="m55.98,204.87h-.45c-.31-.02-.61-.08-.9-.18-.36,0-.72-.18-1.08-.18-.43-.04-.85-.13-1.26-.27h-.18c-.18,0-.18-.18-.18-.36.05-.22.14-.44.27-.63.13-.34.28-.67.45-.99.09-.18.27-.45.36-.63.18-.3.57-.39.86-.22.09.05.16.13.22.22.09.09.18.27.36.45.18.36.45.63.63.99l1.08,1.62v.18c0,.18,0,.27-.18.27v-.27Z"/><path class="cls-9" d="m48.42,201.54c0,.09-.18.27-.27.36l-.54.81c-.18.27-.45.63-.63.9l-.81,1.08c0,.07-.04.13-.09.18-.1.09-.26.09-.36,0-.18-.18-.27-.36-.45-.54s-.45-.54-.72-.81c-.17-.19-.32-.41-.45-.63-.2-.3-.13-.7.17-.9.06-.04.12-.07.19-.09.18,0,.36-.09.54-.09.4-.02.79-.08,1.17-.18.64-.05,1.27-.14,1.89-.27h.18c.18,0,.27.09.18.27v-.09Z"/><path class="cls-9" d="m59.58,201c.13-.01.25.02.36.09l.9.27c.36.09.72.27,1.08.36s.81.27,1.26.45h.18c.18,0,.18.18.09.36s-.27.36-.36.54c-.18.32-.39.62-.63.9-.18.18-.27.36-.45.54-.28.3-.74.31-1.04.04-.01-.01-.03-.02-.04-.04-.09-.18-.18-.27-.27-.45l-.54-1.08c-.27-.54-.54-1.17-.81-1.71v-.22c0-.18,0-.27.27-.27v.22Z"/><path class="cls-54" d="m56.16,173.82h-.45c-.34-.02-.67-.08-.99-.18-.4-.05-.79-.14-1.17-.27-.46-.05-.91-.14-1.35-.27h-.18c-.18,0-.18-.18-.18-.36s.18-.45.27-.63c.18-.36.27-.72.45-1.08.1-.22.22-.43.36-.63.22-.32.67-.4.99-.18.07.05.13.11.18.18.14.13.26.28.36.45.24.34.45.7.63,1.08.36.54.72,1.17,1.08,1.71v.18c0,.18,0,.27-.18.27l.18-.27Z"/><path class="cls-54" d="m56.97,165.63h.18c.18,0,.18.09.18.27s-.09.18-.18.27c-.45.54-.81,1.08-1.26,1.53-.36.47-.75.92-1.17,1.35-.2.2-.45.35-.72.45-.31.04-.63-.03-.9-.18-.17-.11-.29-.26-.36-.45-.36-.54-.72-1.08-1.08-1.71-.13-.25-.28-.49-.45-.72h0c-.09-.18,0-.27.18-.27.75-.02,1.5-.08,2.25-.18.66-.02,1.32-.08,1.98-.18h1.44l-.09-.18Z"/><path d="m47.07,193.35v-1.53l2.79-2.97c.27-.27.45-.54.63-.72.1-.16.16-.35.18-.54.03-.2-.04-.4-.18-.54-.16-.11-.35-.18-.54-.18-.55,0-1.03.37-1.17.9l-1.89-1.08c.23-.59.64-1.09,1.17-1.44.54-.34,1.17-.49,1.8-.45.75,0,1.48.26,2.07.72.58.5.91,1.22.9,1.98.06.48-.07.96-.36,1.35-.29.48-.62.93-.99,1.35l-1.17,1.17h2.61v2.07h-5.94l.09-.09Z"/><path d="m62.1,188.45v.9c.07,1.11-.36,2.2-1.17,2.97-.81.8-1.92,1.23-3.06,1.17-1.2.02-2.37-.43-3.24-1.26-.83-.84-1.28-1.97-1.26-3.15,0-1.17.45-2.3,1.26-3.15.84-.83,1.97-1.28,3.15-1.26.76-.08,1.52.11,2.16.54.63.33,1.16.83,1.53,1.44l-1.8,1.08c-.2-.26-.44-.47-.72-.63-.33-.18-.7-.28-1.08-.27-1.27.03-2.27,1.08-2.25,2.34.01.57.24,1.11.63,1.53.47.49,1.12.75,1.8.72.81.04,1.58-.38,1.98-1.08h-2.07v-1.89h4.14Z"/><polygon class="cls-71" points="42.3 197.49 42.3 163.29 65.52 163.29 42.3 197.49"/><line class="cls-9" x1="251.56" y1="174.45" x2="298.94" y2="173.73"/><line class="cls-8" x1="251.56" y1="174.45" x2="288.18" y2="173.89"/><polygon class="cls-72" points="286.11 181.4 298.94 173.73 285.88 166.45 286.11 181.4"/><line class="cls-9" x1="101.06" y1="174.45" x2="148.44" y2="173.73"/><line class="cls-8" x1="111.82" y1="174.29" x2="148.44" y2="173.73"/><polygon class="cls-72" points="114.12 181.73 101.06 174.45 113.89 166.77 114.12 181.73"/><circle class="cls-6" cx="200" cy="174.09" r="45"/><path d="m166.6,158.49c1.87.7,2.82,2.79,2.11,4.66,0,.01,0,.03-.01.04l-.6,1.5,3.1,1.2-.8,2.2-9.8-3.7,1.4-3.7c.69-1.91,2.79-2.89,4.7-2.2h-.1Zm-.8,2.2c-.6-.3-1.34-.06-1.64.55-.02.05-.05.1-.06.15l-.5,1.5,2.5.9.6-1.5c.26-.67-.08-1.42-.75-1.68-.02,0-.04-.01-.05-.02l-.1.1Z"/><path d="m173.8,151.99l3.7,2.7-1.3,1.8-3.5-2.5c-.64-.41-1.49-.24-1.9.4-.41.64-.24,1.49.4,1.9h0l3.3,2.4-1.3,1.8-8.5-6.2,1.3-1.8,3,2.2c-.17-.8.01-1.64.5-2.3.98-1.29,2.83-1.55,4.12-.56.03.02.05.04.08.06l.1.1Z"/><path d="m175.6,151.29c-1.39-1.71-1.14-4.23.58-5.63,1.71-1.39,4.23-1.14,5.63.58,1.39,1.71,1.14,4.23-.58,5.63,0,0-.02.01-.03.02-1.72,1.37-4.21,1.1-5.6-.6Zm4.4-3.6c-.6-.77-1.71-.91-2.48-.31,0,0-.01,0-.02.01-.74.54-.9,1.58-.35,2.32.05.06.1.12.15.18.6.77,1.71.91,2.48.31,0,0,.01,0,.02-.01.74-.55.89-1.59.34-2.32-.05-.06-.1-.12-.15-.18h0Z"/><path d="m189.4,141.89l1.8,4.2-2.1.9-1.7-3.9c-.18-.62-.82-.98-1.44-.81-.09.03-.17.06-.26.11-.8.3-1.1,1-.7,2l1.6,3.8-2.1.9-3-6.9,2.1-.9.3.6c.21-.8.81-1.44,1.6-1.7,1.43-.62,3.09.04,3.71,1.46.03.08.06.16.09.24h.1Z"/><path d="m195.6,143.59c.55-.01,1.04-.32,1.3-.8l1.9.8c-.98,2.02-3.42,2.86-5.44,1.88-2.02-.98-2.86-3.42-1.88-5.44.58-1.19,1.71-2.03,3.02-2.24,2.03-.33,3.94,1.05,4.26,3.08.02.11.03.21.04.32v.9l-5.3.8c.39.65,1.16.97,1.9.8l.2-.1Zm1-2.9c-.29-.66-.99-1.03-1.7-.9-.75.05-1.35.65-1.4,1.4l3.2-.5h-.1Z"/><path d="m200.8,139.39l5.7.6-.2,2.2-5.7-.6.2-2.1v-.1Z"/><path d="m215.9,144.89c-.6,1.98-2.69,3.11-4.67,2.51,0,0-.02,0-.03,0-.8-.25-1.46-.83-1.8-1.6l-.2.7-2.1-.8,3.6-9.8,2.1.8-1.3,3.5c.75-.4,1.65-.4,2.4,0,1.92.84,2.81,3.07,2,5v-.3Zm-2.1-.8c.41-.79.11-1.76-.68-2.17-.1-.05-.21-.1-.32-.13-.83-.39-1.81-.03-2.19.8-.05.1-.08.2-.11.3-.41.79-.11,1.76.68,2.17.1.05.21.1.32.13.83.39,1.81.03,2.19-.8.05-.1.08-.2.11-.3Z"/><path d="m216.99,145.49c1.26-1.73,3.69-2.12,5.42-.86.03.02.05.04.08.06,1.74,1.29,2.14,3.72.9,5.5-1.51,1.61-4.05,1.68-5.65.17-1.34-1.26-1.64-3.27-.75-4.87Zm4.6,3.4c.58-.74.45-1.81-.28-2.39,0,0-.01,0-.02-.01-.67-.57-1.67-.49-2.24.18-.06.07-.11.14-.16.22-.58.74-.45,1.81.28,2.39,0,0,.01,0,.02.01.67.57,1.67.5,2.24-.17.06-.07.12-.15.17-.23h0Z"/><path d="m234.6,153.29l-8.3,6.5-1.4-1.8.6-.4c-.86-.03-1.64-.48-2.1-1.2-1.17-1.72-.77-4.06.9-5.3,1.5-1.36,3.81-1.25,5.17.25.04.05.09.1.13.15.53.64.79,1.47.7,2.3l2.9-2.3,1.4,1.8Zm-6.7,2.4c.76-.48.99-1.48.51-2.23-.06-.1-.13-.19-.21-.27-.53-.76-1.57-.96-2.34-.43-.06.04-.11.08-.16.13-.76.48-.99,1.48-.51,2.23.06.1.13.19.21.27.53.76,1.57.96,2.34.43.06-.04.11-.08.16-.13h0Z"/><path d="m236.5,164.29l-7.7.5c-2.5.2-3.9-.7-4.6-2.7l1.9-.8c.19.85,1.03,1.39,1.88,1.2,0,0,.01,0,.02,0l5.4-5.5,1,2.3-3.6,3.3,4.8-.5.9,2.2h0Z"/><path d="m231.2,166.69l4.2,2.9c.54.51,1.26.79,2,.8.55-.03.97-.5.95-1.05,0-.08-.02-.17-.05-.25-.13-.7-.7-1.23-1.4-1.3l.8-2.2c1.48.36,2.59,1.59,2.8,3.1.41,1.78-.7,3.55-2.48,3.96-.07.02-.15.03-.22.04-1.27.12-2.53-.28-3.5-1.1l-2-1.4.6,3.5-2.3.4-1.1-7.1,1.7-.3Z"/><path class="cls-55" d="m205.4,158.29h6.1c1.79.11,3.24,1.51,3.4,3.3v41.4c.12,1.69-.9,3.24-2.5,3.8-.36.11-.73.17-1.1.2h-22.6c-2.03-.03-3.67-1.67-3.7-3.7v-4h1.8v4c-.06,1,.71,1.85,1.71,1.91.1,0,.2,0,.29,0h22.19c1.04.06,1.94-.73,2-1.77,0-.08,0-.15,0-.23v-41c.07-1.03-.7-1.92-1.74-2-.05,0-.11,0-.16,0h-4.6c0-.8-.69-1.3-1.09-1.9Z"/><path class="cls-13" d="m205.4,158.29c.4.6,1,1.1,1.1,1.8h-17.3c-1.7,0-2.4.7-2.4,2.4v36.7h-1.81v-36.9c-.11-1.6.81-3.09,2.3-3.7.4-.2.85-.31,1.3-.3h16.81Z"/><path class="cls-73" d="m186.8,199.29v-36.7c0-1.7.7-2.4,2.4-2.4h17.4v36c.06,1.66-1.24,3.04-2.9,3.1-.03,0-.07,0-.1,0h-16.8,0Zm13.1-33.5h3.6c1.05.05,1.94-.75,2-1.8.02-1.03-.8-1.89-1.84-1.9-.05,0-.11,0-.16,0h-7.2c-1.05-.05-1.94.75-2,1.8-.02,1.03.8,1.89,1.84,1.9.05,0,.11,0,.16,0h3.6Zm-4.2,22.9c.23-.04.43-.14.6-.3l9.2-9.2c.24-.19.36-.5.3-.8-.1-.3-.2-.6-.6-.7-.39-.11-.81,0-1.1.3l-9.11,9.1-.2.2c-.2.27-.2.63,0,.9.19.31.53.5.9.5h.01Zm5.7-11.1c-.04-.38-.26-.72-.6-.9-.5-.2-.8,0-1.1.4l-5.5,5.5c-.5.5-.5,1.1,0,1.4s1,.4,1.4,0c1.9-1.8,3.7-3.7,5.6-5.5.19-.2.33-.44.4-.7h0l-.2-.2Z"/><path class="cls-43" d="m186.9,199.29h16.7c1.61.05,2.95-1.21,3-2.81,0-.1,0-.19,0-.29v-36h4.5c1-.06,1.85.71,1.91,1.71,0,.1,0,.2,0,.29v41c.06,1.04-.73,1.94-1.77,2-.08,0-.15,0-.23,0h-22.2c-1.06.04-1.95-.78-2-1.84,0-.02,0-.04,0-.06v-4h.1Zm13.1,3.1h-5.4c-.7,0-1.2.3-1.2.9,0,.55.44,1,.99,1.01.04,0,.07,0,.11,0h10.8c.7,0,1.2-.4,1.1-.9-.08-.58-.62-.98-1.2-.9,0,0,0,0,0,0h-5.4l.2-.1Z"/><path class="cls-39" d="m199.9,165.79h-3.6c-1.03.07-1.92-.7-2-1.74,0-.05,0-.11,0-.16-.01-.99.78-1.8,1.77-1.81.08,0,.16,0,.23.01h7.2c1.03-.07,1.92.7,2,1.74,0,.05,0,.11,0,.16-.02,1.02-.86,1.82-1.87,1.81-.04,0-.08,0-.13,0h-3.6Z"/><path class="cls-31" d="m195.7,188.69c-.37,0-.71-.19-.9-.5-.14-.28-.14-.62,0-.9l.2-.2,9.1-9.1c.29-.29.71-.41,1.1-.3.4.1.5.4.6.7.11.3-.02.64-.3.8l-9.2,9.2c-.15.18-.37.29-.6.3Z"/><path class="cls-20" d="m199.9,202.29h5.4c.7,0,1.2.3,1.2.9s-.4.9-1.1.9h-10.8c-.7,0-1.2-.4-1.1-1s.4-.9,1.2-.9h5.4l-.2.1Z"/><path d="m190.4,196.39v-4.8l8.6-9.1c.71-.7,1.34-1.47,1.9-2.3.36-.5.57-1.09.6-1.7,0-.59-.21-1.16-.6-1.6-.46-.42-1.08-.63-1.7-.6-1.5,0-2.7.9-3.5,2.7l-5.7-3.2c.75-1.81,2.04-3.35,3.7-4.4,3.66-2.23,8.33-1.95,11.7.7,1.76,1.48,2.72,3.7,2.6,6,.13,1.49-.26,2.97-1.1,4.2-.83,1.48-1.88,2.83-3.1,4l-3.5,3.7h8.1v6.4h-18Z"/><circle class="cls-3" cx="40.69" cy="44.99" r="36.45"/><path class="cls-74" d="m61.75,61.44c-.21.75-.53,1.46-.97,2.11-.88,1.22-2.3,1.95-3.81,1.94h-4.37c-.73,0-.81-.16-.81-.89v-1.38c1.57.05,3.13.03,4.7-.08.82-.03,1.59-.41,2.11-1.05.68-1.03,1.01-2.25.97-3.48h2.27v2.83h-.08Z"/><path class="cls-25" d="m61.75,58.6h-2.15v-12.39h2.19v12.39h-.03Z"/><path class="cls-74" d="m61.75,46.13h-2.15v-2.19c-.04-1.45-.76-2.81-1.94-3.65-.63-.4-1.31-.73-2.02-.97,1.44-.2,2.9.11,4.13.89,1.02.74,1.72,1.84,1.94,3.08l.08.08-.03,2.75Z"/><path class="cls-33" d="m21.33,54.39h-3.81c-.91.09-1.79-.35-2.27-1.13-.04-.04-.1-.07-.16-.08v-1.3h.08c.42.65,1.18,1,1.94.89h4.13c.12.23.12.5,0,.73-.08.24-.16.4,0,.65v.24h.08Z"/><path class="cls-38" d="m31.38,40.62c.54-.04,1.08-.04,1.62,0h15.88v19.12c.03.54-.25,1.04-.73,1.3,0-.73-.24-.97-.97-.97h-11.5c-.65,0-.89.32-.81.97h-3.56v-20.33l.08-.08Zm10.21,11.1h-5.59c-.73,0-1.13.24-1.05.73s.41.73,1.05.73h11.66c.32,0,.57-.41.57-.73h0c-.01-.32-.25-.59-.57-.65h-5.99l-.08-.08Zm0-6.89h5.75c.57,0,.81-.24.81-.65s-.24-.73-.89-.73h-11.5c-.24,0-.57,0-.73.24-.19.2-.22.5-.08.73.1.3.42.48.73.4h5.91Zm0,4.13h5.86c.28.03.56-.1.73-.32.12-.23.12-.5,0-.73-.16-.24-.49-.24-.81-.24h-11.86c-.34.11-.55.46-.49.81h0c.11.35.44.58.81.57h5.75v-.08Zm0,8.26h5.75c.19.01.39-.01.57-.08.26-.18.38-.5.32-.81-.07-.33-.39-.55-.73-.49h-11.66c-.33-.04-.65.12-.81.41-.24.57.16.97.73.97h5.83Z"/><path class="cls-1" d="m55.55,39.33c.72.22,1.4.55,2.03.97,1.14.88,1.85,2.21,1.94,3.65v2.19h-1.54c-.5,0-.9.4-.9.89,0,.05,0,.11.01.16h0v10.37c-.06.52.3.98.82,1.05.02,0,.05,0,.07,0h1.46c.04,1.23-.3,2.45-.97,3.48-.53.63-1.29,1.01-2.11,1.05-1.56.11-3.13.14-4.7.08v-22.76c0-1.38.24-1.21,1.3-1.21h2.51l.08.08Z"/><path class="cls-57" d="m51.71,40.46v23.81h-16.52c-.16-.08-.32,0-.49,0h-2.84c-.16,0-.32,0-.41-.16v-3.08h3.48c.16.34.52.53.89.49h11.42c.38,0,.75-.17.97-.49.5-.22.8-.75.73-1.3v-19.12c.89-.08,1.86,0,2.84,0l-.08-.16Z"/><path class="cls-1" d="m31.38,40.62v20.41h-.94c-1.76-.32-3.3-1.35-4.29-2.84-.48-.8-.81-1.68-.97-2.59v-7.94c-.08-.76,0-1.54.24-2.27.64-2.82,3.19-4.79,6.07-4.7l-.11-.08Z"/><path class="cls-44" d="m33,34.38h-.65c-.49,0-.89-.24-.89-.73v-1.94c0-.81.24-1.05,1.05-1.05h8.91c.41.4.57.99.4,1.54v.73c.13.54-.06,1.1-.49,1.46h-8.34Z"/><path class="cls-64" d="m33,34.38h9.8v6.16h-2.35v-2.43c0-.16,0-.32-.16-.4v-.32c.32-.57.16-.81-.49-.81h-6.8v-2.19Z"/><path class="cls-70" d="m40.29,37.62c.16.08.16.24.16.41v2.43h-7.45v-4.05h6.89c.65,0,.73.24.49.81-.24-.57-.57-.65-.97-.49-.33.16-.47.56-.32.89.1.2.28.34.49.41.38.1.77-.11.89-.49l-.16.08Zm-4.13-.89c-.36.03-.66.29-.73.65,0,.4.33.73.73.73.4,0,.73-.33.73-.73,0-.4-.33-.73-.73-.73h0v.08Z"/><path class="cls-70" d="m25.06,47.59v7.45h-1.78c-.6,0-1.16-.27-1.54-.73,0-.13-.11-.24-.24-.24-.16-.24,0-.41,0-.65.04-.24.04-.49,0-.73v-3.81c.07-.79.74-1.39,1.54-1.38h2.11l-.08.08Z"/><path class="cls-63" d="m21.33,50.42v2.35h-4.13c-.78.07-1.54-.3-1.94-.97.33-.9,1.23-1.47,2.19-1.38h3.89Z"/><path class="cls-74" d="m42.8,34.38h-1.46c.38-.38.56-.92.49-1.46v-.73c.12-.56-.06-1.15-.49-1.54h2.19c.45-.04.84.28.89.72,0,.03,0,.06,0,.09v1.94c0,.73-.32,1.05-1.05,1.05h-.57v-.08Z"/><path class="cls-70" d="m47.25,69.86h1.22c.48.5.7,1.19.6,1.87v.73c-.01.34-.16.66-.4.89,0,0-.24.08-.24.24-6.89-.16-13.77,0-20.65,0s-1.38-.49-1.3-1.3v-1.38c-.03-.55.4-1.03.95-1.05,0,0,.01,0,.02,0h19.85-.03Z"/><path class="cls-74" d="m25.06,55.53c.17.92.5,1.79.97,2.59.99,1.49,2.54,2.51,4.29,2.84h.97v3.32c-2.96-.03-5.53-2.06-6.24-4.94-.09-.7-.15-1.4-.16-2.11v-1.7h.16Z"/><path class="cls-23" d="m31.38,64.27v-.24c.08.24.32.16.49.16h3.32v5.59h-1.7v-3.32c0-.49-.08-.65-.65-.65h-1.38v-1.62l-.08.08Z"/><path class="cls-15" d="m47.25,69.86h-1.62v-3.48c.03-.28-.17-.53-.45-.57-.04,0-.08,0-.12,0h-1.54v-1.62c.62-.04,1.24-.04,1.86,0h1.86v5.67Z"/><path class="cls-25" d="m48.39,73.67c0-.16.16-.16.24-.24.26-.23.41-.54.44-.88v-.73c.18-.68-.04-1.4-.57-1.86h2.59c.62-.03,1.16.43,1.22,1.05v1.46c.08.64-.34,1.24-.97,1.38h-2.92l-.03-.17Z"/><path class="cls-25" d="m25.06,55.53v1.7h-2.02c-.9.02-1.67-.65-1.78-1.54v-1.22c.08,0,0-.16.08-.24s.16.16.24.24c.37.47.94.75,1.54.73h1.78v.41l.16-.08Z"/><path class="cls-1" d="m31.46,65.81h1.41c.49,0,.65.16.65.65-.08,1.13-.08,2.27,0,3.4h-1.94v-4.05h-.11Z"/><path class="cls-70" d="m59.48,58.6h-1.3c-.52.06-.98-.3-1.05-.82,0-.02,0-.05,0-.07v-10.53c-.06-.52.3-.98.82-1.05.02,0,.05,0,.07,0h1.57v12.39h0l-.11.08Z"/><path class="cls-28" d="m48.26,60.95c-.19.31-.53.5-.89.49h-11.45c-.37.03-.72-.16-.89-.49,0-.65.16-.97.81-.97h11.42c.73,0,1,.24,1,.97Z"/><path class="cls-28" d="m41.58,51.64h5.99c.32,0,.57.32.65.65.02.35-.22.66-.57.73h-11.66c-.65,0-1.05-.24-1.05-.73s.32-.73,1.05-.73h5.59v.08Z"/><path class="cls-15" d="m41.58,44.75h-5.83c-.3.02-.59-.14-.73-.41-.05-.25-.03-.5.08-.73.17-.23.46-.33.73-.24h11.5c.57,0,.89.24.89.73s-.24.65-.81.65h-5.83Z"/><path class="cls-15" d="m41.58,48.96h-5.75c-.37.02-.7-.22-.81-.57-.1-.34.1-.7.45-.8.01,0,.03,0,.04,0h11.83c.29-.05.59.04.81.24.16.22.16.51,0,.73-.16.25-.43.41-.73.4h-5.83Z"/><path class="cls-15" d="m41.58,57.23h-5.83c-.65,0-.97-.49-.73-.97.14-.31.48-.48.81-.41h11.66c.35-.03.67.17.81.49.11.31-.03.66-.32.81-.18.07-.37.09-.57.08h-5.83Z"/><path class="cls-28" d="m40.29,37.62c-.1.37-.48.6-.85.5-.01,0-.03,0-.04-.01-.35-.08-.57-.42-.5-.77,0-.01,0-.03,0-.04,0-.24.17-.44.4-.49.41-.16.73,0,.97.49v.32Z"/><path class="cls-28" d="m36.15,36.73c.4,0,.73.32.73.73,0,.4-.32.73-.73.73h0c-.4,0-.73-.33-.73-.73,0-.37.31-.66.68-.65.02,0,.03,0,.05,0v-.08Z"/><path class="cls-44" d="m43.61,69.86v-3.97h1.54c.4,0,.57.16.57.57v3.48h-2.11v-.08Z"/><path d="m7.97,43.54l.32-1.94,6.08-.81-5.51-2.67.32-1.94,7.45,3.89-.4,2.27-8.26,1.3v-.08Z"/><path d="m10.48,35.19c-.51-.2-.76-.78-.56-1.29.2-.51.78-.76,1.29-.56.51.2.76.78.56,1.29-.19.51-.76.77-1.27.58,0,0-.02,0-.02,0Zm1.46.41l.57-1.62,5.35,1.94-.57,1.62-5.35-1.94Z"/><path d="m18.82,28.31c1.38.72,1.91,2.42,1.19,3.79-.02.03-.03.06-.05.09-.3.56-.83.95-1.46,1.05l.49.24-.89,1.46-6.8-4.13.89-1.46,2.43,1.46c-.16-.6-.07-1.24.24-1.78.88-1.31,2.65-1.67,3.97-.81v.08Zm-.89,1.46c-.6-.41-1.41-.25-1.82.34-.01.02-.03.04-.04.06-.4.58-.24,1.38.34,1.78.05.03.1.06.15.09.6.41,1.41.25,1.82-.34.01-.02.03-.04.04-.06.4-.58.24-1.38-.34-1.78-.05-.03-.1-.06-.15-.09Z"/><path d="m19.91,23.04l1.38,1.3c-.63.37-.84,1.19-.47,1.82.06.11.14.2.23.29l1.86,1.78-1.13,1.22-4.13-3.89,1.13-1.22.73.73c-.35-.67-.21-1.49.32-2.02h.08Z"/><path d="m25.71,18.75l3.24,4.62-1.38.97-.32-.4c-.03.65-.4,1.23-.97,1.54-1.32.85-3.09.47-3.94-.85,0-.01-.02-.03-.03-.04-.96-1.2-.77-2.96.43-3.93.02-.01.03-.03.05-.04.51-.39,1.16-.54,1.78-.41l-.32-.41,1.38-.97.08-.08Zm.24,3.32c-.32-.59-1.05-.8-1.64-.48-.08.04-.16.1-.23.16-.62.4-.79,1.23-.39,1.85.02.03.04.06.07.09.32.59,1.05.8,1.64.48.08-.04.16-.1.23-.16.62-.4.79-1.23.39-1.85-.02-.03-.04-.06-.07-.09Z"/><path d="m30.16,18.59l.81,1.86c.16.49.57.32,1.3,0l.57,1.46c-1.94,1.05-2.84.73-3.4-.73l-.81-1.86-.81.32-.65-1.54.81-.32-.41-.97,1.38-1.13.65,1.46,1.05-.49.65,1.54-1.05.49-.08-.08Z"/><path d="m31.46,14.78c-.14-.54.19-1.08.73-1.22s1.08.19,1.22.73-.19,1.08-.73,1.22c0,0,0,0,0,0-.49.16-1.02-.1-1.18-.59-.02-.05-.03-.09-.04-.14Zm.57,1.46l1.62-.41,1.46,5.51-1.62.41-1.46-5.51Z"/><path d="m35.51,18.1c-.14-1.65,1.1-3.1,2.75-3.24,0,0,0,0,0,0,1.62-.16,3.07,1.02,3.23,2.64,0,.04,0,.08,0,.12.14,1.65-1.1,3.1-2.75,3.24,0,0,0,0,0,0-1.62.16-3.07-1.02-3.23-2.64,0-.04,0-.08,0-.12Zm4.29-.32c.02-.66-.49-1.21-1.15-1.23-.08,0-.15,0-.23.01-.7.02-1.25.6-1.23,1.3,0,.05,0,.11.01.16-.02.66.49,1.21,1.15,1.23.08,0,.15,0,.23-.01.7-.02,1.25-.6,1.23-1.3,0-.05,0-.11-.01-.16Z"/><path d="m48.26,18.02l-.57,3.4-1.7-.32.57-3.16c.13-.53-.19-1.07-.72-1.2-.03,0-.06-.01-.09-.02-.51-.14-1.04.16-1.18.68-.03.1-.04.19-.03.29l-.49,3.08-1.7-.32.97-5.59,1.7.32v.49c.42-.42,1.05-.58,1.62-.41,1.13.16,1.94,1.13,1.7,2.67l-.08.08Z"/><path d="m50.01,17.86l3.97,1.7-.65,1.54-3.97-1.7.65-1.54Z"/><path d="m61.91,26.37l-2.19,2.67-1.3-1.05,2.11-2.59c.32-.4.41-.89,0-1.21-.43-.32-1.03-.23-1.35.2,0,.01-.02.03-.03.04l-2.03,2.43-1.3-1.05,2.11-2.59c.32-.4.4-.89,0-1.21-.43-.32-1.03-.23-1.35.2,0,.01-.02.03-.03.04l-2.03,2.43-1.3-1.05,3.65-4.37,1.3,1.05-.32.41c1.07-.17,2.08.57,2.25,1.64.02.13.03.25.02.38.64-.14,1.3.04,1.78.49.91.74,1.05,2.08.31,3-.05.06-.09.11-.15.16h-.16Z"/><path d="m62.16,27.9c1.39-.9,3.24-.5,4.13.89.9,1.39.5,3.24-.89,4.13-1.39.9-3.24.5-4.13-.89h0c-.89-1.39-.5-3.24.89-4.13Zm2.35,3.65c.6-.35.8-1.11.45-1.7-.02-.03-.03-.05-.05-.08-.37-.62-1.18-.82-1.8-.44-.02.01-.04.03-.06.04-.6.35-.8,1.11-.45,1.7.02.03.03.05.05.08.37.62,1.18.82,1.8.44.02-.01.04-.03.06-.04Z"/><path d="m67.58,35.52l-1.86.73c-.49.16-.32.57,0,1.3l-1.46.57c-.97-2.02-.65-2.83.89-3.4l1.86-.73-.32-.81,1.54-.57.32.81.97-.41,1.05,1.38-1.46.57.4,1.05-1.54.57-.4-1.05Z"/><path d="m67.26,37.79c1.58-.28,3.09.77,3.38,2.35,0,.05.02.11.02.16.25,1.62-.82,3.16-2.43,3.48-1.58.28-3.09-.77-3.38-2.35,0-.05-.02-.11-.02-.16-.25-1.62.82-3.16,2.43-3.48Zm.73,4.21c.74-.11,1.25-.8,1.13-1.54-.07-.67-.67-1.16-1.34-1.09-.07,0-.13.02-.2.04-.74.11-1.25.8-1.13,1.54.07.67.67,1.16,1.34,1.09.07,0,.13-.02.2-.04Z"/><path d="m70.94,48.4h-1.94c.16-.81-.08-1.78-1.21-1.86h-2.59v-1.78l5.67.24v1.7h-1.05c.69.31,1.11,1.03,1.05,1.78l.08-.08Z"/><circle class="cls-5" cx="279.65" cy="44.99" r="36.45"/><path class="cls-35" d="m301.52,67.11v.65c-.15.43-.43.8-.81,1.05l-7.78,5.35c-.71.49-1.68.32-2.18-.39,0,0,0-.01-.01-.02-.24-.41-.57-.81-.81-1.22-.49-1.01-1.56-1.6-2.67-1.46-1.51.13-2.97-.63-3.73-1.94-.73-1.05-1.38-2.11-2.11-3.16-.08-.16-.16-.32-.32-.32,0-.15-.06-.29-.16-.4-.57-.89-1.13-1.7-1.7-2.59-.85-1.19-.58-2.84.61-3.7.01,0,.03-.02.04-.03.37-.25.72-.52,1.05-.81.16,0,.24.16.32.24.81,1.13,1.54,2.35,2.35,3.48l1.94,2.92c.24.34.69.44,1.05.24.34-.25.41-.72.16-1.05h0c0-.08-.08-.16-.16-.24-2.59-3.73-5.1-7.45-7.7-11.26-1.62-2.43-3.32-4.86-4.94-7.29-.35-.47-.55-1.03-.57-1.62,0-.24.24-.49.08-.81v-.16c.91-.42,1.99-.15,2.59.65.47.73.98,1.44,1.54,2.11.97,1.38,1.86,2.75,2.83,4.13.28.49.6.95.97,1.38h0s0,.16.08.16c.22.34.46.67.73.97.25.25.64.25.89,0,.32-.24.32-.65,0-1.05-.45-.57-.68-1.29-.65-2.02,0-.24.24-.41.08-.57.9-.46,2.01-.19,2.59.65.14.28.33.52.57.73.18.44.43.85.73,1.22.26.25.65.31.97.16.32-.22.42-.63.24-.97-.11-.21-.24-.4-.4-.57-.41-.59-.56-1.32-.41-2.03v-.32c.63-.37,1.4-.37,2.02,0,.57.32.81.89,1.22,1.3h0c.19.41.44.79.73,1.13.25.25.64.25.89,0,.23-.17.35-.45.32-.73-.03-.21-.11-.4-.24-.57-.47-.56-.68-1.3-.57-2.03v-.65c.97-.42,2.1-.07,2.67.81,1.54,2.27,3.08,4.45,4.54,6.72,1.17,1.87,1.91,3.97,2.19,6.16.18,1.56.23,3.13.16,4.7-.04.93.19,1.86.65,2.67l.08.4Zm-2.35-.08c0-.26-.16-.48-.41-.57-.26-.12-.55-.12-.81,0-.81.57-1.62,1.05-2.43,1.62-.35.18-.49.6-.31.95.02.04.04.07.07.11.25.34.72.41,1.05.16h0c.81-.57,1.62-1.13,2.43-1.62.25-.12.41-.37.41-.65Zm-4.94,3.4c.04-.36-.22-.69-.58-.73-.14-.02-.28.01-.4.08-.26.13-.51.3-.73.49-.25.26-.31.65-.16.97.2.31.62.4.93.19.01,0,.03-.02.04-.03.23-.14.45-.3.65-.49.16-.16.24-.24.16-.4l.08-.08Z"/><path class="cls-32" d="m265.07,45.64v-10.37c-.03-1.01.64-1.92,1.62-2.19h2.35c.3.39.45.88.41,1.38-.06.78.52,1.47,1.31,1.53.05,0,.1,0,.15,0h5.59c.79.06,1.48-.54,1.54-1.34,0-.07,0-.13,0-.2-.07-.5.08-1,.41-1.38h2.11c.54.14,1.03.45,1.38.89.16.18.25.41.24.65-.65.57-1.3,1.21-1.86,1.78-1.05,1.13-2.03,2.27-3,3.48-.16.32-.41.57-.73.73-.85-.79-2-1.17-3.16-1.05-2.12.17-3.8,1.85-3.97,3.97-.1,1.78.89,3.45,2.51,4.21-.32.65-.73,1.38-1.05,2.03-.81,1.54-1.54,3.16-2.19,4.7-.96,2.28-1.8,4.6-2.51,6.97-.32,1.05-.57,2.11-.89,3.16-.13-.31-.19-.64-.16-.97v-8.42c.08-.24.24-.49.32-.73.55-1.26.9-2.6,1.05-3.97.24-1.78.08-3.48-1.38-4.78l-.08-.08Z"/><path class="cls-24" d="m278.36,33.01c-.35.38-.5.91-.4,1.42.06.79-.54,1.48-1.34,1.54-.07,0-.13,0-.2,0h-5.59c-.79.02-1.44-.6-1.46-1.39,0-.05,0-.1,0-.15.07-.5-.08-1-.4-1.38h9.4v-.04Z"/><path class="cls-46" d="m278.2,33.01c-.08.08-.24,0-.4,0h.4Z"/><path class="cls-12" d="m265.24,64.52c.32-1.05.57-2.11.89-3.16.72-2.36,1.55-4.69,2.51-6.97.65-1.6,1.38-3.17,2.19-4.7.32-.65.73-1.38,1.05-2.02.16,0,.32.16.49.16.54.22,1.13.27,1.7.16,0,.08.16.16.16.24,1.94,2.83,3.89,5.75,5.83,8.59.34.43.64.89.89,1.38-.34.29-.69.56-1.05.81-1.2.83-1.51,2.48-.68,3.68,0,.01.02.03.03.04.57.89,1.13,1.7,1.7,2.59.08.16.16.24.16.41-.57.32-1.13.16-1.7.24h-11.99c-.93.07-1.8-.49-2.11-1.38l-.08-.08Zm8.42-.73h2.67c.57,0,.89-.24.89-.73s-.32-.73-.89-.73h-5.35c-.57,0-.89.24-.89.73s.32.73.89.73h2.67Z"/><path class="cls-30" d="m276.5,40.54c.4-.08.49-.4.73-.73.97-1.22,1.94-2.35,3-3.48.58-.63,1.2-1.23,1.86-1.78.13.31.19.64.16.97v13.12c-.43.31-.72.77-.81,1.3-.04.38-.04.76,0,1.13-.37-.43-.69-.89-.97-1.38-.97-1.38-1.86-2.75-2.83-4.13.26-.5.4-1.06.4-1.62.04-1.27-.5-2.49-1.46-3.32l-.08-.08Z"/><path class="cls-45" d="m276.5,40.54c.94.84,1.48,2.05,1.46,3.32.02.57-.12,1.13-.4,1.62-.47-.73-.98-1.44-1.54-2.11-.58-.83-1.69-1.11-2.59-.65-.24,0-.44.17-.49.41h0s-.08.04-.08.08h0s-.08.04-.08.08h0s-.08.04-.08.08h0c-.47.4-.66,1.03-.49,1.62,0,.37.14.72.4.97.49.73.97,1.38,1.38,2.11-.57.11-1.16.05-1.7-.16-.17-.02-.34-.07-.49-.16-2.16-.97-3.12-3.51-2.15-5.67.65-1.44,2.03-2.4,3.6-2.51,1.15-.08,2.28.3,3.16,1.05l.08-.08Z"/><path class="cls-66" d="m273.98,47.99c-.49-.73-.97-1.38-1.38-2.11-.24-.27-.38-.61-.41-.97,0-.58.17-1.14.49-1.62h.08l.08-.08h0l.08-.08h0c.16,0,.32-.16.49-.24.08.24-.08.49-.08.81.01.59.21,1.15.57,1.62,1.62,2.43,3.32,4.86,4.94,7.29,2.59,3.73,5.1,7.45,7.7,11.26,0,.08.16.16.16.24.25.32.19.79-.14,1.03,0,0-.02.01-.03.02-.37.17-.8.07-1.05-.24l-1.94-2.92c-.81-1.13-1.54-2.35-2.35-3.48-.08-.16-.16-.24-.32-.24-.27-.48-.57-.94-.89-1.38-1.94-2.83-3.89-5.75-5.83-8.59,0-.08-.16-.16-.16-.24v-.08Z"/><path class="cls-61" d="m299.18,67.03c0,.28-.16.53-.41.65-.81.57-1.62,1.13-2.43,1.62-.34.22-.79.15-1.05-.16-.23-.33-.15-.78.18-1.01.02-.01.04-.03.06-.04.81-.57,1.62-1.13,2.43-1.62.23-.2.58-.2.81,0,.24.16.41.36.41.57Z"/><path class="cls-47" d="m290.1,48.64c-.13-.6-.04-1.23.24-1.78.24-.38.58-.68.97-.89v.65c-.05.72.15,1.44.57,2.03.16.14.25.35.24.57,0,.32,0,.57-.32.73-.27.16-.62.16-.89,0-.32-.33-.56-.71-.73-1.13h0l-.08-.16Z"/><path class="cls-47" d="m285.81,49.81c-.31-.98.14-2.04,1.05-2.51.08.08,0,.24,0,.32-.16.7-.01,1.44.4,2.03.16.16.24.4.41.57.22.34.13.79-.2,1.01s-.79.13-1.01-.2c-.32-.35-.57-.77-.73-1.22h.08Z"/><path class="cls-66" d="m281.36,50.99v-1.13c.17-.49.45-.93.81-1.3.12-.02.23-.08.32-.16.16.24,0,.4-.08.57,0,.73.23,1.43.65,2.03.29.29.29.76,0,1.05-.25.25-.64.25-.89,0-.26-.31-.51-.63-.73-.97,0,0,0-.16-.08-.16h0v.08Z"/><path class="cls-61" d="m294.23,70.35c0,.16,0,.32-.16.4-.18.21-.4.37-.65.49-.29.23-.72.17-.94-.12-.01-.01-.02-.03-.03-.04-.19-.32-.12-.73.16-.97l.73-.49c.32-.18.72-.06.89.25.07.12.09.26.08.4l-.08.08Z"/><path class="cls-75" d="m273.42,42.81c-.16,0-.32.24-.49.24,0-.24.32-.32.49-.4v.16Z"/><path class="cls-30" d="m281.36,50.99c0,.06.03.12.08.16-.04-.04-.07-.1-.08-.16Z"/><path class="cls-51" d="m265.24,64.52c.31.88,1.17,1.45,2.11,1.38h11.99c-.79,1.12-1.81,2.06-3,2.75-.16.08-.24.16-.4.24-.56.29-.89.91-.81,1.54v2.51c0,.85-.69,1.54-1.54,1.54h-8.34c-.77.08-1.46-.49-1.54-1.27,0-.09,0-.18,0-.27v-2.43c-.18-.8-.54-1.55-1.05-2.19-.57-.81-1.05-1.7-1.7-2.51-.55-.78-.83-1.72-.81-2.67,0-1.86.16-3.73.16-5.59v-2.67c-.02-1.18.2-2.35.65-3.44.67-1.49,1.1-3.08,1.3-4.7.03-.78.69-1.38,1.47-1.35.11,0,.21.02.31.05.73.89,1.13,2.01,1.13,3.16-.04,1.1-.2,2.18-.49,3.24-.22,1.02-.57,2-1.05,2.92-.18.38-.04.84.32,1.05.34.21.79.11,1-.23.02-.03.03-.06.05-.09.04-.09.1-.17.16-.24v8.42c-.03.33.03.67.16.97l-.08-.12Zm5.91,6.4h-.97c-.4,0-.73.33-.73.73s.33.73.73.73h1.94c.4,0,.73-.33.73-.73s-.33-.73-.73-.73h-.97Zm-4.29,1.46c.19.01.39-.01.57-.08.31-.14.48-.48.4-.81-.11-.35-.44-.58-.81-.57-.49,0-.97,0-1.22.49v.16c0,.57.32.81,1.05.81Z"/><path class="cls-66" d="m265.07,55.12c-.04.09-.1.17-.16.24-.21.37-.67.51-1.05.32-.37-.16-.54-.59-.37-.96.01-.03.03-.06.05-.09.46-.93.81-1.91,1.05-2.92.29-1.06.45-2.14.49-3.24.03-1.16-.37-2.29-1.13-3.16.4.06.79.2,1.13.4,1.46,1.3,1.54,3,1.38,4.78-.15,1.37-.5,2.71-1.05,3.97-.08.24-.24.49-.32.73v-.08Z"/><path class="cls-48" d="m273.66,63.79h-2.67c-.57,0-.89-.24-.89-.73s.32-.73.89-.73h5.35c.57,0,.89.32.89.73s-.32.73-.89.73h-2.67Z"/><path class="cls-75" d="m272.69,43.33c-.28.5-.45,1.05-.49,1.62-.21-.59-.01-1.24.49-1.62Z"/><path class="cls-61" d="m271.15,70.91h.89c.4-.06.78.22.84.62.06.4-.22.78-.62.84-.07.01-.15.01-.22,0h-1.94c-.4.06-.78-.22-.84-.62-.06-.4.22-.78.62-.84.07-.01.15-.01.22,0h1.05,0Z"/><path class="cls-61" d="m266.94,72.37c-.81,0-1.13-.24-1.05-.81v-.16c.24-.49.73-.49,1.22-.49.37-.02.7.22.81.57.11.33-.06.69-.39.8,0,0-.01,0-.02,0-.18.06-.37.09-.57.08Z"/><path d="m250.9,33.49l-.65,2.11,6.32,2.02-.57,1.86-6.32-2.03-.65,2.11-1.78-.57,1.94-5.99,1.78.57-.08-.08Z"/><path d="m254.22,34.95c-1.52-.9-2.02-2.85-1.13-4.37.9-1.52,2.85-2.02,4.37-1.13,1.52.89,2.02,2.85,1.13,4.36-.88,1.52-2.82,2.03-4.34,1.15-.01,0-.02-.01-.03-.02Zm2.35-3.97c-.69-.36-1.53-.09-1.89.6-.36.69-.09,1.53.6,1.89.67.35,1.49.11,1.86-.54.41-.63.23-1.48-.4-1.89-.03-.02-.06-.03-.08-.05h-.08Z"/><path d="m260.3,22.27l4.21,4.37-1.3,1.3-.4-.41c.02.65-.24,1.27-.73,1.7-.87.88-2.29.89-3.17.02-.08-.08-.16-.17-.23-.26l-2.59-2.67,1.3-1.3,2.43,2.51c.31.42.9.52,1.32.22.08-.06.16-.13.22-.22.47-.39.53-1.09.14-1.56-.04-.05-.09-.1-.14-.14l-2.27-2.35,1.3-1.3-.08.08Z"/><path d="m263.45,23.61c-.83-1.58-.22-3.54,1.37-4.37.94-.49,2.07-.49,3.01,0l-.89,1.62c-.43-.24-.95-.24-1.38,0-.67.41-.88,1.27-.49,1.94.31.66,1.09.94,1.75.63.04-.02.08-.04.12-.06.46-.21.73-.71.65-1.22h1.86c-.02,1.14-.63,2.18-1.62,2.75-1.47.89-3.39.42-4.28-1.05-.03-.05-.06-.11-.09-.16v-.08Z"/><path d="m275.04,18.1l.97,3.56-1.78.49-.89-3.32c-.06-.54-.55-.92-1.09-.86-.07,0-.14.02-.21.05-.65.16-.97.65-.73,1.54l.89,3.24-1.78.49-2.27-8.18,1.78-.49.81,2.92c.27-.6.81-1.02,1.46-1.13,1.19-.34,2.43.34,2.77,1.53.03.11.05.22.07.33v-.16Z"/><path d="m286.78,13.73l-1.05,8.42-1.78-.24v-.57c-.46.47-1.14.65-1.78.49-1.62-.16-2.67-1.78-2.51-3.56.14-1.66,1.57-2.92,3.24-2.83.69.05,1.31.41,1.7.97l.41-3,1.78.24v.08Zm-2.51,5.18c.15-.74-.33-1.45-1.07-1.6-.05,0-.1-.02-.14-.02-.77-.12-1.49.41-1.61,1.18,0,.04-.01.08-.01.12-.15.74.33,1.45,1.07,1.6.05,0,.1.02.14.02.77.12,1.49-.41,1.61-1.18,0-.04.01-.08.01-.12h0Z"/><path d="m288.48,16.81l1.7.57-1.94,5.75-1.7-.57,1.94-5.75Zm.32-1.62c.18-.58.8-.91,1.38-.73.58.18.91.8.73,1.38-.18.58-.8.91-1.38.73-.57-.19-.89-.8-.73-1.38Z"/><path d="m294.23,24.02c-.65,1.22-2.02,1.22-3.16.57-1.02-.41-1.67-1.42-1.62-2.51h1.78c-.05.44.17.86.57,1.05.41.24.65.16.73,0,.32-.57-2.51-1.7-1.54-3.56.61-1,1.92-1.31,2.92-.7.03.02.05.03.08.05.89.41,1.46,1.29,1.46,2.27h-1.78c.03-.35-.17-.67-.49-.81-.18-.17-.46-.17-.65,0-.32.65,2.51,1.62,1.46,3.56l.24.08Z"/><path d="m300.71,27.98c-.99,1.29-2.85,1.53-4.14.54-.05-.04-.11-.09-.16-.13-.54-.43-.84-1.09-.81-1.78l-2.02,2.19-1.38-1.22,5.67-6.32,1.38,1.22-.4.41c.68-.04,1.35.2,1.86.65,1.19,1.14,1.22,3.03.08,4.21-.03.03-.05.05-.08.08v.16Zm-1.38-1.22c.58-.54.61-1.46.07-2.04-.02-.02-.04-.05-.07-.07-.55-.54-1.43-.54-1.97,0-.05.05-.09.1-.14.16-.58.54-.61,1.46-.07,2.04.02.02.04.05.07.07.55.54,1.43.54,1.97,0,.05-.05.09-.1.14-.16h0Z"/><path d="m305.98,25.55l1.05,1.46-7.13,5.26-1.05-1.46,7.13-5.26Z"/><path d="m308.73,36.08l-5.51,2.59-.73-1.62.49-.24c-.65-.21-1.17-.68-1.46-1.3-.64-1.52.07-3.28,1.6-3.93.03-.01.07-.03.11-.04,1.5-.78,3.34-.2,4.13,1.3.31.61.34,1.31.08,1.94l.49-.24.73,1.62.08-.08Zm-3.48-.41c.73-.32,1.07-1.16.75-1.9,0-.02-.01-.03-.02-.05-.3-.7-1.1-1.02-1.8-.72-.05.02-.1.05-.15.07-.73.32-1.07,1.16-.75,1.9,0,.02.01.03.02.05.3.7,1.1,1.02,1.8.72.05-.02.1-.05.15-.07Z"/><path d="m310.35,44.14l-6.16-1.05c-2.02-.32-3-1.3-3.16-3l1.7-.32c.16.81.49,1.22,1.21,1.3l5.26-3.4.32,1.94-3.4,1.94,3.89.49.32,1.94v.16Z"/><circle class="cls-5" cx="120.35" cy="44.99" r="36.45"/><path class="cls-21" d="m128.28,29.44h1.54c.63.03,1.14.51,1.22,1.13v34.42c.09.72-.3,1.42-.97,1.7h-19.68c-.69-.26-1.1-.97-.97-1.7v-1.05h9.48c.24,0,.41,0,.32-.32v-.65c.22-.49.78-.74,1.3-.57.51.16.8.7.65,1.21,0,0,0,0,0,0,0,.24,0,.32.24.32h5.35c.76,0,1.38-.63,1.38-1.39,0-.02,0-.04,0-.07v-2.43c.28-.13.44-.42.41-.73v-25.19c0-.3-.15-.57-.41-.73v-3.97h.16Z"/><path class="cls-36" d="m128.28,29.44v3.97h-15.55c-.73,0-.89.16-.89.89v24.95c0,.73.16.89.89.89h15.71v2.43c.04.76-.55,1.42-1.31,1.46-.02,0-.04,0-.07,0h-5.35c-.24,0-.32-.08-.24-.32.16-.51-.13-1.06-.64-1.21,0,0,0,0,0,0-.51-.17-1.07.08-1.3.57-.08.21-.08.44,0,.65.08.32,0,.32-.32.32h-9.48V31.18c-.07-.82.53-1.54,1.35-1.62.09,0,.18,0,.27,0h17.17l-.24-.12Z"/><path d="m91.67,37.54c1.9.43,3.09,2.31,2.67,4.21l-.32,1.46,3.16.65-.49,2.27-9.96-2.19.81-3.81c.38-1.91,2.25-3.15,4.16-2.77.02,0,.04,0,.05.01l-.08.16Zm-.49,2.27c-.67-.17-1.35.23-1.52.89,0,.03-.01.05-.02.08l-.32,1.46,2.59.57.32-1.46c.13-.66-.29-1.31-.95-1.44-.03,0-.07-.01-.1-.02v-.08Z"/><path d="m98.15,30.37l3.89,2.27-1.13,1.86-3.56-2.11c-.53-.39-1.28-.27-1.66.26-.03.05-.07.1-.09.15-.41.59-.27,1.39.31,1.81.08.06.16.1.25.14l3.4,2.02-1.13,1.86-8.83-5.18,1.13-1.86,3.08,1.86c-.25-.77-.13-1.6.32-2.27.73-1.3,2.27-1.78,3.97-.81h.06Z"/><path d="m99.85,29.44c-1.41-1.53-1.32-3.91.21-5.32.04-.04.08-.07.12-.1,1.59-1.41,4.02-1.26,5.43.32,1.47,1.53,1.43,3.97-.1,5.44-1.53,1.47-3.97,1.43-5.44-.1-.07-.08-.14-.15-.21-.23Zm4.13-3.64c-.65-.67-1.72-.69-2.39-.04-.67.65-.69,1.72-.04,2.39.64.66,1.68.69,2.35.08.69-.57.79-1.59.22-2.28-.04-.05-.09-.1-.14-.15Z"/><path d="m113.22,19.97l1.78,4.13-2.02.89-1.62-3.81c-.22-.65-.93-1-1.58-.78-.04.01-.08.03-.12.05-.68.26-1.03,1.03-.76,1.72.03.08.07.15.11.23l1.54,3.65-2,.89-2.92-6.72,2.03-.89.24.65c.21-.77.78-1.38,1.54-1.62,1.38-.57,2.92-.08,3.73,1.7l.06-.08Z"/><path d="m119.29,21.83c.53-.03,1.02-.26,1.38-.65l1.86.81c-.65,1.05-1.77,1.71-3,1.78-2.03.36-3.96-.99-4.32-3.02-.03-.15-.05-.31-.05-.47-.24-2.07,1.24-3.95,3.32-4.2.05,0,.11-.01.17-.02,2.05-.18,3.86,1.34,4.04,3.4,0,.03,0,.06,0,.09v.89l-5.18.49c.32.73,1.05.89,1.86.89h-.08Zm1.13-2.75c-.23-.68-.91-1.09-1.62-.97-.75-.02-1.39.55-1.46,1.3l3.16-.32h-.08Z"/><path d="m131.44,17.86l1.3.41-.57,2.03-1.3-.41-1.46,4.94-2.11-.65,1.46-4.94-.97-.24.57-2.02.97.24c.57-1.94,2.03-2.83,4.29-2.02l-.57,2.02c-.73-.32-1.38-.24-1.62.57v.08Z"/><path d="m138.33,20.78l-1.13,2.19c-.67-.64-1.73-.62-2.37.05-.12.13-.23.28-.3.44l-1.54,2.92-1.94-.97,3.32-6.48,1.94.97-.57,1.13c.7-.68,1.78-.78,2.59-.24Z"/><path d="m145.62,27.01l-4.86,5.43-1.62-1.46.49-.49c-.81.07-1.61-.23-2.19-.81-1.44-1.57-1.34-4.01.23-5.45,1.38-1.27,3.47-1.36,4.96-.22.66.49,1.03,1.28.97,2.11l.49-.49,1.62,1.46-.08-.08Zm-4.05,1.22c.63-.74.54-1.84-.2-2.47-.74-.63-1.84-.54-2.47.2-.61.72-.54,1.79.16,2.43.69.65,1.78.62,2.43-.07.03-.03.06-.06.08-.09Z"/><path d="m150.07,40.78l-4.05,1.86-.89-1.94,3.89-1.78c.65-.32.97-.81.65-1.46-.29-.59-1-.84-1.59-.55-.04.02-.07.04-.11.06l-3.73,1.7-.89-1.94,3.89-1.78c.65-.32.97-.81.65-1.46-.29-.59-1-.84-1.59-.55-.04.02-.07.04-.11.06l-3.73,1.7-.89-1.94,6.64-3.08.89,1.94-.65.24c.74.15,1.35.67,1.62,1.38.37.65.37,1.45,0,2.11.81.19,1.48.76,1.78,1.54.73,1.54.08,3-1.54,3.81l-.24.08Z"/><path d="m147.72,47.1c.01.53.25,1.03.65,1.38l-.89,1.78c-1.06-.65-1.68-1.83-1.62-3.08-.08-2.51,1.46-4.13,3.65-4.21,2.08-.15,3.89,1.42,4.04,3.51,0,.07,0,.15,0,.22.11,2.03-1.44,3.77-3.48,3.88-.06,0-.11,0-.17,0h-.87l-.24-5.18c-.67.32-1.07,1.04-.97,1.78l-.11-.08Zm2.75,1.22c.71-.2,1.16-.89,1.05-1.62.03-.74-.48-1.4-1.22-1.54l.16,3.16Z"/><circle class="cls-5" cx="200" cy="44.99" r="36.45"/><path class="cls-11" d="m190.93,74.15c-.65-.19-1.28-.46-1.86-.81-1.23-.83-1.93-2.24-1.86-3.73v-34.75c-.04-2.13,1.47-3.98,3.56-4.37h17.5c0,.16.08.16.16.16,1.08.3,2,.99,2.59,1.94.32.42.49.93.49,1.46,0,0-.16-.16-.16-.24-.41-.68-1.15-1.08-1.94-1.05h-3.08c-.52-.03-1,.26-1.22.73-.16.24-.24.57-.4.81-.22.56-.78.92-1.38.89h-5.43c-.22.02-.44-.01-.65-.08-.3-.19-.53-.48-.65-.81l-.49-.97c-.16-.34-.51-.56-.89-.57h-3.89c-1.11.26-1.87,1.29-1.78,2.43v34.42c-.02,1.2.91,2.2,2.11,2.27h17.82c.37,0,.73-.08,1.05-.24.42-.25.76-.61.97-1.05v.16c-.33,1.55-1.48,2.79-3,3.24-.08,0-.32,0-.32.16h-17.25Zm9.64-40.74h1.49c.28.03.53-.17.57-.45,0-.04,0-.08,0-.12,0-.41-.16-.73-.57-.73h-2.83c-.4,0-.57.32-.57.73s.24.49.57.57h1.38-.03Z"/><path class="cls-10" d="m208.26,74.15c0-.24.16-.16.32-.16,1.48-.51,2.61-1.72,3-3.24v-.16c.14-.45.19-.91.16-1.38v-33.86c.03-.46-.03-.93-.16-1.38-.03-.52-.19-1.03-.49-1.46-.57-.97-1.5-1.67-2.59-1.94-.08,0-.16,0-.16-.16h1.94c.54.12,1.05.31,1.54.57,1.4.82,2.24,2.34,2.19,3.97v34.59c.08,2.21-1.47,4.14-3.64,4.54h-2.02l-.08.08Z"/><path class="cls-19" d="m197.2,35.03c.24,0,.41.08.65.08h5.43c.61.06,1.18-.31,1.38-.89.16-.24.24-.57.41-.81.22-.47.7-.76,1.21-.73h.73c0,.16.16.16.24.24.8.4,1.3,1.21,1.3,2.11v34.43c.02.87-.45,1.68-1.21,2.11-.13,0-.24.11-.24.24h-15.47c-1.2-.07-2.13-1.07-2.11-2.27v-34.3c-.09-1.14.67-2.17,1.78-2.43.38-.04.76-.04,1.13,0,.4.51.75,1.05,1.05,1.62.25.52.81.82,1.38.73h2.02c.14.02.28,0,.41-.08l-.08-.04Zm-2.84,24.22v8.42c0,.89.24,1.13,1.13,1.13h10.45c.44.05.84-.28.89-.72,0-.06,0-.11,0-.17v-17.29c.05-.44-.28-.84-.72-.89-.06,0-.11,0-.17,0h-.89c-.44.05-.84-.28-.89-.72,0-.06,0-.11,0-.17v-1.54c.05-.44-.28-.84-.72-.89-.06,0-.11,0-.17,0h-5.43c-.65,0-.89.32-.89.97v1.54c0,.57-.32.81-.89.81h-.65c-.81,0-1.05.24-1.05,1.05v8.51-.04Zm6.24-19.6c0-.16.08-.24.16-.41.24-.41.57-.81.81-1.22s.16-.73-.16-.89-.65-.24-.81,0c-.65.89-1.3,1.86-1.86,2.83-.24.49,0,.89.57.89h1.13q.24,0,.16.24c-.41.65-.81,1.3-1.3,1.94-.26.3-.26.75,0,1.05.32.24.73.08,1.05-.32.73-1.05,1.38-2.11,2.02-3.16.16-.22.16-.51,0-.73-.14-.21-.39-.34-.65-.32h-1.3l.16.08Z"/><path class="cls-42" d="m207.05,71.81c0-.16.16-.16.24-.24.77-.42,1.23-1.23,1.22-2.11v-34.42c0-.89-.5-1.71-1.3-2.11-.13,0-.24-.11-.24-.24h2.38c.79-.04,1.55.36,1.94,1.05,0,.08.08.16.16.24.14.45.19.91.16,1.38v33.9c.03.46-.03.93-.16,1.38-.26.41-.59.76-.97,1.05-.33.17-.69.25-1.05.24h-2.35l-.03-.12Z"/><path class="cls-42" d="m197.2,35.03c-.08.16-.24.08-.41.08h-2.02c-.57.07-1.12-.22-1.38-.73-.3-.57-.66-1.11-1.05-1.62h2.75c.38,0,.73.22.89.57l.49.97c.17.3.39.58.65.81l.08-.08Z"/><path class="cls-10" d="m200.57,33.41h-1.3c-.28.03-.53-.17-.57-.45,0-.04,0-.08,0-.12,0-.41.16-.73.57-.73h2.84c.36.05.61.37.57.73,0,.41-.16.49-.57.57-.49.04-.97.04-1.46,0h-.08Z"/><path class="cls-27" d="m194.33,59.25v-8.51c0-.81.24-1.05,1.05-1.05h.65c.57,0,.81-.24.89-.81v-1.5c0-.65.24-.97.89-.97h5.43c.44-.05.84.28.89.72,0,.06,0,.11,0,.17v1.54c-.05.44.28.84.72.89.06,0,.11,0,.17,0h.89c.44-.05.84.28.89.72,0,.06,0,.11,0,.17v17.33c.05.44-.28.84-.72.89-.06,0-.11,0-.17,0h-10.45c-.89,0-1.13-.24-1.13-1.13v-8.46h0Zm10.12,2.19v-8.59c0-.41-.24-.65-.73-.65h-6.4c-.35-.05-.68.2-.73.56,0,.06,0,.12,0,.17v12.88c-.05.35.2.68.56.73.06,0,.12,0,.17,0h6.4c.35.05.68-.2.73-.56,0-.06,0-.12,0-.17v-4.37Z"/><path class="cls-58" d="m200.57,39.65h1.3c.32,0,.57,0,.65.32.12.23.12.5,0,.73-.65,1.05-1.38,2.11-2.03,3.16-.21.37-.67.51-1.05.32-.32-.24-.32-.65,0-1.05.4-.65.81-1.3,1.3-1.94.16-.16.08-.24-.16-.24h-1.13c-.57,0-.89-.49-.57-.89.57-.97,1.22-1.86,1.86-2.83.12-.22.4-.31.63-.18.08.04.14.11.18.18.26.22.32.59.16.89-.24.4-.57.81-.81,1.22,0,.08-.16.16-.16.4l-.16-.08Z"/><path class="cls-42" d="m201.86,52.12h1.94c.37-.04.69.23.73.6,0,.02,0,.03,0,.05v2.02h-2.02c-.32,0-.4.08-.4.4v2.84h-5.43v-3.32h5.02c.16,0,.41.08.41-.16,0-.81.24-1.7-.24-2.43Z"/><path class="cls-40" d="m201.7,66.54h-4.29c-.35.05-.68-.2-.73-.56,0-.06,0-.12,0-.17v-3h5.43v2.92c.04.33-.12.65-.41.81Z"/><path class="cls-41" d="m196.68,58.12h5.43v3.32h-5.43v-3.32Z"/><path class="cls-19" d="m201.86,52.12c.49.81.16,1.62.24,2.43,0,.24-.24.16-.41.16h-5.02v-1.86c-.05-.35.2-.68.56-.73.06,0,.12,0,.17,0h4.46Z"/><path class="cls-65" d="m201.7,66.54c.32-.16.41-.4.41-.81v-2.92h2.38v3c.03.37-.25.7-.63.73-.03,0-.07,0-.1,0h-2.06Z"/><path class="cls-49" d="m202.11,61.44v-3.32h2.38v3.32h-2.38Z"/><path class="cls-60" d="m204.54,58.12h-2.35v-2.83c0-.32.08-.41.41-.41h2.02v3.24h-.08Z"/><path class="cls-65" d="m196.68,61.44h5.43v1.38h-5.43v-1.38Z"/><path class="cls-53" d="m202.11,62.81v-1.38h2.38v1.38h-2.38Z"/><path d="m172.3,39c1.7.27,2.86,1.86,2.59,3.56l-.24,1.3,2.83.41-.32,2.02-8.91-1.38.49-3.4c.23-1.71,1.79-2.91,3.5-2.68.02,0,.04,0,.06,0v.16Zm-.32,2.02c-.58-.13-1.15.23-1.28.8,0,.03-.01.06-.02.09l-.24,1.3,2.27.32.24-1.3c.09-.57-.29-1.11-.86-1.2-.04,0-.08-.01-.11-.01h0Z"/><path d="m177.48,32.28l3.56,1.7-.81,1.7-3.32-1.62c-.54-.3-1.21-.11-1.51.43-.01.02-.02.04-.03.06-.32.65-.16,1.22.65,1.62l3.16,1.54-.81,1.7-8.1-3.97.81-1.7,2.84,1.38c-.25-.66-.23-1.39.08-2.02.6-1.2,2.05-1.7,3.26-1.1.08.04.15.08.23.13v.16Z"/><path d="m178.86,31.47c-1.36-1.28-1.43-3.41-.16-4.77,1.28-1.36,3.41-1.43,4.77-.16,1.36,1.27,1.43,3.41.16,4.77-1.25,1.36-3.37,1.45-4.74.2-.01-.01-.03-.03-.04-.04Zm3.32-3.56c-.6-.53-1.52-.48-2.06.13-.53.6-.48,1.52.13,2.06.58.52,1.47.48,2.01-.08.55-.58.53-1.49-.05-2.04,0,0-.02-.02-.03-.03v-.04Z"/><path d="m189.71,21.91l1.94,3.4-1.7.97-1.78-3.16c-.2-.53-.8-.8-1.33-.6-.07.03-.15.07-.21.11-.65.32-.81.97-.41,1.78l1.7,3.08-1.7.97-3.16-5.59,1.7-.97.32.49c0-.57.49-1.13,1.22-1.62,1.17-.65,2.51-.4,3.4,1.13Z"/><path d="m195.22,22.88c.46-.09.86-.35,1.13-.73l1.7.57c-.91,1.76-3.07,2.44-4.82,1.54-.9-.46-1.56-1.29-1.82-2.27-.44-1.77.63-3.57,2.4-4.01.06-.02.13-.03.19-.04,1.75-.39,3.48.72,3.86,2.46,0,.04.02.08.03.13,0,.24.08.49.08.81l-4.45.97c.38.54,1.07.78,1.7.57Zm.65-2.51c-.29-.56-.92-.86-1.54-.73-.65.08-1.14.64-1.13,1.3l2.67-.57Z"/><path d="m209.48,22.15c-.31,1.76-1.96,2.94-3.73,2.67-.72-.14-1.34-.58-1.7-1.22l-.16.57-1.86-.41,1.94-8.75,1.86.41-.73,3.08c.58-.44,1.34-.57,2.02-.32,1.72.47,2.73,2.25,2.27,3.97h.08Zm-1.86-.4c.24-.76-.18-1.58-.95-1.82-.06-.02-.12-.03-.19-.05-.81-.21-1.63.28-1.84,1.08-.01.04-.02.09-.03.13-.24.76.18,1.58.95,1.82.06.02.12.03.19.05.81.21,1.63-.28,1.84-1.08.01-.04.02-.09.03-.13h0Z"/><path d="m218.14,23.37l-3.32,5.51-1.62-.97.32-.49c-.69.21-1.44.09-2.02-.32-1.49-1.12-1.8-3.23-.68-4.73.97-1.29,2.71-1.72,4.17-1.02.63.33,1.08.92,1.22,1.62l.32-.49,1.62.97v-.08Zm-3.32,1.78c.46-.66.3-1.57-.36-2.03-.04-.03-.08-.05-.12-.08-.72-.43-1.65-.2-2.08.52,0,.02-.02.03-.03.05-.42.72-.19,1.64.53,2.07.72.42,1.64.19,2.07-.53Z"/><path d="m220.41,28.15l-1.62,1.62c-.4.41-.08.73.57,1.3l-1.22,1.21c-1.94-1.62-1.94-2.67-.65-3.97l1.62-1.62-.73-.73,1.3-1.3.73.73.89-.89,1.81,1.01-1.3,1.22.89.97-1.3,1.3-.89-.97-.11.12Z"/><path d="m223.57,32.2l-1.86,1.3c-.49.32-.24.73.24,1.38l-1.46.97c-1.62-1.94-1.38-3,.08-3.97l1.86-1.3-.57-.89,1.54-1.05.57.89,1.05-.65,1.54,1.3-1.46.97.73,1.13-1.54,1.05-.73-1.13Z"/><path d="m223.41,38.76c.16.43.48.78.89.97l-.32,1.78c-1.05-.32-1.87-1.14-2.19-2.19-.73-2.11.16-3.89,1.94-4.54,1.73-.67,3.67.19,4.34,1.92.01.03.03.07.04.1.61,1.68-.25,3.54-1.93,4.15-.06.02-.11.04-.17.06-.23.09-.48.15-.73.16l-1.54-4.29c-.51.45-.64,1.18-.32,1.78v.08Zm2.59.32c.53-.36.73-1.03.49-1.62-.15-.66-.79-1.09-1.46-.97l.97,2.59Z"/><path d="m229.81,45.97l-2.19.24c0-.81-.41-1.86-1.62-1.78l-2.92.32-.16-1.94,6.4-.65.16,1.94h-1.13c.82.31,1.39,1.07,1.46,1.94v-.08Z"/><path d="m228.92,54.15l-5.91-3c-1.94-.97-2.59-2.19-2.27-3.97l1.78.24c-.08.89.08,1.38.81,1.7l6.4-1.7-.24,2.11-4.05.89,3.73,1.7-.24,2.02h0Z"/><circle class="cls-3" cx="359.31" cy="44.99" r="36.45"/><path class="cls-67" d="m359.31,34.3h23.08c1.74-.09,3.23,1.25,3.32,3v.81c-.07.63-.18,1.25-.32,1.86-.24,1.3,0,1.62,1.3,1.54,2.19-.08,2.75.65,2.67,2.67v14.42c0,4.78-.57,2.11-2.11,2.11h-4.46c-1.05,0-1.13.08-1.38,1.13l-.57,3.4c-.24,1.56-1.59,2.7-3.16,2.67h-36.69c-1.61.04-2.98-1.15-3.16-2.75-.24-1.22-.4-2.35-.65-3.56-.08-.65-.4-.89-1.05-.89h-4.94c-.91.09-1.73-.55-1.86-1.46v-15.87c-.09-.91.55-1.73,1.46-1.86h1.46c.89,0,1.21-.32,1.05-1.3-.1-.74-.23-1.47-.4-2.19-.35-1.7.73-3.37,2.43-3.73h23.98Zm0,6.16h-16.12c-1.94,0-3,1.3-2.67,3.24.32,1.94.73,3.97,1.05,5.99.65,3.4,1.22,6.8,1.86,10.21.2,1.21,1.28,2.08,2.51,2.02h26.65c1.23.06,2.31-.81,2.51-2.02.41-2.11.81-4.29,1.13-6.4.57-3.24,1.22-6.56,1.7-9.8.32-1.86-.73-3.08-2.67-3.08h-16.04l.08-.16Zm24.62,4.13c-1.07.03-1.95.87-2.02,1.94h0c0,1.07.87,1.94,1.95,1.94,1.07,0,1.94-.87,1.94-1.94h0c.03-1.02-.76-1.89-1.78-1.94h-.08,0Zm-49.25,13.04c1.07-.01,1.93-.88,1.94-1.94h0c-.04-1.06-.89-1.9-1.94-1.94-1.09.03-1.96.93-1.94,2.02h0c-.05.97.69,1.81,1.67,1.86.04,0,.08,0,.12,0h.16Zm-1.94-11.1c.01,1.07.88,1.93,1.94,1.94,1.07-.03,1.95-.87,2.02-1.94,0-1.11-.88-2.02-1.99-2.02-.01,0-.02,0-.03,0h0c-1.02-.03-1.89.76-1.94,1.78v.24Zm53.14,9.15c0-1.06-.81-1.94-1.86-2.03-1.07.03-1.95.87-2.03,1.94.01,1.07.88,1.93,1.94,1.94,1,.07,1.87-.69,1.94-1.69,0,0,0,0,0,0v-.16Z"/><path class="cls-14" d="m359.31,40.46h16.12c1.94,0,3,1.13,2.67,3.08-.57,3.24-1.13,6.56-1.7,9.8-.4,2.11-.73,4.29-1.13,6.4-.2,1.21-1.28,2.08-2.51,2.02h-26.81c-1.23.06-2.31-.81-2.51-2.02-.65-3.4-1.21-6.8-1.86-10.12-.32-2.03-.73-3.97-1.05-5.99-.32-2.02.73-3.24,2.67-3.24h16.12v.08Zm-10.21,6.56c0-1.12-.91-2.02-2.02-2.02s-2.03.91-2.03,2.02.91,2.03,2.03,2.03c1.11,0,2.02-.88,2.02-1.99,0-.01,0-.02,0-.03h0Zm2.02,6.24c-1.07.03-1.95.87-2.02,1.94,0,1.12.91,2.02,2.02,2.02s2.03-.91,2.03-2.02c0-1.07-.86-1.94-1.93-1.95-.03,0-.07,0-.1,0Zm22.44-6.16c.02-1.09-.85-2-1.94-2.02-1.08,0-1.97.86-2.03,1.94-.02,1.09.85,2,1.94,2.03h0c1.09-.03,1.96-.93,1.94-2.03h0l.08.08Zm-6.08,6.16c.02-1.14.97-2.05,2.11-2.02,1.14.02,2.05.97,2.02,2.11s-.97,2.05-2.11,2.02c-1.11-.02-2-.92-2.02-2.02h0v-.08Zm-10.21-6.16c-1.1.02-1.97.93-1.94,2.02s.93,1.97,2.02,1.94c1.1-.02,1.97-.93,1.94-2.02-.02-1.06-.88-1.92-1.94-1.94h-.08Zm6.16-2.02c-1.12,0-2.02.91-2.02,2.02s.91,2.03,2.02,2.03,2.02-.91,2.02-2.03c0-1.11-.88-2.02-1.99-2.03-.01,0-.02,0-.03,0h0Zm-2.11,10.29c.02-1.09-.85-2-1.94-2.02-1.1-.02-2,.85-2.02,1.94s.85,2,1.94,2.02h0c1.09.02,2-.85,2.02-1.94Z"/><path class="cls-50" d="m383.93,44.59c1.02-.03,1.89.76,1.94,1.78v.16c0,1.08-.86,1.97-1.94,2.03h0c-1.07,0-1.94-.87-1.94-1.95,0-1.07.87-1.94,1.94-1.94h0v-.08Z"/><path class="cls-50" d="m334.69,57.63c-1,.04-1.85-.71-1.94-1.7v-.16c-.02-1.1.85-2,1.94-2.02,0,0,0,0,0,0h0c1.1-.02,2,.85,2.02,1.94s-.85,2-1.94,2.03h0l-.08-.08Z"/><path class="cls-50" d="m332.74,46.53c-.04-1,.71-1.85,1.7-1.94h.24c1.07,0,1.94.86,1.95,1.93,0,.03,0,.07,0,.1-.04,1.06-.89,1.9-1.94,1.94-1.07-.01-1.93-.88-1.94-1.94v-.08Z"/><path class="cls-50" d="m385.88,55.69c.03,1.02-.76,1.89-1.78,1.94h-.16c-1.07-.01-1.93-.88-1.94-1.94.05-1.08.94-1.94,2.02-1.94,1.04,0,1.87.85,1.87,1.89,0,.05,0,.09,0,.14v-.08Z"/><path class="cls-22" d="m349.1,47.02c0,1.12-.91,2.03-2.02,2.03s-2.03-.91-2.03-2.03.91-2.02,2.03-2.02h0c1.1.05,1.98.93,2.02,2.02Z"/><path class="cls-17" d="m351.13,53.18c1.07.03,1.95.87,2.03,1.94,0,1.12-.91,2.02-2.03,2.02s-2.02-.91-2.02-2.02h0c.02-1.1.93-1.97,2.02-1.94,0,0,0,0,0,0Z"/><path class="cls-62" d="m373.57,47.02c0,1.12-.91,2.03-2.02,2.03s-2.03-.91-2.03-2.03.91-2.02,2.03-2.02c1.11,0,2.02.88,2.02,1.99,0,.01,0,.02,0,.03Z"/><path class="cls-17" d="m367.49,53.18c1.12,0,2.02.91,2.02,2.02s-.91,2.03-2.02,2.03-2.02-.91-2.02-2.03c0-1.11.88-2.02,1.99-2.02.01,0,.02,0,.03,0Z"/><path class="cls-14" d="m357.32,51.9c1.49-.03,2.67-1.26,2.64-2.75-.03-1.49-1.26-2.67-2.75-2.64-1.49.03-2.67,1.26-2.64,2.75.03,1.45,1.19,2.61,2.64,2.64h.11Z"/><path class="cls-17" d="m363.36,45c1.12,0,2.03.91,2.03,2.02s-.91,2.02-2.03,2.02-2.02-.91-2.02-2.02c0-1.11.88-2.02,1.99-2.02.01,0,.02,0,.03,0Z"/><path class="cls-17" d="m361.25,55.28c-.02,1.1-.93,1.97-2.02,1.94,0,0,0,0,0,0-1.08-.05-1.94-.94-1.94-2.03.02-1.1.93-1.97,2.02-1.94,0,0,0,0,0,0,1.08.05,1.94.94,1.94,2.02Z"/><path d="m347.24,18.83c1.05,1.9.37,4.29-1.53,5.34,0,0,0,0,0,0l-1.46.81,1.78,3.08-2.27,1.3-5.67-9.8,3.73-2.11c1.81-1.11,4.17-.54,5.28,1.27.02.04.04.07.07.11h.08Zm-2.27,1.3c-.34-.68-1.16-.96-1.85-.62-.03.02-.07.03-.1.05l-1.46.81,1.46,2.51,1.46-.81c.67-.41.88-1.27.49-1.94h0Z"/><path d="m349.75,21.51c-.45-2.33,1.07-4.58,3.4-5.03,2.33-.45,4.58,1.07,5.03,3.4s-1.07,4.58-3.4,5.03c0,0,0,0,0,0-2.32.44-4.56-1.08-5.02-3.4Zm6.07-1.13c-.15-1.01-1.09-1.7-2.1-1.55-.03,0-.06,0-.09.02-.98.15-1.66,1.07-1.51,2.05.01.07.03.15.05.22.15,1.01,1.09,1.7,2.1,1.55.03,0,.06,0,.09-.02.96-.13,1.63-1.02,1.5-1.98,0-.07-.02-.14-.04-.2v-.08Z"/><path d="m365.22,16.4l-.24,2.75c-.97-.24-2.43,0-2.59,1.62l-.32,3.65-2.43-.24.81-8.1,2.43.24-.16,1.46c.46-.99,1.52-1.55,2.59-1.38h-.08Z"/><path d="m369.92,20.37l-.89,2.75c-.24.65.32.89,1.38,1.22l-.73,2.11c-3.08-.73-3.65-1.94-2.92-4.05l.89-2.75-1.21-.4.73-2.19,1.22.41.49-1.46h2.51c0,.08-.73,2.27-.73,2.27l1.62.57-.73,2.19-1.62-.57v-.08Z"/><path d="m376.81,27.99c-.97,1.54-2.84,1.38-4.29.4-1.28-.67-2.02-2.05-1.86-3.48l2.43.16c-.2.6.08,1.26.65,1.54.49.32.81.32.97,0,.49-.73-3.08-2.51-1.62-4.86.97-1.46,2.67-1.46,4.13-.49,1.11.65,1.77,1.87,1.7,3.16l-2.35-.16c0-.49,0-.89-.49-1.22-.32-.24-.65-.24-.81,0-.49.8,3.16,2.42,1.54,4.94Z"/><path class="cls-17" d="m356.39,49.45c1.1-.02,1.97-.93,1.94-2.02s-.93-1.97-2.02-1.94c-1.1.02-1.97.93-1.94,2.02.02,1.06.88,1.92,1.94,1.94h.08Z"/><line class="cls-2" x1="200.34" y1="127.72" x2="200.24" y2="109.08"/><line class="cls-2" x1="39.46" y1="108.64" x2="360.46" y2="108.64"/><line class="cls-8" x1="39.88" y1="99.52" x2="39.88" y2="90.19"/><polygon class="cls-72" points="46.36 97.62 39.88 108.85 33.4 97.62 46.36 97.62"/><line class="cls-8" x1="120.02" y1="99.52" x2="120.02" y2="90.19"/><polygon class="cls-72" points="126.51 97.62 120.02 108.85 113.54 97.62 126.51 97.62"/><line class="cls-8" x1="200.17" y1="99.52" x2="200.17" y2="90.19"/><polygon class="cls-72" points="206.65 97.62 200.17 108.85 193.69 97.62 206.65 97.62"/><line class="cls-8" x1="280.31" y1="99.52" x2="280.31" y2="90.19"/><polygon class="cls-72" points="286.79 97.62 280.31 108.85 273.83 97.62 286.79 97.62"/><line class="cls-8" x1="360.46" y1="99.52" x2="360.46" y2="90.19"/><polygon class="cls-72" points="366.94 97.62 360.46 108.85 353.97 97.62 366.94 97.62"/><line class="cls-2" x1="200.42" y1="221.79" x2="200.33" y2="240.44"/><line class="cls-2" x1="39.54" y1="240.88" x2="360.54" y2="240.88"/><line class="cls-8" x1="39.96" y1="240.67" x2="39.96" y2="250"/><polygon class="cls-72" points="33.48 248.1 39.96 259.33 46.44 248.1 33.48 248.1"/><line class="cls-8" x1="120.11" y1="240.67" x2="120.11" y2="250"/><polygon class="cls-72" points="113.62 248.1 120.11 259.33 126.59 248.1 113.62 248.1"/><line class="cls-8" x1="200.25" y1="240.67" x2="200.25" y2="250"/><polygon class="cls-72" points="193.77 248.1 200.25 259.33 206.73 248.1 193.77 248.1"/><line class="cls-8" x1="280.4" y1="240.67" x2="280.4" y2="250"/><polygon class="cls-72" points="273.91 248.1 280.39 259.33 286.88 248.1 273.91 248.1"/><line class="cls-8" x1="360.54" y1="240.67" x2="360.54" y2="250"/><polygon class="cls-72" points="354.06 248.1 360.54 259.33 367.02 248.1 354.06 248.1"/><path class="cls-69" d="m294.17,301.83c.43,0,.86.02,1.29.02.73,0,1.33.6,1.34,1.34,0,.68,0,1.35,0,2.03,0,5.71,0,11.43,0,17.14,0,.37-.01.75-.13,1.11-.13.43-.65.81-1.1.81-4.84,0-9.68,0-14.52,0-.02,0-.04,0-.07,0,0-1.31,0-2.63,0-3.94,1.01,0,2.02,0,3.02-.01.13,0,.27.03.28-.18,0-.5.04-1.01-.07-1.49-.31-1.29-.68-2.56-1.01-3.84-.09-.35-.19-.69-.31-1.02-.19-.53.17-.8.48-1.09.52-.48.74-1.08.86-1.77.26-1.44-.95-3.17-2.32-3.61-.05-.07-.1-.11-.19-.07-.07-.02-.14-.03-.21-.05-.03-.04-.07-.06-.12-.03-.13-.02-.27-.04-.4-.06,0-1.75,0-3.5,0-5.24,2.48,0,4.96,0,7.44-.01.15,0,.31-.01.46-.02.89.03,1.77.04,2.66,0,.87.05,1.74.04,2.61,0Z"/><path class="cls-34" d="m281,320.32c0,1.31,0,2.63,0,3.94-.5,0-1,.01-1.49.01-4.22,0-8.44-.02-12.66.02-1.11,0-1.69-.6-1.68-1.69.04-6.46.03-12.92,0-19.37,0-.77.62-1.39,1.36-1.38.43,0,.86-.01,1.29-.02.87.02,1.74.04,2.61-.01.89.05,1.77.03,2.66.01.14,0,.29.02.43.02,2.49,0,4.98,0,7.47.01,0,1.75,0,3.5,0,5.24-.28.13-.59.07-.89.18-1.23.48-2.05,1.31-2.34,2.62-.05.03-.09.06-.03.12-.1,1.08.01,2.08.99,2.8.31.23.43.57.3.99-.08.26-.17.51-.24.78-.17.73-.36,1.45-.55,2.17-.14.53-.3,1.06-.43,1.59-.13.53-.09,1.07-.11,1.61-.01.27.06.36.35.36.99-.01,1.97,0,2.96,0Z"/><path class="cls-52" d="m270.44,301.83c-.87.05-1.74.03-2.61.01,0-2.35-.02-4.7.02-7.04.02-1.09.16-2.16.48-3.22.38-1.27.92-2.46,1.65-3.56.91-1.38,2.04-2.55,3.39-3.51.88-.63,1.82-1.2,2.83-1.55,1.01-.35,2.04-.7,3.13-.78.61-.04,1.22-.13,1.84-.12,1.54.03,3.02.33,4.45.87,1.44.54,2.73,1.32,3.91,2.3,1.02.85,1.85,1.84,2.56,2.95.5.78.9,1.62,1.24,2.49.19.48.31.98.48,1.46.15.44.18.92.23,1.39.3,2.77.07,5.55.15,8.32-.87.03-1.74.04-2.61,0,0-1.98-.01-3.97.01-5.95.01-1.14-.13-2.26-.41-3.36-.39-1.55-1.11-2.94-2.16-4.13-1.28-1.46-2.83-2.56-4.7-3.16-1.33-.42-2.68-.55-4.07-.47-1.29.08-2.51.38-3.67.92-1.92.89-3.43,2.27-4.55,4.07-.97,1.55-1.49,3.27-1.56,5.07-.09,2.33-.02,4.67-.02,7.01Z"/><path class="cls-18" d="m288.9,301.83c0-2.1.02-4.21,0-6.31-.01-1.12-.17-2.22-.62-3.26-.35-.82-.83-1.57-1.42-2.26-.88-1.02-1.97-1.73-3.21-2.18-1.14-.41-2.35-.55-3.58-.4-.75.09-1.48.27-2.16.56-1.89.82-3.28,2.18-4.14,4.07-.4.89-.56,1.81-.61,2.78-.11,2.33-.02,4.67-.05,7-.89.02-1.77.04-2.66-.01,0-2.34-.07-4.68.02-7.01.07-1.8.59-3.52,1.56-5.07,1.12-1.8,2.63-3.17,4.55-4.07,1.16-.54,2.37-.84,3.67-.92,1.4-.08,2.75.05,4.07.47,1.87.6,3.42,1.69,4.7,3.16,1.05,1.19,1.76,2.59,2.16,4.13.28,1.1.42,2.22.41,3.36-.02,1.98,0,3.97-.01,5.95-.89.05-1.77.03-2.66,0Z"/><path class="cls-37" d="m281,320.32c-.99,0-1.97-.02-2.96,0-.28,0-.36-.08-.35-.36.02-.54-.01-1.08.11-1.61.13-.53.29-1.06.43-1.59.19-.72.38-1.44.55-2.17.06-.27.16-.52.24-.78.13-.42,0-.76-.3-.99-.97-.72-1.09-1.71-.99-2.8.05-.03.05-.07.03-.12.29-1.31,1.11-2.14,2.34-2.62.29-.11.61-.05.89-.18.13.02.27.04.4.06.03.07.06.11.12.03.07.02.14.03.21.05.04.09.12.07.19.07,1.37.44,2.58,2.17,2.32,3.61-.12.69-.34,1.29-.86,1.77-.32.29-.68.56-.48,1.09.12.33.22.68.31,1.02.33,1.28.7,2.56,1.01,3.84.12.48.08.99.07,1.49,0,.21-.15.18-.28.18-1.01,0-2.02,0-3.02.01Z"/><path class="cls-18" d="m281.93,307.31c-.07,0-.15.02-.19-.07.09-.04.15,0,.19.07Z"/><path class="cls-18" d="m281.52,307.2c-.06.08-.1.04-.12-.03.05-.03.09-.01.12.03Z"/><path class="cls-52" d="m277.77,309.91s.03.09-.03.12c-.07-.06-.03-.09.03-.12Z"/><circle class="cls-4" cx="281.11" cy="305.17" r="33.88"/><path class="cls-69" d="m213.17,301.83c.43,0,.86.02,1.29.02.73,0,1.33.6,1.34,1.34,0,.68,0,1.35,0,2.03,0,5.71,0,11.43,0,17.14,0,.37-.01.75-.13,1.11-.13.43-.65.81-1.1.81-4.84,0-9.68,0-14.52,0-.02,0-.04,0-.07,0,0-1.31,0-2.63,0-3.94,1.01,0,2.02,0,3.02-.01.13,0,.27.03.28-.18,0-.5.04-1.01-.07-1.49-.31-1.29-.68-2.56-1.01-3.84-.09-.35-.19-.69-.31-1.02-.19-.53.17-.8.48-1.09.52-.48.74-1.08.86-1.77.26-1.44-.95-3.17-2.32-3.61-.05-.07-.1-.11-.19-.07-.07-.02-.14-.03-.21-.05-.03-.04-.07-.06-.12-.03-.13-.02-.27-.04-.4-.06,0-1.75,0-3.5,0-5.24,2.48,0,4.96,0,7.44-.01.15,0,.31-.01.46-.02.89.03,1.77.04,2.66,0,.87.05,1.74.04,2.61,0Z"/><path class="cls-34" d="m200,320.32c0,1.31,0,2.63,0,3.94-.5,0-1,.01-1.49.01-4.22,0-8.44-.02-12.66.02-1.11,0-1.69-.6-1.68-1.69.04-6.46.03-12.92,0-19.37,0-.77.62-1.39,1.36-1.38.43,0,.86-.01,1.29-.02.87.02,1.74.04,2.61-.01.89.05,1.77.03,2.66.01.14,0,.29.02.43.02,2.49,0,4.98,0,7.47.01,0,1.75,0,3.5,0,5.24-.28.13-.59.07-.89.18-1.23.48-2.05,1.31-2.34,2.62-.05.03-.09.06-.03.12-.1,1.08.01,2.08.99,2.8.31.23.43.57.3.99-.08.26-.17.51-.24.78-.17.73-.36,1.45-.55,2.17-.14.53-.3,1.06-.43,1.59-.13.53-.09,1.07-.11,1.61-.01.27.06.36.35.36.99-.01,1.97,0,2.96,0Z"/><path class="cls-52" d="m189.44,301.83c-.87.05-1.74.03-2.61.01,0-2.35-.02-4.7.02-7.04.02-1.09.16-2.16.48-3.22.38-1.27.92-2.46,1.65-3.56.91-1.38,2.04-2.55,3.39-3.51.88-.63,1.82-1.2,2.83-1.55,1.01-.35,2.04-.7,3.13-.78.61-.04,1.22-.13,1.84-.12,1.54.03,3.02.33,4.45.87,1.44.54,2.73,1.32,3.91,2.3,1.02.85,1.85,1.84,2.56,2.95.5.78.9,1.62,1.24,2.49.19.48.31.98.48,1.46.15.44.18.92.23,1.39.3,2.77.07,5.55.15,8.32-.87.03-1.74.04-2.61,0,0-1.98-.01-3.97.01-5.95.01-1.14-.13-2.26-.41-3.36-.39-1.55-1.11-2.94-2.16-4.13-1.28-1.46-2.83-2.56-4.7-3.16-1.33-.42-2.68-.55-4.07-.47-1.29.08-2.51.38-3.67.92-1.92.89-3.43,2.27-4.55,4.07-.97,1.55-1.49,3.27-1.56,5.07-.09,2.33-.02,4.67-.02,7.01Z"/><path class="cls-18" d="m207.9,301.83c0-2.1.02-4.21,0-6.31-.01-1.12-.17-2.22-.62-3.26-.35-.82-.83-1.57-1.42-2.26-.88-1.02-1.97-1.73-3.21-2.18-1.14-.41-2.35-.55-3.58-.4-.75.09-1.48.27-2.16.56-1.89.82-3.28,2.18-4.14,4.07-.4.89-.56,1.81-.61,2.78-.11,2.33-.02,4.67-.05,7-.89.02-1.77.04-2.66-.01,0-2.34-.07-4.68.02-7.01.07-1.8.59-3.52,1.56-5.07,1.12-1.8,2.63-3.17,4.55-4.07,1.16-.54,2.37-.84,3.67-.92,1.4-.08,2.75.05,4.07.47,1.87.6,3.42,1.69,4.7,3.16,1.05,1.19,1.76,2.59,2.16,4.13.28,1.1.42,2.22.41,3.36-.02,1.98,0,3.97-.01,5.95-.89.05-1.77.03-2.66,0Z"/><path class="cls-37" d="m200,320.32c-.99,0-1.97-.02-2.96,0-.28,0-.36-.08-.35-.36.02-.54-.01-1.08.11-1.61.13-.53.29-1.06.43-1.59.19-.72.38-1.44.55-2.17.06-.27.16-.52.24-.78.13-.42,0-.76-.3-.99-.97-.72-1.09-1.71-.99-2.8.05-.03.05-.07.03-.12.29-1.31,1.11-2.14,2.34-2.62.29-.11.61-.05.89-.18.13.02.27.04.4.06.03.07.06.11.12.03.07.02.14.03.21.05.04.09.12.07.19.07,1.37.44,2.58,2.17,2.32,3.61-.12.69-.34,1.29-.86,1.77-.32.29-.68.56-.48,1.09.12.33.22.68.31,1.02.33,1.28.7,2.56,1.01,3.84.12.48.08.99.07,1.49,0,.21-.15.18-.28.18-1.01,0-2.02,0-3.02.01Z"/><path class="cls-18" d="m200.93,307.31c-.07,0-.15.02-.19-.07.09-.04.15,0,.19.07Z"/><path class="cls-18" d="m200.52,307.2c-.06.08-.1.04-.12-.03.05-.03.09-.01.12.03Z"/><path class="cls-52" d="m196.77,309.91s.03.09-.03.12c-.07-.06-.03-.09.03-.12Z"/><circle class="cls-4" cx="200.11" cy="305.17" r="33.88"/><path class="cls-69" d="m132.17,301.83c.43,0,.86.02,1.29.02.73,0,1.33.6,1.34,1.34,0,.68,0,1.35,0,2.03,0,5.71,0,11.43,0,17.14,0,.37-.01.75-.13,1.11-.13.43-.65.81-1.1.81-4.84,0-9.68,0-14.52,0-.02,0-.04,0-.07,0,0-1.31,0-2.63,0-3.94,1.01,0,2.02,0,3.02-.01.13,0,.27.03.28-.18,0-.5.04-1.01-.07-1.49-.31-1.29-.68-2.56-1.01-3.84-.09-.35-.19-.69-.31-1.02-.19-.53.17-.8.48-1.09.52-.48.74-1.08.86-1.77.26-1.44-.95-3.17-2.32-3.61-.05-.07-.1-.11-.19-.07-.07-.02-.14-.03-.21-.05-.03-.04-.07-.06-.12-.03-.13-.02-.27-.04-.4-.06,0-1.75,0-3.5,0-5.24,2.48,0,4.96,0,7.44-.01.15,0,.31-.01.46-.02.89.03,1.77.04,2.66,0,.87.05,1.74.04,2.61,0Z"/><path class="cls-34" d="m119,320.32c0,1.31,0,2.63,0,3.94-.5,0-1,.01-1.49.01-4.22,0-8.44-.02-12.66.02-1.11,0-1.69-.6-1.68-1.69.04-6.46.03-12.92,0-19.37,0-.77.62-1.39,1.36-1.38.43,0,.86-.01,1.29-.02.87.02,1.74.04,2.61-.01.89.05,1.77.03,2.66.01.14,0,.29.02.43.02,2.49,0,4.98,0,7.47.01,0,1.75,0,3.5,0,5.24-.28.13-.59.07-.89.18-1.23.48-2.05,1.31-2.34,2.62-.05.03-.09.06-.03.12-.1,1.08.01,2.08.99,2.8.31.23.43.57.3.99-.08.26-.17.51-.24.78-.17.73-.36,1.45-.55,2.17-.14.53-.3,1.06-.43,1.59-.13.53-.09,1.07-.11,1.61-.01.27.06.36.35.36.99-.01,1.97,0,2.96,0Z"/><path class="cls-52" d="m108.44,301.83c-.87.05-1.74.03-2.61.01,0-2.35-.02-4.7.02-7.04.02-1.09.16-2.16.48-3.22.38-1.27.92-2.46,1.65-3.56.91-1.38,2.04-2.55,3.39-3.51.88-.63,1.82-1.2,2.83-1.55,1.01-.35,2.04-.7,3.13-.78.61-.04,1.22-.13,1.84-.12,1.54.03,3.02.33,4.45.87,1.44.54,2.73,1.32,3.91,2.3,1.02.85,1.85,1.84,2.56,2.95.5.78.9,1.62,1.24,2.49.19.48.31.98.48,1.46.15.44.18.92.23,1.39.3,2.77.07,5.55.15,8.32-.87.03-1.74.04-2.61,0,0-1.98-.01-3.97.01-5.95.01-1.14-.13-2.26-.41-3.36-.39-1.55-1.11-2.94-2.16-4.13-1.28-1.46-2.83-2.56-4.7-3.16-1.33-.42-2.68-.55-4.07-.47-1.29.08-2.51.38-3.67.92-1.92.89-3.43,2.27-4.55,4.07-.97,1.55-1.49,3.27-1.56,5.07-.09,2.33-.02,4.67-.02,7.01Z"/><path class="cls-18" d="m126.9,301.83c0-2.1.02-4.21,0-6.31-.01-1.12-.17-2.22-.62-3.26-.35-.82-.83-1.57-1.42-2.26-.88-1.02-1.97-1.73-3.21-2.18-1.14-.41-2.35-.55-3.58-.4-.75.09-1.48.27-2.16.56-1.89.82-3.28,2.18-4.14,4.07-.4.89-.56,1.81-.61,2.78-.11,2.33-.02,4.67-.05,7-.89.02-1.77.04-2.66-.01,0-2.34-.07-4.68.02-7.01.07-1.8.59-3.52,1.56-5.07,1.12-1.8,2.63-3.17,4.55-4.07,1.16-.54,2.37-.84,3.67-.92,1.4-.08,2.75.05,4.07.47,1.87.6,3.42,1.69,4.7,3.16,1.05,1.19,1.76,2.59,2.16,4.13.28,1.1.42,2.22.41,3.36-.02,1.98,0,3.97-.01,5.95-.89.05-1.77.03-2.66,0Z"/><path class="cls-37" d="m119,320.32c-.99,0-1.97-.02-2.96,0-.28,0-.36-.08-.35-.36.02-.54-.01-1.08.11-1.61.13-.53.29-1.06.43-1.59.19-.72.38-1.44.55-2.17.06-.27.16-.52.24-.78.13-.42,0-.76-.3-.99-.97-.72-1.09-1.71-.99-2.8.05-.03.05-.07.03-.12.29-1.31,1.11-2.14,2.34-2.62.29-.11.61-.05.89-.18.13.02.27.04.4.06.03.07.06.11.12.03.07.02.14.03.21.05.04.09.12.07.19.07,1.37.44,2.58,2.17,2.32,3.61-.12.69-.34,1.29-.86,1.77-.32.29-.68.56-.48,1.09.12.33.22.68.31,1.02.33,1.28.7,2.56,1.01,3.84.12.48.08.99.07,1.49,0,.21-.15.18-.28.18-1.01,0-2.02,0-3.02.01Z"/><path class="cls-18" d="m119.93,307.31c-.07,0-.15.02-.19-.07.09-.04.15,0,.19.07Z"/><path class="cls-18" d="m119.52,307.2c-.06.08-.1.04-.12-.03.05-.03.09-.01.12.03Z"/><path class="cls-52" d="m115.77,309.91s.03.09-.03.12c-.07-.06-.03-.09.03-.12Z"/><circle class="cls-4" cx="119.11" cy="305.17" r="33.88"/><path class="cls-69" d="m51.17,301.83c.43,0,.86.02,1.29.02.73,0,1.33.6,1.34,1.34,0,.68,0,1.35,0,2.03,0,5.71,0,11.43,0,17.14,0,.37-.01.75-.13,1.11-.13.43-.65.81-1.1.81-4.84,0-9.68,0-14.52,0-.02,0-.04,0-.07,0,0-1.31,0-2.63,0-3.94,1.01,0,2.02,0,3.02-.01.13,0,.27.03.28-.18,0-.5.04-1.01-.07-1.49-.31-1.29-.68-2.56-1.01-3.84-.09-.35-.19-.69-.31-1.02-.19-.53.17-.8.48-1.09.52-.48.74-1.08.86-1.77.26-1.44-.95-3.17-2.32-3.61-.05-.07-.1-.11-.19-.07-.07-.02-.14-.03-.21-.05-.03-.04-.07-.06-.12-.03-.13-.02-.27-.04-.4-.06,0-1.75,0-3.5,0-5.24,2.48,0,4.96,0,7.44-.01.15,0,.31-.01.46-.02.89.03,1.77.04,2.66,0,.87.05,1.74.04,2.61,0Z"/><path class="cls-34" d="m38,320.32c0,1.31,0,2.63,0,3.94-.5,0-1,.01-1.49.01-4.22,0-8.44-.02-12.66.02-1.11,0-1.69-.6-1.68-1.69.04-6.46.03-12.92,0-19.37,0-.77.62-1.39,1.36-1.38.43,0,.86-.01,1.29-.02.87.02,1.74.04,2.61-.01.89.05,1.77.03,2.66.01.14,0,.29.02.43.02,2.49,0,4.98,0,7.47.01,0,1.75,0,3.5,0,5.24-.28.13-.59.07-.89.18-1.23.48-2.05,1.31-2.34,2.62-.05.03-.09.06-.03.12-.1,1.08.01,2.08.99,2.8.31.23.43.57.3.99-.08.26-.17.51-.24.78-.17.73-.36,1.45-.55,2.17-.14.53-.3,1.06-.43,1.59-.13.53-.09,1.07-.11,1.61-.01.27.06.36.35.36.99-.01,1.97,0,2.96,0Z"/><path class="cls-52" d="m27.44,301.83c-.87.05-1.74.03-2.61.01,0-2.35-.02-4.7.02-7.04.02-1.09.16-2.16.48-3.22.38-1.27.92-2.46,1.65-3.56.91-1.38,2.04-2.55,3.39-3.51.88-.63,1.82-1.2,2.83-1.55,1.01-.35,2.04-.7,3.13-.78.61-.04,1.22-.13,1.84-.12,1.54.03,3.02.33,4.45.87,1.44.54,2.73,1.32,3.91,2.3,1.02.85,1.85,1.84,2.56,2.95.5.78.9,1.62,1.24,2.49.19.48.31.98.48,1.46.15.44.18.92.23,1.39.3,2.77.07,5.55.15,8.32-.87.03-1.74.04-2.61,0,0-1.98-.01-3.97.01-5.95.01-1.14-.13-2.26-.41-3.36-.39-1.55-1.11-2.94-2.16-4.13-1.28-1.46-2.83-2.56-4.7-3.16-1.33-.42-2.68-.55-4.07-.47-1.29.08-2.51.38-3.67.92-1.92.89-3.43,2.27-4.55,4.07-.97,1.55-1.49,3.27-1.56,5.07-.09,2.33-.02,4.67-.02,7.01Z"/><path class="cls-18" d="m45.9,301.83c0-2.1.02-4.21,0-6.31-.01-1.12-.17-2.22-.62-3.26-.35-.82-.83-1.57-1.42-2.26-.88-1.02-1.97-1.73-3.21-2.18-1.14-.41-2.35-.55-3.58-.4-.75.09-1.48.27-2.16.56-1.89.82-3.28,2.18-4.14,4.07-.4.89-.56,1.81-.61,2.78-.11,2.33-.02,4.67-.05,7-.89.02-1.77.04-2.66-.01,0-2.34-.07-4.68.02-7.01.07-1.8.59-3.52,1.56-5.07,1.12-1.8,2.63-3.17,4.55-4.07,1.16-.54,2.37-.84,3.67-.92,1.4-.08,2.75.05,4.07.47,1.87.6,3.42,1.69,4.7,3.16,1.05,1.19,1.76,2.59,2.16,4.13.28,1.1.42,2.22.41,3.36-.02,1.98,0,3.97-.01,5.95-.89.05-1.77.03-2.66,0Z"/><path class="cls-37" d="m38,320.32c-.99,0-1.97-.02-2.96,0-.28,0-.36-.08-.35-.36.02-.54-.01-1.08.11-1.61.13-.53.29-1.06.43-1.59.19-.72.38-1.44.55-2.17.06-.27.16-.52.24-.78.13-.42,0-.76-.3-.99-.97-.72-1.09-1.71-.99-2.8.05-.03.05-.07.03-.12.29-1.31,1.11-2.14,2.34-2.62.29-.11.61-.05.89-.18.13.02.27.04.4.06.03.07.06.11.12.03.07.02.14.03.21.05.04.09.12.07.19.07,1.37.44,2.58,2.17,2.32,3.61-.12.69-.34,1.29-.86,1.77-.32.29-.68.56-.48,1.09.12.33.22.68.31,1.02.33,1.28.7,2.56,1.01,3.84.12.48.08.99.07,1.49,0,.21-.15.18-.28.18-1.01,0-2.02,0-3.02.01Z"/><path class="cls-18" d="m38.93,307.31c-.07,0-.15.02-.19-.07.09-.04.15,0,.19.07Z"/><path class="cls-18" d="m38.52,307.2c-.06.08-.1.04-.12-.03.05-.03.09-.01.12.03Z"/><path class="cls-52" d="m34.77,309.91s.03.09-.03.12c-.07-.06-.03-.09.03-.12Z"/><circle class="cls-4" cx="38.11" cy="305.17" r="33.88"/><path class="cls-69" d="m375.17,301.83c.43,0,.86.02,1.29.02.73,0,1.33.6,1.34,1.34,0,.68,0,1.35,0,2.03,0,5.71,0,11.43,0,17.14,0,.37-.01.75-.13,1.11-.13.43-.65.81-1.1.81-4.84,0-9.68,0-14.52,0-.02,0-.04,0-.07,0,0-1.31,0-2.63,0-3.94,1.01,0,2.02,0,3.02-.01.13,0,.27.03.28-.18,0-.5.04-1.01-.07-1.49-.31-1.29-.68-2.56-1.01-3.84-.09-.35-.19-.69-.31-1.02-.19-.53.17-.8.48-1.09.52-.48.74-1.08.86-1.77.26-1.44-.95-3.17-2.32-3.61-.05-.07-.1-.11-.19-.07-.07-.02-.14-.03-.21-.05-.03-.04-.07-.06-.12-.03-.13-.02-.27-.04-.4-.06,0-1.75,0-3.5,0-5.24,2.48,0,4.96,0,7.44-.01.15,0,.31-.01.46-.02.89.03,1.77.04,2.66,0,.87.05,1.74.04,2.61,0Z"/><path class="cls-34" d="m362,320.32c0,1.31,0,2.63,0,3.94-.5,0-1,.01-1.49.01-4.22,0-8.44-.02-12.66.02-1.11,0-1.69-.6-1.68-1.69.04-6.46.03-12.92,0-19.37,0-.77.62-1.39,1.36-1.38.43,0,.86-.01,1.29-.02.87.02,1.74.04,2.61-.01.89.05,1.77.03,2.66.01.14,0,.29.02.43.02,2.49,0,4.98,0,7.47.01,0,1.75,0,3.5,0,5.24-.28.13-.59.07-.89.18-1.23.48-2.05,1.31-2.34,2.62-.05.03-.09.06-.03.12-.1,1.08.01,2.08.99,2.8.31.23.43.57.3.99-.08.26-.17.51-.24.78-.17.73-.36,1.45-.55,2.17-.14.53-.3,1.06-.43,1.59-.13.53-.09,1.07-.11,1.61-.01.27.06.36.35.36.99-.01,1.97,0,2.96,0Z"/><path class="cls-52" d="m351.44,301.83c-.87.05-1.74.03-2.61.01,0-2.35-.02-4.7.02-7.04.02-1.09.16-2.16.48-3.22.38-1.27.92-2.46,1.65-3.56.91-1.38,2.04-2.55,3.39-3.51.88-.63,1.82-1.2,2.83-1.55,1.01-.35,2.04-.7,3.13-.78.61-.04,1.22-.13,1.84-.12,1.54.03,3.02.33,4.45.87,1.44.54,2.73,1.32,3.91,2.3,1.02.85,1.85,1.84,2.56,2.95.5.78.9,1.62,1.24,2.49.19.48.31.98.48,1.46.15.44.18.92.23,1.39.3,2.77.07,5.55.15,8.32-.87.03-1.74.04-2.61,0,0-1.98-.01-3.97.01-5.95.01-1.14-.13-2.26-.41-3.36-.39-1.55-1.11-2.94-2.16-4.13-1.28-1.46-2.83-2.56-4.7-3.16-1.33-.42-2.68-.55-4.07-.47-1.29.08-2.51.38-3.67.92-1.92.89-3.43,2.27-4.55,4.07-.97,1.55-1.49,3.27-1.56,5.07-.09,2.33-.02,4.67-.02,7.01Z"/><path class="cls-18" d="m369.9,301.83c0-2.1.02-4.21,0-6.31-.01-1.12-.17-2.22-.62-3.26-.35-.82-.83-1.57-1.42-2.26-.88-1.02-1.97-1.73-3.21-2.18-1.14-.41-2.35-.55-3.58-.4-.75.09-1.48.27-2.16.56-1.89.82-3.28,2.18-4.14,4.07-.4.89-.56,1.81-.61,2.78-.11,2.33-.02,4.67-.05,7-.89.02-1.77.04-2.66-.01,0-2.34-.07-4.68.02-7.01.07-1.8.59-3.52,1.56-5.07,1.12-1.8,2.63-3.17,4.55-4.07,1.16-.54,2.37-.84,3.67-.92,1.4-.08,2.75.05,4.07.47,1.87.6,3.42,1.69,4.7,3.16,1.05,1.19,1.76,2.59,2.16,4.13.28,1.1.42,2.22.41,3.36-.02,1.98,0,3.97-.01,5.95-.89.05-1.77.03-2.66,0Z"/><path class="cls-37" d="m362,320.32c-.99,0-1.97-.02-2.96,0-.28,0-.36-.08-.35-.36.02-.54-.01-1.08.11-1.61.13-.53.29-1.06.43-1.59.19-.72.38-1.44.55-2.17.06-.27.16-.52.24-.78.13-.42,0-.76-.3-.99-.97-.72-1.09-1.71-.99-2.8.05-.03.05-.07.03-.12.29-1.31,1.11-2.14,2.34-2.62.29-.11.61-.05.89-.18.13.02.27.04.4.06.03.07.06.11.12.03.07.02.14.03.21.05.04.09.12.07.19.07,1.37.44,2.58,2.17,2.32,3.61-.12.69-.34,1.29-.86,1.77-.32.29-.68.56-.48,1.09.12.33.22.68.31,1.02.33,1.28.7,2.56,1.01,3.84.12.48.08.99.07,1.49,0,.21-.15.18-.28.18-1.01,0-2.02,0-3.02.01Z"/><path class="cls-18" d="m362.93,307.31c-.07,0-.15.02-.19-.07.09-.04.15,0,.19.07Z"/><path class="cls-18" d="m362.52,307.2c-.06.08-.1.04-.12-.03.05-.03.09-.01.12.03Z"/><path class="cls-52" d="m358.77,309.91s.03.09-.03.12c-.07-.06-.03-.09.03-.12Z"/><circle class="cls-4" cx="362.11" cy="305.17" r="33.88"/></svg>