<?xml version="1.0" encoding="UTF-8"?><svg id="Layer_1" xmlns="http://www.w3.org/2000/svg" viewBox="0 0 400 698"><defs><style>.cls-1,.cls-2,.cls-3,.cls-4,.cls-5{stroke-miterlimit:10;}.cls-1,.cls-6{fill:#fff;}.cls-1,.cls-5{stroke:#231f20;stroke-width:2px;}.cls-2{stroke:#a5262d;}.cls-2,.cls-3,.cls-4{stroke-width:4px;}.cls-2,.cls-3,.cls-4,.cls-5{fill:none;}.cls-3{stroke:#000;}.cls-7{fill:#72b3e2;}.cls-4{stroke:#0018c6;}.cls-8{fill:#d1d1d1;}.cls-9{fill:#8ac5cd;}.cls-10{fill:#546e7a;}.cls-11{fill:#333;}.cls-12{fill:#ffed58;}.cls-13{fill:gray;}.cls-14{fill:#36464e;}.cls-15{fill:#3b566a;}.cls-16{fill:#b2d3d9;}.cls-17{fill:#199dbc;}.cls-18{fill:#72b2e2;}.cls-19{fill:#b3d4da;}.cls-20{fill:#788f9b;}.cls-21{fill:#484645;}.cls-22{fill:#637889;}.cls-23{fill:#b3b3b3;}.cls-24{fill:#88c4cc;}.cls-25{fill:#2f4859;}.cls-26{fill:#304959;}.cls-27{fill:#fbd734;}.cls-28{fill:#231f20;}</style></defs><circle class="cls-2" cx="200" cy="58" r="45"/><rect class="cls-23" x="174" y="48" width="52" height="37" rx="2.9" ry="2.9"/><path class="cls-21" d="m200.8,78.3l-1.1-3.4h-8l-1,3.4h-6.5l7.5-23.6h7.6l7.8,23.6h-6.3Zm-7.6-8.6h4.8l-2.4-8-2.4,8Z"/><path class="cls-21" d="m208.5,78.3v-24.7h5.6v24.7h-5.6Z"/><path d="m176.1,36.7l-2.4,3.1,1,1.4-1.6,2.1-6.1-9.3,1.9-2.4,10.5,3.7-1.6,2.1-1.6-.6-.1-.1Zm-2.2-.8l-3.8-1.4,2.3,3.3,1.5-1.9Z"/><path d="m172.8,26.9l1.7-1.4,7,8.4-1.7,1.4-7-8.4Z"/><path d="m185,23.1l3.6,6.6-2,1.1-.3-.6c0,.7-.6,1.4-1.4,1.8-1.3.7-3,.4-3.9-1.4l-2.2-4,2-1.1,2,3.8c.4.8,1.2.9,1.8.6.7-.4,1-1.1.5-2l-2-3.6,2-1.1-.1-.1Z"/><path d="m199.6,22.6l.8,4.5-2.2.4-.8-4.3c-.1-.7-.6-1.1-1.3-1s-1.1.7-.9,1.6l.7,4.2-2.2.4-.8-4.3c-.1-.7-.6-1.1-1.3-1s-1.1.7-.9,1.6l.7,4.2-2.2.4-1.3-7.4,2.2-.4v.7c.4-.6,1-1.1,1.9-1.2.9-.2,1.6,0,2.1.6.3-.7.9-1.2,2-1.4,1.7-.3,3,.7,3.3,2.6l.2-.2Z"/><path d="m201.9,20.2l2.2.2-.6,7.5-2.2-.2.6-7.5Zm0-2c0-.7.7-1.3,1.5-1.2.7,0,1.3.7,1.2,1.5s-.7,1.3-1.5,1.2c-.7,0-1.3-.7-1.2-1.5Z"/><path d="m212.9,25.3l-1.2,4.4-2.2-.6,1.1-4.1c.2-.9-.2-1.5-.9-1.7-.8-.2-1.5,0-1.8,1.1l-1.1,3.9-2.2-.6,2-7.2,2.2.6-.2.7c.5-.4,1.4-.6,2.3-.3,1.5.4,2.4,1.8,1.9,3.7l.1.1Z"/><path d="m222.5,27.3l-3.8,6.4-1.9-1.2.4-.6c-.6.3-1.5.2-2.3-.3-1.3-.8-1.9-2.4-.8-4.1l2.4-4,1.9,1.2-2.2,3.7c-.5.8-.2,1.5.4,1.8.7.4,1.4.3,2-.6l2.1-3.5,1.9,1.2h-.1Z"/><path d="m230.3,39.6l-3.5,3-1.5-1.7,3.4-2.9c.6-.5.7-1.1.2-1.6-.5-.6-1.2-.5-1.8,0l-3.2,2.7-1.5-1.7,3.4-2.9c.6-.5.7-1.1.2-1.6-.5-.6-1.2-.5-1.8,0l-3.2,2.7-1.5-1.7,5.7-4.9,1.5,1.7-.5.4c.6,0,1.3.2,2,.9.6.7.7,1.4.5,2.1.7,0,1.5.2,2.2,1,1.1,1.3.9,3-.5,4.2l-.1.3Z"/><path class="cls-27" d="m352.18,407.97c.5,0,.99.02,1.49.02.84,0,1.54.69,1.55,1.54,0,.78,0,1.56,0,2.33,0,6.58,0,13.16,0,19.75,0,.43-.02.86-.15,1.28-.15.49-.75.93-1.27.93-5.57,0-11.15,0-16.72,0-.03,0-.05,0-.08,0,0-1.51,0-3.03,0-4.54,1.16,0,2.32,0,3.48-.01.15,0,.32.04.32-.21,0-.57.05-1.16-.08-1.71-.36-1.48-.79-2.95-1.17-4.43-.1-.4-.22-.79-.36-1.18-.22-.61.19-.92.56-1.25.6-.55.85-1.24.99-2.03.3-1.66-1.1-3.65-2.68-4.16-.05-.09-.12-.13-.22-.08-.08-.02-.16-.04-.24-.05-.04-.05-.08-.07-.14-.03-.15-.02-.31-.04-.46-.07,0-2.01,0-4.03,0-6.04,2.86,0,5.71,0,8.57-.02.18,0,.36-.01.53-.02,1.02.03,2.04.05,3.07,0,1,.06,2,.04,3.01,0Z"/><path class="cls-12" d="m337,429.26c0,1.51,0,3.03,0,4.54-.57,0-1.15.01-1.72.01-4.86,0-9.72-.02-14.58.02-1.28.01-1.94-.69-1.94-1.94.04-7.44.03-14.88,0-22.32,0-.89.72-1.6,1.57-1.59.5,0,.99-.01,1.49-.02,1,.03,2,.05,3-.01,1.02.06,2.04.03,3.06.01.17,0,.33.02.5.02,2.87,0,5.74,0,8.61.01,0,2.01,0,4.03,0,6.04-.32.15-.68.08-1.02.21-1.42.55-2.36,1.51-2.7,3.02-.06.03-.11.07-.03.14-.11,1.25.02,2.39,1.14,3.22.35.26.49.65.35,1.14-.09.3-.2.59-.27.9-.2.84-.42,1.66-.64,2.49-.16.61-.35,1.22-.5,1.83-.15.61-.11,1.23-.13,1.85-.01.31.07.42.4.41,1.14-.02,2.27,0,3.41,0Z"/><path class="cls-20" d="m324.83,407.96c-1,.06-2,.04-3,.01,0-2.7-.02-5.41.02-8.11.02-1.25.19-2.49.55-3.71.44-1.46,1.06-2.83,1.9-4.1,1.05-1.58,2.35-2.94,3.9-4.05,1.02-.73,2.09-1.38,3.27-1.78,1.17-.41,2.35-.81,3.61-.9.71-.05,1.41-.16,2.12-.14,1.77.03,3.47.38,5.13,1,1.65.62,3.14,1.52,4.5,2.65,1.17.97,2.13,2.12,2.94,3.4.58.9,1.03,1.86,1.42,2.87.21.55.36,1.12.55,1.68.17.51.21,1.06.27,1.6.35,3.19.08,6.39.17,9.58-1,.04-2,.05-3,0,0-2.28-.02-4.57.01-6.85.02-1.31-.15-2.6-.47-3.87-.45-1.78-1.28-3.39-2.48-4.76-1.47-1.68-3.26-2.95-5.42-3.64-1.53-.49-3.08-.64-4.69-.54-1.49.09-2.89.44-4.22,1.06-2.21,1.03-3.95,2.61-5.24,4.69-1.11,1.79-1.72,3.76-1.8,5.84-.1,2.69-.02,5.38-.02,8.08Z"/><path class="cls-10" d="m346.11,407.97c0-2.42.02-4.85,0-7.27-.01-1.29-.19-2.56-.71-3.76-.41-.95-.96-1.81-1.64-2.6-1.01-1.18-2.27-1.99-3.7-2.51-1.32-.48-2.7-.64-4.13-.46-.87.11-1.71.31-2.49.65-2.18.95-3.78,2.51-4.77,4.69-.46,1.02-.65,2.09-.7,3.2-.13,2.69-.02,5.38-.06,8.06-1.02.02-2.04.04-3.06-.01,0-2.69-.08-5.39.02-8.08.08-2.08.68-4.05,1.8-5.84,1.29-2.08,3.03-3.66,5.24-4.69,1.33-.62,2.73-.97,4.22-1.06,1.61-.09,3.16.06,4.69.54,2.16.69,3.94,1.95,5.42,3.64,1.2,1.38,2.03,2.98,2.48,4.76.32,1.27.49,2.55.47,3.87-.03,2.28-.01,4.57-.01,6.85-1.02.05-2.04.04-3.07,0Z"/><path class="cls-14" d="m337,429.26c-1.14,0-2.27-.02-3.41,0-.33,0-.41-.1-.4-.41.02-.62-.01-1.25.13-1.85.15-.62.34-1.22.5-1.83.22-.83.44-1.66.64-2.49.07-.31.18-.6.27-.9.14-.49,0-.88-.35-1.14-1.12-.83-1.25-1.97-1.14-3.22.06-.03.06-.08.03-.14.34-1.51,1.28-2.47,2.7-3.02.34-.13.7-.05,1.02-.21.15.02.31.04.46.07.03.08.07.12.14.03.08.02.16.04.24.05.04.11.14.08.22.08,1.58.51,2.98,2.5,2.68,4.16-.14.79-.4,1.48-.99,2.03-.36.33-.78.65-.56,1.25.14.39.25.78.36,1.18.38,1.48.81,2.94,1.17,4.43.13.55.09,1.14.08,1.71,0,.25-.17.21-.32.21-1.16,0-2.32,0-3.48.01Z"/><path class="cls-10" d="m338.07,414.28c-.09,0-.18.03-.22-.08.1-.05.17,0,.22.08Z"/><path class="cls-10" d="m337.6,414.15c-.07.09-.11.05-.14-.03.06-.03.1-.02.14.03Z"/><path class="cls-20" d="m333.28,417.27c.03.06.03.1-.03.14-.08-.07-.03-.1.03-.14Z"/><circle class="cls-3" cx="337.13" cy="411.81" r="39.02"/><path class="cls-27" d="m164.18,527.63c.5,0,.99.02,1.49.02.84,0,1.54.69,1.55,1.54,0,.78,0,1.56,0,2.33,0,6.58,0,13.16,0,19.75,0,.43-.02.86-.15,1.28-.15.49-.75.93-1.27.93-5.57,0-11.15,0-16.72,0-.03,0-.05,0-.08,0,0-1.51,0-3.03,0-4.54,1.16,0,2.32,0,3.48-.01.15,0,.32.04.32-.21,0-.57.05-1.16-.08-1.71-.36-1.48-.79-2.95-1.17-4.43-.1-.4-.22-.79-.36-1.18-.22-.61.19-.92.56-1.25.6-.55.85-1.24.99-2.03.3-1.66-1.1-3.65-2.68-4.16-.05-.09-.12-.13-.22-.08-.08-.02-.16-.04-.24-.05-.04-.05-.08-.07-.14-.03-.15-.02-.31-.04-.46-.07,0-2.01,0-4.03,0-6.04,2.86,0,5.71,0,8.57-.02.18,0,.36-.01.53-.02,1.02.03,2.04.05,3.07,0,1,.06,2,.04,3.01,0Z"/><path class="cls-12" d="m149,548.92c0,1.51,0,3.03,0,4.54-.57,0-1.15.01-1.72.01-4.86,0-9.72-.02-14.58.02-1.28.01-1.94-.69-1.94-1.94.04-7.44.03-14.88,0-22.32,0-.89.72-1.6,1.57-1.59.5,0,.99-.01,1.49-.02,1,.03,2,.05,3-.01,1.02.06,2.04.03,3.06.01.17,0,.33.02.5.02,2.87,0,5.74,0,8.61.01,0,2.01,0,4.03,0,6.04-.32.15-.68.08-1.02.21-1.42.55-2.36,1.51-2.7,3.02-.06.03-.11.07-.03.14-.11,1.25.02,2.39,1.14,3.22.35.26.49.65.35,1.14-.09.3-.2.59-.27.9-.2.84-.42,1.66-.64,2.49-.16.61-.35,1.22-.5,1.83-.15.61-.11,1.23-.13,1.85-.01.31.07.42.4.41,1.14-.02,2.27,0,3.41,0Z"/><path class="cls-20" d="m136.83,527.62c-1,.06-2,.04-3,.01,0-2.7-.02-5.41.02-8.11.02-1.25.19-2.49.55-3.71.44-1.46,1.06-2.83,1.9-4.1,1.05-1.58,2.35-2.94,3.9-4.05,1.02-.73,2.09-1.38,3.27-1.78,1.17-.41,2.35-.81,3.61-.9.71-.05,1.41-.16,2.12-.14,1.77.03,3.47.38,5.13,1,1.65.62,3.14,1.52,4.5,2.65,1.17.97,2.13,2.12,2.94,3.4.58.9,1.03,1.86,1.42,2.87.21.55.36,1.12.55,1.68.17.51.21,1.06.27,1.6.35,3.19.08,6.39.17,9.58-1,.04-2,.05-3,0,0-2.28-.02-4.57.01-6.85.02-1.31-.15-2.6-.47-3.87-.45-1.78-1.28-3.39-2.48-4.76-1.47-1.68-3.26-2.95-5.42-3.64-1.53-.49-3.08-.64-4.69-.54-1.49.09-2.89.44-4.22,1.06-2.21,1.03-3.95,2.61-5.24,4.69-1.11,1.79-1.72,3.76-1.8,5.84-.1,2.69-.02,5.38-.02,8.08Z"/><path class="cls-10" d="m158.11,527.63c0-2.42.02-4.85,0-7.27-.01-1.29-.19-2.56-.71-3.76-.41-.95-.96-1.81-1.64-2.6-1.01-1.18-2.27-1.99-3.7-2.51-1.32-.48-2.7-.64-4.13-.46-.87.11-1.71.31-2.49.65-2.18.95-3.78,2.51-4.77,4.69-.46,1.02-.65,2.09-.7,3.2-.13,2.69-.02,5.38-.06,8.06-1.02.02-2.04.04-3.06-.01,0-2.69-.08-5.39.02-8.08.08-2.08.68-4.05,1.8-5.84,1.29-2.08,3.03-3.66,5.24-4.69,1.33-.62,2.73-.97,4.22-1.06,1.61-.09,3.16.06,4.69.54,2.16.69,3.94,1.95,5.42,3.64,1.2,1.38,2.03,2.98,2.48,4.76.32,1.27.49,2.55.47,3.87-.03,2.28-.01,4.57-.01,6.85-1.02.05-2.04.04-3.07,0Z"/><path class="cls-14" d="m149,548.92c-1.14,0-2.27-.02-3.41,0-.33,0-.41-.1-.4-.41.02-.62-.01-1.25.13-1.85.15-.62.34-1.22.5-1.83.22-.83.44-1.66.64-2.49.07-.31.18-.6.27-.9.14-.49,0-.88-.35-1.14-1.12-.83-1.25-1.97-1.14-3.22.06-.03.06-.08.03-.14.34-1.51,1.28-2.47,2.7-3.02.34-.13.7-.05,1.02-.21.15.02.31.04.46.07.03.08.07.12.14.03.08.02.16.04.24.05.04.11.14.08.22.08,1.58.51,2.98,2.5,2.68,4.16-.14.79-.4,1.48-.99,2.03-.36.33-.78.65-.56,1.25.14.39.25.78.36,1.18.38,1.48.81,2.94,1.17,4.43.13.55.09,1.14.08,1.71,0,.25-.17.21-.32.21-1.16,0-2.32,0-3.48.01Z"/><path class="cls-10" d="m150.07,533.94c-.09,0-.18.03-.22-.08.1-.05.17,0,.22.08Z"/><path class="cls-10" d="m149.6,533.81c-.07.09-.11.05-.14-.03.06-.03.1-.02.14.03Z"/><path class="cls-20" d="m145.28,536.93c.03.06.03.1-.03.14-.08-.07-.03-.1.03-.14Z"/><circle class="cls-3" cx="149.13" cy="531.47" r="39.02"/><path class="cls-27" d="m260.18,528.63c.5,0,.99.02,1.49.02.84,0,1.54.69,1.55,1.54,0,.78,0,1.56,0,2.33,0,6.58,0,13.16,0,19.75,0,.43-.02.86-.15,1.28-.15.49-.75.93-1.27.93-5.57,0-11.15,0-16.72,0-.03,0-.05,0-.08,0,0-1.51,0-3.03,0-4.54,1.16,0,2.32,0,3.48-.01.15,0,.32.04.32-.21,0-.57.05-1.16-.08-1.71-.36-1.48-.79-2.95-1.17-4.43-.1-.4-.22-.79-.36-1.18-.22-.61.19-.92.56-1.25.6-.55.85-1.24.99-2.03.3-1.66-1.1-3.65-2.68-4.16-.05-.09-.12-.13-.22-.08-.08-.02-.16-.04-.24-.05-.04-.05-.08-.07-.14-.03-.15-.02-.31-.04-.46-.07,0-2.01,0-4.03,0-6.04,2.86,0,5.71,0,8.57-.02.18,0,.36-.01.53-.02,1.02.03,2.04.05,3.07,0,1,.06,2,.04,3.01,0Z"/><path class="cls-12" d="m245,549.92c0,1.51,0,3.03,0,4.54-.57,0-1.15.01-1.72.01-4.86,0-9.72-.02-14.58.02-1.28.01-1.94-.69-1.94-1.94.04-7.44.03-14.88,0-22.32,0-.89.72-1.6,1.57-1.59.5,0,.99-.01,1.49-.02,1,.03,2,.05,3-.01,1.02.06,2.04.03,3.06.01.17,0,.33.02.5.02,2.87,0,5.74,0,8.61.01,0,2.01,0,4.03,0,6.04-.32.15-.68.08-1.02.21-1.42.55-2.36,1.51-2.7,3.02-.06.03-.11.07-.03.14-.11,1.25.02,2.39,1.14,3.22.35.26.49.65.35,1.14-.09.3-.2.59-.27.9-.2.84-.42,1.66-.64,2.49-.16.61-.35,1.22-.5,1.83-.15.61-.11,1.23-.13,1.85-.01.31.07.42.4.41,1.14-.02,2.27,0,3.41,0Z"/><path class="cls-20" d="m232.83,528.62c-1,.06-2,.04-3,.01,0-2.7-.02-5.41.02-8.11.02-1.25.19-2.49.55-3.71.44-1.46,1.06-2.83,1.9-4.1,1.05-1.58,2.35-2.94,3.9-4.05,1.02-.73,2.09-1.38,3.27-1.78,1.17-.41,2.35-.81,3.61-.9.71-.05,1.41-.16,2.12-.14,1.77.03,3.47.38,5.13,1,1.65.62,3.14,1.52,4.5,2.65,1.17.97,2.13,2.12,2.94,3.4.58.9,1.03,1.86,1.42,2.87.21.55.36,1.12.55,1.68.17.51.21,1.06.27,1.6.35,3.19.08,6.39.17,9.58-1,.04-2,.05-3,0,0-2.28-.02-4.57.01-6.85.02-1.31-.15-2.6-.47-3.87-.45-1.78-1.28-3.39-2.48-4.76-1.47-1.68-3.26-2.95-5.42-3.64-1.53-.49-3.08-.64-4.69-.54-1.49.09-2.89.44-4.22,1.06-2.21,1.03-3.95,2.61-5.24,4.69-1.11,1.79-1.72,3.76-1.8,5.84-.1,2.69-.02,5.38-.02,8.08Z"/><path class="cls-10" d="m254.11,528.63c0-2.42.02-4.85,0-7.27-.01-1.29-.19-2.56-.71-3.76-.41-.95-.96-1.81-1.64-2.6-1.01-1.18-2.27-1.99-3.7-2.51-1.32-.48-2.7-.64-4.13-.46-.87.11-1.71.31-2.49.65-2.18.95-3.78,2.51-4.77,4.69-.46,1.02-.65,2.09-.7,3.2-.13,2.69-.02,5.38-.06,8.06-1.02.02-2.04.04-3.06-.01,0-2.69-.08-5.39.02-8.08.08-2.08.68-4.05,1.8-5.84,1.29-2.08,3.03-3.66,5.24-4.69,1.33-.62,2.73-.97,4.22-1.06,1.61-.09,3.16.06,4.69.54,2.16.69,3.94,1.95,5.42,3.64,1.2,1.38,2.03,2.98,2.48,4.76.32,1.27.49,2.55.47,3.87-.03,2.28-.01,4.57-.01,6.85-1.02.05-2.04.04-3.07,0Z"/><path class="cls-14" d="m245,549.92c-1.14,0-2.27-.02-3.41,0-.33,0-.41-.1-.4-.41.02-.62-.01-1.25.13-1.85.15-.62.34-1.22.5-1.83.22-.83.44-1.66.64-2.49.07-.31.18-.6.27-.9.14-.49,0-.88-.35-1.14-1.12-.83-1.25-1.97-1.14-3.22.06-.03.06-.08.03-.14.34-1.51,1.28-2.47,2.7-3.02.34-.13.7-.05,1.02-.21.15.02.31.04.46.07.03.08.07.12.14.03.08.02.16.04.24.05.04.11.14.08.22.08,1.58.51,2.98,2.5,2.68,4.16-.14.79-.4,1.48-.99,2.03-.36.33-.78.65-.56,1.25.14.39.25.78.36,1.18.38,1.48.81,2.94,1.17,4.43.13.55.09,1.14.08,1.71,0,.25-.17.21-.32.21-1.16,0-2.32,0-3.48.01Z"/><path class="cls-10" d="m246.07,534.94c-.09,0-.18.03-.22-.08.1-.05.17,0,.22.08Z"/><path class="cls-10" d="m245.6,534.81c-.07.09-.11.05-.14-.03.06-.03.1-.02.14.03Z"/><path class="cls-20" d="m241.28,537.93c.03.06.03.1-.03.14-.08-.07-.03-.1.03-.14Z"/><circle class="cls-3" cx="245.13" cy="532.47" r="39.02"/><path class="cls-27" d="m73.18,291.97c.5,0,.99.02,1.49.02.84,0,1.54.69,1.55,1.54,0,.78,0,1.56,0,2.33,0,6.58,0,13.16,0,19.75,0,.43-.02.86-.15,1.28-.15.49-.75.93-1.27.93-5.57,0-11.15,0-16.72,0-.03,0-.05,0-.08,0,0-1.51,0-3.03,0-4.54,1.16,0,2.32,0,3.48-.01.15,0,.32.04.32-.21,0-.57.05-1.16-.08-1.71-.36-1.48-.79-2.95-1.17-4.43-.1-.4-.22-.79-.36-1.18-.22-.61.19-.92.56-1.25.6-.55.85-1.24.99-2.03.3-1.66-1.1-3.65-2.68-4.16-.05-.09-.12-.13-.22-.08-.08-.02-.16-.04-.24-.05-.04-.05-.08-.07-.14-.03-.15-.02-.31-.04-.46-.07,0-2.01,0-4.03,0-6.04,2.86,0,5.71,0,8.57-.02.18,0,.36-.01.53-.02,1.02.03,2.04.05,3.07,0,1,.06,2,.04,3.01,0Z"/><path class="cls-12" d="m58,313.26c0,1.51,0,3.03,0,4.54-.57,0-1.15.01-1.72.01-4.86,0-9.72-.02-14.58.02-1.28.01-1.94-.69-1.94-1.94.04-7.44.03-14.88,0-22.32,0-.89.72-1.6,1.57-1.59.5,0,.99-.01,1.49-.02,1,.03,2,.05,3-.01,1.02.06,2.04.03,3.06.01.17,0,.33.02.5.02,2.87,0,5.74,0,8.61.01,0,2.01,0,4.03,0,6.04-.32.15-.68.08-1.02.21-1.42.55-2.36,1.51-2.7,3.02-.06.03-.11.07-.03.14-.11,1.25.02,2.39,1.14,3.22.35.26.49.65.35,1.14-.09.3-.2.59-.27.9-.2.84-.42,1.66-.64,2.49-.16.61-.35,1.22-.5,1.83-.15.61-.11,1.23-.13,1.85-.01.31.07.42.4.41,1.14-.02,2.27,0,3.41,0Z"/><path class="cls-20" d="m45.83,291.96c-1,.06-2,.04-3,.01,0-2.7-.02-5.41.02-8.11.02-1.25.19-2.49.55-3.71.44-1.46,1.06-2.83,1.9-4.1,1.05-1.58,2.35-2.94,3.9-4.05,1.02-.73,2.09-1.38,3.27-1.78,1.17-.41,2.35-.81,3.61-.9.71-.05,1.41-.16,2.12-.14,1.77.03,3.47.38,5.13,1,1.65.62,3.14,1.52,4.5,2.65,1.17.97,2.13,2.12,2.94,3.4.58.9,1.03,1.86,1.42,2.87.21.55.36,1.12.55,1.68.17.51.21,1.06.27,1.6.35,3.19.08,6.39.17,9.58-1,.04-2,.05-3,0,0-2.28-.02-4.57.01-6.85.02-1.31-.15-2.6-.47-3.87-.45-1.78-1.28-3.39-2.48-4.76-1.47-1.68-3.26-2.95-5.42-3.64-1.53-.49-3.08-.64-4.69-.54-1.49.09-2.89.44-4.22,1.06-2.21,1.03-3.95,2.61-5.24,4.69-1.11,1.79-1.72,3.76-1.8,5.84-.1,2.69-.02,5.38-.02,8.08Z"/><path class="cls-10" d="m67.11,291.97c0-2.42.02-4.85,0-7.27-.01-1.29-.19-2.56-.71-3.76-.41-.95-.96-1.81-1.64-2.6-1.01-1.18-2.27-1.99-3.7-2.51-1.32-.48-2.7-.64-4.13-.46-.87.11-1.71.31-2.49.65-2.18.95-3.78,2.51-4.77,4.69-.46,1.02-.65,2.09-.7,3.2-.13,2.69-.02,5.38-.06,8.06-1.02.02-2.04.04-3.06-.01,0-2.69-.08-5.39.02-8.08.08-2.08.68-4.05,1.8-5.84,1.29-2.08,3.03-3.66,5.24-4.69,1.33-.62,2.73-.97,4.22-1.06,1.61-.09,3.16.06,4.69.54,2.16.69,3.94,1.95,5.42,3.64,1.2,1.38,2.03,2.98,2.48,4.76.32,1.27.49,2.55.47,3.87-.03,2.28-.01,4.57-.01,6.85-1.02.05-2.04.04-3.07,0Z"/><path class="cls-14" d="m58,313.26c-1.14,0-2.27-.02-3.41,0-.33,0-.41-.1-.4-.41.02-.62-.01-1.25.13-1.85.15-.62.34-1.22.5-1.83.22-.83.44-1.66.64-2.49.07-.31.18-.6.27-.9.14-.49,0-.88-.35-1.14-1.12-.83-1.25-1.97-1.14-3.22.06-.03.06-.08.03-.14.34-1.51,1.28-2.47,2.7-3.02.34-.13.7-.05,1.02-.21.15.02.31.04.46.07.03.08.07.12.14.03.08.02.16.04.24.05.04.11.14.08.22.08,1.58.51,2.98,2.5,2.68,4.16-.14.79-.4,1.48-.99,2.03-.36.33-.78.65-.56,1.25.14.39.25.78.36,1.18.38,1.48.81,2.94,1.17,4.43.13.55.09,1.14.08,1.71,0,.25-.17.21-.32.21-1.16,0-2.32,0-3.48.01Z"/><path class="cls-10" d="m59.07,298.28c-.09,0-.18.03-.22-.08.1-.05.17,0,.22.08Z"/><path class="cls-10" d="m58.6,298.15c-.07.09-.11.05-.14-.03.06-.03.1-.02.14.03Z"/><path class="cls-20" d="m54.28,301.27c.03.06.03.1-.03.14-.08-.07-.03-.1.03-.14Z"/><circle class="cls-3" cx="58.13" cy="295.81" r="39.02"/><path class="cls-27" d="m259.18,291.97c.5,0,.99.02,1.49.02.84,0,1.54.69,1.55,1.54,0,.78,0,1.56,0,2.33,0,6.58,0,13.16,0,19.75,0,.43-.02.86-.15,1.28-.15.49-.75.93-1.27.93-5.57,0-11.15,0-16.72,0-.03,0-.05,0-.08,0,0-1.51,0-3.03,0-4.54,1.16,0,2.32,0,3.48-.01.15,0,.32.04.32-.21,0-.57.05-1.16-.08-1.71-.36-1.48-.79-2.95-1.17-4.43-.1-.4-.22-.79-.36-1.18-.22-.61.19-.92.56-1.25.6-.55.85-1.24.99-2.03.3-1.66-1.1-3.65-2.68-4.16-.05-.09-.12-.13-.22-.08-.08-.02-.16-.04-.24-.05-.04-.05-.08-.07-.14-.03-.15-.02-.31-.04-.46-.07,0-2.01,0-4.03,0-6.04,2.86,0,5.71,0,8.57-.02.18,0,.36-.01.53-.02,1.02.03,2.04.05,3.07,0,1,.06,2,.04,3.01,0Z"/><path class="cls-12" d="m244,313.26c0,1.51,0,3.03,0,4.54-.57,0-1.15.01-1.72.01-4.86,0-9.72-.02-14.58.02-1.28.01-1.94-.69-1.94-1.94.04-7.44.03-14.88,0-22.32,0-.89.72-1.6,1.57-1.59.5,0,.99-.01,1.49-.02,1,.03,2,.05,3-.01,1.02.06,2.04.03,3.06.01.17,0,.33.02.5.02,2.87,0,5.74,0,8.61.01,0,2.01,0,4.03,0,6.04-.32.15-.68.08-1.02.21-1.42.55-2.36,1.51-2.7,3.02-.06.03-.11.07-.03.14-.11,1.25.02,2.39,1.14,3.22.35.26.49.65.35,1.14-.09.3-.2.59-.27.9-.2.84-.42,1.66-.64,2.49-.16.61-.35,1.22-.5,1.83-.15.61-.11,1.23-.13,1.85-.01.31.07.42.4.41,1.14-.02,2.27,0,3.41,0Z"/><path class="cls-20" d="m231.83,291.96c-1,.06-2,.04-3,.01,0-2.7-.02-5.41.02-8.11.02-1.25.19-2.49.55-3.71.44-1.46,1.06-2.83,1.9-4.1,1.05-1.58,2.35-2.94,3.9-4.05,1.02-.73,2.09-1.38,3.27-1.78,1.17-.41,2.35-.81,3.61-.9.71-.05,1.41-.16,2.12-.14,1.77.03,3.47.38,5.13,1,1.65.62,3.14,1.52,4.5,2.65,1.17.97,2.13,2.12,2.94,3.4.58.9,1.03,1.86,1.42,2.87.21.55.36,1.12.55,1.68.17.51.21,1.06.27,1.6.35,3.19.08,6.39.17,9.58-1,.04-2,.05-3,0,0-2.28-.02-4.57.01-6.85.02-1.31-.15-2.6-.47-3.87-.45-1.78-1.28-3.39-2.48-4.76-1.47-1.68-3.26-2.95-5.42-3.64-1.53-.49-3.08-.64-4.69-.54-1.49.09-2.89.44-4.22,1.06-2.21,1.03-3.95,2.61-5.24,4.69-1.11,1.79-1.72,3.76-1.8,5.84-.1,2.69-.02,5.38-.02,8.08Z"/><path class="cls-10" d="m253.11,291.97c0-2.42.02-4.85,0-7.27-.01-1.29-.19-2.56-.71-3.76-.41-.95-.96-1.81-1.64-2.6-1.01-1.18-2.27-1.99-3.7-2.51-1.32-.48-2.7-.64-4.13-.46-.87.11-1.71.31-2.49.65-2.18.95-3.78,2.51-4.77,4.69-.46,1.02-.65,2.09-.7,3.2-.13,2.69-.02,5.38-.06,8.06-1.02.02-2.04.04-3.06-.01,0-2.69-.08-5.39.02-8.08.08-2.08.68-4.05,1.8-5.84,1.29-2.08,3.03-3.66,5.24-4.69,1.33-.62,2.73-.97,4.22-1.06,1.61-.09,3.16.06,4.69.54,2.16.69,3.94,1.95,5.42,3.64,1.2,1.38,2.03,2.98,2.48,4.76.32,1.27.49,2.55.47,3.87-.03,2.28-.01,4.57-.01,6.85-1.02.05-2.04.04-3.07,0Z"/><path class="cls-14" d="m244,313.26c-1.14,0-2.27-.02-3.41,0-.33,0-.41-.1-.4-.41.02-.62-.01-1.25.13-1.85.15-.62.34-1.22.5-1.83.22-.83.44-1.66.64-2.49.07-.31.18-.6.27-.9.14-.49,0-.88-.35-1.14-1.12-.83-1.25-1.97-1.14-3.22.06-.03.06-.08.03-.14.34-1.51,1.28-2.47,2.7-3.02.34-.13.7-.05,1.02-.21.15.02.31.04.46.07.03.08.07.12.14.03.08.02.16.04.24.05.04.11.14.08.22.08,1.58.51,2.98,2.5,2.68,4.16-.14.79-.4,1.48-.99,2.03-.36.33-.78.65-.56,1.25.14.39.25.78.36,1.18.38,1.48.81,2.94,1.17,4.43.13.55.09,1.14.08,1.71,0,.25-.17.21-.32.21-1.16,0-2.32,0-3.48.01Z"/><path class="cls-10" d="m245.07,298.28c-.09,0-.18.03-.22-.08.1-.05.17,0,.22.08Z"/><path class="cls-10" d="m244.6,298.15c-.07.09-.11.05-.14-.03.06-.03.1-.02.14.03Z"/><path class="cls-20" d="m240.28,301.27c.03.06.03.1-.03.14-.08-.07-.03-.1.03-.14Z"/><circle class="cls-3" cx="244.13" cy="295.81" r="39.02"/><path class="cls-18" d="m58.58,158.44c2.89-.13,5.71.9,7.83,2.88.51.38.63,1.09.27,1.62-.36.45-.99.45-1.62,0-1.63-1.6-3.84-2.44-6.12-2.34-1.9.05-3.73.78-5.13,2.07-.16.18-.34.33-.54.45-.44.35-1.08.27-1.43-.17,0,0,0,0-.01-.01-.32-.39-.32-.96,0-1.35.55-.58,1.19-1.06,1.89-1.44,1.48-.96,3.19-1.52,4.95-1.62l-.09-.09Z"/><path class="cls-7" d="m59.03,162.22c1.97-.01,3.87.73,5.31,2.07.63.54.72,1.17.27,1.62-.44.45-1.16.45-1.6.02,0,0-.01-.01-.02-.02-2.13-1.98-5.43-1.98-7.56,0-.63.54-1.17.54-1.62.09s-.36-1.08.18-1.62c1.38-1.26,3.17-2,5.04-2.07v-.09Z"/><path class="cls-7" d="m59.12,166c1.2,0,2.35.46,3.24,1.26.43.35.55.96.27,1.44h0c-.34.45-.98.53-1.43.19,0,0,0,0-.01-.01h0c-1.04-.97-2.65-.97-3.69,0-.3.4-.86.48-1.26.18-.07-.05-.13-.11-.18-.18l-.09-.09c-.35-.47-.26-1.13.21-1.49.02-.01.04-.03.06-.04h0c.85-.8,1.98-1.25,3.15-1.26h-.27Z"/><path class="cls-13" d="m77.66,188.5c-1.35-4.77,2.97-14.85-4.41-15.48h-27.9c-7.83.18-3.51,10.62-4.86,15.48v6.03c1.35,4.77-2.88,14.49,4.14,15.48h28.8c7.11-.9,2.88-10.8,4.23-15.48v-6.03Z"/><circle class="cls-4" cx="59.12" cy="177.34" r="40.5"/><path d="m37.79,161.5l-1.08,1.98-5.13-2.88,2.43,4.32v.27l-5.13.18,5.13,2.88-1.08,1.98-8.82-4.95,1.08-1.98,5.22-.18-2.61-4.59,1.08-1.98,8.82,4.95h.09Z"/><path d="m35.81,158.62c-1.4-1.54-1.28-3.92.26-5.31.03-.03.07-.06.1-.09,1.59-1.38,4-1.22,5.4.36,1.39,1.59,1.23,4.01-.36,5.4-1.59,1.39-4.01,1.23-5.4-.36Zm4.14-3.6c-.62-.65-1.65-.67-2.3-.05-.65.62-.67,1.65-.05,2.3.61.63,1.61.67,2.26.09.67-.53.78-1.49.26-2.16-.05-.06-.11-.12-.17-.18h0Z"/><path d="m46.97,143.77l4.14,9.18-1.98.9-.27-.63c-.25.79-.85,1.42-1.62,1.71-1.77.76-3.83-.06-4.59-1.83-.03-.08-.06-.16-.09-.24-.93-1.72-.29-3.87,1.43-4.81.03-.02.07-.04.1-.05.74-.34,1.58-.37,2.34-.09l-1.44-3.24,1.98-.9Zm.72,6.75c-.44-.83-1.46-1.14-2.29-.7-.83.44-1.14,1.46-.7,2.29.42.78,1.37,1.11,2.18.75.85-.37,1.24-1.36.87-2.22-.02-.04-.04-.08-.06-.12Z"/><path d="m55.43,150.52c.52.01,1.01-.26,1.26-.72l1.89.72c-.57,1.09-1.66,1.8-2.88,1.89-2.03.42-4.03-.88-4.45-2.92-.02-.11-.04-.21-.05-.32-.35-2.02,1.01-3.94,3.04-4.29.07-.01.14-.02.2-.03,1.96-.31,3.81,1.04,4.11,3,.01.08.02.16.03.24v.9l-5.04.72c.36.68,1.17.98,1.89.72v.09Zm.99-2.79c-.26-.69-1-1.07-1.71-.9-.73.07-1.32.63-1.44,1.35l3.06-.45h.09Z"/><path d="m71,149.35l-.9,4.32-2.07-.45.9-4.14c.18-.72-.09-1.26-.81-1.35s-1.17.27-1.35,1.08l-.81,3.96-2.07-.45.9-4.14c.18-.72-.09-1.26-.81-1.35s-1.17.27-1.35,1.08l-.81,3.96-2.07-.45,1.53-7.02,2.07.45-.18.63c.56-.5,1.35-.67,2.07-.45.74.12,1.36.64,1.62,1.35.62-.52,1.46-.72,2.25-.54,1.62.36,2.43,1.71,2.07,3.51h-.18Z"/><path d="m73.43,149.8l4.68,2.79-1.08,1.8-4.68-2.79,1.08-1.8Z"/><path d="m77.12,156.28h4.86c.71.01,1.41-.21,1.98-.63.42-.39.45-1.04.07-1.46-.02-.02-.04-.05-.07-.07-.47-.48-1.21-.59-1.8-.27l-.54-2.16c1.36-.59,2.94-.26,3.96.81,1.34,1.16,1.48,3.19.32,4.53-.04.05-.09.1-.14.15-.9.83-2.11,1.25-3.33,1.17h-2.34l2.43,2.43-1.53,1.53-4.86-4.86,1.17-1.17h-.18Z"/><path d="m89.99,169.15c-2.22,1.31-5.09.58-6.4-1.65-.1-.17-.19-.34-.26-.51-1.43-2.47-.58-5.63,1.89-7.06.09-.05.18-.1.27-.14,2.56-1.35,5.73-.37,7.08,2.19.01.02.02.04.03.06.86,1.54.86,3.41,0,4.95l-1.89-1.26c.41-.85.41-1.85,0-2.7-.7-1.44-2.44-2.05-3.88-1.35-.06.03-.11.06-.17.09-1.43.69-2.03,2.4-1.34,3.83.05.11.11.21.17.31.41,1.05,1.49,1.69,2.61,1.53l-1.26-2.43,1.8-.9,2.34,4.5-.81.36-.18.18Z"/><path d="m43.37,199.66v-3.24l5.85-6.12c.46-.47.88-.99,1.26-1.53.24-.34.37-.75.36-1.17-.01-.4-.17-.79-.45-1.08-.32-.28-.75-.41-1.17-.36-1.08.04-2.03.76-2.34,1.8l-3.87-2.16c.99-2.54,3.49-4.16,6.21-4.05,1.57.03,3.09.56,4.32,1.53,1.19,1,1.85,2.49,1.8,4.05.1.99-.16,1.98-.72,2.79-.54,1-1.24,1.92-2.07,2.7l-2.43,2.52h5.49v4.32h-12.24Z"/><path d="m74.78,189.58v1.8c.22,4.6-3.32,8.51-7.92,8.73-.27.01-.54.01-.81,0-2.51.06-4.94-.88-6.75-2.61-1.73-1.7-2.68-4.05-2.61-6.48-.03-2.45.91-4.81,2.61-6.57,1.72-1.77,4.1-2.75,6.57-2.7,1.58-.15,3.16.23,4.5,1.08,1.32.69,2.44,1.72,3.24,2.97l-3.78,2.16c-.4-.56-.92-1.02-1.53-1.35-.72-.37-1.53-.55-2.34-.54-1.28-.04-2.51.45-3.42,1.35-.91.93-1.4,2.2-1.35,3.51-.06,1.28.43,2.52,1.35,3.42.98.96,2.32,1.48,3.69,1.44,1.53,0,3.42-.81,4.05-2.34h-4.23v-3.87h8.73,0Z"/><line class="cls-6" x1="199.13" y1="107.76" x2="196.87" y2="590"/><line class="cls-5" x1="199.13" y1="107.76" x2="196.93" y2="579.24"/><polygon class="cls-28" points="189.46 577.01 196.87 590 204.41 577.08 189.46 577.01"/><line class="cls-1" x1="54.82" y1="112.21" x2="336.74" y2="112.21"/><line class="cls-5" x1="55.26" y1="112" x2="55.26" y2="121.33"/><polygon class="cls-28" points="48.78 119.43 55.26 130.66 61.74 119.43 48.78 119.43"/><line class="cls-5" x1="148.93" y1="112" x2="148.93" y2="121.33"/><polygon class="cls-28" points="142.44 119.43 148.92 130.66 155.41 119.43 142.44 119.43"/><line class="cls-5" x1="242.59" y1="112" x2="242.59" y2="121.33"/><polygon class="cls-28" points="236.11 119.43 242.59 130.66 249.07 119.43 236.11 119.43"/><line class="cls-5" x1="336.26" y1="112" x2="336.26" y2="121.33"/><polygon class="cls-28" points="329.78 119.43 336.26 130.66 342.74 119.43 329.78 119.43"/><line class="cls-1" x1="54.82" y1="465.21" x2="336.74" y2="465.21"/><line class="cls-5" x1="55.26" y1="465" x2="55.26" y2="474.33"/><polygon class="cls-28" points="48.78 472.43 55.26 483.66 61.74 472.43 48.78 472.43"/><line class="cls-5" x1="148.93" y1="465" x2="148.93" y2="474.33"/><polygon class="cls-28" points="142.44 472.43 148.92 483.66 155.41 472.43 142.44 472.43"/><line class="cls-5" x1="242.59" y1="465" x2="242.59" y2="474.33"/><polygon class="cls-28" points="236.11 472.43 242.59 483.66 249.07 472.43 236.11 472.43"/><line class="cls-5" x1="336.26" y1="465" x2="336.26" y2="474.33"/><polygon class="cls-28" points="329.78 472.43 336.26 483.66 342.74 472.43 329.78 472.43"/><line class="cls-1" x1="54.82" y1="346.21" x2="336.74" y2="346.21"/><line class="cls-5" x1="55.26" y1="346" x2="55.26" y2="355.33"/><polygon class="cls-28" points="48.78 353.43 55.26 364.66 61.74 353.43 48.78 353.43"/><line class="cls-5" x1="148.93" y1="346" x2="148.93" y2="355.33"/><polygon class="cls-28" points="142.44 353.43 148.92 364.66 155.41 353.43 142.44 353.43"/><line class="cls-5" x1="242.59" y1="346" x2="242.59" y2="355.33"/><polygon class="cls-28" points="236.11 353.43 242.59 364.66 249.07 353.43 236.11 353.43"/><line class="cls-5" x1="336.26" y1="346" x2="336.26" y2="355.33"/><polygon class="cls-28" points="329.78 353.43 336.26 364.66 342.74 353.43 329.78 353.43"/><line class="cls-1" x1="54.82" y1="230.21" x2="336.74" y2="230.21"/><line class="cls-5" x1="55.26" y1="230" x2="55.26" y2="239.33"/><polygon class="cls-28" points="48.78 237.43 55.26 248.66 61.74 237.43 48.78 237.43"/><line class="cls-5" x1="148.93" y1="230" x2="148.93" y2="239.33"/><polygon class="cls-28" points="142.44 237.43 148.92 248.66 155.41 237.43 142.44 237.43"/><line class="cls-5" x1="242.59" y1="230" x2="242.59" y2="239.33"/><polygon class="cls-28" points="236.11 237.43 242.59 248.66 249.07 237.43 236.11 237.43"/><line class="cls-5" x1="336.26" y1="230" x2="336.26" y2="239.33"/><polygon class="cls-28" points="329.78 237.43 336.26 248.66 342.74 237.43 329.78 237.43"/><path class="cls-27" d="m209.18,629.63c.5,0,.99.02,1.49.02.84,0,1.54.69,1.55,1.54,0,.78,0,1.56,0,2.33,0,6.58,0,13.16,0,19.75,0,.43-.02.86-.15,1.28-.15.49-.75.93-1.27.93-5.57,0-11.15,0-16.72,0-.03,0-.05,0-.08,0,0-1.51,0-3.03,0-4.54,1.16,0,2.32,0,3.48-.01.15,0,.32.04.32-.21,0-.57.05-1.16-.08-1.71-.36-1.48-.79-2.95-1.17-4.43-.1-.4-.22-.79-.36-1.18-.22-.61.19-.92.56-1.25.6-.55.85-1.24.99-2.03.3-1.66-1.1-3.65-2.68-4.16-.05-.09-.12-.13-.22-.08-.08-.02-.16-.04-.24-.05-.04-.05-.08-.07-.14-.03-.15-.02-.31-.04-.46-.07,0-2.01,0-4.03,0-6.04,2.86,0,5.71,0,8.57-.02.18,0,.36-.01.53-.02,1.02.03,2.04.05,3.07,0,1,.06,2,.04,3.01,0Z"/><path class="cls-12" d="m194,650.92c0,1.51,0,3.03,0,4.54-.57,0-1.15.01-1.72.01-4.86,0-9.72-.02-14.58.02-1.28.01-1.94-.69-1.94-1.94.04-7.44.03-14.88,0-22.32,0-.89.72-1.6,1.57-1.59.5,0,.99-.01,1.49-.02,1,.03,2,.05,3-.01,1.02.06,2.04.03,3.06.01.17,0,.33.02.5.02,2.87,0,5.74,0,8.61.01,0,2.01,0,4.03,0,6.04-.32.15-.68.08-1.02.21-1.42.55-2.36,1.51-2.7,3.02-.06.03-.11.07-.03.14-.11,1.25.02,2.39,1.14,3.22.35.26.49.65.35,1.14-.09.3-.2.59-.27.9-.2.84-.42,1.66-.64,2.49-.16.61-.35,1.22-.5,1.83-.15.61-.11,1.23-.13,1.85-.01.31.07.42.4.41,1.14-.02,2.27,0,3.41,0Z"/><path class="cls-20" d="m181.83,629.62c-1,.06-2,.04-3,.01,0-2.7-.02-5.41.02-8.11.02-1.25.19-2.49.55-3.71.44-1.46,1.06-2.83,1.9-4.1,1.05-1.58,2.35-2.94,3.9-4.05,1.02-.73,2.09-1.38,3.27-1.78,1.17-.41,2.35-.81,3.61-.9.71-.05,1.41-.16,2.12-.14,1.77.03,3.47.38,5.13,1,1.65.62,3.14,1.52,4.5,2.65,1.17.97,2.13,2.12,2.94,3.4.58.9,1.03,1.86,1.42,2.87.21.55.36,1.12.55,1.68.17.51.21,1.06.27,1.6.35,3.19.08,6.39.17,9.58-1,.04-2,.05-3,0,0-2.28-.02-4.57.01-6.85.02-1.31-.15-2.6-.47-3.87-.45-1.78-1.28-3.39-2.48-4.76-1.47-1.68-3.26-2.95-5.42-3.64-1.53-.49-3.08-.64-4.69-.54-1.49.09-2.89.44-4.22,1.06-2.21,1.03-3.95,2.61-5.24,4.69-1.11,1.79-1.72,3.76-1.8,5.84-.1,2.69-.02,5.38-.02,8.08Z"/><path class="cls-10" d="m203.11,629.63c0-2.42.02-4.85,0-7.27-.01-1.29-.19-2.56-.71-3.76-.41-.95-.96-1.81-1.64-2.6-1.01-1.18-2.27-1.99-3.7-2.51-1.32-.48-2.7-.64-4.13-.46-.87.11-1.71.31-2.49.65-2.18.95-3.78,2.51-4.77,4.69-.46,1.02-.65,2.09-.7,3.2-.13,2.69-.02,5.38-.06,8.06-1.02.02-2.04.04-3.06-.01,0-2.69-.08-5.39.02-8.08.08-2.08.68-4.05,1.8-5.84,1.29-2.08,3.03-3.66,5.24-4.69,1.33-.62,2.73-.97,4.22-1.06,1.61-.09,3.16.06,4.69.54,2.16.69,3.94,1.95,5.42,3.64,1.2,1.38,2.03,2.98,2.48,4.76.32,1.27.49,2.55.47,3.87-.03,2.28-.01,4.57-.01,6.85-1.02.05-2.04.04-3.07,0Z"/><path class="cls-14" d="m194,650.92c-1.14,0-2.27-.02-3.41,0-.33,0-.41-.1-.4-.41.02-.62-.01-1.25.13-1.85.15-.62.34-1.22.5-1.83.22-.83.44-1.66.64-2.49.07-.31.18-.6.27-.9.14-.49,0-.88-.35-1.14-1.12-.83-1.25-1.97-1.14-3.22.06-.03.06-.08.03-.14.34-1.51,1.28-2.47,2.7-3.02.34-.13.7-.05,1.02-.21.15.02.31.04.46.07.03.08.07.12.14.03.08.02.16.04.24.05.04.11.14.08.22.08,1.58.51,2.98,2.5,2.68,4.16-.14.79-.4,1.48-.99,2.03-.36.33-.78.65-.56,1.25.14.39.25.78.36,1.18.38,1.48.81,2.94,1.17,4.43.13.55.09,1.14.08,1.71,0,.25-.17.21-.32.21-1.16,0-2.32,0-3.48.01Z"/><path class="cls-10" d="m195.07,635.94c-.09,0-.18.03-.22-.08.1-.05.17,0,.22.08Z"/><path class="cls-10" d="m194.6,635.81c-.07.09-.11.05-.14-.03.06-.03.1-.02.14.03Z"/><path class="cls-20" d="m190.28,638.93c.03.06.03.1-.03.14-.08-.07-.03-.1.03-.14Z"/><circle class="cls-3" cx="194.13" cy="633.47" r="39.02"/><path class="cls-27" d="m259.18,409.63c.5,0,.99.02,1.49.02.84,0,1.54.69,1.55,1.54,0,.78,0,1.56,0,2.33,0,6.58,0,13.16,0,19.75,0,.43-.02.86-.15,1.28-.15.49-.75.93-1.27.93-5.57,0-11.15,0-16.72,0-.03,0-.05,0-.08,0,0-1.51,0-3.03,0-4.54,1.16,0,2.32,0,3.48-.01.15,0,.32.04.32-.21,0-.57.05-1.16-.08-1.71-.36-1.48-.79-2.95-1.17-4.43-.1-.4-.22-.79-.36-1.18-.22-.61.19-.92.56-1.25.6-.55.85-1.24.99-2.03.3-1.66-1.1-3.65-2.68-4.16-.05-.09-.12-.13-.22-.08-.08-.02-.16-.04-.24-.05-.04-.05-.08-.07-.14-.03-.15-.02-.31-.04-.46-.07,0-2.01,0-4.03,0-6.04,2.86,0,5.71,0,8.57-.02.18,0,.36-.01.53-.02,1.02.03,2.04.05,3.07,0,1,.06,2,.04,3.01,0Z"/><path class="cls-12" d="m244,430.92c0,1.51,0,3.03,0,4.54-.57,0-1.15.01-1.72.01-4.86,0-9.72-.02-14.58.02-1.28.01-1.94-.69-1.94-1.94.04-7.44.03-14.88,0-22.32,0-.89.72-1.6,1.57-1.59.5,0,.99-.01,1.49-.02,1,.03,2,.05,3-.01,1.02.06,2.04.03,3.06.01.17,0,.33.02.5.02,2.87,0,5.74,0,8.61.01,0,2.01,0,4.03,0,6.04-.32.15-.68.08-1.02.21-1.42.55-2.36,1.51-2.7,3.02-.06.03-.11.07-.03.14-.11,1.25.02,2.39,1.14,3.22.35.26.49.65.35,1.14-.09.3-.2.59-.27.9-.2.84-.42,1.66-.64,2.49-.16.61-.35,1.22-.5,1.83-.15.61-.11,1.23-.13,1.85-.01.31.07.42.4.41,1.14-.02,2.27,0,3.41,0Z"/><path class="cls-20" d="m231.83,409.62c-1,.06-2,.04-3,.01,0-2.7-.02-5.41.02-8.11.02-1.25.19-2.49.55-3.71.44-1.46,1.06-2.83,1.9-4.1,1.05-1.58,2.35-2.94,3.9-4.05,1.02-.73,2.09-1.38,3.27-1.78,1.17-.41,2.35-.81,3.61-.9.71-.05,1.41-.16,2.12-.14,1.77.03,3.47.38,5.13,1,1.65.62,3.14,1.52,4.5,2.65,1.17.97,2.13,2.12,2.94,3.4.58.9,1.03,1.86,1.42,2.87.21.55.36,1.12.55,1.68.17.51.21,1.06.27,1.6.35,3.19.08,6.39.17,9.58-1,.04-2,.05-3,0,0-2.28-.02-4.57.01-6.85.02-1.31-.15-2.6-.47-3.87-.45-1.78-1.28-3.39-2.48-4.76-1.47-1.68-3.26-2.95-5.42-3.64-1.53-.49-3.08-.64-4.69-.54-1.49.09-2.89.44-4.22,1.06-2.21,1.03-3.95,2.61-5.24,4.69-1.11,1.79-1.72,3.76-1.8,5.84-.1,2.69-.02,5.38-.02,8.08Z"/><path class="cls-10" d="m253.11,409.63c0-2.42.02-4.85,0-7.27-.01-1.29-.19-2.56-.71-3.76-.41-.95-.96-1.81-1.64-2.6-1.01-1.18-2.27-1.99-3.7-2.51-1.32-.48-2.7-.64-4.13-.46-.87.11-1.71.31-2.49.65-2.18.95-3.78,2.51-4.77,4.69-.46,1.02-.65,2.09-.7,3.2-.13,2.69-.02,5.38-.06,8.06-1.02.02-2.04.04-3.06-.01,0-2.69-.08-5.39.02-8.08.08-2.08.68-4.05,1.8-5.84,1.29-2.08,3.03-3.66,5.24-4.69,1.33-.62,2.73-.97,4.22-1.06,1.61-.09,3.16.06,4.69.54,2.16.69,3.94,1.95,5.42,3.64,1.2,1.38,2.03,2.98,2.48,4.76.32,1.27.49,2.55.47,3.87-.03,2.28-.01,4.57-.01,6.85-1.02.05-2.04.04-3.07,0Z"/><path class="cls-14" d="m244,430.92c-1.14,0-2.27-.02-3.41,0-.33,0-.41-.1-.4-.41.02-.62-.01-1.25.13-1.85.15-.62.34-1.22.5-1.83.22-.83.44-1.66.64-2.49.07-.31.18-.6.27-.9.14-.49,0-.88-.35-1.14-1.12-.83-1.25-1.97-1.14-3.22.06-.03.06-.08.03-.14.34-1.51,1.28-2.47,2.7-3.02.34-.13.7-.05,1.02-.21.15.02.31.04.46.07.03.08.07.12.14.03.08.02.16.04.24.05.04.11.14.08.22.08,1.58.51,2.98,2.5,2.68,4.16-.14.79-.4,1.48-.99,2.03-.36.33-.78.65-.56,1.25.14.39.25.78.36,1.18.38,1.48.81,2.94,1.17,4.43.13.55.09,1.14.08,1.71,0,.25-.17.21-.32.21-1.16,0-2.32,0-3.48.01Z"/><path class="cls-10" d="m245.07,415.94c-.09,0-.18.03-.22-.08.1-.05.17,0,.22.08Z"/><path class="cls-10" d="m244.6,415.81c-.07.09-.11.05-.14-.03.06-.03.1-.02.14.03Z"/><path class="cls-20" d="m240.28,418.93c.03.06.03.1-.03.14-.08-.07-.03-.1.03-.14Z"/><circle class="cls-3" cx="244.13" cy="413.47" r="39.02"/><path class="cls-27" d="m259.18,173.63c.5,0,.99.02,1.49.02.84,0,1.54.69,1.55,1.54,0,.78,0,1.56,0,2.33,0,6.58,0,13.16,0,19.75,0,.43-.02.86-.15,1.28-.15.49-.75.93-1.27.93-5.57,0-11.15,0-16.72,0-.03,0-.05,0-.08,0,0-1.51,0-3.03,0-4.54,1.16,0,2.32,0,3.48-.01.15,0,.32.04.32-.21,0-.57.05-1.16-.08-1.71-.36-1.48-.79-2.95-1.17-4.43-.1-.4-.22-.79-.36-1.18-.22-.61.19-.92.56-1.25.6-.55.85-1.24.99-2.03.3-1.66-1.1-3.65-2.68-4.16-.05-.09-.12-.13-.22-.08-.08-.02-.16-.04-.24-.05-.04-.05-.08-.07-.14-.03-.15-.02-.31-.04-.46-.07,0-2.01,0-4.03,0-6.04,2.86,0,5.71,0,8.57-.02.18,0,.36-.01.53-.02,1.02.03,2.04.05,3.07,0,1,.06,2,.04,3.01,0Z"/><path class="cls-12" d="m244,194.92c0,1.51,0,3.03,0,4.54-.57,0-1.15.01-1.72.01-4.86,0-9.72-.02-14.58.02-1.28.01-1.94-.69-1.94-1.94.04-7.44.03-14.88,0-22.32,0-.89.72-1.6,1.57-1.59.5,0,.99-.01,1.49-.02,1,.03,2,.05,3-.01,1.02.06,2.04.03,3.06.01.17,0,.33.02.5.02,2.87,0,5.74,0,8.61.01,0,2.01,0,4.03,0,6.04-.32.15-.68.08-1.02.21-1.42.55-2.36,1.51-2.7,3.02-.06.03-.11.07-.03.14-.11,1.25.02,2.39,1.14,3.22.35.26.49.65.35,1.14-.09.3-.2.59-.27.9-.2.84-.42,1.66-.64,2.49-.16.61-.35,1.22-.5,1.83-.15.61-.11,1.23-.13,1.85-.01.31.07.42.4.41,1.14-.02,2.27,0,3.41,0Z"/><path class="cls-20" d="m231.83,173.62c-1,.06-2,.04-3,.01,0-2.7-.02-5.41.02-8.11.02-1.25.19-2.49.55-3.71.44-1.46,1.06-2.83,1.9-4.1,1.05-1.58,2.35-2.94,3.9-4.05,1.02-.73,2.09-1.38,3.27-1.78,1.17-.41,2.35-.81,3.61-.9.71-.05,1.41-.16,2.12-.14,1.77.03,3.47.38,5.13,1,1.65.62,3.14,1.52,4.5,2.65,1.17.97,2.13,2.12,2.94,3.4.58.9,1.03,1.86,1.42,2.87.21.55.36,1.12.55,1.68.17.51.21,1.06.27,1.6.35,3.19.08,6.39.17,9.58-1,.04-2,.05-3,0,0-2.28-.02-4.57.01-6.85.02-1.31-.15-2.6-.47-3.87-.45-1.78-1.28-3.39-2.48-4.76-1.47-1.68-3.26-2.95-5.42-3.64-1.53-.49-3.08-.64-4.69-.54-1.49.09-2.89.44-4.22,1.06-2.21,1.03-3.95,2.61-5.24,4.69-1.11,1.79-1.72,3.76-1.8,5.84-.1,2.69-.02,5.38-.02,8.08Z"/><path class="cls-10" d="m253.11,173.63c0-2.42.02-4.85,0-7.27-.01-1.29-.19-2.56-.71-3.76-.41-.95-.96-1.81-1.64-2.6-1.01-1.18-2.27-1.99-3.7-2.51-1.32-.48-2.7-.64-4.13-.46-.87.11-1.71.31-2.49.65-2.18.95-3.78,2.51-4.77,4.69-.46,1.02-.65,2.09-.7,3.2-.13,2.69-.02,5.38-.06,8.06-1.02.02-2.04.04-3.06-.01,0-2.69-.08-5.39.02-8.08.08-2.08.68-4.05,1.8-5.84,1.29-2.08,3.03-3.66,5.24-4.69,1.33-.62,2.73-.97,4.22-1.06,1.61-.09,3.16.06,4.69.54,2.16.69,3.94,1.95,5.42,3.64,1.2,1.38,2.03,2.98,2.48,4.76.32,1.27.49,2.55.47,3.87-.03,2.28-.01,4.57-.01,6.85-1.02.05-2.04.04-3.07,0Z"/><path class="cls-14" d="m244,194.92c-1.14,0-2.27-.02-3.41,0-.33,0-.41-.1-.4-.41.02-.62-.01-1.25.13-1.85.15-.62.34-1.22.5-1.83.22-.83.44-1.66.64-2.49.07-.31.18-.6.27-.9.14-.49,0-.88-.35-1.14-1.12-.83-1.25-1.97-1.14-3.22.06-.03.06-.08.03-.14.34-1.51,1.28-2.47,2.7-3.02.34-.13.7-.05,1.02-.21.15.02.31.04.46.07.03.08.07.12.14.03.08.02.16.04.24.05.04.11.14.08.22.08,1.58.51,2.98,2.5,2.68,4.16-.14.79-.4,1.48-.99,2.03-.36.33-.78.65-.56,1.25.14.39.25.78.36,1.18.38,1.48.81,2.94,1.17,4.43.13.55.09,1.14.08,1.71,0,.25-.17.21-.32.21-1.16,0-2.32,0-3.48.01Z"/><path class="cls-10" d="m245.07,179.94c-.09,0-.18.03-.22-.08.1-.05.17,0,.22.08Z"/><path class="cls-10" d="m244.6,179.81c-.07.09-.11.05-.14-.03.06-.03.1-.02.14.03Z"/><path class="cls-20" d="m240.28,182.93c.03.06.03.1-.03.14-.08-.07-.03-.1.03-.14Z"/><circle class="cls-3" cx="244.13" cy="177.47" r="39.02"/><path class="cls-27" d="m163.18,172.63c.5,0,.99.02,1.49.02.84,0,1.54.69,1.55,1.54,0,.78,0,1.56,0,2.33,0,6.58,0,13.16,0,19.75,0,.43-.02.86-.15,1.28-.15.49-.75.93-1.27.93-5.57,0-11.15,0-16.72,0-.03,0-.05,0-.08,0,0-1.51,0-3.03,0-4.54,1.16,0,2.32,0,3.48-.01.15,0,.32.04.32-.21,0-.57.05-1.16-.08-1.71-.36-1.48-.79-2.95-1.17-4.43-.1-.4-.22-.79-.36-1.18-.22-.61.19-.92.56-1.25.6-.55.85-1.24.99-2.03.3-1.66-1.1-3.65-2.68-4.16-.05-.09-.12-.13-.22-.08-.08-.02-.16-.04-.24-.05-.04-.05-.08-.07-.14-.03-.15-.02-.31-.04-.46-.07,0-2.01,0-4.03,0-6.04,2.86,0,5.71,0,8.57-.02.18,0,.36-.01.53-.02,1.02.03,2.04.05,3.07,0,1,.06,2,.04,3.01,0Z"/><path class="cls-12" d="m148,193.92c0,1.51,0,3.03,0,4.54-.57,0-1.15.01-1.72.01-4.86,0-9.72-.02-14.58.02-1.28.01-1.94-.69-1.94-1.94.04-7.44.03-14.88,0-22.32,0-.89.72-1.6,1.57-1.59.5,0,.99-.01,1.49-.02,1,.03,2,.05,3-.01,1.02.06,2.04.03,3.06.01.17,0,.33.02.5.02,2.87,0,5.74,0,8.61.01,0,2.01,0,4.03,0,6.04-.32.15-.68.08-1.02.21-1.42.55-2.36,1.51-2.7,3.02-.06.03-.11.07-.03.14-.11,1.25.02,2.39,1.14,3.22.35.26.49.65.35,1.14-.09.3-.2.59-.27.9-.2.84-.42,1.66-.64,2.49-.16.61-.35,1.22-.5,1.83-.15.61-.11,1.23-.13,1.85-.01.31.07.42.4.41,1.14-.02,2.27,0,3.41,0Z"/><path class="cls-20" d="m135.83,172.62c-1,.06-2,.04-3,.01,0-2.7-.02-5.41.02-8.11.02-1.25.19-2.49.55-3.71.44-1.46,1.06-2.83,1.9-4.1,1.05-1.58,2.35-2.94,3.9-4.05,1.02-.73,2.09-1.38,3.27-1.78,1.17-.41,2.35-.81,3.61-.9.71-.05,1.41-.16,2.12-.14,1.77.03,3.47.38,5.13,1,1.65.62,3.14,1.52,4.5,2.65,1.17.97,2.13,2.12,2.94,3.4.58.9,1.03,1.86,1.42,2.87.21.55.36,1.12.55,1.68.17.51.21,1.06.27,1.6.35,3.19.08,6.39.17,9.58-1,.04-2,.05-3,0,0-2.28-.02-4.57.01-6.85.02-1.31-.15-2.6-.47-3.87-.45-1.78-1.28-3.39-2.48-4.76-1.47-1.68-3.26-2.95-5.42-3.64-1.53-.49-3.08-.64-4.69-.54-1.49.09-2.89.44-4.22,1.06-2.21,1.03-3.95,2.61-5.24,4.69-1.11,1.79-1.72,3.76-1.8,5.84-.1,2.69-.02,5.38-.02,8.08Z"/><path class="cls-10" d="m157.11,172.63c0-2.42.02-4.85,0-7.27-.01-1.29-.19-2.56-.71-3.76-.41-.95-.96-1.81-1.64-2.6-1.01-1.18-2.27-1.99-3.7-2.51-1.32-.48-2.7-.64-4.13-.46-.87.11-1.71.31-2.49.65-2.18.95-3.78,2.51-4.77,4.69-.46,1.02-.65,2.09-.7,3.2-.13,2.69-.02,5.38-.06,8.06-1.02.02-2.04.04-3.06-.01,0-2.69-.08-5.39.02-8.08.08-2.08.68-4.05,1.8-5.84,1.29-2.08,3.03-3.66,5.24-4.69,1.33-.62,2.73-.97,4.22-1.06,1.61-.09,3.16.06,4.69.54,2.16.69,3.94,1.95,5.42,3.64,1.2,1.38,2.03,2.98,2.48,4.76.32,1.27.49,2.55.47,3.87-.03,2.28-.01,4.57-.01,6.85-1.02.05-2.04.04-3.07,0Z"/><path class="cls-14" d="m148,193.92c-1.14,0-2.27-.02-3.41,0-.33,0-.41-.1-.4-.41.02-.62-.01-1.25.13-1.85.15-.62.34-1.22.5-1.83.22-.83.44-1.66.64-2.49.07-.31.18-.6.27-.9.14-.49,0-.88-.35-1.14-1.12-.83-1.25-1.97-1.14-3.22.06-.03.06-.08.03-.14.34-1.51,1.28-2.47,2.7-3.02.34-.13.7-.05,1.02-.21.15.02.31.04.46.07.03.08.07.12.14.03.08.02.16.04.24.05.04.11.14.08.22.08,1.58.51,2.98,2.5,2.68,4.16-.14.79-.4,1.48-.99,2.03-.36.33-.78.65-.56,1.25.14.39.25.78.36,1.18.38,1.48.81,2.94,1.17,4.43.13.55.09,1.14.08,1.71,0,.25-.17.21-.32.21-1.16,0-2.32,0-3.48.01Z"/><path class="cls-10" d="m149.07,178.94c-.09,0-.18.03-.22-.08.1-.05.17,0,.22.08Z"/><path class="cls-10" d="m148.6,178.81c-.07.09-.11.05-.14-.03.06-.03.1-.02.14.03Z"/><path class="cls-20" d="m144.28,181.93c.03.06.03.1-.03.14-.08-.07-.03-.1.03-.14Z"/><circle class="cls-3" cx="148.13" cy="176.47" r="39.02"/><path class="cls-27" d="m164.18,288.63c.5,0,.99.02,1.49.02.84,0,1.54.69,1.55,1.54,0,.78,0,1.56,0,2.33,0,6.58,0,13.16,0,19.75,0,.43-.02.86-.15,1.28-.15.49-.75.93-1.27.93-5.57,0-11.15,0-16.72,0-.03,0-.05,0-.08,0,0-1.51,0-3.03,0-4.54,1.16,0,2.32,0,3.48-.01.15,0,.32.04.32-.21,0-.57.05-1.16-.08-1.71-.36-1.48-.79-2.95-1.17-4.43-.1-.4-.22-.79-.36-1.18-.22-.61.19-.92.56-1.25.6-.55.85-1.24.99-2.03.3-1.66-1.1-3.65-2.68-4.16-.05-.09-.12-.13-.22-.08-.08-.02-.16-.04-.24-.05-.04-.05-.08-.07-.14-.03-.15-.02-.31-.04-.46-.07,0-2.01,0-4.03,0-6.04,2.86,0,5.71,0,8.57-.02.18,0,.36-.01.53-.02,1.02.03,2.04.05,3.07,0,1,.06,2,.04,3.01,0Z"/><path class="cls-12" d="m149,309.92c0,1.51,0,3.03,0,4.54-.57,0-1.15.01-1.72.01-4.86,0-9.72-.02-14.58.02-1.28.01-1.94-.69-1.94-1.94.04-7.44.03-14.88,0-22.32,0-.89.72-1.6,1.57-1.59.5,0,.99-.01,1.49-.02,1,.03,2,.05,3-.01,1.02.06,2.04.03,3.06.01.17,0,.33.02.5.02,2.87,0,5.74,0,8.61.01,0,2.01,0,4.03,0,6.04-.32.15-.68.08-1.02.21-1.42.55-2.36,1.51-2.7,3.02-.06.03-.11.07-.03.14-.11,1.25.02,2.39,1.14,3.22.35.26.49.65.35,1.14-.09.3-.2.59-.27.9-.2.84-.42,1.66-.64,2.49-.16.61-.35,1.22-.5,1.83-.15.61-.11,1.23-.13,1.85-.01.31.07.42.4.41,1.14-.02,2.27,0,3.41,0Z"/><path class="cls-20" d="m136.83,288.62c-1,.06-2,.04-3,.01,0-2.7-.02-5.41.02-8.11.02-1.25.19-2.49.55-3.71.44-1.46,1.06-2.83,1.9-4.1,1.05-1.58,2.35-2.94,3.9-4.05,1.02-.73,2.09-1.38,3.27-1.78,1.17-.41,2.35-.81,3.61-.9.71-.05,1.41-.16,2.12-.14,1.77.03,3.47.38,5.13,1,1.65.62,3.14,1.52,4.5,2.65,1.17.97,2.13,2.12,2.94,3.4.58.9,1.03,1.86,1.42,2.87.21.55.36,1.12.55,1.68.17.51.21,1.06.27,1.6.35,3.19.08,6.39.17,9.58-1,.04-2,.05-3,0,0-2.28-.02-4.57.01-6.85.02-1.31-.15-2.6-.47-3.87-.45-1.78-1.28-3.39-2.48-4.76-1.47-1.68-3.26-2.95-5.42-3.64-1.53-.49-3.08-.64-4.69-.54-1.49.09-2.89.44-4.22,1.06-2.21,1.03-3.95,2.61-5.24,4.69-1.11,1.79-1.72,3.76-1.8,5.84-.1,2.69-.02,5.38-.02,8.08Z"/><path class="cls-10" d="m158.11,288.63c0-2.42.02-4.85,0-7.27-.01-1.29-.19-2.56-.71-3.76-.41-.95-.96-1.81-1.64-2.6-1.01-1.18-2.27-1.99-3.7-2.51-1.32-.48-2.7-.64-4.13-.46-.87.11-1.71.31-2.49.65-2.18.95-3.78,2.51-4.77,4.69-.46,1.02-.65,2.09-.7,3.2-.13,2.69-.02,5.38-.06,8.06-1.02.02-2.04.04-3.06-.01,0-2.69-.08-5.39.02-8.08.08-2.08.68-4.05,1.8-5.84,1.29-2.08,3.03-3.66,5.24-4.69,1.33-.62,2.73-.97,4.22-1.06,1.61-.09,3.16.06,4.69.54,2.16.69,3.94,1.95,5.42,3.64,1.2,1.38,2.03,2.98,2.48,4.76.32,1.27.49,2.55.47,3.87-.03,2.28-.01,4.57-.01,6.85-1.02.05-2.04.04-3.07,0Z"/><path class="cls-14" d="m149,309.92c-1.14,0-2.27-.02-3.41,0-.33,0-.41-.1-.4-.41.02-.62-.01-1.25.13-1.85.15-.62.34-1.22.5-1.83.22-.83.44-1.66.64-2.49.07-.31.18-.6.27-.9.14-.49,0-.88-.35-1.14-1.12-.83-1.25-1.97-1.14-3.22.06-.03.06-.08.03-.14.34-1.51,1.28-2.47,2.7-3.02.34-.13.7-.05,1.02-.21.15.02.31.04.46.07.03.08.07.12.14.03.08.02.16.04.24.05.04.11.14.08.22.08,1.58.51,2.98,2.5,2.68,4.16-.14.79-.4,1.48-.99,2.03-.36.33-.78.65-.56,1.25.14.39.25.78.36,1.18.38,1.48.81,2.94,1.17,4.43.13.55.09,1.14.08,1.71,0,.25-.17.21-.32.21-1.16,0-2.32,0-3.48.01Z"/><path class="cls-10" d="m150.07,294.94c-.09,0-.18.03-.22-.08.1-.05.17,0,.22.08Z"/><path class="cls-10" d="m149.6,294.81c-.07.09-.11.05-.14-.03.06-.03.1-.02.14.03Z"/><path class="cls-20" d="m145.28,297.93c.03.06.03.1-.03.14-.08-.07-.03-.1.03-.14Z"/><circle class="cls-3" cx="149.13" cy="292.47" r="39.02"/><path class="cls-27" d="m351.18,527.63c.5,0,.99.02,1.49.02.84,0,1.54.69,1.55,1.54,0,.78,0,1.56,0,2.33,0,6.58,0,13.16,0,19.75,0,.43-.02.86-.15,1.28-.15.49-.75.93-1.27.93-5.57,0-11.15,0-16.72,0-.03,0-.05,0-.08,0,0-1.51,0-3.03,0-4.54,1.16,0,2.32,0,3.48-.01.15,0,.32.04.32-.21,0-.57.05-1.16-.08-1.71-.36-1.48-.79-2.95-1.17-4.43-.1-.4-.22-.79-.36-1.18-.22-.61.19-.92.56-1.25.6-.55.85-1.24.99-2.03.3-1.66-1.1-3.65-2.68-4.16-.05-.09-.12-.13-.22-.08-.08-.02-.16-.04-.24-.05-.04-.05-.08-.07-.14-.03-.15-.02-.31-.04-.46-.07,0-2.01,0-4.03,0-6.04,2.86,0,5.71,0,8.57-.02.18,0,.36-.01.53-.02,1.02.03,2.04.05,3.07,0,1,.06,2,.04,3.01,0Z"/><path class="cls-12" d="m336,548.92c0,1.51,0,3.03,0,4.54-.57,0-1.15.01-1.72.01-4.86,0-9.72-.02-14.58.02-1.28.01-1.94-.69-1.94-1.94.04-7.44.03-14.88,0-22.32,0-.89.72-1.6,1.57-1.59.5,0,.99-.01,1.49-.02,1,.03,2,.05,3-.01,1.02.06,2.04.03,3.06.01.17,0,.33.02.5.02,2.87,0,5.74,0,8.61.01,0,2.01,0,4.03,0,6.04-.32.15-.68.08-1.02.21-1.42.55-2.36,1.51-2.7,3.02-.06.03-.11.07-.03.14-.11,1.25.02,2.39,1.14,3.22.35.26.49.65.35,1.14-.09.3-.2.59-.27.9-.2.84-.42,1.66-.64,2.49-.16.61-.35,1.22-.5,1.83-.15.61-.11,1.23-.13,1.85-.01.31.07.42.4.41,1.14-.02,2.27,0,3.41,0Z"/><path class="cls-20" d="m323.83,527.62c-1,.06-2,.04-3,.01,0-2.7-.02-5.41.02-8.11.02-1.25.19-2.49.55-3.71.44-1.46,1.06-2.83,1.9-4.1,1.05-1.58,2.35-2.94,3.9-4.05,1.02-.73,2.09-1.38,3.27-1.78,1.17-.41,2.35-.81,3.61-.9.71-.05,1.41-.16,2.12-.14,1.77.03,3.47.38,5.13,1,1.65.62,3.14,1.52,4.5,2.65,1.17.97,2.13,2.12,2.94,3.4.58.9,1.03,1.86,1.42,2.87.21.55.36,1.12.55,1.68.17.51.21,1.06.27,1.6.35,3.19.08,6.39.17,9.58-1,.04-2,.05-3,0,0-2.28-.02-4.57.01-6.85.02-1.31-.15-2.6-.47-3.87-.45-1.78-1.28-3.39-2.48-4.76-1.47-1.68-3.26-2.95-5.42-3.64-1.53-.49-3.08-.64-4.69-.54-1.49.09-2.89.44-4.22,1.06-2.21,1.03-3.95,2.61-5.24,4.69-1.11,1.79-1.72,3.76-1.8,5.84-.1,2.69-.02,5.38-.02,8.08Z"/><path class="cls-10" d="m345.11,527.63c0-2.42.02-4.85,0-7.27-.01-1.29-.19-2.56-.71-3.76-.41-.95-.96-1.81-1.64-2.6-1.01-1.18-2.27-1.99-3.7-2.51-1.32-.48-2.7-.64-4.13-.46-.87.11-1.71.31-2.49.65-2.18.95-3.78,2.51-4.77,4.69-.46,1.02-.65,2.09-.7,3.2-.13,2.69-.02,5.38-.06,8.06-1.02.02-2.04.04-3.06-.01,0-2.69-.08-5.39.02-8.08.08-2.08.68-4.05,1.8-5.84,1.29-2.08,3.03-3.66,5.24-4.69,1.33-.62,2.73-.97,4.22-1.06,1.61-.09,3.16.06,4.69.54,2.16.69,3.94,1.95,5.42,3.64,1.2,1.38,2.03,2.98,2.48,4.76.32,1.27.49,2.55.47,3.87-.03,2.28-.01,4.57-.01,6.85-1.02.05-2.04.04-3.07,0Z"/><path class="cls-14" d="m336,548.92c-1.14,0-2.27-.02-3.41,0-.33,0-.41-.1-.4-.41.02-.62-.01-1.25.13-1.85.15-.62.34-1.22.5-1.83.22-.83.44-1.66.64-2.49.07-.31.18-.6.27-.9.14-.49,0-.88-.35-1.14-1.12-.83-1.25-1.97-1.14-3.22.06-.03.06-.08.03-.14.34-1.51,1.28-2.47,2.7-3.02.34-.13.7-.05,1.02-.21.15.02.31.04.46.07.03.08.07.12.14.03.08.02.16.04.24.05.04.11.14.08.22.08,1.58.51,2.98,2.5,2.68,4.16-.14.79-.4,1.48-.99,2.03-.36.33-.78.65-.56,1.25.14.39.25.78.36,1.18.38,1.48.81,2.94,1.17,4.43.13.55.09,1.14.08,1.71,0,.25-.17.21-.32.21-1.16,0-2.32,0-3.48.01Z"/><path class="cls-10" d="m337.07,533.94c-.09,0-.18.03-.22-.08.1-.05.17,0,.22.08Z"/><path class="cls-10" d="m336.6,533.81c-.07.09-.11.05-.14-.03.06-.03.1-.02.14.03Z"/><path class="cls-20" d="m332.28,536.93c.03.06.03.1-.03.14-.08-.07-.03-.1.03-.14Z"/><circle class="cls-3" cx="336.13" cy="531.47" r="39.02"/><path class="cls-27" d="m163.18,406.63c.5,0,.99.02,1.49.02.84,0,1.54.69,1.55,1.54,0,.78,0,1.56,0,2.33,0,6.58,0,13.16,0,19.75,0,.43-.02.86-.15,1.28-.15.49-.75.93-1.27.93-5.57,0-11.15,0-16.72,0-.03,0-.05,0-.08,0,0-1.51,0-3.03,0-4.54,1.16,0,2.32,0,3.48-.01.15,0,.32.04.32-.21,0-.57.05-1.16-.08-1.71-.36-1.48-.79-2.95-1.17-4.43-.1-.4-.22-.79-.36-1.18-.22-.61.19-.92.56-1.25.6-.55.85-1.24.99-2.03.3-1.66-1.1-3.65-2.68-4.16-.05-.09-.12-.13-.22-.08-.08-.02-.16-.04-.24-.05-.04-.05-.08-.07-.14-.03-.15-.02-.31-.04-.46-.07,0-2.01,0-4.03,0-6.04,2.86,0,5.71,0,8.57-.02.18,0,.36-.01.53-.02,1.02.03,2.04.05,3.07,0,1,.06,2,.04,3.01,0Z"/><path class="cls-12" d="m148,427.92c0,1.51,0,3.03,0,4.54-.57,0-1.15.01-1.72.01-4.86,0-9.72-.02-14.58.02-1.28.01-1.94-.69-1.94-1.94.04-7.44.03-14.88,0-22.32,0-.89.72-1.6,1.57-1.59.5,0,.99-.01,1.49-.02,1,.03,2,.05,3-.01,1.02.06,2.04.03,3.06.01.17,0,.33.02.5.02,2.87,0,5.74,0,8.61.01,0,2.01,0,4.03,0,6.04-.32.15-.68.08-1.02.21-1.42.55-2.36,1.51-2.7,3.02-.06.03-.11.07-.03.14-.11,1.25.02,2.39,1.14,3.22.35.26.49.65.35,1.14-.09.3-.2.59-.27.9-.2.84-.42,1.66-.64,2.49-.16.61-.35,1.22-.5,1.83-.15.61-.11,1.23-.13,1.85-.01.31.07.42.4.41,1.14-.02,2.27,0,3.41,0Z"/><path class="cls-20" d="m135.83,406.62c-1,.06-2,.04-3,.01,0-2.7-.02-5.41.02-8.11.02-1.25.19-2.49.55-3.71.44-1.46,1.06-2.83,1.9-4.1,1.05-1.58,2.35-2.94,3.9-4.05,1.02-.73,2.09-1.38,3.27-1.78,1.17-.41,2.35-.81,3.61-.9.71-.05,1.41-.16,2.12-.14,1.77.03,3.47.38,5.13,1,1.65.62,3.14,1.52,4.5,2.65,1.17.97,2.13,2.12,2.94,3.4.58.9,1.03,1.86,1.42,2.87.21.55.36,1.12.55,1.68.17.51.21,1.06.27,1.6.35,3.19.08,6.39.17,9.58-1,.04-2,.05-3,0,0-2.28-.02-4.57.01-6.85.02-1.31-.15-2.6-.47-3.87-.45-1.78-1.28-3.39-2.48-4.76-1.47-1.68-3.26-2.95-5.42-3.64-1.53-.49-3.08-.64-4.69-.54-1.49.09-2.89.44-4.22,1.06-2.21,1.03-3.95,2.61-5.24,4.69-1.11,1.79-1.72,3.76-1.8,5.84-.1,2.69-.02,5.38-.02,8.08Z"/><path class="cls-10" d="m157.11,406.63c0-2.42.02-4.85,0-7.27-.01-1.29-.19-2.56-.71-3.76-.41-.95-.96-1.81-1.64-2.6-1.01-1.18-2.27-1.99-3.7-2.51-1.32-.48-2.7-.64-4.13-.46-.87.11-1.71.31-2.49.65-2.18.95-3.78,2.51-4.77,4.69-.46,1.02-.65,2.09-.7,3.2-.13,2.69-.02,5.38-.06,8.06-1.02.02-2.04.04-3.06-.01,0-2.69-.08-5.39.02-8.08.08-2.08.68-4.05,1.8-5.84,1.29-2.08,3.03-3.66,5.24-4.69,1.33-.62,2.73-.97,4.22-1.06,1.61-.09,3.16.06,4.69.54,2.16.69,3.94,1.95,5.42,3.64,1.2,1.38,2.03,2.98,2.48,4.76.32,1.27.49,2.55.47,3.87-.03,2.28-.01,4.57-.01,6.85-1.02.05-2.04.04-3.07,0Z"/><path class="cls-14" d="m148,427.92c-1.14,0-2.27-.02-3.41,0-.33,0-.41-.1-.4-.41.02-.62-.01-1.25.13-1.85.15-.62.34-1.22.5-1.83.22-.83.44-1.66.64-2.49.07-.31.18-.6.27-.9.14-.49,0-.88-.35-1.14-1.12-.83-1.25-1.97-1.14-3.22.06-.03.06-.08.03-.14.34-1.51,1.28-2.47,2.7-3.02.34-.13.7-.05,1.02-.21.15.02.31.04.46.07.03.08.07.12.14.03.08.02.16.04.24.05.04.11.14.08.22.08,1.58.51,2.98,2.5,2.68,4.16-.14.79-.4,1.48-.99,2.03-.36.33-.78.65-.56,1.25.14.39.25.78.36,1.18.38,1.48.81,2.94,1.17,4.43.13.55.09,1.14.08,1.71,0,.25-.17.21-.32.21-1.16,0-2.32,0-3.48.01Z"/><path class="cls-10" d="m149.07,412.94c-.09,0-.18.03-.22-.08.1-.05.17,0,.22.08Z"/><path class="cls-10" d="m148.6,412.81c-.07.09-.11.05-.14-.03.06-.03.1-.02.14.03Z"/><path class="cls-20" d="m144.28,415.93c.03.06.03.1-.03.14-.08-.07-.03-.1.03-.14Z"/><circle class="cls-3" cx="148.13" cy="410.47" r="39.02"/><path class="cls-27" d="m352.89,289.26c.52,0,1.04.02,1.56.02.88,0,1.61.72,1.62,1.61,0,.81,0,1.63,0,2.44,0,6.89,0,13.78,0,20.67,0,.45-.02.9-.15,1.34-.16.51-.79.97-1.32.97-5.84,0-11.67,0-17.51,0-.03,0-.05,0-.08,0,0-1.59,0-3.17,0-4.76,1.22,0,2.43,0,3.65-.01.16,0,.33.04.34-.22.01-.6.05-1.21-.09-1.79-.38-1.55-.83-3.09-1.22-4.64-.11-.42-.23-.83-.37-1.23-.23-.63.2-.96.58-1.31.63-.58.89-1.3,1.04-2.13.31-1.74-1.15-3.82-2.8-4.35-.06-.09-.13-.13-.23-.08-.08-.02-.17-.04-.25-.06-.04-.05-.09-.07-.15-.04-.16-.02-.32-.05-.48-.07,0-2.11,0-4.22,0-6.32,2.99,0,5.98-.01,8.97-.02.19,0,.37-.01.56-.02,1.07.03,2.14.05,3.21,0,1.05.06,2.1.05,3.15,0Z"/><path class="cls-12" d="m337,311.55c0,1.59,0,3.17,0,4.76-.6,0-1.2.01-1.8.01-5.09,0-10.18-.03-15.27.02-1.34.01-2.03-.72-2.03-2.03.04-7.79.03-15.58,0-23.36,0-.93.75-1.68,1.64-1.66.52,0,1.04-.01,1.56-.02,1.05.03,2.1.05,3.14-.01,1.07.06,2.14.03,3.21.01.17,0,.35.02.52.02,3,0,6.01,0,9.01.01,0,2.11,0,4.22,0,6.32-.34.16-.72.08-1.07.22-1.49.58-2.47,1.58-2.82,3.16-.06.04-.11.08-.03.14-.12,1.31.02,2.51,1.19,3.37.37.27.51.68.36,1.19-.09.31-.21.62-.29.94-.21.87-.44,1.74-.67,2.61-.17.64-.37,1.28-.52,1.92-.15.64-.11,1.29-.14,1.94-.01.33.08.43.42.43,1.19-.02,2.38,0,3.57,0Z"/><path class="cls-20" d="m324.26,289.25c-1.05.07-2.1.04-3.15.01,0-2.83-.02-5.66.02-8.49.02-1.31.2-2.61.58-3.88.46-1.53,1.11-2.97,1.98-4.29,1.1-1.66,2.46-3.08,4.09-4.24,1.07-.76,2.19-1.44,3.42-1.87,1.22-.42,2.46-.85,3.78-.94.74-.05,1.48-.16,2.22-.15,1.85.03,3.64.4,5.37,1.05,1.73.65,3.29,1.59,4.71,2.78,1.22,1.02,2.23,2.22,3.08,3.56.61.95,1.08,1.95,1.49,3,.22.58.38,1.18.58,1.76.18.53.22,1.11.28,1.68.36,3.34.09,6.69.18,10.03-1.05.04-2.1.05-3.15,0,0-2.39-.02-4.78.01-7.17.02-1.38-.16-2.72-.49-4.05-.47-1.87-1.34-3.55-2.6-4.99-1.54-1.76-3.41-3.09-5.67-3.81-1.6-.51-3.23-.67-4.91-.57-1.56.09-3.03.46-4.42,1.11-2.32,1.08-4.14,2.73-5.49,4.91-1.16,1.87-1.8,3.94-1.88,6.11-.1,2.82-.02,5.64-.02,8.46Z"/><path class="cls-10" d="m346.53,289.26c0-2.54.02-5.07,0-7.61-.01-1.35-.2-2.68-.74-3.94-.43-.99-1-1.9-1.71-2.73-1.06-1.23-2.38-2.09-3.88-2.63-1.38-.5-2.83-.67-4.32-.48-.91.11-1.79.32-2.61.68-2.28.99-3.96,2.63-5,4.91-.49,1.07-.68,2.19-.74,3.35-.14,2.81-.02,5.63-.07,8.44-1.07.02-2.14.05-3.21-.01,0-2.82-.08-5.64.02-8.46.08-2.18.72-4.24,1.88-6.11,1.35-2.17,3.17-3.83,5.49-4.91,1.39-.65,2.86-1.02,4.42-1.11,1.68-.1,3.31.06,4.91.57,2.26.72,4.13,2.04,5.67,3.81,1.26,1.44,2.13,3.12,2.6,4.99.34,1.33.51,2.67.49,4.05-.03,2.39-.01,4.78-.01,7.17-1.07.06-2.14.04-3.21,0Z"/><path class="cls-14" d="m337,311.55c-1.19,0-2.38-.02-3.57,0-.34,0-.43-.1-.42-.43.02-.65-.01-1.3.14-1.94.15-.64.35-1.28.52-1.92.23-.87.46-1.74.67-2.61.08-.32.19-.63.29-.94.15-.51,0-.92-.36-1.19-1.17-.87-1.31-2.07-1.19-3.37.07-.04.06-.09.03-.14.35-1.58,1.34-2.58,2.82-3.16.35-.14.73-.06,1.07-.22.16.02.32.05.48.07.03.08.07.13.15.04.08.02.17.04.25.06.05.11.14.09.23.08,1.66.53,3.11,2.62,2.8,4.35-.15.83-.41,1.55-1.04,2.13-.38.35-.82.68-.58,1.31.15.4.27.82.37,1.23.4,1.55.85,3.08,1.22,4.64.14.58.1,1.19.09,1.79,0,.26-.18.22-.34.22-1.22,0-2.43,0-3.65.01Z"/><path class="cls-10" d="m338.12,295.87c-.09,0-.19.03-.23-.08.11-.05.18,0,.23.08Z"/><path class="cls-10" d="m337.63,295.73c-.08.09-.12.05-.15-.04.06-.03.11-.02.15.04Z"/><path class="cls-20" d="m333.11,299c.03.06.03.11-.03.14-.08-.07-.03-.11.03-.14Z"/><circle class="cls-3" cx="337.14" cy="293.28" r="40.85"/><path class="cls-27" d="m352.89,173.26c.52,0,1.04.02,1.56.02.88,0,1.61.72,1.62,1.61,0,.81,0,1.63,0,2.44,0,6.89,0,13.78,0,20.67,0,.45-.02.9-.15,1.34-.16.51-.79.97-1.32.97-5.84,0-11.67,0-17.51,0-.03,0-.05,0-.08,0,0-1.59,0-3.17,0-4.76,1.22,0,2.43,0,3.65-.01.16,0,.33.04.34-.22.01-.6.05-1.21-.09-1.79-.38-1.55-.83-3.09-1.22-4.64-.11-.42-.23-.83-.37-1.23-.23-.63.2-.96.58-1.31.63-.58.89-1.3,1.04-2.13.31-1.74-1.15-3.82-2.8-4.35-.06-.09-.13-.13-.23-.08-.08-.02-.17-.04-.25-.06-.04-.05-.09-.07-.15-.04-.16-.02-.32-.05-.48-.07,0-2.11,0-4.22,0-6.32,2.99,0,5.98-.01,8.97-.02.19,0,.37-.01.56-.02,1.07.03,2.14.05,3.21,0,1.05.06,2.1.05,3.15,0Z"/><path class="cls-12" d="m337,195.55c0,1.59,0,3.17,0,4.76-.6,0-1.2.01-1.8.01-5.09,0-10.18-.03-15.27.02-1.34.01-2.03-.72-2.03-2.03.04-7.79.03-15.58,0-23.36,0-.93.75-1.68,1.64-1.66.52,0,1.04-.01,1.56-.02,1.05.03,2.1.05,3.14-.01,1.07.06,2.14.03,3.21.01.17,0,.35.02.52.02,3,0,6.01,0,9.01.01,0,2.11,0,4.22,0,6.32-.34.16-.72.08-1.07.22-1.49.58-2.47,1.58-2.82,3.16-.06.04-.11.08-.03.14-.12,1.31.02,2.51,1.19,3.37.37.27.51.68.36,1.19-.09.31-.21.62-.29.94-.21.87-.44,1.74-.67,2.61-.17.64-.37,1.28-.52,1.92-.15.64-.11,1.29-.14,1.94-.01.33.08.43.42.43,1.19-.02,2.38,0,3.57,0Z"/><path class="cls-20" d="m324.26,173.25c-1.05.07-2.1.04-3.15.01,0-2.83-.02-5.66.02-8.49.02-1.31.2-2.61.58-3.88.46-1.53,1.11-2.97,1.98-4.29,1.1-1.66,2.46-3.08,4.09-4.24,1.07-.76,2.19-1.44,3.42-1.87,1.22-.42,2.46-.85,3.78-.94.74-.05,1.48-.16,2.22-.15,1.85.03,3.64.4,5.37,1.05,1.73.65,3.29,1.59,4.71,2.78,1.22,1.02,2.23,2.22,3.08,3.56.61.95,1.08,1.95,1.49,3,.22.58.38,1.18.58,1.76.18.53.22,1.11.28,1.68.36,3.34.09,6.69.18,10.03-1.05.04-2.1.05-3.15,0,0-2.39-.02-4.78.01-7.17.02-1.38-.16-2.72-.49-4.05-.47-1.87-1.34-3.55-2.6-4.99-1.54-1.76-3.41-3.09-5.67-3.81-1.6-.51-3.23-.67-4.91-.57-1.56.09-3.03.46-4.42,1.11-2.32,1.08-4.14,2.73-5.49,4.91-1.16,1.87-1.8,3.94-1.88,6.11-.1,2.82-.02,5.64-.02,8.46Z"/><path class="cls-10" d="m346.53,173.26c0-2.54.02-5.07,0-7.61-.01-1.35-.2-2.68-.74-3.94-.43-.99-1-1.9-1.71-2.73-1.06-1.23-2.38-2.09-3.88-2.63-1.38-.5-2.83-.67-4.32-.48-.91.11-1.79.32-2.61.68-2.28.99-3.96,2.63-5,4.91-.49,1.07-.68,2.19-.74,3.35-.14,2.81-.02,5.63-.07,8.44-1.07.02-2.14.05-3.21-.01,0-2.82-.08-5.64.02-8.46.08-2.18.72-4.24,1.88-6.11,1.35-2.17,3.17-3.83,5.49-4.91,1.39-.65,2.86-1.02,4.42-1.11,1.68-.1,3.31.06,4.91.57,2.26.72,4.13,2.04,5.67,3.81,1.26,1.44,2.13,3.12,2.6,4.99.34,1.33.51,2.67.49,4.05-.03,2.39-.01,4.78-.01,7.17-1.07.06-2.14.04-3.21,0Z"/><path class="cls-14" d="m337,195.55c-1.19,0-2.38-.02-3.57,0-.34,0-.43-.1-.42-.43.02-.65-.01-1.3.14-1.94.15-.64.35-1.28.52-1.92.23-.87.46-1.74.67-2.61.08-.32.19-.63.29-.94.15-.51,0-.92-.36-1.19-1.17-.87-1.31-2.07-1.19-3.37.07-.04.06-.09.03-.14.35-1.58,1.34-2.58,2.82-3.16.35-.14.73-.06,1.07-.22.16.02.32.05.48.07.03.08.07.13.15.04.08.02.17.04.25.06.05.11.14.09.23.08,1.66.53,3.11,2.62,2.8,4.35-.15.83-.41,1.55-1.04,2.13-.38.35-.82.68-.58,1.31.15.4.27.82.37,1.23.4,1.55.85,3.08,1.22,4.64.14.58.1,1.19.09,1.79,0,.26-.18.22-.34.22-1.22,0-2.43,0-3.65.01Z"/><path class="cls-10" d="m338.12,179.87c-.09,0-.19.03-.23-.08.11-.05.18,0,.23.08Z"/><path class="cls-10" d="m337.63,179.73c-.08.09-.12.05-.15-.04.06-.03.11-.02.15.04Z"/><path class="cls-20" d="m333.11,183c.03.06.03.11-.03.14-.08-.07-.03-.11.03-.14Z"/><circle class="cls-3" cx="337.14" cy="177.28" r="40.85"/><circle class="cls-4" cx="52.03" cy="411.39" r="40.97"/><path class="cls-15" d="m62.77,393.54c.2.26.45.48.73.64,1.07.98,1.66,2.37,1.64,3.82v41.25c0,3.28-1.64,5.19-5.01,5.46-5.45.46-10.94.46-16.39,0-2.69-.07-4.81-2.31-4.74-5,0-.06,0-.13,0-.19v-41.52c-.15-2.72,1.93-5.04,4.65-5.19.03,0,.06,0,.08,0,4.79-.33,9.59-.4,14.39-.18.34-.01.67.02,1,.09,1.27-.02,2.54.2,3.73.64l-.09.18Zm-9.92,6.01h-10.11c-.64,0-.82.18-.82.82v10.47c0,3.46,0,2.19,2.19,2.09h17.39c.55,0,.64-.18.64-.64v-12.05c0-.46-.09-.73-.64-.73h-8.65v.03Zm1.91,26.86c-2.09,0-1.91,0-1.91,2,0,.64.27.91.91.91h1.46c1.18,0,1.27,0,1.27-1.18,0-2,.18-1.73-1.73-1.73Zm-5.37,0h-1c-.55,0-.91.18-.73.73.18.73-.64,1.91.73,2.19.7.09,1.4.09,2.09,0,.39.02.74-.25.82-.64.46-1.73,0-2.28-1.73-2.28h-.18Zm0-4.28c-2,0-1.73-.18-1.82,1.82v.27c0,.64.27.91.82.91h2.09c.36-.02.66-.28.73-.64.46-1.73,0-2.28-1.73-2.28h0l-.09-.09Zm5.46,0h-1.18c-.46,0-.73.18-.73.64,0,2.09-.18,2.37,1.91,2.28h.46c1.18,0,1.27-.18,1.27-1.27,0-1.91.18-1.73-1.73-1.73h0v.09Zm-.09,11.56h.91c.46,0,.91-.09.91-.64,0-.73.46-1.64-.36-2.28h-2.55c-.35-.03-.66.21-.73.55-.46,1.73,0,2.37,1.82,2.37h0Zm-5.28,0h.91c.55,0,.91-.18.91-.73,0-.73.46-1.64-.36-2.19h-2.55c-.31,0-.59.18-.73.46-.55,1.64,0,2.46,1.73,2.46h.09Zm0-15.84h-.82c-.64,0-.91.18-.91.91q0,2.09,2.09,2.09h.73c.42.01.78-.31.82-.73.36-1.82,0-2.28-1.82-2.28h-.09Zm5.46,0h-1.18c-.46,0-.73.18-.73.73,0,2.09-.18,2.37,1.91,2.28h.46c1.18,0,1.27-.18,1.27-1.27,0-1.91.18-1.73-1.73-1.73h0Zm-10.74,15.84h.73c.82,0,1.09-.27,1-1.09,0-2.19.27-1.91-1.91-1.91h-.36c-1.18,0-1.27,0-1.18,1.18,0,1.64-.36,1.82,1.73,1.73v.09Zm16.02-3h-.73c-.73-.09-1,.18-1,1,0,2.09-.36,2,2,2h.36q1.18,0,1.18-1.18c0-2,.18-1.73-1.73-1.73h0l-.09-.09Zm0-4.28h-.91c-.64,0-.82.27-.82.91,0,2.19-.36,2.09,2.09,2.09h.27c1.09,0,1.18-.09,1.18-1.18,0-2,.18-1.82-1.73-1.82h-.09Zm-15.93,0h-.8c-.73,0-1,.18-1,1,0,2.09-.36,2,2,2h.36c1.09,0,1.18-.09,1.18-1.27,0-1.91.18-1.73-1.73-1.73h-.02Zm0-4.28h-.8c-.73,0-1,.18-.91.91,0,2.09-.18,2.09,2,2h.27c1.18,0,1.27,0,1.27-1.27,0-1.91.18-1.73-1.73-1.73l-.11.09Zm16.02-4.28h-.91c-.64,0-.82.27-.82.91,0,2.19-.18,2.09,2.09,2.09h.27c1.09,0,1.18-.09,1.18-1.18,0-2,.18-1.73-1.73-1.82h-.09Zm0,4.28c-2,0-1.73-.27-1.82,1.82v.18c0,.73.27,1,1,1h1.29c1.09,0,1.18-.09,1.18-1.27,0-1.91.18-1.73-1.73-1.73h.07Zm-16.02-4.28h-.91c-.64,0-.82.27-.82.91,0,2.19-.18,2.09,2.09,2.09h.27c1.09,0,1.18-.09,1.18-1.18,0-2,.18-1.73-1.73-1.82h-.09Zm9.74-20.85c.36,0,.64-.09.55-.55s-.18-.46-.55-.46-.64.09-.55.55.18.46.55.46Zm2.28-.46c0-.36-.18-.46-.55-.46s-.64,0-.64.46.18.46.55.46.64-.09.64-.46Zm-5.28,44.34c.04-.26-.15-.51-.41-.55-.05,0-.09,0-.14,0-.36,0-.46.27-.46.55s.18.55.46.55c.27-.03.48-.27.46-.55h.09Zm-1.91-44.8c-.29,0-.54.18-.64.46-.01.29.22.54.51.55.01,0,.02,0,.04,0,.27,0,.46-.09.46-.36h0c0-.36-.09-.55-.46-.55l.09-.09Zm2.09.46c0-.36-.18-.46-.55-.46-.25-.05-.5.11-.55.36-.05.25.11.5.36.55.06.01.12.01.18,0,.36,0,.46-.18.46-.46h.09Zm-.18,40.61c0-.36-.27-.46-.55-.46-.24-.02-.44.16-.46.4,0,.02,0,.04,0,.06,0,.36.18.55.46.55s.46-.18.46-.55h.09Zm3.64-.09c0-.18-.09-.36-.46-.36s-.55.09-.55.46.18.55.46.55.46-.18.46-.64h.09Zm-.36,4.28c.27,0,.36-.18.36-.46.02-.28-.18-.52-.46-.55-.24-.02-.45.15-.47.38,0,.06,0,.11.02.17.09.36.18.46.64.46h-.09Zm-1.46-44.8c0-.36-.27-.46-.55-.46s-.46.18-.36.55.27.46.55.46c.27-.03.48-.27.46-.55h-.09Zm-.46,40.33c.24.02.44-.16.46-.4,0-.02,0-.04,0-.06,0-.36-.18-.55-.55-.46s-.46.18-.46.55c.03.27.27.48.55.46h0v-.09Zm-2.73,2.64c.27,0,.46-.09.55-.46s-.09-.55-.46-.55-.46.09-.55.46.09.55.46.55h0Zm5.19-1c-.22,0-.4.19-.39.41,0,.05.01.09.03.14,0,.27.18.46.55.36s.46-.27.46-.55c-.03-.27-.27-.48-.55-.46l-.09.09Zm-2.55,3.64c.24.02.44-.16.46-.4,0-.02,0-.04,0-.06,0-.36-.18-.55-.46-.55-.24-.02-.44.16-.46.4,0,.02,0,.04,0,.06,0,.36.18.52.46.52v.03Zm-.55-2.82c0-.27-.09-.46-.46-.46-.24-.02-.44.16-.46.4,0,.02,0,.04,0,.06,0,.27.09.55.36.55.27,0,.49-.2.55-.46h0v-.09Zm.73.36c-.24-.02-.44.16-.46.4,0,.02,0,.04,0,.06.03.27.27.48.55.46h0c.27,0,.36-.27.36-.46.02-.24-.16-.44-.4-.46-.02,0-.04,0-.06,0Zm0-1.73c.02-.23-.14-.43-.36-.46-.27,0-.49.2-.55.46,0,.18.09.46.36.46h0c.27,0,.36-.27.46-.46h.09Zm.91,1.18c.2-.01.35-.17.36-.36,0-.18,0-.36-.27-.46h-.09c-.27,0-.36.18-.46.36s0,.36.36.36l.09.09Z"/><path class="cls-24" d="m55.32,399.55h6.19c.55,0,.64.18.64.73v12.02c0,.46-.09.64-.64.64h-13.93c.02-.19.08-.38.18-.55,1.73-2.82,3.37-5.65,5.1-8.47.91-1.41,1.73-2.87,2.46-4.37Z"/><path class="cls-24" d="m44.11,412.84c-1.46,0-2.19-.69-2.19-2.09v-10.5c0-.64.18-.82.82-.82h9.1c-.64,1.32-1.37,2.6-2.19,3.82-1.82,3.19-3.73,6.28-5.55,9.47v.12Z"/><path class="cls-19" d="m55.32,399.55c-.73,1.51-1.55,2.96-2.46,4.37-1.64,2.82-3.37,5.65-5.1,8.47,0,.18-.18.36-.18.55h-1.46c.02-.19.08-.38.18-.55,1.46-2.37,2.91-4.83,4.28-7.19,1.09-1.91,2.28-3.64,3.28-5.65h1.46Z"/><path class="cls-9" d="m53.85,399.55c-1,1.91-2.19,3.73-3.28,5.65-1.46,2.46-2.91,4.83-4.28,7.19,0,.18-.18.36-.18.55h-1c.42-1.07.97-2.08,1.64-3,2-3.46,4.1-6.92,6.1-10.29h1v-.09Z"/><path class="cls-16" d="m52.85,399.55c-2,3.46-4.1,6.83-6.1,10.29-.67.93-1.22,1.94-1.64,3h-1c1.91-3.1,3.73-6.28,5.55-9.47.82-1.22,1.55-2.5,2.19-3.82h1Z"/><path class="cls-22" d="m54.76,426.41c2,0,1.73-.18,1.73,1.73,0,1.09,0,1.18-1.27,1.18h-1.46c-.45.05-.86-.27-.91-.72,0-.06,0-.13,0-.19,0-2.09-.18-2.09,1.91-2Z"/><path class="cls-22" d="m49.3,426.41h0c1.73,0,2.19.55,1.73,2.28-.05.4-.41.69-.81.64,0,0,0,0-.01,0-.7.05-1.4.05-2.09,0-1.37-.27-.55-1.46-.73-2.19-.09-.55.18-.82.73-.73h1.18Z"/><path class="cls-22" d="m49.3,422.1h0c1.73,0,2.19.55,1.73,2.28-.06.36-.37.62-.73.64h-2.09c-.55,0-.91-.27-.82-.91v-.27c0-2-.27-1.82,1.82-1.82l.09.09Z"/><path class="cls-22" d="m54.76,422.1c1.91,0,1.73-.18,1.73,1.73,0,1.09-.18,1.27-1.27,1.27h-.46c-2.19,0-1.91-.18-1.91-2.28,0-.46.27-.64.73-.64h1.18v-.09Z"/><path class="cls-22" d="m54.67,433.7c-1.73,0-2.28-.64-1.82-2.37.07-.34.38-.57.73-.55h2.55c.82.64.36,1.55.36,2.28,0,.55-.46.64-.91.64h-.91Z"/><path class="cls-22" d="m49.3,433.7c-1.64,0-2.28-.91-1.73-2.46.06-.32.36-.53.68-.47.02,0,.03,0,.05.01h2.55c.82.64.36,1.46.36,2.19,0,.46-.36.73-.91.73h-1Z"/><path class="cls-22" d="m49.3,417.76h0c1.82,0,2.19.46,1.82,2.28,0,.46-.36.64-.82.73h-.73q-2.09,0-2.09-2.09c0-2.09.27-1,.91-.91h.91Z"/><path class="cls-22" d="m54.76,417.76c1.91,0,1.73-.18,1.73,1.73,0,1.09-.18,1.27-1.27,1.27h-.46c-2.19,0-1.91-.18-1.91-2.28,0-.46.27-.64.73-.73h1.18Z"/><path class="cls-22" d="m44.02,433.7c-2.09,0-1.73-.09-1.73-1.73q0-1.18,1.18-1.18h.36c2.19,0,1.91-.27,1.91,1.91,0,.82-.27,1.09-1,1.09h-.73v-.09Z"/><path class="cls-22" d="m60.04,430.69c2,0,1.73-.18,1.73,1.73q0,1.18-1.18,1.18h-.36c-2.37,0-1.91,0-2-2,0-.73.27-1.09,1-1h.73l.09.09Z"/><path class="cls-22" d="m60.04,426.41c1.91,0,1.73-.18,1.73,1.82,0,1.09-.09,1.18-1.18,1.18h-.27c-2.46,0-2,.09-2.09-2.09,0-.64.18-.91.82-.91h1Z"/><path class="cls-22" d="m44.02,426.41c1.91,0,1.64-.18,1.73,1.73,0,1.09,0,1.27-1.18,1.27h-.36c-2.37,0-1.91,0-2-2,0-.73.27-1.09,1-1h.82Z"/><path class="cls-22" d="m44.02,422.1c1.91,0,1.73-.18,1.73,1.73,0,1.18,0,1.27-1.27,1.27h-.27c-2.19,0-1.91,0-2-2,0-.73.18-1,.91-.91h.82l.09-.09Z"/><path class="cls-22" d="m60.04,417.76c1.91,0,1.73-.18,1.73,1.82,0,1.09-.09,1.18-1.18,1.18h-.27c-2.28,0-2,.09-2.09-2.09,0-.64.18-.91.82-.91h1Z"/><path class="cls-22" d="m60.04,422.1c1.91,0,1.73-.18,1.73,1.73,0,1.18-.09,1.27-1.18,1.27h-1.27c-.73,0-1-.27-1-1v-.18c0-2-.27-1.82,1.82-1.82h-.09Z"/><path class="cls-22" d="m44.02,417.76c1.91,0,1.73-.18,1.73,1.73,0,1.09-.09,1.18-1.18,1.18h-.27c-2.28,0-2.09.09-2.09-2.09,0-.64.18-.91.82-.91h.91l.09.09Z"/><path class="cls-25" d="m53.76,397c-.27,0-.55-.09-.55-.46-.01-.29.22-.54.51-.55.01,0,.02,0,.04,0,.27,0,.55.09.55.46.01.29-.22.54-.51.55-.01,0-.02,0-.04,0Z"/><path class="cls-25" d="m55.94,396.55c0,.36-.27.46-.64.46s-.55-.18-.55-.46.27-.46.64-.46.55.18.55.46Z"/><path class="cls-26" d="m50.66,440.8c.02.28-.18.52-.46.55-.24.02-.45-.15-.47-.38,0-.06,0-.11.02-.17,0-.27.09-.55.46-.55.26-.04.51.15.55.41,0,.05,0,.09,0,.14h-.09Z"/><path class="cls-25" d="m48.75,396c.36,0,.46.18.46.55.02.24-.16.44-.4.46-.02,0-.04,0-.06,0h0c-.36,0-.64-.18-.55-.55s.27-.46.64-.46h-.09Z"/><path class="cls-25" d="m50.84,396.46c0,.36-.18.55-.46.46-.25.05-.5-.11-.55-.36-.05-.25.11-.5.36-.55.06-.01.12-.01.18,0,.27,0,.55.09.55.46h-.09Z"/><path class="cls-25" d="m50.66,437.06c0,.36-.18.55-.46.55s-.46-.18-.46-.55.09-.46.46-.46.55.09.55.46h-.09Z"/><path class="cls-25" d="m54.3,436.97c0,.46-.18.64-.46.64s-.46-.18-.46-.55.27-.46.55-.46c.23-.02.43.14.46.36h-.09Z"/><path class="cls-25" d="m53.94,441.22c-.36,0-.64-.09-.64-.46s.18-.55.46-.55.46.18.46.55-.09.46-.36.46h.09Z"/><path class="cls-25" d="m52.48,396.46c.03.25-.12.48-.36.55-.27,0-.55-.09-.55-.46-.03-.25.12-.48.36-.55.36,0,.55.09.55.46Z"/><path class="cls-25" d="m52.03,436.79c-.27,0-.46-.09-.55-.46s.09-.55.46-.55.55.18.55.46c.02.24-.16.44-.4.46-.02,0-.04,0-.06,0v.09Z"/><path class="cls-25" d="m49.39,439.4c-.36,0-.46-.18-.46-.55s.18-.46.55-.46.46.18.46.55-.18.46-.55.46Z"/><path class="cls-25" d="m54.58,438.43c.36,0,.55.09.55.36s-.09.55-.46.55c-.25.03-.48-.12-.55-.36,0-.36.09-.55.36-.55h.09Z"/><path class="cls-25" d="m52.03,434.79c-.2-.01-.35-.17-.36-.36,0-.18.09-.27.36-.27.19-.02.35.12.36.31,0,.02,0,.04,0,.06,0,.18-.09.27-.36.27Z"/><path class="cls-26" d="m51.48,439.25c-.05.26-.28.45-.55.46-.27,0-.46-.18-.36-.55s.18-.46.46-.46.36.27.46.46v.09Z"/><path class="cls-26" d="m52.21,439.61c.24-.02.44.16.46.4,0,.02,0,.04,0,.06,0,.27,0,.46-.36.46s-.55-.09-.55-.36h0c0-.27.18-.36.46-.46v-.09Z"/><path class="cls-26" d="m52.12,437.97c-.02.24-.21.44-.46.46-.23.02-.43-.14-.46-.36h0c.03-.27.27-.48.55-.46.27,0,.36.18.36.46v-.09Z"/><path class="cls-25" d="m53.12,439.07c-.36,0-.46-.18-.36-.36s.18-.46.46-.36c.2.01.35.17.36.36v.09c-.01.2-.17.35-.36.36l-.09-.09Z"/><path d="m22.71,406.57c2.4-.23,4.53,1.54,4.76,3.94,0,.03,0,.06,0,.09l.19,3.58-8.91.56-.19-3.58c-.16-2.37,1.62-4.42,3.99-4.59.05,0,.1,0,.15,0Zm.16,1.94c-1.25-.06-2.31.91-2.36,2.17,0,.11,0,.22,0,.33l.08,1.56,4.99-.37-.08-1.56c-.05-1.31-1.16-2.32-2.46-2.27-.07,0-.14,0-.2.02l.03.13Z"/><path d="m19.57,404.55c-.64-.11-1.07-.73-.96-1.37.11-.64.73-1.07,1.37-.96.64.11,1.07.73.96,1.37h0c-.1.64-.7,1.07-1.34.96-.01,0-.02,0-.04,0Zm1.67.1l.32-1.85,6.23,1.08-.32,1.85-6.23-1.08Z"/><path d="m27.94,397.59c1.42.48,1.6,1.89,1.09,3.19-.3,1.08-1.2,1.9-2.31,2.09l-.34-1.84c.49.07.94-.27,1.02-.75.17-.43.11-.68-.16-.75-.71-.24-1.37,2.8-3.42,2.13-1.3-.51-1.57-1.77-1.14-3.11.29-.97,1.09-1.71,2.09-1.91l.26,1.79c-.38.04-.71.29-.85.65-.14.19-.1.46.09.6.02.01.03.02.05.03.71.24,1.29-2.85,3.5-2.08l.13-.03Z"/><path d="m31.17,390.36c1.51.91,1.99,2.87,1.09,4.37-.02.03-.03.05-.05.08-.39.61-1.01,1.03-1.72,1.17l2.68,1.72-1.08,1.69-7.36-5.05,1.03-1.61.54.34c-.14-.7.01-1.42.42-2,1.03-1.39,3-1.69,4.39-.65.03.02.06.05.09.07l-.03-.13Zm-1.03,1.61c-.68-.51-1.65-.36-2.15.32,0,0,0,.01-.01.02-.48.61-.38,1.5.23,1.98.05.04.1.08.16.11.68.51,1.65.36,2.15-.32,0,0,0-.01.01-.02.5-.56.45-1.43-.11-1.93-.08-.07-.17-.13-.26-.18v.02Z"/><path d="m28.09,385.03l1.37-1.29,6.36,6.78-1.37,1.29-6.36-6.78Z"/><path d="m38.73,380.93l3.3,5.47-1.62,1.01-.31-.52c-.14.69-.6,1.28-1.23,1.59-1.69.78-3.7.04-4.48-1.66-.67-1.45-.23-3.16,1.05-4.12.6-.39,1.35-.51,2.04-.31l-.31-.52,1.62-1.01-.05.08Zm.01,3.69c-.4-.74-1.32-1.02-2.06-.62-.02,0-.03.02-.05.03-.78.41-1.08,1.37-.67,2.15.41.78,1.37,1.08,2.15.67.78-.41,1.08-1.37.67-2.15-.01-.03-.03-.05-.04-.08Z"/><path d="m47.02,378.46l-.54,6.58c-.19,2.15-1.08,3.2-2.84,3.59l-.43-1.68c.74-.09,1.28-.72,1.26-1.46l-3.98-5.26,2.06-.52,2.38,3.37.16-4.12,1.99-.57-.05.08Z"/><path d="m59.79,386.86l-1.66-3.04-.35,2.78-1.88-.22,1.18-8.84,1.88.22-.74,5.28,2.27-2.49,2.25.32-2.71,2.83,1.92,3.52-2.13-.29-.04-.08Z"/><path d="m65.26,386.98c.43.18.92.18,1.34,0l1.07,1.39c-.93.56-2.08.61-3.05.11-1.72-.55-2.66-2.4-2.11-4.11.03-.1.07-.2.11-.29.6-1.66,2.44-2.53,4.1-1.92.11.04.21.08.31.13,1.66.67,2.47,2.55,1.8,4.22-.02.04-.03.08-.05.12-.07.25-.27.46-.34.71l-4.18-1.76c-.01.66.43,1.23,1.07,1.39l-.08.04Zm1.97-1.7c.07-.63-.26-1.24-.83-1.52-.57-.3-1.27-.13-1.66.39l2.52,1.01-.04.12Z"/><path d="m76.47,388.32l-5.49,3.62c-1.83,1.21-3.22,1.14-4.56,0l1.09-1.43c.51.53,1.35.57,1.92.09l1.6-6.37,1.72,1.24-1.24,4,3.25-2.4,1.59,1.2.12.04Z"/><path d="m79.36,397.02c-1.32,1.12-3.3.96-4.43-.36-.02-.03-.05-.06-.07-.09-.47-.54-.68-1.27-.56-1.98l-2.5,1.88-1.16-1.55,7.14-5.36,1.16,1.55-.56.31c.71.11,1.35.52,1.75,1.12.99,1.43.63,3.38-.8,4.37-.03.02-.06.04-.1.06l.12.04Zm-1.16-1.55c.66-.43.84-1.31.41-1.97-.04-.06-.08-.11-.12-.16-.4-.65-1.25-.86-1.9-.46-.08.05-.16.11-.23.17-.66.43-.84,1.31-.41,1.97.04.06.08.11.12.16.4.65,1.25.86,1.9.46.08-.05.16-.11.23-.17h0Z"/><path d="m85.23,403.35l-5.99,2.14-.68-1.81.48-.26c-.68-.2-1.18-.77-1.32-1.46-.43-1.82.7-3.64,2.52-4.07,1.55-.37,3.15.4,3.83,1.84.3.66.25,1.43-.13,2.04l.48-.26c.04.08.72,1.89.72,1.89l.08-.04Zm-3.61-.72c.74-.19,1.19-.94,1-1.68-.02-.09-.06-.18-.1-.27-.26-.77-1.09-1.19-1.86-.94-.03,0-.06.02-.08.03-.74.19-1.19.94-1,1.68.02.09.06.18.1.27.27.77,1.11,1.17,1.88.91.01,0,.03,0,.04-.01l.03.02Z"/><path d="m88.57,412.53l-8.91.41-.11-1.91.61-.02c-.58-.43-.88-1.13-.8-1.84.02-1.77,1.45-3.2,3.22-3.22,1.73-.17,3.27,1.08,3.44,2.81,0,.03,0,.05,0,.08.05.72-.2,1.42-.7,1.94l3.13-.16.11,1.91Zm-5.81-1.7c.84,0,1.53-.67,1.53-1.51,0-.02,0-.04,0-.06,0-.79-.65-1.42-1.44-1.42-.05,0-.11,0-.16.01-.84,0-1.53.67-1.53,1.51,0,.02,0,.04,0,.06,0,.79.65,1.42,1.44,1.42.05,0,.11,0,.16-.01h0Z"/><circle class="cls-4" cx="55.73" cy="533.92" r="40.5"/><path class="cls-17" d="m46.91,567.58c-.18-.14-.4-.2-.63-.18-3.48-.82-5.89-3.99-5.76-7.56v-36.09c-.11-3.02,1.64-5.8,4.41-7.02.99-.46,2.06-.71,3.15-.72h15.48c4.14-.04,7.52,3.28,7.56,7.42,0,.05,0,.1,0,.14v36.36c.07,3.6-2.48,6.73-6.03,7.38-.23-.02-.45.04-.63.18h-17.55v.09Zm8.82-29.79h10.26c1.17,0,1.62-.54,1.62-1.62v-13.59c.14-.81-.41-1.57-1.22-1.71-.16-.03-.33-.03-.49,0h-20.34c-.81-.14-1.57.41-1.71,1.22-.03.16-.03.33,0,.49v13.5c0,1.17.45,1.71,1.71,1.71h10.17Zm3.15,6.66c.01-1.68-1.33-3.05-3.01-3.06-.02,0-.04,0-.05,0-1.73.02-3.13,1.42-3.15,3.15.03,1.71,1.44,3.08,3.15,3.06,1.73-.02,3.13-1.42,3.15-3.15h-.09Zm4.32-.18v1.71c-.05.39.22.76.62.81.06,0,.13,0,.19,0h2.61c.39.05.76-.22.81-.62,0-.06,0-.13,0-.19v-3.51c.05-.39-.22-.76-.62-.81-.06,0-.13,0-.19,0h-2.61c-.39-.05-.76.22-.81.62,0,.06,0,.13,0,.19v1.8Zm-19.08.27v1.8c-.05.39.22.76.62.81.06,0,.13,0,.19,0h2.61c.54,0,.81-.27.81-.72v-3.6c.01-.42-.3-.77-.72-.81h-2.7c-.54,0-.72.27-.81.81v1.71h0Zm20.7,13.14h1.71c.54,0,.81-.36.81-.9,0-1.26-.09-1.71-.72-1.8h-3.51c-.42-.03-.78.28-.81.7,0,.04,0,.07,0,.11v1.08c0,.54.27.81.9.81h1.62Zm-18.27,5.13h.81c1.71,0,1.71-.36,1.71-1.71,0-.72-.27-.99-.99-.99h-2.25c-1.89,0-1.8.27-1.71,1.89-.03.47.32.87.79.9.04,0,.07,0,.11,0h1.62l-.09-.09Zm9.27-5.13h1.53c.72,0,.99-.27,1.08-.99v-.72c0-.72-.27-.99-.99-.99h-2.25c-1.98,0-1.8.36-1.8,1.89-.05.44.26.85.71.9.06,0,.13,0,.19,0h1.62l-.09-.09Zm0,2.34h-1.71c-.39-.05-.76.22-.81.62,0,.06,0,.13,0,.19v.97c-.05.49.31.94.8.99.06,0,.13,0,.19,0h2.34c1.89,0,1.8-.36,1.8-1.89.05-.44-.26-.85-.71-.9-.06,0-.13,0-.19,0h-1.71v.02Zm8.91,2.79h.81c1.8.09,1.71-.36,1.71-1.8v-.18c.03-.42-.28-.78-.7-.81-.04,0-.07,0-.11,0h-3.33c-.46-.04-.86.3-.9.75,0,.02,0,.04,0,.06v1.08c0,.54.36.81.9.81h1.62v.09Zm-8.91-10.17h.72c1.89,0,1.8-.27,1.8-1.89h0c.03-.42-.28-.78-.7-.81-.04,0-.07,0-.11,0h-3.33c-.42-.03-.78.28-.81.7,0,.04,0,.07,0,.11v.99c0,.63.27.9.9.9h1.53,0Zm8.91,0h1.71c.54,0,.81-.36.81-.9.09-1.17,0-1.71-.63-1.89h-3.6c-.42-.03-.78.28-.81.7,0,.04,0,.07,0,.11v.99c-.05.44.26.85.71.9.06,0,.13,0,.19,0h1.62v.09Zm-18.18,0h1.71c.63,0,.81-.36.81-1.53,0-.81-.27-1.17-.81-1.17h-3.33c-.42-.03-.78.28-.81.7,0,.04,0,.07,0,.11v.99c0,.63.27.9.9.9h1.53Zm0,5.04h1.71c.54,0,.81-.36.81-.9.09-1.26,0-1.71-.63-1.8h-3.51c-.44-.05-.85.26-.9.71,0,.06,0,.13,0,.19v.99c0,.54.27.81.9.9h1.62v-.09Z"/><path class="cls-8" d="m55.73,537.79h-10.08c-1.26,0-1.71-.45-1.71-1.71v-13.5c0-1.17.45-1.71,1.71-1.71h20.34c1.26,0,1.71.45,1.71,1.71v13.59c0,1.17-.54,1.62-1.62,1.62h-10.35Z"/><path class="cls-11" d="m58.88,544.45c-.02,1.73-1.42,3.13-3.15,3.15-1.69-.04-3.06-1.38-3.15-3.06.02-1.73,1.42-3.13,3.15-3.15,1.68-.01,3.05,1.33,3.06,3.01,0,.02,0,.04,0,.05h.09Z"/><path class="cls-11" d="m63.2,544.27v-1.8c-.05-.39.22-.76.62-.81.06,0,.13,0,.19,0h2.61c.39-.05.76.22.81.62,0,.06,0,.13,0,.19v3.51c.05.39-.22.76-.62.81-.06,0-.13,0-.19,0h-2.61c-.39.05-.76-.22-.81-.62,0-.06,0-.13,0-.19v-1.71Z"/><path class="cls-11" d="m44.12,544.54v-1.71c-.05-.39.22-.76.62-.81.06,0,.13,0,.19,0h2.7c.45,0,.72.27.72.81v3.6c0,.54-.27.72-.81.72h-2.61c-.54,0-.72-.27-.81-.81v-1.8Z"/><path class="cls-11" d="m64.91,557.68h-1.62c-.46.04-.86-.3-.9-.75,0-.02,0-.04,0-.06v-1.08c-.03-.42.28-.78.7-.81.04,0,.07,0,.11,0h3.51c.63.09.81.54.72,1.8,0,.54-.27.9-.81.9h-1.71Z"/><path class="cls-11" d="m46.64,562.7h-1.62c-.44.05-.85-.26-.9-.71,0-.06,0-.13,0-.19,0-1.62-.18-1.98,1.71-1.89h2.25c.72,0,.99.27.99.99,0,1.44,0,1.8-1.71,1.71h-.9l.18.09Z"/><path class="cls-11" d="m55.91,557.68h-1.62c-.47.03-.87-.32-.9-.79,0-.04,0-.07,0-.11,0-1.53-.18-1.98,1.8-1.89h2.25c.72,0,.99.27.99.99v.72c0,.72-.27.99-1.08.99h-1.53l.09.09Z"/><path class="cls-11" d="m56,560h1.62c.47-.03.87.32.9.79,0,.04,0,.07,0,.11,0,1.53.18,1.98-1.8,1.89h-2.34c-.63,0-.9-.27-.99-.99v-.99c-.03-.42.28-.78.7-.81.04,0,.07,0,.11,0h1.8Z"/><path class="cls-11" d="m64.82,562.7h-1.62c-.46.04-.86-.3-.9-.75,0-.02,0-.04,0-.06v-1.08c0-.54.27-.81.9-.81h3.33c.39-.05.76.22.81.62,0,.06,0,.13,0,.19v.18c0,1.44,0,1.89-1.71,1.8h-.9l.09-.09Z"/><path class="cls-11" d="m55.91,552.64h-1.62c-.44.05-.85-.26-.9-.71,0-.06,0-.13,0-.19v-.99c-.03-.42.28-.78.7-.81.04,0,.07,0,.11,0h3.33c.42-.03.78.28.81.7,0,.04,0,.07,0,.11h0c0,1.62.09,1.98-1.8,1.89h-.63Z"/><path class="cls-11" d="m64.82,552.64h-1.62c-.54,0-.81-.36-.9-.9v-.99c-.05-.39.22-.76.62-.81.06,0,.13,0,.19,0h3.6c.54.18.72.63.63,1.89.04.46-.3.86-.75.9-.02,0-.04,0-.06,0h-1.71v-.09Z"/><path class="cls-11" d="m46.64,552.64h-1.62c-.63,0-.9-.27-.9-.9v-.99c-.03-.42.28-.78.7-.81.04,0,.07,0,.11,0h3.33c.63,0,.81.36.81,1.17,0,1.17-.18,1.53-.81,1.53h-1.62,0Z"/><path class="cls-11" d="m46.64,557.68h-1.62c-.44.05-.85-.26-.9-.71,0-.06,0-.13,0-.19v-.99c-.03-.47.32-.87.79-.9.04,0,.07,0,.11,0h3.51c.54.09.72.63.63,1.8,0,.54-.27.9-.81.9h-1.71v.09Z"/><path d="m25.8,534.71c1.87-.47,3.77.65,4.27,2.51l.38,1.41,3.07-.84.57,2.22-9.78,2.65-1.04-3.68c-.54-1.83.51-3.75,2.34-4.29.03,0,.06-.02.09-.03l.08.04Zm.57,2.22c-.65.13-1.07.77-.94,1.42,0,.05.02.09.04.14l.38,1.41,2.46-.65-.38-1.41c-.17-.65-.82-1.03-1.47-.87-.04.01-.09.03-.13.04l.04-.08Z"/><path d="m27.89,525.56l4.43.06-.03,2.21-4.1-.09c-.66-.08-1.26.4-1.34,1.06,0,.06,0,.11,0,.17-.06.69.45,1.3,1.14,1.36.1,0,.2,0,.3,0l3.9.09-.03,2.21-10.1-.25.03-2.21,3.5.09c-1.08-1.02-1.13-2.73-.11-3.82.59-.63,1.45-.93,2.3-.82l.12-.04Z"/><path d="m28.96,524.09c-2.04-.6-3.2-2.73-2.6-4.77s2.73-3.2,4.77-2.6,3.2,2.73,2.6,4.77c0,.03-.02.06-.03.09-.61,2-2.73,3.13-4.73,2.52,0,0,0,0-.01,0Zm1.68-5.21c-.81-.31-1.71.1-2.02.91-.02.05-.03.1-.05.15-.28.88.22,1.82,1.1,2.1.01,0,.03,0,.04.01.81.31,1.71-.1,2.02-.91.02-.05.03-.1.05-.15.28-.88-.22-1.82-1.1-2.1-.01,0-.03,0-.04-.01Z"/><path d="m35.11,509.24l3.71,2.42-1.23,1.8-3.39-2.26c-.53-.42-1.29-.33-1.71.2-.02.03-.05.06-.07.1-.37.72-.38,1.32.5,1.98l3.23,2.18-1.23,1.8-6.02-4.02,1.23-1.8.56.29c-.23-.73-.08-1.53.39-2.13.83-1.24,2.51-1.57,3.74-.75.07.05.14.1.21.15l.08.04Z"/><path d="m41.02,507.42c.39-.36.64-.84.7-1.36l2.02-.38c.09,1.24-.46,2.45-1.45,3.2-1.5,1.48-3.91,1.46-5.38-.04-1.48-1.5-1.46-3.91.04-5.38.09-.08.18-.17.27-.24,1.66-1.32,4.08-1.04,5.4.63.16.2.3.43.42.66l-3.95,3.33c.65.33,1.45.21,1.98-.3l-.04-.12Zm-.65-2.87c-.58-.43-1.38-.37-1.89.14-.59.43-.79,1.23-.47,1.89l2.36-2.02Z"/><path d="m61.7,509.33l-1.66-3.6c.08-.04-.58,3.04-.58,3.04l-2.12-.51,2.2-9.84,2.12.51-1.35,5.88,2.78-2.57,2.44.56-3.31,2.92,1.89,4.09-2.44-.56.04.08Z"/><path d="m67.84,509.96c.44.24.97.28,1.45.13l1.08,1.68c-1.11.52-2.41.5-3.5-.07-1.89-.79-2.78-2.95-1.99-4.84.05-.13.11-.25.18-.37.91-1.88,3.17-2.66,5.05-1.75.04.02.08.04.12.06,1.8.92,2.52,3.13,1.59,4.93-.02.04-.04.08-.06.11-.12.26-.28.5-.47.71l-4.56-2.36c-.07.74.38,1.43,1.08,1.68l.04.08Zm2.39-1.7c.18-.69-.15-1.41-.79-1.72-.64-.37-1.44-.24-1.94.3l2.73,1.41Z"/><path d="m80.28,512.64l-6.51,3.5c-2.13,1.18-3.7,1.01-5.14-.4l1.38-1.53c.52.64,1.45.78,2.12.31l2.51-7.01,1.72,1.58-1.75,4.38,3.98-2.33,1.72,1.58-.04-.08Z"/><path d="m82.66,522.74c-1.66,1.15-3.94.74-5.08-.92h0c-.48-.67-.62-1.52-.37-2.31l-3,1.88-1.15-1.85,8.54-5.33,1.15,1.85-.57.26c.8.2,1.49.69,1.93,1.39.98,1.69.42,3.85-1.27,4.84-.04.02-.09.05-.13.07l-.04.12Zm-1.15-1.85c.8-.44,1.1-1.44.66-2.25-.02-.04-.04-.08-.07-.11-.42-.77-1.39-1.06-2.16-.64-.08.05-.17.1-.24.16-.8.44-1.1,1.44-.66,2.25.02.04.04.08.07.11.42.77,1.39,1.06,2.16.64.08-.05.17-.1.24-.16Z"/><path d="m88.67,530.38l-6.98,1.84-.58-2.11.57-.26c-.7-.34-1.21-.98-1.4-1.73-.43-1.9.76-3.8,2.66-4.24.04,0,.09-.02.13-.03,1.89-.62,3.92.42,4.54,2.31,0,.01,0,.02.01.03.26.78.14,1.64-.31,2.33l.57-.26c.04.08.62,2.19.62,2.19l.17-.06Zm-4.03-1.21c.93-.2,1.52-1.11,1.33-2.04,0-.02,0-.04-.01-.06-.18-.88-1.04-1.44-1.92-1.26-.08.02-.15.04-.22.06-.86.15-1.44.97-1.29,1.83.01.08.03.15.06.22.18.88,1.04,1.44,1.92,1.26.08-.02.15-.04.22-.06l-.08.04Z"/><path d="m91.56,540.94l-10.1-.39.11-2.13.69-.02c-.59-.57-.89-1.38-.82-2.2.26-2.08,2.16-3.56,4.24-3.3,1.83.23,3.23,1.73,3.32,3.58.02.83-.35,1.62-.99,2.14l3.54.15-.11,2.13.12.04Zm-6.37-2.41c.94,0,1.71-.77,1.7-1.72,0-.94-.77-1.71-1.72-1.7-.91,0-1.66.72-1.7,1.64-.08.91.6,1.7,1.5,1.78.07,0,.14,0,.21,0Z"/></svg>