<?xml version="1.0" encoding="UTF-8"?><svg id="Layer_1" xmlns="http://www.w3.org/2000/svg" viewBox="0 0 400 400"><defs><style>.cls-1{stroke:#a5262d;}.cls-1,.cls-2,.cls-3{stroke-width:4px;}.cls-1,.cls-2,.cls-3,.cls-4{fill:none;stroke-miterlimit:10;}.cls-2{stroke:#000;}.cls-5{fill:#fff;}.cls-6{fill:#a7b4b9;}.cls-3{stroke:#0018c6;}.cls-7{fill:#4fb76a;}.cls-8{fill:#349951;}.cls-9{fill:#cfe1ed;}.cls-10{fill:#143441;}.cls-11{fill:#a7c1e0;}.cls-12{fill:#546e7a;}.cls-13{fill:#0d202b;}.cls-14{fill:#cbdde9;}.cls-15{fill:#369754;}.cls-16{fill:#444b66;}.cls-17{fill:#163842;}.cls-18{fill:#f8d77c;}.cls-19{fill:#fdd782;}.cls-20{fill:#ffed58;}.cls-21{fill:#caa158;}.cls-4{stroke:#231f20;stroke-width:2px;}.cls-22{fill:#36464e;}.cls-23{fill:#c6ecf9;}.cls-24{fill:#fbbd41;}.cls-25{fill:#3d435c;}.cls-26{fill:#01b6a0;}.cls-27{fill:#183c43;}.cls-28{fill:#788f9b;}.cls-29{fill:#c6ecfa;}.cls-30{fill:#454c67;}.cls-31{fill:#c6d8de;}.cls-32{fill:#c4d8dd;}.cls-33{fill:#fbd734;}.cls-34{fill:#cadce8;}.cls-35{fill:#51b66c;}.cls-36{fill:#cad9df;}.cls-37{fill:#231f20;}.cls-38{fill:#c7d9de;}.cls-39{fill:#c5d8de;}.cls-40{fill:#153642;}.cls-41{fill:#6e6b87;}</style></defs><line class="cls-5" x1="199.06" y1="234.43" x2="198.56" y2="267.21"/><line class="cls-4" x1="199.06" y1="234.43" x2="198.72" y2="256.44"/><polygon class="cls-37" points="191.28 254.14 198.56 267.21 206.23 254.37 191.28 254.14"/><line class="cls-5" x1="256.36" y1="118.51" x2="234.25" y2="142.71"/><line class="cls-4" x1="256.36" y1="118.51" x2="241.51" y2="134.77"/><polygon class="cls-37" points="237.47 128.11 234.25 142.71 248.51 138.19 237.47 128.11"/><line class="cls-5" x1="143.25" y1="118.51" x2="165.36" y2="142.71"/><line class="cls-4" x1="143.25" y1="118.51" x2="158.1" y2="134.77"/><polygon class="cls-37" points="151.1 138.19 165.36 142.71 162.15 128.11 151.1 138.19"/><line class="cls-5" x1="282.2" y1="184.1" x2="249.42" y2="184.6"/><line class="cls-4" x1="282.2" y1="184.1" x2="260.18" y2="184.43"/><polygon class="cls-37" points="262.26 176.92 249.42 184.59 262.48 191.88 262.26 176.92"/><line class="cls-5" x1="115.42" y1="184.1" x2="148.2" y2="184.6"/><line class="cls-4" x1="115.42" y1="184.1" x2="137.43" y2="184.43"/><polygon class="cls-37" points="135.13 191.88 148.2 184.6 135.36 176.92 135.13 191.88"/><circle class="cls-1" cx="110" cy="80.34" r="45"/><path class="cls-7" d="m88.4,113.04l-1.8-1.8c-.2-.18-.31-.43-.3-.7v-38.22c-.04-.33.07-.66.3-.9.9-1,1.9-1.9,2.8-2.9.15-.18.37-.29.6-.3h37.8c.2,0,.4,0,.5.2l1.8,1.8v38.7c.02.35-.13.68-.4.9-.8.8-1.6,1.7-2.4,2.5-.25.3-.61.48-1,.5h-37.4c-.21-.02-.41.02-.6.1l.1.12Zm13.7-4.5h2.5v1.9q0,1.1,1.1,1.1c.3,0,.4-.1.4-.4v-2.6h2.5v1.9q0,1.1,1.1,1.1c.3,0,.4-.1.4-.4v-2.6h2.5v1.9q0,1.1,1.1,1.1c.3,0,.4,0,.4-.4v-2.7h2.5v2q0,1.1,1.1,1.1c.4,0,.5-.1.5-.5v-2.6h2.5v1.88q0,1.2,1.2,1.1c.3,0,.4-.1.4-.4v-2.6h2.5v1.9q0,1.2,1.2,1.1c.3,0,.4,0,.4-.4v-2.6c.2,0,.4,0,.4-.3h1.8q1.1,0,1.1-1.1c0-.3-.1-.4-.4-.4h-2.5v-2.5h1.8q1.1,0,1.1-1.1c0-1.1-.1-.5-.4-.5h-2.5v-2.5h1.8c1.3,0,1.1.2,1.1-1.1,0-.3,0-.4-.4-.4h-2.5v-2.5h1.8c1.3,0,1.1.2,1.1-1.1,0-.3-.1-.4-.4-.4h-2.5v-2.5h1.8c1.3,0,1.1.2,1.1-1.1,0-.3-.1-.4-.4-.4h-2.5v-2.5h1.8q1.2,0,1.1-1.2c0-.3-.1-.3-.4-.3h-2.6v-2.5h1.8q1.2,0,1.1-1.2c0-.3-.1-.3-.4-.3h-2.6v-2.5h1.8q1.2,0,1.1-1.2c0-.3-.1-.3-.4-.3h-2.6v-2.5h1.8q1.2,0,1.1-1.2c0-.3-.1-.3-.4-.3h-2.6c0-.3-.1-.4-.4-.4v-1.8q0-1.2-1.2-1.1c-.3,0-.3.1-.3.4v2.6h-2.5v-1.8q0-1.2-1.2-1.1c-.3,0-.3.1-.3.4v2.6h-2.5v-1.8q0-1.2-1.2-1.1c-.3,0-.3.1-.3.4v2.6h-2.5v-1.8q0-1.2-1.2-1.1c-.3,0-.3.1-.3.4v2.6h-2.5v-1.8q0-1.2-1.2-1.1c-.3,0-.3.1-.3.4v2.6h-2.5v-1.9q0-1.2-1.2-1.1c-.3,0-.3.1-.3.4v2.6h-2.5v-1.9q0-1.2-1.2-1.1c-.3,0-.3.1-.3.4v2.6h-2.5v-1.9c0-1.2,0-1.1-1.2-1.1-.3,0-.3.1-.3.4v2.6h-2.5v-1.9c0-1.2,0-1.1-1.2-1.1-.3,0-.3.1-.3.4v2.6h-.6c-.3,0-.4,0-.4.4h-1.2q-1.2,0-1.1,1.2c-.02.15.09.28.24.3.02,0,.04,0,.06,0h2v2.5h-1.2q-1.2,0-1.1,1.2c-.02.15.09.28.24.3.02,0,.04,0,.06,0h2v2.5h-1.2q-1.2,0-1.1,1.2c-.02.15.09.28.24.3.02,0,.04,0,.06,0h2v2.5h-1.2q-1.2,0-1.1,1.2c0,.3.1.3.3.3h2v2.5h-1.2q-1.2,0-1.2,1.2c0,.2,0,.3.3.3h2v2.5h-1.2q-1.2,0-1.2,1.2c0,.3.1.3.4.3h1.9v2.5h-1.2q-1.2,0-1.2,1.2c0,.3.1.3.4.3h1.9v2.5h-1.2q-1.2,0-1.1,1.2c0,.3.1.3.4.3h1.9v2.5h-1.2q-1.2,0-1.1,1.2c0,.3.1.3.4.3h1.9c0,.2,0,.3.3.3h.7v1.9q0,1.2,1.2,1.1c.3,0,.3-.1.3-.4v-2.7h2.5v1.9q0,1.2,1.2,1.1c.3,0,.3-.1.3-.4v-2.7h2.5v1.9q0,1.1,1.1,1.1c.3,0,.4-.1.4-.4v-2.6l.4-.08Z"/><path class="cls-8" d="m88.4,113.04c.2-.2.4-.1.6-.1h37.4c.39,0,.77-.18,1-.5.8-.9,1.6-1.7,2.4-2.5.27-.22.42-.55.4-.9v-38.72c.5.4.9.9,1.4,1.3.2.2.1.4.1.6v38.4c.04.3-.07.6-.3.8-.9.9-1.8,1.9-2.6,2.8-.15.18-.37.29-.6.3h-38c-.22.03-.44-.05-.6-.2-.39-.37-.76-.78-1.1-1.2l-.1-.08Z"/><path class="cls-9" d="m122.1,74.24h2.9v8.7c.13,3.73.07,7.47-.2,11.2-.16,1.7-.53,3.38-1.1,5-.22.64-.52,1.24-.9,1.8v-21.62c0-.5.2-1.1,0-1.3s-.9,0-1.4,0h-25.5c-.4,0-.5.1-.5.5v25.8c0,.4.1.5.5.5h23.1c-.5.2-.9.5-1.4.7-2.51,1-5.2,1.51-7.9,1.5h-18v-32.28c0-.3,0-.4.4-.4h30.1l-.1-.1Z"/><path class="cls-11" d="m91.6,106.94h18c2.71.05,5.4-.46,7.9-1.5.5-.2.9-.5,1.4-.7h3.5c.3,0,.4,0,.4-.4v-3.4c.42-.53.72-1.15.9-1.8.61-1.6.98-3.29,1.1-5,.3-3.7.1-7.5.2-11.2v-8.7h1.1c.3,0,.4,0,.4.4v33.5c0,.3-.2.3-.4.3h-34.2c-.2,0-.3,0-.3-.3v-1.2Z"/><path class="cls-27" d="m120.5,108.44h1.5v2.6c0,.3,0,.4-.4.4q-1.2,0-1.2-1.1v-1.9h.1Z"/><path class="cls-17" d="m116.5,108.44h1.5v2.6c0,.3,0,.5-.5.5q-1.1,0-1.1-1.1v-1.9l.1-.1Z"/><path class="cls-17" d="m124.5,108.44h1.5v2.6c0,.3,0,.4-.4.4q-1.2,0-1.2-1.1v-1.9h.1Z"/><path class="cls-17" d="m118.1,74.24h-1.5v-2.6c0-.2,0-.4.3-.4q1.2,0,1.2,1.1v1.9Z"/><path class="cls-27" d="m122.1,74.24h-1.5v-2.6c0-.2,0-.3.3-.4q1.2,0,1.2,1.1v1.9Z"/><path class="cls-17" d="m126.1,74.24h-1.5v-2.6c0-.2,0-.3.3-.4q1.2,0,1.2,1.1v1.9Z"/><path class="cls-17" d="m126.5,100.14v-1.5h2.5c.3,0,.4.1.4.4,0,1.4.2,1.1-1.1,1.1h-1.8Z"/><path class="cls-17" d="m126.5,92.14v-1.5h2.5c.3,0,.4.1.4.4,0,1.4.2,1.1-1.1,1.1h-1.8Z"/><path class="cls-17" d="m126.5,96.14v-1.5h2.5c.3,0,.4.1.4.4,0,1.4.2,1.1-1.1,1.1h-1.8Z"/><path class="cls-17" d="m126.5,104.14v-1.5h2.5c.3,0,.4.1.4.5q0,1.1-1.1,1.1h-1.8v-.1Z"/><path class="cls-40" d="m92.6,108.44h1.5v2.7c0,.2,0,.4-.3.4q-1.2,0-1.2-1.1v-2Z"/><path class="cls-40" d="m96.6,108.44h1.5v2.7c0,.2,0,.4-.3.4q-1.2,0-1.2-1.1v-2Z"/><path class="cls-40" d="m104.6,108.44h1.5v2.6c0,.3,0,.4-.4.4q-1.1,0-1.1-1.1v-1.9Z"/><path class="cls-17" d="m108.5,108.44h1.5v2.6c0,.3,0,.4-.4.4q-1.1,0-1.1-1.1v-1.9Z"/><path class="cls-17" d="m112.5,108.44h1.5v2.7c0,.3,0,.4-.4.4q-1.1,0-1.1-1.1v-2Z"/><path class="cls-40" d="m100.6,108.44h1.5v2.6c0,.3,0,.4-.4.4q-1.1,0-1.1-1.1v-1.9Z"/><path class="cls-17" d="m126.5,88.14v-1.5h2.6c.2,0,.3,0,.4.3q0,1.2-1.1,1.2h-1.9Z"/><path class="cls-40" d="m126.5,80.14v-1.5h2.6c.2,0,.3,0,.4.3q0,1.2-1.1,1.2h-1.9Z"/><path class="cls-40" d="m126.5,84.14v-1.5h2.6c.2,0,.3,0,.4.3q0,1.2-1.1,1.2h-1.9Z"/><path class="cls-40" d="m126.5,76.14v-1.5h2.6c.2,0,.3,0,.4.3q0,1.2-1.1,1.2h-1.9Z"/><path class="cls-17" d="m114,74.24h-1.5v-2.6c0-.2,0-.4.3-.4q1.2,0,1.2,1.1v1.9Z"/><path class="cls-40" d="m106,74.24h-1.5v-2.6c0-.2,0-.4.3-.4q1.2,0,1.2,1.1v1.9Z"/><path class="cls-17" d="m126.5,108.14v-1.5h2.5c.3,0,.4,0,.4.4q0,1.1-1.1,1.1h-1.8Z"/><path class="cls-40" d="m110,74.24h-1.5v-2.6c0-.2,0-.3.3-.4q1.2,0,1.2,1.1v1.9Z"/><path class="cls-40" d="m102,74.24h-1.5v-2.6c0-.2,0-.4.3-.4q1.2,0,1.2,1.1v1.9Z"/><path class="cls-10" d="m98,74.24h-1.5v-2.6c0-.2,0-.4.3-.4q1.2,0,1.2,1.1v1.9Z"/><path class="cls-10" d="m94,74.24h-1.5v-2.6c0-.2,0-.4.3-.4q1.2,0,1.2,1.1v1.9Z"/><path class="cls-17" d="m91.5,94.64v1.5h-1.9c-.2,0-.4,0-.4-.3q0-1.2,1.2-1.2h1.1,0Z"/><path class="cls-17" d="m91.5,98.64v1.5h-1.9c-.2,0-.4,0-.4-.3q0-1.2,1.2-1.2h1.1,0Z"/><path class="cls-17" d="m91.5,102.64v1.5h-1.9c-.2,0-.4,0-.4-.3q0-1.2,1.1-1.2h1.2Z"/><path class="cls-17" d="m91.5,90.64v1.5c-.67.05-1.33.05-2,0-.2,0-.3,0-.3-.3q0-1.2,1.2-1.2h1.1Z"/><path class="cls-40" d="m91.5,82.64v1.5h-2c-.2,0-.3,0-.3-.3q0-1.2,1.1-1.2h1.2Z"/><path class="cls-40" d="m91.5,78.64v1.5h-2c-.2,0-.3,0-.3-.3q0-1.2,1.1-1.2h1.2Z"/><path class="cls-10" d="m91.5,74.64v1.5h-2c-.2,0-.3,0-.3-.3q0-1.2,1.1-1.2h1.2Z"/><path class="cls-40" d="m91.5,86.64v1.5h-2c-.2,0-.3,0-.3-.3q0-1.2,1.1-1.2h1.2Z"/><path class="cls-17" d="m91.6,106.94v1.2h-2c-.2,0-.3,0-.4-.3q0-1.2,1.1-1.2h1.2v.3h.1Z"/><path class="cls-10" d="m95.3,103.24v-24.8c0-.4.1-.5.5-.5h25.5v4.5c0,3.2.1,6.5,0,9.7-.05,1.31-.35,2.6-.9,3.8-.67,1.8-1.81,3.39-3.3,4.6-2.34,1.73-5.19,2.65-8.1,2.6h-13.6l-.1.1Zm14.4-5.2h2.2v2.7q0,1.1,1.1,1.1c.3,0,.4-.1.4-.4v-3.4h2.3c.3,0,.4,0,.4-.4v-1.8h2.2q1.1,0,1.1-1.1c0-.3-.1-.4-.4-.4h-2.9v-2.2h2.2q1.1,0,1.1-1.1c0-.3-.1-.4-.4-.4h-2.9v-2.2h2.2q1.1,0,1.1-1.1c0-.3-.1-.4-.4-.4h-2.9v-1.9c0-.3,0-.4-.3-.4h-2.4v-2.6q0-1.1-1.1-1.1c-.3,0-.4,0-.4.4v3.3h-2.2v-2.6q0-1.1-1.1-1.1c-.3,0-.4,0-.4.4v3.3h-2.2v-2.6q0-1.1-1.1-1.1c-.3,0-.4,0-.4.4v3.3h-2.1c-.3,0-.4,0-.4.4v1.9h-2.3q-1.1,0-1.1,1.1c0,.3.1.4.4.4h3.1v2.2h-2.3q-1.1,0-1.1,1.1c0,.3.1.4.4.4h3.1v2.18h-2.3q-1.1,0-1.1,1.1c0,.3.1.4.4.4h3.1v1.9q0,.3.4.3h2.2v2.7q0,1.1,1.1,1.1c.3,0,.4-.1.4-.4v-3.4h2.2v2.7q0,1.1,1.1,1.1c.3,0,.4-.1.4-.4v-3.4l-.4.02Z"/><path class="cls-13" d="m95.3,103.24h13.6c2.92.09,5.78-.82,8.1-2.6,1.52-1.19,2.66-2.78,3.3-4.6.5-1.21.8-2.49.9-3.8.2-3.2,0-6.5,0-9.7v-4.5c.5,0,1.1-.2,1.4,0s0,.9,0,1.3v24.98c0,.3,0,.4-.4.4h-26.6c-.4,0-.6,0-.5-.5v-1l.2.02Z"/><path class="cls-35" d="m101.9,86.94v-1.9c0-.3,0-.4.4-.4h12.2c0,2.4.1,4.8-.1,7.1-.06,1.14-.56,2.22-1.4,3v-6.8c0-.3,0-.5-.4-.4h-7.4q-.3,0-.3.3v6.6c0,.4.1.5.5.5h7.4c-.08.18-.22.32-.4.4-1.05.75-2.31,1.14-3.6,1.1h-6.8v-9.6l-.1.1Z"/><path class="cls-15" d="m102,96.54h6.8c1.29.04,2.55-.35,3.6-1.1.18-.08.32-.22.4-.4.1,0,.2-.2.3-.3.8-.81,1.29-1.87,1.4-3,.2-2.4,0-4.7.1-7.1h1.2c.3,0,.3.1.3.4v12.6c0,.3-.1.4-.4.4h-13.4c-.3,0-.4,0-.4-.3v-1.2h.1Z"/><path class="cls-14" d="m111.9,98.04h1.5v3.4c0,.3,0,.4-.4.4q-1.1,0-1.1-1.1v-2.7Z"/><path class="cls-34" d="m108.2,98.04h1.5v3.4c0,.3,0,.4-.4.4q-1.1,0-1.1-1.1v-2.7Z"/><path class="cls-14" d="m104.5,98.04h1.5v3.4c0,.3,0,.4-.4.4q-1.1,0-1.1-1.1v-2.7Z"/><path class="cls-14" d="m105.9,84.64h-1.5v-3.32c0-.3,0-.4.4-.4q1.1,0,1.1,1.1v2.62Z"/><path class="cls-14" d="m109.7,84.64h-1.5v-3.32c0-.3,0-.4.4-.4q1.1,0,1.1,1.1v2.62Z"/><path class="cls-9" d="m113.4,84.64h-1.5v-3.32c0-.3,0-.4.4-.4q1.1,0,1.1,1.1v2.62Z"/><path class="cls-9" d="m101.9,94.32v1.5h-3.1c-.3,0-.4,0-.4-.4q0-1.1,1.1-1.1h2.4Z"/><path class="cls-9" d="m101.9,90.64v1.5h-3.1c-.3,0-.4,0-.4-.4q0-1.1,1.1-1.1h2.4Z"/><path class="cls-14" d="m101.9,86.94v1.5h-3.1c-.3,0-.4,0-.4-.4q0-1.1,1.1-1.1h2.4Z"/><path class="cls-34" d="m116.1,92.14v-1.5h2.9c.3,0,.4,0,.4.4q0,1.1-1.1,1.1h-2.2Z"/><path class="cls-34" d="m116.1,88.44v-1.5h2.9c.3,0,.4,0,.4.4q0,1.1-1.1,1.1h-2.2Z"/><path class="cls-9" d="m116.1,95.84v-1.52h2.9c.3,0,.4,0,.4.4q0,1.1-1.1,1.1l-2.2.02Z"/><path class="cls-19" d="m104.9,93.64v-5.6q0-.3.3-.3h6.3v3.1c.04.58-.14,1.15-.5,1.6-.61.81-1.59,1.27-2.6,1.2h-3.5Z"/><path class="cls-21" d="m104.9,93.64h3.6c1.01.07,1.99-.39,2.6-1.2.32-.47.49-1.03.5-1.6v-3.1h1.1c.4,0,.4.1.4.4v6.8c0,.1-.2.2-.3.3h-7.4c-.4,0-.6,0-.5-.5v-1.1h0Z"/><path d="m85.2,57.32c-2.05-3.07-1.23-7.23,1.85-9.28.12-.08.23-.15.35-.22,1.95-1.27,4.41-1.42,6.5-.4l-1.4,2.7c-1.11-.58-2.46-.51-3.5.2-1.77.94-2.45,3.15-1.5,4.92.09.17.19.33.3.48.93,1.8,3.14,2.51,4.94,1.58.16-.08.31-.18.46-.28,1.08-.62,1.76-1.76,1.8-3h3c-.05,2.26-1.26,4.34-3.2,5.5-3.1,2.05-7.28,1.19-9.32-1.92-.06-.09-.12-.19-.18-.28h-.1Z"/><path d="m107.9,49.14l1.1,5.7-2.8.5-1-5.3c-.02-.82-.7-1.48-1.52-1.46-.13,0-.25.02-.38.06-.94.13-1.59.99-1.46,1.93.01.09.03.18.06.27l.9,5.1-2.8.5-2.4-13.12,2.8-.5.9,4.6c.51-.92,1.45-1.52,2.5-1.6,1.9-.4,3.7.7,4.2,3.2l-.1.12Z"/><path d="m110.7,45.64l2.8.2-.5,9.48-2.8-.2.5-9.48Zm-.1-2.6c.06-.94.86-1.65,1.8-1.59.94.06,1.65.86,1.59,1.8-.06.93-.86,1.65-1.79,1.59-.93-.05-1.65-.84-1.6-1.77,0,0,0-.02,0-.03h0Z"/><path d="m125.6,53.64c-.62,2.52-3.16,4.05-5.68,3.43-.04-.01-.08-.02-.12-.03-1.05-.29-1.93-1.02-2.4-2l-1.4,4.5-2.7-.9,4-12.7,2.7.9-.3.9c.91-.51,2-.62,3-.3,2.42.83,3.71,3.46,2.88,5.88-.03.07-.05.15-.08.22l.1.1Zm-2.7-.9c.44-1.12-.11-2.37-1.23-2.81-.09-.03-.18-.06-.27-.09-1.09-.41-2.31.14-2.72,1.23-.03.09-.06.18-.08.27-.44,1.12.11,2.37,1.23,2.81.09.03.18.06.27.09,1.17.41,2.45-.2,2.86-1.37.02-.04.03-.09.04-.13h-.1Z"/><path d="m132.2,60.54c-1.2,1.8-3.3,1.5-5,.3-1.48-.85-2.3-2.51-2.1-4.2l2.8.3c-.24.69.06,1.45.7,1.8.6.4,1,.4,1.2.1.6-.9-3.5-3.1-1.7-5.8,1.2-1.7,3.2-1.6,4.8-.4,1.28.82,2.01,2.28,1.9,3.8l-2.7-.3c0-.6,0-1.1-.6-1.4-.4-.3-.8-.3-1,0-.6.9,3.6,3,1.6,5.9l.1-.1Z"/><circle class="cls-3" cx="65.02" cy="181.55" r="45"/><path class="cls-26" d="m40.22,172.85v-7.4c0-.3,0-.4.4-.4h11.1v2.2q0,.8.8.8h24.9c.5,0,.6-.2.6-.6v-2.4h11.3c.11.18.18.39.2.6v6.8c.04.29-.16.56-.45.6-.05,0-.1,0-.15,0h-1.4c-1.07.27-1.72,1.36-1.45,2.43.19.75.79,1.32,1.55,1.47h1.38q.6,0,.6.7v24.3c0,.6,0,.7-.7.7h-1.4c-1.07.05-1.9.93-1.9,2,0,1.05.85,1.9,1.9,1.9h1.4c.6,0,.7,0,.7.7v6.6c0,.2,0,.5-.2.6h-11.28v-2.4c.04-.29-.16-.56-.45-.6-.05,0-.1,0-.15,0h-25.2c-.5,0-.6.2-.6.6v2.4h-11.1c-.3,0-.4,0-.4-.4v-7.6h2c1.05,0,1.9-.85,1.9-1.9.04-1.06-.78-1.95-1.84-2-.02,0-.04,0-.06,0h-1.4c-.2,0-.5,0-.6-.2v-25.3c.18-.11.39-.18.6-.2h1.4c1.1-.05,1.95-.99,1.9-2.1,0,0,0,0,0,0-.04-.99-.81-1.8-1.8-1.9h-1.4c-.2,0-.5,0-.6-.2l-.1.2Zm40.6,19.3h1.8c.6,0,.8-.3.8-.7,0-.39-.32-.71-.71-.71-.03,0-.06,0-.09,0h-1.8v-1.7h1.8c.6,0,.9-.3.9-.7s-.3-.7-.9-.7h-1.8v-1.7h1.8c.39.07.75-.19.82-.58s-.19-.75-.58-.82c-.08-.01-.16-.01-.24,0h-1.8v-1.7h1.8c.6,0,.8-.3.8-.7,0-.39-.32-.71-.71-.71-.03,0-.06,0-.09,0h-1.8v-1.7h1.8c.6,0,.8-.3.8-.7,0-.39-.32-.71-.71-.71-.03,0-.06,0-.09,0h-1.8v-1.7h1.8c.6,0,.9-.3.9-.7s-.3-.7-.9-.7h-1.8c0-1.3,0-1.2-1.2-1.2v-1.8c0-.6-.3-.8-.7-.8-.39,0-.71.32-.71.71,0,.03,0,.06,0,.09v1.8h-1.7v-1.8c0-.6-.3-.9-.7-.9s-.7.3-.7.9v1.8h-1.7v-1.8c0-.6-.3-.9-.7-.9s-.7.3-.7.9v1.8h-1.7v-1.8c0-.6-.3-.9-.7-.9s-.7.3-.7.9v1.8h-1.7v-1.8c0-.6-.3-.9-.7-.9-.39,0-.71.32-.71.71,0,.03,0,.06,0,.09v1.8h-1.7v-1.8c0-.6-.3-.9-.7-.9s-.7.3-.7.9v1.8h-1.72v-1.8c0-.6-.3-.9-.7-.9s-.7.3-.7.9v1.8h-1.7v-1.8c0-.6-.3-.9-.7-.9s-.7.3-.7.9v1.8h-1.7v-1.8c0-.6-.3-.9-.7-.9s-.7.3-.7.9v1.8h-1.7v-1.8c0-.6-.3-.9-.7-.9s-.7.3-.7.9v1.8c-1.2,0-1.1,0-1.1,1.2h-1.8c-.6,0-.9.3-.8.7.04.41.39.72.8.7h1.8v1.7h-1.8c-.6,0-.9.3-.9.7s.3.7.9.7h1.8v1.7h-1.8c-.6,0-.9.3-.9.7s.3.7.9.7h1.8v1.7h-1.9c-.44-.05-.84.26-.9.7,0,.4.3.7.9.7h1.9v1.7h-1.8c-.6,0-.8.3-.8.7,0,.39.32.71.71.71.03,0,.06,0,.09,0h1.8v1.7h-1.8c-.6,0-.9.3-.9.7s.3.7.9.7h1.8v1.7h-1.8c-.6,0-.9.3-.9.7s.3.7.9.7h1.8v1.7h-1.8c-.6,0-.8.3-.8.7,0,.39.32.71.71.71.03,0,.06,0,.09,0h1.8v1.7h-1.8c-.6,0-.8.3-.8.7,0,.39.32.71.71.71.03,0,.06,0,.09,0h1.8v1.7h-1.8c-.6,0-.9.3-.9.7s.3.7.9.7h1.8c0,1.2,0,1.1,1.2,1.2v1.8c0,.6.3.8.7.8.39,0,.71-.32.71-.71,0-.03,0-.06,0-.09v-1.8h1.7v1.8c0,.6.3.9.7.9s.7-.3.7-.9v-1.8h1.7v1.8c0,.6.3.9.7.9s.7-.3.7-.9v-1.8h1.7v1.8c0,.6.3.8.7.8.39,0,.71-.32.71-.71,0-.03,0-.06,0-.09v-1.8h1.7v1.8c0,.6.3.8.7.8.39,0,.71-.32.71-.71,0-.03,0-.06,0-.09v-1.8h1.7v1.8c0,.6.3.9.7.9s.7-.3.7-.9v-1.8h1.7v1.8c0,.6.3.8.7.8.39,0,.71-.32.71-.71,0-.03,0-.06,0-.09v-1.8h1.7v1.8c0,.6.3.8.7.8.39,0,.71-.32.71-.71,0-.03,0-.06,0-.09v-1.8h1.7v1.8c0,.6.3.8.7.8.39,0,.71-.32.71-.71,0-.03,0-.06,0-.09v-1.8h1.7v1.8c0,.6.3.9.7.9s.7-.3.7-.9v-1.8c1.3,0,1.1,0,1.2-1.2h1.8c.6,0,.8-.3.8-.7,0-.39-.32-.71-.71-.71-.03,0-.06,0-.09,0h-1.8v-1.7h1.8c.6,0,.9-.3.9-.7s-.3-.7-.9-.7h-1.8v-1.7h1.8c.6,0,.9-.3.9-.7s-.3-.7-.9-.7h-1.8v-1.7h1.8c.6,0,.8-.3.8-.7,0-.39-.32-.71-.71-.71-.03,0-.06,0-.09,0h-1.8v-1.7l-.08.1Zm-36.6-21.7c.82-.02,1.48-.68,1.5-1.5h0c-.03-.8-.7-1.43-1.5-1.4s-1.43.7-1.4,1.5c.05.75.65,1.35,1.4,1.4Zm42.7-1.5c0-.83-.67-1.5-1.5-1.5s-1.5.67-1.5,1.5.67,1.5,1.5,1.5c.8.03,1.47-.6,1.5-1.4,0,0,0,0,0,0h0v-.1Zm-44.1,41.9c0,.83.67,1.5,1.5,1.5s1.5-.67,1.5-1.5h0c-.02-.82-.68-1.48-1.5-1.5h0c-.82.02-1.48.68-1.5,1.5Zm44.1,0c-.02-.82-.68-1.48-1.5-1.5h0c-.83,0-1.5.67-1.5,1.5s.67,1.5,1.5,1.5,1.5-.67,1.5-1.5Z"/><path class="cls-18" d="m75,168.05h-22.48q-.8,0-.8-.8v-2.2h23.4v3h-.12Z"/><path class="cls-18" d="m51.62,214.55v-2.4c-.04-.29.16-.56.45-.6.05,0,.1,0,.15,0h22.7v3h-23.3Z"/><path class="cls-24" d="m75,168.05v-3h3v2.4c.04.29-.16.56-.45.6-.05,0-.1,0-.15,0h-2.4Z"/><path class="cls-24" d="m75.12,214.55v-3h2.4c.29-.04.56.16.6.45,0,.05,0,.1,0,.15v2.4h-3Z"/><path class="cls-16" d="m53.22,205.75h-3.1c-1.2,0-1.1,0-1.2-1.2v-29.5c0-1.2,0-1.1,1.2-1.2h27.6v3.2c-.14-.13-.31-.2-.5-.2h-24.5q-.8,0-.8.8v24.2q0,.8.8.8h24.5c.2,0,.4,0,.5-.2v3.2h-24.5v.1Z"/><path class="cls-25" d="m77.72,177.05v-3.2h1.9c1.3,0,1.1,0,1.2,1.2v29.5c0,1.3,0,1.1-1.2,1.2h-1.8v-28.7h-.1Z"/><path class="cls-23" d="m44.22,170.45c-.82-.08-1.43-.78-1.4-1.6.05-.75.65-1.35,1.4-1.4.83,0,1.5.67,1.5,1.5s-.67,1.5-1.5,1.5Z"/><path class="cls-23" d="m86.92,168.95c.02.81-.63,1.48-1.44,1.5-.02,0-.04,0-.06,0h0c-.83,0-1.5-.67-1.5-1.5s.67-1.5,1.5-1.5,1.5.67,1.5,1.5Z"/><path class="cls-29" d="m42.82,210.85c-.03-.8.6-1.47,1.4-1.5,0,0,0,0,0,0h0c.82.02,1.48.68,1.5,1.5h0c0,.83-.67,1.5-1.5,1.5s-1.5-.67-1.5-1.5h.1Z"/><path class="cls-29" d="m86.92,210.75c.02.81-.63,1.48-1.44,1.5-.02,0-.04,0-.06,0h0c-.83,0-1.5-.67-1.5-1.5s.67-1.5,1.5-1.5c.81-.02,1.48.63,1.5,1.44,0,.02,0,.04,0,.06Z"/><path class="cls-32" d="m54.72,173.85h-1.4v-1.8c0-.6.3-.9.7-.9s.7.3.7.9v1.8Z"/><path class="cls-39" d="m80.82,188.95v-1.5h1.8c.6,0,.9.3.9.7s-.3.7-.9.7h-1.8v.1Z"/><path class="cls-39" d="m64,173.85h-1.4v-1.8c0-.6.3-.9.7-.9s.7.3.7.9v1.8Z"/><path class="cls-39" d="m67.12,173.85h-1.4v-1.8c0-.6.3-.9.7-.9s.7.3.7.9v1.8Z"/><path class="cls-39" d="m49,187.55v1.5h-1.8c-.6,0-.9-.3-.8-.7.04-.41.39-.72.8-.7h1.8v-.1Z"/><path class="cls-32" d="m80.82,201.45v-1.5h1.8c.6,0,.9.3.9.7s-.3.7-.9.7h-1.8v.1Z"/><path class="cls-39" d="m80.82,192.05v-1.5h1.8c.6,0,.8.3.8.7,0,.39-.32.71-.71.71-.03,0-.06,0-.09,0h-1.8v.1Z"/><path class="cls-32" d="m49,199.95v1.5h-1.8c-.6,0-.8-.3-.8-.7,0-.39.32-.71.71-.71.03,0,.06,0,.09,0h1.8v-.1Z"/><path class="cls-32" d="m49,178.15v1.5h-1.8c-.6,0-.9-.3-.9-.7s.3-.7.9-.7h1.8v-.1Z"/><path class="cls-32" d="m80.82,179.65v-1.5h1.8c.6,0,.8.3.8.7,0,.39-.32.71-.71.71-.03,0-.06,0-.09,0h-1.8v.1Z"/><path class="cls-39" d="m49,190.65v1.4h-1.8c-.6,0-.9-.3-.9-.7s.3-.7.9-.7h1.8Z"/><path class="cls-32" d="m53.22,205.75h1.4v1.8c0,.6-.3.9-.7.9s-.7-.3-.7-.9v-1.8Z"/><path class="cls-39" d="m62.62,205.75h1.38v1.8c0,.6-.3.8-.7.8-.39,0-.71-.32-.71-.71,0-.03,0-.06,0-.09l.02-1.8Z"/><path class="cls-39" d="m65.72,205.75h1.4v1.8c0,.6-.3.9-.7.9s-.7-.3-.7-.9v-1.8Z"/><path class="cls-32" d="m75,205.75h1.4v1.8c0,.6-.3.8-.7.8-.39,0-.71-.32-.71-.71,0-.03,0-.06,0-.09v-1.8Z"/><path class="cls-32" d="m76.42,173.85h-1.42v-1.8c0-.6.3-.9.7-.9s.7.3.7.9l.02,1.8Z"/><path class="cls-38" d="m49,184.45v1.4h-1.9c-.44.05-.84-.26-.9-.7,0-.4.3-.7.9-.7h1.9Z"/><path class="cls-38" d="m80.82,185.85v-1.4h1.8c.6,0,.8.3.8.7,0,.39-.32.71-.71.71-.03,0-.06,0-.09,0h-1.8Z"/><path class="cls-38" d="m68.82,205.75h1.4v1.8c0,.6-.3.8-.7.8-.39,0-.71-.32-.71-.71,0-.03,0-.06,0-.09v-1.8Z"/><path class="cls-38" d="m49,193.75v1.5h-1.8c-.6,0-.9-.3-.9-.7s.3-.7.9-.7h1.8v-.1Z"/><path class="cls-38" d="m80.82,195.25v-1.5h1.8c.6,0,.8.3.8.7,0,.39-.32.71-.71.71-.03,0-.06,0-.09,0h-1.8v.1Z"/><path class="cls-38" d="m60.92,173.85h-1.4v-1.8c0-.6.3-.9.7-.9s.7.3.7.9v1.8Z"/><path class="cls-38" d="m70.22,173.85h-1.4v-1.8c0-.6.3-.9.7-.9s.7.3.7.9v1.8Z"/><path class="cls-38" d="m59.42,205.75h1.4v1.8c0,.6-.3.8-.7.8-.39,0-.71-.32-.71-.71,0-.03,0-.06,0-.09v-1.8Z"/><path class="cls-31" d="m49,203.15v1.4h-1.8c-.6,0-.9-.3-.9-.7s.3-.7.9-.7h1.8Z"/><path class="cls-31" d="m80.82,204.55v-1.5h1.8c.6,0,.8.3.8.7,0,.39-.32.71-.71.71-.03,0-.06,0-.09,0h-1.8v.1Z"/><path class="cls-31" d="m80.82,176.55v-1.5h1.8c.6,0,.9.3.9.7s-.3.7-.9.7h-1.8v.1Z"/><path class="cls-38" d="m56.42,205.75h1.4v1.8c0,.6-.3.9-.7.9s-.7-.3-.7-.9v-1.8Z"/><path class="cls-38" d="m80.82,182.75v-1.4h1.8c.39-.07.75.19.82.58s-.19.75-.58.82c-.08.01-.16.01-.24,0h-1.8Z"/><path class="cls-38" d="m49,181.25v1.4h-1.8c-.6,0-.9-.3-.9-.7s.3-.7.9-.7h1.8Z"/><path class="cls-38" d="m49,196.85v1.5h-1.8c-.6,0-.8-.3-.8-.7,0-.39.32-.71.71-.71.03,0,.06,0,.09,0h1.8v-.1Z"/><path class="cls-38" d="m80.82,198.35v-1.5h1.8c.6,0,.9.3.9.7s-.3.7-.9.7h-1.8v.1Z"/><path class="cls-31" d="m50.12,205.75h1.4v1.8c0,.6-.3.8-.7.8-.39,0-.71-.32-.71-.71,0-.03,0-.06,0-.09v-1.8Z"/><path class="cls-31" d="m49,175.05v1.5h-1.9c-.39.07-.75-.19-.82-.58s.19-.75.58-.82c.08-.01.16-.01.24,0h1.9v-.1Z"/><path class="cls-31" d="m79.62,173.85h-1.5v-1.8c0-.6.3-.8.7-.8.39,0,.71.32.71.71,0,.03,0,.06,0,.09v1.8h.1Z"/><path class="cls-31" d="m78.12,205.75h1.5v1.8c0,.6-.3.9-.7.9s-.7-.3-.7-.9v-1.8h-.1Z"/><path class="cls-38" d="m73.32,173.85h-1.4v-1.8c0-.6.3-.9.7-.9s.7.3.7.9v1.8Z"/><path class="cls-38" d="m57.82,173.85h-1.4v-1.8c0-.6.3-.9.7-.9s.7.3.7.9v1.8Z"/><path class="cls-31" d="m51.52,173.85h-1.4v-1.8c0-.6.3-.9.7-.9s.7.3.7.9v1.8Z"/><path class="cls-38" d="m71.92,205.75h1.4v1.8c0,.6-.3.8-.7.8-.39,0-.71-.32-.71-.71,0-.03,0-.06,0-.09v-1.8Z"/><path class="cls-36" d="m74.82,202.75h-22q-.8,0-.8-.8v-24.2q0-.8.8-.8h22v25.8Zm-1-20.7h0v-2.3c.01-.38-.28-.69-.66-.7-.01,0-.03,0-.04,0h0c-.4.02-.73.31-.8.7h0v3.1c0,.8.1.6-.7.7-.4,0-.5,0-.5-.5v-3.3c.05-.39-.23-.74-.61-.79-.03,0-.06,0-.09,0-.4.02-.73.31-.8.7v4.4c0,.6.3.8.9.8h2.3c.44.06.84-.25.9-.69,0-.07,0-.14,0-.21v-2.1l.1.2Zm-8.5,0v2.2c-.02.43.28.81.7.9.4.1.7-.3.7-.8v-1.1q0-.3.3-.3h1.4c.43.03.82-.27.9-.7v-2.2c0-.7-.3-.9-.9-.9h-2.1c-.7,0-1,.2-1,1v2h0v-.1Zm-4.4,0v2.2c0,.4.2.8.6.8h2.48c.44.05.84-.26.9-.7,0-.45-.38-.81-.84-.8-.02,0-.04,0-.06,0h-1.4c-.2,0-.3,0-.3-.3v-2.5c0-.2,0-.3.3-.3h1.4c.41.03.77-.27.8-.67,0-.04,0-.08,0-.13,0-.5-.3-.7-.8-.7h-2.4c-.4,0-.8.2-.8.6v2.3h0l.12.2Zm-5.6,19.4h1.3c.2,0,.4,0,.5-.2s0-.4-.2-.5l-2.7-2.5c-.1-.2-.3-.2-.5-.1s-.2.2-.2.4v2.5c0,.24.17.45.4.5h1.4v-.1Z"/><path class="cls-6" d="m74.82,202.75v-25.8h2.5c.2,0,.4,0,.5.2v25.4c-.14.13-.31.2-.5.2h-2.5Z"/><path class="cls-30" d="m73.82,181.95v2.1c0,.7-.3.9-.9.9h-2.3c-.6,0-.9-.3-.9-.8v-4.3c0-.4.2-.8.6-.8h.1c.39,0,.71.32.71.71,0,.03,0,.06,0,.09v3.3c0,.4.1.5.5.5.8,0,.7,0,.7-.7v-3.1c-.01-.38.28-.69.66-.7.01,0,.03,0,.04,0h0c.38-.01.69.28.7.66,0,.01,0,.03,0,.04h0v2.3h0l.1-.2Z"/><path class="cls-30" d="m65.32,181.95v-2c0-.7.3-.9,1-1h2.2c.44-.06.84.25.9.69,0,.07,0,.14,0,.21v2c.03.43-.27.82-.7.9h-1.6q-.3,0-.3.3v1.1c.05.39-.23.74-.61.79-.03,0-.06,0-.09,0-.4,0-.7-.3-.7-.9v-2.2l-.1.1Zm2-.6c.3,0,.6.1.6-.4s-.2-.5-.6-.4-.6-.1-.6.4.2.5.6.4Z"/><path class="cls-30" d="m60.92,181.95v-2.1c0-.4.2-.8.6-.8h2.6c.39-.05.74.23.79.61,0,.03,0,.06,0,.09,0,.4-.3.7-.8.8-.47.05-.93.05-1.4,0-.4,0-.3,0-.3.3v2.5c0,.2,0,.3.3.3h1.4c.45-.04.85.29.9.74,0,.02,0,.04,0,.06,0,.5-.3.7-.9.7h-2.3c-.4,0-.8-.2-.8-.6v-2.4l-.1-.2Z"/><path class="cls-41" d="m55.32,201.35h-1.4c-.24,0-.45-.17-.5-.4h0v-2.5c0-.2,0-.4.2-.4.17-.03.35,0,.5.1l2.7,2.5c.2.1.2.3.2.5s-.3.2-.5.2h-1.2Z"/><path class="cls-32" d="m67.32,181.25c-.3,0-.6,0-.6-.4s.3-.4.6-.4.6,0,.6.4-.3.4-.6.4Z"/><path d="m47.12,152.75c-1.21-3.78.88-7.82,4.65-9.03.08-.03.16-.05.25-.07,2.32-.73,4.86-.2,6.7,1.4l-2.2,2.3c-.97-.89-2.36-1.16-3.6-.7-2.09.52-3.37,2.63-2.85,4.72.04.16.09.32.15.48.45,2.08,2.5,3.4,4.57,2.95.18-.04.35-.09.53-.15,1.28-.33,2.27-1.32,2.6-2.6l3.1.7c-.67,2.32-2.48,4.13-4.8,4.8-3.75,1.22-7.78-.82-9-4.57-.04-.11-.07-.22-.1-.33v.1Z"/><path d="m73.22,147.85c-.24,2.62-2.56,4.55-5.19,4.31-.04,0-.07,0-.11-.01l-2.1-.2-.4,4.4-3.2-.3,1.3-13.9,5.3.5c2.64.21,4.61,2.52,4.4,5.17,0,.01,0,.02,0,.03Zm-3.22-.3c.12-.96-.54-1.85-1.5-2l-2.1-.2-.3,3.6,2.1.2c.96.07,1.8-.64,1.9-1.6h-.1Z"/><path d="m74.72,153.05l4.2-8.5,2.9,1.4-4.1,8.2c-.5.9-.4,2,1.1,2.7,1.5.7,2.4.2,2.8-.8l4.1-8.2,2.9,1.4-4.2,8.5c-1.3,2.7-4.2,3.3-7,1.9-2.8-1.4-4-4-2.7-6.7v.1Z"/><path class="cls-33" d="m302.28,73.37c.53,0,1.07.02,1.6.02.91,0,1.65.74,1.66,1.65.01.83,0,1.67,0,2.5,0,7.06,0,14.12,0,21.19,0,.46-.02.93-.16,1.37-.17.53-.81,1-1.36,1-5.98,0-11.96,0-17.94,0-.03,0-.05,0-.08,0,0-1.63,0-3.25,0-4.88,1.25,0,2.49,0,3.74-.01.16,0,.34.04.34-.22.01-.61.05-1.24-.09-1.84-.39-1.59-.85-3.16-1.25-4.75-.11-.43-.23-.85-.38-1.26-.24-.65.21-.99.6-1.35.64-.59.91-1.33,1.07-2.18.32-1.78-1.18-3.92-2.87-4.46-.06-.09-.13-.14-.24-.09-.09-.02-.17-.04-.26-.06-.04-.06-.09-.07-.15-.04-.17-.02-.33-.05-.5-.07,0-2.16,0-4.32,0-6.48,3.07,0,6.13-.01,9.2-.02.19,0,.38-.01.57-.02,1.1.03,2.19.05,3.29,0,1.07.06,2.15.05,3.22,0Z"/><path class="cls-20" d="m286,96.22c0,1.63,0,3.25,0,4.88-.62,0-1.23.01-1.85.01-5.22,0-10.43-.03-15.65.02-1.37.01-2.08-.74-2.08-2.08.04-7.98.03-15.96,0-23.95,0-.96.77-1.72,1.68-1.7.53,0,1.07-.01,1.6-.02,1.07.03,2.15.05,3.22-.01,1.09.06,2.19.03,3.29.01.18,0,.35.02.53.02,3.08,0,6.16,0,9.24.01,0,2.16,0,4.32,0,6.48-.34.16-.73.08-1.09.22-1.52.59-2.53,1.62-2.89,3.24-.06.04-.12.08-.03.15-.12,1.34.02,2.57,1.22,3.46.38.28.53.7.37,1.22-.09.32-.22.63-.29.96-.21.9-.45,1.79-.69,2.68-.17.66-.38,1.31-.54,1.97-.16.65-.12,1.32-.14,1.99-.01.34.08.45.43.44,1.22-.02,2.44,0,3.65,0Z"/><path class="cls-28" d="m272.94,73.36c-1.07.07-2.15.04-3.22.01,0-2.9-.02-5.8.02-8.71.02-1.34.2-2.67.59-3.98.47-1.57,1.13-3.04,2.03-4.4,1.13-1.7,2.52-3.15,4.19-4.34,1.09-.78,2.24-1.48,3.5-1.91,1.25-.43,2.52-.87,3.87-.96.76-.05,1.51-.17,2.28-.15,1.9.03,3.73.41,5.5,1.07,1.78.67,3.37,1.63,4.83,2.85,1.25,1.05,2.28,2.28,3.16,3.65.62.97,1.11,2,1.53,3.07.23.59.39,1.21.59,1.8.19.54.22,1.14.29,1.72.37,3.42.09,6.86.18,10.28-1.07.04-2.15.05-3.22,0,0-2.45-.02-4.9.01-7.35.02-1.41-.16-2.79-.51-4.15-.49-1.91-1.37-3.63-2.67-5.11-1.58-1.81-3.5-3.16-5.81-3.9-1.64-.52-3.31-.69-5.04-.58-1.6.09-3.1.47-4.53,1.14-2.37,1.1-4.24,2.8-5.63,5.03-1.19,1.92-1.85,4.04-1.93,6.27-.11,2.89-.02,5.78-.02,8.67Z"/><path class="cls-12" d="m295.77,73.37c0-2.6.02-5.2,0-7.8-.02-1.38-.21-2.75-.76-4.03-.44-1.02-1.03-1.94-1.76-2.79-1.09-1.26-2.44-2.14-3.97-2.69-1.42-.51-2.9-.68-4.43-.49-.93.12-1.83.33-2.68.7-2.34,1.02-4.06,2.69-5.12,5.03-.5,1.1-.7,2.24-.76,3.43-.14,2.88-.02,5.77-.07,8.65-1.1.02-2.19.05-3.29-.01,0-2.89-.08-5.78.02-8.67.08-2.23.73-4.35,1.93-6.27,1.38-2.23,3.25-3.92,5.63-5.03,1.43-.66,2.93-1.04,4.53-1.14,1.73-.1,3.39.06,5.04.58,2.32.74,4.23,2.09,5.81,3.9,1.29,1.48,2.18,3.2,2.67,5.11.35,1.36.52,2.74.51,4.15-.03,2.45-.01,4.9-.01,7.35-1.1.06-2.19.04-3.29,0Z"/><path class="cls-22" d="m286,96.22c-1.22,0-2.44-.02-3.65,0-.35,0-.44-.1-.43-.44.02-.67-.02-1.34.14-1.99.16-.66.36-1.31.54-1.97.24-.89.47-1.78.69-2.68.08-.33.2-.64.29-.96.16-.52,0-.94-.37-1.22-1.2-.89-1.34-2.12-1.22-3.46.07-.04.07-.09.03-.15.36-1.62,1.37-2.65,2.89-3.24.36-.14.75-.06,1.09-.22.17.02.33.05.5.07.03.09.07.13.15.04.09.02.17.04.26.06.05.12.15.09.24.09,1.7.54,3.19,2.68,2.87,4.46-.15.85-.42,1.59-1.07,2.18-.39.36-.84.7-.6,1.35.15.41.27.84.38,1.26.41,1.59.87,3.16,1.25,4.75.14.59.1,1.22.09,1.84,0,.26-.18.22-.34.22-1.25,0-2.49,0-3.74.01Z"/><path class="cls-12" d="m287.14,80.14c-.09,0-.19.03-.24-.09.11-.05.18,0,.24.09Z"/><path class="cls-12" d="m286.65,80c-.08.1-.12.05-.15-.04.06-.03.11-.02.15.04Z"/><path class="cls-28" d="m282.01,83.35c.03.06.03.11-.03.15-.08-.07-.03-.11.03-.15Z"/><circle class="cls-2" cx="286.14" cy="77.49" r="41.87"/><path class="cls-33" d="m350.28,181.37c.53,0,1.07.02,1.6.02.91,0,1.65.74,1.66,1.65.01.83,0,1.67,0,2.5,0,7.06,0,14.12,0,21.19,0,.46-.02.93-.16,1.37-.17.53-.81,1-1.36,1-5.98,0-11.96,0-17.94,0-.03,0-.05,0-.08,0,0-1.63,0-3.25,0-4.88,1.25,0,2.49,0,3.74-.01.16,0,.34.04.34-.22.01-.61.05-1.24-.09-1.84-.39-1.59-.85-3.16-1.25-4.75-.11-.43-.23-.85-.38-1.26-.24-.65.21-.99.6-1.35.64-.59.91-1.33,1.07-2.18.32-1.78-1.18-3.92-2.87-4.46-.06-.09-.13-.14-.24-.09-.09-.02-.17-.04-.26-.06-.04-.06-.09-.07-.15-.04-.17-.02-.33-.05-.5-.07,0-2.16,0-4.32,0-6.48,3.07,0,6.13-.01,9.2-.02.19,0,.38-.01.57-.02,1.1.03,2.19.05,3.29,0,1.07.06,2.15.05,3.22,0Z"/><path class="cls-20" d="m334,204.22c0,1.63,0,3.25,0,4.88-.62,0-1.23.01-1.85.01-5.22,0-10.43-.03-15.65.02-1.37.01-2.08-.74-2.08-2.08.04-7.98.03-15.96,0-23.95,0-.96.77-1.72,1.68-1.7.53,0,1.07-.01,1.6-.02,1.07.03,2.15.05,3.22-.01,1.09.06,2.19.03,3.29.01.18,0,.35.02.53.02,3.08,0,6.16,0,9.24.01,0,2.16,0,4.32,0,6.48-.34.16-.73.08-1.09.22-1.52.59-2.53,1.62-2.89,3.24-.06.04-.12.08-.03.15-.12,1.34.02,2.57,1.22,3.46.38.28.53.7.37,1.22-.09.32-.22.63-.29.96-.21.9-.45,1.79-.69,2.68-.17.66-.38,1.31-.54,1.97-.16.65-.12,1.32-.14,1.99-.01.34.08.45.43.44,1.22-.02,2.44,0,3.65,0Z"/><path class="cls-28" d="m320.94,181.36c-1.07.07-2.15.04-3.22.01,0-2.9-.02-5.8.02-8.71.02-1.34.2-2.67.59-3.98.47-1.57,1.13-3.04,2.03-4.4,1.13-1.7,2.52-3.15,4.19-4.34,1.09-.78,2.24-1.48,3.5-1.91,1.25-.43,2.52-.87,3.87-.96.76-.05,1.51-.17,2.28-.15,1.9.03,3.73.41,5.5,1.07,1.78.67,3.37,1.63,4.83,2.85,1.25,1.05,2.28,2.28,3.16,3.65.62.97,1.11,2,1.53,3.07.23.59.39,1.21.59,1.8.19.54.22,1.14.29,1.72.37,3.42.09,6.86.18,10.28-1.07.04-2.15.05-3.22,0,0-2.45-.02-4.9.01-7.35.02-1.41-.16-2.79-.51-4.15-.49-1.91-1.37-3.63-2.67-5.11-1.58-1.81-3.5-3.16-5.81-3.9-1.64-.52-3.31-.69-5.04-.58-1.6.09-3.1.47-4.53,1.14-2.37,1.1-4.24,2.8-5.63,5.03-1.19,1.92-1.85,4.04-1.93,6.27-.11,2.89-.02,5.78-.02,8.67Z"/><path class="cls-12" d="m343.77,181.37c0-2.6.02-5.2,0-7.8-.02-1.38-.21-2.75-.76-4.03-.44-1.02-1.03-1.94-1.76-2.79-1.09-1.26-2.44-2.14-3.97-2.69-1.42-.51-2.9-.68-4.43-.49-.93.12-1.83.33-2.68.7-2.34,1.02-4.06,2.69-5.12,5.03-.5,1.1-.7,2.24-.76,3.43-.14,2.88-.02,5.77-.07,8.65-1.1.02-2.19.05-3.29-.01,0-2.89-.08-5.78.02-8.67.08-2.23.73-4.35,1.93-6.27,1.38-2.23,3.25-3.92,5.63-5.03,1.43-.66,2.93-1.04,4.53-1.14,1.73-.1,3.39.06,5.04.58,2.32.74,4.23,2.09,5.81,3.9,1.29,1.48,2.18,3.2,2.67,5.11.35,1.36.52,2.74.51,4.15-.03,2.45-.01,4.9-.01,7.35-1.1.06-2.19.04-3.29,0Z"/><path class="cls-22" d="m334,204.22c-1.22,0-2.44-.02-3.65,0-.35,0-.44-.1-.43-.44.02-.67-.02-1.34.14-1.99.16-.66.36-1.31.54-1.97.24-.89.47-1.78.69-2.68.08-.33.2-.64.29-.96.16-.52,0-.94-.37-1.22-1.2-.89-1.34-2.12-1.22-3.46.07-.04.07-.09.03-.15.36-1.62,1.37-2.65,2.89-3.24.36-.14.75-.06,1.09-.22.17.02.33.05.5.07.03.09.07.13.15.04.09.02.17.04.26.06.05.12.15.09.24.09,1.7.54,3.19,2.68,2.87,4.46-.15.85-.42,1.59-1.07,2.18-.39.36-.84.7-.6,1.35.15.41.27.84.38,1.26.41,1.59.87,3.16,1.25,4.75.14.59.1,1.22.09,1.84,0,.26-.18.22-.34.22-1.25,0-2.49,0-3.74.01Z"/><path class="cls-12" d="m335.14,188.14c-.09,0-.19.03-.24-.09.11-.05.18,0,.24.09Z"/><path class="cls-12" d="m334.65,188c-.08.1-.12.05-.15-.04.06-.03.11-.02.15.04Z"/><path class="cls-28" d="m330.01,191.35c.03.06.03.11-.03.15-.08-.07-.03-.11.03-.15Z"/><circle class="cls-2" cx="334.14" cy="185.49" r="41.87"/><path class="cls-33" d="m213.28,181.37c.53,0,1.07.02,1.6.02.91,0,1.65.74,1.66,1.65.01.83,0,1.67,0,2.5,0,7.06,0,14.12,0,21.19,0,.46-.02.93-.16,1.37-.17.53-.81,1-1.36,1-5.98,0-11.96,0-17.94,0-.03,0-.05,0-.08,0,0-1.63,0-3.25,0-4.88,1.25,0,2.49,0,3.74-.01.16,0,.34.04.34-.22.01-.61.05-1.24-.09-1.84-.39-1.59-.85-3.16-1.25-4.75-.11-.43-.23-.85-.38-1.26-.24-.65.21-.99.6-1.35.64-.59.91-1.33,1.07-2.18.32-1.78-1.18-3.92-2.87-4.46-.06-.09-.13-.14-.24-.09-.09-.02-.17-.04-.26-.06-.04-.06-.09-.07-.15-.04-.17-.02-.33-.05-.5-.07,0-2.16,0-4.32,0-6.48,3.07,0,6.13-.01,9.2-.02.19,0,.38-.01.57-.02,1.1.03,2.19.05,3.29,0,1.07.06,2.15.05,3.22,0Z"/><path class="cls-20" d="m197,204.22c0,1.63,0,3.25,0,4.88-.62,0-1.23.01-1.85.01-5.22,0-10.43-.03-15.65.02-1.37.01-2.08-.74-2.08-2.08.04-7.98.03-15.96,0-23.95,0-.96.77-1.72,1.68-1.7.53,0,1.07-.01,1.6-.02,1.07.03,2.15.05,3.22-.01,1.09.06,2.19.03,3.29.01.18,0,.35.02.53.02,3.08,0,6.16,0,9.24.01,0,2.16,0,4.32,0,6.48-.34.16-.73.08-1.09.22-1.52.59-2.53,1.62-2.89,3.24-.06.04-.12.08-.03.15-.12,1.34.02,2.57,1.22,3.46.38.28.53.7.37,1.22-.09.32-.22.63-.29.96-.21.9-.45,1.79-.69,2.68-.17.66-.38,1.31-.54,1.97-.16.65-.12,1.32-.14,1.99-.01.34.08.45.43.44,1.22-.02,2.44,0,3.65,0Z"/><path class="cls-28" d="m183.94,181.36c-1.07.07-2.15.04-3.22.01,0-2.9-.02-5.8.02-8.71.02-1.34.2-2.67.59-3.98.47-1.57,1.13-3.04,2.03-4.4,1.13-1.7,2.52-3.15,4.19-4.34,1.09-.78,2.24-1.48,3.5-1.91,1.25-.43,2.52-.87,3.87-.96.76-.05,1.51-.17,2.28-.15,1.9.03,3.73.41,5.5,1.07,1.78.67,3.37,1.63,4.83,2.85,1.25,1.05,2.28,2.28,3.16,3.65.62.97,1.11,2,1.53,3.07.23.59.39,1.21.59,1.8.19.54.22,1.14.29,1.72.37,3.42.09,6.86.18,10.28-1.07.04-2.15.05-3.22,0,0-2.45-.02-4.9.01-7.35.02-1.41-.16-2.79-.51-4.15-.49-1.91-1.37-3.63-2.67-5.11-1.58-1.81-3.5-3.16-5.81-3.9-1.64-.52-3.31-.69-5.04-.58-1.6.09-3.1.47-4.53,1.14-2.37,1.1-4.24,2.8-5.63,5.03-1.19,1.92-1.85,4.04-1.93,6.27-.11,2.89-.02,5.78-.02,8.67Z"/><path class="cls-12" d="m206.77,181.37c0-2.6.02-5.2,0-7.8-.02-1.38-.21-2.75-.76-4.03-.44-1.02-1.03-1.94-1.76-2.79-1.09-1.26-2.44-2.14-3.97-2.69-1.42-.51-2.9-.68-4.43-.49-.93.12-1.83.33-2.68.7-2.34,1.02-4.06,2.69-5.12,5.03-.5,1.1-.7,2.24-.76,3.43-.14,2.88-.02,5.77-.07,8.65-1.1.02-2.19.05-3.29-.01,0-2.89-.08-5.78.02-8.67.08-2.23.73-4.35,1.93-6.27,1.38-2.23,3.25-3.92,5.63-5.03,1.43-.66,2.93-1.04,4.53-1.14,1.73-.1,3.39.06,5.04.58,2.32.74,4.23,2.09,5.81,3.9,1.29,1.48,2.18,3.2,2.67,5.11.35,1.36.52,2.74.51,4.15-.03,2.45-.01,4.9-.01,7.35-1.1.06-2.19.04-3.29,0Z"/><path class="cls-22" d="m197,204.22c-1.22,0-2.44-.02-3.65,0-.35,0-.44-.1-.43-.44.02-.67-.02-1.34.14-1.99.16-.66.36-1.31.54-1.97.24-.89.47-1.78.69-2.68.08-.33.2-.64.29-.96.16-.52,0-.94-.37-1.22-1.2-.89-1.34-2.12-1.22-3.46.07-.04.07-.09.03-.15.36-1.62,1.37-2.65,2.89-3.24.36-.14.75-.06,1.09-.22.17.02.33.05.5.07.03.09.07.13.15.04.09.02.17.04.26.06.05.12.15.09.24.09,1.7.54,3.19,2.68,2.87,4.46-.15.85-.42,1.59-1.07,2.18-.39.36-.84.7-.6,1.35.15.41.27.84.38,1.26.41,1.59.87,3.16,1.25,4.75.14.59.1,1.22.09,1.84,0,.26-.18.22-.34.22-1.25,0-2.49,0-3.74.01Z"/><path class="cls-12" d="m198.14,188.14c-.09,0-.19.03-.24-.09.11-.05.18,0,.24.09Z"/><path class="cls-12" d="m197.65,188c-.08.1-.12.05-.15-.04.06-.03.11-.02.15.04Z"/><path class="cls-28" d="m193.01,191.35c.03.06.03.11-.03.15-.08-.07-.03-.11.03-.15Z"/><circle class="cls-2" cx="197.14" cy="185.49" r="41.87"/><path class="cls-33" d="m214.28,313.37c.53,0,1.07.02,1.6.02.91,0,1.65.74,1.66,1.65.01.83,0,1.67,0,2.5,0,7.06,0,14.12,0,21.19,0,.46-.02.93-.16,1.37-.17.53-.81,1-1.36,1-5.98,0-11.96,0-17.94,0-.03,0-.05,0-.08,0,0-1.63,0-3.25,0-4.88,1.25,0,2.49,0,3.74-.01.16,0,.34.04.34-.22.01-.61.05-1.24-.09-1.84-.39-1.59-.85-3.16-1.25-4.75-.11-.43-.23-.85-.38-1.26-.24-.65.21-.99.6-1.35.64-.59.91-1.33,1.07-2.18.32-1.78-1.18-3.92-2.87-4.46-.06-.09-.13-.14-.24-.09-.09-.02-.17-.04-.26-.06-.04-.06-.09-.07-.15-.04-.17-.02-.33-.05-.5-.07,0-2.16,0-4.32,0-6.48,3.07,0,6.13-.01,9.2-.02.19,0,.38-.01.57-.02,1.1.03,2.19.05,3.29,0,1.07.06,2.15.05,3.22,0Z"/><path class="cls-20" d="m198,336.22c0,1.63,0,3.25,0,4.88-.62,0-1.23.01-1.85.01-5.22,0-10.43-.03-15.65.02-1.37.01-2.08-.74-2.08-2.08.04-7.98.03-15.96,0-23.95,0-.96.77-1.72,1.68-1.7.53,0,1.07-.01,1.6-.02,1.07.03,2.15.05,3.22-.01,1.09.06,2.19.03,3.29.01.18,0,.35.02.53.02,3.08,0,6.16,0,9.24.01,0,2.16,0,4.32,0,6.48-.34.16-.73.08-1.09.22-1.52.59-2.53,1.62-2.89,3.24-.06.04-.12.08-.03.15-.12,1.34.02,2.57,1.22,3.46.38.28.53.7.37,1.22-.09.32-.22.63-.29.96-.21.9-.45,1.79-.69,2.68-.17.66-.38,1.31-.54,1.97-.16.65-.12,1.32-.14,1.99-.01.34.08.45.43.44,1.22-.02,2.44,0,3.65,0Z"/><path class="cls-28" d="m184.94,313.36c-1.07.07-2.15.04-3.22.01,0-2.9-.02-5.8.02-8.71.02-1.34.2-2.67.59-3.98.47-1.57,1.13-3.04,2.03-4.4,1.13-1.7,2.52-3.15,4.19-4.34,1.09-.78,2.24-1.48,3.5-1.91,1.25-.43,2.52-.87,3.87-.96.76-.05,1.51-.17,2.28-.15,1.9.03,3.73.41,5.5,1.07,1.78.67,3.37,1.63,4.83,2.85,1.25,1.05,2.28,2.28,3.16,3.65.62.97,1.11,2,1.53,3.07.23.59.39,1.21.59,1.8.19.54.22,1.14.29,1.72.37,3.42.09,6.86.18,10.28-1.07.04-2.15.05-3.22,0,0-2.45-.02-4.9.01-7.35.02-1.41-.16-2.79-.51-4.15-.49-1.91-1.37-3.63-2.67-5.11-1.58-1.81-3.5-3.16-5.81-3.9-1.64-.52-3.31-.69-5.04-.58-1.6.09-3.1.47-4.53,1.14-2.37,1.1-4.24,2.8-5.63,5.03-1.19,1.92-1.85,4.04-1.93,6.27-.11,2.89-.02,5.78-.02,8.67Z"/><path class="cls-12" d="m207.77,313.37c0-2.6.02-5.2,0-7.8-.02-1.38-.21-2.75-.76-4.03-.44-1.02-1.03-1.94-1.76-2.79-1.09-1.26-2.44-2.14-3.97-2.69-1.42-.51-2.9-.68-4.43-.49-.93.12-1.83.33-2.68.7-2.34,1.02-4.06,2.69-5.12,5.03-.5,1.1-.7,2.24-.76,3.43-.14,2.88-.02,5.77-.07,8.65-1.1.02-2.19.05-3.29-.01,0-2.89-.08-5.78.02-8.67.08-2.23.73-4.35,1.93-6.27,1.38-2.23,3.25-3.92,5.63-5.03,1.43-.66,2.93-1.04,4.53-1.14,1.73-.1,3.39.06,5.04.58,2.32.74,4.23,2.09,5.81,3.9,1.29,1.48,2.18,3.2,2.67,5.11.35,1.36.52,2.74.51,4.15-.03,2.45-.01,4.9-.01,7.35-1.1.06-2.19.04-3.29,0Z"/><path class="cls-22" d="m198,336.22c-1.22,0-2.44-.02-3.65,0-.35,0-.44-.1-.43-.44.02-.67-.02-1.34.14-1.99.16-.66.36-1.31.54-1.97.24-.89.47-1.78.69-2.68.08-.33.2-.64.29-.96.16-.52,0-.94-.37-1.22-1.2-.89-1.34-2.12-1.22-3.46.07-.04.07-.09.03-.15.36-1.62,1.37-2.65,2.89-3.24.36-.14.75-.06,1.09-.22.17.02.33.05.5.07.03.09.07.13.15.04.09.02.17.04.26.06.05.12.15.09.24.09,1.7.54,3.19,2.68,2.87,4.46-.15.85-.42,1.59-1.07,2.18-.39.36-.84.7-.6,1.35.15.41.27.84.38,1.26.41,1.59.87,3.16,1.25,4.75.14.59.1,1.22.09,1.84,0,.26-.18.22-.34.22-1.25,0-2.49,0-3.74.01Z"/><path class="cls-12" d="m199.14,320.14c-.09,0-.19.03-.24-.09.11-.05.18,0,.24.09Z"/><path class="cls-12" d="m198.65,320c-.08.1-.12.05-.15-.04.06-.03.11-.02.15.04Z"/><path class="cls-28" d="m194.01,323.35c.03.06.03.11-.03.15-.08-.07-.03-.11.03-.15Z"/><circle class="cls-2" cx="198.14" cy="317.49" r="41.87"/></svg>