<?xml version="1.0" encoding="UTF-8"?><svg id="Layer_1" xmlns="http://www.w3.org/2000/svg" viewBox="0 0 400 262"><defs><style>.cls-1{fill:#009245;}.cls-2{fill:#fff;}.cls-3{fill:#57575e;}.cls-4{fill:#d9d9ea;}.cls-5{fill:#727272;}.cls-6{fill:#eb917f;}.cls-7{fill:#48459c;}.cls-8{fill:#434348;}.cls-9{fill:#f3bd99;}.cls-10{stroke:#c000e2;}.cls-10,.cls-11{stroke-width:4px;}.cls-10,.cls-11,.cls-12{stroke-miterlimit:10;}.cls-10,.cls-11,.cls-12,.cls-13{fill:none;}.cls-14{fill:#626363;}.cls-15{fill:#3392f5;}.cls-16{fill:#f4bd99;}.cls-17{fill:#c9c9c9;}.cls-11{stroke:#00b51e;}.cls-18{fill:#93dbfe;}.cls-12{stroke:#231f20;stroke-width:2px;}.cls-19{fill:gray;}.cls-20{fill:#424248;}.cls-21{fill:#6f7070;}.cls-22{fill:#0aaffe;}.cls-23{fill:#97d6e5;}.cls-24{fill:#3392f6;}.cls-25{fill:#ff1d25;}.cls-26{fill:#636363;}.cls-27{fill:#9dd8e6;}.cls-28{fill:#fd6220;}.cls-29{fill:#db411d;}.cls-30{fill:#60acfd;}.cls-31{fill:#ccf2ff;isolation:isolate;opacity:.5;}.cls-32{fill:#231f20;}.cls-33{fill:#2dbafe;}.cls-34{fill:#067fa6;}</style></defs><path d="m344.52,67.79l-3.9.6-.3-1.9,3.8-.5c.5.01.91-.38.92-.88,0-.07,0-.15-.02-.22,0-.6-.6-.9-1.4-.8l-3.6.5-.3-1.9,3.8-.5c.5.01.91-.38.92-.88,0-.07,0-.15-.02-.22,0-.6-.6-.9-1.4-.8l-3.6.5-.3-1.9,6.4-.9.3,1.9h-.6c.6.36.97,1,1,1.7.15.66-.08,1.36-.6,1.8.65.33,1.07.98,1.1,1.7.23,1.3-.64,2.54-1.94,2.77-.12.02-.24.03-.36.03l.1-.1Z"/><path d="m341.32,72.57c-.07.46.04.92.3,1.3l-1.1,1.4c-.79-.78-1.13-1.91-.9-3,.15-1.88,1.79-3.28,3.67-3.13.08,0,.15.01.23.03,1.84.22,3.15,1.89,2.93,3.73,0,.06-.02.12-.03.17-.24,1.8-1.89,3.07-3.69,2.83-.07,0-.14-.02-.21-.03-.28-.02-.55-.09-.8-.2l.7-4.6c-.7.1-1,.7-1.1,1.4v.1Zm2.2,1.5c.8,0,1.1-.6,1.2-1.2.15-.63-.19-1.27-.8-1.5l-.4,2.8v-.1Z"/><line class="cls-13" x1="200.28" y1="115.48" x2="200.78" y2="148.26"/><line class="cls-12" x1="200.28" y1="115.48" x2="200.61" y2="137.5"/><polygon class="cls-32" points="193.1 135.42 200.78 148.26 208.06 135.2 193.1 135.42"/><line class="cls-13" x1="118.68" y1="111.22" x2="167.32" y2="150.52"/><line class="cls-12" x1="118.68" y1="111.22" x2="158.95" y2="143.76"/><polygon class="cls-32" points="152.55 148.2 167.32 150.53 161.95 136.57 152.55 148.2"/><line class="cls-13" x1="281.32" y1="111.22" x2="232.68" y2="150.52"/><line class="cls-12" x1="281.32" y1="111.22" x2="241.05" y2="143.76"/><polygon class="cls-32" points="238.05 136.57 232.68 150.52 247.45 148.2 238.05 136.57"/><circle class="cls-11" cx="200" cy="201.83" r="45"/><path d="m177.2,176.03c2.11,1.66,2.48,4.73.81,6.84-.13.16-.27.32-.41.46-1.87,2.31-5.26,2.67-7.57.8-.08-.06-.16-.13-.23-.2-2.29-2.06-2.48-5.59-.42-7.88,1.19-1.33,2.94-2,4.72-1.82l-.5,2.3c-1-.09-1.97.32-2.6,1.1-1.14,1.2-1.09,3.1.12,4.24.06.06.12.11.18.16,1.2,1.15,3.1,1.11,4.24-.09.09-.1.18-.2.26-.31.86-.79,1.1-2.05.6-3.1l-1.9,2.1-1.6-1.4,3.5-3.9.7.6.1.1Z"/><path d="m186.5,171.93c1.13,1.74.64,4.07-1.1,5.2-.71.48-1.6.59-2.4.3l1.9,3.2-1.9,1.1-5.3-9.1,1.9-1.1.4.6c.17-.83.73-1.54,1.5-1.9,1.85-.97,4.13-.25,5.1,1.6l-.1.1Zm-1.9,1.1c-.44-.87-1.5-1.21-2.36-.78-.05.02-.09.05-.14.08-.83.42-1.16,1.44-.74,2.27.04.08.09.16.14.23.44.87,1.5,1.21,2.36.78.05-.02.09-.05.14-.08.83-.42,1.16-1.44.74-2.27-.04-.08-.09-.16-.14-.23Z"/><path d="m194.8,168.73l1.1,4.5-2.2.6-1.1-4.1c-.08-.66-.68-1.14-1.34-1.06-.09.01-.17.03-.26.06-.73.15-1.21.86-1.06,1.59.01.07.03.14.06.21l1,4-2.2.6-2.6-10.2,2.2-.6.9,3.6c.36-.71,1.02-1.23,1.8-1.4,1.46-.42,2.99.42,3.42,1.89.04.13.07.27.08.41l.2-.1Z"/><path d="m196.5,169.33c0-2.21,1.79-4,4-4,2.21,0,4,1.79,4,4,0,2.21-1.79,4-4,4-.03,0-.07,0-.1,0-2.17-.02-3.92-1.79-3.9-3.96,0-.01,0-.03,0-.04Zm5.7,0c.08-.91-.6-1.72-1.51-1.79-.06,0-.12,0-.19,0-.96-.02-1.76.74-1.8,1.7-.08.91.6,1.72,1.51,1.79.06,0,.12,0,.19,0,.96.02,1.76-.74,1.8-1.7Z"/><path d="m213.3,170.93l-1.3,4.4-2.2-.6,1.2-4.1c.27-.63-.03-1.36-.66-1.63-.08-.03-.16-.06-.24-.07-.69-.26-1.46.08-1.72.76-.04.11-.07.22-.08.34l-1.1,3.9-2.2-.6,2.1-7.2,2.2.6-.2.7c.67-.47,1.53-.58,2.3-.3,1.5.4,2.4,1.8,1.8,3.8h.1Z"/><path d="m217,176.23c.45.28.98.39,1.5.3l1,1.8c-2.17.76-4.55-.39-5.31-2.56-.4-1.14-.28-2.39.31-3.44,1.06-1.82,3.4-2.44,5.22-1.38.09.06.19.11.28.18,1.78,1.1,2.33,3.43,1.23,5.2-.04.07-.09.13-.13.2-.17.25-.38.49-.6.7l-4.5-2.8c-.14.76.28,1.52,1,1.8Zm2.6-1.6c.26-.9-.25-1.85-1.15-2.11-.53-.16-1.11-.04-1.55.31l2.7,1.7v.1Z"/><path d="m223.2,181.03l5,.6c.71.13,1.45.02,2.1-.3.5-.37.6-1.07.23-1.57,0-.01-.02-.02-.03-.03-.42-.56-1.16-.76-1.8-.5l-.3-2.3c1.49-.35,3.05.19,4,1.4,1.22,1.43,1.05,3.59-.39,4.81-.04.03-.08.06-.11.09-1.05.73-2.36.99-3.6.7l-2.5-.3,2.1,2.8-1.8,1.4-4.4-5.7,1.4-1.1h.1Z"/><path class="cls-29" d="m188.6,182.79h23c2.24-.02,4.08,1.78,4.1,4.02,0,.03,0,.05,0,.08v49.1c.02,2.24-1.78,4.08-4.02,4.1-.03,0-.05,0-.08,0h-23c-2.24.02-4.08-1.78-4.1-4.02,0-.03,0-.05,0-.08v-49.1c-.02-2.24,1.78-4.08,4.02-4.1.03,0,.05,0,.08,0Z"/><path class="cls-28" d="m211.6,182.79h-23c-2.24-.02-4.08,1.78-4.1,4.02,0,.03,0,.05,0,.08v49.1l31.2-49.1c.02-2.24-1.78-4.08-4.02-4.1-.03,0-.05,0-.08,0Z"/><rect class="cls-17" x="187.1" y="190.03" width="25.9" height="38.8"/><path class="cls-2" d="m203.3,184.53c-.02.32-.28.58-.6.6h-5.3c-.32-.02-.58-.28-.6-.6h0c.02-.32.28-.58.6-.6h5.3c.32.02.58.28.6.6Z"/><path class="cls-2" d="m202.2,236.03h-.5c-.34-.02-.68-.09-1-.2-.4,0-.8-.2-1.2-.2-.48-.04-.95-.14-1.4-.3h-.2c-.2,0-.2-.2-.2-.4.06-.25.16-.49.3-.7.15-.38.31-.74.5-1.1.1-.2.3-.5.4-.7.2-.33.63-.44.96-.24.1.06.18.14.24.24.1.1.2.3.4.5.2.4.5.7.7,1.1l1.2,1.8v.2c0,.2,0,.3-.2.3v-.3Z"/><path class="cls-2" d="m193.8,232.33c0,.1-.2.3-.3.4l-.6.9c-.2.3-.5.7-.7,1l-.9,1.2c0,.08-.04.15-.1.2-.11.1-.29.1-.4,0-.2-.2-.3-.4-.5-.6s-.5-.6-.8-.9c-.19-.22-.36-.45-.5-.7-.22-.33-.14-.78.19-1,.06-.04.14-.08.21-.1.2,0,.4-.1.6-.1.44-.02.88-.08,1.3-.2.71-.05,1.41-.15,2.1-.3h.2c.2,0,.3.1.2.3v-.1Z"/><path class="cls-2" d="m206.2,231.73c.14-.01.28.02.4.1l1,.3c.4.1.8.3,1.2.4s.9.3,1.4.5h.2c.2,0,.2.2.1.4s-.3.4-.4.6c-.2.36-.43.69-.7,1-.2.2-.3.4-.5.6-.31.33-.83.35-1.16.04-.01-.01-.03-.03-.04-.04-.1-.2-.2-.3-.3-.5l-.6-1.2c-.3-.6-.6-1.3-.9-1.9v-.24c0-.2,0-.3.3-.3v.24Z"/><path class="cls-25" d="m202.4,201.53h-.5c-.37-.02-.74-.09-1.1-.2-.44-.05-.88-.15-1.3-.3-.51-.05-1.01-.15-1.5-.3h-.2c-.2,0-.2-.2-.2-.4s.2-.5.3-.7c.2-.4.3-.8.5-1.2.11-.25.25-.48.4-.7.25-.36.74-.45,1.1-.2.08.05.15.12.2.2.16.15.29.31.4.5.27.38.5.78.7,1.2.4.6.8,1.3,1.2,1.9v.2c0,.2,0,.3-.2.3l.2-.3Z"/><path class="cls-25" d="m203.3,192.43h.2c.2,0,.2.1.2.3s-.1.2-.2.3c-.5.6-.9,1.2-1.4,1.7-.4.52-.84,1.03-1.3,1.5-.23.22-.5.39-.8.5-.35.04-.7-.03-1-.2-.18-.12-.33-.29-.4-.5-.4-.6-.8-1.2-1.2-1.9-.14-.28-.31-.55-.5-.8h0c-.1-.2,0-.3.2-.3.84-.02,1.67-.08,2.5-.2.74-.02,1.47-.08,2.2-.2h1.6l-.1-.2Z"/><path d="m192.3,223.23v-1.7l3.1-3.3c.3-.3.5-.6.7-.8.11-.18.18-.39.2-.6.03-.22-.05-.44-.2-.6-.18-.13-.38-.2-.6-.2-.61,0-1.14.41-1.3,1l-2.1-1.2c.26-.65.71-1.21,1.3-1.6.6-.37,1.3-.55,2-.5.83,0,1.64.29,2.3.8.64.55,1.01,1.36,1,2.2.07.53-.08,1.07-.4,1.5-.32.53-.69,1.03-1.1,1.5l-1.3,1.3h2.9v2.3h-6.6l.1-.1Z"/><path d="m209,217.79v1c.08,1.24-.4,2.45-1.3,3.3-.9.89-2.13,1.36-3.4,1.3-1.34.03-2.63-.48-3.6-1.4-.92-.93-1.43-2.19-1.4-3.5,0-1.3.49-2.56,1.4-3.5.93-.92,2.19-1.43,3.5-1.4.85-.09,1.69.13,2.4.6.7.37,1.29.92,1.7,1.6l-2,1.2c-.22-.28-.49-.52-.8-.7-.37-.2-.78-.31-1.2-.3-1.41.03-2.53,1.2-2.5,2.6.01.63.26,1.24.7,1.7.52.54,1.25.83,2,.8.9.05,1.75-.42,2.2-1.2h-2.3v-2.1h4.6Z"/><polygon class="cls-31" points="187 227.83 187 189.83 212.8 189.83 187 227.83"/><circle class="cls-10" cx="202.11" cy="64.17" r="45"/><path d="m167.41,60.67c-2.32-.4-3.88-2.61-3.48-4.94.02-.12.05-.24.08-.36.3-1.45,1.32-2.66,2.7-3.2l.6,1.9c-.76.27-1.32.91-1.5,1.7-.34,1.29.43,2.61,1.72,2.94.09.02.19.04.28.06,1.24.37,2.55-.33,2.93-1.57.03-.11.06-.22.07-.33.23-.79,0-1.64-.6-2.2l1.3-1.4c1.04,1.05,1.49,2.55,1.2,4-.48,2.38-2.8,3.91-5.18,3.43-.04,0-.08-.02-.12-.03Z"/><path d="m170.81,52.17c-1.6-.82-2.23-2.79-1.4-4.39,0,0,0,0,0,0,.77-1.6,2.68-2.27,4.28-1.51,0,0,.01,0,.02,0,1.6.82,2.23,2.79,1.4,4.39,0,0,0,0,0,0-.77,1.6-2.68,2.27-4.28,1.51,0,0-.01,0-.02,0Zm2.1-4.2c-.68-.36-1.53-.1-1.89.58,0,0,0,.01,0,.02-.36.65-.12,1.46.53,1.82.06.03.11.06.17.08.68.36,1.53.1,1.89-.58,0,0,0-.01,0-.02.36-.65.12-1.46-.53-1.82-.06-.03-.11-.06-.17-.08Z"/><path d="m180,37.87l2.8,2.5-1.2,1.4-2.7-2.4c-.5-.4-.9-.5-1.3,0-.37.41-.33,1.05.08,1.41.04.03.07.06.12.09l2.6,2.3-1.2,1.4-2.7-2.4c-.5-.4-.9-.5-1.3,0-.37.41-.33,1.05.08,1.41.04.03.07.06.12.09l2.6,2.3-1.2,1.4-4.5-4.1,1.2-1.4.4.4c-.11-.63.11-1.28.6-1.7.43-.47,1.07-.7,1.7-.6-.12-.69.1-1.4.6-1.9.86-.94,2.31-1.01,3.25-.15.05.05.1.1.15.15l-.2-.2Z"/><path d="m185.11,31.79l3.3,5.2-1.6,1-.3-.5c-.08.68-.49,1.28-1.1,1.6-1.04.69-2.45.41-3.15-.63-.06-.09-.11-.17-.15-.27l-2-3.2,1.6-1,1.9,3c.27.52.92.71,1.43.44.02-.01.04-.02.07-.04.6-.4.8-.9.3-1.7l-1.8-2.8,1.6-1-.1-.1Z"/><path d="m193.51,31.07l1.3,3.5-1.7.6-1.2-3.3c-.11-.54-.64-.89-1.19-.77-.07.02-.15.04-.21.07-.63.24-.95.94-.71,1.57,0,0,0,.02.01.03l1.1,3.2-1.7.6-2.1-5.8,1.7-.6.2.5c.25-.62.76-1.09,1.4-1.3,1.15-.45,2.44.11,2.89,1.25.04.11.08.23.11.35l.1.1Z"/><path d="m194.11,26.87c-.11-.61.29-1.19.9-1.3.61-.11,1.19.29,1.3.9.11.61-.29,1.19-.9,1.3,0,0,0,0,0,0-.61.1-1.18-.3-1.3-.9Zm.5,1.6l1.8-.3,1.1,6-1.8.3-1.1-6Z"/><path d="m198.21,30.87c-.08-1.74,1.27-3.22,3.02-3.3.03,0,.06,0,.08,0,1.13-.03,2.2.54,2.8,1.5l-1.6,1c-.25-.43-.7-.7-1.2-.7-.7-.03-1.29.52-1.32,1.22,0,.09,0,.19.02.28-.02.76.58,1.38,1.34,1.4.02,0,.04,0,.06,0,.5,0,.95-.27,1.2-.7l1.6.9c-.53,1.01-1.56,1.65-2.7,1.7-1.71.11-3.18-1.19-3.29-2.89,0-.07,0-.14,0-.21v-.2Z"/><path d="m211.81,28.87l-1.1,6-1.8-.3v-.6c-.48.45-1.17.61-1.8.4-1.66-.39-2.69-2.04-2.3-3.7,0,0,0,0,0,0,.25-1.7,1.8-2.89,3.5-2.7.71.08,1.34.49,1.7,1.1v-.6c.1,0,1.9.3,1.9.3l-.1.1Zm-2.4,2.7c.21-.7-.18-1.43-.88-1.65-.1-.03-.21-.05-.32-.05-.75-.18-1.5.29-1.67,1.03-.01.05-.02.11-.03.17-.21.7.18,1.43.88,1.65.1.03.21.05.32.05.75.18,1.5-.29,1.67-1.03.01-.05.02-.11.03-.17Z"/><path d="m215.31,32.07l-.8,2c-.2.5.2.7,1,1l-.6,1.6c-2.3-.6-2.7-1.6-2.1-3.2l.8-2-.9-.4.6-1.6.9.4.4-1.1,1.9.2-.6,1.6,1.2.5-.6,1.6-1.2-.5v-.1Z"/><path d="m218.51,31.57l1.6.9-2.9,5.4-1.6-.9,2.9-5.4Zm.6-1.5c.28-.55.95-.78,1.5-.5s.78.95.5,1.5c-.28.55-.95.78-1.5.5,0,0,0,0,0,0-.49-.32-.7-.94-.5-1.5Z"/><path d="m219.81,35.67c1.08-1.41,3.09-1.68,4.5-.6,1.41,1.08,1.68,3.09.6,4.5-1.01,1.4-2.96,1.72-4.35.71-.05-.04-.1-.07-.15-.11-1.41-1.07-1.68-3.08-.61-4.48,0,0,0-.01.01-.02Zm3.7,2.8c.5-.61.41-1.5-.2-2,0,0,0,0,0,0-.58-.48-1.44-.4-1.91.18-.03.04-.06.08-.09.12-.5.61-.41,1.5.2,2,0,0,0,0,0,0,.58.48,1.44.4,1.91-.18.03-.04.06-.08.09-.12Z"/><path d="m230.21,44.57l-2.9,2.4-1.2-1.4,2.7-2.2c.46-.3.59-.92.29-1.38-.03-.04-.06-.08-.09-.12-.4-.5-1-.6-1.7,0l-2.6,2.1-1.2-1.4,4.7-3.9,1.2,1.4-.4.4c.68-.01,1.32.33,1.7.9.82.97.7,2.41-.27,3.23-.07.06-.15.12-.23.17v-.2Z"/><path d="m228.81,46.79l4,1.2c.57.25,1.23.25,1.8,0,.43-.21.62-.73.41-1.16,0-.01-.01-.03-.02-.04-.3-.48-.84-.75-1.4-.7v-1.9c1.29-.14,2.53.54,3.1,1.7.78,1.23.42,2.86-.82,3.64-.09.06-.19.11-.28.16-.95.45-2.05.45-3,0l-1.9-.6,1.3,2.5-1.7.9-2.7-5.2,1.3-.7-.09.2Z"/><path d="m236.61,60.27c-2.17.61-4.42-.65-5.03-2.82-.03-.09-.05-.18-.07-.28-.67-2.41.73-4.91,3.14-5.58.02,0,.04-.01.06-.02,2.35-.61,4.75.8,5.36,3.15.01.05.02.1.04.15.42,1.45.04,3.01-1,4.1l-1.3-1.4c.55-.63.73-1.5.5-2.3-.26-1.29-1.52-2.13-2.81-1.88-.1.02-.19.05-.29.08-1.32.28-2.17,1.59-1.88,2.91.02.1.05.2.08.29.13.94.86,1.67,1.8,1.8l-.5-2.2,1.7-.4,1,4.2-.7.2h-.1Z"/><path class="cls-19" d="m214.91,52.17c-8.5-.2-17.8-.2-26.3,0-14.8,1.9-22,20.9-11.6,31.8,2.2,3.3-1.6,9.5,2.3,11.8,3.3,1,5.2-3.4,7.4-5.1,9.2-1,20.3.5,29.8-.5,22.1-2.9,20.7-37.2-1.6-38.2v.2Z"/><path d="m186.11,79.97v-3.3l5.9-6.2c.47-.5.91-1.03,1.3-1.6.27-.34.41-.77.4-1.2.02-.41-.12-.8-.4-1.1-.33-.29-.76-.44-1.2-.4-1.14,0-2.13.79-2.4,1.9l-3.9-2.2c.52-1.25,1.38-2.33,2.5-3.1,1.11-.68,2.4-1.02,3.7-1,1.59.02,3.13.55,4.4,1.5,1.2,1.02,1.86,2.53,1.8,4.1.11,1.02-.14,2.04-.7,2.9-.59,1.01-1.3,1.95-2.1,2.8l-2.4,2.5h5.6v4.4h-12.5Z"/><path d="m217.91,69.79v1.8c.09,2.39-.81,4.71-2.5,6.4-1.72,1.63-4.03,2.5-6.4,2.4-2.57.05-5.05-.92-6.9-2.7-3.65-3.62-3.67-9.51-.05-13.15,1.76-1.77,4.15-2.76,6.65-2.75,1.61-.12,3.22.26,4.6,1.1,1.35.64,2.47,1.69,3.2,3l-3.9,2.2c-.39-.59-.95-1.04-1.61-1.3-.73-.32-1.51-.49-2.3-.5-2.64-.07-4.83,2.02-4.9,4.66,0,.08,0,.16,0,.24-.04,1.29.42,2.55,1.3,3.5.99,1.02,2.39,1.53,3.8,1.4,1.69.08,3.29-.81,4.1-2.3h-4.3v-3.9h9l.21-.1Z"/><path class="cls-16" d="m287.52,89.07c.5-.4.9-.9,1.4-1.3l6.8-6.8c1.6-1.66,4.24-1.7,5.9-.1.04.03.07.07.1.1.57.53.96,1.23,1.1,2,.15.62.15,1.28,0,1.9-.3.94-.82,1.79-1.5,2.5-2,1.9-3.9,3.9-5.8,5.8-.3.3-.3.4,0,.7,1.02,1.12,1.77,2.45,2.2,3.9h-13.2c-.2,0-.4,0-.4-.2-.09-1.24-.02-2.48.2-3.7.28-1.16.86-2.22,1.68-3.08l1.5-1.5.02-.22Z"/><path class="cls-9" d="m320.12,86.87c-1.48-.83-2.09-2.65-1.4-4.2.54-1.33,1.87-2.17,3.3-2.1h8.4c1.66,0,3.08,1.17,3.4,2.8-.2,0-.2.1-.2.2-.37.89-1.09,1.58-2,1.9-.58.2-1.19.3-1.8.3h-8.4c-1,.02-1.2.02-1.3,1.1Z"/><path class="cls-16" d="m320.12,93.79c-1.61-.93-2.19-2.97-1.3-4.6.49-.8,1.28-1.38,2.2-1.6.37-.02.74-.09,1.1-.2h8.8c.69.21,1.34.55,1.9,1,.48.5.83,1.12,1,1.8,0,0-.2.1-.2.2-.6,1.48-2.11,2.38-3.7,2.2h-8.6c-1-.02-1.2.2-1.2,1.2Z"/><path class="cls-16" d="m318.42,97.79c-.02-1.58,1.06-2.95,2.6-3.3.24.02.48-.02.7-.1,3.1,0,6.3.1,9.4,0,0,.2.2.2.3.2,1.21.37,2.13,1.37,2.4,2.6.2.7,0,.8-.6.8h-14.8v-.2Z"/><path class="cls-34" d="m297.72,97.79c-.37-1.47-1.13-2.82-2.2-3.9-.3-.3-.3-.4,0-.7,2-1.9,3.9-3.9,5.8-5.8.71-.69,1.22-1.55,1.5-2.5.63,1.51.27,3.26-.9,4.4l-3.8,3.8c-.3.3-.3.4,0,.7,1.02,1.12,1.77,2.45,2.2,3.9h-2.6v.1Z"/><path class="cls-6" d="m331.12,94.17c-3.1.2-6.3,0-9.4,0-.24-.02-.48.02-.7.1-.3-.2-.6-.2-.8-.5h0c0-1.1.2-1.3,1.2-1.3h8.58c1.7,0,3-.5,3.7-2.2,0,0,.1-.2.2-.2.33,1.75-.7,3.46-2.4,4h-.3l-.08.1Z"/><path class="cls-6" d="m330.92,87.37h-8.8c-.38-.03-.76.04-1.1.2-.2-.2-.6-.2-.8-.6h-.1c.1-1.1.2-1.3,1.3-1.3h8.4c.62.05,1.23-.06,1.8-.3.91-.32,1.63-1.01,2-1.9,0-.1,0-.2.2-.2.39,1.79-.72,3.56-2.5,4h-.4v.1Z"/><path class="cls-23" d="m320.12,59.97h-3.8c-.3,0-.5,0-.5-.4-.09-.63.35-1.21.98-1.3.11-.02.22-.02.32,0h6.88c.4,0,.5,0,.5.5.09.63-.35,1.21-.98,1.3-.11.02-.22.02-.32,0h-3.1l.02-.1Z"/><path class="cls-27" d="m323.12,54.79h3.4c.3,0,.4,0,.4.4q0,1.4-1.3,1.4h-5.9c-.4,0-.5,0-.5-.5,0-.87.4-1.3,1.2-1.3h2.7Z"/><path class="cls-27" d="m315.82,55.57c-.05-.39.22-.75.61-.8.06,0,.13,0,.19,0,.53,0,.83.3.9.9q0,.9-.9.9c-.9,0-.8,0-.8-.9v-.1Z"/><path class="cls-9" d="m320.12,86.87h.1c0,.1-.1,0-.1,0Z"/><path class="cls-1" d="m326.82,50.47h-35.82c-.44-.03-.89.04-1.3.2-1.43.5-2.36,1.88-2.3,3.4v35.1c.5-.4.9-.9,1.4-1.3l6.8-6.8c.53-.57,1.23-.96,2-1.1,2.2-.59,4.46.71,5.05,2.9.02.07.03.13.05.2.15.62.15,1.28,0,1.9.63,1.51.27,3.26-.9,4.4l-3.8,3.8c-.3.3-.3.4,0,.7,1.02,1.12,1.77,2.45,2.2,3.9h18.1c0-1.59,1.07-2.98,2.6-3.4-.3-.2-.6-.2-.8-.5h0c-1.66-1.03-2.17-3.2-1.15-4.86.46-.75,1.19-1.3,2.05-1.54-.2-.2-.6-.2-.8-.6h-.1c-1.47-.93-2.06-2.79-1.4-4.4.54-1.33,1.87-2.17,3.3-2.1h8.4v-26.5c.14-1.85-1.25-3.46-3.1-3.6-.17-.01-.33-.01-.5,0l.02.2Zm-11,5.1c-.05-.39.22-.75.61-.8.06,0,.13,0,.19,0q.9,0,.9.9t-.9.9c-.9,0-.8,0-.8-.9v-.1Zm7.4,4.4h-6.9c-.3,0-.5,0-.5-.4q0-1.3,1.3-1.3h6.88c.4,0,.5,0,.5.5q0,1.3-1.3,1.3l.02-.1Zm2.5-3.4h-5.9c-.4,0-.5,0-.5-.5q0-1.3,1.2-1.3h6.1c.3,0,.4,0,.4.4q-.02,1.4-1.3,1.4Z"/><path class="cls-4" d="m306.82,61.87h0v.6c-.12.95-.42,1.87-.9,2.7-.39.72-.89,1.36-1.5,1.9-.61.61-1.32,1.12-2.1,1.5-.67.29-1.38.49-2.1.6h-2.22c-1.02-.14-2.01-.48-2.9-1-.72-.42-1.36-.96-1.9-1.6-.55-.62-.99-1.33-1.3-2.1-.29-.67-.49-1.38-.6-2.1v-2.2c.1-.89.41-1.75.9-2.5.41-.7.92-1.34,1.5-1.9,1.68-1.61,3.99-2.38,6.3-2.1.88.03,1.73.27,2.5.7,1.72.87,3.07,2.32,3.8,4.1.27.64.44,1.31.5,2v1.4h.02Zm-6.5,6.2c.31-.02.61-.09.9-.2,3.23-1.12,5.15-4.44,4.5-7.8-.44-2.31-2.08-4.21-4.3-5-.35-.16-.72-.26-1.1-.3h-.2c-.57-.05-1.13-.05-1.7,0-1.08.03-2.12.37-3,1-2.32,1.38-3.58,4.03-3.2,6.7.2,1.9,1.22,3.62,2.8,4.7,1.25.96,2.82,1.43,4.4,1.3.3.02.61-.02.9-.1v-.3Z"/><path class="cls-3" d="m300.32,68.07c-.29.08-.6.12-.9.1-1.57.08-3.12-.38-4.4-1.3-1.58-1.08-2.6-2.8-2.8-4.7-.38-2.67.88-5.32,3.2-6.7.9-.58,1.93-.93,3-1h2c1.14.37,2.15,1.06,2.9,2,.36.46.66.97.9,1.5.4.88.6,1.83.6,2.8v1.5c-.08.77-.32,1.52-.7,2.2-.38.75-.89,1.42-1.5,2-.5.46-1.08.83-1.7,1.1-.21.02-.42.09-.6.2v.3Zm-6.3-6.7c0,2.76,2.24,5,5,5s5-2.24,5-5c.03-2.76-2.19-5.02-4.95-5.05-2.76-.03-5.02,2.19-5.05,4.95h0v.1Z"/><path class="cls-8" d="m300.32,68.07c.2-.1.4-.1.6-.2.62-.27,1.2-.64,1.7-1.1.59-.6,1.09-1.27,1.5-2,.34-.7.57-1.44.7-2.2.05-.5.05-1,0-1.5-.04-.96-.25-1.91-.6-2.8-.23-.54-.53-1.05-.9-1.5-.71-.98-1.73-1.68-2.9-2h-.1c.38.05.75.15,1.1.3,2.22.79,3.86,2.69,4.3,5,.67,3.36-1.25,6.7-4.5,7.8-.3,0-.6.2-.9.2Z"/><path class="cls-24" d="m294.12,61.37c0-2.76,2.24-5,5-5s5,2.24,5,5-2.24,5-5,5h0c-2.72,0-4.95-2.18-5-4.9h0v-.1Zm5-3.1h-2.2c-.3,0-.5,0-.6.2,0,.08-.04.15-.1.2-.77.84-1.13,1.97-1,3.1.01.99.49,1.92,1.3,2.5.09.05.2.08.3.1h4.6c.3,0,.5,0,.7-.3l.1-.1c.78-.91,1.11-2.12.9-3.3-.14-.83-.52-1.59-1.1-2.2-.14-.19-.36-.31-.6-.3h-2.3v.1Z"/><path class="cls-7" d="m299,58.27h2.3c.24,0,.46.11.6.3.62.59,1.01,1.37,1.1,2.22.22,1.18-.11,2.4-.9,3.3l-.1.1c-.18.2-.43.31-.7.3h-4.6c-.11.01-.22-.02-.3-.1-.72-.65-1.18-1.54-1.3-2.5-.13-1.13.23-2.26,1-3.1,0-.08.04-.15.1-.2.2-.2.4-.3.6-.2h2.2v-.12Zm2.2,3.1c.02-1.19-.93-2.18-2.12-2.2-.03,0-.05,0-.08,0-1.13-.03-2.07.87-2.1,2,0,.03,0,.07,0,.1-.02,1.19.93,2.18,2.12,2.2.03,0,.05,0,.08,0,1.13.03,2.07-.87,2.1-2,0-.03,0-.07,0-.1Z"/><path class="cls-20" d="m301.22,61.37c.03,1.13-.87,2.07-2,2.1-.03,0-.07,0-.1,0-1.19.02-2.18-.93-2.2-2.12,0-.03,0-.05,0-.08-.03-1.13.87-2.07,2-2.1.03,0,.07,0,.1,0,1.21.01,2.19.99,2.2,2.2Zm-2.2-1.2c-.64-.02-1.18.48-1.2,1.12,0,.03,0,.05,0,.08h0c0,.66.54,1.2,1.2,1.2s1.2-.54,1.2-1.2-.54-1.2-1.2-1.2Z"/><path class="cls-30" d="m299,62.57c-.66,0-1.2-.54-1.2-1.2s.54-1.2,1.2-1.2h0c.1,0,.1.2.2.3.1.6.1,1.2,0,1.8.02.1.02.2-.2.3Z"/><path class="cls-15" d="m299,62.57c.1,0,.1-.2.2-.3.1-.6.1-1.2,0-1.8,0-.1,0-.2-.2-.3.66,0,1.2.54,1.2,1.2s-.54,1.2-1.2,1.2Z"/><circle class="cls-10" cx="309.82" cy="64.17" r="45"/><path d="m279.22,65.37l.2,2.1-5.3.4,4,2.1v.2l-3.7,2.6,5.3-.4.2,2.1-9.1.7-.2-2.1,3.9-2.8-4.2-2.2-.2-2.1,9.1-.7v.1Z"/><path d="m278.62,60.97c.1-.44.03-.91-.2-1.3l1.2-1.3c.74.81,1,1.95.7,3-.25,1.83-1.93,3.11-3.76,2.86-.12-.02-.23-.04-.34-.06-1.78-.3-2.98-1.99-2.67-3.77.02-.11.04-.22.07-.33.34-1.75,2.02-2.89,3.77-2.55.08.01.15.03.23.05.25,0,.49.07.7.2l-1,4.5c.66-.09,1.16-.64,1.2-1.3h.1Zm-2.1-1.7c-.79.05-1.4.74-1.35,1.53.03.49.31.93.75,1.17l.6-2.7Z"/><path d="m275.72,47.79l8.2,3.9-.8,1.8-.6-.3c.32.67.28,1.46-.1,2.1-.82,1.56-2.76,2.17-4.32,1.34-.03-.01-.05-.03-.08-.04-1.67-.71-2.46-2.62-1.8-4.3.29-.69.88-1.2,1.6-1.4l-2.9-1.4.8-1.8v.1Zm4.4,4.3c-.77-.38-1.71-.07-2.1.7-.39.73-.11,1.63.61,2.02.06.03.12.06.19.08.77.38,1.71.07,2.1-.7.39-.74.1-1.66-.65-2.05-.05-.03-.1-.05-.15-.07v.02Z"/><path d="m277.82,46.27c-.52-.36-.66-1.07-.3-1.6.36-.52,1.07-.66,1.6-.3.52.36.66,1.07.3,1.6-.39.48-1.07.61-1.6.3Zm1.5.9l1.1-1.6,5.3,3.8-1.1,1.6-5.3-3.8Z"/><path d="m286.52,39.07l4.48,4.72-1.4,1.4-.4-.4c.02.72-.27,1.41-.8,1.9-1.5,1.18-3.67.92-4.84-.58-1-1.27-.98-3.07.04-4.32.5-.51,1.18-.8,1.9-.8l-.4-.4,1.4-1.4.02-.12Zm.9,3.7c-.49-.61-1.37-.71-1.98-.22-.08.06-.15.14-.22.22-.61.55-.66,1.48-.11,2.09.03.04.07.08.11.11.49.61,1.37.71,1.98.22.08-.06.15-.14.22-.22.6-.55.64-1.49.08-2.09-.03-.03-.06-.06-.08-.09v-.02Z"/><path d="m289.42,38.97l4.2-2.6,1,1.6-4.2,2.6-1-1.6Z"/><path d="m295.92,38.27l1.4-1.6c.54.64,1.41.88,2.2.6.9-.3,1-.8.9-1.1-.2-.5-.7-.6-2.2-.5-1.5.1-2.9,0-3.4-1.7-.49-1.46.3-3.04,1.76-3.53.08-.03.16-.05.24-.07,1.33-.53,2.85-.17,3.8.9l-1.3,1.5c-.42-.56-1.16-.76-1.8-.5-.6.2-.8.6-.7,1s.4.6,1.9.5,3.1-.1,3.7,1.7c.6,1.8-.4,3.1-2.3,3.7-1.45.64-3.14.28-4.2-.9Z"/><path d="m302.32,29.87c-.08-.64.36-1.22,1-1.3s1.22.36,1.3,1-.36,1.22-1,1.3c0,0,0,0,0,0-.62.1-1.2-.32-1.29-.94,0-.02,0-.04,0-.06Zm.5,1.7l1.9-.3,1.1,6.4-1.9.3-1.1-6.4Z"/><path d="m313,33.37v4h-2v-3.7c.07-.59-.36-1.13-.95-1.19-.05,0-.1,0-.15,0-.62-.05-1.16.42-1.21,1.04,0,.09,0,.17.01.26v3.5h-2v-6.48h2v.6c.47-.56,1.18-.85,1.9-.8,1.33-.01,2.41,1.06,2.42,2.38,0,.11,0,.21-.02.32v.08Z"/><path d="m321.92,32.79l-1.5,6c-.5,2.1-2.4,2.6-4.1,2.2-1.24-.2-2.25-1.1-2.6-2.3l1.8-.5c.1.5.4.9,1.2,1.2.67.28,1.43-.03,1.71-.7.04-.1.07-.2.09-.3v-.6c-.52.45-1.24.6-1.9.4-1.72-.43-2.76-2.18-2.33-3.9,0-.03.02-.07.03-.1.37-1.71,2.05-2.8,3.77-2.43.04,0,.09.02.13.03.72.14,1.32.62,1.6,1.3l.2-.6,1.8.5.1-.2Zm-2.6,2.6c.21-.77-.25-1.56-1.02-1.76-.06-.02-.12-.03-.18-.04-.78-.25-1.61.18-1.86.96-.02.05-.03.1-.04.14-.21.77.25,1.56,1.02,1.76.06.02.12.03.18.04.78.25,1.61-.18,1.86-.96.02-.05.03-.1.04-.16v.02Z"/><path d="m325.12,30.97l1.8.8-3.9,8.7-1.8-.8,3.9-8.7Z"/><path d="m327.72,41.37c.37.29.84.4,1.3.3l.8,1.6c-1.05.38-2.22.19-3.1-.5-1.65-.95-2.21-3.05-1.26-4.7.95-1.65,3.05-2.21,4.7-1.26,1.65.95,2.21,3.05,1.26,4.7-.03.05-.06.11-.1.16-.2.2-.3.4-.5.6l-3.8-2.6c-.2.7.2,1.2.8,1.6l-.1.1Zm2.3-1.3c.25-.61-.01-1.3-.6-1.6-.5-.4-1.2-.4-1.7,0l2.3,1.5v.1Z"/><path d="m334.42,44.67c1.4-1.17,3.48-.99,4.65.41.05.06.1.13.15.19.74.93.93,2.19.5,3.3l-1.8-.7c.19-.47.11-1-.2-1.4-.43-.63-1.29-.78-1.92-.35-.06.04-.12.09-.18.15-.66.47-.81,1.39-.34,2.05.01.02.02.03.04.05.29.47.87.68,1.4.5l.28,1.92c-1.19.16-2.38-.34-3.1-1.3-1.16-1.45-.93-3.57.52-4.74.03-.02.05-.04.08-.06l-.08-.02Z"/><path d="m344.62,55.17l-5.9,2.8-.8-1.8.6-.3c-.69-.2-1.25-.72-1.5-1.4-.68-1.68.13-3.6,1.8-4.3,1.55-.84,3.5-.27,4.34,1.28.02.04.04.08.06.12.38.64.42,1.43.1,2.1l.6-.3.8,1.8h-.1Zm-3.8-.4c.75-.39,1.05-1.32.65-2.08s-1.32-1.05-2.08-.65c-.74.38-1.04,1.28-.68,2.03.32.76,1.19,1.11,1.95.79.05-.02.1-.05.15-.07v-.02Z"/><path d="m344,81.97l-2.1-.7c.49-.65.35-1.57-.3-2.06-.15-.11-.32-.19-.5-.24l-2.8-1,.6-1.8,6.1,2.1-.6,1.8-1.1-.4c.64.58.88,1.48.6,2.3h.1Z"/><path d="m340,89.17l-5.6-3.3,1-1.7.5.3c-.24-.71-.13-1.49.3-2.1.98-1.49,2.98-1.94,4.5-1,1.58.77,2.24,2.68,1.47,4.27-.02.05-.05.09-.07.13-.3.7-.95,1.19-1.7,1.3l.5.3-1,1.7.1.1Zm-1.8-3.3c.67.45,1.59.27,2.04-.4.02-.03.04-.06.06-.1.42-.73.17-1.66-.56-2.08-.01,0-.03-.02-.04-.02-.67-.45-1.59-.27-2.04.4-.02.03-.04.06-.06.1-.42.73-.16,1.66.57,2.07.02,0,.03.02.05.03h-.02Z"/><circle class="cls-10" cx="90.18" cy="64.17" r="45"/><path d="m56.78,48.57c1.87.7,2.82,2.79,2.11,4.66,0,.01,0,.03-.01.04l-.6,1.5,3.1,1.2-.8,2.2-9.8-3.7,1.4-3.7c.69-1.91,2.79-2.89,4.7-2.2h-.1Zm-.78,2.22c-.6-.3-1.34-.06-1.64.55-.02.05-.05.1-.06.15l-.5,1.5,2.5.9.6-1.5c.26-.67-.08-1.42-.75-1.68-.02,0-.04-.01-.05-.02l-.1.1Z"/><path d="m64,42.07l3.7,2.7-1.3,1.8-3.5-2.5c-.64-.41-1.49-.24-1.9.4-.41.64-.24,1.49.4,1.9h0l3.3,2.4-1.3,1.8-8.5-6.2,1.3-1.8,3,2.2c-.17-.8.01-1.64.5-2.3.98-1.29,2.83-1.55,4.12-.56.03.02.05.04.08.06l.1.1Z"/><path d="m65.78,41.37c-1.39-1.71-1.14-4.23.58-5.63,1.71-1.39,4.23-1.14,5.63.58,1.39,1.71,1.14,4.23-.58,5.63,0,0-.02.01-.03.02-1.72,1.37-4.21,1.1-5.6-.6Zm4.4-3.6c-.6-.77-1.71-.91-2.48-.31,0,0-.01,0-.02.01-.74.54-.9,1.58-.35,2.32.05.06.1.12.15.18.6.77,1.71.91,2.48.31,0,0,.01,0,.02-.01.73-.55.88-1.59.33-2.32-.04-.05-.09-.11-.13-.16v-.02Z"/><path d="m79.58,31.97l1.8,4.2-2.1.9-1.7-3.9c-.18-.62-.82-.98-1.44-.81-.09.03-.17.06-.26.11-.8.3-1.1,1-.7,2l1.6,3.8-2.1.9-3-6.9,2.1-.9.3.6c.21-.8.81-1.44,1.6-1.7,1.43-.62,3.09.04,3.71,1.46.03.08.06.16.09.24h.1Z"/><path d="m85.78,33.67c.55-.01,1.04-.32,1.3-.8l1.9.8c-.98,2.02-3.42,2.86-5.44,1.88-2.02-.98-2.86-3.42-1.88-5.44.58-1.19,1.71-2.03,3.02-2.24,2.03-.33,3.94,1.05,4.26,3.08.02.11.03.21.04.32v.9l-5.3.8c.39.65,1.16.97,1.9.8l.2-.1Zm1-2.9c-.29-.66-.99-1.03-1.7-.9-.75.05-1.35.65-1.4,1.4l3.2-.5h-.1Z"/><path d="m91,29.47l5.7.6-.2,2.2-5.7-.6.2-2.1v-.1Z"/><path d="m106.08,34.97c-.6,1.98-2.69,3.11-4.67,2.51,0,0-.02,0-.03,0-.8-.25-1.46-.83-1.8-1.6l-.2.7-2.1-.8,3.6-9.8,2.1.8-1.3,3.5c.75-.4,1.65-.4,2.4,0,1.92.84,2.81,3.07,2,5v-.3Zm-2.1-.8c.41-.79.11-1.76-.68-2.17-.1-.05-.21-.1-.32-.13-.83-.39-1.81-.03-2.19.8-.05.1-.08.2-.11.3-.41.79-.11,1.76.68,2.17.1.05.21.1.32.13.82.4,1.81.05,2.2-.77.05-.11.09-.22.12-.33h-.02Z"/><path d="m107.18,35.57c1.26-1.73,3.69-2.12,5.42-.86.03.02.05.04.08.06,1.74,1.29,2.14,3.72.9,5.5-1.51,1.61-4.05,1.68-5.65.17-1.34-1.26-1.64-3.27-.75-4.87Zm4.6,3.4c.58-.74.45-1.81-.28-2.39,0,0-.01,0-.02-.01-.67-.57-1.67-.49-2.24.18-.06.07-.11.14-.16.22-.58.74-.45,1.81.28,2.39,0,0,.01,0,.02.01.67.57,1.67.49,2.24-.18.06-.07.11-.14.16-.22Z"/><path d="m124.78,43.37l-8.3,6.5-1.4-1.8.6-.4c-.86-.03-1.64-.48-2.1-1.2-1.17-1.72-.77-4.06.9-5.3,1.5-1.36,3.81-1.25,5.17.25.04.05.09.1.13.15.53.64.79,1.47.7,2.3l2.9-2.3,1.4,1.8Zm-6.7,2.4c.76-.48.99-1.48.51-2.23-.06-.1-.13-.19-.21-.27-.53-.76-1.57-.96-2.34-.43-.06.04-.11.08-.16.13-.76.48-.99,1.48-.51,2.23.06.1.13.19.21.27.52.77,1.56.97,2.33.45.06-.04.11-.08.17-.13v-.02Z"/><path d="m126.68,54.37l-7.7.5c-2.5.2-3.9-.7-4.6-2.7l1.9-.8c.19.85,1.03,1.39,1.88,1.2,0,0,.01,0,.02,0l5.4-5.5,1,2.3-3.6,3.3,4.8-.5.9,2.2h0Z"/><path d="m121.38,56.79l4.2,2.9c.54.51,1.26.79,2,.8.55-.03.97-.5.95-1.05,0-.08-.02-.17-.05-.25-.13-.7-.7-1.23-1.4-1.3l.8-2.2c1.48.36,2.59,1.59,2.8,3.1.41,1.78-.7,3.55-2.48,3.96-.07.02-.15.03-.22.04-1.27.12-2.53-.28-3.5-1.1l-2-1.4.6,3.5-2.3.4-1.1-7.1,1.7-.3Z"/><path class="cls-26" d="m95.58,48.37h6.1c1.79.11,3.24,1.51,3.4,3.3v41.4c.12,1.69-.9,3.24-2.5,3.8-.36.11-.73.17-1.1.2h-22.6c-2.03-.03-3.67-1.67-3.7-3.7v-4h1.82v4c-.06,1,.71,1.85,1.71,1.91.1,0,.2,0,.29,0h22.2c1.04.06,1.94-.73,2-1.77,0-.08,0-.15,0-.23v-41c.07-1.03-.7-1.92-1.74-2-.05,0-.11,0-.16,0h-4.6c-.02-.8-.7-1.3-1.12-1.9Z"/><path class="cls-5" d="m95.58,48.37c.4.6,1,1.1,1.1,1.8h-17.3c-1.7,0-2.4.7-2.4,2.4v36.7h-1.8v-36.9c-.11-1.6.81-3.09,2.3-3.7.4-.2.85-.31,1.3-.3h16.8Z"/><path class="cls-33" d="m77,89.37v-36.7c0-1.7.7-2.4,2.4-2.4h17.4v36c.06,1.66-1.24,3.04-2.9,3.1-.03,0-.07,0-.1,0h-16.8Zm13.1-33.5h3.6c1.05.05,1.94-.75,2-1.8.02-1.03-.8-1.89-1.84-1.9-.05,0-.11,0-.16,0h-7.2c-1.05-.05-1.94.75-2,1.8-.02,1.03.8,1.89,1.84,1.9.05,0,.11,0,.16,0h3.6Zm-4.22,22.92c.23-.04.43-.14.6-.3l9.2-9.2c.24-.19.36-.5.3-.8-.1-.3-.2-.6-.6-.7-.39-.11-.81,0-1.1.3l-9.1,9.1-.2.2c-.2.27-.2.63,0,.9.19.31.53.5.9.5Zm5.7-11.1c-.03-.38-.25-.71-.58-.9-.5-.2-.8,0-1.1.4l-5.5,5.5c-.5.5-.5,1.1,0,1.4s1,.4,1.4,0c1.9-1.8,3.7-3.7,5.6-5.5.19-.2.33-.44.4-.7h0l-.22-.2Z"/><path class="cls-22" d="m77.08,89.37h16.7c1.61.05,2.95-1.21,3-2.81,0-.1,0-.19,0-.29v-36h4.5c1-.06,1.85.71,1.91,1.71,0,.1,0,.2,0,.29v41c.06,1.04-.73,1.94-1.77,2-.08,0-.15,0-.23,0h-22.18c-1.06.04-1.95-.78-2-1.84,0-.02,0-.04,0-.06v-4h.08Zm13.1,3.1h-5.4c-.7,0-1.2.3-1.2.9,0,.55.44,1,.99,1.01.04,0,.07,0,.11,0h10.8c.7,0,1.2-.4,1.1-.9-.08-.58-.62-.98-1.2-.9h0s-5.38,0-5.38,0l.18-.1Z"/><path class="cls-21" d="m90.08,55.87h-3.6c-1.03.07-1.92-.7-2-1.74,0-.05,0-.11,0-.16-.01-.99.78-1.8,1.77-1.81.08,0,.16,0,.23.01h7.2c1.03-.07,1.92.7,2,1.74,0,.05,0,.11,0,.16-.02,1.02-.86,1.82-1.87,1.81-.04,0-.08,0-.13,0h-3.6Z"/><path class="cls-18" d="m85.88,78.79c-.37,0-.71-.19-.9-.5-.14-.28-.14-.62,0-.9l.2-.2,9.1-9.1c.29-.29.71-.41,1.1-.3.4.1.5.4.6.7.11.3-.02.64-.3.8l-9.2,9.2c-.15.18-.37.29-.6.3Z"/><path class="cls-14" d="m90.08,92.37h5.4c.7,0,1.2.3,1.2.9s-.4.9-1.1.9h-10.8c-.7,0-1.2-.4-1.1-1s.4-.9,1.2-.9h5.4l-.2.1Z"/><path d="m80.58,86.47v-4.8l8.6-9.1c.71-.7,1.34-1.47,1.9-2.3.36-.5.57-1.09.6-1.7,0-.59-.21-1.16-.6-1.6-.46-.42-1.08-.63-1.7-.6-1.5,0-2.7.9-3.5,2.7l-5.7-3.2c.75-1.81,2.04-3.35,3.7-4.4,3.66-2.23,8.33-1.95,11.7.7,1.76,1.48,2.72,3.7,2.6,6,.13,1.49-.26,2.97-1.1,4.2-.83,1.48-1.88,2.83-3.1,4l-3.5,3.7h8.1v6.4h-18Z"/></svg>