<?xml version="1.0" encoding="UTF-8"?><svg id="Layer_1" xmlns="http://www.w3.org/2000/svg" viewBox="0 0 400 400"><defs><style>.cls-1{fill:#fe6d3a;}.cls-2{stroke:#a5262d;}.cls-2,.cls-3,.cls-4,.cls-5{stroke-width:4px;}.cls-2,.cls-3,.cls-4,.cls-5,.cls-6{fill:none;stroke-miterlimit:10;}.cls-7{fill:#e1dde1;}.cls-8{fill:#f0ca6f;}.cls-9{fill:#fafdfc;}.cls-10{fill:#fff;}.cls-11{fill:#a7b4b9;}.cls-12{fill:#fcfdfd;}.cls-3{stroke:#0018c6;}.cls-13{fill:#e2bb64;}.cls-14{fill:#a5c2db;}.cls-15{fill:#fe901f;}.cls-16{fill:#f9fdfc;}.cls-17{fill:#222;}.cls-4{stroke:#c000e2;}.cls-18{fill:#bbc3c6;}.cls-19{fill:#7ac943;}.cls-20{fill:#cac3cb;}.cls-21{fill:#fedd46;}.cls-22{fill:#386079;}.cls-23{fill:#444b66;}.cls-24{fill:#efc319;}.cls-25{fill:#f2eff2;}.cls-5{stroke:#00b51e;}.cls-26{fill:#555a6e;}.cls-27{fill:#f8d77c;}.cls-28{fill:#463c4b;}.cls-29{fill:#feb024;}.cls-30{fill:#a5c3db;}.cls-31{fill:#d3e4ee;}.cls-32{fill:#424240;}.cls-33{fill:#2489c4;}.cls-6{stroke:#231f20;stroke-width:2px;}.cls-34{fill:#c6ecf9;}.cls-35{fill:#fbbd41;}.cls-36{fill:#3d435c;}.cls-37{fill:#01b6a0;}.cls-38{fill:#26b899;}.cls-39{fill:#faf8fa;}.cls-40{fill:#58d4fc;}.cls-41{fill:#d6e5ef;}.cls-42{fill:#fe6e3c;}.cls-43{fill:#ff931e;}.cls-44{fill:#0071bc;}.cls-45{fill:#2487c3;}.cls-46{fill:#212121;}.cls-47{fill:#2e5872;}.cls-48{fill:#efc31a;}.cls-49{fill:#b09146;}.cls-50{fill:#204958;}.cls-51{fill:#c6ecfa;}.cls-52{fill:#2387c3;}.cls-53{fill:#94a4a4;}.cls-54{fill:#e7d19a;isolation:isolate;opacity:.5;}.cls-55{fill:#2487c2;}.cls-56{fill:#f0f3f2;}.cls-57{fill:#3e657d;}.cls-58{fill:#454c67;}.cls-59{fill:#2387c2;}.cls-60{fill:#cbc4cc;}.cls-61{fill:#c6d8de;}.cls-62{fill:#69a6fe;}.cls-63{fill:#c4d8dd;}.cls-64{fill:#a4c2db;}.cls-65{fill:#cad9df;}.cls-66{fill:#231f20;}.cls-67{fill:#c7d9de;}.cls-68{fill:#c5d8de;}.cls-69{fill:#fbf9fa;}.cls-70{fill:#28b99a;}.cls-71{fill:#fccc07;}.cls-72{fill:#fe901e;}.cls-73{fill:#6e6b87;}</style></defs><polygon class="cls-62" points="109.68 334.39 97.78 334.39 99.38 329.09 108.78 329.09 109.68 334.39"/><circle class="cls-5" cx="111.68" cy="308.39" r="45"/><path d="m89.18,283.39c2.25,1.86,2.58,5.19.72,7.45-.1.12-.21.24-.32.35-2.13,2.48-5.86,2.77-8.35.65-.02-.02-.04-.03-.05-.05-2.4-2.17-2.59-5.87-.42-8.28,0,0,.01-.02.02-.02,1.29-1.49,3.25-2.21,5.2-1.9l-.5,2.5c-1.06-.16-2.13.26-2.8,1.1-1.22,1.24-1.21,3.25.04,4.47.08.08.17.16.26.23,1.4,1.3,3.3,1.2,4.8-.4.95-.83,1.19-2.19.6-3.3l-2,2.2-1.7-1.5,3.8-4.2.7.6v.1Z"/><path d="m99.38,279.29c1.13,1.9.52,4.35-1.38,5.49,0,0-.02,0-.02.01-.78.49-1.73.6-2.6.3l1.9,3.5-2.1,1.1-5.3-9.9,2.1-1.1.4.7c.22-.87.8-1.59,1.6-2,2.02-.95,4.42-.11,5.4,1.9Zm-2.1,1.1c-.41-.91-1.48-1.32-2.39-.91-.07.03-.14.07-.21.11-.92.45-1.31,1.56-.86,2.49.02.04.04.08.06.11.41.91,1.48,1.32,2.39.91.07-.03.14-.07.21-.11.92-.45,1.31-1.56.86-2.49-.02-.04-.04-.08-.06-.11h0Z"/><path d="m108.38,276.29l1,4.8-2.4.5-.9-4.5c-.05-.7-.66-1.22-1.36-1.17-.12,0-.23.03-.34.07-.75.08-1.29.75-1.21,1.5.01.14.05.27.11.4l.9,4.3-2.4.5-2.3-11,2.3-.5.8,3.9c.39-.77,1.14-1.3,2-1.4,1.62-.34,3.21.7,3.55,2.32.02.09.03.19.05.28h.2Z"/><path d="m110.18,277.09c.14-2.35,2.16-4.14,4.51-4,2.35.14,4.14,2.16,4,4.51s-2.16,4.14-4.51,4c-.03,0-.07,0-.1,0-2.31-.16-4.06-2.16-3.9-4.48,0,0,0-.01,0-.02Zm6.1.5c.1-1-.63-1.89-1.63-1.99-.02,0-.05,0-.07,0-.96-.13-1.85.54-1.98,1.5,0,.07-.01.13-.02.2-.1,1,.63,1.89,1.63,1.99.02,0,.05,0,.07,0,1.02.07,1.9-.68,2-1.7Z"/><path d="m127.88,279.99l-1.7,4.6-2.2-.9,1.6-4.3c.35-.63.12-1.43-.51-1.78-.09-.05-.19-.09-.29-.12-.76-.31-1.63.06-1.94.82-.02.06-.04.12-.06.18l-1.6,4.1-2.2-.9,2.8-7.5,2.2.9-.3.7c.77-.46,1.73-.46,2.5,0,1.5.6,2.4,2.1,1.6,4.2h.1Z"/><path d="m131.28,285.99c.45.36,1.03.5,1.6.4l.9,2c-2.4.59-4.82-.88-5.41-3.27-.3-1.21-.08-2.49.61-3.53,1.3-1.84,3.84-2.27,5.67-.97.08.05.15.11.23.17,1.78,1.31,2.17,3.81.86,5.59-.05.07-.11.14-.16.21-.18.28-.42.52-.7.7l-4.5-3.4c-.21.8.16,1.63.9,2v.1Zm2.9-1.5c.36-.72.1-1.6-.6-2-.63-.55-1.57-.55-2.2,0l2.8,2.1v-.1Z"/><path d="m138.98,298.29l1.9-3.2h-3.7l-1.4-2.6h6.6l3.2-5.4,1.4,2.5-1.7,3h3.4l1.4,2.6h-6.3l-3.3,5.7-1.4-2.5-.1-.1Z"/><path class="cls-44" d="m93.08,316.79h5.5l5.1,15.2h0c.11.35.43.6.8.6h.1c.4,0,.7-.4.8-.8l.8-15h25.6c.2,0,.5,0,.6-.3s.3-.4.3-.6v-24.6c0-.2,0-.5-.3-.6s-.4-.3-.6-.3h-38.7c-.5,0-.9.4-.9.9v24.6c0,.2,0,.5.3.6s.4.3.6.3h0Z"/><path class="cls-62" d="m103.88,327.09l-3.8-11.3v-1.9h0c.4.2.85.31,1.3.3l1.5,2.3c.17.23.42.37.7.4h.8l-.6,10.3.1-.1Z"/><path class="cls-43" d="m101.88,330.89v-1.8h-6.2c-.5,0-.9.4-.9.9v9.7c0,.2,0,.5.3.6s.4.3.6.3h16.7c.2,0,.5,0,.6-.3s.3-.4.3-.6v-9.7c0-.2,0-.5-.3-.6s-.4-.3-.6-.3h-5.3v1.8h.9v2.6h-5.9c-1.1,0-2-.9-2-2h0c.02-.32.28-.58.6-.6h1.2Z"/><path class="cls-62" d="m119.48,307.09h9.7c.2,0,.5,0,.6-.3s.3-.4.3-.6v-12.3c0-.2,0-.5-.3-.6s-.4-.3-.6-.3h-9.7c-.5,0-.9.4-.9.9v12.3c0,.2,0,.5.3.6s.4.3.6.3Zm.9-12.3h7.9v10.6h-7.9v-10.6Z"/><path class="cls-62" d="m129.18,307.99h-6.2c-.5,0-.9.4-.9.9v4.4c0,.2,0,.5.3.6s.4.3.6.3h6.2c.2,0,.5,0,.6-.3s.3-.4.3-.6v-4.4c0-.2,0-.5-.3-.6s-.4-.3-.6-.3Zm-.9,4.4h-4.4v-2.6h4.4v2.6Z"/><path class="cls-62" d="m95.68,300.99h6.2v1.8h-6.2v-1.8Z"/><path class="cls-62" d="m95.68,304.49h3.5v1.8h-3.5v-1.8Z"/><path class="cls-19" d="m96.18,336.49h2.6c.21.01.39.19.4.4v.9c-.01.21-.19.39-.4.4h-2.6c-.21-.01-.39-.19-.4-.4v-.9c.01-.21.19-.39.4-.4Z"/><path class="cls-19" d="m102.68,336.49h2.6c.21.01.39.19.4.4v.9c-.01.21-.19.39-.4.4h-2.6c-.21-.01-.39-.19-.4-.4v-.9c.01-.21.19-.39.4-.4Z"/><path class="cls-19" d="m109.18,336.49h2.6c.21.01.39.19.4.4v.9c-.01.21-.19.39-.4.4h-2.6c-.21-.01-.39-.19-.4-.4v-.9c.01-.21.19-.39.4-.4Z"/><path class="cls-62" d="m110.28,309.99c-.27.01-.54-.02-.8-.1-.61-.09-1.21-.22-1.8-.4-.7-.1-1.5-.3-2.2-.4-.9-.2-1.7-.3-2.6-.5-.14.01-.28-.02-.4-.1-.27-.1-.41-.39-.31-.66,0-.01,0-.02.01-.04.21-.38.38-.78.5-1.2.3-.7.6-1.3.9-2,.23-.45.5-.89.8-1.3.4-.63,1.24-.81,1.87-.41.13.08.24.19.33.31.22.25.42.52.6.8.4.7.9,1.3,1.3,2l2.1,3.3c.05.11.12.21.2.3.1.3,0,.5-.4.5l-.1-.1Z"/><path class="cls-62" d="m111.78,294.29h.3c.3,0,.4.2.3.4s-.2.3-.3.5c-.8,1-1.5,2-2.3,3s-1.5,1.8-2.2,2.6c-.38.41-.87.72-1.4.9-.63.12-1.28-.02-1.8-.4-.29-.28-.56-.58-.8-.9-.7-1.1-1.4-2.1-2.1-3.2-.3-.5-.6-1-.9-1.4h0c-.2-.4,0-.6.3-.6l4.3-.3c1.3,0,2.6-.2,3.8-.3.9-.02,1.8-.08,2.7-.2h0l.1-.1Z"/><line class="cls-10" x1="257.48" y1="138.23" x2="235.37" y2="162.44"/><line class="cls-6" x1="257.48" y1="138.23" x2="242.63" y2="154.49"/><polygon class="cls-66" points="238.58 147.83 235.37 162.44 249.63 157.92 238.58 147.83"/><line class="cls-10" x1="144.37" y1="138.23" x2="166.48" y2="162.44"/><line class="cls-6" x1="144.37" y1="138.23" x2="159.22" y2="154.49"/><polygon class="cls-66" points="152.22 157.92 166.48 162.44 163.27 147.83 152.22 157.92"/><line class="cls-10" x1="170.48" y1="246.73" x2="148.37" y2="270.94"/><line class="cls-6" x1="170.48" y1="246.73" x2="155.63" y2="262.99"/><polygon class="cls-66" points="151.58 256.33 148.37 270.94 162.63 266.42 151.58 256.33"/><line class="cls-10" x1="231.37" y1="246.73" x2="253.48" y2="270.94"/><line class="cls-6" x1="231.37" y1="246.73" x2="246.22" y2="262.99"/><polygon class="cls-66" points="239.22 266.42 253.48 270.94 250.27 256.33 239.22 266.42"/><line class="cls-10" x1="283.31" y1="203.82" x2="250.54" y2="204.32"/><line class="cls-6" x1="283.31" y1="203.82" x2="261.3" y2="204.16"/><polygon class="cls-66" points="263.37 196.64 250.54 204.32 263.6 211.6 263.37 196.64"/><line class="cls-10" x1="116.54" y1="203.82" x2="149.31" y2="204.32"/><line class="cls-6" x1="116.54" y1="203.82" x2="138.55" y2="204.16"/><polygon class="cls-66" points="136.25 211.6 149.31 204.32 136.48 196.64 136.25 211.6"/><circle class="cls-5" cx="286.83" cy="308.39" r="45"/><path d="m272.13,279.89c1.8,2.7.9,5.5-1.5,7.2-2.8,1.8-6.1,1.1-7.7-1.5-1.7-2.6-1-5.9,1.6-7.6,1.7-1.1,3.6-1.2,5.2-.5l-1.1,2.1c-.7-.3-1.8-.3-2.8.4-1.5,1-1.9,2.8-.9,4.3,1,1.5,2.7,1.9,4.5.8,1.2-.8,1.6-1.8,1.4-2.8l-2.4,1.5-1.1-1.8,4.4-2.9.5.8h-.1Z"/><path d="m276.63,278.19l.8,2.5c.2.6.7.5,1.7.1l.6,1.9c-2.7,1.2-3.8.6-4.4-1.4l-.8-2.5-1.1.4-.7-2.1,1.1-.4-.4-1.4,1.9-1.3.6,2,1.5-.5.7,2.1-1.5.5v.1Z"/><path d="m287.23,274.39l.7,7.5-2.2.2v-.7c-.5.6-1.2,1-2.2,1.1-2,.2-3.7-1.4-3.9-3.6s1.3-4.1,3.2-4.3c1,0,1.8.2,2.3.7v-.7l2.2-.2h-.1Zm-1.9,3.9c0-1.1-.9-1.8-1.9-1.7-1,0-1.7.9-1.6,2,0,1.1.9,1.8,1.9,1.7,1,0,1.7-.9,1.6-2Z"/><path d="m297.53,279.79c-.4,2.2-2.4,3.6-4.3,3.2-1-.2-1.6-.7-2-1.3v.7c-.1,0-2.3-.4-2.3-.4l2-10.3,2.2.4-.7,3.6c.6-.5,1.4-.7,2.4-.5,1.9.4,3.2,2.4,2.8,4.6h-.1Zm-2.2-.4c.2-1.1-.4-1.9-1.4-2.1-1-.2-1.9.3-2.1,1.5s.4,1.9,1.4,2.1,1.9-.3,2.1-1.5Z"/><path d="m308.23,286.19c-1.3,1.9-3.4,2-5.1.9-1.3-.9-2.2-2.2-1.9-3.9h2.4c-.2.8,0,1.4.7,1.9.8.5,1.5.3,1.8-.2.4-.5.3-1.2-.6-1.8l-.4-.3v-1.6l2.9-1-3.2-2.1,1.2-1.9,5.7,3.7-1.1,1.6-2.8.9c.8,1.1,1.1,2.5.3,3.7l.1.1Z"/><rect class="cls-7" x="262.83" y="304.39" width="51" height="35" rx="2.5" ry="2.5"/><path class="cls-21" d="m299.83,334.09c-1,0-1.9-.1-2.9-.3-3-.5-5.8-1.2-8.5-2.4-3.2-1.4-6-3.2-8.4-5.6-4-3.8-6.5-8.6-7.1-13.7h0c.6,5.1,3.1,9.9,7.1,13.7,2.4,2.3,5.2,4.1,8.4,5.6,2.7,1.2,5.6,1.9,8.5,2.4.9.1,1.9.2,2.9.3,4.3.1,8.6,0,12.9,0h0v-27.1c0-1.3-.6-1.8-2.2-1.8h-44.4c-1.1,0-2,.8-2,1.8v12.3c0,.2,0,.3.4.3,1.2.1,2,.8,2.1,1.8.1,1.4-.8,2-1.9,2.3-.5.1-.6.2-.6.6v12.1c0,.9,1,1.6,1.9,1.6h44.7c1,0,1.9-.7,1.9-1.6v-2.1h-12.9l.1-.2Zm-26.9-22c0-.8-.1-1.6-.1-2.4,0,.8,0,1.6.1,2.4Z"/><path class="cls-25" d="m267.73,293.39h34.3v2.2h-34.3v-2.2Z"/><path class="cls-7" d="m267.73,295.59h34.3v2.1h-34.3v-2.1Z"/><path class="cls-7" d="m302.03,295.59v-2.2h4.3c.4,0,.8.1,1.1.5.2.5,0,1.1.1,1.7h-5.5Z"/><path class="cls-20" d="m302.03,295.59h5.4v1.6c-.2.4-.7.6-1.1.5h-4.3v-2.1Z"/><path class="cls-25" d="m307.43,297.19v-1.6c0-.6.1-1.1-.1-1.7.7,0,1.5,0,2.2.1.8.2,1.3.9,1.2,1.7,0,.8-.7,1.4-1.5,1.4h-1.8v.1Z"/><path class="cls-60" d="m267.73,295.59v2.1c-1.4.3-2.4-.5-3.5-1.1-.3-.2-.6-.4-1-.6s-.4-.5,0-.7c.4-.3.8-.6,1.3-.8v.2c.9.6,1.9,1.2,3,1h0l.2-.1Z"/><path class="cls-7" d="m267.73,295.59c-1.2.2-2.1-.3-3-1v-.2c.9-.8,1.9-1.3,3.1-1.1v2.2l-.1.1Z"/><path d="m291.33,321.39c-.2,0-.4,0-.7-.1-.5,0-1-.2-1.5-.3-.6-.1-1.2-.2-1.8-.4-.7-.1-1.4-.3-2.1-.4h-.3c-.3,0-.3-.3-.2-.6s.3-.7.4-1c.2-.5.5-1.1.8-1.6.2-.4.4-.7.6-1,.4-.6,1.2-.7,1.8-.1.2.2.4.4.5.7.4.5.7,1.1,1,1.6.6.9,1.1,1.8,1.7,2.6,0,0,0,.2.1.3.1.2,0,.4-.3.4v-.1Z"/><path d="m292.53,308.69h.2c.2,0,.3.2.2.4,0,.1-.2.3-.3.4-.6.8-1.3,1.6-1.9,2.4-.6.7-1.2,1.4-1.8,2.1-.3.3-.7.6-1.1.7-.5.1-1,0-1.5-.3-.3-.2-.4-.5-.6-.7-.6-.9-1.1-1.7-1.7-2.6-.2-.4-.5-.8-.7-1.2h0c-.1-.3,0-.5.3-.5,1.2,0,2.3-.2,3.5-.3,1,0,2.1-.2,3.1-.2.7,0,1.5,0,2.2-.1h0l.1-.1Z"/><path d="m283.63,329.19c.9,0,1.7.3,2.3.8s.9,1.3.9,2.3-.3,1.8-1,2.4c-.7.6-1.5.9-2.5.9s-1.6-.2-2.2-.5c-.6-.4-1.1-.9-1.3-1.6l2.1-1.2c.2.7.7,1,1.4,1s.6,0,.8-.2.3-.4.3-.6,0-.5-.3-.7-.4-.2-.8-.2h-3.1l.4-5.6h5.6v2.3h-3.4v1h.6l.2-.1Z"/><path d="m297.43,329.89v1c0,1.4-.4,2.5-1.3,3.4-.9.9-2,1.3-3.4,1.3s-2.7-.5-3.7-1.4c-1-1-1.4-2.1-1.4-3.5s.5-2.6,1.4-3.5c1-1,2.1-1.4,3.5-1.4s1.7.2,2.4.6,1.3.9,1.7,1.6l-2.1,1.2c-.2-.3-.5-.5-.8-.7-.4-.2-.8-.3-1.2-.3-.8,0-1.4.2-1.9.7s-.7,1.1-.7,1.9.2,1.4.7,1.9,1.1.8,2,.8,1.8-.4,2.2-1.3h-2.3v-2.1h4.8l.1-.2Z"/><path class="cls-54" d="m279.53,305.29h32c1.3,0,1.8.5,1.8,1.8v27.1h-10.9c-.8,0-1.6-.1-2.4-.3-2.5-.5-4.9-1.2-7.2-2.4-2.7-1.4-5.1-3.2-7.1-5.6-3.4-3.8-5.5-8.6-6-13.7-.1-1.3,0-2.7-.1-4v-2.8h0l-.1-.1Z"/><circle class="cls-4" cx="200.93" cy="204.07" r="45"/><path d="m169.33,208.67l.6-1.1,1.6,1-.7,1.2c.45.53.79,1.14,1,1.8.71,2.3-.58,4.73-2.88,5.44-.07.02-.15.04-.22.06-2.34.68-4.8-.67-5.48-3.01,0-.03-.02-.06-.02-.09-.71-2.3.58-4.73,2.88-5.44.07-.02.15-.04.22-.06.99-.29,2.05-.22,3,.2Zm.5,2.9l-.9,1.5-1.6-1,1-1.7c-.46-.1-.94-.1-1.4,0-1.34.34-2.15,1.71-1.81,3.05,0,.02,0,.03.01.05.37,1.32,1.74,2.08,3.06,1.71.01,0,.03,0,.04-.01,1.34-.34,2.15-1.71,1.81-3.05,0-.02,0-.03-.01-.05-.02-.21-.09-.42-.2-.6v.1Z"/><path d="m164.43,200.97h6.1v1.7h-.6c.56.42.87,1.1.8,1.8.03,1.25-.96,2.28-2.21,2.31-.1,0-.2,0-.29-.01h-3.8v-1.8h3.5c.55.06,1.04-.34,1.1-.89,0-.07,0-.14,0-.21,0-.7-.4-1.1-1.3-1.1h-3.3v-1.8Z"/><path d="m165.93,192.47l6,1.3-.4,1.8h-.6c.42.5.54,1.19.3,1.8-.54,1.7-2.37,2.65-4.07,2.1-1.49-.48-2.43-1.95-2.23-3.5.13-.66.53-1.24,1.1-1.6h-.6c0-.1.4-1.9.4-1.9h.1Zm2.6,2.4c-.77-.21-1.57.25-1.78,1.02,0,.03-.01.05-.02.08-.18.75.27,1.5,1.02,1.68.03,0,.06.01.08.02.77.21,1.57-.25,1.78-1.02,0-.03.01-.05.02-.08.18-.75-.27-1.5-1.02-1.68-.03,0-.06-.01-.08-.02h0Z"/><path d="m171.33,185.97l3.4,1.6-.8,1.7-3.2-1.5c-.54-.28-1.2-.07-1.48.47,0,.01-.01.02-.02.03-.3.6-.1,1.2.7,1.6l3,1.4-.8,1.7-5.5-2.6.8-1.7.5.2c-.3-.6-.3-1.3,0-1.9.55-1.16,1.94-1.66,3.1-1.1.07.03.13.07.2.1h.1Z"/><path d="m173.13,182.47l1.8,1.3c.4.3.7,0,1.2-.7l1.4,1c-1.2,2.1-2.2,2.2-3.6,1.2l-1.8-1.3-.6.8-1.4-1,.6-.8-.9-.7.6-1.8,1.4,1,.7-1,1.4,1-.7,1h-.1Z"/><path d="m177.83,174.87l4.2,4.4-1.3,1.3-.4-.4c0,.69-.29,1.34-.8,1.8-.89.87-2.31.85-3.18-.04-.08-.08-.15-.17-.22-.26l-2.6-2.7,1.3-1.3,2.4,2.5c.26.41.81.54,1.23.27.11-.07.2-.16.27-.27.47-.37.55-1.05.18-1.52-.05-.07-.12-.13-.18-.18l-2.3-2.4,1.3-1.3.1.1Z"/><path d="m189.03,170.97l1.8,3.3-1.6.9-1.7-3.2c-.3-.5-.7-.8-1.3-.5s-.6.8-.3,1.5l1.6,3.1-1.6.9-1.7-3.2c-.3-.5-.7-.8-1.3-.5s-.6.8-.3,1.5l1.6,3.1-1.6.9-2.9-5.4,1.6-.9.3.5c0-.5.4-1,1.1-1.4.56-.3,1.24-.3,1.8,0,0-.6.4-1.1,1.2-1.5,1.06-.61,2.42-.24,3.03.82.07.12.13.25.17.38l.1-.3Z"/><path d="m190.63,169.87l4.5-1.1.4,1.7-4.5,1.1-.4-1.7Z"/><path d="m196.83,169.97c-.05-1.78,1.32-3.29,3.1-3.4,1.14-.08,2.23.51,2.8,1.5l-1.6,1c-.23-.44-.71-.68-1.2-.6-.7-.03-1.29.52-1.32,1.22,0,.09,0,.19.02.28-.02.76.58,1.38,1.34,1.4.02,0,.04,0,.06,0,.5,0,.95-.27,1.2-.7l1.6.9c-.53,1.01-1.56,1.65-2.7,1.7-1.79.08-3.32-1.3-3.4-3.09h0s.1-.21.1-.21Z"/><path d="m203.33,169.77c.27-1.77,1.93-2.99,3.7-2.72,1.77.27,2.99,1.93,2.72,3.7-.27,1.77-1.93,2.99-3.7,2.72,0,0-.01,0-.02,0-1.74-.23-2.95-1.83-2.72-3.56,0-.05.01-.09.02-.14Zm4.6.8c.13-.77-.35-1.51-1.1-1.7-.71-.16-1.42.29-1.57,1.01-.01.06-.02.13-.03.19-.13.77.35,1.51,1.1,1.7.71.16,1.42-.29,1.57-1.01.01-.06.02-.13.03-.19Z"/><path d="m219.73,174.47l-1.6,3.4-1.7-.8,1.5-3.3c.3-.6.2-1-.4-1.3-.6-.3-1,0-1.4.6l-1.5,3.1-1.7-.8,1.5-3.3c.3-.6.2-1-.4-1.3-.6-.3-1,0-1.4.6l-1.5,3.1-1.7-.8,2.6-5.5,1.7.8-.2.5c.56-.3,1.24-.3,1.8,0,.6.23,1.02.77,1.1,1.4.63-.3,1.37-.3,2,0,1.14.49,1.67,1.81,1.19,2.95-.05.12-.11.24-.19.35l.3.3Z"/><path d="m225.63,180.47c-1,1.32-2.88,1.58-4.2.58-.03-.02-.07-.05-.1-.08-.55-.44-.88-1.1-.9-1.8l-2,2.3-1.4-1.2,5.7-6.4,1.4,1.2-.4.4c1.54-.1,2.87,1.08,2.97,2.62.06.92-.34,1.81-1.07,2.38Zm-1.4-1.2c.55-.58.53-1.5-.05-2.05-.02-.02-.04-.03-.05-.05-.55-.53-1.43-.52-1.97.04-.05.05-.09.11-.13.16-.55.58-.53,1.5.05,2.05.02.02.04.03.05.05.55.53,1.43.52,1.97-.04.05-.05.09-.11.13-.16Z"/><path d="m232.33,184.47l-5,3.5-1.1-1.5.5-.3c-.68,0-1.29-.39-1.6-1-.74-1.02-.5-2.45.52-3.18.06-.04.12-.08.18-.12l3.1-2.2,1.1,1.5-2.8,2c-.48.27-.66.87-.39,1.36.03.05.06.1.09.14.36.52,1.07.65,1.59.29.04-.03.08-.06.11-.09l2.7-1.9,1.1,1.5h-.1Z"/><path d="m232.63,189.17l-2,.9c-.5.2-.3.7,0,1.4l-1.5.7c-1.3-2.1-.9-3,.7-3.7l2-.9-.4-.9,1.6-.8.4.9,1.1-.5,1.3,1.4-1.5.7.5,1.1-1.6.8-.5-1.1h-.1Z"/><path d="m237.03,197.27l-5.9,1.5-.5-1.8h.6c-.61-.38-1.04-1-1.2-1.7-.36-1.62.66-3.22,2.28-3.58.04,0,.08-.02.12-.02,1.63-.52,3.37.37,3.9,2,.16.68.06,1.4-.3,2h.6c0-.1.5,1.6.5,1.6h-.1Zm-3.4-1c.77-.14,1.28-.89,1.13-1.66,0-.05-.02-.1-.03-.14-.13-.72-.82-1.2-1.54-1.07-.09.02-.17.04-.26.07-.77.14-1.28.89-1.13,1.66,0,.05.02.1.03.14.13.72.82,1.2,1.54,1.07.09-.02.17-.04.26-.07h0Z"/><path d="m235.63,201.77h-2.2c-.5.2-.5.6-.4,1.4h-1.7c-.4-2.3.3-3,2-3.1h2.2v-1.1h1.8v.9h1.2l.7,1.7h-1.7v1.4h-1.8v-1.2h-.1Z"/><path d="m237.43,204.57v1.8l-6.2-.4v-1.8l6.2.4Zm1.7,0c.61.06,1.06.59,1,1.2s-.59,1.06-1.2,1h0c-.61-.06-1.06-.59-1-1.2s.59-1.06,1.2-1Z"/><path d="m234.23,207.37c1.71.37,2.8,2.05,2.43,3.77,0,.04-.02.09-.03.13-.36,1.75-2.06,2.88-3.81,2.52-.03,0-.06-.01-.09-.02-1.71-.37-2.8-2.05-2.43-3.77,0-.04.02-.09.03-.13.36-1.75,2.06-2.88,3.81-2.52.03,0,.06.01.09.02Zm-1,4.5c.77.16,1.53-.33,1.7-1.1.16-.77-.33-1.53-1.1-1.7-.77-.16-1.53.33-1.7,1.1-.18.75.27,1.5,1.02,1.68.03,0,.06.01.08.02Z"/><path d="m230.53,220.57l-3.4-1.6.8-1.7,3.2,1.5c.54.28,1.2.07,1.48-.47,0-.01.01-.02.02-.03.3-.6.1-1.2-.7-1.6l-3-1.4.8-1.7,5.5,2.6-.8,1.7-.5-.2c.3.6.3,1.3,0,1.9-.55,1.16-1.94,1.66-3.1,1.1-.07-.03-.13-.07-.2-.1h-.1Z"/><path class="cls-59" d="m180.73,199.77v-8.8c-.14-1.02.57-1.96,1.58-2.1.17-.02.34-.02.52,0h30.5c1.02-.14,1.96.57,2.1,1.58.02.17.02.34,0,.52v28.7c.09.96-.61,1.81-1.56,1.9-.11.01-.22.01-.34,0h-30.8c-.98.07-1.83-.67-1.9-1.65,0-.08,0-.17,0-.25v-19.9h-.1Zm19.2,18.2c.4,0,.6-.3.9-.6.87-.76,1.58-1.67,2.1-2.7.12-.33.45-.54.8-.5.94.03,1.88-.03,2.8-.2,2.4-.6,3.7-2.2,3.5-4.5-.08-1.24-.54-2.42-1.3-3.4-.4-.42-.4-1.08,0-1.5.83-1.17,1.28-2.57,1.3-4,.87-.51,1.17-1.63.66-2.5-.14-.24-.33-.44-.56-.6-.59-.45-1.41-.45-2,0-.24-.26-.55-.44-.9-.5-1.09-.38-2.25-.52-3.4-.4-.44.08-.86-.18-1-.6-.47-1.06-1.19-1.99-2.1-2.7-1.22-1.13-3.02-1.37-4.5-.6-.98.55-1.81,1.34-2.4,2.3-.3.5-.5,1.2-1,1.5s-1.2,0-1.8,0c-1.07-.06-2.13.26-3,.9-.43-.21-.92-.28-1.4-.2-.68.19-1.21.72-1.4,1.4-.18.79.18,1.61.9,2,.05,1.51.54,2.96,1.4,4.2.3.3.3.8,0,1.1-.66.96-1.1,2.05-1.3,3.2-.3,1.51.28,3.06,1.5,4,1.22.86,2.71,1.25,4.2,1.1.8,0,1.4.1,1.6,1,0,.2.2.4.4.6.57.95,1.4,1.72,2.4,2.2,0,.76.42,1.46,1.1,1.8.93.42,2.02,0,2.44-.92.11-.25.17-.51.16-.78l-.1-.1Z"/><path class="cls-26" d="m180.73,199.77v19.9c-.09.96.61,1.81,1.56,1.9.11.01.22.01.34,0h30.8c.98.07,1.83-.67,1.9-1.65,0-.08,0-.17,0-.25v-19.9h2.4c1.95.42,3.28,2.22,3.1,4.2v23.1h-45.6v-24c.15-1.78,1.53-3.2,3.3-3.4h2.1l.1.1Z"/><path class="cls-41" d="m175.33,227.07h45.7c.05.78-.05,1.56-.3,2.3-.46,1.21-1.53,2.08-2.8,2.3h-39c-1.92-.02-3.48-1.58-3.5-3.5v-1l-.1-.1Z"/><path class="cls-28" d="m220.93,227.07v-23.1c0-2.2-1-3.7-3.1-4.2h3.2c1.87.05,3.4,1.53,3.5,3.4v23.9h-3.6Z"/><path class="cls-41" d="m202.63,235.27h.1c-.85.61-1.25,1.68-1,2.7h-12.3c-.4,0-.5,0-.5-.5-.17-1.09.57-2.12,1.66-2.29.18-.03.36-.03.54-.01h2.7c.4,0,.6,0,.6-.5v-1.3h4.1q1.3,0,1.3,1.3c0,.5.2.6.6.6h2.2Z"/><path class="cls-64" d="m202.63,235.27h-2.2c-.4,0-.6,0-.6-.6q0-1.3-1.3-1.3h-4.1v-1.8h8.2v3.7Z"/><path class="cls-30" d="m220.93,227.17h3.6c.13,1.08-.12,2.18-.7,3.1-.61.89-1.62,1.42-2.7,1.4h-3.2c1.27-.22,2.34-1.09,2.8-2.3.25-.71.35-1.45.3-2.2h-.1Z"/><path class="cls-14" d="m201.73,238.07c-.25-1.02.15-2.09,1-2.7h2.6c1.4,0,2,1.2,1.8,2.5,0,.3-.3.2-.5.2h-4.9Z"/><path class="cls-40" d="m210.03,200.47c-.02,1.43-.47,2.83-1.3,4-.4.42-.4,1.08,0,1.5.74.99,1.19,2.17,1.3,3.4.2,2.3-1.1,3.9-3.5,4.5-.92.22-1.86.28-2.8.2-.4,0-.7.1-.8.5-.47,1.06-1.19,1.99-2.1,2.7-.3.2-.5.5-.9.6-.05-.31-.16-.62-.3-.9,1.07-.66,1.91-1.64,2.4-2.8.1-.3,0-.3-.2-.3-1.13-.19-2.23-.49-3.3-.9-.29-.1-.61-.1-.9,0-1.03.4-2.11.71-3.2.9-.5,0-.4.2-.3.6.59,1.01,1.33,1.92,2.2,2.7l-.2.8c-1-.48-1.83-1.25-2.4-2.2-.17-.18-.3-.38-.4-.6-.2-.8-.8-1-1.6-1-1.48.1-2.96-.28-4.2-1.1-1.22-.94-1.8-2.49-1.5-4,.16-1.16.61-2.26,1.3-3.2.3-.3.3-.8,0-1.1-.86-1.24-1.35-2.69-1.4-4.2.29.11.59.18.9.2.07,1.38.56,2.7,1.4,3.8.87-1.09,1.88-2.06,3-2.9.11-.11.17-.25.2-.4.17-1.12.44-2.22.8-3.3.2-.5,0-.6-.4-.6-1.16,0-2.31.2-3.4.6l-.6-.6c.89-.58,1.93-.9,3-.9.6,0,1.4.2,1.8,0s.6-1,1-1.5c.59-.96,1.42-1.75,2.4-2.3,1.48-.77,3.28-.53,4.5.6.87.76,1.58,1.67,2.1,2.7.14.42.56.68,1,.6,1.15-.07,2.3.06,3.4.4.34.09.65.26.9.5-.2.2-.3.5-.6.6-1.06-.39-2.17-.6-3.3-.6-.5,0-.6.2-.4.6.33.91.56,1.85.7,2.8,0,.6.5,1,.9,1.4.2.2.5.4.7.6.49.47.96.98,1.4,1.5,0,.1.2.4.4,0,.72-1.04,1.17-2.24,1.3-3.5.31-.02.61-.09.9-.2l.1-.2Zm-17.9,4.9c0,.7.1,1.6.1,2.4.03.49.29.94.7,1.2,1.48,1.09,3.1,2,4.8,2.7.22.1.48.1.7,0,1.72-.78,3.36-1.71,4.9-2.8.29-.17.48-.47.5-.8.2-1.93.2-3.87,0-5.8-.03-.28-.17-.53-.4-.7-1.61-1.12-3.31-2.09-5.1-2.9h-.6c-1.75.77-3.42,1.71-5,2.8-.24.15-.39.41-.4.7-.12,1.03-.19,2.06-.2,3.1v.1Zm6-12.5c-.27-.02-.54.02-.8.1-1.48.59-2.66,1.74-3.3,3.2-.2.3,0,.3.3.3,1.12.21,2.23.51,3.3.9.29.1.61.1.9,0,1.07-.39,2.18-.69,3.3-.9.3,0,.4-.1.2-.4-.27-.57-.61-1.1-1-1.6-.7-.93-1.75-1.54-2.9-1.7h0v.1Zm-6.5,20.3h.3q.7,0,.5-.7c-.28-.89-.51-1.79-.7-2.7,0-.3,0-.7-.3-.9-.99-.74-1.86-1.61-2.6-2.6-.2-.3-.3-.2-.5,0-.49.72-.83,1.54-1,2.4-.41,1.16-.09,2.45.8,3.3,1.01.84,2.29,1.26,3.6,1.2h-.1Zm12.7,0c.84.02,1.69-.08,2.5-.3,1.7-.46,2.73-2.19,2.3-3.9-.2-.93-.57-1.81-1.1-2.6-.2-.4-.3-.4-.6,0-.63.83-1.37,1.57-2.2,2.2-.42.31-.68.78-.7,1.3-.06.83-.26,1.64-.6,2.4q-.3,1,.4,1h0v-.1Zm-12.9-5.6c-.2-1.59-.2-3.21,0-4.8-.8.6-1.5,1.3-2.1,2.1-.17.13-.2.37-.07.53.02.02.04.05.07.07h0c.62.77,1.33,1.48,2.1,2.1h0Zm8-9.4c1.47.68,2.87,1.48,4.2,2.4-.17-.99-.44-1.96-.8-2.9.02-.2-.13-.38-.34-.4-.02,0-.04,0-.06,0-1.02.17-2.03.44-3,.8h0v.1Zm-2.6,14.1c-1.45-.7-2.86-1.5-4.2-2.4.16.99.43,1.97.8,2.9-.02.15.09.28.24.3.02,0,.04,0,.06,0,1.02-.17,2.03-.44,3-.8h.1,0Zm-4.2-11.6c1.34-.93,2.74-1.76,4.2-2.5-1-.3-2-.6-3-.8-.3,0-.3.1-.4.3-.37.93-.64,1.91-.8,2.9h0v.1Zm12.2,2.2c.2,1.59.2,3.21,0,4.8.8-.6,1.5-1.3,2.1-2.1.2-.2.1-.5,0-.7-.6-.76-1.31-1.44-2.1-2Zm-5.4,9.4c.98.35,1.98.61,3,.8.2,0,.3,0,.3-.2.41-.96.67-1.97.8-3-1.33.92-2.73,1.72-4.2,2.4h.1Z"/><path class="cls-31" d="m207.53,197.87c.3-.1.4-.4.6-.6.62-.36,1.38-.36,2,0,.84.56,1.06,1.7.5,2.54-.15.23-.36.42-.6.56-.29.11-.59.18-.9.2-1.02,0-1.83-.84-1.82-1.86,0-.22.04-.44.12-.64v-.3l.1.1Z"/><path class="cls-31" d="m196.23,217.87l.2-.8c1.3-1.3,2.1-1.3,3.3,0,.05.31.16.62.3.9,0,1.02-.83,1.85-1.85,1.85-1.02,0-1.85-.83-1.85-1.85h0s-.1-.1-.1-.1Z"/><path class="cls-31" d="m187.03,200.67c-.31-.02-.61-.09-.9-.2-.89-.5-1.2-1.62-.7-2.51.26-.46.69-.78,1.2-.89.48-.09.97-.02,1.4.2l.6.6c.5,1.7,0,2.6-1.6,2.8Z"/><path class="cls-55" d="m192.13,205.37c-.03-1.04.03-2.08.2-3.1.03-.28.17-.53.4-.7,1.55-1.13,3.23-2.06,5-2.8.2,0,.4-.1.6,0,1.79.81,3.49,1.78,5.1,2.9.24.15.39.41.4.7.25,1.93.25,3.87,0,5.8-.02.33-.21.63-.5.8-1.54,1.09-3.18,2.02-4.9,2.8-.22.1-.48.1-.7,0-1.66-.78-3.27-1.68-4.8-2.7-.43-.25-.7-.7-.7-1.2-.08-.8-.11-1.6-.1-2.4v-.1Zm8.7-.2c-.03-1.52-1.28-2.73-2.8-2.7-1.52.03-2.73,1.28-2.7,2.8.03,1.48,1.22,2.67,2.7,2.7,1.49,0,2.69-1.19,2.7-2.68,0,0,0-.01,0-.02h0l.1-.1Z"/><path class="cls-52" d="m198.13,192.87c1.18.07,2.26.7,2.9,1.7.39.5.73,1.03,1,1.6.2.3.1.4-.2.4-1.12.21-2.23.51-3.3.9-.29.1-.61.1-.9,0-1.07-.39-2.18-.69-3.3-.9-.2,0-.4,0-.3-.3.8-1.4,1.6-2.7,3.3-3.2.3,0,.5-.1.8-.1v-.1Z"/><path class="cls-52" d="m191.63,213.17c-1.31.11-2.62-.32-3.6-1.2-.89-.85-1.21-2.14-.8-3.3.25-.83.58-1.64,1-2.4.2-.3.3-.3.5,0,.79.94,1.66,1.81,2.6,2.6.23.24.34.57.3.9.19.91.42,1.81.7,2.7q.2.7-.5.7h-.2Z"/><path class="cls-52" d="m204.23,213.17q-.7,0-.4-1c.25-.79.45-1.59.6-2.4.02-.52.28-.99.7-1.3.83-.63,1.57-1.37,2.2-2.2.2-.3.4-.3.6,0,.51.8.88,1.68,1.1,2.6.43,1.71-.6,3.44-2.3,3.9-.81.22-1.66.32-2.5.3v.1Z"/><path class="cls-45" d="m199.73,217.07c-1.1-1.2-1.9-1.2-3.3,0-.92-.73-1.67-1.65-2.2-2.7-.2-.4-.2-.5.3-.6,1.09-.21,2.16-.51,3.2-.9.29-.1.61-.1.9,0,1.07.39,2.18.69,3.3.9.2,0,.4,0,.2.3-.49,1.16-1.33,2.14-2.4,2.8v.2Z"/><path class="cls-45" d="m187.03,200.67c1.5-.2,2.1-1.1,1.6-2.8,1.09-.4,2.24-.6,3.4-.6.4,0,.6.1.4.6-.41,1.06-.68,2.17-.8,3.3,0,.2,0,.3-.2.4-1.07.89-2.07,1.86-3,2.9-.84-1.1-1.33-2.42-1.4-3.8Z"/><path class="cls-45" d="m207.53,197.87v.3c-.38.92.06,1.98.98,2.36.23.09.47.14.72.14-.08,1.27-.54,2.48-1.3,3.5-.2.3-.3,0-.4,0-.44-.52-.91-1.03-1.4-1.5-.21-.22-.45-.43-.7-.6-.46-.34-.79-.84-.9-1.4-.08-.97-.32-1.91-.7-2.8-.2-.4-.1-.6.4-.6,1.13,0,2.25.2,3.3.6Z"/><path class="cls-33" d="m191.43,207.57c-.8-.6-1.5-1.3-2.1-2.1-.2-.1-.2-.4,0-.6h0c.6-.8,1.3-1.5,2.1-2.1-.2,1.59-.2,3.21,0,4.8Z"/><path class="cls-33" d="m199.43,198.17c.97-.36,1.98-.63,3-.8.3,0,.3.2.4.4.37.93.64,1.91.8,2.9-1.33-.92-2.73-1.72-4.2-2.4v-.1Z"/><path class="cls-33" d="m196.83,212.27c-.98.35-1.98.61-3,.8-.15.02-.28-.09-.3-.24,0-.02,0-.04,0-.06-.37-.93-.64-1.91-.8-2.9,1.33.92,2.73,1.72,4.2,2.4h-.1Z"/><path class="cls-33" d="m192.63,200.67c.16-.99.43-1.97.8-2.9,0-.2.1-.4.4-.3,1.02.17,2.03.44,3,.8-1.48.7-2.88,1.54-4.2,2.5v-.1Z"/><path class="cls-33" d="m204.83,202.87c.77.59,1.47,1.26,2.1,2,.19.13.25.39.12.58-.03.05-.07.09-.12.12-.62.77-1.33,1.48-2.1,2.1.2-1.59.2-3.21,0-4.8Z"/><path class="cls-33" d="m199.43,212.27c1.44-.72,2.84-1.53,4.2-2.4-.17,1.02-.44,2.03-.8,3,0,.1-.1.3-.3.2-1.02-.17-2.03-.44-3-.8h-.1Z"/><path class="cls-71" d="m200.83,205.17c.03,1.52-1.18,2.77-2.7,2.8-1.52.03-2.77-1.18-2.8-2.7-.03-1.52,1.18-2.77,2.7-2.8h0c1.49,0,2.69,1.19,2.7,2.68,0,0,0,.01,0,.02h.1Z"/><circle class="cls-3" cx="66.73" cy="204.07" r="45"/><path class="cls-29" d="m52.83,211.07v-19.6c0-1.5.3-1.9,1.7-2.5h.2c.1.2.3,0,.5,0h19.3c1.07.11,1.86,1.03,1.8,2.1v44.7c.06.96-.5,1.85-1.4,2.2h-19.7c-1.22.11-2.29-.79-2.4-2-.01-.13-.01-.27,0-.4v-24.5Zm16.2,20.6h3.4c.57,0,1.05-.43,1.1-1v-34.5c-.08-.56-.54-.98-1.1-1h-12.1c-.64-.02-1.18.48-1.2,1.12,0,.03,0,.05,0,.08v34.1c-.02.64.48,1.18,1.12,1.2.03,0,.05,0,.08,0h8.7Z"/><path class="cls-15" d="m74.83,237.97c.88-.37,1.43-1.25,1.4-2.2v-44.7c.02-1.06-.75-1.96-1.8-2.1h3.9c1.12.39,1.79,1.53,1.6,2.7v44.3c.12,1.15-.72,2.18-1.88,2.3-.14.01-.28.01-.42,0h-2.8v-.3Z"/><path class="cls-15" d="m52.83,202.17v4.8h-5.1c-.81.13-1.57-.43-1.7-1.25-.02-.15-.02-.3,0-.45v-1.6c-.05-.78.55-1.45,1.34-1.5.05,0,.11,0,.16,0h5.3Z"/><path class="cls-15" d="m52.83,219.87v4.8h-5c-1.2,0-1.7-.5-1.7-1.7v-1.5c-.08-.81.52-1.52,1.33-1.6.09,0,.18,0,.27,0h5.1Z"/><path class="cls-72" d="m52.83,211.07v4.8h-5.1c-.8.08-1.51-.49-1.59-1.29,0-.07,0-.14,0-.21v-1.7c-.06-.77.51-1.45,1.28-1.51.11,0,.21,0,.32.01h5.2l-.1-.1Z"/><path class="cls-42" d="m80.03,206.97v-4.8h5.1c.73-.09,1.4.43,1.49,1.17,0,.08.01.15,0,.23v1.9c.05.78-.55,1.45-1.34,1.5-.05,0-.11,0-.16,0h-5.1Z"/><path class="cls-42" d="m80.03,224.67v-4.8h5.1c.75-.08,1.42.47,1.5,1.23,0,.09,0,.18,0,.27v1.9c.04.74-.53,1.37-1.27,1.41-.08,0-.15,0-.23,0h-5.1Z"/><path class="cls-42" d="m80.03,215.87v-4.8h5.1c.78-.05,1.45.55,1.5,1.34,0,.05,0,.11,0,.16v1.7c.05.78-.55,1.45-1.34,1.5-.05,0-.11,0-.16,0h-5.1v.1Z"/><path class="cls-72" d="m52.83,193.37v4.8h-4.9c-1.3,0-1.8-.5-1.8-1.8v-1.5c-.04-.74.53-1.37,1.27-1.41.08,0,.15,0,.23,0h5.3l-.1-.1Z"/><path class="cls-72" d="m52.83,228.77v4.8h-5c-1.2,0-1.7-.5-1.7-1.7v-1.4c-.1-.78.45-1.5,1.24-1.6.12-.02.24-.02.36,0h5.2l-.1-.1Z"/><path class="cls-1" d="m80.03,198.07v-4.7h5.2c.8-.03,1.47.6,1.5,1.4,0,0,0,0,0,0v1.9c.04.74-.53,1.37-1.27,1.41-.08,0-.15,0-.23,0h-5.2Z"/><path class="cls-1" d="m80.03,233.47v-4.7h5.2c.8-.03,1.47.6,1.5,1.4,0,0,0,0,0,0v1.9c.04.74-.53,1.37-1.27,1.41-.08,0-.15,0-.23,0h-5.2Z"/><path class="cls-47" d="m69.13,231.67h-8.7c-.64.02-1.18-.48-1.2-1.12,0-.03,0-.05,0-.08v-34.1c-.02-.64.48-1.18,1.12-1.2.03,0,.05,0,.08,0h8.7c.62.28.99.93.9,1.6v33.3c.09.67-.28,1.32-.9,1.6Zm-1.9-22.7c-1,.2-2,.3-3,.5q-1,.2-1,1.2c0,.4.2.5.5.5h5.4c.4,0,.5-.1.5-.5s-.1-.5-.5-.5h-3.5c1.1-.3,2.3-.5,3.4-.7.3,0,.6,0,.6-.5.04-.29-.16-.56-.45-.6-.05,0-.1,0-.15,0h-.5c-1-.2-2-.3-3-.5h3.6c.4,0,.5-.2.5-.5s-.1-.5-.5-.5h-4.9c-1.6,0-1.1,0-1,1.1,0,.3.1.4.4.4.74.08,1.48.22,2.2.4.49-.04.97.07,1.4.3v-.1Zm-.8,11.2h2.7c.5,0,.5-.3.5-.7s0-.7-.5-.6h-2.1c-.1,0-.3,0-.3-.1s.2-.1.3-.2l2.2-.6c.4,0,.5-.6.4-1s-.4-.3-.7-.2c-.68.19-1.35.42-2,.7-.3,0-.4,0-.6-.2-.4-.6-1.1-.6-1.8-.6s-1,.5-1.2,1.1,0,1.1-.1,1.7c0,.4.1.6.6.6h2.6v.1Zm-3.2-6.1c0,.4,0,.6.5.7,1.7.3,3.4.7,5.1,1.1.8.2.9,0,.8-.7,0-.3,0-.5-.4-.5-.27.02-.54-.02-.8-.1-.1,0-.2,0-.2-.2-.1-.5,0-.7.5-.8.17.02.35-.02.5-.1.3,0,.5-.5.3-1,0-.4-.3-.3-.6-.2-1.8.4-3.5.8-5.3,1.1-.4,0-.6.2-.5.7h.1Z"/><path class="cls-50" d="m69.13,231.67c.62-.28.99-.93.9-1.6v-33.3c.09-.67-.28-1.32-.9-1.6h3.4c.57,0,1.05.43,1.1,1v34.5c-.08.56-.54.98-1.1,1h-3.4Z"/><path class="cls-39" d="m67.13,208.97c-.4-.3-.9-.2-1.4-.3-.72-.18-1.46-.32-2.2-.4-.2.02-.38-.13-.4-.34,0-.02,0-.04,0-.06q0-1.1,1-1.1h4.9c.4,0,.5.1.5.5s0,.5-.5.5h-3.6c1,.2,2,.3,3,.5h.5c.29-.04.56.16.6.45,0,.05,0,.1,0,.15,0,.5-.3.5-.6.5-1.1.2-2.3.4-3.4.7h3.5c.4,0,.5.1.5.5s-.1.5-.5.5h-5.4c-.4,0-.5,0-.5-.5,0-1,0-1.1,1-1.2,1-.1,1.9-.3,3-.5v.1Z"/><path class="cls-69" d="m66.43,220.17h-2.6c-.29.04-.56-.16-.6-.45,0-.05,0-.1,0-.15-.02-.57.02-1.14.1-1.7.12-.59.6-1.03,1.2-1.1.7,0,1.4,0,1.8.6.2.3.3.3.6.2.68-.19,1.35-.42,2-.7.3,0,.5-.2.7.2.19.32.08.74-.24.93-.05.03-.1.05-.16.07l-2.2.6c-.1,0-.3,0-.3.2s.2.1.3.1h2.1c.5,0,.5.3.5.6s0,.7-.5.7h-2.7v-.1Zm-1.4-1.3h.4c.2,0,.4.1.5-.2s0-.5-.3-.6c-.36-.1-.74-.1-1.1,0-.3.1-.3.3-.3.6s.2.2.4.2h.4Z"/><path class="cls-39" d="m63.23,214.07c0-.4.1-.6.5-.7,1.8-.4,3.5-.8,5.3-1.1.2,0,.5-.1.6.2.1.5,0,.9-.3,1-.17-.02-.35.02-.5.1-.5,0-.6.3-.5.8,0,.11.09.19.2.2.3,0,.5.1.8.1s.4.2.4.5c0,.8,0,.9-.8.7-1.7-.4-3.4-.7-5.1-1.1-.28.01-.52-.2-.54-.48,0-.07,0-.15.04-.22h-.1Zm2.1,0h0c.64.05,1.28.15,1.9.3q.3,0,.3-.3c0-.3,0-.4-.2-.3l-1.9.3h-.1Z"/><path class="cls-22" d="m65.03,218.87h-.5c-.2,0-.4,0-.4-.2s0-.5.3-.6c.36-.1.74-.1,1.1,0,.3,0,.4.3.3.6s-.3.1-.5.2h-.3Z"/><path class="cls-57" d="m65.33,214.07c.64-.05,1.28-.15,1.9-.3.3,0,.2.2.2.3s0,.3-.3.3l-1.9-.3h.1Z"/><path d="m33.53,198.07l-.3,1.1,3.4.8-.6,2.3-10.2-2.5,1-4.1c.49-1.93,2.46-3.1,4.39-2.6,0,0,0,0,0,0,1.27.3,2.25,1.32,2.5,2.6l4.3-1.3-.6,2.5-3.8,1.1-.1.1Zm-2.3.6l.4-1.7c.13-.69-.31-1.35-1-1.5-.66-.2-1.36.15-1.6.8l-.4,1.7,2.6.6v.1Z"/><path d="m35.33,184.07l6.5,3.7-1.1,2-.6-.3c.29.8.18,1.69-.3,2.4-1.34,1.76-3.85,2.1-5.61.76-1.43-1.09-1.96-2.99-1.29-4.66.39-.74,1.08-1.29,1.9-1.5l-.6-.3,1.1-2v-.1Zm2.2,3.8c-.79-.52-1.86-.3-2.38.49-.04.07-.08.14-.12.21-.51.83-.26,1.91.56,2.42.04.03.09.05.14.08.79.52,1.86.3,2.38-.49.04-.07.08-.14.12-.21.51-.83.26-1.91-.56-2.42-.04-.03-.09-.05-.14-.08Z"/><path d="m47.63,175.97l3,3.5-1.7,1.5-2.9-3.3c-.5-.6-1.1-.7-1.6-.2-.5.43-.55,1.18-.12,1.68.04.04.08.08.12.12l2.8,3.2-1.7,1.5-2.9-3.3c-.5-.6-1.1-.7-1.6-.2-.5.43-.55,1.18-.12,1.68.04.04.08.08.12.12l2.8,3.2-1.7,1.5-5-5.6,1.7-1.5.5.5c0-.76.34-1.49.9-2,.54-.56,1.34-.79,2.1-.6-.02-.85.35-1.66,1-2.2,1.16-1.06,2.95-.98,4.01.17.07.07.13.15.19.23h.1Z"/><path d="m61.53,176.27l-1.2-.7c-.64.72-1.47,1.24-2.4,1.5-2.1.6-3.9-.2-4.4-2.1-.3-1.16,0-2.4.8-3.3-.44-.39-.72-.92-.8-1.5-.5-1.7.5-3.3,2.5-3.8,1.44-.45,3.02.07,3.9,1.3l-1.7,1.7c-.32-.56-.95-.88-1.6-.8-.6.2-.9.6-.7,1.1s.6.8,1.2,1.2l2.4,1.6v-1.7l2.2.6c.01.82-.12,1.63-.4,2.4l1.7,1.1-1.5,1.5v-.1Zm-3-1.9l-2.4-1.5h-.1c-.26.34-.34.79-.2,1.2.2.7.8,1.1,1.8.8.36-.11.7-.27,1-.5h-.1Z"/><path d="m67.03,173.07l2.2-.9c.17.97,1.01,1.69,2,1.7,1.1.2,1.5-.2,1.5-.6,0-.6-.5-1-2-1.6-1.5-.6-2.9-1.6-2.6-3.6.31-1.81,2.03-3.02,3.83-2.71.02,0,.05,0,.07.01,1.65.16,3.03,1.31,3.5,2.9l-2.2.9c-.19-.77-.82-1.36-1.6-1.5-.7-.1-1.2.2-1.2.6s.1.8,1.7,1.6,3.2,1.5,2.9,3.7c-.3,2-2.1,3-4.3,2.6-1.84-.09-3.4-1.4-3.8-3.2v.1Z"/><path d="m79.63,172.77l-.9,2.5c-.2.6.3.9,1.2,1.1l-.7,1.9c-2.9-.7-3.4-1.9-2.6-3.8l.9-2.5-1.1-.4.8-2,1.1.4.5-1.3h2.3c0,.1-.7,2.1-.7,2.1l1.4.5-.8,2-1.4-.5Z"/><path d="m81.43,175.17c1.18-1.86,3.66-2.42,5.52-1.23,1.86,1.18,2.42,3.66,1.23,5.52-1.18,1.86-3.66,2.42-5.52,1.23-.01,0-.02-.01-.03-.02-1.84-1.14-2.41-3.56-1.27-5.4.02-.03.04-.07.07-.1Zm4.8,3.1c.54-.74.38-1.77-.36-2.31-.05-.03-.09-.07-.14-.09-.8-.5-1.85-.27-2.36.53-.01.02-.03.05-.04.07-.54.74-.38,1.77.36,2.31.05.03.09.07.14.09.8.5,1.85.27,2.36-.53.01-.02.03-.05.04-.07h0Z"/><path d="m95.13,180.97l-1.8,1.8c-.47-.86-1.55-1.17-2.4-.7-.15.08-.28.18-.4.3l-2.4,2.4-1.6-1.6,5.3-5.3,1.6,1.6-.9.9c.9-.43,1.98-.18,2.6.6Z"/><path d="m100.43,189.07l-6.3,4-1.2-1.9.6-.4c-.82-.19-1.54-.69-2-1.4-1.03-1.77-.42-4.04,1.35-5.07.02,0,.03-.02.05-.03,1.72-1.18,4.06-.78,5.3.9.45.71.6,1.58.4,2.4l.6-.4,1.2,1.9Zm-4.4.1c.84-.46,1.15-1.51.69-2.35-.03-.05-.06-.1-.09-.15-.46-.81-1.5-1.09-2.31-.63-.07.04-.13.08-.19.13-.84.46-1.15,1.51-.69,2.35.03.05.06.1.09.15.45.81,1.46,1.1,2.27.65.08-.04.16-.1.23-.15Z"/><path d="m103.83,199.27l-6.8,2c-2.4.7-4-.9-4.5-2.8-.48-1.35-.17-2.85.8-3.9l1.6,1.5c-.51.49-.67,1.24-.4,1.9.12.82.89,1.39,1.72,1.27.1-.01.19-.04.28-.07l.7-.2c-.77-.32-1.33-.99-1.5-1.8-.52-1.98.63-4.02,2.6-4.6,1.93-.64,4.01.41,4.65,2.34.02.05.03.11.05.16.26.8.15,1.68-.3,2.4l.7-.2.6,2.1-.2-.1Zm-4.1-1.1c.91-.22,1.47-1.13,1.25-2.04-.01-.05-.03-.11-.05-.16-.26-.96-1.24-1.54-2.2-1.3-.91.22-1.47,1.13-1.25,2.04.01.05.03.11.05.16.26.96,1.24,1.54,2.2,1.3h0Z"/><path d="m98.53,206.07c-.04.54.19,1.06.6,1.4l-1,1.8c-1.06-.75-1.67-2-1.6-3.3-.4-2.17,1.04-4.26,3.21-4.66,2.17-.4,4.26,1.04,4.66,3.21.08.41.09.83.03,1.24.02,2.08-1.64,3.78-3.72,3.8-.06,0-.12,0-.18,0h-.9v-5.3c-.73.29-1.18,1.02-1.1,1.8Zm2.7,1.4c.75-.15,1.27-.84,1.2-1.6.09-.77-.44-1.47-1.2-1.6v3.2Z"/><circle class="cls-3" cx="333.27" cy="204.07" r="45"/><path class="cls-37" d="m308.46,195.37v-7.4c0-.3,0-.4.4-.4h11.1v2.2q0,.8.8.8h24.9c.5,0,.6-.2.6-.6v-2.4h11.3c.11.18.18.39.2.6v6.8c.04.29-.16.56-.45.6-.05,0-.1,0-.15,0h-1.4c-1.07.27-1.72,1.36-1.45,2.43.19.75.79,1.32,1.55,1.47h1.4q.6,0,.6.7v24.3c0,.6,0,.7-.7.7h-1.4c-1.07.05-1.9.93-1.9,2,0,1.05.85,1.9,1.9,1.9h1.4c.6,0,.7,0,.7.7v6.6c0,.2,0,.5-.2.6h-11.3v-2.4c.04-.29-.16-.56-.45-.6-.05,0-.1,0-.15,0h-25.2c-.5,0-.6.2-.6.6v2.4h-11.1c-.3,0-.4,0-.4-.4v-7.6h2c1.05,0,1.9-.85,1.9-1.9.04-1.06-.78-1.95-1.84-2-.02,0-.04,0-.06,0h-1.43c-.2,0-.5,0-.6-.2v-25.3c.18-.11.39-.18.6-.2h1.4c1.1-.05,1.95-.99,1.9-2.1,0,0,0,0,0,0-.04-.99-.81-1.8-1.8-1.9h-1.4c-.2,0-.5,0-.6-.2l-.07.2Zm40.57,19.3h1.8c.6,0,.8-.3.8-.7,0-.39-.32-.71-.71-.71-.03,0-.06,0-.09,0h-1.8v-1.7h1.8c.6,0,.9-.3.9-.7s-.3-.7-.9-.7h-1.8v-1.7h1.8c.39.07.75-.19.82-.58s-.19-.75-.58-.82c-.08-.01-.16-.01-.24,0h-1.8v-1.7h1.8c.6,0,.8-.3.8-.7,0-.39-.32-.71-.71-.71-.03,0-.06,0-.09,0h-1.8v-1.7h1.8c.6,0,.8-.3.8-.7,0-.39-.32-.71-.71-.71-.03,0-.06,0-.09,0h-1.8v-1.7h1.8c.6,0,.9-.3.9-.7s-.3-.7-.9-.7h-1.8c0-1.3,0-1.2-1.2-1.2v-1.8c0-.6-.3-.8-.7-.8-.39,0-.71.32-.71.71,0,.03,0,.06,0,.09v1.8h-1.7v-1.8c0-.6-.3-.9-.7-.9s-.7.3-.7.9v1.8h-1.7v-1.8c0-.6-.3-.9-.7-.9s-.7.3-.7.9v1.8h-1.7v-1.8c0-.6-.3-.9-.7-.9s-.7.3-.7.9v1.8h-1.7v-1.8c0-.6-.3-.9-.7-.9-.39,0-.71.32-.71.71,0,.03,0,.06,0,.09v1.8h-1.7v-1.8c0-.6-.3-.9-.7-.9s-.7.3-.7.9v1.8h-1.7v-1.8c0-.6-.3-.9-.7-.9s-.7.3-.7.9v1.8h-1.7v-1.8c0-.6-.3-.9-.7-.9s-.7.3-.7.9v1.8h-1.7v-1.8c0-.6-.3-.9-.7-.9s-.7.3-.7.9v1.8h-1.7v-1.8c0-.6-.3-.9-.7-.9s-.7.3-.7.9v1.8c-1.2,0-1.1,0-1.1,1.2h-1.8c-.6,0-.9.3-.8.7.04.41.39.72.8.7h1.8v1.7h-1.8c-.6,0-.9.3-.9.7s.3.7.9.7h1.8v1.7h-1.8c-.6,0-.9.3-.9.7s.3.7.9.7h1.8v1.7h-1.9c-.44-.05-.84.26-.9.7,0,.4.3.7.9.7h1.9v1.7h-1.8c-.6,0-.8.3-.8.7,0,.39.32.71.71.71.03,0,.06,0,.09,0h1.8v1.7h-1.8c-.6,0-.9.3-.9.7s.3.7.9.7h1.8v1.7h-1.8c-.6,0-.9.3-.9.7s.3.7.9.7h1.8v1.7h-1.8c-.6,0-.8.3-.8.7,0,.39.32.71.71.71.03,0,.06,0,.09,0h1.8v1.7h-1.8c-.6,0-.8.3-.8.7,0,.39.32.71.71.71.03,0,.06,0,.09,0h1.8v1.7h-1.8c-.6,0-.9.3-.9.7s.3.7.9.7h1.8c0,1.2,0,1.1,1.2,1.2v1.8c0,.6.3.8.7.8.39,0,.71-.32.71-.71,0-.03,0-.06,0-.09v-1.8h1.7v1.8c0,.6.3.9.7.9s.7-.3.7-.9v-1.8h1.7v1.8c0,.6.3.9.7.9s.7-.3.7-.9v-1.8h1.7v1.8c0,.6.3.8.7.8.39,0,.71-.32.71-.71,0-.03,0-.06,0-.09v-1.8h1.7v1.8c0,.6.3.8.7.8.39,0,.71-.32.71-.71,0-.03,0-.06,0-.09v-1.8h1.7v1.8c0,.6.3.9.7.9s.7-.3.7-.9v-1.8h1.7v1.8c0,.6.3.8.7.8.39,0,.71-.32.71-.71,0-.03,0-.06,0-.09v-1.8h1.7v1.8c0,.6.3.8.7.8.39,0,.71-.32.71-.71,0-.03,0-.06,0-.09v-1.8h1.7v1.8c0,.6.3.8.7.8.39,0,.71-.32.71-.71,0-.03,0-.06,0-.09v-1.8h1.7v1.8c0,.6.3.9.7.9s.7-.3.7-.9v-1.8c1.3,0,1.1,0,1.2-1.2h1.8c.6,0,.8-.3.8-.7,0-.39-.32-.71-.71-.71-.03,0-.06,0-.09,0h-1.8v-1.7h1.8c.6,0,.9-.3.9-.7s-.3-.7-.9-.7h-1.8v-1.7h1.8c.6,0,.9-.3.9-.7s-.3-.7-.9-.7h-1.8v-1.7h1.8c.6,0,.8-.3.8-.7,0-.39-.32-.71-.71-.71-.03,0-.06,0-.09,0h-1.8v-1.7l-.1.1Zm-36.6-21.7c.82-.02,1.48-.68,1.5-1.5h0c-.03-.8-.7-1.43-1.5-1.4s-1.43.7-1.4,1.5h0c.05.75.65,1.35,1.4,1.4Zm42.7-1.5c0-.83-.67-1.5-1.5-1.5s-1.5.67-1.5,1.5.67,1.5,1.5,1.5c.8.03,1.47-.6,1.5-1.4,0,0,0,0,0,0h0v-.1Zm-44.1,41.9c0,.83.67,1.5,1.5,1.5s1.5-.67,1.5-1.5h0c-.02-.82-.68-1.48-1.5-1.5h0c-.82.02-1.48.68-1.5,1.5Zm44.1,0c-.02-.82-.68-1.48-1.5-1.5h0c-.83,0-1.5.67-1.5,1.5s.67,1.5,1.5,1.5,1.5-.67,1.5-1.5Z"/><path class="cls-27" d="m343.27,190.57h-22.5q-.8,0-.8-.8v-2.2h23.4v3h-.1Z"/><path class="cls-27" d="m319.86,237.07v-2.4c-.04-.29.16-.56.45-.6.05,0,.1,0,.15,0h22.7v3h-23.3Z"/><path class="cls-35" d="m343.27,190.57v-3h3v2.4c.04.29-.16.56-.45.6-.05,0-.1,0-.15,0h-2.4Z"/><path class="cls-35" d="m343.36,237.07v-3h2.4c.29-.04.56.16.6.45,0,.05,0,.1,0,.15v2.4h-3Z"/><path class="cls-23" d="m321.46,228.27h-3.1c-1.2,0-1.1,0-1.2-1.2v-29.5c0-1.2,0-1.1,1.2-1.2h27.6v3.2c-.14-.13-.31-.2-.5-.2h-24.5q-.8,0-.8.8v24.2q0,.8.8.8h24.5c.2,0,.4,0,.5-.2v3.2h-24.5v.1Z"/><path class="cls-36" d="m345.96,199.57v-3.2h1.9c1.3,0,1.1,0,1.2,1.2v29.5c0,1.3,0,1.1-1.2,1.2h-1.83v-28.7h-.1.03Z"/><path class="cls-34" d="m312.46,192.97c-.82-.08-1.43-.78-1.4-1.6.05-.75.65-1.35,1.4-1.4.83,0,1.5.67,1.5,1.5s-.67,1.5-1.5,1.5Z"/><path class="cls-34" d="m355.16,191.47c.02.81-.63,1.48-1.44,1.5-.02,0-.04,0-.06,0h0c-.83,0-1.5-.67-1.5-1.5s.67-1.5,1.5-1.5,1.5.67,1.5,1.5Z"/><path class="cls-51" d="m311.03,233.37c-.03-.8.6-1.47,1.4-1.5,0,0,0,0,0,0h0c.82.02,1.48.68,1.5,1.5h0c0,.83-.67,1.5-1.5,1.5s-1.5-.67-1.5-1.5h.1Z"/><path class="cls-51" d="m355.16,233.27c.02.81-.63,1.48-1.44,1.5-.02,0-.04,0-.06,0h0c-.83,0-1.5-.67-1.5-1.5s.67-1.5,1.5-1.5c.81-.02,1.48.63,1.5,1.44,0,.02,0,.04,0,.06Z"/><path class="cls-63" d="m322.96,196.37h-1.4v-1.8c0-.6.3-.9.7-.9s.7.3.7.9v1.8Z"/><path class="cls-68" d="m349.03,211.47v-1.5h1.8c.6,0,.9.3.9.7s-.3.7-.9.7h-1.8v.1Z"/><path class="cls-68" d="m332.27,196.37h-1.4v-1.8c0-.6.3-.9.7-.9s.7.3.7.9v1.8Z"/><path class="cls-68" d="m335.36,196.37h-1.4v-1.8c0-.6.3-.9.7-.9s.7.3.7.9v1.8Z"/><path class="cls-68" d="m317.27,210.07v1.5h-1.8c-.6,0-.9-.3-.8-.7.04-.41.39-.72.8-.7h1.8v-.1Z"/><path class="cls-63" d="m349.03,223.97v-1.5h1.8c.6,0,.9.3.9.7s-.3.7-.9.7h-1.8v.1Z"/><path class="cls-68" d="m349.03,214.57v-1.5h1.8c.6,0,.8.3.8.7,0,.39-.32.71-.71.71-.03,0-.06,0-.09,0h-1.8v.1Z"/><path class="cls-63" d="m317.27,222.47v1.5h-1.8c-.6,0-.8-.3-.8-.7,0-.39.32-.71.71-.71.03,0,.06,0,.09,0h1.8v-.1Z"/><path class="cls-63" d="m317.27,200.67v1.5h-1.8c-.6,0-.9-.3-.9-.7s.3-.7.9-.7h1.8v-.1Z"/><path class="cls-63" d="m349.03,202.17v-1.5h1.8c.6,0,.8.3.8.7,0,.39-.32.71-.71.71-.03,0-.06,0-.09,0h-1.8v.1Z"/><path class="cls-68" d="m317.27,213.17v1.4h-1.8c-.6,0-.9-.3-.9-.7s.3-.7.9-.7h1.8Z"/><path class="cls-63" d="m321.46,228.27h1.4v1.8c0,.6-.3.9-.7.9s-.7-.3-.7-.9v-1.8Z"/><path class="cls-68" d="m330.86,228.27h1.4v1.8c0,.6-.3.8-.7.8-.39,0-.71-.32-.71-.71,0-.03,0-.06,0-.09v-1.8Z"/><path class="cls-68" d="m333.96,228.27h1.4v1.8c0,.6-.3.9-.7.9s-.7-.3-.7-.9v-1.8Z"/><path class="cls-63" d="m343.27,228.27h1.4v1.8c0,.6-.3.8-.7.8-.39,0-.71-.32-.71-.71,0-.03,0-.06,0-.09v-1.8Z"/><path class="cls-63" d="m344.66,196.37h-1.4v-1.8c0-.6.3-.9.7-.9s.7.3.7.9v1.8Z"/><path class="cls-67" d="m317.27,206.97v1.4h-1.9c-.44.05-.84-.26-.9-.7,0-.4.3-.7.9-.7h1.9Z"/><path class="cls-67" d="m349.03,208.37v-1.4h1.8c.6,0,.8.3.8.7,0,.39-.32.71-.71.71-.03,0-.06,0-.09,0h-1.8Z"/><path class="cls-67" d="m337.03,228.27h1.4v1.8c0,.6-.3.8-.7.8-.39,0-.71-.32-.71-.71,0-.03,0-.06,0-.09v-1.8Z"/><path class="cls-67" d="m317.27,216.27v1.5h-1.8c-.6,0-.9-.3-.9-.7s.3-.7.9-.7h1.8v-.1Z"/><path class="cls-67" d="m349.03,217.77v-1.5h1.8c.6,0,.8.3.8.7,0,.39-.32.71-.71.71-.03,0-.06,0-.09,0h-1.8v.1Z"/><path class="cls-67" d="m329.16,196.37h-1.4v-1.8c0-.6.3-.9.7-.9s.7.3.7.9v1.8Z"/><path class="cls-67" d="m338.46,196.37h-1.43v-1.8c0-.6.3-.9.7-.9s.7.3.7.9l.03,1.8Z"/><path class="cls-67" d="m327.66,228.27h1.37v1.8c0,.6-.3.8-.7.8-.39,0-.71-.32-.71-.71,0-.03,0-.06,0-.09l.03-1.8Z"/><path class="cls-61" d="m317.27,225.67v1.4h-1.8c-.6,0-.9-.3-.9-.7s.3-.7.9-.7h1.8Z"/><path class="cls-61" d="m349.03,227.07v-1.5h1.8c.6,0,.8.3.8.7,0,.39-.32.71-.71.71-.03,0-.06,0-.09,0h-1.8v.1Z"/><path class="cls-61" d="m349.03,199.07v-1.5h1.8c.6,0,.9.3.9.7s-.3.7-.9.7h-1.8v.1Z"/><path class="cls-67" d="m324.66,228.27h1.37v1.8c0,.6-.3.9-.7.9s-.7-.3-.7-.9l.03-1.8Z"/><path class="cls-67" d="m349.03,205.27v-1.4h1.8c.39-.07.75.19.82.58s-.19.75-.58.82c-.08.01-.16.01-.24,0h-1.8Z"/><path class="cls-67" d="m317.27,203.77v1.4h-1.8c-.6,0-.9-.3-.9-.7s.3-.7.9-.7h1.8Z"/><path class="cls-67" d="m317.27,219.37v1.5h-1.8c-.6,0-.8-.3-.8-.7,0-.39.32-.71.71-.71.03,0,.06,0,.09,0h1.8v-.1Z"/><path class="cls-67" d="m349.03,220.87v-1.5h1.8c.6,0,.9.3.9.7s-.3.7-.9.7h-1.8v.1Z"/><path class="cls-61" d="m318.36,228.27h1.4v1.8c0,.6-.3.8-.7.8-.39,0-.71-.32-.71-.71,0-.03,0-.06,0-.09v-1.8Z"/><path class="cls-61" d="m317.27,197.57v1.5h-1.9c-.39.07-.75-.19-.82-.58s.19-.75.58-.82c.08-.01.16-.01.24,0h1.9v-.1Z"/><path class="cls-61" d="m347.86,196.37h-1.5v-1.8c0-.6.3-.8.7-.8.39,0,.71.32.71.71,0,.03,0,.06,0,.09v1.8h.1Z"/><path class="cls-61" d="m346.36,228.27h1.5v1.8c0,.6-.3.9-.7.9s-.7-.3-.7-.9v-1.8h-.1Z"/><path class="cls-67" d="m341.56,196.37h-1.4v-1.8c0-.6.3-.9.7-.9s.7.3.7.9v1.8Z"/><path class="cls-67" d="m326.03,196.37h-1.4v-1.8c0-.6.3-.9.7-.9s.7.3.7.9v1.8Z"/><path class="cls-61" d="m319.77,196.37h-1.4v-1.8c0-.6.3-.9.7-.9s.7.3.7.9v1.8Z"/><path class="cls-67" d="m340.16,228.27h1.4v1.8c0,.6-.3.8-.7.8-.39,0-.71-.32-.71-.71,0-.03,0-.06,0-.09v-1.8Z"/><path class="cls-65" d="m343.03,225.27h-22q-.8,0-.8-.8v-24.2q0-.8.8-.8h22v25.8Zm-1-20.7h0v-2.3c.01-.38-.28-.69-.66-.7-.01,0-.03,0-.04,0h0c-.4.02-.73.31-.8.7h0v3.1c0,.8.1.6-.7.7-.4,0-.5,0-.5-.5v-3.3c.05-.39-.23-.74-.61-.79-.03,0-.06,0-.09,0-.4.02-.73.31-.8.7v4.4c0,.6.3.8.9.8h2.3c.44.06.84-.25.9-.69,0-.07,0-.14,0-.21v-2.1l.1.2Zm-8.5,0v2.2c-.02.43.28.81.7.9.4.1.7-.3.7-.8v-1.1q0-.3.3-.3h1.4c.43.03.82-.27.9-.7v-2.2c0-.7-.3-.9-.9-.9h-2.1c-.7,0-1,.2-1,1v2h0v-.1Zm-4.4,0v2.2c0,.4.2.8.6.8h2.5c.44.05.84-.26.9-.7,0-.45-.38-.81-.84-.8-.02,0-.04,0-.06,0h-1.4c-.2,0-.3,0-.3-.3v-2.5c0-.2,0-.3.3-.3h1.4c.41.03.77-.27.8-.67,0-.04,0-.08,0-.13,0-.5-.3-.7-.8-.7h-2.4c-.4,0-.8.2-.8.6v2.3h0l.1.2Zm-5.6,19.4h1.3c.2,0,.4,0,.5-.2s0-.4-.2-.5l-2.7-2.5c-.1-.2-.3-.2-.5-.1s-.2.2-.2.4v2.5c0,.24.17.45.4.5h1.4v-.1Z"/><path class="cls-11" d="m343.03,225.27v-25.8h2.5c.2,0,.4,0,.5.2v25.4c-.14.13-.31.2-.5.2h-2.5Z"/><path class="cls-58" d="m342.03,204.47v2.1c0,.7-.3.9-.9.9h-2.3c-.6,0-.9-.3-.9-.8v-4.3c0-.4.2-.8.6-.8h.1c.39,0,.71.32.71.71,0,.03,0,.06,0,.09v3.3c0,.4.1.5.5.5.8,0,.7,0,.7-.7v-3.1c-.01-.38.28-.69.66-.7.01,0,.03,0,.04,0h0c.38-.01.69.28.7.66,0,.01,0,.03,0,.04h0v2.3h0l.1-.2Z"/><path class="cls-58" d="m333.56,204.47v-2c0-.7.3-.9,1-1h2.2c.44-.06.84.25.9.69,0,.07,0,.14,0,.21v2c.03.43-.27.82-.7.9h-1.6q-.3,0-.3.3v1.1c.05.39-.23.74-.61.79-.03,0-.06,0-.09,0-.4,0-.7-.3-.7-.9v-2.2l-.1.1Zm2-.6c.3,0,.6.1.6-.4s-.2-.5-.6-.4-.6-.1-.6.4.2.5.6.4Z"/><path class="cls-58" d="m329.16,204.47v-2.1c0-.4.2-.8.6-.8h2.6c.39-.05.74.23.79.61,0,.03,0,.06,0,.09,0,.4-.3.7-.8.8-.47.05-.93.05-1.4,0-.4,0-.3,0-.3.3v2.5c0,.2,0,.3.3.3h1.4c.45-.04.85.29.9.74,0,.02,0,.04,0,.06,0,.5-.3.7-.9.7h-2.33c-.4,0-.8-.2-.8-.6v-2.4l-.07-.2Z"/><path class="cls-73" d="m323.56,223.87h-1.4c-.24,0-.45-.17-.5-.4h0v-2.5c0-.2,0-.4.2-.4.17-.03.35,0,.5.1l2.7,2.5c.2.1.2.3.2.5s-.3.2-.5.2h-1.2Z"/><path class="cls-63" d="m335.56,203.77c-.3,0-.6,0-.6-.4s.3-.4.6-.4.6,0,.6.4-.3.4-.6.4Z"/><path d="m315.36,175.27c-1.21-3.78.88-7.82,4.65-9.03.08-.03.16-.05.25-.07,2.32-.73,4.86-.2,6.7,1.4l-2.2,2.3c-.97-.89-2.36-1.16-3.6-.7-2.09.52-3.37,2.63-2.85,4.72.04.16.09.32.15.48.45,2.08,2.5,3.4,4.57,2.95.18-.04.35-.09.53-.15,1.28-.33,2.27-1.32,2.6-2.6l3.1.7c-.67,2.32-2.48,4.13-4.8,4.8-3.75,1.22-7.78-.82-9-4.57-.04-.11-.07-.22-.1-.33v.1Z"/><path d="m341.46,170.37c-.24,2.62-2.56,4.55-5.19,4.31-.04,0-.07,0-.11-.01l-2.1-.2-.4,4.4-3.2-.3,1.3-13.9,5.3.5c2.64.21,4.61,2.52,4.4,5.17,0,.01,0,.02,0,.03Zm-3.2-.3c.12-.96-.54-1.85-1.5-2l-2.1-.2-.3,3.6,2.1.2c.96.07,1.8-.64,1.9-1.6h-.1Z"/><path d="m342.96,175.57l4.2-8.5,2.9,1.4-4.1,8.2c-.5.9-.4,2,1.1,2.7s2.4.2,2.8-.8l4.1-8.2,2.9,1.4-4.2,8.5c-1.3,2.7-4.2,3.3-7,1.9-2.8-1.4-4-4-2.7-6.7v.1Z"/><circle class="cls-3" cx="120.03" cy="91.61" r="45"/><path class="cls-38" d="m153.53,81.91v31.2c-.42.93-1.29,1.58-2.3,1.7h-4.6c-.76-.1-1.54-.1-2.3,0h-3.5c-.63-.1-1.27-.1-1.9,0h-9.4c-.76-.1-1.54-.1-2.3,0h-13.8c-.76-.1-1.54-.1-2.3,0h-3.5c-.63-.1-1.27-.1-1.9,0h-9.5v-34.7h54.6c1.3-.16,2.54.58,3,1.8h-.3Zm-45,15.6h0v3.5c0,2.54,2.06,4.6,4.6,4.6,2.54,0,4.6-2.06,4.6-4.6h0v-2.31c0-.9-.4-1.3-1.3-1.3h-1.9c-.7-.07-1.32.43-1.39,1.13,0,.02,0,.05,0,.07,0,.7.5,1.1,1.4,1.1s.9,0,.9.9c.15,1.27-.75,2.42-2.02,2.57-1.27.15-2.42-.75-2.57-2.02,0-.05-.01-.1-.01-.16v-6.9c-.06-.46.05-.92.3-1.3.61-1.1,1.99-1.5,3.1-.9.72.41,1.17,1.17,1.2,2,.1.8.6,1.3,1.2,1.2.65-.09,1.1-.7,1.01-1.35,0-.02,0-.04,0-.05-.14-2.53-2.27-4.48-4.8-4.4-2.33.15-4.2,1.98-4.4,4.3v3.8l.1.1Zm23.1-1.6v5c-.06,1.59.74,3.08,2.1,3.9,2.1,1.44,4.96.9,6.4-1.19.51-.74.79-1.61.8-2.51v-10.8c-.1-.51-.58-.86-1.1-.8-.51-.03-.97.31-1.1.8v10.5c.06,1.27-.93,2.34-2.2,2.4-1.27.06-2.34-.93-2.4-2.2v-10.5c0-.52-.32-1-.8-1.2-.47-.19-1.01-.02-1.3.4-.2.29-.31.64-.3,1v5l-.1.2Zm-11.5,1.6v6.9c-.02.56.36,1.06.9,1.2.49.08.97-.16,1.2-.6.13-.25.17-.53.1-.8v-4.8c0-.5.1-.6.6-.6h1.8c2.46-.06,4.44-2.04,4.5-4.5.04-2.39-1.73-4.41-4.1-4.7-1.2-.1-2.4,0-3.6,0s-1.5.4-1.5,1.5v6.5l.1-.1Zm-20.8-11v1.6c-.01.65.46,1.2,1.1,1.3.64.08,1.21-.37,1.29-1.01,0-.03,0-.06,0-.09v-1.9c0-.4.1-.5.5-.5h1.7c.62.02,1.16-.4,1.3-1,.06-.63-.38-1.2-1-1.3h-3.5c-.66-.05-1.24.44-1.3,1.1v1.8h-.1Z"/><path class="cls-18" d="m95.83,114.81v3.4c0,.95-.54,1.81-1.4,2.2-.78.41-1.74.29-2.4-.3-.63-.51-.97-1.29-.9-2.1v-41c0-1.6.2-1.5-1.5-1.5-1.5,0-2.6-.4-3.1-1.8v-1c.41-1.27,1.69-2.03,3-1.8h3.5c1.31-.18,2.52.73,2.7,2.03.03.22.03.45,0,.67v41.2h.1Z"/><path class="cls-53" d="m91.14,96.31v15h-3c-.64.05-1.26-.26-1.6-.8v-13.5c.4-.53,1.05-.79,1.7-.7h2.9Z"/><path class="cls-53" d="m91.14,82.51v9.2h-3c-.64.05-1.26-.26-1.6-.8v-7.7c.4-.53,1.05-.79,1.7-.7h2.9Z"/><path class="cls-12" d="m108.53,97.51v-3.8c.19-2.54,2.41-4.44,4.95-4.25,2.31.18,4.13,2.04,4.25,4.35,0,.8-.3,1.3-1,1.4s-1.1-.4-1.2-1.2c0-1.22-.99-2.21-2.21-2.21-.06,0-.13,0-.19,0-.8.03-1.53.49-1.9,1.2-.19.41-.3.85-.3,1.3v6.5c-.15,1.27.75,2.42,2.02,2.57,1.27.15,2.42-.75,2.57-2.02,0-.05.01-.1.01-.16v-.4c.06-.44-.25-.84-.69-.9-.07,0-.14,0-.21,0-.9,0-1.4-.5-1.4-1.1s.5-1.2,1.4-1.2h1.9c.9,0,1.3.4,1.3,1.3v2.3c0,2.54-2.06,4.6-4.6,4.6-2.54,0-4.59-2.06-4.6-4.6v-3.5h0l-.1-.2Z"/><path class="cls-9" d="m131.53,95.91v-5c-.03-.35.04-.69.2-1,.29-.42.83-.59,1.3-.4.5.18.83.67.8,1.2v10.1c-.06,1.27.93,2.34,2.2,2.4,1.27.06,2.34-.93,2.4-2.2v-10.8c.1-.51.58-.86,1.1-.8.51-.03.97.31,1.1.8v10.8c-.05,2.54-2.15,4.56-4.69,4.5-.9-.02-1.77-.3-2.51-.8-1.31-.87-2.09-2.33-2.1-3.9v-5l.2.1Z"/><path class="cls-9" d="m120.03,97.41v-6.5c0-1.1.4-1.5,1.5-1.5h3.6c2.4.22,4.21,2.29,4.1,4.7-.06,2.46-2.04,4.44-4.5,4.5h-1.8c-.5,0-.6.1-.6.6v4.8c.02.27-.01.54-.1.8-.19.48-.71.74-1.2.6-.55-.04-.96-.53-.92-1.08,0-.04,0-.08.02-.12v-6.8h-.1Zm2.4-3.5v1.8c0,.4,0,.6.5.6h1.8c1.25.02,2.28-.97,2.3-2.22,0-.03,0-.05,0-.08h0c.02-1.25-.97-2.28-2.22-2.3-.03,0-.05,0-.08,0h-1.8c-.4,0-.5.2-.5.5v1.7Z"/><path class="cls-48" d="m117.73,114.81v3.1c.05.7-.41,1.34-1.1,1.5h-3.4v-4.6h4.5Z"/><path class="cls-48" d="m126.93,119.41h-3.3c-.68.03-1.27-.49-1.3-1.18,0,0,0-.01,0-.02v-3.3h4.6v4.5Z"/><path class="cls-48" d="m151.23,114.81v3.1c.05.7-.41,1.34-1.1,1.5h-3.4v-4.6h4.5Z"/><path class="cls-48" d="m105.03,119.41h-3.3c-.68.03-1.27-.49-1.3-1.18,0,0,0-.01,0-.02v-3.4h4.6v4.6Z"/><path class="cls-16" d="m99.23,86.51v-1.6c-.05-.66.44-1.24,1.1-1.3h3.5c.62-.02,1.16.4,1.3,1,.06.63-.38,1.2-1,1.3h-2c-.4,0-.5.1-.5.5v1.7c.01.65-.46,1.2-1.1,1.3-.64.08-1.21-.37-1.29-1.01,0-.03,0-.06,0-.09v-1.8Z"/><path class="cls-24" d="m110.83,119.41h-3.4v-4.5h0c0-.1,3.4-.1,3.4-.1v4.6Z"/><path class="cls-24" d="m132.73,119.41h-3.4v-4.6h3.4v4.5h0v.1Z"/><path class="cls-24" d="m138.53,119.41h-3.4v-4.6h3.4v4.6Z"/><path class="cls-24" d="m144.23,119.41h-3.4v-4.5h0c0-.1,3.4-.1,3.4-.1v4.6Z"/><path class="cls-49" d="m129.33,114.81v4.6h-2.3v-4.6c.76-.1,1.54-.1,2.3,0Z"/><path class="cls-49" d="m110.83,119.41v-4.6c.76-.1,1.54-.1,2.3,0v4.6h-2.3Z"/><path class="cls-49" d="m144.23,119.41v-4.6c.76-.1,1.54-.1,2.3,0v4.6h-2.3Z"/><path class="cls-49" d="m107.33,114.91v4.4h-.1c-.73.08-1.47.12-2.2.1v-4.6h2.2l.1.1Z"/><path class="cls-49" d="m135.03,114.81v4.6h-2.3v-4.6h2.3Z"/><path class="cls-49" d="m140.83,114.91v4.4h-.1c-.73.08-1.47.12-2.2.1v-4.6h2.2l.1.1Z"/><path class="cls-49" d="m134.73,114.81h-1.9c.63-.1,1.27-.1,1.9,0Z"/><path class="cls-49" d="m132.73,119.31h.1v.1h0l-.1-.1Z"/><path class="cls-70" d="m122.33,94.01v-1.8c0-.4,0-.6.5-.5h1.8c1.27,0,2.3,1.03,2.3,2.3s-1.03,2.3-2.3,2.3h-1.8c-.5,0-.5-.2-.5-.6v-1.7Z"/><path d="m113.43,61.91c1.56,3.5,0,7.6-3.51,9.17-.19.09-.39.16-.59.23-3.9,1.69-8.44-.11-10.12-4.01-.03-.06-.05-.12-.08-.19-1.53-4,.47-8.49,4.47-10.02,2.37-.91,5.03-.6,7.13.82l-2.1,2.6c-2.09-1.26-4.81-.59-6.07,1.5-.71,1.18-.83,2.62-.33,3.9.9,2.3,3.2,3.4,5.9,2.3,1.57-.45,2.66-1.87,2.7-3.5l-3.7,1.4-1.1-2.7,6.9-2.7.5,1.2Z"/><path d="m127.83,59.71c-.14,2.8-2.53,4.95-5.32,4.8-.03,0-.05,0-.08,0h-2.2c0-.1-.2,4.5-.2,4.5l-3.4-.2.7-14.7,5.6.3c2.79.09,4.99,2.42,4.9,5.21,0,.03,0,.06,0,.09Zm-3.4-.2c.06-1.02-.69-1.9-1.7-2h-2.2c0-.1-.2,3.7-.2,3.7h2.2c.91.13,1.76-.51,1.88-1.42.01-.09.02-.18.02-.28h0Z"/><path d="m129.64,65.11l4.2-9,3,1.4-4.1,8.8c-.5,1-.4,2.1,1.2,2.8s2.5.1,3-.9l4.1-8.8,3,1.4-4.2,9c-1.3,2.9-4.3,3.6-7.3,2.2-3-1.4-4.4-4.1-3-7l.1.1Z"/><circle class="cls-2" cx="286.93" cy="91.61" r="45"/><path class="cls-17" d="m274.53,74.31c.46.21.74.69.7,1.2v5.4h-1.9v-5.3c-.04-.48.19-.94.6-1.2h.6v-.1Z"/><path class="cls-17" d="m293.63,74.31c.44.23.68.71.6,1.2v5.4h-1.9v-5.3c-.04-.48.19-.94.6-1.2h.6l.1-.1Z"/><path class="cls-17" d="m298.73,80.91v-5.3c-.04-.48.19-.94.6-1.2h.6c.41.2.65.64.6,1.1v5.4h-1.8Z"/><path class="cls-17" d="m314.53,102.41c-.3.4-.81.6-1.3.5h-5.3v-1.9h5.4c.45-.03.88.2,1.1.6v.8h.1Z"/><path class="cls-17" d="m287.23,74.31c.44.23.68.71.6,1.2v5.4h-1.9v-5.5c-.04-.48.25-.93.7-1.1h.6Z"/><path class="cls-17" d="m275.23,123.01v5.1c0,.7-.1,1.2-.9,1.4h-.3c-.48-.34-.75-.91-.7-1.5v-5.1h1.9v.1Z"/><path class="cls-17" d="m294.33,123.01v5.2c.08.59-.25,1.16-.8,1.4h-.3c-.52-.31-.79-.9-.7-1.5v-5.1h1.8Z"/><path class="cls-17" d="m299.43,129.61c-.48-.34-.75-.91-.7-1.5v-5.1h1.9v5.1c0,.7-.1,1.2-.9,1.4h-.3v.1Z"/><path class="cls-17" d="m265.83,90.11h-5.5c-.45.01-.87-.22-1.1-.6v-.8c.33-.36.81-.55,1.3-.5h5.3v1.9Z"/><path class="cls-17" d="m259.33,114.31c.22-.4.65-.63,1.1-.6h5.5v1.9h-5.3c-.49.05-.97-.14-1.3-.5v-.8Z"/><path class="cls-17" d="m308.03,113.71c1.4.1,2.8,0,4.3,0h1.2c.45-.01.87.22,1.1.6v.6c-.23.38-.65.61-1.1.6h-5.5v-1.8Z"/><path class="cls-17" d="m265.83,96.48h-5.5c-.45.01-.87-.22-1.1-.6v-.7c.22-.4.65-.63,1.1-.6h5.5v1.9Z"/><path class="cls-17" d="m279.63,80.91v-5.43c-.01-.47.21-.92.6-1.2h.6c.41.26.64.72.6,1.2v5.4l-1.8.03Z"/><path class="cls-17" d="m308.03,107.41h5.5c.45-.01.87.22,1.1.6v.6c-.22.4-.65.63-1.1.6h-5.5v-1.8Z"/><path class="cls-17" d="m314.53,95.91c-.22.4-.65.63-1.1.6h-5.5v-1.9h5.5c.45-.01.87.22,1.1.6v.7Z"/><path class="cls-17" d="m265.83,102.81h-5.3c-.48.04-.94-.19-1.2-.6v-.6c.29-.37.73-.59,1.2-.6h5.3v1.8Z"/><path class="cls-17" d="m259.33,108.01c.22-.4.65-.63,1.1-.6h5.5v1.8h-5.5c-.45.01-.87-.22-1.1-.6v-.6Z"/><path class="cls-17" d="m314.53,89.48c-.32.39-.8.61-1.3.6h-5.2v-1.9c1.4.1,2.9,0,4.3,0h1c.51-.04.99.24,1.2.7v.6Z"/><path class="cls-46" d="m280.33,129.61c-.51-.27-.79-.83-.7-1.4v-5.2h1.9c-.1,1.2,0,2.4,0,3.6v1.6c.14.57-.21,1.15-.78,1.3,0,0-.01,0-.02,0h-.3l-.1.1Z"/><path class="cls-46" d="m286.73,129.61c-.45-.27-.72-.77-.7-1.3v-5.2h1.8v5.3c.07.57-.26,1.11-.8,1.3h-.3v-.1Z"/><path class="cls-32" d="m287.83,123.01h-21.2c-.6,0-.8-.3-.8-.9v-40.3c-.06-.44.25-.84.69-.9.07,0,.14,0,.21,0h40.4c.6,0,.8.3.8.9v40.4c0,.6-.3.9-.8.9h-19.4l.1-.1Zm-.9-7.1h13.3c.5,0,.6-.1.6-.6v-26.7c0-.5-.1-.6-.6-.6h-26.7c-.5,0-.6.1-.6.6v26.7c0,.5.1.6.6.6h13.4Z"/><path class="cls-46" d="m286.93,115.91h-13.3c-.5,0-.6-.1-.6-.6v-26.7c0-.5.1-.6.6-.6h26.7c.5,0,.6.1.6.6v26.7c0,.5-.2.6-.6.6h-13.4Zm-9.4-13.9c0,5.19,4.21,9.4,9.4,9.4,5.19,0,9.4-4.21,9.4-9.4s-4.21-9.4-9.4-9.4h0c-5.2.02-9.42,4.2-9.5,9.4h.1Z"/><path class="cls-56" d="m277.53,101.91c0-5.19,4.21-9.4,9.4-9.4s9.4,4.21,9.4,9.4-4.21,9.4-9.4,9.4h0c-5.19,0-9.39-4.19-9.4-9.38v-.02Zm8.7,6.8c.12-.11.23-.25.3-.4,1.1-1.7,2.2-3.5,3.3-5.2l1.3-2.1h-2.7c-.4,0-.5-.1-.5-.5v-5.4c-.52.66-.99,1.36-1.4,2.1l-3.2,5.1c0,.1-.2.2-.2.4s.3,0,.4,0h2.1c.4,0,.6.1.6.6v5.3h0v.1Z"/><path class="cls-8" d="m286.13,106.81v-3.4c0-.5-.1-.6-.6-.6h-2.5s0-.3.2-.4l3.2-5.1c.4-.7.9-1.4,1.4-2.1v5.4c0,.4.1.5.5.5h1.6l-2.7,4.2c-.3.55-.67,1.05-1.1,1.5Z"/><path class="cls-13" d="m286.13,106.81c.44-.42.79-.93,1-1.5l2.7-4.2h1.1l-1.3,2.1c-1.1,1.7-2.2,3.5-3.3,5.2,0,.1-.2.3-.3.4h0v-1.9l.1-.1Z"/><path d="m253.73,76.31c2.25.74,3.47,3.15,2.73,5.4-.01.03-.02.07-.03.1l-.6,1.8,3.7,1.3-.9,2.7-11.9-4,1.5-4.5c.77-2.27,3.21-3.52,5.5-2.8Zm-.9,2.7c-.73-.34-1.59-.02-1.93.7-.03.06-.05.13-.07.2l-.6,1.8,3.1,1,.6-1.8c.26-.83-.18-1.71-1-2l-.1.1Z"/><path d="m257.43,69.21l2.6,1.7c-.9.75-1.02,2.09-.27,2.99.13.16.29.3.47.41l3.4,2.3-1.5,2.2-7.5-5,1.5-2.2,1.3.9c-.7-.95-.7-2.25,0-3.2v-.1Z"/><path d="m261.73,70.91c-1.74-1.96-1.57-4.96.39-6.71,1.96-1.74,4.96-1.57,6.71.39,1.74,1.96,1.57,4.96-.39,6.71h0c-1.89,1.75-4.84,1.63-6.58-.26-.04-.04-.08-.09-.12-.13Zm5.1-4.5c-.63-.85-1.82-1.03-2.67-.4-.08.06-.16.13-.23.2-.85.7-.97,1.96-.27,2.82.05.07.11.13.17.18.63.85,1.82,1.03,2.67.4.08-.06.16-.13.23-.2.85-.7.97-1.96.27-2.82-.05-.07-.11-.13-.17-.18h0Z"/><path d="m270.13,63.81c-1.11-2.36-.1-5.17,2.26-6.28.01,0,.03-.01.04-.02,1.5-.69,3.25-.54,4.6.4l-1.6,2.2c-.58-.42-1.35-.5-2-.2-1,.4-1.48,1.53-1.08,2.52.02.06.05.12.08.18.44,1.05,1.65,1.54,2.7,1.1,0,0,0,0,0,0,.69-.24,1.16-.87,1.2-1.6l2.7.3c-.12,1.67-1.16,3.14-2.7,3.8-2.38,1.09-5.18.04-6.27-2.33-.01-.02-.02-.05-.03-.07h.1Z"/><path d="m284.33,61.48c.64-.05,1.23-.38,1.6-.9l2.3.9c-.74,1.33-2.08,2.22-3.6,2.4-2.48.52-4.91-1.08-5.43-3.56-.03-.15-.05-.29-.07-.44-.44-2.52,1.25-4.92,3.77-5.35.11-.02.22-.03.33-.05,2.41-.38,4.67,1.27,5.05,3.68.02.14.04.28.05.42v1.1l-6.3.9c.46.81,1.4,1.21,2.3,1v-.1Zm1.2-3.5c-.32-.85-1.2-1.35-2.1-1.2-.93.03-1.67.77-1.7,1.7l3.8-.5Z"/><path d="m296.43,61.48c-.3,2.1-2.2,2.7-4.1,2.4-1.6-.05-2.99-1.09-3.5-2.6l2.5-1c.09.71.68,1.26,1.4,1.3.6,0,1,0,1-.4.1-1-4.3-1.1-3.9-4.1.3-1.9,2-2.7,3.9-2.5,1.42.17,2.64,1.09,3.2,2.4l-2.4.9c-.12-.51-.57-.88-1.1-.9-.5,0-.8,0-.8.4-.1,1,4.3.9,3.9,4.2l-.1-.1Z"/><path d="m303.73,64.31c-.7,1.9-2.7,2.1-4.5,1.4-1.56-.42-2.69-1.79-2.8-3.4l2.6-.4c-.07.67.35,1.3,1,1.5.6.2,1,.2,1.1-.2.4-.9-3.9-2-2.8-4.9.7-1.8,2.6-2.2,4.3-1.5,1.36.49,2.36,1.67,2.6,3.1l-2.6.3c0-.52-.32-1-.8-1.2-.4-.2-.8-.1-.9.2-.4,1,4,1.9,2.8,5v.1Z"/><path d="m305.63,63.11c1.57-2.07,4.53-2.47,6.6-.9,2.07,1.57,2.47,4.53.9,6.6-1.57,2.07-4.53,2.47-6.6.9-2.07-1.54-2.49-4.47-.95-6.54.02-.02.03-.04.05-.06Zm5.4,4.1c.72-.84.63-2.1-.2-2.82-.03-.03-.06-.05-.1-.08-.86-.7-2.12-.57-2.81.29-.03.04-.06.07-.09.11-.72.84-.63,2.1.2,2.82.03.03.06.05.1.08.86.7,2.12.57,2.81-.29.03-.04.06-.07.09-.11h0Z"/><path d="m321.23,71.81l-2.4,1.9c-.44-1.1-1.68-1.63-2.78-1.2-.19.07-.36.17-.52.3l-3.2,2.5-1.6-2.1,7.1-5.5,1.6,2.1-1.3,1c1.11-.43,2.37-.01,3,1h.1Z"/><path d="m319.63,82.91c-1.9.9-3.4-.4-4.3-2.1-.82-1.39-.7-3.14.3-4.4l2.2,1.5c-.5.46-.62,1.2-.3,1.8.3.6.6.8.9.6.9-.4-1.5-4.2,1.4-5.5,1.8-.8,3.4.2,4.2,1.9.66,1.28.54,2.83-.3,4l-2.1-1.5c.36-.38.44-.94.2-1.4-.2-.4-.5-.6-.8-.5-.9.4,1.6,4.1-1.4,5.5v.1Z"/></svg>