<?xml version="1.0" encoding="UTF-8"?><svg id="Layer_1" xmlns="http://www.w3.org/2000/svg" viewBox="0 0 400 400"><defs><style>.cls-1{fill:#009245;}.cls-2{fill:#a7a7a7;}.cls-3{stroke:#a5262d;}.cls-3,.cls-4,.cls-5{stroke-width:4px;}.cls-3,.cls-4,.cls-5,.cls-6{fill:none;stroke-miterlimit:10;}.cls-7{fill:#fab644;}.cls-4{stroke:#000;}.cls-8{fill:#fff;}.cls-9{fill:#cbcbcb;}.cls-10{fill:#cacaca;}.cls-11{fill:#0277b5;}.cls-12{fill:#546e7a;}.cls-5{stroke:#c000e2;}.cls-13{fill:#ffed58;}.cls-6{stroke:#231f20;stroke-width:2px;}.cls-14{fill:gray;}.cls-15{fill:#36464e;}.cls-16{fill:#015078;}.cls-17{fill:#0296e4;}.cls-18{fill:#788f9b;}.cls-19{fill:#0295e3;}.cls-20{fill:#0276b3;}.cls-21{fill:#fab643;}.cls-22{fill:#0376b4;}.cls-23{fill:#a8a8a8;}.cls-24{fill:#29abe2;}.cls-25{fill:#fbd734;}.cls-26{fill:#231f20;}</style></defs><line class="cls-8" x1="144.79" y1="200.25" x2="112.02" y2="199.75"/><line class="cls-6" x1="144.79" y1="200.25" x2="122.78" y2="199.91"/><polygon class="cls-26" points="125.08 192.47 112.02 199.75 124.85 207.43 125.08 192.47"/><line class="cls-8" x1="257.02" y1="200.25" x2="289.79" y2="199.75"/><line class="cls-6" x1="257.02" y1="200.25" x2="279.03" y2="199.91"/><polygon class="cls-26" points="276.96 207.43 289.79 199.75 276.73 192.47 276.96 207.43"/><line class="cls-8" x1="200.65" y1="144.39" x2="201.15" y2="111.61"/><line class="cls-6" x1="200.65" y1="144.39" x2="200.99" y2="122.37"/><polygon class="cls-26" points="208.44 124.68 201.16 111.61 193.48 124.45 208.44 124.68"/><line class="cls-8" x1="200.65" y1="255.61" x2="201.15" y2="288.39"/><line class="cls-6" x1="200.65" y1="255.61" x2="200.99" y2="277.63"/><polygon class="cls-26" points="193.48 275.55 201.15 288.39 208.43 275.32 193.48 275.55"/><circle class="cls-3" cx="200.9" cy="200" r="45"/><path class="cls-17" d="m190.9,200.6v-7.5c.1-5.5,4.7-9.9,10.2-9.7,4.6.1,8.6,3.4,9.5,7.9.1.6.2,1.2.2,1.9v7.5h-20l.1-.1Zm6.3-13.6c.5,0,.9-.4.9-.9h0c0-.5-.4-.9-.9-.9s-.9.4-.9.9.4.9.9.9h0Zm3.6-1.8c-.5,0-.9.4-.9.9s.4.9.9.9.9-.4.9-.9h0c0-.5-.4-.9-.9-.9h0Zm4.6,1c0-.5-.4-.9-.9-.9h0c-.5,0-1,.3-1,.8s.3,1,.8,1h.2c.5,0,.9-.3.9-.8v-.1h0Zm-11.8,2.7c-.5,0-.9.4-.9.9s.4.9.9.9.9-.4.9-.9h0c0-.5-.4-.9-.9-.9h0Zm4.6.9c0-.5-.4-.9-.9-.9s-.9.4-.9.9.4.9.9.9.9-.3.9-.8h0v-.1Zm2.7-.9c-.5,0-.9.4-.9.9s.4.9.9.9.9-.4.9-.9h0c0-.5-.4-.9-.9-.9h0Zm4.6.9c0-.5-.4-.9-.9-.9s-.9.4-.9.9.4.9.9.9.9-.3.9-.8h0v-.1Zm2.7-.9c-.5,0-.9.4-.9.9s.4.9.9.9.9-.4.9-.9h0c0-.5-.4-.9-.9-.9h0Zm-13.6,4.5c0-.5-.3-.9-.8-.9h0c-.5,0-.9.4-1,.9,0,.5.4.9.9,1,.5,0,.9-.4,1-.9h0l-.1-.1Zm7.3,3.6c0-.5-.4-.9-.9-.9s-.9.4-.9.9.4.9.9.9.9-.4.9-.8v-.1h0Zm2.7-.9c-.5,0-.9.4-.9.9s.4.9.9.9.9-.4.9-.9h0c0-.5-.4-.9-.9-.9h0Zm4.5,1c0-.5-.4-.9-.9-.9s-.9.4-.9.9.4.9.9.9.9-.3,1-.8h0l-.1-.1Zm-15.4-.9c-.5,0-.9.4-.9.9s.4.9.9.9.9-.4.9-.9h0c0-.5-.4-.9-.9-.9h0Zm14.5-1.8c.5,0,.9-.4.9-.9s-.4-.9-.9-.9-.9.4-.9.9h0c0,.5.4.9.9.9h0Zm-2.7-.9c0-.5-.4-.9-.9-1-.5,0-.9.4-1,.9,0,.5.4.9.9,1h0c.5,0,.9-.3.9-.8h0l.1-.1Zm-4.6-.9c-.5,0-.9.4-.9.9s.4.9.9.9.9-.4.9-.9h0c0-.5-.4-.9-.9-.9h0Zm-2.7.9c0-.5-.4-.9-.9-.9s-.9.4-.9.9.4.9.9.9.9-.3.9-.8h0v-.1Zm0,3.6c0-.5-.4-.9-.9-.9s-.9.4-.9.9.4.9.9.9.9-.3,1-.8h0l-.1-.1Z"/><path class="cls-10" d="m190.9,200.6h20.9c1.1,0,.9-.1.9.9v3.6h-23.6v-3.6c0-1-.1-.9.9-.9h.9Z"/><path class="cls-9" d="m215.4,205.1v8.1c0,6.7-4.6,12.5-11.1,14.1-.5.1-1,.2-1.4.3-1.3.2-2.7.2-4.1,0-1.6-.3-3.2-.8-4.6-1.5-4-2.1-6.9-5.9-7.7-10.3-.2-.9-.2-1.8-.2-2.6v-8.1h1.8v8.5c0,.8.1,1.6.3,2.4,1.5,6.8,8.3,11.1,15.1,9.6,2.8-.6,5.2-2.1,7-4.3,1.8-2,2.8-4.6,2.9-7.3.1-3,0-6,0-9h1.8l.2.1Z"/><path class="cls-10" d="m203.6,230.6c1.2,0,2.4-.1,3.6.3,2,.7,3.5,2.5,3.7,4.7,0,.5-.2.5-.5.5h-18.9c-.5,0-.6-.2-.5-.6.3-2.8,2.7-4.8,5.4-4.9h7.3-.1Z"/><path class="cls-7" d="m180.6,190.6c0-2.5.9-4.8,2.4-6.7.5-.6,1-.7,1.4-.3s.4.9,0,1.4c-2.7,3.3-2.7,8,0,11.2.4.6.4,1.1,0,1.4-.4.3-1,.2-1.3-.2h0c-1.6-1.9-2.4-4.3-2.4-6.8h-.1Z"/><path class="cls-21" d="m221.2,190.6c0,2.5-.9,4.9-2.4,6.8-.3.5-.8.6-1.3.4h0c-.5-.3-.5-.9,0-1.4,2.7-3.3,2.7-8,0-11.2-.5-.6-.5-1.1,0-1.4s1-.3,1.4.3c1.6,1.9,2.4,4.3,2.4,6.8l-.1-.3Z"/><path class="cls-21" d="m187.4,185.2c.3,0,.6.2.7.5.2.3.2.7,0,1-.4.5-.8,1.2-1,1.8-.7,1.9-.4,4.1.8,5.8,0,0,.1.2.2.3.3.4.3,1,0,1.3-.4.3-1,.3-1.3,0l-.1-.2c-.8-1-1.3-2.2-1.6-3.5-.4-2.3.1-4.6,1.5-6.5.2-.3.5-.5.9-.4l-.1-.1Z"/><path class="cls-21" d="m217,191.1c0,1.6-.7,3.2-1.7,4.4-.3.4-.8.6-1.2.3s-.6-.8-.3-1.2c0,0,0-.1.1-.2,1.8-2.7,1.8-5.1,0-7.8-.4-.4-.3-1,0-1.3h.1c.5-.3,1-.2,1.4.3,1.2,1.6,1.8,3.5,1.7,5.4l-.1.1Z"/><path class="cls-10" d="m185.4,205.1v.3c0,.4,0,.6-.6.6h-2.6c-.9,0-.5,0-.5-.4v-4.6c0-.4.2-.4.5-.4h2.5c.5,0,.7.1.6.6v3.9h.1Z"/><path class="cls-10" d="m216.3,201.5v-.3c0-.4.1-.6.6-.6h2.6c.9,0,.5,0,.5.4v4.6c0,.4-.2.4-.5.4h-2.5c-.5,0-.7-.1-.6-.6v-3.9h-.1Z"/><path class="cls-2" d="m185.4,205.1v-3.6h3.6v3.6h-3.6Z"/><path class="cls-2" d="m216.3,201.5v3.6h-3.6v-3.6h3.6Z"/><path class="cls-23" d="m203.6,230.6h-5.4c.2-1,.5-1.9.7-2.8,1.3.2,2.7.2,4.1,0,.2.9.4,1.9.7,2.8h-.1Z"/><path class="cls-11" d="m197.3,187c-.5,0-.9-.4-.9-.9s.4-.9.9-.9.9.4.9.9h0c0,.5-.4.9-.9.9h0Z"/><path class="cls-11" d="m200.9,185.2c.5,0,.9.4.9.9s-.4.9-.9.9-.9-.4-.9-.9h0c0-.5.4-.9.9-.9h0Z"/><path class="cls-11" d="m205.4,186.1c0,.5-.3.9-.8,1s-.9-.3-1-.8v-.2c0-.5.4-.9.9-.9h0c.5,0,.9.4.9.9Z"/><path class="cls-11" d="m193.6,188.8c.5,0,.9.4.9.9s-.4.9-.9.9-.9-.4-.9-.9h0c0-.5.4-.9.9-.9h0Z"/><path class="cls-11" d="m198.2,189.7c0,.5-.4.9-.9.9s-.9-.4-.9-.9.4-.9.9-.9h0c.5,0,.9.4.9.9Z"/><path class="cls-11" d="m200.9,188.8c.5,0,.9.4.9.9s-.4.9-.9.9-.9-.4-.9-.9h0c0-.5.4-.9.9-.9h0Z"/><path class="cls-11" d="m205.4,189.7c0,.5-.4.9-.9.9s-.9-.4-.9-.9.4-.9.9-.9h0c.5,0,.9.4.9.9h0Z"/><path class="cls-11" d="m208.1,188.8c.5,0,.9.4.9.9s-.4.9-.9.9-.9-.4-.9-.9h0c0-.5.4-.9.9-.9h0Z"/><path class="cls-11" d="m194.5,193.4c0,.5-.4.9-.9.9s-.9-.4-.9-.9.4-.9.9-.9h0c.5,0,.9.4.9.9h0Z"/><path class="cls-11" d="m201.8,196.9c0,.5-.4.9-.9.9s-.9-.4-.9-.9.4-.9.9-.9h0c.5,0,.9.4.9.9h0Z"/><path class="cls-11" d="m204.5,196.1c.5,0,.9.4.9.9s-.4.9-.9.9-.9-.4-.9-.9h0c0-.5.4-.9.9-.9h0Z"/><path class="cls-11" d="m209.1,197c0,.5-.4.9-.9.9s-.9-.4-.9-.9.4-.9.9-.9h0c.5,0,.9.4.9.9h0Z"/><path class="cls-11" d="m193.6,196.1c.5,0,.9.4.9.9s-.4.9-.9.9-.9-.4-.9-.9h0c0-.5.4-.9.9-.9h0Z"/><path class="cls-11" d="m208.1,194.2c-.5,0-.8-.5-.8-1,0-.4.4-.7.8-.8.5,0,.9.3,1,.8,0,.5-.3.9-.8,1h-.2Z"/><path class="cls-11" d="m205.4,193.3c0,.5-.4.9-.9.9s-.9-.4-.9-.9.4-.9.9-.9h0c.5,0,.9.4.9.9h0Z"/><path class="cls-11" d="m200.9,192.4c.5,0,.9.4.9.9s-.4.9-.9.9-.9-.4-.9-.9h0c0-.5.4-.9.9-.9h0Z"/><path class="cls-11" d="m198.2,193.3c0,.5-.4.9-.9.9s-.9-.4-.9-.9.4-.9.9-.9h0c.5,0,.9.4.9.9h0Z"/><path class="cls-11" d="m198.2,197c0,.5-.4.9-.9.9h0c-.5,0-.9-.5-.9-1s.5-.9,1-.9.9.4.9.9l-.1.1Z"/><path class="cls-16" d="m190.9,206.9v-1.8h19.9v1.8h-19.9Z"/><path class="cls-22" d="m210.9,213.3c-.1,5.5-4.7,9.9-10.2,9.7-5.3-.1-9.6-4.4-9.7-9.7h19.9Zm-6.2,6.1c.1,0,.2,0,.3-.1.9-.6,1.7-1.4,2.2-2.4.2-.4,0-.9-.3-1.1h0c-.4-.3-.9-.2-1.2.2-.5.7-1,1.3-1.7,1.8-.3.2-.4.7-.2,1,.1.4.4.5,1,.6h-.1Zm-3.2-.7h-.7c-.5,0-.8.4-.8.9s.3.9.8.9h0c.5,0,.9,0,1.4-.1.3-.1.6-.4.6-.8s-.2-.7-.5-.8c-.3-.1-.5,0-.7,0l-.1-.1Z"/><path class="cls-10" d="m210.9,213.3h-19.9v-4.6h19.9v4.6Z"/><path class="cls-20" d="m210.9,208.8h-19.9v-1.8h19.9v1.8Z"/><path class="cls-19" d="m204.7,219.4c-.5,0-.8-.2-1-.6s0-.8.2-1c.7-.5,1.2-1.1,1.7-1.8.3-.4.8-.5,1.2-.2.4.2.6.7.4,1.1h0c-.5,1-1.3,1.8-2.2,2.4,0,0-.2.1-.3.1Z"/><path class="cls-19" d="m201.5,218.8h.7c.3.2.5.5.5.8,0,.4-.2.7-.6.8-.4.2-.9.2-1.4.1-.5,0-.8-.4-.8-.9h0c0-.5.3-.9.8-.9h.7l.1.1Z"/><path d="m176.4,185.1l-1.1,2.5-6.4-2.7,3.4,4.8v.3c-.1,0-6,.8-6,.8l6.4,2.7-1.1,2.5-10.9-4.7,1.1-2.5,6.1-.9-3.6-5.1,1.1-2.5,10.9,4.7.1.1Z"/><path d="m169,177.8c-.6-.5-.7-1.5-.2-2.2.5-.6,1.5-.7,2.2-.2s.7,1.5.2,2.2c-.5.6-1.5.7-2.2.2Zm1.9,1.2l1.6-2,6.6,5.4-1.6,2-6.6-5.4Z"/><path d="m176.9,178.3c-1.6-2-1.4-4.7.6-6.3,1.3-1,3-1.3,4.4-.7l-.9,2.4c-.6-.3-1.3-.2-1.9.3-.9.7-1,1.8-.2,2.7.7.9,1.9,1,2.7.3.6-.5.8-1.1.7-1.8l2.5-.4c.3,1.5-.3,3.1-1.6,4.1-2,1.6-4.7,1.3-6.3-.6Z"/><path d="m187.4,166.2l1.3,2.6c-1,.3-2.2,1.4-1.4,2.9l1.7,3.4-2.3,1.1-3.7-7.6,2.3-1.1.7,1.4c-.2-1.2.6-2.2,1.5-2.6l-.1-.1Z"/><path d="m190.1,169.7c-.5-2.5,1-4.8,3.4-5.4s4.8.9,5.4,3.4c.5,2.5-1,4.8-3.4,5.4-2.4.5-4.8-.9-5.4-3.4Zm6.3-1.4c-.3-1.2-1.3-1.8-2.3-1.5-1.1.2-1.7,1.2-1.5,2.4.3,1.2,1.3,1.8,2.3,1.5,1.1-.2,1.7-1.2,1.5-2.4Z"/><path d="m210,168.6c-.2,2.5-2.3,4.3-4.5,4.1-1.1-.1-1.9-.6-2.4-1.3l-.4,4.2-2.5-.2,1.1-11.8,2.5.2v.8c.5-.6,1.4-.9,2.5-.8,2.2.2,3.9,2.3,3.6,4.9l.1-.1Zm-2.5-.2c.1-1.3-.6-2.1-1.8-2.3-1.2-.1-2.1.6-2.2,1.9-.1,1.3.6,2.1,1.8,2.3,1.2.1,2.1-.6,2.2-1.9Z"/><path d="m219.7,171.5l-2.1,4.8-2.3-1,1.9-4.5c.4-1,0-1.7-.8-2-.9-.4-1.7-.1-2.1,1l-1.8,4.3-2.3-1,4.7-10.9,2.3,1-1.6,3.9c.7-.4,1.6-.4,2.6,0,1.6.7,2.4,2.4,1.5,4.5v-.1Z"/><path d="m220.9,173.3c1.6-1.9,4.4-2.1,6.3-.5s2.2,4.4.5,6.3c-1.6,1.9-4.4,2.1-6.3.5s-2.2-4.4-.5-6.3Zm4.9,4.2c.8-.9.7-2.1-.2-2.8-.8-.7-2-.7-2.8.3-.8.9-.7,2.1.2,2.8.8.7,2,.7,2.8-.3Z"/><path d="m234.2,187l-4.4,2.8-1.4-2.2,4.1-2.6c.9-.6,1-1.4.5-2.1-.5-.8-1.3-1-2.3-.4l-3.9,2.5-1.4-2.2,7.2-4.5,1.4,2.2-.7.4c.8,0,1.6.6,2.2,1.5.9,1.5.7,3.3-1.3,4.6h0Z"/><path d="m233.3,194.3c.2.7.6,1.2,1.1,1.4l-.6,2.3c-1.3-.5-2.2-1.6-2.7-3.1-.8-2.8.6-5.1,3.1-5.7,2.4-.7,4.8.6,5.5,3.2.7,2.4-.7,4.7-3.2,5.4-.3,0-.7.2-1,.2l-1.6-5.8c-.8.5-.9,1.4-.6,2.3v-.2Zm3.4.7c.9-.5,1-1.4.8-2.1-.3-.9-.9-1.4-1.8-1.4l1,3.5Z"/><circle class="cls-5" cx="56.56" cy="200" r="45"/><path d="m21.16,197.5c-2.5-.5-4-2.8-3.4-5.3.3-1.5,1.4-2.7,2.7-3.2l.6,1.9c-.7.2-1.3.9-1.5,1.7-.3,1.5.5,2.7,2,3,1.5.3,2.7-.4,3-1.9.2-.8,0-1.7-.6-2.2l1.3-1.4c1,1,1.5,2.5,1.2,4-.6,2.5-2.8,3.9-5.3,3.4Z"/><path d="m24.46,189c-1.6-.8-2.2-2.7-1.4-4.4.8-1.6,2.7-2.3,4.3-1.5,1.6.8,2.2,2.7,1.4,4.4-.8,1.6-2.7,2.3-4.3,1.5Zm2.1-4.2c-.8-.4-1.6,0-1.9.6s-.1,1.5.7,1.9c.8.4,1.6,0,1.9-.6.4-.7.1-1.5-.7-1.9Z"/><path d="m33.66,174.7l2.8,2.5-1.2,1.4-2.7-2.4c-.5-.4-.9-.5-1.3,0s-.3,1,.2,1.5l2.6,2.3-1.2,1.4-2.7-2.4c-.5-.4-.9-.5-1.3,0s-.3,1,.2,1.5l2.6,2.3-1.2,1.4-4.5-4.1,1.2-1.4.4.4c-.1-.5,0-1.1.6-1.7.5-.5,1.1-.7,1.7-.6-.1-.6,0-1.2.6-1.9.9-1,2.3-1,3.4,0l-.2-.2Z"/><path d="m38.86,168.6l3.3,5.2-1.6,1-.3-.5c0,.6-.4,1.1-1.1,1.6-1,.7-2.4.5-3.3-.9l-2-3.2,1.6-1,1.9,3c.4.6,1,.7,1.5.4.6-.4.8-.9.3-1.7l-1.8-2.8,1.6-1-.1-.1Z"/><path d="m47.16,167.9l1.3,3.5-1.7.6-1.2-3.3c-.3-.7-.8-.9-1.4-.7-.6.2-.9.8-.7,1.6l1.1,3.2-1.7.6-2.1-5.8,1.7-.6.2.5c.2-.5.6-1,1.4-1.3,1.2-.4,2.5,0,3,1.6l.1.1Z"/><path d="m47.86,163.7c-.1-.6.3-1.2.9-1.3s1.2.3,1.3.9c.1.6-.3,1.2-.9,1.3-.6.1-1.2-.3-1.3-.9Zm.5,1.6l1.8-.3,1.1,6-1.8.3-1.1-6Z"/><path d="m51.86,167.7c0-1.8,1.3-3.3,3.1-3.3,1.2,0,2.3.6,2.8,1.5l-1.6,1c-.2-.4-.7-.7-1.2-.7-.8,0-1.4.6-1.3,1.5,0,.8.6,1.4,1.4,1.4.5,0,1-.3,1.2-.7l1.6.9c-.5,1-1.5,1.6-2.7,1.7-1.9,0-3.3-1.3-3.3-3.1v-.2Z"/><path d="m65.46,165.7l-1.1,6-1.8-.3v-.6c-.4.4-1,.6-1.8.4-1.6-.3-2.6-1.9-2.3-3.7s1.9-2.9,3.5-2.7c.8.1,1.3.5,1.7,1.1v-.6c.1,0,1.9.3,1.9.3l-.1.1Zm-2.4,2.7c.2-.9-.3-1.6-1.2-1.7s-1.5.3-1.7,1.2c-.2.9.3,1.6,1.2,1.7.8.2,1.5-.3,1.7-1.2Z"/><path d="m69.06,168.9l-.8,2c-.2.5.2.7,1,1l-.6,1.6c-2.3-.6-2.7-1.6-2.1-3.2l.8-2-.9-.4.6-1.6.9.4.4-1.1,1.9.2-.6,1.6,1.2.5-.6,1.6-1.2-.5v-.1Z"/><path d="m72.26,168.4l1.6.9-2.9,5.4-1.6-.9,2.9-5.4Zm.6-1.5c.3-.5,1-.7,1.5-.5.5.3.7,1,.5,1.5-.3.5-1,.7-1.5.5s-.7-1-.5-1.5Z"/><path d="m73.56,172.5c1.1-1.4,3.1-1.7,4.5-.6s1.7,3.1.6,4.5-3.1,1.7-4.5.6-1.7-3.1-.6-4.5Zm3.7,2.8c.5-.7.4-1.5-.2-2s-1.5-.4-2,.3c-.5.7-.4,1.5.2,2s1.5.4,2-.3Z"/><path d="m83.96,181.5l-2.9,2.4-1.2-1.4,2.7-2.2c.6-.5.6-1.1.2-1.5-.4-.5-1-.6-1.7,0l-2.6,2.1-1.2-1.4,4.7-3.9,1.2,1.4-.4.4c.6,0,1.2.2,1.7.9.8,1,.8,2.3-.5,3.4v-.2Z"/><path d="m85.56,189.6l-.4-.8-1.2.6-.9-1.8,1.2-.6-1.8-3.5,1.6-.8h6l1,1.8h-6l.8,1.6,1.6-.8.9,1.8-1.6.8.4.8-1.6.8v.1Z"/><path d="m90.36,197.9c-2.6.6-4.5-.9-5-3.2-.6-2.6.9-5,3.3-5.5s4.8,1,5.3,3.4c.4,1.6-.1,3.1-1.1,4.1l-1.3-1.4c.5-.5.7-1.3.5-2.3-.3-1.4-1.6-2.2-3.1-1.9-1.4.3-2.2,1.5-1.9,3.2.2,1.1.9,1.7,1.8,1.9l-.5-2.2,1.7-.4.9,4.2-.7.2.1-.1Z"/><path class="cls-24" d="m68.36,188c-8.5-.2-17.8-.2-26.3,0-14.8,1.9-22,20.9-11.6,31.8,2.2,3.3-1.6,9.5,2.3,11.8,3.3,1,5.2-3.4,7.4-5.1,9.2-1,20.3.5,29.8-.5,22.1-2.9,20.7-37.2-1.6-38.2v.2Z"/><path d="m53.56,209v4.2h-1.8v2.7h-4.5v-2.7h-7.8v-4.2l5.3-10.9h5l-5.4,11h2.8v-3.2h4.5v3.2h1.8l.1-.1Z"/><path d="m72.86,205.6v1.8c0,2.6-.8,4.7-2.5,6.4-1.6,1.6-3.8,2.4-6.4,2.4s-5.1-.9-6.9-2.7c-1.8-1.8-2.7-4-2.7-6.6s.9-4.8,2.7-6.6,4-2.7,6.6-2.7,3.2.4,4.6,1.1c1.4.7,2.5,1.7,3.2,3l-3.9,2.2c-.4-.6-.9-1-1.6-1.3-.7-.3-1.5-.5-2.3-.5-1.4,0-2.6.5-3.5,1.4s-1.4,2.1-1.4,3.5.4,2.5,1.3,3.5c.9,1,2.1,1.4,3.8,1.4s3.4-.8,4.1-2.3h-4.3v-3.9h9l.2-.1Z"/><circle class="cls-5" cx="343.44" cy="200" r="45"/><path d="m308.74,196.5c-2.5-.5-4-2.8-3.4-5.3.3-1.5,1.4-2.7,2.7-3.2l.6,1.9c-.7.2-1.3.9-1.5,1.7-.3,1.5.5,2.7,2,3,1.5.3,2.7-.4,3-1.9.2-.8,0-1.7-.6-2.2l1.3-1.4c1,1,1.5,2.5,1.2,4-.6,2.5-2.8,3.9-5.3,3.4Z"/><path d="m312.14,188c-1.6-.8-2.2-2.7-1.4-4.4.8-1.6,2.7-2.3,4.3-1.5s2.2,2.7,1.4,4.4c-.8,1.6-2.7,2.3-4.3,1.5Zm2.1-4.2c-.8-.4-1.6,0-1.9.6-.4.7-.1,1.5.7,1.9s1.6,0,1.9-.6c.4-.7.1-1.5-.7-1.9Z"/><path d="m321.34,173.7l2.8,2.5-1.2,1.4-2.7-2.4c-.5-.4-.9-.5-1.3,0s-.3,1,.2,1.5l2.6,2.3-1.2,1.4-2.7-2.4c-.5-.4-.9-.5-1.3,0s-.3,1,.2,1.5l2.6,2.3-1.2,1.4-4.5-4.1,1.2-1.4.4.4c-.1-.5,0-1.1.6-1.7.5-.5,1.1-.7,1.7-.6-.1-.6,0-1.2.6-1.9.9-1,2.3-1,3.4,0l-.2-.2Z"/><path d="m326.44,167.6l3.3,5.2-1.6,1-.3-.5c0,.6-.4,1.1-1.1,1.6-1,.7-2.4.5-3.3-.9l-2-3.2,1.6-1,1.9,3c.4.6,1,.7,1.5.4.6-.4.8-.9.3-1.7l-1.8-2.8,1.6-1-.1-.1Z"/><path d="m334.84,166.9l1.3,3.5-1.7.6-1.2-3.3c-.3-.7-.8-.9-1.4-.7-.6.2-.9.8-.7,1.6l1.1,3.2-1.7.6-2.1-5.8,1.7-.6.2.5c.2-.5.6-1,1.4-1.3,1.2-.4,2.5,0,3,1.6l.1.1Z"/><path d="m335.44,162.7c-.1-.6.3-1.2.9-1.3s1.2.3,1.3.9c.1.6-.3,1.2-.9,1.3-.6.1-1.2-.3-1.3-.9Zm.5,1.6l1.8-.3,1.1,6-1.8.3-1.1-6Z"/><path d="m339.54,166.7c0-1.8,1.3-3.3,3.1-3.3,1.2,0,2.3.6,2.8,1.5l-1.6,1c-.2-.4-.7-.7-1.2-.7-.8,0-1.4.6-1.3,1.5,0,.8.6,1.4,1.4,1.4.5,0,1-.3,1.2-.7l1.6.9c-.5,1-1.5,1.6-2.7,1.7-1.9,0-3.3-1.3-3.3-3.1v-.2Z"/><path d="m353.14,164.7l-1.1,6-1.8-.3v-.6c-.4.4-1,.6-1.8.4-1.6-.3-2.6-1.9-2.3-3.7.3-1.8,1.9-2.9,3.5-2.7.8.1,1.3.5,1.7,1.1v-.6c.1,0,1.9.3,1.9.3l-.1.1Zm-2.4,2.7c.2-.9-.3-1.6-1.2-1.7-.8-.2-1.5.3-1.7,1.2s.3,1.6,1.2,1.7c.8.2,1.5-.3,1.7-1.2Z"/><path d="m356.64,167.9l-.8,2c-.2.5.2.7,1,1l-.6,1.6c-2.3-.6-2.7-1.6-2.1-3.2l.8-2-.9-.4.6-1.6.9.4.4-1.1,1.9.2-.6,1.6,1.2.5-.6,1.6-1.2-.5v-.1Z"/><path d="m359.84,167.4l1.6.9-2.9,5.4-1.6-.9,2.9-5.4Zm.6-1.5c.3-.5,1-.7,1.5-.5.5.3.7,1,.5,1.5-.3.5-1,.7-1.5.5-.5-.3-.7-1-.5-1.5Z"/><path d="m361.14,171.5c1.1-1.4,3.1-1.7,4.5-.6s1.7,3.1.6,4.5c-1.1,1.5-3.1,1.7-4.5.6s-1.7-3.1-.6-4.5Zm3.7,2.8c.5-.7.4-1.5-.2-2s-1.5-.4-2,.3-.4,1.5.2,2,1.5.4,2-.3Z"/><path d="m371.54,180.4l-2.9,2.4-1.2-1.4,2.7-2.2c.6-.5.6-1.1.2-1.5-.4-.5-1-.6-1.7,0l-2.6,2.1-1.2-1.4,4.7-3.9,1.2,1.4-.4.4c.6,0,1.2.2,1.7.9.8,1,.8,2.3-.5,3.4v-.2Z"/><path d="m374.14,187.4c-1.7.9-3.2,0-4-1.4-.6-1.2-.6-2.5.2-3.5l1.6,1c-.4.4-.5.9-.2,1.6.4.7.9.8,1.4.6s.7-.8.3-1.5l-.2-.4.6-1.2,2.5.5-1.5-2.8,1.6-.9,2.6,4.9-1.4.7-2.4-.4c.2,1.1-.2,2.2-1.3,2.7l.2.1Z"/><path d="m377.94,196.5c-2.6.6-4.5-.8-5.1-3.2-.6-2.6.9-5,3.3-5.5,2.4-.6,4.8.9,5.4,3.4.4,1.6-.1,3.1-1.1,4.1l-1.3-1.4c.5-.5.7-1.3.5-2.3-.3-1.4-1.6-2.2-3.1-1.9-1.4.3-2.2,1.6-1.9,3.2.3,1.1.9,1.7,1.8,1.8l-.5-2.2,1.7-.4,1,4.2-.7.2Z"/><path class="cls-1" d="m356.24,188c-8.5-.2-17.8-.2-26.3,0-14.8,1.9-22,20.9-11.6,31.8,2.2,3.3-1.6,9.5,2.3,11.8,3.3,1,5.2-3.4,7.4-5.1,9.2-1,20.3.5,29.8-.5,22.1-2.9,20.7-37.2-1.6-38.2v.2Z"/><path d="m336.44,205.3c1.1.4,2.1,1,2.8,1.8s1,1.9,1,3.1c0,1.9-.6,3.4-1.9,4.4-1.3,1-2.8,1.6-4.7,1.6s-2.8-.3-3.9-1c-1.1-.7-2-1.7-2.5-3l4-2.3c.4,1.2,1.2,1.9,2.4,1.9s1.1-.2,1.5-.5c.3-.3.5-.7.5-1.2s-.2-.9-.5-1.2-.8-.4-1.5-.4h-1l-1.8-2.6,2.9-3.5h-6v-4.4h11.6v3.6l-3,3.7h.1Z"/><path d="m359.94,205.6v1.8c0,2.6-.8,4.7-2.5,6.4-1.6,1.6-3.8,2.4-6.4,2.4s-5.1-.9-6.9-2.7c-1.8-1.8-2.7-4-2.7-6.6s.9-4.8,2.7-6.6,4-2.7,6.6-2.7,3.2.4,4.6,1.1c1.4.7,2.5,1.7,3.2,3l-3.9,2.2c-.4-.6-.9-1-1.6-1.3-.7-.3-1.5-.5-2.3-.5-1.4,0-2.6.5-3.5,1.4-.9.9-1.4,2.1-1.4,3.5s.4,2.5,1.3,3.5c.9,1,2.1,1.4,3.8,1.4s3.4-.8,4.1-2.3h-4.3v-3.9h9l.2-.1Z"/><circle class="cls-5" cx="200.9" cy="58.43" r="45"/><path d="m166.2,54.93c-2.5-.5-4-2.8-3.4-5.3.3-1.5,1.4-2.7,2.7-3.2l.6,1.9c-.7.2-1.3.9-1.5,1.7-.3,1.5.5,2.7,2,3s2.7-.4,3-1.9c.2-.8,0-1.7-.6-2.2l1.3-1.4c1,1,1.5,2.5,1.2,4-.6,2.5-2.8,3.9-5.3,3.4Z"/><path d="m169.6,46.43c-1.6-.8-2.2-2.7-1.4-4.4.8-1.6,2.7-2.3,4.3-1.5s2.2,2.7,1.4,4.4c-.8,1.6-2.7,2.3-4.3,1.5Zm2.1-4.2c-.8-.4-1.6,0-1.9.6-.4.7-.1,1.5.7,1.9s1.6,0,1.9-.6c.4-.7.1-1.5-.7-1.9Z"/><path d="m178.8,32.13l2.8,2.5-1.2,1.4-2.7-2.4c-.5-.4-.9-.5-1.3,0s-.3,1,.2,1.5l2.6,2.3-1.2,1.4-2.7-2.4c-.5-.4-.9-.5-1.3,0s-.3,1,.2,1.5l2.6,2.3-1.2,1.4-4.5-4.1,1.2-1.4.4.4c-.1-.5,0-1.1.6-1.7.5-.5,1.1-.7,1.7-.6-.1-.6,0-1.2.6-1.9.9-1,2.3-1,3.4,0l-.2-.2Z"/><path d="m183.9,26.03l3.3,5.2-1.6,1-.3-.5c0,.6-.4,1.1-1.1,1.6-1,.7-2.4.5-3.3-.9l-2-3.2,1.6-1,1.9,3c.4.6,1,.7,1.5.4.6-.4.8-.9.3-1.7l-1.8-2.8,1.6-1-.1-.1Z"/><path d="m192.3,25.33l1.3,3.5-1.7.6-1.2-3.3c-.3-.7-.8-.9-1.4-.7-.6.2-.9.8-.7,1.6l1.1,3.2-1.7.6-2.1-5.8,1.7-.6.2.5c.2-.5.6-1,1.4-1.3,1.2-.4,2.5,0,3,1.6l.1.1Z"/><path d="m192.9,21.13c-.1-.6.3-1.2.9-1.3s1.2.3,1.3.9c.1.6-.3,1.2-.9,1.3-.6.1-1.2-.3-1.3-.9Zm.5,1.6l1.8-.3,1.1,6-1.8.3-1.1-6Z"/><path d="m197,25.13c0-1.8,1.3-3.3,3.1-3.3,1.2,0,2.3.6,2.8,1.5l-1.6,1c-.2-.4-.7-.7-1.2-.7-.8,0-1.4.6-1.3,1.5,0,.8.6,1.4,1.4,1.4.5,0,1-.3,1.2-.7l1.6.9c-.5,1-1.5,1.6-2.7,1.7-1.9,0-3.3-1.3-3.3-3.1v-.2Z"/><path d="m210.6,23.13l-1.1,6-1.8-.3v-.6c-.4.4-1,.6-1.8.4-1.6-.3-2.6-1.9-2.3-3.7s1.9-2.9,3.5-2.7c.8.1,1.3.5,1.7,1.1v-.6c.1,0,1.9.3,1.9.3l-.1.1Zm-2.4,2.7c.2-.9-.3-1.6-1.2-1.7-.8-.2-1.5.3-1.7,1.2s.3,1.6,1.2,1.7c.8.2,1.5-.3,1.7-1.2Z"/><path d="m214.1,26.33l-.8,2c-.2.5.2.7,1,1l-.6,1.6c-2.3-.6-2.7-1.6-2.1-3.2l.8-2-.9-.4.6-1.6.9.4.4-1.1,1.9.2-.6,1.6,1.2.5-.6,1.6-1.2-.5v-.1Z"/><path d="m217.3,25.83l1.6.9-2.9,5.4-1.6-.9,2.9-5.4Zm.6-1.5c.3-.5,1-.7,1.5-.5.5.3.7,1,.5,1.5-.3.5-1,.7-1.5.5-.5-.3-.7-1-.5-1.5Z"/><path d="m218.6,29.93c1.1-1.4,3.1-1.7,4.5-.6s1.7,3.1.6,4.5c-1.1,1.5-3.1,1.7-4.5.6s-1.7-3.1-.6-4.5Zm3.7,2.8c.5-.7.4-1.5-.2-2s-1.5-.4-2,.3-.4,1.5.2,2,1.5.4,2-.3Z"/><path d="m229,38.83l-2.9,2.4-1.2-1.4,2.7-2.2c.6-.5.6-1.1.2-1.5-.4-.5-1-.6-1.7,0l-2.6,2.1-1.2-1.4,4.7-3.9,1.2,1.4-.4.4c.6,0,1.2.2,1.7.9.8,1,.8,2.3-.5,3.4v-.2Z"/><path d="m227.6,41.03l4,1.2c.7.2,1.3.3,1.8,0,.5-.3.6-.7.4-1.2-.3-.5-.8-.7-1.4-.7v-1.9c1.5-.1,2.5.6,3.1,1.7.7,1.4.5,3-1.1,3.8-.9.5-1.9.4-3,0l-1.9-.6,1.3,2.5-1.7.9-2.7-5.2,1.3-.7-.1.2Z"/><path d="m235.4,54.53c-2.5.6-4.5-.8-5.1-3.1-.6-2.6.8-5,3.2-5.6,2.4-.6,4.8.8,5.4,3.3.4,1.6,0,3.1-1,4.1l-1.3-1.4c.5-.5.7-1.3.5-2.3-.3-1.4-1.6-2.2-3.1-1.8-1.4.3-2.2,1.6-1.8,3.2.3,1.1.9,1.7,1.8,1.8l-.5-2.2,1.7-.4,1,4.2-.7.2h-.1Z"/><path class="cls-14" d="m213.7,46.43c-8.5-.2-17.8-.2-26.3,0-14.8,1.9-22,20.9-11.6,31.8,2.2,3.3-1.6,9.5,2.3,11.8,3.3,1,5.2-3.4,7.4-5.1,9.2-1,20.3.5,29.8-.5,22.1-2.9,20.7-37.2-1.6-38.2v.2Z"/><path d="m184.9,74.23v-3.3l5.9-6.2c.6-.6,1-1.2,1.3-1.6.3-.4.4-.8.4-1.2s-.1-.8-.4-1.1c-.3-.3-.7-.4-1.2-.4-1.1,0-1.9.6-2.4,1.9l-3.9-2.2c.6-1.3,1.4-2.4,2.5-3.1,1.1-.7,2.4-1,3.7-1s3.2.5,4.4,1.5,1.8,2.4,1.8,4.1-.2,2-.7,2.9-1.2,1.8-2.1,2.8l-2.4,2.5h5.6v4.4h-12.5Z"/><path d="m216.7,64.03v1.8c0,2.6-.8,4.7-2.5,6.4-1.6,1.6-3.8,2.4-6.4,2.4s-5.1-.9-6.9-2.7c-1.8-1.8-2.7-4-2.7-6.6s.9-4.8,2.7-6.6c1.8-1.8,4-2.7,6.6-2.7s3.2.4,4.6,1.1c1.4.7,2.5,1.7,3.2,3l-3.9,2.2c-.4-.6-.9-1-1.6-1.3-.7-.3-1.5-.5-2.3-.5-1.4,0-2.6.5-3.5,1.4-.9.9-1.4,2.1-1.4,3.5s.4,2.5,1.3,3.5c.9,1,2.1,1.4,3.8,1.4s3.4-.8,4.1-2.3h-4.3v-3.9h9l.2-.1Z"/><path class="cls-25" d="m217.12,334.58c.56,0,1.12.02,1.68.03.95,0,1.73.78,1.75,1.74.01.88,0,1.76,0,2.63,0,7.43,0,14.85,0,22.28,0,.48-.02.98-.16,1.44-.17.55-.85,1.05-1.43,1.05-6.29,0-12.58,0-18.86,0-.03,0-.06,0-.09-.01,0-1.71,0-3.42,0-5.13,1.31,0,2.62,0,3.93-.01.17,0,.36.04.36-.23.01-.65.06-1.31-.09-1.93-.41-1.67-.89-3.33-1.32-4.99-.12-.45-.24-.9-.4-1.33-.25-.68.22-1.04.63-1.42.68-.62.96-1.4,1.12-2.3.34-1.87-1.24-4.12-3.02-4.69-.06-.1-.14-.15-.25-.09-.09-.02-.18-.04-.27-.06-.04-.06-.09-.07-.16-.04-.17-.02-.35-.05-.52-.07,0-2.27,0-4.54,0-6.81,3.22,0,6.45-.01,9.67-.02.2,0,.4-.02.6-.02,1.15.04,2.31.05,3.46,0,1.13.06,2.26.05,3.39,0Z"/><path class="cls-13" d="m200,358.61c0,1.71,0,3.42,0,5.13-.65,0-1.29.01-1.94.01-5.48,0-10.97-.03-16.45.02-1.44.01-2.19-.77-2.18-2.19.05-8.39.03-16.78,0-25.17,0-1.01.81-1.81,1.77-1.79.56.01,1.12-.01,1.68-.02,1.13.03,2.26.06,3.39-.01,1.15.07,2.3.04,3.45.01.19,0,.37.02.56.02,3.24,0,6.48,0,9.71.01,0,2.27,0,4.54,0,6.81-.36.17-.77.09-1.15.24-1.6.62-2.66,1.7-3.04,3.41-.07.04-.12.08-.03.15-.13,1.41.02,2.7,1.28,3.63.4.29.55.74.39,1.29-.1.34-.23.67-.31,1.01-.22.94-.47,1.88-.72,2.81-.18.69-.4,1.37-.56,2.07-.16.69-.12,1.39-.15,2.09-.01.35.08.47.45.46,1.28-.02,2.56,0,3.84,0Z"/><path class="cls-18" d="m186.27,334.58c-1.13.07-2.26.04-3.39.01,0-3.05-.02-6.1.02-9.15.02-1.41.21-2.81.62-4.18.49-1.65,1.19-3.2,2.14-4.63,1.18-1.79,2.65-3.31,4.4-4.56,1.15-.82,2.36-1.55,3.68-2.01,1.32-.46,2.65-.91,4.07-1.01.8-.06,1.59-.18,2.39-.16,1.99.03,3.92.43,5.78,1.13,1.87.7,3.55,1.72,5.08,2.99,1.32,1.1,2.4,2.4,3.32,3.83.65,1.02,1.17,2.1,1.61,3.23.24.62.41,1.27.62,1.9.2.57.23,1.2.3,1.81.39,3.6.1,7.21.19,10.81-1.13.04-2.26.06-3.39,0,0-2.58-.02-5.15.01-7.73.02-1.48-.17-2.93-.53-4.36-.51-2.01-1.44-3.82-2.8-5.37-1.66-1.9-3.68-3.33-6.11-4.1-1.73-.55-3.48-.72-5.3-.61-1.68.1-3.26.5-4.76,1.2-2.5,1.16-4.46,2.94-5.92,5.29-1.26,2.02-1.94,4.24-2.03,6.59-.11,3.03-.02,6.07-.02,9.11Z"/><path class="cls-12" d="m210.27,334.58c0-2.73.02-5.47,0-8.2-.02-1.45-.22-2.89-.8-4.24-.46-1.07-1.08-2.04-1.85-2.94-1.14-1.33-2.57-2.25-4.18-2.83-1.49-.54-3.05-.72-4.65-.52-.98.12-1.93.35-2.81.73-2.46,1.07-4.27,2.83-5.38,5.29-.52,1.15-.73,2.36-.79,3.61-.15,3.03-.02,6.07-.07,9.1-1.15.02-2.3.05-3.45-.02,0-3.04-.09-6.08.02-9.11.09-2.34.77-4.57,2.03-6.59,1.46-2.34,3.42-4.12,5.92-5.29,1.5-.7,3.08-1.1,4.76-1.2,1.82-.11,3.57.07,5.3.61,2.44.77,4.45,2.2,6.11,4.1,1.36,1.55,2.29,3.36,2.8,5.37.36,1.43.55,2.88.53,4.36-.03,2.58-.01,5.15-.01,7.73-1.15.06-2.31.04-3.46,0Z"/><path class="cls-15" d="m200,358.61c-1.28,0-2.56-.02-3.84,0-.37,0-.46-.11-.45-.46.03-.7-.02-1.41.15-2.09.17-.69.38-1.38.56-2.07.25-.94.5-1.87.72-2.81.08-.34.21-.68.31-1.01.16-.55,0-.99-.39-1.29-1.26-.93-1.41-2.23-1.28-3.63.07-.04.07-.09.03-.15.38-1.7,1.44-2.78,3.04-3.41.38-.15.79-.06,1.15-.24.17.02.35.05.52.07.03.09.08.14.16.04.09.02.18.04.27.06.05.12.15.1.25.09,1.78.57,3.36,2.82,3.02,4.69-.16.9-.45,1.67-1.12,2.3-.41.38-.88.73-.63,1.42.16.43.29.88.4,1.33.43,1.67.91,3.32,1.32,4.99.15.62.1,1.28.09,1.93,0,.28-.19.23-.36.23-1.31,0-2.62,0-3.93.01Z"/><path class="cls-12" d="m201.2,341.71c-.1,0-.2.03-.25-.09.11-.05.19,0,.25.09Z"/><path class="cls-12" d="m200.68,341.55c-.08.1-.12.05-.16-.04.06-.04.12-.02.16.04Z"/><path class="cls-18" d="m195.81,345.08c.04.06.04.12-.03.15-.09-.07-.03-.12.03-.15Z"/><circle class="cls-4" cx="200.15" cy="338.91" r="44.02"/></svg>