<?xml version="1.0" encoding="UTF-8"?><svg id="Layer_1" xmlns="http://www.w3.org/2000/svg" viewBox="0 0 400 400"><defs><style>.cls-1{stroke:#a5262d;}.cls-1,.cls-2{stroke-width:4px;}.cls-1,.cls-2,.cls-3{stroke-miterlimit:10;}.cls-1,.cls-2,.cls-3,.cls-4{fill:none;}.cls-2{stroke:#000;}.cls-5{fill:#546e7a;}.cls-6{fill:#f15a24;}.cls-7{fill:#bacce9;}.cls-8{fill:#c7c7c7;}.cls-9{fill:#bdbdbd;}.cls-10{fill:#ecf5fe;}.cls-11{fill:#ffed58;}.cls-3{stroke:#231f20;stroke-width:2px;}.cls-12{fill:#36464e;}.cls-13{fill:#b9cce9;}.cls-14{fill:#aaa;}.cls-15{fill:#788f9b;}.cls-16{fill:#484645;}.cls-17{fill:#b3b3b3;}.cls-18{fill:#fbd734;}.cls-19{fill:#d7e1f2;}.cls-20{fill:#231f20;}</style></defs><circle class="cls-1" cx="309.97" cy="59.93" r="45"/><path d="m280.66,44.73c-2.78-2.42-3.08-6.64-.65-9.42.11-.13.23-.26.35-.38,1.53-1.71,3.84-2.51,6.1-2.1l-.7,3c-1.22-.24-2.47.17-3.3,1.1-1.42,1.64-1.24,4.12.4,5.54,1.54,1.33,3.83,1.27,5.3-.14.91-.88,1.26-2.19.9-3.4l2.9-.9c.92,3.67-1.3,7.39-4.97,8.31-2.29.58-4.73-.07-6.43-1.71l.1.1Z"/><path d="m292.16,36.03c-1.21-2.48-.18-5.48,2.31-6.68,2.48-1.21,5.48-.18,6.68,2.31,1.21,2.48.18,5.46-2.29,6.68-2.48,1.22-5.47.19-6.69-2.28,0,0,0-.01,0-.02Zm6.5-3.1c-.57-1.05-1.89-1.45-2.94-.88s-1.45,1.89-.88,2.94c.54,1.01,1.78,1.42,2.82.94,1.08-.48,1.57-1.74,1.09-2.82-.03-.06-.06-.12-.09-.18Z"/><path d="m313.47,29.93c.41,2.62-1.38,5.08-4,5.5-1.04.15-2.09-.14-2.9-.8l.5,4.7-2.8.3-1.5-13.18,2.8-.3v.9c.69-.86,1.7-1.4,2.8-1.5,2.63-.18,4.92,1.81,5.1,4.44,0,.02,0,.04,0,.06v-.12Zm-2.8.3c-.08-1.25-1.16-2.19-2.4-2.11-.03,0-.07,0-.1,0-1.21.08-2.12,1.13-2.03,2.34,0,.09.02.18.03.26.08,1.25,1.16,2.19,2.4,2.11.03,0,.07,0,.1,0,1.21-.08,2.12-1.13,2.03-2.34,0-.09-.02-.18-.03-.26h0Z"/><path d="m325.66,32.63c-.52,2.58-3.01,4.27-5.6,3.8-1.04-.24-1.94-.89-2.5-1.8l-1.1,4.6-2.8-.7,3.2-12.9,2.8.7-.2.9c.9-.55,1.99-.69,3-.4,2.53.76,3.97,3.43,3.21,5.96,0,.01,0,.02-.01.04v-.2Zm-2.8-.7c.27-1.22-.5-2.44-1.72-2.71-1.22-.27-2.44.5-2.71,1.72-.26,1.19.46,2.37,1.63,2.69,1.17.36,2.41-.3,2.77-1.47.02-.07.04-.15.06-.23h-.03Z"/><path d="m330.26,38.33c.57.35,1.24.49,1.9.4l1.2,2.4c-1.51.56-3.2.3-4.47-.68-2.7-1.8-3.2-4.7-1.6-7.1,1.17-2.5,4.14-3.58,6.65-2.42,2.5,1.17,3.58,4.14,2.42,6.65-.2.42-.45.82-.76,1.17-.2.3-.5.6-.7.9l-5.6-3.7c-.16.98.32,1.94,1.2,2.4l-.23-.02Zm3.4-1.9c.37-.91-.02-1.96-.9-2.4-.77-.61-1.88-.57-2.6.1l3.4,2.3h.1Z"/><path d="m344.26,41.53l-2.4,2.1c-.6-1-2.1-2-3.5-.7l-3.2,2.8-1.9-2.1,7.2-6.2,1.9,2.1-1.3,1.1c1.18-.42,2.5-.06,3.3.9h-.1Z"/><rect class="cls-6" x="283.97" y="51.93" width="52" height="37" rx="2.9" ry="2.9"/><path class="cls-16" d="m301.26,82.73c-3.29.1-6.48-1.17-8.8-3.5-4.67-4.94-4.67-12.66,0-17.6,2.31-2.36,5.5-3.63,8.8-3.5,3.5,0,4.1.5,5.9,1.5,1.77.96,3.26,2.37,4.3,4.1l-5.2,3c-.48-.83-1.17-1.52-2-2-.92-.49-1.96-.73-3-.7-1.72-.07-3.38.59-4.6,1.8-1.18,1.23-1.8,2.9-1.7,4.6-.23,3.31,2.27,6.17,5.58,6.39.24.02.48.02.72,0,1.05.14,2.12-.11,3-.7.85-.45,1.55-1.15,2-2l5.2,3c-1.04,1.73-2.53,3.14-4.3,4.1-1.84,1.01-3.9,1.53-6,1.5h.1Z"/><path class="cls-16" d="m324.57,65.33h5.6v16.9h-5.6v-1.7c-1.1,1.47-2.86,2.3-4.7,2.2-1.72.12-3.39-.59-4.5-1.9-1.2-1.2-1.7-3-1.7-5.4v-10.1h5.6v9.4c-.06.74.19,1.46.7,2,.48.47,1.13.73,1.8.7.75.01,1.47-.28,2-.8.53-.65.78-1.47.7-2.3v-9h.1Z"/><circle class="cls-1" cx="200" cy="59.93" r="45"/><rect class="cls-17" x="174" y="49.93" width="52" height="37" rx="2.9" ry="2.9"/><path class="cls-16" d="m200.79,80.23l-1.1-3.4h-8l-1,3.4h-6.5l7.5-23.6h7.6l7.8,23.6h-6.3Zm-7.6-8.6h4.8l-2.4-8-2.4,8Z"/><path class="cls-16" d="m208.5,80.23v-24.7h5.6v24.7h-5.6Z"/><path d="m176.09,38.63l-2.4,3.1,1,1.4-1.6,2.1-6.1-9.3,1.9-2.4,10.5,3.7-1.6,2.1-1.6-.6-.1-.1Zm-2.2-.8l-3.8-1.38,2.3,3.3,1.5-1.92Z"/><path d="m172.79,28.83l1.7-1.4,7,8.4-1.7,1.4-7-8.4Z"/><path d="m185,25.03l3.6,6.6-2,1.1-.3-.6c-.11.81-.64,1.49-1.4,1.8-1.33.74-3.01.25-3.75-1.08-.06-.1-.11-.21-.15-.32l-2.2-4,2-1.1,2,3.8c.29.65,1.06.94,1.71.65.03-.01.06-.03.09-.05.67-.32.95-1.12.63-1.79-.04-.07-.08-.15-.13-.21l-2-3.6,2-1.1-.1-.1Z"/><path d="m199.59,24.53l.8,4.5-2.2.4-.8-4.3c-.03-.6-.54-1.05-1.14-1.02-.06,0-.11.01-.16.02-.7.1-1.1.7-.9,1.6l.7,4.2-2.2.4-.8-4.3c-.03-.6-.54-1.05-1.14-1.02-.06,0-.11.01-.16.02-.7.1-1.1.7-.9,1.6l.7,4.2-2.2.4-1.3-7.4,2.2-.4v.7c.41-.67,1.12-1.11,1.9-1.2.76-.23,1.58,0,2.1.6.37-.79,1.13-1.33,2-1.4,1.7-.3,3,.7,3.3,2.6l.2-.2Z"/><path d="m201.89,22.13l2.2.2-.6,7.5-2.2-.2.6-7.5Zm0-2c.08-.75.75-1.29,1.5-1.2.75.08,1.29.75,1.2,1.5s-.75,1.29-1.5,1.2c0,0,0,0,0,0-.72-.05-1.26-.66-1.21-1.38,0-.04,0-.08.01-.12Z"/><path d="m212.89,27.23l-1.2,4.4-2.2-.6,1.1-4.1c.24-.68-.11-1.42-.78-1.66-.04-.01-.08-.03-.12-.04-.69-.26-1.46.08-1.72.76-.04.11-.07.22-.08.34l-1.1,3.9-2.2-.6,2-7.2,2.2.6-.2.7c.68-.46,1.53-.57,2.3-.28,1.49.39,2.38,1.91,2,3.4-.03.1-.06.2-.1.3l.1.08Z"/><path d="m222.5,29.23l-3.8,6.4-1.9-1.18.4-.6c-.77.29-1.63.18-2.3-.3-1.32-.77-1.78-2.46-1.01-3.78.06-.11.13-.22.21-.32l2.4-4,1.9,1.2-2.2,3.7c-.41.5-.34,1.24.16,1.65.07.06.15.11.24.15.63.41,1.48.23,1.89-.4.04-.06.08-.13.11-.2l2.1-3.5,1.9,1.2-.1-.02Z"/><path d="m230.29,41.53l-3.5,3-1.5-1.7,3.4-2.9c.6-.5.7-1.1.2-1.6-.43-.5-1.18-.55-1.68-.12-.04.04-.08.08-.12.12l-3.2,2.7-1.5-1.7,3.4-2.9c.6-.5.7-1.1.2-1.6-.43-.5-1.18-.55-1.68-.12-.04.04-.08.08-.12.12l-3.2,2.7-1.5-1.7,5.7-4.9,1.5,1.7-.5.4c.76,0,1.49.34,2,.9.54.56.73,1.36.5,2.1.85-.02,1.66.35,2.2,1,1.03,1.19.9,3-.29,4.03-.07.06-.14.11-.21.17l-.1.3Z"/><circle class="cls-1" cx="90.03" cy="59.93" r="45"/><path d="m70.44,30.73c1.57,2.02,1.21,4.92-.8,6.5l-1.6,1.22,2.6,3.3-2.4,1.9-8.3-10.4,3.9-3.1c1.97-1.6,4.87-1.31,6.47.66,0,.01.02.02.03.04l.1-.12Zm-2.4,1.9c-.47-.71-1.43-.9-2.14-.43-.06.04-.11.08-.16.13l-1.6,1.2,2.1,2.7,1.6-1.2c.69-.56.79-1.58.23-2.27,0-.01-.02-.02-.03-.03v-.1Z"/><path d="m70.89,25.03l2.6-1.2,5.75,12.62-2.6,1.2-5.75-12.62Z"/><path d="m88.24,24.53l1.7,9.4-2.8.5-.2-.9c-.58.9-1.53,1.49-2.6,1.6-2.61.37-5.03-1.46-5.4-4.07,0,0,0-.02,0-.03-.62-2.51.92-5.04,3.43-5.66.06-.01.11-.03.17-.04,1.04-.24,2.13-.03,3,.6l-.2-.9,2.8-.5h.1Zm-2,5.2c-.14-1.2-1.22-2.06-2.42-1.93-.06,0-.12.02-.18.03-1.17.14-2,1.2-1.87,2.36.01.11.04.23.07.34.14,1.2,1.22,2.06,2.42,1.93.06,0,.12-.02.18-.03,1.17-.14,2-1.2,1.87-2.36-.01-.11-.04-.23-.07-.34Z"/><path d="m98.74,32.23c-.3,2.2-2.3,2.9-4.3,2.6-1.73-.04-3.25-1.16-3.8-2.8l2.6-1.1c.14.73.76,1.26,1.5,1.3.7,0,1,0,1.1-.5.1-1-4.6-1.1-4.2-4.3.3-2.1,2.1-2.9,4.1-2.6,1.51.13,2.82,1.1,3.4,2.5l-2.6,1c-.16-.54-.64-.94-1.2-1-.5,0-.8,0-.9.4-.1,1.1,4.6,1,4.1,4.4l.2.1Z"/><path d="m104.44,30.23l-1.2,3.1c-.3.8.3,1.1,1.5,1.5l-.9,2.4c-3.6-1-4.2-2.4-3.3-4.9l1.2-3.2-1.4-.5,1-2.6,1.4.5.6-1.7,3,.2-.9,2.5,1.8.7-1,2.6-1.8-.7v.1Z"/><path d="m109.74,29.63l2.4,1.5-4.9,8.2-2.35-1.5,4.85-8.2Zm1.1-2.3c.47-.8,1.5-1.07,2.3-.6.8.47,1.07,1.5.6,2.3-.47.8-1.5,1.07-2.3.6-.78-.47-1.04-1.49-.56-2.28,0,0,0-.01.01-.02h-.05Z"/><path d="m111.44,36.13c1.78-2.01,4.86-2.2,6.87-.41.08.07.15.14.23.21,1.3,1.19,1.84,2.99,1.4,4.7l-2.8-.7c.21-.73-.02-1.51-.6-2-.92-.82-2.33-.73-3.15.19-.76.86-.74,2.17.05,3.01.53.59,1.36.79,2.1.5l.8,2.7c-1.7.51-3.54.05-4.8-1.2-2.02-1.89-2.12-5.05-.23-7.07.01-.01.02-.02.03-.03l.1.1Z"/><path class="cls-19" d="m113.41,56.16v.1h-1.6q-.68,0-.68.69v30.33c.02.44-.13.88-.42,1.21-.19.22-.49.25-.68.45h-10.68c0-.09,0-.18,0-.27l-1.23-5.36c-.72-3.12-1.43-6.23-2.15-9.35-1.05-4.55-2.11-9.1-3.16-13.64-.92-4-1.84-7.97-2.75-11.92h15c.23-.04.46.03.63.18v6.21c.02.73.59,1.32,1.32,1.37h3.78c.28,0,.38-.09.38-.36v-1.84c.12,0,.17.11.24.19l2,2.01Z"/><path class="cls-13" d="m113.41,87.85c-.39.8-1.26,1.25-2.14,1.1-.41-.02-.82-.02-1.23,0,.19-.2.49-.24.67-.45.29-.34.44-.77.42-1.21v-30.35q0-.69.69-.69h1.59v31.6Z"/><path class="cls-9" d="m69.78,48.31v-.9c-.16-.88.3-1.75,1.11-2.11h2c0,.07.04.14.1.19.6.38.92,1.08.82,1.78-.02.38-.02.75,0,1.13h-3.92l-.11-.09Z"/><path class="cls-14" d="m73.78,48.45v-1.13c.15-.73-.17-1.48-.81-1.87-.06-.05-.1-.12-.11-.19h2c.89.41,1.38,1.37,1.17,2.33v.77l-2.25.09Z"/><path class="cls-10" d="m99.35,88.94h-6.22c0-.06,0-.12,0-.18l-1.83-8-3.18-13.66c-1.07-4.62-2.14-9.24-3.23-13.86-.37-1.61-.73-3.22-1.1-4.83h6.22c.91,4,1.82,7.97,2.74,11.91,1.05,4.55,2.11,9.09,3.17,13.64.72,3.12,1.43,6.23,2.14,9.35.41,1.79.82,3.58,1.24,5.36.02.09.04.18.05.27Z"/><path class="cls-10" d="m105.65,48.58c.13.03.26.1.34.21l5,5c.05.05.1.11.14.18v1.83c0,.27-.1.36-.38.36h-3.78c-.72-.06-1.29-.64-1.32-1.37v-6.21Z"/><path class="cls-19" d="m83.82,48.45c.37,1.61.73,3.22,1.1,4.83,1.06,4.62,2.12,9.24,3.19,13.86l3.18,13.65,1.83,8c0,.06,0,.12,0,.18h-14.05v-3c0-.51-.27-.81-.71-.82s-.75.29-.75.82v3h-9.22c-.95.02-1.73-.74-1.75-1.69,0-.01,0-.03,0-.04v-37.11c.01-.94.78-1.69,1.72-1.68.01,0,.02,0,.03,0h9.23v3c-.06.4.22.77.62.82.03,0,.06,0,.09,0,.46,0,.75-.29.75-.83v-3h4.74Zm-4.74,20.27v-1.55c0-.4-.33-.73-.73-.73-.4,0-.73.33-.73.73h0v3c-.04.39.24.74.64.78.04,0,.08,0,.11,0,.4,0,.72-.33.71-.73,0-.02,0-.04,0-.05,0-.47,0-.96,0-1.45Zm-1.47,6.14v1.55c0,.4.33.73.73.73.4,0,.73-.33.73-.73h0v-3.06c-.03-.41-.35-.73-.76-.76-.39,0-.7.31-.7.7,0,.02,0,.03,0,.05v1.52Zm0-12.41v1.5c-.02.41.29.77.71.79h0c.42-.05.74-.4.75-.82v-2.91c0-.55-.26-.83-.74-.83s-.71.29-.72.81,0,1,0,1.46Zm0-6.27v1.51c-.04.37.22.71.59.76.04,0,.08,0,.12,0,.39.03.72-.26.75-.64,0-.05,0-.09,0-.14v-2.92c.04-.38-.23-.73-.61-.78-.04,0-.08,0-.13,0-.45,0-.71.28-.72.8s0,.94,0,1.41h0Zm1.47,25v-1.47c0-.52-.27-.8-.72-.81-.39-.02-.72.27-.74.65,0,.04,0,.08,0,.13v2.92c-.05.38.21.72.59.78.05,0,.09,0,.14,0,.46,0,.71-.29.72-.8s0-.94,0-1.42v.02Z"/><path class="cls-13" d="m79.07,48.45v3c0,.53-.29.84-.75.82s-.7-.31-.71-.82v-3h1.46Z"/><path class="cls-9" d="m69.89,88.95h3.93v1.19c.1.83-.39,1.62-1.18,1.9h-1.27c-.84.04-1.56-.61-1.6-1.46,0-.05,0-.1,0-.14v-1.41l.12-.08Z"/><path class="cls-14" d="m72.6,92.04c.78-.29,1.27-1.07,1.18-1.9v-1.19h2.25c.07.6.07,1.21,0,1.81-.13.78-.82,1.34-1.61,1.29h-1.82Z"/><path class="cls-13" d="m77.62,88.94v-3c0-.54.29-.84.75-.83.4,0,.72.34.72.74,0,.03,0,.06,0,.09v3h-1.46Z"/><path class="cls-8" d="m69.89,48.45h-.09s0-.06,0-.09l.09.09Z"/><path class="cls-8" d="m69.89,88.95l-.07.09s0-.06,0-.09h.07Z"/><path class="cls-7" d="m79.08,68.72v1.46c0,.4-.33.73-.73.73-.4,0-.73-.33-.73-.73h0v-3c-.04-.39.25-.74.64-.78.02,0,.05,0,.07,0,.4-.02.73.29.75.69,0,.03,0,.06,0,.09,0,.49,0,1.03,0,1.54Z"/><path class="cls-13" d="m77.62,74.86v-1.5c-.03-.38.25-.71.63-.75.02,0,.05,0,.07,0,.4.03.72.36.75.76v3.06c.03.37-.24.7-.62.74-.04,0-.08,0-.11,0-.38.02-.7-.27-.72-.66,0-.03,0-.07,0-.1,0-.51,0-1.03,0-1.55Z"/><path class="cls-13" d="m77.62,62.45v-1.46c0-.52.26-.8.71-.8s.74.27.74.82v2.92c0,.42-.33.77-.75.81-.41-.02-.73-.37-.71-.79h0c0-.5.01-1,.01-1.5Z"/><path class="cls-13" d="m77.62,56.18v-1.41c0-.52.26-.8.72-.8.38-.03.71.26.73.64,0,.05,0,.09,0,.14v2.92c0,.4-.33.73-.73.73-.4,0-.73-.33-.73-.73h0c-.01-.46,0-.98,0-1.49Z"/><path class="cls-13" d="m79.08,81.16v1.42c0,.51-.27.8-.72.8-.38.03-.71-.26-.73-.64,0-.05,0-.09,0-.14v-2.92c-.04-.38.23-.73.61-.78.04,0,.08,0,.13,0,.45,0,.7.29.71.81v1.45Z"/><line class="cls-4" x1="199.32" y1="111.14" x2="199.82" y2="143.92"/><line class="cls-3" x1="199.32" y1="111.14" x2="199.65" y2="133.16"/><polygon class="cls-20" points="192.14 131.08 199.82 143.92 207.11 130.86 192.14 131.08"/><line class="cls-4" x1="118.24" y1="106.88" x2="166.89" y2="146.18"/><line class="cls-3" x1="118.24" y1="106.88" x2="158.53" y2="139.42"/><polygon class="cls-20" points="152.11 143.86 166.89 146.19 161.53 132.23 152.11 143.86"/><line class="cls-4" x1="280.89" y1="106.88" x2="232.25" y2="146.18"/><line class="cls-3" x1="280.89" y1="106.88" x2="240.62" y2="139.42"/><polygon class="cls-20" points="237.62 132.23 232.25 146.18 247.03 143.86 237.62 132.23"/><line class="cls-4" x1="199.7" y1="249.44" x2="200.2" y2="282.22"/><line class="cls-3" x1="199.7" y1="249.44" x2="200.04" y2="271.46"/><polygon class="cls-20" points="192.52 269.38 200.2 282.22 207.48 269.16 192.52 269.38"/><path class="cls-18" d="m214.12,193.88c.56,0,1.12.02,1.68.03.95,0,1.73.78,1.75,1.74.01.88,0,1.76,0,2.63,0,7.43,0,14.85,0,22.28,0,.48-.02.98-.16,1.44-.17.55-.85,1.05-1.43,1.05-6.29,0-12.58,0-18.86,0-.03,0-.06,0-.09-.01,0-1.71,0-3.42,0-5.13,1.31,0,2.62,0,3.93-.01.17,0,.36.04.36-.23.01-.65.06-1.31-.09-1.93-.41-1.67-.89-3.33-1.32-4.99-.12-.45-.24-.9-.4-1.33-.25-.68.22-1.04.63-1.42.68-.62.96-1.4,1.12-2.3.34-1.87-1.24-4.12-3.02-4.69-.06-.1-.14-.15-.25-.09-.09-.02-.18-.04-.27-.06-.04-.06-.09-.07-.16-.04-.17-.02-.35-.05-.52-.07,0-2.27,0-4.54,0-6.81,3.22,0,6.45-.01,9.67-.02.2,0,.4-.02.6-.02,1.15.04,2.31.05,3.46,0,1.13.06,2.26.05,3.39,0Z"/><path class="cls-11" d="m197,217.91c0,1.71,0,3.42,0,5.13-.65,0-1.29.01-1.94.01-5.48,0-10.97-.03-16.45.02-1.44.01-2.19-.77-2.18-2.19.05-8.39.03-16.78,0-25.17,0-1.01.81-1.81,1.77-1.79.56.01,1.12-.01,1.68-.02,1.13.03,2.26.06,3.39-.01,1.15.07,2.3.04,3.45.01.19,0,.37.02.56.02,3.24,0,6.48,0,9.71.01,0,2.27,0,4.54,0,6.81-.36.17-.77.09-1.15.24-1.6.62-2.66,1.7-3.04,3.41-.07.04-.12.08-.03.15-.13,1.41.02,2.7,1.28,3.63.4.29.55.74.39,1.29-.1.34-.23.67-.31,1.01-.22.94-.47,1.88-.72,2.81-.18.69-.4,1.37-.56,2.07-.16.69-.12,1.39-.15,2.09-.01.35.08.47.45.46,1.28-.02,2.56,0,3.84,0Z"/><path class="cls-15" d="m183.27,193.87c-1.13.07-2.26.04-3.39.01,0-3.05-.02-6.1.02-9.15.02-1.41.21-2.81.62-4.18.49-1.65,1.19-3.2,2.14-4.63,1.18-1.79,2.65-3.31,4.4-4.56,1.15-.82,2.36-1.55,3.68-2.01,1.32-.46,2.65-.91,4.07-1.01.8-.06,1.59-.18,2.39-.16,1.99.03,3.92.43,5.78,1.13,1.87.7,3.55,1.72,5.08,2.99,1.32,1.1,2.4,2.4,3.32,3.83.65,1.02,1.17,2.1,1.61,3.23.24.62.41,1.27.62,1.9.2.57.23,1.2.3,1.81.39,3.6.1,7.21.19,10.81-1.13.04-2.26.06-3.39,0,0-2.58-.02-5.15.01-7.73.02-1.48-.17-2.93-.53-4.36-.51-2.01-1.44-3.82-2.8-5.37-1.66-1.9-3.68-3.33-6.11-4.1-1.73-.55-3.48-.72-5.3-.61-1.68.1-3.26.5-4.76,1.2-2.5,1.16-4.46,2.94-5.92,5.29-1.26,2.02-1.94,4.24-2.03,6.59-.11,3.03-.02,6.07-.02,9.11Z"/><path class="cls-5" d="m207.27,193.88c0-2.73.02-5.47,0-8.2-.02-1.45-.22-2.89-.8-4.24-.46-1.07-1.08-2.04-1.85-2.94-1.14-1.33-2.57-2.25-4.18-2.83-1.49-.54-3.05-.72-4.65-.52-.98.12-1.93.35-2.81.73-2.46,1.07-4.27,2.83-5.38,5.29-.52,1.15-.73,2.36-.79,3.61-.15,3.03-.02,6.07-.07,9.1-1.15.02-2.3.05-3.45-.02,0-3.04-.09-6.08.02-9.11.09-2.34.77-4.57,2.03-6.59,1.46-2.34,3.42-4.12,5.92-5.29,1.5-.7,3.08-1.1,4.76-1.2,1.82-.11,3.57.07,5.3.61,2.44.77,4.45,2.2,6.11,4.1,1.36,1.55,2.29,3.36,2.8,5.37.36,1.43.55,2.88.53,4.36-.03,2.58-.01,5.15-.01,7.73-1.15.06-2.31.04-3.46,0Z"/><path class="cls-12" d="m197,217.91c-1.28,0-2.56-.02-3.84,0-.37,0-.46-.11-.45-.46.03-.7-.02-1.41.15-2.09.17-.69.38-1.38.56-2.07.25-.94.5-1.87.72-2.81.08-.34.21-.68.31-1.01.16-.55,0-.99-.39-1.29-1.26-.93-1.41-2.23-1.28-3.63.07-.04.07-.09.03-.15.38-1.7,1.44-2.78,3.04-3.41.38-.15.79-.06,1.15-.24.17.02.35.05.52.07.03.09.08.14.16.04.09.02.18.04.27.06.05.12.15.1.25.09,1.78.57,3.36,2.82,3.02,4.69-.16.9-.45,1.67-1.12,2.3-.41.38-.88.73-.63,1.42.16.43.29.88.4,1.33.43,1.67.91,3.32,1.32,4.99.15.62.1,1.28.09,1.93,0,.28-.19.23-.36.23-1.31,0-2.62,0-3.93.01Z"/><path class="cls-5" d="m198.2,201c-.1,0-.2.03-.25-.09.11-.05.19,0,.25.09Z"/><path class="cls-5" d="m197.68,200.85c-.08.1-.12.05-.16-.04.06-.04.12-.02.16.04Z"/><path class="cls-15" d="m192.81,204.38c.04.06.04.12-.03.15-.09-.07-.03-.12.03-.15Z"/><circle class="cls-2" cx="197.15" cy="198.21" r="44.02"/><path class="cls-18" d="m216.12,327.88c.56,0,1.12.02,1.68.03.95,0,1.73.78,1.75,1.74.01.88,0,1.76,0,2.63,0,7.43,0,14.85,0,22.28,0,.48-.02.98-.16,1.44-.17.55-.85,1.05-1.43,1.05-6.29,0-12.58,0-18.86,0-.03,0-.06,0-.09-.01,0-1.71,0-3.42,0-5.13,1.31,0,2.62,0,3.93-.01.17,0,.36.04.36-.23.01-.65.06-1.31-.09-1.93-.41-1.67-.89-3.33-1.32-4.99-.12-.45-.24-.9-.4-1.33-.25-.68.22-1.04.63-1.42.68-.62.96-1.4,1.12-2.3.34-1.87-1.24-4.12-3.02-4.69-.06-.1-.14-.15-.25-.09-.09-.02-.18-.04-.27-.06-.04-.06-.09-.07-.16-.04-.17-.02-.35-.05-.52-.07,0-2.27,0-4.54,0-6.81,3.22,0,6.45-.01,9.67-.02.2,0,.4-.02.6-.02,1.15.04,2.31.05,3.46,0,1.13.06,2.26.05,3.39,0Z"/><path class="cls-11" d="m199,351.91c0,1.71,0,3.42,0,5.13-.65,0-1.29.01-1.94.01-5.48,0-10.97-.03-16.45.02-1.44.01-2.19-.77-2.18-2.19.05-8.39.03-16.78,0-25.17,0-1.01.81-1.81,1.77-1.79.56.01,1.12-.01,1.68-.02,1.13.03,2.26.06,3.39-.01,1.15.07,2.3.04,3.45.01.19,0,.37.02.56.02,3.24,0,6.48,0,9.71.01,0,2.27,0,4.54,0,6.81-.36.17-.77.09-1.15.24-1.6.62-2.66,1.7-3.04,3.41-.07.04-.12.08-.03.15-.13,1.41.02,2.7,1.28,3.63.4.29.55.74.39,1.29-.1.34-.23.67-.31,1.01-.22.94-.47,1.88-.72,2.81-.18.69-.4,1.37-.56,2.07-.16.69-.12,1.39-.15,2.09-.01.35.08.47.45.46,1.28-.02,2.56,0,3.84,0Z"/><path class="cls-15" d="m185.27,327.87c-1.13.07-2.26.04-3.39.01,0-3.05-.02-6.1.02-9.15.02-1.41.21-2.81.62-4.18.49-1.65,1.19-3.2,2.14-4.63,1.18-1.79,2.65-3.31,4.4-4.56,1.15-.82,2.36-1.55,3.68-2.01,1.32-.46,2.65-.91,4.07-1.01.8-.06,1.59-.18,2.39-.16,1.99.03,3.92.43,5.78,1.13,1.87.7,3.55,1.72,5.08,2.99,1.32,1.1,2.4,2.4,3.32,3.83.65,1.02,1.17,2.1,1.61,3.23.24.62.41,1.27.62,1.9.2.57.23,1.2.3,1.81.39,3.6.1,7.21.19,10.81-1.13.04-2.26.06-3.39,0,0-2.58-.02-5.15.01-7.73.02-1.48-.17-2.93-.53-4.36-.51-2.01-1.44-3.82-2.8-5.37-1.66-1.9-3.68-3.33-6.11-4.1-1.73-.55-3.48-.72-5.3-.61-1.68.1-3.26.5-4.76,1.2-2.5,1.16-4.46,2.94-5.92,5.29-1.26,2.02-1.94,4.24-2.03,6.59-.11,3.03-.02,6.07-.02,9.11Z"/><path class="cls-5" d="m209.27,327.88c0-2.73.02-5.47,0-8.2-.02-1.45-.22-2.89-.8-4.24-.46-1.07-1.08-2.04-1.85-2.94-1.14-1.33-2.57-2.25-4.18-2.83-1.49-.54-3.05-.72-4.65-.52-.98.12-1.93.35-2.81.73-2.46,1.07-4.27,2.83-5.38,5.29-.52,1.15-.73,2.36-.79,3.61-.15,3.03-.02,6.07-.07,9.1-1.15.02-2.3.05-3.45-.02,0-3.04-.09-6.08.02-9.11.09-2.34.77-4.57,2.03-6.59,1.46-2.34,3.42-4.12,5.92-5.29,1.5-.7,3.08-1.1,4.76-1.2,1.82-.11,3.57.07,5.3.61,2.44.77,4.45,2.2,6.11,4.1,1.36,1.55,2.29,3.36,2.8,5.37.36,1.43.55,2.88.53,4.36-.03,2.58-.01,5.15-.01,7.73-1.15.06-2.31.04-3.46,0Z"/><path class="cls-12" d="m199,351.91c-1.28,0-2.56-.02-3.84,0-.37,0-.46-.11-.45-.46.03-.7-.02-1.41.15-2.09.17-.69.38-1.38.56-2.07.25-.94.5-1.87.72-2.81.08-.34.21-.68.31-1.01.16-.55,0-.99-.39-1.29-1.26-.93-1.41-2.23-1.28-3.63.07-.04.07-.09.03-.15.38-1.7,1.44-2.78,3.04-3.41.38-.15.79-.06,1.15-.24.17.02.35.05.52.07.03.09.08.14.16.04.09.02.18.04.27.06.05.12.15.1.25.09,1.78.57,3.36,2.82,3.02,4.69-.16.9-.45,1.67-1.12,2.3-.41.38-.88.73-.63,1.42.16.43.29.88.4,1.33.43,1.67.91,3.32,1.32,4.99.15.62.1,1.28.09,1.93,0,.28-.19.23-.36.23-1.31,0-2.62,0-3.93.01Z"/><path class="cls-5" d="m200.2,335c-.1,0-.2.03-.25-.09.11-.05.19,0,.25.09Z"/><path class="cls-5" d="m199.68,334.85c-.08.1-.12.05-.16-.04.06-.04.12-.02.16.04Z"/><path class="cls-15" d="m194.81,338.38c.04.06.04.12-.03.15-.09-.07-.03-.12.03-.15Z"/><circle class="cls-2" cx="199.15" cy="332.21" r="44.02"/></svg>