<?xml version="1.0" encoding="UTF-8"?><svg id="Layer_1" xmlns="http://www.w3.org/2000/svg" viewBox="0 0 400 400"><defs><style>.cls-1{fill:#a7cefe;}.cls-2{stroke:#a5262d;}.cls-2,.cls-3,.cls-4{stroke-width:4px;}.cls-2,.cls-3,.cls-4,.cls-5{stroke-miterlimit:10;}.cls-2,.cls-3,.cls-4,.cls-5,.cls-6{fill:none;}.cls-3{stroke:#0018c6;}.cls-7{fill:#8ac5cd;}.cls-4{stroke:#c000e2;}.cls-8{fill:#717f8f;}.cls-9{fill:#c69c6d;}.cls-5{stroke:#231f20;stroke-width:2px;}.cls-10{fill:#3b566a;}.cls-11{fill:#b2d3d9;}.cls-12{fill:#b3d4da;}.cls-13{fill:#728090;}.cls-14{fill:#484645;}.cls-15{fill:#637889;}.cls-16{fill:#b6d6fd;}.cls-17{fill:#b3b3b3;}.cls-18{fill:#88c4cc;}.cls-19{fill:#2f4859;}.cls-20{fill:#33b1cb;}.cls-21{fill:#304959;}.cls-22{fill:#3f4a5b;}.cls-23{fill:#231f20;}.cls-24{fill:#33b1cc;}.cls-25{fill:#86cde8;}</style></defs><line class="cls-6" x1="200.27" y1="115.12" x2="200.77" y2="147.9"/><line class="cls-5" x1="200.27" y1="115.12" x2="200.61" y2="137.14"/><polygon class="cls-23" points="193.1 135.06 200.77 147.9 208.07 134.84 193.1 135.06"/><line class="cls-6" x1="118.67" y1="110.86" x2="167.33" y2="150.16"/><line class="cls-5" x1="118.67" y1="110.86" x2="158.96" y2="143.4"/><polygon class="cls-23" points="152.55 147.84 167.33 150.17 161.96 136.21 152.55 147.84"/><line class="cls-6" x1="281.33" y1="110.86" x2="232.68" y2="150.16"/><line class="cls-5" x1="281.33" y1="110.86" x2="241.05" y2="143.4"/><polygon class="cls-23" points="238.05 136.21 232.68 150.16 247.46 147.84 238.05 136.21"/><circle class="cls-2" cx="91.11" cy="61.42" r="45"/><path d="m65.01,45.82l1-3c1.15.63,2.58.43,3.5-.5,1.1-1,1-1.7.7-2.1-.6-.6-1.4-.4-3.4.6s-4.1,1.5-5.9-.5c-1.8-2-1.1-4.7.7-6.3,1.58-1.5,3.91-1.9,5.9-1l-1,3c-.95-.52-2.13-.36-2.9.4-.8.7-.8,1.4-.4,1.8s1,.6,3-.4,4.3-1.9,6.2.3c1.8,2,1.2,4.7-1.1,6.7-2.3,2-4.5,2.1-6.5,1.1l.2-.1Z"/><path d="m70.01,29.92c-.44-.88-.08-1.96.8-2.4s1.96-.08,2.4.8.08,1.96-.8,2.4h0c-.89.39-1.92.04-2.4-.8Zm1.5,2.3l2.7-1.4,4.5,8.9-2.7,1.4-4.5-8.9Z"/><path d="m75.81,25.22l2.9-.9,4.5,13.9-2.9.9-4.5-13.9Z"/><path d="m82.41,25.33c-.16-.99.51-1.93,1.5-2.09.99-.16,1.93.51,2.09,1.5.16.99-.5,1.92-1.49,2.09-.98.17-1.92-.49-2.1-1.47,0,0,0-.02,0-.03Zm.7,2.6l3-.5,1.6,9.9-3,.5-1.6-9.9Z"/><path d="m89.01,31.92c.13-2.85,2.55-5.06,5.41-4.92.1,0,.2.01.29.02,1.86.09,3.52,1.21,4.3,2.9l-2.7,1.3c-.53-1.13-1.88-1.62-3.01-1.09-.74.35-1.24,1.07-1.29,1.89-.16,1.22.7,2.33,1.92,2.48.06,0,.12.01.18.02.8.07,1.58-.31,2-1l2.5,1.7c-1.02,1.56-2.84,2.41-4.7,2.2-2.88-.17-5.08-2.65-4.91-5.53,0-.06,0-.11.01-.17v.2Z"/><path d="m99.91,32.92c1.13-2.68,4.22-3.94,6.9-2.81,2.68,1.13,3.94,4.22,2.81,6.9-1.13,2.68-4.22,3.94-6.9,2.81,0,0,0,0,0,0-2.66-1.09-3.94-4.14-2.84-6.8.01-.03.03-.07.04-.1Zm7,2.9c.53-1.17.02-2.54-1.14-3.08-.02,0-.04-.02-.06-.02-1.11-.5-2.42,0-2.92,1.11-.03.06-.05.13-.08.19-.56,1.1-.11,2.45.99,3.01.07.03.14.06.21.09,1.11.5,2.42,0,2.92-1.11.03-.06.05-.13.08-.19Z"/><path d="m119.41,44.02l-4.2,4.5-2.2-2,3.9-4.2c.69-.6.76-1.65.16-2.34-.05-.06-.1-.11-.16-.16-.72-.71-1.87-.7-2.57.02-.08.09-.16.18-.23.28l-3.7,4-2.2-2,6.8-7.4,2.2,2-.6.7c1.07-.18,2.17.19,2.9,1,1.5,1.4,1.8,3.6,0,5.6h-.1Z"/><rect class="cls-9" x="64.21" y="51.92" width="52" height="37" rx="2.9" ry="2.9"/><path class="cls-14" d="m86.41,83.02c-2.18.11-4.34-.45-6.2-1.6-1.58-1.02-2.78-2.53-3.4-4.3l5.2-3c.69,1.97,2.62,3.24,4.7,3.1,2.3,0,2.8-.5,2.8-1.6s-.5-1.2-1.6-1.7c-.97-.38-1.98-.68-3-.9-1.91-.44-3.66-1.37-5.1-2.7-1.32-1.19-2.02-2.93-1.9-4.7-.03-2.02.81-3.95,2.3-5.3,1.65-1.39,3.77-2.11,5.92-1.99,1.87-.07,3.71.42,5.3,1.4,1.54.96,2.76,2.35,3.5,4l-5.1,3c-.5-1.61-2.02-2.67-3.7-2.6-1.7,0-1.3.1-1.6.4-.36.25-.59.66-.6,1.1.05.54.34,1.02.8,1.3,1,.59,2.08,1.03,3.2,1.3,1.1.4,2,.7,2.8,1,.8.34,1.56.74,2.3,1.2.78.55,1.43,1.26,1.9,2.1.41.95.61,1.97.6,3,.11,2.1-.83,4.12-2.5,5.4-1.87,1.4-4.17,2.11-6.5,2l-.12.09Z"/><path class="cls-14" d="m102.61,63.33c-.6.63-1.43.99-2.3,1-1.79.03-3.27-1.4-3.31-3.19-.02-.91.35-1.78,1.01-2.41.61-.6,1.44-.92,2.3-.9.85,0,1.68.32,2.3.9.63.6.99,1.43,1,2.3.02.88-.35,1.72-1,2.3Zm-5.1,19.2v-16.91h5.62v16.9h-5.62Z"/><circle class="cls-2" cx="199.99" cy="61.42" r="45"/><rect class="cls-17" x="173.99" y="51.42" width="52" height="37" rx="2.9" ry="2.9"/><path class="cls-14" d="m200.8,81.72l-1.1-3.4h-8l-1,3.4h-6.5l7.5-23.6h7.6l7.8,23.6h-6.3Zm-7.6-8.6h4.8l-2.4-8-2.4,8Z"/><path class="cls-14" d="m208.49,81.72v-24.7h5.63v24.7h-5.63Z"/><path d="m176.13,40.12l-2.4,3.1,1,1.4-1.6,2.1-6.1-9.3,1.9-2.4,10.5,3.7-1.6,2.1-1.6-.6-.1-.1Zm-2.2-.8l-3.8-1.4,2.3,3.3,1.5-1.9Z"/><path d="m172.8,30.33l1.7-1.4,7,8.4-1.7,1.4-7-8.4Z"/><path d="m184.99,26.52l3.6,6.6-2,1.1-.3-.6c-.11.81-.64,1.49-1.4,1.8-1.33.74-3.01.25-3.75-1.08-.06-.1-.11-.21-.15-.32l-2.2-4,2-1.1,2,3.8c.29.65,1.06.94,1.71.65.03-.01.06-.03.09-.05.67-.32.95-1.12.63-1.79-.04-.07-.08-.15-.13-.21l-2-3.6,2-1.1-.1-.1Z"/><path d="m199.6,26.02l.8,4.5-2.2.4-.8-4.3c-.03-.6-.54-1.05-1.14-1.02-.06,0-.11.01-.16.02-.7.1-1.1.7-.9,1.6l.7,4.2-2.2.4-.8-4.3c-.03-.6-.54-1.05-1.14-1.02-.06,0-.11.01-.16.02-.7.1-1.1.7-.9,1.6l.7,4.2-2.2.4-1.3-7.4,2.2-.4v.7c.41-.67,1.12-1.11,1.9-1.2.76-.23,1.58,0,2.1.6.37-.79,1.13-1.33,2-1.4,1.7-.3,3,.7,3.3,2.6l.2-.2Z"/><path d="m201.9,23.62l2.2.2-.6,7.5-2.2-.2.6-7.5Zm0-2c.08-.75.75-1.29,1.5-1.2.75.08,1.29.75,1.2,1.5s-.75,1.29-1.5,1.2c0,0,0,0,0,0-.72-.05-1.26-.66-1.21-1.38,0-.04,0-.08.01-.12Z"/><path d="m212.9,28.72l-1.2,4.4-2.2-.6,1.1-4.1c.24-.68-.11-1.42-.78-1.66-.04-.01-.08-.03-.12-.04-.69-.26-1.46.08-1.72.76-.04.11-.07.22-.08.34l-1.1,3.9-2.2-.6,2-7.2,2.2.6-.2.7c.67-.47,1.53-.58,2.3-.3,1.49.39,2.38,1.91,2,3.4-.03.1-.06.2-.1.3l.1.1Z"/><path d="m222.49,30.72l-3.8,6.4-1.9-1.2.4-.6c-.77.29-1.63.18-2.3-.3-1.32-.77-1.78-2.46-1.01-3.78.06-.11.13-.22.21-.32l2.4-4,1.9,1.2-2.2,3.7c-.41.5-.34,1.24.16,1.65.07.06.15.11.24.15.63.41,1.48.23,1.89-.4.04-.06.08-.13.11-.2l2.1-3.5,1.9,1.2h-.1Z"/><path d="m230.3,43.02l-3.5,3-1.5-1.7,3.4-2.9c.6-.5.7-1.1.2-1.6-.43-.5-1.18-.55-1.68-.12-.04.04-.08.08-.12.12l-3.2,2.7-1.5-1.7,3.4-2.9c.6-.5.7-1.1.2-1.6-.43-.5-1.18-.55-1.68-.12-.04.04-.08.08-.12.12l-3.2,2.7-1.5-1.7,5.7-4.9,1.5,1.7-.5.4c.76,0,1.49.34,2,.9.54.56.73,1.36.5,2.1.85-.02,1.66.35,2.2,1,1.03,1.19.9,3-.29,4.03-.07.06-.14.11-.21.17l-.1.3Z"/><circle class="cls-2" cx="308.89" cy="61.42" r="45"/><path class="cls-25" d="m278.89,63.72v-.6c.31-.48.83-.78,1.4-.8,1.39-.15,2.46-1.3,2.5-2.7v-.5c.05-.45.46-.77.91-.72.03,0,.06,0,.09.02.46-.01.86.34.9.8-.02.27.02.54.1.8.21,1.11,1.09,1.99,2.2,2.2.7.2.7.1.7-.6v-13.5c-.06-.38.2-.74.58-.8.07-.01.15-.01.22,0h30.63c0,.3-.3.4-.5.6l-7.2,7.2c-.2.17-.36.38-.5.6-.19.4-.11.88.2,1.2.32.33.83.37,1.2.1.21-.11.39-.29.5-.5l8.3-8.3c.29-.27.5-.62.6-1h3.4c0,.3-.3.4-.5.6l-13.3,13.3-.5.5c-.25.29-.25.71,0,1,.16.35.52.55.9.5.33-.05.64-.19.9-.4l14.6-14.6c.29-.21.48-.54.5-.9h1.1c1,0,.9-.1.9.9v28.3q0,.8.8.6c1.27-.35,2.16-1.49,2.2-2.8-.06-.49.29-.94.79-1,.07,0,.14,0,.21,0,.6,0,.9.4,1,1,.05,1.54,1.26,2.8,2.8,2.9.52,0,1,.32,1.2.8v.6c-.22.41-.64.67-1.1.7-1.57.04-2.81,1.33-2.8,2.9-.03.34-.17.65-.4.9-.25.23-.61.27-.9.1-.38-.12-.63-.5-.6-.9-.2-1.6-.9-2.6-2.3-2.9-.7-.2-.7-.1-.7.6v12.6c0,.53-.24.8-.7.8h-21.6c0-.3.3-.4.5-.6l7.5-7.5c.5-.6.6-1.1.1-1.5-.39-.38-1.01-.38-1.4,0l-.1.1-8.7,8.7c-.25.25-.42.56-.5.9h-3.4c0-.3.3-.4.5-.6l13.3-13.3c.2-.17.36-.38.5-.6.24-.39.16-.91-.2-1.2-.31-.33-.83-.35-1.16-.04-.01.01-.03.03-.04.04-.1,0-.2.2-.3.3l-14.63,14.63c-.26.24-.44.55-.5.9h-10.1c-.44.06-.84-.25-.9-.69,0-.07,0-.14,0-.21v-27.53c0-.7,0-.8-.7-.6-1.32.36-2.25,1.54-2.3,2.9.03.52-.36.97-.88,1-.04,0-.08,0-.12,0-.55,0-1-.45-1-1v-.3c-.14-1.41-1.28-2.51-2.7-2.6-.52-.02-.99-.28-1.3-.7l-.2-.1Zm5,.6c.37-.22.68-.53.9-.9-.27-.36-.58-.69-.9-1-.35.25-.65.55-.9.9.25.35.55.65.9.9h0v.1Zm50.9,14.2c-.19-.39-.51-.71-.9-.9-.35.25-.65.55-.9.9l.9.9.9-.9Z"/><path class="cls-24" d="m325.3,47.52c.3-.11.54-.32.7-.6.8-.8,1.6-.6,1.9.5-.04.35-.22.68-.5.9l-14.6,14.6c-.21.28-.55.43-.9.4-.37,0-.71-.19-.9-.5-.2-.3-.2-.7,0-1,.11-.21.29-.39.5-.5l13.3-13.3c.2-.2.4-.3.5-.6v.1Z"/><path class="cls-20" d="m301.49,93.32c-.3.1-.5.4-.8.6-.8.7-1.6.5-1.8-.6.02-.36.21-.69.5-.9l14.6-14.6.3-.3c.36-.25.84-.25,1.2,0,.36.29.44.81.2,1.2-.14.22-.3.43-.5.6l-13.3,13.33c-.2.2-.4.3-.5.6l.1.07Z"/><path class="cls-24" d="m319.2,47.52c.2,0,.4-.2.6-.4,1-1,1.6-.8,2.1.4-.08.39-.29.75-.6,1l-8.3,8.3-.5.5c-.37.27-.88.23-1.2-.1-.38-.25-.49-.77-.24-1.15.01-.02.02-.03.04-.05.11-.24.28-.45.5-.6l7.2-7.2c.2-.2.4-.3.5-.6l-.1-.1Z"/><path class="cls-24" d="m307.49,93.42c-.3.11-.54.32-.7.6-.8.8-1.6.5-1.9-.5.02-.33.21-.63.5-.8l8.7-8.7c.25-.43.8-.58,1.23-.33.06.04.12.08.17.13l.1.1c.39.39.39,1.02,0,1.41-.03.03-.06.06-.1.09l-7.5,7.5c-.2.2-.4.3-.4.6l-.1-.1Z"/><path d="m297.2,31.22c2.03,2.82,1.4,6.75-1.41,8.78-.16.11-.32.22-.49.32-2.98,2.46-7.39,2.05-9.86-.93-2.46-2.98-2.05-7.39.93-9.86.38-.31.79-.58,1.22-.81,1.95-1.32,4.44-1.55,6.6-.6l-1.4,2.7c-1.21-.46-2.57-.27-3.6.5-1.8,1.08-2.37,3.42-1.29,5.22.06.1.12.19.19.28,1.2,1.9,3.5,2.4,5.7,1,1.3-.69,2-2.16,1.7-3.6l-3,1.9-1.5-2.2,5.6-3.7.6,1Z"/><path d="m298.13,23.52l2.8-.7,3.5,13.5-2.8.7-3.5-13.5Z"/><path d="m315.6,26.32l-.2,9.6h-2.9v-1c-.76.77-1.82,1.18-2.9,1.1-2.5,0-4.5-2.3-4.5-5.1-.09-2.62,1.96-4.81,4.58-4.9.04,0,.08,0,.12,0,1.07-.05,2.1.39,2.8,1.2v-.9h3Zm-3,4.7c.1-1.22-.8-2.29-2.01-2.39-.06,0-.13,0-.19,0-1.18-.09-2.21.8-2.3,1.99,0,.1,0,.21,0,.31-.1,1.22.8,2.29,2.01,2.39.06,0,.13,0,.19,0,1.18.09,2.21-.8,2.3-1.99,0-.1,0-.21,0-.31Z"/><path d="m324.3,36.22c-.8,2.1-2.9,2.3-4.8,1.6-1.65-.49-2.86-1.9-3.1-3.6l2.8-.5c-.07.73.39,1.4,1.1,1.6.6.2,1,.2,1.2-.2.4-1-4.2-2.1-3.1-5.2.7-2,2.7-2.3,4.6-1.6,1.45.47,2.53,1.7,2.8,3.2l-2.8.4c.03-.56-.35-1.07-.9-1.2-.5-.2-.8-.1-.9.2-.4,1,4.3,2,3.1,5.3Z"/><path d="m330.99,41.02c-1.3,1.8-3.4,1.4-5.1.2-1.46-.91-2.25-2.6-2-4.3l2.8.3c-.22.72.06,1.5.7,1.9.6.4,1,.4,1.2.1.6-.9-3.5-3.2-1.6-5.8,1.2-1.7,3.3-1.5,4.9-.3,1.27.82,1.97,2.29,1.8,3.8l-2.8-.4c0-.6,0-1.1-.5-1.4s-.8-.3-1,0c-.6.9,3.6,3.1,1.5,5.9h.1Z"/><line class="cls-6" x1="199.7" y1="251.63" x2="200.2" y2="284.41"/><line class="cls-5" x1="199.7" y1="251.63" x2="200.04" y2="273.65"/><polygon class="cls-23" points="192.52 271.57 200.2 284.41 207.48 271.35 192.52 271.57"/><circle class="cls-4" cx="200" cy="338.58" r="45"/><path d="m166.7,323.38c1.9.7,2.8,2.8,2,4.7l-.6,1.5,3.1,1.2-.9,2.2-9.8-3.8,1.4-3.7c.7-1.9,2.8-2.9,4.7-2.1h.1Zm-.9,2.2c-.7-.3-1.5,0-1.7.7l-.6,1.5,2.5,1,.6-1.5c.3-.7,0-1.4-.8-1.7Z"/><path d="m174,316.88l3.7,2.7-1.3,1.8-3.4-2.5c-.7-.6-1.4-.3-1.9.2-.5.7-.4,1.4.4,2l3.3,2.4-1.3,1.8-8.5-6.2,1.3-1.8,3,2.2c-.2-.7,0-1.5.5-2.3.9-1.2,2.5-1.6,4.2-.4v.1Z"/><path d="m175.7,316.28c-1.4-1.8-1.1-4.2.7-5.6,1.7-1.4,4.2-1.1,5.6.6,1.4,1.8,1.1,4.2-.7,5.6-1.7,1.4-4.2,1.1-5.6-.6Zm4.5-3.5c-.7-.8-1.7-.9-2.5-.3s-.9,1.6-.3,2.5c.7.8,1.7.9,2.5.3s.9-1.6.3-2.5Z"/><path d="m189.7,306.98l1.8,4.2-2.1.9-1.7-3.9c-.4-.9-1.1-1-1.7-.7-.8.3-1.1,1-.7,2l1.6,3.8-2.1.9-2.9-6.9,2.1-.9.3.6c.2-.7.7-1.3,1.6-1.7,1.4-.6,3-.1,3.8,1.8v-.1Z"/><path d="m195.9,308.68c.6,0,1.1-.4,1.3-.8l1.9.8c-.6,1.1-1.6,1.8-3,2-2.5.4-4.4-1.1-4.7-3.4-.3-2.2,1.1-4.1,3.4-4.5,2.2-.3,4,1.2,4.3,3.4v.9l-5.3.7c.4.7,1.1.9,1.9.8l.2.1Zm1-2.9c-.4-.8-1.1-1-1.7-1-.8.1-1.4.6-1.5,1.4l3.2-.4Z"/><path d="m201.1,304.58l5.7.6-.2,2.1-5.7-.6.2-2.1Z"/><path d="m216.1,310.18c-.8,2.1-2.9,3.1-4.8,2.4-.9-.4-1.5-.9-1.8-1.6l-.3.7-2.1-.8,3.7-9.8,2.1.8-1.3,3.5c.7-.4,1.5-.4,2.4,0,1.8.7,2.7,2.9,1.9,5l.2-.2Zm-2.1-.8c.4-1.1,0-2-1-2.3-1-.4-1.9,0-2.3,1.1-.4,1.1,0,2,1,2.3,1,.4,1.9,0,2.3-1.1Z"/><path d="m217.2,310.88c1.3-1.8,3.8-2.1,5.6-.8,1.8,1.3,2.2,3.8.8,5.5-1.3,1.8-3.8,2.1-5.6.8-1.8-1.3-2.2-3.8-.8-5.5Zm4.6,3.4c.6-.9.5-1.9-.3-2.5s-1.8-.5-2.4.4-.5,1.9.3,2.5,1.8.5,2.4-.4Z"/><path d="m234.7,318.78l-8.3,6.4-1.4-1.8.6-.4c-.8,0-1.5-.4-2.1-1.2-1.2-1.6-.8-3.9,1-5.3,1.8-1.4,4.1-1.1,5.3.4.6.8.8,1.6.6,2.3l2.9-2.3,1.4,1.8v.1Zm-6.7,2.3c.9-.7,1-1.7.4-2.5s-1.6-1-2.5-.3-1,1.7-.4,2.5,1.6,1,2.5.3Z"/><path d="m236.5,329.78l-7.7.4c-2.5.1-3.9-.7-4.6-2.7l1.9-.8c.4,1,.9,1.3,1.9,1.3l5.5-5.5.9,2.3-3.6,3.3,4.8-.5.9,2.2h0Z"/><path d="m240.5,335.18l-10.3,1.9-.4-2.4,7.8-1.4-.8-1.7,1.9-.9,1.5,2.5.4,2.1-.1-.1Z"/><path class="cls-22" d="m189.4,371.88c0-.2-.2-.1-.4-.2-2-.5-3.4-2.3-3.4-4.4v-38.8c0-2.7,1.1-4.2,3.6-5,0,0,.1,0,.1-.1h3.4v.1c.5,1.3,1.1,2.6,1.6,3.9.1.3.4.4.7.4h9.7c.4,0,.7-.2.8-.5.2-.5.4-1,.6-1.5.3-.8.7-1.5.9-2.4h3.3c.2.2.5.2.8.3,1.8.6,3,2.3,3.1,4.2v38.8c0,2.8-1.1,4.3-3.8,5.2h-21.1.1Zm23.7-7.3h0v-33.8c0-.4-.3-.2-.5-.2h-25.5c-.4,0-.5.1-.5.5v33.4h26.3l.2.1Zm-13.1,3.1h-4.4c-.5,0-.7.2-.6.7,0,.4.4.5.7.5h8.6c.5,0,.7-.2.7-.6,0-.5-.3-.5-.7-.5h-4.3v-.1Z"/><path class="cls-13" d="m207.2,323.38c-.2.8-.6,1.6-.9,2.4-.2.5-.4,1-.6,1.5-.1.3-.4.6-.8.5h-9.7c-.3,0-.6-.1-.7-.4-.5-1.3-1.1-2.6-1.6-3.9v-.1h14.4-.1Z"/><path class="cls-1" d="m186.9,364.58c-.2-.1,0-.3,0-.4v-33c0-.4,0-.5.5-.5h25.5c.2,0,.4-.2.5.2-.2,0-.3.2-.5.4-.4.5-.7,1-1.1,1.4-1.4,1.8-2.9,3.7-4.3,5.5-1.1,1.5-2.3,2.9-3.4,4.4-1.4,1.8-2.9,3.7-4.3,5.5-1.1,1.5-2.3,2.9-3.4,4.4-1.5,2-3.1,3.9-4.6,5.9-1.1,1.4-2.2,2.8-3.2,4.2-.5.7-1.1,1.3-1.5,2h-.2Z"/><path class="cls-16" d="m186.9,364.58c.4-.7,1-1.3,1.5-2,1.1-1.4,2.2-2.8,3.2-4.2,1.5-2,3.1-3.9,4.6-5.9,1.1-1.5,2.3-2.9,3.4-4.4,1.4-1.8,2.9-3.7,4.3-5.5,1.1-1.5,2.3-2.9,3.4-4.4,1.4-1.8,2.9-3.7,4.3-5.5.4-.5.7-.9,1.1-1.4.1-.2.2-.3.5-.4v33.7h-26.3Z"/><path class="cls-8" d="m200,367.68h4.3c.4,0,.7,0,.7.5,0,.4-.2.6-.7.6h-8.6c-.3,0-.6,0-.7-.5,0-.4.1-.7.6-.7h4.4v.1Z"/><path d="m198.3,334.28h5.7v25.9h-6.6v-18.9l-4.5,1.1-1.6-5.6s7-2.5,7-2.5Z"/><circle class="cls-3" cx="196.57" cy="200.94" r="46.43"/><path class="cls-10" d="m208.74,180.72c.22.29.51.54.83.72,1.21,1.11,1.88,2.69,1.86,4.33v46.74c0,3.71-1.86,5.88-5.67,6.19-6.18.52-12.39.52-18.57,0-3.05-.08-5.45-2.61-5.38-5.66,0-.07,0-.15.01-.22v-47.05c-.17-3.08,2.19-5.71,5.27-5.88.03,0,.06,0,.09,0,5.43-.38,10.87-.45,16.3-.21.38-.02.76.02,1.13.1,1.44-.02,2.88.22,4.23.72l-.1.21Zm-11.25,6.81h-11.45c-.72,0-.93.21-.93.93v11.87c0,3.92,0,2.48,2.48,2.37h19.71c.62,0,.72-.21.72-.72v-13.65c0-.52-.1-.83-.72-.83h-9.8v.03Zm2.17,30.44c-2.37,0-2.17,0-2.17,2.27,0,.72.31,1.03,1.03,1.03h1.65c1.34,0,1.44,0,1.44-1.34,0-2.27.21-1.96-1.96-1.96Zm-6.09,0h-1.13c-.62,0-1.03.21-.83.83.21.83-.72,2.17.83,2.48.79.1,1.59.1,2.37,0,.44.02.84-.29.93-.72.52-1.96,0-2.58-1.96-2.58h-.21Zm0-4.85c-2.27,0-1.96-.21-2.06,2.06v.31c0,.72.31,1.03.93,1.03h2.37c.41-.02.75-.32.83-.72.52-1.96,0-2.58-1.96-2.58h0l-.1-.1Zm6.19,0h-1.34c-.52,0-.83.21-.83.72,0,2.37-.21,2.68,2.17,2.58h.52c1.34,0,1.44-.21,1.44-1.44,0-2.17.21-1.96-1.96-1.96h0v.1Zm-.1,13.1h1.03c.52,0,1.03-.1,1.03-.72,0-.83.52-1.86-.41-2.58h-2.89c-.39-.03-.74.24-.83.62-.52,1.96,0,2.68,2.06,2.68h0Zm-5.98,0h1.03c.62,0,1.03-.21,1.03-.83,0-.83.52-1.86-.41-2.48h-2.89c-.35,0-.67.2-.83.52-.62,1.86,0,2.79,1.96,2.79h.1Zm0-17.95h-.93c-.72,0-1.03.21-1.03,1.03q0,2.37,2.37,2.37h.83c.48.01.89-.35.93-.83.41-2.06,0-2.58-2.06-2.58h-.1Zm6.19,0h-1.34c-.52,0-.83.21-.83.83,0,2.37-.21,2.68,2.17,2.58h.52c1.34,0,1.44-.21,1.44-1.44,0-2.17.21-1.96-1.96-1.96h0Zm-12.18,17.95h.83c.93,0,1.24-.31,1.13-1.24,0-2.48.31-2.17-2.17-2.17h-.41c-1.34,0-1.44,0-1.34,1.34,0,1.86-.41,2.06,1.96,1.96v.1Zm18.16-3.4h-.83c-.83-.1-1.13.21-1.13,1.13,0,2.37-.41,2.27,2.27,2.27h.41q1.34,0,1.34-1.34c0-2.27.21-1.96-1.96-1.96h0l-.1-.1Zm0-4.85h-1.03c-.72,0-.93.31-.93,1.03,0,2.48-.41,2.37,2.37,2.37h.31c1.24,0,1.34-.1,1.34-1.34,0-2.27.21-2.06-1.96-2.06h-.1Zm-18.06,0h-.91c-.83,0-1.13.21-1.13,1.13,0,2.37-.41,2.27,2.27,2.27h.41c1.24,0,1.34-.1,1.34-1.44,0-2.17.21-1.96-1.96-1.96h-.02Zm0-4.85h-.91c-.83,0-1.13.21-1.03,1.03,0,2.37-.21,2.37,2.27,2.27h.31c1.34,0,1.44,0,1.44-1.44,0-2.17.21-1.96-1.96-1.96l-.12.1Zm18.16-4.85h-1.03c-.72,0-.93.31-.93,1.03,0,2.48-.21,2.37,2.37,2.37h.31c1.24,0,1.34-.1,1.34-1.34,0-2.27.21-1.96-1.96-2.06h-.1Zm0,4.85c-2.27,0-1.96-.31-2.06,2.06v.21c0,.83.31,1.13,1.13,1.13h1.47c1.24,0,1.34-.1,1.34-1.44,0-2.17.21-1.96-1.96-1.96h.08Zm-18.16-4.85h-1.03c-.72,0-.93.31-.93,1.03,0,2.48-.21,2.37,2.37,2.37h.31c1.24,0,1.34-.1,1.34-1.34,0-2.27.21-1.96-1.96-2.06h-.1Zm11.04-23.63c.41,0,.72-.1.62-.62s-.21-.52-.62-.52-.72.1-.62.62.21.52.62.52Zm2.58-.52c0-.41-.21-.52-.62-.52s-.72,0-.72.52.21.52.62.52.72-.1.72-.52Zm-5.98,50.25c.04-.3-.16-.58-.46-.62-.05,0-.1,0-.16,0-.41,0-.52.31-.52.62s.21.62.52.62c.31-.03.54-.31.52-.62h.1Zm-2.17-50.76c-.33,0-.61.21-.72.52-.01.33.25.61.58.62.01,0,.03,0,.04,0,.31,0,.52-.1.52-.41h0c0-.41-.1-.62-.52-.62l.1-.1Zm2.37.52c0-.41-.21-.52-.62-.52-.28-.06-.56.13-.62.41-.06.28.13.56.41.62.07.01.14.01.21,0,.41,0,.52-.21.52-.52h.1Zm-.21,46.02c0-.41-.31-.52-.62-.52-.27-.02-.5.18-.52.45,0,.02,0,.04,0,.06,0,.41.21.62.52.62s.52-.21.52-.62h.1Zm4.13-.1c0-.21-.1-.41-.52-.41s-.62.1-.62.52.21.62.52.62.52-.21.52-.72h.1Zm-.41,4.85c.31,0,.41-.21.41-.52.02-.31-.2-.59-.52-.62-.27-.03-.5.17-.53.43,0,.06,0,.13.02.19.1.41.21.52.72.52h-.1Zm-1.65-50.76c0-.41-.31-.52-.62-.52s-.52.21-.41.62.31.52.62.52c.31-.03.54-.31.52-.62h-.1Zm-.52,45.71c.27.02.5-.18.52-.45,0-.02,0-.04,0-.06,0-.41-.21-.62-.62-.52s-.52.21-.52.62c.03.31.31.54.62.52h0v-.1Zm-3.1,2.99c.31,0,.52-.1.62-.52s-.1-.62-.52-.62-.52.1-.62.52.1.62.52.62h0Zm5.88-1.13c-.25,0-.45.21-.44.46,0,.05.01.11.03.16,0,.31.21.52.62.41s.52-.31.52-.62c-.03-.31-.31-.54-.62-.52l-.1.1Zm-2.89,4.13c.27.02.5-.18.52-.45,0-.02,0-.04,0-.06,0-.41-.21-.62-.52-.62-.27-.02-.5.18-.52.45,0,.02,0,.04,0,.06,0,.41.21.59.52.59v.03Zm-.62-3.2c0-.31-.1-.52-.52-.52-.27-.02-.5.18-.52.45,0,.02,0,.04,0,.06,0,.31.1.62.41.62.3,0,.56-.22.62-.52h0v-.1Zm.83.41c-.27-.02-.5.18-.52.45,0,.02,0,.04,0,.06.03.31.31.54.62.52h0c.31,0,.41-.31.41-.52.02-.27-.18-.5-.45-.52-.02,0-.04,0-.06,0Zm0-1.96c.02-.26-.16-.48-.41-.52-.3,0-.56.22-.62.52,0,.21.1.52.41.52h0c.31,0,.41-.31.52-.52h.1Zm1.03,1.34c.22-.01.4-.19.41-.41,0-.21,0-.41-.31-.52h-.1c-.31,0-.41.21-.52.41s0,.41.41.41l.1.1Z"/><path class="cls-18" d="m200.3,187.53h7.02c.62,0,.72.21.72.83v13.62c0,.52-.1.72-.72.72h-15.79c.02-.22.09-.43.21-.62,1.96-3.2,3.82-6.4,5.78-9.6,1.03-1.59,1.96-3.25,2.79-4.95Z"/><path class="cls-18" d="m187.59,202.59c-1.65,0-2.48-.78-2.48-2.37v-11.9c0-.72.21-.93.93-.93h10.32c-.72,1.5-1.55,2.95-2.48,4.33-2.06,3.61-4.23,7.12-6.29,10.73v.13Z"/><path class="cls-12" d="m200.3,187.53c-.83,1.71-1.76,3.36-2.79,4.95-1.86,3.2-3.82,6.4-5.78,9.6,0,.21-.21.41-.21.62h-1.65c.02-.22.09-.43.21-.62,1.65-2.68,3.3-5.47,4.85-8.15,1.24-2.17,2.58-4.13,3.71-6.4h1.65Z"/><path class="cls-7" d="m198.63,187.53c-1.13,2.17-2.48,4.23-3.71,6.4-1.65,2.79-3.3,5.47-4.85,8.15,0,.21-.21.41-.21.62h-1.13c.47-1.21,1.1-2.35,1.86-3.4,2.27-3.92,4.64-7.84,6.91-11.66h1.13v-.1Z"/><path class="cls-11" d="m197.5,187.53c-2.27,3.92-4.64,7.74-6.91,11.66-.76,1.05-1.38,2.2-1.86,3.4h-1.13c2.17-3.51,4.23-7.12,6.29-10.73.92-1.39,1.75-2.83,2.48-4.33h1.13Z"/><path class="cls-15" d="m199.66,217.97c2.27,0,1.96-.21,1.96,1.96,0,1.24,0,1.34-1.44,1.34h-1.65c-.51.06-.97-.3-1.03-.81,0-.07,0-.15,0-.22,0-2.37-.21-2.37,2.17-2.27Z"/><path class="cls-15" d="m193.47,217.97h0c1.96,0,2.48.62,1.96,2.58-.05.45-.46.78-.92.72,0,0,0,0-.01,0-.79.05-1.58.05-2.37,0-1.55-.31-.62-1.65-.83-2.48-.1-.62.21-.93.83-.83h1.34Z"/><path class="cls-15" d="m193.47,213.09h0c1.96,0,2.48.62,1.96,2.58-.07.4-.42.7-.83.72h-2.37c-.62,0-1.03-.31-.93-1.03v-.31c0-2.27-.31-2.06,2.06-2.06l.1.1Z"/><path class="cls-15" d="m199.66,213.09c2.17,0,1.96-.21,1.96,1.96,0,1.24-.21,1.44-1.44,1.44h-.52c-2.48,0-2.17-.21-2.17-2.58,0-.52.31-.72.83-.72h1.34v-.1Z"/><path class="cls-15" d="m199.56,226.22c-1.96,0-2.58-.72-2.06-2.68.08-.38.43-.65.83-.62h2.89c.93.72.41,1.75.41,2.58,0,.62-.52.72-1.03.72h-1.03Z"/><path class="cls-15" d="m193.47,226.22c-1.86,0-2.58-1.03-1.96-2.79.07-.36.41-.6.77-.53.02,0,.04,0,.06.01h2.89c.93.72.41,1.65.41,2.48,0,.52-.41.83-1.03.83h-1.13Z"/><path class="cls-15" d="m193.47,208.16h0c2.06,0,2.48.52,2.06,2.58,0,.52-.41.72-.93.83h-.83q-2.37,0-2.37-2.37c0-2.37.31-1.13,1.03-1.03h1.03Z"/><path class="cls-15" d="m199.66,208.16c2.17,0,1.96-.21,1.96,1.96,0,1.24-.21,1.44-1.44,1.44h-.52c-2.48,0-2.17-.21-2.17-2.58,0-.52.31-.72.83-.83h1.34Z"/><path class="cls-15" d="m187.49,226.22c-2.37,0-1.96-.1-1.96-1.96q0-1.34,1.34-1.34h.41c2.48,0,2.17-.31,2.17,2.17,0,.93-.31,1.24-1.13,1.24h-.83v-.1Z"/><path class="cls-15" d="m205.65,222.82c2.27,0,1.96-.21,1.96,1.96q0,1.34-1.34,1.34h-.41c-2.68,0-2.17,0-2.27-2.27,0-.83.31-1.24,1.13-1.13h.83l.1.1Z"/><path class="cls-15" d="m205.65,217.97c2.17,0,1.96-.21,1.96,2.06,0,1.24-.1,1.34-1.34,1.34h-.31c-2.79,0-2.27.1-2.37-2.37,0-.72.21-1.03.93-1.03h1.13Z"/><path class="cls-15" d="m187.49,217.97c2.17,0,1.86-.21,1.96,1.96,0,1.24,0,1.44-1.34,1.44h-.41c-2.68,0-2.17,0-2.27-2.27,0-.83.31-1.24,1.13-1.13h.93Z"/><path class="cls-15" d="m187.49,213.09c2.17,0,1.96-.21,1.96,1.96,0,1.34,0,1.44-1.44,1.44h-.31c-2.48,0-2.17,0-2.27-2.27,0-.83.21-1.13,1.03-1.03h.93l.1-.1Z"/><path class="cls-15" d="m205.65,208.16c2.17,0,1.96-.21,1.96,2.06,0,1.24-.1,1.34-1.34,1.34h-.31c-2.58,0-2.27.1-2.37-2.37,0-.72.21-1.03.93-1.03h1.13Z"/><path class="cls-15" d="m205.65,213.09c2.17,0,1.96-.21,1.96,1.96,0,1.34-.1,1.44-1.34,1.44h-1.44c-.83,0-1.13-.31-1.13-1.13v-.21c0-2.27-.31-2.06,2.06-2.06h-.1Z"/><path class="cls-15" d="m187.49,208.16c2.17,0,1.96-.21,1.96,1.96,0,1.24-.1,1.34-1.34,1.34h-.31c-2.58,0-2.37.1-2.37-2.37,0-.72.21-1.03.93-1.03h1.03l.1.1Z"/><path class="cls-19" d="m198.53,184.64c-.31,0-.62-.1-.62-.52-.01-.33.25-.61.58-.62.01,0,.03,0,.04,0,.31,0,.62.1.62.52.01.33-.25.61-.58.62-.01,0-.03,0-.04,0Z"/><path class="cls-19" d="m201.01,184.12c0,.41-.31.52-.72.52s-.62-.21-.62-.52.31-.52.72-.52.62.21.62.52Z"/><path class="cls-21" d="m195.02,234.27c.02.31-.2.59-.52.62-.27.03-.5-.17-.53-.43,0-.06,0-.13.02-.19,0-.31.1-.62.52-.62.3-.04.58.16.62.46,0,.05,0,.1,0,.16h-.1Z"/><path class="cls-19" d="m192.85,183.5c.41,0,.52.21.52.62.02.27-.18.5-.45.52-.02,0-.04,0-.06,0h0c-.41,0-.72-.21-.62-.62s.31-.52.72-.52h-.1Z"/><path class="cls-19" d="m195.23,184.02c0,.41-.21.62-.52.52-.28.06-.56-.13-.62-.41-.06-.28.13-.56.41-.62.07-.01.14-.01.21,0,.31,0,.62.1.62.52h-.1Z"/><path class="cls-19" d="m195.02,230.04c0,.41-.21.62-.52.62s-.52-.21-.52-.62.1-.52.52-.52.62.1.62.52h-.1Z"/><path class="cls-19" d="m199.15,229.93c0,.52-.21.72-.52.72s-.52-.21-.52-.62.31-.52.62-.52c.26-.02.48.16.52.41h-.1Z"/><path class="cls-19" d="m198.74,234.75c-.41,0-.72-.1-.72-.52s.21-.62.52-.62.52.21.52.62-.1.52-.41.52h.1Z"/><path class="cls-19" d="m197.09,184.02c.04.28-.14.54-.41.62-.31,0-.62-.1-.62-.52-.04-.28.14-.54.41-.62.41,0,.62.1.62.52Z"/><path class="cls-19" d="m196.57,229.73c-.31,0-.52-.1-.62-.52s.1-.62.52-.62.62.21.62.52c.02.27-.18.5-.45.52-.02,0-.04,0-.06,0v.1Z"/><path class="cls-19" d="m193.58,232.69c-.41,0-.52-.21-.52-.62s.21-.52.62-.52.52.21.52.62-.21.52-.62.52Z"/><path class="cls-19" d="m199.46,231.59c.41,0,.62.1.62.41s-.1.62-.52.62c-.28.04-.54-.14-.62-.41,0-.41.1-.62.41-.62h.1Z"/><path class="cls-19" d="m196.57,227.46c-.22-.01-.4-.19-.41-.41,0-.21.1-.31.41-.31.21-.02.39.14.41.35,0,.02,0,.04,0,.06,0,.21-.1.31-.41.31Z"/><path class="cls-21" d="m195.95,232.51c-.06.29-.32.51-.62.52-.31,0-.52-.21-.41-.62s.21-.52.52-.52.41.31.52.52v.1Z"/><path class="cls-21" d="m196.78,232.93c.27-.02.5.18.52.45,0,.02,0,.04,0,.06,0,.31,0,.52-.41.52s-.62-.1-.62-.41h0c0-.31.21-.41.52-.52v-.1Z"/><path class="cls-21" d="m196.67,231.07c-.02.28-.24.5-.52.52-.26.02-.48-.16-.52-.41h0c.03-.31.31-.54.62-.52.31,0,.41.21.41.52v-.1Z"/><path class="cls-19" d="m197.81,232.31c-.41,0-.52-.21-.41-.41s.21-.52.52-.41c.22.01.4.19.41.41v.1c-.01.22-.19.4-.41.41l-.1-.1Z"/><path d="m163.35,195.48c2.72-.26,5.14,1.74,5.4,4.47,0,.03,0,.07,0,.1l.21,4.06-10.09.64-.21-4.06c-.19-2.68,1.84-5.01,4.52-5.2.06,0,.11,0,.17,0Zm.18,2.2c-1.42-.06-2.62,1.04-2.68,2.45,0,.12,0,.25.01.37l.09,1.77,5.66-.41-.09-1.77c-.06-1.48-1.31-2.63-2.79-2.57-.08,0-.15,0-.23.02l.03.14Z"/><path d="m159.79,193.2c-.73-.13-1.22-.83-1.09-1.56.13-.73.83-1.22,1.56-1.09.73.13,1.22.83,1.09,1.56h0c-.12.72-.79,1.21-1.51,1.09-.01,0-.03,0-.04,0Zm1.89.11l.36-2.1,7.06,1.22-.36,2.1-7.06-1.22Z"/><path d="m169.27,185.3c1.61.54,1.81,2.14,1.24,3.61-.34,1.23-1.36,2.15-2.62,2.36l-.38-2.08c.55.08,1.07-.3,1.16-.85.19-.49.13-.78-.19-.86-.81-.27-1.55,3.18-3.88,2.41-1.47-.58-1.78-2-1.29-3.53.33-1.1,1.24-1.94,2.37-2.16l.29,2.03c-.43.04-.81.33-.96.73-.16.22-.11.52.1.68.02.01.04.02.05.03.81.27,1.46-3.23,3.97-2.36l.14-.03Z"/><path d="m172.93,177.11c1.71,1.03,2.26,3.25,1.23,4.96-.02.03-.04.06-.06.09-.44.69-1.15,1.16-1.95,1.32l3.04,1.95-1.23,1.91-8.34-5.72,1.17-1.82.61.39c-.16-.79.01-1.61.48-2.27,1.17-1.58,3.4-1.91,4.98-.74.04.03.07.05.1.08l-.03-.14Zm-1.17,1.82c-.77-.57-1.87-.41-2.44.36,0,0-.01.01-.02.02-.55.69-.43,1.7.26,2.25.06.04.12.09.18.12.77.57,1.87.41,2.44-.36,0,0,.01-.01.02-.02.57-.64.51-1.62-.13-2.19-.09-.08-.19-.15-.3-.21l-.02.03Z"/><path d="m169.45,171.08l1.55-1.46,7.2,7.69-1.55,1.46-7.2-7.69Z"/><path d="m181.5,166.43l3.74,6.2-1.84,1.15-.35-.59c-.16.79-.68,1.45-1.4,1.8-1.92.88-4.19.04-5.08-1.88-.76-1.64-.26-3.59,1.19-4.67.68-.44,1.53-.57,2.31-.36l-.35-.59,1.84-1.15-.06.09Zm.02,4.18c-.45-.84-1.49-1.15-2.33-.7-.02,0-.04.02-.05.03-.88.46-1.22,1.55-.76,2.44.46.88,1.55,1.22,2.44.76.88-.46,1.22-1.55.76-2.44-.02-.03-.03-.06-.05-.09Z"/><path d="m190.9,163.63l-.61,7.45c-.21,2.44-1.22,3.63-3.22,4.06l-.49-1.91c.83-.1,1.46-.82,1.43-1.66l-4.51-5.96,2.34-.58,2.7,3.82.18-4.67,2.25-.64-.06.09Z"/><path d="m205.37,173.14l-1.88-3.44-.39,3.15-2.13-.24,1.34-10.02,2.13.24-.84,5.99,2.57-2.82,2.55.37-3.07,3.21,2.18,3.98-2.41-.33-.05-.09Z"/><path d="m211.56,173.28c.49.2,1.04.2,1.52,0l1.21,1.57c-1.05.64-2.36.69-3.46.13-1.95-.63-3.02-2.72-2.39-4.66.04-.11.08-.22.13-.33.68-1.89,2.76-2.86,4.65-2.18.12.04.24.09.35.15,1.88.76,2.8,2.9,2.04,4.78-.02.05-.04.09-.06.14-.08.28-.3.52-.39.8l-4.74-2c-.02.74.49,1.4,1.21,1.57l-.09.05Zm2.24-1.93c.08-.71-.3-1.4-.94-1.72-.65-.33-1.44-.15-1.88.44l2.86,1.14-.04.14Z"/><path d="m224.27,174.8l-6.22,4.11c-2.07,1.37-3.65,1.29-5.17,0l1.23-1.62c.58.6,1.54.65,2.17.1l1.81-7.22,1.94,1.41-1.4,4.53,3.69-2.72,1.8,1.37.14.04Z"/><path d="m227.54,184.66c-1.5,1.27-3.74,1.09-5.02-.41-.03-.03-.05-.06-.08-.1-.54-.61-.77-1.44-.64-2.24l-2.83,2.14-1.31-1.75,8.09-6.07,1.31,1.75-.63.35c.81.13,1.53.59,1.99,1.27,1.12,1.62.71,3.83-.91,4.95-.04.02-.07.05-.11.07l.14.04Zm-1.31-1.75c.74-.49.95-1.48.47-2.23-.04-.07-.09-.13-.14-.19-.45-.74-1.42-.97-2.16-.52-.09.06-.18.12-.26.2-.74.49-.95,1.48-.47,2.23.04.07.09.13.14.19.45.74,1.42.97,2.16.52.09-.06.18-.12.26-.2h0Z"/><path d="m234.19,191.84l-6.79,2.42-.77-2.05.54-.3c-.77-.23-1.34-.87-1.49-1.65-.49-2.06.79-4.13,2.86-4.62,1.76-.41,3.57.46,4.35,2.09.34.75.28,1.62-.15,2.31l.54-.3c.05.09.82,2.14.82,2.14l.09-.05Zm-4.09-.82c.84-.21,1.35-1.06,1.14-1.9-.03-.1-.06-.21-.11-.3-.29-.88-1.24-1.35-2.11-1.06-.03.01-.06.02-.1.04-.84.21-1.35,1.06-1.14,1.9.03.1.06.21.11.3.3.87,1.26,1.33,2.13,1.03.02,0,.03-.01.05-.02l.03.02Z"/><path d="m237.97,202.23l-10.1.46-.13-2.17.69-.03c-.65-.49-1-1.28-.91-2.09.03-2,1.65-3.62,3.65-3.64,1.96-.2,3.7,1.23,3.9,3.18,0,.03,0,.06,0,.09.06.81-.23,1.61-.8,2.2l3.55-.18.13,2.17Zm-6.58-1.93c.95,0,1.73-.76,1.74-1.71,0-.02,0-.04,0-.06,0-.89-.74-1.61-1.63-1.61-.06,0-.12,0-.18.01-.95,0-1.73.76-1.74,1.71,0,.02,0,.04,0,.06,0,.89.74,1.61,1.63,1.61.06,0,.12,0,.18-.01h0Z"/></svg>