<?xml version="1.0" encoding="UTF-8"?><svg id="Layer_1" xmlns="http://www.w3.org/2000/svg" xmlns:xlink="http://www.w3.org/1999/xlink" viewBox="0 0 400 272"><defs><style>.cls-1{fill:#a7cefe;}.cls-2{fill:url(#linear-gradient-2);}.cls-3{fill:#fff;}.cls-4{fill:#eb917f;}.cls-5{fill:#fdc00f;}.cls-6{fill:#f3bd99;}.cls-7{stroke:#c000e2;}.cls-7,.cls-8{stroke-width:4px;}.cls-7,.cls-8,.cls-9{stroke-miterlimit:10;}.cls-7,.cls-8,.cls-9,.cls-10{fill:none;}.cls-11{fill:#f4bd99;}.cls-8{stroke:#00b51e;}.cls-12{fill:#717f8f;}.cls-9{stroke:#231f20;stroke-width:2px;}.cls-13{fill:gray;}.cls-14{fill:#16c5d5;}.cls-15{fill:#97d6e5;}.cls-16{fill:#728090;}.cls-17{fill:#1b1464;}.cls-18{fill:#073856;}.cls-19{fill:#9dd8e6;}.cls-20{fill:#b6d6fd;}.cls-21{fill:url(#linear-gradient);}.cls-22{fill:#3f4a5b;}.cls-23{fill:#231f20;}</style><linearGradient id="linear-gradient" x1="-723.35" y1="85.84" x2="-721.85" y2="74.24" gradientTransform="translate(812.79 -165.39) rotate(-27.33)" gradientUnits="userSpaceOnUse"><stop offset="0" stop-color="#d53f26"/><stop offset="1" stop-color="#a4252c"/></linearGradient><linearGradient id="linear-gradient-2" x1="-1002.01" y1="-56.35" x2="-1000.51" y2="-67.95" gradientTransform="translate(-722.5 -170.81) rotate(-152.4) scale(1 -1)" xlink:href="#linear-gradient"/></defs><path d="m92.34,96.91l5.7.6-.2,2.1-5.7-.6.2-2.1Z"/><path d="m192.61,30.64c-.11-.61.29-1.19.9-1.3.61-.11,1.19.29,1.3.9.11.61-.29,1.19-.9,1.3,0,0,0,0,0,0-.61.1-1.18-.3-1.3-.9Zm.5,1.6l1.8-.3,1.1,6-1.8.3-1.1-6Z"/><path d="m196.71,34.64c-.08-1.74,1.27-3.22,3.02-3.3.03,0,.06,0,.08,0,1.13-.03,2.2.54,2.8,1.5l-1.6,1c-.25-.43-.7-.7-1.2-.7-.7-.03-1.29.52-1.32,1.22,0,.09,0,.19.02.28-.02.76.58,1.38,1.34,1.4.02,0,.04,0,.06,0,.5,0,.95-.27,1.2-.7l1.6.9c-.54,1-1.57,1.63-2.71,1.67-1.71.11-3.18-1.19-3.29-2.89,0-.07,0-.14,0-.21v-.17Z"/><path d="m210.31,32.64l-1.1,6-1.8-.3v-.6c-.48.45-1.17.61-1.8.4-1.66-.39-2.69-2.04-2.3-3.7,0,0,0,0,0,0,.25-1.7,1.8-2.89,3.5-2.7.71.08,1.34.49,1.7,1.1v-.6c.1,0,1.9.3,1.9.3l-.1.1Zm-2.4,2.7c.21-.7-.18-1.43-.88-1.65-.1-.03-.21-.05-.32-.05-.75-.18-1.5.29-1.67,1.03-.01.05-.02.11-.03.17-.21.7.18,1.43.88,1.65.1.03.21.05.32.05.75.18,1.5-.29,1.67-1.03.01-.05.02-.11.03-.17Z"/><line class="cls-10" x1="200.28" y1="119.6" x2="200.78" y2="152.38"/><line class="cls-9" x1="200.28" y1="119.6" x2="200.61" y2="141.62"/><polygon class="cls-23" points="193.1 139.54 200.78 152.38 208.06 139.32 193.1 139.54"/><line class="cls-10" x1="118.68" y1="115.34" x2="167.32" y2="154.64"/><line class="cls-9" x1="118.68" y1="115.34" x2="158.95" y2="147.88"/><polygon class="cls-23" points="152.55 152.32 167.32 154.65 161.95 140.69 152.55 152.32"/><line class="cls-10" x1="281.32" y1="115.34" x2="232.68" y2="154.64"/><line class="cls-9" x1="281.32" y1="115.34" x2="241.05" y2="147.88"/><polygon class="cls-23" points="238.05 140.69 232.68 154.64 247.45 152.32 238.05 140.69"/><circle class="cls-8" cx="200" cy="206.06" r="45"/><path d="m177.5,180.36c2.25,1.86,2.58,5.19.72,7.45-.1.12-.21.24-.32.35-2.13,2.48-5.86,2.77-8.35.65-.02-.02-.04-.03-.05-.05-2.4-2.17-2.59-5.87-.42-8.28,0,0,.01-.02.02-.02,1.29-1.49,3.25-2.21,5.2-1.9l-.5,2.5c-1.06-.16-2.13.26-2.8,1.1-1.22,1.24-1.21,3.25.04,4.47.08.08.17.16.26.23,1.4,1.3,3.3,1.2,4.8-.4.95-.83,1.19-2.19.6-3.3l-2,2.2-1.7-1.45,3.8-4.2.7.6v.05Z"/><path d="m187.7,176.26c1.13,1.9.52,4.35-1.38,5.49,0,0-.02,0-.02.01-.78.49-1.73.6-2.6.3l1.9,3.5-2.1,1.1-5.3-9.9,2.1-1.1.4.7c.22-.87.8-1.59,1.6-2,2.02-.95,4.42-.11,5.4,1.9Zm-2.1,1.1c-.41-.91-1.48-1.32-2.39-.91-.07.03-.14.07-.21.11-.92.45-1.31,1.56-.86,2.49.02.04.04.08.06.11.41.91,1.48,1.32,2.39.91.07-.03.14-.07.21-.11.92-.45,1.31-1.56.86-2.49-.02-.04-.04-.08-.06-.11h0Z"/><path d="m196.7,173.26l1,4.8-2.3.5-.9-4.5c-.05-.7-.66-1.22-1.36-1.17-.12,0-.23.03-.34.07-.75.08-1.29.75-1.21,1.5.01.14.05.27.11.4l.9,4.3-2.4.5-2.3-11,2.3-.5.8,3.9c.39-.77,1.14-1.3,2-1.4,1.62-.34,3.21.7,3.55,2.32.02.09.03.19.05.28h.1Z"/><path d="m198.5,174.06c.17-2.35,2.2-4.12,4.55-3.95s4.12,2.2,3.95,4.55-2.2,4.12-4.55,3.95-4.12-2.2-3.95-4.55Zm6.1.5c.1-1-.63-1.89-1.63-1.99-.02,0-.05,0-.07,0-1.02-.07-1.9.68-2,1.7-.1,1,.63,1.89,1.63,1.99.02,0,.05,0,.07,0,1.02.07,1.9-.68,2-1.7Z"/><path d="m216.2,177.06l-1.7,4.6-2.2-.9,1.6-4.3c.35-.63.12-1.43-.51-1.78-.09-.05-.19-.09-.29-.12-.76-.31-1.63.06-1.94.82-.02.06-.04.12-.06.18l-1.6,4.1-2.2-.9,2.8-7.5,2.2.9-.3.7c.77-.46,1.73-.46,2.5,0,1.5.6,2.4,2.1,1.6,4.2h.1Z"/><path d="m219.6,182.96c.45.36,1.03.5,1.6.4l.9,2c-2.4.59-4.82-.88-5.41-3.27-.3-1.21-.08-2.49.61-3.53,1.3-1.84,3.84-2.27,5.67-.97.08.05.15.11.23.17,1.78,1.31,2.17,3.81.86,5.59-.05.07-.11.14-.16.21-.18.28-.42.52-.7.7l-4.5-3.4c-.21.8.16,1.63.9,2v.1Zm2.9-1.5c.36-.72.1-1.6-.6-2-.63-.55-1.57-.55-2.2,0l2.8,2.1v-.1Z"/><path d="m236.1,187.96l-9.4,6-1.4-2.2,7.2-4.6-1.5-1.4,1.5-1.7,2.5,1.9,1.2,1.9-.1.1Z"/><path class="cls-14" d="m210,184.16c-6.59-1.4-13.41-1.4-20,0-2.25.41-3.99,2.23-4.3,4.5-2.5,19.9-1.6,30.9,1.8,51,.5,2.7,2.3,5.2,4,5.5,5.65,1.1,11.45,1.1,17.1,0,1.7-.3,3.5-2.9,4-5.5,3.4-20.1,4.3-31.1,1.8-51-.31-2.27-2.05-4.09-4.3-4.5h-.1Z"/><path class="cls-18" d="m192.6,212.06c4.82,1.47,9.98,1.47,14.8,0,1-.3,1-.7-.1-.7h-14.6c-1.1,0-1.2.4-.1.7Z"/><path class="cls-5" d="m207.8,191.66h-15.5c-1.68.14-2.94,1.62-2.8,3.3,0,0,0,0,0,0v10.6c-.1,1.67,1.13,3.13,2.8,3.3h15.5c1.68-.14,2.94-1.62,2.8-3.3,0,0,0,0,0,0v-10.6c.1-1.67-1.13-3.13-2.8-3.3Z"/><path class="cls-3" d="m195.2,219.46c0,.6-.4,1.1-1,1-1.3-.2-2.6-.5-3.8-.8-.61-.19-1.02-.76-1-1.4,0-1.2,0-2.5-.1-3.7-.05-.46.28-.86.74-.91.09,0,.18,0,.26.01,1.3.3,2.6.6,3.9.8.6,0,1,.7,1,1.3v3.7Z"/><path class="cls-3" d="m203,219.66c0,.59-.42,1.1-1,1.2h-3.9c-.6-.06-1.05-.6-1-1.2v-3.7c0-.57.43-1.05,1-1.1h3.9c.55,0,1,.44,1.01.99,0,.04,0,.07,0,.11v3.7Z"/><path class="cls-3" d="m210.7,218.26c-.02.63-.41,1.18-1,1.4-1.3.3-2.6.6-3.8.8-.52.03-.97-.36-1-.88,0-.04,0-.08,0-.12v-3.7c.02-.6.42-1.13,1-1.3,1.3-.2,2.6-.5,3.9-.8.6-.1,1,.2,1,.9,0,1.2,0,2.5-.1,3.7Z"/><path class="cls-3" d="m195.3,226.96c0,.6-.4,1.1-1,1-1.29-.17-2.56-.44-3.8-.8-.59-.22-.98-.77-1-1.4,0-1.2,0-2.5-.1-3.7-.05-.46.28-.86.74-.91.09,0,.18,0,.26.01,1.3.3,2.5.6,3.8.8.6,0,1,.7,1,1.3v3.7h.1Z"/><path class="cls-3" d="m202.9,227.16c0,.59-.42,1.1-1,1.2h-3.8c-.6-.06-1.05-.6-1-1.2v-3.7c-.06-.55.35-1.04.89-1.1.03,0,.07,0,.11,0h3.9c.55,0,1,.44,1.01.99,0,.04,0,.07,0,.11v3.7h-.1Z"/><path class="cls-3" d="m210.5,225.91c-.02.63-.41,1.18-1,1.4-1.2.3-2.5.6-3.8.8-.55,0-1-.45-1-1v-3.7c.02-.6.42-1.13,1-1.3,1.29-.16,2.56-.43,3.8-.8.45-.1.89.19.99.64.02.09.02.18.01.26,0,1.2,0,2.5-.1,3.7h.1Z"/><path class="cls-3" d="m195.4,234.56c0,.6-.4,1.1-1,1-1.2-.2-2.5-.4-3.7-.7-.59-.22-.98-.77-1-1.4,0-1.2,0-2.5-.1-3.7,0-.6.4-1,.9-.9,1.2.3,2.5.6,3.7.8.5,0,1,.7,1,1.3v3.7l.2-.1Z"/><path class="cls-3" d="m202.9,234.66c.05.6-.4,1.14-1,1.2h-3.7c-.58-.1-1.01-.61-1-1.2v-3.7c-.06-.55.35-1.04.89-1.1.03,0,.07,0,.11,0h3.8c.57.05,1,.53,1,1.1v3.7h-.1Z"/><path class="cls-3" d="m210.3,233.36c-.02.63-.41,1.18-1,1.4-1.21.34-2.45.57-3.7.7-.55,0-1-.45-1-1v-3.7c.02-.6.42-1.13,1-1.3,1.25-.16,2.49-.43,3.7-.8.41-.09.81.18.9.59.02.1.02.21,0,.31,0,1.2,0,2.5-.1,3.7l.2.1Z"/><path class="cls-3" d="m202.8,242.26c.05.6-.4,1.14-1,1.2h-3.6c-.58-.1-1.01-.61-1-1.2v-3.7c-.06-.55.35-1.04.89-1.1.03,0,.07,0,.11,0h3.7c.57.05,1,.53,1,1.1v3.7h-.1Z"/><path class="cls-18" d="m198.9,189.91c.02.25-.15.47-.4.5h0c-.25-.03-.42-.25-.4-.5v-4c-.02-.25.15-.47.4-.5h0c.25.03.42.25.4.5v4Z"/><path class="cls-18" d="m200.5,189.91c.02.25-.15.47-.4.5h0c-.25-.03-.42-.25-.4-.5v-4c-.02-.25.15-.47.4-.5h0c.25.03.42.25.4.5v4Z"/><path class="cls-18" d="m202.1,189.91c.02.25-.15.47-.4.5h0c-.25-.03-.42-.25-.4-.5v-4c-.02-.25.15-.47.4-.5h0c.25.03.42.25.4.5v4Z"/><path class="cls-3" d="m202.9,205.46h-.6c-.4,0-.9-.2-1.3-.2-.51-.05-1.01-.15-1.5-.3-.61-.09-1.21-.22-1.8-.4h-.3c-.2,0-.3-.3-.2-.5.07-.29.21-.57.4-.8.2-.5.4-.9.6-1.4.2-.3.3-.6.5-.9.28-.43.87-.56,1.3-.27.07.05.14.11.2.17.17.18.3.38.4.6.3.5.6.9.9,1.4.5.8,1,1.5,1.4,2.3,0,.08.04.15.1.2,0,.2,0,.4-.3.4l.2-.3Z"/><path class="cls-21" d="m210.7,240.96c-.21.02-.42.09-.6.2-.5.1-.9.3-1.4.4s-1.1.3-1.7.5-1.3.4-2,.6h-.3c-.3,0-.4-.1-.4-.4v-3.9c.11-.63.7-1.05,1.32-.94.06,0,.12.02.18.04.26.04.5.14.7.3.5.3,1.1.6,1.6.9.9.5,1.7,1,2.6,1.5.11,0,.2.09.2.2.2.2.2.4,0,.5l-.2.1Z"/><path class="cls-2" d="m189.3,240.96c.21.02.42.09.6.2.5.1.9.3,1.4.4s1.1.3,1.7.5,1.3.4,2,.6h.3c.3,0,.4-.1.4-.4v-3.9c-.11-.63-.7-1.05-1.32-.94-.06,0-.12.02-.18.04-.26.04-.5.14-.7.3-.5.3-1.1.6-1.6.9-.9.5-1.7,1-2.6,1.5-.11,0-.2.09-.2.2-.2.2-.2.4,0,.5l.2.1Z"/><path class="cls-3" d="m204,194.66h.2c.2,0,.3.1.2.3s-.2.2-.2.4c-.5.7-1.1,1.4-1.6,2.1l-1.5,1.8c-.25.27-.56.47-.9.6-.42.12-.88,0-1.2-.3-.2-.17-.36-.38-.5-.6-.5-.7-1-1.5-1.4-2.2-.2-.3-.4-.7-.6-1h0c-.1-.3,0-.4.2-.4,1,0,2-.1,3-.2.9-.02,1.8-.08,2.7-.2.63.02,1.27-.02,1.9-.1h0l-.3-.2Z"/><circle class="cls-7" cx="91.24" cy="67.94" r="45"/><path d="m57.94,52.74c1.82.66,2.75,2.67,2.08,4.49-.03.07-.05.14-.08.21l-.6,1.5,3.1,1.2-.9,2.2-9.8-3.8,1.4-3.7c.65-1.85,2.66-2.82,4.51-2.17.06.02.13.05.19.07h.1Zm-.94,2.17c-.6-.3-1.34-.06-1.64.55-.02.05-.05.1-.06.15l-.6,1.5,2.5,1,.6-1.5c.28-.62.01-1.35-.61-1.63-.06-.03-.13-.05-.19-.07Z"/><path d="m65.24,46.24l3.7,2.7-1.3,1.8-3.4-2.5c-.56-.48-1.41-.42-1.89.14-.48.56-.42,1.41.14,1.89.08.07.16.12.25.17l3.3,2.4-1.3,1.8-8.5-6.2,1.3-1.8,3,2.2c-.17-.8.01-1.64.5-2.3.9-1.2,2.5-1.6,4.2-.4v.1Z"/><path d="m66.94,45.64c-1.36-1.67-1.11-4.13.56-5.49.05-.04.1-.08.14-.11,1.72-1.37,4.21-1.1,5.6.6,1.36,1.67,1.11,4.13-.56,5.49-.05.04-.1.08-.14.11-1.72,1.37-4.21,1.1-5.6-.6Zm4.5-3.5c-.6-.77-1.71-.91-2.48-.31,0,0-.01,0-.02.01-.77.58-.92,1.68-.34,2.45.01.02.03.03.04.05.6.77,1.71.91,2.48.31,0,0,.01,0,.02-.01.77-.58.92-1.68.34-2.45-.01-.02-.03-.03-.04-.05Z"/><path d="m80.94,36.34l1.8,4.2-2.1.9-1.7-3.9c-.18-.62-.82-.98-1.44-.81-.09.03-.17.06-.26.11-.8.3-1.1,1-.7,2l1.6,3.8-2.1.9-2.9-6.9,2.1-.9.3.6c.24-.78.83-1.41,1.6-1.7,1.4-.6,3-.1,3.8,1.8v-.1Z"/><path d="m87.14,38.04c.55-.01,1.04-.32,1.3-.8l1.9.8c-1.19,1.98-3.75,2.63-5.73,1.44-1.03-.62-1.75-1.65-1.97-2.84-.3-2.18,1.22-4.19,3.4-4.5,2.07-.3,3.98,1.14,4.28,3.21,0,.06.02.13.02.19v.9l-5.3.7c.39.65,1.16.97,1.9.8l.2.1Zm1-2.9c-.31-.65-.98-1.04-1.7-1-.77.04-1.4.63-1.5,1.4l3.2-.4Z"/><path d="m107.34,39.54c-.64,1.98-2.76,3.06-4.73,2.42-.02,0-.04-.01-.07-.02-.79-.28-1.43-.85-1.8-1.6l-.3.7-2.1-.8,3.7-9.8,2.1.8-1.3,3.5c.75-.4,1.65-.4,2.4,0,1.9.86,2.75,3.09,1.9,5l.2-.2Zm-2.1-.8c.41-.79.11-1.76-.68-2.17-.1-.05-.21-.1-.32-.13-.83-.39-1.81-.03-2.19.8-.05.1-.08.2-.11.3-.41.79-.11,1.76.68,2.17.1.05.21.1.32.13.83.39,1.81.03,2.19-.8.05-.1.08-.2.11-.3Z"/><path d="m108.44,40.24c1.33-1.77,3.83-2.13,5.6-.8,1.72,1.2,2.15,3.56.96,5.29-.05.07-.1.14-.16.21-1.33,1.77-3.83,2.13-5.6.8-1.72-1.2-2.15-3.56-.96-5.29.05-.07.1-.14.16-.21Zm4.6,3.4c.61-.75.5-1.85-.25-2.46-.02-.01-.03-.03-.05-.04-.67-.57-1.67-.49-2.24.18-.06.07-.11.14-.16.22-.61.75-.5,1.85.25,2.46.02.01.03.03.05.04.68.56,1.68.45,2.24-.23.04-.05.09-.11.12-.17h.04Z"/><path d="m125.94,48.14l-8.3,6.4-1.4-1.8.6-.4c-.86-.03-1.64-.48-2.1-1.2-1.19-1.73-.75-4.1.98-5.28,0,0,.02-.01.02-.02,1.57-1.35,3.94-1.18,5.29.39,0,0,0,0,.01.01.55.63.78,1.48.6,2.3l2.9-2.3,1.4,1.8v.1Zm-6.7,2.3c.79-.52,1.01-1.58.5-2.37-.03-.05-.06-.09-.1-.13-.52-.76-1.56-.96-2.32-.44-.06.04-.12.09-.18.14-.79.52-1.01,1.58-.5,2.37.03.05.06.09.1.13.52.76,1.56.96,2.32.44.06-.04.12-.09.18-.14Z"/><path d="m127.74,59.14l-7.7.4c-2.5.1-3.9-.7-4.6-2.7l1.9-.8c.22.85,1.03,1.41,1.9,1.3l5.5-5.5.9,2.3-3.6,3.3,4.8-.5.9,2.2h0Z"/><path d="m131.74,64.54l-10.3,1.9-.4-2.4,7.8-1.4-.84-1.73,1.9-.9,1.5,2.5.4,2.1-.06-.07Z"/><path class="cls-22" d="m80.64,101.24c0-.2-.2-.1-.4-.2-2.01-.51-3.42-2.32-3.4-4.4v-38.8c0-2.7,1.1-4.2,3.6-5,.06,0,.1-.04.1-.1h3.4v.1c.5,1.3,1.1,2.6,1.6,3.9.12.27.4.44.7.4h9.7c.35.03.67-.17.8-.5l.6-1.5c.36-.78.66-1.58.9-2.4h3.3c.2.2.5.2.8.3,1.8.63,3.02,2.3,3.1,4.2v38.8c0,2.8-1.1,4.3-3.8,5.2,0,0-21,0-21,0Zm23.7-7.3h0v-33.8c0-.4-.3-.2-.5-.2h-25.5c-.4,0-.5.1-.5.5v33.4h26.3l.2.1Zm-13.1,3.1h-4.4c-.5,0-.7.2-.6.7s.4.5.7.5h8.6c.5,0,.7-.2.7-.6s-.3-.5-.7-.5h-4.3v-.1Z"/><path class="cls-16" d="m98.44,52.74c-.26.82-.56,1.62-.9,2.4l-.6,1.5c-.09.35-.44.57-.8.5h-9.7c-.3.04-.58-.13-.7-.4-.5-1.3-1.1-2.6-1.6-3.9v-.1s14.3,0,14.3,0Z"/><path class="cls-1" d="m78.14,93.91c-.2-.1,0-.3,0-.4v-33c0-.4,0-.5.5-.5h25.5c.2,0,.4-.2.5.2-.2,0-.3.2-.5.4-.34.49-.71.95-1.1,1.4l-4.3,5.5c-1.1,1.5-2.3,2.9-3.4,4.4l-4.34,5.53c-1.1,1.5-2.3,2.9-3.4,4.4-1.5,2-3.1,3.9-4.6,5.9-1.1,1.4-2.2,2.8-3.2,4.2-.5.7-1.1,1.3-1.5,2l-.16-.03Z"/><path class="cls-20" d="m78.14,93.91c.4-.7,1-1.3,1.5-2,1.1-1.4,2.2-2.8,3.2-4.2,1.5-2,3.1-3.9,4.6-5.9,1.1-1.5,2.3-2.9,3.4-4.4l4.3-5.5c1.1-1.5,2.3-2.9,3.4-4.4l4.3-5.5,1.1-1.4c.09-.21.28-.36.5-.4v33.7h-26.3Z"/><path class="cls-12" d="m91.24,97.04h4.3c.4,0,.7,0,.7.5s-.2.6-.7.6h-8.6c-.3,0-.6,0-.7-.5s.1-.7.6-.7h4.4v.1Z"/><path d="m89.54,63.64h5.7v25.9h-6.6v-18.9l-4.5,1.1-1.6-5.6,7-2.5Z"/><path class="cls-11" d="m286.46,92.84c.5-.4.9-.9,1.4-1.3l6.8-6.8c1.6-1.66,4.24-1.7,5.9-.1.04.03.07.07.1.1.57.53.96,1.23,1.1,2,.15.62.15,1.28,0,1.9-.3.94-.82,1.79-1.5,2.5-2,1.9-3.9,3.9-5.8,5.8-.3.3-.3.4,0,.7,1.02,1.12,1.77,2.45,2.2,3.9h-13.2c-.2,0-.4,0-.4-.2-.09-1.24-.02-2.48.2-3.7.28-1.17.87-2.24,1.7-3.1l1.5-1.5v-.2Z"/><path class="cls-6" d="m319.06,90.64c-1.48-.83-2.09-2.65-1.4-4.2.54-1.33,1.87-2.17,3.3-2.1h8.4c1.66,0,3.08,1.17,3.4,2.8-.2,0-.2.1-.2.2-.37.89-1.09,1.58-2,1.9-.58.2-1.19.3-1.8.3h-8.4c-1,0-1.2,0-1.3,1.1Z"/><path class="cls-11" d="m319.06,97.54c-1.61-.93-2.19-2.97-1.3-4.6.49-.8,1.28-1.38,2.2-1.6.37-.02.74-.09,1.1-.2h8.8c.69.21,1.34.55,1.9,1,.48.5.83,1.12,1,1.8,0,0-.2.1-.2.2-.6,1.48-2.11,2.38-3.7,2.2h-8.6c-1,0-1.2.2-1.2,1.2Z"/><path class="cls-11" d="m317.36,101.54c-.02-1.58,1.06-2.95,2.6-3.3.24.02.48-.02.7-.1,3.1,0,6.3.1,9.4,0,0,.2.2.2.3.2,1.21.37,2.13,1.37,2.4,2.6.2.7,0,.8-.6.8h-14.8v-.2Z"/><path class="cls-17" d="m296.66,101.54c-.37-1.47-1.13-2.82-2.2-3.9-.3-.3-.3-.4,0-.7,2-1.9,3.9-3.9,5.8-5.8.71-.69,1.22-1.55,1.5-2.5.63,1.51.27,3.26-.9,4.4l-3.8,3.8c-.3.3-.3.4,0,.7,1.02,1.12,1.77,2.45,2.2,3.9h-2.6v.1Z"/><path class="cls-4" d="m330.06,97.91c-3.1.2-6.3,0-9.4,0-.24-.02-.48.02-.7.1-.3-.2-.6-.2-.8-.5h0c0-1.1.2-1.3,1.2-1.3h8.64c1.7,0,3-.5,3.7-2.2,0,0,.1-.2.2-.2.33,1.75-.7,3.46-2.4,4h-.3l-.14.1Z"/><path class="cls-4" d="m329.86,91.14h-8.8c-.38-.03-.76.04-1.1.2-.2-.2-.6-.2-.8-.6h-.1c.1-1.1.2-1.3,1.3-1.3h8.4c.62.05,1.23-.06,1.8-.3.91-.32,1.63-1.01,2-1.9,0-.1,0-.2.2-.2.39,1.79-.72,3.56-2.5,4h-.4v.1Z"/><path class="cls-15" d="m319.06,63.74h-3.8c-.3,0-.5,0-.5-.4-.09-.63.35-1.21.98-1.3.11-.02.22-.02.32,0h6.94c.4,0,.5,0,.5.5.09.63-.35,1.21-.98,1.3-.11.02-.22.02-.32,0h-3.1l-.04-.1Z"/><path class="cls-19" d="m322.06,58.54h3.4c.3,0,.4,0,.4.4q0,1.4-1.3,1.4h-5.9c-.4,0-.5,0-.5-.5,0-.87.4-1.3,1.2-1.3h2.7Z"/><path class="cls-19" d="m314.76,59.34c-.05-.39.22-.75.61-.8.06,0,.13,0,.19,0,.53,0,.83.3.9.9q0,.9-.9.9c-.9,0-.8,0-.8-.9v-.1Z"/><path class="cls-6" d="m319.06,90.64h.1c0,.1-.1,0-.1,0Z"/><path class="cls-17" d="m325.76,54.24h-35.76c-.44-.03-.89.04-1.3.2-1.43.5-2.36,1.88-2.3,3.4v35.07c.5-.4.9-.9,1.4-1.3l6.8-6.8c.53-.57,1.23-.96,2-1.1,2.2-.59,4.46.71,5.05,2.9.02.07.03.13.05.2.15.62.15,1.28,0,1.9.63,1.51.27,3.26-.9,4.4l-3.8,3.8c-.3.3-.3.4,0,.7,1.02,1.12,1.77,2.45,2.2,3.9h18.1c0-1.59,1.07-2.98,2.6-3.4-.3-.2-.6-.2-.8-.5h0c-1.66-1.03-2.17-3.2-1.15-4.86.46-.75,1.19-1.3,2.05-1.54-.2-.2-.6-.2-.8-.6h-.1c-1.47-.93-2.06-2.79-1.4-4.4.54-1.33,1.87-2.17,3.3-2.1h8.4v-26.47c.14-1.85-1.25-3.46-3.1-3.6-.17-.01-.33-.01-.5,0l-.04.2Zm-11,5.1c-.05-.39.22-.75.61-.8.06,0,.13,0,.19,0q.9,0,.9.9t-.9.9c-.9,0-.8,0-.8-.9v-.1Zm7.4,4.4h-6.9c-.3,0-.5,0-.5-.4q0-1.3,1.3-1.3h6.94c.4,0,.5,0,.5.5q0,1.3-1.3,1.3l-.04-.1Zm2.5-3.4h-5.9c-.4,0-.5,0-.5-.5q0-1.3,1.2-1.3h6.1c.3,0,.4,0,.4.4q.04,1.4-1.3,1.4Z"/><circle class="cls-7" cx="308.76" cy="67.94" r="45"/><path d="m278.16,69.14l.2,2.1-5.3.4,4,2.1v.17l-3.7,2.6,5.3-.4.2,2.1-9.1.7-.2-2.1,3.9-2.8-4.2-2.2-.2-2.1,9.1-.7v.13Z"/><path d="m277.56,64.74c.1-.44.03-.91-.2-1.3l1.2-1.3c.74.81,1,1.95.7,3-.25,1.83-1.93,3.11-3.76,2.86-.12-.02-.23-.04-.34-.06-1.78-.3-2.98-1.99-2.67-3.77.02-.11.04-.22.07-.33.34-1.75,2.02-2.89,3.77-2.55.08.01.15.03.23.05.25,0,.49.07.7.2l-1,4.5c.66-.09,1.16-.64,1.2-1.3h.1Zm-2.1-1.7c-.79.05-1.4.74-1.35,1.53.03.49.31.93.75,1.17l.6-2.7Z"/><path d="m274.66,51.54l8.2,3.9-.8,1.8-.6-.3c.32.67.28,1.46-.1,2.1-.82,1.56-2.76,2.17-4.32,1.34-.03-.01-.05-.03-.08-.04-1.67-.71-2.46-2.62-1.8-4.3.29-.69.88-1.2,1.6-1.4l-2.9-1.4.8-1.8v.1Zm4.4,4.3c-.77-.38-1.71-.07-2.1.7-.39.73-.11,1.63.61,2.02.06.03.12.06.19.08.77.38,1.71.07,2.1-.7.38-.75.08-1.66-.67-2.04-.04-.02-.09-.04-.13-.06Z"/><path d="m276.76,50.04c-.52-.36-.66-1.07-.3-1.6.36-.52,1.07-.66,1.6-.3.52.36.66,1.07.3,1.6-.39.48-1.07.61-1.6.3Zm1.5.9l1.1-1.6,5.3,3.8-1.1,1.6-5.3-3.8Z"/><path d="m285.46,42.84l4.5,4.7-1.4,1.4-.4-.4c.02.72-.27,1.41-.8,1.9-1.5,1.18-3.67.92-4.84-.58-1-1.27-.98-3.07.04-4.32.5-.51,1.18-.8,1.9-.8l-.4-.4,1.4-1.4v-.1Zm.9,3.7c-.49-.61-1.37-.71-1.98-.22-.08.06-.15.14-.22.22-.61.55-.66,1.48-.11,2.09.03.04.07.08.11.11.49.61,1.37.71,1.98.22.08-.06.15-.14.22-.22.61-.55.66-1.48.11-2.09-.03-.04-.07-.08-.11-.11Z"/><path d="m288.36,42.74l4.2-2.6,1,1.6-4.2,2.6-1-1.6Z"/><path d="m300,32.91l2.8,8.7-1.5.5-4.9-3.6,1.5,4.7-2,.6-2.8-8.7,1.5-.5,4.9,3.6-1.5-4.7,2-.6Z"/><path d="m303.26,38.24c-.12-1.86,1.29-3.47,3.15-3.6.02,0,.03,0,.05,0,1.89-.1,3.53,1.31,3.7,3.2.12,1.86-1.29,3.47-3.15,3.6-.02,0-.03,0-.05,0-1.89.1-3.53-1.31-3.7-3.2Zm4.9-.3c.03-.76-.56-1.39-1.32-1.42-.09,0-.19,0-.28.02-.83.06-1.45.77-1.39,1.6.06.83.77,1.45,1.6,1.39.82-.06,1.45-.77,1.39-1.59Z"/><path d="m314.46,38.24c.43-1.79,2.24-2.88,4.02-2.45.06.01.12.03.18.05,1.17.32,2.08,1.23,2.4,2.4l-1.9.5c-.07-.52-.48-.93-1-1-.75-.22-1.54.21-1.77.96-.01.05-.03.09-.03.14-.25.73.14,1.52.87,1.76.04.01.09.03.13.04.5.15,1.05,0,1.4-.4l1.4,1.4c-.87.86-2.12,1.2-3.3.9-1.79-.43-2.88-2.24-2.45-4.02.01-.06.03-.12.05-.18v-.1Z"/><path d="m329,40.54l-3,5.7-1.7-.9.3-.5c-.7.23-1.46.15-2.1-.2-1.54-.94-2.04-2.95-1.1-4.5.73-1.62,2.63-2.35,4.26-1.62.01,0,.03.01.04.02.67.29,1.16.89,1.3,1.6l.3-.5,1.7.9h0Zm-3.2,2c.45-.63.3-1.5-.33-1.95-.08-.06-.17-.11-.27-.15-.69-.41-1.59-.19-2,.5-.04.06-.07.13-.1.2-.45.63-.3,1.5.33,1.95.08.06.17.11.27.15.7.4,1.59.15,1.99-.56.03-.05.05-.1.07-.14h.04Z"/><path d="m336.46,50.64l-2.8,2.8-1.4-1.4,2.7-2.7c.5-.5.5-1,0-1.4s-1-.4-1.6.2l-2.6,2.6-1.4-1.4,2.7-2.7c.5-.5.5-1,0-1.4s-1-.4-1.6.2l-2.6,2.6-1.4-1.4,4.6-4.6,1.4,1.4-.4.4c.68-.12,1.38.15,1.8.7.47.47.7,1.14.6,1.8.71-.14,1.45.13,1.9.7,1,.95,1.04,2.52.09,3.52-.06.06-.12.12-.19.18l.2-.1Z"/><path d="m336.86,56.34c.22.41.57.72,1,.9v1.8c-1.11-.14-2.08-.81-2.6-1.8-1.01-1.54-.57-3.6.97-4.61.11-.07.22-.13.33-.19,1.63-.93,3.71-.35,4.63,1.28.02.04.04.08.07.12.88,1.55.34,3.52-1.22,4.4-.06.03-.12.07-.18.1-.2.1-.5.2-.7.3l-2.2-4c-.45.52-.45,1.28,0,1.8l-.1-.1Zm2.7,0c.5-.43.59-1.17.2-1.7-.29-.59-.97-.89-1.6-.7l1.3,2.5.1-.1Z"/><path d="m344.66,62.24l-2.1.7c-.03-.84-.74-1.5-1.58-1.47-.14,0-.28.03-.42.07l-2.8.9-.6-1.9,6.2-2,.6,1.9-1.1.4c.87.03,1.61.65,1.8,1.5v-.1Z"/><path d="m345.76,70.34l-6.5.8-.2-1.9h.6c-.58-.47-.94-1.16-1-1.9-.15-1.78,1.16-3.34,2.94-3.5.02,0,.04,0,.06,0,1.79-.28,3.48.92,3.8,2.7.13.71-.06,1.44-.5,2h.6l.2,1.9v-.1Zm-3.5-1.5c.8,0,1.43-.66,1.42-1.46,0-.08,0-.16-.02-.24-.04-.78-.7-1.39-1.49-1.35-.11,0-.21.02-.31.05-.8,0-1.43.66-1.42,1.46,0,.08,0,.16.02.24.04.78.7,1.39,1.49,1.35.11,0,.21-.02.31-.05Z"/><circle class="cls-7" cx="200.61" cy="67.94" r="45"/><path d="m165.91,64.44c-2.32-.4-3.88-2.61-3.48-4.94.02-.12.05-.24.08-.36.3-1.45,1.32-2.66,2.7-3.2l.6,1.9c-.76.27-1.32.91-1.5,1.7-.34,1.29.43,2.61,1.72,2.94.09.02.19.04.28.06,1.24.37,2.55-.33,2.93-1.57.03-.11.06-.22.07-.33.23-.79,0-1.64-.6-2.2l1.3-1.4c1.04,1.05,1.49,2.55,1.2,4-.48,2.38-2.8,3.91-5.18,3.43-.04,0-.08-.02-.12-.03Z"/><path d="m169.31,55.91c-1.6-.82-2.23-2.79-1.4-4.39,0,0,0,0,0,0,.77-1.6,2.68-2.27,4.28-1.51,0,0,.01,0,.02,0,1.6.82,2.23,2.79,1.4,4.39,0,0,0,0,0,0-.77,1.6-2.68,2.27-4.28,1.51,0,0-.01,0-.02,0Zm2.1-4.2c-.68-.36-1.53-.1-1.89.58,0,0,0,.01,0,.02-.36.65-.12,1.46.53,1.82.06.03.11.06.17.08.68.36,1.53.1,1.89-.58,0,0,0-.01,0-.02.34-.66.09-1.47-.57-1.81-.04-.02-.09-.04-.13-.06v-.03Z"/><path d="m178.51,41.64l2.8,2.5-1.2,1.4-2.7-2.4c-.5-.4-.9-.5-1.3,0-.37.41-.33,1.05.08,1.41.04.03.07.06.12.09l2.6,2.3-1.2,1.4-2.71-2.43c-.5-.4-.9-.5-1.3,0-.37.41-.33,1.05.08,1.41.04.03.07.06.12.09l2.6,2.3-1.2,1.4-4.5-4.1,1.2-1.4.4.4c-.11-.63.11-1.28.6-1.7.43-.47,1.07-.7,1.7-.6-.12-.69.1-1.4.6-1.9.86-.94,2.31-1.01,3.25-.15.05.05.1.1.15.15l-.19-.17Z"/><path d="m183.61,35.54l3.3,5.2-1.6,1-.3-.5c-.08.68-.49,1.28-1.1,1.6-1.04.69-2.45.41-3.15-.63-.06-.09-.11-.17-.15-.27l-2-3.2,1.6-1,1.9,3c.27.52.92.71,1.43.44.02-.01.04-.02.07-.04.6-.4.8-.9.3-1.7l-1.8-2.8,1.6-1-.1-.1Z"/><path d="m192,34.84l1.3,3.5-1.7.6-1.2-3.3c-.1-.54-.62-.9-1.16-.8-.08.01-.16.04-.24.07-.63.24-.95.94-.71,1.57,0,0,0,.02.01.03l1.1,3.2-1.7.6-2.1-5.8,1.7-.6.2.5c.25-.62.76-1.09,1.4-1.3,1.15-.45,2.44.11,2.89,1.25.04.11.08.23.11.35l.1.13Z"/><path d="m213.81,35.84l-.8,2c-.2.5.2.7,1,1l-.6,1.6c-2.3-.6-2.7-1.6-2.1-3.2l.8-2-.9-.4.6-1.6.9.4.4-1.1,1.9.2-.6,1.6,1.2.5-.6,1.6-1.2-.5v-.1Z"/><path d="m217,35.34l1.6.9-2.9,5.4-1.6-.9,2.9-5.4Zm.6-1.5c.28-.55.95-.78,1.5-.5s.78.95.5,1.5c-.28.55-.95.78-1.5.5,0,0,0,0,0,0-.49-.33-.69-.95-.49-1.5h0Z"/><path d="m218.31,39.44c1.08-1.41,3.09-1.68,4.5-.6,1.41,1.08,1.68,3.09.6,4.5-1.01,1.4-2.96,1.72-4.35.71-.05-.04-.1-.07-.15-.11-1.41-1.07-1.68-3.08-.61-4.48,0,0,0-.01.01-.02Zm3.7,2.8c.5-.61.41-1.5-.2-2,0,0,0,0,0,0-.58-.48-1.44-.4-1.91.18-.03.04-.06.08-.09.12-.5.61-.41,1.5.2,2,0,0,0,0,0,0,.58.47,1.44.39,1.91-.2.03-.03.05-.07.08-.1h0Z"/><path d="m228.71,48.34l-2.9,2.4-1.2-1.4,2.7-2.2c.46-.3.59-.92.29-1.38-.03-.04-.06-.08-.09-.12-.4-.5-1-.6-1.7,0l-2.6,2.1-1.2-1.4,4.7-3.9,1.2,1.4-.4.4c.68-.01,1.32.33,1.7.9.82.97.7,2.41-.27,3.23-.07.06-.15.12-.23.17v-.2Z"/><path d="m227.31,50.54l4,1.2c.57.25,1.23.25,1.8,0,.44-.2.62-.72.42-1.16,0-.01-.01-.03-.02-.04-.3-.48-.84-.75-1.4-.7v-1.93c1.29-.14,2.53.54,3.1,1.7.78,1.23.42,2.86-.82,3.64-.09.06-.19.11-.28.16-.95.45-2.05.45-3,0l-1.9-.6,1.3,2.5-1.7.9-2.7-5.2,1.3-.7-.1.23Z"/><path d="m235.11,64.04c-2.17.61-4.42-.65-5.04-2.82-.03-.1-.05-.21-.07-.31-.67-2.41.73-4.91,3.14-5.58.02,0,.04-.01.06-.02,2.35-.61,4.75.8,5.36,3.15.01.05.02.1.04.15.42,1.45.04,3.01-1,4.1l-1.3-1.4c.55-.63.73-1.5.5-2.3-.26-1.29-1.52-2.13-2.81-1.88-.1.02-.19.05-.29.08-1.32.28-2.17,1.59-1.88,2.91.02.1.05.2.08.29.13.94.86,1.67,1.8,1.8l-.5-2.2,1.7-.4,1,4.2-.7.2-.09.03Z"/><path class="cls-13" d="m213.41,55.91c-8.5-.2-17.8-.2-26.3,0-14.8,1.9-22,20.9-11.6,31.8,2.2,3.3-1.6,9.5,2.3,11.8,3.3,1,5.2-3.4,7.4-5.1,9.2-1,20.3.5,29.8-.5,22.1-2.9,20.7-37.2-1.6-38.2v.2Z"/><path d="m184.61,83.74v-3.3l5.9-6.2c.47-.5.91-1.03,1.3-1.6.27-.34.41-.77.4-1.2.02-.41-.12-.8-.4-1.1-.33-.29-.76-.44-1.2-.4-1.14,0-2.13.79-2.4,1.9l-3.9-2.2c.52-1.25,1.38-2.33,2.5-3.1,1.11-.68,2.4-1.02,3.7-1,1.59.02,3.13.55,4.4,1.5,1.2,1.02,1.86,2.53,1.8,4.1.11,1.02-.14,2.04-.7,2.9-.59,1.01-1.3,1.95-2.1,2.8l-2.4,2.5h5.6v4.4h-12.5Z"/><path d="m216.41,73.54v1.8c.09,2.39-.81,4.71-2.5,6.4-1.72,1.63-4.03,2.5-6.4,2.4-2.57.05-5.05-.92-6.9-2.7-3.65-3.62-3.67-9.51-.05-13.15,1.76-1.77,4.15-2.76,6.65-2.75,1.61-.12,3.22.26,4.6,1.1,1.35.64,2.47,1.69,3.2,3l-3.9,2.2c-.39-.59-.95-1.04-1.6-1.3-.73-.32-1.51-.49-2.3-.5-2.64-.07-4.83,2.02-4.9,4.66,0,.08,0,.16,0,.24-.04,1.29.42,2.55,1.3,3.5.99,1.02,2.39,1.53,3.8,1.4,1.69.08,3.29-.81,4.1-2.3h-4.3v-3.9h9l.2-.1Z"/></svg>