<?xml version="1.0" encoding="UTF-8"?><svg id="Layer_1" xmlns="http://www.w3.org/2000/svg" viewBox="0 0 400 400"><defs><style>.cls-1{fill:#375e7d;}.cls-2{stroke:#a5262d;}.cls-2,.cls-3,.cls-4,.cls-5{stroke-width:4px;}.cls-2,.cls-3,.cls-4,.cls-5,.cls-6{fill:none;stroke-miterlimit:10;}.cls-7{fill:#7da1b1;}.cls-8{fill:#8fbac5;}.cls-9{fill:#fff;}.cls-3{stroke:#0018c6;}.cls-10{fill:#d2d5d7;}.cls-11{fill:#2b4d66;}.cls-12{fill:#445367;}.cls-13{fill:#3b66c8;}.cls-14{fill:#0c4a4e;}.cls-15{fill:#4483e7;}.cls-4{stroke:#c000e2;}.cls-16{fill:#d9cfca;}.cls-17{fill:#f1f6f6;}.cls-18{fill:#e5dedc;}.cls-19{fill:#453e43;}.cls-20{fill:#455368;}.cls-21{fill:#2b4e68;}.cls-22{fill:#97f8fe;}.cls-23{fill:#f1efef;}.cls-24{fill:#bfd6e5;}.cls-25{fill:#fedd46;}.cls-26{fill:#d0cde6;}.cls-27{fill:#02f1a6;}.cls-28{fill:#2b506b;}.cls-5{stroke:#00b51e;}.cls-29{fill:#fe7038;}.cls-30{fill:#d7eafb;}.cls-31{fill:#e5e4ec;}.cls-32{fill:#152433;}.cls-6{stroke:#231f20;stroke-width:2px;}.cls-33{fill:#685e66;}.cls-34{fill:#fe415d;}.cls-35{fill:#22a5fc;}.cls-36{fill:#fde077;}.cls-37{fill:#fee077;}.cls-38{fill:#ddebf0;}.cls-39{fill:#3f79d4;}.cls-40{fill:#395f7e;}.cls-41{fill:#fc98c7;}.cls-42{fill:#23e6bf;}.cls-43{fill:#e6dedc;}.cls-44{fill:#e0edf9;}.cls-45{fill:#fed05b;}.cls-46{fill:#d1d5d6;}.cls-47{fill:#fec345;}.cls-48{fill:#0693fb;}.cls-49{fill:#8caabd;}.cls-50{fill:#fee078;}.cls-51{fill:#cee5ec;}.cls-52{fill:#445368;}.cls-53{fill:#f8f6f7;}.cls-54{fill:#d0c8c3;}.cls-55{fill:#d0cde7;}.cls-56{fill:#fdd15b;}.cls-57{fill:#bdd5e5;}.cls-58{fill:#6ab579;}.cls-59{fill:#db411d;}.cls-60{fill:#dcd9ea;}.cls-61{fill:#ecf6fe;}.cls-62{fill:#3b66c9;}.cls-63{fill:#7dd4f3;}.cls-64{fill:#231f20;}.cls-65{fill:#fce00f;}.cls-66{fill:#90ebfe;}.cls-67{fill:#2c4d66;}</style></defs><circle class="cls-5" cx="198.08" cy="337.66" r="45"/><path d="m175.88,312.06c2.37,1.94,2.71,5.43.77,7.8-.15.18-.3.35-.47.5-2.19,2.63-6.1,2.98-8.73.79-2.63-2.19-2.98-6.1-.79-8.73.1-.12.21-.24.32-.36,1.38-1.56,3.45-2.31,5.5-2l-.6,2.6c-1.14-.15-2.28.3-3,1.2-1.33,1.34-1.32,3.51.02,4.84.06.06.12.11.18.16,1.5,1.4,3.5,1.3,5.1-.4,1.02-.86,1.31-2.31.7-3.5l-2.2,2.3-1.7-1.6,4.1-4.4.7.7.1.1Z"/><path d="m186.98,307.96c1.13,2.07.37,4.66-1.69,5.8,0,0,0,0,0,0-.83.46-1.81.53-2.7.2l1.9,3.8-2.3,1.1-5.3-10.7,2.3-1.1.4.7c.29-.91.94-1.67,1.8-2.1,2.15-.94,4.66.05,5.6,2.2v.1Zm-2.3,1.1c-.44-1.01-1.62-1.47-2.63-1.03-.02,0-.04.02-.07.03-.98.4-1.45,1.52-1.05,2.5.04.1.09.2.15.3.5.99,1.71,1.4,2.7.9.99-.5,1.4-1.71.9-2.7h0Z"/><path d="m196.78,305.27l.8,5.2-2.5.4-.7-4.8c-.08-.8-.79-1.39-1.59-1.31-.04,0-.07,0-.11.01-.9.1-1.5.8-1.3,2l.7,4.6-2.5.4-1.8-11.8,2.5-.4.6,4.2c.48-.78,1.29-1.29,2.2-1.4,1.7-.3,3.3.7,3.7,3v-.1Z"/><path d="m198.78,306.16c.37-2.45,2.64-4.15,5.1-3.8,2.41.29,4.12,2.48,3.83,4.89,0,.07-.02.14-.03.21-.37,2.45-2.64,4.15-5.1,3.8-2.43-.32-4.14-2.56-3.82-4.99,0-.04.01-.08.02-.11Zm6.4,1c.23-1.02-.41-2.04-1.44-2.27-.05-.01-.11-.02-.16-.03-.98-.21-1.95.41-2.16,1.4-.02.1-.03.2-.04.3-.18,1.07.53,2.1,1.6,2.3.98.21,1.95-.41,2.16-1.4.02-.1.03-.2.04-.3h0Z"/><path d="m217.28,310.86l-2.3,4.7-2.3-1.1,2.1-4.4c.39-.65.19-1.49-.46-1.88-.08-.05-.16-.09-.24-.12-.74-.41-1.67-.13-2.08.61-.05.09-.09.19-.12.29l-2,4.2-2.3-1.1,3.7-7.7,2.3,1.1-.3.7c.83-.42,1.81-.38,2.6.1,1.5.7,2.3,2.5,1.3,4.6h.1Z"/><path d="m220.38,317.56c.4.45,1,.68,1.6.6l.7,2.2c-1.42.29-2.89-.16-3.9-1.2-1.9-1.55-2.18-4.35-.62-6.25.07-.09.15-.17.22-.25,1.59-1.82,4.36-2,6.18-.41.08.07.15.13.22.21,1.74,1.56,1.88,4.24.32,5.97-.07.08-.14.15-.22.23-.22.28-.49.52-.8.7l-4.4-4.1c-.4.9,0,1.6.7,2.3h0Zm3.3-1.2c.45-.73.28-1.68-.4-2.2-.6-.64-1.56-.76-2.3-.3l2.7,2.5Z"/><path d="m232.58,330.46l-6.5-1.2-1.2-2.9,4.5.9c-.73-2.21.47-4.59,2.68-5.32,2.11-.7,4.39.36,5.22,2.42,1.03,2.07.18,4.58-1.89,5.6-.07.03-.14.07-.21.1-.79.34-1.66.45-2.5.3l-.1.1Zm-.7-3.7c.36.86,1.34,1.26,2.2.9.86-.36,1.26-1.34.9-2.2-.36-.85-1.34-1.26-2.2-.9-.85.34-1.26,1.31-.92,2.16,0,.01.01.03.02.04Z"/><path class="cls-59" d="m215.88,328.77l-16.6-5.6c-1.24-.4-2.56-.4-3.8,0l-16.6,5.6c-1.51.55-2.52,1.99-2.5,3.6v35.6c.01,1.18.57,2.28,1.5,3,.64.47,1.41.71,2.2.7q.8,0,1.2-.2l14.8-5c.91-.3,1.89-.3,2.8,0l14.8,5c1.15.39,2.41.2,3.4-.5.97-.69,1.53-1.81,1.5-3v-35.6c-.1-1.63-1.16-3.05-2.7-3.6h0Z"/><path class="cls-25" d="m215.08,330.46l-16.3-5.5c-.91-.3-1.89-.3-2.8,0l-16.3,5.5c-.97.29-1.62,1.19-1.6,2.2v35.3c.02.52.28.99.7,1.3.29.2.64.31,1,.3h.5l16.2-5.5c.55-.2,1.15-.2,1.7,0l16.3,5.5c.52.16,1.08.04,1.5-.3.42-.31.68-.78.7-1.3v-35.3c-.02-1-.66-1.87-1.6-2.2h0Z"/><path class="cls-25" d="m215.08,367.96h0l-16.3-5.5c-.91-.3-1.89-.3-2.8,0l-16.2,5.5v-35.3c-.02-.3.2-.57.5-.6l16.3-5.5c.3,0,.6-.1.9-.1.3-.02.61.02.9.1l16.3,5.5c.27.09.46.32.5.6v35.3h-.1Z"/><path d="m210.38,334.56l-12.4-3.7c-.33-.1-.67-.1-1,0l-13.2,4.3c-.47.16-.8.6-.8,1.1v8.8c.03.31.17.59.4.8.18.11.39.18.6.2h.3l13.2-4.3h0l12.4,3.7c.3.07.62.03.9-.1.23-.21.37-.49.4-.8v-8.8c-.09-.5-.43-.92-.9-1.1h0l.1-.1Z"/><path d="m209.58,343.66l-11.7-3.5c-.33-.1-.67-.1-1,0l-12.5,4v-7.8l13-4.1h0l12.2,3.7v7.7Z"/><path d="m193.68,358.86c-.27.03-.54.1-.8.2l-1.8.3c-.7.1-1.4.3-2.2.4-.86.19-1.73.32-2.6.4h-.4c-.3,0-.4-.2-.3-.4.2-.4.3-.8.5-1.2.3-.6.6-1.3.9-1.9.19-.45.43-.89.7-1.3.42-.79,1.37-1.14,2.2-.8.22.14.43.3.6.5.4.4.9.8,1.3,1.2.7.6,1.4,1.3,2,1.9l.2.2c.1.2,0,.4-.4.5h.1Z"/><path d="m195.08,345.36h.3c.3,0,.4,0,.3.3s-.2.4-.3.6c-.8,1.1-1.5,2.2-2.3,3.3-.68,1.01-1.41,1.98-2.2,2.9-.36.48-.8.88-1.3,1.2-.55.31-1.2.38-1.8.2-.3,0-.6-.3-.8-.5-.7-.7-1.5-1.3-2.2-2l-.9-.9h0c-.2-.3,0-.5.3-.6,1.5-.6,3-1.1,4.4-1.7l3.9-1.5c.9-.4,1.8-.7,2.7-1h0l-.1-.3Z"/><path d="m203.08,350.96c.85.27,1.54.89,1.9,1.7.56,1.04.83,2.22.8,3.4.08,1.06-.2,2.12-.8,3-.47.61-1.3.81-2,.5-.68-.26-1.27-.71-1.7-1.3-.53-.74-.87-1.6-1-2.5l1.7-1.1c.2.9.5,1.5,1.1,1.7s.5,0,.6-.1.2-.4.2-.8c.04-.35-.03-.7-.2-1-.15-.22-.35-.4-.6-.5l-2.4-.7.3-7.4,4.5,1.2v3.2l-2.7-.8v1.4l.5.2-.2-.1Z"/><path d="m214.78,355.36v1.4c.12,1.59-.31,3.18-1.2,4.5-.67.96-1.91,1.33-3,.9-1.39-.55-2.51-1.63-3.1-3-.82-1.65-1.23-3.46-1.2-5.3-.09-1.62.33-3.23,1.2-4.6.62-1.03,1.84-1.52,3-1.2.86.17,1.61.67,2.1,1.4.71.77,1.22,1.69,1.5,2.7l-1.8,1.2c-.15-.44-.39-.85-.7-1.2-.3-.32-.68-.56-1.1-.7-.61-.23-1.29.03-1.6.6-.44.76-.65,1.63-.6,2.5-.03.97.18,1.93.6,2.8.32.75.94,1.32,1.7,1.6.76.25,1.58-.15,1.84-.91.03-.09.05-.19.06-.29l-2-.6v-3l4.3,1.3v-.1Z"/><line class="cls-9" x1="199.71" y1="115.17" x2="199.21" y2="147.95"/><line class="cls-6" x1="199.71" y1="115.17" x2="199.37" y2="137.19"/><polygon class="cls-64" points="191.92 134.88 199.2 147.95 206.88 135.11 191.92 134.88"/><line class="cls-9" x1="256.51" y1="137.46" x2="234.4" y2="161.66"/><line class="cls-6" x1="256.51" y1="137.46" x2="241.66" y2="153.72"/><polygon class="cls-64" points="237.61 147.06 234.4 161.66 248.66 157.14 237.61 147.06"/><line class="cls-9" x1="143.4" y1="137.46" x2="165.51" y2="161.66"/><line class="cls-6" x1="143.4" y1="137.46" x2="158.25" y2="153.72"/><polygon class="cls-64" points="151.25 157.14 165.51 161.66 162.3 147.06 151.25 157.14"/><line class="cls-9" x1="116.07" y1="201.05" x2="148.84" y2="201.55"/><line class="cls-6" x1="116.07" y1="201.04" x2="138.08" y2="201.38"/><polygon class="cls-64" points="135.78 208.83 148.84 201.55 136.01 193.87 135.78 208.83"/><line class="cls-9" x1="282.84" y1="201.05" x2="250.07" y2="201.55"/><line class="cls-6" x1="282.84" y1="201.04" x2="260.83" y2="201.38"/><polygon class="cls-64" points="262.9 193.87 250.07 201.54 263.13 208.83 262.9 193.87"/><circle class="cls-2" cx="64.69" cy="201.3" r="45"/><path class="cls-67" d="m90.69,221.6c-.25.93-.66,1.81-1.2,2.6-1.09,1.51-2.84,2.4-4.7,2.4h-5.4c-.9,0-1-.2-1-1.1v-1.7c1.93.07,3.87.03,5.8-.1,1.02-.03,1.97-.51,2.6-1.3.83-1.28,1.25-2.78,1.2-4.3h2.8v3.5h-.1Z"/><path class="cls-26" d="m90.69,218.1h-2.66v-15.3h2.7v15.3h-.04Z"/><path class="cls-67" d="m90.69,202.7h-2.66v-2.7c-.04-1.8-.93-3.46-2.4-4.5-.78-.5-1.62-.9-2.5-1.2,1.78-.25,3.58.14,5.1,1.1,1.26.91,2.12,2.27,2.4,3.8l.1.1-.04,3.4Z"/><path class="cls-31" d="m40.79,212.9h-4.7c-1.13.11-2.22-.43-2.8-1.4-.05-.05-.12-.09-.2-.1v-1.6h.1c.52.8,1.45,1.23,2.4,1.1h5.1c.14.28.14.62,0,.9-.1.3-.2.5,0,.8v.3h.1Z"/><path class="cls-35" d="m53.19,195.9c.67-.05,1.33-.05,2,0h19.6v23.6c.04.66-.31,1.29-.9,1.6,0-.9-.3-1.2-1.2-1.2h-14.2c-.8,0-1.1.4-1,1.2h-4.4v-25.1l.1-.1Zm12.6,13.7h-6.9c-.9,0-1.4.3-1.3.9s.5.9,1.3.9h14.4c.4,0,.7-.5.7-.9h0c-.02-.4-.31-.73-.7-.8h-7.4l-.1-.1Zm0-8.5h7.1c.7,0,1-.3,1-.8s-.3-.9-1.1-.9h-14.2c-.3,0-.7,0-.9.3-.23.24-.28.61-.1.9.12.38.52.59.9.5h7.3Zm0,5.1h7.24c.35.03.69-.12.9-.4.14-.28.14-.62,0-.9-.2-.3-.6-.3-1-.3h-14.64c-.42.14-.68.56-.6,1h0c.14.43.55.72,1,.7h7.1v-.1Zm0,10.2h7.1c.24.02.48-.02.7-.1.32-.23.47-.62.4-1-.09-.41-.49-.67-.9-.6h-14.4c-.4-.05-.8.15-1,.5-.3.7.2,1.2.9,1.2h7.2Z"/><path class="cls-1" d="m83.03,194.31c.89.28,1.73.68,2.5,1.2,1.41,1.08,2.29,2.72,2.4,4.5v2.7h-1.9c-.61,0-1.11.49-1.12,1.1,0,.07,0,.13.02.2h0v12.8c-.08.64.37,1.21,1.01,1.29.03,0,.06,0,.09,0h1.8c.05,1.52-.37,3.02-1.2,4.3-.65.77-1.59,1.25-2.6,1.3-1.93.13-3.87.17-5.8.1v-28.1c0-1.7.3-1.5,1.6-1.5h3.1l.1.1Z"/><path class="cls-48" d="m78.29,195.7v29.4h-20.4c-.2-.1-.4,0-.6,0h-3.5c-.2,0-.4,0-.5-.2v-3.8h4.3c.2.41.64.65,1.1.6h14.1c.47.01.92-.21,1.2-.6.62-.28.99-.93.9-1.6v-23.6c1.1-.1,2.3,0,3.5,0l-.1-.2Z"/><path class="cls-1" d="m53.19,195.9v25.2h-1.16c-2.17-.4-4.08-1.66-5.3-3.5-.59-.99-1-2.07-1.2-3.2v-9.8c-.1-.94,0-1.9.3-2.8.79-3.48,3.93-5.91,7.5-5.8l-.14-.1Z"/><path class="cls-40" d="m55.19,188.2h-.8c-.6,0-1.1-.3-1.1-.9v-2.4c0-1,.3-1.3,1.3-1.3h11c.51.49.7,1.22.5,1.9v.9c.16.67-.07,1.36-.6,1.8h-10.3Z"/><path class="cls-55" d="m55.19,188.2h12.1v7.6h-2.9v-3c0-.2,0-.4-.2-.5v-.4c.4-.7.2-1-.6-1h-8.4v-2.7Z"/><path class="cls-60" d="m64.19,192.2c.2.1.2.3.2.5v3h-9.2v-5h8.5c.8,0,.9.3.6,1-.3-.7-.7-.8-1.2-.6-.41.2-.59.69-.4,1.1.12.24.34.42.6.5.47.12.95-.14,1.1-.6l-.2.1Zm-5.1-1.1c-.44.04-.81.36-.9.8,0,.5.4.9.9.9.5,0,.9-.4.9-.9,0-.5-.4-.9-.9-.9h0v.1Z"/><path class="cls-60" d="m45.39,204.5v9.2h-2.2c-.74,0-1.43-.33-1.9-.9,0-.16-.14-.29-.3-.3-.2-.3,0-.5,0-.8.05-.3.05-.6,0-.9v-4.7c.09-.98.92-1.72,1.9-1.7h2.6l-.1.1Z"/><path class="cls-53" d="m40.79,208v2.9h-5.1c-.96.09-1.9-.37-2.4-1.2.41-1.11,1.52-1.81,2.7-1.7h4.8Z"/><path class="cls-67" d="m67.29,188.2h-1.8c.47-.47.7-1.14.6-1.8v-.9c.15-.69-.08-1.42-.6-1.9h2.7c.55-.06,1.04.35,1.09.89,0,.03,0,.07,0,.11v2.4c0,.9-.4,1.3-1.3,1.3h-.7v-.1Z"/><path class="cls-60" d="m72.79,232h1.5c.59.62.86,1.47.74,2.31v.9c-.02.42-.2.81-.5,1.1,0,0-.3.1-.3.3-8.5-.2-17,0-25.5,0s-1.7-.6-1.6-1.6v-1.7c-.03-.68.49-1.27,1.18-1.3,0,0,.01,0,.02,0h24.5-.04Z"/><path class="cls-67" d="m45.39,214.31c.2,1.13.61,2.21,1.2,3.2,1.22,1.84,3.13,3.1,5.3,3.5h1.2v4.1c-3.66-.03-6.83-2.54-7.7-6.1-.12-.86-.18-1.73-.2-2.6v-2.1h.2Z"/><path class="cls-21" d="m53.19,225.1v-.3c.1.3.4.2.6.2h4.1v6.9h-2.1v-4.1c0-.6-.1-.8-.8-.8h-1.7v-2l-.1.1Z"/><path class="cls-11" d="m72.79,232h-2v-4.3c.04-.35-.21-.66-.55-.7-.05,0-.1,0-.15,0h-1.9v-2c.77-.05,1.53-.05,2.3,0h2.3v7Z"/><path class="cls-26" d="m74.19,236.7c0-.2.2-.2.3-.3.32-.28.51-.67.54-1.09v-.9c.23-.84-.05-1.73-.7-2.3h3.2c.77-.04,1.43.53,1.5,1.3v1.8c.1.79-.42,1.53-1.2,1.7h-3.6l-.04-.21Z"/><path class="cls-26" d="m45.39,214.31v2.1h-2.5c-1.11.02-2.06-.8-2.2-1.9v-1.5c.1,0,0-.2.1-.3s.2.2.3.3c.45.59,1.16.92,1.9.9h2.2v.5l.2-.1Z"/><path class="cls-1" d="m53.29,227h1.74c.6,0,.8.2.8.8-.1,1.4-.1,2.8,0,4.2h-2.4v-5h-.14Z"/><path class="cls-60" d="m87.89,218.1h-1.6c-.64.08-1.21-.37-1.29-1.01,0-.03,0-.06,0-.09v-13c-.08-.64.37-1.21,1.01-1.29.03,0,.06,0,.09,0h1.94v15.3h0l-.14.1Z"/><path class="cls-28" d="m74.03,221c-.23.38-.65.61-1.1.6h-14.14c-.45.03-.88-.2-1.1-.6,0-.8.2-1.2,1-1.2h14.1c.9,0,1.24.3,1.24,1.2Z"/><path class="cls-28" d="m65.79,209.5h7.4c.4,0,.7.4.8.8.03.43-.27.82-.7.9h-14.4c-.8,0-1.3-.3-1.3-.9s.4-.9,1.3-.9h6.9v.1Z"/><path class="cls-11" d="m65.79,201h-7.2c-.37.03-.73-.17-.9-.5-.07-.3-.03-.62.1-.9.2-.28.57-.4.9-.3h14.2c.7,0,1.1.3,1.1.9s-.3.8-1,.8h-7.2Z"/><path class="cls-11" d="m65.79,206.2h-7.1c-.45.02-.86-.27-1-.7-.12-.43.13-.87.55-.99.02,0,.03,0,.05-.01h14.6c.36-.06.73.05,1,.3.2.27.2.63,0,.9-.19.31-.53.5-.9.5h-7.2Z"/><path class="cls-11" d="m65.79,216.4h-7.2c-.8,0-1.2-.6-.9-1.2.17-.38.59-.59,1-.5h14.4c.43-.04.83.21,1,.6.13.39-.04.81-.4,1-.22.08-.46.12-.7.1h-7.2Z"/><path class="cls-28" d="m64.19,192.2c-.12.46-.59.73-1.05.61-.02,0-.03,0-.05-.01-.43-.09-.71-.52-.61-.95,0-.02,0-.03.01-.05,0-.29.21-.54.5-.6.5-.2.9,0,1.2.6v.4Z"/><path class="cls-28" d="m59.09,191.1c.5,0,.9.4.9.9,0,.5-.4.9-.9.9h0c-.5,0-.9-.4-.9-.9,0-.45.38-.81.84-.8.02,0,.04,0,.06,0v-.1Z"/><path class="cls-40" d="m68.29,232v-4.9h1.9c.5,0,.7.2.7.7v4.3h-2.6v-.1Z"/><path d="m24.29,199.5l.4-2.4,7.5-1-6.8-3.3.4-2.4,9.2,4.8-.5,2.8-10.2,1.6v-.1Z"/><path d="m27.39,189.2c-.63-.25-.94-.96-.69-1.6.25-.63.96-.94,1.6-.69.63.25.94.96.69,1.59-.24.63-.94.95-1.57.71,0,0-.02,0-.03-.01Zm1.8.5l.7-2,6.6,2.4-.7,2-6.6-2.4Z"/><path d="m37.69,180.7c1.7.89,2.35,2.99,1.46,4.68-.02.04-.04.08-.06.12-.37.69-1.03,1.17-1.8,1.3l.6.3-1.1,1.8-8.4-5.1,1.1-1.8,3,1.8c-.19-.74-.08-1.53.3-2.2,1.08-1.62,3.27-2.06,4.9-1v.1Zm-1.1,1.8c-.74-.5-1.75-.31-2.25.42-.02.02-.03.05-.05.08-.49.72-.3,1.7.42,2.19.06.04.12.07.18.11.74.5,1.75.31,2.25-.42.02-.02.03-.05.05-.08.49-.72.3-1.7-.42-2.19-.06-.04-.12-.07-.18-.11Z"/><path d="m39.03,174.2l1.7,1.6c-.78.46-1.04,1.46-.58,2.25.08.13.17.25.28.35l2.3,2.2-1.4,1.5-5.1-4.8,1.4-1.5.9.9c-.43-.83-.26-1.84.4-2.5h.1Z"/><path d="m46.19,168.9l4,5.7-1.7,1.2-.4-.5c-.04.8-.49,1.52-1.2,1.9-1.63,1.05-3.81.59-4.87-1.05-.01-.02-.02-.04-.03-.05-1.19-1.49-.95-3.66.54-4.85.02-.02.04-.03.06-.05.62-.48,1.43-.67,2.2-.5l-.4-.5,1.7-1.2.1-.1Zm.3,4.1c-.39-.72-1.3-.99-2.02-.6-.1.05-.19.12-.28.2-.76.5-.98,1.52-.48,2.28.03.04.05.08.08.12.39.72,1.3.99,2.02.6.1-.05.19-.12.28-.2.76-.5.98-1.52.48-2.28-.03-.04-.05-.08-.08-.12Z"/><path d="m51.69,168.7l1,2.3c.2.6.7.4,1.6,0l.7,1.8c-2.4,1.3-3.5.9-4.2-.9l-1-2.3-1,.4-.8-1.9,1-.4-.5-1.2,1.7-1.4.8,1.8,1.3-.6.8,1.9-1.3.6-.1-.1Z"/><path d="m53.29,164c-.17-.66.23-1.34.9-1.51s1.34.23,1.51.9c.17.66-.23,1.34-.9,1.51,0,0,0,0,0,0-.6.2-1.25-.12-1.46-.72-.02-.06-.03-.12-.04-.18Zm.7,1.8l2-.5,1.8,6.8-2,.5-1.8-6.8Z"/><path d="m58.29,168.1c-.17-2.04,1.35-3.83,3.4-4,0,0,0,0,0,0,2-.2,3.79,1.25,3.99,3.25,0,.05,0,.1.01.15.17,2.04-1.35,3.83-3.4,4,0,0,0,0,0,0-2,.2-3.79-1.25-3.99-3.25,0-.05,0-.1-.01-.15Zm5.3-.4c.03-.81-.61-1.49-1.42-1.52-.09,0-.19,0-.28.02-.86.02-1.54.74-1.52,1.6,0,.07,0,.13.02.2-.03.81.61,1.49,1.42,1.52.09,0,.19,0,.28-.02.86-.02,1.54-.74,1.52-1.6,0-.07,0-.13-.02-.2Z"/><path d="m74.03,168l-.7,4.2-2.1-.4.7-3.9c.16-.65-.24-1.32-.89-1.48-.04,0-.07-.02-.11-.02-.63-.17-1.29.2-1.46.84-.03.12-.05.24-.04.36l-.6,3.8-2.1-.4,1.2-6.9,2.1.4v.6c.52-.52,1.29-.72,2-.5,1.4.2,2.4,1.4,2.1,3.3l-.1.1Z"/><path d="m76.19,167.8l4.9,2.1-.8,1.9-4.9-2.1.8-1.9Z"/><path d="m90.89,178.31l-2.7,3.3-1.6-1.3,2.6-3.2c.4-.5.5-1.1,0-1.5-.53-.39-1.27-.28-1.66.25-.01.02-.02.03-.04.05l-2.5,3-1.6-1.3,2.6-3.2c.4-.5.5-1.1,0-1.5-.53-.39-1.27-.28-1.66.25-.01.02-.02.03-.04.05l-2.5,3-1.6-1.3,4.5-5.4,1.6,1.3-.4.5c1.33-.21,2.57.7,2.77,2.03.02.16.03.31.03.47.79-.18,1.61.05,2.2.6,1.13.92,1.3,2.57.38,3.7-.06.07-.12.14-.18.2h-.2Z"/><path d="m91.19,180.2c1.71-1.11,4-.61,5.1,1.1,1.11,1.71.61,4-1.1,5.1-1.71,1.11-4,.61-5.1-1.1h0c-1.1-1.71-.61-4,1.1-5.1Zm2.9,4.5c.74-.43.99-1.37.56-2.1-.02-.03-.04-.06-.06-.1-.46-.77-1.46-1.01-2.22-.55-.03.02-.05.03-.08.05-.74.43-.99,1.37-.56,2.1.02.03.04.06.06.1.46.77,1.46,1.01,2.22.55.03-.02.05-.03.08-.05Z"/><path d="m97.89,189.6l-2.3.9c-.6.2-.4.7,0,1.6l-1.8.7c-1.2-2.5-.8-3.5,1.1-4.2l2.3-.9-.4-1,1.9-.7.4,1,1.2-.5,1.3,1.7-1.8.7.5,1.3-1.9.7-.5-1.3Z"/><path d="m97.49,192.4c1.95-.35,3.82.95,4.17,2.9.01.07.02.14.03.2.31,2-1.01,3.9-3,4.3-1.95.35-3.82-.95-4.17-2.9-.01-.07-.02-.14-.03-.2-.31-2,1.01-3.9,3-4.3Zm.9,5.2c.91-.14,1.54-.99,1.4-1.9-.09-.83-.83-1.43-1.66-1.35-.08,0-.16.02-.24.05-.91.14-1.54.99-1.4,1.9.09.83.83,1.43,1.66,1.35.08,0,.16-.02.24-.05Z"/><path d="m102.03,205.5h-2.4c.2-1-.1-2.2-1.5-2.3h-3.2v-2.2l7,.3v2.1h-1.3c.85.39,1.37,1.27,1.3,2.2l.1-.1Z"/><circle class="cls-3" cx="103.6" cy="101.83" r="45"/><path class="cls-19" d="m113.4,82.63h1.9c.77.04,1.4.63,1.5,1.4v42.5c.12.89-.37,1.75-1.2,2.1h-24.3c-.85-.32-1.36-1.2-1.2-2.1v-1.3h11.7c.3,0,.5,0,.4-.4v-.8c.28-.61.97-.91,1.6-.7.63.19.99.86.8,1.5,0,0,0,0,0,0,0,.3,0,.4.3.4h6.6c.94,0,1.71-.77,1.7-1.72,0-.03,0-.05,0-.08v-3c.35-.16.55-.52.5-.9v-31.1c0-.37-.19-.71-.5-.9v-4.9h.2Z"/><path class="cls-33" d="m113.4,82.63v4.9h-19.2c-.9,0-1.1.2-1.1,1.1v30.8c0,.9.2,1.1,1.1,1.1h19.4v3c.05.94-.67,1.75-1.62,1.8-.03,0-.05,0-.08,0h-6.6c-.3,0-.4-.1-.3-.4.19-.63-.16-1.3-.8-1.5,0,0,0,0,0,0-.63-.21-1.32.09-1.6.7-.1.26-.1.54,0,.8.1.4,0,.4-.4.4h-11.7v-40.55c-.09-1.01.65-1.91,1.66-2,.11-.01.22-.01.34,0h21.2l-.3-.15Z"/><path d="m68.2,92.63c2.34.53,3.82,2.85,3.3,5.2l-.4,1.8,3.9.8-.6,2.8-12.3-2.7,1-4.7c.48-2.36,2.77-3.89,5.13-3.41.02,0,.04,0,.07.01l-.1.2Zm-.6,2.8c-.82-.21-1.66.28-1.88,1.1,0,.03-.02.06-.02.1l-.4,1.8,3.2.7.4-1.8c.17-.82-.36-1.61-1.18-1.78-.04,0-.08-.01-.12-.02v-.1Z"/><path d="m76.2,83.78l4.8,2.8-1.4,2.3-4.4-2.6c-.65-.48-1.57-.34-2.05.32-.04.06-.08.12-.12.18-.51.72-.33,1.72.39,2.23.1.07.2.13.31.17l4.2,2.5-1.4,2.3-10.9-6.4,1.4-2.3,3.8,2.3c-.3-.95-.16-1.98.4-2.8.9-1.6,2.8-2.2,4.9-1h.07Z"/><path d="m78.3,82.63c-1.74-1.88-1.63-4.83.25-6.57.05-.04.1-.09.15-.13,1.96-1.74,4.96-1.56,6.7.4,1.82,1.89,1.76,4.9-.13,6.72-1.89,1.82-4.9,1.76-6.72-.13-.09-.09-.18-.19-.26-.29Zm5.1-4.5c-.8-.83-2.12-.85-2.96-.05s-.85,2.12-.05,2.96c.78.81,2.07.86,2.91.1.85-.7.97-1.96.27-2.82-.05-.07-.11-.13-.17-.18Z"/><path d="m94.8,70.93l2.2,5.1-2.5,1.1-2-4.7c-.28-.8-1.15-1.23-1.96-.96-.05.02-.1.04-.14.06-.85.33-1.27,1.28-.94,2.12.04.1.08.19.14.28l1.9,4.5-2.47,1.1-3.6-8.3,2.5-1.1.3.8c.25-.95.97-1.7,1.9-2,1.7-.7,3.6-.1,4.6,2.1l.07-.1Z"/><path d="m102.3,73.23c.65-.03,1.26-.32,1.7-.8l2.3,1c-.8,1.29-2.18,2.12-3.7,2.2-2.5.44-4.89-1.22-5.33-3.72-.03-.19-.06-.38-.07-.58-.3-2.56,1.53-4.88,4.1-5.18.07,0,.14-.01.2-.02,2.54-.22,4.77,1.66,4.99,4.19,0,.04,0,.07,0,.11v1.1l-6.4.6c.4.9,1.3,1.1,2.3,1.1h-.1Zm1.4-3.4c-.28-.84-1.13-1.35-2-1.2-.93-.02-1.72.68-1.8,1.6l3.9-.4h-.1Z"/><path d="m117.3,68.33l1.6.5-.7,2.5-1.6-.5-1.8,6.1-2.6-.8,1.8-6.1-1.2-.3.7-2.5,1.2.3c.7-2.4,2.5-3.5,5.3-2.5l-.7,2.5c-.9-.4-1.7-.3-2,.7v.1Z"/><path d="m125.8,71.93l-1.4,2.7c-.83-.79-2.14-.76-2.93.06-.15.16-.28.34-.37.54l-1.9,3.6-2.4-1.2,4.1-8,2.4,1.2-.7,1.4c.86-.84,2.19-.96,3.2-.3Z"/><path d="m134.8,79.63l-6,6.7-2-1.8.6-.6c-1,.08-1.99-.28-2.7-1-1.78-1.93-1.66-4.95.28-6.73,1.7-1.57,4.29-1.68,6.12-.27.81.61,1.27,1.59,1.2,2.6l.6-.6,2,1.8-.1-.1Zm-5,1.5c.77-.91.66-2.27-.25-3.04-.91-.77-2.27-.66-3.04.25-.75.89-.67,2.21.19,3,.85.8,2.19.77,3-.08.04-.04.07-.08.1-.12Z"/><path d="m140.3,96.63l-5,2.3-1.1-2.4,4.8-2.2c.8-.4,1.2-1,.8-1.8-.36-.73-1.24-1.03-1.97-.67-.05.02-.09.05-.13.07l-4.6,2.1-1.1-2.4,4.8-2.2c.8-.4,1.2-1,.8-1.8-.36-.73-1.24-1.03-1.97-.67-.05.02-.09.05-.13.07l-4.6,2.1-1.1-2.4,8.2-3.8,1.1,2.4-.8.3c.92.18,1.67.83,2,1.7.45.81.45,1.79,0,2.6,1,.23,1.83.94,2.2,1.9.9,1.9.1,3.7-1.9,4.7l-.3.1Z"/><path d="m137.4,104.43c.01.65.3,1.27.8,1.7l-1.1,2.2c-1.31-.81-2.08-2.26-2-3.8-.1-3.1,1.8-5.1,4.5-5.2,2.57-.18,4.81,1.76,4.99,4.33,0,.09.01.18.01.27.14,2.51-1.78,4.66-4.29,4.79-.07,0-.14,0-.21,0h-1.07l-.3-6.4c-.83.4-1.32,1.28-1.2,2.2l-.13-.1Zm3.4,1.5c.87-.25,1.43-1.1,1.3-2,.04-.92-.6-1.73-1.5-1.9l.2,3.9Z"/><circle class="cls-3" cx="295.49" cy="101.83" r="45"/><path class="cls-8" d="m284.29,137.83c-.81-.23-1.58-.57-2.3-1-1.52-1.03-2.39-2.77-2.3-4.6v-42.9c-.05-2.63,1.81-4.92,4.4-5.4h21.6c0,.2.1.2.2.2,1.33.37,2.47,1.23,3.2,2.4.39.52.6,1.15.6,1.8,0,0-.2-.2-.2-.3-.51-.83-1.42-1.33-2.4-1.3h-3.8c-.64-.04-1.23.32-1.5.9-.2.3-.3.7-.5,1-.28.69-.96,1.13-1.7,1.1h-6.7c-.27.02-.54-.01-.8-.1-.37-.24-.65-.59-.8-1l-.6-1.2c-.2-.42-.63-.7-1.1-.7h-4.8c-1.37.32-2.31,1.59-2.2,3v42.5c-.02,1.48,1.12,2.71,2.6,2.8h22c.45,0,.9-.1,1.3-.3.52-.3.94-.76,1.2-1.3v.2c-.41,1.91-1.83,3.44-3.7,4-.1,0-.4,0-.4.2h-21.3Zm11.9-50.3h1.84c.35.04.66-.21.7-.55,0-.05,0-.1,0-.15,0-.5-.2-.9-.7-.9h-3.5c-.5,0-.7.4-.7.9s.3.6.7.7h1.7-.04Z"/><path class="cls-7" d="m305.69,137.83c0-.3.2-.2.4-.2,1.83-.62,3.22-2.13,3.7-4v-.2c.17-.55.24-1.13.2-1.7v-41.8c.03-.57-.04-1.15-.2-1.7-.03-.64-.24-1.27-.6-1.8-.71-1.19-1.86-2.06-3.2-2.4-.1,0-.2,0-.2-.2h2.4c.66.14,1.3.38,1.9.7,1.73,1.01,2.77,2.89,2.7,4.9v42.7c.1,2.73-1.82,5.11-4.5,5.6h-2.5l-.1.1Z"/><path class="cls-17" d="m292.03,89.53c.3,0,.5.1.8.1h6.7c.75.07,1.46-.38,1.7-1.1.2-.3.3-.7.5-1,.27-.58.86-.94,1.5-.9h.9c0,.2.2.2.3.3.99.49,1.61,1.5,1.6,2.6v42.5c.02,1.08-.56,2.08-1.5,2.6-.16,0-.29.14-.3.3h-19.1c-1.48-.09-2.62-1.32-2.6-2.8v-42.35c-.11-1.41.83-2.68,2.2-3,.47-.05.93-.05,1.4,0,.49.63.93,1.3,1.3,2,.3.65,1,1.01,1.7.9h2.5c.17.03.35,0,.5-.1l-.1-.05Zm-3.5,29.9v10.4c0,1.1.3,1.4,1.4,1.4h12.9c.55.06,1.04-.34,1.1-.89,0-.07,0-.14,0-.21v-21.35c.06-.55-.34-1.04-.89-1.1-.07,0-.14,0-.21,0h-1.1c-.55.06-1.04-.34-1.1-.89,0-.07,0-.14,0-.21v-1.9c.06-.55-.34-1.04-.89-1.1-.07,0-.14,0-.21,0h-6.7c-.8,0-1.1.4-1.1,1.2v1.9c0,.7-.4,1-1.1,1h-.8c-1,0-1.3.3-1.3,1.3v10.5-.05Zm7.7-24.2c0-.2.1-.3.2-.5.3-.5.7-1,1-1.5s.2-.9-.2-1.1-.8-.3-1,0c-.8,1.1-1.6,2.3-2.3,3.5-.3.6,0,1.1.7,1.1h1.4q.3,0,.2.3c-.5.8-1,1.6-1.6,2.4-.32.37-.32.93,0,1.3.4.3.9.1,1.3-.4.9-1.3,1.7-2.6,2.5-3.9.2-.27.2-.63,0-.9-.18-.26-.48-.42-.8-.4h-1.6l.2.1Z"/><path class="cls-38" d="m304.19,134.93c0-.2.2-.2.3-.3.94-.52,1.52-1.52,1.5-2.6v-42.5c0-1.1-.61-2.11-1.6-2.6-.16,0-.29-.14-.3-.3h2.94c.98-.05,1.91.45,2.4,1.3,0,.1.1.2.2.3.17.55.24,1.13.2,1.7v41.85c.03.57-.04,1.15-.2,1.7-.32.5-.73.94-1.2,1.3-.4.2-.85.31-1.3.3h-2.9l-.04-.15Z"/><path class="cls-38" d="m292.03,89.53c-.1.2-.3.1-.5.1h-2.5c-.7.09-1.38-.27-1.7-.9-.37-.7-.81-1.37-1.3-2h3.4c.47,0,.9.28,1.1.7l.6,1.2c.21.37.48.71.8,1l.1-.1Z"/><path class="cls-7" d="m296.19,87.53h-1.6c-.35.04-.66-.21-.7-.55,0-.05,0-.1,0-.15,0-.5.2-.9.7-.9h3.5c.44.06.75.46.7.9,0,.5-.2.6-.7.7-.6.05-1.2.05-1.8,0h-.1Z"/><path class="cls-27" d="m288.49,119.43v-10.5c0-1,.3-1.3,1.3-1.3h.8c.7,0,1-.3,1.1-1v-1.85c0-.8.3-1.2,1.1-1.2h6.7c.55-.06,1.04.34,1.1.89,0,.07,0,.14,0,.21v1.9c-.06.55.34,1.04.89,1.1.07,0,.14,0,.21,0h1.1c.55-.06,1.04.34,1.1.89,0,.07,0,.14,0,.21v21.4c.06.55-.34,1.04-.89,1.1-.07,0-.14,0-.21,0h-12.9c-1.1,0-1.4-.3-1.4-1.4v-10.45h0Zm12.5,2.7v-10.6c0-.5-.3-.8-.9-.8h-7.9c-.44-.06-.84.25-.9.69,0,.07,0,.14,0,.21v15.9c-.06.44.25.84.69.9.07,0,.14,0,.21,0h7.9c.44.06.84-.25.9-.69,0-.07,0-.14,0-.21v-5.4Z"/><path class="cls-50" d="m296.19,95.23h1.6c.4,0,.7,0,.8.4.14.28.14.62,0,.9-.8,1.3-1.7,2.6-2.5,3.9-.26.45-.83.63-1.3.4-.4-.3-.4-.8,0-1.3.5-.8,1-1.6,1.6-2.4.2-.2.1-.3-.2-.3h-1.4c-.7,0-1.1-.6-.7-1.1.7-1.2,1.5-2.3,2.3-3.5.15-.28.5-.38.77-.23.1.05.17.13.23.23.32.27.4.73.2,1.1-.3.5-.7,1-1,1.5,0,.1-.2.2-.2.5l-.2-.1Z"/><path class="cls-38" d="m297.79,110.63h2.4c.45-.04.85.29.9.74,0,.02,0,.04,0,.06v2.5h-2.5c-.4,0-.5.1-.5.5v3.5h-6.7v-4.1h6.2c.2,0,.5.1.5-.2,0-1,.3-2.1-.3-3Z"/><path class="cls-36" d="m297.59,128.43h-5.3c-.44.06-.84-.25-.9-.69,0-.07,0-.14,0-.21v-3.7h6.7v3.6c.05.4-.15.8-.5,1Z"/><path class="cls-37" d="m291.39,118.03h6.7v4.1h-6.7v-4.1Z"/><path class="cls-17" d="m297.79,110.63c.6,1,.2,2,.3,3,0,.3-.3.2-.5.2h-6.2v-2.3c-.06-.44.25-.84.69-.9.07,0,.14,0,.21,0h5.5Z"/><path class="cls-56" d="m297.59,128.43c.4-.2.5-.5.5-1v-3.6h2.94v3.7c.03.46-.31.87-.78.9-.04,0-.08,0-.12,0h-2.54Z"/><path class="cls-45" d="m298.09,122.13v-4.1h2.94v4.1h-2.94Z"/><path class="cls-51" d="m301.09,118.03h-2.9v-3.5c0-.4.1-.5.5-.5h2.5v4h-.1Z"/><path class="cls-56" d="m291.39,122.13h6.7v1.7h-6.7v-1.7Z"/><path class="cls-47" d="m298.09,123.83v-1.7h2.94v1.7h-2.94Z"/><path d="m261.29,94.43c2.1.33,3.53,2.3,3.2,4.4l-.3,1.6,3.5.5-.4,2.5-11-1.7.6-4.2c.28-2.11,2.21-3.59,4.32-3.31.03,0,.05,0,.08.01v.2Zm-.4,2.5c-.71-.16-1.42.28-1.58.99,0,.04-.01.07-.02.11l-.3,1.6,2.8.4.3-1.6c.12-.7-.36-1.37-1.06-1.48-.05,0-.09-.01-.14-.02h0Z"/><path d="m267.69,86.13l4.4,2.1-1,2.1-4.1-2c-.66-.37-1.5-.13-1.86.53-.01.02-.02.05-.04.07-.4.8-.2,1.5.8,2l3.9,1.9-1,2.1-10-4.9,1-2.1,3.5,1.7c-.31-.81-.28-1.72.1-2.5.73-1.48,2.53-2.09,4.02-1.36.1.05.19.1.28.16v.2Z"/><path d="m269.39,85.13c-1.68-1.57-1.77-4.21-.19-5.89,1.57-1.68,4.21-1.77,5.89-.19,1.68,1.57,1.77,4.21.2,5.89-1.55,1.68-4.17,1.79-5.85.25-.02-.02-.03-.03-.05-.05Zm4.1-4.4c-.74-.66-1.88-.59-2.54.15-.66.74-.59,1.88.15,2.54.72.64,1.82.6,2.49-.1.68-.71.65-1.84-.06-2.52-.01-.01-.02-.02-.04-.03v-.05Z"/><path d="m282.79,73.33l2.4,4.2-2.1,1.2-2.2-3.9c-.25-.66-.98-.99-1.64-.74-.09.04-.18.08-.26.14-.8.4-1,1.2-.5,2.2l2.1,3.8-2.1,1.2-3.9-6.9,2.1-1.2.4.6c0-.7.6-1.4,1.5-2,1.44-.8,3.1-.5,4.2,1.4Z"/><path d="m289.59,74.53c.56-.11,1.06-.44,1.4-.9l2.1.7c-1.12,2.17-3.79,3.02-5.96,1.9-1.11-.57-1.93-1.59-2.24-2.8-.55-2.19.78-4.4,2.97-4.95.08-.02.15-.04.23-.05,2.16-.48,4.29.89,4.77,3.04.01.05.02.1.03.16,0,.3.1.6.1,1l-5.5,1.2c.47.67,1.32.96,2.1.7Zm.8-3.1c-.36-.69-1.14-1.06-1.9-.9-.8.1-1.41.79-1.4,1.6l3.3-.7Z"/><path d="m307.19,73.63c-.38,2.17-2.42,3.63-4.6,3.3-.89-.17-1.65-.72-2.1-1.5l-.2.7-2.3-.5,2.4-10.8,2.3.5-.9,3.8c.71-.55,1.65-.7,2.5-.4,2.12.58,3.37,2.77,2.8,4.9h.1Zm-2.3-.5c.3-.94-.23-1.95-1.17-2.24-.08-.02-.15-.04-.23-.06-.99-.26-2.01.34-2.27,1.34-.01.05-.03.11-.03.16-.3.94.23,1.95,1.17,2.24.08.02.15.04.23.06.99.26,2.01-.34,2.27-1.34.01-.05.03-.11.03-.16h0Z"/><path d="m317.89,75.13l-4.1,6.8-2-1.2.4-.6c-.85.26-1.77.11-2.5-.4-1.84-1.38-2.22-3.99-.84-5.84,1.19-1.6,3.35-2.13,5.14-1.26.78.4,1.33,1.14,1.5,2l.4-.6,2,1.2v-.1Zm-4.1,2.2c.57-.82.37-1.94-.45-2.51-.05-.03-.1-.07-.15-.09-.89-.53-2.03-.24-2.57.64-.01.02-.02.04-.03.06-.52.88-.23,2.03.65,2.55.88.52,2.03.23,2.55-.65Z"/><path d="m320.69,81.03l-2,2c-.5.5-.1.9.7,1.6l-1.5,1.5c-2.4-2-2.4-3.3-.8-4.9l2-2-.9-.9,1.6-1.6.9.9,1.1-1.1,2.24,1.25-1.6,1.5,1.1,1.2-1.6,1.6-1.1-1.2-.14.15Z"/><path d="m324.59,86.03l-2.3,1.6c-.6.4-.3.9.3,1.7l-1.8,1.2c-2-2.4-1.7-3.7.1-4.9l2.3-1.6-.7-1.1,1.9-1.3.7,1.1,1.3-.8,1.9,1.6-1.8,1.2.9,1.4-1.9,1.3-.9-1.4Z"/><path d="m324.39,94.13c.2.53.59.96,1.1,1.2l-.4,2.2c-1.29-.39-2.31-1.41-2.7-2.7-.9-2.6.2-4.8,2.4-5.6,2.13-.82,4.53.24,5.35,2.37.02.04.03.09.05.13.76,2.08-.31,4.37-2.39,5.13-.07.03-.14.05-.21.07-.29.11-.59.18-.9.2l-1.9-5.3c-.63.55-.79,1.46-.4,2.2v.1Zm3.2.4c.65-.44.9-1.28.6-2-.18-.82-.98-1.35-1.8-1.2l1.2,3.2Z"/><path d="m332.29,103.03l-2.7.3c0-1-.5-2.3-2-2.2l-3.6.4-.2-2.4,7.9-.8.2,2.4h-1.4c1.01.38,1.72,1.32,1.8,2.4v-.1Z"/><path d="m331.19,113.13l-7.3-3.7c-2.4-1.2-3.2-2.7-2.8-4.9l2.2.3c-.1,1.1.1,1.7,1,2.1l7.9-2.1-.3,2.6-5,1.1,4.6,2.1-.3,2.5h0Z"/><circle class="cls-3" cx="199.46" cy="62.34" r="45"/><path class="cls-15" d="m189.36,70.44v-24c-.15-1.22.55-2.38,1.7-2.8h21.7c0,.2.2.2.3.3.61.44.98,1.15,1,1.9v8.6c-.51-.77-1.38-1.22-2.3-1.2-.93.03-1.77.57-2.2,1.4-.48.89-.32,1.99.4,2.7.59.7,1.5,1.04,2.4.9.67-.17,1.27-.56,1.7-1.1v5.8l-.3-.3c-1.03-.96-2.64-.9-3.6.13-.96,1.03-.9,2.64.13,3.6.02.02.05.04.07.07,1.1.9,2.5.7,3.7-.5.2.1.1.4.1.5v4.3c.02.34-.02.67-.1,1-.3,1.3-.6,2.5-1,3.7-.13.8-.36,1.57-.7,2.3v-.6c.13-1.3-.81-2.47-2.12-2.6-.16-.02-.32-.02-.48,0-1.37.04-2.44,1.19-2.4,2.56.02.57.23,1.11.6,1.54.61.78,1.65,1.1,2.6.8.83-.25,1.5-.88,1.8-1.7v.54c-.4,1.6-.9,3.2-1.3,4.7h-26.1c1-2.7,2.1-5.5,3.1-8.2.4-.9.7-1.8,1.1-2.8h23c.5,0,.7-.3.7-.8s-.3-.8-1-.8h-22.3l-.2.06Zm6.2-17.1c-1.38,0-2.5,1.12-2.5,2.5,0,.03,0,.07,0,.1.03,1.41,1.19,2.52,2.6,2.5,1.38,0,2.5-1.12,2.5-2.5s-1.12-2.5-2.5-2.5h0l-.1-.1Zm8.2,8.7c-1.41-.02-2.57,1.09-2.6,2.5-.01,1.37,1.09,2.49,2.46,2.5.01,0,.03,0,.04,0,1.41.02,2.57-1.09,2.6-2.5.08-1.3-.91-2.42-2.21-2.5-.1,0-.19,0-.29,0h0Zm-7.8,15.24c0-1.38-1.12-2.5-2.5-2.5s-2.5,1.12-2.5,2.5c-.02,1.41,1.09,2.57,2.5,2.6,1.37.01,2.49-1.09,2.5-2.46,0-.01,0-.03,0-.04v-.1Zm10.3-21.3c0-1.38-1.12-2.5-2.5-2.5s-2.5,1.12-2.5,2.5c-.02,1.41,1.09,2.57,2.5,2.6,1.37.01,2.49-1.09,2.5-2.46,0-.01,0-.03,0-.04v-.1Zm-10.6,6.1c-1.38,0-2.5,1.12-2.5,2.5s1.12,2.5,2.5,2.5c1.39-.01,2.53-1.11,2.6-2.5.01-1.37-1.09-2.49-2.46-2.5-.01,0-.03,0-.04,0h-.1Zm8.5,15.2c0-1.38-1.12-2.5-2.5-2.5s-2.5,1.12-2.5,2.5,1.12,2.5,2.5,2.5c1.37.01,2.49-1.09,2.5-2.46,0-.01,0-.03,0-.04Zm.2-28.8h1.9c.6,0,.8-.2.8-.8s-.2-.7-.8-.7h-3.7c-.45-.04-.85.29-.9.74,0,.02,0,.04,0,.06,0,.4.3.7.9.8h1.8v-.1Zm-5.9-.8c0,.5.2.8.7.8s.7-.3.7-.8c.03-.41-.27-.77-.67-.8-.04,0-.08,0-.13,0-.5,0-.7.2-.7.8h.1Z"/><path class="cls-61" d="m182.56,96.34c-.8-.4-1.5-.8-1.7-1.7-.16-.73-.02-1.49.4-2.1.6-1.5,1.1-2.9,1.7-4.4h26.4v.5c-.5,1.7-1,3.5-1.4,5.2-.15,1.05-.77,1.98-1.7,2.5h-23.7Zm13.8-2.9h2.9c.68.09,1.3-.39,1.39-1.07.01-.08.01-.15,0-.23.05-.72-.49-1.35-1.21-1.4-.06,0-.12,0-.19,0h-5.9c-.75-.03-1.37.55-1.4,1.3,0,0,0,0,0,0,0,.71.56,1.3,1.28,1.3.04,0,.08,0,.12,0h2.9l.1.1Z"/><path class="cls-39" d="m216.66,43.64c1.3.5,1.6,1.5,1.6,2.8v23.7c-.08,1.16-.31,2.3-.7,3.4-.8,3-1.7,6-2.5,9.1-.03.15-.09.29-.2.4h-4.1c.4-1.6.9-3.2,1.3-4.7v-.5h0c.34-.73.57-1.5.7-2.3.4-1.2.7-2.5,1-3.7,0-.3.1-.7.1-1v-4.3c.03-.17,0-.35-.1-.5.6-.91.6-2.09,0-3,.1-.1,0-.2,0-.4v-5.36c.45-.84.45-1.86,0-2.7v-8.6c-.02-.75-.39-1.46-1-1.9-.16,0-.29-.14-.3-.3h4l.2-.14Z"/><path class="cls-44" d="m206.06,96.34h0c.94-.5,1.58-1.44,1.7-2.5.5-1.7.9-3.5,1.4-5.2v-.5h4.3c-.6,2.2-1.2,4.3-1.8,6.5-.23.83-.87,1.47-1.7,1.7h-3.9Z"/><path class="cls-57" d="m213.56,88.14h-30.7c.6-1.7,1.2-3.4,1.9-4.9h30.2c-.5,1.7-.9,3.4-1.4,5v-.1Z"/><path class="cls-24" d="m179.06,54.54h-1.8c-.41.07-.83-.08-1.1-.4-.2-.3-.1-.5,0-.8.14-.26.41-.41.7-.4,1.4,0,2.7,0,4.1-.1.6,0,.9.3.9.8,0,1.4,0,2.8-.1,4.2,0,.45-.38.81-.84.8-.02,0-.04,0-.06,0-.39.02-.71-.28-.73-.67,0-.08,0-.16.03-.23-.01-.73.02-1.47.1-2.2-.57.65-1.07,1.35-1.5,2.1-1.06,1.77-1.74,3.75-2,5.8-.4,3.4.3,6.83,2,9.8.65,1.08,1.42,2.09,2.3,3,.3.4.4.9,0,1.2-.33.27-.82.23-1.1-.1-2.56-2.45-4.21-5.69-4.7-9.2-.77-4.55.39-9.21,3.2-12.86.1-.2.3-.4.4-.6v-.2l.2.06Z"/><path class="cls-62" d="m189.36,70.44h22.3c.7,0,1,.3,1,.8.05.39-.23.74-.61.79-.03,0-.06,0-.09,0h-23c.2-.51.3-1.05.3-1.6h.1Z"/><path class="cls-65" d="m195.56,53.34c1.38,0,2.5,1.12,2.5,2.5,0,1.38-1.12,2.5-2.5,2.5-1.41.02-2.57-1.09-2.6-2.5.03-1.38,1.13-2.49,2.5-2.56l.1.06Z"/><path class="cls-65" d="m213.96,63.04c.6.91.6,2.09,0,3-1.2,1.2-2.6,1.4-3.7.5-1.09-.95-1.22-2.59-.3-3.7.96-1.05,2.58-1.12,3.63-.17.02.02.05.04.07.07l.3.3Z"/><path class="cls-66" d="m203.66,61.94c1.38.03,2.48,1.17,2.45,2.55-.03,1.38-1.17,2.48-2.55,2.45-1.37-.02-2.48-1.13-2.5-2.5,0-1.38,1.12-2.5,2.5-2.5.03,0,.07,0,.1,0Z"/><path class="cls-41" d="m195.96,77.14c-.03,1.41-1.19,2.53-2.6,2.5-1.41-.03-2.53-1.19-2.5-2.6.03-1.41,1.19-2.53,2.6-2.5,1.37.03,2.47,1.13,2.5,2.5v.1Z"/><path class="cls-41" d="m206.16,55.84c.01,1.37-1.09,2.49-2.46,2.5-.01,0-.03,0-.04,0-1.41-.03-2.52-1.19-2.5-2.6,0-1.38,1.12-2.5,2.5-2.5s2.5,1.12,2.5,2.5v.1Z"/><path class="cls-30" d="m195.56,61.94c1.41.03,2.53,1.19,2.5,2.6-.03,1.41-1.19,2.53-2.6,2.5-1.41-.03-2.53-1.19-2.5-2.6.03-1.37,1.13-2.47,2.5-2.5h.1Z"/><path class="cls-30" d="m204.06,77.14c0,1.38-1.12,2.5-2.5,2.5s-2.5-1.12-2.5-2.5,1.12-2.5,2.5-2.5c1.37-.01,2.49,1.09,2.5,2.46,0,.01,0,.03,0,.04Z"/><path class="cls-42" d="m212.16,77.84h0c-.3.82-.97,1.45-1.8,1.7-.95.32-2,0-2.6-.8-.62-.72-.77-1.73-.4-2.6.34-.92,1.22-1.52,2.2-1.5,1.33-.1,2.5.89,2.6,2.23,0,.12,0,.25,0,.37v.6Z"/><path class="cls-42" d="m213.96,54.44c.4.86.4,1.84,0,2.7-.41.56-1.02.96-1.7,1.1-.91.23-1.87-.13-2.4-.9-.67-.74-.82-1.8-.4-2.7.38-.87,1.25-1.42,2.2-1.4.92-.02,1.79.43,2.3,1.2Z"/><path class="cls-13" d="m204.26,48.34h-1.8c-.45.04-.85-.29-.9-.74,0-.02,0-.04,0-.06,0-.5.3-.8.9-.8h3.7c.6,0,.8.2.8.7s-.2.8-.8.8h-1.9v.1Z"/><path class="cls-13" d="m198.36,47.54c0-.5.2-.8.7-.8.41-.03.77.27.8.67,0,.04,0,.08,0,.13.05.39-.23.74-.61.79-.03,0-.06,0-.09,0-.5,0-.7-.3-.7-.8h-.1Z"/><path class="cls-49" d="m196.26,93.44h-2.9c-.75.03-1.37-.55-1.4-1.3,0,0,0,0,0,0,.06-.73.67-1.29,1.4-1.3h5.9c.72-.05,1.35.49,1.4,1.21,0,.06,0,.12,0,.19,0,.71-.56,1.3-1.28,1.3-.04,0-.08,0-.12,0h-2.9l-.1-.1Z"/><path d="m162.16,53.94l2,.5,1-3.8,2.2.6-1,3.8,3.7,1-.6,2.3-10.1-2.8,1.7-6.1,2.2.6-1.1,3.8v.1Z"/><path d="m167.96,50.04c-1.93-1.07-2.63-3.5-1.56-5.44,1.07-1.93,3.5-2.63,5.44-1.56s2.63,3.5,1.56,5.44c-.01.02-.02.04-.04.06-1.04,1.9-3.43,2.59-5.32,1.54-.03-.01-.05-.03-.08-.04Zm2.9-4.9c-.83-.49-1.9-.22-2.4.6-.49.78-.26,1.81.52,2.3.06.04.12.07.18.1.83.49,1.9.22,2.4-.6.49-.78.26-1.81-.52-2.3-.06-.04-.12-.07-.18-.1Z"/><path d="m167.66,37.34l1.5-1.7,8.2,7.2-1.5,1.7-8.2-7.2Z"/><path d="m177.76,28.84l6.4,8.4-1.8,1.4-.4-.6c-.03.86-.48,1.64-1.2,2.1-1.73,1.19-4.1.75-5.28-.98,0,0-.01-.02-.02-.02-1.33-1.53-1.17-3.85.35-5.18.05-.04.1-.08.15-.12.63-.55,1.48-.78,2.3-.6l-2.2-2.9,1.8-1.4-.1-.1Zm2.3,6.7c-.52-.79-1.58-1.01-2.37-.5-.05.03-.09.06-.13.1-.76.52-.96,1.56-.44,2.32.04.06.09.12.14.18.52.79,1.58,1.01,2.37.5.05-.03.09-.06.13-.1.76-.52.96-1.56.44-2.32-.04-.06-.09-.12-.14-.18Z"/><path d="m189.46,26.94l2.7,7-2.1.8-.3-.7c-.33.8-.98,1.42-1.8,1.7-1.99.66-4.13-.41-4.8-2.4-.87-1.86-.07-4.08,1.79-4.95.04-.02.08-.03.11-.05.76-.35,1.64-.35,2.4,0l-.3-.7,2.1-.8.2.1Zm-.7,4.3c-.4-.9-1.46-1.29-2.35-.89-.9.4-1.29,1.46-.89,2.35.39.85,1.37,1.26,2.24.94.91-.34,1.38-1.37,1.03-2.28-.01-.03-.02-.05-.03-.08v-.04Z"/><path d="m200.86,29.34c.29,2.02-1.11,3.9-3.13,4.19-.02,0-.04,0-.07,0-.83.08-1.65-.17-2.3-.7v.7l-2.2.2-.9-10.46,2.2-.2.3,3.7c.54-.67,1.34-1.07,2.2-1.1,2-.24,3.7,1.36,3.9,3.66Zm-2.2.2c.02-.93-.72-1.7-1.65-1.71-.09,0-.17,0-.25.01-.92.01-1.65.77-1.64,1.68,0,.11.01.21.04.32-.02.93.72,1.7,1.65,1.71.09,0,.17,0,.25-.01.94-.04,1.67-.83,1.63-1.77,0-.08-.01-.15-.03-.23Z"/><path d="m203.16,22.54l2.2.3-1.3,10.9-2.2-.3,1.3-10.9Z"/><path d="m209.46,33.14c.49.18,1.04.14,1.5-.1l1.4,1.5c-1.04.77-2.39.96-3.6.5-2.13-.57-3.4-2.77-2.83-4.9,0-.03.02-.07.03-.1.6-2.06,2.75-3.25,4.82-2.66.06.02.12.04.18.06,1.98.62,3.09,2.73,2.46,4.71-.02.06-.04.13-.06.19-.03.31-.17.59-.4.8l-5.1-1.6c.04.77.63,1.4,1.4,1.5l.2.1Zm2.1-2.2c-.03-.95-.83-1.7-1.78-1.67-.52.02-1,.26-1.32.67l3.1,1Z"/><path d="m228.66,34.84l-6.7,8.1-1.7-1.4.5-.5c-.83.13-1.68-.12-2.3-.7-1.4-1.71-1.16-4.23.54-5.63,1.29-1.06,3.11-1.21,4.56-.37.68.48,1.09,1.26,1.1,2.1l2.4-2.8,1.7,1.4-.1-.2Zm-6.1,3.7c.67-.72.62-1.85-.1-2.52-.03-.03-.06-.06-.1-.08-.64-.62-1.67-.61-2.29.03-.08.08-.15.17-.21.27-.67.72-.62,1.85.1,2.52.03.03.06.06.1.08.64.62,1.67.61,2.29-.03.08-.08.15-.17.21-.27h0Z"/><path d="m228.36,39.14l1.4,1.8-5.9,4.7-1.4-1.8,5.9-4.7Zm1.4-1.4c.58-.47,1.43-.38,1.9.2s.38,1.43-.2,1.9c-.58.47-1.43.38-1.9-.2-.47-.55-.41-1.37.14-1.85.02-.02.04-.04.06-.05h0Z"/><path d="m229.46,50.44c-1.5.8-2.9-.1-3.7-1.5-.75-1.12-.75-2.58,0-3.7l1.9,1.2c-.43.39-.47,1.05-.1,1.5.3.5.5.6.8.5.7-.4-1.5-3.4.8-4.7,1.4-.8,2.8,0,3.6,1.4.66,1,.66,2.3,0,3.3l-1.8-1.16c.25-.36.25-.84,0-1.2-.2-.3-.4-.5-.7-.3-.7.4,1.6,3.4-.9,4.7l.1-.04Z"/><path d="m233.46,58.94c-1.99.66-4.13-.41-4.8-2.4-.28-.8-.17-1.69.3-2.4l-3.6,1-.6-2.2,10.1-2.66.6,2.2-.7.2c.74.39,1.29,1.08,1.5,1.9.45,2.03-.82,4.04-2.85,4.49-.02,0-.03,0-.05.01l.1-.14Zm-.6-2.2c.92-.17,1.53-1.05,1.36-1.97-.01-.08-.03-.16-.06-.23-.2-.9-1.08-1.46-1.98-1.27-.08.02-.15.04-.22.07-.92.17-1.53,1.05-1.36,1.97.01.08.03.16.06.23.2.9,1.08,1.46,1.98,1.27.08-.02.15-.04.22-.07Z"/><path d="m240.66,60.04v2.24l-10.8.7v-2.2l10.8-.74Z"/><path d="m236.36,72.74l-7.4-1,.3-2.2h.7c-.54-.6-.76-1.41-.6-2.2.41-2.03,2.36-3.36,4.4-3,2.04.15,3.57,1.93,3.41,3.97,0,.04,0,.09-.01.13-.06.85-.5,1.62-1.2,2.1h.7l-.3,2.3v-.1Zm-3.4-2.7c.95.2,1.88-.42,2.08-1.37,0-.04.02-.09.02-.13.15-.95-.51-1.84-1.46-1.98-.05,0-.1-.01-.14-.02-.95-.2-1.88.42-2.08,1.37,0,.04-.02.09-.02.13-.18.91.42,1.79,1.33,1.97.09.02.18.03.27.03Z"/><path d="m232.76,82.14l-5.7-5.2c-1.9-1.7-2.2-3.3-1.3-5.2l1.9.8c-.45.73-.28,1.68.4,2.2h7.8l-1,2.3-4.9-.3,3.7,3.1-.9,2.2v.1Z"/><circle class="cls-4" cx="199.46" cy="201.3" r="45"/><path d="m165.06,187.4c1.93.61,3.01,2.67,2.4,4.6l-.5,1.5,3.2,1-.7,2.3-10-3.1,1.2-3.8c.56-1.93,2.57-3.04,4.5-2.5h-.1Zm-.7,2.3c-.69-.22-1.43.13-1.7.8l-.5,1.5,2.6.8.5-1.5c.2-.68-.19-1.39-.86-1.59-.01,0-.02,0-.04,0h0Z"/><path d="m171.86,180.4l3.9,2.5-1.2,1.9-3.6-2.3c-.58-.43-1.39-.3-1.82.27-.03.04-.06.08-.08.13-.41.63-.23,1.48.4,1.89.06.04.13.08.2.11l3.5,2.2-1.2,1.9-8.9-5.6,1.2-1.9,3.1,2c-.25-.79-.1-1.64.4-2.3.79-1.3,2.48-1.72,3.78-.93.11.07.22.15.32.23v-.1Z"/><path d="m173.56,179.69c-1.44-1.64-1.31-4.13.3-5.6,1.56-1.47,4.02-1.39,5.48.17.04.04.08.08.12.13,1.44,1.64,1.31,4.13-.3,5.6-1.56,1.47-4.02,1.39-5.48-.17-.04-.04-.08-.08-.12-.13Zm4.2-3.8c-.62-.74-1.73-.84-2.48-.22,0,0-.01.01-.02.02-.69.61-.75,1.67-.14,2.36.04.05.09.1.14.14.62.74,1.73.84,2.48.22,0,0,.01-.01.02-.02.69-.61.75-1.67.14-2.36-.04-.05-.09-.1-.14-.14h0Z"/><path d="m186.86,169.49l2.1,4.1-2,1-1.9-3.8c-.22-.63-.9-.95-1.53-.74-.1.03-.19.08-.27.14-.67.32-.95,1.12-.63,1.79.04.07.08.15.13.21l1.9,3.7-2,1-3.4-6.7,2-1,.3.6c.18-.81.74-1.48,1.5-1.8,1.36-.71,3.04-.19,3.75,1.17.06.11.1.22.15.33h-.1Z"/><path d="m193.16,170.69c.55-.09,1.02-.42,1.3-.9l2,.6c-.56,1.16-1.64,1.97-2.9,2.2-2.08.59-4.24-.62-4.83-2.7-.03-.1-.05-.2-.07-.3-.5-2.06.76-4.14,2.82-4.64.09-.02.19-.04.28-.06,2.05-.42,4.05.9,4.47,2.95,0,.05.02.1.03.15v.9l-5.2,1.1c.45.63,1.25.91,2,.7h.1Zm.8-3c-.3-.7-1.08-1.05-1.8-.8-.75.13-1.32.74-1.4,1.5l3.2-.7Z"/><path d="m198.06,166.3l5.7.2v2.2l-5.8-.2v-2.2h.1Z"/><path d="m213.36,170.9c-.53,2.01-2.58,3.22-4.6,2.7-.83-.18-1.54-.73-1.9-1.5l-.2.7-2.2-.7,3.1-10,2.2.7-1.1,3.5c.73-.43,1.61-.5,2.4-.2,1.95.7,2.97,2.84,2.3,4.8Zm-2.2-.7c.33-.91-.14-1.92-1.05-2.25-.05-.02-.1-.03-.15-.05-.88-.31-1.84.16-2.15,1.04-.02.05-.03.11-.05.16-.32.94.19,1.96,1.13,2.28.02,0,.04.01.07.02.88.31,1.84-.16,2.15-1.04.02-.05.03-.11.05-.16h0Z"/><path d="m214.56,171.4c1.18-1.86,3.66-2.42,5.52-1.23,1.86,1.18,2.42,3.66,1.23,5.52-1.18,1.86-3.66,2.42-5.52,1.23-.01,0-.02-.01-.03-.02-1.84-1.14-2.41-3.56-1.27-5.4.02-.03.04-.07.07-.1Zm4.8,3.1c.54-.74.38-1.77-.36-2.31-.05-.03-.09-.07-.14-.09-.8-.5-1.85-.27-2.36.53-.01.02-.03.05-.04.07-.54.74-.38,1.77.36,2.31.05.03.09.07.14.09.8.5,1.85.27,2.36-.53.01-.02.03-.05.04-.07h0Z"/><path d="m232.56,178.1l-7.9,6.9-1.5-1.7.5-.5c-.86,0-1.68-.41-2.2-1.1-1.25-1.82-.78-4.31,1.04-5.56,1.49-1.02,3.48-.92,4.86.26.61.6.91,1.45.8,2.3l2.8-2.4,1.5,1.7.1.1Zm-6.6,2.8c.74-.56.88-1.61.32-2.35-.04-.05-.08-.1-.12-.15-.58-.74-1.64-.87-2.39-.3-.08.06-.15.13-.21.2-.73.5-.92,1.5-.42,2.24.07.1.14.18.22.26.58.74,1.64.87,2.39.3.08-.06.15-.13.21-.2Z"/><path d="m235.06,188.99l-7.7.9c-2.5.3-4-.5-4.8-2.4l1.9-.9c.28.78,1.08,1.25,1.9,1.1l5.1-5.9,1.1,2.2-3.4,3.5,4.7-.8,1.1,2.2.1.1Z"/><path d="m233.06,198.4c-2.3.5-3.8-1-4.3-2.9-.47-1.53.1-3.18,1.4-4.1l1.6,1.8c-.64.35-.93,1.11-.7,1.8.2,1,.8,1.3,1.5,1.1s1-.7.8-1.6v-.5c.3-.42.64-.83,1-1.2l2.8,1.3-.9-3.7,2.2-.5,1.5,6.6-1.9.4-2.7-1.3c-.09,1.36-1.07,2.5-2.4,2.8h.1Z"/><path class="cls-14" d="m188.96,234.19c0-.2-.3-.1-.4-.2-2.85-.63-4.86-3.18-4.8-6.1v-37.4c-.08-2.54,1.38-4.87,3.7-5.9.66-.32,1.37-.49,2.1-.5h9.8v9.2h-3.7c-2.23-.24-3.97-2.06-4.1-4.3.12-.87-.44-1.69-1.3-1.9-.44-.02-.87.01-1.3.1-1.44.49-2.38,1.88-2.3,3.4v37.8c.19,1.66,1.63,2.88,3.3,2.8h9.3v2.9h-10.5l.2.1Z"/><path class="cls-32" d="m199.46,193.4v-9.2h10c2.84.23,5.16,2.38,5.6,5.2v38.5c.06,2.94-1.94,5.53-4.8,6.2-.17-.03-.35,0-.5.1h-10.4v-2.9h10.1c1.57-.36,2.66-1.79,2.6-3.4v-37.6c.04-1.6-1.12-2.97-2.7-3.2-1-.24-2.01.38-2.25,1.39-.02.1-.04.21-.05.31-.04,2.56-2.14,4.62-4.7,4.6h-2.9Z"/><path class="cls-23" d="m190.16,231.3c-1.66.07-3.1-1.15-3.3-2.8v-37.8c-.12-1.53.83-2.94,2.3-3.4.41-.18.87-.21,1.3-.1.9.2,1.3.8,1.3,1.9.1,2.26,1.85,4.09,4.1,4.3h3.7v3.3h-7.8c-.78-.05-1.45.55-1.5,1.34,0,.05,0,.11,0,.16v14.1c-.05.78.55,1.45,1.34,1.5.05,0,.11,0,.16,0h7.8v3.3c-.26.05-.54.05-.8,0h-7.1c-.24-.02-.48.02-.7.1-.7.38-.96,1.26-.57,1.95.27.5.81.79,1.37.75h7.8v3.3h-7.6c-.81-.13-1.57.43-1.7,1.25-.02.15-.02.3,0,.45v6.2l-.1.2Z"/><path class="cls-29" d="m190.16,231.3v-6.2c-.13-.81.43-1.57,1.25-1.7.15-.02.3-.02.45,0h7.6v7.8h-9.3v.1Z"/><path class="cls-18" d="m199.46,196.69v-3.3h3.1c2.55.05,4.65-1.97,4.7-4.52,0-.03,0-.05,0-.08,0-.99.82-1.78,1.81-1.77.17,0,.33.03.49.07,1.55.29,2.68,1.63,2.7,3.2v37.5c.06,1.61-1.03,3.04-2.6,3.4h-.7v-5.6c0-1.8-.4-2.3-2.3-2.3h-7.1v-3.3h1.6c.73,0,1.34-.57,1.4-1.3.01-.72-.49-1.35-1.2-1.5-.6-.05-1.2-.05-1.8,0h0v-3.3h7.6c.9.04,1.66-.66,1.7-1.56,0-.05,0-.1,0-.14v-13.6c0-4.5-.5-1.8-1.8-1.8h-7.5l-.1-.1Zm7.8,23.3c.8.03,1.47-.6,1.5-1.4s-.6-1.47-1.4-1.5h0c-.7,0-1.6.8-1.5,1.5-.02.75.57,1.38,1.32,1.4.03,0,.05,0,.08,0Z"/><path class="cls-34" d="m199.46,223.4h7.1c1.9,0,2.3.4,2.3,2.3v5.6h-9.4v-7.8h0v-.1Z"/><path class="cls-63" d="m199.46,196.69h7.5c.87-.12,1.68.48,1.8,1.35.02.15.02.3,0,.45v13.6c.04.9-.66,1.66-1.56,1.7-.05,0-.1,0-.14,0h-7.6v-17h0v-.1Z"/><path class="cls-22" d="m199.46,196.8v17h-7.8c-.78.05-1.45-.55-1.5-1.34,0-.05,0-.11,0-.16v-14.1c-.05-.78.55-1.45,1.34-1.5.05,0,.11,0,.16,0h7.8v.1Z"/><path class="cls-43" d="m199.46,220.1h-7.8c-.79.06-1.49-.53-1.55-1.33-.04-.57.25-1.1.75-1.37.22-.09.46-.12.7-.1h7.9v2.9h0v-.1Z"/><path class="cls-16" d="m199.46,219.99v-2.9h1.8c.69.17,1.18.79,1.2,1.5-.06.73-.67,1.29-1.4,1.3h-1.6v.1Z"/><path class="cls-54" d="m207.26,219.99c-.75.02-1.38-.57-1.4-1.32,0-.03,0-.05,0-.08.09-.79.71-1.41,1.5-1.5.77,0,1.4.61,1.4,1.38,0,.04,0,.08,0,.12h0c0,.77-.61,1.4-1.38,1.4-.04,0-.08,0-.12,0Z"/><path d="m202.86,209.49c1.59.44,3,1.39,4,2.7,1.01,1.32,1.54,2.94,1.5,4.6.15,2.44-.85,4.81-2.7,6.4-1.92,1.55-4.33,2.37-6.8,2.3-2.01.12-4.01-.4-5.7-1.5-1.68-1-2.95-2.56-3.6-4.4l5.8-3.3c.34,1.68,1.89,2.84,3.6,2.7,1.9,0,1.7-.2,2.2-.7.54-.44.83-1.11.8-1.8.01-.69-.28-1.35-.8-1.8-.64-.45-1.42-.66-2.2-.6h-1.4l-2.6-3.8,4.1-5.1h-8.7v-6.3h16.8v5.2l-4.3,5.3v.1Z"/><circle class="cls-2" cx="335.31" cy="201.3" r="45"/><path class="cls-58" d="m335.31,188.1h28.5c2.15-.11,3.99,1.55,4.1,3.7v1c-.08.77-.22,1.54-.4,2.3-.3,1.6,0,2,1.6,1.9,2.7-.1,3.4.8,3.3,3.3v17.8c0,5.9-.7,2.6-2.6,2.6h-5.5c-1.3,0-1.4.1-1.7,1.4l-.7,4.2c-.29,1.92-1.96,3.33-3.9,3.3h-45.3c-1.99.05-3.68-1.42-3.9-3.4-.3-1.5-.5-2.9-.8-4.4-.1-.8-.5-1.1-1.3-1.1h-6.1c-1.13.11-2.14-.68-2.3-1.8v-19.59c-.11-1.13.68-2.14,1.8-2.3h1.8c1.1,0,1.5-.4,1.3-1.6-.12-.91-.29-1.81-.5-2.7-.44-2.1.9-4.15,3-4.6h29.6Zm0,7.6h-19.9c-2.4,0-3.7,1.6-3.3,4,.4,2.4.9,4.9,1.3,7.4.8,4.2,1.5,8.4,2.3,12.6.25,1.5,1.58,2.57,3.1,2.5h32.9c1.52.07,2.85-1,3.1-2.5.5-2.6,1-5.3,1.4-7.9.7-4,1.5-8.1,2.1-12.1.4-2.3-.9-3.8-3.3-3.8h-19.8l.1-.2Zm30.4,5.1c-1.32.04-2.4,1.08-2.5,2.4h0c0,1.33,1.08,2.4,2.41,2.39,1.32,0,2.39-1.07,2.39-2.39h0c.04-1.26-.94-2.33-2.2-2.4h-.1,0Zm-60.8,16.1c1.32-.02,2.38-1.08,2.4-2.4h0c-.05-1.3-1.1-2.35-2.4-2.4-1.35.03-2.42,1.15-2.4,2.5h0c-.07,1.2.85,2.23,2.06,2.3.05,0,.1,0,.14,0h.2Zm-2.4-13.7c.02,1.32,1.08,2.38,2.4,2.4,1.32-.04,2.4-1.08,2.5-2.4.01-1.37-1.09-2.49-2.46-2.5-.01,0-.03,0-.04,0h0c-1.26-.04-2.33.94-2.4,2.2v.3Zm65.6,11.3c0-1.3-1-2.39-2.3-2.5-1.32.04-2.4,1.08-2.5,2.4.02,1.32,1.08,2.38,2.4,2.4,1.24.09,2.31-.85,2.4-2.09,0,0,0,0,0,0v-.2Z"/><path class="cls-10" d="m335.31,195.7h19.9c2.4,0,3.7,1.4,3.3,3.8-.7,4-1.4,8.1-2.1,12.1-.5,2.6-.9,5.3-1.4,7.9-.25,1.5-1.58,2.57-3.1,2.5h-33.1c-1.52.07-2.85-1-3.1-2.5-.8-4.2-1.5-8.4-2.3-12.5-.4-2.5-.9-4.9-1.3-7.4-.4-2.5.9-4,3.3-4h19.9v.1Zm-12.6,8.1c0-1.38-1.12-2.5-2.5-2.5s-2.5,1.12-2.5,2.5,1.12,2.5,2.5,2.5c1.37.01,2.49-1.09,2.5-2.46,0-.01,0-.03,0-.04h0Zm2.5,7.7c-1.32.04-2.4,1.08-2.5,2.4,0,1.38,1.12,2.5,2.5,2.5s2.5-1.12,2.5-2.5c0-1.32-1.06-2.4-2.38-2.4-.04,0-.08,0-.12,0Zm27.7-7.6c.02-1.35-1.05-2.47-2.4-2.5-1.34,0-2.44,1.06-2.5,2.4-.02,1.35,1.05,2.47,2.4,2.5h0c1.35-.03,2.42-1.15,2.4-2.5h0l.1.1Zm-7.5,7.6c.03-1.41,1.19-2.53,2.6-2.5,1.41.03,2.53,1.19,2.5,2.6s-1.19,2.53-2.6,2.5c-1.37-.03-2.47-1.13-2.5-2.5h0v-.1Zm-12.6-7.6c-1.35.03-2.43,1.15-2.4,2.5s1.15,2.43,2.5,2.4c1.35-.03,2.43-1.15,2.4-2.5-.03-1.31-1.09-2.37-2.4-2.4h-.1Zm7.6-2.5c-1.38,0-2.5,1.12-2.5,2.5s1.12,2.5,2.5,2.5,2.5-1.12,2.5-2.5c.01-1.37-1.09-2.49-2.46-2.5-.01,0-.03,0-.04,0h0Zm-2.6,12.7c.02-1.35-1.05-2.47-2.4-2.5-1.35-.03-2.47,1.05-2.5,2.4-.03,1.35,1.05,2.47,2.4,2.5h0c1.35.02,2.47-1.05,2.5-2.4Z"/><path class="cls-46" d="m365.71,200.8c1.26-.04,2.33.94,2.4,2.2v.2c0,1.34-1.06,2.44-2.4,2.5h0c-1.33,0-2.4-1.08-2.39-2.41,0-1.32,1.07-2.39,2.39-2.39h0v-.1Z"/><path class="cls-46" d="m304.91,216.9c-1.23.05-2.28-.87-2.4-2.1v-.2c-.03-1.35,1.05-2.47,2.4-2.5,0,0,0,0,0,0h0c1.35-.03,2.47,1.05,2.5,2.4.03,1.35-1.05,2.47-2.4,2.5h0l-.1-.1Z"/><path class="cls-46" d="m302.51,203.2c-.05-1.23.87-2.28,2.1-2.4h.3c1.32,0,2.4,1.06,2.4,2.38,0,.04,0,.08,0,.12-.05,1.3-1.1,2.35-2.4,2.4-1.32-.02-2.38-1.08-2.4-2.4v-.1Z"/><path class="cls-46" d="m368.11,214.5c.04,1.26-.94,2.33-2.2,2.4h-.2c-1.32-.02-2.38-1.08-2.4-2.4.06-1.34,1.16-2.39,2.5-2.4,1.28,0,2.31,1.05,2.31,2.33,0,.06,0,.11,0,.17v-.1Z"/><path class="cls-20" d="m322.71,203.8c0,1.38-1.12,2.5-2.5,2.5s-2.5-1.12-2.5-2.5,1.12-2.5,2.5-2.5h0c1.36.06,2.44,1.14,2.5,2.5Z"/><path class="cls-12" d="m325.21,211.4c1.32.04,2.4,1.08,2.5,2.4,0,1.38-1.12,2.5-2.5,2.5s-2.5-1.12-2.5-2.5h0c.03-1.35,1.15-2.43,2.5-2.4,0,0,0,0,0,0Z"/><path class="cls-52" d="m352.91,203.8c0,1.38-1.12,2.5-2.5,2.5s-2.5-1.12-2.5-2.5,1.12-2.5,2.5-2.5c1.37-.01,2.49,1.09,2.5,2.46,0,.01,0,.03,0,.04Z"/><path class="cls-12" d="m345.41,211.4c1.38,0,2.5,1.12,2.5,2.5s-1.12,2.5-2.5,2.5-2.5-1.12-2.5-2.5c-.01-1.37,1.09-2.49,2.46-2.5.01,0,.03,0,.04,0Z"/><path class="cls-10" d="m332.85,209.83c1.84-.04,3.3-1.56,3.26-3.39-.04-1.84-1.56-3.3-3.39-3.26s-3.3,1.56-3.26,3.39c.04,1.78,1.47,3.22,3.26,3.26h.14Z"/><path class="cls-12" d="m340.31,201.31c1.38,0,2.5,1.12,2.5,2.5s-1.12,2.5-2.5,2.5-2.5-1.12-2.5-2.5c-.01-1.37,1.09-2.49,2.46-2.5.01,0,.03,0,.04,0Z"/><path class="cls-12" d="m337.71,214c-.03,1.35-1.15,2.43-2.5,2.4,0,0,0,0,0,0-1.34-.06-2.39-1.16-2.4-2.5.03-1.35,1.15-2.43,2.5-2.4,0,0,0,0,0,0,1.34.06,2.39,1.16,2.4,2.5Z"/><path d="m320.41,169c1.3,2.34.45,5.29-1.89,6.59,0,0,0,0-.01,0l-1.8,1,2.2,3.8-2.8,1.6-7-12.1,4.6-2.6c2.23-1.37,5.15-.67,6.52,1.56.03.05.05.09.08.14h.1Zm-2.8,1.6c-.42-.84-1.44-1.18-2.28-.77-.04.02-.08.04-.12.07l-1.8,1,1.8,3.1,1.8-1c.82-.5,1.09-1.57.6-2.4h0Z"/><path d="m323.51,172.31c-.56-2.87,1.32-5.65,4.2-6.21,2.87-.56,5.65,1.32,6.21,4.2s-1.32,5.65-4.2,6.21c0,0,0,0,0,0-2.87.54-5.64-1.34-6.2-4.2Zm7.5-1.4c-.19-1.25-1.35-2.1-2.59-1.92-.04,0-.07.01-.11.02-1.21.19-2.04,1.32-1.86,2.53.01.09.03.18.06.27.19,1.25,1.35,2.1,2.59,1.92.04,0,.07-.01.11-.02,1.19-.17,2.02-1.26,1.85-2.45-.01-.08-.03-.17-.05-.25v-.1Z"/><path d="m342.61,166l-.3,3.4c-1.2-.3-3,0-3.2,2l-.4,4.5-3-.3,1-10,3,.3-.2,1.8c.57-1.22,1.87-1.91,3.2-1.7h-.1Z"/><path d="m348.41,170.9l-1.1,3.4c-.3.8.4,1.1,1.7,1.5l-.9,2.6c-3.8-.9-4.5-2.4-3.6-5l1.1-3.4-1.5-.5.9-2.7,1.5.5.6-1.8h3.1c0,.1-.9,2.8-.9,2.8l2,.7-.9,2.7-2-.7v-.1Z"/><path d="m356.91,180.31c-1.2,1.9-3.5,1.7-5.3.5-1.58-.82-2.49-2.53-2.3-4.3l3,.2c-.25.74.09,1.56.8,1.9.6.4,1,.4,1.2,0,.6-.9-3.8-3.1-2-6,1.2-1.8,3.3-1.8,5.1-.6,1.37.81,2.18,2.31,2.1,3.9l-2.9-.2c0-.6,0-1.1-.6-1.5-.4-.3-.8-.3-1,0-.6.99,3.9,2.99,1.9,6.1Z"/><path class="cls-12" d="m331.71,206.8c1.35-.03,2.43-1.15,2.4-2.5-.03-1.35-1.15-2.43-2.5-2.4s-2.43,1.15-2.4,2.5c.03,1.31,1.09,2.37,2.4,2.4h.1Z"/><line class="cls-9" x1="198.25" y1="251.68" x2="197.75" y2="284.45"/><line class="cls-6" x1="198.25" y1="251.68" x2="197.91" y2="273.69"/><polygon class="cls-64" points="190.47 271.39 197.75 284.45 205.43 271.62 190.47 271.39"/></svg>