<?xml version="1.0" encoding="UTF-8"?><svg id="Layer_1" xmlns="http://www.w3.org/2000/svg" viewBox="0 0 400 400"><defs><style>.cls-1{fill:#375e7d;}.cls-2{stroke:#a5262d;}.cls-2,.cls-3,.cls-4{stroke-width:4px;}.cls-2,.cls-3,.cls-4,.cls-5{fill:none;stroke-miterlimit:10;}.cls-6{fill:#7da1b1;}.cls-7{fill:#8fbac5;}.cls-3{stroke:#000;}.cls-8{fill:#fff;}.cls-4{stroke:#0018c6;}.cls-9{fill:#2b4d66;}.cls-10{fill:#546e7a;}.cls-11{fill:#f1f6f6;}.cls-12{fill:#453e43;}.cls-13{fill:#2b4e68;}.cls-14{fill:#d0cde6;}.cls-15{fill:#02f1a6;}.cls-16{fill:#2b506b;}.cls-17{fill:#e5e4ec;}.cls-18{fill:#ffed58;}.cls-5{stroke:#231f20;stroke-width:2px;}.cls-19{fill:#685e66;}.cls-20{fill:#36464e;}.cls-21{fill:#22a5fc;}.cls-22{fill:#fde077;}.cls-23{fill:#fee077;}.cls-24{fill:#ddebf0;}.cls-25{fill:#395f7e;}.cls-26{fill:#fed05b;}.cls-27{fill:#788f9b;}.cls-28{fill:#fec345;}.cls-29{fill:#0693fb;}.cls-30{fill:#fee078;}.cls-31{fill:#cee5ec;}.cls-32{fill:#f8f6f7;}.cls-33{fill:#d0cde7;}.cls-34{fill:#fdd15b;}.cls-35{fill:#fbd734;}.cls-36{fill:#dcd9ea;}.cls-37{fill:#231f20;}.cls-38{fill:#2c4d66;}</style></defs><line class="cls-8" x1="200.25" y1="239.68" x2="199.75" y2="272.45"/><line class="cls-5" x1="200.25" y1="239.68" x2="199.91" y2="261.69"/><polygon class="cls-37" points="192.47 259.39 199.75 272.45 207.43 259.62 192.47 259.39"/><line class="cls-8" x1="256.55" y1="125.96" x2="234.45" y2="150.17"/><line class="cls-5" x1="256.55" y1="125.96" x2="241.71" y2="142.22"/><polygon class="cls-37" points="237.66 135.56 234.45 150.17 248.7 145.65 237.66 135.56"/><line class="cls-8" x1="143.45" y1="125.96" x2="165.55" y2="150.17"/><line class="cls-5" x1="143.45" y1="125.96" x2="158.29" y2="142.22"/><polygon class="cls-37" points="151.3 145.65 165.55 150.17 162.34 135.56 151.3 145.65"/><circle class="cls-4" cx="111.56" cy="76.83" r="45"/><path class="cls-12" d="m121.36,57.63h1.9c.77.04,1.4.63,1.5,1.4v42.5c.12.89-.37,1.75-1.2,2.1h-24.3c-.85-.32-1.36-1.2-1.2-2.1v-1.3h11.7c.3,0,.5,0,.4-.4v-.8c.28-.61.97-.91,1.6-.7.63.19.99.86.8,1.5,0,0,0,0,0,0,0,.3,0,.4.3.4h6.6c.94,0,1.71-.77,1.7-1.72,0-.03,0-.05,0-.08v-3c.35-.16.55-.52.5-.9v-31.1c0-.37-.19-.71-.5-.9v-4.9h.2Z"/><path class="cls-19" d="m121.36,57.63v4.9h-19.2c-.9,0-1.1.2-1.1,1.1v30.8c0,.9.2,1.1,1.1,1.1h19.4v3c.05.94-.67,1.75-1.62,1.8-.03,0-.05,0-.08,0h-6.6c-.3,0-.4-.1-.3-.4.19-.63-.16-1.3-.8-1.5,0,0,0,0,0,0-.63-.21-1.32.09-1.6.7-.1.26-.1.54,0,.8.1.4,0,.4-.4.4h-11.7v-40.55c-.09-1.01.65-1.91,1.66-2,.11-.01.22-.01.34,0h21.2l-.3-.15Z"/><path d="m76.16,67.63c2.34.53,3.82,2.85,3.3,5.2l-.4,1.8,3.9.8-.6,2.8-12.3-2.7,1-4.7c.48-2.36,2.77-3.89,5.13-3.41.02,0,.04,0,.07.01l-.1.2Zm-.6,2.8c-.82-.21-1.66.28-1.88,1.1,0,.03-.02.06-.02.1l-.4,1.8,3.2.7.4-1.8c.17-.82-.36-1.61-1.18-1.78-.04,0-.08-.01-.12-.02v-.1Z"/><path d="m84.16,58.78l4.8,2.8-1.4,2.3-4.4-2.6c-.65-.48-1.57-.34-2.05.32-.04.06-.08.12-.12.18-.51.72-.33,1.72.39,2.23.1.07.2.13.31.17l4.2,2.5-1.4,2.3-10.9-6.4,1.4-2.3,3.8,2.3c-.3-.95-.16-1.98.4-2.8.9-1.6,2.8-2.2,4.9-1h.07Z"/><path d="m86.26,57.63c-1.74-1.88-1.63-4.83.25-6.57.05-.04.1-.09.15-.13,1.96-1.74,4.96-1.56,6.7.4,1.82,1.89,1.76,4.9-.13,6.72-1.89,1.82-4.9,1.76-6.72-.13-.09-.09-.18-.19-.26-.29Zm5.1-4.5c-.8-.83-2.12-.85-2.96-.05s-.85,2.12-.05,2.96c.78.81,2.07.86,2.91.1.85-.7.97-1.96.27-2.82-.05-.07-.11-.13-.17-.18Z"/><path d="m102.76,45.93l2.2,5.1-2.5,1.1-2-4.7c-.28-.8-1.15-1.23-1.96-.96-.05.02-.1.04-.14.06-.85.33-1.27,1.28-.94,2.12.04.1.08.19.14.28l1.9,4.5-2.47,1.1-3.6-8.3,2.5-1.1.3.8c.25-.95.97-1.7,1.9-2,1.7-.7,3.6-.1,4.6,2.1l.07-.1Z"/><path d="m110.26,48.23c.65-.03,1.26-.32,1.7-.8l2.3,1c-.8,1.29-2.18,2.12-3.7,2.2-2.5.44-4.89-1.22-5.33-3.72-.03-.19-.06-.38-.07-.58-.3-2.56,1.53-4.88,4.1-5.18.07,0,.14-.01.2-.02,2.54-.22,4.77,1.66,4.99,4.19,0,.04,0,.07,0,.11v1.1l-6.4.6c.4.9,1.3,1.1,2.3,1.1h-.1Zm1.4-3.4c-.28-.84-1.13-1.35-2-1.2-.93-.02-1.72.68-1.8,1.6l3.9-.4h-.1Z"/><path d="m125.26,43.33l1.6.5-.7,2.5-1.6-.5-1.8,6.1-2.6-.8,1.8-6.1-1.2-.3.7-2.5,1.2.3c.7-2.4,2.5-3.5,5.3-2.5l-.7,2.5c-.9-.4-1.7-.3-2,.7v.1Z"/><path d="m133.76,46.93l-1.4,2.7c-.83-.79-2.14-.76-2.93.06-.15.16-.28.34-.37.54l-1.9,3.6-2.4-1.2,4.1-8,2.4,1.2-.7,1.4c.86-.84,2.19-.96,3.2-.3Z"/><path d="m142.76,54.63l-6,6.7-2-1.8.6-.6c-1,.08-1.99-.28-2.7-1-1.78-1.93-1.66-4.95.28-6.73,1.7-1.57,4.29-1.68,6.12-.27.81.61,1.27,1.59,1.2,2.6l.6-.6,2,1.8-.1-.1Zm-5,1.5c.77-.91.66-2.27-.25-3.04-.91-.77-2.27-.66-3.04.25-.75.89-.67,2.21.19,3,.85.8,2.19.77,3-.08.04-.04.07-.08.1-.12Z"/><path d="m148.26,71.63l-5,2.3-1.1-2.4,4.8-2.2c.8-.4,1.2-1,.8-1.8-.36-.73-1.24-1.03-1.97-.67-.05.02-.09.05-.13.07l-4.6,2.1-1.1-2.4,4.8-2.2c.8-.4,1.2-1,.8-1.8-.36-.73-1.24-1.03-1.97-.67-.05.02-.09.05-.13.07l-4.6,2.1-1.1-2.4,8.2-3.8,1.1,2.4-.8.3c.92.18,1.67.83,2,1.7.45.81.45,1.79,0,2.6,1,.23,1.83.94,2.2,1.9.9,1.9.1,3.7-1.9,4.7l-.3.1Z"/><path d="m145.36,79.43c.01.65.3,1.27.8,1.7l-1.1,2.2c-1.31-.81-2.08-2.26-2-3.8-.1-3.1,1.8-5.1,4.5-5.2,2.57-.18,4.81,1.76,4.99,4.33,0,.09.01.18.01.27.14,2.51-1.78,4.66-4.29,4.79-.07,0-.14,0-.21,0h-1.07l-.3-6.4c-.83.4-1.32,1.28-1.2,2.2l-.13-.1Zm3.4,1.5c.87-.25,1.43-1.1,1.3-2,.04-.92-.6-1.73-1.5-1.9l.2,3.9Z"/><circle class="cls-4" cx="288.44" cy="76.83" r="45"/><path class="cls-7" d="m277.25,112.83c-.81-.23-1.58-.57-2.3-1-1.52-1.03-2.39-2.77-2.3-4.6v-42.9c-.05-2.63,1.81-4.92,4.4-5.4h21.6c0,.2.1.2.2.2,1.33.37,2.47,1.23,3.2,2.4.39.52.6,1.15.6,1.8,0,0-.2-.2-.2-.3-.51-.83-1.42-1.33-2.4-1.3h-3.8c-.64-.04-1.23.32-1.5.9-.2.3-.3.7-.5,1-.28.69-.96,1.13-1.7,1.1h-6.7c-.27.02-.54-.01-.8-.1-.37-.24-.65-.59-.8-1l-.6-1.2c-.2-.42-.63-.7-1.1-.7h-4.8c-1.37.32-2.31,1.59-2.2,3v42.5c-.02,1.48,1.12,2.71,2.6,2.8h22c.45,0,.9-.1,1.3-.3.52-.3.94-.76,1.2-1.3v.2c-.41,1.91-1.83,3.44-3.7,4-.1,0-.4,0-.4.2h-21.3Zm11.9-50.3h1.84c.35.04.66-.21.7-.55,0-.05,0-.1,0-.15,0-.5-.2-.9-.7-.9h-3.5c-.5,0-.7.4-.7.9s.3.6.7.7h1.7-.04Z"/><path class="cls-6" d="m298.65,112.83c0-.3.2-.2.4-.2,1.83-.62,3.22-2.13,3.7-4v-.2c.17-.55.24-1.13.2-1.7v-41.8c.03-.57-.04-1.15-.2-1.7-.03-.64-.24-1.27-.6-1.8-.71-1.19-1.86-2.06-3.2-2.4-.1,0-.2,0-.2-.2h2.4c.66.14,1.3.38,1.9.7,1.73,1.01,2.77,2.89,2.7,4.9v42.7c.1,2.73-1.82,5.11-4.5,5.6h-2.5l-.1.1Z"/><path class="cls-11" d="m284.99,64.53c.3,0,.5.1.8.1h6.7c.75.07,1.46-.38,1.7-1.1.2-.3.3-.7.5-1,.27-.58.86-.94,1.5-.9h.9c0,.2.2.2.3.3.99.49,1.61,1.5,1.6,2.6v42.5c.02,1.08-.56,2.08-1.5,2.6-.16,0-.29.14-.3.3h-19.1c-1.48-.09-2.62-1.32-2.6-2.8v-42.35c-.11-1.41.83-2.68,2.2-3,.47-.05.93-.05,1.4,0,.49.63.93,1.3,1.3,2,.3.65,1,1.01,1.7.9h2.5c.17.03.35,0,.5-.1l-.1-.05Zm-3.5,29.9v10.4c0,1.1.3,1.4,1.4,1.4h12.9c.55.06,1.04-.34,1.1-.89,0-.07,0-.14,0-.21v-21.35c.06-.55-.34-1.04-.89-1.1-.07,0-.14,0-.21,0h-1.1c-.55.06-1.04-.34-1.1-.89,0-.07,0-.14,0-.21v-1.9c.06-.55-.34-1.04-.89-1.1-.07,0-.14,0-.21,0h-6.7c-.8,0-1.1.4-1.1,1.2v1.9c0,.7-.4,1-1.1,1h-.8c-1,0-1.3.3-1.3,1.3v10.5-.05Zm7.7-24.2c0-.2.1-.3.2-.5.3-.5.7-1,1-1.5s.2-.9-.2-1.1-.8-.3-1,0c-.8,1.1-1.6,2.3-2.3,3.5-.3.6,0,1.1.7,1.1h1.4q.3,0,.2.3c-.5.8-1,1.6-1.6,2.4-.32.37-.32.93,0,1.3.4.3.9.1,1.3-.4.9-1.3,1.7-2.6,2.5-3.9.2-.27.2-.63,0-.9-.18-.26-.48-.42-.8-.4h-1.6l.2.1Z"/><path class="cls-24" d="m297.15,109.93c0-.2.2-.2.3-.3.94-.52,1.52-1.52,1.5-2.6v-42.5c0-1.1-.61-2.11-1.6-2.6-.16,0-.29-.14-.3-.3h2.94c.98-.05,1.91.45,2.4,1.3,0,.1.1.2.2.3.17.55.24,1.13.2,1.7v41.85c.03.57-.04,1.15-.2,1.7-.32.5-.73.94-1.2,1.3-.4.2-.85.31-1.3.3h-2.9l-.04-.15Z"/><path class="cls-24" d="m284.99,64.53c-.1.2-.3.1-.5.1h-2.5c-.7.09-1.38-.27-1.7-.9-.37-.7-.81-1.37-1.3-2h3.4c.47,0,.9.28,1.1.7l.6,1.2c.21.37.48.71.8,1l.1-.1Z"/><path class="cls-6" d="m289.15,62.53h-1.6c-.35.04-.66-.21-.7-.55,0-.05,0-.1,0-.15,0-.5.2-.9.7-.9h3.5c.44.06.75.46.7.9,0,.5-.2.6-.7.7-.6.05-1.2.05-1.8,0h-.1Z"/><path class="cls-15" d="m281.44,94.43v-10.5c0-1,.3-1.3,1.3-1.3h.8c.7,0,1-.3,1.1-1v-1.85c0-.8.3-1.2,1.1-1.2h6.7c.55-.06,1.04.34,1.1.89,0,.07,0,.14,0,.21v1.9c-.06.55.34,1.04.89,1.1.07,0,.14,0,.21,0h1.1c.55-.06,1.04.34,1.1.89,0,.07,0,.14,0,.21v21.4c.06.55-.34,1.04-.89,1.1-.07,0-.14,0-.21,0h-12.9c-1.1,0-1.4-.3-1.4-1.4v-10.45h0Zm12.5,2.7v-10.6c0-.5-.3-.8-.9-.8h-7.9c-.44-.06-.84.25-.9.69,0,.07,0,.14,0,.21v15.9c-.06.44.25.84.69.9.07,0,.14,0,.21,0h7.9c.44.06.84-.25.9-.69,0-.07,0-.14,0-.21v-5.4Z"/><path class="cls-30" d="m289.15,70.23h1.6c.4,0,.7,0,.8.4.14.28.14.62,0,.9-.8,1.3-1.7,2.6-2.5,3.9-.26.45-.83.63-1.3.4-.4-.3-.4-.8,0-1.3.5-.8,1-1.6,1.6-2.4.2-.2.1-.3-.2-.3h-1.4c-.7,0-1.1-.6-.7-1.1.7-1.2,1.5-2.3,2.3-3.5.15-.28.5-.38.77-.23.1.05.17.13.23.23.32.27.4.73.2,1.1-.3.5-.7,1-1,1.5,0,.1-.2.2-.2.5l-.2-.1Z"/><path class="cls-24" d="m290.75,85.63h2.4c.45-.04.85.29.9.74,0,.02,0,.04,0,.06v2.5h-2.5c-.4,0-.5.1-.5.5v3.5h-6.7v-4.1h6.2c.2,0,.5.1.5-.2,0-1,.3-2.1-.3-3Z"/><path class="cls-22" d="m290.55,103.43h-5.3c-.44.06-.84-.25-.9-.69,0-.07,0-.14,0-.21v-3.7h6.7v3.6c.05.4-.15.8-.5,1Z"/><path class="cls-23" d="m284.34,93.03h6.7v4.1h-6.7v-4.1Z"/><path class="cls-11" d="m290.75,85.63c.6,1,.2,2,.3,3,0,.3-.3.2-.5.2h-6.2v-2.3c-.06-.44.25-.84.69-.9.07,0,.14,0,.21,0h5.5Z"/><path class="cls-34" d="m290.55,103.43c.4-.2.5-.5.5-1v-3.6h2.94v3.7c.03.46-.31.87-.78.9-.04,0-.08,0-.12,0h-2.54Z"/><path class="cls-26" d="m291.05,97.13v-4.1h2.94v4.1h-2.94Z"/><path class="cls-31" d="m294.05,93.03h-2.9v-3.5c0-.4.1-.5.5-.5h2.5v4h-.1Z"/><path class="cls-34" d="m284.34,97.13h6.7v1.7h-6.7v-1.7Z"/><path class="cls-28" d="m291.05,98.83v-1.7h2.94v1.7h-2.94Z"/><path d="m254.25,69.43c2.1.33,3.53,2.3,3.2,4.4l-.3,1.6,3.5.5-.4,2.5-11-1.7.6-4.2c.28-2.11,2.21-3.59,4.32-3.31.03,0,.05,0,.08.01v.2Zm-.4,2.5c-.71-.16-1.42.28-1.58.99,0,.04-.01.07-.02.11l-.3,1.6,2.8.4.3-1.6c.12-.7-.36-1.37-1.06-1.48-.05,0-.09-.01-.14-.02h0Z"/><path d="m260.65,61.13l4.4,2.1-1,2.1-4.1-2c-.66-.37-1.5-.13-1.86.53-.01.02-.02.05-.04.07-.4.8-.2,1.5.8,2l3.9,1.9-1,2.1-10-4.9,1-2.1,3.5,1.7c-.31-.81-.28-1.72.1-2.5.73-1.48,2.53-2.09,4.02-1.36.1.05.19.1.28.16v.2Z"/><path d="m262.34,60.13c-1.68-1.57-1.77-4.21-.19-5.89,1.57-1.68,4.21-1.77,5.89-.19,1.68,1.57,1.77,4.21.2,5.89-1.55,1.68-4.17,1.79-5.85.25-.02-.02-.03-.03-.05-.05Zm4.1-4.4c-.74-.66-1.88-.59-2.54.15-.66.74-.59,1.88.15,2.54.72.64,1.82.6,2.49-.1.68-.71.65-1.84-.06-2.52-.01-.01-.02-.02-.04-.03v-.05Z"/><path d="m275.75,48.33l2.4,4.2-2.1,1.2-2.2-3.9c-.25-.66-.98-.99-1.64-.74-.09.04-.18.08-.26.14-.8.4-1,1.2-.5,2.2l2.1,3.8-2.1,1.2-3.9-6.9,2.1-1.2.4.6c0-.7.6-1.4,1.5-2,1.44-.8,3.1-.5,4.2,1.4Z"/><path d="m282.55,49.53c.56-.11,1.06-.44,1.4-.9l2.1.7c-1.12,2.17-3.79,3.02-5.96,1.9-1.11-.57-1.93-1.59-2.24-2.8-.55-2.19.78-4.4,2.97-4.95.08-.02.15-.04.23-.05,2.16-.48,4.29.89,4.77,3.04.01.05.02.1.03.16,0,.3.1.6.1,1l-5.5,1.2c.47.67,1.32.96,2.1.7Zm.8-3.1c-.36-.69-1.14-1.06-1.9-.9-.8.1-1.41.79-1.4,1.6l3.3-.7Z"/><path d="m300.15,48.63c-.38,2.17-2.42,3.63-4.6,3.3-.89-.17-1.65-.72-2.1-1.5l-.2.7-2.3-.5,2.4-10.8,2.3.5-.9,3.8c.71-.55,1.65-.7,2.5-.4,2.12.58,3.37,2.77,2.8,4.9h.1Zm-2.3-.5c.3-.94-.23-1.95-1.17-2.24-.08-.02-.15-.04-.23-.06-.99-.26-2.01.34-2.27,1.34-.01.05-.03.11-.03.16-.3.94.23,1.95,1.17,2.24.08.02.15.04.23.06.99.26,2.01-.34,2.27-1.34.01-.05.03-.11.03-.16h0Z"/><path d="m310.84,50.13l-4.1,6.8-2-1.2.4-.6c-.85.26-1.77.11-2.5-.4-1.84-1.38-2.22-3.99-.84-5.84,1.19-1.6,3.35-2.13,5.14-1.26.78.4,1.33,1.14,1.5,2l.4-.6,2,1.2v-.1Zm-4.1,2.2c.57-.82.37-1.94-.45-2.51-.05-.03-.1-.07-.15-.09-.89-.53-2.03-.24-2.57.64-.01.02-.02.04-.03.06-.52.88-.23,2.03.65,2.55.88.52,2.03.23,2.55-.65Z"/><path d="m313.65,56.03l-2,2c-.5.5-.1.9.7,1.6l-1.5,1.5c-2.4-2-2.4-3.3-.8-4.9l2-2-.9-.9,1.6-1.6.9.9,1.1-1.1,2.24,1.25-1.6,1.5,1.1,1.2-1.6,1.6-1.1-1.2-.14.15Z"/><path d="m317.55,61.03l-2.3,1.6c-.6.4-.3.9.3,1.7l-1.8,1.2c-2-2.4-1.7-3.7.1-4.9l2.3-1.6-.7-1.1,1.9-1.3.7,1.1,1.3-.8,1.9,1.6-1.8,1.2.9,1.4-1.9,1.3-.9-1.4Z"/><path d="m317.34,69.13c.2.53.59.96,1.1,1.2l-.4,2.2c-1.29-.39-2.31-1.41-2.7-2.7-.9-2.6.2-4.8,2.4-5.6,2.13-.82,4.53.24,5.35,2.37.02.04.03.09.05.13.76,2.08-.31,4.37-2.39,5.13-.07.03-.14.05-.21.07-.29.11-.59.18-.9.2l-1.9-5.3c-.63.55-.79,1.46-.4,2.2v.1Zm3.2.4c.65-.44.9-1.28.6-2-.18-.82-.98-1.35-1.8-1.2l1.2,3.2Z"/><path d="m325.25,78.03l-2.7.3c0-1-.5-2.3-2-2.2l-3.6.4-.2-2.4,7.9-.8.2,2.4h-1.4c1.01.38,1.72,1.32,1.8,2.4v-.1Z"/><path d="m324.15,88.13l-7.3-3.7c-2.4-1.2-3.2-2.7-2.8-4.9l2.2.3c-.1,1.1.1,1.7,1,2.1l7.9-2.1-.3,2.6-5,1.1,4.6,2.1-.3,2.5h0Z"/><line class="cls-8" x1="113.06" y1="189.55" x2="145.84" y2="190.05"/><line class="cls-5" x1="113.06" y1="189.55" x2="135.08" y2="189.89"/><polygon class="cls-37" points="132.77 197.33 145.84 190.05 133 182.37 132.77 197.33"/><line class="cls-8" x1="255.06" y1="186.55" x2="287.84" y2="187.05"/><line class="cls-5" x1="265.82" y1="186.71" x2="287.84" y2="187.05"/><polygon class="cls-37" points="267.9 194.23 255.06 186.55 268.13 179.27 267.9 194.23"/><circle class="cls-2" cx="61.69" cy="190.03" r="45"/><path class="cls-38" d="m87.69,210.33c-.25.93-.66,1.81-1.2,2.6-1.09,1.51-2.84,2.4-4.7,2.4h-5.4c-.9,0-1-.2-1-1.1v-1.7c1.93.07,3.87.03,5.8-.1,1.02-.03,1.97-.51,2.6-1.3.83-1.28,1.25-2.78,1.2-4.3h2.8v3.5h-.1Z"/><path class="cls-14" d="m87.69,206.83h-2.66v-15.3h2.7v15.3h-.04Z"/><path class="cls-38" d="m87.69,191.43h-2.66v-2.7c-.04-1.8-.93-3.46-2.4-4.5-.78-.5-1.62-.9-2.5-1.2,1.78-.25,3.58.14,5.1,1.1,1.26.91,2.12,2.27,2.4,3.8l.1.1-.04,3.4Z"/><path class="cls-17" d="m37.79,201.63h-4.7c-1.13.11-2.22-.43-2.8-1.4-.05-.05-.12-.09-.2-.1v-1.6h.1c.52.8,1.45,1.23,2.4,1.1h5.1c.14.28.14.62,0,.9-.1.3-.2.5,0,.8v.3h.1Z"/><path class="cls-21" d="m50.19,184.63c.67-.05,1.33-.05,2,0h19.6v23.6c.04.66-.31,1.29-.9,1.6,0-.9-.3-1.2-1.2-1.2h-14.2c-.8,0-1.1.4-1,1.2h-4.4v-25.1l.1-.1Zm12.6,13.7h-6.9c-.9,0-1.4.3-1.3.9s.5.9,1.3.9h14.4c.4,0,.7-.5.7-.9h0c-.02-.4-.31-.73-.7-.8h-7.4l-.1-.1Zm0-8.5h7.1c.7,0,1-.3,1-.8s-.3-.9-1.1-.9h-14.2c-.3,0-.7,0-.9.3-.23.24-.28.61-.1.9.12.38.52.59.9.5h7.3Zm0,5.1h7.24c.35.03.69-.12.9-.4.14-.28.14-.62,0-.9-.2-.3-.6-.3-1-.3h-14.64c-.42.14-.68.56-.6,1h0c.14.43.55.72,1,.7h7.1v-.1Zm0,10.2h7.1c.24.02.48-.02.7-.1.32-.23.47-.62.4-1-.09-.41-.49-.67-.9-.6h-14.4c-.4-.05-.8.15-1,.5-.3.7.2,1.2.9,1.2h7.2Z"/><path class="cls-1" d="m80.03,183.04c.89.28,1.73.68,2.5,1.2,1.41,1.08,2.29,2.72,2.4,4.5v2.7h-1.9c-.61,0-1.11.49-1.12,1.1,0,.07,0,.13.02.2h0v12.8c-.08.64.37,1.21,1.01,1.29.03,0,.06,0,.09,0h1.8c.05,1.52-.37,3.02-1.2,4.3-.65.77-1.59,1.25-2.6,1.3-1.93.13-3.87.17-5.8.1v-28.1c0-1.7.3-1.5,1.6-1.5h3.1l.1.1Z"/><path class="cls-29" d="m75.29,184.43v29.4h-20.4c-.2-.1-.4,0-.6,0h-3.5c-.2,0-.4,0-.5-.2v-3.8h4.3c.2.41.64.65,1.1.6h14.1c.47.01.92-.21,1.2-.6.62-.28.99-.93.9-1.6v-23.6c1.1-.1,2.3,0,3.5,0l-.1-.2Z"/><path class="cls-1" d="m50.19,184.63v25.2h-1.16c-2.17-.4-4.08-1.66-5.3-3.5-.59-.99-1-2.07-1.2-3.2v-9.8c-.1-.94,0-1.9.3-2.8.79-3.48,3.93-5.91,7.5-5.8l-.14-.1Z"/><path class="cls-25" d="m52.19,176.93h-.8c-.6,0-1.1-.3-1.1-.9v-2.4c0-1,.3-1.3,1.3-1.3h11c.51.49.7,1.22.5,1.9v.9c.16.67-.07,1.36-.6,1.8h-10.3Z"/><path class="cls-33" d="m52.19,176.93h12.1v7.6h-2.9v-3c0-.2,0-.4-.2-.5v-.4c.4-.7.2-1-.6-1h-8.4v-2.7Z"/><path class="cls-36" d="m61.19,180.93c.2.1.2.3.2.5v3h-9.2v-5h8.5c.8,0,.9.3.6,1-.3-.7-.7-.8-1.2-.6-.41.2-.59.69-.4,1.1.12.24.34.42.6.5.47.12.95-.14,1.1-.6l-.2.1Zm-5.1-1.1c-.44.04-.81.36-.9.8,0,.5.4.9.9.9.5,0,.9-.4.9-.9,0-.5-.4-.9-.9-.9h0v.1Z"/><path class="cls-36" d="m42.39,193.23v9.2h-2.2c-.74,0-1.43-.33-1.9-.9,0-.16-.14-.29-.3-.3-.2-.3,0-.5,0-.8.05-.3.05-.6,0-.9v-4.7c.09-.98.92-1.72,1.9-1.7h2.6l-.1.1Z"/><path class="cls-32" d="m37.79,196.73v2.9h-5.1c-.96.09-1.9-.37-2.4-1.2.41-1.11,1.52-1.81,2.7-1.7h4.8Z"/><path class="cls-38" d="m64.29,176.93h-1.8c.47-.47.7-1.14.6-1.8v-.9c.15-.69-.08-1.42-.6-1.9h2.7c.55-.06,1.04.35,1.09.89,0,.03,0,.07,0,.11v2.4c0,.9-.4,1.3-1.3,1.3h-.7v-.1Z"/><path class="cls-36" d="m69.79,220.73h1.5c.59.62.86,1.47.74,2.31v.9c-.02.42-.2.81-.5,1.1,0,0-.3.1-.3.3-8.5-.2-17,0-25.5,0s-1.7-.6-1.6-1.6v-1.7c-.03-.68.49-1.27,1.18-1.3,0,0,.01,0,.02,0h24.5-.04Z"/><path class="cls-38" d="m42.39,203.04c.2,1.13.61,2.21,1.2,3.2,1.22,1.84,3.13,3.1,5.3,3.5h1.2v4.1c-3.66-.03-6.83-2.54-7.7-6.1-.12-.86-.18-1.73-.2-2.6v-2.1h.2Z"/><path class="cls-13" d="m50.19,213.83v-.3c.1.3.4.2.6.2h4.1v6.9h-2.1v-4.1c0-.6-.1-.8-.8-.8h-1.7v-2l-.1.1Z"/><path class="cls-9" d="m69.79,220.73h-2v-4.3c.04-.35-.21-.66-.55-.7-.05,0-.1,0-.15,0h-1.9v-2c.77-.05,1.53-.05,2.3,0h2.3v7Z"/><path class="cls-14" d="m71.19,225.43c0-.2.2-.2.3-.3.32-.28.51-.67.54-1.09v-.9c.23-.84-.05-1.73-.7-2.3h3.2c.77-.04,1.43.53,1.5,1.3v1.8c.1.79-.42,1.53-1.2,1.7h-3.6l-.04-.21Z"/><path class="cls-14" d="m42.39,203.04v2.1h-2.5c-1.11.02-2.06-.8-2.2-1.9v-1.5c.1,0,0-.2.1-.3s.2.2.3.3c.45.59,1.16.92,1.9.9h2.2v.5l.2-.1Z"/><path class="cls-1" d="m50.29,215.73h1.74c.6,0,.8.2.8.8-.1,1.4-.1,2.8,0,4.2h-2.4v-5h-.14Z"/><path class="cls-36" d="m84.89,206.83h-1.6c-.64.08-1.21-.37-1.29-1.01,0-.03,0-.06,0-.09v-13c-.08-.64.37-1.21,1.01-1.29.03,0,.06,0,.09,0h1.94v15.3h0l-.14.1Z"/><path class="cls-16" d="m71.03,209.73c-.23.38-.65.61-1.1.6h-14.14c-.45.03-.88-.2-1.1-.6,0-.8.2-1.2,1-1.2h14.1c.9,0,1.24.3,1.24,1.2Z"/><path class="cls-16" d="m62.79,198.23h7.4c.4,0,.7.4.8.8.03.43-.27.82-.7.9h-14.4c-.8,0-1.3-.3-1.3-.9s.4-.9,1.3-.9h6.9v.1Z"/><path class="cls-9" d="m62.79,189.73h-7.2c-.37.03-.73-.17-.9-.5-.07-.3-.03-.62.1-.9.2-.28.57-.4.9-.3h14.2c.7,0,1.1.3,1.1.9s-.3.8-1,.8h-7.2Z"/><path class="cls-9" d="m62.79,194.93h-7.1c-.45.02-.86-.27-1-.7-.12-.43.13-.87.55-.99.02,0,.03,0,.05-.01h14.6c.36-.06.73.05,1,.3.2.27.2.63,0,.9-.19.31-.53.5-.9.5h-7.2Z"/><path class="cls-9" d="m62.79,205.13h-7.2c-.8,0-1.2-.6-.9-1.2.17-.38.59-.59,1-.5h14.4c.43-.04.83.21,1,.6.13.39-.04.81-.4,1-.22.08-.46.12-.7.1h-7.2Z"/><path class="cls-16" d="m61.19,180.93c-.12.46-.59.73-1.05.61-.02,0-.03,0-.05-.01-.43-.09-.71-.52-.61-.95,0-.02,0-.03.01-.05,0-.29.21-.54.5-.6.5-.2.9,0,1.2.6v.4Z"/><path class="cls-16" d="m56.09,179.83c.5,0,.9.4.9.9,0,.5-.4.9-.9.9h0c-.5,0-.9-.4-.9-.9,0-.45.38-.81.84-.8.02,0,.04,0,.06,0v-.1Z"/><path class="cls-25" d="m65.29,220.73v-4.9h1.9c.5,0,.7.2.7.7v4.3h-2.6v-.1Z"/><path d="m21.29,188.23l.4-2.4,7.5-1-6.8-3.3.4-2.4,9.2,4.8-.5,2.8-10.2,1.6v-.1Z"/><path d="m24.39,177.93c-.63-.25-.94-.96-.69-1.6.25-.63.96-.94,1.6-.69.63.25.94.96.69,1.59-.24.63-.94.95-1.57.71,0,0-.02,0-.03-.01Zm1.8.5l.7-2,6.6,2.4-.7,2-6.6-2.4Z"/><path d="m34.69,169.43c1.7.89,2.35,2.99,1.46,4.68-.02.04-.04.08-.06.12-.37.69-1.03,1.17-1.8,1.3l.6.3-1.1,1.8-8.4-5.1,1.1-1.8,3,1.8c-.19-.74-.08-1.53.3-2.2,1.08-1.62,3.27-2.06,4.9-1v.1Zm-1.1,1.8c-.74-.5-1.75-.31-2.25.42-.02.02-.03.05-.05.08-.49.72-.3,1.7.42,2.19.06.04.12.07.18.11.74.5,1.75.31,2.25-.42.02-.02.03-.05.05-.08.49-.72.3-1.7-.42-2.19-.06-.04-.12-.07-.18-.11Z"/><path d="m36.03,162.93l1.7,1.6c-.78.46-1.04,1.46-.58,2.25.08.13.17.25.28.35l2.3,2.2-1.4,1.5-5.1-4.8,1.4-1.5.9.9c-.43-.83-.26-1.84.4-2.5h.1Z"/><path d="m43.19,157.63l4,5.7-1.7,1.2-.4-.5c-.04.8-.49,1.52-1.2,1.9-1.63,1.05-3.81.59-4.87-1.05-.01-.02-.02-.04-.03-.05-1.19-1.49-.95-3.66.54-4.85.02-.02.04-.03.06-.05.62-.48,1.43-.67,2.2-.5l-.4-.5,1.7-1.2.1-.1Zm.3,4.1c-.39-.72-1.3-.99-2.02-.6-.1.05-.19.12-.28.2-.76.5-.98,1.52-.48,2.28.03.04.05.08.08.12.39.72,1.3.99,2.02.6.1-.05.19-.12.28-.2.76-.5.98-1.52.48-2.28-.03-.04-.05-.08-.08-.12Z"/><path d="m48.69,157.43l1,2.3c.2.6.7.4,1.6,0l.7,1.8c-2.4,1.3-3.5.9-4.2-.9l-1-2.3-1,.4-.8-1.9,1-.4-.5-1.2,1.7-1.4.8,1.8,1.3-.6.8,1.9-1.3.6-.1-.1Z"/><path d="m50.29,152.73c-.17-.66.23-1.34.9-1.51.66-.17,1.34.23,1.51.9.17.66-.23,1.34-.9,1.51,0,0,0,0,0,0-.6.2-1.25-.12-1.46-.72-.02-.06-.03-.12-.04-.18Zm.7,1.8l2-.5,1.8,6.8-2,.5-1.8-6.8Z"/><path d="m55.29,156.83c-.17-2.04,1.35-3.83,3.4-4,0,0,0,0,0,0,2-.2,3.79,1.25,3.99,3.25,0,.05,0,.1.01.15.17,2.04-1.35,3.83-3.4,4,0,0,0,0,0,0-2,.2-3.79-1.25-3.99-3.25,0-.05,0-.1-.01-.15Zm5.3-.4c.03-.81-.61-1.49-1.42-1.52-.09,0-.19,0-.28.02-.86.02-1.54.74-1.52,1.6,0,.07,0,.13.02.2-.03.81.61,1.49,1.42,1.52.09,0,.19,0,.28-.02.86-.02,1.54-.74,1.52-1.6,0-.07,0-.13-.02-.2Z"/><path d="m71.03,156.73l-.7,4.2-2.1-.4.7-3.9c.16-.65-.24-1.32-.89-1.48-.04,0-.07-.02-.11-.02-.63-.17-1.29.2-1.46.84-.03.12-.05.24-.04.36l-.6,3.8-2.1-.4,1.2-6.9,2.1.4v.6c.52-.52,1.29-.72,2-.5,1.4.2,2.4,1.4,2.1,3.3l-.1.1Z"/><path d="m73.19,156.53l4.9,2.1-.8,1.9-4.9-2.1.8-1.9Z"/><path d="m87.89,167.04l-2.7,3.3-1.6-1.3,2.6-3.2c.4-.5.5-1.1,0-1.5-.53-.39-1.27-.28-1.66.25-.01.02-.02.03-.04.05l-2.5,3-1.6-1.3,2.6-3.2c.4-.5.5-1.1,0-1.5-.53-.39-1.27-.28-1.66.25-.01.02-.02.03-.04.05l-2.5,3-1.6-1.3,4.5-5.4,1.6,1.3-.4.5c1.33-.21,2.57.7,2.77,2.03.02.16.03.31.03.47.79-.18,1.61.05,2.2.6,1.13.92,1.3,2.57.38,3.7-.06.07-.12.14-.18.2h-.2Z"/><path d="m88.19,168.93c1.71-1.11,4-.61,5.1,1.1s.61,4-1.1,5.1c-1.71,1.11-4,.61-5.1-1.1h0c-1.1-1.71-.61-4,1.1-5.1Zm2.9,4.5c.74-.43.99-1.37.56-2.1-.02-.03-.04-.06-.06-.1-.46-.77-1.46-1.01-2.22-.55-.03.02-.05.03-.08.05-.74.43-.99,1.37-.56,2.1.02.03.04.06.06.1.46.77,1.46,1.01,2.22.55.03-.02.05-.03.08-.05Z"/><path d="m94.89,178.33l-2.3.9c-.6.2-.4.7,0,1.6l-1.8.7c-1.2-2.5-.8-3.5,1.1-4.2l2.3-.9-.4-1,1.9-.7.4,1,1.2-.5,1.3,1.7-1.8.7.5,1.3-1.9.7-.5-1.3Z"/><path d="m94.49,181.13c1.95-.35,3.82.95,4.17,2.9.01.07.02.14.03.2.31,2-1.01,3.9-3,4.3-1.95.35-3.82-.95-4.17-2.9-.01-.07-.02-.14-.03-.2-.31-2,1.01-3.9,3-4.3Zm.9,5.2c.91-.14,1.54-.99,1.4-1.9-.09-.83-.83-1.43-1.66-1.35-.08,0-.16.02-.24.05-.91.14-1.54.99-1.4,1.9.09.83.83,1.43,1.66,1.35.08,0,.16-.02.24-.05Z"/><path d="m99.03,194.23h-2.4c.2-1-.1-2.2-1.5-2.3h-3.2v-2.2l7,.3v2.1h-1.3c.85.39,1.37,1.27,1.3,2.2l.1-.1Z"/><path class="cls-35" d="m215.18,180.61c.5,0,.99.02,1.49.02.84,0,1.54.69,1.55,1.54,0,.78,0,1.56,0,2.33,0,6.58,0,13.16,0,19.75,0,.43-.02.86-.15,1.28-.15.49-.75.93-1.27.93-5.57,0-11.15,0-16.72,0-.03,0-.05,0-.08,0,0-1.51,0-3.03,0-4.54,1.16,0,2.32,0,3.48-.01.15,0,.32.04.32-.21,0-.57.05-1.16-.08-1.71-.36-1.48-.79-2.95-1.17-4.43-.1-.4-.22-.79-.36-1.18-.22-.61.19-.92.56-1.25.6-.55.85-1.24.99-2.03.3-1.66-1.1-3.65-2.68-4.16-.05-.09-.12-.13-.22-.08-.08-.02-.16-.04-.24-.05-.04-.05-.08-.07-.14-.03-.15-.02-.31-.04-.46-.07,0-2.01,0-4.03,0-6.04,2.86,0,5.71,0,8.57-.02.18,0,.36-.01.53-.02,1.02.03,2.04.05,3.07,0,1,.06,2,.04,3.01,0Z"/><path class="cls-18" d="m200,201.9c0,1.51,0,3.03,0,4.54-.57,0-1.15.01-1.72.01-4.86,0-9.72-.02-14.58.02-1.28.01-1.94-.69-1.94-1.94.04-7.44.03-14.88,0-22.32,0-.89.72-1.6,1.57-1.59.5,0,.99-.01,1.49-.02,1,.03,2,.05,3-.01,1.02.06,2.04.03,3.06.01.17,0,.33.02.5.02,2.87,0,5.74,0,8.61.01,0,2.01,0,4.03,0,6.04-.32.15-.68.08-1.02.21-1.42.55-2.36,1.51-2.7,3.02-.06.03-.11.07-.03.14-.11,1.25.02,2.39,1.14,3.22.35.26.49.65.35,1.14-.09.3-.2.59-.27.9-.2.84-.42,1.66-.64,2.49-.16.61-.35,1.22-.5,1.83-.15.61-.11,1.23-.13,1.85-.01.31.07.42.4.41,1.14-.02,2.27,0,3.41,0Z"/><path class="cls-27" d="m187.83,180.6c-1,.06-2,.04-3,.01,0-2.7-.02-5.41.02-8.11.02-1.25.19-2.49.55-3.71.44-1.46,1.06-2.83,1.9-4.1,1.05-1.58,2.35-2.94,3.9-4.05,1.02-.73,2.09-1.38,3.27-1.78,1.17-.41,2.35-.81,3.61-.9.71-.05,1.41-.16,2.12-.14,1.77.03,3.47.38,5.13,1,1.65.62,3.14,1.52,4.5,2.65,1.17.97,2.13,2.12,2.94,3.4.58.9,1.03,1.86,1.42,2.87.21.55.36,1.12.55,1.68.17.51.21,1.06.27,1.6.35,3.19.08,6.39.17,9.58-1,.04-2,.05-3,0,0-2.28-.02-4.57.01-6.85.02-1.31-.15-2.6-.47-3.87-.45-1.78-1.28-3.39-2.48-4.76-1.47-1.68-3.26-2.95-5.42-3.64-1.53-.49-3.08-.64-4.69-.54-1.49.09-2.89.44-4.22,1.06-2.21,1.03-3.95,2.61-5.24,4.69-1.11,1.79-1.72,3.76-1.8,5.84-.1,2.69-.02,5.38-.02,8.08Z"/><path class="cls-10" d="m209.11,180.61c0-2.42.02-4.85,0-7.27-.01-1.29-.19-2.56-.71-3.76-.41-.95-.96-1.81-1.64-2.6-1.01-1.18-2.27-1.99-3.7-2.51-1.32-.48-2.7-.64-4.13-.46-.87.11-1.71.31-2.49.65-2.18.95-3.78,2.51-4.77,4.69-.46,1.02-.65,2.09-.7,3.2-.13,2.69-.02,5.38-.06,8.06-1.02.02-2.04.04-3.06-.01,0-2.69-.08-5.39.02-8.08.08-2.08.68-4.05,1.8-5.84,1.29-2.08,3.03-3.66,5.24-4.69,1.33-.62,2.73-.97,4.22-1.06,1.61-.09,3.16.06,4.69.54,2.16.69,3.94,1.95,5.42,3.64,1.2,1.38,2.03,2.98,2.48,4.76.32,1.27.49,2.55.47,3.87-.03,2.28-.01,4.57-.01,6.85-1.02.05-2.04.04-3.07,0Z"/><path class="cls-20" d="m200,201.9c-1.14,0-2.27-.02-3.41,0-.33,0-.41-.1-.4-.41.02-.62-.01-1.25.13-1.85.15-.62.34-1.22.5-1.83.22-.83.44-1.66.64-2.49.07-.31.18-.6.27-.9.14-.49,0-.88-.35-1.14-1.12-.83-1.25-1.97-1.14-3.22.06-.03.06-.08.03-.14.34-1.51,1.28-2.47,2.7-3.02.34-.13.7-.05,1.02-.21.15.02.31.04.46.07.03.08.07.12.14.03.08.02.16.04.24.05.04.11.14.08.22.08,1.58.51,2.98,2.5,2.68,4.16-.14.79-.4,1.48-.99,2.03-.36.33-.78.65-.56,1.25.14.39.25.78.36,1.18.38,1.48.81,2.94,1.17,4.43.13.55.09,1.14.08,1.71,0,.25-.17.21-.32.21-1.16,0-2.32,0-3.48.01Z"/><path class="cls-10" d="m201.07,186.92c-.09,0-.18.03-.22-.08.1-.05.17,0,.22.08Z"/><path class="cls-10" d="m200.6,186.79c-.07.09-.11.05-.14-.03.06-.03.1-.02.14.03Z"/><path class="cls-27" d="m196.28,189.91c.03.06.03.1-.03.14-.08-.07-.03-.1.03-.14Z"/><circle class="cls-3" cx="200.13" cy="184.45" r="39.02"/><path class="cls-35" d="m215.18,316.61c.5,0,.99.02,1.49.02.84,0,1.54.69,1.55,1.54,0,.78,0,1.56,0,2.33,0,6.58,0,13.16,0,19.75,0,.43-.02.86-.15,1.28-.15.49-.75.93-1.27.93-5.57,0-11.15,0-16.72,0-.03,0-.05,0-.08,0,0-1.51,0-3.03,0-4.54,1.16,0,2.32,0,3.48-.01.15,0,.32.04.32-.21,0-.57.05-1.16-.08-1.71-.36-1.48-.79-2.95-1.17-4.43-.1-.4-.22-.79-.36-1.18-.22-.61.19-.92.56-1.25.6-.55.85-1.24.99-2.03.3-1.66-1.1-3.65-2.68-4.16-.05-.09-.12-.13-.22-.08-.08-.02-.16-.04-.24-.05-.04-.05-.08-.07-.14-.03-.15-.02-.31-.04-.46-.07,0-2.01,0-4.03,0-6.04,2.86,0,5.71,0,8.57-.02.18,0,.36-.01.53-.02,1.02.03,2.04.05,3.07,0,1,.06,2,.04,3.01,0Z"/><path class="cls-18" d="m200,337.9c0,1.51,0,3.03,0,4.54-.57,0-1.15.01-1.72.01-4.86,0-9.72-.02-14.58.02-1.28.01-1.94-.69-1.94-1.94.04-7.44.03-14.88,0-22.32,0-.89.72-1.6,1.57-1.59.5,0,.99-.01,1.49-.02,1,.03,2,.05,3-.01,1.02.06,2.04.03,3.06.01.17,0,.33.02.5.02,2.87,0,5.74,0,8.61.01,0,2.01,0,4.03,0,6.04-.32.15-.68.08-1.02.21-1.42.55-2.36,1.51-2.7,3.02-.06.03-.11.07-.03.14-.11,1.25.02,2.39,1.14,3.22.35.26.49.65.35,1.14-.09.3-.2.59-.27.9-.2.84-.42,1.66-.64,2.49-.16.61-.35,1.22-.5,1.83-.15.61-.11,1.23-.13,1.85-.01.31.07.42.4.41,1.14-.02,2.27,0,3.41,0Z"/><path class="cls-27" d="m187.83,316.6c-1,.06-2,.04-3,.01,0-2.7-.02-5.41.02-8.11.02-1.25.19-2.49.55-3.71.44-1.46,1.06-2.83,1.9-4.1,1.05-1.58,2.35-2.94,3.9-4.05,1.02-.73,2.09-1.38,3.27-1.78,1.17-.41,2.35-.81,3.61-.9.71-.05,1.41-.16,2.12-.14,1.77.03,3.47.38,5.13,1,1.65.62,3.14,1.52,4.5,2.65,1.17.97,2.13,2.12,2.94,3.4.58.9,1.03,1.86,1.42,2.87.21.55.36,1.12.55,1.68.17.51.21,1.06.27,1.6.35,3.19.08,6.39.17,9.58-1,.04-2,.05-3,0,0-2.28-.02-4.57.01-6.85.02-1.31-.15-2.6-.47-3.87-.45-1.78-1.28-3.39-2.48-4.76-1.47-1.68-3.26-2.95-5.42-3.64-1.53-.49-3.08-.64-4.69-.54-1.49.09-2.89.44-4.22,1.06-2.21,1.03-3.95,2.61-5.24,4.69-1.11,1.79-1.72,3.76-1.8,5.84-.1,2.69-.02,5.38-.02,8.08Z"/><path class="cls-10" d="m209.11,316.61c0-2.42.02-4.85,0-7.27-.01-1.29-.19-2.56-.71-3.76-.41-.95-.96-1.81-1.64-2.6-1.01-1.18-2.27-1.99-3.7-2.51-1.32-.48-2.7-.64-4.13-.46-.87.11-1.71.31-2.49.65-2.18.95-3.78,2.51-4.77,4.69-.46,1.02-.65,2.09-.7,3.2-.13,2.69-.02,5.38-.06,8.06-1.02.02-2.04.04-3.06-.01,0-2.69-.08-5.39.02-8.08.08-2.08.68-4.05,1.8-5.84,1.29-2.08,3.03-3.66,5.24-4.69,1.33-.62,2.73-.97,4.22-1.06,1.61-.09,3.16.06,4.69.54,2.16.69,3.94,1.95,5.42,3.64,1.2,1.38,2.03,2.98,2.48,4.76.32,1.27.49,2.55.47,3.87-.03,2.28-.01,4.57-.01,6.85-1.02.05-2.04.04-3.07,0Z"/><path class="cls-20" d="m200,337.9c-1.14,0-2.27-.02-3.41,0-.33,0-.41-.1-.4-.41.02-.62-.01-1.25.13-1.85.15-.62.34-1.22.5-1.83.22-.83.44-1.66.64-2.49.07-.31.18-.6.27-.9.14-.49,0-.88-.35-1.14-1.12-.83-1.25-1.97-1.14-3.22.06-.03.06-.08.03-.14.34-1.51,1.28-2.47,2.7-3.02.34-.13.7-.05,1.02-.21.15.02.31.04.46.07.03.08.07.12.14.03.08.02.16.04.24.05.04.11.14.08.22.08,1.58.51,2.98,2.5,2.68,4.16-.14.79-.4,1.48-.99,2.03-.36.33-.78.65-.56,1.25.14.39.25.78.36,1.18.38,1.48.81,2.94,1.17,4.43.13.55.09,1.14.08,1.71,0,.25-.17.21-.32.21-1.16,0-2.32,0-3.48.01Z"/><path class="cls-10" d="m201.07,322.92c-.09,0-.18.03-.22-.08.1-.05.17,0,.22.08Z"/><path class="cls-10" d="m200.6,322.79c-.07.09-.11.05-.14-.03.06-.03.1-.02.14.03Z"/><path class="cls-27" d="m196.28,325.91c.03.06.03.1-.03.14-.08-.07-.03-.1.03-.14Z"/><circle class="cls-3" cx="200.13" cy="320.45" r="39.02"/><path class="cls-35" d="m350.18,183.61c.5,0,.99.02,1.49.02.84,0,1.54.69,1.55,1.54,0,.78,0,1.56,0,2.33,0,6.58,0,13.16,0,19.75,0,.43-.02.86-.15,1.28-.15.49-.75.93-1.27.93-5.57,0-11.15,0-16.72,0-.03,0-.05,0-.08,0,0-1.51,0-3.03,0-4.54,1.16,0,2.32,0,3.48-.01.15,0,.32.04.32-.21,0-.57.05-1.16-.08-1.71-.36-1.48-.79-2.95-1.17-4.43-.1-.4-.22-.79-.36-1.18-.22-.61.19-.92.56-1.25.6-.55.85-1.24.99-2.03.3-1.66-1.1-3.65-2.68-4.16-.05-.09-.12-.13-.22-.08-.08-.02-.16-.04-.24-.05-.04-.05-.08-.07-.14-.03-.15-.02-.31-.04-.46-.07,0-2.01,0-4.03,0-6.04,2.86,0,5.71,0,8.57-.02.18,0,.36-.01.53-.02,1.02.03,2.04.05,3.07,0,1,.06,2,.04,3.01,0Z"/><path class="cls-18" d="m335,204.9c0,1.51,0,3.03,0,4.54-.57,0-1.15.01-1.72.01-4.86,0-9.72-.02-14.58.02-1.28.01-1.94-.69-1.94-1.94.04-7.44.03-14.88,0-22.32,0-.89.72-1.6,1.57-1.59.5,0,.99-.01,1.49-.02,1,.03,2,.05,3-.01,1.02.06,2.04.03,3.06.01.17,0,.33.02.5.02,2.87,0,5.74,0,8.61.01,0,2.01,0,4.03,0,6.04-.32.15-.68.08-1.02.21-1.42.55-2.36,1.51-2.7,3.02-.06.03-.11.07-.03.14-.11,1.25.02,2.39,1.14,3.22.35.26.49.65.35,1.14-.09.3-.2.59-.27.9-.2.84-.42,1.66-.64,2.49-.16.61-.35,1.22-.5,1.83-.15.61-.11,1.23-.13,1.85-.01.31.07.42.4.41,1.14-.02,2.27,0,3.41,0Z"/><path class="cls-27" d="m322.83,183.6c-1,.06-2,.04-3,.01,0-2.7-.02-5.41.02-8.11.02-1.25.19-2.49.55-3.71.44-1.46,1.06-2.83,1.9-4.1,1.05-1.58,2.35-2.94,3.9-4.05,1.02-.73,2.09-1.38,3.27-1.78,1.17-.41,2.35-.81,3.61-.9.71-.05,1.41-.16,2.12-.14,1.77.03,3.47.38,5.13,1,1.65.62,3.14,1.52,4.5,2.65,1.17.97,2.13,2.12,2.94,3.4.58.9,1.03,1.86,1.42,2.87.21.55.36,1.12.55,1.68.17.51.21,1.06.27,1.6.35,3.19.08,6.39.17,9.58-1,.04-2,.05-3,0,0-2.28-.02-4.57.01-6.85.02-1.31-.15-2.6-.47-3.87-.45-1.78-1.28-3.39-2.48-4.76-1.47-1.68-3.26-2.95-5.42-3.64-1.53-.49-3.08-.64-4.69-.54-1.49.09-2.89.44-4.22,1.06-2.21,1.03-3.95,2.61-5.24,4.69-1.11,1.79-1.72,3.76-1.8,5.84-.1,2.69-.02,5.38-.02,8.08Z"/><path class="cls-10" d="m344.11,183.61c0-2.42.02-4.85,0-7.27-.01-1.29-.19-2.56-.71-3.76-.41-.95-.96-1.81-1.64-2.6-1.01-1.18-2.27-1.99-3.7-2.51-1.32-.48-2.7-.64-4.13-.46-.87.11-1.71.31-2.49.65-2.18.95-3.78,2.51-4.77,4.69-.46,1.02-.65,2.09-.7,3.2-.13,2.69-.02,5.38-.06,8.06-1.02.02-2.04.04-3.06-.01,0-2.69-.08-5.39.02-8.08.08-2.08.68-4.05,1.8-5.84,1.29-2.08,3.03-3.66,5.24-4.69,1.33-.62,2.73-.97,4.22-1.06,1.61-.09,3.16.06,4.69.54,2.16.69,3.94,1.95,5.42,3.64,1.2,1.38,2.03,2.98,2.48,4.76.32,1.27.49,2.55.47,3.87-.03,2.28-.01,4.57-.01,6.85-1.02.05-2.04.04-3.07,0Z"/><path class="cls-20" d="m335,204.9c-1.14,0-2.27-.02-3.41,0-.33,0-.41-.1-.4-.41.02-.62-.01-1.25.13-1.85.15-.62.34-1.22.5-1.83.22-.83.44-1.66.64-2.49.07-.31.18-.6.27-.9.14-.49,0-.88-.35-1.14-1.12-.83-1.25-1.97-1.14-3.22.06-.03.06-.08.03-.14.34-1.51,1.28-2.47,2.7-3.02.34-.13.7-.05,1.02-.21.15.02.31.04.46.07.03.08.07.12.14.03.08.02.16.04.24.05.04.11.14.08.22.08,1.58.51,2.98,2.5,2.68,4.16-.14.79-.4,1.48-.99,2.03-.36.33-.78.65-.56,1.25.14.39.25.78.36,1.18.38,1.48.81,2.94,1.17,4.43.13.55.09,1.14.08,1.71,0,.25-.17.21-.32.21-1.16,0-2.32,0-3.48.01Z"/><path class="cls-10" d="m336.07,189.92c-.09,0-.18.03-.22-.08.1-.05.17,0,.22.08Z"/><path class="cls-10" d="m335.6,189.79c-.07.09-.11.05-.14-.03.06-.03.1-.02.14.03Z"/><path class="cls-27" d="m331.28,192.91c.03.06.03.1-.03.14-.08-.07-.03-.1.03-.14Z"/><circle class="cls-3" cx="335.13" cy="187.45" r="39.02"/></svg>