<?xml version="1.0" encoding="UTF-8"?><svg id="Layer_1" xmlns="http://www.w3.org/2000/svg" viewBox="0 0 400 400"><defs><style>.cls-1{stroke:#a5262d;}.cls-1,.cls-2,.cls-3,.cls-4{stroke-width:4px;}.cls-1,.cls-2,.cls-3,.cls-4,.cls-5{fill:none;stroke-miterlimit:10;}.cls-6{fill:#1f444f;}.cls-7{fill:#fff;}.cls-8{fill:#a7b4b9;}.cls-2{stroke:#0018c6;}.cls-9{fill:#cbcbcb;}.cls-10{fill:#4fb76a;}.cls-11{fill:#349951;}.cls-12{fill:#cfe1ed;}.cls-13{fill:#143441;}.cls-14{fill:#f6f6f6;}.cls-15{fill:#2d5a5d;}.cls-16{fill:#f2a745;}.cls-17{fill:#e1e6f5;}.cls-18{fill:#a7c1e0;}.cls-19{fill:#dda927;}.cls-3{stroke:#c000e2;}.cls-20{fill:#0d202b;}.cls-21{fill:#cbdde9;}.cls-22{fill:#1e4b4c;}.cls-23{fill:#369754;}.cls-24{fill:#444b66;}.cls-25{fill:#e0e0e0;}.cls-26{fill:#163842;}.cls-4{stroke:#00b51e;}.cls-27{fill:#f8d77c;}.cls-28{fill:#fdd782;}.cls-29{fill:#caa158;}.cls-30{fill:#6bc048;}.cls-5{stroke:#231f20;stroke-width:2px;}.cls-31{fill:#c6ecf9;}.cls-32{fill:#fbbd41;}.cls-33{fill:#3d435c;}.cls-34{fill:#01b6a0;}.cls-35{fill:#183c43;}.cls-36{fill:#6eaa50;}.cls-37{fill:#f0f1ef;}.cls-38{fill:#f0f1f0;}.cls-39{fill:#93c578;}.cls-40{fill:#073856;}.cls-41{fill:#999;}.cls-42{fill:#c6ecfa;}.cls-43{fill:#2e5a5d;}.cls-44{fill:#f1f1f1;}.cls-45{fill:#454c67;}.cls-46{fill:#c6d8de;}.cls-47{fill:#edcd67;}.cls-48{fill:#c4d8dd;}.cls-49{fill:#559a38;}.cls-50{fill:#db411d;}.cls-51{fill:#cadce8;}.cls-52{fill:#cdcdcd;}.cls-53{fill:#51b66c;}.cls-54{fill:#cad9df;}.cls-55{fill:#231f20;}.cls-56{fill:#c7d9de;}.cls-57{fill:#c5d8de;}.cls-58{fill:#f0c343;}.cls-59{fill:#153642;}.cls-60{fill:#1a846e;}.cls-61{fill:#666;}.cls-62{fill:#dca826;}.cls-63{fill:#249582;}.cls-64{fill:#b72b06;}.cls-65{fill:#edcb61;}.cls-66{fill:#6e6b87;}</style></defs><circle class="cls-4" cx="198.81" cy="319.66" r="45"/><path class="cls-50" d="m209.71,354.3c0,.8-4.9,1.4-11,1.4h0c-6.1,0-11-.6-11-1.4v-52.1c0-.8,4.9-1.4,11-1.4h0c6.1,0,11,.6,11,1.4v52.1Z"/><path class="cls-64" d="m187.71,303.46v.5c1.4-.4,5.3-.8,11-.8s9.6.4,11,.8v-.5c-2.7-.8-9.4-.8-11-.8s-8.2,0-11,.8Z"/><path class="cls-64" d="m209.71,352.86v-.5c-1.4.4-5.3.8-11,.8s-9.6-.4-11-.8v.5c2.7.8,9.4.8,11,.8s8.2,0,11-.8Z"/><path class="cls-64" d="m198.71,309.16c-3.2,0-6.2.1-8.4.3-.87.01-1.75.11-2.6.3v.6c3.65-.49,7.32-.69,11-.6,3.68-.09,7.35.11,11,.6v-.6c-.6-.1-1.4-.2-2.6-.3-2.2-.16-5.2-.3-8.4-.3Z"/><path class="cls-64" d="m209.71,345.96c-3.65.49-7.32.69-11,.6-3.68.09-7.35-.11-11-.6v.6c.6.1,1.4.2,2.6.3,2.2.2,5.2.3,8.4.3s6.2-.1,8.4-.3c.87-.01,1.75-.11,2.6-.3v-.6Z"/><rect class="cls-64" x="187.71" y="311.56" width="21.9" height="33.3"/><path class="cls-61" d="m215.51,329.96c-.3.6-.8.8-1.1.5l-2.8-2.6c-.3-.3-.2-.9,0-1.5l3.3-5.7c.3-.6.8-.8,1.1-.5l2.8,2.6c.3.3.2.9,0,1.5l-3.3,5.7Z"/><path class="cls-40" d="m219.71,311.66h1.1c1,0,1.5.8,1.1,2-.33.82-.69,1.62-1.1,2.4-2.6,4.6-5.1,9.3-7.7,13.9-2.4,4.2-4.8,8.3-7.3,12.3-1.02,1.92-2.68,3.41-4.7,4.2-2.4.8-4.5,0-6.5-1.6-1.21-1.1-2.19-2.43-2.9-3.9-2.8-4.7-5.5-9.4-8.2-14.2-1.2-2.1-2.3-4.2-3.5-6.3,0-.1-.1-.2-.2-.4-.7-1.6-.4-2.6,1.1-2.8,5.2-.8,10.4-1.5,15.6-2.3,4.6-.7,9.2-1.3,13.7-2,3.2-.5,6.5-.9,9.7-1.3h-.2Z"/><path class="cls-41" d="m217.31,314.06h.9c.8,0,1.3.7.9,1.7-.29.72-.63,1.42-1,2.1-2.2,4-4.4,8.1-6.7,12.1-2.1,3.6-4.2,7.2-6.4,10.7-.92,1.65-2.36,2.95-4.1,3.7-2.1.7-3.9,0-5.7-1.4-1.05-.96-1.9-2.11-2.5-3.4l-7.2-12.26c-1-1.8-2-3.7-3-5.5,0-.1-.1-.2-.2-.3-.6-1.4-.3-2.2.9-2.4,4.5-.7,9-1.3,13.5-2,4-.6,8-1.2,12-1.7,2.8-.4,5.7-.7,8.5-1.1h0l.1-.24Z"/><path d="m178.81,295.36c2.6,2.6,2.3,5.9,0,8.3-2.31,2.52-6.23,2.68-8.75.37-2.52-2.31-2.68-6.23-.37-8.75.07-.08.14-.15.21-.22,1.43-1.52,3.56-2.16,5.6-1.7l-.7,2.6c-1.12-.19-2.27.23-3,1.1-1.38,1.35-1.4,3.57-.05,4.95.02.02.03.03.05.05,1.29,1.36,3.43,1.42,4.79.13.11-.1.21-.22.31-.33,1.02-.81,1.39-2.19.9-3.4l-2.2,2.2-1.7-1.7,4.2-4.2.7.7v-.1Z"/><path d="m191.21,286.76l.6,8.9-2.2.9-3-3.7.4,4.7-2.2.9-5.7-6.9,2.5-1,2.8,3.8-.5-4.7,2.2-.9,2.9,3.7-.6-4.7,2.5-1h.3Z"/><path d="m202.71,286.16l.3,8.5h-2.5v-.7c-.61.75-1.54,1.16-2.5,1.1-2.33-.06-4.2-1.97-4.2-4.3,0-2.5,1.7-4.6,3.9-4.6.95-.06,1.89.26,2.6.9v-.76h2.5l-.1-.14Zm-2.4,4.3c.05-1.06-.77-1.96-1.83-2.01-.09,0-.18,0-.27,0-1.04-.03-1.9.79-1.93,1.83,0,.12,0,.25.03.37,0,1.1.89,2,2,2,.03,0,.07,0,.1,0,1.02.04,1.87-.74,1.92-1.76,0-.11,0-.23-.02-.34v-.1Z"/><path d="m208.61,289.86l-.7,2.9c-.2.7.4.9,1.5,1.1l-.5,2.3c-3.3-.4-4.1-1.6-3.5-3.9l.7-2.9-1.3-.3.5-2.4,1.3.3.4-1.6,2.7-.2-.5,2.3,1.7.4-.5,2.4-1.7-.4h-.1Z"/><path d="m211.21,292.3c1.01-2.21,3.63-3.19,5.85-2.17.05.02.1.05.15.07,1.43.65,2.39,2.03,2.5,3.6l-2.6.2c-.03-.7-.46-1.32-1.1-1.6-.92-.48-2.07-.13-2.55.8-.02.03-.03.07-.05.1-.49.91-.15,2.04.76,2.53.05.02.09.05.14.07.6.32,1.34.29,1.9-.1l1.5,2.1c-1.3.9-2.99,1.01-4.4.3-2.21-1.01-3.19-3.63-2.17-5.85.02-.05.05-.1.07-.15v.1Z"/><path d="m226.61,301.46l-3.5,3.9-1.9-1.7,3.2-3.6c.58-.54.61-1.46.06-2.04-.02-.02-.04-.04-.06-.06-.6-.57-1.54-.55-2.11.05-.07.08-.14.16-.19.25l-3.1,3.5-1.9-1.7,7.9-8.9,1.9,1.7-2.8,3.1c.92-.21,1.88.1,2.5.8,1.3,1.1,1.6,3,0,4.7Z"/><line class="cls-7" x1="199.06" y1="234.43" x2="198.56" y2="267.21"/><line class="cls-5" x1="199.06" y1="234.43" x2="198.72" y2="256.44"/><polygon class="cls-55" points="191.28 254.14 198.56 267.21 206.23 254.37 191.28 254.14"/><line class="cls-7" x1="256.36" y1="118.51" x2="234.25" y2="142.71"/><line class="cls-5" x1="256.36" y1="118.51" x2="241.51" y2="134.77"/><polygon class="cls-55" points="237.47 128.11 234.25 142.71 248.51 138.19 237.47 128.11"/><line class="cls-7" x1="143.25" y1="118.51" x2="165.36" y2="142.71"/><line class="cls-5" x1="143.25" y1="118.51" x2="158.1" y2="134.77"/><polygon class="cls-55" points="151.1 138.19 165.36 142.71 162.15 128.11 151.1 138.19"/><line class="cls-7" x1="282.2" y1="184.1" x2="249.42" y2="184.6"/><line class="cls-5" x1="282.2" y1="184.1" x2="260.18" y2="184.43"/><polygon class="cls-55" points="262.26 176.92 249.42 184.59 262.48 191.88 262.26 176.92"/><line class="cls-7" x1="115.42" y1="184.1" x2="148.2" y2="184.6"/><line class="cls-5" x1="115.42" y1="184.1" x2="137.43" y2="184.43"/><polygon class="cls-55" points="135.13 191.88 148.2 184.6 135.36 176.92 135.13 191.88"/><circle class="cls-3" cx="198.81" cy="181.55" r="45"/><path d="m156.51,183.85l.5-2.6,8.1-.6-7.4-3.4.3-2,8.1-.8-7.4-3.2.5-2.6,10.5,4.9-.5,2.9-6.8.7,6.2,2.9-.5,2.9-11.6,1.2v-.3Z"/><path d="m167.81,160.15l6.9,4.1-1.2,2.1-.6-.4c.31.85.16,1.79-.4,2.5-1.22,1.84-3.7,2.36-5.54,1.14-.02-.01-.04-.03-.06-.04-1.94-.95-2.74-3.29-1.79-5.23.03-.06.06-.11.09-.17.44-.8,1.21-1.38,2.1-1.6l-.6-.4,1.2-2.1-.1.1Zm2.2,4.1c-.82-.57-1.94-.37-2.51.45-.03.05-.07.1-.09.15-.55.81-.35,1.91.46,2.46.08.05.16.1.24.14.82.57,1.94.37,2.51-.45.03-.05.07-.1.09-.15.55-.81.35-1.91-.46-2.46-.08-.05-.16-.1-.24-.14h0Z"/><path d="m173.61,157.35l2,2c.5.5,1,.1,1.6-.7l1.6,1.5c-2,2.5-3.3,2.5-4.9.9l-2-2-.9.9-1.6-1.6.9-.9-1.1-1.1,1.2-2.2,1.6,1.6,1.2-1.2,1.6,1.6-1.2,1.2Z"/><path d="m176.71,156.55c-1.3-1.94-.79-4.57,1.15-5.87.02-.01.03-.02.05-.03,1.21-.84,2.78-.95,4.1-.3l-1.1,2.2c-.88-.45-1.96-.11-2.41.77-.3.58-.26,1.29.11,1.83.49.82,1.54,1.08,2.36.59.05-.03.1-.06.14-.09.56-.32.88-.95.8-1.6l2.4-.2c.09,1.49-.64,2.91-1.9,3.7-1.94,1.3-4.57.79-5.87-1.15-.01-.02-.02-.03-.03-.05l.2.2Z"/><path d="m191.51,148.45l1.5,4.7-2.3.7-1.4-4.3c-.18-.75-.94-1.21-1.69-1.03-.04,0-.07.02-.11.03-.76.21-1.2.99-1,1.74.02.09.06.17.1.26l1.4,4.2-2.3.7-3.5-10.6,2.3-.7,1.2,3.8c.33-.82,1.04-1.42,1.9-1.6,1.62-.51,3.34.39,3.85,2.01.02.06.04.13.05.19v-.1Z"/><path d="m193.71,147.15l6.1-.3v2.3l-5.9.3v-2.3h-.2Z"/><path d="m202.51,144.95l2.4.3-1,7.9-2.4-.3,1-7.9Zm0-2.2c.09-.76.77-1.3,1.53-1.21.02,0,.05,0,.07,0,.77.11,1.31.83,1.2,1.6-.11.77-.83,1.31-1.6,1.2-.76-.09-1.3-.77-1.21-1.53,0-.02,0-.05,0-.07Z"/><path d="m213.91,151.05l-1.6,4.6-2.3-.8,1.5-4.3c.31-.65.03-1.42-.62-1.73-.06-.03-.12-.05-.18-.07-.7-.3-1.5.02-1.8.72-.05.12-.09.25-.1.38l-1.4,4.1-2.3-.8,2.6-7.6,2.3.8-.2.7c.76-.43,1.68-.5,2.5-.2,1.54.51,2.37,2.16,1.87,3.7-.05.14-.1.27-.17.4l-.1.1Z"/><path d="m218.81,153.15l-1.5,2.4c-.4.6,0,1,1,1.5l-1.2,1.8c-2.8-1.4-3.1-2.7-1.9-4.6l1.5-2.4-1.1-.7,1.2-1.9,1.1.7.8-1.3,2.4.7-1.2,1.9,1.4.9-1.2,1.9-1.4-.9h.1Z"/><path d="m221.91,160.65c.38.43.92.68,1.5.7l.6,2.1c-1.34.22-2.71-.27-3.6-1.3-1.71-1.5-1.88-4.1-.38-5.81.09-.1.18-.19.28-.29,1.63-1.63,4.27-1.63,5.9,0s1.63,4.27,0,5.9c-.2.2-.5.4-.7.6l-4-4c-.4.8,0,1.5.6,2.2l-.2-.1Zm3.1-1c.43-.68.3-1.57-.3-2.1-.52-.63-1.43-.76-2.1-.3l2.4,2.4Z"/><path d="m233.01,165.25l-2.3,1.4c-.32-1.02-1.4-1.58-2.42-1.27-.13.04-.26.1-.38.17l-3.1,1.9-1.3-2,6.8-4.2,1.3,2-1.2.7c1.04-.21,2.09.28,2.6,1.2v.1Z"/><path d="m233.41,175.75l-4.7,1.5-.8-2.3,4.3-1.4c.7-.17,1.14-.87.97-1.58-.02-.08-.04-.15-.07-.22-.25-.78-1.09-1.2-1.86-.95-.05.01-.09.03-.14.05l-4.1,1.4-.8-2.3,7.6-2.5.8,2.3-.7.2c.82.33,1.42,1.04,1.6,1.9.51,1.62-.39,3.34-2.01,3.85-.06.02-.13.04-.19.05h.1Z"/><path d="m237.21,186.05l-8,.3v-2.4h.7c-.67-.62-1.07-1.48-1.1-2.4.05-2.23,1.87-4,4.1-4,2.4,0,4.3,1.6,4.3,3.7.07.89-.26,1.77-.9,2.4h.8v2.4h.1Zm-4.1-2.3c1.03.03,1.88-.79,1.9-1.81,0-.06,0-.12,0-.19.04-.96-.7-1.77-1.66-1.82-.11,0-.23,0-.34.02-1.03-.03-1.88.79-1.9,1.81,0,.06,0,.12,0,.19-.04.96.7,1.77,1.66,1.82.11,0,.23,0,.34-.02h0Z"/><path d="m240.31,189.65l-.4,2.4-11.5-2.1.4-2.4,11.5,2.1Z"/><path class="cls-30" d="m172.81,205.25v-28.8c0-.5.2-.6.7-.6h4.5v2c0,.5,0,.6.6.6h2.4c.4,0,.5,0,.5-.5v-2.1h3.4v2c0,.5,0,.6.6.6h2.4c.4,0,.5,0,.5-.5v-2.1h3.4v2c0,.5,0,.6.6.6h2.4c.4,0,.5,0,.5-.5v-2.1h7.8v4c0,.4,0,.6-.4.8-1,.59-1.49,1.77-1.2,2.9.46,1.36,1.94,2.09,3.3,1.63,1.26-.43,1.99-1.73,1.7-3.03-.19-.66-.61-1.24-1.2-1.6-.26-.08-.43-.33-.4-.6v-4.1h3.4v8.2c0,.48.17.95.5,1.3l5.4,5.4c.25.18.33.52.2.8-.37,1.4.46,2.84,1.87,3.22.17.05.35.07.53.08,1.26.02,2.36-.86,2.6-2.1v7.3h-.8c-.44-.06-.84.25-.9.69,0,.07,0,.14,0,.21h-3.4v-.3c0-.5,0-.6-.6-.6h-2.4c-.3,0-.5,0-.5.4v2.6c0,.4.1.5.5.4h2.2q.8,0,.8-.9h3.5c-.06.44.25.84.69.9.07,0,.14,0,.21,0h.6c-.33.99-1.25,1.67-2.3,1.7h-10.4c.07-1.01-.54-1.95-1.5-2.3-.3-.1-.3-.3-.3-.5v-3.9c0-.7-.3-1-1-1h-8.5v-1.8h10c.4,0,.6,0,.8.4.7,1.24,2.27,1.67,3.5.97,1.04-.59,1.54-1.82,1.2-2.97-.24-.91-.98-1.61-1.9-1.8-1.13-.29-2.31.2-2.9,1.2-.2.4-.4.4-.8.4h-10v-1.7h3q1.4,0,1.3-1.4c0-.3-.1-.4-.4-.4h-3.9v-1.8h3q1.4,0,1.3-1.4c0-.3-.1-.4-.4-.4h-3.9v-1.4c0-.3,0-.4-.3-.4h-1.4v-3q0-1.4-1.4-1.3c-.3,0-.4.1-.4.4v4h-1.8v-3q0-1.4-1.4-1.3c-.3,0-.4.1-.4.4v4h-1.8v-3q0-1.4-1.4-1.3c-.3,0-.4.1-.4.4v4h-1.8v-3q0-1.4-1.4-1.3c-.3,0-.4.1-.4.4v4h-1.4c-.3,0-.4,0-.3.4v1.4h-3q-1.4,0-1.3,1.4c0,.3.1.4.4.4h3.9v1.8h-3q-1.4,0-1.3,1.4c0,.3.1.4.4.4h3.9v1.8h-3q-1.4,0-1.3,1.4c0,.3.1.4.4.4h3.9v1.8h-3q-1.4,0-1.3,1.4c0,.3.1.4.4.4h3.9v1.4c0,.3,0,.4.3.4h1.4v4.3h-8.7l.6-.6Z"/><path class="cls-49" d="m172.81,205.25h28.6c.03.54.2,1.05.5,1.5.63.89,1.73,1.33,2.8,1.1,1.14-.3,1.96-1.32,2-2.5h10.4c1.06,0,1.99-.69,2.3-1.7h1.6c.3,0,.4,0,.4-.4v-2.8c0-.3-.1-.4-.4-.4h-1.4v-23.7c0-.5,0-.6.6-.6h4.1c.5,0,.6,0,.6.6v33.5c0,.5-.1.6-.6.6h-4.2c-.3,0-.4,0-.4-.4-.23-1.76-1.72-3.09-3.5-3.1-1.77-.02-3.25,1.34-3.4,3.1,0,.3-.1.4-.4.3h-38.8c-.5,0-.6,0-.6-.6v-4.6l-.2.1Z"/><path class="cls-30" d="m219.61,176.35v15.4c-.7-1.8-1.5-2.2-3.5-1.9-.19.03-.38-.05-.5-.2l-5.3-5.3c-.21-.12-.33-.36-.3-.6v-8h1.9c.5,0,.7.1.7.6.16,1.22,1.02,2.24,2.2,2.6,1.77.65,3.73-.24,4.4-2v-.1c0-.2.1-.3.2-.5h.2Z"/><path class="cls-37" d="m210.11,175.85v8c.01.23.12.45.3.6l5.3,5.3c.1.1.2.3.5.2,2-.4,2.8.1,3.5,1.9v1c-.6,1.4-1.4,2.1-2.6,2.1-1.41-.02-2.53-1.18-2.51-2.59,0-.24.04-.48.11-.71.11-.28.03-.6-.2-.8l-5.4-5.4c-.4-.3-.6-.81-.5-1.3v-8.2h1.8l-.3-.1Zm6.9,17.3c.46.01.86-.34.9-.8-.04-.44-.36-.81-.8-.9-.46-.01-.86.34-.9.8h0c-.01.46.34.86.8.9Z"/><path class="cls-38" d="m204.91,175.85v4.1c0,.4.2.4.4.6,1.24.69,1.69,2.26,1,3.5-.69,1.24-2.26,1.69-3.5,1h0c-.61-.34-1.04-.92-1.2-1.6-.29-1.13.2-2.31,1.2-2.9.4-.2.4-.4.4-.8v-3.9h1.7Zm-.9,6.1c-.5,0-.9.4-.9.9s.4.9.9.9.9-.4.9-.9h0c0-.5-.4-.9-.9-.9Z"/><path class="cls-65" d="m178.01,177.55v-3.9c0-.3,0-.4.4-.4h2.2v3.3c.06.49-.29.94-.79,1-.07,0-.14,0-.21,0h-1.6Z"/><path class="cls-65" d="m185.01,177.55v-3.9c0-.3,0-.4.4-.4h2.2v3.3c.06.49-.29.94-.79,1-.07,0-.14,0-.21,0h-1.6Z"/><path class="cls-65" d="m191.91,177.55v-3.9c0-.3.1-.4.4-.4h2.2v3.3c.06.49-.29.94-.79,1-.07,0-.14,0-.21,0h-1.6Z"/><path class="cls-16" d="m185.01,177.55h1.6c.49.06.94-.29,1-.79,0-.07,0-.14,0-.21v-3.3h.1c.53,0,.8.23.8.7v4c0,.4-.1.5-.5.5h-2.4c-.5,0-.6-.2-.6-.6v-.3Z"/><path class="cls-16" d="m178.01,177.55h1.6c.49.06.94-.29,1-.79,0-.07,0-.14,0-.21v-3.3h.1c.53,0,.8.23.8.7v4c0,.4-.1.5-.5.5h-2.4c-.5,0-.6-.2-.6-.6v-.3Z"/><path class="cls-16" d="m191.91,177.55h1.6c.49.06.94-.29,1-.79,0-.07,0-.14,0-.21v-3.3h.1c.53,0,.8.23.8.7v4c0,.4-.1.5-.5.5h-2.4c-.5,0-.6-.2-.6-.6v-.3Z"/><path class="cls-49" d="m193.61,185.35h1.4c.3,0,.4,0,.3.4v14.9c0,.3,0,.4-.3.4h-14.9c-.3,0-.4,0-.3-.4v-14.9c0-.3,0-.4.3-.4h13.5Zm-10.4,10.4v1.3c0,.4.1.4.5.4h7.7c.4,0,.5-.1.5-.5v-6.5c0-.5.2-1.2-.1-1.6s-1.1,0-1.6,0h-6.5c-.3,0-.4,0-.4.4v6.5h-.1Z"/><path class="cls-38" d="m195.31,199.15v-1.7h8.5c.7,0,1,.3,1,1v3.9c0,1.3,0,.4.3.5.89.43,1.47,1.31,1.5,2.3,0,1.2-.83,2.23-2,2.5-1.08.32-2.23-.13-2.8-1.1-.28-.45-.46-.97-.5-1.5-.07-1.01.54-1.95,1.5-2.3.19-.1.3-.29.3-.5v-2.6c0-.5,0-.6-.6-.6h-7.2v.1Zm9.5,6.1c0-.5-.4-.9-.9-.9s-.9.4-.9.9.4.9.9.9h0c.45,0,.81-.38.8-.84,0-.02,0-.04,0-.06h.1,0Z"/><path class="cls-38" d="m195.31,195.75v-1.7h10c.4,0,.6,0,.8-.4.72-1.25,2.32-1.67,3.57-.95.99.58,1.49,1.73,1.23,2.85-.22.91-.91,1.63-1.8,1.9-1.13.33-2.33-.17-2.9-1.2-.2-.4-.4-.4-.8-.4h-10l-.1-.1Zm13-1.7c-.5,0-.9.4-.9.9s.4.9.9.9.9-.4.9-.9h0c0-.45-.38-.81-.84-.8-.02,0-.04,0-.06,0h0v-.1Z"/><path class="cls-9" d="m214.41,202.65c0,.6-.27.9-.8.9h-2.2c-.3,0-.5,0-.5-.4v-2.6c0-.4.1-.5.5-.4h2.4c.5,0,.7.1.6.6v1.9Z"/><path class="cls-9" d="m219.61,200.05h1.4c.3,0,.4,0,.4.4v2.8c0,.3-.1.4-.4.4h-2.2c-.44.06-.84-.25-.9-.69,0-.07,0-.14,0-.21v-1.7c-.06-.44.25-.84.69-.9.07,0,.14,0,.21,0h.9l-.1-.1Z"/><path class="cls-44" d="m193.61,185.35h-1.7v-4c0-.3,0-.4.4-.4q1.4,0,1.4,1.3v3l-.1.1Z"/><path class="cls-44" d="m179.71,187.05v1.7h-3.9c-.3,0-.4,0-.4-.4q0-1.4,1.3-1.4h3v.1Z"/><path class="cls-44" d="m195.31,188.75v-1.7h3.9c.3,0,.4,0,.4.4q0,1.4-1.3,1.4h-3v-.1Z"/><path class="cls-44" d="m179.71,190.55v1.7h-3.9c-.3,0-.4,0-.4-.4q0-1.4,1.3-1.4h3v.1Z"/><path class="cls-44" d="m195.31,192.25v-1.7h3.9c.3,0,.4,0,.4.4q0,1.4-1.3,1.4h-3v-.1Z"/><path class="cls-44" d="m179.71,194.05v1.7h-3.9c-.3,0-.4,0-.4-.4q0-1.4,1.3-1.4h3v.1Z"/><path class="cls-44" d="m179.71,197.45v1.7h-3.9c-.3,0-.4,0-.4-.4q0-1.4,1.3-1.4h3v.1Z"/><path class="cls-44" d="m183.21,185.35h-1.7v-4c0-.3,0-.4.4-.4q1.4,0,1.4,1.3v3l-.1.1Z"/><path class="cls-44" d="m186.71,185.35h-1.7v-4c0-.3,0-.4.4-.4q1.4,0,1.4,1.3v3l-.1.1Z"/><path class="cls-44" d="m181.51,200.95h1.7v4.3h-1.7v-4.3Z"/><path class="cls-44" d="m190.11,185.35h-1.7v-4c0-.3,0-.4.4-.4q1.4,0,1.4,1.3v3l-.1.1Z"/><path class="cls-44" d="m217.91,200.95v1.7h-3.5v-1.7h3.5Z"/><path class="cls-30" d="m195.31,199.15h7.2c.5,0,.6.2.6.6v2.6c0,.2,0,.4-.3.5-.89.43-1.47,1.31-1.5,2.3h-7.8v-4.3h1.4c.3,0,.4,0,.3-.4v-1.4l.1.1Z"/><path class="cls-30" d="m183.21,205.25v-4.3h1.8v4.3h-1.8Z"/><path class="cls-44" d="m185.01,205.25v-4.3h1.7v4.3h-1.7Z"/><path class="cls-30" d="m186.71,205.25v-4.3h1.8v4.3h-1.8Z"/><path class="cls-44" d="m188.41,205.25v-4.3h1.7v4.3h-1.7Z"/><path class="cls-44" d="m193.61,200.95v4.3h-1.7v-4.3h1.7Z"/><path class="cls-30" d="m191.91,200.95v4.3h-1.8v-4.3h1.8Z"/><path class="cls-47" d="m217.01,193.15c-.5,0-.9-.4-.9-.9s.4-.9.9-.9.9.4.9.9h0c0,.45-.38.81-.84.8-.02,0-.04,0-.06,0v.1Z"/><path class="cls-47" d="m204.01,181.85c.5,0,.9.4.9.9s-.4.9-.9.9-.9-.4-.9-.9h0c-.02-.42.3-.79.73-.81.06,0,.12,0,.17.01h0v-.1Z"/><path class="cls-65" d="m183.21,195.75v-6.5c0-.3,0-.4.4-.4h6.5v4.1c.1,1.44-.98,2.7-2.43,2.8-.12,0-.25,0-.37,0h-4.1Z"/><path class="cls-16" d="m183.21,195.75h4.1c1.44.1,2.7-.98,2.8-2.43,0-.12,0-.25,0-.37v-4.1c.6,0,1.3-.2,1.6,0s.1,1,.1,1.6v6.5c0,.4-.1.5-.5.5h-7.7c-.3,0-.5,0-.5-.4v-1.3h.1Z"/><path class="cls-47" d="m204.91,205.25c.03.47-.33.87-.8.9-.47.03-.87-.33-.9-.8-.03-.47.33-.87.8-.9h0c.46-.01.86.34.9.8Z"/><path class="cls-47" d="m208.31,193.95c.5,0,.9.4.9.9s-.4.9-.9.9-.9-.4-.9-.9h0c0-.5.4-.9.9-.9Z"/><circle class="cls-1" cx="110" cy="80.34" r="45"/><path class="cls-10" d="m88.4,113.04l-1.8-1.8c-.2-.18-.31-.43-.3-.7v-38.22c-.04-.33.07-.66.3-.9.9-1,1.9-1.9,2.8-2.9.15-.18.37-.29.6-.3h37.8c.2,0,.4,0,.5.2l1.8,1.8v38.7c.02.35-.13.68-.4.9-.8.8-1.6,1.7-2.4,2.5-.25.3-.61.48-1,.5h-37.4c-.21-.02-.41.02-.6.1l.1.12Zm13.7-4.5h2.5v1.9q0,1.1,1.1,1.1c.3,0,.4-.1.4-.4v-2.6h2.5v1.9q0,1.1,1.1,1.1c.3,0,.4-.1.4-.4v-2.6h2.5v1.9q0,1.1,1.1,1.1c.3,0,.4,0,.4-.4v-2.7h2.5v2q0,1.1,1.1,1.1c.4,0,.5-.1.5-.5v-2.6h2.5v1.88q0,1.2,1.2,1.1c.3,0,.4-.1.4-.4v-2.6h2.5v1.9q0,1.2,1.2,1.1c.3,0,.4,0,.4-.4v-2.6c.2,0,.4,0,.4-.3h1.8q1.1,0,1.1-1.1c0-.3-.1-.4-.4-.4h-2.5v-2.5h1.8q1.1,0,1.1-1.1c0-1.1-.1-.5-.4-.5h-2.5v-2.5h1.8c1.3,0,1.1.2,1.1-1.1,0-.3,0-.4-.4-.4h-2.5v-2.5h1.8c1.3,0,1.1.2,1.1-1.1,0-.3-.1-.4-.4-.4h-2.5v-2.5h1.8c1.3,0,1.1.2,1.1-1.1,0-.3-.1-.4-.4-.4h-2.5v-2.5h1.8q1.2,0,1.1-1.2c0-.3-.1-.3-.4-.3h-2.6v-2.5h1.8q1.2,0,1.1-1.2c0-.3-.1-.3-.4-.3h-2.6v-2.5h1.8q1.2,0,1.1-1.2c0-.3-.1-.3-.4-.3h-2.6v-2.5h1.8q1.2,0,1.1-1.2c0-.3-.1-.3-.4-.3h-2.6c0-.3-.1-.4-.4-.4v-1.8q0-1.2-1.2-1.1c-.3,0-.3.1-.3.4v2.6h-2.5v-1.8q0-1.2-1.2-1.1c-.3,0-.3.1-.3.4v2.6h-2.5v-1.8q0-1.2-1.2-1.1c-.3,0-.3.1-.3.4v2.6h-2.5v-1.8q0-1.2-1.2-1.1c-.3,0-.3.1-.3.4v2.6h-2.5v-1.8q0-1.2-1.2-1.1c-.3,0-.3.1-.3.4v2.6h-2.5v-1.9q0-1.2-1.2-1.1c-.3,0-.3.1-.3.4v2.6h-2.5v-1.9q0-1.2-1.2-1.1c-.3,0-.3.1-.3.4v2.6h-2.5v-1.9c0-1.2,0-1.1-1.2-1.1-.3,0-.3.1-.3.4v2.6h-2.5v-1.9c0-1.2,0-1.1-1.2-1.1-.3,0-.3.1-.3.4v2.6h-.6c-.3,0-.4,0-.4.4h-1.2q-1.2,0-1.1,1.2c-.02.15.09.28.24.3.02,0,.04,0,.06,0h2v2.5h-1.2q-1.2,0-1.1,1.2c-.02.15.09.28.24.3.02,0,.04,0,.06,0h2v2.5h-1.2q-1.2,0-1.1,1.2c-.02.15.09.28.24.3.02,0,.04,0,.06,0h2v2.5h-1.2q-1.2,0-1.1,1.2c0,.3.1.3.3.3h2v2.5h-1.2q-1.2,0-1.2,1.2c0,.2,0,.3.3.3h2v2.5h-1.2q-1.2,0-1.2,1.2c0,.3.1.3.4.3h1.9v2.5h-1.2q-1.2,0-1.2,1.2c0,.3.1.3.4.3h1.9v2.5h-1.2q-1.2,0-1.1,1.2c0,.3.1.3.4.3h1.9v2.5h-1.2q-1.2,0-1.1,1.2c0,.3.1.3.4.3h1.9c0,.2,0,.3.3.3h.7v1.9q0,1.2,1.2,1.1c.3,0,.3-.1.3-.4v-2.7h2.5v1.9q0,1.2,1.2,1.1c.3,0,.3-.1.3-.4v-2.7h2.5v1.9q0,1.1,1.1,1.1c.3,0,.4-.1.4-.4v-2.6l.4-.08Z"/><path class="cls-11" d="m88.4,113.04c.2-.2.4-.1.6-.1h37.4c.39,0,.77-.18,1-.5.8-.9,1.6-1.7,2.4-2.5.27-.22.42-.55.4-.9v-38.72c.5.4.9.9,1.4,1.3.2.2.1.4.1.6v38.4c.04.3-.07.6-.3.8-.9.9-1.8,1.9-2.6,2.8-.15.18-.37.29-.6.3h-38c-.22.03-.44-.05-.6-.2-.39-.37-.76-.78-1.1-1.2l-.1-.08Z"/><path class="cls-12" d="m122.1,74.24h2.9v8.7c.13,3.73.07,7.47-.2,11.2-.16,1.7-.53,3.38-1.1,5-.22.64-.52,1.24-.9,1.8v-21.62c0-.5.2-1.1,0-1.3s-.9,0-1.4,0h-25.5c-.4,0-.5.1-.5.5v25.8c0,.4.1.5.5.5h23.1c-.5.2-.9.5-1.4.7-2.51,1-5.2,1.51-7.9,1.5h-18v-32.28c0-.3,0-.4.4-.4h30.1l-.1-.1Z"/><path class="cls-18" d="m91.6,106.94h18c2.71.05,5.4-.46,7.9-1.5.5-.2.9-.5,1.4-.7h3.5c.3,0,.4,0,.4-.4v-3.4c.42-.53.72-1.15.9-1.8.61-1.6.98-3.29,1.1-5,.3-3.7.1-7.5.2-11.2v-8.7h1.1c.3,0,.4,0,.4.4v33.5c0,.3-.2.3-.4.3h-34.2c-.2,0-.3,0-.3-.3v-1.2Z"/><path class="cls-35" d="m120.5,108.44h1.5v2.6c0,.3,0,.4-.4.4q-1.2,0-1.2-1.1v-1.9h.1Z"/><path class="cls-26" d="m116.5,108.44h1.5v2.6c0,.3,0,.5-.5.5q-1.1,0-1.1-1.1v-1.9l.1-.1Z"/><path class="cls-26" d="m124.5,108.44h1.5v2.6c0,.3,0,.4-.4.4q-1.2,0-1.2-1.1v-1.9h.1Z"/><path class="cls-26" d="m118.1,74.24h-1.5v-2.6c0-.2,0-.4.3-.4q1.2,0,1.2,1.1v1.9Z"/><path class="cls-35" d="m122.1,74.24h-1.5v-2.6c0-.2,0-.3.3-.4q1.2,0,1.2,1.1v1.9Z"/><path class="cls-26" d="m126.1,74.24h-1.5v-2.6c0-.2,0-.3.3-.4q1.2,0,1.2,1.1v1.9Z"/><path class="cls-26" d="m126.5,100.14v-1.5h2.5c.3,0,.4.1.4.4,0,1.4.2,1.1-1.1,1.1h-1.8Z"/><path class="cls-26" d="m126.5,92.14v-1.5h2.5c.3,0,.4.1.4.4,0,1.4.2,1.1-1.1,1.1h-1.8Z"/><path class="cls-26" d="m126.5,96.14v-1.5h2.5c.3,0,.4.1.4.4,0,1.4.2,1.1-1.1,1.1h-1.8Z"/><path class="cls-26" d="m126.5,104.14v-1.5h2.5c.3,0,.4.1.4.5q0,1.1-1.1,1.1h-1.8v-.1Z"/><path class="cls-59" d="m92.6,108.44h1.5v2.7c0,.2,0,.4-.3.4q-1.2,0-1.2-1.1v-2Z"/><path class="cls-59" d="m96.6,108.44h1.5v2.7c0,.2,0,.4-.3.4q-1.2,0-1.2-1.1v-2Z"/><path class="cls-59" d="m104.6,108.44h1.5v2.6c0,.3,0,.4-.4.4q-1.1,0-1.1-1.1v-1.9Z"/><path class="cls-26" d="m108.5,108.44h1.5v2.6c0,.3,0,.4-.4.4q-1.1,0-1.1-1.1v-1.9Z"/><path class="cls-26" d="m112.5,108.44h1.5v2.7c0,.3,0,.4-.4.4q-1.1,0-1.1-1.1v-2Z"/><path class="cls-59" d="m100.6,108.44h1.5v2.6c0,.3,0,.4-.4.4q-1.1,0-1.1-1.1v-1.9Z"/><path class="cls-26" d="m126.5,88.14v-1.5h2.6c.2,0,.3,0,.4.3q0,1.2-1.1,1.2h-1.9Z"/><path class="cls-59" d="m126.5,80.14v-1.5h2.6c.2,0,.3,0,.4.3q0,1.2-1.1,1.2h-1.9Z"/><path class="cls-59" d="m126.5,84.14v-1.5h2.6c.2,0,.3,0,.4.3q0,1.2-1.1,1.2h-1.9Z"/><path class="cls-59" d="m126.5,76.14v-1.5h2.6c.2,0,.3,0,.4.3q0,1.2-1.1,1.2h-1.9Z"/><path class="cls-26" d="m114,74.24h-1.5v-2.6c0-.2,0-.4.3-.4q1.2,0,1.2,1.1v1.9Z"/><path class="cls-59" d="m106,74.24h-1.5v-2.6c0-.2,0-.4.3-.4q1.2,0,1.2,1.1v1.9Z"/><path class="cls-26" d="m126.5,108.14v-1.5h2.5c.3,0,.4,0,.4.4q0,1.1-1.1,1.1h-1.8Z"/><path class="cls-59" d="m110,74.24h-1.5v-2.6c0-.2,0-.3.3-.4q1.2,0,1.2,1.1v1.9Z"/><path class="cls-59" d="m102,74.24h-1.5v-2.6c0-.2,0-.4.3-.4q1.2,0,1.2,1.1v1.9Z"/><path class="cls-13" d="m98,74.24h-1.5v-2.6c0-.2,0-.4.3-.4q1.2,0,1.2,1.1v1.9Z"/><path class="cls-13" d="m94,74.24h-1.5v-2.6c0-.2,0-.4.3-.4q1.2,0,1.2,1.1v1.9Z"/><path class="cls-26" d="m91.5,94.64v1.5h-1.9c-.2,0-.4,0-.4-.3q0-1.2,1.2-1.2h1.1,0Z"/><path class="cls-26" d="m91.5,98.64v1.5h-1.9c-.2,0-.4,0-.4-.3q0-1.2,1.2-1.2h1.1,0Z"/><path class="cls-26" d="m91.5,102.64v1.5h-1.9c-.2,0-.4,0-.4-.3q0-1.2,1.1-1.2h1.2Z"/><path class="cls-26" d="m91.5,90.64v1.5c-.67.05-1.33.05-2,0-.2,0-.3,0-.3-.3q0-1.2,1.2-1.2h1.1Z"/><path class="cls-59" d="m91.5,82.64v1.5h-2c-.2,0-.3,0-.3-.3q0-1.2,1.1-1.2h1.2Z"/><path class="cls-59" d="m91.5,78.64v1.5h-2c-.2,0-.3,0-.3-.3q0-1.2,1.1-1.2h1.2Z"/><path class="cls-13" d="m91.5,74.64v1.5h-2c-.2,0-.3,0-.3-.3q0-1.2,1.1-1.2h1.2Z"/><path class="cls-59" d="m91.5,86.64v1.5h-2c-.2,0-.3,0-.3-.3q0-1.2,1.1-1.2h1.2Z"/><path class="cls-26" d="m91.6,106.94v1.2h-2c-.2,0-.3,0-.4-.3q0-1.2,1.1-1.2h1.2v.3h.1Z"/><path class="cls-13" d="m95.3,103.24v-24.8c0-.4.1-.5.5-.5h25.5v4.5c0,3.2.1,6.5,0,9.7-.05,1.31-.35,2.6-.9,3.8-.67,1.8-1.81,3.39-3.3,4.6-2.34,1.73-5.19,2.65-8.1,2.6h-13.6l-.1.1Zm14.4-5.2h2.2v2.7q0,1.1,1.1,1.1c.3,0,.4-.1.4-.4v-3.4h2.3c.3,0,.4,0,.4-.4v-1.8h2.2q1.1,0,1.1-1.1c0-.3-.1-.4-.4-.4h-2.9v-2.2h2.2q1.1,0,1.1-1.1c0-.3-.1-.4-.4-.4h-2.9v-2.2h2.2q1.1,0,1.1-1.1c0-.3-.1-.4-.4-.4h-2.9v-1.9c0-.3,0-.4-.3-.4h-2.4v-2.6q0-1.1-1.1-1.1c-.3,0-.4,0-.4.4v3.3h-2.2v-2.6q0-1.1-1.1-1.1c-.3,0-.4,0-.4.4v3.3h-2.2v-2.6q0-1.1-1.1-1.1c-.3,0-.4,0-.4.4v3.3h-2.1c-.3,0-.4,0-.4.4v1.9h-2.3q-1.1,0-1.1,1.1c0,.3.1.4.4.4h3.1v2.2h-2.3q-1.1,0-1.1,1.1c0,.3.1.4.4.4h3.1v2.18h-2.3q-1.1,0-1.1,1.1c0,.3.1.4.4.4h3.1v1.9q0,.3.4.3h2.2v2.7q0,1.1,1.1,1.1c.3,0,.4-.1.4-.4v-3.4h2.2v2.7q0,1.1,1.1,1.1c.3,0,.4-.1.4-.4v-3.4l-.4.02Z"/><path class="cls-20" d="m95.3,103.24h13.6c2.92.09,5.78-.82,8.1-2.6,1.52-1.19,2.66-2.78,3.3-4.6.5-1.21.8-2.49.9-3.8.2-3.2,0-6.5,0-9.7v-4.5c.5,0,1.1-.2,1.4,0s0,.9,0,1.3v24.98c0,.3,0,.4-.4.4h-26.6c-.4,0-.6,0-.5-.5v-1l.2.02Z"/><path class="cls-53" d="m101.9,86.94v-1.9c0-.3,0-.4.4-.4h12.2c0,2.4.1,4.8-.1,7.1-.06,1.14-.56,2.22-1.4,3v-6.8c0-.3,0-.5-.4-.4h-7.4q-.3,0-.3.3v6.6c0,.4.1.5.5.5h7.4c-.08.18-.22.32-.4.4-1.05.75-2.31,1.14-3.6,1.1h-6.8v-9.6l-.1.1Z"/><path class="cls-23" d="m102,96.54h6.8c1.29.04,2.55-.35,3.6-1.1.18-.08.32-.22.4-.4.1,0,.2-.2.3-.3.8-.81,1.29-1.87,1.4-3,.2-2.4,0-4.7.1-7.1h1.2c.3,0,.3.1.3.4v12.6c0,.3-.1.4-.4.4h-13.4c-.3,0-.4,0-.4-.3v-1.2h.1Z"/><path class="cls-21" d="m111.9,98.04h1.5v3.4c0,.3,0,.4-.4.4q-1.1,0-1.1-1.1v-2.7Z"/><path class="cls-51" d="m108.2,98.04h1.5v3.4c0,.3,0,.4-.4.4q-1.1,0-1.1-1.1v-2.7Z"/><path class="cls-21" d="m104.5,98.04h1.5v3.4c0,.3,0,.4-.4.4q-1.1,0-1.1-1.1v-2.7Z"/><path class="cls-21" d="m105.9,84.64h-1.5v-3.32c0-.3,0-.4.4-.4q1.1,0,1.1,1.1v2.62Z"/><path class="cls-21" d="m109.7,84.64h-1.5v-3.32c0-.3,0-.4.4-.4q1.1,0,1.1,1.1v2.62Z"/><path class="cls-12" d="m113.4,84.64h-1.5v-3.32c0-.3,0-.4.4-.4q1.1,0,1.1,1.1v2.62Z"/><path class="cls-12" d="m101.9,94.32v1.5h-3.1c-.3,0-.4,0-.4-.4q0-1.1,1.1-1.1h2.4Z"/><path class="cls-12" d="m101.9,90.64v1.5h-3.1c-.3,0-.4,0-.4-.4q0-1.1,1.1-1.1h2.4Z"/><path class="cls-21" d="m101.9,86.94v1.5h-3.1c-.3,0-.4,0-.4-.4q0-1.1,1.1-1.1h2.4Z"/><path class="cls-51" d="m116.1,92.14v-1.5h2.9c.3,0,.4,0,.4.4q0,1.1-1.1,1.1h-2.2Z"/><path class="cls-51" d="m116.1,88.44v-1.5h2.9c.3,0,.4,0,.4.4q0,1.1-1.1,1.1h-2.2Z"/><path class="cls-12" d="m116.1,95.84v-1.52h2.9c.3,0,.4,0,.4.4q0,1.1-1.1,1.1l-2.2.02Z"/><path class="cls-28" d="m104.9,93.64v-5.6q0-.3.3-.3h6.3v3.1c.04.58-.14,1.15-.5,1.6-.61.81-1.59,1.27-2.6,1.2h-3.5Z"/><path class="cls-29" d="m104.9,93.64h3.6c1.01.07,1.99-.39,2.6-1.2.32-.47.49-1.03.5-1.6v-3.1h1.1c.4,0,.4.1.4.4v6.8c0,.1-.2.2-.3.3h-7.4c-.4,0-.6,0-.5-.5v-1.1h0Z"/><path d="m85.2,57.32c-2.05-3.07-1.23-7.23,1.85-9.28.12-.08.23-.15.35-.22,1.95-1.27,4.41-1.42,6.5-.4l-1.4,2.7c-1.11-.58-2.46-.51-3.5.2-1.77.94-2.45,3.15-1.5,4.92.09.17.19.33.3.48.93,1.8,3.14,2.51,4.94,1.58.16-.08.31-.18.46-.28,1.08-.62,1.76-1.76,1.8-3h3c-.05,2.26-1.26,4.34-3.2,5.5-3.1,2.05-7.28,1.19-9.32-1.92-.06-.09-.12-.19-.18-.28h-.1Z"/><path d="m107.9,49.14l1.1,5.7-2.8.5-1-5.3c-.02-.82-.7-1.48-1.52-1.46-.13,0-.25.02-.38.06-.94.13-1.59.99-1.46,1.93.01.09.03.18.06.27l.9,5.1-2.8.5-2.4-13.12,2.8-.5.9,4.6c.51-.92,1.45-1.52,2.5-1.6,1.9-.4,3.7.7,4.2,3.2l-.1.12Z"/><path d="m110.7,45.64l2.8.2-.5,9.48-2.8-.2.5-9.48Zm-.1-2.6c.06-.94.86-1.65,1.8-1.59.94.06,1.65.86,1.59,1.8-.06.93-.86,1.65-1.79,1.59-.93-.05-1.65-.84-1.6-1.77,0,0,0-.02,0-.03h0Z"/><path d="m125.6,53.64c-.62,2.52-3.16,4.05-5.68,3.43-.04-.01-.08-.02-.12-.03-1.05-.29-1.93-1.02-2.4-2l-1.4,4.5-2.7-.9,4-12.7,2.7.9-.3.9c.91-.51,2-.62,3-.3,2.42.83,3.71,3.46,2.88,5.88-.03.07-.05.15-.08.22l.1.1Zm-2.7-.9c.44-1.12-.11-2.37-1.23-2.81-.09-.03-.18-.06-.27-.09-1.09-.41-2.31.14-2.72,1.23-.03.09-.06.18-.08.27-.44,1.12.11,2.37,1.23,2.81.09.03.18.06.27.09,1.17.41,2.45-.2,2.86-1.37.02-.04.03-.09.04-.13h-.1Z"/><path d="m132.2,60.54c-1.2,1.8-3.3,1.5-5,.3-1.48-.85-2.3-2.51-2.1-4.2l2.8.3c-.24.69.06,1.45.7,1.8.6.4,1,.4,1.2.1.6-.9-3.5-3.1-1.7-5.8,1.2-1.7,3.2-1.6,4.8-.4,1.28.82,2.01,2.28,1.9,3.8l-2.7-.3c0-.6,0-1.1-.6-1.4-.4-.3-.8-.3-1,0-.6.9,3.6,3,1.6,5.9l.1-.1Z"/><circle class="cls-2" cx="294" cy="80.34" r="45"/><path class="cls-14" d="m308.6,68.04c3.8-.3,7.5,3.6,7.4,7.4-.1,3.8,0,7.8,0,11.7v21.1c.08.83-.17,1.65-.7,2.3h-10.8c-.94.03-1.88-.03-2.8-.2-6.4-.87-12.31-3.86-16.8-8.5h18c2.8,0,2.9-.1,2.9-2.9v-2.9h4.6c.58.09,1.12-.3,1.22-.88.02-.14.02-.29-.02-.42v-6.7c0-.6-.2-.8-.8-.8h-5.1v-4.2c.13-.81-.43-1.57-1.25-1.7-.15-.02-.3-.02-.45,0h-22.3c-2.1,0-2.4.3-2.4,2.3v10.5l-.2-.2c-1.79-3.89-2.71-8.12-2.7-12.4v-12.6c.8-.8,1.9-.7,3-.7h29.2v-.2Z"/><path class="cls-17" d="m284.8,101.84c2.44,2.69,5.45,4.8,8.8,6.2,2.54,1.16,5.23,1.93,8,2.3.93.12,1.86.18,2.8.2h10.8c-.8,2.3-2.7,3.5-4.9,4.2-.54.22-1.13.29-1.7.2h-29.3c-4.03,0-7.3-3.27-7.3-7.3,0-.02,0-.05,0-.07v-29.1c-.13-1.5-.07-3.02.2-4.5.6-2.3,1.8-4.2,4.2-5v12.6c-.01,4.28.91,8.51,2.7,12.4l.2.2v6c-.13.81.43,1.57,1.25,1.7.15.02.3.02.45,0l3.8-.03Z"/><path class="cls-39" d="m282.3,81.34h17.6c-1,2.4-2,4.7-3,7.1-1.4,3.4-2.9,6.8-4.3,10.2l-.3.4c-.67-.26-1.4-.33-2.1-.2-4.11.2-7.6-2.97-7.8-7.08-.01-.24-.01-.48,0-.72v-9.8l-.1.1Z"/><path class="cls-25" d="m292.5,98.64c1.4-3.4,2.9-6.8,4.3-10.2,1-2.4,2-4.7,3-7.1h4.2c1.2,0,1.7.5,1.7,1.7v15.9h-12.2c-.3,0-.7.1-1-.2v-.1Z"/><path class="cls-36" d="m282.3,81.34v9.8c-.2,4.11,2.97,7.6,7.08,7.8.24.01.48.01.72,0,.7,0,1.5-.2,2.1.2-.3.9-.7,1.8-1,2.7h-10.1c-.81.13-1.57-.43-1.7-1.25-.02-.15-.02-.3,0-.45v-16.5c0-2,.3-2.4,2.4-2.3h.5Z"/><path class="cls-52" d="m291.2,101.74c.3-.9.7-1.8,1-2.7.1-.1.2-.3.3-.4.3.3.7.2,1,.2h12.2c0,2.8,0,2.9-2.9,2.9h-11.6Z"/><path class="cls-25" d="m307.2,87.14h3.6c.6,0,.8.2.8.8v6.5c-2.33.1-4.3-1.7-4.41-4.03,0-.16,0-.32,0-.47.05-.93.04-1.87,0-2.8Z"/><path class="cls-52" d="m307.2,87.14v2.8c-.16,2.33,1.6,4.34,3.93,4.49.16.01.32.01.47,0v.2c0,.86-.4,1.3-1.2,1.3h-4.6v-8.8h1.4Z"/><path d="m253.5,78.24l.7-2.4,7.6.3-6.5-4,.5-1.9h7.6l-6.6-3.7.7-2.4,9.3,5.6-.7,2.6h-6.4l5.5,3.3-.7,2.6h-11Z"/><path d="m266.2,57.24l6.1,4.4-1.3,1.8-.6-.4c.17.85-.05,1.73-.6,2.4-1.28,1.63-3.64,1.91-5.27.63-.01,0-.02-.02-.03-.03-1.73-1.09-2.25-3.37-1.16-5.1.02-.03.04-.07.06-.1.46-.69,1.18-1.16,2-1.3l-.6-.4,1.3-1.8.1-.1Zm1.7,4c-.66-.6-1.69-.55-2.29.11-.08.09-.15.19-.21.29-.58.71-.47,1.74.23,2.32.08.07.17.13.27.18.66.6,1.69.55,2.29-.11.08-.09.15-.19.21-.29.58-.71.47-1.74-.23-2.32-.08-.07-.17-.13-.27-.18Z"/><path d="m271.8,55.04l1.8,2c.4.5.9.2,1.6-.5l1.3,1.5c-2,2.2-3.2,2.1-4.6.5l-1.8-2-.9.8-1.4-1.6.9-.8-.9-1.1,1.2-2,1.4,1.6,1.2-1,1.4,1.6-1.2,1Z"/><path d="m274.7,54.57c-1.03-1.96-.27-4.37,1.69-5.4,1.16-.61,2.55-.61,3.71,0l-1.1,2c-.53-.3-1.17-.3-1.7,0-.82.5-1.09,1.57-.6,2.4.44.83,1.47,1.14,2.3.7h0c.57-.26.9-.88.8-1.5h2.3c-.02,1.41-.78,2.7-2,3.4-1.84,1.11-4.24.52-5.35-1.32-.02-.03-.03-.05-.05-.08v-.2Z"/><path d="m289,47.74l1.2,4.4-2.2.6-1.1-4.1c-.08-.66-.68-1.14-1.34-1.06-.09.01-.17.03-.26.06-.8.2-1.2.8-.9,1.9l1.1,3.9-2.2.6-2.8-10.1,2.2-.6,1,3.6c.35-.74,1.01-1.29,1.8-1.5,1.46-.43,3,.41,3.43,1.87.03.11.06.22.07.33v.1Z"/><path d="m303,48.94c-.17,2.06-1.94,3.6-4,3.5-.86-.02-1.65-.47-2.1-1.2v.7l-2.3-.3,1.2-10.4,2.2.3-.4,3.7c.63-.55,1.47-.81,2.3-.7,2,.27,3.4,2.11,3.13,4.1,0,.07-.02.13-.03.2v.1Zm-2.2-.3c.17-.92-.43-1.8-1.35-1.97-.08-.02-.17-.02-.25-.03-.95-.15-1.84.51-1.98,1.46,0,.05-.01.1-.02.14-.17.92.43,1.8,1.35,1.97.08.02.17.02.25.03.95.15,1.84-.51,1.98-1.46,0-.05.01-.1.02-.14Z"/><path d="m313.1,49.04l-2.9,6.9-2.1-.9.3-.6c-.76.35-1.64.35-2.4,0-1.85-.91-2.64-3.12-1.8-5,.69-1.92,2.8-2.92,4.72-2.23.03,0,.05.02.08.03.79.29,1.41.91,1.7,1.7l.3-.6,2.1.9v-.2Zm-3.5,2.6c.42-.9.02-1.97-.88-2.39,0,0-.02,0-.02-.01-.93-.39-2,.05-2.39.98,0,0,0,.01,0,.02-.42.9-.02,1.97.88,2.39,0,0,.02,0,.02.01.93.39,2-.05,2.39-.98,0,0,0-.01,0-.02Z"/><path d="m316.5,53.94l-1.6,2.1c-.4.5,0,.9.9,1.4l-1.2,1.6c-2.5-1.5-2.7-2.7-1.5-4.4l1.6-2.1-1-.7,1.3-1.7,1,.7.8-1.1,2.2.8-1.2,1.7,1.2.9-1.3,1.7-1.2-.9Z"/><path d="m320.8,57.94l-1.9,1.9c-.5.5-.1.9.6,1.6l-1.5,1.4c-2.3-1.9-2.2-3.1-.7-4.6l1.9-1.9-.8-.9,1.5-1.5.8.9,1-1,2.1,1.1-1.5,1.5,1.1,1.1-1.5,1.5-1.1-1.1Z"/><path d="m322.1,65.44c.29.47.76.79,1.3.9v2.1c-1.26-.07-2.4-.79-3-1.9-1.28-1.66-.97-4.05.7-5.33.13-.1.26-.19.4-.27,1.79-1.18,4.19-.69,5.38,1.1.04.07.08.13.12.2,1.13,1.72.66,4.02-1.06,5.15-.08.05-.16.1-.24.15-.25.17-.51.31-.8.4l-2.8-4.5c-.45.63-.45,1.47,0,2.1v-.1Zm3-.3c.5-.55.58-1.36.2-2-.36-.69-1.18-.99-1.9-.7l1.7,2.7Z"/><path d="m331.4,71.84l-2.4.9c-.11-.99-.99-1.7-1.98-1.6-.14.02-.28.05-.42.1l-3.2,1.2-.8-2.1,7.1-2.6.8,2.1-1.3.5c.99.05,1.85.68,2.2,1.6v-.1Z"/><path d="m332.8,81.14l-7.6-1.5c-2.5-.5-3.6-1.7-3.8-3.8l2.1-.3c-.03.87.63,1.62,1.5,1.7l6.7-3.9.3,2.5-4.3,2.3,4.7.8.3,2.4.1-.2Z"/><circle class="cls-2" cx="65.02" cy="181.55" r="45"/><path class="cls-34" d="m40.22,172.85v-7.4c0-.3,0-.4.4-.4h11.1v2.2q0,.8.8.8h24.9c.5,0,.6-.2.6-.6v-2.4h11.3c.11.18.18.39.2.6v6.8c.04.29-.16.56-.45.6-.05,0-.1,0-.15,0h-1.4c-1.07.27-1.72,1.36-1.45,2.43.19.75.79,1.32,1.55,1.47h1.38q.6,0,.6.7v24.3c0,.6,0,.7-.7.7h-1.4c-1.07.05-1.9.93-1.9,2,0,1.05.85,1.9,1.9,1.9h1.4c.6,0,.7,0,.7.7v6.6c0,.2,0,.5-.2.6h-11.28v-2.4c.04-.29-.16-.56-.45-.6-.05,0-.1,0-.15,0h-25.2c-.5,0-.6.2-.6.6v2.4h-11.1c-.3,0-.4,0-.4-.4v-7.6h2c1.05,0,1.9-.85,1.9-1.9.04-1.06-.78-1.95-1.84-2-.02,0-.04,0-.06,0h-1.4c-.2,0-.5,0-.6-.2v-25.3c.18-.11.39-.18.6-.2h1.4c1.1-.05,1.95-.99,1.9-2.1,0,0,0,0,0,0-.04-.99-.81-1.8-1.8-1.9h-1.4c-.2,0-.5,0-.6-.2l-.1.2Zm40.6,19.3h1.8c.6,0,.8-.3.8-.7,0-.39-.32-.71-.71-.71-.03,0-.06,0-.09,0h-1.8v-1.7h1.8c.6,0,.9-.3.9-.7s-.3-.7-.9-.7h-1.8v-1.7h1.8c.39.07.75-.19.82-.58s-.19-.75-.58-.82c-.08-.01-.16-.01-.24,0h-1.8v-1.7h1.8c.6,0,.8-.3.8-.7,0-.39-.32-.71-.71-.71-.03,0-.06,0-.09,0h-1.8v-1.7h1.8c.6,0,.8-.3.8-.7,0-.39-.32-.71-.71-.71-.03,0-.06,0-.09,0h-1.8v-1.7h1.8c.6,0,.9-.3.9-.7s-.3-.7-.9-.7h-1.8c0-1.3,0-1.2-1.2-1.2v-1.8c0-.6-.3-.8-.7-.8-.39,0-.71.32-.71.71,0,.03,0,.06,0,.09v1.8h-1.7v-1.8c0-.6-.3-.9-.7-.9s-.7.3-.7.9v1.8h-1.7v-1.8c0-.6-.3-.9-.7-.9s-.7.3-.7.9v1.8h-1.7v-1.8c0-.6-.3-.9-.7-.9s-.7.3-.7.9v1.8h-1.7v-1.8c0-.6-.3-.9-.7-.9-.39,0-.71.32-.71.71,0,.03,0,.06,0,.09v1.8h-1.7v-1.8c0-.6-.3-.9-.7-.9s-.7.3-.7.9v1.8h-1.72v-1.8c0-.6-.3-.9-.7-.9s-.7.3-.7.9v1.8h-1.7v-1.8c0-.6-.3-.9-.7-.9s-.7.3-.7.9v1.8h-1.7v-1.8c0-.6-.3-.9-.7-.9s-.7.3-.7.9v1.8h-1.7v-1.8c0-.6-.3-.9-.7-.9s-.7.3-.7.9v1.8c-1.2,0-1.1,0-1.1,1.2h-1.8c-.6,0-.9.3-.8.7.04.41.39.72.8.7h1.8v1.7h-1.8c-.6,0-.9.3-.9.7s.3.7.9.7h1.8v1.7h-1.8c-.6,0-.9.3-.9.7s.3.7.9.7h1.8v1.7h-1.9c-.44-.05-.84.26-.9.7,0,.4.3.7.9.7h1.9v1.7h-1.8c-.6,0-.8.3-.8.7,0,.39.32.71.71.71.03,0,.06,0,.09,0h1.8v1.7h-1.8c-.6,0-.9.3-.9.7s.3.7.9.7h1.8v1.7h-1.8c-.6,0-.9.3-.9.7s.3.7.9.7h1.8v1.7h-1.8c-.6,0-.8.3-.8.7,0,.39.32.71.71.71.03,0,.06,0,.09,0h1.8v1.7h-1.8c-.6,0-.8.3-.8.7,0,.39.32.71.71.71.03,0,.06,0,.09,0h1.8v1.7h-1.8c-.6,0-.9.3-.9.7s.3.7.9.7h1.8c0,1.2,0,1.1,1.2,1.2v1.8c0,.6.3.8.7.8.39,0,.71-.32.71-.71,0-.03,0-.06,0-.09v-1.8h1.7v1.8c0,.6.3.9.7.9s.7-.3.7-.9v-1.8h1.7v1.8c0,.6.3.9.7.9s.7-.3.7-.9v-1.8h1.7v1.8c0,.6.3.8.7.8.39,0,.71-.32.71-.71,0-.03,0-.06,0-.09v-1.8h1.7v1.8c0,.6.3.8.7.8.39,0,.71-.32.71-.71,0-.03,0-.06,0-.09v-1.8h1.7v1.8c0,.6.3.9.7.9s.7-.3.7-.9v-1.8h1.7v1.8c0,.6.3.8.7.8.39,0,.71-.32.71-.71,0-.03,0-.06,0-.09v-1.8h1.7v1.8c0,.6.3.8.7.8.39,0,.71-.32.71-.71,0-.03,0-.06,0-.09v-1.8h1.7v1.8c0,.6.3.8.7.8.39,0,.71-.32.71-.71,0-.03,0-.06,0-.09v-1.8h1.7v1.8c0,.6.3.9.7.9s.7-.3.7-.9v-1.8c1.3,0,1.1,0,1.2-1.2h1.8c.6,0,.8-.3.8-.7,0-.39-.32-.71-.71-.71-.03,0-.06,0-.09,0h-1.8v-1.7h1.8c.6,0,.9-.3.9-.7s-.3-.7-.9-.7h-1.8v-1.7h1.8c.6,0,.9-.3.9-.7s-.3-.7-.9-.7h-1.8v-1.7h1.8c.6,0,.8-.3.8-.7,0-.39-.32-.71-.71-.71-.03,0-.06,0-.09,0h-1.8v-1.7l-.08.1Zm-36.6-21.7c.82-.02,1.48-.68,1.5-1.5h0c-.03-.8-.7-1.43-1.5-1.4s-1.43.7-1.4,1.5c.05.75.65,1.35,1.4,1.4Zm42.7-1.5c0-.83-.67-1.5-1.5-1.5s-1.5.67-1.5,1.5.67,1.5,1.5,1.5c.8.03,1.47-.6,1.5-1.4,0,0,0,0,0,0h0v-.1Zm-44.1,41.9c0,.83.67,1.5,1.5,1.5s1.5-.67,1.5-1.5h0c-.02-.82-.68-1.48-1.5-1.5h0c-.82.02-1.48.68-1.5,1.5Zm44.1,0c-.02-.82-.68-1.48-1.5-1.5h0c-.83,0-1.5.67-1.5,1.5s.67,1.5,1.5,1.5,1.5-.67,1.5-1.5Z"/><path class="cls-27" d="m75,168.05h-22.48q-.8,0-.8-.8v-2.2h23.4v3h-.12Z"/><path class="cls-27" d="m51.62,214.55v-2.4c-.04-.29.16-.56.45-.6.05,0,.1,0,.15,0h22.7v3h-23.3Z"/><path class="cls-32" d="m75,168.05v-3h3v2.4c.04.29-.16.56-.45.6-.05,0-.1,0-.15,0h-2.4Z"/><path class="cls-32" d="m75.12,214.55v-3h2.4c.29-.04.56.16.6.45,0,.05,0,.1,0,.15v2.4h-3Z"/><path class="cls-24" d="m53.22,205.75h-3.1c-1.2,0-1.1,0-1.2-1.2v-29.5c0-1.2,0-1.1,1.2-1.2h27.6v3.2c-.14-.13-.31-.2-.5-.2h-24.5q-.8,0-.8.8v24.2q0,.8.8.8h24.5c.2,0,.4,0,.5-.2v3.2h-24.5v.1Z"/><path class="cls-33" d="m77.72,177.05v-3.2h1.9c1.3,0,1.1,0,1.2,1.2v29.5c0,1.3,0,1.1-1.2,1.2h-1.8v-28.7h-.1Z"/><path class="cls-31" d="m44.22,170.45c-.82-.08-1.43-.78-1.4-1.6.05-.75.65-1.35,1.4-1.4.83,0,1.5.67,1.5,1.5s-.67,1.5-1.5,1.5Z"/><path class="cls-31" d="m86.92,168.95c.02.81-.63,1.48-1.44,1.5-.02,0-.04,0-.06,0h0c-.83,0-1.5-.67-1.5-1.5s.67-1.5,1.5-1.5,1.5.67,1.5,1.5Z"/><path class="cls-42" d="m42.82,210.85c-.03-.8.6-1.47,1.4-1.5,0,0,0,0,0,0h0c.82.02,1.48.68,1.5,1.5h0c0,.83-.67,1.5-1.5,1.5s-1.5-.67-1.5-1.5h.1Z"/><path class="cls-42" d="m86.92,210.75c.02.81-.63,1.48-1.44,1.5-.02,0-.04,0-.06,0h0c-.83,0-1.5-.67-1.5-1.5s.67-1.5,1.5-1.5c.81-.02,1.48.63,1.5,1.44,0,.02,0,.04,0,.06Z"/><path class="cls-48" d="m54.72,173.85h-1.4v-1.8c0-.6.3-.9.7-.9s.7.3.7.9v1.8Z"/><path class="cls-57" d="m80.82,188.95v-1.5h1.8c.6,0,.9.3.9.7s-.3.7-.9.7h-1.8v.1Z"/><path class="cls-57" d="m64,173.85h-1.4v-1.8c0-.6.3-.9.7-.9s.7.3.7.9v1.8Z"/><path class="cls-57" d="m67.12,173.85h-1.4v-1.8c0-.6.3-.9.7-.9s.7.3.7.9v1.8Z"/><path class="cls-57" d="m49,187.55v1.5h-1.8c-.6,0-.9-.3-.8-.7.04-.41.39-.72.8-.7h1.8v-.1Z"/><path class="cls-48" d="m80.82,201.45v-1.5h1.8c.6,0,.9.3.9.7s-.3.7-.9.7h-1.8v.1Z"/><path class="cls-57" d="m80.82,192.05v-1.5h1.8c.6,0,.8.3.8.7,0,.39-.32.71-.71.71-.03,0-.06,0-.09,0h-1.8v.1Z"/><path class="cls-48" d="m49,199.95v1.5h-1.8c-.6,0-.8-.3-.8-.7,0-.39.32-.71.71-.71.03,0,.06,0,.09,0h1.8v-.1Z"/><path class="cls-48" d="m49,178.15v1.5h-1.8c-.6,0-.9-.3-.9-.7s.3-.7.9-.7h1.8v-.1Z"/><path class="cls-48" d="m80.82,179.65v-1.5h1.8c.6,0,.8.3.8.7,0,.39-.32.71-.71.71-.03,0-.06,0-.09,0h-1.8v.1Z"/><path class="cls-57" d="m49,190.65v1.4h-1.8c-.6,0-.9-.3-.9-.7s.3-.7.9-.7h1.8Z"/><path class="cls-48" d="m53.22,205.75h1.4v1.8c0,.6-.3.9-.7.9s-.7-.3-.7-.9v-1.8Z"/><path class="cls-57" d="m62.62,205.75h1.38v1.8c0,.6-.3.8-.7.8-.39,0-.71-.32-.71-.71,0-.03,0-.06,0-.09l.02-1.8Z"/><path class="cls-57" d="m65.72,205.75h1.4v1.8c0,.6-.3.9-.7.9s-.7-.3-.7-.9v-1.8Z"/><path class="cls-48" d="m75,205.75h1.4v1.8c0,.6-.3.8-.7.8-.39,0-.71-.32-.71-.71,0-.03,0-.06,0-.09v-1.8Z"/><path class="cls-48" d="m76.42,173.85h-1.42v-1.8c0-.6.3-.9.7-.9s.7.3.7.9l.02,1.8Z"/><path class="cls-56" d="m49,184.45v1.4h-1.9c-.44.05-.84-.26-.9-.7,0-.4.3-.7.9-.7h1.9Z"/><path class="cls-56" d="m80.82,185.85v-1.4h1.8c.6,0,.8.3.8.7,0,.39-.32.71-.71.71-.03,0-.06,0-.09,0h-1.8Z"/><path class="cls-56" d="m68.82,205.75h1.4v1.8c0,.6-.3.8-.7.8-.39,0-.71-.32-.71-.71,0-.03,0-.06,0-.09v-1.8Z"/><path class="cls-56" d="m49,193.75v1.5h-1.8c-.6,0-.9-.3-.9-.7s.3-.7.9-.7h1.8v-.1Z"/><path class="cls-56" d="m80.82,195.25v-1.5h1.8c.6,0,.8.3.8.7,0,.39-.32.71-.71.71-.03,0-.06,0-.09,0h-1.8v.1Z"/><path class="cls-56" d="m60.92,173.85h-1.4v-1.8c0-.6.3-.9.7-.9s.7.3.7.9v1.8Z"/><path class="cls-56" d="m70.22,173.85h-1.4v-1.8c0-.6.3-.9.7-.9s.7.3.7.9v1.8Z"/><path class="cls-56" d="m59.42,205.75h1.4v1.8c0,.6-.3.8-.7.8-.39,0-.71-.32-.71-.71,0-.03,0-.06,0-.09v-1.8Z"/><path class="cls-46" d="m49,203.15v1.4h-1.8c-.6,0-.9-.3-.9-.7s.3-.7.9-.7h1.8Z"/><path class="cls-46" d="m80.82,204.55v-1.5h1.8c.6,0,.8.3.8.7,0,.39-.32.71-.71.71-.03,0-.06,0-.09,0h-1.8v.1Z"/><path class="cls-46" d="m80.82,176.55v-1.5h1.8c.6,0,.9.3.9.7s-.3.7-.9.7h-1.8v.1Z"/><path class="cls-56" d="m56.42,205.75h1.4v1.8c0,.6-.3.9-.7.9s-.7-.3-.7-.9v-1.8Z"/><path class="cls-56" d="m80.82,182.75v-1.4h1.8c.39-.07.75.19.82.58s-.19.75-.58.82c-.08.01-.16.01-.24,0h-1.8Z"/><path class="cls-56" d="m49,181.25v1.4h-1.8c-.6,0-.9-.3-.9-.7s.3-.7.9-.7h1.8Z"/><path class="cls-56" d="m49,196.85v1.5h-1.8c-.6,0-.8-.3-.8-.7,0-.39.32-.71.71-.71.03,0,.06,0,.09,0h1.8v-.1Z"/><path class="cls-56" d="m80.82,198.35v-1.5h1.8c.6,0,.9.3.9.7s-.3.7-.9.7h-1.8v.1Z"/><path class="cls-46" d="m50.12,205.75h1.4v1.8c0,.6-.3.8-.7.8-.39,0-.71-.32-.71-.71,0-.03,0-.06,0-.09v-1.8Z"/><path class="cls-46" d="m49,175.05v1.5h-1.9c-.39.07-.75-.19-.82-.58s.19-.75.58-.82c.08-.01.16-.01.24,0h1.9v-.1Z"/><path class="cls-46" d="m79.62,173.85h-1.5v-1.8c0-.6.3-.8.7-.8.39,0,.71.32.71.71,0,.03,0,.06,0,.09v1.8h.1Z"/><path class="cls-46" d="m78.12,205.75h1.5v1.8c0,.6-.3.9-.7.9s-.7-.3-.7-.9v-1.8h-.1Z"/><path class="cls-56" d="m73.32,173.85h-1.4v-1.8c0-.6.3-.9.7-.9s.7.3.7.9v1.8Z"/><path class="cls-56" d="m57.82,173.85h-1.4v-1.8c0-.6.3-.9.7-.9s.7.3.7.9v1.8Z"/><path class="cls-46" d="m51.52,173.85h-1.4v-1.8c0-.6.3-.9.7-.9s.7.3.7.9v1.8Z"/><path class="cls-56" d="m71.92,205.75h1.4v1.8c0,.6-.3.8-.7.8-.39,0-.71-.32-.71-.71,0-.03,0-.06,0-.09v-1.8Z"/><path class="cls-54" d="m74.82,202.75h-22q-.8,0-.8-.8v-24.2q0-.8.8-.8h22v25.8Zm-1-20.7h0v-2.3c.01-.38-.28-.69-.66-.7-.01,0-.03,0-.04,0h0c-.4.02-.73.31-.8.7h0v3.1c0,.8.1.6-.7.7-.4,0-.5,0-.5-.5v-3.3c.05-.39-.23-.74-.61-.79-.03,0-.06,0-.09,0-.4.02-.73.31-.8.7v4.4c0,.6.3.8.9.8h2.3c.44.06.84-.25.9-.69,0-.07,0-.14,0-.21v-2.1l.1.2Zm-8.5,0v2.2c-.02.43.28.81.7.9.4.1.7-.3.7-.8v-1.1q0-.3.3-.3h1.4c.43.03.82-.27.9-.7v-2.2c0-.7-.3-.9-.9-.9h-2.1c-.7,0-1,.2-1,1v2h0v-.1Zm-4.4,0v2.2c0,.4.2.8.6.8h2.48c.44.05.84-.26.9-.7,0-.45-.38-.81-.84-.8-.02,0-.04,0-.06,0h-1.4c-.2,0-.3,0-.3-.3v-2.5c0-.2,0-.3.3-.3h1.4c.41.03.77-.27.8-.67,0-.04,0-.08,0-.13,0-.5-.3-.7-.8-.7h-2.4c-.4,0-.8.2-.8.6v2.3h0l.12.2Zm-5.6,19.4h1.3c.2,0,.4,0,.5-.2s0-.4-.2-.5l-2.7-2.5c-.1-.2-.3-.2-.5-.1s-.2.2-.2.4v2.5c0,.24.17.45.4.5h1.4v-.1Z"/><path class="cls-8" d="m74.82,202.75v-25.8h2.5c.2,0,.4,0,.5.2v25.4c-.14.13-.31.2-.5.2h-2.5Z"/><path class="cls-45" d="m73.82,181.95v2.1c0,.7-.3.9-.9.9h-2.3c-.6,0-.9-.3-.9-.8v-4.3c0-.4.2-.8.6-.8h.1c.39,0,.71.32.71.71,0,.03,0,.06,0,.09v3.3c0,.4.1.5.5.5.8,0,.7,0,.7-.7v-3.1c-.01-.38.28-.69.66-.7.01,0,.03,0,.04,0h0c.38-.01.69.28.7.66,0,.01,0,.03,0,.04h0v2.3h0l.1-.2Z"/><path class="cls-45" d="m65.32,181.95v-2c0-.7.3-.9,1-1h2.2c.44-.06.84.25.9.69,0,.07,0,.14,0,.21v2c.03.43-.27.82-.7.9h-1.6q-.3,0-.3.3v1.1c.05.39-.23.74-.61.79-.03,0-.06,0-.09,0-.4,0-.7-.3-.7-.9v-2.2l-.1.1Zm2-.6c.3,0,.6.1.6-.4s-.2-.5-.6-.4-.6-.1-.6.4.2.5.6.4Z"/><path class="cls-45" d="m60.92,181.95v-2.1c0-.4.2-.8.6-.8h2.6c.39-.05.74.23.79.61,0,.03,0,.06,0,.09,0,.4-.3.7-.8.8-.47.05-.93.05-1.4,0-.4,0-.3,0-.3.3v2.5c0,.2,0,.3.3.3h1.4c.45-.04.85.29.9.74,0,.02,0,.04,0,.06,0,.5-.3.7-.9.7h-2.3c-.4,0-.8-.2-.8-.6v-2.4l-.1-.2Z"/><path class="cls-66" d="m55.32,201.35h-1.4c-.24,0-.45-.17-.5-.4h0v-2.5c0-.2,0-.4.2-.4.17-.03.35,0,.5.1l2.7,2.5c.2.1.2.3.2.5s-.3.2-.5.2h-1.2Z"/><path class="cls-48" d="m67.32,181.25c-.3,0-.6,0-.6-.4s.3-.4.6-.4.6,0,.6.4-.3.4-.6.4Z"/><path d="m47.12,152.75c-1.21-3.78.88-7.82,4.65-9.03.08-.03.16-.05.25-.07,2.32-.73,4.86-.2,6.7,1.4l-2.2,2.3c-.97-.89-2.36-1.16-3.6-.7-2.09.52-3.37,2.63-2.85,4.72.04.16.09.32.15.48.45,2.08,2.5,3.4,4.57,2.95.18-.04.35-.09.53-.15,1.28-.33,2.27-1.32,2.6-2.6l3.1.7c-.67,2.32-2.48,4.13-4.8,4.8-3.75,1.22-7.78-.82-9-4.57-.04-.11-.07-.22-.1-.33v.1Z"/><path d="m73.22,147.85c-.24,2.62-2.56,4.55-5.19,4.31-.04,0-.07,0-.11-.01l-2.1-.2-.4,4.4-3.2-.3,1.3-13.9,5.3.5c2.64.21,4.61,2.52,4.4,5.17,0,.01,0,.02,0,.03Zm-3.22-.3c.12-.96-.54-1.85-1.5-2l-2.1-.2-.3,3.6,2.1.2c.96.07,1.8-.64,1.9-1.6h-.1Z"/><path d="m74.72,153.05l4.2-8.5,2.9,1.4-4.1,8.2c-.5.9-.4,2,1.1,2.7,1.5.7,2.4.2,2.8-.8l4.1-8.2,2.9,1.4-4.2,8.5c-1.3,2.7-4.2,3.3-7,1.9-2.8-1.4-4-4-2.7-6.7v.1Z"/><circle class="cls-2" cx="334.98" cy="181.55" r="45"/><path class="cls-60" d="m301.88,178.75c.17-.23.42-.37.7-.4h6.8v3.3c-.48.3-.75.84-.7,1.4v12.7c0,.9.4,1.3,1.3,1.3h4.7c.6,0,1.3-.3,1.1-1.2v-.5h4.6v.3c0,1.1.3,1.4,1.4,1.4h4.6c.8,0,1.1-.4,1.2-1.1v-.6h4.6v.3c0,1.2.2,1.4,1.4,1.4h4.3c.9,0,1.3-.4,1.3-1.3v-.5h4.6v.3c0,1.1.3,1.4,1.4,1.4h4.6c.8,0,1.1-.4,1.2-1.2v-.5h4.6v.4c0,1.1.2,1.2,1.2,1.2h2.6c.79.2,1.61.2,2.4,0,.5,0,.8-.4.8-1-.02-.24.02-.48.1-.7h6.8v5h-68.3v-9.6c.31-.05.62-.16.9-.3,1.26-.42,2.13-1.57,2.2-2.9.06-1.36-.8-2.59-2.1-3-.3-.1-.7-.2-1-.3v-5.6l.7.3Z"/><path class="cls-58" d="m347.78,200.35h1.5v2.3c-.03.52.36.97.88,1,.04,0,.08,0,.12,0,.7,0,1-.3,1-1v-2.3h1.6v2.3c0,.8.3,1.1,1,1.1.55,0,1-.44,1.01-.99,0-.04,0-.07,0-.11v-2.3h1.6v2.2c0,.8.3,1.2,1,1.2s1-.4,1-1.2v-2.2h1.52v2.1c0,.8.4,1.2,1.1,1.2s1-.4,1.1-1.2v-2.1h1.5v2.2c-.01.54.37,1.01.9,1.1.6,0,1-.2,1.1-.8.08-.83.12-1.67.1-2.5h4.4v3.3c.02.98-.72,1.82-1.7,1.9h-63.7c-1.14.15-2.22-.52-2.6-1.6v-3.7h4.6v2.2c0,.8.3,1.2,1,1.2s1-.4,1-1.2v-2.2h1.5v2.1c0,.8.4,1.2,1.1,1.2s1-.4,1.1-1.2v-2.1h1.5v2.2c-.01.54.37,1.01.9,1.1.6,0,1-.2,1.1-.8.08-.83.12-1.67.1-2.5h1.5v2.3c-.03.52.36.97.88,1,.04,0,.08,0,.12,0,.7,0,1-.3,1-1v-2.3h1.6v2.3c0,.8.3,1.1,1,1.1.55,0,1-.44,1.01-.99,0-.04,0-.07,0-.11v-2.3h1.5c-.07.87-.04,1.74.1,2.6.05.44.45.75.89.7,0,0,0,0,.01,0,.7,0,1.1-.4,1.1-1.2v-2.2h1.5v2.1c0,.8.4,1.2,1.1,1.2s1-.4,1.1-1.2v-2.1h1.5v2.3c-.06.55.34,1.04.89,1.1.07,0,.14,0,.21,0,.7,0,.9-.3.9-1.1v-2.3h1.6v2.3c0,.7.3,1,1,1s1-.3,1-1v-2.3h1.6v2.3c0,.8.3,1.1,1,1.1.55,0,1-.44,1.01-.99,0-.04,0-.07,0-.11v-2.3h1.5v2.1c0,.8.4,1.2,1.1,1.2s1-.4,1.1-1.2v-2.1h1.5v2.3c-.04.51.33.95.84,1,.02,0,.04,0,.06,0,.6,0,1-.2,1.1-.8.1-.83.1-1.67,0-2.5l-.62.2Z"/><path class="cls-63" d="m370,195.35h-6.8v-12.8c0-.7-.5-1-1.2-1h-4.6c-1.1,0-1.3.3-1.3,1.3v12.3h-4.6v-12.4c0-.9-.3-1.3-1.3-1.3h-4.4c-1.3,0-1.5.3-1.5,1.5v12.2h-4.6v-12.4c0-1-.3-1.3-1.3-1.3h-4.4c-1.2,0-1.4.2-1.4,1.4v12.3h-4.6v-12.3c0-1-.3-1.3-1.3-1.4h-4.7c-.9,0-1.3.3-1.3,1.3v12.4h-4.6v-12.5c.08-.58-.32-1.12-.9-1.2-.1-.01-.2-.01-.3,0h-5.3v-3.3h59.1c1.3,0,1.4,0,1.4,1.3v3.9c.07.41-.19.81-.6.9-1.48.29-2.53,1.6-2.5,3.1,0,1.49,1.04,2.78,2.5,3.1.36.03.62.34.6.7v4l-.1.2Z"/><path class="cls-22" d="m309.48,181.65h3.4c-.41.38-.6.95-.5,1.5v1.4c-.7,0-.9.5-.9,1.1v7.6c-.11.54.24,1.07.78,1.18.04,0,.08.01.12.02-.07.85.07,1.71.4,2.5h-2.7c-.9,0-1.3-.4-1.3-1.3v-12.7c-.09-.57.19-1.13.7-1.4v.1Z"/><path class="cls-15" d="m360.08,181.65h1.8c.54-.11,1.07.24,1.18.78.01.07.02.15.02.22v12.8c-.2.2-.1.5-.1.7.05.5-.3.94-.8,1-.8.1-1.6.1-2.4,0-.4-.7-.2-1.4-.3-2.1.6,0,.9-.4.9-1.1v-7.9c.06-.55-.34-1.04-.89-1.1,0,0,0,0,0,0v-1.5c-.08-.61.1-1.23.5-1.7l.1-.1Z"/><path class="cls-22" d="m344.18,195.35v-12.2c0-1.2.3-1.5,1.5-1.5h2.6c-.41.38-.6.95-.5,1.5v1.6c-.7,0-1,.3-1.1,1.2v7.4c0,.9.3,1.2,1.1,1.2-.11.82.03,1.66.4,2.4h-2.6c-1.1,0-1.4-.3-1.4-1.4v-.2Z"/><path class="cls-22" d="m320.68,195.35v-12.4c0-.9.3-1.3,1.3-1.3h2.9c-.45.36-.65.95-.5,1.5v1.5c-.7,0-1.1.4-1.1,1.2v7.5c0,.8.4,1.1,1.1,1.2,0,.9-.2,1.7.4,2.5h-2.6c-.9,0-1.4-.3-1.4-1.4v-.3h-.1Z"/><path class="cls-22" d="m332.48,195.35v-12.3c0-1.2.2-1.4,1.4-1.4h2.5c-.25.98-.35,1.99-.3,3-.8.1-1.1.4-1.1,1.2v7.6c0,.7.3,1,1.1,1.2-.05.81.05,1.63.3,2.4h-2.38c-1.2,0-1.4-.2-1.4-1.4v-.3h-.12Z"/><path class="cls-22" d="m359.58,194.75c-.11.71,0,1.44.3,2.1h-2.6c-1.1,0-1.2-.2-1.2-1.2v-12.7c0-1.1.3-1.3,1.3-1.3h2.8c-.47.43-.66,1.08-.5,1.7v1.5c-.8.1-1.1.4-1.1,1.2v7.6c0,.7.3,1,1.1,1.2l-.1-.1Z"/><path class="cls-15" d="m324.68,197.05c-.42-.76-.56-1.65-.4-2.5.7,0,1-.4,1-1.1v-7.6c.06-.55-.35-1.04-.89-1.1-.03,0-.07,0-.11,0v-1.5c-.1-.55.09-1.12.5-1.5h1.8c1,0,1.3.4,1.3,1.4v12.9c0,.8-.4,1.1-1.2,1.1h-2v-.1Z"/><path class="cls-43" d="m347.78,184.85v-1.6c-.05-.55.13-1.09.5-1.5h1.8c.9,0,1.3.4,1.3,1.3v12.9c0,.8-.3,1.2-1.2,1.2h-2c-.38-.74-.52-1.58-.4-2.4.55.06,1.04-.35,1.1-.89,0-.03,0-.07,0-.11v-7.8c0-.55-.44-1-.99-1.01-.04,0-.07,0-.11,0v-.1Z"/><path class="cls-43" d="m312.78,197.05c-.37-.78-.51-1.65-.4-2.5.8-.1,1.1-.4,1.1-1.2v-7.6c0-.7-.3-1-1.1-1.2v-1.4c-.05-.55.13-1.09.5-1.5h1.9c.9,0,1.2.4,1.2,1.2v13c.11.54-.23,1.07-.77,1.19-.11.02-.22.03-.33.01h-2.1Z"/><path class="cls-43" d="m336.08,184.65c-.15-1.01-.05-2.04.3-3h1.9c1,0,1.3.3,1.3,1.3v12.9c0,.9-.3,1.2-1.3,1.3h-1.9c-.29-.76-.4-1.59-.3-2.4.55-.05.95-.54.9-1.09,0,0,0,0,0,0v-7.8c.06-.55-.34-1.04-.89-1.1,0,0,0,0,0,0v-.1Z"/><path class="cls-19" d="m330,200.35v2.1c0,.8-.4,1.2-1.1,1.2s-1-.4-1.1-1.2v-2.1h2.2Z"/><path class="cls-19" d="m344.18,200.35v2.1c0,.8-.4,1.2-1.1,1.2s-1-.4-1.1-1.2v-2.1h2.2Z"/><path class="cls-19" d="m347.78,200.35v2.5c0,.46-.36.84-.81.85-.1,0-.19-.01-.29-.05-.51-.05-.9-.48-.9-1v-2.3h2Z"/><path class="cls-19" d="m362,200.35v2.1c0,.8-.4,1.2-1.1,1.2s-1-.4-1.1-1.2v-2.1h2.2Z"/><path class="cls-19" d="m312.18,200.35v2.1c0,.8-.4,1.2-1.1,1.2s-1-.4-1.1-1.2v-2.1h2.2Z"/><path class="cls-19" d="m326.38,200.35v2.2c0,.8-.4,1.2-1.1,1.2-.44.06-.84-.25-.9-.69,0,0,0,0,0-.01-.08-.86-.11-1.73-.1-2.6h2.1v-.1Z"/><path class="cls-19" d="m315.78,200.35c.02.83-.02,1.67-.1,2.5-.03.49-.44.86-.93.83-.06,0-.11-.01-.17-.03-.55-.05-.95-.54-.9-1.09,0,0,0,0,0,0v-2.2h2.1Z"/><path class="cls-19" d="m365.58,200.35c.02.83-.02,1.67-.1,2.5-.03.49-.44.86-.93.83-.06,0-.11-.01-.17-.03-.55-.05-.95-.54-.9-1.09,0,0,0,0,0,0v-2.2h2.1Z"/><path class="cls-62" d="m337,200.35v2.3c0,.7-.3,1-1,1s-1-.3-1-1v-2.3h2Z"/><path class="cls-62" d="m319.18,200.35v2.3c0,.7-.3,1-1,1-.52.03-.97-.36-1-.88,0-.04,0-.08,0-.12v-2.3h2Z"/><path class="cls-62" d="m322.78,200.35v2.3c.06.55-.35,1.04-.89,1.1-.03,0-.07,0-.11,0-.7,0-1-.3-1-1.1v-2.3h2Z"/><path class="cls-62" d="m340.58,200.35v2.3c.06.55-.35,1.04-.89,1.1-.03,0-.07,0-.11,0-.7,0-1-.3-1-1.1v-2.3h2Z"/><path class="cls-62" d="m351.28,200.35v2.3c0,.7-.3,1-1,1-.52.03-.97-.36-1-.88,0-.04,0-.08,0-.12v-2.3h2Z"/><path class="cls-62" d="m354.78,200.35v2.3c.06.55-.35,1.04-.89,1.1-.03,0-.07,0-.11,0-.7,0-1-.3-1-1.1v-2.3h2Z"/><path class="cls-19" d="m308.58,200.35v2.2c.05.6-.4,1.14-1,1.2-.7,0-1-.3-1-1.2v-2.2h2Z"/><path class="cls-62" d="m333.38,200.35v2.3c0,.8-.3,1.1-.9,1.1s-1-.4-1.1-1.1v-2.3h2Z"/><path class="cls-19" d="m358.38,200.35v2.2c.05.6-.4,1.14-1,1.2-.7,0-1-.3-1-1.2v-2.2h2Z"/><path class="cls-6" d="m312.38,184.55c.8.1,1.1.4,1.1,1.2v7.6c0,.7-.3,1-1.1,1.2-.55-.04-.96-.53-.92-1.08,0-.04,0-.08.02-.12v-7.6c-.06-.55.34-1.04.89-1.1,0,0,0,0,0,0v-.1Z"/><path class="cls-6" d="m359.58,194.75c-.8-.1-1.1-.4-1.1-1.2v-7.6c0-.7.3-1,1.1-1.2.6,0,.9.4.9,1.1v7.9c.06.55-.34,1.04-.89,1.1,0,0,0,0,0,0v-.1Z"/><path class="cls-6" d="m347.78,184.85c.55-.06,1.04.35,1.1.89,0,.03,0,.07,0,.11v7.8c0,.55-.44,1-.99,1.01-.04,0-.07,0-.11,0-.7,0-1-.3-1.1-1.2v-7.4c0-.9.32-1.2,1.1-1.2Z"/><path class="cls-6" d="m324.28,184.65c.7,0,1,.4,1,1.1v7.6c.06.55-.35,1.04-.89,1.1-.03,0-.07,0-.11,0-.7,0-1.1-.4-1.1-1.2v-7.5c0-.8.4-1.1,1.1-1.2v.1Z"/><path class="cls-6" d="m336.08,184.65c.6,0,.9.4.9,1.1v7.8c0,.7-.4.9-.9,1.1-.8-.1-1.1-.4-1.1-1.2v-7.6c.02-.7.3-1,1.1-1.2Z"/><path d="m309.78,162.55l1-2.7c1,.62,2.3.46,3.1-.4,1-.9,1-1.5.7-1.9-.5-.6-1.2-.4-3,.4-1.8.8-3.8,1.3-5.3-.6s-.9-4.3.8-5.7c1.49-1.29,3.6-1.61,5.4-.8l-.9,2.7c-.83-.5-1.9-.38-2.6.3-.7.6-.7,1.2-.4,1.6s.9.5,2.7-.3c1.8-.8,3.9-1.6,5.6.4,1.7,2,1,4.2-1.1,6-1.57,1.56-3.98,1.88-5.9.8l-.1.2Z"/><path d="m320,151.25l1.4,2.9c.3.7,1,.5,2,0l1,2.2c-3,1.8-4.4,1.3-5.5-1l-1.4-2.9-1.3.6-1.1-2.3,1.3-.6-.7-1.5,2.1-1.9,1.1,2.3,1.7-.8,1.1,2.3-1.7.8v-.1Z"/><path d="m323.58,151.55c-.5-2.59,1.2-5.1,3.79-5.6,0,0,0,0,.01,0,2.55-.53,5.04,1.1,5.57,3.65.01.05.02.1.03.15.5,2.59-1.2,5.1-3.79,5.6,0,0,0,0-.01,0-2.55.53-5.04-1.1-5.57-3.65-.01-.05-.02-.1-.03-.15Zm6.7-1.3c-.29-1.07-1.39-1.69-2.46-1.4-1.07.29-1.69,1.39-1.4,2.46.27.99,1.25,1.61,2.26,1.45,1.06-.13,1.81-1.1,1.68-2.15-.01-.12-.04-.23-.08-.35Z"/><path d="m340.68,145.75l-.2,3.1c-1.01-.44-2.19.02-2.63,1.03-.12.27-.18.57-.17.87l-.3,4.1-2.7-.2.6-9,2.7.2v1.6c.39-1.12,1.53-1.79,2.7-1.6v-.1Z"/><path d="m352,149.15l-2.9,8.5-2.6-.9.3-.8c-.88.52-1.96.6-2.9.2-2.31-.95-3.43-3.58-2.5-5.9.9-2.5,3.4-3.9,5.6-3.1.95.32,1.74,1,2.2,1.9l.3-.8,2.6.9h-.1Zm-4,3.4c.45-1.06-.04-2.28-1.1-2.73-.06-.03-.13-.05-.2-.07-1.02-.42-2.19.08-2.61,1.1-.04.1-.07.2-.09.3-.45,1.06.04,2.28,1.1,2.73.06.03.13.05.2.07,1.02.42,2.19-.08,2.61-1.1.04-.1.07-.2.09-.3Z"/><path d="m362.78,156.85l-5.3,6.7c-1.9,2.4-4.5,1.9-6.4.4-1.45-.96-2.23-2.67-2-4.4l2.6.4c-.14.84.21,1.7.9,2.2.64.71,1.74.77,2.46.12.14-.12.25-.27.34-.42l.5-.7c-.99.2-2.02-.05-2.8-.7-1.96-1.57-2.27-4.44-.7-6.4,1.57-1.96,4.44-2.27,6.4-.7.81.58,1.29,1.51,1.3,2.5l.6-.7,2.1,1.6v.1Zm-4.7,1.8c.77-.91.66-2.28-.25-3.06-.91-.77-2.28-.66-3.06.25-.77.91-.66,2.28.25,3.06.02.02.04.03.06.05.81.76,2.07.72,2.83-.09.06-.07.12-.14.17-.21Z"/><path d="m362.18,167.35c.34.54.88.93,1.5,1.1v2.5c-1.52-.09-2.88-.96-3.6-2.3-1.57-2.06-1.18-5,.88-6.57.1-.08.21-.15.32-.23,2.07-1.47,4.93-.98,6.4,1.09.07.1.14.2.2.31,1.37,2.09.79,4.9-1.3,6.27-.07.04-.13.09-.2.13-.3.23-.64.39-1,.5l-3.5-5.3c-.52.76-.48,1.78.1,2.5h.2Zm3.6-.4c.63-.66.67-1.69.1-2.4-.43-.83-1.42-1.22-2.3-.9l2.1,3.2.1.1Z"/></svg>