<?xml version="1.0" encoding="UTF-8"?><svg id="Layer_1" xmlns="http://www.w3.org/2000/svg" viewBox="0 0 400 400"><defs><style>.cls-1{stroke:#a5262d;}.cls-1,.cls-2,.cls-3{stroke-width:4px;}.cls-1,.cls-2,.cls-3,.cls-4{fill:none;stroke-miterlimit:10;}.cls-5{fill:#7da1b1;}.cls-6{fill:#8fbac5;}.cls-2{stroke:#000;}.cls-7{fill:#fff;}.cls-3{stroke:#0018c6;}.cls-8{fill:#546e7a;}.cls-9{fill:#f1f6f6;}.cls-10{fill:#02f1a6;}.cls-11{fill:#ffed58;}.cls-4{stroke:#231f20;stroke-width:2px;}.cls-12{fill:#36464e;}.cls-13{fill:#fde077;}.cls-14{fill:#fee077;}.cls-15{fill:#ddebf0;}.cls-16{fill:#fed05b;}.cls-17{fill:#788f9b;}.cls-18{fill:#484645;}.cls-19{fill:#fec345;}.cls-20{fill:#fee078;}.cls-21{fill:#cee5ec;}.cls-22{fill:#fdd15b;}.cls-23{fill:#fbd734;}.cls-24{fill:#231f20;}.cls-25{fill:#64c7ef;}</style></defs><line class="cls-7" x1="141.93" y1="201.64" x2="109.16" y2="201.14"/><line class="cls-4" x1="141.93" y1="201.64" x2="119.92" y2="201.3"/><polygon class="cls-24" points="122.22 193.85 109.16 201.13 121.99 208.81 122.22 193.85"/><line class="cls-7" x1="254.16" y1="201.64" x2="286.93" y2="201.14"/><line class="cls-4" x1="254.16" y1="201.64" x2="276.17" y2="201.3"/><polygon class="cls-24" points="274.1 208.81 286.93 201.14 273.87 193.86 274.1 208.81"/><line class="cls-7" x1="197.8" y1="145.77" x2="198.3" y2="113"/><line class="cls-4" x1="197.8" y1="145.77" x2="198.13" y2="123.76"/><polygon class="cls-24" points="205.58 126.06 198.3 113 190.62 125.83 205.58 126.06"/><line class="cls-7" x1="197.8" y1="257" x2="198.3" y2="289.77"/><line class="cls-4" x1="197.8" y1="257" x2="198.13" y2="279.01"/><polygon class="cls-24" points="190.62 276.94 198.3 289.77 205.58 276.71 190.62 276.94"/><circle class="cls-1" cx="198.05" cy="201.39" r="45"/><path d="m169.35,182.29c-2.5-3-2.3-7.2.8-9.7,1.8-1.6,4.2-2,6.3-1.3l-1,2.9c-1.1-.4-2.4-.1-3.4.7-1.8,1.5-1.9,3.7-.4,5.5,1.5,1.8,3.7,2,5.5.5,1-.9,1.5-2.1,1.3-3.2l3-.5c.3,2.2-.5,4.5-2.4,6-3.1,2.6-7.2,2.2-9.8-.8l.1-.1Z"/><path d="m181.75,174.99c-.9-2.7.5-5.5,3.1-6.4,2.6-.9,5.5.4,6.4,3.1.9,2.7-.5,5.5-3.1,6.4-2.6.9-5.5-.4-6.4-3.1Zm6.8-2.4c-.4-1.3-1.6-1.8-2.8-1.4s-1.8,1.6-1.3,2.8c.4,1.3,1.6,1.8,2.8,1.4s1.8-1.6,1.3-2.8Z"/><path d="m203.65,171.49c0,2.8-2.1,5-4.6,5-1.3,0-2.2-.5-2.8-1.2v.9h-2.9v-13.4h3v4.7c.6-.7,1.5-1.1,2.8-1.1,2.5,0,4.5,2.2,4.5,5.1Zm-2.8,0c0-1.4-.9-2.3-2.2-2.3s-2.3.9-2.3,2.3.9,2.3,2.2,2.3,2.3-.9,2.3-2.3Z"/><path d="m216.65,170.99l-3.4,8.9-2.7-1,.3-.8c-.8.5-1.9.5-3.1,0-2.3-.9-3.5-3.7-2.5-6.3,1-2.6,3.7-4,6-3.1,1.2.5,1.9,1.2,2.2,2.1l.3-.8,2.7,1h.2Zm-4.3,3.4c.5-1.3,0-2.5-1.3-3-1.2-.5-2.4,0-2.9,1.4-.5,1.3,0,2.5,1.3,3,1.2.5,2.4,0,2.9-1.4Z"/><path d="m222.25,169.49l2.3,1.6-8,11.3-2.3-1.6,8-11.3Z"/><path d="m225.25,181.19l-2.4,2.4c-.6.6-.1,1.1.8,2l-1.8,1.8c-2.9-2.4-2.8-4-.9-5.8l2.4-2.4-1.1-1.1,2-1.9,1.1,1.1,1.3-1.3,2.6,1.4-1.9,1.9,1.4,1.4-2,1.9-1.4-1.4h-.1Z"/><rect class="cls-25" x="171.05" y="191.39" width="52" height="37" rx="2.9" ry="2.9"/><path class="cls-18" d="m188.35,222.19c-3.6,0-6.5-1.2-8.8-3.5-2.3-2.4-3.5-5.3-3.5-8.8s1.2-6.4,3.5-8.8c2.3-2.4,5.3-3.5,8.8-3.5s4.1.5,5.9,1.5c1.8,1,3.3,2.4,4.3,4.1l-5.2,3c-.5-.8-1.1-1.5-2-2-.9-.5-1.9-.7-3-.7-1.9,0-3.4.6-4.6,1.8-1.2,1.2-1.7,2.7-1.7,4.6s.6,3.5,1.7,4.6c1.1,1.1,2.7,1.8,4.6,1.8s2.1-.2,3-.7c.9-.5,1.6-1.2,2-2l5.2,3c-1,1.7-2.5,3.1-4.3,4.1s-3.8,1.5-6,1.5h.1Z"/><path class="cls-18" d="m209.05,222.19c-2.5,0-4.6-.9-6.4-2.6-1.8-1.7-2.6-3.8-2.6-6.3s.9-4.6,2.6-6.3c1.8-1.7,3.9-2.6,6.4-2.6s4.7.9,6.4,2.6c1.7,1.7,2.6,3.8,2.6,6.3s-.9,4.6-2.6,6.3c-1.7,1.7-3.9,2.6-6.4,2.6Zm0-5.4c1,0,1.8-.3,2.4-1,.6-.7,1-1.5,1-2.5s-.3-1.9-1-2.5c-.6-.7-1.5-1-2.4-1s-1.8.3-2.4,1c-.6.7-1,1.5-1,2.5s.3,1.9,1,2.5c.6.7,1.4,1,2.4,1Z"/><circle class="cls-3" cx="198.05" cy="57.63" r="45"/><path class="cls-6" d="m186.85,93.63c-.81-.23-1.58-.57-2.3-1-1.52-1.03-2.39-2.77-2.3-4.6v-42.9c-.05-2.63,1.81-4.92,4.4-5.4h21.6c0,.2.1.2.2.2,1.33.37,2.47,1.23,3.2,2.4.39.52.6,1.15.6,1.8,0,0-.2-.2-.2-.3-.51-.83-1.42-1.33-2.4-1.3h-3.8c-.64-.04-1.23.32-1.5.9-.2.3-.3.7-.5,1-.28.69-.96,1.13-1.7,1.1h-6.7c-.27.02-.54-.01-.8-.1-.37-.24-.65-.59-.8-1l-.6-1.2c-.2-.42-.63-.7-1.1-.7h-4.8c-1.37.32-2.31,1.59-2.2,3v42.5c-.02,1.48,1.12,2.71,2.6,2.8h22c.45,0,.9-.1,1.3-.3.52-.3.94-.76,1.2-1.3v.2c-.41,1.91-1.83,3.44-3.7,4-.1,0-.4,0-.4.2h-21.3Zm11.9-50.26h1.8c.35.04.66-.21.7-.55,0-.05,0-.1,0-.15,0-.5-.2-.9-.7-.9h-3.5c-.5,0-.7.4-.7.9s.3.6.7.7h1.7Z"/><path class="cls-5" d="m208.25,93.63c0-.3.2-.2.4-.2,1.83-.62,3.22-2.13,3.7-4v-.2c.17-.55.24-1.13.2-1.7v-41.8c.03-.57-.04-1.15-.2-1.7-.03-.64-.24-1.27-.6-1.8-.71-1.19-1.86-2.06-3.2-2.4-.1,0-.2,0-.2-.2h2.4c.66.14,1.3.38,1.9.7,1.73,1.01,2.77,2.89,2.7,4.9v42.7c.1,2.73-1.82,5.11-4.5,5.6h-2.5l-.1.1Z"/><path class="cls-9" d="m194.55,45.37c.3,0,.5.1.8.1h6.7c.75.07,1.46-.38,1.7-1.1.2-.3.3-.7.5-1,.27-.58.86-.94,1.5-.9h.9c0,.2.2.2.3.3.99.49,1.61,1.5,1.6,2.6v42.5c.02,1.08-.56,2.08-1.5,2.6-.16,0-.29.14-.3.3h-19.1c-1.48-.09-2.62-1.32-2.6-2.8v-42.4c-.11-1.41.83-2.68,2.2-3,.47-.05.93-.05,1.4,0,.49.63.93,1.3,1.3,2,.3.65,1,1.01,1.7.9h2.5c.17.03.35,0,.5-.1h-.1Zm-3.5,29.9v10.4c0,1.1.3,1.4,1.4,1.4h12.9c.55.06,1.04-.34,1.1-.89,0-.07,0-.14,0-.21v-21.4c.06-.55-.34-1.04-.89-1.1-.07,0-.14,0-.21,0h-1.1c-.55.06-1.04-.34-1.1-.89,0-.07,0-.14,0-.21v-1.9c.06-.55-.34-1.04-.89-1.1-.07,0-.14,0-.21,0h-6.7c-.8,0-1.1.4-1.1,1.2v1.9c0,.7-.4,1-1.1,1h-.8c-1,0-1.3.3-1.3,1.3v10.5h0Zm7.7-24.2c0-.2.1-.3.2-.5.3-.5.7-1,1-1.5s.2-.9-.2-1.1-.8-.3-1,0c-.8,1.1-1.6,2.3-2.3,3.5-.3.6,0,1.1.7,1.1h1.4q.3,0,.2.3c-.5.8-1,1.6-1.6,2.4-.32.37-.32.93,0,1.3.4.3.9.1,1.3-.4.9-1.3,1.7-2.6,2.5-3.9.2-.27.2-.63,0-.9-.18-.26-.48-.42-.8-.4h-1.6l.2.1Z"/><path class="cls-15" d="m206.75,90.73c0-.2.2-.2.3-.3.94-.52,1.52-1.52,1.5-2.6v-42.46c0-1.1-.61-2.11-1.6-2.6-.16,0-.29-.14-.3-.3h2.9c.98-.05,1.91.45,2.4,1.3,0,.1.1.2.2.3.17.55.24,1.13.2,1.7v41.8c.03.57-.04,1.15-.2,1.7-.32.5-.73.94-1.2,1.3-.4.2-.85.31-1.3.3h-2.9v-.14Z"/><path class="cls-15" d="m194.55,45.37c-.1.2-.3.1-.5.1h-2.5c-.7.09-1.38-.27-1.7-.9-.37-.7-.81-1.37-1.3-2h3.4c.47,0,.9.28,1.1.7l.6,1.2c.21.37.48.71.8,1l.1-.1Z"/><path class="cls-5" d="m198.75,43.37h-1.6c-.35.04-.66-.21-.7-.55,0-.05,0-.1,0-.15,0-.5.2-.9.7-.9h3.5c.44.06.75.46.7.9,0,.5-.2.6-.7.7-.6.05-1.2.05-1.8,0h-.1Z"/><path class="cls-10" d="m191.05,75.23v-10.5c0-1,.3-1.3,1.3-1.3h.8c.7,0,1-.3,1.1-1v-1.9c0-.8.3-1.2,1.1-1.2h6.7c.55-.06,1.04.34,1.1.89,0,.07,0,.14,0,.21v1.94c-.06.55.34,1.04.89,1.1.07,0,.14,0,.21,0h1.1c.55-.06,1.04.34,1.1.89,0,.07,0,.14,0,.21v21.4c.06.55-.34,1.04-.89,1.1-.07,0-.14,0-.21,0h-12.9c-1.1,0-1.4-.3-1.4-1.4v-10.44Zm12.5,2.7v-10.56c0-.5-.3-.8-.9-.8h-7.9c-.44-.06-.84.25-.9.69,0,.07,0,.14,0,.21v15.9c-.06.44.25.84.69.9.07,0,.14,0,.21,0h7.9c.44.06.84-.25.9-.69,0-.07,0-.14,0-.21v-5.44Z"/><path class="cls-20" d="m198.75,51.03h1.6c.4,0,.7,0,.8.4.14.28.14.62,0,.9-.8,1.3-1.7,2.6-2.5,3.9-.26.45-.83.63-1.3.4-.4-.3-.4-.8,0-1.3.5-.8,1-1.6,1.6-2.4.2-.2.1-.3-.2-.3h-1.4c-.7,0-1.1-.6-.7-1.1.7-1.2,1.5-2.3,2.3-3.5.15-.28.5-.38.77-.23.1.05.17.13.23.23.32.27.4.73.2,1.1-.3.5-.7,1-1,1.5,0,.1-.2.2-.2.5l-.2-.1Z"/><path class="cls-15" d="m200.35,66.43h2.4c.45-.04.85.29.9.74,0,.02,0,.04,0,.06v2.5h-2.5c-.4,0-.5.1-.5.5v3.5h-6.7v-4.1h6.2c.2,0,.5.1.5-.2,0-1,.3-2.06-.3-3Z"/><path class="cls-13" d="m200.15,84.23h-5.3c-.44.06-.84-.25-.9-.69,0-.07,0-.14,0-.21v-3.7h6.7v3.6c.05.4-.15.8-.5,1Z"/><path class="cls-14" d="m193.95,73.83h6.7v4.1h-6.7v-4.1Z"/><path class="cls-9" d="m200.35,66.43c.6,1,.2,2,.3,3,0,.3-.3.2-.5.2h-6.2v-2.26c-.06-.44.25-.84.69-.9.07,0,.14,0,.21,0l5.5-.04Z"/><path class="cls-22" d="m200.15,84.23c.4-.2.5-.5.5-1v-3.6h2.9v3.74c.03.46-.31.87-.78.9-.04,0-.08,0-.12,0h-2.5v-.04Z"/><path class="cls-16" d="m200.65,77.93v-4.1h2.9v4.1h-2.9Z"/><path class="cls-21" d="m203.65,73.83h-2.9v-3.46c0-.4.1-.5.5-.5h2.5v4l-.1-.04Z"/><path class="cls-22" d="m193.95,77.93h6.7v1.7h-6.7v-1.7Z"/><path class="cls-19" d="m200.65,79.63v-1.7h2.9v1.7h-2.9Z"/><path d="m163.85,50.23c2.1.33,3.53,2.3,3.2,4.4l-.3,1.6,3.5.5-.4,2.5-11-1.7.6-4.2c.28-2.11,2.21-3.59,4.32-3.31.03,0,.05,0,.08.01v.2Zm-.4,2.5c-.71-.16-1.42.28-1.58.99,0,.04-.01.07-.02.11l-.3,1.6,2.8.4.3-1.6c.12-.7-.36-1.37-1.06-1.48-.05,0-.09-.01-.14-.02h0Z"/><path d="m170.25,41.93l4.4,2.1-1,2.1-4.1-2c-.66-.37-1.5-.13-1.86.53-.01.02-.02.05-.04.07-.4.8-.2,1.5.8,2l3.9,1.9-1,2.1-10-4.9,1-2.1,3.5,1.7c-.31-.81-.28-1.72.1-2.5.73-1.48,2.53-2.09,4.02-1.36.1.05.19.1.28.16v.2Z"/><path d="m171.95,40.93c-1.68-1.57-1.77-4.21-.19-5.89,1.57-1.68,4.21-1.77,5.89-.19,1.68,1.57,1.77,4.21.2,5.89-1.55,1.68-4.17,1.79-5.85.25-.02-.02-.03-.03-.05-.05Zm4.1-4.4c-.74-.66-1.88-.59-2.54.15-.66.74-.59,1.88.15,2.54.72.64,1.82.6,2.49-.1.69-.7.69-1.83-.01-2.52-.03-.03-.06-.06-.09-.08Z"/><path d="m185.35,29.13l2.4,4.2-2.1,1.2-2.2-3.9c-.25-.66-.98-.99-1.64-.74-.09.04-.18.08-.26.14-.8.4-1,1.2-.5,2.2l2.1,3.8-2.1,1.2-3.9-6.9,2.1-1.2.4.6c0-.7.6-1.4,1.5-2,1.4-.8,3.1-.5,4.2,1.4Z"/><path d="m192.15,30.37c.56-.11,1.06-.44,1.4-.9l2.1.7c-1.12,2.17-3.79,3.02-5.96,1.9-1.11-.57-1.92-1.59-2.24-2.8-.55-2.19.78-4.4,2.97-4.95.08-.02.15-.04.23-.05,2.16-.48,4.29.89,4.77,3.04.01.05.02.1.03.16,0,.3.1.6.1,1l-5.5,1.2c.47.67,1.32.96,2.1.7Zm.8-3.1c-.36-.69-1.14-1.06-1.9-.9-.8.1-1.41.79-1.4,1.6l3.3-.7Z"/><path d="m209.75,29.43c-.38,2.17-2.42,3.63-4.6,3.3-.89-.17-1.65-.72-2.1-1.5l-.2.7-2.3-.5,2.4-10.8,2.3.5-.9,3.8c.71-.55,1.65-.7,2.5-.4,2.12.58,3.37,2.77,2.8,4.9h.1Zm-2.3-.5c.3-.94-.23-1.95-1.17-2.24-.08-.02-.15-.04-.23-.06-.99-.26-2.01.34-2.27,1.34-.01.05-.03.11-.03.16-.3.94.23,1.95,1.17,2.24.08.02.15.04.23.06.99.26,2.01-.34,2.27-1.34.01-.05.03-.11.03-.16Z"/><path d="m220.45,30.93l-4.1,6.8-2-1.2.4-.6c-.85.26-1.77.11-2.5-.4-1.84-1.38-2.22-3.99-.84-5.84,1.19-1.6,3.35-2.13,5.14-1.26.78.4,1.33,1.14,1.5,2l.4-.6,2,1.2v-.1Zm-4.1,2.2c.57-.82.37-1.94-.45-2.51-.05-.03-.1-.07-.15-.09-.89-.53-2.03-.24-2.57.64-.01.02-.02.04-.03.06-.52.88-.23,2.03.65,2.55.88.52,2.03.23,2.55-.65h0Z"/><path d="m223.25,36.83l-2,2c-.5.5-.1.9.7,1.6l-1.5,1.5c-2.4-2-2.4-3.3-.8-4.9l2-2-.9-.9,1.6-1.6.9.9,1.1-1.1,2.2,1.2-1.6,1.5,1.1,1.2-1.6,1.6-1.1-1.2-.1.2Z"/><path d="m227.15,41.83l-2.3,1.6c-.6.4-.3.9.3,1.7l-1.8,1.2c-2-2.4-1.7-3.7.1-4.9l2.3-1.6-.7-1.1,1.9-1.3.7,1.1,1.3-.8,1.9,1.6-1.8,1.2.9,1.4-1.9,1.3-.9-1.4Z"/><path d="m226.95,49.93c.2.53.59.96,1.1,1.2l-.4,2.2c-1.29-.39-2.31-1.41-2.7-2.7-.9-2.6.2-4.8,2.4-5.6,2.13-.82,4.53.24,5.35,2.37.02.04.03.09.05.13.76,2.08-.31,4.37-2.39,5.13-.07.03-.14.05-.21.07-.29.11-.59.18-.9.2l-1.9-5.3c-.63.55-.79,1.46-.4,2.2v.1Zm3.2.4c.65-.44.9-1.28.6-2-.18-.82-.98-1.35-1.8-1.2l1.2,3.2Z"/><path d="m234.85,58.83l-2.7.3c0-1-.5-2.3-2-2.2l-3.6.4-.2-2.4,7.9-.8.2,2.4h-1.4c1.01.38,1.72,1.32,1.8,2.4v-.1Z"/><path d="m233.75,68.93l-7.3-3.7c-2.4-1.2-3.2-2.7-2.8-4.9l2.2.3c-.1,1.1.1,1.7,1,2.1l7.9-2.1-.3,2.6-5,1.1,4.6,2.1-.3,2.5h0Z"/><path class="cls-23" d="m359.2,196.86c.6,0,1.19.02,1.79.03,1.01.01,1.85.83,1.86,1.85.01.93,0,1.87,0,2.8,0,7.91,0,15.81,0,23.72,0,.51-.02,1.04-.17,1.53-.19.59-.91,1.12-1.52,1.12-6.7,0-13.39,0-20.09,0-.03,0-.06,0-.09-.01,0-1.82,0-3.64,0-5.46,1.39,0,2.79,0,4.18-.01.18,0,.38.04.38-.25.01-.69.06-1.39-.1-2.06-.43-1.78-.95-3.54-1.4-5.32-.12-.48-.26-.95-.43-1.42-.27-.73.23-1.11.67-1.51.72-.66,1.02-1.49,1.19-2.44.36-1.99-1.32-4.38-3.22-4.99-.06-.1-.14-.15-.27-.1-.1-.02-.19-.04-.29-.06-.04-.06-.1-.08-.17-.04-.19-.03-.37-.05-.56-.08,0-2.42,0-4.84,0-7.25,3.43,0,6.86-.01,10.3-.02.21,0,.43-.02.64-.03,1.23.04,2.45.06,3.68,0,1.2.07,2.41.05,3.61,0Z"/><path class="cls-11" d="m340.97,222.44c0,1.82,0,3.64,0,5.46-.69,0-1.38.01-2.07.01-5.84,0-11.68-.03-17.52.02-1.54.01-2.33-.83-2.33-2.33.05-8.93.04-17.87,0-26.8,0-1.07.86-1.93,1.88-1.91.6.01,1.19-.01,1.79-.02,1.2.03,2.41.06,3.61-.02,1.23.07,2.45.04,3.68.02.2,0,.4.02.6.02,3.45,0,6.89.01,10.34.01,0,2.42,0,4.84,0,7.25-.39.18-.82.09-1.22.25-1.7.66-2.83,1.81-3.24,3.63-.07.04-.13.09-.04.16-.14,1.5.02,2.88,1.37,3.87.42.31.59.78.42,1.37-.11.36-.24.71-.33,1.08-.24,1-.5,2-.77,3-.19.74-.42,1.46-.6,2.2-.18.73-.13,1.48-.16,2.23-.01.38.09.5.48.49,1.36-.02,2.73,0,4.09,0Z"/><path class="cls-17" d="m326.36,196.85c-1.2.08-2.41.05-3.61.02,0-3.25-.03-6.5.02-9.75.02-1.5.22-2.99.66-4.45.53-1.76,1.27-3.4,2.28-4.92,1.26-1.9,2.82-3.53,4.69-4.86,1.22-.87,2.51-1.65,3.92-2.14,1.4-.49,2.82-.97,4.34-1.08.85-.06,1.69-.19,2.55-.17,2.12.04,4.17.46,6.16,1.2,1.99.75,3.78,1.83,5.41,3.19,1.4,1.17,2.56,2.55,3.54,4.08.69,1.08,1.24,2.24,1.71,3.44.26.66.43,1.35.66,2.02.21.61.25,1.28.32,1.92.42,3.83.1,7.67.2,11.51-1.2.04-2.41.06-3.61,0,0-2.74-.02-5.49.01-8.23.02-1.58-.18-3.12-.57-4.64-.54-2.14-1.54-4.07-2.98-5.72-1.77-2.02-3.91-3.54-6.51-4.37-1.84-.58-3.7-.77-5.64-.65-1.79.1-3.47.53-5.07,1.27-2.66,1.24-4.75,3.13-6.3,5.63-1.34,2.15-2.07,4.52-2.16,7.01-.12,3.23-.03,6.47-.02,9.7Z"/><path class="cls-8" d="m351.91,196.86c0-2.91.02-5.82,0-8.73-.02-1.55-.23-3.08-.85-4.52-.49-1.14-1.15-2.18-1.97-3.13-1.22-1.41-2.73-2.4-4.45-3.01-1.58-.57-3.25-.77-4.96-.55-1.04.13-2.05.37-3,.78-2.62,1.14-4.54,3.01-5.73,5.64-.56,1.23-.78,2.51-.85,3.84-.16,3.23-.02,6.46-.07,9.69-1.23.02-2.45.05-3.68-.02,0-3.23-.09-6.47.02-9.7.09-2.5.82-4.86,2.16-7.01,1.55-2.49,3.64-4.39,6.3-5.63,1.6-.74,3.28-1.17,5.07-1.27,1.93-.11,3.8.07,5.64.65,2.59.82,4.74,2.34,6.51,4.37,1.45,1.65,2.44,3.58,2.98,5.72.39,1.52.59,3.07.57,4.64-.03,2.74-.01,5.49-.01,8.23-1.23.06-2.45.05-3.68,0Z"/><path class="cls-12" d="m340.97,222.44c-1.36,0-2.73-.02-4.09,0-.39,0-.49-.12-.48-.49.03-.74-.02-1.5.16-2.23.18-.74.4-1.47.6-2.2.26-1,.53-1.99.77-3,.09-.37.22-.72.33-1.08.17-.59,0-1.06-.42-1.37-1.35-.99-1.5-2.37-1.37-3.87.07-.04.07-.1.04-.16.41-1.81,1.53-2.96,3.24-3.63.4-.16.84-.07,1.22-.25.19.03.37.05.55.08.04.1.08.15.17.04.1.02.19.04.29.06.05.13.16.1.27.1,1.9.61,3.57,3,3.22,4.99-.17.95-.47,1.78-1.19,2.44-.44.4-.94.78-.67,1.51.17.46.31.94.43,1.42.46,1.78.97,3.54,1.4,5.32.16.66.11,1.37.1,2.06,0,.29-.21.25-.38.25-1.39,0-2.79,0-4.18.01Z"/><path class="cls-8" d="m342.26,204.44c-.1,0-.21.03-.27-.1.12-.06.2,0,.27.1Z"/><path class="cls-8" d="m341.7,204.28c-.09.11-.13.06-.17-.04.07-.04.12-.02.17.04Z"/><path class="cls-17" d="m336.51,208.03c.04.07.04.12-.04.16-.09-.08-.04-.12.04-.16Z"/><circle class="cls-2" cx="341.13" cy="201.47" r="46.87"/><path class="cls-23" d="m217.23,340.86c.6,0,1.19.02,1.79.03,1.01.01,1.85.83,1.86,1.85.01.93,0,1.87,0,2.8,0,7.91,0,15.81,0,23.72,0,.51-.02,1.04-.17,1.53-.19.59-.91,1.12-1.52,1.12-6.7,0-13.39,0-20.09,0-.03,0-.06,0-.09-.01,0-1.82,0-3.64,0-5.46,1.39,0,2.79,0,4.18-.01.18,0,.38.04.38-.25.01-.69.06-1.39-.1-2.06-.43-1.78-.95-3.54-1.4-5.32-.12-.48-.26-.95-.43-1.42-.27-.73.23-1.11.67-1.51.72-.66,1.02-1.49,1.19-2.44.36-1.99-1.32-4.38-3.22-4.99-.06-.1-.14-.15-.27-.1-.1-.02-.19-.04-.29-.06-.04-.06-.1-.08-.17-.04-.19-.03-.37-.05-.56-.08,0-2.42,0-4.84,0-7.25,3.43,0,6.86-.01,10.3-.02.21,0,.43-.02.64-.03,1.23.04,2.45.06,3.68,0,1.2.07,2.41.05,3.61,0Z"/><path class="cls-11" d="m199,366.44c0,1.82,0,3.64,0,5.46-.69,0-1.38.01-2.07.01-5.84,0-11.68-.03-17.52.02-1.54.01-2.33-.83-2.33-2.33.05-8.93.04-17.87,0-26.8,0-1.07.86-1.93,1.88-1.91.6.01,1.19-.01,1.79-.02,1.2.03,2.41.06,3.61-.02,1.23.07,2.45.04,3.68.02.2,0,.4.02.6.02,3.45,0,6.89.01,10.34.01,0,2.42,0,4.84,0,7.25-.39.18-.82.09-1.22.25-1.7.66-2.83,1.81-3.24,3.63-.07.04-.13.09-.04.16-.14,1.5.02,2.88,1.37,3.87.42.31.59.78.42,1.37-.11.36-.24.71-.33,1.08-.24,1-.5,2-.77,3-.19.74-.42,1.46-.6,2.2-.18.73-.13,1.48-.16,2.23-.01.38.09.5.48.49,1.36-.02,2.73,0,4.09,0Z"/><path class="cls-17" d="m184.38,340.85c-1.2.08-2.41.05-3.61.02,0-3.25-.03-6.5.02-9.75.02-1.5.22-2.99.66-4.45.53-1.76,1.27-3.4,2.28-4.92,1.26-1.9,2.82-3.53,4.69-4.86,1.22-.87,2.51-1.65,3.92-2.14,1.4-.49,2.82-.97,4.34-1.08.85-.06,1.69-.19,2.55-.17,2.12.04,4.17.46,6.16,1.2,1.99.75,3.78,1.83,5.41,3.19,1.4,1.17,2.56,2.55,3.54,4.08.69,1.08,1.24,2.24,1.71,3.44.26.66.43,1.35.66,2.02.21.61.25,1.28.32,1.92.42,3.83.1,7.67.2,11.51-1.2.04-2.41.06-3.61,0,0-2.74-.02-5.49.01-8.23.02-1.58-.18-3.12-.57-4.64-.54-2.14-1.54-4.07-2.98-5.72-1.77-2.02-3.91-3.54-6.51-4.37-1.84-.58-3.7-.77-5.64-.65-1.79.1-3.47.53-5.07,1.27-2.66,1.24-4.75,3.13-6.3,5.63-1.34,2.15-2.07,4.52-2.16,7.01-.12,3.23-.03,6.47-.02,9.7Z"/><path class="cls-8" d="m209.94,340.86c0-2.91.02-5.82,0-8.73-.02-1.55-.23-3.08-.85-4.52-.49-1.14-1.15-2.18-1.97-3.13-1.22-1.41-2.73-2.4-4.45-3.01-1.58-.57-3.25-.77-4.96-.55-1.04.13-2.05.37-3,.78-2.62,1.14-4.54,3.01-5.73,5.64-.56,1.23-.78,2.51-.85,3.84-.16,3.23-.02,6.46-.07,9.69-1.23.02-2.45.05-3.68-.02,0-3.23-.09-6.47.02-9.7.09-2.5.82-4.86,2.16-7.01,1.55-2.49,3.64-4.39,6.3-5.63,1.6-.74,3.28-1.17,5.07-1.27,1.93-.11,3.8.07,5.64.65,2.59.82,4.74,2.34,6.51,4.37,1.45,1.65,2.44,3.58,2.98,5.72.39,1.52.59,3.07.57,4.64-.03,2.74-.01,5.49-.01,8.23-1.23.06-2.45.05-3.68,0Z"/><path class="cls-12" d="m199,366.44c-1.36,0-2.73-.02-4.09,0-.39,0-.49-.12-.48-.49.03-.74-.02-1.5.16-2.23.18-.74.4-1.47.6-2.2.26-1,.53-1.99.77-3,.09-.37.22-.72.33-1.08.17-.59,0-1.06-.42-1.37-1.35-.99-1.5-2.37-1.37-3.87.07-.04.07-.1.04-.16.41-1.81,1.53-2.96,3.24-3.63.4-.16.84-.07,1.22-.25.19.03.37.05.55.08.04.1.08.15.17.04.1.02.19.04.29.06.05.13.16.1.27.1,1.9.61,3.57,3,3.22,4.99-.17.95-.47,1.78-1.19,2.44-.44.4-.94.78-.67,1.51.17.46.31.94.43,1.42.46,1.78.97,3.54,1.4,5.32.16.66.11,1.37.1,2.06,0,.29-.21.25-.38.25-1.39,0-2.79,0-4.18.01Z"/><path class="cls-8" d="m200.28,348.44c-.1,0-.21.03-.27-.1.12-.06.2,0,.27.1Z"/><path class="cls-8" d="m199.72,348.28c-.09.11-.13.06-.17-.04.07-.04.12-.02.17.04Z"/><path class="cls-17" d="m194.54,352.03c.04.07.04.12-.04.16-.09-.08-.04-.12.04-.16Z"/><circle class="cls-2" cx="199.16" cy="345.47" r="46.87"/><path class="cls-23" d="m71.23,195.86c.6,0,1.19.02,1.79.03,1.01.01,1.85.83,1.86,1.85.01.93,0,1.87,0,2.8,0,7.91,0,15.81,0,23.72,0,.51-.02,1.04-.17,1.53-.19.59-.91,1.12-1.52,1.12-6.7,0-13.39,0-20.09,0-.03,0-.06,0-.09-.01,0-1.82,0-3.64,0-5.46,1.39,0,2.79,0,4.18-.01.18,0,.38.04.38-.25.01-.69.06-1.39-.1-2.06-.43-1.78-.95-3.54-1.4-5.32-.12-.48-.26-.95-.43-1.42-.27-.73.23-1.11.67-1.51.72-.66,1.02-1.49,1.19-2.44.36-1.99-1.32-4.38-3.22-4.99-.06-.1-.14-.15-.27-.1-.1-.02-.19-.04-.29-.06-.04-.06-.1-.08-.17-.04-.19-.03-.37-.05-.56-.08,0-2.42,0-4.84,0-7.25,3.43,0,6.86-.01,10.3-.02.21,0,.43-.02.64-.03,1.23.04,2.45.06,3.68,0,1.2.07,2.41.05,3.61,0Z"/><path class="cls-11" d="m53,221.44c0,1.82,0,3.64,0,5.46-.69,0-1.38.01-2.07.01-5.84,0-11.68-.03-17.52.02-1.54.01-2.33-.83-2.33-2.33.05-8.93.04-17.87,0-26.8,0-1.07.86-1.93,1.88-1.91.6.01,1.19-.01,1.79-.02,1.2.03,2.41.06,3.61-.02,1.23.07,2.45.04,3.68.02.2,0,.4.02.6.02,3.45,0,6.89.01,10.34.01,0,2.42,0,4.84,0,7.25-.39.18-.82.09-1.22.25-1.7.66-2.83,1.81-3.24,3.63-.07.04-.13.09-.04.16-.14,1.5.02,2.88,1.37,3.87.42.31.59.78.42,1.37-.11.36-.24.71-.33,1.08-.24,1-.5,2-.77,3-.19.74-.42,1.46-.6,2.2-.18.73-.13,1.48-.16,2.23-.01.38.09.5.48.49,1.36-.02,2.73,0,4.09,0Z"/><path class="cls-17" d="m38.38,195.85c-1.2.08-2.41.05-3.61.02,0-3.25-.03-6.5.02-9.75.02-1.5.22-2.99.66-4.45.53-1.76,1.27-3.4,2.28-4.92,1.26-1.9,2.82-3.53,4.69-4.86,1.22-.87,2.51-1.65,3.92-2.14,1.4-.49,2.82-.97,4.34-1.08.85-.06,1.69-.19,2.55-.17,2.12.04,4.17.46,6.16,1.2,1.99.75,3.78,1.83,5.41,3.19,1.4,1.17,2.56,2.55,3.54,4.08.69,1.08,1.24,2.24,1.71,3.44.26.66.43,1.35.66,2.02.21.61.25,1.28.32,1.92.42,3.83.1,7.67.2,11.51-1.2.04-2.41.06-3.61,0,0-2.74-.02-5.49.01-8.23.02-1.58-.18-3.12-.57-4.64-.54-2.14-1.54-4.07-2.98-5.72-1.77-2.02-3.91-3.54-6.51-4.37-1.84-.58-3.7-.77-5.64-.65-1.79.1-3.47.53-5.07,1.27-2.66,1.24-4.75,3.13-6.3,5.63-1.34,2.15-2.07,4.52-2.16,7.01-.12,3.23-.03,6.47-.02,9.7Z"/><path class="cls-8" d="m63.94,195.86c0-2.91.02-5.82,0-8.73-.02-1.55-.23-3.08-.85-4.52-.49-1.14-1.15-2.18-1.97-3.13-1.22-1.41-2.73-2.4-4.45-3.01-1.58-.57-3.25-.77-4.96-.55-1.04.13-2.05.37-3,.78-2.62,1.14-4.54,3.01-5.73,5.64-.56,1.23-.78,2.51-.85,3.84-.16,3.23-.02,6.46-.07,9.69-1.23.02-2.45.05-3.68-.02,0-3.23-.09-6.47.02-9.7.09-2.5.82-4.86,2.16-7.01,1.55-2.49,3.64-4.39,6.3-5.63,1.6-.74,3.28-1.17,5.07-1.27,1.93-.11,3.8.07,5.64.65,2.59.82,4.74,2.34,6.51,4.37,1.45,1.65,2.44,3.58,2.98,5.72.39,1.52.59,3.07.57,4.64-.03,2.74-.01,5.49-.01,8.23-1.23.06-2.45.05-3.68,0Z"/><path class="cls-12" d="m53,221.44c-1.36,0-2.73-.02-4.09,0-.39,0-.49-.12-.48-.49.03-.74-.02-1.5.16-2.23.18-.74.4-1.47.6-2.2.26-1,.53-1.99.77-3,.09-.37.22-.72.33-1.08.17-.59,0-1.06-.42-1.37-1.35-.99-1.5-2.37-1.37-3.87.07-.04.07-.1.04-.16.41-1.81,1.53-2.96,3.24-3.63.4-.16.84-.07,1.22-.25.19.03.37.05.55.08.04.1.08.15.17.04.1.02.19.04.29.06.05.13.16.1.27.1,1.9.61,3.57,3,3.22,4.99-.17.95-.47,1.78-1.19,2.44-.44.4-.94.78-.67,1.51.17.46.31.94.43,1.42.46,1.78.97,3.54,1.4,5.32.16.66.11,1.37.1,2.06,0,.29-.21.25-.38.25-1.39,0-2.79,0-4.18.01Z"/><path class="cls-8" d="m54.28,203.44c-.1,0-.21.03-.27-.1.12-.06.2,0,.27.1Z"/><path class="cls-8" d="m53.72,203.28c-.09.11-.13.06-.17-.04.07-.04.12-.02.17.04Z"/><path class="cls-17" d="m48.54,207.03c.04.07.04.12-.04.16-.09-.08-.04-.12.04-.16Z"/><circle class="cls-2" cx="53.16" cy="200.47" r="46.87"/></svg>