<?xml version="1.0" encoding="UTF-8"?><svg id="Layer_1" xmlns="http://www.w3.org/2000/svg" viewBox="0 0 400 400"><defs><style>.cls-1{stroke:#a5262d;}.cls-1,.cls-2,.cls-3{stroke-width:4px;}.cls-1,.cls-2,.cls-3,.cls-4{stroke-miterlimit:10;}.cls-1,.cls-2,.cls-3,.cls-4,.cls-5{fill:none;}.cls-2{stroke:#0018c6;}.cls-6{fill:#3b66c8;}.cls-7{fill:#0c4a4e;}.cls-8{fill:#4483e7;}.cls-3{stroke:#c000e2;}.cls-9{fill:#d9cfca;}.cls-10{fill:#e5dedc;}.cls-11{fill:#97f8fe;}.cls-12{fill:#f1efef;}.cls-13{fill:#bfd6e5;}.cls-14{fill:#fe7038;}.cls-15{fill:#d7eafb;}.cls-16{fill:#c69c6d;}.cls-17{fill:#152433;}.cls-4{stroke:#231f20;stroke-width:2px;}.cls-18{fill:#fe415d;}.cls-19{fill:#3f79d4;}.cls-20{fill:#fc98c7;}.cls-21{fill:#23e6bf;}.cls-22{fill:#e6dedc;}.cls-23{fill:#e0edf9;}.cls-24{fill:#484645;}.cls-25{fill:#8caabd;}.cls-26{fill:#b3b3b3;}.cls-27{fill:#d0c8c3;}.cls-28{fill:#33b1cb;}.cls-29{fill:#bdd5e5;}.cls-30{fill:#ecf6fe;}.cls-31{fill:#3b66c9;}.cls-32{fill:#7dd4f3;}.cls-33{fill:#231f20;}.cls-34{fill:#fce00f;}.cls-35{fill:#90ebfe;}.cls-36{fill:#33b1cc;}.cls-37{fill:#86cde8;}</style></defs><line class="cls-5" x1="199.08" y1="110.86" x2="199.58" y2="143.64"/><line class="cls-4" x1="199.08" y1="110.86" x2="199.41" y2="132.88"/><polygon class="cls-33" points="191.91 130.8 199.58 143.64 206.87 130.58 191.91 130.8"/><line class="cls-5" x1="117.48" y1="106.6" x2="166.13" y2="145.9"/><line class="cls-4" x1="117.48" y1="106.6" x2="157.76" y2="139.14"/><polygon class="cls-33" points="151.35 143.58 166.13 145.91 160.76 131.95 151.35 143.58"/><line class="cls-5" x1="280.13" y1="106.6" x2="231.48" y2="145.9"/><line class="cls-4" x1="280.13" y1="106.6" x2="239.85" y2="139.14"/><polygon class="cls-33" points="236.85 131.95 231.48 145.9 246.26 143.58 236.85 131.95"/><circle class="cls-1" cx="91.11" cy="57.26" r="45"/><path d="m65.01,41.66l1-3c1.15.63,2.58.43,3.5-.5,1.1-1,1-1.7.7-2.1-.6-.6-1.4-.4-3.4.6s-4.1,1.5-5.9-.5c-1.8-2-1.1-4.7.7-6.3,1.58-1.5,3.91-1.9,5.9-1l-1,3c-.95-.52-2.13-.36-2.9.4-.8.7-.8,1.4-.4,1.8s1,.6,3-.4,4.3-1.9,6.2.3c1.8,2,1.2,4.7-1.1,6.7-2.3,2-4.5,2.1-6.5,1.1l.2-.1Z"/><path d="m70.01,25.76c-.44-.88-.08-1.96.8-2.4s1.96-.08,2.4.8.08,1.96-.8,2.4h0c-.89.39-1.92.04-2.4-.8Zm1.5,2.3l2.7-1.4,4.5,8.9-2.7,1.4-4.5-8.9Z"/><path d="m75.81,21.06l2.9-.9,4.5,13.9-2.9.9-4.5-13.9Z"/><path d="m82.41,21.17c-.16-.99.51-1.93,1.5-2.09.99-.16,1.93.51,2.09,1.5.16.99-.5,1.92-1.49,2.09-.98.17-1.92-.49-2.1-1.47,0,0,0-.02,0-.03Zm.7,2.6l3-.5,1.6,9.9-3,.5-1.6-9.9Z"/><path d="m89.01,27.76c.13-2.85,2.55-5.06,5.41-4.92.1,0,.2.01.29.02,1.86.09,3.52,1.21,4.3,2.9l-2.7,1.3c-.53-1.13-1.88-1.62-3.01-1.09-.74.35-1.24,1.07-1.29,1.89-.16,1.22.7,2.33,1.92,2.48.06,0,.12.01.18.02.8.07,1.58-.31,2-1l2.5,1.7c-1.02,1.56-2.84,2.41-4.7,2.2-2.88-.17-5.08-2.65-4.91-5.53,0-.06,0-.11.01-.17v.2Z"/><path d="m99.91,28.76c1.13-2.68,4.22-3.94,6.9-2.81,2.68,1.13,3.94,4.22,2.81,6.9-1.13,2.68-4.22,3.94-6.9,2.81,0,0,0,0,0,0-2.66-1.09-3.94-4.14-2.84-6.8.01-.03.03-.07.04-.1Zm7,2.9c.53-1.17.02-2.54-1.14-3.08-.02,0-.04-.02-.06-.02-1.11-.5-2.42,0-2.92,1.11-.03.06-.05.13-.08.19-.56,1.1-.11,2.45.99,3.01.07.03.14.06.21.09,1.11.5,2.42,0,2.92-1.11.03-.06.05-.13.08-.19Z"/><path d="m119.41,39.86l-4.2,4.5-2.2-2,3.9-4.2c.69-.6.76-1.65.16-2.34-.05-.06-.1-.11-.16-.16-.72-.71-1.87-.7-2.57.02-.08.09-.16.18-.23.28l-3.7,4-2.2-2,6.8-7.4,2.2,2-.6.7c1.07-.18,2.17.19,2.9,1,1.5,1.4,1.8,3.6,0,5.6h-.1Z"/><rect class="cls-16" x="64.21" y="47.76" width="52" height="37" rx="2.9" ry="2.9"/><path class="cls-24" d="m86.41,78.86c-2.18.11-4.34-.45-6.2-1.6-1.58-1.02-2.78-2.53-3.4-4.3l5.2-3c.69,1.97,2.62,3.24,4.7,3.1,2.3,0,2.8-.5,2.8-1.6s-.5-1.2-1.6-1.7c-.97-.38-1.98-.68-3-.9-1.91-.44-3.66-1.37-5.1-2.7-1.32-1.19-2.02-2.93-1.9-4.7-.03-2.02.81-3.95,2.3-5.3,1.65-1.39,3.77-2.11,5.92-1.99,1.87-.07,3.71.42,5.3,1.4,1.54.96,2.76,2.35,3.5,4l-5.1,3c-.5-1.61-2.02-2.67-3.7-2.6-1.7,0-1.3.1-1.6.4-.36.25-.59.66-.6,1.1.05.54.34,1.02.8,1.3,1,.59,2.08,1.03,3.2,1.3,1.1.4,2,.7,2.8,1,.8.34,1.56.74,2.3,1.2.78.55,1.43,1.26,1.9,2.1.41.95.61,1.97.6,3,.11,2.1-.83,4.12-2.5,5.4-1.87,1.4-4.17,2.11-6.5,2l-.12.09Z"/><path class="cls-24" d="m102.61,59.17c-.6.63-1.43.99-2.3,1-1.79.03-3.27-1.4-3.31-3.19-.02-.91.35-1.78,1.01-2.41.61-.6,1.44-.92,2.3-.9.85,0,1.68.32,2.3.9.63.6.99,1.43,1,2.3.02.88-.35,1.72-1,2.3Zm-5.1,19.2v-16.91h5.62v16.9h-5.62Z"/><circle class="cls-1" cx="199.99" cy="57.26" r="45"/><rect class="cls-26" x="173.99" y="47.26" width="52" height="37" rx="2.9" ry="2.9"/><path class="cls-24" d="m200.8,77.56l-1.1-3.4h-8l-1,3.4h-6.5l7.5-23.6h7.6l7.8,23.6h-6.3Zm-7.6-8.6h4.8l-2.4-8-2.4,8Z"/><path class="cls-24" d="m208.49,77.56v-24.7h5.63v24.7h-5.63Z"/><path d="m176.13,35.96l-2.4,3.1,1,1.4-1.6,2.1-6.1-9.3,1.9-2.4,10.5,3.7-1.6,2.1-1.6-.6-.1-.1Zm-2.2-.8l-3.8-1.4,2.3,3.3,1.5-1.9Z"/><path d="m172.8,26.17l1.7-1.4,7,8.4-1.7,1.4-7-8.4Z"/><path d="m184.99,22.36l3.6,6.6-2,1.1-.3-.6c-.11.81-.64,1.49-1.4,1.8-1.33.74-3.01.25-3.75-1.08-.06-.1-.11-.21-.15-.32l-2.2-4,2-1.1,2,3.8c.29.65,1.06.94,1.71.65.03-.01.06-.03.09-.05.67-.32.95-1.12.63-1.79-.04-.07-.08-.15-.13-.21l-2-3.6,2-1.1-.1-.1Z"/><path d="m199.6,21.86l.8,4.5-2.2.4-.8-4.3c-.03-.6-.54-1.05-1.14-1.02-.06,0-.11.01-.16.02-.7.1-1.1.7-.9,1.6l.7,4.2-2.2.4-.8-4.3c-.03-.6-.54-1.05-1.14-1.02-.06,0-.11.01-.16.02-.7.1-1.1.7-.9,1.6l.7,4.2-2.2.4-1.3-7.4,2.2-.4v.7c.41-.67,1.12-1.11,1.9-1.2.76-.23,1.58,0,2.1.6.37-.79,1.13-1.33,2-1.4,1.7-.3,3,.7,3.3,2.6l.2-.2Z"/><path d="m201.9,19.46l2.2.2-.6,7.5-2.2-.2.6-7.5Zm0-2c.08-.75.75-1.29,1.5-1.2.75.08,1.29.75,1.2,1.5s-.75,1.29-1.5,1.2c0,0,0,0,0,0-.72-.05-1.26-.66-1.21-1.38,0-.04,0-.08.01-.12Z"/><path d="m212.9,24.56l-1.2,4.4-2.2-.6,1.1-4.1c.24-.68-.11-1.42-.78-1.66-.04-.01-.08-.03-.12-.04-.69-.26-1.46.08-1.72.76-.04.11-.07.22-.08.34l-1.1,3.9-2.2-.6,2-7.2,2.2.6-.2.7c.67-.47,1.53-.58,2.3-.3,1.49.39,2.38,1.91,2,3.4-.03.1-.06.2-.1.3l.1.1Z"/><path d="m222.49,26.56l-3.8,6.4-1.9-1.2.4-.6c-.77.29-1.63.18-2.3-.3-1.32-.77-1.78-2.46-1.01-3.78.06-.11.13-.22.21-.32l2.4-4,1.9,1.2-2.2,3.7c-.41.5-.34,1.24.16,1.65.07.06.15.11.24.15.63.41,1.48.23,1.89-.4.04-.06.08-.13.11-.2l2.1-3.5,1.9,1.2h-.1Z"/><path d="m230.3,38.86l-3.5,3-1.5-1.7,3.4-2.9c.6-.5.7-1.1.2-1.6-.43-.5-1.18-.55-1.68-.12-.04.04-.08.08-.12.12l-3.2,2.7-1.5-1.7,3.4-2.9c.6-.5.7-1.1.2-1.6-.43-.5-1.18-.55-1.68-.12-.04.04-.08.08-.12.12l-3.2,2.7-1.5-1.7,5.7-4.9,1.5,1.7-.5.4c.76,0,1.49.34,2,.9.54.56.73,1.36.5,2.1.85-.02,1.66.35,2.2,1,1.03,1.19.9,3-.29,4.03-.07.06-.14.11-.21.17l-.1.3Z"/><circle class="cls-1" cx="308.89" cy="56.94" r="45"/><path class="cls-37" d="m278.89,59.24v-.6c.31-.48.83-.78,1.4-.8,1.39-.15,2.46-1.3,2.5-2.7v-.5c.05-.45.46-.77.91-.72.03,0,.06,0,.09.02.46-.01.86.34.9.8-.02.27.02.54.1.8.21,1.11,1.09,1.99,2.2,2.2.7.2.7.1.7-.6v-13.5c-.06-.38.2-.74.58-.8.07-.01.15-.01.22,0h30.63c0,.3-.3.4-.5.6l-7.2,7.2c-.2.17-.36.38-.5.6-.19.4-.11.88.2,1.2.32.33.83.37,1.2.1.21-.11.39-.29.5-.5l8.3-8.3c.29-.27.5-.62.6-1h3.4c0,.3-.3.4-.5.6l-13.3,13.3-.5.5c-.25.29-.25.71,0,1,.16.35.52.55.9.5.33-.05.64-.19.9-.4l14.6-14.6c.29-.21.48-.54.5-.9h1.1c1,0,.9-.1.9.9v28.3q0,.8.8.6c1.27-.35,2.16-1.49,2.2-2.8-.06-.49.29-.94.79-1,.07,0,.14,0,.21,0,.6,0,.9.4,1,1,.05,1.54,1.26,2.8,2.8,2.9.52,0,1,.32,1.2.8v.6c-.22.41-.64.67-1.1.7-1.57.04-2.81,1.33-2.8,2.9-.03.34-.17.65-.4.9-.25.23-.61.27-.9.1-.38-.12-.63-.5-.6-.9-.2-1.6-.9-2.6-2.3-2.9-.7-.2-.7-.1-.7.6v12.6c0,.53-.24.8-.7.8h-21.6c0-.3.3-.4.5-.6l7.5-7.5c.5-.6.6-1.1.1-1.5-.39-.38-1.01-.38-1.4,0l-.1.1-8.7,8.7c-.25.25-.42.56-.5.9h-3.4c0-.3.3-.4.5-.6l13.3-13.3c.2-.17.36-.38.5-.6.24-.39.16-.91-.2-1.2-.31-.33-.83-.35-1.16-.04-.01.01-.03.03-.04.04-.1,0-.2.2-.3.3l-14.63,14.63c-.26.24-.44.55-.5.9h-10.1c-.44.06-.84-.25-.9-.69,0-.07,0-.14,0-.21v-27.53c0-.7,0-.8-.7-.6-1.32.36-2.25,1.54-2.3,2.9.03.52-.36.97-.88,1-.04,0-.08,0-.12,0-.55,0-1-.45-1-1v-.3c-.14-1.41-1.28-2.51-2.7-2.6-.52-.02-.99-.28-1.3-.7l-.2-.1Zm5,.6c.37-.22.68-.53.9-.9-.27-.36-.58-.69-.9-1-.35.25-.65.55-.9.9.25.35.55.65.9.9h0v.1Zm50.9,14.2c-.19-.39-.51-.71-.9-.9-.35.25-.65.55-.9.9l.9.9.9-.9Z"/><path class="cls-36" d="m325.3,43.04c.3-.11.54-.32.7-.6.8-.8,1.6-.6,1.9.5-.04.35-.22.68-.5.9l-14.6,14.6c-.21.28-.55.43-.9.4-.37,0-.71-.19-.9-.5-.2-.3-.2-.7,0-1,.11-.21.29-.39.5-.5l13.3-13.3c.2-.2.4-.3.5-.6v.1Z"/><path class="cls-28" d="m301.49,88.84c-.3.1-.5.4-.8.6-.8.7-1.6.5-1.8-.6.02-.36.21-.69.5-.9l14.6-14.6.3-.3c.36-.25.84-.25,1.2,0,.36.29.44.81.2,1.2-.14.22-.3.43-.5.6l-13.3,13.33c-.2.2-.4.3-.5.6l.1.07Z"/><path class="cls-36" d="m319.2,43.04c.2,0,.4-.2.6-.4,1-1,1.6-.8,2.1.4-.08.39-.29.75-.6,1l-8.3,8.3-.5.5c-.37.27-.88.23-1.2-.1-.38-.25-.49-.77-.24-1.15.01-.02.02-.03.04-.05.11-.24.28-.45.5-.6l7.2-7.2c.2-.2.4-.3.5-.6l-.1-.1Z"/><path class="cls-36" d="m307.49,88.94c-.3.11-.54.32-.7.6-.8.8-1.6.5-1.9-.5.02-.33.21-.63.5-.8l8.7-8.7c.25-.43.8-.58,1.23-.33.06.04.12.08.17.13l.1.1c.39.39.39,1.02,0,1.41-.03.03-.06.06-.1.09l-7.5,7.5c-.2.2-.4.3-.4.6l-.1-.1Z"/><path d="m297.2,26.74c2.03,2.82,1.4,6.75-1.41,8.78-.16.11-.32.22-.49.32-2.98,2.46-7.39,2.05-9.86-.93-2.46-2.98-2.05-7.39.93-9.86.38-.31.79-.58,1.22-.81,1.95-1.32,4.44-1.55,6.6-.6l-1.4,2.7c-1.21-.46-2.57-.27-3.6.5-1.8,1.08-2.37,3.42-1.29,5.22.06.1.12.19.19.28,1.2,1.9,3.5,2.4,5.7,1,1.3-.69,2-2.16,1.7-3.6l-3,1.9-1.5-2.2,5.6-3.7.6,1Z"/><path d="m298.13,19.04l2.8-.7,3.5,13.5-2.8.7-3.5-13.5Z"/><path d="m315.6,21.84l-.2,9.6h-2.9v-1c-.76.77-1.82,1.18-2.9,1.1-2.5,0-4.5-2.3-4.5-5.1-.09-2.62,1.96-4.81,4.58-4.9.04,0,.08,0,.12,0,1.07-.05,2.1.39,2.8,1.2v-.9s3,0,3,0Zm-3,4.7c.1-1.22-.8-2.29-2.01-2.39-.06,0-.13,0-.19,0-1.18-.09-2.21.8-2.3,1.99,0,.1,0,.21,0,.31-.1,1.22.8,2.29,2.01,2.39.06,0,.13,0,.19,0,1.18.09,2.21-.8,2.3-1.99,0-.1,0-.21,0-.31Z"/><path d="m324.3,31.74c-.8,2.1-2.9,2.3-4.8,1.6-1.65-.49-2.86-1.9-3.1-3.6l2.8-.5c-.07.73.39,1.4,1.1,1.6.6.2,1,.2,1.2-.2.4-1-4.2-2.1-3.1-5.2.7-2,2.7-2.3,4.6-1.6,1.45.47,2.53,1.7,2.8,3.2l-2.8.4c.03-.56-.35-1.07-.9-1.2-.5-.2-.8-.1-.9.2-.4,1,4.3,2,3.1,5.3Z"/><path d="m330.99,36.54c-1.3,1.8-3.4,1.4-5.1.2-1.46-.91-2.25-2.6-2-4.3l2.8.3c-.22.72.06,1.5.7,1.9.6.4,1,.4,1.2.1.6-.9-3.5-3.2-1.6-5.8,1.2-1.7,3.3-1.5,4.9-.3,1.27.82,1.97,2.29,1.8,3.8l-2.8-.4c0-.6,0-1.1-.5-1.4s-.8-.3-1,0c-.6.9,3.6,3.1,1.5,5.9h.1Z"/><circle class="cls-2" cx="199.27" cy="194.43" r="45"/><path class="cls-8" d="m189.18,202.53v-24c-.15-1.22.55-2.38,1.7-2.8h21.7c0,.2.2.2.3.3.61.44.98,1.15,1,1.9v8.6c-.51-.77-1.38-1.22-2.3-1.2-.93.03-1.77.57-2.2,1.4-.48.89-.32,1.99.4,2.7.59.7,1.5,1.04,2.4.9.67-.17,1.27-.56,1.7-1.1v5.8l-.3-.3c-1.03-.96-2.64-.9-3.6.13-.96,1.03-.9,2.64.13,3.6.02.02.05.04.07.07,1.1.9,2.5.7,3.7-.5.2.1.1.4.1.5v4.3c.02.34-.02.67-.1,1-.3,1.3-.6,2.5-1,3.7-.13.8-.36,1.57-.7,2.3v-.6c.13-1.3-.81-2.47-2.12-2.6-.16-.02-.32-.02-.48,0-1.37.04-2.44,1.19-2.4,2.56.02.57.23,1.11.6,1.54.61.78,1.65,1.1,2.6.8.83-.25,1.5-.88,1.8-1.7v.5c-.4,1.6-.9,3.2-1.3,4.7h-26.1c1-2.7,2.1-5.5,3.1-8.2.4-.9.7-1.8,1.1-2.8h23c.5,0,.7-.3.7-.8s-.3-.8-1-.8h-22.3l-.2.1Zm6.2-17.1c-1.38,0-2.5,1.12-2.5,2.5,0,.03,0,.07,0,.1.03,1.41,1.19,2.52,2.6,2.5,1.38,0,2.5-1.12,2.5-2.5s-1.12-2.5-2.5-2.5h0l-.1-.1Zm8.2,8.7c-1.41-.02-2.57,1.09-2.6,2.5-.01,1.37,1.09,2.49,2.46,2.5.01,0,.03,0,.04,0,1.41.02,2.57-1.09,2.6-2.5.06-1.3-.95-2.4-2.25-2.46-.08,0-.16,0-.25,0v-.04Zm-7.8,15.2c0-1.38-1.12-2.5-2.5-2.5s-2.5,1.12-2.5,2.5c-.02,1.41,1.09,2.57,2.5,2.6,1.37.01,2.49-1.09,2.5-2.46,0-.01,0-.03,0-.04v-.1Zm10.3-21.3c0-1.38-1.12-2.5-2.5-2.5s-2.5,1.12-2.5,2.5c-.02,1.41,1.09,2.57,2.5,2.6,1.37.04,2.51-1.04,2.55-2.41,0-.02,0-.03,0-.05l-.05-.14Zm-10.6,6.1c-1.38,0-2.5,1.12-2.5,2.5s1.12,2.5,2.5,2.5c1.39-.01,2.53-1.11,2.6-2.5.01-1.37-1.09-2.49-2.46-2.5-.01,0-.03,0-.04,0h-.1Zm8.5,15.2c0-1.38-1.12-2.5-2.5-2.5s-2.5,1.12-2.5,2.5,1.12,2.5,2.5,2.5c1.37.01,2.49-1.09,2.5-2.46,0-.01,0-.03,0-.04Zm.2-28.8h1.95c.6,0,.8-.2.8-.8s-.2-.7-.8-.7h-3.7c-.45-.04-.85.29-.9.74,0,.02,0,.04,0,.06,0,.4.3.7.9.8h1.8l-.05-.1Zm-5.9-.8c0,.5.2.8.7.8s.7-.3.7-.8c.03-.41-.27-.77-.67-.8-.04,0-.08,0-.13,0-.5,0-.7.2-.7.8h.1Z"/><path class="cls-30" d="m182.38,228.43c-.8-.4-1.5-.8-1.7-1.7-.16-.73-.02-1.49.4-2.1.6-1.5,1.1-2.9,1.7-4.4h26.4v.5c-.5,1.7-1,3.5-1.4,5.2-.15,1.05-.77,1.98-1.7,2.5h-23.7Zm13.8-2.9h2.95c.68.09,1.3-.39,1.39-1.07.01-.08.01-.15,0-.23.05-.72-.49-1.35-1.21-1.4-.06,0-.12,0-.19,0h-5.9c-.75-.03-1.37.55-1.4,1.3,0,0,0,0,0,0,0,.71.56,1.3,1.28,1.3.04,0,.08,0,.12,0h2.9l.05.1Z"/><path class="cls-19" d="m216.48,175.73c1.3.5,1.6,1.5,1.6,2.8v23.7c-.08,1.16-.31,2.3-.7,3.4-.8,3-1.7,6-2.5,9.1-.03.15-.09.29-.2.4h-4.1c.4-1.6.9-3.2,1.3-4.7v-.5h0c.34-.73.57-1.5.7-2.3.4-1.2.7-2.5,1-3.7,0-.3.1-.7.1-1v-4.3c.03-.17,0-.35-.1-.5.6-.91.6-2.09,0-3,.1-.1,0-.2,0-.4v-5.4c.45-.84.45-1.86,0-2.7v-8.6c-.02-.75-.39-1.46-1-1.9-.16,0-.29-.14-.3-.3h4l.2-.1Z"/><path class="cls-23" d="m205.88,228.43h0c.94-.5,1.58-1.44,1.7-2.5.5-1.7.9-3.5,1.4-5.2v-.5h4.3c-.6,2.2-1.2,4.3-1.8,6.5-.23.83-.87,1.47-1.7,1.7h-3.9Z"/><path class="cls-29" d="m213.38,220.23h-30.7c.6-1.7,1.2-3.4,1.9-4.9h30.2c-.5,1.7-.9,3.4-1.4,5v-.1Z"/><path class="cls-13" d="m178.88,186.63h-1.75c-.41.07-.83-.08-1.1-.4-.2-.3-.1-.5,0-.8.14-.26.41-.41.7-.4,1.4,0,2.7,0,4.1-.1.6,0,.9.3.9.8,0,1.4,0,2.8-.1,4.2,0,.45-.38.81-.84.8-.02,0-.04,0-.06,0-.39.02-.71-.28-.73-.67,0-.08,0-.16.03-.23-.01-.73.02-1.47.1-2.2-.57.65-1.07,1.35-1.5,2.1-1.06,1.77-1.74,3.75-2,5.8-.4,3.4.3,6.83,2,9.8.65,1.08,1.42,2.09,2.3,3,.3.4.4.9,0,1.2-.33.27-.82.23-1.1-.1-2.56-2.45-4.21-5.69-4.7-9.2-.78-4.56.38-9.24,3.2-12.9.1-.2.3-.4.4-.6v-.2l.15.1Z"/><path class="cls-31" d="m189.18,202.53h22.3c.7,0,1,.3,1,.8.05.39-.23.74-.61.79-.03,0-.06,0-.09,0h-23c.2-.51.3-1.05.3-1.6h.1Z"/><path class="cls-34" d="m195.38,185.43c1.38,0,2.5,1.12,2.5,2.5s-1.12,2.5-2.5,2.5c-1.41.02-2.57-1.09-2.6-2.5.01-1.39,1.11-2.53,2.5-2.6l.1.1Z"/><path class="cls-34" d="m213.77,195.17c.6.91.6,2.09,0,3-1.2,1.2-2.6,1.4-3.7.5-1.09-.95-1.22-2.59-.3-3.7.96-1.05,2.58-1.12,3.63-.17.02.02.05.04.07.07l.3.3Z"/><path class="cls-35" d="m203.48,194.03c1.38.03,2.48,1.17,2.45,2.55-.03,1.38-1.17,2.48-2.55,2.45-1.37-.02-2.48-1.13-2.5-2.5,0-1.38,1.12-2.5,2.5-2.5.03,0,.07,0,.1,0Z"/><path class="cls-20" d="m195.77,209.23c-.03,1.41-1.19,2.53-2.6,2.5-1.41-.03-2.53-1.19-2.5-2.6.03-1.41,1.19-2.53,2.6-2.5,1.37.03,2.47,1.13,2.5,2.5v.1Z"/><path class="cls-20" d="m205.98,187.93c.01,1.37-1.09,2.49-2.46,2.5-.01,0-.03,0-.04,0-1.41-.03-2.52-1.19-2.5-2.6,0-1.38,1.12-2.5,2.5-2.5s2.5,1.12,2.5,2.5v.1Z"/><path class="cls-15" d="m195.38,194.03c1.41.03,2.53,1.19,2.5,2.6-.03,1.41-1.19,2.53-2.6,2.5s-2.53-1.19-2.5-2.6c.03-1.37,1.13-2.47,2.5-2.5h.1Z"/><path class="cls-15" d="m203.88,209.23c0,1.38-1.12,2.5-2.5,2.5s-2.5-1.12-2.5-2.5,1.12-2.5,2.5-2.5c1.37-.01,2.49,1.09,2.5,2.46,0,.01,0,.03,0,.04Z"/><path class="cls-21" d="m211.98,209.93h0c-.3.82-.97,1.45-1.8,1.7-.95.32-2,0-2.6-.8-.62-.72-.77-1.73-.4-2.6.34-.92,1.22-1.52,2.2-1.5,1.33-.1,2.5.89,2.6,2.23,0,.12,0,.25,0,.37v.6Z"/><path class="cls-21" d="m213.77,186.53c.4.86.4,1.84,0,2.7-.41.56-1.02.96-1.7,1.1-.91.23-1.87-.13-2.4-.9-.67-.74-.82-1.8-.4-2.7.38-.87,1.25-1.42,2.2-1.4.92-.02,1.79.43,2.3,1.2Z"/><path class="cls-6" d="m204.13,180.43h-1.8c-.45.04-.85-.29-.9-.74,0-.02,0-.04,0-.06,0-.5.3-.8.9-.8h3.7c.6,0,.8.2.8.7s-.2.8-.8.8h-1.9v.1Z"/><path class="cls-6" d="m198.18,179.63c0-.5.2-.8.7-.8.41-.03.77.27.8.67,0,.04,0,.08,0,.13.05.39-.23.74-.61.79-.03,0-.06,0-.09,0-.5,0-.7-.3-.7-.8h-.1Z"/><path class="cls-25" d="m196.13,225.53h-2.9c-.75.03-1.37-.55-1.4-1.3,0,0,0,0,0,0,.06-.73.67-1.29,1.4-1.3h5.9c.72-.05,1.35.49,1.4,1.21,0,.06,0,.12,0,.19,0,.71-.56,1.3-1.28,1.3-.04,0-.08,0-.12,0h-2.9l-.1-.1Z"/><path d="m161.98,186.03l2,.5,1-3.8,2.2.6-1,3.8,3.7,1-.6,2.3-10.1-2.8,1.7-6.1,2.2.6-1.1,3.8v.1Z"/><path d="m167.77,182.17c-1.93-1.07-2.63-3.5-1.56-5.44s3.5-2.63,5.44-1.56c1.93,1.07,2.63,3.5,1.56,5.44-.01.02-.02.04-.04.06-1.04,1.9-3.43,2.59-5.32,1.54-.03-.01-.05-.03-.08-.04Zm2.9-4.9c-.83-.49-1.9-.22-2.4.6-.49.78-.26,1.81.52,2.3.06.04.12.07.18.1.83.49,1.9.22,2.4-.6.51-.77.3-1.81-.47-2.31-.07-.05-.15-.09-.23-.13v.04Z"/><path d="m167.48,169.43l1.5-1.7,8.2,7.2-1.5,1.7-8.2-7.2Z"/><path d="m177.58,160.93l6.4,8.4-1.8,1.4-.4-.6c-.03.86-.48,1.64-1.2,2.1-1.73,1.19-4.1.75-5.28-.98,0,0-.01-.02-.02-.02-1.33-1.53-1.17-3.85.35-5.18.05-.04.1-.08.15-.12.63-.55,1.48-.78,2.3-.6l-2.2-2.9,1.8-1.4-.1-.1Zm2.3,6.7c-.52-.79-1.58-1.01-2.37-.5-.05.03-.09.06-.13.1-.76.52-.96,1.56-.44,2.32.04.06.09.12.14.18.52.79,1.58,1.01,2.37.5.05-.03.09-.06.13-.1.76-.52.96-1.56.44-2.32-.04-.06-.09-.12-.14-.18h0Z"/><path d="m189.27,159.03l2.7,7-2.1.8-.3-.7c-.33.8-.98,1.42-1.8,1.7-1.99.66-4.13-.41-4.8-2.4-.87-1.86-.07-4.08,1.79-4.95.04-.02.08-.03.11-.05.76-.35,1.64-.35,2.4,0l-.3-.7,2.1-.8.2.1Zm-.7,4.3c-.4-.9-1.46-1.29-2.35-.89-.9.4-1.29,1.46-.89,2.35.39.85,1.37,1.26,2.24.94.92-.34,1.39-1.35,1.05-2.27-.02-.04-.03-.09-.05-.13Z"/><path d="m200.68,161.43c.29,2.02-1.11,3.9-3.13,4.19-.02,0-.04,0-.07,0-.83.08-1.65-.17-2.3-.7v.7l-2.2.2-.9-10.5,2.2-.2.3,3.7c.54-.67,1.34-1.07,2.2-1.1,2-.2,3.7,1.44,3.9,3.7Zm-2.2.2c.02-.93-.72-1.7-1.65-1.71-.09,0-.17,0-.25.01-.92.01-1.65.77-1.64,1.68,0,.11.01.21.04.32-.02.93.72,1.7,1.65,1.71.09,0,.17,0,.25-.01.94-.04,1.67-.83,1.63-1.77,0-.08-.01-.15-.03-.23h0Z"/><path d="m202.98,154.63l2.2.3-1.3,10.9-2.2-.3,1.3-10.9Z"/><path d="m209.27,165.23c.49.18,1.04.14,1.5-.1l1.4,1.5c-1.04.77-2.39.96-3.6.5-2.13-.57-3.4-2.77-2.83-4.9,0-.03.02-.07.03-.1.6-2.06,2.75-3.25,4.82-2.66.06.02.12.04.18.06,1.98.62,3.09,2.73,2.46,4.71-.02.06-.04.13-.06.19-.03.31-.17.59-.4.8l-5.1-1.6c.03.81.65,1.46,1.45,1.54l.15.06Zm2.1-2.2c-.03-.95-.83-1.7-1.78-1.67-.52.02-1,.26-1.32.67l3.1,1Z"/><path d="m228.48,166.93l-6.7,8.1-1.7-1.4.5-.5c-.83.13-1.68-.12-2.3-.7-1.4-1.71-1.16-4.23.54-5.63,1.29-1.06,3.11-1.21,4.56-.37.68.48,1.09,1.26,1.1,2.1l2.4-2.8,1.7,1.4-.1-.2Zm-6.1,3.7c.67-.72.62-1.85-.1-2.52-.03-.03-.06-.06-.1-.08-.64-.62-1.67-.61-2.29.03-.08.08-.15.17-.21.27-.67.72-.62,1.85.1,2.52.03.03.06.06.1.08.64.62,1.67.61,2.29-.03.08-.08.15-.17.21-.27h0Z"/><path d="m228.18,171.23l1.4,1.8-5.9,4.7-1.4-1.8,5.9-4.7Zm1.4-1.4c.58-.47,1.43-.38,1.9.2.47.58.38,1.43-.2,1.9-.58.47-1.43.38-1.9-.2-.47-.55-.41-1.37.14-1.85.02-.02.04-.04.06-.05Z"/><path d="m229.27,182.53c-1.5.8-2.9-.1-3.7-1.5-.75-1.12-.75-2.58,0-3.7l1.9,1.2c-.43.39-.47,1.05-.1,1.5.3.5.5.6.8.5.7-.4-1.5-3.4.8-4.7,1.4-.8,2.8,0,3.6,1.4.66,1,.66,2.3,0,3.3l-1.8-1.2c.25-.36.25-.84,0-1.2-.2-.3-.4-.5-.7-.3-.7.4,1.6,3.4-.9,4.7h.1Z"/><path d="m233.27,191.03c-1.99.66-4.13-.41-4.8-2.4-.28-.8-.17-1.69.3-2.4l-3.6,1-.6-2.2,10.1-2.7.6,2.2-.7.2c.74.39,1.29,1.08,1.5,1.9.45,2.03-.82,4.04-2.85,4.49-.02,0-.03,0-.05.01l.1-.1Zm-.6-2.2c.92-.17,1.53-1.05,1.36-1.97-.01-.08-.03-.16-.06-.23-.2-.9-1.08-1.46-1.98-1.27-.08.02-.15.04-.22.07-.92.17-1.53,1.05-1.36,1.97.01.08.03.16.06.23.2.9,1.08,1.46,1.98,1.27.08-.02.15-.04.22-.07h0Z"/><path d="m240.48,192.17v2.2l-10.8.7v-2.2l10.8-.7Z"/><path d="m236.18,204.83l-7.4-1,.3-2.2h.7c-.54-.6-.76-1.41-.6-2.2.41-2.03,2.36-3.36,4.4-3,2.04.15,3.57,1.93,3.41,3.97,0,.04,0,.09-.01.13-.06.85-.5,1.62-1.2,2.1h.7l-.3,2.3v-.1Zm-3.4-2.7c.95.2,1.88-.42,2.08-1.37,0-.04.02-.09.02-.13.15-.95-.51-1.84-1.46-1.98-.05,0-.1-.01-.14-.02-.95-.2-1.88.42-2.08,1.37,0,.04-.02.09-.02.13-.2.91.37,1.8,1.28,2,.11.02.21.04.32.04v-.04Z"/><path d="m232.58,214.23l-5.7-5.2c-1.9-1.7-2.2-3.3-1.3-5.2l1.9.8c-.45.73-.28,1.68.4,2.2h7.8l-1,2.3-4.9-.3,3.7,3.1-.9,2.2v.1Z"/><line class="cls-5" x1="199.7" y1="247.77" x2="200.2" y2="280.55"/><line class="cls-4" x1="199.7" y1="247.77" x2="200.04" y2="269.79"/><polygon class="cls-33" points="192.52 267.71 200.2 280.55 207.48 267.49 192.52 267.71"/><circle class="cls-3" cx="200" cy="336" r="45"/><path d="m165.6,322.1c1.9.6,3,2.6,2.4,4.6l-.5,1.5,3.2,1-.7,2.3-10-3.1,1.2-3.8c.6-2,2.6-3,4.5-2.5h-.1Zm-.7,2.3c-.7-.2-1.4.1-1.7.8l-.5,1.5,2.6.8.5-1.5c.2-.7-.2-1.4-.9-1.6Z"/><path d="m172.4,315.1l3.9,2.5-1.2,1.9-3.6-2.3c-.8-.5-1.5-.2-1.9.4-.4.7-.3,1.4.6,2l3.5,2.2-1.2,1.9-8.9-5.6,1.2-1.9,3.1,2c-.2-.6-.2-1.5.4-2.3.8-1.3,2.4-1.8,4.1-.7v-.1Z"/><path d="m174.1,314.4c-1.5-1.7-1.3-4.1.3-5.6,1.6-1.5,4.1-1.4,5.6.3s1.3,4.1-.3,5.6c-1.6,1.5-4.1,1.4-5.6-.3Zm4.2-3.8c-.7-.8-1.7-.8-2.5-.2-.7.7-.8,1.7,0,2.5.7.8,1.7.8,2.5.2.7-.7.8-1.7,0-2.5Z"/><path d="m187.4,304.2l2.1,4.1-2,1-1.9-3.8c-.4-.8-1.1-1-1.8-.6s-1,1.1-.5,2l1.9,3.7-2,1-3.4-6.7,2-1,.3.6c.1-.7.6-1.3,1.5-1.8,1.4-.7,3-.3,3.9,1.5h-.1Z"/><path d="m193.7,305.4c.6-.1,1.1-.5,1.3-.9l2,.6c-.5,1.1-1.5,1.9-2.9,2.2-2.5.5-4.4-.8-4.9-3s.8-4.2,3.1-4.7c2.1-.4,4.1.9,4.5,3.1v.9l-5.2,1.1c.4.7,1.2.8,2,.7h.1Zm.8-3c-.4-.8-1.1-1-1.8-.8-.8.2-1.3.7-1.4,1.5l3.2-.7Z"/><path d="m198.6,301l5.7.2v2.2l-5.8-.2v-2.2h.1Z"/><path d="m213.9,305.6c-.7,2.1-2.7,3.3-4.6,2.7-1-.3-1.6-.8-1.9-1.5l-.2.7-2.2-.7,3.1-10,2.2.7-1.1,3.5c.6-.4,1.4-.5,2.4-.2,1.9.6,2.9,2.7,2.3,4.8Zm-2.2-.7c.3-1.1-.2-2-1.2-2.3s-1.9.2-2.2,1.2.2,2,1.2,2.3,1.9-.2,2.2-1.2Z"/><path d="m215.1,306.1c1.2-1.9,3.6-2.4,5.5-1.2,1.9,1.2,2.4,3.6,1.2,5.5-1.2,1.9-3.6,2.4-5.5,1.2-1.9-1.2-2.4-3.6-1.2-5.5Zm4.8,3.1c.6-.9.3-1.9-.5-2.4s-1.8-.3-2.4.6-.3,1.9.5,2.4,1.8.3,2.4-.6Z"/><path d="m233.1,312.8l-7.9,6.9-1.5-1.7.5-.5c-.8,0-1.5-.3-2.2-1.1-1.3-1.5-1.1-3.8.6-5.3,1.7-1.5,4-1.4,5.3,0,.7.8.9,1.5.8,2.3l2.8-2.4,1.5,1.7.1.1Zm-6.6,2.8c.8-.7.9-1.8.2-2.5-.7-.8-1.7-.9-2.6-.1s-.9,1.8-.2,2.5c.7.8,1.7.9,2.6.1Z"/><path d="m235.6,323.7l-7.7.9c-2.5.3-4-.5-4.8-2.4l1.9-.9c.5.9,1,1.2,1.9,1.1l5.1-5.9,1.1,2.2-3.4,3.5,4.7-.8,1.1,2.2.1.1Z"/><path d="m233.6,333.1c-2.3.5-3.8-1-4.3-2.9-.4-1.5,0-3.1,1.4-4.1l1.6,1.8c-.6.4-.9.9-.7,1.8.2,1,.8,1.3,1.5,1.1.6-.1,1-.7.8-1.6v-.5c-.1,0,1-1.2,1-1.2l2.8,1.3-.9-3.7,2.2-.5,1.5,6.6-1.9.4-2.7-1.3c-.2,1.4-1,2.5-2.4,2.8h.1Z"/><path class="cls-7" d="m189.5,368.9c0-.2-.3-.1-.4-.2-2.9-.7-4.8-3.1-4.8-6.1v-37.4c0-2.7,1.3-4.7,3.7-5.9.6-.3,1.4-.5,2.1-.5h9.8v9.2h-3.7c-2.2-.2-4-2.1-4.1-4.3,0-1.1-.5-1.7-1.3-1.9-.5,0-.9,0-1.3.1-1.4.5-2.3,1.7-2.3,3.4v37.8c.2,1.7,1.7,2.9,3.3,2.8h9.3v2.9h-10.5l.2.1Z"/><path class="cls-17" d="m200,328.1v-9.2h10c2.7,0,5.3,2.6,5.6,5.2v38.5c0,3-1.9,5.5-4.8,6.2-.2,0-.4,0-.5.1h-10.4v-2.9h10.1c1.6-.4,2.6-1.7,2.6-3.4v-37.6c0-1.6-1.1-3-2.7-3.2-1.2-.2-2.2.5-2.3,1.7,0,2.6-2.1,4.5-4.7,4.6h-3.1.2Z"/><path class="cls-12" d="m190.7,366c-1.7,0-3.1-1.1-3.3-2.8v-37.8c0-1.7.8-2.9,2.3-3.4.4-.2.9-.2,1.3-.1.9.2,1.3.8,1.3,1.9,0,2.2,1.9,4.1,4.1,4.3h3.7v3.3h-7.8c-.9,0-1.5.6-1.5,1.5v14.1c0,.9.6,1.5,1.5,1.5h7.8v3.3c-.2,0-.5.1-.8,0h-7.1c-.2,0-.5,0-.7.1-.6.4-.9,1.1-.7,1.7s.8,1,1.5,1h7.8v3.3h-7.6c-1.1,0-1.7.5-1.7,1.7v6.2l-.1.2Z"/><path class="cls-14" d="m190.7,366v-6.2c0-1.1.5-1.7,1.7-1.7h7.6v7.8h-9.3v.1Z"/><path class="cls-10" d="m200,331.4v-3.3h3.1c2.6,0,4.6-1.9,4.7-4.6,0-1.2,1-1.9,2.3-1.7,1.6.3,2.7,1.7,2.7,3.2v37.5c0,1.7-1,3-2.6,3.4h-.7v-5.6c0-1.8-.4-2.3-2.3-2.3h-7.1v-3.3h1.6c.7,0,1.4-.6,1.4-1.3s-.5-1.4-1.2-1.5c-.6-.1-1.2,0-1.8,0h0v-3.3h7.6c1,0,1.7-.7,1.7-1.7v-13.6c0-4.5-.5-1.8-1.8-1.8h-7.5l-.1-.1Zm7.8,23.3c.8,0,1.5-.6,1.5-1.4s-.6-1.5-1.4-1.5h0c-.7,0-1.6.8-1.5,1.5,0,.6.4,1.4,1.4,1.4h0Z"/><path class="cls-18" d="m200,358.1h7.1c1.9,0,2.3.4,2.3,2.3v5.6h-9.4v-7.8h0v-.1Z"/><path class="cls-32" d="m200,331.4h7.5c1.2,0,1.8.6,1.8,1.8v13.6c0,1-.7,1.7-1.7,1.7h-7.6v-17h0v-.1Z"/><path class="cls-11" d="m200,331.5v17h-7.8c-.9,0-1.5-.6-1.5-1.5v-14.1c0-.9.6-1.5,1.5-1.5h7.8v.1Z"/><path class="cls-22" d="m200,354.8h-7.8c-.7,0-1.3-.4-1.5-1s.1-1.3.7-1.7c.2-.1.4-.1.7-.1h7.9v2.9h0v-.1Z"/><path class="cls-9" d="m200,354.7v-2.9h1.8c.7.2,1.2.8,1.2,1.5s-.7,1.3-1.4,1.3h-1.6v.1Z"/><path class="cls-27" d="m207.8,354.7c-1,0-1.4-.8-1.4-1.4,0-.7.8-1.5,1.5-1.5.8,0,1.5.7,1.4,1.5h0c0,.8-.6,1.4-1.5,1.4Z"/><path d="m203.4,344.2c1.7.5,3,1.4,4,2.7s1.5,2.8,1.5,4.6c0,2.8-.9,4.9-2.7,6.4s-4.1,2.3-6.8,2.3-4.1-.5-5.7-1.5-2.9-2.4-3.6-4.4l5.8-3.3c.5,1.8,1.7,2.7,3.6,2.7s1.7-.2,2.2-.7c.5-.4.8-1,.8-1.8s-.3-1.3-.8-1.8c-.5-.4-1.2-.6-2.2-.6h-1.4l-2.6-3.8,4.1-5.1h-8.7v-6.3h16.8v5.2l-4.3,5.3v.1Z"/></svg>