<?xml version="1.0" encoding="UTF-8"?><svg id="Layer_1" xmlns="http://www.w3.org/2000/svg" viewBox="0 0 400 400"><defs><style>.cls-1{stroke:#a5262d;}.cls-1,.cls-2,.cls-3{stroke-width:4px;}.cls-1,.cls-2,.cls-3,.cls-4{stroke-miterlimit:10;}.cls-1,.cls-2,.cls-3,.cls-4,.cls-5{fill:none;}.cls-6{fill:#fcfcfd;}.cls-2{stroke:#0018c6;}.cls-7{fill:#fcd303;}.cls-8{fill:#3f5c6c;}.cls-3{stroke:#c000e2;}.cls-9{fill:#54747f;}.cls-10{fill:#364a5f;}.cls-11{fill:#f7cf06;}.cls-12{fill:#c69c6d;}.cls-4{stroke:#231f20;stroke-width:2px;}.cls-13{fill:gray;}.cls-14{fill:#ddebf0;}.cls-15{fill:#f0f6f6;}.cls-16{fill:#484645;}.cls-17{fill:#3b97d2;}.cls-18{fill:#b3b3b3;}.cls-19{fill:#bdc3c7;}.cls-20{fill:#33b1cb;}.cls-21{fill:#231f20;}.cls-22{fill:#33b1cc;}.cls-23{fill:#86cde8;}</style></defs><line class="cls-5" x1="199.75" y1="114.67" x2="200.25" y2="147.45"/><line class="cls-4" x1="199.75" y1="114.67" x2="200.09" y2="136.69"/><polygon class="cls-21" points="192.57 134.61 200.25 147.45 207.53 134.39 192.57 134.61"/><line class="cls-5" x1="112.18" y1="110.41" x2="160.82" y2="149.71"/><line class="cls-4" x1="112.18" y1="110.41" x2="152.45" y2="142.95"/><polygon class="cls-21" points="146.05 147.39 160.82 149.72 155.45 135.76 146.05 147.39"/><line class="cls-5" x1="287.82" y1="110.41" x2="239.18" y2="149.71"/><line class="cls-4" x1="287.82" y1="110.41" x2="247.55" y2="142.95"/><polygon class="cls-21" points="244.55 135.76 239.18 149.71 253.95 147.39 244.55 135.76"/><circle class="cls-1" cx="91.11" cy="60.96" r="45"/><path d="m65,45.36l1-3c1.15.63,2.58.43,3.5-.5,1.1-1,1-1.7.7-2.1-.6-.6-1.4-.4-3.4.6s-4.1,1.5-5.9-.5-1.1-4.7.7-6.3c1.58-1.5,3.91-1.9,5.9-1l-1,3c-.95-.52-2.13-.36-2.9.4-.8.7-.8,1.4-.4,1.8s1,.6,3-.4,4.3-1.9,6.2.3c1.8,2,1.2,4.7-1.1,6.7-2.3,2-4.5,2.1-6.5,1.1l.2-.1Z"/><path d="m70,29.46c-.44-.88-.08-1.96.8-2.4.88-.44,1.96-.08,2.4.8.44.88.08,1.96-.8,2.4h0c-.89.39-1.92.04-2.4-.8Zm1.5,2.3l2.7-1.4,4.5,8.9-2.7,1.4-4.5-8.9Z"/><path d="m75.81,24.76l2.9-.9,4.5,13.9-2.9.9-4.5-13.9Z"/><path d="m82.41,24.86c-.16-.99.51-1.93,1.5-2.09.99-.16,1.93.51,2.09,1.5.16.99-.5,1.92-1.49,2.09-.98.17-1.92-.49-2.1-1.47,0,0,0-.02,0-.03Zm.7,2.6l3-.5,1.6,9.9-3,.5-1.6-9.9Z"/><path d="m89,31.46c.13-2.85,2.55-5.06,5.41-4.92.1,0,.2.01.29.02,1.86.09,3.52,1.21,4.3,2.9l-2.7,1.3c-.53-1.13-1.88-1.62-3.01-1.09-.74.35-1.24,1.07-1.29,1.89-.16,1.22.7,2.33,1.92,2.48.06,0,.12.01.18.02.8.07,1.58-.31,2-1l2.5,1.7c-1.02,1.56-2.84,2.41-4.7,2.2-2.88-.17-5.08-2.65-4.91-5.53,0-.06,0-.11.01-.17v.2Z"/><path d="m99.91,32.46c1.13-2.68,4.22-3.94,6.9-2.81,2.68,1.13,3.94,4.22,2.81,6.9-1.13,2.68-4.22,3.94-6.9,2.81,0,0,0,0,0,0-2.66-1.09-3.94-4.14-2.84-6.8.01-.03.03-.07.04-.1Zm7,2.9c.53-1.17.02-2.54-1.14-3.08-.02,0-.04-.02-.06-.02-1.11-.5-2.42,0-2.92,1.11-.03.06-.05.13-.08.19-.56,1.1-.11,2.45.99,3.01.07.03.14.06.21.09,1.11.5,2.42,0,2.92-1.11.03-.06.05-.13.08-.19Z"/><path d="m119.41,43.56l-4.2,4.5-2.2-2,3.9-4.2c.69-.6.76-1.65.16-2.34-.05-.06-.1-.11-.16-.16-.72-.71-1.87-.7-2.57.02-.08.09-.16.18-.23.28l-3.7,4-2.2-2,6.8-7.4,2.2,2-.6.7c1.07-.18,2.17.19,2.9,1,1.5,1.4,1.8,3.6,0,5.6h-.1Z"/><rect class="cls-12" x="64.21" y="51.46" width="52" height="37" rx="2.9" ry="2.9"/><path class="cls-16" d="m86.41,82.56c-2.18.11-4.34-.45-6.2-1.6-1.58-1.02-2.78-2.53-3.4-4.3l5.2-3c.69,1.97,2.62,3.24,4.7,3.1,2.3,0,2.8-.5,2.8-1.6s-.5-1.2-1.6-1.7c-.97-.38-1.98-.68-3-.9-1.91-.44-3.66-1.37-5.1-2.7-1.32-1.19-2.02-2.93-1.9-4.7-.03-2.02.81-3.95,2.3-5.3,1.64-1.39,3.75-2.11,5.9-2,1.87-.07,3.71.42,5.3,1.4,1.54.96,2.76,2.35,3.5,4l-5.1,3c-.5-1.61-2.02-2.67-3.7-2.6-1.7,0-1.3.1-1.6.4-.36.25-.59.66-.6,1.1.05.54.34,1.02.8,1.3,1,.59,2.08,1.03,3.2,1.3,1.1.4,2,.7,2.8,1,.79.35,1.56.76,2.29,1.22.78.55,1.43,1.26,1.9,2.1.41.95.61,1.97.6,3,.11,2.1-.83,4.12-2.5,5.4-1.87,1.4-4.17,2.11-6.5,2l-.09.08Z"/><path class="cls-16" d="m102.61,62.86c-.6.63-1.43.99-2.3,1-1.79.03-3.27-1.4-3.31-3.19-.02-.91.35-1.78,1.01-2.41.61-.6,1.44-.92,2.3-.9.85,0,1.68.32,2.3.9.63.6.99,1.43,1,2.3.02.88-.35,1.72-1,2.3Zm-5.1,19.2v-16.9h5.6v16.9h-5.6Z"/><circle class="cls-1" cx="200" cy="60.96" r="45"/><rect class="cls-18" x="174" y="50.96" width="52" height="37" rx="2.9" ry="2.9"/><path class="cls-16" d="m200.8,81.26l-1.1-3.4h-8l-1,3.4h-6.5l7.5-23.6h7.6l7.8,23.6h-6.3Zm-7.6-8.6h4.8l-2.4-8-2.4,8Z"/><path class="cls-16" d="m208.5,81.26v-24.7h5.6v24.7h-5.6Z"/><path d="m176.1,39.66l-2.4,3.1,1,1.4-1.6,2.1-6.1-9.28,1.9-2.4,10.5,3.7-1.6,2.1-1.6-.6-.1-.12Zm-2.2-.8l-3.8-1.4,2.3,3.3,1.5-1.9Z"/><path d="m172.8,29.86l1.7-1.4,7,8.4-1.7,1.4-7-8.4Z"/><path d="m185,26.06l3.6,6.6-2,1.1-.3-.6c-.11.81-.64,1.49-1.4,1.8-1.33.74-3.01.25-3.75-1.08-.06-.1-.11-.21-.15-.32l-2.2-4,2-1.1,2,3.8c.29.65,1.06.94,1.71.65.03-.01.06-.03.09-.05.67-.32.95-1.12.63-1.79-.04-.07-.08-.15-.13-.21l-2-3.6,2-1.1-.1-.1Z"/><path d="m199.6,25.56l.8,4.5-2.2.4-.8-4.3c-.03-.6-.54-1.05-1.14-1.02-.06,0-.11.01-.16.02-.7.1-1.1.7-.9,1.6l.7,4.2-2.2.4-.8-4.3c-.03-.6-.54-1.05-1.14-1.02-.06,0-.11.01-.16.02-.7.1-1.1.7-.9,1.6l.7,4.2-2.2.4-1.3-7.4,2.2-.4v.7c.42-.66,1.12-1.1,1.9-1.18.76-.23,1.58,0,2.1.6.37-.79,1.13-1.33,2-1.4,1.7-.3,3,.7,3.3,2.6l.2-.22Z"/><path d="m201.9,23.16l2.2.2-.6,7.5-2.2-.2.6-7.5Zm0-2c.08-.75.75-1.29,1.5-1.2.75.08,1.29.75,1.2,1.5s-.75,1.29-1.5,1.2c0,0,0,0,0,0-.72-.05-1.26-.66-1.21-1.38,0-.04,0-.08.01-.12Z"/><path d="m212.9,28.26l-1.2,4.4-2.2-.6,1.1-4.1c.24-.68-.11-1.42-.78-1.66-.04-.01-.08-.03-.12-.04-.69-.26-1.46.08-1.72.76-.04.11-.07.22-.08.34l-1.1,3.9-2.2-.6,2-7.2,2.2.6-.2.7c.67-.47,1.53-.58,2.3-.3,1.49.39,2.38,1.91,2,3.4-.03.1-.06.2-.1.3l.1.1Z"/><path d="m222.5,30.26l-3.8,6.4-1.9-1.2.4-.6c-.77.29-1.63.18-2.3-.3-1.32-.77-1.78-2.46-1.01-3.78.06-.11.13-.22.21-.32l2.4-4,1.9,1.2-2.2,3.7c-.41.5-.34,1.24.16,1.65.07.06.15.11.24.15.63.41,1.48.23,1.89-.4.04-.06.08-.13.11-.2l2.1-3.5,1.9,1.2h-.1Z"/><path d="m230.3,42.56l-3.5,3-1.5-1.7,3.4-2.9c.6-.5.7-1.1.2-1.6-.43-.5-1.18-.55-1.68-.12-.04.04-.08.08-.12.12l-3.2,2.7-1.5-1.7,3.4-2.9c.6-.5.7-1.1.2-1.6-.43-.5-1.18-.55-1.68-.12-.04.04-.08.08-.12.12l-3.2,2.7-1.5-1.7,5.7-4.9,1.5,1.7-.5.4c.76,0,1.49.34,2,.9.54.56.73,1.36.5,2.1.85-.02,1.66.35,2.2,1,1.03,1.19.9,3-.29,4.03-.07.06-.14.11-.21.17l-.1.3Z"/><circle class="cls-1" cx="308.89" cy="60.96" r="45"/><path class="cls-23" d="m278.89,63.26v-.6c.31-.48.83-.78,1.4-.8,1.39-.15,2.46-1.3,2.5-2.7v-.5c.05-.45.46-.77.91-.72.03,0,.06,0,.09.02.46-.01.86.34.9.8-.02.27.02.54.1.8.21,1.11,1.09,1.99,2.2,2.2.7.2.7.1.7-.6v-13.5c-.05-.39.22-.75.61-.8.06,0,.13,0,.19,0h30.6c0,.3-.3.4-.5.6l-7.2,7.2c-.2.17-.36.38-.5.6-.19.4-.11.88.2,1.2.32.33.83.37,1.2.1.21-.11.39-.29.5-.5l8.3-8.3c.29-.27.5-.62.6-1h3.4c0,.3-.3.4-.5.6l-13.3,13.3-.5.5c-.25.29-.25.71,0,1,.16.35.52.55.9.5.33-.05.64-.19.9-.4l14.6-14.6c.29-.21.48-.54.5-.9h1.1c1,0,.9-.1.9.9v28.32q0,.8.8.6c1.27-.35,2.16-1.49,2.2-2.8-.06-.49.29-.94.79-1,.07,0,.14,0,.21,0,.6,0,.9.4,1,1,.05,1.54,1.26,2.8,2.8,2.9.52,0,1,.32,1.2.8v.6c-.22.41-.64.67-1.1.7-1.57.04-2.81,1.33-2.8,2.9-.03.34-.17.65-.4.9-.25.23-.61.27-.9.1-.38-.12-.63-.5-.6-.9-.2-1.6-.9-2.6-2.3-2.9-.7-.2-.7-.1-.7.6v12.6c0,.54-.23.8-.7.8h-21.6c0-.3.3-.4.5-.6l7.5-7.5c.5-.6.6-1.1.1-1.5-.39-.38-1.01-.38-1.4,0l-.1.1-8.7,8.7c-.25.25-.42.56-.5.9h-3.4c0-.3.3-.4.5-.6l13.3-13.3c.2-.17.36-.38.5-.6.24-.39.16-.91-.2-1.2-.31-.33-.83-.35-1.16-.04-.01.01-.03.03-.04.04-.1,0-.2.2-.3.3l-14.6,14.6c-.26.24-.44.55-.5.9h-10.09c-.44.06-.84-.25-.9-.69,0-.07,0-.14,0-.21v-27.52c0-.7,0-.8-.7-.6-1.32.36-2.25,1.54-2.3,2.9.03.52-.36.97-.88,1-.04,0-.08,0-.12,0-.55,0-1-.45-1-1v-.3c-.14-1.41-1.28-2.51-2.7-2.6-.52-.02-.99-.28-1.3-.7l-.21-.1Zm5,.6c.37-.22.68-.53.9-.9-.27-.36-.58-.69-.9-1-.35.25-.65.55-.9.9.25.35.55.65.9.9h0v.1Zm50.9,14.2c-.19-.39-.51-.71-.9-.9-.35.25-.65.55-.9.9l.9.9.9-.9Z"/><path class="cls-22" d="m325.29,47.06c.3-.11.54-.32.7-.6.8-.8,1.6-.6,1.9.5-.04.35-.22.68-.5.9l-14.6,14.6c-.21.28-.55.43-.9.4-.37,0-.71-.19-.9-.5-.2-.3-.2-.7,0-1,.11-.21.29-.39.5-.5l13.3-13.3c.2-.2.4-.3.5-.6v.1Z"/><path class="cls-20" d="m301.49,92.86c-.3.1-.5.4-.8.6-.8.7-1.6.5-1.8-.6.02-.36.21-.69.5-.9l14.61-14.6.3-.3c.36-.25.84-.25,1.2,0,.36.29.44.81.2,1.2-.14.22-.3.43-.5.6l-13.3,13.3c-.2.2-.4.3-.5.6l.09.1Z"/><path class="cls-22" d="m319.19,47.06c.2,0,.4-.2.6-.4,1-1,1.6-.8,2.1.4-.08.39-.29.75-.6,1l-8.3,8.3-.5.5c-.37.27-.88.23-1.2-.1-.38-.25-.49-.77-.24-1.15.01-.02.02-.03.04-.05.11-.24.28-.45.5-.6l7.2-7.2c.2-.2.4-.3.5-.6l-.1-.1Z"/><path class="cls-22" d="m307.49,92.98c-.3.11-.54.32-.7.6-.8.8-1.6.5-1.9-.5.02-.33.21-.63.5-.8l8.7-8.7c.25-.43.8-.58,1.23-.33.06.04.12.08.17.13l.1.1c.39.39.39,1.02,0,1.41-.03.03-.06.06-.1.09l-7.5,7.5c-.2.2-.4.3-.4.6l-.1-.1Z"/><path d="m297.19,30.76c2.03,2.82,1.4,6.75-1.41,8.78-.16.11-.32.22-.49.32-2.98,2.46-7.39,2.05-9.86-.93-2.46-2.98-2.05-7.39.93-9.86.38-.31.79-.58,1.22-.81,1.95-1.32,4.44-1.55,6.6-.6l-1.4,2.7c-1.21-.46-2.57-.27-3.6.5-1.8,1.08-2.37,3.42-1.29,5.22.06.1.12.19.19.28,1.2,1.9,3.5,2.4,5.7,1,1.3-.69,2-2.16,1.7-3.6l-3,1.9-1.5-2.2,5.6-3.7.6,1Z"/><path d="m298.09,23.06l2.8-.7,3.5,13.5-2.8.7-3.5-13.5Z"/><path d="m315.59,25.86l-.2,9.6h-2.9v-1c-.76.77-1.82,1.18-2.9,1.1-2.5,0-4.5-2.3-4.5-5.1-.09-2.62,1.96-4.81,4.58-4.9.04,0,.08,0,.12,0,1.07-.05,2.1.39,2.8,1.2v-.9h3Zm-3,4.7c.1-1.22-.8-2.29-2.01-2.39-.06,0-.13,0-.19,0-1.18-.09-2.21.8-2.3,1.99,0,.1,0,.21,0,.31-.1,1.22.8,2.29,2.01,2.39.06,0,.13,0,.19,0,1.18.09,2.21-.8,2.3-1.99,0-.1,0-.21,0-.31Z"/><path d="m324.29,35.76c-.8,2.1-2.9,2.3-4.8,1.6-1.65-.49-2.86-1.9-3.1-3.6l2.8-.5c-.07.73.39,1.4,1.1,1.6.6.2,1,.2,1.2-.2.4-1-4.2-2.1-3.1-5.2.7-2,2.7-2.3,4.6-1.6,1.45.47,2.53,1.7,2.8,3.2l-2.8.4c.03-.56-.35-1.07-.9-1.2-.5-.2-.8-.1-.9.2-.4,1,4.3,2,3.1,5.3Z"/><path d="m331,40.56c-1.3,1.8-3.4,1.4-5.1.2-1.46-.91-2.25-2.6-2-4.3l2.8.3c-.22.72.06,1.5.7,1.9.6.4,1,.4,1.2.1.6-.9-3.5-3.2-1.6-5.8,1.2-1.7,3.3-1.5,4.9-.3,1.27.82,1.97,2.29,1.8,3.8l-2.8-.4c0-.6,0-1.1-.5-1.4s-.8-.3-1,0c-.6.9,3.6,3.1,1.5,5.9h.1Z"/><circle class="cls-2" cx="200" cy="199.19" r="45"/><path class="cls-15" d="m207.3,186.69h5.9c.2.4.6.3.9.4,2.75,1,4.61,3.58,4.7,6.5v33.6c-.04,2.47-1.42,4.73-3.6,5.9-.72.31-1.45.58-2.2.8h-30c-3.43.02-6.38-2.43-7-5.8v-34.6c0-2.07,1-4.01,2.7-5.2,1.3-1.04,2.94-1.57,4.6-1.5h24.1l-.1-.1Zm-7.9,41.5h12.2c.5.02,1-.02,1.5-.1,2.56-.55,4.34-2.88,4.2-5.5v-24.7c.03-.51-.04-1.02-.2-1.5-.58-2.49-2.85-4.21-5.4-4.1h-24.6c-3.5,0-5.8,2.2-5.8,5.7v24.4c-.1,3.1,2.33,5.7,5.43,5.8.12,0,.24,0,.37,0,4.1-.1,8.1,0,12.2,0h.1Z"/><path class="cls-14" d="m213,233.89c.75-.22,1.48-.49,2.2-.8,2.17-1.18,3.54-3.43,3.6-5.9v-33.6c-.08-2.93-1.95-5.51-4.7-6.5-.3-.1-.7,0-.9-.4,1.78-.13,3.57.04,5.3.5,2.65.98,4.43,3.48,4.5,6.3v33.6c-.06,3.25-2.4,6.01-5.6,6.6-1.46.13-2.93.17-4.4.1v.1Z"/><path class="cls-11" d="m208,224.79h-3.2c-.8,0-1.3-.4-1.3-1.1s.5-1.1,1.3-1.1h6.5c.8,0,1.3.4,1.3,1.1s-.5,1.1-1.3,1.1h-3.3Z"/><path class="cls-7" d="m190.7,197.98h-3.2c-.8,0-1.2-.4-1.2-1s.5-1,1.2-1h6.6c.8,0,1.2.4,1.2,1.1s-.4,1-1.2,1h-3.4v-.1Z"/><path class="cls-13" d="m217.2,196.49c-.58-2.49-2.85-4.21-5.4-4.1h-24.6c-3.5,0-5.8,2.2-5.8,5.7v24.4c-.1,3.1,2.33,5.7,5.43,5.8.12,0,.24,0,.37,0,4.1-.1,8.1,0,12.2,0h12.2c.5.02,1-.02,1.5-.1,2.56-.55,4.34-2.88,4.2-5.5v-24.71c.03-.51-.04-1.02-.2-1.5h.1Zm-8.9,9.8h0c.42-.49.36-1.23-.14-1.65-.02-.02-.04-.03-.06-.05-1.38-1.27-3.02-2.23-4.8-2.8,1.78.57,3.42,1.53,4.8,2.8.6.6.7,1.2.2,1.7Zm-.3.2-10.1-5.2c-.44.02-.87.09-1.3.2-2.25.49-4.3,1.64-5.9,3.3h0c1.65-1.59,3.68-2.73,5.9-3.3.42-.12.86-.18,1.3-.2Zm-4.8,4.2c-.08,0-.15.04-.2.1.08,0,.15-.04.2-.1h0Zm-6.9-8.5c0-.6.5-1,1.2-1h6.6c.8,0,1.2.4,1.2,1.1s-.4,1-1.2,1h-6.6c-.8,0-1.2-.4-1.2-1v-.1Zm7,11.7h0c0,.08.04.15.1.2,0-.08-.04-.15-.1-.2h0Zm.8.7c-.19,0-.36-.07-.5-.2.14.13.31.2.5.2.42-.02.81-.2,1.1-.5,1.1-1,2.51-1.6,4-1.7,1.7-.07,3.35.55,4.6,1.7.6.6,1.3.6,1.7,0,.32-.43.27-1.02-.1-1.4.4.5.5.9.1,1.4s-1.1.6-1.7,0c-1.22-1.2-2.89-1.81-4.6-1.7-1.51-.01-2.96.6-4,1.7-.27.32-.68.5-1.1.5h0Zm1.7,3.2c.4.2.8,0,1.2-.3.67-.58,1.51-.93,2.4-1-.9.02-1.75.38-2.4,1-.31.33-.78.44-1.2.3h0Zm3.6,5.9h0c1.1,0,2-.89,2-2,0-.03,0-.07,0-.1,0-1.1-.9-2-2-2,1.1,0,2,.9,2,2,.06,1.1-.79,2.04-1.9,2.1-.03,0-.07,0-.1,0h0Zm3.2-5.8c.27,0,.52-.1.7-.3.38-.53.3-1.27-.2-1.7-.98-.91-2.27-1.41-3.6-1.4h0c1.33,0,2.62.49,3.6,1.4.51.32.67,1,.34,1.52-.04.07-.09.13-.14.18-.2.2-.5.4-.7.3h0Zm8.7,12.2h-6.5c-.8,0-1.3-.4-1.3-1.1.03-.65.59-1.14,1.23-1.11.02,0,.05,0,.07,0h6.5c.8,0,1.3.4,1.3,1.1-.03.65-.59,1.14-1.23,1.11-.02,0-.05,0-.07,0h0Z"/><path d="m158.9,198.19l.8-2.6,8.1.3-6.9-4.3.6-2h8.1c0,.1-7-3.9-7-3.9l.7-2.6,9.9,6.1-.8,2.8h-6.9l5.8,3.5-.8,2.8-11.6-.2v.1Z"/><path d="m172.8,175.98l6.4,4.8-1.4,1.9-.6-.5c.19.9-.07,1.83-.7,2.5-1.59,1.74-4.29,1.86-6.03.27-1.51-1.38-1.83-3.63-.77-5.37.46-.78,1.29-1.28,2.2-1.3l-.6-.5,1.4-1.9.1.1Zm1.7,4.3c-.81-.66-2.01-.54-2.67.27,0,.01-.02.02-.03.03-.65.78-.53,1.94.25,2.59.05.04.1.08.15.11.81.66,2.01.54,2.67-.27,0-.01.02-.02.03-.03.64-.79.52-1.95-.26-2.59-.04-.04-.09-.07-.14-.1h0Z"/><path d="m178.9,173.79l1.8,2.2c.4.5.9.2,1.7-.5l1.4,1.7c-2.2,2.2-3.5,2.1-4.9.3l-1.8-2.2-1,.8-1.5-1.8,1-.8-1-1.2,1.4-2.1,1.4,1.7,1.3-1,1.5,1.8-1.3,1v.1Z"/><path d="m182.1,173.39c-1.08-2.02-.31-4.53,1.7-5.6.06-.03.13-.07.2-.1,1.33-.69,2.94-.62,4.2.2l-1.3,2c-.53-.4-1.27-.4-1.8,0-.9.44-1.28,1.53-.83,2.44.01.02.02.04.03.06.48.91,1.6,1.26,2.51.78.56-.29.93-.85.99-1.48h2.4c-.03,1.54-.92,2.93-2.3,3.6-2.01,1.1-4.53.35-5.63-1.66-.02-.05-.05-.09-.07-.14l-.1-.1Z"/><path d="m197.7,166.98l1,4.8-2.4.5-.9-4.5c-.05-.7-.66-1.22-1.36-1.17-.12,0-.23.03-.34.07-.75.08-1.29.75-1.21,1.5.01.14.05.27.11.4l.9,4.3-2.4.5-2.3-11,2.4-.5.8,3.9c.39-.77,1.14-1.3,2-1.4,1.62-.34,3.21.7,3.55,2.32.02.09.03.19.05.28h.1Z"/><path d="m213.6,162.49l-2.3,11-2.3-.51.2-.7c-.72.53-1.63.71-2.5.5-2.23-.65-3.51-2.98-2.86-5.2.58-1.99,2.51-3.26,4.56-3,.87.14,1.64.65,2.1,1.4l.8-3.9,2.3.5v-.09Zm-3.8,6.5c.27-.98-.31-1.99-1.3-2.26-.07-.02-.14-.03-.2-.04-.99-.26-2.01.34-2.27,1.34-.01.05-.03.11-.03.16-.27.98.31,1.99,1.3,2.26.07.02.14.03.2.04.99.26,2.01-.34,2.26-1.34.01-.06.03-.11.04-.17h0Z"/><path d="m215.6,166.79l2.2,1-3.3,7.3-2.2-1,3.3-7.3Zm.7-2.1c.33-.72,1.18-1.03,1.9-.7.72.33,1.03,1.18.7,1.9-.33.72-1.18,1.03-1.9.7-.7-.35-1.01-1.18-.7-1.9h0Z"/><path d="m222.1,177.09c-1,1.5-2.8,1.3-4.2.3-1.24-.7-1.95-2.08-1.8-3.5l2.4.2c-.21.58.05,1.22.6,1.5.5.3.8.3,1,0,.5-.7-3-2.6-1.5-4.8,1-1.4,2.7-1.3,4.1-.4,1.09.68,1.71,1.92,1.6,3.2l-2.3-.2c0-.5,0-.9-.5-1.2-.23-.2-.57-.2-.8,0-.5.79,3.1,2.5,1.4,4.9Z"/><path d="m229.9,183.29c-1.58,1.55-4.11,1.52-5.66-.06-.01-.01-.03-.03-.04-.04-.61-.64-.91-1.52-.8-2.4l-3,2.6-1.6-1.8,8.5-7.3,1.6,1.8-.6.5c.91.04,1.75.48,2.3,1.2,1.38,1.76,1.08,4.3-.68,5.69,0,0-.01,0-.02.01v-.2Zm-1.6-1.8c.79-.56.98-1.66.41-2.45-.06-.09-.13-.17-.21-.25-.68-.8-1.88-.9-2.68-.22,0,0-.01.01-.02.02-.79.56-.98,1.66-.41,2.45.06.09.13.17.21.25.68.8,1.88.9,2.68.22,0,0,.01-.01.02-.02h0Z"/><path d="m237.3,181.09l1.2,2.1-10.2,5.6-1.2-2.1,10.2-5.6Z"/><path d="m238.9,195.39l-7.7,2.3-.7-2.3.7-.2c-.81-.39-1.39-1.13-1.6-2-.52-2.18.82-4.37,3-4.9,2.09-.72,4.37.38,5.09,2.47,0,.01,0,.02.01.03.32.87.21,1.83-.3,2.6l.7-.2.7,2.3.1-.1Zm-4.5-1.2c.96-.2,1.59-1.14,1.39-2.1-.02-.1-.05-.2-.09-.3-.24-.99-1.24-1.59-2.22-1.35-.06.01-.12.03-.18.05-.96.2-1.59,1.14-1.39,2.1.02.1.05.2.09.3.24.99,1.24,1.59,2.22,1.35.06-.01.12-.03.18-.05Z"/><path d="m239.4,206.29l-7.8-2.7c-2.5-.9-3.6-2.3-3.5-4.5h2.2c-.1.89.45,1.73,1.3,2l7.6-3.2v2.6l-4.9,1.8,4.9,1.5v2.6l.2-.1Z"/><line class="cls-5" x1="199.69" y1="251.45" x2="200.19" y2="284.23"/><line class="cls-4" x1="199.69" y1="251.45" x2="200.03" y2="273.47"/><polygon class="cls-21" points="192.52 271.39 200.19 284.23 207.48 271.17 192.52 271.39"/><circle class="cls-3" cx="200" cy="339.04" r="45"/><path d="m158.5,337.04l.6-2.5h7.6c0-.1-6.7-3.7-6.7-3.7l.4-1.9,7.6-.3-6.8-3.4.6-2.5,9.6,5.2-.6,2.7-6.4.3,5.7,3.1-.6,2.7-10.9.5-.1-.2Z"/><path d="m170.2,315.44l6.3,4.1-1.2,1.9-.6-.4c.2.7.1,1.5-.4,2.4-1.1,1.7-3.4,2.1-5.3.9-1.9-1.2-2.5-3.5-1.4-5.2.5-.8,1.2-1.3,2-1.4l-.6-.4,1.2-1.9Zm1.9,3.9c-.9-.6-1.9-.4-2.5.5s-.4,1.9.6,2.5,1.9.4,2.5-.5c.6-.9.4-1.9-.6-2.5Z"/><path d="m175.6,312.94l1.9,1.9c.5.5.9.1,1.6-.6l1.4,1.5c-1.9,2.3-3.1,2.2-4.6.7l-1.9-1.9-.9.8-1.5-1.5.9-.8-1-1,1.1-2.1,1.5,1.5,1.1-1.1,1.5,1.5-1.1,1.1Z"/><path d="m178.5,312.34c-1.2-1.9-.7-4.2,1.2-5.5,1.2-.8,2.7-.8,3.9-.2l-1,2c-.5-.3-1.1-.3-1.7,0-.8.5-1,1.5-.5,2.4.6.9,1.5,1.1,2.4.5.6-.4.8-.9.8-1.5h2.3c0,1.2-.6,2.5-1.8,3.3-1.9,1.2-4.3.7-5.5-1.2l-.1.2Z"/><path d="m192.4,304.74l1.4,4.4-2.1.7-1.3-4.1c-.3-.9-1-1.1-1.7-.9-.8.3-1.2.9-.8,1.9l1.3,3.9-2.1.7-3.3-10,2.1-.7,1.2,3.5c.2-.7.8-1.2,1.8-1.5,1.4-.5,3,.1,3.6,2.1h-.1Z"/><path d="m194.5,303.44l5.7-.4.2,2.2-5.7.4-.2-2.2Z"/><path d="m205.7,307.44c.6.1,1.2,0,1.5-.3l1.6,1.3c-.9.9-2.1,1.2-3.5,1-2.5-.4-3.8-2.4-3.4-4.6.4-2.2,2.3-3.6,4.6-3.2,2.2.4,3.5,2.3,3.1,4.6,0,.3-.1.6-.2.9l-5.2-.9c.1.8.8,1.2,1.6,1.3l-.1-.1Zm1.8-2.5c0-.9-.7-1.3-1.4-1.4-.8-.1-1.5.2-1.8.9l3.2.5Z"/><path d="m213.4,311.74l-.5-2.4-2.1,1.3-2.4-1,4-2.4-.9-4.4,2.4,1,.5,2.2,1.9-1.2,2.4,1-3.9,2.3.9,4.6-2.4-1h.1Z"/><path d="m221.3,310.44l-1.5,2.2c-.4.5,0,.9.9,1.4l-1.2,1.7c-2.6-1.5-2.7-2.7-1.5-4.4l1.5-2.2-1-.7,1.3-1.8,1,.7.8-1.2,2.2.8-1.2,1.7,1.3.9-1.3,1.8-1.3-.9Z"/><path d="m223.9,317.54c.4.5.9.7,1.4.7l.4,2c-1.2.1-2.4-.3-3.3-1.4-1.7-1.9-1.5-4.2.1-5.7,1.7-1.5,4-1.5,5.6.3,1.5,1.6,1.3,4-.4,5.5-.2.2-.5.4-.7.5l-3.6-3.9c-.4.7-.1,1.4.4,2h.1Zm2.9-.8c.5-.8.3-1.5-.2-2-.6-.6-1.3-.8-2-.4l2.2,2.4Z"/><path d="m234.2,322.24l-2.2,1.3c-.3-.9-1.3-1.8-2.6-1.1l-2.9,1.7-1.1-1.9,6.5-3.8,1.1,1.9-1.2.7c1-.2,1.9.4,2.4,1.2Z"/><path d="m234.4,331.94l-4.4,1.4-.7-2.1,4.1-1.3c.9-.3,1.1-1,.9-1.7-.2-.8-.9-1.2-1.9-.9l-3.9,1.2-.7-2.1,7.2-2.3.7,2.1-.7.2c.7.2,1.2.8,1.5,1.8.5,1.4-.2,3-2.1,3.6v.1Z"/><path d="m237.9,341.64l-7.5.2v-2.2h.6c-.6-.5-1-1.2-1-2.2,0-2,1.6-3.6,3.8-3.7,2.2,0,4,1.5,4.1,3.5,0,1-.3,1.8-.8,2.3h.7v2.2l.1-.1Zm-3.8-2.1c1.1,0,1.8-.8,1.8-1.8s-.8-1.8-1.9-1.7-1.8.8-1.8,1.8.8,1.8,1.9,1.7Z"/><path d="m240.9,344.84l-.4,2.2-10.8-1.8.4-2.2,10.8,1.8Z"/><path class="cls-17" d="m209.5,364.94c-1,2.4-2.1,4.7-3.1,7.1-.4.8-1.1,1.2-1.9,1.5h-12.7c-1.2-.4-1.9-1.2-2.4-2.4-.8-1.9-1.7-3.8-2.5-5.7,0-.1-.1-.3-.2-.5h22.9-.1Z"/><path class="cls-10" d="m209.5,364.94h-22.9c-.7,0-1.4,0-2-.1-2.3-.5-3.8-2.4-3.8-5v-28.2c0-2.4,1.2-4.1,3.3-4.8.6-.2,1.1-.2,1.7-.2h23.7c.7,0,1.3,0,2,.1,2.1.4,3.7,2.3,3.8,4.4v28.7c0,2.5-1.5,4.4-3.8,4.9-.7.1-1.3,0-2,.1v.1Zm.6-34.5h-24.2c-1,0-1.2.2-1.2,1.2v26.5c-.2.6-.2,1.1,0,1.7.2,1,.3,1.1,1.4,1.1h24.1c1,0,1.3-.3,1.3-1.3v-28.3c0-.6-.6-1-1.3-.9h-.2.1Z"/><path class="cls-17" d="m209.5,326.64h-22.9c.7-1.6,1.4-3.2,2.1-4.9.3-.6.5-1.3.8-1.9.6-1.2,1.5-1.8,2.9-1.8h11.3c1.2,0,2.1.5,2.6,1.5,1.1,2.3,2.1,4.7,3.1,7.1h.1Z"/><path class="cls-19" d="m215.3,340.04v-8.6h1.8c1.1-.1,2,.8,2.1,2v4.7c0,1.2-.9,2-2.1,2h-1.8v-.1Z"/><path class="cls-8" d="m210.1,330.54c.6-.2,1.2.2,1.4.8v28.5c0,1-.3,1.3-1.3,1.3h-24.1c-1.1,0-1.2,0-1.4-1.1,0-.6-.2-1.1,0-1.7.3-.6.1-1.2.2-1.9.2-1.4.4-2.8.7-4.2.4-2,1-4,1.8-5.9,1.2-2.8,2.9-5.4,5-7.6,1.5-1.6,3.3-3,5.2-4.1,3.2-1.9,6.8-3.2,10.5-3.8.7-.1,1.3-.1,2-.3h0Zm-11,10.2v-4.4c0-.6-.4-1-.9-1-.6,0-1,.3-1,1v9.2c0,.5.2,1,.5,1.3,2.1,2,4.1,4.1,6.2,6.2.1.1.3.3.4.4.4.3,1,.2,1.3-.3.2-.3.2-.7,0-1-.1-.2-.3-.3-.4-.4-1.9-1.9-3.9-3.9-5.8-5.8-.2-.2-.3-.5-.3-.8v-4.4Z"/><path class="cls-9" d="m210.1,330.54c-.6.2-1.3.2-2,.3-3.7.6-7.3,1.9-10.5,3.8-1.9,1.1-3.7,2.5-5.2,4.1-2.1,2.2-3.8,4.8-5,7.6-.8,1.9-1.4,3.9-1.8,5.9-.3,1.4-.5,2.8-.7,4.2,0,.6,0,1.3-.2,1.9v-26.5c0-1,.2-1.2,1.2-1.2h24.2v-.1Z"/><path class="cls-6" d="m199,340.64v4.3c0,.3.1.6.3.8l5.8,5.8.4.4c.3.4.2,1-.3,1.3-.3.2-.7.2-1,0-.2-.1-.3-.2-.4-.4-2.1-2.1-4.1-4.1-6.2-6.2-.4-.3-.6-.8-.5-1.3v-8.8c0-3,0-.3,0-.4,0-.6.4-1,1-1,.5,0,.9.4.9,1v4.5Z"/></svg>