<?xml version="1.0" encoding="UTF-8"?><svg id="Layer_1" xmlns="http://www.w3.org/2000/svg" viewBox="0 0 400 400"><defs><style>.cls-1{fill:#435256;}.cls-2{stroke:#000;}.cls-2,.cls-3{stroke-width:4px;}.cls-2,.cls-3,.cls-4{stroke-miterlimit:10;}.cls-2,.cls-3,.cls-4,.cls-5{fill:none;}.cls-6{fill:#727272;}.cls-7{fill:#546e7a;}.cls-8{fill:#fcc472;}.cls-9{fill:#2d3b3d;}.cls-3{stroke:#c000e2;}.cls-10{fill:#626363;}.cls-11{fill:#fbc372;}.cls-12{fill:#93dbfe;}.cls-13{fill:#ffed58;}.cls-4{stroke:#231f20;stroke-width:2px;}.cls-14{fill:#36464e;}.cls-15{fill:#6f7070;}.cls-16{fill:#0aaffe;}.cls-17{fill:#788f9b;}.cls-18{fill:#636363;}.cls-19{fill:#fdc472;}.cls-20{fill:#29abe2;}.cls-21{fill:#fbd734;}.cls-22{fill:#231f20;}.cls-23{fill:#2dbafe;}.cls-24{fill:#f99e3d;}</style></defs><line class="cls-5" x1="111.75" y1="199.81" x2="144.53" y2="199.31"/><line class="cls-4" x1="111.75" y1="199.81" x2="133.78" y2="199.47"/><polygon class="cls-22" points="131.7 206.99 144.53 199.31 131.47 192.03 131.7 206.99"/><line class="cls-5" x1="289.54" y1="199.81" x2="256.75" y2="199.31"/><line class="cls-4" x1="289.54" y1="199.81" x2="267.51" y2="199.47"/><polygon class="cls-22" points="269.82 192.03 256.75 199.31 269.6 206.99 269.82 192.03"/><line class="cls-5" x1="200.39" y1="111.17" x2="200.89" y2="143.95"/><line class="cls-4" x1="200.39" y1="111.17" x2="200.73" y2="133.19"/><polygon class="cls-22" points="193.22 131.11 200.89 143.95 208.17 130.88 193.22 131.11"/><line class="cls-5" x1="200.39" y1="287.95" x2="200.89" y2="255.17"/><line class="cls-4" x1="200.39" y1="287.95" x2="200.73" y2="265.93"/><polygon class="cls-22" points="208.17 268.24 200.89 255.17 193.22 268.01 208.17 268.24"/><circle class="cls-3" cx="339.59" cy="199.56" r="45"/><path d="m306.79,197.06l-.7-2.3c.97-.09,1.76-.83,1.9-1.8.3-1.1-.1-1.5-.5-1.6-.6-.2-1,.4-1.8,1.8s-1.9,2.7-3.8,2.2c-1.77-.47-2.82-2.29-2.34-4.05.01-.05.03-.1.04-.15.32-1.62,1.58-2.88,3.2-3.2l.7,2.2c-.81.08-1.47.7-1.6,1.5-.2.7,0,1.2.5,1.3s.8,0,1.7-1.5,1.8-3,4-2.5c2,.5,2.7,2.3,2.2,4.5-.29,1.8-1.7,3.21-3.5,3.5v.1Z"/><path d="m307.88,187.66c-1.93-1.07-2.63-3.5-1.56-5.44,1.07-1.93,3.5-2.63,5.44-1.56,1.93,1.07,2.63,3.5,1.56,5.44-.01.02-.02.04-.04.06-1.09,1.89-3.49,2.56-5.4,1.5Zm2.8-5c-.85-.44-1.89-.11-2.33.74-.44.85-.11,1.89.74,2.33.82.43,1.83.13,2.3-.67.46-.86.14-1.92-.71-2.39,0,0-.02-.01-.03-.01h.04Z"/><path d="m312.59,179.76c-1.55-1.41-1.66-3.81-.25-5.35.08-.09.16-.17.25-.25.97-.97,2.36-1.38,3.7-1.1l-.5,2.2c-.59-.2-1.23,0-1.6.5-.62.7-.56,1.78.14,2.4.64.57,1.61.57,2.26,0,.45-.4.61-1.04.4-1.6l2.2-.6c.37,1.35-.01,2.8-1,3.8-1.41,1.55-3.81,1.66-5.35.25-.09-.08-.17-.16-.25-.25Z"/><path d="m330.19,172.36l-1.3-.5c-.51.83-1.29,1.46-2.2,1.8-2,.9-3.9.4-4.7-1.4-.51-1.11-.39-2.4.3-3.4-.47-.34-.84-.79-1.1-1.3-.68-1.59.06-3.43,1.65-4.11.08-.03.16-.07.25-.09,1.38-.63,3.01-.35,4.1.7l-1.4,1.9c-.39-.53-1.09-.74-1.7-.5-.49.15-.76.67-.61,1.16,0,.01,0,.02.01.04.2.5.7.7,1.4,1l2.6,1.2c.03-.57-.04-1.15-.2-1.7l2.3.2c.1.8.1,1.6,0,2.4l1.8.8-1.3,1.7.1.1Zm-3.2-1.4l-2.6-1.1h-.1c-.2.37-.2.83,0,1.2.3.6.9.9,1.9.5.32-.18.62-.38.9-.6h-.1Z"/><path d="m346.09,170.86h-2.44c0-.1.3-6.2.3-6.2l-2.9,4.3h-.3l-2.5-4.6-.3,6.1h-2.4c0-.1.5-10.6.5-10.6h2.4c0,.1,2.6,4.9,2.6,4.9l3.1-4.5h2.4c.04.1-.46,10.6-.46,10.6Z"/><path d="m351.19,170.96c.48.2,1.02.2,1.5,0l1.3,1.6c-1.07.7-2.43.82-3.6.3-2.06-.61-3.24-2.77-2.63-4.83.04-.12.08-.25.13-.37.69-2.01,2.87-3.07,4.88-2.38.07.03.15.05.22.08,1.97.73,2.97,2.91,2.25,4.88-.01.04-.03.08-.05.12-.07.29-.21.57-.4.8l-5-1.9c.02.77.55,1.42,1.3,1.6l.1.1Zm2.3-2.1c.06-.75-.39-1.45-1.1-1.7-.67-.33-1.48-.12-1.9.5l3,1.1v.1Z"/><path d="m366.09,177.56l-2.9,3.6-1.7-1.4,2.8-3.4c.5-.6.5-1.2,0-1.6s-1.2-.3-1.8.3l-2.7,3.3-1.7-1.4,2.8-3.4c.5-.6.5-1.2,0-1.6s-1.2-.3-1.8.3l-2.7,3.3-1.7-1.4,4.8-5.8,1.7,1.4-.4.5c.76-.16,1.54.06,2.1.6.63.46.98,1.22.9,2,.82-.18,1.67.05,2.3.6,1.21.98,1.39,2.76.41,3.97-.07.08-.14.16-.21.23l-.2-.1Z"/><path d="m366.38,179.56c1.88-1.16,4.34-.58,5.51,1.3,1.16,1.88.58,4.34-1.3,5.51-1.88,1.16-4.34.58-5.51-1.3,0,0,0,0,0,0-1.17-1.84-.62-4.28,1.22-5.45.03-.02.05-.03.08-.05Zm3,4.8c.82-.47,1.11-1.51.64-2.33-.01-.02-.03-.05-.04-.07-.46-.79-1.47-1.05-2.26-.59-.05.03-.1.06-.14.09-.82.47-1.11,1.51-.64,2.33.01.02.03.05.04.07.46.79,1.47,1.05,2.26.59.05-.03.1-.06.14-.09Z"/><path d="m376.29,190.76l-2.4.8c-.13-1.05-1.09-1.79-2.14-1.65-.09.01-.18.03-.26.05l-3.2,1.1-.7-2.1,7.1-2.5.7,2.1-1.3.4c.97.02,1.82.67,2.1,1.6l.1.2Z"/><path d="m377.59,200.06l-7.5-1.6c-2.5-.5-3.6-1.7-3.7-3.8l2.1-.3c-.03.87.63,1.62,1.5,1.7l6.7-3.9.3,2.5-4.3,2.2,4.7.8.3,2.4h-.1Z"/><path class="cls-1" d="m330.48,234.66h-10.5c-.85-.43-1.34-1.36-1.2-2.3v-26.8c0-.7.2-.9.9-1.1.5,0,.7-.4.7-.9v-3c.06-.44-.25-.84-.69-.9,0,0,0,0-.01,0-.8-.2-.9-.4-.9-1.1v-6.4c0-.74.29-1.46.8-2,2-1.9,3.9-3.9,5.9-5.9.53-.52,1.25-.81,2-.8h24.4v.2c.63.47.97,1.22.9,2-.6.2-.8.3-.8.9v6.5c0,.6.2.8.8.9v16.9c-.14-.46-.53-.81-1-.9h-26.3c-.8,0-1.2.4-1.2,1.3v16.2c-.11.67.34,1.29,1.01,1.4.13.02.26.02.39,0h26c.7,0,1.2-.2,1.4-.9v3.8c0,1,0,2-1,2.6h-5.44c-.2-.2-.5-.4-.6-.7-.19-.37-.58-.61-1-.6h-12.5c-.5,0-.9,0-1.1.5-.21.31-.48.59-.8.8l-.16.3Zm9.1-44.8v-3.2c0-.6-.3-.9-.8-.9s-.7.4-.7.9v6.5h0c0,.6.3.9.8.9.39,0,.71-.32.71-.71,0-.03,0-.06,0-.09v-3.3h0v-.1Zm4.7,0v-3.2c0-.6-.3-1-.8-1s-.8.4-.8,1v6.4c0,.6.3,1,.8,1s.8-.3.8-1v-3.1h0v-.1Zm4.7,0v-3.2c0-.6-.3-.9-.8-.9s-.8.4-.8,1v6.4c0,.6.3,1,.8,1s.8-.3.8-.9v-3.2h0v-.2Zm-18.8,0v-3.2c0-.6-.3-.9-.7-.9-.45,0-.81.38-.8.84,0,.02,0,.04,0,.06v6.4c0,.6.3.9.7.9s.8-.3.8-.9v-3.2Zm4.7,0v-3.2c0-.6-.3-1-.8-.9-.44.05-.75.45-.7.89,0,0,0,0,0,.01v6.4c0,.6.3.9.8.9s.7-.3.7-.9v-3.2Zm-11.4,2.1h0v1.3c-.01.38.28.69.66.7.01,0,.03,0,.04,0,.4-.02.73-.31.8-.7h0v-2.6c.02-.41-.29-.76-.7-.8h0c-.4,0-.7.3-.8.8v1.3Z"/><path class="cls-9" d="m351.98,183.56h4.8c.87-.01,1.59.69,1.6,1.56,0,.01,0,.03,0,.04v4.7c0,.3-.1.6-.5.6s-.6.3-.6.8v10.1c0,.4.1.7.5.8s.6.4.6.8v29.6c.09.91-.39,1.78-1.2,2.2h-5.2c.77-.63,1.15-1.62,1-2.6v-37.8c.5,0,.7-.4.7-1v-6.4c.06-.46-.24-.9-.7-1,.07-.78-.27-1.53-.9-2v-.2l-.1-.2Z"/><path class="cls-19" d="m324.29,226.96v-15.5c0-.9.4-1.3,1.2-1.3h22v15c0,1.6-.3,1.8-1.8,1.8h-21.4Z"/><path class="cls-24" d="m324.29,226.96h21.5c1.6,0,1.8-.3,1.8-1.8v-15h4.3c.52,0,.95.39,1,.9v17.1c-.2.7-.7.9-1.4.9h-26c-1,0-1.4-.4-1.4-1.4v-.7h.2Z"/><path class="cls-8" d="m352.98,185.76c.5.1.7.4.7,1v6.4c.06.46-.24.9-.7,1-.6-.1-.8-.3-.8-.9v-6.5c0-.6.2-.8.8-.9v-.1Z"/><path class="cls-8" d="m339.59,189.86v3.3c.05.39-.23.74-.61.79-.03,0-.06,0-.09,0-.41.03-.77-.27-.8-.67,0-.04,0-.08,0-.13h0v-6.6c-.05-.44.26-.84.7-.9.45,0,.81.38.8.84,0,.02,0,.04,0,.06v3.3Z"/><path class="cls-8" d="m344.29,189.96v3.1c0,.6-.3,1-.8,1s-.8-.3-.8-1v-6.4c0-.6.3-1,.8-1s.8.4.8,1v3.3h0Z"/><path class="cls-8" d="m348.98,189.96v3.2c0,.6-.3,1-.8.9s-.8-.3-.8-1v-6.4c0-.6.3-1,.8-1s.7.4.8.9v3.4h0Z"/><path class="cls-8" d="m330.19,189.96v3.2c0,.6-.3.9-.8.9s-.7-.3-.7-.9v-6.4c0-.6.3-1,.8-.9.44.05.75.45.7.89,0,0,0,0,0,.01v3.2Z"/><path class="cls-8" d="m334.88,189.96v3.2c0,.6-.3.9-.7.9s-.8-.3-.8-.9v-6.4c0-.6.3-.9.7-.9.45,0,.81.38.8.84,0,.02,0,.04,0,.06v3.2Z"/><path class="cls-11" d="m323.48,192.06v-1.3c-.03-.41.27-.77.67-.8.04,0,.08,0,.13,0,.44,0,.79.34.8.78,0,0,0,.01,0,.02h0v2.6c.01.38-.28.69-.66.7-.01,0-.03,0-.04,0h0c-.35.04-.66-.21-.7-.55,0-.05,0-.1,0-.15v-1.3h-.2,0Z"/><circle class="cls-3" cx="200.64" cy="339.35" r="45"/><path d="m167.25,323.75c1.87.7,2.82,2.79,2.11,4.66,0,.01,0,.03-.01.04l-.6,1.5,3.1,1.2-.8,2.2-9.8-3.7,1.4-3.7c.69-1.91,2.79-2.89,4.7-2.2h-.1Zm-.8,2.2c-.6-.3-1.34-.06-1.64.55-.02.05-.05.1-.06.15l-.5,1.5,2.5.9.6-1.5c.26-.67-.08-1.42-.75-1.68-.02,0-.04-.01-.05-.02l-.1.1Z"/><path d="m174.45,317.25l3.7,2.7-1.3,1.8-3.5-2.5c-.64-.41-1.49-.24-1.9.4s-.24,1.49.4,1.9l3.3,2.4-1.3,1.8-8.5-6.2,1.3-1.8,3,2.2c-.17-.8.01-1.64.5-2.3.98-1.29,2.83-1.55,4.12-.56.03.02.05.04.08.06l.1.1Z"/><path d="m176.25,316.56c-1.39-1.71-1.14-4.23.58-5.63,1.71-1.39,4.23-1.14,5.63.58,1.39,1.71,1.14,4.23-.58,5.63,0,0-.02.01-.03.02-1.72,1.37-4.21,1.1-5.6-.6Zm4.4-3.6c-.6-.77-1.71-.91-2.48-.31,0,0-.01,0-.02.01-.74.54-.9,1.58-.35,2.32.05.06.1.12.15.18.6.77,1.71.91,2.48.31,0,0,.01,0,.02-.01.74-.54.9-1.58.36-2.32-.05-.07-.1-.13-.16-.19h0Z"/><path d="m190.04,307.15l1.8,4.2-2.1.9-1.7-3.9c-.18-.62-.82-.98-1.44-.81-.09.03-.17.06-.26.11-.8.3-1.1,1-.7,2l1.6,3.8-2.1.9-3-6.9,2.1-.9.3.6c.21-.8.81-1.44,1.6-1.7,1.43-.62,3.09.04,3.71,1.46.03.08.06.16.09.24h.1Z"/><path d="m196.25,308.85c.55-.01,1.04-.32,1.3-.8l1.9.8c-.98,2.02-3.42,2.86-5.44,1.88s-2.86-3.42-1.88-5.44c.58-1.19,1.71-2.03,3.02-2.24,2.03-.33,3.94,1.05,4.26,3.08.02.11.03.21.04.32v.9l-5.3.8c.39.65,1.16.97,1.9.8l.2-.1Zm1-2.9c-.29-.66-.99-1.03-1.7-.9-.75.05-1.35.65-1.4,1.4l3.2-.5h-.1Z"/><path d="m201.45,304.65l5.7.6-.2,2.2-5.7-.6.2-2.1v-.1Z"/><path d="m216.54,310.15c-.6,1.98-2.69,3.11-4.67,2.51,0,0-.02,0-.03,0-.8-.25-1.46-.83-1.8-1.6l-.2.7-2.1-.8,3.6-9.8,2.1.8-1.3,3.5c.75-.4,1.65-.4,2.4,0,1.92.84,2.81,3.07,2,5v-.3Zm-2.1-.8c.41-.79.11-1.76-.68-2.17-.1-.05-.21-.1-.32-.13-.83-.39-1.81-.03-2.19.8-.05.1-.08.2-.11.3-.41.79-.11,1.76.68,2.17.1.05.21.1.32.13.83.39,1.81.03,2.19-.8.05-.1.08-.2.11-.3h0Z"/><path d="m217.64,310.75c1.26-1.73,3.69-2.12,5.42-.86.03.02.05.04.08.06,1.74,1.29,2.14,3.72.9,5.5-1.51,1.61-4.05,1.68-5.65.17-1.34-1.26-1.64-3.27-.75-4.87Zm4.6,3.4c.58-.74.45-1.81-.28-2.39,0,0-.01,0-.02-.01-.67-.57-1.67-.49-2.24.18-.06.07-.11.14-.16.22-.58.74-.45,1.81.28,2.39,0,0,.01,0,.02.01.67.57,1.67.49,2.24-.18.06-.07.11-.14.16-.22Z"/><path d="m235.25,318.56l-8.3,6.5-1.4-1.8.6-.4c-.86-.03-1.64-.48-2.1-1.2-1.17-1.72-.77-4.06.9-5.3,1.5-1.36,3.81-1.25,5.17.25.04.05.09.1.13.15.53.64.79,1.47.7,2.3l2.9-2.3,1.4,1.8Zm-6.7,2.4c.76-.48.99-1.48.51-2.23-.06-.1-.13-.19-.21-.27-.53-.76-1.57-.96-2.34-.43-.06.04-.11.08-.16.13-.76.48-.99,1.48-.51,2.23.06.1.13.19.21.27.53.76,1.58.95,2.34.42.06-.04.11-.08.16-.13h0Z"/><path d="m237.14,329.56l-7.7.5c-2.5.2-3.9-.7-4.6-2.7l1.9-.8c.19.85,1.03,1.39,1.88,1.2,0,0,.01,0,.02,0l5.4-5.5,1,2.3-3.6,3.3,4.8-.5.9,2.2h0Z"/><path d="m231.84,331.95l4.2,2.9c.54.51,1.26.79,2,.8.55-.03.97-.5.95-1.05,0-.08-.02-.17-.05-.25-.13-.7-.7-1.23-1.4-1.3l.8-2.2c1.48.36,2.59,1.59,2.8,3.1.41,1.78-.7,3.55-2.48,3.96-.07.02-.15.03-.22.04-1.27.12-2.53-.28-3.5-1.1l-2-1.4.6,3.5-2.3.4-1.1-7.1,1.7-.3Z"/><path class="cls-18" d="m206.04,323.56h6.1c1.79.11,3.24,1.51,3.4,3.3v41.4c.12,1.69-.9,3.24-2.5,3.8-.36.11-.73.17-1.1.2h-22.6c-2.03-.03-3.67-1.67-3.7-3.7v-4h1.8v4c-.06,1,.71,1.85,1.71,1.91.1,0,.2,0,.29,0h22.2c1.04.06,1.94-.73,2-1.77,0-.08,0-.15,0-.23v-41c.07-1.03-.7-1.92-1.74-2-.05,0-.11,0-.16,0h-4.6c0-.81-.7-1.31-1.1-1.9Z"/><path class="cls-6" d="m206.04,323.56c.4.6,1,1.1,1.1,1.8h-17.3c-1.7,0-2.4.7-2.4,2.4v36.7h-1.8v-36.9c-.11-1.6.81-3.09,2.3-3.7.4-.2.85-.31,1.3-.3h16.8,0Z"/><path class="cls-23" d="m187.45,364.56v-36.7c0-1.7.7-2.4,2.4-2.4h17.4v36c.06,1.66-1.24,3.04-2.9,3.1-.03,0-.07,0-.1,0h-16.8Zm13.1-33.5h3.6c1.05.05,1.94-.75,2-1.8.02-1.03-.8-1.89-1.84-1.9-.05,0-.11,0-.16,0h-7.2c-1.05-.05-1.94.75-2,1.8-.02,1.03.8,1.89,1.84,1.9.05,0,.11,0,.16,0h3.6Zm-4.2,22.9c.23-.04.43-.14.6-.3l9.2-9.2c.24-.19.36-.5.3-.8-.1-.3-.2-.6-.6-.7-.39-.11-.81,0-1.1.3l-9.1,9.1-.2.2c-.2.27-.2.63,0,.9.19.31.53.5.9.5h0Zm5.7-11.1c-.04-.38-.26-.72-.6-.9-.5-.2-.8,0-1.1.4l-5.5,5.5c-.5.5-.5,1.1,0,1.4s1,.4,1.4,0c1.9-1.8,3.7-3.7,5.6-5.5.19-.2.33-.44.4-.7h0l-.2-.2Z"/><path class="cls-16" d="m187.54,364.56h16.7c1.61.05,2.95-1.21,3-2.81,0-.1,0-.19,0-.29v-36h4.5c1-.06,1.85.71,1.91,1.71,0,.1,0,.2,0,.29v41c.06,1.04-.73,1.94-1.77,2-.08,0-.15,0-.23,0h-22.2c-1.06.04-1.95-.78-2-1.84,0-.02,0-.04,0-.06v-4h.1Zm13.1,3.1h-5.4c-.7,0-1.2.3-1.2.9,0,.55.44,1,.99,1.01.04,0,.07,0,.11,0h10.8c.7,0,1.2-.4,1.1-.9-.08-.58-.62-.98-1.2-.9,0,0,0,0,0,0h-5.4l.2-.1Z"/><path class="cls-15" d="m200.54,331.05h-3.6c-1.03.07-1.92-.7-2-1.74,0-.05,0-.11,0-.16-.01-.99.78-1.8,1.77-1.81.08,0,.16,0,.23.01h7.2c1.03-.07,1.92.7,2,1.74,0,.05,0,.11,0,.16-.02,1.02-.86,1.82-1.87,1.81-.04,0-.08,0-.13,0h-3.6Z"/><path class="cls-12" d="m196.34,353.95c-.37,0-.71-.19-.9-.5-.14-.28-.14-.62,0-.9l.2-.2,9.1-9.1c.29-.29.71-.41,1.1-.3.4.1.5.4.6.7.11.3-.02.64-.3.8l-9.2,9.2c-.15.18-.37.29-.6.3Z"/><path class="cls-10" d="m200.54,367.56h5.4c.7,0,1.2.3,1.2.9s-.4.9-1.1.9h-10.8c-.7,0-1.2-.4-1.1-1s.4-.9,1.2-.9h5.4l-.2.1Z"/><path d="m191.04,361.65v-4.8l8.6-9.1c.71-.7,1.34-1.47,1.9-2.3.36-.5.57-1.09.6-1.7,0-.59-.21-1.16-.6-1.6-.46-.42-1.08-.63-1.7-.6-1.5,0-2.7.9-3.5,2.7l-5.7-3.2c.75-1.81,2.04-3.35,3.7-4.4,3.66-2.23,8.33-1.95,11.7.7,1.76,1.48,2.72,3.7,2.6,6,.13,1.49-.26,2.97-1.1,4.2-.83,1.48-1.88,2.83-3.1,4l-3.5,3.7h8.1v6.4h-18Z"/><circle class="cls-3" cx="60.41" cy="199.56" r="45"/><path d="m25.01,197.06c-2.32-.4-3.88-2.61-3.48-4.94.02-.12.05-.24.08-.36.3-1.45,1.32-2.66,2.7-3.2l.6,1.9c-.76.27-1.32.91-1.5,1.7-.34,1.29.43,2.61,1.72,2.94.09.02.19.04.28.06,1.24.37,2.55-.33,2.93-1.57.03-.11.06-.22.07-.33.23-.79,0-1.64-.6-2.2l1.3-1.4c1.04,1.05,1.49,2.55,1.2,4-.48,2.38-2.8,3.91-5.18,3.43-.04,0-.08-.02-.12-.03Z"/><path d="m28.31,188.56c-1.6-.82-2.23-2.79-1.4-4.39,0,0,0,0,0,0,.77-1.6,2.68-2.27,4.28-1.51,0,0,.01,0,.02,0,1.6.82,2.23,2.79,1.4,4.39,0,0,0,0,0,0-.77,1.6-2.68,2.27-4.28,1.51,0,0-.01,0-.02,0Zm2.1-4.2c-.68-.36-1.53-.1-1.89.58,0,0,0,.01,0,.02-.33.72-.01,1.57.7,1.9.68.36,1.53.1,1.89-.58,0,0,0-.01,0-.02.36-.65.12-1.46-.53-1.82-.06-.03-.11-.06-.17-.08Z"/><path d="m37.51,174.26l2.8,2.5-1.2,1.4-2.7-2.4c-.5-.4-.9-.5-1.3,0-.37.41-.33,1.05.08,1.41.04.03.07.06.12.09l2.6,2.3-1.2,1.4-2.7-2.4c-.5-.4-.9-.5-1.3,0-.37.41-.33,1.05.08,1.41.04.03.07.06.12.09l2.6,2.3-1.2,1.4-4.5-4.1,1.2-1.4.4.4c-.11-.63.11-1.28.6-1.7.43-.47,1.07-.7,1.7-.6-.12-.69.1-1.4.6-1.9.86-.94,2.31-1.01,3.25-.15.05.05.1.1.15.15l-.2-.2Z"/><path d="m42.71,168.16l3.3,5.2-1.6,1-.3-.5c-.08.68-.49,1.28-1.1,1.6-1.04.69-2.45.41-3.15-.63-.06-.09-.11-.17-.15-.27l-2-3.2,1.6-1,1.9,3c.27.52.92.71,1.43.44.02-.01.04-.02.07-.04.6-.4.8-.9.3-1.7l-1.8-2.8,1.6-1-.1-.1Z"/><path d="m51.01,167.46l1.3,3.5-1.67.6-1.2-3.3c-.11-.54-.64-.89-1.19-.77-.07.02-.15.04-.21.07-.63.24-.95.94-.71,1.57,0,0,0,.02.01.03l1.1,3.2-1.7.6-2.1-5.8,1.7-.6.2.5c.25-.62.76-1.09,1.4-1.3,1.15-.45,2.44.11,2.89,1.25.04.11.08.23.11.35l.07.1Z"/><path d="m51.71,163.26c-.11-.61.29-1.19.9-1.3.61-.11,1.19.29,1.3.9.11.61-.29,1.19-.9,1.3,0,0,0,0,0,0-.61.1-1.18-.3-1.3-.9Zm.5,1.6l1.8-.3,1.1,6-1.8.3-1.1-6Z"/><path d="m55.71,167.26c-.08-1.74,1.27-3.22,3.02-3.3.03,0,.06,0,.08,0,1.13-.03,2.2.54,2.8,1.5l-1.6,1c-.25-.43-.7-.7-1.2-.7-.7-.03-1.29.52-1.32,1.22,0,.09,0,.19.02.28-.02.76.58,1.38,1.34,1.4.02,0,.04,0,.06,0,.5,0,.95-.27,1.2-.7l1.6.9c-.53,1.01-1.56,1.65-2.7,1.7-1.71.11-3.18-1.19-3.29-2.89,0-.07,0-.14,0-.21v-.2Z"/><path d="m69.31,165.26l-1.1,6-1.8-.3v-.6c-.48.45-1.17.61-1.8.4-1.66-.39-2.69-2.04-2.3-3.7,0,0,0,0,0,0,.25-1.7,1.8-2.89,3.5-2.7.71.08,1.34.49,1.7,1.1v-.6c.1,0,1.9.3,1.9.3l-.1.1Zm-2.4,2.7c.21-.7-.18-1.43-.88-1.65-.1-.03-.21-.05-.32-.05-.76-.17-1.51.32-1.68,1.08,0,.04-.02.08-.02.12-.21.7.18,1.43.88,1.65.1.03.21.05.32.05.75.18,1.5-.29,1.67-1.03.01-.05.02-.11.03-.17Z"/><path d="m72.91,168.46l-.8,2c-.2.5.2.7,1,1l-.6,1.6c-2.3-.6-2.7-1.6-2.1-3.2l.8-2-.9-.4.6-1.6.9.4.4-1.1,1.9.2-.6,1.6,1.2.5-.6,1.6-1.2-.5v-.1Z"/><path d="m76.11,167.96l1.6.9-2.9,5.4-1.6-.9,2.9-5.4Zm.6-1.5c.28-.55.95-.78,1.5-.5.55.28.78.95.5,1.5s-.95.78-1.5.5c0,0,0,0,0,0-.51-.32-.72-.94-.5-1.5Z"/><path d="m77.41,172.06c1.08-1.41,3.09-1.68,4.5-.6,1.41,1.08,1.68,3.09.6,4.5-1.08,1.41-3.09,1.68-4.5.6-1.41-1.07-1.68-3.08-.61-4.48,0,0,0-.01.01-.02Zm3.7,2.8c.5-.61.41-1.5-.2-2,0,0,0,0,0,0-.58-.48-1.44-.4-1.91.18-.03.04-.06.08-.09.12-.5.61-.41,1.5.2,2,0,0,0,0,0,0,.58.48,1.44.4,1.91-.18.03-.04.06-.08.09-.12Z"/><path d="m87.81,181.06l-2.9,2.4-1.2-1.4,2.7-2.2c.46-.3.59-.92.29-1.38-.03-.04-.06-.08-.09-.12-.4-.5-1-.6-1.7,0l-2.6,2.1-1.2-1.4,4.7-3.9,1.2,1.4-.4.4c.68-.01,1.32.33,1.7.9.82.97.7,2.41-.27,3.23-.07.06-.15.12-.23.17v-.2Z"/><path d="m89.41,189.16l-.4-.8-1.2.6-.9-1.8,1.2-.6-1.8-3.5,1.6-.8h6l1,1.8h-6l.8,1.6,1.6-.8.9,1.8-1.6.8.4.8-1.6.8v.1Z"/><path d="m94.21,197.46c-2.13.58-4.33-.67-4.91-2.8-.04-.13-.06-.26-.09-.4-.68-2.35.68-4.81,3.03-5.48s4.81.68,5.48,3.03c.03.12.06.23.09.35.39,1.47-.03,3.03-1.1,4.1l-1.3-1.4c.55-.63.73-1.5.5-2.3-.36-1.38-1.77-2.21-3.15-1.85-1.38.36-2.21,1.77-1.85,3.15.13.96.85,1.72,1.8,1.9l-.5-2.2,1.7-.4.9,4.2-.7.2.1-.1Z"/><path class="cls-20" d="m72.21,187.56c-8.5-.2-17.8-.2-26.3,0-14.8,1.9-22,20.9-11.6,31.8,2.2,3.3-1.6,9.5,2.3,11.8,3.3,1,5.2-3.4,7.4-5.1,9.2-1,20.3.5,29.8-.5,22.1-2.9,20.7-37.2-1.6-38.2v.2Z"/><path d="m57.41,208.56v4.2h-1.77v2.7h-4.5v-2.7h-7.8v-4.2l5.3-10.9h5l-5.4,11h2.8v-3.2h4.5v3.2h1.8l.07-.1Z"/><path d="m76.71,205.16v1.8c.09,2.39-.81,4.71-2.5,6.4-1.72,1.63-4.03,2.5-6.4,2.4-2.57.05-5.05-.92-6.9-2.7-3.65-3.62-3.67-9.51-.05-13.15,1.76-1.77,4.15-2.76,6.65-2.75,1.61-.12,3.22.26,4.6,1.1,1.35.64,2.47,1.69,3.2,3l-3.9,2.2c-.39-.59-.95-1.04-1.6-1.3-.73-.32-1.51-.49-2.3-.5-2.64-.05-4.82,2.05-4.87,4.69,0,.07,0,.14,0,.21-.04,1.29.42,2.55,1.3,3.5.99,1.02,2.39,1.53,3.8,1.4,1.69.08,3.29-.81,4.1-2.3h-4.3v-3.9h9l.17-.1Z"/><path class="cls-21" d="m218.12,198.67c.56,0,1.12.02,1.68.03.95,0,1.73.78,1.75,1.74.01.88,0,1.76,0,2.63,0,7.43,0,14.85,0,22.28,0,.48-.02.98-.16,1.44-.17.55-.85,1.05-1.43,1.05-6.29,0-12.58,0-18.86,0-.03,0-.06,0-.09-.01,0-1.71,0-3.42,0-5.13,1.31,0,2.62,0,3.93-.01.17,0,.36.04.36-.23.01-.65.06-1.31-.09-1.93-.41-1.67-.89-3.33-1.32-4.99-.12-.45-.24-.9-.4-1.33-.25-.68.22-1.04.63-1.42.68-.62.96-1.4,1.12-2.3.34-1.87-1.24-4.12-3.02-4.69-.06-.1-.14-.15-.25-.09-.09-.02-.18-.04-.27-.06-.04-.06-.09-.07-.16-.04-.17-.02-.35-.05-.52-.07,0-2.27,0-4.54,0-6.81,3.22,0,6.45-.01,9.67-.02.2,0,.4-.02.6-.02,1.15.04,2.31.05,3.46,0,1.13.06,2.26.05,3.39,0Z"/><path class="cls-13" d="m201,222.69c0,1.71,0,3.42,0,5.13-.65,0-1.29.01-1.94.01-5.48,0-10.97-.03-16.45.02-1.44.01-2.19-.77-2.18-2.19.05-8.39.03-16.78,0-25.17,0-1.01.81-1.81,1.77-1.79.56.01,1.12-.01,1.68-.02,1.13.03,2.26.06,3.39-.01,1.15.07,2.3.04,3.45.01.19,0,.37.02.56.02,3.24,0,6.48,0,9.71.01,0,2.27,0,4.54,0,6.81-.36.17-.77.09-1.15.24-1.6.62-2.66,1.7-3.04,3.41-.07.04-.12.08-.03.15-.13,1.41.02,2.7,1.28,3.63.4.29.55.74.39,1.29-.1.34-.23.67-.31,1.01-.22.94-.47,1.88-.72,2.81-.18.69-.4,1.37-.56,2.07-.16.69-.12,1.39-.15,2.09-.01.35.08.47.45.46,1.28-.02,2.56,0,3.84,0Z"/><path class="cls-17" d="m187.27,198.66c-1.13.07-2.26.04-3.39.01,0-3.05-.02-6.1.02-9.15.02-1.41.21-2.81.62-4.18.49-1.65,1.19-3.2,2.14-4.63,1.18-1.79,2.65-3.31,4.4-4.56,1.15-.82,2.36-1.55,3.68-2.01,1.32-.46,2.65-.91,4.07-1.01.8-.06,1.59-.18,2.39-.16,1.99.03,3.92.43,5.78,1.13,1.87.7,3.55,1.72,5.08,2.99,1.32,1.1,2.4,2.4,3.32,3.83.65,1.02,1.17,2.1,1.61,3.23.24.62.41,1.27.62,1.9.2.57.23,1.2.3,1.81.39,3.6.1,7.21.19,10.81-1.13.04-2.26.06-3.39,0,0-2.58-.02-5.15.01-7.73.02-1.48-.17-2.93-.53-4.36-.51-2.01-1.44-3.82-2.8-5.37-1.66-1.9-3.68-3.33-6.11-4.1-1.73-.55-3.48-.72-5.3-.61-1.68.1-3.26.5-4.76,1.2-2.5,1.16-4.46,2.94-5.92,5.29-1.26,2.02-1.94,4.24-2.03,6.59-.11,3.03-.02,6.07-.02,9.11Z"/><path class="cls-7" d="m211.27,198.67c0-2.73.02-5.47,0-8.2-.02-1.45-.22-2.89-.8-4.24-.46-1.07-1.08-2.04-1.85-2.94-1.14-1.33-2.57-2.25-4.18-2.83-1.49-.54-3.05-.72-4.65-.52-.98.12-1.93.35-2.81.73-2.46,1.07-4.27,2.83-5.38,5.29-.52,1.15-.73,2.36-.79,3.61-.15,3.03-.02,6.07-.07,9.1-1.15.02-2.3.05-3.45-.02,0-3.04-.09-6.08.02-9.11.09-2.34.77-4.57,2.03-6.59,1.46-2.34,3.42-4.12,5.92-5.29,1.5-.7,3.08-1.1,4.76-1.2,1.82-.11,3.57.07,5.3.61,2.44.77,4.45,2.2,6.11,4.1,1.36,1.55,2.29,3.36,2.8,5.37.36,1.43.55,2.88.53,4.36-.03,2.58-.01,5.15-.01,7.73-1.15.06-2.31.04-3.46,0Z"/><path class="cls-14" d="m201,222.69c-1.28,0-2.56-.02-3.84,0-.37,0-.46-.11-.45-.46.03-.7-.02-1.41.15-2.09.17-.69.38-1.38.56-2.07.25-.94.5-1.87.72-2.81.08-.34.21-.68.31-1.01.16-.55,0-.99-.39-1.29-1.26-.93-1.41-2.23-1.28-3.63.07-.04.07-.09.03-.15.38-1.7,1.44-2.78,3.04-3.41.38-.15.79-.06,1.15-.24.17.02.35.05.52.07.03.09.08.14.16.04.09.02.18.04.27.06.05.12.15.1.25.09,1.78.57,3.36,2.82,3.02,4.69-.16.9-.45,1.67-1.12,2.3-.41.38-.88.73-.63,1.42.16.43.29.88.4,1.33.43,1.67.91,3.32,1.32,4.99.15.62.1,1.28.09,1.93,0,.28-.19.23-.36.23-1.31,0-2.62,0-3.93.01Z"/><path class="cls-7" d="m202.2,205.79c-.1,0-.2.03-.25-.09.11-.05.19,0,.25.09Z"/><path class="cls-7" d="m201.68,205.64c-.08.1-.12.05-.16-.04.06-.04.12-.02.16.04Z"/><path class="cls-17" d="m196.81,209.17c.04.06.04.12-.03.15-.09-.07-.03-.12.03-.15Z"/><circle class="cls-2" cx="201.15" cy="203" r="44.02"/><path class="cls-21" d="m214.12,52.67c.56,0,1.12.02,1.68.03.95,0,1.73.78,1.75,1.74.01.88,0,1.76,0,2.63,0,7.43,0,14.85,0,22.28,0,.48-.02.98-.16,1.44-.17.55-.85,1.05-1.43,1.05-6.29,0-12.58,0-18.86,0-.03,0-.06,0-.09-.01,0-1.71,0-3.42,0-5.13,1.31,0,2.62,0,3.93-.01.17,0,.36.04.36-.23.01-.65.06-1.31-.09-1.93-.41-1.67-.89-3.33-1.32-4.99-.12-.45-.24-.9-.4-1.33-.25-.68.22-1.04.63-1.42.68-.62.96-1.4,1.12-2.3.34-1.87-1.24-4.12-3.02-4.69-.06-.1-.14-.15-.25-.09-.09-.02-.18-.04-.27-.06-.04-.06-.09-.07-.16-.04-.17-.02-.35-.05-.52-.07,0-2.27,0-4.54,0-6.81,3.22,0,6.45-.01,9.67-.02.2,0,.4-.02.6-.02,1.15.04,2.31.05,3.46,0,1.13.06,2.26.05,3.39,0Z"/><path class="cls-13" d="m197,76.69c0,1.71,0,3.42,0,5.13-.65,0-1.29.01-1.94.01-5.48,0-10.97-.03-16.45.02-1.44.01-2.19-.77-2.18-2.19.05-8.39.03-16.78,0-25.17,0-1.01.81-1.81,1.77-1.79.56.01,1.12-.01,1.68-.02,1.13.03,2.26.06,3.39-.01,1.15.07,2.3.04,3.45.01.19,0,.37.02.56.02,3.24,0,6.48,0,9.71.01,0,2.27,0,4.54,0,6.81-.36.17-.77.09-1.15.24-1.6.62-2.66,1.7-3.04,3.41-.07.04-.12.08-.03.15-.13,1.41.02,2.7,1.28,3.63.4.29.55.74.39,1.29-.1.34-.23.67-.31,1.01-.22.94-.47,1.88-.72,2.81-.18.69-.4,1.37-.56,2.07-.16.69-.12,1.39-.15,2.09-.01.35.08.47.45.46,1.28-.02,2.56,0,3.84,0Z"/><path class="cls-17" d="m183.27,52.66c-1.13.07-2.26.04-3.39.01,0-3.05-.02-6.1.02-9.15.02-1.41.21-2.81.62-4.18.49-1.65,1.19-3.2,2.14-4.63,1.18-1.79,2.65-3.31,4.4-4.56,1.15-.82,2.36-1.55,3.68-2.01,1.32-.46,2.65-.91,4.07-1.01.8-.06,1.59-.18,2.39-.16,1.99.03,3.92.43,5.78,1.13,1.87.7,3.55,1.72,5.08,2.99,1.32,1.1,2.4,2.4,3.32,3.83.65,1.02,1.17,2.1,1.61,3.23.24.62.41,1.27.62,1.9.2.57.23,1.2.3,1.81.39,3.6.1,7.21.19,10.81-1.13.04-2.26.06-3.39,0,0-2.58-.02-5.15.01-7.73.02-1.48-.17-2.93-.53-4.36-.51-2.01-1.44-3.82-2.8-5.37-1.66-1.9-3.68-3.33-6.11-4.1-1.73-.55-3.48-.72-5.3-.61-1.68.1-3.26.5-4.76,1.2-2.5,1.16-4.46,2.94-5.92,5.29-1.26,2.02-1.94,4.24-2.03,6.59-.11,3.03-.02,6.07-.02,9.11Z"/><path class="cls-7" d="m207.27,52.67c0-2.73.02-5.47,0-8.2-.02-1.45-.22-2.89-.8-4.24-.46-1.07-1.08-2.04-1.85-2.94-1.14-1.33-2.57-2.25-4.18-2.83-1.49-.54-3.05-.72-4.65-.52-.98.12-1.93.35-2.81.73-2.46,1.07-4.27,2.83-5.38,5.29-.52,1.15-.73,2.36-.79,3.61-.15,3.03-.02,6.07-.07,9.1-1.15.02-2.3.05-3.45-.02,0-3.04-.09-6.08.02-9.11.09-2.34.77-4.57,2.03-6.59,1.46-2.34,3.42-4.12,5.92-5.29,1.5-.7,3.08-1.1,4.76-1.2,1.82-.11,3.57.07,5.3.61,2.44.77,4.45,2.2,6.11,4.1,1.36,1.55,2.29,3.36,2.8,5.37.36,1.43.55,2.88.53,4.36-.03,2.58-.01,5.15-.01,7.73-1.15.06-2.31.04-3.46,0Z"/><path class="cls-14" d="m197,76.69c-1.28,0-2.56-.02-3.84,0-.37,0-.46-.11-.45-.46.03-.7-.02-1.41.15-2.09.17-.69.38-1.38.56-2.07.25-.94.5-1.87.72-2.81.08-.34.21-.68.31-1.01.16-.55,0-.99-.39-1.29-1.26-.93-1.41-2.23-1.28-3.63.07-.04.07-.09.03-.15.38-1.7,1.44-2.78,3.04-3.41.38-.15.79-.06,1.15-.24.17.02.35.05.52.07.03.09.08.14.16.04.09.02.18.04.27.06.05.12.15.1.25.09,1.78.57,3.36,2.82,3.02,4.69-.16.9-.45,1.67-1.12,2.3-.41.38-.88.73-.63,1.42.16.43.29.88.4,1.33.43,1.67.91,3.32,1.32,4.99.15.62.1,1.28.09,1.93,0,.28-.19.23-.36.23-1.31,0-2.62,0-3.93.01Z"/><path class="cls-7" d="m198.2,59.79c-.1,0-.2.03-.25-.09.11-.05.19,0,.25.09Z"/><path class="cls-7" d="m197.68,59.64c-.08.1-.12.05-.16-.04.06-.04.12-.02.16.04Z"/><path class="cls-17" d="m192.81,63.17c.04.06.04.12-.03.15-.09-.07-.03-.12.03-.15Z"/><circle class="cls-2" cx="197.15" cy="57" r="44.02"/></svg>