<?xml version="1.0" encoding="UTF-8"?><svg id="Layer_1" xmlns="http://www.w3.org/2000/svg" viewBox="0 0 400 400"><defs><style>.cls-1{fill:#375e7d;}.cls-2{fill:#a7cefe;}.cls-3{stroke:#a5262d;}.cls-3,.cls-4{stroke-width:4px;}.cls-3,.cls-4,.cls-5{fill:none;stroke-miterlimit:10;}.cls-6{fill:#fff;}.cls-7{fill:#727272;}.cls-8{fill:#2b4d66;}.cls-9{fill:#0c4a4e;}.cls-10{fill:#d2febf;}.cls-11{fill:#d1fdbf;}.cls-12{fill:#999afe;}.cls-4{stroke:#c000e2;}.cls-13{fill:#d9cfca;}.cls-14{fill:#fef3d6;}.cls-15{fill:#00f6d5;}.cls-16{fill:#626363;}.cls-17{fill:#e5dedc;}.cls-18{fill:#01264f;}.cls-19{fill:#2b4e68;}.cls-20{fill:#97f8fe;}.cls-21{fill:#034868;}.cls-22{fill:#f1efef;}.cls-23{fill:#989afe;}.cls-24{fill:#02f6d5;}.cls-25{fill:#d0cde6;}.cls-26{fill:#2b506b;}.cls-27{fill:#fe7038;}.cls-28{fill:#717f8f;}.cls-29{fill:#93dbfe;}.cls-30{fill:#03f6d5;}.cls-31{fill:#e5e4ec;}.cls-32{fill:#debcef;}.cls-33{fill:#f1d0fe;}.cls-34{fill:#fe5f7a;}.cls-35{fill:#152433;}.cls-5{stroke:#231f20;stroke-width:2px;}.cls-36{fill:#fe415d;}.cls-37{fill:#22a5fc;}.cls-38{fill:#6f7070;}.cls-39{fill:#0aaffe;}.cls-40{fill:#395f7e;}.cls-41{fill:#625260;}.cls-42{fill:#00244d;}.cls-43{fill:#e6dedc;}.cls-44{fill:#b7b7fe;}.cls-45{fill:#979bfd;}.cls-46{fill:#728090;}.cls-47{fill:#4e3d4d;}.cls-48{fill:#636363;}.cls-49{fill:#0693fb;}.cls-50{fill:#b6d6fd;}.cls-51{fill:#fe7e92;}.cls-52{fill:#f8f6f7;}.cls-53{fill:#d0c8c3;}.cls-54{fill:#d0cde7;}.cls-55{fill:#b8b8fd;}.cls-56{fill:#3f4a5b;}.cls-57{fill:#dcd9ea;}.cls-58{fill:#014767;}.cls-59{fill:#7dd4f3;}.cls-60{fill:#231f20;}.cls-61{fill:#00dbe6;}.cls-62{fill:#2dbafe;}.cls-63{fill:#fefefe;}.cls-64{fill:#2c4d66;}</style></defs><line class="cls-6" x1="201.28" y1="142.86" x2="201.78" y2="110.08"/><line class="cls-5" x1="201.28" y1="142.86" x2="201.61" y2="120.85"/><polygon class="cls-60" points="209.06 123.15 201.78 110.08 194.1 122.92 209.06 123.15"/><line class="cls-6" x1="168.32" y1="147.12" x2="119.68" y2="107.82"/><line class="cls-5" x1="168.32" y1="147.12" x2="128.05" y2="114.58"/><polygon class="cls-60" points="134.45 110.14 119.68 107.82 125.05 121.78 134.45 110.14"/><line class="cls-6" x1="233.68" y1="147.12" x2="282.32" y2="107.82"/><line class="cls-5" x1="233.68" y1="147.12" x2="273.95" y2="114.58"/><polygon class="cls-60" points="276.95 121.78 282.32 107.82 267.55 110.14 276.95 121.78"/><line class="cls-6" x1="201.28" y1="257.08" x2="201.78" y2="289.86"/><line class="cls-5" x1="201.28" y1="257.08" x2="201.61" y2="279.1"/><polygon class="cls-60" points="194.1 277.02 201.78 289.86 209.06 276.8 194.1 277.02"/><line class="cls-6" x1="168.32" y1="252.82" x2="119.68" y2="292.12"/><line class="cls-5" x1="168.32" y1="252.82" x2="128.05" y2="285.36"/><polygon class="cls-60" points="125.05 278.17 119.68 292.12 134.45 289.8 125.05 278.17"/><line class="cls-6" x1="233.68" y1="252.82" x2="282.32" y2="292.12"/><line class="cls-5" x1="233.68" y1="252.82" x2="273.95" y2="285.36"/><polygon class="cls-60" points="267.55 289.8 282.32 292.13 276.95 278.17 267.55 289.8"/><circle class="cls-3" cx="201" cy="199.97" r="45"/><path class="cls-64" d="m227,220.27c-.2.9-.7,1.8-1.2,2.6-1.1,1.5-2.8,2.4-4.7,2.4h-5.4c-.9,0-1-.2-1-1.1v-1.7c1.9,0,3.8.1,5.8-.1,1,0,1.9-.5,2.6-1.3.8-1.3,1.3-2.8,1.2-4.3h2.8v3.5h-.1Z"/><path class="cls-25" d="m227,216.77h-2.7v-15.3h2.7v15.4-.1Z"/><path class="cls-64" d="m227,201.37h-2.7v-2.7c0-1.8-1-3.5-2.4-4.5-.8-.5-1.6-.9-2.5-1.2,1.8-.1,3.6,0,5.1,1.1,1.3.9,2.1,2.3,2.4,3.8l.1.1v3.4Z"/><path class="cls-31" d="m177.1,211.57h-4.7c-1.1.1-2.2-.4-2.8-1.4,0,0-.1-.1-.2-.1v-1.6h.1c.5.8,1.4,1.2,2.4,1.1h5.1c.2.3.1.6,0,.9s-.2.5,0,.8v.3h.1Z"/><path class="cls-37" d="m189.5,194.57c.7-.1,1.3,0,2,0h19.6v23.6c0,.7-.3,1.3-.9,1.6,0-.9-.3-1.2-1.2-1.2h-14.2c-.8,0-1.1.4-1,1.2h-4.4v-25.1l.1-.1Zm12.6,13.7h-6.9c-.9,0-1.4.3-1.3.9s.5.9,1.3.9h14.4c.4,0,.7-.5.7-.9h0c0-.4-.3-.7-.7-.8h-7.4l-.1-.1Zm0-8.5h7.1c.7,0,1-.3,1-.8s-.3-.9-1.1-.9h-14.2c-.3,0-.7,0-.9.3-.2.2-.3.6-.1.9.2.4.5.6.9.5h7.3Zm0,5.1h7.2c.4,0,.7-.1.9-.4.2-.3.1-.6,0-.9-.2-.3-.6-.3-1-.3h-14.6c-.4.1-.7.6-.6,1h0c.1.4.5.7,1,.7h7.1v-.1Zm0,10.2h7.1c.2,0,.5,0,.7-.1.3-.2.5-.6.4-1s-.5-.7-.9-.6h-14.4c-.4,0-.8.1-1,.5-.3.7.2,1.2.9,1.2h7.2Z"/><path class="cls-1" d="m219.3,192.97c.9.3,1.8.7,2.5,1.2,1.4,1.1,2.3,2.7,2.4,4.5v2.7h-1.9c-.7,0-1.2.6-1.1,1.3h0v12.8c0,.7.4,1.3,1.1,1.3h1.8c0,1.5-.3,3-1.2,4.3-.6.8-1.6,1.2-2.6,1.3-1.9.3-3.8,0-5.8.1v-28.1c0-1.7.3-1.5,1.6-1.5h3.1l.1.1Z"/><path class="cls-49" d="m214.6,194.37v29.4h-20.4c-.2-.1-.4,0-.6,0h-3.5c-.2,0-.4,0-.5-.2v-3.8h4.3c.2.4.7.7,1.1.6h14.1c.5,0,.9-.2,1.2-.6.6-.3,1-.9.9-1.6v-23.6c1.1-.1,2.3,0,3.5,0l-.1-.2Z"/><path class="cls-1" d="m189.5,194.57v25.2h-1.2c-2.2-.4-4.1-1.7-5.3-3.5-.6-1-1-2.1-1.2-3.2v-9.8c-.1-.9,0-1.9.3-2.8.8-3.5,4.2-6.1,7.5-5.8l-.1-.1Z"/><path class="cls-40" d="m191.5,186.87h-.8c-.6,0-1.1-.3-1.1-.9v-2.4c0-1,.3-1.3,1.3-1.3h11c.5.5.7,1.2.5,1.9v.9c.1.7,0,1.3-.6,1.8h-10.3Z"/><path class="cls-54" d="m191.5,186.87h12.1v7.6h-2.9v-3c0-.2,0-.4-.2-.5v-.4c.4-.7.2-1-.6-1h-8.4v-2.7Z"/><path class="cls-57" d="m200.5,190.87c.2.1.2.3.2.5v3h-9.2v-5h8.5c.8,0,.9.3.6,1-.3-.7-.7-.8-1.2-.6-.4.2-.6.7-.4,1.1.1.2.3.4.6.5.5.1.9-.1,1.1-.6l-.2.1Zm-5.1-1.1c-.5,0-.8.4-.9.8,0,.5.4.9.9.9s.9-.4.9-.9-.4-.9-.9-.9h0v.1Z"/><path class="cls-57" d="m181.7,203.17v9.2h-2.2c-.7,0-1.4-.3-1.9-.9,0-.1-.1-.3-.3-.3-.2-.3,0-.5,0-.8s.1-.6,0-.9v-4.7c0-.9.9-1.7,1.9-1.7h2.6l-.1.1Z"/><path class="cls-52" d="m177.1,206.67v2.9h-5.1c-1,.1-1.9-.4-2.4-1.2.4-1.1,1.5-1.8,2.7-1.7h4.8Z"/><path class="cls-64" d="m203.6,186.87h-1.8c.5-.5.7-1.2.6-1.8v-.9c.1-.7,0-1.4-.6-1.9h2.7c.6,0,1.1.4,1.1,1v2.4c0,.9-.4,1.3-1.3,1.3h-.7v-.1Z"/><path class="cls-57" d="m209.1,230.67h1.5c.6.6.8,1.5.7,2.3v.9c0,.4-.2.8-.5,1.1,0,0-.3.1-.3.3-8.5-.2-17,0-25.5,0s-1.7-.6-1.6-1.6v-1.7c0-.7.5-1.3,1.2-1.3h24.5Z"/><path class="cls-64" d="m181.7,212.97c.2,1.1.6,2.2,1.2,3.2,1.2,1.8,3.1,3.1,5.3,3.5h1.2v4.1c-3.7,0-6.8-2.6-7.7-6.1-.1-.9-.2-1.7-.2-2.6v-2.1h.2Z"/><path class="cls-19" d="m189.5,223.77v-.3c.1.3.4.2.6.2h4.1v6.9h-2.1v-4.1c0-.6-.1-.8-.8-.8h-1.7v-2l-.1.1Z"/><path class="cls-8" d="m209.1,230.67h-2v-4.3c0-.4-.2-.7-.7-.7h-1.9v-2c.7,0,1.5-.1,2.3,0h2.3c0,2.4,0,4.7,0,7Z"/><path class="cls-25" d="m210.5,235.37c0-.2.2-.2.3-.3.3-.3.5-.7.5-1.1v-.9c.2-.8,0-1.7-.7-2.3h3.2c.8,0,1.4.5,1.5,1.3v1.8c.1.8-.4,1.5-1.2,1.7h-3.6v-.2Z"/><path class="cls-25" d="m181.7,212.97v2.1h-2.5c-1.1,0-2.1-.8-2.2-1.9v-1.5c.1,0,0-.2.1-.3.2,0,.2.2.3.3.4.6,1.2.9,1.9.9h2.2v.5l.2-.1Z"/><path class="cls-1" d="m189.6,225.67h1.7c.6,0,.8.2.8.8-.1,1.4-.1,2.8,0,4.2h-2.4v-5h-.1Z"/><path class="cls-57" d="m224.2,216.77h-1.6c-.7,0-1.3-.4-1.3-1.1v-13c0-.7.4-1.3,1.1-1.3h1.9v15.3h0l-.1.1Z"/><path class="cls-26" d="m210.3,219.67c-.2.4-.7.6-1.1.6h-14.1c-.5,0-.9-.2-1.1-.6,0-.8.2-1.2,1-1.2h14.1c.9,0,1.2.3,1.2,1.2Z"/><path class="cls-26" d="m202.1,208.17h7.4c.4,0,.7.4.8.8,0,.4-.2.8-.7.9h-14.4c-.8,0-1.3-.3-1.3-.9s.4-.9,1.3-.9h6.9v.1Z"/><path class="cls-8" d="m202.1,199.67h-7.2c-.4,0-.8-.2-.9-.5-.1-.3,0-.6.1-.9.2-.3.6-.4.9-.3h14.2c.7,0,1.1.3,1.1.9s-.3.8-1,.8h-7.2Z"/><path class="cls-8" d="m202.1,204.87h-7.1c-.4,0-.9-.2-1-.7-.1-.4.1-.9.6-1h14.6c.4,0,.7,0,1,.3.2.3.2.6,0,.9-.2.3-.5.5-.9.5,0,0-7.2,0-7.2,0Z"/><path class="cls-8" d="m202.1,215.07h-7.2c-.8,0-1.2-.6-.9-1.2.2-.4.6-.6,1-.5h14.4c.4,0,.9.2,1,.6s0,.8-.4,1c-.2.1-.5.1-.7.1h-7.2Z"/><path class="cls-26" d="m200.5,190.87c-.1.5-.6.7-1.1.6-.5-.1-.7-.6-.6-1,0-.3.2-.5.5-.6.5-.2.9,0,1.2.6v.4Z"/><path class="cls-26" d="m195.4,189.77c.5,0,.9.4.9.9s-.4.9-.9.9h0c-.5,0-.9-.4-.9-.9s.4-.8.9-.8v-.1Z"/><path class="cls-40" d="m204.6,230.67v-4.9h1.9c.5,0,.7.2.7.7v4.3h-2.6v-.1Z"/><path d="m160.6,198.17l.4-2.4,7.5-1-6.8-3.3.4-2.4,9.2,4.8-.5,2.8-10.2,1.6v-.1Z"/><path d="m163.7,187.87c-.6-.2-1-1-.7-1.6.2-.6,1-1,1.6-.7.6.2,1,1,.7,1.6-.2.6-1,1-1.6.7Zm1.8.5l.7-2,6.6,2.4-.7,2-6.6-2.4Z"/><path d="m174,179.37c1.8,1.1,2.4,3.2,1.4,4.8-.5.8-1.1,1.2-1.8,1.3l.6.3-1.1,1.8-8.4-5.1,1.1-1.8,3,1.8c-.2-.7-.1-1.4.3-2.2.9-1.6,3.1-2,4.9-1v.1Zm-1.1,1.8c-.9-.5-1.8-.3-2.3.5-.5.8-.3,1.8.6,2.3s1.8.3,2.3-.5.3-1.8-.6-2.3Z"/><path d="m175.3,172.87l1.7,1.6c-.7.5-1.3,1.7-.3,2.6l2.3,2.2-1.4,1.5-5.1-4.8,1.4-1.5.9.9c-.5-.8-.2-1.8.4-2.5h.1Z"/><path d="m182.5,167.57l4,5.7-1.7,1.2-.4-.5c0,.7-.4,1.4-1.2,1.9-1.5,1.1-3.7.6-4.9-1.1-1.2-1.7-.9-3.9.6-4.9.8-.5,1.5-.7,2.2-.5l-.4-.5,1.7-1.2.1-.1Zm.3,4.1c-.6-.9-1.6-1-2.3-.4-.8.6-1,1.5-.4,2.4s1.6,1,2.3.4c.8-.6,1-1.5.4-2.4Z"/><path d="m188,167.37l1,2.3c.2.6.7.4,1.6,0l.7,1.8c-2.4,1.3-3.5.9-4.2-.9l-1-2.3-1,.4-.8-1.9,1-.4-.5-1.2,1.7-1.4.8,1.8,1.3-.6.8,1.9-1.3.6-.1-.1Z"/><path d="m189.6,162.67c-.2-.7.2-1.4.9-1.5.7-.2,1.4.2,1.5.9.2.7-.2,1.4-.9,1.5-.7.2-1.4-.2-1.5-.9Zm.7,1.8l2-.5,1.8,6.8-2,.5-1.8-6.8Z"/><path d="m194.6,166.77c-.2-2.1,1.4-3.8,3.4-4,2.1-.2,3.8,1.3,4,3.4.2,2.1-1.4,3.8-3.4,4-2.1.2-3.8-1.3-4-3.4Zm5.3-.4c0-1-.8-1.6-1.7-1.5-.9,0-1.6.8-1.5,1.8,0,1,.8,1.6,1.7,1.5.9,0,1.6-.8,1.5-1.8Z"/><path d="m210.3,166.67l-.7,4.2-2.1-.4.7-3.9c.1-.9-.3-1.3-1-1.5-.8-.1-1.4.2-1.5,1.2l-.6,3.8-2.1-.4,1.2-6.9,2.1.4v.6c.3-.4,1.1-.7,2-.5,1.4.2,2.4,1.4,2.1,3.3l-.1.1Z"/><path d="m212.5,166.47l4.9,2.1-.8,1.9-4.9-2.1.8-1.9Z"/><path d="m227.2,176.97l-2.7,3.3-1.6-1.3,2.6-3.2c.4-.5.5-1.1,0-1.5s-1.2-.3-1.7.3l-2.5,3-1.6-1.3,2.6-3.2c.4-.5.5-1.1,0-1.5s-1.2-.3-1.7.3l-2.5,3-1.6-1.3,4.5-5.4,1.6,1.3-.4.5c.6-.2,1.3,0,2,.6.6.5.9,1.2.8,1.9.7-.2,1.4,0,2.2.6,1.2,1,1.3,2.6.2,3.9h-.2Z"/><path d="m227.5,178.87c1.8-1.1,4-.6,5.1,1.1s.6,4-1.1,5.1c-1.8,1.1-4,.6-5.1-1.1-1.1-1.7-.6-4,1.1-5.1Zm2.9,4.5c.8-.5,1-1.5.5-2.2-.5-.8-1.4-1-2.3-.5-.8.5-1,1.5-.5,2.2.5.8,1.4,1,2.3.5Z"/><path d="m234.2,188.27l-2.3.9c-.6.2-.4.7,0,1.6l-1.8.7c-1.2-2.5-.8-3.5,1.1-4.2l2.3-.9-.4-1,1.9-.7.4,1,1.2-.5,1.3,1.7-1.8.7.5,1.3-1.9.7s-.5-1.3-.5-1.3Z"/><path d="m233.8,191.07c2.1-.3,3.9,1,4.2,3.1.3,2-1,3.9-3,4.3-2.1.3-3.9-1-4.2-3.1-.3-2,1-3.9,3-4.3Zm.9,5.2c1-.2,1.5-1,1.4-1.9s-.9-1.5-1.9-1.3-1.5,1-1.4,1.9.9,1.5,1.9,1.3Z"/><path d="m238.3,204.17h-2.4c.2-1-.1-2.2-1.5-2.3h-3.2v-2.2l7,.3v2.1h-1.3c.9.3,1.3,1.3,1.3,2.2l.1-.1Z"/><circle class="cls-4" cx="201" cy="56.21" r="45"/><path d="m165.2,46.01l-.6,2.7,8.2,1.8-.5,2.4-8.2-1.8-.6,2.7-2.3-.5,1.7-7.8,2.3.5Z"/><path d="m169.6,38.31l6.9,3.3-1,2.1-.6-.3c.3.7.3,1.5-.2,2.5-.9,1.8-3.2,2.5-5.2,1.5-2.1-1-2.9-3.2-2-5.1.4-.9,1.1-1.4,1.8-1.6l-.6-.3,1-2.1h-.1Zm2.4,3.7c-1-.5-2-.1-2.5.8-.5,1-.1,2,.9,2.5s2,.1,2.5-.8c.5-1,.1-2-.9-2.5Z"/><path d="m179.9,32.21c1.7,1.6,1.8,4,.4,5.4-.7.7-1.5,1.1-2.2,1l.5.5-1.6,1.7-7.8-7.3,1.6-1.7,2.8,2.6c0-.8.2-1.6.9-2.3,1.4-1.5,3.8-1.5,5.5,0l-.1.1Zm-1.6,1.7c-.8-.8-1.9-.7-2.6,0-.7.8-.7,1.8.1,2.6s1.9.7,2.6,0c.7-.8.7-1.8-.1-2.6Z"/><path d="m177.1,25.41l1.9-1.3,6.4,9.2-1.9,1.3-6.4-9.2Z"/><path d="m189.1,29.31c.6-.2,1-.7,1.1-1.1l2.1.2c-.3,1.3-1.1,2.2-2.4,2.8-2.4,1-4.6,0-5.5-2-.9-2.1,0-4.4,2.2-5.3,2.1-.9,4.3,0,5.2,2.2.1.3.2.6.3.9l-5,2.1c.6.6,1.3.6,2.1.3l-.1-.1Zm.2-3.1c-.6-.7-1.3-.7-2-.5-.8.3-1.2,1-1.1,1.8l3-1.3h.1Z"/><path d="m195.7,23.71l.5,2.7c.1.6.7.6,1.7.4l.4,2.1c-2.9.8-3.9,0-4.3-2l-.5-2.7-1.2.2-.4-2.2,1.2-.2-.3-1.4,2.1-1.1.4,2.1,1.6-.3.4,2.2-1.6.3v-.1Z"/><path d="m199.2,23.01l5.8.2v2.2l-5.9-.2v-2.2h.1Z"/><path d="m215,27.81c-.7,2.2-2.8,3.4-4.7,2.8-1-.3-1.6-.9-1.9-1.6l-.2.7-2.2-.7,3.2-10.2,2.2.7-1.1,3.6c.7-.4,1.5-.5,2.5-.2,1.9.6,3,2.8,2.3,5l-.1-.1Zm-2.2-.7c.3-1.1-.2-2-1.2-2.3s-2,.1-2.3,1.2.2,2,1.2,2.3,2-.1,2.3-1.2Z"/><path d="m216.2,28.41c1.3-1.9,3.8-2.3,5.6-1s2.4,3.7,1.1,5.6-3.8,2.3-5.6,1c-1.9-1.3-2.4-3.7-1.1-5.6Zm4.8,3.3c.6-.9.4-1.9-.4-2.5s-1.9-.4-2.5.5-.4,1.9.4,2.5,1.9.4,2.5-.5Z"/><path d="m234.4,36.01l-8.4,6.7-1.4-1.8.6-.5c-.8,0-1.5-.4-2.2-1.2-1.3-1.6-.9-4,.9-5.4s4.2-1.2,5.4.3c.6.8.8,1.6.7,2.4l2.9-2.4,1.4,1.8.1.1Zm-6.8,2.5c.9-.7,1-1.8.3-2.6-.7-.8-1.7-1-2.6-.2-.9.7-1,1.8-.3,2.6.7.8,1.7,1,2.6.2Z"/><path d="m236.4,47.31l-7.9.5c-2.6.2-4-.7-4.7-2.7l2-.8c.4,1,.9,1.3,1.9,1.3l5.5-5.6,1,2.3-3.7,3.4,4.9-.5,1,2.3v-.2Z"/><path d="m230.9,49.81l4.2,3c.7.5,1.4.9,2,.8.7,0,1.1-.6,1-1.3s-.7-1.2-1.4-1.4l.9-2.2c1.7.5,2.6,1.8,2.8,3.2.3,1.9-.7,3.8-2.9,4.1-1.3.2-2.5-.3-3.6-1.2l-2-1.5.5,3.6-2.3.3-1-7.2s1.8-.2,1.8-.2Z"/><path class="cls-41" d="m182.6,40.91h34.7c.3.2.7.2,1,.5v45.2c0,1.2-.5,2.1-2,2.1h-34.7c-11.6,0-.6,0-.8.1-.5-.6-.5-1.3-.5-2.1v-42.8c.1-1.4.8-2.3,2.1-2.8.1,0,.3,0,.4-.2h-.2Zm24.4,3.2h-22.4c-.9,0-1.1.2-1.1,1.1v40.7c0,.9.2,1.1,1.1,1.1h31.3c.5,0,.8-.3.8-.8v-41.3c0-.5-.3-.8-.9-.8h-8.8Z"/><path class="cls-47" d="m182.7,90.21c-.5-.3-1.1-.4-1.6-.9-.2-.2-.4-.4-.5-.6.3-.1.6-.1.8-.1h34.7c1.5,0,2-.8,2-2.1v-45.2c.9.5,1.4,1.3,1.5,2.3v42.9c0,1.9-.7,2.9-2.5,3.5h-34.4v.2Z"/><path class="cls-34" d="m203.2,87.01h-18.7c-.9,0-1.1-.2-1.1-1.1v-40.7c0-.9.2-1.1,1.1-1.1h2.8c-.2.7-.4,1.4-.5,2.1v.2c-.2,0-.3,0-.4.1-1.1.8-1.6,1.9-1.6,3.2v31.7c0,2.1,1.7,3.9,3.9,3.9h14.6c0,.6-.2,1.1-.3,1.6l.2.1Z"/><path class="cls-32" d="m207,44.11h8.8c.5,0,.8.3.9.8v41.2c0,.5-.3.8-.8.8h-4v-1.6h0c.2,0,.4,0,.6-.1,1.6-.6,2.6-2,2.6-3.7v-31.8c0-2.2-1.7-4-4-4h-5.2c.3-.6.7-1,1-1.5l.1-.1Z"/><path class="cls-14" d="m207,44.11c-.4.5-.8,1-1,1.5h-16c-5.3,0-2.1,0-3.1.5,0-.7.3-1.4.5-2.1h19.6v.1Z"/><path class="cls-14" d="m211.9,85.41v1.6h-8.6c0-.5.3-1.1.3-1.6h8.4-.1Z"/><path class="cls-63" d="m211.9,85.41h-8.4c.6-4.6-.3-8.8-2.5-12.8-1.5-2.7-3.6-5.1-5.9-7.2-2-1.8-3.8-3.8-5.3-6-2.1-3.3-3.4-6.8-3.3-10.7,0-.7.1-1.5.2-2.2v-.2c1.1-.5,2.1-.5,3.2-.5h15.9c-.3.7-.7,1.3-1,2.1-1.2,2.8-1.5,5.8-.8,8.8.7,2.8,2.2,5.2,4.1,7.4,1.2,1.4,2.7,2.5,3.9,4,1.8,2.4,2,5.1,0,7.4-1,1.1-1.3,2.4-.9,3.8.5,2,.9,4.1.8,6.2h0v-.1Z"/><path class="cls-51" d="m186.7,46.41c0,.7-.2,1.5-.2,2.2,0,3.9,1.1,7.5,3.3,10.7,1.5,2.3,3.3,4.2,5.3,6,2.3,2.1,4.3,4.5,5.9,7.2,2.3,4,3.2,8.3,2.5,12.8h-14.6c-2.1,0-3.9-1.7-3.9-3.9v-31.7c0-1.3.5-2.4,1.6-3.2,0,0,.2,0,.3-.1h-.2Z"/><path class="cls-33" d="m211.9,85.31c0-2.1-.3-4.1-.8-6.2-.4-1.4,0-2.7.9-3.8,2.1-2.3,1.9-5.1,0-7.4-1.1-1.5-2.6-2.6-3.9-4-1.9-2.1-3.4-4.5-4.1-7.4-.7-3-.4-5.9.8-8.8.3-.7.7-1.4,1-2.1h5.3c2.2,0,4,1.7,4,4v31.8c0,1.7-1,3.1-2.6,3.7-.2,0-.4,0-.6.1v.1Z"/><path d="m190.6,77.81v-4.8l8.6-9.1c.9-.9,1.5-1.7,1.9-2.3s.6-1.2.6-1.7-.2-1.2-.6-1.6-1-.6-1.7-.6c-1.5,0-2.7.9-3.5,2.7l-5.7-3.2c.8-1.9,2.1-3.4,3.7-4.4s3.4-1.5,5.4-1.5,4.6.7,6.3,2.2,2.6,3.5,2.6,6-.4,2.9-1.1,4.2c-.7,1.3-1.7,2.6-3.1,4l-3.5,3.7h8.1v6.4h-18.1.1Z"/><circle class="cls-4" cx="88.63" cy="56.21" r="45"/><path d="m55.33,41.01c1.9.7,2.8,2.8,2,4.7l-.6,1.5,3.1,1.2-.9,2.2-9.8-3.8,1.4-3.7c.7-1.9,2.8-2.9,4.7-2.1h.1Zm-.9,2.2c-.7-.3-1.5,0-1.7.7l-.6,1.5,2.5,1,.6-1.5c.3-.7,0-1.4-.8-1.7Z"/><path d="m62.63,34.51l3.7,2.7-1.3,1.8-3.4-2.5c-.7-.6-1.4-.3-1.9.2-.5.7-.4,1.4.4,2l3.3,2.4-1.3,1.8-8.5-6.2,1.3-1.8,3,2.2c-.2-.7,0-1.5.5-2.3.9-1.2,2.5-1.6,4.2-.4v.1Z"/><path d="m64.33,33.91c-1.4-1.8-1.1-4.2.7-5.6,1.7-1.4,4.2-1.1,5.6.6,1.4,1.8,1.1,4.2-.7,5.6-1.7,1.4-4.2,1.1-5.6-.6Zm4.5-3.5c-.7-.8-1.7-.9-2.5-.3s-.9,1.6-.3,2.5c.7.8,1.7.9,2.5.3s.9-1.6.3-2.5Z"/><path d="m78.33,24.61l1.8,4.2-2.1.9-1.7-3.9c-.4-.9-1.1-1-1.7-.7-.8.3-1.1,1-.7,2l1.6,3.8-2.1.9-2.9-6.9,2.1-.9.3.6c.2-.7.7-1.3,1.6-1.7,1.4-.6,3-.1,3.8,1.8v-.1Z"/><path d="m84.53,26.31c.6,0,1.1-.4,1.3-.8l1.9.8c-.6,1.1-1.6,1.8-3,2-2.5.4-4.4-1.1-4.7-3.4-.3-2.2,1.1-4.1,3.4-4.5,2.2-.3,4,1.2,4.3,3.4v.9l-5.3.7c.4.7,1.1.9,1.9.8l.2.1Zm1-2.9c-.4-.8-1.1-1-1.7-1-.8.1-1.4.6-1.5,1.4l3.2-.4Z"/><path d="m89.73,22.21l5.7.6-.2,2.1-5.7-.6.2-2.1Z"/><path d="m104.73,27.81c-.8,2.1-2.9,3.1-4.8,2.4-.9-.4-1.5-.9-1.8-1.6l-.3.7-2.1-.8,3.7-9.8,2.1.8-1.3,3.5c.7-.4,1.5-.4,2.4,0,1.8.7,2.7,2.9,1.9,5l.2-.2Zm-2.1-.8c.4-1.1,0-2-1-2.3-1-.4-1.9,0-2.3,1.1-.4,1.1,0,2,1,2.3,1,.4,1.9,0,2.3-1.1Z"/><path d="m105.83,28.51c1.3-1.8,3.8-2.1,5.6-.8,1.8,1.3,2.2,3.8.8,5.5-1.3,1.8-3.8,2.1-5.6.8-1.8-1.3-2.2-3.8-.8-5.5Zm4.6,3.4c.6-.9.5-1.9-.3-2.5s-1.8-.5-2.4.4-.5,1.9.3,2.5,1.8.5,2.4-.4Z"/><path d="m123.33,36.41l-8.3,6.4-1.4-1.8.6-.4c-.8,0-1.5-.4-2.1-1.2-1.2-1.6-.8-3.9,1-5.3s4.1-1.1,5.3.4c.6.8.8,1.6.6,2.3l2.9-2.3,1.4,1.8v.1Zm-6.7,2.3c.9-.7,1-1.7.4-2.5s-1.6-1-2.5-.3-1,1.7-.4,2.5,1.6,1,2.5.3Z"/><path d="m125.13,47.41l-7.7.4c-2.5.1-3.9-.7-4.6-2.7l1.9-.8c.4,1,.9,1.3,1.9,1.3l5.5-5.5.9,2.3-3.6,3.3,4.8-.5.9,2.2h0Z"/><path d="m129.13,52.81l-10.3,1.9-.4-2.4,7.8-1.4-.8-1.7,1.9-.9,1.5,2.5.4,2.1-.1-.1Z"/><path class="cls-56" d="m78.03,89.51c0-.2-.2-.1-.4-.2-2-.5-3.4-2.3-3.4-4.4v-38.8c0-2.7,1.1-4.2,3.6-5,0,0,.1,0,.1-.1h3.4v.1c.5,1.3,1.1,2.6,1.6,3.9.1.3.4.4.7.4h9.7c.4,0,.7-.2.8-.5.2-.5.4-1,.6-1.5.3-.8.7-1.5.9-2.4h3.3c.2.2.5.2.8.3,1.8.6,3,2.3,3.1,4.2v38.8c0,2.8-1.1,4.3-3.8,5.2h-21.1.1Zm23.7-7.3h0v-33.8c0-.4-.3-.2-.5-.2h-25.5c-.4,0-.5.1-.5.5v33.4h26.3l.2.1Zm-13.1,3.1h-4.4c-.5,0-.7.2-.6.7,0,.4.4.5.7.5h8.6c.5,0,.7-.2.7-.6,0-.5-.3-.5-.7-.5h-4.3v-.1Z"/><path class="cls-46" d="m95.83,41.01c-.2.8-.6,1.6-.9,2.4-.2.5-.4,1-.6,1.5-.1.3-.4.6-.8.5h-9.7c-.3,0-.6-.1-.7-.4-.5-1.3-1.1-2.6-1.6-3.9v-.1h14.4-.1Z"/><path class="cls-2" d="m75.53,82.21c-.2-.1,0-.3,0-.4v-33c0-.4,0-.5.5-.5h25.5c.2,0,.4-.2.5.2-.2,0-.3.2-.5.4-.4.5-.7,1-1.1,1.4-1.4,1.8-2.9,3.7-4.3,5.5-1.1,1.5-2.3,2.9-3.4,4.4-1.4,1.8-2.9,3.7-4.3,5.5-1.1,1.5-2.3,2.9-3.4,4.4-1.5,2-3.1,3.9-4.6,5.9-1.1,1.4-2.2,2.8-3.2,4.2-.5.7-1.1,1.3-1.5,2h-.2Z"/><path class="cls-50" d="m75.53,82.21c.4-.7,1-1.3,1.5-2,1.1-1.4,2.2-2.8,3.2-4.2,1.5-2,3.1-3.9,4.6-5.9,1.1-1.5,2.3-2.9,3.4-4.4,1.4-1.8,2.9-3.7,4.3-5.5,1.1-1.5,2.3-2.9,3.4-4.4,1.4-1.8,2.9-3.7,4.3-5.5.4-.5.7-.9,1.1-1.4.1-.2.2-.3.5-.4v33.7h-26.3Z"/><path class="cls-28" d="m88.63,85.31h4.3c.4,0,.7,0,.7.5,0,.4-.2.6-.7.6h-8.6c-.3,0-.6,0-.7-.5,0-.4.1-.7.6-.7h4.4v.1Z"/><path d="m86.93,51.91h5.7v25.9h-6.6v-18.9l-4.5,1.1-1.6-5.6,7-2.5Z"/><circle class="cls-4" cx="311.37" cy="56.21" r="45"/><path d="m274.07,47.91l-.6,2.8,8.5,1.8-.5,2.5-8.5-1.8-.6,2.8-2.4-.5,1.7-8.1,2.4.5Z"/><path d="m278.67,39.81l7.2,3.5-1,2.2-.7-.3c.3.7.3,1.6-.2,2.6-.9,1.9-3.3,2.6-5.5,1.6-2.1-1-3.1-3.4-2.1-5.3.5-1,1.1-1.5,1.9-1.7l-.7-.3,1-2.2.1-.1Zm2.6,3.9c-1.1-.5-2.1-.1-2.6.9s-.1,2,.9,2.6c1.1.5,2.1.1,2.6-.9s.1-2-.9-2.6Z"/><path d="m289.37,33.51c1.7,1.6,1.9,4.1.5,5.7-.7.8-1.5,1.1-2.3,1.1l.5.5-1.6,1.8-8.2-7.6,1.6-1.8,2.9,2.7c0-.8.2-1.6.9-2.4,1.4-1.5,4-1.5,5.7,0Zm-1.6,1.8c-.9-.8-2-.7-2.7,0-.8.8-.7,1.9.1,2.7.9.8,2,.7,2.7,0,.8-.8.7-1.9-.1-2.7Z"/><path d="m286.47,26.41l2-1.4,6.7,9.6-2,1.4-6.7-9.6Z"/><path d="m298.97,30.41c.6-.3,1-.7,1.2-1.2l2.2.3c-.3,1.3-1.2,2.3-2.6,2.9-2.5,1.1-4.8,0-5.7-2.1-.9-2.2,0-4.6,2.2-5.6,2.1-.9,4.4,0,5.4,2.3.1.3.2.6.3.9l-5.2,2.2c.6.6,1.4.6,2.2.3Zm.2-3.3c-.6-.8-1.4-.8-2.1-.5-.8.4-1.2,1-1.1,1.9l3.2-1.4Z"/><path d="m305.87,24.51l.5,2.8c.1.7.7.6,1.7.4l.4,2.1c-3,.9-4.1.1-4.5-2.1l-.5-2.8-1.3.2-.4-2.3,1.3-.2-.3-1.5,2.2-1.1.4,2.2,1.6-.3.4,2.3-1.6.3h.1Z"/><path d="m309.47,23.81l6.1.2v2.3l-6.1-.2v-2.3Z"/><path d="m325.97,28.71c-.7,2.3-2.9,3.5-4.9,2.9-1-.3-1.7-.9-2-1.6l-.2.7-2.3-.7,3.3-10.7,2.3.7-1.2,3.8c.7-.4,1.5-.5,2.6-.2,2,.6,3.1,2.9,2.4,5.2v-.1Zm-2.3-.7c.4-1.1-.2-2.1-1.2-2.4-1.1-.3-2,.2-2.4,1.3-.4,1.1.2,2.1,1.2,2.4,1.1.3,2-.2,2.4-1.3Z"/><path d="m327.17,29.31c1.3-2,3.9-2.4,5.9-1.1,2,1.3,2.5,3.9,1.1,5.9-1.3,2-3.9,2.4-5.9,1.1-2-1.3-2.5-3.9-1.1-5.9Zm5,3.4c.6-.9.4-2-.5-2.6s-1.9-.4-2.6.5-.4,2,.5,2.6,1.9.4,2.6-.5Z"/><path d="m346.27,37.11l-8.7,7.1-1.5-1.9.6-.5c-.8,0-1.6-.4-2.3-1.2-1.3-1.6-1-4.1.9-5.6,1.8-1.5,4.4-1.3,5.7.3.7.8.9,1.7.7,2.5l3.1-2.5,1.5,1.9v-.1Zm-7.1,2.7c.9-.8,1-1.9.3-2.7-.7-.9-1.8-1-2.7-.2-.9.8-1,1.9-.3,2.7.7.9,1.8,1,2.7.2Z"/><path d="m348.37,48.91l-8.2.6c-2.7.2-4.2-.7-5-2.8l2.1-.9c.4,1,1,1.4,2,1.3l5.8-5.9,1,2.4-3.8,3.6,5.1-.6,1,2.4v-.1Z"/><path d="m352.67,54.81l-11,2-.5-2.5,8.4-1.5-.9-1.9,2-1,1.6,2.7.4,2.2Z"/><path class="cls-42" d="m311.37,43.61h12.4c1.9,0,3.6,1.4,3.6,3.4v34.4c0,1.5-.6,2.6-1.9,3.3-.3.2-.7.2-1,.4h-13.1v-2.4h12.2c.9,0,1.3-.4,1.3-1.2v-34.3c0-.9-.4-1.2-1.3-1.2h-12.2v-2.4Z"/><path class="cls-58" d="m311.37,82.51v2.4h-13.2c-.1-.2-.4-.2-.5-.2-1.3-.5-2.2-1.7-2.2-3.1v-34.4c0-1.5.6-2.7,2-3.3.4-.2.8-.3,1.2-.3h12.7v2.4h-12.2c-.9,0-1.3.3-1.3,1.3v34c0,.9.3,1.3,1.3,1.3h12.2v-.1Z"/><path class="cls-15" d="m311.37,46.01h12.2c.9,0,1.3.4,1.3,1.2v34c0,.9-.4,1.2-1.3,1.2h-12.2v-2.5h3.5c.5,0,1.1-.4,1.1-.9.2-.9-.4-1.6-1.3-1.6h-3.3v-9.8c.8-.1,1.2-.6,1.2-1.4v-4.1c0-.8-.4-1.3-1.2-1.4v-9.8h1.7c.7,0,1.2-.5,1.2-1.2h0c0-.7-.5-1.2-1.2-1.2h-1.7v-2.5h0Zm5.9,18.3v-3.8c0-.5-.2-.9-.6-1.2-.8-.5-1.8,0-1.8,1.1v7.5c0,.5.1,1,.6,1.3.8.5,1.8-.1,1.8-1.2v-3.8.1Zm4.7,0v-1c0-.7-.5-1.2-1.2-1.2h0c-.7,0-1.2.5-1.2,1.1v2.1c0,.7.6,1.2,1.3,1.1.6,0,1.1-.6,1.1-1.2v-1h0v.1Z"/><path class="cls-10" d="m311.37,46.01v2.5h-1.6c-.8,0-1.3.5-1.3,1.2s.6,1.2,1.3,1.2h1.6v9.8h0c-.8,0-1.2.7-1.2,1.5v3.9c0,.8.5,1.5,1.2,1.5h0v9.9h-3.3c-.8,0-1.3.5-1.3,1.2s.6,1.2,1.3,1.2h3.3v2.5h-12.2c-.9,0-1.3-.3-1.3-1.3v-33.8c0-.9.3-1.3,1.3-1.3h12.2Zm-3.6,18.2v-5.9c-.2-.5-.8-.8-1.3-.8s-1,.6-1,1.2v10.9c0,.7.5,1.2,1.2,1.2h0c.7,0,1.2-.6,1.1-1.3v-5.4.1Zm-4.7,0v-2.2c0-.7-.5-1.3-1.2-1.3s-1.2.6-1.2,1.3v4.3c0,.7.5,1.3,1.2,1.3s1.2-.6,1.2-1.3v-2.1Z"/><path class="cls-45" d="m317.27,64.31v3.8c0,1.1-1,1.7-1.8,1.2-.5-.3-.6-.8-.6-1.3v-7.5c0-1.1,1-1.7,1.8-1.1.4.3.6.7.6,1.2v3.8-.1Z"/><path class="cls-61" d="m311.37,77.61h3.3c.9,0,1.5.7,1.3,1.6,0,.4-.6.8-1.1.9h-3.5v-2.4h0v-.1Z"/><path class="cls-23" d="m321.97,64.31v1c0,.7-.6,1.2-1.2,1.2s-1.1-.5-1.2-1.1v-2.1c0-.7.6-1.1,1.2-1.1.7,0,1.2.5,1.2,1.2h0v1-.1Z"/><path class="cls-12" d="m311.37,60.81c.8.1,1.2.6,1.2,1.4v4.1c0,.8-.4,1.3-1.2,1.4h0v-6.9h0Z"/><path class="cls-61" d="m311.37,48.51h1.7c.8,0,1.2.5,1.2,1.2s-.5,1.2-1.2,1.2h-1.7v-2.4h0Z"/><path class="cls-55" d="m307.77,64.21v5.4c0,.7-.5,1.3-1.1,1.3-.7,0-1.2-.5-1.3-1.2h0v-10.9c0-.6.5-1.2,1-1.2.6,0,1.1.2,1.3.8v5.9l.1-.1Z"/><path class="cls-55" d="m303.07,64.31v2.1c0,.7-.5,1.3-1.2,1.3s-1.2-.6-1.2-1.3v-4.3c0-.7.5-1.3,1.2-1.3s1.2.6,1.2,1.3v2.2Z"/><path class="cls-24" d="m311.37,77.61v2.4h-3.3c-.8,0-1.3-.5-1.3-1.2s.6-1.2,1.3-1.2c1.1,0,2.2,0,3.3,0Z"/><path class="cls-44" d="m311.37,60.81v6.9c-.8,0-1.2-.7-1.2-1.5v-3.9c0-.8.5-1.5,1.2-1.5Z"/><path class="cls-30" d="m311.37,48.51v2.4h-1.6c-.8,0-1.3-.6-1.3-1.2s.5-1.2,1.3-1.2h1.6Z"/><path d="m309.67,50.91h5.7v25.9h-6.6v-18.9l-4.5,1.1-1.6-5.6,7-2.5Z"/><circle class="cls-4" cx="90.21" cy="343.79" r="45"/><path d="m56.81,328.19c1.9.7,2.8,2.8,2.1,4.7l-.6,1.5,3.1,1.2-.8,2.2-9.8-3.7,1.4-3.7c.7-1.9,2.8-2.9,4.7-2.2h-.1Zm-.8,2.2c-.7-.3-1.5,0-1.7.7l-.5,1.5,2.5.9.6-1.5c.3-.7-.1-1.4-.8-1.7l-.1.1Z"/><path d="m64.01,321.69l3.7,2.7-1.3,1.8-3.5-2.5c-.8-.5-1.4-.3-1.9.3-.5.7-.4,1.4.4,2l3.3,2.4-1.3,1.8-8.5-6.2,1.3-1.8,3,2.2c-.2-.7,0-1.5.5-2.3.9-1.2,2.5-1.6,4.2-.5l.1.1Z"/><path d="m65.81,320.99c-1.4-1.7-1.1-4.2.6-5.6s4.2-1.1,5.6.6,1.1,4.2-.6,5.6-4.2,1.1-5.6-.6Zm4.4-3.6c-.7-.8-1.7-.9-2.5-.3s-.9,1.6-.2,2.5c.7.8,1.7.9,2.5.3s.9-1.6.2-2.5Z"/><path d="m79.61,311.59l1.8,4.2-2.1.9-1.7-3.9c-.4-.9-1.1-1-1.7-.7-.8.3-1.1,1-.7,2l1.6,3.8-2.1.9-3-6.9,2.1-.9.3.6c.1-.7.7-1.3,1.6-1.7,1.4-.6,3-.1,3.8,1.7h.1Z"/><path d="m85.81,313.29c.6,0,1.1-.4,1.3-.8l1.9.8c-.6,1.1-1.6,1.8-3,2-2.5.4-4.4-1.1-4.7-3.3s1-4.2,3.4-4.5c2.2-.3,4,1.1,4.3,3.4v.9l-5.3.8c.4.7,1.1.9,1.9.8l.2-.1Zm1-2.9c-.4-.8-1.1-1-1.7-.9-.8.1-1.3.6-1.4,1.4l3.2-.5h-.1Z"/><path d="m91.01,309.09l5.7.6-.2,2.2-5.7-.6.2-2.1v-.1Z"/><path d="m106.11,314.59c-.8,2.1-2.9,3.2-4.7,2.5-.9-.3-1.5-.9-1.8-1.6l-.2.7-2.1-.8,3.6-9.8,2.1.8-1.3,3.5c.7-.4,1.5-.4,2.4,0,1.8.7,2.8,2.9,2,5v-.3Zm-2.1-.8c.4-1.1,0-2-1-2.3-1-.4-1.9,0-2.3,1.1-.4,1.1,0,2,1,2.3,1,.4,1.9,0,2.3-1.1Z"/><path d="m107.21,315.19c1.3-1.8,3.8-2.1,5.5-.8s2.2,3.7.9,5.5c-1.3,1.8-3.8,2.1-5.5.8-1.8-1.3-2.2-3.7-.9-5.5Zm4.6,3.4c.6-.9.4-1.9-.3-2.4-.8-.6-1.8-.5-2.4.4s-.4,1.9.3,2.4c.8.6,1.8.5,2.4-.4Z"/><path d="m124.81,322.99l-8.3,6.5-1.4-1.8.6-.4c-.8,0-1.5-.4-2.1-1.2-1.2-1.5-.8-3.9.9-5.3,1.8-1.4,4.1-1.2,5.3.4.6.8.8,1.6.7,2.3l2.9-2.3,1.4,1.8Zm-6.7,2.4c.9-.7,1-1.7.3-2.5-.6-.8-1.7-1-2.5-.3-.9.7-1,1.7-.3,2.5.6.8,1.7,1,2.5.3Z"/><path d="m126.71,333.99l-7.7.5c-2.5.2-3.9-.7-4.6-2.7l1.9-.8c.4,1,.9,1.3,1.9,1.2l5.4-5.5,1,2.3-3.6,3.3,4.8-.5.9,2.2h0Z"/><path d="m121.41,336.39l4.2,2.9c.7.5,1.4.9,2,.8.7-.1,1-.6.9-1.3s-.7-1.2-1.4-1.3l.8-2.2c1.6.4,2.6,1.7,2.8,3.1.3,1.9-.7,3.7-2.7,4-1.2.2-2.4-.3-3.5-1.1l-2-1.4.6,3.5-2.3.4-1.1-7.1s1.7-.3,1.7-.3Z"/><path class="cls-48" d="m95.61,327.99h6.1c1.7,0,3.3,1.6,3.4,3.3v41.4c0,1.9-.9,3.2-2.5,3.8-.4.1-.8.2-1.1.2h-22.6c-2,0-3.7-1.7-3.7-3.7v-4h1.8v4c0,1.2.8,1.9,2,1.9h22.2c1.2,0,2-.8,2-2v-41c0-1.2-.8-2-1.9-2h-4.6c0-.8-.7-1.3-1.1-1.9Z"/><path class="cls-7" d="m95.61,327.99c.4.6,1,1.1,1.1,1.8h-17.3c-1.7,0-2.4.7-2.4,2.4v36.7h-1.8v-36.9c0-1.7.7-3,2.3-3.7.4-.2.8-.3,1.3-.3h16.9-.1Z"/><path class="cls-62" d="m77.01,368.99v-36.7c0-1.7.7-2.4,2.4-2.4h17.4v36c0,1.7-1.3,3.1-3,3.1h-16.8Zm13.1-33.5h3.6c1.1,0,2-.8,2-1.8,0-1.1-.8-1.9-2-1.9h-7.2c-1.1,0-2,.8-2,1.8,0,1.1.8,1.9,2,1.9h3.6Zm-4.2,22.9c.2,0,.5-.2.6-.3l9.2-9.2c.2-.2.4-.5.3-.8s-.2-.6-.6-.7c-.4-.1-.8,0-1.1.3-3,3-6.1,6.1-9.1,9.1l-.2.2c-.2.3-.2.6,0,.9.2.3.5.5.9.5h0Zm5.7-11.1c0-.4-.3-.7-.6-.9-.5-.2-.8,0-1.1.4l-5.5,5.5c-.5.5-.5,1.1,0,1.4s1,.4,1.4,0c1.9-1.8,3.7-3.7,5.6-5.5.2-.2.3-.4.4-.7h0l-.2-.2Z"/><path class="cls-39" d="m77.11,368.99h16.7c1.8,0,3-1.3,3-3.1v-36h4.5c1.2,0,1.9.8,1.9,2v41c0,1.2-.8,2-2,2h-22.2c-1.1,0-1.9-.7-2-1.9v-4h.1Zm13.1,3.1h-5.4c-.7,0-1.2.3-1.2.9s.4,1,1.1,1h10.8c.7,0,1.2-.4,1.1-.9s-.4-.9-1.2-.9h-5.4l.2-.1Z"/><path class="cls-38" d="m90.11,335.49h-3.6c-1.2,0-2-.8-2-1.9s.8-1.8,2-1.8h7.2c1.2,0,2,.8,2,1.9s-.9,1.8-2,1.8h-3.6Z"/><path class="cls-29" d="m85.91,358.39c-.4,0-.7-.2-.9-.5-.2-.3-.1-.7,0-.9l.2-.2c3-3,6.1-6.1,9.1-9.1.3-.3.7-.4,1.1-.3.4.1.5.4.6.7s0,.6-.3.8l-9.2,9.2c-.2.2-.4.3-.6.3Z"/><path class="cls-16" d="m90.11,371.99h5.4c.7,0,1.2.3,1.2.9s-.4.9-1.1.9h-10.8c-.7,0-1.2-.4-1.1-1s.4-.9,1.2-.9h5.4l-.2.1Z"/><path d="m80.61,366.09v-4.8l8.6-9.1c.9-.9,1.5-1.7,1.9-2.3s.6-1.2.6-1.7-.2-1.2-.6-1.6-1-.6-1.7-.6c-1.5,0-2.7.9-3.5,2.7l-5.7-3.2c.8-1.9,2.1-3.4,3.7-4.4,1.6-1,3.4-1.5,5.4-1.5s4.6.7,6.3,2.2c1.8,1.5,2.6,3.5,2.6,6s-.4,2.9-1.1,4.2c-.7,1.3-1.7,2.6-3.1,4l-3.5,3.7h8.1v6.4h-18.1.1Z"/><circle class="cls-4" cx="200.85" cy="343.79" r="45"/><path d="m166.45,329.89c1.9.6,3,2.6,2.4,4.6l-.5,1.5,3.2,1-.7,2.3-10-3.1,1.2-3.8c.6-2,2.6-3,4.5-2.5h-.1Zm-.7,2.3c-.7-.2-1.4.1-1.7.8l-.5,1.5,2.6.8.5-1.5c.2-.7-.2-1.4-.9-1.6Z"/><path d="m173.25,322.89l3.9,2.5-1.2,1.9-3.6-2.3c-.8-.5-1.5-.2-1.9.4-.4.7-.3,1.4.6,2l3.5,2.2-1.2,1.9-8.9-5.6,1.2-1.9,3.1,2c-.2-.6-.2-1.5.4-2.3.8-1.3,2.4-1.8,4.1-.7v-.1Z"/><path d="m174.95,322.19c-1.5-1.7-1.3-4.1.3-5.6,1.6-1.5,4.1-1.4,5.6.3s1.3,4.1-.3,5.6c-1.6,1.5-4.1,1.4-5.6-.3Zm4.2-3.8c-.7-.8-1.7-.8-2.5-.2-.7.7-.8,1.7,0,2.5.7.8,1.7.8,2.5.2.7-.7.8-1.7,0-2.5Z"/><path d="m188.25,311.99l2.1,4.1-2,1-1.9-3.8c-.4-.8-1.1-1-1.8-.6s-1,1.1-.5,2l1.9,3.7-2,1-3.4-6.7,2-1,.3.6c.1-.7.6-1.3,1.5-1.8,1.4-.7,3-.3,3.9,1.5h-.1Z"/><path d="m194.55,313.19c.6-.1,1.1-.5,1.3-.9l2,.6c-.5,1.1-1.5,1.9-2.9,2.2-2.5.5-4.4-.8-4.9-3s.8-4.2,3.1-4.7c2.1-.4,4.1.9,4.5,3.1v.9l-5.2,1.1c.4.7,1.2.8,2,.7h.1Zm.8-3c-.4-.8-1.1-1-1.8-.8-.8.2-1.3.7-1.4,1.5l3.2-.7Z"/><path d="m199.45,308.79l5.7.2v2.2l-5.8-.2v-2.2h.1Z"/><path d="m214.75,313.39c-.7,2.1-2.7,3.3-4.6,2.7-1-.3-1.6-.8-1.9-1.5l-.2.7-2.2-.7,3.1-10,2.2.7-1.1,3.5c.6-.4,1.4-.5,2.4-.2,1.9.6,2.9,2.7,2.3,4.8Zm-2.2-.7c.3-1.1-.2-2-1.2-2.3s-1.9.2-2.2,1.2.2,2,1.2,2.3,1.9-.2,2.2-1.2Z"/><path d="m215.95,313.89c1.2-1.9,3.6-2.4,5.5-1.2,1.9,1.2,2.4,3.6,1.2,5.5s-3.6,2.4-5.5,1.2c-1.9-1.2-2.4-3.6-1.2-5.5Zm4.8,3.1c.6-.9.3-1.9-.5-2.4s-1.8-.3-2.4.6-.3,1.9.5,2.4,1.8.3,2.4-.6Z"/><path d="m233.95,320.59l-7.9,6.9-1.5-1.7.5-.5c-.8,0-1.5-.3-2.2-1.1-1.3-1.5-1.1-3.8.6-5.3,1.7-1.5,4-1.4,5.3,0,.7.8.9,1.5.8,2.3l2.8-2.4,1.5,1.7.1.1Zm-6.6,2.8c.8-.7.9-1.8.2-2.5-.7-.8-1.7-.9-2.6-.1s-.9,1.8-.2,2.5c.7.8,1.7.9,2.6.1Z"/><path d="m236.45,331.49l-7.7.9c-2.5.3-4-.5-4.8-2.4l1.9-.9c.5.9,1,1.2,1.9,1.1l5.1-5.9,1.1,2.2-3.4,3.5,4.7-.8,1.1,2.2.1.1Z"/><path d="m234.45,340.89c-2.3.5-3.8-1-4.3-2.9-.4-1.5,0-3.1,1.4-4.1l1.6,1.8c-.6.4-.9.9-.7,1.8.2,1,.8,1.3,1.5,1.1.6-.1,1-.7.8-1.6v-.5c-.1,0,1-1.2,1-1.2l2.8,1.3-.9-3.7,2.2-.5,1.5,6.6-1.9.4-2.7-1.3c-.2,1.4-1,2.5-2.4,2.8h.1Z"/><path class="cls-9" d="m190.35,376.69c0-.2-.3-.1-.4-.2-2.9-.7-4.8-3.1-4.8-6.1v-37.4c0-2.7,1.3-4.7,3.7-5.9.6-.3,1.4-.5,2.1-.5h9.8v9.2h-3.7c-2.2-.2-4-2.1-4.1-4.3,0-1.1-.5-1.7-1.3-1.9-.5,0-.9,0-1.3.1-1.4.5-2.3,1.7-2.3,3.4v37.8c.2,1.7,1.7,2.9,3.3,2.8h9.3v2.9h-10.5l.2.1Z"/><path class="cls-35" d="m200.85,335.89v-9.2h10c2.7,0,5.3,2.6,5.6,5.2v38.5c0,3-1.9,5.5-4.8,6.2-.2,0-.4,0-.5.1h-10.4v-2.9h10.1c1.6-.4,2.6-1.7,2.6-3.4v-37.6c0-1.6-1.1-3-2.7-3.2-1.2-.2-2.2.5-2.3,1.7,0,2.6-2.1,4.5-4.7,4.6h-3.1.2Z"/><path class="cls-22" d="m191.55,373.79c-1.7,0-3.1-1.1-3.3-2.8v-37.8c0-1.7.8-2.9,2.3-3.4.4-.2.9-.2,1.3-.1.9.2,1.3.8,1.3,1.9,0,2.2,1.9,4.1,4.1,4.3h3.7v3.3h-7.8c-.9,0-1.5.6-1.5,1.5v14.1c0,.9.6,1.5,1.5,1.5h7.8v3.3c-.2,0-.5.1-.8,0h-7.1c-.2,0-.5,0-.7.1-.6.4-.9,1.1-.7,1.7s.8,1,1.5,1h7.8v3.3h-7.6c-1.1,0-1.7.5-1.7,1.7v6.2l-.1.2Z"/><path class="cls-27" d="m191.55,373.79v-6.2c0-1.1.5-1.7,1.7-1.7h7.6v7.8h-9.3v.1Z"/><path class="cls-17" d="m200.85,339.19v-3.3h3.1c2.6,0,4.6-1.9,4.7-4.6,0-1.2,1-1.9,2.3-1.7,1.6.3,2.7,1.7,2.7,3.2v37.5c0,1.7-1,3-2.6,3.4h-.7v-5.6c0-1.8-.4-2.3-2.3-2.3h-7.1v-3.3h1.6c.7,0,1.4-.6,1.4-1.3s-.5-1.4-1.2-1.5c-.6-.1-1.2,0-1.8,0h0v-3.3h7.6c1,0,1.7-.7,1.7-1.7v-13.6c0-4.5-.5-1.8-1.8-1.8h-7.5l-.1-.1Zm7.8,23.3c.8,0,1.5-.6,1.5-1.4s-.6-1.5-1.4-1.5h0c-.7,0-1.6.8-1.5,1.5,0,.6.4,1.4,1.4,1.4h0Z"/><path class="cls-36" d="m200.85,365.89h7.1c1.9,0,2.3.4,2.3,2.3v5.6h-9.4v-7.8h0v-.1Z"/><path class="cls-59" d="m200.85,339.19h7.5c1.2,0,1.8.6,1.8,1.8v13.6c0,1-.7,1.7-1.7,1.7h-7.6v-17h0v-.1Z"/><path class="cls-20" d="m200.85,339.29v17h-7.8c-.9,0-1.5-.6-1.5-1.5v-14.1c0-.9.6-1.5,1.5-1.5h7.8v.1Z"/><path class="cls-43" d="m200.85,362.59h-7.8c-.7,0-1.3-.4-1.5-1s.1-1.3.7-1.7c.2-.1.4-.1.7-.1h7.9v2.9h0v-.1Z"/><path class="cls-13" d="m200.85,362.49v-2.9h1.8c.7.2,1.2.8,1.2,1.5s-.7,1.3-1.4,1.3h-1.6v.1Z"/><path class="cls-53" d="m208.65,362.49c-1,0-1.4-.8-1.4-1.4,0-.7.8-1.5,1.5-1.5.8,0,1.5.7,1.4,1.5h0c0,.8-.6,1.4-1.5,1.4Z"/><path d="m204.25,351.99c1.7.5,3,1.4,4,2.7s1.5,2.8,1.5,4.6c0,2.8-.9,4.9-2.7,6.4s-4.1,2.3-6.8,2.3-4.1-.5-5.7-1.5-2.9-2.4-3.6-4.4l5.8-3.3c.5,1.8,1.7,2.7,3.6,2.7s1.7-.2,2.2-.7c.5-.4.8-1,.8-1.8s-.3-1.3-.8-1.8c-.5-.4-1.2-.6-2.2-.6h-1.4l-2.6-3.8,4.1-5.1h-8.7v-6.3h16.8v5.2l-4.3,5.3v.1Z"/><circle class="cls-4" cx="310.19" cy="343.79" r="45"/><path class="cls-18" d="m310.19,328.39h11c1.9,0,3.7,1.7,3.9,3.6v41.3c0,2.2-1.2,3.9-3.2,4.5-.2,0-.4,0-.5.2h-11.3v-2.9h10.2c1.3,0,1.8-.5,1.8-1.8v-40.2c0-1.3-.5-1.8-1.8-1.8h-10.2v-2.9h.1Z"/><path class="cls-21" d="m310.19,328.39v2.9h-10.6c-.4,0-.7.2-1,.4-.4.4-.5.9-.5,1.4v40.4c0,.9.6,1.5,1.6,1.5h10.5v2.9h-11.4c0-.1-.2-.1-.3-.2-2-.6-3.1-2-3.3-4.1v-40.5c0-2.2,1.1-3.8,2.9-4.5.4-.1.8-.2,1.2-.2h10.9Z"/><path class="cls-15" d="m310.19,331.29h10.2c1.3,0,1.8.5,1.8,1.8v40.1c0,1.3-.5,1.8-1.8,1.8h-10.2v-3.1h4.1c.8,0,1.4-.6,1.4-1.4,0-.9-.6-1.5-1.6-1.5h-3.9v-7.8c1-.1,1.4-.6,1.4-1.6v-12.9c0-1-.5-1.5-1.4-1.6v-8.1h1.9c.9,0,1.5-.8,1.6-1.4,0-.8-.7-1.5-1.6-1.5h-1.9v-2.8h0Zm4.2,21.8v2.7c0,.9.6,1.5,1.4,1.5s1.5-.6,1.5-1.4h0v-5.4c0-.8-.7-1.5-1.5-1.4h0c-.8,0-1.4.7-1.4,1.6v2.6h0v-.2Z"/><path class="cls-11" d="m310.19,331.29v2.8h-2c-.8,0-1.5.7-1.5,1.5s.7,1.4,1.5,1.4h1.9v8.1h0c-.9,0-1.4.6-1.4,1.5v13.1c0,.9.6,1.4,1.4,1.5h0v7.8h-3.9c-.9,0-1.6.6-1.6,1.5,0,.8.7,1.4,1.6,1.4h3.9v3.1h-10.5c-.9,0-1.5-.6-1.6-1.5v-40.4c0-.5,0-1,.5-1.4.3-.3.6-.4,1-.4h10.7Zm-4.2,21.9v-2.8c0-.2,0-.5-.2-.6-.3-.5-1-.9-1.5-.7-.8.2-1.2.7-1.2,1.5v5.3c0,.8.7,1.5,1.5,1.5.9,0,1.4-.6,1.4-1.6v-2.6Z"/><path class="cls-12" d="m310.19,345.09c1,0,1.4.6,1.4,1.6v12.9c0,1-.4,1.5-1.4,1.6h0v-16.1h0Z"/><path class="cls-45" d="m314.39,353.09v-2.6c0-.9.6-1.5,1.4-1.6.8,0,1.5.6,1.5,1.4h0v5.4c0,.8-.7,1.4-1.5,1.4h0c-.8,0-1.4-.7-1.4-1.5v-2.7h0v.2Z"/><path class="cls-61" d="m310.19,368.99h3.9c1,0,1.6.6,1.6,1.5,0,.8-.6,1.4-1.4,1.4h-4.1v-2.9h0Z"/><path class="cls-61" d="m310.19,334.09h1.9c.8,0,1.6.7,1.6,1.5,0,.6-.7,1.5-1.6,1.4h-1.9v-2.9h0Z"/><path class="cls-44" d="m310.19,345.09v16.1c-.9,0-1.4-.6-1.4-1.5v-13.1c0-.9.5-1.4,1.4-1.5Z"/><path class="cls-55" d="m305.89,353.19v2.6c0,.9-.5,1.5-1.4,1.6-.7,0-1.5-.6-1.5-1.5v-5.3c0-.8.5-1.3,1.2-1.5.5-.1,1.2.2,1.5.7.1.2.2.4.2.6v2.8Z"/><path class="cls-24" d="m310.19,368.99v2.9h-3.9c-.9,0-1.6-.6-1.6-1.4s.7-1.4,1.6-1.5h3.9Z"/><path class="cls-24" d="m310.19,334.09v2.9h-1.9c-.9,0-1.5-.6-1.5-1.4s.7-1.5,1.5-1.5h2-.1Z"/><path d="m277.19,328.49c1.8.7,2.7,2.8,2,4.8l-.6,1.5,3.1,1.2-.9,2.2-9.7-3.9,1.5-3.7c.8-1.9,2.9-2.8,4.7-2.1h-.1Zm-.9,2.2c-.7-.3-1.5,0-1.7.7l-.6,1.5,2.5,1,.6-1.5c.3-.7,0-1.4-.8-1.7Z"/><path d="m284.59,322.19l3.7,2.8-1.4,1.8-3.4-2.6c-.7-.6-1.4-.4-1.9.2-.5.7-.5,1.4.4,2l3.3,2.5-1.4,1.8-8.3-6.4,1.4-1.8,2.9,2.2c-.2-.7,0-1.5.6-2.3.9-1.2,2.6-1.6,4.2-.3l-.1.1Z"/><path d="m286.29,321.59c-1.4-1.8-1-4.2.8-5.6,1.8-1.3,4.2-1,5.6.7,1.4,1.8,1,4.2-.8,5.6-1.8,1.3-4.2,1-5.6-.7Zm4.5-3.5c-.6-.8-1.7-1-2.4-.4s-.9,1.6-.3,2.5c.6.8,1.7,1,2.4.4.8-.6.9-1.6.3-2.5Z"/><path d="m300.39,312.59l1.7,4.3-2.1.8-1.6-4c-.4-.9-1.1-1-1.7-.8-.8.3-1.1,1-.7,2l1.5,3.8-2.1.8-2.8-7,2.1-.8.3.7c.2-.7.7-1.3,1.6-1.7,1.4-.6,3,0,3.8,1.8v.1Z"/><path d="m306.59,314.39c.6,0,1.1-.4,1.4-.7l1.9.8c-.6,1.1-1.6,1.8-3.1,1.9-2.5.3-4.3-1.2-4.6-3.4-.3-2.2,1.1-4.1,3.5-4.4,2.2-.3,4,1.2,4.3,3.5v.9l-5.3.6c.4.7,1.1.9,1.9.8Zm1-2.9c-.3-.8-1-1.1-1.7-1-.8.1-1.4.6-1.5,1.4l3.2-.4Z"/><path d="m311.79,310.29l5.7.7-.3,2.1-5.7-.7.3-2.1Z"/><path d="m326.79,316.19c-.8,2.1-3,3.1-4.8,2.3-.9-.4-1.5-1-1.7-1.7l-.3.7-2.1-.8,3.9-9.8,2.1.8-1.4,3.4c.7-.3,1.5-.4,2.4,0,1.8.7,2.7,2.9,1.9,5v.1Zm-2.1-.8c.4-1,0-2-1-2.4s-1.9,0-2.3,1c-.4,1,0,2,1,2.4s1.9,0,2.3-1Z"/><path d="m327.79,316.89c1.4-1.8,3.8-2,5.6-.7,1.7,1.3,2.1,3.8.7,5.6-1.4,1.8-3.8,2-5.6.7-1.7-1.3-2.1-3.8-.7-5.6Zm4.5,3.5c.7-.8.5-1.9-.3-2.5s-1.8-.5-2.4.3c-.7.8-.5,1.9.3,2.5s1.8.5,2.4-.3Z"/><path d="m345.29,325.09l-8.4,6.2-1.3-1.8.6-.4c-.8,0-1.5-.4-2.1-1.3-1.2-1.6-.7-3.9,1.1-5.2,1.8-1.3,4.1-1.1,5.3.5.6.8.8,1.6.6,2.3l3-2.2,1.3,1.8-.1.1Zm-6.8,2.2c.9-.7,1-1.7.4-2.5s-1.6-1-2.5-.3-1,1.7-.4,2.5,1.6,1,2.5.3Z"/><path d="m346.79,336.19l-7.7.3c-2.5,0-3.9-.8-4.6-2.8l2-.8c.4,1,.9,1.3,1.8,1.3l5.6-5.4.9,2.3-3.7,3.2,4.8-.4.9,2.2v.1Z"/><path d="m342.49,346.59v-1c-.1,0-1.8.2-1.8.2l-.3-2.4,1.7-.2-.6-4.7,2.2-.3,7,2.5.3,2.6-7-2.5.3,2.2,2.2-.3.3,2.4-2.2.3v1c.1,0-2.1.3-2.1.3v-.1Z"/><path d="m320.39,354.39v6h-2.6v4h-6.6v-4h-11.4v-6.1l7.7-15.8h7.3l-7.8,15.9h4.1v-4.7h6.6v4.7h2.7Z"/></svg>