<?xml version="1.0" encoding="UTF-8"?><svg id="Layer_1" xmlns="http://www.w3.org/2000/svg" viewBox="0 0 400 400"><defs><style>.cls-1{stroke:#a5262d;}.cls-1,.cls-2,.cls-3{stroke-width:4px;}.cls-1,.cls-2,.cls-3,.cls-4{fill:none;stroke-miterlimit:10;}.cls-2{stroke:#000;}.cls-5{fill:#fff;}.cls-6{fill:#57575e;}.cls-7{fill:#90b9e0;}.cls-3{stroke:#0018c6;}.cls-8{fill:#d9d9ea;}.cls-9{fill:#8ac5cd;}.cls-10{fill:#48459c;}.cls-11{fill:#546e7a;}.cls-12{fill:#434348;}.cls-13{fill:#3392f5;}.cls-14{fill:#364a5f;}.cls-15{fill:#90bae0;}.cls-16{fill:#afd2ef;}.cls-17{fill:#ffed58;}.cls-18{fill:#fcd6ac;}.cls-4{stroke:#231f20;stroke-width:2px;}.cls-19{fill:#36464e;}.cls-20{fill:#424248;}.cls-21{fill:#3b566a;}.cls-22{fill:#b2d3d9;}.cls-23{fill:#4582c2;}.cls-24{fill:#607890;}.cls-25{fill:#cbb293;}.cls-26{fill:#374b60;}.cls-27{fill:#fcd6ad;}.cls-28{fill:#b3d4da;}.cls-29{fill:#788f9b;}.cls-30{fill:#3392f6;}.cls-31{fill:#637889;}.cls-32{fill:#fde6cd;}.cls-33{fill:#88c4cc;}.cls-34{fill:#2f4859;}.cls-35{fill:#33b1cb;}.cls-36{fill:#cbb292;}.cls-37{fill:#304959;}.cls-38{fill:#fbd734;}.cls-39{fill:#60acfd;}.cls-40{fill:#231f20;}.cls-41{fill:#33b1cc;}.cls-42{fill:#86cde8;}.cls-43{fill:#e2c8aa;}</style></defs><circle class="cls-1" cx="195.17" cy="198.5" r="45"/><path class="cls-42" d="m165.17,200.8v-.6c.3-.6.9-.7,1.4-.8,1.4-.2,2.5-1.3,2.5-2.7v-.5c.1-.5.5-.8,1-.7.5,0,.9.4.9.8,0,.3,0,.5.1.8.2,1.1,1.1,2,2.2,2.2.7.2.7.1.7-.6v-13.5c0-.53.27-.8.8-.8h30.6c0,.3-.3.4-.5.6-2.4,2.4-4.8,4.8-7.2,7.2-.2.2-.4.4-.5.6-.2.4-.1.9.2,1.2s.8.4,1.2.1c.2-.1.4-.3.5-.5,2.8-2.8,5.6-5.6,8.3-8.3.3-.3.5-.6.6-1h3.4c0,.3-.3.4-.5.6l-13.3,13.3-.5.5c-.2.3-.3.7,0,1,.2.3.5.6.9.5.3,0,.6-.2.9-.4l14.6-14.6c.3-.2.5-.6.5-.9h1.1c1,0,.9-.1.9.9v28.3q0,.8.8.6c1.3-.4,2.2-1.5,2.2-2.8,0-.7.4-1,1-1s.9.4,1,1c.2,1.7,1.1,2.6,2.8,2.9.5,0,1,.3,1.2.8v.6c-.2.4-.7.7-1.1.7-1.7.2-2.6,1.1-2.8,2.9,0,.3-.2.7-.4.9-.3.2-.6.3-.9.1-.4-.1-.6-.5-.6-.9-.2-1.6-.9-2.6-2.3-2.9-.7-.2-.7-.1-.7.6v12.6c0,.53-.23.8-.7.8h-21.6c0-.3.3-.4.5-.6l7.5-7.5c.5-.6.6-1.1.1-1.5-.4-.4-1-.4-1.4,0l-.1.1c-2.9,2.9-5.8,5.8-8.7,8.7-.2.2-.4.5-.5.9h-3.4c0-.3.3-.4.5-.6l13.3-13.3c.2-.2.4-.4.5-.6.2-.4.2-.9-.2-1.2-.3-.3-.9-.4-1.2,0-.1,0-.2.2-.3.3l-14.6,14.6c-.3.2-.4.6-.5.9h-10.1c-.6,0-.9-.3-.9-.9v-27.5c0-.7,0-.8-.7-.6-1.3.4-2.1,1.3-2.3,2.9,0,.6-.4,1-1,1s-1-.5-1-1v-.3c-.1-1.4-1.3-2.5-2.7-2.6-.5,0-1-.3-1.3-.7l-.2-.1Zm5,.6c.3-.2.7-.5.9-.9-.3-.4-.6-.7-.9-1-.3.2-.6.5-.9.9.2.3.5.6.9.9h0v.1Zm50.9,14.2c-.2-.4-.5-.7-.9-.9-.4.3-.7.6-.9.9l.9.9.9-.9h0Z"/><path class="cls-41" d="m211.57,184.6c.3-.1.5-.3.7-.6.8-.8,1.6-.6,1.9.5,0,.4-.3.7-.5.9l-14.6,14.6c-.2.3-.5.4-.9.4s-.7-.2-.9-.5-.2-.7,0-1c.1-.2.3-.4.5-.5l13.3-13.3c.2-.2.4-.3.5-.6v.1Z"/><path class="cls-35" d="m187.77,230.4c-.3.1-.5.4-.8.6-.8.7-1.6.5-1.8-.6,0-.3.2-.7.5-.9l14.6-14.6s.2-.2.3-.3c.4-.3.9-.2,1.2,0,.4.3.4.8.2,1.2-.1.2-.3.4-.5.6l-13.3,13.3c-.2.2-.4.3-.5.6l.1.1Z"/><path class="cls-41" d="m205.47,184.6c.2,0,.4-.2.6-.4,1-1,1.6-.8,2.1.4-.1.4-.3.8-.6,1l-8.3,8.3-.5.5c-.4.3-.9.2-1.2-.1-.4-.3-.5-.8-.2-1.2.1-.2.3-.5.5-.6,2.4-2.4,4.8-4.8,7.2-7.2.2-.2.4-.3.5-.6l-.1-.1Z"/><path class="cls-41" d="m193.77,230.5c-.3.1-.5.3-.7.6-.8.8-1.6.5-1.9-.5,0-.3.2-.6.5-.8,2.9-2.9,5.8-5.8,8.7-8.7.3-.5.9-.6,1.4-.2l.1.1c.4.4.4,1-.1,1.5l-7.5,7.5c-.2.2-.4.3-.4.6l-.1-.1Z"/><path d="m183.47,168.3c2.2,3.4,1.2,7.1-1.9,9.1-3.5,2.3-7.7,1.3-9.8-1.9-2.1-3.3-1.2-7.5,2.1-9.7,2.1-1.4,4.6-1.5,6.6-.6l-1.4,2.7c-.9-.4-2.3-.4-3.6.5-1.9,1.2-2.4,3.5-1.1,5.5,1.2,1.9,3.5,2.4,5.7,1,1.5-1,2-2.3,1.7-3.6l-3,1.9-1.5-2.2,5.6-3.7.6,1Z"/><path d="m184.37,160.6l2.8-.7,3.5,13.5-2.8.7-3.5-13.5Z"/><path d="m201.87,163.4l-.2,9.6h-2.9v-1c-.6.7-1.6,1.1-2.9,1.1-2.5,0-4.5-2.3-4.5-5.1s2.2-5,4.7-4.9c1.3,0,2.2.5,2.8,1.2v-.9h3Zm-3,4.7c0-1.4-.9-2.4-2.2-2.4s-2.3.8-2.3,2.3c0,1.4.9,2.4,2.2,2.4s2.3-.8,2.3-2.3Z"/><path d="m210.57,173.3c-.8,2.1-2.9,2.3-4.8,1.6-1.8-.7-2.9-1.9-3.1-3.6l2.8-.5c0,.8.3,1.3,1.1,1.6.6.2,1,.2,1.2-.2.4-1-4.2-2.1-3.1-5.2.7-2,2.7-2.3,4.6-1.6,1.5.5,2.5,1.7,2.8,3.2l-2.8.4c0-.6-.3-1-.9-1.2-.5-.2-.8-.1-.9.2-.4,1,4.3,2,3.1,5.3Z"/><path d="m217.27,178.1c-1.3,1.8-3.4,1.4-5.1.2-1.5-1.1-2.3-2.6-2-4.3l2.8.3c-.2.7,0,1.4.7,1.9.6.4,1,.4,1.2.1.6-.9-3.5-3.2-1.6-5.8,1.2-1.7,3.3-1.5,4.9-.3,1.3.9,2,2.3,1.8,3.8l-2.8-.4c0-.6,0-1.1-.5-1.4-.4-.3-.8-.3-1,0-.6.9,3.6,3.1,1.5,5.9h.1Z"/><circle class="cls-3" cx="139.78" cy="57.88" r="45"/><path class="cls-18" d="m166.78,85.18v.8c-.18.53-.53.99-1,1.3l-9.6,6.6c-.87.61-2.08.39-2.69-.48,0,0,0-.01-.01-.02-.3-.5-.7-1-1-1.5-.6-1.25-1.93-1.97-3.3-1.8-1.87.16-3.66-.78-4.6-2.4-.9-1.3-1.7-2.6-2.6-3.9-.1-.2-.2-.4-.4-.4,0-.19-.07-.36-.2-.5-.7-1.1-1.4-2.1-2.1-3.2-1.05-1.47-.72-3.51.75-4.56.02-.01.03-.02.05-.04.45-.31.89-.64,1.3-1,.2,0,.3.2.4.3,1,1.4,1.9,2.9,2.9,4.3l2.4,3.6c.29.42.85.55,1.3.3.41-.3.5-.89.2-1.3,0,0,0,0,0,0,0-.1-.1-.2-.2-.3-3.2-4.6-6.3-9.2-9.5-13.9-2-3-4.1-6-6.1-9-.44-.58-.68-1.28-.7-2,0-.3.3-.6.1-1v-.2c1.12-.52,2.45-.19,3.2.8.58.91,1.21,1.78,1.9,2.6,1.2,1.7,2.3,3.4,3.5,5.1.34.61.74,1.17,1.2,1.7h0s0,.2.1.2c.27.42.57.82.9,1.2.3.3.8.3,1.1,0,.4-.3.4-.8,0-1.3-.56-.71-.84-1.6-.8-2.5,0-.3.3-.5.1-.7,1.12-.57,2.48-.23,3.2.8.18.34.41.65.7.9.23.54.53,1.05.9,1.5.32.3.8.38,1.2.2.39-.27.52-.78.3-1.2-.13-.26-.3-.49-.5-.7-.51-.73-.69-1.63-.5-2.5v-.4c.77-.45,1.73-.45,2.5,0,.7.4,1,1.1,1.5,1.6h0c.24.5.54.97.9,1.4.3.3.8.3,1.1,0,.28-.21.43-.55.4-.9-.04-.26-.14-.5-.3-.7-.59-.69-.84-1.6-.7-2.5v-.8c1.2-.51,2.59-.09,3.3,1,1.9,2.8,3.8,5.5,5.6,8.3,1.44,2.31,2.36,4.9,2.7,7.6.22,1.93.29,3.86.2,5.8-.04,1.15.23,2.3.8,3.3l.1.5Zm-2.9-.1c0-.32-.2-.59-.5-.7-.32-.15-.68-.15-1,0-1,.7-2,1.3-3,2-.43.22-.6.74-.38,1.17.02.05.05.09.08.13.3.41.89.5,1.3.2,0,0,0,0,0,0,1-.7,2-1.4,3-2,.31-.15.5-.46.5-.8Zm-6.1,4.2c.05-.44-.27-.85-.71-.9-.17-.02-.34.01-.49.1-.32.16-.62.37-.9.6-.3.32-.38.8-.2,1.2.25.38.77.49,1.15.24.02-.01.03-.02.05-.04.28-.18.55-.38.8-.6.2-.2.3-.3.2-.5l.1-.1Z"/><path class="cls-16" d="m121.78,58.68v-12.8c-.03-1.25.79-2.37,2-2.7h2.9c.37.48.55,1.09.5,1.7-.08.97.64,1.82,1.61,1.89.06,0,.12,0,.19,0h6.9c.98.07,1.83-.67,1.9-1.65,0-.08,0-.17,0-.25-.08-.61.1-1.23.5-1.7h2.6c.67.17,1.27.56,1.7,1.1.2.22.31.5.3.8-.8.7-1.6,1.5-2.3,2.2-1.3,1.4-2.5,2.8-3.7,4.3-.19.39-.51.71-.9.9-1.05-.97-2.47-1.45-3.9-1.3-2.61.21-4.69,2.29-4.9,4.9-.12,2.2,1.1,4.26,3.1,5.2-.4.8-.9,1.7-1.3,2.5-1,1.9-1.9,3.9-2.7,5.8-1.16,2.81-2.18,5.68-3.05,8.6-.4,1.3-.7,2.6-1.1,3.9-.16-.38-.23-.79-.2-1.2v-10.4c.1-.3.3-.6.4-.9.68-1.56,1.12-3.21,1.3-4.9.3-2.2.1-4.3-1.7-5.9l-.15-.1Z"/><path class="cls-14" d="m138.23,43.08c-.42.46-.6,1.09-.5,1.7.07.98-.67,1.83-1.65,1.9-.08,0-.17,0-.25,0h-6.9c-.97.03-1.78-.74-1.81-1.71,0-.06,0-.12,0-.19.08-.61-.1-1.23-.5-1.7h11.6Z"/><path class="cls-24" d="m137.98,43.08c-.1.1-.3,0-.5,0h.5Z"/><path class="cls-7" d="m121.98,81.98c.4-1.3.7-2.6,1.1-3.9.88-2.92,1.92-5.79,3.1-8.6.8-1.98,1.7-3.92,2.7-5.8.4-.8.9-1.7,1.3-2.5.2,0,.4.2.6.2.67.27,1.4.34,2.1.2,0,.1.2.2.2.3,2.4,3.5,4.8,7.1,7.2,10.6.42.53.79,1.1,1.1,1.7-.41.36-.85.69-1.3,1-1.49,1.02-1.86,3.06-.84,4.55.01.02.02.03.04.05.7,1.1,1.4,2.1,2.1,3.2.1.2.2.3.2.5-.7.4-1.4.2-2.1.3h-14.8c-1.15.09-2.22-.61-2.6-1.7l-.1-.1Zm10.4-.9h3.3c.7,0,1.1-.3,1.1-.9s-.4-.9-1.1-.9h-6.6c-.7,0-1.1.3-1.1.9s.4.9,1.1.9h3.3Z"/><path class="cls-15" d="m135.88,52.38c.5-.1.6-.5.9-.9,1.2-1.5,2.4-2.9,3.7-4.3.72-.78,1.49-1.52,2.3-2.2.16.38.23.79.2,1.2v16.2c-.53.38-.89.96-1,1.6-.05.47-.05.93,0,1.4-.46-.53-.86-1.09-1.2-1.7-1.2-1.7-2.3-3.4-3.5-5.1.32-.62.49-1.3.5-2,.04-1.57-.62-3.07-1.8-4.1l-.1-.1Z"/><path class="cls-23" d="m135.88,52.38c1.17,1.04,1.82,2.54,1.8,4.1.03.7-.15,1.39-.5,2-.58-.91-1.21-1.78-1.9-2.6-.72-1.03-2.08-1.37-3.2-.8-.29,0-.54.21-.6.5h0c-.06,0-.1.04-.1.1h0c-.06,0-.1.04-.1.1h0c-.06,0-.1.04-.1.1h0c-.58.49-.81,1.27-.6,2,0,.45.18.88.5,1.2.6.9,1.2,1.7,1.7,2.6-.7.13-1.43.06-2.1-.2-.21-.02-.42-.09-.6-.2-2.66-1.2-3.85-4.33-2.65-7,.8-1.77,2.51-2.97,4.45-3.1,1.42-.09,2.82.37,3.9,1.3l.1-.1Z"/><path class="cls-36" d="m132.78,61.58c-.6-.9-1.2-1.7-1.7-2.6-.29-.34-.47-.76-.5-1.2,0-.71.21-1.41.6-2h.1l.1-.1h0l.1-.1h0c.2,0,.4-.2.6-.3.1.3-.1.6-.1,1,.02.72.26,1.42.7,2,2,3,4.1,6,6.1,9,3.2,4.6,6.3,9.2,9.5,13.9,0,.1.2.2.2.3.31.4.23.97-.17,1.28-.01,0-.02.02-.03.02-.45.21-.99.08-1.3-.3l-2.4-3.6c-1-1.4-1.9-2.9-2.9-4.3-.1-.2-.2-.3-.4-.3-.33-.59-.7-1.16-1.1-1.7-2.4-3.5-4.8-7.1-7.2-10.6,0-.1-.2-.2-.2-.3v-.1Z"/><path class="cls-32" d="m163.88,85.08c0,.34-.19.65-.5.8-1,.7-2,1.4-3,2-.42.27-.98.18-1.3-.2-.28-.41-.18-.97.22-1.25.02-.02.05-.03.08-.05,1-.7,2-1.4,3-2,.29-.25.71-.25,1,0,.3.2.5.4.5.7Z"/><path class="cls-25" d="m152.68,62.38c-.16-.75-.05-1.52.3-2.2.3-.46.71-.84,1.2-1.1v.8c-.06.89.18,1.77.7,2.5.2.18.31.43.3.7,0,.4,0,.7-.4.9-.34.2-.76.2-1.1,0-.39-.4-.7-.88-.9-1.4h0l-.1-.2Z"/><path class="cls-25" d="m147.38,63.78c-.38-1.21.17-2.52,1.3-3.1.1.1,0,.3,0,.4-.2.87-.02,1.78.5,2.5.2.2.3.5.5.7.28.41.16.97-.25,1.25s-.97.16-1.25-.25c-.39-.44-.7-.95-.9-1.5h.1Z"/><path class="cls-36" d="m141.88,65.28v-1.4c.21-.6.55-1.15,1-1.6.15-.03.29-.09.4-.2.2.3,0,.5-.1.7,0,.9.28,1.77.8,2.5.35.36.35.94,0,1.3-.3.3-.8.3-1.1,0-.32-.38-.62-.78-.9-1.2,0,0,0-.2-.1-.2h0v.1Z"/><path class="cls-32" d="m157.78,89.18c0,.2,0,.4-.2.5-.22.25-.49.46-.8.6-.36.28-.88.21-1.16-.15-.01-.02-.02-.03-.04-.05-.24-.4-.15-.9.2-1.2l.9-.6c.39-.22.88-.08,1.1.31.08.15.12.32.1.49l-.1.1Z"/><path class="cls-43" d="m132.08,55.18c-.2,0-.4.3-.6.3,0-.3.4-.4.6-.5v.2Z"/><path class="cls-15" d="m141.88,65.28c0,.08.04.15.1.2-.05-.05-.09-.12-.1-.2Z"/><path class="cls-27" d="m121.98,81.98c.38,1.09,1.45,1.79,2.6,1.7h14.8c-.98,1.38-2.24,2.54-3.7,3.4-.2.1-.3.2-.5.3-.7.36-1.09,1.12-1,1.9v3.1c0,1.05-.85,1.9-1.9,1.9h-10.3c-.96.09-1.81-.61-1.9-1.56-.01-.11-.01-.22,0-.34v-3c-.23-.99-.67-1.91-1.3-2.7-.7-1-1.3-2.1-2.1-3.1-.67-.97-1.02-2.12-1-3.3,0-2.3.2-4.6.2-6.9v-3.3c-.04-1.47.24-2.94.8-4.3.82-1.84,1.36-3.8,1.6-5.8.04-.96.86-1.7,1.82-1.66.13,0,.26.03.38.06.9,1.1,1.39,2.48,1.4,3.9-.05,1.35-.25,2.69-.6,4-.27,1.25-.7,2.47-1.3,3.6-.23.47-.05,1.04.4,1.3.42.26.98.13,1.24-.29.02-.04.04-.07.06-.11.05-.11.12-.21.2-.3v10.4c-.03.41.04.82.2,1.2l-.1-.1Zm7.3,7.9h-1.2c-.5-.07-.96.27-1.03.77s.27.96.77,1.03c.09.01.18.01.27,0h2.4c.5,0,.9-.4.9-.9s-.4-.9-.9-.9h-1.2Zm-5.3,1.8c.24.02.48-.02.7-.1.38-.17.59-.59.5-1-.14-.43-.55-.72-1-.7-.6,0-1.2,0-1.5.6v.2c0,.7.4,1,1.3,1Z"/><path class="cls-36" d="m121.78,70.38c-.05.11-.12.21-.2.3-.26.45-.83.63-1.3.4-.45-.2-.66-.73-.46-1.19.02-.04.04-.08.06-.11.58-1.15,1.03-2.35,1.35-3.6.35-1.31.55-2.65.6-4,.04-1.43-.46-2.82-1.4-3.9.49.08.97.25,1.4.5,1.8,1.6,1.9,3.7,1.7,5.9-.18,1.69-.62,3.34-1.3,4.9-.1.3-.3.6-.4.9l-.05-.1Z"/><path class="cls-26" d="m132.38,81.08h-3.3c-.7,0-1.1-.3-1.1-.9s.4-.9,1.1-.9h6.6c.7,0,1.1.4,1.1.9s-.4.9-1.1.9h-3.3Z"/><path class="cls-43" d="m131.23,55.78c-.35.61-.55,1.3-.6,2-.26-.73-.02-1.54.6-2Z"/><path class="cls-32" d="m129.28,89.88h1.1c.5-.07.96.27,1.03.77s-.27.96-.77,1.03c-.09.01-.18.01-.27,0h-2.4c-.5,0-.9-.4-.9-.9s.4-.9.9-.9h1.3,0Z"/><path class="cls-32" d="m124.08,91.68c-1,0-1.4-.3-1.3-1v-.2c.3-.6.9-.6,1.5-.6.45-.02.86.27,1,.7.14.41-.07.85-.48.99,0,0-.01,0-.02,0-.23.07-.46.11-.7.1Z"/><path d="m104.28,43.68l-.8,2.6,7.8,2.5-.7,2.3-7.8-2.5-.8,2.6-2.2-.7,2.4-7.4,2.2.7-.1-.1Z"/><path d="m108.38,45.48c-1.87-1.11-2.5-3.52-1.39-5.4,1.11-1.87,3.52-2.5,5.4-1.39,1.87,1.1,2.5,3.51,1.4,5.39-1.09,1.87-3.48,2.51-5.36,1.43-.01,0-.03-.02-.04-.03Zm2.9-4.9c-.85-.44-1.89-.11-2.33.74-.44.85-.11,1.89.74,2.33.82.43,1.83.13,2.3-.67.51-.78.29-1.83-.5-2.34-.03-.02-.07-.04-.1-.06h-.1Z"/><path d="m115.88,29.78l5.2,5.4-1.6,1.6-.5-.5c.03.8-.3,1.57-.9,2.1-1.07,1.09-2.83,1.1-3.92.03-.1-.1-.2-.21-.28-.33l-3.2-3.3,1.6-1.6,3,3.1c.38.52,1.11.64,1.63.27.1-.07.19-.16.27-.27.58-.49.66-1.35.17-1.93-.05-.06-.11-.12-.17-.17l-2.8-2.9,1.6-1.6-.1.1Z"/><path d="m119.78,31.48c-1.03-1.96-.27-4.37,1.69-5.4,1.16-.61,2.55-.61,3.71,0l-1.1,2c-.53-.3-1.17-.3-1.7,0-.82.5-1.09,1.57-.6,2.4.38.81,1.35,1.16,2.16.78.05-.02.1-.05.14-.08.57-.26.9-.88.8-1.5h2.35c-.02,1.41-.78,2.7-2,3.4-1.82,1.1-4.19.52-5.29-1.3-.04-.07-.08-.13-.11-.2l-.05-.1Z"/><path d="m134.08,24.68l1.2,4.4-2.2.6-1.1-4.1c-.08-.66-.68-1.14-1.34-1.06-.09.01-.17.03-.26.06-.8.2-1.2.8-.9,1.9l1.1,4-2.2.6-2.8-10.1,2.2-.6,1,3.6c.33-.74,1.01-1.26,1.8-1.4,1.46-.42,2.99.42,3.42,1.89.04.13.07.27.08.41v-.2Z"/><path d="m148.58,19.28l-1.3,10.4-2.2-.3v-.7c-.57.58-1.41.81-2.2.6-2-.2-3.3-2.2-3.1-4.4.17-2.06,1.94-3.6,4-3.5.85.06,1.62.5,2.1,1.2l.5-3.7,2.2.3v.1Zm-3.1,6.4c.18-.91-.41-1.79-1.32-1.97-.06-.01-.12-.02-.18-.03-.95-.15-1.84.51-1.98,1.46,0,.05-.01.1-.02.14-.18.91.41,1.79,1.32,1.97.06.01.12.02.18.03.95.15,1.84-.51,1.98-1.46,0-.05.01-.1.02-.14Z"/><path d="m150.68,23.08l2.1.7-2.4,7.1-2.1-.7,2.4-7.1Zm.4-2c.22-.72.98-1.12,1.7-.9.72.22,1.12.98.9,1.7-.22.72-.98,1.12-1.7.9-.71-.23-1.1-.98-.9-1.7h0Z"/><path d="m157.78,31.98c-.8,1.5-2.5,1.5-3.9.7-1.26-.51-2.06-1.75-2-3.1h2.2c-.07.54.22,1.06.7,1.3.5.3.8.2.9,0,.4-.7-3.1-2.1-1.9-4.4.76-1.23,2.37-1.62,3.6-.86.03.02.06.04.1.06,1.1.5,1.8,1.59,1.8,2.8h-2.2c.04-.43-.21-.83-.6-1-.23-.2-.57-.2-.8,0-.4.8,3.1,2,1.8,4.4l.3.1Z"/><path d="m165.78,36.88c-1.23,1.59-3.51,1.89-5.11.66-.07-.05-.13-.11-.19-.16-.67-.53-1.04-1.35-1-2.2l-2.5,2.7-1.7-1.5,7-7.8,1.7,1.5-.5.5c.84-.04,1.67.24,2.3.8,1.46,1.41,1.51,3.74.1,5.2-.03.03-.06.06-.1.1v.2Zm-1.7-1.5c.72-.67.76-1.8.08-2.52-.03-.03-.06-.06-.08-.08-.67-.67-1.76-.67-2.43,0-.06.06-.12.13-.17.2-.72.67-.76,1.8-.08,2.52.03.03.06.06.08.08.67.67,1.76.67,2.43,0,.06-.06.12-.13.17-.2Z"/><path d="m172.28,33.88l1.3,1.8-8.8,6.5-1.3-1.8,8.8-6.5Z"/><path d="m175.68,46.88l-6.8,3.2-.9-2,.6-.3c-.8-.26-1.45-.84-1.8-1.6-.79-1.88.09-4.05,1.97-4.85.04-.02.09-.04.13-.05,1.85-.96,4.13-.25,5.1,1.6.38.75.42,1.62.1,2.4l.6-.3.9,2,.1-.1Zm-4.3-.5c.9-.39,1.32-1.44.93-2.34,0-.02-.02-.04-.03-.06-.37-.86-1.36-1.26-2.22-.89-.06.03-.12.06-.18.09-.9.39-1.32,1.44-.93,2.34,0,.02.02.04.03.06.37.86,1.36,1.26,2.22.89.06-.03.12-.06.18-.09Z"/><path d="m177.68,56.78l-7.6-1.3c-2.5-.4-3.7-1.6-3.9-3.7l2.1-.4c.2,1,.6,1.5,1.5,1.6l6.5-4.2.4,2.4-4.2,2.4,4.8.6.4,2.4v.2Z"/><circle class="cls-3" cx="299.79" cy="316.2" r="45"/><path d="m270.49,298.5c-2.57-2.45-2.66-6.52-.21-9.09.07-.07.14-.14.21-.21,1.52-1.59,3.75-2.27,5.9-1.8l-.7,2.8c-1.17-.32-2.42.07-3.2,1-1.44,1.29-1.56,3.49-.27,4.93.09.1.18.19.27.27,1.23,1.44,3.39,1.61,4.82.38.14-.12.26-.24.38-.38.9-.8,1.26-2.05.9-3.2l2.8-.8c.55,2.13-.11,4.39-1.7,5.9-2.39,2.57-6.41,2.71-8.97.33-.11-.1-.22-.21-.33-.33l.1.2Z"/><path d="m288.49,282.3l3.8,8.2-2.5,1.1-.4-.8c-.32.96-1.05,1.73-2,2.1-2.27.96-4.89-.1-5.85-2.37-.02-.04-.04-.09-.05-.13-1.14-2.21-.29-4.92,1.9-6.1.9-.48,1.97-.52,2.9-.1l-.4-.8,2.5-1.1h.1Zm-.6,5.2c-.44-1.08-1.68-1.6-2.76-1.16-.05.02-.09.04-.14.06-1.05.43-1.54,1.63-1.11,2.68.03.08.07.15.11.22.47,1.07,1.71,1.57,2.79,1.1.02-.01.05-.02.07-.03,1.04-.44,1.53-1.64,1.09-2.69-.03-.06-.06-.12-.09-.18h.04Z"/><path d="m306.39,283.9l.2,5.5h-2.74l-.2-5.2c0-.9-.5-1.5-1.3-1.4s-1.4.7-1.3,1.7l.2,5.1h-2.7l-.2-5.2c0-.9-.5-1.5-1.3-1.4s-1.4.7-1.3,1.7l.2,5.1h-2.7l-.3-8.9h2.7v.7c.57-.75,1.46-1.19,2.4-1.2.93-.06,1.84.35,2.4,1.1.62-.81,1.58-1.3,2.6-1.3,1.84-.1,3.41,1.31,3.51,3.14,0,.15,0,.3,0,.46l-.16.1Z"/><path d="m312.29,289.6c.61.25,1.29.25,1.9,0l1.6,1.9c-1.28.83-2.89.98-4.3.4-2.9-1.1-4-3.7-3-6.2.8-2.41,3.4-3.71,5.8-2.91.1.03.2.07.3.11,2.31.8,3.54,3.32,2.75,5.63-.04.13-.09.25-.15.37-.11.36-.27.7-.5,1l-6-2.2c.03.93.69,1.71,1.6,1.9Zm2.7-2.5c.09-.89-.45-1.72-1.3-2-.83-.42-1.85-.11-2.3.7l3.6,1.3Z"/><path d="m325.85,289.3l-1.7,2.5c-.77-.92-2.14-1.03-3.06-.26-.13.11-.24.23-.34.36l-2.3,3.3-2.2-1.5,5.1-7.4,2.2,1.5-.9,1.3c.95-.7,2.25-.7,3.2,0v.2Z"/><path d="m333.79,298.1l-6.9,5.8-1.7-2.1.6-.5c-1.02-.03-1.97-.5-2.6-1.3-1.5-2-1.15-4.83.8-6.4,1.83-1.71,4.68-1.62,6.4.2.7.76,1.02,1.78.9,2.8l.6-.5,1.7,2.1.2-.1Zm-5.2.9c.93-.72,1.11-2.05.39-2.99-.03-.04-.06-.08-.09-.11-.73-.91-2.06-1.05-2.97-.32-.05.04-.09.08-.13.12-.93.72-1.11,2.05-.39,2.99.03.04.06.08.09.11.73.91,2.06,1.05,2.97.32.05-.04.09-.08.13-.12h0Z"/><path class="cls-8" d="m328.79,326.3v.2c-.3,0-.2.3-.2.4.02.5-.02,1-.1,1.5-.46,3.4-1.54,6.69-3.2,9.7-1.45,2.61-3.27,5.01-5.4,7.1-2.28,2.2-4.92,3.99-7.8,5.3-2.42,1.11-4.97,1.89-7.6,2.3l-2.4.3h-3.8c-.66-.12-1.33-.19-2-.2-6.9-.93-13.23-4.34-17.8-9.6-3.72-4.31-6.06-9.64-6.7-15.3.03-.54-.04-1.08-.2-1.6v-3.6c.09-.15.13-.33.1-.5,0-.81.1-1.62.3-2.4.52-3.15,1.57-6.2,3.1-9,1.42-2.61,3.24-4.97,5.4-7,6.12-5.88,14.57-8.71,23-7.7,3.19.39,6.3,1.31,9.2,2.7,6.29,3.11,11.23,8.41,13.9,14.9.98,2.36,1.62,4.86,1.9,7.4.17,1.49.23,3,.2,4.5-.02.21.02.41.1.6h0Zm-23.8,22.9c1.12-.17,2.22-.44,3.3-.8,11.94-4.11,18.99-16.42,16.5-28.8-1.9-8.9-7.3-15.1-15.7-18.5-1.27-.56-2.62-.93-4-1.1-.23-.08-.46-.15-.7-.2-2.08-.32-4.2-.38-6.3-.2-3.92.22-7.71,1.46-11,3.6-8.9,5.8-12.9,14-11.8,24.6.69,6.91,4.39,13.16,10.1,17.1,4.69,3.4,10.41,5.1,16.2,4.8,1.15.03,2.3-.14,3.4-.5h0Z"/><path class="cls-6" d="m304.99,349.2c-1.11.31-2.25.48-3.4.5-5.8.39-11.55-1.31-16.2-4.8-5.8-4.3-9.4-10-10.1-17.1-1.2-10.6,2.9-18.8,11.8-24.6,3.29-2.14,7.08-3.38,11-3.6,2.1-.18,4.22-.12,6.3.2.25-.02.5.05.7.2.15.12.32.22.5.3,4.28,1.29,8.03,3.92,10.7,7.5,1.29,1.66,2.37,3.47,3.2,5.4,1.38,3.22,2.18,6.67,2.36,10.17.05,1.84-.05,3.68-.3,5.5-.39,2.82-1.23,5.55-2.5,8.1-1.36,2.79-3.22,5.29-5.5,7.4-1.88,1.7-4.05,3.05-6.4,4-.72.22-1.42.49-2.1.8l-.06.03Zm-23.14-24.6c.03,10.02,8.18,18.13,18.2,18.1,10.02-.03,18.13-8.18,18.1-18.2-.03-10.02-8.18-18.13-18.2-18.1-9.98.03-18.07,8.12-18.1,18.1v.1Z"/><path class="cls-12" d="m304.99,349.2c.68-.33,1.38-.59,2.1-.8,2.35-.96,4.51-2.31,6.4-4,2.28-2.11,4.14-4.61,5.5-7.4,1.27-2.55,2.11-5.28,2.5-8.1.3-1.82.4-3.66.3-5.5-.09-3.53-.91-7-2.4-10.2-.83-1.93-1.91-3.74-3.2-5.4-2.67-3.58-6.42-6.21-10.7-7.5-.2,0-.3-.1-.5-.3,1.38.17,2.73.54,4,1.1,8.4,3.4,13.8,9.6,15.7,18.5,2.55,12.39-4.52,24.74-16.5,28.8-1.06.42-2.17.69-3.3.8h.1Z"/><path class="cls-30" d="m281.85,324.7c0-10.05,8.15-18.2,18.2-18.2,10.05,0,18.2,8.15,18.2,18.2,0,10.05-8.15,18.2-18.2,18.2h0c-10.02.01-18.16-8.08-18.2-18.1h0v-.1Zm18.2-11.3h-8.2c-.86-.07-1.71.26-2.3.9-.2.2-.3.4-.5.6-2.83,3.04-4.18,7.17-3.7,11.3.35,3.58,2.03,6.89,4.7,9.3.29.3.68.48,1.1.5h17c.94.03,1.85-.33,2.5-1,.2-.2.3-.4.5-.5,2.96-3.32,4.25-7.81,3.5-12.2-.53-2.97-1.92-5.72-4-7.9-.55-.64-1.36-1.01-2.2-1h-8.4Z"/><path class="cls-10" d="m300.09,313.37h8.4c.84,0,1.65.36,2.2,1,2.12,2.16,3.52,4.92,4,7.9.78,4.39-.51,8.89-3.5,12.2-.11.21-.29.39-.5.5-.6.74-1.55,1.12-2.5,1h-17c-.42-.02-.81-.2-1.1-.5-2.65-2.42-4.32-5.73-4.7-9.3-.48-4.13.87-8.26,3.7-11.3.2-.17.36-.38.5-.6.58-.65,1.43-.99,2.3-.9h8.2Zm7.9,11.3c.03-4.34-3.46-7.87-7.8-7.9-.03,0-.07,0-.1,0-4.36-.06-7.94,3.44-8,7.8-.06,4.36,3.44,7.94,7.8,8,4.36.06,7.94-3.44,8-7.8,0-.03,0-.07,0-.1h.1,0Z"/><path class="cls-20" d="m307.99,324.7c-.05,4.3-3.5,7.79-7.8,7.9-4.23.13-7.77-3.2-7.9-7.43,0-.16,0-.31,0-.47,0-4.36,3.54-7.9,7.9-7.9s7.9,3.54,7.9,7.9h-.1Zm-7.9-4.4c-2.42.02-4.38,1.98-4.4,4.4h0c.02,2.42,1.98,4.38,4.4,4.4,2.41.02,4.38-1.93,4.4-4.34,0-.02,0-.04,0-.06,0-2.44-1.96-4.44-4.4-4.5h0v.1Z"/><path class="cls-39" d="m300.09,329.1c-2.38.05-4.35-1.84-4.4-4.22,0-.06,0-.12,0-.18.02-2.42,1.98-4.38,4.4-4.4h0c.4.2.5.7.6,1.1.5,2.21.5,4.49,0,6.7-.01.44-.24.85-.6,1.1v-.1Z"/><path class="cls-13" d="m300.09,329.1c.4-.2.5-.7.6-1.1.5-2.21.5-4.49,0-6.7-.01-.44-.24-.85-.6-1.1,2.46,0,4.45,2,4.44,4.46,0,2.45-1.99,4.44-4.44,4.44h0Z"/><line class="cls-5" x1="195.17" y1="251.5" x2="195.17" y2="293.5"/><line class="cls-4" x1="195.17" y1="251.5" x2="195.17" y2="282.74"/><polygon class="cls-40" points="187.69 280.55 195.17 293.5 202.65 280.55 187.69 280.55"/><line class="cls-5" x1="152.66" y1="230.15" x2="118.97" y2="255.23"/><line class="cls-4" x1="152.66" y1="230.15" x2="127.6" y2="248.8"/><polygon class="cls-40" points="124.89 241.5 118.97 255.23 133.82 253.49 124.89 241.5"/><line class="cls-5" x1="144.4" y1="183.3" x2="104.16" y2="171.25"/><line class="cls-4" x1="144.4" y1="183.3" x2="114.47" y2="174.34"/><polygon class="cls-40" points="118.71 167.8 104.16 171.25 114.42 182.13 118.71 167.8"/><line class="cls-5" x1="177.04" y1="148.7" x2="162.68" y2="109.23"/><line class="cls-4" x1="177.04" y1="148.7" x2="166.36" y2="119.34"/><polygon class="cls-40" points="174.14 118.84 162.68 109.23 160.08 123.96 174.14 118.84"/><line class="cls-5" x1="224.29" y1="154.22" x2="247.37" y2="119.13"/><line class="cls-4" x1="224.29" y1="154.22" x2="241.46" y2="128.12"/><polygon class="cls-40" points="246.5 134.06 247.37 119.13 234.01 125.84 246.5 134.06"/><line class="cls-5" x1="248.08" y1="195.42" x2="290.01" y2="192.98"/><line class="cls-4" x1="248.08" y1="195.42" x2="279.26" y2="193.6"/><polygon class="cls-40" points="277.51 201.2 290.01 192.98 276.64 186.26 277.51 201.2"/><line class="cls-5" x1="229.24" y1="239.1" x2="256.24" y2="271.27"/><line class="cls-4" x1="229.24" y1="239.1" x2="249.32" y2="263.03"/><polygon class="cls-40" points="242.18 266.16 256.23 271.27 253.64 256.54 242.18 266.16"/><path class="cls-38" d="m303.12,66.65c.56,0,1.12.02,1.68.03.95,0,1.73.78,1.75,1.74.01.88,0,1.76,0,2.63,0,7.43,0,14.85,0,22.28,0,.48-.02.98-.16,1.44-.17.55-.85,1.05-1.43,1.05-6.29,0-12.58,0-18.86,0-.03,0-.06,0-.09-.01,0-1.71,0-3.42,0-5.13,1.31,0,2.62,0,3.93-.01.17,0,.36.04.36-.23.01-.65.06-1.31-.09-1.93-.41-1.67-.89-3.33-1.32-4.99-.12-.45-.24-.9-.4-1.33-.25-.68.22-1.04.63-1.42.68-.62.96-1.4,1.12-2.3.34-1.87-1.24-4.12-3.02-4.69-.06-.1-.14-.15-.25-.09-.09-.02-.18-.04-.27-.06-.04-.06-.09-.07-.16-.04-.17-.02-.35-.05-.52-.07,0-2.27,0-4.54,0-6.81,3.22,0,6.45-.01,9.67-.02.2,0,.4-.02.6-.02,1.15.04,2.31.05,3.46,0,1.13.06,2.26.05,3.39,0Z"/><path class="cls-17" d="m286,90.67c0,1.71,0,3.42,0,5.13-.65,0-1.29.01-1.94.01-5.48,0-10.97-.03-16.45.02-1.44.01-2.19-.77-2.18-2.19.05-8.39.03-16.78,0-25.17,0-1.01.81-1.81,1.77-1.79.56.01,1.12-.01,1.68-.02,1.13.03,2.26.06,3.39-.01,1.15.07,2.3.04,3.45.01.19,0,.37.02.56.02,3.24,0,6.48,0,9.71.01,0,2.27,0,4.54,0,6.81-.36.17-.77.09-1.15.24-1.6.62-2.66,1.7-3.04,3.41-.07.04-.12.08-.03.15-.13,1.41.02,2.7,1.28,3.63.4.29.55.74.39,1.29-.1.34-.23.67-.31,1.01-.22.94-.47,1.88-.72,2.81-.18.69-.4,1.37-.56,2.07-.16.69-.12,1.39-.15,2.09-.01.35.08.47.45.46,1.28-.02,2.56,0,3.84,0Z"/><path class="cls-29" d="m272.27,66.64c-1.13.07-2.26.04-3.39.01,0-3.05-.02-6.1.02-9.15.02-1.41.21-2.81.62-4.18.49-1.65,1.19-3.2,2.14-4.63,1.18-1.79,2.65-3.31,4.4-4.56,1.15-.82,2.36-1.55,3.68-2.01,1.32-.46,2.65-.91,4.07-1.01.8-.06,1.59-.18,2.39-.16,1.99.03,3.92.43,5.78,1.13,1.87.7,3.55,1.72,5.08,2.99,1.32,1.1,2.4,2.4,3.32,3.83.65,1.02,1.17,2.1,1.61,3.23.24.62.41,1.27.62,1.9.2.57.23,1.2.3,1.81.39,3.6.1,7.21.19,10.81-1.13.04-2.26.06-3.39,0,0-2.58-.02-5.15.01-7.73.02-1.48-.17-2.93-.53-4.36-.51-2.01-1.44-3.82-2.8-5.37-1.66-1.9-3.68-3.33-6.11-4.1-1.73-.55-3.48-.72-5.3-.61-1.68.1-3.26.5-4.76,1.2-2.5,1.16-4.46,2.94-5.92,5.29-1.26,2.02-1.94,4.24-2.03,6.59-.11,3.03-.02,6.07-.02,9.11Z"/><path class="cls-11" d="m296.27,66.65c0-2.73.02-5.47,0-8.2-.02-1.45-.22-2.89-.8-4.24-.46-1.07-1.08-2.04-1.85-2.94-1.14-1.33-2.57-2.25-4.18-2.83-1.49-.54-3.05-.72-4.65-.52-.98.12-1.93.35-2.81.73-2.46,1.07-4.27,2.83-5.38,5.29-.52,1.15-.73,2.36-.79,3.61-.15,3.03-.02,6.07-.07,9.1-1.15.02-2.3.05-3.45-.02,0-3.04-.09-6.08.02-9.11.09-2.34.77-4.57,2.03-6.59,1.46-2.34,3.42-4.12,5.92-5.29,1.5-.7,3.08-1.1,4.76-1.2,1.82-.11,3.57.07,5.3.61,2.44.77,4.45,2.2,6.11,4.1,1.36,1.55,2.29,3.36,2.8,5.37.36,1.43.55,2.88.53,4.36-.03,2.58-.01,5.15-.01,7.73-1.15.06-2.31.04-3.46,0Z"/><path class="cls-19" d="m286,90.67c-1.28,0-2.56-.02-3.84,0-.37,0-.46-.11-.45-.46.03-.7-.02-1.41.15-2.09.17-.69.38-1.38.56-2.07.25-.94.5-1.87.72-2.81.08-.34.21-.68.31-1.01.16-.55,0-.99-.39-1.29-1.26-.93-1.41-2.23-1.28-3.63.07-.04.07-.09.03-.15.38-1.7,1.44-2.78,3.04-3.41.38-.15.79-.06,1.15-.24.17.02.35.05.52.07.03.09.08.14.16.04.09.02.18.04.27.06.05.12.15.1.25.09,1.78.57,3.36,2.82,3.02,4.69-.16.9-.45,1.67-1.12,2.3-.41.38-.88.73-.63,1.42.16.43.29.88.4,1.33.43,1.67.91,3.32,1.32,4.99.15.62.1,1.28.09,1.93,0,.28-.19.23-.36.23-1.31,0-2.62,0-3.93.01Z"/><path class="cls-11" d="m287.2,73.77c-.1,0-.2.03-.25-.09.11-.05.19,0,.25.09Z"/><path class="cls-11" d="m286.68,73.62c-.08.1-.12.05-.16-.04.06-.04.12-.02.16.04Z"/><path class="cls-29" d="m281.81,77.14c.04.06.04.12-.03.15-.09-.07-.03-.12.03-.15Z"/><circle class="cls-2" cx="286.15" cy="70.98" r="44.02"/><path class="cls-38" d="m73.12,149.65c.56,0,1.12.02,1.68.03.95,0,1.73.78,1.75,1.74.01.88,0,1.76,0,2.63,0,7.43,0,14.85,0,22.28,0,.48-.02.98-.16,1.44-.17.55-.85,1.05-1.43,1.05-6.29,0-12.58,0-18.86,0-.03,0-.06,0-.09-.01,0-1.71,0-3.42,0-5.13,1.31,0,2.62,0,3.93-.01.17,0,.36.04.36-.23.01-.65.06-1.31-.09-1.93-.41-1.67-.89-3.33-1.32-4.99-.12-.45-.24-.9-.4-1.33-.25-.68.22-1.04.63-1.42.68-.62.96-1.4,1.12-2.3.34-1.87-1.24-4.12-3.02-4.69-.06-.1-.14-.15-.25-.09-.09-.02-.18-.04-.27-.06-.04-.06-.09-.07-.16-.04-.17-.02-.35-.05-.52-.07,0-2.27,0-4.54,0-6.81,3.22,0,6.45-.01,9.67-.02.2,0,.4-.02.6-.02,1.15.04,2.31.05,3.46,0,1.13.06,2.26.05,3.39,0Z"/><path class="cls-17" d="m56,173.67c0,1.71,0,3.42,0,5.13-.65,0-1.29.01-1.94.01-5.48,0-10.97-.03-16.45.02-1.44.01-2.19-.77-2.18-2.19.05-8.39.03-16.78,0-25.17,0-1.01.81-1.81,1.77-1.79.56.01,1.12-.01,1.68-.02,1.13.03,2.26.06,3.39-.01,1.15.07,2.3.04,3.45.01.19,0,.37.02.56.02,3.24,0,6.48,0,9.71.01,0,2.27,0,4.54,0,6.81-.36.17-.77.09-1.15.24-1.6.62-2.66,1.7-3.04,3.41-.07.04-.12.08-.03.15-.13,1.41.02,2.7,1.28,3.63.4.29.55.74.39,1.29-.1.34-.23.67-.31,1.01-.22.94-.47,1.88-.72,2.81-.18.69-.4,1.37-.56,2.07-.16.69-.12,1.39-.15,2.09-.01.35.08.47.45.46,1.28-.02,2.56,0,3.84,0Z"/><path class="cls-29" d="m42.27,149.64c-1.13.07-2.26.04-3.39.01,0-3.05-.02-6.1.02-9.15.02-1.41.21-2.81.62-4.18.49-1.65,1.19-3.2,2.14-4.63,1.18-1.79,2.65-3.31,4.4-4.56,1.15-.82,2.36-1.55,3.68-2.01,1.32-.46,2.65-.91,4.07-1.01.8-.06,1.59-.18,2.39-.16,1.99.03,3.92.43,5.78,1.13,1.87.7,3.55,1.72,5.08,2.99,1.32,1.1,2.4,2.4,3.32,3.83.65,1.02,1.17,2.1,1.61,3.23.24.62.41,1.27.62,1.9.2.57.23,1.2.3,1.81.39,3.6.1,7.21.19,10.81-1.13.04-2.26.06-3.39,0,0-2.58-.02-5.15.01-7.73.02-1.48-.17-2.93-.53-4.36-.51-2.01-1.44-3.82-2.8-5.37-1.66-1.9-3.68-3.33-6.11-4.1-1.73-.55-3.48-.72-5.3-.61-1.68.1-3.26.5-4.76,1.2-2.5,1.16-4.46,2.94-5.92,5.29-1.26,2.02-1.94,4.24-2.03,6.59-.11,3.03-.02,6.07-.02,9.11Z"/><path class="cls-11" d="m66.27,149.65c0-2.73.02-5.47,0-8.2-.02-1.45-.22-2.89-.8-4.24-.46-1.07-1.08-2.04-1.85-2.94-1.14-1.33-2.57-2.25-4.18-2.83-1.49-.54-3.05-.72-4.65-.52-.98.12-1.93.35-2.81.73-2.46,1.07-4.27,2.83-5.38,5.29-.52,1.15-.73,2.36-.79,3.61-.15,3.03-.02,6.07-.07,9.1-1.15.02-2.3.05-3.45-.02,0-3.04-.09-6.08.02-9.11.09-2.34.77-4.57,2.03-6.59,1.46-2.34,3.42-4.12,5.92-5.29,1.5-.7,3.08-1.1,4.76-1.2,1.82-.11,3.57.07,5.3.61,2.44.77,4.45,2.2,6.11,4.1,1.36,1.55,2.29,3.36,2.8,5.37.36,1.43.55,2.88.53,4.36-.03,2.58-.01,5.15-.01,7.73-1.15.06-2.31.04-3.46,0Z"/><path class="cls-19" d="m56,173.67c-1.28,0-2.56-.02-3.84,0-.37,0-.46-.11-.45-.46.03-.7-.02-1.41.15-2.09.17-.69.38-1.38.56-2.07.25-.94.5-1.87.72-2.81.08-.34.21-.68.31-1.01.16-.55,0-.99-.39-1.29-1.26-.93-1.41-2.23-1.28-3.63.07-.04.07-.09.03-.15.38-1.7,1.44-2.78,3.04-3.41.38-.15.79-.06,1.15-.24.17.02.35.05.52.07.03.09.08.14.16.04.09.02.18.04.27.06.05.12.15.1.25.09,1.78.57,3.36,2.82,3.02,4.69-.16.9-.45,1.67-1.12,2.3-.41.38-.88.73-.63,1.42.16.43.29.88.4,1.33.43,1.67.91,3.32,1.32,4.99.15.62.1,1.28.09,1.93,0,.28-.19.23-.36.23-1.31,0-2.62,0-3.93.01Z"/><path class="cls-11" d="m57.2,156.77c-.1,0-.2.03-.25-.09.11-.05.19,0,.25.09Z"/><path class="cls-11" d="m56.68,156.62c-.08.1-.12.05-.16-.04.06-.04.12-.02.16.04Z"/><path class="cls-29" d="m51.81,160.14c.04.06.04.12-.03.15-.09-.07-.03-.12.03-.15Z"/><circle class="cls-2" cx="56.15" cy="153.98" r="44.02"/><path class="cls-38" d="m206.12,343.78c.56,0,1.12.02,1.68.03.95,0,1.73.78,1.75,1.74.01.88,0,1.76,0,2.63,0,7.43,0,14.85,0,22.28,0,.48-.02.98-.16,1.44-.17.55-.85,1.05-1.43,1.05-6.29,0-12.58,0-18.86,0-.03,0-.06,0-.09-.01,0-1.71,0-3.42,0-5.13,1.31,0,2.62,0,3.93-.01.17,0,.36.04.36-.23.01-.65.06-1.31-.09-1.93-.41-1.67-.89-3.33-1.32-4.99-.12-.45-.24-.9-.4-1.33-.25-.68.22-1.04.63-1.42.68-.62.96-1.4,1.12-2.3.34-1.87-1.24-4.12-3.02-4.69-.06-.1-.14-.15-.25-.09-.09-.02-.18-.04-.27-.06-.04-.06-.09-.07-.16-.04-.17-.02-.35-.05-.52-.07,0-2.27,0-4.54,0-6.81,3.22,0,6.45-.01,9.67-.02.2,0,.4-.02.6-.02,1.15.04,2.31.05,3.46,0,1.13.06,2.26.05,3.39,0Z"/><path class="cls-17" d="m189,367.8c0,1.71,0,3.42,0,5.13-.65,0-1.29.01-1.94.01-5.48,0-10.97-.03-16.45.02-1.44.01-2.19-.77-2.18-2.19.05-8.39.03-16.78,0-25.17,0-1.01.81-1.81,1.77-1.79.56.01,1.12-.01,1.68-.02,1.13.03,2.26.06,3.39-.01,1.15.07,2.3.04,3.45.01.19,0,.37.02.56.02,3.24,0,6.48,0,9.71.01,0,2.27,0,4.54,0,6.81-.36.17-.77.09-1.15.24-1.6.62-2.66,1.7-3.04,3.41-.07.04-.12.08-.03.15-.13,1.41.02,2.7,1.28,3.63.4.29.55.74.39,1.29-.1.34-.23.67-.31,1.01-.22.94-.47,1.88-.72,2.81-.18.69-.4,1.37-.56,2.07-.16.69-.12,1.39-.15,2.09-.01.35.08.47.45.46,1.28-.02,2.56,0,3.84,0Z"/><path class="cls-29" d="m175.27,343.77c-1.13.07-2.26.04-3.39.01,0-3.05-.02-6.1.02-9.15.02-1.41.21-2.81.62-4.18.49-1.65,1.19-3.2,2.14-4.63,1.18-1.79,2.65-3.31,4.4-4.56,1.15-.82,2.36-1.55,3.68-2.01,1.32-.46,2.65-.91,4.07-1.01.8-.06,1.59-.18,2.39-.16,1.99.03,3.92.43,5.78,1.13,1.87.7,3.55,1.72,5.08,2.99,1.32,1.1,2.4,2.4,3.32,3.83.65,1.02,1.17,2.1,1.61,3.23.24.62.41,1.27.62,1.9.2.57.23,1.2.3,1.81.39,3.6.1,7.21.19,10.81-1.13.04-2.26.06-3.39,0,0-2.58-.02-5.15.01-7.73.02-1.48-.17-2.93-.53-4.36-.51-2.01-1.44-3.82-2.8-5.37-1.66-1.9-3.68-3.33-6.11-4.1-1.73-.55-3.48-.72-5.3-.61-1.68.1-3.26.5-4.76,1.2-2.5,1.16-4.46,2.94-5.92,5.29-1.26,2.02-1.94,4.24-2.03,6.59-.11,3.03-.02,6.07-.02,9.11Z"/><path class="cls-11" d="m199.27,343.78c0-2.73.02-5.47,0-8.2-.02-1.45-.22-2.89-.8-4.24-.46-1.07-1.08-2.04-1.85-2.94-1.14-1.33-2.57-2.25-4.18-2.83-1.49-.54-3.05-.72-4.65-.52-.98.12-1.93.35-2.81.73-2.46,1.07-4.27,2.83-5.38,5.29-.52,1.15-.73,2.36-.79,3.61-.15,3.03-.02,6.07-.07,9.1-1.15.02-2.3.05-3.45-.02,0-3.04-.09-6.08.02-9.11.09-2.34.77-4.57,2.03-6.59,1.46-2.34,3.42-4.12,5.92-5.29,1.5-.7,3.08-1.1,4.76-1.2,1.82-.11,3.57.07,5.3.61,2.44.77,4.45,2.2,6.11,4.1,1.36,1.55,2.29,3.36,2.8,5.37.36,1.43.55,2.88.53,4.36-.03,2.58-.01,5.15-.01,7.73-1.15.06-2.31.04-3.46,0Z"/><path class="cls-19" d="m189,367.8c-1.28,0-2.56-.02-3.84,0-.37,0-.46-.11-.45-.46.03-.7-.02-1.41.15-2.09.17-.69.38-1.38.56-2.07.25-.94.5-1.87.72-2.81.08-.34.21-.68.31-1.01.16-.55,0-.99-.39-1.29-1.26-.93-1.41-2.23-1.28-3.63.07-.04.07-.09.03-.15.38-1.7,1.44-2.78,3.04-3.41.38-.15.79-.06,1.15-.24.17.02.35.05.52.07.03.09.08.14.16.04.09.02.18.04.27.06.05.12.15.1.25.09,1.78.57,3.36,2.82,3.02,4.69-.16.9-.45,1.67-1.12,2.3-.41.38-.88.73-.63,1.42.16.43.29.88.4,1.33.43,1.67.91,3.32,1.32,4.99.15.62.1,1.28.09,1.93,0,.28-.19.23-.36.23-1.31,0-2.62,0-3.93.01Z"/><path class="cls-11" d="m190.2,350.9c-.1,0-.2.03-.25-.09.11-.05.19,0,.25.09Z"/><path class="cls-11" d="m189.68,350.75c-.08.1-.12.05-.16-.04.06-.04.12-.02.16.04Z"/><path class="cls-29" d="m184.81,354.27c.04.06.04.12-.03.15-.09-.07-.03-.12.03-.15Z"/><circle class="cls-2" cx="189.15" cy="348.11" r="44.02"/><path class="cls-38" d="m362.12,187.78c.56,0,1.12.02,1.68.03.95,0,1.73.78,1.75,1.74.01.88,0,1.76,0,2.63,0,7.43,0,14.85,0,22.28,0,.48-.02.98-.16,1.44-.17.55-.85,1.05-1.43,1.05-6.29,0-12.58,0-18.86,0-.03,0-.06,0-.09-.01,0-1.71,0-3.42,0-5.13,1.31,0,2.62,0,3.93-.01.17,0,.36.04.36-.23.01-.65.06-1.31-.09-1.93-.41-1.67-.89-3.33-1.32-4.99-.12-.45-.24-.9-.4-1.33-.25-.68.22-1.04.63-1.42.68-.62.96-1.4,1.12-2.3.34-1.87-1.24-4.12-3.02-4.69-.06-.1-.14-.15-.25-.09-.09-.02-.18-.04-.27-.06-.04-.06-.09-.07-.16-.04-.17-.02-.35-.05-.52-.07,0-2.27,0-4.54,0-6.81,3.22,0,6.45-.01,9.67-.02.2,0,.4-.02.6-.02,1.15.04,2.31.05,3.46,0,1.13.06,2.26.05,3.39,0Z"/><path class="cls-17" d="m345,211.8c0,1.71,0,3.42,0,5.13-.65,0-1.29.01-1.94.01-5.48,0-10.97-.03-16.45.02-1.44.01-2.19-.77-2.18-2.19.05-8.39.03-16.78,0-25.17,0-1.01.81-1.81,1.77-1.79.56.01,1.12-.01,1.68-.02,1.13.03,2.26.06,3.39-.01,1.15.07,2.3.04,3.45.01.19,0,.37.02.56.02,3.24,0,6.48,0,9.71.01,0,2.27,0,4.54,0,6.81-.36.17-.77.09-1.15.24-1.6.62-2.66,1.7-3.04,3.41-.07.04-.12.08-.03.15-.13,1.41.02,2.7,1.28,3.63.4.29.55.74.39,1.29-.1.34-.23.67-.31,1.01-.22.94-.47,1.88-.72,2.81-.18.69-.4,1.37-.56,2.07-.16.69-.12,1.39-.15,2.09-.01.35.08.47.45.46,1.28-.02,2.56,0,3.84,0Z"/><path class="cls-29" d="m331.27,187.77c-1.13.07-2.26.04-3.39.01,0-3.05-.02-6.1.02-9.15.02-1.41.21-2.81.62-4.18.49-1.65,1.19-3.2,2.14-4.63,1.18-1.79,2.65-3.31,4.4-4.56,1.15-.82,2.36-1.55,3.68-2.01,1.32-.46,2.65-.91,4.07-1.01.8-.06,1.59-.18,2.39-.16,1.99.03,3.92.43,5.78,1.13,1.87.7,3.55,1.72,5.08,2.99,1.32,1.1,2.4,2.4,3.32,3.83.65,1.02,1.17,2.1,1.61,3.23.24.62.41,1.27.62,1.9.2.57.23,1.2.3,1.81.39,3.6.1,7.21.19,10.81-1.13.04-2.26.06-3.39,0,0-2.58-.02-5.15.01-7.73.02-1.48-.17-2.93-.53-4.36-.51-2.01-1.44-3.82-2.8-5.37-1.66-1.9-3.68-3.33-6.11-4.1-1.73-.55-3.48-.72-5.3-.61-1.68.1-3.26.5-4.76,1.2-2.5,1.16-4.46,2.94-5.92,5.29-1.26,2.02-1.94,4.24-2.03,6.59-.11,3.03-.02,6.07-.02,9.11Z"/><path class="cls-11" d="m355.27,187.78c0-2.73.02-5.47,0-8.2-.02-1.45-.22-2.89-.8-4.24-.46-1.07-1.08-2.04-1.85-2.94-1.14-1.33-2.57-2.25-4.18-2.83-1.49-.54-3.05-.72-4.65-.52-.98.12-1.93.35-2.81.73-2.46,1.07-4.27,2.83-5.38,5.29-.52,1.15-.73,2.36-.79,3.61-.15,3.03-.02,6.07-.07,9.1-1.15.02-2.3.05-3.45-.02,0-3.04-.09-6.08.02-9.11.09-2.34.77-4.57,2.03-6.59,1.46-2.34,3.42-4.12,5.92-5.29,1.5-.7,3.08-1.1,4.76-1.2,1.82-.11,3.57.07,5.3.61,2.44.77,4.45,2.2,6.11,4.1,1.36,1.55,2.29,3.36,2.8,5.37.36,1.43.55,2.88.53,4.36-.03,2.58-.01,5.15-.01,7.73-1.15.06-2.31.04-3.46,0Z"/><path class="cls-19" d="m345,211.8c-1.28,0-2.56-.02-3.84,0-.37,0-.46-.11-.45-.46.03-.7-.02-1.41.15-2.09.17-.69.38-1.38.56-2.07.25-.94.5-1.87.72-2.81.08-.34.21-.68.31-1.01.16-.55,0-.99-.39-1.29-1.26-.93-1.41-2.23-1.28-3.63.07-.04.07-.09.03-.15.38-1.7,1.44-2.78,3.04-3.41.38-.15.79-.06,1.15-.24.17.02.35.05.52.07.03.09.08.14.16.04.09.02.18.04.27.06.05.12.15.1.25.09,1.78.57,3.36,2.82,3.02,4.69-.16.9-.45,1.67-1.12,2.3-.41.38-.88.73-.63,1.42.16.43.29.88.4,1.33.43,1.67.91,3.32,1.32,4.99.15.62.1,1.28.09,1.93,0,.28-.19.23-.36.23-1.31,0-2.62,0-3.93.01Z"/><path class="cls-11" d="m346.2,194.9c-.1,0-.2.03-.25-.09.11-.05.19,0,.25.09Z"/><path class="cls-11" d="m345.68,194.75c-.08.1-.12.05-.16-.04.06-.04.12-.02.16.04Z"/><path class="cls-29" d="m340.81,198.27c.04.06.04.12-.03.15-.09-.07-.03-.12.03-.15Z"/><circle class="cls-2" cx="345.15" cy="192.11" r="44.02"/><circle class="cls-3" cx="65.58" cy="284.15" r="45.42"/><path class="cls-21" d="m77.49,264.37c.22.29.49.53.81.71,1.18,1.09,1.84,2.63,1.82,4.24v45.73c0,3.63-1.82,5.75-5.55,6.06-6.05.5-12.12.5-18.17,0-2.98-.08-5.34-2.56-5.26-5.54,0-.07,0-.14,0-.22v-46.03c-.16-3.01,2.14-5.59,5.16-5.75.03,0,.06,0,.09,0,5.31-.37,10.63-.44,15.95-.2.37-.02.75.02,1.11.1,1.41-.02,2.81.22,4.14.71l-.1.2Zm-11,6.66h-11.2c-.71,0-.91.2-.91.91v11.61c0,3.84,0,2.42,2.42,2.32h19.28c.61,0,.71-.2.71-.71v-13.35c0-.5-.1-.81-.71-.81h-9.59v.03Zm2.12,29.78c-2.32,0-2.12,0-2.12,2.22,0,.71.3,1.01,1.01,1.01h1.62c1.31,0,1.41,0,1.41-1.31,0-2.22.2-1.92-1.92-1.92Zm-5.96,0h-1.11c-.61,0-1.01.2-.81.81.2.81-.71,2.12.81,2.42.77.1,1.55.1,2.32,0,.44.02.82-.28.91-.71.5-1.92,0-2.52-1.92-2.52h-.2Zm0-4.74c-2.22,0-1.92-.2-2.02,2.02v.3c0,.71.3,1.01.91,1.01h2.32c.4-.02.74-.31.81-.71.5-1.92,0-2.52-1.92-2.52h0l-.1-.1Zm6.06,0h-1.31c-.5,0-.81.2-.81.71,0,2.32-.2,2.62,2.12,2.52h.5c1.31,0,1.41-.2,1.41-1.41,0-2.12.2-1.92-1.92-1.92h0v.1Zm-.1,12.82h1.01c.5,0,1.01-.1,1.01-.71,0-.81.5-1.82-.4-2.52h-2.83c-.38-.03-.73.23-.81.61-.5,1.92,0,2.62,2.02,2.62h0Zm-5.85,0h1.01c.61,0,1.01-.2,1.01-.81,0-.81.5-1.82-.4-2.42h-2.83c-.34,0-.66.2-.81.5-.61,1.82,0,2.73,1.92,2.73h.1Zm0-17.56h-.91c-.71,0-1.01.2-1.01,1.01q0,2.32,2.32,2.32h.81c.47.01.87-.34.91-.81.4-2.02,0-2.52-2.02-2.52h-.1Zm6.06,0h-1.31c-.5,0-.81.2-.81.81,0,2.32-.2,2.62,2.12,2.52h.5c1.31,0,1.41-.2,1.41-1.41,0-2.12.2-1.92-1.92-1.92h0Zm-11.91,17.56h.81c.91,0,1.21-.3,1.11-1.21,0-2.42.3-2.12-2.12-2.12h-.4c-1.31,0-1.41,0-1.31,1.31,0,1.82-.4,2.02,1.92,1.92v.1Zm17.77-3.33h-.81c-.81-.1-1.11.2-1.11,1.11,0,2.32-.4,2.22,2.22,2.22h.4q1.31,0,1.31-1.31c0-2.22.2-1.92-1.92-1.92h0l-.1-.1Zm0-4.74h-1.01c-.71,0-.91.3-.91,1.01,0,2.42-.4,2.32,2.32,2.32h.3c1.21,0,1.31-.1,1.31-1.31,0-2.22.2-2.02-1.92-2.02h-.1Zm-17.66,0h-.89c-.81,0-1.11.2-1.11,1.11,0,2.32-.4,2.22,2.22,2.22h.4c1.21,0,1.31-.1,1.31-1.41,0-2.12.2-1.92-1.92-1.92h-.02Zm0-4.74h-.89c-.81,0-1.11.2-1.01,1.01,0,2.32-.2,2.32,2.22,2.22h.3c1.31,0,1.41,0,1.41-1.41,0-2.12.2-1.92-1.92-1.92l-.12.1Zm17.77-4.74h-1.01c-.71,0-.91.3-.91,1.01,0,2.42-.2,2.32,2.32,2.32h.3c1.21,0,1.31-.1,1.31-1.31,0-2.22.2-1.92-1.92-2.02h-.1Zm0,4.74c-2.22,0-1.92-.3-2.02,2.02v.2c0,.81.3,1.11,1.11,1.11h1.43c1.21,0,1.31-.1,1.31-1.41,0-2.12.2-1.92-1.92-1.92h.08Zm-17.77-4.74h-1.01c-.71,0-.91.3-.91,1.01,0,2.42-.2,2.32,2.32,2.32h.3c1.21,0,1.31-.1,1.31-1.31,0-2.22.2-1.92-1.92-2.02h-.1Zm10.8-23.12c.4,0,.71-.1.61-.61s-.2-.5-.61-.5-.71.1-.61.61.2.5.61.5Zm2.52-.5c0-.4-.2-.5-.61-.5s-.71,0-.71.5.2.5.61.5.71-.1.71-.5Zm-5.85,49.16c.04-.29-.16-.56-.45-.61-.05,0-.1,0-.15,0-.4,0-.5.3-.5.61s.2.61.5.61c.3-.03.53-.3.5-.61h.1Zm-2.12-49.66c-.32,0-.6.2-.71.5-.01.32.24.59.56.61.01,0,.03,0,.04,0,.3,0,.5-.1.5-.4h0c0-.4-.1-.61-.5-.61l.1-.1Zm2.32.5c0-.4-.2-.5-.61-.5-.28-.06-.55.12-.61.4-.06.28.12.55.4.61.07.01.14.01.2,0,.4,0,.5-.2.5-.5h.1Zm-.2,45.02c0-.4-.3-.5-.61-.5-.26-.02-.49.18-.5.44,0,.02,0,.04,0,.06,0,.4.2.61.5.61s.5-.2.5-.61h.1Zm4.04-.1c0-.2-.1-.4-.5-.4s-.61.1-.61.5.2.61.5.61.5-.2.5-.71h.1Zm-.4,4.74c.3,0,.4-.2.4-.5.02-.31-.2-.57-.5-.61-.26-.03-.49.16-.52.42,0,.06,0,.12.02.18.1.4.2.5.71.5h-.1Zm-1.62-49.66c0-.4-.3-.5-.61-.5s-.5.2-.4.61.3.5.61.5c.3-.03.53-.3.5-.61h-.1Zm-.5,44.72c.26.02.49-.18.5-.44,0-.02,0-.04,0-.06,0-.4-.2-.61-.61-.5s-.5.2-.5.61c.03.3.3.53.61.5h0v-.1Zm-3.03,2.93c.3,0,.5-.1.61-.5s-.1-.61-.5-.61-.5.1-.61.5.1.61.5.61h0Zm5.75-1.11c-.25,0-.44.21-.43.45,0,.05.01.1.03.15,0,.3.2.5.61.4s.5-.3.5-.61c-.03-.3-.3-.53-.61-.5l-.1.1Zm-2.83,4.04c.26.02.49-.18.5-.44,0-.02,0-.04,0-.06,0-.4-.2-.61-.5-.61-.26-.02-.49.18-.5.44,0,.02,0,.04,0,.06,0,.4.2.58.5.58v.03Zm-.61-3.13c0-.3-.1-.5-.5-.5-.26-.02-.49.18-.5.44,0,.02,0,.04,0,.06,0,.3.1.61.4.61.29,0,.54-.22.61-.5h0v-.1Zm.81.4c-.26-.02-.49.18-.5.44,0,.02,0,.04,0,.06.03.3.3.53.61.5h0c.3,0,.4-.3.4-.5.02-.26-.18-.49-.44-.5-.02,0-.04,0-.06,0Zm0-1.92c.02-.25-.15-.47-.4-.5-.29,0-.54.22-.61.5,0,.2.1.5.4.5h0c.3,0,.4-.3.5-.5h.1Zm1.01,1.31c.22-.01.39-.19.4-.4,0-.2,0-.4-.3-.5h-.1c-.3,0-.4.2-.5.4s0,.4.4.4l.1.1Z"/><path class="cls-33" d="m69.23,271.03h6.86c.61,0,.71.2.71.81v13.32c0,.5-.1.71-.71.71h-15.44c.02-.21.09-.42.2-.61,1.92-3.13,3.73-6.26,5.65-9.39,1.01-1.56,1.92-3.18,2.73-4.85Z"/><path class="cls-33" d="m56.79,285.77c-1.62,0-2.42-.77-2.42-2.32v-11.64c0-.71.2-.91.91-.91h10.09c-.71,1.47-1.52,2.88-2.42,4.24-2.02,3.53-4.14,6.97-6.16,10.5v.13Z"/><path class="cls-28" d="m69.23,271.03c-.81,1.67-1.72,3.29-2.73,4.85-1.82,3.13-3.73,6.26-5.65,9.39,0,.2-.2.4-.2.61h-1.62c.02-.21.09-.42.2-.61,1.62-2.62,3.23-5.35,4.74-7.97,1.21-2.12,2.52-4.04,3.63-6.26h1.62Z"/><path class="cls-9" d="m67.59,271.03c-1.11,2.12-2.42,4.14-3.63,6.26-1.62,2.73-3.23,5.35-4.74,7.97,0,.2-.2.4-.2.61h-1.11c.46-1.18,1.07-2.3,1.82-3.33,2.22-3.84,4.54-7.67,6.76-11.41h1.11v-.1Z"/><path class="cls-22" d="m66.48,271.03c-2.22,3.84-4.54,7.57-6.76,11.41-.74,1.03-1.35,2.15-1.82,3.33h-1.11c2.12-3.43,4.14-6.97,6.16-10.5.9-1.36,1.71-2.77,2.42-4.24h1.11Z"/><path class="cls-31" d="m68.6,300.81c2.22,0,1.92-.2,1.92,1.92,0,1.21,0,1.31-1.41,1.31h-1.62c-.5.06-.95-.3-1.01-.79,0-.07,0-.14,0-.21,0-2.32-.2-2.32,2.12-2.22Z"/><path class="cls-31" d="m62.55,300.81h0c1.92,0,2.42.61,1.92,2.52-.05.44-.45.76-.9.71,0,0,0,0-.01,0-.77.05-1.55.05-2.32,0-1.51-.3-.61-1.62-.81-2.42-.1-.61.2-.91.81-.81h1.31Z"/><path class="cls-31" d="m62.55,296.04h0c1.92,0,2.42.61,1.92,2.52-.07.4-.41.69-.81.71h-2.32c-.61,0-1.01-.3-.91-1.01v-.3c0-2.22-.3-2.02,2.02-2.02l.1.1Z"/><path class="cls-31" d="m68.6,296.04c2.12,0,1.92-.2,1.92,1.92,0,1.21-.2,1.41-1.41,1.41h-.5c-2.42,0-2.12-.2-2.12-2.52,0-.5.3-.71.81-.71h1.31v-.1Z"/><path class="cls-31" d="m68.5,308.89c-1.92,0-2.52-.71-2.02-2.62.08-.38.42-.63.81-.61h2.83c.91.71.4,1.72.4,2.52,0,.61-.5.71-1.01.71h-1.01Z"/><path class="cls-31" d="m62.55,308.89c-1.82,0-2.52-1.01-1.92-2.73.07-.35.4-.58.75-.52.02,0,.04,0,.05.01h2.83c.91.71.4,1.62.4,2.42,0,.5-.4.81-1.01.81h-1.11Z"/><path class="cls-31" d="m62.55,291.22h0c2.02,0,2.42.5,2.02,2.52,0,.5-.4.71-.91.81h-.81q-2.32,0-2.32-2.32c0-2.32.3-1.11,1.01-1.01h1.01Z"/><path class="cls-31" d="m68.6,291.22c2.12,0,1.92-.2,1.92,1.92,0,1.21-.2,1.41-1.41,1.41h-.5c-2.42,0-2.12-.2-2.12-2.52,0-.5.3-.71.81-.81h1.31Z"/><path class="cls-31" d="m56.69,308.89c-2.32,0-1.92-.1-1.92-1.92q0-1.31,1.31-1.31h.4c2.42,0,2.12-.3,2.12,2.12,0,.91-.3,1.21-1.11,1.21h-.81v-.1Z"/><path class="cls-31" d="m74.46,305.55c2.22,0,1.92-.2,1.92,1.92q0,1.31-1.31,1.31h-.4c-2.62,0-2.12,0-2.22-2.22,0-.81.3-1.21,1.11-1.11h.81l.1.1Z"/><path class="cls-31" d="m74.46,300.81c2.12,0,1.92-.2,1.92,2.02,0,1.21-.1,1.31-1.31,1.31h-.3c-2.73,0-2.22.1-2.32-2.32,0-.71.2-1.01.91-1.01h1.11Z"/><path class="cls-31" d="m56.69,300.81c2.12,0,1.82-.2,1.92,1.92,0,1.21,0,1.41-1.31,1.41h-.4c-2.62,0-2.12,0-2.22-2.22,0-.81.3-1.21,1.11-1.11h.91Z"/><path class="cls-31" d="m56.69,296.04c2.12,0,1.92-.2,1.92,1.92,0,1.31,0,1.41-1.41,1.41h-.3c-2.42,0-2.12,0-2.22-2.22,0-.81.2-1.11,1.01-1.01h.91l.1-.1Z"/><path class="cls-31" d="m74.46,291.22c2.12,0,1.92-.2,1.92,2.02,0,1.21-.1,1.31-1.31,1.31h-.3c-2.52,0-2.22.1-2.32-2.32,0-.71.2-1.01.91-1.01h1.11Z"/><path class="cls-31" d="m74.46,296.04c2.12,0,1.92-.2,1.92,1.92,0,1.31-.1,1.41-1.31,1.41h-1.41c-.81,0-1.11-.3-1.11-1.11v-.2c0-2.22-.3-2.02,2.02-2.02h-.1Z"/><path class="cls-31" d="m56.69,291.22c2.12,0,1.92-.2,1.92,1.92,0,1.21-.1,1.31-1.31,1.31h-.3c-2.52,0-2.32.1-2.32-2.32,0-.71.2-1.01.91-1.01h1.01l.1.1Z"/><path class="cls-34" d="m67.49,268.21c-.3,0-.61-.1-.61-.5-.01-.32.24-.59.56-.61.01,0,.03,0,.04,0,.3,0,.61.1.61.5.01.32-.24.59-.56.61-.01,0-.03,0-.04,0Z"/><path class="cls-34" d="m69.92,267.7c0,.4-.3.5-.71.5s-.61-.2-.61-.5.3-.5.71-.5.61.2.61.5Z"/><path class="cls-37" d="m64.06,316.76c.02.31-.2.57-.5.61-.26.03-.49-.16-.52-.42,0-.06,0-.12.02-.18,0-.3.1-.61.5-.61.29-.04.56.16.61.45,0,.05,0,.1,0,.15h-.1Z"/><path class="cls-34" d="m61.94,267.1c.4,0,.5.2.5.61.02.26-.18.49-.44.5-.02,0-.04,0-.06,0h0c-.4,0-.71-.2-.61-.61s.3-.5.71-.5h-.1Z"/><path class="cls-34" d="m64.26,267.6c0,.4-.2.61-.5.5-.28.06-.55-.12-.61-.4-.06-.28.12-.55.4-.61.07-.01.14-.01.2,0,.3,0,.61.1.61.5h-.1Z"/><path class="cls-34" d="m64.06,312.62c0,.4-.2.61-.5.61s-.5-.2-.5-.61.1-.5.5-.5.61.1.61.5h-.1Z"/><path class="cls-34" d="m68.1,312.52c0,.5-.2.71-.5.71s-.5-.2-.5-.61.3-.5.61-.5c.25-.02.47.15.5.4h-.1Z"/><path class="cls-34" d="m67.7,317.23c-.4,0-.71-.1-.71-.5s.2-.61.5-.61.5.2.5.61-.1.5-.4.5h.1Z"/><path class="cls-34" d="m66.08,267.6c.03.27-.14.53-.4.61-.3,0-.61-.1-.61-.5-.03-.27.14-.53.4-.61.4,0,.61.1.61.5Z"/><path class="cls-34" d="m65.58,312.32c-.3,0-.5-.1-.61-.5s.1-.61.5-.61.61.2.61.5c.02.26-.18.49-.44.5-.02,0-.04,0-.06,0v.1Z"/><path class="cls-34" d="m62.65,315.21c-.4,0-.5-.2-.5-.61s.2-.5.61-.5.5.2.5.61-.2.5-.61.5Z"/><path class="cls-34" d="m68.4,314.13c.4,0,.61.1.61.4s-.1.61-.5.61c-.27.03-.53-.14-.61-.4,0-.4.1-.61.4-.61h.1Z"/><path class="cls-34" d="m65.58,310.1c-.22-.01-.39-.19-.4-.4,0-.2.1-.3.4-.3.21-.02.39.14.4.34,0,.02,0,.04,0,.06,0,.2-.1.3-.4.3Z"/><path class="cls-37" d="m64.97,315.04c-.06.29-.31.5-.61.5-.3,0-.5-.2-.4-.61s.2-.5.5-.5.4.3.5.5v.1Z"/><path class="cls-37" d="m65.78,315.45c.26-.02.49.18.5.44,0,.02,0,.04,0,.06,0,.3,0,.5-.4.5s-.61-.1-.61-.4h0c0-.3.2-.4.5-.5v-.1Z"/><path class="cls-37" d="m65.68,313.63c-.02.27-.23.49-.5.5-.25.02-.47-.15-.5-.4h0c.03-.3.3-.53.61-.5.3,0,.4.2.4.5v-.1Z"/><path class="cls-34" d="m66.79,314.84c-.4,0-.5-.2-.4-.4s.2-.5.5-.4c.22.01.39.19.4.4v.1c-.01.22-.19.39-.4.4l-.1-.1Z"/><path d="m33.08,278.81c2.66-.25,5.03,1.71,5.28,4.37,0,.03,0,.07,0,.1l.21,3.97-9.87.62-.21-3.97c-.18-2.62,1.8-4.9,4.42-5.08.05,0,.11,0,.16,0Zm.18,2.15c-1.39-.06-2.56,1.01-2.62,2.4,0,.12,0,.24.01.36l.09,1.73,5.54-.41-.09-1.73c-.06-1.45-1.28-2.57-2.73-2.52-.08,0-.15,0-.23.02l.03.14Z"/><path d="m29.59,276.58c-.71-.13-1.19-.81-1.06-1.52.13-.71.81-1.19,1.52-1.06.71.13,1.19.81,1.06,1.52h0c-.11.7-.78,1.18-1.48,1.07-.01,0-.03,0-.04,0Zm1.85.11l.36-2.05,6.91,1.19-.36,2.05-6.91-1.19Z"/><path d="m38.87,268.86c1.58.53,1.77,2.1,1.21,3.53-.34,1.2-1.33,2.1-2.56,2.31l-.37-2.04c.54.07,1.04-.29,1.13-.83.19-.48.13-.76-.18-.84-.79-.27-1.51,3.11-3.79,2.36-1.44-.56-1.74-1.96-1.26-3.45.32-1.08,1.21-1.89,2.31-2.11l.29,1.98c-.42.04-.79.32-.94.72-.16.21-.11.51.1.66.02.01.03.02.05.03.79.27,1.43-3.16,3.88-2.31l.14-.03Z"/><path d="m42.45,260.84c1.67,1.01,2.21,3.18,1.2,4.85-.02.03-.04.06-.05.09-.44.67-1.12,1.14-1.91,1.29l2.97,1.91-1.2,1.87-8.16-5.6,1.14-1.78.59.38c-.15-.77.01-1.57.47-2.22,1.14-1.55,3.33-1.87,4.87-.73.03.03.07.05.1.08l-.03-.14Zm-1.14,1.78c-.76-.56-1.83-.4-2.39.36,0,0-.01.01-.02.02-.54.68-.42,1.66.26,2.2.06.04.11.08.17.12.76.56,1.83.4,2.39-.36,0,0,.01-.01.02-.02.56-.62.5-1.58-.12-2.14-.09-.08-.19-.15-.29-.2l-.02.03Z"/><path d="m39.04,254.94l1.52-1.43,7.05,7.52-1.52,1.43-7.05-7.52Z"/><path d="m50.83,250.39l3.66,6.07-1.8,1.12-.35-.58c-.16.77-.66,1.42-1.37,1.76-1.88.87-4.1.04-4.97-1.84-.74-1.61-.26-3.51,1.16-4.57.67-.43,1.49-.56,2.26-.35l-.35-.58,1.8-1.12-.05.08Zm.02,4.09c-.44-.82-1.46-1.13-2.28-.69-.02,0-.04.02-.05.03-.86.45-1.2,1.52-.75,2.38.45.86,1.52,1.2,2.38.75.86-.45,1.2-1.52.75-2.38-.02-.03-.03-.06-.05-.09Z"/><path d="m60.03,247.65l-.6,7.29c-.21,2.38-1.2,3.55-3.15,3.98l-.48-1.87c.82-.1,1.42-.8,1.4-1.62l-4.41-5.83,2.29-.57,2.64,3.73.17-4.57,2.2-.63-.05.08Z"/><path d="m74.18,256.96l-1.84-3.37-.38,3.09-2.09-.24,1.31-9.81,2.09.24-.82,5.86,2.52-2.76,2.5.36-3,3.14,2.13,3.9-2.36-.32-.05-.09Z"/><path d="m80.24,257.1c.48.2,1.02.2,1.49,0l1.19,1.54c-1.03.63-2.31.67-3.38.12-1.9-.61-2.95-2.66-2.34-4.56.04-.11.08-.22.12-.33.67-1.85,2.7-2.8,4.55-2.13.12.04.23.09.35.15,1.84.74,2.73,2.83,2,4.67-.02.04-.04.09-.06.13-.08.27-.3.51-.38.78l-4.63-1.95c-.02.73.48,1.37,1.19,1.54l-.09.05Zm2.19-1.89c.08-.7-.29-1.37-.92-1.68-.63-.33-1.41-.15-1.84.43l2.8,1.12-.04.14Z"/><path d="m92.67,258.58l-6.09,4.02c-2.03,1.34-3.57,1.26-5.06,0l1.21-1.58c.57.59,1.5.64,2.13.1l1.77-7.07,1.9,1.38-1.37,4.43,3.61-2.66,1.77,1.34.14.04Z"/><path d="m95.88,268.22c-1.47,1.25-3.66,1.07-4.91-.4-.03-.03-.05-.06-.08-.1-.53-.6-.75-1.4-.62-2.19l-2.77,2.09-1.28-1.71,7.91-5.94,1.28,1.71-.62.34c.79.13,1.49.57,1.94,1.24,1.09,1.58.7,3.75-.89,4.84-.04.02-.07.05-.11.07l.14.04Zm-1.28-1.71c.73-.48.93-1.45.46-2.18-.04-.06-.09-.12-.14-.18-.44-.72-1.39-.95-2.11-.51-.09.06-.17.12-.25.19-.73.48-.93,1.45-.46,2.18.04.06.09.12.14.18.44.72,1.39.95,2.11.51.09-.06.17-.12.25-.19h0Z"/><path d="m102.39,275.25l-6.64,2.37-.75-2.01.53-.29c-.75-.22-1.31-.85-1.46-1.62-.48-2.02.78-4.04,2.8-4.52,1.72-.41,3.49.45,4.25,2.04.33.73.28,1.58-.14,2.26l.53-.29c.05.09.8,2.09.8,2.09l.09-.05Zm-4-.8c.82-.21,1.32-1.04,1.11-1.86-.03-.1-.06-.2-.11-.3-.28-.86-1.21-1.32-2.07-1.04-.03.01-.06.02-.09.03-.82.21-1.32,1.04-1.11,1.86.03.1.06.2.11.3.3.85,1.23,1.3,2.08,1,.01,0,.03-.01.04-.02l.03.02Z"/><path d="m106.08,285.42l-9.88.45-.12-2.12.68-.02c-.64-.48-.98-1.25-.89-2.05.03-1.96,1.61-3.54,3.57-3.56,1.91-.19,3.62,1.2,3.81,3.12,0,.03,0,.06,0,.09.06.8-.22,1.58-.78,2.15l3.47-.17.12,2.12Zm-6.44-1.89c.93,0,1.69-.74,1.7-1.67,0-.02,0-.04,0-.06,0-.88-.72-1.58-1.6-1.57-.06,0-.12,0-.18.01-.93,0-1.69.74-1.7,1.67,0,.02,0,.04,0,.06,0,.88.72,1.58,1.6,1.57.06,0,.12,0,.18-.01h0Z"/></svg>