<?xml version="1.0" encoding="UTF-8"?><svg id="Layer_1" xmlns="http://www.w3.org/2000/svg" viewBox="0 0 400 263"><defs><style>.cls-1{fill:#fcfcfd;}.cls-2{fill:#68d4f0;}.cls-3{fill:#cbcbcb;}.cls-4{fill:#3f5c6c;}.cls-5{fill:#f2a745;}.cls-6{stroke:#c000e2;}.cls-6,.cls-7{stroke-width:4px;}.cls-6,.cls-7,.cls-8{stroke-miterlimit:10;}.cls-6,.cls-7,.cls-8,.cls-9{fill:none;}.cls-10{fill:#f66c82;}.cls-11{fill:#54747f;}.cls-12{fill:#636c77;}.cls-13{fill:#364a5f;}.cls-14{fill:#fbcc57;}.cls-7{stroke:#00b51e;}.cls-15{fill:#6bc048;}.cls-8{stroke:#231f20;stroke-width:2px;}.cls-16{fill:#c5deea;}.cls-17{fill:#f0f1ef;}.cls-18{fill:#f0f1f0;}.cls-19{fill:#073856;}.cls-20{fill:#c3dbe6;}.cls-21{fill:#999;}.cls-22{fill:#3b97d2;}.cls-23{fill:#bdc3c7;}.cls-24{fill:#f1f1f1;}.cls-25{fill:#edcd67;}.cls-26{fill:#559a38;}.cls-27{fill:#db411d;}.cls-28{fill:#231f20;}.cls-29{fill:#666;}.cls-30{fill:#69d4f0;}.cls-31{fill:#b72b06;}.cls-32{fill:#edcb61;}</style></defs><line class="cls-9" x1="200.28" y1="118.44" x2="200.78" y2="151.22"/><line class="cls-8" x1="200.28" y1="118.44" x2="200.61" y2="140.46"/><polygon class="cls-28" points="193.1 138.38 200.78 151.22 208.06 138.16 193.1 138.38"/><line class="cls-9" x1="118.68" y1="114.18" x2="167.32" y2="153.48"/><line class="cls-8" x1="118.68" y1="114.18" x2="158.95" y2="146.72"/><polygon class="cls-28" points="152.55 151.16 167.32 153.49 161.95 139.53 152.55 151.16"/><line class="cls-9" x1="281.32" y1="114.18" x2="232.68" y2="153.48"/><line class="cls-8" x1="281.32" y1="114.18" x2="241.05" y2="146.72"/><polygon class="cls-28" points="238.05 139.53 232.68 153.48 247.45 151.16 238.05 139.53"/><circle class="cls-6" cx="200" cy="66.98" r="45"/><path d="m159.5,67.18l.6-2.5h7.6c0-.1-6.7-3.7-6.7-3.7l.4-1.9,7.6-.33-6.8-3.4.6-2.5,9.6,5.2-.6,2.7-6.4.3,5.7,3.1-.6,2.7-10.9.5-.1-.17Z"/><path d="m171.1,45.48l6.3,4.1-1.2,1.9-.6-.4c.2.82.05,1.69-.4,2.4-1.37,1.73-3.89,2.03-5.62.66-1.5-1.18-1.95-3.26-1.08-4.96.42-.75,1.15-1.26,2-1.4l-.6-.4,1.2-1.9Zm1.9,3.9c-.75-.57-1.81-.42-2.38.32-.04.06-.08.12-.12.18-.55.73-.41,1.77.32,2.33.09.07.18.13.28.17.74.57,1.8.43,2.37-.31.05-.06.09-.13.13-.19.55-.73.41-1.77-.32-2.33-.09-.07-.18-.13-.28-.17Z"/><path d="m176.6,43.08l1.9,1.9c.5.5.9.1,1.6-.6l1.4,1.5c-1.9,2.3-3.1,2.2-4.6.7l-1.9-1.9-.9.8-1.5-1.5.9-.8-1-1,1.1-2.1,1.5,1.5,1.1-1.1,1.5,1.5-1.1,1.1Z"/><path d="m179.5,42.38c-1.19-1.82-.69-4.26,1.13-5.46.02-.01.05-.03.07-.04,1.17-.76,2.66-.84,3.9-.2l-1,2c-.78-.48-1.8-.22-2.28.56-.35.57-.32,1.3.08,1.84.42.78,1.39,1.07,2.17.65.08-.04.16-.1.23-.15.56-.28.88-.88.8-1.5h2.3c-.01,1.33-.69,2.57-1.8,3.3-1.8,1.2-4.24.71-5.43-1.1-.02-.03-.04-.07-.07-.1l-.1.2Z"/><path d="m193.4,34.88l1.4,4.4-2.1.7-1.3-4.1c-.22-.71-.98-1.1-1.69-.88-.71.22-1.1.98-.88,1.69.02.06.04.13.07.19l1.3,3.9-2.1.7-3.3-10,2.1-.7,1.2,3.5c.28-.76.92-1.32,1.7-1.5,1.41-.51,2.97.23,3.48,1.64.05.15.09.3.12.46Z"/><path d="m195.4,33.58l5.7-.4.2,2.2-5.7.4-.2-2.2Z"/><path d="m202.5,36.28l2.2-.8c.18.95.94,1.67,1.9,1.8,1.1.2,1.5-.2,1.5-.6.1-.6-.4-1-1.9-1.7s-2.8-1.7-2.5-3.7c.32-1.78,2.03-2.96,3.81-2.64.06.01.12.02.19.04,1.64.22,2.98,1.4,3.4,3l-2.2.8c-.14-.8-.79-1.42-1.6-1.5-.7-.1-1.2.2-1.2.6s.1.8,1.6,1.6,3.2,1.6,2.8,3.8c-.3,2-2.1,2.9-4.4,2.5s-3.4-1.6-3.7-3.3l.1.1Z"/><path d="m214.9,40.18c.45.3,1.05.3,1.5,0l1.2,1.7c-1.12.6-2.48.6-3.6,0-2.04-.84-3.02-3.18-2.18-5.22.02-.06.05-.12.08-.18.89-1.97,3.2-2.85,5.17-1.96.04.02.09.04.13.06,1.92.91,2.73,3.2,1.83,5.11,0,.02-.02.04-.03.06-.13.29-.3.56-.5.8l-4.8-2.3c-.03.77.46,1.47,1.2,1.7v.23Zm2.4-1.9c.18-.74-.2-1.5-.9-1.8-.67-.4-1.53-.22-2,.4l2.9,1.4Z"/><path d="m226.4,44.98l-3,3.5-1.7-1.5,2.8-3.3c.5-.51.49-1.32-.02-1.82-.03-.03-.06-.05-.08-.08-.59-.51-1.48-.44-1.99.15-.04.05-.08.1-.11.15l-2.7,3.1-1.7-1.5,4.9-5.7,1.7,1.5-.5.5c.81-.2,1.66.07,2.2.7,1.2,1,1.4,2.6.1,4.2l.1.1Z"/><path d="m229.2,52.58c-1.4,1-2.9.2-3.8-1.1-.92-1.03-1.09-2.53-.4-3.73l2,.9c-.35.48-.35,1.12,0,1.6.3.4.6.6.9.4.7-.5-1.9-3.2.3-4.7,1.3-1,2.8-.3,3.7.9.72.95.87,2.21.4,3.3l-2-.9c.2-.37.2-.83,0-1.2-.13-.26-.42-.38-.7-.3-.7.5,1.9,3.2-.3,4.8l-.1.03Z"/><path d="m231,52.58c1.98-.86,4.27.05,5.13,2.03.02.06.05.12.07.17.89,1.93.05,4.22-1.88,5.11-.07.03-.14.06-.22.09-2.04.86-4.39-.11-5.25-2.15-.86-2.04.11-4.39,2.15-5.25h0Zm2.2,5.3c.87-.39,1.26-1.42.87-2.29-.39-.87-1.42-1.26-2.29-.87-.86.39-1.25,1.39-.88,2.26.34.87,1.33,1.29,2.19.95.04-.01.07-.03.11-.05Z"/><path d="m238.8,65.18l-2.5.4c.1-.97-.61-1.83-1.58-1.93-.17-.02-.35,0-.52.03l-3.3.6-.4-2.2,7.4-1.3.4,2.2-1.3.2c1,.16,1.75.99,1.8,2Z"/><path d="m233.5,72.75c-1.7,0-2.4-1.5-2.4-3.2-.1-1.33.61-2.6,1.8-3.2l1.1,2c-.58.15-.96.7-.9,1.3,0,.5.2.8.5.8.8,0,.5-3.7,3-3.6,1.6,0,2.4,1.4,2.4,3,.02,1.21-.64,2.33-1.7,2.9l-1-1.9c.42-.16.69-.56.7-1,0-.4-.1-.6-.4-.6-.9,0-.3,3.7-3.1,3.6v-.1Z"/><path class="cls-12" d="m203.2,62.88h4.6c1.5-.1,2.8,1.04,2.9,2.55,0,.12,0,.23,0,.35v15.4c0,2.1-1.1,3.2-3.1,3.2h-15.1c-1.54.18-2.92-.93-3.1-2.46-.02-.21-.02-.42,0-.64v-15.1c0-2.1,1.1-3.2,3.1-3.2h10.7v-.1Zm1,6.1v-1.4c0-.4-.4-.6-.8-.6-.37.01-.69.25-.8.6v1.1h-1.7v-.93c0-.44-.34-.79-.78-.8,0,0-.01,0-.02,0-.43.03-.77.37-.8.8v.9h-1.7v-.9c0-.44-.36-.8-.8-.8s-.8.36-.8.8h0v1.2l-.5.5h-1.1c-.45-.04-.85.29-.9.74,0,.02,0,.04,0,.06.04.46.44.81.9.8h.8v1.7h-.9c-.44,0-.8.36-.8.8,0,.44.36.8.8.8h.9v1.7h-.8c-.41-.03-.77.27-.8.67,0,.04,0,.08,0,.13,0,.44.34.79.78.8,0,0,.01,0,.02,0h1.2l.5.5v1.3c.04.41.39.72.8.7.4-.02.73-.31.8-.7v-1h1.7v.9c0,.44.36.8.8.8s.8-.36.8-.8v-.9h1.7v.9c0,.44.36.8.8.8s.8-.36.8-.8v-1.2l.5-.5h1.2c.5,0,.9-.4.8-.8,0-.44-.34-.79-.78-.8,0,0-.01,0-.02,0h-.8v-1.7h.9c.44,0,.8-.36.8-.8,0-.44-.36-.8-.8-.8h-.9v-1.7h.8c.46.01.86-.34.9-.8,0-.45-.38-.81-.84-.8-.02,0-.04,0-.06,0h-1.1l-.5-.5-.2.03Z"/><path class="cls-2" d="m177.2,65.08c-.04.26-.14.5-.3.7-2.09,2.14-3.24,5.01-3.2,8-.01,2.89,1.14,5.67,3.2,7.7.35.25.47.71.3,1.1-.22.4-.72.56-1.12.34-.11-.06-.2-.14-.28-.24-1.3-1.24-2.26-2.79-2.8-4.5-1.78-4.58-.73-9.78,2.7-13.3l.4-.4c.23-.2.57-.2.8,0,.27.12.44.4.4.7l-.1-.1Z"/><path class="cls-2" d="m208.5,50.75c-.28-.03-.53-.17-.7-.4-4.42-4.18-11.34-4.13-15.7.1-.5.5-1,.5-1.3,0-.26-.29-.23-.74.06-1,.04-.04.09-.07.14-.1,4.99-4.79,12.86-4.83,17.9-.1.18.12.33.29.4.5.2.36.07.81-.28,1.01-.13.07-.27.1-.42.09l-.1-.1Z"/><path class="cls-2" d="m227.9,73.58c0,3.3-1.24,6.49-3.5,8.9l-.2.2c-.28.33-.77.36-1.1.08-.33-.28-.36-.77-.08-1.1.03-.03.05-.06.08-.08.71-.71,1.31-1.52,1.8-2.4,2.51-4.35,1.81-9.84-1.7-13.43-.35-.25-.44-.74-.2-1.1.21-.36.67-.48,1.02-.28.11.07.21.16.28.28,1.5,1.58,2.6,3.5,3.2,5.6.32,1.11.49,2.25.5,3.4l-.1-.07Z"/><path class="cls-2" d="m200,101.48c-3.28.03-6.44-1.23-8.8-3.5l-.2-.2c-.33-.25-.4-.72-.15-1.05.04-.06.09-.11.15-.15.31-.33.83-.35,1.16-.04.01.01.03.03.04.04.7.68,1.47,1.29,2.3,1.8,4.33,2.54,9.84,1.85,13.4-1.7.27-.32.71-.44,1.1-.3.5.3.6.9,0,1.4-1.58,1.5-3.5,2.6-5.6,3.2-1.11.32-2.25.49-3.4.5Z"/><path class="cls-2" d="m200.3,97.68c-2.44.05-4.8-.85-6.6-2.5-.35-.25-.44-.74-.2-1.1.21-.36.67-.48,1.02-.28.11.07.21.16.28.28,2.85,2.66,7.25,2.75,10.2.2l.2-.2c.25-.33.72-.4,1.05-.15.06.04.11.09.15.15.33.31.35.83.04,1.16-.01.01-.03.03-.04.04-1.01,1.01-2.24,1.76-3.6,2.2-.77.25-1.58.39-2.4.4l-.1-.2Z"/><path class="cls-2" d="m199.6,49.48c2.48-.08,4.88.81,6.7,2.5.5.5.5.9.2,1.3s-.8.3-1.3-.1c-2.86-2.7-7.34-2.7-10.2,0-.5.5-.9.5-1.3.1s-.3-.8.1-1.2c1.53-1.56,3.61-2.46,5.8-2.5v-.1Z"/><path class="cls-2" d="m175.9,73.58c.02-2.29.87-4.49,2.4-6.2.5-.5.9-.6,1.3-.2s.3.8-.2,1.3c-2.7,2.86-2.7,7.34,0,10.2.32.27.44.71.3,1.1-.21.36-.67.48-1.02.28-.11-.07-.21-.16-.28-.28-1.26-1.25-2.09-2.86-2.4-4.6-.08-.56-.12-1.13-.1-1.7v.1Z"/><path class="cls-2" d="m224.1,73.68c.04,2.32-.87,4.55-2.5,6.2-.5.5-.9.6-1.3.2-.4-.4-.3-.8.1-1.3,2.7-2.9,2.7-7.4,0-10.3-.4-.5-.5-.9-.1-1.2s.8-.3,1.3.1c1.63,1.69,2.53,3.95,2.5,6.3Z"/><path class="cls-10" d="m196.8,84.38h6v2c0,1.1-.9,2-2,2h-2.1c-1.1,0-2-.9-2-2v-2h.1Z"/><path class="cls-10" d="m203.2,62.88h-6v-2c0-1.1.9-2,2-2h2.1c1.1,0,2,.9,2,2v2h-.1Z"/><path class="cls-10" d="m189.3,70.38v6h-2c-1.1,0-2-.9-2-2v-2.1c0-1.1.9-2,2-2h2v.1Z"/><path class="cls-10" d="m210.8,76.75v-6h2c1.1,0,2,.9,2,2v2.1c0,1.1-.9,2-2,2h-2v-.1Z"/><path class="cls-30" d="m220.3,73.58c.02,1.36-.52,2.66-1.5,3.6-.4.4-.8.5-1.1.1-.33-.31-.35-.83-.04-1.16.01-.01.03-.03.04-.04,1.4-1.41,1.4-3.69,0-5.1-.3-.34-.3-.86,0-1.2.3-.4.7-.3,1.1,0,.99.97,1.54,2.31,1.5,3.7v.1Z"/><path class="cls-30" d="m200,53.28c1.3.01,2.55.51,3.5,1.4.5.5.6.9.3,1.3-.3.36-.84.4-1.2.1-.04-.03-.07-.07-.1-.1-1.08-.91-2.57-1.17-3.9-.7-.4.17-.77.41-1.1.7-.5.4-.9.4-1.2,0-.29-.31-.27-.8.04-1.09.05-.04.1-.08.16-.11.98-.91,2.27-1.41,3.6-1.4l-.1-.1Z"/><path class="cls-30" d="m200,93.88c-1.28-.02-2.52-.48-3.5-1.3-.6-.5-.6-.9-.3-1.3s.8-.4,1.3,0c1.11,1.05,2.77,1.25,4.1.5l.9-.6c.3-.33.81-.36,1.14-.06.02.02.04.04.06.06.3.3.3.7-.1,1.1-.97.93-2.26,1.45-3.6,1.47v.13Z"/><path class="cls-30" d="m179.7,73.58c.01-1.3.51-2.55,1.4-3.5.5-.6.9-.6,1.3-.3s.4.8,0,1.3c-.93,1.08-1.17,2.59-.6,3.9.2.39.43.76.7,1.1.4.5.4.9,0,1.2-.4.4-.8.3-1.2-.2-.95-.95-1.46-2.26-1.4-3.6l-.2.1Z"/><path class="cls-14" d="m205,74.38v1.7c.06.55-.05,1.11-.3,1.6l-.5.5c-.51.2-1.05.3-1.6.3h-5.1c-.55.06-1.11-.05-1.6-.3l-.5-.5c-.25-.5-.35-1.05-.3-1.6v-5.1c-.06-.55.05-1.11.3-1.6l.5-.5c.5-.25,1.05-.35,1.6-.3h5.1c.55-.06,1.11.05,1.6.3l.5.5c.2.51.3,1.05.3,1.6v3.4Z"/><path class="cls-20" d="m205,71.08c.06-.55-.05-1.11-.3-1.6h1.1c.45-.04.85.29.9.74,0,.02,0,.04,0,.06-.04.46-.44.81-.9.8h-.8Z"/><path class="cls-20" d="m204.7,77.68c.2-.51.3-1.05.3-1.6h.8c.41-.03.77.27.8.67,0,.04,0,.08,0,.13,0,.44-.34.79-.78.8,0,0-.01,0-.02,0h-1.1Z"/><path class="cls-20" d="m195.9,78.28c.51.2,1.05.3,1.6.3v1c-.04.41-.39.72-.8.7-.4-.02-.73-.31-.8-.7v-1.3Z"/><path class="cls-20" d="m202.5,78.58c.55.06,1.11-.05,1.6-.3v1.2c.03.41-.27.77-.67.8-.04,0-.08,0-.13,0-.5,0-.7-.3-.8-.8v-.9Z"/><path class="cls-20" d="m197.5,68.58c-.55-.06-1.11.05-1.6.3v-1.2c-.03-.41.27-.77.67-.8.04,0,.08,0,.13,0,.5,0,.7.3.8.8v.9Z"/><path class="cls-20" d="m204.1,68.98c-.5-.25-1.05-.35-1.6-.3v-1.1c0-.4.4-.6.8-.6.38-.03.72.23.8.6.05.47.05.93,0,1.4Z"/><path class="cls-20" d="m195.4,69.48c-.25.5-.35,1.05-.3,1.6h-.8c-.46.01-.86-.34-.9-.8,0-.45.38-.81.84-.8.02,0,.04,0,.06,0h1.1Z"/><path class="cls-20" d="m195,76.08c-.06.55.05,1.11.3,1.6h-1.2c-.5,0-.9-.4-.8-.8,0-.44.34-.79.78-.8,0,0,.01,0,.02,0h.9Z"/><path class="cls-16" d="m200.8,68.58h-1.6v-.9c0-.44.36-.8.8-.8s.8.36.8.8h0v.9Z"/><path class="cls-16" d="m195,72.75v1.6h-.9c-.44,0-.79-.34-.8-.78,0,0,0-.01,0-.02.03-.43.37-.77.8-.8h.9Z"/><path class="cls-16" d="m205,74.38v-1.63h.9c.44,0,.79.34.8.78,0,0,0,.01,0,.02-.03.43-.37.77-.8.8l-.9.03Z"/><path class="cls-16" d="m199.2,78.58h1.6v.9c0,.44-.34.79-.78.8,0,0-.01,0-.02,0-.43-.03-.77-.37-.8-.8v-.9Z"/><circle class="cls-6" cx="90.38" cy="66.98" r="45"/><path d="m48.08,69.28l.5-2.6,8.1-.6-7.4-3.4.3-2,8.1-.8-7.4-3.2.5-2.6,10.5,4.9-.5,2.9-6.8.7,6.2,2.9-.5,2.9-11.6,1.2v-.3Z"/><path d="m59.38,45.58l6.9,4.1-1.2,2.07-.6-.4c.31.85.16,1.79-.4,2.5-1.22,1.84-3.7,2.36-5.54,1.14-.02-.01-.04-.03-.06-.04-1.94-.95-2.74-3.29-1.79-5.23.03-.06.06-.11.09-.17.44-.8,1.21-1.38,2.1-1.6l-.6-.4,1.2-2.1-.1.13Zm2.2,4.1c-.82-.57-1.94-.37-2.51.45-.03.05-.07.1-.09.15-.55.81-.35,1.91.46,2.46.08.05.16.1.24.14.82.57,1.94.37,2.51-.45.03-.05.07-.1.09-.15.55-.81.35-1.91-.46-2.46-.08-.05-.16-.1-.24-.14Z"/><path d="m65.18,42.75l2,2c.5.5,1,.1,1.6-.7l1.6,1.5c-2,2.5-3.3,2.5-4.9.9l-2-2-.9.9-1.58-1.6.9-.9-1.12-1.1,1.2-2.2,1.6,1.6,1.2-1.2,1.6,1.6-1.2,1.2Z"/><path d="m68.28,41.98c-1.3-1.94-.79-4.57,1.15-5.87.02-.01.03-.02.05-.03,1.21-.84,2.78-.95,4.1-.3l-1.1,2.2c-.88-.45-1.96-.11-2.41.77-.3.58-.26,1.29.11,1.83.49.82,1.54,1.08,2.36.59.05-.03.1-.06.14-.09.56-.32.88-.95.8-1.6l2.4-.2c.09,1.49-.64,2.91-1.9,3.7-1.94,1.3-4.57.79-5.87-1.15-.01-.02-.02-.03-.03-.05l.2.2Z"/><path d="m83.08,33.88l1.5,4.7-2.3.7-1.4-4.3c-.18-.75-.94-1.21-1.69-1.03-.04,0-.07.02-.11.03-.76.21-1.2.99-1,1.74.02.09.06.17.1.26l1.4,4.2-2.3.7-3.5-10.6,2.3-.7,1.2,3.8c.33-.82,1.04-1.42,1.9-1.6,1.62-.51,3.34.39,3.85,2.01.02.06.04.13.05.19v-.1Z"/><path d="m85.28,32.58l6.1-.3v2.3l-5.9.3v-2.3h-.2Z"/><path d="m94.08,30.38l2.4.3-1,7.9-2.4-.3,1-7.9Zm0-2.2c.09-.76.77-1.3,1.53-1.21.02,0,.05,0,.07,0,.77.11,1.31.83,1.2,1.6-.11.77-.83,1.31-1.6,1.2-.76-.09-1.3-.77-1.21-1.53,0-.02,0-.05,0-.07Z"/><path d="m105.48,36.48l-1.6,4.6-2.3-.8,1.5-4.3c.31-.65.03-1.42-.62-1.73-.06-.03-.12-.05-.18-.07-.7-.3-1.5.02-1.8.72-.05.12-.09.25-.1.38l-1.38,4.1-2.3-.8,2.6-7.6,2.3.8-.2.7c.76-.43,1.68-.5,2.5-.2,1.54.51,2.37,2.16,1.87,3.7-.05.14-.1.27-.17.4l-.12.1Z"/><path d="m110.38,38.58l-1.5,2.4c-.4.6,0,1,1,1.5l-1.2,1.8c-2.8-1.4-3.1-2.7-1.9-4.6l1.5-2.4-1.1-.7,1.2-1.9,1.1.7.8-1.3,2.4.7-1.2,1.9,1.4.9-1.2,1.9-1.4-.9h.1Z"/><path d="m113.48,46.08c.38.43.92.68,1.5.7l.6,2.1c-1.34.22-2.71-.27-3.6-1.3-1.71-1.5-1.88-4.1-.38-5.81.09-.1.18-.19.28-.29,1.63-1.63,4.27-1.63,5.9,0,1.63,1.63,1.63,4.27,0,5.9-.2.2-.5.4-.7.6l-4-4c-.4.8,0,1.5.6,2.2l-.2-.1Zm3.1-1c.43-.68.3-1.57-.3-2.1-.52-.63-1.43-.76-2.1-.3l2.4,2.4Z"/><path d="m124.58,50.68l-2.3,1.4c-.32-1.02-1.4-1.58-2.42-1.27-.13.04-.26.1-.38.17l-3.1,1.9-1.3-2,6.8-4.2,1.3,2-1.2.7c1.04-.21,2.09.28,2.6,1.2v.1Z"/><path d="m125,61.18l-4.7,1.5-.8-2.3,4.3-1.4c.7-.17,1.14-.87.97-1.58-.02-.08-.04-.15-.07-.22-.25-.78-1.09-1.2-1.86-.95-.05.01-.09.03-.14.05l-4.1,1.4-.8-2.3,7.6-2.5.8,2.3-.7.2c.82.33,1.42,1.04,1.6,1.9.51,1.62-.39,3.34-2.01,3.85-.06.02-.13.04-.19.05h.1Z"/><path d="m128.78,71.48l-8,.3v-2.4h.7c-.67-.62-1.07-1.48-1.1-2.4.05-2.23,1.87-4,4.1-4,2.4,0,4.3,1.6,4.3,3.7.07.89-.26,1.77-.9,2.4h.8v2.4h.1Zm-4.1-2.3c1.03.03,1.88-.79,1.9-1.81,0-.06,0-.12,0-.19.04-.96-.7-1.77-1.66-1.82-.11,0-.23,0-.34.02-1.03-.03-1.88.79-1.9,1.81,0,.06,0,.12,0,.19-.04.96.7,1.77,1.66,1.82.11,0,.23,0,.34-.02Z"/><path d="m131.88,75.08l-.4,2.4-11.48-2.1.4-2.4,11.48,2.1Z"/><path class="cls-15" d="m64.38,90.68v-28.8c0-.5.2-.6.7-.6h4.5v2c0,.5,0,.6.6.6h2.4c.4,0,.5,0,.5-.5v-2.1h3.4v2c0,.5,0,.6.6.6h2.4c.4,0,.5,0,.5-.5v-2.1h3.4v2c0,.5,0,.6.6.6h2.4c.4,0,.5,0,.5-.5v-2.1h7.8v4c0,.4,0,.6-.4.8-1,.59-1.49,1.77-1.2,2.9.31,1.4,1.7,2.29,3.1,1.97,1.4-.31,2.29-1.7,1.97-3.1-.02-.09-.05-.18-.08-.27-.19-.66-.61-1.24-1.2-1.6-.26-.08-.43-.33-.4-.6v-4.1h3.4v8.2c0,.48.17.95.5,1.3l5.4,5.4c.25.18.33.52.2.8-.37,1.4.46,2.84,1.87,3.22.17.05.35.07.53.08,1.26.02,2.36-.86,2.6-2.1v7.3h-.8c-.44-.06-.84.25-.9.69,0,.07,0,.14,0,.21h-3.4v-.3c0-.5,0-.6-.6-.6h-2.4c-.3,0-.5,0-.5.4v2.6c0,.4.1.5.5.4h2.2q.8,0,.8-.9h3.5c-.06.44.25.84.69.9.07,0,.14,0,.21,0h.6c-.33.99-1.25,1.67-2.3,1.7h-10.4c.07-1.01-.54-1.95-1.5-2.3-.3-.1-.3-.3-.3-.5v-3.9c0-.7-.3-1-1-1h-8.5v-1.8h10c.4,0,.6,0,.8.4.7,1.24,2.27,1.67,3.5.97,1.04-.59,1.54-1.82,1.2-2.97-.24-.91-.98-1.61-1.9-1.8-1.13-.29-2.31.2-2.9,1.2-.2.4-.4.4-.8.4h-10v-1.7h3q1.4,0,1.3-1.4c0-.3-.1-.4-.4-.4h-3.9v-1.8h3q1.4,0,1.3-1.4c0-.3-.1-.4-.4-.4h-3.9v-1.43c0-.3,0-.4-.3-.4h-1.4v-3q0-1.4-1.4-1.3c-.3,0-.4.1-.4.4v4h-1.8v-3q0-1.4-1.4-1.3c-.3,0-.4.1-.4.4v4h-1.8v-3q0-1.4-1.4-1.3c-.3,0-.4.1-.4.4v4h-1.8v-3q0-1.4-1.4-1.3c-.3,0-.4.1-.4.4v4h-1.4c-.3,0-.4,0-.3.4v1.4h-3q-1.4,0-1.3,1.4c0,.3.1.4.4.4h3.9v1.8h-3q-1.4,0-1.3,1.4c0,.3.1.4.4.4h3.9v1.8h-3q-1.4,0-1.3,1.4c0,.3.1.4.4.4h3.9v1.8h-3q-1.4,0-1.3,1.4c0,.3.1.4.4.4h3.9v1.4c0,.3,0,.4.3.4h1.4v4.3h-8.7l.6-.57Z"/><path class="cls-26" d="m64.38,90.68h28.62c.03.54.2,1.05.5,1.5.63.89,1.73,1.33,2.8,1.1,1.14-.3,1.96-1.32,2-2.5h10.4c1.06,0,1.99-.69,2.3-1.7h1.6c.3,0,.4,0,.4-.4v-2.8c0-.3-.1-.4-.4-.4h-1.4v-23.73c0-.5,0-.6.6-.6h4.1c.5,0,.6,0,.6.6v33.5c0,.5-.1.6-.6.6h-4.2c-.3,0-.4,0-.4-.4-.23-1.76-1.72-3.09-3.5-3.1-1.77-.02-3.25,1.34-3.4,3.1,0,.3-.1.4-.4.3h-38.82c-.5,0-.6,0-.6-.6v-4.6l-.2.13Z"/><path class="cls-15" d="m111.18,61.75v15.4c-.7-1.8-1.5-2.2-3.5-1.9-.19.03-.38-.05-.5-.2l-5.3-5.3c-.21-.12-.33-.36-.3-.6v-8h1.9c.5,0,.7.1.7.6.16,1.22,1.02,2.24,2.2,2.6,1.77.65,3.73-.24,4.4-2v-.1c0-.2.1-.3.2-.5h.2Z"/><path class="cls-17" d="m101.68,61.28v8c.01.23.12.45.3.6l5.3,5.3c.1.1.2.3.5.2,2-.4,2.8.1,3.5,1.9v1c-.6,1.4-1.4,2.1-2.6,2.1-1.41-.02-2.53-1.18-2.51-2.59,0-.24.04-.48.11-.71.11-.28.03-.6-.2-.8l-5.4-5.4c-.4-.3-.6-.81-.5-1.3v-8.2h1.82l-.32-.1Zm6.9,17.3c.46.01.86-.34.9-.8-.04-.44-.36-.81-.8-.9-.46-.01-.86.34-.9.8h0c-.01.46.34.86.8.9Z"/><path class="cls-18" d="m96.48,61.28v4.1c0,.4.2.4.4.6,1.24.69,1.69,2.26,1,3.5s-2.26,1.69-3.5,1h0c-.61-.34-1.04-.92-1.2-1.6-.29-1.13.2-2.31,1.2-2.9.4-.2.4-.4.4-.8v-3.9s1.7,0,1.7,0Zm-.9,6.1c-.5,0-.9.4-.9.9,0,.5.4.9.9.9.5,0,.9-.4.9-.9h0c0-.5-.4-.9-.9-.9h0Z"/><path class="cls-32" d="m69.58,62.98v-3.9c0-.3,0-.4.4-.4h2.2v3.3c.06.49-.29.94-.79,1-.07,0-.14,0-.21,0h-1.6Z"/><path class="cls-32" d="m76.58,62.98v-3.9c0-.3,0-.4.4-.4h2.2v3.3c.06.49-.29.94-.79,1-.07,0-.14,0-.21,0h-1.6Z"/><path class="cls-32" d="m83.48,62.98v-3.9c0-.3.1-.4.4-.4h2.2v3.3c.06.49-.29.94-.79,1-.07,0-.14,0-.21,0h-1.6Z"/><path class="cls-5" d="m76.58,62.98h1.6c.49.06.94-.29,1-.79,0-.07,0-.14,0-.21v-3.3h.1c.54,0,.8.23.8.7v4c0,.4-.1.5-.5.5h-2.4c-.5,0-.6-.2-.6-.6v-.3Z"/><path class="cls-5" d="m69.58,62.98h1.6c.49.06.94-.29,1-.79,0-.07,0-.14,0-.21v-3.3h.1c.54,0,.8.23.8.7v4c0,.4-.1.5-.5.5h-2.4c-.5,0-.6-.2-.6-.6v-.3Z"/><path class="cls-5" d="m83.48,62.98h1.6c.49.06.94-.29,1-.79,0-.07,0-.14,0-.21v-3.3h.1c.54,0,.8.23.8.7v4c0,.4-.1.5-.5.5h-2.4c-.5,0-.6-.2-.6-.6v-.3Z"/><path class="cls-26" d="m85.18,70.75h1.4c.3,0,.4,0,.3.4v14.9c0,.3,0,.4-.3.4h-14.9c-.3,0-.4,0-.3-.4v-14.87c0-.3,0-.4.3-.4h13.5v-.03Zm-10.4,10.4v1.3c0,.4.1.4.5.4h7.72c.4,0,.5-.1.5-.5v-6.5c0-.5.2-1.2-.1-1.6s-1.1,0-1.6,0h-6.5c-.3,0-.4,0-.4.4v6.5h-.12Z"/><path class="cls-18" d="m86.88,84.58v-1.7h8.5c.7,0,1,.3,1,1v3.87c0,1.3,0,.4.3.5.89.43,1.47,1.31,1.5,2.3,0,1.2-.83,2.23-2,2.5-1.08.32-2.23-.13-2.8-1.1-.28-.45-.46-.97-.5-1.5-.07-1.01.54-1.95,1.5-2.3.19-.1.3-.29.3-.5v-2.6c0-.5,0-.6-.6-.6h-7.2v.13Zm9.5,6.1c0-.5-.4-.9-.9-.9-.5,0-.9.4-.9.9,0,.5.4.9.9.9h0c.45,0,.81-.38.8-.84,0-.02,0-.04,0-.06h.1Z"/><path class="cls-18" d="m86.88,81.18v-1.7h10c.4,0,.6,0,.8-.4.72-1.25,2.32-1.67,3.57-.95.99.58,1.49,1.73,1.23,2.85-.22.91-.91,1.63-1.8,1.9-1.13.33-2.33-.17-2.9-1.2-.2-.4-.4-.4-.8-.4h-9.98l-.12-.1Zm13-1.7c-.5,0-.9.4-.9.9,0,.5.4.9.9.9.5,0,.9-.4.9-.9h0c0-.45-.38-.81-.84-.8-.02,0-.04,0-.06,0h0v-.1Z"/><path class="cls-3" d="m106,88.08c0,.6-.26.9-.8.9h-2.2c-.3,0-.5,0-.5-.4v-2.6c0-.4.1-.5.5-.4h2.4c.5,0,.7.1.6.6v1.9Z"/><path class="cls-3" d="m111.18,85.48h1.4c.3,0,.4,0,.4.4v2.8c0,.3-.1.4-.4.4h-2.2c-.44.06-.84-.25-.9-.69,0-.07,0-.14,0-.21v-1.7c-.06-.44.25-.84.69-.9.07,0,.14,0,.21,0h.9l-.1-.1Z"/><path class="cls-24" d="m85.18,70.75h-1.7v-4c0-.3,0-.4.4-.4q1.4,0,1.4,1.3v3l-.1.1Z"/><path class="cls-24" d="m71.28,72.48v1.7h-3.9c-.3,0-.4,0-.4-.4q0-1.4,1.3-1.4h3v.1Z"/><path class="cls-24" d="m86.88,74.18v-1.7h3.9c.3,0,.4,0,.4.4q0,1.4-1.3,1.4h-3v-.1Z"/><path class="cls-24" d="m71.28,75.98v1.7h-3.9c-.3,0-.4,0-.4-.4q0-1.4,1.3-1.4h3v.1Z"/><path class="cls-24" d="m86.88,77.68v-1.7h3.9c.3,0,.4,0,.4.4q0,1.4-1.3,1.4h-3v-.1Z"/><path class="cls-24" d="m71.28,79.48v1.7h-3.9c-.3,0-.4,0-.4-.4q0-1.4,1.3-1.4h3v.1Z"/><path class="cls-24" d="m71.28,82.88v1.7h-3.9c-.3,0-.4,0-.4-.4q0-1.4,1.3-1.4h3v.1Z"/><path class="cls-24" d="m74.78,70.75h-1.7v-4c0-.3,0-.4.4-.4q1.4,0,1.4,1.3v3l-.1.1Z"/><path class="cls-24" d="m78.28,70.75h-1.7v-4c0-.3,0-.4.4-.4q1.4,0,1.4,1.3v3l-.1.1Z"/><path class="cls-24" d="m73.08,86.38h1.7v4.3h-1.7v-4.3Z"/><path class="cls-24" d="m81.68,70.75h-1.68v-4c0-.3,0-.4.4-.4q1.4,0,1.4,1.3v3l-.12.1Z"/><path class="cls-24" d="m109.48,86.38v1.7h-3.48v-1.7h3.48Z"/><path class="cls-15" d="m86.88,84.58h7.2c.5,0,.6.2.6.6v2.57c0,.2,0,.4-.3.5-.89.43-1.47,1.31-1.5,2.3h-7.8v-4.3h1.4c.3,0,.4,0,.3-.4v-1.4l.1.13Z"/><path class="cls-15" d="m74.78,90.68v-4.3h1.8v4.3h-1.8Z"/><path class="cls-24" d="m76.58,90.68v-4.3h1.7v4.3h-1.7Z"/><path class="cls-15" d="m78.28,90.68v-4.3h1.8v4.3h-1.8Z"/><path class="cls-24" d="m80,90.68v-4.3h1.7v4.3h-1.7Z"/><path class="cls-24" d="m85.18,86.38v4.3h-1.7v-4.3h1.7Z"/><path class="cls-15" d="m83.48,86.38v4.3h-1.8v-4.3h1.8Z"/><path class="cls-25" d="m108.58,78.58c-.5,0-.9-.4-.9-.9,0-.5.4-.9.9-.9.5,0,.9.4.9.9h0c0,.45-.38.81-.84.8-.02,0-.04,0-.06,0v.1Z"/><path class="cls-25" d="m95.58,67.28c.5,0,.9.4.9.9,0,.5-.4.9-.9.9-.5,0-.9-.4-.9-.9h0c-.02-.42.3-.79.73-.81.06,0,.12,0,.17.01h0v-.1Z"/><path class="cls-32" d="m74.78,81.18v-6.5c0-.3,0-.4.4-.4h6.5v4.1c.1,1.44-.98,2.7-2.43,2.8-.12,0-.25,0-.37,0h-4.1Z"/><path class="cls-5" d="m74.78,81.18h4.1c1.44.1,2.7-.98,2.8-2.43,0-.12,0-.25,0-.37v-4.1c.6,0,1.3-.2,1.6,0s.1,1,.1,1.6v6.5c0,.4-.1.5-.5.5h-7.7c-.3,0-.5,0-.5-.4v-1.3h.1Z"/><path class="cls-25" d="m96.48,90.68c.03.47-.33.87-.8.9-.47.03-.87-.33-.9-.8-.03-.47.33-.87.8-.9h0c.46-.01.86.34.9.8Z"/><path class="cls-25" d="m99.88,79.38c.5,0,.9.4.9.9,0,.5-.4.9-.9.9-.5,0-.9-.4-.9-.9h0c0-.5.4-.9.9-.9h0Z"/><circle class="cls-6" cx="309.62" cy="66.98" r="45"/><path d="m268.12,64.98l.6-2.5h7.6c0-.1-6.7-3.7-6.7-3.7l.4-1.9,7.6-.3-6.8-3.4.6-2.5,9.6,5.2-.6,2.7-6.4.3,5.7,3.1-.6,2.7-10.9.5-.1-.2Z"/><path d="m279.82,43.38l6.3,4.1-1.2,1.9-.6-.4c.2.82.05,1.69-.4,2.4-1.37,1.73-3.89,2.03-5.62.66-1.5-1.18-1.95-3.26-1.08-4.96.42-.75,1.15-1.26,2-1.4l-.6-.4,1.2-1.9Zm1.9,3.9c-.75-.57-1.81-.42-2.38.32-.04.06-.08.12-.12.18-.55.73-.41,1.77.32,2.33.09.07.18.13.28.17.74.57,1.8.43,2.37-.31.05-.06.09-.13.13-.19.55-.73.41-1.77-.32-2.33-.09-.07-.18-.13-.28-.17Z"/><path d="m285.22,40.88l1.9,1.9c.5.5.9.1,1.6-.6l1.4,1.5c-1.9,2.3-3.1,2.2-4.6.7l-1.9-1.9-.9.8-1.5-1.5.9-.8-1-1,1.1-2.1,1.5,1.5,1.1-1.1,1.5,1.5-1.1,1.1Z"/><path d="m288.12,40.28c-1.19-1.82-.69-4.26,1.13-5.46.02-.01.05-.03.07-.04,1.17-.76,2.66-.84,3.9-.2l-1,2c-.78-.48-1.8-.22-2.28.56-.35.57-.32,1.3.08,1.84.42.78,1.39,1.07,2.17.65.08-.04.16-.1.23-.15.52-.32.83-.89.8-1.5h2.3c-.01,1.33-.69,2.57-1.8,3.3-1.8,1.2-4.24.71-5.43-1.1-.02-.03-.04-.07-.07-.1l-.1.2Z"/><path d="m302,32.68l1.4,4.4-2.1.7-1.3-4.1c-.22-.71-.98-1.1-1.69-.88-.71.22-1.1.98-.88,1.69.02.06.04.13.07.19l1.3,3.9-2.1.7-3.3-10,2.1-.7,1.2,3.5c.29-.78.98-1.35,1.8-1.5,1.41-.51,2.97.23,3.48,1.64.05.15.09.3.12.46h-.1Z"/><path d="m304.12,31.38l5.7-.4.2,2.2-5.7.4-.2-2.2Z"/><path d="m315.32,35.38c.52.13,1.07.02,1.5-.3l1.6,1.3c-.93.89-2.24,1.26-3.5,1-2.17-.23-3.74-2.18-3.51-4.35.23-2.17,2.18-3.74,4.35-3.51.12.01.24.03.36.05,2.07.33,3.48,2.27,3.15,4.34-.01.09-.03.18-.05.26-.02.31-.09.61-.2.9l-5.2-.9c.15.76.82,1.31,1.6,1.3l-.1-.1Zm1.8-2.5c-.02-.77-.63-1.38-1.4-1.4-.74-.16-1.48.22-1.8.9l3.2.5Z"/><path d="m323,39.68l-.5-2.4-2.1,1.3-2.4-1,4-2.4-.9-4.4,2.4,1,.5,2.2,1.9-1.2,2.4,1-3.9,2.3.9,4.6-2.4-1h.1Z"/><path d="m330.92,38.38l-1.5,2.2c-.4.5,0,.9.9,1.4l-1.2,1.7c-2.6-1.5-2.7-2.7-1.5-4.4l1.5-2.2-1-.7,1.3-1.8,1,.7.8-1.2,2.2.8-1.2,1.7,1.3.9-1.3,1.8-1.3-.9Z"/><path d="m333.52,45.48c.33.44.85.7,1.4.7l.4,2c-1.28.13-2.53-.41-3.32-1.43-1.55-1.49-1.6-3.95-.11-5.5.07-.07.14-.14.21-.2,1.53-1.52,4-1.51,5.52.02,1.52,1.53,1.51,4-.02,5.52-.09.09-.19.18-.3.27-.21.2-.44.37-.7.5l-3.6-3.9c-.32.68-.16,1.49.4,2l.12.03Zm2.9-.8c.46-.62.37-1.48-.2-2-.48-.61-1.33-.78-2-.4l2.2,2.4Z"/><path d="m343.82,50.18l-2.2,1.3c-.24-.95-1.2-1.52-2.15-1.28-.16.04-.31.1-.45.18l-2.9,1.7-1.1-1.9,6.5-3.8,1.1,1.9-1.2.7c.97-.14,1.93.34,2.4,1.2Z"/><path d="m344,59.88l-4.4,1.4-.7-2.1,4.1-1.3c.69-.16,1.11-.85.95-1.54-.01-.05-.03-.11-.05-.16-.17-.72-.9-1.17-1.63-1-.09.02-.18.06-.27.1l-3.9,1.2-.7-2.1,7.2-2.3.7,2.1-.7.2c.78.29,1.35.98,1.5,1.8.46,1.47-.35,3.04-1.82,3.5-.09.03-.18.05-.28.07v.13Z"/><path d="m347.52,69.58l-7.52.17v-2.2h.6c-.66-.54-1.03-1.35-1-2.2.04-2.06,1.74-3.71,3.8-3.7,2.08-.12,3.89,1.42,4.1,3.5.05.84-.24,1.67-.8,2.3h.7v2.2l.12-.07Zm-3.8-2.1c.95.04,1.76-.7,1.8-1.66,0-.05,0-.1,0-.14.01-.93-.73-1.7-1.67-1.71-.08,0-.16,0-.23.01-.99,0-1.79.79-1.8,1.78,0,0,0,.01,0,.02-.01.93.73,1.7,1.67,1.71.08,0,.16,0,.23-.01Z"/><path d="m350.52,72.75l-.4,2.2-10.8-1.8.4-2.2,10.8,1.8Z"/><path class="cls-22" d="m319.12,92.88c-1,2.4-2.1,4.7-3.1,7.1-.41.73-1.09,1.27-1.9,1.5h-12.7c-1.13-.38-2.02-1.27-2.4-2.4-.8-1.9-1.7-3.8-2.5-5.7-.04-.18-.11-.35-.2-.5h22.8Z"/><path class="cls-13" d="m319.12,92.88h-22.9c-.67.02-1.34-.01-2-.1-2.33-.5-3.94-2.62-3.8-5v-28.2c-.14-2.17,1.22-4.16,3.3-4.8.55-.16,1.13-.23,1.7-.2h23.7c.67-.02,1.34.02,2,.1,2.12.44,3.67,2.24,3.8,4.4v28.67c.11,2.34-1.5,4.42-3.8,4.9-.7.1-1.3,0-2,.1v.13Zm.6-34.5h-24.2c-1,0-1.2.2-1.2,1.2v26.5c-.2.55-.2,1.15,0,1.7.2,1,.3,1.1,1.4,1.1h24.1c1,0,1.3-.3,1.3-1.3v-28.3c-.03-.55-.5-.97-1.05-.95-.08,0-.17.02-.25.05h-.1,0Z"/><path class="cls-22" d="m319.12,54.58h-22.9c.7-1.6,1.4-3.2,2.1-4.9.3-.6.5-1.3.8-1.9.5-1.15,1.65-1.86,2.9-1.8h11.3c1.09-.07,2.12.52,2.6,1.5,1.1,2.3,2.1,4.7,3.1,7.1h.1Z"/><path class="cls-23" d="m324.92,67.98v-8.6h1.8c1.1-.06,2.04.79,2.1,1.9,0,.03,0,.07,0,.1v4.7c0,1.1-.89,2-2,2-.03,0-.07,0-.1,0h-1.8v-.1Z"/><path class="cls-4" d="m319.72,58.48c.61-.17,1.23.19,1.4.8,0,0,0,0,0,0v28.47c0,1-.3,1.3-1.3,1.3h-24.1c-1.1,0-1.2,0-1.4-1.1-.1-.56-.1-1.14,0-1.7.3-.6.1-1.2.2-1.9.2-1.4.4-2.8.7-4.2.4-2.02,1-4,1.8-5.9,1.2-2.81,2.89-5.38,5-7.6,1.53-1.61,3.28-2.99,5.2-4.1,3.23-1.91,6.79-3.2,10.5-3.8.67-.05,1.34-.15,2-.3v.03Zm-11,10.2v-4.4c.04-.51-.33-.95-.84-1-.02,0-.04,0-.06,0-.49-.06-.94.29-1,.79,0,.07,0,.14,0,.21v9.2c0,.48.17.95.5,1.3,2.1,2,4.1,4.1,6.2,6.2l.4.4c.4.29.96.19,1.24-.21.02-.03.04-.06.06-.09.2-.3.2-.7,0-1-.1-.2-.3-.3-.4-.4l-5.8-5.8c-.2-.22-.31-.5-.3-.8v-4.4h0Z"/><path class="cls-11" d="m319.72,58.48c-.66.16-1.33.26-2,.3-3.71.6-7.27,1.89-10.5,3.8-1.92,1.11-3.67,2.49-5.2,4.1-2.11,2.22-3.8,4.79-5,7.6-.8,1.9-1.4,3.88-1.8,5.9-.3,1.4-.5,2.8-.7,4.2.03.64-.03,1.28-.2,1.9v-26.53c0-1,.2-1.2,1.2-1.2h24.2v-.07Z"/><path class="cls-1" d="m308.62,68.58v4.3c0,.3.1.58.3.8l5.8,5.8.4.4c.29.4.19.96-.21,1.24-.03.02-.06.04-.09.06-.3.2-.7.2-1,0-.18-.08-.32-.22-.4-.4l-6.2-6.2c-.4-.3-.6-.81-.5-1.3v-9.2c-.03-.52.36-.97.88-1,.04,0,.08,0,.12,0,.51,0,.91.43.9.94,0,.02,0,.04,0,.06v4.5h0Z"/><circle class="cls-7" cx="200" cy="203.11" r="45"/><path class="cls-27" d="m210.9,237.75c0,.8-4.9,1.4-11,1.4h0c-6.1,0-11-.6-11-1.4v-52.1c0-.8,4.9-1.4,11-1.4h0c6.1,0,11,.6,11,1.4v52.1Z"/><path class="cls-31" d="m188.9,186.91v.5c1.4-.4,5.3-.8,11-.8s9.6.4,11,.8v-.5c-2.7-.8-9.4-.8-11-.8s-8.2,0-11,.8Z"/><path class="cls-31" d="m210.9,236.31v-.5c-1.4.4-5.3.8-11,.8s-9.6-.4-11-.8v.5c2.7.8,9.4.8,11,.8s8.2,0,11-.8Z"/><path class="cls-31" d="m199.9,192.61c-3.2,0-6.2.1-8.4.3-.87.01-1.75.11-2.6.3v.6c3.65-.49,7.32-.69,11-.6,3.68-.09,7.35.11,11,.6v-.6c-.6-.1-1.4-.2-2.6-.3-2.2-.16-5.2-.3-8.4-.3Z"/><path class="cls-31" d="m210.9,229.41c-3.65.49-7.32.69-11,.6-3.68.09-7.35-.11-11-.6v.6c.6.1,1.4.2,2.6.3,2.2.2,5.2.3,8.4.3s6.2-.1,8.4-.3c.87-.01,1.75-.11,2.6-.3v-.6Z"/><rect class="cls-31" x="188.9" y="195.01" width="21.9" height="33.3"/><path class="cls-29" d="m216.7,213.41c-.3.6-.8.8-1.1.5l-2.8-2.6c-.3-.3-.2-.9,0-1.5l3.3-5.7c.3-.6.8-.8,1.1-.5l2.8,2.6c.3.3.2.9,0,1.5l-3.3,5.7Z"/><path class="cls-19" d="m220.9,195.11h1.1c1,0,1.5.8,1.1,2-.33.82-.69,1.62-1.1,2.4-2.6,4.6-5.1,9.3-7.7,13.9-2.4,4.2-4.8,8.3-7.3,12.3-1.02,1.92-2.68,3.41-4.7,4.2-2.4.8-4.5,0-6.5-1.6-1.21-1.1-2.19-2.43-2.9-3.9-2.8-4.7-5.5-9.4-8.2-14.2-1.2-2.1-2.3-4.2-3.5-6.3,0-.1-.1-.2-.2-.4-.7-1.6-.4-2.6,1.1-2.8,5.2-.8,10.4-1.5,15.6-2.3,4.6-.7,9.2-1.3,13.7-2,3.2-.5,6.5-.9,9.7-1.3h-.2Z"/><path class="cls-21" d="m218.5,197.51h.9c.8,0,1.3.7.9,1.7-.29.72-.63,1.42-1,2.1-2.2,4-4.4,8.1-6.7,12.1-2.1,3.6-4.2,7.2-6.4,10.7-.92,1.65-2.36,2.95-4.1,3.7-2.1.7-3.9,0-5.7-1.4-1.05-.96-1.9-2.11-2.5-3.4l-7.2-12.26c-1-1.8-2-3.7-3-5.5,0-.1-.1-.2-.2-.3-.6-1.4-.3-2.2.9-2.4,4.5-.7,9-1.3,13.5-2,4-.6,8-1.2,12-1.7,2.8-.4,5.7-.7,8.5-1.1h0l.1-.24Z"/><path d="m180,178.81c2.6,2.6,2.3,5.9,0,8.3-2.31,2.52-6.23,2.68-8.75.37-2.52-2.31-2.68-6.23-.37-8.75.07-.08.14-.15.21-.22,1.43-1.52,3.56-2.16,5.6-1.7l-.7,2.6c-1.12-.19-2.27.23-3,1.1-1.38,1.35-1.4,3.57-.05,4.95.02.02.03.03.05.05,1.29,1.36,3.43,1.42,4.79.13.11-.1.21-.22.31-.33,1.02-.81,1.39-2.19.9-3.4l-2.2,2.2-1.7-1.7,4.2-4.2.7.7v-.1Z"/><path d="m192.4,170.21l.6,8.9-2.2.9-3-3.7.4,4.7-2.2.9-5.7-6.9,2.5-1,2.8,3.8-.5-4.7,2.2-.9,2.9,3.7-.6-4.7,2.5-1h.3Z"/><path d="m203.9,169.61l.3,8.5h-2.5v-.7c-.61.75-1.54,1.16-2.5,1.1-2.33-.06-4.2-1.97-4.2-4.3,0-2.5,1.7-4.6,3.9-4.6.95-.06,1.89.26,2.6.9v-.76h2.5l-.1-.14Zm-2.4,4.3c.05-1.06-.77-1.96-1.83-2.01-.09,0-.18,0-.27,0-1.04-.03-1.9.79-1.93,1.83,0,.12,0,.25.03.37,0,1.1.89,2,2,2,.03,0,.07,0,.1,0,1.02.04,1.87-.74,1.92-1.76,0-.11,0-.23-.02-.34v-.1Z"/><path d="m209.8,173.31l-.7,2.9c-.2.7.4.9,1.5,1.1l-.5,2.3c-3.3-.4-4.1-1.6-3.5-3.9l.7-2.9-1.3-.3.5-2.4,1.3.3.4-1.6,2.7-.2-.5,2.3,1.7.4-.5,2.4-1.7-.4h-.1Z"/><path d="m212.4,175.75c1.01-2.21,3.63-3.19,5.85-2.17.05.02.1.05.15.07,1.43.65,2.39,2.03,2.5,3.6l-2.6.2c-.03-.7-.46-1.32-1.1-1.6-.92-.48-2.07-.13-2.55.8-.02.03-.03.07-.05.1-.49.91-.15,2.04.76,2.53.05.02.09.05.14.07.6.32,1.34.29,1.9-.1l1.5,2.1c-1.3.9-2.99,1.01-4.4.3-2.21-1.01-3.19-3.63-2.17-5.85.02-.05.05-.1.07-.15v.1Z"/><path d="m227.8,184.91l-3.5,3.9-1.9-1.7,3.2-3.6c.58-.54.61-1.46.06-2.04-.02-.02-.04-.04-.06-.06-.6-.57-1.54-.55-2.11.05-.07.08-.14.16-.19.25l-3.1,3.5-1.9-1.7,7.9-8.9,1.9,1.7-2.8,3.1c.92-.21,1.88.1,2.5.8,1.3,1.1,1.6,3,0,4.7Z"/></svg>