<?xml version="1.0" encoding="UTF-8"?><svg id="Layer_1" xmlns="http://www.w3.org/2000/svg" viewBox="0 0 400 698"><defs><style>.cls-1{fill:#009245;}.cls-2,.cls-3,.cls-4,.cls-5,.cls-6{stroke-miterlimit:10;}.cls-2,.cls-7{fill:#fff;}.cls-2,.cls-6{stroke:#231f20;stroke-width:2px;}.cls-3{stroke:#a5262d;}.cls-3,.cls-4,.cls-5{stroke-width:4px;}.cls-3,.cls-4,.cls-5,.cls-6{fill:none;}.cls-4{stroke:#000;}.cls-8{fill:#90b9e0;}.cls-9{fill:#72b3e2;}.cls-5{stroke:#0018c6;}.cls-10{fill:#d1d1d1;}.cls-11{fill:#8ac5cd;}.cls-12{fill:#546e7a;}.cls-13{fill:#453e43;}.cls-14{fill:#364a5f;}.cls-15{fill:#90bae0;}.cls-16{fill:#afd2ef;}.cls-17{fill:#333;}.cls-18{fill:#ffed58;}.cls-19{fill:#fcd6ac;}.cls-20{fill:#685e66;}.cls-21{fill:gray;}.cls-22{fill:#36464e;}.cls-23{fill:#3b566a;}.cls-24{fill:#b2d3d9;}.cls-25{fill:#199dbc;}.cls-26{fill:#4582c2;}.cls-27{fill:#72b2e2;}.cls-28{fill:#607890;}.cls-29{fill:#cbb293;}.cls-30{fill:#374b60;}.cls-31{fill:#fcd6ad;}.cls-32{fill:#b3d4da;}.cls-33{fill:#788f9b;}.cls-34{fill:#484645;}.cls-35{fill:#637889;}.cls-36{fill:#b3b3b3;}.cls-37{fill:#fde6cd;}.cls-38{fill:#88c4cc;}.cls-39{fill:#2f4859;}.cls-40{fill:#cbb292;}.cls-41{fill:#304959;}.cls-42{fill:#fbd734;}.cls-43{fill:#231f20;}.cls-44{fill:#e2c8aa;}</style></defs><circle class="cls-3" cx="200" cy="58" r="45"/><rect class="cls-36" x="174" y="48" width="52" height="37" rx="2.9" ry="2.9"/><path class="cls-34" d="m200.8,78.3l-1.1-3.4h-8l-1,3.4h-6.5l7.5-23.6h7.6l7.8,23.6h-6.3Zm-7.6-8.6h4.8l-2.4-8-2.4,8Z"/><path class="cls-34" d="m208.5,78.3v-24.7h5.6v24.7h-5.6Z"/><path d="m176.1,36.7l-2.4,3.1,1,1.4-1.6,2.1-6.1-9.3,1.9-2.4,10.5,3.7-1.6,2.1-1.6-.6-.1-.1Zm-2.2-.8l-3.8-1.4,2.3,3.3,1.5-1.9Z"/><path d="m172.8,26.9l1.7-1.4,7,8.4-1.7,1.4-7-8.4Z"/><path d="m185,23.1l3.6,6.6-2,1.1-.3-.6c0,.7-.6,1.4-1.4,1.8-1.3.7-3,.4-3.9-1.4l-2.2-4,2-1.1,2,3.8c.4.8,1.2.9,1.8.6.7-.4,1-1.1.5-2l-2-3.6,2-1.1-.1-.1Z"/><path d="m199.6,22.6l.8,4.5-2.2.4-.8-4.3c-.1-.7-.6-1.1-1.3-1s-1.1.7-.9,1.6l.7,4.2-2.2.4-.8-4.3c-.1-.7-.6-1.1-1.3-1s-1.1.7-.9,1.6l.7,4.2-2.2.4-1.3-7.4,2.2-.4v.7c.4-.6,1-1.1,1.9-1.2.9-.2,1.6,0,2.1.6.3-.7.9-1.2,2-1.4,1.7-.3,3,.7,3.3,2.6l.2-.2Z"/><path d="m201.9,20.2l2.2.2-.6,7.5-2.2-.2.6-7.5Zm0-2c0-.7.7-1.3,1.5-1.2.7,0,1.3.7,1.2,1.5s-.7,1.3-1.5,1.2c-.7,0-1.3-.7-1.2-1.5Z"/><path d="m212.9,25.3l-1.2,4.4-2.2-.6,1.1-4.1c.2-.9-.2-1.5-.9-1.7-.8-.2-1.5,0-1.8,1.1l-1.1,3.9-2.2-.6,2-7.2,2.2.6-.2.7c.5-.4,1.4-.6,2.3-.3,1.5.4,2.4,1.8,1.9,3.7l.1.1Z"/><path d="m222.5,27.3l-3.8,6.4-1.9-1.2.4-.6c-.6.3-1.5.2-2.3-.3-1.3-.8-1.9-2.4-.8-4.1l2.4-4,1.9,1.2-2.2,3.7c-.5.8-.2,1.5.4,1.8.7.4,1.4.3,2-.6l2.1-3.5,1.9,1.2h-.1Z"/><path d="m230.3,39.6l-3.5,3-1.5-1.7,3.4-2.9c.6-.5.7-1.1.2-1.6-.5-.6-1.2-.5-1.8,0l-3.2,2.7-1.5-1.7,3.4-2.9c.6-.5.7-1.1.2-1.6-.5-.6-1.2-.5-1.8,0l-3.2,2.7-1.5-1.7,5.7-4.9,1.5,1.7-.5.4c.6,0,1.3.2,2,.9.6.7.7,1.4.5,2.1.7,0,1.5.2,2.2,1,1.1,1.3.9,3-.5,4.2l-.1.3Z"/><circle class="cls-5" cx="151.71" cy="413.79" r="40.5"/><path class="cls-13" d="m160.53,396.51h1.71c.7.04,1.26.57,1.35,1.26v38.25c.1.8-.34,1.57-1.08,1.89h-21.87c-.77-.29-1.22-1.08-1.08-1.89v-1.17h10.53c.27,0,.45,0,.36-.36v-.69c.25-.55.87-.82,1.44-.63.57.17.89.78.72,1.35,0,0,0,0,0,0,0,.27,0,.36.27.36h5.94c.85,0,1.54-.7,1.53-1.55,0-.02,0-.05,0-.07v-2.7c.31-.14.49-.47.45-.81v-27.99c0-.33-.17-.64-.45-.81v-4.41l.18-.03Z"/><path class="cls-20" d="m160.53,396.51v4.41h-17.28c-.81,0-.99.18-.99.99v27.72c0,.81.18.99.99.99h17.46v2.7c.04.85-.61,1.57-1.46,1.62-.02,0-.05,0-.07,0h-5.94c-.27,0-.36-.09-.27-.36.17-.57-.15-1.17-.72-1.35,0,0,0,0,0,0-.57-.19-1.19.08-1.44.63-.09.23-.09.49,0,.72.09.36,0,.36-.36.36h-10.53v-36.54c-.08-.91.59-1.72,1.5-1.8.1,0,.2,0,.3,0h19.08l-.27-.09Z"/><path d="m119.85,405.51c2.11.48,3.43,2.57,2.97,4.68l-.36,1.62,3.51.72-.54,2.52-11.07-2.43.9-4.23c.43-2.12,2.5-3.5,4.62-3.07.02,0,.04,0,.06.01l-.09.18Zm-.54,2.52c-.74-.19-1.5.25-1.69.99,0,.03-.01.06-.02.09l-.36,1.62,2.88.63.36-1.62c.15-.74-.33-1.45-1.06-1.6-.04,0-.07-.01-.11-.02v-.09Z"/><path d="m127.05,397.5l4.32,2.52-1.26,2.07-3.96-2.34c-.58-.44-1.41-.33-1.85.25-.05.06-.09.13-.13.2-.46.65-.3,1.55.35,2.01.09.06.18.11.28.15l3.78,2.25-1.26,2.07-9.81-5.76,1.26-2.07,3.42,2.07c-.27-.85-.14-1.78.36-2.52.81-1.44,2.52-1.98,4.41-.9h.09Z"/><path d="m128.94,396.51c-1.57-1.7-1.47-4.34.23-5.91.04-.04.09-.08.13-.12,1.77-1.56,4.46-1.4,6.03.36,1.49,1.83,1.22,4.52-.61,6.02-1.72,1.41-4.24,1.26-5.78-.35h0Zm4.59-4.05c-.72-.75-1.91-.77-2.66-.05s-.77,1.91-.05,2.66c.71.73,1.86.77,2.62.09.77-.63.88-1.77.25-2.53-.05-.06-.1-.11-.16-.17Z"/><path d="m143.79,385.98l1.98,4.59-2.25.99-1.8-4.23c-.25-.72-1.04-1.11-1.76-.86-.04.02-.09.03-.13.05-.76.29-1.14,1.15-.85,1.91.03.09.08.17.13.25l1.71,4.05-2.25.99-3.24-7.47,2.25-.99.27.72c.23-.85.87-1.53,1.71-1.8,1.53-.63,3.24-.09,4.14,1.89l.09-.09Z"/><path d="m150.54,388.05c.58-.03,1.13-.29,1.53-.72l2.07.9c-.72,1.16-1.96,1.9-3.33,1.98-2.25.4-4.4-1.1-4.8-3.35-.03-.17-.05-.35-.06-.52-.27-2.31,1.38-4.39,3.69-4.66.06,0,.12-.01.18-.02,2.28-.2,4.29,1.49,4.49,3.77,0,.03,0,.06,0,.1v.99l-5.76.54c.36.81,1.17.99,2.07.99h-.09Zm1.26-3.06c-.25-.76-1.02-1.21-1.8-1.08-.84-.02-1.54.61-1.62,1.44l3.51-.36h-.09Z"/><path d="m164.04,383.64l1.44.45-.63,2.25-1.44-.45-1.62,5.49-2.34-.72,1.62-5.49-1.08-.27.63-2.25,1.08.27c.63-2.16,2.25-3.15,4.77-2.25l-.63,2.25c-.81-.36-1.53-.27-1.8.63v.09Z"/><path d="m171.69,386.88l-1.26,2.43c-.74-.71-1.92-.69-2.63.05-.14.14-.25.31-.34.49l-1.71,3.24-2.16-1.08,3.69-7.2,2.16,1.08-.63,1.26c.78-.75,1.98-.87,2.88-.27Z"/><path d="m179.79,393.81l-5.4,6.03-1.8-1.62.54-.54c-.9.07-1.79-.26-2.43-.9-1.6-1.74-1.49-4.45.25-6.05,1.53-1.41,3.86-1.51,5.51-.25.73.55,1.14,1.43,1.08,2.34l.54-.54,1.8,1.62-.09-.09Zm-4.5,1.35c.69-.82.59-2.05-.22-2.74-.82-.69-2.05-.59-2.74.22-.68.8-.6,1.99.17,2.7.77.72,1.97.69,2.7-.07.03-.03.06-.07.09-.11Z"/><path d="m184.74,409.11l-4.5,2.07-.99-2.16,4.32-1.98c.72-.36,1.08-.9.72-1.62-.32-.66-1.11-.93-1.77-.61-.04.02-.08.04-.12.07l-4.14,1.89-.99-2.16,4.32-1.98c.72-.36,1.08-.9.72-1.62-.32-.66-1.11-.93-1.77-.61-.04.02-.08.04-.12.07l-4.14,1.89-.99-2.16,7.38-3.42.99,2.16-.72.27c.82.16,1.5.74,1.8,1.53.41.73.41,1.61,0,2.34.9.21,1.64.85,1.98,1.71.81,1.71.09,3.33-1.71,4.23l-.27.09Z"/><path d="m182.13,416.13c.01.59.27,1.15.72,1.53l-.99,1.98c-1.18-.73-1.87-2.04-1.8-3.42-.09-2.79,1.62-4.59,4.05-4.68,2.32-.16,4.33,1.58,4.49,3.9,0,.08,0,.16.01.24.12,2.26-1.61,4.19-3.86,4.31-.06,0-.12,0-.19,0h-.99l-.27-5.76c-.75.36-1.18,1.16-1.08,1.98l-.09-.09Zm3.06,1.35c.79-.22,1.29-.99,1.17-1.8.02-.82-.55-1.53-1.35-1.68l.18,3.48Z"/><path class="cls-42" d="m352.18,407.97c.5,0,.99.02,1.49.02.84,0,1.54.69,1.55,1.54,0,.78,0,1.56,0,2.33,0,6.58,0,13.16,0,19.75,0,.43-.02.86-.15,1.28-.15.49-.75.93-1.27.93-5.57,0-11.15,0-16.72,0-.03,0-.05,0-.08,0,0-1.51,0-3.03,0-4.54,1.16,0,2.32,0,3.48-.01.15,0,.32.04.32-.21,0-.57.05-1.16-.08-1.71-.36-1.48-.79-2.95-1.17-4.43-.1-.4-.22-.79-.36-1.18-.22-.61.19-.92.56-1.25.6-.55.85-1.24.99-2.03.3-1.66-1.1-3.65-2.68-4.16-.05-.09-.12-.13-.22-.08-.08-.02-.16-.04-.24-.05-.04-.05-.08-.07-.14-.03-.15-.02-.31-.04-.46-.07,0-2.01,0-4.03,0-6.04,2.86,0,5.71,0,8.57-.02.18,0,.36-.01.53-.02,1.02.03,2.04.05,3.07,0,1,.06,2,.04,3.01,0Z"/><path class="cls-18" d="m337,429.26c0,1.51,0,3.03,0,4.54-.57,0-1.15.01-1.72.01-4.86,0-9.72-.02-14.58.02-1.28.01-1.94-.69-1.94-1.94.04-7.44.03-14.88,0-22.32,0-.89.72-1.6,1.57-1.59.5,0,.99-.01,1.49-.02,1,.03,2,.05,3-.01,1.02.06,2.04.03,3.06.01.17,0,.33.02.5.02,2.87,0,5.74,0,8.61.01,0,2.01,0,4.03,0,6.04-.32.15-.68.08-1.02.21-1.42.55-2.36,1.51-2.7,3.02-.06.03-.11.07-.03.14-.11,1.25.02,2.39,1.14,3.22.35.26.49.65.35,1.14-.09.3-.2.59-.27.9-.2.84-.42,1.66-.64,2.49-.16.61-.35,1.22-.5,1.83-.15.61-.11,1.23-.13,1.85-.01.31.07.42.4.41,1.14-.02,2.27,0,3.41,0Z"/><path class="cls-33" d="m324.83,407.96c-1,.06-2,.04-3,.01,0-2.7-.02-5.41.02-8.11.02-1.25.19-2.49.55-3.71.44-1.46,1.06-2.83,1.9-4.1,1.05-1.58,2.35-2.94,3.9-4.05,1.02-.73,2.09-1.38,3.27-1.78,1.17-.41,2.35-.81,3.61-.9.71-.05,1.41-.16,2.12-.14,1.77.03,3.47.38,5.13,1,1.65.62,3.14,1.52,4.5,2.65,1.17.97,2.13,2.12,2.94,3.4.58.9,1.03,1.86,1.42,2.87.21.55.36,1.12.55,1.68.17.51.21,1.06.27,1.6.35,3.19.08,6.39.17,9.58-1,.04-2,.05-3,0,0-2.28-.02-4.57.01-6.85.02-1.31-.15-2.6-.47-3.87-.45-1.78-1.28-3.39-2.48-4.76-1.47-1.68-3.26-2.95-5.42-3.64-1.53-.49-3.08-.64-4.69-.54-1.49.09-2.89.44-4.22,1.06-2.21,1.03-3.95,2.61-5.24,4.69-1.11,1.79-1.72,3.76-1.8,5.84-.1,2.69-.02,5.38-.02,8.08Z"/><path class="cls-12" d="m346.11,407.97c0-2.42.02-4.85,0-7.27-.01-1.29-.19-2.56-.71-3.76-.41-.95-.96-1.81-1.64-2.6-1.01-1.18-2.27-1.99-3.7-2.51-1.32-.48-2.7-.64-4.13-.46-.87.11-1.71.31-2.49.65-2.18.95-3.78,2.51-4.77,4.69-.46,1.02-.65,2.09-.7,3.2-.13,2.69-.02,5.38-.06,8.06-1.02.02-2.04.04-3.06-.01,0-2.69-.08-5.39.02-8.08.08-2.08.68-4.05,1.8-5.84,1.29-2.08,3.03-3.66,5.24-4.69,1.33-.62,2.73-.97,4.22-1.06,1.61-.09,3.16.06,4.69.54,2.16.69,3.94,1.95,5.42,3.64,1.2,1.38,2.03,2.98,2.48,4.76.32,1.27.49,2.55.47,3.87-.03,2.28-.01,4.57-.01,6.85-1.02.05-2.04.04-3.07,0Z"/><path class="cls-22" d="m337,429.26c-1.14,0-2.27-.02-3.41,0-.33,0-.41-.1-.4-.41.02-.62-.01-1.25.13-1.85.15-.62.34-1.22.5-1.83.22-.83.44-1.66.64-2.49.07-.31.18-.6.27-.9.14-.49,0-.88-.35-1.14-1.12-.83-1.25-1.97-1.14-3.22.06-.03.06-.08.03-.14.34-1.51,1.28-2.47,2.7-3.02.34-.13.7-.05,1.02-.21.15.02.31.04.46.07.03.08.07.12.14.03.08.02.16.04.24.05.04.11.14.08.22.08,1.58.51,2.98,2.5,2.68,4.16-.14.79-.4,1.48-.99,2.03-.36.33-.78.65-.56,1.25.14.39.25.78.36,1.18.38,1.48.81,2.94,1.17,4.43.13.55.09,1.14.08,1.71,0,.25-.17.21-.32.21-1.16,0-2.32,0-3.48.01Z"/><path class="cls-12" d="m338.07,414.28c-.09,0-.18.03-.22-.08.1-.05.17,0,.22.08Z"/><path class="cls-12" d="m337.6,414.15c-.07.09-.11.05-.14-.03.06-.03.1-.02.14.03Z"/><path class="cls-33" d="m333.28,417.27c.03.06.03.1-.03.14-.08-.07-.03-.1.03-.14Z"/><circle class="cls-4" cx="337.13" cy="411.81" r="39.02"/><path class="cls-42" d="m164.18,527.63c.5,0,.99.02,1.49.02.84,0,1.54.69,1.55,1.54,0,.78,0,1.56,0,2.33,0,6.58,0,13.16,0,19.75,0,.43-.02.86-.15,1.28-.15.49-.75.93-1.27.93-5.57,0-11.15,0-16.72,0-.03,0-.05,0-.08,0,0-1.51,0-3.03,0-4.54,1.16,0,2.32,0,3.48-.01.15,0,.32.04.32-.21,0-.57.05-1.16-.08-1.71-.36-1.48-.79-2.95-1.17-4.43-.1-.4-.22-.79-.36-1.18-.22-.61.19-.92.56-1.25.6-.55.85-1.24.99-2.03.3-1.66-1.1-3.65-2.68-4.16-.05-.09-.12-.13-.22-.08-.08-.02-.16-.04-.24-.05-.04-.05-.08-.07-.14-.03-.15-.02-.31-.04-.46-.07,0-2.01,0-4.03,0-6.04,2.86,0,5.71,0,8.57-.02.18,0,.36-.01.53-.02,1.02.03,2.04.05,3.07,0,1,.06,2,.04,3.01,0Z"/><path class="cls-18" d="m149,548.92c0,1.51,0,3.03,0,4.54-.57,0-1.15.01-1.72.01-4.86,0-9.72-.02-14.58.02-1.28.01-1.94-.69-1.94-1.94.04-7.44.03-14.88,0-22.32,0-.89.72-1.6,1.57-1.59.5,0,.99-.01,1.49-.02,1,.03,2,.05,3-.01,1.02.06,2.04.03,3.06.01.17,0,.33.02.5.02,2.87,0,5.74,0,8.61.01,0,2.01,0,4.03,0,6.04-.32.15-.68.08-1.02.21-1.42.55-2.36,1.51-2.7,3.02-.06.03-.11.07-.03.14-.11,1.25.02,2.39,1.14,3.22.35.26.49.65.35,1.14-.09.3-.2.59-.27.9-.2.84-.42,1.66-.64,2.49-.16.61-.35,1.22-.5,1.83-.15.61-.11,1.23-.13,1.85-.01.31.07.42.4.41,1.14-.02,2.27,0,3.41,0Z"/><path class="cls-33" d="m136.83,527.62c-1,.06-2,.04-3,.01,0-2.7-.02-5.41.02-8.11.02-1.25.19-2.49.55-3.71.44-1.46,1.06-2.83,1.9-4.1,1.05-1.58,2.35-2.94,3.9-4.05,1.02-.73,2.09-1.38,3.27-1.78,1.17-.41,2.35-.81,3.61-.9.71-.05,1.41-.16,2.12-.14,1.77.03,3.47.38,5.13,1,1.65.62,3.14,1.52,4.5,2.65,1.17.97,2.13,2.12,2.94,3.4.58.9,1.03,1.86,1.42,2.87.21.55.36,1.12.55,1.68.17.51.21,1.06.27,1.6.35,3.19.08,6.39.17,9.58-1,.04-2,.05-3,0,0-2.28-.02-4.57.01-6.85.02-1.31-.15-2.6-.47-3.87-.45-1.78-1.28-3.39-2.48-4.76-1.47-1.68-3.26-2.95-5.42-3.64-1.53-.49-3.08-.64-4.69-.54-1.49.09-2.89.44-4.22,1.06-2.21,1.03-3.95,2.61-5.24,4.69-1.11,1.79-1.72,3.76-1.8,5.84-.1,2.69-.02,5.38-.02,8.08Z"/><path class="cls-12" d="m158.11,527.63c0-2.42.02-4.85,0-7.27-.01-1.29-.19-2.56-.71-3.76-.41-.95-.96-1.81-1.64-2.6-1.01-1.18-2.27-1.99-3.7-2.51-1.32-.48-2.7-.64-4.13-.46-.87.11-1.71.31-2.49.65-2.18.95-3.78,2.51-4.77,4.69-.46,1.02-.65,2.09-.7,3.2-.13,2.69-.02,5.38-.06,8.06-1.02.02-2.04.04-3.06-.01,0-2.69-.08-5.39.02-8.08.08-2.08.68-4.05,1.8-5.84,1.29-2.08,3.03-3.66,5.24-4.69,1.33-.62,2.73-.97,4.22-1.06,1.61-.09,3.16.06,4.69.54,2.16.69,3.94,1.95,5.42,3.64,1.2,1.38,2.03,2.98,2.48,4.76.32,1.27.49,2.55.47,3.87-.03,2.28-.01,4.57-.01,6.85-1.02.05-2.04.04-3.07,0Z"/><path class="cls-22" d="m149,548.92c-1.14,0-2.27-.02-3.41,0-.33,0-.41-.1-.4-.41.02-.62-.01-1.25.13-1.85.15-.62.34-1.22.5-1.83.22-.83.44-1.66.64-2.49.07-.31.18-.6.27-.9.14-.49,0-.88-.35-1.14-1.12-.83-1.25-1.97-1.14-3.22.06-.03.06-.08.03-.14.34-1.51,1.28-2.47,2.7-3.02.34-.13.7-.05,1.02-.21.15.02.31.04.46.07.03.08.07.12.14.03.08.02.16.04.24.05.04.11.14.08.22.08,1.58.51,2.98,2.5,2.68,4.16-.14.79-.4,1.48-.99,2.03-.36.33-.78.65-.56,1.25.14.39.25.78.36,1.18.38,1.48.81,2.94,1.17,4.43.13.55.09,1.14.08,1.71,0,.25-.17.21-.32.21-1.16,0-2.32,0-3.48.01Z"/><path class="cls-12" d="m150.07,533.94c-.09,0-.18.03-.22-.08.1-.05.17,0,.22.08Z"/><path class="cls-12" d="m149.6,533.81c-.07.09-.11.05-.14-.03.06-.03.1-.02.14.03Z"/><path class="cls-33" d="m145.28,536.93c.03.06.03.1-.03.14-.08-.07-.03-.1.03-.14Z"/><circle class="cls-4" cx="149.13" cy="531.47" r="39.02"/><path class="cls-42" d="m260.18,528.63c.5,0,.99.02,1.49.02.84,0,1.54.69,1.55,1.54,0,.78,0,1.56,0,2.33,0,6.58,0,13.16,0,19.75,0,.43-.02.86-.15,1.28-.15.49-.75.93-1.27.93-5.57,0-11.15,0-16.72,0-.03,0-.05,0-.08,0,0-1.51,0-3.03,0-4.54,1.16,0,2.32,0,3.48-.01.15,0,.32.04.32-.21,0-.57.05-1.16-.08-1.71-.36-1.48-.79-2.95-1.17-4.43-.1-.4-.22-.79-.36-1.18-.22-.61.19-.92.56-1.25.6-.55.85-1.24.99-2.03.3-1.66-1.1-3.65-2.68-4.16-.05-.09-.12-.13-.22-.08-.08-.02-.16-.04-.24-.05-.04-.05-.08-.07-.14-.03-.15-.02-.31-.04-.46-.07,0-2.01,0-4.03,0-6.04,2.86,0,5.71,0,8.57-.02.18,0,.36-.01.53-.02,1.02.03,2.04.05,3.07,0,1,.06,2,.04,3.01,0Z"/><path class="cls-18" d="m245,549.92c0,1.51,0,3.03,0,4.54-.57,0-1.15.01-1.72.01-4.86,0-9.72-.02-14.58.02-1.28.01-1.94-.69-1.94-1.94.04-7.44.03-14.88,0-22.32,0-.89.72-1.6,1.57-1.59.5,0,.99-.01,1.49-.02,1,.03,2,.05,3-.01,1.02.06,2.04.03,3.06.01.17,0,.33.02.5.02,2.87,0,5.74,0,8.61.01,0,2.01,0,4.03,0,6.04-.32.15-.68.08-1.02.21-1.42.55-2.36,1.51-2.7,3.02-.06.03-.11.07-.03.14-.11,1.25.02,2.39,1.14,3.22.35.26.49.65.35,1.14-.09.3-.2.59-.27.9-.2.84-.42,1.66-.64,2.49-.16.61-.35,1.22-.5,1.83-.15.61-.11,1.23-.13,1.85-.01.31.07.42.4.41,1.14-.02,2.27,0,3.41,0Z"/><path class="cls-33" d="m232.83,528.62c-1,.06-2,.04-3,.01,0-2.7-.02-5.41.02-8.11.02-1.25.19-2.49.55-3.71.44-1.46,1.06-2.83,1.9-4.1,1.05-1.58,2.35-2.94,3.9-4.05,1.02-.73,2.09-1.38,3.27-1.78,1.17-.41,2.35-.81,3.61-.9.71-.05,1.41-.16,2.12-.14,1.77.03,3.47.38,5.13,1,1.65.62,3.14,1.52,4.5,2.65,1.17.97,2.13,2.12,2.94,3.4.58.9,1.03,1.86,1.42,2.87.21.55.36,1.12.55,1.68.17.51.21,1.06.27,1.6.35,3.19.08,6.39.17,9.58-1,.04-2,.05-3,0,0-2.28-.02-4.57.01-6.85.02-1.31-.15-2.6-.47-3.87-.45-1.78-1.28-3.39-2.48-4.76-1.47-1.68-3.26-2.95-5.42-3.64-1.53-.49-3.08-.64-4.69-.54-1.49.09-2.89.44-4.22,1.06-2.21,1.03-3.95,2.61-5.24,4.69-1.11,1.79-1.72,3.76-1.8,5.84-.1,2.69-.02,5.38-.02,8.08Z"/><path class="cls-12" d="m254.11,528.63c0-2.42.02-4.85,0-7.27-.01-1.29-.19-2.56-.71-3.76-.41-.95-.96-1.81-1.64-2.6-1.01-1.18-2.27-1.99-3.7-2.51-1.32-.48-2.7-.64-4.13-.46-.87.11-1.71.31-2.49.65-2.18.95-3.78,2.51-4.77,4.69-.46,1.02-.65,2.09-.7,3.2-.13,2.69-.02,5.38-.06,8.06-1.02.02-2.04.04-3.06-.01,0-2.69-.08-5.39.02-8.08.08-2.08.68-4.05,1.8-5.84,1.29-2.08,3.03-3.66,5.24-4.69,1.33-.62,2.73-.97,4.22-1.06,1.61-.09,3.16.06,4.69.54,2.16.69,3.94,1.95,5.42,3.64,1.2,1.38,2.03,2.98,2.48,4.76.32,1.27.49,2.55.47,3.87-.03,2.28-.01,4.57-.01,6.85-1.02.05-2.04.04-3.07,0Z"/><path class="cls-22" d="m245,549.92c-1.14,0-2.27-.02-3.41,0-.33,0-.41-.1-.4-.41.02-.62-.01-1.25.13-1.85.15-.62.34-1.22.5-1.83.22-.83.44-1.66.64-2.49.07-.31.18-.6.27-.9.14-.49,0-.88-.35-1.14-1.12-.83-1.25-1.97-1.14-3.22.06-.03.06-.08.03-.14.34-1.51,1.28-2.47,2.7-3.02.34-.13.7-.05,1.02-.21.15.02.31.04.46.07.03.08.07.12.14.03.08.02.16.04.24.05.04.11.14.08.22.08,1.58.51,2.98,2.5,2.68,4.16-.14.79-.4,1.48-.99,2.03-.36.33-.78.65-.56,1.25.14.39.25.78.36,1.18.38,1.48.81,2.94,1.17,4.43.13.55.09,1.14.08,1.71,0,.25-.17.21-.32.21-1.16,0-2.32,0-3.48.01Z"/><path class="cls-12" d="m246.07,534.94c-.09,0-.18.03-.22-.08.1-.05.17,0,.22.08Z"/><path class="cls-12" d="m245.6,534.81c-.07.09-.11.05-.14-.03.06-.03.1-.02.14.03Z"/><path class="cls-33" d="m241.28,537.93c.03.06.03.1-.03.14-.08-.07-.03-.1.03-.14Z"/><circle class="cls-4" cx="245.13" cy="532.47" r="39.02"/><circle class="cls-5" cx="151.71" cy="295.56" r="40.5"/><path class="cls-19" d="m176.01,320.13v.72c-.16.48-.48.89-.9,1.17l-8.64,5.94c-.79.55-1.87.35-2.42-.43,0,0,0-.01-.01-.02-.27-.45-.63-.9-.9-1.35-.54-1.12-1.73-1.77-2.97-1.62-1.68.14-3.3-.7-4.14-2.16-.81-1.17-1.53-2.34-2.34-3.51-.09-.18-.18-.36-.36-.36,0-.17-.07-.33-.18-.45-.63-.99-1.26-1.89-1.89-2.88-.95-1.32-.65-3.16.67-4.11.02-.01.03-.02.05-.03.41-.28.8-.58,1.17-.9.18,0,.27.18.36.27.9,1.26,1.71,2.61,2.61,3.87l2.16,3.24c.26.38.77.49,1.17.27.37-.27.45-.8.18-1.17,0,0,0,0,0,0,0-.09-.09-.18-.18-.27-2.88-4.14-5.67-8.28-8.55-12.51-1.8-2.7-3.69-5.4-5.49-8.1-.39-.52-.61-1.15-.63-1.8,0-.27.27-.54.09-.9v-.18c1.01-.47,2.21-.17,2.88.72.52.82,1.09,1.6,1.71,2.34,1.08,1.53,2.07,3.06,3.15,4.59.31.54.67,1.06,1.08,1.53h0s0,.18.09.18c.24.38.51.74.81,1.08.27.27.72.27.99,0,.36-.27.36-.72,0-1.17-.5-.64-.76-1.44-.72-2.25,0-.27.27-.45.09-.63,1.01-.51,2.23-.21,2.88.72.16.31.37.58.63.81.2.49.48.94.81,1.35.29.27.72.35,1.08.18.35-.24.47-.7.27-1.08-.12-.23-.27-.44-.45-.63-.46-.66-.62-1.47-.45-2.25v-.36c.7-.41,1.55-.41,2.25,0,.63.36.9.99,1.35,1.44h0c.22.45.49.88.81,1.26.27.27.72.27.99,0,.25-.19.39-.5.36-.81-.03-.23-.13-.45-.27-.63-.53-.62-.76-1.44-.63-2.25v-.72c1.08-.46,2.33-.08,2.97.9,1.71,2.52,3.42,4.95,5.04,7.47,1.3,2.08,2.13,4.41,2.43,6.84.2,1.73.26,3.48.18,5.22-.04,1.04.21,2.07.72,2.97l.09.45Zm-2.61-.09c0-.28-.18-.54-.45-.63-.28-.13-.62-.13-.9,0-.9.63-1.8,1.17-2.7,1.8-.39.2-.54.67-.34,1.05.02.04.05.08.07.12.27.37.8.45,1.17.18,0,0,0,0,0,0,.9-.63,1.8-1.26,2.7-1.8.28-.13.45-.41.45-.72Zm-5.49,3.78c.05-.4-.24-.76-.64-.81-.15-.02-.31.01-.44.09-.29.15-.56.33-.81.54-.27.29-.35.72-.18,1.08.23.34.69.44,1.03.21.02-.01.03-.02.05-.03.26-.16.5-.34.72-.54.18-.18.27-.27.18-.45l.09-.09Z"/><path class="cls-16" d="m135.51,296.28v-11.52c-.03-1.13.71-2.13,1.8-2.43h2.61c.33.44.5.98.45,1.53-.07.87.58,1.64,1.45,1.71.06,0,.11,0,.17,0h6.21c.88.06,1.65-.6,1.71-1.49,0-.07,0-.15,0-.22-.08-.55.09-1.11.45-1.53h2.34c.6.15,1.14.5,1.53.99.18.2.28.45.27.72-.72.63-1.44,1.35-2.07,1.98-1.17,1.26-2.25,2.52-3.33,3.87-.17.35-.46.64-.81.81-.95-.88-2.23-1.3-3.51-1.17-2.35.19-4.22,2.06-4.41,4.41-.11,1.98.99,3.84,2.79,4.68-.36.72-.81,1.53-1.17,2.25-.9,1.71-1.71,3.51-2.43,5.22-1.05,2.53-1.96,5.11-2.75,7.74-.36,1.17-.63,2.34-.99,3.51-.15-.34-.21-.71-.18-1.08v-9.36c.09-.27.27-.54.36-.81.61-1.4,1-2.89,1.17-4.41.27-1.98.09-3.87-1.53-5.31l-.13-.09Z"/><path class="cls-14" d="m150.31,282.24c-.37.42-.54.98-.45,1.53.06.88-.6,1.65-1.49,1.71-.07,0-.15,0-.22,0h-6.21c-.87.02-1.6-.67-1.62-1.54,0-.06,0-.11,0-.17.08-.55-.09-1.11-.45-1.53h10.44Z"/><path class="cls-28" d="m150.09,282.24c-.09.09-.27,0-.45,0h.45Z"/><path class="cls-8" d="m135.69,317.25c.36-1.17.63-2.34.99-3.51.8-2.63,1.73-5.21,2.79-7.74.72-1.78,1.53-3.52,2.43-5.22.36-.72.81-1.53,1.17-2.25.18,0,.36.18.54.18.6.24,1.26.3,1.89.18,0,.09.18.18.18.27,2.16,3.15,4.32,6.39,6.48,9.54.38.47.71.99.99,1.53-.37.32-.76.62-1.17.9-1.34.92-1.68,2.76-.75,4.09.01.02.02.03.03.05.63.99,1.26,1.89,1.89,2.88.09.18.18.27.18.45-.63.36-1.26.18-1.89.27h-13.32c-1.04.08-2-.55-2.34-1.53l-.09-.09Zm9.36-.81h2.97c.63,0,.99-.27.99-.81s-.36-.81-.99-.81h-5.94c-.63,0-.99.27-.99.81s.36.81.99.81h2.97Z"/><path class="cls-15" d="m148.2,290.61c.45-.09.54-.45.81-.81,1.08-1.35,2.16-2.61,3.33-3.87.65-.71,1.34-1.37,2.07-1.98.15.34.21.71.18,1.08v14.58c-.48.34-.8.86-.9,1.44-.05.42-.05.84,0,1.26-.41-.47-.77-.99-1.08-1.53-1.08-1.53-2.07-3.06-3.15-4.59.29-.56.44-1.17.45-1.8.04-1.41-.56-2.76-1.62-3.69l-.09-.09Z"/><path class="cls-26" d="m148.2,290.61c1.05.94,1.64,2.28,1.62,3.69.02.63-.13,1.25-.45,1.8-.52-.82-1.09-1.6-1.71-2.34-.65-.93-1.87-1.23-2.88-.72-.26,0-.49.19-.54.45h0s-.09.04-.09.09h0s-.09.04-.09.09h0s-.09.04-.09.09h0c-.52.44-.73,1.15-.54,1.8,0,.41.16.8.45,1.08.54.81,1.08,1.53,1.53,2.34-.63.12-1.29.06-1.89-.18-.19-.02-.38-.08-.54-.18-2.4-1.08-3.47-3.9-2.39-6.3.72-1.6,2.26-2.67,4.01-2.79,1.28-.08,2.54.34,3.51,1.17l.09-.09Z"/><path class="cls-40" d="m145.41,298.89c-.54-.81-1.08-1.53-1.53-2.34-.26-.3-.42-.68-.45-1.08,0-.64.19-1.27.54-1.8h.09l.09-.09h0l.09-.09h0c.18,0,.36-.18.54-.27.09.27-.09.54-.09.9.02.65.24,1.28.63,1.8,1.8,2.7,3.69,5.4,5.49,8.1,2.88,4.14,5.67,8.28,8.55,12.51,0,.09.18.18.18.27.28.36.21.87-.15,1.15,0,0-.02.01-.03.02-.41.19-.89.08-1.17-.27l-2.16-3.24c-.9-1.26-1.71-2.61-2.61-3.87-.09-.18-.18-.27-.36-.27-.3-.53-.63-1.04-.99-1.53-2.16-3.15-4.32-6.39-6.48-9.54,0-.09-.18-.18-.18-.27v-.09Z"/><path class="cls-37" d="m173.4,320.04c0,.31-.17.59-.45.72-.9.63-1.8,1.26-2.7,1.8-.38.24-.88.16-1.17-.18-.26-.37-.17-.87.2-1.13.02-.02.04-.03.07-.04.9-.63,1.8-1.26,2.7-1.8.26-.23.64-.23.9,0,.27.18.45.36.45.63Z"/><path class="cls-29" d="m163.32,299.61c-.14-.67-.04-1.37.27-1.98.27-.42.64-.76,1.08-.99v.72c-.06.8.16,1.6.63,2.25.18.16.28.39.27.63,0,.36,0,.63-.36.81-.31.18-.68.18-.99,0-.35-.36-.63-.79-.81-1.26h0l-.09-.18Z"/><path class="cls-29" d="m158.55,300.87c-.34-1.09.15-2.27,1.17-2.79.09.09,0,.27,0,.36-.18.78-.01,1.6.45,2.25.18.18.27.45.45.63.25.37.15.88-.23,1.12s-.88.15-1.12-.23c-.35-.39-.63-.85-.81-1.35h.09Z"/><path class="cls-40" d="m153.6,302.22v-1.26c.19-.54.5-1.03.9-1.44.14-.02.26-.09.36-.18.18.27,0,.45-.09.63,0,.81.26,1.59.72,2.25.32.33.32.84,0,1.17-.27.27-.72.27-.99,0-.29-.34-.56-.7-.81-1.08,0,0,0-.18-.09-.18h0v.09Z"/><path class="cls-37" d="m167.91,323.73c0,.18,0,.36-.18.45-.2.23-.44.41-.72.54-.33.25-.8.19-1.05-.13-.01-.01-.02-.03-.03-.05-.21-.36-.14-.81.18-1.08l.81-.54c.35-.2.8-.07.99.28.07.13.11.29.09.44l-.09.09Z"/><path class="cls-44" d="m144.78,293.13c-.18,0-.36.27-.54.27,0-.27.36-.36.54-.45v.18Z"/><path class="cls-15" d="m153.6,302.22c0,.07.04.13.09.18-.05-.05-.08-.11-.09-.18Z"/><path class="cls-31" d="m135.69,317.25c.34.98,1.3,1.61,2.34,1.53h13.32c-.88,1.24-2.02,2.29-3.33,3.06-.18.09-.27.18-.45.27-.63.33-.98,1.01-.9,1.71v2.79c0,.94-.77,1.71-1.71,1.71h-9.27c-.86.08-1.63-.55-1.71-1.41,0-.1,0-.2,0-.3v-2.7c-.2-.89-.6-1.72-1.17-2.43-.63-.9-1.17-1.89-1.89-2.79-.61-.87-.92-1.91-.9-2.97,0-2.07.18-4.14.18-6.21v-2.97c-.03-1.33.21-2.64.72-3.87.74-1.66,1.23-3.42,1.44-5.22.04-.86.77-1.53,1.63-1.49.12,0,.23.02.35.05.81.99,1.25,2.23,1.26,3.51-.04,1.22-.22,2.42-.54,3.6-.24,1.13-.63,2.22-1.17,3.24-.2.42-.05.93.36,1.17.38.24.88.12,1.12-.26.02-.03.04-.07.05-.1.05-.1.11-.19.18-.27v9.36c-.03.37.03.74.18,1.08l-.09-.09Zm6.57,7.11h-1.08c-.45-.07-.86.24-.93.69s.24.86.69.93c.08.01.16.01.24,0h2.16c.45,0,.81-.36.81-.81s-.36-.81-.81-.81h-1.08Zm-4.77,1.62c.21.01.43-.02.63-.09.35-.15.53-.53.45-.9-.12-.39-.49-.65-.9-.63-.54,0-1.08,0-1.35.54v.18c0,.63.36.9,1.17.9Z"/><path class="cls-40" d="m135.51,306.81c-.05.1-.11.19-.18.27-.24.41-.75.56-1.17.36-.41-.18-.59-.66-.41-1.07.02-.04.03-.07.05-.1.52-1.03.93-2.12,1.21-3.24.32-1.18.5-2.38.54-3.6.04-1.29-.41-2.54-1.26-3.51.44.07.87.22,1.26.45,1.62,1.44,1.71,3.33,1.53,5.31-.17,1.52-.56,3.01-1.17,4.41-.09.27-.27.54-.36.81l-.05-.09Z"/><path class="cls-30" d="m145.05,316.44h-2.97c-.63,0-.99-.27-.99-.81s.36-.81.99-.81h5.94c.63,0,.99.36.99.81s-.36.81-.99.81h-2.97Z"/><path class="cls-44" d="m144.01,293.67c-.31.55-.5,1.17-.54,1.8-.23-.65-.01-1.38.54-1.8Z"/><path class="cls-37" d="m142.26,324.36h.99c.45-.07.86.24.93.69s-.24.86-.69.93c-.08.01-.16.01-.24,0h-2.16c-.45,0-.81-.36-.81-.81s.36-.81.81-.81h1.17,0Z"/><path class="cls-37" d="m137.58,325.98c-.9,0-1.26-.27-1.17-.9v-.18c.27-.54.81-.54,1.35-.54.41-.02.78.24.9.63.13.37-.07.77-.43.89,0,0-.01,0-.02,0-.2.07-.42.1-.63.09Z"/><path d="m119.76,282.78l-.72,2.34,7.02,2.25-.63,2.07-7.02-2.25-.72,2.34-1.98-.63,2.16-6.66,1.98.63-.09-.09Z"/><path d="m123.45,284.4c-1.69-.99-2.25-3.17-1.25-4.86.99-1.69,3.17-2.25,4.86-1.25,1.68.99,2.25,3.16,1.26,4.85-.98,1.69-3.14,2.26-4.82,1.28-.01,0-.03-.01-.04-.02Zm2.61-4.41c-.76-.4-1.7-.1-2.1.66-.4.76-.1,1.7.66,2.1.74.38,1.65.12,2.07-.6.46-.7.26-1.65-.45-2.1-.03-.02-.06-.04-.09-.06h-.09Z"/><path d="m130.2,270.27l4.68,4.86-1.44,1.44-.45-.45c.03.72-.27,1.41-.81,1.89-.97.98-2.55.99-3.53.02-.09-.09-.18-.19-.25-.29l-2.88-2.97,1.44-1.44,2.7,2.79c.34.47,1,.58,1.47.24.09-.07.17-.15.24-.24.52-.44.59-1.22.15-1.74-.05-.06-.1-.11-.15-.15l-2.52-2.61,1.44-1.44-.09.09Z"/><path d="m133.71,271.8c-.92-1.76-.24-3.94,1.52-4.86,1.05-.55,2.3-.55,3.34,0l-.99,1.8c-.47-.27-1.06-.27-1.53,0-.74.45-.98,1.41-.54,2.16.34.73,1.21,1.04,1.94.7.04-.02.09-.04.13-.07.51-.24.81-.79.72-1.35h2.12c-.02,1.27-.7,2.43-1.8,3.06-1.64.99-3.77.47-4.76-1.17-.04-.06-.07-.12-.1-.18l-.05-.09Z"/><path d="m146.58,265.68l1.08,3.96-1.98.54-.99-3.69c-.07-.6-.61-1.02-1.21-.95-.08,0-.16.03-.23.05-.72.18-1.08.72-.81,1.71l.99,3.6-1.98.54-2.52-9.09,1.98-.54.9,3.24c.3-.66.9-1.13,1.62-1.26,1.32-.38,2.69.38,3.07,1.7.03.12.06.24.08.37v-.18Z"/><path d="m159.63,260.82l-1.17,9.36-1.98-.27v-.63c-.52.52-1.27.73-1.98.54-1.8-.18-2.97-1.98-2.79-3.96.15-1.85,1.75-3.24,3.6-3.15.76.05,1.46.45,1.89,1.08l.45-3.33,1.98.27v.09Zm-2.79,5.76c.16-.82-.37-1.61-1.19-1.78-.05-.01-.11-.02-.16-.02-.85-.13-1.65.46-1.79,1.31,0,.04-.01.09-.01.13-.16.82.37,1.61,1.19,1.78.05.01.11.02.16.02.85.13,1.65-.46,1.79-1.31,0-.04.01-.09.01-.13Z"/><path d="m161.52,264.24l1.89.63-2.16,6.39-1.89-.63,2.16-6.39Zm.36-1.8c.2-.65.88-1.01,1.53-.81.65.2,1.01.88.81,1.53-.2.65-.88,1.01-1.53.81-.64-.21-.99-.89-.81-1.53h0Z"/><path d="m167.91,272.25c-.72,1.35-2.25,1.35-3.51.63-1.13-.46-1.85-1.57-1.8-2.79h1.98c-.06.48.19.95.63,1.17.45.27.72.18.81,0,.36-.63-2.79-1.89-1.71-3.96.68-1.11,2.13-1.46,3.24-.78.03.02.06.04.09.06.99.45,1.62,1.44,1.62,2.52h-1.98c.03-.38-.19-.75-.54-.9-.2-.18-.52-.18-.72,0-.36.72,2.79,1.8,1.62,3.96l.27.09Z"/><path d="m175.11,276.66c-1.1,1.43-3.16,1.7-4.59.6-.06-.05-.12-.09-.18-.15-.6-.48-.93-1.21-.9-1.98l-2.25,2.43-1.53-1.35,6.3-7.02,1.53,1.35-.45.45c.76-.04,1.5.22,2.07.72,1.32,1.27,1.36,3.37.09,4.68-.03.03-.06.06-.09.09v.18Zm-1.53-1.35c.65-.6.68-1.62.08-2.26-.02-.03-.05-.05-.08-.08-.61-.6-1.59-.6-2.19,0-.05.05-.11.11-.15.18-.65.6-.68,1.62-.08,2.26.02.03.05.05.08.08.61.6,1.59.6,2.19,0,.05-.05.11-.11.15-.18Z"/><path d="m180.96,273.96l1.17,1.62-7.92,5.85-1.17-1.62,7.92-5.85Z"/><path d="m184.02,285.66l-6.12,2.88-.81-1.8.54-.27c-.72-.23-1.3-.75-1.62-1.44-.72-1.69.08-3.65,1.77-4.36.04-.02.08-.03.12-.05,1.67-.86,3.72-.22,4.59,1.44.34.67.37,1.46.09,2.16l.54-.27.81,1.8.09-.09Zm-3.87-.45c.81-.35,1.19-1.29.83-2.11,0-.02-.02-.04-.02-.05-.33-.77-1.22-1.13-2-.8-.06.02-.11.05-.16.08-.81.35-1.19,1.29-.83,2.11,0,.02.02.04.02.05.33.77,1.22,1.13,2,.8.06-.02.11-.05.16-.08Z"/><path d="m185.82,294.57l-6.84-1.17c-2.25-.36-3.33-1.44-3.51-3.33l1.89-.36c.18.9.54,1.35,1.35,1.44l5.85-3.78.36,2.16-3.78,2.16,4.32.54.36,2.16v.18Z"/><path class="cls-42" d="m73.18,291.97c.5,0,.99.02,1.49.02.84,0,1.54.69,1.55,1.54,0,.78,0,1.56,0,2.33,0,6.58,0,13.16,0,19.75,0,.43-.02.86-.15,1.28-.15.49-.75.93-1.27.93-5.57,0-11.15,0-16.72,0-.03,0-.05,0-.08,0,0-1.51,0-3.03,0-4.54,1.16,0,2.32,0,3.48-.01.15,0,.32.04.32-.21,0-.57.05-1.16-.08-1.71-.36-1.48-.79-2.95-1.17-4.43-.1-.4-.22-.79-.36-1.18-.22-.61.19-.92.56-1.25.6-.55.85-1.24.99-2.03.3-1.66-1.1-3.65-2.68-4.16-.05-.09-.12-.13-.22-.08-.08-.02-.16-.04-.24-.05-.04-.05-.08-.07-.14-.03-.15-.02-.31-.04-.46-.07,0-2.01,0-4.03,0-6.04,2.86,0,5.71,0,8.57-.02.18,0,.36-.01.53-.02,1.02.03,2.04.05,3.07,0,1,.06,2,.04,3.01,0Z"/><path class="cls-18" d="m58,313.26c0,1.51,0,3.03,0,4.54-.57,0-1.15.01-1.72.01-4.86,0-9.72-.02-14.58.02-1.28.01-1.94-.69-1.94-1.94.04-7.44.03-14.88,0-22.32,0-.89.72-1.6,1.57-1.59.5,0,.99-.01,1.49-.02,1,.03,2,.05,3-.01,1.02.06,2.04.03,3.06.01.17,0,.33.02.5.02,2.87,0,5.74,0,8.61.01,0,2.01,0,4.03,0,6.04-.32.15-.68.08-1.02.21-1.42.55-2.36,1.51-2.7,3.02-.06.03-.11.07-.03.14-.11,1.25.02,2.39,1.14,3.22.35.26.49.65.35,1.14-.09.3-.2.59-.27.9-.2.84-.42,1.66-.64,2.49-.16.61-.35,1.22-.5,1.83-.15.61-.11,1.23-.13,1.85-.01.31.07.42.4.41,1.14-.02,2.27,0,3.41,0Z"/><path class="cls-33" d="m45.83,291.96c-1,.06-2,.04-3,.01,0-2.7-.02-5.41.02-8.11.02-1.25.19-2.49.55-3.71.44-1.46,1.06-2.83,1.9-4.1,1.05-1.58,2.35-2.94,3.9-4.05,1.02-.73,2.09-1.38,3.27-1.78,1.17-.41,2.35-.81,3.61-.9.71-.05,1.41-.16,2.12-.14,1.77.03,3.47.38,5.13,1,1.65.62,3.14,1.52,4.5,2.65,1.17.97,2.13,2.12,2.94,3.4.58.9,1.03,1.86,1.42,2.87.21.55.36,1.12.55,1.68.17.51.21,1.06.27,1.6.35,3.19.08,6.39.17,9.58-1,.04-2,.05-3,0,0-2.28-.02-4.57.01-6.85.02-1.31-.15-2.6-.47-3.87-.45-1.78-1.28-3.39-2.48-4.76-1.47-1.68-3.26-2.95-5.42-3.64-1.53-.49-3.08-.64-4.69-.54-1.49.09-2.89.44-4.22,1.06-2.21,1.03-3.95,2.61-5.24,4.69-1.11,1.79-1.72,3.76-1.8,5.84-.1,2.69-.02,5.38-.02,8.08Z"/><path class="cls-12" d="m67.11,291.97c0-2.42.02-4.85,0-7.27-.01-1.29-.19-2.56-.71-3.76-.41-.95-.96-1.81-1.64-2.6-1.01-1.18-2.27-1.99-3.7-2.51-1.32-.48-2.7-.64-4.13-.46-.87.11-1.71.31-2.49.65-2.18.95-3.78,2.51-4.77,4.69-.46,1.02-.65,2.09-.7,3.2-.13,2.69-.02,5.38-.06,8.06-1.02.02-2.04.04-3.06-.01,0-2.69-.08-5.39.02-8.08.08-2.08.68-4.05,1.8-5.84,1.29-2.08,3.03-3.66,5.24-4.69,1.33-.62,2.73-.97,4.22-1.06,1.61-.09,3.16.06,4.69.54,2.16.69,3.94,1.95,5.42,3.64,1.2,1.38,2.03,2.98,2.48,4.76.32,1.27.49,2.55.47,3.87-.03,2.28-.01,4.57-.01,6.85-1.02.05-2.04.04-3.07,0Z"/><path class="cls-22" d="m58,313.26c-1.14,0-2.27-.02-3.41,0-.33,0-.41-.1-.4-.41.02-.62-.01-1.25.13-1.85.15-.62.34-1.22.5-1.83.22-.83.44-1.66.64-2.49.07-.31.18-.6.27-.9.14-.49,0-.88-.35-1.14-1.12-.83-1.25-1.97-1.14-3.22.06-.03.06-.08.03-.14.34-1.51,1.28-2.47,2.7-3.02.34-.13.7-.05,1.02-.21.15.02.31.04.46.07.03.08.07.12.14.03.08.02.16.04.24.05.04.11.14.08.22.08,1.58.51,2.98,2.5,2.68,4.16-.14.79-.4,1.48-.99,2.03-.36.33-.78.65-.56,1.25.14.39.25.78.36,1.18.38,1.48.81,2.94,1.17,4.43.13.55.09,1.14.08,1.71,0,.25-.17.21-.32.21-1.16,0-2.32,0-3.48.01Z"/><path class="cls-12" d="m59.07,298.28c-.09,0-.18.03-.22-.08.1-.05.17,0,.22.08Z"/><path class="cls-12" d="m58.6,298.15c-.07.09-.11.05-.14-.03.06-.03.1-.02.14.03Z"/><path class="cls-33" d="m54.28,301.27c.03.06.03.1-.03.14-.08-.07-.03-.1.03-.14Z"/><circle class="cls-4" cx="58.13" cy="295.81" r="39.02"/><path class="cls-42" d="m259.18,291.97c.5,0,.99.02,1.49.02.84,0,1.54.69,1.55,1.54,0,.78,0,1.56,0,2.33,0,6.58,0,13.16,0,19.75,0,.43-.02.86-.15,1.28-.15.49-.75.93-1.27.93-5.57,0-11.15,0-16.72,0-.03,0-.05,0-.08,0,0-1.51,0-3.03,0-4.54,1.16,0,2.32,0,3.48-.01.15,0,.32.04.32-.21,0-.57.05-1.16-.08-1.71-.36-1.48-.79-2.95-1.17-4.43-.1-.4-.22-.79-.36-1.18-.22-.61.19-.92.56-1.25.6-.55.85-1.24.99-2.03.3-1.66-1.1-3.65-2.68-4.16-.05-.09-.12-.13-.22-.08-.08-.02-.16-.04-.24-.05-.04-.05-.08-.07-.14-.03-.15-.02-.31-.04-.46-.07,0-2.01,0-4.03,0-6.04,2.86,0,5.71,0,8.57-.02.18,0,.36-.01.53-.02,1.02.03,2.04.05,3.07,0,1,.06,2,.04,3.01,0Z"/><path class="cls-18" d="m244,313.26c0,1.51,0,3.03,0,4.54-.57,0-1.15.01-1.72.01-4.86,0-9.72-.02-14.58.02-1.28.01-1.94-.69-1.94-1.94.04-7.44.03-14.88,0-22.32,0-.89.72-1.6,1.57-1.59.5,0,.99-.01,1.49-.02,1,.03,2,.05,3-.01,1.02.06,2.04.03,3.06.01.17,0,.33.02.5.02,2.87,0,5.74,0,8.61.01,0,2.01,0,4.03,0,6.04-.32.15-.68.08-1.02.21-1.42.55-2.36,1.51-2.7,3.02-.06.03-.11.07-.03.14-.11,1.25.02,2.39,1.14,3.22.35.26.49.65.35,1.14-.09.3-.2.59-.27.9-.2.84-.42,1.66-.64,2.49-.16.61-.35,1.22-.5,1.83-.15.61-.11,1.23-.13,1.85-.01.31.07.42.4.41,1.14-.02,2.27,0,3.41,0Z"/><path class="cls-33" d="m231.83,291.96c-1,.06-2,.04-3,.01,0-2.7-.02-5.41.02-8.11.02-1.25.19-2.49.55-3.71.44-1.46,1.06-2.83,1.9-4.1,1.05-1.58,2.35-2.94,3.9-4.05,1.02-.73,2.09-1.38,3.27-1.78,1.17-.41,2.35-.81,3.61-.9.71-.05,1.41-.16,2.12-.14,1.77.03,3.47.38,5.13,1,1.65.62,3.14,1.52,4.5,2.65,1.17.97,2.13,2.12,2.94,3.4.58.9,1.03,1.86,1.42,2.87.21.55.36,1.12.55,1.68.17.51.21,1.06.27,1.6.35,3.19.08,6.39.17,9.58-1,.04-2,.05-3,0,0-2.28-.02-4.57.01-6.85.02-1.31-.15-2.6-.47-3.87-.45-1.78-1.28-3.39-2.48-4.76-1.47-1.68-3.26-2.95-5.42-3.64-1.53-.49-3.08-.64-4.69-.54-1.49.09-2.89.44-4.22,1.06-2.21,1.03-3.95,2.61-5.24,4.69-1.11,1.79-1.72,3.76-1.8,5.84-.1,2.69-.02,5.38-.02,8.08Z"/><path class="cls-12" d="m253.11,291.97c0-2.42.02-4.85,0-7.27-.01-1.29-.19-2.56-.71-3.76-.41-.95-.96-1.81-1.64-2.6-1.01-1.18-2.27-1.99-3.7-2.51-1.32-.48-2.7-.64-4.13-.46-.87.11-1.71.31-2.49.65-2.18.95-3.78,2.51-4.77,4.69-.46,1.02-.65,2.09-.7,3.2-.13,2.69-.02,5.38-.06,8.06-1.02.02-2.04.04-3.06-.01,0-2.69-.08-5.39.02-8.08.08-2.08.68-4.05,1.8-5.84,1.29-2.08,3.03-3.66,5.24-4.69,1.33-.62,2.73-.97,4.22-1.06,1.61-.09,3.16.06,4.69.54,2.16.69,3.94,1.95,5.42,3.64,1.2,1.38,2.03,2.98,2.48,4.76.32,1.27.49,2.55.47,3.87-.03,2.28-.01,4.57-.01,6.85-1.02.05-2.04.04-3.07,0Z"/><path class="cls-22" d="m244,313.26c-1.14,0-2.27-.02-3.41,0-.33,0-.41-.1-.4-.41.02-.62-.01-1.25.13-1.85.15-.62.34-1.22.5-1.83.22-.83.44-1.66.64-2.49.07-.31.18-.6.27-.9.14-.49,0-.88-.35-1.14-1.12-.83-1.25-1.97-1.14-3.22.06-.03.06-.08.03-.14.34-1.51,1.28-2.47,2.7-3.02.34-.13.7-.05,1.02-.21.15.02.31.04.46.07.03.08.07.12.14.03.08.02.16.04.24.05.04.11.14.08.22.08,1.58.51,2.98,2.5,2.68,4.16-.14.79-.4,1.48-.99,2.03-.36.33-.78.65-.56,1.25.14.39.25.78.36,1.18.38,1.48.81,2.94,1.17,4.43.13.55.09,1.14.08,1.71,0,.25-.17.21-.32.21-1.16,0-2.32,0-3.48.01Z"/><path class="cls-12" d="m245.07,298.28c-.09,0-.18.03-.22-.08.1-.05.17,0,.22.08Z"/><path class="cls-12" d="m244.6,298.15c-.07.09-.11.05-.14-.03.06-.03.1-.02.14.03Z"/><path class="cls-33" d="m240.28,301.27c.03.06.03.1-.03.14-.08-.07-.03-.1.03-.14Z"/><circle class="cls-4" cx="244.13" cy="295.81" r="39.02"/><path class="cls-27" d="m152.31,158.44c2.89-.13,5.71.9,7.83,2.88.51.38.63,1.09.27,1.62-.36.45-.99.45-1.62,0-1.63-1.6-3.84-2.44-6.12-2.34-1.9.05-3.73.78-5.13,2.07-.16.18-.34.33-.54.45-.44.35-1.08.27-1.43-.17,0,0,0,0-.01-.01-.32-.39-.32-.96,0-1.35.55-.58,1.19-1.06,1.89-1.44,1.48-.96,3.19-1.52,4.95-1.62l-.09-.09Z"/><path class="cls-9" d="m152.76,162.22c1.97-.01,3.87.73,5.31,2.07.63.54.72,1.17.27,1.62-.44.45-1.16.45-1.6.02,0,0-.01-.01-.02-.02-2.13-1.98-5.43-1.98-7.56,0-.63.54-1.17.54-1.62.09s-.36-1.08.18-1.62c1.38-1.26,3.17-2,5.04-2.07v-.09Z"/><path class="cls-9" d="m152.85,166c1.2,0,2.35.46,3.24,1.26.43.35.55.96.27,1.44h0c-.34.45-.98.53-1.43.19,0,0,0,0-.01-.01h0c-1.04-.97-2.65-.97-3.69,0-.3.4-.86.48-1.26.18-.07-.05-.13-.11-.18-.18l-.09-.09c-.35-.47-.26-1.13.21-1.49.02-.01.04-.03.06-.04h0c.85-.8,1.98-1.25,3.15-1.26h-.27Z"/><path class="cls-1" d="m171.39,188.5c-1.35-4.77,2.97-14.85-4.41-15.48h-27.9c-7.83.18-3.51,10.62-4.86,15.48v6.03c1.35,4.77-2.88,14.49,4.14,15.48h28.8c7.11-.9,2.88-10.8,4.23-15.48v-6.03Z"/><circle class="cls-5" cx="152.85" cy="177.34" r="40.5"/><path d="m131.52,161.5l-1.08,1.98-5.13-2.88,2.43,4.32v.27l-5.13.18,5.13,2.88-1.08,1.98-8.82-4.95,1.08-1.98,5.22-.18-2.61-4.59,1.08-1.98,8.82,4.95h.09Z"/><path d="m129.54,158.62c-1.4-1.54-1.28-3.92.26-5.31.03-.03.07-.06.1-.09,1.59-1.38,4-1.22,5.4.36,1.4,1.54,1.28,3.92-.26,5.31-.03.03-.07.06-.1.09-1.59,1.38-4,1.22-5.4-.36Zm4.14-3.6c-.62-.65-1.65-.67-2.3-.05-.65.62-.67,1.65-.05,2.3.61.63,1.61.67,2.26.09.67-.53.78-1.49.26-2.16-.05-.06-.11-.12-.17-.18Z"/><path d="m140.7,143.77l4.14,9.18-1.98.9-.27-.63c-.25.79-.85,1.42-1.62,1.71-1.77.76-3.83-.06-4.59-1.83-.03-.08-.06-.16-.09-.24-.93-1.72-.29-3.87,1.43-4.81.03-.02.07-.04.1-.05.74-.34,1.58-.37,2.34-.09l-1.44-3.24,1.98-.9Zm.72,6.75c-.44-.83-1.46-1.14-2.29-.7-.83.44-1.14,1.46-.7,2.29.42.78,1.37,1.11,2.18.75.85-.37,1.24-1.36.87-2.22-.02-.04-.04-.08-.06-.12Z"/><path d="m149.16,150.52c.52.01,1.01-.26,1.26-.72l1.89.72c-.56,1.11-1.67,1.83-2.91,1.92-2.03.42-4.03-.88-4.45-2.92-.02-.11-.04-.21-.05-.32-.35-2.02,1.01-3.94,3.04-4.29.07-.01.14-.02.2-.03,1.96-.31,3.81,1.04,4.11,3,.01.08.02.16.03.24v.9l-5.04.72c.36.68,1.17.98,1.89.72l.03.06Zm.99-2.79c-.26-.69-1-1.07-1.71-.9-.73.07-1.32.63-1.44,1.35l3.06-.45h.09Z"/><path d="m164.7,149.35l-.9,4.32-2.07-.45.9-4.14c.18-.72-.09-1.26-.81-1.35s-1.17.27-1.35,1.08l-.81,3.96-2.07-.45.9-4.14c.18-.72-.09-1.26-.81-1.35s-1.17.27-1.35,1.08l-.81,3.96-2.07-.45,1.53-7.02,2.07.45-.18.63c.56-.5,1.35-.67,2.07-.45.74.12,1.36.64,1.62,1.35.62-.52,1.46-.72,2.25-.54,1.62.36,2.43,1.71,2.07,3.51h-.18Z"/><path d="m167.16,149.8l4.68,2.79-1.08,1.8-4.68-2.79,1.08-1.8Z"/><path d="m176.97,160.33c-1.29,1.3-3.38,1.31-4.68.03-.09-.09-.18-.19-.27-.3-1.11-1.02-1.52-2.6-1.02-4.02l2.25.63c-.34.61-.19,1.37.36,1.8.4.54,1.17.65,1.71.25.03-.02.06-.05.09-.07.45-.45.54-1.08-.18-1.8l-.36-.36.27-1.53,2.97-.36-2.61-2.61,1.53-1.53,4.59,4.59-1.35,1.35-2.79.36c.63,1.14.45,2.56-.45,3.51l-.06.06Z"/><path d="m183.9,169.69c-2.29,1.28-5.18.46-6.45-1.83-.08-.14-.15-.28-.21-.42-1.32-2.56-.31-5.7,2.25-7.02,2.56-1.32,5.7-.31,7.02,2.25h0c.83,1.55.8,3.43-.09,4.95l-1.89-1.26c.45-.84.45-1.86,0-2.7-.7-1.48-2.47-2.1-3.95-1.4-.04.02-.07.03-.1.05-1.45.66-2.09,2.36-1.44,3.81.05.11.11.22.18.33.41,1.02,1.42,1.67,2.52,1.62l-1.17-2.43,1.8-.9,2.25,4.5-.81.36.09.09Z"/><path d="m145.92,189.22c1.05.33,1.99.95,2.7,1.8.68.87,1.04,1.95.99,3.06.08,1.68-.61,3.31-1.89,4.41-1.31,1.02-2.93,1.56-4.59,1.53-1.36.06-2.71-.28-3.87-.99-1.17-.63-2.04-1.7-2.43-2.97l3.96-2.25c.23,1.13,1.28,1.91,2.43,1.8,1.26,0,1.17-.18,1.44-.45.65-.55.72-1.52.17-2.17-.05-.06-.11-.12-.17-.17-.42-.31-.92-.47-1.44-.45h-1.02l-1.71-2.52,2.79-3.42h-5.94v-4.29h11.43v3.51l-2.97,3.6.12-.03Z"/><path d="m169.2,189.58v1.8c.22,4.6-3.32,8.51-7.92,8.73-.27.01-.54.01-.81,0-2.51.06-4.94-.88-6.75-2.61-1.73-1.7-2.68-4.05-2.61-6.48-.03-2.45.91-4.81,2.61-6.57,1.72-1.77,4.1-2.75,6.57-2.7,1.58-.15,3.16.23,4.5,1.08,1.32.69,2.44,1.72,3.24,2.97l-3.78,2.16c-.4-.56-.92-1.02-1.53-1.35-.72-.37-1.53-.55-2.34-.54-1.28-.04-2.51.45-3.42,1.35-.91.93-1.4,2.2-1.35,3.51-.06,1.28.43,2.52,1.35,3.42.98.96,2.32,1.48,3.69,1.44,1.53,0,3.42-.81,4.05-2.34h-4.23v-3.87h8.73Z"/><path class="cls-27" d="m58.58,158.44c2.89-.13,5.71.9,7.83,2.88.51.38.63,1.09.27,1.62-.36.45-.99.45-1.62,0-1.63-1.6-3.84-2.44-6.12-2.34-1.9.05-3.73.78-5.13,2.07-.16.18-.34.33-.54.45-.44.35-1.08.27-1.43-.17,0,0,0,0-.01-.01-.32-.39-.32-.96,0-1.35.55-.58,1.19-1.06,1.89-1.44,1.48-.96,3.19-1.52,4.95-1.62l-.09-.09Z"/><path class="cls-9" d="m59.03,162.22c1.97-.01,3.87.73,5.31,2.07.63.54.72,1.17.27,1.62-.44.45-1.16.45-1.6.02,0,0-.01-.01-.02-.02-2.13-1.98-5.43-1.98-7.56,0-.63.54-1.17.54-1.62.09s-.36-1.08.18-1.62c1.38-1.26,3.17-2,5.04-2.07v-.09Z"/><path class="cls-9" d="m59.12,166c1.2,0,2.35.46,3.24,1.26.43.35.55.96.27,1.44h0c-.34.45-.98.53-1.43.19,0,0,0,0-.01-.01h0c-1.04-.97-2.65-.97-3.69,0-.3.4-.86.48-1.26.18-.07-.05-.13-.11-.18-.18l-.09-.09c-.35-.47-.26-1.13.21-1.49.02-.01.04-.03.06-.04h0c.85-.8,1.98-1.25,3.15-1.26h-.27Z"/><path class="cls-21" d="m77.66,188.5c-1.35-4.77,2.97-14.85-4.41-15.48h-27.9c-7.83.18-3.51,10.62-4.86,15.48v6.03c1.35,4.77-2.88,14.49,4.14,15.48h28.8c7.11-.9,2.88-10.8,4.23-15.48v-6.03Z"/><circle class="cls-5" cx="59.12" cy="177.34" r="40.5"/><path d="m37.79,161.5l-1.08,1.98-5.13-2.88,2.43,4.32v.27l-5.13.18,5.13,2.88-1.08,1.98-8.82-4.95,1.08-1.98,5.22-.18-2.61-4.59,1.08-1.98,8.82,4.95h.09Z"/><path d="m35.81,158.62c-1.4-1.54-1.28-3.92.26-5.31.03-.03.07-.06.1-.09,1.59-1.38,4-1.22,5.4.36,1.39,1.59,1.23,4.01-.36,5.4-1.59,1.39-4.01,1.23-5.4-.36Zm4.14-3.6c-.62-.65-1.65-.67-2.3-.05-.65.62-.67,1.65-.05,2.3.61.63,1.61.67,2.26.09.67-.53.78-1.49.26-2.16-.05-.06-.11-.12-.17-.18h0Z"/><path d="m46.97,143.77l4.14,9.18-1.98.9-.27-.63c-.25.79-.85,1.42-1.62,1.71-1.77.76-3.83-.06-4.59-1.83-.03-.08-.06-.16-.09-.24-.93-1.72-.29-3.87,1.43-4.81.03-.02.07-.04.1-.05.74-.34,1.58-.37,2.34-.09l-1.44-3.24,1.98-.9Zm.72,6.75c-.44-.83-1.46-1.14-2.29-.7-.83.44-1.14,1.46-.7,2.29.42.78,1.37,1.11,2.18.75.85-.37,1.24-1.36.87-2.22-.02-.04-.04-.08-.06-.12Z"/><path d="m55.43,150.52c.52.01,1.01-.26,1.26-.72l1.89.72c-.57,1.09-1.66,1.8-2.88,1.89-2.03.42-4.03-.88-4.45-2.92-.02-.11-.04-.21-.05-.32-.35-2.02,1.01-3.94,3.04-4.29.07-.01.14-.02.2-.03,1.96-.31,3.81,1.04,4.11,3,.01.08.02.16.03.24v.9l-5.04.72c.36.68,1.17.98,1.89.72v.09Zm.99-2.79c-.26-.69-1-1.07-1.71-.9-.73.07-1.32.63-1.44,1.35l3.06-.45h.09Z"/><path d="m71,149.35l-.9,4.32-2.07-.45.9-4.14c.18-.72-.09-1.26-.81-1.35s-1.17.27-1.35,1.08l-.81,3.96-2.07-.45.9-4.14c.18-.72-.09-1.26-.81-1.35s-1.17.27-1.35,1.08l-.81,3.96-2.07-.45,1.53-7.02,2.07.45-.18.63c.56-.5,1.35-.67,2.07-.45.74.12,1.36.64,1.62,1.35.62-.52,1.46-.72,2.25-.54,1.62.36,2.43,1.71,2.07,3.51h-.18Z"/><path d="m73.43,149.8l4.68,2.79-1.08,1.8-4.68-2.79,1.08-1.8Z"/><path d="m77.12,156.28h4.86c.71.01,1.41-.21,1.98-.63.42-.39.45-1.04.07-1.46-.02-.02-.04-.05-.07-.07-.47-.48-1.21-.59-1.8-.27l-.54-2.16c1.36-.59,2.94-.26,3.96.81,1.34,1.16,1.48,3.19.32,4.53-.04.05-.09.1-.14.15-.9.83-2.11,1.25-3.33,1.17h-2.34l2.43,2.43-1.53,1.53-4.86-4.86,1.17-1.17h-.18Z"/><path d="m89.99,169.15c-2.22,1.31-5.09.58-6.4-1.65-.1-.17-.19-.34-.26-.51-1.43-2.47-.58-5.63,1.89-7.06.09-.05.18-.1.27-.14,2.56-1.35,5.73-.37,7.08,2.19.01.02.02.04.03.06.86,1.54.86,3.41,0,4.95l-1.89-1.26c.41-.85.41-1.85,0-2.7-.7-1.44-2.44-2.05-3.88-1.35-.06.03-.11.06-.17.09-1.43.69-2.03,2.4-1.34,3.83.05.11.11.21.17.31.41,1.05,1.49,1.69,2.61,1.53l-1.26-2.43,1.8-.9,2.34,4.5-.81.36-.18.18Z"/><path d="m43.37,199.66v-3.24l5.85-6.12c.46-.47.88-.99,1.26-1.53.24-.34.37-.75.36-1.17-.01-.4-.17-.79-.45-1.08-.32-.28-.75-.41-1.17-.36-1.08.04-2.03.76-2.34,1.8l-3.87-2.16c.99-2.54,3.49-4.16,6.21-4.05,1.57.03,3.09.56,4.32,1.53,1.19,1,1.85,2.49,1.8,4.05.1.99-.16,1.98-.72,2.79-.54,1-1.24,1.92-2.07,2.7l-2.43,2.52h5.49v4.32h-12.24Z"/><path d="m74.78,189.58v1.8c.22,4.6-3.32,8.51-7.92,8.73-.27.01-.54.01-.81,0-2.51.06-4.94-.88-6.75-2.61-1.73-1.7-2.68-4.05-2.61-6.48-.03-2.45.91-4.81,2.61-6.57,1.72-1.77,4.1-2.75,6.57-2.7,1.58-.15,3.16.23,4.5,1.08,1.32.69,2.44,1.72,3.24,2.97l-3.78,2.16c-.4-.56-.92-1.02-1.53-1.35-.72-.37-1.53-.55-2.34-.54-1.28-.04-2.51.45-3.42,1.35-.91.93-1.4,2.2-1.35,3.51-.06,1.28.43,2.52,1.35,3.42.98.96,2.32,1.48,3.69,1.44,1.53,0,3.42-.81,4.05-2.34h-4.23v-3.87h8.73,0Z"/><line class="cls-7" x1="199.13" y1="107.76" x2="196.87" y2="590"/><line class="cls-6" x1="199.13" y1="107.76" x2="196.93" y2="579.24"/><polygon class="cls-43" points="189.46 577.01 196.87 590 204.41 577.08 189.46 577.01"/><line class="cls-2" x1="54.82" y1="112.21" x2="336.74" y2="112.21"/><line class="cls-6" x1="55.26" y1="112" x2="55.26" y2="121.33"/><polygon class="cls-43" points="48.78 119.43 55.26 130.66 61.74 119.43 48.78 119.43"/><line class="cls-6" x1="148.93" y1="112" x2="148.93" y2="121.33"/><polygon class="cls-43" points="142.44 119.43 148.92 130.66 155.41 119.43 142.44 119.43"/><line class="cls-6" x1="242.59" y1="112" x2="242.59" y2="121.33"/><polygon class="cls-43" points="236.11 119.43 242.59 130.66 249.07 119.43 236.11 119.43"/><line class="cls-6" x1="336.26" y1="112" x2="336.26" y2="121.33"/><polygon class="cls-43" points="329.78 119.43 336.26 130.66 342.74 119.43 329.78 119.43"/><line class="cls-2" x1="54.82" y1="465.21" x2="336.74" y2="465.21"/><line class="cls-6" x1="55.26" y1="465" x2="55.26" y2="474.33"/><polygon class="cls-43" points="48.78 472.43 55.26 483.66 61.74 472.43 48.78 472.43"/><line class="cls-6" x1="148.93" y1="465" x2="148.93" y2="474.33"/><polygon class="cls-43" points="142.44 472.43 148.92 483.66 155.41 472.43 142.44 472.43"/><line class="cls-6" x1="242.59" y1="465" x2="242.59" y2="474.33"/><polygon class="cls-43" points="236.11 472.43 242.59 483.66 249.07 472.43 236.11 472.43"/><line class="cls-6" x1="336.26" y1="465" x2="336.26" y2="474.33"/><polygon class="cls-43" points="329.78 472.43 336.26 483.66 342.74 472.43 329.78 472.43"/><line class="cls-2" x1="54.82" y1="346.21" x2="336.74" y2="346.21"/><line class="cls-6" x1="55.26" y1="346" x2="55.26" y2="355.33"/><polygon class="cls-43" points="48.78 353.43 55.26 364.66 61.74 353.43 48.78 353.43"/><line class="cls-6" x1="148.93" y1="346" x2="148.93" y2="355.33"/><polygon class="cls-43" points="142.44 353.43 148.92 364.66 155.41 353.43 142.44 353.43"/><line class="cls-6" x1="242.59" y1="346" x2="242.59" y2="355.33"/><polygon class="cls-43" points="236.11 353.43 242.59 364.66 249.07 353.43 236.11 353.43"/><line class="cls-6" x1="336.26" y1="346" x2="336.26" y2="355.33"/><polygon class="cls-43" points="329.78 353.43 336.26 364.66 342.74 353.43 329.78 353.43"/><line class="cls-2" x1="54.82" y1="230.21" x2="336.74" y2="230.21"/><line class="cls-6" x1="55.26" y1="230" x2="55.26" y2="239.33"/><polygon class="cls-43" points="48.78 237.43 55.26 248.66 61.74 237.43 48.78 237.43"/><line class="cls-6" x1="148.93" y1="230" x2="148.93" y2="239.33"/><polygon class="cls-43" points="142.44 237.43 148.92 248.66 155.41 237.43 142.44 237.43"/><line class="cls-6" x1="242.59" y1="230" x2="242.59" y2="239.33"/><polygon class="cls-43" points="236.11 237.43 242.59 248.66 249.07 237.43 236.11 237.43"/><line class="cls-6" x1="336.26" y1="230" x2="336.26" y2="239.33"/><polygon class="cls-43" points="329.78 237.43 336.26 248.66 342.74 237.43 329.78 237.43"/><path class="cls-42" d="m209.18,629.63c.5,0,.99.02,1.49.02.84,0,1.54.69,1.55,1.54,0,.78,0,1.56,0,2.33,0,6.58,0,13.16,0,19.75,0,.43-.02.86-.15,1.28-.15.49-.75.93-1.27.93-5.57,0-11.15,0-16.72,0-.03,0-.05,0-.08,0,0-1.51,0-3.03,0-4.54,1.16,0,2.32,0,3.48-.01.15,0,.32.04.32-.21,0-.57.05-1.16-.08-1.71-.36-1.48-.79-2.95-1.17-4.43-.1-.4-.22-.79-.36-1.18-.22-.61.19-.92.56-1.25.6-.55.85-1.24.99-2.03.3-1.66-1.1-3.65-2.68-4.16-.05-.09-.12-.13-.22-.08-.08-.02-.16-.04-.24-.05-.04-.05-.08-.07-.14-.03-.15-.02-.31-.04-.46-.07,0-2.01,0-4.03,0-6.04,2.86,0,5.71,0,8.57-.02.18,0,.36-.01.53-.02,1.02.03,2.04.05,3.07,0,1,.06,2,.04,3.01,0Z"/><path class="cls-18" d="m194,650.92c0,1.51,0,3.03,0,4.54-.57,0-1.15.01-1.72.01-4.86,0-9.72-.02-14.58.02-1.28.01-1.94-.69-1.94-1.94.04-7.44.03-14.88,0-22.32,0-.89.72-1.6,1.57-1.59.5,0,.99-.01,1.49-.02,1,.03,2,.05,3-.01,1.02.06,2.04.03,3.06.01.17,0,.33.02.5.02,2.87,0,5.74,0,8.61.01,0,2.01,0,4.03,0,6.04-.32.15-.68.08-1.02.21-1.42.55-2.36,1.51-2.7,3.02-.06.03-.11.07-.03.14-.11,1.25.02,2.39,1.14,3.22.35.26.49.65.35,1.14-.09.3-.2.59-.27.9-.2.84-.42,1.66-.64,2.49-.16.61-.35,1.22-.5,1.83-.15.61-.11,1.23-.13,1.85-.01.31.07.42.4.41,1.14-.02,2.27,0,3.41,0Z"/><path class="cls-33" d="m181.83,629.62c-1,.06-2,.04-3,.01,0-2.7-.02-5.41.02-8.11.02-1.25.19-2.49.55-3.71.44-1.46,1.06-2.83,1.9-4.1,1.05-1.58,2.35-2.94,3.9-4.05,1.02-.73,2.09-1.38,3.27-1.78,1.17-.41,2.35-.81,3.61-.9.71-.05,1.41-.16,2.12-.14,1.77.03,3.47.38,5.13,1,1.65.62,3.14,1.52,4.5,2.65,1.17.97,2.13,2.12,2.94,3.4.58.9,1.03,1.86,1.42,2.87.21.55.36,1.12.55,1.68.17.51.21,1.06.27,1.6.35,3.19.08,6.39.17,9.58-1,.04-2,.05-3,0,0-2.28-.02-4.57.01-6.85.02-1.31-.15-2.6-.47-3.87-.45-1.78-1.28-3.39-2.48-4.76-1.47-1.68-3.26-2.95-5.42-3.64-1.53-.49-3.08-.64-4.69-.54-1.49.09-2.89.44-4.22,1.06-2.21,1.03-3.95,2.61-5.24,4.69-1.11,1.79-1.72,3.76-1.8,5.84-.1,2.69-.02,5.38-.02,8.08Z"/><path class="cls-12" d="m203.11,629.63c0-2.42.02-4.85,0-7.27-.01-1.29-.19-2.56-.71-3.76-.41-.95-.96-1.81-1.64-2.6-1.01-1.18-2.27-1.99-3.7-2.51-1.32-.48-2.7-.64-4.13-.46-.87.11-1.71.31-2.49.65-2.18.95-3.78,2.51-4.77,4.69-.46,1.02-.65,2.09-.7,3.2-.13,2.69-.02,5.38-.06,8.06-1.02.02-2.04.04-3.06-.01,0-2.69-.08-5.39.02-8.08.08-2.08.68-4.05,1.8-5.84,1.29-2.08,3.03-3.66,5.24-4.69,1.33-.62,2.73-.97,4.22-1.06,1.61-.09,3.16.06,4.69.54,2.16.69,3.94,1.95,5.42,3.64,1.2,1.38,2.03,2.98,2.48,4.76.32,1.27.49,2.55.47,3.87-.03,2.28-.01,4.57-.01,6.85-1.02.05-2.04.04-3.07,0Z"/><path class="cls-22" d="m194,650.92c-1.14,0-2.27-.02-3.41,0-.33,0-.41-.1-.4-.41.02-.62-.01-1.25.13-1.85.15-.62.34-1.22.5-1.83.22-.83.44-1.66.64-2.49.07-.31.18-.6.27-.9.14-.49,0-.88-.35-1.14-1.12-.83-1.25-1.97-1.14-3.22.06-.03.06-.08.03-.14.34-1.51,1.28-2.47,2.7-3.02.34-.13.7-.05,1.02-.21.15.02.31.04.46.07.03.08.07.12.14.03.08.02.16.04.24.05.04.11.14.08.22.08,1.58.51,2.98,2.5,2.68,4.16-.14.79-.4,1.48-.99,2.03-.36.33-.78.65-.56,1.25.14.39.25.78.36,1.18.38,1.48.81,2.94,1.17,4.43.13.55.09,1.14.08,1.71,0,.25-.17.21-.32.21-1.16,0-2.32,0-3.48.01Z"/><path class="cls-12" d="m195.07,635.94c-.09,0-.18.03-.22-.08.1-.05.17,0,.22.08Z"/><path class="cls-12" d="m194.6,635.81c-.07.09-.11.05-.14-.03.06-.03.1-.02.14.03Z"/><path class="cls-33" d="m190.28,638.93c.03.06.03.1-.03.14-.08-.07-.03-.1.03-.14Z"/><circle class="cls-4" cx="194.13" cy="633.47" r="39.02"/><path class="cls-42" d="m353.18,527.63c.5,0,.99.02,1.49.02.84,0,1.54.69,1.55,1.54,0,.78,0,1.56,0,2.33,0,6.58,0,13.16,0,19.75,0,.43-.02.86-.15,1.28-.15.49-.75.93-1.27.93-5.57,0-11.15,0-16.72,0-.03,0-.05,0-.08,0,0-1.51,0-3.03,0-4.54,1.16,0,2.32,0,3.48-.01.15,0,.32.04.32-.21,0-.57.05-1.16-.08-1.71-.36-1.48-.79-2.95-1.17-4.43-.1-.4-.22-.79-.36-1.18-.22-.61.19-.92.56-1.25.6-.55.85-1.24.99-2.03.3-1.66-1.1-3.65-2.68-4.16-.05-.09-.12-.13-.22-.08-.08-.02-.16-.04-.24-.05-.04-.05-.08-.07-.14-.03-.15-.02-.31-.04-.46-.07,0-2.01,0-4.03,0-6.04,2.86,0,5.71,0,8.57-.02.18,0,.36-.01.53-.02,1.02.03,2.04.05,3.07,0,1,.06,2,.04,3.01,0Z"/><path class="cls-18" d="m338,548.92c0,1.51,0,3.03,0,4.54-.57,0-1.15.01-1.72.01-4.86,0-9.72-.02-14.58.02-1.28.01-1.94-.69-1.94-1.94.04-7.44.03-14.88,0-22.32,0-.89.72-1.6,1.57-1.59.5,0,.99-.01,1.49-.02,1,.03,2,.05,3-.01,1.02.06,2.04.03,3.06.01.17,0,.33.02.5.02,2.87,0,5.74,0,8.61.01,0,2.01,0,4.03,0,6.04-.32.15-.68.08-1.02.21-1.42.55-2.36,1.51-2.7,3.02-.06.03-.11.07-.03.14-.11,1.25.02,2.39,1.14,3.22.35.26.49.65.35,1.14-.09.3-.2.59-.27.9-.2.84-.42,1.66-.64,2.49-.16.61-.35,1.22-.5,1.83-.15.61-.11,1.23-.13,1.85-.01.31.07.42.4.41,1.14-.02,2.27,0,3.41,0Z"/><path class="cls-33" d="m325.83,527.62c-1,.06-2,.04-3,.01,0-2.7-.02-5.41.02-8.11.02-1.25.19-2.49.55-3.71.44-1.46,1.06-2.83,1.9-4.1,1.05-1.58,2.35-2.94,3.9-4.05,1.02-.73,2.09-1.38,3.27-1.78,1.17-.41,2.35-.81,3.61-.9.71-.05,1.41-.16,2.12-.14,1.77.03,3.47.38,5.13,1,1.65.62,3.14,1.52,4.5,2.65,1.17.97,2.13,2.12,2.94,3.4.58.9,1.03,1.86,1.42,2.87.21.55.36,1.12.55,1.68.17.51.21,1.06.27,1.6.35,3.19.08,6.39.17,9.58-1,.04-2,.05-3,0,0-2.28-.02-4.57.01-6.85.02-1.31-.15-2.6-.47-3.87-.45-1.78-1.28-3.39-2.48-4.76-1.47-1.68-3.26-2.95-5.42-3.64-1.53-.49-3.08-.64-4.69-.54-1.49.09-2.89.44-4.22,1.06-2.21,1.03-3.95,2.61-5.24,4.69-1.11,1.79-1.72,3.76-1.8,5.84-.1,2.69-.02,5.38-.02,8.08Z"/><path class="cls-12" d="m347.11,527.63c0-2.42.02-4.85,0-7.27-.01-1.29-.19-2.56-.71-3.76-.41-.95-.96-1.81-1.64-2.6-1.01-1.18-2.27-1.99-3.7-2.51-1.32-.48-2.7-.64-4.13-.46-.87.11-1.71.31-2.49.65-2.18.95-3.78,2.51-4.77,4.69-.46,1.02-.65,2.09-.7,3.2-.13,2.69-.02,5.38-.06,8.06-1.02.02-2.04.04-3.06-.01,0-2.69-.08-5.39.02-8.08.08-2.08.68-4.05,1.8-5.84,1.29-2.08,3.03-3.66,5.24-4.69,1.33-.62,2.73-.97,4.22-1.06,1.61-.09,3.16.06,4.69.54,2.16.69,3.94,1.95,5.42,3.64,1.2,1.38,2.03,2.98,2.48,4.76.32,1.27.49,2.55.47,3.87-.03,2.28-.01,4.57-.01,6.85-1.02.05-2.04.04-3.07,0Z"/><path class="cls-22" d="m338,548.92c-1.14,0-2.27-.02-3.41,0-.33,0-.41-.1-.4-.41.02-.62-.01-1.25.13-1.85.15-.62.34-1.22.5-1.83.22-.83.44-1.66.64-2.49.07-.31.18-.6.27-.9.14-.49,0-.88-.35-1.14-1.12-.83-1.25-1.97-1.14-3.22.06-.03.06-.08.03-.14.34-1.51,1.28-2.47,2.7-3.02.34-.13.7-.05,1.02-.21.15.02.31.04.46.07.03.08.07.12.14.03.08.02.16.04.24.05.04.11.14.08.22.08,1.58.51,2.98,2.5,2.68,4.16-.14.79-.4,1.48-.99,2.03-.36.33-.78.65-.56,1.25.14.39.25.78.36,1.18.38,1.48.81,2.94,1.17,4.43.13.55.09,1.14.08,1.71,0,.25-.17.21-.32.21-1.16,0-2.32,0-3.48.01Z"/><path class="cls-12" d="m339.07,533.94c-.09,0-.18.03-.22-.08.1-.05.17,0,.22.08Z"/><path class="cls-12" d="m338.6,533.81c-.07.09-.11.05-.14-.03.06-.03.1-.02.14.03Z"/><path class="cls-33" d="m334.28,536.93c.03.06.03.1-.03.14-.08-.07-.03-.1.03-.14Z"/><circle class="cls-4" cx="338.13" cy="531.47" r="39.02"/><path class="cls-42" d="m259.18,409.63c.5,0,.99.02,1.49.02.84,0,1.54.69,1.55,1.54,0,.78,0,1.56,0,2.33,0,6.58,0,13.16,0,19.75,0,.43-.02.86-.15,1.28-.15.49-.75.93-1.27.93-5.57,0-11.15,0-16.72,0-.03,0-.05,0-.08,0,0-1.51,0-3.03,0-4.54,1.16,0,2.32,0,3.48-.01.15,0,.32.04.32-.21,0-.57.05-1.16-.08-1.71-.36-1.48-.79-2.95-1.17-4.43-.1-.4-.22-.79-.36-1.18-.22-.61.19-.92.56-1.25.6-.55.85-1.24.99-2.03.3-1.66-1.1-3.65-2.68-4.16-.05-.09-.12-.13-.22-.08-.08-.02-.16-.04-.24-.05-.04-.05-.08-.07-.14-.03-.15-.02-.31-.04-.46-.07,0-2.01,0-4.03,0-6.04,2.86,0,5.71,0,8.57-.02.18,0,.36-.01.53-.02,1.02.03,2.04.05,3.07,0,1,.06,2,.04,3.01,0Z"/><path class="cls-18" d="m244,430.92c0,1.51,0,3.03,0,4.54-.57,0-1.15.01-1.72.01-4.86,0-9.72-.02-14.58.02-1.28.01-1.94-.69-1.94-1.94.04-7.44.03-14.88,0-22.32,0-.89.72-1.6,1.57-1.59.5,0,.99-.01,1.49-.02,1,.03,2,.05,3-.01,1.02.06,2.04.03,3.06.01.17,0,.33.02.5.02,2.87,0,5.74,0,8.61.01,0,2.01,0,4.03,0,6.04-.32.15-.68.08-1.02.21-1.42.55-2.36,1.51-2.7,3.02-.06.03-.11.07-.03.14-.11,1.25.02,2.39,1.14,3.22.35.26.49.65.35,1.14-.09.3-.2.59-.27.9-.2.84-.42,1.66-.64,2.49-.16.61-.35,1.22-.5,1.83-.15.61-.11,1.23-.13,1.85-.01.31.07.42.4.41,1.14-.02,2.27,0,3.41,0Z"/><path class="cls-33" d="m231.83,409.62c-1,.06-2,.04-3,.01,0-2.7-.02-5.41.02-8.11.02-1.25.19-2.49.55-3.71.44-1.46,1.06-2.83,1.9-4.1,1.05-1.58,2.35-2.94,3.9-4.05,1.02-.73,2.09-1.38,3.27-1.78,1.17-.41,2.35-.81,3.61-.9.71-.05,1.41-.16,2.12-.14,1.77.03,3.47.38,5.13,1,1.65.62,3.14,1.52,4.5,2.65,1.17.97,2.13,2.12,2.94,3.4.58.9,1.03,1.86,1.42,2.87.21.55.36,1.12.55,1.68.17.51.21,1.06.27,1.6.35,3.19.08,6.39.17,9.58-1,.04-2,.05-3,0,0-2.28-.02-4.57.01-6.85.02-1.31-.15-2.6-.47-3.87-.45-1.78-1.28-3.39-2.48-4.76-1.47-1.68-3.26-2.95-5.42-3.64-1.53-.49-3.08-.64-4.69-.54-1.49.09-2.89.44-4.22,1.06-2.21,1.03-3.95,2.61-5.24,4.69-1.11,1.79-1.72,3.76-1.8,5.84-.1,2.69-.02,5.38-.02,8.08Z"/><path class="cls-12" d="m253.11,409.63c0-2.42.02-4.85,0-7.27-.01-1.29-.19-2.56-.71-3.76-.41-.95-.96-1.81-1.64-2.6-1.01-1.18-2.27-1.99-3.7-2.51-1.32-.48-2.7-.64-4.13-.46-.87.11-1.71.31-2.49.65-2.18.95-3.78,2.51-4.77,4.69-.46,1.02-.65,2.09-.7,3.2-.13,2.69-.02,5.38-.06,8.06-1.02.02-2.04.04-3.06-.01,0-2.69-.08-5.39.02-8.08.08-2.08.68-4.05,1.8-5.84,1.29-2.08,3.03-3.66,5.24-4.69,1.33-.62,2.73-.97,4.22-1.06,1.61-.09,3.16.06,4.69.54,2.16.69,3.94,1.95,5.42,3.64,1.2,1.38,2.03,2.98,2.48,4.76.32,1.27.49,2.55.47,3.87-.03,2.28-.01,4.57-.01,6.85-1.02.05-2.04.04-3.07,0Z"/><path class="cls-22" d="m244,430.92c-1.14,0-2.27-.02-3.41,0-.33,0-.41-.1-.4-.41.02-.62-.01-1.25.13-1.85.15-.62.34-1.22.5-1.83.22-.83.44-1.66.64-2.49.07-.31.18-.6.27-.9.14-.49,0-.88-.35-1.14-1.12-.83-1.25-1.97-1.14-3.22.06-.03.06-.08.03-.14.34-1.51,1.28-2.47,2.7-3.02.34-.13.7-.05,1.02-.21.15.02.31.04.46.07.03.08.07.12.14.03.08.02.16.04.24.05.04.11.14.08.22.08,1.58.51,2.98,2.5,2.68,4.16-.14.79-.4,1.48-.99,2.03-.36.33-.78.65-.56,1.25.14.39.25.78.36,1.18.38,1.48.81,2.94,1.17,4.43.13.55.09,1.14.08,1.71,0,.25-.17.21-.32.21-1.16,0-2.32,0-3.48.01Z"/><path class="cls-12" d="m245.07,415.94c-.09,0-.18.03-.22-.08.1-.05.17,0,.22.08Z"/><path class="cls-12" d="m244.6,415.81c-.07.09-.11.05-.14-.03.06-.03.1-.02.14.03Z"/><path class="cls-33" d="m240.28,418.93c.03.06.03.1-.03.14-.08-.07-.03-.1.03-.14Z"/><circle class="cls-4" cx="244.13" cy="413.47" r="39.02"/><path class="cls-42" d="m259.18,173.63c.5,0,.99.02,1.49.02.84,0,1.54.69,1.55,1.54,0,.78,0,1.56,0,2.33,0,6.58,0,13.16,0,19.75,0,.43-.02.86-.15,1.28-.15.49-.75.93-1.27.93-5.57,0-11.15,0-16.72,0-.03,0-.05,0-.08,0,0-1.51,0-3.03,0-4.54,1.16,0,2.32,0,3.48-.01.15,0,.32.04.32-.21,0-.57.05-1.16-.08-1.71-.36-1.48-.79-2.95-1.17-4.43-.1-.4-.22-.79-.36-1.18-.22-.61.19-.92.56-1.25.6-.55.85-1.24.99-2.03.3-1.66-1.1-3.65-2.68-4.16-.05-.09-.12-.13-.22-.08-.08-.02-.16-.04-.24-.05-.04-.05-.08-.07-.14-.03-.15-.02-.31-.04-.46-.07,0-2.01,0-4.03,0-6.04,2.86,0,5.71,0,8.57-.02.18,0,.36-.01.53-.02,1.02.03,2.04.05,3.07,0,1,.06,2,.04,3.01,0Z"/><path class="cls-18" d="m244,194.92c0,1.51,0,3.03,0,4.54-.57,0-1.15.01-1.72.01-4.86,0-9.72-.02-14.58.02-1.28.01-1.94-.69-1.94-1.94.04-7.44.03-14.88,0-22.32,0-.89.72-1.6,1.57-1.59.5,0,.99-.01,1.49-.02,1,.03,2,.05,3-.01,1.02.06,2.04.03,3.06.01.17,0,.33.02.5.02,2.87,0,5.74,0,8.61.01,0,2.01,0,4.03,0,6.04-.32.15-.68.08-1.02.21-1.42.55-2.36,1.51-2.7,3.02-.06.03-.11.07-.03.14-.11,1.25.02,2.39,1.14,3.22.35.26.49.65.35,1.14-.09.3-.2.59-.27.9-.2.84-.42,1.66-.64,2.49-.16.61-.35,1.22-.5,1.83-.15.61-.11,1.23-.13,1.85-.01.31.07.42.4.41,1.14-.02,2.27,0,3.41,0Z"/><path class="cls-33" d="m231.83,173.62c-1,.06-2,.04-3,.01,0-2.7-.02-5.41.02-8.11.02-1.25.19-2.49.55-3.71.44-1.46,1.06-2.83,1.9-4.1,1.05-1.58,2.35-2.94,3.9-4.05,1.02-.73,2.09-1.38,3.27-1.78,1.17-.41,2.35-.81,3.61-.9.71-.05,1.41-.16,2.12-.14,1.77.03,3.47.38,5.13,1,1.65.62,3.14,1.52,4.5,2.65,1.17.97,2.13,2.12,2.94,3.4.58.9,1.03,1.86,1.42,2.87.21.55.36,1.12.55,1.68.17.51.21,1.06.27,1.6.35,3.19.08,6.39.17,9.58-1,.04-2,.05-3,0,0-2.28-.02-4.57.01-6.85.02-1.31-.15-2.6-.47-3.87-.45-1.78-1.28-3.39-2.48-4.76-1.47-1.68-3.26-2.95-5.42-3.64-1.53-.49-3.08-.64-4.69-.54-1.49.09-2.89.44-4.22,1.06-2.21,1.03-3.95,2.61-5.24,4.69-1.11,1.79-1.72,3.76-1.8,5.84-.1,2.69-.02,5.38-.02,8.08Z"/><path class="cls-12" d="m253.11,173.63c0-2.42.02-4.85,0-7.27-.01-1.29-.19-2.56-.71-3.76-.41-.95-.96-1.81-1.64-2.6-1.01-1.18-2.27-1.99-3.7-2.51-1.32-.48-2.7-.64-4.13-.46-.87.11-1.71.31-2.49.65-2.18.95-3.78,2.51-4.77,4.69-.46,1.02-.65,2.09-.7,3.2-.13,2.69-.02,5.38-.06,8.06-1.02.02-2.04.04-3.06-.01,0-2.69-.08-5.39.02-8.08.08-2.08.68-4.05,1.8-5.84,1.29-2.08,3.03-3.66,5.24-4.69,1.33-.62,2.73-.97,4.22-1.06,1.61-.09,3.16.06,4.69.54,2.16.69,3.94,1.95,5.42,3.64,1.2,1.38,2.03,2.98,2.48,4.76.32,1.27.49,2.55.47,3.87-.03,2.28-.01,4.57-.01,6.85-1.02.05-2.04.04-3.07,0Z"/><path class="cls-22" d="m244,194.92c-1.14,0-2.27-.02-3.41,0-.33,0-.41-.1-.4-.41.02-.62-.01-1.25.13-1.85.15-.62.34-1.22.5-1.83.22-.83.44-1.66.64-2.49.07-.31.18-.6.27-.9.14-.49,0-.88-.35-1.14-1.12-.83-1.25-1.97-1.14-3.22.06-.03.06-.08.03-.14.34-1.51,1.28-2.47,2.7-3.02.34-.13.7-.05,1.02-.21.15.02.31.04.46.07.03.08.07.12.14.03.08.02.16.04.24.05.04.11.14.08.22.08,1.58.51,2.98,2.5,2.68,4.16-.14.79-.4,1.48-.99,2.03-.36.33-.78.65-.56,1.25.14.39.25.78.36,1.18.38,1.48.81,2.94,1.17,4.43.13.55.09,1.14.08,1.71,0,.25-.17.21-.32.21-1.16,0-2.32,0-3.48.01Z"/><path class="cls-12" d="m245.07,179.94c-.09,0-.18.03-.22-.08.1-.05.17,0,.22.08Z"/><path class="cls-12" d="m244.6,179.81c-.07.09-.11.05-.14-.03.06-.03.1-.02.14.03Z"/><path class="cls-33" d="m240.28,182.93c.03.06.03.1-.03.14-.08-.07-.03-.1.03-.14Z"/><circle class="cls-4" cx="244.13" cy="177.47" r="39.02"/><path class="cls-42" d="m352.89,289.26c.52,0,1.04.02,1.56.02.88,0,1.61.72,1.62,1.61,0,.81,0,1.63,0,2.44,0,6.89,0,13.78,0,20.67,0,.45-.02.9-.15,1.34-.16.51-.79.97-1.32.97-5.84,0-11.67,0-17.51,0-.03,0-.05,0-.08,0,0-1.59,0-3.17,0-4.76,1.22,0,2.43,0,3.65-.01.16,0,.33.04.34-.22.01-.6.05-1.21-.09-1.79-.38-1.55-.83-3.09-1.22-4.64-.11-.42-.23-.83-.37-1.23-.23-.63.2-.96.58-1.31.63-.58.89-1.3,1.04-2.13.31-1.74-1.15-3.82-2.8-4.35-.06-.09-.13-.13-.23-.08-.08-.02-.17-.04-.25-.06-.04-.05-.09-.07-.15-.04-.16-.02-.32-.05-.48-.07,0-2.11,0-4.22,0-6.32,2.99,0,5.98-.01,8.97-.02.19,0,.37-.01.56-.02,1.07.03,2.14.05,3.21,0,1.05.06,2.1.05,3.15,0Z"/><path class="cls-18" d="m337,311.55c0,1.59,0,3.17,0,4.76-.6,0-1.2.01-1.8.01-5.09,0-10.18-.03-15.27.02-1.34.01-2.03-.72-2.03-2.03.04-7.79.03-15.58,0-23.36,0-.93.75-1.68,1.64-1.66.52,0,1.04-.01,1.56-.02,1.05.03,2.1.05,3.14-.01,1.07.06,2.14.03,3.21.01.17,0,.35.02.52.02,3,0,6.01,0,9.01.01,0,2.11,0,4.22,0,6.32-.34.16-.72.08-1.07.22-1.49.58-2.47,1.58-2.82,3.16-.06.04-.11.08-.03.14-.12,1.31.02,2.51,1.19,3.37.37.27.51.68.36,1.19-.09.31-.21.62-.29.94-.21.87-.44,1.74-.67,2.61-.17.64-.37,1.28-.52,1.92-.15.64-.11,1.29-.14,1.94-.01.33.08.43.42.43,1.19-.02,2.38,0,3.57,0Z"/><path class="cls-33" d="m324.26,289.25c-1.05.07-2.1.04-3.15.01,0-2.83-.02-5.66.02-8.49.02-1.31.2-2.61.58-3.88.46-1.53,1.11-2.97,1.98-4.29,1.1-1.66,2.46-3.08,4.09-4.24,1.07-.76,2.19-1.44,3.42-1.87,1.22-.42,2.46-.85,3.78-.94.74-.05,1.48-.16,2.22-.15,1.85.03,3.64.4,5.37,1.05,1.73.65,3.29,1.59,4.71,2.78,1.22,1.02,2.23,2.22,3.08,3.56.61.95,1.08,1.95,1.49,3,.22.58.38,1.18.58,1.76.18.53.22,1.11.28,1.68.36,3.34.09,6.69.18,10.03-1.05.04-2.1.05-3.15,0,0-2.39-.02-4.78.01-7.17.02-1.38-.16-2.72-.49-4.05-.47-1.87-1.34-3.55-2.6-4.99-1.54-1.76-3.41-3.09-5.67-3.81-1.6-.51-3.23-.67-4.91-.57-1.56.09-3.03.46-4.42,1.11-2.32,1.08-4.14,2.73-5.49,4.91-1.16,1.87-1.8,3.94-1.88,6.11-.1,2.82-.02,5.64-.02,8.46Z"/><path class="cls-12" d="m346.53,289.26c0-2.54.02-5.07,0-7.61-.01-1.35-.2-2.68-.74-3.94-.43-.99-1-1.9-1.71-2.73-1.06-1.23-2.38-2.09-3.88-2.63-1.38-.5-2.83-.67-4.32-.48-.91.11-1.79.32-2.61.68-2.28.99-3.96,2.63-5,4.91-.49,1.07-.68,2.19-.74,3.35-.14,2.81-.02,5.63-.07,8.44-1.07.02-2.14.05-3.21-.01,0-2.82-.08-5.64.02-8.46.08-2.18.72-4.24,1.88-6.11,1.35-2.17,3.17-3.83,5.49-4.91,1.39-.65,2.86-1.02,4.42-1.11,1.68-.1,3.31.06,4.91.57,2.26.72,4.13,2.04,5.67,3.81,1.26,1.44,2.13,3.12,2.6,4.99.34,1.33.51,2.67.49,4.05-.03,2.39-.01,4.78-.01,7.17-1.07.06-2.14.04-3.21,0Z"/><path class="cls-22" d="m337,311.55c-1.19,0-2.38-.02-3.57,0-.34,0-.43-.1-.42-.43.02-.65-.01-1.3.14-1.94.15-.64.35-1.28.52-1.92.23-.87.46-1.74.67-2.61.08-.32.19-.63.29-.94.15-.51,0-.92-.36-1.19-1.17-.87-1.31-2.07-1.19-3.37.07-.04.06-.09.03-.14.35-1.58,1.34-2.58,2.82-3.16.35-.14.73-.06,1.07-.22.16.02.32.05.48.07.03.08.07.13.15.04.08.02.17.04.25.06.05.11.14.09.23.08,1.66.53,3.11,2.62,2.8,4.35-.15.83-.41,1.55-1.04,2.13-.38.35-.82.68-.58,1.31.15.4.27.82.37,1.23.4,1.55.85,3.08,1.22,4.64.14.58.1,1.19.09,1.79,0,.26-.18.22-.34.22-1.22,0-2.43,0-3.65.01Z"/><path class="cls-12" d="m338.12,295.87c-.09,0-.19.03-.23-.08.11-.05.18,0,.23.08Z"/><path class="cls-12" d="m337.63,295.73c-.08.09-.12.05-.15-.04.06-.03.11-.02.15.04Z"/><path class="cls-33" d="m333.11,299c.03.06.03.11-.03.14-.08-.07-.03-.11.03-.14Z"/><circle class="cls-4" cx="337.14" cy="293.28" r="40.85"/><path class="cls-42" d="m352.89,173.26c.52,0,1.04.02,1.56.02.88,0,1.61.72,1.62,1.61,0,.81,0,1.63,0,2.44,0,6.89,0,13.78,0,20.67,0,.45-.02.9-.15,1.34-.16.51-.79.97-1.32.97-5.84,0-11.67,0-17.51,0-.03,0-.05,0-.08,0,0-1.59,0-3.17,0-4.76,1.22,0,2.43,0,3.65-.01.16,0,.33.04.34-.22.01-.6.05-1.21-.09-1.79-.38-1.55-.83-3.09-1.22-4.64-.11-.42-.23-.83-.37-1.23-.23-.63.2-.96.58-1.31.63-.58.89-1.3,1.04-2.13.31-1.74-1.15-3.82-2.8-4.35-.06-.09-.13-.13-.23-.08-.08-.02-.17-.04-.25-.06-.04-.05-.09-.07-.15-.04-.16-.02-.32-.05-.48-.07,0-2.11,0-4.22,0-6.32,2.99,0,5.98-.01,8.97-.02.19,0,.37-.01.56-.02,1.07.03,2.14.05,3.21,0,1.05.06,2.1.05,3.15,0Z"/><path class="cls-18" d="m337,195.55c0,1.59,0,3.17,0,4.76-.6,0-1.2.01-1.8.01-5.09,0-10.18-.03-15.27.02-1.34.01-2.03-.72-2.03-2.03.04-7.79.03-15.58,0-23.36,0-.93.75-1.68,1.64-1.66.52,0,1.04-.01,1.56-.02,1.05.03,2.1.05,3.14-.01,1.07.06,2.14.03,3.21.01.17,0,.35.02.52.02,3,0,6.01,0,9.01.01,0,2.11,0,4.22,0,6.32-.34.16-.72.08-1.07.22-1.49.58-2.47,1.58-2.82,3.16-.06.04-.11.08-.03.14-.12,1.31.02,2.51,1.19,3.37.37.27.51.68.36,1.19-.09.31-.21.62-.29.94-.21.87-.44,1.74-.67,2.61-.17.64-.37,1.28-.52,1.92-.15.64-.11,1.29-.14,1.94-.01.33.08.43.42.43,1.19-.02,2.38,0,3.57,0Z"/><path class="cls-33" d="m324.26,173.25c-1.05.07-2.1.04-3.15.01,0-2.83-.02-5.66.02-8.49.02-1.31.2-2.61.58-3.88.46-1.53,1.11-2.97,1.98-4.29,1.1-1.66,2.46-3.08,4.09-4.24,1.07-.76,2.19-1.44,3.42-1.87,1.22-.42,2.46-.85,3.78-.94.74-.05,1.48-.16,2.22-.15,1.85.03,3.64.4,5.37,1.05,1.73.65,3.29,1.59,4.71,2.78,1.22,1.02,2.23,2.22,3.08,3.56.61.95,1.08,1.95,1.49,3,.22.58.38,1.18.58,1.76.18.53.22,1.11.28,1.68.36,3.34.09,6.69.18,10.03-1.05.04-2.1.05-3.15,0,0-2.39-.02-4.78.01-7.17.02-1.38-.16-2.72-.49-4.05-.47-1.87-1.34-3.55-2.6-4.99-1.54-1.76-3.41-3.09-5.67-3.81-1.6-.51-3.23-.67-4.91-.57-1.56.09-3.03.46-4.42,1.11-2.32,1.08-4.14,2.73-5.49,4.91-1.16,1.87-1.8,3.94-1.88,6.11-.1,2.82-.02,5.64-.02,8.46Z"/><path class="cls-12" d="m346.53,173.26c0-2.54.02-5.07,0-7.61-.01-1.35-.2-2.68-.74-3.94-.43-.99-1-1.9-1.71-2.73-1.06-1.23-2.38-2.09-3.88-2.63-1.38-.5-2.83-.67-4.32-.48-.91.11-1.79.32-2.61.68-2.28.99-3.96,2.63-5,4.91-.49,1.07-.68,2.19-.74,3.35-.14,2.81-.02,5.63-.07,8.44-1.07.02-2.14.05-3.21-.01,0-2.82-.08-5.64.02-8.46.08-2.18.72-4.24,1.88-6.11,1.35-2.17,3.17-3.83,5.49-4.91,1.39-.65,2.86-1.02,4.42-1.11,1.68-.1,3.31.06,4.91.57,2.26.72,4.13,2.04,5.67,3.81,1.26,1.44,2.13,3.12,2.6,4.99.34,1.33.51,2.67.49,4.05-.03,2.39-.01,4.78-.01,7.17-1.07.06-2.14.04-3.21,0Z"/><path class="cls-22" d="m337,195.55c-1.19,0-2.38-.02-3.57,0-.34,0-.43-.1-.42-.43.02-.65-.01-1.3.14-1.94.15-.64.35-1.28.52-1.92.23-.87.46-1.74.67-2.61.08-.32.19-.63.29-.94.15-.51,0-.92-.36-1.19-1.17-.87-1.31-2.07-1.19-3.37.07-.04.06-.09.03-.14.35-1.58,1.34-2.58,2.82-3.16.35-.14.73-.06,1.07-.22.16.02.32.05.48.07.03.08.07.13.15.04.08.02.17.04.25.06.05.11.14.09.23.08,1.66.53,3.11,2.62,2.8,4.35-.15.83-.41,1.55-1.04,2.13-.38.35-.82.68-.58,1.31.15.4.27.82.37,1.23.4,1.55.85,3.08,1.22,4.64.14.58.1,1.19.09,1.79,0,.26-.18.22-.34.22-1.22,0-2.43,0-3.65.01Z"/><path class="cls-12" d="m338.12,179.87c-.09,0-.19.03-.23-.08.11-.05.18,0,.23.08Z"/><path class="cls-12" d="m337.63,179.73c-.08.09-.12.05-.15-.04.06-.03.11-.02.15.04Z"/><path class="cls-33" d="m333.11,183c.03.06.03.11-.03.14-.08-.07-.03-.11.03-.14Z"/><circle class="cls-4" cx="337.14" cy="177.28" r="40.85"/><circle class="cls-5" cx="53.57" cy="413.94" r="38.3"/><path class="cls-23" d="m63.61,397.26c.19.24.42.44.68.6,1,.92,1.55,2.22,1.53,3.57v38.55c0,3.06-1.53,4.85-4.68,5.11-5.1.43-10.22.43-15.32,0-2.51-.07-4.5-2.16-4.43-4.67,0-.06,0-.12,0-.18v-38.81c-.14-2.54,1.81-4.71,4.35-4.85.03,0,.05,0,.08,0,4.48-.31,8.96-.37,13.45-.17.31-.01.63.01.94.09,1.19-.02,2.37.19,3.49.6l-.09.17Zm-9.28,5.62h-9.45c-.6,0-.77.17-.77.77v9.79c0,3.23,0,2.04,2.04,1.96h16.26c.51,0,.6-.17.6-.6v-11.26c0-.43-.09-.68-.6-.68h-8.09v.03Zm1.79,25.11c-1.96,0-1.79,0-1.79,1.87,0,.6.26.85.85.85h1.36c1.11,0,1.19,0,1.19-1.11,0-1.87.17-1.62-1.62-1.62Zm-5.02,0h-.94c-.51,0-.85.17-.68.68.17.68-.6,1.79.68,2.04.65.09,1.31.09,1.96,0,.37.02.69-.24.77-.6.43-1.62,0-2.13-1.62-2.13h-.17Zm0-4c-1.87,0-1.62-.17-1.7,1.7v.26c0,.6.26.85.77.85h1.96c.34-.01.62-.26.68-.6.43-1.62,0-2.13-1.62-2.13h0l-.09-.09Zm5.11,0h-1.11c-.43,0-.68.17-.68.6,0,1.96-.17,2.21,1.79,2.13h.43c1.11,0,1.19-.17,1.19-1.19,0-1.79.17-1.62-1.62-1.62h0v.09Zm-.09,10.81h.85c.43,0,.85-.09.85-.6,0-.68.43-1.53-.34-2.13h-2.38c-.32-.02-.61.19-.68.51-.43,1.62,0,2.21,1.7,2.21h0Zm-4.94,0h.85c.51,0,.85-.17.85-.68,0-.68.43-1.53-.34-2.04h-2.38c-.29,0-.55.17-.68.43-.51,1.53,0,2.3,1.62,2.3h.09Zm0-14.81h-.77c-.6,0-.85.17-.85.85q0,1.96,1.96,1.96h.68c.39.01.73-.29.77-.68.34-1.7,0-2.13-1.7-2.13h-.09Zm5.11,0h-1.11c-.43,0-.68.17-.68.68,0,1.96-.17,2.21,1.79,2.13h.43c1.11,0,1.19-.17,1.19-1.19,0-1.79.17-1.62-1.62-1.62h0Zm-10.04,14.81h.68c.77,0,1.02-.26.94-1.02,0-2.04.26-1.79-1.79-1.79h-.34c-1.11,0-1.19,0-1.11,1.11,0,1.53-.34,1.7,1.62,1.62v.09Zm14.98-2.81h-.68c-.68-.09-.94.17-.94.94,0,1.96-.34,1.87,1.87,1.87h.34q1.11,0,1.11-1.11c0-1.87.17-1.62-1.62-1.62h0l-.09-.09Zm0-4h-.85c-.6,0-.77.26-.77.85,0,2.04-.34,1.96,1.96,1.96h.26c1.02,0,1.11-.09,1.11-1.11,0-1.87.17-1.7-1.62-1.7h-.09Zm-14.89,0h-.75c-.68,0-.94.17-.94.94,0,1.96-.34,1.87,1.87,1.87h.34c1.02,0,1.11-.09,1.11-1.19,0-1.79.17-1.62-1.62-1.62h-.02Zm0-4h-.75c-.68,0-.94.17-.85.85,0,1.96-.17,1.96,1.87,1.87h.26c1.11,0,1.19,0,1.19-1.19,0-1.79.17-1.62-1.62-1.62l-.1.09Zm14.98-4h-.85c-.6,0-.77.26-.77.85,0,2.04-.17,1.96,1.96,1.96h.26c1.02,0,1.11-.09,1.11-1.11,0-1.87.17-1.62-1.62-1.7h-.09Zm0,4c-1.87,0-1.62-.26-1.7,1.7v.17c0,.68.26.94.94.94h1.21c1.02,0,1.11-.09,1.11-1.19,0-1.79.17-1.62-1.62-1.62h.07Zm-14.98-4h-.85c-.6,0-.77.26-.77.85,0,2.04-.17,1.96,1.96,1.96h.26c1.02,0,1.11-.09,1.11-1.11,0-1.87.17-1.62-1.62-1.7h-.09Zm9.11-19.49c.34,0,.6-.09.51-.51s-.17-.43-.51-.43-.6.09-.51.51.17.43.51.43Zm2.13-.43c0-.34-.17-.43-.51-.43s-.6,0-.6.43.17.43.51.43.6-.09.6-.43Zm-4.94,41.45c.04-.25-.14-.48-.38-.51-.04,0-.09,0-.13,0-.34,0-.43.26-.43.51s.17.51.43.51c.26-.03.45-.25.43-.51h.09Zm-1.79-41.87c-.27,0-.51.17-.6.43,0,.27.2.5.48.51.01,0,.02,0,.03,0,.26,0,.43-.09.43-.34h0c0-.34-.09-.51-.43-.51l.09-.09Zm1.96.43c0-.34-.17-.43-.51-.43-.24-.05-.46.1-.51.34-.05.24.1.46.34.51.06.01.11.01.17,0,.34,0,.43-.17.43-.43h.09Zm-.17,37.96c0-.34-.26-.43-.51-.43-.22-.01-.41.15-.43.37,0,.02,0,.04,0,.05,0,.34.17.51.43.51s.43-.17.43-.51h.09Zm3.4-.09c0-.17-.09-.34-.43-.34s-.51.09-.51.43.17.51.43.51.43-.17.43-.6h.09Zm-.34,4c.26,0,.34-.17.34-.43.02-.26-.17-.48-.43-.51-.22-.02-.42.14-.44.36,0,.05,0,.1.01.15.09.34.17.43.6.43h-.09Zm-1.36-41.87c0-.34-.26-.43-.51-.43s-.43.17-.34.51.26.43.51.43c.26-.03.45-.25.43-.51h-.09Zm-.43,37.7c.22.01.41-.15.43-.37,0-.02,0-.04,0-.05,0-.34-.17-.51-.51-.43s-.43.17-.43.51c.03.26.25.45.51.43h0v-.09Zm-2.55,2.47c.26,0,.43-.09.51-.43s-.09-.51-.43-.51-.43.09-.51.43.09.51.43.51h0Zm4.85-.94c-.21,0-.37.18-.37.38,0,.04,0,.09.03.13,0,.26.17.43.51.34s.43-.26.43-.51c-.03-.26-.25-.45-.51-.43l-.09.09Zm-2.38,3.4c.22.01.41-.15.43-.37,0-.02,0-.04,0-.05,0-.34-.17-.51-.43-.51-.22-.01-.41.15-.43.37,0,.02,0,.04,0,.05,0,.34.17.49.43.49v.03Zm-.51-2.64c0-.26-.09-.43-.43-.43-.22-.01-.41.15-.43.37,0,.02,0,.04,0,.05,0,.26.09.51.34.51.25,0,.46-.18.51-.43h0v-.09Zm.68.34c-.22-.01-.41.15-.43.37,0,.02,0,.04,0,.05.03.26.25.45.51.43h0c.26,0,.34-.26.34-.43.01-.22-.15-.41-.37-.43-.02,0-.04,0-.05,0Zm0-1.62c.02-.21-.13-.4-.34-.43-.25,0-.46.18-.51.43,0,.17.09.43.34.43h0c.26,0,.34-.26.43-.43h.09Zm.85,1.11c.18-.01.33-.16.34-.34,0-.17,0-.34-.26-.43h-.09c-.26,0-.34.17-.43.34s0,.34.34.34l.09.09Z"/><path class="cls-38" d="m56.65,402.88h5.79c.51,0,.6.17.6.68v11.23c0,.43-.09.6-.6.6h-13.02c.02-.18.08-.36.17-.51,1.62-2.64,3.15-5.28,4.77-7.91.85-1.31,1.62-2.68,2.3-4.09Z"/><path class="cls-38" d="m46.16,415.3c-1.36,0-2.04-.65-2.04-1.96v-9.81c0-.6.17-.77.77-.77h8.51c-.6,1.24-1.28,2.43-2.04,3.57-1.7,2.98-3.49,5.87-5.19,8.85v.11Z"/><path class="cls-32" d="m56.65,402.88c-.68,1.41-1.45,2.77-2.3,4.09-1.53,2.64-3.15,5.28-4.77,7.91,0,.17-.17.34-.17.51h-1.36c.02-.18.08-.36.17-.51,1.36-2.21,2.72-4.51,4-6.72,1.02-1.79,2.13-3.4,3.06-5.28h1.36Z"/><path class="cls-11" d="m55.27,402.88c-.94,1.79-2.04,3.49-3.06,5.28-1.36,2.3-2.72,4.51-4,6.72,0,.17-.17.34-.17.51h-.94c.39-1,.9-1.94,1.53-2.81,1.87-3.23,3.83-6.47,5.7-9.62h.94v-.09Z"/><path class="cls-24" d="m54.34,402.88c-1.87,3.23-3.83,6.38-5.7,9.62-.62.87-1.14,1.81-1.53,2.81h-.94c1.79-2.89,3.49-5.87,5.19-8.85.76-1.14,1.44-2.34,2.04-3.57h.94Z"/><path class="cls-35" d="m56.12,427.98c1.87,0,1.62-.17,1.62,1.62,0,1.02,0,1.11-1.19,1.11h-1.36c-.42.05-.8-.25-.85-.67,0-.06,0-.12,0-.18,0-1.96-.17-1.96,1.79-1.87Z"/><path class="cls-35" d="m51.02,427.98h0c1.62,0,2.04.51,1.62,2.13-.04.37-.38.64-.76.6,0,0,0,0-.01,0-.65.04-1.31.04-1.96,0-1.28-.26-.51-1.36-.68-2.04-.09-.51.17-.77.68-.68h1.11Z"/><path class="cls-35" d="m51.02,423.96h0c1.62,0,2.04.51,1.62,2.13-.06.33-.34.58-.68.6h-1.96c-.51,0-.85-.26-.77-.85v-.26c0-1.87-.26-1.7,1.7-1.7l.09.09Z"/><path class="cls-35" d="m56.12,423.96c1.79,0,1.62-.17,1.62,1.62,0,1.02-.17,1.19-1.19,1.19h-.43c-2.04,0-1.79-.17-1.79-2.13,0-.43.26-.6.68-.6h1.11v-.09Z"/><path class="cls-35" d="m56.04,434.79c-1.62,0-2.13-.6-1.7-2.21.07-.32.36-.53.68-.51h2.38c.77.6.34,1.45.34,2.13,0,.51-.43.6-.85.6h-.85Z"/><path class="cls-35" d="m51.02,434.79c-1.53,0-2.13-.85-1.62-2.3.05-.3.34-.49.63-.44.02,0,.03,0,.05.01h2.38c.77.6.34,1.36.34,2.04,0,.43-.34.68-.85.68h-.94Z"/><path class="cls-35" d="m51.02,419.9h0c1.7,0,2.04.43,1.7,2.13,0,.43-.34.6-.77.68h-.68q-1.96,0-1.96-1.96c0-1.96.26-.94.85-.85h.85Z"/><path class="cls-35" d="m56.12,419.9c1.79,0,1.62-.17,1.62,1.62,0,1.02-.17,1.19-1.19,1.19h-.43c-2.04,0-1.79-.17-1.79-2.13,0-.43.26-.6.68-.68h1.11Z"/><path class="cls-35" d="m46.08,434.79c-1.96,0-1.62-.09-1.62-1.62q0-1.11,1.11-1.11h.34c2.04,0,1.79-.26,1.79,1.79,0,.77-.26,1.02-.94,1.02h-.68v-.09Z"/><path class="cls-35" d="m61.06,431.98c1.87,0,1.62-.17,1.62,1.62q0,1.11-1.11,1.11h-.34c-2.21,0-1.79,0-1.87-1.87,0-.68.26-1.02.94-.94h.68l.09.09Z"/><path class="cls-35" d="m61.06,427.98c1.79,0,1.62-.17,1.62,1.7,0,1.02-.09,1.11-1.11,1.11h-.26c-2.3,0-1.87.09-1.96-1.96,0-.6.17-.85.77-.85h.94Z"/><path class="cls-35" d="m46.08,427.98c1.79,0,1.53-.17,1.62,1.62,0,1.02,0,1.19-1.11,1.19h-.34c-2.21,0-1.79,0-1.87-1.87,0-.68.26-1.02.94-.94h.77Z"/><path class="cls-35" d="m46.08,423.96c1.79,0,1.62-.17,1.62,1.62,0,1.11,0,1.19-1.19,1.19h-.26c-2.04,0-1.79,0-1.87-1.87,0-.68.17-.94.85-.85h.77l.09-.09Z"/><path class="cls-35" d="m61.06,419.9c1.79,0,1.62-.17,1.62,1.7,0,1.02-.09,1.11-1.11,1.11h-.26c-2.13,0-1.87.09-1.96-1.96,0-.6.17-.85.77-.85h.94Z"/><path class="cls-35" d="m61.06,423.96c1.79,0,1.62-.17,1.62,1.62,0,1.11-.09,1.19-1.11,1.19h-1.19c-.68,0-.94-.26-.94-.94v-.17c0-1.87-.26-1.7,1.7-1.7h-.09Z"/><path class="cls-35" d="m46.08,419.9c1.79,0,1.62-.17,1.62,1.62,0,1.02-.09,1.11-1.11,1.11h-.26c-2.13,0-1.96.09-1.96-1.96,0-.6.17-.85.77-.85h.85l.09.09Z"/><path class="cls-39" d="m55.19,400.49c-.26,0-.51-.09-.51-.43,0-.27.2-.5.48-.51.01,0,.02,0,.03,0,.26,0,.51.09.51.43,0,.27-.2.5-.48.51-.01,0-.02,0-.03,0Z"/><path class="cls-39" d="m57.23,400.07c0,.34-.26.43-.6.43s-.51-.17-.51-.43.26-.43.6-.43.51.17.51.43Z"/><path class="cls-41" d="m52.29,441.43c.02.26-.17.48-.43.51-.22.02-.42-.14-.44-.36,0-.05,0-.1.01-.15,0-.26.09-.51.43-.51.25-.04.48.14.51.38,0,.04,0,.09,0,.13h-.09Z"/><path class="cls-39" d="m50.51,399.56c.34,0,.43.17.43.51.01.22-.15.41-.37.43-.02,0-.04,0-.05,0h0c-.34,0-.6-.17-.51-.51s.26-.43.6-.43h-.09Z"/><path class="cls-39" d="m52.46,399.98c0,.34-.17.51-.43.43-.24.05-.46-.1-.51-.34-.05-.24.1-.46.34-.51.06-.01.11-.01.17,0,.26,0,.51.09.51.43h-.09Z"/><path class="cls-39" d="m52.29,437.94c0,.34-.17.51-.43.51s-.43-.17-.43-.51.09-.43.43-.43.51.09.51.43h-.09Z"/><path class="cls-39" d="m55.7,437.86c0,.43-.17.6-.43.6s-.43-.17-.43-.51.26-.43.51-.43c.21-.02.4.13.43.34h-.09Z"/><path class="cls-39" d="m55.36,441.83c-.34,0-.6-.09-.6-.43s.17-.51.43-.51.43.17.43.51-.09.43-.34.43h.09Z"/><path class="cls-39" d="m53.99,399.98c.03.23-.12.45-.34.51-.26,0-.51-.09-.51-.43-.03-.23.12-.45.34-.51.34,0,.51.09.51.43Z"/><path class="cls-39" d="m53.57,437.69c-.26,0-.43-.09-.51-.43s.09-.51.43-.51.51.17.51.43c.01.22-.15.41-.37.43-.02,0-.04,0-.05,0v.09Z"/><path class="cls-39" d="m51.1,440.13c-.34,0-.43-.17-.43-.51s.17-.43.51-.43.43.17.43.51-.17.43-.51.43Z"/><path class="cls-39" d="m55.95,439.22c.34,0,.51.09.51.34s-.09.51-.43.51c-.23.03-.45-.12-.51-.34,0-.34.09-.51.34-.51h.09Z"/><path class="cls-39" d="m53.57,435.81c-.18-.01-.33-.16-.34-.34,0-.17.09-.26.34-.26.17-.01.33.11.34.29,0,.02,0,.04,0,.05,0,.17-.09.26-.34.26Z"/><path class="cls-41" d="m53.06,439.98c-.05.24-.26.42-.51.43-.26,0-.43-.17-.34-.51s.17-.43.43-.43.34.26.43.43v.09Z"/><path class="cls-41" d="m53.74,440.32c.22-.01.41.15.43.37,0,.02,0,.04,0,.05,0,.26,0,.43-.34.43s-.51-.09-.51-.34h0c0-.26.17-.34.43-.43v-.09Z"/><path class="cls-41" d="m53.65,438.79c-.02.23-.2.41-.43.43-.21.02-.4-.13-.43-.34h0c.03-.26.25-.45.51-.43.26,0,.34.17.34.43v-.09Z"/><path class="cls-39" d="m54.59,439.81c-.34,0-.43-.17-.34-.34s.17-.43.43-.34c.18.01.33.16.34.34v.09c-.01.18-.16.33-.34.34l-.09-.09Z"/><path d="m26.17,409.44c2.25-.21,4.24,1.44,4.45,3.68,0,.03,0,.06,0,.09l.18,3.35-8.32.52-.18-3.35c-.15-2.21,1.52-4.13,3.73-4.29.05,0,.09,0,.14,0Zm.15,1.82c-1.17-.05-2.16.85-2.21,2.02,0,.1,0,.2,0,.3l.07,1.46,4.67-.34-.07-1.46c-.05-1.22-1.08-2.17-2.3-2.12-.06,0-.13,0-.19.02l.03.12Z"/><path d="m23.23,407.55c-.6-.11-1-.68-.9-1.28.11-.6.68-1,1.28-.9.6.11,1,.68.9,1.28h0c-.1.59-.65,1-1.25.9-.01,0-.02,0-.03,0Zm1.56.09l.3-1.73,5.83,1.01-.3,1.73-5.83-1.01Z"/><path d="m31.05,401.04c1.33.45,1.49,1.77,1.02,2.98-.28,1.01-1.12,1.77-2.16,1.95l-.31-1.72c.46.06.88-.25.96-.7.16-.4.11-.64-.15-.71-.66-.22-1.28,2.62-3.2,1.99-1.21-.47-1.47-1.65-1.07-2.91.27-.91,1.02-1.6,1.95-1.78l.24,1.67c-.36.03-.66.27-.79.6-.13.18-.09.43.08.56.01.01.03.02.04.03.66.22,1.2-2.67,3.27-1.95l.12-.03Z"/><path d="m34.07,394.28c1.41.85,1.86,2.68,1.02,4.09-.01.02-.03.05-.05.07-.37.57-.95.96-1.61,1.09l2.51,1.61-1.01,1.58-6.88-4.72.97-1.5.5.32c-.13-.65.01-1.33.39-1.87.97-1.3,2.8-1.58,4.11-.61.03.02.06.04.09.07l-.03-.12Zm-.97,1.5c-.64-.47-1.54-.34-2.01.3,0,0,0,.01-.01.02-.45.57-.35,1.4.22,1.85.05.04.1.07.15.1.64.47,1.54.34,2.01-.3,0,0,0-.01.01-.02.47-.53.42-1.33-.1-1.8-.08-.07-.16-.12-.25-.17v.02Z"/><path d="m31.2,389.31l1.28-1.2,5.94,6.34-1.28,1.2-5.94-6.34Z"/><path d="m41.14,385.47l3.09,5.12-1.52.95-.29-.49c-.13.65-.56,1.2-1.15,1.48-1.58.73-3.46.04-4.19-1.55-.62-1.35-.22-2.96.98-3.85.56-.37,1.26-.47,1.91-.29l-.29-.49,1.52-.95-.05.07Zm.01,3.45c-.37-.69-1.23-.95-1.92-.58-.02,0-.03.02-.04.03-.73.38-1.01,1.28-.63,2.01.38.73,1.28,1.01,2.01.63.73-.38,1.01-1.28.63-2.01-.01-.02-.03-.05-.04-.07Z"/><path d="m48.89,383.17l-.51,6.15c-.18,2.01-1.01,2.99-2.66,3.35l-.41-1.57c.69-.08,1.2-.67,1.18-1.37l-3.72-4.92,1.93-.48,2.23,3.15.14-3.85,1.86-.53-.05.07Z"/><path d="m60.83,391.01l-1.55-2.84-.32,2.6-1.76-.2,1.11-8.27,1.76.2-.69,4.94,2.12-2.33,2.11.3-2.53,2.64,1.8,3.29-1.99-.27-.04-.07Z"/><path d="m65.94,391.13c.4.17.86.16,1.26,0l1,1.3c-.87.53-1.95.57-2.85.1-1.61-.52-2.49-2.24-1.97-3.85.03-.09.06-.18.1-.27.56-1.56,2.28-2.36,3.84-1.8.1.04.2.08.29.12,1.55.62,2.31,2.39,1.68,3.94-.02.04-.03.08-.05.11-.07.23-.25.43-.32.66l-3.91-1.65c-.01.61.4,1.15,1,1.3l-.07.04Zm1.85-1.59c.07-.59-.24-1.16-.78-1.42-.53-.28-1.19-.12-1.55.36l2.36.94-.03.12Z"/><path d="m76.42,392.38l-5.13,3.39c-1.71,1.13-3.01,1.06-4.27,0l1.02-1.33c.48.5,1.27.54,1.79.09l1.49-5.96,1.6,1.16-1.16,3.74,3.04-2.24,1.49,1.13.12.03Z"/><path d="m79.11,400.51c-1.24,1.05-3.09.9-4.14-.34-.02-.03-.04-.05-.07-.08-.44-.51-.64-1.18-.52-1.85l-2.33,1.76-1.08-1.45,6.67-5.01,1.08,1.45-.52.29c.67.11,1.26.48,1.64,1.04.92,1.33.59,3.16-.75,4.08-.03.02-.06.04-.09.06l.12.03Zm-1.08-1.45c.61-.4.79-1.22.39-1.84-.04-.05-.07-.1-.12-.15-.37-.61-1.17-.8-1.78-.43-.08.05-.15.1-.21.16-.61.4-.79,1.22-.39,1.84.04.05.07.1.12.15.37.61,1.17.8,1.78.43.08-.05.15-.1.21-.16h0Z"/><path d="m84.6,406.43l-5.6,2-.63-1.69.45-.24c-.63-.19-1.11-.72-1.23-1.36-.4-1.7.65-3.41,2.36-3.81,1.45-.34,2.94.38,3.58,1.72.28.62.24,1.33-.12,1.91l.45-.24c.04.07.67,1.77.67,1.77l.07-.04Zm-3.38-.68c.69-.17,1.11-.88.94-1.57-.02-.09-.05-.17-.09-.25-.24-.72-1.02-1.12-1.74-.88-.03,0-.05.02-.08.03-.69.17-1.11.88-.94,1.57.02.09.05.17.09.25.25.72,1.04,1.1,1.76.85.01,0,.03,0,.04-.01h.03Z"/><path d="m87.72,415.01l-8.33.38-.1-1.79.57-.02c-.54-.4-.82-1.06-.75-1.72.02-1.65,1.36-2.99,3.01-3.01,1.61-.16,3.05,1.01,3.22,2.63,0,.02,0,.05,0,.07.05.67-.19,1.33-.66,1.81l2.93-.15.1,1.79Zm-5.43-1.59c.78,0,1.43-.63,1.43-1.41,0-.02,0-.03,0-.05,0-.74-.61-1.33-1.35-1.33-.05,0-.1,0-.15,0-.78,0-1.43.63-1.43,1.41,0,.02,0,.03,0,.05,0,.74.61,1.33,1.35,1.33.05,0,.1,0,.15,0h0Z"/><circle class="cls-5" cx="54.27" cy="529.47" r="40.5"/><path class="cls-25" d="m45.45,563.13c-.18-.14-.4-.2-.63-.18-3.48-.82-5.89-3.99-5.76-7.56v-36.09c-.11-3.02,1.64-5.8,4.41-7.02.99-.46,2.06-.71,3.15-.72h15.48c4.14-.04,7.52,3.28,7.56,7.42,0,.05,0,.1,0,.14v36.36c.07,3.6-2.48,6.73-6.03,7.38-.23-.02-.45.04-.63.18h-17.55v.09Zm8.82-29.79h10.26c1.17,0,1.62-.54,1.62-1.62v-13.59c.14-.81-.41-1.57-1.22-1.71-.16-.03-.33-.03-.49,0h-20.34c-.81-.14-1.57.41-1.71,1.22-.03.16-.03.33,0,.49v13.5c0,1.17.45,1.71,1.71,1.71h10.17Zm3.15,6.66c.01-1.68-1.33-3.05-3.01-3.06-.02,0-.04,0-.05,0-1.73.02-3.13,1.42-3.15,3.15.03,1.71,1.44,3.08,3.15,3.06,1.73-.02,3.13-1.42,3.15-3.15h-.09Zm4.32-.18v1.71c-.05.39.22.76.62.81.06,0,.13,0,.19,0h2.61c.39.05.76-.22.81-.62,0-.06,0-.13,0-.19v-3.51c.05-.39-.22-.76-.62-.81-.06,0-.13,0-.19,0h-2.61c-.39-.05-.76.22-.81.62,0,.06,0,.13,0,.19v1.8Zm-19.08.27v1.8c-.05.39.22.76.62.81.06,0,.13,0,.19,0h2.61c.54,0,.81-.27.81-.72v-3.6c.01-.42-.3-.77-.72-.81h-2.7c-.54,0-.72.27-.81.81v1.71h0Zm20.7,13.14h1.71c.54,0,.81-.36.81-.9,0-1.26-.09-1.71-.72-1.8h-3.51c-.42-.03-.78.28-.81.7,0,.04,0,.07,0,.11v1.08c0,.54.27.81.9.81h1.62Zm-18.27,5.13h.81c1.71,0,1.71-.36,1.71-1.71,0-.72-.27-.99-.99-.99h-2.25c-1.89,0-1.8.27-1.71,1.89-.03.47.32.87.79.9.04,0,.07,0,.11,0h1.62l-.09-.09Zm9.27-5.13h1.53c.72,0,.99-.27,1.08-.99v-.72c0-.72-.27-.99-.99-.99h-2.25c-1.98,0-1.8.36-1.8,1.89-.05.44.26.85.71.9.06,0,.13,0,.19,0h1.62l-.09-.09Zm0,2.34h-1.71c-.39-.05-.76.22-.81.62,0,.06,0,.13,0,.19v.97c-.05.49.31.94.8.99.06,0,.13,0,.19,0h2.34c1.89,0,1.8-.36,1.8-1.89.05-.44-.26-.85-.71-.9-.06,0-.13,0-.19,0h-1.71v.02Zm8.91,2.79h.81c1.8.09,1.71-.36,1.71-1.8v-.18c.03-.42-.28-.78-.7-.81-.04,0-.07,0-.11,0h-3.33c-.46-.04-.86.3-.9.75,0,.02,0,.04,0,.06v1.08c0,.54.36.81.9.81h1.62v.09Zm-8.91-10.17h.72c1.89,0,1.8-.27,1.8-1.89h0c.03-.42-.28-.78-.7-.81-.04,0-.07,0-.11,0h-3.33c-.42-.03-.78.28-.81.7,0,.04,0,.07,0,.11v.99c0,.63.27.9.9.9h1.53,0Zm8.91,0h1.71c.54,0,.81-.36.81-.9.09-1.17,0-1.71-.63-1.89h-3.6c-.42-.03-.78.28-.81.7,0,.04,0,.07,0,.11v.99c-.05.44.26.85.71.9.06,0,.13,0,.19,0h1.62v.09Zm-18.18,0h1.71c.63,0,.81-.36.81-1.53,0-.81-.27-1.17-.81-1.17h-3.33c-.42-.03-.78.28-.81.7,0,.04,0,.07,0,.11v.99c0,.63.27.9.9.9h1.53Zm0,5.04h1.71c.54,0,.81-.36.81-.9.09-1.26,0-1.71-.63-1.8h-3.51c-.44-.05-.85.26-.9.71,0,.06,0,.13,0,.19v.99c0,.54.27.81.9.9h1.62v-.09Z"/><path class="cls-10" d="m54.27,533.34h-10.08c-1.26,0-1.71-.45-1.71-1.71v-13.5c0-1.17.45-1.71,1.71-1.71h20.34c1.26,0,1.71.45,1.71,1.71v13.59c0,1.17-.54,1.62-1.62,1.62h-10.35Z"/><path class="cls-17" d="m57.42,540c-.02,1.73-1.42,3.13-3.15,3.15-1.69-.04-3.06-1.38-3.15-3.06.02-1.73,1.42-3.13,3.15-3.15,1.68-.01,3.05,1.33,3.06,3.01,0,.02,0,.04,0,.05h.09Z"/><path class="cls-17" d="m61.74,539.82v-1.8c-.05-.39.22-.76.62-.81.06,0,.13,0,.19,0h2.61c.39-.05.76.22.81.62,0,.06,0,.13,0,.19v3.51c.05.39-.22.76-.62.81-.06,0-.13,0-.19,0h-2.61c-.39.05-.76-.22-.81-.62,0-.06,0-.13,0-.19v-1.71Z"/><path class="cls-17" d="m42.66,540.09v-1.71c-.05-.39.22-.76.62-.81.06,0,.13,0,.19,0h2.7c.45,0,.72.27.72.81v3.6c0,.54-.27.72-.81.72h-2.61c-.54,0-.72-.27-.81-.81v-1.8Z"/><path class="cls-17" d="m63.45,553.23h-1.62c-.46.04-.86-.3-.9-.75,0-.02,0-.04,0-.06v-1.08c-.03-.42.28-.78.7-.81.04,0,.07,0,.11,0h3.51c.63.09.81.54.72,1.8,0,.54-.27.9-.81.9h-1.71Z"/><path class="cls-17" d="m45.18,558.26h-1.62c-.44.05-.85-.26-.9-.71,0-.06,0-.13,0-.19,0-1.62-.18-1.98,1.71-1.89h2.25c.72,0,.99.27.99.99,0,1.44,0,1.8-1.71,1.71h-.9l.18.09Z"/><path class="cls-17" d="m54.45,553.23h-1.62c-.47.03-.87-.32-.9-.79,0-.04,0-.07,0-.11,0-1.53-.18-1.98,1.8-1.89h2.25c.72,0,.99.27.99.99v.72c0,.72-.27.99-1.08.99h-1.53l.09.09Z"/><path class="cls-17" d="m54.54,555.56h1.62c.47-.03.87.32.9.79,0,.04,0,.07,0,.11,0,1.53.18,1.98-1.8,1.89h-2.34c-.63,0-.9-.27-.99-.99v-.99c-.03-.42.28-.78.7-.81.04,0,.07,0,.11,0h1.8Z"/><path class="cls-17" d="m63.36,558.26h-1.62c-.46.04-.86-.3-.9-.75,0-.02,0-.04,0-.06v-1.08c0-.54.27-.81.9-.81h3.33c.39-.05.76.22.81.62,0,.06,0,.13,0,.19v.18c0,1.44,0,1.89-1.71,1.8h-.9l.09-.09Z"/><path class="cls-17" d="m54.45,548.19h-1.62c-.44.05-.85-.26-.9-.71,0-.06,0-.13,0-.19v-.99c-.03-.42.28-.78.7-.81.04,0,.07,0,.11,0h3.33c.42-.03.78.28.81.7,0,.04,0,.07,0,.11h0c0,1.62.09,1.98-1.8,1.89h-.63Z"/><path class="cls-17" d="m63.36,548.19h-1.62c-.54,0-.81-.36-.9-.9v-.99c-.05-.39.22-.76.62-.81.06,0,.13,0,.19,0h3.6c.54.18.72.63.63,1.89.04.46-.3.86-.75.9-.02,0-.04,0-.06,0h-1.71v-.09Z"/><path class="cls-17" d="m45.18,548.19h-1.62c-.63,0-.9-.27-.9-.9v-.99c-.03-.42.28-.78.7-.81.04,0,.07,0,.11,0h3.33c.63,0,.81.36.81,1.17,0,1.17-.18,1.53-.81,1.53h-1.62,0Z"/><path class="cls-17" d="m45.18,553.23h-1.62c-.44.05-.85-.26-.9-.71,0-.06,0-.13,0-.19v-.99c-.03-.47.32-.87.79-.9.04,0,.07,0,.11,0h3.51c.54.09.72.63.63,1.8,0,.54-.27.9-.81.9h-1.71v.09Z"/><path d="m24.34,530.27c1.87-.47,3.77.65,4.27,2.51l.38,1.41,3.07-.84.57,2.22-9.78,2.65-1.04-3.68c-.54-1.83.51-3.75,2.34-4.29.03,0,.06-.02.09-.03l.08.04Zm.57,2.22c-.65.13-1.07.77-.94,1.42,0,.05.02.09.04.14l.38,1.41,2.46-.65-.38-1.41c-.17-.65-.82-1.03-1.47-.87-.04.01-.09.03-.13.04l.04-.08Z"/><path d="m26.44,521.12l4.43.06-.03,2.21-4.1-.09c-.66-.08-1.26.4-1.34,1.06,0,.06,0,.11,0,.17-.06.69.45,1.3,1.14,1.36.1,0,.2,0,.3,0l3.9.09-.03,2.21-10.1-.25.03-2.21,3.5.09c-1.08-1.02-1.13-2.73-.11-3.82.59-.63,1.45-.93,2.3-.82l.12-.04Z"/><path d="m27.5,519.64c-2.04-.6-3.2-2.73-2.6-4.77s2.73-3.2,4.77-2.6,3.2,2.73,2.6,4.77c0,.03-.02.06-.03.09-.61,2-2.73,3.13-4.73,2.52,0,0,0,0-.01,0Zm1.68-5.21c-.81-.31-1.71.1-2.02.91-.02.05-.03.1-.05.15-.28.88.22,1.82,1.1,2.1.01,0,.03,0,.04.01.81.31,1.71-.1,2.02-.91.02-.05.03-.1.05-.15.28-.88-.22-1.82-1.1-2.1-.01,0-.03,0-.04-.01Z"/><path d="m33.66,504.79l3.71,2.42-1.23,1.8-3.39-2.26c-.53-.42-1.29-.33-1.71.2-.02.03-.05.06-.07.1-.37.72-.38,1.32.5,1.98l3.23,2.18-1.23,1.8-6.02-4.02,1.23-1.8.56.29c-.23-.73-.08-1.53.39-2.13.83-1.24,2.51-1.57,3.74-.75.07.05.14.1.21.15l.08.04Z"/><path d="m39.56,502.98c.39-.36.64-.84.7-1.36l2.02-.38c.09,1.24-.46,2.45-1.45,3.2-1.5,1.48-3.91,1.46-5.38-.04-1.48-1.5-1.46-3.91.04-5.38.09-.08.18-.17.27-.24,1.66-1.32,4.08-1.04,5.4.63.16.2.3.43.42.66l-3.95,3.33c.65.33,1.45.21,1.98-.3l-.04-.12Zm-.65-2.87c-.58-.43-1.38-.37-1.89.14-.59.43-.79,1.23-.47,1.89l2.36-2.02Z"/><path d="m60.24,504.88l-1.66-3.6c.08-.04-.58,3.04-.58,3.04l-2.12-.51,2.2-9.84,2.12.51-1.35,5.88,2.78-2.57,2.44.56-3.31,2.92,1.89,4.09-2.44-.56.04.08Z"/><path d="m66.38,505.51c.44.24.97.28,1.45.13l1.08,1.68c-1.11.52-2.41.5-3.5-.07-1.89-.79-2.78-2.95-1.99-4.84.05-.13.11-.25.18-.37.91-1.88,3.17-2.66,5.05-1.75.04.02.08.04.12.06,1.8.92,2.52,3.13,1.59,4.93-.02.04-.04.08-.06.11-.12.26-.28.5-.47.71l-4.56-2.36c-.07.74.38,1.43,1.08,1.68l.04.08Zm2.39-1.7c.18-.69-.15-1.41-.79-1.72-.64-.37-1.44-.24-1.94.3l2.73,1.41Z"/><path d="m78.82,508.2l-6.51,3.5c-2.13,1.18-3.7,1.01-5.14-.4l1.38-1.53c.52.64,1.45.78,2.12.31l2.51-7.01,1.72,1.58-1.75,4.38,3.98-2.33,1.72,1.58-.04-.08Z"/><path d="m81.2,518.3c-1.66,1.15-3.94.74-5.08-.92h0c-.48-.67-.62-1.52-.37-2.31l-3,1.88-1.15-1.85,8.54-5.33,1.15,1.85-.57.26c.8.2,1.49.69,1.93,1.39.98,1.69.42,3.85-1.27,4.84-.04.02-.09.05-.13.07l-.04.12Zm-1.15-1.85c.8-.44,1.1-1.44.66-2.25-.02-.04-.04-.08-.07-.11-.42-.77-1.39-1.06-2.16-.64-.08.05-.17.1-.24.16-.8.44-1.1,1.44-.66,2.25.02.04.04.08.07.11.42.77,1.39,1.06,2.16.64.08-.05.17-.1.24-.16Z"/><path d="m87.21,525.93l-6.98,1.84-.58-2.11.57-.26c-.7-.34-1.21-.98-1.4-1.73-.43-1.9.76-3.8,2.66-4.24.04,0,.09-.02.13-.03,1.89-.62,3.92.42,4.54,2.31,0,.01,0,.02.01.03.26.78.14,1.64-.31,2.33l.57-.26c.04.08.62,2.19.62,2.19l.17-.06Zm-4.03-1.21c.93-.2,1.52-1.11,1.33-2.04,0-.02,0-.04-.01-.06-.18-.88-1.04-1.44-1.92-1.26-.08.02-.15.04-.22.06-.86.15-1.44.97-1.29,1.83.01.08.03.15.06.22.18.88,1.04,1.44,1.92,1.26.08-.02.15-.04.22-.06l-.08.04Z"/><path d="m90.1,536.49l-10.1-.39.11-2.13.69-.02c-.59-.57-.89-1.38-.82-2.2.26-2.08,2.16-3.56,4.24-3.3,1.83.23,3.23,1.73,3.32,3.58.02.83-.35,1.62-.99,2.14l3.54.15-.11,2.13.12.04Zm-6.37-2.41c.94,0,1.71-.77,1.7-1.72,0-.94-.77-1.71-1.72-1.7-.91,0-1.66.72-1.7,1.64-.08.91.6,1.7,1.5,1.78.07,0,.14,0,.21,0Z"/></svg>