<?xml version="1.0" encoding="UTF-8"?><svg id="Layer_1" xmlns="http://www.w3.org/2000/svg" viewBox="0 0 400 400"><defs><style>.cls-1{stroke:#a5262d;}.cls-1,.cls-2,.cls-3{stroke-width:4px;}.cls-1,.cls-2,.cls-3,.cls-4{stroke-miterlimit:10;}.cls-1,.cls-2,.cls-3,.cls-4,.cls-5{fill:none;}.cls-6{fill:#72b3e2;}.cls-2{stroke:#0018c6;}.cls-3{stroke:#c000e2;}.cls-7{fill:#f15a24;}.cls-8{fill:#bacce9;}.cls-9{fill:#c7c7c7;}.cls-10{fill:#bdbdbd;}.cls-11{fill:#ecf5fe;}.cls-4{stroke:#231f20;stroke-width:2px;}.cls-12{fill:#72b2e2;}.cls-13{fill:#b9cce9;}.cls-14{fill:#aaa;}.cls-15{fill:#484645;}.cls-16{fill:#b3b3b3;}.cls-17{fill:#29abe2;}.cls-18{fill:#d7e1f2;}.cls-19{fill:#231f20;}</style></defs><circle class="cls-1" cx="309.97" cy="61.97" r="45"/><path d="m280.66,46.77c-2.78-2.42-3.08-6.64-.65-9.42.11-.13.23-.26.35-.38,1.53-1.71,3.84-2.51,6.1-2.1l-.7,3c-1.22-.24-2.47.17-3.3,1.1-1.42,1.64-1.24,4.12.4,5.54,1.54,1.33,3.83,1.27,5.3-.14.91-.88,1.26-2.19.9-3.4l2.9-.9c.92,3.67-1.3,7.39-4.97,8.31-2.29.58-4.73-.07-6.43-1.71l.1.1Z"/><path d="m292.16,38.07c-1.21-2.48-.18-5.48,2.31-6.68,2.48-1.21,5.48-.18,6.68,2.31,1.21,2.48.18,5.46-2.29,6.68-2.48,1.22-5.47.19-6.69-2.28,0,0,0-.01,0-.02Zm6.5-3.1c-.57-1.05-1.89-1.45-2.94-.88s-1.45,1.89-.88,2.94c.54,1.01,1.78,1.42,2.82.94,1.08-.48,1.57-1.74,1.09-2.82-.03-.06-.06-.12-.09-.18Z"/><path d="m313.47,31.97c.41,2.62-1.38,5.08-4,5.5-1.04.15-2.09-.14-2.9-.8l.5,4.7-2.8.3-1.5-13.18,2.8-.3v.9c.69-.86,1.7-1.4,2.8-1.5,2.63-.18,4.92,1.81,5.1,4.44,0,.02,0,.04,0,.06v-.12Zm-2.8.3c-.08-1.25-1.16-2.19-2.4-2.11-.03,0-.07,0-.1,0-1.21.08-2.12,1.13-2.03,2.34,0,.09.02.18.03.26.08,1.25,1.16,2.19,2.4,2.11.03,0,.07,0,.1,0,1.21-.08,2.12-1.13,2.03-2.34,0-.09-.02-.18-.03-.26h0Z"/><path d="m325.66,34.67c-.52,2.58-3.01,4.27-5.6,3.8-1.04-.24-1.94-.89-2.5-1.8l-1.1,4.6-2.8-.7,3.2-12.9,2.8.7-.2.9c.9-.55,1.99-.69,3-.4,2.53.76,3.97,3.43,3.21,5.96,0,.01,0,.02-.01.04v-.2Zm-2.8-.7c.27-1.22-.5-2.44-1.72-2.71-1.22-.27-2.44.5-2.71,1.72-.26,1.19.46,2.37,1.63,2.69,1.17.36,2.41-.3,2.77-1.47.02-.07.04-.15.06-.23h-.03Z"/><path d="m330.26,40.37c.57.35,1.24.49,1.9.4l1.2,2.4c-1.51.56-3.2.3-4.47-.68-2.7-1.8-3.2-4.7-1.6-7.1,1.17-2.5,4.14-3.58,6.65-2.42,2.5,1.17,3.58,4.14,2.42,6.65-.2.42-.45.82-.76,1.17-.2.3-.5.6-.7.9l-5.6-3.7c-.16.98.32,1.94,1.2,2.4l-.23-.02Zm3.4-1.9c.37-.91-.02-1.96-.9-2.4-.77-.61-1.88-.57-2.6.1l3.4,2.3h.1Z"/><path d="m344.26,43.57l-2.4,2.1c-.6-1-2.1-2-3.5-.7l-3.2,2.8-1.9-2.1,7.2-6.2,1.9,2.1-1.3,1.1c1.18-.42,2.5-.06,3.3.9h-.1Z"/><rect class="cls-7" x="283.97" y="53.97" width="52" height="37" rx="2.9" ry="2.9"/><path class="cls-15" d="m301.26,84.77c-3.29.1-6.48-1.17-8.8-3.5-4.67-4.94-4.67-12.66,0-17.6,2.31-2.36,5.5-3.63,8.8-3.5,3.5,0,4.1.5,5.9,1.5,1.77.96,3.26,2.37,4.3,4.1l-5.2,3c-.48-.83-1.17-1.52-2-2-.92-.49-1.96-.73-3-.7-1.72-.07-3.38.59-4.6,1.8-1.18,1.23-1.8,2.9-1.7,4.6-.23,3.31,2.27,6.17,5.58,6.39.24.02.48.02.72,0,1.05.14,2.12-.11,3-.7.85-.45,1.55-1.15,2-2l5.2,3c-1.04,1.73-2.53,3.14-4.3,4.1-1.84,1.01-3.9,1.53-6,1.5h.1Z"/><path class="cls-15" d="m324.57,67.37h5.6v16.9h-5.6v-1.7c-1.1,1.47-2.86,2.3-4.7,2.2-1.72.12-3.39-.59-4.5-1.9-1.2-1.2-1.7-3-1.7-5.4v-10.1h5.6v9.4c-.06.74.19,1.46.7,2,.48.47,1.13.73,1.8.7.75.01,1.47-.28,2-.8.53-.65.78-1.47.7-2.3v-9h.1Z"/><circle class="cls-1" cx="200" cy="61.97" r="45"/><rect class="cls-16" x="174" y="51.97" width="52" height="37" rx="2.9" ry="2.9"/><path class="cls-15" d="m200.79,82.27l-1.1-3.4h-8l-1,3.4h-6.5l7.5-23.6h7.6l7.8,23.6h-6.3Zm-7.6-8.6h4.8l-2.4-8-2.4,8Z"/><path class="cls-15" d="m208.5,82.27v-24.7h5.6v24.7h-5.6Z"/><path d="m176.09,40.67l-2.4,3.1,1,1.4-1.6,2.1-6.1-9.3,1.9-2.4,10.5,3.7-1.6,2.1-1.6-.6-.1-.1Zm-2.2-.8l-3.8-1.38,2.3,3.3,1.5-1.92Z"/><path d="m172.79,30.87l1.7-1.4,7,8.4-1.7,1.4-7-8.4Z"/><path d="m185,27.07l3.6,6.6-2,1.1-.3-.6c-.11.81-.64,1.49-1.4,1.8-1.33.74-3.01.25-3.75-1.08-.06-.1-.11-.21-.15-.32l-2.2-4,2-1.1,2,3.8c.29.65,1.06.94,1.71.65.03-.01.06-.03.09-.05.67-.32.95-1.12.63-1.79-.04-.07-.08-.15-.13-.21l-2-3.6,2-1.1-.1-.1Z"/><path d="m199.59,26.57l.8,4.5-2.2.4-.8-4.3c-.03-.6-.54-1.05-1.14-1.02-.06,0-.11.01-.16.02-.7.1-1.1.7-.9,1.6l.7,4.2-2.2.4-.8-4.3c-.03-.6-.54-1.05-1.14-1.02-.06,0-.11.01-.16.02-.7.1-1.1.7-.9,1.6l.7,4.2-2.2.4-1.3-7.4,2.2-.4v.7c.41-.67,1.12-1.11,1.9-1.2.76-.23,1.58,0,2.1.6.37-.79,1.13-1.33,2-1.4,1.7-.3,3,.7,3.3,2.6l.2-.2Z"/><path d="m201.89,24.17l2.2.2-.6,7.5-2.2-.2.6-7.5Zm0-2c.08-.75.75-1.29,1.5-1.2.75.08,1.29.75,1.2,1.5s-.75,1.29-1.5,1.2c0,0,0,0,0,0-.72-.05-1.26-.66-1.21-1.38,0-.04,0-.08.01-.12Z"/><path d="m212.89,29.27l-1.2,4.4-2.2-.6,1.1-4.1c.24-.68-.11-1.42-.78-1.66-.04-.01-.08-.03-.12-.04-.69-.26-1.46.08-1.72.76-.04.11-.07.22-.08.34l-1.1,3.9-2.2-.6,2-7.2,2.2.6-.2.7c.68-.46,1.53-.57,2.3-.28,1.49.39,2.38,1.91,2,3.4-.03.1-.06.2-.1.3l.1.08Z"/><path d="m222.5,31.27l-3.8,6.4-1.9-1.18.4-.6c-.77.29-1.63.18-2.3-.3-1.32-.77-1.78-2.46-1.01-3.78.06-.11.13-.22.21-.32l2.4-4,1.9,1.2-2.2,3.7c-.41.5-.34,1.24.16,1.65.07.06.15.11.24.15.63.41,1.48.23,1.89-.4.04-.06.08-.13.11-.2l2.1-3.5,1.9,1.2-.1-.02Z"/><path d="m230.29,43.57l-3.5,3-1.5-1.7,3.4-2.9c.6-.5.7-1.1.2-1.6-.43-.5-1.18-.55-1.68-.12-.04.04-.08.08-.12.12l-3.2,2.7-1.5-1.7,3.4-2.9c.6-.5.7-1.1.2-1.6-.43-.5-1.18-.55-1.68-.12-.04.04-.08.08-.12.12l-3.2,2.7-1.5-1.7,5.7-4.9,1.5,1.7-.5.4c.76,0,1.49.34,2,.9.54.56.73,1.36.5,2.1.85-.02,1.66.35,2.2,1,1.03,1.19.9,3-.29,4.03-.07.06-.14.11-.21.17l-.1.3Z"/><circle class="cls-1" cx="90.03" cy="61.97" r="45"/><path d="m70.44,32.77c1.57,2.02,1.21,4.92-.8,6.5l-1.6,1.22,2.6,3.3-2.4,1.9-8.3-10.4,3.9-3.1c1.97-1.6,4.87-1.31,6.47.66,0,.01.02.02.03.04l.1-.12Zm-2.4,1.9c-.47-.71-1.43-.9-2.14-.43-.06.04-.11.08-.16.13l-1.6,1.2,2.1,2.7,1.6-1.2c.69-.56.79-1.58.23-2.27,0-.01-.02-.02-.03-.03v-.1Z"/><path d="m70.89,27.07l2.6-1.2,5.75,12.62-2.6,1.2-5.75-12.62Z"/><path d="m88.24,26.57l1.7,9.4-2.8.5-.2-.9c-.58.9-1.53,1.49-2.6,1.6-2.61.37-5.03-1.46-5.4-4.07,0,0,0-.02,0-.03-.62-2.51.92-5.04,3.43-5.66.06-.01.11-.03.17-.04,1.04-.24,2.13-.03,3,.6l-.2-.9,2.8-.5h.1Zm-2,5.2c-.14-1.2-1.22-2.06-2.42-1.93-.06,0-.12.02-.18.03-1.17.14-2,1.2-1.87,2.36.01.11.04.23.07.34.14,1.2,1.22,2.06,2.42,1.93.06,0,.12-.02.18-.03,1.17-.14,2-1.2,1.87-2.36-.01-.11-.04-.23-.07-.34Z"/><path d="m98.74,34.27c-.3,2.2-2.3,2.9-4.3,2.6-1.73-.04-3.25-1.16-3.8-2.8l2.6-1.1c.14.73.76,1.26,1.5,1.3.7,0,1,0,1.1-.5.1-1-4.6-1.1-4.2-4.3.3-2.1,2.1-2.9,4.1-2.6,1.51.13,2.82,1.1,3.4,2.5l-2.6,1c-.16-.54-.64-.94-1.2-1-.5,0-.8,0-.9.4-.1,1.1,4.6,1,4.1,4.4l.2.1Z"/><path d="m104.44,32.27l-1.2,3.1c-.3.8.3,1.1,1.5,1.5l-.9,2.4c-3.6-1-4.2-2.4-3.3-4.9l1.2-3.2-1.4-.5,1-2.6,1.4.5.6-1.7,3,.2-.9,2.5,1.8.7-1,2.6-1.8-.7v.1Z"/><path d="m109.74,31.67l2.4,1.5-4.9,8.2-2.35-1.5,4.85-8.2Zm1.1-2.3c.47-.8,1.5-1.07,2.3-.6.8.47,1.07,1.5.6,2.3-.47.8-1.5,1.07-2.3.6-.78-.47-1.04-1.49-.56-2.28,0,0,0-.01.01-.02h-.05Z"/><path d="m111.44,38.17c1.78-2.01,4.86-2.2,6.87-.41.08.07.15.14.23.21,1.3,1.19,1.84,2.99,1.4,4.7l-2.8-.7c.21-.73-.02-1.51-.6-2-.92-.82-2.33-.73-3.15.19-.76.86-.74,2.17.05,3.01.53.59,1.36.79,2.1.5l.8,2.7c-1.7.51-3.54.05-4.8-1.2-2.02-1.89-2.12-5.05-.23-7.07.01-.01.02-.02.03-.03l.1.1Z"/><path class="cls-18" d="m113.41,58.2v.1h-1.6q-.68,0-.68.69v30.33c.02.44-.13.88-.42,1.21-.19.22-.49.25-.68.45h-10.68c0-.09,0-.18,0-.27l-1.23-5.36c-.72-3.12-1.43-6.23-2.15-9.35-1.05-4.55-2.11-9.1-3.16-13.64-.92-4-1.84-7.97-2.75-11.92h15c.23-.04.46.03.63.18v6.21c.02.73.59,1.32,1.32,1.37h3.78c.28,0,.38-.09.38-.36v-1.84c.12,0,.17.11.24.19l2,2.01Z"/><path class="cls-13" d="m113.41,89.89c-.39.8-1.26,1.25-2.14,1.1-.41-.02-.82-.02-1.23,0,.19-.2.49-.24.67-.45.29-.34.44-.77.42-1.21v-30.35q0-.69.69-.69h1.59v31.6Z"/><path class="cls-10" d="m69.78,50.35v-.9c-.16-.88.3-1.75,1.11-2.11h2c0,.07.04.14.1.19.6.38.92,1.08.82,1.78-.02.38-.02.75,0,1.13h-3.92l-.11-.09Z"/><path class="cls-14" d="m73.78,50.49v-1.13c.15-.73-.17-1.48-.81-1.87-.06-.05-.1-.12-.11-.19h2c.89.41,1.38,1.37,1.17,2.33v.77l-2.25.09Z"/><path class="cls-11" d="m99.35,90.98h-6.22c0-.06,0-.12,0-.18l-1.83-8-3.18-13.66c-1.07-4.62-2.14-9.24-3.23-13.86-.37-1.61-.73-3.22-1.1-4.83h6.22c.91,4,1.82,7.97,2.74,11.91,1.05,4.55,2.11,9.09,3.17,13.64.72,3.12,1.43,6.23,2.14,9.35.41,1.79.82,3.58,1.24,5.36.02.09.04.18.05.27Z"/><path class="cls-11" d="m105.65,50.62c.13.03.26.1.34.21l5,5c.05.05.1.11.14.18v1.83c0,.27-.1.36-.38.36h-3.78c-.72-.06-1.29-.64-1.32-1.37v-6.21Z"/><path class="cls-18" d="m83.82,50.49c.37,1.61.73,3.22,1.1,4.83,1.06,4.62,2.12,9.24,3.19,13.86l3.18,13.65,1.83,8c0,.06,0,.12,0,.18h-14.05v-3c0-.51-.27-.81-.71-.82s-.75.29-.75.82v3h-9.22c-.95.02-1.73-.74-1.75-1.69,0-.01,0-.03,0-.04v-37.11c.01-.94.78-1.69,1.72-1.68.01,0,.02,0,.03,0h9.23v3c-.06.4.22.77.62.82.03,0,.06,0,.09,0,.46,0,.75-.29.75-.83v-3h4.74Zm-4.74,20.27v-1.55c0-.4-.33-.73-.73-.73-.4,0-.73.33-.73.73h0v3c-.04.39.24.74.64.78.04,0,.08,0,.11,0,.4,0,.72-.33.71-.73,0-.02,0-.04,0-.05,0-.47,0-.96,0-1.45Zm-1.47,6.14v1.55c0,.4.33.73.73.73.4,0,.73-.33.73-.73h0v-3.06c-.03-.41-.35-.73-.76-.76-.39,0-.7.31-.7.7,0,.02,0,.03,0,.05v1.52Zm0-12.41v1.5c-.02.41.29.77.71.79h0c.42-.05.74-.4.75-.82v-2.91c0-.55-.26-.83-.74-.83s-.71.29-.72.81,0,1,0,1.46Zm0-6.27v1.51c-.04.37.22.71.59.76.04,0,.08,0,.12,0,.39.03.72-.26.75-.64,0-.05,0-.09,0-.14v-2.92c.04-.38-.23-.73-.61-.78-.04,0-.08,0-.13,0-.45,0-.71.28-.72.8s0,.94,0,1.41h0Zm1.47,25v-1.47c0-.52-.27-.8-.72-.81-.39-.02-.72.27-.74.65,0,.04,0,.08,0,.13v2.92c-.05.38.21.72.59.78.05,0,.09,0,.14,0,.46,0,.71-.29.72-.8s0-.94,0-1.42v.02Z"/><path class="cls-13" d="m79.07,50.49v3c0,.53-.29.84-.75.82s-.7-.31-.71-.82v-3h1.46Z"/><path class="cls-10" d="m69.89,90.99h3.93v1.19c.1.83-.39,1.62-1.18,1.9h-1.27c-.84.04-1.56-.61-1.6-1.46,0-.05,0-.1,0-.14v-1.41l.12-.08Z"/><path class="cls-14" d="m72.6,94.08c.78-.29,1.27-1.07,1.18-1.9v-1.19h2.25c.07.6.07,1.21,0,1.81-.13.78-.82,1.34-1.61,1.29h-1.82Z"/><path class="cls-13" d="m77.62,90.98v-3c0-.54.29-.84.75-.83.4,0,.72.34.72.74,0,.03,0,.06,0,.09v3h-1.46Z"/><path class="cls-9" d="m69.89,50.49h-.09s0-.06,0-.09l.09.09Z"/><path class="cls-9" d="m69.89,90.99l-.07.09s0-.06,0-.09h.07Z"/><path class="cls-8" d="m79.08,70.76v1.46c0,.4-.33.73-.73.73-.4,0-.73-.33-.73-.73h0v-3c-.04-.39.25-.74.64-.78.02,0,.05,0,.07,0,.4-.02.73.29.75.69,0,.03,0,.06,0,.09,0,.49,0,1.03,0,1.54Z"/><path class="cls-13" d="m77.62,76.9v-1.5c-.03-.38.25-.71.63-.75.02,0,.05,0,.07,0,.4.03.72.36.75.76v3.06c.03.37-.24.7-.62.74-.04,0-.08,0-.11,0-.38.02-.7-.27-.72-.66,0-.03,0-.07,0-.1,0-.51,0-1.03,0-1.55Z"/><path class="cls-13" d="m77.62,64.49v-1.46c0-.52.26-.8.71-.8s.74.27.74.82v2.92c0,.42-.33.77-.75.81-.41-.02-.73-.37-.71-.79h0c0-.5.01-1,.01-1.5Z"/><path class="cls-13" d="m77.62,58.22v-1.41c0-.52.26-.8.72-.8.38-.03.71.26.73.64,0,.05,0,.09,0,.14v2.92c0,.4-.33.73-.73.73-.4,0-.73-.33-.73-.73h0c-.01-.46,0-.98,0-1.49Z"/><path class="cls-13" d="m79.08,83.2v1.42c0,.51-.27.8-.72.8-.38.03-.71-.26-.73-.64,0-.05,0-.09,0-.14v-2.92c-.04-.38.23-.73.61-.78.04,0,.08,0,.13,0,.45,0,.7.29.71.81v1.45Z"/><line class="cls-5" x1="199.32" y1="113.18" x2="199.82" y2="145.96"/><line class="cls-4" x1="199.32" y1="113.18" x2="199.65" y2="135.2"/><polygon class="cls-19" points="192.14 133.12 199.82 145.96 207.11 132.9 192.14 133.12"/><line class="cls-5" x1="118.24" y1="108.92" x2="166.89" y2="148.22"/><line class="cls-4" x1="118.24" y1="108.92" x2="158.53" y2="141.46"/><polygon class="cls-19" points="152.11 145.9 166.89 148.23 161.53 134.27 152.11 145.9"/><line class="cls-5" x1="280.89" y1="108.92" x2="232.25" y2="148.22"/><line class="cls-4" x1="280.89" y1="108.92" x2="240.62" y2="141.46"/><polygon class="cls-19" points="237.62 134.27 232.25 148.22 247.03 145.9 237.62 134.27"/><path class="cls-12" d="m198.48,175.07c3.23-.15,6.38,1.01,8.74,3.21.57.42.7,1.22.3,1.81-.4.5-1.1.5-1.8,0-1.82-1.78-4.29-2.72-6.83-2.6-2.13.05-4.16.87-5.73,2.31-.17.2-.38.36-.6.5-.49.39-1.21.31-1.6-.19,0,0,0,0,0-.01-.35-.44-.35-1.07,0-1.51.61-.64,1.33-1.18,2.11-1.6,1.65-1.08,3.55-1.7,5.52-1.81l-.1-.11Z"/><path class="cls-6" d="m199,179.29c2.2-.02,4.32.81,5.92,2.31.71.6.81,1.3.3,1.8-.47.5-1.26.52-1.75.05-.02-.02-.03-.03-.05-.05-2.38-2.21-6.06-2.21-8.44,0-.7.61-1.31.61-1.81.1s-.4-1.2.2-1.8c1.54-1.41,3.54-2.23,5.63-2.31v-.1Z"/><path class="cls-6" d="m199.09,183.49c1.34.01,2.62.51,3.61,1.41.49.39.61,1.07.3,1.61h0c-.38.5-1.09.59-1.58.21,0,0-.01,0-.02-.01h0c-1.16-1.09-2.96-1.09-4.12,0-.37.44-1.03.5-1.48.13-.05-.04-.09-.08-.13-.13l-.1-.1c-.39-.53-.29-1.27.24-1.67.02-.02.04-.03.06-.04h0c.96-.89,2.21-1.4,3.52-1.41h-.3Z"/><path class="cls-17" d="m219.78,208.61c-1.51-5.32,3.31-16.57-4.92-17.27h-31.14c-8.74.2-3.92,11.85-5.42,17.27v6.73c1.5,5.33-3.22,16.17,4.62,17.28h32.14c7.93-1,3.21-12,4.72-17.28v-6.73Z"/><circle class="cls-2" cx="199.09" cy="196.16" r="45.2"/><path d="m175.28,178.49l-1.2,2.21-5.73-3.21,2.71,4.82v.3l-5.72.2,5.72,3.21-1.2,2.21-9.84-5.52,1.2-2.21,5.83-.2-2.92-5.12,1.21-2.21,9.84,5.52h.1Z"/><path d="m173.07,175.27c-1.55-1.74-1.39-4.4.35-5.94.02-.02.04-.04.06-.06,1.77-1.53,4.44-1.35,6,.4,1.55,1.78,1.38,4.48-.4,6.03-1.78,1.55-4.48,1.38-6.03-.4l.02-.03Zm4.62-4c-.69-.72-1.84-.74-2.56-.05-.72.69-.74,1.84-.05,2.56.67.7,1.78.74,2.5.1.75-.58.89-1.65.32-2.4-.06-.08-.14-.16-.22-.23v.02Z"/><path d="m185.53,158.7l4.62,10.24-2.21,1-.3-.7c-.28.88-.94,1.59-1.81,1.91-1.98.85-4.27-.07-5.12-2.05-.04-.09-.07-.17-.1-.26-1.03-1.95-.28-4.37,1.67-5.4,0,0,.02-.01.03-.02.82-.39,1.77-.43,2.62-.1l-1.61-3.62,2.21-1Zm.8,7.53c-.36-.95-1.41-1.42-2.36-1.07-.05.02-.1.04-.15.07-.94.39-1.39,1.47-1,2.42.03.07.06.14.1.2.36.95,1.41,1.42,2.36,1.07.05-.02.1-.04.15-.07.95-.42,1.39-1.52.97-2.48-.02-.05-.05-.1-.07-.14Z"/><path d="m194.97,166.23c.58.01,1.12-.29,1.41-.8l2.1.8c-.63,1.21-1.85,2.01-3.21,2.11-2.27.46-4.49-1.01-4.95-3.29-.02-.11-.04-.22-.05-.33-.39-2.26,1.13-4.4,3.39-4.79.07-.01.14-.02.22-.03,2.18-.35,4.23,1.13,4.58,3.32.02.1.03.2.04.3v1l-5.62.8c.4.76,1.3,1.1,2.11.81l-.02.1Zm1.1-3.12c-.29-.76-1.11-1.19-1.9-1-.82.08-1.48.7-1.61,1.51l3.41-.51h.1Z"/><path d="m212.34,164.92l-1,4.82-2.31-.5,1-4.62c.21-.8-.1-1.4-.9-1.51s-1.31.31-1.51,1.21l-.9,4.42-2.31-.5,1-4.62c.21-.81-.1-1.41-.9-1.51s-1.31.3-1.51,1.21l-.9,4.42-2.31-.51,1.71-7.83,2.31.5-.2.7c.63-.56,1.51-.75,2.31-.5.83.14,1.52.72,1.8,1.51.7-.58,1.63-.81,2.52-.6,1.8.4,2.71,1.9,2.31,3.91h-.21Z"/><path d="m215.06,165.43l5.22,3.11-1.21,2-5.18-3.11,1.17-2Z"/><path d="m225.31,178.98l-.8-.8-1.31,1.31-1.81-1.91,1.31-1.31-3.62-3.61,1.71-1.71,7.53-2.41,1.91,2-7.53,2.41,1.61,1.71,1.7-1.71,1.81,1.91-1.71,1.7.81.81-1.71,1.7.1-.09Z"/><path d="m233.89,188.12c-2.51,1.39-5.67.48-7.05-2.03-.1-.19-.2-.38-.28-.58-1.55-2.83-.51-6.38,2.33-7.92,2.83-1.55,6.38-.51,7.92,2.33.07.12.13.25.19.38.91,1.75.83,3.84-.2,5.52l-2.11-1.4c.83-1.67.15-3.69-1.51-4.52-.95-.47-2.06-.47-3.01,0-1.65.74-2.39,2.69-1.64,4.34.04.1.09.19.14.28.44,1.15,1.58,1.89,2.81,1.81l-1.31-2.72,2-1,2.41,5.12-.9.4h.21Z"/><path d="m196.89,213.43v4.62h-2v3h-5v-3h-8.64v-4.62l5.82-12.05h5.53l-5.93,12.05h3.12v-3.51h5v3.51h2.1Z"/><path d="m218.17,209.82v2c.25,5.12-3.69,9.49-8.82,9.74-.31.02-.62.02-.92,0-2.8.07-5.51-.98-7.54-2.91-1.93-1.9-2.98-4.52-2.91-7.23-.02-2.73,1.02-5.36,2.91-7.33,1.92-1.98,4.58-3.06,7.34-3,1.75-.16,3.51.27,5,1.21,1.47.77,2.72,1.91,3.61,3.31l-4.21,2.41c-.45-.62-1.04-1.14-1.71-1.51-.81-.41-1.7-.61-2.61-.6-1.43-.04-2.81.5-3.82,1.51-1.02,1.04-1.56,2.45-1.51,3.91-.06,1.43.49,2.82,1.51,3.82,1.1,1.07,2.58,1.66,4.12,1.61,1.88.05,3.62-.96,4.52-2.61h-4.72v-4.32h9.76Z"/><line class="cls-5" x1="199.69" y1="250.23" x2="200.19" y2="283.01"/><line class="cls-4" x1="199.69" y1="250.23" x2="200.03" y2="272.25"/><polygon class="cls-19" points="192.52 270.17 200.19 283.01 207.48 269.95 192.52 270.17"/><circle class="cls-3" cx="200" cy="338.03" r="45"/><path d="m164.6,335.53c-2.5-.5-4-2.8-3.4-5.3.3-1.5,1.4-2.7,2.7-3.2l.6,1.9c-.7.2-1.3.9-1.5,1.7-.3,1.5.5,2.7,2,3,1.5.3,2.7-.4,3-1.9.2-.8,0-1.7-.6-2.2l1.3-1.4c1,1,1.5,2.5,1.2,4-.6,2.5-2.8,3.9-5.3,3.4Z"/><path d="m167.9,327.03c-1.6-.8-2.2-2.7-1.4-4.4.8-1.6,2.7-2.3,4.3-1.5,1.6.8,2.2,2.7,1.4,4.4-.8,1.6-2.7,2.3-4.3,1.5Zm2.1-4.2c-.8-.4-1.6,0-1.9.6s-.1,1.5.7,1.9c.8.4,1.6,0,1.9-.6.4-.7.1-1.5-.7-1.9Z"/><path d="m177.1,312.73l2.8,2.5-1.2,1.4-2.7-2.4c-.5-.4-.9-.5-1.3,0s-.3,1,.2,1.5l2.6,2.3-1.2,1.4-2.7-2.4c-.5-.4-.9-.5-1.3,0s-.3,1,.2,1.5l2.6,2.3-1.2,1.4-4.5-4.1,1.2-1.4.4.4c-.1-.5,0-1.1.6-1.7.5-.5,1.1-.7,1.7-.6-.1-.6,0-1.2.6-1.9.9-1,2.3-1,3.4,0l-.2-.2Z"/><path d="m182.3,306.63l3.3,5.2-1.6,1-.3-.5c0,.6-.4,1.1-1.1,1.6-1,.7-2.4.5-3.3-.9l-2-3.2,1.6-1,1.9,3c.4.6,1,.7,1.5.4.6-.4.8-.9.3-1.7l-1.8-2.8,1.6-1-.1-.1Z"/><path d="m190.6,305.93l1.3,3.5-1.7.6-1.2-3.3c-.3-.7-.8-.9-1.4-.7-.6.2-.9.8-.7,1.6l1.1,3.2-1.7.6-2.1-5.8,1.7-.6.2.5c.2-.5.6-1,1.4-1.3,1.2-.4,2.5,0,3,1.6l.1.1Z"/><path d="m191.3,301.73c-.1-.6.3-1.2.9-1.3s1.2.3,1.3.9c.1.6-.3,1.2-.9,1.3-.6.1-1.2-.3-1.3-.9Zm.5,1.6l1.8-.3,1.1,6-1.8.3-1.1-6Z"/><path d="m195.3,305.73c0-1.8,1.3-3.3,3.1-3.3,1.2,0,2.3.6,2.8,1.5l-1.6,1c-.2-.4-.7-.7-1.2-.7-.8,0-1.4.6-1.3,1.5,0,.8.6,1.4,1.4,1.4.5,0,1-.3,1.2-.7l1.6.9c-.5,1-1.5,1.6-2.7,1.7-1.9,0-3.3-1.3-3.3-3.1v-.2Z"/><path d="m208.9,303.73l-1.1,6-1.8-.3v-.6c-.4.4-1,.6-1.8.4-1.6-.3-2.6-1.9-2.3-3.7s1.9-2.9,3.5-2.7c.8.1,1.3.5,1.7,1.1v-.6c.1,0,1.9.3,1.9.3l-.1.1Zm-2.4,2.7c.2-.9-.3-1.6-1.2-1.7s-1.5.3-1.7,1.2c-.2.9.3,1.6,1.2,1.7.8.2,1.5-.3,1.7-1.2Z"/><path d="m212.5,306.93l-.8,2c-.2.5.2.7,1,1l-.6,1.6c-2.3-.6-2.7-1.6-2.1-3.2l.8-2-.9-.4.6-1.6.9.4.4-1.1,1.9.2-.6,1.6,1.2.5-.6,1.6-1.2-.5v-.1Z"/><path d="m215.7,306.43l1.6.9-2.9,5.4-1.6-.9,2.9-5.4Zm.6-1.5c.3-.5,1-.7,1.5-.5.5.3.7,1,.5,1.5-.3.5-1,.7-1.5.5s-.7-1-.5-1.5Z"/><path d="m217,310.53c1.1-1.4,3.1-1.7,4.5-.6s1.7,3.1.6,4.5-3.1,1.7-4.5.6-1.7-3.1-.6-4.5Zm3.7,2.8c.5-.7.4-1.5-.2-2s-1.5-.4-2,.3c-.5.7-.4,1.5.2,2s1.5.4,2-.3Z"/><path d="m227.4,319.53l-2.9,2.4-1.2-1.4,2.7-2.2c.6-.5.6-1.1.2-1.5-.4-.5-1-.6-1.7,0l-2.6,2.1-1.2-1.4,4.7-3.9,1.2,1.4-.4.4c.6,0,1.2.2,1.7.9.8,1,.8,2.3-.5,3.4v-.2Z"/><path d="m229,327.63l-.4-.8-1.2.6-.9-1.8,1.2-.6-1.8-3.5,1.6-.8h6l1,1.8h-6l.8,1.6,1.6-.8.9,1.8-1.6.8.4.8-1.6.8v.1Z"/><path d="m233.8,335.93c-2.6.6-4.5-.9-5-3.2-.6-2.6.9-5,3.3-5.5s4.8,1,5.3,3.4c.4,1.6-.1,3.1-1.1,4.1l-1.3-1.4c.5-.5.7-1.3.5-2.3-.3-1.4-1.6-2.2-3.1-1.9-1.4.3-2.2,1.5-1.9,3.2.2,1.1.9,1.7,1.8,1.9l-.5-2.2,1.7-.4.9,4.2-.7.2.1-.1Z"/><path class="cls-17" d="m211.8,326.03c-8.5-.2-17.8-.2-26.3,0-14.8,1.9-22,20.9-11.6,31.8,2.2,3.3-1.6,9.5,2.3,11.8,3.3,1,5.2-3.4,7.4-5.1,9.2-1,20.3.5,29.8-.5,22.1-2.9,20.7-37.2-1.6-38.2v.2Z"/><path d="m197,347.03v4.2h-1.8v2.7h-4.5v-2.7h-7.8v-4.2l5.3-10.9h5l-5.4,11h2.8v-3.2h4.5v3.2h1.8l.1-.1Z"/><path d="m216.3,343.63v1.8c0,2.6-.8,4.7-2.5,6.4-1.6,1.6-3.8,2.4-6.4,2.4s-5.1-.9-6.9-2.7c-1.8-1.8-2.7-4-2.7-6.6s.9-4.8,2.7-6.6,4-2.7,6.6-2.7,3.2.4,4.6,1.1c1.4.7,2.5,1.7,3.2,3l-3.9,2.2c-.4-.6-.9-1-1.6-1.3-.7-.3-1.5-.5-2.3-.5-1.4,0-2.6.5-3.5,1.4-.9.9-1.4,2.1-1.4,3.5s.4,2.5,1.3,3.5c.9,1,2.1,1.4,3.8,1.4s3.4-.8,4.1-2.3h-4.3v-3.9h9l.2-.1Z"/></svg>