<?xml version="1.0" encoding="UTF-8"?><svg id="Layer_1" xmlns="http://www.w3.org/2000/svg" viewBox="0 0 400 400"><defs><style>.cls-1{stroke:#a5262d;}.cls-1,.cls-2{stroke-width:4px;}.cls-1,.cls-2,.cls-3{fill:none;stroke-miterlimit:10;}.cls-4{fill:#93c149;}.cls-5{fill:#7da1b1;}.cls-6{fill:#8fbac5;}.cls-7{fill:#fafdfc;}.cls-8{fill:#fff;}.cls-9{fill:#fcfdfd;}.cls-2{stroke:#0018c6;}.cls-10{fill:#e2e7f5;}.cls-11{fill:#f6f6f6;}.cls-12{fill:#e1e6f5;}.cls-13{fill:#f9fdfc;}.cls-14{fill:#bbc3c6;}.cls-15{fill:#f1f6f6;}.cls-16{fill:#f7f6fd;}.cls-17{fill:#02f1a6;}.cls-18{fill:#efc319;}.cls-19{fill:#e0e0e0;}.cls-20{fill:#e1e6f4;}.cls-3{stroke:#231f20;stroke-width:2px;}.cls-21{fill:#fde077;}.cls-22{fill:#fee077;}.cls-23{fill:#ddebf0;}.cls-24{fill:#474c68;}.cls-25{fill:#b3dd60;}.cls-26{fill:#26b899;}.cls-27{fill:#6eaa50;}.cls-28{fill:#fed05b;}.cls-29{fill:#efc31a;}.cls-30{fill:#b09146;}.cls-31{fill:#484645;}.cls-32{fill:#fec345;}.cls-33{fill:#93c578;}.cls-34{fill:#dee3f1;}.cls-35{fill:#2b2e3f;}.cls-36{fill:#94a4a4;}.cls-37{fill:#fee078;}.cls-38{fill:#cee5ec;}.cls-39{fill:#fdd15b;}.cls-40{fill:#cdcdcd;}.cls-41{fill:#231f20;}.cls-42{fill:#64c7ef;}.cls-43{fill:#28b99a;}</style></defs><line class="cls-8" x1="141.9" y1="201.6" x2="109.2" y2="201.1"/><line class="cls-3" x1="141.9" y1="201.6" x2="119.9" y2="201.3"/><polygon class="cls-41" points="122.2 193.9 109.2 201.1 122 208.8 122.2 193.9"/><line class="cls-8" x1="254.2" y1="201.6" x2="286.9" y2="201.1"/><line class="cls-3" x1="254.2" y1="201.6" x2="276.2" y2="201.3"/><polygon class="cls-41" points="274.1 208.8 286.9 201.1 273.9 193.9 274.1 208.8"/><line class="cls-8" x1="197.8" y1="145.8" x2="198.3" y2="113"/><line class="cls-3" x1="197.8" y1="145.8" x2="198.1" y2="123.8"/><polygon class="cls-41" points="205.6 126.1 198.3 113 190.6 125.8 205.6 126.1"/><line class="cls-8" x1="197.8" y1="257" x2="198.3" y2="289.8"/><line class="cls-3" x1="197.8" y1="257" x2="198.1" y2="279"/><polygon class="cls-41" points="190.6 276.9 198.3 289.8 205.6 276.7 190.6 276.9"/><circle class="cls-1" cx="198" cy="201.4" r="45"/><path d="m169.3,182.3c-2.5-3-2.3-7.2.8-9.7,1.8-1.6,4.2-2,6.3-1.3l-1,2.9c-1.1-.4-2.4-.1-3.4.7-1.8,1.5-1.9,3.7-.4,5.5,1.5,1.8,3.7,2,5.5.5,1-.9,1.5-2.1,1.3-3.2l3-.5c.3,2.2-.5,4.5-2.4,6-3.1,2.6-7.2,2.2-9.8-.8h.1Z"/><path d="m181.7,175c-.9-2.7.5-5.5,3.1-6.4,2.6-.9,5.5.4,6.4,3.1.9,2.7-.5,5.5-3.1,6.4-2.6.9-5.5-.4-6.4-3.1Zm6.8-2.4c-.4-1.3-1.6-1.8-2.8-1.4s-1.8,1.6-1.3,2.8c.4,1.3,1.6,1.8,2.8,1.4s1.8-1.6,1.3-2.8Z"/><path d="m203.6,171.5c0,2.8-2.1,5-4.6,5s-2.2-.5-2.8-1.2v.9h-2.9v-13.4h3v4.7c.6-.7,1.5-1.1,2.8-1.1,2.5,0,4.5,2.2,4.5,5.1Zm-2.8,0c0-1.4-.9-2.3-2.2-2.3s-2.3.9-2.3,2.3.9,2.3,2.2,2.3,2.3-.9,2.3-2.3Z"/><path d="m216.6,171l-3.4,8.9-2.7-1,.3-.8c-.8.5-1.9.5-3.1,0-2.3-.9-3.5-3.7-2.5-6.3,1-2.6,3.7-4,6-3.1,1.2.5,1.9,1.2,2.2,2.1l.3-.8,2.7,1h.2Zm-4.3,3.4c.5-1.3,0-2.5-1.3-3-1.2-.5-2.4,0-2.9,1.4-.5,1.3,0,2.5,1.3,3,1.2.5,2.4,0,2.9-1.4Z"/><path d="m222.2,169.5l2.3,1.6-8,11.3-2.3-1.6,8-11.3Z"/><path d="m225.2,181.2l-2.4,2.4c-.6.6,0,1.1.8,2l-1.8,1.8c-2.9-2.4-2.8-4-.9-5.8l2.4-2.4-1.1-1.1,2-1.9,1.1,1.1,1.3-1.3,2.6,1.4-1.9,1.9,1.4,1.4-2,1.9-1.4-1.4h0Z"/><rect class="cls-42" x="171" y="191.4" width="52" height="37" rx="2.9" ry="2.9"/><path class="cls-31" d="m188.3,222.2c-3.6,0-6.5-1.2-8.8-3.5-2.3-2.4-3.5-5.3-3.5-8.8s1.2-6.4,3.5-8.8c2.3-2.4,5.3-3.5,8.8-3.5s4.1.5,5.9,1.5c1.8,1,3.3,2.4,4.3,4.1l-5.2,3c-.5-.8-1.1-1.5-2-2-.9-.5-1.9-.7-3-.7-1.9,0-3.4.6-4.6,1.8-1.2,1.2-1.7,2.7-1.7,4.6s.6,3.5,1.7,4.6c1.1,1.1,2.7,1.8,4.6,1.8s2.1-.2,3-.7c.9-.5,1.6-1.2,2-2l5.2,3c-1,1.7-2.5,3.1-4.3,4.1s-3.8,1.5-6,1.5h0Z"/><path class="cls-31" d="m209,222.2c-2.5,0-4.6-.9-6.4-2.6-1.8-1.7-2.6-3.8-2.6-6.3s.9-4.6,2.6-6.3c1.8-1.7,3.9-2.6,6.4-2.6s4.7.9,6.4,2.6c1.7,1.7,2.6,3.8,2.6,6.3s-.9,4.6-2.6,6.3c-1.7,1.7-3.9,2.6-6.4,2.6Zm0-5.4c1,0,1.8-.3,2.4-1,.6-.7,1-1.5,1-2.5s-.3-1.9-1-2.5c-.6-.7-1.5-1-2.4-1s-1.8.3-2.4,1c-.6.7-1,1.5-1,2.5s.3,1.9,1,2.5c.6.7,1.4,1,2.4,1Z"/><circle class="cls-2" cx="58.1" cy="201.4" r="45"/><path class="cls-26" d="m91.6,191.7v31.2c-.4.9-1.3,1.6-2.3,1.7h-4.6c-.8-.1-1.5-.1-2.3,0h-3.5c-.6-.1-1.3-.1-1.9,0h-9.4c-.8-.1-1.5-.1-2.3,0h-13.8c-.8-.1-1.5-.1-2.3,0h-3.5c-.6-.1-1.3-.1-1.9,0h-9.5v-34.7h54.6c1.3-.2,2.5.6,3,1.8h-.3Zm-45,15.6h0v3.5c0,2.5,2.1,4.6,4.6,4.6,2.5,0,4.6-2.1,4.6-4.6v-2.3c0-.9-.4-1.3-1.3-1.3h-1.9c-.7,0-1.3.4-1.4,1.1,0,0,0,0,0,0,0,.7.5,1.1,1.4,1.1s.9,0,.9.9c0,1.3-.9,2.4-2.2,2.4-1.2,0-2.3-.8-2.4-2v-6.9c0-.5,0-.9.3-1.3.6-1.1,2-1.5,3.1-.9.7.4,1.2,1.2,1.2,2,.1.8.6,1.3,1.2,1.2.7,0,1.1-.7,1-1.3,0,0,0,0,0,0-.1-2.5-2.3-4.5-4.8-4.4-2.3.1-4.2,2-4.4,4.3v3.8h.1Zm23.1-1.6v5c0,1.6.8,3.1,2.1,3.9,2.1,1.4,5,.9,6.4-1.2.5-.7.8-1.6.8-2.5v-10.8c-.1-.5-.6-.9-1.1-.8-.5,0-1,.3-1.1.8v10.5c0,1.3-.9,2.3-2.2,2.4-1.3,0-2.3-.9-2.4-2.2v-10.5c0-.5-.3-1-.8-1.2-.5-.2-1,0-1.3.4-.2.3-.3.6-.3,1v5.2Zm-11.5,1.6v6.9c0,.6.4,1.1.9,1.2.5,0,1-.2,1.2-.6.1-.2.2-.5.1-.8v-4.8c0-.5.1-.6.6-.6h1.8c2.5,0,4.4-2,4.5-4.5,0-2.4-1.7-4.4-4.1-4.7-1.2-.1-2.4,0-3.6,0s-1.5.4-1.5,1.5v6.5h0Zm-20.8-11v1.6c0,.6.5,1.2,1.1,1.3.6,0,1.2-.4,1.3-1,0,0,0,0,0,0v-1.9c0-.4.1-.5.5-.5h1.7c.6,0,1.2-.4,1.3-1,0-.6-.4-1.2-1-1.3h-3.5c-.7,0-1.2.4-1.3,1.1v1.8h-.1Z"/><path class="cls-14" d="m33.9,224.6v3.4c0,.9-.5,1.8-1.4,2.2-.8.4-1.7.3-2.4-.3-.6-.5-1-1.3-.9-2.1v-41c0-1.6.2-1.5-1.5-1.5s-2.6-.4-3.1-1.8v-1c.4-1.3,1.7-2,3-1.8h3.5c1.3-.2,2.5.7,2.7,2,0,.2,0,.4,0,.7v41.2h0Z"/><path class="cls-36" d="m29.2,206.1v15h-3c-.6,0-1.3-.3-1.6-.8v-13.5c.4-.5,1-.8,1.7-.7h2.9Z"/><path class="cls-36" d="m29.2,192.3v9.2h-3c-.6,0-1.3-.3-1.6-.8v-7.7c.4-.5,1-.8,1.7-.7h2.9Z"/><path class="cls-9" d="m46.6,207.3v-3.8c.2-2.5,2.4-4.4,4.9-4.2,2.3.2,4.1,2,4.3,4.3,0,.8-.3,1.3-1,1.4s-1.1-.4-1.2-1.2c0-1.2-1-2.2-2.2-2.2,0,0-.1,0-.2,0-.8,0-1.5.5-1.9,1.2-.2.4-.3.8-.3,1.3v6.5c-.2,1.3.7,2.4,2,2.6,1.3.2,2.4-.7,2.6-2,0,0,0-.1,0-.2v-.4c0-.4-.2-.8-.7-.9,0,0-.1,0-.2,0-.9,0-1.4-.5-1.4-1.1s.5-1.2,1.4-1.2h1.9c.9,0,1.3.4,1.3,1.3v2.3c0,2.5-2.1,4.6-4.6,4.6-2.5,0-4.6-2.1-4.6-4.6v-3.5h0v-.2Z"/><path class="cls-7" d="m69.6,205.7v-5c0-.3,0-.7.2-1,.3-.4.8-.6,1.3-.4.5.2.8.7.8,1.2v10.1c0,1.3.9,2.3,2.2,2.4,1.3,0,2.3-.9,2.4-2.2v-10.8c.1-.5.6-.9,1.1-.8.5,0,1,.3,1.1.8v10.8c0,2.5-2.2,4.6-4.7,4.5-.9,0-1.8-.3-2.5-.8-1.3-.9-2.1-2.3-2.1-3.9v-5h.2Z"/><path class="cls-7" d="m58.1,207.2v-6.5c0-1.1.4-1.5,1.5-1.5h3.6c2.4.2,4.2,2.3,4.1,4.7,0,2.5-2,4.4-4.5,4.5h-1.8c-.5,0-.6.1-.6.6v4.8c0,.3,0,.5-.1.8-.2.5-.7.7-1.2.6-.6,0-1-.5-.9-1.1,0,0,0,0,0-.1v-6.8h-.1Zm2.4-3.5v1.8c0,.4,0,.6.5.6h1.8c1.2,0,2.3-1,2.3-2.2,0,0,0,0,0,0h0c0-1.2-1-2.3-2.2-2.3,0,0,0,0,0,0h-1.8c-.4,0-.5.2-.5.5v1.7Z"/><path class="cls-29" d="m55.8,224.6v3.1c0,.7-.4,1.3-1.1,1.5h-3.4v-4.6h4.5Z"/><path class="cls-29" d="m65,229.2h-3.3c-.7,0-1.3-.5-1.3-1.2,0,0,0,0,0,0v-3.3h4.6v4.5Z"/><path class="cls-29" d="m89.3,224.6v3.1c0,.7-.4,1.3-1.1,1.5h-3.4v-4.6h4.5,0Z"/><path class="cls-29" d="m43.1,229.2h-3.3c-.7,0-1.3-.5-1.3-1.2,0,0,0,0,0,0v-3.4h4.6v4.6Z"/><path class="cls-13" d="m37.3,196.3v-1.6c0-.7.4-1.2,1.1-1.3h3.5c.6,0,1.2.4,1.3,1,0,.6-.4,1.2-1,1.3h-2c-.4,0-.5.1-.5.5v1.7c0,.6-.5,1.2-1.1,1.3-.6,0-1.2-.4-1.3-1,0,0,0,0,0,0v-1.8h0Z"/><path class="cls-18" d="m48.9,229.2h-3.4v-4.5h0c0-.1,3.4-.1,3.4-.1v4.6Z"/><path class="cls-18" d="m70.8,229.2h-3.4v-4.6h3.4v4.5h0Z"/><path class="cls-18" d="m76.6,229.2h-3.4v-4.6h3.4v4.6Z"/><path class="cls-18" d="m82.3,229.2h-3.4v-4.5h0c0-.1,3.4-.1,3.4-.1v4.6Z"/><path class="cls-30" d="m67.4,224.6v4.6h-2.3v-4.6c.8-.1,1.5-.1,2.3,0Z"/><path class="cls-30" d="m48.9,229.2v-4.6c.8-.1,1.5-.1,2.3,0v4.6h-2.3Z"/><path class="cls-30" d="m82.3,229.2v-4.6c.8-.1,1.5-.1,2.3,0v4.6h-2.3Z"/><path class="cls-30" d="m45.4,224.7v4.4h-.1c-.7,0-1.5.1-2.2.1v-4.6h2.3Z"/><path class="cls-30" d="m73.1,224.6v4.6h-2.3v-4.6h2.3,0Z"/><path class="cls-30" d="m78.9,224.7v4.4h0c-.7,0-1.5.1-2.2.1v-4.6h2.3Z"/><path class="cls-30" d="m72.8,224.6h-1.9c.6-.1,1.3-.1,1.9,0Z"/><path class="cls-30" d="m70.8,229.1h.1c0,.1-.1,0-.1,0Z"/><path class="cls-43" d="m60.4,203.8v-1.8c0-.4,0-.6.5-.5h1.8c1.3,0,2.3,1,2.3,2.3s-1,2.3-2.3,2.3h-1.8c-.5,0-.5-.2-.5-.6v-1.7Z"/><path d="m51.5,171.7c1.6,3.5,0,7.6-3.5,9.2-.2,0-.4.2-.6.2-3.9,1.7-8.4-.1-10.1-4,0,0,0-.1,0-.2-1.5-4,.5-8.5,4.5-10,2.4-.9,5-.6,7.1.8l-2.1,2.6c-2.1-1.3-4.8-.6-6.1,1.5-.7,1.2-.8,2.6-.3,3.9.9,2.3,3.2,3.4,5.9,2.3,1.6-.5,2.7-1.9,2.7-3.5l-3.7,1.4-1.1-2.7,6.9-2.7.5,1.2Z"/><path d="m65.9,169.5c-.1,2.8-2.5,4.9-5.3,4.8,0,0,0,0,0,0h-2.2c0-.1-.2,4.5-.2,4.5l-3.4-.2.7-14.7,5.6.3c2.8,0,5,2.4,4.9,5.2,0,0,0,0,0,0Zm-3.4-.2c0-1-.7-1.9-1.7-2h-2.2c0-.1-.2,3.7-.2,3.7h2.2c.9.1,1.8-.5,1.9-1.4,0,0,0-.2,0-.3h0Z"/><path d="m67.7,174.9l4.2-9,3,1.4-4.1,8.8c-.5,1-.4,2.1,1.2,2.8s2.5.1,3-.9l4.1-8.8,3,1.4-4.2,9c-1.3,2.9-4.3,3.6-7.3,2.2s-4.4-4.1-3-7h.1Z"/><circle class="cls-2" cx="198" cy="57.6" r="45"/><path class="cls-6" d="m186.8,93.6c-.8-.2-1.6-.6-2.3-1-1.5-1-2.4-2.8-2.3-4.6v-42.9c0-2.6,1.8-4.9,4.4-5.4h21.6c0,.2.1.2.2.2,1.3.4,2.5,1.2,3.2,2.4.4.5.6,1.2.6,1.8,0,0-.2-.2-.2-.3-.5-.8-1.4-1.3-2.4-1.3h-3.8c-.6,0-1.2.3-1.5.9-.2.3-.3.7-.5,1-.3.7-1,1.1-1.7,1.1h-6.7c-.3,0-.5,0-.8-.1-.4-.2-.7-.6-.8-1l-.6-1.2c-.2-.4-.6-.7-1.1-.7h-4.8c-1.4.3-2.3,1.6-2.2,3v42.5c0,1.5,1.1,2.7,2.6,2.8h22c.5,0,.9,0,1.3-.3.5-.3.9-.8,1.2-1.3v.2c-.4,1.9-1.8,3.4-3.7,4-.1,0-.4,0-.4.2h-21.3Zm11.9-50.3h1.8c.3,0,.7-.2.7-.6,0,0,0,0,0-.1,0-.5-.2-.9-.7-.9h-3.5c-.5,0-.7.4-.7.9s.3.6.7.7h1.7Z"/><path class="cls-5" d="m208.2,93.6c0-.3.2-.2.4-.2,1.8-.6,3.2-2.1,3.7-4v-.2c.2-.5.2-1.1.2-1.7v-41.8c0-.6,0-1.1-.2-1.7,0-.6-.2-1.3-.6-1.8-.7-1.2-1.9-2.1-3.2-2.4-.1,0-.2,0-.2-.2h2.4c.7.1,1.3.4,1.9.7,1.7,1,2.8,2.9,2.7,4.9v42.7c0,2.7-1.8,5.1-4.5,5.6h-2.6Z"/><path class="cls-15" d="m194.5,45.4c.3,0,.5.1.8.1h6.7c.8,0,1.5-.4,1.7-1.1.2-.3.3-.7.5-1,.3-.6.9-.9,1.5-.9h.9c0,.2.2.2.3.3,1,.5,1.6,1.5,1.6,2.6v42.5c0,1.1-.6,2.1-1.5,2.6-.2,0-.3.1-.3.3h-19.1c-1.5,0-2.6-1.3-2.6-2.8v-42.4c-.1-1.4.8-2.7,2.2-3,.5,0,.9,0,1.4,0,.5.6.9,1.3,1.3,2,.3.6,1,1,1.7.9h2.5c.2,0,.4,0,.5-.1h0Zm-3.5,29.9v10.4c0,1.1.3,1.4,1.4,1.4h12.9c.5,0,1-.3,1.1-.9,0,0,0-.1,0-.2v-21.4c0-.5-.3-1-.9-1.1,0,0-.1,0-.2,0h-1.1c-.5,0-1-.3-1.1-.9,0,0,0-.1,0-.2v-1.9c0-.5-.3-1-.9-1.1,0,0-.1,0-.2,0h-6.7c-.8,0-1.1.4-1.1,1.2v1.9c0,.7-.4,1-1.1,1h-.8c-1,0-1.3.3-1.3,1.3v10.5h0Zm7.7-24.2c0-.2.1-.3.2-.5.3-.5.7-1,1-1.5s.2-.9-.2-1.1-.8-.3-1,0c-.8,1.1-1.6,2.3-2.3,3.5-.3.6,0,1.1.7,1.1h1.4q.3,0,.2.3c-.5.8-1,1.6-1.6,2.4-.3.4-.3.9,0,1.3.4.3.9.1,1.3-.4.9-1.3,1.7-2.6,2.5-3.9.2-.3.2-.6,0-.9-.2-.3-.5-.4-.8-.4h-1.6.2Z"/><path class="cls-23" d="m206.7,90.7c0-.2.2-.2.3-.3.9-.5,1.5-1.5,1.5-2.6v-42.5c0-1.1-.6-2.1-1.6-2.6-.2,0-.3-.1-.3-.3h2.9c1,0,1.9.4,2.4,1.3,0,.1.1.2.2.3.2.5.2,1.1.2,1.7v41.8c0,.6,0,1.1-.2,1.7-.3.5-.7.9-1.2,1.3-.4.2-.8.3-1.3.3h-2.9,0Z"/><path class="cls-23" d="m194.5,45.4c-.1.2-.3.1-.5.1h-2.5c-.7,0-1.4-.3-1.7-.9-.4-.7-.8-1.4-1.3-2h3.4c.5,0,.9.3,1.1.7l.6,1.2c.2.4.5.7.8,1h0Z"/><path class="cls-5" d="m198.7,43.4h-1.6c-.3,0-.7-.2-.7-.6,0,0,0,0,0-.1,0-.5.2-.9.7-.9h3.5c.4,0,.8.5.7.9,0,.5-.2.6-.7.7-.6,0-1.2,0-1.8,0h0Z"/><path class="cls-17" d="m191,75.2v-10.5c0-1,.3-1.3,1.3-1.3h.8c.7,0,1-.3,1.1-1v-1.9c0-.8.3-1.2,1.1-1.2h6.7c.5,0,1,.3,1.1.9,0,0,0,.1,0,.2v1.9c0,.5.3,1,.9,1.1,0,0,.1,0,.2,0h1.1c.5,0,1,.3,1.1.9,0,0,0,.1,0,.2v21.4c0,.5-.3,1-.9,1.1,0,0-.1,0-.2,0h-12.9c-1.1,0-1.4-.3-1.4-1.4v-10.4h0Zm12.5,2.7v-10.6c0-.5-.3-.8-.9-.8h-7.9c-.4,0-.8.2-.9.7,0,0,0,.1,0,.2v15.9c0,.4.2.8.7.9,0,0,.1,0,.2,0h7.9c.4,0,.8-.2.9-.7,0,0,0-.1,0-.2v-5.4h0Z"/><path class="cls-37" d="m198.7,51h1.6c.4,0,.7,0,.8.4.1.3.1.6,0,.9-.8,1.3-1.7,2.6-2.5,3.9-.3.5-.8.6-1.3.4-.4-.3-.4-.8,0-1.3.5-.8,1-1.6,1.6-2.4.2-.2.1-.3-.2-.3h-1.4c-.7,0-1.1-.6-.7-1.1.7-1.2,1.5-2.3,2.3-3.5.2-.3.5-.4.8-.2,0,0,.2.1.2.2.3.3.4.7.2,1.1-.3.5-.7,1-1,1.5,0,.1-.2.2-.2.5h-.2Z"/><path class="cls-23" d="m200.3,66.4h2.4c.5,0,.9.3.9.7,0,0,0,0,0,0v2.5h-2.5c-.4,0-.5.1-.5.5v3.5h-6.7v-4.1h6.2c.2,0,.5.1.5-.2,0-1,.3-2.1-.3-3Z"/><path class="cls-21" d="m200.1,84.2h-5.3c-.4,0-.8-.2-.9-.7,0,0,0-.1,0-.2v-3.7h6.7v3.6c0,.4-.1.8-.5,1Z"/><path class="cls-22" d="m193.9,73.8h6.7v4.1h-6.7v-4.1Z"/><path class="cls-15" d="m200.3,66.4c.6,1,.2,2,.3,3,0,.3-.3.2-.5.2h-6.2v-2.3c0-.4.2-.8.7-.9,0,0,.1,0,.2,0h5.5Z"/><path class="cls-39" d="m200.1,84.2c.4-.2.5-.5.5-1v-3.6h2.9v3.7c0,.5-.3.9-.8.9,0,0,0,0-.1,0h-2.5Z"/><path class="cls-28" d="m200.6,77.9v-4.1h2.9v4.1h-2.9Z"/><path class="cls-38" d="m203.6,73.8h-2.9v-3.5c0-.4.1-.5.5-.5h2.5v4h-.1Z"/><path class="cls-39" d="m193.9,77.9h6.7v1.7h-6.7v-1.7Z"/><path class="cls-32" d="m200.6,79.6v-1.7h2.9v1.7h-2.9Z"/><path d="m163.8,50.2c2.1.3,3.5,2.3,3.2,4.4l-.3,1.6,3.5.5-.4,2.5-11-1.7.6-4.2c.3-2.1,2.2-3.6,4.3-3.3,0,0,0,0,0,0v.2Zm-.4,2.5c-.7-.2-1.4.3-1.6,1,0,0,0,0,0,.1l-.3,1.6,2.8.4.3-1.6c.1-.7-.4-1.4-1.1-1.5,0,0,0,0-.1,0h0Z"/><path d="m170.2,41.9l4.4,2.1-1,2.1-4.1-2c-.7-.4-1.5-.1-1.9.5,0,0,0,0,0,0-.4.8-.2,1.5.8,2l3.9,1.9-1,2.1-10-4.9,1-2.1,3.5,1.7c-.3-.8-.3-1.7.1-2.5.7-1.5,2.5-2.1,4-1.4,0,0,.2.1.3.2v.2Z"/><path d="m171.9,40.9c-1.7-1.6-1.8-4.2-.2-5.9,1.6-1.7,4.2-1.8,5.9-.2,1.7,1.6,1.8,4.2.2,5.9-1.5,1.7-4.2,1.8-5.8.2,0,0,0,0,0,0Zm4.1-4.4c-.7-.7-1.9-.6-2.5.2-.7.7-.6,1.9.2,2.5.7.6,1.8.6,2.5,0,.7-.7.7-1.8,0-2.5,0,0,0,0,0,0Z"/><path d="m185.3,29.1l2.4,4.2-2.1,1.2-2.2-3.9c-.2-.7-1-1-1.6-.7,0,0-.2,0-.3.1-.8.4-1,1.2-.5,2.2l2.1,3.8-2.1,1.2-3.9-6.9,2.1-1.2.4.6c0-.7.6-1.4,1.5-2,1.4-.8,3.1-.5,4.2,1.4Z"/><path d="m192.1,30.4c.6-.1,1.1-.4,1.4-.9l2.1.7c-1.1,2.2-3.8,3-6,1.9-1.1-.6-1.9-1.6-2.2-2.8-.5-2.2.8-4.4,3-4.9,0,0,.2,0,.2,0,2.2-.5,4.3.9,4.8,3,0,0,0,.1,0,.2,0,.3.1.6.1,1l-5.5,1.2c.5.7,1.3,1,2.1.7Zm.8-3.1c-.4-.7-1.1-1.1-1.9-.9-.8.1-1.4.8-1.4,1.6l3.3-.7Z"/><path d="m209.7,29.4c-.4,2.2-2.4,3.6-4.6,3.3-.9-.2-1.7-.7-2.1-1.5l-.2.7-2.3-.5,2.4-10.8,2.3.5-.9,3.8c.7-.5,1.7-.7,2.5-.4,2.1.6,3.4,2.8,2.8,4.9h.1Zm-2.3-.5c.3-.9-.2-1.9-1.2-2.2,0,0-.2,0-.2,0-1-.3-2,.3-2.3,1.3,0,0,0,.1,0,.2-.3.9.2,1.9,1.2,2.2,0,0,.2,0,.2,0,1,.3,2-.3,2.3-1.3,0,0,0-.1,0-.2Z"/><path d="m220.4,30.9l-4.1,6.8-2-1.2.4-.6c-.9.3-1.8.1-2.5-.4-1.8-1.4-2.2-4-.8-5.8,1.2-1.6,3.3-2.1,5.1-1.3.8.4,1.3,1.1,1.5,2l.4-.6,2,1.2h0Zm-4.1,2.2c.6-.8.4-1.9-.4-2.5,0,0,0,0-.2,0-.9-.5-2-.2-2.6.6,0,0,0,0,0,0-.5.9-.2,2,.6,2.6.9.5,2,.2,2.6-.7h0Z"/><path d="m223.2,36.8l-2,2c-.5.5-.1.9.7,1.6l-1.5,1.5c-2.4-2-2.4-3.3-.8-4.9l2-2-.9-.9,1.6-1.6.9.9,1.1-1.1,2.2,1.2-1.6,1.5,1.1,1.2-1.6,1.6-1.1-1.2v.2Z"/><path d="m227.1,41.8l-2.3,1.6c-.6.4-.3.9.3,1.7l-1.8,1.2c-2-2.4-1.7-3.7.1-4.9l2.3-1.6-.7-1.1,1.9-1.3.7,1.1,1.3-.8,1.9,1.6-1.8,1.2.9,1.4-1.9,1.3-.9-1.4Z"/><path d="m226.9,49.9c.2.5.6,1,1.1,1.2l-.4,2.2c-1.3-.4-2.3-1.4-2.7-2.7-.9-2.6.2-4.8,2.4-5.6,2.1-.8,4.5.2,5.4,2.4,0,0,0,0,0,.1.8,2.1-.3,4.4-2.4,5.1,0,0-.1,0-.2,0-.3.1-.6.2-.9.2l-1.9-5.3c-.6.6-.8,1.5-.4,2.2h0Zm3.2.4c.7-.4.9-1.3.6-2-.2-.8-1-1.3-1.8-1.2l1.2,3.2Z"/><path d="m234.8,58.8l-2.7.3c0-1-.5-2.3-2-2.2l-3.6.4-.2-2.4,7.9-.8.2,2.4h-1.4c1,.4,1.7,1.3,1.8,2.4h0Z"/><path d="m233.7,68.9l-7.3-3.7c-2.4-1.2-3.2-2.7-2.8-4.9l2.2.3c-.1,1.1.1,1.7,1,2.1l7.9-2.1-.3,2.6-5,1.1,4.6,2.1-.3,2.5h0Z"/><circle class="cls-2" cx="198" cy="342.4" r="45"/><path class="cls-24" d="m218.2,348.4v-19c0-2.4-2-4.4-4.4-4.4h-33c-2.4,0-4.3,2-4.4,4.4v15.3c.1.9.2,1.7.3,2.6.3,2.5.8,5,1.5,7.4.4,1.4.9,2.8,1.5,4.2,0,.2,0,.4.3.4v-26.3c0-.5.1-.7.6-.7h33.2c.5,0,.6.1.6.6v36.9c0,.5-.1.6-.6.6h-26.6c.1.4.5.6.8.9,1.5,1.4,3.1,2.7,4.8,3.8.3.2.6.3.9.5-.3-1.6.4-2.5,2.1-2.5h3.2c1,0,1.9.7,1.9,1.7,0,0,0,0,0,0,0,1-.7,1.8-1.7,1.8,0,0-.1,0-.2,0h-2.8c.1.3.5.4.8.5,2.3,1,4.7,1.7,7.2,2,.5,0,1,0,1.5.2h8.1c2.5,0,4.5-2,4.5-4.5,0,0,0,0,0,0v-19.7c-.4-2.2-.4-4.6,0-6.8h-.1Zm-20.2-18.9h-5c-.7,0-1.1-.3-1.1-.9s.4-.9,1.1-.9h5.1c.7,0,1.1.3,1.1.9s-.4.9-1.1.9h-.1Zm3.4,0c-.9,0-1.3-.3-1.4-.9,0-.6.4-.9,1.3-.9h0c.9,0,1.3.3,1.3.9s-.4.9-1.4.9h.2Z"/><path class="cls-35" d="m176.3,344.6c.1.9.2,1.7.3,2.6.3,2.5.8,5,1.5,7.4.4,1.4.9,2.8,1.5,4.2,0,.2,0,.4.3.4v10.9c0,.3,0,.4.4.4h6.9c.2.4.4.7.8.9,1.5,1.4,3.1,2.7,4.8,3.8.3.2.6.3.9.5.3.4.6.8,1.1,1,.4.2.9,0,1.3.1.1.3.5.4.8.5,2.3,1,4.7,1.7,7.2,2,.5,0,1,0,1.5.2h-24.3c-2.5.2-4.7-1.7-4.9-4.2,0-.2,0-.5,0-.7v-29.9h-.1Z"/><path class="cls-16" d="m187.2,370.3h-.2c0-.2-.1-.4-.3-.5-.6-.6-1.1-1.3-1.7-1.9-1.8-2.3-3.4-4.8-4.6-7.5,0-.2-.2-.4-.4-.5v-27.1c0-.5.1-.7.6-.7h33.2c.5,0,.6.1.6.6v36.9c0,.5-.1.6-.6.6h-26.6Zm6.3-29.1h-2.2c-.4,0-.6.1-.6.6v18.9c0,.4,0,.5.5.5h11.7c.4,0,.5-.1.5-.5v-18.9c0-.5-.1-.6-.6-.6h-2.2v-3.2c0-.3,0-.5-.4-.5h-6.4c-.4,0-.4.1-.4.5v3.2h0Zm.9,25.5c0-.5-.4-.9-.9-.9s-.9.4-.9.9.4.9.9.9h0c.4,0,.8-.2.9-.7,0,0,0-.1,0-.2Zm2.7.9c.5,0,.9-.4.9-.9s-.4-.9-.9-.9-.9.4-.9.9h0c0,.4.2.8.7.9,0,0,.1,0,.2,0Zm3.7-1.8c-.5,0-.9.4-.9.9s.4.9.9.9.9-.4.9-.9h0c0-.4-.2-.8-.7-.9,0,0-.1,0-.2,0Z"/><path class="cls-20" d="m196.1,376.7c-.4,0-.9,0-1.3-.1-.5-.2-.8-.6-1.1-1-.3-1.6.4-2.5,2.1-2.5h3.2c1,0,1.9.7,1.9,1.7,0,0,0,0,0,0,0,1-.7,1.8-1.7,1.8,0,0-.1,0-.2,0h-2.9Z"/><path class="cls-20" d="m195.4,329.5h-2.5c-.7,0-1.1-.3-1.1-.9s.4-.9,1.1-.9h5.1c.7,0,1.1.3,1.1.9s-.4.9-1.1.9h-2.6Z"/><path class="cls-34" d="m201.3,329.5c-.9,0-1.3-.3-1.4-.9s.4-.9,1.3-.9h0c.9,0,1.3.3,1.3.9s-.4.9-1.4.9h.2Z"/><path class="cls-10" d="m180,359.9c.3,0,.3.3.4.5,1.3,2.7,2.8,5.2,4.6,7.5.5.7,1.1,1.3,1.7,1.9.1.2.3.3.3.5h-6.7c-.3,0-.4,0-.4-.4v-10.1h0Z"/><path class="cls-4" d="m200.9,341.3h2.2c.4,0,.6.1.6.6v18.9c0,.4,0,.5-.5.5h-11.7c-.4,0-.5-.1-.5-.5v-18.9c0-.5.1-.6.6-.6h9.3,0Zm-7.3,6.1c.2-.4.7-.7,1.2-.6h4.5c.5,0,1.1-.1,1.5.6v-2.9c0-.4-.1-.5-.5-.5h-6.3c-.4,0-.5.1-.5.5v2.9h.1,0Zm0,7.8v2.9c0,.3,0,.4.4.4h6.5c.3,0,.4,0,.4-.4v-3c-.2.4-.7.7-1.2.6h-4.8c-.5,0-1-.2-1.3-.6h0Zm7.2-7.2c-.2.4-.7.7-1.2.6h-4.6c-.5,0-1-.1-1.4-.5v2.9c.2-.4.7-.7,1.2-.6h4.6c.5,0,1,.1,1.4.5v-2.9Zm0,6.6v-3c-.3.6-.7.6-1.2.6h-4.5c-.5,0-1.1.1-1.5-.6v3c.2-.4.7-.7,1.2-.6h4.8c.5,0,.9,0,1.2.6Z"/><path class="cls-25" d="m200.9,341.3h-7.3v-3.2c0-.3,0-.5.4-.5h6.4c.4,0,.4.1.4.5v3.2h.1Z"/><path class="cls-24" d="m194.5,366.7c0,.5-.4.9-.9.9s-.9-.4-.9-.9.4-.9.9-.9h0c.4,0,.8.2.9.7,0,0,0,.1,0,.2Z"/><path class="cls-24" d="m197.2,367.6c-.5,0-.9-.4-.9-.9s.4-.9.9-.9.9.4.9.9h0c0,.4-.2.8-.7.9,0,0-.1,0-.2,0Z"/><path class="cls-24" d="m200.9,365.8c.5,0,.9.4.9.9s-.4.9-.9.9-.9-.4-.9-.9h0c0-.4.2-.8.7-.9,0,0,.1,0,.2,0Z"/><path class="cls-25" d="m193.6,347.3v-2.9c0-.4.1-.5.5-.5h6.3c.4,0,.5.1.5.5v2.9c-.4-.8-1-.6-1.5-.6h-4.5c-.5,0-.9,0-1.2.6h-.1Z"/><path class="cls-25" d="m193.6,355.2c.3.6.8.6,1.3.6h4.8c.5,0,.9,0,1.2-.6v3c0,.3-.1.4-.4.4h-6.5c-.2,0-.4-.1-.4-.3,0,0,0,0,0,0v-3Z"/><path class="cls-25" d="m200.8,347.9v2.9c-.4-.5-.8-.5-1.4-.5h-4.6c-.5,0-.9,0-1.2.6v-2.9c.4.5.8.5,1.4.5h4.6c.5,0,.9,0,1.2-.6Z"/><path class="cls-25" d="m200.8,354.5c-.3-.4-.7-.6-1.2-.6h-4.8c-.5,0-.9,0-1.2.6v-3c.4.7,1,.6,1.5.6h4.5c.5,0,.9,0,1.2-.6v3Z"/><path d="m161.2,332.2l-.6,2.6,8,1.7-.5,2.3-8-1.7-.6,2.6-2.3-.5,1.6-7.6,2.3.5h.1Z"/><path d="m165.3,324.6l6.8,3.2-1,2-.6-.3c.3.8.3,1.7-.1,2.4-1.2,1.9-3.7,2.4-5.5,1.2-1.5-1-2.2-2.8-1.7-4.5.3-.8,1-1.4,1.8-1.6l-.6-.3,1-2h0Zm2.4,3.6c-.9-.4-1.9,0-2.3.9-.4.9,0,1.9.9,2.3.9.4,1.9,0,2.3-.9.4-.9,0-1.9-.8-2.4,0,0,0,0,0,0Z"/><path d="m175.2,318.5c1.6,1.3,1.9,3.6.6,5.3,0,0,0,0,0,0-.5.7-1.3,1.1-2.2,1.1l.5.5-1.5,1.7-7.9-6.9,1.5-1.7,2.8,2.4c0-.8.2-1.7.8-2.3,1.3-1.5,3.6-1.6,5.1-.2,0,0,.1.1.2.2h0Zm-1.5,1.7c-.8-.7-1.9-.6-2.6.1-.6.7-.6,1.7,0,2.4,0,0,0,0,.1.1.8.7,1.9.6,2.6-.1.6-.6.7-1.6,0-2.3,0,0-.2-.2-.3-.2Z"/><path d="m172.2,311.9l1.8-1.4,6.6,8.7-1.8,1.4-6.6-8.7Z"/><path d="m184.1,315.2c.5-.2.8-.6,1-1.1h2.1c-.2,1.3-1,2.4-2.2,3-1.9,1.1-4.3.4-5.4-1.4,0,0,0-.2-.1-.3-1-1.9-.3-4.2,1.5-5.2,0,0,.2,0,.3-.1,1.8-1,4.1-.2,5.1,1.6,0,0,0,.2.1.3,0,.3.2.5.3.8l-4.8,2.4c.6.6,1.3.5,2.1.1h0Zm0-3.1c-.5-.6-1.3-.8-2-.4-.7.3-1.1,1.1-.9,1.8l2.9-1.4Z"/><path d="m190.1,309.3l.6,2.6c.2.6.7.5,1.7.3l.5,2c-2.8,1-3.8.4-4.3-1.7l-.6-2.6-1.2.3-.5-2.1,1.2-.3-.3-1.4,2-1.2.5,2,1.5-.4.5,2.1-1.5.4h0Z"/><path d="m205.6,310.7c-.1,2.1-1.9,3.7-4,3.6,0,0,0,0,0,0-.8,0-1.6-.4-2.1-1.1v.7l-2.3-.2,1.1-10.4,2.2.2-.4,3.7c.6-.6,1.5-.8,2.3-.7,2,.3,3.4,2.1,3.1,4.1,0,0,0,.1,0,.2h0Zm-2.2-.2c.1-1-.5-1.8-1.5-2,0,0,0,0-.1,0-1-.1-1.9.6-2,1.6,0,0,0,0,0,0-.1,1,.6,1.9,1.6,2s1.9-.6,2-1.6Z"/><path d="m215.7,310.5l-2.8,7-2.1-.8.3-.7c-.8.4-1.6.4-2.4,0-1.9-1.2-2.5-3.6-1.3-5.5.9-1.5,2.6-2.2,4.3-1.8.8.3,1.4.9,1.7,1.7l.3-.7,2.1.8h-.1Zm-3.5,2.6c.4-.9,0-1.9-.9-2.3,0,0,0,0-.1,0-.8-.4-1.8,0-2.2.8,0,0,0,.1,0,.2-.4.9,0,1.9.9,2.3,0,0,0,0,.1,0,.8.4,1.8,0,2.2-.8,0,0,0-.1,0-.2h0Z"/><path d="m219.2,315.4l-1.5,2.2c-.4.5,0,.9.9,1.4l-1.2,1.7c-2.6-1.4-2.8-2.7-1.6-4.4l1.5-2.2-1-.7,1.2-1.8,1,.7.8-1.2,2.2.7-1.2,1.7,1.3.9-1.2,1.8-1.3-.9h.1Z"/><path d="m223.6,319.3l-1.9,1.9c-.5.5-.1.9.6,1.5l-1.4,1.5c-2.3-1.9-2.3-3.1-.8-4.6l1.9-1.9-.9-.8,1.5-1.5.9.8,1-1,2.1,1.1-1.5,1.5,1.1,1.1-1.5,1.5-1.1-1.1Z"/><path d="m225,326.8c.3.5.8.8,1.3.9v2.1c-1.3,0-2.4-.8-3-1.9-1.3-1.8-.9-4.2.9-5.5,1.8-1.3,4.2-.9,5.5.9,1.3,1.8.9,4.2-.9,5.5,0,0-.1,0-.2.1-.2.2-.5.3-.8.4l-2.9-4.4c-.4.6-.4,1.5.1,2.1v-.2Zm3-.3c.5-.5.6-1.4.1-2-.4-.7-1.2-1-1.9-.7l1.8,2.7Z"/><path d="m234.4,333l-2.4.9c-.1-1-1-1.7-2-1.6-.1,0-.3,0-.4,0l-3.2,1.2-.8-2.1,7-2.7.8,2.1-1.2.5c1,0,1.9.7,2.2,1.6Z"/><path d="m236,342.2l-7.6-1.4c-2.5-.5-3.6-1.6-3.8-3.7l2.1-.3c0,.8.7,1.6,1.5,1.7l6.6-4,.4,2.4-4.3,2.3,4.8.7.4,2.4h0Z"/><circle class="cls-2" cx="341.9" cy="201.4" r="45"/><path class="cls-11" d="m356.5,189.1c3.8-.3,7.5,3.6,7.4,7.4-.1,3.8,0,7.8,0,11.7v21.1c0,.8-.2,1.7-.7,2.3h-10.8c-.9,0-1.9,0-2.8-.2-6.4-.9-12.3-3.9-16.8-8.5h18c2.8,0,2.9-.1,2.9-2.9v-2.9h4.6c.6.1,1.1-.3,1.2-.8,0-.1,0-.3,0-.5v-6.7c0-.6-.2-.8-.8-.8h-5.1v-4.2c.1-.8-.4-1.6-1.2-1.7-.2,0-.3,0-.5,0h-22.3c-2.1,0-2.4.3-2.4,2.3v10.5l-.2-.2c-1.8-3.9-2.7-8.1-2.7-12.4v-12.6c.8-.8,1.9-.7,3-.7h29.2v-.2Z"/><path class="cls-12" d="m332.7,222.9c2.4,2.7,5.4,4.8,8.8,6.2,2.5,1.2,5.2,1.9,8,2.3.9.1,1.9.2,2.8.2h10.8c-.8,2.3-2.7,3.5-4.9,4.2-.5.2-1.1.3-1.7.2h-29.3c-4,0-7.3-3.3-7.3-7.3,0,0,0,0,0-.1v-29.1c-.1-1.5,0-3,.2-4.5.6-2.3,1.8-4.2,4.2-5v12.6c0,4.3.9,8.5,2.7,12.4l.2.2v6c-.1.8.4,1.6,1.2,1.7.2,0,.3,0,.5,0h3.8Z"/><path class="cls-33" d="m330.2,202.4h17.6c-1,2.4-2,4.7-3,7.1-1.4,3.4-2.9,6.8-4.3,10.2l-.3.4c-.7-.3-1.4-.3-2.1-.2-4.1.2-7.6-3-7.8-7.1,0-.2,0-.5,0-.7v-9.8h0Z"/><path class="cls-19" d="m340.4,219.7c1.4-3.4,2.9-6.8,4.3-10.2,1-2.4,2-4.7,3-7.1h4.2c1.2,0,1.7.5,1.7,1.7v15.9h-12.2c-.3,0-.7.1-1-.2h0Z"/><path class="cls-27" d="m330.2,202.4v9.8c-.2,4.1,3,7.6,7.1,7.8.2,0,.5,0,.7,0,.7,0,1.5-.2,2.1.2-.3.9-.7,1.8-1,2.7h-10.1c-.8.1-1.6-.4-1.7-1.2,0-.2,0-.3,0-.5v-16.5c0-2,.3-2.4,2.4-2.3h.5Z"/><path class="cls-40" d="m339.1,222.8c.3-.9.7-1.8,1-2.7.1-.1.2-.3.3-.4.3.3.7.2,1,.2h12.2c0,2.8,0,2.9-2.9,2.9h-11.6Z"/><path class="cls-19" d="m355.1,208.2h3.6c.6,0,.8.2.8.8v6.5c-2.3.1-4.3-1.7-4.4-4,0-.2,0-.3,0-.5,0-.9,0-1.9,0-2.8Z"/><path class="cls-40" d="m355.1,208.2v2.8c-.2,2.3,1.6,4.3,3.9,4.5.2,0,.3,0,.5,0v.2c0,.9-.4,1.3-1.2,1.3h-4.6v-8.8h1.4Z"/><path d="m301.4,199.3l.7-2.4,7.6.3-6.5-4,.5-1.9h7.6l-6.6-3.7.7-2.4,9.3,5.6-.7,2.6h-6.4l5.5,3.3-.7,2.6h-11Z"/><path d="m314.1,178.3l6.1,4.4-1.3,1.8-.6-.4c.2.8,0,1.7-.6,2.4-1.3,1.6-3.6,1.9-5.3.6,0,0,0,0,0,0-1.7-1.1-2.3-3.4-1.2-5.1,0,0,0,0,0,0,.5-.7,1.2-1.2,2-1.3l-.6-.4,1.3-1.8h.1Zm1.7,4c-.7-.6-1.7-.6-2.3.1,0,0-.2.2-.2.3-.6.7-.5,1.7.2,2.3,0,0,.2.1.3.2.7.6,1.7.6,2.3-.1,0,0,.2-.2.2-.3.6-.7.5-1.7-.2-2.3,0,0-.2-.1-.3-.2Z"/><path d="m319.7,176.1l1.8,2c.4.5.9.2,1.6-.5l1.3,1.5c-2,2.2-3.2,2.1-4.6.5l-1.8-2-.9.8-1.4-1.6.9-.8-.9-1.1,1.2-2,1.4,1.6,1.2-1,1.4,1.6-1.2,1Z"/><path d="m322.6,175.6c-1-2-.3-4.4,1.7-5.4,1.2-.6,2.6-.6,3.7,0l-1.1,2c-.5-.3-1.2-.3-1.7,0-.8.5-1.1,1.6-.6,2.4.4.8,1.5,1.1,2.3.7h0c.6-.3.9-.9.8-1.5h2.3c0,1.4-.8,2.7-2,3.4-1.8,1.1-4.2.5-5.4-1.3,0,0,0,0,0,0v-.2Z"/><path d="m336.9,168.8l1.2,4.4-2.2.6-1.1-4.1c0-.7-.7-1.1-1.3-1.1,0,0-.2,0-.3,0-.8.2-1.2.8-.9,1.9l1.1,3.9-2.2.6-2.8-10.1,2.2-.6,1,3.6c.4-.7,1-1.3,1.8-1.5,1.5-.4,3,.4,3.4,1.9,0,.1,0,.2,0,.3h0Z"/><path d="m350.9,170c-.2,2.1-1.9,3.6-4,3.5-.9,0-1.6-.5-2.1-1.2v.7l-2.3-.3,1.2-10.4,2.2.3-.4,3.7c.6-.6,1.5-.8,2.3-.7,2,.3,3.4,2.1,3.1,4.1,0,0,0,.1,0,.2h0Zm-2.2-.3c.2-.9-.4-1.8-1.4-2,0,0-.2,0-.2,0-.9-.1-1.8.5-2,1.5,0,0,0,0,0,.1-.2.9.4,1.8,1.4,2,0,0,.2,0,.2,0,.9.1,1.8-.5,2-1.5,0,0,0,0,0-.1Z"/><path d="m361,170.1l-2.9,6.9-2.1-.9.3-.6c-.8.4-1.6.4-2.4,0-1.8-.9-2.6-3.1-1.8-5,.7-1.9,2.8-2.9,4.7-2.2,0,0,0,0,0,0,.8.3,1.4.9,1.7,1.7l.3-.6,2.1.9v-.2Zm-3.5,2.6c.4-.9,0-2-.9-2.4,0,0,0,0,0,0-.9-.4-2,0-2.4,1,0,0,0,0,0,0-.4.9,0,2,.9,2.4,0,0,0,0,0,0,.9.4,2,0,2.4-1,0,0,0,0,0,0Z"/><path d="m364.4,175l-1.6,2.1c-.4.5,0,.9.9,1.4l-1.2,1.6c-2.5-1.5-2.7-2.7-1.5-4.4l1.6-2.1-1-.7,1.3-1.7,1,.7.8-1.1,2.2.8-1.2,1.7,1.2.9-1.3,1.7-1.2-.9Z"/><path d="m368.7,179l-1.9,1.9c-.5.5-.1.9.6,1.6l-1.5,1.4c-2.3-1.9-2.2-3.1-.7-4.6l1.9-1.9-.8-.9,1.5-1.5.8.9,1-1,2.1,1.1-1.5,1.5,1.1,1.1-1.5,1.5-1.1-1.1Z"/><path d="m370,186.5c.3.5.8.8,1.3.9v2.1c-1.3,0-2.4-.8-3-1.9-1.3-1.7-1-4,.7-5.3.1,0,.3-.2.4-.3,1.8-1.2,4.2-.7,5.4,1.1,0,0,0,.1.1.2,1.1,1.7.7,4-1.1,5.2,0,0-.2.1-.2.1-.2.2-.5.3-.8.4l-2.8-4.5c-.5.6-.5,1.5,0,2.1h0Zm3-.3c.5-.5.6-1.4.2-2-.4-.7-1.2-1-1.9-.7l1.7,2.7Z"/><path d="m379.3,192.9l-2.4.9c-.1-1-1-1.7-2-1.6-.1,0-.3,0-.4,0l-3.2,1.2-.8-2.1,7.1-2.6.8,2.1-1.3.5c1,0,1.9.7,2.2,1.6h0Z"/><path d="m380.7,202.2l-7.6-1.5c-2.5-.5-3.6-1.7-3.8-3.8l2.1-.3c0,.9.6,1.6,1.5,1.7l6.7-3.9.3,2.5-4.3,2.3,4.7.8.3,2.4v-.2Z"/></svg>