<?xml version="1.0" encoding="UTF-8"?><svg id="Layer_1" xmlns="http://www.w3.org/2000/svg" viewBox="0 0 400 400"><defs><style>.cls-1{fill:#009245;}.cls-2{fill:#fe6d3a;}.cls-3{stroke:#a5262d;}.cls-3,.cls-4{stroke-width:4px;}.cls-3,.cls-4,.cls-5{fill:none;stroke-miterlimit:10;}.cls-6{fill:#1f444f;}.cls-7{fill:#fafdfc;}.cls-8{fill:#fff;}.cls-9{fill:#57575e;}.cls-10{fill:#a7b4b9;}.cls-11{fill:#fcfdfd;}.cls-12{fill:#72b3e2;}.cls-4{stroke:#0018c6;}.cls-13{fill:#d9d9ea;}.cls-14{fill:#fbe501;}.cls-15{fill:#2d5a5d;}.cls-16{fill:#48459c;}.cls-17{fill:#f9f3b1;}.cls-18{fill:#fe901f;}.cls-19{fill:#dda927;}.cls-20{fill:#f9fdfc;}.cls-21{fill:#434348;}.cls-22{fill:#bbc3c6;}.cls-23{fill:#f15a24;}.cls-24{fill:#3392f5;}.cls-25{fill:#1e4b4c;}.cls-26{fill:#fedd46;}.cls-27{fill:#386079;}.cls-28{fill:#444b66;}.cls-29{fill:#efc319;}.cls-30{fill:#06687f;}.cls-31{fill:#f8d77c;}.cls-32{fill:#feb024;}.cls-5{stroke:#231f20;stroke-width:2px;}.cls-33{fill:gray;}.cls-34{fill:#c6ecf9;}.cls-35{fill:#424248;}.cls-36{fill:#fbbd41;}.cls-37{fill:#3d435c;}.cls-38{fill:#01b6a0;}.cls-39{fill:#72b2e2;}.cls-40{fill:#26b899;}.cls-41{fill:#faf8fa;}.cls-42{fill:#fe6e3c;}.cls-43{fill:#2e5872;}.cls-44{fill:#efc31a;}.cls-45{fill:#b09146;}.cls-46{fill:#484645;}.cls-47{fill:#3392f6;}.cls-48{fill:#7dcbe5;}.cls-49{fill:#204958;}.cls-50{fill:#eecf15;}.cls-51{fill:#c6ecfa;}.cls-52{fill:#2e5a5d;}.cls-53{fill:#94a4a4;}.cls-54{fill:#3e657d;}.cls-55{fill:#454c67;}.cls-56{fill:#e5eff1;}.cls-57{fill:#c6d8de;}.cls-58{fill:#c4d8dd;}.cls-59{fill:#29abe2;}.cls-60{fill:#60acfd;}.cls-61{fill:#cad9df;}.cls-62{fill:#231f20;}.cls-63{fill:#c7d9de;}.cls-64{fill:#c5d8de;}.cls-65{fill:#f0c343;}.cls-66{fill:#1a846e;}.cls-67{fill:#dca826;}.cls-68{fill:#9fddea;}.cls-69{fill:#fbf9fa;}.cls-70{fill:#249582;}.cls-71{fill:#28b99a;}.cls-72{fill:#fe901e;}.cls-73{fill:#6e6b87;}</style></defs><circle class="cls-3" cx="205.3" cy="200.8" r="45"/><path d="m176,185.6c-2.9-2.7-3.1-6.8-.3-9.8,1.6-1.8,4-2.5,6.1-2.1l-.7,3c-1.2-.3-2.4.2-3.3,1.1-1.6,1.7-1.5,3.9.2,5.5,1.7,1.6,3.9,1.6,5.5,0,.9-1,1.3-2.2.9-3.4l2.9-.9c.6,2.1,0,4.5-1.6,6.3-2.7,2.9-6.9,3-9.8.3h0Z"/><path d="m187.5,176.9c-1.2-2.5-.2-5.5,2.3-6.7,2.5-1.2,5.5-.2,6.7,2.3s.2,5.5-2.3,6.7-5.5.2-6.7-2.3Zm6.5-3.1c-.6-1.2-1.8-1.6-2.9-1.1-1.1.5-1.6,1.8-1,3s1.8,1.6,2.9,1.1c1.1-.5,1.6-1.8,1-3Z"/><path d="m208.8,170.8c.3,2.8-1.5,5.2-4,5.5-1.3.1-2.2-.2-2.9-.8l.5,4.7-2.8.3-1.5-13.2,2.8-.3v.9c.6-.8,1.5-1.3,2.8-1.5,2.5-.3,4.8,1.7,5.1,4.5h0Zm-2.8.3c-.2-1.4-1.2-2.2-2.5-2.1s-2.1,1.1-2,2.6c.2,1.4,1.2,2.2,2.5,2.1s2.1-1.1,2-2.6Z"/><path d="m221,173.5c-.7,2.7-3.2,4.4-5.6,3.8-1.2-.3-2-1-2.5-1.8l-1.1,4.6-2.8-.7,3.2-12.9,2.8.7-.2.9c.8-.5,1.8-.7,3-.4,2.4.6,3.9,3.2,3.2,6v-.2Zm-2.8-.7c.3-1.4-.4-2.5-1.6-2.8-1.3-.3-2.4.3-2.8,1.7-.3,1.4.4,2.5,1.6,2.8,1.3.3,2.4-.3,2.8-1.7Z"/><path d="m225.6,179.2c.7.4,1.4.5,1.9.4l1.2,2.4c-1.5.6-3,.3-4.5-.7-2.7-1.8-3.2-4.7-1.6-7.1,1.6-2.4,4.5-3.1,7-1.4,2.3,1.5,2.8,4.5,1.3,6.8-.2.3-.5.6-.7.9l-5.6-3.7c-.2,1,.3,1.8,1.2,2.4h-.2Zm3.4-1.9c.4-1.1,0-1.9-.9-2.4-.9-.6-1.8-.6-2.6.1l3.4,2.3h0Z"/><path d="m239.6,182.4l-2.4,2.1c-.6-1-2.1-2-3.5-.7l-3.2,2.8-1.9-2.1,7.2-6.2,1.9,2.1-1.3,1.1c1.2-.5,2.5,0,3.3.9h0Z"/><rect class="cls-23" x="179.4" y="194.5" width="52" height="37" rx="2.9" ry="2.9"/><path class="cls-46" d="m196.6,223.6c-3.6,0-6.5-1.2-8.8-3.5-2.3-2.4-3.5-5.3-3.5-8.8s1.2-6.4,3.5-8.8c2.3-2.4,5.3-3.5,8.8-3.5s4.1.5,5.9,1.5c1.8,1,3.3,2.4,4.3,4.1l-5.2,3c-.5-.8-1.1-1.5-2-2s-1.9-.7-3-.7c-1.9,0-3.4.6-4.6,1.8-1.2,1.2-1.7,2.7-1.7,4.6s.6,3.5,1.7,4.6c1.1,1.1,2.7,1.8,4.6,1.8s2.1-.2,3-.7,1.6-1.2,2-2l5.2,3c-1,1.7-2.5,3.1-4.3,4.1s-3.8,1.5-6,1.5h0Z"/><path class="cls-46" d="m219.9,206.2h5.6v16.9h-5.6v-1.7c-1,1.4-2.6,2.2-4.7,2.2s-3.3-.6-4.5-1.9c-1.2-1.2-1.7-3-1.7-5.4v-10.1h5.6v9.4c0,.9.2,1.5.7,2s1.1.7,1.8.7,1.6-.3,2-.8c.5-.5.7-1.3.7-2.3v-9h.1Z"/><circle class="cls-4" cx="100.4" cy="73.6" r="36"/><path class="cls-40" d="m127.2,65.8v25c-.3.7-1,1.3-1.8,1.4h-3.7c-.6,0-1.2,0-1.8,0h-2.8c-.5,0-1,0-1.5,0h-7.5c-.6,0-1.2,0-1.8,0h-11c-.6,0-1.2,0-1.8,0h-2.8c-.5,0-1,0-1.5,0h-7.6v-27.8h43.7c1-.1,2,.5,2.4,1.4h-.2Zm-36,12.5h0v2.8c0,2,1.7,3.7,3.7,3.7,2,0,3.7-1.6,3.7-3.7v-1.8c0-.7-.3-1-1-1h-1.5c-.6,0-1.1.3-1.1.9,0,0,0,0,0,0,0,.6.4.9,1.1.9s.7,0,.7.7c0,1-.7,1.9-1.7,1.9-1,0-1.8-.7-1.9-1.6v-5.5c0-.4,0-.7.2-1,.5-.9,1.6-1.2,2.5-.7.6.3.9.9,1,1.6,0,.6.5,1,1,1,.5,0,.9-.6.8-1.1,0,0,0,0,0,0-.1-2-1.8-3.6-3.8-3.5-1.9.1-3.4,1.6-3.5,3.4v3h0Zm18.5-1.3v4c0,1.3.6,2.5,1.7,3.1,1.7,1.1,4,.7,5.1-1,.4-.6.6-1.3.6-2v-8.6c0-.4-.5-.7-.9-.6-.4,0-.8.2-.9.6v8.4c0,1-.7,1.9-1.8,1.9-1,0-1.9-.7-1.9-1.8v-8.4c0-.4-.3-.8-.6-1-.4-.1-.8,0-1,.3-.2.2-.2.5-.2.8v4.2Zm-9.2,1.3v5.5c0,.4.3.8.7,1,.4,0,.8-.1,1-.5.1-.2.1-.4,0-.6v-3.8c0-.4,0-.5.5-.5h1.5c2,0,3.6-1.6,3.6-3.6,0-1.9-1.4-3.5-3.3-3.8-1,0-1.9,0-2.9,0s-1.2.3-1.2,1.2v5.2h0Zm-16.6-8.8v1.3c0,.5.4,1,.9,1,.5,0,1-.3,1-.8,0,0,0,0,0,0v-1.5c0-.3,0-.4.4-.4h1.4c.5,0,.9-.3,1-.8,0-.5-.3-1-.8-1h-2.8c-.5,0-1,.4-1,.9v1.4h0Z"/><path class="cls-22" d="m81,92.1v2.7c0,.8-.4,1.4-1.1,1.8-.6.3-1.4.2-1.9-.2-.5-.4-.8-1-.7-1.7v-32.8c0-1.3.2-1.2-1.2-1.2s-2.1-.3-2.5-1.4v-.8c.3-1,1.4-1.6,2.4-1.4h2.8c1-.1,2,.6,2.2,1.6,0,.2,0,.4,0,.5v33h0Z"/><path class="cls-53" d="m77.3,77.3v12h-2.4c-.5,0-1-.2-1.3-.6v-10.8c.3-.4.8-.6,1.4-.6h2.3Z"/><path class="cls-53" d="m77.3,66.3v7.4h-2.4c-.5,0-1-.2-1.3-.6v-6.2c.3-.4.8-.6,1.4-.6h2.3Z"/><path class="cls-11" d="m91.2,78.3v-3c.2-2,1.9-3.6,4-3.4,1.8.1,3.3,1.6,3.4,3.5,0,.6-.2,1-.8,1.1s-.9-.3-1-1c0-1-.8-1.8-1.8-1.8,0,0-.1,0-.2,0-.6,0-1.2.4-1.5,1-.2.3-.2.7-.2,1v5.2c-.1,1,.6,1.9,1.6,2.1s1.9-.6,2.1-1.6c0,0,0,0,0-.1v-.3c0-.4-.2-.7-.5-.7,0,0-.1,0-.2,0-.7,0-1.1-.4-1.1-.9s.4-1,1.1-1h1.5c.7,0,1,.3,1,1v1.8c0,2-1.7,3.7-3.7,3.7-2,0-3.7-1.6-3.7-3.7v-2.8h0v-.2Z"/><path class="cls-7" d="m109.6,77v-4c0-.3,0-.6.2-.8.2-.3.7-.5,1-.3.4.1.7.5.6,1v8.1c0,1,.7,1.9,1.8,1.9,1,0,1.9-.7,1.9-1.8v-8.6c0-.4.5-.7.9-.6.4,0,.8.2.9.6v8.6c0,2-1.7,3.6-3.8,3.6-.7,0-1.4-.2-2-.6-1-.7-1.7-1.9-1.7-3.1v-4h.2Z"/><path class="cls-7" d="m100.4,78.2v-5.2c0-.9.3-1.2,1.2-1.2h2.9c1.9.2,3.4,1.8,3.3,3.8,0,2-1.6,3.6-3.6,3.6h-1.4c-.4,0-.5,0-.5.5v3.8c0,.2,0,.4,0,.6-.1.4-.6.6-1,.5-.4,0-.8-.4-.7-.9,0,0,0,0,0,0v-5.4h0Zm1.9-2.8v1.4c0,.3,0,.5.4.5h1.5c1,0,1.8-.8,1.8-1.8,0,0,0,0,0,0h0c0-1-.8-1.8-1.8-1.8,0,0,0,0,0,0h-1.4c-.3,0-.4.2-.4.4v1.4Z"/><path class="cls-44" d="m98.6,92.1v2.5c0,.6-.3,1.1-.9,1.2h-2.7v-3.7h3.6Z"/><path class="cls-44" d="m105.9,95.8h-2.6c-.5,0-1-.4-1-.9,0,0,0,0,0,0v-2.6h3.7v3.6Z"/><path class="cls-44" d="m125.3,92.1v2.5c0,.6-.3,1.1-.9,1.2h-2.7v-3.7h3.6,0Z"/><path class="cls-44" d="m88.4,95.8h-2.6c-.5,0-1-.4-1-.9,0,0,0,0,0,0v-2.7h3.7v3.7Z"/><path class="cls-20" d="m83.7,69.5v-1.3c0-.5.4-1,.9-1h2.8c.5,0,.9.3,1,.8,0,.5-.3,1-.8,1h-1.6c-.3,0-.4,0-.4.4v1.4c0,.5-.4,1-.9,1-.5,0-1-.3-1-.8,0,0,0,0,0,0v-1.4h0Z"/><path class="cls-29" d="m93,95.8h-2.7v-3.6h0c0,0,2.7,0,2.7,0v3.7Z"/><path class="cls-29" d="m110.6,95.8h-2.7v-3.7h2.7v3.6h0Z"/><path class="cls-29" d="m115.2,95.8h-2.7v-3.7h2.7v3.7Z"/><path class="cls-29" d="m119.7,95.8h-2.7v-3.6h0c0,0,2.7,0,2.7,0v3.7Z"/><path class="cls-45" d="m107.8,92.1v3.7h-1.8v-3.7c.6,0,1.2,0,1.8,0Z"/><path class="cls-45" d="m93,95.8v-3.7c.6,0,1.2,0,1.8,0v3.7h-1.8Z"/><path class="cls-45" d="m119.7,95.8v-3.7c.6,0,1.2,0,1.8,0v3.7h-1.8Z"/><path class="cls-45" d="m90.2,92.2v3.5h0c-.6,0-1.2,0-1.8,0v-3.7h1.8Z"/><path class="cls-45" d="m112.4,92.1v3.7h-1.8v-3.7h1.8,0Z"/><path class="cls-45" d="m117,92.2v3.5h0c-.6,0-1.2,0-1.8,0v-3.7h1.8Z"/><path class="cls-45" d="m112.2,92.1h-1.5c.5,0,1,0,1.5,0Z"/><path class="cls-45" d="m110.6,95.7h0c0,0,0,0,0,0Z"/><path class="cls-71" d="m102.2,75.5v-1.4c0-.3,0-.5.4-.4h1.4c1,0,1.8.8,1.8,1.8s-.8,1.8-1.8,1.8h-1.4c-.4,0-.4-.2-.4-.5v-1.4Z"/><path d="m95.1,49.8c1.3,2.8,0,6.1-2.8,7.3-.2,0-.3.1-.5.2-3.1,1.3-6.7,0-8.1-3.2,0,0,0,0,0-.1-1.2-3.2.4-6.8,3.6-8,1.9-.7,4-.5,5.7.7l-1.7,2.1c-1.7-1-3.8-.5-4.9,1.2-.6.9-.7,2.1-.3,3.1.7,1.8,2.6,2.7,4.7,1.8,1.3-.4,2.1-1.5,2.2-2.8l-3,1.1-.9-2.2,5.5-2.2.4,1Z"/><path d="m106.6,48.1c-.1,2.2-2,4-4.3,3.8,0,0,0,0,0,0h-1.8c0,0-.2,3.6-.2,3.6l-2.7-.2.6-11.8,4.5.2c2.2,0,4,1.9,3.9,4.2,0,0,0,0,0,0Zm-2.7-.2c0-.8-.5-1.5-1.4-1.6h-1.8c0,0-.2,3-.2,3h1.8c.7.1,1.4-.4,1.5-1.1,0,0,0-.1,0-.2h0Z"/><path d="m108.1,52.4l3.4-7.2,2.4,1.1-3.3,7c-.4.8-.3,1.7,1,2.2s2,0,2.4-.7l3.3-7,2.4,1.1-3.4,7.2c-1,2.3-3.4,2.9-5.8,1.8-2.4-1.1-3.5-3.3-2.4-5.6h0Z"/><path class="cls-39" d="m349.2,222c2.6-.1,5.1.8,7,2.6.5.3.6,1,.2,1.4-.3.4-.9.4-1.4,0-1.4-1.4-3.4-2.2-5.4-2.1-1.7,0-3.3.7-4.6,1.8-.1.2-.3.3-.5.4-.4.3-1,.2-1.3-.1,0,0,0,0,0,0-.3-.4-.3-.8,0-1.2.5-.5,1.1-.9,1.7-1.3,1.3-.9,2.8-1.4,4.4-1.4h0Z"/><path class="cls-12" d="m349.6,225.4c1.8,0,3.4.6,4.7,1.8.6.5.6,1,.2,1.4-.4.4-1,.4-1.4,0,0,0,0,0,0,0-1.9-1.8-4.8-1.8-6.7,0-.6.5-1,.5-1.4,0s-.3-1,.2-1.4c1.2-1.1,2.8-1.8,4.5-1.8h0Z"/><path class="cls-12" d="m349.7,228.7c1.1,0,2.1.4,2.9,1.1.4.3.5.9.2,1.3h0c-.3.4-.9.5-1.3.2,0,0,0,0,0,0h0c-.9-.9-2.4-.9-3.3,0-.3.4-.8.4-1.1.2,0,0-.1,0-.2-.2h0c-.3-.5-.2-1.1.2-1.4,0,0,0,0,0,0h0c.8-.7,1.8-1.1,2.8-1.1h-.2Z"/><path class="cls-1" d="m366.2,248.7c-1.2-4.2,2.6-13.2-3.9-13.8h-24.8c-7,.2-3.1,9.4-4.3,13.8v5.4c1.2,4.2-2.6,12.9,3.7,13.8h25.6c6.3-.8,2.6-9.6,3.8-13.8v-5.4Z"/><circle class="cls-4" cx="349.7" cy="238.8" r="36"/><path d="m330.7,224.7l-1,1.8-4.6-2.6,2.2,3.8v.2l-4.6.2,4.6,2.6-1,1.8-7.8-4.4,1-1.8,4.6-.2-2.3-4.1,1-1.8,7.8,4.4h0Z"/><path d="m329,222.2c-1.2-1.4-1.1-3.5.2-4.7,0,0,0,0,0,0,1.4-1.2,3.6-1.1,4.8.3,1.2,1.4,1.1,3.5-.2,4.7,0,0,0,0,0,0-1.4,1.2-3.6,1.1-4.8-.3Zm3.7-3.2c-.6-.6-1.5-.6-2,0-.6.6-.6,1.5,0,2,.5.6,1.4.6,2,0,.6-.5.7-1.3.2-1.9,0,0,0-.1-.1-.2Z"/><path d="m338.9,209l3.7,8.2-1.8.8-.2-.6c-.2.7-.8,1.3-1.4,1.5-1.6.7-3.4,0-4.1-1.6,0,0,0-.1,0-.2-.8-1.5-.3-3.4,1.3-4.3,0,0,0,0,0,0,.7-.3,1.4-.3,2.1,0l-1.3-2.9,1.8-.8Zm.6,6c-.4-.7-1.3-1-2-.6-.7.4-1,1.3-.6,2,.4.7,1.2,1,1.9.7.8-.3,1.1-1.2.8-2,0,0,0,0,0-.1Z"/><path d="m346.4,215c.5,0,.9-.2,1.1-.6l1.7.6c-.5,1-1.5,1.6-2.6,1.7-1.8.4-3.6-.8-4-2.6,0,0,0-.2,0-.3-.3-1.8.9-3.5,2.7-3.8,0,0,.1,0,.2,0,1.7-.3,3.4.9,3.7,2.7,0,0,0,.1,0,.2v.8l-4.5.6c.3.6,1,.9,1.7.6h0Zm.9-2.5c-.2-.6-.9-1-1.5-.8-.6,0-1.2.6-1.3,1.2l2.7-.4h0Z"/><path d="m360.2,213.9l-.8,3.8-1.8-.4.8-3.7c.2-.6,0-1.1-.7-1.2s-1,.2-1.2,1l-.7,3.5-1.8-.4.8-3.7c.2-.6,0-1.1-.7-1.2s-1,.2-1.2,1l-.7,3.5-1.8-.4,1.4-6.2,1.8.4-.2.6c.5-.4,1.2-.6,1.8-.4.7.1,1.2.6,1.4,1.2.6-.5,1.3-.6,2-.5,1.4.3,2.2,1.5,1.8,3.1h-.2Z"/><path d="m362.4,214.3l4.2,2.5-1,1.6-4.2-2.5,1-1.6Z"/><path d="m371.1,223.7c-1.1,1.2-3,1.2-4.2,0,0,0-.2-.2-.2-.3-1-.9-1.3-2.3-.9-3.6l2,.6c-.3.5-.2,1.2.3,1.6.4.5,1,.6,1.5.2,0,0,0,0,0,0,.4-.4.5-1-.2-1.6l-.3-.3.2-1.4,2.6-.3-2.3-2.3,1.4-1.4,4.1,4.1-1.2,1.2-2.5.3c.6,1,.4,2.3-.4,3.1h0Z"/><path d="m377.3,232c-2,1.1-4.6.4-5.7-1.6,0-.1-.1-.2-.2-.4-1.2-2.3-.3-5.1,2-6.2,2.3-1.2,5.1-.3,6.2,2h0c.7,1.4.7,3,0,4.4l-1.7-1.1c.4-.7.4-1.7,0-2.4-.6-1.3-2.2-1.9-3.5-1.2,0,0,0,0,0,0-1.3.6-1.9,2.1-1.3,3.4,0,.1,0,.2.2.3.4.9,1.3,1.5,2.2,1.4l-1-2.2,1.6-.8,2,4-.7.3h0Z"/><path d="m343.5,249.4c.9.3,1.8.8,2.4,1.6.6.8.9,1.7.9,2.7,0,1.5-.5,2.9-1.7,3.9-1.2.9-2.6,1.4-4.1,1.4-1.2,0-2.4-.2-3.4-.9-1-.6-1.8-1.5-2.2-2.6l3.5-2c.2,1,1.1,1.7,2.2,1.6,1.1,0,1-.2,1.3-.4.6-.5.6-1.4.2-1.9,0,0,0-.1-.2-.2-.4-.3-.8-.4-1.3-.4h-.9l-1.5-2.2,2.5-3h-5.3v-3.8h10.2v3.1l-2.6,3.2h.1Z"/><path d="m364.2,249.7v1.6c.2,4.1-3,7.6-7,7.8-.2,0-.5,0-.7,0-2.2,0-4.4-.8-6-2.3-1.5-1.5-2.4-3.6-2.3-5.8,0-2.2.8-4.3,2.3-5.8,1.5-1.6,3.6-2.4,5.8-2.4,1.4-.1,2.8.2,4,1,1.2.6,2.2,1.5,2.9,2.6l-3.4,1.9c-.4-.5-.8-.9-1.4-1.2-.6-.3-1.4-.5-2.1-.5-1.1,0-2.2.4-3,1.2-.8.8-1.2,2-1.2,3.1,0,1.1.4,2.2,1.2,3,.9.9,2.1,1.3,3.3,1.3,1.4,0,3-.7,3.6-2.1h-3.8v-3.4h7.8Z"/><path class="cls-39" d="m203.9,336.7c2.6-.1,5.1.8,7,2.6.5.3.6,1,.2,1.4-.3.4-.9.4-1.4,0-1.4-1.4-3.4-2.2-5.4-2.1-1.7,0-3.3.7-4.6,1.8-.1.2-.3.3-.5.4-.4.3-1,.2-1.3-.1,0,0,0,0,0,0-.3-.4-.3-.8,0-1.2.5-.5,1.1-.9,1.7-1.3,1.3-.9,2.8-1.4,4.4-1.4h0Z"/><path class="cls-12" d="m204.3,340c1.8,0,3.4.6,4.7,1.8.6.5.6,1,.2,1.4-.4.4-1,.4-1.4,0,0,0,0,0,0,0-1.9-1.8-4.8-1.8-6.7,0-.6.5-1,.5-1.4,0s-.3-1,.2-1.4c1.2-1.1,2.8-1.8,4.5-1.8h0Z"/><path class="cls-12" d="m204.3,343.4c1.1,0,2.1.4,2.9,1.1.4.3.5.9.2,1.3h0c-.3.4-.9.5-1.3.2,0,0,0,0,0,0h0c-.9-.9-2.4-.9-3.3,0-.3.4-.8.4-1.1.2,0,0-.1,0-.2-.2h0c-.3-.5-.2-1.1.2-1.4,0,0,0,0,0,0h0c.8-.7,1.8-1.1,2.8-1.1h-.2Z"/><path class="cls-26" d="m220.8,363.4c-1.2-4.2,2.6-13.2-3.9-13.8h-24.8c-7,.2-3.1,9.4-4.3,13.8v5.4c1.2,4.2-2.6,12.9,3.7,13.8h25.6c6.3-.8,2.6-9.6,3.8-13.8v-5.4Z"/><circle class="cls-4" cx="204.3" cy="353.5" r="36"/><path d="m185.4,339.4l-1,1.8-4.6-2.6,2.2,3.8v.2l-4.6.2,4.6,2.6-1,1.8-7.8-4.4,1-1.8,4.6-.2-2.3-4.1,1-1.8,7.8,4.4h0Z"/><path d="m183.6,336.8c-1.2-1.4-1.1-3.5.2-4.7,0,0,0,0,0,0,1.4-1.2,3.6-1.1,4.8.3,1.2,1.4,1.1,3.6-.3,4.8-1.4,1.2-3.6,1.1-4.8-.3h0Zm3.7-3.2c-.6-.6-1.5-.6-2,0-.6.6-.6,1.5,0,2,.5.6,1.4.6,2,0,.6-.5.7-1.3.2-1.9,0,0,0-.1-.1-.2Z"/><path d="m193.5,323.6l3.7,8.2-1.8.8-.2-.6c-.2.7-.8,1.3-1.4,1.5-1.6.7-3.4,0-4.1-1.6,0,0,0-.1,0-.2-.8-1.5-.3-3.4,1.3-4.3,0,0,0,0,0,0,.7-.3,1.4-.3,2.1,0l-1.3-2.9,1.8-.8Zm.6,6c-.4-.7-1.3-1-2-.6-.7.4-1,1.3-.6,2,.4.7,1.2,1,1.9.7.8-.3,1.1-1.2.8-2,0,0,0,0,0-.1h0Z"/><path d="m201.1,329.6c.5,0,.9-.2,1.1-.6l1.7.6c-.5,1-1.5,1.6-2.6,1.7-1.8.4-3.6-.8-4-2.6,0,0,0-.2,0-.3-.3-1.8.9-3.5,2.7-3.8,0,0,.1,0,.2,0,1.7-.3,3.4.9,3.7,2.7,0,0,0,.1,0,.2v.8l-4.5.6c.3.6,1,.9,1.7.6h0Zm.9-2.5c-.2-.6-.9-1-1.5-.8-.6,0-1.2.6-1.3,1.2l2.7-.4h0Z"/><path d="m214.9,328.6l-.8,3.8-1.8-.4.8-3.7c.2-.6,0-1.1-.7-1.2s-1,.2-1.2,1l-.7,3.5-1.8-.4.8-3.7c.2-.6,0-1.1-.7-1.2s-1,.2-1.2,1l-.7,3.5-1.8-.4,1.4-6.2,1.8.4-.2.6c.5-.4,1.2-.6,1.8-.4.7.1,1.2.6,1.4,1.2.6-.5,1.3-.6,2-.5,1.4.3,2.2,1.5,1.8,3.1h-.2Z"/><path d="m217.1,329l4.2,2.5-1,1.6-4.2-2.5,1-1.6Z"/><path d="m225.8,338.4c-1.1,1.2-3,1.2-4.2,0,0,0-.2-.2-.2-.3-1-.9-1.4-2.3-.9-3.6l2,.6c-.3.6-.2,1.3.3,1.7.4.5,1,.6,1.5.2,0,0,0,0,0,0,.4-.4.4-1,0-1.4,0,0,0,0-.1-.1l-2-2,3.9-3.4,3.7,3.7-1.4,1.4-2.3-2.3-1,.8.5.5c1.2,1,1.3,2.8.3,4,0,.1-.2.2-.3.3Z"/><path d="m231.9,346.7c-2,1.1-4.6.4-5.7-1.6,0-.1-.1-.2-.2-.4-1.2-2.3-.3-5.1,2-6.2s5.1-.3,6.2,2c.7,1.4.7,3,0,4.4l-1.7-1.1c.4-.7.4-1.7,0-2.4-.6-1.3-2.2-1.9-3.5-1.2,0,0,0,0,0,0-1.3.6-1.9,2.1-1.3,3.4,0,.1,0,.2.2.3.4.9,1.3,1.5,2.2,1.4l-1-2.2,1.6-.8,2,4-.7.3h0Z"/><path d="m196.3,363.2c1.4,0,2.8.5,3.8,1.4,2.1,2.2,2,5.7-.2,7.8-1.1.9-2.6,1.4-4.1,1.4-1.3,0-2.5-.3-3.6-.9-1-.6-1.8-1.5-2.2-2.6l3.5-2c.3,1,1.3,1.7,2.3,1.6,1.2,0,1-.2,1.3-.4.6-.5.6-1.4.2-1.9,0,0,0-.1-.2-.2-.3-.3-.8-.4-1.2-.4h-5l.6-9.2h9.2v3.8h-5.5v1.7h1Z"/><path d="m218.9,364.4v1.6c.2,4.1-3,7.6-7,7.8-.2,0-.5,0-.7,0-2.2,0-4.4-.8-6-2.3-1.5-1.5-2.4-3.6-2.3-5.8,0-2.2.8-4.3,2.3-5.8,1.5-1.6,3.6-2.4,5.8-2.4,1.4-.1,2.8.2,4,1,1.2.6,2.2,1.5,2.9,2.6l-3.4,1.9c-.4-.5-.8-.9-1.4-1.2-.6-.3-1.4-.5-2.1-.5-1.1,0-2.2.4-3,1.2-.8.8-1.2,2-1.2,3.1,0,1.1.4,2.2,1.2,3,.9.9,2.1,1.3,3.3,1.3,1.4,0,3-.7,3.6-2.1h-3.8v-3.4h7.8,0Z"/><path class="cls-39" d="m303,310.1c2.6-.1,5.1.8,7,2.6.5.3.6,1,.2,1.4-.3.4-.9.4-1.4,0-1.4-1.4-3.4-2.2-5.4-2.1-1.7,0-3.3.7-4.6,1.8-.1.2-.3.3-.5.4-.4.3-1,.2-1.3-.1,0,0,0,0,0,0-.3-.4-.3-.8,0-1.2.5-.5,1.1-.9,1.7-1.3,1.3-.9,2.8-1.4,4.4-1.4h0Z"/><path class="cls-12" d="m303.4,313.5c1.8,0,3.4.6,4.7,1.8.6.5.6,1,.2,1.4-.4.4-1,.4-1.4,0,0,0,0,0,0,0-1.9-1.8-4.8-1.8-6.7,0-.6.5-1,.5-1.4,0s-.3-1,.2-1.4c1.2-1.1,2.8-1.8,4.5-1.8h0Z"/><path class="cls-12" d="m303.5,316.8c1.1,0,2.1.4,2.9,1.1.4.3.5.9.2,1.3h0c-.3.4-.9.5-1.3.2,0,0,0,0,0,0h0c-.9-.9-2.4-.9-3.3,0-.3.4-.8.4-1.1.2,0,0-.1,0-.2-.2h0c-.3-.5-.2-1.1.2-1.4,0,0,0,0,0,0h0c.8-.7,1.8-1.1,2.8-1.1h-.2Z"/><path class="cls-33" d="m320,336.8c-1.2-4.2,2.6-13.2-3.9-13.8h-24.8c-7,.2-3.1,9.4-4.3,13.8v5.4c1.2,4.2-2.6,12.9,3.7,13.8h25.6c6.3-.8,2.6-9.6,3.8-13.8v-5.4Z"/><circle class="cls-4" cx="303.5" cy="326.9" r="36"/><path d="m284.6,312.8l-1,1.8-4.6-2.6,2.2,3.8v.2l-4.6.2,4.6,2.6-1,1.8-7.8-4.4,1-1.8,4.6-.2-2.3-4.1,1-1.8,7.8,4.4h0Z"/><path d="m282.8,310.3c-1.2-1.4-1.1-3.5.2-4.7,0,0,0,0,0,0,1.4-1.2,3.6-1.1,4.8.3,1.2,1.4,1.1,3.6-.3,4.8s-3.6,1.1-4.8-.3Zm3.7-3.2c-.6-.6-1.5-.6-2,0-.6.6-.6,1.5,0,2,.5.6,1.4.6,2,0,.6-.5.7-1.3.2-1.9,0,0,0-.1-.1-.2h0Z"/><path d="m292.7,297.1l3.7,8.2-1.8.8-.2-.6c-.2.7-.8,1.3-1.4,1.5-1.6.7-3.4,0-4.1-1.6,0,0,0-.1,0-.2-.8-1.5-.3-3.4,1.3-4.3,0,0,0,0,0,0,.7-.3,1.4-.3,2.1,0l-1.3-2.9,1.8-.8Zm.6,6c-.4-.7-1.3-1-2-.6-.7.4-1,1.3-.6,2,.4.7,1.2,1,1.9.7.8-.3,1.1-1.2.8-2,0,0,0,0,0-.1Z"/><path d="m300.2,303.1c.5,0,.9-.2,1.1-.6l1.7.6c-.5,1-1.5,1.6-2.6,1.7-1.8.4-3.6-.8-4-2.6,0,0,0-.2,0-.3-.3-1.8.9-3.5,2.7-3.8,0,0,.1,0,.2,0,1.7-.3,3.4.9,3.7,2.7,0,0,0,.1,0,.2v.8l-4.5.6c.3.6,1,.9,1.7.6h0Zm.9-2.5c-.2-.6-.9-1-1.5-.8-.6,0-1.2.6-1.3,1.2l2.7-.4h0Z"/><path d="m314.1,302l-.8,3.8-1.8-.4.8-3.7c.2-.6,0-1.1-.7-1.2s-1,.2-1.2,1l-.7,3.5-1.8-.4.8-3.7c.2-.6,0-1.1-.7-1.2s-1,.2-1.2,1l-.7,3.5-1.8-.4,1.4-6.2,1.8.4-.2.6c.5-.4,1.2-.6,1.8-.4.7.1,1.2.6,1.4,1.2.6-.5,1.3-.6,2-.5,1.4.3,2.2,1.5,1.8,3.1h-.2Z"/><path d="m316.2,302.4l4.2,2.5-1,1.6-4.2-2.5,1-1.6Z"/><path d="m319.5,308.2h4.3c.6,0,1.3-.2,1.8-.6.4-.3.4-.9,0-1.3,0,0,0,0,0,0-.4-.4-1.1-.5-1.6-.2l-.5-1.9c1.2-.5,2.6-.2,3.5.7,1.2,1,1.3,2.8.3,4,0,0,0,0-.1.1-.8.7-1.9,1.1-3,1h-2.1l2.2,2.2-1.4,1.4-4.3-4.3,1-1h-.2Z"/><path d="m331,319.6c-2,1.2-4.5.5-5.7-1.5,0-.1-.2-.3-.2-.5-1.3-2.2-.5-5,1.7-6.3,0,0,.2,0,.2-.1,2.3-1.2,5.1-.3,6.3,1.9,0,0,0,0,0,0,.8,1.4.8,3,0,4.4l-1.7-1.1c.4-.8.4-1.6,0-2.4-.6-1.3-2.2-1.8-3.5-1.2,0,0,0,0-.1,0-1.3.6-1.8,2.1-1.2,3.4,0,0,0,.2.2.3.4.9,1.3,1.5,2.3,1.4l-1.1-2.2,1.6-.8,2.1,4-.7.3-.2.2Z"/><path d="m289.5,346.7v-2.9l5.2-5.4c.4-.4.8-.9,1.1-1.4.2-.3.3-.7.3-1,0-.4-.2-.7-.4-1-.3-.2-.7-.4-1-.3-1,0-1.8.7-2.1,1.6l-3.4-1.9c.9-2.3,3.1-3.7,5.5-3.6,1.4,0,2.7.5,3.8,1.4,1.1.9,1.6,2.2,1.6,3.6,0,.9-.1,1.8-.6,2.5-.5.9-1.1,1.7-1.8,2.4l-2.2,2.2h4.9v3.8h-10.9Z"/><path d="m317.4,337.8v1.6c.2,4.1-3,7.6-7,7.8-.2,0-.5,0-.7,0-2.2,0-4.4-.8-6-2.3-1.5-1.5-2.4-3.6-2.3-5.8,0-2.2.8-4.3,2.3-5.8,1.5-1.6,3.6-2.4,5.8-2.4,1.4-.1,2.8.2,4,1,1.2.6,2.2,1.5,2.9,2.6l-3.4,1.9c-.4-.5-.8-.9-1.4-1.2-.6-.3-1.4-.5-2.1-.5-1.1,0-2.2.4-3,1.2-.8.8-1.2,2-1.2,3.1,0,1.1.4,2.2,1.2,3,.9.9,2.1,1.3,3.3,1.3,1.4,0,3-.7,3.6-2.1h-3.8v-3.4h7.8,0Z"/><circle class="cls-4" cx="112.5" cy="334.4" r="36"/><path class="cls-66" d="m86,332.2c.1-.2.3-.3.6-.3h5.4v2.6c-.4.2-.6.7-.6,1.1v10.2c0,.7.3,1,1,1h3.8c.5,0,1-.2.9-1v-.4h3.7v.2c0,.9.2,1.1,1.1,1.1h3.7c.6,0,.9-.3,1-.9v-.5h3.7v.2c0,1,.2,1.1,1.1,1.1h3.4c.7,0,1-.3,1-1v-.4h3.7v.2c0,.9.2,1.1,1.1,1.1h3.7c.6,0,.9-.3,1-1v-.4h3.7v.3c0,.9.2,1,1,1h2.1c.6.2,1.3.2,1.9,0,.4,0,.6-.3.6-.8,0-.2,0-.4,0-.6h5.4v4h-54.6v-7.7c.3,0,.5-.1.7-.2,1-.3,1.7-1.3,1.8-2.3,0-1.1-.6-2.1-1.7-2.4l-.8-.2v-4.5l.6.2Z"/><path class="cls-65" d="m122.7,349.4h1.2v1.8c0,.4.3.8.7.8,0,0,0,0,0,0,.6,0,.8-.2.8-.8v-1.8h1.3v1.8c0,.6.2.9.8.9.4,0,.8-.4.8-.8,0,0,0,0,0,0v-1.8h1.3v1.8c0,.6.2,1,.8,1s.8-.3.8-1v-1.8h1.2v1.7c0,.6.3,1,.9,1s.8-.3.9-1v-1.7h1.2v1.8c0,.4.3.8.7.9.5,0,.8-.2.9-.6,0-.7,0-1.3,0-2h3.5v2.6c0,.8-.6,1.5-1.4,1.5h-51c-.9.1-1.8-.4-2.1-1.3v-3h3.7v1.8c0,.6.2,1,.8,1s.8-.3.8-1v-1.8h1.2v1.7c0,.6.3,1,.9,1s.8-.3.9-1v-1.7h1.2v1.8c0,.4.3.8.7.9.5,0,.8-.2.9-.6,0-.7,0-1.3,0-2h1.2v1.8c0,.4.3.8.7.8,0,0,0,0,0,0,.6,0,.8-.2.8-.8v-1.8h1.3v1.8c0,.6.2.9.8.9.4,0,.8-.4.8-.8,0,0,0,0,0,0v-1.8h1.2c0,.7,0,1.4,0,2.1,0,.4.4.6.7.6,0,0,0,0,0,0,.6,0,.9-.3.9-1v-1.8h1.2v1.7c0,.6.3,1,.9,1s.8-.3.9-1v-1.7h1.2v1.8c0,.4.3.8.7.9,0,0,.1,0,.2,0,.6,0,.7-.2.7-.9v-1.8h1.3v1.8c0,.6.2.8.8.8s.8-.2.8-.8v-1.8h1.3v1.8c0,.6.2.9.8.9.4,0,.8-.4.8-.8,0,0,0,0,0,0v-1.8h1.2v1.7c0,.6.3,1,.9,1s.8-.3.9-1v-1.7h1.2v1.8c0,.4.3.8.7.8,0,0,0,0,0,0,.5,0,.8-.2.9-.6,0-.7,0-1.3,0-2l-.5.2Z"/><path class="cls-70" d="m140.5,345.4h-5.4v-10.2c0-.6-.4-.8-1-.8h-3.7c-.9,0-1,.2-1,1v9.8h-3.7v-9.9c0-.7-.2-1-1-1h-3.5c-1,0-1.2.2-1.2,1.2v9.8h-3.7v-9.9c0-.8-.2-1-1-1h-3.5c-1,0-1.1.2-1.1,1.1v9.8h-3.7v-9.8c0-.8-.2-1-1-1.1h-3.8c-.7,0-1,.2-1,1v9.9h-3.7v-10c0-.5-.3-.9-.7-1,0,0-.2,0-.2,0h-4.2v-2.6h47.3c1,0,1.1,0,1.1,1v3.1c0,.3-.2.6-.5.7-1.2.2-2,1.3-2,2.5,0,1.2.8,2.2,2,2.5.3,0,.5.3.5.6v3.4Z"/><path class="cls-25" d="m92.1,334.5h2.7c-.3.3-.5.8-.4,1.2v1.1c-.6,0-.7.4-.7.9v6.1c0,.4.2.9.6.9,0,0,0,0,0,0,0,.7,0,1.4.3,2h-2.2c-.7,0-1-.3-1-1v-10.2c0-.5.2-.9.6-1.1h0Z"/><path class="cls-15" d="m132.6,334.5h1.4c.4,0,.9.2.9.6,0,0,0,.1,0,.2v10.2c-.2.2,0,.4,0,.6,0,.4-.2.8-.6.8-.6,0-1.3,0-1.9,0-.3-.6-.2-1.1-.2-1.7.5,0,.7-.3.7-.9v-6.3c0-.4-.3-.8-.7-.9,0,0,0,0,0,0v-1.2c0-.5,0-1,.4-1.4h0Z"/><path class="cls-25" d="m119.8,345.4v-9.8c0-1,.2-1.2,1.2-1.2h2.1c-.3.3-.5.8-.4,1.2v1.3c-.6,0-.8.2-.9,1v5.9c0,.7.2,1,.9,1,0,.7,0,1.3.3,1.9h-2.1c-.9,0-1.1-.2-1.1-1.1v-.2Z"/><path class="cls-25" d="m101,345.4v-9.9c0-.7.2-1,1-1h2.3c-.4.3-.5.8-.4,1.2v1.2c-.6,0-.9.3-.9,1v6c0,.6.3.9.9,1,0,.7-.2,1.4.3,2h-2.1c-.7,0-1.1-.2-1.1-1.1v-.2h0Z"/><path class="cls-25" d="m110.5,345.4v-9.8c0-1,.2-1.1,1.1-1.1h2c-.2.8-.3,1.6-.2,2.4-.6,0-.9.3-.9,1v6.1c0,.6.2.8.9,1,0,.6,0,1.3.2,1.9h-1.9c-1,0-1.1-.2-1.1-1.1v-.2h0Z"/><path class="cls-25" d="m132.2,345c0,.6,0,1.2.2,1.7h-2.1c-.9,0-1-.2-1-1v-10.2c0-.9.2-1,1-1h2.2c-.4.3-.5.9-.4,1.4v1.2c-.6,0-.9.3-.9,1v6.1c0,.6.2.8.9,1h0Z"/><path class="cls-15" d="m104.2,346.8c-.3-.6-.5-1.3-.3-2,.6,0,.8-.3.8-.9v-6.1c0-.4-.3-.8-.7-.9,0,0,0,0,0,0v-1.2c0-.4,0-.9.4-1.2h1.4c.8,0,1,.3,1,1.1v10.3c0,.6-.3.9-1,.9h-1.6Z"/><path class="cls-52" d="m122.7,337v-1.3c0-.4.1-.9.4-1.2h1.4c.7,0,1,.3,1,1v10.3c0,.6-.2,1-1,1h-1.6c-.3-.6-.4-1.3-.3-1.9.4,0,.8-.3.9-.7,0,0,0,0,0,0v-6.2c0-.4-.4-.8-.8-.8,0,0,0,0,0,0h0Z"/><path class="cls-52" d="m94.7,346.8c-.3-.6-.4-1.3-.3-2,.6,0,.9-.3.9-1v-6.1c0-.6-.2-.8-.9-1v-1.1c0-.4.1-.9.4-1.2h1.5c.7,0,1,.3,1,1v10.4c0,.4-.2.9-.6.9,0,0-.2,0-.3,0h-1.7,0Z"/><path class="cls-52" d="m113.4,336.9c-.1-.8,0-1.6.2-2.4h1.5c.8,0,1,.2,1,1v10.3c0,.7-.2,1-1,1h-1.5c-.2-.6-.3-1.3-.2-1.9.4,0,.8-.4.7-.9,0,0,0,0,0,0v-6.2c0-.4-.3-.8-.7-.9,0,0,0,0,0,0h0Z"/><path class="cls-19" d="m108.5,349.4v1.7c0,.6-.3,1-.9,1s-.8-.3-.9-1v-1.7h1.8Z"/><path class="cls-19" d="m119.8,349.4v1.7c0,.6-.3,1-.9,1s-.8-.3-.9-1v-1.7h1.8Z"/><path class="cls-19" d="m122.7,349.4v2c0,.4-.3.7-.7.7,0,0-.2,0-.2,0-.4,0-.7-.4-.7-.8v-1.8h1.6Z"/><path class="cls-19" d="m134.1,349.4v1.7c0,.6-.3,1-.9,1s-.8-.3-.9-1v-1.7h1.8Z"/><path class="cls-19" d="m94.2,349.4v1.7c0,.6-.3,1-.9,1s-.8-.3-.9-1v-1.7h1.8Z"/><path class="cls-19" d="m105.6,349.4v1.8c0,.6-.3,1-.9,1-.4,0-.7-.2-.7-.6,0,0,0,0,0,0,0-.7,0-1.4,0-2.1h1.7Z"/><path class="cls-19" d="m97.1,349.4c0,.7,0,1.3,0,2,0,.4-.4.7-.7.7,0,0,0,0-.1,0-.4,0-.8-.4-.7-.9,0,0,0,0,0,0v-1.8h1.7Z"/><path class="cls-19" d="m137,349.4c0,.7,0,1.3,0,2,0,.4-.4.7-.7.7,0,0,0,0-.1,0-.4,0-.8-.4-.7-.9,0,0,0,0,0,0v-1.8h1.7Z"/><path class="cls-67" d="m114.1,349.4v1.8c0,.6-.2.8-.8.8s-.8-.2-.8-.8v-1.8h1.6Z"/><path class="cls-67" d="m99.8,349.4v1.8c0,.6-.2.8-.8.8-.4,0-.8-.3-.8-.7,0,0,0,0,0,0v-1.8h1.6Z"/><path class="cls-67" d="m102.7,349.4v1.8c0,.4-.3.8-.7.9,0,0,0,0,0,0-.6,0-.8-.2-.8-.9v-1.8h1.6Z"/><path class="cls-67" d="m117,349.4v1.8c0,.4-.3.8-.7.9,0,0,0,0,0,0-.6,0-.8-.2-.8-.9v-1.8h1.6Z"/><path class="cls-67" d="m125.5,349.4v1.8c0,.6-.2.8-.8.8-.4,0-.8-.3-.8-.7,0,0,0,0,0,0v-1.8h1.6Z"/><path class="cls-67" d="m128.3,349.4v1.8c0,.4-.3.8-.7.9,0,0,0,0,0,0-.6,0-.8-.2-.8-.9v-1.8h1.6Z"/><path class="cls-19" d="m91.4,349.4v1.8c0,.5-.3.9-.8,1-.6,0-.8-.2-.8-1v-1.8h1.6Z"/><path class="cls-67" d="m111.2,349.4v1.8c0,.6-.2.9-.7.9s-.8-.3-.9-.9v-1.8h1.6Z"/><path class="cls-19" d="m131.2,349.4v1.8c0,.5-.3.9-.8,1-.6,0-.8-.2-.8-1v-1.8h1.6Z"/><path class="cls-6" d="m94.4,336.8c.6,0,.9.3.9,1v6.1c0,.6-.2.8-.9,1-.4,0-.8-.4-.7-.9,0,0,0,0,0,0v-6.1c0-.4.3-.8.7-.9,0,0,0,0,0,0h0Z"/><path class="cls-6" d="m132.2,345c-.6,0-.9-.3-.9-1v-6.1c0-.6.2-.8.9-1,.5,0,.7.3.7.9v6.3c0,.4-.3.8-.7.9,0,0,0,0,0,0h0Z"/><path class="cls-6" d="m122.7,337c.4,0,.8.3.9.7,0,0,0,0,0,0v6.2c0,.4-.4.8-.8.8,0,0,0,0,0,0-.6,0-.8-.2-.9-1v-5.9c0-.7.2-1,.9-1Z"/><path class="cls-6" d="m103.9,336.9c.6,0,.8.3.8.9v6.1c0,.4-.3.8-.7.9,0,0,0,0,0,0-.6,0-.9-.3-.9-1v-6c0-.6.3-.9.9-1h0Z"/><path class="cls-6" d="m113.4,336.9c.5,0,.7.3.7.9v6.2c0,.6-.3.7-.7.9-.6,0-.9-.3-.9-1v-6.1c0-.6.2-.8.9-1Z"/><path d="m92.3,319.2l.8-2.2c.8.5,1.8.4,2.5-.3.8-.7.8-1.2.6-1.5-.4-.5-1-.3-2.4.3s-3,1-4.2-.5-.7-3.4.6-4.6c1.2-1,2.9-1.3,4.3-.6l-.7,2.2c-.7-.4-1.5-.3-2.1.2-.6.5-.6,1-.3,1.3s.7.4,2.2-.2c1.4-.6,3.1-1.3,4.5.3s.8,3.4-.9,4.8c-1.3,1.2-3.2,1.5-4.7.6v.2Z"/><path d="m100.5,310.2l1.1,2.3c.2.6.8.4,1.6,0l.8,1.8c-2.4,1.4-3.5,1-4.4-.8l-1.1-2.3-1,.5-.9-1.8,1-.5-.6-1.2,1.7-1.5.9,1.8,1.4-.6.9,1.8-1.4.6h0Z"/><path d="m103.4,310.4c-.4-2.1,1-4.1,3-4.5,0,0,0,0,0,0,2-.4,4,.9,4.5,2.9,0,0,0,0,0,.1.4,2.1-1,4.1-3,4.5,0,0,0,0,0,0-2,.4-4-.9-4.5-2.9,0,0,0,0,0-.1Zm5.4-1c-.2-.9-1.1-1.4-2-1.1-.9.2-1.4,1.1-1.1,2,.2.8,1,1.3,1.8,1.2.8-.1,1.4-.9,1.3-1.7,0,0,0-.2,0-.3Z"/><path d="m117,305.8l-.2,2.5c-.8-.4-1.8,0-2.1.8,0,.2-.1.5-.1.7l-.2,3.3-2.2-.2.5-7.2,2.2.2v1.3c.3-.9,1.2-1.4,2.2-1.3h0Z"/><path d="m126.1,308.5l-2.3,6.8-2.1-.7.2-.6c-.7.4-1.6.5-2.3.2-1.8-.8-2.7-2.9-2-4.7.7-2,2.7-3.1,4.5-2.5.8.3,1.4.8,1.8,1.5l.2-.6,2.1.7h0Zm-3.2,2.7c.4-.8,0-1.8-.9-2.2,0,0-.1,0-.2,0-.8-.3-1.8,0-2.1.9,0,0,0,.2,0,.2-.4.8,0,1.8.9,2.2,0,0,.1,0,.2,0,.8.3,1.8,0,2.1-.9,0,0,0-.2,0-.2h0Z"/><path d="m134.7,314.6l-4.2,5.4c-1.5,1.9-3.6,1.5-5.1.3-1.2-.8-1.8-2.1-1.6-3.5l2.1.3c-.1.7.2,1.4.7,1.8.5.6,1.4.6,2,0,.1,0,.2-.2.3-.3l.4-.6c-.8.2-1.6,0-2.2-.6-1.6-1.3-1.8-3.6-.6-5.1,1.3-1.6,3.6-1.8,5.1-.6.6.5,1,1.2,1,2l.5-.6,1.7,1.3h0Zm-3.8,1.4c.6-.7.5-1.8-.2-2.4-.7-.6-1.8-.5-2.4.2-.6.7-.5,1.8.2,2.4,0,0,0,0,0,0,.6.6,1.7.6,2.3,0,0,0,0-.1.1-.2Z"/><path d="m134.2,323c.3.4.7.7,1.2.9v2c-1.2,0-2.3-.8-2.9-1.8-1.3-1.6-.9-4,.7-5.3,0,0,.2-.1.3-.2,1.7-1.2,3.9-.8,5.1.9,0,0,.1.2.2.2,1.1,1.7.6,3.9-1,5,0,0-.1,0-.2.1-.2.2-.5.3-.8.4l-2.8-4.2c-.4.6-.4,1.4,0,2h.2Zm2.9-.3c.5-.5.5-1.3,0-1.9-.3-.7-1.1-1-1.8-.7l1.7,2.6h0Z"/><circle class="cls-4" cx="199.3" cy="46.5" r="36"/><path d="m175.9,32.4c-2.1-2-2.1-5.2-.2-7.3,0,0,.1-.1.2-.2,1.2-1.3,3-1.8,4.7-1.4l-.6,2.2c-.9-.3-1.9,0-2.6.8-1.1,1-1.2,2.8-.2,3.9,0,0,.1.1.2.2,1,1.1,2.7,1.3,3.9.3.1,0,.2-.2.3-.3.7-.6,1-1.6.7-2.6l2.2-.6c.4,1.7,0,3.5-1.4,4.7-1.9,2.1-5.1,2.2-7.2.3,0,0-.2-.2-.3-.3v.2Z"/><path d="m190.3,19.4l3,6.6-2,.9-.3-.6c-.3.8-.8,1.4-1.6,1.7-1.8.8-3.9,0-4.7-1.9,0,0,0,0,0-.1-.9-1.8-.2-3.9,1.5-4.9.7-.4,1.6-.4,2.3,0l-.3-.6,2-.9h0Zm-.5,4.2c-.4-.9-1.3-1.3-2.2-.9,0,0,0,0-.1,0-.8.3-1.2,1.3-.9,2.1,0,0,0,.1,0,.2.4.9,1.4,1.3,2.2.9,0,0,0,0,0,0,.8-.4,1.2-1.3.9-2.1,0,0,0,0,0-.1h0Z"/><path d="m204.6,20.7l.2,4.4h-2.2l-.2-4.2c0-.7-.4-1.2-1-1.1s-1.1.6-1,1.4l.2,4.1h-2.2l-.2-4.2c0-.7-.4-1.2-1-1.1s-1.1.6-1,1.4l.2,4.1h-2.2l-.2-7.1h2.2v.6c.5-.6,1.2-1,1.9-1,.7,0,1.5.3,1.9.9.5-.7,1.3-1,2.1-1,1.5,0,2.7,1,2.8,2.5,0,.1,0,.2,0,.4h-.1Z"/><path d="m209.3,25.2c.5.2,1,.2,1.5,0l1.3,1.5c-1,.7-2.3.8-3.4.3-2.3-.9-3.2-3-2.4-5,.6-1.9,2.7-3,4.6-2.3,0,0,.2,0,.2,0,1.9.6,2.8,2.7,2.2,4.5,0,.1,0,.2-.1.3,0,.3-.2.6-.4.8l-4.8-1.8c0,.7.6,1.4,1.3,1.5Zm2.2-2c0-.7-.4-1.4-1-1.6-.7-.3-1.5,0-1.8.6l2.9,1Z"/><path d="m220.2,25l-1.4,2c-.6-.7-1.7-.8-2.4-.2-.1,0-.2.2-.3.3l-1.8,2.6-1.8-1.2,4.1-5.9,1.8,1.2-.7,1c.8-.6,1.8-.6,2.6,0v.2Z"/><path d="m226.5,32l-5.5,4.6-1.4-1.7.5-.4c-.8,0-1.6-.4-2.1-1-1.2-1.6-.9-3.9.6-5.1,1.5-1.4,3.7-1.3,5.1.2.6.6.8,1.4.7,2.2l.5-.4,1.4,1.7h.2Zm-4.2.7c.7-.6.9-1.6.3-2.4,0,0,0,0,0,0-.6-.7-1.6-.8-2.4-.3,0,0,0,0-.1,0-.7.6-.9,1.6-.3,2.4,0,0,0,0,0,0,.6.7,1.6.8,2.4.3,0,0,0,0,.1,0h0Z"/><path class="cls-13" d="m222.5,54.6v.2c-.2,0-.2.2-.2.3,0,.4,0,.8,0,1.2-.4,2.7-1.2,5.4-2.6,7.8-1.2,2.1-2.6,4-4.3,5.7-1.8,1.8-3.9,3.2-6.2,4.2-1.9.9-4,1.5-6.1,1.8l-1.9.2h-3c-.5,0-1.1-.2-1.6-.2-5.5-.7-10.6-3.5-14.2-7.7-3-3.4-4.8-7.7-5.4-12.2,0-.4,0-.9-.2-1.3v-2.9c0-.1.1-.3,0-.4,0-.6,0-1.3.2-1.9.4-2.5,1.3-5,2.5-7.2,1.1-2.1,2.6-4,4.3-5.6,4.9-4.7,11.7-7,18.4-6.2,2.6.3,5,1,7.4,2.2,5,2.5,9,6.7,11.1,11.9.8,1.9,1.3,3.9,1.5,5.9.1,1.2.2,2.4.2,3.6,0,.2,0,.3,0,.5h0Zm-19,18.3c.9-.1,1.8-.4,2.6-.6,9.5-3.3,15.2-13.1,13.2-23-1.5-7.1-5.8-12.1-12.6-14.8-1-.5-2.1-.7-3.2-.9-.2,0-.4-.1-.6-.2-1.7-.3-3.4-.3-5-.2-3.1.2-6.2,1.2-8.8,2.9-7.1,4.6-10.3,11.2-9.4,19.7.6,5.5,3.5,10.5,8.1,13.7,3.8,2.7,8.3,4.1,13,3.8.9,0,1.8-.1,2.7-.4h0Z"/><path class="cls-9" d="m203.5,72.9c-.9.3-1.8.4-2.7.4-4.6.3-9.2-1-13-3.8-4.6-3.4-7.5-8-8.1-13.7-1-8.5,2.3-15,9.4-19.7,2.6-1.7,5.7-2.7,8.8-2.9,1.7-.1,3.4,0,5,.2.2,0,.4,0,.6.2.1,0,.3.2.4.2,3.4,1,6.4,3.1,8.6,6,1,1.3,1.9,2.8,2.6,4.3,1.1,2.6,1.7,5.3,1.9,8.1,0,1.5,0,2.9-.2,4.4-.3,2.3-1,4.4-2,6.5-1.1,2.2-2.6,4.2-4.4,5.9-1.5,1.4-3.2,2.4-5.1,3.2-.6.2-1.1.4-1.7.6h0Zm-18.5-19.7c0,8,6.5,14.5,14.6,14.5,8,0,14.5-6.5,14.5-14.6,0-8-6.5-14.5-14.6-14.5-8,0-14.5,6.5-14.5,14.5h0Z"/><path class="cls-21" d="m203.5,72.9c.5-.3,1.1-.5,1.7-.6,1.9-.8,3.6-1.8,5.1-3.2,1.8-1.7,3.3-3.7,4.4-5.9,1-2,1.7-4.2,2-6.5.2-1.5.3-2.9.2-4.4,0-2.8-.7-5.6-1.9-8.2-.7-1.5-1.5-3-2.6-4.3-2.1-2.9-5.1-5-8.6-6-.2,0-.2,0-.4-.2,1.1.1,2.2.4,3.2.9,6.7,2.7,11,7.7,12.6,14.8,2,9.9-3.6,19.8-13.2,23-.8.3-1.7.6-2.6.6h0Z"/><path class="cls-47" d="m185,53.3c0-8,6.5-14.6,14.6-14.6,8,0,14.6,6.5,14.6,14.6,0,8-6.5,14.6-14.6,14.6h0c-8,0-14.5-6.5-14.6-14.5h0Zm14.6-9h-6.6c-.7,0-1.4.2-1.8.7-.2.2-.2.3-.4.5-2.3,2.4-3.3,5.7-3,9,.3,2.9,1.6,5.5,3.8,7.4.2.2.5.4.9.4h13.6c.7,0,1.5-.3,2-.8.2-.2.2-.3.4-.4,2.4-2.7,3.4-6.3,2.8-9.8-.4-2.4-1.5-4.6-3.2-6.3-.4-.5-1.1-.8-1.8-.8h-6.7Z"/><path class="cls-16" d="m199.6,44.3h6.7c.7,0,1.3.3,1.8.8,1.7,1.7,2.8,3.9,3.2,6.3.6,3.5-.4,7.1-2.8,9.8,0,.2-.2.3-.4.4-.5.6-1.2.9-2,.8h-13.6c-.3,0-.6-.2-.9-.4-2.1-1.9-3.5-4.6-3.8-7.4-.4-3.3.7-6.6,3-9,.2-.1.3-.3.4-.5.5-.5,1.1-.8,1.8-.7h6.6Zm6.3,9c0-3.5-2.8-6.3-6.2-6.3,0,0,0,0,0,0-3.5,0-6.4,2.7-6.4,6.2,0,3.5,2.7,6.4,6.2,6.4s6.4-2.7,6.4-6.2c0,0,0,0,0,0h0,0Z"/><path class="cls-35" d="m205.9,53.3c0,3.4-2.8,6.2-6.2,6.3-3.4.1-6.2-2.6-6.3-5.9,0-.1,0-.2,0-.4,0-3.5,2.8-6.3,6.3-6.3s6.3,2.8,6.3,6.3h0Zm-6.3-3.5c-1.9,0-3.5,1.6-3.5,3.5h0c0,1.9,1.6,3.5,3.5,3.5,1.9,0,3.5-1.5,3.5-3.5,0,0,0,0,0,0,0-2-1.6-3.5-3.5-3.6h0Z"/><path class="cls-60" d="m199.6,56.8c-1.9,0-3.5-1.5-3.5-3.4,0,0,0,0,0-.1,0-1.9,1.6-3.5,3.5-3.5h0c.3.2.4.6.5.9.4,1.8.4,3.6,0,5.4,0,.4-.2.7-.5.9h0Z"/><path class="cls-24" d="m199.6,56.8c.3-.2.4-.6.5-.9.4-1.8.4-3.6,0-5.4,0-.4-.2-.7-.5-.9,2,0,3.6,1.6,3.6,3.6,0,2-1.6,3.6-3.6,3.6h0Z"/><circle class="cls-4" cx="53.9" cy="259.6" r="36"/><path class="cls-32" d="m42.8,265.2v-15.7c0-1.2.2-1.5,1.4-2h.2c0,.2.2,0,.4,0h15.4c.9,0,1.5.8,1.4,1.7v35.8c0,.8-.4,1.5-1.1,1.8h-15.8c-1,0-1.8-.6-1.9-1.6,0-.1,0-.2,0-.3v-19.6Zm13,16.5h2.7c.5,0,.8-.3.9-.8v-27.6c0-.4-.4-.8-.9-.8h-9.7c-.5,0-.9.4-1,.9,0,0,0,0,0,0v27.3c0,.5.4.9.9,1,0,0,0,0,0,0h7Z"/><path class="cls-18" d="m60.4,286.8c.7-.3,1.1-1,1.1-1.8v-35.8c0-.8-.6-1.6-1.4-1.7h3.1c.9.3,1.4,1.2,1.3,2.2v35.4c0,.9-.6,1.7-1.5,1.8-.1,0-.2,0-.3,0h-2.2v-.2Z"/><path class="cls-18" d="m42.8,258.2v3.8h-4.1c-.7.1-1.3-.3-1.4-1,0-.1,0-.2,0-.4v-1.3c0-.6.4-1.2,1.1-1.2,0,0,0,0,.1,0h4.2Z"/><path class="cls-18" d="m42.8,272.3v3.8h-4c-1,0-1.4-.4-1.4-1.4v-1.2c0-.6.4-1.2,1.1-1.3,0,0,.1,0,.2,0h4.1,0Z"/><path class="cls-72" d="m42.8,265.2v3.8h-4.1c-.6,0-1.2-.4-1.3-1,0,0,0-.1,0-.2v-1.4c0-.6.4-1.2,1-1.2,0,0,.2,0,.3,0h4.2,0Z"/><path class="cls-42" d="m64.5,262v-3.8h4.1c.6,0,1.1.3,1.2.9,0,0,0,.1,0,.2v1.5c0,.6-.4,1.2-1.1,1.2,0,0,0,0-.1,0h-4.1Z"/><path class="cls-42" d="m64.5,276.1v-3.8h4.1c.6,0,1.1.4,1.2,1,0,0,0,.1,0,.2v1.5c0,.6-.4,1.1-1,1.1,0,0-.1,0-.2,0h-4.1Z"/><path class="cls-42" d="m64.5,269.1v-3.8h4.1c.6,0,1.2.4,1.2,1.1,0,0,0,0,0,.1v1.4c0,.6-.4,1.2-1.1,1.2,0,0,0,0-.1,0h-4.1Z"/><path class="cls-72" d="m42.8,251.1v3.9h-3.9c-1,0-1.4-.4-1.4-1.4v-1.2c0-.6.4-1.1,1-1.1,0,0,.1,0,.2,0h4.2,0Z"/><path class="cls-72" d="m42.8,279.4v3.8h-4c-1,0-1.4-.4-1.4-1.4v-1.1c0-.6.4-1.2,1-1.3,0,0,.2,0,.3,0h4.2,0Z"/><path class="cls-2" d="m64.5,254.8v-3.8h4.2c.6,0,1.2.5,1.2,1.1,0,0,0,0,0,0v1.5c0,.6-.4,1.1-1,1.1,0,0-.1,0-.2,0h-4.2Z"/><path class="cls-2" d="m64.5,283.2v-3.8h4.2c.6,0,1.2.5,1.2,1.1,0,0,0,0,0,0v1.5c0,.6-.4,1.1-1,1.1,0,0-.1,0-.2,0h-4.2Z"/><path class="cls-43" d="m55.8,281.7h-7c-.5,0-.9-.4-1-.9,0,0,0,0,0,0v-27.3c0-.5.4-.9.9-1,0,0,0,0,0,0h7c.5.2.8.7.7,1.3v26.6c0,.5-.2,1.1-.7,1.3Zm-1.5-18.2c-.8.2-1.6.2-2.4.4s-.8.2-.8,1,.2.4.4.4h4.3c.3,0,.4,0,.4-.4s0-.4-.4-.4h-2.8c.9-.2,1.8-.4,2.7-.6.2,0,.5,0,.5-.4,0-.2-.1-.4-.4-.5,0,0,0,0-.1,0h-.4c-.8-.2-1.6-.2-2.4-.4h2.9c.3,0,.4-.2.4-.4s0-.4-.4-.4h-3.9c-1.3,0-.9,0-.8.9,0,.2,0,.3.3.3.6,0,1.2.2,1.8.3.4,0,.8,0,1.1.2h0Zm-.6,9h2.2c.4,0,.4-.2.4-.6s0-.6-.4-.5h-1.7c0,0-.2,0-.2,0s.2,0,.2-.2l1.8-.5c.3,0,.4-.5.3-.8s-.3-.2-.6-.2c-.5.2-1.1.3-1.6.6-.2,0-.3,0-.5-.2-.3-.5-.9-.5-1.4-.5s-.8.4-1,.9,0,.9,0,1.4c0,.3,0,.5.5.5h2.1Zm-2.6-4.9c0,.3,0,.5.4.6,1.4.2,2.7.6,4.1.9.6.2.7,0,.6-.6,0-.2,0-.4-.3-.4-.2,0-.4,0-.6,0,0,0-.2,0-.2-.2,0-.4,0-.6.4-.6.1,0,.3,0,.4,0,.2,0,.4-.4.2-.8,0-.3-.2-.2-.5-.2-1.4.3-2.8.6-4.2.9-.3,0-.5.2-.4.6h0,0Z"/><path class="cls-49" d="m55.8,281.7c.5-.2.8-.7.7-1.3v-26.6c0-.5-.2-1.1-.7-1.3h2.7c.5,0,.8.3.9.8v27.6c0,.4-.4.8-.9.8h-2.7Z"/><path class="cls-41" d="m54.2,263.6c-.3-.2-.7-.2-1.1-.2-.6-.1-1.2-.3-1.8-.3-.2,0-.3-.1-.3-.3,0,0,0,0,0,0q0-.9.8-.9h3.9c.3,0,.4,0,.4.4s0,.4-.4.4h-2.9c.8.2,1.6.2,2.4.4h.4c.2,0,.4.1.5.4,0,0,0,0,0,.1,0,.4-.2.4-.5.4-.9.2-1.8.3-2.7.6h2.8c.3,0,.4,0,.4.4s0,.4-.4.4h-4.3c-.3,0-.4,0-.4-.4,0-.8,0-.9.8-1s1.5-.2,2.4-.4h0Z"/><path class="cls-69" d="m53.6,272.6h-2.1c-.2,0-.4-.1-.5-.4,0,0,0,0,0-.1,0-.5,0-.9,0-1.4,0-.5.5-.8,1-.9.6,0,1.1,0,1.4.5.2.2.2.2.5.2.5-.2,1.1-.3,1.6-.6.2,0,.4-.2.6.2.2.3,0,.6-.2.7,0,0,0,0-.1,0l-1.8.5c0,0-.2,0-.2.2s.2,0,.2,0h1.7c.4,0,.4.2.4.5s0,.6-.4.6h-2.2Zm-1.1-1h.3c.2,0,.3,0,.4-.2s0-.4-.2-.5c-.3,0-.6,0-.9,0-.2,0-.2.2-.2.5s.2.2.3.2h.3Z"/><path class="cls-41" d="m51.1,267.6c0-.3,0-.5.4-.6,1.4-.3,2.8-.6,4.2-.9.2,0,.4,0,.5.2,0,.4,0,.7-.2.8-.1,0-.3,0-.4,0-.4,0-.5.2-.4.6,0,0,0,.2.2.2.2,0,.4,0,.6,0s.3.2.3.4c0,.6,0,.7-.6.6-1.4-.3-2.7-.6-4.1-.9-.2,0-.4-.2-.4-.4,0,0,0-.1,0-.2h0Zm1.7,0h0c.5,0,1,.1,1.5.2q.2,0,.2-.2c0-.2,0-.3-.2-.2l-1.5.2h0Z"/><path class="cls-27" d="m52.5,271.5h-.4c-.2,0-.3,0-.3-.2s0-.4.2-.5c.3,0,.6,0,.9,0,.2,0,.3.2.2.5s-.2,0-.4.2h-.2Z"/><path class="cls-54" d="m52.8,267.6c.5,0,1-.1,1.5-.2.2,0,.2.2.2.2s0,.2-.2.2l-1.5-.2h0Z"/><path d="m27.3,254.8l-.2.9,2.7.6-.5,1.8-8.2-2,.8-3.3c.4-1.5,2-2.5,3.5-2.1,0,0,0,0,0,0,1,.2,1.8,1.1,2,2.1l3.4-1-.5,2-3,.9h0Zm-1.8.5l.3-1.4c.1-.6-.3-1.1-.8-1.2-.5-.2-1.1.1-1.3.6l-.3,1.4,2.1.5h0Z"/><path d="m28.8,243.6l5.2,3-.9,1.6-.5-.2c.2.6.1,1.4-.2,1.9-1.1,1.4-3.1,1.7-4.5.6-1.1-.9-1.6-2.4-1-3.7.3-.6.9-1,1.5-1.2l-.5-.2.9-1.6h0Zm1.8,3c-.6-.4-1.5-.2-1.9.4,0,0,0,.1,0,.2-.4.7-.2,1.5.5,1.9,0,0,0,0,.1,0,.6.4,1.5.2,1.9-.4,0,0,0-.1,0-.2.4-.7.2-1.5-.5-1.9,0,0,0,0-.1,0h0Z"/><path d="m38.6,237.2l2.4,2.8-1.4,1.2-2.3-2.6c-.4-.5-.9-.6-1.3-.2-.4.3-.4.9,0,1.3,0,0,0,0,0,0l2.2,2.6-1.4,1.2-2.3-2.6c-.4-.5-.9-.6-1.3-.2-.4.3-.4.9,0,1.3,0,0,0,0,0,0l2.2,2.6-1.4,1.2-4-4.5,1.4-1.2.4.4c0-.6.3-1.2.7-1.6.4-.4,1.1-.6,1.7-.5,0-.7.3-1.3.8-1.8.9-.8,2.4-.8,3.2.1,0,0,.1.1.1.2h0Z"/><path d="m49.7,237.4l-1-.6c-.5.6-1.2,1-1.9,1.2-1.7.5-3.1-.2-3.5-1.7-.2-.9,0-1.9.6-2.6-.4-.3-.6-.7-.6-1.2-.4-1.4.4-2.6,2-3,1.2-.4,2.4,0,3.1,1l-1.4,1.4c-.3-.5-.8-.7-1.3-.6-.5.2-.7.5-.6.9s.5.6,1,1l1.9,1.3v-1.4l1.8.5c0,.7,0,1.3-.3,1.9l1.4.9-1.2,1.2h0Zm-2.4-1.5l-1.9-1.2h0c-.2.3-.3.6-.2,1,.2.6.6.9,1.4.6.3,0,.6-.2.8-.4h0Z"/><path d="m54.1,234.8l1.8-.7c.1.8.8,1.3,1.6,1.4.9.2,1.2-.2,1.2-.5,0-.5-.4-.8-1.6-1.3-1.2-.5-2.3-1.3-2.1-2.9.2-1.4,1.6-2.4,3.1-2.2,0,0,0,0,0,0,1.3.1,2.4,1,2.8,2.3l-1.8.7c-.1-.6-.7-1.1-1.3-1.2-.6,0-1,.2-1,.5s0,.6,1.4,1.3,2.6,1.2,2.3,3c-.2,1.6-1.7,2.4-3.4,2.1-1.5,0-2.7-1.1-3-2.6h0Z"/><path d="m64.2,234.6l-.7,2c-.2.5.2.7,1,.9l-.6,1.5c-2.3-.6-2.7-1.5-2.1-3l.7-2-.9-.3.6-1.6.9.3.4-1h1.8c0,0-.6,1.7-.6,1.7l1.1.4-.6,1.6-1.1-.4Z"/><path d="m65.6,236.6c.9-1.5,2.9-1.9,4.4-1,1.5.9,1.9,2.9,1,4.4-.9,1.5-2.9,1.9-4.4,1,0,0,0,0,0,0-1.5-.9-1.9-2.8-1-4.3,0,0,0,0,0,0Zm3.8,2.5c.4-.6.3-1.4-.3-1.8,0,0,0,0-.1,0-.6-.4-1.5-.2-1.9.4,0,0,0,0,0,0-.4.6-.3,1.4.3,1.8,0,0,0,0,.1,0,.6.4,1.5.2,1.9-.5,0,0,0,0,0,0h0Z"/><path d="m76.6,241.2l-1.4,1.4c-.4-.7-1.2-.9-1.9-.6-.1,0-.2.1-.3.2l-1.9,1.9-1.3-1.2,4.2-4.2,1.3,1.3-.7.7c.7-.4,1.6-.2,2.1.4Z"/><path d="m80.8,247.6l-5,3.2-1-1.5.5-.3c-.7-.2-1.2-.6-1.6-1.1-.8-1.4-.3-3.2,1.1-4.1,0,0,0,0,0,0,1.4-.9,3.3-.6,4.2.7.4.6.5,1.3.3,1.9l.5-.3,1,1.5Zm-3.5,0c.7-.4.9-1.2.6-1.9,0,0,0,0,0-.1-.4-.6-1.2-.9-1.8-.5,0,0-.1,0-.2.1-.7.4-.9,1.2-.6,1.9,0,0,0,0,0,.1.3.7,1.1.9,1.8.6,0,0,.1,0,.2-.1h0Z"/><path d="m83.6,255.8l-5.4,1.6c-1.9.6-3.2-.7-3.6-2.2-.4-1.1-.1-2.3.6-3.1l1.3,1.2c-.4.4-.5,1-.3,1.5,0,.7.7,1.1,1.4,1,0,0,.2,0,.2,0l.6-.2c-.6-.3-1.1-.8-1.2-1.4-.4-1.6.5-3.2,2.1-3.7,1.5-.5,3.2.3,3.7,1.9,0,0,0,0,0,.1.2.6.1,1.3-.2,1.9l.6-.2.5,1.7h-.2Zm-3.3-.9c.7-.2,1.2-.9,1-1.6,0,0,0,0,0-.1-.2-.8-1-1.2-1.8-1-.7.2-1.2.9-1,1.6,0,0,0,0,0,.1.2.8,1,1.3,1.8,1.1h0Z"/><path d="m79.3,261.2c0,.4.2.8.5,1.1l-.8,1.4c-.8-.6-1.3-1.6-1.3-2.6-.3-1.7.8-3.4,2.6-3.7s3.4.8,3.7,2.6c0,.3,0,.7,0,1,0,1.7-1.3,3-3,3,0,0,0,0-.1,0h-.7v-4.2c-.6.2-.9.8-.9,1.4Zm2.2,1.1c.6-.1,1-.7,1-1.3,0-.6-.4-1.2-1-1.3v2.6Z"/><path class="cls-39" d="m294.5,55.2c2.6-.1,5.1.8,7,2.6.5.3.6,1,.2,1.4-.3.4-.9.4-1.4,0-1.5-1.4-3.4-2.2-5.5-2.1-1.7,0-3.3.7-4.6,1.8-.1.2-.3.3-.5.4-.4.3-1,.2-1.3-.2,0,0,0,0,0,0-.3-.4-.3-.9,0-1.2.5-.5,1.1-.9,1.7-1.3,1.3-.9,2.8-1.4,4.4-1.4h0Z"/><path class="cls-12" d="m294.9,58.6c1.8,0,3.5.6,4.7,1.8.6.5.6,1,.2,1.4-.4.4-1,.4-1.4,0,0,0,0,0,0,0-1.9-1.8-4.8-1.8-6.8,0-.6.5-1,.5-1.4,0s-.3-1,.2-1.4c1.2-1.1,2.8-1.8,4.5-1.8h0Z"/><path class="cls-12" d="m295,62c1.1,0,2.1.4,2.9,1.1.4.3.5.9.2,1.3h0c-.3.4-.9.5-1.3.2,0,0,0,0,0,0h0c-.9-.9-2.4-.9-3.3,0-.3.4-.8.4-1.2.1,0,0,0,0-.1-.1h0c-.3-.5-.2-1.1.2-1.4,0,0,0,0,0,0h0c.8-.7,1.8-1.1,2.8-1.1h-.2Z"/><path class="cls-59" d="m311.6,82.1c-1.2-4.3,2.6-13.3-3.9-13.8h-24.9c-7,.2-3.1,9.5-4.3,13.8v5.4c1.2,4.3-2.6,12.9,3.7,13.8h25.7c6.3-.8,2.6-9.6,3.8-13.8v-5.4Z"/><circle class="cls-4" cx="295" cy="72.1" r="36.2"/><path d="m276,58l-1,1.8-4.6-2.6,2.2,3.9v.2l-4.6.2,4.6,2.6-1,1.8-7.9-4.4,1-1.8,4.7-.2-2.3-4.1,1-1.8,7.9,4.4h0Z"/><path d="m274.2,55.4c-1.2-1.4-1.1-3.5.3-4.8,0,0,0,0,0,0,1.4-1.2,3.6-1.1,4.8.3,1.2,1.4,1.1,3.6-.3,4.8s-3.6,1.1-4.8-.3h0Zm3.7-3.2c-.6-.6-1.5-.6-2,0-.6.6-.6,1.5,0,2,.5.6,1.4.6,2,0,.6-.5.7-1.3.3-1.9,0,0-.1-.1-.2-.2h0Z"/><path d="m284.2,42.1l3.7,8.2-1.8.8-.2-.6c-.2.7-.8,1.3-1.4,1.5-1.6.7-3.4,0-4.1-1.6,0,0,0-.1,0-.2-.8-1.6-.2-3.5,1.3-4.3,0,0,0,0,0,0,.7-.3,1.4-.3,2.1,0l-1.3-2.9,1.8-.8Zm.6,6c-.3-.8-1.1-1.1-1.9-.9,0,0,0,0-.1,0-.8.3-1.1,1.2-.8,1.9,0,0,0,.1,0,.2.3.8,1.1,1.1,1.9.9,0,0,0,0,.1,0,.8-.3,1.1-1.2.8-2,0,0,0,0,0-.1Z"/><path d="m291.7,48.1c.5,0,.9-.2,1.1-.6l1.7.6c-.5,1-1.5,1.6-2.6,1.7-1.8.4-3.6-.8-4-2.6,0,0,0-.2,0-.3-.3-1.8.9-3.5,2.7-3.8,0,0,.1,0,.2,0,1.7-.3,3.4.9,3.7,2.7,0,0,0,.2,0,.2v.8l-4.5.6c.3.6,1,.9,1.7.6h0Zm.9-2.5c-.2-.6-.9-1-1.5-.8-.7,0-1.2.6-1.3,1.2l2.7-.4h0Z"/><path d="m305.6,47.1l-.8,3.9-1.8-.4.8-3.7c.2-.6,0-1.1-.7-1.2s-1,.2-1.2,1l-.7,3.5-1.8-.4.8-3.7c.2-.6,0-1.1-.7-1.2s-1,.2-1.2,1l-.7,3.5-1.8-.4,1.4-6.3,1.8.4-.2.6c.5-.4,1.2-.6,1.8-.4.7.1,1.2.6,1.4,1.2.6-.5,1.3-.6,2-.5,1.4.3,2.2,1.5,1.8,3.1h-.2Z"/><path d="m307.8,47.5l4.2,2.5-1,1.6-4.1-2.5.9-1.6Z"/><path d="m316,58.3l-.6-.6-1,1-1.4-1.5,1-1-2.9-2.9,1.4-1.4,6-1.9,1.5,1.6-6,1.9,1.3,1.4,1.4-1.4,1.4,1.5-1.4,1.4.6.6-1.4,1.4h0Z"/><path d="m322.8,65.7c-2,1.1-4.5.4-5.6-1.6,0-.2-.2-.3-.2-.5-1.2-2.3-.4-5.1,1.9-6.3,2.3-1.2,5.1-.4,6.3,1.9,0,0,.1.2.2.3.7,1.4.7,3.1-.2,4.4l-1.7-1.1c.7-1.3.1-3-1.2-3.6-.8-.4-1.6-.4-2.4,0-1.3.6-1.9,2.1-1.3,3.5,0,0,0,.2.1.2.4.9,1.3,1.5,2.2,1.4l-1-2.2,1.6-.8,1.9,4.1-.7.3h.2Z"/><path d="m293.2,85.9v3.7h-1.6v2.4h-4v-2.4h-6.9v-3.7l4.7-9.6h4.4l-4.7,9.6h2.5v-2.8h4v2.8h1.7Z"/><path d="m310.3,83v1.6c.2,4.1-3,7.6-7.1,7.8-.2,0-.5,0-.7,0-2.2,0-4.4-.8-6-2.3-1.5-1.5-2.4-3.6-2.3-5.8,0-2.2.8-4.3,2.3-5.9,1.5-1.6,3.7-2.5,5.9-2.4,1.4-.1,2.8.2,4,1,1.2.6,2.2,1.5,2.9,2.6l-3.4,1.9c-.4-.5-.8-.9-1.4-1.2-.6-.3-1.4-.5-2.1-.5-1.1,0-2.2.4-3.1,1.2-.8.8-1.3,2-1.2,3.1,0,1.1.4,2.3,1.2,3.1.9.9,2.1,1.3,3.3,1.3,1.5,0,2.9-.8,3.6-2.1h-3.8v-3.5h7.8Z"/><circle class="cls-4" cx="352.1" cy="150.4" r="36"/><path class="cls-38" d="m332.3,143.5v-5.9c0-.2,0-.3.3-.3h8.9v1.8q0,.6.6.6h19.9c.4,0,.5-.2.5-.5v-1.9h9c0,.2.2.3.2.5v5.4c0,.3-.2.5-.5.5h-1.1c-.9,0-1.5.8-1.4,1.7,0,.8.7,1.4,1.5,1.4h1.1q.5,0,.5.6v19.4c0,.5,0,.6-.6.6h-1.1c-.9,0-1.5.8-1.5,1.6s.7,1.5,1.5,1.5h1.1c.5,0,.6,0,.6.6v5.3c0,.2,0,.4-.2.5h-9v-1.9c0-.3-.2-.5-.5-.5h-20.2c-.4,0-.5.2-.5.5v1.9h-8.9c-.2,0-.3,0-.3-.3v-6.1h1.6c.9,0,1.5-.7,1.5-1.5s-.6-1.6-1.5-1.6h-1.1c-.2,0-.4,0-.5-.2v-20.2c.2,0,.3-.2.5-.2h1.1c.9,0,1.5-.8,1.5-1.7s-.6-1.4-1.4-1.5h-1.1c-.2,0-.4,0-.5-.2v.2Zm32.5,15.4h1.4c.5,0,.6-.2.6-.6s-.2-.6-.6-.6h-1.4v-1.4h1.4c.5,0,.7-.2.7-.6s-.2-.6-.7-.6h-1.4v-1.4h1.4c.4,0,.6-.2.6-.6s-.2-.6-.6-.6h-1.4v-1.4h1.4c.5,0,.6-.2.6-.6s-.2-.6-.6-.6h-1.4v-1.4h1.4c.5,0,.6-.2.6-.6s-.2-.6-.6-.6h-1.4v-1.4h1.4c.5,0,.7-.2.7-.6s-.2-.6-.7-.6h-1.4c0-1,0-1-1-1v-1.4c0-.5-.2-.6-.6-.6s-.6.2-.6.6v1.4h-1.4v-1.4c0-.5-.2-.7-.6-.7s-.6.2-.6.7v1.4h-1.4v-1.4c0-.5-.2-.7-.6-.7s-.6.2-.6.7v1.4h-1.4v-1.4c0-.5-.2-.7-.6-.7s-.6.2-.6.7v1.4h-1.4v-1.4c0-.5-.2-.7-.6-.7s-.6.2-.6.6v1.4h-1.4v-1.4c0-.5-.2-.7-.6-.7s-.6.2-.6.7v1.4h-1.4v-1.4c0-.5-.2-.7-.6-.7s-.6.2-.6.7v1.4h-1.4v-1.4c0-.5-.2-.7-.6-.7s-.6.2-.6.7v1.4h-1.4v-1.4c0-.5-.2-.7-.6-.7s-.6.2-.6.7v1.4h-1.4v-1.4c0-.5-.2-.7-.6-.7s-.6.2-.6.7v1.4c-1,0-.9,0-.9,1h-1.4c-.5,0-.7.2-.6.6s.2.6.6.6h1.4v1.4h-1.4c-.5,0-.7.2-.7.6s.2.6.7.6h1.4v1.4h-1.4c-.5,0-.7.2-.7.6s.2.6.7.6h1.4v1.4h-1.5c-.4,0-.7.2-.7.6s.2.6.7.6h1.5v1.4h-1.4c-.5,0-.6.2-.6.6s.2.6.6.6h1.4v1.4h-1.4c-.5,0-.7.2-.7.6s.2.6.7.6h1.4v1.4h-1.4c-.5,0-.7.2-.7.6s.2.6.7.6h1.4v1.4h-1.4c-.5,0-.6.2-.6.6s.2.6.6.6h1.4v1.4h-1.4c-.5,0-.6.2-.6.6s.2.6.6.6h1.4v1.4h-1.4c-.5,0-.7.2-.7.6s.2.6.7.6h1.4c0,1,0,.9,1,1v1.4c0,.5.2.6.6.6s.6-.2.6-.6v-1.4h1.4v1.4c0,.5.2.7.6.7s.6-.2.6-.7v-1.4h1.4v1.4c0,.5.2.7.6.7s.6-.2.6-.7v-1.4h1.4v1.4c0,.5.2.6.6.6s.6-.2.6-.6v-1.4h1.4v1.4c0,.5.2.6.6.6s.6-.2.6-.6v-1.4h1.4v1.4c0,.5.2.7.6.7s.6-.2.6-.7v-1.4h1.4v1.4c0,.5.2.6.6.6s.6-.2.6-.6v-1.4h1.4v1.4c0,.5.2.6.6.6s.6-.2.6-.6v-1.4h1.4v1.4c0,.5.2.6.6.6s.6-.2.6-.6v-1.4h1.4v1.4c0,.5.2.7.6.7s.6-.2.6-.7v-1.4c1,0,.9,0,1-1h1.4c.5,0,.6-.2.6-.6s-.2-.6-.6-.6h-1.4v-1.4h1.4c.5,0,.7-.2.7-.6s-.2-.6-.7-.6h-1.4v-1.4h1.4c.5,0,.7-.2.7-.6s-.2-.6-.7-.6h-1.4v-1.4h1.4c.5,0,.6-.2.6-.6s-.2-.6-.6-.6h-1.4v-1.4h0Zm-29.3-17.4c.6,0,1.2-.6,1.2-1.2h0c0-.6-.6-1.2-1.2-1.2s-1.1.6-1.1,1.3.5,1,1.1,1.1h0Zm34.2-1.2c0-.6-.6-1.2-1.2-1.2s-1.2.6-1.2,1.2.6,1.2,1.2,1.2,1.2-.5,1.2-1.1h0Zm-35.3,33.5c0,.6.6,1.2,1.2,1.2s1.2-.6,1.2-1.2h0c0-.6-.6-1.2-1.2-1.2h0c-.6,0-1.2.6-1.2,1.2h0Zm35.3,0c0-.6-.6-1.2-1.2-1.2h0c-.6,0-1.2.6-1.2,1.2s.6,1.2,1.2,1.2,1.2-.6,1.2-1.2Z"/><path class="cls-31" d="m360.1,139.6h-18q-.6,0-.6-.6v-1.8h18.7v2.4h0Z"/><path class="cls-31" d="m341.4,176.8v-1.9c0-.3.2-.5.5-.5h18.2v2.4h-18.7,0Z"/><path class="cls-36" d="m360.1,139.6v-2.4h2.4v1.9c0,.3-.2.5-.5.5h-1.9Z"/><path class="cls-36" d="m360.2,176.8v-2.4h1.9c.3,0,.5.2.5.5v1.9h-2.4Z"/><path class="cls-28" d="m342.7,169.8h-2.5c-1,0-.9,0-1-1v-23.6c0-1,0-.9,1-1h22.1v2.6c0,0-.2-.2-.4-.2h-19.6q-.6,0-.6.6v19.4q0,.6.6.6h19.6c.2,0,.3,0,.4-.2v2.6h-19.6Z"/><path class="cls-37" d="m362.3,146.8v-2.6h1.5c1,0,.9,0,1,1v23.6c0,1,0,.9-1,1h-1.4v-23h0Z"/><path class="cls-34" d="m335.5,141.5c-.6,0-1.1-.6-1.1-1.3s.5-1,1.1-1.1c.6,0,1.2.6,1.2,1.2s-.6,1.2-1.2,1.2h0Z"/><path class="cls-34" d="m369.6,140.3c0,.6-.5,1.2-1.2,1.2h0c-.6,0-1.2-.6-1.2-1.2s.6-1.2,1.2-1.2,1.2.6,1.2,1.2Z"/><path class="cls-51" d="m334.3,173.9c0-.6.5-1.2,1.1-1.2h0c.6,0,1.2.6,1.2,1.2h0c0,.6-.6,1.2-1.2,1.2s-1.2-.6-1.2-1.2h0Z"/><path class="cls-51" d="m369.6,173.8c0,.6-.5,1.2-1.2,1.2h0c-.6,0-1.2-.6-1.2-1.2s.6-1.2,1.2-1.2,1.2.5,1.2,1.2h0Z"/><path class="cls-58" d="m343.9,144.3h-1.1v-1.4c0-.5.2-.7.6-.7s.6.2.6.7v1.4Z"/><path class="cls-64" d="m364.7,156.3v-1.2h1.4c.5,0,.7.2.7.6s-.2.6-.7.6h-1.4Z"/><path class="cls-64" d="m351.3,144.3h-1.1v-1.4c0-.5.2-.7.6-.7s.6.2.6.7v1.4Z"/><path class="cls-64" d="m353.8,144.3h-1.1v-1.4c0-.5.2-.7.6-.7s.6.2.6.7v1.4Z"/><path class="cls-64" d="m339.3,155.2v1.2h-1.4c-.5,0-.7-.2-.6-.6s.2-.6.6-.6h1.4Z"/><path class="cls-58" d="m364.7,166.3v-1.2h1.4c.5,0,.7.2.7.6s-.2.6-.7.6h-1.4Z"/><path class="cls-64" d="m364.7,158.8v-1.2h1.4c.5,0,.6.2.6.6s-.2.6-.6.6h-1.4Z"/><path class="cls-58" d="m339.3,165.1v1.2h-1.4c-.5,0-.6-.2-.6-.6s.2-.6.6-.6h1.4Z"/><path class="cls-58" d="m339.3,147.7v1.2h-1.4c-.5,0-.7-.2-.7-.6s.2-.6.7-.6h1.4Z"/><path class="cls-58" d="m364.7,148.9v-1.2h1.4c.5,0,.6.2.6.6s-.2.6-.6.6h-1.4Z"/><path class="cls-64" d="m339.3,157.7v1.1h-1.4c-.5,0-.7-.2-.7-.6s.2-.6.7-.6h1.4Z"/><path class="cls-58" d="m342.7,169.8h1.1v1.4c0,.5-.2.7-.6.7s-.6-.2-.6-.7v-1.4Z"/><path class="cls-64" d="m350.2,169.8h1.1v1.4c0,.5-.2.6-.6.6s-.6-.2-.6-.6v-1.4Z"/><path class="cls-64" d="m352.7,169.8h1.1v1.4c0,.5-.2.7-.6.7s-.6-.2-.6-.7v-1.4Z"/><path class="cls-58" d="m360.1,169.8h1.1v1.4c0,.5-.2.6-.6.6s-.6-.2-.6-.6v-1.4Z"/><path class="cls-58" d="m361.2,144.3h-1.1v-1.4c0-.5.2-.7.6-.7s.6.2.6.7v1.4Z"/><path class="cls-63" d="m339.3,152.7v1.1h-1.5c-.4,0-.7-.2-.7-.6s.2-.6.7-.6h1.5Z"/><path class="cls-63" d="m364.7,153.9v-1.1h1.4c.5,0,.6.2.6.6s-.2.6-.6.6h-1.4Z"/><path class="cls-63" d="m355.1,169.8h1.1v1.4c0,.5-.2.6-.6.6s-.6-.2-.6-.6v-1.4Z"/><path class="cls-63" d="m339.3,160.2v1.2h-1.4c-.5,0-.7-.2-.7-.6s.2-.6.7-.6h1.4Z"/><path class="cls-63" d="m364.7,161.4v-1.2h1.4c.5,0,.6.2.6.6s-.2.6-.6.6h-1.4Z"/><path class="cls-63" d="m348.8,144.3h-1.1v-1.4c0-.5.2-.7.6-.7s.6.2.6.7v1.4Z"/><path class="cls-63" d="m356.3,144.3h-1.1v-1.4c0-.5.2-.7.6-.7s.6.2.6.7v1.4Z"/><path class="cls-63" d="m347.6,169.8h1.1v1.4c0,.5-.2.6-.6.6s-.6-.2-.6-.6v-1.4Z"/><path class="cls-57" d="m339.3,167.7v1.1h-1.4c-.5,0-.7-.2-.7-.6s.2-.6.7-.6,1,0,1.4,0Z"/><path class="cls-57" d="m364.7,168.8v-1.2h1.4c.5,0,.6.2.6.6s-.2.6-.6.6h-1.4Z"/><path class="cls-57" d="m364.7,146.4v-1.2h1.4c.5,0,.7.2.7.6s-.2.6-.7.6h-1.4Z"/><path class="cls-63" d="m345.2,169.8h1.1v1.4c0,.5-.2.7-.6.7s-.6-.2-.6-.7v-1.4Z"/><path class="cls-63" d="m364.7,151.4v-1.1h1.4c.4,0,.6.2.6.6s-.2.6-.6.6h-1.4Z"/><path class="cls-63" d="m339.3,150.2v1.1h-1.4c-.5,0-.7-.2-.7-.6s.2-.6.7-.6h1.4Z"/><path class="cls-63" d="m339.3,162.7v1.2h-1.4c-.5,0-.6-.2-.6-.6s.2-.6.6-.6h1.4Z"/><path class="cls-63" d="m364.7,163.9v-1.2h1.4c.5,0,.7.2.7.6s-.2.6-.7.6h-1.4Z"/><path class="cls-57" d="m340.2,169.8h1.1v1.4c0,.5-.2.6-.6.6s-.6-.2-.6-.6v-1.4Z"/><path class="cls-57" d="m339.3,145.2v1.2h-1.5c-.4,0-.6-.2-.6-.6s.2-.6.6-.6h1.5Z"/><path class="cls-57" d="m363.8,144.3h-1.2v-1.4c0-.5.2-.6.6-.6s.6.2.6.6v1.4h0Z"/><path class="cls-57" d="m362.6,169.8h1.2v1.4c0,.5-.2.7-.6.7s-.6-.2-.6-.7v-1.4h0Z"/><path class="cls-63" d="m358.7,144.3h-1.1v-1.4c0-.5.2-.7.6-.7s.6.2.6.7v1.4Z"/><path class="cls-63" d="m346.3,144.3h-1.1v-1.4c0-.5.2-.7.6-.7s.6.2.6.7v1.4Z"/><path class="cls-57" d="m341.3,144.3h-1.1v-1.4c0-.5.2-.7.6-.7s.6.2.6.7v1.4Z"/><path class="cls-63" d="m357.6,169.8h1.1v1.4c0,.5-.2.6-.6.6s-.6-.2-.6-.6v-1.4Z"/><path class="cls-61" d="m359.9,167.4h-17.6q-.6,0-.6-.6v-19.4q0-.6.6-.6h17.6v20.7h0Zm-.8-16.6h0v-1.8c0-.3-.2-.6-.6-.6h0c-.3,0-.6.2-.6.6h0v2.5c0,.6,0,.5-.6.6-.3,0-.4,0-.4-.4v-2.6c0-.4-.2-.6-.6-.6s-.6.2-.6.6h0v3.5c0,.5.2.6.7.6h1.8c.5,0,.7-.2.7-.7v-1.7.2Zm-6.8,0v1.8c0,.4.2.6.6.7s.6-.2.6-.6v-.9q0-.2.2-.2h1.1c.3,0,.6-.2.7-.6v-1.8c0-.6-.2-.7-.7-.7h-1.7c-.6,0-.8.2-.8.8v1.6h0Zm-3.5,0v1.8c0,.3.2.6.5.6h2c.4,0,.7-.2.7-.6s-.2-.6-.7-.6h-1.1c-.2,0-.2,0-.2-.2v-2c0-.2,0-.2.2-.2h1.1c.4,0,.6-.2.6-.6s-.2-.6-.6-.6h-1.9c-.3,0-.6.2-.6.5v1.8h0v.2Zm-4.5,15.5h1c.2,0,.3,0,.4-.2,0-.2,0-.3-.2-.4l-2.2-2c0-.2-.2-.2-.4,0-.2,0-.2.2-.2.3v2c0,.2,0,.3.3.4h1.1Z"/><path class="cls-10" d="m359.9,167.4v-20.6h2c.2,0,.3,0,.4.2v20.3c0,0-.2.2-.4.2h-2Z"/><path class="cls-55" d="m359.1,150.7v1.7c0,.6-.2.7-.7.7h-1.8c-.5,0-.7-.2-.7-.6v-3.4c0-.3.2-.6.5-.6h0c.3,0,.6.2.6.6v2.6c0,.3,0,.4.4.4.6,0,.6,0,.6-.6v-2.5c0-.3.2-.6.6-.6h0c.3,0,.6.2.6.6h0v1.8h0v-.2Z"/><path class="cls-55" d="m352.3,150.7v-1.6c0-.6.2-.7.8-.8h1.8c.5,0,.7.2.7.7v1.6c0,.3-.2.6-.6.7h-1.3q-.2,0-.2.2v.9c0,.4-.2.6-.6.6s-.6-.2-.6-.7v-1.8h0Zm1.6-.5c.2,0,.5,0,.5-.3s-.2-.4-.5-.3-.5,0-.5.3.2.4.5.3h0Z"/><path class="cls-55" d="m348.8,150.7v-1.7c0-.3.2-.6.5-.6h2.1c.4,0,.6.2.6.6s-.2.6-.6.6-.8,0-1.1,0-.2,0-.2.2v2c0,.2,0,.2.2.2h1.1c.4,0,.7.2.7.6s-.2.6-.7.6h-1.8c-.3,0-.6-.2-.6-.5v-2.1Z"/><path class="cls-73" d="m344.3,166.3h-1.1c-.2,0-.3,0-.4-.3h0v-2c0-.2,0-.3.2-.3s.3,0,.4,0l2.2,2c.2,0,.2.2.2.4s-.2.2-.4.2h-1,0Z"/><path class="cls-58" d="m353.9,150.2c-.2,0-.5,0-.5-.3s.2-.3.5-.3.5,0,.5.3-.2.3-.5.3Z"/><path d="m337.8,127.4c-1-3.1.7-6.3,3.9-7.3,1.9-.6,3.9-.2,5.4,1.1l-1.8,1.8c-.7-.7-1.8-.9-2.9-.6-1.9.6-2.7,2.2-2.2,4.2s2.2,2.8,4.1,2.2c1.1-.3,1.8-1.1,2.1-2.1l2.5.6c-.5,1.8-1.9,3.3-3.8,3.8-3.2,1-6.3-.7-7.3-3.9h0Z"/><path d="m358.7,123.5c-.2,2.1-2.1,3.7-4.2,3.4l-1.7-.2-.3,3.5-2.6-.2,1-11.1,4.2.4c2.2.2,3.8,2.1,3.5,4.2Zm-2.6-.2c0-.8-.4-1.5-1.2-1.6l-1.7-.2-.2,2.9,1.7.2c.8,0,1.4-.5,1.5-1.3h0Z"/><path d="m359.9,127.6l3.4-6.8,2.3,1.1-3.3,6.6c-.4.7-.3,1.6.9,2.2,1.2.6,1.9.2,2.2-.6l3.3-6.6,2.3,1.1-3.4,6.8c-1,2.2-3.4,2.6-5.6,1.5-2.2-1.1-3.2-3.2-2.2-5.4h0Z"/><circle class="cls-4" cx="47.9" cy="159.2" r="36"/><path d="m25.6,149.7l-.6,2-5-1.4,3,3.2v.2l-4.3,1.3,5,1.4-.6,2-8.6-2.3.6-2,4.5-1.3-3.2-3.4.6-2,8.6,2.3h0Z"/><path d="m24.3,140.5l5.3,3.6-1.1,1.6-.5-.3c.2.6,0,1.3-.4,1.9-.7,1-2.1,1.4-3.5.5l-3.2-2.2,1.1-1.6,3,2.1c.6.5,1.3.2,1.6-.2.4-.6.3-1.2-.4-1.8l-2.9-2,1.1-1.6h-.2Z"/><path d="m23.9,136.8l1.4-1.4,6.5,6.7-1.4,1.4-6.5-6.7Z"/><path d="m31.9,136.4l1.3,1.8c.3.5.7.2,1.4-.3l1,1.4c-1.9,1.7-3,1.4-4,0l-1.3-1.8-.8.6-1-1.5.8-.6-.7-1,1.3-1.6,1,1.4,1.1-.7,1,1.5-1.1.7h0Z"/><path d="m32.5,131.8c-.2-.6,0-1.3.6-1.5s1.3,0,1.5.6c.2.6,0,1.3-.6,1.5s-1.3,0-1.5-.6Zm1,1.4l1.8-.9,2.8,5.8-1.8.9-2.8-5.8Z"/><path d="m37.7,133.1l4.7-1.3.5,1.8-4.7,1.3-.5-1.8Z"/><path d="m44.1,133c0-1.9,1.4-3.4,3.3-3.4s2.3.6,3,1.6l-1.7,1c-.2-.5-.7-.7-1.3-.7-.8,0-1.4.6-1.4,1.5s.6,1.4,1.5,1.4,1-.3,1.2-.7l1.7.9c-.6,1-1.6,1.7-2.9,1.8-1.9,0-3.4-1.4-3.4-3.3h0Z"/><path d="m58.5,131.4l-1.5,6.2-1.8-.5.2-.6c-.6.4-1.2.5-2,.3-1.6-.4-2.6-2.2-2.2-4,.5-1.8,2.2-3,3.8-2.6.8.2,1.4.6,1.7,1.2l.2-.6,1.8.5h0Zm-2.6,2.6c.2-1-.2-1.7-1.1-1.9-.9-.2-1.6.2-1.8,1.1-.2,1,.2,1.7,1.1,1.9s1.6-.2,1.8-1.1Z"/><path d="m67.8,139.9l-2.2,3.2-1.6-1.1,2.2-3.1c.4-.6.3-1-.2-1.4-.6-.4-1-.2-1.5.4l-2.1,3-1.6-1.1,2.2-3.1c.4-.6.3-1-.2-1.4-.6-.4-1-.2-1.5.4l-2.1,3-1.6-1.1,3.6-5.3,1.6,1.1-.3.5c.5-.2,1.1-.2,1.8.3.6.4.9,1,.9,1.7.6-.2,1.3-.2,2,.3,1.2.8,1.4,2.2.5,3.6l.2.2Z"/><path d="m68.9,145.5c.3.4.7.6,1.1.7l.2,1.8c-1,0-2-.5-2.7-1.5-1.3-1.8-.9-3.8.6-4.9,1.5-1.1,3.5-.9,4.7.8,1.1,1.5.7,3.5-.9,4.6-.2.2-.5.3-.6.4l-2.6-3.7c-.4.6-.2,1.2.2,1.8h0Zm2.6-.4c.5-.6.4-1.2,0-1.7-.4-.6-1-.8-1.6-.6l1.6,2.2Z"/><path d="m77.2,150.5l-2,.8c-.2-.8-.9-1.7-2.1-1.2l-2.6,1.1-.7-1.8,5.9-2.5.7,1.8-1,.4c.9,0,1.6.6,1.9,1.3h0Z"/><path d="m78.7,158.7l-6.3,1-.3-1.9h.6c-.6-.4-1-1-1-1.8-.2-1.7,1-3.3,2.9-3.5,1.9-.3,3.5.8,3.8,2.5.2.9,0,1.5-.5,2h.6c0,0,.3,1.8.3,1.8Zm-3.4-1.4c1-.2,1.4-.9,1.3-1.8-.2-.9-.8-1.4-1.8-1.3s-1.4.9-1.3,1.8c.2.9.8,1.4,1.8,1.3Z"/><path class="cls-30" d="m66.8,168.4v15.4c.2,1.7-1.1,3.1-2.7,3.3h-31.5c-1.8.2-3.4-1.2-3.5-3v-31c0-2.4,1.4-3.7,3.8-3.7h30.4c1.8-.2,3.4,1.2,3.5,3v16h0Zm-20.4,7.8c0-3.4-2.8-6.2-6.2-6.2s-6.2,2.8-6.2,6.2,2.8,6.2,6.2,6.2h0c3.4,0,6.2-2.8,6.2-6.2Zm0-15.8c0-3.4-2.8-6.2-6.2-6.2s-6.2,2.8-6.2,6.2,2.8,6.2,6.2,6.2,6.2-2.6,6.3-6.1v-.2h0Zm9.4,6.2c3.4,0,6.3-2.8,6.3-6.2s-2.8-6.3-6.2-6.3-6.3,2.8-6.3,6.2h0c0,3.4,2.8,6.3,6.2,6.3h0Zm4.8,9.4v-3c0-.9-.5-1.6-1.4-1.8h-6.4c-.8,0-1.5.5-1.7,1.3v6.4c0,.9.6,1.6,1.4,1.7h6.3c.9,0,1.6-.6,1.7-1.4v-3.3h0Z"/><path class="cls-48" d="m46.4,176.2c0,3.4-2.9,6.2-6.3,6.2-3.4,0-6.2-2.9-6.2-6.3,0-3.4,2.8-6.2,6.2-6.2s6.3,2.9,6.2,6.3h0Zm-9.4-.9v.7c0,1.4.9,2.6,2.2,3.1,1.7.6,3.4-.4,4-2.1.3-1,.2-2-.5-2.8-.7-1-1.9-1.4-3.1-1.2-1.9,0-2.6.5-2.6,2.2h0Z"/><path class="cls-48" d="m46.4,160.5c0,3.4-2.8,6.2-6.2,6.2s-6.2-2.8-6.2-6.2,2.8-6.2,6.2-6.2h0c3.4,0,6.2,2.8,6.2,6.2h0Zm-9.2-.6c-.3,1.2,0,2.5,1,3.2,1.1.8,2.6.8,3.7,0,1-.6,1.5-1.8,1.3-3-.2-1.6-1.7-2.8-3.3-2.6h-.4c-1-.3-2.1.2-2.4,1.1-.2.4-.2.9,0,1.3h0Z"/><path class="cls-48" d="m55.8,166.8c-3.4,0-6.2-2.9-6.2-6.3s2.9-6.2,6.3-6.2,6.2,2.9,6.2,6.3-2.9,6.2-6.3,6.2Zm-3-6.9c-.5.8,0,1.5.3,2.2.6,1.2,2,1.8,3.3,1.5,1.2-.2,2.2-1.2,2.5-2.4.3-1.4-.3-2.8-1.6-3.4-.7-.3-1.5-.5-2.3-.4-1.6,0-2.6,1-2.2,2.6Z"/><path class="cls-14" d="m60.5,176.2v3c0,.9-.6,1.6-1.4,1.7h-6.3c-.9,0-1.6-.6-1.7-1.4v-6.4c0-.8.5-1.5,1.3-1.7h6.4c.9,0,1.6.6,1.7,1.4v3.3h0Zm-5.5-.8h3c.6,0,1-.2,1-.9s-.5-.6-1-.6h-2.3c0-.5-.5-.8-1-.9-.8,0-1.5.5-1.8,1.2-.3.5-.2,1,.2,1.4.6.6,1.3.2,1.8-.2,0,0,0,0,0-.2h0Zm.8,3.2h2.3c.4,0,.8-.3.8-.7h0c0-.6-.3-.7-.8-.7h-4.6c-.4,0-.7.2-.8.6v.2c0,.4.3.7.7.7h2.4,0Z"/><path class="cls-68" d="m39.6,173.2c1.2-.3,2.4.2,3.1,1.1,1,1.4.7,3.4-.7,4.4-.8.6-1.8.7-2.8.4-1.3-.5-2.2-1.7-2.2-3.1v-.7c.4.5,1,.7,1.6.6,0,1.5,1,2.2,2.1,1.8.8-.3,1.2-1.2.9-2-.2-.8-1-1.3-1.8-1,.2-.5,0-1-.2-1.4h0Z"/><path class="cls-56" d="m39.6,173.2c.3.4.4,1,.2,1.4-.2.6-.7.9-1.1,1.3-.6.2-1.2,0-1.6-.6,0-1.7.6-2.2,2.6-2.2h0Z"/><path class="cls-68" d="m39.6,157.5c1.6-.4,3.2.6,3.6,2.1v.4c.2,1.2-.3,2.4-1.3,3-1.1.8-2.6.8-3.7,0-1-.7-1.4-1.9-1-3.1.4.3,1,.4,1.5.2,0,1.4,1,2.2,2,1.8.7-.2,1.2-.9,1-1.6,0-1-.8-1.4-1.9-1.4.2-.5.2-1.1-.2-1.5h0Z"/><path class="cls-56" d="m38.6,160.1c-.5.2-1,.2-1.5-.2-.3-1,.2-2.1,1.1-2.4.4-.2.9-.2,1.3,0,.3.4.4,1,.2,1.4-.3.5-.6.8-1.1,1.1h0Z"/><path class="cls-68" d="m55,157.3c.8,0,1.6,0,2.3.4,1.3.6,1.9,2.1,1.6,3.4-.3,1.2-1.3,2.1-2.5,2.3-1.3.2-2.6-.4-3.3-1.5-.3-.6-.8-1.4-.3-2.2.4.2,1,.4,1.4.3,0,.8.2,1.5,1.1,1.7.7.2,1.6,0,1.8-.8.5-1.1-.2-2-1.8-2.2.2-.6,0-1.2-.5-1.6h0Z"/><path class="cls-56" d="m55,157.3c.5.4.7,1,.6,1.6-.3.5-.8,1-1.3,1.3-.5,0-1,0-1.4-.3-.5-1.5.6-2.6,2.2-2.6Z"/><path class="cls-50" d="m55.8,178.5h-2.3c-.4,0-.7-.2-.8-.6h0c0-.5.2-.8.6-.9h4.7c.5,0,.8,0,.8.6s-.2.8-.7.8h-2.4,0Z"/><path class="cls-17" d="m55,175.4s0,0-.2,0c-.6.4-1.2.7-1.8.2-.4-.3-.5-1-.2-1.4.3-.7,1-1.2,1.8-1.2s.9.4,1,.9c0,.6-.2,1-.5,1.4h0Z"/><path class="cls-50" d="m55,175.4c.3-.4.6-1,.6-1.4h2.4c.5,0,1,0,1,.6s-.3.9-1,.9h-3Z"/><path class="cls-48" d="m38.6,175.9c.4-.4,1-.6,1.1-1.3.8-.2,1.6.2,1.8,1,.3.8,0,1.7-.9,2-1.1.4-2-.3-2.1-1.8Z"/><path class="cls-48" d="m38.6,160.1c.5-.3.8-.6,1.1-1.1,1.1,0,1.8.5,1.9,1.4,0,.7-.3,1.4-1,1.6-1,.4-2-.5-2-1.8Z"/><path class="cls-48" d="m54.3,160.3c.5-.4,1-.8,1.3-1.3,1.5,0,2.2,1,1.8,2.2-.3.7-1.1,1-1.8.8-.9-.2-1.1-.9-1.1-1.7h0Z"/><line class="cls-8" x1="205.3" y1="257.8" x2="205.3" y2="299.8"/><line class="cls-5" x1="205.3" y1="257.8" x2="205.3" y2="289.1"/><polygon class="cls-62" points="197.9 286.9 205.3 299.8 212.8 286.9 197.9 286.9"/><line class="cls-8" x1="172.2" y1="247.2" x2="147.8" y2="281.4"/><line class="cls-5" x1="172.2" y1="247.2" x2="154" y2="272.6"/><polygon class="cls-62" points="149.2 266.5 147.8 281.4 161.4 275.2 149.2 266.5"/><line class="cls-8" x1="151.4" y1="219.3" x2="111.7" y2="232.9"/><line class="cls-5" x1="151.4" y1="219.3" x2="121.9" y2="229.4"/><polygon class="cls-62" points="121.5 221.6 111.7 232.9 126.3 235.8 121.5 221.6"/><line class="cls-8" x1="150.7" y1="184.5" x2="110.5" y2="172.4"/><line class="cls-5" x1="150.7" y1="184.5" x2="120.8" y2="175.5"/><polygon class="cls-62" points="125.1 169 110.5 172.4 120.8 183.3 125.1 169"/><line class="cls-8" x1="170.4" y1="155.8" x2="144.7" y2="122.6"/><line class="cls-5" x1="170.4" y1="155.8" x2="151.3" y2="131.1"/><polygon class="cls-62" points="158.5 128.2 144.7 122.6 146.7 137.4 158.5 128.2"/><line class="cls-8" x1="203.1" y1="143.9" x2="201.5" y2="101.9"/><line class="cls-5" x1="203.1" y1="143.9" x2="201.9" y2="112.6"/><polygon class="cls-62" points="209.5 114.5 201.5 101.9 194.5 115.1 209.5 114.5"/><line class="cls-8" x1="236.7" y1="153.2" x2="259.7" y2="118.1"/><line class="cls-5" x1="236.7" y1="153.2" x2="253.8" y2="127.1"/><polygon class="cls-62" points="258.9 133 259.7 118.1 246.4 124.8 258.9 133"/><line class="cls-8" x1="258.5" y1="180.3" x2="297.7" y2="165.2"/><line class="cls-5" x1="258.5" y1="180.3" x2="287.7" y2="169"/><polygon class="cls-62" points="288.3 176.8 297.7 165.2 282.9 162.8 288.3 176.8"/><line class="cls-8" x1="260.5" y1="215" x2="301.2" y2="225.5"/><line class="cls-5" x1="260.5" y1="215" x2="290.8" y2="222.8"/><polygon class="cls-62" points="286.8 229.5 301.2 225.5 290.5 215 286.8 229.5"/><line class="cls-8" x1="242" y1="244.5" x2="269" y2="276.7"/><line class="cls-5" x1="242" y1="244.5" x2="262.1" y2="268.4"/><polygon class="cls-62" points="254.9 271.5 269 276.7 266.4 261.9 254.9 271.5"/></svg>