<?xml version="1.0" encoding="UTF-8"?><svg id="Layer_1" xmlns="http://www.w3.org/2000/svg" viewBox="0 0 400 400"><defs><style>.cls-1{stroke:#a5262d;}.cls-1,.cls-2{stroke-width:4px;}.cls-1,.cls-2,.cls-3{fill:none;stroke-miterlimit:10;}.cls-4{fill:#fff;}.cls-5{fill:#57575e;}.cls-6{fill:#90b9e0;}.cls-7{fill:#75e1f7;}.cls-2{stroke:#0018c6;}.cls-8{fill:#d9d9ea;}.cls-9{fill:#fcd303;}.cls-10{fill:#fbe501;}.cls-11{fill:#3b66c8;}.cls-12{fill:#8ac5cd;}.cls-13{fill:#48459c;}.cls-14{fill:#f9f3b1;}.cls-15{fill:#4483e7;}.cls-16{fill:#434348;}.cls-17{fill:#3392f5;}.cls-18{fill:#bfd6e5;}.cls-19{fill:#364a5f;}.cls-20{fill:#06687f;}.cls-21{fill:#90bae0;}.cls-22{fill:#f7cf06;}.cls-23{fill:#d7eafb;}.cls-24{fill:#afd2ef;}.cls-25{fill:#fcd6ac;}.cls-3{stroke:#231f20;stroke-width:2px;}.cls-26{fill:gray;}.cls-27{fill:#275d77;}.cls-28{fill:#424248;}.cls-29{fill:#3b566a;}.cls-30{fill:#b2d3d9;}.cls-31{fill:#ddebf0;}.cls-32{fill:#3f79d4;}.cls-33{fill:#4582c2;}.cls-34{fill:#fc98c7;}.cls-35{fill:#607890;}.cls-36{fill:#cbb293;}.cls-37{fill:#23e6bf;}.cls-38{fill:#e0edf9;}.cls-39{fill:#374b60;}.cls-40{fill:#275d76;}.cls-41{fill:#f0f6f6;}.cls-42{fill:#fcd6ad;}.cls-43{fill:#b3d4da;}.cls-44{fill:#3392f6;}.cls-45{fill:#7dcbe5;}.cls-46{fill:#00d7df;}.cls-47{fill:#637889;}.cls-48{fill:#eecf15;}.cls-49{fill:#8caabd;}.cls-50{fill:#fde6cd;}.cls-51{fill:#88c4cc;}.cls-52{fill:#1d475a;}.cls-53{fill:#e5eff1;}.cls-54{fill:#2f4859;}.cls-55{fill:#33b1cb;}.cls-56{fill:#cbb292;}.cls-57{fill:#bdd5e5;}.cls-58{fill:#304959;}.cls-59{fill:#60acfd;}.cls-60{fill:#ecf6fe;}.cls-61{fill:#3b66c9;}.cls-62{fill:#231f20;}.cls-63{fill:#fce00f;}.cls-64{fill:#90ebfe;}.cls-65{fill:#33b1cc;}.cls-66{fill:#9fddea;}.cls-67{fill:#86cde8;}.cls-68{fill:#e2c8aa;}</style></defs><circle class="cls-1" cx="195.2" cy="198.5" r="45"/><path class="cls-67" d="m165.2,200.8v-.6c.3-.6.9-.7,1.4-.8,1.4-.2,2.5-1.3,2.5-2.7v-.5c.1-.5.5-.8,1-.7.5,0,.9.4.9.8s0,.5.1.8c.2,1.1,1.1,2,2.2,2.2.7.2.7,0,.7-.6v-13.5c0-.5.3-.8.8-.8h30.6c0,.3-.3.4-.5.6-2.4,2.4-4.8,4.8-7.2,7.2s-.4.4-.5.6c-.2.4,0,.9.2,1.2s.8.4,1.2,0c.2,0,.4-.3.5-.5,2.8-2.8,5.6-5.6,8.3-8.3s.5-.6.6-1h3.4c0,.3-.3.4-.5.6l-13.3,13.3-.5.5c-.2.3-.3.7,0,1,.2.3.5.6.9.5.3,0,.6-.2.9-.4l14.6-14.6c.3-.2.5-.6.5-.9h1.1c1,0,.9,0,.9.9v28.3q0,.8.8.6c1.3-.4,2.2-1.5,2.2-2.8s.4-1,1-1,.9.4,1,1c.2,1.7,1.1,2.6,2.8,2.9.5,0,1,.3,1.2.8v.6c-.2.4-.7.7-1.1.7-1.7.2-2.6,1.1-2.8,2.9,0,.3-.2.7-.4.9-.3.2-.6.3-.9,0-.4,0-.6-.5-.6-.9-.2-1.6-.9-2.6-2.3-2.9-.7-.2-.7,0-.7.6v12.6c0,.5-.2.8-.7.8h-21.6c0-.3.3-.4.5-.6l7.5-7.5c.5-.6.6-1.1,0-1.5-.4-.4-1-.4-1.4,0h0c-2.9,3-5.8,5.9-8.7,8.8-.2.2-.4.5-.5.9h-3.4c0-.3.3-.4.5-.6l13.3-13.3c.2-.2.4-.4.5-.6.2-.4.2-.9-.2-1.2-.3-.3-.9-.4-1.2,0,0,0-.2.2-.3.3l-14.6,14.6c-.3.2-.4.6-.5.9h-10.1c-.6,0-.9-.3-.9-.9v-27.5c0-.7,0-.8-.7-.6-1.3.4-2.1,1.3-2.3,2.9,0,.6-.4,1-1,1s-1-.5-1-1v-.3c-.1-1.4-1.3-2.5-2.7-2.6-.5,0-1-.3-1.3-.7h-.2Zm5,.6c.3-.2.7-.5.9-.9-.3-.4-.6-.7-.9-1-.3.2-.6.5-.9.9.2.3.5.6.9.9h0Zm50.9,14.2c-.2-.4-.5-.7-.9-.9-.4.3-.7.6-.9.9l.9.9.9-.9h0Z"/><path class="cls-65" d="m211.6,184.6c.3,0,.5-.3.7-.6.8-.8,1.6-.6,1.9.5,0,.4-.3.7-.5.9l-14.6,14.6c-.2.3-.5.4-.9.4s-.7-.2-.9-.5-.2-.7,0-1c0-.2.3-.4.5-.5l13.3-13.3c.2-.2.4-.3.5-.6h0Z"/><path class="cls-55" d="m187.8,230.4c-.3,0-.5.4-.8.6-.8.7-1.6.5-1.8-.6,0-.3.2-.7.5-.9l14.6-14.6s.2-.2.3-.3c.4-.3.9-.2,1.2,0,.4.3.4.8.2,1.2,0,.2-.3.4-.5.6l-13.3,13.3c-.2.2-.4.3-.5.6h0Z"/><path class="cls-65" d="m205.5,184.6c.2,0,.4-.2.6-.4,1-1,1.6-.8,2.1.4,0,.4-.3.8-.6,1l-8.3,8.3-.5.5c-.4.3-.9.2-1.2,0-.4-.3-.5-.8-.2-1.2,0-.2.3-.5.5-.6,2.4-2.4,4.8-4.8,7.2-7.2s.4-.3.5-.6h0Z"/><path class="cls-65" d="m193.8,230.5c-.3,0-.5.3-.7.6-.8.8-1.6.5-1.9-.5,0-.3.2-.6.5-.8,2.9-2.9,5.8-5.8,8.7-8.7.3-.5.9-.6,1.4-.2h0c.4.5.4,1.1,0,1.6l-7.5,7.5c-.2.2-.4.3-.4.6h0Z"/><path d="m183.5,168.3c2.2,3.4,1.2,7.1-1.9,9.1-3.5,2.3-7.7,1.3-9.8-1.9-2.1-3.3-1.2-7.5,2.1-9.7,2.1-1.4,4.6-1.5,6.6-.6l-1.4,2.7c-.9-.4-2.3-.4-3.6.5-1.9,1.2-2.4,3.5-1.1,5.5,1.2,1.9,3.5,2.4,5.7,1,1.5-1,2-2.3,1.7-3.6l-3,1.9-1.5-2.2,5.6-3.7.6,1Z"/><path d="m184.4,160.6l2.8-.7,3.5,13.5-2.8.7-3.5-13.5Z"/><path d="m201.9,163.4l-.2,9.6h-2.9v-1c-.6.7-1.6,1.1-2.9,1.1-2.5,0-4.5-2.3-4.5-5.1s2.2-5,4.7-4.9c1.3,0,2.2.5,2.8,1.2v-.9h3Zm-3,4.7c0-1.4-.9-2.4-2.2-2.4s-2.3.8-2.3,2.3.9,2.4,2.2,2.4,2.3-.8,2.3-2.3Z"/><path d="m210.6,173.3c-.8,2.1-2.9,2.3-4.8,1.6-1.8-.7-2.9-1.9-3.1-3.6l2.8-.5c0,.8.3,1.3,1.1,1.6.6.2,1,.2,1.2-.2.4-1-4.2-2.1-3.1-5.2.7-2,2.7-2.3,4.6-1.6,1.5.5,2.5,1.7,2.8,3.2l-2.8.4c0-.6-.3-1-.9-1.2-.5-.2-.8-.1-.9.2-.4,1,4.3,2,3.1,5.3Z"/><path d="m217.3,178.1c-1.3,1.8-3.4,1.4-5.1.2-1.5-1.1-2.3-2.6-2-4.3l2.8.3c-.2.7,0,1.4.7,1.9.6.4,1,.4,1.2.1.6-.9-3.5-3.2-1.6-5.8,1.2-1.7,3.3-1.5,4.9-.3,1.3.9,2,2.3,1.8,3.8l-2.8-.4c0-.6,0-1.1-.5-1.4-.4-.3-.8-.3-1,0-.6.9,3.6,3.1,1.5,5.9h0Z"/><circle class="cls-2" cx="77.8" cy="290.3" r="45"/><path class="cls-29" d="m89.6,270.7c.2.3.5.5.8.7,1.2,1.1,1.8,2.6,1.8,4.2v45.3c0,3.6-1.8,5.7-5.5,6-6,.5-12,.5-18,0-3,0-5.3-2.5-5.2-5.5,0,0,0-.1,0-.2v-45.6c-.2-3,2.1-5.5,5.1-5.7,0,0,0,0,0,0,5.3-.4,10.5-.4,15.8-.2.4,0,.7,0,1.1.1,1.4,0,2.8.2,4.1.7v.2Zm-10.9,6.6h-11.1c-.7,0-.9.2-.9.9v11.5c0,3.8,0,2.4,2.4,2.3h19.1c.6,0,.7-.2.7-.7v-13.2c0-.5-.1-.8-.7-.8h-9.5Zm2.1,29.5c-2.3,0-2.1,0-2.1,2.2s.3,1,1,1h1.6c1.3,0,1.4,0,1.4-1.3,0-2.2.2-1.9-1.9-1.9Zm-5.9,0h-1.1c-.6,0-1,.2-.8.8.2.8-.7,2.1.8,2.4.8.1,1.5.1,2.3,0,.4,0,.8-.3.9-.7.5-1.9,0-2.5-1.9-2.5h-.2Zm0-4.7c-2.2,0-1.9-.2-2,2v.3c0,.7.3,1,.9,1h2.3c.4,0,.7-.3.8-.7.5-1.9,0-2.5-1.9-2.5h-.1Zm6,0h-1.3c-.5,0-.8.2-.8.7,0,2.3-.2,2.6,2.1,2.5h.5c1.3,0,1.4-.2,1.4-1.4,0-2.1.2-1.9-1.9-1.9h0Zm-.1,12.7h1c.5,0,1-.1,1-.7s.5-1.8-.4-2.5h-2.8c-.4,0-.7.2-.8.6-.5,1.9,0,2.6,2,2.6h0Zm-5.8,0h1c.6,0,1-.2,1-.8s.5-1.8-.4-2.4h-2.8c-.3,0-.7.2-.8.5-.6,1.8,0,2.7,1.9,2.7h.1Zm0-17.4h-.9c-.7,0-1,.2-1,1q0,2.3,2.3,2.3h.8c.5,0,.9-.3.9-.8.4-2,0-2.5-2-2.5h-.1Zm6,0h-1.3c-.5,0-.8.2-.8.8,0,2.3-.2,2.6,2.1,2.5h.5c1.3,0,1.4-.2,1.4-1.4,0-2.1.2-1.9-1.9-1.9h0Zm-11.8,17.4h.8c.9,0,1.2-.3,1.1-1.2,0-2.4.3-2.1-2.1-2.1h-.4c-1.3,0-1.4,0-1.3,1.3,0,1.8-.4,2,1.9,1.9h0Zm17.6-3.3h-.8c-.8-.1-1.1.2-1.1,1.1,0,2.3-.4,2.2,2.2,2.2h.4q1.3,0,1.3-1.3c0-2.2.2-1.9-1.9-1.9h0Zm0-4.7h-1c-.7,0-.9.3-.9,1,0,2.4-.4,2.3,2.3,2.3h.3c1.2,0,1.3-.1,1.3-1.3,0-2.2.2-2-1.9-2h-.1Zm-17.5,0h-.9c-.8,0-1.1.2-1.1,1.1,0,2.3-.4,2.2,2.2,2.2h.4c1.2,0,1.3-.1,1.3-1.4,0-2.1.2-1.9-1.9-1.9h0Zm0-4.7h-.9c-.8,0-1.1.2-1,1,0,2.3-.2,2.3,2.2,2.2h.3c1.3,0,1.4,0,1.4-1.4,0-2.1.2-1.9-1.9-1.9h-.1Zm17.6-4.7h-1c-.7,0-.9.3-.9,1,0,2.4-.2,2.3,2.3,2.3h.3c1.2,0,1.3-.1,1.3-1.3,0-2.2.2-1.9-1.9-2h-.1Zm0,4.7c-2.2,0-1.9-.3-2,2v.2c0,.8.3,1.1,1.1,1.1h1.4c1.2,0,1.3-.1,1.3-1.4,0-2.1.2-1.9-1.9-1.9h0Zm-17.6-4.7h-1c-.7,0-.9.3-.9,1,0,2.4-.2,2.3,2.3,2.3h.3c1.2,0,1.3-.1,1.3-1.3,0-2.2.2-1.9-1.9-2h-.1Zm10.7-22.9c.4,0,.7-.1.6-.6s-.2-.5-.6-.5-.7.1-.6.6.2.5.6.5Zm2.5-.5c0-.4-.2-.5-.6-.5s-.7,0-.7.5.2.5.6.5.7-.1.7-.5Zm-5.8,48.7c0-.3-.2-.6-.4-.6,0,0-.1,0-.2,0-.4,0-.5.3-.5.6s.2.6.5.6c.3,0,.5-.3.5-.6h.1Zm-2.1-49.2c-.3,0-.6.2-.7.5,0,.3.2.6.6.6,0,0,0,0,0,0,.3,0,.5-.1.5-.4h0c0-.4-.1-.6-.5-.6h0Zm2.3.5c0-.4-.2-.5-.6-.5-.3,0-.5.1-.6.4,0,.3.1.5.4.6,0,0,.1,0,.2,0,.4,0,.5-.2.5-.5h.1Zm-.2,44.6c0-.4-.3-.5-.6-.5-.3,0-.5.2-.5.4,0,0,0,0,0,0,0,.4.2.6.5.6s.5-.2.5-.6h.1Zm4-.1c0-.2-.1-.4-.5-.4s-.6.1-.6.5.2.6.5.6.5-.2.5-.7h.1Zm-.4,4.7c.3,0,.4-.2.4-.5,0-.3-.2-.6-.5-.6-.3,0-.5.2-.5.4,0,0,0,.1,0,.2.1.4.2.5.7.5h0Zm-1.6-49.2c0-.4-.3-.5-.6-.5s-.5.2-.4.6.3.5.6.5c.3,0,.5-.3.5-.6h-.1Zm-.5,44.3c.3,0,.5-.2.5-.4,0,0,0,0,0,0,0-.4-.2-.6-.6-.5s-.5.2-.5.6c0,.3.3.5.6.5h0Zm-3,2.9c.3,0,.5-.1.6-.5s-.1-.6-.5-.6-.5.1-.6.5.1.6.5.6h0Zm5.7-1.1c-.2,0-.4.2-.4.4,0,0,0,.1,0,.2,0,.3.2.5.6.4s.5-.3.5-.6c0-.3-.3-.5-.6-.5h-.1Zm-2.8,4c.3,0,.5-.2.5-.4,0,0,0,0,0,0,0-.4-.2-.6-.5-.6-.3,0-.5.2-.5.4,0,0,0,0,0,0,0,.4.2.6.5.6h0Zm-.6-3.1c0-.3-.1-.5-.5-.5-.3,0-.5.2-.5.4,0,0,0,0,0,0,0,.3.1.6.4.6.3,0,.5-.2.6-.5h0Zm.8.4c-.3,0-.5.2-.5.4,0,0,0,0,0,0,0,.3.3.5.6.5h0c.3,0,.4-.3.4-.5,0-.3-.2-.5-.4-.5,0,0,0,0,0,0Zm0-1.9c0-.2-.2-.5-.4-.5-.3,0-.5.2-.6.5,0,.2.1.5.4.5h0c.3,0,.4-.3.5-.5h.1Zm1,1.3c.2,0,.4-.2.4-.4,0-.2,0-.4-.3-.5h-.1c-.3,0-.4.2-.5.4s0,.4.4.4h.1Z"/><path class="cls-51" d="m81.4,277.3h6.8c.6,0,.7.2.7.8v13.2c0,.5-.1.7-.7.7h-15.3c0-.2,0-.4.2-.6,1.9-3.1,3.7-6.2,5.6-9.3,1-1.5,1.9-3.1,2.7-4.8Z"/><path class="cls-51" d="m69.1,291.9c-1.6,0-2.4-.8-2.4-2.3v-11.5c0-.7.2-.9.9-.9h10c-.7,1.5-1.5,2.9-2.4,4.2-2,3.5-4.1,6.9-6.1,10.4h0Z"/><path class="cls-43" d="m81.4,277.3c-.8,1.7-1.7,3.3-2.7,4.8-1.8,3.1-3.7,6.2-5.6,9.3,0,.2-.2.4-.2.6h-1.6c0-.2,0-.4.2-.6,1.6-2.6,3.2-5.3,4.7-7.9,1.2-2.1,2.5-4,3.6-6.2h1.6Z"/><path class="cls-12" d="m79.8,277.3c-1.1,2.1-2.4,4.1-3.6,6.2-1.6,2.7-3.2,5.3-4.7,7.9,0,.2-.2.4-.2.6h-1.1c.5-1.2,1.1-2.3,1.8-3.3,2.2-3.8,4.5-7.6,6.7-11.3h1.1Z"/><path class="cls-30" d="m78.7,277.3c-2.2,3.8-4.5,7.5-6.7,11.3-.7,1-1.3,2.1-1.8,3.3h-1.1c2.1-3.4,4.1-6.9,6.1-10.4.9-1.3,1.7-2.7,2.4-4.2h1.1Z"/><path class="cls-47" d="m80.8,306.8c2.2,0,1.9-.2,1.9,1.9s0,1.3-1.4,1.3h-1.6c-.5,0-.9-.3-1-.8,0,0,0-.1,0-.2,0-2.3-.2-2.3,2.1-2.2Z"/><path class="cls-47" d="m74.8,306.8h0c1.9,0,2.4.6,1.9,2.5,0,.4-.4.8-.9.7,0,0,0,0,0,0-.8,0-1.5,0-2.3,0-1.5-.3-.6-1.6-.8-2.4-.1-.6.2-.9.8-.8h1.3Z"/><path class="cls-47" d="m74.8,302.1h0c1.9,0,2.4.6,1.9,2.5,0,.4-.4.7-.8.7h-2.3c-.6,0-1-.3-.9-1v-.3c0-2.2-.3-2,2-2h.1Z"/><path class="cls-47" d="m80.8,302.1c2.1,0,1.9-.2,1.9,1.9s-.2,1.4-1.4,1.4h-.5c-2.4,0-2.1-.2-2.1-2.5s.3-.7.8-.7h1.3Z"/><path class="cls-47" d="m80.7,314.8c-1.9,0-2.5-.7-2-2.6,0-.4.4-.6.8-.6h2.8c.9.7.4,1.7.4,2.5s-.5.7-1,.7h-1Z"/><path class="cls-47" d="m74.8,314.8c-1.8,0-2.5-1-1.9-2.7,0-.3.4-.6.7-.5,0,0,0,0,0,0h2.8c.9.7.4,1.6.4,2.4s-.4.8-1,.8h-1.1Z"/><path class="cls-47" d="m74.8,297.3h0c2,0,2.4.5,2,2.5,0,.5-.4.7-.9.8h-.8q-2.3,0-2.3-2.3c0-2.3.3-1.1,1-1h1Z"/><path class="cls-47" d="m80.8,297.3c2.1,0,1.9-.2,1.9,1.9s-.2,1.4-1.4,1.4h-.5c-2.4,0-2.1-.2-2.1-2.5s.3-.7.8-.8h1.3Z"/><path class="cls-47" d="m69,314.8c-2.3,0-1.9-.1-1.9-1.9s0-1.3,1.3-1.3h.4c2.4,0,2.1-.3,2.1,2.1s-.3,1.2-1.1,1.2h-.8Z"/><path class="cls-47" d="m86.6,311.5c2.2,0,1.9-.2,1.9,1.9s0,1.3-1.3,1.3h-.4c-2.6,0-2.1,0-2.2-2.2,0-.8.3-1.2,1.1-1.1h.9Z"/><path class="cls-47" d="m86.6,306.8c2.1,0,1.9-.2,1.9,2s-.1,1.3-1.3,1.3h-.3c-2.7,0-2.2.1-2.3-2.3,0-.7.2-1,.9-1h1.1Z"/><path class="cls-47" d="m69,306.8c2.1,0,1.8-.2,1.9,1.9,0,1.2,0,1.4-1.3,1.4h-.4c-2.6,0-2.1,0-2.2-2.2,0-.8.3-1.2,1.1-1.1h.9Z"/><path class="cls-47" d="m69,302.1c2.1,0,1.9-.2,1.9,1.9s0,1.4-1.4,1.4h-.3c-2.4,0-2.1,0-2.2-2.2,0-.8.2-1.1,1-1h1Z"/><path class="cls-47" d="m86.6,297.3c2.1,0,1.9-.2,1.9,2s-.1,1.3-1.3,1.3h-.3c-2.5,0-2.2.1-2.3-2.3,0-.7.2-1,.9-1h1.1Z"/><path class="cls-47" d="m86.6,302.1c2.1,0,1.9-.2,1.9,1.9s-.1,1.4-1.3,1.4h-1.4c-.8,0-1.1-.3-1.1-1.1v-.2c0-2.2-.3-2,2-2h0Z"/><path class="cls-47" d="m69,297.3c2.1,0,1.9-.2,1.9,1.9s-.1,1.3-1.3,1.3h-.3c-2.5,0-2.3.1-2.3-2.3s.2-1,.9-1h1.1Z"/><path class="cls-54" d="m79.7,274.5c-.3,0-.6-.1-.6-.5,0-.3.2-.6.6-.6,0,0,0,0,0,0,.3,0,.6.1.6.5,0,.3-.2.6-.6.6,0,0,0,0,0,0Z"/><path class="cls-54" d="m82.1,274c0,.4-.3.5-.7.5s-.6-.2-.6-.5.3-.5.7-.5.6.2.6.5Z"/><path class="cls-58" d="m76.3,322.6c0,.3-.2.6-.5.6-.3,0-.5-.2-.5-.4,0,0,0-.1,0-.2,0-.3.1-.6.5-.6.3,0,.6.2.6.4,0,0,0,.1,0,.2h-.1Z"/><path class="cls-54" d="m74.2,273.4c.4,0,.5.2.5.6,0,.3-.2.5-.4.5,0,0,0,0,0,0h0c-.4,0-.7-.2-.6-.6s.3-.5.7-.5h0Z"/><path class="cls-54" d="m76.5,273.9c0,.4-.2.6-.5.5-.3,0-.5-.1-.6-.4,0-.3.1-.5.4-.6,0,0,.1,0,.2,0,.3,0,.6.1.6.5h-.1Z"/><path class="cls-54" d="m76.3,318.5c0,.4-.2.6-.5.6s-.5-.2-.5-.6.1-.5.5-.5.6.1.6.5h-.1Z"/><path class="cls-54" d="m80.3,318.4c0,.5-.2.7-.5.7s-.5-.2-.5-.6.3-.5.6-.5c.2,0,.5.2.5.4h-.1Z"/><path class="cls-54" d="m79.9,323.1c-.4,0-.7-.1-.7-.5s.2-.6.5-.6.5.2.5.6-.1.5-.4.5h0Z"/><path class="cls-54" d="m78.3,273.9c0,.3-.1.5-.4.6-.3,0-.6-.1-.6-.5,0-.3.1-.5.4-.6.4,0,.6,0,.6.5Z"/><path class="cls-54" d="m77.8,318.2c-.3,0-.5-.1-.6-.5s.1-.6.5-.6.6.2.6.5c0,.3-.2.5-.4.5,0,0,0,0,0,0h0Z"/><path class="cls-54" d="m74.9,321.1c-.4,0-.5-.2-.5-.6s.2-.5.6-.5.5.2.5.6-.2.5-.6.5Z"/><path class="cls-54" d="m80.6,320c.4,0,.6.1.6.4s-.1.6-.5.6c-.3,0-.5-.1-.6-.4,0-.4.1-.6.4-.6h.1Z"/><path class="cls-54" d="m77.8,316c-.2,0-.4-.2-.4-.4,0-.2.1-.3.4-.3.2,0,.4.1.4.3,0,0,0,0,0,0,0,.2-.1.3-.4.3Z"/><path class="cls-58" d="m77.2,320.9c0,.3-.3.5-.6.5-.3,0-.5-.2-.4-.6s.2-.5.5-.5.4.3.5.5h0Z"/><path class="cls-58" d="m78,321.3c.3,0,.5.2.5.4,0,0,0,0,0,0,0,.3,0,.5-.4.5s-.6-.1-.6-.4h0c0-.3.2-.4.5-.5h0Z"/><path class="cls-58" d="m77.9,319.5c0,.3-.2.5-.5.5-.2,0-.5-.2-.5-.4h0c0-.3.3-.5.6-.5.3,0,.4.2.4.5h0Z"/><path class="cls-54" d="m79,320.7c-.4,0-.5-.2-.4-.4s.2-.5.5-.4c.2,0,.4.2.4.4h0c0,.3-.2.5-.4.5h-.1Z"/><path d="m49.7,303c2.1-1.6,5.1-1.3,6.7.8,0,0,0,0,0,0l2.3,3.2-7.9,5.8-2.3-3.2c-1.6-2.1-1.1-5,1-6.6,0,0,0,0,.1,0Zm1.3,1.7c-1.2.7-1.6,2.2-.9,3.4,0,.1.1.2.2.3l1,1.4,4.4-3.3-1-1.4c-.8-1.2-2.4-1.5-3.6-.6,0,0-.1,0-.2.1h.1Z"/><path d="m45.6,303c-.7.3-1.4,0-1.7-.7-.3-.7,0-1.4.7-1.7.7-.3,1.4,0,1.7.7h0c.3.6,0,1.4-.7,1.7,0,0,0,0,0,0Zm1.6-.9l-.8-1.9,6.4-2.7.8,1.9-6.4,2.7Z"/><path d="m49.2,291.6c1.6-.4,2.6.8,2.9,2.3.4,1.2,0,2.5-.9,3.3l-1.4-1.5c.5-.2.7-.8.5-1.3,0-.5-.3-.7-.6-.6-.8.2.4,3.4-1.9,4-1.5.3-2.5-.7-2.9-2.2-.3-1.1,0-2.2.8-3l1.3,1.5c-.3.3-.5.7-.4,1.1,0,.3.2.5.4.5,0,0,0,0,0,0,.8-.2-.5-3.4,2-4h0Z"/><path d="m47.9,283c1.9,0,3.5,1.5,3.6,3.4,0,0,0,0,0,.1,0,.8-.3,1.6-.9,2.1h3.5v2.2l-9.8-.3v-2.1h.7c-.5-.6-.8-1.3-.8-2.1.1-1.9,1.8-3.3,3.7-3.2,0,0,0,0,.1,0h-.1Zm0,2.1c-.9,0-1.7.6-1.8,1.6,0,0,0,0,0,0,0,.9.5,1.6,1.4,1.7,0,0,.1,0,.2,0,.9,0,1.7-.6,1.8-1.6,0,0,0,0,0,0,.1-.8-.4-1.6-1.2-1.7-.1,0-.2,0-.4,0h0Z"/><path d="m41.9,279.9l.5-2,9.9,2.5-.5,2-9.9-2.5Z"/><path d="m49.3,269.8l6.3,3.1-.9,1.9-.6-.3c.3.7.2,1.5-.2,2.2-1.1,1.7-3.4,2.2-5.1,1.1-1.5-.9-2.1-2.8-1.5-4.4.3-.7.9-1.3,1.7-1.5l-.6-.3.9-1.9h0Zm2.2,3.4c-.8-.4-1.8-.2-2.3.6,0,0,0,0,0,0-.5.8-.2,1.9.7,2.4.8.5,1.9.2,2.4-.7.5-.8.2-1.9-.7-2.4,0,0,0,0,0,0Z"/><path d="m55.5,262.6l3.4,6.4c1.1,2.1.9,3.6-.5,5l-1.4-1.3c.6-.5.8-1.4.3-2.1l-6.8-2.5,1.6-1.7,4.2,1.7-2.3-3.9,1.5-1.7h0Z"/><path d="m69.8,255l.6,7.3-1.8.8-2.5-3,.4,3.9-1.8.8-4.8-5.6,2.1-.9,2.4,3.1-.4-3.9,1.8-.8,2.4,3-.5-3.9,2.1-.9h0Z"/><path d="m71.4,253.1c0-.7.4-1.3,1.1-1.4.7,0,1.3.4,1.4,1.1,0,.7-.4,1.3-1.1,1.4,0,0,0,0,0,0-.7,0-1.3-.4-1.4-1.1,0,0,0,0,0,0Zm.5,1.8l2.1-.3,1,6.9-2.1.3-1-6.9Z"/><path d="m78.8,256.5v2.5c0,.6.5.7,1.4.6v1.9c-2.8.2-3.6-.6-3.5-2.5v-2.5h-1.1v-2h1.1v-1.3l2.1-.6v2h1.4v2h-1.5.1Z"/><path d="m88.4,258.8l-1,4.2-2-.5.9-3.9c.2-.6,0-1.2-.6-1.4,0,0-.2,0-.3,0-.6-.2-1.3.1-1.5.8,0,.1,0,.2,0,.3l-.9,3.7-2-.5,2.3-9.5,2,.5-.8,3.4c.6-.4,1.4-.6,2.1-.4,1.4.3,2.3,1.7,2,3.1,0,0,0,.2,0,.3Z"/><path d="m94.6,267.4v-3.8l-1.8,2.5-1.7-1.2,5.8-7.9,1.7,1.2-3.5,4.7,3.5-1.2,2,1.5-4.1,1.3v4.4l-1.9-1.4h0Z"/><path d="m99.8,270.4c.3.4.8.7,1.3.7l.3,1.9c-1.2,0-2.3-.5-3-1.5-1.4-1.4-1.3-3.7.1-5.1,0,0,.2-.2.3-.2,1.5-1.3,3.7-1.1,5,.3,0,0,.2.2.2.3,1.2,1.5,1,3.8-.5,5,0,0,0,0-.1,0-.2.2-.5.3-.7.5l-3.1-3.9c-.4.6-.2,1.4.3,1.9h0Zm2.8-.6c.4-.6.4-1.3,0-1.9-.4-.6-1.2-.8-1.8-.5l1.9,2.3h0Z"/><path d="m109.9,277.6l-7.2.6c-2.4.2-3.7-.6-4.4-2.4l1.8-.8c.2.8,1,1.3,1.8,1.1l4.9-5.3,1,2.1-3.3,3.2,4.4-.6.9,2h.1Z"/><path d="m108.1,287.5c-1.9.4-3.7-.8-4.1-2.7,0,0,0,0,0-.1-.2-.8,0-1.6.5-2.2l-3.4.5-.3-2.1,9.7-1.4.3,2.1h-.7c.6.5,1,1.2,1.1,2,.2,1.9-1.2,3.6-3.1,3.8,0,0,0,0-.1,0h0Zm-.3-2.1c.9,0,1.5-.8,1.4-1.7,0,0,0-.1,0-.2,0-.8-.8-1.5-1.6-1.4-.1,0-.2,0-.3,0-.9,0-1.5.8-1.4,1.7,0,0,0,.1,0,.2,0,.8.8,1.5,1.6,1.4.1,0,.2,0,.3,0h0Z"/><path d="m110.4,296.7l-6.9-1.1.3-2.1h.6c-.5-.6-.7-1.4-.5-2.1.5-2,2.6-3.1,4.6-2.6,1.7.5,2.8,2,2.7,3.8,0,.8-.5,1.5-1.2,1.9h.6c0,.1-.3,2.2-.3,2.2h0Zm-3.1-2.6c.8.2,1.6-.3,1.9-1.1,0-.1,0-.2,0-.3.2-.9-.4-1.7-1.3-1.9,0,0,0,0,0,0-.8-.2-1.6.3-1.9,1.1,0,.1,0,.2,0,.3-.1.9.5,1.7,1.3,1.9,0,0,0,0,0,0h0Z"/><path d="m108.8,307.3l-8.8-4.3.9-1.9.6.3c-.3-.7-.3-1.6.2-2.2,1-1.7,3.1-2.3,4.8-1.4,1.8.7,2.6,2.8,1.8,4.5,0,0,0,0,0,0-.3.7-.9,1.3-1.7,1.5l3.1,1.5-.9,1.9Zm-4.7-4.7c.8.4,1.8.2,2.3-.6,0,0,0,0,0,0,.4-.8.1-1.7-.6-2.1,0,0-.1,0-.2,0-.8-.4-1.8-.2-2.3.6,0,0,0,0,0,0-.4.8-.1,1.7.6,2.1,0,0,.1,0,.2,0h0Z"/><circle class="cls-2" cx="349.2" cy="193.9" r="45"/><path class="cls-15" d="m339.1,202v-24c-.2-1.2.6-2.4,1.7-2.8h21.7c0,.2.2.2.3.3.6.4,1,1.1,1,1.9v8.6c-.5-.8-1.4-1.2-2.3-1.2-.9,0-1.8.6-2.2,1.4-.5.9-.3,2,.4,2.7.6.7,1.5,1,2.4.9.7-.2,1.3-.6,1.7-1.1v5.8l-.3-.3c-1-1-2.6-.9-3.6.1-1,1-.9,2.6.1,3.6,0,0,0,0,0,0,1.1.9,2.5.7,3.7-.5.2.1.1.4.1.5v4.3c0,.3,0,.7-.1,1-.3,1.3-.6,2.5-1,3.7-.1.8-.4,1.6-.7,2.3v-.6c.1-1.3-.8-2.5-2.1-2.6-.2,0-.3,0-.5,0-1.4,0-2.4,1.2-2.4,2.6,0,.6.2,1.1.6,1.5.6.8,1.7,1.1,2.6.8.8-.3,1.5-.9,1.8-1.7v.5c-.4,1.6-.9,3.2-1.3,4.7h-26.1c1-2.7,2.1-5.5,3.1-8.2.4-.9.7-1.8,1.1-2.8h23c.5,0,.7-.3.7-.8s-.3-.8-1-.8h-22.5Zm6.2-17.1c-1.4,0-2.5,1.1-2.5,2.5,0,0,0,0,0,.1,0,1.4,1.2,2.5,2.6,2.5,1.4,0,2.5-1.1,2.5-2.5s-1.1-2.5-2.5-2.5h-.1Zm8.2,8.7c-1.4,0-2.6,1.1-2.6,2.5,0,1.4,1.1,2.5,2.5,2.5,0,0,0,0,0,0,1.4,0,2.6-1.1,2.6-2.5,0-1.3-1-2.4-2.3-2.5,0,0-.2,0-.2,0h0Zm-7.8,15.2c0-1.4-1.1-2.5-2.5-2.5s-2.5,1.1-2.5,2.5c0,1.4,1.1,2.6,2.5,2.6,1.4,0,2.5-1.1,2.5-2.5,0,0,0,0,0,0h0Zm10.3-21.3c0-1.4-1.1-2.5-2.5-2.5s-2.5,1.1-2.5,2.5c0,1.4,1.1,2.6,2.5,2.6,1.4,0,2.5-1,2.5-2.4,0,0,0,0,0,0h0Zm-10.6,6.1c-1.4,0-2.5,1.1-2.5,2.5s1.1,2.5,2.5,2.5c1.4,0,2.5-1.1,2.6-2.5,0-1.4-1.1-2.5-2.5-2.5,0,0,0,0,0,0h-.1Zm8.5,15.2c0-1.4-1.1-2.5-2.5-2.5s-2.5,1.1-2.5,2.5,1.1,2.5,2.5,2.5c1.4,0,2.5-1.1,2.5-2.5,0,0,0,0,0,0Zm.2-28.8h2c.6,0,.8-.2.8-.8s-.2-.7-.8-.7h-3.7c-.5,0-.9.3-.9.7,0,0,0,0,0,0,0,.4.3.7.9.8h1.8,0Zm-5.9-.8c0,.5.2.8.7.8s.7-.3.7-.8c0-.4-.3-.8-.7-.8,0,0,0,0-.1,0-.5,0-.7.2-.7.8h.1Z"/><path class="cls-60" d="m332.3,227.9c-.8-.4-1.5-.8-1.7-1.7-.2-.7,0-1.5.4-2.1.6-1.5,1.1-2.9,1.7-4.4h26.4v.5c-.5,1.7-1,3.5-1.4,5.2-.1,1.1-.8,2-1.7,2.5h-23.7Zm13.8-2.9h2.9c.7,0,1.3-.4,1.4-1.1,0,0,0-.2,0-.2,0-.7-.5-1.3-1.2-1.4,0,0-.1,0-.2,0h-5.9c-.7,0-1.4.6-1.4,1.3,0,0,0,0,0,0,0,.7.6,1.3,1.3,1.3,0,0,0,0,.1,0h2.9Z"/><path class="cls-32" d="m366.4,175.2c1.3.5,1.6,1.5,1.6,2.8v23.7c0,1.2-.3,2.3-.7,3.4-.8,3-1.7,6-2.5,9.1,0,.2,0,.3-.2.4h-4.1c.4-1.6.9-3.2,1.3-4.7v-.5h0c.3-.7.6-1.5.7-2.3.4-1.2.7-2.5,1-3.7,0-.3.1-.7.1-1v-4.3c0-.2,0-.4-.1-.5.6-.9.6-2.1,0-3,.1-.1,0-.2,0-.4v-5.4c.4-.8.4-1.9,0-2.7v-8.6c0-.8-.4-1.5-1-1.9-.2,0-.3-.1-.3-.3h4.2Z"/><path class="cls-38" d="m355.8,227.9h0c.9-.5,1.6-1.4,1.7-2.5.5-1.7.9-3.5,1.4-5.2v-.5h4.3c-.6,2.2-1.2,4.3-1.8,6.5-.2.8-.9,1.5-1.7,1.7h-3.9Z"/><path class="cls-57" d="m363.3,219.7h-30.7c.6-1.7,1.2-3.4,1.9-4.9h30.2c-.5,1.7-.9,3.4-1.4,5h0Z"/><path class="cls-18" d="m328.8,186.1h-1.8c-.4,0-.8,0-1.1-.4-.2-.3-.1-.5,0-.8.1-.3.4-.4.7-.4,1.4,0,2.7,0,4.1-.1.6,0,.9.3.9.8,0,1.4,0,2.8-.1,4.2,0,.5-.4.8-.8.8,0,0,0,0,0,0-.4,0-.7-.3-.7-.7,0,0,0-.2,0-.2,0-.7,0-1.5.1-2.2-.6.7-1.1,1.4-1.5,2.1-1.1,1.8-1.7,3.7-2,5.8-.4,3.4.3,6.8,2,9.8.7,1.1,1.4,2.1,2.3,3,.3.4.4.9,0,1.2-.3.3-.8.2-1.1-.1-2.6-2.5-4.2-5.7-4.7-9.2-.8-4.6.4-9.2,3.2-12.9.1-.2.3-.4.4-.6v-.2h.2Z"/><path class="cls-61" d="m339.1,202h22.3c.7,0,1,.3,1,.8,0,.4-.2.7-.6.8,0,0,0,0,0,0h-23c.2-.5.3-1.1.3-1.6h0Z"/><path class="cls-63" d="m345.3,184.9c1.4,0,2.5,1.1,2.5,2.5s-1.1,2.5-2.5,2.5c-1.4,0-2.6-1.1-2.6-2.5,0-1.4,1.1-2.5,2.5-2.6h.1Z"/><path class="cls-63" d="m363.7,194.7c.6.9.6,2.1,0,3-1.2,1.2-2.6,1.4-3.7.5-1.1-.9-1.2-2.6-.3-3.7,1-1,2.6-1.1,3.6-.2,0,0,0,0,0,0l.3.3Z"/><path class="cls-64" d="m353.4,193.5c1.4,0,2.5,1.2,2.4,2.6s-1.2,2.5-2.6,2.4c-1.4,0-2.5-1.1-2.5-2.5,0-1.4,1.1-2.5,2.5-2.5,0,0,0,0,.1,0Z"/><path class="cls-34" d="m345.7,208.7c0,1.4-1.2,2.5-2.6,2.5-1.4,0-2.5-1.2-2.5-2.6s1.2-2.5,2.6-2.5c1.4,0,2.5,1.1,2.5,2.5h0Z"/><path class="cls-34" d="m355.9,187.4c0,1.4-1.1,2.5-2.5,2.5,0,0,0,0,0,0-1.4,0-2.5-1.2-2.5-2.6,0-1.4,1.1-2.5,2.5-2.5s2.5,1.1,2.5,2.5h0Z"/><path class="cls-23" d="m345.3,193.5c1.4,0,2.5,1.2,2.5,2.6,0,1.4-1.2,2.5-2.6,2.5-1.4,0-2.5-1.2-2.5-2.6,0-1.4,1.1-2.5,2.5-2.5h.1Z"/><path class="cls-23" d="m353.8,208.7c0,1.4-1.1,2.5-2.5,2.5s-2.5-1.1-2.5-2.5,1.1-2.5,2.5-2.5c1.4,0,2.5,1.1,2.5,2.5,0,0,0,0,0,0Z"/><path class="cls-37" d="m361.9,209.4h0c-.3.8-1,1.4-1.8,1.7-.9.3-2,0-2.6-.8-.6-.7-.8-1.7-.4-2.6.3-.9,1.2-1.5,2.2-1.5,1.3-.1,2.5.9,2.6,2.2,0,.1,0,.2,0,.4v.6Z"/><path class="cls-37" d="m363.7,186c.4.9.4,1.8,0,2.7-.4.6-1,1-1.7,1.1-.9.2-1.9-.1-2.4-.9-.7-.7-.8-1.8-.4-2.7.4-.9,1.3-1.4,2.2-1.4.9,0,1.8.4,2.3,1.2Z"/><path class="cls-11" d="m354,179.9h-1.8c-.5,0-.9-.3-.9-.7,0,0,0,0,0,0,0-.5.3-.8.9-.8h3.7c.6,0,.8.2.8.7s-.2.8-.8.8h-1.9Z"/><path class="cls-11" d="m348.1,179.1c0-.5.2-.8.7-.8.4,0,.8.3.8.7,0,0,0,0,0,.1,0,.4-.2.7-.6.8,0,0,0,0,0,0-.5,0-.7-.3-.7-.8h-.1Z"/><path class="cls-49" d="m346,225h-2.9c-.7,0-1.4-.6-1.4-1.3,0,0,0,0,0,0,0-.7.7-1.3,1.4-1.3h5.9c.7,0,1.3.5,1.4,1.2,0,0,0,.1,0,.2,0,.7-.6,1.3-1.3,1.3,0,0,0,0-.1,0h-3Z"/><path d="m311.9,185.5l2,.5,1-3.8,2.2.6-1,3.8,3.7,1-.6,2.3-10.1-2.8,1.7-6.1,2.2.6-1.1,3.8h0Z"/><path d="m317.7,181.7c-1.9-1.1-2.6-3.5-1.6-5.4s3.5-2.6,5.4-1.6c1.9,1.1,2.6,3.5,1.6,5.4,0,0,0,0,0,0-1,1.9-3.4,2.6-5.3,1.5,0,0,0,0,0,0Zm2.9-4.9c-.8-.5-1.9-.2-2.4.6-.5.8-.3,1.8.5,2.3,0,0,.1,0,.2,0,.8.5,1.9.2,2.4-.6.5-.8.3-1.8-.5-2.3,0,0-.1,0-.2-.1h0Z"/><path d="m317.4,168.9l1.5-1.7,8.2,7.2-1.5,1.7-8.2-7.2Z"/><path d="m327.5,160.4l6.4,8.4-1.8,1.4-.4-.6c0,.9-.5,1.6-1.2,2.1-1.7,1.2-4.1.8-5.3-1,0,0,0,0,0,0-1.3-1.5-1.2-3.8.4-5.2,0,0,0,0,.1-.1.6-.6,1.5-.8,2.3-.6l-2.2-2.9,1.8-1.4h-.1Zm2.3,6.7c-.5-.8-1.6-1-2.4-.5,0,0,0,0-.1,0-.8.5-1,1.6-.4,2.3,0,0,0,.1.1.2.5.8,1.6,1,2.4.5,0,0,0,0,.1,0,.8-.5,1-1.6.4-2.3,0,0,0-.1-.1-.2h0Z"/><path d="m339.2,158.5l2.7,7-2.1.8-.3-.7c-.3.8-1,1.4-1.8,1.7-2,.7-4.1-.4-4.8-2.4-.9-1.9,0-4.1,1.8-4.9,0,0,0,0,.1,0,.8-.4,1.6-.4,2.4,0l-.3-.7,2.1-.8h.2Zm-.7,4.3c-.4-.9-1.5-1.3-2.4-.9-.9.4-1.3,1.5-.9,2.4.4.9,1.4,1.3,2.2.9.9-.3,1.4-1.4,1.1-2.3,0,0,0,0,0-.1Z"/><path d="m350.6,160.9c.3,2-1.1,3.9-3.1,4.2,0,0,0,0,0,0-.8,0-1.7-.2-2.3-.7v.7l-2.2.2-.9-10.5,2.2-.2.3,3.7c.5-.7,1.3-1.1,2.2-1.1,2-.2,3.7,1.4,3.9,3.7Zm-2.2.2c0-.9-.7-1.7-1.6-1.7,0,0-.2,0-.3,0-.9,0-1.6.8-1.6,1.7,0,.1,0,.2,0,.3,0,.9.7,1.7,1.6,1.7,0,0,.2,0,.3,0,.9,0,1.7-.8,1.6-1.8,0,0,0-.2,0-.2h0Z"/><path d="m352.9,154.1l2.2.3-1.3,10.9-2.2-.3,1.3-10.9Z"/><path d="m359.2,164.7c.5.2,1,.1,1.5-.1l1.4,1.5c-1,.8-2.4,1-3.6.5-2.1-.6-3.4-2.8-2.8-4.9,0,0,0,0,0-.1.6-2.1,2.8-3.3,4.8-2.7,0,0,.1,0,.2,0,2,.6,3.1,2.7,2.5,4.7,0,0,0,.1,0,.2,0,.3-.2.6-.4.8l-5.1-1.6c0,.8.6,1.5,1.5,1.5h.1Zm2.1-2.2c0-1-.8-1.7-1.8-1.7-.5,0-1,.3-1.3.7l3.1,1Z"/><path d="m378.4,166.4l-6.7,8.1-1.7-1.4.5-.5c-.8.1-1.7-.1-2.3-.7-1.4-1.7-1.2-4.2.5-5.6,1.3-1.1,3.1-1.2,4.6-.4.7.5,1.1,1.3,1.1,2.1l2.4-2.8,1.7,1.4v-.2Zm-6.1,3.7c.7-.7.6-1.8-.1-2.5,0,0,0,0,0,0-.6-.6-1.7-.6-2.3,0,0,0-.1.2-.2.3-.7.7-.6,1.8.1,2.5,0,0,0,0,0,0,.6.6,1.7.6,2.3,0,0,0,.1-.2.2-.3h0Z"/><path d="m378.1,170.7l1.4,1.8-5.9,4.7-1.4-1.8,5.9-4.7Zm1.4-1.4c.6-.5,1.4-.4,1.9.2.5.6.4,1.4-.2,1.9-.6.5-1.4.4-1.9-.2-.5-.5-.4-1.4.1-1.8,0,0,0,0,0,0Z"/><path d="m379.2,182c-1.5.8-2.9-.1-3.7-1.5-.8-1.1-.8-2.6,0-3.7l1.9,1.2c-.4.4-.5,1.1-.1,1.5.3.5.5.6.8.5.7-.4-1.5-3.4.8-4.7,1.4-.8,2.8,0,3.6,1.4.7,1,.7,2.3,0,3.3l-1.8-1.2c.3-.4.3-.8,0-1.2-.2-.3-.4-.5-.7-.3-.7.4,1.6,3.4-.9,4.7h0Z"/><path d="m383.2,190.5c-2,.7-4.1-.4-4.8-2.4-.3-.8-.2-1.7.3-2.4l-3.6,1-.6-2.2,10.1-2.7.6,2.2-.7.2c.7.4,1.3,1.1,1.5,1.9.5,2-.8,4-2.8,4.5,0,0,0,0,0,0h0Zm-.6-2.2c.9-.2,1.5-1,1.4-2,0,0,0-.2,0-.2-.2-.9-1.1-1.5-2-1.3,0,0-.2,0-.2,0-.9.2-1.5,1-1.4,2,0,0,0,.2,0,.2.2.9,1.1,1.5,2,1.3,0,0,.2,0,.2,0h0Z"/><path d="m390.4,191.7v2.2l-10.8.7v-2.2l10.8-.7Z"/><path d="m386.1,204.3l-7.4-1,.3-2.2h.7c-.5-.6-.8-1.4-.6-2.2.4-2,2.4-3.4,4.4-3,2,.2,3.6,1.9,3.4,4,0,0,0,0,0,.1,0,.8-.5,1.6-1.2,2.1h.7l-.3,2.3h0Zm-3.4-2.7c1,.2,1.9-.4,2.1-1.4,0,0,0,0,0-.1.1-.9-.5-1.8-1.5-2,0,0,0,0-.1,0-1-.2-1.9.4-2.1,1.4,0,0,0,0,0,.1-.2.9.4,1.8,1.3,2,.1,0,.2,0,.3,0h0Z"/><path d="m382.5,213.7l-5.7-5.2c-1.9-1.7-2.2-3.3-1.3-5.2l1.9.8c-.5.7-.3,1.7.4,2.2h7.8l-1,2.3-4.9-.3,3.7,3.1-.9,2.2h0Z"/><circle class="cls-2" cx="139.8" cy="57.9" r="45"/><path class="cls-25" d="m166.8,85.2v.8c-.2.5-.5,1-1,1.3l-9.6,6.6c-.9.6-2.1.4-2.7-.5,0,0,0,0,0,0-.3-.5-.7-1-1-1.5-.6-1.2-1.9-2-3.3-1.8-1.9.2-3.7-.8-4.6-2.4-.9-1.3-1.7-2.6-2.6-3.9-.1-.2-.2-.4-.4-.4,0-.2,0-.4-.2-.5-.7-1.1-1.4-2.1-2.1-3.2-1.1-1.5-.7-3.5.7-4.6,0,0,0,0,0,0,.5-.3.9-.6,1.3-1,.2,0,.3.2.4.3,1,1.4,1.9,2.9,2.9,4.3l2.4,3.6c.3.4.9.5,1.3.3.4-.3.5-.9.2-1.3,0,0,0,0,0,0,0-.1-.1-.2-.2-.3-3.2-4.6-6.3-9.2-9.5-13.9-2-3-4.1-6-6.1-9-.4-.6-.7-1.3-.7-2,0-.3.3-.6.1-1v-.2c1.1-.5,2.5-.2,3.2.8.6.9,1.2,1.8,1.9,2.6,1.2,1.7,2.3,3.4,3.5,5.1.3.6.7,1.2,1.2,1.7h0s0,.2.1.2c.3.4.6.8.9,1.2.3.3.8.3,1.1,0,.4-.3.4-.8,0-1.3-.6-.7-.8-1.6-.8-2.5,0-.3.3-.5.1-.7,1.1-.6,2.5-.2,3.2.8.2.3.4.6.7.9.2.5.5,1,.9,1.5.3.3.8.4,1.2.2.4-.3.5-.8.3-1.2-.1-.3-.3-.5-.5-.7-.5-.7-.7-1.6-.5-2.5v-.4c.8-.5,1.7-.5,2.5,0,.7.4,1,1.1,1.5,1.6h0c.2.5.5,1,.9,1.4.3.3.8.3,1.1,0,.3-.2.4-.6.4-.9,0-.3-.1-.5-.3-.7-.6-.7-.8-1.6-.7-2.5v-.8c1.2-.5,2.6,0,3.3,1,1.9,2.8,3.8,5.5,5.6,8.3,1.4,2.3,2.4,4.9,2.7,7.6.2,1.9.3,3.9.2,5.8,0,1.2.2,2.3.8,3.3v.5Zm-2.9-.1c0-.3-.2-.6-.5-.7-.3-.1-.7-.1-1,0-1,.7-2,1.3-3,2-.4.2-.6.7-.4,1.2,0,0,0,0,0,.1.3.4.9.5,1.3.2,0,0,0,0,0,0,1-.7,2-1.4,3-2,.3-.1.5-.5.5-.8Zm-6.1,4.2c0-.4-.3-.8-.7-.9-.2,0-.3,0-.5,0-.3.2-.6.4-.9.6-.3.3-.4.8-.2,1.2.3.4.8.5,1.1.2,0,0,0,0,0,0,.3-.2.6-.4.8-.6.2-.2.3-.3.2-.5h0Z"/><path class="cls-24" d="m121.8,58.7v-12.8c0-1.3.8-2.4,2-2.7h2.9c.4.5.6,1.1.5,1.7,0,1,.6,1.8,1.6,1.9,0,0,.1,0,.2,0h6.9c1,0,1.8-.7,1.9-1.7,0,0,0-.2,0-.2,0-.6,0-1.2.5-1.7h2.6c.7.2,1.3.6,1.7,1.1.2.2.3.5.3.8-.8.7-1.6,1.5-2.3,2.2-1.3,1.4-2.5,2.8-3.7,4.3-.2.4-.5.7-.9.9-1.1-1-2.5-1.4-3.9-1.3-2.6.2-4.7,2.3-4.9,4.9-.1,2.2,1.1,4.3,3.1,5.2-.4.8-.9,1.7-1.3,2.5-1,1.9-1.9,3.9-2.7,5.8-1.2,2.8-2.2,5.7-3.1,8.6-.4,1.3-.7,2.6-1.1,3.9-.2-.4-.2-.8-.2-1.2v-10.4c.1-.3.3-.6.4-.9.7-1.6,1.1-3.2,1.3-4.9.3-2.2.1-4.3-1.7-5.9h-.1Z"/><path class="cls-19" d="m138.2,43.1c-.4.5-.6,1.1-.5,1.7,0,1-.7,1.8-1.7,1.9,0,0-.2,0-.2,0h-6.9c-1,0-1.8-.7-1.8-1.7,0,0,0-.1,0-.2,0-.6,0-1.2-.5-1.7h11.6Z"/><path class="cls-35" d="m138,43.1c-.1.1-.3,0-.5,0h.5Z"/><path class="cls-6" d="m122,82c.4-1.3.7-2.6,1.1-3.9.9-2.9,1.9-5.8,3.1-8.6.8-2,1.7-3.9,2.7-5.8.4-.8.9-1.7,1.3-2.5.2,0,.4.2.6.2.7.3,1.4.3,2.1.2,0,.1.2.2.2.3,2.4,3.5,4.8,7.1,7.2,10.6.4.5.8,1.1,1.1,1.7-.4.4-.8.7-1.3,1-1.5,1-1.9,3.1-.8,4.5,0,0,0,0,0,0,.7,1.1,1.4,2.1,2.1,3.2.1.2.2.3.2.5-.7.4-1.4.2-2.1.3h-14.8c-1.2,0-2.2-.6-2.6-1.7h-.1Zm10.4-.9h3.3c.7,0,1.1-.3,1.1-.9s-.4-.9-1.1-.9h-6.6c-.7,0-1.1.3-1.1.9s.4.9,1.1.9h3.3Z"/><path class="cls-21" d="m135.9,52.4c.5-.1.6-.5.9-.9,1.2-1.5,2.4-2.9,3.7-4.3.7-.8,1.5-1.5,2.3-2.2.2.4.2.8.2,1.2v16.2c-.5.4-.9,1-1,1.6,0,.5,0,.9,0,1.4-.5-.5-.9-1.1-1.2-1.7-1.2-1.7-2.3-3.4-3.5-5.1.3-.6.5-1.3.5-2,0-1.6-.6-3.1-1.8-4.1h0Z"/><path class="cls-33" d="m135.9,52.4c1.2,1,1.8,2.5,1.8,4.1,0,.7-.1,1.4-.5,2-.6-.9-1.2-1.8-1.9-2.6-.7-1-2.1-1.4-3.2-.8-.3,0-.5.2-.6.5h0c0,0-.1,0-.1,0h0c0,0-.1,0-.1.1h0c0,0-.1,0-.1.1h0c-.6.5-.8,1.3-.6,2,0,.5.2.9.5,1.2.6.9,1.2,1.7,1.7,2.6-.7.1-1.4,0-2.1-.2-.2,0-.4,0-.6-.2-2.7-1.2-3.9-4.3-2.7-7,.8-1.8,2.5-3,4.5-3.1,1.4,0,2.8.4,3.9,1.3h.1Z"/><path class="cls-56" d="m132.8,61.6c-.6-.9-1.2-1.7-1.7-2.6-.3-.3-.5-.8-.5-1.2,0-.7.2-1.4.6-2h.2c0-.1.1-.2.1-.2h0c.2,0,.4-.2.6-.3.1.3-.1.6-.1,1,0,.7.3,1.4.7,2,2,3,4.1,6,6.1,9,3.2,4.6,6.3,9.2,9.5,13.9,0,.1.2.2.2.3.3.4.2,1-.2,1.3,0,0,0,0,0,0-.5.2-1,0-1.3-.3l-2.4-3.6c-1-1.4-1.9-2.9-2.9-4.3-.1-.2-.2-.3-.4-.3-.3-.6-.7-1.2-1.1-1.7-2.4-3.5-4.8-7.1-7.2-10.6,0-.1-.2-.2-.2-.3h0Z"/><path class="cls-50" d="m163.9,85.1c0,.3-.2.7-.5.8-1,.7-2,1.4-3,2-.4.3-1,.2-1.3-.2-.3-.4-.2-1,.2-1.3,0,0,0,0,0,0,1-.7,2-1.4,3-2,.3-.3.7-.3,1,0,.3.2.5.4.5.7Z"/><path class="cls-36" d="m152.7,62.4c-.2-.7,0-1.5.3-2.2.3-.5.7-.8,1.2-1.1v.8c0,.9.2,1.8.7,2.5.2.2.3.4.3.7,0,.4,0,.7-.4.9-.3.2-.8.2-1.1,0-.4-.4-.7-.9-.9-1.4h0v-.2Z"/><path class="cls-36" d="m147.4,63.8c-.4-1.2.2-2.5,1.3-3.1.1.1,0,.3,0,.4-.2.9,0,1.8.5,2.5.2.2.3.5.5.7.3.4.2,1-.2,1.2s-1,.2-1.2-.2c-.4-.4-.7-.9-.9-1.5h0Z"/><path class="cls-56" d="m141.9,65.3v-1.4c.2-.6.6-1.1,1-1.6.2,0,.3,0,.4-.2.2.3,0,.5-.1.7,0,.9.3,1.8.8,2.5.4.4.4.9,0,1.3-.3.3-.8.3-1.1,0-.3-.4-.6-.8-.9-1.2,0,0,0-.2-.1-.2h0Z"/><path class="cls-50" d="m157.8,89.2c0,.2,0,.4-.2.5-.2.3-.5.5-.8.6-.4.3-.9.2-1.2-.1,0,0,0,0,0,0-.2-.4-.2-.9.2-1.2l.9-.6c.4-.2.9,0,1.1.3,0,.1.1.3,0,.5h0Z"/><path class="cls-68" d="m132.1,55.2c-.2,0-.4.3-.6.3,0-.3.4-.4.6-.5v.2Z"/><path class="cls-21" d="m141.9,65.3c0,0,0,.1.1.2,0,0,0-.1-.1-.2Z"/><path class="cls-42" d="m122,82c.4,1.1,1.4,1.8,2.6,1.7h14.8c-1,1.4-2.2,2.5-3.7,3.4-.2.1-.3.2-.5.3-.7.4-1.1,1.1-1,1.9v3.1c0,1-.9,1.9-1.9,1.9h-10.3c-1,0-1.8-.6-1.9-1.6,0-.1,0-.2,0-.3v-3c-.2-1-.7-1.9-1.3-2.7-.7-1-1.3-2.1-2.1-3.1-.7-1-1-2.1-1-3.3,0-2.3.2-4.6.2-6.9v-3.3c0-1.5.2-2.9.8-4.3.8-1.8,1.4-3.8,1.6-5.8,0-1,.9-1.7,1.8-1.7.1,0,.3,0,.4,0,.9,1.1,1.4,2.5,1.4,3.9,0,1.4-.2,2.7-.6,4-.3,1.3-.7,2.5-1.3,3.6-.2.5,0,1,.4,1.3.4.3,1,.1,1.2-.3,0,0,0,0,0-.1,0-.1.1-.2.2-.3v10.4c0,.4,0,.8.2,1.2h0Zm7.3,7.9h-1.2c-.5,0-1,.3-1,.8s.3,1,.8,1c0,0,.2,0,.3,0h2.4c.5,0,.9-.4.9-.9s-.4-.9-.9-.9h-1.2Zm-5.3,1.8c.2,0,.5,0,.7-.1.4-.2.6-.6.5-1-.1-.4-.5-.7-1-.7-.6,0-1.2,0-1.5.6v.2c0,.7.4,1,1.3,1Z"/><path class="cls-56" d="m121.8,70.4c0,.1-.1.2-.2.3-.3.5-.8.6-1.3.4-.5-.2-.7-.7-.5-1.2,0,0,0,0,0-.1.6-1.1,1-2.4,1.3-3.6.4-1.3.6-2.6.6-4,0-1.4-.5-2.8-1.4-3.9.5,0,1,.2,1.4.5,1.8,1.6,1.9,3.7,1.7,5.9-.2,1.7-.6,3.3-1.3,4.9-.1.3-.3.6-.4.9h0Z"/><path class="cls-39" d="m132.4,81.1h-3.3c-.7,0-1.1-.3-1.1-.9s.4-.9,1.1-.9h6.6c.7,0,1.1.4,1.1.9s-.4.9-1.1.9h-3.3Z"/><path class="cls-68" d="m131.2,55.8c-.3.6-.6,1.3-.6,2-.3-.7,0-1.5.6-2Z"/><path class="cls-50" d="m129.3,89.9h1.1c.5,0,1,.3,1,.8s-.3,1-.8,1c0,0-.2,0-.3,0h-2.4c-.5,0-.9-.4-.9-.9s.4-.9.9-.9h1.3,0Z"/><path class="cls-50" d="m124.1,91.7c-1,0-1.4-.3-1.3-1v-.2c.3-.6.9-.6,1.5-.6.5,0,.9.3,1,.7.1.4,0,.9-.5,1,0,0,0,0,0,0-.2,0-.5.1-.7.1Z"/><path d="m104.3,43.7l-.8,2.6,7.8,2.5-.7,2.3-7.8-2.5-.8,2.6-2.2-.7,2.4-7.4,2.2.7h0Z"/><path d="m108.4,45.5c-1.9-1.1-2.5-3.5-1.4-5.4,1.1-1.9,3.5-2.5,5.4-1.4,1.9,1.1,2.5,3.5,1.4,5.4-1.1,1.9-3.5,2.5-5.4,1.4,0,0,0,0,0,0Zm2.9-4.9c-.8-.4-1.9-.1-2.3.7-.4.8-.1,1.9.7,2.3.8.4,1.8.1,2.3-.7.5-.8.3-1.8-.5-2.3,0,0,0,0-.1,0h0Z"/><path d="m115.9,29.8l5.2,5.4-1.6,1.6-.5-.5c0,.8-.3,1.6-.9,2.1-1.1,1.1-2.8,1.1-3.9,0-.1-.1-.2-.2-.3-.3l-3.2-3.3,1.6-1.6,3,3.1c.4.5,1.1.6,1.6.3.1,0,.2-.2.3-.3.6-.5.7-1.4.2-1.9,0,0-.1-.1-.2-.2l-2.8-2.9,1.6-1.6h-.1Z"/><path d="m119.8,31.5c-1-2-.3-4.4,1.7-5.4,1.2-.6,2.6-.6,3.7,0l-1.1,2c-.5-.3-1.2-.3-1.7,0-.8.5-1.1,1.6-.6,2.4.4.8,1.3,1.2,2.2.8,0,0,0,0,.1,0,.6-.3.9-.9.8-1.5h2.4c0,1.4-.8,2.7-2,3.4-1.8,1.1-4.2.5-5.3-1.3,0,0,0-.1-.1-.2h0Z"/><path d="m134.1,24.7l1.2,4.4-2.2.6-1.1-4.1c0-.7-.7-1.1-1.3-1.1,0,0-.2,0-.3,0-.8.2-1.2.8-.9,1.9l1.1,4-2.2.6-2.8-10.1,2.2-.6,1,3.6c.3-.7,1-1.3,1.8-1.4,1.5-.4,3,.4,3.4,1.9,0,.1,0,.3,0,.4v-.2Z"/><path d="m148.6,19.3l-1.3,10.4-2.2-.3v-.7c-.6.6-1.4.8-2.2.6-2-.2-3.3-2.2-3.1-4.4.2-2.1,1.9-3.6,4-3.5.8,0,1.6.5,2.1,1.2l.5-3.7,2.2.3h0Zm-3.1,6.4c.2-.9-.4-1.8-1.3-2,0,0-.1,0-.2,0-.9-.1-1.8.5-2,1.5,0,0,0,0,0,.1-.2.9.4,1.8,1.3,2,0,0,.1,0,.2,0,.9.1,1.8-.5,2-1.5,0,0,0,0,0-.1Z"/><path d="m150.7,23.1l2.1.7-2.4,7.1-2.1-.7,2.4-7.1Zm.4-2c.2-.7,1-1.1,1.7-.9.7.2,1.1,1,.9,1.7-.2.7-1,1.1-1.7.9-.7-.2-1.1-1-.9-1.7h0Z"/><path d="m157.8,32c-.8,1.5-2.5,1.5-3.9.7-1.3-.5-2.1-1.7-2-3.1h2.2c0,.5.2,1.1.7,1.3.5.3.8.2.9,0,.4-.7-3.1-2.1-1.9-4.4.8-1.2,2.4-1.6,3.6-.9,0,0,0,0,0,0,1.1.5,1.8,1.6,1.8,2.8h-2.2c0-.4-.2-.8-.6-1-.2-.2-.6-.2-.8,0-.4.8,3.1,2,1.8,4.4h.3Z"/><path d="m165.8,36.9c-1.2,1.6-3.5,1.9-5.1.7,0,0-.1-.1-.2-.2-.7-.5-1-1.3-1-2.2l-2.5,2.7-1.7-1.5,7-7.8,1.7,1.5-.5.5c.8,0,1.7.2,2.3.8,1.5,1.4,1.5,3.7,0,5.2,0,0,0,0,0,0v.2Zm-1.7-1.5c.7-.7.8-1.8,0-2.5,0,0,0,0,0,0-.7-.7-1.8-.7-2.4,0,0,0-.1.1-.2.2-.7.7-.8,1.8,0,2.5,0,0,0,0,0,0,.7.7,1.8.7,2.4,0,0,0,.1-.1.2-.2Z"/><path d="m172.3,33.9l1.3,1.8-8.8,6.5-1.3-1.8,8.8-6.5Z"/><path d="m175.7,46.9l-6.8,3.2-.9-2,.6-.3c-.8-.3-1.4-.8-1.8-1.6-.8-1.9,0-4.1,2-4.8,0,0,0,0,.1,0,1.9-1,4.1-.2,5.1,1.6.4.7.4,1.6.1,2.4l.6-.3.9,2h0Zm-4.3-.5c.9-.4,1.3-1.4.9-2.3,0,0,0,0,0,0-.4-.9-1.4-1.3-2.2-.9,0,0-.1,0-.2,0-.9.4-1.3,1.4-.9,2.3,0,0,0,0,0,0,.4.9,1.4,1.3,2.2.9,0,0,.1,0,.2,0Z"/><path d="m177.7,56.8l-7.6-1.3c-2.5-.4-3.7-1.6-3.9-3.7l2.1-.4c.2,1,.6,1.5,1.5,1.6l6.5-4.2.4,2.4-4.2,2.4,4.8.6.4,2.4v.2Z"/><circle class="cls-2" cx="299.8" cy="316.2" r="45"/><path d="m270.5,298.5c-2.6-2.5-2.7-6.5-.2-9.1,0,0,.1-.1.2-.2,1.5-1.6,3.8-2.3,5.9-1.8l-.7,2.8c-1.2-.3-2.4,0-3.2,1-1.4,1.3-1.6,3.5-.3,4.9,0,0,.2.2.3.3,1.2,1.4,3.4,1.6,4.8.4.1-.1.3-.2.4-.4.9-.8,1.3-2,.9-3.2l2.8-.8c.5,2.1-.1,4.4-1.7,5.9-2.4,2.6-6.4,2.7-9,.3-.1-.1-.2-.2-.3-.3v.2Z"/><path d="m288.5,282.3l3.8,8.2-2.5,1.1-.4-.8c-.3,1-1.1,1.7-2,2.1-2.3,1-4.9,0-5.8-2.4,0,0,0,0,0-.1-1.1-2.2-.3-4.9,1.9-6.1.9-.5,2-.5,2.9-.1l-.4-.8,2.5-1.1h0Zm-.6,5.2c-.4-1.1-1.7-1.6-2.8-1.2,0,0,0,0-.1,0-1,.4-1.5,1.6-1.1,2.7,0,0,0,.1.1.2.5,1.1,1.7,1.6,2.8,1.1,0,0,0,0,0,0,1-.4,1.5-1.6,1.1-2.7,0,0,0-.1,0-.2h0Z"/><path d="m306.4,283.9l.2,5.5h-2.7l-.2-5.2c0-.9-.5-1.5-1.3-1.4s-1.4.7-1.3,1.7l.2,5.1h-2.7l-.2-5.2c0-.9-.5-1.5-1.3-1.4s-1.4.7-1.3,1.7l.2,5.1h-2.7l-.3-8.9h2.7v.7c.6-.7,1.5-1.2,2.4-1.2.9,0,1.8.4,2.4,1.1.6-.8,1.6-1.3,2.6-1.3,1.8-.1,3.4,1.3,3.5,3.1,0,.2,0,.3,0,.5h-.2Z"/><path d="m312.3,289.6c.6.3,1.3.3,1.9,0l1.6,1.9c-1.3.8-2.9,1-4.3.4-2.9-1.1-4-3.7-3-6.2.8-2.4,3.4-3.7,5.8-2.9.1,0,.2,0,.3.1,2.3.8,3.5,3.3,2.7,5.6,0,.1,0,.2-.1.4-.1.4-.3.7-.5,1l-6-2.2c0,.9.7,1.7,1.6,1.9Zm2.7-2.5c0-.9-.5-1.7-1.3-2-.8-.4-1.8-.1-2.3.7l3.6,1.3Z"/><path d="m325.8,289.3l-1.7,2.5c-.8-.9-2.1-1-3.1-.3-.1.1-.2.2-.3.4l-2.3,3.3-2.2-1.5,5.1-7.4,2.2,1.5-.9,1.3c1-.7,2.2-.7,3.2,0v.2Z"/><path d="m333.8,298.1l-6.9,5.8-1.7-2.1.6-.5c-1,0-2-.5-2.6-1.3-1.5-2-1.1-4.8.8-6.4,1.8-1.7,4.7-1.6,6.4.2.7.8,1,1.8.9,2.8l.6-.5,1.7,2.1h.2Zm-5.2.9c.9-.7,1.1-2.1.4-3,0,0,0,0,0-.1-.7-.9-2.1-1-3-.3,0,0,0,0-.1.1-.9.7-1.1,2.1-.4,3,0,0,0,0,0,.1.7.9,2.1,1,3,.3,0,0,0,0,.1-.1h0Z"/><path class="cls-8" d="m328.8,326.3v.2c-.3,0-.2.3-.2.4,0,.5,0,1-.1,1.5-.5,3.4-1.5,6.7-3.2,9.7-1.4,2.6-3.3,5-5.4,7.1-2.3,2.2-4.9,4-7.8,5.3-2.4,1.1-5,1.9-7.6,2.3l-2.4.3h-3.8c-.7-.1-1.3-.2-2-.2-6.9-.9-13.2-4.3-17.8-9.6-3.7-4.3-6.1-9.6-6.7-15.3,0-.5,0-1.1-.2-1.6v-3.6c0-.1.1-.3.1-.5,0-.8.1-1.6.3-2.4.5-3.2,1.6-6.2,3.1-9,1.4-2.6,3.2-5,5.4-7,6.1-5.9,14.6-8.7,23-7.7,3.2.4,6.3,1.3,9.2,2.7,6.3,3.1,11.2,8.4,13.9,14.9,1,2.4,1.6,4.9,1.9,7.4.2,1.5.2,3,.2,4.5,0,.2,0,.4.1.6h0Zm-23.8,22.9c1.1-.2,2.2-.4,3.3-.8,11.9-4.1,19-16.4,16.5-28.8-1.9-8.9-7.3-15.1-15.7-18.5-1.3-.6-2.6-.9-4-1.1-.2,0-.5-.1-.7-.2-2.1-.3-4.2-.4-6.3-.2-3.9.2-7.7,1.5-11,3.6-8.9,5.8-12.9,14-11.8,24.6.7,6.9,4.4,13.2,10.1,17.1,4.7,3.4,10.4,5.1,16.2,4.8,1.2,0,2.3-.1,3.4-.5h0Z"/><path class="cls-5" d="m305,349.2c-1.1.3-2.2.5-3.4.5-5.8.4-11.6-1.3-16.2-4.8-5.8-4.3-9.4-10-10.1-17.1-1.2-10.6,2.9-18.8,11.8-24.6,3.3-2.1,7.1-3.4,11-3.6,2.1-.2,4.2-.1,6.3.2.3,0,.5,0,.7.2.2.1.3.2.5.3,4.3,1.3,8,3.9,10.7,7.5,1.3,1.7,2.4,3.5,3.2,5.4,1.4,3.2,2.2,6.7,2.4,10.2,0,1.8,0,3.7-.3,5.5-.4,2.8-1.2,5.6-2.5,8.1-1.4,2.8-3.2,5.3-5.5,7.4-1.9,1.7-4,3.1-6.4,4-.7.2-1.4.5-2.1.8h0Zm-23.1-24.6c0,10,8.2,18.1,18.2,18.1,10,0,18.1-8.2,18.1-18.2,0-10-8.2-18.1-18.2-18.1-10,0-18.1,8.1-18.1,18.1h0Z"/><path class="cls-16" d="m305,349.2c.7-.3,1.4-.6,2.1-.8,2.3-1,4.5-2.3,6.4-4,2.3-2.1,4.1-4.6,5.5-7.4,1.3-2.5,2.1-5.3,2.5-8.1.3-1.8.4-3.7.3-5.5,0-3.5-.9-7-2.4-10.2-.8-1.9-1.9-3.7-3.2-5.4-2.7-3.6-6.4-6.2-10.7-7.5-.2,0-.3-.1-.5-.3,1.4.2,2.7.5,4,1.1,8.4,3.4,13.8,9.6,15.7,18.5,2.6,12.4-4.5,24.7-16.5,28.8-1.1.4-2.2.7-3.3.8h0Z"/><path class="cls-44" d="m281.8,324.7c0-10.1,8.1-18.2,18.2-18.2,10.1,0,18.2,8.1,18.2,18.2,0,10.1-8.1,18.2-18.2,18.2h0c-10,0-18.2-8.1-18.2-18.1h0Zm18.2-11.3h-8.2c-.9,0-1.7.3-2.3.9-.2.2-.3.4-.5.6-2.8,3-4.2,7.2-3.7,11.3.4,3.6,2,6.9,4.7,9.3.3.3.7.5,1.1.5h17c.9,0,1.8-.3,2.5-1,.2-.2.3-.4.5-.5,3-3.3,4.2-7.8,3.5-12.2-.5-3-1.9-5.7-4-7.9-.6-.6-1.4-1-2.2-1h-8.4Z"/><path class="cls-13" d="m300.1,313.4h8.4c.8,0,1.6.4,2.2,1,2.1,2.2,3.5,4.9,4,7.9.8,4.4-.5,8.9-3.5,12.2-.1.2-.3.4-.5.5-.6.7-1.5,1.1-2.5,1h-17c-.4,0-.8-.2-1.1-.5-2.7-2.4-4.3-5.7-4.7-9.3-.5-4.1.9-8.3,3.7-11.3.2-.2.4-.4.5-.6.6-.7,1.4-1,2.3-.9h8.2Zm7.9,11.3c0-4.3-3.5-7.9-7.8-7.9,0,0,0,0-.1,0-4.4,0-7.9,3.4-8,7.8,0,4.4,3.4,7.9,7.8,8,4.4,0,7.9-3.4,8-7.8,0,0,0,0,0,0h.1,0Z"/><path class="cls-28" d="m308,324.7c0,4.3-3.5,7.8-7.8,7.9-4.2.1-7.8-3.2-7.9-7.4,0-.2,0-.3,0-.5,0-4.4,3.5-7.9,7.9-7.9s7.9,3.5,7.9,7.9h-.1Zm-7.9-4.4c-2.4,0-4.4,2-4.4,4.4h0c0,2.4,2,4.4,4.4,4.4,2.4,0,4.4-1.9,4.4-4.3,0,0,0,0,0,0,0-2.4-2-4.4-4.4-4.5h0Z"/><path class="cls-59" d="m300.1,329.1c-2.4,0-4.3-1.8-4.4-4.2,0,0,0-.1,0-.2,0-2.4,2-4.4,4.4-4.4h0c.4.2.5.7.6,1.1.5,2.2.5,4.5,0,6.7,0,.4-.2.9-.6,1.1h0Z"/><path class="cls-17" d="m300.1,329.1c.4-.2.5-.7.6-1.1.5-2.2.5-4.5,0-6.7,0-.4-.2-.9-.6-1.1,2.5,0,4.4,2,4.4,4.5,0,2.5-2,4.4-4.4,4.4h0Z"/><circle class="cls-2" cx="277.1" cy="65.6" r="45"/><path class="cls-41" d="m284.4,53.1h5.9c.2.4.6.3.9.4,2.7,1,4.6,3.6,4.7,6.5v33.6c0,2.5-1.4,4.7-3.6,5.9-.7.3-1.5.6-2.2.8h-30c-3.4,0-6.4-2.4-7-5.8v-34.6c0-2.1,1-4,2.7-5.2,1.3-1,2.9-1.6,4.6-1.5h24.1-.1Zm-7.9,41.5h12.2c.5,0,1,0,1.5-.1,2.6-.6,4.3-2.9,4.2-5.5v-24.7c0-.5,0-1-.2-1.5-.6-2.5-2.8-4.2-5.4-4.1h-24.6c-3.5,0-5.8,2.2-5.8,5.7v24.4c-.1,3.1,2.3,5.7,5.4,5.8.1,0,.2,0,.4,0,4.1-.1,8.1,0,12.2,0h.1Z"/><path class="cls-31" d="m290.1,100.3c.7-.2,1.5-.5,2.2-.8,2.2-1.2,3.5-3.4,3.6-5.9v-33.6c0-2.9-1.9-5.5-4.7-6.5-.3-.1-.7,0-.9-.4,1.8-.1,3.6,0,5.3.5,2.6,1,4.4,3.5,4.5,6.3v33.6c0,3.3-2.4,6-5.6,6.6-1.5.1-2.9.2-4.4.1h0Z"/><path class="cls-22" d="m285.1,91.2h-3.2c-.8,0-1.3-.4-1.3-1.1s.5-1.1,1.3-1.1h6.5c.8,0,1.3.4,1.3,1.1s-.5,1.1-1.3,1.1h-3.3Z"/><path class="cls-9" d="m267.8,64.4h-3.2c-.8,0-1.2-.4-1.2-1s.5-1,1.2-1h6.6c.8,0,1.2.4,1.2,1.1s-.4,1-1.2,1h-3.4Z"/><path class="cls-26" d="m294.3,62.9c-.6-2.5-2.8-4.2-5.4-4.1h-24.6c-3.5,0-5.8,2.2-5.8,5.7v24.4c-.1,3.1,2.3,5.7,5.4,5.8.1,0,.2,0,.4,0,4.1-.1,8.1,0,12.2,0h12.2c.5,0,1,0,1.5-.1,2.6-.6,4.3-2.9,4.2-5.5v-24.7c0-.5,0-1-.2-1.5h.1Zm-8.9,9.8h0c.4-.5.4-1.2-.1-1.6,0,0,0,0,0,0-1.4-1.3-3-2.2-4.8-2.8,1.8.6,3.4,1.5,4.8,2.8.6.6.7,1.2.2,1.7Zm-.3.2-10.1-5.2c-.4,0-.9,0-1.3.2-2.3.5-4.3,1.6-5.9,3.3h0c1.6-1.6,3.7-2.7,5.9-3.3.4-.1.9-.2,1.3-.2Zm-4.8,4.2c0,0-.1,0-.2.1,0,0,.1,0,.2-.1h0Zm-6.9-8.5c0-.6.5-1,1.2-1h6.6c.8,0,1.2.4,1.2,1.1s-.4,1-1.2,1h-6.6c-.8,0-1.2-.4-1.2-1h0Zm7,11.7h0c0,0,0,.1.1.2,0,0,0-.1-.1-.2h0Zm.8.7c-.2,0-.4,0-.5-.2.1.1.3.2.5.2.4,0,.8-.2,1.1-.5,1.1-1,2.5-1.6,4-1.7,1.7,0,3.4.5,4.6,1.7.6.6,1.3.6,1.7,0,.3-.4.3-1-.1-1.4.4.5.5.9.1,1.4s-1.1.6-1.7,0c-1.2-1.2-2.9-1.8-4.6-1.7-1.5,0-3,.6-4,1.7-.3.3-.7.5-1.1.5h0Zm1.7,3.2c.4.2.8,0,1.2-.3.7-.6,1.5-.9,2.4-1-.9,0-1.8.4-2.4,1-.3.3-.8.4-1.2.3h0Zm3.6,5.9h0c1.1,0,2-.9,2-2,0,0,0,0,0-.1,0-1.1-.9-2-2-2,1.1,0,2,.9,2,2,0,1.1-.8,2-1.9,2.1,0,0,0,0-.1,0h0Zm3.2-5.8c.3,0,.5-.1.7-.3.4-.5.3-1.3-.2-1.7-1-.9-2.3-1.4-3.6-1.4h0c1.3,0,2.6.5,3.6,1.4.5.3.7,1,.3,1.5,0,0,0,.1-.1.2-.2.2-.5.4-.7.3h0Zm8.7,12.2h-6.5c-.8,0-1.3-.4-1.3-1.1,0-.6.6-1.1,1.2-1.1,0,0,0,0,0,0h6.5c.8,0,1.3.4,1.3,1.1,0,.6-.6,1.1-1.2,1.1,0,0,0,0,0,0h0Z"/><path d="m236,64.6l.8-2.6,8.1.3-6.9-4.3.6-2h8.1c0,.1-7-3.9-7-3.9l.7-2.6,9.9,6.1-.8,2.8h-6.9l5.8,3.5-.8,2.8-11.6-.2h0Z"/><path d="m249.9,42.4l6.4,4.8-1.4,1.9-.6-.5c.2.9,0,1.8-.7,2.5-1.6,1.7-4.3,1.9-6,.3-1.5-1.4-1.8-3.6-.8-5.4.5-.8,1.3-1.3,2.2-1.3l-.6-.5,1.4-1.9h.1Zm1.7,4.3c-.8-.7-2-.5-2.7.3,0,0,0,0,0,0-.6.8-.5,1.9.3,2.6,0,0,0,0,.1.1.8.7,2,.5,2.7-.3,0,0,0,0,0,0,.6-.8.5-1.9-.3-2.6,0,0,0,0-.1-.1h0Z"/><path d="m256,40.2l1.8,2.2c.4.5.9.2,1.7-.5l1.4,1.7c-2.2,2.2-3.5,2.1-4.9.3l-1.8-2.2-1,.8-1.5-1.8,1-.8-1-1.2,1.4-2.1,1.4,1.7,1.3-1,1.5,1.8-1.3,1h0Z"/><path d="m259.2,39.8c-1.1-2-.3-4.5,1.7-5.6,0,0,.1,0,.2,0,1.3-.7,2.9-.6,4.2.2l-1.3,2c-.5-.4-1.3-.4-1.8,0-.9.4-1.3,1.5-.8,2.4,0,0,0,0,0,0,.5.9,1.6,1.3,2.5.8.6-.3.9-.9,1-1.5h2.4c0,1.5-.9,2.9-2.3,3.6-2,1.1-4.5.4-5.6-1.7,0,0,0,0,0-.1h0Z"/><path d="m274.8,33.4l1,4.8-2.4.5-.9-4.5c0-.7-.7-1.2-1.4-1.2-.1,0-.2,0-.3,0-.7,0-1.3.8-1.2,1.5,0,.1,0,.3.1.4l.9,4.3-2.4.5-2.3-11,2.4-.5.8,3.9c.4-.8,1.1-1.3,2-1.4,1.6-.3,3.2.7,3.6,2.3,0,0,0,.2,0,.3h0Z"/><path d="m290.7,28.9l-2.3,11-2.3-.5.2-.7c-.7.5-1.6.7-2.5.5-2.2-.6-3.5-3-2.9-5.2.6-2,2.5-3.3,4.6-3,.9.1,1.6.6,2.1,1.4l.8-3.9,2.3.5h0Zm-3.8,6.5c.3-1-.3-2-1.3-2.3,0,0-.1,0-.2,0-1-.3-2,.3-2.3,1.3,0,0,0,.1,0,.2-.3,1,.3,2,1.3,2.3,0,0,.1,0,.2,0,1,.3,2-.3,2.3-1.3,0,0,0-.1,0-.2h0Z"/><path d="m292.7,33.2l2.2,1-3.3,7.3-2.2-1,3.3-7.3Zm.7-2.1c.3-.7,1.2-1,1.9-.7.7.3,1,1.2.7,1.9-.3.7-1.2,1-1.9.7-.7-.3-1-1.2-.7-1.9h0Z"/><path d="m299.2,43.5c-1,1.5-2.8,1.3-4.2.3-1.2-.7-1.9-2.1-1.8-3.5l2.4.2c-.2.6,0,1.2.6,1.5.5.3.8.3,1,0,.5-.7-3-2.6-1.5-4.8,1-1.4,2.7-1.3,4.1-.4,1.1.7,1.7,1.9,1.6,3.2l-2.3-.2c0-.5,0-.9-.5-1.2-.2-.2-.6-.2-.8,0-.5.8,3.1,2.5,1.4,4.9Z"/><path d="m307,49.7c-1.6,1.5-4.1,1.5-5.7,0,0,0,0,0,0,0-.6-.6-.9-1.5-.8-2.4l-3,2.6-1.6-1.8,8.5-7.3,1.6,1.8-.6.5c.9,0,1.7.5,2.3,1.2,1.4,1.8,1.1,4.3-.7,5.7,0,0,0,0,0,0v-.2Zm-1.6-1.8c.8-.6,1-1.7.4-2.5,0,0-.1-.2-.2-.2-.7-.8-1.9-.9-2.7-.2,0,0,0,0,0,0-.8.6-1,1.7-.4,2.5,0,0,.1.2.2.2.7.8,1.9.9,2.7.2,0,0,0,0,0,0h0Z"/><path d="m314.4,47.5l1.2,2.1-10.2,5.6-1.2-2.1,10.2-5.6Z"/><path d="m316,61.8l-7.7,2.3-.7-2.3.7-.2c-.8-.4-1.4-1.1-1.6-2-.5-2.2.8-4.4,3-4.9,2.1-.7,4.4.4,5.1,2.5,0,0,0,0,0,0,.3.9.2,1.8-.3,2.6l.7-.2.7,2.3h.1Zm-4.5-1.2c1-.2,1.6-1.1,1.4-2.1,0-.1,0-.2,0-.3-.2-1-1.2-1.6-2.2-1.4,0,0-.1,0-.2,0-1,.2-1.6,1.1-1.4,2.1,0,.1,0,.2,0,.3.2,1,1.2,1.6,2.2,1.4,0,0,.1,0,.2,0Z"/><path d="m316.5,72.7l-7.8-2.7c-2.5-.9-3.6-2.3-3.5-4.5h2.2c0,.9.4,1.7,1.3,2l7.6-3.2v2.6l-4.9,1.8,4.9,1.5v2.6h.2Z"/><circle class="cls-2" cx="50.8" cy="152.6" r="45"/><path class="cls-52" d="m63.1,137.2c.9.2,1.7.6,2.5,1.1,1.4,1,2.2,2.6,2.2,4.3v40.4c0,2.5-1.5,4.8-3.9,5.5-.4.1-.8.2-1.2.3h-12.6v-3h11.9c.5,0,1.1,0,1.5-.4.8-.5,1.3-1.4,1.2-2.4v-40.3c0-1.2-.8-2.2-2-2.4-.6,0-1.2,0-1.8,0-.5,0-.8.1-.9.6-.4,1.4-.9,2.8-1.4,4.2-.3.7-.7,1.2-1.4,1.2h-7.1v-9.1h13Z"/><path class="cls-40" d="m50.1,185.6v3h-12.5c-3-.1-5.3-2.6-5.2-5.6v-40.1c-.1-2.3,1.2-4.5,3.4-5.4.4-.2.9-.3,1.3-.5h13v9.1h-6.8c-.8.1-1.5-.4-1.7-1.2-.5-1.5-1-2.9-1.5-4.4,0-.3-.2-.4-.6-.4h-1.2c-1.4-.2-2.7.8-2.9,2.2,0,.2,0,.4,0,.7v39.8c-.2,1.4.8,2.6,2.2,2.8.2,0,.4,0,.6,0h11.9Z"/><path class="cls-46" d="m50.1,146.2h7.1c.7,0,1.1-.4,1.4-1.2.5-1.4,1-2.8,1.4-4.2.2-.5.4-.7.9-.6h1.8c1.1.3,2,1.2,2,2.4v40.3c0,1-.4,1.9-1.2,2.4-.5.3-1,.4-1.5.4h-11.9v-39.5Zm9,8.8c0,.3,0,.7.2,1,.1.8.9,1.4,1.7,1.3,0,0,.1,0,.2,0,.8-.2,1.3-1,1.1-1.8,0,0,0,0,0-.1-.3-1.6-.6-3.2-1-4.7-.2-.8-.9-1.3-1.7-1.1,0,0,0,0,0,0l-4.6.9c-.9.2-1.5.9-1.4,1.8.2.9,1,1.4,1.9,1.2,0,0,0,0,.1,0,.3,0,.7,0,1-.2-.1.2-.3.4-.4.6-1.5,2.4-3.1,4.7-4.6,7.1-.3.4-.4.9-.3,1.4.1.6.6,1,1.2,1.1.6.1,1.3-.1,1.6-.7,1.2-1.9,2.5-3.8,3.7-5.6.5-.7.9-1.4,1.5-2.3h0Z"/><path class="cls-7" d="m50.1,146.2v39.4h-11.9c-1.4.2-2.6-.8-2.8-2.2,0-.2,0-.4,0-.6v-39.8c-.2-1.4.8-2.7,2.2-2.9.2,0,.4,0,.7,0h1.2c.3,0,.5.1.6.4.5,1.5,1,2.9,1.5,4.4.2.8.9,1.3,1.7,1.2h6.8Zm-9,30.5c0-.3,0-.7-.2-1-.2-.9-1-1.4-1.9-1.3-.8.2-1.3.9-1.1,1.7,0,0,0,0,0,0,.3,1.6.6,3.2,1,4.8.2.8,1,1.3,1.8,1.1h0c1.5-.3,3.1-.6,4.6-1,.3,0,.5-.1.7-.3.6-.4.8-1.2.5-1.8-.3-.7-1.1-1.1-1.8-.9-.3,0-.6.2-1,.2.6-1,1.3-1.9,1.9-2.9,1.1-1.6,2.2-3.3,3.2-4.9.4-.5.4-1.2,0-1.7-.3-.5-.9-.8-1.5-.7-.5,0-.9.4-1.2.8-1.6,2.4-3.1,4.8-4.7,7.2,0,.2-.2.4-.4.5h0Z"/><path class="cls-52" d="m59.1,155c-.6.8-1,1.5-1.5,2.3-1.2,1.9-2.5,3.8-3.7,5.6-.3.6-1,.8-1.6.7-.6,0-1.1-.5-1.2-1.1,0-.5,0-1,.3-1.4,1.6-2.4,3.1-4.7,4.6-7.1,0-.2.2-.4.4-.6-.3,0-.7,0-1,.2-.8.2-1.7-.2-2-1.1,0,0,0,0,0-.1-.1-.9.4-1.7,1.3-1.8,0,0,0,0,.1,0,1.5-.3,3-.6,4.6-.9.8-.2,1.6.3,1.8,1.1h0c.4,1.6.7,3.1,1,4.7.2.8-.3,1.7-1.1,1.9,0,0,0,0,0,0-.9.2-1.7-.4-1.9-1.2,0,0,0,0,0,0,0-.3,0-.7-.2-1h0Z"/><path class="cls-27" d="m41.1,176.7c.2-.1.3-.3.4-.5,1.6-2.4,3.1-4.8,4.7-7.2.3-.4.7-.7,1.2-.8.6,0,1.1.2,1.5.7.3.5.3,1.2,0,1.7-1.1,1.6-2.2,3.3-3.2,4.9-.6.9-1.2,1.9-1.9,2.9.3,0,.7,0,1-.2.7-.2,1.5.2,1.8.9.2.6,0,1.4-.5,1.8-.2.2-.5.2-.7.3-1.5.3-3,.6-4.6,1-.8.2-1.6-.3-1.8-1.1h0c-.4-1.6-.7-3.2-1-4.8-.2-.7.2-1.5.9-1.8,0,0,.1,0,.2,0,.9-.2,1.7.4,1.9,1.2,0,0,0,0,0,0,0,.3,0,.7.2,1h0Z"/><path d="m19.9,145.4l-.8,3.8,1.5.9-.5,2.6-9.5-5.7.6-3,11-1.3-.5,2.6-1.7.2h-.1Zm-2.4.2l-4,.4,3.5,2,.5-2.4Z"/><path d="m16.8,131l9.2,5-1.1,2-.6-.3c.3.8.2,1.7-.3,2.4-1.1,1.8-3.4,2.3-5.1,1.2,0,0,0,0,0,0-1.8-.8-2.6-3-1.8-4.8,0,0,0-.1,0-.2.3-.8,1.1-1.4,1.9-1.5l-3.2-1.8,1.1-2h0Zm4.8,5.2c-.8-.5-1.9-.2-2.5.6,0,0,0,0,0,0-.5.8-.2,1.8.6,2.3,0,0,0,0,.1,0,.8.5,1.9.2,2.5-.6,0,0,0,0,0,0,.5-.8.2-1.8-.6-2.3,0,0,0,0-.1,0h0Z"/><path d="m26.3,124.9l3.5,7.2-1.8,1.8-7.3-3.2,1.7-1.8,4.5,2.2-2.3-4.4,1.7-1.8Z"/><path d="m34.3,119.7l3.9,6.4-1.9,1.2-.4-.6c-.2.8-.7,1.5-1.4,1.9-1.8,1-4.1.4-5.1-1.4,0,0,0,0,0,0-1.2-1.6-.8-3.9.9-5.1,0,0,0,0,.1,0,.7-.5,1.6-.6,2.4-.4l-.4-.6,1.9-1.2Zm0,4.4c-.4-.8-1.4-1.2-2.2-.8-.1,0-.2.1-.3.2-.8.4-1.2,1.4-.7,2.3,0,0,0,.2.1.2.4.8,1.4,1.2,2.2.8.1,0,.2-.1.3-.2.8-.4,1.1-1.5.7-2.3,0,0,0-.1,0-.2h0Z"/><path d="m44.8,119.4l1.2,4.4-2.2.6-1.2-4.1c-.3-.9-.9-1.2-1.6-1s-1.2.8-.9,1.9l1.1,3.9-2.2.6-2-7.2,2.2-.6.2.7c.4-.7,1-1.3,1.8-1.5,1.5-.4,3,.4,3.4,1.9,0,.1,0,.2,0,.3h0Z"/><path d="m46.6,120c0-2.1,1.6-3.9,3.7-4,0,0,.1,0,.2,0,1.4,0,2.7.7,3.4,1.9l-1.9,1.2c-.5-.8-1.6-1-2.4-.5-.5.3-.8.9-.8,1.5,0,.9.7,1.7,1.7,1.7,0,0,0,0,0,0,.6,0,1.2-.3,1.4-.9l2,1.1c-.6,1.2-1.9,2-3.3,2-2.2,0-4-1.7-4.1-3.9,0,0,0,0,0,0h.1Z"/><path d="m58.3,122.7c.5.1,1,0,1.5-.2l1.5,1.4c-1,.8-2.3,1.1-3.5.8-2.2-.2-3.8-2.2-3.6-4.4.2-2.2,2.2-3.8,4.4-3.6.3,0,.5,0,.8.2,2,.5,3.3,2.5,2.8,4.6,0,0,0,0,0,.1,0,.3-.2.6-.3.9l-5.2-1.2c.1.8.7,1.2,1.5,1.4h0Zm2-2.4c0-.8-.5-1.4-1.3-1.5-.7-.3-1.6,0-1.9.8l3.1.7h0Z"/><path d="m73.6,119.9l-5,9.2-2-1.1.3-.6c-.8.3-1.7.2-2.4-.3-1.8-1.1-2.3-3.4-1.3-5.2.9-1.9,3.1-2.7,5-1.8,0,0,0,0,0,0,.8.3,1.4,1.1,1.5,1.9l1.8-3.3,2,1.1h0Zm-5.2,4.9c.5-.8.2-1.9-.6-2.5,0,0,0,0,0,0-.8-.5-1.8-.2-2.3.6,0,0,0,.1-.1.2-.5.8-.2,1.9.6,2.5,0,0,0,0,0,0,.8.5,1.8.2,2.3-.6,0,0,0-.1,0-.2h0Z"/><path d="m85,131.4l-8.2,6.6-1.4-1.8.5-.4c-.9,0-1.6-.5-2.1-1.2-1.2-1.7-.8-4,.8-5.3,1.5-1.4,3.9-1.2,5.3.3.5.6.8,1.5.7,2.3l2.9-2.3,1.4,1.8h.1Zm-6.7,2.5c.8-.5,1-1.5.5-2.2,0,0-.1-.2-.2-.3-.6-.7-1.6-.9-2.4-.3,0,0-.1,0-.1.1-.8.5-1,1.5-.5,2.2,0,0,.1.2.2.3.6.7,1.6.9,2.3.3,0,0,.1,0,.2-.1h0Z"/><path d="m83.9,135.6l1,2-6.7,3.4-1-2,6.7-3.4Zm1.7-1.1c.7-.3,1.5,0,1.8.6.3.7,0,1.5-.6,1.8-.7.3-1.4,0-1.8-.6-.3-.7,0-1.4.6-1.8Z"/><path d="m82.8,147c-1.6.5-2.8-.7-3.3-2.2-.6-1.2-.3-2.7.7-3.6l1.7,1.5c-.5.3-.7,1-.4,1.5.2.5.4.7.7.6.8-.3-.8-3.6,1.7-4.4,1.3-.4,2.7.4,3.1,1.7,0,0,0,.2,0,.3.4,1.1.2,2.4-.6,3.3l-1.6-1.5c.3-.3.5-.8.3-1.2-.1-.4-.3-.6-.6-.5-.8.3.9,3.6-1.8,4.5h0Z"/><path d="m85.1,156c-2.1.2-3.9-1.2-4.2-3.3,0-.8.2-1.7.8-2.3l-3.7.2v-2.2l10.3-.7v2.2h-.6c.7.6,1.1,1.3,1.1,2.2,0,2-1.6,3.7-3.6,3.8,0,0,0,0,0,0h0Zm-.1-2.2c.9,0,1.7-.7,1.7-1.6,0,0,0-.2,0-.3,0-1-.8-1.7-1.8-1.7,0,0,0,0-.1,0-.9,0-1.7.7-1.7,1.6,0,0,0,.2,0,.3,0,1,.8,1.7,1.8,1.7,0,0,0,0,.1,0h0Z"/><path d="m91.9,158.5l-.3,2.2-10.8-1.5.3-2.2,10.9,1.5h0Z"/><path d="m85.2,170.2l-7.1-2.5.7-2.1.7.2c-.4-.7-.5-1.6-.1-2.4.8-1.9,3-2.9,4.9-2.1,2,.5,3.1,2.6,2.5,4.5,0,0,0,.1,0,.2-.2.8-.8,1.5-1.6,1.8l.7.2-.7,2.1h0Zm-2.8-3.4c.8.4,1.8,0,2.2-.8,0,0,0-.2.1-.3.4-.9,0-1.9-.9-2.2,0,0-.1,0-.2,0-.8-.4-1.8,0-2.2.8,0,0,0,.2-.1.3-.4.9,0,1.9.9,2.2,0,0,.1,0,.2,0h0Z"/><path d="m79.8,178.7l-4.5-6.2c-1.5-2-1.5-3.7-.2-5.3l1.7,1.2c-.6.6-.6,1.7,0,2.3l7.6,1.6-1.4,2-4.7-1.2,3,3.8-1.4,2v-.2Z"/><circle class="cls-2" cx="192.7" cy="350.9" r="45"/><path d="m164.8,339.1l-.7,2.5-6.3-1.7,3.8,4v.3l-5.4,1.6,6.3,1.7-.7,2.5-10.8-2.9.7-2.5,5.6-1.6-4-4.2.7-2.5,10.8,2.9h0Z"/><path d="m163.2,327.6l6.6,4.5-1.4,2-.6-.4c.2.7.1,1.6-.5,2.4-.9,1.3-2.6,1.8-4.4.6l-4-2.8,1.4-2,3.8,2.6c.8.6,1.6.3,2-.3.5-.7.4-1.5-.5-2.2l-3.6-2.5,1.4-2h-.2Z"/><path d="m162.7,322.9l1.7-1.7,8.1,8.4-1.7,1.7-8.1-8.4Z"/><path d="m172.7,322.4l1.6,2.3c.4.6.9.3,1.7-.4l1.2,1.8c-2.4,2.1-3.7,1.8-5,0l-1.6-2.3-1,.7-1.3-1.9,1-.7-.9-1.2,1.6-2,1.3,1.8,1.4-.9,1.3,1.9-1.4.9h.1Z"/><path d="m173.5,316.7c-.3-.7,0-1.6.7-1.9s1.6,0,1.9.7c.3.7,0,1.6-.7,1.9s-1.6,0-1.9-.7Zm1.2,1.8l2.2-1.1,3.5,7.2-2.2,1.1-3.5-7.2Z"/><path d="m179.9,318.3l5.9-1.6.6,2.2-5.9,1.6-.6-2.2Z"/><path d="m188,318.2c0-2.4,1.7-4.3,4.1-4.3s2.9.7,3.7,2l-2.1,1.3c-.3-.6-.9-.9-1.6-.9-1,0-1.8.8-1.8,1.9s.8,1.8,1.9,1.8,1.3-.4,1.5-.9l2.1,1.1c-.7,1.3-2,2.1-3.6,2.2-2.4,0-4.3-1.7-4.3-4.1h0Z"/><path d="m206,316.2l-1.9,7.8-2.3-.6.2-.7c-.7.5-1.5.6-2.5.4-2-.5-3.3-2.7-2.7-5,.6-2.3,2.7-3.7,4.7-3.2,1,.3,1.7.8,2.1,1.5l.2-.7,2.3.6h0Zm-3.3,3.3c.3-1.2-.3-2.1-1.4-2.4-1.1-.3-2,.3-2.3,1.4-.3,1.2.3,2.1,1.4,2.4s2-.3,2.3-1.4Z"/><path d="m217.6,326.8l-2.8,4-2-1.4,2.7-3.9c.5-.7.4-1.3-.2-1.7-.7-.5-1.3-.2-1.9.5l-2.6,3.7-2-1.4,2.7-3.9c.5-.7.4-1.3-.2-1.7-.7-.5-1.3-.2-1.9.5l-2.6,3.7-2-1.4,4.5-6.6,2,1.4-.4.6c.6-.2,1.4-.2,2.3.4.8.5,1.1,1.3,1.1,2.1.7-.3,1.6-.2,2.5.4,1.5,1,1.8,2.8.6,4.5l.2.2Z"/><path d="m219,333.8c.4.5.9.8,1.4.9l.2,2.2c-1.3,0-2.5-.6-3.4-1.9-1.6-2.2-1.1-4.7.8-6.1s4.4-1.1,5.9,1c1.4,1.9.9,4.4-1.1,5.8-.3.2-.6.4-.8.5l-3.3-4.6c-.5.7-.3,1.5.2,2.2h.1Zm3.2-.5c.6-.7.5-1.5,0-2.1-.5-.7-1.3-1-2-.7l2,2.8Z"/><path d="m229.3,340.1l-2.5,1c-.2-1-1.1-2.1-2.6-1.5l-3.3,1.4-.9-2.2,7.4-3.1.9,2.2-1.3.5c1.1,0,2,.7,2.4,1.6h0Z"/><path d="m231.2,350.3l-7.9,1.3-.4-2.4h.7c-.7-.5-1.2-1.3-1.3-2.3-.3-2.1,1.2-4.1,3.6-4.4,2.4-.4,4.4,1,4.8,3.1.2,1.1,0,1.9-.6,2.5h.7c0,0,.4,2.2.4,2.2Zm-4.3-1.7c1.2-.2,1.8-1.1,1.6-2.2-.2-1.1-1-1.8-2.2-1.6s-1.8,1.1-1.6,2.2c.2,1.1,1,1.8,2.2,1.6Z"/><path class="cls-20" d="m216.3,362.4v19.3c.2,2.1-1.4,3.9-3.4,4.1h-39.4c-2.3.2-4.2-1.5-4.4-3.8v-38.7c0-3,1.7-4.6,4.7-4.6h38c2.3-.2,4.2,1.5,4.4,3.7v20h0Zm-25.5,9.8c0-4.3-3.5-7.8-7.8-7.8s-7.8,3.5-7.8,7.8,3.5,7.8,7.8,7.8h0c4.3,0,7.8-3.5,7.8-7.8Zm0-19.7c0-4.3-3.5-7.8-7.8-7.8s-7.8,3.5-7.8,7.8,3.5,7.8,7.8,7.8,7.8-3.3,7.9-7.6v-.2h-.1Zm11.7,7.8c4.3,0,7.9-3.5,7.9-7.8s-3.5-7.9-7.8-7.9-7.9,3.5-7.9,7.8h0c0,4.3,3.5,7.9,7.8,7.9h0Zm6,11.8v-3.7c0-1.1-.6-2-1.7-2.2h-8c-1,0-1.9.6-2.1,1.6v8c0,1.1.7,2,1.7,2.1h7.9c1.1,0,2-.7,2.1-1.8v-4.1h0Z"/><path class="cls-45" d="m190.8,372.2c0,4.3-3.6,7.8-7.9,7.7-4.3,0-7.8-3.6-7.7-7.9,0-4.3,3.5-7.7,7.8-7.7s7.9,3.6,7.8,7.9h0Zm-11.7-1.1v.9c0,1.7,1.1,3.3,2.7,3.9,2.1.7,4.3-.5,5-2.6.4-1.2.2-2.5-.6-3.5-.9-1.2-2.4-1.8-3.9-1.5-2.4,0-3.2.6-3.2,2.7h0Z"/><path class="cls-45" d="m190.8,352.5c0,4.3-3.5,7.8-7.8,7.8s-7.8-3.5-7.8-7.8,3.5-7.8,7.8-7.8h0c4.3,0,7.8,3.5,7.8,7.8h0Zm-11.5-.7c-.4,1.5,0,3.1,1.3,4,1.4,1,3.2,1,4.6,0,1.2-.8,1.9-2.3,1.6-3.8-.2-2-2.1-3.5-4.1-3.2h-.5c-1.2-.4-2.6.2-3,1.4-.2.5-.2,1.1,0,1.6h.1Z"/><path class="cls-45" d="m202.6,360.4c-4.3,0-7.8-3.6-7.8-7.9s3.6-7.8,7.9-7.8,7.8,3.6,7.8,7.9-3.6,7.8-7.9,7.8Zm-3.7-8.6c-.6,1,0,1.9.4,2.7.8,1.5,2.5,2.2,4.1,1.9,1.5-.3,2.7-1.5,3.1-3,.4-1.7-.4-3.5-2-4.3-.9-.4-1.9-.6-2.9-.5-2,0-3.3,1.3-2.7,3.2Z"/><path class="cls-10" d="m208.5,372.2v3.8c0,1.1-.7,2-1.8,2.1h-7.9c-1.1,0-2-.7-2.1-1.7v-8c0-1,.6-1.9,1.6-2.1h8c1.1,0,2,.7,2.1,1.7v4.1h0Zm-6.9-1h3.7c.7,0,1.2-.3,1.2-1.1s-.6-.8-1.2-.8h-2.9c0-.6-.6-1-1.2-1.1-1,0-1.9.6-2.2,1.5-.4.6-.3,1.3.2,1.8.8.7,1.6.3,2.3-.2,0,0,0,0,0-.2h0Zm1,4h2.9c.5,0,1-.4,1-.9h0c0-.8-.4-.9-1-.9h-5.7c-.5,0-.9.3-1,.7v.2c0,.5.4.9.9.9h3-.1Z"/><path class="cls-66" d="m182.3,368.4c1.5-.4,3,.2,3.9,1.4,1.3,1.8.9,4.2-.9,5.5-1,.7-2.3.9-3.5.5-1.6-.6-2.7-2.1-2.7-3.9v-.9c.5.6,1.3.9,2,.7,0,1.9,1.2,2.8,2.6,2.2,1-.4,1.5-1.5,1.1-2.5-.3-1-1.3-1.6-2.3-1.3.2-.6,0-1.3-.2-1.8h0Z"/><path class="cls-53" d="m182.3,368.4c.4.5.5,1.2.3,1.8-.3.7-.9,1.1-1.4,1.6-.7.2-1.5,0-2-.7,0-2.1.7-2.8,3.2-2.7h0Z"/><path class="cls-66" d="m182.3,348.8c2-.5,4,.7,4.5,2.6v.5c.2,1.5-.4,3-1.6,3.8-1.4,1-3.2,1-4.6,0-1.2-.9-1.8-2.4-1.3-3.9.5.4,1.2.5,1.9.2,0,1.7,1.2,2.8,2.5,2.3.9-.2,1.5-1.1,1.3-2,0-1.2-1-1.7-2.4-1.7.3-.6.2-1.4-.2-1.9h-.1Z"/><path class="cls-53" d="m181.1,352.1c-.6.3-1.3.2-1.9-.2-.4-1.2.2-2.6,1.4-3,.5-.2,1.1-.2,1.6,0,.4.5.5,1.2.2,1.8-.4.6-.8,1-1.4,1.4h.1Z"/><path class="cls-66" d="m201.6,348.6c1,0,2,0,2.9.5,1.6.8,2.4,2.6,2,4.3-.4,1.5-1.6,2.6-3.1,2.9-1.6.3-3.3-.5-4.1-1.9-.4-.8-1-1.7-.4-2.7.5.3,1.2.5,1.8.4,0,1,.3,1.9,1.4,2.1.9.3,2,0,2.3-1,.6-1.4-.3-2.5-2.2-2.7.2-.7,0-1.5-.6-2h0Z"/><path class="cls-53" d="m201.6,348.6c.6.5.9,1.3.7,2-.4.6-1,1.2-1.6,1.6-.6,0-1.2,0-1.8-.4-.6-1.9.7-3.2,2.7-3.2Z"/><path class="cls-48" d="m202.6,375.1h-2.9c-.5,0-.9-.3-1-.8h0c0-.6.3-1,.8-1.1h5.9c.6,0,1,0,1,.8s-.3,1-.9,1h-3,.1Z"/><path class="cls-14" d="m201.6,371.2s0,0-.2,0c-.7.5-1.5.9-2.3.2-.5-.4-.6-1.2-.2-1.8.4-.9,1.3-1.5,2.2-1.5s1.1.5,1.2,1.1c0,.7-.2,1.3-.6,1.8h-.1Z"/><path class="cls-48" d="m201.6,371.2c.4-.5.7-1.2.7-1.8h3c.6,0,1.2,0,1.2.8s-.4,1.1-1.2,1.1h-3.7Z"/><path class="cls-45" d="m181.1,371.8c.5-.5,1.2-.8,1.4-1.6,1-.2,2,.3,2.3,1.3.4,1,0,2.1-1.1,2.5-1.4.5-2.5-.4-2.6-2.2Z"/><path class="cls-45" d="m181.1,352.1c.6-.4,1-.8,1.4-1.4,1.4,0,2.3.6,2.4,1.7,0,.9-.4,1.8-1.3,2-1.3.5-2.5-.6-2.5-2.3Z"/><path class="cls-45" d="m200.7,352.3c.6-.5,1.2-1,1.6-1.6,1.9,0,2.8,1.2,2.2,2.7-.4.9-1.4,1.3-2.3,1-1.1-.2-1.4-1.1-1.4-2.1h0Z"/><line class="cls-4" x1="195.2" y1="251.5" x2="195.2" y2="293.5"/><line class="cls-3" x1="195.2" y1="251.5" x2="195.2" y2="282.7"/><polygon class="cls-62" points="187.7 280.5 195.2 293.5 202.6 280.5 187.7 280.5"/><line class="cls-4" x1="152.7" y1="230.1" x2="119" y2="255.2"/><line class="cls-3" x1="152.7" y1="230.1" x2="127.6" y2="248.8"/><polygon class="cls-62" points="124.9 241.5 119 255.2 133.8 253.5 124.9 241.5"/><line class="cls-4" x1="144.4" y1="183.3" x2="104.2" y2="171.3"/><line class="cls-3" x1="144.4" y1="183.3" x2="114.5" y2="174.3"/><polygon class="cls-62" points="118.7 167.8 104.2 171.3 114.4 182.1 118.7 167.8"/><line class="cls-4" x1="177" y1="148.7" x2="162.7" y2="109.2"/><line class="cls-3" x1="177" y1="148.7" x2="166.4" y2="119.3"/><polygon class="cls-62" points="174.1 118.8 162.7 109.2 160.1 124 174.1 118.8"/><line class="cls-4" x1="224.3" y1="154.2" x2="247.4" y2="119.1"/><line class="cls-3" x1="224.3" y1="154.2" x2="241.5" y2="128.1"/><polygon class="cls-62" points="246.5 134.1 247.4 119.1 234 125.8 246.5 134.1"/><line class="cls-4" x1="248.1" y1="195.4" x2="290" y2="193"/><line class="cls-3" x1="248.1" y1="195.4" x2="279.3" y2="193.6"/><polygon class="cls-62" points="277.5 201.2 290 193 276.6 186.3 277.5 201.2"/><line class="cls-4" x1="229.2" y1="239.1" x2="256.2" y2="271.3"/><line class="cls-3" x1="229.2" y1="239.1" x2="249.3" y2="263"/><polygon class="cls-62" points="242.2 266.2 256.2 271.3 253.6 256.5 242.2 266.2"/></svg>