<?xml version="1.0" encoding="UTF-8"?><svg id="Layer_1" xmlns="http://www.w3.org/2000/svg" viewBox="0 0 400 400"><defs><style>.cls-1{fill:#009245;}.cls-2{fill:#a7a7a7;}.cls-3{stroke:#a5262d;}.cls-3,.cls-4{stroke-width:4px;}.cls-3,.cls-4,.cls-5{fill:none;stroke-miterlimit:10;}.cls-6{fill:#fab644;}.cls-7{fill:#fff;}.cls-8{fill:#cbcbcb;}.cls-9{fill:#cacaca;}.cls-10{fill:#0277b5;}.cls-4{stroke:#c000e2;}.cls-11{fill:#fedd46;}.cls-5{stroke:#231f20;stroke-width:2px;}.cls-12{fill:gray;}.cls-13{fill:#015078;}.cls-14{fill:#0296e4;}.cls-15{fill:#0295e3;}.cls-16{fill:#0276b3;}.cls-17{fill:#fab643;}.cls-18{fill:#0376b4;}.cls-19{fill:#a8a8a8;}.cls-20{fill:#29abe2;}.cls-21{fill:#231f20;}</style></defs><line class="cls-7" x1="144.8" y1="200.3" x2="112" y2="199.8"/><line class="cls-5" x1="144.8" y1="200.2" x2="122.8" y2="199.9"/><polygon class="cls-21" points="125.1 192.5 112 199.7 124.9 207.4 125.1 192.5"/><line class="cls-7" x1="257" y1="200.2" x2="289.8" y2="199.8"/><line class="cls-5" x1="257" y1="200.2" x2="279" y2="199.9"/><polygon class="cls-21" points="277 207.4 289.8 199.8 276.7 192.5 277 207.4"/><line class="cls-7" x1="200.7" y1="144.4" x2="201.2" y2="111.6"/><line class="cls-5" x1="200.7" y1="144.4" x2="201" y2="122.4"/><polygon class="cls-21" points="208.4 124.7 201.2 111.6 193.5 124.4 208.4 124.7"/><line class="cls-7" x1="200.7" y1="255.6" x2="201.2" y2="288.4"/><line class="cls-5" x1="200.7" y1="255.6" x2="201" y2="277.6"/><polygon class="cls-21" points="193.5 275.6 201.2 288.4 208.4 275.3 193.5 275.6"/><circle class="cls-3" cx="200.9" cy="200" r="45"/><path class="cls-14" d="m190.9,200.6v-7.5c0-5.5,4.7-9.9,10.2-9.7,4.6,0,8.6,3.4,9.5,7.9,0,.6.2,1.2.2,1.9v7.5h-20,0Zm6.3-13.6c.5,0,.9-.4.9-.9h0c0-.5-.4-.9-.9-.9s-.9.4-.9.9.4.9.9.9h0Zm3.6-1.8c-.5,0-.9.4-.9.9s.4.9.9.9.9-.4.9-.9h0c0-.5-.4-.9-.9-.9h0Zm4.6,1c0-.5-.4-.9-.9-.9h0c-.5,0-1,.3-1,.8s.3,1,.8,1h.2c.5,0,.9-.3.9-.8h0Zm-11.8,2.7c-.5,0-.9.4-.9.9s.4.9.9.9.9-.4.9-.9h0c0-.5-.4-.9-.9-.9h0Zm4.6.9c0-.5-.4-.9-.9-.9s-.9.4-.9.9.4.9.9.9.9-.3.9-.8h0Zm2.7-.9c-.5,0-.9.4-.9.9s.4.9.9.9.9-.4.9-.9h0c0-.5-.4-.9-.9-.9h0Zm4.6.9c0-.5-.4-.9-.9-.9s-.9.4-.9.9.4.9.9.9.9-.3.9-.8h0Zm2.7-.9c-.5,0-.9.4-.9.9s.4.9.9.9.9-.4.9-.9h0c0-.5-.4-.9-.9-.9h0Zm-13.6,4.5c0-.5-.3-.9-.8-.9h0c-.5,0-.9.4-1,.9,0,.5.4.9.9,1,.5,0,.9-.4,1-.9h-.1Zm7.3,3.6c0-.5-.4-.9-.9-.9s-.9.4-.9.9.4.9.9.9.9-.4.9-.8h0Zm2.7-.9c-.5,0-.9.4-.9.9s.4.9.9.9.9-.4.9-.9h0c0-.5-.4-.9-.9-.9h0Zm4.5,1c0-.5-.4-.9-.9-.9s-.9.4-.9.9.4.9.9.9.9-.3,1-.8h0Zm-15.4-.9c-.5,0-.9.4-.9.9s.4.9.9.9.9-.4.9-.9h0c0-.5-.4-.9-.9-.9h0Zm14.5-1.8c.5,0,.9-.4.9-.9s-.4-.9-.9-.9-.9.4-.9.9h0c0,.5.4.9.9.9h0Zm-2.7-.9c0-.5-.4-.9-.9-1-.5,0-.9.4-1,.9,0,.5.4.9.9,1h0c.5,0,.9-.3.9-.8h0Zm-4.6-.9c-.5,0-.9.4-.9.9s.4.9.9.9.9-.4.9-.9h0c0-.5-.4-.9-.9-.9h0Zm-2.7.9c0-.5-.4-.9-.9-.9s-.9.4-.9.9.4.9.9.9.9-.3.9-.8h0Zm0,3.6c0-.5-.4-.9-.9-.9s-.9.4-.9.9.4.9.9.9.9-.3,1-.8h0Z"/><path class="cls-9" d="m190.9,200.6h20.9c1.1,0,.9,0,.9.9v3.6h-23.6v-3.6c0-1,0-.9.9-.9h.9Z"/><path class="cls-8" d="m215.4,205.1v8.1c0,6.7-4.6,12.5-11.1,14.1-.5,0-1,.2-1.4.3-1.3.2-2.7.2-4.1,0-1.6-.3-3.2-.8-4.6-1.5-4-2.1-6.9-5.9-7.7-10.3-.2-.9-.2-1.8-.2-2.6v-8.1h1.8v8.5c0,.8,0,1.6.3,2.4,1.5,6.8,8.3,11.1,15.1,9.6,2.8-.6,5.2-2.1,7-4.3,1.8-2,2.8-4.6,2.9-7.3,0-3,0-6,0-9h2Z"/><path class="cls-9" d="m203.6,230.6c1.2,0,2.4,0,3.6.3,2,.7,3.5,2.5,3.7,4.7,0,.5-.2.5-.5.5h-18.9c-.5,0-.6-.2-.5-.6.3-2.8,2.7-4.8,5.4-4.9h7.3,0Z"/><path class="cls-6" d="m180.6,190.6c0-2.5.9-4.8,2.4-6.7.5-.6,1-.7,1.4-.3s.4.9,0,1.4c-2.7,3.3-2.7,8,0,11.2.4.6.4,1.1,0,1.4-.4.3-1,.2-1.3-.2h0c-1.6-1.9-2.4-4.3-2.4-6.8h-.1Z"/><path class="cls-17" d="m221.2,190.6c0,2.5-.9,4.9-2.4,6.8-.3.5-.8.6-1.3.4h0c-.5-.3-.5-.9,0-1.4,2.7-3.3,2.7-8,0-11.2-.5-.6-.5-1.1,0-1.4s1-.3,1.4.3c1.6,1.9,2.4,4.3,2.4,6.8v-.3Z"/><path class="cls-17" d="m187.4,185.2c.3,0,.6.2.7.5.2.3.2.7,0,1-.4.5-.8,1.2-1,1.8-.7,1.9-.4,4.1.8,5.8,0,0,0,.2.2.3.3.4.3,1,0,1.3-.4.3-1,.3-1.3,0v-.2c-.9-1-1.4-2.2-1.7-3.5-.4-2.3,0-4.6,1.5-6.5.2-.3.5-.5.9-.4h-.1Z"/><path class="cls-17" d="m217,191.1c0,1.6-.7,3.2-1.7,4.4-.3.4-.8.6-1.2.3s-.6-.8-.3-1.2c0,0,0,0,0-.2,1.8-2.7,1.8-5.1,0-7.8-.4-.4-.3-1,0-1.3h0c.5-.3,1-.2,1.4.3,1.2,1.6,1.8,3.5,1.7,5.4h0Z"/><path class="cls-9" d="m185.4,205.1v.3c0,.4,0,.6-.6.6h-2.6c-.9,0-.5,0-.5-.4v-4.6c0-.4.2-.4.5-.4h2.5c.5,0,.7,0,.6.6v3.9h0Z"/><path class="cls-9" d="m216.3,201.5v-.3c0-.4,0-.6.6-.6h2.6c.9,0,.5,0,.5.4v4.6c0,.4-.2.4-.5.4h-2.5c-.5,0-.7,0-.6-.6v-3.9h0Z"/><path class="cls-2" d="m185.4,205.1v-3.6h3.6v3.6h-3.6Z"/><path class="cls-2" d="m216.3,201.5v3.6h-3.6v-3.6h3.6Z"/><path class="cls-19" d="m203.6,230.6h-5.4c.2-1,.5-1.9.7-2.8,1.3.2,2.7.2,4.1,0,.2.9.4,1.9.7,2.8h0Z"/><path class="cls-10" d="m197.3,187c-.5,0-.9-.4-.9-.9s.4-.9.9-.9.9.4.9.9h0c0,.5-.4.9-.9.9h0Z"/><path class="cls-10" d="m200.9,185.2c.5,0,.9.4.9.9s-.4.9-.9.9-.9-.4-.9-.9h0c0-.5.4-.9.9-.9h0Z"/><path class="cls-10" d="m205.4,186.1c0,.5-.3.9-.8,1s-.9-.3-1-.8v-.2c0-.5.4-.9.9-.9h0c.5,0,.9.4.9.9Z"/><path class="cls-10" d="m193.6,188.8c.5,0,.9.4.9.9s-.4.9-.9.9-.9-.4-.9-.9h0c0-.5.4-.9.9-.9h0Z"/><path class="cls-10" d="m198.2,189.7c0,.5-.4.9-.9.9s-.9-.4-.9-.9.4-.9.9-.9h0c.5,0,.9.4.9.9Z"/><path class="cls-10" d="m200.9,188.8c.5,0,.9.4.9.9s-.4.9-.9.9-.9-.4-.9-.9h0c0-.5.4-.9.9-.9h0Z"/><path class="cls-10" d="m205.4,189.7c0,.5-.4.9-.9.9s-.9-.4-.9-.9.4-.9.9-.9h0c.5,0,.9.4.9.9h0Z"/><path class="cls-10" d="m208.1,188.8c.5,0,.9.4.9.9s-.4.9-.9.9-.9-.4-.9-.9h0c0-.5.4-.9.9-.9h0Z"/><path class="cls-10" d="m194.5,193.4c0,.5-.4.9-.9.9s-.9-.4-.9-.9.4-.9.9-.9h0c.5,0,.9.4.9.9h0Z"/><path class="cls-10" d="m201.8,196.9c0,.5-.4.9-.9.9s-.9-.4-.9-.9.4-.9.9-.9h0c.5,0,.9.4.9.9h0Z"/><path class="cls-10" d="m204.5,196.1c.5,0,.9.4.9.9s-.4.9-.9.9-.9-.4-.9-.9h0c0-.5.4-.9.9-.9h0Z"/><path class="cls-10" d="m209.1,197c0,.5-.4.9-.9.9s-.9-.4-.9-.9.4-.9.9-.9h0c.5,0,.9.4.9.9h0Z"/><path class="cls-10" d="m193.6,196.1c.5,0,.9.4.9.9s-.4.9-.9.9-.9-.4-.9-.9h0c0-.5.4-.9.9-.9h0Z"/><path class="cls-10" d="m208.1,194.2c-.5,0-.8-.5-.8-1s.4-.7.8-.8c.5,0,.9.3,1,.8,0,.5-.3.9-.8,1h-.2Z"/><path class="cls-10" d="m205.4,193.3c0,.5-.4.9-.9.9s-.9-.4-.9-.9.4-.9.9-.9h0c.5,0,.9.4.9.9h0Z"/><path class="cls-10" d="m200.9,192.4c.5,0,.9.4.9.9s-.4.9-.9.9-.9-.4-.9-.9h0c0-.5.4-.9.9-.9h0Z"/><path class="cls-10" d="m198.2,193.3c0,.5-.4.9-.9.9s-.9-.4-.9-.9.4-.9.9-.9h0c.5,0,.9.4.9.9h0Z"/><path class="cls-10" d="m198.2,197c0,.5-.4.9-.9.9h0c-.5,0-.9-.5-.9-1s.5-.9,1-.9.9.4.9.9h0Z"/><path class="cls-13" d="m190.9,206.9v-1.8h19.9v1.8h-19.9Z"/><path class="cls-18" d="m210.9,213.3c0,5.5-4.7,9.9-10.2,9.7-5.3,0-9.6-4.4-9.7-9.7h19.9Zm-6.2,6.1c0,0,.2,0,.3,0,.9-.6,1.7-1.4,2.2-2.4s0-.9-.3-1.1h0c-.4-.3-.9-.2-1.2.2-.5.7-1,1.3-1.7,1.8-.3.2-.4.7-.2,1,0,.4.4.5,1,.6h0Zm-3.2-.7h-.7c-.5,0-.8.4-.8.9s.3.9.8.9h0c.5,0,.9,0,1.4,0,.3,0,.6-.4.6-.8s-.2-.7-.5-.8c-.3,0-.5,0-.7,0h0Z"/><path class="cls-9" d="m210.9,213.3h-19.9v-4.6h19.9v4.6Z"/><path class="cls-16" d="m210.9,208.8h-19.9v-1.8h19.9v1.8Z"/><path class="cls-15" d="m204.7,219.4c-.5,0-.8-.2-1-.6s0-.8.2-1c.7-.5,1.2-1.1,1.7-1.8.3-.4.8-.5,1.2-.2.4.2.6.7.4,1.1h0c-.5,1-1.3,1.8-2.2,2.4,0,0-.2,0-.3,0Z"/><path class="cls-15" d="m201.5,218.8h.7c.3.2.5.5.5.8s-.2.7-.6.8c-.4.2-.9.2-1.4,0-.5,0-.8-.4-.8-.9h0c0-.5.3-.9.8-.9h.8Z"/><path d="m176.4,185.1l-1.1,2.5-6.4-2.7,3.4,4.8v.3c-.1,0-6,.8-6,.8l6.4,2.7-1.1,2.5-10.9-4.7,1.1-2.5,6.1-.9-3.6-5.1,1.1-2.5,10.9,4.7h.1Z"/><path d="m169,177.8c-.6-.5-.7-1.5-.2-2.2.5-.6,1.5-.7,2.2-.2s.7,1.5.2,2.2c-.5.6-1.5.7-2.2.2Zm1.9,1.2l1.6-2,6.6,5.4-1.6,2-6.6-5.4Z"/><path d="m176.9,178.3c-1.6-2-1.4-4.7.6-6.3,1.3-1,3-1.3,4.4-.7l-.9,2.4c-.6-.3-1.3-.2-1.9.3-.9.7-1,1.8-.2,2.7.7.9,1.9,1,2.7.3.6-.5.8-1.1.7-1.8l2.5-.4c.3,1.5-.3,3.1-1.6,4.1-2,1.6-4.7,1.3-6.3-.6Z"/><path d="m187.4,166.2l1.3,2.6c-1,.3-2.2,1.4-1.4,2.9l1.7,3.4-2.3,1.1-3.7-7.6,2.3-1.1.7,1.4c-.2-1.2.6-2.2,1.5-2.6h0Z"/><path d="m190.1,169.7c-.5-2.5,1-4.8,3.4-5.4s4.8.9,5.4,3.4c.5,2.5-1,4.8-3.4,5.4-2.4.5-4.8-.9-5.4-3.4Zm6.3-1.4c-.3-1.2-1.3-1.8-2.3-1.5-1.1.2-1.7,1.2-1.5,2.4.3,1.2,1.3,1.8,2.3,1.5,1.1-.2,1.7-1.2,1.5-2.4Z"/><path d="m210,168.6c-.2,2.5-2.3,4.3-4.5,4.1-1.1-.1-1.9-.6-2.4-1.3l-.4,4.2-2.5-.2,1.1-11.8,2.5.2v.8c.5-.6,1.4-.9,2.5-.8,2.2.2,3.9,2.3,3.6,4.9h.1Zm-2.5-.2c0-1.3-.6-2.1-1.8-2.3-1.2-.1-2.1.6-2.2,1.9,0,1.3.6,2.1,1.8,2.3,1.2.1,2.1-.6,2.2-1.9Z"/><path d="m219.7,171.5l-2.1,4.8-2.3-1,1.9-4.5c.4-1,0-1.7-.8-2-.9-.4-1.7-.1-2.1,1l-1.8,4.3-2.3-1,4.7-10.9,2.3,1-1.6,3.9c.7-.4,1.6-.4,2.6,0,1.6.7,2.4,2.4,1.5,4.5h0Z"/><path d="m220.9,173.3c1.6-1.9,4.4-2.1,6.3-.5s2.2,4.4.5,6.3c-1.6,1.9-4.4,2.1-6.3.5s-2.2-4.4-.5-6.3Zm4.9,4.2c.8-.9.7-2.1-.2-2.8-.8-.7-2-.7-2.8.3-.8.9-.7,2.1.2,2.8.8.7,2,.7,2.8-.3Z"/><path d="m234.2,187l-4.4,2.8-1.4-2.2,4.1-2.6c.9-.6,1-1.4.5-2.1-.5-.8-1.3-1-2.3-.4l-3.9,2.5-1.4-2.2,7.2-4.5,1.4,2.2-.7.4c.8,0,1.6.6,2.2,1.5.9,1.5.7,3.3-1.3,4.6h0Z"/><path d="m233.3,194.3c.2.7.6,1.2,1.1,1.4l-.6,2.3c-1.3-.5-2.2-1.6-2.7-3.1-.8-2.8.6-5.1,3.1-5.7,2.4-.7,4.8.6,5.5,3.2.7,2.4-.7,4.7-3.2,5.4-.3,0-.7.2-1,.2l-1.6-5.8c-.8.5-.9,1.4-.6,2.3v-.2Zm3.4.7c.9-.5,1-1.4.8-2.1-.3-.9-.9-1.4-1.8-1.4l1,3.5Z"/><circle class="cls-4" cx="200.9" cy="341.4" r="45"/><path d="m165.8,338.9c-2.6-.5-4.3-2.9-3.7-5.6.3-1.6,1.4-2.9,2.8-3.4l.7,2c-.8.3-1.3.9-1.5,1.9-.3,1.6.5,2.8,2.1,3.1,1.6.3,2.9-.5,3.2-2.1.2-.9,0-1.8-.7-2.3l1.4-1.6c1.1,1,1.6,2.6,1.3,4.2-.5,2.7-2.9,4.2-5.6,3.7h0Z"/><path d="m169.2,329.8c-1.7-.9-2.4-2.9-1.6-4.6s2.9-2.4,4.6-1.6c1.7.9,2.4,2.9,1.6,4.6-.8,1.7-2.9,2.4-4.6,1.6Zm2.2-4.4c-.8-.4-1.7,0-2,.7s-.1,1.6.7,2c.8.4,1.7,0,2-.7.4-.8.1-1.6-.7-2Z"/><path d="m178.9,314.6l2.9,2.7-1.3,1.4-2.8-2.6c-.5-.4-1-.5-1.4,0s-.4,1.1.2,1.6l2.7,2.5-1.3,1.4-2.8-2.6c-.5-.4-1-.5-1.4,0s-.4,1.1.2,1.6l2.7,2.5-1.3,1.4-4.8-4.4,1.3-1.4.4.4c-.1-.5,0-1.2.6-1.8.5-.6,1.1-.8,1.8-.7-.1-.6,0-1.3.6-2,1-1.1,2.5-1.1,3.7,0Z"/><path d="m184.5,308.3l3.4,5.6-1.7,1-.3-.5c0,.6-.4,1.2-1.2,1.6-1.1.7-2.6.5-3.5-1l-2.1-3.4,1.7-1,1.9,3.2c.4.7,1,.8,1.6.4s.8-1,.3-1.8l-1.8-3,1.7-1h0Z"/><path d="m193.4,307.7l1.2,3.8-1.9.6-1.1-3.5c-.2-.8-.8-1-1.4-.8-.7.2-1,.8-.7,1.6l1.1,3.4-1.9.6-2-6.2,1.9-.6.2.6c.2-.6.7-1.1,1.5-1.3,1.2-.4,2.6.2,3.1,1.8Z"/><path d="m194.3,303.4c0-.6.4-1.2,1-1.3.6,0,1.2.4,1.3,1,0,.6-.4,1.2-1,1.3-.6,0-1.2-.4-1.3-1Zm.4,1.7l1.9-.3.9,6.4-1.9.3s-.9-6.4-.9-6.4Z"/><path d="m198.4,307.8c0-1.9,1.5-3.4,3.5-3.4s2.4.7,2.9,1.7l-1.7,1c-.2-.5-.7-.7-1.2-.8-.8,0-1.5.6-1.5,1.5s.6,1.5,1.4,1.5,1.1-.3,1.3-.7l1.7,1c-.6,1-1.7,1.6-3,1.6-2,0-3.4-1.6-3.4-3.5h0Z"/><path d="m212.9,306.4l-1.6,6.3-1.9-.5v-.6c-.4.4-1.1.5-1.9.3-1.7-.4-2.7-2.2-2.2-4.1s2.2-3,3.8-2.6,1.4.6,1.7,1.2v-.6c0,0,2,.5,2,.5h.1Zm-2.7,2.7c.2-.9-.3-1.7-1.1-1.9-.9-.2-1.6.2-1.9,1.2-.2.9.3,1.7,1.1,1.9.9.2,1.6-.2,1.9-1.2Z"/><path d="m216.5,310.1l-1,2.1c-.2.5.2.8,1,1.1l-.8,1.6c-2.4-.9-2.8-1.9-2-3.5l1-2.1-.9-.4.8-1.7.9.4.5-1.1,2,.3-.8,1.6,1.2.6-.8,1.7-1.2-.6h.1Z"/><path d="m219.9,309.8l1.6,1-3.5,5.5-1.6-1,3.5-5.5Zm.8-1.6c.3-.5,1.1-.7,1.6-.4.5.3.7,1.1.4,1.6s-1.1.7-1.6.4c-.5-.3-.7-1.1-.4-1.6Z"/><path d="m221,314.3c1.3-1.4,3.4-1.5,4.9-.2,1.4,1.3,1.5,3.4.2,4.9-1.3,1.4-3.4,1.5-4.9.2-1.4-1.3-1.5-3.4-.2-4.9Zm3.7,3.3c.6-.7.6-1.6,0-2.1-.6-.6-1.5-.6-2.1.1s-.6,1.6,0,2.1,1.5.6,2.1-.1Z"/><path d="m231.1,324.7l-3.3,2.2-1.1-1.6,3.1-2.1c.7-.5.7-1.1.3-1.6-.4-.6-1-.8-1.8-.2l-2.9,2-1.1-1.6,5.4-3.7,1.1,1.6-.5.3c.6,0,1.2.4,1.7,1.1.7,1.1.6,2.5-.9,3.5h0Z"/><path d="m233,332.4c-1.9.7-3.4-.3-4-2-.5-1.3-.4-2.7.6-3.7l1.6,1.3c-.5.4-.7.9-.4,1.7.3.8.9,1,1.4.8s.8-.7.5-1.5l-1-2.7,5-1.6,1.9,4.9-1.8.7-1.2-3.1-1.2.4.3.7c.6,1.6.2,3.3-1.7,4h0Z"/><path d="m235.8,342.5c-2.8.3-4.6-1.5-4.9-4-.3-2.8,1.6-5.1,4.2-5.4,2.6-.3,4.9,1.6,5.2,4.3.2,1.7-.5,3.3-1.7,4.2l-1.2-1.7c.6-.4.9-1.3.8-2.3-.2-1.5-1.4-2.5-3-2.4-1.5.2-2.6,1.4-2.4,3.1,0,1.2.7,1.9,1.6,2.2l-.3-2.4,1.8-.2.5,4.5h-.8.2Z"/><path class="cls-11" d="m212.8,328.5c-8.5-.2-17.8-.2-26.3,0-14.8,1.9-22,20.9-11.6,31.8,2.2,3.3-1.6,9.5,2.3,11.8,3.3,1,5.2-3.4,7.4-5.1,9.2-1,20.3.5,29.8-.5,22.1-2.9,20.7-37.2-1.6-38.2v.2Z"/><path d="m190.9,344.8c1.7,0,3.2.5,4.4,1.5s1.7,2.5,1.7,4.3-.6,3.4-1.9,4.5c-1.3,1.1-2.8,1.6-4.7,1.6s-2.9-.3-4.1-1c-1.2-.7-2-1.7-2.5-3l4-2.3c.4,1.2,1.2,1.9,2.6,1.9s1.1,0,1.5-.4c.3-.3.5-.7.5-1.2s-.2-.9-.5-1.2-.8-.4-1.4-.4h-5.7l.7-10.5h10.5v4.4h-6.3v1.9c0,0,1.1,0,1.1,0h.1Z"/><path d="m216.6,346.1v1.8c0,2.6-.8,4.7-2.5,6.4-1.6,1.6-3.8,2.4-6.4,2.4s-5.1-.9-6.9-2.7c-1.8-1.8-2.7-4-2.7-6.6s.9-4.8,2.7-6.6c1.8-1.8,4-2.7,6.6-2.7s3.2.4,4.6,1.1c1.4.7,2.5,1.7,3.2,3l-3.9,2.2c-.4-.6-.9-1-1.6-1.3s-1.5-.5-2.3-.5c-1.4,0-2.6.5-3.5,1.4s-1.4,2.1-1.4,3.5.4,2.5,1.3,3.5c.9,1,2.1,1.4,3.8,1.4s3.4-.8,4.1-2.3h-4.3v-3.9h9.2Z"/><circle class="cls-4" cx="56.6" cy="200" r="45"/><path d="m21.2,197.5c-2.5-.5-4-2.8-3.4-5.3.3-1.5,1.4-2.7,2.7-3.2l.6,1.9c-.7.2-1.3.9-1.5,1.7-.3,1.5.5,2.7,2,3,1.5.3,2.7-.4,3-1.9.2-.8,0-1.7-.6-2.2l1.3-1.4c1,1,1.5,2.5,1.2,4-.6,2.5-2.8,3.9-5.3,3.4Z"/><path d="m24.5,189c-1.6-.8-2.2-2.7-1.4-4.4.8-1.6,2.7-2.3,4.3-1.5,1.6.8,2.2,2.7,1.4,4.4-.8,1.6-2.7,2.3-4.3,1.5Zm2.1-4.2c-.8-.4-1.6,0-1.9.6s-.1,1.5.7,1.9c.8.4,1.6,0,1.9-.6.4-.7.1-1.5-.7-1.9Z"/><path d="m33.7,174.7l2.8,2.5-1.2,1.4-2.7-2.4c-.5-.4-.9-.5-1.3,0s-.3,1,.2,1.5l2.6,2.3-1.2,1.4-2.7-2.4c-.5-.4-.9-.5-1.3,0s-.3,1,.2,1.5l2.6,2.3-1.2,1.4-4.5-4.1,1.2-1.4.4.4c-.1-.5,0-1.1.6-1.7s1.1-.7,1.7-.6c-.1-.6,0-1.2.6-1.9.9-1,2.3-1,3.4,0l-.2-.2Z"/><path d="m38.9,168.6l3.3,5.2-1.6,1-.3-.5c0,.6-.4,1.1-1.1,1.6-1,.7-2.4.5-3.3-.9l-2-3.2,1.6-1,1.9,3c.4.6,1,.7,1.5.4.6-.4.8-.9.3-1.7l-1.8-2.8,1.6-1h-.1Z"/><path d="m47.2,167.9l1.3,3.5-1.7.6-1.2-3.3c-.3-.7-.8-.9-1.4-.7-.6.2-.9.8-.7,1.6l1.1,3.2-1.7.6-2.1-5.8,1.7-.6.2.5c.2-.5.6-1,1.4-1.3,1.2-.4,2.5,0,3,1.6h.1Z"/><path d="m47.9,163.7c0-.6.3-1.2.9-1.3s1.2.3,1.3.9c0,.6-.3,1.2-.9,1.3-.6.1-1.2-.3-1.3-.9Zm.5,1.6l1.8-.3,1.1,6-1.8.3-1.1-6Z"/><path d="m51.9,167.7c0-1.8,1.3-3.3,3.1-3.3s2.3.6,2.8,1.5l-1.6,1c-.2-.4-.7-.7-1.2-.7-.8,0-1.4.6-1.3,1.5,0,.8.6,1.4,1.4,1.4s1-.3,1.2-.7l1.6.9c-.5,1-1.5,1.6-2.7,1.7-1.9,0-3.3-1.3-3.3-3.1v-.2Z"/><path d="m65.5,165.7l-1.1,6-1.8-.3v-.6c-.4.4-1,.6-1.8.4-1.6-.3-2.6-1.9-2.3-3.7s1.9-2.9,3.5-2.7c.8.1,1.3.5,1.7,1.1v-.6c0,0,1.9.3,1.9.3h-.1Zm-2.4,2.7c.2-.9-.3-1.6-1.2-1.7s-1.5.3-1.7,1.2c-.2.9.3,1.6,1.2,1.7.8.2,1.5-.3,1.7-1.2Z"/><path d="m69.1,168.9l-.8,2c-.2.5.2.7,1,1l-.6,1.6c-2.3-.6-2.7-1.6-2.1-3.2l.8-2-.9-.4.6-1.6.9.4.4-1.1,1.9.2-.6,1.6,1.2.5-.6,1.6-1.2-.5h0Z"/><path d="m72.3,168.4l1.6.9-2.9,5.4-1.6-.9,2.9-5.4Zm.6-1.5c.3-.5,1-.7,1.5-.5.5.3.7,1,.5,1.5-.3.5-1,.7-1.5.5s-.7-1-.5-1.5Z"/><path d="m73.6,172.5c1.1-1.4,3.1-1.7,4.5-.6s1.7,3.1.6,4.5-3.1,1.7-4.5.6-1.7-3.1-.6-4.5Zm3.7,2.8c.5-.7.4-1.5-.2-2s-1.5-.4-2,.3c-.5.7-.4,1.5.2,2s1.5.4,2-.3Z"/><path d="m84,181.5l-2.9,2.4-1.2-1.4,2.7-2.2c.6-.5.6-1.1.2-1.5-.4-.5-1-.6-1.7,0l-2.6,2.1-1.2-1.4,4.7-3.9,1.2,1.4-.4.4c.6,0,1.2.2,1.7.9.8,1,.8,2.3-.5,3.4v-.2Z"/><path d="m85.6,189.6l-.4-.8-1.2.6-.9-1.8,1.2-.6-1.8-3.5,1.6-.8h6l1,1.8h-6l.8,1.6,1.6-.8.9,1.8-1.6.8.4.8-1.6.8h0Z"/><path d="m90.4,197.9c-2.6.6-4.5-.9-5-3.2-.6-2.6.9-5,3.3-5.5s4.8,1,5.3,3.4c.4,1.6,0,3.1-1.1,4.1l-1.3-1.4c.5-.5.7-1.3.5-2.3-.3-1.4-1.6-2.2-3.1-1.9-1.4.3-2.2,1.5-1.9,3.2.2,1.1.9,1.7,1.8,1.9l-.5-2.2,1.7-.4.9,4.2-.7.2h0Z"/><path class="cls-20" d="m68.4,188c-8.5-.2-17.8-.2-26.3,0-14.8,1.9-22,20.9-11.6,31.8,2.2,3.3-1.6,9.5,2.3,11.8,3.3,1,5.2-3.4,7.4-5.1,9.2-1,20.3.5,29.8-.5,22.1-2.9,20.7-37.2-1.6-38.2v.2Z"/><path d="m53.6,209v4.2h-1.8v2.7h-4.5v-2.7h-7.8v-4.2l5.3-10.9h5l-5.4,11h2.8v-3.2h4.5v3.2h1.9Z"/><path d="m72.9,205.6v1.8c0,2.6-.8,4.7-2.5,6.4-1.6,1.6-3.8,2.4-6.4,2.4s-5.1-.9-6.9-2.7c-1.8-1.8-2.7-4-2.7-6.6s.9-4.8,2.7-6.6,4-2.7,6.6-2.7,3.2.4,4.6,1.1c1.4.7,2.5,1.7,3.2,3l-3.9,2.2c-.4-.6-.9-1-1.6-1.3-.7-.3-1.5-.5-2.3-.5-1.4,0-2.6.5-3.5,1.4s-1.4,2.1-1.4,3.5.4,2.5,1.3,3.5c.9,1,2.1,1.4,3.8,1.4s3.4-.8,4.1-2.3h-4.3v-3.9h9.2Z"/><circle class="cls-4" cx="343.4" cy="200" r="45"/><path d="m308.7,196.5c-2.5-.5-4-2.8-3.4-5.3.3-1.5,1.4-2.7,2.7-3.2l.6,1.9c-.7.2-1.3.9-1.5,1.7-.3,1.5.5,2.7,2,3,1.5.3,2.7-.4,3-1.9.2-.8,0-1.7-.6-2.2l1.3-1.4c1,1,1.5,2.5,1.2,4-.6,2.5-2.8,3.9-5.3,3.4Z"/><path d="m312.1,188c-1.6-.8-2.2-2.7-1.4-4.4.8-1.6,2.7-2.3,4.3-1.5s2.2,2.7,1.4,4.4c-.8,1.6-2.7,2.3-4.3,1.5Zm2.1-4.2c-.8-.4-1.6,0-1.9.6-.4.7-.1,1.5.7,1.9s1.6,0,1.9-.6c.4-.7.1-1.5-.7-1.9Z"/><path d="m321.3,173.7l2.8,2.5-1.2,1.4-2.7-2.4c-.5-.4-.9-.5-1.3,0s-.3,1,.2,1.5l2.6,2.3-1.2,1.4-2.7-2.4c-.5-.4-.9-.5-1.3,0s-.3,1,.2,1.5l2.6,2.3-1.2,1.4-4.5-4.1,1.2-1.4.4.4c-.1-.5,0-1.1.6-1.7s1.1-.7,1.7-.6c-.1-.6,0-1.2.6-1.9.9-1,2.3-1,3.4,0l-.2-.2Z"/><path d="m326.4,167.6l3.3,5.2-1.6,1-.3-.5c0,.6-.4,1.1-1.1,1.6-1,.7-2.4.5-3.3-.9l-2-3.2,1.6-1,1.9,3c.4.6,1,.7,1.5.4.6-.4.8-.9.3-1.7l-1.8-2.8,1.6-1h-.1Z"/><path d="m334.8,166.9l1.3,3.5-1.7.6-1.2-3.3c-.3-.7-.8-.9-1.4-.7-.6.2-.9.8-.7,1.6l1.1,3.2-1.7.6-2.1-5.8,1.7-.6.2.5c.2-.5.6-1,1.4-1.3,1.2-.4,2.5,0,3,1.6h.1Z"/><path d="m335.4,162.7c0-.6.3-1.2.9-1.3s1.2.3,1.3.9c0,.6-.3,1.2-.9,1.3-.6.1-1.2-.3-1.3-.9Zm.5,1.6l1.8-.3,1.1,6-1.8.3-1.1-6Z"/><path d="m339.5,166.7c0-1.8,1.3-3.3,3.1-3.3s2.3.6,2.8,1.5l-1.6,1c-.2-.4-.7-.7-1.2-.7-.8,0-1.4.6-1.3,1.5,0,.8.6,1.4,1.4,1.4s1-.3,1.2-.7l1.6.9c-.5,1-1.5,1.6-2.7,1.7-1.9,0-3.3-1.3-3.3-3.1v-.2Z"/><path d="m353.1,164.7l-1.1,6-1.8-.3v-.6c-.4.4-1,.6-1.8.4-1.6-.3-2.6-1.9-2.3-3.7.3-1.8,1.9-2.9,3.5-2.7.8.1,1.3.5,1.7,1.1v-.6c0,0,1.9.3,1.9.3h-.1Zm-2.4,2.7c.2-.9-.3-1.6-1.2-1.7-.8-.2-1.5.3-1.7,1.2s.3,1.6,1.2,1.7c.8.2,1.5-.3,1.7-1.2Z"/><path d="m356.6,167.9l-.8,2c-.2.5.2.7,1,1l-.6,1.6c-2.3-.6-2.7-1.6-2.1-3.2l.8-2-.9-.4.6-1.6.9.4.4-1.1,1.9.2-.6,1.6,1.2.5-.6,1.6-1.2-.5h0Z"/><path d="m359.8,167.4l1.6.9-2.9,5.4-1.6-.9,2.9-5.4Zm.6-1.5c.3-.5,1-.7,1.5-.5.5.3.7,1,.5,1.5-.3.5-1,.7-1.5.5-.5-.3-.7-1-.5-1.5Z"/><path d="m361.1,171.5c1.1-1.4,3.1-1.7,4.5-.6s1.7,3.1.6,4.5c-1.1,1.5-3.1,1.7-4.5.6s-1.7-3.1-.6-4.5Zm3.7,2.8c.5-.7.4-1.5-.2-2s-1.5-.4-2,.3-.4,1.5.2,2,1.5.4,2-.3Z"/><path d="m371.5,180.4l-2.9,2.4-1.2-1.4,2.7-2.2c.6-.5.6-1.1.2-1.5-.4-.5-1-.6-1.7,0l-2.6,2.1-1.2-1.4,4.7-3.9,1.2,1.4-.4.4c.6,0,1.2.2,1.7.9.8,1,.8,2.3-.5,3.4v-.2Z"/><path d="m374.1,187.4c-1.7.9-3.2,0-4-1.4-.6-1.2-.6-2.5.2-3.5l1.6,1c-.4.4-.5.9-.2,1.6.4.7.9.8,1.4.6s.7-.8.3-1.5l-.2-.4.6-1.2,2.5.5-1.5-2.8,1.6-.9,2.6,4.9-1.4.7-2.4-.4c.2,1.1-.2,2.2-1.3,2.7h.2Z"/><path d="m377.9,196.5c-2.6.6-4.5-.8-5.1-3.2-.6-2.6.9-5,3.3-5.5,2.4-.6,4.8.9,5.4,3.4.4,1.6,0,3.1-1.1,4.1l-1.3-1.4c.5-.5.7-1.3.5-2.3-.3-1.4-1.6-2.2-3.1-1.9-1.4.3-2.2,1.6-1.9,3.2.3,1.1.9,1.7,1.8,1.8l-.5-2.2,1.7-.4,1,4.2-.7.2Z"/><path class="cls-1" d="m356.2,188c-8.5-.2-17.8-.2-26.3,0-14.8,1.9-22,20.9-11.6,31.8,2.2,3.3-1.6,9.5,2.3,11.8,3.3,1,5.2-3.4,7.4-5.1,9.2-1,20.3.5,29.8-.5,22.1-2.9,20.7-37.2-1.6-38.2v.2Z"/><path d="m336.4,205.3c1.1.4,2.1,1,2.8,1.8s1,1.9,1,3.1c0,1.9-.6,3.4-1.9,4.4-1.3,1-2.8,1.6-4.7,1.6s-2.8-.3-3.9-1c-1.1-.7-2-1.7-2.5-3l4-2.3c.4,1.2,1.2,1.9,2.4,1.9s1.1-.2,1.5-.5c.3-.3.5-.7.5-1.2s-.2-.9-.5-1.2-.8-.4-1.5-.4h-1l-1.8-2.6,2.9-3.5h-6v-4.4h11.6v3.6l-3,3.7h0Z"/><path d="m359.9,205.6v1.8c0,2.6-.8,4.7-2.5,6.4-1.6,1.6-3.8,2.4-6.4,2.4s-5.1-.9-6.9-2.7c-1.8-1.8-2.7-4-2.7-6.6s.9-4.8,2.7-6.6,4-2.7,6.6-2.7,3.2.4,4.6,1.1c1.4.7,2.5,1.7,3.2,3l-3.9,2.2c-.4-.6-.9-1-1.6-1.3-.7-.3-1.5-.5-2.3-.5-1.4,0-2.6.5-3.5,1.4-.9.9-1.4,2.1-1.4,3.5s.4,2.5,1.3,3.5c.9,1,2.1,1.4,3.8,1.4s3.4-.8,4.1-2.3h-4.3v-3.9h9.2Z"/><circle class="cls-4" cx="200.9" cy="58.4" r="45"/><path d="m166.2,54.9c-2.5-.5-4-2.8-3.4-5.3.3-1.5,1.4-2.7,2.7-3.2l.6,1.9c-.7.2-1.3.9-1.5,1.7-.3,1.5.5,2.7,2,3s2.7-.4,3-1.9c.2-.8,0-1.7-.6-2.2l1.3-1.4c1,1,1.5,2.5,1.2,4-.6,2.5-2.8,3.9-5.3,3.4Z"/><path d="m169.6,46.4c-1.6-.8-2.2-2.7-1.4-4.4.8-1.6,2.7-2.3,4.3-1.5s2.2,2.7,1.4,4.4c-.8,1.6-2.7,2.3-4.3,1.5Zm2.1-4.2c-.8-.4-1.6,0-1.9.6-.4.7-.1,1.5.7,1.9s1.6,0,1.9-.6c.4-.7.1-1.5-.7-1.9Z"/><path d="m178.8,32.1l2.8,2.5-1.2,1.4-2.7-2.4c-.5-.4-.9-.5-1.3,0s-.3,1,.2,1.5l2.6,2.3-1.2,1.4-2.7-2.4c-.5-.4-.9-.5-1.3,0s-.3,1,.2,1.5l2.6,2.3-1.2,1.4-4.5-4.1,1.2-1.4.4.4c-.1-.5,0-1.1.6-1.7s1.1-.7,1.7-.6c-.1-.6,0-1.2.6-1.9.9-1,2.3-1,3.4,0l-.2-.2Z"/><path d="m183.9,26l3.3,5.2-1.6,1-.3-.5c0,.6-.4,1.1-1.1,1.6-1,.7-2.4.5-3.3-.9l-2-3.2,1.6-1,1.9,3c.4.6,1,.7,1.5.4.6-.4.8-.9.3-1.7l-1.8-2.8,1.6-1h-.1Z"/><path d="m192.3,25.3l1.3,3.5-1.7.6-1.2-3.3c-.3-.7-.8-.9-1.4-.7-.6.2-.9.8-.7,1.6l1.1,3.2-1.7.6-2.1-5.8,1.7-.6.2.5c.2-.5.6-1,1.4-1.3,1.2-.4,2.5,0,3,1.6h.1Z"/><path d="m192.9,21.1c0-.6.3-1.2.9-1.3s1.2.3,1.3.9c0,.6-.3,1.2-.9,1.3-.6.1-1.2-.3-1.3-.9Zm.5,1.6l1.8-.3,1.1,6-1.8.3-1.1-6Z"/><path d="m197,25.1c0-1.8,1.3-3.3,3.1-3.3s2.3.6,2.8,1.5l-1.6,1c-.2-.4-.7-.7-1.2-.7-.8,0-1.4.6-1.3,1.5,0,.8.6,1.4,1.4,1.4s1-.3,1.2-.7l1.6.9c-.5,1-1.5,1.6-2.7,1.7-1.9,0-3.3-1.3-3.3-3.1v-.2Z"/><path d="m210.6,23.1l-1.1,6-1.8-.3v-.6c-.4.4-1,.6-1.8.4-1.6-.3-2.6-1.9-2.3-3.7s1.9-2.9,3.5-2.7,1.3.5,1.7,1.1v-.6c0,0,1.9.3,1.9.3h-.1Zm-2.4,2.7c.2-.9-.3-1.6-1.2-1.7-.8-.2-1.5.3-1.7,1.2s.3,1.6,1.2,1.7c.8.2,1.5-.3,1.7-1.2Z"/><path d="m214.1,26.3l-.8,2c-.2.5.2.7,1,1l-.6,1.6c-2.3-.6-2.7-1.6-2.1-3.2l.8-2-.9-.4.6-1.6.9.4.4-1.1,1.9.2-.6,1.6,1.2.5-.6,1.6-1.2-.5h0Z"/><path d="m217.3,25.8l1.6.9-2.9,5.4-1.6-.9,2.9-5.4Zm.6-1.5c.3-.5,1-.7,1.5-.5.5.3.7,1,.5,1.5-.3.5-1,.7-1.5.5-.5-.3-.7-1-.5-1.5Z"/><path d="m218.6,29.9c1.1-1.4,3.1-1.7,4.5-.6s1.7,3.1.6,4.5c-1.1,1.5-3.1,1.7-4.5.6s-1.7-3.1-.6-4.5Zm3.7,2.8c.5-.7.4-1.5-.2-2s-1.5-.4-2,.3-.4,1.5.2,2,1.5.4,2-.3Z"/><path d="m229,38.8l-2.9,2.4-1.2-1.4,2.7-2.2c.6-.5.6-1.1.2-1.5-.4-.5-1-.6-1.7,0l-2.6,2.1-1.2-1.4,4.7-3.9,1.2,1.4-.4.4c.6,0,1.2.2,1.7.9.8,1,.8,2.3-.5,3.4v-.2Z"/><path d="m227.6,41l4,1.2c.7.2,1.3.3,1.8,0,.5-.3.6-.7.4-1.2-.3-.5-.8-.7-1.4-.7v-1.9c1.5-.1,2.5.6,3.1,1.7.7,1.4.5,3-1.1,3.8-.9.5-1.9.4-3,0l-1.9-.6,1.3,2.5-1.7.9-2.7-5.2,1.3-.7v.2Z"/><path d="m235.4,54.5c-2.5.6-4.5-.8-5.1-3.1-.6-2.6.8-5,3.2-5.6,2.4-.6,4.8.8,5.4,3.3.4,1.6,0,3.1-1,4.1l-1.3-1.4c.5-.5.7-1.3.5-2.3-.3-1.4-1.6-2.2-3.1-1.8-1.4.3-2.2,1.6-1.8,3.2.3,1.1.9,1.7,1.8,1.8l-.5-2.2,1.7-.4,1,4.2-.7.2h0Z"/><path class="cls-12" d="m213.7,46.4c-8.5-.2-17.8-.2-26.3,0-14.8,1.9-22,20.9-11.6,31.8,2.2,3.3-1.6,9.5,2.3,11.8,3.3,1,5.2-3.4,7.4-5.1,9.2-1,20.3.5,29.8-.5,22.1-2.9,20.7-37.2-1.6-38.2v.2Z"/><path d="m184.9,74.2v-3.3l5.9-6.2c.6-.6,1-1.2,1.3-1.6.3-.4.4-.8.4-1.2s0-.8-.4-1.1c-.3-.3-.7-.4-1.2-.4-1.1,0-1.9.6-2.4,1.9l-3.9-2.2c.6-1.3,1.4-2.4,2.5-3.1,1.1-.7,2.4-1,3.7-1s3.2.5,4.4,1.5,1.8,2.4,1.8,4.1-.2,2-.7,2.9-1.2,1.8-2.1,2.8l-2.4,2.5h5.6v4.4h-12.5Z"/><path d="m216.7,64v1.8c0,2.6-.8,4.7-2.5,6.4-1.6,1.6-3.8,2.4-6.4,2.4s-5.1-.9-6.9-2.7c-1.8-1.8-2.7-4-2.7-6.6s.9-4.8,2.7-6.6c1.8-1.8,4-2.7,6.6-2.7s3.2.4,4.6,1.1c1.4.7,2.5,1.7,3.2,3l-3.9,2.2c-.4-.6-.9-1-1.6-1.3-.7-.3-1.5-.5-2.3-.5-1.4,0-2.6.5-3.5,1.4-.9.9-1.4,2.1-1.4,3.5s.4,2.5,1.3,3.5c.9,1,2.1,1.4,3.8,1.4s3.4-.8,4.1-2.3h-4.3v-3.9h9.2Z"/></svg>