<?xml version="1.0" encoding="UTF-8"?><svg id="Layer_1" xmlns="http://www.w3.org/2000/svg" viewBox="0 0 400 433"><defs><style>.cls-1{fill:#009245;}.cls-2{stroke:#a5262d;}.cls-2,.cls-3{stroke-width:4px;}.cls-2,.cls-3,.cls-4{fill:none;stroke-miterlimit:10;}.cls-5{fill:#deb6a3;}.cls-6{fill:#fff;}.cls-7{fill:#57575e;}.cls-8{fill:#a7b4b9;}.cls-9{fill:#535454;}.cls-10{fill:#72b3e2;}.cls-3{stroke:#0018c6;}.cls-11{fill:#d9d9ea;}.cls-12{fill:#d1d1d1;}.cls-13{fill:#fbe501;}.cls-14{fill:#48459c;}.cls-15{fill:#f9f3b1;}.cls-16{fill:#434348;}.cls-17{fill:#453e43;}.cls-18{fill:#3392f5;}.cls-19{fill:#bacce9;}.cls-20{fill:#fedd46;}.cls-21{fill:#444b66;}.cls-22{fill:#656565;}.cls-23{fill:#06687f;}.cls-24{fill:#c7c7c7;}.cls-25{fill:#b68c7b;}.cls-26{fill:#f8d77c;}.cls-27{fill:#bdbdbd;}.cls-28{fill:#333;}.cls-29{fill:#ecf5fe;}.cls-4{stroke:#231f20;stroke-width:2px;}.cls-30{fill:#685e66;}.cls-31{fill:gray;}.cls-32{fill:#c6ecf9;}.cls-33{fill:#424248;}.cls-34{fill:#fbbd41;}.cls-35{fill:#199dbc;}.cls-36{fill:#3d435c;}.cls-37{fill:#01b6a0;}.cls-38{fill:#72b2e2;}.cls-39{fill:#dfc7be;}.cls-40{fill:#b9cce9;}.cls-41{fill:#aaa;}.cls-42{fill:#3392f6;}.cls-43{fill:#7dcbe5;}.cls-44{fill:#dcdcdc;}.cls-45{fill:#eecf15;}.cls-46{fill:#c6ecfa;}.cls-47{fill:#5ecaed;}.cls-48{fill:#5d707d;}.cls-49{fill:#454c67;}.cls-50{fill:#e5eff1;}.cls-51{fill:#c6d8de;}.cls-52{fill:#c4d8dd;}.cls-53{fill:#29abe2;}.cls-54{fill:#60acfd;}.cls-55{fill:#c59a85;}.cls-56{fill:#eee;}.cls-57{fill:#d7e1f2;}.cls-58{fill:#cad9df;}.cls-59{fill:#231f20;}.cls-60{fill:#c7d9de;}.cls-61{fill:#c5d8de;}.cls-62{fill:#474847;}.cls-63{fill:#9fddea;}.cls-64{fill:#6e6b87;}</style></defs><circle class="cls-2" cx="200" cy="216.5" r="45"/><path d="m180.4,187.3c1.6,2,1.2,4.9-.8,6.5l-1.6,1.2,2.6,3.3-2.4,1.9-8.3-10.4,3.9-3.1c2-1.6,4.9-1.3,6.5.7,0,0,0,0,0,0h0Zm-2.4,1.9c-.5-.7-1.4-.9-2.1-.4,0,0-.1,0-.2.1l-1.6,1.2,2.1,2.7,1.6-1.2c.7-.6.8-1.6.2-2.3,0,0,0,0,0,0h0Z"/><path d="m180.9,181.6l2.6-1.2,5.8,12.6-2.6,1.2-5.8-12.6Z"/><path d="m198.2,181.1l1.7,9.4-2.8.5-.2-.9c-.6.9-1.5,1.5-2.6,1.6-2.6.4-5-1.5-5.4-4.1,0,0,0,0,0,0-.6-2.5.9-5,3.4-5.7,0,0,.1,0,.2,0,1-.2,2.1,0,3,.6l-.2-.9,2.8-.5h0Zm-2,5.2c-.1-1.2-1.2-2.1-2.4-1.9,0,0-.1,0-.2,0-1.2.1-2,1.2-1.9,2.4,0,.1,0,.2,0,.3.1,1.2,1.2,2.1,2.4,1.9,0,0,.1,0,.2,0,1.2-.1,2-1.2,1.9-2.4,0-.1,0-.2,0-.3Z"/><path d="m208.7,188.8c-.3,2.2-2.3,2.9-4.3,2.6-1.7,0-3.2-1.2-3.8-2.8l2.6-1.1c.1.7.8,1.3,1.5,1.3.7,0,1,0,1.1-.5,0-1-4.6-1.1-4.2-4.3.3-2.1,2.1-2.9,4.1-2.6,1.5.1,2.8,1.1,3.4,2.5l-2.6,1c-.2-.5-.6-.9-1.2-1-.5,0-.8,0-.9.4,0,1.1,4.6,1,4.1,4.4h.2Z"/><path d="m214.4,186.8l-1.2,3.1c-.3.8.3,1.1,1.5,1.5l-.9,2.4c-3.6-1-4.2-2.4-3.3-4.9l1.2-3.2-1.4-.5,1-2.6,1.4.5.6-1.7,3,.2-.9,2.5,1.8.7-1,2.6-1.8-.7h0Z"/><path d="m219.7,186.2l2.4,1.5-4.9,8.2-2.3-1.5,4.8-8.2Zm1.1-2.3c.5-.8,1.5-1.1,2.3-.6.8.5,1.1,1.5.6,2.3-.5.8-1.5,1.1-2.3.6-.8-.5-1-1.5-.6-2.3,0,0,0,0,0,0h0Z"/><path d="m221.4,192.7c1.8-2,4.9-2.2,6.9-.4,0,0,.2.1.2.2,1.3,1.2,1.8,3,1.4,4.7l-2.8-.7c.2-.7,0-1.5-.6-2-.9-.8-2.3-.7-3.1.2-.8.9-.7,2.2,0,3,.5.6,1.4.8,2.1.5l.8,2.7c-1.7.5-3.5,0-4.8-1.2-2-1.9-2.1-5.1-.2-7.1,0,0,0,0,0,0h0Z"/><path class="cls-57" d="m223.4,212.7h0c0,0-1.6,0-1.6,0q-.7,0-.7.7v30.3c0,.4-.1.9-.4,1.2-.2.2-.5.2-.7.4h-10.7c0,0,0-.2,0-.3l-1.2-5.4c-.7-3.1-1.4-6.2-2.2-9.3-1.1-4.6-2.1-9.1-3.2-13.6-.9-4-1.8-8-2.7-11.9h15c.2,0,.5,0,.6.2v6.2c0,.7.6,1.3,1.3,1.4h3.8c.3,0,.4,0,.4-.4v-1.8c.1,0,.2.1.2.2l2,2Z"/><path class="cls-40" d="m223.4,244.4c-.4.8-1.3,1.3-2.1,1.1-.4,0-.8,0-1.2,0,.2-.2.5-.2.7-.4.3-.3.4-.8.4-1.2v-30.4q0-.7.7-.7h1.6v31.6Z"/><path class="cls-27" d="m179.8,204.9v-.9c-.2-.9.3-1.7,1.1-2.1h2c0,0,0,.1,0,.2.6.4.9,1.1.8,1.8,0,.4,0,.8,0,1.1h-4Z"/><path class="cls-41" d="m183.8,205v-1.1c.1-.7-.2-1.5-.8-1.9,0,0,0-.1-.1-.2h2c.9.4,1.4,1.4,1.2,2.3v.8h-2.2Z"/><path class="cls-29" d="m209.3,245.5h-6.2c0,0,0-.1,0-.2l-1.8-8-3.2-13.7c-1.1-4.6-2.1-9.2-3.2-13.9-.4-1.6-.7-3.2-1.1-4.8h6.2c.9,4,1.8,8,2.7,11.9,1.1,4.5,2.1,9.1,3.2,13.6.7,3.1,1.4,6.2,2.1,9.3.4,1.8.8,3.6,1.2,5.4,0,0,0,.2,0,.3Z"/><path class="cls-29" d="m215.6,205.1c.1,0,.3.1.3.2l5,5c0,0,.1.1.1.2v1.8c0,.3,0,.4-.4.4h-3.8c-.7,0-1.3-.6-1.3-1.4v-6.2Z"/><path class="cls-57" d="m193.8,205c.4,1.6.7,3.2,1.1,4.8,1.1,4.6,2.1,9.2,3.2,13.9l3.2,13.6,1.8,8c0,0,0,.1,0,.2h-14.1v-3c0-.5-.3-.8-.7-.8s-.8.3-.8.8v3h-9.2c-.9,0-1.7-.7-1.7-1.7,0,0,0,0,0,0v-37.1c0-.9.8-1.7,1.7-1.7,0,0,0,0,0,0h9.2v3c0,.4.2.8.6.8,0,0,0,0,0,0,.5,0,.8-.3.8-.8v-3h4.7Zm-4.7,20.3v-1.5c0-.4-.3-.7-.7-.7-.4,0-.7.3-.7.7h0v3c0,.4.2.7.6.8,0,0,0,0,.1,0,.4,0,.7-.3.7-.7,0,0,0,0,0,0,0-.5,0-1,0-1.5Zm-1.5,6.1v1.6c0,.4.3.7.7.7.4,0,.7-.3.7-.7h0v-3.1c0-.4-.4-.7-.8-.8-.4,0-.7.3-.7.7,0,0,0,0,0,0v1.5h0Zm0-12.4v1.5c0,.4.3.8.7.8h0c.4,0,.7-.4.8-.8v-2.9c0-.6-.3-.8-.7-.8s-.7.3-.7.8,0,1,0,1.5Zm0-6.3v1.5c0,.4.2.7.6.8,0,0,0,0,.1,0,.4,0,.7-.3.8-.6,0,0,0,0,0-.1v-2.9c0-.4-.2-.7-.6-.8,0,0,0,0-.1,0-.4,0-.7.3-.7.8s0,.9,0,1.4h0Zm1.5,25v-1.5c0-.5-.3-.8-.7-.8-.4,0-.7.3-.7.7,0,0,0,0,0,.1v2.9c0,.4.2.7.6.8,0,0,0,0,.1,0,.5,0,.7-.3.7-.8s0-.9,0-1.4h0Z"/><path class="cls-40" d="m189,205v3c0,.5-.3.8-.8.8s-.7-.3-.7-.8v-3h1.5Z"/><path class="cls-27" d="m179.9,245.5h3.9v1.2c0,.8-.4,1.6-1.2,1.9h-1.3c-.8,0-1.6-.6-1.6-1.5,0,0,0,0,0-.1v-1.4h.1Z"/><path class="cls-41" d="m182.6,248.6c.8-.3,1.3-1.1,1.2-1.9v-1.2h2.2c0,.6,0,1.2,0,1.8-.1.8-.8,1.3-1.6,1.3h-1.8Z"/><path class="cls-40" d="m187.6,245.5v-3c0-.5.3-.8.8-.8.4,0,.7.3.7.7,0,0,0,0,0,0v3h-1.5Z"/><path class="cls-24" d="m179.9,205h0s0,0,0,0h0Z"/><path class="cls-24" d="m179.9,245.5h0c0,0,0,0,0,0h0Z"/><path class="cls-19" d="m189.1,225.3v1.5c0,.4-.3.7-.7.7-.4,0-.7-.3-.7-.7h0v-3c0-.4.2-.7.6-.8,0,0,0,0,0,0,.4,0,.7.3.8.7,0,0,0,0,0,0,0,.5,0,1,0,1.5Z"/><path class="cls-40" d="m187.6,231.4v-1.5c0-.4.2-.7.6-.7,0,0,0,0,0,0,.4,0,.7.4.8.8v3.1c0,.4-.2.7-.6.7,0,0,0,0-.1,0-.4,0-.7-.3-.7-.7,0,0,0,0,0-.1,0-.5,0-1,0-1.5Z"/><path class="cls-40" d="m187.6,219v-1.5c0-.5.3-.8.7-.8s.7.3.7.8v2.9c0,.4-.3.8-.8.8-.4,0-.7-.4-.7-.8h0c0-.5,0-1,0-1.5Z"/><path class="cls-40" d="m187.6,212.8v-1.4c0-.5.3-.8.7-.8.4,0,.7.3.7.6,0,0,0,0,0,.1v2.9c0,.4-.3.7-.7.7-.4,0-.7-.3-.7-.7h0c0-.5,0-1,0-1.5Z"/><path class="cls-40" d="m189.1,237.7v1.4c0,.5-.3.8-.7.8-.4,0-.7-.3-.7-.6,0,0,0,0,0-.1v-2.9c0-.4.2-.7.6-.8,0,0,0,0,.1,0,.4,0,.7.3.7.8v1.4Z"/><circle class="cls-3" cx="111.5" cy="81.7" r="36"/><path class="cls-48" d="m108.9,119.5c.2-.2.5-.2.7,0h-.7Z"/><path class="cls-48" d="m110.7,119.5c0-.1.3-.2.4,0,0,0,0,0,0,0h-.5Z"/><path class="cls-30" d="m123.1,106.7h-25.8c-1.5-.3-2.9-1-4-2.1-1.2-1.2-1.8-2.7-1.8-4.4v-21.3c0-3,2-5.5,4.9-6.2l.9-.2h25.8c3,.4,5.3,2.7,5.8,5.7v21.9c0,3-2.3,5.8-5,6.3-.3,0-.6.2-.8.2h0Zm-12.9-31.2h-9.8c-3,0-5.5,2.3-5.6,5.3,0,0,0,.2,0,.2v17.2c0,3,2.4,5.5,5.4,5.5,0,0,.2,0,.2,0h19.6c.5,0,1,0,1.4-.2,2.5-.6,4.2-2.9,4.2-5.4v-16.7c.2-3-2.1-5.6-5.1-5.8-.2,0-.5,0-.7,0h-9.6Z"/><path class="cls-47" d="m128.9,92.3v-5.5h1.6c.4,0,.8.3.9.7,0,0,0,.1,0,.2v3.8c0,.4-.3.8-.7.9,0,0-.1,0-.2,0h-1.6Z"/><path d="m79.1,80.3l.6-2.1,6.6.5-5.6-3.7.6-1.6,6.7.3-5.7-3.5.7-2.1,8,5.3-.7,2.3-5.7-.2,4.7,3.1-.7,2.3-9.6-.4v-.2Z"/><path d="m91.3,62.3l5,4.2-1.3,1.5-.5-.4c.1.7-.1,1.5-.6,2-1.4,1.4-3.6,1.3-5,0-1.2-1.2-1.3-3-.4-4.4.4-.6,1.1-.9,1.8-1l-.5-.4,1.3-1.5h0Zm1.3,3.6c-.7-.6-1.7-.5-2.3.2-.6.7-.5,1.7.2,2.3.7.6,1.7.5,2.3-.2,0,0,0,0,0,0,.6-.6.5-1.5,0-2.1,0,0-.1,0-.2-.1h0Z"/><path d="m96.5,60.7l1.4,1.9c.3.5.7.2,1.4-.3l1,1.4c-1.9,1.7-3,1.5-4.1,0l-1.4-1.9-.9.6-1.1-1.5.9-.6-.7-1,1.3-1.6,1,1.5,1.1-.8,1.1,1.5-1.1.8Z"/><path d="m99.1,60.6c-.8-1.7,0-3.7,1.7-4.5,0,0,.1,0,.2,0,1.1-.5,2.4-.3,3.4.4l-1.2,1.6c-.4-.3-1-.4-1.4-.2-.7.5-.9,1.5-.4,2.2.4.5,1,.8,1.6.6.5-.2.9-.7.9-1.2l2,.2c-.3,1.9-2,3.2-3.9,3-1.2-.2-2.3-1-2.7-2.2h0Z"/><path d="m112.4,56.4l.4,4-2,.2-.4-3.8c0-.6-.5-1.1-1.1-1.1,0,0-.1,0-.2,0-.7,0-1.2.6-1,1.5l.4,3.6-2,.2-1-9.2,2-.2.3,3.2c.4-.6,1.1-1,1.8-1,1.4-.2,2.6.6,2.7,2.5h0Z"/><path d="m120.7,55.2l1.2.3-.5,1.8-1.2-.3-1.2,4.6-1.9-.5,1.2-4.6-.9-.2.5-1.8.9.2c.5-1.8,1.7-2.6,3.8-1.9l-.5,1.8c-.7-.2-1.2-.2-1.4.6Z"/><path d="m126.9,57.6l-1,2c-.6-.6-1.6-.5-2.1.1-.1.1-.2.3-.3.4l-1.3,2.7-1.8-.8,2.7-6,1.8.8-.5,1c.6-.6,1.6-.8,2.3-.3h0Z"/><path d="m133.8,62.8l-4.2,5.1-1.5-1.3.4-.5c-.7.1-1.5-.1-2-.6-1.4-1.4-1.4-3.6,0-5,1.2-1.2,3-1.3,4.4-.5.6.4,1,1.1,1,1.8l.4-.5,1.5,1.3h0Zm-3.6,1.4c.6-.6.5-1.5,0-2.1,0,0-.1,0-.2-.1-.7-.5-1.7-.4-2.2.2-.6.6-.5,1.5,0,2.1,0,0,.1,0,.2.1.7.5,1.7.4,2.2-.2Z"/><path d="m138.7,74.9l-3.5,2-1-1.8,3.4-1.9c.5-.2.7-.7.6-1.2,0,0,0-.1,0-.2-.3-.6-.9-.6-1.6-.3l-3.2,1.8-1-1.8,3.4-1.9c.5-.2.7-.7.6-1.2,0,0,0-.1,0-.2-.3-.6-.9-.6-1.6-.3l-3.2,1.8-1-1.8,5.8-3.3,1,1.8-.6.3c.7,0,1.3.5,1.6,1.1.4.6.4,1.3,0,1.9.7,0,1.4.5,1.7,1.2.7,1.2.3,2.7-.9,3.4,0,0-.2,0-.3.1v.2Z"/><path d="m137.1,80.7c0,.5.3,1,.7,1.2l-.6,1.7c-1-.5-1.7-1.5-1.8-2.6-.4-1.9.8-3.7,2.6-4.1,0,0,.2,0,.2,0,1.9-.3,3.6,1,3.9,2.9.3,1.9-1,3.6-2.9,3.9h-.8l-.7-4.6c-.6.3-.9,1-.7,1.7h0Zm2.6.9c.6-.3.9-.9.8-1.5,0-.7-.6-1.2-1.3-1.3l.4,2.8h0Z"/><path class="cls-38" d="m300.6,327.8c2.6-.1,5.1.8,7,2.6.5.3.6,1,.2,1.4-.3.4-.9.4-1.4,0-1.4-1.4-3.4-2.2-5.4-2.1-1.7,0-3.3.7-4.6,1.8-.1.2-.3.3-.5.4-.4.3-1,.2-1.3-.1,0,0,0,0,0,0-.3-.4-.3-.8,0-1.2.5-.5,1.1-.9,1.7-1.3,1.3-.9,2.8-1.4,4.4-1.4h0Z"/><path class="cls-10" d="m301,331.2c1.8,0,3.4.6,4.7,1.8.6.5.6,1,.2,1.4-.4.4-1,.4-1.4,0,0,0,0,0,0,0-1.9-1.8-4.8-1.8-6.7,0-.6.5-1,.5-1.4,0s-.3-1,.2-1.4c1.2-1.1,2.8-1.8,4.5-1.8h0Z"/><path class="cls-10" d="m301,334.5c1.1,0,2.1.4,2.9,1.1.4.3.5.9.2,1.3h0c-.3.4-.9.5-1.3.2,0,0,0,0,0,0h0c-.9-.9-2.4-.9-3.3,0-.3.4-.8.4-1.1.2,0,0-.1,0-.2-.2h0c-.3-.5-.2-1.1.2-1.4,0,0,0,0,0,0h0c.8-.7,1.8-1.1,2.8-1.1h-.2Z"/><path class="cls-1" d="m317.5,354.5c-1.2-4.2,2.6-13.2-3.9-13.8h-24.8c-7,.2-3.1,9.4-4.3,13.8v5.4c1.2,4.2-2.6,12.9,3.7,13.8h25.6c6.3-.8,2.6-9.6,3.8-13.8v-5.4Z"/><circle class="cls-3" cx="301" cy="344.6" r="36"/><path d="m282.1,330.5l-1,1.8-4.6-2.6,2.2,3.8v.2l-4.6.2,4.6,2.6-1,1.8-7.8-4.4,1-1.8,4.6-.2-2.3-4.1,1-1.8,7.8,4.4h0Z"/><path d="m280.3,328c-1.2-1.4-1.1-3.5.2-4.7,0,0,0,0,0,0,1.4-1.2,3.6-1.1,4.8.3,1.2,1.4,1.1,3.5-.2,4.7,0,0,0,0,0,0-1.4,1.2-3.6,1.1-4.8-.3Zm3.7-3.2c-.6-.6-1.5-.6-2,0-.6.6-.6,1.5,0,2,.5.6,1.4.6,2,0,.6-.5.7-1.3.2-1.9,0,0,0-.1-.1-.2Z"/><path d="m290.2,314.8l3.7,8.2-1.8.8-.2-.6c-.2.7-.8,1.3-1.4,1.5-1.6.7-3.4,0-4.1-1.6,0,0,0-.1,0-.2-.8-1.5-.3-3.4,1.3-4.3,0,0,0,0,0,0,.7-.3,1.4-.3,2.1,0l-1.3-2.9,1.8-.8Zm.6,6c-.4-.7-1.3-1-2-.6-.7.4-1,1.3-.6,2,.4.7,1.2,1,1.9.7.8-.3,1.1-1.2.8-2,0,0,0,0,0-.1Z"/><path d="m297.8,320.8c.5,0,.9-.2,1.1-.6l1.7.6c-.5,1-1.5,1.6-2.6,1.7-1.8.4-3.6-.8-4-2.6,0,0,0-.2,0-.3-.3-1.8.9-3.5,2.7-3.8,0,0,.1,0,.2,0,1.7-.3,3.4.9,3.7,2.7,0,0,0,.1,0,.2v.8l-4.5.6c.3.6,1,.9,1.7.6h0Zm.9-2.5c-.2-.6-.9-1-1.5-.8-.6,0-1.2.6-1.3,1.2l2.7-.4h0Z"/><path d="m311.6,319.7l-.8,3.8-1.8-.4.8-3.7c.2-.6,0-1.1-.7-1.2s-1,.2-1.2,1l-.7,3.5-1.8-.4.8-3.7c.2-.6,0-1.1-.7-1.2s-1,.2-1.2,1l-.7,3.5-1.8-.4,1.4-6.2,1.8.4-.2.6c.5-.4,1.2-.6,1.8-.4.7.1,1.2.6,1.4,1.2.6-.5,1.3-.6,2-.5,1.4.3,2.2,1.5,1.8,3.1h-.2Z"/><path d="m313.8,320.1l4.2,2.5-1,1.6-4.2-2.5,1-1.6Z"/><path d="m322.5,329.5c-1.1,1.2-3,1.2-4.2,0,0,0-.2-.2-.2-.3-1-.9-1.3-2.3-.9-3.6l2,.6c-.3.5-.2,1.2.3,1.6.4.5,1,.6,1.5.2,0,0,0,0,0,0,.4-.4.5-1-.2-1.6l-.3-.3.2-1.4,2.6-.3-2.3-2.3,1.4-1.4,4.1,4.1-1.2,1.2-2.5.3c.6,1,.4,2.3-.4,3.1h0Z"/><path d="m328.6,337.8c-2,1.1-4.6.4-5.7-1.6,0-.1-.1-.2-.2-.4-1.2-2.3-.3-5.1,2-6.2,2.3-1.2,5.1-.3,6.2,2h0c.7,1.4.7,3,0,4.4l-1.7-1.1c.4-.7.4-1.7,0-2.4-.6-1.3-2.2-1.9-3.5-1.2,0,0,0,0,0,0-1.3.6-1.9,2.1-1.3,3.4,0,.1,0,.2.2.3.4.9,1.3,1.5,2.2,1.4l-1-2.2,1.6-.8,2,4-.7.3h0Z"/><path d="m294.9,355.2c.9.3,1.8.8,2.4,1.6.6.8.9,1.7.9,2.7,0,1.5-.5,2.9-1.7,3.9-1.2.9-2.6,1.4-4.1,1.4-1.2,0-2.4-.2-3.4-.9-1-.6-1.8-1.5-2.2-2.6l3.5-2c.2,1,1.1,1.7,2.2,1.6,1.1,0,1-.2,1.3-.4.6-.5.6-1.4.2-1.9,0,0,0-.1-.2-.2-.4-.3-.8-.4-1.3-.4h-.9l-1.5-2.2,2.5-3h-5.3v-3.8h10.2v3.1l-2.6,3.2h.1Z"/><path d="m315.6,355.5v1.6c.2,4.1-3,7.6-7,7.8-.2,0-.5,0-.7,0-2.2,0-4.4-.8-6-2.3-1.5-1.5-2.4-3.6-2.3-5.8,0-2.2.8-4.3,2.3-5.8,1.5-1.6,3.6-2.4,5.8-2.4,1.4-.1,2.8.2,4,1,1.2.6,2.2,1.5,2.9,2.6l-3.4,1.9c-.4-.5-.8-.9-1.4-1.2-.6-.3-1.4-.5-2.1-.5-1.1,0-2.2.4-3,1.2-.8.8-1.2,2-1.2,3.1,0,1.1.4,2.2,1.2,3,.9.9,2.1,1.3,3.3,1.3,1.4,0,3-.7,3.6-2.1h-3.8v-3.4h7.8Z"/><path class="cls-38" d="m46,205.8c2.6-.1,5.1.8,7,2.6.5.3.6,1,.2,1.4-.3.4-.9.4-1.4,0-1.4-1.4-3.4-2.2-5.4-2.1-1.7,0-3.3.7-4.6,1.8-.1.2-.3.3-.5.4-.4.3-1,.2-1.3-.1,0,0,0,0,0,0-.3-.4-.3-.8,0-1.2.5-.5,1.1-.9,1.7-1.3,1.3-.9,2.8-1.4,4.4-1.4h0Z"/><path class="cls-10" d="m46.4,209.2c1.8,0,3.4.6,4.7,1.8.6.5.6,1,.2,1.4-.4.4-1,.4-1.4,0,0,0,0,0,0,0-1.9-1.8-4.8-1.8-6.7,0-.6.5-1,.5-1.4,0s-.3-1,.2-1.4c1.2-1.1,2.8-1.8,4.5-1.8h0Z"/><path class="cls-10" d="m46.5,212.5c1.1,0,2.1.4,2.9,1.1.4.3.5.9.2,1.3h0c-.3.4-.9.5-1.3.2,0,0,0,0,0,0h0c-.9-.9-2.4-.9-3.3,0-.3.4-.8.4-1.1.2,0,0-.1,0-.2-.2h0c-.3-.5-.2-1.1.2-1.4,0,0,0,0,0,0h0c.8-.7,1.8-1.1,2.8-1.1h-.2Z"/><path class="cls-20" d="m63,232.5c-1.2-4.2,2.6-13.2-3.9-13.8h-24.8c-7,.2-3.1,9.4-4.3,13.8v5.4c1.2,4.2-2.6,12.9,3.7,13.8h25.6c6.3-.8,2.6-9.6,3.8-13.8v-5.4Z"/><circle class="cls-3" cx="46.5" cy="222.6" r="36"/><path d="m27.6,208.5l-1,1.8-4.6-2.6,2.2,3.8v.2l-4.6.2,4.6,2.6-1,1.8-7.8-4.4,1-1.8,4.6-.2-2.3-4.1,1-1.8,7.8,4.4h0Z"/><path d="m25.8,206c-1.2-1.4-1.1-3.5.2-4.7,0,0,0,0,0,0,1.4-1.2,3.6-1.1,4.8.3,1.2,1.4,1.1,3.6-.3,4.8s-3.6,1.1-4.8-.3h0Zm3.7-3.2c-.6-.6-1.5-.6-2,0-.6.6-.6,1.5,0,2,.5.6,1.4.6,2,0,.6-.5.7-1.3.2-1.9,0,0,0-.1-.1-.2Z"/><path d="m35.7,192.8l3.7,8.2-1.8.8-.2-.6c-.2.7-.8,1.3-1.4,1.5-1.6.7-3.4,0-4.1-1.6,0,0,0-.1,0-.2-.8-1.5-.3-3.4,1.3-4.3,0,0,0,0,0,0,.7-.3,1.4-.3,2.1,0l-1.3-2.9,1.8-.8Zm.6,6c-.4-.7-1.3-1-2-.6-.7.4-1,1.3-.6,2,.4.7,1.2,1,1.9.7.8-.3,1.1-1.2.8-2,0,0,0,0,0-.1h0Z"/><path d="m43.2,198.8c.5,0,.9-.2,1.1-.6l1.7.6c-.5,1-1.5,1.6-2.6,1.7-1.8.4-3.6-.8-4-2.6,0,0,0-.2,0-.3-.3-1.8.9-3.5,2.7-3.8,0,0,.1,0,.2,0,1.7-.3,3.4.9,3.7,2.7,0,0,0,.1,0,.2v.8l-4.5.6c.3.6,1,.9,1.7.6h0Zm.9-2.5c-.2-.6-.9-1-1.5-.8-.6,0-1.2.6-1.3,1.2l2.7-.4h0Z"/><path d="m57.1,197.7l-.8,3.8-1.8-.4.8-3.7c.2-.6,0-1.1-.7-1.2s-1,.2-1.2,1l-.7,3.5-1.8-.4.8-3.7c.2-.6,0-1.1-.7-1.2s-1,.2-1.2,1l-.7,3.5-1.8-.4,1.4-6.2,1.8.4-.2.6c.5-.4,1.2-.6,1.8-.4.7.1,1.2.6,1.4,1.2.6-.5,1.3-.6,2-.5,1.4.3,2.2,1.5,1.8,3.1h-.2Z"/><path d="m59.2,198.1l4.2,2.5-1,1.6-4.2-2.5,1-1.6Z"/><path d="m68,207.5c-1.1,1.2-3,1.2-4.2,0,0,0-.2-.2-.2-.3-1-.9-1.4-2.3-.9-3.6l2,.6c-.3.6-.2,1.3.3,1.7.4.5,1,.6,1.5.2,0,0,0,0,0,0,.4-.4.4-1,0-1.4,0,0,0,0-.1-.1l-2-2,3.9-3.4,3.7,3.7-1.4,1.4-2.3-2.3-1,.8.5.5c1.2,1,1.3,2.8.3,4,0,.1-.2.2-.3.3Z"/><path d="m74.1,215.8c-2,1.1-4.6.4-5.7-1.6,0-.1-.1-.2-.2-.4-1.2-2.3-.3-5.1,2-6.2,2.3-1.2,5.1-.3,6.2,2,.7,1.4.7,3,0,4.4l-1.7-1.1c.4-.7.4-1.7,0-2.4-.6-1.3-2.2-1.9-3.5-1.2,0,0,0,0,0,0-1.3.6-1.9,2.1-1.3,3.4,0,.1,0,.2.2.3.4.9,1.3,1.5,2.2,1.4l-1-2.2,1.6-.8,2,4-.7.3h0Z"/><path d="m38.5,232.3c1.4,0,2.8.5,3.8,1.4,2.1,2.2,2,5.7-.2,7.8-1.1.9-2.6,1.4-4.1,1.4-1.3,0-2.5-.3-3.6-.9-1-.6-1.8-1.5-2.2-2.6l3.5-2c.3,1,1.3,1.7,2.3,1.6,1.2,0,1-.2,1.3-.4.6-.5.6-1.4.2-1.9,0,0,0-.1-.2-.2-.3-.3-.8-.4-1.2-.4h-5l.6-9.2h9.2v3.8h-5.5v1.7h1Z"/><path d="m61.1,233.5v1.6c.2,4.1-3,7.6-7,7.8-.2,0-.5,0-.7,0-2.2,0-4.4-.8-6-2.3-1.5-1.5-2.4-3.6-2.3-5.8,0-2.2.8-4.3,2.3-5.8,1.5-1.6,3.6-2.4,5.8-2.4,1.4-.1,2.8.2,4,1,1.2.6,2.2,1.5,2.9,2.6l-3.4,1.9c-.4-.5-.8-.9-1.4-1.2-.6-.3-1.4-.5-2.1-.5-1.1,0-2.2.4-3,1.2-.8.8-1.2,2-1.2,3.1,0,1.1.4,2.2,1.2,3,.9.9,2.1,1.3,3.3,1.3,1.4,0,3-.7,3.6-2.1h-3.8v-3.4h7.8,0Z"/><circle class="cls-3" cx="263.6" cy="66.1" r="36"/><path class="cls-17" d="m271.4,50.8h1.5c.6,0,1.1.5,1.2,1.1v34c0,.7-.3,1.4-1,1.7h-19.4c-.7-.3-1.1-1-1-1.7v-1h9.4c.2,0,.4,0,.3-.3v-.6c.2-.5.8-.7,1.3-.6.5.2.8.7.6,1.2,0,0,0,0,0,0,0,.2,0,.3.2.3h5.3c.8,0,1.4-.6,1.4-1.4,0,0,0,0,0,0v-2.4c.3-.1.4-.4.4-.7v-24.9c0-.3-.2-.6-.4-.7v-3.9h.2Z"/><path class="cls-30" d="m271.4,50.8v3.9h-15.4c-.7,0-.9.2-.9.9v24.6c0,.7.2.9.9.9h15.5v2.4c0,.8-.5,1.4-1.3,1.4,0,0,0,0,0,0h-5.3c-.2,0-.3,0-.2-.3.2-.5-.1-1-.6-1.2,0,0,0,0,0,0-.5-.2-1.1,0-1.3.6,0,.2,0,.4,0,.6,0,.3,0,.3-.3.3h-9.4v-32.5c0-.8.5-1.5,1.3-1.6,0,0,.2,0,.3,0h17-.2Z"/><path d="m235.2,58.8c1.9.4,3.1,2.3,2.6,4.2l-.3,1.4,3.1.6-.5,2.2-9.8-2.2.8-3.8c.4-1.9,2.2-3.1,4.1-2.7,0,0,0,0,0,0v.2Zm-.5,2.2c-.7-.2-1.3.2-1.5.9,0,0,0,0,0,0l-.3,1.4,2.6.6.3-1.4c.1-.7-.3-1.3-.9-1.4,0,0,0,0,0,0h0Z"/><path d="m241.6,51.7l3.8,2.2-1.1,1.8-3.5-2.1c-.5-.4-1.3-.3-1.6.2,0,0,0,.1-.1.2-.4.6-.3,1.4.3,1.8,0,0,.2.1.2.1l3.4,2-1.1,1.8-8.7-5.1,1.1-1.8,3,1.8c-.2-.8-.1-1.6.3-2.2.7-1.3,2.2-1.8,3.9-.8h0Z"/><path d="m243.3,50.8c-1.4-1.5-1.3-3.9.2-5.3,0,0,0,0,.1-.1,1.6-1.4,4-1.2,5.4.3,1.3,1.6,1.1,4-.5,5.3-1.5,1.3-3.8,1.1-5.1-.3h0Zm4.1-3.6c-.6-.7-1.7-.7-2.4,0s-.7,1.7,0,2.4c.6.6,1.7.7,2.3,0,.7-.6.8-1.6.2-2.3,0,0,0-.1-.1-.1Z"/><path d="m256.5,41.4l1.8,4.1-2,.9-1.6-3.8c-.2-.6-.9-1-1.6-.8,0,0,0,0-.1,0-.7.3-1,1-.8,1.7,0,0,0,.2.1.2l1.5,3.6-2,.9-2.9-6.6,2-.9.2.6c.2-.8.8-1.4,1.5-1.6,1.4-.6,2.9,0,3.7,1.7h0Z"/><path d="m262.5,43.3c.5,0,1-.3,1.4-.6l1.8.8c-.6,1-1.7,1.7-3,1.8-2,.4-3.9-1-4.3-3,0-.2,0-.3,0-.5-.2-2,1.2-3.9,3.3-4.1,0,0,.1,0,.2,0,2-.2,3.8,1.3,4,3.4,0,0,0,0,0,0v.9l-5.1.5c.3.7,1,.9,1.8.9h0Zm1.1-2.7c-.2-.7-.9-1.1-1.6-1-.7,0-1.4.5-1.4,1.3l3.1-.3h0Z"/><path d="m274.5,39.3l1.3.4-.6,2-1.3-.4-1.4,4.9-2.1-.6,1.4-4.9-1-.2.6-2,1,.2c.6-1.9,2-2.8,4.2-2l-.6,2c-.7-.3-1.4-.2-1.6.6h0Z"/><path d="m281.3,42.2l-1.1,2.2c-.7-.6-1.7-.6-2.3,0-.1.1-.2.3-.3.4l-1.5,2.9-1.9-1,3.3-6.4,1.9,1-.6,1.1c.7-.7,1.8-.8,2.6-.2Z"/><path d="m288.5,48.4l-4.8,5.4-1.6-1.4.5-.5c-.8,0-1.6-.2-2.2-.8-1.4-1.5-1.3-4,.2-5.4,1.4-1.3,3.4-1.3,4.9-.2.7.5,1,1.3,1,2.1l.5-.5,1.6,1.4h0Zm-4,1.2c.6-.7.5-1.8-.2-2.4-.7-.6-1.8-.5-2.4.2-.6.7-.5,1.8.2,2.4.7.6,1.8.6,2.4,0,0,0,0,0,0,0Z"/><path d="m292.9,62l-4,1.8-.9-1.9,3.8-1.8c.6-.3,1-.8.6-1.4-.3-.6-1-.8-1.6-.5,0,0,0,0-.1,0l-3.7,1.7-.9-1.9,3.8-1.8c.6-.3,1-.8.6-1.4-.3-.6-1-.8-1.6-.5,0,0,0,0-.1,0l-3.7,1.7-.9-1.9,6.6-3,.9,1.9-.6.2c.7.1,1.3.7,1.6,1.4.4.6.4,1.4,0,2.1.8.2,1.5.8,1.8,1.5.7,1.5,0,3-1.5,3.8h-.2Z"/><path d="m290.6,68.2c0,.5.2,1,.6,1.4l-.9,1.8c-1-.6-1.7-1.8-1.6-3,0-2.5,1.4-4.1,3.6-4.2,2.1-.1,3.8,1.4,4,3.5,0,0,0,.1,0,.2.1,2-1.4,3.7-3.4,3.8,0,0-.1,0-.2,0h-.9l-.2-5.1c-.7.3-1.1,1-1,1.8h0Zm2.7,1.2c.7-.2,1.1-.9,1-1.6,0-.7-.5-1.4-1.2-1.5l.2,3.1Z"/><path class="cls-38" d="m351.4,255.2c2.6-.1,5.1.8,7,2.6.5.3.6,1,.2,1.4-.3.4-.9.4-1.4,0-1.4-1.4-3.4-2.2-5.4-2.1-1.7,0-3.3.7-4.6,1.8-.1.2-.3.3-.5.4-.4.3-1,.2-1.3-.1,0,0,0,0,0,0-.3-.4-.3-.8,0-1.2.5-.5,1.1-.9,1.7-1.3,1.3-.9,2.8-1.4,4.4-1.4h0Z"/><path class="cls-10" d="m351.8,258.6c1.8,0,3.4.6,4.7,1.8.6.5.6,1,.2,1.4-.4.4-1,.4-1.4,0,0,0,0,0,0,0-1.9-1.8-4.8-1.8-6.7,0-.6.5-1,.5-1.4,0s-.3-1,.2-1.4c1.2-1.1,2.8-1.8,4.5-1.8h0Z"/><path class="cls-10" d="m351.9,261.9c1.1,0,2.1.4,2.9,1.1.4.3.5.9.2,1.3h0c-.3.4-.9.5-1.3.2,0,0,0,0,0,0h0c-.9-.9-2.4-.9-3.3,0-.3.4-.8.4-1.1.2,0,0-.1,0-.2-.2h0c-.3-.5-.2-1.1.2-1.4,0,0,0,0,0,0h0c.8-.7,1.8-1.1,2.8-1.1h-.2Z"/><path class="cls-31" d="m368.4,281.9c-1.2-4.2,2.6-13.2-3.9-13.8h-24.8c-7,.2-3.1,9.4-4.3,13.8v5.4c1.2,4.2-2.6,12.9,3.7,13.8h25.6c6.3-.8,2.6-9.6,3.8-13.8v-5.4Z"/><circle class="cls-3" cx="351.9" cy="272" r="36"/><path d="m332.9,257.9l-1,1.8-4.6-2.6,2.2,3.8v.2l-4.6.2,4.6,2.6-1,1.8-7.8-4.4,1-1.8,4.6-.2-2.3-4.1,1-1.8,7.8,4.4h0Z"/><path d="m331.2,255.4c-1.2-1.4-1.1-3.5.2-4.7,0,0,0,0,0,0,1.4-1.2,3.6-1.1,4.8.3,1.2,1.4,1.1,3.6-.3,4.8s-3.6,1.1-4.8-.3Zm3.7-3.2c-.6-.6-1.5-.6-2,0-.6.6-.6,1.5,0,2,.5.6,1.4.6,2,0,.6-.5.7-1.3.2-1.9,0,0,0-.1-.1-.2h0Z"/><path d="m341.1,242.2l3.7,8.2-1.8.8-.2-.6c-.2.7-.8,1.3-1.4,1.5-1.6.7-3.4,0-4.1-1.6,0,0,0-.1,0-.2-.8-1.5-.3-3.4,1.3-4.3,0,0,0,0,0,0,.7-.3,1.4-.3,2.1,0l-1.3-2.9,1.8-.8Zm.6,6c-.4-.7-1.3-1-2-.6-.7.4-1,1.3-.6,2,.4.7,1.2,1,1.9.7.8-.3,1.1-1.2.8-2,0,0,0,0,0-.1Z"/><path d="m348.6,248.2c.5,0,.9-.2,1.1-.6l1.7.6c-.5,1-1.5,1.6-2.6,1.7-1.8.4-3.6-.8-4-2.6,0,0,0-.2,0-.3-.3-1.8.9-3.5,2.7-3.8,0,0,.1,0,.2,0,1.7-.3,3.4.9,3.7,2.7,0,0,0,.1,0,.2v.8l-4.5.6c.3.6,1,.9,1.7.6h0Zm.9-2.5c-.2-.6-.9-1-1.5-.8-.6,0-1.2.6-1.3,1.2l2.7-.4h0Z"/><path d="m362.4,247.1l-.8,3.8-1.8-.4.8-3.7c.2-.6,0-1.1-.7-1.2s-1,.2-1.2,1l-.7,3.5-1.8-.4.8-3.7c.2-.6,0-1.1-.7-1.2s-1,.2-1.2,1l-.7,3.5-1.8-.4,1.4-6.2,1.8.4-.2.6c.5-.4,1.2-.6,1.8-.4.7.1,1.2.6,1.4,1.2.6-.5,1.3-.6,2-.5,1.4.3,2.2,1.5,1.8,3.1h-.2Z"/><path d="m364.6,247.5l4.2,2.5-1,1.6-4.2-2.5,1-1.6Z"/><path d="m367.9,253.3h4.3c.6,0,1.3-.2,1.8-.6.4-.3.4-.9,0-1.3,0,0,0,0,0,0-.4-.4-1.1-.5-1.6-.2l-.5-1.9c1.2-.5,2.6-.2,3.5.7,1.2,1,1.3,2.8.3,4,0,0,0,0-.1.1-.8.7-1.9,1.1-3,1h-2.1l2.2,2.2-1.4,1.4-4.3-4.3,1-1h-.2Z"/><path d="m379.3,264.7c-2,1.2-4.5.5-5.7-1.5,0-.1-.2-.3-.2-.5-1.3-2.2-.5-5,1.7-6.3,0,0,.2,0,.2-.1,2.3-1.2,5.1-.3,6.3,1.9,0,0,0,0,0,0,.8,1.4.8,3,0,4.4l-1.7-1.1c.4-.8.4-1.6,0-2.4-.6-1.3-2.2-1.8-3.5-1.2,0,0,0,0-.1,0-1.3.6-1.8,2.1-1.2,3.4,0,0,0,.2.2.3.4.9,1.3,1.5,2.3,1.4l-1.1-2.2,1.6-.8,2.1,4-.7.3-.2.2Z"/><path d="m337.9,291.8v-2.9l5.2-5.4c.4-.4.8-.9,1.1-1.4.2-.3.3-.7.3-1,0-.4-.2-.7-.4-1-.3-.2-.7-.4-1-.3-1,0-1.8.7-2.1,1.6l-3.4-1.9c.9-2.3,3.1-3.7,5.5-3.6,1.4,0,2.7.5,3.8,1.4,1.1.9,1.6,2.2,1.6,3.6,0,.9-.1,1.8-.6,2.5-.5.9-1.1,1.7-1.8,2.4l-2.2,2.2h4.9v3.8h-10.9Z"/><path d="m365.8,282.9v1.6c.2,4.1-3,7.6-7,7.8-.2,0-.5,0-.7,0-2.2,0-4.4-.8-6-2.3-1.5-1.5-2.4-3.6-2.3-5.8,0-2.2.8-4.3,2.3-5.8,1.5-1.6,3.6-2.4,5.8-2.4,1.4-.1,2.8.2,4,1,1.2.6,2.2,1.5,2.9,2.6l-3.4,1.9c-.4-.5-.8-.9-1.4-1.2-.6-.3-1.4-.5-2.1-.5-1.1,0-2.2.4-3,1.2-.8.8-1.2,2-1.2,3.1,0,1.1.4,2.2,1.2,3,.9.9,2.1,1.3,3.3,1.3,1.4,0,3-.7,3.6-2.1h-3.8v-3.4h7.8,0Z"/><circle class="cls-3" cx="326.1" cy="117.3" r="36"/><path class="cls-35" d="m318.3,147.3c-.2-.1-.4-.2-.6-.2-3.1-.7-5.2-3.5-5.1-6.7v-32.1c0-2.7,1.5-5.2,3.9-6.2.9-.4,1.8-.6,2.8-.6h13.8c3.7,0,6.7,2.9,6.7,6.6,0,0,0,0,0,.1v32.3c0,3.2-2.2,6-5.4,6.6-.2,0-.4,0-.6.2h-15.6Zm7.8-26.5h9.1c1,0,1.4-.5,1.4-1.4v-12.1c.1-.7-.4-1.4-1.1-1.5-.1,0-.3,0-.4,0h-18.1c-.7-.1-1.4.4-1.5,1.1,0,.1,0,.3,0,.4v12c0,1,.4,1.5,1.5,1.5h9Zm2.8,5.9c0-1.5-1.2-2.7-2.7-2.7,0,0,0,0,0,0-1.5,0-2.8,1.3-2.8,2.8,0,1.5,1.3,2.7,2.8,2.7,1.5,0,2.8-1.3,2.8-2.8h0Zm3.8-.2v1.5c0,.4.2.7.5.7,0,0,.1,0,.2,0h2.3c.4,0,.7-.2.7-.5,0,0,0-.1,0-.2v-3.1c0-.4-.2-.7-.5-.7,0,0-.1,0-.2,0h-2.3c-.4,0-.7.2-.7.5,0,0,0,.1,0,.2v1.6Zm-17,.2v1.6c0,.4.2.7.5.7,0,0,.1,0,.2,0h2.3c.5,0,.7-.2.7-.6v-3.2c0-.4-.3-.7-.6-.7h-2.4c-.5,0-.6.2-.7.7v1.5h0Zm18.4,11.7h1.5c.5,0,.7-.3.7-.8,0-1.1,0-1.5-.6-1.6h-3.1c-.4,0-.7.3-.7.6,0,0,0,0,0,0v1c0,.5.2.7.8.7h1.4Zm-16.2,4.6h.7c1.5,0,1.5-.3,1.5-1.5s-.2-.9-.9-.9h-2c-1.7,0-1.6.2-1.5,1.7,0,.4.3.8.7.8,0,0,0,0,0,0h1.4,0Zm8.2-4.6h1.4c.6,0,.9-.2,1-.9v-.6c0-.6-.2-.9-.9-.9h-2c-1.8,0-1.6.3-1.6,1.7,0,.4.2.8.6.8,0,0,.1,0,.2,0h1.4,0Zm0,2.1h-1.5c-.4,0-.7.2-.7.5,0,0,0,.1,0,.2v.9c0,.4.3.8.7.9,0,0,.1,0,.2,0h2.1c1.7,0,1.6-.3,1.6-1.7,0-.4-.2-.8-.6-.8,0,0-.1,0-.2,0h-1.5Zm7.9,2.5h.7c1.6,0,1.5-.3,1.5-1.6v-.2c0-.4-.3-.7-.6-.7,0,0,0,0,0,0h-3c-.4,0-.8.3-.8.7,0,0,0,0,0,0v1c0,.5.3.7.8.7h1.4Zm-7.9-9h.6c1.7,0,1.6-.2,1.6-1.7h0c0-.4-.3-.7-.6-.7,0,0,0,0,0,0h-3c-.4,0-.7.3-.7.6,0,0,0,0,0,0v.9c0,.6.2.8.8.8h1.4,0Zm7.9,0h1.5c.5,0,.7-.3.7-.8,0-1,0-1.5-.6-1.7h-3.2c-.4,0-.7.3-.7.6,0,0,0,0,0,0v.9c0,.4.2.8.6.8,0,0,.1,0,.2,0h1.4Zm-16.2,0h1.5c.6,0,.7-.3.7-1.4s-.2-1-.7-1h-3c-.4,0-.7.3-.7.6,0,0,0,0,0,0v.9c0,.6.2.8.8.8h1.4Zm0,4.5h1.5c.5,0,.7-.3.7-.8,0-1.1,0-1.5-.6-1.6h-3.1c-.4,0-.8.2-.8.6,0,0,0,.1,0,.2v.9c0,.5.2.7.8.8h1.4Z"/><path class="cls-12" d="m326.1,120.8h-9c-1.1,0-1.5-.4-1.5-1.5v-12c0-1,.4-1.5,1.5-1.5h18.1c1.1,0,1.5.4,1.5,1.5v12.1c0,1-.5,1.4-1.4,1.4h-9.2Z"/><path class="cls-28" d="m328.9,126.7c0,1.5-1.3,2.8-2.8,2.8-1.5,0-2.7-1.2-2.8-2.7,0-1.5,1.3-2.8,2.8-2.8,1.5,0,2.7,1.2,2.7,2.7,0,0,0,0,0,0h0Z"/><path class="cls-28" d="m332.8,126.5v-1.6c0-.4.2-.7.5-.7,0,0,.1,0,.2,0h2.3c.4,0,.7.2.7.5,0,0,0,.1,0,.2v3.1c0,.4-.2.7-.5.7,0,0-.1,0-.2,0h-2.3c-.4,0-.7-.2-.7-.5,0,0,0-.1,0-.2v-1.5Z"/><path class="cls-28" d="m315.8,126.8v-1.5c0-.4.2-.7.5-.7,0,0,.1,0,.2,0h2.4c.4,0,.6.2.6.7v3.2c0,.5-.2.6-.7.6h-2.3c-.5,0-.6-.2-.7-.7v-1.6Z"/><path class="cls-28" d="m334.3,138.5h-1.4c-.4,0-.8-.3-.8-.7,0,0,0,0,0,0v-1c0-.4.3-.7.6-.7,0,0,0,0,0,0h3.1c.6,0,.7.5.6,1.6,0,.5-.2.8-.7.8h-1.5Z"/><path class="cls-28" d="m318,142.9h-1.4c-.4,0-.8-.2-.8-.6,0,0,0-.1,0-.2,0-1.4-.2-1.8,1.5-1.7h2c.6,0,.9.2.9.9,0,1.3,0,1.6-1.5,1.5h-.8.2Z"/><path class="cls-28" d="m326.3,138.5h-1.4c-.4,0-.8-.3-.8-.7,0,0,0,0,0,0,0-1.4-.2-1.8,1.6-1.7h2c.6,0,.9.2.9.9v.6c0,.6-.2.9-1,.9h-1.4,0Z"/><path class="cls-28" d="m326.4,140.5h1.4c.4,0,.8.3.8.7,0,0,0,0,0,0,0,1.4.2,1.8-1.6,1.7h-2.1c-.6,0-.8-.2-.9-.9v-.9c0-.4.3-.7.6-.7,0,0,0,0,0,0h1.6Z"/><path class="cls-28" d="m334.2,142.9h-1.4c-.4,0-.8-.3-.8-.7,0,0,0,0,0,0v-1c0-.5.2-.7.8-.7h3c.4,0,.7.2.7.5,0,0,0,.1,0,.2v.2c0,1.3,0,1.7-1.5,1.6h-.8,0Z"/><path class="cls-28" d="m326.3,134h-1.4c-.4,0-.8-.2-.8-.6,0,0,0-.1,0-.2v-.9c0-.4.3-.7.6-.7,0,0,0,0,0,0h3c.4,0,.7.3.7.6,0,0,0,0,0,0h0c0,1.4,0,1.8-1.6,1.7h-.6Z"/><path class="cls-28" d="m334.2,134h-1.4c-.5,0-.7-.3-.8-.8v-.9c0-.4.2-.7.5-.7,0,0,.1,0,.2,0h3.2c.5.2.6.6.6,1.7,0,.4-.3.8-.7.8,0,0,0,0,0,0h-1.5Z"/><path class="cls-28" d="m318,134h-1.4c-.6,0-.8-.2-.8-.8v-.9c0-.4.3-.7.6-.7,0,0,0,0,0,0h3c.6,0,.7.3.7,1,0,1-.2,1.4-.7,1.4h-1.4,0Z"/><path class="cls-28" d="m318,138.5h-1.4c-.4,0-.8-.2-.8-.6,0,0,0-.1,0-.2v-.9c0-.4.3-.8.7-.8,0,0,0,0,0,0h3.1c.5,0,.6.6.6,1.6,0,.5-.2.8-.7.8h-1.5Z"/><path d="m301.5,135.1c1.3-1.1,3.2-1,4.4.2l.9,1,2.1-1.9,1.4,1.5-6.6,6.1-2.3-2.5c-1.2-1.2-1.1-3.2,0-4.3,0,0,0,0,0,0h0Zm1.4,1.5c-.5.4-.5,1-.2,1.5,0,0,0,0,0,0l.9,1,1.7-1.5-.9-1c-.4-.4-1.1-.5-1.5,0,0,0,0,0,0,0h0Z"/><path d="m299.4,127l3.5-1.8.9,1.8-3.3,1.6c-.6.2-.8.8-.6,1.4,0,0,0,0,0,.1.2.6.9.8,1.5.6,0,0,.2,0,.2-.1l3.1-1.5.9,1.8-8.1,3.9-.9-1.8,2.8-1.4c-1.3-.4-2-1.7-1.6-3,.2-.7.8-1.3,1.5-1.6h0Z"/><path d="m299.6,125.4c-1.9.4-3.6-.9-4-2.7s.9-3.6,2.7-4,3.6.9,4,2.7c0,0,0,0,0,0,.3,1.8-.9,3.6-2.7,3.9,0,0,0,0,0,0Zm-.8-4.8c-.8,0-1.3.8-1.2,1.5,0,0,0,0,0,.1.1.8.9,1.3,1.7,1.2,0,0,0,0,0,0,.8,0,1.3-.8,1.2-1.5,0,0,0,0,0-.1-.1-.8-.9-1.3-1.7-1.2,0,0,0,0,0,0Z"/><path d="m298.4,111.2l3.9.4-.2,1.9-3.6-.4c-.6-.1-1.2.3-1.3.9,0,0,0,0,0,.1,0,.7.2,1.2,1.2,1.4l3.4.4-.2,1.9-6.4-.7.2-1.9h.6c-.5-.5-.7-1.2-.6-1.8.1-1.3,1.3-2.3,2.7-2.1,0,0,.2,0,.2,0h0Z"/><path d="m302.4,107.3c.2-.4.2-.9,0-1.4l1.4-1.1c.6.9.6,2.1.2,3.1-.6,1.8-2.5,2.7-4.3,2.2-1.8-.6-2.7-2.5-2.2-4.3,0-.1,0-.2.1-.3.8-1.7,2.8-2.5,4.5-1.7.2,0,.4.2.6.3l-1.8,4.2c.7,0,1.2-.4,1.4-1h0Zm-1.7-2c-.6-.1-1.2.3-1.4.9-.3.6-.1,1.3.4,1.7l1-2.6Z"/><path d="m303.9,96.2l.8-.9,1.4,1.2-.8.9,3.4,3-1.3,1.4-3.4-3-.6.6-1.4-1.2.6-.6c-1.4-1.2-1.4-2.6,0-4.2l1.4,1.2c-.6.5-.7,1-.2,1.5h0Z"/><path d="m308.7,91.9l1.4,1.7c-.8.3-1.1,1.2-.8,1.9,0,.1.1.3.2.4l1.8,2.2-1.5,1.2-4-5,1.5-1.2.7.9c-.3-.8,0-1.7.7-2.2h0Z"/><path d="m316,88.2l2.7,5.8-1.8.8-.2-.6c-.2.7-.7,1.2-1.4,1.5-1.6.7-3.5,0-4.2-1.7,0,0,0,0,0,0-.8-1.5-.3-3.4,1.3-4.3,0,0,0,0,0,0,.6-.4,1.4-.4,2.1,0l-.2-.6,1.8-.8h0Zm-.4,3.7c-.3-.8-1.2-1.2-2-.8,0,0,0,0,0,0-.8.3-1.1,1.2-.8,2,0,0,0,0,0,.1.3.8,1.2,1.2,2,.8,0,0,0,0,0,0,.8-.3,1.1-1.2.8-1.9,0,0,0-.1,0-.2Z"/><path d="m328.6,88.9l.3,3.9-1.9.2-.3-3.8c0-.5-.3-.9-.8-1,0,0-.2,0-.3,0-.6,0-1,.6-.9,1.3l.3,3.6-1.9.2-.3-3.8c0-.5-.3-.9-.8-1,0,0-.2,0-.3,0-.6,0-1,.6-.9,1.3l.3,3.6-1.9.2-.6-6.4,1.9-.2v.6c.4-.6,1-.9,1.7-.9.7,0,1.3.2,1.8.7.4-.6,1-1,1.8-1,1.4-.2,2.5.9,2.6,2.4h0Z"/><path d="m333.1,92.5c.4.1.9,0,1.3-.2l1.3,1.3c-1.5,1.3-3.6,1.1-4.9-.4s-1.1-3.6.4-4.9c.9-.7,2-1,3.1-.7,1.7.4,2.7,2.1,2.3,3.8,0,.1,0,.2,0,.3,0,.3-.1.5-.2.7l-4.4-1.2c0,.7.6,1.1,1.3,1.3Zm1.8-1.9c0-.6-.4-1.2-1-1.4-.6-.2-1.3,0-1.6.6l2.6.7Z"/><path d="m341.9,98.9v-3.5c0,0-1.6,2.2-1.6,2.2l-1.5-1.2,5.4-7.1,1.5,1.2-3.3,4.2,3.2-1,1.8,1.4-3.8,1.1v4l-1.8-1.4h0Z"/><path d="m346.6,101.7c.3.4.7.6,1.1.6l.2,1.8c-1.1,0-2.1-.5-2.8-1.4-1.2-1.3-1.1-3.4.2-4.6,0,0,.2-.2.3-.2,1.4-1.2,3.6-1,4.7.5,0,0,0,0,0,0,1.1,1.4.9,3.5-.5,4.6,0,0,0,0,0,0-.2.2-.4.3-.6.4l-2.8-3.6c-.3.6-.2,1.3.2,1.8h0Zm2.6-.5c.4-.5.4-1.2,0-1.7-.4-.5-1.1-.7-1.7-.5l1.7,2.2Z"/><path d="m355.6,108.5l-6.6.4c-2.2.2-3.4-.6-4-2.2l1.7-.7c.2.7.9,1.2,1.6,1l4.6-4.7.8,1.9-3,2.9,4.1-.4.8,1.9h0Z"/><path d="m353.8,117.5c-1.8.3-3.5-.9-3.8-2.6h0c-.1-.7,0-1.5.6-2l-3.1.4-.2-1.9,8.9-1.1.2,1.9h-.6c.6.5.9,1.1,1,1.8.2,1.7-1.1,3.3-2.8,3.4,0,0,0,0-.1,0h0Zm-.2-1.9c.8,0,1.4-.8,1.4-1.6,0,0,0,0,0-.1,0-.8-.7-1.4-1.5-1.3,0,0-.2,0-.3,0-.8,0-1.4.8-1.4,1.6,0,0,0,0,0,.1,0,.8.7,1.4,1.5,1.3,0,0,.2,0,.3,0Z"/><path d="m355.8,125.9l-6.3-1.1.3-1.9h.6c-.4-.5-.6-1.2-.5-1.9.4-1.7,2-2.8,3.7-2.4,0,0,0,0,.1,0,1.8.2,3,1.8,2.8,3.6,0,0,0,0,0,0,0,.7-.5,1.4-1.1,1.8h.6c0,0-.3,2-.3,2h.2Zm-2.8-2.5c.8.2,1.6-.3,1.8-1.2,0,0,0,0,0,0,.2-.8-.3-1.5-1.1-1.7,0,0-.1,0-.2,0-.8-.2-1.5.2-1.7,1,0,0,0,.1,0,.2-.2.8.3,1.5,1.1,1.7,0,0,.1,0,.2,0h0Z"/><path d="m354.2,135.5l-8-4.1.9-1.7.6.2c-.3-.7-.2-1.4.2-2.1,1-1.6,3.1-2.1,4.6-1.1,1.4.9,2,2.6,1.4,4.1-.3.7-.9,1.2-1.6,1.4l2.8,1.4-.9,1.7h0Zm-4.2-4.3c.8.3,1.7,0,2-.8.3-.8,0-1.7-.8-2-.7-.3-1.6,0-2,.7-.4.7-.2,1.6.5,2,0,0,.1,0,.2,0Z"/><circle class="cls-3" cx="120.8" cy="356.8" r="36"/><path class="cls-56" d="m115.4,378.3h-6.6c0-.2-.2-.2-.3-.2-.8-.2-1.3-1-1.3-1.8v-26.3c.5.6,1.1.6,1.5,0,.3-.4.2-.9-.2-1.2-.2-.1-.3-.2-.5-.2-.4,0-.7.2-.8.6-.2-.9.2-1.8,1-2.2,0,0,.3,0,.3-.2h7.1c0,0-.2,0-.4.2-.7.4-1.2,1.2-1.1,2v27.1c0,.9.5,1.7,1.3,2v.2h0Z"/><path class="cls-9" d="m117.1,346.8h18c1,.2,1.7,1.2,1.5,2.2v27c.1,1-.6,2-1.6,2.2-.2,0-.4,0-.5,0h-17.4q0,0-.2-.2c-.6-.2-1.1-.8-1.1-1.4,0-.9,0-1.8,0-2.8,0,.1.2.2.4.2h18.1c.6,0,.7,0,.7-.7v-23c0-.6-.2-.7-.7-.7h-17.9c-.2,0-.4,0-.6.2-.2-.3,0-.6,0-.9,0-.8.4-1.5,1.1-1.8,0,0,.2,0,.2-.2Zm7,29.4c0,.7.6,1.3,1.3,1.4.7,0,1.4-.6,1.4-1.3,0,0,0,0,0,0,0-.7-.6-1.3-1.4-1.4-.7,0-1.3.5-1.4,1.2,0,0,0,0,0,.1h0,0Zm1.8-27.9c0-.2-.2-.4-.5-.4-.3,0-.5.2-.5.5,0,.3.2.5.5.5.2,0,.4-.1.5-.4,0,0,0,0,0-.1h0Z"/><path class="cls-44" d="m108.5,346.8c0,.2-.2.2-.3.2-.8.4-1.2,1.3-1,2.2,0,.2,0,.5,0,.7,0,0,0,.2,0,.3v26c0,.8.5,1.5,1.3,1.8.1,0,.3,0,.3.2h-1.9c0-.2,0-.2-.2-.2-.6-.2-1-.6-1.2-1.1,0,0,0-.2-.2-.2v-28.6c0,0,.1,0,.2,0,.2-.5.6-.9,1.1-1.1,0,0,0,0,0-.2h1.8Z"/><path class="cls-62" d="m117.1,346.8c0,.2,0,.2-.2.2-.7.3-1.2,1-1.1,1.8,0,.3,0,.6,0,.9-.1.5-.1,1.1,0,1.6v22.6c0,1,0,1.8,0,2.8,0,.7.5,1.2,1.1,1.4,0,0,.2,0,.2.2-.6,0-1.2,0-1.8,0-.8-.3-1.3-1.1-1.3-2v-27.1c0-.8.4-1.6,1.1-2,.2,0,.3,0,.4-.2h1.6Z"/><path class="cls-9" d="m107.2,350c0-.2,0-.5,0-.7.1-.3.4-.6.8-.6-.2.7,0,1.2.7,1.3h0c-.4.6-1,.6-1.5,0h0Z"/><path class="cls-22" d="m108.7,350.1h0c-.6,0-.9-.6-.7-1.3.5,0,.9.4.9.8,0,.2,0,.4-.2.5h0Z"/><path class="cls-22" d="m124,376.2c0-.7.6-1.4,1.3-1.4,0,0,0,0,0,0,.7,0,1.3.6,1.4,1.4,0,.7-.6,1.4-1.3,1.4,0,0,0,0,0,0-.7,0-1.3-.6-1.4-1.4Zm1.7,0c0-.2-.1-.4-.4-.4,0,0,0,0,0,0-.2,0-.5.2-.4.4s.2.4.4.3c.2,0,.4-.1.4-.4,0,0,0,0,0,0h0Z"/><path class="cls-22" d="m125.8,348.2c0,.2-.1.4-.4.5,0,0,0,0-.1,0-.3,0-.5-.2-.5-.5,0-.3.2-.5.5-.5.3,0,.4.2.5.4h0Z"/><path class="cls-9" d="m125.8,376.1c0,.2-.1.4-.4.4,0,0,0,0,0,0-.2,0-.4-.1-.4-.3,0-.2.2-.5.4-.4.2,0,.4.1.4.4,0,0,0,0,0,0h0Z"/><path d="m93.3,348l-.6,2.2,6.7,1.9-.6,2-6.7-1.9-.6,2.2-1.9-.6,1.8-6.4,1.9.6h0Z"/><path d="m97.4,341.9l5.6,3.2-1,1.7-.6-.3c.2.7.1,1.5-.2,2.1-1.1,1.5-3.2,1.9-4.8.8-1.3-.9-1.8-2.7-1.1-4.1.3-.6.9-1.1,1.6-1.3l-.6-.3,1-1.7h0Zm1.8,3.3c-.6-.4-1.5-.3-2,.4,0,0,0,.1-.1.2-.4.7-.2,1.6.5,2,0,0,.1,0,.2,0,.6.4,1.5.3,2-.4,0,0,0-.1.1-.2.4-.7.2-1.6-.5-2,0,0-.1,0-.2,0Z"/><path d="m106.2,337.4c1.3,1.2,1.3,3.3,0,4.5,0,0,0,0,0,0-.5.5-1.2.8-1.9.7l.4.4-1.4,1.3-6.1-6.6,1.4-1.3,2.2,2.3c0-.7.3-1.4.9-1.8,1.3-1.2,3.4-1,4.5.3,0,0,0,0,0,0Zm-1.4,1.3c-.6-.6-1.5-.6-2.1,0-.6.6-.6,1.5,0,2.1.6.6,1.5.6,2.1,0,.6-.5.7-1.4.2-2,0,0-.1-.1-.2-.2h0Z"/><path d="m104.3,331.6l1.7-1,4.8,8-1.7,1-4.8-8Z"/><path d="m114.1,335.5c.5-.1.8-.4,1-.9l1.8.3c-.3,1-1.1,1.8-2.2,2.2-1.7.7-3.7,0-4.4-1.8,0,0,0-.2,0-.2-.7-1.7.2-3.6,1.8-4.2,0,0,.2,0,.2,0,1.7-.6,3.5.2,4.1,1.9,0,0,0,.1,0,.2,0,.2.1.5.2.7l-4.3,1.5c.4.5,1.2.6,1.8.3h0Zm.3-2.6c-.3-.6-1-.8-1.6-.5-.7.1-1.1.8-1,1.4l2.6-.9h0Z"/><path d="m119.9,331.2l.2,2.2c0,.6.6.6,1.4.4l.2,1.8c-2.5.6-3.3-.2-3.4-1.9l-.2-2.2h-1c0,0-.2-1.8-.2-1.8h1c0,0-.2-1.4-.2-1.4l1.8-.8.2,1.8,1.3-.2.2,1.8-1.3.2h0Z"/><path d="m128.9,329.9l1.2.2-.3,1.8-1.2-.2-.8,4.5-1.9-.3.8-4.5-.9-.2.3-1.8.9.2c.3-1.8,1.5-2.6,3.5-2.2l-.3,1.8c-.7-.2-1.2,0-1.4.6h0Z"/><path d="m135.1,331.7l-.7,2.1c-.7-.5-1.6-.3-2.1.4,0,.1-.1.2-.2.4l-1,2.7-1.8-.6,2.2-6,1.8.6-.4,1c.6-.6,1.4-.9,2.2-.6h0Z"/><path d="m142.1,336.1l-3.5,5.4-1.6-1,.3-.5c-.7.1-1.4,0-2-.4-1.4-1-1.7-3-.7-4.4,0,0,0,0,0,0,1.1-1.6,3-2.1,4.4-1.1.6.4,1,1,1.1,1.7l.3-.5,1.6,1h0Zm-3.4,1.6c.5-.6.4-1.6-.2-2.1,0,0,0,0-.2-.1-.7-.5-1.6-.3-2.1.4,0,0,0,0,0,0-.5.6-.4,1.6.2,2.1,0,0,0,0,.2.1.7.5,1.6.3,2.1-.4,0,0,0,0,0,0h0Z"/><path d="m148.1,347.2l-3.2,2.3-1.1-1.5,3-2.2c.5-.3.6-.9.3-1.3,0,0,0,0,0,0-.4-.5-1-.5-1.5-.2,0,0,0,0-.1.1l-2.9,2.2-1.1-1.5,3-2.2c.5-.3.6-.9.3-1.3,0,0,0,0,0,0-.4-.5-1-.5-1.5-.2,0,0,0,0-.1.1l-2.9,2.2-1.1-1.5,5.2-3.8,1.1,1.5-.5.3c.7,0,1.3.4,1.6,1,.4.5.6,1.2.3,1.8.7,0,1.4.4,1.8,1,.9,1.2.6,2.6-.7,3.5h0Z"/><path d="m147.3,352.9c.1.4.4.8.8,1l-.4,1.8c-2.1-.3-3.5-2.2-3.2-4.3.3-2.1,2.2-3.5,4.3-3.2,2.1.3,3.5,2.2,3.2,4.3-.2,1.3-1.1,2.4-2.3,3-.2,0-.5.2-.7.2l-1.3-4.4c-.5.4-.7,1.2-.4,1.8h0Zm2.6.5c.5-.3.8-1,.6-1.6-.1-.6-.7-1.1-1.4-1l.8,2.6Z"/><circle class="cls-3" cx="185.3" cy="54.6" r="36"/><path d="m161.9,40.5c-2.1-2-2.1-5.2-.2-7.3,0,0,.1-.1.2-.2,1.2-1.3,3-1.8,4.7-1.4l-.6,2.2c-.9-.3-1.9,0-2.6.8-1.1,1-1.2,2.8-.2,3.9,0,0,.1.1.2.2,1,1.1,2.7,1.3,3.9.3.1,0,.2-.2.3-.3.7-.6,1-1.6.7-2.6l2.2-.6c.4,1.7,0,3.5-1.4,4.7-1.9,2.1-5.1,2.2-7.2.3,0,0-.2-.2-.3-.3v.2Z"/><path d="m176.3,27.5l3,6.6-2,.9-.3-.6c-.3.8-.8,1.4-1.6,1.7-1.8.8-3.9,0-4.7-1.9,0,0,0,0,0-.1-.9-1.8-.2-3.9,1.5-4.9.7-.4,1.6-.4,2.3,0l-.3-.6,2-.9h0Zm-.5,4.2c-.4-.9-1.3-1.3-2.2-.9,0,0,0,0-.1,0-.8.3-1.2,1.3-.9,2.1,0,0,0,.1,0,.2.4.9,1.4,1.3,2.2.9,0,0,0,0,0,0,.8-.4,1.2-1.3.9-2.1,0,0,0,0,0-.1h0Z"/><path d="m190.6,28.8l.2,4.4h-2.2l-.2-4.2c0-.7-.4-1.2-1-1.1s-1.1.6-1,1.4l.2,4.1h-2.2l-.2-4.2c0-.7-.4-1.2-1-1.1s-1.1.6-1,1.4l.2,4.1h-2.2l-.2-7.1h2.2v.6c.5-.6,1.2-1,1.9-1,.7,0,1.5.3,1.9.9.5-.7,1.3-1,2.1-1,1.5,0,2.7,1,2.8,2.5,0,.1,0,.2,0,.4h-.1Z"/><path d="m195.3,33.4c.5.2,1,.2,1.5,0l1.3,1.5c-1,.7-2.3.8-3.4.3-2.3-.9-3.2-3-2.4-5,.6-1.9,2.7-3,4.6-2.3,0,0,.2,0,.2,0,1.9.6,2.8,2.7,2.2,4.5,0,.1,0,.2-.1.3,0,.3-.2.6-.4.8l-4.8-1.8c0,.7.6,1.4,1.3,1.5Zm2.2-2c0-.7-.4-1.4-1-1.6-.7-.3-1.5,0-1.8.6l2.9,1Z"/><path d="m206.2,33.1l-1.4,2c-.6-.7-1.7-.8-2.4-.2-.1,0-.2.2-.3.3l-1.8,2.6-1.8-1.2,4.1-5.9,1.8,1.2-.7,1c.8-.6,1.8-.6,2.6,0v.2Z"/><path d="m212.5,40.2l-5.5,4.6-1.4-1.7.5-.4c-.8,0-1.6-.4-2.1-1-1.2-1.6-.9-3.9.6-5.1,1.5-1.4,3.7-1.3,5.1.2.6.6.8,1.4.7,2.2l.5-.4,1.4,1.7h.2Zm-4.2.7c.7-.6.9-1.6.3-2.4,0,0,0,0,0,0-.6-.7-1.6-.8-2.4-.3,0,0,0,0-.1,0-.7.6-.9,1.6-.3,2.4,0,0,0,0,0,0,.6.7,1.6.8,2.4.3,0,0,0,0,.1,0h0Z"/><path class="cls-11" d="m208.5,62.7v.2c-.2,0-.2.2-.2.3,0,.4,0,.8,0,1.2-.4,2.7-1.2,5.4-2.6,7.8-1.2,2.1-2.6,4-4.3,5.7-1.8,1.8-3.9,3.2-6.2,4.2-1.9.9-4,1.5-6.1,1.8l-1.9.2h-3c-.5,0-1.1-.2-1.6-.2-5.5-.7-10.6-3.5-14.2-7.7-3-3.4-4.8-7.7-5.4-12.2,0-.4,0-.9-.2-1.3v-2.9c0-.1.1-.3,0-.4,0-.6,0-1.3.2-1.9.4-2.5,1.3-5,2.5-7.2,1.1-2.1,2.6-4,4.3-5.6,4.9-4.7,11.7-7,18.4-6.2,2.6.3,5,1,7.4,2.2,5,2.5,9,6.7,11.1,11.9.8,1.9,1.3,3.9,1.5,5.9.1,1.2.2,2.4.2,3.6,0,.2,0,.3,0,.5h0Zm-19,18.3c.9-.1,1.8-.4,2.6-.6,9.5-3.3,15.2-13.1,13.2-23-1.5-7.1-5.8-12.1-12.6-14.8-1-.5-2.1-.7-3.2-.9-.2,0-.4-.1-.6-.2-1.7-.3-3.4-.3-5-.2-3.1.2-6.2,1.2-8.8,2.9-7.1,4.6-10.3,11.2-9.4,19.7.6,5.5,3.5,10.5,8.1,13.7,3.8,2.7,8.3,4.1,13,3.8.9,0,1.8-.1,2.7-.4h0Z"/><path class="cls-7" d="m189.5,81c-.9.3-1.8.4-2.7.4-4.6.3-9.2-1-13-3.8-4.6-3.4-7.5-8-8.1-13.7-1-8.5,2.3-15,9.4-19.7,2.6-1.7,5.7-2.7,8.8-2.9,1.7-.1,3.4,0,5,.2.2,0,.4,0,.6.2.1,0,.3.2.4.2,3.4,1,6.4,3.1,8.6,6,1,1.3,1.9,2.8,2.6,4.3,1.1,2.6,1.7,5.3,1.9,8.1,0,1.5,0,2.9-.2,4.4-.3,2.3-1,4.4-2,6.5-1.1,2.2-2.6,4.2-4.4,5.9-1.5,1.4-3.2,2.4-5.1,3.2-.6.2-1.1.4-1.7.6h0Zm-18.5-19.7c0,8,6.5,14.5,14.6,14.5s14.5-6.5,14.5-14.6c0-8-6.5-14.5-14.6-14.5-8,0-14.5,6.5-14.5,14.5h0Z"/><path class="cls-16" d="m189.5,81c.5-.3,1.1-.5,1.7-.6,1.9-.8,3.6-1.8,5.1-3.2,1.8-1.7,3.3-3.7,4.4-5.9,1-2,1.7-4.2,2-6.5.2-1.5.3-2.9.2-4.4,0-2.8-.7-5.6-1.9-8.2-.7-1.5-1.5-3-2.6-4.3-2.1-2.9-5.1-5-8.6-6-.2,0-.2,0-.4-.2,1.1.1,2.2.4,3.2.9,6.7,2.7,11,7.7,12.6,14.8,2,9.9-3.6,19.8-13.2,23-.8.3-1.7.6-2.6.6h0Z"/><path class="cls-42" d="m171,61.4c0-8,6.5-14.6,14.6-14.6,8,0,14.6,6.5,14.6,14.6,0,8-6.5,14.6-14.6,14.6h0c-8,0-14.5-6.5-14.6-14.5h0Zm14.6-9h-6.6c-.7,0-1.4.2-1.8.7-.2.2-.2.3-.4.5-2.3,2.4-3.3,5.7-3,9,.3,2.9,1.6,5.5,3.8,7.4.2.2.5.4.9.4h13.6c.7,0,1.5-.3,2-.8.2-.2.2-.3.4-.4,2.4-2.7,3.4-6.3,2.8-9.8-.4-2.4-1.5-4.6-3.2-6.3-.4-.5-1.1-.8-1.8-.8h-6.7Z"/><path class="cls-14" d="m185.6,52.4h6.7c.7,0,1.3.3,1.8.8,1.7,1.7,2.8,3.9,3.2,6.3.6,3.5-.4,7.1-2.8,9.8,0,.2-.2.3-.4.4-.5.6-1.2.9-2,.8h-13.6c-.3,0-.6-.2-.9-.4-2.1-1.9-3.5-4.6-3.8-7.4-.4-3.3.7-6.6,3-9,.2-.1.3-.3.4-.5.5-.5,1.1-.8,1.8-.7h6.6Zm6.3,9c0-3.5-2.8-6.3-6.2-6.3,0,0,0,0,0,0-3.5,0-6.4,2.7-6.4,6.2,0,3.5,2.7,6.4,6.2,6.4,3.5,0,6.4-2.7,6.4-6.2,0,0,0,0,0,0h0,0Z"/><path class="cls-33" d="m191.9,61.4c0,3.4-2.8,6.2-6.2,6.3-3.4.1-6.2-2.6-6.3-5.9,0-.1,0-.2,0-.4,0-3.5,2.8-6.3,6.3-6.3s6.3,2.8,6.3,6.3h0Zm-6.3-3.5c-1.9,0-3.5,1.6-3.5,3.5h0c0,1.9,1.6,3.5,3.5,3.5,1.9,0,3.5-1.5,3.5-3.5,0,0,0,0,0,0,0-2-1.6-3.5-3.5-3.6h0Z"/><path class="cls-54" d="m185.6,65c-1.9,0-3.5-1.5-3.5-3.4,0,0,0,0,0-.1,0-1.9,1.6-3.5,3.5-3.5h0c.3.2.4.6.5.9.4,1.8.4,3.6,0,5.4,0,.4-.2.7-.5.9h0Z"/><path class="cls-18" d="m185.6,65c.3-.2.4-.6.5-.9.4-1.8.4-3.6,0-5.4,0-.4-.2-.7-.5-.9,2,0,3.6,1.6,3.6,3.6,0,2-1.6,3.6-3.6,3.6h0Z"/><circle class="cls-3" cx="61" cy="302" r="36"/><path class="cls-5" d="m54.4,329.8c-.3-.1-.6-.2-.9-.2-2.3-.6-4.4-1.9-5.9-3.8-1.4-1.6-2.5-3.4-3.3-5.4v-.2h9.9c1.2,0,2.4,0,3.5-.4.5,1.1,1.1,2.2,1.8,3.2.4.6.8,1.1,1.4,1.5,0,.3.3.4.5.6,1.3,1.3,3,2.1,4.9,2.1.7,0,1.3.6,1.3,1.3,0,.5-.3,1-.7,1.3h.4c0,0-12.7,0-12.7,0h-.2Z"/><path class="cls-55" d="m66.4,287.8c1.6,0,3.2.5,4.6,1.4,2,1.3,3.7,3,4.8,5.1,1.6,2.6,2.6,5.5,3.1,8.6.4,2.6.6,5.3.5,7.9,0,.8,0,1.6-.3,2.4-.2,0-.3.2-.5.3-.6.6-1.2,1.2-2,1.6-1.5.8-3.3,1.1-5,.9-1.2-.1-2.3-.5-3.3-1.1-1-.6-1.9-1.5-2.6-2.6,0-.7.2-1.5.2-2.2,0-1.5,0-2.9-.2-4.4-.2-2.2-.7-4.3-1.4-6.3-.7-2.3-2-4.5-3.7-6.2,0-.3.4-.4.6-.6,1.3-1.3,3-2,4.8-2,.5,0,.9-.3,1.1-.7.4-.7.1-1.5-.6-1.9,0,0-.1,0-.2,0Zm6.2,18.6c-1.6,0-2.9,1.3-2.9,2.9s1.3,2.9,2.9,2.9,2.9-1.3,2.9-2.9-1.3-2.9-2.9-2.9h0Z"/><path class="cls-25" d="m65.8,312.3c.7,1,1.5,1.9,2.6,2.6,1,.6,2.1,1,3.3,1.1,1.7.2,3.4-.1,5-.9.8-.4,1.4-.9,2-1.6.2-.2.2-.3.5-.3-.3,2.8-1.1,5.5-2.2,8-1,2.2-2.4,4.2-4.2,5.8-1.5,1.5-3.5,2.4-5.6,2.6h-.4c.4-.3.7-.8.7-1.4,0-.7-.5-1.3-1.2-1.3,0,0,0,0,0,0-1.8,0-3.6-.8-4.9-2.1-.2-.2-.5-.2-.5-.6l.5-.5c1.4-1.7,2.5-3.7,3.2-5.8.6-1.9,1.1-3.9,1.4-5.9h0Z"/><path class="cls-5" d="m57.7,297.7c-1.1-.4-2.2-.5-3.4-.4h-10.1c.8-1.9,1.8-3.7,3.1-5.3,1-1.2,2.2-2.2,3.5-3,1.2-.7,2.5-1.1,3.8-1.1h11.6c.7.2,1.1,1,.9,1.7,0,.1,0,.2-.1.3-.2.4-.7.7-1.1.7-1.8,0-3.5.8-4.8,2-.2.2-.6.2-.6.6-.3.2-.6.6-.8.8-.9,1.1-1.6,2.4-2.2,3.7h0Z"/><path class="cls-39" d="m72.7,306.4c1.6,0,2.9,1.3,2.9,2.9s-1.3,2.9-2.9,2.9h0c-1.6,0-2.9-1.3-2.9-2.9s1.3-2.9,2.9-2.9Z"/><path d="m30,296.4l.7-1.9,6.1.8-4.9-3.7.6-1.4,6.1.6-5-3.5.7-1.9,7,5.3-.8,2.1-5.1-.6,4.2,3.1-.8,2.1-8.7-1h0Z"/><path d="m42,280.5l4.5,4.1-1.2,1.4-.4-.4c0,.7-.2,1.3-.6,1.8-1.2,1.2-3.1,1.2-4.3,0,0,0,0,0,0,0-1.3-1-1.5-2.9-.5-4.2,0,0,0,0,0-.1.4-.6,1.1-.9,1.8-.8l-.4-.4,1.2-1.4h0Zm1,3.4c-.5-.6-1.4-.6-2,0,0,0,0,0,0,0-.5.5-.5,1.4,0,1.9,0,0,.1,0,.2.1.5.6,1.4.6,2,0,0,0,0,0,0,0,.5-.5.5-1.4,0-1.9,0,0,0,0-.1-.1h0Z"/><path d="m46.8,279.4l1.2,1.8c.3.4.7.2,1.4-.2l.9,1.4c-1.8,1.5-2.8,1.3-3.8,0l-1.2-1.8-.8.6-1-1.4.8-.6-.6-1,1.2-1.4,1,1.4,1-.7,1,1.4-1,.7h0Z"/><path d="m49.2,279.3c-.7-1.6.1-3.5,1.7-4.1,0,0,0,0,.1,0,1-.4,2.2-.3,3.1.4l-1.1,1.4c-.4-.3-.9-.4-1.4-.2-.7.3-1,1.1-.8,1.8,0,0,0,0,0,0,.2.7.9,1.1,1.6.9,0,0,.1,0,.2,0,.5-.2.8-.6.9-1l1.8.2c-.2,1.1-.9,2.1-2,2.5-1.6.7-3.5,0-4.1-1.7,0,0,0,0,0,0h0Z"/><path d="m61.4,275.6l.4,3.7-1.8.2-.4-3.4c0-.5-.5-1-1-1,0,0-.1,0-.2,0-.6,0-1,.5-1,1.4l.3,3.3-1.8.2-.9-8.4,1.8-.2.3,3c.4-.5,1-.9,1.6-1,1.2-.2,2.3.6,2.6,2.2h0Z"/><path d="m72.4,278.6c-.4,1.6-2,2.6-3.6,2.2,0,0,0,0-.1,0-.7-.2-1.2-.6-1.5-1.3l-.2.6-1.8-.6,2.6-8.1,1.8.6-.9,2.9c.6-.3,1.3-.4,1.9-.2,1.6.6,2.4,2.3,1.8,3.9h0Zm-1.8-.6c.2-.8-.2-1.6-1-1.8-.8-.2-1.6.2-1.8,1-.2.8.2,1.6,1,1.8.7.3,1.5-.1,1.8-.8,0,0,0,0,0-.1Z"/><path d="m80.4,280.3l-3.4,5-1.5-1,.3-.5c-.7.1-1.4,0-1.9-.4-1.3-1-1.6-2.9-.6-4.2,0,0,0,0,0,0,.8-1.4,2.6-1.9,4-1.1,0,0,.1,0,.2.1.5.4.9.9,1,1.6l.3-.5,1.5,1h0Zm-3.2,1.4c.5-.6.3-1.5-.3-2,0,0,0,0,0,0-.6-.5-1.5-.3-1.9.3,0,0,0,0,0,.1-.5.6-.3,1.5.3,2,0,0,0,0,0,0,.6.5,1.5.3,1.9-.3,0,0,0,0,0-.1h0Z"/><path d="m84,288l-2.9,2.3-1.1-1.4,2.7-2.2c.5-.3.6-1,.3-1.5,0,0,0,0,0,0-.4-.5-1-.6-1.5-.2,0,0-.1,0-.2.1l-2.6,2.1-1.1-1.4,4.7-3.8,1.1,1.4-.5.3c.7,0,1.3.3,1.7.9.8,1,.7,2.3-.6,3.4h0Z"/><path d="m91.6,293.5l-7.8,3.2-.7-1.7.6-.2c-.6-.2-1.1-.7-1.4-1.4-.5-1.7.6-3.5,2.3-3.9,1.4-.4,3,.3,3.6,1.6.3.6.3,1.3,0,1.9l2.8-1.1.7,1.7h0Zm-5.8.4c.7-.2,1.1-1,.9-1.7,0,0,0-.1,0-.2-.2-.7-1-1.1-1.8-.9,0,0-.1,0-.2,0-.7.3-1.1,1.1-.8,1.8,0,0,0,0,0,.1.2.7,1,1.1,1.8.9,0,0,.1,0,.2,0Z"/><path class="cls-38" d="m201.9,356.3c2.6-.1,5.1.8,7,2.6.5.3.6,1,.2,1.4-.3.4-.9.4-1.4,0-1.5-1.4-3.4-2.2-5.5-2.1-1.7,0-3.3.7-4.6,1.8-.1.2-.3.3-.5.4-.4.3-1,.2-1.3-.2,0,0,0,0,0,0-.3-.4-.3-.9,0-1.2.5-.5,1.1-.9,1.7-1.3,1.3-.9,2.8-1.4,4.4-1.4h0Z"/><path class="cls-10" d="m202.3,359.7c1.8,0,3.5.6,4.7,1.8.6.5.6,1,.2,1.4-.4.4-1,.4-1.4,0,0,0,0,0,0,0-1.9-1.8-4.8-1.8-6.8,0-.6.5-1,.5-1.4,0s-.3-1,.2-1.4c1.2-1.1,2.8-1.8,4.5-1.8h0Z"/><path class="cls-10" d="m202.4,363.1c1.1,0,2.1.4,2.9,1.1.4.3.5.9.2,1.3h0c-.3.4-.9.5-1.3.2,0,0,0,0,0,0h0c-.9-.9-2.4-.9-3.3,0-.3.4-.8.4-1.2.1,0,0,0,0-.1-.1h0c-.3-.5-.2-1.1.2-1.4,0,0,0,0,0,0h0c.8-.7,1.8-1.1,2.8-1.1h-.2Z"/><path class="cls-53" d="m218.9,383.2c-1.2-4.3,2.6-13.3-3.9-13.8h-24.9c-7,.2-3.1,9.5-4.3,13.8v5.4c1.2,4.3-2.6,12.9,3.7,13.8h25.7c6.3-.8,2.6-9.6,3.8-13.8v-5.4Z"/><circle class="cls-3" cx="202.4" cy="373.2" r="36.2"/><path d="m183.3,359.1l-1,1.8-4.6-2.6,2.2,3.9v.2l-4.6.2,4.6,2.6-1,1.8-7.9-4.4,1-1.8,4.7-.2-2.3-4.1,1-1.8,7.9,4.4h0Z"/><path d="m181.6,356.5c-1.2-1.4-1.1-3.5.3-4.8,0,0,0,0,0,0,1.4-1.2,3.6-1.1,4.8.3,1.2,1.4,1.1,3.6-.3,4.8s-3.6,1.1-4.8-.3h0Zm3.7-3.2c-.6-.6-1.5-.6-2,0-.6.6-.6,1.5,0,2,.5.6,1.4.6,2,0,.6-.5.7-1.3.3-1.9,0,0-.1-.1-.2-.2h0Z"/><path d="m191.5,343.2l3.7,8.2-1.8.8-.2-.6c-.2.7-.8,1.3-1.4,1.5-1.6.7-3.4,0-4.1-1.6,0,0,0-.1,0-.2-.8-1.6-.2-3.5,1.3-4.3,0,0,0,0,0,0,.7-.3,1.4-.3,2.1,0l-1.3-2.9,1.8-.8Zm.6,6c-.3-.8-1.1-1.1-1.9-.9,0,0,0,0-.1,0-.8.3-1.1,1.2-.8,1.9,0,0,0,.1,0,.2.3.8,1.1,1.1,1.9.9,0,0,0,0,.1,0,.8-.3,1.1-1.2.8-2,0,0,0,0,0-.1Z"/><path d="m199.1,349.3c.5,0,.9-.2,1.1-.6l1.7.6c-.5,1-1.5,1.6-2.6,1.7-1.8.4-3.6-.8-4-2.6,0,0,0-.2,0-.3-.3-1.8.9-3.5,2.7-3.8,0,0,.1,0,.2,0,1.7-.3,3.4.9,3.7,2.7,0,0,0,.2,0,.2v.8l-4.5.6c.3.6,1,.9,1.7.6h0Zm.9-2.5c-.2-.6-.9-1-1.5-.8-.7,0-1.2.6-1.3,1.2l2.7-.4h0Z"/><path d="m213,348.2l-.8,3.9-1.8-.4.8-3.7c.2-.6,0-1.1-.7-1.2s-1,.2-1.2,1l-.7,3.5-1.8-.4.8-3.7c.2-.6,0-1.1-.7-1.2s-1,.2-1.2,1l-.7,3.5-1.8-.4,1.4-6.3,1.8.4-.2.6c.5-.4,1.2-.6,1.8-.4.7.1,1.2.6,1.4,1.2.6-.5,1.3-.6,2-.5,1.4.3,2.2,1.5,1.8,3.1h-.2Z"/><path d="m215.2,348.6l4.2,2.5-1,1.6-4.1-2.5.9-1.6Z"/><path d="m223.4,359.5l-.6-.6-1,1-1.4-1.5,1-1-2.9-2.9,1.4-1.4,6-1.9,1.5,1.6-6,1.9,1.3,1.4,1.4-1.4,1.4,1.5-1.4,1.4.6.6-1.4,1.4h0Z"/><path d="m230.2,366.8c-2,1.1-4.5.4-5.6-1.6,0-.2-.2-.3-.2-.5-1.2-2.3-.4-5.1,1.9-6.3,2.3-1.2,5.1-.4,6.3,1.9,0,0,.1.2.2.3.7,1.4.7,3.1-.2,4.4l-1.7-1.1c.7-1.3.1-3-1.2-3.6-.8-.4-1.6-.4-2.4,0-1.3.6-1.9,2.1-1.3,3.5,0,0,0,.2.1.2.4.9,1.3,1.5,2.2,1.4l-1-2.2,1.6-.8,1.9,4.1-.7.3h.2Z"/><path d="m200.6,387v3.7h-1.6v2.4h-4v-2.4h-6.9v-3.7l4.7-9.6h4.4l-4.7,9.6h2.5v-2.8h4v2.8h1.7Z"/><path d="m217.7,384.1v1.6c.2,4.1-3,7.6-7.1,7.8-.2,0-.5,0-.7,0-2.2,0-4.4-.8-6-2.3-1.5-1.5-2.4-3.6-2.3-5.8,0-2.2.8-4.3,2.3-5.9,1.5-1.6,3.7-2.5,5.9-2.4,1.4-.1,2.8.2,4,1,1.2.6,2.2,1.5,2.9,2.6l-3.4,1.9c-.4-.5-.8-.9-1.4-1.2-.6-.3-1.4-.5-2.1-.5-1.1,0-2.2.4-3.1,1.2-.8.8-1.3,2-1.2,3.1,0,1.1.4,2.3,1.2,3.1.9.9,2.1,1.3,3.3,1.3,1.5,0,2.9-.8,3.6-2.1h-3.8v-3.5h7.8Z"/><circle class="cls-3" cx="354.5" cy="192.5" r="36"/><path class="cls-37" d="m334.6,185.6v-5.9c0-.2,0-.3.3-.3h8.9v1.8q0,.6.6.6h19.9c.4,0,.5-.2.5-.5v-1.9h9c0,.2.2.3.2.5v5.4c0,.3-.2.5-.5.5h-1.1c-.9,0-1.5.8-1.4,1.7,0,.8.7,1.4,1.5,1.4h1.1q.5,0,.5.6v19.4c0,.5,0,.6-.6.6h-1.1c-.9,0-1.5.8-1.5,1.6s.7,1.5,1.5,1.5h1.1c.5,0,.6,0,.6.6v5.3c0,.2,0,.4-.2.5h-9v-1.9c0-.3-.2-.5-.5-.5h-20.2c-.4,0-.5.2-.5.5v1.9h-8.9c-.2,0-.3,0-.3-.3v-6.1h1.6c.9,0,1.5-.7,1.5-1.5s-.6-1.6-1.5-1.6h-1.1c-.2,0-.4,0-.5-.2v-20.2c.2,0,.3-.2.5-.2h1.1c.9,0,1.5-.8,1.5-1.7s-.6-1.4-1.4-1.5h-1.1c-.2,0-.4,0-.5-.2v.2Zm32.5,15.4h1.4c.5,0,.6-.2.6-.6s-.2-.6-.6-.6h-1.4v-1.4h1.4c.5,0,.7-.2.7-.6s-.2-.6-.7-.6h-1.4v-1.4h1.4c.4,0,.6-.2.6-.6s-.2-.6-.6-.6h-1.4v-1.4h1.4c.5,0,.6-.2.6-.6s-.2-.6-.6-.6h-1.4v-1.4h1.4c.5,0,.6-.2.6-.6s-.2-.6-.6-.6h-1.4v-1.4h1.4c.5,0,.7-.2.7-.6s-.2-.6-.7-.6h-1.4c0-1,0-1-1-1v-1.4c0-.5-.2-.6-.6-.6s-.6.2-.6.6v1.4h-1.4v-1.4c0-.5-.2-.7-.6-.7s-.6.2-.6.7v1.4h-1.4v-1.4c0-.5-.2-.7-.6-.7s-.6.2-.6.7v1.4h-1.4v-1.4c0-.5-.2-.7-.6-.7s-.6.2-.6.7v1.4h-1.4v-1.4c0-.5-.2-.7-.6-.7s-.6.2-.6.6v1.4h-1.4v-1.4c0-.5-.2-.7-.6-.7s-.6.2-.6.7v1.4h-1.4v-1.4c0-.5-.2-.7-.6-.7s-.6.2-.6.7v1.4h-1.4v-1.4c0-.5-.2-.7-.6-.7s-.6.2-.6.7v1.4h-1.4v-1.4c0-.5-.2-.7-.6-.7s-.6.2-.6.7v1.4h-1.4v-1.4c0-.5-.2-.7-.6-.7s-.6.2-.6.7v1.4c-1,0-.9,0-.9,1h-1.4c-.5,0-.7.2-.6.6s.2.6.6.6h1.4v1.4h-1.4c-.5,0-.7.2-.7.6s.2.6.7.6h1.4v1.4h-1.4c-.5,0-.7.2-.7.6s.2.6.7.6h1.4v1.4h-1.5c-.4,0-.7.2-.7.6s.2.6.7.6h1.5v1.4h-1.4c-.5,0-.6.2-.6.6s.2.6.6.6h1.4v1.4h-1.4c-.5,0-.7.2-.7.6s.2.6.7.6h1.4v1.4h-1.4c-.5,0-.7.2-.7.6s.2.6.7.6h1.4v1.4h-1.4c-.5,0-.6.2-.6.6s.2.6.6.6h1.4v1.4h-1.4c-.5,0-.6.2-.6.6s.2.6.6.6h1.4v1.4h-1.4c-.5,0-.7.2-.7.6s.2.6.7.6h1.4c0,1,0,.9,1,1v1.4c0,.5.2.6.6.6s.6-.2.6-.6v-1.4h1.4v1.4c0,.5.2.7.6.7s.6-.2.6-.7v-1.4h1.4v1.4c0,.5.2.7.6.7s.6-.2.6-.7v-1.4h1.4v1.4c0,.5.2.6.6.6s.6-.2.6-.6v-1.4h1.4v1.4c0,.5.2.6.6.6s.6-.2.6-.6v-1.4h1.4v1.4c0,.5.2.7.6.7s.6-.2.6-.7v-1.4h1.4v1.4c0,.5.2.6.6.6s.6-.2.6-.6v-1.4h1.4v1.4c0,.5.2.6.6.6s.6-.2.6-.6v-1.4h1.4v1.4c0,.5.2.6.6.6s.6-.2.6-.6v-1.4h1.4v1.4c0,.5.2.7.6.7s.6-.2.6-.7v-1.4c1,0,.9,0,1-1h1.4c.5,0,.6-.2.6-.6s-.2-.6-.6-.6h-1.4v-1.4h1.4c.5,0,.7-.2.7-.6s-.2-.6-.7-.6h-1.4v-1.4h1.4c.5,0,.7-.2.7-.6s-.2-.6-.7-.6h-1.4v-1.4h1.4c.5,0,.6-.2.6-.6s-.2-.6-.6-.6h-1.4v-1.4h0Zm-29.3-17.4c.6,0,1.2-.6,1.2-1.2h0c0-.6-.6-1.2-1.2-1.2s-1.1.6-1.1,1.3.5,1,1.1,1.1h0Zm34.2-1.2c0-.6-.6-1.2-1.2-1.2s-1.2.6-1.2,1.2.6,1.2,1.2,1.2,1.2-.5,1.2-1.1h0Zm-35.3,33.5c0,.6.6,1.2,1.2,1.2s1.2-.6,1.2-1.2h0c0-.6-.6-1.2-1.2-1.2h0c-.6,0-1.2.6-1.2,1.2h0Zm35.3,0c0-.6-.6-1.2-1.2-1.2h0c-.6,0-1.2.6-1.2,1.2s.6,1.2,1.2,1.2,1.2-.6,1.2-1.2Z"/><path class="cls-26" d="m362.5,181.7h-18q-.6,0-.6-.6v-1.8h18.7v2.4h0Z"/><path class="cls-26" d="m343.8,218.9v-1.9c0-.3.2-.5.5-.5h18.2v2.4h-18.7,0Z"/><path class="cls-34" d="m362.5,181.7v-2.4h2.4v1.9c0,.3-.2.5-.5.5h-1.9Z"/><path class="cls-34" d="m362.6,218.9v-2.4h1.9c.3,0,.5.2.5.5v1.9h-2.4Z"/><path class="cls-21" d="m345,211.9h-2.5c-1,0-.9,0-1-1v-23.6c0-1,0-.9,1-1h22.1v2.6c0,0-.2-.2-.4-.2h-19.6q-.6,0-.6.6v19.4q0,.6.6.6h19.6c.2,0,.3,0,.4-.2v2.6h-19.6Z"/><path class="cls-36" d="m364.6,188.9v-2.6h1.5c1,0,.9,0,1,1v23.6c0,1,0,.9-1,1h-1.4v-23h0Z"/><path class="cls-32" d="m337.8,183.7c-.6,0-1.1-.6-1.1-1.3s.5-1,1.1-1.1c.6,0,1.2.6,1.2,1.2s-.6,1.2-1.2,1.2h0Z"/><path class="cls-32" d="m372,182.5c0,.6-.5,1.2-1.2,1.2h0c-.6,0-1.2-.6-1.2-1.2s.6-1.2,1.2-1.2,1.2.6,1.2,1.2Z"/><path class="cls-46" d="m336.7,216c0-.6.5-1.2,1.1-1.2h0c.6,0,1.2.6,1.2,1.2h0c0,.6-.6,1.2-1.2,1.2s-1.2-.6-1.2-1.2h0Z"/><path class="cls-46" d="m372,215.9c0,.6-.5,1.2-1.2,1.2h0c-.6,0-1.2-.6-1.2-1.2s.6-1.2,1.2-1.2,1.2.5,1.2,1.2h0Z"/><path class="cls-52" d="m346.2,186.4h-1.1v-1.4c0-.5.2-.7.6-.7s.6.2.6.7v1.4Z"/><path class="cls-61" d="m367.1,198.5v-1.2h1.4c.5,0,.7.2.7.6s-.2.6-.7.6h-1.4Z"/><path class="cls-61" d="m353.7,186.4h-1.1v-1.4c0-.5.2-.7.6-.7s.6.2.6.7v1.4Z"/><path class="cls-61" d="m356.2,186.4h-1.1v-1.4c0-.5.2-.7.6-.7s.6.2.6.7v1.4Z"/><path class="cls-61" d="m341.7,197.3v1.2h-1.4c-.5,0-.7-.2-.6-.6s.2-.6.6-.6h1.4Z"/><path class="cls-52" d="m367.1,208.5v-1.2h1.4c.5,0,.7.2.7.6s-.2.6-.7.6h-1.4Z"/><path class="cls-61" d="m367.1,200.9v-1.2h1.4c.5,0,.6.2.6.6s-.2.6-.6.6h-1.4Z"/><path class="cls-52" d="m341.7,207.3v1.2h-1.4c-.5,0-.6-.2-.6-.6s.2-.6.6-.6h1.4Z"/><path class="cls-52" d="m341.7,189.8v1.2h-1.4c-.5,0-.7-.2-.7-.6s.2-.6.7-.6h1.4Z"/><path class="cls-52" d="m367.1,191v-1.2h1.4c.5,0,.6.2.6.6s-.2.6-.6.6h-1.4Z"/><path class="cls-61" d="m341.7,199.8v1.1h-1.4c-.5,0-.7-.2-.7-.6s.2-.6.7-.6h1.4Z"/><path class="cls-52" d="m345,211.9h1.1v1.4c0,.5-.2.7-.6.7s-.6-.2-.6-.7v-1.4Z"/><path class="cls-61" d="m352.6,211.9h1.1v1.4c0,.5-.2.6-.6.6s-.6-.2-.6-.6v-1.4Z"/><path class="cls-61" d="m355,211.9h1.1v1.4c0,.5-.2.7-.6.7s-.6-.2-.6-.7v-1.4Z"/><path class="cls-52" d="m362.5,211.9h1.1v1.4c0,.5-.2.6-.6.6s-.6-.2-.6-.6v-1.4Z"/><path class="cls-52" d="m363.6,186.4h-1.1v-1.4c0-.5.2-.7.6-.7s.6.2.6.7v1.4Z"/><path class="cls-60" d="m341.7,194.9v1.1h-1.5c-.4,0-.7-.2-.7-.6s.2-.6.7-.6h1.5Z"/><path class="cls-60" d="m367.1,196v-1.1h1.4c.5,0,.6.2.6.6s-.2.6-.6.6h-1.4Z"/><path class="cls-60" d="m357.5,211.9h1.1v1.4c0,.5-.2.6-.6.6s-.6-.2-.6-.6v-1.4Z"/><path class="cls-60" d="m341.7,202.3v1.2h-1.4c-.5,0-.7-.2-.7-.6s.2-.6.7-.6h1.4Z"/><path class="cls-60" d="m367.1,203.5v-1.2h1.4c.5,0,.6.2.6.6s-.2.6-.6.6h-1.4Z"/><path class="cls-60" d="m351.2,186.4h-1.1v-1.4c0-.5.2-.7.6-.7s.6.2.6.7v1.4Z"/><path class="cls-60" d="m358.6,186.4h-1.1v-1.4c0-.5.2-.7.6-.7s.6.2.6.7v1.4Z"/><path class="cls-60" d="m350,211.9h1.1v1.4c0,.5-.2.6-.6.6s-.6-.2-.6-.6v-1.4Z"/><path class="cls-51" d="m341.7,209.8v1.1h-1.4c-.5,0-.7-.2-.7-.6s.2-.6.7-.6,1,0,1.4,0Z"/><path class="cls-51" d="m367.1,210.9v-1.2h1.4c.5,0,.6.2.6.6s-.2.6-.6.6h-1.4Z"/><path class="cls-51" d="m367.1,188.5v-1.2h1.4c.5,0,.7.2.7.6s-.2.6-.7.6h-1.4Z"/><path class="cls-60" d="m347.6,211.9h1.1v1.4c0,.5-.2.7-.6.7s-.6-.2-.6-.7v-1.4Z"/><path class="cls-60" d="m367.1,193.5v-1.1h1.4c.4,0,.6.2.6.6s-.2.6-.6.6h-1.4Z"/><path class="cls-60" d="m341.7,192.3v1.1h-1.4c-.5,0-.7-.2-.7-.6s.2-.6.7-.6h1.4Z"/><path class="cls-60" d="m341.7,204.8v1.2h-1.4c-.5,0-.6-.2-.6-.6s.2-.6.6-.6h1.4Z"/><path class="cls-60" d="m367.1,206v-1.2h1.4c.5,0,.7.2.7.6s-.2.6-.7.6h-1.4Z"/><path class="cls-51" d="m342.6,211.9h1.1v1.4c0,.5-.2.6-.6.6s-.6-.2-.6-.6v-1.4Z"/><path class="cls-51" d="m341.7,187.3v1.2h-1.5c-.4,0-.6-.2-.6-.6s.2-.6.6-.6h1.5Z"/><path class="cls-51" d="m366.2,186.4h-1.2v-1.4c0-.5.2-.6.6-.6s.6.2.6.6v1.4h0Z"/><path class="cls-51" d="m365,211.9h1.2v1.4c0,.5-.2.7-.6.7s-.6-.2-.6-.7v-1.4h0Z"/><path class="cls-60" d="m361.1,186.4h-1.1v-1.4c0-.5.2-.7.6-.7s.6.2.6.7v1.4Z"/><path class="cls-60" d="m348.7,186.4h-1.1v-1.4c0-.5.2-.7.6-.7s.6.2.6.7v1.4Z"/><path class="cls-51" d="m343.7,186.4h-1.1v-1.4c0-.5.2-.7.6-.7s.6.2.6.7v1.4Z"/><path class="cls-60" d="m360,211.9h1.1v1.4c0,.5-.2.6-.6.6s-.6-.2-.6-.6v-1.4Z"/><path class="cls-58" d="m362.3,209.5h-17.6q-.6,0-.6-.6v-19.4q0-.6.6-.6h17.6v20.7h0Zm-.8-16.6h0v-1.8c0-.3-.2-.6-.6-.6h0c-.3,0-.6.2-.6.6h0v2.5c0,.6,0,.5-.6.6-.3,0-.4,0-.4-.4v-2.6c0-.4-.2-.6-.6-.6s-.6.2-.6.6h0v3.5c0,.5.2.6.7.6h1.8c.5,0,.7-.2.7-.7v-1.7.2Zm-6.8,0v1.8c0,.4.2.6.6.7s.6-.2.6-.6v-.9q0-.2.2-.2h1.1c.3,0,.6-.2.7-.6v-1.8c0-.6-.2-.7-.7-.7h-1.7c-.6,0-.8.2-.8.8v1.6h0Zm-3.5,0v1.8c0,.3.2.6.5.6h2c.4,0,.7-.2.7-.6s-.2-.6-.7-.6h-1.1c-.2,0-.2,0-.2-.2v-2c0-.2,0-.2.2-.2h1.1c.4,0,.6-.2.6-.6s-.2-.6-.6-.6h-1.9c-.3,0-.6.2-.6.5v1.8h0v.2Zm-4.5,15.5h1c.2,0,.3,0,.4-.2,0-.2,0-.3-.2-.4l-2.2-2c0-.2-.2-.2-.4,0-.2,0-.2.2-.2.3v2c0,.2,0,.3.3.4h1.1Z"/><path class="cls-8" d="m362.3,209.5v-20.6h2c.2,0,.3,0,.4.2v20.3c0,0-.2.2-.4.2h-2Z"/><path class="cls-49" d="m361.5,192.9v1.7c0,.6-.2.7-.7.7h-1.8c-.5,0-.7-.2-.7-.6v-3.4c0-.3.2-.6.5-.6h0c.3,0,.6.2.6.6v2.6c0,.3,0,.4.4.4.6,0,.6,0,.6-.6v-2.5c0-.3.2-.6.6-.6h0c.3,0,.6.2.6.6h0v1.8h0v-.2Z"/><path class="cls-49" d="m354.7,192.9v-1.6c0-.6.2-.7.8-.8h1.8c.5,0,.7.2.7.7v1.6c0,.3-.2.6-.6.7h-1.3q-.2,0-.2.2v.9c0,.4-.2.6-.6.6s-.6-.2-.6-.7v-1.8h0Zm1.6-.5c.2,0,.5,0,.5-.3s-.2-.4-.5-.3-.5,0-.5.3.2.4.5.3h0Z"/><path class="cls-49" d="m351.2,192.9v-1.7c0-.3.2-.6.5-.6h2.1c.4,0,.6.2.6.6s-.2.6-.6.6-.8,0-1.1,0-.2,0-.2.2v2c0,.2,0,.2.2.2h1.1c.4,0,.7.2.7.6s-.2.6-.7.6h-1.8c-.3,0-.6-.2-.6-.5v-2.1Z"/><path class="cls-64" d="m346.7,208.4h-1.1c-.2,0-.3,0-.4-.3h0v-2c0-.2,0-.3.2-.3s.3,0,.4,0l2.2,2c.2,0,.2.2.2.4s-.2.2-.4.2h-1,0Z"/><path class="cls-52" d="m356.3,192.3c-.2,0-.5,0-.5-.3s.2-.3.5-.3.5,0,.5.3-.2.3-.5.3Z"/><path d="m340.2,169.5c-1-3.1.7-6.3,3.9-7.3,1.9-.6,3.9-.2,5.4,1.1l-1.8,1.8c-.7-.7-1.8-.9-2.9-.6-1.9.6-2.7,2.2-2.2,4.2s2.2,2.8,4.1,2.2c1.1-.3,1.8-1.1,2.1-2.1l2.5.6c-.5,1.8-1.9,3.3-3.8,3.8-3.2,1-6.3-.7-7.3-3.9h0Z"/><path d="m361,165.6c-.2,2.1-2.1,3.7-4.2,3.4l-1.7-.2-.3,3.5-2.6-.2,1-11.1,4.2.4c2.2.2,3.8,2.1,3.5,4.2Zm-2.6-.2c0-.8-.4-1.5-1.2-1.6l-1.7-.2-.2,2.9,1.7.2c.8,0,1.4-.5,1.5-1.3h0Z"/><path d="m362.2,169.7l3.4-6.8,2.3,1.1-3.3,6.6c-.4.7-.3,1.6.9,2.2,1.2.6,1.9.2,2.2-.6l3.3-6.6,2.3,1.1-3.4,6.8c-1,2.2-3.4,2.6-5.6,1.5-2.2-1.1-3.2-3.2-2.2-5.4h0Z"/><circle class="cls-3" cx="56.3" cy="142.3" r="36"/><path d="m34,132.9l-.6,2-5-1.4,3,3.2v.2l-4.3,1.3,5,1.4-.6,2-8.6-2.3.6-2,4.5-1.3-3.2-3.4.6-2,8.6,2.3h0Z"/><path d="m32.7,123.7l5.3,3.6-1.1,1.6-.5-.3c.2.6,0,1.3-.4,1.9-.7,1-2.1,1.4-3.5.5l-3.2-2.2,1.1-1.6,3,2.1c.6.5,1.3.2,1.6-.2.4-.6.3-1.2-.4-1.8l-2.9-2,1.1-1.6h-.2Z"/><path d="m32.3,119.9l1.4-1.4,6.5,6.7-1.4,1.4-6.5-6.7Z"/><path d="m40.3,119.5l1.3,1.8c.3.5.7.2,1.4-.3l1,1.4c-1.9,1.7-3,1.4-4,0l-1.3-1.8-.8.6-1-1.5.8-.6-.7-1,1.3-1.6,1,1.4,1.1-.7,1,1.5-1.1.7h0Z"/><path d="m40.9,114.9c-.2-.6,0-1.3.6-1.5s1.3,0,1.5.6c.2.6,0,1.3-.6,1.5s-1.3,0-1.5-.6Zm1,1.4l1.8-.9,2.8,5.8-1.8.9-2.8-5.8Z"/><path d="m46,116.2l4.7-1.3.5,1.8-4.7,1.3-.5-1.8Z"/><path d="m52.5,116.1c0-1.9,1.4-3.4,3.3-3.4s2.3.6,3,1.6l-1.7,1c-.2-.5-.7-.7-1.3-.7-.8,0-1.4.6-1.4,1.5s.6,1.4,1.5,1.4,1-.3,1.2-.7l1.7.9c-.6,1-1.6,1.7-2.9,1.8-1.9,0-3.4-1.4-3.4-3.3h0Z"/><path d="m66.9,114.5l-1.5,6.2-1.8-.5.2-.6c-.6.4-1.2.5-2,.3-1.6-.4-2.6-2.2-2.2-4,.5-1.8,2.2-3,3.8-2.6.8.2,1.4.6,1.7,1.2l.2-.6,1.8.5h0Zm-2.6,2.6c.2-1-.2-1.7-1.1-1.9-.9-.2-1.6.2-1.8,1.1-.2,1,.2,1.7,1.1,1.9s1.6-.2,1.8-1.1Z"/><path d="m76.2,123l-2.2,3.2-1.6-1.1,2.2-3.1c.4-.6.3-1-.2-1.4-.6-.4-1-.2-1.5.4l-2.1,3-1.6-1.1,2.2-3.1c.4-.6.3-1-.2-1.4-.6-.4-1-.2-1.5.4l-2.1,3-1.6-1.1,3.6-5.3,1.6,1.1-.3.5c.5-.2,1.1-.2,1.8.3.6.4.9,1,.9,1.7.6-.2,1.3-.2,2,.3,1.2.8,1.4,2.2.5,3.6l.2.2Z"/><path d="m77.3,128.6c.3.4.7.6,1.1.7l.2,1.8c-1,0-2-.5-2.7-1.5-1.3-1.8-.9-3.8.6-4.9s3.5-.9,4.7.8c1.1,1.5.7,3.5-.9,4.6-.2.2-.5.3-.6.4l-2.6-3.7c-.4.6-.2,1.2.2,1.8h0Zm2.6-.4c.5-.6.4-1.2,0-1.7-.4-.6-1-.8-1.6-.6l1.6,2.2Z"/><path d="m85.6,133.7l-2,.8c-.2-.8-.9-1.7-2.1-1.2l-2.6,1.1-.7-1.8,5.9-2.5.7,1.8-1,.4c.9,0,1.6.6,1.9,1.3h0Z"/><path d="m87.1,141.8l-6.3,1-.3-1.9h.6c-.6-.4-1-1-1-1.8-.2-1.7,1-3.3,2.9-3.5,1.9-.3,3.5.8,3.8,2.5.2.9,0,1.5-.5,2h.6c0,0,.3,1.8.3,1.8Zm-3.4-1.4c1-.2,1.4-.9,1.3-1.8-.2-.9-.8-1.4-1.8-1.3-1,.2-1.4.9-1.3,1.8.2.9.8,1.4,1.8,1.3Z"/><path class="cls-23" d="m75.2,151.5v15.4c.2,1.7-1.1,3.1-2.7,3.3h-31.5c-1.8.2-3.4-1.2-3.5-3v-31c0-2.4,1.4-3.7,3.8-3.7h30.4c1.8-.2,3.4,1.2,3.5,3v16h0Zm-20.4,7.8c0-3.4-2.8-6.2-6.2-6.2s-6.2,2.8-6.2,6.2,2.8,6.2,6.2,6.2h0c3.4,0,6.2-2.8,6.2-6.2Zm0-15.8c0-3.4-2.8-6.2-6.2-6.2s-6.2,2.8-6.2,6.2,2.8,6.2,6.2,6.2,6.2-2.6,6.3-6.1v-.2h0Zm9.4,6.2c3.4,0,6.3-2.8,6.3-6.2s-2.8-6.3-6.2-6.3-6.3,2.8-6.3,6.2h0c0,3.4,2.8,6.3,6.2,6.3h0Zm4.8,9.4v-3c0-.9-.5-1.6-1.4-1.8h-6.4c-.8,0-1.5.5-1.7,1.3v6.4c0,.9.6,1.6,1.4,1.7h6.3c.9,0,1.6-.6,1.7-1.4v-3.3h0Z"/><path class="cls-43" d="m54.8,159.3c0,3.4-2.9,6.2-6.3,6.2-3.4,0-6.2-2.9-6.2-6.3,0-3.4,2.8-6.2,6.2-6.2s6.3,2.9,6.2,6.3h0Zm-9.4-.9v.7c0,1.4.9,2.6,2.2,3.1,1.7.6,3.4-.4,4-2.1.3-1,.2-2-.5-2.8-.7-1-1.9-1.4-3.1-1.2-1.9,0-2.6.5-2.6,2.2h0Z"/><path class="cls-43" d="m54.8,143.6c0,3.4-2.8,6.2-6.2,6.2s-6.2-2.8-6.2-6.2,2.8-6.2,6.2-6.2h0c3.4,0,6.2,2.8,6.2,6.2h0Zm-9.2-.6c-.3,1.2,0,2.5,1,3.2,1.1.8,2.6.8,3.7,0,1-.6,1.5-1.8,1.3-3-.2-1.6-1.7-2.8-3.3-2.6h-.4c-1-.3-2.1.2-2.4,1.1-.2.4-.2.9,0,1.3h0Z"/><path class="cls-43" d="m64.2,149.9c-3.4,0-6.2-2.9-6.2-6.3s2.9-6.2,6.3-6.2,6.2,2.9,6.2,6.3-2.9,6.2-6.3,6.2Zm-3-6.9c-.5.8,0,1.5.3,2.2.6,1.2,2,1.8,3.3,1.5,1.2-.2,2.2-1.2,2.5-2.4.3-1.4-.3-2.8-1.6-3.4-.7-.3-1.5-.5-2.3-.4-1.6,0-2.6,1-2.2,2.6Z"/><path class="cls-13" d="m68.9,159.3v3c0,.9-.6,1.6-1.4,1.7h-6.3c-.9,0-1.6-.6-1.7-1.4v-6.4c0-.8.5-1.5,1.3-1.7h6.4c.9,0,1.6.6,1.7,1.4v3.3h0Zm-5.5-.8h3c.6,0,1-.2,1-.9s-.5-.6-1-.6h-2.3c0-.5-.5-.8-1-.9-.8,0-1.5.5-1.8,1.2-.3.5-.2,1,.2,1.4.6.6,1.3.2,1.8-.2,0,0,0,0,0-.2h0Zm.8,3.2h2.3c.4,0,.8-.3.8-.7h0c0-.6-.3-.7-.8-.7h-4.6c-.4,0-.7.2-.8.6v.2c0,.4.3.7.7.7h2.4,0Z"/><path class="cls-63" d="m48,156.3c1.2-.3,2.4.2,3.1,1.1,1,1.4.7,3.4-.7,4.4-.8.6-1.8.7-2.8.4-1.3-.5-2.2-1.7-2.2-3.1v-.7c.4.5,1,.7,1.6.6,0,1.5,1,2.2,2.1,1.8.8-.3,1.2-1.2.9-2-.2-.8-1-1.3-1.8-1,.2-.5,0-1-.2-1.4h0Z"/><path class="cls-50" d="m48,156.3c.3.4.4,1,.2,1.4-.2.6-.7.9-1.1,1.3-.6.2-1.2,0-1.6-.6,0-1.7.6-2.2,2.6-2.2h0Z"/><path class="cls-63" d="m48,140.6c1.6-.4,3.2.6,3.6,2.1v.4c.2,1.2-.3,2.4-1.3,3-1.1.8-2.6.8-3.7,0-1-.7-1.4-1.9-1-3.1.4.3,1,.4,1.5.2,0,1.4,1,2.2,2,1.8.7-.2,1.2-.9,1-1.6,0-1-.8-1.4-1.9-1.4.2-.5.2-1.1-.2-1.5h0Z"/><path class="cls-50" d="m47,143.3c-.5.2-1,.2-1.5-.2-.3-1,.2-2.1,1.1-2.4.4-.2.9-.2,1.3,0,.3.4.4,1,.2,1.4-.3.5-.6.8-1.1,1.1h0Z"/><path class="cls-63" d="m63.4,140.5c.8,0,1.6,0,2.3.4,1.3.6,1.9,2.1,1.6,3.4-.3,1.2-1.3,2.1-2.5,2.3-1.3.2-2.6-.4-3.3-1.5-.3-.6-.8-1.4-.3-2.2.4.2,1,.4,1.4.3,0,.8.2,1.5,1.1,1.7.7.2,1.6,0,1.8-.8.5-1.1-.2-2-1.8-2.2.2-.6,0-1.2-.5-1.6h0Z"/><path class="cls-50" d="m63.4,140.5c.5.4.7,1,.6,1.6-.3.5-.8,1-1.3,1.3-.5,0-1,0-1.4-.3-.5-1.5.6-2.6,2.2-2.6Z"/><path class="cls-45" d="m64.2,161.7h-2.3c-.4,0-.7-.2-.8-.6h0c0-.5.2-.8.6-.9h4.7c.5,0,.8,0,.8.6s-.2.8-.7.8h-2.4,0Z"/><path class="cls-15" d="m63.4,158.5s0,0-.2,0c-.6.4-1.2.7-1.8.2-.4-.3-.5-1-.2-1.4.3-.7,1-1.2,1.8-1.2s.9.4,1,.9c0,.6-.2,1-.5,1.4h0Z"/><path class="cls-45" d="m63.4,158.5c.3-.4.6-1,.6-1.4h2.4c.5,0,1,0,1,.6s-.3.9-1,.9h-3Z"/><path class="cls-43" d="m47,159c.4-.4,1-.6,1.1-1.3.8-.2,1.6.2,1.8,1,.3.8,0,1.7-.9,2-1.1.4-2-.3-2.1-1.8Z"/><path class="cls-43" d="m47,143.3c.5-.3.8-.6,1.1-1.1,1.1,0,1.8.5,1.9,1.4,0,.7-.3,1.4-1,1.6-1,.4-2-.5-2-1.8Z"/><path class="cls-43" d="m62.7,143.4c.5-.4,1-.8,1.3-1.3,1.5,0,2.2,1,1.8,2.2-.3.7-1.1,1-1.8.8-.9-.2-1.1-.9-1.1-1.7h0Z"/><line class="cls-6" x1="200" y1="282.5" x2="200" y2="324.5"/><line class="cls-4" x1="200" y1="282.5" x2="200" y2="313.7"/><polygon class="cls-59" points="192.5 311.5 200 324.5 207.5 311.5 192.5 311.5"/><line class="cls-6" x1="167.9" y1="274.2" x2="147.5" y2="310.9"/><line class="cls-4" x1="167.9" y1="274.2" x2="152.7" y2="301.5"/><polygon class="cls-59" points="147.3 295.9 147.5 310.9 160.3 303.2 147.3 295.9"/><line class="cls-6" x1="143.9" y1="251.3" x2="108.2" y2="273.4"/><line class="cls-4" x1="143.9" y1="251.3" x2="117.4" y2="267.8"/><polygon class="cls-59" points="115.3 260.3 108.2 273.4 123.2 273 115.3 260.3"/><line class="cls-6" x1="134.1" y1="219.6" x2="92.1" y2="221.6"/><line class="cls-4" x1="134.1" y1="219.6" x2="102.9" y2="221.1"/><polygon class="cls-59" points="104.7 213.6 92.1 221.6 105.4 228.5 104.7 213.6"/><line class="cls-6" x1="140.9" y1="187.2" x2="103.2" y2="168.5"/><line class="cls-4" x1="140.9" y1="187.2" x2="112.9" y2="173.3"/><polygon class="cls-59" points="118.2 167.6 103.2 168.5 111.5 181 118.2 167.6"/><line class="cls-6" x1="162.6" y1="162.1" x2="138.8" y2="127.5"/><line class="cls-4" x1="162.6" y1="162.1" x2="144.9" y2="136.4"/><polygon class="cls-59" points="152.3 134 138.8 127.5 139.9 142.5 152.3 134"/><line class="cls-6" x1="193.7" y1="150.8" x2="189.7" y2="109"/><line class="cls-4" x1="193.7" y1="150.8" x2="190.8" y2="119.7"/><polygon class="cls-59" points="198.4 121.2 189.7 109 183.5 122.6 198.4 121.2"/><line class="cls-6" x1="226.5" y1="156" x2="243.3" y2="117.6"/><line class="cls-4" x1="226.5" y1="156" x2="239" y2="127.4"/><polygon class="cls-59" points="245 132.4 243.3 117.6 231.3 126.4 245 132.4"/><line class="cls-6" x1="252.5" y1="176.5" x2="285.9" y2="151.1"/><line class="cls-4" x1="252.5" y1="176.5" x2="277.4" y2="157.6"/><polygon class="cls-59" points="280.2 164.9 285.9 151.1 271.1 153 280.2 164.9"/><line class="cls-6" x1="265.3" y1="207.1" x2="306.9" y2="201.1"/><line class="cls-4" x1="265.3" y1="207.1" x2="296.2" y2="202.7"/><polygon class="cls-59" points="295.1 210.4 306.9 201.1 293 195.6 295.1 210.4"/><line class="cls-6" x1="261.7" y1="240.1" x2="300.9" y2="255"/><line class="cls-4" x1="261.7" y1="240.1" x2="290.8" y2="251.2"/><polygon class="cls-59" points="286.1 257.4 300.9 255 291.5 243.4 286.1 257.4"/><line class="cls-6" x1="242.4" y1="267.1" x2="269.4" y2="299.2"/><line class="cls-4" x1="242.4" y1="267.1" x2="262.5" y2="291"/><polygon class="cls-59" points="255.4 294.1 269.4 299.2 266.8 284.5 255.4 294.1"/></svg>