<?xml version="1.0" encoding="UTF-8"?><svg id="Layer_1" xmlns="http://www.w3.org/2000/svg" viewBox="0 0 400 261"><defs><style>.cls-1{stroke:#a5262d;}.cls-1,.cls-2{stroke-width:4px;}.cls-1,.cls-2,.cls-3{fill:none;stroke-miterlimit:10;}.cls-4{fill:#435256;}.cls-5{fill:#f0ca6f;}.cls-6{fill:#fff;}.cls-7{fill:#e2bb64;}.cls-8{fill:#a5c2db;}.cls-9{fill:#fcc472;}.cls-10{fill:#2d3b3d;}.cls-11{fill:#222;}.cls-2{stroke:#c000e2;}.cls-12{fill:#fbc372;}.cls-13{fill:#555a6e;}.cls-14{fill:#463c4b;}.cls-15{fill:#a5c3db;}.cls-16{fill:#d3e4ee;}.cls-17{fill:#424240;}.cls-18{fill:#2489c4;}.cls-3{stroke:#231f20;stroke-width:2px;}.cls-19{fill:#58d4fc;}.cls-20{fill:#d6e5ef;}.cls-21{fill:#2487c3;}.cls-22{fill:#212121;}.cls-23{fill:#2387c3;}.cls-24{fill:#fdc472;}.cls-25{fill:#2487c2;}.cls-26{fill:#f0f3f2;}.cls-27{fill:#2387c2;}.cls-28{fill:#a4c2db;}.cls-29{fill:#231f20;}.cls-30{fill:#fccc07;}.cls-31{fill:#f99e3d;}</style></defs><line class="cls-6" x1="164.3" y1="105.6" x2="115.7" y2="144.9"/><line class="cls-3" x1="164.3" y1="105.6" x2="124" y2="138.2"/><polygon class="cls-29" points="121.1 131 115.7 144.9 130.5 142.6 121.1 131"/><line class="cls-6" x1="235.7" y1="108.6" x2="284.3" y2="147.9"/><line class="cls-3" x1="235.7" y1="108.6" x2="276" y2="141.2"/><polygon class="cls-29" points="269.5 145.6 284.3 147.9 278.9 134 269.5 145.6"/><circle class="cls-1" cx="200" cy="59" r="45"/><path class="cls-11" d="m187.6,41.7c.5.2.7.7.7,1.2v5.4h-1.9v-5.3c0-.5.2-1,.6-1.2h.6Z"/><path class="cls-11" d="m206.7,41.7c.4.2.7.7.6,1.2v5.4h-1.9v-5.3c0-.5.2-1,.6-1.2h.7Z"/><path class="cls-11" d="m211.8,48.3v-5.3c0-.5.2-1,.6-1.2h.6c.4.2.7.7.6,1.1v5.4h-1.9.1Z"/><path class="cls-11" d="m227.6,69.8c-.3.4-.8.6-1.3.5h-5.3v-1.9h5.4c.5,0,.9.2,1.1.6v.8h0Z"/><path class="cls-11" d="m200.3,41.7c.4.2.7.7.6,1.2v5.4h-1.9v-5.5c0-.5.2-.9.7-1.1h.6Z"/><path class="cls-11" d="m188.3,90.4v5.1c0,.7,0,1.2-.9,1.4h-.3c-.5-.3-.7-.9-.7-1.5v-5.1h1.9Z"/><path class="cls-11" d="m207.4,90.4v5.2c0,.6-.3,1.2-.8,1.4h-.3c-.5-.3-.8-.9-.7-1.5v-5.1h1.9-.1Z"/><path class="cls-11" d="m212.5,97c-.5-.3-.7-.9-.7-1.5v-5.1h1.9v5.1c0,.7,0,1.2-.9,1.4h-.3Z"/><path class="cls-11" d="m178.9,57.5h-5.5c-.4,0-.9-.2-1.1-.6v-.8c.3-.4.8-.5,1.3-.5h5.3v1.8h0Z"/><path class="cls-11" d="m172.4,81.7c.2-.4.6-.6,1.1-.6h5.5v1.9h-5.3c-.5,0-1,0-1.3-.5v-.8Z"/><path class="cls-11" d="m221.1,81.1c1.4,0,2.8,0,4.3,0h1.2c.4,0,.9.2,1.1.6v.6c-.2.4-.7.6-1.1.6h-5.5v-1.9h0Z"/><path class="cls-11" d="m178.9,63.9h-5.5c-.4,0-.9-.2-1.1-.6v-.7c.2-.4.6-.6,1.1-.6h5.5v1.8h0Z"/><path class="cls-11" d="m192.7,48.3v-5.4c0-.5.2-.9.6-1.2h.6c.4.2.6.7.6,1.2v5.4h-1.8Z"/><path class="cls-11" d="m221.1,74.8h5.5c.4,0,.9.2,1.1.6v.6c-.2.4-.6.6-1.1.6h-5.5v-1.9h0Z"/><path class="cls-11" d="m227.6,63.3c-.2.4-.6.6-1.1.6h-5.5v-1.9h5.5c.4,0,.9.2,1.1.6v.7Z"/><path class="cls-11" d="m178.9,70.2h-5.3c-.5,0-1-.2-1.2-.6v-.6c.3-.4.8-.6,1.2-.6h5.3v1.8Z"/><path class="cls-11" d="m172.4,75.4c.2-.4.6-.6,1.1-.6h5.5v1.8h-5.5c-.4,0-.9-.2-1.1-.6v-.7h0Z"/><path class="cls-11" d="m227.6,56.9c-.3.4-.8.6-1.3.6h-4.6c-1.5,0-.4,0-.6,0v-1.9c1.4,0,2.9,0,4.3,0h1c.5,0,1,.2,1.2.7v.5h0Z"/><path class="cls-22" d="m193.4,97c-.5-.3-.8-.8-.7-1.4v-4.6c0-1.5,0-.4,0-.6h1.9c0,1.2,0,2.4,0,3.6v1.6c0,.6-.2,1.2-.8,1.3h-.4Z"/><path class="cls-22" d="m199.8,97c-.5-.3-.7-.8-.7-1.3v-5.2h1.8v5.3c0,.6-.2,1.1-.8,1.3h-.3Z"/><path class="cls-17" d="m200.9,90.4h-21.2c-.6,0-.8-.3-.8-.9v-40.3c0-.6.3-.9.9-.9h40.4c.6,0,.8.3.8.9v40.4c0,.6-.3.9-.8.9h-19.4,0Zm-.9-7.1h13.3c.5,0,.6,0,.6-.6v-26.7c0-.5,0-.6-.6-.6h-26.7c-.5,0-.6,0-.6.6v26.7c0,.5,0,.6.6.6h13.4Z"/><path class="cls-22" d="m200,83.3h-13.3c-.5,0-.6,0-.6-.6v-26.7c0-.5,0-.6.6-.6h26.7c.5,0,.6,0,.6.6v26.7c0,.5-.2.6-.6.6h-13.4Zm-9.4-13.9c0,5.2,4.2,9.4,9.4,9.4s9.4-4.2,9.4-9.4-4.2-9.4-9.4-9.4-9.4,4.2-9.5,9.4h0Z"/><path class="cls-26" d="m190.6,69.3c0-5.2,4.2-9.4,9.4-9.4s9.4,4.2,9.4,9.4-4.2,9.4-9.4,9.4h0c-5.2,0-9.4-4.2-9.4-9.4h0Zm8.7,6.8c0,0,.2-.2.3-.4,1.1-1.7,2.2-3.5,3.3-5.2l1.3-2.1h-2.7c-.4,0-.5,0-.5-.5v-5.4c-.5.7-1,1.3-1.4,2.1l-3.2,5.1c0,0-.2.2-.2.4s.3,0,.4,0h2.1c.4,0,.6,0,.6.6v5.3c0,0,0,0,0,0h0Z"/><path class="cls-5" d="m199.2,74.2v-3.4c0-.5,0-.6-.6-.6h-2.1c-.7,0-.4,0-.4,0,0,0,0-.3.2-.4l3.2-5.1c.4-.7.9-1.4,1.4-2.1v5.4c0,.4,0,.5.5.5h1.6c-.9,1.4-1.8,2.8-2.7,4.2-.3.5-.6,1-1.1,1.5Z"/><path class="cls-7" d="m199.2,74.2c.4-.4.8-.9,1-1.5.9-1.4,1.8-2.8,2.7-4.2h1.1l-1.3,2.1c-1.1,1.7-2.2,3.5-3.3,5.2,0,0-.2.3-.3.4h0v-1.9h0Z"/><path d="m166.8,43.7c2.3.8,3.5,3.2,2.7,5.5l-.6,1.8,3.7,1.3-.9,2.7-11.9-4,1.5-4.5c.8-2.3,3.2-3.5,5.5-2.8Zm-.9,2.7c-.9-.3-1.7,0-2,.9l-.6,1.8,3.1,1,.6-1.8c.3-.8-.2-1.7-1-2h-.1Z"/><path d="m170.5,36.6l2.6,1.7c-.8.8-1.3,2.4.2,3.4l3.4,2.3-1.5,2.2-7.5-5,1.5-2.2,1.3.9c-.8-1-.6-2.3,0-3.2h0Z"/><path d="m174.8,38.3c-1.8-2-1.6-4.9.4-6.7,2-1.8,4.9-1.6,6.7.4s1.6,4.9-.4,6.7c-2,1.8-4.9,1.6-6.7-.4Zm5.1-4.5c-.9-1-2.1-1-2.9-.2-.9.8-1,2-.1,3s2.1,1,2.9.2c.9-.8,1-2,.1-3Z"/><path d="m183.2,31.2c-1.1-2.4,0-5.2,2.3-6.3,1.6-.7,3.4-.5,4.6.4l-1.6,2.2c-.5-.4-1.3-.5-2-.2-1.1.5-1.5,1.6-1,2.7s1.6,1.5,2.7,1.1c.7-.3,1.2-.9,1.2-1.6l2.7.3c0,1.6-1.1,3.1-2.7,3.8-2.5,1.1-5.2,0-6.3-2.4h0Z"/><path d="m197.4,28.9c.7,0,1.3-.5,1.6-.9l2.3.9c-.7,1.3-1.9,2.1-3.6,2.4-3,.4-5.2-1.4-5.5-4-.4-2.7,1.3-5,4.1-5.4,2.6-.4,4.8,1.4,5.1,4.1v1.1l-6.3.9c.5.9,1.3,1.1,2.3,1h0Zm1.2-3.5c-.4-1-1.3-1.3-2.1-1.2-1,.1-1.6.7-1.7,1.7l3.8-.5Z"/><path d="m209.5,28.9c-.3,2.1-2.2,2.7-4.1,2.4-1.8-.2-3-1.1-3.5-2.6l2.5-1c0,.7.6,1.2,1.4,1.3.6,0,1,0,1-.4,0-1-4.3-1.1-3.9-4.1.3-1.9,2-2.7,3.9-2.5,1.4.2,2.6,1,3.2,2.4l-2.4.9c-.2-.5-.5-.9-1.1-.9s-.8,0-.8.4c0,1,4.3.9,3.9,4.2h-.1Z"/><path d="m216.8,31.7c-.7,1.9-2.7,2.1-4.5,1.4-1.7-.6-2.7-1.8-2.8-3.4l2.6-.4c0,.7.3,1.3,1,1.5.6.2,1,.2,1.1-.2.4-.9-3.9-2-2.8-4.9.7-1.8,2.6-2.2,4.3-1.5,1.4.5,2.3,1.6,2.6,3.1l-2.6.3c0-.5-.3-1-.8-1.2-.4-.2-.8-.1-.9.2-.4,1,4,1.9,2.8,5h0Z"/><path d="m218.7,30.5c1.6-2.1,4.6-2.5,6.6-.9,2.1,1.6,2.5,4.5.9,6.6s-4.6,2.5-6.6.9c-2.1-1.6-2.5-4.5-.9-6.6Zm5.4,4.1c.8-1,.6-2.2-.3-2.9-.9-.7-2.1-.6-2.9.4s-.6,2.2.3,2.9c.9.7,2.1.6,2.9-.4Z"/><path d="m234.3,39.2l-2.4,1.9c-.5-1-1.9-2-3.3-.9l-3.2,2.5-1.6-2.1,7.1-5.5,1.6,2.1-1.3,1c1.2-.5,2.4.1,3,1h.1Z"/><path d="m232.7,50.3c-1.9.9-3.4-.4-4.3-2.1-.8-1.6-.7-3.1.3-4.4l2.2,1.5c-.5.5-.6,1.1-.3,1.8.3.6.6.8.9.6.9-.4-1.5-4.2,1.4-5.5,1.8-.8,3.4.2,4.2,1.9.6,1.3.6,2.7-.3,4l-2.1-1.5c.3-.4.5-.9.2-1.4-.2-.4-.5-.6-.8-.5-.9.4,1.6,4.1-1.4,5.5h0Z"/><circle class="cls-2" cx="101.9" cy="199" r="45"/><path d="m69.1,196.5l-.7-2.3c.9-.2,1.7-.6,1.9-1.8.3-1.1-.1-1.5-.5-1.6-.6-.2-1,.4-1.8,1.8-.8,1.4-1.9,2.7-3.8,2.2-2-.5-2.7-2.4-2.3-4.2.4-1.7,1.5-2.8,3.2-3.2l.7,2.2c-.8.2-1.4.5-1.6,1.5-.2.7,0,1.2.5,1.3s.8,0,1.7-1.5c.8-1.4,1.8-3,4-2.5,2,.5,2.7,2.3,2.2,4.5-.5,2.1-1.9,3.3-3.5,3.5h0Z"/><path d="m70.2,187.1c-1.9-1.1-2.6-3.5-1.5-5.4,1.1-1.9,3.5-2.6,5.4-1.5,1.9,1.1,2.6,3.5,1.5,5.4s-3.5,2.6-5.4,1.5Zm2.8-5c-.9-.5-1.9-.2-2.4.6s-.2,1.8.7,2.4c.9.5,1.9.2,2.4-.6s.2-1.8-.7-2.4Z"/><path d="m74.9,179.2c-1.6-1.6-1.7-4,0-5.6,1-1,2.5-1.4,3.7-1.1l-.5,2.2c-.6-.2-1.2,0-1.6.5-.7.7-.7,1.7,0,2.4.7.7,1.8.7,2.4,0,.5-.5.6-1.1.4-1.6l2.2-.6c.4,1.3,0,2.7-1,3.8-1.6,1.6-4,1.7-5.6,0Z"/><path d="m92.5,171.8l-1.3-.5c-.5.8-1.2,1.4-2.2,1.8-2,.9-3.9.4-4.7-1.4-.5-1.1-.4-2.4.3-3.4-.4-.3-.8-.7-1.1-1.3-.7-1.6,0-3.4,1.9-4.2,1.4-.6,2.9-.4,4.1.7l-1.4,1.9c-.5-.5-1.1-.8-1.7-.5-.5.2-.8.7-.6,1.2s.7.7,1.4,1l2.6,1.2c0-.5,0-1.1-.2-1.7l2.3.2c0,.8,0,1.6,0,2.4l1.8.8-1.3,1.7h.1Zm-3.2-1.4l-2.6-1.1h0c-.2.4-.2.9,0,1.2.3.6.9.9,1.9.5.4-.2.6-.4.9-.6h-.1Z"/><path d="m108.4,170.3h-2.4c0-.1.3-6.2.3-6.2l-2.9,4.3h-.3l-2.5-4.6-.3,6.1h-2.4c0-.1.5-10.6.5-10.6h2.4c0,.1,2.6,4.9,2.6,4.9l3.1-4.5h2.4c0,.1-.5,10.6-.5,10.6Z"/><path d="m113.5,170.4c.6.2,1.2.2,1.5,0l1.3,1.6c-1,.7-2.3.8-3.6.3-2.4-.9-3.3-3.1-2.5-5.2s2.9-3.1,5.1-2.3c2,.8,3,2.9,2.2,5,0,.3-.2.6-.4.8l-5-1.9c0,.8.5,1.3,1.3,1.6h.1Zm2.3-2.1c0-.9-.4-1.4-1.1-1.7-.8-.3-1.5-.1-1.9.5l3,1.1h0Z"/><path d="m128.4,177l-2.9,3.6-1.7-1.4,2.8-3.4c.5-.6.5-1.2,0-1.6-.6-.5-1.2-.3-1.8.3l-2.7,3.3-1.7-1.4,2.8-3.4c.5-.6.5-1.2,0-1.6-.6-.5-1.2-.3-1.8.3l-2.7,3.3-1.7-1.4,4.8-5.8,1.7,1.4-.4.5c.6-.2,1.3,0,2.1.6.7.6,1,1.3.9,2,.7-.2,1.5,0,2.3.6,1.3,1.1,1.4,2.8.2,4.2h-.2Z"/><path d="m128.7,179c1.9-1.2,4.3-.6,5.5,1.3,1.2,1.9.6,4.3-1.3,5.5-1.9,1.2-4.3.6-5.5-1.3-1.2-1.9-.6-4.3,1.3-5.5Zm3,4.8c.9-.6,1.1-1.6.6-2.4-.5-.8-1.5-1.1-2.4-.5-.9.6-1.1,1.6-.6,2.4s1.5,1.1,2.4.5Z"/><path d="m138.6,190.2l-2.4.8c-.2-.9-1-2-2.4-1.6l-3.2,1.1-.7-2.1,7.1-2.5.7,2.1-1.3.4c1,0,1.8.7,2.1,1.6v.2Z"/><path d="m139.9,199.5l-7.5-1.6c-2.5-.5-3.6-1.7-3.7-3.8l2.1-.3c0,1,.5,1.5,1.5,1.7l6.7-3.9.3,2.5-4.3,2.2,4.7.8.3,2.4h0Z"/><path class="cls-4" d="m92.8,234.1h-10.5c-1-.5-1.2-1.3-1.2-2.3v-26.8c0-.7.2-.9.9-1.1.5,0,.7-.4.7-.9v-3c0-.5-.2-.8-.7-.9-.8-.2-.9-.4-.9-1.1v-6.4c0-.7.3-1.5.8-2,2-1.9,3.9-3.9,5.9-5.9s1.2-.8,2-.8h24.4v.2c.7.5.9,1.2.9,2-.6.2-.8.3-.8.9v6.5c0,.6.2.8.8.9v16.9c-.2-.5-.5-.8-1-.9h-26.3c-.8,0-1.2.4-1.2,1.3v16.2c0,.9.4,1.4,1.4,1.4h26c.7,0,1.2-.2,1.4-.9v3.8c0,1,0,2-1,2.6h-5.4c-.2-.2-.5-.4-.6-.7-.2-.4-.6-.6-1-.6h-12.5c-.5,0-.9,0-1.1.5-.2.3-.5.6-.8.8l-.2.3Zm9.1-44.8v-3.2c0-.6-.3-.9-.8-.9s-.7.4-.7.9v6.5h0c0,.6.3.9.8.9s.7-.3.7-.8v-3.3h0Zm4.7,0v-3.2c0-.6-.3-1-.8-1s-.8.4-.8,1v6.4c0,.6.3,1,.8,1s.8-.3.8-1v-3.1h0Zm4.7,0v-3.2c0-.6-.3-.9-.8-.9s-.8.4-.8,1v6.4c0,.6.3,1,.8,1s.8-.3.8-.9v-3.2h0v-.2Zm-18.8,0v-3.2c0-.6-.3-.9-.7-.9s-.8.3-.8.9v6.4c0,.6.3.9.7.9s.8-.3.8-.9v-3.2h0Zm4.7,0v-3.2c0-.6-.3-1-.8-.9s-.7.4-.7.9v6.4c0,.6.3.9.8.9s.7-.3.7-.9v-3.2h0Zm-11.4,2.1h0v1.3c0,.4.3.7.7.7s.7-.3.8-.7h0v-2.6c0-.4-.3-.8-.7-.8h0c-.4,0-.7.3-.8.8v1.3h0Z"/><path class="cls-10" d="m114.3,183h4.8c.9,0,1.6.7,1.6,1.6v4.7c0,.3,0,.6-.5.6s-.6.3-.6.8v10.1c0,.4,0,.7.5.8.5,0,.6.4.6.8v29.6c0,1-.3,1.7-1.2,2.2h-5.2c.9-.6,1-1.6,1-2.6v-37.8c.5,0,.7-.4.7-1v-6.4c0-.5-.2-.9-.7-1,0-.8-.2-1.5-.9-2v-.4Z"/><path class="cls-24" d="m86.6,226.4v-15.5c0-.9.4-1.3,1.2-1.3h22v15c0,1.6-.3,1.8-1.8,1.8h-21.5,0Z"/><path class="cls-31" d="m86.6,226.4h21.5c1.6,0,1.8-.3,1.8-1.8v-15h4.3c.6,0,.9.4,1,.9v17.1c-.2.7-.7.9-1.4.9h-26c-1,0-1.4-.4-1.4-1.4v-.7h.2Z"/><path class="cls-9" d="m115.3,185.2c.5,0,.7.4.7,1v6.4c0,.5-.2.9-.7,1-.6,0-.8-.3-.8-.9v-6.5c0-.6.2-.8.8-.9h0Z"/><path class="cls-9" d="m101.9,189.3v3.3c0,.5-.3.8-.7.8s-.8-.3-.8-.8h0v-6.6c0-.5.3-.9.7-.9s.8.3.8.9v3.2h0Z"/><path class="cls-9" d="m106.6,189.4v3.1c0,.6-.3,1-.8,1s-.8-.3-.8-1v-6.4c0-.6.3-1,.8-1s.8.4.8,1v3.2h0Z"/><path class="cls-9" d="m111.3,189.4v3.2c0,.6-.3,1-.8.9s-.8-.3-.8-1v-6.4c0-.6.3-1,.8-1s.7.4.8.9v3.4Z"/><path class="cls-9" d="m92.5,189.4v3.2c0,.6-.3.9-.8.9s-.7-.3-.7-.9v-6.4c0-.6.3-1,.8-.9s.7.4.7.9v3.2Z"/><path class="cls-9" d="m97.2,189.4v3.2c0,.6-.3.9-.7.9s-.8-.3-.8-.9v-6.4c0-.6.3-.9.7-.9s.8.3.8.9v3.2Z"/><path class="cls-12" d="m85.8,191.5v-1.3c0-.5.3-.8.8-.8s.8.3.8.8h0v2.6c0,.4-.3.7-.7.7h0c-.5,0-.7-.3-.7-.7v-1.3h-.2Z"/><circle class="cls-2" cx="298.1" cy="199" r="45"/><path d="m266.5,203.6l.6-1.1,1.6,1-.7,1.2c.4.5.8,1.1,1,1.8.7,2.4-.6,4.8-3.1,5.5-2.4.7-4.8-.7-5.5-3.1-.7-2.4.6-4.8,3.1-5.5,1-.3,2.1-.2,3,.2Zm.5,2.9l-.9,1.5-1.6-1,1-1.7c-.4,0-.9,0-1.4,0-1.5.4-2.1,1.8-1.8,3.1.4,1.3,1.7,2.1,3.1,1.7,1.5-.4,2.1-1.8,1.8-3.1,0-.2-.1-.4-.2-.6h0Z"/><path d="m261.6,195.9h6.1v1.7h-.6c.5.3.8.9.8,1.8s-.8,2.3-2.5,2.3h-3.8v-1.8h3.5c.8,0,1.1-.5,1.1-1.1s-.4-1.1-1.3-1.1h-3.3s0-1.8,0-1.8Z"/><path d="m263.1,187.4l6,1.3-.4,1.8h-.6c.4.4.5,1,.3,1.8-.3,1.6-2,2.6-3.8,2.2-1.8-.4-2.9-2-2.5-3.6s.6-1.3,1.1-1.6h-.6c0,0,.4-1.9.4-1.9h.1Zm2.6,2.4c-.9-.2-1.6.3-1.8,1.1s.3,1.5,1.1,1.7c.9.2,1.6-.3,1.8-1.1.2-.8-.3-1.5-1.1-1.7Z"/><path d="m268.5,180.9l3.4,1.6-.8,1.7-3.2-1.5c-.7-.3-1.2,0-1.5.5-.3.6-.1,1.2.7,1.6l3,1.4-.8,1.7-5.5-2.6.8-1.7.5.2c-.3-.5-.3-1.2,0-1.9.5-1.1,1.8-1.7,3.3-1h.1Z"/><path d="m270.3,177.4l1.8,1.3c.4.3.7,0,1.2-.7l1.4,1c-1.2,2.1-2.2,2.2-3.6,1.2l-1.8-1.3-.6.8-1.4-1,.6-.8-.9-.7.6-1.8,1.4,1,.7-1,1.4,1-.7,1h-.1Z"/><path d="m275,169.8l4.2,4.4-1.3,1.3-.4-.4c0,.6-.2,1.2-.8,1.8-.9.9-2.3.9-3.4-.3l-2.6-2.7,1.3-1.3,2.4,2.5c.5.6,1.1.5,1.5,0,.5-.5.6-1.1,0-1.7l-2.3-2.4,1.3-1.3h.1Z"/><path d="m286.2,165.9l1.8,3.3-1.6.9-1.7-3.2c-.3-.5-.7-.8-1.3-.5-.5.3-.6.8-.3,1.5l1.6,3.1-1.6.9-1.7-3.2c-.3-.5-.7-.8-1.3-.5-.5.3-.6.8-.3,1.5l1.6,3.1-1.6.9-2.9-5.4,1.6-.9.3.5c0-.5.4-1,1.1-1.4.6-.3,1.3-.3,1.8,0,0-.6.4-1.1,1.2-1.5,1.2-.7,2.5-.2,3.2,1.2v-.3Z"/><path d="m287.8,164.8l4.5-1.1.4,1.7-4.5,1.1-.4-1.7Z"/><path d="m294,164.9c0-1.8,1.3-3.3,3.1-3.4,1.2,0,2.3.5,2.8,1.5l-1.6,1c-.2-.4-.7-.7-1.2-.6-.8,0-1.4.6-1.3,1.5,0,.8.6,1.4,1.4,1.4s1-.3,1.2-.7l1.6.9c-.5,1-1.5,1.6-2.7,1.7-1.9,0-3.3-1.3-3.4-3.1v-.2Z"/><path d="m300.5,164.7c.3-1.8,2-2.9,3.7-2.6,1.8.3,3,1.9,2.7,3.7-.3,1.8-2,2.9-3.7,2.6-1.8-.3-3-1.9-2.7-3.7Zm4.6.8c0-.9-.4-1.5-1.1-1.7-.8-.1-1.5.3-1.6,1.2s.4,1.5,1.1,1.7c.8.1,1.5-.3,1.6-1.2Z"/><path d="m316.9,169.4l-1.6,3.4-1.7-.8,1.5-3.3c.3-.6.2-1-.4-1.3s-1,0-1.4.6l-1.5,3.1-1.7-.8,1.5-3.3c.3-.6.2-1-.4-1.3-.6-.3-1,0-1.4.6l-1.5,3.1-1.7-.8,2.6-5.5,1.7.8-.2.5c.4-.3,1.1-.3,1.8,0,.7.3,1,.8,1.1,1.4.5-.3,1.2-.3,2,0,1.3.6,1.7,1.9,1,3.3l.3.3Z"/><path d="m322.8,175.4c-1.2,1.4-3.1,1.6-4.3.5-.6-.5-.9-1.2-.9-1.8l-2,2.3-1.4-1.2,5.7-6.4,1.4,1.2-.4.4c.6,0,1.2.1,1.9.6,1.2,1.1,1.3,3,0,4.4Zm-1.4-1.2c.6-.7.5-1.5,0-2.1s-1.5-.5-2.1.2-.5,1.5,0,2.1,1.5.5,2.1-.2Z"/><path d="m329.5,179.4l-5,3.5-1.1-1.5.5-.3c-.6,0-1.2-.3-1.6-1-.7-1-.6-2.4.7-3.3l3.1-2.2,1.1,1.5-2.8,2c-.6.4-.6,1-.3,1.5.4.5,1,.7,1.7.2l2.7-1.9,1.1,1.5h0Z"/><path d="m329.8,184.1l-2,.9c-.5.2-.3.7,0,1.4l-1.5.7c-1.3-2.1-.9-3,.7-3.7l2-.9-.4-.9,1.6-.8.4.9,1.1-.5,1.3,1.4-1.5.7.5,1.1-1.6.8-.5-1.1h0Z"/><path d="m334.2,192.2l-5.9,1.5-.5-1.8h.6c-.6-.4-1-.9-1.2-1.7-.4-1.6.6-3.2,2.4-3.6,1.8-.5,3.5.5,3.9,2,.2.8,0,1.4-.3,2h.6c0,0,.5,1.6.5,1.6h0Zm-3.4-1c.9-.2,1.3-1,1.1-1.8-.2-.8-.9-1.3-1.8-1-.9.2-1.3,1-1.1,1.8.2.8.9,1.3,1.8,1Z"/><path d="m332.8,196.7h-2.2c-.5.2-.5.6-.4,1.4h-1.7c-.4-2.3.3-3,2-3.1h2.2v-1.1h1.8c0,0,0,.9,0,.9h1.2l.7,1.7h-1.7v1.4h-1.8c0,0,0-1.2,0-1.2h0Z"/><path d="m334.6,199.5v1.8c0,0-6.2-.4-6.2-.4v-1.8c0,0,6.2.4,6.2.4Zm1.7,0c.6,0,1.1.6,1,1.2,0,.6-.6,1.1-1.2,1s-1.1-.6-1-1.2.6-1.1,1.2-1Z"/><path d="m331.4,202.3c1.8.4,2.8,2.1,2.4,3.9-.4,1.8-2.1,2.9-3.9,2.5s-2.8-2.1-2.4-3.9c.4-1.8,2.1-2.9,3.9-2.5Zm-1,4.5c.8.2,1.5-.3,1.7-1.1s-.3-1.5-1.1-1.7c-.8-.2-1.5.3-1.7,1.1s.3,1.5,1.1,1.7Z"/><path d="m327.7,215.5l-3.4-1.6.8-1.7,3.2,1.5c.7.3,1.2,0,1.5-.5.3-.6,0-1.2-.7-1.6l-3-1.4.8-1.7,5.5,2.6-.8,1.7-.5-.2c.3.5.3,1.2,0,1.9-.5,1.1-1.8,1.7-3.3,1h0Z"/><path class="cls-27" d="m277.9,194.7v-8.8c0-1.4.7-2.1,2.1-2.1h30.5c1.4,0,2.1.7,2.1,2.1v28.7c0,1.2-.7,1.9-1.9,1.9h-30.8c-1.2,0-1.9-.8-1.9-1.9v-19.9h-.1Zm19.2,18.2c.4,0,.6-.3.9-.6.9-.8,1.6-1.7,2.1-2.7s.4-.5.8-.5c.9,0,1.9,0,2.8-.2,2.4-.6,3.7-2.2,3.5-4.5,0-1.2-.6-2.4-1.3-3.4-.4-.5-.4-.9,0-1.5.8-1.2,1.3-2.5,1.3-4,1.3-.9,1.1-2.4,0-3.1-.7-.5-1.4-.4-2,0-.2-.3-.6-.4-.9-.5-1.1-.4-2.2-.5-3.4-.4-.5,0-.8,0-1-.6-.5-1.1-1.2-2-2.1-2.7-1.2-1.1-3-1.4-4.5-.6-1,.5-1.8,1.4-2.4,2.3-.3.5-.5,1.2-1,1.5s-1.2,0-1.8,0c-1.1,0-2.1.2-3,.9-.5-.2-.9-.3-1.4-.2-.7.2-1.2.7-1.4,1.4-.2.9.2,1.5.9,2,0,1.6.6,2.9,1.4,4.2.3.4.3.7,0,1.1-.7,1-1.1,2.1-1.3,3.2-.2,1.6.2,3,1.5,4,1.2.9,2.7,1.2,4.2,1.1.8,0,1.4,0,1.6,1,0,.2.2.4.4.6.7.9,1.3,1.8,2.4,2.2,0,.8.4,1.4,1.1,1.8,1,.5,2.5,0,2.6-1.7h0Z"/><path class="cls-13" d="m277.9,194.7v19.9c0,1.2.7,1.9,1.9,1.9h30.8c1.2,0,1.9-.8,1.9-1.9v-19.9h2.4c2.1.5,3.1,2.1,3.1,4.2v23.1h-45.6v-24c0-1.7,1.7-3.3,3.3-3.4h2.2Z"/><path class="cls-20" d="m272.5,222h45.7c0,.8,0,1.5-.3,2.3-.5,1.3-1.5,2-2.8,2.3h-39c-1.9,0-3.5-1.6-3.5-3.5v-1h0Z"/><path class="cls-14" d="m318.1,222v-23.1c0-2.2-1-3.7-3.1-4.2h3.2c1.9,0,3.4,1.6,3.5,3.4h0v23.9h-3.7,0Z"/><path class="cls-20" d="m299.8,230.2h0c-.9.7-1.2,1.6-1,2.7h-12.3c-.4,0-.5,0-.5-.5,0-1.5.9-2.4,2.2-2.3h2.7c.4,0,.6,0,.6-.5v-1.3h4.1q1.3,0,1.3,1.3c0,.5.2.6.6.6.7,0,1.4,0,2.2,0Z"/><path class="cls-28" d="m299.8,230.2h-2.2c-.4,0-.6,0-.6-.6q0-1.3-1.3-1.3h-4.1v-1.8h8.2s0,3.7,0,3.7Z"/><path class="cls-15" d="m318.1,222.1h3.6c0,1.1,0,2.2-.7,3.1-.6.9-1.6,1.4-2.7,1.4h-3.2c1.3-.3,2.3-1,2.8-2.3.3-.7.3-1.5.3-2.2h-.1Z"/><path class="cls-8" d="m298.9,233c-.2-1.1,0-2,1-2.7h2.6c1.4,0,2,1.2,1.8,2.5,0,.3-.3.2-.5.2h-5,.1Z"/><path class="cls-19" d="m307.2,195.4c0,1.5-.5,2.8-1.3,4-.4.6-.4.9,0,1.5.7,1,1.2,2.1,1.3,3.4.2,2.3-1.1,3.9-3.5,4.5-.9.2-1.9.3-2.8.2-.4,0-.7,0-.8.5-.5,1.1-1.2,2-2.1,2.7-.3.2-.5.5-.9.6,0-.3-.2-.6-.3-.9,1.2-.6,1.8-1.7,2.4-2.8,0-.3,0-.3-.2-.3-1.1-.2-2.3-.5-3.3-.9-.3,0-.6,0-.9,0-1,.4-2.1.7-3.2.9-.5,0-.4.2-.3.6.6,1,1.3,1.9,2.2,2.7l-.2.8c-1.1-.4-1.7-1.3-2.4-2.2-.2-.2-.3-.4-.4-.6-.2-.8-.8-1-1.6-1-1.5,0-3-.2-4.2-1.1-1.3-1-1.7-2.4-1.5-4,.2-1.2.6-2.3,1.3-3.2.3-.4.3-.7,0-1.1-.8-1.3-1.4-2.6-1.4-4.2.3,0,.6.2.9.2,0,1.4.6,2.6,1.4,3.8.9-1.1,1.9-2.1,3-2.9,0,0,.2-.3.2-.4.2-1.1.4-2.2.8-3.3.2-.5,0-.6-.4-.6-1.2,0-2.3.2-3.4.6l-.6-.6c.9-.7,2-.8,3-.9.6,0,1.4.2,1.8,0,.5-.3.6-1,1-1.5.6-.9,1.4-1.8,2.4-2.3,1.5-.8,3.3-.5,4.5.6.9.8,1.6,1.7,2.1,2.7.2.5.5.6,1,.6,1.2,0,2.3,0,3.4.4.3,0,.6.2.9.5-.2.2-.3.5-.6.6-1.1-.4-2.2-.6-3.3-.6s-.6.2-.4.6c.3.9.6,1.9.7,2.8,0,.6.5,1,.9,1.4s.5.4.7.6c.5.5,1,1,1.4,1.5,0,0,.2.4.4,0,.7-1.1,1.2-2.2,1.3-3.5.3,0,.6,0,.9-.2v-.2Zm-17.9,4.9c0,.7,0,1.6,0,2.4s.3.9.7,1.2c1.5,1.1,3.1,2,4.8,2.7.2,0,.5,0,.7,0,1.7-.8,3.4-1.7,4.9-2.8.3-.2.5-.5.5-.8.2-1.9.2-3.9,0-5.8,0-.3-.2-.5-.4-.7-1.6-1.1-3.3-2.1-5.1-2.9h-.6c-1.8.8-3.4,1.7-5,2.8-.2,0-.4.4-.4.7,0,1-.2,2-.2,3.1h0Zm6-12.5c-.3,0-.5,0-.8,0-1.6.5-2.5,1.8-3.3,3.2-.2.3,0,.3.3.3,1.1.2,2.2.5,3.3.9.3,0,.6,0,.9,0,1.1-.4,2.2-.7,3.3-.9.3,0,.4,0,.2-.4-.3-.6-.6-1.1-1-1.6-.8-.9-1.7-1.6-2.9-1.7h0Zm-6.5,20.3h.3q.7,0,.5-.7c-.3-.9-.5-1.8-.7-2.7,0-.3,0-.7-.3-.9-1-.8-1.9-1.6-2.6-2.6-.2-.3-.3-.2-.5,0-.5.7-.8,1.5-1,2.4-.3,1.2-.2,2.4.8,3.3,1,1,2.3,1.1,3.6,1.2h0Zm12.7,0c1.1,0,1.8,0,2.5-.3,1.8-.6,2.6-2,2.3-3.9-.2-1-.6-1.8-1.1-2.6-.2-.4-.3-.4-.6,0-.6.8-1.4,1.6-2.2,2.2-.4.3-.7.8-.7,1.3,0,.8-.3,1.6-.6,2.4q-.3,1,.4,1h0Zm-12.9-5.6c-.2-1.6-.2-3.2,0-4.8-.9.6-1.5,1.4-2.1,2.1-.2.2-.2.4,0,.6h0c.7.7,1.2,1.5,2.1,2.1Zm8-9.4c1.5.7,2.9,1.5,4.2,2.4-.2-1-.4-1.9-.8-2.9,0-.2,0-.4-.4-.4-1,.2-2,.4-3,.8h0Zm-2.6,14.1c-1.5-.7-2.8-1.5-4.2-2.4.2,1,.4,2,.8,2.9,0,.2,0,.3.3.3,1-.2,2-.4,3-.8h.1Zm-4.2-11.6c1.4-1,2.7-1.7,4.2-2.5-1-.3-2-.6-3-.8-.3,0-.3,0-.4.3-.4.9-.6,1.9-.8,2.9h0Zm12.2,2.2c.2,1.6.2,3.2,0,4.8.9-.6,1.5-1.4,2.1-2.1.2-.2,0-.5,0-.7-.6-.7-1.2-1.4-2.1-2h0Zm-5.4,9.4c1.1.4,2,.6,3,.8.2,0,.3,0,.3-.2.4-1,.7-2,.8-3-1.3.9-2.7,1.7-4.2,2.4h.1Z"/><path class="cls-16" d="m304.7,192.8c.3,0,.4-.4.6-.6.7-.3,1.4-.4,2,0,1,.7,1.2,2.2,0,3.1-.3,0-.6.2-.9.2-1.4-.2-2.1-1.2-1.7-2.5v-.3h.1Z"/><path class="cls-16" d="m293.4,212.8l.2-.8c1.3-1.3,2.1-1.3,3.3,0,0,.3.2.6.3.9,0,1.6-1.5,2.2-2.6,1.8-.7-.3-1.1-1-1.1-1.8h-.1Z"/><path class="cls-16" d="m284.2,195.6c-.3,0-.6,0-.9-.2-.7-.5-1.1-1.1-.9-2,.2-.7.6-1.2,1.4-1.4.5,0,1,0,1.4.2l.6.6c.5,1.7,0,2.6-1.6,2.8Z"/><path class="cls-25" d="m289.3,200.3c0-1,0-2.1.2-3.1,0-.3.2-.5.4-.7,1.6-1.1,3.2-2.1,5-2.8.2,0,.4,0,.6,0,1.8.8,3.5,1.8,5.1,2.9.2,0,.4.4.4.7.2,1.9.3,3.9,0,5.8,0,.3-.2.6-.5.8-1.5,1.1-3.2,2-4.9,2.8-.2,0-.5,0-.7,0-1.7-.8-3.3-1.7-4.8-2.7-.4-.2-.7-.7-.7-1.2,0-.9-.2-1.7,0-2.4h0Zm8.7-.2c0-1.5-1.2-2.7-2.8-2.7s-2.7,1.2-2.7,2.8,1.2,2.7,2.7,2.7,2.7-1.2,2.7-2.7h0Z"/><path class="cls-23" d="m295.3,187.8c1.3,0,2.2.8,2.9,1.7.4.5.7,1,1,1.6.2.3,0,.4-.2.4-1.1.2-2.2.5-3.3.9-.3,0-.6,0-.9,0-1.1-.4-2.2-.7-3.3-.9-.2,0-.4,0-.3-.3.8-1.4,1.6-2.7,3.3-3.2.3,0,.5,0,.8,0h0Z"/><path class="cls-23" d="m288.8,208.1c-1.3,0-2.6-.2-3.6-1.2-1-.9-1.1-2.1-.8-3.3.2-.8.6-1.6,1-2.4.2-.3.3-.3.5,0,.8,1,1.7,1.8,2.6,2.6.3.3.3.6.3.9.2.9.4,1.8.7,2.7q.2.7-.5.7h-.3,0Z"/><path class="cls-23" d="m301.4,208.1q-.7,0-.4-1c.2-.8.5-1.6.6-2.4,0-.5.3-1,.7-1.3.8-.6,1.6-1.4,2.2-2.2.2-.3.4-.3.6,0,.5.8.9,1.7,1.1,2.6.3,1.9-.5,3.3-2.3,3.9-.7.2-1.4.3-2.5.3h0Z"/><path class="cls-21" d="m296.9,212c-1.1-1.2-1.9-1.2-3.3,0-.9-.7-1.7-1.7-2.2-2.7s-.2-.5.3-.6c1.1-.2,2.1-.5,3.2-.9.3,0,.6,0,.9,0,1.1.4,2.2.7,3.3.9.2,0,.4,0,.2.3-.6,1.1-1.2,2.2-2.4,2.8v.2Z"/><path class="cls-21" d="m284.2,195.6c1.5-.2,2.1-1.1,1.6-2.8,1.1-.4,2.2-.6,3.4-.6s.6,0,.4.6c-.4,1.1-.7,2.2-.8,3.3,0,.2,0,.3-.2.4-1.1.9-2.1,1.9-3,2.9-.8-1.2-1.4-2.4-1.4-3.8Z"/><path class="cls-21" d="m304.7,192.8v.3c-.4,1.4.3,2.3,1.7,2.5,0,1.3-.6,2.4-1.3,3.5-.2.3-.3,0-.4,0-.4-.5-.9-1-1.4-1.5s-.4-.4-.7-.6c-.4-.4-.8-.7-.9-1.4,0-1-.4-1.9-.7-2.8-.2-.4,0-.6.4-.6,1.1,0,2.3.2,3.3.6Z"/><path class="cls-18" d="m288.6,202.5c-.9-.6-1.5-1.4-2.1-2.1-.2,0-.2-.4,0-.6h0c.6-.7,1.2-1.5,2.1-2.1-.2,1.6-.2,3.2,0,4.8Z"/><path class="cls-18" d="m296.6,193.1c1-.4,2-.6,3-.8.3,0,.3.2.4.4.4.9.6,1.9.8,2.9-1.3-.9-2.7-1.7-4.2-2.4h0Z"/><path class="cls-18" d="m294,207.2c-1.1.4-2,.6-3,.8-.2,0-.3,0-.3-.3-.4-.9-.6-1.9-.8-2.9,1.3.9,2.7,1.7,4.2,2.4h-.1Z"/><path class="cls-18" d="m289.8,195.6c.2-1,.4-2,.8-2.9,0-.2,0-.4.4-.3,1,.2,2,.4,3,.8-1.5.7-2.8,1.5-4.2,2.5h0Z"/><path class="cls-18" d="m302,197.8c.9.6,1.4,1.3,2.1,2,.2.2.3.4,0,.7-.7.7-1.2,1.5-2.1,2.1.2-1.6.2-3.2,0-4.8Z"/><path class="cls-18" d="m296.6,207.2c1.4-.7,2.8-1.5,4.2-2.4-.2,1-.4,2-.8,3,0,0,0,.3-.3.2-1-.2-2-.4-3-.8h-.1Z"/><path class="cls-30" d="m298,200.1c0,1.5-1.2,2.8-2.7,2.8s-2.8-1.2-2.8-2.7,1.2-2.8,2.7-2.8h0c1.5,0,2.7,1.2,2.7,2.7h0Z"/></svg>