<?xml version="1.0" encoding="UTF-8"?><svg id="Layer_1" xmlns="http://www.w3.org/2000/svg" viewBox="0 0 400 400"><defs><style>.cls-1{fill:#fe6d3a;}.cls-2{stroke:#a5262d;}.cls-2,.cls-3{stroke-width:4px;}.cls-2,.cls-3,.cls-4{fill:none;stroke-miterlimit:10;}.cls-5{fill:#bbeb6c;}.cls-6{fill:#1f444f;}.cls-7{fill:#f3c64b;}.cls-8{fill:#c7eefd;}.cls-9{fill:#fafdfc;}.cls-10{fill:#fff;}.cls-11{fill:#a7b4b9;}.cls-12{fill:#6c7fd7;}.cls-13{fill:#fcfdfd;}.cls-14{fill:#90b9e0;}.cls-15{fill:#75e1f7;}.cls-3{stroke:#0018c6;}.cls-16{fill:#fcd303;}.cls-17{fill:#3b66c8;}.cls-18{fill:#8ac5cd;}.cls-19{fill:#2d5a5d;}.cls-20{fill:#fe901f;}.cls-21{fill:#dda927;}.cls-22{fill:#f9fdfc;}.cls-23{fill:#4483e7;}.cls-24{fill:#bbc3c6;}.cls-25{fill:#010100;}.cls-26{fill:#4f66cf;}.cls-27{fill:#c9f674;}.cls-28{fill:#020202;}.cls-29{fill:#bfd6e5;}.cls-30{fill:#364a5f;}.cls-31{fill:#1e4b4c;}.cls-32{fill:#386079;}.cls-33{fill:#444b66;}.cls-34{fill:#efc319;}.cls-35{fill:#90bae0;}.cls-36{fill:#f7cf06;}.cls-37{fill:#d7eafb;}.cls-38{fill:#f8d77c;}.cls-39{fill:#e9f5fe;}.cls-40{fill:#feb024;}.cls-41{fill:#afd2ef;}.cls-42{fill:#c69c6d;}.cls-43{fill:#fcd6ac;}.cls-4{stroke:#231f20;stroke-width:2px;}.cls-44{fill:gray;}.cls-45{fill:#275d77;}.cls-46{fill:#c6ecf9;}.cls-47{fill:#3b566a;}.cls-48{fill:#b2d3d9;}.cls-49{fill:#fbbd41;}.cls-50{fill:#ddebf0;}.cls-51{fill:#3f79d4;}.cls-52{fill:#3d435c;}.cls-53{fill:#01b6a0;}.cls-54{fill:#e2e9f1;}.cls-55{fill:#4582c2;}.cls-56{fill:#fc98c7;}.cls-57{fill:#26b899;}.cls-58{fill:#607890;}.cls-59{fill:#faf8fa;}.cls-60{fill:#cbb293;}.cls-61{fill:#fe6e3c;}.cls-62{fill:#23e6bf;}.cls-63{fill:#e0edf9;}.cls-64{fill:#374b60;}.cls-65{fill:#275d76;}.cls-66{fill:#f0f6f6;}.cls-67{fill:#fcd6ad;}.cls-68{fill:#b3d4da;}.cls-69{fill:#2e5872;}.cls-70{fill:#efc31a;}.cls-71{fill:#b09146;}.cls-72{fill:#484645;}.cls-73{fill:#204958;}.cls-74{fill:#00d7df;}.cls-75{fill:#396ebc;}.cls-76{fill:#e5ecf3;}.cls-77{fill:#637889;}.cls-78{fill:#8e9da9;}.cls-79{fill:#c6ecfa;}.cls-80{fill:#99e4fb;}.cls-81{fill:#8caabd;}.cls-82{fill:#2e5a5d;}.cls-83{fill:#94a4a4;}.cls-84{fill:#a6e9f7;}.cls-85{fill:#fde6cd;}.cls-86{fill:#88c4cc;}.cls-87{fill:#1d475a;}.cls-88{fill:#e3eaf2;}.cls-89{fill:#3e657d;}.cls-90{fill:#454c67;}.cls-91{fill:#2f4859;}.cls-92{fill:#cbb292;}.cls-93{fill:#c6d8de;}.cls-94{fill:#bdd5e5;}.cls-95{fill:#304959;}.cls-96{fill:#c4d8dd;}.cls-97{fill:#ecf6fe;}.cls-98{fill:#3b66c9;}.cls-99{fill:#cad9df;}.cls-100{fill:#231f20;}.cls-101{fill:#fce00f;}.cls-102{fill:#90ebfe;}.cls-103{fill:#c7d9de;}.cls-104{fill:#c5d8de;}.cls-105{fill:#f0c343;}.cls-106{fill:#1a846e;}.cls-107{fill:#dca826;}.cls-108{fill:#fbf9fa;}.cls-109{fill:#010101;}.cls-110{fill:#249582;}.cls-111{fill:#28b99a;}.cls-112{fill:#ec6363;}.cls-113{fill:#fe901e;}.cls-114{fill:#6e6b87;}.cls-115{fill:#e2c8aa;}</style></defs><circle class="cls-3" cx="229.7" cy="45.6" r="36"/><path class="cls-87" d="m239.5,33.2c.7.2,1.4.4,2,.9,1.1.9,1.7,2,1.8,3.4v32.3c0,2.1-1.2,3.8-3.1,4.4-.3,0-.6.2-1,.2h-10.1v-2.4h9.5c.4,0,.9,0,1.2-.3.7-.4,1-1.1,1-1.9v-32.2c0-1-.6-1.7-1.6-1.9-.5,0-1,0-1.4,0s-.6,0-.7.5c-.3,1.1-.7,2.2-1.1,3.4-.2.6-.6,1-1.1,1h-5.7v-7.3h10.4Z"/><path class="cls-65" d="m229.1,72v2.4h-10c-2.3,0-4.2-2.1-4.2-4.5v-32.1c0-2,.9-3.4,2.7-4.3.3-.2.7-.2,1-.4h10.4v7.3h-5.4c-.7,0-1.1-.2-1.4-1-.4-1.2-.8-2.3-1.2-3.5,0-.2-.2-.3-.5-.3h-1c-1.5,0-2.3.8-2.3,2.3v31.8c0,1.4.8,2.2,2.2,2.2h9.5Z"/><path class="cls-74" d="m229.1,40.4h5.7c.6,0,.9-.3,1.1-1,.4-1.1.8-2.2,1.1-3.4.2-.4.3-.6.7-.5h1.4c1,.2,1.5,1,1.6,1.9v32.2c0,.8-.2,1.4-1,1.9-.4.2-.8.3-1.2.3h-9.5v-31.6h0Zm7.2,7c0,.4,0,.6.2.8.2.8.8,1.2,1.5,1,.6-.2,1-.7.9-1.5-.2-1.3-.5-2.6-.8-3.8-.2-.6-.7-1-1.4-.9-1.2.2-2.5.5-3.7.7-.7.2-1.2.8-1.1,1.4.2.7.8,1.1,1.6,1,.2,0,.5,0,.8-.2-.2.2-.2.4-.3.5-1.2,1.9-2.5,3.8-3.7,5.7-.2.3-.3.7-.2,1.1.2.5.5.8,1,.9.6,0,1,0,1.3-.6,1-1.5,2-3,3-4.5.4-.6.7-1.1,1.2-1.8h0Z"/><path class="cls-15" d="m229.1,40.5v31.5h-9.5c-1.4,0-2.2-.8-2.2-2.2v-31.8c0-1.5.8-2.3,2.3-2.3h1c.2,0,.4,0,.5.3.4,1.2.8,2.3,1.2,3.5.2.7.6,1,1.4,1h5.4,0Zm-7.2,24.4c0-.3,0-.6-.2-.8-.2-.7-.8-1.1-1.5-1-.6.2-1,.7-.9,1.4.2,1.3.5,2.6.8,3.8s.8,1,1.4.9c1.2-.2,2.5-.5,3.7-.8.2,0,.4,0,.6-.2.5-.3.6-1,.4-1.4-.2-.6-.8-.8-1.4-.7-.2,0-.5.2-.8.2.5-.8,1-1.5,1.5-2.3.9-1.3,1.8-2.6,2.6-3.9.3-.4.3-.9,0-1.4-.2-.4-.6-.6-1.2-.6-.4,0-.7.3-1,.6-1.3,1.9-2.5,3.8-3.8,5.8,0,.2-.2.3-.3.4h0Z"/><path class="cls-87" d="m236.3,47.5c-.5.6-.8,1.2-1.2,1.8-1,1.5-2,3-3,4.5-.3.5-.7.6-1.3.6-.5,0-.8-.4-1-.9,0-.4,0-.7.2-1.1,1.3-1.9,2.5-3.8,3.7-5.7,0-.2.2-.3.3-.5-.3,0-.6,0-.8.2-.8.2-1.4-.2-1.6-1-.2-.6.3-1.3,1.1-1.4,1.2-.2,2.4-.5,3.7-.7.6-.2,1.3.2,1.4.9.3,1.3.6,2.5.8,3.8.2.7-.2,1.4-.9,1.5-.7.2-1.3-.2-1.5-1,0-.2,0-.5-.2-.8h0Z"/><path class="cls-45" d="m221.9,64.9c.2,0,.2-.2.3-.4,1.3-1.9,2.5-3.8,3.8-5.8.2-.3.6-.6,1-.6s.9.2,1.2.6c.2.4.2.9,0,1.4-.9,1.3-1.8,2.6-2.6,3.9-.5.7-1,1.5-1.5,2.3.3,0,.6,0,.8-.2.6,0,1.2.2,1.4.7.2.5,0,1.1-.4,1.4-.2.2-.4.2-.6.2-1.2.2-2.4.5-3.7.8-.6.2-1.3-.2-1.4-.9-.3-1.3-.6-2.6-.8-3.8-.2-.7.2-1.4.9-1.4.7-.2,1.3.2,1.5,1,0,.2,0,.5.2.8h0Z"/><path d="m205,39.8l-.6,3,1.2.7-.4,2.1-7.6-4.6.5-2.4,8.8-1-.4,2.1-1.4.2h0Zm-1.9.2l-3.2.3,2.8,1.6.4-1.9Z"/><path d="m202.5,28.3l7.4,4-.9,1.6-.5-.2c.2.6.2,1.2-.2,1.9-.7,1.4-2.6,1.8-4.2,1-1.6-.9-2.2-2.6-1.4-4,.4-.7.9-1.1,1.5-1.2l-2.6-1.4.9-1.6h0Zm3.8,4.2c-.8-.4-1.6-.2-2,.6s-.2,1.5.6,1.9c.8.4,1.6.2,2-.6.4-.7.2-1.5-.6-1.9Z"/><path d="m210.1,23.4l2.8,5.8-1.4,1.4-5.8-2.6,1.4-1.4,3.6,1.8-1.8-3.5,1.4-1.4Z"/><path d="m216.5,19.3l3.1,5.1-1.5,1-.3-.5c0,.6-.5,1.1-1.1,1.5-1.4.8-3.2.3-4.1-1.2-1-1.5-.6-3.4.8-4.2.7-.4,1.4-.5,1.9-.3l-.3-.5,1.5-1Zm0,3.5c-.5-.8-1.3-1-2-.5-.7.4-1,1.2-.5,2s1.3,1,2,.5,1-1.2.5-2Z"/><path d="m224.9,19l1,3.5-1.8.5-1-3.3c-.2-.7-.7-1-1.3-.8-.6.2-1,.6-.7,1.5l.9,3.1-1.8.5-1.6-5.8,1.8-.5.2.6c.2-.5.7-1,1.4-1.2,1.2-.3,2.4.2,2.8,1.8h0Z"/><path d="m226.3,19.5c0-1.8,1.3-3.2,3.1-3.2s2.2.6,2.7,1.5l-1.5,1c-.2-.4-.6-.6-1.2-.6-.8,0-1.4.6-1.4,1.4s.6,1.4,1.4,1.4,1-.2,1.1-.7l1.6.9c-.5,1-1.5,1.6-2.6,1.6-1.8,0-3.2-1.3-3.3-3.1h0Z"/><path d="m235.7,21.7c.5,0,1,0,1.2-.2l1.2,1.1c-.7.6-1.7.9-2.8.6-2-.5-3-2.1-2.6-3.8.4-1.8,2-2.8,3.8-2.4,1.7.4,2.6,2,2.2,3.8,0,.2-.2.5-.2.7l-4.2-1c0,.6.6,1,1.2,1.1h0Zm1.6-1.9c0-.7-.5-1.1-1-1.2-.6-.2-1.2,0-1.5.6l2.5.6h0Z"/><path d="m247.9,19.4l-4,7.4-1.6-.9.2-.5c-.6.2-1.2.2-1.9-.2-1.4-.7-1.8-2.6-1-4.2.9-1.6,2.6-2.2,4-1.4.7.4,1.1.9,1.2,1.5l1.4-2.6,1.6.9h0Zm-4.2,3.9c.4-.8.2-1.6-.6-2-.7-.4-1.5-.2-1.9.6s-.2,1.6.6,2c.7.4,1.5.2,1.9-.6Z"/><path d="m257,28.6l-6.6,5.3-1.1-1.4.4-.3c-.6,0-1.2-.3-1.7-1-1-1.2-.7-3.1.6-4.2,1.4-1.1,3.3-1,4.2.2.5.6.6,1.3.6,1.8l2.3-1.8,1.1,1.4h0Zm-5.4,2c.7-.6.8-1.4.2-2s-1.4-.7-2-.2c-.7.6-.8,1.4-.2,2,.5.6,1.4.7,2,.2Z"/><path d="m256.2,32l.8,1.6-5.4,2.7-.8-1.6,5.4-2.7Zm1.4-.9c.6-.2,1.2,0,1.4.5.2.6,0,1.2-.5,1.4s-1.2,0-1.4-.5c-.2-.6,0-1.2.5-1.4Z"/><path d="m255.3,41.1c-1.3.4-2.2-.6-2.6-1.8-.4-1.1-.2-2.2.6-2.9l1.4,1.2c-.4.3-.6.7-.3,1.2.2.4.3.6.6.5.6-.2-.6-2.9,1.4-3.5,1.3-.4,2.2.5,2.6,1.6.3,1,.2,1.9-.5,2.6l-1.3-1.2c.2-.2.4-.6.2-1,0-.3-.2-.5-.5-.4-.6.2.7,2.9-1.4,3.6h0Z"/><path d="m257.1,48.3c-1.8,0-3.3-1.1-3.4-2.6,0-.8.2-1.4.6-1.8l-3,.2v-1.8c0,0,8.2-.6,8.2-.6v1.8c0,0-.5,0-.5,0,.5.4.8,1,.9,1.8,0,1.6-1.2,3-3,3h0Zm0-1.8c.9,0,1.4-.7,1.4-1.5,0-.8-.6-1.4-1.5-1.4s-1.4.7-1.4,1.5c0,.8.6,1.4,1.5,1.4Z"/><path d="m262.6,50.3l-.2,1.8-8.6-1.2.2-1.8,8.7,1.2h0Z"/><path d="m257.2,59.7l-5.7-2,.6-1.7.6.2c-.3-.6-.4-1.2,0-1.9.6-1.5,2.2-2.2,3.9-1.7,1.7.6,2.6,2.2,2,3.8-.2.7-.7,1.2-1.3,1.4l.6.2-.6,1.7h0Zm-2.2-2.7c.9.3,1.6,0,1.8-.9s0-1.5-.9-1.8c-.9-.3-1.6,0-1.8.9s0,1.5.9,1.8Z"/><path d="m252.9,66.5l-3.6-5c-1.2-1.6-1.2-3-.2-4.2l1.4,1c-.5.7-.5,1.2,0,1.8l6.1,1.3-1.1,1.6-3.8-1,2.4,3-1.1,1.6v-.2Z"/><circle class="cls-2" cx="197.7" cy="201" r="45"/><path d="m171.6,185.4l1-3c1.1.5,2.3.6,3.5-.5,1.1-1,1-1.7.7-2.1-.6-.6-1.4-.4-3.4.6-1.9.9-4.1,1.5-5.9-.5-1.8-2-1.1-4.7.7-6.3,1.7-1.5,3.8-1.9,5.9-1l-1,3c-1-.4-1.9-.5-2.9.4-.8.7-.8,1.4-.4,1.8.4.5,1,.6,3-.4,2-.9,4.3-1.9,6.2.3,1.8,2,1.2,4.7-1.1,6.7-2.2,1.9-4.5,2.1-6.5,1.1h.2Z"/><path d="m176.6,169.5c-.4-.9,0-2,.8-2.4.9-.4,2,0,2.4.8.4.9,0,2-.8,2.4-.9.4-2,0-2.4-.8Zm1.5,2.3l2.7-1.4,4.5,8.9-2.7,1.4-4.5-8.9Z"/><path d="m182.4,164.8l2.9-.9,4.5,13.9-2.9.9-4.5-13.9Z"/><path d="m189,164.9c-.2-1,.5-1.9,1.5-2.1,1-.2,1.9.5,2.1,1.5.2,1-.5,1.9-1.5,2.1-1,.2-1.9-.5-2.1-1.5Zm.7,2.6l3-.5,1.6,9.9-3,.5-1.6-9.9Z"/><path d="m195.6,171.5c.2-3,2.6-5.1,5.7-4.9,1.9.1,3.6,1.3,4.3,2.9l-2.7,1.3c-.3-.7-1-1.2-1.9-1.3-1.3,0-2.3.8-2.4,2.1,0,1.4.8,2.4,2.1,2.5.9,0,1.6-.3,2-1l2.5,1.7c-1,1.5-2.7,2.4-4.7,2.2-3-.2-5.1-2.7-4.9-5.7v.2Z"/><path d="m206.5,172.5c1.2-2.7,4.2-4,6.9-2.8,2.7,1.1,4,4.2,2.8,6.9-1.2,2.7-4.2,4-6.9,2.8-2.7-1.1-4-4.2-2.8-6.9Zm7,2.9c.5-1.3,0-2.6-1.2-3.1-1.2-.5-2.5,0-3,1.3-.6,1.3,0,2.6,1.2,3.1,1.2.5,2.5,0,3-1.3Z"/><path d="m226,183.6l-4.2,4.5-2.2-2,3.9-4.2c.8-.9.7-1.9,0-2.5-.8-.7-1.8-.8-2.8.3l-3.7,4-2.2-2,6.8-7.4,2.2,2-.6.7c.9-.2,2,.1,2.9,1,1.5,1.4,1.8,3.6,0,5.6h-.1Z"/><rect class="cls-42" x="170.8" y="191.5" width="52" height="37" rx="2.9" ry="2.9"/><path class="cls-72" d="m193,222.6c-2.5,0-4.6-.5-6.2-1.6s-2.8-2.5-3.4-4.3l5.2-3c.9,2.1,2.4,3.1,4.7,3.1s2.8-.5,2.8-1.6-.5-1.2-1.6-1.7c-.4-.2-1.4-.5-3-.9-2.2-.6-3.9-1.5-5.1-2.7-1.3-1.1-1.9-2.7-1.9-4.7s.8-4,2.3-5.3c1.6-1.4,3.5-2,5.9-2s3.7.5,5.3,1.4c1.5.9,2.7,2.3,3.5,4l-5.1,3c-.7-1.8-2-2.6-3.7-2.6s-1.3,0-1.6.4c-.4.3-.6.7-.6,1.1s.3,1,.8,1.3c.5.4,1.6.8,3.2,1.3,1.1.4,2,.7,2.8,1,.7.3,1.5.7,2.3,1.2.8.6,1.5,1.3,1.9,2.1.4.9.6,1.9.6,3,0,2.3-.8,4.1-2.5,5.4-1.6,1.3-3.8,2-6.5,2h-.1Z"/><path class="cls-72" d="m209.2,202.9c-.6.6-1.4,1-2.3,1s-1.6-.3-2.3-1-1-1.4-1-2.3.3-1.6,1-2.3c.6-.6,1.4-.9,2.3-.9s1.6.3,2.3.9c.6.6,1,1.4,1,2.3s-.3,1.6-1,2.3Zm-5.1,19.2v-16.9h5.6v16.9h-5.6Z"/><circle class="cls-3" cx="43.3" cy="186" r="36"/><path class="cls-75" d="m31.3,190.9v-13.8c-.2-2.8,2-5.2,4.8-5.4.2,0,.4,0,.6,0h13.2c2.8-.2,5.2,1.9,5.4,4.7,0,.2,0,.4,0,.7v27.8c.2,2.8-2,5.2-4.8,5.4-.2,0-.4,0-.6,0h-13.2c-2.8.2-5.2-1.9-5.4-4.7,0-.2,0-.4,0-.7v-14Zm1.2,0v14c-.1,2.1,1.4,3.9,3.5,4.1.2,0,.4,0,.5,0h13.4c2.1.1,3.9-1.4,4.1-3.5,0-.2,0-.4,0-.5v-27.9c.1-2.1-1.4-3.9-3.5-4.1-.2,0-.4,0-.5,0h-13.4c-2.1-.1-3.9,1.4-4.1,3.5,0,.2,0,.4,0,.5v13.9h0Z"/><path class="cls-109" d="m32.5,191v-14c-.1-2.1,1.4-3.9,3.5-4.1.2,0,.4,0,.5,0h13.4c2.1-.1,3.9,1.4,4.1,3.5,0,.2,0,.4,0,.5v27.9c.1,2.1-1.4,3.9-3.5,4.1-.2,0-.4,0-.5,0h-13.4c-2.1.1-3.9-1.4-4.1-3.5,0-.2,0-.4,0-.5v-13.9Zm1.2,0v13.9c-.2,1.4.9,2.7,2.3,2.9.2,0,.4,0,.6,0h13.2c1.4.2,2.7-.9,2.9-2.3,0-.2,0-.4,0-.6v-27.8c.2-1.4-.9-2.7-2.3-2.9-.2,0-.4,0-.6,0h-13.2c-1.9,0-2.9,1-2.9,2.9v13.9h0Z"/><path class="cls-7" d="m33.8,191v-13.9c-.2-1.4.9-2.7,2.3-2.9.2,0,.4,0,.6,0h13.2c1.9,0,2.9,1,2.9,2.9v27.8c.2,1.4-.9,2.7-2.3,2.9-.2,0-.4,0-.6,0h-13.2c-1.4.2-2.7-.9-2.9-2.3,0-.2,0-.4,0-.6v-13.9Zm10.1-1.3c0-.3.4-.5.6-.7.2-.4.6-.4,1-.2.6.3,1.1.6,1.7.9.6.3,1.3.3,1.8,0,.9-.6,1.8-1.3,2.7-1.9.8-.5,1-1.6.5-2.4,0,0,0,0,0,0-.5-.8-1.6-1-2.3-.4,0,0,0,0,0,0-.6.3-1.1.7-1.6,1.1-.2,0-.2.2-.5.2-.4-.2-.7-.4-1.2-.6,1.7-.6,2.3-1.7,1.9-3-.4-1.1-1.6-1.8-2.7-1.5-.6.1-1,.5-1.4,1-.5.7-.5,1.7,0,2.4-.8-.4-1.5-.8-2.2-1.1-.6-.4-1.5-.3-2,.2-1,.8-1.9,1.7-2.9,2.5-.7.6-.9,1.6-.3,2.4,0,0,0,0,0,0,.5.7,1.5.9,2.2.4,0,0,.2-.1.2-.2l1.8-1.5c.2,0,.2-.3.6-.2-.6.6-1.1,1.2-1.7,1.8-1.8,1.7-3.4,3.4-5.2,5-.7.6-.8,1.6-.2,2.3,0,0,.1.2.2.2.7.6,1.7.6,2.4,0,.4-.4.9-.8,1.3-1.2.9-.9,1.8-1.7,2.6-2.6.2-.2.4-.2.6,0s0,.3-.2.4c-.3.4-.7.7-1,1.1-.6.7-.6,1.8.2,2.4.7.6,1.7.6,2.3,0,1-1,1.9-2,2.8-3,.6-.6.7-1.6,0-2.3-.2-.2-.3-.3-.5-.4-.5-.3-.9-.6-1.4-.8h0v-.2Zm-.5,9.4h-5.1c-.5,0-.9,0-.9.6s.4.6.9.6h10.2c.5,0,.9,0,.9-.6s-.4-.6-.9-.6h-5Zm-.2,3.4h5.1c.5,0,.9,0,.9-.6s-.4-.6-.9-.6h-10.2c-.5,0-.9,0-.9.6s.4.6.9.6h5Zm3.4,2.2h2c.4,0,.7-.2.7-.6s-.3-.6-.7-.6h-3.9c-.4,0-.7.2-.7.6s.3.6.7.6h1.9Zm-3.3-28.6h-1.2c-.3,0-.6.2-.6.5,0,0,0,0,0,.1,0,.4.2.6.6.6h2.4c.4,0,.6-.3.6-.6s-.3-.6-.6-.6h-1.2Z"/><path class="cls-28" d="m43.9,189.7c.5.2,1,.6,1.4.8.8.4,1.2,1.4.8,2.2,0,.2-.2.3-.3.5-.9,1-1.8,2.1-2.8,3-.6.7-1.6.7-2.3.1,0,0,0,0-.1-.1-.7-.6-.7-1.7,0-2.4.3-.4.7-.7,1-1.1,0,0,.4-.2.2-.4s-.4-.2-.6,0c-.9.9-1.8,1.7-2.6,2.6-.4.4-.9.8-1.3,1.2-.6.7-1.6.7-2.3.1,0,0,0,0-.1-.1-.7-.6-.7-1.7,0-2.4,0,0,0,0,0,0,1.8-1.7,3.4-3.4,5.2-5,.6-.6,1.1-1.2,1.7-1.8-.3-.2-.5,0-.6.2-.6.5-1.1,1-1.8,1.5-.7.6-1.8.6-2.5-.2-.6-.7-.4-1.8.3-2.4,0,0,0,0,0,0,1-.9,1.9-1.7,2.9-2.5.5-.5,1.4-.6,2-.2.7.4,1.4.7,2.2,1.1-.4-.7-.4-1.7,0-2.4.3-.5.8-.8,1.4-1,1.2-.3,2.4.4,2.7,1.5.4,1.3-.2,2.3-1.9,3,.4.2.8.4,1.2.6.2,0,.3,0,.5-.2.5-.4,1-.8,1.6-1.1.7-.6,1.8-.4,2.4.3,0,0,0,0,0,0,.5.7.4,1.8-.4,2.3,0,0,0,0-.1,0-.9.6-1.8,1.3-2.7,1.9-.5.4-1.3.4-1.8,0-.6-.3-1.1-.6-1.7-.9-.4-.2-.6-.2-1,.2-.2.2-.4.5-.6.7v.2Zm-2.2,5.8c.2,0,.4-.1.5-.3l2.5-2.7c.4-.5.4-.6-.2-1s-1.2-.6-1.8-1-.7-.7-.2-1.3c.6-.7,1.4-1.4,2-2.2.5-.6.5-.7-.2-1.1-1-.5-1.9-1-2.8-1.5-.2-.2-.6-.2-.8,0-.9.8-1.8,1.6-2.8,2.4-.2.2-.4.5-.2.7s.6.2.8,0l1.4-1.2c1.4-1.2,1-1.2,2.7-.2.7.4.7.7.2,1.3-.7.7-1.4,1.4-2.1,2.2-.4.5-.4.6.2,1s1.2.6,1.8,1,.7.7.2,1.3-1,1.1-1.6,1.8c-.2.2-.2.4-.2.6,0,.2.2.2.4.2h0Zm9.4-9.3c0-.4-.5-.6-.9-.3-.6.5-1.4.9-2,1.4-.3.3-.8.3-1,0l-1-.5c-.2,0-.3,0-.3.2s-.5.4-.2.6c.6.3,1.3.6,1.8,1,.2,0,.3,0,.5-.2.9-.6,1.8-1.2,2.6-1.8.2-.2.3-.2.3-.5h.2Zm-11,5.4c-.2-.2-.2-.3-.4-.5s-.2-.2-.5,0c-1.2,1.2-2.5,2.4-3.7,3.5-.2.2-.3.5,0,.7s.5.2.7,0c1.3-1.3,2.6-2.5,3.8-3.7h0Zm5-8.3c0,.6.5,1,1,1,.5,0,1-.5,1-1,0,0,0,0,0,0,0-.5-.4-1-1-1-.6,0-1,.5-1,1Z"/><path class="cls-25" d="m43.4,199.2h5c.5,0,.9,0,.9.6s-.4.6-.9.6h-10.2c-.5,0-.9,0-.9-.6s.4-.6.9-.6h5.1Z"/><path class="cls-25" d="m43.3,202.6h-5c-.5,0-.9,0-.9-.6s.4-.6.9-.6h10.2c.5,0,.9,0,.9.6s-.4.6-.9.6h-5.1Z"/><path class="cls-109" d="m46.6,204.8h-1.9c-.4,0-.7-.2-.7-.6s.3-.6.7-.6h3.9c.4,0,.7.2.7.6s-.2.6-.7.6h-2Z"/><path class="cls-28" d="m43.3,176.3h1.2c.4,0,.6.3.6.6s-.3.6-.6.6h-2.4c-.3,0-.6-.2-.6-.5,0,0,0,0,0,0,0-.3.2-.6.5-.6,0,0,0,0,.1,0h1.2Z"/><path class="cls-76" d="m41.7,195.6c-.2,0-.3,0-.4-.2,0-.2,0-.5.2-.6.6-.6,1-1.1,1.6-1.8s.5-.9-.2-1.3-1.2-.6-1.8-1-.6-.5-.2-1c.6-.7,1.4-1.4,2.1-2.2.6-.6.5-.9-.2-1.3-1.8-.9-1.3-1-2.7.2l-1.4,1.2c-.2.2-.6.3-.8,0s0-.6.2-.7c1-.8,1.8-1.6,2.8-2.4.3-.2.6-.2.8,0,1,.5,1.9,1,2.8,1.5.6.3.6.6.2,1.1-.6.7-1.4,1.4-2,2.2-.5.6-.5.9.2,1.3s1.2.6,1.8,1,.6.6.2,1l-2.5,2.7c-.2.2-.3.3-.5.3h0Z"/><path class="cls-88" d="m51.3,186.3c0,.2-.2.3-.3.5-.9.6-1.8,1.2-2.6,1.8-.2,0-.3.2-.5.2-.6-.3-1.3-.6-1.8-1-.3-.2,0-.4.2-.6s0-.3.3-.2l1,.5c.3.2.7.2,1,0,.6-.5,1.3-1,2-1.4.4-.2.8-.2.9.3h-.2Z"/><path class="cls-54" d="m40.2,191.6c-1.3,1.2-2.6,2.5-3.8,3.7-.2.2-.5.3-.7,0s-.2-.5,0-.7c1.2-1.2,2.5-2.3,3.7-3.5s.3-.2.5,0,.2.2.4.5h0Z"/><path class="cls-76" d="m45.2,183.2c0-.6.5-1,1-1,.5,0,1,.5,1,1,0,0,0,0,0,0,0,.5-.4,1-1,1-.6,0-1-.5-1-1Z"/><path d="m13.4,188.1h1.8v-3.6h2.2v3.6h3.5v2.2h-9.7v-5.8h2.2v3.7Z"/><path d="m12.5,182.1c-.7-.1-1.1-.8-1-1.4.1-.7.8-1.1,1.4-1s1.1.8,1,1.4c0,0,0,0,0,0-.1.7-.8,1.1-1.4,1Zm1.8.2l.4-2,6.7,1.4-.4,2-6.7-1.4Z"/><path d="m18.2,176.4l2.2.9c.6.2.8-.2,1-1.1l1.8.7c-.7,2.6-1.8,3-3.6,2.3l-2.2-.9-.4,1-1.8-.7.4-1-1.2-.5.2-2.2,1.8.7.6-1.3,1.8.7-.6,1.4h0Z"/><path d="m24.1,168.3l3.4,2.6-1.2,1.7-3.1-2.3c-.5-.4-1.2-.4-1.7.1,0,0,0,0-.1.1-.5.6-.4,1.3.4,1.8l3,2.2-1.2,1.7-5.5-4.1,1.2-1.7.6.4c-.1-.7,0-1.5.5-2.1.8-1.1,2.3-1.4,3.8-.4h0Z"/><path d="m29.9,167c.4-.3.7-.7.8-1.2l1.9-.2c0,1.2-.6,2.2-1.6,2.9-1.5,1.3-3.7,1.1-5-.4,0,0-.2-.2-.2-.3-1.2-1.6-.9-3.8.7-5,0,0,.1,0,.2-.1,1.5-1.1,3.6-.8,4.8.7,0,0,.1.2.2.3.2.2.3.5.4.7l-4,2.9c.6.3,1.4.3,1.9-.2h0Zm-.4-2.8c-.5-.5-1.3-.5-1.8,0-.6.3-.9,1.1-.6,1.8l2.4-1.8Z"/><path d="m38.2,162.6c.6,1.5-.6,2.6-1.9,3.1-1.1.5-2.5.3-3.4-.6l1.4-1.6c.3.4.9.6,1.4.4.5-.2.6-.4.6-.6-.2-.7-3.3.8-4.2-1.4-.5-1.4.4-2.6,1.8-3,1-.4,2.2-.2,3,.5l-1.4,1.5c-.3-.3-.7-.4-1-.2-.3.2-.5.3-.4.6.2.7,3.3-.9,4.2,1.5h0Z"/><path d="m44.1,162c.2,1.6-1.1,2.4-2.6,2.6-1.2.3-2.4-.3-3.1-1.3l1.7-1.2c.2.5.8.8,1.3.6.5,0,.7-.2.7-.5,0-.7-3.4,0-3.7-2.3-.2-1.5,1-2.4,2.4-2.6,1.1-.2,2.2.3,2.8,1.2l-1.7,1.1c-.2-.3-.6-.5-1-.5-.3,0-.5.2-.6.5,0,.8,3.4-.2,3.7,2.4h0Z"/><path d="m51.9,160.4l-.6,2.4c-.2.6.3.7,1.2,1l-.5,1.8c-2.7-.4-3.3-1.4-2.7-3.3l.6-2.4-1-.2.5-1.9,1,.2.3-1.3h2.2c0,0-.5,1.8-.5,1.8l1.4.3-.5,1.9-1.4-.3Z"/><path d="m59.7,161.2l-1,2.1c-.7-.6-1.7-.5-2.3.2,0,0-.2.2-.2.3l-1.4,2.8-1.8-.9,3-6.2,1.8.9-.6,1.1c.7-.7,1.7-.8,2.5-.3Z"/><path d="m66.6,167l-4.5,5.2-1.6-1.4.4-.5c-.8.1-1.5-.2-2.1-.7-1.4-1.3-1.4-3.5-.1-4.8,0,0,0,0,0,0,1.2-1.5,3.4-1.7,4.9-.6.6.5,1,1.2,1,2l.4-.5,1.6,1.4h0Zm-3.8,1.3c.6-.7.5-1.7-.2-2.3-.7-.6-1.7-.5-2.3.2-.6.7-.5,1.7.2,2.3,0,0,0,0,0,0,.6.6,1.7.6,2.3,0,0,0,0,0,0,0Z"/><path d="m65.3,170.8c1.7-1.1,4-.5,5,1.2,0,0,0,0,0,0,.7,1.1.7,2.5,0,3.6l-1.8-1c.3-.5.3-1.1,0-1.5-.4-.7-1.3-1-2-.6,0,0,0,0-.1,0-.7.4-1,1.3-.6,2,0,0,0,0,0,.1.3.5.8.8,1.4.7v2.1c-2,0-3.7-1.6-3.7-3.7,0-1.3.7-2.5,1.7-3.1h0Z"/><path d="m66.9,182.7l2.4-2.9-3,.8-.6-2,9.4-2.5.6,2-5.6,1.5,3.4,1.2.6,2.3-4-1.5-2.6,3.4-.6-2.2h0Z"/><path d="m69.1,188.2c0,.5.1,1,.5,1.4l-1,1.6c-.9-.7-1.4-1.9-1.4-3,0-2,1.6-3.6,3.6-3.6s3.6,1.6,3.6,3.6c0,1.9-1.6,3.5-3.5,3.4,0,0-.1,0-.2,0-.3,0-.5,0-.8,0v-4.9c-.6.3-1,.9-.9,1.6h0Zm2.5,1.3c.7-.1,1.1-.8,1.1-1.4,0-.7-.4-1.3-1-1.5v3h0Z"/><path d="m72.6,198l-2.2-.6c.4-.8.4-2.1-1-2.4l-3-.9.6-2,6.6,1.9-.6,2-1.2-.3c.7.6,1,1.5.7,2.4h0Z"/><path d="m65.1,202c-1.4-.7-1.4-2.3-.6-3.6.5-1.2,1.6-1.9,2.9-1.8v2.1c-.5-.1-1,.2-1.2.6-.2.4-.2.7,0,.9.6.4,1.9-2.8,4-1.7,1.4.7,1.4,2.2.7,3.4-.5,1-1.5,1.6-2.6,1.7v-2c.4,0,.8-.2,1-.6.2-.3.2-.6,0-.7-.7-.4-1.8,2.9-4.1,1.7h0Z"/><circle class="cls-3" cx="49.3" cy="268.8" r="36"/><path class="cls-47" d="m58.7,253.1c.2.2.4.4.6.6.9.9,1.5,2.1,1.4,3.4v36.2c0,2.9-1.4,4.6-4.4,4.8-4.8.4-9.6.4-14.4,0-2.4,0-4.2-2-4.2-4.4,0,0,0-.1,0-.2v-36.5c-.1-2.4,1.7-4.4,4.1-4.6,0,0,0,0,0,0,4.2-.3,8.4-.3,12.6-.2.3,0,.6,0,.9,0,1.1,0,2.2.2,3.3.6v.2Zm-8.7,5.3h-8.9c-.6,0-.7.2-.7.7v9.2c0,3,0,1.9,1.9,1.8h15.3c.5,0,.6-.2.6-.6v-10.6c0-.4,0-.6-.6-.6h-7.6Zm1.7,23.6c-1.8,0-1.7,0-1.7,1.8s.2.8.8.8h1.3c1,0,1.1,0,1.1-1,0-1.8.2-1.5-1.5-1.5Zm-4.7,0h-.9c-.5,0-.8.2-.6.6.2.6-.6,1.7.6,1.9.6,0,1.2,0,1.8,0,.3,0,.6-.2.7-.6.4-1.5,0-2-1.5-2h-.2Zm0-3.8c-1.8,0-1.5-.2-1.6,1.6v.2c0,.6.2.8.7.8h1.8c.3,0,.6-.2.6-.6.4-1.5,0-2-1.5-2h0Zm4.8,0h-1c-.4,0-.6.2-.6.6,0,1.8-.2,2.1,1.7,2h.4c1,0,1.1-.2,1.1-1.1,0-1.7.2-1.5-1.5-1.5h0Zm0,10.2h.8c.4,0,.8,0,.8-.6s.4-1.4-.3-2h-2.2c-.3,0-.6.2-.6.5-.4,1.5,0,2.1,1.6,2.1h0Zm-4.6,0h.8c.5,0,.8-.2.8-.6s.4-1.4-.3-1.9h-2.2c-.3,0-.5.2-.6.4-.5,1.4,0,2.2,1.5,2.2h0Zm0-13.9h-.7c-.6,0-.8.2-.8.8q0,1.8,1.8,1.8h.6c.4,0,.7-.3.7-.6.3-1.6,0-2-1.6-2h0Zm4.8,0h-1c-.4,0-.6.2-.6.6,0,1.8-.2,2.1,1.7,2h.4c1,0,1.1-.2,1.1-1.1,0-1.7.2-1.5-1.5-1.5h0Zm-9.4,13.9h.6c.7,0,1-.2.9-1,0-1.9.2-1.7-1.7-1.7h-.3c-1,0-1.1,0-1,1,0,1.4-.3,1.6,1.5,1.5h0Zm14.1-2.6h-.6c-.6,0-.9.2-.9.9,0,1.8-.3,1.8,1.8,1.8h.3q1,0,1-1c0-1.8.2-1.5-1.5-1.5h0Zm0-3.8h-.8c-.6,0-.7.2-.7.8,0,1.9-.3,1.8,1.8,1.8h.2c1,0,1,0,1-1,0-1.8.2-1.6-1.5-1.6h0Zm-14,0h-.7c-.6,0-.9.2-.9.9,0,1.8-.3,1.8,1.8,1.8h.3c1,0,1,0,1-1.1,0-1.7.2-1.5-1.5-1.5h0Zm0-3.8h-.7c-.6,0-.9.2-.8.8,0,1.8-.2,1.8,1.8,1.8h.2c1,0,1.1,0,1.1-1.1,0-1.7.2-1.5-1.5-1.5h0Zm14.1-3.8h-.8c-.6,0-.7.2-.7.8,0,1.9-.2,1.8,1.8,1.8h.2c1,0,1,0,1-1,0-1.8.2-1.5-1.5-1.6h0Zm0,3.8c-1.8,0-1.5-.2-1.6,1.6v.2c0,.6.2.9.9.9h1.1c1,0,1,0,1-1.1,0-1.7.2-1.5-1.5-1.5h0Zm-14.1-3.8h-.8c-.6,0-.7.2-.7.8,0,1.9-.2,1.8,1.8,1.8h.2c1,0,1,0,1-1,0-1.8.2-1.5-1.5-1.6h0Zm8.6-18.3c.3,0,.6,0,.5-.5s-.2-.4-.5-.4-.6,0-.5.5.2.4.5.4Zm2-.4c0-.3-.2-.4-.5-.4s-.6,0-.6.4.2.4.5.4.6,0,.6-.4Zm-4.6,39c0-.2-.1-.4-.4-.5,0,0,0,0-.1,0-.3,0-.4.2-.4.5s.2.5.4.5c.2,0,.4-.2.4-.5h0Zm-1.7-39.4c-.3,0-.5.2-.6.4,0,.3.2.5.4.5,0,0,0,0,0,0,.2,0,.4,0,.4-.3h0c0-.3,0-.5-.4-.5h0Zm1.8.4c0-.3-.2-.4-.5-.4-.2,0-.4,0-.5.3,0,.2,0,.4.3.5,0,0,.1,0,.2,0,.3,0,.4-.2.4-.4h0Zm-.2,35.7c0-.3-.2-.4-.5-.4-.2,0-.4.1-.4.4,0,0,0,0,0,0,0,.3.2.5.4.5s.4-.2.4-.5h0Zm3.2,0c0-.2,0-.3-.4-.3s-.5,0-.5.4.2.5.4.5.4-.2.4-.6h0Zm-.3,3.8c.2,0,.3-.2.3-.4,0-.2-.2-.5-.4-.5-.2,0-.4.1-.4.3,0,0,0,0,0,.1,0,.3.2.4.6.4h0Zm-1.3-39.4c0-.3-.2-.4-.5-.4s-.4.2-.3.5.2.4.5.4c.2,0,.4-.2.4-.5h0Zm-.4,35.4c.2,0,.4-.1.4-.4,0,0,0,0,0,0,0-.3-.2-.5-.5-.4s-.4.2-.4.5c0,.2.2.4.5.4h0Zm-2.4,2.3c.2,0,.4,0,.5-.4s0-.5-.4-.5-.4,0-.5.4,0,.5.4.5h0Zm4.6-.9c-.2,0-.3.2-.3.4,0,0,0,0,0,.1,0,.2.2.4.5.3s.4-.2.4-.5c0-.2-.2-.4-.5-.4h0Zm-2.2,3.2c.2,0,.4-.1.4-.4,0,0,0,0,0,0,0-.3-.2-.5-.4-.5-.2,0-.4.1-.4.4,0,0,0,0,0,0,0,.3.2.5.4.5h0Zm-.5-2.5c0-.2,0-.4-.4-.4-.2,0-.4.1-.4.4,0,0,0,0,0,0,0,.2,0,.5.3.5.2,0,.4-.2.5-.4h0Zm.6.3c-.2,0-.4.1-.4.4,0,0,0,0,0,0,0,.2.2.4.5.4h0c.2,0,.3-.2.3-.4,0-.2-.1-.4-.4-.4,0,0,0,0,0,0Zm0-1.5c0-.2-.1-.4-.3-.4-.2,0-.4.2-.5.4,0,.2,0,.4.3.4h0c.2,0,.3-.2.4-.4h0Zm.8,1c.2,0,.3-.1.3-.3,0-.2,0-.3-.2-.4h0c-.2,0-.3.2-.4.3s0,.3.3.3h0Z"/><path class="cls-86" d="m52.2,258.4h5.4c.5,0,.6.2.6.6v10.6c0,.4,0,.6-.6.6h-12.2c0-.2,0-.3.2-.5,1.5-2.5,3-5,4.5-7.4.8-1.2,1.5-2.5,2.2-3.8Z"/><path class="cls-86" d="m42.3,270c-1.3,0-1.9-.6-1.9-1.8v-9.2c0-.6.2-.7.7-.7h8c-.6,1.2-1.2,2.3-1.9,3.4-1.6,2.8-3.3,5.5-4.9,8.3h0Z"/><path class="cls-68" d="m52.2,258.4c-.6,1.3-1.4,2.6-2.2,3.8-1.4,2.5-3,5-4.5,7.4,0,.2-.2.3-.2.5h-1.3c0-.2,0-.3.2-.5,1.3-2.1,2.6-4.2,3.8-6.3,1-1.7,2-3.2,2.9-5h1.3Z"/><path class="cls-18" d="m50.9,258.4c-.9,1.7-1.9,3.3-2.9,5-1.3,2.2-2.6,4.2-3.8,6.3,0,.2-.2.3-.2.5h-.9c.4-.9.8-1.8,1.4-2.6,1.8-3,3.6-6.1,5.4-9h.9Z"/><path class="cls-48" d="m50,258.4c-1.8,3-3.6,6-5.4,9-.6.8-1.1,1.7-1.4,2.6h-.9c1.7-2.7,3.3-5.5,4.9-8.3.7-1.1,1.4-2.2,1.9-3.4h.9Z"/><path class="cls-77" d="m51.7,282c1.8,0,1.5-.2,1.5,1.5s0,1-1.1,1h-1.3c-.4,0-.8-.2-.8-.6,0,0,0-.1,0-.2,0-1.8-.2-1.8,1.7-1.8Z"/><path class="cls-77" d="m46.9,282h0c1.5,0,1.9.5,1.5,2,0,.4-.4.6-.7.6,0,0,0,0,0,0-.6,0-1.2,0-1.8,0-1.2-.2-.5-1.3-.6-1.9,0-.5.2-.7.6-.6h1Z"/><path class="cls-77" d="m46.9,278.2h0c1.5,0,1.9.5,1.5,2,0,.3-.3.5-.6.6h-1.8c-.5,0-.8-.2-.7-.8v-.2c0-1.8-.2-1.6,1.6-1.6h0Z"/><path class="cls-77" d="m51.7,278.2c1.7,0,1.5-.2,1.5,1.5s-.2,1.1-1.1,1.1h-.4c-1.9,0-1.7-.2-1.7-2s.2-.6.6-.6h1Z"/><path class="cls-77" d="m51.6,288.4c-1.5,0-2-.6-1.6-2.1,0-.3.3-.5.6-.5h2.2c.7.6.3,1.4.3,2s-.4.6-.8.6h-.8Z"/><path class="cls-77" d="m46.9,288.4c-1.4,0-2-.8-1.5-2.2,0-.3.3-.5.6-.4,0,0,0,0,0,0h2.2c.7.6.3,1.3.3,1.9s-.3.6-.8.6h-.9Z"/><path class="cls-77" d="m46.9,274.4h0c1.6,0,1.9.4,1.6,2,0,.4-.3.6-.7.6h-.6q-1.8,0-1.8-1.8c0-1.8.2-.9.8-.8h.8Z"/><path class="cls-77" d="m51.7,274.4c1.7,0,1.5-.2,1.5,1.5s-.2,1.1-1.1,1.1h-.4c-1.9,0-1.7-.2-1.7-2s.2-.6.6-.6h1Z"/><path class="cls-77" d="m42.2,288.4c-1.8,0-1.5,0-1.5-1.5s0-1,1-1h.3c1.9,0,1.7-.2,1.7,1.7s-.2,1-.9,1h-.6Z"/><path class="cls-77" d="m56.3,285.7c1.8,0,1.5-.2,1.5,1.5s0,1-1,1h-.3c-2.1,0-1.7,0-1.8-1.8,0-.6.2-1,.9-.9h.7Z"/><path class="cls-77" d="m56.3,282c1.7,0,1.5-.2,1.5,1.6s0,1-1,1h-.2c-2.2,0-1.8,0-1.8-1.8,0-.6.2-.8.7-.8h.9Z"/><path class="cls-77" d="m42.2,282c1.7,0,1.4-.2,1.5,1.5,0,1,0,1.1-1,1.1h-.3c-2.1,0-1.7,0-1.8-1.8,0-.6.2-1,.9-.9h.7Z"/><path class="cls-77" d="m42.2,278.2c1.7,0,1.5-.2,1.5,1.5s0,1.1-1.1,1.1h-.2c-1.9,0-1.7,0-1.8-1.8,0-.6.2-.9.8-.8h.8Z"/><path class="cls-77" d="m56.3,274.4c1.7,0,1.5-.2,1.5,1.6s0,1-1,1h-.2c-2,0-1.8,0-1.8-1.8,0-.6.2-.8.7-.8h.9Z"/><path class="cls-77" d="m56.3,278.2c1.7,0,1.5-.2,1.5,1.5s0,1.1-1,1.1h-1.1c-.6,0-.9-.2-.9-.9v-.2c0-1.8-.2-1.6,1.6-1.6h0Z"/><path class="cls-77" d="m42.2,274.4c1.7,0,1.5-.2,1.5,1.5s0,1-1,1h-.2c-2,0-1.8,0-1.8-1.8s.2-.8.7-.8h.9Z"/><path class="cls-91" d="m50.8,256.1c-.2,0-.5,0-.5-.4,0-.3.2-.5.4-.5,0,0,0,0,0,0,.2,0,.5,0,.5.4,0,.3-.2.5-.4.5,0,0,0,0,0,0Z"/><path class="cls-91" d="m52.7,255.7c0,.3-.2.4-.6.4s-.5-.2-.5-.4.2-.4.6-.4.5.2.5.4Z"/><path class="cls-95" d="m48.1,294.6c0,.2-.2.5-.4.5-.2,0-.4-.1-.4-.3,0,0,0,0,0-.1,0-.2,0-.5.4-.5.2,0,.4.1.5.4,0,0,0,0,0,.1h0Z"/><path class="cls-91" d="m46.4,255.2c.3,0,.4.2.4.5,0,.2-.1.4-.4.4,0,0,0,0,0,0h0c-.3,0-.6-.2-.5-.5s.2-.4.6-.4h0Z"/><path class="cls-91" d="m48.2,255.6c0,.3-.2.5-.4.4-.2,0-.4,0-.5-.3,0-.2,0-.4.3-.5,0,0,.1,0,.2,0,.2,0,.5,0,.5.4h0Z"/><path class="cls-91" d="m48.1,291.3c0,.3-.2.5-.4.5s-.4-.2-.4-.5,0-.4.4-.4.5,0,.5.4h0Z"/><path class="cls-91" d="m51.3,291.2c0,.4-.2.6-.4.6s-.4-.2-.4-.5.2-.4.5-.4c.2,0,.4.1.4.3h0Z"/><path class="cls-91" d="m51,295c-.3,0-.6,0-.6-.4s.2-.5.4-.5.4.2.4.5,0,.4-.3.4h0Z"/><path class="cls-91" d="m49.7,255.6c0,.2-.1.4-.3.5-.2,0-.5,0-.5-.4,0-.2.1-.4.3-.5.3,0,.5,0,.5.4Z"/><path class="cls-91" d="m49.3,291.1c-.2,0-.4,0-.5-.4s0-.5.4-.5.5.2.5.4c0,.2-.1.4-.4.4,0,0,0,0,0,0h0Z"/><path class="cls-91" d="m47,293.4c-.3,0-.4-.2-.4-.5s.2-.4.5-.4.4.2.4.5-.2.4-.5.4Z"/><path class="cls-91" d="m51.5,292.5c.3,0,.5,0,.5.3s0,.5-.4.5c-.2,0-.4-.1-.5-.3,0-.3,0-.5.3-.5h0Z"/><path class="cls-91" d="m49.3,289.3c-.2,0-.3-.1-.3-.3,0-.2,0-.2.3-.2.2,0,.3.1.3.3,0,0,0,0,0,0,0,.2,0,.2-.3.2Z"/><path class="cls-95" d="m48.8,293.2c0,.2-.2.4-.5.4-.2,0-.4-.2-.3-.5s.2-.4.4-.4.3.2.4.4h0Z"/><path class="cls-95" d="m49.4,293.6c.2,0,.4.1.4.4,0,0,0,0,0,0,0,.2,0,.4-.3.4s-.5,0-.5-.3h0c0-.2.2-.3.4-.4h0Z"/><path class="cls-95" d="m49.4,292.1c0,.2-.2.4-.4.4-.2,0-.4-.1-.4-.3h0c0-.2.2-.4.5-.4.2,0,.3.2.3.4h0Z"/><path class="cls-91" d="m50.2,293.1c-.3,0-.4-.2-.3-.3s.2-.4.4-.3c.2,0,.3.1.3.3h0c0,.3-.1.4-.3.4h0Z"/><path d="m26.8,278.9c1.7-1.3,4.1-1,5.4.7,0,0,0,0,0,0l1.8,2.6-6.3,4.6-1.8-2.6c-1.2-1.7-.9-4,.8-5.3,0,0,0,0,.1,0Zm1,1.4c-1,.6-1.3,1.8-.7,2.7,0,0,.1.2.2.2l.8,1.1,3.5-2.6-.8-1.1c-.7-.9-2-1.2-2.9-.5,0,0,0,0-.1.1h0Z"/><path d="m23.5,278.9c-.5.2-1.1,0-1.4-.6-.2-.5,0-1.1.6-1.4.5-.2,1.1,0,1.4.6h0c.2.5,0,1.1-.5,1.3,0,0,0,0,0,0Zm1.3-.7l-.6-1.5,5.1-2.2.6,1.5-5.1,2.2Z"/><path d="m26.4,269.8c1.3-.3,2.1.6,2.3,1.8.3.9,0,2-.7,2.6l-1.1-1.2c.4-.2.6-.6.4-1,0-.4-.2-.6-.5-.5-.6.2.3,2.7-1.5,3.2-1.2.2-2-.6-2.3-1.8-.2-.9,0-1.8.6-2.4l1,1.2c-.3.2-.4.5-.3.9,0,.2.1.4.4.4,0,0,0,0,0,0,.6-.2-.4-2.7,1.6-3.2h0Z"/><path d="m25.4,262.9c1.5,0,2.8,1.2,2.9,2.7,0,0,0,0,0,0,0,.6-.3,1.2-.7,1.7h2.8v1.8l-7.8-.2v-1.7h.6c-.4-.4-.7-1.1-.6-1.7.1-1.5,1.4-2.7,2.9-2.6,0,0,0,0,.1,0h0Zm0,1.7c-.7,0-1.4.5-1.4,1.3,0,0,0,0,0,0,0,.7.4,1.3,1.1,1.4,0,0,.1,0,.2,0,.7,0,1.4-.5,1.4-1.3,0,0,0,0,0,0,.1-.7-.3-1.3-1-1.4,0,0-.2,0-.3,0h0Z"/><path d="m20.6,260.4l.4-1.6,7.9,2-.4,1.6-7.9-2Z"/><path d="m26.5,252.4l5,2.5-.7,1.5-.5-.2c.2.6.2,1.2-.2,1.8-.9,1.4-2.7,1.8-4.1.9-1.2-.8-1.7-2.2-1.2-3.5.3-.6.8-1,1.4-1.2l-.5-.2.7-1.5h0Zm1.8,2.7c-.6-.4-1.5-.1-1.8.5,0,0,0,0,0,0-.4.7-.1,1.5.5,1.9.7.4,1.5.1,1.9-.5.4-.7.1-1.5-.5-1.9,0,0,0,0,0,0Z"/><path d="m31.4,246.6l2.7,5.1c.9,1.7.7,2.9-.4,4l-1.1-1c.5-.4.6-1.1.2-1.7l-5.4-2,1.3-1.4,3.4,1.4-1.8-3.1,1.2-1.4h0Z"/><path d="m42.9,240.5l.5,5.8-1.4.6-2-2.4.3,3.1-1.4.6-3.8-4.5,1.7-.7,1.9,2.5-.3-3.1,1.4-.6,1.9,2.4-.4-3.1,1.7-.7h0Z"/><path d="m44.2,239c0-.6.3-1.1.9-1.1.6,0,1.1.3,1.1.9,0,.6-.3,1.1-.9,1.1,0,0,0,0,0,0-.5,0-1-.3-1.1-.8,0,0,0,0,0,0Zm.4,1.4l1.7-.2.8,5.5-1.7.2-.8-5.5Z"/><path d="m50.1,241.7v2c0,.5.4.6,1.1.5v1.5c-2.2.2-2.9-.5-2.8-2v-2h-.9v-1.6h.9v-1l1.7-.5v1.6h1.1v1.6h-1.2,0Z"/><path d="m57.8,243.6l-.8,3.4-1.6-.4.7-3.1c.2-.5,0-1-.5-1.1,0,0-.1,0-.2,0-.5-.2-1.1.1-1.2.6,0,0,0,.2,0,.3l-.7,3-1.6-.4,1.8-7.6,1.6.4-.6,2.7c.5-.4,1.1-.5,1.7-.3,1.1.3,1.8,1.4,1.6,2.5,0,0,0,.1,0,.2Z"/><path d="m62.7,250.4v-3l-1.4,2-1.4-1,4.6-6.3,1.4,1-2.8,3.8,2.8-1,1.6,1.2-3.3,1v3.5l-1.5-1.1h0Z"/><path d="m66.9,252.8c.3.3.6.5,1,.6l.2,1.5c-1,0-1.9-.4-2.4-1.2-1.1-1.2-1-3,.1-4.1,0,0,.1-.1.2-.2,1.2-1,2.9-.9,4,.2,0,0,.1.2.2.2,1,1.2.8,3-.4,4,0,0,0,0,0,0-.2.2-.4.2-.6.4l-2.5-3.1c-.3.5-.2,1.1.2,1.5h0Zm2.2-.5c.3-.5.3-1.1,0-1.5-.3-.5-.9-.6-1.4-.4l1.5,1.8h0Z"/><path d="m75,258.6l-5.8.5c-1.9.2-3-.5-3.5-1.9l1.4-.6c.2.6.8,1,1.4.9l3.9-4.2.8,1.7-2.6,2.6,3.5-.5.7,1.6h0Z"/><path d="m73.5,266.5c-1.5.3-3-.7-3.3-2.1,0,0,0,0,0,0-.1-.6,0-1.3.4-1.8l-2.7.4-.2-1.7,7.8-1.1.2,1.7h-.6c.5.4.8,1,.9,1.6.2,1.5-.9,2.9-2.5,3,0,0,0,0-.1,0h0Zm-.2-1.7c.7,0,1.2-.7,1.1-1.3,0,0,0-.1,0-.2,0-.7-.6-1.2-1.3-1.2,0,0-.2,0-.2,0-.7,0-1.2.7-1.1,1.3,0,0,0,.1,0,.2,0,.7.6,1.2,1.3,1.2,0,0,.2,0,.2,0h0Z"/><path d="m75.4,273.9l-5.5-.9.2-1.7h.5c-.4-.4-.6-1.1-.4-1.7.4-1.6,2.1-2.5,3.7-2.1,1.4.4,2.3,1.6,2.2,3,0,.6-.4,1.2-1,1.5h.5c0,0-.2,1.8-.2,1.8h0Zm-2.5-2.1c.7.2,1.3-.2,1.5-.9,0,0,0-.2,0-.2.1-.7-.3-1.4-1-1.5,0,0,0,0,0,0-.7-.2-1.3.2-1.5.9,0,0,0,.2,0,.2-.1.7.4,1.4,1.1,1.5,0,0,0,0,0,0h0Z"/><path d="m74.1,282.4l-7-3.4.7-1.5.5.2c-.3-.6-.2-1.2.2-1.8.8-1.4,2.5-1.9,3.8-1.1,1.4.6,2.1,2.2,1.5,3.6,0,0,0,0,0,0-.3.6-.8,1-1.4,1.2l2.5,1.2-.7,1.5Zm-3.8-3.8c.6.4,1.5.1,1.8-.5,0,0,0,0,0,0,.3-.6,0-1.4-.5-1.7,0,0,0,0-.1,0-.6-.4-1.5-.1-1.8.5,0,0,0,0,0,0-.3.6,0,1.4.5,1.7,0,0,0,0,.1,0h0Z"/><circle class="cls-3" cx="198.7" cy="354.4" r="36"/><path class="cls-23" d="m190.6,360.9v-19.2c-.1-1,.4-1.9,1.4-2.2h17.4c0,.2.2.2.2.2.5.4.8.9.8,1.5v6.9c-.4-.6-1.1-1-1.8-1-.7,0-1.4.5-1.8,1.1-.4.7-.3,1.6.3,2.2.5.6,1.2.8,1.9.7.5-.1,1-.4,1.4-.9v4.6l-.2-.2c-.8-.8-2.1-.7-2.9.1-.8.8-.7,2.1.1,2.9,0,0,0,0,0,0,.9.7,2,.6,3-.4.2,0,0,.3,0,.4v3.4c0,.3,0,.5,0,.8-.2,1-.5,2-.8,3-.1.6-.3,1.3-.6,1.8v-.5c.1-1-.7-2-1.7-2.1-.1,0-.3,0-.4,0-1.1,0-2,.9-1.9,2,0,.5.2.9.5,1.2.5.6,1.3.9,2.1.6.7-.2,1.2-.7,1.4-1.4v.4c-.3,1.3-.7,2.6-1,3.8h-20.9c.8-2.2,1.7-4.4,2.5-6.6.3-.7.6-1.4.9-2.2h18.4c.4,0,.6-.2.6-.6s-.2-.6-.8-.6h-18Zm5-13.7c-1.1,0-2,.9-2,2,0,0,0,0,0,0,0,1.1,1,2,2.1,2,1.1,0,2-.9,2-2s-.9-2-2-2h0Zm6.6,7c-1.1,0-2.1.9-2.1,2,0,1.1.9,2,2,2,0,0,0,0,0,0,1.1,0,2.1-.9,2.1-2,0-1-.8-1.9-1.8-2,0,0-.1,0-.2,0h0Zm-6.2,12.2c0-1.1-.9-2-2-2s-2,.9-2,2c0,1.1.9,2.1,2,2.1,1.1,0,2-.9,2-2,0,0,0,0,0,0h0Zm8.2-17c0-1.1-.9-2-2-2s-2,.9-2,2c0,1.1.9,2.1,2,2.1,1.1,0,2-.8,2-1.9,0,0,0,0,0,0h0Zm-8.5,4.9c-1.1,0-2,.9-2,2s.9,2,2,2c1.1,0,2-.9,2.1-2,0-1.1-.9-2-2-2,0,0,0,0,0,0h0Zm6.8,12.2c0-1.1-.9-2-2-2s-2,.9-2,2,.9,2,2,2c1.1,0,2-.9,2-2,0,0,0,0,0,0Zm.2-23h1.6c.5,0,.6-.2.6-.6s-.2-.6-.6-.6h-3c-.4,0-.7.2-.7.6,0,0,0,0,0,0,0,.3.2.6.7.6h1.4,0Zm-4.7-.6c0,.4.2.6.6.6s.6-.2.6-.6c0-.3-.2-.6-.5-.6,0,0,0,0-.1,0-.4,0-.6.2-.6.6h0Z"/><path class="cls-97" d="m185.2,381.6c-.6-.3-1.2-.6-1.4-1.4-.1-.6,0-1.2.3-1.7.5-1.2.9-2.3,1.4-3.5h21.1v.4c-.4,1.4-.8,2.8-1.1,4.2-.1.8-.6,1.6-1.4,2h-19Zm11-2.3h2.4c.5,0,1-.3,1.1-.9,0,0,0-.1,0-.2,0-.6-.4-1.1-1-1.1,0,0,0,0-.1,0h-4.7c-.6,0-1.1.4-1.1,1,0,0,0,0,0,0,0,.6.5,1,1,1,0,0,0,0,0,0h2.4Z"/><path class="cls-51" d="m212.4,339.4c1,.4,1.3,1.2,1.3,2.2v19c0,.9-.3,1.8-.6,2.7-.6,2.4-1.4,4.8-2,7.3,0,.1,0,.2-.2.3h-3.3c.3-1.3.7-2.6,1-3.8v-.4h0c.3-.6.5-1.2.6-1.8.3-1,.6-2,.8-3,0-.2,0-.6,0-.8v-3.4c0-.1,0-.3,0-.4.5-.7.5-1.7,0-2.4,0,0,0-.2,0-.3v-4.3c.4-.7.4-1.5,0-2.2v-6.9c0-.6-.3-1.2-.8-1.5-.1,0-.2-.1-.2-.2h3.4Z"/><path class="cls-63" d="m204,381.6h0c.8-.4,1.3-1.1,1.4-2,.4-1.4.7-2.8,1.1-4.2v-.4h3.4c-.5,1.8-1,3.4-1.4,5.2-.2.7-.7,1.2-1.4,1.4h-3.1Z"/><path class="cls-94" d="m210,375h-24.6c.5-1.4,1-2.7,1.5-3.9h24.2c-.4,1.4-.7,2.7-1.1,4h0Z"/><path class="cls-29" d="m182.4,348.2h-1.4c-.3,0-.7,0-.9-.3-.2-.2,0-.4,0-.6.1-.2.3-.3.6-.3,1.1,0,2.2,0,3.3,0,.5,0,.7.2.7.6,0,1.1,0,2.2,0,3.4,0,.4-.3.7-.7.6,0,0,0,0,0,0-.3,0-.6-.2-.6-.5,0,0,0-.1,0-.2,0-.6,0-1.2,0-1.8-.5.5-.9,1.1-1.2,1.7-.9,1.4-1.4,3-1.6,4.6-.3,2.7.2,5.5,1.6,7.8.5.9,1.1,1.7,1.8,2.4.2.3.3.7,0,1-.3.2-.7.2-.9,0-2-2-3.4-4.6-3.8-7.4-.6-3.6.3-7.4,2.6-10.3,0-.2.2-.3.3-.5v-.2h.1Z"/><path class="cls-98" d="m190.6,360.9h17.8c.6,0,.8.2.8.6,0,.3-.2.6-.5.6,0,0,0,0,0,0h-18.4c.2-.4.2-.8.2-1.3h0Z"/><path class="cls-101" d="m195.6,347.2c1.1,0,2,.9,2,2s-.9,2-2,2c-1.1,0-2.1-.9-2.1-2,0-1.1.9-2,2-2.1h0Z"/><path class="cls-101" d="m210.3,355c.5.7.5,1.7,0,2.4-1,1-2.1,1.1-3,.4-.9-.8-1-2.1-.2-3,.8-.8,2.1-.9,2.9-.1,0,0,0,0,0,0l.2.2Z"/><path class="cls-102" d="m202,354.1c1.1,0,2,.9,2,2,0,1.1-.9,2-2,2-1.1,0-2-.9-2-2,0-1.1.9-2,2-2,0,0,0,0,0,0Z"/><path class="cls-56" d="m195.9,366.2c0,1.1-1,2-2.1,2-1.1,0-2-1-2-2.1,0-1.1,1-2,2.1-2,1.1,0,2,.9,2,2h0Z"/><path class="cls-56" d="m204,349.2c0,1.1-.9,2-2,2,0,0,0,0,0,0-1.1,0-2-1-2-2.1,0-1.1.9-2,2-2s2,.9,2,2h0Z"/><path class="cls-37" d="m195.6,354.1c1.1,0,2,1,2,2.1,0,1.1-1,2-2.1,2s-2-1-2-2.1c0-1.1.9-2,2-2h0Z"/><path class="cls-37" d="m202.4,366.2c0,1.1-.9,2-2,2s-2-.9-2-2,.9-2,2-2c1.1,0,2,.9,2,2,0,0,0,0,0,0Z"/><path class="cls-62" d="m208.8,366.8h0c-.2.7-.8,1.2-1.4,1.4-.8.3-1.6,0-2.1-.6-.5-.6-.6-1.4-.3-2.1.3-.7,1-1.2,1.8-1.2,1.1,0,2,.7,2.1,1.8,0,0,0,.2,0,.3v.5Z"/><path class="cls-62" d="m210.3,348.1c.3.7.3,1.5,0,2.2-.3.5-.8.8-1.4.9-.7.2-1.5-.1-1.9-.7-.5-.6-.7-1.4-.3-2.2.3-.7,1-1.1,1.8-1.1.7,0,1.4.3,1.8,1Z"/><path class="cls-17" d="m202.6,343.2h-1.4c-.4,0-.7-.2-.7-.6,0,0,0,0,0,0,0-.4.2-.6.7-.6h3c.5,0,.6.2.6.6s-.2.6-.6.6h-1.5Z"/><path class="cls-17" d="m197.8,342.6c0-.4.2-.6.6-.6.3,0,.6.2.6.5,0,0,0,0,0,.1,0,.3-.2.6-.5.6,0,0,0,0,0,0-.4,0-.6-.2-.6-.6h0Z"/><path class="cls-81" d="m196.2,379.3h-2.3c-.6,0-1.1-.4-1.1-1,0,0,0,0,0,0,0-.6.5-1,1.1-1h4.7c.6,0,1.1.4,1.1,1,0,0,0,0,0,.1,0,.6-.5,1-1,1,0,0,0,0,0,0h-2.4Z"/><path d="m168.8,347.7l1.6.4.8-3,1.8.5-.8,3,3,.8-.5,1.8-8.1-2.2,1.4-4.9,1.8.5-.9,3h0Z"/><path d="m173.5,344.6c-1.5-.9-2.1-2.8-1.3-4.3.9-1.5,2.8-2.1,4.3-1.3s2.1,2.8,1.3,4.3c0,0,0,0,0,0-.8,1.5-2.7,2.1-4.3,1.2,0,0,0,0,0,0Zm2.3-3.9c-.7-.4-1.5-.2-1.9.5-.4.6-.2,1.4.4,1.8,0,0,0,0,.1,0,.7.4,1.5.2,1.9-.5.4-.6.2-1.4-.4-1.9,0,0-.1,0-.2-.1h0Z"/><path d="m173.2,334.4l1.2-1.4,6.6,5.8-1.2,1.4-6.6-5.8Z"/><path d="m181.3,327.6l5.1,6.7-1.4,1.1-.3-.5c0,.7-.4,1.3-1,1.7-1.4,1-3.3.6-4.2-.8,0,0,0,0,0,0-1.1-1.2-.9-3.1.3-4.1,0,0,0,0,.1,0,.5-.4,1.2-.6,1.8-.5l-1.8-2.3,1.4-1.1h0Zm1.8,5.4c-.4-.6-1.3-.8-1.9-.4,0,0,0,0-.1,0-.6.4-.8,1.2-.4,1.9,0,0,0,0,.1.1.4.6,1.3.8,1.9.4,0,0,0,0,.1,0,.6-.4.8-1.2.4-1.9,0,0,0,0-.1-.1h0Z"/><path d="m190.7,326.1l2.2,5.6-1.7.6-.2-.6c-.3.6-.8,1.1-1.4,1.4-1.6.5-3.3-.3-3.8-1.9-.7-1.5,0-3.3,1.4-4,0,0,0,0,0,0,.6-.3,1.3-.3,1.9,0l-.2-.6,1.7-.6h.2Zm-.6,3.4c-.3-.7-1.2-1-1.9-.7-.7.3-1,1.2-.7,1.9.3.7,1.1,1,1.8.7.7-.3,1.1-1.1.8-1.8,0,0,0,0,0-.1Z"/><path d="m199.8,328c.2,1.6-.9,3.1-2.5,3.4,0,0,0,0,0,0-.7,0-1.3-.1-1.8-.6v.6l-1.8.2-.7-8.4,1.8-.2.2,3c.4-.5,1.1-.9,1.8-.9,1.6-.2,3,1.2,3.1,3Zm-1.8.2c0-.7-.6-1.4-1.3-1.4,0,0-.1,0-.2,0-.7,0-1.3.6-1.3,1.3,0,0,0,.2,0,.3,0,.7.6,1.4,1.3,1.4,0,0,.1,0,.2,0,.8,0,1.3-.7,1.3-1.4,0,0,0-.1,0-.2h0Z"/><path d="m201.6,322.6l1.8.2-1,8.7-1.8-.2,1-8.7Z"/><path d="m206.7,331c.4.1.8.1,1.2,0l1.1,1.2c-.8.6-1.9.8-2.9.4-1.7-.5-2.7-2.2-2.3-3.9,0,0,0,0,0,0,.5-1.7,2.2-2.6,3.9-2.1,0,0,0,0,.1,0,1.6.5,2.5,2.2,2,3.8,0,0,0,.1,0,.2,0,.2-.1.5-.3.6l-4.1-1.3c0,.6.5,1.2,1.2,1.2h.1Zm1.7-1.8c0-.8-.7-1.4-1.4-1.3-.4,0-.8.2-1.1.5l2.5.8Z"/><path d="m222,332.4l-5.4,6.5-1.4-1.1.4-.4c-.7.1-1.3,0-1.8-.6-1.1-1.4-.9-3.4.4-4.5,1-.9,2.5-1,3.6-.3.5.4.9,1,.9,1.7l1.9-2.2,1.4,1.1v-.2Zm-4.9,3c.5-.6.5-1.5,0-2,0,0,0,0,0,0-.5-.5-1.3-.5-1.8,0,0,0-.1.1-.2.2-.5.6-.5,1.5,0,2,0,0,0,0,0,0,.5.5,1.3.5,1.8,0,0,0,.1-.1.2-.2h0Z"/><path d="m221.8,335.8l1.1,1.4-4.7,3.8-1.1-1.4,4.7-3.8Zm1.1-1.1c.5-.4,1.1-.3,1.5.2.4.5.3,1.1-.2,1.5-.5.4-1.1.3-1.5-.2-.4-.4-.3-1.1.1-1.5,0,0,0,0,0,0Z"/><path d="m222.7,344.9c-1.2.6-2.3,0-3-1.2-.6-.9-.6-2.1,0-3l1.5,1c-.3.3-.4.8,0,1.2.2.4.4.5.6.4.6-.3-1.2-2.7.6-3.8,1.1-.6,2.2,0,2.9,1.1.5.8.5,1.8,0,2.6l-1.4-1c.2-.3.2-.7,0-1-.2-.2-.3-.4-.6-.2-.6.3,1.3,2.7-.7,3.8h0Z"/><path d="m225.9,351.7c-1.6.5-3.3-.3-3.8-1.9-.2-.6-.1-1.4.2-1.9l-2.9.8-.5-1.8,8.1-2.2.5,1.8-.6.2c.6.3,1,.9,1.2,1.5.4,1.6-.7,3.2-2.3,3.6,0,0,0,0,0,0h0Zm-.5-1.8c.7-.1,1.2-.8,1.1-1.6,0,0,0-.1,0-.2-.2-.7-.9-1.2-1.6-1,0,0-.1,0-.2,0-.7.1-1.2.8-1.1,1.6,0,0,0,.1,0,.2.2.7.9,1.2,1.6,1,0,0,.1,0,.2,0h0Z"/><path d="m231.6,352.6v1.8l-8.6.6v-1.8l8.6-.6Z"/><path d="m228.2,362.7l-5.9-.8.2-1.8h.6c-.4-.5-.6-1.1-.5-1.8.3-1.6,1.9-2.7,3.5-2.4,1.6.1,2.9,1.5,2.7,3.2,0,0,0,0,0,.1,0,.7-.4,1.3-1,1.7h.6l-.2,1.8h0Zm-2.7-2.2c.8.2,1.5-.3,1.7-1.1,0,0,0,0,0-.1.1-.8-.4-1.5-1.2-1.6,0,0,0,0-.1,0-.8-.2-1.5.3-1.7,1.1,0,0,0,0,0,.1-.2.7.3,1.4,1,1.6,0,0,.2,0,.3,0h0Z"/><path d="m225.3,370.2l-4.6-4.2c-1.5-1.4-1.8-2.6-1-4.2l1.5.6c-.4.6-.2,1.3.3,1.8h6.2l-.8,1.8-3.9-.2,3,2.5-.7,1.8h0Z"/><circle class="cls-3" cx="308.3" cy="77.7" r="36"/><path class="cls-26" d="m321.8,65.3h.2c2.6-.1,4.7,1.8,4.9,4.4,0,0,0,.2,0,.2v30.2c0,2.2-1.4,4.1-3.5,4.6-.5,0-1,.2-1.4.2h-.2c0-.2-.2-.2-.2,0h-1c0-.3.3-.2.5-.3,1.7-.7,2.8-2.3,2.9-4.2v-30.7c0-1.8-1.2-3.4-2.9-4.1-.2,0-.5,0-.5-.3h1c0,0,.2,0,.2,0Z"/><path class="cls-12" d="m320.7,65.3c0,.3.3.2.5.3,1.7.7,2.8,2.3,2.9,4.1v30.7c0,1.8-1.2,3.4-2.9,4.2-.2,0-.5,0-.5.3h-25.8c-.5,0-.9,0-1.4-.2-2.2-.5-3.7-2.5-3.6-4.7v-29.7c-.1-2.6,1.8-4.7,4.4-4.9.2,0,.3,0,.5,0h25.8Zm2.6,16.4v-11c0-.9-.7-1.7-1.7-1.8h-26.2c-1,0-1.8.9-1.8,1.8v28.4c-.1,1,.7,2,1.7,2.1.1,0,.3,0,.4,0h25.4c1.5,0,2.2-.6,2.2-2.2v-17.4h0Z"/><path class="cls-12" d="m321.6,104.9c0,0,.2,0,.2,0h-.2Z"/><path class="cls-12" d="m321.8,65.3c0,0-.2,0-.2,0h.2Z"/><path class="cls-39" d="m319,101.3h-23.3c-1,.1-2-.6-2.1-1.6,0-.2,0-.3,0-.5v-17.5h26.6v17.2c0,1.1-.2,1.9-1.3,2.3h0Zm-5.5-11.8h-2.2c-.9,0-1.7.6-1.8,1.4,0,0,0,.1,0,.2,0,.9.7,1.7,1.7,1.8,0,0,0,0,0,0h5.1c.9,0,1.7-.8,1.7-1.7,0,0,0,0,0,0,0-.9-.7-1.6-1.6-1.6,0,0,0,0,0,0h-2.9,0Zm-10.7-4.2h-1.8c-.7,0-1,.2-1.1,1l-.7,4.3c-.1.4,0,.8.3,1.1.3.3.7.2,1.1,0,.6-.3,1.3-.4,1.9-.3,1.3.2,2.1,1.4,2,2.7-.2,1.3-1.4,2.1-2.7,2-1-.1-1.7-.9-1.9-1.8-.2-.7-.6-1-1.2-.9-.5.2-.8.8-.6,1.3.5,2.2,2.6,3.6,4.8,3.2,2.3-.4,3.9-2.5,3.5-4.8s-2.5-3.9-4.8-3.5h0q-.5,0-.4-.5c.2-.5.2-1.1.2-1.7,0-.3.2-.4.5-.4h2.8c.6,0,1-.3,1-.9s-.3-.9-1-.9h-1.9v.2Zm10.1-.2h-2.2c-.5,0-1,.3-1,.8,0,0,0,0,0,0,0,.5.4,1,1,1h4.6c.5,0,.9-.3,1-.8,0,0,0-.1,0-.2,0-.6-.4-.9-1-.9h-2.2Zm1.2,11.9c0,.5.4,1,1,1,.5,0,1-.5,1-1,0-.5-.4-.9-1-1-.5,0-.9.4-1,.9,0,0,0,0,0,0h0Zm-2.3,0c0-.5-.4-1-1-1-.5,0-1,.4-1,1,0,.5.4,1,1,1,.5,0,1-.4,1-.9,0,0,0,0,0-.1h0Z"/><path class="cls-8" d="m320.3,81.7h-26.6c0-1.8,0-3.5,0-5.3h2.1c1.4.2,2.3-.2,2.9-1.5.2-.5.4-.3.6,0,.6,1.1,1.4,2.2,2,3.4.2.4.6.7,1,.7.5,0,.7-.4.9-.8.4-1,.9-2,1.4-3,.2.3.5.6.6.9.2.4.6.6,1,.6h8.6c.5.4.9.9,1.4,1.3.2.3.7.3,1,0,0,0,0,0,0,0,.6-.7,1.4-1.4,2-2,.6-.5.7-1.3.3-2-.4-.6-1.2-.8-1.8-.5-.6.3-1.3.3-1.9,0-1.2-.4-2,0-2.2,1.4h-6.3c-.4,0-.8-.2-1-.6-.2-.5-.6-.9-.9-1.4-.2-.4-.6-.6-1-.6-.4,0-.6.4-.8.7-.4,1-.8,2-1.3,3-.2-.2-.3-.4-.4-.6l-1.9-3.1c-.2-.4-.8-.6-1.2-.4-.2,0-.3.2-.4.4-.4.6-.8,1.2-1.2,1.8-.1.2-.4.4-.6.3h-2.7v-3.7c0-1,.8-1.8,1.7-1.8,0,0,0,0,0,0h23.6c.9.3,1.5,1.3,1.3,2.3v10.4h0Z"/><path class="cls-8" d="m319,101.3c1.1-.4,1.4-1.2,1.3-2.3v-17.2h3v17.4c0,1.5-.6,2.2-2.2,2.2h-2.1Z"/><path class="cls-80" d="m314.7,76.5h-8.6c-.4,0-.8-.2-1-.6-.2-.3-.4-.6-.6-.9-.5,1-.9,2.1-1.4,3-.2.4-.4.8-.9.8-.5,0-.9-.3-1-.7-.6-1.1-1.4-2.2-2-3.4-.2-.3-.4-.5-.6,0-.6,1.4-1.5,1.7-2.9,1.5-.7,0-1.4,0-2.1,0v-1.9h2.7c.3,0,.5,0,.6-.3.4-.6.8-1.3,1.2-1.8.2-.4.8-.6,1.2-.4.2,0,.3.2.4.4l1.9,3.1c0,.2.2.3.4.6.5-1,.9-2.1,1.3-3,.2-.4.4-.7.8-.7.4,0,.8.2,1,.6.3.4.6.9.9,1.4.2.4.6.6,1,.6h6.3c0,.8.8,1.2,1.3,1.8h0Z"/><path class="cls-84" d="m323.2,81.7h-3v-10.4c0-1.1-.2-1.8-1.3-2.3h2.6c.9,0,1.7.8,1.7,1.7,0,0,0,0,0,0v11Z"/><path class="cls-78" d="m302.7,85.3h1.9c.6,0,1,.3,1,.9s-.3.9-1,.9h-2.8c-.2,0-.4,0-.5.4,0,.6-.1,1.1-.2,1.7,0,.4,0,.5.4.5,2.2-.3,4.2,1.1,4.6,3.3.5,2.3-1,4.5-3.3,5,0,0,0,0,0,0-2.2.4-4.3-1-4.8-3.2-.2-.6,0-1.2.6-1.3s1,.2,1.2.9c.2,1.2,1.3,2,2.5,1.8,1.1,0,2-.9,2.2-2,.2-1.2-.6-2.4-1.9-2.6,0,0,0,0-.1,0-.7,0-1.3,0-1.9.3-.3.2-.8.2-1.1,0-.4-.2-.4-.6-.3-1.1l.7-4.3c.2-.7.4-1,1.1-1h1.8v-.2Z"/><path class="cls-27" d="m313.7,92.9h-2.6c-1,0-1.7-.7-1.8-1.7,0,0,0,0,0,0,0-.9.7-1.6,1.6-1.6,0,0,.1,0,.2,0h2.2c0,0,.2,0,.2.2.8.4,1.2,1.4.8,2.2-.1.3-.3.5-.6.7,0,0-.2.2-.2.3h0Z"/><path class="cls-78" d="m312.7,85.1h2.2c.6,0,1,.3,1,.9,0,.5-.3.9-.8,1,0,0-.1,0-.2,0h-4.6c-.5,0-1-.4-1-1,0-.5.5-.9,1-.9,0,0,0,0,0,0h2.2Z"/><path class="cls-5" d="m313.7,92.9c0-.2,0-.2.2-.3.8-.5.9-1.6.4-2.3-.2-.2-.4-.4-.7-.6,0,0-.2,0-.2-.2h2.7c.9,0,1.6.6,1.7,1.5,0,0,0,0,0,0,0,.9-.6,1.7-1.5,1.8,0,0,0,0-.1,0h-2.5,0Z"/><path class="cls-80" d="m313.9,97.1c0-.5.4-.9.9-1,0,0,0,0,0,0,.5,0,.9.4,1,1,0,.5-.5,1-1,1-.5,0-.9-.5-1-1h0Z"/><path class="cls-80" d="m311.5,97c0,.5-.4,1-1,1s-1-.4-1-1h0c0-.5.4-1,1-1s1,.4,1,1h0Z"/><path class="cls-112" d="m314.7,76.5c-.4-.6-1.1-1-1.3-1.8,0-1.3.9-1.8,2.2-1.4.6.2,1.3.2,1.9,0,.7-.3,1.6,0,1.9.7.3.6.1,1.3-.4,1.8-.6.7-1.4,1.4-2,2-.2.3-.7.3-1,0,0,0,0,0,0,0-.4-.5-.9-.9-1.4-1.3h0Z"/><path d="m275.5,74.1l9,.4v2.1l-3.7-.2-.2,2.8,3.5.2v2.1l-9-.4v-2.1l3.5.2.2-2.8-3.4-.2v-2.1h.2Z"/><path d="m284.3,70.1c.2-.4.2-.9,0-1.4l1.4-1.1c.6.9.7,2,.3,3-.5,1.8-2.3,2.8-4.1,2.3-.1,0-.2,0-.3-.1-1.7-.6-2.6-2.5-2-4.2s2.5-2.6,4.2-2h0c.2,0,.5.2.7.3l-1.5,4.2c.7,0,1.2-.5,1.4-1.1h0Zm-1.8-1.9c-.6,0-1.2.4-1.4,1-.2.6,0,1.3.5,1.7l1-2.6h0Z"/><path d="m285.6,58.2l5.2,3.8-1.1,1.5-.5-.3c.1.7,0,1.4-.5,2-1.1,1.4-3.1,1.6-4.5.5,0,0,0,0,0,0-1.5-1-1.9-3-1-4.5.4-.6,1-1,1.8-1.1l-.5-.3,1.1-1.5Zm1.4,3.4c-.6-.5-1.5-.4-2.1.2,0,0,0,0,0,.1-.5.6-.4,1.5.2,2,0,0,.1.1.2.1.6.5,1.5.4,2.1-.2,0,0,0,0,0-.1.5-.6.4-1.5-.2-2,0,0-.1-.1-.2-.1h0Z"/><path d="m285.5,54.5l1.4-1.3,6.2,7-1.4,1.3-6.2-7Z"/><path d="m293.5,54.3l1.2,1.9c.3.5.7.2,1.4-.2l1,1.4c-2,1.6-3,1.4-4-.2l-1.2-1.9-.9.6-1-1.5.9-.6-.6-1,1.3-1.5,1,1.5,1.1-.7,1,1.5-1.1.7Z"/><path d="m302,51.3l1.3,3.7-1.8.6-1.2-3.4c-.1-.6-.7-.9-1.3-.8,0,0-.1,0-.2,0-.6.2-1,.9-.8,1.6,0,0,0,0,0,0l1.2,3.3-1.8.6-3-8.5,1.8-.6,1,3c.2-.7.8-1.2,1.4-1.4,1.2-.5,2.6.2,3,1.4,0,0,0,.2,0,.3h0Z"/><path d="m316.8,51.6l-.5,3.9-1.9-.2.5-3.8c0-.6-.2-1-.8-1.1s-1,.3-1.1,1l-.5,3.6-1.9-.2.5-3.8c0-.6-.2-1.1-.8-1.1s-1,.3-1.1,1l-.5,3.6-1.9-.2.8-6.3,1.9.2v.6c.8-.8,2.2-.8,3,0,.1.1.2.3.3.4.5-.5,1.2-.8,1.9-.6,1.3.1,2.3,1.3,2.1,2.6,0,.1,0,.2,0,.3h0Z"/><path d="m318,52.9c.9-1.7,2.9-2.3,4.6-1.4,1.7.9,2.3,2.9,1.4,4.6-.9,1.7-2.9,2.3-4.6,1.4,0,0,0,0,0,0-1.6-.8-2.3-2.8-1.5-4.5,0,0,0,0,0,0Zm4.3,2.2c.4-.7.2-1.5-.5-1.9,0,0-.1,0-.2,0-.7-.4-1.5-.2-1.9.5,0,0,0,0,0,.1-.4.7-.2,1.5.5,1.9,0,0,.1,0,.2,0,.7.4,1.5.2,1.9-.5,0,0,0,0,0-.1h0Z"/><path d="m330.2,60.6l-2.7,2.9-1.4-1.3,2.5-2.6c.4-.4.5-1.1,0-1.5,0,0,0,0,0,0-.5-.5-1.1-.5-1.8.2l-2.4,2.6-1.4-1.3,4.4-4.6,1.4,1.3-.4.4c.7,0,1.4.2,1.8.7,1,.9,1.1,2.5.1,3.5,0,0,0,0-.1.1v-.2Z"/><path d="m333.1,60.6l1.1,1.6-5.3,3.7-1.1-1.6,5.3-3.7Zm1.3-1.1c.5-.4,1.2-.2,1.6.3.4.5.2,1.2-.3,1.6-.5.4-1.2.2-1.6-.3-.3-.5-.2-1.2.3-1.6Z"/><path d="m334.7,66.9l-2,1c-.5.2-.3.7,0,1.4l-1.6.8c-1.4-2.2-1-3.1.6-3.9l2-1-.5-1,1.7-.8.5,1,1.1-.6,1.4,1.4-1.6.8.6,1.2-1.7.8-.6-1.2Z"/><path d="m334.5,69.4c1.8-.4,3.6.7,4.1,2.6.5,1.8-.6,3.6-2.4,4,0,0-.1,0-.2,0-1.8.4-3.6-.7-4.1-2.6-.4-1.8.7-3.6,2.5-4.1,0,0,0,0,0,0Zm1.1,4.7c.8-.1,1.3-.8,1.2-1.6,0,0,0-.1,0-.2-.2-.8-1-1.3-1.8-1.1,0,0,0,0,0,0-.8.1-1.3.8-1.2,1.6,0,0,0,.1,0,.2.2.8,1,1.3,1.8,1.1,0,0,0,0,0,0h0Z"/><path d="m339.3,81.3h-2.2c.2-.8-.2-1.6-1-1.9-.2,0-.3,0-.5,0h-2.9v-1.9h6.4v1.9h-1.1c.8.3,1.3,1.1,1.3,1.9h0Z"/><path d="m333.6,86.8c-1.4-.3-1.8-1.7-1.5-3,.1-1.1.9-2.1,2-2.4l.6,1.8c-.5,0-.9.4-1,.9,0,.5,0,.7.2.7.7.2,1-3,3.1-2.6,1.4.2,1.8,1.6,1.5,2.9-.2,1-.9,1.8-1.8,2.2l-.6-1.8c.4,0,.7-.3.7-.7,0-.3,0-.6-.2-.6-.7-.2-.9,3-3.2,2.6h.2Z"/><circle class="cls-3" cx="344.7" cy="255.7" r="36"/><path class="cls-57" d="m371.5,248v25c-.3.7-1,1.3-1.8,1.4h-3.7c-.6,0-1.2,0-1.8,0h-2.8c-.5,0-1,0-1.5,0h-7.5c-.6,0-1.2,0-1.8,0h-11c-.6,0-1.2,0-1.8,0h-2.8c-.5,0-1,0-1.5,0h-7.6v-27.8h43.7c1-.1,2,.5,2.4,1.4h-.2Zm-36,12.5h0v2.8c0,2,1.7,3.7,3.7,3.7,2,0,3.7-1.6,3.7-3.7v-1.8c0-.7-.3-1-1-1h-1.5c-.6,0-1.1.3-1.1.9,0,0,0,0,0,0,0,.6.4.9,1.1.9s.7,0,.7.7c0,1-.7,1.9-1.7,1.9-1,0-1.8-.7-1.9-1.6v-5.5c0-.4,0-.7.2-1,.5-.9,1.6-1.2,2.5-.7.6.3.9.9,1,1.6,0,.6.5,1,1,1,.5,0,.9-.6.8-1.1,0,0,0,0,0,0-.1-2-1.8-3.6-3.8-3.5-1.9.1-3.4,1.6-3.5,3.4v3h0Zm18.5-1.3v4c0,1.3.6,2.5,1.7,3.1,1.7,1.1,4,.7,5.1-1,.4-.6.6-1.3.6-2v-8.6c0-.4-.5-.7-.9-.6-.4,0-.8.2-.9.6v8.4c0,1-.7,1.9-1.8,1.9-1,0-1.9-.7-1.9-1.8v-8.4c0-.4-.3-.8-.6-1-.4-.1-.8,0-1,.3-.2.2-.2.5-.2.8v4.2Zm-9.2,1.3v5.5c0,.4.3.8.7,1,.4,0,.8-.1,1-.5.1-.2.1-.4,0-.6v-3.8c0-.4,0-.5.5-.5h1.5c2,0,3.6-1.6,3.6-3.6,0-1.9-1.4-3.5-3.3-3.8-1,0-1.9,0-2.9,0s-1.2.3-1.2,1.2v5.2h0Zm-16.6-8.8v1.3c0,.5.4,1,.9,1,.5,0,1-.3,1-.8,0,0,0,0,0,0v-1.5c0-.3,0-.4.4-.4h1.4c.5,0,.9-.3,1-.8,0-.5-.3-1-.8-1h-2.8c-.5,0-1,.4-1,.9v1.4h0Z"/><path class="cls-24" d="m325.4,274.3v2.7c0,.8-.4,1.4-1.1,1.8-.6.3-1.4.2-1.9-.2-.5-.4-.8-1-.7-1.7v-32.8c0-1.3.2-1.2-1.2-1.2s-2.1-.3-2.5-1.4v-.8c.3-1,1.4-1.6,2.4-1.4h2.8c1-.1,2,.6,2.2,1.6,0,.2,0,.4,0,.5v33h0Z"/><path class="cls-83" d="m321.6,259.5v12h-2.4c-.5,0-1-.2-1.3-.6v-10.8c.3-.4.8-.6,1.4-.6h2.3Z"/><path class="cls-83" d="m321.6,248.4v7.4h-2.4c-.5,0-1-.2-1.3-.6v-6.2c.3-.4.8-.6,1.4-.6h2.3Z"/><path class="cls-13" d="m335.5,260.4v-3c.2-2,1.9-3.6,4-3.4,1.8.1,3.3,1.6,3.4,3.5,0,.6-.2,1-.8,1.1s-.9-.3-1-1c0-1-.8-1.8-1.8-1.8,0,0-.1,0-.2,0-.6,0-1.2.4-1.5,1-.2.3-.2.7-.2,1v5.2c-.1,1,.6,1.9,1.6,2.1s1.9-.6,2.1-1.6c0,0,0,0,0-.1v-.3c0-.4-.2-.7-.5-.7,0,0-.1,0-.2,0-.7,0-1.1-.4-1.1-.9s.4-1,1.1-1h1.5c.7,0,1,.3,1,1v1.8c0,2-1.7,3.7-3.7,3.7-2,0-3.7-1.6-3.7-3.7v-2.8h0v-.2Z"/><path class="cls-9" d="m353.9,259.2v-4c0-.3,0-.6.2-.8.2-.3.7-.5,1-.3.4.1.7.5.6,1v8.1c0,1,.7,1.9,1.8,1.9,1,0,1.9-.7,1.9-1.8v-8.6c0-.4.5-.7.9-.6.4,0,.8.2.9.6v8.6c0,2-1.7,3.6-3.8,3.6-.7,0-1.4-.2-2-.6-1-.7-1.7-1.9-1.7-3.1v-4h.2Z"/><path class="cls-9" d="m344.7,260.4v-5.2c0-.9.3-1.2,1.2-1.2h2.9c1.9.2,3.4,1.8,3.3,3.8,0,2-1.6,3.6-3.6,3.6h-1.4c-.4,0-.5,0-.5.5v3.8c0,.2,0,.4,0,.6-.1.4-.6.6-1,.5-.4,0-.8-.4-.7-.9,0,0,0,0,0,0v-5.4h0Zm1.9-2.8v1.4c0,.3,0,.5.4.5h1.5c1,0,1.8-.8,1.8-1.8,0,0,0,0,0,0h0c0-1-.8-1.8-1.8-1.8,0,0,0,0,0,0h-1.4c-.3,0-.4.2-.4.4v1.4Z"/><path class="cls-70" d="m342.9,274.3v2.5c0,.6-.3,1.1-.9,1.2h-2.7v-3.7h3.6Z"/><path class="cls-70" d="m350.2,278h-2.6c-.5,0-1-.4-1-.9,0,0,0,0,0,0v-2.6h3.7v3.6Z"/><path class="cls-70" d="m369.7,274.3v2.5c0,.6-.3,1.1-.9,1.2h-2.7v-3.7h3.6,0Z"/><path class="cls-70" d="m332.7,278h-2.6c-.5,0-1-.4-1-.9,0,0,0,0,0,0v-2.7h3.7v3.7Z"/><path class="cls-22" d="m328.1,251.6v-1.3c0-.5.4-1,.9-1h2.8c.5,0,.9.3,1,.8,0,.5-.3,1-.8,1h-1.6c-.3,0-.4,0-.4.4v1.4c0,.5-.4,1-.9,1-.5,0-1-.3-1-.8,0,0,0,0,0,0v-1.4h0Z"/><path class="cls-34" d="m337.4,278h-2.7v-3.6h0c0,0,2.7,0,2.7,0v3.7Z"/><path class="cls-34" d="m354.9,278h-2.7v-3.7h2.7v3.6h0Z"/><path class="cls-34" d="m359.5,278h-2.7v-3.7h2.7v3.7Z"/><path class="cls-34" d="m364.1,278h-2.7v-3.6h0c0,0,2.7,0,2.7,0v3.7Z"/><path class="cls-71" d="m352.2,274.3v3.7h-1.8v-3.7c.6,0,1.2,0,1.8,0Z"/><path class="cls-71" d="m337.4,278v-3.7c.6,0,1.2,0,1.8,0v3.7h-1.8Z"/><path class="cls-71" d="m364.1,278v-3.7c.6,0,1.2,0,1.8,0v3.7h-1.8Z"/><path class="cls-71" d="m334.6,274.4v3.5h0c-.6,0-1.2,0-1.8,0v-3.7h1.8Z"/><path class="cls-71" d="m356.7,274.3v3.7h-1.8v-3.7h1.8,0Z"/><path class="cls-71" d="m361.4,274.4v3.5h0c-.6,0-1.2,0-1.8,0v-3.7h1.8Z"/><path class="cls-71" d="m356.5,274.3h-1.5c.5,0,1,0,1.5,0Z"/><path class="cls-71" d="m354.9,277.9h0c0,0,0,0,0,0Z"/><path class="cls-111" d="m346.6,257.6v-1.4c0-.3,0-.5.4-.4h1.4c1,0,1.8.8,1.8,1.8s-.8,1.8-1.8,1.8h-1.4c-.4,0-.4-.2-.4-.5v-1.4Z"/><path d="m339.4,232c1.3,2.8,0,6.1-2.8,7.3-.2,0-.3.1-.5.2-3.1,1.3-6.7,0-8.1-3.2,0,0,0,0,0-.1-1.2-3.2.4-6.8,3.6-8,1.9-.7,4-.5,5.7.7l-1.7,2.1c-1.7-1-3.8-.5-4.9,1.2-.6.9-.7,2.1-.3,3.1.7,1.8,2.6,2.7,4.7,1.8,1.3-.4,2.1-1.5,2.2-2.8l-3,1.1-.9-2.2,5.5-2.2.4,1Z"/><path d="m351,230.2c-.1,2.2-2,4-4.3,3.8,0,0,0,0,0,0h-1.8c0,0-.2,3.6-.2,3.6l-2.7-.2.6-11.8,4.5.2c2.2,0,4,1.9,3.9,4.2,0,0,0,0,0,0Zm-2.7-.2c0-.8-.5-1.5-1.4-1.6h-1.8c0,0-.2,3-.2,3h1.8c.7.1,1.4-.4,1.5-1.1,0,0,0-.1,0-.2h0Z"/><path d="m352.4,234.5l3.4-7.2,2.4,1.1-3.3,7c-.4.8-.3,1.7,1,2.2s2,0,2.4-.7l3.3-7,2.4,1.1-3.4,7.2c-1,2.3-3.4,2.9-5.8,1.8s-3.5-3.3-2.4-5.6h0Z"/><circle class="cls-3" cx="138.8" cy="49.5" r="36"/><path class="cls-106" d="m112.3,47.3c.1-.2.3-.3.6-.3h5.4v2.6c-.4.2-.6.7-.6,1.1v10.2c0,.7.3,1,1,1h3.8c.5,0,1-.2.9-1v-.4h3.7v.2c0,.9.2,1.1,1.1,1.1h3.7c.6,0,.9-.3,1-.9v-.5h3.7v.2c0,1,.2,1.1,1.1,1.1h3.4c.7,0,1-.3,1-1v-.4h3.7v.2c0,.9.2,1.1,1.1,1.1h3.7c.6,0,.9-.3,1-1v-.4h3.7v.3c0,.9.2,1,1,1h2.1c.6.2,1.3.2,1.9,0,.4,0,.6-.3.6-.8,0-.2,0-.4,0-.6h5.4v4h-54.6v-7.7c.3,0,.5-.1.7-.2,1-.3,1.7-1.3,1.8-2.3,0-1.1-.6-2.1-1.7-2.4l-.8-.2v-4.5l.6.2Z"/><path class="cls-105" d="m149.1,64.6h1.2v1.8c0,.4.3.8.7.8,0,0,0,0,0,0,.6,0,.8-.2.8-.8v-1.8h1.3v1.8c0,.6.2.9.8.9.4,0,.8-.4.8-.8,0,0,0,0,0,0v-1.8h1.3v1.8c0,.6.2,1,.8,1s.8-.3.8-1v-1.8h1.2v1.7c0,.6.3,1,.9,1s.8-.3.9-1v-1.7h1.2v1.8c0,.4.3.8.7.9.5,0,.8-.2.9-.6,0-.7,0-1.3,0-2h3.5v2.6c0,.8-.6,1.5-1.4,1.5h-51c-.9.1-1.8-.4-2.1-1.3v-3h3.7v1.8c0,.6.2,1,.8,1s.8-.3.8-1v-1.8h1.2v1.7c0,.6.3,1,.9,1s.8-.3.9-1v-1.7h1.2v1.8c0,.4.3.8.7.9.5,0,.8-.2.9-.6,0-.7,0-1.3,0-2h1.2v1.8c0,.4.3.8.7.8,0,0,0,0,0,0,.6,0,.8-.2.8-.8v-1.8h1.3v1.8c0,.6.2.9.8.9.4,0,.8-.4.8-.8,0,0,0,0,0,0v-1.8h1.2c0,.7,0,1.4,0,2.1,0,.4.4.6.7.6,0,0,0,0,0,0,.6,0,.9-.3.9-1v-1.8h1.2v1.7c0,.6.3,1,.9,1s.8-.3.9-1v-1.7h1.2v1.8c0,.4.3.8.7.9,0,0,.1,0,.2,0,.6,0,.7-.2.7-.9v-1.8h1.3v1.8c0,.6.2.8.8.8s.8-.2.8-.8v-1.8h1.3v1.8c0,.6.2.9.8.9.4,0,.8-.4.8-.8,0,0,0,0,0,0v-1.8h1.2v1.7c0,.6.3,1,.9,1s.8-.3.9-1v-1.7h1.2v1.8c0,.4.3.8.7.8,0,0,0,0,0,0,.5,0,.8-.2.9-.6,0-.7,0-1.3,0-2l-.5.2Z"/><path class="cls-110" d="m166.8,60.6h-5.4v-10.2c0-.6-.4-.8-1-.8h-3.7c-.9,0-1,.2-1,1v9.8h-3.7v-9.9c0-.7-.2-1-1-1h-3.5c-1,0-1.2.2-1.2,1.2v9.8h-3.7v-9.9c0-.8-.2-1-1-1h-3.5c-1,0-1.1.2-1.1,1.1v9.8h-3.7v-9.8c0-.8-.2-1-1-1.1h-3.8c-.7,0-1,.2-1,1v9.9h-3.7v-10c0-.5-.3-.9-.7-1,0,0-.2,0-.2,0h-4.2v-2.6h47.3c1,0,1.1,0,1.1,1v3.1c0,.3-.2.6-.5.7-1.2.2-2,1.3-2,2.5,0,1.2.8,2.2,2,2.5.3,0,.5.3.5.6v3.4Z"/><path class="cls-31" d="m118.4,49.6h2.7c-.3.3-.5.8-.4,1.2v1.1c-.6,0-.7.4-.7.9v6.1c0,.4.2.9.6.9,0,0,0,0,0,0,0,.7,0,1.4.3,2h-2.2c-.7,0-1-.3-1-1v-10.2c0-.5.2-.9.6-1.1h0Z"/><path class="cls-19" d="m158.9,49.6h1.4c.4,0,.9.2.9.6,0,0,0,.1,0,.2v10.2c-.2.2,0,.4,0,.6,0,.4-.2.8-.6.8-.6,0-1.3,0-1.9,0-.3-.6-.2-1.1-.2-1.7.5,0,.7-.3.7-.9v-6.3c0-.4-.3-.8-.7-.9,0,0,0,0,0,0v-1.2c0-.5,0-1,.4-1.4h0Z"/><path class="cls-31" d="m146.2,60.6v-9.8c0-1,.2-1.2,1.2-1.2h2.1c-.3.3-.5.8-.4,1.2v1.3c-.6,0-.8.2-.9,1v5.9c0,.7.2,1,.9,1,0,.7,0,1.3.3,1.9h-2.1c-.9,0-1.1-.2-1.1-1.1v-.2Z"/><path class="cls-31" d="m127.4,60.6v-9.9c0-.7.2-1,1-1h2.3c-.4.3-.5.8-.4,1.2v1.2c-.6,0-.9.3-.9,1v6c0,.6.3.9.9,1,0,.7-.2,1.4.3,2h-2.1c-.7,0-1.1-.2-1.1-1.1v-.2h0Z"/><path class="cls-31" d="m136.8,60.6v-9.8c0-1,.2-1.1,1.1-1.1h2c-.2.8-.3,1.6-.2,2.4-.6,0-.9.3-.9,1v6.1c0,.6.2.8.9,1,0,.6,0,1.3.2,1.9h-1.9c-1,0-1.1-.2-1.1-1.1v-.2h0Z"/><path class="cls-31" d="m158.5,60.1c0,.6,0,1.2.2,1.7h-2.1c-.9,0-1-.2-1-1v-10.2c0-.9.2-1,1-1h2.2c-.4.3-.5.9-.4,1.4v1.2c-.6,0-.9.3-.9,1v6.1c0,.6.2.8.9,1h0Z"/><path class="cls-19" d="m130.6,61.9c-.3-.6-.5-1.3-.3-2,.6,0,.8-.3.8-.9v-6.1c0-.4-.3-.8-.7-.9,0,0,0,0,0,0v-1.2c0-.4,0-.9.4-1.2h1.4c.8,0,1,.3,1,1.1v10.3c0,.6-.3.9-1,.9h-1.6Z"/><path class="cls-82" d="m149.1,52.2v-1.3c0-.4.1-.9.4-1.2h1.4c.7,0,1,.3,1,1v10.3c0,.6-.2,1-1,1h-1.6c-.3-.6-.4-1.3-.3-1.9.4,0,.8-.3.9-.7,0,0,0,0,0,0v-6.2c0-.4-.4-.8-.8-.8,0,0,0,0,0,0h0Z"/><path class="cls-82" d="m121.1,61.9c-.3-.6-.4-1.3-.3-2,.6,0,.9-.3.9-1v-6.1c0-.6-.2-.8-.9-1v-1.1c0-.4.1-.9.4-1.2h1.5c.7,0,1,.3,1,1v10.4c0,.4-.2.9-.6.9,0,0-.2,0-.3,0h-1.7,0Z"/><path class="cls-82" d="m139.7,52c-.1-.8,0-1.6.2-2.4h1.5c.8,0,1,.2,1,1v10.3c0,.7-.2,1-1,1h-1.5c-.2-.6-.3-1.3-.2-1.9.4,0,.8-.4.7-.9,0,0,0,0,0,0v-6.2c0-.4-.3-.8-.7-.9,0,0,0,0,0,0h0Z"/><path class="cls-21" d="m134.8,64.6v1.7c0,.6-.3,1-.9,1s-.8-.3-.9-1v-1.7h1.8Z"/><path class="cls-21" d="m146.2,64.6v1.7c0,.6-.3,1-.9,1s-.8-.3-.9-1v-1.7h1.8Z"/><path class="cls-21" d="m149.1,64.6v2c0,.4-.3.7-.7.7,0,0-.2,0-.2,0-.4,0-.7-.4-.7-.8v-1.8h1.6Z"/><path class="cls-21" d="m160.4,64.6v1.7c0,.6-.3,1-.9,1s-.8-.3-.9-1v-1.7h1.8Z"/><path class="cls-21" d="m120.6,64.6v1.7c0,.6-.3,1-.9,1s-.8-.3-.9-1v-1.7h1.8Z"/><path class="cls-21" d="m131.9,64.6v1.8c0,.6-.3,1-.9,1-.4,0-.7-.2-.7-.6,0,0,0,0,0,0,0-.7,0-1.4,0-2.1h1.7Z"/><path class="cls-21" d="m123.5,64.6c0,.7,0,1.3,0,2,0,.4-.4.7-.7.7,0,0,0,0-.1,0-.4,0-.8-.4-.7-.9,0,0,0,0,0,0v-1.8h1.7Z"/><path class="cls-21" d="m163.3,64.6c0,.7,0,1.3,0,2,0,.4-.4.7-.7.7,0,0,0,0-.1,0-.4,0-.8-.4-.7-.9,0,0,0,0,0,0v-1.8h1.7Z"/><path class="cls-107" d="m140.4,64.6v1.8c0,.6-.2.8-.8.8s-.8-.2-.8-.8v-1.8h1.6Z"/><path class="cls-107" d="m126.2,64.6v1.8c0,.6-.2.8-.8.8-.4,0-.8-.3-.8-.7,0,0,0,0,0,0v-1.8h1.6Z"/><path class="cls-107" d="m129.1,64.6v1.8c0,.4-.3.8-.7.9,0,0,0,0,0,0-.6,0-.8-.2-.8-.9v-1.8h1.6Z"/><path class="cls-107" d="m143.3,64.6v1.8c0,.4-.3.8-.7.9,0,0,0,0,0,0-.6,0-.8-.2-.8-.9v-1.8h1.6Z"/><path class="cls-107" d="m151.9,64.6v1.8c0,.6-.2.8-.8.8-.4,0-.8-.3-.8-.7,0,0,0,0,0,0v-1.8h1.6Z"/><path class="cls-107" d="m154.7,64.6v1.8c0,.4-.3.8-.7.9,0,0,0,0,0,0-.6,0-.8-.2-.8-.9v-1.8h1.6Z"/><path class="cls-21" d="m117.7,64.6v1.8c0,.5-.3.9-.8,1-.6,0-.8-.2-.8-1v-1.8h1.6Z"/><path class="cls-107" d="m137.5,64.6v1.8c0,.6-.2.9-.7.9s-.8-.3-.9-.9v-1.8h1.6Z"/><path class="cls-21" d="m157.5,64.6v1.8c0,.5-.3.9-.8,1-.6,0-.8-.2-.8-1v-1.8h1.6Z"/><path class="cls-6" d="m120.7,51.9c.6,0,.9.3.9,1v6.1c0,.6-.2.8-.9,1-.4,0-.8-.4-.7-.9,0,0,0,0,0,0v-6.1c0-.4.3-.8.7-.9,0,0,0,0,0,0h0Z"/><path class="cls-6" d="m158.5,60.1c-.6,0-.9-.3-.9-1v-6.1c0-.6.2-.8.9-1,.5,0,.7.3.7.9v6.3c0,.4-.3.8-.7.9,0,0,0,0,0,0h0Z"/><path class="cls-6" d="m149.1,52.2c.4,0,.8.3.9.7,0,0,0,0,0,0v6.2c0,.4-.4.8-.8.8,0,0,0,0,0,0-.6,0-.8-.2-.9-1v-5.9c0-.7.2-1,.9-1Z"/><path class="cls-6" d="m130.3,52c.6,0,.8.3.8.9v6.1c0,.4-.3.8-.7.9,0,0,0,0,0,0-.6,0-.9-.3-.9-1v-6c0-.6.3-.9.9-1h0Z"/><path class="cls-6" d="m139.7,52c.5,0,.7.3.7.9v6.2c0,.6-.3.7-.7.9-.6,0-.9-.3-.9-1v-6.1c0-.6.2-.8.9-1Z"/><path d="m118.7,34.3l.8-2.2c.8.5,1.8.4,2.5-.3.8-.7.8-1.2.6-1.5-.4-.5-1-.3-2.4.3s-3,1-4.2-.5-.7-3.4.6-4.6c1.2-1,2.9-1.3,4.3-.6l-.7,2.2c-.7-.4-1.5-.3-2.1.2-.6.5-.6,1-.3,1.3s.7.4,2.2-.2,3.1-1.3,4.5.3c1.4,1.6.8,3.4-.9,4.8-1.3,1.2-3.2,1.5-4.7.6v.2Z"/><path d="m126.8,25.3l1.1,2.3c.2.6.8.4,1.6,0l.8,1.8c-2.4,1.4-3.5,1-4.4-.8l-1.1-2.3-1,.5-.9-1.8,1-.5-.6-1.2,1.7-1.5.9,1.8,1.4-.6.9,1.8-1.4.6h0Z"/><path d="m129.7,25.5c-.4-2.1,1-4.1,3-4.5,0,0,0,0,0,0,2-.4,4,.9,4.5,2.9,0,0,0,0,0,.1.4,2.1-1,4.1-3,4.5,0,0,0,0,0,0-2,.4-4-.9-4.5-2.9,0,0,0,0,0-.1Zm5.4-1c-.2-.9-1.1-1.4-2-1.1-.9.2-1.4,1.1-1.1,2,.2.8,1,1.3,1.8,1.2.8-.1,1.4-.9,1.3-1.7,0,0,0-.2,0-.3Z"/><path d="m143.4,20.9l-.2,2.5c-.8-.4-1.8,0-2.1.8,0,.2-.1.5-.1.7l-.2,3.3-2.2-.2.5-7.2,2.2.2v1.3c.3-.9,1.2-1.4,2.2-1.3h0Z"/><path d="m152.4,23.6l-2.3,6.8-2.1-.7.2-.6c-.7.4-1.6.5-2.3.2-1.8-.8-2.7-2.9-2-4.7.7-2,2.7-3.1,4.5-2.5.8.3,1.4.8,1.8,1.5l.2-.6,2.1.7h0Zm-3.2,2.7c.4-.8,0-1.8-.9-2.2,0,0-.1,0-.2,0-.8-.3-1.8,0-2.1.9,0,0,0,.2,0,.2-.4.8,0,1.8.9,2.2,0,0,.1,0,.2,0,.8.3,1.8,0,2.1-.9,0,0,0-.2,0-.2h0Z"/><path d="m161.1,29.8l-4.2,5.4c-1.5,1.9-3.6,1.5-5.1.3-1.2-.8-1.8-2.1-1.6-3.5l2.1.3c-.1.7.2,1.4.7,1.8.5.6,1.4.6,2,0,.1,0,.2-.2.3-.3l.4-.6c-.8.2-1.6,0-2.2-.6-1.6-1.3-1.8-3.6-.6-5.1,1.3-1.6,3.6-1.8,5.1-.6.6.5,1,1.2,1,2l.5-.6,1.7,1.3h0Zm-3.8,1.4c.6-.7.5-1.8-.2-2.4-.7-.6-1.8-.5-2.4.2-.6.7-.5,1.8.2,2.4,0,0,0,0,0,0,.6.6,1.7.6,2.3,0,0,0,0-.1.1-.2Z"/><path d="m160.6,38.2c.3.4.7.7,1.2.9v2c-1.2,0-2.3-.8-2.9-1.8-1.3-1.6-.9-4,.7-5.3,0,0,.2-.1.3-.2,1.7-1.2,3.9-.8,5.1.9,0,0,.1.2.2.2,1.1,1.7.6,3.9-1,5,0,0-.1,0-.2.1-.2.2-.5.3-.8.4l-2.8-4.2c-.4.6-.4,1.4,0,2h.2Zm2.9-.3c.5-.5.5-1.3,0-1.9-.3-.7-1.1-1-1.8-.7l1.7,2.6h0Z"/><circle class="cls-3" cx="110.3" cy="335.3" r="36"/><path class="cls-43" d="m131.9,357.2v.6c-.1.4-.4.8-.8,1l-7.7,5.3c-.7.5-1.7.3-2.1-.4,0,0,0,0,0,0-.2-.4-.6-.8-.8-1.2-.5-1-1.5-1.6-2.6-1.4-1.5.1-2.9-.6-3.7-1.9-.7-1-1.4-2.1-2.1-3.1,0-.2-.2-.3-.3-.3,0-.1,0-.3-.2-.4-.6-.9-1.1-1.7-1.7-2.6-.8-1.2-.6-2.8.6-3.7,0,0,0,0,0,0,.4-.2.7-.5,1-.8.2,0,.2.2.3.2.8,1.1,1.5,2.3,2.3,3.4l1.9,2.9c.2.3.7.4,1,.2.3-.2.4-.7.2-1,0,0,0,0,0,0,0,0,0-.2-.2-.2-2.6-3.7-5-7.4-7.6-11.1-1.6-2.4-3.3-4.8-4.9-7.2-.3-.5-.5-1-.6-1.6,0-.2.2-.5,0-.8v-.2c.9-.4,2-.1,2.6.6.5.7,1,1.4,1.5,2.1,1,1.4,1.8,2.7,2.8,4.1.3.5.6.9,1,1.4h0s0,.2,0,.2c.2.3.5.7.7,1,.2.2.6.2.9,0,.3-.2.3-.6,0-1-.4-.6-.7-1.3-.6-2,0-.2.2-.4,0-.6.9-.5,2-.2,2.6.6.1.3.3.5.6.7.2.4.4.8.7,1.2.3.2.6.3,1,.2.3-.2.4-.6.2-1-.1-.2-.2-.4-.4-.6-.4-.6-.5-1.3-.4-2v-.3c.6-.4,1.4-.4,2,0,.6.3.8.9,1.2,1.3h0c.2.4.4.8.7,1.1.2.2.6.2.9,0,.2-.2.3-.4.3-.7,0-.2-.1-.4-.2-.6-.5-.6-.7-1.3-.6-2v-.6c1-.4,2.1,0,2.6.8,1.5,2.2,3,4.4,4.5,6.6,1.2,1.8,1.9,3.9,2.2,6.1.2,1.5.2,3.1.2,4.6,0,.9.2,1.8.6,2.6v.4Zm-2.3,0c0-.3-.2-.5-.4-.6-.3-.1-.5-.1-.8,0-.8.6-1.6,1-2.4,1.6-.3.2-.5.6-.3.9,0,0,0,0,0,.1.2.3.7.4,1,.2,0,0,0,0,0,0,.8-.6,1.6-1.1,2.4-1.6.2-.1.4-.4.4-.6Zm-4.9,3.4c0-.4-.2-.7-.6-.7-.1,0-.3,0-.4,0-.3.1-.5.3-.7.5-.2.3-.3.6-.2,1,.2.3.6.4.9.2,0,0,0,0,0,0,.2-.1.4-.3.6-.5.2-.2.2-.2.2-.4h0Z"/><path class="cls-41" d="m95.9,336v-10.2c0-1,.6-1.9,1.6-2.2h2.3c.3.4.4.9.4,1.4,0,.8.5,1.5,1.3,1.5,0,0,0,0,.1,0h5.5c.8,0,1.5-.5,1.5-1.3,0,0,0-.1,0-.2,0-.5,0-1,.4-1.4h2.1c.5.1,1,.4,1.4.9.2.2.2.4.2.6-.6.6-1.3,1.2-1.8,1.8-1,1.1-2,2.2-3,3.4-.2.3-.4.6-.7.7-.8-.8-2-1.2-3.1-1-2.1.2-3.8,1.8-3.9,3.9,0,1.8.9,3.4,2.5,4.2-.3.6-.7,1.4-1,2-.8,1.5-1.5,3.1-2.2,4.6-.9,2.2-1.7,4.5-2.4,6.9-.3,1-.6,2.1-.9,3.1-.1-.3-.2-.6-.2-1v-8.3c0-.2.2-.5.3-.7.5-1.2.9-2.6,1-3.9.2-1.8,0-3.4-1.4-4.7h-.1Z"/><path class="cls-30" d="m109.1,323.5c-.3.4-.5.9-.4,1.4,0,.8-.5,1.5-1.3,1.5,0,0-.1,0-.2,0h-5.5c-.8,0-1.4-.6-1.4-1.4,0,0,0,0,0-.1,0-.5,0-1-.4-1.4h9.3Z"/><path class="cls-58" d="m108.9,323.5c0,0-.2,0-.4,0h.4Z"/><path class="cls-14" d="m96.1,354.6c.3-1,.6-2.1.9-3.1.7-2.3,1.5-4.6,2.5-6.9.6-1.6,1.4-3.1,2.2-4.6.3-.6.7-1.4,1-2,.2,0,.3.2.5.2.5.2,1.1.3,1.7.2,0,0,.2.2.2.2,1.9,2.8,3.8,5.7,5.8,8.5.3.4.6.9.9,1.4-.3.3-.7.6-1,.8-1.2.8-1.5,2.4-.7,3.6,0,0,0,0,0,0,.6.9,1.1,1.7,1.7,2.6,0,.2.2.2.2.4-.6.3-1.1.2-1.7.2h-11.8c-.9,0-1.8-.5-2.1-1.4h0Zm8.3-.7h2.6c.6,0,.9-.2.9-.7s-.3-.7-.9-.7h-5.3c-.6,0-.9.2-.9.7s.3.7.9.7h2.6Z"/><path class="cls-35" d="m107.2,330.9c.4,0,.5-.4.7-.7,1-1.2,1.9-2.3,3-3.4.6-.6,1.2-1.2,1.8-1.8.1.3.2.6.2,1v13c-.4.3-.7.8-.8,1.3,0,.4,0,.7,0,1.1-.4-.4-.7-.9-1-1.4-1-1.4-1.8-2.7-2.8-4.1.3-.5.4-1,.4-1.6,0-1.3-.5-2.5-1.4-3.3h0Z"/><path class="cls-55" d="m107.2,330.9c.9.8,1.5,2,1.4,3.3,0,.6-.1,1.1-.4,1.6-.5-.7-1-1.4-1.5-2.1-.6-.8-1.7-1.1-2.6-.6-.2,0-.4.2-.5.4h0s0,0,0,0h0s0,0,0,0h0s0,0,0,0h0c-.5.4-.6,1-.5,1.6,0,.4.1.7.4,1,.5.7,1,1.4,1.4,2.1-.6.1-1.1,0-1.7-.2-.2,0-.3,0-.5-.2-2.1-1-3.1-3.5-2.1-5.6.6-1.4,2-2.4,3.6-2.5,1.1,0,2.3.3,3.1,1h0Z"/><path class="cls-92" d="m104.7,338.3c-.5-.7-1-1.4-1.4-2.1-.2-.3-.4-.6-.4-1,0-.6.2-1.1.5-1.6h.2c0,0,0-.2,0-.2h0c.2,0,.3-.2.5-.2,0,.2,0,.5,0,.8,0,.6.2,1.1.6,1.6,1.6,2.4,3.3,4.8,4.9,7.2,2.6,3.7,5,7.4,7.6,11.1,0,0,.2.2.2.2.2.3.2.8-.1,1,0,0,0,0,0,0-.4.2-.8,0-1-.2l-1.9-2.9c-.8-1.1-1.5-2.3-2.3-3.4,0-.2-.2-.2-.3-.2-.3-.5-.6-.9-.9-1.4-1.9-2.8-3.8-5.7-5.8-8.5,0,0-.2-.2-.2-.2h0Z"/><path class="cls-85" d="m129.6,357.1c0,.3-.2.5-.4.6-.8.6-1.6,1.1-2.4,1.6-.3.2-.8.1-1-.2-.2-.3-.1-.8.2-1,0,0,0,0,0,0,.8-.6,1.6-1.1,2.4-1.6.2-.2.6-.2.8,0,.2.2.4.3.4.6Z"/><path class="cls-60" d="m120.6,338.9c-.1-.6,0-1.2.2-1.8.2-.4.6-.7,1-.9v.6c0,.7.1,1.4.6,2,.2.1.2.3.2.6,0,.3,0,.6-.3.7-.3.2-.6.2-.9,0-.3-.3-.6-.7-.7-1.1h0v-.2Z"/><path class="cls-60" d="m116.4,340.1c-.3-1,.1-2,1-2.5,0,0,0,.2,0,.3-.2.7,0,1.4.4,2,.2.2.2.4.4.6.2.3.1.8-.2,1s-.8.1-1-.2c-.3-.4-.6-.8-.7-1.2h0Z"/><path class="cls-92" d="m112,341.3v-1.1c.2-.5.4-.9.8-1.3.1,0,.2,0,.3-.2.2.2,0,.4,0,.6,0,.7.2,1.4.6,2,.3.3.3.8,0,1-.2.2-.6.2-.9,0-.3-.3-.5-.6-.7-1,0,0,0-.2,0-.2h0Z"/><path class="cls-85" d="m124.7,360.4c0,.2,0,.3-.2.4-.2.2-.4.4-.6.5-.3.2-.7.2-.9-.1,0,0,0,0,0,0-.2-.3-.1-.7.2-1l.7-.5c.3-.2.7,0,.9.2,0,.1,0,.3,0,.4h0Z"/><path class="cls-115" d="m104.1,333.2c-.2,0-.3.2-.5.2,0-.2.3-.3.5-.4v.2Z"/><path class="cls-35" d="m112,341.3c0,0,0,.1,0,.2,0,0,0,0,0-.2Z"/><path class="cls-67" d="m96.1,354.6c.3.9,1.2,1.4,2.1,1.4h11.8c-.8,1.1-1.8,2-3,2.7-.2,0-.2.2-.4.2-.6.3-.9.9-.8,1.5v2.5c0,.8-.7,1.5-1.5,1.5h-8.2c-.8,0-1.4-.5-1.5-1.3,0,0,0-.2,0-.3v-2.4c-.2-.8-.5-1.5-1-2.2-.6-.8-1-1.7-1.7-2.5-.5-.8-.8-1.7-.8-2.6,0-1.8.2-3.7.2-5.5v-2.6c0-1.2.2-2.4.6-3.4.7-1.5,1.1-3,1.3-4.6,0-.8.7-1.4,1.5-1.3.1,0,.2,0,.3,0,.7.9,1.1,2,1.1,3.1,0,1.1-.2,2.2-.5,3.2-.2,1-.6,2-1,2.9-.2.4,0,.8.3,1,.3.2.8.1,1-.2,0,0,0,0,0,0,0,0,0-.2.2-.2v8.3c0,.3,0,.7.2,1h0Zm5.8,6.3h-1c-.4,0-.8.2-.8.6s.2.8.6.8c0,0,.1,0,.2,0h1.9c.4,0,.7-.3.7-.7s-.3-.7-.7-.7h-1Zm-4.2,1.4c.2,0,.4,0,.6,0,.3-.1.5-.5.4-.8-.1-.3-.4-.6-.8-.6-.5,0-1,0-1.2.5v.2c0,.6.3.8,1,.8Z"/><path class="cls-92" d="m95.9,345.3c0,0,0,.2-.2.2-.2.4-.7.5-1,.3-.4-.2-.5-.6-.4-.9,0,0,0,0,0,0,.5-.9.8-1.9,1.1-2.9.3-1,.4-2.1.5-3.2,0-1.1-.4-2.3-1.1-3.1.4,0,.8.2,1.1.4,1.4,1.3,1.5,3,1.4,4.7-.1,1.4-.5,2.7-1,3.9,0,.2-.2.5-.3.7h0Z"/><path class="cls-64" d="m104.4,353.9h-2.6c-.6,0-.9-.2-.9-.7s.3-.7.9-.7h5.3c.6,0,.9.3.9.7s-.3.7-.9.7h-2.6Z"/><path class="cls-115" d="m103.5,333.7c-.3.5-.4,1-.5,1.6-.2-.6,0-1.2.5-1.6Z"/><path class="cls-85" d="m101.9,360.9h.9c.4,0,.8.2.8.6s-.2.8-.6.8c0,0-.1,0-.2,0h-1.9c-.4,0-.7-.3-.7-.7s.3-.7.7-.7h1,0Z"/><path class="cls-85" d="m97.7,362.4c-.8,0-1.1-.2-1-.8v-.2c.2-.5.7-.5,1.2-.5.4,0,.7.2.8.6.1.3,0,.7-.4.8,0,0,0,0,0,0-.2,0-.4,0-.6,0Z"/><path d="m81.9,324l-.6,2.1,6.2,2-.6,1.8-6.2-2-.6,2.1-1.8-.6,1.9-5.9,1.8.6h0Z"/><path d="m85.2,325.4c-1.5-.9-2-2.8-1.1-4.3.9-1.5,2.8-2,4.3-1.1,1.5.9,2,2.8,1.1,4.3-.9,1.5-2.8,2-4.3,1.1,0,0,0,0,0,0Zm2.3-3.9c-.7-.4-1.5,0-1.9.6-.4.7,0,1.5.6,1.9.7.3,1.5.1,1.8-.5.4-.6.2-1.5-.4-1.9,0,0,0,0,0,0h0Z"/><path d="m91.2,312.9l4.2,4.3-1.3,1.3-.4-.4c0,.6-.2,1.3-.7,1.7-.9.9-2.3.9-3.1,0,0,0-.2-.2-.2-.3l-2.6-2.6,1.3-1.3,2.4,2.5c.3.4.9.5,1.3.2,0,0,.2-.1.2-.2.5-.4.5-1.1.1-1.5,0,0,0,0-.1-.1l-2.2-2.3,1.3-1.3h0Z"/><path d="m94.3,314.2c-.8-1.6-.2-3.5,1.3-4.3.9-.5,2-.5,3,0l-.9,1.6c-.4-.2-.9-.2-1.4,0-.7.4-.9,1.3-.5,1.9.3.6,1.1.9,1.7.6,0,0,0,0,.1,0,.5-.2.7-.7.6-1.2h1.9c0,1.1-.6,2.2-1.6,2.7-1.5.9-3.3.4-4.2-1,0,0,0-.1,0-.2h0Z"/><path d="m105.7,308.8l1,3.5-1.8.5-.9-3.3c0-.5-.5-.9-1.1-.8,0,0-.1,0-.2,0-.6.2-1,.6-.7,1.5l.9,3.2-1.8.5-2.2-8.1,1.8-.5.8,2.9c.3-.6.8-1,1.4-1.1,1.2-.3,2.4.3,2.7,1.5,0,.1,0,.2,0,.3v-.2Z"/><path d="m117.3,304.5l-1,8.3-1.8-.2v-.6c-.5.5-1.1.6-1.8.5-1.6-.2-2.6-1.8-2.5-3.5.1-1.6,1.6-2.9,3.2-2.8.7,0,1.3.4,1.7,1l.4-3,1.8.2h0Zm-2.5,5.1c.1-.7-.3-1.4-1.1-1.6,0,0,0,0-.1,0-.8-.1-1.5.4-1.6,1.2,0,0,0,0,0,.1-.1.7.3,1.4,1.1,1.6,0,0,0,0,.1,0,.8.1,1.5-.4,1.6-1.2,0,0,0,0,0-.1Z"/><path d="m119,307.5l1.7.6-1.9,5.7-1.7-.6,1.9-5.7Zm.3-1.6c.2-.6.8-.9,1.4-.7.6.2.9.8.7,1.4-.2.6-.8.9-1.4.7-.6-.2-.9-.8-.7-1.4h0Z"/><path d="m124.7,314.6c-.6,1.2-2,1.2-3.1.6-1-.4-1.6-1.4-1.6-2.5h1.8c0,.4.2.8.6,1,.4.2.6.2.7,0,.3-.6-2.5-1.7-1.5-3.5.6-1,1.9-1.3,2.9-.7,0,0,0,0,0,0,.9.4,1.4,1.3,1.4,2.2h-1.8c0-.3-.2-.7-.5-.8-.2-.2-.5-.2-.6,0-.3.6,2.5,1.6,1.4,3.5h.2Z"/><path d="m131.1,318.5c-1,1.3-2.8,1.5-4.1.5,0,0-.1,0-.2-.1-.5-.4-.8-1.1-.8-1.8l-2,2.2-1.4-1.2,5.6-6.2,1.4,1.2-.4.4c.7,0,1.3.2,1.8.6,1.2,1.1,1.2,3,0,4.2,0,0,0,0,0,0v.2Zm-1.4-1.2c.6-.5.6-1.4,0-2,0,0,0,0,0,0-.5-.5-1.4-.5-1.9,0,0,0,0,.1-.1.2-.6.5-.6,1.4,0,2,0,0,0,0,0,0,.5.5,1.4.5,1.9,0,0,0,0-.1.1-.2Z"/><path d="m136.3,316.1l1,1.4-7,5.2-1-1.4,7-5.2Z"/><path d="m139,326.5l-5.4,2.6-.7-1.6.5-.2c-.6-.2-1.2-.7-1.4-1.3-.6-1.5,0-3.2,1.6-3.9,0,0,0,0,.1,0,1.5-.8,3.3-.2,4.1,1.3.3.6.3,1.3,0,1.9l.5-.2.7,1.6h0Zm-3.4-.4c.7-.3,1.1-1.2.7-1.9,0,0,0,0,0,0-.3-.7-1.1-1-1.8-.7,0,0,0,0-.1,0-.7.3-1.1,1.2-.7,1.9,0,0,0,0,0,0,.3.7,1.1,1,1.8.7,0,0,0,0,.1,0Z"/><path d="m140.6,334.5l-6.1-1c-2-.3-3-1.3-3.1-3l1.7-.3c.2.8.5,1.2,1.2,1.3l5.2-3.4.3,1.9-3.4,1.9,3.8.5.3,1.9v.2Z"/><circle class="cls-3" cx="294.2" cy="329.8" r="36"/><path class="cls-40" d="m283.1,335.4v-15.7c0-1.2.2-1.5,1.4-2h.2c0,.2.2,0,.4,0h15.4c.9,0,1.5.8,1.4,1.7v35.8c0,.8-.4,1.5-1.1,1.8h-15.8c-1,0-1.8-.6-1.9-1.6,0-.1,0-.2,0-.3v-19.6Zm13,16.5h2.7c.5,0,.8-.3.9-.8v-27.6c0-.4-.4-.8-.9-.8h-9.7c-.5,0-.9.4-1,.9,0,0,0,0,0,0v27.3c0,.5.4.9.9,1,0,0,0,0,0,0h7Z"/><path class="cls-20" d="m300.7,356.9c.7-.3,1.1-1,1.1-1.8v-35.8c0-.8-.6-1.6-1.4-1.7h3.1c.9.3,1.4,1.2,1.3,2.2v35.4c0,.9-.6,1.7-1.5,1.8-.1,0-.2,0-.3,0h-2.2v-.2Z"/><path class="cls-20" d="m283.1,328.3v3.8h-4.1c-.7.1-1.3-.3-1.4-1,0-.1,0-.2,0-.4v-1.3c0-.6.4-1.2,1.1-1.2,0,0,0,0,.1,0h4.2Z"/><path class="cls-20" d="m283.1,342.4v3.8h-4c-1,0-1.4-.4-1.4-1.4v-1.2c0-.6.4-1.2,1.1-1.3,0,0,.1,0,.2,0h4.1,0Z"/><path class="cls-113" d="m283.1,335.4v3.8h-4.1c-.6,0-1.2-.4-1.3-1,0,0,0-.1,0-.2v-1.4c0-.6.4-1.2,1-1.2,0,0,.2,0,.3,0h4.2,0Z"/><path class="cls-61" d="m304.9,332.1v-3.8h4.1c.6,0,1.1.3,1.2.9,0,0,0,.1,0,.2v1.5c0,.6-.4,1.2-1.1,1.2,0,0,0,0-.1,0h-4.1Z"/><path class="cls-61" d="m304.9,346.3v-3.8h4.1c.6,0,1.1.4,1.2,1,0,0,0,.1,0,.2v1.5c0,.6-.4,1.1-1,1.1,0,0-.1,0-.2,0h-4.1Z"/><path class="cls-61" d="m304.9,339.2v-3.8h4.1c.6,0,1.2.4,1.2,1.1,0,0,0,0,0,.1v1.4c0,.6-.4,1.2-1.1,1.2,0,0,0,0-.1,0h-4.1Z"/><path class="cls-113" d="m283.1,321.2v3.9h-3.9c-1,0-1.4-.4-1.4-1.4v-1.2c0-.6.4-1.1,1-1.1,0,0,.1,0,.2,0h4.2,0Z"/><path class="cls-113" d="m283.1,349.5v3.8h-4c-1,0-1.4-.4-1.4-1.4v-1.1c0-.6.4-1.2,1-1.3,0,0,.2,0,.3,0h4.2,0Z"/><path class="cls-1" d="m304.9,325v-3.8h4.2c.6,0,1.2.5,1.2,1.1,0,0,0,0,0,0v1.5c0,.6-.4,1.1-1,1.1,0,0-.1,0-.2,0h-4.2Z"/><path class="cls-1" d="m304.9,353.3v-3.8h4.2c.6,0,1.2.5,1.2,1.1,0,0,0,0,0,0v1.5c0,.6-.4,1.1-1,1.1,0,0-.1,0-.2,0h-4.2Z"/><path class="cls-69" d="m296.1,351.9h-7c-.5,0-.9-.4-1-.9,0,0,0,0,0,0v-27.3c0-.5.4-.9.9-1,0,0,0,0,0,0h7c.5.2.8.7.7,1.3v26.6c0,.5-.2,1.1-.7,1.3Zm-1.5-18.2c-.8.2-1.6.2-2.4.4s-.8.2-.8,1,.2.4.4.4h4.3c.3,0,.4,0,.4-.4s0-.4-.4-.4h-2.8c.9-.2,1.8-.4,2.7-.6.2,0,.5,0,.5-.4,0-.2-.1-.4-.4-.5,0,0,0,0-.1,0h-.4c-.8-.2-1.6-.2-2.4-.4h2.9c.3,0,.4-.2.4-.4s0-.4-.4-.4h-3.9c-1.3,0-.9,0-.8.9,0,.2,0,.3.3.3.6,0,1.2.2,1.8.3.4,0,.8,0,1.1.2h0Zm-.6,9h2.2c.4,0,.4-.2.4-.6s0-.6-.4-.5h-1.7c0,0-.2,0-.2,0s.2,0,.2-.2l1.8-.5c.3,0,.4-.5.3-.8s-.3-.2-.6-.2c-.5.2-1.1.3-1.6.6-.2,0-.3,0-.5-.2-.3-.5-.9-.5-1.4-.5s-.8.4-1,.9,0,.9,0,1.4c0,.3,0,.5.5.5h2.1Zm-2.6-4.9c0,.3,0,.5.4.6,1.4.2,2.7.6,4.1.9.6.2.7,0,.6-.6,0-.2,0-.4-.3-.4-.2,0-.4,0-.6,0,0,0-.2,0-.2-.2,0-.4,0-.6.4-.6.1,0,.3,0,.4,0,.2,0,.4-.4.2-.8,0-.3-.2-.2-.5-.2-1.4.3-2.8.6-4.2.9-.3,0-.5.2-.4.6h0,0Z"/><path class="cls-73" d="m296.1,351.9c.5-.2.8-.7.7-1.3v-26.6c0-.5-.2-1.1-.7-1.3h2.7c.5,0,.8.3.9.8v27.6c0,.4-.4.8-.9.8h-2.7Z"/><path class="cls-59" d="m294.5,333.7c-.3-.2-.7-.2-1.1-.2-.6-.1-1.2-.3-1.8-.3-.2,0-.3-.1-.3-.3,0,0,0,0,0,0q0-.9.8-.9h3.9c.3,0,.4,0,.4.4s0,.4-.4.4h-2.9c.8.2,1.6.2,2.4.4h.4c.2,0,.4.1.5.4,0,0,0,0,0,.1,0,.4-.2.4-.5.4-.9.2-1.8.3-2.7.6h2.8c.3,0,.4,0,.4.4s0,.4-.4.4h-4.3c-.3,0-.4,0-.4-.4,0-.8,0-.9.8-1s1.5-.2,2.4-.4h0Z"/><path class="cls-108" d="m294,342.7h-2.1c-.2,0-.4-.1-.5-.4,0,0,0,0,0-.1,0-.5,0-.9,0-1.4,0-.5.5-.8,1-.9.6,0,1.1,0,1.4.5.2.2.2.2.5.2.5-.2,1.1-.3,1.6-.6.2,0,.4-.2.6.2.2.3,0,.6-.2.7,0,0,0,0-.1,0l-1.8.5c0,0-.2,0-.2.2s.2,0,.2,0h1.7c.4,0,.4.2.4.5s0,.6-.4.6h-2.2Zm-1.1-1h.3c.2,0,.3,0,.4-.2s0-.4-.2-.5c-.3,0-.6,0-.9,0-.2,0-.2.2-.2.5s.2.2.3.2h.3Z"/><path class="cls-59" d="m291.4,337.8c0-.3,0-.5.4-.6,1.4-.3,2.8-.6,4.2-.9.2,0,.4,0,.5.2,0,.4,0,.7-.2.8-.1,0-.3,0-.4,0-.4,0-.5.2-.4.6,0,0,0,.2.2.2.2,0,.4,0,.6,0s.3.2.3.4c0,.6,0,.7-.6.6-1.4-.3-2.7-.6-4.1-.9-.2,0-.4-.2-.4-.4,0,0,0-.1,0-.2h0Zm1.7,0h0c.5,0,1,.1,1.5.2q.2,0,.2-.2c0-.2,0-.3-.2-.2l-1.5.2h0Z"/><path class="cls-32" d="m292.9,341.6h-.4c-.2,0-.3,0-.3-.2s0-.4.2-.5c.3,0,.6,0,.9,0,.2,0,.3.2.2.5s-.2,0-.4.2h-.2Z"/><path class="cls-89" d="m293.1,337.8c.5,0,1-.1,1.5-.2.2,0,.2.2.2.2s0,.2-.2.2l-1.5-.2h0Z"/><path d="m267.7,325l-.2.9,2.7.6-.5,1.8-8.2-2,.8-3.3c.4-1.5,2-2.5,3.5-2.1,0,0,0,0,0,0,1,.2,1.8,1.1,2,2.1l3.4-1-.5,2-3,.9h0Zm-1.8.5l.3-1.4c.1-.6-.3-1.1-.8-1.2-.5-.2-1.1.1-1.3.6l-.3,1.4,2.1.5h0Z"/><path d="m269.1,313.8l5.2,3-.9,1.6-.5-.2c.2.6.1,1.4-.2,1.9-1.1,1.4-3.1,1.7-4.5.6-1.1-.9-1.6-2.4-1-3.7.3-.6.9-1,1.5-1.2l-.5-.2.9-1.6h0Zm1.8,3c-.6-.4-1.5-.2-1.9.4,0,0,0,.1,0,.2-.4.7-.2,1.5.5,1.9,0,0,0,0,.1,0,.6.4,1.5.2,1.9-.4,0,0,0-.1,0-.2.4-.7.2-1.5-.5-1.9,0,0,0,0-.1,0h0Z"/><path d="m278.9,307.3l2.4,2.8-1.4,1.2-2.3-2.6c-.4-.5-.9-.6-1.3-.2-.4.3-.4.9,0,1.3,0,0,0,0,0,0l2.2,2.6-1.4,1.2-2.3-2.6c-.4-.5-.9-.6-1.3-.2-.4.3-.4.9,0,1.3,0,0,0,0,0,0l2.2,2.6-1.4,1.2-4-4.5,1.4-1.2.4.4c0-.6.3-1.2.7-1.6.4-.4,1.1-.6,1.7-.5,0-.7.3-1.3.8-1.8.9-.8,2.4-.8,3.2.1,0,0,.1.1.1.2h0Z"/><path d="m290.1,307.5l-1-.6c-.5.6-1.2,1-1.9,1.2-1.7.5-3.1-.2-3.5-1.7-.2-.9,0-1.9.6-2.6-.4-.3-.6-.7-.6-1.2-.4-1.4.4-2.6,2-3,1.2-.4,2.4,0,3.1,1l-1.4,1.4c-.3-.5-.8-.7-1.3-.6-.5.2-.7.5-.6.9s.5.6,1,1l1.9,1.3v-1.4l1.8.5c0,.7,0,1.3-.3,1.9l1.4.9-1.2,1.2h0Zm-2.4-1.5l-1.9-1.2h0c-.2.3-.3.6-.2,1,.2.6.6.9,1.4.6.3,0,.6-.2.8-.4h0Z"/><path d="m294.5,305l1.8-.7c.1.8.8,1.3,1.6,1.4.9.2,1.2-.2,1.2-.5,0-.5-.4-.8-1.6-1.3s-2.3-1.3-2.1-2.9c.2-1.4,1.6-2.4,3.1-2.2,0,0,0,0,0,0,1.3.1,2.4,1,2.8,2.3l-1.8.7c-.1-.6-.7-1.1-1.3-1.2-.6,0-1,.2-1,.5s0,.6,1.4,1.3,2.6,1.2,2.3,3c-.2,1.6-1.7,2.4-3.4,2.1-1.5,0-2.7-1.1-3-2.6h0Z"/><path d="m304.5,304.7l-.7,2c-.2.5.2.7,1,.9l-.6,1.5c-2.3-.6-2.7-1.5-2.1-3l.7-2-.9-.3.6-1.6.9.3.4-1h1.8c0,0-.6,1.7-.6,1.7l1.1.4-.6,1.6-1.1-.4Z"/><path d="m306,306.7c.9-1.5,2.9-1.9,4.4-1,1.5.9,1.9,2.9,1,4.4-.9,1.5-2.9,1.9-4.4,1,0,0,0,0,0,0-1.5-.9-1.9-2.8-1-4.3,0,0,0,0,0,0Zm3.8,2.5c.4-.6.3-1.4-.3-1.8,0,0,0,0-.1,0-.6-.4-1.5-.2-1.9.4,0,0,0,0,0,0-.4.6-.3,1.4.3,1.8,0,0,0,0,.1,0,.6.4,1.5.2,1.9-.5,0,0,0,0,0,0h0Z"/><path d="m316.9,311.3l-1.4,1.4c-.4-.7-1.2-.9-1.9-.6-.1,0-.2.1-.3.2l-1.9,1.9-1.3-1.2,4.2-4.2,1.3,1.3-.7.7c.7-.4,1.6-.2,2.1.4Z"/><path d="m321.2,317.8l-5,3.2-1-1.5.5-.3c-.7-.2-1.2-.6-1.6-1.1-.8-1.4-.3-3.2,1.1-4.1,0,0,0,0,0,0,1.4-.9,3.3-.6,4.2.7.4.6.5,1.3.3,1.9l.5-.3,1,1.5Zm-3.5,0c.7-.4.9-1.2.6-1.9,0,0,0,0,0-.1-.4-.6-1.2-.9-1.8-.5,0,0-.1,0-.2.1-.7.4-.9,1.2-.6,1.9,0,0,0,0,0,.1.3.7,1.1.9,1.8.6,0,0,.1,0,.2-.1h0Z"/><path d="m323.9,325.9l-5.4,1.6c-1.9.6-3.2-.7-3.6-2.2-.4-1.1-.1-2.3.6-3.1l1.3,1.2c-.4.4-.5,1-.3,1.5,0,.7.7,1.1,1.4,1,0,0,.2,0,.2,0l.6-.2c-.6-.3-1.1-.8-1.2-1.4-.4-1.6.5-3.2,2.1-3.7,1.5-.5,3.2.3,3.7,1.9,0,0,0,0,0,.1.2.6.1,1.3-.2,1.9l.6-.2.5,1.7h-.2Zm-3.3-.9c.7-.2,1.2-.9,1-1.6,0,0,0,0,0-.1-.2-.8-1-1.2-1.8-1-.7.2-1.2.9-1,1.6,0,0,0,0,0,.1.2.8,1,1.3,1.8,1.1h0Z"/><path d="m319.7,331.4c0,.4.2.8.5,1.1l-.8,1.4c-.8-.6-1.3-1.6-1.3-2.6-.3-1.7.8-3.4,2.6-3.7s3.4.8,3.7,2.6c0,.3,0,.7,0,1,0,1.7-1.3,3-3,3,0,0,0,0-.1,0h-.7v-4.2c-.6.2-.9.8-.9,1.4Zm2.2,1.1c.6-.1,1-.7,1-1.3,0-.6-.4-1.2-1-1.3v2.6Z"/><circle class="cls-3" cx="356.7" cy="163.1" r="36"/><path class="cls-66" d="m362.5,153.1h4.7c.2.3.5.2.7.3,2.2.8,3.7,2.9,3.8,5.2v26.9c0,2-1.1,3.8-2.9,4.7-.6.2-1.2.5-1.8.6h-24c-2.7,0-5.1-1.9-5.6-4.6v-27.7c0-1.7.8-3.2,2.2-4.2,1-.8,2.3-1.3,3.7-1.2h19.3,0Zm-6.3,33.2h9.8c.4,0,.8,0,1.2,0,2-.4,3.5-2.3,3.4-4.4v-19.8c0-.4,0-.8-.2-1.2-.5-2-2.3-3.4-4.3-3.3h-19.7c-2.8,0-4.6,1.8-4.6,4.6v19.5c0,2.5,1.9,4.6,4.3,4.6,0,0,.2,0,.3,0,3.3,0,6.5,0,9.8,0h0Z"/><path class="cls-50" d="m367.1,190.8c.6-.2,1.2-.4,1.8-.6,1.7-.9,2.8-2.7,2.9-4.7v-26.9c0-2.3-1.6-4.4-3.8-5.2-.2,0-.6,0-.7-.3,1.4-.1,2.9,0,4.2.4,2.1.8,3.5,2.8,3.6,5v26.9c0,2.6-1.9,4.8-4.5,5.3-1.2.1-2.3.1-3.5,0h0Z"/><path class="cls-36" d="m363.1,183.5h-2.6c-.6,0-1-.3-1-.9s.4-.9,1-.9h5.2c.6,0,1,.3,1,.9s-.4.9-1,.9h-2.6Z"/><path class="cls-16" d="m349.2,162.1h-2.6c-.6,0-1-.3-1-.8s.4-.8,1-.8h5.3c.6,0,1,.3,1,.9s-.3.8-1,.8h-2.7Z"/><path class="cls-44" d="m370.4,160.9c-.5-2-2.3-3.4-4.3-3.3h-19.7c-2.8,0-4.6,1.8-4.6,4.6v19.5c0,2.5,1.9,4.6,4.3,4.6,0,0,.2,0,.3,0,3.3,0,6.5,0,9.8,0h9.8c.4,0,.8,0,1.2,0,2-.4,3.5-2.3,3.4-4.4v-19.8c0-.4,0-.8-.2-1.2h0Zm-7.1,7.8h0c.3-.4.3-1-.1-1.3,0,0,0,0,0,0-1.1-1-2.4-1.8-3.8-2.2,1.4.5,2.7,1.2,3.8,2.2.5.5.6,1,.2,1.4Zm-.2.2-8.1-4.2c-.4,0-.7,0-1,.2-1.8.4-3.4,1.3-4.7,2.6h0c1.3-1.3,2.9-2.2,4.7-2.6.3,0,.7-.1,1-.2Zm-3.8,3.4c0,0-.1,0-.2,0,0,0,.1,0,.2,0h0Zm-5.5-6.8c0-.5.4-.8,1-.8h5.3c.6,0,1,.3,1,.9s-.3.8-1,.8h-5.3c-.6,0-1-.3-1-.8h0Zm5.6,9.4h0c0,0,0,.1,0,.2,0,0,0-.1,0-.2h0Zm.6.6c-.1,0-.3,0-.4-.2.1.1.3.2.4.2.3,0,.6-.2.9-.4.9-.8,2-1.3,3.2-1.4,1.4,0,2.7.4,3.7,1.4.5.5,1,.5,1.4,0,.3-.3.2-.8,0-1.1.3.4.4.7,0,1.1s-.9.5-1.4,0c-1-1-2.3-1.5-3.7-1.4-1.2,0-2.4.5-3.2,1.4-.2.3-.5.4-.9.4h0Zm1.4,2.6c.3.2.6,0,1-.2.5-.5,1.2-.7,1.9-.8-.7,0-1.4.3-1.9.8-.2.3-.6.4-1,.2h0Zm2.9,4.7h0c.9,0,1.6-.7,1.6-1.6,0,0,0,0,0,0,0-.9-.7-1.6-1.6-1.6.9,0,1.6.7,1.6,1.6,0,.9-.6,1.6-1.5,1.7,0,0,0,0,0,0h0Zm2.6-4.6c.2,0,.4,0,.6-.2.3-.4.2-1-.2-1.4-.8-.7-1.8-1.1-2.9-1.1h0c1.1,0,2.1.4,2.9,1.1.4.3.5.8.3,1.2,0,0,0,.1-.1.1-.2.2-.4.3-.6.2h0Zm7,9.8h-5.2c-.6,0-1-.3-1-.9,0-.5.5-.9,1-.9,0,0,0,0,0,0h5.2c.6,0,1,.3,1,.9,0,.5-.5.9-1,.9,0,0,0,0,0,0h0Z"/><path d="m323.8,162.3l.6-2.1,6.5.2-5.5-3.4.5-1.6h6.5c0,0-5.6-3.1-5.6-3.1l.6-2.1,7.9,4.9-.6,2.2h-5.5l4.6,2.8-.6,2.2-9.3-.2h0Z"/><path d="m334.9,144.5l5.1,3.8-1.1,1.5-.5-.4c.2.7,0,1.5-.6,2-1.3,1.4-3.4,1.5-4.8.2-1.2-1.1-1.5-2.9-.6-4.3.4-.6,1-1,1.8-1l-.5-.4,1.1-1.5h0Zm1.4,3.4c-.6-.5-1.6-.4-2.1.2,0,0,0,0,0,0-.5.6-.4,1.6.2,2.1,0,0,0,0,.1,0,.6.5,1.6.4,2.1-.2,0,0,0,0,0,0,.5-.6.4-1.6-.2-2.1,0,0,0,0-.1,0h0Z"/><path d="m339.8,142.7l1.4,1.8c.3.4.7.2,1.4-.4l1.1,1.4c-1.8,1.8-2.8,1.7-3.9.2l-1.4-1.8-.8.6-1.2-1.4.8-.6-.8-1,1.1-1.7,1.1,1.4,1-.8,1.2,1.4-1,.8h0Z"/><path d="m342.3,142.4c-.9-1.6-.3-3.6,1.4-4.5,0,0,.1,0,.2,0,1.1-.6,2.3-.5,3.4.2l-1,1.6c-.4-.3-1-.3-1.4,0-.7.4-1,1.2-.7,1.9,0,0,0,0,0,0,.4.7,1.3,1,2,.6.4-.2.7-.7.8-1.2h1.9c0,1.2-.7,2.3-1.8,2.9-1.6.9-3.6.3-4.5-1.3,0,0,0,0,0-.1h0Z"/><path d="m354.8,137.3l.8,3.8-1.9.4-.7-3.6c0-.6-.5-1-1.1-.9,0,0-.2,0-.3,0-.6,0-1,.6-1,1.2,0,.1,0,.2,0,.3l.7,3.4-1.9.4-1.8-8.8,1.9-.4.6,3.1c.3-.6.9-1,1.6-1.1,1.3-.3,2.6.6,2.8,1.9,0,0,0,.2,0,.2h0Z"/><path d="m367.5,133.7l-1.8,8.8-1.8-.4.2-.6c-.6.4-1.3.6-2,.4-1.8-.5-2.8-2.4-2.3-4.2.5-1.6,2-2.6,3.6-2.4.7.1,1.3.5,1.7,1.1l.6-3.1,1.8.4h0Zm-3,5.2c.2-.8-.3-1.6-1-1.8,0,0-.1,0-.2,0-.8-.2-1.6.3-1.8,1.1,0,0,0,0,0,.1-.2.8.3,1.6,1,1.8,0,0,.1,0,.2,0,.8.2,1.6-.3,1.8-1.1,0,0,0,0,0-.1h0Z"/><path d="m369.1,137.1l1.8.8-2.6,5.8-1.8-.8,2.6-5.8Zm.6-1.7c.3-.6.9-.8,1.5-.6.6.3.8.9.6,1.5-.3.6-.9.8-1.5.6-.6-.3-.8-.9-.6-1.5h0Z"/><path d="m374.3,145.4c-.8,1.2-2.2,1-3.4.2-1-.6-1.6-1.7-1.4-2.8l1.9.2c-.2.5,0,1,.5,1.2.4.2.6.2.8,0,.4-.6-2.4-2.1-1.2-3.8.8-1.1,2.2-1,3.3-.3.9.5,1.4,1.5,1.3,2.6l-1.8-.2c0-.4,0-.7-.4-1-.2-.2-.5-.2-.6,0-.4.6,2.5,2,1.1,3.9Z"/><path d="m380.6,150.3c-1.3,1.2-3.3,1.2-4.5,0,0,0,0,0,0,0-.5-.5-.7-1.2-.6-1.9l-2.4,2.1-1.3-1.4,6.8-5.8,1.3,1.4-.5.4c.7,0,1.4.4,1.8,1,1.1,1.4.9,3.4-.5,4.5,0,0,0,0,0,0v-.2Zm-1.3-1.4c.6-.5.8-1.3.3-2,0,0-.1-.1-.2-.2-.5-.6-1.5-.7-2.1-.2,0,0,0,0,0,0-.6.5-.8,1.3-.3,2,0,0,.1.1.2.2.5.6,1.5.7,2.1.2,0,0,0,0,0,0h0Z"/><path d="m386.5,148.6l1,1.7-8.2,4.5-1-1.7,8.2-4.5Z"/><path d="m387.8,160l-6.2,1.8-.6-1.8.6-.2c-.6-.3-1.1-.9-1.3-1.6-.4-1.7.7-3.5,2.4-3.9,1.7-.6,3.5.3,4.1,2,0,0,0,0,0,0,.3.7.2,1.5-.2,2.1l.6-.2.6,1.8h0Zm-3.6-1c.8-.2,1.3-.9,1.1-1.7,0,0,0-.2,0-.2-.2-.8-1-1.3-1.8-1.1,0,0,0,0-.1,0-.8.2-1.3.9-1.1,1.7,0,0,0,.2,0,.2.2.8,1,1.3,1.8,1.1,0,0,0,0,.1,0Z"/><path d="m388.2,168.7l-6.2-2.2c-2-.7-2.9-1.8-2.8-3.6h1.8c0,.7.4,1.4,1,1.6l6.1-2.6v2.1l-3.9,1.4,3.9,1.2v2.1h.2Z"/><circle class="cls-3" cx="72.4" cy="104.6" r="36"/><path class="cls-53" d="m52.6,97.6v-5.9c0-.2,0-.3.3-.3h8.9v1.8q0,.6.6.6h19.9c.4,0,.5-.2.5-.5v-1.9h9c0,.2.2.3.2.5v5.4c0,.3-.2.5-.5.5h-1.1c-.9,0-1.5.8-1.4,1.7,0,.8.7,1.4,1.5,1.4h1.1q.5,0,.5.6v19.4c0,.5,0,.6-.6.6h-1.1c-.9,0-1.5.8-1.5,1.6s.7,1.5,1.5,1.5h1.1c.5,0,.6,0,.6.6v5.3c0,.2,0,.4-.2.5h-9v-1.9c0-.3-.2-.5-.5-.5h-20.2c-.4,0-.5.2-.5.5v1.9h-8.9c-.2,0-.3,0-.3-.3v-6.1h1.6c.9,0,1.5-.7,1.5-1.5s-.6-1.6-1.5-1.6h-1.1c-.2,0-.4,0-.5-.2v-20.2c.2,0,.3-.2.5-.2h1.1c.9,0,1.5-.8,1.5-1.7s-.6-1.4-1.4-1.5h-1.1c-.2,0-.4,0-.5-.2v.2Zm32.5,15.4h1.4c.5,0,.6-.2.6-.6s-.2-.6-.6-.6h-1.4v-1.4h1.4c.5,0,.7-.2.7-.6s-.2-.6-.7-.6h-1.4v-1.4h1.4c.4,0,.6-.2.6-.6s-.2-.6-.6-.6h-1.4v-1.4h1.4c.5,0,.6-.2.6-.6s-.2-.6-.6-.6h-1.4v-1.4h1.4c.5,0,.6-.2.6-.6s-.2-.6-.6-.6h-1.4v-1.4h1.4c.5,0,.7-.2.7-.6s-.2-.6-.7-.6h-1.4c0-1,0-1-1-1v-1.4c0-.5-.2-.6-.6-.6s-.6.2-.6.6v1.4h-1.4v-1.4c0-.5-.2-.7-.6-.7s-.6.2-.6.7v1.4h-1.4v-1.4c0-.5-.2-.7-.6-.7s-.6.2-.6.7v1.4h-1.4v-1.4c0-.5-.2-.7-.6-.7s-.6.2-.6.7v1.4h-1.4v-1.4c0-.5-.2-.7-.6-.7s-.6.2-.6.6v1.4h-1.4v-1.4c0-.5-.2-.7-.6-.7s-.6.2-.6.7v1.4h-1.4v-1.4c0-.5-.2-.7-.6-.7s-.6.2-.6.7v1.4h-1.4v-1.4c0-.5-.2-.7-.6-.7s-.6.2-.6.7v1.4h-1.4v-1.4c0-.5-.2-.7-.6-.7s-.6.2-.6.7v1.4h-1.4v-1.4c0-.5-.2-.7-.6-.7s-.6.2-.6.7v1.4c-1,0-.9,0-.9,1h-1.4c-.5,0-.7.2-.6.6s.2.6.6.6h1.4v1.4h-1.4c-.5,0-.7.2-.7.6s.2.6.7.6h1.4v1.4h-1.4c-.5,0-.7.2-.7.6s.2.6.7.6h1.4v1.4h-1.5c-.4,0-.7.2-.7.6s.2.6.7.6h1.5v1.4h-1.4c-.5,0-.6.2-.6.6s.2.6.6.6h1.4v1.4h-1.4c-.5,0-.7.2-.7.6s.2.6.7.6h1.4v1.4h-1.4c-.5,0-.7.2-.7.6s.2.6.7.6h1.4v1.4h-1.4c-.5,0-.6.2-.6.6s.2.6.6.6h1.4v1.4h-1.4c-.5,0-.6.2-.6.6s.2.6.6.6h1.4v1.4h-1.4c-.5,0-.7.2-.7.6s.2.6.7.6h1.4c0,1,0,.9,1,1v1.4c0,.5.2.6.6.6s.6-.2.6-.6v-1.4h1.4v1.4c0,.5.2.7.6.7s.6-.2.6-.7v-1.4h1.4v1.4c0,.5.2.7.6.7s.6-.2.6-.7v-1.4h1.4v1.4c0,.5.2.6.6.6s.6-.2.6-.6v-1.4h1.4v1.4c0,.5.2.6.6.6s.6-.2.6-.6v-1.4h1.4v1.4c0,.5.2.7.6.7s.6-.2.6-.7v-1.4h1.4v1.4c0,.5.2.6.6.6s.6-.2.6-.6v-1.4h1.4v1.4c0,.5.2.6.6.6s.6-.2.6-.6v-1.4h1.4v1.4c0,.5.2.6.6.6s.6-.2.6-.6v-1.4h1.4v1.4c0,.5.2.7.6.7s.6-.2.6-.7v-1.4c1,0,.9,0,1-1h1.4c.5,0,.6-.2.6-.6s-.2-.6-.6-.6h-1.4v-1.4h1.4c.5,0,.7-.2.7-.6s-.2-.6-.7-.6h-1.4v-1.4h1.4c.5,0,.7-.2.7-.6s-.2-.6-.7-.6h-1.4v-1.4h1.4c.5,0,.6-.2.6-.6s-.2-.6-.6-.6h-1.4v-1.4h0Zm-29.3-17.4c.6,0,1.2-.6,1.2-1.2h0c0-.6-.6-1.2-1.2-1.2s-1.1.6-1.1,1.3.5,1,1.1,1.1h0Zm34.2-1.2c0-.6-.6-1.2-1.2-1.2s-1.2.6-1.2,1.2.6,1.2,1.2,1.2,1.2-.5,1.2-1.1h0Zm-35.3,33.5c0,.6.6,1.2,1.2,1.2s1.2-.6,1.2-1.2h0c0-.6-.6-1.2-1.2-1.2h0c-.6,0-1.2.6-1.2,1.2h0Zm35.3,0c0-.6-.6-1.2-1.2-1.2h0c-.6,0-1.2.6-1.2,1.2s.6,1.2,1.2,1.2,1.2-.6,1.2-1.2Z"/><path class="cls-38" d="m80.4,93.8h-18q-.6,0-.6-.6v-1.8h18.7v2.4h0Z"/><path class="cls-38" d="m61.7,131v-1.9c0-.3.2-.5.5-.5h18.2v2.4h-18.7,0Z"/><path class="cls-49" d="m80.4,93.8v-2.4h2.4v1.9c0,.3-.2.5-.5.5h-1.9Z"/><path class="cls-49" d="m80.5,131v-2.4h1.9c.3,0,.5.2.5.5v1.9h-2.4Z"/><path class="cls-33" d="m63,123.9h-2.5c-1,0-.9,0-1-1v-23.6c0-1,0-.9,1-1h22.1v2.6c0,0-.2-.2-.4-.2h-19.6q-.6,0-.6.6v19.4q0,.6.6.6h19.6c.2,0,.3,0,.4-.2v2.6h-19.6Z"/><path class="cls-52" d="m82.6,101v-2.6h1.5c1,0,.9,0,1,1v23.6c0,1,0,.9-1,1h-1.4v-23h0Z"/><path class="cls-46" d="m55.8,95.7c-.6,0-1.1-.6-1.1-1.3s.5-1,1.1-1.1c.6,0,1.2.6,1.2,1.2s-.6,1.2-1.2,1.2h0Z"/><path class="cls-46" d="m90,94.5c0,.6-.5,1.2-1.2,1.2h0c-.6,0-1.2-.6-1.2-1.2s.6-1.2,1.2-1.2,1.2.6,1.2,1.2Z"/><path class="cls-79" d="m54.7,128c0-.6.5-1.2,1.1-1.2h0c.6,0,1.2.6,1.2,1.2h0c0,.6-.6,1.2-1.2,1.2s-1.2-.6-1.2-1.2h0Z"/><path class="cls-79" d="m90,127.9c0,.6-.5,1.2-1.2,1.2h0c-.6,0-1.2-.6-1.2-1.2s.6-1.2,1.2-1.2,1.2.5,1.2,1.2h0Z"/><path class="cls-96" d="m64.2,98.4h-1.1v-1.4c0-.5.2-.7.6-.7s.6.2.6.7v1.4Z"/><path class="cls-104" d="m85.1,110.5v-1.2h1.4c.5,0,.7.2.7.6s-.2.6-.7.6h-1.4Z"/><path class="cls-104" d="m71.6,98.4h-1.1v-1.4c0-.5.2-.7.6-.7s.6.2.6.7v1.4Z"/><path class="cls-104" d="m74.1,98.4h-1.1v-1.4c0-.5.2-.7.6-.7s.6.2.6.7v1.4Z"/><path class="cls-104" d="m59.6,109.4v1.2h-1.4c-.5,0-.7-.2-.6-.6s.2-.6.6-.6h1.4Z"/><path class="cls-96" d="m85.1,120.5v-1.2h1.4c.5,0,.7.2.7.6s-.2.6-.7.6h-1.4Z"/><path class="cls-104" d="m85.1,113v-1.2h1.4c.5,0,.6.2.6.6s-.2.6-.6.6h-1.4Z"/><path class="cls-96" d="m59.6,119.3v1.2h-1.4c-.5,0-.6-.2-.6-.6s.2-.6.6-.6h1.4Z"/><path class="cls-96" d="m59.6,101.8v1.2h-1.4c-.5,0-.7-.2-.7-.6s.2-.6.7-.6h1.4Z"/><path class="cls-96" d="m85.1,103v-1.2h1.4c.5,0,.6.2.6.6s-.2.6-.6.6h-1.4Z"/><path class="cls-104" d="m59.6,111.8v1.1h-1.4c-.5,0-.7-.2-.7-.6s.2-.6.7-.6h1.4Z"/><path class="cls-96" d="m63,123.9h1.1v1.4c0,.5-.2.7-.6.7s-.6-.2-.6-.7v-1.4Z"/><path class="cls-104" d="m70.5,123.9h1.1v1.4c0,.5-.2.6-.6.6s-.6-.2-.6-.6v-1.4Z"/><path class="cls-104" d="m73,123.9h1.1v1.4c0,.5-.2.7-.6.7s-.6-.2-.6-.7v-1.4Z"/><path class="cls-96" d="m80.4,123.9h1.1v1.4c0,.5-.2.6-.6.6s-.6-.2-.6-.6v-1.4Z"/><path class="cls-96" d="m81.6,98.4h-1.1v-1.4c0-.5.2-.7.6-.7s.6.2.6.7v1.4Z"/><path class="cls-103" d="m59.6,106.9v1.1h-1.5c-.4,0-.7-.2-.7-.6s.2-.6.7-.6h1.5Z"/><path class="cls-103" d="m85.1,108v-1.1h1.4c.5,0,.6.2.6.6s-.2.6-.6.6h-1.4Z"/><path class="cls-103" d="m75.5,123.9h1.1v1.4c0,.5-.2.6-.6.6s-.6-.2-.6-.6v-1.4Z"/><path class="cls-103" d="m59.6,114.3v1.2h-1.4c-.5,0-.7-.2-.7-.6s.2-.6.7-.6h1.4Z"/><path class="cls-103" d="m85.1,115.5v-1.2h1.4c.5,0,.6.2.6.6s-.2.6-.6.6h-1.4Z"/><path class="cls-103" d="m69.2,98.4h-1.1v-1.4c0-.5.2-.7.6-.7s.6.2.6.7v1.4Z"/><path class="cls-103" d="m76.6,98.4h-1.1v-1.4c0-.5.2-.7.6-.7s.6.2.6.7v1.4Z"/><path class="cls-103" d="m68,123.9h1.1v1.4c0,.5-.2.6-.6.6s-.6-.2-.6-.6v-1.4Z"/><path class="cls-93" d="m59.6,121.8v1.1h-1.4c-.5,0-.7-.2-.7-.6s.2-.6.7-.6,1,0,1.4,0Z"/><path class="cls-93" d="m85.1,123v-1.2h1.4c.5,0,.6.2.6.6s-.2.6-.6.6h-1.4Z"/><path class="cls-93" d="m85.1,100.6v-1.2h1.4c.5,0,.7.2.7.6s-.2.6-.7.6h-1.4Z"/><path class="cls-103" d="m65.6,123.9h1.1v1.4c0,.5-.2.7-.6.7s-.6-.2-.6-.7v-1.4Z"/><path class="cls-103" d="m85.1,105.5v-1.1h1.4c.4,0,.6.2.6.6s-.2.6-.6.6h-1.4Z"/><path class="cls-103" d="m59.6,104.3v1.1h-1.4c-.5,0-.7-.2-.7-.6s.2-.6.7-.6h1.4Z"/><path class="cls-103" d="m59.6,116.8v1.2h-1.4c-.5,0-.6-.2-.6-.6s.2-.6.6-.6h1.4Z"/><path class="cls-103" d="m85.1,118v-1.2h1.4c.5,0,.7.2.7.6s-.2.6-.7.6h-1.4Z"/><path class="cls-93" d="m60.5,123.9h1.1v1.4c0,.5-.2.6-.6.6s-.6-.2-.6-.6v-1.4Z"/><path class="cls-93" d="m59.6,99.4v1.2h-1.5c-.4,0-.6-.2-.6-.6s.2-.6.6-.6h1.5Z"/><path class="cls-93" d="m84.1,98.4h-1.2v-1.4c0-.5.2-.6.6-.6s.6.2.6.6v1.4h0Z"/><path class="cls-93" d="m82.9,123.9h1.2v1.4c0,.5-.2.7-.6.7s-.6-.2-.6-.7v-1.4h0Z"/><path class="cls-103" d="m79.1,98.4h-1.1v-1.4c0-.5.2-.7.6-.7s.6.2.6.7v1.4Z"/><path class="cls-103" d="m66.7,98.4h-1.1v-1.4c0-.5.2-.7.6-.7s.6.2.6.7v1.4Z"/><path class="cls-93" d="m61.6,98.4h-1.1v-1.4c0-.5.2-.7.6-.7s.6.2.6.7v1.4Z"/><path class="cls-103" d="m78,123.9h1.1v1.4c0,.5-.2.6-.6.6s-.6-.2-.6-.6v-1.4Z"/><path class="cls-99" d="m80.3,121.5h-17.6q-.6,0-.6-.6v-19.4q0-.6.6-.6h17.6v20.7h0Zm-.8-16.6h0v-1.8c0-.3-.2-.6-.6-.6h0c-.3,0-.6.2-.6.6h0v2.5c0,.6,0,.5-.6.6-.3,0-.4,0-.4-.4v-2.6c0-.4-.2-.6-.6-.6s-.6.2-.6.6h0v3.5c0,.5.2.6.7.6h1.8c.5,0,.7-.2.7-.7v-1.7.2Zm-6.8,0v1.8c0,.4.2.6.6.7s.6-.2.6-.6v-.9q0-.2.2-.2h1.1c.3,0,.6-.2.7-.6v-1.8c0-.6-.2-.7-.7-.7h-1.7c-.6,0-.8.2-.8.8v1.6h0Zm-3.5,0v1.8c0,.3.2.6.5.6h2c.4,0,.7-.2.7-.6s-.2-.6-.7-.6h-1.1c-.2,0-.2,0-.2-.2v-2c0-.2,0-.2.2-.2h1.1c.4,0,.6-.2.6-.6s-.2-.6-.6-.6h-1.9c-.3,0-.6.2-.6.5v1.8h0v.2Zm-4.5,15.5h1c.2,0,.3,0,.4-.2,0-.2,0-.3-.2-.4l-2.2-2c0-.2-.2-.2-.4,0-.2,0-.2.2-.2.3v2c0,.2,0,.3.3.4h1.1Z"/><path class="cls-11" d="m80.3,121.5v-20.6h2c.2,0,.3,0,.4.2v20.3c0,0-.2.2-.4.2h-2Z"/><path class="cls-90" d="m79.5,104.9v1.7c0,.6-.2.7-.7.7h-1.8c-.5,0-.7-.2-.7-.6v-3.4c0-.3.2-.6.5-.6h0c.3,0,.6.2.6.6v2.6c0,.3,0,.4.4.4.6,0,.6,0,.6-.6v-2.5c0-.3.2-.6.6-.6h0c.3,0,.6.2.6.6h0v1.8h0v-.2Z"/><path class="cls-90" d="m72.7,104.9v-1.6c0-.6.2-.7.8-.8h1.8c.5,0,.7.2.7.7v1.6c0,.3-.2.6-.6.7h-1.3q-.2,0-.2.2v.9c0,.4-.2.6-.6.6s-.6-.2-.6-.7v-1.8h0Zm1.6-.5c.2,0,.5,0,.5-.3s-.2-.4-.5-.3-.5,0-.5.3.2.4.5.3h0Z"/><path class="cls-90" d="m69.2,104.9v-1.7c0-.3.2-.6.5-.6h2.1c.4,0,.6.2.6.6s-.2.6-.6.6-.8,0-1.1,0-.2,0-.2.2v2c0,.2,0,.2.2.2h1.1c.4,0,.7.2.7.6s-.2.6-.7.6h-1.8c-.3,0-.6-.2-.6-.5v-2.1Z"/><path class="cls-114" d="m64.7,120.4h-1.1c-.2,0-.3,0-.4-.3h0v-2c0-.2,0-.3.2-.3s.3,0,.4,0l2.2,2c.2,0,.2.2.2.4s-.2.2-.4.2h-1,0Z"/><path class="cls-96" d="m74.3,104.3c-.2,0-.5,0-.5-.3s.2-.3.5-.3.5,0,.5.3-.2.3-.5.3Z"/><path d="m58.1,81.5c-1-3.1.7-6.3,3.9-7.3,1.9-.6,3.9-.2,5.4,1.1l-1.8,1.8c-.7-.7-1.8-.9-2.9-.6-1.9.6-2.7,2.2-2.2,4.2.6,1.9,2.2,2.8,4.1,2.2,1.1-.3,1.8-1.1,2.1-2.1l2.5.6c-.5,1.8-1.9,3.3-3.8,3.8-3.2,1-6.3-.7-7.3-3.9h0Z"/><path d="m79,77.6c-.2,2.1-2.1,3.7-4.2,3.4l-1.7-.2-.3,3.5-2.6-.2,1-11.1,4.2.4c2.2.2,3.8,2.1,3.5,4.2Zm-2.6-.2c0-.8-.4-1.5-1.2-1.6l-1.7-.2-.2,2.9,1.7.2c.8,0,1.4-.5,1.5-1.3h0Z"/><path d="m80.2,81.8l3.4-6.8,2.3,1.1-3.3,6.6c-.4.7-.3,1.6.9,2.2,1.2.6,1.9.2,2.2-.6l3.3-6.6,2.3,1.1-3.4,6.8c-1,2.2-3.4,2.6-5.6,1.5-2.2-1.1-3.2-3.2-2.2-5.4h0Z"/><line class="cls-4" x1="197.7" y1="267" x2="197.7" y2="298.2"/><polygon class="cls-100" points="190.2 296 197.7 309 205.2 296 190.2 296"/><line class="cls-10" x1="162.7" y1="256.9" x2="140.4" y2="292.6"/><line class="cls-4" x1="162.7" y1="256.9" x2="146.2" y2="283.4"/><polygon class="cls-100" points="141 277.6 140.4 292.6 153.7 285.5 141 277.6"/><line class="cls-10" x1="138.4" y1="229.9" x2="100.6" y2="248.3"/><line class="cls-4" x1="138.4" y1="229.9" x2="110.3" y2="243.6"/><polygon class="cls-100" points="109 235.9 100.6 248.3 115.5 249.4 109 235.9"/><line class="cls-10" x1="132" y1="194.1" x2="90.3" y2="189.7"/><line class="cls-4" x1="132" y1="194.1" x2="101" y2="190.8"/><polygon class="cls-100" points="103.9 183.6 90.3 189.7 102.4 198.5 103.9 183.6"/><line class="cls-10" x1="145.7" y1="160.3" x2="112.6" y2="134.5"/><line class="cls-4" x1="145.7" y1="160.3" x2="121.1" y2="141.1"/><polygon class="cls-100" points="127.4 136.6 112.6 134.5 118.2 148.3 127.4 136.6"/><line class="cls-10" x1="175.1" y1="138.9" x2="160.7" y2="99.5"/><line class="cls-4" x1="175.1" y1="138.9" x2="164.4" y2="109.6"/><polygon class="cls-100" points="172.2 109.1 160.7 99.5 158.1 114.2 172.2 109.1"/><line class="cls-10" x1="211.4" y1="136.4" x2="220.1" y2="95.3"/><line class="cls-4" x1="211.4" y1="136.4" x2="217.9" y2="105.9"/><polygon class="cls-100" points="224.8 109.5 220.1 95.3 210.1 106.4 224.8 109.5"/><line class="cls-10" x1="243.5" y1="153.5" x2="272.7" y2="123.3"/><line class="cls-4" x1="243.5" y1="153.5" x2="265.2" y2="131"/><polygon class="cls-100" points="269.1 137.8 272.7 123.3 258.3 127.4 269.1 137.8"/><line class="cls-10" x1="261.7" y1="185" x2="302.5" y2="174.8"/><line class="cls-4" x1="261.7" y1="185" x2="292" y2="177.4"/><polygon class="cls-100" points="291.7 185.2 302.5 174.8 288.1 170.7 291.7 185.2"/><line class="cls-10" x1="260.5" y1="221.4" x2="300.4" y2="234.3"/><line class="cls-4" x1="260.5" y1="221.4" x2="290.2" y2="231"/><polygon class="cls-100" points="285.8 237.4 300.4 234.3 290.4 223.2 285.8 237.4"/><line class="cls-10" x1="240.1" y1="251.5" x2="267.1" y2="283.7"/><line class="cls-4" x1="240.1" y1="251.5" x2="260.2" y2="275.5"/><polygon class="cls-100" points="253 278.6 267.1 283.7 264.5 269 253 278.6"/></svg>