<?xml version="1.0" encoding="UTF-8"?><svg id="Layer_1" xmlns="http://www.w3.org/2000/svg" viewBox="0 0 400 400"><defs><style>.cls-1{fill:#375e7d;}.cls-2{fill:#a7cefe;}.cls-3{stroke:#a5262d;}.cls-3,.cls-4{stroke-width:4px;}.cls-3,.cls-4,.cls-5{fill:none;stroke-miterlimit:10;}.cls-6{fill:#fff;}.cls-7{fill:#727272;}.cls-8{fill:#2b4d66;}.cls-9{fill:#0c4a4e;}.cls-10{fill:#d2febf;}.cls-11{fill:#d1fdbf;}.cls-12{fill:#999afe;}.cls-4{stroke:#c000e2;}.cls-13{fill:#d9cfca;}.cls-14{fill:#fef3d6;}.cls-15{fill:#00f6d5;}.cls-16{fill:#626363;}.cls-17{fill:#e5dedc;}.cls-18{fill:#01264f;}.cls-19{fill:#2b4e68;}.cls-20{fill:#97f8fe;}.cls-21{fill:#034868;}.cls-22{fill:#f1efef;}.cls-23{fill:#989afe;}.cls-24{fill:#02f6d5;}.cls-25{fill:#d0cde6;}.cls-26{fill:#2b506b;}.cls-27{fill:#fe7038;}.cls-28{fill:#717f8f;}.cls-29{fill:#93dbfe;}.cls-30{fill:#03f6d5;}.cls-31{fill:#e5e4ec;}.cls-32{fill:#debcef;}.cls-33{fill:#f1d0fe;}.cls-34{fill:#fe5f7a;}.cls-35{fill:#152433;}.cls-5{stroke:#231f20;stroke-width:2px;}.cls-36{fill:#fe415d;}.cls-37{fill:#22a5fc;}.cls-38{fill:#6f7070;}.cls-39{fill:#0aaffe;}.cls-40{fill:#395f7e;}.cls-41{fill:#625260;}.cls-42{fill:#00244d;}.cls-43{fill:#e6dedc;}.cls-44{fill:#b7b7fe;}.cls-45{fill:#979bfd;}.cls-46{fill:#728090;}.cls-47{fill:#4e3d4d;}.cls-48{fill:#636363;}.cls-49{fill:#0693fb;}.cls-50{fill:#b6d6fd;}.cls-51{fill:#fe7e92;}.cls-52{fill:#f8f6f7;}.cls-53{fill:#d0c8c3;}.cls-54{fill:#d0cde7;}.cls-55{fill:#b8b8fd;}.cls-56{fill:#3f4a5b;}.cls-57{fill:#dcd9ea;}.cls-58{fill:#014767;}.cls-59{fill:#7dd4f3;}.cls-60{fill:#231f20;}.cls-61{fill:#00dbe6;}.cls-62{fill:#2dbafe;}.cls-63{fill:#fefefe;}.cls-64{fill:#2c4d66;}</style></defs><line class="cls-6" x1="201.3" y1="142.9" x2="201.8" y2="110.1"/><line class="cls-5" x1="201.3" y1="142.9" x2="201.6" y2="120.8"/><polygon class="cls-60" points="209.1 123.1 201.8 110.1 194.1 122.9 209.1 123.1"/><line class="cls-6" x1="168.3" y1="147.1" x2="119.7" y2="107.8"/><line class="cls-5" x1="168.3" y1="147.1" x2="128" y2="114.6"/><polygon class="cls-60" points="134.5 110.1 119.7 107.8 125.1 121.8 134.5 110.1"/><line class="cls-6" x1="233.7" y1="147.1" x2="282.3" y2="107.8"/><line class="cls-5" x1="233.7" y1="147.1" x2="274" y2="114.6"/><polygon class="cls-60" points="276.9 121.8 282.3 107.8 267.5 110.1 276.9 121.8"/><line class="cls-6" x1="201.3" y1="257.1" x2="201.8" y2="289.9"/><line class="cls-5" x1="201.3" y1="257.1" x2="201.6" y2="279.1"/><polygon class="cls-60" points="194.1 277 201.8 289.9 209.1 276.8 194.1 277"/><line class="cls-6" x1="168.3" y1="252.8" x2="119.7" y2="292.1"/><line class="cls-5" x1="168.3" y1="252.8" x2="128" y2="285.4"/><polygon class="cls-60" points="125.1 278.2 119.7 292.1 134.5 289.8 125.1 278.2"/><line class="cls-6" x1="233.7" y1="252.8" x2="282.3" y2="292.1"/><line class="cls-5" x1="233.7" y1="252.8" x2="274" y2="285.4"/><polygon class="cls-60" points="267.5 289.8 282.3 292.1 276.9 278.2 267.5 289.8"/><circle class="cls-3" cx="201" cy="200" r="45"/><path class="cls-64" d="m227,220.3c-.2.9-.7,1.8-1.2,2.6-1.1,1.5-2.8,2.4-4.7,2.4h-5.4c-.9,0-1-.2-1-1.1v-1.7c1.9,0,3.8,0,5.8,0,1,0,1.9-.5,2.6-1.3.8-1.3,1.3-2.8,1.2-4.3h2.8v3.5h0Z"/><path class="cls-25" d="m227,216.8h-2.7v-15.3h2.7v15.4h0Z"/><path class="cls-64" d="m227,201.4h-2.7v-2.7c0-1.8-1-3.5-2.4-4.5-.8-.5-1.6-.9-2.5-1.2,1.8,0,3.6,0,5.1,1.1,1.3.9,2.1,2.3,2.4,3.8h0v3.5Z"/><path class="cls-31" d="m177.1,211.6h-4.7c-1.1,0-2.2-.4-2.8-1.4,0,0-.1,0-.2,0v-1.6h.1c.5.8,1.4,1.2,2.4,1.1h5.1c.2.3.1.6,0,.9s-.2.5,0,.8v.3h0Z"/><path class="cls-37" d="m189.5,194.6c.7,0,1.3,0,2,0h19.6v23.6c0,.7-.3,1.3-.9,1.6,0-.9-.3-1.2-1.2-1.2h-14.2c-.8,0-1.1.4-1,1.2h-4.4v-25.1h.1Zm12.6,13.7h-6.9c-.9,0-1.4.3-1.3.9s.5.9,1.3.9h14.4c.4,0,.7-.5.7-.9h0c0-.4-.3-.7-.7-.8h-7.5Zm0-8.5h7.1c.7,0,1-.3,1-.8s-.3-.9-1.1-.9h-14.2c-.3,0-.7,0-.9.3-.2.2-.3.6,0,.9.2.4.5.6.9.5h7.3Zm0,5.1h7.2c.4,0,.7,0,.9-.4.2-.3,0-.6,0-.9-.2-.3-.6-.3-1-.3h-14.6c-.4,0-.7.6-.6,1h0c0,.4.5.7,1,.7h7.1Zm0,10.2h7.1c.2,0,.5,0,.7,0,.3-.2.5-.6.4-1s-.5-.7-.9-.6h-14.4c-.4,0-.8,0-1,.5-.3.7.2,1.2.9,1.2h7.2Z"/><path class="cls-1" d="m219.3,193c.9.3,1.8.7,2.5,1.2,1.4,1.1,2.3,2.7,2.4,4.5v2.7h-1.9c-.7,0-1.2.6-1.1,1.3h0v12.8c0,.7.4,1.3,1.1,1.3h1.8c0,1.5-.3,3-1.2,4.3-.6.8-1.6,1.2-2.6,1.3-1.9.3-3.8,0-5.8,0v-28.1c0-1.7.3-1.5,1.6-1.5h3.2Z"/><path class="cls-49" d="m214.6,194.4v29.4h-20.4c-.2,0-.4,0-.6,0h-3.5c-.2,0-.4,0-.5-.2v-3.8h4.3c.2.4.7.7,1.1.6h14.1c.5,0,.9-.2,1.2-.6.6-.3,1-.9.9-1.6v-23.6c1.1,0,2.3,0,3.5,0v-.2Z"/><path class="cls-1" d="m189.5,194.6v25.2h-1.2c-2.2-.4-4.1-1.7-5.3-3.5-.6-1-1-2.1-1.2-3.2v-9.8c-.1-.9,0-1.9.3-2.8.8-3.5,4.2-6.1,7.5-5.8h0Z"/><path class="cls-40" d="m191.5,186.9h-.8c-.6,0-1.1-.3-1.1-.9v-2.4c0-1,.3-1.3,1.3-1.3h11c.5.5.7,1.2.5,1.9v.9c0,.7,0,1.3-.6,1.8h-10.3Z"/><path class="cls-54" d="m191.5,186.9h12.1v7.6h-2.9v-3c0-.2,0-.4-.2-.5v-.4c.4-.7.2-1-.6-1h-8.4v-2.6h0Z"/><path class="cls-57" d="m200.5,190.9c.2,0,.2.3.2.5v3h-9.2v-5h8.5c.8,0,.9.3.6,1-.3-.7-.7-.8-1.2-.6-.4.2-.6.7-.4,1.1,0,.2.3.4.6.5.5,0,.9,0,1.1-.6h-.2Zm-5.1-1.1c-.5,0-.8.4-.9.8,0,.5.4.9.9.9s.9-.4.9-.9-.4-.9-.9-.9h0Z"/><path class="cls-57" d="m181.7,203.2v9.2h-2.2c-.7,0-1.4-.3-1.9-.9,0,0-.1-.3-.3-.3-.2-.3,0-.5,0-.8s.1-.6,0-.9v-4.7c0-.9.9-1.7,1.9-1.7h2.6-.1Z"/><path class="cls-52" d="m177.1,206.7v2.9h-5.1c-1,0-1.9-.4-2.4-1.2.4-1.1,1.5-1.8,2.7-1.7h4.8Z"/><path class="cls-64" d="m203.6,186.9h-1.8c.5-.5.7-1.2.6-1.8v-.9c0-.7,0-1.4-.6-1.9h2.7c.6,0,1.1.4,1.1,1v2.4c0,.9-.4,1.3-1.3,1.3h-.7Z"/><path class="cls-57" d="m209.1,230.7h1.5c.6.6.8,1.5.7,2.3v.9c0,.4-.2.8-.5,1.1,0,0-.3,0-.3.3-8.5-.2-17,0-25.5,0s-1.7-.6-1.6-1.6v-1.7c0-.7.5-1.3,1.2-1.3h24.5Z"/><path class="cls-64" d="m181.7,213c.2,1.1.6,2.2,1.2,3.2,1.2,1.8,3.1,3.1,5.3,3.5h1.2v4.1c-3.7,0-6.8-2.6-7.7-6.1-.1-.9-.2-1.7-.2-2.6v-2.1h.2Z"/><path class="cls-19" d="m189.5,223.8v-.3c0,.3.4.2.6.2h4.1v6.9h-2.1v-4.1c0-.6,0-.8-.8-.8h-1.7v-2h0Z"/><path class="cls-8" d="m209.1,230.7h-2v-4.3c0-.4-.2-.7-.7-.7h-1.9v-2c.7,0,1.5,0,2.3,0h2.3c0,2.4,0,4.7,0,7Z"/><path class="cls-25" d="m210.5,235.4c0-.2.2-.2.3-.3.3-.3.5-.7.5-1.1v-.9c.2-.8,0-1.7-.7-2.3h3.2c.8,0,1.4.5,1.5,1.3v1.8c0,.8-.4,1.5-1.2,1.7h-3.6v-.2Z"/><path class="cls-25" d="m181.7,213v2.1h-2.5c-1.1,0-2.1-.8-2.2-1.9v-1.5c.1,0,0-.2.1-.3.2,0,.2.2.3.3.4.6,1.2.9,1.9.9h2.2v.5h.2Z"/><path class="cls-1" d="m189.6,225.7h1.7c.6,0,.8.2.8.8,0,1.4,0,2.8,0,4.2h-2.4v-5h0Z"/><path class="cls-57" d="m224.2,216.8h-1.6c-.7,0-1.3-.4-1.3-1.1v-13c0-.7.4-1.3,1.1-1.3h1.9v15.3h0Z"/><path class="cls-26" d="m210.3,219.7c-.2.4-.7.6-1.1.6h-14.1c-.5,0-.9-.2-1.1-.6,0-.8.2-1.2,1-1.2h14.1c.9,0,1.2.3,1.2,1.2Z"/><path class="cls-26" d="m202.1,208.2h7.4c.4,0,.7.4.8.8,0,.4-.2.8-.7.9h-14.4c-.8,0-1.3-.3-1.3-.9s.4-.9,1.3-.9h6.9Z"/><path class="cls-8" d="m202.1,199.7h-7.2c-.4,0-.8-.2-.9-.5,0-.3,0-.6,0-.9.2-.3.6-.4.9-.3h14.2c.7,0,1.1.3,1.1.9s-.3.8-1,.8h-7.2Z"/><path class="cls-8" d="m202.1,204.9h-7.1c-.4,0-.9-.2-1-.7,0-.4,0-.9.6-1h14.6c.4,0,.7,0,1,.3.2.3.2.6,0,.9-.2.3-.5.5-.9.5,0,0-7.2,0-7.2,0Z"/><path class="cls-8" d="m202.1,215.1h-7.2c-.8,0-1.2-.6-.9-1.2.2-.4.6-.6,1-.5h14.4c.4,0,.9.2,1,.6s0,.8-.4,1c-.2,0-.5,0-.7,0h-7.2Z"/><path class="cls-26" d="m200.5,190.9c0,.5-.6.7-1.1.6-.5,0-.7-.6-.6-1,0-.3.2-.5.5-.6.5-.2.9,0,1.2.6v.4Z"/><path class="cls-26" d="m195.4,189.8c.5,0,.9.4.9.9s-.4.9-.9.9h0c-.5,0-.9-.4-.9-.9s.4-.8.9-.8h0Z"/><path class="cls-40" d="m204.6,230.7v-4.9h1.9c.5,0,.7.2.7.7v4.3h-2.6Z"/><path d="m160.6,198.2l.4-2.4,7.5-1-6.8-3.3.4-2.4,9.2,4.8-.5,2.8-10.2,1.6h0Z"/><path d="m163.7,187.9c-.6-.2-1-1-.7-1.6.2-.6,1-1,1.6-.7.6.2,1,1,.7,1.6-.2.6-1,1-1.6.7Zm1.8.5l.7-2,6.6,2.4-.7,2-6.6-2.4Z"/><path d="m174,179.4c1.8,1.1,2.4,3.2,1.4,4.8-.5.8-1.1,1.2-1.8,1.3l.6.3-1.1,1.8-8.4-5.1,1.1-1.8,3,1.8c-.2-.7-.1-1.4.3-2.2.9-1.6,3.1-2,4.9-1h0Zm-1.1,1.8c-.9-.5-1.8-.3-2.3.5-.5.8-.3,1.8.6,2.3s1.8.3,2.3-.5.3-1.8-.6-2.3Z"/><path d="m175.3,172.9l1.7,1.6c-.7.5-1.3,1.7-.3,2.6l2.3,2.2-1.4,1.5-5.1-4.8,1.4-1.5.9.9c-.5-.8-.2-1.8.4-2.5h.1Z"/><path d="m182.5,167.6l4,5.7-1.7,1.2-.4-.5c0,.7-.4,1.4-1.2,1.9-1.5,1.1-3.7.6-4.9-1.1-1.2-1.7-.9-3.9.6-4.9.8-.5,1.5-.7,2.2-.5l-.4-.5,1.7-1.2h.1Zm.3,4.1c-.6-.9-1.6-1-2.3-.4-.8.6-1,1.5-.4,2.4s1.6,1,2.3.4c.8-.6,1-1.5.4-2.4Z"/><path d="m188,167.4l1,2.3c.2.6.7.4,1.6,0l.7,1.8c-2.4,1.3-3.5.9-4.2-.9l-1-2.3-1,.4-.8-1.9,1-.4-.5-1.2,1.7-1.4.8,1.8,1.3-.6.8,1.9-1.3.6h0Z"/><path d="m189.6,162.7c-.2-.7.2-1.4.9-1.5.7-.2,1.4.2,1.5.9.2.7-.2,1.4-.9,1.5-.7.2-1.4-.2-1.5-.9Zm.7,1.8l2-.5,1.8,6.8-2,.5-1.8-6.8Z"/><path d="m194.6,166.8c-.2-2.1,1.4-3.8,3.4-4,2.1-.2,3.8,1.3,4,3.4.2,2.1-1.4,3.8-3.4,4-2.1.2-3.8-1.3-4-3.4Zm5.3-.4c0-1-.8-1.6-1.7-1.5-.9,0-1.6.8-1.5,1.8,0,1,.8,1.6,1.7,1.5.9,0,1.6-.8,1.5-1.8Z"/><path d="m210.3,166.7l-.7,4.2-2.1-.4.7-3.9c0-.9-.3-1.3-1-1.5-.8-.1-1.4.2-1.5,1.2l-.6,3.8-2.1-.4,1.2-6.9,2.1.4v.6c.3-.4,1.1-.7,2-.5,1.4.2,2.4,1.4,2.1,3.3h-.1Z"/><path d="m212.5,166.5l4.9,2.1-.8,1.9-4.9-2.1.8-1.9Z"/><path d="m227.2,177l-2.7,3.3-1.6-1.3,2.6-3.2c.4-.5.5-1.1,0-1.5s-1.2-.3-1.7.3l-2.5,3-1.6-1.3,2.6-3.2c.4-.5.5-1.1,0-1.5s-1.2-.3-1.7.3l-2.5,3-1.6-1.3,4.5-5.4,1.6,1.3-.4.5c.6-.2,1.3,0,2,.6.6.5.9,1.2.8,1.9.7-.2,1.4,0,2.2.6,1.2,1,1.3,2.6.2,3.9h-.2Z"/><path d="m227.5,178.9c1.8-1.1,4-.6,5.1,1.1s.6,4-1.1,5.1c-1.8,1.1-4,.6-5.1-1.1-1.1-1.7-.6-4,1.1-5.1Zm2.9,4.5c.8-.5,1-1.5.5-2.2-.5-.8-1.4-1-2.3-.5-.8.5-1,1.5-.5,2.2.5.8,1.4,1,2.3.5Z"/><path d="m234.2,188.3l-2.3.9c-.6.2-.4.7,0,1.6l-1.8.7c-1.2-2.5-.8-3.5,1.1-4.2l2.3-.9-.4-1,1.9-.7.4,1,1.2-.5,1.3,1.7-1.8.7.5,1.3-1.9.7s-.5-1.3-.5-1.3Z"/><path d="m233.8,191.1c2.1-.3,3.9,1,4.2,3.1.3,2-1,3.9-3,4.3-2.1.3-3.9-1-4.2-3.1-.3-2,1-3.9,3-4.3Zm.9,5.2c1-.2,1.5-1,1.4-1.9s-.9-1.5-1.9-1.3-1.5,1-1.4,1.9.9,1.5,1.9,1.3Z"/><path d="m238.3,204.2h-2.4c.2-1,0-2.2-1.5-2.3h-3.2v-2.2l7,.3v2.1h-1.3c.9.3,1.3,1.3,1.3,2.2h0Z"/><circle class="cls-4" cx="201" cy="56.2" r="45"/><path d="m165.2,46l-.6,2.7,8.2,1.8-.5,2.4-8.2-1.8-.6,2.7-2.3-.5,1.7-7.8,2.3.5Z"/><path d="m169.6,38.3l6.9,3.3-1,2.1-.6-.3c.3.7.3,1.5-.2,2.5-.9,1.8-3.2,2.5-5.2,1.5-2.1-1-2.9-3.2-2-5.1.4-.9,1.1-1.4,1.8-1.6l-.6-.3,1-2.1h0Zm2.4,3.7c-1-.5-2,0-2.5.8-.5,1-.1,2,.9,2.5s2,0,2.5-.8c.5-1,.1-2-.9-2.5Z"/><path d="m179.9,32.2c1.7,1.6,1.8,4,.4,5.4-.7.7-1.5,1.1-2.2,1l.5.5-1.6,1.7-7.8-7.3,1.6-1.7,2.8,2.6c0-.8.2-1.6.9-2.3,1.4-1.5,3.8-1.5,5.5,0h0Zm-1.6,1.7c-.8-.8-1.9-.7-2.6,0-.7.8-.7,1.8.1,2.6s1.9.7,2.6,0c.7-.8.7-1.8-.1-2.6Z"/><path d="m177.1,25.4l1.9-1.3,6.4,9.2-1.9,1.3-6.4-9.2Z"/><path d="m189.1,29.3c.6-.2,1-.7,1.1-1.1l2.1.2c-.3,1.3-1.1,2.2-2.4,2.8-2.4,1-4.6,0-5.5-2-.9-2.1,0-4.4,2.2-5.3,2.1-.9,4.3,0,5.2,2.2,0,.3.2.6.3.9l-5,2.1c.6.6,1.3.6,2.1.3h0Zm.2-3.1c-.6-.7-1.3-.7-2-.5-.8.3-1.2,1-1.1,1.8l3-1.3h0Z"/><path d="m195.7,23.7l.5,2.7c0,.6.7.6,1.7.4l.4,2.1c-2.9.8-3.9,0-4.3-2l-.5-2.7-1.2.2-.4-2.2,1.2-.2-.3-1.4,2.1-1.1.4,2.1,1.6-.3.4,2.2-1.6.3h0Z"/><path d="m199.2,23l5.8.2v2.2l-5.9-.2v-2.2h.1Z"/><path d="m215,27.8c-.7,2.2-2.8,3.4-4.7,2.8-1-.3-1.6-.9-1.9-1.6l-.2.7-2.2-.7,3.2-10.2,2.2.7-1.1,3.6c.7-.4,1.5-.5,2.5-.2,1.9.6,3,2.8,2.3,5h0Zm-2.2-.7c.3-1.1-.2-2-1.2-2.3s-2,.1-2.3,1.2.2,2,1.2,2.3,2-.1,2.3-1.2Z"/><path d="m216.2,28.4c1.3-1.9,3.8-2.3,5.6-1s2.4,3.7,1.1,5.6-3.8,2.3-5.6,1c-1.9-1.3-2.4-3.7-1.1-5.6Zm4.8,3.3c.6-.9.4-1.9-.4-2.5s-1.9-.4-2.5.5-.4,1.9.4,2.5,1.9.4,2.5-.5Z"/><path d="m234.4,36l-8.4,6.7-1.4-1.8.6-.5c-.8,0-1.5-.4-2.2-1.2-1.3-1.6-.9-4,.9-5.4s4.2-1.2,5.4.3c.6.8.8,1.6.7,2.4l2.9-2.4,1.4,1.8h0Zm-6.8,2.5c.9-.7,1-1.8.3-2.6-.7-.8-1.7-1-2.6-.2-.9.7-1,1.8-.3,2.6.7.8,1.7,1,2.6.2Z"/><path d="m236.4,47.3l-7.9.5c-2.6.2-4-.7-4.7-2.7l2-.8c.4,1,.9,1.3,1.9,1.3l5.5-5.6,1,2.3-3.7,3.4,4.9-.5,1,2.3v-.2Z"/><path d="m230.9,49.8l4.2,3c.7.5,1.4.9,2,.8.7,0,1.1-.6,1-1.3s-.7-1.2-1.4-1.4l.9-2.2c1.7.5,2.6,1.8,2.8,3.2.3,1.9-.7,3.8-2.9,4.1-1.3.2-2.5-.3-3.6-1.2l-2-1.5.5,3.6-2.3.3-1-7.2s1.8-.2,1.8-.2Z"/><path class="cls-41" d="m182.6,40.9h34.7c.3.2.7.2,1,.5v45.2c0,1.2-.5,2.1-2,2.1h-34.7c-11.6,0-.6,0-.8,0-.5-.6-.5-1.3-.5-2.1v-42.8c.1-1.4.8-2.3,2.1-2.8.1,0,.3,0,.4-.2h-.2Zm24.4,3.2h-22.4c-.9,0-1.1.2-1.1,1.1v40.7c0,.9.2,1.1,1.1,1.1h31.3c.5,0,.8-.3.8-.8v-41.3c0-.5-.3-.8-.9-.8h-8.8Z"/><path class="cls-47" d="m182.7,90.2c-.5-.3-1.1-.4-1.6-.9-.2-.2-.4-.4-.5-.6.3,0,.6,0,.8,0h34.7c1.5,0,2-.8,2-2.1v-45.2c.9.5,1.4,1.3,1.5,2.3v42.9c0,1.9-.7,2.9-2.5,3.5h-34.4v.2Z"/><path class="cls-34" d="m203.2,87h-18.7c-.9,0-1.1-.2-1.1-1.1v-40.7c0-.9.2-1.1,1.1-1.1h2.8c-.2.7-.4,1.4-.5,2.1v.2c-.2,0-.3,0-.4,0-1.1.8-1.6,1.9-1.6,3.2v31.7c0,2.1,1.7,3.9,3.9,3.9h14.6c0,.6-.2,1.1-.3,1.6h.2Z"/><path class="cls-32" d="m207,44.1h8.8c.5,0,.8.3.9.8v41.2c0,.5-.3.8-.8.8h-4v-1.6h0c.2,0,.4,0,.6,0,1.6-.6,2.6-2,2.6-3.7v-31.8c0-2.2-1.7-4-4-4h-5.2c.3-.6.7-1,1-1.5h0Z"/><path class="cls-14" d="m207,44.1c-.4.5-.8,1-1,1.5h-16c-5.3,0-2.1,0-3.1.5,0-.7.3-1.4.5-2.1h19.6Z"/><path class="cls-14" d="m211.9,85.4v1.6h-8.6c0-.5.3-1.1.3-1.6h8.4,0Z"/><path class="cls-63" d="m211.9,85.4h-8.4c.6-4.6-.3-8.8-2.5-12.8-1.5-2.7-3.6-5.1-5.9-7.2-2-1.8-3.8-3.8-5.3-6-2.1-3.3-3.4-6.8-3.3-10.7,0-.7,0-1.5.2-2.2v-.2c1.1-.5,2.1-.5,3.2-.5h15.9c-.3.7-.7,1.3-1,2.1-1.2,2.8-1.5,5.8-.8,8.8.7,2.8,2.2,5.2,4.1,7.4,1.2,1.4,2.7,2.5,3.9,4,1.8,2.4,2,5.1,0,7.4-1,1.1-1.3,2.4-.9,3.8.5,2,.9,4.1.8,6.2h0Z"/><path class="cls-51" d="m186.7,46.4c0,.7-.2,1.5-.2,2.2,0,3.9,1.1,7.5,3.3,10.7,1.5,2.3,3.3,4.2,5.3,6,2.3,2.1,4.3,4.5,5.9,7.2,2.3,4,3.2,8.3,2.5,12.8h-14.6c-2.1,0-3.9-1.7-3.9-3.9v-31.7c0-1.3.5-2.4,1.6-3.2,0,0,.2,0,.3,0h-.2Z"/><path class="cls-33" d="m211.9,85.3c0-2.1-.3-4.1-.8-6.2-.4-1.4,0-2.7.9-3.8,2.1-2.3,1.9-5.1,0-7.4-1.1-1.5-2.6-2.6-3.9-4-1.9-2.1-3.4-4.5-4.1-7.4-.7-3-.4-5.9.8-8.8.3-.7.7-1.4,1-2.1h5.3c2.2,0,4,1.7,4,4v31.8c0,1.7-1,3.1-2.6,3.7-.2,0-.4,0-.6,0h0Z"/><path d="m190.6,77.8v-4.8l8.6-9.1c.9-.9,1.5-1.7,1.9-2.3s.6-1.2.6-1.7-.2-1.2-.6-1.6-1-.6-1.7-.6c-1.5,0-2.7.9-3.5,2.7l-5.7-3.2c.8-1.9,2.1-3.4,3.7-4.4s3.4-1.5,5.4-1.5,4.6.7,6.3,2.2,2.6,3.5,2.6,6-.4,2.9-1.1,4.2c-.7,1.3-1.7,2.6-3.1,4l-3.5,3.7h8.1v6.4h-18.1,0Z"/><circle class="cls-4" cx="88.6" cy="56.2" r="45"/><path d="m55.3,41c1.9.7,2.8,2.8,2,4.7l-.6,1.5,3.1,1.2-.9,2.2-9.8-3.8,1.4-3.7c.7-1.9,2.8-2.9,4.7-2.1h.1Zm-.9,2.2c-.7-.3-1.5,0-1.7.7l-.6,1.5,2.5,1,.6-1.5c.3-.7,0-1.4-.8-1.7Z"/><path d="m62.6,34.5l3.7,2.7-1.3,1.8-3.4-2.5c-.7-.6-1.4-.3-1.9.2-.5.7-.4,1.4.4,2l3.3,2.4-1.3,1.8-8.5-6.2,1.3-1.8,3,2.2c-.2-.7,0-1.5.5-2.3.9-1.2,2.5-1.6,4.2-.4h0Z"/><path d="m64.3,33.9c-1.4-1.8-1.1-4.2.7-5.6,1.7-1.4,4.2-1.1,5.6.6,1.4,1.8,1.1,4.2-.7,5.6-1.7,1.4-4.2,1.1-5.6-.6Zm4.5-3.5c-.7-.8-1.7-.9-2.5-.3s-.9,1.6-.3,2.5c.7.8,1.7.9,2.5.3s.9-1.6.3-2.5Z"/><path d="m78.3,24.6l1.8,4.2-2.1.9-1.7-3.9c-.4-.9-1.1-1-1.7-.7-.8.3-1.1,1-.7,2l1.6,3.8-2.1.9-2.9-6.9,2.1-.9.3.6c.2-.7.7-1.3,1.6-1.7,1.4-.6,3-.1,3.8,1.8h0Z"/><path d="m84.5,26.3c.6,0,1.1-.4,1.3-.8l1.9.8c-.6,1.1-1.6,1.8-3,2-2.5.4-4.4-1.1-4.7-3.4-.3-2.2,1.1-4.1,3.4-4.5,2.2-.3,4,1.2,4.3,3.4v.9l-5.3.7c.4.7,1.1.9,1.9.8h.2Zm1-2.9c-.4-.8-1.1-1-1.7-1-.8.1-1.4.6-1.5,1.4l3.2-.4Z"/><path d="m89.7,22.2l5.7.6-.2,2.1-5.7-.6.2-2.1Z"/><path d="m104.7,27.8c-.8,2.1-2.9,3.1-4.8,2.4-.9-.4-1.5-.9-1.8-1.6l-.3.7-2.1-.8,3.7-9.8,2.1.8-1.3,3.5c.7-.4,1.5-.4,2.4,0,1.8.7,2.7,2.9,1.9,5l.2-.2Zm-2.1-.8c.4-1.1,0-2-1-2.3-1-.4-1.9,0-2.3,1.1-.4,1.1,0,2,1,2.3,1,.4,1.9,0,2.3-1.1Z"/><path d="m105.8,28.5c1.3-1.8,3.8-2.1,5.6-.8,1.8,1.3,2.2,3.8.8,5.5-1.3,1.8-3.8,2.1-5.6.8-1.8-1.3-2.2-3.8-.8-5.5Zm4.6,3.4c.6-.9.5-1.9-.3-2.5s-1.8-.5-2.4.4-.5,1.9.3,2.5,1.8.5,2.4-.4Z"/><path d="m123.3,36.4l-8.3,6.4-1.4-1.8.6-.4c-.8,0-1.5-.4-2.1-1.2-1.2-1.6-.8-3.9,1-5.3s4.1-1.1,5.3.4c.6.8.8,1.6.6,2.3l2.9-2.3,1.4,1.8h0Zm-6.7,2.3c.9-.7,1-1.7.4-2.5s-1.6-1-2.5-.3-1,1.7-.4,2.5,1.6,1,2.5.3Z"/><path d="m125.1,47.4l-7.7.4c-2.5,0-3.9-.7-4.6-2.7l1.9-.8c.4,1,.9,1.3,1.9,1.3l5.5-5.5.9,2.3-3.6,3.3,4.8-.5.9,2.2h0Z"/><path d="m129.1,52.8l-10.3,1.9-.4-2.4,7.8-1.4-.8-1.7,1.9-.9,1.5,2.5.4,2.1h0Z"/><path class="cls-56" d="m78,89.5c0-.2-.2,0-.4-.2-2-.5-3.4-2.3-3.4-4.4v-38.8c0-2.7,1.1-4.2,3.6-5,0,0,0,0,0,0h3.4c.5,1.4,1.1,2.7,1.6,4,0,.3.4.4.7.4h9.7c.4,0,.7-.2.8-.5.2-.5.4-1,.6-1.5.3-.8.7-1.5.9-2.4h3.3c.2.2.5.2.8.3,1.8.6,3,2.3,3.1,4.2v38.8c0,2.8-1.1,4.3-3.8,5.2h-21.1.1Zm23.7-7.3h0v-33.8c0-.4-.3-.2-.5-.2h-25.5c-.4,0-.5,0-.5.5v33.4h26.5Zm-13.1,3.1h-4.4c-.5,0-.7.2-.6.7,0,.4.4.5.7.5h8.6c.5,0,.7-.2.7-.6s-.3-.5-.7-.5h-4.3Z"/><path class="cls-46" d="m95.8,41c-.2.8-.6,1.6-.9,2.4-.2.5-.4,1-.6,1.5,0,.3-.4.6-.8.5h-9.7c-.3,0-.6,0-.7-.4-.5-1.3-1.1-2.6-1.6-3.9h0c0,0,14.4,0,14.4,0h-.1Z"/><path class="cls-2" d="m75.5,82.2c-.2,0,0-.3,0-.4v-33c0-.4,0-.5.5-.5h25.5c.2,0,.4-.2.5.2-.2,0-.3.2-.5.4-.4.5-.7,1-1.1,1.4-1.4,1.8-2.9,3.7-4.3,5.5-1.1,1.5-2.3,2.9-3.4,4.4-1.4,1.8-2.9,3.7-4.3,5.5-1.1,1.5-2.3,2.9-3.4,4.4-1.5,2-3.1,3.9-4.6,5.9-1.1,1.4-2.2,2.8-3.2,4.2-.5.7-1.1,1.3-1.5,2h-.2Z"/><path class="cls-50" d="m75.5,82.2c.4-.7,1-1.3,1.5-2,1.1-1.4,2.2-2.8,3.2-4.2,1.5-2,3.1-3.9,4.6-5.9,1.1-1.5,2.3-2.9,3.4-4.4,1.4-1.8,2.9-3.7,4.3-5.5,1.1-1.5,2.3-2.9,3.4-4.4,1.4-1.8,2.9-3.7,4.3-5.5.4-.5.7-.9,1.1-1.4,0-.2.2-.3.5-.4v33.7h-26.3Z"/><path class="cls-28" d="m88.6,85.3h4.3c.4,0,.7,0,.7.5s-.2.6-.7.6h-8.6c-.3,0-.6,0-.7-.5,0-.4,0-.7.6-.7h4.4Z"/><path d="m86.9,51.9h5.7v25.9h-6.6v-18.9l-4.5,1.1-1.6-5.6,7-2.5Z"/><circle class="cls-4" cx="311.4" cy="56.2" r="45"/><path d="m274.1,47.9l-.6,2.8,8.5,1.8-.5,2.5-8.5-1.8-.6,2.8-2.4-.5,1.7-8.1,2.4.5Z"/><path d="m278.7,39.8l7.2,3.5-1,2.2-.7-.3c.3.7.3,1.6-.2,2.6-.9,1.9-3.3,2.6-5.5,1.6-2.1-1-3.1-3.4-2.1-5.3.5-1,1.1-1.5,1.9-1.7l-.7-.3,1-2.2h.1Zm2.6,3.9c-1.1-.5-2.1,0-2.6.9s-.1,2,.9,2.6c1.1.5,2.1,0,2.6-.9s.1-2-.9-2.6Z"/><path d="m289.4,33.5c1.7,1.6,1.9,4.1.5,5.7-.7.8-1.5,1.1-2.3,1.1l.5.5-1.6,1.8-8.2-7.6,1.6-1.8,2.9,2.7c0-.8.2-1.6.9-2.4,1.4-1.5,4-1.5,5.7,0Zm-1.6,1.8c-.9-.8-2-.7-2.7,0s-.7,1.9.1,2.7c.9.8,2,.7,2.7,0,.8-.8.7-1.9-.1-2.7Z"/><path d="m286.5,26.4l2-1.4,6.7,9.6-2,1.4-6.7-9.6Z"/><path d="m299,30.4c.6-.3,1-.7,1.2-1.2l2.2.3c-.3,1.3-1.2,2.3-2.6,2.9-2.5,1.1-4.8,0-5.7-2.1-.9-2.2,0-4.6,2.2-5.6,2.1-.9,4.4,0,5.4,2.3,0,.3.2.6.3.9l-5.2,2.2c.6.6,1.4.6,2.2.3Zm.2-3.3c-.6-.8-1.4-.8-2.1-.5-.8.4-1.2,1-1.1,1.9l3.2-1.4Z"/><path d="m305.9,24.5l.5,2.8c0,.7.7.6,1.7.4l.4,2.1c-3,.9-4.1.1-4.5-2.1l-.5-2.8-1.3.2-.4-2.3,1.3-.2-.3-1.5,2.2-1.1.4,2.2,1.6-.3.4,2.3-1.6.3h0Z"/><path d="m309.5,23.8l6.1.2v2.3l-6.1-.2v-2.3Z"/><path d="m326,28.7c-.7,2.3-2.9,3.5-4.9,2.9-1-.3-1.7-.9-2-1.6l-.2.7-2.3-.7,3.3-10.7,2.3.7-1.2,3.8c.7-.4,1.5-.5,2.6-.2,2,.6,3.1,2.9,2.4,5.2h0Zm-2.3-.7c.4-1.1-.2-2.1-1.2-2.4-1.1-.3-2,.2-2.4,1.3-.4,1.1.2,2.1,1.2,2.4,1.1.3,2-.2,2.4-1.3Z"/><path d="m327.2,29.3c1.3-2,3.9-2.4,5.9-1.1,2,1.3,2.5,3.9,1.1,5.9-1.3,2-3.9,2.4-5.9,1.1-2-1.3-2.5-3.9-1.1-5.9Zm5,3.4c.6-.9.4-2-.5-2.6s-1.9-.4-2.6.5-.4,2,.5,2.6,1.9.4,2.6-.5Z"/><path d="m346.3,37.1l-8.7,7.1-1.5-1.9.6-.5c-.8,0-1.6-.4-2.3-1.2-1.3-1.6-1-4.1.9-5.6,1.8-1.5,4.4-1.3,5.7.3.7.8.9,1.7.7,2.5l3.1-2.5,1.5,1.9h0Zm-7.1,2.7c.9-.8,1-1.9.3-2.7-.7-.9-1.8-1-2.7-.2-.9.8-1,1.9-.3,2.7.7.9,1.8,1,2.7.2Z"/><path d="m348.4,48.9l-8.2.6c-2.7.2-4.2-.7-5-2.8l2.1-.9c.4,1,1,1.4,2,1.3l5.8-5.9,1,2.4-3.8,3.6,5.1-.6,1,2.4h0Z"/><path d="m352.7,54.8l-11,2-.5-2.5,8.4-1.5-.9-1.9,2-1,1.6,2.7.4,2.2Z"/><path class="cls-42" d="m311.4,43.6h12.4c1.9,0,3.6,1.4,3.6,3.4v34.4c0,1.5-.6,2.6-1.9,3.3-.3.2-.7.2-1,.4h-13.1v-2.4h12.2c.9,0,1.3-.4,1.3-1.2v-34.3c0-.9-.4-1.2-1.3-1.2h-12.2v-2.4Z"/><path class="cls-58" d="m311.4,82.5v2.4h-13.2c0-.2-.4-.2-.5-.2-1.3-.5-2.2-1.7-2.2-3.1v-34.4c0-1.5.6-2.7,2-3.3.4-.2.8-.3,1.2-.3h12.7v2.4h-12.2c-.9,0-1.3.3-1.3,1.3v34c0,.9.3,1.3,1.3,1.3h12.2Z"/><path class="cls-15" d="m311.4,46h12.2c.9,0,1.3.4,1.3,1.2v34c0,.9-.4,1.2-1.3,1.2h-12.2v-2.5h3.5c.5,0,1.1-.4,1.1-.9.2-.9-.4-1.6-1.3-1.6h-3.3v-9.8c.8,0,1.2-.6,1.2-1.4v-4.1c0-.8-.4-1.3-1.2-1.4v-9.8h1.7c.7,0,1.2-.5,1.2-1.2h0c0-.7-.5-1.2-1.2-1.2h-1.7v-2.5h0Zm5.9,18.3v-3.8c0-.5-.2-.9-.6-1.2-.8-.5-1.8,0-1.8,1.1v7.5c0,.5,0,1,.6,1.3.8.5,1.8,0,1.8-1.2v-3.8h0Zm4.7,0v-1c0-.7-.5-1.2-1.2-1.2h0c-.7,0-1.2.5-1.2,1.1v2.1c0,.7.6,1.2,1.3,1.1.6,0,1.1-.6,1.1-1.2v-1h0Z"/><path class="cls-10" d="m311.4,46v2.5h-1.6c-.8,0-1.3.5-1.3,1.2s.6,1.2,1.3,1.2h1.6v9.8h0c-.8,0-1.2.7-1.2,1.5v3.9c0,.8.5,1.5,1.2,1.5h0v9.9h-3.3c-.8,0-1.3.5-1.3,1.2s.6,1.2,1.3,1.2h3.3v2.5h-12.2c-.9,0-1.3-.3-1.3-1.3v-33.8c0-.9.3-1.3,1.3-1.3h12.2Zm-3.6,18.2v-5.9c-.2-.5-.8-.8-1.3-.8s-1,.6-1,1.2v10.9c0,.7.5,1.2,1.2,1.2h0c.7,0,1.2-.6,1.1-1.3v-5.4h0Zm-4.7,0v-2.2c0-.7-.5-1.3-1.2-1.3s-1.2.6-1.2,1.3v4.3c0,.7.5,1.3,1.2,1.3s1.2-.6,1.2-1.3v-2.1Z"/><path class="cls-45" d="m317.3,64.3v3.8c0,1.1-1,1.7-1.8,1.2-.5-.3-.6-.8-.6-1.3v-7.5c0-1.1,1-1.7,1.8-1.1.4.3.6.7.6,1.2v3.8h0Z"/><path class="cls-61" d="m311.4,77.6h3.3c.9,0,1.5.7,1.3,1.6,0,.4-.6.8-1.1.9h-3.5v-2.4h0Z"/><path class="cls-23" d="m322,64.3v1c0,.7-.6,1.2-1.2,1.2s-1.1-.5-1.2-1.1v-2.1c0-.7.6-1.1,1.2-1.1s1.2.5,1.2,1.2h0v1h0Z"/><path class="cls-12" d="m311.4,60.8c.8,0,1.2.6,1.2,1.4v4.1c0,.8-.4,1.3-1.2,1.4h0v-6.9h0Z"/><path class="cls-61" d="m311.4,48.5h1.7c.8,0,1.2.5,1.2,1.2s-.5,1.2-1.2,1.2h-1.7v-2.4h0Z"/><path class="cls-55" d="m307.8,64.2v5.4c0,.7-.5,1.3-1.1,1.3s-1.2-.5-1.3-1.2h0v-10.9c0-.6.5-1.2,1-1.2s1.1.2,1.3.8v5.9h0Z"/><path class="cls-55" d="m303.1,64.3v2.1c0,.7-.5,1.3-1.2,1.3s-1.2-.6-1.2-1.3v-4.3c0-.7.5-1.3,1.2-1.3s1.2.6,1.2,1.3v2.2Z"/><path class="cls-24" d="m311.4,77.6v2.4h-3.3c-.8,0-1.3-.5-1.3-1.2s.6-1.2,1.3-1.2c1.1,0,2.2,0,3.3,0Z"/><path class="cls-44" d="m311.4,60.8v6.9c-.8,0-1.2-.7-1.2-1.5v-3.9c0-.8.5-1.5,1.2-1.5Z"/><path class="cls-30" d="m311.4,48.5v2.4h-1.6c-.8,0-1.3-.6-1.3-1.2s.5-1.2,1.3-1.2h1.6Z"/><path d="m309.7,50.9h5.7v25.9h-6.6v-18.9l-4.5,1.1-1.6-5.6,7-2.5Z"/><circle class="cls-4" cx="90.2" cy="343.8" r="45"/><path d="m56.8,328.2c1.9.7,2.8,2.8,2.1,4.7l-.6,1.5,3.1,1.2-.8,2.2-9.8-3.7,1.4-3.7c.7-1.9,2.8-2.9,4.7-2.2h-.1Zm-.8,2.2c-.7-.3-1.5,0-1.7.7l-.5,1.5,2.5.9.6-1.5c.3-.7-.1-1.4-.8-1.7h-.1Z"/><path d="m64,321.7l3.7,2.7-1.3,1.8-3.5-2.5c-.8-.5-1.4-.3-1.9.3-.5.7-.4,1.4.4,2l3.3,2.4-1.3,1.8-8.5-6.2,1.3-1.8,3,2.2c-.2-.7,0-1.5.5-2.3.9-1.2,2.5-1.6,4.2-.5h0Z"/><path d="m65.8,321c-1.4-1.7-1.1-4.2.6-5.6s4.2-1.1,5.6.6,1.1,4.2-.6,5.6-4.2,1.1-5.6-.6Zm4.4-3.6c-.7-.8-1.7-.9-2.5-.3s-.9,1.6-.2,2.5c.7.8,1.7.9,2.5.3s.9-1.6.2-2.5Z"/><path d="m79.6,311.6l1.8,4.2-2.1.9-1.7-3.9c-.4-.9-1.1-1-1.7-.7-.8.3-1.1,1-.7,2l1.6,3.8-2.1.9-3-6.9,2.1-.9.3.6c0-.7.7-1.3,1.6-1.7,1.4-.6,3-.1,3.8,1.7h.1Z"/><path d="m85.8,313.3c.6,0,1.1-.4,1.3-.8l1.9.8c-.6,1.1-1.6,1.8-3,2-2.5.4-4.4-1.1-4.7-3.3s1-4.2,3.4-4.5c2.2-.3,4,1.1,4.3,3.4v.9l-5.3.8c.4.7,1.1.9,1.9.8h.2Zm1-2.9c-.4-.8-1.1-1-1.7-.9-.8.1-1.3.6-1.4,1.4l3.2-.5h0Z"/><path d="m91,309.1l5.7.6-.2,2.2-5.7-.6.2-2.1h0Z"/><path d="m106.1,314.6c-.8,2.1-2.9,3.2-4.7,2.5-.9-.3-1.5-.9-1.8-1.6l-.2.7-2.1-.8,3.6-9.8,2.1.8-1.3,3.5c.7-.4,1.5-.4,2.4,0,1.8.7,2.8,2.9,2,5v-.3Zm-2.1-.8c.4-1.1,0-2-1-2.3-1-.4-1.9,0-2.3,1.1-.4,1.1,0,2,1,2.3,1,.4,1.9,0,2.3-1.1Z"/><path d="m107.2,315.2c1.3-1.8,3.8-2.1,5.5-.8s2.2,3.7.9,5.5c-1.3,1.8-3.8,2.1-5.5.8-1.8-1.3-2.2-3.7-.9-5.5Zm4.6,3.4c.6-.9.4-1.9-.3-2.4-.8-.6-1.8-.5-2.4.4s-.4,1.9.3,2.4c.8.6,1.8.5,2.4-.4Z"/><path d="m124.8,323l-8.3,6.5-1.4-1.8.6-.4c-.8,0-1.5-.4-2.1-1.2-1.2-1.5-.8-3.9.9-5.3,1.8-1.4,4.1-1.2,5.3.4.6.8.8,1.6.7,2.3l2.9-2.3,1.4,1.8Zm-6.7,2.4c.9-.7,1-1.7.3-2.5-.6-.8-1.7-1-2.5-.3-.9.7-1,1.7-.3,2.5.6.8,1.7,1,2.5.3Z"/><path d="m126.7,334l-7.7.5c-2.5.2-3.9-.7-4.6-2.7l1.9-.8c.4,1,.9,1.3,1.9,1.2l5.4-5.5,1,2.3-3.6,3.3,4.8-.5.9,2.2h0Z"/><path d="m121.4,336.4l4.2,2.9c.7.5,1.4.9,2,.8.7,0,1-.6.9-1.3s-.7-1.2-1.4-1.3l.8-2.2c1.6.4,2.6,1.7,2.8,3.1.3,1.9-.7,3.7-2.7,4-1.2.2-2.4-.3-3.5-1.1l-2-1.4.6,3.5-2.3.4-1.1-7.1s1.7-.3,1.7-.3Z"/><path class="cls-48" d="m95.6,328h6.1c1.7,0,3.3,1.6,3.4,3.3v41.4c0,1.9-.9,3.2-2.5,3.8-.4,0-.8.2-1.1.2h-22.6c-2,0-3.7-1.7-3.7-3.7v-4h1.8v4c0,1.2.8,1.9,2,1.9h22.2c1.2,0,2-.8,2-2v-41c0-1.2-.8-2-1.9-2h-4.6c0-.8-.7-1.3-1.1-1.9Z"/><path class="cls-7" d="m95.6,328c.4.6,1,1.1,1.1,1.8h-17.3c-1.7,0-2.4.7-2.4,2.4v36.7h-1.8v-36.9c0-1.7.7-3,2.3-3.7.4-.2.8-.3,1.3-.3h16.9,0Z"/><path class="cls-62" d="m77,369v-36.7c0-1.7.7-2.4,2.4-2.4h17.4v36c0,1.7-1.3,3.1-3,3.1h-16.8Zm13.1-33.5h3.6c1.1,0,2-.8,2-1.8s-.8-1.9-2-1.9h-7.2c-1.1,0-2,.8-2,1.8s.8,1.9,2,1.9h3.6Zm-4.2,22.9c.2,0,.5-.2.6-.3l9.2-9.2c.2-.2.4-.5.3-.8s-.2-.6-.6-.7c-.4,0-.8,0-1.1.3-3,3-6.1,6.1-9.1,9.1l-.2.2c-.2.3-.2.6,0,.9.2.3.5.5.9.5h0Zm5.7-11.1c0-.4-.3-.7-.6-.9-.5-.2-.8,0-1.1.4l-5.5,5.5c-.5.5-.5,1.1,0,1.4s1,.4,1.4,0c1.9-1.8,3.7-3.7,5.6-5.5.2-.2.3-.4.4-.7h0l-.2-.2Z"/><path class="cls-39" d="m77.1,369h16.7c1.8,0,3-1.3,3-3.1v-36h4.5c1.2,0,1.9.8,1.9,2v41c0,1.2-.8,2-2,2h-22.2c-1.1,0-1.9-.7-2-1.9v-4h0Zm13.1,3.1h-5.4c-.7,0-1.2.3-1.2.9s.4,1,1.1,1h10.8c.7,0,1.2-.4,1.1-.9s-.4-.9-1.2-.9h-5.4.2Z"/><path class="cls-38" d="m90.1,335.5h-3.6c-1.2,0-2-.8-2-1.9s.8-1.8,2-1.8h7.2c1.2,0,2,.8,2,1.9s-.9,1.8-2,1.8h-3.6Z"/><path class="cls-29" d="m85.9,358.4c-.4,0-.7-.2-.9-.5-.2-.3,0-.7,0-.9l.2-.2c3-3,6.1-6.1,9.1-9.1.3-.3.7-.4,1.1-.3.4,0,.5.4.6.7s0,.6-.3.8l-9.2,9.2c-.2.2-.4.3-.6.3Z"/><path class="cls-16" d="m90.1,372h5.4c.7,0,1.2.3,1.2.9s-.4.9-1.1.9h-10.8c-.7,0-1.2-.4-1.1-1s.4-.9,1.2-.9h5.4-.2Z"/><path d="m80.6,366.1v-4.8l8.6-9.1c.9-.9,1.5-1.7,1.9-2.3s.6-1.2.6-1.7-.2-1.2-.6-1.6-1-.6-1.7-.6c-1.5,0-2.7.9-3.5,2.7l-5.7-3.2c.8-1.9,2.1-3.4,3.7-4.4,1.6-1,3.4-1.5,5.4-1.5s4.6.7,6.3,2.2c1.8,1.5,2.6,3.5,2.6,6s-.4,2.9-1.1,4.2c-.7,1.3-1.7,2.6-3.1,4l-3.5,3.7h8.1v6.4h-18.1,0Z"/><circle class="cls-4" cx="200.9" cy="343.8" r="45"/><path d="m166.5,329.9c1.9.6,3,2.6,2.4,4.6l-.5,1.5,3.2,1-.7,2.3-10-3.1,1.2-3.8c.6-2,2.6-3,4.5-2.5h0Zm-.7,2.3c-.7-.2-1.4,0-1.7.8l-.5,1.5,2.6.8.5-1.5c.2-.7-.2-1.4-.9-1.6Z"/><path d="m173.3,322.9l3.9,2.5-1.2,1.9-3.6-2.3c-.8-.5-1.5-.2-1.9.4-.4.7-.3,1.4.6,2l3.5,2.2-1.2,1.9-8.9-5.6,1.2-1.9,3.1,2c-.2-.6-.2-1.5.4-2.3.8-1.3,2.4-1.8,4.1-.7h0Z"/><path d="m175,322.2c-1.5-1.7-1.3-4.1.3-5.6,1.6-1.5,4.1-1.4,5.6.3s1.3,4.1-.3,5.6c-1.6,1.5-4.1,1.4-5.6-.3Zm4.2-3.8c-.7-.8-1.7-.8-2.5-.2-.7.7-.8,1.7,0,2.5.7.8,1.7.8,2.5.2.7-.7.8-1.7,0-2.5Z"/><path d="m188.3,312l2.1,4.1-2,1-1.9-3.8c-.4-.8-1.1-1-1.8-.6s-1,1.1-.5,2l1.9,3.7-2,1-3.4-6.7,2-1,.3.6c0-.7.6-1.3,1.5-1.8,1.4-.7,3-.3,3.9,1.5h-.1Z"/><path d="m194.6,313.2c.6-.1,1.1-.5,1.3-.9l2,.6c-.5,1.1-1.5,1.9-2.9,2.2-2.5.5-4.4-.8-4.9-3s.8-4.2,3.1-4.7c2.1-.4,4.1.9,4.5,3.1v.9l-5.2,1.1c.4.7,1.2.8,2,.7h.1Zm.8-3c-.4-.8-1.1-1-1.8-.8-.8.2-1.3.7-1.4,1.5l3.2-.7Z"/><path d="m199.5,308.8l5.7.2v2.2l-5.8-.2v-2.2h0Z"/><path d="m214.8,313.4c-.7,2.1-2.7,3.3-4.6,2.7-1-.3-1.6-.8-1.9-1.5l-.2.7-2.2-.7,3.1-10,2.2.7-1.1,3.5c.6-.4,1.4-.5,2.4-.2,1.9.6,2.9,2.7,2.3,4.8Zm-2.2-.7c.3-1.1-.2-2-1.2-2.3s-1.9.2-2.2,1.2.2,2,1.2,2.3,1.9-.2,2.2-1.2Z"/><path d="m216,313.9c1.2-1.9,3.6-2.4,5.5-1.2,1.9,1.2,2.4,3.6,1.2,5.5s-3.6,2.4-5.5,1.2c-1.9-1.2-2.4-3.6-1.2-5.5Zm4.8,3.1c.6-.9.3-1.9-.5-2.4s-1.8-.3-2.4.6-.3,1.9.5,2.4,1.8.3,2.4-.6Z"/><path d="m234,320.6l-7.9,6.9-1.5-1.7.5-.5c-.8,0-1.5-.3-2.2-1.1-1.3-1.5-1.1-3.8.6-5.3,1.7-1.5,4-1.4,5.3,0,.7.8.9,1.5.8,2.3l2.8-2.4,1.5,1.7h0Zm-6.6,2.8c.8-.7.9-1.8.2-2.5-.7-.8-1.7-.9-2.6-.1s-.9,1.8-.2,2.5c.7.8,1.7.9,2.6.1Z"/><path d="m236.5,331.5l-7.7.9c-2.5.3-4-.5-4.8-2.4l1.9-.9c.5.9,1,1.2,1.9,1.1l5.1-5.9,1.1,2.2-3.4,3.5,4.7-.8,1.1,2.2h.1Z"/><path d="m234.5,340.9c-2.3.5-3.8-1-4.3-2.9-.4-1.5,0-3.1,1.4-4.1l1.6,1.8c-.6.4-.9.9-.7,1.8.2,1,.8,1.3,1.5,1.1.6,0,1-.7.8-1.6v-.5c0,0,1-1.2,1-1.2l2.8,1.3-.9-3.7,2.2-.5,1.5,6.6-1.9.4-2.7-1.3c-.2,1.4-1,2.5-2.4,2.8h0Z"/><path class="cls-9" d="m190.4,376.7c0-.2-.3,0-.4-.2-2.9-.7-4.8-3.1-4.8-6.1v-37.4c0-2.7,1.3-4.7,3.7-5.9s1.4-.5,2.1-.5h9.8v9.2h-3.7c-2.2-.2-4-2.1-4.1-4.3,0-1.1-.5-1.7-1.3-1.9-.5,0-.9,0-1.3,0-1.4.5-2.3,1.7-2.3,3.4v37.8c.2,1.7,1.7,2.9,3.3,2.8h9.3v2.9h-10.5.2Z"/><path class="cls-35" d="m200.9,335.9v-9.2h10c2.7,0,5.3,2.6,5.6,5.2v38.5c0,3-1.9,5.5-4.8,6.2-.2,0-.4,0-.5,0h-10.4v-2.9h10.1c1.6-.4,2.6-1.7,2.6-3.4v-37.6c0-1.6-1.1-3-2.7-3.2-1.2-.2-2.2.5-2.3,1.7,0,2.6-2.1,4.5-4.7,4.6h-3.1.2Z"/><path class="cls-22" d="m191.6,373.8c-1.7,0-3.1-1.1-3.3-2.8v-37.8c0-1.7.8-2.9,2.3-3.4.4-.2.9-.2,1.3,0,.9.2,1.3.8,1.3,1.9,0,2.2,1.9,4.1,4.1,4.3h3.7v3.3h-7.8c-.9,0-1.5.6-1.5,1.5v14.1c0,.9.6,1.5,1.5,1.5h7.8v3.3c-.2,0-.5,0-.8,0h-7.1c-.2,0-.5,0-.7,0-.6.4-.9,1.1-.7,1.7s.8,1,1.5,1h7.8v3.3h-7.6c-1.1,0-1.7.5-1.7,1.7v6.4Z"/><path class="cls-27" d="m191.6,373.8v-6.2c0-1.1.5-1.7,1.7-1.7h7.6v7.8h-9.3Z"/><path class="cls-17" d="m200.9,339.2v-3.3h3.1c2.6,0,4.6-1.9,4.7-4.6,0-1.2,1-1.9,2.3-1.7,1.6.3,2.7,1.7,2.7,3.2v37.5c0,1.7-1,3-2.6,3.4h-.7v-5.6c0-1.8-.4-2.3-2.3-2.3h-7.1v-3.3h1.6c.7,0,1.4-.6,1.4-1.3s-.5-1.4-1.2-1.5c-.6,0-1.2,0-1.8,0h0v-3.3h7.6c1,0,1.7-.7,1.7-1.7v-13.6c0-4.5-.5-1.8-1.8-1.8h-7.6Zm7.8,23.3c.8,0,1.5-.6,1.5-1.4s-.6-1.5-1.4-1.5h0c-.7,0-1.6.8-1.5,1.5,0,.6.4,1.4,1.4,1.4h0Z"/><path class="cls-36" d="m200.9,365.9h7.1c1.9,0,2.3.4,2.3,2.3v5.6h-9.4v-7.8h0Z"/><path class="cls-59" d="m200.9,339.2h7.5c1.2,0,1.8.6,1.8,1.8v13.6c0,1-.7,1.7-1.7,1.7h-7.6v-17h0Z"/><path class="cls-20" d="m200.9,339.3v17h-7.8c-.9,0-1.5-.6-1.5-1.5v-14.1c0-.9.6-1.5,1.5-1.5h7.8Z"/><path class="cls-43" d="m200.9,362.6h-7.8c-.7,0-1.3-.4-1.5-1s0-1.3.7-1.7c.2,0,.4,0,.7,0h7.9v2.9h0Z"/><path class="cls-13" d="m200.9,362.5v-2.9h1.8c.7.2,1.2.8,1.2,1.5s-.7,1.3-1.4,1.3h-1.6Z"/><path class="cls-53" d="m208.7,362.5c-1,0-1.4-.8-1.4-1.4s.8-1.5,1.5-1.5,1.5.7,1.4,1.5h0c0,.8-.6,1.4-1.5,1.4Z"/><path d="m204.3,352c1.7.5,3,1.4,4,2.7s1.5,2.8,1.5,4.6c0,2.8-.9,4.9-2.7,6.4s-4.1,2.3-6.8,2.3-4.1-.5-5.7-1.5-2.9-2.4-3.6-4.4l5.8-3.3c.5,1.8,1.7,2.7,3.6,2.7s1.7-.2,2.2-.7c.5-.4.8-1,.8-1.8s-.3-1.3-.8-1.8c-.5-.4-1.2-.6-2.2-.6h-1.4l-2.6-3.8,4.1-5.1h-8.7v-6.3h16.8v5.2l-4.3,5.3h0Z"/><circle class="cls-4" cx="310.2" cy="343.8" r="45"/><path class="cls-18" d="m310.2,328.4h11c1.9,0,3.7,1.7,3.9,3.6v41.3c0,2.2-1.2,3.9-3.2,4.5-.2,0-.4,0-.5.2h-11.3v-2.9h10.2c1.3,0,1.8-.5,1.8-1.8v-40.2c0-1.3-.5-1.8-1.8-1.8h-10.2v-2.9h0Z"/><path class="cls-21" d="m310.2,328.4v2.9h-10.6c-.4,0-.7.2-1,.4-.4.4-.5.9-.5,1.4v40.4c0,.9.6,1.5,1.6,1.5h10.5v2.9h-11.4c0,0-.2,0-.3-.2-2-.6-3.1-2-3.3-4.1v-40.5c0-2.2,1.1-3.8,2.9-4.5.4,0,.8-.2,1.2-.2h10.9Z"/><path class="cls-15" d="m310.2,331.3h10.2c1.3,0,1.8.5,1.8,1.8v40.1c0,1.3-.5,1.8-1.8,1.8h-10.2v-3.1h4.1c.8,0,1.4-.6,1.4-1.4s-.6-1.5-1.6-1.5h-3.9v-7.8c1,0,1.4-.6,1.4-1.6v-12.9c0-1-.5-1.5-1.4-1.6v-8.1h1.9c.9,0,1.5-.8,1.6-1.4,0-.8-.7-1.5-1.6-1.5h-1.9v-2.8h0Zm4.2,21.8v2.7c0,.9.6,1.5,1.4,1.5s1.5-.6,1.5-1.4h0v-5.4c0-.8-.7-1.5-1.5-1.4h0c-.8,0-1.4.7-1.4,1.6v2.6h0v-.2Z"/><path class="cls-11" d="m310.2,331.3v2.8h-2c-.8,0-1.5.7-1.5,1.5s.7,1.4,1.5,1.4h1.9v8.1h0c-.9,0-1.4.6-1.4,1.5v13.1c0,.9.6,1.4,1.4,1.5h0v7.8h-3.9c-.9,0-1.6.6-1.6,1.5s.7,1.4,1.6,1.4h3.9v3.1h-10.5c-.9,0-1.5-.6-1.6-1.5v-40.4c0-.5,0-1,.5-1.4.3-.3.6-.4,1-.4h10.7Zm-4.2,21.9v-2.8c0-.2,0-.5-.2-.6-.3-.5-1-.9-1.5-.7-.8.2-1.2.7-1.2,1.5v5.3c0,.8.7,1.5,1.5,1.5s1.4-.6,1.4-1.6v-2.6Z"/><path class="cls-12" d="m310.2,345.1c1,0,1.4.6,1.4,1.6v12.9c0,1-.4,1.5-1.4,1.6h0v-16.1h0Z"/><path class="cls-45" d="m314.4,353.1v-2.6c0-.9.6-1.5,1.4-1.6.8,0,1.5.6,1.5,1.4h0v5.4c0,.8-.7,1.4-1.5,1.4h0c-.8,0-1.4-.7-1.4-1.5v-2.7h0v.2Z"/><path class="cls-61" d="m310.2,369h3.9c1,0,1.6.6,1.6,1.5s-.6,1.4-1.4,1.4h-4.1v-2.9h0Z"/><path class="cls-61" d="m310.2,334.1h1.9c.8,0,1.6.7,1.6,1.5s-.7,1.5-1.6,1.4h-1.9v-2.9h0Z"/><path class="cls-44" d="m310.2,345.1v16.1c-.9,0-1.4-.6-1.4-1.5v-13.1c0-.9.5-1.4,1.4-1.5Z"/><path class="cls-55" d="m305.9,353.2v2.6c0,.9-.5,1.5-1.4,1.6-.7,0-1.5-.6-1.5-1.5v-5.3c0-.8.5-1.3,1.2-1.5.5,0,1.2.2,1.5.7,0,.2.2.4.2.6v2.8Z"/><path class="cls-24" d="m310.2,369v2.9h-3.9c-.9,0-1.6-.6-1.6-1.4s.7-1.4,1.6-1.5h3.9Z"/><path class="cls-24" d="m310.2,334.1v2.9h-1.9c-.9,0-1.5-.6-1.5-1.4s.7-1.5,1.5-1.5h2,0Z"/><path d="m277.2,328.5c1.8.7,2.7,2.8,2,4.8l-.6,1.5,3.1,1.2-.9,2.2-9.7-3.9,1.5-3.7c.8-1.9,2.9-2.8,4.7-2.1h-.1Zm-.9,2.2c-.7-.3-1.5,0-1.7.7l-.6,1.5,2.5,1,.6-1.5c.3-.7,0-1.4-.8-1.7Z"/><path d="m284.6,322.2l3.7,2.8-1.4,1.8-3.4-2.6c-.7-.6-1.4-.4-1.9.2-.5.7-.5,1.4.4,2l3.3,2.5-1.4,1.8-8.3-6.4,1.4-1.8,2.9,2.2c-.2-.7,0-1.5.6-2.3.9-1.2,2.6-1.6,4.2-.3h-.1Z"/><path d="m286.3,321.6c-1.4-1.8-1-4.2.8-5.6,1.8-1.3,4.2-1,5.6.7,1.4,1.8,1,4.2-.8,5.6-1.8,1.3-4.2,1-5.6-.7Zm4.5-3.5c-.6-.8-1.7-1-2.4-.4s-.9,1.6-.3,2.5c.6.8,1.7,1,2.4.4.8-.6.9-1.6.3-2.5Z"/><path d="m300.4,312.6l1.7,4.3-2.1.8-1.6-4c-.4-.9-1.1-1-1.7-.8-.8.3-1.1,1-.7,2l1.5,3.8-2.1.8-2.8-7,2.1-.8.3.7c.2-.7.7-1.3,1.6-1.7,1.4-.6,3,0,3.8,1.8h0Z"/><path d="m306.6,314.4c.6,0,1.1-.4,1.4-.7l1.9.8c-.6,1.1-1.6,1.8-3.1,1.9-2.5.3-4.3-1.2-4.6-3.4-.3-2.2,1.1-4.1,3.5-4.4,2.2-.3,4,1.2,4.3,3.5v.9l-5.3.6c.4.7,1.1.9,1.9.8Zm1-2.9c-.3-.8-1-1.1-1.7-1-.8.1-1.4.6-1.5,1.4l3.2-.4Z"/><path d="m311.8,310.3l5.7.7-.3,2.1-5.7-.7.3-2.1Z"/><path d="m326.8,316.2c-.8,2.1-3,3.1-4.8,2.3-.9-.4-1.5-1-1.7-1.7l-.3.7-2.1-.8,3.9-9.8,2.1.8-1.4,3.4c.7-.3,1.5-.4,2.4,0,1.8.7,2.7,2.9,1.9,5h0Zm-2.1-.8c.4-1,0-2-1-2.4s-1.9,0-2.3,1c-.4,1,0,2,1,2.4s1.9,0,2.3-1Z"/><path d="m327.8,316.9c1.4-1.8,3.8-2,5.6-.7,1.7,1.3,2.1,3.8.7,5.6-1.4,1.8-3.8,2-5.6.7-1.7-1.3-2.1-3.8-.7-5.6Zm4.5,3.5c.7-.8.5-1.9-.3-2.5s-1.8-.5-2.4.3c-.7.8-.5,1.9.3,2.5s1.8.5,2.4-.3Z"/><path d="m345.3,325.1l-8.4,6.2-1.3-1.8.6-.4c-.8,0-1.5-.4-2.1-1.3-1.2-1.6-.7-3.9,1.1-5.2,1.8-1.3,4.1-1.1,5.3.5.6.8.8,1.6.6,2.3l3-2.2,1.3,1.8h0Zm-6.8,2.2c.9-.7,1-1.7.4-2.5s-1.6-1-2.5-.3-1,1.7-.4,2.5,1.6,1,2.5.3Z"/><path d="m346.8,336.2l-7.7.3c-2.5,0-3.9-.8-4.6-2.8l2-.8c.4,1,.9,1.3,1.8,1.3l5.6-5.4.9,2.3-3.7,3.2,4.8-.4.9,2.2h0Z"/><path d="m342.5,346.6v-1c0,0-1.8.2-1.8.2l-.3-2.4,1.7-.2-.6-4.7,2.2-.3,7,2.5.3,2.6-7-2.5.3,2.2,2.2-.3.3,2.4-2.2.3v1c0,0-2.1.3-2.1.3h0Z"/><path d="m320.4,354.4v6h-2.6v4h-6.6v-4h-11.4v-6.1l7.7-15.8h7.3l-7.8,15.9h4.1v-4.7h6.6v4.7h2.7Z"/></svg>