<svg width="238" height="59" viewBox="0 0 238 59" fill="none" xmlns="http://www.w3.org/2000/svg">
<g filter="url(#filter0_d_3017_18603)">
<path d="M4 0H234L207.388 46.007C205.601 49.0971 202.302 51 198.732 51H39.2681C35.6983 51 32.3993 49.0971 30.6119 46.007L4 0Z" fill="url(#paint0_linear_3017_18603)"/>
</g>
<path d="M42.6976 19.96H45.2576V22.54H42.6976V19.96ZM46.2976 19.96H48.8576V22.54H46.2976V19.96ZM40.8176 22.54V24.78C40.8176 25.38 41.0309 25.9 41.4576 26.34C41.8842 26.7667 42.3976 26.98 42.9976 26.98H49.3576C49.7442 26.98 50.0576 26.8533 50.2976 26.6C50.5509 26.3333 50.6776 26.0067 50.6776 25.62V22.54H53.5576V26.04C53.5576 26.3067 53.6442 26.5333 53.8176 26.72C53.9909 26.8933 54.2109 26.98 54.4776 26.98H55.3176C55.4509 26.98 55.5176 27.0467 55.5176 27.18V29.8C55.5176 29.9333 55.4509 30 55.3176 30H54.4776C53.4509 30 52.6309 29.6333 52.0176 28.9C51.3109 29.6333 50.4242 30 49.3576 30H42.9976C42.0776 30 41.2309 29.7733 40.4576 29.32C39.6842 28.8667 39.0709 28.2533 38.6176 27.48C38.1642 26.7067 37.9376 25.86 37.9376 24.94V22.54H40.8176ZM58.8784 13.82H61.4584V16.38H58.8784V13.82ZM55.3184 30C55.185 30 55.1184 29.9333 55.1184 29.8V27.18C55.1184 27.0467 55.185 26.98 55.3184 26.98H60.1984C60.465 26.98 60.685 26.8933 60.8584 26.72C61.0317 26.5467 61.1184 26.3267 61.1184 26.06V25.86H60.1584C59.425 25.86 58.745 25.6933 58.1184 25.36C57.505 25.0133 57.0117 24.5467 56.6384 23.96C56.2784 23.3733 56.0984 22.7267 56.0984 22.02C56.0984 21.2733 56.285 20.5933 56.6584 19.98C57.0317 19.3533 57.525 18.86 58.1384 18.5C58.765 18.1267 59.4384 17.94 60.1584 17.94C60.8784 17.94 61.525 18.12 62.0984 18.48C62.685 18.84 63.145 19.3333 63.4784 19.96C63.8117 20.5867 63.9784 21.2733 63.9784 22.02V26.22C63.9784 26.9 63.8117 27.5333 63.4784 28.12C63.145 28.6933 62.6917 29.1533 62.1184 29.5C61.545 29.8333 60.9117 30 60.2184 30H55.3184ZM61.2984 21.92C61.2984 21.5733 61.1784 21.28 60.9384 21.04C60.6984 20.8 60.405 20.68 60.0584 20.68C59.6984 20.68 59.3984 20.8 59.1584 21.04C58.9184 21.28 58.7984 21.5733 58.7984 21.92C58.7984 22.28 58.9184 22.5867 59.1584 22.84C59.3984 23.08 59.6984 23.2 60.0584 23.2H61.2984V21.92ZM69.2757 30C68.5824 30 67.949 29.8333 67.3757 29.5C66.8024 29.1533 66.349 28.6933 66.0157 28.12C65.6824 27.5333 65.5157 26.9 65.5157 26.22V16.52H68.3957V26.04C68.3957 26.3067 68.4824 26.5333 68.6557 26.72C68.829 26.8933 69.0424 26.98 69.2957 26.98H70.3957C70.529 26.98 70.5957 27.0467 70.5957 27.18V29.8C70.5957 29.9333 70.529 30 70.3957 30H69.2757ZM70.3965 30C70.2632 30 70.1965 29.9333 70.1965 29.8V27.18C70.1965 27.0467 70.2632 26.98 70.3965 26.98H75.2165C75.4698 26.98 75.6832 26.8867 75.8565 26.7C76.0432 26.5133 76.1365 26.2933 76.1365 26.04V21.94H78.9965V26.22C78.9965 26.9 78.8232 27.5333 78.4765 28.12C78.1432 28.6933 77.6898 29.1533 77.1165 29.5C76.5432 29.8333 75.9165 30 75.2365 30H70.3965ZM70.5765 31.72H73.1565V34.28H70.5765V31.72ZM74.1765 31.72H76.7365V34.28H74.1765V31.72ZM80.9191 18.26H83.4791V20.82H80.9191V18.26ZM77.7391 33.26C78.6858 32.7133 79.3591 32.2733 79.7591 31.94C80.1591 31.6067 80.4258 31.2467 80.5591 30.86C80.6925 30.4733 80.7591 29.9133 80.7591 29.18V22.54H83.6391V29.18C83.6391 30.3 83.4991 31.22 83.2191 31.94C82.9391 32.66 82.4591 33.3 81.7791 33.86C81.0991 34.4333 80.1125 35.04 78.8191 35.68L77.7391 33.26ZM89.0804 30C88.3871 30 87.7537 29.8333 87.1804 29.5C86.6071 29.1533 86.1537 28.6933 85.8204 28.12C85.4871 27.5333 85.3204 26.9 85.3204 26.22V16.52H88.2004V26.04C88.2004 26.3067 88.2871 26.5333 88.4604 26.72C88.6337 26.8933 88.8471 26.98 89.1004 26.98H90.2004C90.3337 26.98 90.4004 27.0467 90.4004 27.18V29.8C90.4004 29.9333 90.3337 30 90.2004 30H89.0804ZM90.2012 30C90.0678 30 90.0012 29.9333 90.0012 29.8V27.18C90.0012 27.0467 90.0678 26.98 90.2012 26.98H91.2812C91.5345 26.98 91.7478 26.8867 91.9212 26.7C92.1078 26.5133 92.2012 26.2933 92.2012 26.04V21.94H95.0612V26.22C95.0612 26.9 94.8945 27.5333 94.5612 28.12C94.2278 28.6933 93.7745 29.1533 93.2012 29.5C92.6278 29.8333 91.9945 30 91.3012 30H90.2012ZM90.1812 31.7H92.7612V34.26H90.1812V31.7ZM113.867 26.98C114 26.98 114.067 27.0467 114.067 27.18V29.8C114.067 29.9333 114 30 113.867 30H113.027C112 30 111.194 29.62 110.607 28.86C110.194 29.22 109.734 29.5 109.227 29.7C108.734 29.9 108.214 30 107.667 30H99.927V26.98H101.547L100.307 24.78L101.847 23.88L101.747 23.92C101.987 23.7867 102.147 23.58 102.227 23.3C102.307 23.02 102.347 22.6867 102.347 22.3V16.52H105.207V19.88C105.207 20.8933 105.08 21.6333 104.827 22.1L104.927 22.04C105.487 21.7067 105.954 21.4667 106.327 21.32C106.714 21.1733 107.167 21.1 107.687 21.1C108.474 21.1 109.207 21.3 109.887 21.7C110.567 22.1 111.107 22.6467 111.507 23.34C111.907 24.02 112.107 24.76 112.107 25.56V26.04C112.107 26.3067 112.194 26.5333 112.367 26.72C112.54 26.8933 112.76 26.98 113.027 26.98H113.867ZM107.687 26.98C108.087 26.98 108.427 26.8333 108.707 26.54C109 26.2467 109.147 25.9 109.147 25.5C109.147 25.0733 109 24.7067 108.707 24.4C108.414 24.0933 108.054 23.94 107.627 23.94C107.44 23.94 107.234 23.9867 107.007 24.08C106.78 24.1733 106.48 24.34 106.107 24.58L102.007 26.98H107.687ZM117.913 15.8H120.473V18.36H117.913V15.8ZM113.873 30C113.74 30 113.673 29.9333 113.673 29.8V27.18C113.673 27.0467 113.74 26.98 113.873 26.98H118.033C119.073 26.98 119.94 26.66 120.633 26.02L122.573 24.26L119.793 22.92C119.526 22.8133 119.326 22.76 119.193 22.76C119.02 22.76 118.846 22.8 118.673 22.88C118.513 22.96 118.373 23.0667 118.253 23.2L116.413 25.24L114.413 23.48L116.253 21.24C116.64 20.8 117.086 20.4733 117.593 20.26C118.113 20.0333 118.64 19.92 119.173 19.92C119.546 19.92 119.86 19.9667 120.113 20.06C120.38 20.14 120.646 20.2467 120.913 20.38L125.213 22.38C125.293 22.42 125.4 22.44 125.533 22.44H127.673V25.24H125.453L122.213 28.26C121.6 28.8333 120.893 29.2667 120.093 29.56C119.293 29.8533 118.466 30 117.613 30H113.873ZM137.705 34.5C136.785 34.5 135.938 34.2733 135.165 33.82C134.391 33.3667 133.778 32.7533 133.325 31.98C132.871 31.2067 132.645 30.36 132.645 29.44V24.58H135.525V29.28C135.525 29.88 135.738 30.3933 136.165 30.82C136.591 31.26 137.105 31.48 137.705 31.48H142.285C142.605 31.48 142.865 31.3733 143.065 31.16C143.265 30.96 143.365 30.7 143.365 30.38C143.365 30.14 143.291 29.92 143.145 29.72C142.998 29.52 142.798 29.3933 142.545 29.34L137.385 28.16V25.54C137.385 24.78 137.578 24.0733 137.965 23.42C138.365 22.7533 138.898 22.2267 139.565 21.84C140.245 21.4533 140.971 21.26 141.745 21.26H145.465V24.12H141.705C141.318 24.12 140.978 24.2667 140.685 24.56C140.405 24.84 140.265 25.1733 140.265 25.56V25.88C141.491 26.1467 142.291 26.3267 142.665 26.42L143.465 26.6C144.305 26.8533 144.991 27.34 145.525 28.06C146.058 28.78 146.325 29.5867 146.325 30.48C146.325 31.2133 146.145 31.8867 145.785 32.5C145.425 33.1133 144.931 33.6 144.305 33.96C143.691 34.32 143.018 34.5 142.285 34.5H137.705ZM148.917 18.26H151.477V20.84H148.917V18.26ZM146.477 33.58C147.183 33.02 147.69 32.54 147.997 32.14C148.317 31.74 148.523 31.3333 148.617 30.92C148.71 30.5067 148.757 29.9267 148.757 29.18V22.54H151.617V29.18C151.617 30.26 151.51 31.1467 151.297 31.84C151.097 32.5333 150.75 33.1667 150.257 33.74C149.763 34.3133 149.037 34.96 148.077 35.68L146.477 33.58ZM153.309 16.52H156.189V30H153.309V16.52ZM162.638 26.98C162.931 26.98 163.178 26.9 163.378 26.74C163.578 26.5667 163.678 26.3333 163.678 26.04C163.678 25.96 163.638 25.7867 163.558 25.52L161.658 20.36L164.378 19.34L166.838 26.16C167.065 26.7067 167.425 26.98 167.918 26.98H168.038C168.171 26.98 168.238 27.0467 168.238 27.18V29.8C168.238 29.9333 168.171 30 168.038 30H167.778C167.231 30 166.745 29.8933 166.318 29.68C165.891 29.4667 165.571 29.2 165.358 28.88C164.931 29.3067 164.525 29.6 164.138 29.76C163.751 29.92 163.251 30 162.638 30H157.878V26.98H162.638ZM170.093 17.66H172.653V20.24H170.093V17.66ZM168.033 30C167.9 30 167.833 29.9333 167.833 29.8V27.18C167.833 27.0467 167.9 26.98 168.033 26.98H169.113C169.367 26.98 169.58 26.8867 169.753 26.7C169.94 26.5133 170.033 26.2933 170.033 26.04V21.94H172.893V26.22C172.893 26.9 172.727 27.5333 172.393 28.12C172.06 28.6933 171.607 29.1533 171.033 29.5C170.46 29.8333 169.827 30 169.133 30H168.033ZM174.461 16.52H177.341V30H174.461V16.52ZM183.708 28.76C183.308 28.36 183.008 27.9133 182.808 27.42C182.608 26.9267 182.508 26.4133 182.508 25.88C182.508 25.3067 182.621 24.7467 182.848 24.2C183.088 23.64 183.428 23.14 183.868 22.7L184.788 21.78L183.888 20.9L185.948 18.9L189.768 22.7C190.208 23.14 190.541 23.64 190.768 24.2C190.995 24.7467 191.108 25.3067 191.108 25.88C191.108 26.4133 191.008 26.9333 190.808 27.44C190.608 27.9333 190.308 28.3733 189.908 28.76C189.495 29.1733 189.021 29.4867 188.488 29.7C187.955 29.9133 187.395 30.02 186.808 30.02C186.235 30.02 185.681 29.9133 185.148 29.7C184.615 29.4867 184.135 29.1733 183.708 28.76ZM185.868 26.6C186.148 26.88 186.468 27.02 186.828 27.02C187.175 27.02 187.488 26.88 187.768 26.6C188.021 26.3467 188.148 26.0533 188.148 25.72C188.148 25.3467 188.008 25.02 187.728 24.74L186.808 23.8L185.888 24.7C185.608 24.98 185.468 25.3 185.468 25.66C185.468 26.02 185.601 26.3333 185.868 26.6ZM192.645 16.52H195.525V30H192.645V16.52ZM194.38 33.26C195.326 32.7133 196 32.2733 196.4 31.94C196.8 31.6067 197.066 31.2467 197.2 30.86C197.333 30.4733 197.4 29.9133 197.4 29.18V22.54H200.28V29.18C200.28 30.3 200.14 31.22 199.86 31.94C199.58 32.66 199.1 33.3 198.42 33.86C197.74 34.4333 196.753 35.04 195.46 35.68L194.38 33.26Z" fill="white"/>
<defs>
<filter id="filter0_d_3017_18603" x="0" y="0" width="238" height="59" filterUnits="userSpaceOnUse" color-interpolation-filters="sRGB">
<feFlood flood-opacity="0" result="BackgroundImageFix"/>
<feColorMatrix in="SourceAlpha" type="matrix" values="0 0 0 0 0 0 0 0 0 0 0 0 0 0 0 0 0 0 127 0" result="hardAlpha"/>
<feOffset dy="4"/>
<feGaussianBlur stdDeviation="2"/>
<feComposite in2="hardAlpha" operator="out"/>
<feColorMatrix type="matrix" values="0 0 0 0 0 0 0 0 0 0 0 0 0 0 0 0 0 0 0.25 0"/>
<feBlend mode="normal" in2="BackgroundImageFix" result="effect1_dropShadow_3017_18603"/>
<feBlend mode="normal" in="SourceGraphic" in2="effect1_dropShadow_3017_18603" result="shape"/>
</filter>
<linearGradient id="paint0_linear_3017_18603" x1="119" y1="1" x2="119" y2="52" gradientUnits="userSpaceOnUse">
<stop stop-color="#3B9490"/>
<stop offset="1" stop-color="#255957"/>
</linearGradient>
</defs>
</svg>
