<svg width="238" height="59" viewBox="0 0 238 59" fill="none" xmlns="http://www.w3.org/2000/svg">
<g filter="url(#filter0_d_2655_4081)">
<path d="M4 0H234L207.388 46.007C205.601 49.0971 202.302 51 198.732 51H39.2681C35.6983 51 32.3993 49.0971 30.6119 46.007L4 0Z" fill="url(#paint0_linear_2655_4081)"/>
</g>
<path d="M45.2644 14.66H47.8244V17.24H45.2644V14.66ZM43.5244 18.26H46.0844V20.82H43.5244V18.26ZM46.9844 18.26H49.5444V20.82H46.9844V18.26ZM42.1044 33.26C43.051 32.7133 43.7244 32.2733 44.1244 31.94C44.5244 31.6067 44.791 31.2467 44.9244 30.86C45.0577 30.4733 45.1244 29.9133 45.1244 29.18V22.54H48.0044V29.18C48.0044 30.3 47.8644 31.22 47.5844 31.94C47.3044 32.66 46.8244 33.3 46.1444 33.86C45.4644 34.4333 44.4777 35.04 43.1844 35.68L42.1044 33.26ZM54.1292 30C53.4359 30 52.8026 29.8333 52.2292 29.5C51.6559 29.1533 51.2026 28.6933 50.8692 28.12C50.5359 27.5333 50.3692 26.9 50.3692 26.22V16.52H53.2492V26.04C53.2492 26.3067 53.3359 26.5333 53.5092 26.72C53.6826 26.8933 53.8959 26.98 54.1492 26.98H55.2492C55.3826 26.98 55.4492 27.0467 55.4492 27.18V29.8C55.4492 29.9333 55.3826 30 55.2492 30H54.1292ZM55.83 18.24H58.39V20.8H55.83V18.24ZM59.43 18.24H62.01V20.8H59.43V18.24ZM55.05 27.18C55.05 27.0467 55.1167 26.98 55.25 26.98H56.55C56.8167 26.98 57.0367 26.8933 57.21 26.72C57.3833 26.5333 57.47 26.3067 57.47 26.04V22.54H60.35V26.04C60.35 26.3067 60.4367 26.5333 60.61 26.72C60.7833 26.8933 61.0033 26.98 61.27 26.98H62.57C62.7033 26.98 62.77 27.0467 62.77 27.18V29.8C62.77 29.9333 62.7033 30 62.57 30H61.27C60.2833 30 59.4967 29.6733 58.91 29.02C58.2967 29.6733 57.51 30 56.55 30H55.25C55.1167 30 55.05 29.9333 55.05 29.8V27.18ZM64.6342 17.66H67.1942V20.24H64.6342V17.66ZM62.5742 30C62.4409 30 62.3742 29.9333 62.3742 29.8V27.18C62.3742 27.0467 62.4409 26.98 62.5742 26.98H63.6542C63.9076 26.98 64.1209 26.8867 64.2942 26.7C64.4809 26.5133 64.5742 26.2933 64.5742 26.04V21.94H67.4342V26.22C67.4342 26.9 67.2676 27.5333 66.9342 28.12C66.6009 28.6933 66.1476 29.1533 65.5742 29.5C65.0009 29.8333 64.3676 30 63.6742 30H62.5742ZM78.322 26.98C78.4554 26.98 78.522 27.0467 78.522 27.18V29.8C78.522 29.9333 78.4554 30 78.322 30H77.422C77.3154 30.92 77.042 31.6933 76.602 32.32C76.1754 32.9467 75.5554 33.5067 74.742 34C73.942 34.5067 72.822 35.0667 71.382 35.68L70.482 33.14C71.6687 32.6333 72.5487 32.22 73.122 31.9C73.7087 31.58 74.1087 31.28 74.322 31C74.5354 30.72 74.642 30.3867 74.642 30H73.342C72.542 30 71.8087 29.82 71.142 29.46C70.4754 29.1 69.942 28.6067 69.542 27.98C69.1554 27.34 68.962 26.6267 68.962 25.84C68.962 25.04 69.1554 24.3067 69.542 23.64C69.942 22.9733 70.4754 22.4467 71.142 22.06C71.8087 21.66 72.542 21.46 73.342 21.46C74.1154 21.46 74.822 21.66 75.462 22.06C76.102 22.4467 76.602 22.9733 76.962 23.64C77.322 24.3067 77.502 25.04 77.502 25.84V26.98H78.322ZM74.642 25.82C74.642 25.4333 74.5154 25.1133 74.262 24.86C74.022 24.6067 73.7154 24.48 73.342 24.48C72.9554 24.48 72.6287 24.6067 72.362 24.86C72.1087 25.1133 71.982 25.4333 71.982 25.82C71.982 26.2067 72.1087 26.5267 72.362 26.78C72.6287 27.0333 72.9554 27.16 73.342 27.16H74.642V25.82ZM84.7164 21.5C85.5164 21.5 86.2497 21.68 86.9164 22.04C87.5831 22.4 88.1097 22.9 88.4964 23.54C88.8964 24.1667 89.0964 24.8733 89.0964 25.66C89.0964 26.4467 88.8964 27.18 88.4964 27.86C88.1097 28.5267 87.5764 29.06 86.8964 29.46C86.2297 29.8467 85.5031 30.04 84.7164 30.04C84.1831 30.04 83.6831 29.9467 83.2164 29.76C82.7497 29.5733 82.3297 29.3133 81.9564 28.98C81.3831 29.66 80.6097 30 79.6364 30H78.3164C78.1831 30 78.1164 29.9333 78.1164 29.8V27.18C78.1164 27.0467 78.1831 26.98 78.3164 26.98H79.6364C79.8897 26.98 80.1031 26.8933 80.2764 26.72C80.4631 26.5333 80.5564 26.3067 80.5564 26.04V24.36H79.3164V21.5H84.7164ZM84.7164 27.02C85.1031 27.02 85.4231 26.8933 85.6764 26.64C85.9297 26.3733 86.0564 26.0467 86.0564 25.66C86.0564 25.2867 85.9297 24.98 85.6764 24.74C85.4231 24.4867 85.1031 24.36 84.7164 24.36H83.3964V25.66C83.3964 26.0467 83.5164 26.3733 83.7564 26.64C84.0097 26.8933 84.3297 27.02 84.7164 27.02ZM107.9 26.98C108.033 26.98 108.1 27.0467 108.1 27.18V29.8C108.1 29.9333 108.033 30 107.9 30H107.06C106.033 30 105.227 29.62 104.64 28.86C104.227 29.22 103.767 29.5 103.26 29.7C102.767 29.9 102.247 30 101.7 30H93.9602V26.98H95.5802L94.3402 24.78L95.8802 23.88L95.7802 23.92C96.0202 23.7867 96.1802 23.58 96.2602 23.3C96.3402 23.02 96.3802 22.6867 96.3802 22.3V16.52H99.2402V19.88C99.2402 20.8933 99.1135 21.6333 98.8602 22.1L98.9602 22.04C99.5202 21.7067 99.9868 21.4667 100.36 21.32C100.747 21.1733 101.2 21.1 101.72 21.1C102.507 21.1 103.24 21.3 103.92 21.7C104.6 22.1 105.14 22.6467 105.54 23.34C105.94 24.02 106.14 24.76 106.14 25.56V26.04C106.14 26.3067 106.227 26.5333 106.4 26.72C106.573 26.8933 106.793 26.98 107.06 26.98H107.9ZM101.72 26.98C102.12 26.98 102.46 26.8333 102.74 26.54C103.033 26.2467 103.18 25.9 103.18 25.5C103.18 25.0733 103.033 24.7067 102.74 24.4C102.447 24.0933 102.087 23.94 101.66 23.94C101.473 23.94 101.267 23.9867 101.04 24.08C100.813 24.1733 100.513 24.34 100.14 24.58L96.0402 26.98H101.72ZM111.946 15.8H114.506V18.36H111.946V15.8ZM107.906 30C107.773 30 107.706 29.9333 107.706 29.8V27.18C107.706 27.0467 107.773 26.98 107.906 26.98H112.066C113.106 26.98 113.973 26.66 114.666 26.02L116.606 24.26L113.826 22.92C113.56 22.8133 113.36 22.76 113.226 22.76C113.053 22.76 112.88 22.8 112.706 22.88C112.546 22.96 112.406 23.0667 112.286 23.2L110.446 25.24L108.446 23.48L110.286 21.24C110.673 20.8 111.12 20.4733 111.626 20.26C112.146 20.0333 112.673 19.92 113.206 19.92C113.58 19.92 113.893 19.9667 114.146 20.06C114.413 20.14 114.68 20.2467 114.946 20.38L119.246 22.38C119.326 22.42 119.433 22.44 119.566 22.44H121.706V25.24H119.486L116.246 28.26C115.633 28.8333 114.926 29.2667 114.126 29.56C113.326 29.8533 112.5 30 111.646 30H107.906ZM131.738 34.5C130.818 34.5 129.971 34.2733 129.198 33.82C128.424 33.3667 127.811 32.7533 127.358 31.98C126.904 31.2067 126.678 30.36 126.678 29.44V24.58H129.558V29.28C129.558 29.88 129.771 30.3933 130.198 30.82C130.624 31.26 131.138 31.48 131.738 31.48H136.318C136.638 31.48 136.898 31.3733 137.098 31.16C137.298 30.96 137.398 30.7 137.398 30.38C137.398 30.14 137.324 29.92 137.178 29.72C137.031 29.52 136.831 29.3933 136.578 29.34L131.418 28.16V25.54C131.418 24.78 131.611 24.0733 131.998 23.42C132.398 22.7533 132.931 22.2267 133.598 21.84C134.278 21.4533 135.004 21.26 135.778 21.26H139.498V24.12H135.738C135.351 24.12 135.011 24.2667 134.718 24.56C134.438 24.84 134.298 25.1733 134.298 25.56V25.88C135.524 26.1467 136.324 26.3267 136.698 26.42L137.498 26.6C138.338 26.8533 139.024 27.34 139.558 28.06C140.091 28.78 140.358 29.5867 140.358 30.48C140.358 31.2133 140.178 31.8867 139.818 32.5C139.458 33.1133 138.964 33.6 138.338 33.96C137.724 34.32 137.051 34.5 136.318 34.5H131.738ZM142.95 18.26H145.51V20.84H142.95V18.26ZM140.51 33.58C141.217 33.02 141.723 32.54 142.03 32.14C142.35 31.74 142.557 31.3333 142.65 30.92C142.743 30.5067 142.79 29.9267 142.79 29.18V22.54H145.65V29.18C145.65 30.26 145.543 31.1467 145.33 31.84C145.13 32.5333 144.783 33.1667 144.29 33.74C143.797 34.3133 143.07 34.96 142.11 35.68L140.51 33.58ZM147.342 16.52H150.222V30H147.342V16.52ZM156.671 26.98C156.965 26.98 157.211 26.9 157.411 26.74C157.611 26.5667 157.711 26.3333 157.711 26.04C157.711 25.96 157.671 25.7867 157.591 25.52L155.691 20.36L158.411 19.34L160.871 26.16C161.098 26.7067 161.458 26.98 161.951 26.98H162.071C162.205 26.98 162.271 27.0467 162.271 27.18V29.8C162.271 29.9333 162.205 30 162.071 30H161.811C161.265 30 160.778 29.8933 160.351 29.68C159.925 29.4667 159.605 29.2 159.391 28.88C158.965 29.3067 158.558 29.6 158.171 29.76C157.785 29.92 157.285 30 156.671 30H151.911V26.98H156.671ZM164.126 17.66H166.686V20.24H164.126V17.66ZM162.066 30C161.933 30 161.866 29.9333 161.866 29.8V27.18C161.866 27.0467 161.933 26.98 162.066 26.98H163.146C163.4 26.98 163.613 26.8867 163.786 26.7C163.973 26.5133 164.066 26.2933 164.066 26.04V21.94H166.926V26.22C166.926 26.9 166.76 27.5333 166.426 28.12C166.093 28.6933 165.64 29.1533 165.066 29.5C164.493 29.8333 163.86 30 163.166 30H162.066ZM168.494 16.52H171.374V30H168.494V16.52ZM177.741 28.76C177.341 28.36 177.041 27.9133 176.841 27.42C176.641 26.9267 176.541 26.4133 176.541 25.88C176.541 25.3067 176.654 24.7467 176.881 24.2C177.121 23.64 177.461 23.14 177.901 22.7L178.821 21.78L177.921 20.9L179.981 18.9L183.801 22.7C184.241 23.14 184.574 23.64 184.801 24.2C185.028 24.7467 185.141 25.3067 185.141 25.88C185.141 26.4133 185.041 26.9333 184.841 27.44C184.641 27.9333 184.341 28.3733 183.941 28.76C183.528 29.1733 183.054 29.4867 182.521 29.7C181.988 29.9133 181.428 30.02 180.841 30.02C180.268 30.02 179.714 29.9133 179.181 29.7C178.648 29.4867 178.168 29.1733 177.741 28.76ZM179.901 26.6C180.181 26.88 180.501 27.02 180.861 27.02C181.208 27.02 181.521 26.88 181.801 26.6C182.054 26.3467 182.181 26.0533 182.181 25.72C182.181 25.3467 182.041 25.02 181.761 24.74L180.841 23.8L179.921 24.7C179.641 24.98 179.501 25.3 179.501 25.66C179.501 26.02 179.634 26.3333 179.901 26.6ZM186.678 16.52H189.558V30H186.678V16.52ZM188.413 33.26C189.36 32.7133 190.033 32.2733 190.433 31.94C190.833 31.6067 191.1 31.2467 191.233 30.86C191.366 30.4733 191.433 29.9133 191.433 29.18V22.54H194.313V29.18C194.313 30.3 194.173 31.22 193.893 31.94C193.613 32.66 193.133 33.3 192.453 33.86C191.773 34.4333 190.786 35.04 189.493 35.68L188.413 33.26Z" fill="white"/>
<defs>
<filter id="filter0_d_2655_4081" x="0" y="0" width="238" height="59" filterUnits="userSpaceOnUse" color-interpolation-filters="sRGB">
<feFlood flood-opacity="0" result="BackgroundImageFix"/>
<feColorMatrix in="SourceAlpha" type="matrix" values="0 0 0 0 0 0 0 0 0 0 0 0 0 0 0 0 0 0 127 0" result="hardAlpha"/>
<feOffset dy="4"/>
<feGaussianBlur stdDeviation="2"/>
<feComposite in2="hardAlpha" operator="out"/>
<feColorMatrix type="matrix" values="0 0 0 0 0 0 0 0 0 0 0 0 0 0 0 0 0 0 0.25 0"/>
<feBlend mode="normal" in2="BackgroundImageFix" result="effect1_dropShadow_2655_4081"/>
<feBlend mode="normal" in="SourceGraphic" in2="effect1_dropShadow_2655_4081" result="shape"/>
</filter>
<linearGradient id="paint0_linear_2655_4081" x1="119" y1="1" x2="119" y2="52" gradientUnits="userSpaceOnUse">
<stop stop-color="#3B9490"/>
<stop offset="1" stop-color="#255957"/>
</linearGradient>
</defs>
</svg>
