<svg width="238" height="59" viewBox="0 0 238 59" fill="none" xmlns="http://www.w3.org/2000/svg">
<g filter="url(#filter0_d_2655_3896)">
<path d="M4 0H234L207.388 46.007C205.601 49.0971 202.302 51 198.732 51H39.2681C35.6983 51 32.3993 49.0971 30.6119 46.007L4 0Z" fill="url(#paint0_linear_2655_3896)"/>
</g>
<path d="M51.7689 26.98C52.0622 26.98 52.3089 26.9 52.5089 26.74C52.7089 26.5667 52.8089 26.3333 52.8089 26.04C52.8089 25.96 52.7689 25.7867 52.6889 25.52L50.7889 20.36L53.5089 19.34L55.9689 26.16C56.1956 26.7067 56.5556 26.98 57.0489 26.98H57.1689C57.3022 26.98 57.3689 27.0467 57.3689 27.18V29.8C57.3689 29.9333 57.3022 30 57.1689 30H56.9089C56.3622 30 55.8756 29.8933 55.4489 29.68C55.0222 29.4667 54.7022 29.2 54.4889 28.88C54.0622 29.3067 53.6556 29.6 53.2689 29.76C52.8822 29.92 52.3822 30 51.7689 30H47.0089V26.98H51.7689ZM56.9641 27.18C56.9641 27.0467 57.0307 26.98 57.1641 26.98H58.4641C58.7307 26.98 58.9507 26.8933 59.1241 26.72C59.2974 26.5333 59.3841 26.3067 59.3841 26.04V22.54H62.2641V26.04C62.2641 26.3067 62.3507 26.5333 62.5241 26.72C62.6974 26.8933 62.9174 26.98 63.1841 26.98H64.4841C64.6174 26.98 64.6841 27.0467 64.6841 27.18V29.8C64.6841 29.9333 64.6174 30 64.4841 30H63.1841C62.1974 30 61.4107 29.6733 60.8241 29.02C60.2107 29.6733 59.4241 30 58.4641 30H57.1641C57.0307 30 56.9641 29.9333 56.9641 29.8V27.18ZM57.7241 31.72H60.2841V34.28H57.7241V31.72ZM61.3241 31.72H63.9041V34.28H61.3241V31.72ZM64.4883 30C64.3549 30 64.2883 29.9333 64.2883 29.8V27.18C64.2883 27.0467 64.3549 26.98 64.4883 26.98H65.2483C65.5016 26.98 65.7149 26.8867 65.8883 26.7C66.0749 26.5133 66.1683 26.2933 66.1683 26.04V16.52H69.0283V26.22C69.0283 26.9 68.8616 27.5333 68.5283 28.12C68.1949 28.6933 67.7416 29.1533 67.1683 29.5C66.5949 29.8333 65.9616 30 65.2683 30H64.4883ZM80.0213 26.98C80.1546 26.98 80.2213 27.0467 80.2213 27.18V29.8C80.2213 29.9333 80.1546 30 80.0213 30H79.1213C79.0146 30.92 78.7413 31.6933 78.3013 32.32C77.8746 32.9467 77.2546 33.5067 76.4413 34C75.6413 34.5067 74.5213 35.0667 73.0813 35.68L72.1813 33.14C73.3679 32.6333 74.2479 32.22 74.8213 31.9C75.4079 31.58 75.8079 31.28 76.0213 31C76.2346 30.72 76.3413 30.3867 76.3413 30H75.0413C74.2413 30 73.5079 29.82 72.8413 29.46C72.1746 29.1 71.6413 28.6067 71.2413 27.98C70.8546 27.34 70.6613 26.6267 70.6613 25.84C70.6613 25.04 70.8546 24.3067 71.2413 23.64C71.6413 22.9733 72.1746 22.4467 72.8413 22.06C73.5079 21.66 74.2413 21.46 75.0413 21.46C75.8146 21.46 76.5213 21.66 77.1613 22.06C77.8013 22.4467 78.3013 22.9733 78.6613 23.64C79.0213 24.3067 79.2013 25.04 79.2013 25.84V26.98H80.0213ZM76.3413 25.82C76.3413 25.4333 76.2146 25.1133 75.9613 24.86C75.7213 24.6067 75.4146 24.48 75.0413 24.48C74.6546 24.48 74.3279 24.6067 74.0613 24.86C73.8079 25.1133 73.6813 25.4333 73.6813 25.82C73.6813 26.2067 73.8079 26.5267 74.0613 26.78C74.3279 27.0333 74.6546 27.16 75.0413 27.16H76.3413V25.82ZM79.7556 17.66H82.3356V20.24H79.7556V17.66ZM83.3756 17.66H85.9356V20.24H83.3756V17.66ZM80.0156 30C79.8823 30 79.8156 29.9333 79.8156 29.8V27.18C79.8156 27.0467 79.8823 26.98 80.0156 26.98H82.1756C82.429 26.98 82.6423 26.8867 82.8156 26.7C83.0023 26.5133 83.0956 26.2933 83.0956 26.04V21.94H85.9556V26.22C85.9556 26.9 85.789 27.5333 85.4556 28.12C85.1223 28.6933 84.669 29.1533 84.0956 29.5C83.5223 29.8333 82.889 30 82.1956 30H80.0156ZM104.756 26.98C104.889 26.98 104.956 27.0467 104.956 27.18V29.8C104.956 29.9333 104.889 30 104.756 30H103.916C102.889 30 102.082 29.62 101.496 28.86C101.082 29.22 100.622 29.5 100.116 29.7C99.6223 29.9 99.1023 30 98.5556 30H90.8156V26.98H92.4356L91.1956 24.78L92.7356 23.88L92.6356 23.92C92.8756 23.7867 93.0356 23.58 93.1156 23.3C93.1956 23.02 93.2356 22.6867 93.2356 22.3V16.52H96.0956V19.88C96.0956 20.8933 95.969 21.6333 95.7156 22.1L95.8156 22.04C96.3756 21.7067 96.8423 21.4667 97.2156 21.32C97.6023 21.1733 98.0556 21.1 98.5756 21.1C99.3623 21.1 100.096 21.3 100.776 21.7C101.456 22.1 101.996 22.6467 102.396 23.34C102.796 24.02 102.996 24.76 102.996 25.56V26.04C102.996 26.3067 103.082 26.5333 103.256 26.72C103.429 26.8933 103.649 26.98 103.916 26.98H104.756ZM98.5756 26.98C98.9756 26.98 99.3156 26.8333 99.5956 26.54C99.889 26.2467 100.036 25.9 100.036 25.5C100.036 25.0733 99.889 24.7067 99.5956 24.4C99.3023 24.0933 98.9423 23.94 98.5156 23.94C98.329 23.94 98.1223 23.9867 97.8956 24.08C97.669 24.1733 97.369 24.34 96.9956 24.58L92.8956 26.98H98.5756ZM108.802 15.8H111.362V18.36H108.802V15.8ZM104.762 30C104.628 30 104.562 29.9333 104.562 29.8V27.18C104.562 27.0467 104.628 26.98 104.762 26.98H108.922C109.962 26.98 110.828 26.66 111.522 26.02L113.462 24.26L110.682 22.92C110.415 22.8133 110.215 22.76 110.082 22.76C109.908 22.76 109.735 22.8 109.562 22.88C109.402 22.96 109.262 23.0667 109.142 23.2L107.302 25.24L105.302 23.48L107.142 21.24C107.528 20.8 107.975 20.4733 108.482 20.26C109.002 20.0333 109.528 19.92 110.062 19.92C110.435 19.92 110.748 19.9667 111.002 20.06C111.268 20.14 111.535 20.2467 111.802 20.38L116.102 22.38C116.182 22.42 116.288 22.44 116.422 22.44H118.562V25.24H116.342L113.102 28.26C112.488 28.8333 111.782 29.2667 110.982 29.56C110.182 29.8533 109.355 30 108.502 30H104.762ZM128.593 34.5C127.673 34.5 126.827 34.2733 126.053 33.82C125.28 33.3667 124.667 32.7533 124.213 31.98C123.76 31.2067 123.533 30.36 123.533 29.44V24.58H126.413V29.28C126.413 29.88 126.627 30.3933 127.053 30.82C127.48 31.26 127.993 31.48 128.593 31.48H133.173C133.493 31.48 133.753 31.3733 133.953 31.16C134.153 30.96 134.253 30.7 134.253 30.38C134.253 30.14 134.18 29.92 134.033 29.72C133.887 29.52 133.687 29.3933 133.433 29.34L128.273 28.16V25.54C128.273 24.78 128.467 24.0733 128.853 23.42C129.253 22.7533 129.787 22.2267 130.453 21.84C131.133 21.4533 131.86 21.26 132.633 21.26H136.353V24.12H132.593C132.207 24.12 131.867 24.2667 131.573 24.56C131.293 24.84 131.153 25.1733 131.153 25.56V25.88C132.38 26.1467 133.18 26.3267 133.553 26.42L134.353 26.6C135.193 26.8533 135.88 27.34 136.413 28.06C136.947 28.78 137.213 29.5867 137.213 30.48C137.213 31.2133 137.033 31.8867 136.673 32.5C136.313 33.1133 135.82 33.6 135.193 33.96C134.58 34.32 133.907 34.5 133.173 34.5H128.593ZM139.805 18.26H142.365V20.84H139.805V18.26ZM137.365 33.58C138.072 33.02 138.579 32.54 138.885 32.14C139.205 31.74 139.412 31.3333 139.505 30.92C139.599 30.5067 139.645 29.9267 139.645 29.18V22.54H142.505V29.18C142.505 30.26 142.399 31.1467 142.185 31.84C141.985 32.5333 141.639 33.1667 141.145 33.74C140.652 34.3133 139.925 34.96 138.965 35.68L137.365 33.58ZM144.197 16.52H147.077V30H144.197V16.52ZM153.527 26.98C153.82 26.98 154.067 26.9 154.267 26.74C154.467 26.5667 154.567 26.3333 154.567 26.04C154.567 25.96 154.527 25.7867 154.447 25.52L152.547 20.36L155.267 19.34L157.727 26.16C157.953 26.7067 158.313 26.98 158.807 26.98H158.927C159.06 26.98 159.127 27.0467 159.127 27.18V29.8C159.127 29.9333 159.06 30 158.927 30H158.667C158.12 30 157.633 29.8933 157.207 29.68C156.78 29.4667 156.46 29.2 156.247 28.88C155.82 29.3067 155.413 29.6 155.027 29.76C154.64 29.92 154.14 30 153.527 30H148.767V26.98H153.527ZM160.982 17.66H163.542V20.24H160.982V17.66ZM158.922 30C158.789 30 158.722 29.9333 158.722 29.8V27.18C158.722 27.0467 158.789 26.98 158.922 26.98H160.002C160.255 26.98 160.469 26.8867 160.642 26.7C160.829 26.5133 160.922 26.2933 160.922 26.04V21.94H163.782V26.22C163.782 26.9 163.615 27.5333 163.282 28.12C162.949 28.6933 162.495 29.1533 161.922 29.5C161.349 29.8333 160.715 30 160.022 30H158.922ZM165.35 16.52H168.23V30H165.35V16.52ZM174.597 28.76C174.197 28.36 173.897 27.9133 173.697 27.42C173.497 26.9267 173.397 26.4133 173.397 25.88C173.397 25.3067 173.51 24.7467 173.737 24.2C173.977 23.64 174.317 23.14 174.757 22.7L175.677 21.78L174.777 20.9L176.837 18.9L180.657 22.7C181.097 23.14 181.43 23.64 181.657 24.2C181.883 24.7467 181.997 25.3067 181.997 25.88C181.997 26.4133 181.897 26.9333 181.697 27.44C181.497 27.9333 181.197 28.3733 180.797 28.76C180.383 29.1733 179.91 29.4867 179.377 29.7C178.843 29.9133 178.283 30.02 177.697 30.02C177.123 30.02 176.57 29.9133 176.037 29.7C175.503 29.4867 175.023 29.1733 174.597 28.76ZM176.757 26.6C177.037 26.88 177.357 27.02 177.717 27.02C178.063 27.02 178.377 26.88 178.657 26.6C178.91 26.3467 179.037 26.0533 179.037 25.72C179.037 25.3467 178.897 25.02 178.617 24.74L177.697 23.8L176.777 24.7C176.497 24.98 176.357 25.3 176.357 25.66C176.357 26.02 176.49 26.3333 176.757 26.6ZM183.533 16.52H186.413V30H183.533V16.52ZM185.268 33.26C186.215 32.7133 186.888 32.2733 187.288 31.94C187.688 31.6067 187.955 31.2467 188.088 30.86C188.222 30.4733 188.288 29.9133 188.288 29.18V22.54H191.168V29.18C191.168 30.3 191.028 31.22 190.748 31.94C190.468 32.66 189.988 33.3 189.308 33.86C188.628 34.4333 187.642 35.04 186.348 35.68L185.268 33.26Z" fill="white"/>
<defs>
<filter id="filter0_d_2655_3896" x="0" y="0" width="238" height="59" filterUnits="userSpaceOnUse" color-interpolation-filters="sRGB">
<feFlood flood-opacity="0" result="BackgroundImageFix"/>
<feColorMatrix in="SourceAlpha" type="matrix" values="0 0 0 0 0 0 0 0 0 0 0 0 0 0 0 0 0 0 127 0" result="hardAlpha"/>
<feOffset dy="4"/>
<feGaussianBlur stdDeviation="2"/>
<feComposite in2="hardAlpha" operator="out"/>
<feColorMatrix type="matrix" values="0 0 0 0 0 0 0 0 0 0 0 0 0 0 0 0 0 0 0.25 0"/>
<feBlend mode="normal" in2="BackgroundImageFix" result="effect1_dropShadow_2655_3896"/>
<feBlend mode="normal" in="SourceGraphic" in2="effect1_dropShadow_2655_3896" result="shape"/>
</filter>
<linearGradient id="paint0_linear_2655_3896" x1="119" y1="1" x2="119" y2="52" gradientUnits="userSpaceOnUse">
<stop stop-color="#3B9490"/>
<stop offset="1" stop-color="#255957"/>
</linearGradient>
</defs>
</svg>
