<svg width="238" height="59" viewBox="0 0 238 59" fill="none" xmlns="http://www.w3.org/2000/svg">
<g filter="url(#filter0_d_2541_5675)">
<path d="M4 0H234L207.388 46.007C205.601 49.0971 202.302 51 198.732 51H39.2681C35.6983 51 32.3993 49.0971 30.6119 46.007L4 0Z" fill="url(#paint0_linear_2541_5675)"/>
</g>
<path d="M101.036 20.56H103.336V22.86H101.036V20.56ZM104.376 20.56H106.676V22.86H104.376V20.56ZM100.956 30C100.076 30 99.2623 29.7867 98.5156 29.36C97.769 28.92 97.1756 28.3267 96.7356 27.58C96.309 26.8333 96.0956 26.02 96.0956 25.14V22.86H98.5556V25C98.5556 25.6533 98.789 26.22 99.2556 26.7C99.7356 27.1667 100.302 27.4 100.956 27.4H107.496C107.949 27.4 108.329 27.2467 108.636 26.94C108.942 26.6333 109.096 26.2467 109.096 25.78V22.86H111.556V25.78C111.556 26.54 111.376 27.2467 111.016 27.9C110.669 28.54 110.182 29.0533 109.556 29.44C108.942 29.8133 108.256 30 107.496 30H100.956ZM110.387 33.46C111.348 32.9133 112.028 32.48 112.428 32.16C112.841 31.84 113.128 31.4733 113.288 31.06C113.461 30.6467 113.548 30.0667 113.548 29.32V22.86H116.008V29.32C116.008 30.4 115.861 31.2867 115.568 31.98C115.288 32.6733 114.814 33.2867 114.148 33.82C113.494 34.3533 112.548 34.92 111.308 35.52L110.387 33.46ZM121.513 30C120.846 30 120.233 29.84 119.673 29.52C119.126 29.1867 118.693 28.7467 118.373 28.2C118.053 27.64 117.893 27.0267 117.893 26.36V16.62H120.353V26.2C120.353 26.5333 120.466 26.82 120.693 27.06C120.919 27.2867 121.199 27.4 121.533 27.4H122.553C122.686 27.4 122.753 27.4667 122.753 27.6V29.8C122.753 29.9333 122.686 30 122.553 30H121.513ZM122.555 30C122.421 30 122.355 29.9333 122.355 29.8V27.6C122.355 27.4667 122.421 27.4 122.555 27.4H126.535C127.641 27.4 128.555 27.0667 129.275 26.4L131.435 24.46L128.395 23.02C128.128 22.8867 127.901 22.82 127.715 22.82C127.528 22.82 127.341 22.8667 127.155 22.96C126.968 23.0533 126.801 23.1733 126.655 23.32L124.955 25.22L123.235 23.72L124.955 21.64C125.288 21.2267 125.695 20.92 126.175 20.72C126.668 20.5067 127.181 20.4 127.715 20.4C128.061 20.4 128.361 20.44 128.615 20.52C128.868 20.6 129.115 20.7 129.355 20.82L133.675 22.84C133.755 22.88 133.868 22.9 134.015 22.9H135.975V25.3H133.815L133.295 25.78V26.22C133.295 26.5533 133.408 26.8333 133.635 27.06C133.861 27.2867 134.141 27.4 134.475 27.4H136.675C136.808 27.4 136.875 27.4667 136.875 27.6V29.8C136.875 29.9333 136.808 30 136.675 30H134.475C133.701 30 133.055 29.78 132.535 29.34C132.015 28.9 131.648 28.3133 131.435 27.58L130.635 28.32C130.035 28.8667 129.348 29.2867 128.575 29.58C127.815 29.86 127.015 30 126.175 30H122.555ZM125.935 31.74H128.215V34.04H125.935V31.74ZM136.576 18.2H138.876V20.5H136.576V18.2ZM139.916 18.2H142.216V20.5H139.916V18.2ZM136.676 30C136.542 30 136.476 29.9333 136.476 29.8V27.6C136.476 27.4667 136.542 27.4 136.676 27.4H138.616C138.936 27.4 139.209 27.2867 139.436 27.06C139.662 26.82 139.776 26.5333 139.776 26.2V22.26H142.236V26.36C142.236 27.0267 142.076 27.64 141.756 28.2C141.436 28.7467 140.996 29.1867 140.436 29.52C139.889 29.84 139.282 30 138.616 30H136.676Z" fill="white"/>
<defs>
<filter id="filter0_d_2541_5675" x="0" y="0" width="238" height="59" filterUnits="userSpaceOnUse" color-interpolation-filters="sRGB">
<feFlood flood-opacity="0" result="BackgroundImageFix"/>
<feColorMatrix in="SourceAlpha" type="matrix" values="0 0 0 0 0 0 0 0 0 0 0 0 0 0 0 0 0 0 127 0" result="hardAlpha"/>
<feOffset dy="4"/>
<feGaussianBlur stdDeviation="2"/>
<feComposite in2="hardAlpha" operator="out"/>
<feColorMatrix type="matrix" values="0 0 0 0 0 0 0 0 0 0 0 0 0 0 0 0 0 0 0.25 0"/>
<feBlend mode="normal" in2="BackgroundImageFix" result="effect1_dropShadow_2541_5675"/>
<feBlend mode="normal" in="SourceGraphic" in2="effect1_dropShadow_2541_5675" result="shape"/>
</filter>
<linearGradient id="paint0_linear_2541_5675" x1="119" y1="1" x2="119" y2="52" gradientUnits="userSpaceOnUse">
<stop stop-color="#B6308E"/>
<stop offset="1" stop-color="#791F5E"/>
</linearGradient>
</defs>
</svg>
