<?xml version="1.0" encoding="UTF-8"?><svg id="Layer_1" xmlns="http://www.w3.org/2000/svg" viewBox="0 0 100 100"><defs><style>.cls-1{fill:#57575e;}.cls-2{fill:none;stroke:#0018c6;stroke-miterlimit:10;stroke-width:4px;}.cls-3{fill:#d9d9ea;}.cls-4{fill:#48459c;}.cls-5{fill:#434348;}.cls-6{fill:#3392f5;}.cls-7{fill:#424248;}.cls-8{fill:#3392f6;}.cls-9{fill:#60acfd;}</style></defs><circle class="cls-2" cx="50" cy="50" r="45"/><path d="m20.7,32.3c-2.6-2.6-2.7-6.6,0-9.3,1.6-1.6,3.8-2.3,5.9-1.8l-.7,2.8c-1.1-.3-2.3,0-3.2,1-1.6,1.6-1.5,3.7,0,5.2,1.6,1.6,3.7,1.6,5.2,0,.9-.9,1.3-2.1.9-3.2l2.8-.8c.5,2,0,4.3-1.7,5.9-2.7,2.7-6.6,2.7-9.3,0Z"/><path d="m38.7,16.1l3.8,8.2-2.5,1.1-.4-.8c-.3.9-.9,1.6-2,2.1-2.1,1-4.8,0-5.9-2.5-1.1-2.4-.2-5.1,1.9-6.1,1.1-.5,2.1-.5,2.9-.1l-.4-.8,2.5-1.1Zm-.6,5.2c-.6-1.2-1.7-1.6-2.9-1.1-1.1.5-1.6,1.7-1,2.9.6,1.2,1.7,1.6,2.9,1.1,1.1-.5,1.6-1.7,1-2.9Z"/><path d="m56.6,17.7l.2,5.5h-2.7c0,0-.2-5.2-.2-5.2,0-.9-.5-1.5-1.3-1.4-.9,0-1.4.7-1.3,1.7l.2,5.1h-2.7c0,0-.2-5.2-.2-5.2,0-.9-.5-1.5-1.3-1.4-.9,0-1.4.7-1.3,1.7l.2,5.1h-2.7c0,0-.3-8.9-.3-8.9h2.7c0,0,0,.7,0,.7.4-.6,1.2-1.1,2.4-1.2,1.1,0,1.9.4,2.4,1.1.5-.7,1.3-1.2,2.6-1.3,2.1,0,3.5,1.4,3.5,3.6Z"/><path d="m62.5,23.4c.7.3,1.4.2,1.9,0l1.6,1.9c-1.3.8-2.7,1-4.3.4-2.9-1.1-4-3.7-3-6.2.9-2.5,3.5-3.8,6.1-2.8,2.5.9,3.6,3.5,2.6,6-.1.4-.3.7-.5,1l-6-2.2c0,1,.7,1.6,1.6,1.9Zm2.7-2.5c0-1.1-.5-1.7-1.3-2-1-.4-1.8-.1-2.3.7l3.6,1.3Z"/><path d="m76.1,23.1l-1.7,2.5c-.8-.8-2.4-1.3-3.4.1l-2.3,3.3-2.2-1.5,5.1-7.4,2.2,1.5-.9,1.3c1-.8,2.3-.6,3.2,0Z"/><path d="m84,31.9l-6.9,5.8-1.7-2.1.6-.5c-.9,0-1.8-.4-2.6-1.3-1.5-1.8-1.2-4.6.8-6.4,2-1.7,4.9-1.6,6.4.2.8.9,1,1.9.9,2.8l.6-.5,1.7,2.1Zm-5.2.9c1-.9,1.1-2.1.3-3.1-.8-.9-2-1.1-3.1-.2-1,.9-1.1,2.1-.3,3.1.8.9,2,1.1,3.1.2Z"/><path class="cls-3" d="m79,60.1v.2c-.3,0-.2.3-.2.4,0,.5,0,1-.1,1.5-.5,3.4-1.5,6.7-3.2,9.7-1.4,2.6-3.3,5-5.4,7.1-2.3,2.2-4.9,4-7.8,5.3-2.4,1.1-5,1.9-7.6,2.3-.8.1-1.6.2-2.4.3h-3.8c-.6-.2-1.3-.1-2-.2-3.8-.5-7.4-1.8-10.7-3.7-2.7-1.6-5.1-3.6-7.1-5.9-2-2.3-3.5-4.8-4.7-7.6-1-2.4-1.7-5-2-7.7,0-.5,0-1.1-.2-1.6v-3.6c.1-.1.1-.3.1-.5,0-.8.1-1.6.3-2.4.5-3.2,1.6-6.2,3.1-9,1.4-2.6,3.2-4.9,5.4-7,6.1-5.9,14.6-8.7,23-7.7,3.2.4,6.3,1.3,9.2,2.7,6.3,3.1,11.2,8.4,13.9,14.9,1,2.4,1.6,4.8,1.9,7.4.2,1.5.2,3,.2,4.5,0,.2,0,.4.1.6Zm-23.8,22.9c1.1-.1,2.2-.5,3.3-.8,11.8-4,19.1-16.5,16.5-28.8-1.9-8.9-7.3-15.1-15.7-18.5-1.3-.5-2.6-1-4-1.1-.2-.1-.4-.1-.7-.2-2.1-.3-4.2-.4-6.3-.2-4,.3-7.7,1.4-11,3.6-8.9,5.8-12.9,14-11.8,24.6.8,7.2,4.3,12.9,10.1,17.1,4.8,3.5,10.3,5,16.2,4.8,1.1,0,2.3-.1,3.4-.5Z"/><path class="cls-1" d="m55.2,83c-1.1.4-2.3.4-3.4.5-5.9.3-11.4-1.2-16.2-4.8-5.8-4.3-9.4-10-10.1-17.1-1.2-10.6,2.9-18.8,11.8-24.6,3.3-2.2,7-3.3,11-3.6,2.1-.2,4.2-.1,6.3.2.2,0,.5,0,.7.2.1.1.3.2.5.3,4.4,1.3,7.9,3.9,10.7,7.5,1.3,1.7,2.4,3.5,3.2,5.4,1.4,3.2,2.2,6.7,2.4,10.2,0,1.9,0,3.7-.3,5.5-.4,2.8-1.2,5.5-2.5,8.1-1.4,2.8-3.2,5.3-5.5,7.4-1.9,1.7-4.1,3.1-6.4,4-.7.3-1.4.4-2.1.8Zm-23.1-24.6c0,10.1,8.2,18.2,18.2,18.2,10.1,0,18.2-8.2,18.2-18.2,0-10-8.1-18.2-18.2-18.2-10,0-18.2,8.1-18.2,18.1,0,0,0,0,0,.1Z"/><path class="cls-5" d="m55.2,83c.6-.4,1.4-.5,2.1-.8,2.4-1,4.5-2.3,6.4-4,2.3-2.1,4.1-4.6,5.5-7.4,1.3-2.6,2.1-5.3,2.5-8.1.3-1.8.4-3.7.3-5.5-.1-3.5-.9-7-2.4-10.2-.8-1.9-1.9-3.7-3.2-5.4-2.8-3.6-6.3-6.2-10.7-7.5-.2,0-.3-.1-.5-.3,1.4.1,2.7.6,4,1.1,8.4,3.4,13.8,9.6,15.7,18.5,2.7,12.2-4.6,24.8-16.5,28.8-1.1.4-2.1.7-3.3.8Z"/><path class="cls-8" d="m32.1,58.5c0-10.1,8.1-18.2,18.2-18.2,10.1,0,18.2,8.1,18.2,18.2,0,10.1-8.1,18.2-18.2,18.2,0,0,0,0,0,0-10,0-18.2-8.1-18.2-18.1,0,0,0,0,0,0Zm18.2-11.3c-2.7,0-5.5,0-8.2,0-.9,0-1.7.2-2.3.9-.2.2-.3.4-.5.6-2.9,3.2-4.1,7-3.7,11.3.4,3.7,2,6.8,4.7,9.3.3.3.7.5,1.1.5,5.7,0,11.3,0,17,0,1,0,1.8-.3,2.5-1,.2-.2.3-.4.5-.5,3-3.5,4.2-7.6,3.5-12.2-.5-3-1.9-5.6-4-7.9-.6-.6-1.2-1-2.2-1-2.8,0-5.6,0-8.3,0Z"/><path class="cls-4" d="m50.3,47.2c2.8,0,5.6,0,8.4,0,1,0,1.6.4,2.2,1,2.1,2.2,3.5,4.8,4,7.9.7,4.6-.4,8.6-3.5,12.2-.1.2-.3.4-.5.5-.6.8-1.4,1-2.5,1-5.7,0-11.3,0-17,0-.4,0-.8-.2-1.1-.5-2.7-2.5-4.3-5.7-4.7-9.3-.4-4.3.8-8.1,3.7-11.3.2-.2.4-.4.5-.6.6-.7,1.3-.9,2.3-.9,2.7,0,5.5,0,8.2,0Zm7.9,11.3c-.1-4.5-3.5-7.9-7.9-7.9-4.5,0-7.9,3.4-7.9,7.9,0,4.5,3.4,7.9,7.9,7.9,4.4,0,7.7-3.4,7.8-7.9h0Z"/><path class="cls-7" d="m58.2,58.5c-.2,4.4-3.4,7.8-7.8,7.9-4.5,0-8-3.4-7.9-7.9,0-4.4,3.4-7.8,7.9-7.9,4.5,0,7.8,3.4,7.9,7.9Zm-7.9-4.4c-2.4,0-4.4,2-4.4,4.4,0,0,0,0,0,0,0,2.4,1.9,4.3,4.4,4.4,2.5,0,4.4-2,4.4-4.4s-1.9-4.4-4.4-4.5h0Z"/><path class="cls-9" d="m50.3,62.9c-2.6-.1-4.5-2-4.4-4.4,0-2.4,2-4.4,4.4-4.4,0,0,0,0,0,0,.4.2.5.7.6,1.1.5,2.2.5,4.5,0,6.7,0,.4-.2.8-.6,1.1Z"/><path class="cls-6" d="m50.3,62.9c.4-.2.5-.7.6-1.1.5-2.2.5-4.5,0-6.7,0-.4-.2-.8-.6-1.1,2.5,0,4.4,2,4.4,4.5,0,2.4-1.9,4.3-4.4,4.4Z"/></svg>