<?xml version="1.0" encoding="UTF-8"?><svg id="Layer_1" xmlns="http://www.w3.org/2000/svg" viewBox="0 0 100 100"><defs><style>.cls-1{fill:#a7b4b9;}.cls-2{fill:none;stroke:#0018c6;stroke-miterlimit:10;stroke-width:4px;}.cls-3{fill:#444b66;}.cls-4{fill:#f8d77c;}.cls-5{fill:#c6ecf9;}.cls-6{fill:#fbbd41;}.cls-7{fill:#3d435c;}.cls-8{fill:#01b6a0;}.cls-9{fill:#c6ecfa;}.cls-10{fill:#454c67;}.cls-11{fill:#c6d8de;}.cls-12{fill:#c4d8dd;}.cls-13{fill:#cad9df;}.cls-14{fill:#c7d9de;}.cls-15{fill:#c5d8de;}.cls-16{fill:#6e6b87;}</style></defs><circle class="cls-2" cx="50" cy="50" r="45"/><path class="cls-8" d="m25.2,41.3v-7.4c0-.3,0-.4.4-.4h11.1c0,.7,0,1.4,0,2.2,0,.8,0,.8.8.8h24.9c.5,0,.6-.2.6-.6v-2.4h11.3c.1.2.2.4.2.6v6.8c0,.4-.2.6-.6.6s-1,0-1.4,0c-1.1,0-1.9,1-1.8,2.1,0,1,.9,1.8,1.9,1.8h1.4c.6,0,.6,0,.6.7v24.3c0,.6,0,.7-.7.7h-1.4c-1.1,0-1.9,1-1.9,2,0,1.1.9,1.9,1.9,1.9h1.4c.6,0,.7,0,.7.7v6.6c0,.2,0,.5-.2.6h-11.3v-2.4c0-.4-.2-.6-.6-.6h-25.2c-.5,0-.6.2-.6.6,0,.8,0,1.6,0,2.4h-11.1c-.3,0-.4,0-.4-.4v-7.6h2c1.1,0,1.9-.9,1.9-1.9,0-1.1-.8-2-1.9-2h-1.4c-.2,0-.5,0-.6-.2v-25.3c.2-.1.4-.2.6-.2h1.4c1.1,0,1.9-1,1.9-2.1,0-1-.8-1.8-1.8-1.9h-1.4c-.2,0-.5,0-.6-.2Zm40.6,19.3h1.8c.6,0,.8-.3.8-.7s-.3-.7-.8-.7h-1.8v-1.7h1.8c.6,0,.9-.3.9-.7s-.3-.7-.9-.7-1.2,0-1.8,0v-1.7h1.8c.5,0,.8-.3.8-.7s-.3-.7-.8-.7-1.2,0-1.8,0v-1.7h1.8c.6,0,.8-.3.8-.7s-.3-.7-.8-.7h-1.8v-1.7h1.8c.6,0,.8-.3.8-.7s-.3-.7-.8-.7-1.2,0-1.8,0v-1.7h1.8c.6,0,.9-.3.9-.7s-.3-.7-.9-.7-1.2,0-1.8,0c0-1.3,0-1.2-1.2-1.2v-1.8c0-.6-.3-.8-.7-.8s-.7.3-.7.8,0,1.2,0,1.8h-.4s-1.3,0-1.3,0v-1.8c0-.6-.3-.9-.7-.9s-.7.3-.7.9,0,1.2,0,1.8h-1.7v-1.8c0-.6-.3-.9-.7-.9s-.7.3-.7.9,0,1.2,0,1.8h-1.7v-1.8c0-.6-.3-.9-.7-.9s-.7.3-.7.9,0,1.2,0,1.8h-1.7v-1.8c0-.6-.3-.9-.7-.9s-.7.3-.7.8v1.8h-1.7v-1.8c0-.6-.3-.9-.7-.9s-.7.3-.7.9,0,1.2,0,1.8h-1.7v-1.8c0-.6-.3-.9-.7-.9s-.7.3-.7.9,0,1.2,0,1.8h-1.7v-1.8c0-.6-.3-.9-.7-.9s-.7.3-.7.9,0,1.2,0,1.8h-1.7v-1.8c0-.6-.3-.9-.7-.9s-.7.3-.7.9,0,1.2,0,1.8h-1.7v-1.8c0-.6-.3-.9-.7-.9s-.7.3-.7.9,0,1.2,0,1.8c-1.2,0-1.1,0-1.1,1.2h-1.8c-.6,0-.9.3-.8.7s.3.7.8.7h1.8v1.7h-1.8c-.6,0-.9.3-.9.7s.3.7.9.7,1.2,0,1.8,0v1.7h-1.8c-.6,0-.9.3-.9.7s.3.7.9.7h1.8v1.7h-1.9c-.5,0-.9.3-.9.7s.3.7.9.7h1.9v1.7h-1.8c-.6,0-.8.3-.8.7s.3.7.8.7,1.2,0,1.8,0v1.7h-1.8c-.6,0-.9.3-.9.7s.3.7.9.7,1.2,0,1.8,0v1.7h-1.8c-.6,0-.9.3-.9.7s.3.7.9.7,1.2,0,1.8,0v1.7h-1.8c-.6,0-.8.3-.8.7s.3.7.8.7,1.2,0,1.8,0v1.7h-1.8c-.6,0-.8.3-.8.7s.3.7.8.7,1.2,0,1.8,0v1.7h-1.8c-.6,0-.9.3-.9.7s.3.7.9.7h1.8c0,1.2,0,1.1,1.2,1.2v1.8c0,.6.3.8.7.8s.7-.3.7-.8,0-1.2,0-1.8h1.7v1.8c0,.6.3.9.7.9s.7-.3.7-.9,0-1.2,0-1.8h1.7v1.8c0,.6.3.9.7.9s.7-.3.7-.9,0-1.2,0-1.8h1.7v1.8c0,.6.3.8.7.8s.7-.3.7-.8,0-1.2,0-1.8h1.7v1.8c0,.6.3.8.7.8s.7-.3.7-.8,0-1.2,0-1.8h1.7v1.8c0,.6.3.9.7.9s.7-.3.7-.9,0-1.2,0-1.8h1.7v1.8c0,.6.3.8.7.8s.7-.3.7-.8,0-1.2,0-1.8h1.7v1.8c0,.6.3.8.7.8s.7-.3.7-.8,0-1.2,0-1.8h1.7v1.8c0,.6.3.8.7.8s.7-.3.7-.8,0-1.2,0-1.8h1.7v1.8c0,.6.3.9.7.9s.7-.3.7-.9,0-1.2,0-1.8c1.3,0,1.1,0,1.2-1.2h1.8c.6,0,.8-.3.8-.7s-.3-.7-.8-.7-1.2,0-1.8,0v-1.7h1.8c.6,0,.9-.3.9-.7s-.3-.7-.9-.7-1.2,0-1.8,0v-1.7h1.8c.6,0,.9-.3.9-.7s-.3-.7-.9-.7-1.2,0-1.8,0v-1.7h1.8c.6,0,.8-.3.8-.7s-.3-.7-.8-.7-1.2,0-1.8,0v-1.7Zm-36.5-21.7c.8,0,1.5-.7,1.5-1.5,0,0,0,0,0,0,0-.8-.7-1.5-1.5-1.5-.8,0-1.4.8-1.4,1.6,0,.7.6,1.3,1.4,1.4h0Zm42.7-1.5c0-.8-.7-1.5-1.5-1.5-.8,0-1.5.7-1.5,1.5,0,.8.7,1.5,1.5,1.5.8,0,1.5-.6,1.5-1.4,0,0,0,0,0,0Zm-44.1,41.9c0,.8.7,1.5,1.5,1.5.8,0,1.5-.7,1.5-1.5h0c0-.8-.7-1.5-1.5-1.5,0,0,0,0,0,0-.8,0-1.5.7-1.5,1.5,0,0,0,0,0,0Zm44.1,0c0-.8-.7-1.5-1.5-1.5,0,0,0,0,0,0-.8,0-1.5.7-1.5,1.5,0,.8.7,1.5,1.5,1.5.8,0,1.5-.7,1.5-1.5Z"/><path class="cls-4" d="m60,36.5h-22.5c-.8,0-.8,0-.8-.8,0-.7,0-1.4,0-2.2h23.4v3Z"/><path class="cls-4" d="m36.6,83c0-.8,0-1.6,0-2.4,0-.4.2-.6.6-.6h22.7v3h-23.4Z"/><path class="cls-6" d="m60,36.5v-3h3v2.4c0,.4-.2.6-.6.6-.8,0-1.6,0-2.3,0Z"/><path class="cls-6" d="m60.1,83v-3h2.4c.4,0,.6.2.6.6v2.4h-3Z"/><path class="cls-3" d="m38.2,74.2h-3.1c-1.2,0-1.1,0-1.2-1.2v-29.5c0-1.2,0-1.1,1.2-1.2h27.6v3.2c-.1-.1-.3-.2-.5-.2h-24.5c-.8,0-.8,0-.8.8v24.2c0,.8,0,.8.8.8h24.5c.2,0,.4,0,.5-.2v3.2h-24.5Z"/><path class="cls-7" d="m62.7,45.5v-3.2h.4s1.5,0,1.5,0c1.3,0,1.1,0,1.2,1.2v29.5c0,1.3,0,1.1-1.2,1.2h-1.8v-28.7h0Z"/><path class="cls-5" d="m29.2,38.9c-.8,0-1.4-.8-1.4-1.6,0-.7.6-1.3,1.4-1.4.8,0,1.5.7,1.5,1.5,0,.8-.7,1.5-1.5,1.5,0,0,0,0,0,0Z"/><path class="cls-5" d="m71.9,37.4c0,.8-.6,1.5-1.5,1.5,0,0,0,0,0,0-.8,0-1.5-.7-1.5-1.5,0-.8.7-1.5,1.5-1.5.8,0,1.5.7,1.5,1.5Z"/><path class="cls-9" d="m27.8,79.3c0-.8.6-1.5,1.4-1.5,0,0,0,0,0,0,.8,0,1.5.7,1.5,1.5,0,0,0,0,0,0,0,.8-.7,1.5-1.5,1.5-.8,0-1.5-.7-1.5-1.5Z"/><path class="cls-9" d="m71.9,79.2c0,.8-.6,1.5-1.5,1.5,0,0,0,0,0,0-.8,0-1.5-.7-1.5-1.5,0-.8.7-1.5,1.5-1.5.8,0,1.5.6,1.5,1.5,0,0,0,0,0,0Z"/><path class="cls-12" d="m39.7,42.3h-1.4v-1.8c0-.6.3-.9.7-.9s.7.3.7.9,0,1.2,0,1.8Z"/><path class="cls-15" d="m65.8,57.4v-1.5h1.8c.6,0,.9.3.9.7s-.3.7-.9.7h-1.8Z"/><path class="cls-15" d="m49,42.3h-1.4v-1.8c0-.6.3-.9.7-.9s.7.3.7.9,0,1.2,0,1.8Z"/><path class="cls-15" d="m52.1,42.3h-1.4v-1.8c0-.6.3-.9.7-.9s.7.3.7.9,0,1.2,0,1.8Z"/><path class="cls-15" d="m34,56v1.5h-1.8c-.6,0-.9-.3-.8-.7s.3-.7.8-.7,1.2,0,1.8,0Z"/><path class="cls-12" d="m65.8,69.9v-1.5h1.8c.6,0,.9.3.9.7s-.3.7-.9.7h-1.8Z"/><path class="cls-15" d="m65.8,60.5v-1.5h1.8c.6,0,.8.3.8.7s-.3.7-.8.7-1.2,0-1.8,0Z"/><path class="cls-12" d="m34,68.4v1.5h-1.8c-.6,0-.8-.3-.8-.7s.3-.7.8-.7,1.2,0,1.8,0Z"/><path class="cls-12" d="m34,46.6v1.5h-1.8c-.6,0-.9-.3-.9-.7s.3-.7.9-.7,1.1,0,1.8,0Z"/><path class="cls-12" d="m65.8,48.1v-1.5h1.8c.6,0,.8.3.8.7s-.3.7-.8.7-1.2,0-1.8,0Z"/><path class="cls-15" d="m34,59.1v1.4h-1.8c-.6,0-.9-.3-.9-.7s.3-.7.9-.7h1.8Z"/><path class="cls-12" d="m38.2,74.2h1.4v1.8c0,.6-.3.9-.7.9s-.7-.3-.7-.9,0-1.2,0-1.8Z"/><path class="cls-15" d="m47.6,74.2h1.4v1.8c0,.6-.3.8-.7.8s-.7-.3-.7-.8,0-1.2,0-1.8Z"/><path class="cls-15" d="m50.7,74.2h1.4v1.8c0,.6-.3.9-.7.9s-.7-.3-.7-.9v-1.8Z"/><path class="cls-12" d="m60,74.2h1.4v1.8c0,.6-.3.8-.7.8s-.7-.3-.7-.8,0-1.2,0-1.8Z"/><path class="cls-12" d="m61.4,42.3h-1.4v-1.8c0-.6.3-.9.7-.9s.7.3.7.9,0,1.2,0,1.8Z"/><path class="cls-14" d="m34,52.9v1.4h-1.9c-.5,0-.9-.3-.9-.7s.3-.7.9-.7h1.9Z"/><path class="cls-14" d="m65.8,54.3v-1.4h1.8c.6,0,.8.3.8.7s-.3.7-.8.7h-1.8Z"/><path class="cls-14" d="m53.8,74.2h1.4v1.8c0,.6-.3.8-.7.8s-.7-.3-.7-.8,0-1.2,0-1.8Z"/><path class="cls-14" d="m34,62.2v1.5h-1.8c-.6,0-.9-.3-.9-.7s.3-.7.9-.7,1.2,0,1.8,0Z"/><path class="cls-14" d="m65.8,63.7v-1.5h1.8c.6,0,.8.3.8.7s-.3.7-.8.7-1.2,0-1.8,0Z"/><path class="cls-14" d="m45.9,42.3h-1.4v-1.8c0-.6.3-.9.7-.9s.7.3.7.9,0,1.2,0,1.8Z"/><path class="cls-14" d="m55.2,42.3h-1.4v-1.8c0-.6.3-.9.7-.9s.7.3.7.9,0,1.2,0,1.8Z"/><path class="cls-14" d="m44.4,74.2h1.4v1.8c0,.6-.3.8-.7.8s-.7-.3-.7-.8,0-1.2,0-1.8Z"/><path class="cls-11" d="m34,71.6v1.4h-1.8c-.6,0-.9-.3-.9-.7s.3-.7.9-.7,1.2,0,1.8,0Z"/><path class="cls-11" d="m65.8,73v-1.5h1.8c.6,0,.8.3.8.7s-.3.7-.8.7-1.2,0-1.8,0Z"/><path class="cls-11" d="m65.8,45v-1.5h1.8c.6,0,.9.3.9.7s-.3.7-.9.7h-1.8Z"/><path class="cls-14" d="m41.4,74.2h1.4v1.8c0,.6-.3.9-.7.9s-.7-.3-.7-.9,0-1.2,0-1.8Z"/><path class="cls-14" d="m65.8,51.2v-1.4h1.8c.5,0,.8.3.8.7s-.3.7-.8.7-1.2,0-1.8,0Z"/><path class="cls-14" d="m34,49.7v1.4h-1.8c-.6,0-.9-.3-.9-.7s.3-.7.9-.7h1.8Z"/><path class="cls-14" d="m34,65.3v1.5h-1.8c-.6,0-.8-.3-.8-.7s.3-.7.8-.7,1.2,0,1.8,0Z"/><path class="cls-14" d="m65.8,66.8v-1.5h1.8c.6,0,.9.3.9.7s-.3.7-.9.7h-1.8Z"/><path class="cls-11" d="m35.1,74.2h1.4v1.8c0,.6-.3.8-.7.8s-.7-.3-.7-.8,0-1.2,0-1.8Z"/><path class="cls-11" d="m34,43.5v1.5h-1.9c-.5,0-.8-.3-.8-.7s.3-.7.8-.7,1.2,0,1.9,0Z"/><path class="cls-11" d="m64.6,42.3h-1.5v-1.8c0-.6.3-.8.7-.8s.7.3.7.8,0,1.2,0,1.8Z"/><path class="cls-11" d="m63.1,74.2h1.5v1.8c0,.6-.3.9-.7.9s-.7-.3-.7-.9,0-1.2,0-1.8Z"/><path class="cls-14" d="m58.3,42.3h-1.4v-1.8c0-.6.3-.9.7-.9s.7.3.7.9,0,1.2,0,1.8Z"/><path class="cls-14" d="m42.8,42.3h-1.4v-1.8c0-.6.3-.9.7-.9s.7.3.7.9,0,1.2,0,1.8Z"/><path class="cls-11" d="m36.5,42.3h-1.4v-1.8c0-.6.3-.9.7-.9s.7.3.7.9,0,1.2,0,1.8Z"/><path class="cls-14" d="m56.9,74.2h1.4v1.8c0,.6-.3.8-.7.8s-.7-.3-.7-.8,0-1.2,0-1.8Z"/><path class="cls-13" d="m59.8,71.2h-22c-.8,0-.8,0-.8-.8v-24.2c0-.8,0-.8.8-.8h22v25.9Zm-1-20.7h0v-2.3c0-.4-.3-.7-.7-.7,0,0,0,0,0,0-.4,0-.7.3-.8.7,0,0,0,0,0,0v3.1c0,.8.1.6-.7.7-.4,0-.5,0-.5-.5v-3.3c0-.5-.3-.8-.7-.8-.4,0-.7.3-.8.7,0,0,0,0,0,.1v4.3c0,.6.3.8.9.8h2.3c.6,0,.9-.3.9-.9s0-1.4,0-2.1Zm-8.5,0v2.2c0,.5.3.8.7.9s.7-.3.7-.8v-1.1c0-.3,0-.3.3-.3h1.4c.4,0,.8-.2.9-.7,0,0,0-.1,0-.2v-2c0-.7-.3-.9-.9-.9h-2.1c-.7,0-1,.2-1,1s0,1.3,0,2h0Zm-4.4,0v2.2c0,.4.2.8.6.8,0,0,.1,0,.2,0h2.3c.5,0,.9-.3.9-.7s-.3-.8-.9-.8h-1.4c-.2,0-.3,0-.3-.3,0-.8,0-1.7,0-2.5,0-.2,0-.3.3-.3h1.4c.5,0,.8-.3.8-.8s-.3-.7-.8-.7h-2.4c-.4,0-.8.2-.8.6,0,0,0,.1,0,.2,0,.7,0,1.4,0,2.1h0Zm-5.6,19.3h1.3c.2,0,.4,0,.5-.2,0-.2,0-.4-.2-.5l-2.7-2.5c-.1-.2-.3-.2-.5-.1-.2,0-.2.2-.2.4v2.5c0,.2.1.4.4.5,0,0,0,0,0,0h1.4Z"/><path class="cls-1" d="m59.8,71.2v-25.8h2.5c.2,0,.4,0,.5.2v25.4c-.1.1-.3.2-.5.2-.8,0-1.7,0-2.5,0Z"/><path class="cls-10" d="m58.8,50.4v2.1c0,.7-.3.9-.9.9h-2.3c-.6,0-.9-.3-.9-.8v-4.3c0-.4.2-.8.6-.8,0,0,0,0,.1,0,.4,0,.7.3.7.8v3.3c0,.4.1.5.5.5.8,0,.7,0,.7-.7v-3.1c0-.4.3-.7.7-.7,0,0,0,0,0,0,.4,0,.7.3.7.7,0,0,0,0,0,0v2.3h0Z"/><path class="cls-10" d="m50.3,50.4v-2c0-.7.3-.9,1-1h2.2c.6,0,.9.3.9.9s0,1.4,0,2c0,.4-.2.8-.7.9,0,0-.1,0-.2,0h-1.4c-.3,0-.3,0-.3.3v1.1c0,.5-.3.8-.7.8s-.7-.3-.7-.9c0-.7,0-1.4,0-2.2Zm2-.6c.3,0,.6.1.6-.4s-.2-.5-.6-.4-.6-.1-.6.4.2.5.6.4h0Z"/><path class="cls-10" d="m45.9,50.4v-2.1c0-.4.2-.8.6-.8,0,0,.1,0,.2,0h2.4c.5,0,.8.3.8.7s-.3.7-.8.8-1,0-1.4,0-.3,0-.3.3c0,.8,0,1.7,0,2.5,0,.2,0,.3.3.3h1.4c.5,0,.9.3.9.8s-.3.7-.9.7h-2.3c-.4,0-.8-.2-.8-.6,0,0,0-.1,0-.2,0-.7,0-1.5,0-2.2Z"/><path class="cls-16" d="m40.3,69.8h-1.4c-.2,0-.4-.1-.5-.4,0,0,0,0,0,0v-2.5c0-.2,0-.4.2-.4.2,0,.4,0,.5.1l2.7,2.5c.2.1.2.3.2.5,0,.2-.3.2-.5.2h-1.3Z"/><path class="cls-12" d="m52.3,49.7c-.3,0-.6,0-.6-.4s.3-.4.6-.4.6,0,.6.4-.3.4-.6.4Z"/><path d="m32.1,21.2c-1.2-3.9.9-7.9,4.9-9.1,2.4-.7,4.9-.2,6.7,1.4l-2.2,2.3c-.9-.9-2.2-1.1-3.6-.7-2.4.7-3.4,2.8-2.7,5.2.7,2.4,2.7,3.5,5.1,2.8,1.4-.4,2.3-1.4,2.6-2.6l3.1.7c-.6,2.2-2.4,4.1-4.8,4.8-4,1.2-7.9-.9-9.1-4.9Z"/><path d="m58.2,16.3c-.2,2.6-2.6,4.6-5.3,4.3l-2.1-.2-.4,4.4-3.2-.3,1.3-13.9,5.3.5c2.7.3,4.7,2.6,4.4,5.2Zm-3.2-.3c0-1-.5-1.9-1.5-2l-2.1-.2-.3,3.6,2.1.2c1,0,1.8-.6,1.9-1.6Z"/><path d="m59.7,21.5l4.2-8.5,2.9,1.4-4.1,8.2c-.5.9-.4,2,1.1,2.7,1.5.8,2.4.2,2.8-.8l4.1-8.2,2.9,1.4-4.2,8.5c-1.3,2.7-4.2,3.3-7,1.9-2.8-1.4-4-4-2.7-6.7Z"/></svg>