<?xml version="1.0" encoding="UTF-8"?><svg id="Layer_1" xmlns="http://www.w3.org/2000/svg" viewBox="0 0 94 95.2"><defs><style>.cls-1{fill:none;stroke:#0018c6;stroke-miterlimit:10;stroke-width:4px;}.cls-2{fill:#8ac5cd;}.cls-3{fill:#3b566a;}.cls-4{fill:#b2d3d9;}.cls-5{fill:#b3d4da;}.cls-6{fill:#637889;}.cls-7{fill:#88c4cc;}.cls-8{fill:#2f4859;}.cls-9{fill:#304959;}</style></defs><circle class="cls-1" cx="47" cy="48.2" r="45"/><g><path class="cls-3" d="M58.8,28.6c.2,.3,.5,.5,.8,.7,1.2,1.1,1.8,2.6,1.8,4.2,0,9.7,0,19.5,0,29.2v16.1c0,3.6-1.8,5.7-5.5,6-6,.5-12,.5-18,0-3.2-.2-5.2-2.5-5.2-5.7,0-15.2,0-30.4,0-45.6,0-3.2,2.1-5.5,5.2-5.7,5.2-.4,10.5-.4,15.8-.2,.4,0,.7,0,1.1,.1,1.4,0,2.8,.2,4.1,.7Zm-10.9,6.6h-1.1c-3.3,0-6.7,0-10,0-.7,0-.9,.2-.9,.9,0,3.8,0,7.7,0,11.5s0,2.4,2.4,2.3h1.1s1.1,0,1.1,0h1.6c5.1,0,10.2,0,15.3,0,.6,0,.7-.2,.7-.7,0-4.4,0-8.8,0-13.2,0-.5-.1-.8-.7-.8-2.3,0-4.5,0-6.8,0h-1.6s-1.1,0-1.1,0Zm2.1,29.5c-2.3,0-2.1,0-2.1,2.2,0,.7,.3,1,1,1,.5,0,1.1,0,1.6,0,1.3,0,1.4,0,1.4-1.3,0-2.2,.2-1.9-1.9-1.9h0Zm-5.9,0c-.4,0-.7,0-1.1,0-.6,0-1,.2-.8,.8,.2,.8-.7,2.1,.8,2.4,.7,.2,1.5,0,2.3,0,.5,0,.8-.3,.9-.7,.5-1.9,0-2.5-1.9-2.5h0Zm0-4.7c-2.2,0-1.9-.2-2,2,0,0,0,.2,0,.3,0,.7,.3,1,.9,1,.7,0,1.5,0,2.3,0,.4,0,.7-.3,.8-.7,.5-1.9,0-2.5-1.9-2.5h0Zm6,0h-1.3c-.5,0-.8,.2-.8,.7,0,2.3-.2,2.6,2.1,2.5,.1,0,.3,0,.5,0,1.3,0,1.4-.2,1.4-1.4,0-2.1,.2-1.9-1.9-1.9h0Zm-.1,12.7c.3,0,.7,0,1,0,.5,0,1-.1,1-.7,0-.8,.5-1.8-.4-2.5-.1,0-.2,0-.4,0h-2.4c-.4,0-.7,.2-.8,.6-.5,1.9,0,2.6,2,2.6h0Zm-5.8,0c.3,0,.7,0,1,0,.6,0,1-.2,1-.8,0-.8,.5-1.8-.4-2.4-.1,0-.2,0-.4,0h-2.4c-.3,0-.7,.2-.8,.5-.6,1.8,0,2.7,1.9,2.7h0Zm0-17.4c-.3,0-.6,0-.9,0-.7,0-1,.2-1,1,0,2.3,0,2.3,2.3,2.3,.3,0,.5,0,.8,0,.5,0,.8-.3,.9-.8,.4-2,0-2.5-2-2.5h0Zm6,0h-1.3c-.5,0-.8,.2-.8,.8,0,2.3-.2,2.6,2.1,2.5,.2,0,.3,0,.5,0,1.3,0,1.4-.2,1.4-1.4,0-2.1,.2-1.9-1.9-1.9h0Zm-11.8,17.4c.3,0,.5,0,.8,0,.9,0,1.2-.3,1.1-1.2,0-2.4,.3-2.1-2.1-2.1h-.4c-1.3,0-1.4,0-1.3,1.3,0,1.8-.4,2,1.9,1.9Zm17.6-3.3c-.3,0-.5,0-.8,0-.8-.1-1.1,.2-1.1,1.1,0,2.3-.4,2.2,2.2,2.2h.4c1.3,0,1.3,0,1.3-1.3,0-2.2,.2-1.9-1.9-1.9h0Zm0-4.7c-.3,0-.7,0-1,0-.7,0-.9,.3-.9,1,0,2.4-.4,2.3,2.3,2.3h.3c1.2,0,1.3-.1,1.3-1.3,0-2.2,.2-2-1.9-2h0Zm-17.5,0c-.3,0-.6,0-.9,0-.8,0-1.1,.2-1.1,1.1,0,2.3-.4,2.2,2.2,2.2h.4c1.2,0,1.3-.1,1.3-1.4,0-2.1,.2-1.9-1.9-1.9h0Zm0-4.7c-.3,0-.6,0-.9,0-.8,0-1.1,.2-1,1,0,2.3-.2,2.3,2.2,2.2h.3c1.3,0,1.4,0,1.4-1.4,0-2.1,.2-1.9-1.9-1.9Zm17.6-4.7c-.3,0-.7,0-1,0-.7,0-.9,.3-.9,1,0,2.4-.2,2.3,2.3,2.3h.3c1.2,0,1.3-.1,1.3-1.3,0-2.2,.2-1.9-1.9-2h0Zm0,4.7c-2.2,0-1.9-.3-2,2v.2c0,.8,.3,1.1,1.1,1.1,.5,0,1,0,1.4,0,1.2,0,1.3-.1,1.3-1.4,0-2.1,.2-1.9-1.9-1.9Zm-17.6-4.7c-.3,0-.7,0-1,0-.7,0-.9,.3-.9,1,0,2.4-.2,2.3,2.3,2.3h.3c1.2,0,1.3-.1,1.3-1.3,0-2.2,.2-1.9-1.9-2Zm10.7-22.9c.4,0,.7-.1,.6-.6,0-.4-.2-.5-.6-.5-.4,0-.7,.1-.6,.6,0,.4,.2,.5,.6,.5h0Zm2.5-.5c0-.4-.2-.5-.6-.5-.4,0-.7,0-.7,.5,0,.4,.2,.5,.6,.5,.4,0,.7-.1,.7-.5h0Zm-5.8,48.7c0-.4-.2-.6-.6-.6s-.5,.3-.5,.6c0,.4,.2,.6,.5,.6s.5-.3,.5-.6Zm-2.1-49.2c-.3,0-.6,.2-.7,.5,0,.4,.3,.6,.6,.6,.3,0,.5-.1,.5-.4,0,0,0,0,0,0,0-.4-.1-.6-.5-.6Zm2.3,.5c0-.4-.2-.5-.6-.5-.3,0-.6,.2-.6,.5,0,.3,.3,.5,.6,.5,.4,0,.5-.2,.5-.5Zm-.2,44.6c0-.4-.3-.5-.6-.5s-.5,.2-.5,.5c0,.4,.2,.6,.5,.6s.5-.2,.5-.6h0Zm4-.1c0-.2-.1-.4-.5-.4s-.6,.1-.6,.5c0,.4,.2,.6,.5,.6s.5-.2,.5-.7h0Zm-.4,4.7c.3,0,.4-.2,.4-.5,0-.3-.2-.6-.5-.6s-.6,.2-.5,.6,.2,.5,.7,.5Zm-1.6-49.2c0-.4-.3-.5-.6-.5-.3,0-.5,.2-.4,.6,0,.4,.3,.5,.6,.5,.3,0,.5-.3,.5-.6h0Zm-.5,44.3c.3,0,.5-.2,.5-.5,0-.4-.2-.6-.6-.5s-.5,.2-.5,.6c0,.3,.3,.5,.6,.5h0Zm-3,2.9c.3,0,.5-.1,.6-.5,0-.4-.1-.6-.5-.6-.3,0-.5,.1-.6,.5,0,.4,.1,.6,.5,.6Zm5.7-1.1c-.3,0-.5,.3-.4,.6,0,.3,.2,.5,.6,.4,.4,0,.5-.3,.5-.6,0-.3-.3-.5-.6-.5Zm-2.8,4c.3,0,.5-.2,.5-.5,0-.4-.2-.6-.5-.6-.3,0-.5,.2-.5,.5,0,.4,.2,.6,.5,.6Zm-.6-3.1c0-.3-.1-.5-.5-.5-.3,0-.5,.2-.5,.5s.1,.6,.4,.6c.3,0,.5-.2,.6-.5h0Zm.8,.4c-.3,0-.5,.2-.5,.5,0,.3,.3,.5,.6,.5,0,0,0,0,0,0,.3,0,.4-.3,.4-.5,0-.3-.2-.5-.5-.5h0Zm0-1.9c0-.3-.2-.5-.4-.5-.3,0-.5,.2-.6,.5,0,.2,.1,.5,.4,.5,0,0,0,0,0,0,.3,0,.4-.3,.5-.5h0Zm1,1.3c.2,0,.4-.2,.4-.4,0-.2,0-.4-.3-.5,0,0,0,0-.1,0-.3,0-.4,.2-.5,.4,0,.2,0,.4,.4,.4Z"/><path class="cls-7" d="M50.6,35.2c2.3,0,4.5,0,6.8,0,.6,0,.7,.2,.7,.8,0,4.4,0,8.8,0,13.2,0,.5-.1,.7-.7,.7-5.1,0-10.2,0-15.3,0,0-.2,.1-.4,.2-.6,1.9-3.1,3.7-6.2,5.6-9.3,.9-1.6,2-3.1,2.7-4.8Z"/><path class="cls-7" d="M38.3,49.8q-2.4,0-2.4-2.3c0-3.8,0-7.7,0-11.5,0-.7,.2-.9,.9-.9,3.3,0,6.7,0,10,0-.6,1.5-1.6,2.8-2.4,4.2-2,3.5-4.1,6.9-6.1,10.4Z"/><path class="cls-5" d="M50.6,35.2c-.7,1.7-1.8,3.2-2.7,4.8-1.8,3.1-3.7,6.2-5.6,9.3,0,.2-.2,.4-.2,.6h-1.6c0-.2,.1-.4,.2-.6,1.6-2.6,3.2-5.3,4.7-7.9,1.2-2.1,2.5-4,3.6-6.2h1.6Z"/><path class="cls-2" d="M49,35.2c-1.1,2.1-2.4,4.1-3.6,6.2-1.6,2.7-3.2,5.3-4.7,7.9,0,.2-.2,.4-.2,.6h-1.1c.4-1.3,1.2-2.3,1.8-3.3,2.2-3.8,4.5-7.6,6.7-11.3h1.1Z"/><path class="cls-4" d="M47.9,35.2c-2.2,3.8-4.5,7.5-6.7,11.3-.6,1.1-1.5,2.1-1.8,3.3h-1.1c2.1-3.4,4.1-6.9,6.1-10.4,.8-1.4,1.8-2.7,2.4-4.2h1.1Z"/><path class="cls-6" d="M50,64.7c2.2,0,1.9-.2,1.9,1.9,0,1.2,0,1.3-1.4,1.3-.5,0-1.1,0-1.6,0-.7,0-1-.4-1-1,0-2.3-.2-2.3,2.1-2.2Z"/><path class="cls-6" d="M44,64.7h0c1.9,0,2.4,.6,1.9,2.5-.1,.5-.4,.7-.9,.7-.8,0-1.5,.1-2.3,0-1.5-.3-.6-1.6-.8-2.4-.1-.6,.2-.9,.8-.8,.4,0,.7,0,1.1,0Z"/><path class="cls-6" d="M44,60h0c1.9,0,2.4,.6,1.9,2.5-.1,.4-.4,.7-.8,.7-.7,0-1.5,0-2.3,0-.6,0-1-.3-.9-1,0,0,0-.2,0-.3,0-2.2-.3-2,2-2Z"/><path class="cls-6" d="M50,60c2.1,0,1.9-.2,1.9,1.9,0,1.2-.2,1.4-1.4,1.4-.2,0-.3,0-.5,0-2.4,0-2.1-.2-2.1-2.5,0-.5,.3-.7,.8-.7,.4,0,.8,0,1.3,0Z"/><path class="cls-6" d="M49.9,72.7c-1.9,0-2.5-.7-2-2.6,.1-.4,.4-.6,.8-.6h2.4c.1,0,.2,0,.4,0,.9,.7,.4,1.7,.4,2.5,0,.6-.5,.7-1,.7-.3,0-.7,0-1,0Z"/><path class="cls-6" d="M44,72.7c-1.8,0-2.5-1-1.9-2.7,0-.3,.4-.6,.8-.5h2.4c.1,0,.2,0,.4,0,.9,.7,.4,1.6,.4,2.4,0,.5-.4,.8-1,.8-.3,0-.7,0-1,0Z"/><path class="cls-6" d="M44,55.2h0c2,0,2.4,.5,2,2.5,0,.5-.4,.7-.9,.8-.3,0-.5,0-.8,0-2.3,0-2.3,0-2.3-2.3s.3-1.1,1-1c.3,0,.6,0,.9,0Z"/><path class="cls-6" d="M50,55.2c2.1,0,1.9-.2,1.9,1.9,0,1.2-.2,1.4-1.4,1.4h-.5c-2.4,0-2.1-.2-2.1-2.5,0-.5,.3-.7,.8-.8,.4,0,.8,0,1.3,0Z"/><path class="cls-6" d="M38.2,72.7c-2.3,0-1.9-.1-1.9-1.9,0-1.3,0-1.3,1.3-1.3h.4c2.4,0,2.1-.3,2.1,2.1,0,.9-.3,1.2-1.1,1.2-.3,0-.5,0-.8,0Z"/><path class="cls-6" d="M55.8,69.4c2.2,0,1.9-.2,1.9,1.9,0,1.3,0,1.3-1.3,1.3h-.4c-2.6,0-2.1,0-2.2-2.2,0-.8,.3-1.2,1.1-1.1,.3,0,.5,0,.8,0Z"/><path class="cls-6" d="M55.8,64.7c2.1,0,1.9-.2,1.9,2,0,1.2-.1,1.3-1.3,1.3h-.3c-2.7,0-2.2,.1-2.3-2.3,0-.7,.2-1,.9-1,.3,0,.7,0,1,0Z"/><path class="cls-6" d="M38.2,64.7c2.1,0,1.8-.2,1.9,1.9,0,1.2,0,1.4-1.3,1.4h-.4c-2.6,0-2.1,0-2.2-2.2,0-.8,.3-1.2,1.1-1.1,.3,0,.6,0,.9,0Z"/><path class="cls-6" d="M38.2,60c2.1,0,1.9-.2,1.9,1.9,0,1.3,0,1.4-1.4,1.4h-.3c-2.4,0-2.1,0-2.2-2.2,0-.8,.2-1.1,1-1,.3,0,.6,0,.9,0Z"/><path class="cls-6" d="M55.8,55.2c2.1,0,1.9-.2,1.9,2,0,1.2-.1,1.3-1.3,1.3h-.3c-2.5,0-2.2,.1-2.3-2.3,0-.7,.2-1,.9-1,.3,0,.7,0,1,0Z"/><path class="cls-6" d="M55.8,60c2.1,0,1.9-.2,1.9,1.9,0,1.3-.1,1.4-1.3,1.4-.5,0-1,0-1.4,0-.8,0-1.1-.3-1.1-1.1v-.2c0-2.2-.3-2,2-2Z"/><path class="cls-6" d="M38.2,55.2c2.1,0,1.9-.2,1.9,1.9,0,1.2-.1,1.3-1.3,1.3h-.3c-2.5,0-2.3,.1-2.3-2.3,0-.7,.2-1,.9-1,.3,0,.7,0,1,0Z"/><path class="cls-8" d="M48.9,32.4c-.3,0-.6-.1-.6-.5,0-.4,.3-.6,.6-.6,.3,0,.6,.1,.6,.5,0,.4-.3,.6-.6,.6Z"/><path class="cls-8" d="M51.3,31.9c0,.4-.3,.5-.7,.5-.4,0-.6-.2-.6-.5,0-.4,.3-.5,.7-.5,.4,0,.6,.2,.6,.5Z"/><path class="cls-9" d="M45.5,80.5c0,.3-.2,.6-.5,.6s-.6-.2-.5-.6c0-.3,.1-.6,.5-.6s.6,.2,.6,.6Z"/><path class="cls-8" d="M43.4,31.3c.4,0,.5,.2,.5,.6,0,.3-.2,.5-.5,.5,0,0,0,0,0,0-.4,0-.7-.2-.6-.6,0-.3,.3-.5,.7-.5Z"/><path class="cls-8" d="M45.7,31.8c0,.4-.2,.6-.5,.5-.3,0-.6-.2-.6-.5s.3-.5,.6-.5c.3,0,.6,.1,.6,.5Z"/><path class="cls-8" d="M45.5,76.4c0,.4-.2,.6-.5,.6s-.5-.2-.5-.6c0-.3,.1-.5,.5-.5s.6,.1,.6,.5Z"/><path class="cls-8" d="M49.5,76.3c0,.5-.2,.7-.5,.7s-.5-.2-.5-.6c0-.4,.3-.5,.6-.5s.5,.2,.5,.4Z"/><path class="cls-8" d="M49.1,81c-.4,0-.7-.1-.7-.5s.2-.6,.5-.6,.5,.2,.5,.6c0,.3-.1,.5-.4,.5Z"/><path class="cls-8" d="M47.5,31.8c0,.3-.1,.5-.4,.6-.3,0-.6-.1-.6-.5,0-.3,.1-.5,.4-.6,.4,0,.6,.1,.6,.5Z"/><path class="cls-8" d="M47,76.1c-.3,0-.5-.1-.6-.5,0-.4,.1-.6,.5-.6s.6,.2,.6,.5c0,.3-.2,.5-.5,.5Z"/><path class="cls-8" d="M44.1,79c-.4,0-.5-.2-.5-.6,0-.3,.2-.5,.6-.5,.4,0,.5,.2,.5,.6,0,.3-.2,.5-.6,.5Z"/><path class="cls-8" d="M49.8,77.9c.4,0,.6,.1,.6,.4,0,.3-.1,.6-.5,.6-.3,0-.5-.1-.6-.4,0-.4,.1-.6,.4-.6Z"/><path class="cls-8" d="M47,73.9c-.2,0-.4-.2-.4-.4,0-.2,.1-.3,.4-.3,.3,0,.4,.2,.4,.4,0,.2-.1,.3-.4,.3Z"/><path class="cls-9" d="M46.4,78.8c-.1,.3-.3,.5-.6,.5s-.5-.2-.4-.6,.2-.5,.5-.5c.4,0,.4,.3,.5,.5Z"/><path class="cls-9" d="M47.2,79.2c.3,0,.5,.2,.5,.5,0,.3,0,.5-.4,.5-.3,0-.6-.1-.6-.4,0,0,0,0,0,0,0-.3,.2-.4,.5-.5Z"/><path class="cls-9" d="M47.1,77.4c0,.2-.2,.5-.5,.5-.3,0-.5-.2-.5-.4,0,0,0,0,0,0,0-.3,.3-.5,.6-.5,.3,0,.4,.2,.4,.5Z"/><path class="cls-8" d="M48.2,78.6c-.4,0-.5-.2-.4-.4,0-.3,.2-.5,.5-.4,.2,0,.4,.2,.4,.4,0,0,0,0,0,.1,0,.2-.2,.4-.4,.4Z"/></g><g><path d="M18.9,60.9c2.2-1.6,5.2-1.3,6.8,.9l2.3,3.2-7.9,5.8-2.3-3.2c-1.6-2.2-1.1-5.1,1.1-6.7Zm1.3,1.7c-1.4,1-1.6,2.5-.7,3.7l1,1.4,4.4-3.3-1-1.4c-.9-1.2-2.4-1.5-3.8-.5Z"/><path d="M14.8,60.9c-.6,.3-1.4,0-1.7-.7-.3-.6,0-1.4,.7-1.7,.6-.3,1.4,0,1.7,.7,.3,.6,0,1.4-.7,1.7Zm1.6-.9l-.8-1.9,6.4-2.7,.8,1.9-6.4,2.7Z"/><path d="M18.4,49.5c1.6-.4,2.6,.8,2.9,2.3,.3,1.4,0,2.5-.9,3.3l-1.4-1.5c.5-.3,.7-.7,.5-1.3-.1-.5-.3-.7-.6-.6-.8,.2,.4,3.4-1.9,4-1.5,.3-2.5-.7-2.9-2.2-.3-1.1,0-2.2,.8-3l1.3,1.5c-.3,.3-.5,.6-.4,1.1,0,.4,.3,.5,.5,.5,.8-.2-.5-3.4,2-4Z"/><path d="M17.1,40.9c2.1,0,3.6,1.6,3.6,3.5,0,.9-.4,1.6-.9,2.1h3.5c0,.1,0,2.2,0,2.2l-9.8-.3v-2.1c0,0,.7,0,.7,0-.5-.5-.8-1.2-.8-2.1,0-1.8,1.7-3.3,3.8-3.2Zm0,2.1c-1,0-1.7,.6-1.8,1.6,0,1,.6,1.7,1.6,1.7,1,0,1.7-.6,1.8-1.6s-.6-1.7-1.6-1.7Z"/><path d="M11.1,37.8l.5-2,9.9,2.5-.5,2-9.9-2.5Z"/><path d="M18.5,27.7l6.3,3.1-.9,1.9-.6-.3c.3,.7,.2,1.4-.2,2.2-.8,1.6-2.9,2.3-4.8,1.3s-2.6-3-1.8-4.6c.4-.8,1-1.3,1.7-1.5l-.6-.3,.9-1.9Zm2.2,3.4c-.9-.5-1.8-.1-2.3,.7-.4,.9-.2,1.8,.8,2.3s1.8,.1,2.3-.7c.4-.9,.2-1.8-.8-2.3Z"/><path d="M24.7,20.5l3.4,6.4c1.1,2.1,.9,3.6-.5,5l-1.4-1.3c.7-.7,.7-1.3,.3-2.1l-6.8-2.5,1.6-1.7,4.2,1.7-2.3-3.9,1.5-1.7Z"/><path d="M39,12.9l.6,7.3-1.8,.8-2.5-3,.4,3.9-1.8,.8-4.8-5.6,2.1-.9,2.4,3.1-.4-3.9,1.8-.8,2.4,3-.5-3.9,2.1-.9Z"/><path d="M40.6,11c0-.7,.4-1.3,1.1-1.4,.7,0,1.3,.4,1.4,1.1,0,.7-.4,1.3-1.1,1.4s-1.3-.4-1.4-1.1Zm.5,1.8l2.1-.3,1,6.9-2.1,.3-1-6.9Z"/><path d="M48,14.4v2.5c0,.6,.5,.7,1.4,.6v1.9c-2.8,.2-3.6-.6-3.5-2.5v-2.5s-1.1,0-1.1,0v-2s1.1,0,1.1,0v-1.3s2.1-.6,2.1-.6v2s1.4,0,1.4,0v2s-1.5,0-1.5,0Z"/><path d="M57.6,16.7l-1,4.2-2-.5,.9-3.9c.2-.8-.2-1.4-.9-1.5-.7-.2-1.4,.1-1.6,1.1l-.9,3.7-2-.5,2.3-9.5,2,.5-.8,3.4c.5-.4,1.3-.6,2.1-.4,1.4,.3,2.3,1.6,1.9,3.4Z"/><path d="M63.8,25.3v-3.8s-1.8,2.5-1.8,2.5l-1.7-1.2,5.8-7.9,1.7,1.2-3.5,4.7,3.5-1.2,2,1.5-4.1,1.3v4.4s-1.9-1.4-1.9-1.4Z"/><path d="M69,28.3c.4,.4,.8,.7,1.3,.7l.3,1.9c-1.2,0-2.2-.4-3-1.5-1.5-1.9-1.2-4,.4-5.3,1.6-1.3,3.8-1.2,5.2,.6,1.3,1.6,1,3.8-.6,5.1-.2,.2-.5,.3-.7,.5l-3.1-3.9c-.4,.7-.2,1.3,.3,1.9Zm2.8-.6c.5-.7,.3-1.4,0-1.9-.5-.6-1.1-.8-1.8-.5l1.9,2.3Z"/><path d="M79.1,35.5l-7.2,.6c-2.4,.2-3.7-.6-4.4-2.4l1.8-.8c.4,.9,.9,1.2,1.8,1.1l4.9-5.3,1,2.1-3.3,3.2,4.4-.6,.9,2Z"/><path d="M77.3,45.4c-2.1,.3-3.9-1-4.1-2.8-.1-.9,0-1.7,.5-2.2l-3.4,.5-.3-2.1,9.7-1.4,.3,2.1h-.7c.6,.5,1,1.1,1.1,2,.3,1.8-1.1,3.5-3.2,3.8Zm-.3-2.1c1-.2,1.6-.9,1.4-1.9-.1-1-.9-1.6-1.9-1.4s-1.6,.9-1.4,1.9c.1,1,.9,1.6,1.9,1.4Z"/><path d="M79.6,54.6l-6.9-1.1,.3-2.1h.6c-.5-.4-.7-1.2-.5-2.1,.3-1.8,2.1-3.1,4.2-2.7,2.1,.3,3.4,2.1,3.1,3.9-.1,.9-.6,1.6-1.2,1.9h.6c0,.1-.3,2.2-.3,2.2Zm-3.1-2.6c1,.2,1.8-.4,1.9-1.4,.1-1-.4-1.7-1.4-1.9s-1.8,.4-1.9,1.4c-.1,1,.4,1.7,1.4,1.9Z"/><path d="M78,65.2l-8.8-4.3,.9-1.9,.6,.3c-.3-.6-.3-1.4,.2-2.2,.8-1.6,2.9-2.3,4.8-1.4s2.6,3,1.8,4.6c-.4,.8-1,1.3-1.7,1.5l3.1,1.5-.9,1.9Zm-4.7-4.7c.9,.5,1.8,.1,2.3-.7,.4-.9,.1-1.8-.8-2.2-.9-.5-1.8-.1-2.3,.7-.4,.9-.1,1.8,.8,2.2Z"/></g></svg>