<?xml version="1.0" encoding="UTF-8"?><svg id="Layer_1" xmlns="http://www.w3.org/2000/svg" viewBox="0 0 100 100"><defs><style>.cls-1{fill:#f3c64b;}.cls-2{fill:none;stroke:#0018c6;stroke-miterlimit:10;stroke-width:4px;}.cls-3{fill:#010100;}.cls-4{fill:#020202;}.cls-5{fill:#e2e9f1;}.cls-6{fill:#396ebc;}.cls-7{fill:#e5ecf3;}.cls-8{fill:#e3eaf2;}.cls-9{fill:#010101;}</style></defs><circle class="cls-2" cx="50" cy="50" r="45"/><g><path class="cls-6" d="M35,56.2c0-5.8,0-11.5,0-17.3,0-4,2.7-6.7,6.7-6.7,5.5,0,11,0,16.5,0,4.1,0,6.7,2.7,6.7,6.7,0,11.6,0,23.2,0,34.8,0,4-2.7,6.7-6.7,6.7-5.5,0-11,0-16.5,0-4.1,0-6.7-2.7-6.7-6.7,0-5.8,0-11.6,0-17.5Zm1.5,0c0,5.8,0,11.6,0,17.5,0,3.1,2,5.1,5.1,5.1,5.6,0,11.1,0,16.7,0,3.1,0,5.1-2,5.1-5.1,0-11.6,0-23.3,0-34.9,0-3.1-2-5.1-5.1-5.1-5.6,0-11.1,0-16.7,0-3.1,0-5.1,2-5.1,5.1,0,5.8,0,11.6,0,17.5Z"/><path class="cls-9" d="M36.5,56.3c0-5.8,0-11.6,0-17.5,0-3.1,2-5.1,5.1-5.1,5.6,0,11.1,0,16.7,0,3.1,0,5.1,2,5.1,5.1,0,11.6,0,23.3,0,34.9,0,3.1-2,5.1-5.1,5.1-5.6,0-11.1,0-16.7,0-3.1,0-5.1-2-5.1-5.1,0-5.8,0-11.6,0-17.5Zm1.5,0c0,5.8,0,11.6,0,17.4,0,2.3,1.3,3.6,3.6,3.6,5.5,0,11,0,16.5,0,2.3,0,3.6-1.3,3.6-3.6,0-11.6,0-23.2,0-34.8,0-2.3-1.3-3.6-3.6-3.6-5.5,0-11,0-16.5,0-2.4,0-3.6,1.3-3.6,3.6,0,5.8,0,11.6,0,17.4h0Z"/><path class="cls-1" d="M38.1,56.3c0-5.8,0-11.6,0-17.4,0-2.3,1.3-3.6,3.6-3.6,5.5,0,11,0,16.5,0,2.4,0,3.6,1.3,3.6,3.6,0,11.6,0,23.2,0,34.8,0,2.3-1.3,3.6-3.6,3.6-5.5,0-11,0-16.5,0-2.3,0-3.6-1.3-3.6-3.6,0-5.8,0-11.6,0-17.4Zm12.6-1.6c.1-.4,.5-.6,.7-.9,.3-.5,.7-.5,1.2-.2,.7,.4,1.4,.7,2.1,1.1,.8,.4,1.6,.4,2.3-.1,1.1-.8,2.3-1.6,3.4-2.4,1-.8,1.3-2,.6-3-.7-1-1.9-1.2-3-.5-.7,.4-1.4,.9-2,1.4-.2,.1-.3,.3-.6,.2-.5-.2-.9-.5-1.5-.7,2.1-.8,2.9-2.1,2.4-3.7-.4-1.4-1.9-2.2-3.4-1.9-.7,.2-1.3,.6-1.7,1.2-.6,.9-.6,1.9,0,3-1-.5-1.9-1-2.7-1.4-.9-.5-1.7-.4-2.5,.3-1.2,1-2.4,2.1-3.6,3.1-1,.8-1.1,2.1-.4,3,.8,1,2.1,1.1,3.1,.2,.7-.6,1.4-1.2,2.2-1.9,.2-.1,.3-.4,.8-.2-.7,.8-1.4,1.5-2.1,2.2-2.2,2.1-4.3,4.2-6.5,6.3-1,.9-1,2.2,0,3.1,.8,.8,2.1,.8,3,0,.5-.5,1.1-1,1.6-1.5,1.1-1.1,2.2-2.1,3.3-3.2,.3-.2,.5-.3,.7,0,.3,.3,0,.4-.2,.5-.4,.5-.9,.9-1.3,1.4-.8,.9-.7,2.2,.1,3,.9,.8,2.1,.8,3,0,1.2-1.2,2.4-2.5,3.5-3.8,1-1.1,.7-2.6-.6-3.3-.6-.4-1.2-.7-1.8-1h0Zm-.6,11.8c-2.1,0-4.3,0-6.4,0-.6,0-1.1,0-1.1,.8s.5,.8,1.1,.8c4.2,0,8.4,0,12.7,0,.6,0,1.1,0,1.1-.8s-.5-.8-1.1-.8c-2.1,0-4.2,0-6.3,0h0Zm-.2,4.3c2.1,0,4.3,0,6.4,0,.6,0,1.1,0,1.1-.8s-.5-.8-1.1-.8c-4.2,0-8.4,0-12.7,0-.6,0-1.1,0-1.1,.8s.5,.8,1.1,.8c2.1,0,4.2,0,6.3,0h0Zm4.2,2.8c.8,0,1.6,0,2.5,0,.5,0,.9-.2,.9-.8s-.4-.8-.9-.8c-1.6,0-3.2,0-4.9,0-.5,0-.9,.2-.9,.7,0,.6,.4,.8,.9,.8,.8,0,1.6,0,2.4,0h0Zm-4.1-35.7c-.5,0-1,0-1.5,0-.5,0-.8,.3-.8,.8,0,.5,.3,.7,.8,.7,1,0,2,0,3,0,.5,0,.8-.3,.8-.8s-.3-.8-.8-.8c-.5,0-1,0-1.5,0Z"/><path class="cls-4" d="M50.7,54.7c.6,.3,1.2,.7,1.8,1,1.3,.8,1.6,2.2,.6,3.3-1.1,1.3-2.3,2.6-3.5,3.8-.9,.9-2.1,.9-3,0-.8-.8-.9-2.1-.1-3,.4-.5,.9-.9,1.3-1.4,.1-.1,.5-.3,.2-.5-.2-.3-.5-.2-.7,0-1.1,1.1-2.2,2.1-3.3,3.2-.5,.5-1.1,1-1.6,1.5-1,.9-2.2,.9-3,0-.9-.9-.9-2.2,0-3.1,2.2-2.1,4.3-4.2,6.5-6.3,.7-.7,1.4-1.5,2.1-2.2-.4-.2-.6,0-.8,.2-.7,.6-1.4,1.3-2.2,1.9-1,.8-2.3,.7-3.1-.2-.7-.9-.6-2.2,.4-3,1.2-1.1,2.4-2.1,3.6-3.1,.8-.7,1.6-.7,2.5-.3,.9,.5,1.7,.9,2.7,1.4-.5-1.1-.5-2.1,0-3,.4-.6,1-1,1.7-1.2,1.5-.4,2.9,.5,3.4,1.9,.5,1.6-.3,2.9-2.4,3.7,.5,.3,1,.5,1.5,.7,.3,.1,.4,0,.6-.2,.7-.5,1.3-1,2-1.4,1.1-.7,2.3-.5,3,.5,.7,1,.5,2.2-.6,3-1.1,.8-2.3,1.6-3.4,2.4-.7,.5-1.5,.5-2.3,.1-.7-.4-1.4-.7-2.1-1.1-.5-.3-.8-.3-1.2,.2-.2,.3-.5,.5-.7,.9Zm-2.7,7.3c.3,0,.5-.2,.6-.4,1-1.1,2.1-2.3,3.1-3.4,.5-.6,.5-.8-.2-1.3-.8-.4-1.5-.8-2.3-1.3-.8-.5-.9-.9-.2-1.6,.8-.9,1.7-1.8,2.5-2.7,.6-.7,.6-.9-.2-1.4-1.2-.6-2.4-1.3-3.5-1.9-.4-.2-.7-.2-1,0-1.1,1-2.3,2-3.5,3-.3,.3-.5,.6-.2,.9,.3,.4,.7,.2,1,0,.6-.5,1.2-1,1.8-1.5,1.8-1.5,1.2-1.5,3.4-.3,.9,.5,.9,.9,.3,1.6-.9,.9-1.7,1.8-2.6,2.8-.5,.6-.5,.8,.2,1.2,.8,.4,1.5,.8,2.3,1.3,.9,.5,.9,.9,.3,1.6-.7,.7-1.3,1.4-2,2.2-.2,.2-.3,.5-.2,.8,0,.2,.3,.3,.5,.3h0Zm11.8-11.6c0-.5-.6-.7-1.1-.4-.8,.6-1.7,1.1-2.5,1.7-.4,.3-.8,.4-1.3,0-.4-.2-.8-.4-1.2-.6-.3-.1-.4,0-.4,.2,0,.3-.6,.5-.2,.8,.7,.4,1.6,.8,2.3,1.2,.2,.1,.4,0,.6-.2,1.1-.7,2.2-1.5,3.2-2.2,.2-.2,.4-.3,.4-.6h0Zm-13.8,6.7c-.2-.2-.3-.4-.5-.6-.2-.3-.3-.3-.6,0-1.5,1.5-3.1,3-4.6,4.4-.3,.3-.4,.6-.1,.9,.3,.3,.6,.2,.9,0,1.6-1.6,3.3-3.1,4.8-4.6h0Zm6.3-10.4c0,.7,.6,1.3,1.3,1.3,.7,0,1.2-.6,1.2-1.3s-.5-1.2-1.2-1.3c-.7,0-1.3,.6-1.3,1.3h0Z"/><path class="cls-3" d="M50.1,66.5c2.1,0,4.2,0,6.3,0,.6,0,1.1,0,1.1,.8s-.5,.8-1.1,.8c-4.2,0-8.4,0-12.7,0-.6,0-1.1,0-1.1-.8s.5-.8,1.1-.8c2.1,0,4.3,0,6.4,0Z"/><path class="cls-3" d="M49.9,70.8c-2.1,0-4.2,0-6.3,0-.6,0-1.1,0-1.1-.8s.5-.8,1.1-.8c4.2,0,8.4,0,12.7,0,.6,0,1.1,0,1.1,.8s-.5,.8-1.1,.8c-2.1,0-4.3,0-6.4,0Z"/><path class="cls-9" d="M54.1,73.6h-2.4c-.5,0-.9-.2-.9-.8,0-.5,.4-.7,.9-.7,1.6,0,3.2,0,4.9,0,.5,0,.9,.2,.9,.8s-.3,.8-.9,.8c-.8,0-1.6,0-2.5,0Z"/><path class="cls-4" d="M50,37.9c.5,0,1,0,1.5,0,.5,0,.8,.3,.8,.8s-.3,.8-.8,.8c-1,0-2,0-3,0-.5,0-.8-.3-.8-.7,0-.5,.3-.8,.8-.8,.5,0,1,0,1.5,0Z"/><path class="cls-7" d="M48,62c-.2,0-.4-.1-.5-.3-.1-.3,0-.5,.2-.8,.7-.7,1.3-1.4,2-2.2,.7-.7,.6-1.1-.3-1.6-.8-.4-1.5-.8-2.3-1.3-.7-.4-.7-.6-.2-1.2,.8-.9,1.7-1.8,2.6-2.8,.7-.7,.6-1.1-.3-1.6-2.2-1.1-1.6-1.2-3.4,.3-.6,.5-1.2,1-1.8,1.5-.3,.3-.7,.4-1,0-.3-.3,0-.7,.2-.9,1.2-1,2.3-2,3.5-3,.4-.3,.7-.3,1,0,1.2,.6,2.4,1.3,3.5,1.9,.8,.4,.8,.7,.2,1.4-.8,.9-1.7,1.8-2.5,2.7-.6,.7-.6,1.1,.2,1.6,.8,.4,1.5,.8,2.3,1.3,.7,.4,.8,.7,.2,1.3-1,1.1-2.1,2.3-3.1,3.4-.2,.2-.4,.4-.6,.4Z"/><path class="cls-8" d="M59.9,50.4c0,.3-.2,.4-.4,.6-1.1,.7-2.2,1.5-3.2,2.2-.2,.1-.4,.3-.6,.2-.8-.4-1.6-.7-2.3-1.2-.4-.3,.1-.5,.2-.8,0-.2,.1-.4,.4-.2,.4,.2,.8,.4,1.2,.6,.5,.3,.9,.2,1.3,0,.8-.6,1.6-1.2,2.5-1.7,.5-.3,1-.2,1.1,.4Z"/><path class="cls-5" d="M46.1,57.1c-1.6,1.5-3.2,3.1-4.8,4.6-.3,.3-.6,.4-.9,0-.3-.3-.2-.6,.1-.9,1.5-1.5,3.1-2.9,4.6-4.4,.3-.3,.4-.2,.6,0,.1,.2,.3,.3,.5,.6Z"/><path class="cls-7" d="M52.3,46.6c0-.7,.6-1.3,1.3-1.3,.7,0,1.2,.6,1.2,1.3s-.5,1.2-1.2,1.3c-.7,0-1.3-.6-1.3-1.3Z"/></g><g><path d="M12.6,52.7h2.3s0-4.5,0-4.5h2.7s0,4.5,0,4.5h4.4s0,2.7,0,2.7H9.9c0,0,0-7.3,0-7.3h2.7s0,4.6,0,4.6Z"/><path d="M11.5,45.2c-.8-.2-1.4-1-1.2-1.8,.2-.8,1-1.4,1.8-1.2,.8,.2,1.4,1,1.2,1.8-.2,.8-1,1.4-1.8,1.2Zm2.3,.2l.5-2.5,8.4,1.7-.5,2.5-8.4-1.7Z"/><path d="M18.6,38l2.8,1.1c.7,.3,1-.3,1.3-1.4l2.2,.9c-.9,3.3-2.2,3.8-4.5,2.9l-2.8-1.1-.5,1.3-2.3-.9,.5-1.3-1.5-.6,.2-2.7,2.2,.9,.7-1.6,2.3,.9-.7,1.7Z"/><path d="M26,27.9l4.2,3.2-1.5,2.1-3.9-2.9c-.9-.6-1.7-.4-2.2,.3-.6,.8-.5,1.6,.5,2.3l3.8,2.8-1.5,2.1-6.9-5.1,1.5-2.1,.7,.5c-.2-.8,0-1.7,.6-2.6,1-1.4,2.9-1.8,4.8-.5Z"/><path d="M33.2,26.3c.6-.4,.9-1,1-1.5l2.4-.2c0,1.4-.7,2.7-2,3.6-2.4,1.7-5,1.2-6.5-.9s-1.1-4.8,1.1-6.4c2-1.5,4.7-1,6.2,1.2,.2,.3,.4,.6,.5,.9l-5,3.6c.8,.5,1.6,.3,2.4-.2Zm-.5-3.5c-.8-.7-1.6-.5-2.3,0-.8,.6-1.1,1.3-.7,2.2l3-2.2Z"/><path d="M43.6,20.8c.7,1.9-.7,3.2-2.4,3.9-1.6,.6-3.1,.4-4.2-.7l1.7-2c.4,.5,1,.7,1.7,.5,.6-.2,.8-.5,.7-.8-.3-.9-4.1,1-5.2-1.8-.6-1.8,.5-3.2,2.2-3.8,1.3-.5,2.7-.3,3.8,.6l-1.7,1.9c-.4-.3-.8-.5-1.3-.3-.4,.2-.6,.4-.5,.7,.3,.9,4.1-1.1,5.2,1.9Z"/><path d="M51,20c.2,2-1.4,3-3.2,3.2-1.7,.2-3.1-.3-3.9-1.6l2.1-1.5c.3,.6,.8,.9,1.6,.8,.6,0,.9-.3,.9-.6-.1-.9-4.3,0-4.6-2.9-.2-1.9,1.3-3,3-3.2,1.4-.2,2.7,.3,3.5,1.5l-2.1,1.4c-.3-.4-.7-.7-1.2-.6-.4,0-.7,.3-.7,.6,.1,1,4.2-.2,4.6,3Z"/><path d="M60.7,18l-.8,3c-.2,.7,.4,.9,1.5,1.2l-.6,2.3c-3.4-.5-4.1-1.7-3.4-4.1l.8-3-1.3-.3,.6-2.4,1.3,.3,.4-1.6h2.7c0-.1-.6,2.2-.6,2.2l1.7,.4-.6,2.4-1.7-.4Z"/><path d="M70.4,19.1l-1.3,2.6c-.9-.6-2.4-.9-3.2,.6l-1.7,3.5-2.3-1.1,3.8-7.7,2.3,1.1-.7,1.4c.8-.9,2.1-.9,3.1-.4Z"/><path d="M79.1,26.3l-5.6,6.5-2-1.7,.5-.6c-.9,.1-1.8-.1-2.6-.9-1.7-1.5-1.8-4.2-.1-6.1,1.7-1.9,4.4-2.2,6.1-.7,.9,.8,1.2,1.6,1.3,2.5l.5-.6,2,1.7Zm-4.8,1.6c.8-1,.7-2.2-.2-2.9-.9-.8-2.1-.7-2.9,.2-.8,1-.7,2.2,.2,2.9,.9,.8,2.1,.7,2.9-.2Z"/><path d="M77.5,31.1c2.2-1.3,4.9-.7,6.3,1.5,.9,1.4,.9,3.2,.1,4.5l-2.3-1.3c.4-.6,.4-1.3,0-1.9-.6-1-1.7-1.2-2.7-.6-1,.6-1.3,1.7-.7,2.7,.4,.6,1,1,1.7,.9v2.6c-1.5,0-3-.7-3.9-2.2-1.4-2.2-.7-4.9,1.5-6.3Z"/><path d="M79.5,45.9l3-3.6-3.7,1-.7-2.5,11.7-3.1,.7,2.5-7,1.9,4.3,1.5,.8,2.9-5-1.9-3.3,4.2-.8-2.8Z"/><path d="M82.2,52.8c0,.7,.2,1.3,.6,1.7l-1.2,2c-1.2-.9-1.7-2.2-1.7-3.8,0-2.9,2.1-4.7,4.6-4.7,2.6,0,4.5,2,4.5,4.7,0,2.5-2,4.3-4.6,4.3-.4,0-.7,0-1-.1v-6.1c-.8,.3-1.1,1.1-1.1,2Zm3.1,1.6c1-.3,1.4-1,1.4-1.8,0-1-.5-1.6-1.3-1.9v3.7Z"/><path d="M86.6,65l-2.8-.8c.5-1,.5-2.6-1.2-3l-3.7-1.1,.7-2.5,8.3,2.4-.7,2.5-1.5-.4c1,.6,1.2,1.9,.9,3Z"/><path d="M77.2,70c-1.7-.9-1.7-2.9-.8-4.5,.8-1.5,2-2.4,3.6-2.3v2.6c-.6-.1-1.2,.1-1.5,.8-.3,.5-.3,.9,0,1.1,.8,.5,2.4-3.5,5-2.1,1.7,.9,1.7,2.7,.9,4.3-.7,1.2-1.8,2-3.2,2.1v-2.5c.5,0,.9-.2,1.2-.7,.2-.4,.2-.7,0-.9-.9-.5-2.3,3.6-5.1,2.1Z"/></g></svg>