<?xml version="1.0" encoding="UTF-8"?><svg id="Layer_1" xmlns="http://www.w3.org/2000/svg" viewBox="0 0 100 100"><defs><style>.cls-1{fill:none;stroke:#0018c6;stroke-miterlimit:10;stroke-width:4px;}.cls-2{fill:#3b66c8;}.cls-3{fill:#4483e7;}.cls-4{fill:#bfd6e5;}.cls-5{fill:#d7eafb;}.cls-6{fill:#3f79d4;}.cls-7{fill:#fc98c7;}.cls-8{fill:#23e6bf;}.cls-9{fill:#e0edf9;}.cls-10{fill:#8caabd;}.cls-11{fill:#bdd5e5;}.cls-12{fill:#ecf6fe;}.cls-13{fill:#3b66c9;}.cls-14{fill:#fce00f;}.cls-15{fill:#90ebfe;}</style></defs><circle class="cls-1" cx="50" cy="50" r="45"/><g><path class="cls-3" d="M39.9,58.1c0-.9,0-1.7,0-2.6,0-7.1,0-14.3,0-21.4,0-1.3,.4-2.3,1.7-2.8h21.7c0,.2,.2,.2,.3,.3,.6,.5,1,1.1,1,1.9,0,2.9,0,5.7,0,8.6-.6-.8-1.3-1.2-2.3-1.2-1,0-1.7,.6-2.2,1.4-.5,1-.3,1.9,.4,2.7,.6,.7,1.4,1,2.4,.9,.7-.1,1.2-.6,1.7-1.1,0,1.8,0,3.6,0,5.4,0,.1,0,.3,0,.4-.1-.1-.2-.2-.3-.3-1-1-2.7-1-3.7,.1-1,1.1-.8,2.7,.3,3.7,1.1,.9,2.5,.7,3.7-.5,.2,.1,.1,.4,.1,.5,0,1.4,0,2.8,0,4.3,0,.3,0,.7-.1,1-.3,1.3-.6,2.5-1,3.7-.2,.8-.3,1.6-.7,2.3,0-.2,0-.4,0-.6,0-1.6-1-2.7-2.6-2.6-1.1,0-1.8,.6-2.2,1.5-.4,.9-.3,1.8,.4,2.6,.7,.8,1.6,1.1,2.6,.8,.9-.2,1.4-.9,1.8-1.7,0,.2,0,.3,0,.5-.4,1.6-.9,3.2-1.3,4.7-.1,0-.2,0-.4,0-8.4,0-16.7,0-25.1,0-.2,0-.4,0-.6,0,1-2.7,2.1-5.5,3.1-8.2,.4-.9,.7-1.8,1.1-2.8h22.4c.2,0,.4,0,.6,0,.5,0,.7-.3,.7-.8,0-.5-.3-.8-1-.8-7.4,0-14.9,0-22.3,0Zm6.2-17.1c-1.4,0-2.5,1.1-2.5,2.6,0,1.4,1.2,2.5,2.6,2.5,1.4,0,2.5-1.1,2.5-2.5,0-1.4-1.1-2.5-2.5-2.5h0Zm8.2,8.7c-1.4,0-2.6,1.1-2.6,2.5,0,1.4,1.1,2.5,2.5,2.5,1.4,0,2.6-1.1,2.6-2.5,0-1.5-1-2.5-2.5-2.5Zm-7.8,15.2c0-1.4-1.1-2.5-2.5-2.5-1.4,0-2.5,1.1-2.5,2.5,0,1.4,1.1,2.6,2.5,2.6,1.4,0,2.5-1.1,2.5-2.5Zm10.3-21.3c0-1.4-1.1-2.5-2.5-2.5-1.4,0-2.5,1.1-2.5,2.5,0,1.4,1.1,2.6,2.5,2.6s2.5-1.1,2.5-2.5Zm-10.6,6.1c-1.4,0-2.5,1.1-2.5,2.5,0,1.4,1.1,2.5,2.5,2.5,1.4,0,2.5-1.1,2.6-2.5,0-1.4-1.1-2.5-2.5-2.5Zm8.5,15.2c0-1.4-1.1-2.5-2.5-2.5-1.4,0-2.5,1.1-2.5,2.5,0,1.4,1.1,2.5,2.5,2.5,1.4,0,2.5-1.1,2.5-2.5h0Zm.2-28.8c.6,0,1.3,0,1.9,0,.6,0,.8-.2,.8-.8,0-.5-.2-.7-.8-.7-1.2,0-2.5,0-3.7,0-.5,0-.9,.3-.9,.8,0,.4,.3,.7,.9,.8,.6,0,1.2,0,1.8,0h0Zm-5.9-.8c0,.5,.2,.8,.7,.8,.5,0,.7-.3,.7-.8,0-.5-.3-.8-.8-.8-.5,0-.7,.2-.7,.8h0Z"/><path class="cls-12" d="M33.1,84c-.8-.4-1.5-.8-1.7-1.7-.2-.7,0-1.4,.4-2.1,.6-1.5,1.1-2.9,1.7-4.4,.2,0,.5,0,.7,0,8.6,0,17.1,0,25.7,0,0,.2,0,.3,0,.5-.5,1.7-1,3.5-1.4,5.2-.3,1-.6,2-1.7,2.5,0,0,0,0,0,0h-23.6Zm13.8-2.9c1,0,2,0,2.9,0,.9,0,1.4-.5,1.4-1.3,0-.8-.5-1.4-1.4-1.4-2,0-3.9,0-5.9,0-.8,0-1.4,.6-1.4,1.3,0,.8,.6,1.3,1.4,1.3,1,0,2,0,2.9,0Z"/><path class="cls-6" d="M67.2,31.3c1.3,.5,1.6,1.5,1.6,2.8,0,7.9,0,15.8,0,23.7,0,1.2-.4,2.3-.7,3.4-.8,3-1.7,6-2.5,9.1,0,.1-.1,.3-.2,.4-1.4,0-2.8,0-4.1,0,.4-1.6,.9-3.2,1.3-4.7,0-.1,0-.3,0-.5,0,0,0,0,0,0,.4-.7,.5-1.5,.7-2.3,.4-1.2,.7-2.5,1-3.7,0-.3,.1-.7,.1-1,0-1.4,0-2.8,0-4.3,0-.2,0-.4-.1-.5,.6-1,.6-2,0-3,.1-.1,0-.2,0-.4,0-1.8,0-3.6,0-5.4,.5-.9,.4-1.8,0-2.7,0-2.9,0-5.7,0-8.6,0-.8-.4-1.4-1-1.9-.1,0-.3-.1-.3-.3h4Z"/><path class="cls-9" d="M56.6,84s0,0,0,0c1.1-.5,1.4-1.4,1.7-2.5,.5-1.7,.9-3.5,1.4-5.2,0-.1,0-.3,0-.5h4.3c-.6,2.2-1.2,4.3-1.8,6.5-.2,.9-.9,1.4-1.7,1.7h-4Z"/><path class="cls-11" d="M64.1,75.8h-4.3c-8.6,0-17.1,0-25.7,0-.2,0-.5,0-.7,0,0,0,0,0,0,0h0c.6-1.7,1.2-3.4,1.9-4.9,.2,0,.4,0,.6,0,8.4,0,16.7,0,25.1,0,.1,0,.2,0,.4,0h4.1c-.5,1.7-.9,3.4-1.4,5Z"/><path class="cls-4" d="M29.6,42.2c-.6,0-1.2,0-1.8,0-.4,0-.8,0-1.1-.4-.2-.3-.1-.5,0-.8,.2-.3,.4-.4,.7-.4,1.4,0,2.7,0,4.1-.1,.6,0,.9,.3,.9,.8,0,1.4,0,2.8-.1,4.2,0,.5-.4,.8-.9,.8-.5,0-.8-.4-.7-.9,0-.7,0-1.4,.1-2.2-.6,.7-1.1,1.4-1.5,2.1-1.1,1.8-1.7,3.7-2,5.8-.4,3.5,.3,6.7,2,9.8,.6,1.1,1.5,2.1,2.3,3,.3,.4,.4,.9,0,1.2-.3,.3-.8,.2-1.1-.1-2.6-2.6-4.2-5.6-4.7-9.2-.7-4.7,.3-9.1,3.2-12.9,.1-.2,.3-.4,.4-.6,0,0,0,0,0-.2Z"/><path class="cls-13" d="M39.9,58.1h22.3c.7,0,1,.3,1,.8,0,.5-.3,.8-.7,.8-.2,0-.4,0-.6,0-7.5,0-14.9,0-22.4,0,.2-.5,.3-1.1,.3-1.6Z"/><path class="cls-12" d="M33.5,75.6h0c0,.1,0,0,0,0Z"/><path class="cls-14" d="M46.1,41c1.4,0,2.5,1.1,2.5,2.5,0,1.4-1.1,2.5-2.5,2.5-1.4,0-2.6-1.1-2.6-2.5,0-1.4,1.1-2.5,2.5-2.6Z"/><path class="cls-14" d="M64.5,50.7c.6,1,.6,2,0,3-1.2,1.2-2.6,1.4-3.7,.5-1.1-.9-1.2-2.6-.3-3.7,1-1.1,2.6-1.1,3.7-.1,.1,.1,.2,.2,.3,.3Z"/><path class="cls-15" d="M54.2,49.6c1.4,0,2.5,1.1,2.5,2.5,0,1.4-1.1,2.5-2.6,2.5-1.4,0-2.5-1.2-2.5-2.5,0-1.4,1.1-2.5,2.6-2.5Z"/><path class="cls-7" d="M46.5,64.8c0,1.4-1.1,2.5-2.5,2.5-1.4,0-2.5-1.1-2.5-2.6,0-1.4,1.1-2.5,2.5-2.5,1.4,0,2.5,1.1,2.5,2.5Z"/><path class="cls-7" d="M56.7,43.5c0,1.4-1.1,2.5-2.5,2.5-1.4,0-2.5-1.2-2.5-2.6,0-1.4,1.1-2.5,2.5-2.5,1.4,0,2.5,1.1,2.5,2.5Z"/><path class="cls-5" d="M46.1,49.6c1.4,0,2.5,1.1,2.5,2.5,0,1.4-1.1,2.5-2.6,2.5-1.4,0-2.5-1.1-2.5-2.5,0-1.4,1.1-2.5,2.5-2.5Z"/><path class="cls-5" d="M54.6,64.8c0,1.4-1.1,2.5-2.5,2.5-1.4,0-2.5-1.1-2.5-2.5,0-1.4,1.1-2.5,2.5-2.5,1.4,0,2.5,1.1,2.5,2.5Z"/><path class="cls-8" d="M62.7,65.5s0,0,0,0c-.4,.8-.9,1.5-1.8,1.7-1.1,.3-1.9,0-2.6-.8-.6-.8-.8-1.7-.4-2.6,.4-.9,1.1-1.5,2.2-1.5,1.6,0,2.6,1,2.6,2.6,0,.2,0,.4,0,.6Z"/><path class="cls-8" d="M64.5,42.1c.4,.9,.4,1.8,0,2.7-.5,.5-.9,1-1.7,1.1-1,.2-1.8-.1-2.4-.9-.7-.8-.8-1.8-.4-2.7,.4-.8,1.1-1.4,2.2-1.4,1,0,1.7,.4,2.3,1.2Z"/><path class="cls-2" d="M54.8,36c-.6,0-1.2,0-1.8,0-.5,0-.9-.3-.9-.8,0-.5,.3-.8,.9-.8,1.2,0,2.5,0,3.7,0,.6,0,.8,.2,.8,.7,0,.6-.2,.8-.8,.8-.6,0-1.3,0-1.9,0Z"/><path class="cls-2" d="M48.9,35.2c0-.5,.2-.8,.7-.8,.5,0,.8,.3,.8,.8,0,.5-.3,.8-.7,.8-.5,0-.7-.3-.7-.8Z"/><path class="cls-10" d="M46.8,81.1c-1,0-2,0-2.9,0-.8,0-1.4-.6-1.4-1.3,0-.7,.7-1.3,1.4-1.3,2,0,3.9,0,5.9,0,.9,0,1.4,.6,1.4,1.4,0,.8-.6,1.3-1.4,1.3-1,0-2,0-2.9,0Z"/></g><g><path d="M12.7,41.6l2,.5,1-3.8,2.2,.6-1,3.8,3.7,1-.6,2.3-10.1-2.8,1.7-6.1,2.2,.6-1.1,3.8Z"/><path d="M18.5,37.7c-1.9-1.1-2.5-3.5-1.4-5.4,1.1-1.9,3.5-2.6,5.4-1.5,1.9,1.1,2.5,3.5,1.4,5.4-1.1,1.9-3.5,2.6-5.4,1.5Zm2.9-4.9c-.9-.5-1.9-.2-2.4,.6-.5,.8-.3,1.8,.7,2.4,.9,.5,1.9,.2,2.4-.6,.5-.8,.3-1.8-.7-2.4Z"/><path d="M18.2,25l1.5-1.7,8.2,7.2-1.5,1.7-8.2-7.2Z"/><path d="M28.3,16.5l6.4,8.4-1.8,1.4-.4-.6c0,.8-.4,1.5-1.2,2.1-1.6,1.2-3.9,.8-5.3-1-1.4-1.8-1.1-4.1,.5-5.3,.8-.6,1.6-.8,2.3-.6l-2.2-2.9,1.8-1.4Zm2.3,6.7c-.7-.9-1.7-1-2.5-.4-.8,.6-1,1.6-.3,2.5,.7,.9,1.7,1,2.5,.4,.8-.6,1-1.6,.3-2.5Z"/><path d="M40,14.6l2.7,7-2.1,.8-.3-.7c-.3,.7-.8,1.3-1.8,1.7-1.8,.7-4-.3-4.8-2.4-.8-2.1,0-4.3,1.9-5,.9-.4,1.7-.3,2.4,0l-.3-.7,2.1-.8Zm-.7,4.3c-.4-1.1-1.4-1.4-2.3-1.1-1,.4-1.4,1.3-1,2.4s1.4,1.4,2.3,1.1,1.4-1.3,1-2.4Z"/><path d="M51.4,17c.2,2.2-1.3,4.1-3.2,4.2-1,0-1.8-.2-2.3-.7v.7c0,0-2.2,.2-2.2,.2l-.9-10.5,2.2-.2,.3,3.7c.4-.6,1.2-1,2.2-1.1,2-.2,3.7,1.4,3.9,3.7Zm-2.2,.2c0-1.1-.9-1.8-1.9-1.7-1,0-1.7,.8-1.6,2,0,1.1,.9,1.8,1.9,1.7,1,0,1.7-.9,1.6-2Z"/><path d="M53.7,10.2l2.2,.3-1.3,10.9-2.2-.3,1.3-10.9Z"/><path d="M60,20.8c.6,.2,1.2,.1,1.5-.1l1.4,1.5c-1,.8-2.2,.9-3.6,.5-2.4-.8-3.4-2.9-2.8-5,.7-2.1,2.7-3.3,5-2.6,2.1,.7,3.1,2.8,2.4,4.9,0,.3-.2,.6-.4,.8l-5.1-1.6c0,.8,.6,1.3,1.4,1.5Zm2.1-2.2c0-.9-.5-1.4-1.2-1.6-.8-.3-1.5,0-1.9,.6l3.1,1Z"/><path d="M79.2,22.5l-6.7,8.1-1.7-1.4,.5-.5c-.7,.1-1.5,0-2.3-.7-1.5-1.3-1.6-3.6-.2-5.3,1.4-1.7,3.8-2,5.3-.7,.8,.6,1.1,1.4,1.1,2.1l2.4-2.8,1.7,1.4Zm-6.1,3.7c.7-.9,.6-1.9-.2-2.6-.8-.7-1.8-.6-2.5,.3-.7,.9-.6,1.9,.2,2.6,.8,.7,1.8,.6,2.5-.3Z"/><path d="M78.9,26.8l1.4,1.8-5.9,4.7-1.4-1.8,5.9-4.7Zm1.4-1.4c.6-.5,1.4-.4,1.9,.2,.5,.6,.4,1.4-.2,1.9-.6,.5-1.4,.4-1.9-.2-.5-.6-.4-1.4,.2-1.9Z"/><path d="M80,38.1c-1.5,.8-2.9-.1-3.7-1.5-.7-1.3-.8-2.6,0-3.7l1.9,1.2c-.4,.4-.5,1-.1,1.5,.3,.5,.5,.6,.8,.5,.7-.4-1.5-3.4,.8-4.7,1.4-.8,2.8,0,3.6,1.4,.6,1.1,.7,2.3,0,3.3l-1.8-1.2c.2-.4,.3-.8,0-1.2-.2-.3-.4-.5-.7-.3-.7,.4,1.6,3.4-.9,4.7Z"/><path d="M84,46.6c-2.2,.6-4.2-.5-4.8-2.4-.3-1-.1-1.8,.3-2.4l-3.6,1-.6-2.2,10.1-2.7,.6,2.2-.7,.2c.7,.3,1.2,1,1.5,1.9,.5,1.9-.7,3.9-2.9,4.5Zm-.6-2.2c1.1-.3,1.6-1.2,1.3-2.2s-1.1-1.5-2.2-1.2c-1.1,.3-1.6,1.2-1.3,2.2,.3,1,1.1,1.5,2.2,1.2Z"/><path d="M91.2,47.7v2.2c.1,0-10.8,.7-10.8,.7v-2.2c-.1,0,10.8-.7,10.8-.7Z"/><path d="M86.9,60.4l-7.4-1,.3-2.2h.7c-.5-.5-.7-1.2-.6-2.2,.3-1.9,2.2-3.3,4.4-3,2.2,.3,3.7,2.1,3.4,4.1-.1,1-.6,1.7-1.2,2.1h.7c0,0-.3,2.3-.3,2.3Zm-3.4-2.7c1.1,.2,1.9-.5,2.1-1.5,.1-1-.5-1.9-1.6-2-1.1-.2-1.9,.5-2.1,1.5s.5,1.9,1.6,2Z"/><path d="M83.3,69.8l-5.7-5.2c-1.9-1.7-2.2-3.3-1.3-5.2l1.9,.8c-.4,1-.3,1.6,.4,2.2h7.8s-1,2.3-1,2.3l-4.9-.3,3.7,3.1-.9,2.2Z"/></g></svg>