<?xml version="1.0" encoding="UTF-8"?><svg id="Layer_1" xmlns="http://www.w3.org/2000/svg" viewBox="0 0 100 100"><defs><style>.cls-1{fill:#fafdfc;}.cls-2{fill:#fcfdfd;}.cls-3{fill:none;stroke:#0018c6;stroke-miterlimit:10;stroke-width:4px;}.cls-4{fill:#f9fdfc;}.cls-5{fill:#bbc3c6;}.cls-6{fill:#efc319;}.cls-7{fill:#26b899;}.cls-8{fill:#efc31a;}.cls-9{fill:#b09146;}.cls-10{fill:#94a4a4;}.cls-11{fill:#28b99a;}</style></defs><circle class="cls-3" cx="50" cy="50" r="45"/><g><path class="cls-7" d="M83.5,40.3v31.2c-.4,.9-1.3,1.6-2.3,1.7h-4.6c-.8-.1-1.6-.1-2.3,0h-3.4s0,0-.1,0h0c-.6-.1-1.3-.1-1.9,0h-4c-.6,0-1.3,0-1.9,0h0s0,0-.1,0h-3.4c-.8-.1-1.6-.1-2.3,0h-4.6c-1.5,0-3.1,0-4.6,0h-4.6c-.8-.1-1.6-.1-2.3,0h-3.4s0,0-.1,0h0c-.6-.1-1.3-.1-1.9,0h-9.5V38.5h54.6c1.4,0,2.4,.4,3,1.8Zm-45,15.6h0v3.5c0,2.5,2,4.6,4.6,4.6,2.5,0,4.6-2,4.6-4.6v-2.3c0-.9-.4-1.3-1.3-1.3h-1.9c-.8,0-1.4,.5-1.4,1.2s.5,1.1,1.4,1.1,.9,0,.9,.9c.1,1.3-.9,2.4-2.1,2.5-1.3,.1-2.4-.9-2.5-2.1,0-.1,0-.2,0-.4v-6.5c0-.5,0-.9,.3-1.3,.6-1.1,2-1.5,3.1-.9,.7,.4,1.2,1.2,1.2,2,.1,.8,.6,1.3,1.2,1.2s1.1-.6,1-1.4c-.1-2.5-2.3-4.5-4.8-4.4-2.3,.1-4.2,2-4.4,4.3,0,1.2,0,2.5,0,3.8Zm23.1-1.6v5c0,1.6,.7,3.1,2.1,3.9,1.4,1,3.2,1.1,4.7,.3,1.5-.7,2.5-2.3,2.5-4,0-3.4,0-6.9,0-10.3,0-.2,0-.3,0-.5-.1-.5-.6-.9-1.1-.8-.5,0-1,.3-1.1,.8,0,.3,0,.5,0,.8v9.7c0,1.3-.9,2.4-2.2,2.4-1.3,0-2.4-.9-2.4-2.2,0,0,0-.2,0-.3v-10.2c0-.5-.3-1-.8-1.2-.5-.2-1,0-1.3,.4-.2,.3-.3,.6-.3,1v5Zm-11.5,1.6v6.9c0,.6,.4,1.1,.9,1.2,.5,.1,1-.2,1.2-.6,.1-.3,.2-.5,.1-.8v-4.8c0-.5,.1-.6,.6-.6,.6,0,1.2,0,1.8,0,2.4,0,4.4-2,4.5-4.5,0-2.4-1.7-4.4-4.1-4.7-1.2-.1-2.4,0-3.6,0s-1.5,.4-1.5,1.5v6.5Zm-20.8-11v1.6c0,.6,.4,1.2,1.1,1.3s1.2-.4,1.3-1.1c0,0,0-.1,0-.2v-1.7c0-.4,.1-.5,.5-.5h1.7c.6,0,1.2-.4,1.3-1s-.4-1.2-1-1.3c0,0-.2,0-.3,0h-3.2c-.7,0-1.2,.4-1.3,1.1,0,0,0,.2,0,.2,0,.5,0,1,0,1.6Z"/><path class="cls-5" d="M25.8,73.2c0,1.1,0,2.3,0,3.4,0,.9-.5,1.8-1.4,2.2-.8,.4-1.7,.3-2.4-.3-.6-.5-1-1.3-.9-2.1V35.4c0-1.6,.2-1.5-1.5-1.5-1.5,0-2.6-.4-3.1-1.8v-1c.5-1.4,1.6-1.9,3-1.8,1.2,0,2.3,0,3.5,0,1.8,0,2.7,.9,2.7,2.7v40.3c0,.3,0,.6,0,.9Z"/><path class="cls-10" d="M21.1,54.7v15h-3c-.6,0-1.3-.2-1.6-.8v-13.5c.4-.5,1-.8,1.7-.7,1,0,1.9,0,2.9,0Z"/><path class="cls-10" d="M21.1,40.9v9.2h-3c-.6,0-1.3-.2-1.6-.8v-7.7c.4-.5,1-.8,1.7-.7,1,0,1.9,0,2.9,0Z"/><path class="cls-2" d="M38.5,55.9v-3.8c.2-2.5,2.3-4.5,4.9-4.3,2.3,.1,4.2,2,4.3,4.4,0,.8-.3,1.3-1,1.4s-1.1-.4-1.2-1.2c0-1.3-1.1-2.3-2.4-2.2-.8,0-1.5,.5-1.9,1.2-.2,.4-.3,.9-.3,1.3v6.5c-.1,1.3,.9,2.4,2.1,2.5,1.3,.1,2.4-.9,2.5-2.1,0-.1,0-.2,0-.4q0-.9-.9-.9c-.9,0-1.4-.5-1.4-1.1,0-.7,.5-1.2,1.4-1.2h1.9c.9,0,1.3,.4,1.3,1.3v2.3c0,2.5-2.1,4.6-4.6,4.6-2.5,0-4.6-2.1-4.6-4.6v-3.5h0Z"/><path class="cls-1" d="M61.5,54.3v-5c0-.3,0-.7,.2-1,.3-.4,.8-.6,1.3-.4,.5,.2,.8,.6,.8,1.2v10.1c0,1.3,.9,2.4,2.2,2.4,1.3,0,2.4-.9,2.4-2.2,0,0,0-.2,0-.3v-9.7c0-.3,0-.5,0-.8,.1-.5,.6-.9,1.1-.8,.5,0,1,.3,1.1,.8,0,.1,0,.3,0,.5v10.3c0,1.7-1,3.3-2.5,4-1.5,.8-3.3,.7-4.7-.3-1.3-.9-2.1-2.3-2.1-3.9,0-1.7,0-3.3,0-5Z"/><path class="cls-1" d="M50,55.8v-6.5c0-1.1,.4-1.5,1.5-1.5s2.4,0,3.6,0c2.4,.2,4.2,2.3,4.1,4.7,0,2.4-2,4.4-4.5,4.5-.6,0-1.2,0-1.8,0-.5,0-.6,.1-.6,.6,0,1.6,0,3.2,0,4.8,0,.3,0,.6-.1,.8-.2,.5-.7,.7-1.2,.6-.6-.1-1-.6-.9-1.2v-6.8Zm2.4-3.5v1.8c0,.4,0,.6,.5,.6,.6,0,1.2,0,1.8,0,1.3,0,2.3-1,2.3-2.3,0,0,0,0,0,0,0-1.3-1-2.3-2.3-2.3h-1.8c-.4,0-.5,.2-.5,.5v1.7Z"/><path class="cls-8" d="M47.7,73.2v3.1c0,.7-.4,1.4-1.1,1.5-.1,0-.2,0-.3,0h-3.1v-4.6h4.6Z"/><path class="cls-8" d="M56.9,77.8h-3.3c-.7,0-1.3-.5-1.3-1.2,0,0,0,0,0-.1v-3.2h4.6c0,1.5,0,3,0,4.5Z"/><path class="cls-8" d="M81.2,73.2v3.1c0,.7-.4,1.4-1.1,1.5-.1,0-.2,0-.3,0h-3.1v-4.6h4.6Z"/><path class="cls-8" d="M35,77.8h-3.3c-.7,0-1.3-.5-1.3-1.2,0,0,0-.1,0-.2v-3.2h4.6c0,1.5,0,3,0,4.6Z"/><path class="cls-4" d="M29.2,44.9v-1.6c0-.7,.4-1.2,1.1-1.3,0,0,.2,0,.3,0h3.2c.6,0,1.2,.4,1.3,1s-.4,1.2-1,1.3c0,0-.2,0-.3,0h-1.7c-.4,0-.5,.1-.5,.5v1.7c0,.6-.4,1.2-1.1,1.3s-1.2-.4-1.3-1.1c0,0,0-.1,0-.2,0-.5,0-1.1,0-1.6Z"/><path class="cls-6" d="M40.8,77.8h-3.4s0,0,0-.1v-4.4h0c0-.1,3.4-.1,3.4-.1,0,1.6,0,3.1,0,4.6Z"/><path class="cls-6" d="M62.7,77.8h-3.4v-4.6h3.4v4.5h0Z"/><path class="cls-6" d="M68.5,77.8h-3.4v-4.6h3.4c0,1.5,0,3.1,0,4.6Z"/><path class="cls-6" d="M74.2,77.8h-3.4s0,0,0-.1v-4.4h0c0-.1,3.4-.1,3.4-.1,0,1.5,0,3.1,0,4.6Z"/><path class="cls-9" d="M59.3,73.2v4.6h-2.3v-4.6c.8-.1,1.6-.1,2.3,0Z"/><path class="cls-9" d="M40.8,77.8v-4.6c.8-.1,1.6-.1,2.3,0v4.6h-2.3Z"/><path class="cls-9" d="M74.2,77.8c0-1.5,0-3.1,0-4.6,.8-.1,1.6-.1,2.3,0v4.6h-2.3Z"/><path class="cls-9" d="M37.3,73.3v4.4h-.1c0,.1-2.2,.1-2.2,.1v-4.6h.3c.6,0,1.3,0,1.9,0h0Z"/><path class="cls-9" d="M65,73.2v4.6h-2.3v-4.6h0c.6,0,1.3,0,1.9,0h.3Z"/><path class="cls-9" d="M70.8,73.3v4.4h-.1c0,.1-2.2,.1-2.2,.1v-4.6h.3c.6,0,1.3,0,1.9,0h0Z"/><path class="cls-9" d="M37.2,73.2c-.6,0-1.3,0-1.9,0,.6,0,1.3,0,1.9,0Z"/><path class="cls-9" d="M64.7,73.2c-.6,0-1.3,0-1.9,0,.6-.1,1.3-.1,1.9,0Z"/><path class="cls-9" d="M70.7,73.2c-.6,0-1.3,0-1.9,0,.6,0,1.3,0,1.9,0Z"/><path class="cls-9" d="M70.8,73.3v-.2c0,0,0,0,0,0v.2Z"/><path class="cls-9" d="M62.8,73.2v.2c0,0,0-.1,0-.1,0,0,0,0,0,0Z"/><path class="cls-9" d="M37.3,73.3v-.2c0,0,0,0,0,0v.2Z"/><path class="cls-9" d="M37.2,77.8h.1c0,0,0,0,0,0h-.1Z"/><path class="cls-9" d="M62.7,77.7h.1c0,.1,0,.1,0,.1h0Z"/><path class="cls-9" d="M70.7,77.8h.1c0,0,0,0,0,0h-.1Z"/><path class="cls-11" d="M52.3,52.4v-1.8c0-.4,0-.6,.5-.5h1.8c1.3,0,2.3,1,2.3,2.3,0,1.3-1,2.3-2.3,2.3,0,0,0,0,0,0h-1.8c-.5,0-.5-.2-.5-.6v-1.7Z"/></g><g><path d="M43.4,20.3c1.6,4.2-.3,7.9-4.1,9.4-4.3,1.7-8.6-.3-10.2-4.2-1.6-4,.3-8.4,4.4-10,2.6-1,5.3-.6,7.2,.8l-2.1,2.6c-.9-.7-2.4-.9-4-.3-2.3,.9-3.4,3.3-2.4,5.7,.9,2.3,3.2,3.4,5.9,2.3,1.8-.7,2.7-2,2.7-3.5l-3.7,1.4-1.1-2.7,6.9-2.7,.5,1.2Z"/><path d="M57.8,18.1c-.1,2.8-2.5,4.9-5.4,4.8h-2.2c0-.1-.2,4.5-.2,4.5l-3.4-.2,.7-14.7,5.6,.3c2.9,.1,5,2.5,4.9,5.3Zm-3.4-.2c0-1.1-.7-1.9-1.7-2h-2.2c0-.1-.2,3.7-.2,3.7h2.2c1,.2,1.8-.6,1.9-1.7Z"/><path d="M59.6,23.5l4.2-9,3,1.4-4.1,8.8c-.5,1-.4,2.1,1.2,2.8,1.6,.7,2.5,.1,3-.9l4.1-8.8,3,1.4-4.2,9c-1.3,2.9-4.3,3.6-7.3,2.2-2.9-1.4-4.4-4.1-3-7Z"/></g></svg>