<?xml version="1.0" encoding="UTF-8"?><svg id="Layer_1" xmlns="http://www.w3.org/2000/svg" viewBox="0 0 100 100"><defs><style>.cls-1{fill:#bbeb6c;}.cls-2{fill:#c7eefd;}.cls-3{fill:#6c7fd7;}.cls-4{fill:none;stroke:#0018c6;stroke-miterlimit:10;stroke-width:4px;}.cls-5{fill:#4f66cf;}.cls-6{fill:#c9f674;}.cls-7{fill:#e9f5fe;}.cls-8{fill:#8e9da9;}.cls-9{fill:#99e4fb;}.cls-10{fill:#a6e9f7;}.cls-11{fill:#ec6363;}</style></defs><circle class="cls-4" cx="50" cy="50" r="45"/><path class="cls-5" d="m66.8,34.5h.2c2,0,3.8.7,5,2.4.7,1,1.1,2.1,1.1,3.4,0,2.3,0,4.7,0,7,0,3.9,0,7.9,0,11.8,0,6.3,0,12.6,0,18.9,0,2.8-1.7,5-4.4,5.7-.6.1-1.2.2-1.7.3h-.2c0-.2-.2-.2-.3,0h-1.2c0-.4.4-.3.6-.4,2-.7,3.6-3,3.6-5.2,0-12.8,0-25.6,0-38.4,0-2.2-1.6-4.4-3.6-5.1-.2,0-.6,0-.6-.4.4,0,.8,0,1.2,0,0,.1.2.1.3,0Z"/><path class="cls-3" d="m65.4,34.5c0,.4.4.3.6.4,2.1.7,3.6,3,3.6,5.1,0,12.8,0,25.6,0,38.4,0,2.2-1.6,4.4-3.6,5.2-.2,0-.6,0-.6.4h-2.1c-9.9,0-19.7,0-29.6,0-.2,0-.3,0-.5,0-.6,0-1.1-.1-1.7-.2-2.8-.7-4.5-2.9-4.5-5.9,0-10,0-20,0-30,0-2.4,0-4.8,0-7.1,0-3.4,2.1-5.7,5.5-6.1.2,0,.4,0,.6-.1.7,0,1.3,0,2,0,9.4,0,18.7,0,28.1,0h2.1Zm3.2,20.5c0-4.6,0-9.2,0-13.7,0-1.2-.9-2.1-2.1-2.2-1.1,0-2.2,0-3.2,0-.1,0-.3,0-.4,0-9.6,0-19.1,0-28.7,0-.1,0-.3,0-.4,0-1.3.2-2.2,1-2.2,2.3,0,1.5,0,3,0,4.6,0,.8,0,1.6,0,2.4,0,2.2,0,4.4,0,6.6,0,.2,0,.4,0,.6,0,7.1,0,14.2,0,21.3,0,1.7,1,2.6,2.6,2.6,7.1,0,14.3,0,21.4,0,2.6,0,5.2,0,7.7,0,.9,0,1.8,0,2.6,0,1.9,0,2.7-.8,2.7-2.7,0-5.4,0-10.8,0-16.2,0-1.9,0-3.7,0-5.6h0Z"/><path class="cls-3" d="m66.6,84c0-.1.2-.1.3,0h-.3Z"/><path class="cls-3" d="m66.8,34.5c0,.1-.2.1-.3,0h.3Z"/><path class="cls-7" d="m63.3,79.4c-2.6,0-5.2,0-7.7,0-7.1,0-14.3,0-21.4,0-1.7,0-2.6-.9-2.6-2.6,0-7.1,0-14.2,0-21.3,0-.2,0-.4,0-.6h33.3c0,7.2,0,14.3,0,21.5,0,1.4-.3,2.4-1.6,2.9Zm-6.9-14.7c-.9,0-1.9,0-2.8,0-1.3,0-2.2.8-2.2,2,0,1.2.8,2.1,2.2,2.2,1.1,0,2.1,0,3.2,0,1.1,0,2.2,0,3.2,0,1.2,0,2.1-1,2.1-2.2,0-1.2-.9-2-2.1-2-1.1,0-2.3,0-3.4,0h0Zm-13.4-5.2c-.8,0-1.5,0-2.3,0-.9,0-1.2.3-1.4,1.2-.3,1.8-.6,3.6-.9,5.4-.1.6,0,1,.4,1.4s.9.3,1.4,0c.8-.4,1.6-.4,2.4-.4,1.6.1,2.8,1.8,2.5,3.3-.3,1.5-1.3,2.4-2.7,2.5-1.6,0-2.7-.7-3.1-2.3-.3-.9-.7-1.3-1.5-1.1-.6.2-.9.8-.8,1.6.5,2.7,3.4,4.6,6,4,3-.6,4.8-3.4,4.2-6.3-.6-2.7-3-4.3-5.8-4.1-.6,0-.6,0-.5-.6.2-.7.3-1.4.3-2.1,0-.4.2-.5.6-.5,1.2,0,2.3,0,3.5,0,.8,0,1.2-.4,1.2-1.1,0-.7-.4-1.1-1.2-1.1-.8,0-1.6,0-2.4,0h0Zm12.6-.3c-.9,0-1.9,0-2.8,0-.8,0-1.3.5-1.3,1.1,0,.6.5,1.2,1.2,1.2,1.9,0,3.8,0,5.7,0,.8,0,1.2-.5,1.2-1.2,0-.7-.5-1.1-1.3-1.1-.9,0-1.8,0-2.7,0h0Zm1.5,14.9c0,.6.6,1.3,1.2,1.3.6,0,1.3-.7,1.3-1.3,0-.6-.6-1.2-1.2-1.2-.7,0-1.2.5-1.2,1.2h0Zm-2.9,0c0-.7-.5-1.2-1.2-1.2-.7,0-1.2.5-1.2,1.2,0,.7.5,1.2,1.2,1.3.7,0,1.2-.5,1.2-1.3h0Z"/><path class="cls-2" d="m64.9,55H31.6c-.1-2.2,0-4.4,0-6.6.9,0,1.8,0,2.6,0,1.7.2,2.9-.2,3.6-1.9.2-.6.5-.4.7,0,.8,1.4,1.7,2.8,2.5,4.2.3.5.6.9,1.3.9.6,0,.9-.5,1.1-1,.5-1.3,1.1-2.5,1.7-3.8.3.4.6.8.8,1.1.3.5.7.7,1.2.7,3.6,0,7.2,0,10.8,0,.6.5,1.1,1.1,1.7,1.6.4.4.8.4,1.3,0,.8-.9,1.7-1.7,2.5-2.5.8-.8.9-1.7.4-2.5-.5-.7-1.4-1-2.3-.6-.8.4-1.6.3-2.4,0-1.5-.5-2.5.1-2.7,1.8-2.6,0-5.3,0-7.9,0-.6,0-1-.2-1.3-.7-.3-.6-.8-1.1-1.1-1.7-.3-.5-.7-.7-1.3-.7-.5,0-.8.5-1,.9-.5,1.2-1,2.5-1.6,3.8-.2-.3-.4-.5-.5-.8-.8-1.3-1.6-2.6-2.4-3.9-.5-.8-1.4-.8-2,0-.5.8-1,1.5-1.5,2.3-.2.3-.4.4-.8.4-1.1,0-2.3,0-3.4,0,0-1.5,0-3,0-4.6,0-1.3.9-2.2,2.2-2.3.1,0,.3,0,.4,0h28.7c.1,0,.3,0,.4,0,1.3.5,1.7,1.5,1.6,2.9,0,4.3,0,8.7,0,13h0Z"/><path class="cls-2" d="m63.3,79.4c1.4-.5,1.7-1.5,1.6-2.9,0-7.2,0-14.3,0-21.5h0s3.7,0,3.7,0c0,1.9,0,3.7,0,5.6,0,5.4,0,10.8,0,16.2,0,1.9-.8,2.7-2.7,2.7-.9,0-1.8,0-2.6,0Z"/><path class="cls-9" d="m57.9,48.5c-3.6,0-7.2,0-10.8,0-.5,0-.9-.2-1.2-.7-.2-.4-.5-.7-.8-1.1-.6,1.3-1.1,2.6-1.7,3.8-.2.5-.5,1-1.1,1-.7,0-1-.3-1.3-.9-.8-1.4-1.7-2.8-2.5-4.2-.2-.4-.5-.6-.7,0-.7,1.7-1.9,2.1-3.6,1.9-.9-.1-1.8,0-2.6,0,0-.8,0-1.6,0-2.4,1.1,0,2.3,0,3.4,0,.4,0,.6-.1.8-.4.5-.8,1-1.6,1.5-2.3.5-.8,1.4-.8,2,0,.8,1.3,1.6,2.6,2.4,3.9.1.2.3.4.5.8.6-1.3,1.1-2.6,1.6-3.8.2-.5.5-.9,1-.9.6,0,1,.2,1.3.7.4.6.8,1.1,1.1,1.7.3.5.7.7,1.3.7,2.6,0,5.3,0,7.9,0,.1,1,1,1.5,1.6,2.2Z"/><path class="cls-10" d="m68.6,55h-3.7c0-4.3,0-8.7,0-13,0-1.4-.3-2.3-1.6-2.9,1.1,0,2.2,0,3.2,0,1.2,0,2.1,1,2.1,2.2,0,4.6,0,9.2,0,13.7Z"/><path class="cls-8" d="m42.9,59.5c.8,0,1.6,0,2.4,0,.8,0,1.2.4,1.2,1.1,0,.7-.4,1.1-1.2,1.1-1.2,0-2.3,0-3.5,0-.3,0-.5,0-.6.5,0,.7-.2,1.4-.3,2.1-.1.5,0,.6.5.6,2.9-.3,5.2,1.4,5.8,4.1.7,2.8-1.2,5.6-4.2,6.3-2.6.6-5.5-1.3-6-4-.2-.8.1-1.5.8-1.6.7-.2,1.2.2,1.5,1.1.4,1.6,1.5,2.3,3.1,2.3,1.4,0,2.4-1,2.7-2.5.3-1.5-.9-3.2-2.5-3.3-.8,0-1.7,0-2.4.4-.5.2-.9.3-1.4,0s-.5-.8-.4-1.4c.3-1.8.6-3.6.9-5.4.2-.9.5-1.2,1.4-1.2.8,0,1.5,0,2.3,0Z"/><path class="cls-6" d="m56.7,68.9c-1.1,0-2.1,0-3.2,0-1.3,0-2.2-1-2.2-2.2,0-1.2.9-2,2.2-2,.9,0,1.9,0,2.8,0,0,0,.2.1.3.2,1.5.9,1.6,2.6.3,3.6-.1.1-.3.2-.3.4Z"/><path class="cls-8" d="m55.5,59.2c.9,0,1.8,0,2.7,0,.8,0,1.3.4,1.3,1.1,0,.7-.4,1.2-1.2,1.2-1.9,0-3.8,0-5.7,0-.7,0-1.2-.6-1.2-1.2,0-.6.5-1.1,1.3-1.1.9,0,1.9,0,2.8,0Z"/><path class="cls-1" d="m56.7,68.9c0-.2.1-.3.3-.4,1.3-1,1.2-2.7-.3-3.6-.1,0-.2-.1-.3-.2,1.1,0,2.3,0,3.4,0,1.2,0,2.1.9,2.1,2,0,1.2-.8,2.2-2.1,2.2-1.1,0-2.2,0-3.2,0Z"/><path class="cls-9" d="m57,74.2c0-.7.5-1.2,1.2-1.2.6,0,1.2.6,1.2,1.2,0,.6-.7,1.3-1.3,1.3-.6,0-1.2-.7-1.2-1.3Z"/><path class="cls-9" d="m54,74.1c0,.7-.5,1.3-1.2,1.3-.7,0-1.2-.6-1.2-1.3,0-.7.5-1.2,1.2-1.2.7,0,1.2.5,1.2,1.2Z"/><path class="cls-11" d="m57.9,48.5c-.5-.7-1.4-1.2-1.6-2.2.1-1.6,1.1-2.3,2.7-1.8.8.3,1.6.3,2.4,0,.9-.4,1.9,0,2.3.6.5.8.4,1.7-.4,2.5-.8.9-1.7,1.7-2.5,2.5-.4.4-.8.4-1.3,0-.5-.6-1.1-1.1-1.7-1.6Z"/><path d="m8.9,45.4l11.2.5v2.6c-.1,0-4.6-.2-4.6-.2l-.2,3.5,4.4.2v2.6c-.1,0-11.3-.5-11.3-.5v-2.6c.1,0,4.4.2,4.4.2l.2-3.5-4.3-.2v-2.6Z"/><path d="m19.9,40.4c.2-.6.2-1.2,0-1.7l1.7-1.4c.8,1.1.9,2.4.4,3.8-.9,2.6-3.2,3.6-5.5,2.8-2.2-.8-3.4-3-2.5-5.4.8-2.2,3.1-3.2,5.3-2.4.3.1.6.3.9.4l-1.9,5.3c.9,0,1.4-.6,1.7-1.4Zm-2.2-2.4c-1,0-1.5.5-1.8,1.2-.3.9,0,1.6.6,2.1l1.2-3.2Z"/><path d="m21.6,25.6l6.5,4.7-1.4,1.9-.6-.4c.2.8,0,1.6-.6,2.5-1.2,1.7-3.7,2-5.7.6-1.9-1.4-2.4-3.9-1.2-5.6.6-.9,1.4-1.3,2.2-1.4l-.6-.4,1.4-1.9Zm1.8,4.3c-1-.7-2-.5-2.7.4-.7.9-.5,2,.5,2.7,1,.7,2,.5,2.7-.4s.5-2-.5-2.7Z"/><path d="m21.4,20.9l1.8-1.6,7.8,8.7-1.8,1.6-7.8-8.7Z"/><path d="m31.4,20.7l1.5,2.4c.4.6.9.3,1.8-.3l1.2,1.8c-2.5,2-3.7,1.7-5-.2l-1.5-2.4-1.1.7-1.2-1.9,1.1-.7-.8-1.3,1.6-1.9,1.2,1.9,1.4-.9,1.2,1.9-1.4.9Z"/><path d="m42.1,17l1.6,4.6-2.3.8-1.5-4.3c-.3-.9-1.1-1.2-1.8-.9-.8.3-1.2,1-.9,2.1l1.5,4.1-2.3.8-3.7-10.6,2.3-.8,1.3,3.7c.2-.7.8-1.3,1.8-1.7,1.5-.5,3.2,0,3.9,2.1Z"/><path d="m60.6,17.3l-.6,4.9-2.4-.3.6-4.7c.1-.8-.2-1.3-1-1.4-.8-.1-1.3.4-1.4,1.3l-.6,4.5-2.4-.3.6-4.7c.1-.8-.2-1.4-1-1.4-.8-.1-1.3.4-1.4,1.3l-.6,4.5-2.4-.3,1-7.9,2.4.3v.7c.3-.5,1.1-.8,2.2-.7.9.1,1.6.6,1.9,1.3.5-.6,1.3-.9,2.4-.8,1.8.2,2.9,1.7,2.6,3.7Z"/><path d="m62.1,19c1.1-2.1,3.6-2.9,5.7-1.8,2.1,1.1,2.9,3.6,1.8,5.7-1.1,2.1-3.6,2.9-5.7,1.8-2.1-1.1-2.9-3.6-1.8-5.7Zm5.4,2.8c.5-1,.2-2-.8-2.5-.9-.5-2-.2-2.5.8-.5,1-.2,2,.8,2.5.9.5,2,.2,2.5-.8Z"/><path d="m77.3,28.6l-3.4,3.6-1.7-1.6,3.1-3.3c.7-.7.5-1.5,0-2-.6-.6-1.4-.6-2.2.2l-3,3.2-1.7-1.6,5.5-5.8,1.7,1.6-.5.5c.7-.1,1.6.1,2.3.9,1.2,1.1,1.4,2.9,0,4.5Z"/><path d="m81,28.6l1.4,2-6.6,4.6-1.4-2,6.6-4.6Zm1.6-1.4c.6-.4,1.6-.3,2,.4.4.6.3,1.6-.4,2-.6.4-1.6.3-2-.4-.4-.6-.3-1.6.4-2Z"/><path d="m83,36.4l-2.5,1.2c-.6.3-.4.9.1,1.8l-2,1c-1.7-2.7-1.2-3.9.8-4.9l2.5-1.2-.6-1.2,2.1-1,.6,1.2,1.4-.7,1.7,1.8-2,1,.7,1.5-2.1,1-.7-1.5Z"/><path d="m82.7,39.6c2.3-.5,4.5.9,5.1,3.2s-.8,4.5-3.2,5.1c-2.3.5-4.5-.9-5.1-3.2-.5-2.3.8-4.5,3.2-5.1Zm1.4,5.9c1.1-.3,1.7-1.2,1.4-2.2-.2-1-1.1-1.6-2.3-1.4-1.1.3-1.7,1.2-1.4,2.2.2,1,1.1,1.6,2.3,1.4Z"/><path d="m88.7,54.4h-2.7c.2-1-.2-2.4-1.8-2.4h-3.6s0-2.4,0-2.4h8s0,2.4,0,2.4h-1.4c1.1.3,1.6,1.4,1.6,2.4Z"/><path d="m81.6,61.3c-1.8-.4-2.3-2.1-1.9-3.8.3-1.6,1.2-2.6,2.5-3l.7,2.3c-.6,0-1.1.5-1.2,1.1-.1.6,0,.9.3.9.9.2,1.2-3.8,3.9-3.2,1.7.3,2.3,2,1.9,3.6-.3,1.3-1,2.3-2.3,2.7l-.7-2.2c.5-.1.8-.4.9-.9,0-.4,0-.7-.3-.7-.9-.2-1.1,3.8-4,3.2Z"/></svg>