<?xml version="1.0" encoding="UTF-8"?><svg id="Layer_1" xmlns="http://www.w3.org/2000/svg" viewBox="0 0 100 100"><defs><style>.cls-1{fill:#72b3e2;}.cls-2{fill:none;stroke:#0018c6;stroke-miterlimit:10;stroke-width:4px;}.cls-3{fill:gray;}.cls-4{fill:#72b2e2;}</style></defs><path class="cls-4" d="M49.4,29c3.8,0,6.4,1.1,8.7,3.2,.6,.6,.7,1.3,.3,1.8s-1.1,.5-1.8,0c-1.8-1.8-4.3-2.7-6.8-2.6-2.1,0-4.1,.9-5.7,2.3-.2,.2-.4,.4-.6,.5-.5,.4-1.2,.3-1.6-.2-.4-.4-.3-1.1,0-1.5,.6-.6,1.3-1.2,2.1-1.6,1.7-1.1,3.6-1.7,5.5-1.8Z"/><path class="cls-1" d="M49.9,33.2c2.2,0,4.3,.8,5.9,2.3,.7,.6,.8,1.3,.3,1.8s-1.1,.5-1.8,0c-2.4-2.2-6-2.2-8.4,0-.7,.6-1.3,.6-1.8,.1s-.4-1.2,.2-1.8c1.5-1.4,3.5-2.2,5.6-2.3Z"/><path class="cls-1" d="M50,37.4c1.3,0,2.6,.5,3.6,1.4,.5,.4,.6,1.1,.3,1.6,0,0,0,0,0,0-.4,.5-1.1,.6-1.6,.2,0,0,0,0,0,0-1.5-1.1-2.6-1.1-4.1,0-.4,.5-1.2,.5-1.6,0,0,0,0,0-.1-.1-.4-.5-.3-1.3,.3-1.7,0,0,0,0,0,0,1-.9,2.2-1.4,3.5-1.4Z"/><path class="cls-3" d="M70.6,62.4c-1.5-5.3,3.3-16.5-4.9-17.2-10.3,0-20.6,0-31,0-8.7,.2-3.9,11.8-5.4,17.2,0,2.2,0,4.5,0,6.7,1.5,5.3-3.2,16.1,4.6,17.2,0,0,32,0,32,0,7.9-1,3.2-12,4.7-17.2v-6.7Z"/><g><circle class="cls-2" cx="50" cy="50" r="45"/><g><path d="M26.3,32.4l-1.2,2.2-5.7-3.2,2.7,4.8v.3c-.1,0-5.7,.2-5.7,.2l5.7,3.2-1.2,2.2-9.8-5.5,1.2-2.2,5.8-.2-2.9-5.1,1.2-2.2,9.8,5.5Z"/><path d="M24.1,29.2c-1.6-1.8-1.4-4.4,.4-6,1.8-1.5,4.4-1.4,6,.4,1.6,1.8,1.4,4.4-.4,6-1.8,1.6-4.4,1.4-6-.4Zm4.6-4c-.7-.9-1.8-.9-2.6-.2-.8,.7-.9,1.8-.1,2.6,.7,.9,1.8,.9,2.6,.2,.8-.7,.9-1.8,.1-2.6Z"/><path d="M36.5,12.7l4.6,10.2-2.2,1-.3-.7c-.2,.8-.8,1.4-1.8,1.9-1.9,.9-4.2,0-5.2-2.3-1-2.2-.2-4.6,1.7-5.4,1-.4,1.8-.4,2.6-.1l-1.6-3.6,2.2-1Zm.8,7.5c-.5-1.1-1.5-1.4-2.5-1s-1.4,1.5-.9,2.6c.5,1.1,1.5,1.4,2.5,1,1-.5,1.4-1.5,.9-2.6Z"/><path d="M45.9,20.2c.7,0,1.2-.4,1.4-.8l2.1,.8c-.6,1.2-1.7,1.9-3.2,2.1-2.7,.4-4.6-1.2-5-3.6-.3-2.4,1.1-4.4,3.6-4.8,2.3-.3,4.3,1.2,4.6,3.6,0,.3,0,.7,0,1l-5.6,.8c.4,.8,1.2,1,2.1,.8Zm1.1-3.1c-.4-.9-1.1-1.1-1.9-1-.9,.1-1.4,.7-1.6,1.5l3.4-.5Z"/><path d="M63.2,18.9l-1,4.8-2.3-.5,1-4.6c.2-.8-.1-1.4-.9-1.5-.8-.2-1.3,.3-1.5,1.2l-.9,4.4-2.3-.5,1-4.6c.2-.8-.1-1.4-.9-1.5-.8-.2-1.3,.3-1.5,1.2l-.9,4.4-2.3-.5,1.7-7.8,2.3,.5-.2,.7c.5-.5,1.2-.7,2.3-.5,.9,.2,1.5,.7,1.8,1.5,.6-.5,1.4-.8,2.5-.6,1.8,.4,2.7,1.9,2.3,3.9Z"/><path d="M65.9,19.4l5.2,3.1-1.2,2-5.2-3.1,1.2-2Z"/><path d="M70,26.6h5.4c.9-.1,1.7-.2,2.2-.7,.5-.5,.5-1.2,0-1.7-.6-.6-1.3-.6-2-.3l-.6-2.4c1.7-.7,3.3-.2,4.4,.9,1.4,1.4,1.8,3.6,.2,5.2-1,1-2.3,1.3-3.7,1.3h-2.6s2.7,2.7,2.7,2.7l-1.7,1.7-5.4-5.4,1.3-1.3Z"/><path d="M84.3,40.9c-3,1.6-6,.4-7.4-2.4-1.6-3.1-.5-6.6,2.4-8,2.9-1.5,6.4-.4,7.9,2.5,1,1.9,.9,4,0,5.5l-2.1-1.4c.4-.8,.5-1.9,0-3-.9-1.7-2.8-2.3-4.5-1.4-1.7,.9-2.3,2.7-1.3,4.6,.7,1.3,1.7,1.9,2.9,1.7l-1.4-2.7,2-1,2.6,5-.9,.4Z"/></g></g><g><path d="M32.5,74.8v-3.6l6.5-6.8c.7-.7,1.1-1.3,1.4-1.7s.4-.9,.4-1.3-.2-.9-.5-1.2c-.3-.3-.7-.4-1.3-.4-1.2,0-2,.7-2.6,2l-4.3-2.4c.6-1.5,1.6-2.6,2.8-3.4s2.6-1.1,4.1-1.1,3.5,.6,4.8,1.7,2,2.6,2,4.5-.3,2.2-.8,3.1c-.5,1-1.3,2-2.3,3l-2.7,2.8h6.1v4.8h-13.7Z"/><path d="M67.4,63.6v2c0,2.9-.9,5.2-2.7,7-1.8,1.8-4.1,2.7-7,2.7s-5.6-1-7.5-2.9c-2-2-2.9-4.4-2.9-7.2s1-5.3,2.9-7.3c2-2,4.4-3,7.3-3s3.5,.4,5,1.2c1.5,.8,2.7,1.9,3.6,3.3l-4.2,2.4c-.4-.6-1-1.1-1.7-1.5-.8-.4-1.6-.6-2.6-.6-1.5,0-2.8,.5-3.8,1.5-1,1-1.5,2.3-1.5,3.9s.5,2.8,1.5,3.8c1,1,2.4,1.6,4.1,1.6s3.8-.9,4.5-2.6h-4.7v-4.3h9.9Z"/></g></svg>