<?xml version="1.0" encoding="UTF-8"?><svg id="Layer_1" xmlns="http://www.w3.org/2000/svg" viewBox="0 0 100 100"><defs><style>.cls-1{fill:none;stroke:#0018c6;stroke-miterlimit:10;stroke-width:4px;}.cls-2{fill:#fbe501;}.cls-3{fill:#f9f3b1;}.cls-4{fill:#06687f;}.cls-5{fill:#7dcbe5;}.cls-6{fill:#eecf15;}.cls-7{fill:#e5eff1;}.cls-8{fill:#9fddea;}</style></defs><circle class="cls-1" cx="50" cy="50" r="45"/><path d="m22.1,38.2l-.7,2.5-6.3-1.7,3.8,4v.3c0,0-5.4,1.6-5.4,1.6l6.3,1.7-.7,2.5-10.8-2.9.7-2.5,5.6-1.6-4-4.2.7-2.5,10.8,2.9Z"/><path d="m20.5,26.7l6.6,4.5-1.4,2-.6-.4c.2.7.1,1.6-.5,2.4-.9,1.3-2.6,1.8-4.4.6l-4-2.8,1.4-2,3.8,2.6c.8.6,1.6.3,2-.3.5-.7.4-1.5-.5-2.2l-3.6-2.5,1.4-2Z"/><path d="m20,22l1.7-1.7,8.1,8.4-1.7,1.7-8.1-8.4Z"/><path d="m30,21.5l1.6,2.3c.4.6.9.3,1.7-.4l1.2,1.8c-2.4,2.1-3.7,1.8-5,0l-1.6-2.3-1,.7-1.3-1.9,1-.7-.9-1.2,1.6-2,1.3,1.8,1.4-.9,1.3,1.9-1.4.9Z"/><path d="m30.8,15.8c-.3-.7,0-1.6.7-1.9s1.6,0,1.9.7c.3.7,0,1.6-.7,1.9-.7.3-1.6,0-1.9-.7Zm1.2,1.8l2.2-1.1,3.5,7.2-2.2,1.1-3.5-7.2Z"/><path d="m37.2,17.4l5.9-1.6.6,2.2-5.9,1.6-.6-2.2Z"/><path d="m45.3,17.3c0-2.4,1.7-4.3,4.1-4.3,1.6,0,2.9.7,3.7,2l-2.1,1.3c-.3-.6-.9-.9-1.6-.9-1,0-1.8.8-1.8,1.9,0,1.1.8,1.8,1.9,1.8.7,0,1.3-.4,1.5-.9l2.1,1.1c-.7,1.3-2,2.1-3.6,2.2-2.4,0-4.3-1.7-4.3-4.1Z"/><path d="m63.3,15.3l-1.9,7.8-2.3-.6.2-.7c-.7.5-1.5.6-2.5.4-2-.5-3.3-2.7-2.7-5,.6-2.3,2.7-3.7,4.7-3.2,1,.3,1.7.8,2.1,1.5l.2-.7,2.3.6Zm-3.3,3.3c.3-1.2-.3-2.1-1.4-2.4-1.1-.3-2,.3-2.3,1.4-.3,1.2.3,2.1,1.4,2.4s2-.3,2.3-1.4Z"/><path d="m74.9,25.9l-2.8,4-2-1.4,2.7-3.9c.5-.7.4-1.3-.2-1.7-.7-.5-1.3-.2-1.9.5l-2.6,3.7-2-1.4,2.7-3.9c.5-.7.4-1.3-.2-1.7-.7-.5-1.3-.2-1.9.5l-2.6,3.7-2-1.4,4.5-6.6,2,1.4-.4.6c.6-.2,1.4-.2,2.3.4.8.5,1.1,1.3,1.1,2.1.7-.3,1.6-.2,2.5.4,1.5,1,1.8,2.8.6,4.5Z"/><path d="m76.3,32.9c.4.5.9.8,1.4.9l.2,2.2c-1.3,0-2.5-.6-3.4-1.9-1.6-2.2-1.1-4.7.8-6.1,1.9-1.4,4.4-1.1,5.9,1,1.4,1.9.9,4.4-1.1,5.8-.3.2-.6.4-.8.5l-3.3-4.6c-.5.7-.3,1.5.2,2.2Zm3.2-.5c.6-.7.5-1.5,0-2.1-.5-.7-1.3-1-2-.7l2,2.8Z"/><path d="m86.6,39.2l-2.5,1c-.2-1-1.1-2.1-2.6-1.5l-3.3,1.4-.9-2.2,7.4-3.1.9,2.2-1.3.5c1.1-.1,2,.7,2.4,1.6Z"/><path d="m88.5,49.4l-7.9,1.3-.4-2.4h.7c-.7-.5-1.2-1.3-1.3-2.3-.3-2.1,1.2-4.1,3.6-4.4,2.4-.4,4.4,1,4.8,3.1.2,1.1,0,1.9-.6,2.5h.7c0-.1.4,2.2.4,2.2Zm-4.3-1.7c1.2-.2,1.8-1.1,1.6-2.2-.2-1.1-1-1.8-2.2-1.6-1.2.2-1.8,1.1-1.6,2.2.2,1.1,1,1.8,2.2,1.6Z"/><path class="cls-4" d="m73.6,61.5v19.3c.2,2.1-1.4,3.9-3.4,4.1-.2,0-.5,0-.7,0H30.8c-2.3.2-4.2-1.5-4.4-3.8,0-.2,0-.4,0-.6v-38.2c0-3,1.7-4.6,4.7-4.6h38c2.3-.2,4.2,1.5,4.4,3.7,0,.2,0,.4,0,.7v19.3Zm-25.5,9.8c0-4.3-3.5-7.8-7.8-7.8-4.3,0-7.8,3.5-7.8,7.8,0,4.3,3.5,7.8,7.8,7.8,0,0,0,0,0,0,4.3,0,7.8-3.5,7.8-7.8Zm0-19.7c0-4.3-3.5-7.8-7.8-7.8-4.3,0-7.8,3.5-7.8,7.8,0,4.3,3.5,7.8,7.8,7.8,4.3,0,7.8-3.3,7.9-7.6,0,0,0-.1,0-.2h0Zm11.7,7.8c4.3,0,7.9-3.5,7.9-7.8,0-4.3-3.5-7.9-7.8-7.9-4.3,0-7.9,3.5-7.9,7.8,0,0,0,0,0,0,0,4.3,3.5,7.9,7.8,7.9,0,0,0,0,0,0h0Zm6,11.9v-3.7c.1-1.1-.6-2-1.7-2.2-.1,0-.3,0-.4,0h-7.6c-1-.1-1.9.6-2.1,1.6,0,.1,0,.3,0,.4v7.6c0,1.1.7,2,1.7,2.1.1,0,.2,0,.3,0h7.6c1.1,0,2-.7,2.1-1.8,0-.1,0-.2,0-.3,0-1.3,0-2.5,0-3.8Z"/><path class="cls-5" d="m48.1,71.3c0,4.3-3.6,7.8-7.9,7.7-4.3,0-7.8-3.6-7.7-7.9,0-4.3,3.5-7.7,7.8-7.7,4.4,0,7.9,3.6,7.8,7.9h0Zm-11.7-1.1v.9c0,1.7,1.1,3.3,2.7,3.9,2.1.7,4.3-.5,5-2.6.4-1.2.2-2.5-.6-3.5-.9-1.2-2.4-1.8-3.9-1.5-2.4,0-3.2.6-3.2,2.7h0Z"/><path class="cls-5" d="m48.1,51.6c0,4.3-3.5,7.8-7.8,7.8-4.3,0-7.8-3.5-7.8-7.8,0-4.3,3.5-7.8,7.8-7.8,0,0,0,0,0,0,4.3,0,7.8,3.5,7.8,7.8,0,0,0,0,0,0Zm-11.5-.7c-.4,1.5.1,3.1,1.3,4,1.4,1,3.2,1,4.6,0,1.2-.8,1.9-2.3,1.6-3.8-.2-2-2.1-3.5-4.1-3.2-.2,0-.3,0-.5,0-1.2-.4-2.6.2-3,1.4-.2.5-.2,1.1,0,1.6h0Z"/><path class="cls-5" d="m59.9,59.5c-4.3,0-7.8-3.6-7.8-7.9,0-4.3,3.6-7.8,7.9-7.8,4.3,0,7.8,3.6,7.8,7.9,0,4.3-3.6,7.8-7.9,7.8Zm-3.7-8.6c-.6,1,0,1.9.4,2.7.8,1.5,2.5,2.2,4.1,1.9,1.5-.3,2.7-1.5,3.1-3,.4-1.7-.4-3.5-2-4.3-.9-.4-1.9-.6-2.9-.5-2,0-3.3,1.3-2.7,3.2Z"/><path class="cls-2" d="m65.8,71.3v3.8c0,1.1-.7,2-1.8,2.1-.1,0-.2,0-.3,0h-7.6c-1.1.1-2-.7-2.1-1.7,0-.1,0-.2,0-.4v-7.6c-.1-1,.6-1.9,1.6-2.1.1,0,.3,0,.4,0h7.6c1.1,0,2,.7,2.1,1.7,0,.1,0,.3,0,.4,0,1.2,0,2.4,0,3.7Zm-6.9-1h3.7c.7,0,1.2-.3,1.2-1.1s-.6-.8-1.2-.8h-2.9c-.1-.6-.6-1-1.2-1.1-1,0-1.9.6-2.2,1.5-.4.6-.3,1.3.2,1.8.8.7,1.6.3,2.3-.2,0,0,0-.1.1-.2h0Zm1,3.9h2.9c.5,0,1-.4,1-.9,0,0,0,0,0-.1,0-.7-.4-.8-1-.8h-5.7c-.5,0-.9.3-1,.7,0,0,0,.2,0,.2,0,.5.4.9.9.9,0,0,0,0,.1,0,1,0,1.9,0,2.9,0h0Z"/><path class="cls-8" d="m39.6,67.5c1.5-.4,3,.2,3.9,1.4,1.3,1.8.9,4.2-.9,5.5-1,.7-2.3.9-3.5.5-1.6-.6-2.7-2.1-2.7-3.9v-.9c.5.6,1.3.9,2,.7.1,1.9,1.2,2.8,2.6,2.2,1-.4,1.5-1.5,1.1-2.5-.3-1-1.3-1.6-2.3-1.3.2-.6.1-1.3-.2-1.8Z"/><path class="cls-7" d="m39.6,67.5c.4.5.5,1.2.3,1.8-.3.7-.9,1.1-1.4,1.6-.7.2-1.5,0-2-.7,0-2.1.7-2.8,3.2-2.7Z"/><path class="cls-8" d="m39.6,47.9c2-.5,4,.7,4.5,2.6,0,.2,0,.3,0,.5.2,1.5-.4,3-1.6,3.8-1.4,1-3.2,1-4.6,0-1.2-.9-1.8-2.4-1.3-3.9.5.4,1.2.5,1.9.2,0,1.7,1.2,2.8,2.5,2.3.9-.2,1.5-1.1,1.3-2-.1-1.2-1-1.7-2.4-1.7.3-.6.2-1.4-.2-1.9Z"/><path class="cls-7" d="m38.4,51.2c-.6.3-1.3.2-1.9-.2-.4-1.2.2-2.6,1.4-3,.5-.2,1.1-.2,1.6,0,.4.5.5,1.2.2,1.8-.4.6-.8,1-1.4,1.4Z"/><path class="cls-8" d="m58.9,47.7c1-.1,2,0,2.9.5,1.6.8,2.4,2.6,2,4.3-.4,1.5-1.6,2.6-3.1,2.9-1.6.3-3.3-.5-4.1-1.9-.4-.8-1-1.7-.4-2.7.5.3,1.2.5,1.8.4,0,1,.3,1.9,1.4,2.1.9.3,2-.1,2.3-1,.6-1.4-.3-2.5-2.2-2.7.2-.7,0-1.5-.6-2Z"/><path class="cls-7" d="m58.9,47.7c.6.5.9,1.3.7,2-.4.6-1,1.2-1.6,1.6-.6,0-1.2-.1-1.8-.4-.6-1.9.7-3.2,2.7-3.2Z"/><path class="cls-6" d="m59.9,74.2h-2.9c-.5,0-.9-.3-1-.8,0,0,0,0,0-.1,0-.5.3-.9.8-1,0,0,.2,0,.2,0h5.7c.6,0,1,.1,1,.8,0,.5-.3,1-.9,1,0,0,0,0-.1,0-.9,0-1.9,0-2.9,0Z"/><path class="cls-3" d="m58.9,70.3c0,0-.1,0-.2.1-.7.5-1.5.9-2.3.2-.5-.4-.6-1.2-.2-1.8.4-.9,1.3-1.5,2.2-1.5.6,0,1.1.5,1.2,1.1,0,.7-.2,1.3-.6,1.8Z"/><path class="cls-6" d="m58.9,70.3c.4-.5.7-1.2.7-1.8h3c.6,0,1.2,0,1.2.8s-.4,1.1-1.2,1.1h-3.7Z"/><path class="cls-5" d="m38.4,70.9c.5-.5,1.2-.8,1.4-1.6,1-.2,2,.3,2.3,1.3.4,1-.1,2.1-1.1,2.5-1.4.5-2.5-.4-2.6-2.2Z"/><path class="cls-5" d="m38.4,51.2c.6-.4,1-.8,1.4-1.4,1.4,0,2.3.6,2.4,1.7.1.9-.4,1.8-1.3,2-1.3.5-2.5-.6-2.5-2.3Z"/><path class="cls-5" d="m58,51.4c.6-.5,1.2-1,1.6-1.6,1.9.1,2.8,1.2,2.2,2.7-.4.9-1.4,1.3-2.3,1-1.1-.2-1.4-1.1-1.4-2.1Z"/></svg>