<?xml version="1.0" encoding="UTF-8"?><svg id="Layer_1" xmlns="http://www.w3.org/2000/svg" viewBox="0 0 100 100"><defs><style>.cls-1{fill:none;stroke:#0018c6;stroke-miterlimit:10;stroke-width:4px;}.cls-2{fill:#453e43;}.cls-3{fill:#685e66;}</style></defs><circle class="cls-1" cx="50" cy="50" r="45"/><path class="cls-2" d="m59.8,30.8c.6,0,1.3,0,1.9,0,.8,0,1.4.7,1.5,1.4,0,.2,0,.4,0,.6,0,14,0,27.9,0,41.9,0,1-.3,1.7-1.2,2.1h-24.3c-.9-.4-1.3-1.1-1.2-2.1,0-.4,0-.9,0-1.3,1,0,2.1,0,3.1,0,2.9,0,5.7,0,8.6,0,.3,0,.5,0,.4-.4,0-.2,0-.5,0-.8.3-.6.9-.9,1.6-.7.6.2,1,.8.8,1.5,0,.3,0,.4.3.4,2.2,0,4.4,0,6.6,0,1,0,1.7-.8,1.7-1.8,0-1,0-2,0-3,.4-.2.5-.5.5-.9,0-10.4,0-20.7,0-31.1,0-.4-.2-.7-.5-.9v-4.9Z"/><path class="cls-3" d="m59.8,30.8c0,1.6,0,3.2,0,4.9h-1.4c-.2,0-.3,0-.5,0-5.8,0-11.6,0-17.3,0-.9,0-1.1.2-1.1,1.1v29.4c0,.2,0,.3,0,.5,0,.3,0,.6,0,.9,0,.9.2,1.1,1.1,1.1,6.5,0,12.9,0,19.4,0,0,1,0,2,0,3,0,1-.7,1.8-1.7,1.8-2.2,0-4.4,0-6.6,0-.3,0-.4-.1-.3-.4.2-.7-.2-1.3-.8-1.5-.7-.2-1.3.1-1.6.7-.1.3-.1.5,0,.8.1.4,0,.4-.4.4-2.9,0-5.7,0-8.6,0-1,0-2.1,0-3.1,0,0-.2,0-.4,0-.5,0-13.4,0-26.7,0-40.1,0-1.3.8-2,2-2,6.9,0,13.8,0,20.7,0,.2,0,.3,0,.5,0Z"/><path d="m14.6,40.8c2.3.5,3.8,2.8,3.3,5.2l-.4,1.8,3.9.8-.6,2.8-12.3-2.7,1-4.7c.5-2.4,2.8-3.9,5.2-3.4Zm-.6,2.8c-.9-.2-1.7.3-1.9,1.2l-.4,1.8,3.2.7.4-1.8c.2-.9-.4-1.6-1.3-1.8Z"/><path d="m22.6,31.9l4.8,2.8-1.4,2.3-4.4-2.6c-1-.6-1.8-.2-2.2.5-.5.9-.4,1.7.7,2.4l4.2,2.5-1.4,2.3-10.9-6.4,1.4-2.3,3.8,2.3c-.3-.8-.2-1.8.4-2.8.9-1.6,2.8-2.2,4.9-1Z"/><path d="m24.7,30.8c-1.8-2-1.6-5,.4-6.7s4.9-1.6,6.7.4c1.8,2,1.6,5-.4,6.7-2,1.8-4.9,1.6-6.7-.4Zm5.1-4.5c-.8-1-2.1-1-3-.2s-1,2-.1,3,2.1,1,3,.2c.9-.8,1-2,.1-3Z"/><path d="m41.2,19.1l2.2,5.1-2.5,1.1-2-4.7c-.4-1-1.3-1.2-2.1-.9-.9.4-1.3,1.2-.8,2.4l1.9,4.5-2.5,1.1-3.6-8.3,2.5-1.1.3.8c.2-.8.8-1.6,1.9-2,1.7-.7,3.6-.1,4.6,2.1Z"/><path d="m48.7,21.4c.7,0,1.3-.4,1.7-.8l2.3,1c-.8,1.3-2,2-3.7,2.2-3.1.3-5.2-1.6-5.4-4.3-.2-2.7,1.5-4.9,4.3-5.2,2.6-.2,4.7,1.6,5,4.3,0,.4,0,.7,0,1.1l-6.4.6c.4.9,1.3,1.1,2.3,1.1Zm1.4-3.4c-.4-1-1.2-1.3-2-1.2-1,0-1.7.7-1.8,1.6l3.9-.4Z"/><path d="m63.7,16.5l1.6.5-.7,2.5-1.6-.5-1.8,6.1-2.6-.8,1.8-6.1-1.2-.3.7-2.5,1.2.3c.7-2.4,2.5-3.5,5.3-2.5l-.7,2.5c-.9-.4-1.7-.3-2,.7Z"/><path d="m72.2,20.1l-1.4,2.7c-.9-.7-2.5-1-3.3.6l-1.9,3.6-2.4-1.2,4.1-8,2.4,1.2-.7,1.4c.9-.9,2.2-.9,3.2-.3Z"/><path d="m81.2,27.8l-6,6.7-2-1.8.6-.6c-.9.1-1.8-.2-2.7-1-1.7-1.6-1.8-4.4,0-6.4,1.8-2,4.6-2.2,6.4-.6.9.8,1.3,1.7,1.2,2.6l.6-.6,2,1.8Zm-5,1.5c.9-1,.8-2.2-.1-3.1-.9-.8-2.2-.8-3.1.2-.9,1-.8,2.2.1,3.1.9.8,2.2.8,3.1-.2Z"/><path d="m86.7,44.8l-5,2.3-1.1-2.4,4.8-2.2c.8-.4,1.2-1,.8-1.8-.4-.8-1.2-1-2.1-.6l-4.6,2.1-1.1-2.4,4.8-2.2c.8-.4,1.2-1,.8-1.8-.4-.8-1.2-1-2.1-.6l-4.6,2.1-1.1-2.4,8.2-3.8,1.1,2.4-.8.3c.7.1,1.5.6,2,1.7.5,1,.4,1.9,0,2.6.9.2,1.6.7,2.2,1.9.9,1.9.1,3.7-1.9,4.7Z"/><path d="m83.8,52.6c0,.7.4,1.4.8,1.7l-1.1,2.2c-1.3-.8-2-2.1-2-3.8-.1-3.1,1.8-5.1,4.5-5.2,2.7-.1,4.8,1.7,5,4.6.1,2.6-1.8,4.7-4.5,4.8-.4,0-.7,0-1.1,0l-.3-6.4c-.9.4-1.2,1.2-1.2,2.2Zm3.4,1.5c1-.3,1.4-1.2,1.3-2,0-1-.6-1.7-1.5-1.9l.2,3.9Z"/></svg>