<?xml version="1.0" encoding="UTF-8"?><svg id="Layer_1" xmlns="http://www.w3.org/2000/svg" viewBox="0 0 100 100"><defs><style>.cls-1{fill:none;stroke:#0018c6;stroke-miterlimit:10;stroke-width:4px;}.cls-2{fill:#d1d1d1;}.cls-3{fill:#333;}.cls-4{fill:#199dbc;}</style></defs><circle class="cls-1" cx="50" cy="50" r="45"/><path class="cls-4" d="m40.2,87.4c-.2-.2-.5-.2-.7-.2-3.9-.9-6.4-4.3-6.4-8.4,0-9.4,0-18.9,0-28.3,0-3.9,0-7.9,0-11.8,0-3.6,1.7-6.2,4.9-7.8,1.1-.5,2.3-.8,3.5-.8,5.7,0,11.4,0,17.2,0,4.7,0,8.4,3.7,8.4,8.4,0,13.5,0,27,0,40.4,0,4.1-2.7,7.4-6.7,8.2-.2,0-.5,0-.7.2h-19.5Zm9.8-33.1c3.8,0,7.6,0,11.4,0,1.3,0,1.8-.6,1.8-1.8,0-5,0-10.1,0-15.1,0-1.3-.6-1.9-1.9-1.9-7.5,0-15.1,0-22.6,0-1.3,0-1.9.6-1.9,1.9,0,5,0,10,0,15,0,1.3.5,1.9,1.9,1.9,3.7,0,7.5,0,11.2,0Zm3.5,7.4c0-1.9-1.5-3.4-3.4-3.4-1.9,0-3.5,1.6-3.5,3.5,0,1.9,1.6,3.4,3.5,3.4,1.9,0,3.5-1.6,3.5-3.5h0Zm4.8-.2c0,.6,0,1.3,0,1.9,0,.6.3.9.9.9,1,0,1.9,0,2.9,0,.6,0,.9-.3.9-.9,0-1.3,0-2.6,0-3.9,0-.6-.3-.9-.9-.9-1,0-1.9,0-2.9,0-.6,0-.9.3-.9.9,0,.7,0,1.3,0,2h0Zm-21.2.3c0,.7,0,1.3,0,2,0,.6.3.9.9.9,1,0,1.9,0,2.9,0,.6,0,.9-.3.9-.8,0-1.3,0-2.6,0-4,0-.5-.3-.8-.8-.9-1,0-2,0-3,0-.6,0-.8.3-.9.9,0,.6,0,1.3,0,1.9h0Zm23,14.6h0c.6,0,1.3,0,1.9,0,.6,0,.9-.4.9-1,0-1.4-.1-1.9-.8-2,0,0-.1,0-.2,0-1.2,0-2.5,0-3.7,0-.6,0-.9.4-.9.9,0,.4,0,.8,0,1.2,0,.6.3.9,1,.9.6,0,1.2,0,1.8,0Zm-20.3,5.7c.3,0,.6,0,.9,0,1.9,0,1.9-.4,1.9-1.9,0-.8-.3-1.1-1.1-1.1-.8,0-1.7,0-2.5,0-2.1,0-2,.3-1.9,2.1,0,.6.4,1,1,1,.6,0,1.2,0,1.8,0Zm10.3-5.7h0c.6,0,1.1,0,1.7,0,.8,0,1.1-.3,1.2-1.1,0-.3,0-.5,0-.8,0-.8-.3-1.1-1.1-1.1-.8,0-1.7,0-2.5,0-2.2,0-2,.4-2,2.1,0,.6.3,1,1,1,.6,0,1.2,0,1.8,0h0Zm0,2.6h0c-.6,0-1.3,0-1.9,0-.6,0-.9.3-.9.9,0,.4,0,.7,0,1.1,0,.7.3,1.1,1.1,1.1.9,0,1.7,0,2.6,0,2.1,0,2-.4,2-2.1,0-.6-.3-1-1-1-.6,0-1.2,0-1.8,0h0Zm9.9,3.1c.3,0,.6,0,.9,0,2,.1,1.9-.4,1.9-2,0,0,0-.1,0-.2,0-.6-.4-.9-.9-.9-1.2,0-2.5,0-3.7,0-.6,0-.9.3-1,.9,0,.4,0,.8,0,1.2,0,.6.4.9,1,.9.6,0,1.2,0,1.8,0h0Zm-9.9-11.3c.3,0,.6,0,.8,0,2.1,0,2-.3,2-2.1,0,0,0,0,0,0,0-.6-.4-.9-.9-.9-1.2,0-2.5,0-3.7,0-.6,0-.9.4-.9.9,0,.4,0,.7,0,1.1,0,.7.3,1,1,1,.6,0,1.2,0,1.8,0Zm9.9,0h0c.6,0,1.3,0,1.9,0,.6,0,.9-.4.9-1,.1-1.3,0-1.9-.7-2.1,0,0-.1,0-.2,0-1.3,0-2.5,0-3.8,0-.6,0-.9.4-.9.9,0,.4,0,.7,0,1.1,0,.6.3,1,1,1,.6,0,1.2,0,1.8,0h0Zm-20.2,0h0c.6,0,1.3,0,1.9,0,.7,0,.9-.4.9-1.7,0-.9-.3-1.3-.9-1.3-1.2,0-2.5,0-3.7,0-.6,0-.9.4-.9.9,0,.4,0,.7,0,1.1,0,.7.3,1,1,1,.6,0,1.2,0,1.8,0h0Zm0,5.6h0c.6,0,1.3,0,1.9,0,.6,0,.9-.4.9-1,.1-1.4,0-1.9-.7-2,0,0-.2,0-.3,0-1.2,0-2.4,0-3.6,0-.6,0-1,.3-1,1,0,.4,0,.7,0,1.1,0,.6.3.9,1,1,.6,0,1.2,0,1.8,0h0Z"/><path class="cls-2" d="m50,54.3h-11.2c-1.4,0-1.9-.5-1.9-1.9,0-5,0-10,0-15,0-1.3.5-1.9,1.9-1.9,7.5,0,15.1,0,22.6,0,1.4,0,1.9.5,1.9,1.9,0,5,0,10.1,0,15.1,0,1.3-.6,1.8-1.8,1.8-3.8,0-7.6,0-11.4,0Z"/><path class="cls-3" d="m53.5,61.7c0,1.9-1.6,3.5-3.5,3.5-1.9,0-3.4-1.6-3.5-3.4,0-1.9,1.6-3.5,3.5-3.5,1.9,0,3.4,1.5,3.4,3.4Z"/><path class="cls-3" d="m58.3,61.5c0-.7,0-1.3,0-2,0-.6.3-.9.9-.9,1,0,1.9,0,2.9,0,.6,0,.9.3.9.9,0,1.3,0,2.6,0,3.9,0,.6-.3.9-.9.9-1,0-1.9,0-2.9,0-.6,0-.9-.3-.9-.9,0-.6,0-1.3,0-1.9Z"/><path class="cls-3" d="m37.1,61.8c0-.6,0-1.3,0-1.9,0-.6.3-.9.9-.9,1,0,2,0,3,0,.5,0,.8.3.8.9,0,1.3,0,2.6,0,4,0,.6-.3.8-.9.8-1,0-1.9,0-2.9,0-.6,0-.8-.3-.9-.9,0-.7,0-1.3,0-2Z"/><path class="cls-3" d="m60.2,76.4c-.6,0-1.2,0-1.8,0-.6,0-.9-.3-1-.9,0-.4,0-.8,0-1.2,0-.6.4-.9.9-.9,1.2,0,2.5,0,3.7,0,0,0,.1,0,.2,0,.7.1.9.6.8,2,0,.6-.3,1-.9,1-.6,0-1.3,0-1.9,0h0Z"/><path class="cls-3" d="m39.9,82c-.6,0-1.2,0-1.8,0-.6,0-1-.3-1-1,0-1.8-.2-2.2,1.9-2.1.8,0,1.7,0,2.5,0,.8,0,1.1.3,1.1,1.1,0,1.6,0,2-1.9,1.9-.3,0-.6,0-1,0Z"/><path class="cls-3" d="m50.2,76.4c-.6,0-1.2,0-1.8,0-.6,0-1-.4-1-1,0-1.7-.2-2.2,2-2.1.8,0,1.7,0,2.5,0,.8,0,1.1.3,1.1,1.1,0,.3,0,.5,0,.8,0,.8-.3,1.1-1.2,1.1-.6,0-1.1,0-1.7,0h0Z"/><path class="cls-3" d="m50.3,79c.6,0,1.2,0,1.8,0,.6,0,1,.4,1,1,0,1.7.2,2.2-2,2.1-.9,0-1.7,0-2.6,0-.7,0-1-.3-1.1-1.1,0-.4,0-.7,0-1.1,0-.6.4-.9.9-.9.6,0,1.3,0,1.9,0h0Z"/><path class="cls-3" d="m60.1,82c-.6,0-1.2,0-1.8,0-.6,0-.9-.3-1-.9,0-.4,0-.8,0-1.2,0-.6.3-.9,1-.9,1.2,0,2.5,0,3.7,0,.6,0,.9.3.9.9,0,0,0,.1,0,.2,0,1.6,0,2.1-1.9,2-.3,0-.6,0-1,0Z"/><path class="cls-3" d="m50.2,70.8c-.6,0-1.2,0-1.8,0-.7,0-1-.4-1-1,0-.4,0-.7,0-1.1,0-.6.4-.9.9-.9,1.2,0,2.5,0,3.7,0,.6,0,.9.4.9.9,0,0,0,0,0,0,0,1.8.1,2.2-2,2.1-.3,0-.6,0-.8,0Z"/><path class="cls-3" d="m60.1,70.8c-.6,0-1.2,0-1.8,0-.6,0-.9-.4-1-1,0-.4,0-.7,0-1.1,0-.6.3-.9.9-.9,1.3,0,2.5,0,3.8,0,0,0,.1,0,.2,0,.6.2.8.7.7,2.1,0,.6-.3.9-.9,1-.6,0-1.3,0-1.9,0h0Z"/><path class="cls-3" d="m39.9,70.8c-.6,0-1.2,0-1.8,0-.7,0-1-.3-1-1,0-.4,0-.7,0-1.1,0-.6.4-.9.9-.9,1.2,0,2.5,0,3.7,0,.7,0,.9.4.9,1.3,0,1.3-.2,1.7-.9,1.7-.6,0-1.3,0-1.9,0h0Z"/><path class="cls-3" d="m39.9,76.4c-.6,0-1.2,0-1.8,0-.6,0-1-.3-1-1,0-.4,0-.7,0-1.1,0-.6.4-1,1-1,1.2,0,2.4,0,3.6,0,0,0,.2,0,.3,0,.6.1.8.7.7,2,0,.6-.3,1-.9,1-.6,0-1.3,0-1.9,0h0Z"/><path d="m19.2,72.2c1.6-1.4,4-1.3,5.5.3l1.1,1.2,2.6-2.4,1.7,1.9-8.3,7.6-2.9-3.1c-1.5-1.6-1.4-4,.2-5.5Zm1.7,1.9c-.6.5-.7,1.4-.1,2l1.1,1.2,2.1-1.9-1.1-1.2c-.5-.6-1.4-.6-2,0Z"/><path d="m16.6,62.1l4.4-2.2,1.1,2.2-4.1,2c-.9.4-1,1.2-.7,1.9.4.8,1.1,1.1,2.1.6l3.9-1.9,1.1,2.2-10.1,4.9-1.1-2.2,3.5-1.7c-.7-.1-1.4-.7-1.9-1.6-.7-1.5-.3-3.2,1.7-4.1Z"/><path d="m16.9,60.1c-2.3.4-4.5-1.1-4.9-3.5-.4-2.3,1.1-4.5,3.4-4.9,2.3-.4,4.5,1.1,4.9,3.5.4,2.3-1.1,4.5-3.4,4.9Zm-1-6c-1.1.2-1.7,1.1-1.5,2.1.2,1,1.1,1.7,2.2,1.5,1.1-.2,1.7-1.1,1.5-2.1-.2-1-1.1-1.7-2.2-1.5Z"/><path d="m15.4,42.3l4.9.5-.3,2.4-4.5-.5c-1-.1-1.5.5-1.6,1.2,0,.9.3,1.5,1.5,1.7l4.3.5-.3,2.4-8-.9.3-2.4h.7c-.5-.4-.8-1.2-.7-2.3.2-1.6,1.5-2.8,3.6-2.6Z"/><path d="m20.3,37.5c.2-.6.2-1.2,0-1.7l1.8-1.4c.7,1.1.8,2.4.2,3.9-1,2.5-3.4,3.4-5.6,2.5-2.2-.9-3.2-3.2-2.3-5.5.9-2.2,3.2-3.1,5.5-2.2.3.1.6.3.9.5l-2.2,5.3c.9,0,1.4-.5,1.8-1.3Zm-2.1-2.5c-1-.1-1.5.4-1.8,1.1-.3.8-.2,1.6.5,2.1l1.3-3.2Z"/><path d="m22.2,23.6l1-1.1,1.7,1.5-1,1.1,4.2,3.8-1.6,1.8-4.2-3.8-.7.8-1.7-1.5.7-.8c-1.7-1.5-1.8-3.3,0-5.2l1.7,1.5c-.7.6-.9,1.2-.2,1.9Z"/><path d="m28.2,18.2l1.7,2.1c-.9.5-1.7,1.7-.7,2.9l2.2,2.8-1.9,1.5-5-6.3,1.9-1.5.9,1.1c-.4-1,.1-2.1.9-2.7Z"/><path d="m37.4,13.6l3.4,7.2-2.2,1-.3-.7c-.2.8-.8,1.4-1.7,1.9-1.9.9-4.2,0-5.3-2.2-1-2.2-.2-4.6,1.7-5.4,1-.5,1.8-.5,2.6-.1l-.3-.7,2.2-1Zm-.5,4.6c-.5-1.1-1.6-1.4-2.6-1-1,.5-1.4,1.5-.9,2.6.5,1.1,1.6,1.4,2.6,1s1.4-1.5.9-2.6Z"/><path d="m53.1,14.4l.4,4.9-2.4.2-.4-4.7c0-.8-.5-1.3-1.3-1.2-.8,0-1.2.7-1.1,1.6l.4,4.5-2.4.2-.4-4.7c0-.8-.5-1.3-1.3-1.2-.8,0-1.2.7-1.1,1.6l.4,4.5-2.4.2-.7-8,2.4-.2v.7c.4-.6,1-1,2.1-1.1.9,0,1.7.2,2.2.9.4-.7,1.1-1.1,2.2-1.2,1.8-.2,3.1,1.1,3.3,3Z"/><path d="m58.7,19c.6.2,1.2,0,1.6-.2l1.6,1.6c-1,.8-2.3,1.1-3.8.7-2.6-.7-3.8-2.9-3.2-5.2.6-2.3,2.8-3.6,5.2-3,2.3.6,3.5,2.8,2.8,5.1,0,.3-.2.6-.3.9l-5.5-1.5c0,.9.7,1.4,1.6,1.6Zm2.2-2.4c0-1-.6-1.5-1.3-1.7-.9-.2-1.6,0-2,.8l3.3.9Z"/><path d="m69.7,26.9v-4.4c.1,0-2,2.8-2,2.8l-1.9-1.5,6.8-8.9,1.9,1.5-4.1,5.3,4-1.3,2.2,1.7-4.7,1.4v5c0,0-2.2-1.7-2.2-1.7Z"/><path d="m75.6,30.4c.4.5,1,.8,1.4.8l.3,2.2c-1.3,0-2.5-.5-3.5-1.7-1.7-2.2-1.3-4.6.6-6.1,1.9-1.5,4.4-1.2,6,.7,1.4,1.8,1.1,4.3-.8,5.8-.3.2-.5.4-.8.5l-3.5-4.5c-.5.8-.2,1.5.3,2.2Zm3.2-.6c.6-.8.4-1.5,0-2.1-.6-.7-1.3-.9-2.1-.6l2.1,2.7Z"/><path d="m86.9,38.9l-8.2.5c-2.7.2-4.2-.7-5-2.8l2.1-.9c.4,1,1,1.4,2,1.3l5.8-5.9,1,2.4-3.8,3.6,5.1-.5,1,2.4Z"/><path d="m84.6,50.2c-2.4.3-4.4-1.2-4.7-3.3-.1-1.1.1-1.9.7-2.5l-3.9.5-.3-2.4,11.1-1.4.3,2.4h-.7c.7.5,1.1,1.3,1.3,2.3.3,2.1-1.3,4-3.7,4.3Zm-.3-2.4c1.2-.2,1.8-1,1.7-2.1-.1-1.1-1-1.8-2.2-1.6-1.2.2-1.8,1-1.7,2.1.1,1.1,1,1.8,2.2,1.6Z"/><path d="m87.1,60.7l-7.9-1.4.4-2.4h.7c-.5-.5-.7-1.3-.6-2.4.4-2.1,2.5-3.5,4.8-3,2.3.4,3.9,2.4,3.5,4.5-.2,1.1-.7,1.8-1.4,2.2h.7c0,.1-.4,2.5-.4,2.5Zm-3.5-3.1c1.2.2,2.1-.5,2.3-1.5.2-1.1-.4-2-1.6-2.2-1.2-.2-2.1.5-2.2,1.5-.2,1.1.4,2,1.6,2.2Z"/><path d="m85.1,72.7l-10-5.1,1.1-2.1.7.3c-.3-.7-.3-1.6.2-2.6,1-1.9,3.4-2.6,5.5-1.5,2.1,1.1,3,3.5,2,5.3-.5,1-1.2,1.5-2,1.7l3.5,1.8-1.1,2.1Zm-5.3-5.4c1.1.5,2.1.2,2.6-.8.5-1,.2-2-.9-2.6-1.1-.5-2.1-.2-2.6.8-.5,1-.2,2,.9,2.6Z"/></svg>