<?xml version="1.0" encoding="UTF-8"?><svg id="Layer_1" xmlns="http://www.w3.org/2000/svg" viewBox="0 0 100 100"><defs><style>.cls-1{fill:#7da1b1;}.cls-2{fill:#8fbac5;}.cls-3{fill:none;stroke:#0018c6;stroke-miterlimit:10;stroke-width:4px;}.cls-4{fill:#f1f6f6;}.cls-5{fill:#02f1a6;}.cls-6{fill:#fde077;}.cls-7{fill:#fee077;}.cls-8{fill:#ddebf0;}.cls-9{fill:#fed05b;}.cls-10{fill:#fec345;}.cls-11{fill:#fee078;}.cls-12{fill:#cee5ec;}.cls-13{fill:#fdd15b;}</style></defs><circle class="cls-3" cx="50" cy="50" r="45"/><path class="cls-2" d="m38.8,86c-.8-.3-1.6-.5-2.3-1-1.6-1.1-2.3-2.7-2.3-4.6,0-14.3,0-28.6,0-42.9,0-2.7,1.8-4.9,4.4-5.4,0,0,.1,0,.2,0h21.4c0,.2.1.2.2.2,1.4.4,2.4,1.2,3.2,2.4.3.6.7,1.1.6,1.8,0,0-.2-.2-.2-.3-.6-.9-1.4-1.3-2.4-1.3-1,0-2,0-2.9,0-.3,0-.6,0-.9,0-.7,0-1.2.3-1.5.9-.2.3-.3.7-.5,1-.3.7-.9,1.1-1.7,1.1-2.2,0-4.5,0-6.7,0-.3,0-.6,0-.8-.1-.4-.2-.6-.6-.8-1-.2-.4-.4-.8-.6-1.2-.2-.4-.6-.7-1.1-.7-1.1,0-2.2,0-3.4,0-.5,0-.9,0-1.4,0-1.4.4-2.2,1.4-2.2,3,0,14.1,0,28.1,0,42.2,0,0,0,.2,0,.3,0,1.5,1.2,2.8,2.6,2.8,6.4,0,12.7,0,19.1,0,1,0,2,0,2.9,0,.5,0,.9-.1,1.3-.3.6-.3.9-.8,1.2-1.3,0,0,0,.1,0,.2-.5,2-1.7,3.3-3.7,4-.1,0-.4,0-.4.2h-21.4Zm11.9-50.3c.6,0,1.2,0,1.8,0,.4,0,.7-.2.7-.7,0-.5-.2-.9-.7-.9-1.2,0-2.3,0-3.5,0-.5,0-.7.4-.7.9,0,.5.3.6.7.7.6,0,1.1,0,1.6,0Z"/><path class="cls-1" d="m60.2,86c0-.3.2-.2.4-.2,1.9-.7,3.1-2,3.7-4,0,0,0-.2,0-.2.2-.5.2-1.1.2-1.7,0-13.9,0-27.9,0-41.8,0-.6,0-1.1-.2-1.7,0-.7-.3-1.3-.6-1.8-.7-1.2-1.8-2-3.2-2.4-.1,0-.2,0-.2-.2h2.4c.6.2,1.3.3,1.9.7,1.8,1.1,2.7,2.8,2.7,4.9,0,12.3,0,24.5,0,36.8,0,2,0,3.9,0,5.9,0,3.1-2.2,5.3-4.5,5.6,0,0,0,0-.1,0h-2.4Z"/><path class="cls-4" d="m46.5,37.7c.3,0,.5.1.8.1,2.2,0,4.5,0,6.7,0,.8,0,1.4-.3,1.7-1.1.2-.3.3-.7.5-1,.3-.6.8-.9,1.5-.9.3,0,.6,0,.9,0,0,.2.2.2.3.3,1,.6,1.6,1.4,1.6,2.6,0,14.2,0,28.3,0,42.5,0,1.1-.5,2-1.5,2.6-.1,0-.3.1-.3.3-6.4,0-12.7,0-19.1,0-1.4,0-2.6-1.3-2.6-2.8,0,0,0-.2,0-.3v-42.2c0-1.6.8-2.6,2.2-3,.4-.1.9,0,1.4,0,.5.6.9,1.3,1.3,2,.3.7.9.9,1.7.9.8,0,1.6,0,2.5,0,.2,0,.4,0,.5-.1Zm-3.5,29.9v10.4c0,1.1.3,1.4,1.4,1.4,3.6,0,7.1,0,10.7,0,.7,0,1.4,0,2.2,0,.7,0,1.1-.4,1.1-1.1,0-7.1,0-14.3,0-21.4,0-.7-.4-1.1-1.1-1.1-.4,0-.7,0-1.1,0-.7,0-1.1-.3-1.1-1.1,0-.6,0-1.3,0-1.9,0-.7-.4-1.1-1.1-1.1-2.2,0-4.5,0-6.7,0-.8,0-1.1.4-1.1,1.2,0,.6,0,1.3,0,1.9,0,.7-.4,1-1.1,1-.3,0-.6,0-.8,0-1,0-1.3.3-1.3,1.3,0,3.5,0,7,0,10.5Zm7.7-24.2c0-.2.1-.3.2-.5.3-.5.7-1,1-1.5.2-.4.2-.9-.2-1.1-.4-.3-.8-.3-1,0-.8,1.1-1.6,2.3-2.3,3.5-.3.6,0,1.1.7,1.1.5,0,.9,0,1.4,0,.3,0,.3,0,.2.3-.5.8-1,1.6-1.6,2.4-.3.5-.3,1,0,1.3.4.3.9.1,1.3-.4.9-1.3,1.7-2.6,2.5-3.9.2-.3.2-.6,0-.9-.2-.3-.5-.4-.8-.4-.5,0-1,0-1.6,0Z"/><path class="cls-8" d="m58.7,83.1c0-.2.2-.2.3-.3,1-.6,1.5-1.5,1.5-2.6,0-14.2,0-28.3,0-42.5,0-1.2-.6-2-1.6-2.6-.1,0-.3-.1-.3-.3,1,0,2,0,2.9,0,1.1,0,1.8.4,2.4,1.3,0,.1.1.2.2.3.2.5.2,1.1.2,1.7,0,13.9,0,27.9,0,41.8,0,.6,0,1.1-.2,1.7-.4.5-.7,1-1.2,1.3-.4.2-.8.3-1.3.3-1,0-2,0-2.9,0Z"/><path class="cls-8" d="m46.5,37.7c-.1.2-.3.1-.5.1-.8,0-1.6,0-2.5,0-.8,0-1.3-.2-1.7-.9-.4-.7-.8-1.4-1.3-2,1.1,0,2.2,0,3.4,0,.5,0,.9.3,1.1.7.2.4.4.8.6,1.2.2.4.5.7.8,1Z"/><path class="cls-1" d="m50.7,35.7c-.5,0-1.1,0-1.6,0-.4,0-.7-.2-.7-.7,0-.5.2-.9.7-.9,1.2,0,2.3,0,3.5,0,.4,0,.7.4.7.9,0,.5-.2.6-.7.7-.6.1-1.2,0-1.8,0Z"/><path class="cls-5" d="m43,67.6v-10.5c0-1,.3-1.3,1.3-1.3.3,0,.6,0,.8,0,.7,0,1-.3,1.1-1,0-.6,0-1.3,0-1.9,0-.8.3-1.2,1.1-1.2,2.2,0,4.5,0,6.7,0,.7,0,1.1.4,1.1,1.1,0,.6,0,1.3,0,1.9,0,.7.4,1.1,1.1,1.1.4,0,.7,0,1.1,0,.7,0,1.1.4,1.1,1.1,0,7.1,0,14.3,0,21.4,0,.7-.4,1.1-1.1,1.1-.7,0-1.4,0-2.2,0h-10.7c-1.1,0-1.4-.3-1.4-1.4,0-3.5,0-7,0-10.4Zm12.5,2.7c0-1.4,0-2.7,0-4.1v-4c0-.8,0-1.7,0-2.5,0-.5-.3-.8-.9-.8-.8,0-1.6,0-2.4,0-1.8,0-3.7,0-5.5,0-.6,0-.9.3-.9.9,0,.8,0,1.5,0,2.3,0,1.4,0,2.7,0,4.1v5.8c0,1.2,0,2.5,0,3.7,0,.6.3.9.9.9,1.8,0,3.5,0,5.3,0,.9,0,1.7,0,2.6,0,.6,0,.9-.3.9-.9,0-1.2,0-2.5,0-3.7,0-.6,0-1.1,0-1.7h0Z"/><path class="cls-11" d="m50.7,43.4c.5,0,1,0,1.6,0,.4,0,.7,0,.8.4.2.3.1.6,0,.9-.8,1.3-1.7,2.6-2.5,3.9-.3.5-.9.6-1.3.4-.4-.3-.4-.8,0-1.3.5-.8,1-1.6,1.6-2.4.2-.2.1-.3-.2-.3-.5,0-.9,0-1.4,0-.7,0-1.1-.6-.7-1.1.7-1.2,1.5-2.3,2.3-3.5.3-.4.7-.4,1,0,.3.2.4.7.2,1.1-.3.5-.7,1-1,1.5,0,.1-.2.2-.2.5Z"/><path class="cls-8" d="m52.3,58.8c.8,0,1.6,0,2.4,0,.5,0,.9.3.9.8,0,.8,0,1.7,0,2.5-.8,0-1.6,0-2.5,0-.4,0-.5.1-.5.5,0,1.2,0,2.3,0,3.5h0s-6.7,0-6.7,0c0-1.4,0-2.7,0-4.1,2.1,0,4.1,0,6.2,0,.2,0,.5.1.5-.2,0-1,.3-2.1-.3-3Z"/><path class="cls-6" d="m52.1,76.6c-1.8,0-3.5,0-5.3,0-.6,0-.9-.3-.9-.9,0-1.2,0-2.5,0-3.7h6.7c0,1.2,0,2.4,0,3.6,0,.4-.1.8-.5,1Z"/><path class="cls-7" d="m45.9,66.2h6.7c0,1.4,0,2.7,0,4.1h-6.7s0-4.1,0-4.1Z"/><path class="cls-4" d="m52.3,58.8c.6,1,.2,2,.3,3,0,.3-.3.2-.5.2-2.1,0-4.1,0-6.2,0,0-.8,0-1.5,0-2.3,0-.6.3-.9.9-.9,1.8,0,3.7,0,5.5,0Z"/><path class="cls-13" d="m52.1,76.6c.4-.2.5-.5.5-1,0-1.2,0-2.4,0-3.6h0s2.9,0,2.9,0c0,1.2,0,2.5,0,3.7,0,.5-.3.9-.9.9-.9,0-1.7,0-2.6,0Z"/><path class="cls-9" d="m52.6,70.3c0-1.4,0-2.7,0-4.1h0s2.9,0,2.9,0c0,1.4,0,2.7,0,4.1h-2.9s0,0,0,0Z"/><path class="cls-12" d="m55.6,66.2h-2.9c0-1.2,0-2.4,0-3.5,0-.4.1-.5.5-.5.8,0,1.6,0,2.5,0v4Z"/><path class="cls-13" d="m45.9,70.3h6.7s0,0,0,0c0,.6,0,1.1,0,1.7h0s-6.7,0-6.7,0v-1.7Z"/><path class="cls-10" d="m52.6,72c0-.6,0-1.1,0-1.7h2.9c0,.6,0,1.1,0,1.7h-2.9Z"/><path d="m15.8,42.6c2.1.3,3.5,2.3,3.2,4.4l-.3,1.6,3.5.5-.4,2.5-11-1.7.6-4.2c.3-2.2,2.3-3.6,4.4-3.3Zm-.4,2.5c-.8-.1-1.5.3-1.6,1.1l-.3,1.6,2.8.4.3-1.6c.1-.8-.4-1.4-1.2-1.5Z"/><path d="m22.2,34.3l4.4,2.1-1,2.1-4.1-2c-.9-.4-1.6,0-1.9.6-.4.8-.2,1.5.8,2l3.9,1.9-1,2.1-10-4.9,1-2.1,3.5,1.7c-.3-.6-.3-1.5.1-2.5.7-1.4,2.3-2.2,4.3-1.2Z"/><path d="m23.9,33.3c-1.7-1.6-1.8-4.2-.2-5.9,1.6-1.7,4.2-1.8,5.9-.2s1.8,4.2.2,5.9c-1.6,1.7-4.2,1.8-5.9.2Zm4.1-4.4c-.8-.8-1.9-.7-2.6,0s-.7,1.8.1,2.6c.8.8,1.9.7,2.6,0,.7-.8.7-1.8-.1-2.6Z"/><path d="m37.3,21.5l2.4,4.2-2.1,1.2-2.2-3.9c-.5-.9-1.3-1-1.9-.6-.8.4-1,1.2-.5,2.2l2.1,3.8-2.1,1.2-3.9-6.9,2.1-1.2.4.6c0-.7.6-1.4,1.5-2,1.4-.8,3.1-.5,4.2,1.4Z"/><path d="m44.1,22.7c.6-.1,1.1-.5,1.4-.9l2.1.7c-.5,1.2-1.6,2-3,2.3-2.7.6-4.7-.8-5.2-3.2-.5-2.3.8-4.5,3.2-5,2.3-.5,4.3.9,4.8,3.2,0,.3.1.6.1,1l-5.5,1.2c.5.7,1.2.9,2.1.7Zm.8-3.1c-.4-.8-1.2-1-1.9-.9-.9.2-1.4.8-1.4,1.6l3.3-.7Z"/><path d="m61.7,21.8c-.5,2.3-2.6,3.7-4.6,3.3-1-.2-1.7-.8-2.1-1.5l-.2.7-2.3-.5,2.4-10.8,2.3.5-.9,3.8c.6-.5,1.5-.7,2.5-.4,2,.5,3.3,2.6,2.8,4.9Zm-2.3-.5c.3-1.2-.4-2.1-1.4-2.3-1.1-.2-2,.3-2.3,1.5-.3,1.2.4,2.1,1.4,2.3,1.1.2,2-.3,2.3-1.5Z"/><path d="m72.4,23.3l-4.1,6.8-2-1.2.4-.6c-.8.2-1.6.2-2.5-.4-1.8-1.1-2.3-3.5-1.1-5.5,1.2-2,3.6-2.7,5.4-1.6.9.5,1.4,1.3,1.5,2l.4-.6,2,1.2Zm-4.1,2.2c.6-1,.3-2.1-.6-2.6s-2-.3-2.6.7c-.6,1-.3,2.1.6,2.6.9.6,2,.3,2.6-.7Z"/><path d="m75.2,29.2l-2,2c-.5.5-.1.9.7,1.6l-1.5,1.5c-2.4-2-2.4-3.3-.8-4.9l2-2-.9-.9,1.6-1.6.9.9,1.1-1.1,2.2,1.2-1.6,1.5,1.1,1.2-1.6,1.6-1.1-1.2Z"/><path d="m79.1,34.2l-2.3,1.6c-.6.4-.3.9.3,1.7l-1.8,1.2c-2-2.4-1.7-3.7.1-4.9l2.3-1.6-.7-1.1,1.9-1.3.7,1.1,1.3-.8,1.9,1.6-1.8,1.2.9,1.4-1.9,1.3-.9-1.4Z"/><path d="m78.9,42.3c.2.6.7,1,1.1,1.2l-.4,2.2c-1.3-.4-2.2-1.3-2.7-2.7-.9-2.6.2-4.8,2.4-5.6,2.2-.8,4.5.2,5.4,2.5.8,2.2-.3,4.4-2.6,5.2-.3.1-.6.2-.9.2l-1.9-5.3c-.7.6-.7,1.3-.4,2.2Zm3.2.4c.8-.6.8-1.3.6-2-.3-.9-.9-1.3-1.8-1.2l1.2,3.2Z"/><path d="m86.8,51.2l-2.7.3c0-1-.5-2.3-2-2.2l-3.6.4-.2-2.4,7.9-.8.2,2.4h-1.4c1.1.4,1.7,1.4,1.8,2.4Z"/><path d="m85.7,61.3l-7.3-3.7c-2.4-1.2-3.2-2.7-2.8-4.9l2.2.3c-.1,1.1.1,1.7,1,2.1l7.9-2.1-.3,2.6-5,1.1,4.6,2.1-.3,2.5Z"/></svg>