<?xml version="1.0" encoding="UTF-8"?><svg id="Layer_1" xmlns="http://www.w3.org/2000/svg" viewBox="0 0 100 100"><defs><style>.cls-1{fill:#fe6d3a;}.cls-2{fill:none;stroke:#0018c6;stroke-miterlimit:10;stroke-width:4px;}.cls-3{fill:#fe901f;}.cls-4{fill:#386079;}.cls-5{fill:#feb024;}.cls-6{fill:#faf8fa;}.cls-7{fill:#fe6e3c;}.cls-8{fill:#2e5872;}.cls-9{fill:#204958;}.cls-10{fill:#3e657d;}.cls-11{fill:#fe9c20;}.cls-12{fill:#fbf9fa;}.cls-13{fill:#fe901e;}</style></defs><circle class="cls-2" cx="50" cy="50" r="45"/><g><path class="cls-5" d="M36.1,57c0-1.3,0-2.7,0-4,0-1.6,0-3.2,0-4.8,0-1.3,0-2.7,0-4,0-1.6,0-3.2,0-4.8,0-.7,0-1.3,0-2,0-1.5,.3-1.9,1.7-2.5h.2c.1,.2,.3,0,.5,0,6.4,0,12.9,0,19.3,0,1,0,1.8,1,1.8,2.1,0,14.9,0,29.8,0,44.7,0,1.1-.5,1.8-1.4,2.2-.2,0-.3,0-.5,0-6.4,0-12.8,0-19.2,0-1.3,0-2.5-.8-2.4-2.4,0-.7,0-1.4,0-2.1,0-1.6,0-3.2,0-4.8v-4c0-1.6,0-3.2,0-4.8,0-1.3,0-2.7,0-4v-4.8Zm16.2,20.6c1.1,0,2.2,0,3.4,0,.6,0,1-.4,1.1-1,0-.2,0-.5,0-.7,0-11,0-22.1,0-33.1,0-.2,0-.5,0-.7-.1-.6-.6-1-1.1-1-1.1,0-2.2,0-3.4,0-2.9,0-5.8,0-8.7,0-.7,0-1.2,.5-1.2,1.2,0,.1,0,.3,0,.4v33.3c0,.1,0,.3,0,.4,0,.7,.5,1.2,1.2,1.2,2.9,0,5.8,0,8.7,0h0Z"/><path class="cls-3" d="M58.1,83.9c.9-.5,1.4-1.1,1.4-2.2,0-14.9,0-29.8,0-44.7,0-1.1-.8-2-1.8-2.1,0,0,0,0,0,0h3.9c1.2,.5,1.7,1.4,1.6,2.7,0,.6,0,1.2,0,1.9,0,1.6,0,3.1,0,4.7,0,1.4,0,2.7,0,4.1,0,1.6,0,3.2,0,4.8v4.1s0,4.8,0,4.8c0,1.4,0,2.7,0,4.1v4.8c0,1.4,0,2.7,0,4.1v4.7c0,.7,0,1.5,0,2.2,0,1.5-.9,2.3-2.3,2.3-.9,0-1.9,0-2.8,0Z"/><path class="cls-11" d="M57.7,34.8s0,0,0,0c-6.4,0-12.9,0-19.3,0-.2,0-.4,0-.5,0h19.8Z"/><path class="cls-3" d="M36.1,48.1c0,1.6,0,3.2,0,4.8-.2,0-.4,0-.6,0-1.5,0-3,0-4.5,0-1.1,0-1.7-.5-1.7-1.7,0-.5,0-1.1,0-1.6,0-.9,.6-1.5,1.5-1.5,1.6,0,3.1,0,4.7,0,.2,0,.4,0,.6,0Z"/><path class="cls-3" d="M36.1,65.8c0,1.6,0,3.2,0,4.8-1.7,0-3.4,0-5,0-1.2,0-1.7-.5-1.7-1.7,0-.5,0-1,0-1.5,0-1,.6-1.6,1.6-1.6,1.5,0,3,0,4.6,0,.2,0,.4,0,.6,0Z"/><path class="cls-13" d="M36.1,57v4.8c-.9,0-1.8,0-2.6,0-.8,0-1.7,0-2.5,0-1,0-1.6-.6-1.6-1.5,0-.6,0-1.1,0-1.7,0-1,.6-1.5,1.6-1.5,1.5,0,3.1,0,4.6,0,.2,0,.4,0,.6,0Z"/><path class="cls-7" d="M63.3,52.9c0-1.6,0-3.2,0-4.8,1.7,0,3.4,0,5.1,0,.9,0,1.5,.5,1.5,1.4,0,.6,0,1.2,0,1.9,0,.9-.6,1.5-1.5,1.5-1.7,0-3.4,0-5.1,0Z"/><path class="cls-7" d="M63.3,70.6v-4.8c1.7,0,3.4,0,5.1,0,.9,0,1.5,.5,1.5,1.5,0,.6,0,1.2,0,1.9,0,.9-.6,1.4-1.5,1.4-1.7,0-3.4,0-5.1,0Z"/><path class="cls-7" d="M63.3,61.8v-4.8c1.7,0,3.4,0,5.1,0,.9,0,1.5,.6,1.5,1.5,0,.6,0,1.1,0,1.7,0,.9-.6,1.5-1.5,1.5-1.7,0-3.4,0-5.1,0Z"/><path class="cls-13" d="M36.1,39.3c0,1.6,0,3.2,0,4.8-1.6,0-3.3,0-4.9,0-1.3,0-1.8-.5-1.8-1.8,0-.5,0-1,0-1.5,0-.9,.6-1.4,1.5-1.4,1.6,0,3.1,0,4.7,0,.2,0,.4,0,.6,0Z"/><path class="cls-13" d="M36.1,74.7c0,1.6,0,3.2,0,4.8-1.7,0-3.4,0-5,0-1.2,0-1.7-.5-1.7-1.7,0-.5,0-1,0-1.4,0-1,.5-1.6,1.6-1.6,1.5,0,3.1,0,4.6,0,.2,0,.4,0,.6,0Z"/><path class="cls-1" d="M63.3,44c0-1.6,0-3.1,0-4.7,1.7,0,3.5,0,5.2,0,.9,0,1.4,.6,1.5,1.4,0,.6,0,1.2,0,1.9,0,.9-.6,1.4-1.5,1.4-1.7,0-3.5,0-5.2,0Z"/><path class="cls-1" d="M63.3,79.4v-4.7c1.7,0,3.5,0,5.2,0,.9,0,1.4,.6,1.5,1.4,0,.6,0,1.2,0,1.9,0,.9-.6,1.4-1.5,1.4-1.7,0-3.5,0-5.2,0Z"/><path class="cls-8" d="M52.4,77.6c-2.9,0-5.8,0-8.7,0-.7,0-1.2-.5-1.2-1.2,0-.1,0-.3,0-.4V42.7c0-.1,0-.3,0-.4,0-.7,.5-1.2,1.2-1.2,2.9,0,5.8,0,8.7,0,.7,.3,.9,.9,.9,1.6,0,11.1,0,22.2,0,33.3,0,.7-.2,1.3-.9,1.6Zm-1.9-22.7c-1,.2-2,.3-3,.5-1,.2-1,.2-1,1.2,0,.4,.2,.5,.5,.5,1.8,0,3.6,0,5.4,0,.4,0,.5-.1,.5-.5,0-.4-.1-.5-.5-.5-1.2,0-2.4,0-3.5,0,1.1-.3,2.3-.5,3.4-.7,.3,0,.6,0,.6-.5,0-.4-.2-.6-.6-.6-.2,0-.3,0-.5,0-1-.2-2-.3-3-.5,1.2,0,2.4,0,3.6,0,.4,0,.5-.2,.5-.5s-.1-.5-.5-.5c-1.6,0-3.3,0-4.9,0s-1.1,0-1,1.1c0,.3,.1,.4,.4,.4,.7,.1,1.5,.2,2.2,.4,.4,0,.9,0,1.4,.3Zm-.8,11.2c.9,0,1.8,0,2.7,0,.5,0,.5-.3,.5-.7,0-.4,0-.7-.5-.6-.7,0-1.4,0-2.1,0-.1,0-.3,0-.3-.1,0-.2,.2-.1,.3-.2,.7-.2,1.5-.4,2.2-.6,.4,0,.5-.6,.4-1-.1-.4-.4-.3-.7-.2-.7,.2-1.3,.4-2,.7-.3,0-.4,0-.6-.2-.4-.6-1.1-.6-1.8-.6-.7,0-1,.5-1.2,1.1-.1,.6,0,1.1-.1,1.7,0,.4,.1,.6,.6,.6,.9,0,1.8,0,2.6,0Zm-3.2-6.1c0,.4,0,.6,.5,.7,1.7,.3,3.4,.7,5.1,1.1,.8,.2,.9,0,.8-.7,0-.3,0-.5-.4-.5-.3,0-.5,0-.8-.1-.1,0-.2,0-.2-.2-.1-.5,0-.7,.5-.8,.2,0,.3,0,.5-.1,.3,0,.5-.5,.3-1,0-.4-.3-.3-.6-.2-1.8,.4-3.5,.8-5.3,1.1-.4,0-.6,.2-.5,.7h0Z"/><path class="cls-9" d="M52.4,77.6c.7-.3,.9-.9,.9-1.6,0-11.1,0-22.2,0-33.3,0-.7-.2-1.3-.9-1.6,1.1,0,2.2,0,3.4,0,.6,0,1,.4,1.1,1,0,.2,0,.5,0,.7,0,11,0,22.1,0,33.1,0,.2,0,.5,0,.7-.1,.6-.6,1-1.1,1-1.1,0-2.2,0-3.4,0Z"/><path class="cls-6" d="M50.4,54.9c-.4-.3-.9-.2-1.4-.3-.7-.2-1.5-.3-2.2-.4-.3,0-.4-.2-.4-.4,0-1.1,0-1.1,1-1.1,1.6,0,3.3,0,4.9,0,.4,0,.5,.1,.5,.5s0,.5-.5,.5c-1.2,0-2.4,0-3.6,0,1,.2,2,.3,3,.5,.2,0,.3,0,.5,0,.4,0,.6,.2,.6,.6,0,.5-.3,.5-.6,.5-1.1,.2-2.3,.4-3.4,.7,1.2,0,2.4,0,3.5,0,.4,0,.5,.1,.5,.5,0,.4-.1,.5-.5,.5-1.8,0-3.6,0-5.4,0-.4,0-.5,0-.5-.5,0-1,0-1.1,1-1.2,1-.2,1.9-.3,3-.5Z"/><path class="cls-12" d="M49.7,66.1c-.9,0-1.8,0-2.6,0-.4,0-.6-.2-.6-.6,0-.6,0-1.1,.1-1.7,.2-.6,.5-1,1.2-1.1,.7,0,1.4,0,1.8,.6,.2,.3,.3,.3,.6,.2,.7-.2,1.3-.4,2-.7,.3,0,.5-.2,.7,.2,.2,.5,0,.9-.4,1-.7,.2-1.5,.4-2.2,.6-.1,0-.3,0-.3,.2,0,.2,.2,.1,.3,.1,.7,0,1.4,0,2.1,0,.5,0,.5,.3,.5,.6,0,.4,0,.7-.5,.7-.9,0-1.8,0-2.7,0Zm-1.4-1.3c.1,0,.3,0,.4,0,.2,0,.4,.1,.5-.2,0-.3,0-.5-.3-.6-.4-.1-.8-.1-1.1,0-.3,.1-.3,.3-.3,.6,0,.3,.2,.2,.4,.2s.3,0,.5,0Z"/><path class="cls-6" d="M46.5,60c0-.4,.1-.6,.5-.7,1.8-.4,3.5-.8,5.3-1.1,.2,0,.5-.1,.6,.2,.1,.5,0,.9-.3,1-.2,0-.3,0-.5,.1-.5,0-.6,.3-.5,.8,0,.1,.1,.2,.2,.2,.3,0,.5,.1,.8,.1,.3,0,.4,.2,.4,.5,0,.8,0,.9-.8,.7-1.7-.4-3.4-.7-5.1-1.1-.4,0-.6-.3-.5-.7Zm2.1,0s0,0,0,0c.6,0,1.3,.2,1.9,.3,.3,0,.3,0,.3-.3,0-.2,0-.4-.2-.3-.6,.1-1.3,.2-1.9,.3h0Z"/><path class="cls-4" d="M48.3,64.8c-.2,0-.3,0-.5,0s-.4,0-.4-.2c0-.2,0-.5,.3-.6,.4-.1,.7-.1,1.1,0,.3,0,.4,.3,.3,.6,0,.3-.3,.1-.5,.2-.1,0-.3,0-.4,0Z"/><path class="cls-10" d="M48.6,60c.6,0,1.3-.2,1.9-.3,.3,0,.2,.2,.2,.3,0,.2,0,.3-.3,.3-.6-.1-1.3-.2-1.9-.3,0,0,0,0,0,0Z"/></g><g><path d="M16.8,44l-.3,1.1,3.4,.8-.6,2.3-10.2-2.5,1-4.1c.5-1.9,2.4-3.1,4.4-2.6,1.3,.3,2.2,1.3,2.5,2.6l4.3-1.3-.6,2.5-3.8,1.1Zm-2.3,.6l.4-1.7c.2-.6-.3-1.3-1-1.5-.7-.2-1.4,.2-1.6,.8l-.4,1.7,2.6,.6Z"/><path d="M18.6,30l6.5,3.7-1.1,2-.6-.3c.3,.7,.2,1.5-.3,2.4-1,1.7-3.3,2.3-5.2,1.2-1.9-1.1-2.7-3.4-1.7-5.1,.5-.9,1.2-1.3,1.9-1.5l-.6-.3,1.1-2Zm2.2,3.8c-1-.6-2-.2-2.5,.7-.5,.9-.3,1.9,.7,2.5,1,.6,2,.2,2.5-.7,.5-.9,.3-1.9-.7-2.5Z"/><path d="M30.9,21.9l3,3.5-1.7,1.5-2.9-3.3c-.5-.6-1.1-.7-1.6-.2-.6,.5-.5,1.2,0,1.8l2.8,3.2-1.7,1.5-2.9-3.3c-.5-.6-1.1-.7-1.6-.2-.6,.5-.5,1.2,0,1.8l2.8,3.2-1.7,1.5-5-5.6,1.7-1.5,.5,.5c0-.6,.2-1.3,.9-2,.7-.6,1.4-.8,2.1-.6,0-.7,.2-1.5,1-2.2,1.3-1.1,3-1,4.2,.4Z"/><path d="M44.8,22.2l-1.2-.7c-.6,.7-1.4,1.2-2.4,1.5-2.1,.6-3.9-.2-4.4-2.1-.3-1.2,0-2.4,.8-3.3-.4-.4-.7-.8-.8-1.5-.5-1.7,.5-3.3,2.5-3.8,1.5-.4,2.9,0,3.9,1.3l-1.7,1.7c-.4-.6-1-.9-1.6-.8-.6,.2-.9,.6-.7,1.1,.2,.6,.6,.8,1.2,1.2l2.4,1.6c0-.5,0-1.1,0-1.7l2.2,.6c0,.8-.1,1.6-.4,2.4l1.7,1.1-1.5,1.5Zm-3-1.9l-2.4-1.5h-.1c-.3,.3-.3,.8-.2,1.2,.2,.7,.8,1.1,1.8,.8,.4-.1,.7-.3,1-.5Z"/><path d="M50.3,19l2.2-.9c.2,.9,.8,1.6,2,1.7,1.1,.2,1.5-.2,1.5-.6,0-.6-.5-1-2-1.6-1.5-.6-2.9-1.6-2.6-3.6,.3-2,2.1-2.9,3.9-2.7,1.7,.2,2.9,1.2,3.5,2.9l-2.2,.9c-.3-.8-.7-1.3-1.6-1.5-.7-.1-1.2,.2-1.2,.6,0,.5,.1,.8,1.7,1.6,1.5,.7,3.2,1.5,2.9,3.7-.3,2-2.1,3-4.3,2.6-2.2-.3-3.4-1.5-3.8-3.2Z"/><path d="M62.9,18.7l-.9,2.5c-.2,.6,.3,.9,1.2,1.1l-.7,1.9c-2.9-.7-3.4-1.9-2.6-3.8l.9-2.5-1.1-.4,.8-2,1.1,.4,.5-1.3h2.3c0,.1-.7,2.1-.7,2.1l1.4,.5-.8,2-1.4-.5Z"/><path d="M64.7,21.1c1.2-1.9,3.6-2.4,5.5-1.2,1.9,1.2,2.4,3.6,1.2,5.5-1.2,1.9-3.6,2.4-5.5,1.2-1.9-1.2-2.4-3.6-1.2-5.5Zm4.8,3.1c.6-.9,.3-1.9-.5-2.4-.8-.5-1.8-.3-2.4,.6-.6,.9-.3,1.9,.5,2.4,.8,.5,1.8,.3,2.4-.6Z"/><path d="M78.4,26.9l-1.8,1.8c-.5-.8-1.7-1.4-2.8-.4l-2.4,2.4-1.6-1.6,5.3-5.3,1.6,1.6-.9,.9c.9-.5,2-.1,2.6,.6Z"/><path d="M83.7,35l-6.3,4-1.2-1.9,.6-.4c-.7-.1-1.4-.6-2-1.4-1-1.7-.5-4,1.4-5.1,1.9-1.2,4.2-.7,5.3,.9,.5,.9,.6,1.7,.4,2.4l.6-.4,1.2,1.9Zm-4.4,.1c1-.6,1.1-1.6,.6-2.5-.6-.9-1.5-1.1-2.5-.5-1,.6-1.1,1.6-.6,2.5s1.5,1.1,2.5,.5Z"/><path d="M87.1,45.2l-6.8,2c-2.4,.7-4-.9-4.5-2.8-.4-1.5-.2-2.9,.8-3.9l1.6,1.5c-.4,.4-.7,1-.4,1.9,.3,1,1,1.5,2,1.2l.7-.2c-.7-.3-1.3-.9-1.5-1.8-.6-2,.7-4,2.6-4.6,2-.6,4.1,.4,4.7,2.5,.3,.9,.1,1.7-.3,2.4l.7-.2,.6,2.1Zm-4.1-1.1c1-.3,1.5-1.2,1.2-2.2-.3-1-1.2-1.5-2.2-1.3-1,.3-1.5,1.2-1.2,2.2,.3,1,1.2,1.5,2.2,1.3Z"/><path d="M81.8,52c0,.6,.2,1.1,.6,1.4l-1,1.8c-1-.7-1.6-1.8-1.6-3.3,0-2.6,1.7-4.2,3.9-4.2,2.2,0,4,1.6,4,4,0,2.2-1.7,3.8-3.9,3.8-.3,0-.6,0-.9,0v-5.3c-.8,.3-1.1,1-1.1,1.8Zm2.7,1.4c.9-.2,1.2-.9,1.2-1.6,0-.9-.4-1.4-1.2-1.6v3.2Z"/></g></svg>