<?xml version="1.0" encoding="UTF-8"?><svg id="Layer_1" xmlns="http://www.w3.org/2000/svg" viewBox="0 0 100 100"><defs><style>.cls-1{fill:#1f444f;}.cls-2{fill:none;stroke:#0018c6;stroke-miterlimit:10;stroke-width:4px;}.cls-3{fill:#2d5a5d;}.cls-4{fill:#dda927;}.cls-5{fill:#1e4b4c;}.cls-6{fill:#2e5a5d;}.cls-7{fill:#f0c343;}.cls-8{fill:#1a846e;}.cls-9{fill:#dca826;}.cls-10{fill:#249582;}</style></defs><circle class="cls-2" cx="50" cy="50" r="45"/><path class="cls-8" d="m16.9,47.2c.2-.2.4-.4.7-.4,2.3,0,4.5,0,6.8,0,0,1.1,0,2.2,0,3.3-.5.3-.7.8-.7,1.4,0,2.4,0,4.8,0,7.2s0,3.7,0,5.5c0,.9.4,1.3,1.3,1.3.9,0,1.8,0,2.7,0,.7,0,1.4,0,2,0,.6,0,1.3-.3,1.1-1.2,0-.2,0-.4,0-.5h4.6c0,.1,0,.2,0,.3,0,1.1.3,1.4,1.4,1.4s1.7,0,2.6,0c.7,0,1.4,0,2,0,.8,0,1.1-.4,1.2-1.1,0-.2,0-.4,0-.6h4.6c0,.1,0,.2,0,.3,0,1.2.2,1.4,1.4,1.4s1.6,0,2.4,0c.6,0,1.3,0,1.9,0,.9,0,1.3-.4,1.3-1.3,0-.2,0-.3,0-.5h4.6c0,.1,0,.2,0,.3,0,1.1.3,1.4,1.4,1.4s1.7,0,2.6,0c.7,0,1.4,0,2,0,.8,0,1.1-.4,1.2-1.2,0-.2,0-.4,0-.5h4.6c0,.1,0,.3,0,.4,0,1.1.2,1.2,1.2,1.2.9,0,1.8,0,2.6,0,.8.2,1.6.2,2.4,0,.5,0,.8-.4.8-1,0-.2,0-.5.1-.7h6.8c0,1.7,0,3.3,0,5h-4.4s-2.1,0-2.1,0h-1.5s-2.1,0-2.1,0h-1.5s-2,0-2,0h-1.6s-2,0-2,0h-3.6s-1.5,0-1.5,0h-2.1s-1.5,0-1.5,0h-2.1s-1.5,0-1.5,0h-2s-1.6,0-1.6,0h-3.6s-2,0-2,0h-1.5s-2.1,0-2.1,0h-3.6s-1.5,0-1.5,0h-2s-1.6,0-1.6,0h-2s-1.5,0-1.5,0h-2.1s-1.5,0-1.5,0h-3.6s-2,0-2,0c-1.5,0-3.1,0-4.6,0v-9.6c.3,0,.6-.2.9-.3,1.3-.4,2.1-1.6,2.2-2.9s-.8-2.6-2.1-3c-.3-.1-.7-.2-1-.3v-5.6Z"/><path class="cls-7" d="m62.8,68.8h1.5c0,.8,0,1.6,0,2.3,0,.6.4,1,1,1,.7,0,1-.3,1-1,0-.8,0-1.5,0-2.3h1.6c0,.8,0,1.5,0,2.3,0,.8.3,1.1,1,1.1.6,0,1-.4,1-1.1,0-.8,0-1.5,0-2.3h1.6c0,.7,0,1.5,0,2.2,0,.8.3,1.2,1,1.2.6,0,1-.4,1-1.2,0-.7,0-1.5,0-2.2h1.5c0,.7,0,1.4,0,2.1,0,.8.4,1.2,1.1,1.2s1-.4,1.1-1.2c0-.7,0-1.4,0-2.1h1.5c0,.8,0,1.5,0,2.2,0,.6.4,1,.9,1.1.6,0,1-.2,1.1-.8.2-.8,0-1.7.1-2.5h4.4c0,1.1,0,2.2,0,3.3,0,1-.7,1.8-1.7,1.9-.3,0-.6,0-.9,0-20.9,0-41.9,0-62.8,0-1.2,0-2.2-.4-2.6-1.6v-3.7c1.5,0,3.1,0,4.6,0,0,.7,0,1.5,0,2.2,0,.8.3,1.2,1,1.2.6,0,1-.4,1-1.2,0-.7,0-1.5,0-2.2h1.5c0,.7,0,1.4,0,2.1,0,.8.4,1.2,1.1,1.2s1-.4,1.1-1.2c0-.7,0-1.4,0-2.1h1.5c0,.7,0,1.5,0,2.2,0,.6.4,1,.9,1.1.6,0,1-.2,1.1-.8.2-.8,0-1.7.1-2.5h1.5c0,.8,0,1.6,0,2.3,0,.6.4,1,1,1,.7,0,1-.3,1-1,0-.8,0-1.6,0-2.3h1.6c0,.8,0,1.5,0,2.3,0,.8.3,1.1,1,1.1.6,0,1-.4,1-1.1,0-.8,0-1.5,0-2.3h1.5c0,.9-.1,1.8.1,2.6.1.5.4.7.9.7.7,0,1.1-.4,1.1-1.2,0-.7,0-1.5,0-2.2h1.5c0,.7,0,1.4,0,2.1,0,.8.4,1.2,1.1,1.2s1-.4,1.1-1.2c0-.7,0-1.4,0-2.1h1.5c0,.8,0,1.5,0,2.3,0,.7.4,1.1,1.1,1.1.7,0,.9-.3.9-1.1,0-.8,0-1.5,0-2.3h1.6c0,.8,0,1.5,0,2.3,0,.7.3,1,1,1s1-.3,1-1c0-.8,0-1.5,0-2.3h1.6c0,.8,0,1.5,0,2.3,0,.8.3,1.1,1,1.1.6,0,1-.4,1-1.1,0-.8,0-1.5,0-2.3h1.5c0,.7,0,1.4,0,2.1,0,.8.4,1.2,1.1,1.2s1-.4,1.1-1.2c0-.7,0-1.4,0-2.1h1.5c0,.8,0,1.5,0,2.3,0,.5.3,1,.9,1s1-.2,1.1-.8c.2-.8,0-1.7,0-2.5Z"/><path class="cls-10" d="m85,63.8h-6.8c0-4,0-7.9,0-11.9,0-.3,0-.6,0-.9,0-.7-.5-1-1.2-1-.6,0-1.2,0-1.8,0-.9,0-1.9,0-2.8,0-1.1,0-1.3.3-1.3,1.3,0,4.1,0,8.2,0,12.3h-4.6c0-.1,0-.3,0-.4,0-4,0-8,0-12,0-.9-.3-1.3-1.3-1.3-.6,0-1.2,0-1.8,0-.9,0-1.7,0-2.6,0-1.3,0-1.5.3-1.5,1.5,0,4.1,0,8.1,0,12.2h-4.6c0-4.1,0-8.3,0-12.4,0-1-.3-1.3-1.3-1.3-.6,0-1.3,0-1.9,0-.8,0-1.6,0-2.5,0-1.2,0-1.4.2-1.4,1.4,0,4.1,0,8.2,0,12.3h-4.6c0-.2,0-.3,0-.5,0-3.9,0-7.9,0-11.8,0-1-.3-1.3-1.3-1.4-.6,0-1.2,0-1.8,0-1,0-1.9,0-2.9,0-.9,0-1.3.3-1.3,1.3,0,4.1,0,8.3,0,12.4h-4.6c0-4.2,0-8.3,0-12.5,0-.8-.4-1.2-1.2-1.2-.6,0-1.2,0-1.9,0h-3.4c0-1.1,0-2.2,0-3.3.2,0,.5,0,.7,0,19.5,0,38.9,0,58.4,0,1.3,0,1.4,0,1.4,1.3s0,2.6,0,3.9c0,.5-.1.7-.6.9-1.6.4-2.5,1.6-2.5,3.1s.9,2.6,2.5,3.1c.4.1.6.3.6.7,0,1.3,0,2.7,0,4Z"/><path class="cls-5" d="m24.5,50.1h3.4c-.4.4-.6.9-.5,1.5,0,.5,0,1,0,1.4-.7,0-.9.5-.9,1.1,0,2.5,0,5.1,0,7.6,0,.7.3,1.1.9,1.2,0,.9,0,1.7.4,2.5-.9,0-1.8,0-2.7,0-.9,0-1.3-.4-1.3-1.3,0-1.8,0-3.7,0-5.5s0-4.8,0-7.2c0-.6.1-1.1.7-1.4Z"/><path class="cls-3" d="m75.1,50.1c.6,0,1.2,0,1.8,0,.6,0,1.1.2,1.2,1,0,.3,0,.6,0,.9,0,4,0,7.9,0,11.9-.2.2-.1.5-.1.7,0,.6-.3.9-.8,1-.8,0-1.6.2-2.4,0-.4-.7-.2-1.4-.3-2.1.6,0,.9-.4.9-1.1,0-2.6,0-5.2,0-7.9,0-.6-.3-1-.9-1.1,0-.5,0-1,0-1.5,0-.6,0-1.2.5-1.7Z"/><path class="cls-5" d="m59.2,63.8c0-4.1,0-8.1,0-12.2,0-1.2.3-1.5,1.5-1.5.9,0,1.7,0,2.6,0-.4.4-.6.9-.5,1.5,0,.5,0,1.1,0,1.6-.7,0-1,.3-1.1,1.2,0,2.5,0,4.9,0,7.4,0,.9.3,1.2,1.1,1.2,0,.8-.1,1.6.4,2.4-.9,0-1.7,0-2.6,0-1.1,0-1.4-.3-1.4-1.4,0-.1,0-.2,0-.3Z"/><path class="cls-5" d="m35.7,63.8c0-4.1,0-8.3,0-12.4,0-.9.3-1.3,1.3-1.3,1,0,1.9,0,2.9,0-.5.4-.6.9-.5,1.5,0,.5,0,1,0,1.5-.7,0-1.1.4-1.1,1.2,0,2.5,0,5,0,7.5,0,.8.4,1.1,1.1,1.2,0,.9-.2,1.7.4,2.5-.9,0-1.7,0-2.6,0s-1.4-.3-1.4-1.4c0-.1,0-.2,0-.3Z"/><path class="cls-5" d="m47.5,63.8c0-4.1,0-8.2,0-12.3,0-1.2.2-1.4,1.4-1.4.8,0,1.6,0,2.5,0-.4,1-.2,2-.3,3-.8.1-1.1.4-1.1,1.2,0,2.5,0,5.1,0,7.6,0,.7.3,1,1.1,1.2,0,.8,0,1.6.3,2.4-.8,0-1.6,0-2.4,0-1.2,0-1.4-.2-1.4-1.4,0-.1,0-.2,0-.3Z"/><path class="cls-5" d="m74.6,63.2c0,.7-.1,1.5.3,2.1-.9,0-1.8,0-2.6,0-1.1,0-1.2-.2-1.2-1.2,0-.1,0-.3,0-.4,0-4.1,0-8.2,0-12.3,0-1.1.3-1.3,1.3-1.3.9,0,1.9,0,2.8,0-.5.4-.6,1-.5,1.7,0,.5,0,1,0,1.5-.8.1-1.1.4-1.1,1.2,0,2.5,0,5.1,0,7.6,0,.7.3,1,1.1,1.2Z"/><path class="cls-3" d="m39.7,65.5c-.6-.8-.4-1.7-.4-2.5.7,0,1-.4,1-1.1,0-2.5,0-5.1,0-7.6,0-.7-.4-1-1-1.1,0-.5,0-1,0-1.5,0-.6,0-1.1.5-1.5.6,0,1.2,0,1.8,0,1,0,1.3.4,1.3,1.4,0,3.9,0,7.9,0,11.8,0,.2,0,.4,0,.5,0,.2,0,.4,0,.6,0,.8-.4,1.1-1.2,1.1-.7,0-1.4,0-2,0Z"/><path class="cls-6" d="m62.8,53.3c0-.5,0-1.1,0-1.6,0-.6.1-1.1.5-1.5.6,0,1.2,0,1.8,0,.9,0,1.3.4,1.3,1.3,0,4,0,8,0,12,0,.1,0,.3,0,.4,0,.2,0,.4,0,.5,0,.8-.3,1.2-1.2,1.2-.7,0-1.4,0-2,0-.5-.7-.4-1.6-.4-2.4.7,0,1-.4,1.1-1,0-2.6,0-5.2,0-7.8,0-.6-.4-1-1.1-1Z"/><path class="cls-6" d="m27.8,65.5c-.5-.8-.4-1.7-.4-2.5.8-.1,1.1-.4,1.1-1.2,0-2.5,0-5.1,0-7.6,0-.7-.3-1-1.1-1.2,0-.5,0-1,0-1.4,0-.6.1-1.1.5-1.5.6,0,1.2,0,1.9,0,.9,0,1.2.4,1.2,1.2,0,4.2,0,8.3,0,12.5,0,.2,0,.4,0,.5.1.9-.5,1.2-1.1,1.2-.7,0-1.4,0-2,0Z"/><path class="cls-6" d="m51.1,53.1c0-1-.2-2.1.3-3,.6,0,1.3,0,1.9,0,1,0,1.3.3,1.3,1.3,0,4.1,0,8.3,0,12.4,0,.2,0,.3,0,.5,0,.9-.3,1.2-1.3,1.3-.6,0-1.3,0-1.9,0-.4-.8-.3-1.6-.3-2.4.6-.1.9-.4.9-1.1,0-2.6,0-5.2,0-7.8,0-.6-.3-1-.9-1.1Z"/><path class="cls-4" d="m45,68.8c0,.7,0,1.4,0,2.1,0,.8-.4,1.2-1.1,1.2s-1-.4-1.1-1.2c0-.7,0-1.4,0-2.1h2.1Z"/><path class="cls-4" d="m59.2,68.8c0,.7,0,1.4,0,2.1,0,.8-.4,1.2-1.1,1.2s-1-.4-1.1-1.2c0-.7,0-1.4,0-2.1h2.1Z"/><path class="cls-4" d="m62.8,68.8c0,.8,0,1.7,0,2.5-.1.7-.5.9-1.1.8s-.9-.5-.9-1c0-.8,0-1.5,0-2.3h2.1Z"/><path class="cls-4" d="m77,68.8c0,.7,0,1.4,0,2.1,0,.8-.4,1.2-1.1,1.2s-1-.4-1.1-1.2c0-.7,0-1.4,0-2.1h2.1Z"/><path class="cls-4" d="m27.2,68.8c0,.7,0,1.4,0,2.1,0,.8-.4,1.2-1.1,1.2s-1-.4-1.1-1.2c0-.7,0-1.4,0-2.1h2.1Z"/><path class="cls-4" d="m41.4,68.8c0,.7,0,1.5,0,2.2,0,.8-.4,1.2-1.1,1.2-.5,0-.8-.2-.9-.7-.2-.9,0-1.8-.1-2.6.7,0,1.4,0,2.1,0Z"/><path class="cls-4" d="m30.8,68.8c0,.8,0,1.7-.1,2.5-.1.6-.5.9-1.1.8-.5,0-.9-.5-.9-1.1,0-.7,0-1.5,0-2.2h2.1Z"/><path class="cls-4" d="m80.6,68.8c0,.8,0,1.7-.1,2.5-.1.6-.5.9-1.1.8-.5,0-.9-.5-.9-1.1,0-.7,0-1.5,0-2.2h2.1Z"/><path class="cls-9" d="m52,68.8c0,.8,0,1.5,0,2.3,0,.7-.3,1-1,1s-1-.3-1-1c0-.8,0-1.5,0-2.3h2Z"/><path class="cls-9" d="m34.2,68.8c0,.8,0,1.6,0,2.3,0,.7-.3,1-1,1-.6,0-1-.4-1-1,0-.8,0-1.6,0-2.3h2Z"/><path class="cls-9" d="m37.8,68.8c0,.8,0,1.5,0,2.3,0,.7-.4,1.1-1,1.1-.7,0-1-.3-1-1.1,0-.8,0-1.5,0-2.3h2Z"/><path class="cls-9" d="m55.6,68.8c0,.8,0,1.5,0,2.3,0,.7-.4,1.1-1,1.1-.7,0-1-.3-1-1.1,0-.8,0-1.5,0-2.3h2Z"/><path class="cls-9" d="m66.3,68.8c0,.8,0,1.6,0,2.3,0,.7-.3,1-1,1-.6,0-1-.4-1-1,0-.8,0-1.6,0-2.3h2Z"/><path class="cls-9" d="m69.8,68.8c0,.8,0,1.5,0,2.3,0,.7-.4,1.1-1,1.1-.7,0-1-.3-1-1.1,0-.8,0-1.5,0-2.3h2Z"/><path class="cls-4" d="m23.6,68.8c0,.7,0,1.5,0,2.2,0,.7-.4,1.1-1,1.2-.7,0-1-.3-1-1.2,0-.7,0-1.5,0-2.2h2Z"/><path class="cls-9" d="m48.4,68.8c0,.8,0,1.5,0,2.3,0,.8-.3,1.1-.9,1.1-.6,0-1-.4-1.1-1.1,0-.8,0-1.5,0-2.3h2Z"/><path class="cls-4" d="m73.4,68.8c0,.7,0,1.5,0,2.2,0,.7-.4,1.1-1,1.2-.7,0-1-.3-1-1.2,0-.7,0-1.5,0-2.2h2Z"/><path class="cls-1" d="m27.4,53c.8.1,1.1.4,1.1,1.2,0,2.5,0,5.1,0,7.6,0,.7-.3,1-1.1,1.2-.6-.1-1-.5-.9-1.2,0-2.5,0-5.1,0-7.6,0-.7.3-1,.9-1.1Z"/><path class="cls-1" d="m74.6,63.2c-.8-.1-1.1-.4-1.1-1.2,0-2.5,0-5.1,0-7.6,0-.7.3-1,1.1-1.2.6,0,.9.4.9,1.1,0,2.6,0,5.2,0,7.9,0,.6-.3,1-.9,1.1Z"/><path class="cls-1" d="m62.8,53.3c.7,0,1,.4,1.1,1,0,2.6,0,5.2,0,7.8,0,.6-.4,1-1.1,1-.7,0-1-.3-1.1-1.2,0-2.5,0-4.9,0-7.4,0-.9.3-1.2,1.1-1.2Z"/><path class="cls-1" d="m39.3,53.1c.7,0,1,.4,1,1.1,0,2.5,0,5.1,0,7.6,0,.7-.4,1-1,1.1-.7,0-1.1-.4-1.1-1.2,0-2.5,0-5,0-7.5,0-.8.4-1.1,1.1-1.2Z"/><path class="cls-1" d="m51.1,53.1c.6,0,.9.4.9,1.1,0,2.6,0,5.2,0,7.8,0,.7-.4.9-.9,1.1-.8-.1-1.1-.4-1.1-1.2,0-2.5,0-5.1,0-7.6,0-.7.3-1,1.1-1.2Z"/><path d="m24.8,31l1-2.7c1,.5,2.1.6,3.1-.4,1-.9,1-1.5.7-1.9-.5-.6-1.2-.4-3,.4-1.8.8-3.8,1.3-5.3-.6-1.6-1.9-.9-4.3.8-5.7,1.6-1.3,3.5-1.6,5.4-.8l-.9,2.7c-.9-.4-1.7-.5-2.6.3-.7.6-.7,1.2-.4,1.6.4.4.9.5,2.7-.3,1.8-.8,3.9-1.6,5.6.4,1.6,1.9,1,4.2-1.1,6-2,1.7-4.1,1.8-5.9.8Z"/><path d="m35,19.7l1.4,2.9c.3.7,1,.5,2,0l1,2.2c-3,1.8-4.4,1.3-5.5-1l-1.4-2.9-1.3.6-1.1-2.3,1.3-.6-.7-1.5,2.1-1.9,1.1,2.3,1.7-.8,1.1,2.3-1.7.8Z"/><path d="m38.6,20c-.5-2.6,1.2-5.1,3.8-5.6s5.1,1.1,5.6,3.8c.5,2.6-1.2,5.1-3.8,5.6-2.6.5-5.1-1.1-5.6-3.8Zm6.7-1.3c-.2-1.3-1.3-1.9-2.4-1.7-1.1.2-1.9,1.2-1.6,2.5.2,1.3,1.3,1.9,2.4,1.7,1.2-.2,1.9-1.2,1.6-2.5Z"/><path d="m55.7,14.2l-.2,3.1c-1.1-.3-2.7,0-2.8,1.9l-.3,4.1-2.7-.2.6-9,2.7.2v1.6c.3-1.2,1.6-1.7,2.7-1.6Z"/><path d="m67,17.6l-2.9,8.5-2.6-.9.3-.8c-.8.5-1.8.6-2.9.2-2.2-.8-3.4-3.4-2.5-5.9s3.4-3.9,5.6-3.1c1.1.4,1.8,1.1,2.2,1.9l.3-.8,2.6.9Zm-4,3.4c.4-1.3-.1-2.4-1.3-2.8-1.2-.4-2.3.1-2.7,1.4-.4,1.3.1,2.4,1.3,2.8,1.2.4,2.3-.1,2.7-1.4Z"/><path d="m77.8,25.3l-5.3,6.7c-1.9,2.4-4.5,1.9-6.4.4-1.5-1.2-2.3-2.7-2-4.4l2.6.4c-.1.7,0,1.4.9,2.2,1,.8,2,.8,2.8-.3l.5-.7c-.9.2-1.9,0-2.8-.7-2-1.6-2.2-4.4-.6-6.3,1.5-2,4.3-2.4,6.3-.8.9.7,1.3,1.6,1.3,2.5l.6-.7,2.1,1.6Zm-4.7,1.8c.8-1,.6-2.2-.4-3-1-.8-2.2-.7-3,.3-.8,1-.6,2.2.4,3,1,.8,2.2.7,3-.3Z"/><path d="m77.2,35.8c.4.6,1,1,1.5,1.1v2.5c-1.4,0-2.6-.8-3.6-2.3-1.7-2.6-1-5.3,1.2-6.8s5-1,6.6,1.4c1.4,2.2.8,4.9-1.5,6.4-.3.2-.6.4-1,.5l-3.5-5.3c-.6.8-.4,1.7.1,2.5Zm3.6-.4c.7-.8.6-1.7.1-2.4-.6-.9-1.4-1.2-2.3-.9l2.1,3.2Z"/></svg>