<?xml version="1.0" encoding="UTF-8"?><svg id="Layer_1" xmlns="http://www.w3.org/2000/svg" viewBox="0 0 100 100"><defs><style>.cls-1{fill:#93c149;}.cls-2{fill:none;stroke:#0018c6;stroke-miterlimit:10;stroke-width:4px;}.cls-3{fill:#e2e7f5;}.cls-4{fill:#f7f6fd;}.cls-5{fill:#e1e6f4;}.cls-6{fill:#474c68;}.cls-7{fill:#b3dd60;}.cls-8{fill:#dee3f1;}.cls-9{fill:#2b2e3f;}</style></defs><circle class="cls-2" cx="50" cy="50" r="45"/><path class="cls-6" d="m70.2,56c0,0,0-.2,0-.4,0-6.2,0-12.4,0-18.6,0-2.4-2-4.4-4.4-4.4-11,0-22,0-33,0-2.3,0-4.4,2.1-4.4,4.4,0,4.4,0,8.8,0,13.3,0,.7,0,1.3,0,2,.1.9.2,1.7.3,2.6.3,2.5.8,5,1.5,7.4.4,1.4.9,2.8,1.5,4.2,0,.2,0,.4.3.4,0-.2,0-.5,0-.7,0-8.5,0-17.1,0-25.6,0-.5.1-.7.6-.7,11.1,0,22.2,0,33.2,0,.5,0,.6.1.6.6,0,12.3,0,24.6,0,36.9,0,.5-.1.6-.6.6-8.6,0-17.3,0-25.9,0-.2,0-.5,0-.7,0,.1.4.5.6.8.9,1.5,1.4,3.1,2.7,4.8,3.8.3.2.6.3.9.5-.3-1.6.4-2.5,2.1-2.5,1.1,0,2.1,0,3.2,0,1.1,0,1.9.8,1.9,1.8,0,1.1-.8,1.8-1.9,1.8-.9,0-1.9,0-2.8,0,.1.3.5.4.8.5,2.3,1,4.7,1.7,7.2,2,.5,0,1,0,1.5.2,2.7,0,5.4,0,8.1,0,2.5,0,4.5-2,4.5-4.5,0-6.4,0-12.7,0-19.1v-.6c-.4-2.2-.4-4.6,0-6.8Zm-20.2-18.9c-.8,0-1.7,0-2.5,0s-1.7,0-2.5,0c-.7,0-1.1-.3-1.1-.9,0-.5.4-.9,1.1-.9,1.7,0,3.4,0,5.1,0,.7,0,1.1.3,1.1.9,0,.6-.4.9-1.1.9Zm3.4,0c-.9,0-1.3-.3-1.4-.9,0-.6.4-.9,1.3-.9h0c.9,0,1.3.3,1.3.9,0,.6-.4.9-1.4.9Z"/><path class="cls-9" d="m28.3,52.2c.1.9.2,1.7.3,2.6.3,2.5.8,5,1.5,7.4.4,1.4.9,2.8,1.5,4.2,0,.2,0,.4.3.4,0,.3,0,.5,0,.8,0,3.4,0,6.7,0,10.1,0,.3,0,.4.4.4,2.2,0,4.5,0,6.7,0h.2c.1.4.5.7.8.9,1.5,1.4,3.1,2.7,4.8,3.8.3.2.6.3.9.5.3.4.6.8,1.1,1,.4.2.9,0,1.3.1.1.3.5.4.8.5,2.3,1,4.7,1.7,7.2,2,.5,0,1,0,1.5.2-.3,0-.6,0-1,0-7.8,0-15.5,0-23.3,0-3,0-4.9-1.9-4.9-4.9,0-9.7,0-19.5,0-29.2,0-.2,0-.5,0-.7Z"/><path class="cls-4" d="m39.2,77.9h-.2c0-.3-.2-.4-.3-.5-.6-.6-1.1-1.3-1.7-1.9-1.8-2.3-3.4-4.9-4.6-7.5,0-.2-.1-.4-.4-.5,0-.3,0-.5,0-.8,0-.2,0-.5,0-.7,0-8.5,0-17.1,0-25.6,0-.5.1-.7.6-.7,11.1,0,22.2,0,33.2,0,.5,0,.6.1.6.6,0,12.3,0,24.6,0,36.9,0,.5-.1.6-.6.6-8.6,0-17.3,0-25.9,0-.2,0-.5,0-.7,0Zm6.3-29.1c-.7,0-1.4,0-2.2,0-.4,0-.6.1-.6.6,0,6.3,0,12.6,0,18.9,0,.4,0,.5.5.5,3.9,0,7.8,0,11.7,0,.4,0,.5-.1.5-.5,0-3.5,0-7,0-10.6s0-5.6,0-8.3c0-.5-.1-.6-.6-.6-.7,0-1.4,0-2.2,0,0-1.1,0-2.1,0-3.2,0-.3,0-.5-.4-.5-2.1,0-4.3,0-6.4,0-.4,0-.4.1-.4.5,0,1.1,0,2.1,0,3.2Zm.9,25.5q0-.9-.9-.9t-.9.9.9.9.9-.9h0Zm2.7.9q.9,0,.9-.9,0-.9-.9-.9-.9,0-.9.9,0,.9.9.9h0Zm3.7-1.8q-.9,0-.9.9,0,.9.9.9.9,0,.9-.9,0-.9-.9-.9h0Z"/><path class="cls-5" d="m48.1,84.3c-.4,0-.9,0-1.3-.1-.5-.2-.8-.6-1.1-1-.3-1.6.4-2.5,2.1-2.5,1.1,0,2.1,0,3.2,0,1.1,0,1.9.8,1.9,1.8,0,1.1-.8,1.8-1.9,1.8-.9,0-1.9,0-2.8,0Z"/><path class="cls-5" d="m47.4,37.1c-.8,0-1.7,0-2.5,0-.7,0-1.1-.3-1.1-.9,0-.5.4-.9,1.1-.9,1.7,0,3.4,0,5.1,0,.7,0,1.1.3,1.1.9,0,.6-.4.9-1.1.9-.8,0-1.7,0-2.5,0Z"/><path class="cls-8" d="m53.3,37.1c-.9,0-1.3-.3-1.4-.9,0-.6.4-.9,1.3-.9h0c.9,0,1.3.3,1.3.9,0,.6-.4.9-1.4.9Z"/><path class="cls-3" d="m32,67.5c.3,0,.3.3.4.5,1.3,2.7,2.8,5.2,4.6,7.5.5.7,1.1,1.3,1.7,1.9.1.2.3.3.3.5-2.2,0-4.5,0-6.7,0-.3,0-.4,0-.4-.4,0-3.4,0-6.7,0-10.1Z"/><path class="cls-1" d="m52.9,48.9c.7,0,1.4,0,2.2,0,.4,0,.6.1.6.6,0,2.8,0,5.6,0,8.3s0,7,0,10.6c0,.4,0,.5-.5.5-3.9,0-7.8,0-11.7,0-.4,0-.5-.1-.5-.5,0-6.3,0-12.6,0-18.9,0-.5.1-.6.6-.6.7,0,1.4,0,2.2,0h7.3Zm-7.3,6.1c.3-.6.8-.6,1.2-.6,1.5,0,3,0,4.5,0,.5,0,1.1-.1,1.5.6,0-1.1,0-2,0-2.9,0-.4-.1-.5-.5-.5-2.1,0-4.2,0-6.3,0-.4,0-.5.1-.5.5,0,.9,0,1.8,0,2.9h0Zm0,7.8c0,1.1,0,2,0,2.9,0,.3,0,.4.4.4,2.2,0,4.3,0,6.5,0,.3,0,.4,0,.4-.4,0-.9,0-1.9,0-3-.3.6-.8.6-1.2.6-1.6,0-3.2,0-4.8,0-.5,0-.9,0-1.3-.6h0Zm7.2-7.2c-.3.6-.8.6-1.2.6-1.5,0-3.1,0-4.6,0-.5,0-1,0-1.4-.5v2.9c.3-.6.8-.6,1.2-.6,1.5,0,3.1,0,4.6,0,.5,0,1,0,1.4.5v-2.9Zm0,6.6v-3c-.3.6-.7.6-1.2.6-1.5,0-3,0-4.5,0-.5,0-1.1.1-1.5-.6v3c.3-.5.7-.6,1.2-.6,1.6,0,3.2,0,4.8,0,.5,0,.9,0,1.2.6h0Z"/><path class="cls-7" d="m52.9,48.9h-7.3c0-1.1,0-2.1,0-3.2,0-.3,0-.5.4-.5,2.1,0,4.3,0,6.4,0,.4,0,.4.1.4.5,0,1.1,0,2.1,0,3.2Z"/><path class="cls-6" d="m46.5,74.3q0,.9-.9.9t-.9-.9.9-.9.9.9Z"/><path class="cls-6" d="m49.2,75.2q-.9,0-.9-.9t.9-.9.9.9-.9.9Z"/><path class="cls-6" d="m52.9,73.4q.9,0,.9.9t-.9.9-.9-.9.9-.9Z"/><path class="cls-7" d="m45.6,54.9c0-1.1,0-2,0-2.9,0-.4.1-.5.5-.5,2.1,0,4.2,0,6.3,0,.4,0,.5.1.5.5,0,.9,0,1.8,0,2.9-.4-.8-1-.6-1.5-.6-1.5,0-3,0-4.5,0-.5,0-.9,0-1.2.6Z"/><path class="cls-7" d="m45.6,62.8c.3.6.8.6,1.3.6,1.6,0,3.2,0,4.8,0,.5,0,.9,0,1.2-.6,0,1.1,0,2,0,3,0,.3-.1.4-.4.4-2.2,0-4.3,0-6.5,0-.3,0-.4-.2-.4-.4,0-.9,0-1.8,0-2.9Z"/><path class="cls-7" d="m52.8,55.5v2.9c-.4-.5-.8-.5-1.4-.5-1.5,0-3.1,0-4.6,0-.5,0-.9,0-1.2.6v-2.9c.4.5.8.5,1.4.5,1.5,0,3.1,0,4.6,0,.5,0,.9,0,1.2-.6Z"/><path class="cls-7" d="m52.8,62.1c-.3-.5-.8-.6-1.2-.6-1.6,0-3.2,0-4.8,0-.5,0-.9,0-1.2.6v-3c.4.7,1,.6,1.5.6,1.5,0,3,0,4.5,0,.5,0,.9,0,1.2-.6v3Z"/><path d="m13.2,39.8l-.6,2.6,8,1.7-.5,2.3-8-1.7-.6,2.6-2.3-.5,1.6-7.6,2.3.5Z"/><path d="m17.3,32.2l6.8,3.2-1,2-.6-.3c.3.7.3,1.5-.1,2.4-.8,1.8-3.1,2.5-5.1,1.6-2-.9-2.9-3.1-2.1-4.9.4-.9,1.1-1.4,1.8-1.6l-.6-.3,1-2Zm2.4,3.6c-1-.5-2,0-2.4.8-.4.9-.1,1.9.9,2.4,1,.5,2,0,2.4-.8.4-.9.1-1.9-.9-2.4Z"/><path d="m27.2,26.1c1.7,1.5,1.9,3.8.6,5.3-.7.8-1.4,1.1-2.2,1.1l.5.5-1.5,1.7-7.9-6.9,1.5-1.7,2.8,2.4c-.1-.7.1-1.5.8-2.3,1.3-1.5,3.7-1.6,5.3,0Zm-1.5,1.7c-.8-.7-1.9-.6-2.6.1s-.6,1.8.2,2.5c.8.7,1.9.6,2.6-.1.7-.8.7-1.8-.2-2.5Z"/><path d="m24.2,19.5l1.8-1.4,6.6,8.7-1.8,1.4-6.6-8.7Z"/><path d="m36.1,22.8c.6-.3.9-.7,1-1.1h2.1c-.2,1.4-1,2.3-2.2,3-2.3,1.1-4.5.3-5.5-1.7-1-2-.3-4.3,1.8-5.3,2-1,4.2-.2,5.2,1.9.1.3.2.6.3.8l-4.8,2.4c.6.6,1.3.5,2.1.1Zm0-3.1c-.6-.7-1.3-.7-2-.4-.8.4-1.1,1-.9,1.8l2.9-1.4Z"/><path d="m42.1,16.9l.6,2.6c.2.6.7.5,1.7.3l.5,2c-2.8,1-3.8.4-4.3-1.7l-.6-2.6-1.2.3-.5-2.1,1.2-.3-.3-1.4,2-1.2.5,2,1.5-.4.5,2.1-1.5.4Z"/><path d="m57.6,18.3c-.2,2.2-2,3.8-4,3.6-1-.1-1.7-.5-2.1-1.1v.7c0,0-2.3-.2-2.3-.2l1.1-10.4,2.2.2-.4,3.7c.6-.5,1.3-.8,2.3-.7,2,.2,3.4,2.1,3.1,4.3Zm-2.2-.2c.1-1.1-.6-1.9-1.6-2-1-.1-1.8.5-2,1.6-.1,1.1.6,1.9,1.6,2,1,.1,1.9-.5,2-1.6Z"/><path d="m67.7,18.1l-2.8,7-2.1-.8.3-.7c-.7.3-1.5.4-2.4,0-1.8-.7-2.7-2.9-1.8-5,.8-2.1,3-3.1,4.8-2.3.9.4,1.5,1,1.7,1.7l.3-.7,2.1.8Zm-3.5,2.6c.4-1,0-2-1-2.4-1-.4-1.9,0-2.3,1-.4,1,0,2,1,2.4,1,.4,1.9,0,2.3-1Z"/><path d="m71.2,23l-1.5,2.2c-.4.5,0,.9.9,1.4l-1.2,1.7c-2.6-1.4-2.8-2.7-1.6-4.4l1.5-2.2-1-.7,1.2-1.8,1,.7.8-1.2,2.2.7-1.2,1.7,1.3.9-1.2,1.8-1.3-.9Z"/><path d="m75.6,26.9l-1.9,1.9c-.5.5-.1.9.6,1.5l-1.4,1.5c-2.3-1.9-2.3-3.1-.8-4.6l1.9-1.9-.9-.8,1.5-1.5.9.8,1-1,2.1,1.1-1.5,1.5,1.1,1.1-1.5,1.5-1.1-1.1Z"/><path d="m77,34.4c.3.5.8.8,1.3.9v2.1c-1.1,0-2.2-.7-3-1.9-1.4-2.1-.8-4.4,1-5.6s4.2-.8,5.5,1.2c1.2,1.8.7,4.1-1.2,5.4-.3.2-.5.3-.8.4l-2.9-4.4c-.5.7-.3,1.4.1,2.1Zm3-.3c.6-.7.5-1.4.1-2-.5-.7-1.1-1-1.9-.7l1.8,2.7Z"/><path d="m86.4,40.6l-2.4.9c-.2-.9-1-2-2.4-1.5l-3.2,1.2-.8-2.1,7-2.7.8,2.1-1.2.5c1,0,1.9.7,2.2,1.6Z"/><path d="m88,49.8l-7.6-1.4c-2.5-.5-3.6-1.6-3.8-3.7l2.1-.3c.2,1,.6,1.5,1.5,1.7l6.6-4,.4,2.4-4.3,2.3,4.8.7.4,2.4Z"/></svg>