<?xml version="1.0" encoding="UTF-8"?><svg id="Layer_1" xmlns="http://www.w3.org/2000/svg" viewBox="0 0 100 100"><defs><style>.cls-1{fill:#535454;}.cls-2{fill:none;stroke:#0018c6;stroke-miterlimit:10;stroke-width:4px;}.cls-3{fill:#656565;}.cls-4{fill:#dcdcdc;}.cls-5{fill:#eee;}.cls-6{fill:#474847;}</style></defs><circle class="cls-2" cx="50" cy="50" r="45"/><g><path class="cls-5" d="M43.2,76.8h-8.3c0-.2-.2-.2-.4-.2-1-.3-1.6-1.2-1.6-2.2,0-10.8,0-21.7,0-32.5,0-.1,0-.3,0-.4,.6,.8,1.4,.8,1.9,.1,.5-.8,0-1.7-.9-1.7-.5,0-.8,.3-1,.7-.2-1.1,.2-2.3,1.2-2.8,.1,0,.4,0,.4-.3h8.9c-.1,.1-.3,.1-.5,.2-1,.5-1.4,1.4-1.4,2.5,0,9.4,0,18.7,0,28.1,0,1.9,0,3.9,0,5.8,0,1.2,.5,2,1.6,2.5,0,0,0,.1,0,.2Z"/><path class="cls-1" d="M45.4,37.5h22.5s0,0,0,0c1.4,.5,1.9,1.2,1.9,2.7v33.8c0,1.8-.9,2.7-2.7,2.7h-20.9c-.3,0-.6,0-.8,0,0-.1,0-.1-.2-.2-.8-.3-1.3-.9-1.4-1.8-.1-1.1,0-2.3,0-3.5,.1,.2,.3,.3,.5,.3,.7,0,1.4,0,2.1,0,0,0,.2,0,.3,0h20.2c.8,0,.9-.1,.9-.9v-27.1c0-.1,0-.3,0-.4,0-.4,0-.8,0-1.3,0-.7-.2-.9-.9-.9h-20.1c-.1,0-.3,0-.4,0-.6,0-1.3,0-1.9,0-.2,0-.5,0-.7,.2-.2-.4,0-.8,0-1.1,0-1,.5-1.8,1.4-2.3,0,0,.2,0,.2-.2Zm8.7,36.7c0,.9,.8,1.7,1.6,1.7,1,0,1.7-.8,1.7-1.7,0-.8-.8-1.7-1.7-1.7-1,0-1.7,.7-1.7,1.7h0Zm2.2-34.9c0-.3-.2-.5-.6-.5-.3,0-.6,.3-.6,.6s.3,.6,.6,.6c.4,0,.6-.2,.6-.6h0Z"/><path class="cls-4" d="M34.6,37.5c0,.2-.3,.2-.4,.3-1,.5-1.5,1.7-1.2,2.8-.1,.3,0,.6,0,.9-.1,.1,0,.3,0,.4,0,10.8,0,21.7,0,32.5,0,1,.7,1.9,1.6,2.2,.1,0,.3,0,.4,.2h-2.4c0-.2-.1-.2-.2-.2-.7-.2-1.2-.7-1.5-1.4,0,0,0-.2-.2-.2V39.2c0,0,.1,0,.2-.1,.3-.7,.7-1.1,1.4-1.4,0,0,.1,0,.1-.2h2.3Z"/><path class="cls-6" d="M45.4,37.5c0,.2-.1,.2-.2,.2-1,.4-1.4,1.2-1.4,2.3,0,.4-.1,.8,0,1.1-.2,.6-.1,1.3-.1,2,0,0,0,.1,0,.2,0,9.2,0,18.4,0,27.5,0,.2,0,.3,0,.5,0,1.2-.1,2.3,0,3.5,.1,.9,.6,1.4,1.4,1.8,0,0,.2,0,.2,.2-.7,0-1.5,.1-2.2-.1-1.1-.5-1.6-1.3-1.6-2.5,0-1.9,0-3.9,0-5.8,0-9.4,0-18.7,0-28.1,0-1.1,.4-2,1.4-2.5,.2,0,.4,0,.5-.2h1.9Z"/><path class="cls-1" d="M33,41.5c-.1-.3-.1-.6,0-.9,.2-.4,.5-.7,1-.7-.3,.9,.1,1.5,.9,1.6,0,0,0,0,0,0-.5,.7-1.3,.7-1.9-.1Z"/><path class="cls-3" d="M34.9,41.6s0,0,0,0c-.7-.1-1.1-.7-.9-1.6,.9,0,1.4,.9,.9,1.7Z"/><path class="cls-3" d="M54,74.2c0-1,.7-1.6,1.7-1.7,.9,0,1.7,.8,1.7,1.7,0,1-.8,1.7-1.7,1.7-.8,0-1.7-.8-1.7-1.7Zm2.1,0c0-.3-.2-.5-.5-.5-.3,0-.6,.3-.5,.5,0,.3,.2,.5,.5,.4,.3,0,.5-.2,.5-.5h0Z"/><path class="cls-3" d="M56.3,39.2c0,.4-.2,.6-.6,.6-.3,0-.6-.3-.6-.6s.3-.6,.6-.6c.4,0,.5,.2,.6,.5Z"/><path class="cls-1" d="M56.2,74.1c0,.3-.2,.5-.5,.5-.3,0-.5-.2-.5-.4,0-.3,.3-.6,.5-.5,.3,0,.5,.2,.5,.5Z"/></g><g><path d="M15.6,39l-.8,2.8,8.4,2.4-.7,2.5-8.4-2.4-.8,2.8-2.4-.7,2.3-8,2.4,.7Z"/><path d="M20.7,31.3l7,4-1.2,2.1-.7-.4c.3,.8,.2,1.6-.3,2.6-1,1.8-3.5,2.4-5.6,1.2-2.1-1.2-2.8-3.6-1.8-5.4,.5-.9,1.2-1.4,2-1.6l-.7-.4,1.2-2.1Zm2.3,4.1c-1-.6-2.1-.3-2.6,.7-.5,1-.3,2,.8,2.6,1,.6,2.1,.3,2.6-.7,.5-1,.3-2-.8-2.6Z"/><path d="M31.8,25.7c1.6,1.7,1.6,4.3,0,5.7-.8,.7-1.6,1-2.4,.9l.5,.5-1.8,1.6-7.6-8.2,1.8-1.6,2.7,2.9c0-.8,.3-1.6,1.1-2.3,1.5-1.4,4.1-1.3,5.7,.5Zm-1.8,1.6c-.8-.9-1.9-.9-2.7-.1-.8,.8-.9,1.8,0,2.7,.8,.9,1.9,.9,2.7,.1,.8-.8,.9-1.8,0-2.7Z"/><path d="M29.4,18.4l2.1-1.2,6,10-2.1,1.2-6-10Z"/><path d="M41.6,23.3c.6-.2,1.1-.6,1.2-1.1l2.2,.4c-.4,1.3-1.3,2.2-2.7,2.7-2.6,.9-4.8-.3-5.6-2.5-.8-2.2,.2-4.6,2.6-5.4,2.2-.8,4.4,.4,5.2,2.6,.1,.3,.2,.6,.2,.9l-5.4,1.9c.6,.7,1.4,.7,2.2,.4Zm.4-3.2c-.5-.8-1.3-.9-2-.6-.9,.3-1.3,.9-1.2,1.8l3.2-1.1Z"/><path d="M48.9,17.9l.3,2.8c0,.7,.7,.7,1.7,.5l.2,2.2c-3.1,.7-4.1-.2-4.3-2.4l-.3-2.8h-1.3c0,.1-.3-2.2-.3-2.2h1.3c0-.1-.2-1.7-.2-1.7l2.3-1,.2,2.2,1.6-.2,.3,2.3-1.6,.2Z"/><path d="M60.1,16.3l1.5,.3-.4,2.3-1.5-.3-1,5.6-2.4-.4,1-5.6-1.1-.2,.4-2.3,1.1,.2c.4-2.2,1.9-3.3,4.4-2.7l-.4,2.3c-.9-.2-1.5,0-1.7,.8Z"/><path d="M67.9,18.6l-.9,2.6c-.9-.5-2.3-.6-2.9,.9l-1.2,3.4-2.3-.8,2.8-7.5,2.3,.8-.5,1.3c.7-.9,1.9-1,2.8-.7Z"/><path d="M76.6,24.1l-4.4,6.7-2-1.3,.4-.6c-.8,.2-1.6,0-2.5-.5-1.7-1.2-2.2-3.6-.8-5.6s3.8-2.6,5.5-1.4c.9,.6,1.3,1.3,1.4,2.1l.4-.6,2,1.3Zm-4.2,2c.7-1,.4-2.1-.5-2.7-.9-.6-2-.4-2.7,.6s-.4,2.1,.5,2.7c.9,.6,2,.4,2.7-.6Z"/><path d="M84.1,38l-4,2.9-1.4-1.9,3.8-2.8c.6-.5,.8-1.1,.4-1.7-.5-.6-1.2-.7-2-.1l-3.6,2.7-1.4-1.9,3.8-2.8c.6-.5,.8-1.1,.4-1.7-.5-.6-1.2-.7-2-.1l-3.6,2.7-1.4-1.9,6.5-4.7,1.4,1.9-.6,.4c.7,0,1.4,.3,2,1.2,.6,.8,.7,1.6,.4,2.3,.8,0,1.6,.3,2.2,1.3,1.1,1.5,.7,3.2-.9,4.4Z"/><path d="M83.1,45.1c.2,.6,.6,1.1,1,1.3l-.5,2.2c-1.3-.4-2.1-1.4-2.6-2.9-.8-2.6,.5-4.8,2.8-5.4,2.3-.7,4.5,.5,5.2,2.9,.7,2.2-.6,4.4-2.9,5.1-.3,0-.6,.2-.9,.2l-1.6-5.5c-.7,.5-.8,1.3-.5,2.2Zm3.2,.6c.8-.5,.9-1.3,.7-2-.3-.9-.9-1.3-1.7-1.3l1,3.3Z"/></g></svg>