<?xml version="1.0" encoding="UTF-8"?><svg id="Layer_1" xmlns="http://www.w3.org/2000/svg" viewBox="0 0 100 100"><defs><style>.cls-1{fill:#deb6a3;}.cls-2{fill:none;stroke:#0018c6;stroke-miterlimit:10;stroke-width:4px;}.cls-3{fill:#b68c7b;}.cls-4{fill:#dfc7be;}.cls-5{fill:#c59a85;}</style></defs><circle class="cls-2" cx="50" cy="50" r="45"/><path class="cls-1" d="m41.7,84.7c-.4-.2-.8-.2-1.1-.3-3-.7-5.4-2.4-7.4-4.7-1.8-2-3.1-4.3-4.1-6.8,0,0,0-.2,0-.3.2,0,.4,0,.7,0,3.9,0,7.8,0,11.7,0,1.5,0,3,0,4.4-.5.7,1.4,1.4,2.8,2.3,4,.5.7,1,1.4,1.7,1.9,0,.4.4.5.6.7,1.7,1.6,3.7,2.6,6.1,2.6.9,0,1.5.7,1.6,1.6,0,.7-.4,1.2-.9,1.6h.5c0,0,0,0,0,.1h-15.9Z"/><path class="cls-5" d="m56.8,32.3c2.1,0,4,.7,5.7,1.8,2.6,1.6,4.5,3.8,6,6.4,2,3.3,3.2,6.9,3.9,10.7.6,3.3.7,6.6.6,9.9,0,1,0,2-.4,3-.3,0-.4.2-.6.4-.7.8-1.6,1.5-2.5,2-2,1-4,1.4-6.2,1.1-1.5-.2-2.8-.6-4.1-1.4-1.3-.8-2.4-1.9-3.2-3.2,0-.9.2-1.9.2-2.8,0-1.8,0-3.6-.2-5.5-.3-2.7-.8-5.3-1.7-7.9-1-2.9-2.4-5.6-4.6-7.8,0-.4.5-.5.7-.8,1.7-1.5,3.6-2.5,6-2.5.6,0,1.1-.3,1.4-.9.4-.7.3-2-1-2.5Zm7.8,23.2c-1.9-.1-3.6,1.6-3.6,3.6,0,2,1.6,3.6,3.6,3.6,2,0,3.6-1.5,3.6-3.6,0-2.1-1.7-3.7-3.6-3.6h0Z"/><path class="cls-3" d="m56,62.9c.9,1.3,1.9,2.4,3.2,3.2,1.3.8,2.6,1.2,4.1,1.4,2.2.3,4.3-.2,6.2-1.1,1-.5,1.8-1.2,2.5-2,.2-.2.3-.4.6-.4-.4,3.5-1.3,6.8-2.8,10-1.3,2.8-2.9,5.3-5.2,7.3-2,1.8-4.3,3-7,3.3h-.5c.5-.5.9-.9.9-1.7,0-.9-.7-1.6-1.6-1.6-2.4,0-4.4-1-6.1-2.6-.2-.2-.6-.3-.6-.7.2-.2.4-.4.6-.6,1.8-2.1,3.1-4.6,4-7.2.8-2.4,1.3-4.9,1.7-7.4Z"/><path class="cls-1" d="m45.9,44.6c-1.3-.5-2.7-.6-4.2-.5-4,0-8,0-12,0-.2,0-.4,0-.6,0,1-2.4,2.3-4.6,3.9-6.6,1.2-1.5,2.7-2.7,4.4-3.7,1.5-.8,3.1-1.4,4.8-1.4,4.8,0,9.7,0,14.5,0,1.4.5,1.4,1.8,1,2.5-.3.5-.8.8-1.4.9-2.3,0-4.3,1-6,2.5-.3.2-.7.3-.7.8-.4.2-.7.7-1,1-1.2,1.4-2,3-2.8,4.6Z"/><path class="cls-4" d="m64.6,55.5c1.9-.1,3.6,1.5,3.6,3.6,0,2.1-1.6,3.6-3.6,3.6-2,0-3.6-1.6-3.6-3.6,0-2,1.7-3.7,3.6-3.6Z"/><path d="m11.3,43l.9-2.4,7.6,1-6.1-4.6.7-1.8,7.6.8-6.2-4.4.9-2.4,8.8,6.6-1,2.6-6.4-.7,5.2,3.9-1,2.6-10.9-1.2Z"/><path d="m26.3,23.2l5.6,5.1-1.5,1.7-.5-.5c0,.8-.2,1.5-.8,2.3-1.3,1.5-3.7,1.5-5.4,0-1.7-1.5-1.9-3.9-.5-5.4.7-.8,1.4-1.1,2.2-1l-.5-.5,1.5-1.7Zm1.3,4.2c-.8-.8-1.9-.7-2.6,0-.7.8-.7,1.8.2,2.6s1.9.7,2.6,0c.7-.8.7-1.8-.2-2.6Z"/><path d="m32.2,21.7l1.5,2.2c.4.5.9.3,1.7-.3l1.1,1.7c-2.3,1.9-3.5,1.6-4.7-.1l-1.5-2.2-1,.7-1.2-1.8,1-.7-.8-1.2,1.5-1.8,1.2,1.8,1.3-.9,1.2,1.8-1.3.9Z"/><path d="m35.3,21.6c-.8-2.1.1-4.3,2.3-5.2,1.4-.5,2.9-.3,3.9.5l-1.4,1.8c-.4-.4-1.1-.5-1.7-.2-.9.4-1.3,1.3-.9,2.3s1.3,1.4,2.2,1c.6-.2,1-.7,1.1-1.3l2.3.3c-.2,1.3-1.1,2.5-2.5,3.1-2.1.8-4.4-.1-5.2-2.2Z"/><path d="m50.5,17l.5,4.6-2.3.2-.5-4.3c-.1-.9-.7-1.3-1.5-1.2-.8,0-1.3.6-1.2,1.7l.4,4.1-2.3.2-1.1-10.5,2.3-.2.4,3.7c.3-.6,1.1-1,2-1.2,1.5-.2,2.9.8,3.2,2.8Z"/><path d="m64.3,20.8c-.7,2.2-2.7,3.3-4.6,2.7-1-.3-1.6-.9-1.9-1.6l-.2.7-2.2-.7,3.2-10.1,2.2.7-1.1,3.6c.6-.4,1.5-.5,2.4-.2,1.9.6,2.9,2.7,2.3,4.9Zm-2.2-.7c.3-1.1-.2-2-1.2-2.3-1-.3-1.9.1-2.3,1.2-.3,1.1.2,2,1.2,2.3,1,.3,1.9-.1,2.3-1.2Z"/><path d="m74.3,22.9l-4.3,6.2-1.9-1.3.4-.6c-.7.2-1.5,0-2.4-.5-1.6-1.1-2-3.5-.7-5.3,1.3-1.9,3.6-2.4,5.2-1.2.8.6,1.2,1.3,1.3,2l.4-.6,1.9,1.3Zm-4,1.8c.6-.9.4-1.9-.4-2.5s-1.9-.4-2.5.5c-.6.9-.4,1.9.4,2.5.9.6,1.9.4,2.5-.5Z"/><path d="m78.8,32.5l-3.6,2.9-1.4-1.8,3.4-2.7c.7-.6.7-1.3.3-1.9-.5-.6-1.3-.8-2.1-.1l-3.2,2.6-1.4-1.8,5.9-4.7,1.4,1.8-.6.4c.7,0,1.4.3,2.1,1.1,1,1.2.9,2.9-.7,4.2Z"/><path d="m88.3,39.4l-9.8,4-.9-2.1.7-.3c-.7-.2-1.3-.8-1.7-1.7-.7-1.8.3-4,2.3-4.8,2.1-.8,4.3,0,5.1,1.9.4.9.3,1.8,0,2.4l3.5-1.4.9,2.1Zm-7.2.5c1.1-.4,1.4-1.4,1-2.4-.4-1-1.3-1.4-2.4-1-1,.4-1.4,1.4-1,2.4.4,1,1.3,1.4,2.4,1Z"/></svg>