<?xml version="1.0" encoding="UTF-8"?><svg id="Layer_1" xmlns="http://www.w3.org/2000/svg" viewBox="0 0 100 100"><defs><style>.cls-1{fill:none;stroke:#0018c6;stroke-miterlimit:10;stroke-width:4px;}.cls-2{fill:#f6f6f6;}.cls-3{fill:#e1e6f5;}.cls-4{fill:#e0e0e0;}.cls-5{fill:#6eaa50;}.cls-6{fill:#93c578;}.cls-7{fill:#cdcdcd;}</style></defs><circle class="cls-1" cx="50" cy="50" r="45"/><path class="cls-2" d="m64.6,37.7c3.8-.3,7.5,3.6,7.4,7.4-.2,3.9,0,7.8,0,11.7v8.8c0,4.1,0,8.2,0,12.3,0,.8-.1,1.7-.7,2.3-3.6,0-7.2,0-10.8,0-.9,0-1.9,0-2.8-.2-2.8-.4-5.5-1.1-8-2.3-3.3-1.5-6.3-3.5-8.8-6.2h6.3c.4,0,.7,0,1.1,0,3.5,0,7,0,10.6,0,2.8,0,2.9-.1,2.9-2.9,0-1,0-2,0-2.9h4.6q1.3,0,1.2-1.3c0,0,0-.1,0-.2,0-2.2,0-4.4,0-6.5,0-.6-.2-.8-.8-.8-1.2,0-2.4,0-3.6,0h-1.5c0-1.4,0-2.8,0-4.2,0-1.1-.5-1.7-1.7-1.7-1.4,0-2.8,0-4.2,0h-17.6c-.2,0-.4,0-.5,0-2.1,0-2.4.3-2.4,2.3,0,3.5,0,7,0,10.5,0,0-.1-.1-.2-.2-1.8-3.9-2.7-8.1-2.7-12.4,0-4.2,0-8.4,0-12.6.8-.8,1.9-.7,3-.7h2.9s26.3,0,26.3,0Z"/><path class="cls-3" d="m40.8,71.5c2.4,2.8,5.5,4.7,8.8,6.2,2.6,1.2,5.2,1.9,8,2.3.9.1,1.9.2,2.8.2,3.6,0,7.2,0,10.8,0-.8,2.3-2.7,3.5-4.9,4.2-.5.2-1.1.3-1.7.2h-26.4s-2.9,0-2.9,0c-4.1,0-7.3-3.3-7.3-7.4,0-.9,0-1.9,0-2.8v-26.3c0-1.5-.2-3,.2-4.5.6-2.3,1.8-4.2,4.2-5,0,4.2,0,8.4,0,12.6,0,4.3.9,8.5,2.7,12.4,0,0,.1.1.2.2,0,2,0,4,0,6,0,1.1.5,1.7,1.7,1.7,1.3,0,2.5,0,3.8,0Z"/><path class="cls-6" d="m38.3,51h17.6c-1,2.4-2,4.7-3,7.1-1.4,3.4-2.9,6.8-4.3,10.2l-.3.4c-.7-.4-1.4-.2-2.1-.2-4.6,0-7.8-3.2-7.8-7.8,0-3.3,0-6.5,0-9.8Z"/><path class="cls-4" d="m48.5,68.3c1.4-3.4,2.9-6.8,4.3-10.2,1-2.4,2-4.7,3-7.1,1.4,0,2.8,0,4.2,0,1.2,0,1.7.5,1.7,1.7,0,1.4,0,2.8,0,4.2v8.8c0,1,0,2,0,2.9-4.1,0-8.1,0-12.2,0-.3,0-.7.1-1-.2Z"/><path class="cls-5" d="m38.3,51c0,3.3,0,6.5,0,9.8,0,4.6,3.2,7.8,7.8,7.8.7,0,1.5-.2,2.1.2-.3.9-.7,1.8-1,2.7h-6.3c-1.3,0-2.5,0-3.8,0-1.1,0-1.7-.5-1.7-1.7,0-2,0-4,0-6,0-3.5,0-7,0-10.5,0-2,.3-2.4,2.4-2.3.2,0,.4,0,.5,0Z"/><path class="cls-7" d="m47.2,71.4c.3-.9.7-1.8,1-2.7.1-.1.2-.3.3-.4.3.3.7.2,1,.2,4.1,0,8.1,0,12.2,0,0,2.8,0,2.9-2.9,2.9s-7,0-10.6,0c-.4,0-.7,0-1.1,0Z"/><path class="cls-4" d="m63.2,56.8c1.2,0,2.4,0,3.6,0,.6,0,.8.2.8.8,0,2.2,0,4.4,0,6.5-2.5.2-4.7-2.2-4.4-4.5.1-.9,0-1.9,0-2.8Z"/><path class="cls-7" d="m63.2,56.8c0,.9,0,1.9,0,2.8-.3,2.3,1.9,4.7,4.4,4.5,0,0,0,.1,0,.2q0,1.3-1.2,1.3h-4.6v-8.8h1.5Z"/><path d="m9.5,47.9l.7-2.4,7.6.3-6.5-4,.5-1.9h7.6c0,0-6.6-3.7-6.6-3.7l.7-2.4,9.3,5.6-.7,2.6h-6.4s5.5,3.3,5.5,3.3l-.7,2.6h-10.9Z"/><path d="m22.2,26.9l6.1,4.4-1.3,1.8-.6-.4c.2.7,0,1.5-.6,2.4-1.1,1.6-3.5,1.9-5.3.6-1.8-1.3-2.3-3.6-1.1-5.2.6-.8,1.3-1.2,2-1.3l-.6-.4,1.3-1.8Zm1.7,4c-.9-.7-1.9-.5-2.5.4-.6.8-.5,1.9.5,2.5.9.7,1.9.5,2.5-.4.6-.8.5-1.9-.5-2.5Z"/><path d="m27.8,24.7l1.8,2c.4.5.9.2,1.6-.5l1.3,1.5c-2,2.2-3.2,2.1-4.6.5l-1.8-2-.9.8-1.4-1.6.9-.8-.9-1.1,1.2-2,1.4,1.6,1.2-1,1.4,1.6-1.2,1Z"/><path d="m30.7,24.2c-1.1-1.9-.5-4.3,1.5-5.4,1.3-.7,2.8-.7,3.9,0l-1.1,2c-.5-.3-1.1-.3-1.7,0-.8.5-1.1,1.5-.6,2.4s1.5,1.1,2.3.7c.6-.3.9-.9.8-1.5h2.3c0,1.3-.7,2.6-2,3.4-2,1.1-4.3.5-5.4-1.4Z"/><path d="m45,17.4l1.2,4.4-2.2.6-1.1-4.1c-.2-.9-.9-1.2-1.6-1-.8.2-1.2.8-.9,1.9l1.1,3.9-2.2.6-2.8-10.1,2.2-.6,1,3.6c.2-.6.9-1.2,1.8-1.5,1.5-.4,3,.3,3.5,2.2Z"/><path d="m59,18.6c-.3,2.2-2.1,3.7-4,3.5-1-.1-1.7-.5-2.1-1.2v.7c0,0-2.3-.3-2.3-.3l1.2-10.4,2.2.3-.4,3.7c.6-.5,1.3-.8,2.3-.7,2,.2,3.4,2.1,3.1,4.3Zm-2.2-.3c.1-1.1-.5-1.9-1.6-2-1-.1-1.9.5-2,1.6-.1,1.1.5,1.9,1.6,2,1,.1,1.9-.5,2-1.6Z"/><path d="m69.1,18.7l-2.9,6.9-2.1-.9.3-.6c-.7.3-1.5.4-2.4,0-1.8-.8-2.6-3-1.8-5s3-3,4.8-2.2c.9.4,1.5,1,1.7,1.7l.3-.6,2.1.9Zm-3.5,2.6c.4-1,0-2-.9-2.4s-1.9,0-2.4,1c-.4,1,0,2,.9,2.4s1.9,0,2.4-1Z"/><path d="m72.5,23.6l-1.6,2.1c-.4.5,0,.9.9,1.4l-1.2,1.6c-2.5-1.5-2.7-2.7-1.5-4.4l1.6-2.1-1-.7,1.3-1.7,1,.7.8-1.1,2.2.8-1.2,1.7,1.2.9-1.3,1.7-1.2-.9Z"/><path d="m76.8,27.6l-1.9,1.9c-.5.5-.1.9.6,1.6l-1.5,1.4c-2.3-1.9-2.2-3.1-.7-4.6l1.9-1.9-.8-.9,1.5-1.5.8.9,1-1,2.1,1.1-1.5,1.5,1.1,1.1-1.5,1.5-1.1-1.1Z"/><path d="m78.1,35.1c.3.5.8.8,1.3.9v2.1c-1.2,0-2.2-.7-3-1.9-1.4-2.2-.8-4.4,1.1-5.6,1.9-1.2,4.2-.7,5.5,1.3,1.2,1.9.6,4.1-1.3,5.3-.3.2-.5.3-.8.4l-2.8-4.5c-.5.7-.4,1.4,0,2.1Zm3-.3c.6-.7.5-1.4.2-2-.5-.7-1.1-1-1.9-.7l1.7,2.7Z"/><path d="m87.4,41.5l-2.4.9c-.2-.9-1-2-2.4-1.5l-3.2,1.2-.8-2.1,7.1-2.6.8,2.1-1.3.5c1,0,1.8.7,2.2,1.6Z"/><path d="m88.8,50.8l-7.6-1.5c-2.5-.5-3.6-1.7-3.8-3.8l2.1-.3c.1,1,.5,1.5,1.5,1.7l6.7-3.9.3,2.5-4.3,2.3,4.7.8.3,2.4Z"/></svg>