<?xml version="1.0" encoding="UTF-8"?><svg id="Layer_1" xmlns="http://www.w3.org/2000/svg" viewBox="0 0 100 100"><defs><style>.cls-1{fill:none;stroke:#0018c6;stroke-miterlimit:10;stroke-width:4px;}.cls-2{fill:#fcd303;}.cls-3{fill:#f7cf06;}.cls-4{fill:gray;}.cls-5{fill:#ddebf0;}.cls-6{fill:#f0f6f6;}</style></defs><circle class="cls-1" cx="50" cy="50" r="45"/><g><path class="cls-6" d="M57.3,37.5h4.3s1.6,0,1.6,0c.2,.4,.6,.3,.9,.4,2.6,.9,4.7,3.6,4.7,6.5,0,11.2,0,22.4,0,33.6,0,2.6-1.4,4.5-3.6,5.9-.7,.4-1.5,.5-2.2,.8h-1.4s-4.3,0-4.3,0c-4.1,0-8.1,0-12.2,0-2.6,0-5.2,0-7.8,0-1.4,0-2.9,0-4.3,0-3.4,0-6.4-2.4-7-5.8,0-.2,0-.5,0-.7,0-11.3,0-22.6,0-33.9,0-2.2,1-3.9,2.7-5.2,1.3-1.1,2.9-1.5,4.6-1.5,1.4,0,2.7,0,4.1,0h20Zm-7.9,41.5c4.1,0,8.2,0,12.2,0,.5,0,1,0,1.5-.1,2.6-.6,4.2-2.7,4.2-5.5,0-8.2,0-16.4,0-24.7,0-.5,0-1-.2-1.5-.6-2.5-2.7-4.1-5.4-4.1-8.2,0-16.4,0-24.6,0-3.5,0-5.8,2.2-5.8,5.7,0,8.1,0,16.3,0,24.4,0,3.4,2.5,5.8,5.8,5.8,4.1-.1,8.1,0,12.2,0Z"/><path class="cls-5" d="M63,84.7c.7-.3,1.5-.4,2.2-.8,2.2-1.4,3.5-3.2,3.6-5.9,0-11.2,0-22.4,0-33.6,0-2.8-2-5.6-4.7-6.5-.3-.1-.7,0-.9-.4,1.8,0,3.5-.1,5.3,.5,2.6,.9,4.5,3.6,4.5,6.3,0,4.2,0,8.5,0,12.7,0,2.7,0,5.4,0,8.1,0,4.3,0,8.5,0,12.8,0,3.2-2.5,6.1-5.6,6.6-1.5,.3-3,0-4.4,.1Z"/><path class="cls-3" d="M58,75.6c-1.1,0-2.1,0-3.2,0-.8,0-1.3-.4-1.3-1.1s.5-1.1,1.3-1.1c2.2,0,4.3,0,6.5,0,.8,0,1.3,.4,1.3,1.1s-.5,1.1-1.3,1.1c-1.1,0-2.2,0-3.3,0Z"/><path class="cls-2" d="M40.7,48.8c-1.1,0-2.2,0-3.2,0-.8,0-1.2-.4-1.2-1s.5-1,1.2-1c2.2,0,4.4,0,6.6,0,.8,0,1.2,.4,1.2,1.1,0,.6-.4,1-1.2,1-1.1,0-2.3,0-3.4,0Z"/><path class="cls-4" d="M67.2,47.3c-.6-2.5-2.7-4.1-5.4-4.1-8.2,0-16.4,0-24.6,0-3.5,0-5.8,2.2-5.8,5.7,0,8.1,0,16.3,0,24.4,0,3.4,2.5,5.8,5.8,5.8,4.1-.1,8.1,0,12.2,0,4.1,0,8.2,0,12.2,0,.5,0,1,0,1.5-.1,2.6-.6,4.2-2.7,4.2-5.5,0-8.2,0-16.4,0-24.7,0-.5,0-1-.2-1.5Zm-8.9,9.8h0c.4-.5,.4-1.1-.2-1.7-1.4-1.3-3-2.2-4.8-2.8,1.8,.6,3.4,1.5,4.8,2.8,.6,.6,.7,1.2,.2,1.7Zm-.3,.2s0,0-.1,0c0,0,0,0,.1,0Zm-10.1-5.2c-.4,0-.8,.1-1.3,.2-2.3,.5-4.2,1.6-5.9,3.3,0,0,0,0,0,.1,0,0,0,0,0-.1,1.7-1.6,3.6-2.7,5.9-3.3,.4-.1,.9-.2,1.3-.2Zm-4.8,4.2c0,0-.1,0-.2,.1,0,0,.1,0,.2-.1Zm-6.9-8.5c0-.6,.5-1,1.2-1,2.2,0,4.4,0,6.6,0,.8,0,1.2,.4,1.2,1.1,0,.6-.4,1-1.2,1-1.1,0-2.3,0-3.4,0h0c-1.1,0-2.2,0-3.2,0-.8,0-1.2-.4-1.2-1Zm7,11.7h0c0,0,0,.1,.1,.2,0,0,0-.1-.1-.2Zm.8,.7c-.2,0-.4-.1-.5-.2,.1,.1,.3,.2,.5,.2,.4,0,.8-.2,1.1-.5,1.1-1,2.5-1.6,4-1.7,1.8,0,3.3,.5,4.6,1.7,.6,.6,1.3,.6,1.7,0,.3-.4,.3-.9-.1-1.4,.4,.5,.5,.9,.1,1.4-.4,.6-1.1,.6-1.7,0-1.3-1.2-2.8-1.8-4.6-1.7-1.6,0-2.9,.6-4,1.7-.3,.3-.6,.5-1.1,.5Zm1.7,3.2c.4,.2,.8,0,1.2-.3,.8-.6,1.6-1,2.4-1-.8,0-1.6,.3-2.4,1-.4,.4-.8,.4-1.2,.3Zm3.6,5.9c-.1,0-.3,0-.4,0,.1,0,.3,0,.4,0,1.2,0,2-.9,2-2.1,0-1.1-.9-2-2-2,1.1,0,2,.9,2,2,0,1.2-.9,2.1-2,2.1Zm3.2-5.8c.3,0,.5-.1,.7-.3,.4-.5,.3-1.1-.2-1.7-1-.9-2.2-1.4-3.6-1.4h0c1.4,0,2.6,.5,3.6,1.4,.6,.5,.7,1.2,.2,1.7-.2,.2-.5,.4-.7,.3Zm8.7,12.2c-1.1,0-2.2,0-3.3,0h0c-1.1,0-2.1,0-3.2,0-.8,0-1.3-.4-1.3-1.1,0-.6,.5-1.1,1.3-1.1,2.2,0,4.3,0,6.5,0,.8,0,1.3,.4,1.3,1.1,0,.6-.5,1.1-1.3,1.1Z"/></g><g><path d="M8.9,49l.8-2.6,8.1,.3-6.9-4.3,.6-2h8.1c0,.1-7-3.9-7-3.9l.7-2.6,9.9,6.1-.8,2.8h-6.9c0,0,5.8,3.5,5.8,3.5l-.8,2.8-11.6-.2Z"/><path d="M22.8,26.8l6.4,4.8-1.4,1.9-.6-.5c.2,.8,0,1.6-.7,2.5-1.3,1.7-3.8,1.9-5.7,.5-1.9-1.4-2.3-3.9-1.1-5.6,.6-.9,1.4-1.3,2.2-1.3l-.6-.5,1.4-1.9Zm1.7,4.3c-1-.7-2-.5-2.7,.3-.7,.9-.5,2,.4,2.7,1,.7,2,.5,2.7-.3,.7-.9,.5-2-.4-2.7Z"/><path d="M28.9,24.6l1.8,2.2c.4,.5,.9,.2,1.7-.5l1.4,1.7c-2.2,2.2-3.5,2.1-4.9,.3l-1.8-2.2-1,.8-1.5-1.8,1-.8-1-1.2,1.4-2.1,1.4,1.7,1.3-1,1.5,1.8-1.3,1Z"/><path d="M32.1,24.2c-1.1-2.1-.3-4.6,1.9-5.7,1.4-.7,3-.6,4.2,.2l-1.3,2c-.5-.4-1.2-.4-1.8,0-.9,.5-1.3,1.5-.8,2.5,.5,1,1.5,1.3,2.5,.8,.6-.3,1-.9,1-1.5h2.4c0,1.5-.9,2.9-2.3,3.6-2.2,1.1-4.6,.3-5.7-1.8Z"/><path d="M47.7,17.8l1,4.8-2.4,.5-.9-4.5c-.2-1-.9-1.3-1.7-1.1-.9,.2-1.4,.8-1.1,1.9l.9,4.3-2.4,.5-2.3-11,2.4-.5,.8,3.9c.3-.7,1-1.2,2-1.4,1.6-.3,3.2,.5,3.6,2.6Z"/><path d="M63.6,13.3l-2.3,11-2.3-.5,.2-.7c-.6,.5-1.5,.7-2.5,.5-2.1-.4-3.4-2.6-2.9-4.9,.5-2.3,2.6-3.8,4.6-3.3,1,.2,1.7,.7,2.1,1.4l.8-3.9,2.3,.5Zm-3.8,6.5c.2-1.2-.4-2.1-1.5-2.3-1.1-.2-2,.3-2.3,1.5-.2,1.2,.4,2.1,1.5,2.3,1.1,.2,2-.3,2.3-1.5Z"/><path d="M65.6,17.6l2.2,1-3.3,7.3-2.2-1,3.3-7.3Zm.7-2.1c.3-.7,1.2-1,1.9-.7,.7,.3,1,1.2,.7,1.9-.3,.7-1.2,1-1.9,.7-.7-.3-1-1.2-.7-1.9Z"/><path d="M72.1,27.9c-1,1.5-2.8,1.3-4.2,.3-1.3-.9-2-2.1-1.8-3.5l2.4,.2c-.2,.6,0,1.1,.6,1.5,.5,.3,.8,.3,1,0,.5-.7-3-2.6-1.5-4.8,1-1.4,2.7-1.3,4.1-.4,1.1,.7,1.7,1.9,1.6,3.2l-2.3-.2c0-.5,0-.9-.5-1.2-.3-.2-.6-.2-.8,0-.5,.8,3.1,2.5,1.4,4.9Z"/><path d="M79.9,34.1c-1.8,1.6-4.3,1.5-5.7-.1-.7-.8-.9-1.6-.8-2.4l-3,2.6-1.6-1.8,8.5-7.3,1.6,1.8-.6,.5c.8,0,1.6,.4,2.3,1.2,1.4,1.6,1.1,4.1-.7,5.7Zm-1.6-1.8c.9-.8,1-1.9,.2-2.7-.7-.8-1.8-.9-2.7-.2-.9,.8-1,1.9-.2,2.7,.7,.8,1.8,.9,2.7,.2Z"/><path d="M87.3,31.9l1.2,2.1-10.2,5.6-1.2-2.1,10.2-5.6Z"/><path d="M88.9,46.2l-7.7,2.3-.7-2.3,.7-.2c-.7-.3-1.3-1-1.6-2-.6-2,.7-4.2,3-4.9,2.3-.7,4.5,.5,5.1,2.5,.3,1,.2,1.9-.3,2.6l.7-.2,.7,2.3Zm-4.5-1.2c1.2-.3,1.6-1.3,1.3-2.4-.3-1.1-1.3-1.6-2.4-1.3-1.2,.3-1.6,1.3-1.3,2.4,.3,1.1,1.3,1.6,2.4,1.3Z"/><path d="M89.4,57.1l-7.8-2.7c-2.5-.9-3.6-2.3-3.5-4.5h2.2c0,1.1,.4,1.6,1.3,2l7.6-3.2v2.6s-4.9,1.8-4.9,1.8l4.9,1.5v2.6Z"/></g></svg>