<?xml version="1.0" encoding="UTF-8"?><svg id="Layer_1" xmlns="http://www.w3.org/2000/svg" viewBox="0 0 100 100"><defs><style>.cls-1{fill:none;stroke:#0018c6;stroke-miterlimit:10;stroke-width:4px;}.cls-2{fill:#685e66;}.cls-3{fill:#5ecaed;}.cls-4{fill:#5d707d;}</style></defs><circle class="cls-1" cx="50" cy="50" r="45"/><g><path class="cls-4" d="M46.8,97.2c.3-.2,.6-.2,.9,0h-.9Z"/><path class="cls-4" d="M49.1,97.2c.2-.2,.4-.2,.6,0h-.6Z"/><path class="cls-2" d="M64.5,81.3H32.3c-1.9-.4-3.6-1.2-5-2.6-1.5-1.5-2.3-3.4-2.3-5.5,0-8.9,0-17.7,0-26.6,0-3.8,2.4-6.7,6.1-7.8,.4-.1,.7-.2,1.1-.3h32.2c3.9,.7,6.5,3.2,7.2,7.1,0,.2,0,.5,0,.7,0,3.4,0,6.7,0,10.1v6.9c0,3.2,0,6.5,0,9.7,0,3.7-2.9,7.3-6.2,7.9-.4,0-.7,.3-1,.3Zm-16.1-39h-12.2c-4,0-6.9,2.9-7,6.9,0,7.2,0,14.3,0,21.5,0,3.9,3,6.9,7,6.9,8.2,0,16.3,0,24.5,0,.6,0,1.2,0,1.8-.2,3.1-.8,5.2-3.5,5.2-6.8,0-7,0-13.9,0-20.9,0-4.4-2.9-7.3-7.3-7.3-4,0-8,0-12,0Z"/><path class="cls-3" d="M71.8,63.3v-6.9c.7,0,1.4,0,2,0,.7,0,1.1,.4,1.1,1.1,0,1.6,0,3.2,0,4.7,0,.7-.4,1.1-1.1,1.1-.7,0-1.4,0-2,0Z"/></g><g><path d="M9.5,48.2l.8-2.6,8.3,.6-7-4.6,.7-2,8.4,.4-7.1-4.4,.9-2.6,10,6.6-.9,2.9-7.1-.3,5.9,3.9-.9,2.9-12-.5Z"/><path d="M24.8,25.7l6.3,5.3-1.6,1.9-.6-.5c.1,.8,0,1.7-.8,2.5-1.4,1.7-4,1.8-5.9,.2-1.9-1.6-2.2-4.2-.8-5.8,.7-.8,1.5-1.2,2.3-1.2l-.6-.5,1.6-1.9Zm1.6,4.5c-.9-.8-2.1-.7-2.8,.2-.7,.9-.7,2,.3,2.8,.9,.8,2.1,.7,2.8-.2,.7-.9,.7-2-.3-2.8Z"/><path d="M31.3,23.8l1.7,2.4c.4,.6,.9,.3,1.8-.4l1.3,1.8c-2.4,2.1-3.8,1.9-5.1,0l-1.7-2.4-1.1,.8-1.4-1.9,1.1-.8-.9-1.3,1.6-2,1.3,1.9,1.4-1,1.4,1.9-1.4,1Z"/><path d="M34.6,23.6c-.9-2.3,0-4.7,2.4-5.7,1.5-.6,3.1-.4,4.2,.5l-1.5,2c-.5-.4-1.2-.5-1.8-.2-1,.4-1.4,1.4-1,2.5,.4,1.1,1.5,1.5,2.5,1.1,.7-.3,1.1-.8,1.1-1.5l2.5,.3c-.2,1.5-1.1,2.8-2.6,3.4-2.3,1-4.8,0-5.7-2.4Z"/><path d="M51.2,18.4l.5,5-2.5,.3-.5-4.7c-.1-1-.8-1.4-1.6-1.3-.9,0-1.5,.7-1.3,1.9l.5,4.5-2.5,.3-1.2-11.5,2.5-.3,.4,4c.4-.7,1.2-1.1,2.2-1.3,1.7-.2,3.2,.8,3.4,3.1Z"/><path d="M61.5,16.9l1.5,.4-.6,2.3-1.5-.4-1.5,5.7-2.4-.6,1.5-5.7-1.1-.3,.6-2.3,1.1,.3c.6-2.2,2.1-3.3,4.8-2.4l-.6,2.3c-.9-.3-1.5-.2-1.8,.7Z"/><path d="M69.3,19.9l-1.2,2.5c-.9-.6-2.3-.8-3,.7l-1.6,3.4-2.2-1,3.4-7.5,2.2,1-.6,1.3c.8-.9,2-.9,2.9-.4Z"/><path d="M77.9,26.4l-5.2,6.4-1.9-1.6,.5-.6c-.8,.1-1.7,0-2.5-.8-1.7-1.4-1.9-3.9-.3-5.9,1.5-1.9,4.1-2.3,5.8-.9,.9,.7,1.3,1.5,1.3,2.3l.5-.6,1.9,1.6Zm-4.5,1.7c.8-1,.6-2.1-.3-2.8-.9-.7-2-.6-2.8,.3-.8,1-.6,2.1,.3,2.8,.9,.7,2,.6,2.8-.3Z"/><path d="M84,41.5l-4.4,2.5-1.2-2.2,4.2-2.4c.7-.4,1-1,.6-1.7-.4-.7-1.1-.8-2-.4l-4,2.3-1.2-2.2,4.2-2.4c.7-.4,1-1,.6-1.7-.4-.7-1.1-.8-2-.4l-4,2.3-1.2-2.2,7.2-4.1,1.2,2.2-.7,.4c.7,0,1.4,.5,2,1.4,.5,.8,.5,1.7,.1,2.4,.8,0,1.5,.5,2.1,1.5,.9,1.6,.4,3.4-1.4,4.4Z"/><path d="M82.1,48.8c0,.7,.4,1.2,.9,1.5l-.8,2.1c-1.2-.6-2-1.8-2.2-3.3-.4-2.8,1.2-4.8,3.6-5.2,2.4-.4,4.6,1.1,4.9,3.7,.4,2.4-1.2,4.4-3.7,4.8-.3,0-.7,0-1,0l-.9-5.8c-.8,.4-1,1.2-.9,2.1Zm3.2,1.1c.9-.4,1.1-1.2,1-1.9-.1-.9-.7-1.5-1.6-1.6l.5,3.5Z"/></g></svg>