<?xml version="1.0" encoding="UTF-8"?><svg id="Layer_1" xmlns="http://www.w3.org/2000/svg" viewBox="0 0 400 400"><defs><style>.cls-1{fill:#009245;}.cls-2{stroke:#a5262d;}.cls-2,.cls-3,.cls-4{stroke-width:4px;}.cls-2,.cls-3,.cls-4,.cls-5{stroke-miterlimit:10;}.cls-2,.cls-3,.cls-4,.cls-5,.cls-6{fill:none;}.cls-7{fill:#57575e;}.cls-3{stroke:#0018c6;}.cls-8{fill:#d9d9ea;}.cls-9{fill:#eb917f;}.cls-10{fill:#48459c;}.cls-11{fill:#434348;}.cls-12{fill:#f3bd99;}.cls-4{stroke:#c000e2;}.cls-13{fill:#f15a24;}.cls-14{fill:#3392f5;}.cls-15{fill:#bacce9;}.cls-16{fill:#f4bd99;}.cls-17{fill:#c7c7c7;}.cls-18{fill:#bdbdbd;}.cls-19{fill:#ecf5fe;}.cls-5{stroke:#231f20;stroke-width:2px;}.cls-20{fill:#424248;}.cls-21{fill:#b9cce9;}.cls-22{fill:#97d6e5;}.cls-23{fill:#aaa;}.cls-24{fill:#484645;}.cls-25{fill:#3392f6;}.cls-26{fill:#9dd8e6;}.cls-27{fill:#33b1cb;}.cls-28{fill:#60acfd;}.cls-29{fill:#d7e1f2;}.cls-30{fill:#231f20;}.cls-31{fill:#33b1cc;}.cls-32{fill:#86cde8;}.cls-33{fill:#067fa6;}</style></defs><circle class="cls-2" cx="308.8" cy="59.7" r="45"/><path d="m279.5,44.5c-2.8-2.4-3.1-6.6-.7-9.4.1-.1.2-.3.4-.4,1.5-1.7,3.8-2.5,6.1-2.1l-.7,3c-1.2-.2-2.5.2-3.3,1.1-1.4,1.6-1.2,4.1.4,5.5,1.5,1.3,3.8,1.3,5.3-.1.9-.9,1.3-2.2.9-3.4l2.9-.9c.9,3.7-1.3,7.4-5,8.3-2.3.6-4.7,0-6.4-1.7h0Z"/><path d="m291,35.8c-1.2-2.5-.2-5.5,2.3-6.7,2.5-1.2,5.5-.2,6.7,2.3,1.2,2.5.2,5.5-2.3,6.7-2.5,1.2-5.5.2-6.7-2.3,0,0,0,0,0,0Zm6.5-3.1c-.6-1.1-1.9-1.4-2.9-.9s-1.4,1.9-.9,2.9c.5,1,1.8,1.4,2.8.9,1.1-.5,1.6-1.7,1.1-2.8,0,0,0-.1,0-.2Z"/><path d="m312.3,29.7c.4,2.6-1.4,5.1-4,5.5-1,.2-2.1-.1-2.9-.8l.5,4.7-2.8.3-1.5-13.2,2.8-.3v.9c.7-.9,1.7-1.4,2.8-1.5,2.6-.2,4.9,1.8,5.1,4.4,0,0,0,0,0,0h0Zm-2.8.3c0-1.2-1.2-2.2-2.4-2.1,0,0,0,0,0,0-1.2,0-2.1,1.1-2,2.3,0,0,0,.2,0,.3,0,1.2,1.2,2.2,2.4,2.1,0,0,0,0,0,0,1.2,0,2.1-1.1,2-2.3,0-.1,0-.2,0-.3h0Z"/><path d="m324.5,32.4c-.5,2.6-3,4.3-5.6,3.8-1-.2-1.9-.9-2.5-1.8l-1.1,4.6-2.8-.7,3.2-12.9,2.8.7-.2.9c.9-.5,2-.7,3-.4,2.5.8,4,3.4,3.2,6,0,0,0,0,0,0v-.2Zm-2.8-.7c.3-1.2-.5-2.4-1.7-2.7-1.2-.3-2.4.5-2.7,1.7-.3,1.2.5,2.4,1.6,2.7,1.2.4,2.4-.3,2.8-1.5,0,0,0-.2,0-.2h0Z"/><path d="m329.1,38.1c.6.4,1.2.5,1.9.4l1.2,2.4c-1.5.6-3.2.3-4.5-.7-2.7-1.8-3.2-4.7-1.6-7.1,1.2-2.5,4.1-3.6,6.6-2.4,2.5,1.2,3.6,4.1,2.4,6.6-.2.4-.5.8-.8,1.2-.2.3-.5.6-.7.9l-5.6-3.7c-.2,1,.3,1.9,1.2,2.4h-.2Zm3.4-1.9c.4-.9,0-2-.9-2.4-.8-.6-1.9-.6-2.6,0l3.4,2.3h.1Z"/><path d="m343.1,41.3l-2.4,2.1c-.6-1-2.1-2-3.5-.7l-3.2,2.8-1.9-2.1,7.2-6.2,1.9,2.1-1.3,1.1c1.2-.4,2.5,0,3.3.9h-.1Z"/><rect class="cls-13" x="282.8" y="51.7" width="52" height="37" rx="2.9" ry="2.9"/><path class="cls-24" d="m300.1,82.5c-3.3.1-6.5-1.2-8.8-3.5-4.7-4.9-4.7-12.7,0-17.6,2.3-2.4,5.5-3.6,8.8-3.5,3.5,0,4.1.5,5.9,1.5,1.8,1,3.3,2.4,4.3,4.1l-5.2,3c-.5-.8-1.2-1.5-2-2-.9-.5-2-.7-3-.7-1.7,0-3.4.6-4.6,1.8-1.2,1.2-1.8,2.9-1.7,4.6-.2,3.3,2.3,6.2,5.6,6.4.2,0,.5,0,.7,0,1.1.1,2.1-.1,3-.7.9-.5,1.5-1.1,2-2l5.2,3c-1,1.7-2.5,3.1-4.3,4.1-1.8,1-3.9,1.5-6,1.5h.1Z"/><path class="cls-24" d="m323.4,65.1h5.6v16.9h-5.6v-1.7c-1.1,1.5-2.9,2.3-4.7,2.2-1.7.1-3.4-.6-4.5-1.9-1.2-1.2-1.7-3-1.7-5.4v-10.1h5.6v9.4c0,.7.2,1.5.7,2,.5.5,1.1.7,1.8.7.7,0,1.5-.3,2-.8.5-.6.8-1.5.7-2.3v-9h.1Z"/><line class="cls-6" x1="198.2" y1="113.7" x2="198.7" y2="146.4"/><line class="cls-5" x1="198.2" y1="113.7" x2="198.5" y2="135.7"/><polygon class="cls-30" points="191 133.6 198.7 146.4 206 133.4 191 133.6"/><line class="cls-6" x1="117.1" y1="109.4" x2="165.7" y2="148.7"/><line class="cls-5" x1="117.1" y1="109.4" x2="157.4" y2="141.9"/><polygon class="cls-30" points="151 146.4 165.7 148.7 160.4 134.8 151 146.4"/><line class="cls-6" x1="279.7" y1="109.4" x2="231.1" y2="148.7"/><line class="cls-5" x1="279.7" y1="109.4" x2="239.5" y2="141.9"/><polygon class="cls-30" points="236.5 134.8 231.1 148.7 245.9 146.4 236.5 134.8"/><circle class="cls-2" cx="91.2" cy="59.7" r="45"/><path class="cls-32" d="m61.2,62v-.6c.3-.5.8-.8,1.4-.8,1.4-.1,2.5-1.3,2.5-2.7v-.5c0-.4.5-.8.9-.7,0,0,0,0,0,0,.5,0,.9.3.9.8,0,.3,0,.5,0,.8.2,1.1,1.1,2,2.2,2.2.7.2.7,0,.7-.6v-13.5c0-.4.2-.7.6-.8,0,0,.1,0,.2,0h30.6c0,.3-.3.4-.5.6l-7.2,7.2c-.2.2-.4.4-.5.6-.2.4-.1.9.2,1.2.3.3.8.4,1.2,0,.2-.1.4-.3.5-.5l8.3-8.3c.3-.3.5-.6.6-1h3.4c0,.3-.3.4-.5.6l-13.3,13.3-.5.5c-.3.3-.3.7,0,1,.2.3.5.5.9.5.3,0,.6-.2.9-.4l14.6-14.6c.3-.2.5-.5.5-.9h1.1c1,0,.9,0,.9.9v28.3q0,.8.8.6c1.3-.4,2.2-1.5,2.2-2.8,0-.5.3-.9.8-1,0,0,.1,0,.2,0,.6,0,.9.4,1,1,0,1.5,1.3,2.8,2.8,2.9.5,0,1,.3,1.2.8v.6c-.2.4-.6.7-1.1.7-1.6,0-2.8,1.3-2.8,2.9,0,.3-.2.7-.4.9-.2.2-.6.3-.9,0-.4-.1-.6-.5-.6-.9-.2-1.6-.9-2.6-2.3-2.9-.7-.2-.7,0-.7.6v12.6c0,.5-.2.8-.7.8h-21.6c0-.3.3-.4.5-.6l7.5-7.5c.5-.6.6-1.1,0-1.5-.4-.4-1-.4-1.4,0h0c0,0-8.7,8.8-8.7,8.8-.2.2-.4.6-.5.9h-3.4c0-.3.3-.4.5-.6l13.3-13.3c.2-.2.4-.4.5-.6.2-.4.2-.9-.2-1.2-.3-.3-.8-.3-1.2,0,0,0,0,0,0,0,0,0-.2.2-.3.3l-14.6,14.6c-.3.2-.4.6-.5.9h-10.2c-.4,0-.8-.2-.9-.7,0,0,0-.1,0-.2v-27.5c0-.7,0-.8-.7-.6-1.3.4-2.2,1.5-2.3,2.9,0,.5-.4,1-.9,1,0,0,0,0-.1,0-.6,0-1-.4-1-1v-.3c-.1-1.4-1.3-2.5-2.7-2.6-.5,0-1-.3-1.3-.7h-.2Zm5,.6c.4-.2.7-.5.9-.9-.3-.4-.6-.7-.9-1-.3.2-.7.6-.9.9.2.3.6.7.9.9h0Zm50.9,14.2c-.2-.4-.5-.7-.9-.9-.3.2-.7.6-.9.9l.9.9.9-.9Z"/><path class="cls-31" d="m107.6,45.8c.3-.1.5-.3.7-.6.8-.8,1.6-.6,1.9.5,0,.4-.2.7-.5.9l-14.6,14.6c-.2.3-.6.4-.9.4-.4,0-.7-.2-.9-.5-.2-.3-.2-.7,0-1,.1-.2.3-.4.5-.5l13.3-13.3c.2-.2.4-.3.5-.6h0Z"/><path class="cls-27" d="m83.8,91.6c-.3,0-.5.4-.8.6-.8.7-1.6.5-1.8-.6,0-.4.2-.7.5-.9l14.6-14.6.3-.3c.4-.3.8-.3,1.2,0,.4.3.4.8.2,1.2-.1.2-.3.4-.5.6l-13.3,13.3c-.2.2-.4.3-.5.6h.1Z"/><path class="cls-31" d="m101.5,45.8c.2,0,.4-.2.6-.4,1-1,1.6-.8,2.1.4,0,.4-.3.7-.6,1l-8.3,8.3-.5.5c-.4.3-.9.2-1.2,0-.4-.3-.5-.8-.2-1.1,0,0,0,0,0,0,.1-.2.3-.4.5-.6l7.2-7.2c.2-.2.4-.3.5-.6h0Z"/><path class="cls-31" d="m89.8,91.7c-.3.1-.5.3-.7.6-.8.8-1.6.5-1.9-.5,0-.3.2-.6.5-.8l8.7-8.7c.2-.4.8-.6,1.2-.3,0,0,.1,0,.2.1h0c.4.5.4,1.1,0,1.5,0,0,0,0,0,0l-7.5,7.5c-.2.2-.4.3-.4.6h0Z"/><path d="m79.5,29.5c2,2.8,1.4,6.7-1.4,8.8-.2.1-.3.2-.5.3-3,2.4-7.4,1.9-9.8-1.1-2.4-3-1.9-7.4,1.1-9.8.3-.3.7-.5,1-.7,1.9-1.3,4.4-1.6,6.6-.6l-1.4,2.7c-1.2-.5-2.6-.3-3.6.5-1.8,1.1-2.4,3.4-1.3,5.2,0,0,.1.2.2.3,1.2,1.9,3.5,2.4,5.7,1,1.3-.7,2-2.2,1.7-3.6l-3,1.9-1.5-2.2,5.6-3.7.6,1Z"/><path d="m80.4,21.8l2.8-.7,3.5,13.5-2.8.7-3.5-13.5Z"/><path d="m97.9,24.6l-.2,9.6h-2.9v-1c-.8.8-1.8,1.2-2.9,1.1-2.5,0-4.5-2.3-4.5-5.1,0-2.6,2-4.8,4.6-4.9,0,0,0,0,.1,0,1.1,0,2.1.4,2.8,1.2v-.9h3Zm-3,4.7c.1-1.2-.8-2.3-2-2.4,0,0-.1,0-.2,0-1.2,0-2.2.8-2.3,2,0,.1,0,.2,0,.3-.1,1.2.8,2.3,2,2.4,0,0,.1,0,.2,0,1.2,0,2.2-.8,2.3-2,0-.1,0-.2,0-.3Z"/><path d="m106.6,34.5c-.8,2.1-2.9,2.3-4.8,1.6-1.7-.5-2.9-1.9-3.1-3.6l2.8-.5c0,.7.4,1.4,1.1,1.6.6.2,1,.2,1.2-.2.4-1-4.2-2.1-3.1-5.2.7-2,2.7-2.3,4.6-1.6,1.5.5,2.5,1.7,2.8,3.2l-2.8.4c0-.6-.4-1.1-.9-1.2-.5-.2-.8,0-.9.2-.4,1,4.3,2,3.1,5.3Z"/><path d="m113.3,39.3c-1.3,1.8-3.4,1.4-5.1.2-1.5-.9-2.2-2.6-2-4.3l2.8.3c-.2.7,0,1.5.7,1.9.6.4,1,.4,1.2,0,.6-.9-3.5-3.2-1.6-5.8,1.2-1.7,3.3-1.5,4.9-.3,1.3.8,2,2.3,1.8,3.8l-2.8-.4c0-.6,0-1.1-.5-1.4s-.8-.3-1,0c-.6.9,3.6,3.1,1.5,5.9h0Z"/><circle class="cls-2" cx="200" cy="59.7" r="45"/><path d="m180.4,30.5c1.6,2,1.2,4.9-.8,6.5l-1.6,1.2,2.6,3.3-2.4,1.9-8.3-10.4,3.9-3.1c2-1.6,4.9-1.3,6.5.7,0,0,0,0,0,0h.1Zm-2.4,1.9c-.5-.7-1.4-.9-2.1-.4,0,0-.1,0-.2.1l-1.6,1.2,2.1,2.7,1.6-1.2c.7-.6.8-1.6.2-2.3,0,0,0,0,0,0h0Z"/><path d="m180.8,24.8l2.6-1.2,5.8,12.6-2.6,1.2-5.8-12.6Z"/><path d="m198.2,24.3l1.7,9.4-2.8.5-.2-.9c-.6.9-1.5,1.5-2.6,1.6-2.6.4-5-1.5-5.4-4.1,0,0,0,0,0,0-.6-2.5.9-5,3.4-5.7,0,0,.1,0,.2,0,1-.2,2.1,0,3,.6l-.2-.9,2.8-.5h0Zm-2,5.2c-.1-1.2-1.2-2.1-2.4-1.9,0,0-.1,0-.2,0-1.2.1-2,1.2-1.9,2.4,0,.1,0,.2,0,.3.1,1.2,1.2,2.1,2.4,1.9,0,0,.1,0,.2,0,1.2-.1,2-1.2,1.9-2.4,0-.1,0-.2,0-.3Z"/><path d="m208.7,32c-.3,2.2-2.3,2.9-4.3,2.6-1.7,0-3.2-1.2-3.8-2.8l2.6-1.1c.1.7.8,1.3,1.5,1.3.7,0,1,0,1.1-.5.1-1-4.6-1.1-4.2-4.3.3-2.1,2.1-2.9,4.1-2.6,1.5.1,2.8,1.1,3.4,2.5l-2.6,1c-.2-.5-.6-.9-1.2-1-.5,0-.8,0-.9.4-.1,1.1,4.6,1,4.1,4.4h.2Z"/><path d="m214.4,30l-1.2,3.1c-.3.8.3,1.1,1.5,1.5l-.9,2.4c-3.6-1-4.2-2.4-3.3-4.9l1.2-3.2-1.4-.5,1-2.6,1.4.5.6-1.7,3,.2-.9,2.5,1.8.7-1,2.6-1.8-.7h0Z"/><path d="m219.7,29.4l2.4,1.5-4.9,8.2-2.4-1.5,4.9-8.2Zm1.1-2.3c.5-.8,1.5-1.1,2.3-.6.8.5,1.1,1.5.6,2.3-.5.8-1.5,1.1-2.3.6-.8-.4-1.1-1.5-.7-2.3,0,0,0,0,0,0h0Z"/><path d="m221.4,35.9c1.8-2,4.9-2.2,6.9-.4,0,0,.2.1.2.2,1.3,1.2,1.8,3,1.4,4.7l-2.8-.7c.2-.7,0-1.5-.6-2-.9-.8-2.3-.7-3.1.2-.8.9-.7,2.2,0,3,.5.6,1.4.8,2.1.5l.8,2.7c-1.7.5-3.5,0-4.8-1.2-2-1.9-2.1-5.1-.2-7.1,0,0,0,0,0,0h.1Z"/><path class="cls-29" d="m223.4,56h0c0,0-1.6,0-1.6,0q-.7,0-.7.7v30.3c0,.4-.1.9-.4,1.2-.2.2-.5.2-.7.4h-10.6c0,0,0-.2,0-.3l-1.2-5.4c-.7-3.1-1.4-6.2-2.1-9.3-1.1-4.6-2.1-9.1-3.2-13.7-.9-4-1.8-8-2.8-11.9h15c.2,0,.5,0,.6.2v6.2c0,.7.6,1.4,1.3,1.4h3.8c.3,0,.4,0,.4-.4v-1.8c.1,0,.2,0,.2.2l2,2Z"/><path class="cls-21" d="m223.4,87.6c-.4.8-1.3,1.3-2.1,1.1-.4,0-.8,0-1.2,0,.2-.2.5-.2.7-.4.3-.3.4-.8.4-1.2v-30.4q0-.7.7-.7h1.6v31.6Z"/><path class="cls-18" d="m179.7,48.1v-.9c-.2-.9.3-1.7,1.1-2.1h2c0,0,0,.1.1.2.6.4.9,1.1.8,1.8,0,.4,0,.8,0,1.1h-4Z"/><path class="cls-23" d="m183.7,48.2v-1.1c.1-.7-.2-1.4-.8-1.8,0,0,0-.1-.1-.2h2c.9.4,1.4,1.4,1.2,2.3v.8h-2.3Z"/><path class="cls-19" d="m209.3,88.7h-6.2c0,0,0-.1,0-.2l-1.8-8-3.2-13.7c-1.1-4.6-2.1-9.2-3.2-13.9-.4-1.6-.7-3.2-1.1-4.8h6.2c.9,4,1.8,8,2.7,11.9,1.1,4.5,2.1,9.1,3.2,13.6.7,3.1,1.4,6.2,2.1,9.3.4,1.8.8,3.6,1.2,5.4,0,.1,0,.2,0,.3Z"/><path class="cls-19" d="m215.6,48.4c.1,0,.3.1.3.2l5,5c0,0,.1.1.1.2v1.8c0,.3-.1.4-.4.4h-3.8c-.7,0-1.3-.6-1.3-1.4v-6.2Z"/><path class="cls-29" d="m193.8,48.2c.4,1.6.7,3.2,1.1,4.8,1.1,4.6,2.1,9.2,3.2,13.9l3.2,13.7,1.8,8c0,0,0,.1,0,.2h-14.1v-3c0-.5-.3-.8-.7-.8s-.8.3-.8.8v3h-9.2c-.9,0-1.7-.7-1.7-1.7,0,0,0,0,0,0v-37.1c0-.9.7-1.7,1.7-1.7,0,0,0,0,0,0h9.2v3c0,.4.2.8.6.8,0,0,0,0,0,0,.5,0,.8-.3.8-.8v-3h4.7Zm-4.7,20.3v-1.5c0-.4-.3-.7-.7-.7s-.7.3-.7.7v3c0,.4.3.7.7.7s.7-.3.7-.7c0-.5,0-1,0-1.5Zm-1.5,6.1v1.6c0,.4.3.7.7.7s.7-.3.7-.7v-3.1c0-.4-.4-.7-.8-.8-.4,0-.7.3-.7.7,0,0,0,0,0,0v1.5h0Zm0-12.4v1.5c0,.4.3.8.7.8,0,0,0,0,0,0,.4,0,.7-.4.8-.8v-2.9c0-.6-.3-.8-.7-.8s-.7.3-.7.8,0,1,0,1.5Zm0-6.3v1.5c0,.4.2.7.6.8,0,0,0,0,.1,0,.4,0,.7-.3.7-.7,0,0,0,0,0-.1v-2.9c0-.4-.2-.7-.6-.8,0,0,0,0-.1,0-.4,0-.7.3-.7.8s0,.9,0,1.4h0Zm1.5,25v-1.5c0-.5-.3-.8-.7-.8-.4,0-.7.3-.7.7,0,0,0,0,0,.1v2.9c0,.4.2.7.6.8,0,0,0,0,.1,0,.5,0,.7-.3.7-.8,0-.5,0-.9,0-1.4h0Z"/><path class="cls-21" d="m189,48.2v3c0,.5-.3.8-.8.8s-.7-.3-.7-.8v-3h1.5Z"/><path class="cls-18" d="m179.8,88.7h3.9v1.2c0,.8-.4,1.6-1.2,1.9h-1.2c-.8,0-1.6-.6-1.6-1.5,0,0,0,0,0-.1v-1.4h0Z"/><path class="cls-23" d="m182.6,91.8c.8-.3,1.3-1.1,1.2-1.9v-1.2h2.2c0,.6,0,1.2,0,1.8-.1.8-.8,1.3-1.6,1.3h-1.8Z"/><path class="cls-21" d="m187.6,88.7v-3c0-.5.3-.8.8-.8.4,0,.7.3.7.7,0,0,0,0,0,0v3h-1.5Z"/><path class="cls-17" d="m179.8,48.2h0s0,0,0,0h0Z"/><path class="cls-17" d="m179.8,88.7h0c0,0,0,0,0,0h0Z"/><path class="cls-15" d="m189,68.5v1.5c0,.4-.3.7-.7.7s-.7-.3-.7-.7v-3c0-.4.3-.7.7-.7s.7.3.7.7c0,.5,0,1,0,1.5Z"/><path class="cls-21" d="m187.6,74.6v-1.5c0-.4.2-.7.6-.7,0,0,0,0,0,0,.4,0,.7.4.8.8v3.1c0,.4-.2.7-.6.7,0,0,0,0-.1,0-.4,0-.7-.3-.7-.7,0,0,0,0,0-.1,0-.5,0-1,0-1.5Z"/><path class="cls-21" d="m187.6,62.2v-1.5c0-.5.3-.8.7-.8s.7.3.7.8v2.9c0,.4-.3.8-.7.8-.4,0-.7-.4-.7-.8,0,0,0,0,0,0,0-.5,0-1,0-1.5Z"/><path class="cls-21" d="m187.6,56v-1.4c0-.5.3-.8.7-.8.4,0,.7.3.7.6,0,0,0,0,0,.1v2.9c0,.4-.3.7-.7.7s-.7-.3-.7-.7c0-.5,0-1,0-1.5Z"/><path class="cls-21" d="m189,81v1.4c0,.5-.3.8-.7.8-.4,0-.7-.3-.7-.6,0,0,0,0,0-.1v-2.9c0-.4.2-.7.6-.8,0,0,0,0,.1,0,.4,0,.7.3.7.8v1.4Z"/><circle class="cls-3" cx="199.7" cy="196.8" r="45"/><path d="m170.4,179.1c-2.6-2.5-2.7-6.5-.2-9.1,0,0,.1-.1.2-.2,1.5-1.6,3.8-2.3,5.9-1.8l-.7,2.8c-1.2-.3-2.4,0-3.2,1-1.4,1.3-1.6,3.5-.3,4.9,0,0,.2.2.3.3,1.2,1.4,3.4,1.6,4.8.4.1-.1.3-.2.4-.4.9-.8,1.3-2,.9-3.2l2.8-.8c.5,2.1-.1,4.4-1.7,5.9-2.4,2.6-6.4,2.7-9,.3-.1-.1-.2-.2-.3-.3v.2Z"/><path d="m188.4,162.9l3.8,8.2-2.5,1.1-.4-.8c-.3,1-1.1,1.7-2,2.1-2.3,1-4.9,0-5.8-2.4,0,0,0,0,0-.1-1.1-2.2-.3-4.9,1.9-6.1.9-.5,2-.5,2.9-.1l-.4-.8,2.5-1.1h0Zm-.6,5.2c-.4-1.1-1.7-1.6-2.8-1.2,0,0,0,0-.1,0-1,.4-1.5,1.6-1.1,2.7,0,0,0,.1.1.2.5,1.1,1.7,1.6,2.8,1.1,0,0,0,0,0,0,1-.4,1.5-1.6,1.1-2.7,0,0,0-.1,0-.2h0Z"/><path d="m206.3,164.5l.2,5.5h-2.7l-.2-5.2c0-.9-.5-1.5-1.3-1.4s-1.4.7-1.3,1.7l.2,5.1h-2.7l-.2-5.2c0-.9-.5-1.5-1.3-1.4s-1.4.7-1.3,1.7l.2,5.1h-2.7l-.3-8.9h2.7v.7c.6-.7,1.5-1.2,2.4-1.2.9,0,1.8.4,2.4,1.1.6-.8,1.6-1.3,2.6-1.3,1.8-.1,3.4,1.3,3.5,3.1,0,.2,0,.3,0,.5h-.2Z"/><path d="m212.2,170.2c.6.3,1.3.3,1.9,0l1.6,1.9c-1.3.8-2.9,1-4.3.4-2.9-1.1-4-3.7-3-6.2.8-2.4,3.4-3.7,5.8-2.9.1,0,.2,0,.3.1,2.3.8,3.5,3.3,2.7,5.6,0,.1,0,.2-.1.4-.1.4-.3.7-.5,1l-6-2.2c0,.9.7,1.7,1.6,1.9Zm2.7-2.5c0-.9-.5-1.7-1.3-2-.8-.4-1.8-.1-2.3.7l3.6,1.3Z"/><path d="m225.7,169.9l-1.7,2.5c-.8-.9-2.1-1-3.1-.3-.1.1-.2.2-.3.4l-2.3,3.3-2.2-1.5,5.1-7.4,2.2,1.5-.9,1.3c1-.7,2.2-.7,3.2,0v.2Z"/><path d="m233.7,178.7l-6.9,5.8-1.7-2.1.6-.5c-1,0-2-.5-2.6-1.3-1.5-2-1.1-4.8.8-6.4,1.8-1.7,4.7-1.6,6.4.2.7.8,1,1.8.9,2.8l.6-.5,1.7,2.1h.2Zm-5.2.9c.9-.7,1.1-2.1.4-3,0,0,0,0,0-.1-.7-.9-2.1-1-3-.3,0,0,0,0-.1.1-.9.7-1.1,2.1-.4,3,0,0,0,0,0,.1.7.9,2.1,1,3,.3,0,0,0,0,.1-.1h0Z"/><path class="cls-8" d="m228.7,206.9v.2c-.3,0-.2.3-.2.4,0,.5,0,1-.1,1.5-.5,3.4-1.5,6.7-3.2,9.7-1.4,2.6-3.3,5-5.4,7.1-2.3,2.2-4.9,4-7.8,5.3-2.4,1.1-5,1.9-7.6,2.3l-2.4.3h-3.8c-.7-.1-1.3-.2-2-.2-6.9-.9-13.2-4.3-17.8-9.6-3.7-4.3-6.1-9.6-6.7-15.3,0-.5,0-1.1-.2-1.6v-3.6c0-.1.1-.3.1-.5,0-.8.1-1.6.3-2.4.5-3.2,1.6-6.2,3.1-9,1.4-2.6,3.2-5,5.4-7,6.1-5.9,14.6-8.7,23-7.7,3.2.4,6.3,1.3,9.2,2.7,6.3,3.1,11.2,8.4,13.9,14.9,1,2.4,1.6,4.9,1.9,7.4.2,1.5.2,3,.2,4.5,0,.2,0,.4.1.6h0Zm-23.8,22.9c1.1-.2,2.2-.4,3.3-.8,11.9-4.1,19-16.4,16.5-28.8-1.9-8.9-7.3-15.1-15.7-18.5-1.3-.6-2.6-.9-4-1.1-.2,0-.5-.1-.7-.2-2.1-.3-4.2-.4-6.3-.2-3.9.2-7.7,1.5-11,3.6-8.9,5.8-12.9,14-11.8,24.6.7,6.9,4.4,13.2,10.1,17.1,4.7,3.4,10.4,5.1,16.2,4.8,1.2,0,2.3-.1,3.4-.5h0Z"/><path class="cls-7" d="m204.9,229.8c-1.1.3-2.2.5-3.4.5-5.8.4-11.6-1.3-16.2-4.8-5.8-4.3-9.4-10-10.1-17.1-1.2-10.6,2.9-18.8,11.8-24.6,3.3-2.1,7.1-3.4,11-3.6,2.1-.2,4.2-.1,6.3.2.3,0,.5,0,.7.2.2.1.3.2.5.3,4.3,1.3,8,3.9,10.7,7.5,1.3,1.7,2.4,3.5,3.2,5.4,1.4,3.2,2.2,6.7,2.4,10.2,0,1.8,0,3.7-.3,5.5-.4,2.8-1.2,5.6-2.5,8.1-1.4,2.8-3.2,5.3-5.5,7.4-1.9,1.7-4,3.1-6.4,4-.7.2-1.4.5-2.1.8h0Zm-23.1-24.6c0,10,8.2,18.1,18.2,18.1,10,0,18.1-8.2,18.1-18.2,0-10-8.2-18.1-18.2-18.1-10,0-18.1,8.1-18.1,18.1h0Z"/><path class="cls-11" d="m204.9,229.8c.7-.3,1.4-.6,2.1-.8,2.3-1,4.5-2.3,6.4-4,2.3-2.1,4.1-4.6,5.5-7.4,1.3-2.5,2.1-5.3,2.5-8.1.3-1.8.4-3.7.3-5.5,0-3.5-.9-7-2.4-10.2-.8-1.9-1.9-3.7-3.2-5.4-2.7-3.6-6.4-6.2-10.7-7.5-.2,0-.3-.1-.5-.3,1.4.2,2.7.5,4,1.1,8.4,3.4,13.8,9.6,15.7,18.5,2.6,12.4-4.5,24.7-16.5,28.8-1.1.4-2.2.7-3.3.8h0Z"/><path class="cls-25" d="m181.7,205.3c0-10.1,8.1-18.2,18.2-18.2,10.1,0,18.2,8.1,18.2,18.2,0,10.1-8.1,18.2-18.2,18.2h0c-10,0-18.2-8.1-18.2-18.1h0Zm18.2-11.3h-8.2c-.9,0-1.7.3-2.3.9-.2.2-.3.4-.5.6-2.8,3-4.2,7.2-3.7,11.3.4,3.6,2,6.9,4.7,9.3.3.3.7.5,1.1.5h17c.9,0,1.8-.3,2.5-1,.2-.2.3-.4.5-.5,3-3.3,4.2-7.8,3.5-12.2-.5-3-1.9-5.7-4-7.9-.6-.6-1.4-1-2.2-1h-8.4Z"/><path class="cls-10" d="m200,194h8.4c.8,0,1.6.4,2.2,1,2.1,2.2,3.5,4.9,4,7.9.8,4.4-.5,8.9-3.5,12.2-.1.2-.3.4-.5.5-.6.7-1.5,1.1-2.5,1h-17c-.4,0-.8-.2-1.1-.5-2.7-2.4-4.3-5.7-4.7-9.3-.5-4.1.9-8.3,3.7-11.3.2-.2.4-.4.5-.6.6-.7,1.4-1,2.3-.9h8.2Zm7.9,11.3c0-4.3-3.5-7.9-7.8-7.9,0,0,0,0-.1,0-4.4,0-7.9,3.4-8,7.8,0,4.4,3.4,7.9,7.8,8,4.4,0,7.9-3.4,8-7.8,0,0,0,0,0,0h.1,0Z"/><path class="cls-20" d="m207.9,205.3c0,4.3-3.5,7.8-7.8,7.9-4.2.1-7.8-3.2-7.9-7.4,0-.2,0-.3,0-.5,0-4.4,3.5-7.9,7.9-7.9s7.9,3.5,7.9,7.9h-.1Zm-7.9-4.4c-2.4,0-4.4,2-4.4,4.4h0c0,2.4,2,4.4,4.4,4.4,2.4,0,4.4-1.9,4.4-4.3,0,0,0,0,0,0,0-2.4-2-4.4-4.4-4.5h0Z"/><path class="cls-28" d="m200,209.7c-2.4,0-4.3-1.8-4.4-4.2,0,0,0-.1,0-.2,0-2.4,2-4.4,4.4-4.4h0c.4.2.5.7.6,1.1.5,2.2.5,4.5,0,6.7,0,.4-.2.9-.6,1.1h0Z"/><path class="cls-14" d="m200,209.7c.4-.2.5-.7.6-1.1.5-2.2.5-4.5,0-6.7,0-.4-.2-.9-.6-1.1,2.5,0,4.4,2,4.4,4.5,0,2.5-2,4.4-4.4,4.4h0Z"/><line class="cls-6" x1="199.7" y1="251.5" x2="200.2" y2="284.2"/><line class="cls-5" x1="199.7" y1="251.5" x2="200" y2="273.5"/><polygon class="cls-30" points="192.5 271.4 200.2 284.2 207.5 271.2 192.5 271.4"/><path class="cls-16" d="m177.7,365.2c.5-.4.9-.9,1.4-1.3,2.3-2.3,4.5-4.5,6.8-6.8,1.6-1.7,4.3-1.7,6,0,.6.5.9,1.2,1.1,2,0,.6.2,1.3,0,1.9-.3.9-.8,1.8-1.5,2.5-2,1.9-3.9,3.9-5.8,5.8-.3.3-.3.4,0,.7,1,1.1,1.8,2.5,2.2,3.9h-13.2c-.2,0-.4,0-.4-.2,0-1.3-.1-2.5.2-3.7.3-1.2.9-2.3,1.7-3.1l1.5-1.5v-.2Z"/><path class="cls-12" d="m210.3,363c-1.4-.6-2.1-2.7-1.4-4.2.5-1.3,1.9-2.2,3.3-2.1h8.4c1.9.2,3,1.1,3.4,2.8-.2,0-.2,0-.2.2-.4.9-1.1,1.6-2,1.9-.6.2-1.2.3-1.8.3h-8.4c-1,0-1.2,0-1.3,1.1Z"/><path class="cls-16" d="m210.3,369.9c-1.6-.9-2.2-3-1.3-4.6.5-.8,1.3-1.4,2.2-1.6.4,0,.7,0,1.1-.2h8.8c.7.2,1.4.6,1.9,1,.5.5.8,1.1,1,1.8,0,0-.2,0-.2.2-.7,1.7-2.1,2.2-3.7,2.2h-8.6c-1,0-1.2.2-1.2,1.2Z"/><path class="cls-16" d="m208.6,373.9c0-1.6,1.1-3,2.6-3.3.2,0,.5,0,.7,0,3.1,0,6.3,0,9.4,0,0,.2.2.2.3.2,1.2.4,2.1,1.3,2.4,2.6.2.7,0,.8-.6.8h-14.8v-.2Z"/><path class="cls-33" d="m187.9,373.9c-.4-1.5-1.1-2.8-2.2-3.9-.3-.3-.3-.4,0-.7,2-1.9,3.9-3.9,5.8-5.8.7-.7,1.2-1.5,1.5-2.5.6,1.5.3,3.3-.9,4.4-1.3,1.3-2.6,2.6-3.8,3.8-.3.3-.3.4,0,.7,1,1.1,1.8,2.5,2.2,3.9h-2.6Z"/><path class="cls-9" d="m221.3,370.3c-3.1.2-6.3,0-9.4,0s-.5,0-.7,0c-.3-.2-.6-.2-.8-.5h0c0-1.1.2-1.3,1.2-1.3h8.6c1.7,0,3-.5,3.7-2.2,0,0,0-.2.2-.2.2,2-.7,3.4-2.4,4h-.4Z"/><path class="cls-9" d="m221.1,363.5h-8.8c-.4,0-.7,0-1.1.2-.2-.2-.6-.2-.8-.6h0c0-1.1.2-1.3,1.3-1.3h8.4c.6,0,1.2,0,1.8-.3.9-.3,1.6-1,2-1.9,0,0,0-.2.2-.2.4,1.8-.7,3.5-2.5,4h-.4Z"/><path class="cls-22" d="m210.3,336.1h-3.8c-.3,0-.5,0-.5-.4,0-.9.4-1.3,1.3-1.3h6.9c.4,0,.5,0,.5.5,0,.9-.4,1.3-1.3,1.3h-3.1Z"/><path class="cls-26" d="m213.3,330.9h3.4c.3,0,.4,0,.4.4q0,1.4-1.3,1.4h-5.9c-.4,0-.5,0-.5-.5,0-.9.4-1.3,1.2-1.3h2.7Z"/><path class="cls-26" d="m206,331.7c0-.5.3-.8.8-.8s.8.3.9.9q0,.9-.9.9c-1,0-.8,0-.8-.9h0Z"/><path class="cls-12" d="m210.3,363h0c0,0,0,0,0,0Z"/><path class="cls-1" d="m217,326.6h-35.8c-.4,0-.9,0-1.3.2-1.4.5-2.4,1.9-2.3,3.4v35.1c.5-.4.9-.9,1.4-1.3,2.3-2.3,4.5-4.5,6.8-6.8.5-.6,1.2-.9,2-1.1,2.3-.6,4.6.8,5.1,3.1,0,.6.2,1.3,0,1.9.6,1.5.3,3.3-.9,4.4-1.3,1.3-2.6,2.6-3.8,3.8-.3.3-.3.4,0,.7,1,1.1,1.8,2.5,2.2,3.9h18.1c0-1.6,1.1-3,2.6-3.4-.3-.2-.6-.2-.8-.5h0c-.8-.5-1.4-1.3-1.6-2.3-.4-1.8.7-3.6,2.5-4.1-.2-.2-.6-.2-.8-.6h0c-1.4-.8-2.1-2.8-1.4-4.4.5-1.3,1.9-2.2,3.3-2.1h8.4v-26.5c0-2.2-1.4-3.6-3.6-3.6v.2Zm-11,5.1c0-.5.3-.8.8-.8q.9,0,.9.9t-.9.9c-1,0-.8,0-.8-.9h0Zm7.4,4.4h-6.9c-.3,0-.5,0-.5-.4q0-1.3,1.3-1.3h6.9c.4,0,.5,0,.5.5q0,1.3-1.3,1.3h0Zm2.5-3.4h-5.9c-.4,0-.5,0-.5-.5q0-1.3,1.2-1.3h6.1c.3,0,.4,0,.4.4q0,1.4-1.3,1.4Z"/><path class="cls-8" d="m197,338h0v.6c0,.9-.4,1.8-.9,2.7-.4.7-.9,1.4-1.5,1.9-.6.6-1.3,1.1-2.1,1.5-.7.3-1.4.5-2.1.6h-2.2c-1,0-2-.5-2.9-1-.7-.4-1.4-1-1.9-1.6s-1-1.3-1.3-2.1c-.3-.7-.5-1.4-.6-2.1v-1.4h0v-.8c.1-.9.4-1.7.9-2.5.4-.7.9-1.3,1.5-1.9,1.7-1.6,4-2.4,6.3-2.1.9,0,1.7.3,2.5.7,1.7.9,3.1,2.3,3.8,4.1.3.6.4,1.3.5,2v1.2s0,0,0,.2Zm-6.5,6.2c.3,0,.6,0,.9-.2,3.2-1.1,5.2-4.5,4.5-7.8-.5-2.4-2-4.1-4.3-5-.3,0-.7-.3-1.1-.3h-.2c-.6,0-1.1,0-1.7,0-1.1,0-2.1.4-3,1-2.4,1.6-3.5,3.8-3.2,6.7.2,2,1.2,3.5,2.8,4.7,1.3,1,2.8,1.4,4.4,1.3.3,0,.6,0,.9,0v-.3Z"/><path class="cls-7" d="m190.5,344.2c-.3,0-.6,0-.9,0-1.6,0-3.1-.3-4.4-1.3-1.6-1.2-2.6-2.7-2.8-4.7-.3-2.9.8-5.1,3.2-6.7.9-.6,1.9-.9,3-1h2c1.2.4,2.2,1.1,2.9,2,.4.5.6.9.9,1.5.4.9.6,1.8.6,2.8v1.5c0,.8-.3,1.5-.7,2.2-.4.8-.9,1.4-1.5,2s-1.1.8-1.7,1.1c-.2,0-.4,0-.6.2v.3Zm-6.3-6.7c0,2.7,2.2,5,5,5s5-2.2,5-5-2.2-5-5-5-5,2.2-5,4.9h0Z"/><path class="cls-11" d="m190.5,344.2c.2,0,.4,0,.6-.2.6-.3,1.2-.6,1.7-1.1s1.1-1.3,1.5-2c.3-.7.6-1.4.7-2.2,0-.5,0-1,0-1.5,0-1-.3-1.9-.6-2.8-.2-.5-.5-1-.9-1.5-.8-1-1.7-1.7-2.9-2h0c.4,0,.7.2,1.1.3,2.3.9,3.8,2.6,4.3,5,.7,3.3-1.3,6.8-4.5,7.8-.3,0-.6.2-.9.2Z"/><path class="cls-25" d="m184.3,337.5c0-2.7,2.2-5,5-5s5,2.2,5,5-2.2,5-5,5h0c-2.7,0-5-2.2-5-4.9h0Zm5-3.1h-2.2c-.3,0-.5,0-.6.2,0,0,0,0,0,.2-.8.9-1.1,1.9-1,3.1,0,1,.5,1.9,1.3,2.5,0,0,.2,0,.3,0h4.6c.3,0,.5,0,.7-.3h0c.8-1.1,1.1-2.2.9-3.4,0-.8-.5-1.5-1.1-2.2-.2-.2-.3-.3-.6-.3h-2.3Z"/><path class="cls-10" d="m189.2,334.4h2.3c.3,0,.4,0,.6.3.6.6,1,1.3,1.1,2.2.2,1.2,0,2.4-.9,3.3h0c-.2.3-.4.4-.7.4h-4.6c0,0-.2,0-.3,0-.7-.7-1.2-1.5-1.3-2.5,0-1.2.2-2.2,1-3.1,0,0,0,0,0-.2.2-.2.4-.3.6-.2h2.2Zm2.2,3.1c0-1.2-.9-2.2-2.2-2.2s-2.1.9-2.1,2.1.9,2.2,2.2,2.2,2.1-.9,2.1-2.1h0Z"/><path class="cls-20" d="m191.4,337.5c0,1.2-.9,2.1-2.1,2.1s-2.2-.9-2.2-2.2.9-2.1,2.1-2.1,2.1.9,2.2,2.2Zm-2.2-1.2c-.7,0-1.2.5-1.2,1.2h0c0,.7.5,1.2,1.2,1.2s1.2-.5,1.2-1.2-.5-1.2-1.2-1.2h0Z"/><path class="cls-28" d="m189.2,338.7c-.7,0-1.2-.5-1.2-1.2s.5-1.2,1.2-1.2h0c0,0,0,.2.2.3,0,.6,0,1.2,0,1.8,0,0,0,.2-.2.3Z"/><path class="cls-14" d="m189.2,338.7c0,0,0-.2.2-.3,0-.6,0-1.2,0-1.8,0,0,0-.2-.2-.3.7,0,1.2.6,1.2,1.2s-.5,1.2-1.2,1.2Z"/><circle class="cls-4" cx="200" cy="340.3" r="45"/><path d="m169.4,341.5l.2,2.1-5.3.4,4,2.1v.2l-3.7,2.6,5.3-.4.2,2.1-9.1.7-.2-2.1,3.9-2.8-4.2-2.2-.2-2.1,9.1-.7h0Z"/><path d="m168.8,337.1c.1-.5,0-1-.2-1.3l1.2-1.3c.7.8,1,1.8.7,3-.5,2.2-2.2,3.2-4.1,2.8s-3.1-2.1-2.6-4.1c.4-1.9,2.1-2.9,4-2.5.3,0,.5,0,.7.2l-1,4.5c.7,0,1.1-.6,1.2-1.3h0Zm-2.1-1.7c-.8,0-1.2.6-1.3,1.1-.2.7.1,1.3.7,1.6,0,0,.6-2.7.6-2.7Z"/><path d="m165.9,323.9l8.2,3.9-.8,1.8-.6-.3c.3.6.3,1.3-.1,2.1-.7,1.5-2.7,2.2-4.4,1.3-1.7-.8-2.5-2.7-1.8-4.3.4-.8.9-1.2,1.6-1.4l-2.9-1.4.8-1.8h0Zm4.4,4.3c-.9-.4-1.7,0-2.1.7-.4.8-.1,1.7.8,2.1.9.4,1.7,0,2.1-.7s.1-1.7-.8-2.1Z"/><path d="m168,322.4c-.5-.4-.6-1.1-.3-1.6.4-.5,1.1-.6,1.6-.3.5.4.6,1.1.3,1.6-.4.5-1.1.6-1.6.3Zm1.5.9l1.1-1.6,5.3,3.8-1.1,1.6-5.3-3.8Z"/><path d="m176.7,315.2l4.5,4.7-1.4,1.4-.4-.4c0,.7-.2,1.3-.8,1.9-1.2,1.2-3.3,1.1-4.6-.3-1.4-1.4-1.4-3.4-.2-4.6.6-.6,1.3-.8,1.9-.8l-.4-.4,1.4-1.4h0Zm.9,3.7c-.7-.7-1.6-.7-2.2,0-.6.6-.7,1.5,0,2.2s1.6.7,2.2,0c.6-.6.7-1.5,0-2.2Z"/><path d="m179.6,315.1l4.2-2.6,1,1.6-4.2,2.6-1-1.6Z"/><path d="m186.1,314.4l1.4-1.6c.6.6,1.2.9,2.2.6.9-.3,1-.8.9-1.1-.2-.5-.7-.6-2.2-.5-1.4,0-2.9,0-3.4-1.7-.6-1.7.5-3.1,2-3.6,1.4-.5,2.8-.2,3.8.9l-1.3,1.5c-.5-.5-1-.8-1.8-.5-.6.2-.8.6-.7,1s.4.6,1.9.5c1.4,0,3.1-.1,3.7,1.7.6,1.7-.4,3.1-2.3,3.7-1.8.6-3.3.2-4.2-.9Z"/><path d="m192.5,306c0-.6.3-1.2,1-1.3.6-.1,1.2.3,1.3,1,0,.6-.3,1.2-1,1.3-.6.1-1.2-.3-1.3-1Zm.5,1.7l1.9-.3,1.1,6.4-1.9.3-1.1-6.4Z"/><path d="m203.2,309.5v4h-2v-3.7c0-.8-.5-1.2-1.1-1.2s-1.2.4-1.2,1.3v3.5h-2v-6.5h2v.6c.4-.5,1-.8,1.9-.8,1.3,0,2.4.9,2.4,2.7h0Z"/><path d="m212.1,308.9l-1.5,6c-.5,2.1-2.4,2.6-4.1,2.2-1.3-.3-2.3-1.1-2.6-2.3l1.8-.5c0,.5.4.9,1.2,1.2.9.2,1.5,0,1.8-1v-.6c-.4.4-1.1.6-1.9.4-1.8-.4-2.7-2.2-2.3-4,.4-1.7,2.1-2.9,3.9-2.4.8.2,1.4.7,1.6,1.3l.2-.6,1.8.5v-.2Zm-2.6,2.6c.2-.9-.3-1.6-1.2-1.8-.9-.2-1.7.2-1.9,1.1s.3,1.6,1.2,1.8c.9.2,1.7-.2,1.9-1.1Z"/><path d="m215.3,307.1l1.8.8-3.9,8.7-1.8-.8,3.9-8.7Z"/><path d="m217.9,317.5c.4.3.9.4,1.3.3l.8,1.6c-1,.4-2.1.2-3.1-.5-1.9-1.2-2.2-3.2-1.1-4.9,1.1-1.6,3.1-2.1,4.8-.9,1.6,1,1.9,3.1.9,4.7-.2.2-.3.4-.5.6l-3.8-2.6c-.2.7.2,1.2.8,1.6h-.1Zm2.3-1.3c.2-.7,0-1.3-.6-1.6-.6-.4-1.2-.4-1.7,0l2.3,1.5h0Z"/><path d="m224.6,320.8c1.5-1.2,3.6-1,4.8.6.8,1,.9,2.3.5,3.3l-1.8-.7c.2-.5,0-1-.2-1.4-.5-.7-1.4-.8-2.1-.2s-.8,1.4-.3,2.1c.4.5.9.7,1.4.5l.3,1.9c-1.1.2-2.3-.3-3.1-1.3-1.2-1.6-.9-3.6.6-4.8h-.1Z"/><path d="m234.8,331.3l-5.9,2.8-.8-1.8.6-.3c-.6-.2-1.2-.6-1.5-1.4-.7-1.5,0-3.4,1.8-4.3,1.8-.8,3.7-.2,4.4,1.4.4.8.4,1.5,0,2.1l.6-.3.8,1.8h0Zm-3.8-.4c.9-.4,1.2-1.3.8-2.1s-1.2-1.1-2.1-.7c-.9.4-1.2,1.3-.8,2.1.4.8,1.2,1.1,2.1.7Z"/><path d="m234.7,343.9l-3.9.6-.3-1.9,3.8-.5c.6,0,1-.5.9-1.1,0-.6-.6-.9-1.4-.8l-3.6.5-.3-1.9,3.8-.5c.6,0,1-.5.9-1.1,0-.6-.6-.9-1.4-.8l-3.6.5-.3-1.9,6.4-.9.3,1.9h-.6c.5.3.9.8,1,1.7,0,.8,0,1.4-.6,1.8.6.3,1,.8,1.1,1.7.2,1.5-.7,2.6-2.3,2.8h0Z"/><path d="m231.5,348.7c0,.5,0,1,.3,1.3l-1.1,1.4c-.8-.8-1.1-1.8-.9-3,.3-2.2,2-3.3,3.9-3.1,1.9.3,3.2,1.9,2.9,3.9-.3,1.9-1.9,3.1-3.9,2.8-.3,0-.5,0-.8-.2l.7-4.6c-.7,0-1,.7-1.1,1.4h0Zm2.2,1.5c.8,0,1.1-.6,1.2-1.2,0-.7-.2-1.3-.8-1.5l-.4,2.8h0Z"/><path d="m234.2,358.1l-2.1-.7c.4-.7.5-1.9-.8-2.3l-2.8-1,.6-1.8,6.1,2.1-.6,1.8-1.1-.4c.7.5.8,1.5.6,2.3h.1Z"/><path d="m230.2,365.3l-5.6-3.3,1-1.7.5.3c-.2-.6-.2-1.3.3-2.1.9-1.5,2.9-1.9,4.5-1,1.7,1,2.3,2.9,1.4,4.4-.4.8-1,1.2-1.7,1.3l.5.3-1,1.7h0Zm-1.8-3.3c.8.5,1.7.2,2.1-.5.4-.8.2-1.6-.6-2.1s-1.7-.2-2.1.5c-.4.8-.2,1.6.6,2.1Z"/></svg>