<?xml version="1.0" encoding="UTF-8"?><svg id="Layer_1" xmlns="http://www.w3.org/2000/svg" viewBox="0 0 400 400"><defs><style>.cls-1{fill:#a7cefe;}.cls-2{stroke:#a5262d;}.cls-2,.cls-3,.cls-4{stroke-width:4px;}.cls-2,.cls-3,.cls-4,.cls-5{stroke-miterlimit:10;}.cls-2,.cls-3,.cls-4,.cls-5,.cls-6{fill:none;}.cls-3{stroke:#0018c6;}.cls-7{fill:#8ac5cd;}.cls-4{stroke:#c000e2;}.cls-8{fill:#717f8f;}.cls-9{fill:#c69c6d;}.cls-5{stroke:#231f20;stroke-width:2px;}.cls-10{fill:#3b566a;}.cls-11{fill:#b2d3d9;}.cls-12{fill:#b3d4da;}.cls-13{fill:#728090;}.cls-14{fill:#484645;}.cls-15{fill:#637889;}.cls-16{fill:#b6d6fd;}.cls-17{fill:#b3b3b3;}.cls-18{fill:#88c4cc;}.cls-19{fill:#2f4859;}.cls-20{fill:#33b1cb;}.cls-21{fill:#304959;}.cls-22{fill:#3f4a5b;}.cls-23{fill:#231f20;}.cls-24{fill:#33b1cc;}.cls-25{fill:#86cde8;}</style></defs><line class="cls-6" x1="200.3" y1="115.1" x2="200.8" y2="147.9"/><line class="cls-5" x1="200.3" y1="115.1" x2="200.6" y2="137.1"/><polygon class="cls-23" points="193.1 135.1 200.8 147.9 208.1 134.8 193.1 135.1"/><line class="cls-6" x1="118.7" y1="110.9" x2="167.3" y2="150.2"/><line class="cls-5" x1="118.7" y1="110.9" x2="159" y2="143.4"/><polygon class="cls-23" points="152.5 147.8 167.3 150.2 162 136.2 152.5 147.8"/><line class="cls-6" x1="281.3" y1="110.9" x2="232.7" y2="150.2"/><line class="cls-5" x1="281.3" y1="110.9" x2="241.1" y2="143.4"/><polygon class="cls-23" points="238.1 136.2 232.7 150.2 247.5 147.8 238.1 136.2"/><circle class="cls-2" cx="91.1" cy="61.4" r="45"/><path d="m65,45.8l1-3c1.1.6,2.6.4,3.5-.5,1.1-1,1-1.7.7-2.1-.6-.6-1.4-.4-3.4.6s-4.1,1.5-5.9-.5c-1.8-2-1.1-4.7.7-6.3,1.6-1.5,3.9-1.9,5.9-1l-1,3c-.9-.5-2.1-.4-2.9.4-.8.7-.8,1.4-.4,1.8s1,.6,3-.4,4.3-1.9,6.2.3c1.8,2,1.2,4.7-1.1,6.7-2.3,2-4.5,2.1-6.5,1.1h.2Z"/><path d="m70,29.9c-.4-.9,0-2,.8-2.4s2,0,2.4.8,0,2-.8,2.4h0c-.9.4-1.9,0-2.4-.8Zm1.5,2.3l2.7-1.4,4.5,8.9-2.7,1.4-4.5-8.9Z"/><path d="m75.8,25.2l2.9-.9,4.5,13.9-2.9.9-4.5-13.9Z"/><path d="m82.4,25.3c-.2-1,.5-1.9,1.5-2.1,1-.2,1.9.5,2.1,1.5.2,1-.5,1.9-1.5,2.1-1,.2-1.9-.5-2.1-1.5,0,0,0,0,0,0Zm.7,2.6l3-.5,1.6,9.9-3,.5-1.6-9.9Z"/><path d="m89,31.9c.1-2.9,2.6-5.1,5.4-4.9,0,0,.2,0,.3,0,1.9,0,3.5,1.2,4.3,2.9l-2.7,1.3c-.5-1.1-1.9-1.6-3-1.1-.7.3-1.2,1.1-1.3,1.9-.2,1.2.7,2.3,1.9,2.5,0,0,.1,0,.2,0,.8,0,1.6-.3,2-1l2.5,1.7c-1,1.6-2.8,2.4-4.7,2.2-2.9-.2-5.1-2.6-4.9-5.5,0,0,0-.1,0-.2v.2Z"/><path d="m99.9,32.9c1.1-2.7,4.2-3.9,6.9-2.8,2.7,1.1,3.9,4.2,2.8,6.9-1.1,2.7-4.2,3.9-6.9,2.8,0,0,0,0,0,0-2.7-1.1-3.9-4.1-2.8-6.8,0,0,0,0,0-.1Zm7,2.9c.5-1.2,0-2.5-1.1-3.1,0,0,0,0,0,0-1.1-.5-2.4,0-2.9,1.1,0,0,0,.1,0,.2-.6,1.1-.1,2.5,1,3,0,0,.1,0,.2,0,1.1.5,2.4,0,2.9-1.1,0,0,0-.1,0-.2Z"/><path d="m119.4,44l-4.2,4.5-2.2-2,3.9-4.2c.7-.6.8-1.7.2-2.3,0,0-.1-.1-.2-.2-.7-.7-1.9-.7-2.6,0,0,0-.2.2-.2.3l-3.7,4-2.2-2,6.8-7.4,2.2,2-.6.7c1.1-.2,2.2.2,2.9,1,1.5,1.4,1.8,3.6,0,5.6h-.1Z"/><rect class="cls-9" x="64.2" y="51.9" width="52" height="37" rx="2.9" ry="2.9"/><path class="cls-14" d="m86.4,83c-2.2.1-4.3-.5-6.2-1.6-1.6-1-2.8-2.5-3.4-4.3l5.2-3c.7,2,2.6,3.2,4.7,3.1,2.3,0,2.8-.5,2.8-1.6s-.5-1.2-1.6-1.7c-1-.4-2-.7-3-.9-1.9-.4-3.7-1.4-5.1-2.7-1.3-1.2-2-2.9-1.9-4.7,0-2,.8-3.9,2.3-5.3,1.6-1.4,3.8-2.1,5.9-2,1.9,0,3.7.4,5.3,1.4,1.5,1,2.8,2.3,3.5,4l-5.1,3c-.5-1.6-2-2.7-3.7-2.6-1.7,0-1.3,0-1.6.4-.4.2-.6.7-.6,1.1,0,.5.3,1,.8,1.3,1,.6,2.1,1,3.2,1.3,1.1.4,2,.7,2.8,1,.8.3,1.6.7,2.3,1.2.8.5,1.4,1.3,1.9,2.1.4.9.6,2,.6,3,.1,2.1-.8,4.1-2.5,5.4-1.9,1.4-4.2,2.1-6.5,2h-.1Z"/><path class="cls-14" d="m102.6,63.3c-.6.6-1.4,1-2.3,1-1.8,0-3.3-1.4-3.3-3.2,0-.9.3-1.8,1-2.4.6-.6,1.4-.9,2.3-.9.9,0,1.7.3,2.3.9.6.6,1,1.4,1,2.3,0,.9-.3,1.7-1,2.3Zm-5.1,19.2v-16.9h5.6v16.9h-5.6Z"/><circle class="cls-2" cx="200" cy="61.4" r="45"/><rect class="cls-17" x="174" y="51.4" width="52" height="37" rx="2.9" ry="2.9"/><path class="cls-14" d="m200.8,81.7l-1.1-3.4h-8l-1,3.4h-6.5l7.5-23.6h7.6l7.8,23.6h-6.3Zm-7.6-8.6h4.8l-2.4-8-2.4,8Z"/><path class="cls-14" d="m208.5,81.7v-24.7h5.6v24.7h-5.6Z"/><path d="m176.1,40.1l-2.4,3.1,1,1.4-1.6,2.1-6.1-9.3,1.9-2.4,10.5,3.7-1.6,2.1-1.6-.6h0Zm-2.2-.8l-3.8-1.4,2.3,3.3,1.5-1.9Z"/><path d="m172.8,30.3l1.7-1.4,7,8.4-1.7,1.4-7-8.4Z"/><path d="m185,26.5l3.6,6.6-2,1.1-.3-.6c-.1.8-.6,1.5-1.4,1.8-1.3.7-3,.3-3.8-1.1,0-.1-.1-.2-.1-.3l-2.2-4,2-1.1,2,3.8c.3.6,1.1.9,1.7.6,0,0,0,0,0,0,.7-.3.9-1.1.6-1.8,0,0,0-.1-.1-.2l-2-3.6,2-1.1h-.1Z"/><path d="m199.6,26l.8,4.5-2.2.4-.8-4.3c0-.6-.5-1.1-1.1-1,0,0-.1,0-.2,0-.7,0-1.1.7-.9,1.6l.7,4.2-2.2.4-.8-4.3c0-.6-.5-1.1-1.1-1,0,0-.1,0-.2,0-.7,0-1.1.7-.9,1.6l.7,4.2-2.2.4-1.3-7.4,2.2-.4v.7c.4-.7,1.1-1.1,1.9-1.2.8-.2,1.6,0,2.1.6.4-.8,1.1-1.3,2-1.4,1.7-.3,3,.7,3.3,2.6l.2-.2Z"/><path d="m201.9,23.6l2.2.2-.6,7.5-2.2-.2.6-7.5Zm0-2c0-.7.8-1.3,1.5-1.2.7,0,1.3.8,1.2,1.5s-.8,1.3-1.5,1.2c0,0,0,0,0,0-.7,0-1.3-.7-1.2-1.4,0,0,0,0,0-.1Z"/><path d="m212.9,28.7l-1.2,4.4-2.2-.6,1.1-4.1c.2-.7-.1-1.4-.8-1.7,0,0,0,0-.1,0-.7-.3-1.5,0-1.7.8,0,.1,0,.2,0,.3l-1.1,3.9-2.2-.6,2-7.2,2.2.6-.2.7c.7-.5,1.5-.6,2.3-.3,1.5.4,2.4,1.9,2,3.4,0,.1,0,.2,0,.3h0Z"/><path d="m222.5,30.7l-3.8,6.4-1.9-1.2.4-.6c-.8.3-1.6.2-2.3-.3-1.3-.8-1.8-2.5-1-3.8,0-.1.1-.2.2-.3l2.4-4,1.9,1.2-2.2,3.7c-.4.5-.3,1.2.2,1.6,0,0,.2.1.2.2.6.4,1.5.2,1.9-.4,0,0,0-.1.1-.2l2.1-3.5,1.9,1.2h0Z"/><path d="m230.3,43l-3.5,3-1.5-1.7,3.4-2.9c.6-.5.7-1.1.2-1.6-.4-.5-1.2-.6-1.7-.1,0,0,0,0-.1.1l-3.2,2.7-1.5-1.7,3.4-2.9c.6-.5.7-1.1.2-1.6-.4-.5-1.2-.6-1.7-.1,0,0,0,0-.1.1l-3.2,2.7-1.5-1.7,5.7-4.9,1.5,1.7-.5.4c.8,0,1.5.3,2,.9.5.6.7,1.4.5,2.1.8,0,1.7.3,2.2,1,1,1.2.9,3-.3,4,0,0-.1.1-.2.2v.3Z"/><circle class="cls-2" cx="308.9" cy="61.4" r="45"/><path class="cls-25" d="m278.9,63.7v-.6c.3-.5.8-.8,1.4-.8,1.4-.1,2.5-1.3,2.5-2.7v-.5c0-.4.5-.8.9-.7,0,0,0,0,0,0,.5,0,.9.3.9.8,0,.3,0,.5.1.8.2,1.1,1.1,2,2.2,2.2.7.2.7,0,.7-.6v-13.5c0-.4.2-.7.6-.8,0,0,.1,0,.2,0h30.6c0,.3-.3.4-.5.6l-7.2,7.2c-.2.2-.4.4-.5.6-.2.4-.1.9.2,1.2.3.3.8.4,1.2,0,.2-.1.4-.3.5-.5l8.3-8.3c.3-.3.5-.6.6-1h3.4c0,.3-.3.4-.5.6l-13.3,13.3-.5.5c-.3.3-.3.7,0,1,.2.3.5.5.9.5.3,0,.6-.2.9-.4l14.6-14.6c.3-.2.5-.5.5-.9h1.1c1,0,.9,0,.9.9v28.3q0,.8.8.6c1.3-.4,2.2-1.5,2.2-2.8,0-.5.3-.9.8-1,0,0,.1,0,.2,0,.6,0,.9.4,1,1,0,1.5,1.3,2.8,2.8,2.9.5,0,1,.3,1.2.8v.6c-.2.4-.6.7-1.1.7-1.6,0-2.8,1.3-2.8,2.9,0,.3-.2.7-.4.9-.2.2-.6.3-.9,0-.4-.1-.6-.5-.6-.9-.2-1.6-.9-2.6-2.3-2.9-.7-.2-.7,0-.7.6v12.6c0,.5-.2.8-.7.8h-21.6c0-.3.3-.4.5-.6l7.5-7.5c.5-.6.6-1.1.1-1.5-.4-.4-1-.4-1.4,0h-.1c0,0-8.7,8.8-8.7,8.8-.2.2-.4.6-.5.9h-3.4c0-.3.3-.4.5-.6l13.3-13.3c.2-.2.4-.4.5-.6.2-.4.2-.9-.2-1.2-.3-.3-.8-.3-1.2,0,0,0,0,0,0,0-.1,0-.2.2-.3.3l-14.6,14.6c-.3.2-.4.6-.5.9h-10.1c-.4,0-.8-.2-.9-.7,0,0,0-.1,0-.2v-27.5c0-.7,0-.8-.7-.6-1.3.4-2.2,1.5-2.3,2.9,0,.5-.4,1-.9,1,0,0,0,0-.1,0-.6,0-1-.4-1-1v-.3c-.1-1.4-1.3-2.5-2.7-2.6-.5,0-1-.3-1.3-.7h-.2Zm5,.6c.4-.2.7-.5.9-.9-.3-.4-.6-.7-.9-1-.3.2-.7.6-.9.9.2.3.6.7.9.9h0Zm50.9,14.2c-.2-.4-.5-.7-.9-.9-.3.2-.7.6-.9.9l.9.9.9-.9Z"/><path class="cls-24" d="m325.3,47.5c.3-.1.5-.3.7-.6.8-.8,1.6-.6,1.9.5,0,.4-.2.7-.5.9l-14.6,14.6c-.2.3-.6.4-.9.4-.4,0-.7-.2-.9-.5-.2-.3-.2-.7,0-1,.1-.2.3-.4.5-.5l13.3-13.3c.2-.2.4-.3.5-.6h0Z"/><path class="cls-20" d="m301.5,93.3c-.3,0-.5.4-.8.6-.8.7-1.6.5-1.8-.6,0-.4.2-.7.5-.9l14.6-14.6.3-.3c.4-.3.8-.3,1.2,0,.4.3.4.8.2,1.2-.1.2-.3.4-.5.6l-13.3,13.3c-.2.2-.4.3-.5.6h.1Z"/><path class="cls-24" d="m319.2,47.5c.2,0,.4-.2.6-.4,1-1,1.6-.8,2.1.4,0,.4-.3.7-.6,1l-8.3,8.3-.5.5c-.4.3-.9.2-1.2,0-.4-.3-.5-.8-.2-1.1,0,0,0,0,0,0,.1-.2.3-.4.5-.6l7.2-7.2c.2-.2.4-.3.5-.6h-.1Z"/><path class="cls-24" d="m307.5,93.4c-.3.1-.5.3-.7.6-.8.8-1.6.5-1.9-.5,0-.3.2-.6.5-.8l8.7-8.7c.2-.4.8-.6,1.2-.3,0,0,.1,0,.2.1h.1c.4.5.4,1.1,0,1.5,0,0,0,0,0,0l-7.5,7.5c-.2.2-.4.3-.4.6h-.1Z"/><path d="m297.2,31.2c2,2.8,1.4,6.7-1.4,8.8-.2.1-.3.2-.5.3-3,2.5-7.4,2-9.9-.9-2.5-3-2-7.4.9-9.9.4-.3.8-.6,1.2-.8,1.9-1.3,4.4-1.6,6.6-.6l-1.4,2.7c-1.2-.5-2.6-.3-3.6.5-1.8,1.1-2.4,3.4-1.3,5.2,0,0,.1.2.2.3,1.2,1.9,3.5,2.4,5.7,1,1.3-.7,2-2.2,1.7-3.6l-3,1.9-1.5-2.2,5.6-3.7.6,1Z"/><path d="m298.1,23.5l2.8-.7,3.5,13.5-2.8.7-3.5-13.5Z"/><path d="m315.6,26.3l-.2,9.6h-2.9v-1c-.8.8-1.8,1.2-2.9,1.1-2.5,0-4.5-2.3-4.5-5.1,0-2.6,2-4.8,4.6-4.9,0,0,0,0,.1,0,1.1,0,2.1.4,2.8,1.2v-.9h3Zm-3,4.7c.1-1.2-.8-2.3-2-2.4,0,0-.1,0-.2,0-1.2,0-2.2.8-2.3,2,0,.1,0,.2,0,.3-.1,1.2.8,2.3,2,2.4,0,0,.1,0,.2,0,1.2,0,2.2-.8,2.3-2,0-.1,0-.2,0-.3Z"/><path d="m324.3,36.2c-.8,2.1-2.9,2.3-4.8,1.6-1.7-.5-2.9-1.9-3.1-3.6l2.8-.5c0,.7.4,1.4,1.1,1.6.6.2,1,.2,1.2-.2.4-1-4.2-2.1-3.1-5.2.7-2,2.7-2.3,4.6-1.6,1.5.5,2.5,1.7,2.8,3.2l-2.8.4c0-.6-.4-1.1-.9-1.2-.5-.2-.8,0-.9.2-.4,1,4.3,2,3.1,5.3Z"/><path d="m331,41c-1.3,1.8-3.4,1.4-5.1.2-1.5-.9-2.2-2.6-2-4.3l2.8.3c-.2.7,0,1.5.7,1.9.6.4,1,.4,1.2,0,.6-.9-3.5-3.2-1.6-5.8,1.2-1.7,3.3-1.5,4.9-.3,1.3.8,2,2.3,1.8,3.8l-2.8-.4c0-.6,0-1.1-.5-1.4s-.8-.3-1,0c-.6.9,3.6,3.1,1.5,5.9h.1Z"/><circle class="cls-3" cx="200" cy="197.7" r="45"/><path class="cls-10" d="m211.8,178.1c.2.3.5.5.8.7,1.2,1.1,1.8,2.6,1.8,4.2v45.3c0,3.6-1.8,5.7-5.5,6-6,.5-12,.5-18,0-3,0-5.3-2.5-5.2-5.5,0,0,0-.1,0-.2v-45.6c-.2-3,2.1-5.5,5.1-5.7,0,0,0,0,0,0,5.3-.4,10.5-.4,15.8-.2.4,0,.7,0,1.1.1,1.4,0,2.8.2,4.1.7v.2Zm-10.9,6.6h-11.1c-.7,0-.9.2-.9.9v11.5c0,3.8,0,2.4,2.4,2.3h19.1c.6,0,.7-.2.7-.7v-13.2c0-.5-.1-.8-.7-.8h-9.5Zm2.1,29.5c-2.3,0-2.1,0-2.1,2.2s.3,1,1,1h1.6c1.3,0,1.4,0,1.4-1.3,0-2.2.2-1.9-1.9-1.9Zm-5.9,0h-1.1c-.6,0-1,.2-.8.8.2.8-.7,2.1.8,2.4.8.1,1.5.1,2.3,0,.4,0,.8-.3.9-.7.5-1.9,0-2.5-1.9-2.5h-.2Zm0-4.7c-2.2,0-1.9-.2-2,2v.3c0,.7.3,1,.9,1h2.3c.4,0,.7-.3.8-.7.5-1.9,0-2.5-1.9-2.5h-.1Zm6,0h-1.3c-.5,0-.8.2-.8.7,0,2.3-.2,2.6,2.1,2.5h.5c1.3,0,1.4-.2,1.4-1.4,0-2.1.2-1.9-1.9-1.9h0Zm-.1,12.7h1c.5,0,1-.1,1-.7s.5-1.8-.4-2.5h-2.8c-.4,0-.7.2-.8.6-.5,1.9,0,2.6,2,2.6h0Zm-5.8,0h1c.6,0,1-.2,1-.8s.5-1.8-.4-2.4h-2.8c-.3,0-.7.2-.8.5-.6,1.8,0,2.7,1.9,2.7h.1Zm0-17.4h-.9c-.7,0-1,.2-1,1q0,2.3,2.3,2.3h.8c.5,0,.9-.3.9-.8.4-2,0-2.5-2-2.5h-.1Zm6,0h-1.3c-.5,0-.8.2-.8.8,0,2.3-.2,2.6,2.1,2.5h.5c1.3,0,1.4-.2,1.4-1.4,0-2.1.2-1.9-1.9-1.9h0Zm-11.8,17.4h.8c.9,0,1.2-.3,1.1-1.2,0-2.4.3-2.1-2.1-2.1h-.4c-1.3,0-1.4,0-1.3,1.3,0,1.8-.4,2,1.9,1.9h0Zm17.6-3.3h-.8c-.8-.1-1.1.2-1.1,1.1,0,2.3-.4,2.2,2.2,2.2h.4q1.3,0,1.3-1.3c0-2.2.2-1.9-1.9-1.9h0Zm0-4.7h-1c-.7,0-.9.3-.9,1,0,2.4-.4,2.3,2.3,2.3h.3c1.2,0,1.3-.1,1.3-1.3,0-2.2.2-2-1.9-2h-.1Zm-17.5,0h-.9c-.8,0-1.1.2-1.1,1.1,0,2.3-.4,2.2,2.2,2.2h.4c1.2,0,1.3-.1,1.3-1.4,0-2.1.2-1.9-1.9-1.9h0Zm0-4.7h-.9c-.8,0-1.1.2-1,1,0,2.3-.2,2.3,2.2,2.2h.3c1.3,0,1.4,0,1.4-1.4,0-2.1.2-1.9-1.9-1.9h-.1Zm17.6-4.7h-1c-.7,0-.9.3-.9,1,0,2.4-.2,2.3,2.3,2.3h.3c1.2,0,1.3-.1,1.3-1.3,0-2.2.2-1.9-1.9-2h-.1Zm0,4.7c-2.2,0-1.9-.3-2,2v.2c0,.8.3,1.1,1.1,1.1h1.4c1.2,0,1.3-.1,1.3-1.4,0-2.1.2-1.9-1.9-1.9h0Zm-17.6-4.7h-1c-.7,0-.9.3-.9,1,0,2.4-.2,2.3,2.3,2.3h.3c1.2,0,1.3-.1,1.3-1.3,0-2.2.2-1.9-1.9-2h-.1Zm10.7-22.9c.4,0,.7-.1.6-.6s-.2-.5-.6-.5-.7.1-.6.6.2.5.6.5Zm2.5-.5c0-.4-.2-.5-.6-.5s-.7,0-.7.5.2.5.6.5.7-.1.7-.5Zm-5.8,48.7c0-.3-.2-.6-.4-.6,0,0-.1,0-.2,0-.4,0-.5.3-.5.6s.2.6.5.6c.3,0,.5-.3.5-.6h.1Zm-2.1-49.2c-.3,0-.6.2-.7.5,0,.3.2.6.6.6,0,0,0,0,0,0,.3,0,.5-.1.5-.4h0c0-.4-.1-.6-.5-.6h0Zm2.3.5c0-.4-.2-.5-.6-.5-.3,0-.5.1-.6.4,0,.3.1.5.4.6,0,0,.1,0,.2,0,.4,0,.5-.2.5-.5h.1Zm-.2,44.6c0-.4-.3-.5-.6-.5-.3,0-.5.2-.5.4,0,0,0,0,0,0,0,.4.2.6.5.6s.5-.2.5-.6h.1Zm4-.1c0-.2-.1-.4-.5-.4s-.6.1-.6.5.2.6.5.6.5-.2.5-.7h.1Zm-.4,4.7c.3,0,.4-.2.4-.5,0-.3-.2-.6-.5-.6-.3,0-.5.2-.5.4,0,0,0,.1,0,.2.1.4.2.5.7.5h0Zm-1.6-49.2c0-.4-.3-.5-.6-.5s-.5.2-.4.6.3.5.6.5c.3,0,.5-.3.5-.6h-.1Zm-.5,44.3c.3,0,.5-.2.5-.4,0,0,0,0,0,0,0-.4-.2-.6-.6-.5s-.5.2-.5.6c0,.3.3.5.6.5h0Zm-3,2.9c.3,0,.5-.1.6-.5s-.1-.6-.5-.6-.5.1-.6.5.1.6.5.6h0Zm5.7-1.1c-.2,0-.4.2-.4.4,0,0,0,.1,0,.2,0,.3.2.5.6.4s.5-.3.5-.6c0-.3-.3-.5-.6-.5h-.1Zm-2.8,4c.3,0,.5-.2.5-.4,0,0,0,0,0,0,0-.4-.2-.6-.5-.6-.3,0-.5.2-.5.4,0,0,0,0,0,0,0,.4.2.6.5.6h0Zm-.6-3.1c0-.3-.1-.5-.5-.5-.3,0-.5.2-.5.4,0,0,0,0,0,0,0,.3.1.6.4.6.3,0,.5-.2.6-.5h0Zm.8.4c-.3,0-.5.2-.5.4,0,0,0,0,0,0,0,.3.3.5.6.5h0c.3,0,.4-.3.4-.5,0-.3-.2-.5-.4-.5,0,0,0,0,0,0Zm0-1.9c0-.2-.2-.5-.4-.5-.3,0-.5.2-.6.5,0,.2.1.5.4.5h0c.3,0,.4-.3.5-.5h.1Zm1,1.3c.2,0,.4-.2.4-.4,0-.2,0-.4-.3-.5h-.1c-.3,0-.4.2-.5.4s0,.4.4.4h.1Z"/><path class="cls-18" d="m203.6,184.7h6.8c.6,0,.7.2.7.8v13.2c0,.5-.1.7-.7.7h-15.3c0-.2,0-.4.2-.6,1.9-3.1,3.7-6.2,5.6-9.3,1-1.5,1.9-3.1,2.7-4.8Z"/><path class="cls-18" d="m191.3,199.3c-1.6,0-2.4-.8-2.4-2.3v-11.5c0-.7.2-.9.9-.9h10c-.7,1.5-1.5,2.9-2.4,4.2-2,3.5-4.1,6.9-6.1,10.4h0Z"/><path class="cls-12" d="m203.6,184.7c-.8,1.7-1.7,3.3-2.7,4.8-1.8,3.1-3.7,6.2-5.6,9.3,0,.2-.2.4-.2.6h-1.6c0-.2,0-.4.2-.6,1.6-2.6,3.2-5.3,4.7-7.9,1.2-2.1,2.5-4,3.6-6.2h1.6Z"/><path class="cls-7" d="m202,184.7c-1.1,2.1-2.4,4.1-3.6,6.2-1.6,2.7-3.2,5.3-4.7,7.9,0,.2-.2.4-.2.6h-1.1c.5-1.2,1.1-2.3,1.8-3.3,2.2-3.8,4.5-7.6,6.7-11.3h1.1Z"/><path class="cls-11" d="m200.9,184.7c-2.2,3.8-4.5,7.5-6.7,11.3-.7,1-1.3,2.1-1.8,3.3h-1.1c2.1-3.4,4.1-6.9,6.1-10.4.9-1.3,1.7-2.7,2.4-4.2h1.1Z"/><path class="cls-15" d="m203,214.2c2.2,0,1.9-.2,1.9,1.9s0,1.3-1.4,1.3h-1.6c-.5,0-.9-.3-1-.8,0,0,0-.1,0-.2,0-2.3-.2-2.3,2.1-2.2Z"/><path class="cls-15" d="m197,214.2h0c1.9,0,2.4.6,1.9,2.5,0,.4-.4.8-.9.7,0,0,0,0,0,0-.8,0-1.5,0-2.3,0-1.5-.3-.6-1.6-.8-2.4-.1-.6.2-.9.8-.8h1.3Z"/><path class="cls-15" d="m197,209.4h0c1.9,0,2.4.6,1.9,2.5,0,.4-.4.7-.8.7h-2.3c-.6,0-1-.3-.9-1v-.3c0-2.2-.3-2,2-2h.1Z"/><path class="cls-15" d="m203,209.4c2.1,0,1.9-.2,1.9,1.9s-.2,1.4-1.4,1.4h-.5c-2.4,0-2.1-.2-2.1-2.5s.3-.7.8-.7h1.3Z"/><path class="cls-15" d="m202.9,222.2c-1.9,0-2.5-.7-2-2.6,0-.4.4-.6.8-.6h2.8c.9.7.4,1.7.4,2.5s-.5.7-1,.7h-1Z"/><path class="cls-15" d="m197,222.2c-1.8,0-2.5-1-1.9-2.7,0-.3.4-.6.7-.5,0,0,0,0,0,0h2.8c.9.7.4,1.6.4,2.4s-.4.8-1,.8h-1.1Z"/><path class="cls-15" d="m197,204.7h0c2,0,2.4.5,2,2.5,0,.5-.4.7-.9.8h-.8q-2.3,0-2.3-2.3c0-2.3.3-1.1,1-1h1Z"/><path class="cls-15" d="m203,204.7c2.1,0,1.9-.2,1.9,1.9s-.2,1.4-1.4,1.4h-.5c-2.4,0-2.1-.2-2.1-2.5s.3-.7.8-.8h1.3Z"/><path class="cls-15" d="m191.2,222.2c-2.3,0-1.9-.1-1.9-1.9s0-1.3,1.3-1.3h.4c2.4,0,2.1-.3,2.1,2.1s-.3,1.2-1.1,1.2h-.8Z"/><path class="cls-15" d="m208.8,218.9c2.2,0,1.9-.2,1.9,1.9s0,1.3-1.3,1.3h-.4c-2.6,0-2.1,0-2.2-2.2,0-.8.3-1.2,1.1-1.1h.9Z"/><path class="cls-15" d="m208.8,214.2c2.1,0,1.9-.2,1.9,2s-.1,1.3-1.3,1.3h-.3c-2.7,0-2.2.1-2.3-2.3,0-.7.2-1,.9-1h1.1Z"/><path class="cls-15" d="m191.2,214.2c2.1,0,1.8-.2,1.9,1.9,0,1.2,0,1.4-1.3,1.4h-.4c-2.6,0-2.1,0-2.2-2.2,0-.8.3-1.2,1.1-1.1h.9Z"/><path class="cls-15" d="m191.2,209.4c2.1,0,1.9-.2,1.9,1.9s0,1.4-1.4,1.4h-.3c-2.4,0-2.1,0-2.2-2.2,0-.8.2-1.1,1-1h1Z"/><path class="cls-15" d="m208.8,204.7c2.1,0,1.9-.2,1.9,2s-.1,1.3-1.3,1.3h-.3c-2.5,0-2.2.1-2.3-2.3,0-.7.2-1,.9-1h1.1Z"/><path class="cls-15" d="m208.8,209.4c2.1,0,1.9-.2,1.9,1.9s-.1,1.4-1.3,1.4h-1.4c-.8,0-1.1-.3-1.1-1.1v-.2c0-2.2-.3-2,2-2h0Z"/><path class="cls-15" d="m191.2,204.7c2.1,0,1.9-.2,1.9,1.9s-.1,1.3-1.3,1.3h-.3c-2.5,0-2.3.1-2.3-2.3s.2-1,.9-1h1.1Z"/><path class="cls-19" d="m201.9,181.9c-.3,0-.6-.1-.6-.5,0-.3.2-.6.6-.6,0,0,0,0,0,0,.3,0,.6.1.6.5,0,.3-.2.6-.6.6,0,0,0,0,0,0Z"/><path class="cls-19" d="m204.3,181.4c0,.4-.3.5-.7.5s-.6-.2-.6-.5.3-.5.7-.5.6.2.6.5Z"/><path class="cls-21" d="m198.5,230c0,.3-.2.6-.5.6-.3,0-.5-.2-.5-.4,0,0,0-.1,0-.2,0-.3.1-.6.5-.6.3,0,.6.2.6.4,0,0,0,.1,0,.2h-.1Z"/><path class="cls-19" d="m196.4,180.8c.4,0,.5.2.5.6,0,.3-.2.5-.4.5,0,0,0,0,0,0h0c-.4,0-.7-.2-.6-.6s.3-.5.7-.5h0Z"/><path class="cls-19" d="m198.7,181.3c0,.4-.2.6-.5.5-.3,0-.5-.1-.6-.4,0-.3.1-.5.4-.6,0,0,.1,0,.2,0,.3,0,.6.1.6.5h-.1Z"/><path class="cls-19" d="m198.5,225.9c0,.4-.2.6-.5.6s-.5-.2-.5-.6.1-.5.5-.5.6.1.6.5h-.1Z"/><path class="cls-19" d="m202.5,225.8c0,.5-.2.7-.5.7s-.5-.2-.5-.6.3-.5.6-.5c.2,0,.5.2.5.4h-.1Z"/><path class="cls-19" d="m202.1,230.4c-.4,0-.7-.1-.7-.5s.2-.6.5-.6.5.2.5.6-.1.5-.4.5h0Z"/><path class="cls-19" d="m200.5,181.3c0,.3-.1.5-.4.6-.3,0-.6-.1-.6-.5,0-.3.1-.5.4-.6.4,0,.6,0,.6.5Z"/><path class="cls-19" d="m200,225.6c-.3,0-.5-.1-.6-.5s.1-.6.5-.6.6.2.6.5c0,.3-.2.5-.4.5,0,0,0,0,0,0h0Z"/><path class="cls-19" d="m197.1,228.4c-.4,0-.5-.2-.5-.6s.2-.5.6-.5.5.2.5.6-.2.5-.6.5Z"/><path class="cls-19" d="m202.8,227.4c.4,0,.6.1.6.4s-.1.6-.5.6c-.3,0-.5-.1-.6-.4,0-.4.1-.6.4-.6h.1Z"/><path class="cls-19" d="m200,223.4c-.2,0-.4-.2-.4-.4,0-.2.1-.3.4-.3.2,0,.4.1.4.3,0,0,0,0,0,0,0,.2-.1.3-.4.3Z"/><path class="cls-21" d="m199.4,228.3c0,.3-.3.5-.6.5-.3,0-.5-.2-.4-.6s.2-.5.5-.5.4.3.5.5h0Z"/><path class="cls-21" d="m200.2,228.7c.3,0,.5.2.5.4,0,0,0,0,0,0,0,.3,0,.5-.4.5s-.6-.1-.6-.4h0c0-.3.2-.4.5-.5h0Z"/><path class="cls-21" d="m200.1,226.9c0,.3-.2.5-.5.5-.2,0-.5-.2-.5-.4h0c0-.3.3-.5.6-.5.3,0,.4.2.4.5h0Z"/><path class="cls-19" d="m201.2,228.1c-.4,0-.5-.2-.4-.4s.2-.5.5-.4c.2,0,.4.2.4.4h0c0,.3-.2.5-.4.5h-.1Z"/><path d="m171.9,210.4c2.1-1.6,5.1-1.3,6.7.8,0,0,0,0,0,0l2.3,3.2-7.9,5.8-2.3-3.2c-1.6-2.1-1.1-5,1-6.6,0,0,0,0,.1,0Zm1.3,1.7c-1.2.7-1.6,2.2-.9,3.4,0,.1.1.2.2.3l1,1.4,4.4-3.3-1-1.4c-.8-1.2-2.4-1.5-3.6-.6,0,0-.1,0-.2.1h.1Z"/><path d="m167.8,210.4c-.7.3-1.4,0-1.7-.7-.3-.7,0-1.4.7-1.7.7-.3,1.4,0,1.7.7h0c.3.6,0,1.4-.7,1.7,0,0,0,0,0,0Zm1.6-.9l-.8-1.9,6.4-2.7.8,1.9-6.4,2.7Z"/><path d="m171.4,199c1.6-.4,2.6.8,2.9,2.3.4,1.2,0,2.5-.9,3.3l-1.4-1.5c.5-.2.7-.8.5-1.3,0-.5-.3-.7-.6-.6-.8.2.4,3.4-1.9,4-1.5.3-2.5-.7-2.9-2.2-.3-1.1,0-2.2.8-3l1.3,1.5c-.3.3-.5.7-.4,1.1,0,.3.2.5.4.5,0,0,0,0,0,0,.8-.2-.5-3.4,2-4h0Z"/><path d="m170.1,190.4c1.9,0,3.5,1.5,3.6,3.4,0,0,0,0,0,.1,0,.8-.3,1.6-.9,2.1h3.5v2.2l-9.8-.3v-2.1h.7c-.5-.6-.8-1.3-.8-2.1.1-1.9,1.8-3.3,3.7-3.2,0,0,0,0,.1,0h-.1Zm0,2.1c-.9,0-1.7.6-1.8,1.6,0,0,0,0,0,0,0,.9.5,1.6,1.4,1.7,0,0,.1,0,.2,0,.9,0,1.7-.6,1.8-1.6,0,0,0,0,0,0,.1-.8-.4-1.6-1.2-1.7-.1,0-.2,0-.4,0h0Z"/><path d="m164.1,187.3l.5-2,9.9,2.5-.5,2-9.9-2.5Z"/><path d="m171.5,177.2l6.3,3.1-.9,1.9-.6-.3c.3.7.2,1.5-.2,2.2-1.1,1.7-3.4,2.2-5.1,1.1-1.5-.9-2.1-2.8-1.5-4.4.3-.7.9-1.3,1.7-1.5l-.6-.3.9-1.9h0Zm2.2,3.4c-.8-.4-1.8-.2-2.3.6,0,0,0,0,0,0-.5.8-.2,1.9.7,2.4.8.5,1.9.2,2.4-.7.5-.8.2-1.9-.7-2.4,0,0,0,0,0,0Z"/><path d="m177.7,170l3.4,6.4c1.1,2.1.9,3.6-.5,5l-1.4-1.3c.6-.5.8-1.4.3-2.1l-6.8-2.5,1.6-1.7,4.2,1.7-2.3-3.9,1.5-1.7h0Z"/><path d="m192,162.4l.6,7.3-1.8.8-2.5-3,.4,3.9-1.8.8-4.8-5.6,2.1-.9,2.4,3.1-.4-3.9,1.8-.8,2.4,3-.5-3.9,2.1-.9h0Z"/><path d="m193.6,160.4c0-.7.4-1.3,1.1-1.4.7,0,1.3.4,1.4,1.1,0,.7-.4,1.3-1.1,1.4,0,0,0,0,0,0-.7,0-1.3-.4-1.4-1.1,0,0,0,0,0,0Zm.5,1.8l2.1-.3,1,6.9-2.1.3-1-6.9Z"/><path d="m201,163.9v2.5c0,.6.5.7,1.4.6v1.9c-2.8.2-3.6-.6-3.5-2.5v-2.5h-1.1v-2h1.1v-1.3l2.1-.6v2h1.4v2h-1.5.1Z"/><path d="m210.6,166.2l-1,4.2-2-.5.9-3.9c.2-.6,0-1.2-.6-1.4,0,0-.2,0-.3,0-.6-.2-1.3.1-1.5.8,0,.1,0,.2,0,.3l-.9,3.7-2-.5,2.3-9.5,2,.5-.8,3.4c.6-.4,1.4-.6,2.1-.4,1.4.3,2.3,1.7,2,3.1,0,0,0,.2,0,.3Z"/><path d="m216.8,174.8v-3.8l-1.8,2.5-1.7-1.2,5.8-7.9,1.7,1.2-3.5,4.7,3.5-1.2,2,1.5-4.1,1.3v4.4l-1.9-1.4h0Z"/><path d="m222,177.8c.3.4.8.7,1.3.7l.3,1.9c-1.2,0-2.3-.5-3-1.5-1.4-1.4-1.3-3.7.1-5.1,0,0,.2-.2.3-.2,1.5-1.3,3.7-1.1,5,.3,0,0,.2.2.2.3,1.2,1.5,1,3.8-.5,5,0,0,0,0-.1,0-.2.2-.5.3-.7.5l-3.1-3.9c-.4.6-.2,1.4.3,1.9h0Zm2.8-.6c.4-.6.4-1.3,0-1.9-.4-.6-1.2-.8-1.8-.5l1.9,2.3h0Z"/><path d="m232.1,185l-7.2.6c-2.4.2-3.7-.6-4.4-2.4l1.8-.8c.2.8,1,1.3,1.8,1.1l4.9-5.3,1,2.1-3.3,3.2,4.4-.6.9,2h.1Z"/><path d="m230.3,194.9c-1.9.4-3.7-.8-4.1-2.7,0,0,0,0,0-.1-.2-.8,0-1.6.5-2.2l-3.4.5-.3-2.1,9.7-1.4.3,2.1h-.7c.6.5,1,1.2,1.1,2,.2,1.9-1.2,3.6-3.1,3.8,0,0,0,0-.1,0h0Zm-.3-2.1c.9,0,1.5-.8,1.4-1.7,0,0,0-.1,0-.2,0-.8-.8-1.5-1.6-1.4-.1,0-.2,0-.3,0-.9,0-1.5.8-1.4,1.7,0,0,0,.1,0,.2,0,.8.8,1.5,1.6,1.4.1,0,.2,0,.3,0h0Z"/><path d="m232.6,204.1l-6.9-1.1.3-2.1h.6c-.5-.6-.7-1.4-.5-2.1.5-2,2.6-3.1,4.6-2.6,1.7.5,2.8,2,2.7,3.8,0,.8-.5,1.5-1.2,1.9h.6c0,.1-.3,2.2-.3,2.2h0Zm-3.1-2.6c.8.2,1.6-.3,1.9-1.1,0-.1,0-.2,0-.3.2-.9-.4-1.7-1.3-1.9,0,0,0,0,0,0-.8-.2-1.6.3-1.9,1.1,0,.1,0,.2,0,.3-.1.9.5,1.7,1.3,1.9,0,0,0,0,0,0h0Z"/><path d="m231,214.7l-8.8-4.3.9-1.9.6.3c-.3-.7-.3-1.6.2-2.2,1-1.7,3.1-2.3,4.8-1.4,1.8.7,2.6,2.8,1.8,4.5,0,0,0,0,0,0-.3.7-.9,1.3-1.7,1.5l3.1,1.5-.9,1.9Zm-4.7-4.7c.8.4,1.8.2,2.3-.6,0,0,0,0,0,0,.4-.8.1-1.7-.6-2.1,0,0-.1,0-.2,0-.8-.4-1.8-.2-2.3.6,0,0,0,0,0,0-.4.8-.1,1.7.6,2.1,0,0,.1,0,.2,0h0Z"/><line class="cls-6" x1="199.7" y1="251.6" x2="200.2" y2="284.4"/><line class="cls-5" x1="199.7" y1="251.6" x2="200" y2="273.7"/><polygon class="cls-23" points="192.5 271.6 200.2 284.4 207.5 271.4 192.5 271.6"/><circle class="cls-4" cx="200" cy="338.6" r="45"/><path d="m166.7,323.4c1.9.7,2.8,2.8,2,4.7l-.6,1.5,3.1,1.2-.9,2.2-9.8-3.8,1.4-3.7c.7-1.9,2.8-2.9,4.7-2.1h.1Zm-.9,2.2c-.7-.3-1.5,0-1.7.7l-.6,1.5,2.5,1,.6-1.5c.3-.7,0-1.4-.8-1.7Z"/><path d="m174,316.9l3.7,2.7-1.3,1.8-3.4-2.5c-.7-.6-1.4-.3-1.9.2-.5.7-.4,1.4.4,2l3.3,2.4-1.3,1.8-8.5-6.2,1.3-1.8,3,2.2c-.2-.7,0-1.5.5-2.3.9-1.2,2.5-1.6,4.2-.4h0Z"/><path d="m175.7,316.3c-1.4-1.8-1.1-4.2.7-5.6,1.7-1.4,4.2-1.1,5.6.6,1.4,1.8,1.1,4.2-.7,5.6-1.7,1.4-4.2,1.1-5.6-.6Zm4.5-3.5c-.7-.8-1.7-.9-2.5-.3s-.9,1.6-.3,2.5c.7.8,1.7.9,2.5.3s.9-1.6.3-2.5Z"/><path d="m189.7,307l1.8,4.2-2.1.9-1.7-3.9c-.4-.9-1.1-1-1.7-.7-.8.3-1.1,1-.7,2l1.6,3.8-2.1.9-2.9-6.9,2.1-.9.3.6c.2-.7.7-1.3,1.6-1.7,1.4-.6,3-.1,3.8,1.8h0Z"/><path d="m195.9,308.7c.6,0,1.1-.4,1.3-.8l1.9.8c-.6,1.1-1.6,1.8-3,2-2.5.4-4.4-1.1-4.7-3.4-.3-2.2,1.1-4.1,3.4-4.5,2.2-.3,4,1.2,4.3,3.4v.9l-5.3.7c.4.7,1.1.9,1.9.8h.2Zm1-2.9c-.4-.8-1.1-1-1.7-1-.8.1-1.4.6-1.5,1.4l3.2-.4Z"/><path d="m201.1,304.6l5.7.6-.2,2.1-5.7-.6.2-2.1Z"/><path d="m216.1,310.2c-.8,2.1-2.9,3.1-4.8,2.4-.9-.4-1.5-.9-1.8-1.6l-.3.7-2.1-.8,3.7-9.8,2.1.8-1.3,3.5c.7-.4,1.5-.4,2.4,0,1.8.7,2.7,2.9,1.9,5l.2-.2Zm-2.1-.8c.4-1.1,0-2-1-2.3-1-.4-1.9,0-2.3,1.1-.4,1.1,0,2,1,2.3,1,.4,1.9,0,2.3-1.1Z"/><path d="m217.2,310.9c1.3-1.8,3.8-2.1,5.6-.8,1.8,1.3,2.2,3.8.8,5.5-1.3,1.8-3.8,2.1-5.6.8-1.8-1.3-2.2-3.8-.8-5.5Zm4.6,3.4c.6-.9.5-1.9-.3-2.5s-1.8-.5-2.4.4-.5,1.9.3,2.5,1.8.5,2.4-.4Z"/><path d="m234.7,318.8l-8.3,6.4-1.4-1.8.6-.4c-.8,0-1.5-.4-2.1-1.2-1.2-1.6-.8-3.9,1-5.3,1.8-1.4,4.1-1.1,5.3.4.6.8.8,1.6.6,2.3l2.9-2.3,1.4,1.8h0Zm-6.7,2.3c.9-.7,1-1.7.4-2.5s-1.6-1-2.5-.3-1,1.7-.4,2.5,1.6,1,2.5.3Z"/><path d="m236.5,329.8l-7.7.4c-2.5,0-3.9-.7-4.6-2.7l1.9-.8c.4,1,.9,1.3,1.9,1.3l5.5-5.5.9,2.3-3.6,3.3,4.8-.5.9,2.2h0Z"/><path d="m240.5,335.2l-10.3,1.9-.4-2.4,7.8-1.4-.8-1.7,1.9-.9,1.5,2.5.4,2.1h0Z"/><path class="cls-22" d="m189.4,371.9c0-.2-.2,0-.4-.2-2-.5-3.4-2.3-3.4-4.4v-38.8c0-2.7,1.1-4.2,3.6-5,0,0,0,0,0,0h3.4c.5,1.4,1.1,2.7,1.6,4,0,.3.4.4.7.4h9.7c.4,0,.7-.2.8-.5.2-.5.4-1,.6-1.5.3-.8.7-1.5.9-2.4h3.3c.2.2.5.2.8.3,1.8.6,3,2.3,3.1,4.2v38.8c0,2.8-1.1,4.3-3.8,5.2h-21.1.1Zm23.7-7.3h0v-33.8c0-.4-.3-.2-.5-.2h-25.5c-.4,0-.5,0-.5.5v33.4h26.5Zm-13.1,3.1h-4.4c-.5,0-.7.2-.6.7,0,.4.4.5.7.5h8.6c.5,0,.7-.2.7-.6s-.3-.5-.7-.5h-4.3Z"/><path class="cls-13" d="m207.2,323.4c-.2.8-.6,1.6-.9,2.4-.2.5-.4,1-.6,1.5,0,.3-.4.6-.8.5h-9.7c-.3,0-.6,0-.7-.4-.5-1.3-1.1-2.6-1.6-3.9h0c0,0,14.4,0,14.4,0h-.1Z"/><path class="cls-1" d="m186.9,364.6c-.2,0,0-.3,0-.4v-33c0-.4,0-.5.5-.5h25.5c.2,0,.4-.2.5.2-.2,0-.3.2-.5.4-.4.5-.7,1-1.1,1.4-1.4,1.8-2.9,3.7-4.3,5.5-1.1,1.5-2.3,2.9-3.4,4.4-1.4,1.8-2.9,3.7-4.3,5.5-1.1,1.5-2.3,2.9-3.4,4.4-1.5,2-3.1,3.9-4.6,5.9-1.1,1.4-2.2,2.8-3.2,4.2s-1.1,1.3-1.5,2h-.2Z"/><path class="cls-16" d="m186.9,364.6c.4-.7,1-1.3,1.5-2,1.1-1.4,2.2-2.8,3.2-4.2,1.5-2,3.1-3.9,4.6-5.9,1.1-1.5,2.3-2.9,3.4-4.4,1.4-1.8,2.9-3.7,4.3-5.5,1.1-1.5,2.3-2.9,3.4-4.4,1.4-1.8,2.9-3.7,4.3-5.5.4-.5.7-.9,1.1-1.4,0-.2.2-.3.5-.4v33.7h-26.3Z"/><path class="cls-8" d="m200,367.7h4.3c.4,0,.7,0,.7.5s-.2.6-.7.6h-8.6c-.3,0-.6,0-.7-.5,0-.4,0-.7.6-.7h4.4Z"/><path d="m198.3,334.3h5.7v25.9h-6.6v-18.9l-4.5,1.1-1.6-5.6s7-2.5,7-2.5Z"/></svg>