<?xml version="1.0" encoding="UTF-8"?><svg id="Layer_1" xmlns="http://www.w3.org/2000/svg" viewBox="0 0 400 400"><defs><style>.cls-1{stroke:#a5262d;}.cls-1,.cls-2,.cls-3{stroke-width:4px;}.cls-1,.cls-2,.cls-3,.cls-4{stroke-miterlimit:10;}.cls-1,.cls-2,.cls-3,.cls-4,.cls-5{fill:none;}.cls-6{fill:#435256;}.cls-7{fill:#fafdfc;}.cls-8{fill:#fff;}.cls-9{fill:#fcfdfd;}.cls-2{stroke:#0018c6;}.cls-10{fill:#a5c2db;}.cls-11{fill:#fcc472;}.cls-12{fill:#2d3b3d;}.cls-13{fill:#f9fdfc;}.cls-3{stroke:#c000e2;}.cls-14{fill:#bbc3c6;}.cls-15{fill:#f15a24;}.cls-16{fill:#fbc372;}.cls-17{fill:#efc319;}.cls-18{fill:#555a6e;}.cls-19{fill:#463c4b;}.cls-20{fill:#a5c3db;}.cls-21{fill:#d3e4ee;}.cls-22{fill:#c69c6d;}.cls-23{fill:#2489c4;}.cls-4{stroke:#231f20;stroke-width:2px;}.cls-24{fill:#26b899;}.cls-25{fill:#58d4fc;}.cls-26{fill:#d6e5ef;}.cls-27{fill:#2487c3;}.cls-28{fill:#efc31a;}.cls-29{fill:#b09146;}.cls-30{fill:#484645;}.cls-31{fill:#2387c3;}.cls-32{fill:#94a4a4;}.cls-33{fill:#fdc472;}.cls-34{fill:#2487c2;}.cls-35{fill:#2387c2;}.cls-36{fill:#a4c2db;}.cls-37{fill:#231f20;}.cls-38{fill:#64c7ef;}.cls-39{fill:#28b99a;}.cls-40{fill:#fccc07;}.cls-41{fill:#f99e3d;}</style></defs><line class="cls-8" x1="164.3" y1="243.6" x2="115.7" y2="282.9"/><line class="cls-4" x1="164.3" y1="243.6" x2="124" y2="276.2"/><polygon class="cls-37" points="121.1 269 115.7 282.9 130.5 280.6 121.1 269"/><line class="cls-8" x1="235.7" y1="246.6" x2="284.3" y2="285.9"/><line class="cls-4" x1="235.7" y1="246.6" x2="276" y2="279.2"/><polygon class="cls-37" points="269.5 283.6 284.3 285.9 278.9 272 269.5 283.6"/><circle class="cls-1" cx="310.1" cy="61.4" r="45"/><path d="m280.8,46.2c-2.8-2.4-3.1-6.6-.7-9.4.1-.1.2-.3.4-.4,1.5-1.7,3.8-2.5,6.1-2.1l-.7,3c-1.2-.2-2.5.2-3.3,1.1-1.4,1.6-1.2,4.1.4,5.5,1.5,1.3,3.8,1.3,5.3-.1.9-.9,1.3-2.2.9-3.4l2.9-.9c.9,3.7-1.3,7.4-5,8.3-2.3.6-4.7,0-6.4-1.7h0Z"/><path d="m292.3,37.5c-1.2-2.5-.2-5.5,2.3-6.7,2.5-1.2,5.5-.2,6.7,2.3,1.2,2.5.2,5.5-2.3,6.7-2.5,1.2-5.5.2-6.7-2.3,0,0,0,0,0,0Zm6.5-3.1c-.6-1.1-1.9-1.4-2.9-.9s-1.4,1.9-.9,2.9c.5,1,1.8,1.4,2.8.9,1.1-.5,1.6-1.7,1.1-2.8,0,0,0-.1,0-.2Z"/><path d="m313.6,31.4c.4,2.6-1.4,5.1-4,5.5-1,.2-2.1-.1-2.9-.8l.5,4.7-2.8.3-1.5-13.2,2.8-.3v.9c.7-.9,1.7-1.4,2.8-1.5,2.6-.2,4.9,1.8,5.1,4.4,0,0,0,0,0,0h0Zm-2.8.3c0-1.2-1.2-2.2-2.4-2.1,0,0,0,0,0,0-1.2,0-2.1,1.1-2,2.3,0,0,0,.2,0,.3,0,1.2,1.2,2.2,2.4,2.1,0,0,0,0,0,0,1.2,0,2.1-1.1,2-2.3,0,0,0-.2,0-.3h0Z"/><path d="m325.8,34.1c-.5,2.6-3,4.3-5.6,3.8-1-.2-1.9-.9-2.5-1.8l-1.1,4.6-2.8-.7,3.2-12.9,2.8.7-.2.9c.9-.5,2-.7,3-.4,2.5.8,4,3.4,3.2,6,0,0,0,0,0,0v-.2Zm-2.8-.7c.3-1.2-.5-2.4-1.7-2.7-1.2-.3-2.4.5-2.7,1.7-.3,1.2.5,2.4,1.6,2.7,1.2.4,2.4-.3,2.8-1.5,0,0,0-.2,0-.2h0Z"/><path d="m330.4,39.8c.6.4,1.2.5,1.9.4l1.2,2.4c-1.5.6-3.2.3-4.5-.7-2.7-1.8-3.2-4.7-1.6-7.1,1.2-2.5,4.1-3.6,6.6-2.4,2.5,1.2,3.6,4.1,2.4,6.6-.2.4-.5.8-.8,1.2-.2.3-.5.6-.7.9l-5.6-3.7c-.2,1,.3,1.9,1.2,2.4h-.2Zm3.4-1.9c.4-.9,0-2-.9-2.4-.8-.6-1.9-.6-2.6,0l3.4,2.3h.1Z"/><path d="m344.4,43l-2.4,2.1c-.6-1-2.1-2-3.5-.7l-3.2,2.8-1.9-2.1,7.2-6.2,1.9,2.1-1.3,1.1c1.2-.4,2.5,0,3.3.9h-.1Z"/><rect class="cls-15" x="284.1" y="53.4" width="52" height="37" rx="2.9" ry="2.9"/><path class="cls-30" d="m301.4,84.2c-3.3.1-6.5-1.2-8.8-3.5-4.7-4.9-4.7-12.7,0-17.6,2.3-2.4,5.5-3.6,8.8-3.5,3.5,0,4.1.5,5.9,1.5,1.8,1,3.3,2.4,4.3,4.1l-5.2,3c-.5-.8-1.2-1.5-2-2-.9-.5-2-.7-3-.7-1.7,0-3.4.6-4.6,1.8-1.2,1.2-1.8,2.9-1.7,4.6-.2,3.3,2.3,6.2,5.6,6.4.2,0,.5,0,.7,0,1.1.1,2.1-.1,3-.7.9-.5,1.5-1.1,2-2l5.2,3c-1,1.7-2.5,3.1-4.3,4.1-1.8,1-3.9,1.5-6,1.5h.1Z"/><path class="cls-30" d="m324.7,66.8h5.6v16.9h-5.6v-1.7c-1.1,1.5-2.9,2.3-4.7,2.2-1.7.1-3.4-.6-4.5-1.9-1.2-1.2-1.7-3-1.7-5.4v-10.1h5.6v9.4c0,.7.2,1.5.7,2,.5.5,1.1.7,1.8.7.7,0,1.5-.3,2-.8.5-.6.8-1.5.7-2.3v-9h.1Z"/><line class="cls-5" x1="199.4" y1="112.7" x2="199.9" y2="145.4"/><line class="cls-4" x1="199.4" y1="112.7" x2="199.8" y2="134.7"/><polygon class="cls-37" points="192.3 132.6 199.9 145.4 207.2 132.4 192.3 132.6"/><line class="cls-5" x1="118.4" y1="108.4" x2="167" y2="147.7"/><line class="cls-4" x1="118.4" y1="108.4" x2="158.6" y2="140.9"/><polygon class="cls-37" points="152.2 145.4 167 147.7 161.6 133.8 152.2 145.4"/><line class="cls-5" x1="281" y1="108.4" x2="232.4" y2="147.7"/><line class="cls-4" x1="281" y1="108.4" x2="240.7" y2="140.9"/><polygon class="cls-37" points="237.7 133.8 232.4 147.7 247.1 145.4 237.7 133.8"/><circle class="cls-1" cx="200" cy="61.4" r="45"/><path d="m173.9,45.8l1-3c1.1.6,2.6.4,3.5-.5,1.1-1,1-1.7.7-2.1-.6-.6-1.4-.4-3.4.6s-4.1,1.5-5.9-.5c-1.8-2-1.1-4.7.7-6.3,1.6-1.5,3.9-1.9,5.9-1l-1,3c-.9-.5-2.1-.4-2.9.4-.8.7-.8,1.4-.4,1.8s1,.6,3-.4,4.3-1.9,6.2.3c1.8,2,1.2,4.7-1.1,6.7s-4.5,2.1-6.5,1.1h.2Z"/><path d="m178.9,29.9c-.4-.9,0-2,.8-2.4.9-.4,2,0,2.4.8.4.9,0,2-.8,2.4h0c-.9.4-1.9,0-2.4-.8Zm1.5,2.3l2.7-1.4,4.5,8.9-2.7,1.4-4.5-8.9Z"/><path d="m184.7,25.2l2.9-.9,4.5,13.9-2.9.9-4.5-13.9Z"/><path d="m191.3,25.3c-.2-1,.5-1.9,1.5-2.1,1-.2,1.9.5,2.1,1.5.2,1-.5,1.9-1.5,2.1-1,.2-1.9-.5-2.1-1.5,0,0,0,0,0,0Zm.7,2.6l3-.5,1.6,9.9-3,.5-1.6-9.9Z"/><path d="m198,31.9c.1-2.9,2.6-5.1,5.4-4.9,0,0,.2,0,.3,0,1.9,0,3.5,1.2,4.3,2.9l-2.7,1.3c-.5-1.1-1.9-1.6-3-1.1-.7.3-1.2,1.1-1.3,1.9-.2,1.2.7,2.3,1.9,2.5,0,0,.1,0,.2,0,.8,0,1.6-.3,2-1l2.5,1.7c-1,1.6-2.8,2.4-4.7,2.2-2.9-.2-5.1-2.6-4.9-5.5,0,0,0-.1,0-.2v.2Z"/><path d="m208.8,32.9c1.1-2.7,4.2-3.9,6.9-2.8,2.7,1.1,3.9,4.2,2.8,6.9-1.1,2.7-4.2,3.9-6.9,2.8,0,0,0,0,0,0-2.7-1.1-3.9-4.1-2.8-6.8,0,0,0,0,0-.1Zm7,2.9c.5-1.2,0-2.5-1.1-3.1,0,0,0,0,0,0-1.1-.5-2.4,0-2.9,1.1,0,0,0,.1,0,.2-.6,1.1-.1,2.5,1,3,0,0,.1,0,.2,0,1.1.5,2.4,0,2.9-1.1,0,0,0-.1,0-.2Z"/><path d="m228.3,44.2l-4.2,4.5-2.2-2,3.9-4.2c.7-.6.8-1.7.2-2.3,0,0-.1-.1-.2-.2-.7-.7-1.9-.7-2.6,0,0,0-.2.2-.2.3l-3.7,4-2.2-2,6.8-7.4,2.2,2-.6.7c1.1-.2,2.2.2,2.9,1,1.5,1.4,1.8,3.6,0,5.6h0Z"/><rect class="cls-22" x="173" y="52.2" width="52" height="37" rx="2.9" ry="2.9"/><path class="cls-30" d="m195.3,83c-2.2.1-4.3-.5-6.2-1.6-1.6-1-2.8-2.5-3.4-4.3l5.2-3c.7,2,2.6,3.2,4.7,3.1,2.3,0,2.8-.5,2.8-1.6s-.5-1.2-1.6-1.7c-1-.4-2-.7-3-.9-1.9-.4-3.7-1.4-5.1-2.7-1.3-1.2-2-2.9-1.9-4.7,0-2,.8-3.9,2.3-5.3,1.6-1.4,3.8-2.1,5.9-2,1.9,0,3.7.4,5.3,1.4,1.5,1,2.8,2.3,3.5,4l-5.1,3c-.5-1.6-2-2.7-3.7-2.6-1.7,0-1.3,0-1.6.4-.4.2-.6.7-.6,1.1,0,.5.3,1,.8,1.3,1,.6,2.1,1,3.2,1.3,1.1.4,2,.7,2.8,1,.8.3,1.6.7,2.3,1.2.8.5,1.4,1.3,1.9,2.1.4.9.6,2,.6,3,.1,2.1-.8,4.1-2.5,5.4-1.9,1.4-4.2,2.1-6.5,2h0Z"/><path class="cls-30" d="m211.5,63.3c-.6.6-1.4,1-2.3,1-1.8,0-3.3-1.4-3.3-3.2,0-.9.3-1.8,1-2.4.6-.6,1.4-.9,2.3-.9.9,0,1.7.3,2.3.9.6.6,1,1.4,1,2.3,0,.9-.3,1.7-1,2.3Zm-5.5,18.9v-17h6v17h-6Z"/><circle class="cls-2" cx="200.3" cy="196.8" r="45"/><path class="cls-24" d="m233.8,187.1v31.2c-.4.9-1.3,1.6-2.3,1.7h-4.6c-.8-.1-1.5-.1-2.3,0h-3.5c-.6-.1-1.3-.1-1.9,0h-9.4c-.8-.1-1.5-.1-2.3,0h-13.8c-.8-.1-1.5-.1-2.3,0h-3.5c-.6-.1-1.3-.1-1.9,0h-9.5v-34.7h54.6c1.3-.2,2.5.6,3,1.8h-.3Zm-45,15.6h0v3.5c0,2.5,2.1,4.6,4.6,4.6,2.5,0,4.6-2.1,4.6-4.6v-2.3c0-.9-.4-1.3-1.3-1.3h-1.9c-.7,0-1.3.4-1.4,1.1,0,0,0,0,0,0,0,.7.5,1.1,1.4,1.1s.9,0,.9.9c0,1.3-.9,2.4-2.2,2.4-1.2,0-2.3-.8-2.4-2v-6.9c0-.5,0-.9.3-1.3.6-1.1,2-1.5,3.1-.9.7.4,1.2,1.2,1.2,2,.1.8.6,1.3,1.2,1.2.7,0,1.1-.7,1-1.3,0,0,0,0,0,0-.1-2.5-2.3-4.5-4.8-4.4-2.3.1-4.2,2-4.4,4.3v3.8h.1Zm23.1-1.6v5c0,1.6.8,3.1,2.1,3.9,2.1,1.4,5,.9,6.4-1.2.5-.7.8-1.6.8-2.5v-10.8c-.1-.5-.6-.9-1.1-.8-.5,0-1,.3-1.1.8v10.5c0,1.3-.9,2.3-2.2,2.4-1.3,0-2.3-.9-2.4-2.2v-10.5c0-.5-.3-1-.8-1.2-.5-.2-1,0-1.3.4-.2.3-.3.6-.3,1v5.2Zm-11.5,1.6v6.9c0,.6.4,1.1.9,1.2.5,0,1-.2,1.2-.6.1-.2.2-.5.1-.8v-4.8c0-.5.1-.6.6-.6h1.8c2.5,0,4.4-2,4.5-4.5,0-2.4-1.7-4.4-4.1-4.7-1.2-.1-2.4,0-3.6,0s-1.5.4-1.5,1.5v6.5h0Zm-20.8-11v1.6c0,.6.5,1.2,1.1,1.3.6,0,1.2-.4,1.3-1,0,0,0,0,0,0v-1.9c0-.4.1-.5.5-.5h1.7c.6,0,1.2-.4,1.3-1,0-.6-.4-1.2-1-1.3h-3.5c-.7,0-1.2.4-1.3,1.1v1.8h-.1Z"/><path class="cls-14" d="m176.1,220v3.4c0,.9-.5,1.8-1.4,2.2-.8.4-1.7.3-2.4-.3-.6-.5-1-1.3-.9-2.1v-41c0-1.6.2-1.5-1.5-1.5s-2.6-.4-3.1-1.8v-1c.4-1.3,1.7-2,3-1.8h3.5c1.3-.2,2.5.7,2.7,2,0,.2,0,.4,0,.7v41.2h0Z"/><path class="cls-32" d="m171.4,201.5v15h-3c-.6,0-1.3-.3-1.6-.8v-13.5c.4-.5,1-.8,1.7-.7h2.9Z"/><path class="cls-32" d="m171.4,187.7v9.2h-3c-.6,0-1.3-.3-1.6-.8v-7.7c.4-.5,1-.8,1.7-.7h2.9Z"/><path class="cls-9" d="m188.8,202.7v-3.8c.2-2.5,2.4-4.4,4.9-4.2,2.3.2,4.1,2,4.3,4.3,0,.8-.3,1.3-1,1.4s-1.1-.4-1.2-1.2c0-1.2-1-2.2-2.2-2.2,0,0-.1,0-.2,0-.8,0-1.5.5-1.9,1.2-.2.4-.3.8-.3,1.3v6.5c-.2,1.3.7,2.4,2,2.6s2.4-.7,2.6-2c0,0,0-.1,0-.2v-.4c0-.4-.2-.8-.7-.9,0,0-.1,0-.2,0-.9,0-1.4-.5-1.4-1.1s.5-1.2,1.4-1.2h1.9c.9,0,1.3.4,1.3,1.3v2.3c0,2.5-2.1,4.6-4.6,4.6-2.5,0-4.6-2.1-4.6-4.6v-3.5h0v-.2Z"/><path class="cls-7" d="m211.8,201.1v-5c0-.3,0-.7.2-1,.3-.4.8-.6,1.3-.4.5.2.8.7.8,1.2v10.1c0,1.3.9,2.3,2.2,2.4,1.3,0,2.3-.9,2.4-2.2v-10.8c.1-.5.6-.9,1.1-.8.5,0,1,.3,1.1.8v10.8c0,2.5-2.2,4.6-4.7,4.5-.9,0-1.8-.3-2.5-.8-1.3-.9-2.1-2.3-2.1-3.9v-5h.2Z"/><path class="cls-7" d="m200.3,202.6v-6.5c0-1.1.4-1.5,1.5-1.5h3.6c2.4.2,4.2,2.3,4.1,4.7,0,2.5-2,4.4-4.5,4.5h-1.8c-.5,0-.6.1-.6.6v4.8c0,.3,0,.5-.1.8-.2.5-.7.7-1.2.6-.6,0-1-.5-.9-1.1,0,0,0,0,0-.1v-6.8h-.1Zm2.4-3.5v1.8c0,.4,0,.6.5.6h1.8c1.2,0,2.3-1,2.3-2.2,0,0,0,0,0,0h0c0-1.2-1-2.3-2.2-2.3,0,0,0,0,0,0h-1.8c-.4,0-.5.2-.5.5v1.7Z"/><path class="cls-28" d="m198,220v3.1c0,.7-.4,1.3-1.1,1.5h-3.4v-4.6h4.5Z"/><path class="cls-28" d="m207.2,224.6h-3.3c-.7,0-1.3-.5-1.3-1.2,0,0,0,0,0,0v-3.3h4.6v4.5Z"/><path class="cls-28" d="m231.5,220v3.1c0,.7-.4,1.3-1.1,1.5h-3.4v-4.6h4.5,0Z"/><path class="cls-28" d="m185.3,224.6h-3.3c-.7,0-1.3-.5-1.3-1.2,0,0,0,0,0,0v-3.4h4.6v4.6Z"/><path class="cls-13" d="m179.5,191.7v-1.6c0-.7.4-1.2,1.1-1.3h3.5c.6,0,1.2.4,1.3,1,0,.6-.4,1.2-1,1.3h-2c-.4,0-.5.1-.5.5v1.7c0,.6-.5,1.2-1.1,1.3-.6,0-1.2-.4-1.3-1,0,0,0,0,0,0v-1.8h0Z"/><path class="cls-17" d="m191.1,224.6h-3.4v-4.5h0c0-.1,3.4-.1,3.4-.1v4.6Z"/><path class="cls-17" d="m213,224.6h-3.4v-4.6h3.4v4.5h0Z"/><path class="cls-17" d="m218.8,224.6h-3.4v-4.6h3.4v4.6Z"/><path class="cls-17" d="m224.5,224.6h-3.4v-4.5h0c0-.1,3.4-.1,3.4-.1v4.6Z"/><path class="cls-29" d="m209.6,220v4.6h-2.3v-4.6c.8-.1,1.5-.1,2.3,0Z"/><path class="cls-29" d="m191.1,224.6v-4.6c.8-.1,1.5-.1,2.3,0v4.6h-2.3Z"/><path class="cls-29" d="m224.5,224.6v-4.6c.8-.1,1.5-.1,2.3,0v4.6h-2.3Z"/><path class="cls-29" d="m187.6,220.1v4.4h-.1c-.7,0-1.5.1-2.2.1v-4.6h2.3Z"/><path class="cls-29" d="m215.3,220v4.6h-2.3v-4.6h2.3,0Z"/><path class="cls-29" d="m221.1,220.1v4.4h0c-.7,0-1.5.1-2.2.1v-4.6h2.3Z"/><path class="cls-29" d="m215,220h-1.9c.6-.1,1.3-.1,1.9,0Z"/><path class="cls-29" d="m213,224.5h.1c0,.1-.1,0-.1,0Z"/><path class="cls-39" d="m202.6,199.2v-1.8c0-.4,0-.6.5-.5h1.8c1.3,0,2.3,1,2.3,2.3s-1,2.3-2.3,2.3h-1.8c-.5,0-.5-.2-.5-.6v-1.7Z"/><path d="m193.7,167.1c1.6,3.5,0,7.6-3.5,9.2-.2,0-.4.2-.6.2-3.9,1.7-8.4-.1-10.1-4,0,0,0-.1,0-.2-1.5-4,.5-8.5,4.5-10,2.4-.9,5-.6,7.1.8l-2.1,2.6c-2.1-1.3-4.8-.6-6.1,1.5-.7,1.2-.8,2.6-.3,3.9.9,2.3,3.2,3.4,5.9,2.3,1.6-.5,2.7-1.9,2.7-3.5l-3.7,1.4-1.1-2.7,6.9-2.7.5,1.2Z"/><path d="m208.1,164.9c-.1,2.8-2.5,4.9-5.3,4.8,0,0,0,0,0,0h-2.2c0-.1-.2,4.5-.2,4.5l-3.4-.2.7-14.7,5.6.3c2.8,0,5,2.4,4.9,5.2,0,0,0,0,0,0Zm-3.4-.2c0-1-.7-1.9-1.7-2h-2.2c0-.1-.2,3.7-.2,3.7h2.2c.9.1,1.8-.5,1.9-1.4,0,0,0-.2,0-.3h0Z"/><path d="m209.9,170.3l4.2-9,3,1.4-4.1,8.8c-.5,1-.4,2.1,1.2,2.8s2.5.1,3-.9l4.1-8.8,3,1.4-4.2,9c-1.3,2.9-4.3,3.6-7.3,2.2s-4.4-4.1-3-7h.1Z"/><circle class="cls-1" cx="89.9" cy="60.6" r="45"/><path d="m61.2,41.5c-2.5-2.7-2.3-6.9.5-9.4.1,0,.2-.2.3-.3,1.7-1.5,4.1-2,6.3-1.3l-1,2.9c-1.2-.4-2.5-.1-3.4.7-1.6,1.5-1.7,4-.2,5.6,1.4,1.5,3.7,1.7,5.3.4,1-.8,1.4-2,1.3-3.2l3-.5c.3,2.3-.6,4.6-2.4,6-2.8,2.5-7.1,2.2-9.6-.5,0,0-.1-.2-.2-.3h.1Z"/><path d="m73.6,34.2c-.9-2.6.5-5.5,3.1-6.3,2.6-.9,5.5.5,6.3,3.1.9,2.6-.5,5.4-3.1,6.3-2.6.9-5.5-.4-6.4-3,0,0,0,0,0,0Zm6.8-2.4c-.3-1.1-1.4-1.8-2.6-1.5,0,0-.2,0-.2,0-1.1.3-1.7,1.4-1.4,2.4,0,.1,0,.2.1.4.3,1.1,1.4,1.8,2.6,1.5,0,0,.2,0,.2,0,1.1-.3,1.7-1.4,1.4-2.4,0-.1,0-.2-.1-.4Z"/><path d="m95.5,30.7c.1,2.6-2,4.9-4.6,5-1.1,0-2.1-.4-2.8-1.2v.9h-2.9v-13.4h3v4.7c.7-.8,1.7-1.2,2.8-1.1,2.5,0,4.5,2.2,4.5,5.1Zm-2.8,0c0-1.2-.8-2.2-2-2.3,0,0-.2,0-.2,0-1.2,0-2.2.9-2.3,2.1,0,0,0,.1,0,.2,0,1.2.8,2.2,2,2.3,0,0,.2,0,.2,0,1.2,0,2.2-.9,2.3-2.1,0,0,0-.1,0-.2Z"/><path d="m108.5,30.2l-3.4,8.9-2.7-1,.3-.8c-1,.5-2.1.5-3.1,0-2.4-1.1-3.5-3.9-2.5-6.3,1-2.6,3.7-4,6-3.1,1,.3,1.8,1.1,2.2,2.1l.3-.8,2.7,1h.2Zm-4.3,3.4c.5-1.1,0-2.4-1-2.9,0,0-.2,0-.3-.1-1-.5-2.3,0-2.8,1,0,.1,0,.2-.1.4-.5,1.1,0,2.4,1,2.9,0,0,.2,0,.3.1,1,.5,2.3,0,2.8-1,0-.1,0-.2.1-.4Z"/><path d="m114.1,28.7l2.3,1.6-8,11.3-2.3-1.6,8-11.3Z"/><path d="m117.1,40.4l-2.4,2.4c-.6.6,0,1.1.8,2l-1.8,1.8c-2.9-2.4-2.8-4-.9-5.8l2.4-2.4-1.1-1.1,2-1.9,1.1,1.1,1.3-1.3,2.6,1.4-1.9,1.9,1.4,1.4-2,1.9-1.4-1.4h0Z"/><rect class="cls-38" x="62.9" y="50.6" width="52" height="37" rx="2.9" ry="2.9"/><path class="cls-30" d="m80.2,81.4c-3.3.1-6.5-1.2-8.8-3.5-4.7-4.9-4.7-12.7,0-17.6,2.3-2.4,5.5-3.6,8.8-3.5,3.5,0,4.1.5,5.9,1.5,1.8,1,3.3,2.4,4.3,4.1l-5.2,3c-.5-.8-1.2-1.5-2-2-.9-.5-2-.7-3-.7-1.7,0-3.4.6-4.6,1.8-1.2,1.2-1.8,2.9-1.7,4.6-.2,3.3,2.3,6.2,5.6,6.4.2,0,.5,0,.7,0,1.1.1,2.1-.1,3-.7.9-.5,1.5-1.1,2-2l5.2,3c-1,1.7-2.5,3.1-4.3,4.1-1.8,1-3.9,1.5-6,1.5h0Z"/><path class="cls-30" d="m100.9,81.4c-2.4,0-4.7-.9-6.4-2.6-1.7-1.6-2.7-3.9-2.6-6.3,0-2.4.9-4.6,2.6-6.3,1.7-1.7,4-2.6,6.4-2.6,2.4,0,4.7.9,6.4,2.6,3.5,3.5,3.5,9.1,0,12.6-1.7,1.7-4,2.6-6.4,2.6Zm0-5.4c.9,0,1.8-.3,2.4-1,.6-.7,1-1.6,1-2.5,0-.9-.3-1.9-1-2.5-1.3-1.3-3.5-1.3-4.8,0,0,0,0,0,0,0-.6.7-1,1.6-1,2.5,0,.9.3,1.9,1,2.5.6.7,1.5,1,2.4,1h0Z"/><circle class="cls-3" cx="301.9" cy="339.4" r="45"/><path d="m269.1,336.9l-.7-2.3c.9-.2,1.7-.6,1.9-1.8.3-1.1-.1-1.5-.5-1.6-.6-.2-1,.4-1.8,1.8-.8,1.4-1.9,2.7-3.8,2.2-2-.5-2.7-2.4-2.3-4.2.4-1.7,1.5-2.8,3.2-3.2l.7,2.2c-.8.2-1.4.5-1.6,1.5-.2.7,0,1.2.5,1.3s.8,0,1.7-1.5c.8-1.4,1.8-3,4-2.5,2,.5,2.7,2.3,2.2,4.5-.5,2.1-1.9,3.3-3.5,3.5h0Z"/><path d="m270.2,327.5c-1.9-1.1-2.6-3.5-1.5-5.4,1.1-1.9,3.5-2.6,5.4-1.5,1.9,1.1,2.6,3.5,1.5,5.4s-3.5,2.6-5.4,1.5Zm2.8-5c-.9-.5-1.9-.2-2.4.6s-.2,1.8.7,2.4c.9.5,1.9.2,2.4-.6s.2-1.8-.7-2.4Z"/><path d="m274.9,319.6c-1.6-1.6-1.7-4,0-5.6,1-1,2.5-1.4,3.7-1.1l-.5,2.2c-.6-.2-1.2,0-1.6.5-.7.7-.7,1.7,0,2.4.7.7,1.8.7,2.4,0,.5-.5.6-1.1.4-1.6l2.2-.6c.4,1.3,0,2.7-1,3.8-1.6,1.6-4,1.7-5.6,0Z"/><path d="m292.5,312.2l-1.3-.5c-.5.8-1.2,1.4-2.2,1.8-2,.9-3.9.4-4.7-1.4-.5-1.1-.4-2.4.3-3.4-.4-.3-.8-.7-1.1-1.3-.7-1.6,0-3.4,1.9-4.2,1.4-.6,2.9-.4,4.1.7l-1.4,1.9c-.5-.5-1.1-.8-1.7-.5-.5.2-.8.7-.6,1.2s.7.7,1.4,1l2.6,1.2c0-.5,0-1.1-.2-1.7l2.3.2c0,.8,0,1.6,0,2.4l1.8.8-1.3,1.7h.1Zm-3.2-1.4l-2.6-1.1h0c-.2.4-.2.9,0,1.2.3.6.9.9,1.9.5.4-.2.6-.4.9-.6h-.1Z"/><path d="m308.4,310.7h-2.4c0-.1.3-6.2.3-6.2l-2.9,4.3h-.3l-2.5-4.6-.3,6.1h-2.4c0-.1.5-10.6.5-10.6h2.4c0,.1,2.6,4.9,2.6,4.9l3.1-4.5h2.4c0,.1-.5,10.6-.5,10.6Z"/><path d="m313.5,310.8c.6.2,1.2.2,1.5,0l1.3,1.6c-1,.7-2.3.8-3.6.3-2.4-.9-3.3-3.1-2.5-5.2s2.9-3.1,5.1-2.3c2,.8,3,2.9,2.2,5,0,.3-.2.6-.4.8l-5-1.9c0,.8.5,1.3,1.3,1.6h.1Zm2.3-2.1c0-.9-.4-1.4-1.1-1.7-.8-.3-1.5-.1-1.9.5l3,1.1h0Z"/><path d="m328.4,317.4l-2.9,3.6-1.7-1.4,2.8-3.4c.5-.6.5-1.2,0-1.6-.6-.5-1.2-.3-1.8.3l-2.7,3.3-1.7-1.4,2.8-3.4c.5-.6.5-1.2,0-1.6-.6-.5-1.2-.3-1.8.3l-2.7,3.3-1.7-1.4,4.8-5.8,1.7,1.4-.4.5c.6-.2,1.3,0,2.1.6.7.6,1,1.3.9,2,.7-.2,1.5,0,2.3.6,1.3,1.1,1.4,2.8.2,4.2h-.2Z"/><path d="m328.7,319.4c1.9-1.2,4.3-.6,5.5,1.3,1.2,1.9.6,4.3-1.3,5.5s-4.3.6-5.5-1.3c-1.2-1.9-.6-4.3,1.3-5.5Zm3,4.8c.9-.6,1.1-1.6.6-2.4-.5-.8-1.5-1.1-2.4-.5-.9.6-1.1,1.6-.6,2.4s1.5,1.1,2.4.5Z"/><path d="m338.6,330.6l-2.4.8c-.2-.9-1-2-2.4-1.6l-3.2,1.1-.7-2.1,7.1-2.5.7,2.1-1.3.4c1,0,1.8.7,2.1,1.6v.2Z"/><path d="m339.9,339.9l-7.5-1.6c-2.5-.5-3.6-1.7-3.7-3.8l2.1-.3c0,1,.5,1.5,1.5,1.7l6.7-3.9.3,2.5-4.3,2.2,4.7.8.3,2.4h0Z"/><path class="cls-6" d="m292.8,374.5h-10.5c-1-.5-1.2-1.3-1.2-2.3v-26.8c0-.7.2-.9.9-1.1.5,0,.7-.4.7-.9v-3c0-.5-.2-.8-.7-.9-.8-.2-.9-.4-.9-1.1v-6.4c0-.7.3-1.5.8-2,2-1.9,3.9-3.9,5.9-5.9s1.2-.8,2-.8h24.4v.2c.7.5.9,1.2.9,2-.6.2-.8.3-.8.9v6.5c0,.6.2.8.8.9v16.9c-.2-.5-.5-.8-1-.9h-26.3c-.8,0-1.2.4-1.2,1.3v16.2c0,.9.4,1.4,1.4,1.4h26c.7,0,1.2-.2,1.4-.9v3.8c0,1,0,2-1,2.6h-5.4c-.2-.2-.5-.4-.6-.7-.2-.4-.6-.6-1-.6h-12.5c-.5,0-.9,0-1.1.5-.2.3-.5.6-.8.8l-.2.3Zm9.1-44.8v-3.2c0-.6-.3-.9-.8-.9s-.7.4-.7.9v6.5h0c0,.6.3.9.8.9s.7-.3.7-.8v-3.3h0Zm4.7,0v-3.2c0-.6-.3-1-.8-1s-.8.4-.8,1v6.4c0,.6.3,1,.8,1s.8-.3.8-1v-3.1h0Zm4.7,0v-3.2c0-.6-.3-.9-.8-.9s-.8.4-.8,1v6.4c0,.6.3,1,.8,1s.8-.3.8-.9v-3.2h0v-.2Zm-18.8,0v-3.2c0-.6-.3-.9-.7-.9s-.8.3-.8.9v6.4c0,.6.3.9.7.9s.8-.3.8-.9v-3.2h0Zm4.7,0v-3.2c0-.6-.3-1-.8-.9s-.7.4-.7.9v6.4c0,.6.3.9.8.9s.7-.3.7-.9v-3.2h0Zm-11.4,2.1h0v1.3c0,.4.3.7.7.7s.7-.3.8-.7h0v-2.6c0-.4-.3-.8-.7-.8h0c-.4,0-.7.3-.8.8v1.3h0Z"/><path class="cls-12" d="m314.3,323.4h4.8c.9,0,1.6.7,1.6,1.6v4.7c0,.3,0,.6-.5.6s-.6.3-.6.8v10.1c0,.4,0,.7.5.8.5,0,.6.4.6.8v29.6c0,1-.3,1.7-1.2,2.2h-5.2c.9-.6,1-1.6,1-2.6v-37.8c.5,0,.7-.4.7-1v-6.4c0-.5-.2-.9-.7-1,0-.8-.2-1.5-.9-2v-.4Z"/><path class="cls-33" d="m286.6,366.8v-15.5c0-.9.4-1.3,1.2-1.3h22v15c0,1.6-.3,1.8-1.8,1.8h-21.5,0Z"/><path class="cls-41" d="m286.6,366.8h21.5c1.6,0,1.8-.3,1.8-1.8v-15h4.3c.6,0,.9.4,1,.9v17.1c-.2.7-.7.9-1.4.9h-26c-1,0-1.4-.4-1.4-1.4v-.7h.2Z"/><path class="cls-11" d="m315.3,325.6c.5,0,.7.4.7,1v6.4c0,.5-.2.9-.7,1-.6,0-.8-.3-.8-.9v-6.5c0-.6.2-.8.8-.9h0Z"/><path class="cls-11" d="m301.9,329.7v3.3c0,.5-.3.8-.7.8s-.8-.3-.8-.8h0v-6.6c0-.5.3-.9.7-.9s.8.3.8.9v3.2h0Z"/><path class="cls-11" d="m306.6,329.8v3.1c0,.6-.3,1-.8,1s-.8-.3-.8-1v-6.4c0-.6.3-1,.8-1s.8.4.8,1v3.2h0Z"/><path class="cls-11" d="m311.3,329.8v3.2c0,.6-.3,1-.8.9s-.8-.3-.8-1v-6.4c0-.6.3-1,.8-1s.7.4.8.9v3.4Z"/><path class="cls-11" d="m292.5,329.8v3.2c0,.6-.3.9-.8.9s-.7-.3-.7-.9v-6.4c0-.6.3-1,.8-.9s.7.4.7.9v3.2Z"/><path class="cls-11" d="m297.2,329.8v3.2c0,.6-.3.9-.7.9s-.8-.3-.8-.9v-6.4c0-.6.3-.9.7-.9s.8.3.8.9v3.2Z"/><path class="cls-16" d="m285.8,331.9v-1.3c0-.5.3-.8.8-.8s.8.3.8.8h0v2.6c0,.4-.3.7-.7.7h0c-.5,0-.7-.3-.7-.7v-1.3h-.2Z"/><circle class="cls-3" cx="98.1" cy="339.4" r="45"/><path d="m66.5,344l.6-1.1,1.6,1-.7,1.2c.4.5.8,1.1,1,1.8.7,2.4-.6,4.8-3.1,5.5-2.4.7-4.8-.7-5.5-3.1-.7-2.4.6-4.8,3.1-5.5,1-.3,2.1-.2,3,.2Zm.5,2.9l-.9,1.5-1.6-1,1-1.7c-.4,0-.9,0-1.4,0-1.5.4-2.1,1.8-1.8,3.1.4,1.3,1.7,2.1,3.1,1.7,1.5-.4,2.1-1.8,1.8-3.1,0-.2-.1-.4-.2-.6h0Z"/><path d="m61.6,336.3h6.1v1.7h-.6c.5.3.8.9.8,1.8s-.8,2.3-2.5,2.3h-3.8v-1.8h3.5c.8,0,1.1-.5,1.1-1.1s-.4-1.1-1.3-1.1h-3.3v-1.8Z"/><path d="m63.1,327.8l6,1.3-.4,1.8h-.6c.4.4.5,1,.3,1.8-.3,1.6-2,2.6-3.8,2.2-1.8-.4-2.9-2-2.5-3.6s.6-1.3,1.1-1.6h-.6c0,0,.4-1.9.4-1.9h.1Zm2.6,2.4c-.9-.2-1.6.3-1.8,1.1s.3,1.5,1.1,1.7c.9.2,1.6-.3,1.8-1.1.2-.8-.3-1.5-1.1-1.7Z"/><path d="m68.5,321.3l3.4,1.6-.8,1.7-3.2-1.5c-.7-.3-1.2,0-1.5.5-.3.6-.1,1.2.7,1.6l3,1.4-.8,1.7-5.5-2.6.8-1.7.5.2c-.3-.5-.3-1.2,0-1.9.5-1.1,1.8-1.7,3.3-1h.1Z"/><path d="m70.3,317.8l1.8,1.3c.4.3.7,0,1.2-.7l1.4,1c-1.2,2.1-2.2,2.2-3.6,1.2l-1.8-1.3-.6.8-1.4-1,.6-.8-.9-.7.6-1.8,1.4,1,.7-1,1.4,1-.7,1h-.1Z"/><path d="m75,310.2l4.2,4.4-1.3,1.3-.4-.4c0,.6-.2,1.2-.8,1.8-.9.9-2.3.9-3.4-.3l-2.6-2.7,1.3-1.3,2.4,2.5c.5.6,1.1.5,1.5,0,.5-.5.6-1.1,0-1.7l-2.3-2.4,1.3-1.3h.1Z"/><path d="m86.2,306.3l1.8,3.3-1.6.9-1.7-3.2c-.3-.5-.7-.8-1.3-.5-.5.3-.6.8-.3,1.5l1.6,3.1-1.6.9-1.7-3.2c-.3-.5-.7-.8-1.3-.5-.5.3-.6.8-.3,1.5l1.6,3.1-1.6.9-2.9-5.4,1.6-.9.3.5c0-.5.4-1,1.1-1.4.6-.3,1.3-.3,1.8,0,0-.6.4-1.1,1.2-1.5,1.2-.7,2.5-.2,3.2,1.2v-.3Z"/><path d="m87.8,305.2l4.5-1.1.4,1.7-4.5,1.1-.4-1.7Z"/><path d="m94,305.3c0-1.8,1.3-3.3,3.1-3.4,1.2,0,2.3.5,2.8,1.5l-1.6,1c-.2-.4-.7-.7-1.2-.6-.8,0-1.4.6-1.3,1.5,0,.8.6,1.4,1.4,1.4s1-.3,1.2-.7l1.6.9c-.5,1-1.5,1.6-2.7,1.7-1.9,0-3.3-1.3-3.4-3.1v-.2Z"/><path d="m100.5,305.1c.3-1.8,2-2.9,3.7-2.6,1.8.3,3,1.9,2.7,3.7-.3,1.8-2,2.9-3.7,2.6-1.8-.3-3-1.9-2.7-3.7Zm4.6.8c0-.9-.4-1.5-1.1-1.7-.8-.1-1.5.3-1.6,1.2s.4,1.5,1.1,1.7c.8.1,1.5-.3,1.6-1.2Z"/><path d="m116.9,309.8l-1.6,3.4-1.7-.8,1.5-3.3c.3-.6.2-1-.4-1.3s-1,0-1.4.6l-1.5,3.1-1.7-.8,1.5-3.3c.3-.6.2-1-.4-1.3-.6-.3-1,0-1.4.6l-1.5,3.1-1.7-.8,2.6-5.5,1.7.8-.2.5c.4-.3,1.1-.3,1.8,0,.7.3,1,.8,1.1,1.4.5-.3,1.2-.3,2,0,1.3.6,1.7,1.9,1,3.3l.3.3Z"/><path d="m122.8,315.8c-1.2,1.4-3.1,1.6-4.3.5-.6-.5-.9-1.2-.9-1.8l-2,2.3-1.4-1.2,5.7-6.4,1.4,1.2-.4.4c.6,0,1.2.1,1.9.6,1.2,1.1,1.3,3,0,4.4Zm-1.4-1.2c.6-.7.5-1.5,0-2.1s-1.5-.5-2.1.2-.5,1.5,0,2.1,1.5.5,2.1-.2Z"/><path d="m129.5,319.8l-5,3.5-1.1-1.5.5-.3c-.6,0-1.2-.3-1.6-1-.7-1-.6-2.4.7-3.3l3.1-2.2,1.1,1.5-2.8,2c-.6.4-.6,1-.3,1.5.4.5,1,.7,1.7.2l2.7-1.9,1.1,1.5h0Z"/><path d="m129.8,324.5l-2,.9c-.5.2-.3.7,0,1.4l-1.5.7c-1.3-2.1-.9-3,.7-3.7l2-.9-.4-.9,1.6-.8.4.9,1.1-.5,1.3,1.4-1.5.7.5,1.1-1.6.8-.5-1.1h0Z"/><path d="m134.2,332.6l-5.9,1.5-.5-1.8h.6c-.6-.4-1-.9-1.2-1.7-.4-1.6.6-3.2,2.4-3.6,1.8-.5,3.5.5,3.9,2,.2.8,0,1.4-.3,2h.6c0,0,.5,1.6.5,1.6h0Zm-3.4-1c.9-.2,1.3-1,1.1-1.8-.2-.8-.9-1.3-1.8-1-.9.2-1.3,1-1.1,1.8.2.8.9,1.3,1.8,1Z"/><path d="m132.8,337.1h-2.2c-.5.2-.5.6-.4,1.4h-1.7c-.4-2.3.3-3,2-3.1h2.2v-1.1h1.8c0,0,0,.9,0,.9h1.2l.7,1.7h-1.7v1.4h-1.8c0,0,0-1.2,0-1.2h0Z"/><path d="m134.6,339.9v1.8c0,0-6.2-.4-6.2-.4v-1.8c0,0,6.2.4,6.2.4Zm1.7,0c.6,0,1.1.6,1,1.2,0,.6-.6,1.1-1.2,1s-1.1-.6-1-1.2.6-1.1,1.2-1Z"/><path d="m131.4,342.7c1.8.4,2.8,2.1,2.4,3.9-.4,1.8-2.1,2.9-3.9,2.5s-2.8-2.1-2.4-3.9c.4-1.8,2.1-2.9,3.9-2.5Zm-1,4.5c.8.2,1.5-.3,1.7-1.1s-.3-1.5-1.1-1.7c-.8-.2-1.5.3-1.7,1.1s.3,1.5,1.1,1.7Z"/><path d="m127.7,355.9l-3.4-1.6.8-1.7,3.2,1.5c.7.3,1.2,0,1.5-.5.3-.6,0-1.2-.7-1.6l-3-1.4.8-1.7,5.5,2.6-.8,1.7-.5-.2c.3.5.3,1.2,0,1.9-.5,1.1-1.8,1.7-3.3,1h0Z"/><path class="cls-35" d="m77.9,335.1v-8.8c0-1.4.7-2.1,2.1-2.1h30.5c1.4,0,2.1.7,2.1,2.1v28.7c0,1.2-.7,1.9-1.9,1.9h-30.8c-1.2,0-1.9-.8-1.9-1.9v-19.9h-.1Zm19.2,18.2c.4,0,.6-.3.9-.6.9-.8,1.6-1.7,2.1-2.7s.4-.5.8-.5c.9,0,1.9,0,2.8-.2,2.4-.6,3.7-2.2,3.5-4.5,0-1.2-.6-2.4-1.3-3.4-.4-.5-.4-.9,0-1.5.8-1.2,1.3-2.5,1.3-4,1.3-.9,1.1-2.4,0-3.1-.7-.5-1.4-.4-2,0-.2-.3-.6-.4-.9-.5-1.1-.4-2.2-.5-3.4-.4-.5,0-.8,0-1-.6-.5-1.1-1.2-2-2.1-2.7-1.2-1.1-3-1.4-4.5-.6-1,.5-1.8,1.4-2.4,2.3-.3.5-.5,1.2-1,1.5s-1.2,0-1.8,0c-1.1,0-2.1.2-3,.9-.5-.2-.9-.3-1.4-.2-.7.2-1.2.7-1.4,1.4-.2.9.2,1.5.9,2,0,1.6.6,2.9,1.4,4.2.3.4.3.7,0,1.1-.7,1-1.1,2.1-1.3,3.2-.2,1.6.2,3,1.5,4,1.2.9,2.7,1.2,4.2,1.1.8,0,1.4,0,1.6,1,0,.2.2.4.4.6.7.9,1.3,1.8,2.4,2.2,0,.8.4,1.4,1.1,1.8,1,.5,2.5,0,2.6-1.7h0Z"/><path class="cls-18" d="m77.9,335.1v19.9c0,1.2.7,1.9,1.9,1.9h30.8c1.2,0,1.9-.8,1.9-1.9v-19.9h2.4c2.1.5,3.1,2.1,3.1,4.2v23.1h-45.6v-24c0-1.7,1.7-3.3,3.3-3.4h2.2Z"/><path class="cls-26" d="m72.5,362.4h45.7c0,.8,0,1.5-.3,2.3-.5,1.3-1.5,2-2.8,2.3h-39c-1.9,0-3.5-1.6-3.5-3.5v-1h0Z"/><path class="cls-19" d="m118.1,362.4v-23.1c0-2.2-1-3.7-3.1-4.2h3.2c1.9,0,3.4,1.6,3.5,3.4h0v23.9h-3.7,0Z"/><path class="cls-26" d="m99.8,370.6h0c-.9.7-1.2,1.6-1,2.7h-12.3c-.4,0-.5,0-.5-.5,0-1.5.9-2.4,2.2-2.3h2.7c.4,0,.6,0,.6-.5v-1.3h4.1q1.3,0,1.3,1.3c0,.5.2.6.6.6.7,0,1.4,0,2.2,0Z"/><path class="cls-36" d="m99.8,370.6h-2.2c-.4,0-.6,0-.6-.6q0-1.3-1.3-1.3h-4.1v-1.8h8.2v3.7Z"/><path class="cls-20" d="m118.1,362.5h3.6c0,1.1,0,2.2-.7,3.1-.6.9-1.6,1.4-2.7,1.4h-3.2c1.3-.3,2.3-1,2.8-2.3.3-.7.3-1.5.3-2.2h-.1Z"/><path class="cls-10" d="m98.9,373.4c-.2-1.1,0-2,1-2.7h2.6c1.4,0,2,1.2,1.8,2.5,0,.3-.3.2-.5.2h-5,.1Z"/><path class="cls-25" d="m107.2,335.8c0,1.5-.5,2.8-1.3,4-.4.6-.4.9,0,1.5.7,1,1.2,2.1,1.3,3.4.2,2.3-1.1,3.9-3.5,4.5-.9.2-1.9.3-2.8.2-.4,0-.7,0-.8.5-.5,1.1-1.2,2-2.1,2.7-.3.2-.5.5-.9.6,0-.3-.2-.6-.3-.9,1.2-.6,1.8-1.7,2.4-2.8,0-.3,0-.3-.2-.3-1.1-.2-2.3-.5-3.3-.9-.3,0-.6,0-.9,0-1,.4-2.1.7-3.2.9-.5,0-.4.2-.3.6.6,1,1.3,1.9,2.2,2.7l-.2.8c-1.1-.4-1.7-1.3-2.4-2.2-.2-.2-.3-.4-.4-.6-.2-.8-.8-1-1.6-1-1.5,0-3-.2-4.2-1.1-1.3-1-1.7-2.4-1.5-4,.2-1.2.6-2.3,1.3-3.2.3-.4.3-.7,0-1.1-.8-1.3-1.4-2.6-1.4-4.2.3,0,.6.2.9.2,0,1.4.6,2.6,1.4,3.8.9-1.1,1.9-2.1,3-2.9,0,0,.2-.3.2-.4.2-1.1.4-2.2.8-3.3.2-.5,0-.6-.4-.6-1.2,0-2.3.2-3.4.6l-.6-.6c.9-.7,2-.8,3-.9.6,0,1.4.2,1.8,0,.5-.3.6-1,1-1.5.6-.9,1.4-1.8,2.4-2.3,1.5-.8,3.3-.5,4.5.6.9.8,1.6,1.7,2.1,2.7.2.5.5.6,1,.6,1.2,0,2.3,0,3.4.4.3,0,.6.2.9.5-.2.2-.3.5-.6.6-1.1-.4-2.2-.6-3.3-.6s-.6.2-.4.6c.3.9.6,1.9.7,2.8,0,.6.5,1,.9,1.4s.5.4.7.6c.5.5,1,1,1.4,1.5,0,0,.2.4.4,0,.7-1.1,1.2-2.2,1.3-3.5.3,0,.6,0,.9-.2v-.2Zm-17.9,4.9c0,.7,0,1.6,0,2.4s.3.9.7,1.2c1.5,1.1,3.1,2,4.8,2.7.2,0,.5,0,.7,0,1.7-.8,3.4-1.7,4.9-2.8.3-.2.5-.5.5-.8.2-1.9.2-3.9,0-5.8,0-.3-.2-.5-.4-.7-1.6-1.1-3.3-2.1-5.1-2.9h-.6c-1.8.8-3.4,1.7-5,2.8-.2,0-.4.4-.4.7,0,1-.2,2-.2,3.1h0Zm6-12.5c-.3,0-.5,0-.8,0-1.6.5-2.5,1.8-3.3,3.2-.2.3,0,.3.3.3,1.1.2,2.2.5,3.3.9.3,0,.6,0,.9,0,1.1-.4,2.2-.7,3.3-.9.3,0,.4,0,.2-.4-.3-.6-.6-1.1-1-1.6-.8-.9-1.7-1.6-2.9-1.7h0Zm-6.5,20.3h.3q.7,0,.5-.7c-.3-.9-.5-1.8-.7-2.7,0-.3,0-.7-.3-.9-1-.8-1.9-1.6-2.6-2.6-.2-.3-.3-.2-.5,0-.5.7-.8,1.5-1,2.4-.3,1.2-.2,2.4.8,3.3,1,1,2.3,1.1,3.6,1.2h0Zm12.7,0c1.1,0,1.8,0,2.5-.3,1.8-.6,2.6-2,2.3-3.9-.2-1-.6-1.8-1.1-2.6-.2-.4-.3-.4-.6,0-.6.8-1.4,1.6-2.2,2.2-.4.3-.7.8-.7,1.3,0,.8-.3,1.6-.6,2.4q-.3,1,.4,1h0Zm-12.9-5.6c-.2-1.6-.2-3.2,0-4.8-.9.6-1.5,1.4-2.1,2.1-.2.2-.2.4,0,.6h0c.7.7,1.2,1.5,2.1,2.1Zm8-9.4c1.5.7,2.9,1.5,4.2,2.4-.2-1-.4-1.9-.8-2.9,0-.2,0-.4-.4-.4-1,.2-2,.4-3,.8h0Zm-2.6,14.1c-1.5-.7-2.8-1.5-4.2-2.4.2,1,.4,2,.8,2.9,0,.2,0,.3.3.3,1-.2,2-.4,3-.8h.1Zm-4.2-11.6c1.4-1,2.7-1.7,4.2-2.5-1-.3-2-.6-3-.8-.3,0-.3,0-.4.3-.4.9-.6,1.9-.8,2.9h0Zm12.2,2.2c.2,1.6.2,3.2,0,4.8.9-.6,1.5-1.4,2.1-2.1.2-.2,0-.5,0-.7-.6-.7-1.2-1.4-2.1-2h0Zm-5.4,9.4c1.1.4,2,.6,3,.8.2,0,.3,0,.3-.2.4-1,.7-2,.8-3-1.3.9-2.7,1.7-4.2,2.4h.1Z"/><path class="cls-21" d="m104.7,333.2c.3,0,.4-.4.6-.6.7-.3,1.4-.4,2,0,1,.7,1.2,2.2,0,3.1-.3,0-.6.2-.9.2-1.4-.2-2.1-1.2-1.7-2.5v-.3h.1Z"/><path class="cls-21" d="m93.4,353.2l.2-.8c1.3-1.3,2.1-1.3,3.3,0,0,.3.2.6.3.9,0,1.6-1.5,2.2-2.6,1.8-.7-.3-1.1-1-1.1-1.8h-.1Z"/><path class="cls-21" d="m84.2,336c-.3,0-.6,0-.9-.2-.7-.5-1.1-1.1-.9-2,.2-.7.6-1.2,1.4-1.4.5,0,1,0,1.4.2l.6.6c.5,1.7,0,2.6-1.6,2.8Z"/><path class="cls-34" d="m89.3,340.7c0-1,0-2.1.2-3.1,0-.3.2-.5.4-.7,1.6-1.1,3.2-2.1,5-2.8.2,0,.4,0,.6,0,1.8.8,3.5,1.8,5.1,2.9.2,0,.4.4.4.7.2,1.9.3,3.9,0,5.8,0,.3-.2.6-.5.8-1.5,1.1-3.2,2-4.9,2.8-.2,0-.5,0-.7,0-1.7-.8-3.3-1.7-4.8-2.7-.4-.2-.7-.7-.7-1.2,0-.9-.2-1.7,0-2.4h0Zm8.7-.2c0-1.5-1.2-2.7-2.8-2.7s-2.7,1.2-2.7,2.8,1.2,2.7,2.7,2.7,2.7-1.2,2.7-2.7h0Z"/><path class="cls-31" d="m95.3,328.2c1.3,0,2.2.8,2.9,1.7.4.5.7,1,1,1.6.2.3,0,.4-.2.4-1.1.2-2.2.5-3.3.9-.3,0-.6,0-.9,0-1.1-.4-2.2-.7-3.3-.9-.2,0-.4,0-.3-.3.8-1.4,1.6-2.7,3.3-3.2.3,0,.5,0,.8,0h0Z"/><path class="cls-31" d="m88.8,348.5c-1.3,0-2.6-.2-3.6-1.2-1-.9-1.1-2.1-.8-3.3.2-.8.6-1.6,1-2.4.2-.3.3-.3.5,0,.8,1,1.7,1.8,2.6,2.6.3.3.3.6.3.9.2.9.4,1.8.7,2.7q.2.7-.5.7h-.3,0Z"/><path class="cls-31" d="m101.4,348.5q-.7,0-.4-1c.2-.8.5-1.6.6-2.4,0-.5.3-1,.7-1.3.8-.6,1.6-1.4,2.2-2.2.2-.3.4-.3.6,0,.5.8.9,1.7,1.1,2.6.3,1.9-.5,3.3-2.3,3.9-.7.2-1.4.3-2.5.3h0Z"/><path class="cls-27" d="m96.9,352.4c-1.1-1.2-1.9-1.2-3.3,0-.9-.7-1.7-1.7-2.2-2.7s-.2-.5.3-.6c1.1-.2,2.1-.5,3.2-.9.3,0,.6,0,.9,0,1.1.4,2.2.7,3.3.9.2,0,.4,0,.2.3-.6,1.1-1.2,2.2-2.4,2.8v.2Z"/><path class="cls-27" d="m84.2,336c1.5-.2,2.1-1.1,1.6-2.8,1.1-.4,2.2-.6,3.4-.6s.6,0,.4.6c-.4,1.1-.7,2.2-.8,3.3,0,.2,0,.3-.2.4-1.1.9-2.1,1.9-3,2.9-.8-1.2-1.4-2.4-1.4-3.8Z"/><path class="cls-27" d="m104.7,333.2v.3c-.4,1.4.3,2.3,1.7,2.5,0,1.3-.6,2.4-1.3,3.5-.2.3-.3,0-.4,0-.4-.5-.9-1-1.4-1.5s-.4-.4-.7-.6c-.4-.4-.8-.7-.9-1.4,0-1-.4-1.9-.7-2.8-.2-.4,0-.6.4-.6,1.1,0,2.3.2,3.3.6Z"/><path class="cls-23" d="m88.6,342.9c-.9-.6-1.5-1.4-2.1-2.1-.2,0-.2-.4,0-.6h0c.6-.7,1.2-1.5,2.1-2.1-.2,1.6-.2,3.2,0,4.8Z"/><path class="cls-23" d="m96.6,333.5c1-.4,2-.6,3-.8.3,0,.3.2.4.4.4.9.6,1.9.8,2.9-1.3-.9-2.7-1.7-4.2-2.4h0Z"/><path class="cls-23" d="m94,347.6c-1.1.4-2,.6-3,.8-.2,0-.3,0-.3-.3-.4-.9-.6-1.9-.8-2.9,1.3.9,2.7,1.7,4.2,2.4h-.1Z"/><path class="cls-23" d="m89.8,336c.2-1,.4-2,.8-2.9,0-.2,0-.4.4-.3,1,.2,2,.4,3,.8-1.5.7-2.8,1.5-4.2,2.5h0Z"/><path class="cls-23" d="m102,338.2c.9.6,1.4,1.3,2.1,2,.2.2.3.4,0,.7-.7.7-1.2,1.5-2.1,2.1.2-1.6.2-3.2,0-4.8Z"/><path class="cls-23" d="m96.6,347.6c1.4-.7,2.8-1.5,4.2-2.4-.2,1-.4,2-.8,3,0,0,0,.3-.3.2-1-.2-2-.4-3-.8h-.1Z"/><path class="cls-40" d="m98,340.5c0,1.5-1.2,2.8-2.7,2.8s-2.8-1.2-2.8-2.7,1.2-2.8,2.7-2.8h0c1.5,0,2.7,1.2,2.7,2.7h0Z"/></svg>