<?xml version="1.0" encoding="UTF-8"?><svg id="Layer_1" xmlns="http://www.w3.org/2000/svg" viewBox="0 0 400 400"><defs><style>.cls-1{stroke:#a5262d;}.cls-1,.cls-2,.cls-3{stroke-width:4px;}.cls-1,.cls-2,.cls-3,.cls-4{stroke-miterlimit:10;}.cls-1,.cls-2,.cls-3,.cls-4,.cls-5{fill:none;}.cls-6{fill:#bbeb6c;}.cls-7{fill:#68d4f0;}.cls-8{fill:#c7eefd;}.cls-9{fill:#6c7fd7;}.cls-2{stroke:#0018c6;}.cls-3{stroke:#c000e2;}.cls-10{fill:#4f66cf;}.cls-11{fill:#f66c82;}.cls-12{fill:#636c77;}.cls-13{fill:#c9f674;}.cls-14{fill:#fbcc57;}.cls-15{fill:#e9f5fe;}.cls-16{fill:#c69c6d;}.cls-4{stroke:#231f20;stroke-width:2px;}.cls-17{fill:#c5deea;}.cls-18{fill:#484645;}.cls-19{fill:#8e9da9;}.cls-20{fill:#c3dbe6;}.cls-21{fill:#99e4fb;}.cls-22{fill:#b3b3b3;}.cls-23{fill:#a6e9f7;}.cls-24{fill:#231f20;}.cls-25{fill:#69d4f0;}.cls-26{fill:#ec6363;}</style></defs><line class="cls-5" x1="154.7" y1="109.6" x2="188.3" y2="136.8"/><line class="cls-4" x1="154.7" y1="109.6" x2="179.9" y2="130"/><polygon class="cls-24" points="173.5 134.5 188.3 136.8 182.9 122.8 173.5 134.5"/><line class="cls-5" x1="245.3" y1="109.6" x2="211.7" y2="136.8"/><line class="cls-4" x1="245.3" y1="109.6" x2="220" y2="130"/><polygon class="cls-24" points="217 122.8 211.7 136.8 226.4 134.5 217 122.8"/><circle class="cls-1" cx="148" cy="55.6" r="45"/><rect class="cls-22" x="122" y="45.6" width="52" height="37" rx="2.9" ry="2.9"/><path class="cls-18" d="m148.8,75.9l-1.1-3.4h-8l-1,3.4h-6.5l7.5-23.6h7.6l7.8,23.6h-6.3Zm-7.6-8.6h4.8l-2.4-8-2.4,8Z"/><path class="cls-18" d="m156.5,75.9v-24.7h5.6v24.7h-5.6Z"/><path d="m124.1,34.3l-2.4,3.1,1,1.4-1.6,2.1-6.1-9.3,1.9-2.4,10.5,3.7-1.6,2.1-1.6-.6h-.1Zm-2.2-.8l-3.8-1.4,2.3,3.3,1.5-1.9Z"/><path d="m120.8,24.5l1.7-1.4,7,8.4-1.7,1.4-7-8.4Z"/><path d="m133,20.7l3.6,6.6-2,1.1-.3-.6c-.1.8-.6,1.5-1.4,1.8-1.3.7-3,.3-3.8-1.1,0-.1-.1-.2-.1-.3l-2.2-4,2-1.1,2,3.8c.3.6,1.1.9,1.7.6,0,0,0,0,0,0,.7-.3.9-1.1.6-1.8,0,0,0-.1-.1-.2l-2-3.6,2-1.1h-.1Z"/><path d="m147.6,20.2l.8,4.5-2.2.4-.8-4.3c0-.6-.5-1.1-1.1-1,0,0-.1,0-.2,0-.7,0-1.1.7-.9,1.6l.7,4.2-2.2.4-.8-4.3c0-.6-.5-1.1-1.1-1,0,0-.1,0-.2,0-.7,0-1.1.7-.9,1.6l.7,4.2-2.2.4-1.3-7.4,2.2-.4v.7c.4-.7,1.1-1.1,1.9-1.2.8-.2,1.6,0,2.1.6.4-.8,1.1-1.3,2-1.4,1.7-.3,3,.7,3.3,2.6l.2-.2Z"/><path d="m149.9,17.8l2.2.2-.6,7.5-2.2-.2.6-7.5Zm0-2c0-.7.8-1.3,1.5-1.2.7,0,1.3.8,1.2,1.5s-.8,1.3-1.5,1.2c0,0,0,0,0,0-.7,0-1.3-.7-1.2-1.4,0,0,0,0,0-.1Z"/><path d="m160.9,22.9l-1.2,4.4-2.2-.6,1.1-4.1c.2-.7-.1-1.4-.8-1.7,0,0,0,0-.1,0-.7-.3-1.5,0-1.7.8,0,.1,0,.2,0,.3l-1.1,3.9-2.2-.6,2-7.2,2.2.6-.2.7c.7-.5,1.5-.6,2.3-.3,1.5.4,2.4,1.9,2,3.4,0,.1,0,.2,0,.3h0Z"/><path d="m170.5,24.9l-3.8,6.4-1.9-1.2.4-.6c-.8.3-1.6.2-2.3-.3-1.3-.8-1.8-2.5-1-3.8,0-.1.1-.2.2-.3l2.4-4,1.9,1.2-2.2,3.7c-.4.5-.3,1.2.2,1.6,0,0,.2.1.2.2.6.4,1.5.2,1.9-.4,0,0,0-.1.1-.2l2.1-3.5,1.9,1.2h0Z"/><path d="m178.3,37.2l-3.5,3-1.5-1.7,3.4-2.9c.6-.5.7-1.1.2-1.6-.4-.5-1.2-.6-1.7-.1,0,0,0,0-.1.1l-3.2,2.7-1.5-1.7,3.4-2.9c.6-.5.7-1.1.2-1.6-.4-.5-1.2-.6-1.7-.1,0,0,0,0-.1.1l-3.2,2.7-1.5-1.7,5.7-4.9,1.5,1.7-.5.4c.8,0,1.5.3,2,.9.5.6.7,1.4.5,2.1.8,0,1.7.3,2.2,1,1,1.2.9,3-.3,4,0,0-.1.1-.2.2v.3Z"/><circle class="cls-1" cx="252" cy="55.6" r="45" transform="translate(156.8 295.4) rotate(-80.8)"/><path d="m225.9,40l1-3c1.1.6,2.6.4,3.5-.5,1.1-1,1-1.7.7-2.1-.6-.6-1.4-.4-3.4.6s-4.1,1.5-5.9-.5-1.1-4.7.7-6.3c1.6-1.5,3.9-1.9,5.9-1l-1,3c-.9-.5-2.1-.4-2.9.4-.8.7-.8,1.4-.4,1.8s1,.6,3-.4,4.3-1.9,6.2.3c1.8,2,1.2,4.7-1.1,6.7s-4.5,2.1-6.5,1.1h.2Z"/><path d="m230.9,24.1c-.4-.9,0-2,.8-2.4.9-.4,2,0,2.4.8.4.9,0,2-.8,2.4h0c-.9.4-1.9,0-2.4-.8Zm1.5,2.3l2.7-1.4,4.5,8.9-2.7,1.4-4.5-8.9Z"/><path d="m236.7,19.4l2.9-.9,4.5,13.9-2.9.9-4.5-13.9Z"/><path d="m243.3,19.5c-.2-1,.5-1.9,1.5-2.1,1-.2,1.9.5,2.1,1.5.2,1-.5,1.9-1.5,2.1-1,.2-1.9-.5-2.1-1.5,0,0,0,0,0,0Zm.7,2.6l3-.5,1.6,9.9-3,.5-1.6-9.9Z"/><path d="m249.9,26.1c.1-2.9,2.6-5.1,5.4-4.9,0,0,.2,0,.3,0,1.9,0,3.5,1.2,4.3,2.9l-2.7,1.3c-.5-1.1-1.9-1.6-3-1.1-.7.3-1.2,1.1-1.3,1.9-.2,1.2.7,2.3,1.9,2.5,0,0,.1,0,.2,0,.8,0,1.6-.3,2-1l2.5,1.7c-1,1.6-2.8,2.4-4.7,2.2-2.9-.2-5.1-2.6-4.9-5.5,0,0,0-.1,0-.2v.2Z"/><path d="m260.8,27.1c1.1-2.7,4.2-3.9,6.9-2.8,2.7,1.1,3.9,4.2,2.8,6.9-1.1,2.7-4.2,3.9-6.9,2.8,0,0,0,0,0,0-2.7-1.1-3.9-4.1-2.8-6.8,0,0,0,0,0-.1Zm7,2.9c.5-1.2,0-2.5-1.1-3.1,0,0,0,0,0,0-1.1-.5-2.4,0-2.9,1.1,0,0,0,.1,0,.2-.6,1.1-.1,2.5,1,3,0,0,.1,0,.2,0,1.1.5,2.4,0,2.9-1.1,0,0,0-.1,0-.2Z"/><path d="m280.3,38.2l-4.2,4.5-2.2-2,3.9-4.2c.7-.6.8-1.7.2-2.3,0,0-.1-.1-.2-.2-.7-.7-1.9-.7-2.6,0,0,0-.2.2-.2.3l-3.7,4-2.2-2,6.8-7.4,2.2,2-.6.7c1.1-.2,2.2.2,2.9,1,1.5,1.4,1.8,3.6,0,5.6h0Z"/><rect class="cls-16" x="225.1" y="46.1" width="52" height="37" rx="2.9" ry="2.9"/><path class="cls-18" d="m247.3,77.2c-2.2.1-4.3-.5-6.2-1.6-1.6-1-2.8-2.5-3.4-4.3l5.2-3c.7,2,2.6,3.2,4.7,3.1,2.3,0,2.8-.5,2.8-1.6s-.5-1.2-1.6-1.7c-1-.4-2-.7-3-.9-1.9-.4-3.7-1.4-5.1-2.7-1.3-1.2-2-2.9-1.9-4.7,0-2,.8-3.9,2.3-5.3,1.6-1.4,3.8-2.1,5.9-2,1.9,0,3.7.4,5.3,1.4,1.5,1,2.8,2.3,3.5,4l-5.1,3c-.5-1.6-2-2.7-3.7-2.6-1.7,0-1.3,0-1.6.4-.4.2-.6.7-.6,1.1,0,.5.3,1,.8,1.3,1,.6,2.1,1,3.2,1.3,1.1.4,2,.7,2.8,1,.8.3,1.6.7,2.3,1.2.8.5,1.4,1.3,1.9,2.1.4.9.6,2,.6,3,.1,2.1-.8,4.1-2.5,5.4-1.9,1.4-4.2,2.1-6.5,2h0Z"/><path class="cls-18" d="m263.5,57.5c-.6.6-1.4,1-2.3,1-1.8,0-3.3-1.4-3.3-3.2,0-.9.3-1.8,1-2.4.6-.6,1.4-.9,2.3-.9.9,0,1.7.3,2.3.9.6.6,1,1.4,1,2.3,0,.9-.3,1.7-1,2.3Zm-5.1,19.2v-16.9h5.6v16.9h-5.6Z"/><circle class="cls-2" cx="200" cy="190.8" r="45"/><path class="cls-10" d="m216.8,175.3h.2c3.2-.2,5.9,2.3,6.1,5.5,0,0,0,.2,0,.3v37.7c0,2.7-1.8,5.1-4.4,5.7-.6.1-1.2.2-1.7.3h-.2c0-.2-.2-.2-.3,0h-1.2c0-.4.4-.3.6-.4,2.1-.9,3.5-2.9,3.6-5.2v-38.4c0-2.3-1.5-4.3-3.6-5.1-.2,0-.6,0-.6-.4h1.2c0,0,.2,0,.3,0Z"/><path class="cls-9" d="m215.4,175.3c0,.4.4.3.6.4,2.1.8,3.5,2.8,3.6,5.1v38.4c0,2.3-1.5,4.3-3.6,5.2-.2,0-.6,0-.6.4h-32.2c-.6,0-1.1,0-1.7-.2-2.7-.6-4.6-3.1-4.5-5.9v-37.1c-.2-3.2,2.3-5.9,5.5-6.1.2,0,.4,0,.6-.1h32.3Zm3.2,20.5v-13.7c0-1.2-.9-2.1-2.1-2.2h-32.7c-1.2,0-2.2,1.1-2.2,2.3v35.5c-.1,1.3.8,2.5,2.1,2.6.2,0,.3,0,.5,0h31.7c1.9,0,2.7-.8,2.7-2.7v-21.8h0Z"/><path class="cls-9" d="m216.6,224.8c0-.1.2-.1.3,0h-.3Z"/><path class="cls-9" d="m216.8,175.3c0,.1-.2.1-.3,0h.3Z"/><path class="cls-15" d="m213.3,220.2h-29.1c-1.3.2-2.4-.7-2.6-2,0-.2,0-.4,0-.6v-21.9h33.3v21.5c0,1.4-.3,2.4-1.6,2.9h0Zm-6.9-14.7h-2.8c-1.1-.1-2.1.7-2.2,1.8,0,0,0,.1,0,.2,0,1.2.9,2.2,2.1,2.2,0,0,0,0,.1,0h6.4c1.2,0,2.1-1,2.1-2.2,0,0,0,0,0,0,0-1.1-.9-2-2-2,0,0,0,0-.1,0h-3.6,0Zm-13.4-5.2h-2.3c-.9,0-1.2.3-1.4,1.2l-.9,5.4c-.1.5,0,1,.4,1.4.4.4.9.3,1.4,0,.8-.3,1.6-.5,2.4-.4,1.6.2,2.7,1.7,2.4,3.3-.2,1.6-1.7,2.7-3.3,2.4-1.2-.2-2.2-1.1-2.4-2.3-.3-.9-.7-1.3-1.5-1.1-.6.3-1,.9-.8,1.6.6,2.7,3.2,4.5,6,4,2.9-.4,4.8-3.1,4.4-6s-3.1-4.8-6-4.4h0q-.6,0-.5-.6c.2-.7.3-1.4.3-2.1,0-.4.2-.5.6-.5h3.5c.8,0,1.2-.4,1.2-1.1s-.4-1.1-1.2-1.1h-2.4v.2Zm12.6-.3h-2.8c-.6,0-1.2.4-1.3,1,0,0,0,0,0,0,0,.7.5,1.2,1.2,1.2h5.7c.6,0,1.1-.4,1.2-1,0,0,0-.1,0-.2,0-.7-.5-1.1-1.3-1.1h-2.7Zm1.5,14.9c0,.7.5,1.2,1.2,1.3.7,0,1.2-.6,1.3-1.3,0-.6-.6-1.2-1.2-1.2-.6,0-1.2.5-1.2,1.1,0,0,0,0,0,0h-.1Zm-2.9,0c0-.7-.5-1.2-1.2-1.2-.7,0-1.2.5-1.2,1.2,0,.7.5,1.2,1.2,1.3.7,0,1.2-.5,1.2-1.2,0,0,0,0,0-.1h0Z"/><path class="cls-8" d="m214.9,195.8h-33.3c-.1-2.2,0-4.4,0-6.6h2.6c1.7.2,2.9-.2,3.6-1.9.2-.6.5-.4.7,0,.8,1.4,1.7,2.8,2.5,4.2.2.5.7.9,1.3.9.6,0,.9-.5,1.1-1,.5-1.3,1.1-2.5,1.7-3.8.3.4.6.8.8,1.1.2.4.7.7,1.2.7h10.8c.6.5,1.1,1.1,1.7,1.6.3.4.8.4,1.2.1,0,0,0,0,.1-.1.8-.9,1.7-1.7,2.5-2.5.8-.6.9-1.7.4-2.5-.5-.7-1.5-1-2.3-.6-.8.4-1.6.4-2.4,0-1.5-.5-2.5.1-2.7,1.8h-7.9c-.5,0-1-.2-1.3-.7-.3-.6-.8-1.1-1.1-1.7-.3-.5-.8-.7-1.3-.7-.5,0-.8.5-1,.9-.5,1.2-1,2.5-1.6,3.8-.2-.2-.4-.5-.5-.8l-2.4-3.9c-.3-.6-1-.8-1.5-.5-.2.1-.4.3-.5.5-.5.8-1,1.5-1.5,2.3-.2.3-.5.4-.8.4h-3.4v-4.6c0-1.2.9-2.3,2.2-2.3,0,0,0,0,0,0h29.5c1.2.4,1.9,1.7,1.6,2.9v13h0Z"/><path class="cls-8" d="m213.3,220.2c1.4-.5,1.7-1.5,1.6-2.9v-21.5h3.7v21.8c0,1.9-.8,2.7-2.7,2.7h-2.6Z"/><path class="cls-21" d="m207.9,189.3h-10.8c-.5,0-1-.3-1.2-.7-.2-.4-.5-.8-.8-1.1-.6,1.3-1.1,2.6-1.7,3.8-.2.5-.5,1-1.1,1-.6,0-1.1-.3-1.3-.9-.8-1.4-1.7-2.8-2.5-4.2-.2-.4-.5-.6-.7,0-.7,1.7-1.9,2.1-3.6,1.9-.9,0-1.7,0-2.6,0v-2.4h3.4c.3,0,.6-.1.8-.4.5-.8,1-1.6,1.5-2.3.3-.6,1-.8,1.5-.5.2.1.4.3.5.5l2.4,3.9c.1.2.3.4.5.8.6-1.3,1.1-2.6,1.6-3.8.2-.5.5-.9,1-.9.5,0,1,.2,1.3.7.4.5.8,1.1,1.1,1.7.3.5.8.7,1.3.7h7.9c.1,1,1,1.5,1.6,2.2h-.1Z"/><path class="cls-23" d="m218.6,195.8h-3.7v-13c0-1.4-.3-2.3-1.6-2.9h3.2c1.2,0,2.1,1,2.1,2.2,0,0,0,0,0,0v13.7Z"/><path class="cls-19" d="m192.9,200.3h2.4c.8,0,1.2.4,1.2,1.1s-.4,1.1-1.2,1.1h-3.5c-.3,0-.5,0-.6.5,0,.7-.2,1.4-.3,2.1-.1.5,0,.6.5.6,2.7-.4,5.3,1.4,5.8,4.1.6,2.9-1.2,5.7-4.1,6.3,0,0,0,0-.1,0-2.8.5-5.4-1.3-6-4-.2-.8.1-1.5.8-1.6s1.2.2,1.5,1.1c.3,1.5,1.6,2.5,3.1,2.3,1.4,0,2.6-1.1,2.7-2.5.3-1.6-.8-3-2.4-3.3,0,0,0,0-.1,0-.8,0-1.6,0-2.4.4-.4.3-1,.3-1.4,0-.5-.3-.5-.8-.4-1.4l.9-5.4c.2-.9.5-1.2,1.4-1.2h2.3v-.2Z"/><path class="cls-13" d="m206.7,209.7h-3.2c-1.2,0-2.2-.9-2.2-2.1,0,0,0,0,0,0,0-1.1.9-2,2-2,0,0,.1,0,.2,0h2.8c.1,0,.2.1.3.2,1,.5,1.5,1.7,1,2.8-.2.3-.4.6-.7.8-.1.1-.3.2-.3.4h0Z"/><path class="cls-19" d="m205.5,200h2.7c.8,0,1.3.4,1.3,1.1,0,.6-.4,1.1-1,1.2,0,0-.1,0-.2,0h-5.7c-.7,0-1.2-.5-1.2-1.2,0-.6.6-1.1,1.2-1.1,0,0,0,0,0,0h2.8Z"/><path class="cls-6" d="m206.7,209.7c0-.2.1-.3.3-.4.9-.7,1.2-1.9.5-2.9-.2-.3-.5-.6-.8-.7-.1,0-.2-.1-.3-.2h3.4c1.1,0,2,.8,2.1,1.9,0,0,0,0,0,.1,0,1.1-.8,2.1-1.9,2.2,0,0-.1,0-.2,0h-3.1,0Z"/><path class="cls-21" d="m207,215c0-.6.5-1.2,1.1-1.2,0,0,0,0,0,0,.6,0,1.2.6,1.2,1.2,0,.7-.6,1.2-1.3,1.3-.7,0-1.2-.6-1.2-1.3h.1Z"/><path class="cls-21" d="m204,214.9c0,.7-.5,1.2-1.2,1.2s-1.2-.5-1.2-1.2h0c0-.7.5-1.2,1.2-1.2s1.2.5,1.2,1.2h0Z"/><path class="cls-26" d="m207.9,189.3c-.5-.7-1.4-1.2-1.6-2.2.1-1.6,1.1-2.3,2.7-1.8.8.3,1.6.3,2.4,0,.9-.4,2,0,2.4.9.4.8.1,1.7-.5,2.2-.8.9-1.7,1.7-2.5,2.5-.3.4-.8.4-1.2.1,0,0,0,0-.1-.1-.5-.6-1.1-1.1-1.7-1.6h.1Z"/><path d="m158.9,186.2l11.2.5v2.6l-4.6-.2-.2,3.5,4.4.2v2.6l-11.3-.5v-2.6l4.4.2.2-3.5-4.3-.2v-2.6h.2Z"/><path d="m169.9,181.2c.2-.5.2-1.2,0-1.7l1.7-1.4c.8,1.1.9,2.5.4,3.8-.6,2.2-2.9,3.5-5.1,2.9-.1,0-.3,0-.4-.1-2.2-.8-3.3-3.1-2.5-5.3.8-2.2,3.1-3.3,5.3-2.5h0c.3.1.6.3.9.4l-1.9,5.3c.8,0,1.5-.6,1.7-1.4h-.1Zm-2.2-2.4c-.8,0-1.5.4-1.8,1.2-.3.8,0,1.6.6,2.1l1.2-3.2h0Z"/><path d="m171.6,166.4l6.5,4.7-1.4,1.9-.6-.4c.2.9,0,1.8-.6,2.5-1.4,1.7-3.9,2-5.6.7,0,0,0,0,0,0-1.8-1.2-2.4-3.7-1.2-5.6.5-.8,1.3-1.3,2.2-1.4l-.6-.4,1.4-1.9Zm1.8,4.3c-.8-.6-1.9-.5-2.6.2,0,0,0,.1-.1.2-.6.8-.5,1.9.2,2.5,0,0,.2.1.3.2.8.6,1.9.5,2.6-.2,0,0,0-.1.1-.2.6-.8.5-1.9-.2-2.5,0,0-.2-.1-.3-.2h0Z"/><path d="m171.4,161.7l1.8-1.6,7.8,8.7-1.8,1.6-7.8-8.7Z"/><path d="m181.4,161.5l1.5,2.4c.4.6.9.3,1.8-.3l1.2,1.8c-2.5,2-3.7,1.7-5-.2l-1.5-2.4-1.1.7-1.2-1.9,1.1-.7-.8-1.3,1.6-1.9,1.2,1.9,1.4-.9,1.2,1.9-1.4.9Z"/><path d="m192.1,157.8l1.6,4.6-2.3.8-1.5-4.3c-.2-.7-.9-1.1-1.6-1,0,0-.2,0-.2,0-.8.3-1.2,1.2-.9,2,0,0,0,0,0,.1l1.5,4.1-2.3.8-3.7-10.6,2.3-.8,1.3,3.7c.3-.8,1-1.4,1.8-1.7,1.5-.6,3.2.2,3.8,1.7,0,.1,0,.3.1.4h0Z"/><path d="m210.6,158.1l-.6,4.9-2.4-.3.6-4.7c.1-.8-.2-1.3-1-1.4s-1.3.4-1.4,1.3l-.6,4.5-2.4-.3.6-4.7c.1-.8-.2-1.4-1-1.4s-1.3.4-1.4,1.3l-.6,4.5-2.4-.3,1-7.9,2.4.3v.7c1.1-1,2.7-1,3.7,0,.1.2.3.3.4.5.6-.7,1.5-1,2.4-.8,1.6.2,2.8,1.6,2.7,3.3,0,.1,0,.3,0,.4h0Z"/><path d="m212.1,159.8c1.1-2.1,3.6-2.9,5.7-1.8,2.1,1.1,2.9,3.6,1.8,5.7-1.1,2.1-3.6,2.9-5.7,1.8,0,0,0,0,0,0-2.1-1-2.9-3.6-1.8-5.6,0,0,0,0,0,0Zm5.4,2.8c.5-.8.2-1.9-.6-2.4,0,0-.1,0-.2-.1-.8-.5-1.9-.2-2.4.6,0,0,0,.1,0,.2-.5.8-.2,1.9.6,2.4,0,0,.1,0,.2.1.8.5,1.9.2,2.4-.6,0,0,0-.1,0-.2h0Z"/><path d="m227.3,169.4l-3.4,3.6-1.7-1.6,3.1-3.3c.6-.5.6-1.3.1-1.9,0,0,0,0-.1-.1-.6-.6-1.4-.6-2.2.2l-3,3.2-1.7-1.6,5.5-5.8,1.7,1.6-.5.5c.9-.1,1.7.2,2.3.9,1.2,1.2,1.3,3.1.2,4.3,0,0-.1.1-.2.2v-.2Z"/><path d="m231,169.4l1.4,2-6.6,4.6-1.4-2,6.6-4.6Zm1.6-1.4c.7-.4,1.6-.3,2,.4.4.7.3,1.6-.4,2-.7.4-1.6.3-2-.4-.4-.7-.3-1.6.4-2Z"/><path d="m233,177.2l-2.5,1.2c-.6.3-.4.9.1,1.8l-2,1c-1.7-2.7-1.2-3.9.8-4.9l2.5-1.2-.6-1.2,2.1-1,.6,1.2,1.4-.7,1.7,1.8-2,1,.7,1.5-2.1,1-.7-1.5Z"/><path d="m232.7,180.4c2.3-.5,4.6.9,5.1,3.2.6,2.2-.8,4.5-3,5.1,0,0-.1,0-.2,0-2.3.5-4.6-.9-5.1-3.2-.5-2.3.9-4.6,3.1-5.1,0,0,0,0,0,0Zm1.4,5.9c1-.2,1.6-1.1,1.4-2,0,0,0-.1,0-.2-.2-1-1.2-1.6-2.2-1.4,0,0,0,0-.1,0-1,.2-1.6,1.1-1.4,2,0,0,0,.1,0,.2.2,1,1.2,1.6,2.2,1.4,0,0,0,0,.1,0h0Z"/><path d="m238.7,195.2h-2.7c.3-1-.2-2-1.2-2.3-.2,0-.4,0-.6,0h-3.6v-2.4h8v2.4h-1.4c1,.3,1.7,1.3,1.6,2.4h-.1Z"/><path d="m231.6,202.1c-1.8-.4-2.3-2.1-1.9-3.8.2-1.4,1.1-2.6,2.5-3l.7,2.3c-.6,0-1.1.5-1.2,1.1,0,.6,0,.9.3.9.9.2,1.2-3.8,3.9-3.2,1.7.3,2.3,2,1.9,3.6-.2,1.3-1.1,2.3-2.3,2.7l-.7-2.2c.5,0,.8-.4.9-.9,0-.4,0-.7-.3-.7-.9-.2-1.1,3.8-4,3.2h.2Z"/><line class="cls-5" x1="199.7" y1="243.8" x2="200.2" y2="276.6"/><line class="cls-4" x1="199.7" y1="243.8" x2="200" y2="265.8"/><polygon class="cls-24" points="192.5 263.7 200.2 276.6 207.5 263.5 192.5 263.7"/><circle class="cls-3" cx="200" cy="329.2" r="45"/><path d="m159.5,329.4l.6-2.5h7.6c0,0-6.7-3.7-6.7-3.7l.4-1.9,7.6-.3-6.8-3.4.6-2.5,9.6,5.2-.6,2.7-6.4.3,5.7,3.1-.6,2.7-10.9.5v-.2Z"/><path d="m171.1,307.7l6.3,4.1-1.2,1.9-.6-.4c.2.7.1,1.5-.4,2.4-1.1,1.7-3.4,2.1-5.3.9-1.9-1.2-2.5-3.5-1.4-5.2.5-.8,1.2-1.3,2-1.4l-.6-.4,1.2-1.9Zm1.9,3.9c-.9-.6-1.9-.4-2.5.5s-.4,1.9.6,2.5,1.9.4,2.5-.5.4-1.9-.6-2.5Z"/><path d="m176.6,305.3l1.9,1.9c.5.5.9.1,1.6-.6l1.4,1.5c-1.9,2.3-3.1,2.2-4.6.7l-1.9-1.9-.9.8-1.5-1.5.9-.8-1-1,1.1-2.1,1.5,1.5,1.1-1.1,1.5,1.5-1.1,1.1Z"/><path d="m179.5,304.6c-1.2-1.9-.7-4.2,1.2-5.5,1.2-.8,2.7-.8,3.9-.2l-1,2c-.5-.3-1.1-.3-1.7,0-.8.5-1,1.5-.5,2.4.6.9,1.5,1.1,2.4.5.6-.4.9-.9.8-1.5h2.3c0,1.2-.6,2.5-1.8,3.3-1.9,1.2-4.3.7-5.5-1.2v.2Z"/><path d="m193.4,297.1l1.4,4.4-2.1.7-1.3-4.1c-.3-.9-1-1.1-1.7-.9-.8.3-1.2.9-.8,1.9l1.3,3.9-2.1.7-3.3-10,2.1-.7,1.2,3.5c.2-.7.8-1.2,1.7-1.5,1.4-.5,3,.1,3.6,2.1Z"/><path d="m195.4,295.8l5.7-.4.2,2.2-5.7.4-.2-2.2Z"/><path d="m202.5,298.5l2.2-.8c.2.9.8,1.6,1.9,1.8,1.1.2,1.5-.2,1.5-.6,0-.6-.4-1-1.9-1.7s-2.8-1.7-2.5-3.7c.3-2,2.2-2.9,4-2.6,1.7.3,2.9,1.3,3.4,3l-2.2.8c-.2-.8-.6-1.3-1.6-1.5-.7-.1-1.2.2-1.2.6s0,.8,1.6,1.6c1.5.7,3.2,1.6,2.8,3.8-.3,2-2.1,2.9-4.4,2.5-2.2-.4-3.4-1.6-3.7-3.3h.1Z"/><path d="m214.9,302.4c.6.3,1.1.3,1.5,0l1.2,1.7c-1.1.6-2.3.6-3.6,0-2.3-1.1-3-3.3-2.1-5.4,1-2,3.2-2.9,5.3-1.9,2,.9,2.7,3.2,1.8,5.2,0,.3-.3.5-.5.8l-4.8-2.3c0,.8.4,1.4,1.2,1.7v.2Zm2.4-1.9c.2-.9-.3-1.5-.9-1.8-.8-.4-1.5-.2-2,.4l2.9,1.4Z"/><path d="m226.4,307.2l-3,3.5-1.7-1.5,2.8-3.3c.6-.7.4-1.4,0-1.9-.6-.5-1.4-.5-2.1.3l-2.7,3.1-1.7-1.5,4.9-5.7,1.7,1.5-.5.5c.7-.2,1.5,0,2.2.7,1.2,1,1.4,2.6,0,4.2h0Z"/><path d="m229.2,314.8c-1.4,1-2.9.2-3.8-1.1-.9-1.2-1.1-2.5-.4-3.7l2,.9c-.3.5-.4,1,0,1.6.3.4.6.6.9.4.7-.5-1.9-3.2.3-4.7,1.3-1,2.8-.3,3.7.9.7,1,.9,2.2.4,3.3l-2-.9c.2-.4.2-.8,0-1.2-.2-.3-.5-.4-.7-.3-.7.5,1.9,3.2-.3,4.8h0Z"/><path d="m231,314.8c2.1-.9,4.3,0,5.2,2.2.9,2.1,0,4.3-2.1,5.2-2.1.8-4.3,0-5.2-2.2-.8-2,0-4.3,2.1-5.2Zm2.2,5.3c1-.4,1.4-1.4,1-2.3-.4-.9-1.3-1.3-2.3-.9-1,.4-1.4,1.4-1,2.3s1.3,1.3,2.3.9Z"/><path d="m238.8,327.4l-2.5.4c0-.9-.6-2.2-2.1-1.9l-3.3.6-.4-2.2,7.4-1.3.4,2.2-1.3.2c1,0,1.7,1,1.8,2Z"/><path d="m233.5,335c-1.7,0-2.4-1.5-2.4-3.2s.6-2.6,1.8-3.2l1.1,2c-.6.2-.9.6-.9,1.3s.2.8.5.8c.8,0,.5-3.7,3-3.6,1.6,0,2.4,1.4,2.4,3s-.6,2.3-1.7,2.9l-1-1.9c.4-.2.7-.5.7-1s0-.6-.4-.6c-.9,0-.3,3.7-3.1,3.6h0Z"/><path class="cls-12" d="m203.2,325.1h4.6c1.8,0,2.9,1.2,2.9,2.9v15.4c0,2.1-1.1,3.2-3.1,3.2h-15.1c-2,0-3.1-1.1-3.1-3.1v-15.1c0-2.1,1.1-3.2,3.1-3.2h10.7Zm1,6.1v-1.4c0-.4-.4-.6-.8-.6s-.7.3-.8.6v1.1h-1.7v-.9c0-.5-.4-.8-.8-.8s-.8.4-.8.8v.9h-1.7v-.9c0-.5-.3-.8-.8-.8s-.8.3-.8.8v1.2l-.5.5h-1.1c-.6,0-.9.4-.9.8s.4.8.9.8h.8v1.7h-.9c-.4,0-.8.3-.8.8s.3.8.8.8h.9v1.7h-.8c-.5,0-.8.3-.8.8s.3.8.8.8h1.2l.5.5v1.3c0,.4.4.7.8.7s.7-.3.8-.7v-1h1.7v.9c0,.4.3.8.8.8s.8-.3.8-.8v-.9h1.7v.9c0,.5.3.8.8.8s.8-.3.8-.8v-1.2l.5-.5h1.2c.5,0,.9-.4.8-.8,0-.5-.4-.8-.8-.8h-.8v-1.7h.9c.4,0,.8-.3.8-.8s-.3-.8-.8-.8h-.9v-1.7h.8c.5,0,.9-.4.9-.8s-.3-.8-.9-.8h-1.1l-.5-.5h-.2Z"/><path class="cls-7" d="m177.2,327.3c0,.3-.2.5-.3.7-2.1,2.2-3.2,4.9-3.2,8s1.1,5.5,3.2,7.7c.3.3.5.6.3,1.1s-.9.6-1.4,0c-1.3-1.3-2.3-2.8-2.8-4.5-1.7-5-.8-9.4,2.7-13.3.1,0,.3-.3.4-.4.2-.2.6-.2.8,0,.3,0,.4.4.4.7h-.1Z"/><path class="cls-7" d="m208.5,313c-.3,0-.5-.2-.7-.4-2.3-2.1-5-3.2-8.1-3.1-2.9,0-5.4,1.2-7.6,3.2-.5.5-1,.5-1.3,0s-.2-.8.2-1.1c1.4-1.3,2.9-2.3,4.7-2.9,4.9-1.6,9.3-.6,13.2,2.8.2,0,.3.3.4.5.3.5,0,1.1-.7,1.1h-.1Z"/><path class="cls-7" d="m227.9,335.8c0,3.4-1.2,6.3-3.5,8.9l-.2.2c-.4.3-.8.3-1.1,0s-.3-.8,0-1.1c.7-.7,1.3-1.5,1.8-2.4,2.5-4.5,1.8-9.6-1.7-13.4-.3-.3-.5-.7-.2-1.1.3-.5.9-.5,1.3,0,1.5,1.6,2.6,3.5,3.2,5.6.3,1.1.5,2.2.5,3.4h-.1Z"/><path class="cls-7" d="m200,363.7c-3.4,0-6.3-1.2-8.8-3.5l-.2-.2c-.4-.4-.4-.8,0-1.2s.8-.3,1.2,0c.7.7,1.5,1.3,2.3,1.8,4.5,2.5,9.6,1.9,13.4-1.7.3-.3.7-.5,1.1-.3.5.3.6.9,0,1.4-1.6,1.5-3.5,2.6-5.6,3.2-1.1.3-2.2.5-3.4.5Z"/><path class="cls-7" d="m200.3,359.9c-2.7,0-4.8-.9-6.6-2.5-.3-.3-.5-.7-.2-1.1.3-.5.9-.5,1.3,0,2.8,2.7,7.2,2.7,10.2.2,0,0,0,0,.2-.2.4-.4.9-.4,1.2,0,.4.4.3.8,0,1.2-1,1-2.3,1.8-3.6,2.2-.9.3-1.8.4-2.4.4v-.2Z"/><path class="cls-7" d="m199.6,311.7c2.9,0,4.9.9,6.7,2.5.5.5.5.9.2,1.3-.4.4-.8.3-1.3,0-2.9-2.7-7.4-2.7-10.2,0-.5.5-.9.5-1.3,0s-.3-.8,0-1.2c1.4-1.4,3.7-2.6,5.8-2.5h0Z"/><path class="cls-7" d="m175.9,335.8c0-2.3.9-4.5,2.4-6.2.5-.5.9-.6,1.3-.2.4.4.3.8-.2,1.3-2.7,2.9-2.7,7.3,0,10.2.3.3.5.7.3,1.1-.3.5-.9.5-1.3,0-1.3-1.3-2.1-2.9-2.4-4.6-.1-.6-.1-1.1-.1-1.7h0Z"/><path class="cls-7" d="m224.1,335.9c0,2.4-.8,4.4-2.5,6.2-.5.5-.9.6-1.3.2s-.3-.8,0-1.3c2.7-3,2.7-7.3,0-10.3-.4-.5-.5-.9,0-1.2.4-.4.8-.3,1.3,0,1.6,1.6,2.5,3.9,2.5,6.3Z"/><path class="cls-11" d="m196.8,346.6h6v2c0,1.1-.9,2-2,2h-2.1c-1.1,0-2-.9-2-2v-2h0Z"/><path class="cls-11" d="m203.2,325.1h-6v-2c0-1.1.9-2,2-2h2.1c1.1,0,2,.9,2,2v2h0Z"/><path class="cls-11" d="m189.3,332.6v6h-2c-1.1,0-2-.9-2-2v-2.1c0-1.1.9-2,2-2h2Z"/><path class="cls-11" d="m210.8,339v-6h2c1.1,0,2,.9,2,2v2.1c0,1.1-.9,2-2,2h-2Z"/><path class="cls-25" d="m220.3,335.8c0,1.4-.5,2.6-1.5,3.6s-.8.5-1.1,0-.4-.8,0-1.2c1.4-1.8,1.4-3.3,0-5.1-.3-.4-.3-.8,0-1.2s.7-.3,1.1,0c1,1,1.5,2.2,1.5,3.7h0Z"/><path class="cls-25" d="m200,315.5c1.3,0,2.5.5,3.5,1.4.5.5.6.9.3,1.3-.4.4-.8.4-1.3,0-1.2-1-2.5-1.1-3.9-.7-.4.2-.8.4-1.1.7-.5.4-.9.4-1.2,0s-.3-.8.2-1.2c1-.9,2.2-1.4,3.6-1.4h0Z"/><path class="cls-25" d="m200,356.1c-1.3,0-2.5-.5-3.5-1.3-.6-.5-.6-.9-.3-1.3s.8-.4,1.3,0c1.3,1.1,2.6,1.2,4.1.5.3-.2.6-.4.9-.6.5-.4.9-.3,1.2,0s.3.7,0,1.1c-1,1-2.2,1.4-3.6,1.5h0Z"/><path class="cls-25" d="m179.7,335.8c0-1.3.5-2.5,1.4-3.5.5-.6.9-.6,1.3-.3s.4.8,0,1.3c-1,1.2-1.1,2.5-.6,3.9.2.4.4.7.7,1.1.4.5.4.9,0,1.2-.4.4-.8.3-1.2-.2-1-1-1.4-2.2-1.4-3.6h-.2Z"/><path class="cls-14" d="m205,336.6v1.7c0,.6,0,1.1-.3,1.6l-.5.5c-.5.2-1.1.3-1.6.3h-5.1c-.6,0-1.1,0-1.6-.3l-.5-.5c-.2-.5-.4-1.1-.3-1.6v-5.1c0-.6,0-1.1.3-1.6l.5-.5c.5-.2,1.1-.4,1.6-.3h5.1c.6,0,1.1,0,1.6.3l.5.5c.2.5.3,1.1.3,1.6v3.3h0Z"/><path class="cls-20" d="m205,333.3c0-.6,0-1.1-.3-1.6h1.1c.6,0,.9.4.9.8s-.4.8-.9.8h-.8Z"/><path class="cls-20" d="m204.7,339.9c.2-.5.3-1.1.3-1.6h.8c.5,0,.8.3.8.8s-.3.8-.8.8h-1.2.1Z"/><path class="cls-20" d="m195.9,340.5c.5.2,1.1.3,1.6.3v1c0,.4-.4.7-.8.7s-.7-.3-.8-.7v-1.3Z"/><path class="cls-20" d="m202.5,340.8c.6,0,1.1,0,1.6-.3v1.2c0,.5-.3.8-.8.8s-.7-.3-.8-.8v-.9Z"/><path class="cls-20" d="m197.5,330.8c-.6,0-1.1,0-1.6.3v-1.2c0-.5.3-.8.8-.8s.7.3.8.8v.9Z"/><path class="cls-20" d="m204.1,331.2c-.5-.2-1.1-.4-1.6-.3v-1.1c0-.4.4-.6.8-.6s.7.2.8.6c0,.5,0,.9,0,1.4Z"/><path class="cls-20" d="m195.4,331.7c-.2.5-.4,1.1-.3,1.6h-.8c-.5,0-.9-.4-.9-.8s.3-.8.9-.8h1.1Z"/><path class="cls-20" d="m195,338.3c0,.6,0,1.1.3,1.6h-1.2c-.5,0-.9-.4-.8-.8,0-.5.4-.8.8-.8h.9Z"/><path class="cls-17" d="m200.8,330.8h-1.6v-.9c0-.4.3-.8.8-.8s.8.3.8.8v.9Z"/><path class="cls-17" d="m195,335v1.6h-.9c-.5,0-.8-.4-.8-.8s.4-.8.8-.8h.9Z"/><path class="cls-17" d="m205,336.6v-1.6h.9c.5,0,.8.4.8.8s-.4.8-.8.8h-.9Z"/><path class="cls-17" d="m199.2,340.8h1.6v.9c0,.5-.4.8-.8.8s-.8-.4-.8-.8v-.9Z"/></svg>