<?xml version="1.0" encoding="UTF-8"?><svg id="Layer_1" xmlns="http://www.w3.org/2000/svg" viewBox="0 0 400 400"><defs><style>.cls-1{stroke:#a5262d;}.cls-1,.cls-2,.cls-3{stroke-width:4px;}.cls-1,.cls-2,.cls-3,.cls-4{stroke-miterlimit:10;}.cls-1,.cls-2,.cls-3,.cls-4,.cls-5{fill:none;}.cls-6{fill:#72b3e2;}.cls-2{stroke:#0018c6;}.cls-3{stroke:#c000e2;}.cls-7{fill:#f15a24;}.cls-8{fill:#bacce9;}.cls-9{fill:#fedd46;}.cls-10{fill:#c7c7c7;}.cls-11{fill:#bdbdbd;}.cls-12{fill:#ecf5fe;}.cls-4{stroke:#231f20;stroke-width:2px;}.cls-13{fill:#72b2e2;}.cls-14{fill:#b9cce9;}.cls-15{fill:#aaa;}.cls-16{fill:#484645;}.cls-17{fill:#b3b3b3;}.cls-18{fill:#d7e1f2;}.cls-19{fill:#231f20;}</style></defs><circle class="cls-1" cx="310" cy="59.9" r="45"/><path d="m280.7,44.7c-2.8-2.4-3.1-6.6-.7-9.4.1-.1.2-.3.4-.4,1.5-1.7,3.8-2.5,6.1-2.1l-.7,3c-1.2-.2-2.5.2-3.3,1.1-1.4,1.6-1.2,4.1.4,5.5,1.5,1.3,3.8,1.3,5.3-.1.9-.9,1.3-2.2.9-3.4l2.9-.9c.9,3.7-1.3,7.4-5,8.3-2.3.6-4.7,0-6.4-1.7h0Z"/><path d="m292.2,36c-1.2-2.5-.2-5.5,2.3-6.7,2.5-1.2,5.5-.2,6.7,2.3,1.2,2.5.2,5.5-2.3,6.7-2.5,1.2-5.5.2-6.7-2.3,0,0,0,0,0,0Zm6.5-3.1c-.6-1.1-1.9-1.4-2.9-.9s-1.4,1.9-.9,2.9c.5,1,1.8,1.4,2.8.9,1.1-.5,1.6-1.7,1.1-2.8,0,0,0-.1,0-.2Z"/><path d="m313.5,29.9c.4,2.6-1.4,5.1-4,5.5-1,.2-2.1-.1-2.9-.8l.5,4.7-2.8.3-1.5-13.2,2.8-.3v.9c.7-.9,1.7-1.4,2.8-1.5,2.6-.2,4.9,1.8,5.1,4.4,0,0,0,0,0,0h0Zm-2.8.3c0-1.2-1.2-2.2-2.4-2.1,0,0,0,0,0,0-1.2,0-2.1,1.1-2,2.3,0,0,0,.2,0,.3,0,1.2,1.2,2.2,2.4,2.1,0,0,0,0,0,0,1.2,0,2.1-1.1,2-2.3,0,0,0-.2,0-.3h0Z"/><path d="m325.7,32.6c-.5,2.6-3,4.3-5.6,3.8-1-.2-1.9-.9-2.5-1.8l-1.1,4.6-2.8-.7,3.2-12.9,2.8.7-.2.9c.9-.5,2-.7,3-.4,2.5.8,4,3.4,3.2,6,0,0,0,0,0,0v-.2Zm-2.8-.7c.3-1.2-.5-2.4-1.7-2.7-1.2-.3-2.4.5-2.7,1.7-.3,1.2.5,2.4,1.6,2.7,1.2.4,2.4-.3,2.8-1.5,0,0,0-.2,0-.2h0Z"/><path d="m330.3,38.3c.6.4,1.2.5,1.9.4l1.2,2.4c-1.5.6-3.2.3-4.5-.7-2.7-1.8-3.2-4.7-1.6-7.1,1.2-2.5,4.1-3.6,6.6-2.4,2.5,1.2,3.6,4.1,2.4,6.6-.2.4-.5.8-.8,1.2-.2.3-.5.6-.7.9l-5.6-3.7c-.2,1,.3,1.9,1.2,2.4h-.2Zm3.4-1.9c.4-.9,0-2-.9-2.4-.8-.6-1.9-.6-2.6,0l3.4,2.3h.1Z"/><path d="m344.3,41.5l-2.4,2.1c-.6-1-2.1-2-3.5-.7l-3.2,2.8-1.9-2.1,7.2-6.2,1.9,2.1-1.3,1.1c1.2-.4,2.5,0,3.3.9h-.1Z"/><rect class="cls-7" x="284" y="51.9" width="52" height="37" rx="2.9" ry="2.9"/><path class="cls-16" d="m301.3,82.7c-3.3.1-6.5-1.2-8.8-3.5-4.7-4.9-4.7-12.7,0-17.6,2.3-2.4,5.5-3.6,8.8-3.5,3.5,0,4.1.5,5.9,1.5,1.8,1,3.3,2.4,4.3,4.1l-5.2,3c-.5-.8-1.2-1.5-2-2-.9-.5-2-.7-3-.7-1.7,0-3.4.6-4.6,1.8-1.2,1.2-1.8,2.9-1.7,4.6-.2,3.3,2.3,6.2,5.6,6.4.2,0,.5,0,.7,0,1.1.1,2.1-.1,3-.7.9-.5,1.5-1.1,2-2l5.2,3c-1,1.7-2.5,3.1-4.3,4.1-1.8,1-3.9,1.5-6,1.5h.1Z"/><path class="cls-16" d="m324.6,65.3h5.6v16.9h-5.6v-1.7c-1.1,1.5-2.9,2.3-4.7,2.2-1.7.1-3.4-.6-4.5-1.9-1.2-1.2-1.7-3-1.7-5.4v-10.1h5.6v9.4c0,.7.2,1.5.7,2,.5.5,1.1.7,1.8.7.7,0,1.5-.3,2-.8.5-.6.8-1.5.7-2.3v-9h.1Z"/><circle class="cls-1" cx="200" cy="59.9" r="45"/><rect class="cls-17" x="174" y="49.9" width="52" height="37" rx="2.9" ry="2.9"/><path class="cls-16" d="m200.8,80.2l-1.1-3.4h-8l-1,3.4h-6.5l7.5-23.6h7.6l7.8,23.6h-6.3Zm-7.6-8.6h4.8l-2.4-8-2.4,8Z"/><path class="cls-16" d="m208.5,80.2v-24.7h5.6v24.7h-5.6Z"/><path d="m176.1,38.6l-2.4,3.1,1,1.4-1.6,2.1-6.1-9.3,1.9-2.4,10.5,3.7-1.6,2.1-1.6-.6h0Zm-2.2-.8l-3.8-1.4,2.3,3.3,1.5-1.9Z"/><path d="m172.8,28.8l1.7-1.4,7,8.4-1.7,1.4-7-8.4Z"/><path d="m185,25l3.6,6.6-2,1.1-.3-.6c-.1.8-.6,1.5-1.4,1.8-1.3.7-3,.3-3.8-1.1,0-.1-.1-.2-.1-.3l-2.2-4,2-1.1,2,3.8c.3.6,1.1.9,1.7.6,0,0,0,0,0,0,.7-.3.9-1.1.6-1.8,0,0,0-.1-.1-.2l-2-3.6,2-1.1h-.1Z"/><path d="m199.6,24.5l.8,4.5-2.2.4-.8-4.3c0-.6-.5-1.1-1.1-1,0,0-.1,0-.2,0-.7,0-1.1.7-.9,1.6l.7,4.2-2.2.4-.8-4.3c0-.6-.5-1.1-1.1-1,0,0-.1,0-.2,0-.7,0-1.1.7-.9,1.6l.7,4.2-2.2.4-1.3-7.4,2.2-.4v.7c.4-.7,1.1-1.1,1.9-1.2.8-.2,1.6,0,2.1.6.4-.8,1.1-1.3,2-1.4,1.7-.3,3,.7,3.3,2.6l.2-.2Z"/><path d="m201.9,22.1l2.2.2-.6,7.5-2.2-.2.6-7.5Zm0-2c0-.7.8-1.3,1.5-1.2.7,0,1.3.8,1.2,1.5s-.8,1.3-1.5,1.2c0,0,0,0,0,0-.7,0-1.3-.7-1.2-1.4,0,0,0,0,0-.1Z"/><path d="m212.9,27.2l-1.2,4.4-2.2-.6,1.1-4.1c.2-.7-.1-1.4-.8-1.7,0,0,0,0-.1,0-.7-.3-1.5,0-1.7.8,0,.1,0,.2,0,.3l-1.1,3.9-2.2-.6,2-7.2,2.2.6-.2.7c.7-.5,1.5-.6,2.3-.3,1.5.4,2.4,1.9,2,3.4,0,.1,0,.2,0,.3h.1Z"/><path d="m222.5,29.2l-3.8,6.4-1.9-1.2.4-.6c-.8.3-1.6.2-2.3-.3-1.3-.8-1.8-2.5-1-3.8,0-.1.1-.2.2-.3l2.4-4,1.9,1.2-2.2,3.7c-.4.5-.3,1.2.2,1.6,0,0,.2.1.2.2.6.4,1.5.2,1.9-.4,0,0,0-.1.1-.2l2.1-3.5,1.9,1.2h0Z"/><path d="m230.3,41.5l-3.5,3-1.5-1.7,3.4-2.9c.6-.5.7-1.1.2-1.6-.4-.5-1.2-.6-1.7-.1,0,0,0,0-.1.1l-3.2,2.7-1.5-1.7,3.4-2.9c.6-.5.7-1.1.2-1.6-.4-.5-1.2-.6-1.7-.1,0,0,0,0-.1.1l-3.2,2.7-1.5-1.7,5.7-4.9,1.5,1.7-.5.4c.8,0,1.5.3,2,.9.5.6.7,1.4.5,2.1.8,0,1.7.3,2.2,1,1,1.2.9,3-.3,4,0,0-.1.1-.2.2v.3Z"/><circle class="cls-1" cx="90" cy="59.9" r="45"/><path d="m70.4,30.7c1.6,2,1.2,4.9-.8,6.5l-1.6,1.2,2.6,3.3-2.4,1.9-8.3-10.4,3.9-3.1c2-1.6,4.9-1.3,6.5.7,0,0,0,0,0,0h0Zm-2.4,1.9c-.5-.7-1.4-.9-2.1-.4,0,0-.1,0-.2.1l-1.6,1.2,2.1,2.7,1.6-1.2c.7-.6.8-1.6.2-2.3,0,0,0,0,0,0h0Z"/><path d="m70.9,25l2.6-1.2,5.8,12.6-2.6,1.2-5.8-12.6Z"/><path d="m88.2,24.5l1.7,9.4-2.8.5-.2-.9c-.6.9-1.5,1.5-2.6,1.6-2.6.4-5-1.5-5.4-4.1,0,0,0,0,0,0-.6-2.5.9-5,3.4-5.7,0,0,.1,0,.2,0,1-.2,2.1,0,3,.6l-.2-.9,2.8-.5h0Zm-2,5.2c-.1-1.2-1.2-2.1-2.4-1.9,0,0-.1,0-.2,0-1.2.1-2,1.2-1.9,2.4,0,.1,0,.2,0,.3.1,1.2,1.2,2.1,2.4,1.9,0,0,.1,0,.2,0,1.2-.1,2-1.2,1.9-2.4,0-.1,0-.2,0-.3Z"/><path d="m98.7,32.2c-.3,2.2-2.3,2.9-4.3,2.6-1.7,0-3.2-1.2-3.8-2.8l2.6-1.1c.1.7.8,1.3,1.5,1.3.7,0,1,0,1.1-.5,0-1-4.6-1.1-4.2-4.3.3-2.1,2.1-2.9,4.1-2.6,1.5.1,2.8,1.1,3.4,2.5l-2.6,1c-.2-.5-.6-.9-1.2-1-.5,0-.8,0-.9.4,0,1.1,4.6,1,4.1,4.4h.2Z"/><path d="m104.4,30.2l-1.2,3.1c-.3.8.3,1.1,1.5,1.5l-.9,2.4c-3.6-1-4.2-2.4-3.3-4.9l1.2-3.2-1.4-.5,1-2.6,1.4.5.6-1.7,3,.2-.9,2.5,1.8.7-1,2.6-1.8-.7h0Z"/><path d="m109.7,29.6l2.4,1.5-4.9,8.2-2.3-1.5,4.8-8.2Zm1.1-2.3c.5-.8,1.5-1.1,2.3-.6.8.5,1.1,1.5.6,2.3-.5.8-1.5,1.1-2.3.6-.8-.5-1-1.5-.6-2.3,0,0,0,0,0,0h0Z"/><path d="m111.4,36.1c1.8-2,4.9-2.2,6.9-.4,0,0,.2.1.2.2,1.3,1.2,1.8,3,1.4,4.7l-2.8-.7c.2-.7,0-1.5-.6-2-.9-.8-2.3-.7-3.1.2-.8.9-.7,2.2,0,3,.5.6,1.4.8,2.1.5l.8,2.7c-1.7.5-3.5,0-4.8-1.2-2-1.9-2.1-5.1-.2-7.1,0,0,0,0,0,0h0Z"/><path class="cls-18" d="m113.4,56.2h0c0,0-1.6,0-1.6,0q-.7,0-.7.7v30.3c0,.4-.1.9-.4,1.2-.2.2-.5.2-.7.4h-10.7c0,0,0-.2,0-.3l-1.2-5.4c-.7-3.1-1.4-6.2-2.2-9.3-1.1-4.6-2.1-9.1-3.2-13.6-.9-4-1.8-8-2.8-11.9h15c.2,0,.5,0,.6.2v6.2c0,.7.6,1.3,1.3,1.4h3.8c.3,0,.4,0,.4-.4v-1.8c.1,0,.2.1.2.2l2,2Z"/><path class="cls-14" d="m113.4,87.9c-.4.8-1.3,1.3-2.1,1.1-.4,0-.8,0-1.2,0,.2-.2.5-.2.7-.4.3-.3.4-.8.4-1.2v-30.4q0-.7.7-.7h1.6v31.6Z"/><path class="cls-11" d="m69.8,48.3v-.9c-.2-.9.3-1.7,1.1-2.1h2c0,0,0,.1,0,.2.6.4.9,1.1.8,1.8,0,.4,0,.8,0,1.1h-4Z"/><path class="cls-15" d="m73.8,48.5v-1.1c.1-.7-.2-1.5-.8-1.9,0,0,0-.1-.1-.2h2c.9.4,1.4,1.4,1.2,2.3v.8h-2.2Z"/><path class="cls-12" d="m99.4,88.9h-6.2c0,0,0-.1,0-.2l-1.8-8-3.2-13.7c-1.1-4.6-2.1-9.2-3.2-13.9-.4-1.6-.7-3.2-1.1-4.8h6.2c.9,4,1.8,8,2.7,11.9,1.1,4.5,2.1,9.1,3.2,13.6.7,3.1,1.4,6.2,2.1,9.3.4,1.8.8,3.6,1.2,5.4,0,0,0,.2,0,.3Z"/><path class="cls-12" d="m105.7,48.6c.1,0,.3.1.3.2l5,5c0,0,.1.1.1.2v1.8c0,.3,0,.4-.4.4h-3.8c-.7,0-1.3-.6-1.3-1.4v-6.2Z"/><path class="cls-18" d="m83.8,48.5c.4,1.6.7,3.2,1.1,4.8,1.1,4.6,2.1,9.2,3.2,13.9l3.2,13.6,1.8,8c0,0,0,.1,0,.2h-14.1v-3c0-.5-.3-.8-.7-.8s-.8.3-.8.8v3h-9.2c-.9,0-1.7-.7-1.7-1.7,0,0,0,0,0,0v-37.1c0-.9.8-1.7,1.7-1.7,0,0,0,0,0,0h9.2v3c0,.4.2.8.6.8,0,0,0,0,0,0,.5,0,.8-.3.8-.8v-3h4.7Zm-4.7,20.3v-1.5c0-.4-.3-.7-.7-.7-.4,0-.7.3-.7.7h0v3c0,.4.2.7.6.8,0,0,0,0,.1,0,.4,0,.7-.3.7-.7,0,0,0,0,0,0,0-.5,0-1,0-1.5Zm-1.5,6.1v1.6c0,.4.3.7.7.7.4,0,.7-.3.7-.7h0v-3.1c0-.4-.4-.7-.8-.8-.4,0-.7.3-.7.7,0,0,0,0,0,0v1.5h0Zm0-12.4v1.5c0,.4.3.8.7.8h0c.4,0,.7-.4.8-.8v-2.9c0-.6-.3-.8-.7-.8s-.7.3-.7.8,0,1,0,1.5Zm0-6.3v1.5c0,.4.2.7.6.8,0,0,0,0,.1,0,.4,0,.7-.3.8-.6,0,0,0,0,0-.1v-2.9c0-.4-.2-.7-.6-.8,0,0,0,0-.1,0-.4,0-.7.3-.7.8s0,.9,0,1.4h0Zm1.5,25v-1.5c0-.5-.3-.8-.7-.8-.4,0-.7.3-.7.7,0,0,0,0,0,.1v2.9c0,.4.2.7.6.8,0,0,0,0,.1,0,.5,0,.7-.3.7-.8s0-.9,0-1.4h0Z"/><path class="cls-14" d="m79.1,48.5v3c0,.5-.3.8-.8.8s-.7-.3-.7-.8v-3h1.5Z"/><path class="cls-11" d="m69.9,89h3.9v1.2c0,.8-.4,1.6-1.2,1.9h-1.3c-.8,0-1.6-.6-1.6-1.5,0,0,0,0,0-.1v-1.4h.1Z"/><path class="cls-15" d="m72.6,92c.8-.3,1.3-1.1,1.2-1.9v-1.2h2.2c0,.6,0,1.2,0,1.8-.1.8-.8,1.3-1.6,1.3h-1.8Z"/><path class="cls-14" d="m77.6,88.9v-3c0-.5.3-.8.8-.8.4,0,.7.3.7.7,0,0,0,0,0,0v3h-1.5Z"/><path class="cls-10" d="m69.9,48.5h0s0,0,0,0h0Z"/><path class="cls-10" d="m69.9,89h0c0,0,0,0,0,0h0Z"/><path class="cls-8" d="m79.1,68.7v1.5c0,.4-.3.7-.7.7-.4,0-.7-.3-.7-.7h0v-3c0-.4.2-.7.6-.8,0,0,0,0,0,0,.4,0,.7.3.8.7,0,0,0,0,0,0,0,.5,0,1,0,1.5Z"/><path class="cls-14" d="m77.6,74.9v-1.5c0-.4.2-.7.6-.7,0,0,0,0,0,0,.4,0,.7.4.8.8v3.1c0,.4-.2.7-.6.7,0,0,0,0-.1,0-.4,0-.7-.3-.7-.7,0,0,0,0,0-.1,0-.5,0-1,0-1.5Z"/><path class="cls-14" d="m77.6,62.5v-1.5c0-.5.3-.8.7-.8s.7.3.7.8v2.9c0,.4-.3.8-.8.8-.4,0-.7-.4-.7-.8h0c0-.5,0-1,0-1.5Z"/><path class="cls-14" d="m77.6,56.2v-1.4c0-.5.3-.8.7-.8.4,0,.7.3.7.6,0,0,0,0,0,.1v2.9c0,.4-.3.7-.7.7-.4,0-.7-.3-.7-.7h0c0-.5,0-1,0-1.5Z"/><path class="cls-14" d="m79.1,81.2v1.4c0,.5-.3.8-.7.8-.4,0-.7-.3-.7-.6,0,0,0,0,0-.1v-2.9c0-.4.2-.7.6-.8,0,0,0,0,.1,0,.4,0,.7.3.7.8v1.4Z"/><path class="cls-13" d="m199,173.3c3.2-.1,6.3,1,8.7,3.2.6.4.7,1.2.3,1.8-.4.5-1.1.5-1.8,0-1.8-1.8-4.3-2.7-6.8-2.6-2.1,0-4.1.9-5.7,2.3-.2.2-.4.4-.6.5-.5.4-1.2.3-1.6-.2,0,0,0,0,0,0-.4-.4-.4-1.1,0-1.5.6-.6,1.3-1.2,2.1-1.6,1.6-1.1,3.5-1.7,5.5-1.8h0Z"/><path class="cls-6" d="m199.5,177.5c2.2,0,4.3.8,5.9,2.3.7.6.8,1.3.3,1.8-.5.5-1.3.5-1.8,0,0,0,0,0,0,0-2.4-2.2-6-2.2-8.4,0-.7.6-1.3.6-1.8.1s-.4-1.2.2-1.8c1.5-1.4,3.5-2.2,5.6-2.3h0Z"/><path class="cls-6" d="m199.6,181.7c1.3,0,2.6.5,3.6,1.4.5.4.6,1.1.3,1.6h0c-.4.5-1.1.6-1.6.2,0,0,0,0,0,0h0c-1.2-1.1-2.9-1.1-4.1,0-.3.4-1,.5-1.4.2,0,0-.1-.1-.2-.2h-.1c-.4-.6-.3-1.4.2-1.8,0,0,0,0,0,0h0c.9-.9,2.2-1.4,3.5-1.4h-.3Z"/><path class="cls-9" d="m220.2,206.7c-1.5-5.3,3.3-16.5-4.9-17.2h-31c-8.7.2-3.9,11.8-5.4,17.2v6.7c1.5,5.3-3.2,16.1,4.6,17.2h32c7.9-1,3.2-12,4.7-17.2v-6.7Z"/><circle class="cls-2" cx="199.6" cy="194.3" r="45"/><path d="m175.9,176.7l-1.2,2.2-5.7-3.2,2.7,4.8v.3l-5.7.2,5.7,3.2-1.2,2.2-9.8-5.5,1.2-2.2,5.8-.2-2.9-5.1,1.2-2.2,9.8,5.5h0Z"/><path d="m173.7,173.5c-1.6-1.7-1.4-4.4.3-5.9,0,0,0,0,.1,0,1.8-1.5,4.4-1.4,6,.4,1.5,1.8,1.4,4.5-.4,6-1.8,1.5-4.5,1.4-6-.4h0Zm4.6-4c-.7-.7-1.8-.7-2.6,0-.7.7-.7,1.8,0,2.6.7.7,1.8.7,2.5,0,.7-.6.9-1.7.3-2.4,0,0-.1-.1-.2-.2Z"/><path d="m186.1,157l4.6,10.2-2.2,1-.3-.7c-.3.9-.9,1.6-1.8,1.9-2,.8-4.3,0-5.1-2,0,0,0-.2-.1-.3-1-1.9-.3-4.3,1.6-5.3,0,0,0,0,.1,0,.8-.4,1.8-.4,2.6-.1l-1.6-3.6,2.2-1Zm.8,7.5c-.5-.9-1.6-1.3-2.5-.8-.9.5-1.3,1.6-.8,2.5.5.9,1.5,1.2,2.4.8.9-.4,1.4-1.5,1-2.5,0,0,0,0,0-.1h0Z"/><path d="m195.5,164.5c.6,0,1.1-.3,1.4-.8l2.1.8c-.6,1.2-1.8,2-3.2,2.1-2.3.5-4.5-1-4.9-3.2,0-.1,0-.2,0-.4-.4-2.2,1.1-4.4,3.4-4.8,0,0,.2,0,.2,0,2.2-.3,4.2,1.2,4.6,3.3,0,0,0,.2,0,.3v1l-5.6.8c.4.8,1.3,1.1,2.1.8h0Zm1.1-3.1c-.3-.8-1.1-1.2-1.9-1-.8,0-1.5.7-1.6,1.5l3.4-.5h.1Z"/><path d="m212.8,163.2l-1,4.8-2.3-.5,1-4.6c.2-.8-.1-1.4-.9-1.5s-1.3.3-1.5,1.2l-.9,4.4-2.3-.5,1-4.6c.2-.8-.1-1.4-.9-1.5s-1.3.3-1.5,1.2l-.9,4.4-2.3-.5,1.7-7.8,2.3.5-.2.7c.6-.6,1.5-.7,2.3-.5.8.1,1.5.7,1.8,1.5.7-.6,1.6-.8,2.5-.6,1.8.4,2.7,1.9,2.3,3.9h-.2Z"/><path d="m215.5,163.7l5.2,3.1-1.2,2-5.2-3.1,1.2-2Z"/><path d="m226.4,175.5c-1.4,1.4-3.8,1.5-5.2,0-.1-.1-.2-.2-.3-.3-1.3-1.1-1.8-2.9-1.1-4.5l2.5.7c-.4.7-.2,1.6.4,2.1.4.6,1.3.7,1.9.3,0,0,0,0,0,0,.5-.5.5-1.2,0-1.7,0,0-.1-.1-.2-.2l-2.5-2.5,4.9-4.2,4.6,4.6-1.7,1.7-2.9-2.9-1.2,1,.6.6c1.5,1.3,1.7,3.5.4,5-.1.1-.2.3-.4.4Z"/><path d="m234.1,185.8c-2.5,1.4-5.8.5-7.2-2,0-.2-.2-.3-.2-.5-1.5-2.8-.3-6.3,2.5-7.8,2.8-1.5,6.3-.3,7.8,2.5.9,1.7.9,3.8-.1,5.5l-2.1-1.4c.5-.9.5-2.1,0-3-.8-1.6-2.7-2.3-4.4-1.6,0,0,0,0-.1,0-1.6.7-2.3,2.6-1.6,4.2,0,.1.1.2.2.4.5,1.1,1.6,1.9,2.8,1.8l-1.3-2.7,2-1,2.5,5-.9.4h0Z"/><path d="m189.6,206.5c1.8,0,3.5.6,4.8,1.7,2.6,2.7,2.5,7.1-.2,9.7-1.4,1.2-3.2,1.8-5.1,1.7-1.6,0-3.1-.3-4.5-1.1-1.3-.7-2.3-1.9-2.8-3.3l4.4-2.5c.3,1.3,1.6,2.2,2.9,2,1.5,0,1.3-.2,1.6-.5.7-.6.8-1.7.2-2.4,0,0-.1-.1-.2-.2-.4-.3-1-.5-1.5-.5h-6.3l.8-11.5h11.5v4.8h-6.9v2.1h1.3Z"/><path d="m217.8,207.9v2c.2,5.1-3.7,9.5-8.8,9.7-.3,0-.6,0-.9,0-2.8,0-5.5-1-7.5-2.9-1.9-1.9-3-4.5-2.9-7.2,0-2.7,1-5.3,2.9-7.3,1.9-2,4.6-3.1,7.3-3,1.8-.2,3.5.3,5,1.2,1.5.8,2.7,1.9,3.6,3.3l-4.2,2.4c-.4-.6-1-1.1-1.7-1.5-.8-.4-1.7-.6-2.6-.6-1.4,0-2.8.5-3.8,1.5-1,1-1.6,2.4-1.5,3.9,0,1.4.5,2.8,1.5,3.8,1.1,1.1,2.6,1.6,4.1,1.6,1.7,0,3.8-.9,4.5-2.6h-4.8v-4.3h9.8,0Z"/><line class="cls-5" x1="199.3" y1="111.1" x2="199.8" y2="143.9"/><line class="cls-4" x1="199.3" y1="111.1" x2="199.7" y2="133.2"/><polygon class="cls-19" points="192.1 131.1 199.8 143.9 207.1 130.9 192.1 131.1"/><line class="cls-5" x1="118.2" y1="106.9" x2="166.9" y2="146.2"/><line class="cls-4" x1="118.2" y1="106.9" x2="158.5" y2="139.4"/><polygon class="cls-19" points="152.1 143.9 166.9 146.2 161.5 132.2 152.1 143.9"/><line class="cls-5" x1="280.9" y1="106.9" x2="232.2" y2="146.2"/><line class="cls-4" x1="280.9" y1="106.9" x2="240.6" y2="139.4"/><polygon class="cls-19" points="237.6 132.2 232.2 146.2 247 143.9 237.6 132.2"/><line class="cls-5" x1="199.7" y1="249.4" x2="200.2" y2="282.2"/><line class="cls-4" x1="199.7" y1="249.4" x2="200" y2="271.5"/><polygon class="cls-19" points="192.5 269.4 200.2 282.2 207.5 269.2 192.5 269.4"/><circle class="cls-3" cx="200" cy="340.1" r="45"/><path d="m164.9,337.6c-2.6-.5-4.3-2.9-3.7-5.6.3-1.6,1.4-2.9,2.8-3.4l.7,2c-.8.3-1.3.9-1.5,1.9-.3,1.6.5,2.8,2.1,3.1,1.6.3,2.9-.5,3.2-2.1.2-.9,0-1.8-.7-2.3l1.4-1.6c1.1,1,1.6,2.6,1.3,4.2-.5,2.7-2.9,4.2-5.6,3.7h0Z"/><path d="m168.3,328.5c-1.7-.9-2.4-2.9-1.6-4.6s2.9-2.4,4.6-1.6c1.7.9,2.4,2.9,1.6,4.6-.8,1.7-2.9,2.4-4.6,1.6Zm2.2-4.4c-.8-.4-1.7,0-2,.7s-.1,1.6.7,2c.8.4,1.7,0,2-.7.4-.8.1-1.6-.7-2Z"/><path d="m178,313.3l2.9,2.7-1.3,1.4-2.8-2.6c-.5-.4-1-.5-1.4,0s-.4,1.1.2,1.6l2.7,2.5-1.3,1.4-2.8-2.6c-.5-.4-1-.5-1.4,0s-.4,1.1.2,1.6l2.7,2.5-1.3,1.4-4.8-4.4,1.3-1.4.4.4c-.1-.5,0-1.2.6-1.8.5-.6,1.1-.8,1.8-.7-.1-.6,0-1.3.6-2,1-1.1,2.5-1.1,3.7,0Z"/><path d="m183.6,307l3.4,5.6-1.7,1-.3-.5c0,.6-.4,1.2-1.2,1.6-1.1.7-2.6.5-3.5-1l-2.1-3.4,1.7-1,1.9,3.2c.4.7,1,.8,1.6.4s.8-1,.3-1.8l-1.8-3,1.7-1h0Z"/><path d="m192.5,306.4l1.2,3.8-1.9.6-1.1-3.5c-.2-.8-.8-1-1.4-.8-.7.2-1,.8-.7,1.6l1.1,3.4-1.9.6-2-6.2,1.9-.6.2.6c.2-.6.7-1.1,1.5-1.3,1.2-.4,2.6.2,3.1,1.8Z"/><path d="m193.4,302.1c0-.6.4-1.2,1-1.3.6,0,1.2.4,1.3,1,0,.6-.4,1.2-1,1.3-.6,0-1.2-.4-1.3-1Zm.4,1.7l1.9-.3.9,6.4-1.9.3-.9-6.4Z"/><path d="m197.5,306.5c0-1.9,1.5-3.4,3.5-3.4s2.4.7,2.9,1.7l-1.7,1c-.2-.5-.7-.7-1.2-.8-.8,0-1.5.6-1.5,1.5s.6,1.5,1.4,1.5,1.1-.3,1.3-.7l1.7,1c-.6,1-1.7,1.6-3,1.6-2,0-3.4-1.6-3.4-3.5h0Z"/><path d="m212,305.1l-1.6,6.3-1.9-.5v-.6c-.4.4-1.1.5-1.9.3-1.7-.4-2.7-2.2-2.2-4.1s2.2-3,3.8-2.6,1.4.6,1.7,1.2v-.6c0,0,2,.5,2,.5h.1Zm-2.7,2.7c.2-.9-.3-1.7-1.1-1.9-.9-.2-1.6.2-1.9,1.2-.2.9.3,1.7,1.1,1.9.9.2,1.6-.2,1.9-1.2Z"/><path d="m215.6,308.8l-1,2.1c-.2.5.2.8,1,1.1l-.8,1.6c-2.4-.9-2.8-1.9-2-3.5l1-2.1-.9-.4.8-1.7.9.4.5-1.1,2,.3-.8,1.6,1.2.6-.8,1.7-1.2-.6h.1Z"/><path d="m219,308.5l1.6,1-3.5,5.5-1.6-1,3.5-5.5Zm.8-1.6c.3-.5,1.1-.7,1.6-.4.5.3.7,1.1.4,1.6s-1.1.7-1.6.4c-.5-.3-.7-1.1-.4-1.6Z"/><path d="m220.1,313c1.3-1.4,3.4-1.5,4.9-.2,1.4,1.3,1.5,3.4.2,4.9-1.3,1.4-3.4,1.5-4.9.2-1.4-1.3-1.5-3.4-.2-4.9Zm3.7,3.3c.6-.7.6-1.6,0-2.1-.6-.6-1.5-.6-2.1.1s-.6,1.6,0,2.1,1.5.6,2.1-.1Z"/><path d="m230.2,323.4l-3.3,2.2-1.1-1.6,3.1-2.1c.7-.5.7-1.1.3-1.6-.4-.6-1-.8-1.8-.2l-2.9,2-1.1-1.6,5.4-3.7,1.1,1.6-.5.3c.6,0,1.2.4,1.7,1.1.7,1.1.6,2.5-.9,3.5h0Z"/><path d="m232.1,331.1c-1.9.7-3.4-.3-4-2-.5-1.3-.4-2.7.6-3.7l1.6,1.3c-.5.4-.7.9-.4,1.7.3.8.9,1,1.4.8s.8-.7.5-1.5l-1-2.7,5-1.6,1.9,4.9-1.8.7-1.2-3.1-1.2.4.3.7c.6,1.6.2,3.3-1.7,4h0Z"/><path d="m234.9,341.2c-2.8.3-4.6-1.5-4.9-4-.3-2.8,1.6-5.1,4.2-5.4,2.6-.3,4.9,1.6,5.2,4.3.2,1.7-.5,3.3-1.7,4.2l-1.2-1.7c.6-.4.9-1.3.8-2.3-.2-1.5-1.4-2.5-3-2.4-1.5.2-2.6,1.4-2.4,3.1,0,1.2.7,1.9,1.6,2.2l-.3-2.4,1.8-.2.5,4.5h-.8.2Z"/><path class="cls-9" d="m211.9,327.2c-8.5-.2-17.8-.2-26.3,0-14.8,1.9-22,20.9-11.6,31.8,2.2,3.3-1.6,9.5,2.3,11.8,3.3,1,5.2-3.4,7.4-5.1,9.2-1,20.3.5,29.8-.5,22.1-2.9,20.7-37.2-1.6-38.2v.2Z"/><path d="m190,343.5c1.7,0,3.2.5,4.4,1.5s1.7,2.5,1.7,4.3-.6,3.4-1.9,4.5c-1.3,1.1-2.8,1.6-4.7,1.6s-2.9-.3-4.1-1c-1.2-.7-2-1.7-2.5-3l4-2.3c.4,1.2,1.2,1.9,2.6,1.9s1.1,0,1.5-.4c.3-.3.5-.7.5-1.2s-.2-.9-.5-1.2-.8-.4-1.4-.4h-5.7l.7-10.5h10.5v4.4h-6.3v1.9c0,0,1.1,0,1.1,0h.1Z"/><path d="m215.7,344.8v1.8c0,2.6-.8,4.7-2.5,6.4-1.6,1.6-3.8,2.4-6.4,2.4s-5.1-.9-6.9-2.7c-1.8-1.8-2.7-4-2.7-6.6s.9-4.8,2.7-6.6c1.8-1.8,4-2.7,6.6-2.7s3.2.4,4.6,1.1c1.4.7,2.5,1.7,3.2,3l-3.9,2.2c-.4-.6-.9-1-1.6-1.3s-1.5-.5-2.3-.5c-1.4,0-2.6.5-3.5,1.4s-1.4,2.1-1.4,3.5.4,2.5,1.3,3.5c.9,1,2.1,1.4,3.8,1.4s3.4-.8,4.1-2.3h-4.3v-3.9h9.2Z"/></svg>