<?xml version="1.0" encoding="UTF-8"?><svg id="Layer_1" xmlns="http://www.w3.org/2000/svg" viewBox="0 0 400 400"><defs><style>.cls-1{stroke:#a5262d;}.cls-1,.cls-2,.cls-3{stroke-width:4px;}.cls-1,.cls-2,.cls-3,.cls-4{stroke-miterlimit:10;}.cls-1,.cls-2,.cls-3,.cls-4,.cls-5{fill:none;}.cls-2{stroke:#0018c6;}.cls-6{fill:#eb917f;}.cls-7{fill:#fbe501;}.cls-8{fill:#f9f3b1;}.cls-9{fill:#f3bd99;}.cls-3{stroke:#c000e2;}.cls-10{fill:#f15a24;}.cls-11{fill:#bacce9;}.cls-12{fill:#f4bd99;}.cls-13{fill:#06687f;}.cls-14{fill:#c7c7c7;}.cls-15{fill:#bdbdbd;}.cls-16{fill:#ecf5fe;}.cls-4{stroke:#231f20;stroke-width:2px;}.cls-17{fill:#b9cce9;}.cls-18{fill:#97d6e5;}.cls-19{fill:#aaa;}.cls-20{fill:#484645;}.cls-21{fill:#7dcbe5;}.cls-22{fill:#eecf15;}.cls-23{fill:#9dd8e6;}.cls-24{fill:#0092b9;}.cls-25{fill:#e5eff1;}.cls-26{fill:#33b1cb;}.cls-27{fill:#d7e1f2;}.cls-28{fill:#231f20;}.cls-29{fill:#33b1cc;}.cls-30{fill:#9fddea;}.cls-31{fill:#86cde8;}.cls-32{fill:#067fa6;}</style></defs><circle class="cls-1" cx="308.8" cy="62.5" r="45"/><path d="m279.5,47.3c-2.8-2.4-3.1-6.6-.7-9.4.1-.1.2-.3.4-.4,1.5-1.7,3.8-2.5,6.1-2.1l-.7,3c-1.2-.2-2.5.2-3.3,1.1-1.4,1.6-1.2,4.1.4,5.5,1.5,1.3,3.8,1.3,5.3-.1.9-.9,1.3-2.2.9-3.4l2.9-.9c.9,3.7-1.3,7.4-5,8.3-2.3.6-4.7,0-6.4-1.7h0Z"/><path d="m291,38.6c-1.2-2.5-.2-5.5,2.3-6.7,2.5-1.2,5.5-.2,6.7,2.3,1.2,2.5.2,5.5-2.3,6.7-2.5,1.2-5.5.2-6.7-2.3,0,0,0,0,0,0Zm6.5-3.1c-.6-1.1-1.9-1.4-2.9-.9s-1.4,1.9-.9,2.9c.5,1,1.8,1.4,2.8.9,1.1-.5,1.6-1.7,1.1-2.8,0,0,0-.1,0-.2Z"/><path d="m312,32.5c.4,2.7-1.4,5.1-4.1,5.6-1,.2-2.1-.1-2.9-.8l.5,4.8-2.8.3-1.5-13.4,2.8-.3v.9c.7-.9,1.7-1.4,2.8-1.5,2.7-.2,5,1.8,5.2,4.5,0,0,0,0,0,0h0Zm-2,.3c0-1.2-1.2-2.2-2.4-2.1,0,0,0,0,0,0-1.2,0-2.1,1.1-2,2.3,0,0,0,.2,0,.3,0,1.2,1.2,2.2,2.4,2.1,0,0,0,0,0,0,1.2,0,2.1-1.1,2-2.3,0-.1,0-.2,0-.3h0Z"/><path d="m325,35.2c-.5,2.6-3,4.3-5.6,3.8-1-.2-1.9-.9-2.5-1.8l-1.1,4.6-2.8-.7,3.2-12.9,2.8.7-.2.9c.9-.5,2-.7,3-.4,2.5.8,4,3.4,3.2,6,0,0,0,0,0,0v-.2Zm-3.3-1.1c.3-1.4-.8-2.8-2.3-2.8s-1.5.5-1.9,1.2c-.7,1.4,0,2.9,1.4,3.3,1.2.4,2.4-.3,2.8-1.5,0,0,0-.2,0-.2h0Z"/><path d="m329.1,41.1c.6.4,1.2.5,1.9.4l1.2,2.4c-1.5.6-3.2.3-4.5-.7-2.7-1.8-3.2-4.7-1.6-7.1,1.4-3,5.3-3.9,8-1.5.6.5,1.1,1.2,1.3,2,.6,1.8.2,3.7-1,5-.2.3-.5.6-.7.9l-5.6-3.7c-.2,1,.3,1.9,1.2,2.4h-.2Zm3.4-2c.4-.9,0-2-.9-2.4-.8-.6-1.9-.6-2.6,0l3.4,2.3h.1Z"/><path d="m343.1,44.1l-2.4,2.1c-.6-1-2.1-2-3.5-.7l-3.2,2.8-1.9-2.1,7.2-6.2,1.9,2.1-1.3,1.1c1.2-.4,2.5,0,3.3.9h-.1Z"/><rect class="cls-10" x="283" y="54.1" width="52" height="37" rx="2.9" ry="2.9"/><path class="cls-20" d="m300.1,85.1c-3.3.1-6.5-1.2-8.8-3.5-4.7-4.9-4.7-12.7,0-17.6,2.3-2.4,5.5-3.6,8.8-3.5,3.5,0,4.1.5,5.9,1.5,1.8,1,3.3,2.4,4.3,4.1l-5.2,3c-.5-.8-1.2-1.5-2-2-.9-.5-2-.7-3-.7-1.7,0-3.4.6-4.6,1.8-1.2,1.2-1.8,2.9-1.7,4.6-.2,3.3,2.3,6.2,5.6,6.4.2,0,.5,0,.7,0,1.1.1,2.1-.1,3-.7.9-.5,1.5-1.1,2-2l5.2,3c-1,1.7-2.5,3.1-4.3,4.1-1.8,1-3.9,1.5-6,1.5h.1Z"/><path class="cls-20" d="m323.1,68.1h5.9v17h-6v-1.7c-1.1,1.5-2.9,2.3-4.7,2.2-1.7.1-3.4-.6-4.5-1.9-1.2-1.2-1.7-3-1.7-5.4v-10.1h6v9.4c0,.7.2,1.5.7,2,.5.5,1.1.7,1.7.7.7,0,1.4-.3,1.9-.8.5-.6.7-1.5.7-2.3v-9h0Z"/><line class="cls-5" x1="198" y1="116.1" x2="198.5" y2="149.1"/><line class="cls-4" x1="198" y1="116.1" x2="198.3" y2="138.1"/><polygon class="cls-28" points="191 136.3 198.7 149.1 206 136.1 191 136.3"/><line class="cls-5" x1="117.1" y1="112.2" x2="165.7" y2="151.5"/><line class="cls-4" x1="117.1" y1="112.2" x2="157.4" y2="144.7"/><polygon class="cls-28" points="151 149.2 165.7 151.5 160.4 137.6 151 149.2"/><line class="cls-5" x1="279.7" y1="112.2" x2="231.1" y2="151.5"/><line class="cls-4" x1="279.7" y1="112.2" x2="239.5" y2="144.7"/><polygon class="cls-28" points="236.5 137.6 231.1 151.5 245.9 149.2 236.5 137.6"/><circle class="cls-1" cx="91.2" cy="62.5" r="45"/><path class="cls-31" d="m61,64.9v-.6c.3-.5.9-.8,1.4-.8,1.4-.1,2.5-1.3,2.6-2.8v-.8c0-.4.5-.8.9-.7,0,0,0,0,0,0,.5,0,.9.3.9.8,0,.3,0,.5.1.8.2,1.1,1.1,2,2.2,2.2.7.2.7,0,.7-.6v-13.5c0-.4.2-.7.6-.8,0,0,.1,0,.2,0h30.6s-.3.7-.5.9l-7.2,7.2c-.2.2-.4.4-.5.6-.2.4-.1.9.2,1.2.3.3.8.4,1.2,0,.2-.1.4-.3.5-.5l8.3-8.3c.3-.3.5-.6.6-.2h3.4c0-.5-.3-.4-.5-.2l-13.3,13.3-.5.5c-.3.3-.3.7,0,1,.2.3.5.5.9.5.3,0,.6-.2.9-.4l14.6-14.6c.3-.2.5-.5.5-.1h1.1c1-.8.9-.9.9.1v28.3q0,.8.8.6c1.3-.4,2.2-1.5,2.2-2.8,0-.5.3-.9.8-1,0,0,.1,0,.2,0,.6,0,.9.4,1,1,0,1.5,1.3,2.8,2.8,2.9.5,0,1.2.8,1.2.8v.6s-.6.7-1.1.7c-1.6,0-2.8,1.3-2.8,2.9,0,.3-.2.7-.4.9-.2.2-.6.3-.9,0-.4-.1-.6-.5-.6-.9-.2-1.6-.9-2.6-2.3-2.9-.7-.2-.7,0-.9.6v12.6c.2.5,0,.8-.5.5h-21.6s.3,0,.5-.3l7.5-7.5c.5-.6.6-1.1,0-1.5-.4-.4-1-.4-1.4,0h0c0,0-8.7,8.8-8.7,8.8-.2.2-.5,1.5-.5,1.5h-3.4s.3-1,.5-1.2l13.3-13.3c.2-.2.4-.4.5-.6.2-.4.2-.9-.2-1.2-.3-.3-.8-.3-1.2,0,0,0,0,0,0,0,0,0-.2.2-.3.3l-14.6,14.6c-.3.2-.4.6-.5,1.4h-10.2c-.4-.4-.8-.7-.9-1.2,0,0,0-.1-.4-.2v-27.5c.4-.7.4-.8-.3-.6-1.3.4-2.2,1.5-2.3,2.9,0,.5-.4,1-.9,1,0,0,0,0-.1,0-.6,0-1.4-1-1.4-1v-.4c-.1-1.3-1.2-2.4-2.6-2.5-.5,0-.9-.3-1.2-.7h-.2Zm5,.5c.4-.2.7-.5.9-.9-.3-.4-.6-.7-.9-1-.3.2-.7.6-.9.9.2.3.6.7.9.9h0Zm51.1,14.2c-.2-.4-.5-.7-.9-.9-.3.2-.7.6-.9.9l.9.9.9-.9Z"/><path class="cls-29" d="m108,48.6c.3-.1.5-.3.7-.6.8-.8,1.6-.6,1.9.5,0,.4-.2.7-.5.9l-14.6,14.6c-.2.3-.6.4-.9.4-.4,0-.7-.2-.9-.5-.2-.3-.2-.7,0-1,.1-.2.3-.4.5-.5l13.3-13.3c.2-.2.4-.3.5-.6h0Z"/><path class="cls-26" d="m83.8,94.4c-.3,0-.5.4-.8.6-.8.7-1.6.5-1.8-.6,0-.4.2-.7.5-.9l14.6-14.6.3-.3c.4-.3.8-.3,1.2,0,.4.3.4.8.2,1.2-.1.2-.3.4-.5.6l-13.3,13.3c-.2.2-.4.3-.5.6h.1Z"/><path class="cls-29" d="m101.5,48.6c.2,0,.4-.2.6-.4,1-1,1.6-.8,2.1.4,0,.4-.3.7-.6,1l-8.3,8.3-.5.5c-.4.3-.9.2-1.2,0-.4-.3-.5-.8-.2-1.1,0,0,0,0,0,0,.1-.2.3-.4.5-.6l7.2-7.2c.2-.2.4-.3.5-.6h0Z"/><path class="cls-29" d="m89.8,94.5c-.3.1-.5.3-.7.6-.8.8-1.6.5-1.9-.5,0-.3.2-.6.5-.8l8.7-8.7c.2-.4.8-.6,1.2-.3,0,0,.1,0,.2.1h0c.4.5.4,1.1,0,1.5,0,0,0,0,0,0l-7.5,7.5c-.2.2-.4.3-.4.6h0Z"/><path d="m79.5,32.3c2,2.8,1.4,6.7-1.4,8.8-.2.1-.3.2-.5.3-3,2.4-7.4,1.9-9.8-1.1-2.4-3-1.9-7.4,1.1-9.8.3-.3.7-.5,1-.7,1.9-1.3,4.4-1.6,6.6-.6l-1.4,2.7c-1.2-.5-2.6-.3-3.6.5-1.8,1.1-2.4,3.4-1.3,5.2,0,0,.1.2.2.3,1.2,1.9,3.5,2.4,5.7,1,1.3-.7,2-2.2,1.7-3.6l-3,1.9-1.5-2.2,5.6-3.7.6,1Z"/><path d="m80.4,24.6l2.8-.7,3.5,13.5-2.8.7-3.5-13.5Z"/><path d="m97.9,27.1l-.2,10h-3.7v-1.1c0,.8-1,1.2-2.1,1.1-2.5,0-4.5-2.3-4.5-5.1,0-2.6,2-4.8,4.6-4.9,0,0,0,0,.1,0,1.1,0,2.1.4,2.9,1.2v-1.2h2.9Zm-3,5c.1-1.2-.8-2.3-2-2.4,0,0-.1,0-.2,0-1.2,0-2.2.8-2.3,2,0,.1,0,.2,0,.3-.1,1.2.8,2.3,2,2.4,0,0,.1,0,.2,0,1.2,0,2.2-.8,2.3-2,0-.1,0-.2,0-.3Z"/><path d="m106.6,37.3c-.8,2.1-2.9,2.3-4.8,1.6-1.7-.5-2.9-1.9-3.1-3.6l2.8-.5c0,.7.4,1.4,1.1,1.6.6.2,1,.2,1.2-.2.4-1-4.2-2.1-3.1-5.2.7-2,2.7-2.3,4.6-1.6,1.5.5,2.5,1.7,2.8,3.2l-2.8.4c0-.6-.4-1.1-.9-1.2-.5-.2-.8,0-.9.2-.4,1,4.3,2,3.1,5.3Z"/><path d="m113.3,42.1c-1.3,1.8-3.4,1.4-5.1.2-1.5-.9-2.2-2.6-2-4.3l2.8.3c-.2.7,0,1.5.7,1.9.6.4,1,.4,1.2,0,.6-.9-3.5-3.2-1.6-5.8,1.2-1.7,3.3-1.5,4.9-.3,1.3.8,2,2.3,1.8,3.8l-2.8-.4c0-.6,0-1.1-.5-1.4s-.8-.3-1,0c-.6.9,3.6,3.1,1.5,5.9h0Z"/><circle class="cls-1" cx="200" cy="62.5" r="45"/><path d="m180.4,33.3c1.6,2,1.2,4.9-.8,6.5l-1.6,1.2,2.6,3.3-2.4,1.9-8.3-10.4,3.9-3.1c2-1.6,4.9-1.3,6.5.7,0,0,0,0,0,0h.1Zm-2.4,1.9c-.5-.7-1.4-.9-2.1-.4,0,0-.1,0-.2.1l-1.6,1.2,2.1,2.7,1.6-1.2c.7-.6.8-1.6.2-2.3,0,0,0,0,0,0h0Z"/><path d="m180.8,27.6l2.6-1.2,5.8,12.6-2.6,1.2-5.8-12.6Z"/><path d="m198.2,27.1l1.7,9.4-2.8.5-.2-.9c-.6.9-1.5,1.5-2.6,1.6-2.6.4-5-1.5-5.4-4.1v-.3c-.2-1.1,0-2.3.5-3.2s1.8-1.9,3-2.2c1-.2,2.1,0,3,.6l-.2-.9,2.8-.5h0Zm-2,5.2c-.1-1.2-1.2-2.1-2.4-1.9,0,0-.1,0-.2,0-1.2.1-2,1.2-1.9,2.4,0,.1,0,.2,0,.3.1,1.2,1.2,2.1,2.4,1.9,0,0,.1,0,.2,0,1.2-.1,2-1.2,1.9-2.4,0-.1,0-.2,0-.3Z"/><path d="m208.7,34.8c-.3,2.2-2.3,2.9-4.3,2.6-1.7,0-3.2-1.2-3.8-2.8l2.6-1.1c.1.7.8,1.3,1.5,1.3.7,0,1,0,1.1-.5.1-1-4.6-1.1-4.2-4.3.3-2.1,2.1-2.9,4.1-2.6,1.5.1,2.8,1.1,3.4,2.5l-2.6,1c-.2-.5-.6-.9-1.2-1-.5,0-.8,0-.9.4-.1,1.1,4.6,1,4.1,4.4h.2Z"/><path d="m214,32.8l-1.2,3.1c-.3.8.3,1.1,1.5,1.5l-.9,2.4c-3.6-1-4.2-2.4-3.3-4.9l1.2-3.2-1.4-.5,1-2.6,1.4.5.6-1.7,3,.2-.9,2.5,1.8.7-1,2.6-1.8-.7h0Z"/><path d="m219.7,32.2l2.4,1.5-4.9,8.2-2.4-1.5,4.9-8.2Zm1.1-2.1c.5-.8,1.5-1.1,2.3-.6.8.5,1.1,1.5.6,2.3-.5.8-1.5,1.1-2.3.6-.8-.4-1.1-1.5-.7-2.3,0,0,0,0,0,0h0Z"/><path d="m221.4,38.7c1.8-2,4.9-2.2,6.9-.4,0,0,.2.1.2.2,1.3,1.2,1.8,3,1.4,4.7l-2.8-.7c.2-.7,0-1.5-.6-2-.9-.8-2.3-.7-3.1.2-.8.9-.7,2.2,0,3,.5.6,1.4.8,2.1.5l.8,2.7c-1.7.5-3.5,0-4.8-1.2-2-1.9-2.1-5.1-.2-7.1,0,0,0,0,0,0h.1Z"/><path class="cls-27" d="m223,58.8v.3h-1.3c-.7-.2-.7.5-.7.5v30.8c0,.4-.1.9-.4,1.2-.2.2-.5.3-.7.5h-10.8c0,0,0-.2,0-.3l-1.2-5.4c-.7-3.1-1.4-6.3-2.2-9.4-1.1-4.6-2.2-9.2-3.2-13.8-.9-4-1.9-8.1-2.8-12h15.6c.2,0,.5,0,.6.2v6.4c0,.8.6,1.4,1.4,1.4h3.4s.4-.4.3-.7v-1.8c.2,0,.3,0,.3.2l1.7,2Z"/><path class="cls-17" d="m223,90.4c0,.8-.9,1.3-1.8,1.1-.4,0-.8,0-1.2,0,.2-.2.5-.2.7-.4.3-.3.4-.8.3-1.2v-30.4q0-.7.8-.4h1.2v31.3Z"/><path class="cls-15" d="m180,51v-.9c-.2-.8.3-1.7,1.1-2h1.9c0,0,0,.1,0,.2.6.4.9,1,.8,1.7,0,.4,0,.7,0,1.1h-3.9Z"/><path class="cls-19" d="m184,51.1v-1.2c-.2-.7-.5-1.4-1.1-1.8,0,0,0-.1-.1,0h2c.9.2,1.4,1.2,1.2,2.1v.9h-2Z"/><path class="cls-16" d="m209.4,92h0c0,0-6.3,0-6.3,0,0,0,0-.1,0-.2l-1.8-8.1-3.2-13.8c-1.1-4.6-2.2-9.3-3.2-14-.4-1.6-.7-3.3-1.1-4.9h6.3c.9,4,1.8,8.1,2.8,12,1.1,4.6,2.1,9.2,3.2,13.8.7,3.2,1.4,6.3,2.2,9.4.4,1.9.9,3.8,1.3,5.7Z"/><path class="cls-16" d="m216,51.5c.1,0,.2.1.3.2l4.6,5v.3c.1,0,.1,1.7.1,1.7,0,.2-.2.4-.4.4h-3.4c-.7,0-1.2-.6-1.2-1.4v-6.2Z"/><path class="cls-27" d="m193.8,51.1c.4,1.5.7,3.1,1.1,4.7,1.1,4.6,2.1,9.2,3.2,13.9l3.2,13.7,1.8,8c0,0,0,.7,0,.7h-14.1v-3.5c0-.5-.2-.8-.7-.8s-.3.8-.3.8v3.5h-9.3c-1,0-1.7-.8-1.7-1.7h0v-37.5c0-.9.7-1.7,1.7-1.7,0,0-.3,0-.3,0h9.6v2.9c-.5.4-.2.8.2.8,0,0,0,0,0,0,.5,0,.8-.3.7-.8v-2.9h4.8Zm-4.8,20.2v-1.5c0-.4-.3-.7-.7-.7s-.7.3-.3.7v3c-.4.4,0,.7.3.7s.7-.3.7-.7c0-.5,0-1,0-1.5Zm-1,6.1v1.6s0,.7.3.7.7-.7.7-.7v-3.1s-.3-.7-.7-.8c-.4,0-1.3.7-1.3.7h1v1.6h0Zm0-12.4v1.5c-.4.4-.1.8.3.8,0,0,0,0,0,0,.4,0,.7-.4.7-.8v-2.9c0-.6-.2-.8-.7-.8s-.7.3-.7.8,0,1,.4,1.5Zm0-6.3v1.5c-.5.4-.2.7.2.8,0,0,0,0,.1,0,.4,0,.7-.3.7-.7,0,0,0,0,0-.1v-2.9c0-.4-.2-.7-.6-.8,0,0,0,0-.1,0-.4,0-.7.3-.7.8s0,.9,0,1.4h.4Zm1,25v-1.5c0-.5-.2-.8-.7-.8-.4,0-.7.3-.7.7,0,0,0,0,.4.1v2.9c-.5.4-.2.7.2.8,0,0,0,0,.1,0,.5,0,.7-.3.7-.8s0-.9,0-1.4h0Z"/><path class="cls-17" d="m189,51.1v2.9c0,.5-.2.8-.7.8s-.7-.3-.3-.8v-2.9h1Z"/><path class="cls-15" d="m180.1,91.1h3.9v1.2c0,.8-.4,1.6-1.2,1.8h-1.2c-.8,0-1.6-.6-1.6-1.4,0,0,0,0,0-.1v-1.4h0Z"/><path class="cls-19" d="m182.9,94.1c1-.4,1.5-1.5.9-2.5l.2-.4h2.2c0,.6,0,1.2,0,1.8-.1.8-.8,1.3-1.6,1.2h-1.8Z"/><path class="cls-17" d="m188,91.1v-2.6c-.4-.5-.1-.8.3-.8.4,0,.7.3.7.7,0,0,0,0,0,0v2.6h-1Z"/><path class="cls-14" d="m179.8,51.1h0s0,0,0,0h0Z"/><path class="cls-14" d="m179.8,91.1h0c0,0,0,0,0,0h0Z"/><path class="cls-11" d="m189,71.3v1.5c0,.4-.3.7-.7.7s-.7-.3-.3-.7v-3c-.4-.4,0-.7.3-.7s.7.3.7.7c0,.5,0,1,0,1.5Z"/><path class="cls-17" d="m188,77.4v-1.5c-.4-.4-.2-.7.2-.7,0,0,0,0,0,0,.4,0,.7.4.7.8v3.1c0,.4-.2.7-.6.7,0,0,0,0-.1,0-.4,0-.7-.3-.7-.7,0,0,0,0,0-.1,0-.5,0-1,.4-1.5Z"/><path class="cls-17" d="m188,65v-1.5s-.2-.8.3-.8.7.8.7.8v2.9s-.3.8-.7.8c-.4,0-.7-.4-.7-.8,0,0-.6,0-.6,0l1-1.5Z"/><path class="cls-17" d="m188,58.8v-1.4c-.4-.5-.2-.8.3-.8.4,0,.7.3.7.6,0,0,0,0,0,.1v2.9c0,.4-.3.7-.7.7s-.7-.3-.7-.7c0-.5,0-1,.4-1.5Z"/><path class="cls-17" d="m189,83.8v1.4c0,.5-.2.8-.7.8-.4,0-.7-.3-.7-.6,0,0,0,0,.4-.1v-2.9c-.4-.4-.2-.7.2-.8,0,0,0,0,.1,0,.4,0,.7.3.7.8v1.4Z"/><line class="cls-5" x1="201" y1="251.1" x2="201.5" y2="284.1"/><line class="cls-4" x1="201" y1="251.1" x2="201.3" y2="273.1"/><polygon class="cls-28" points="193.5 270.3 201.2 283.1 208.5 270.1 193.5 270.3"/><circle class="cls-3" cx="200" cy="337.5" r="45"/><path d="m170,334.4v2l-5.2-.3,3.2,2.4v.2l-3.5,2,4.5.3v2c0,0-8-.5-8-.5v-2l3.9-2.1-2.9-2.5v-2c0,0,8,.5,8,.5Z"/><path d="m169.9,330.1c.2-.5.1-.9,0-1.3l1.3-1.1c.6.8.7,1.8.3,2.9-.7,2-2.4,2.8-4.2,2.2-1.7-.6-2.6-2.3-2-4.1.6-1.7,2.3-2.5,4.1-1.9.2,0,.5.2.7.3l-1.4,4.1c.7,0,1.1-.5,1.3-1.1h-.1Zm-1.8-1.8c-.7,0-1.2.4-1.3.9-.2.7,0,1.2.5,1.6l.8-2.5Z"/><path d="m169,317.5l7.3,4.5-1,1.6-.5-.3c.2.6.1,1.2-.3,1.9-.8,1.4-2.7,1.8-4.3.8-1.6-1-2.1-2.8-1.2-4.2.4-.7,1-1.1,1.6-1.2l-2.6-1.6,1-1.6h0Zm3.2,4.5c-.8-.5-1.6-.3-2,.5-.4.7-.3,1.5.5,2s1.6.3,2-.5.3-1.5-.5-2Z"/><path d="m170.6,316.3c-.5-.4-.5-1.1-.1-1.6s1.1-.5,1.6-.1.5,1.1.1,1.6-1.1.5-1.6.1Zm1.4.9l1.2-1.4,4.6,4-1.2,1.4-4.6-4Z"/><path d="m179.3,310.3l3.9,4.7-1.4,1.2-.4-.4c0,.6-.3,1.2-.9,1.7-1.2,1-3.2.8-4.3-.6s-1-3.3.2-4.4c.6-.5,1.3-.7,1.9-.6l-.4-.4,1.4-1.2Zm.5,3.5c-.6-.7-1.4-.8-2.1-.2-.7.5-.8,1.4-.2,2.1.6.7,1.4.8,2.1.2.7-.5.8-1.4.2-2.1Z"/><path d="m182,310.5l4.1-2.1.8,1.6-4.1,2.1-.8-1.6Z"/><path d="m197.5,310.1l-1.9.3-1.1-4.9-1.4,3.6h-.2l-3-2.6,1.1,4.9-1.9.4-1.9-8.4,1.9-.4,3.1,3.2,1.4-4.2,1.9-.4,1.9,8.5h.1Z"/><path d="m205,304.1l-.3,6h-2.7v-.5c0,.4-.7.7-1.5.7-1.2,0-2.3-1-2.2-2.6l.2-3.6h1.8v3.4c0,.8.3,1.1.9,1.2.7,0,1.8-1.2,1.8-1.2v-3.4c0,0,2,0,2,0Z"/><path d="m207,301.8l1.8.4-1.8,8.8-1.8-.4,1.8-8.8Z"/><path d="m211.7,308.1l-.7,1.8c-.2.5.2.7,1,.9l-.5,1.6c-2.4-.5-2.8-1.4-2.2-3.1l.7-2.1-.9-.3.6-1.7.9.3.4-.4h1.9l-.5,1,1.2.4-.6,1.7h-1.2c0-.1-.1-.1-.1-.1Z"/><path d="m214.9,307.2l1.7.8-2.6,5.5-1.7-.8,2.6-5.5Zm.5-1.6c.3-.5.9-.8,1.5-.5.5.3.8.9.5,1.5-.3.5-.9.8-1.5.5-.5-.3-.8-.9-.5-1.5Z"/><path d="m219,313.1c1.2-1.4,3.1-1.6,4.6-.4.9.8,1.3,1.9,1.1,3l-1.8-.3c0-.5,0-.9-.5-1.3-.6-.5-1.4-.4-2,.2-.5.7-.5,1.5.2,2,.4.3.9.4,1.4.2l.7,1.7c-1,.4-2.2.2-3.1-.5-1.4-1.2-1.6-3.2-.4-4.6h-.2Z"/><path d="m230.6,320.4l-4.8,3.8-1.1-1.4.5-.4c-.6,0-1.2-.3-1.7-1-1-1.3-.7-3.2.7-4.3,1.4-1.1,3.4-1,4.4.3.5.6.7,1.3.5,1.9l.5-.4,1.1,1.4h0Zm-3.5.5c.7-.6.8-1.4.3-2.1-.5-.7-1.4-.8-2.1-.2-.7.6-.8,1.4-.3,2.1s1.4.8,2.1.2Z"/><path d="m233,331.9l-3.5,1.4-.7-1.7,3.3-1.4c.6-.2.8-.7.6-1.2-.2-.6-.8-.7-1.4-.4l-3.2,1.3-.7-1.7,3.3-1.4c.6-.2.8-.7.6-1.2-.2-.6-.8-.7-1.4-.4l-3.2,1.3-.7-1.7,5.7-2.3.7,1.7-.5.2c.5,0,1,.5,1.3,1.2s.2,1.3,0,1.8c.6,0,1.1.5,1.4,1.3.5,1.3,0,2.5-1.5,3.1h0Z"/><path d="m232,337.3c0,.5.3.9.6,1.1l-.7,1.6c-.9-.5-1.4-1.3-1.6-2.5-.2-2.1,1-3.5,2.8-3.8,1.8-.2,3.4.9,3.6,2.9.2,1.8-1,3.3-2.8,3.5h-.7l-.5-4.3c-.6.3-.8.9-.7,1.6h0Zm1.9.6c.7-.3.9-.9.8-1.4,0-.7-.5-1.1-1.1-1.2,0,0,.3,2.6.3,2.6Z"/><path d="m236.4,345.1h-2.1c.2-1.2,0-2.3-1.3-2.3l-3-.2v-1.8c.3,0,6.4.4,6,.4v1.9h-.8c.8.2,1.1,1,1.1,1.8v.2Z"/><path d="m235,352.4l-6.3-1.5.4-1.8h.6c-.4-.4-.5-1-.3-1.8.4-1.6,2.1-2.5,3.8-2.1,1.8.4,2.8,2.1,2.4,3.6-.2.8-.6,1.3-1.2,1.3h.6c0,.4-.4,2.2,0,2.2h0Zm-2.9-2.5c.9.2,1.6-.2,1.8-1.1.2-.8-.2-1.6-1.1-1.8s-1.6.2-1.8,1.1c-.2.8.2,1.6,1.1,1.8Z"/><path class="cls-24" d="m209,369.1h-18.2c-.4-1.5-1.2-2.8-2.2-3.9-.3-.3-.3-.4,0-.7,1.3-1.3,2.6-2.5,3.8-3.8,1.2-1.2,1.5-2.9.9-4.4,0-.6,0-1.3,0-1.9-.6-2.3-2.9-3.7-5.1-3.1-.8.2-1.4.6-2,1.1-2.3,2.2-4.5,4.5-6.8,6.8-.4.4-.9.9-1.4,1.3v-34.9c0-1.5.9-2.9,2.3-3.4.4,0,.8-.2,1.3-.2h35.8c2,0,3.6,1.6,3.6,3.6v27.4h-8c-1.3,0-2.7.8-3.1,2-.7,1.5,0,3.4,1.3,4h-.4c.2.5.6.4.7.6-1.7.4-2.8,2-2.3,3.8.2.8.7,1.6,1.5,2h0c.2.4.6.4.7.6-1.5.4-2.4,1.7-2.4,3.1h0Zm-7-32v-9.1c0-1-.9-1.9-1.9-1.9h-16c-1.2,0-2.1.9-2.1,2.1v17c0,1,.7,1.8,1.6,1.9h17c.9.2,1.7-.4,1.4-1.3v-8.8h0Zm8-5h3.3q1.3-.2,1.3-1.5c0-.4-.5-.5-.5-.5h-6.9s-1.3,0-1.3,1.3,0,.5.5.7h3.6v-.3.3Zm3.3-5h-2.7q-1.2-.4-1.2.9c0,.4.2.5.5,1.1h5.9q1.3-.6,1.3-2c0-.3,0-.4-.4,0h-3.4,0Zm-7.3.4c0,1-.2.9.8.9s.9-.3.9-.9q0-.9-.9-.9c-.9,0-.8,0-.8.8h0Z"/><path class="cls-12" d="m178,361.4c.5-.4.9-.9,1.4-1.3,2.2-2.2,4.4-4.4,6.7-6.7,1.6-1.9,4.4-1.9,6.1-.2.6.5.9,1.2,1.1,2,0,.6.2,1.3,0,1.9-.3.9-.8,1.8-1.5,2.5-2,1.9-3.9,3.9-5.8,5.8-.3.3-.3.4,0,.7,1,1.1,1.8,2.5,2.2,3.9h-13.2c-.2,0-.4-.2-.4-.4,0-1.2,0-2.4.2-3.5.3-1.2.9-2.3,1.7-3.1l1.5-1.5v-.2Z"/><path class="cls-9" d="m210.4,359.1c-1.3-.6-2-2.6-1.3-4,.5-1.3,1.8-2.1,3.2-2h8.1c1.8.2,2.9,1.1,3.3,2.7-.2,0-.2,0-.2.2-.4.9-1.1,1.5-1.9,1.8-.6.2-1.2.3-1.7.3h-8.1c-1,0-1.2,0-1.2,1.1Z"/><path class="cls-12" d="m210.4,365.2c-1.5-.9-2.1-2.9-1.2-4.4.5-.8,1.2-1.3,2.1-1.5.4,0,.7,0,1.1-.2h8.5c.7.2,1.3.6,1.8,1,.5.5.8,1.1,1,1.7,0,0-.2,0-.2.2-.7,1.6-2,2.1-3.6,2.1h-8.3c-1,0-1.2.2-1.2,1.2Z"/><path class="cls-12" d="m209,369.9c0-1.6,1.1-3,2.6-3.3.2,0,.5,0,.7,0,3.1,0,6.3,0,9.4,0,0,.2.2.2.3.2,1.2.4,2.1,1.3,2.4,2.6.2.7,0,.8-.6.8h-14.8v-.2Z"/><path class="cls-32" d="m188,370.2c-.4-1.5-1.1-2.8-2.2-3.9-.3-.3-.3-.4,0-.7,2-1.9,3.9-3.9,5.8-5.8.7-.7,1.2-1.5,1.5-2.5.6,1.5.3,3.3-.9,4.4-1.3,1.3-2.6,2.6-3.8,3.8-.3.3-.3.4,0,.7,1,1.1,1.8,2.5,2.2,3.9h-2.6Z"/><path class="cls-6" d="m221.2,366.2c-3.1.2-6.3,0-9.4,0s-.5,0-.7,0c-.3-.2-.6-.2-.8-.5h0c0-1.1.2-1.3,1.2-1.7h8.6c1.7.4,3,0,3.7-1.8,0,0,0-.2.2-.2.2,2-.7,3.4-2.4,4h-.4Z"/><path class="cls-6" d="m221,359.1h-8.8c-.4.3-.7.3-1.1.5-.2-.2-.8.5-.8.5h0l1.3-3h8.4s1.2.6,1.8.3c.9-.3,1.6-1,2-1.9,0,0,0-.2.2-.2.4,1.8-.7,3.5-2.5,3.8h-.4Z"/><path class="cls-13" d="m203,337.1v8.2c0,1-.8,1.8-1.8,1.8h-17.3c-1,0-1.8-.7-1.9-1.7v-17.2c0-1.3.7-2,2.1-2h16.6s1.9,1.2,1.3,2.2v8.8h1Zm-11.7,4.3c0-1.9-1.5-3.4-3.4-3.4s-3.4,1.5-3.4,3.4,1.5,3.4,3.4,3.4h0c1.9,0,3.4-1.5,3.4-3.4Zm0-8.6c0-1.9-1.5-3.4-3.4-3.4s-3.4,1.5-3.4,3.4,1.5,3.4,3.4,3.4,3.4-1.5,3.5-3.3h0Zm5.1,3.4c1.9,0,3.4-1.5,3.4-3.4s-1.5-3.4-3.4-3.4-3.4,1.5-3.4,3.4h0c0,1.9,1.5,3.4,3.4,3.4h0Zm3.6,5.9v-2.3s-1.3-.9-1.7-.7h-3.5c-.4-.3-.9,0-.8.4v3.5c-.1.5.7,1.1.7,1.1h3.5c.5-.2.9-.5.8-1h0v-1h1Z"/><path class="cls-18" d="m210,332.1h-3.6c-.3-.2-.5-.2-.5-.6,0-.9,1.3-1.4,1.3-1.4h6.9s.5.1.5.6c0,.9-.4,1.3-1.3,1.4h-3.3Z"/><path class="cls-23" d="m213.2,327.1h3.4c.3-.4.4-.4.4,0q0,1.4-1.3,2h-5.9c-.4-.6-.5-.6-.5-1.1,0-.9.4-1.3,1.2-.9h2.7Z"/><path class="cls-23" d="m206,327.6c0-.5.3-.8.8-.8s.8.3.9.9q0,.9-.9.9c-1,0-.8,0-.8-.9h0Z"/><path class="cls-9" d="m210.2,359.1h0c0,0,0,0,0,0Z"/><path class="cls-21" d="m191.3,341.1c0,2-1.8,3.6-3.9,3.4s-2.4-1.1-2.8-2.4c-.8-2.4,1.1-4.5,3.2-4.5s3.4,1.6,3.4,3.5h0Zm-5.3-.2v.4c0,.8.5,1.4,1.2,1.7.9.3,1.9-.2,2.2-1.1.2-.5,0-1.1-.2-1.5-.4-.5-1.1-.8-1.7-.6-1.1,0-1.4.3-1.4,1.2h0Z"/><path class="cls-21" d="m191.3,332.8c0,1.9-1.5,3.4-3.4,3.4s-3.4-1.5-3.4-3.4,1.5-3.4,3.4-3.4h0c1.9,0,3.4,1.5,3.4,3.4h0Zm-5.3-.3c-.2.6,0,1.3.6,1.7s1.4.4,2,0c.5-.4.8-1,.7-1.7,0-.9-.9-1.5-1.8-1.4h-.2c-.5-.2-1.1,0-1.3.6v.7h0Z"/><path class="cls-21" d="m196,336.2c-2,0-3.6-1.8-3.4-3.9.2-1.3,1.1-2.4,2.4-2.8,2.4-.8,4.5,1.1,4.5,3.2s-1.6,3.4-3.5,3.4h0Zm-1.2-4.1c-.3.4,0,.8.2,1.2.4.6,1.1,1,1.8.8.7,0,1.2-.7,1.3-1.3.2-.8-.2-1.5-.9-1.9-.4-.2-.8-.3-1.3-.2-.9,0-1.4.6-1.2,1.4h.1Z"/><path class="cls-7" d="m199,341.6v1.6c0,.5-.3.9-.8.9h-3.3c-.5,0-.9-.3-.9-.8v-3.4c0-.4.3-.9.7-.9h3.4c.5,0,.9.3.9.8v.2c0,.5,0,1.1,0,1.5Zm-3-.5h1.6c.3,0,.5-.2.5-.6s-.3-.3-.5-.4h-1.3c0-.2-.3-.3-.5-.4-.4,0-.8.3-1,.7-.2.2,0,.6,0,.8.4.3.7,0,1,0h.1Zm.4,2h1.3s.4-.6.4-.8h0c0-.3-.4-.2-.4-.2h-2.5s-.4,0-.4.1h0c0,.2.4-.1.4-.1h1.3v1Z"/><path class="cls-30" d="m187,339.7c1.1-.2,1.8,0,2.2.6.6.8.4,1.9-.4,2.4-.4.3-1,.4-1.5.2-.7-.3-1.2-.9-1.3-1.7v-.4c.3.3.6.4,1,.3,0,.8.5,1.2,1.1,1,.4-.2.7-.6.5-1.1,0-.4-.6-.7-1-.6,0-.3,0-.6-.6-.8h0Z"/><path class="cls-25" d="m187.5,339.7c.2.2.2.5,0,.8,0,.3-.4.5-.6.7-.3,0-.7,0-.9-.3,0-.9.3-1.2,1.4-1.2Z"/><path class="cls-30" d="m188,331.2c.9-.2,1.7.3,2,1.2v.2c0,.6-.2,1.3-.7,1.7-.6.4-1.4.4-2,0-.5-.4-.8-1.1-.6-1.7.2.2.5.2.8,0,0,.8.5,1.2,1.1,1,.4,0,.6-.5.6-.9s-.4-.7-1.1-.7c0-.3,0-.6,0-.8h0Z"/><path class="cls-25" d="m187.1,332.5c-.3,0-.6,0-.8,0-.2-.5,0-1.1.6-1.3h.7c.2.2.2.5,0,.8-.2.2-.4.5-.6.6Z"/><path class="cls-30" d="m196,331.1c.4,0,.9,0,1.3.2.7.4,1,1.1.9,1.9-.2.6-.7,1.1-1.3,1.3-.7,0-1.4-.2-1.8-.8-.2-.4-.4-.7-.2-1.2.2,0,.5.2.8.2,0,.4,0,.8.6.9.4,0,.9,0,1-.4.3-.6,0-1.1-1-1.2,0-.3,0-.7-.3-.9Z"/><path class="cls-25" d="m196,331.1c.3.2.4.6.3.9-.2.3-.4.5-.7.7-.3,0-.5,0-.8-.2-.3-.8.3-1.4,1.2-1.4Z"/><path class="cls-22" d="m196.4,343.1h-1.3s-.4-.6-.4-.8h0c0-.2.3-.2.3-.2h2.5c.2-.2.4-.2.4.2s-.4-.2-.4-.2h-1.3l.2,1Z"/><path class="cls-8" d="m196,340.9h0c-.3.2-.6.4-1,0-.2-.2-.3-.5,0-.8.2-.4.5-.7,1-.7s.5.2.5.5,0,.6-.3.8h-.1Z"/><path class="cls-22" d="m196,341.1c.2-.4.3-.7.3-1h1.3c.2,0,.5,0,.5.3s-.2.5-.5.7h-1.6Z"/><path class="cls-21" d="m187,341.2c.2-.2.5-.4.6-.7.4,0,.9,0,1,.6.2.4,0,.9-.5,1.1-.6.2-1.1-.2-1.1-1Z"/><path class="cls-21" d="m187.1,332.6l.6-.6c.6,0,1,.2,1.1.7,0,.4-.2.8-.6.9-.6.2-1.1-.3-1.1-1Z"/><path class="cls-21" d="m195.6,333.1c.3-.2.5-.4.7-.7.8,0,1.2.5,1,1.2-.2.4-.6.6-1,.4-.5,0-.6-.5-.6-.9h-.1Z"/><circle class="cls-2" cx="200" cy="201.5" r="45"/><path d="m172,189.9l-.7,2.3-5.9-1.6,3.6,3.8v.3l-5.1,1.5,5.9,1.6-.7,2.3-10.1-2.7.7-2.3,5.3-1.5-3.8-3.9.7-2.3,10.1,2.7h0Z"/><path d="m170.5,178.2l6.6,4.5-1.4,2-.6-.4c.2.7.1,1.6-.5,2.4-.9,1.3-2.6,1.8-4.4.6l-4-2.8,1.4-2,3.8,2.6c.8.6,1.6.3,2-.3.5-.7.4-1.5-.5-2.2l-3.6-2.5,1.4-2h-.2Z"/><path d="m170,173.5l1.7-1.7,8.1,8.4-1.7,1.7-8.1-8.4Z"/><path d="m180,173.1l1.6,2.3c.4.6.9.3,1.7-.4l1.2,1.8c-2.4,2.1-3.7,1.8-5,0l-1.6-2.3-1,.7-1.3-1.9,1-.7-.9-1.2,1.6-2,1.3,1.8,1.4-.9,1.3,1.9-1.4.9h.1Z"/><path d="m180.8,167.3c-.3-.7,0-1.6.7-1.9s1.6,0,1.9.7c.3.7,0,1.6-.7,1.9s-1.6,0-1.9-.7Zm1.2,1.8l2.2-1.1,3.5,7.2-2.2,1.1-3.5-7.2Z"/><path d="m187.2,168.9l5.9-1.6.6,2.2-5.9,1.6-.6-2.2Z"/><path d="m195.3,168.8c0-2.4,1.7-4.3,4.1-4.3s2.9.7,3.7,2l-2.1,1.3c-.3-.6-.9-.9-1.6-.9-1,0-1.8.8-1.8,1.9s.8,1.8,1.9,1.8,1.3-.4,1.5-.9l2.1,1.1c-.7,1.3-2,2.1-3.6,2.2-2.4,0-4.3-1.7-4.3-4.1h0Z"/><path d="m213.3,166.8l-1.9,7.8-2.3-.6.2-.7c-.7.5-1.5.6-2.5.4-2-.5-3.3-2.7-2.7-5,.6-2.3,2.7-3.7,4.7-3.2,1,.3,1.7.8,2.1,1.5l.2-.7,2.3.6h0Zm-3.3,3.3c.3-1.2-.3-2.1-1.4-2.4-1.1-.3-2,.3-2.3,1.4-.3,1.2.3,2.1,1.4,2.4s2-.3,2.3-1.4Z"/><path d="m224.9,177.4l-2.8,4-2-1.4,2.7-3.9c.5-.7.4-1.3-.2-1.7-.7-.5-1.3-.2-1.9.5l-2.6,3.7-2-1.4,2.7-3.9c.5-.7.4-1.3-.2-1.7-.7-.5-1.3-.2-1.9.5l-2.6,3.7-2-1.4,4.5-6.6,2,1.4-.4.6c.6-.2,1.4-.2,2.3.4.8.5,1.1,1.3,1.1,2.1.7-.3,1.6-.2,2.5.4,1.5,1,1.8,2.8.6,4.5l.2.2Z"/><path d="m226.3,184.1c.4.5.9.8,1.4.9l.2,2.2c-1.3,0-2.5-.6-3.4-1.9-1.6-2.2-1.1-4.7.8-6.1s4.4-1.1,5.9,1c1.4,1.9.9,4.4-1.1,5.8-.3.2-.6.4-.8.5l-3.3-4.6c-.5.7-.3,1.5.2,2.2h.1Zm3.2-.2c.6-.7.5-1.5,0-2.1-.5-.7-1.3-1-2-.7l2,2.8Z"/><path d="m236.6,190.7l-2.5,1c-.2-1-1.1-2.1-2.6-1.5l-3.3,1.4-.9-2.2,7.4-3.1.9,2.2-1.3.5c1.1,0,2,.7,2.4,1.6h0Z"/><path d="m238.1,201.1l-7.2,1.2-.4-2.2h.6c-.6-.5-1.1-1.2-1.2-2.1-.3-1.9,1.1-3.7,3.3-4,2.2-.4,4,.9,4.4,2.8.2,1,0,1.7-.5,2.3h.6c0,0,.4,2,.4,2Zm-3.9-1.9c1.2-.2,1.8-1.1,1.6-2.2-.2-1.1-1-1.8-2.2-1.6s-1.8,1.1-1.6,2.2c.2,1.1,1,1.8,2.2,1.6Z"/><path class="cls-13" d="m223,213.1v18.9c.2,2.1-1.4,3.9-3.4,4.1h-39.2c-2.3.2-4.2-1.5-4.4-3.8v-38.5c0-2.6,2.1-4.7,4.7-4.7h38.4s4.2,1.7,4.9,3.9v20.1h-1Zm-24.9,9.7c0-4.3-3.5-7.8-7.8-7.8s-7.8,3.5-7.8,7.8,3.5,7.8,7.8,7.8h0c4.3,0,7.8-3.5,7.8-7.8Zm-.2-19.7c0-4.8-4.4-8.6-9.4-7.6s-5.5,3-6.1,6.1c-1,5,2.8,9.4,7.6,9.4s7.8-3.3,7.9-7.6v-.2h-.1Zm11.9,7.8c4.3,0,7.9-3.5,7.9-7.8s-3.5-7.9-7.8-7.9-7.9,3.5-7.9,7.8h0c0,4.3,3.5,7.9,7.8,7.9h0Zm6.2,11.8v-3.3c.1-1.1-.6-2.1-1.7-2.3h-8.1c-1-.1-1.9.6-2.1,1.6v8.2c0,1.1.7,2.1,1.7,2.2h7.9c1.1-.6,2-1.3,1.4-2.4v-4.1h1Z"/><path class="cls-21" d="m198.1,222.8c0,4.3-3.6,7.8-7.9,7.7-4.3,0-7.8-3.6-7.7-7.9,0-4.3,3.5-7.7,7.8-7.7s7.9,3.6,7.8,7.9h0Zm-12.1-1.1v.9c0,1.7,1.1,3.3,2.7,3.9,2.1.7,4.3-.5,5-2.6.4-1.2.2-2.5-.6-3.5-.9-1.2-2.4-1.8-3.9-1.5-2.4,0-3.2.6-3.2,2.7h0Z"/><path class="cls-21" d="m198.1,203.1c0,4.3-3.5,7.8-7.8,7.8s-7.8-3.5-7.8-7.8,3.5-7.8,7.8-7.8h0c4.3,0,7.8,3.5,7.8,7.8h0Zm-11.5-1c-.4,1.5,0,3.1,1.3,4,1.4,1,3.2,1,4.6,0,1.2-.8,1.9-2.3,1.6-3.8-.2-2-2.1-3.5-4.1-3.2h-.5c-1.2-.4-2.6.2-3,1.4-.2.5-.2,1.1,0,1.6h.1Z"/><path class="cls-21" d="m209.9,211c-4.3,0-7.8-3.6-7.8-7.9s3.6-7.8,7.9-7.8,7.8,3.6,7.8,7.9-3.6,7.8-7.9,7.8Zm-3.7-8.6c-.6,1,0,1.9.4,2.7.8,1.5,2.5,2.2,4.1,1.9,1.5-.3,2.7-1.5,3.1-3,.4-1.7-.4-3.5-2-4.3-.9-.4-1.9-.6-2.9-.5-2,0-3.3,1.3-2.7,3.2Z"/><path class="cls-7" d="m216,222.8v4.5c0,1-.8,1.8-1.8,1.8h-8.1c-1.1.1-2-.7-2.1-1.7v-8.1c-.1-1,.6-1.9,1.6-2.1h8c1.1-.2,2,.5,1.4,1.5v4.1h1Zm-7-.7h3.9c.7,0,1.3-.3,1.3-1.2s-.6-.8-1.3-.8h-3.1c-.1-.6-.6-1.1-1.3-1.2-1.1,0-2,.6-2.3,1.6-.4.6-.3,1.4.2,1.9.8.7,1.7.3,2.4-.2,0,0,0-.1.1-.2h0Zm.9,4h2.9c.5-.3,1-.7,1.2-1.2h0c-.2-.8-.6-.9-1.2-.8h-5.7c-.5-.1-.9.2-1.1.6v.2c.1.5.5.9,1,1.2h3-.1Z"/><path class="cls-30" d="m189,219.2c1.4-.4,2.8.2,3.7,1.3,1.2,1.7.8,3.9-.8,5.2-.9.7-2.2.8-3.3.5-1.5-.6-2.5-2-2.5-3.7v-.8c.5.6,1.2.8,1.9.7,0,1.8,1.1,2.6,2.4,2.1.9-.4,1.4-1.4,1-2.3-.3-.9-1.2-1.5-2.2-1.2.2-.6,0-1.2-.2-1.7h0Z"/><path class="cls-25" d="m189.6,219.1c.4.5.5,1.2.3,1.8-.3.7-.9,1.1-1.4,1.6-.7.2-1.5,0-2-.7,0-2.1.7-2.8,3.2-2.7h0Z"/><path class="cls-30" d="m189.5,199.4c2-.5,4,.7,4.5,2.6v.5c.2,1.5-.4,3-1.6,3.8-1.4,1-3.2,1-4.6,0-1.2-.9-1.8-2.4-1.3-3.9.5.4,1.2.5,1.9.2,0,1.7,1.2,2.8,2.5,2.3.9-.2,1.5-1.1,1.3-2,0-1.2-1-1.7-2.4-1.7.3-.6.2-1.4-.2-1.9h-.1Z"/><path class="cls-25" d="m188.4,203.1c-.6.3-1.3.2-1.9-.2-.4-1.2.2-2.6,1.4-3,.5-.2,1.1-.2,1.6,0,.4.5.5,1.2.2,1.8-.4.6-.8,1-1.4,1.4h.1Z"/><path class="cls-30" d="m209,199.2c1,0,2,0,2.9.5,1.6.8,2.4,2.6,2,4.3-.4,1.5-1.6,2.6-3.1,2.9-1.6.3-3.3-.5-4.1-1.9-.4-.8-1-1.7-.4-2.7.5.3,1.2.5,1.8.4,0,1,.3,1.9,1.4,2.1.9.3,2,0,2.3-1,.6-1.4-.3-2.5-2.2-2.7.2-.7,0-1.5-.6-2h0Z"/><path class="cls-25" d="m208.9,199.2c.6.5.9,1.3.7,2-.4.6-1,1.2-1.6,1.6-.6,0-1.2,0-1.8-.4-.6-1.9.7-3.2,2.7-3.2Z"/><path class="cls-22" d="m209.9,226.1h-2.9c-.5-.4-.9-.7-1-1.2h0c0-.6.3-1,.8-.8h5.9c.6-.3,1-.2,1,.5s-.9,1.5-.9,1.5h-3,.1Z"/><path class="cls-8" d="m208.9,221.8s0,0-.2,0c-.7.5-1.5.9-2.3.2-.5-.4-.6-1.2-.2-1.8.4-.9,1.3-1.5,2.2-1.5s1.1.5,1.2,1.1c0,.7-.2,1.3-.6,1.8h-.1Z"/><path class="cls-22" d="m209,222c.4-.5.7-1.3.7-1.9h3.2c.6,0,1.3,0,1.3.8s-.4,1.2-1.3,1.2h-3.9Z"/><path class="cls-21" d="m188.4,222.4c.5-.5,1.2-.8,1.4-1.6,1-.2,2,.3,2.3,1.3.4,1,0,2.1-1.1,2.5-1.4.5-2.5-.4-2.6-2.2Z"/><path class="cls-21" d="m188.4,202.7c.6-.4,1-.8,1.4-1.4,1.4,0,2.3.6,2.4,1.7,0,.9-.4,1.8-1.3,2-1.3.5-2.5-.6-2.5-2.3Z"/><path class="cls-21" d="m208,203.1c.6-.5,1.2-1,1.6-1.6,1.9,0,2.8,1.2,2.2,2.7-.4.9-1.4,1.3-2.3,1-1.1-.2-1.4-1.1-1.4-2.1h0Z"/></svg>