<?xml version="1.0" encoding="UTF-8"?><svg id="Layer_1" xmlns="http://www.w3.org/2000/svg" viewBox="0 0 400 400"><defs><style>.cls-1{stroke:#a5262d;}.cls-1,.cls-2,.cls-3{stroke-width:4px;}.cls-1,.cls-2,.cls-3,.cls-4{stroke-miterlimit:10;}.cls-1,.cls-2,.cls-3,.cls-4,.cls-5{fill:none;}.cls-2{stroke:#0018c6;}.cls-6{fill:#727272;}.cls-7{fill:#0c4a4e;}.cls-8{fill:#d1fdbf;}.cls-9{fill:#999afe;}.cls-3{stroke:#c000e2;}.cls-10{fill:#d9cfca;}.cls-11{fill:#00f6d5;}.cls-12{fill:#626363;}.cls-13{fill:#e5dedc;}.cls-14{fill:#453e43;}.cls-15{fill:#01264f;}.cls-16{fill:#97f8fe;}.cls-17{fill:#034868;}.cls-18{fill:#f1efef;}.cls-19{fill:#bacce9;}.cls-20{fill:#02f6d5;}.cls-21{fill:#c7c7c7;}.cls-22{fill:#fe7038;}.cls-23{fill:#bdbdbd;}.cls-24{fill:#93dbfe;}.cls-25{fill:#ecf5fe;}.cls-26{fill:#152433;}.cls-4{stroke:#231f20;stroke-width:2px;}.cls-27{fill:#685e66;}.cls-28{fill:#fe415d;}.cls-29{fill:#6f7070;}.cls-30{fill:#0aaffe;}.cls-31{fill:#e6dedc;}.cls-32{fill:#b7b7fe;}.cls-33{fill:#b9cce9;}.cls-34{fill:#979bfd;}.cls-35{fill:#aaa;}.cls-36{fill:#484645;}.cls-37{fill:#636363;}.cls-38{fill:#b3b3b3;}.cls-39{fill:#d0c8c3;}.cls-40{fill:#b8b8fd;}.cls-41{fill:#d7e1f2;}.cls-42{fill:#7dd4f3;}.cls-43{fill:#231f20;}.cls-44{fill:#00dbe6;}.cls-45{fill:#2dbafe;}</style></defs><line class="cls-5" x1="154.7" y1="116.5" x2="188.3" y2="143.7"/><line class="cls-4" x1="154.7" y1="116.5" x2="180" y2="137"/><polygon class="cls-43" points="173.5 141.4 188.3 143.7 183 129.8 173.5 141.4"/><line class="cls-5" x1="245.3" y1="116.5" x2="211.7" y2="143.7"/><line class="cls-4" x1="245.3" y1="116.5" x2="220.1" y2="137"/><polygon class="cls-43" points="217.1 129.8 211.7 143.7 226.5 141.4 217.1 129.8"/><circle class="cls-1" cx="117.5" cy="62.8" r="45"/><rect class="cls-38" x="91.5" y="52.8" width="52" height="37" rx="2.9" ry="2.9"/><path class="cls-36" d="m118.3,83.1l-1.1-3.4h-8l-1,3.4h-6.5l7.5-23.6h7.6l7.8,23.6h-6.3Zm-7.6-8.6h4.8l-2.4-8-2.4,8Z"/><path class="cls-36" d="m126,83.1v-24.7h5.6v24.7h-5.6Z"/><path d="m93.6,41.5l-2.4,3.1,1,1.4-1.6,2.1-6.1-9.3,1.9-2.4,10.5,3.7-1.6,2.1-1.6-.6h-.1Zm-2.2-.8l-3.8-1.4,2.3,3.3,1.5-1.9Z"/><path d="m90.3,31.7l1.7-1.4,7,8.4-1.7,1.4-7-8.4Z"/><path d="m102.5,27.9l3.6,6.6-2,1.1-.3-.6c-.1.8-.6,1.5-1.4,1.8-1.3.7-3,.3-3.8-1.1,0-.1-.1-.2-.1-.3l-2.2-4,2-1.1,2,3.8c.3.6,1.1.9,1.7.6,0,0,0,0,0,0,.7-.3.9-1.1.6-1.8,0,0,0-.1-.1-.2l-2-3.6,2-1.1h-.1Z"/><path d="m117.1,27.4l.8,4.5-2.2.4-.8-4.3c0-.6-.5-1.1-1.1-1,0,0-.1,0-.2,0-.7,0-1.1.7-.9,1.6l.7,4.2-2.2.4-.8-4.3c0-.6-.5-1.1-1.1-1,0,0-.1,0-.2,0-.7,0-1.1.7-.9,1.6l.7,4.2-2.2.4-1.3-7.4,2.2-.4v.7c.4-.7,1.1-1.1,1.9-1.2.8-.2,1.6,0,2.1.6.4-.8,1.1-1.3,2-1.4,1.7-.3,3,.7,3.3,2.6l.2-.2Z"/><path d="m119.4,25l2.2.2-.6,7.5-2.2-.2.6-7.5Zm0-2c0-.7.8-1.3,1.5-1.2.7,0,1.3.8,1.2,1.5s-.8,1.3-1.5,1.2c0,0,0,0,0,0-.7,0-1.3-.7-1.2-1.4,0,0,0,0,0-.1Z"/><path d="m130.4,30.1l-1.2,4.4-2.2-.6,1.1-4.1c.2-.7-.1-1.4-.8-1.7,0,0,0,0-.1,0-.7-.3-1.5,0-1.7.8,0,.1,0,.2,0,.3l-1.1,3.9-2.2-.6,2-7.2,2.2.6-.2.7c.7-.5,1.5-.6,2.3-.3,1.5.4,2.4,1.9,2,3.4,0,.1,0,.2,0,.3h0Z"/><path d="m140,32.1l-3.8,6.4-1.9-1.2.4-.6c-.8.3-1.6.2-2.3-.3-1.3-.8-1.8-2.5-1-3.8,0-.1.1-.2.2-.3l2.4-4,1.9,1.2-2.2,3.7c-.4.5-.3,1.2.2,1.6,0,0,.2.1.2.2.6.4,1.5.2,1.9-.4,0,0,0-.1.1-.2l2.1-3.5,1.9,1.2h0Z"/><path d="m147.8,44.4l-3.5,3-1.5-1.7,3.4-2.9c.6-.5.7-1.1.2-1.6-.4-.5-1.2-.6-1.7-.1,0,0,0,0-.1.1l-3.2,2.7-1.5-1.7,3.4-2.9c.6-.5.7-1.1.2-1.6-.4-.5-1.2-.6-1.7-.1,0,0,0,0-.1.1l-3.2,2.7-1.5-1.7,5.7-4.9,1.5,1.7-.5.4c.8,0,1.5.3,2,.9.5.6.7,1.4.5,2.1.8,0,1.7.3,2.2,1,1,1.2.9,3-.3,4,0,0-.1.1-.2.2v.3Z"/><circle class="cls-1" cx="282.5" cy="65.8" r="45" transform="translate(172.3 334.1) rotate(-80.8)"/><path d="m262.9,36.6c1.6,2,1.2,4.9-.8,6.5l-1.6,1.2,2.6,3.3-2.4,1.9-8.3-10.4,3.9-3.1c2-1.6,4.9-1.3,6.5.7,0,0,0,0,0,0h.1Zm-2.4,1.9c-.5-.7-1.4-.9-2.1-.4,0,0-.1,0-.2.1l-1.6,1.2,2.1,2.7,1.6-1.2c.7-.6.8-1.6.2-2.3,0,0,0,0,0,0h0Z"/><path d="m263.3,30.9l2.6-1.2,5.8,12.6-2.6,1.2-5.8-12.6Z"/><path d="m280.7,30.4l1.7,9.4-2.8.5-.2-.9c-.6.9-1.5,1.5-2.6,1.6-2.6.4-5-1.5-5.4-4.1,0,0,0,0,0,0-.6-2.5.9-5,3.4-5.7,0,0,.1,0,.2,0,1-.2,2.1,0,3,.6l-.2-.9,2.8-.5h0Zm-2,5.2c-.1-1.2-1.2-2.1-2.4-1.9,0,0-.1,0-.2,0-1.2.1-2,1.2-1.9,2.4,0,.1,0,.2,0,.3.1,1.2,1.2,2.1,2.4,1.9,0,0,.1,0,.2,0,1.2-.1,2-1.2,1.9-2.4,0-.1,0-.2,0-.3Z"/><path d="m291.2,38.1c-.3,2.2-2.3,2.9-4.3,2.6-1.7,0-3.2-1.2-3.8-2.8l2.6-1.1c.1.7.8,1.3,1.5,1.3.7,0,1,0,1.1-.5.1-1-4.6-1.1-4.2-4.3.3-2.1,2.1-2.9,4.1-2.6,1.5.1,2.8,1.1,3.4,2.5l-2.6,1c-.2-.5-.6-.9-1.2-1-.5,0-.8,0-.9.4-.1,1.1,4.6,1,4.1,4.4h.2Z"/><path d="m296.9,36.1l-1.2,3.1c-.3.8.3,1.1,1.5,1.5l-.9,2.4c-3.6-1-4.2-2.4-3.3-4.9l1.2-3.2-1.4-.5,1-2.6,1.4.5.6-1.7,3,.2-.9,2.5,1.8.7-1,2.6-1.8-.7h0Z"/><path d="m302.2,35.5l2.4,1.5-4.9,8.2-2.4-1.5,4.9-8.2Zm1.1-2.3c.5-.8,1.5-1.1,2.3-.6s1.1,1.5.6,2.3c-.5.8-1.5,1.1-2.3.6-.8-.5-1.1-1.5-.6-2.3,0,0,0,0,0,0h0Z"/><path d="m303.9,42c1.8-2,4.9-2.2,6.9-.4,0,0,.2.1.2.2,1.3,1.2,1.8,3,1.4,4.7l-2.8-.7c.2-.7,0-1.5-.6-2-.9-.8-2.3-.7-3.1.2-.8.9-.7,2.2,0,3,.5.6,1.4.8,2.1.5l.8,2.7c-1.7.5-3.5,0-4.8-1.2-2-1.9-2.1-5.1-.2-7.1,0,0,0,0,0,0h.1Z"/><path class="cls-41" d="m305.8,62h0c0,0-1.6,0-1.6,0q-.7,0-.7.7v30.3c0,.4-.1.9-.4,1.2-.2.2-.5.2-.7.4h-10.7c0,0,0-.2,0-.3l-1.3-5.3c-.7-3.1-1.4-6.2-2.1-9.3-1.1-4.5-2.1-9.1-3.2-13.6-.9-4-1.8-8-2.8-11.9h15c.2,0,.5,0,.6.2v6.2c0,.7.6,1.3,1.3,1.4h3.8c.3,0,.4,0,.4-.4v-1.8c.1,0,.2.1.2.2l2,2Z"/><path class="cls-33" d="m305.8,93.7c-.4.8-1.3,1.3-2.1,1.1h-1.2c.2-.2.5-.2.7-.4.3-.3.4-.8.4-1.2v-30.4q0-.7.7-.7h1.6v31.6Z"/><path class="cls-23" d="m262.2,54.2v-.9c-.2-.9.3-1.7,1.1-2.1h2c0,0,0,.2.1.2.6.4.9,1.1.8,1.8,0,.4,0,.7,0,1.1h-4Z"/><path class="cls-35" d="m266.2,54.3v-1.1c.1-.7-.2-1.4-.8-1.8,0,0-.1-.1-.1-.2h2c.9.4,1.4,1.4,1.2,2.3v.8h-2.3Z"/><path class="cls-25" d="m291.8,94.8h-6.2c0,0,0-.1,0-.2l-1.8-8-3.2-13.7c-1.1-4.6-2.1-9.2-3.2-13.9-.4-1.6-.7-3.2-1.1-4.8h6.2c.9,4,1.8,8,2.7,11.9,1.1,4.6,2.1,9.1,3.2,13.6.7,3.1,1.4,6.2,2.1,9.3.4,1.8.8,3.6,1.2,5.4,0,.1,0,.2,0,.3Z"/><path class="cls-25" d="m298.1,54.4c.1,0,.3,0,.3.2l5,5v.2c.1.6.1,1.2.1,1.8s-.1.4-.4.4h-3.8c-.7,0-1.3-.7-1.3-1.4v-6.2Z"/><path class="cls-41" d="m276.2,54.3c.4,1.6.7,3.2,1.1,4.8,1.1,4.6,2.1,9.3,3.2,13.9,1.1,4.6,2.1,9.2,3.2,13.7l1.8,8c0,0,0,.1,0,.2h-14.1v-3c0-.5-.3-.8-.7-.8s-.8.3-.8.8v3h-9.2c-1,0-1.7-.7-1.8-1.7,0,0,0,0,0,0v-37.1c0-.9.8-1.7,1.7-1.7,0,0,0,0,0,0,.5,0,.9,0,1.4,0h7.9v3c0,.5.3.8.7.8s.8-.3.8-.8v-3h4.7Zm-4.8,20.3v-1.6c0-.4-.3-.7-.7-.7s-.7.3-.7.7v3c0,.4.2.7.6.8,0,0,0,0,.1,0,.4,0,.7-.3.7-.7,0,0,0,0,0,0v-1.4Zm-1.5,6.1v1.6c0,.4.3.7.7.7s.7-.3.7-.7v-3.1c0-.4-.4-.7-.8-.8-.4,0-.7.3-.7.7,0,0,0,0,0,0v1.5h0Zm0-12.4v1.5c0,.4.3.8.7.8.4,0,.7-.4.8-.8v-2.9c0-.5-.3-.8-.7-.8s-.7.3-.7.8,0,1,0,1.5h0Zm0-6.3v1.5c0,.4.2.7.6.8,0,0,0,0,.1,0,.4,0,.7-.3.7-.7,0,0,0,0,0-.1v-2.9c0-.4-.2-.7-.6-.8,0,0,0,0-.1,0-.5,0-.7.3-.7.8v1.4h0Zm1.5,25v-1.5c0-.5-.3-.8-.7-.8-.4,0-.7.3-.7.7,0,0,0,0,0,.1v2.9c0,.4.2.7.6.8,0,0,0,0,.1,0,.5,0,.7-.3.7-.8s0-.9,0-1.4h0Z"/><path class="cls-33" d="m271.5,54.3v3c0,.5-.3.8-.8.8s-.7-.3-.7-.8v-3h1.5Z"/><path class="cls-23" d="m262.3,94.8h3.9v1.2c.1.8-.4,1.6-1.2,1.9h-1.2c-.8,0-1.6-.6-1.6-1.5,0,0,0,0,0-.1v-1.4h0Z"/><path class="cls-35" d="m265,97.9c.8-.3,1.3-1.1,1.2-1.9v-1.2h2.3c0,.6,0,1.2,0,1.8-.1.8-.8,1.3-1.6,1.3h-1.8Z"/><path class="cls-33" d="m270,94.8v-3c0-.5.3-.8.8-.8s.7.3.7.8v3h-1.5Z"/><path class="cls-21" d="m262.3,54.3h-.1s0,0,0,0h.1Z"/><path class="cls-21" d="m262.3,94.8h0c0,0,0,0,0,0h0Z"/><path class="cls-19" d="m271.5,74.6v1.4c0,.4-.3.7-.7.7s-.7-.3-.7-.7v-3c0-.4.2-.7.6-.8,0,0,0,0,0,0,.4,0,.7.3.8.7,0,0,0,0,0,.1v1.6Z"/><path class="cls-33" d="m270,80.7v-1.5c0-.4.3-.7.6-.7,0,0,0,0,0,0,.4,0,.7.3.8.8v3.1c0,.4-.2.8-.6.8-.4,0-.8-.2-.8-.6,0,0,0-.1,0-.2,0-.5,0-1,0-1.6Z"/><path class="cls-33" d="m270,68.3v-1.5c0-.5.3-.8.7-.8s.7.3.7.8v2.9c0,.4-.3.8-.7.8-.4,0-.7-.4-.7-.8,0,0,0,0,0,0,0-.5,0-1,0-1.5Z"/><path class="cls-33" d="m270,62v-1.4c0-.5.3-.8.7-.8.4,0,.7.3.7.6,0,0,0,0,0,.1v2.9c0,.4-.2.7-.6.8,0,0,0,0-.1,0-.4,0-.7-.3-.7-.8s0-1,0-1.5Z"/><path class="cls-33" d="m271.5,87v1.4c0,.5-.3.8-.7.8-.4,0-.7-.3-.7-.7,0,0,0,0,0-.1v-2.9c0-.4.2-.7.6-.8,0,0,0,0,.1,0,.5,0,.7.3.7.8v1.5Z"/><circle class="cls-2" cx="200" cy="197.9" r="45"/><path class="cls-14" d="m209.8,178.7h1.9c.8,0,1.4.6,1.5,1.4v42.5c.1.9-.4,1.7-1.2,2.1h-24.3c-.9-.3-1.4-1.2-1.2-2.1v-1.3h11.7c.3,0,.5,0,.4-.4v-.8c.3-.6,1-.9,1.6-.7.6.2,1,.9.8,1.5,0,0,0,0,0,0,0,.3,0,.4.3.4h6.6c.9,0,1.7-.8,1.7-1.7,0,0,0,0,0,0v-3c.3-.2.5-.5.5-.9v-31.1c0-.4-.2-.7-.5-.9v-4.9h.2Z"/><path class="cls-27" d="m209.8,178.7v4.9h-19.2c-.9,0-1.1.2-1.1,1.1v30.8c0,.9.2,1.1,1.1,1.1h19.4v3c0,.9-.7,1.7-1.6,1.8,0,0,0,0,0,0h-6.6c-.3,0-.4-.1-.3-.4.2-.6-.2-1.3-.8-1.5,0,0,0,0,0,0-.6-.2-1.3,0-1.6.7-.1.3-.1.5,0,.8.1.4,0,.4-.4.4h-11.7v-40.6c0-1,.7-1.9,1.7-2,.1,0,.2,0,.3,0h21.2-.3Z"/><path d="m164.6,188.7c2.3.5,3.8,2.9,3.3,5.2l-.4,1.8,3.9.8-.6,2.8-12.3-2.7,1-4.7c.5-2.4,2.8-3.9,5.1-3.4,0,0,0,0,0,0v.2Zm-.6,2.8c-.8-.2-1.7.3-1.9,1.1,0,0,0,0,0,0l-.4,1.8,3.2.7.4-1.8c.2-.8-.4-1.6-1.2-1.8,0,0,0,0-.1,0h0Z"/><path d="m172.6,179.8l4.8,2.8-1.4,2.3-4.4-2.6c-.6-.5-1.6-.4-2.1.3,0,0,0,.1-.1.2-.5.7-.3,1.7.4,2.2,0,0,.2.1.3.2l4.2,2.5-1.4,2.3-10.9-6.4,1.4-2.3,3.8,2.3c-.3-.9-.2-2,.4-2.8.9-1.6,2.8-2.2,4.9-1h0Z"/><path d="m174.7,178.7c-1.7-1.9-1.6-4.8.3-6.6,0,0,0,0,.1-.1,2-1.7,5-1.6,6.7.4,1.7,2,1.4,5-.7,6.7-1.9,1.6-4.7,1.4-6.4-.4h0Zm5.1-4.5c-.8-.8-2.1-.9-3,0s-.9,2.1,0,3c.8.8,2.1.9,2.9,0,.9-.7,1-2,.3-2.8,0,0-.1-.1-.2-.2Z"/><path d="m191.2,167l2.2,5.1-2.5,1.1-2-4.7c-.3-.8-1.2-1.2-2-1,0,0,0,0-.1,0-.8.3-1.3,1.3-.9,2.1,0,0,0,.2.1.3l1.9,4.5-2.5,1.1-3.6-8.3,2.5-1.1.3.8c.3-.9,1-1.7,1.9-2,1.7-.7,3.6-.1,4.6,2.1h.1Z"/><path d="m198.7,169.3c.6,0,1.3-.3,1.7-.8l2.3,1c-.8,1.3-2.2,2.1-3.7,2.2-2.5.4-4.9-1.2-5.3-3.7,0-.2,0-.4,0-.6-.3-2.6,1.5-4.9,4.1-5.2,0,0,.1,0,.2,0,2.5-.2,4.8,1.7,5,4.2,0,0,0,0,0,.1v1.1l-6.4.6c.4.9,1.3,1.1,2.3,1.1h-.1Zm1.4-3.4c-.3-.8-1.1-1.3-2-1.2-.9,0-1.7.7-1.8,1.6l3.9-.4h0Z"/><path d="m213.7,164.4l1.6.5-.7,2.5-1.6-.5-1.8,6.1-2.6-.8,1.8-6.1-1.2-.3.7-2.5,1.2.3c.7-2.4,2.5-3.5,5.3-2.5l-.7,2.5c-.9-.4-1.7-.3-2,.7h0Z"/><path d="m222.2,168l-1.4,2.7c-.8-.8-2.1-.8-2.9,0-.2.2-.3.3-.4.5l-1.9,3.6-2.4-1.2,4.1-8,2.4,1.2-.7,1.4c.9-.8,2.2-1,3.2-.3Z"/><path d="m231.2,175.7l-6,6.7-2-1.8.6-.6c-1,0-2-.3-2.7-1-1.8-1.9-1.7-4.9.3-6.7,1.7-1.6,4.3-1.7,6.1-.3.8.6,1.3,1.6,1.2,2.6l.6-.6,2,1.8h-.1Zm-5,1.5c.8-.9.7-2.3-.2-3-.9-.8-2.3-.7-3,.2-.8.9-.7,2.2.2,3,.9.8,2.2.8,3,0,0,0,0,0,.1-.1Z"/><path d="m236.7,192.7l-5,2.3-1.1-2.4,4.8-2.2c.8-.4,1.2-1,.8-1.8-.4-.7-1.2-1-2-.7,0,0,0,0-.1,0l-4.6,2.1-1.1-2.4,4.8-2.2c.8-.4,1.2-1,.8-1.8-.4-.7-1.2-1-2-.7,0,0,0,0-.1,0l-4.6,2.1-1.1-2.4,8.2-3.8,1.1,2.4-.8.3c.9.2,1.7.8,2,1.7.5.8.5,1.8,0,2.6,1,.2,1.8.9,2.2,1.9.9,1.9.1,3.7-1.9,4.7h-.3Z"/><path d="m233.8,200.5c0,.7.3,1.3.8,1.7l-1.1,2.2c-1.3-.8-2.1-2.3-2-3.8-.1-3.1,1.8-5.1,4.5-5.2,2.6-.2,4.8,1.8,5,4.3,0,0,0,.2,0,.3.1,2.5-1.8,4.7-4.3,4.8,0,0-.1,0-.2,0h-1.1l-.3-6.4c-.8.4-1.3,1.3-1.2,2.2h0Zm3.4,1.5c.9-.2,1.4-1.1,1.3-2,0-.9-.6-1.7-1.5-1.9l.2,3.9Z"/><line class="cls-5" x1="199.7" y1="251.2" x2="200.2" y2="283.9"/><line class="cls-4" x1="199.7" y1="251.2" x2="200.1" y2="273.2"/><polygon class="cls-43" points="192.6 271.1 200.2 283.9 207.5 270.9 192.6 271.1"/><line class="cls-5" x1="112.2" y1="286.2" x2="160.8" y2="246.9"/><line class="cls-4" x1="120.6" y1="279.4" x2="160.8" y2="246.9"/><polygon class="cls-43" points="117.6 272.2 112.2 286.2 127 283.9 117.6 272.2"/><line class="cls-5" x1="287.8" y1="286.2" x2="239.2" y2="246.9"/><line class="cls-4" x1="279.4" y1="279.4" x2="239.2" y2="246.9"/><polygon class="cls-43" points="273 283.9 287.8 286.2 282.4 272.2 273 283.9"/><circle class="cls-3" cx="200" cy="337.2" r="45"/><path d="m165.6,323.3c1.9.6,3,2.6,2.4,4.6l-.5,1.5,3.2,1-.7,2.3-10-3.1,1.2-3.8c.6-2,2.6-3,4.5-2.5h0Zm-.7,2.3c-.7-.2-1.4,0-1.7.8l-.5,1.5,2.6.8.5-1.5c.2-.7-.2-1.4-.9-1.6Z"/><path d="m172.4,316.3l3.9,2.5-1.2,1.9-3.6-2.3c-.8-.5-1.5-.2-1.9.4-.4.7-.3,1.4.6,2l3.5,2.2-1.2,1.9-8.9-5.6,1.2-1.9,3.1,2c-.2-.6-.2-1.5.4-2.3.8-1.3,2.4-1.8,4.1-.7h0Z"/><path d="m174.1,315.6c-1.5-1.7-1.3-4.1.3-5.6,1.6-1.5,4.1-1.4,5.6.3s1.3,4.1-.3,5.6c-1.6,1.5-4.1,1.4-5.6-.3Zm4.2-3.8c-.7-.8-1.7-.8-2.5-.2-.7.7-.8,1.7,0,2.5.7.8,1.7.8,2.5.2.7-.7.8-1.7,0-2.5Z"/><path d="m187.4,305.4l2.1,4.1-2,1-1.9-3.8c-.4-.8-1.1-1-1.8-.6s-1,1.1-.5,2l1.9,3.7-2,1-3.4-6.7,2-1,.3.6c0-.7.6-1.3,1.5-1.8,1.4-.7,3-.3,3.9,1.5h-.1Z"/><path d="m193.7,306.6c.6-.1,1.1-.5,1.3-.9l2,.6c-.5,1.1-1.5,1.9-2.9,2.2-2.5.5-4.4-.8-4.9-3s.8-4.2,3.1-4.7c2.1-.4,4.1.9,4.5,3.1v.9l-5.2,1.1c.4.7,1.2.8,2,.7h.1Zm.8-3c-.4-.8-1.1-1-1.8-.8-.8.2-1.3.7-1.4,1.5l3.2-.7Z"/><path d="m198.6,302.2l5.7.2v2.2l-5.8-.2v-2.2h0Z"/><path d="m213.9,306.8c-.7,2.1-2.7,3.3-4.6,2.7-1-.3-1.6-.8-1.9-1.5l-.2.7-2.2-.7,3.1-10,2.2.7-1.1,3.5c.6-.4,1.4-.5,2.4-.2,1.9.6,2.9,2.7,2.3,4.8Zm-2.2-.7c.3-1.1-.2-2-1.2-2.3s-1.9.2-2.2,1.2.2,2,1.2,2.3,1.9-.2,2.2-1.2Z"/><path d="m215.1,307.3c1.2-1.9,3.6-2.4,5.5-1.2,1.9,1.2,2.4,3.6,1.2,5.5-1.2,1.9-3.6,2.4-5.5,1.2-1.9-1.2-2.4-3.6-1.2-5.5Zm4.8,3.1c.6-.9.3-1.9-.5-2.4s-1.8-.3-2.4.6-.3,1.9.5,2.4,1.8.3,2.4-.6Z"/><path d="m233.1,314l-7.9,6.9-1.5-1.7.5-.5c-.8,0-1.5-.3-2.2-1.1-1.3-1.5-1.1-3.8.6-5.3,1.7-1.5,4-1.4,5.3,0,.7.8.9,1.5.8,2.3l2.8-2.4,1.5,1.7h0Zm-6.6,2.8c.8-.7.9-1.8.2-2.5-.7-.8-1.7-.9-2.6-.1s-.9,1.8-.2,2.5c.7.8,1.7.9,2.6.1Z"/><path d="m235.6,324.9l-7.7.9c-2.5.3-4-.5-4.8-2.4l1.9-.9c.5.9,1,1.2,1.9,1.1l5.1-5.9,1.1,2.2-3.4,3.5,4.7-.8,1.1,2.2h.1Z"/><path d="m233.6,334.3c-2.3.5-3.8-1-4.3-2.9-.4-1.5,0-3.1,1.4-4.1l1.6,1.8c-.6.4-.9.9-.7,1.8.2,1,.8,1.3,1.5,1.1.6,0,1-.7.8-1.6v-.5c0,0,1-1.2,1-1.2l2.8,1.3-.9-3.7,2.2-.5,1.5,6.6-1.9.4-2.7-1.3c-.2,1.4-1,2.5-2.4,2.8h0Z"/><path class="cls-7" d="m189.5,370.1c0-.2-.3,0-.4-.2-2.9-.7-4.8-3.1-4.8-6.1v-37.4c0-2.7,1.3-4.7,3.7-5.9s1.4-.5,2.1-.5h9.8v9.2h-3.7c-2.2-.2-4-2.1-4.1-4.3,0-1.1-.5-1.7-1.3-1.9-.5,0-.9,0-1.3,0-1.4.5-2.3,1.7-2.3,3.4v37.8c.2,1.7,1.7,2.9,3.3,2.8h9.3v2.9h-10.5.2Z"/><path class="cls-26" d="m200,329.3v-9.2h10c2.7,0,5.3,2.6,5.6,5.2v38.5c0,3-1.9,5.5-4.8,6.2-.2,0-.4,0-.5,0h-10.4v-2.9h10.1c1.6-.4,2.6-1.7,2.6-3.4v-37.6c0-1.6-1.1-3-2.7-3.2-1.2-.2-2.2.5-2.3,1.7,0,2.6-2.1,4.5-4.7,4.6h-3.1.2Z"/><path class="cls-18" d="m190.7,367.2c-1.7,0-3.1-1.1-3.3-2.8v-37.8c0-1.7.8-2.9,2.3-3.4.4-.2.9-.2,1.3,0,.9.2,1.3.8,1.3,1.9,0,2.2,1.9,4.1,4.1,4.3h3.7v3.3h-7.8c-.9,0-1.5.6-1.5,1.5v14.1c0,.9.6,1.5,1.5,1.5h7.8v3.3c-.2,0-.5,0-.8,0h-7.1c-.2,0-.5,0-.7,0-.6.4-.9,1.1-.7,1.7s.8,1,1.5,1h7.8v3.3h-7.6c-1.1,0-1.7.5-1.7,1.7v6.4Z"/><path class="cls-22" d="m190.7,367.2v-6.2c0-1.1.5-1.7,1.7-1.7h7.6v7.8h-9.3Z"/><path class="cls-13" d="m200,332.6v-3.3h3.1c2.6,0,4.6-1.9,4.7-4.6,0-1.2,1-1.9,2.3-1.7,1.6.3,2.7,1.7,2.7,3.2v37.5c0,1.7-1,3-2.6,3.4h-.7v-5.6c0-1.8-.4-2.3-2.3-2.3h-7.1v-3.3h1.6c.7,0,1.4-.6,1.4-1.3s-.5-1.4-1.2-1.5c-.6,0-1.2,0-1.8,0h0v-3.3h7.6c1,0,1.7-.7,1.7-1.7v-13.6c0-4.5-.5-1.8-1.8-1.8h-7.6Zm7.8,23.3c.8,0,1.5-.6,1.5-1.4s-.6-1.5-1.4-1.5h0c-.7,0-1.6.8-1.5,1.5,0,.6.4,1.4,1.4,1.4h0Z"/><path class="cls-28" d="m200,359.3h7.1c1.9,0,2.3.4,2.3,2.3v5.6h-9.4v-7.8h0Z"/><path class="cls-42" d="m200,332.6h7.5c1.2,0,1.8.6,1.8,1.8v13.6c0,1-.7,1.7-1.7,1.7h-7.6v-17h0Z"/><path class="cls-16" d="m200,332.7v17h-7.8c-.9,0-1.5-.6-1.5-1.5v-14.1c0-.9.6-1.5,1.5-1.5h7.8Z"/><path class="cls-31" d="m200,356h-7.8c-.7,0-1.3-.4-1.5-1s0-1.3.7-1.7c.2,0,.4,0,.7,0h7.9v2.9h0Z"/><path class="cls-10" d="m200,355.9v-2.9h1.8c.7.2,1.2.8,1.2,1.5s-.7,1.3-1.4,1.3h-1.6Z"/><path class="cls-39" d="m207.8,355.9c-1,0-1.4-.8-1.4-1.4s.8-1.5,1.5-1.5,1.5.7,1.4,1.5h0c0,.8-.6,1.4-1.5,1.4Z"/><path d="m203.4,345.4c1.7.5,3,1.4,4,2.7s1.5,2.8,1.5,4.6c0,2.8-.9,4.9-2.7,6.4s-4.1,2.3-6.8,2.3-4.1-.5-5.7-1.5-2.9-2.4-3.6-4.4l5.8-3.3c.5,1.8,1.7,2.7,3.6,2.7s1.7-.2,2.2-.7c.5-.4.8-1,.8-1.8s-.3-1.3-.8-1.8c-.5-.4-1.2-.6-2.2-.6h-1.4l-2.6-3.8,4.1-5.1h-8.7v-6.3h16.8v5.2l-4.3,5.3h0Z"/><circle class="cls-3" cx="84.3" cy="337.2" r="45"/><path d="m50.9,321.6c1.9.7,2.8,2.8,2.1,4.7l-.6,1.5,3.1,1.2-.8,2.2-9.8-3.7,1.4-3.7c.7-1.9,2.8-2.9,4.7-2.2h-.1Zm-.8,2.2c-.7-.3-1.5,0-1.7.7l-.5,1.5,2.5.9.6-1.5c.3-.7-.1-1.4-.8-1.7h-.1Z"/><path d="m58.1,315.1l3.7,2.7-1.3,1.8-3.5-2.5c-.8-.5-1.4-.3-1.9.3-.5.7-.4,1.4.4,2l3.3,2.4-1.3,1.8-8.5-6.2,1.3-1.8,3,2.2c-.2-.7,0-1.5.5-2.3.9-1.2,2.5-1.6,4.2-.5h0Z"/><path d="m59.9,314.4c-1.4-1.7-1.1-4.2.6-5.6s4.2-1.1,5.6.6,1.1,4.2-.6,5.6-4.2,1.1-5.6-.6Zm4.4-3.6c-.7-.8-1.7-.9-2.5-.3s-.9,1.6-.2,2.5c.7.8,1.7.9,2.5.3s.9-1.6.2-2.5Z"/><path d="m73.7,305l1.8,4.2-2.1.9-1.7-3.9c-.4-.9-1.1-1-1.7-.7-.8.3-1.1,1-.7,2l1.6,3.8-2.1.9-3-6.9,2.1-.9.3.6c0-.7.7-1.3,1.6-1.7,1.4-.6,3-.1,3.8,1.7h.1Z"/><path d="m79.9,306.7c.6,0,1.1-.4,1.3-.8l1.9.8c-.6,1.1-1.6,1.8-3,2-2.5.4-4.4-1.1-4.7-3.3s1-4.2,3.4-4.5c2.2-.3,4,1.1,4.3,3.4v.9l-5.3.8c.4.7,1.1.9,1.9.8h.2Zm1-2.9c-.4-.8-1.1-1-1.7-.9-.8.1-1.3.6-1.4,1.4l3.2-.5h0Z"/><path d="m85.1,302.5l5.7.6-.2,2.2-5.7-.6.2-2.1h0Z"/><path d="m100.2,308c-.8,2.1-2.9,3.2-4.7,2.5-.9-.3-1.5-.9-1.8-1.6l-.2.7-2.1-.8,3.6-9.8,2.1.8-1.3,3.5c.7-.4,1.5-.4,2.4,0,1.8.7,2.8,2.9,2,5v-.3Zm-2.1-.8c.4-1.1,0-2-1-2.3-1-.4-1.9,0-2.3,1.1-.4,1.1,0,2,1,2.3,1,.4,1.9,0,2.3-1.1Z"/><path d="m101.3,308.6c1.3-1.8,3.8-2.1,5.5-.8s2.2,3.7.9,5.5c-1.3,1.8-3.8,2.1-5.5.8-1.8-1.3-2.2-3.7-.9-5.5Zm4.6,3.4c.6-.9.4-1.9-.3-2.4-.8-.6-1.8-.5-2.4.4s-.4,1.9.3,2.4c.8.6,1.8.5,2.4-.4Z"/><path d="m118.9,316.4l-8.3,6.5-1.4-1.8.6-.4c-.8,0-1.5-.4-2.1-1.2-1.2-1.5-.8-3.9.9-5.3,1.8-1.4,4.1-1.2,5.3.4.6.8.8,1.6.7,2.3l2.9-2.3,1.4,1.8Zm-6.7,2.4c.9-.7,1-1.7.3-2.5-.6-.8-1.7-1-2.5-.3-.9.7-1,1.7-.3,2.5.6.8,1.7,1,2.5.3Z"/><path d="m120.8,327.4l-7.7.5c-2.5.2-3.9-.7-4.6-2.7l1.9-.8c.4,1,.9,1.3,1.9,1.2l5.4-5.5,1,2.3-3.6,3.3,4.8-.5.9,2.2h0Z"/><path d="m115.5,329.8l4.2,2.9c.7.5,1.4.9,2,.8.7,0,1-.6.9-1.3s-.7-1.2-1.4-1.3l.8-2.2c1.6.4,2.6,1.7,2.8,3.1.3,1.9-.7,3.7-2.7,4-1.2.2-2.4-.3-3.5-1.1l-2-1.4.6,3.5-2.3.4-1.1-7.1,1.7-.3Z"/><path class="cls-37" d="m89.7,321.4h6.1c1.7,0,3.3,1.6,3.4,3.3v41.4c0,1.9-.9,3.2-2.5,3.8-.4,0-.8.2-1.1.2h-22.6c-2,0-3.7-1.7-3.7-3.7v-4h1.8v4c0,1.2.8,1.9,2,1.9h22.2c1.2,0,2-.8,2-2v-41c0-1.2-.8-2-1.9-2h-4.6c0-.8-.7-1.3-1.1-1.9Z"/><path class="cls-6" d="m89.7,321.4c.4.6,1,1.1,1.1,1.8h-17.3c-1.7,0-2.4.7-2.4,2.4v36.7h-1.8v-36.9c0-1.7.7-3,2.3-3.7.4-.2.8-.3,1.3-.3h16.9,0Z"/><path class="cls-45" d="m71.1,362.4v-36.7c0-1.7.7-2.4,2.4-2.4h17.4v36c0,1.7-1.3,3.1-3,3.1h-16.8Zm13.1-33.5h3.6c1.1,0,2-.8,2-1.8s-.8-1.9-2-1.9h-7.2c-1.1,0-2,.8-2,1.8s.8,1.9,2,1.9h3.6Zm-4.2,22.9c.2,0,.5-.2.6-.3l9.2-9.2c.2-.2.4-.5.3-.8s-.2-.6-.6-.7c-.4,0-.8,0-1.1.3-3,3-6.1,6.1-9.1,9.1l-.2.2c-.2.3-.2.6,0,.9.2.3.5.5.9.5h0Zm5.7-11.1c0-.4-.3-.7-.6-.9-.5-.2-.8,0-1.1.4l-5.5,5.5c-.5.5-.5,1.1,0,1.4s1,.4,1.4,0c1.9-1.8,3.7-3.7,5.6-5.5.2-.2.3-.4.4-.7h0l-.2-.2Z"/><path class="cls-30" d="m71.2,362.4h16.7c1.8,0,3-1.3,3-3.1v-36h4.5c1.2,0,1.9.8,1.9,2v41c0,1.2-.8,2-2,2h-22.2c-1.1,0-1.9-.7-2-1.9v-4h0Zm13.1,3.1h-5.4c-.7,0-1.2.3-1.2.9s.4,1,1.1,1h10.8c.7,0,1.2-.4,1.1-.9s-.4-.9-1.2-.9h-5.4.2Z"/><path class="cls-29" d="m84.2,328.9h-3.6c-1.2,0-2-.8-2-1.9s.8-1.8,2-1.8h7.2c1.2,0,2,.8,2,1.9s-.9,1.8-2,1.8h-3.6Z"/><path class="cls-24" d="m80,351.8c-.4,0-.7-.2-.9-.5-.2-.3,0-.7,0-.9l.2-.2c3-3,6.1-6.1,9.1-9.1.3-.3.7-.4,1.1-.3.4,0,.5.4.6.7s0,.6-.3.8l-9.2,9.2c-.2.2-.4.3-.6.3Z"/><path class="cls-12" d="m84.2,365.4h5.4c.7,0,1.2.3,1.2.9s-.4.9-1.1.9h-10.8c-.7,0-1.2-.4-1.1-1s.4-.9,1.2-.9h5.4-.2Z"/><path d="m74.7,359.5v-4.8l8.6-9.1c.9-.9,1.5-1.7,1.9-2.3s.6-1.2.6-1.7-.2-1.2-.6-1.6-1-.6-1.7-.6c-1.5,0-2.7.9-3.5,2.7l-5.7-3.2c.8-1.9,2.1-3.4,3.7-4.4,1.6-1,3.4-1.5,5.4-1.5s4.6.7,6.3,2.2c1.8,1.5,2.6,3.5,2.6,6s-.4,2.9-1.1,4.2c-.7,1.3-1.7,2.6-3.1,4l-3.5,3.7h8.1v6.4h-18.1,0Z"/><circle class="cls-3" cx="315.7" cy="337.2" r="45"/><path class="cls-15" d="m315.7,321.8h11c1.9,0,3.7,1.7,3.9,3.6v41.3c0,2.2-1.2,3.9-3.2,4.5-.2,0-.4,0-.5.2h-11.3v-2.9h10.2c1.3,0,1.8-.5,1.8-1.8v-40.2c0-1.3-.5-1.8-1.8-1.8h-10.2v-2.9h0Z"/><path class="cls-17" d="m315.7,321.8v2.9h-10.6c-.4,0-.7.2-1,.4-.4.4-.5.9-.5,1.4v40.4c0,.9.6,1.5,1.6,1.5h10.5v2.9h-11.4c0,0-.2,0-.3-.2-2-.6-3.1-2-3.3-4.1v-40.5c0-2.2,1.1-3.8,2.9-4.5.4,0,.8-.2,1.2-.2h10.9Z"/><path class="cls-11" d="m315.7,324.7h10.2c1.3,0,1.8.5,1.8,1.8v40.1c0,1.3-.5,1.8-1.8,1.8h-10.2v-3.1h4.1c.8,0,1.4-.6,1.4-1.4s-.6-1.5-1.6-1.5h-3.9v-7.8c1,0,1.4-.6,1.4-1.6v-12.9c0-1-.5-1.5-1.4-1.6v-8.1h1.9c.9,0,1.5-.8,1.6-1.4,0-.8-.7-1.5-1.6-1.5h-1.9v-2.8h0Zm4.2,21.8v2.7c0,.9.6,1.5,1.4,1.5s1.5-.6,1.5-1.4h0v-5.4c0-.8-.7-1.5-1.5-1.4h0c-.8,0-1.4.7-1.4,1.6v2.6h0v-.2Z"/><path class="cls-8" d="m315.7,324.7v2.8h-2c-.8,0-1.5.7-1.5,1.5s.7,1.4,1.5,1.4h1.9v8.1h0c-.9,0-1.4.6-1.4,1.5v13.1c0,.9.6,1.4,1.4,1.5h0v7.8h-3.9c-.9,0-1.6.6-1.6,1.5s.7,1.4,1.6,1.4h3.9v3.1h-10.5c-.9,0-1.5-.6-1.6-1.5v-40.4c0-.5,0-1,.5-1.4.3-.3.6-.4,1-.4h10.7Zm-4.2,21.9v-2.8c0-.2,0-.5-.2-.6-.3-.5-1-.9-1.5-.7-.8.2-1.2.7-1.2,1.5v5.3c0,.8.7,1.5,1.5,1.5s1.4-.6,1.4-1.6v-2.6Z"/><path class="cls-9" d="m315.7,338.5c1,0,1.4.6,1.4,1.6v12.9c0,1-.4,1.5-1.4,1.6h0v-16.1h0Z"/><path class="cls-34" d="m319.9,346.5v-2.6c0-.9.6-1.5,1.4-1.6.8,0,1.5.6,1.5,1.4h0v5.4c0,.8-.7,1.4-1.5,1.4h0c-.8,0-1.4-.7-1.4-1.5v-2.7h0v.2Z"/><path class="cls-44" d="m315.7,362.4h3.9c1,0,1.6.6,1.6,1.5s-.6,1.4-1.4,1.4h-4.1v-2.9h0Z"/><path class="cls-44" d="m315.7,327.5h1.9c.8,0,1.6.7,1.6,1.5s-.7,1.5-1.6,1.4h-1.9v-2.9h0Z"/><path class="cls-32" d="m315.7,338.5v16.1c-.9,0-1.4-.6-1.4-1.5v-13.1c0-.9.5-1.4,1.4-1.5Z"/><path class="cls-40" d="m311.4,346.6v2.6c0,.9-.5,1.5-1.4,1.6-.7,0-1.5-.6-1.5-1.5v-5.3c0-.8.5-1.3,1.2-1.5.5,0,1.2.2,1.5.7,0,.2.2.4.2.6v2.8Z"/><path class="cls-20" d="m315.7,362.4v2.9h-3.9c-.9,0-1.6-.6-1.6-1.4s.7-1.4,1.6-1.5h3.9Z"/><path class="cls-20" d="m315.7,327.5v2.9h-1.9c-.9,0-1.5-.6-1.5-1.4s.7-1.5,1.5-1.5h2,0Z"/><path d="m282.7,321.9c1.8.7,2.7,2.8,2,4.8l-.6,1.5,3.1,1.2-.9,2.2-9.7-3.9,1.5-3.7c.8-1.9,2.9-2.8,4.7-2.1h-.1Zm-.9,2.2c-.7-.3-1.5,0-1.7.7l-.6,1.5,2.5,1,.6-1.5c.3-.7,0-1.4-.8-1.7Z"/><path d="m290.1,315.6l3.7,2.8-1.4,1.8-3.4-2.6c-.7-.6-1.4-.4-1.9.2-.5.7-.5,1.4.4,2l3.3,2.5-1.4,1.8-8.3-6.4,1.4-1.8,2.9,2.2c-.2-.7,0-1.5.6-2.3.9-1.2,2.6-1.6,4.2-.3h-.1Z"/><path d="m291.8,315c-1.4-1.8-1-4.2.8-5.6,1.8-1.3,4.2-1,5.6.7,1.4,1.8,1,4.2-.8,5.6-1.8,1.3-4.2,1-5.6-.7Zm4.5-3.5c-.6-.8-1.7-1-2.4-.4s-.9,1.6-.3,2.5c.6.8,1.7,1,2.4.4.8-.6.9-1.6.3-2.5Z"/><path d="m305.9,306l1.7,4.3-2.1.8-1.6-4c-.4-.9-1.1-1-1.7-.8-.8.3-1.1,1-.7,2l1.5,3.8-2.1.8-2.8-7,2.1-.8.3.7c.2-.7.7-1.3,1.6-1.7,1.4-.6,3,0,3.8,1.8h0Z"/><path d="m312.1,307.8c.6,0,1.1-.4,1.4-.7l1.9.8c-.6,1.1-1.6,1.8-3.1,1.9-2.5.3-4.3-1.2-4.6-3.4-.3-2.2,1.1-4.1,3.5-4.4,2.2-.3,4,1.2,4.3,3.5v.9l-5.3.6c.4.7,1.1.9,1.9.8Zm1-2.9c-.3-.8-1-1.1-1.7-1-.8.1-1.4.6-1.5,1.4l3.2-.4Z"/><path d="m317.3,303.7l5.7.7-.3,2.1-5.7-.7.3-2.1Z"/><path d="m332.3,309.6c-.8,2.1-3,3.1-4.8,2.3-.9-.4-1.5-1-1.7-1.7l-.3.7-2.1-.8,3.9-9.8,2.1.8-1.4,3.4c.7-.3,1.5-.4,2.4,0,1.8.7,2.7,2.9,1.9,5h0Zm-2.1-.8c.4-1,0-2-1-2.4s-1.9,0-2.3,1c-.4,1,0,2,1,2.4s1.9,0,2.3-1Z"/><path d="m333.3,310.3c1.4-1.8,3.8-2,5.6-.7,1.7,1.3,2.1,3.8.7,5.6-1.4,1.8-3.8,2-5.6.7-1.7-1.3-2.1-3.8-.7-5.6Zm4.5,3.5c.7-.8.5-1.9-.3-2.5s-1.8-.5-2.4.3c-.7.8-.5,1.9.3,2.5s1.8.5,2.4-.3Z"/><path d="m350.8,318.5l-8.4,6.2-1.3-1.8.6-.4c-.8,0-1.5-.4-2.1-1.3-1.2-1.6-.7-3.9,1.1-5.2,1.8-1.3,4.1-1.1,5.3.5.6.8.8,1.6.6,2.3l3-2.2,1.3,1.8h0Zm-6.8,2.2c.9-.7,1-1.7.4-2.5-.6-.8-1.6-1-2.5-.3-.9.7-1,1.7-.4,2.5.6.8,1.6,1,2.5.3Z"/><path d="m352.3,329.6l-7.7.3c-2.5,0-3.9-.8-4.6-2.8l2-.8c.4,1,.9,1.3,1.8,1.3l5.6-5.4.9,2.3-3.7,3.2,4.8-.4.9,2.2h0Z"/><path d="m348,340v-1c0,0-1.8.2-1.8.2l-.3-2.4,1.7-.2-.6-4.7,2.2-.3,7,2.5.3,2.6-7-2.5.3,2.2,2.2-.3.3,2.4-2.2.3v1c0,0-2.1.3-2.1.3h0Z"/><path d="m325.9,347.8v6h-2.6v4h-6.6v-4h-11.4v-6.1l7.7-15.8h7.3l-7.8,15.9h4.1v-4.7h6.6v4.7h2.7Z"/></svg>