<?xml version="1.0" encoding="UTF-8"?><svg id="Layer_1" xmlns="http://www.w3.org/2000/svg" viewBox="0 0 400 400"><defs><style>.cls-1{fill:#a7cefe;}.cls-2{fill:#fff;}.cls-2,.cls-3,.cls-4,.cls-5,.cls-6{stroke-miterlimit:10;}.cls-2,.cls-6{stroke:#231f20;stroke-width:2px;}.cls-3{stroke:#a5262d;}.cls-3,.cls-4,.cls-5{stroke-width:4px;}.cls-3,.cls-4,.cls-5,.cls-6,.cls-7{fill:none;}.cls-8{fill:#7da1b1;}.cls-9{fill:#8fbac5;}.cls-4{stroke:#0018c6;}.cls-10{fill:#727272;}.cls-11{fill:#0c4a4e;}.cls-12{fill:#d1fdbf;}.cls-13{fill:#999afe;}.cls-5{stroke:#c000e2;}.cls-14{fill:#d9cfca;}.cls-15{fill:#f1f6f6;}.cls-16{fill:#00f6d5;}.cls-17{fill:#626363;}.cls-18{fill:#e5dedc;}.cls-19{fill:#01264f;}.cls-20{fill:#4d4d4d;}.cls-21{fill:#97f8fe;}.cls-22{fill:#034868;}.cls-23{fill:#f1efef;}.cls-24{fill:#02f6d5;}.cls-25{fill:#02f1a6;}.cls-26{fill:#fe7038;}.cls-27{fill:#717f8f;}.cls-28{fill:#93dbfe;}.cls-29{fill:#152433;}.cls-30{fill:#fe415d;}.cls-31{fill:#6f7070;}.cls-32{fill:#fde077;}.cls-33{fill:#fee077;}.cls-34{fill:#ddebf0;}.cls-35{fill:#0aaffe;}.cls-36{fill:#e6dedc;}.cls-37{fill:#fed05b;}.cls-38{fill:#b7b7fe;}.cls-39{fill:#979bfd;}.cls-40{fill:#728090;}.cls-41{fill:#484645;}.cls-42{fill:#fec345;}.cls-43{fill:#636363;}.cls-44{fill:#b6d6fd;}.cls-45{fill:#fee078;}.cls-46{fill:#cee5ec;}.cls-47{fill:#d0c8c3;}.cls-48{fill:#fdd15b;}.cls-49{fill:#b8b8fd;}.cls-50{fill:#3f4a5b;}.cls-51{fill:#7dd4f3;}.cls-52{fill:#231f20;}.cls-53{fill:#00dbe6;}.cls-54{fill:#f2f2f2;}.cls-55{fill:#64c7ef;}.cls-56{fill:#2dbafe;}</style></defs><line class="cls-7" x1="154.7" y1="121.5" x2="188.3" y2="148.7"/><line class="cls-6" x1="150.6" y1="117.4" x2="180" y2="141.9"/><polygon class="cls-52" points="173.5 146.4 188.3 148.7 183 134.7 173.5 146.4"/><line class="cls-7" x1="245.3" y1="121.5" x2="211.7" y2="148.7"/><line class="cls-6" x1="250.4" y1="116.4" x2="220.1" y2="141.9"/><polygon class="cls-52" points="217.1 134.7 211.7 148.7 226.5 146.4 217.1 134.7"/><path d="m268,41.7c-.9-2.6.5-5.5,3.1-6.3s5.5.5,6.3,3.1c.9,2.6-.5,5.4-3.1,6.3-2.6.9-5.5-.4-6.4-3,0,0,0,0,0,0Zm6.8-2.4c-.3-1.1-1.4-1.8-2.6-1.5,0,0-.2,0-.2,0-1.1.3-1.7,1.4-1.4,2.4,0,.1,0,.2.1.4.3,1.1,1.4,1.8,2.6,1.5,0,0,.2,0,.2,0,1.1-.3,1.7-1.4,1.5-2.4,0-.1,0-.3-.1-.4h0Z"/><path d="m289.9,38.2c.1,2.6-2,4.9-4.6,5-1.1,0-2.1-.4-2.8-1.2v.9h-2.9v-13.4h3v4.7c.7-.8,1.7-1.2,2.8-1.1,2.5,0,4.5,2.2,4.5,5.1Zm-2.8,0c0-1.2-.8-2.2-2-2.3,0,0-.2,0-.2,0-1.2,0-2.2.9-2.3,2.1,0,0,0,.1,0,.2,0,1.2.8,2.2,2,2.3,0,0,.2,0,.2,0,1.2,0,2.2-.9,2.3-2.1,0,0,0-.1,0-.2Z"/><path d="m98.3,44.1l1.9,2-5.4,5-8.6-9.3,2.1-2,6.7,7.2,3.3-3.1v.2Z"/><path d="m94.7,36.3c-.4-.8-.2-1.8.6-2.2.8-.4,1.8-.2,2.2.6.4.8.2,1.8-.6,2.2-.7.5-1.7.3-2.1-.5,0,0,0,0,0-.1Zm1.5,1.9l2.3-1.4,4.6,7.7-2.3,1.4-4.6-7.7Z"/><path d="m105.3,36.7l1.1,3c.3.7.9.6,2,0l.8,2.3c-3.2,1.6-4.5.9-5.4-1.5l-1.1-3-1.4.5-.9-2.4,1.4-.5-.6-1.6,2.3-1.7.9,2.4,1.7-.6.9,2.4-1.7.6h0Z"/><path d="m118.2,35.5l.5,5.5-2.7.2-.4-5.1c0-.8-.5-1.5-1.3-1.5-.1,0-.2,0-.4,0-1,0-1.6.7-1.5,2l.4,4.9-2.7.2-1-12.6,2.7-.2.4,4.4c.6-.8,1.5-1.3,2.5-1.3,1.8-.2,3.5,1,3.7,3.4h-.2Z"/><path d="m121.2,32.5l2.7.4-1.4,8.9-2.7-.4,1.4-8.9Zm.1-2.4c.1-.9,1-1.5,1.9-1.4.9.1,1.5,1,1.4,1.9-.1.9-1,1.5-1.9,1.4,0,0,0,0,0,0-.9-.1-1.5-1-1.4-1.9h0Z"/><path d="m135.1,36.8l-3.5,8.3-2.5-1,.3-.8c-.9.5-1.9.5-2.8,0-1.7-.7-2.6-2.5-1.7-4.7l2.1-5.1,2.5,1-2,4.7c-.4.7-.1,1.6.6,2,0,0,.1,0,.2,0,.8.4,1.8,0,2.2-.8,0-.1,0-.2.1-.3l1.9-4.5,2.5,1h0Z"/><circle class="cls-3" cx="284.3" cy="68.1" r="45"/><path d="m255.6,49c-2.5-2.7-2.3-6.9.5-9.4.1,0,.2-.2.3-.3,1.7-1.5,4.1-2,6.3-1.3l-1,2.9c-1.2-.4-2.5-.1-3.4.7-1.6,1.5-1.7,4-.2,5.6,1.4,1.5,3.7,1.7,5.3.4,1-.8,1.4-2,1.3-3.2l3-.5c.3,2.3-.6,4.6-2.4,6-2.8,2.5-7.1,2.2-9.6-.5,0,0-.1-.2-.2-.3h0Z"/><path d="m302.9,37.7l-3.4,8.9-2.7-1,.3-.8c-1,.5-2.1.5-3.1,0-2.4-1.1-3.5-3.9-2.5-6.3,1-2.6,3.7-4,6-3.1,1,.3,1.8,1.1,2.2,2.1l.3-.8,2.7,1h.2Zm-4.3,3.4c.5-1.1,0-2.4-1-2.9,0,0-.2,0-.3-.1-1-.5-2.3,0-2.8,1,0,.1,0,.2-.1.4-.5,1.1,0,2.4,1,2.9,0,0,.2,0,.3.1,1.1.5,2.3,0,2.8-1,0-.1.1-.3.1-.4h0Z"/><path d="m308.5,36.2l2.3,1.6-8,11.3-2.3-1.6,8-11.3Z"/><path d="m311.5,47.9l-2.4,2.4c-.6.6-.1,1.1.8,2l-1.8,1.8c-2.9-2.4-2.8-4-.9-5.8l2.4-2.4-1.1-1.1,2-1.9,1.1,1.1,1.3-1.3,2.6,1.4-1.9,1.9,1.4,1.4-2,1.9-1.4-1.4h-.1Z"/><rect class="cls-55" x="257.3" y="58.1" width="52" height="37" rx="2.9" ry="2.9"/><path class="cls-41" d="m274.6,88.9c-3.3.1-6.5-1.2-8.8-3.5-4.7-4.9-4.7-12.7,0-17.6,2.3-2.4,5.5-3.6,8.8-3.5,3.5,0,4.1.5,5.9,1.5,1.8,1,3.3,2.4,4.3,4.1l-5.2,3c-.5-.8-1.2-1.5-2-2-.9-.5-2-.7-3-.7-1.7,0-3.4.6-4.6,1.8-1.2,1.2-1.8,2.9-1.7,4.6-.2,3.3,2.3,6.2,5.6,6.4.2,0,.5,0,.7,0,1.1.1,2.1-.1,3-.7.9-.5,1.5-1.1,2-2l5.2,3c-1,1.7-2.5,3.1-4.3,4.1-1.8,1-3.9,1.5-6,1.5h.1Z"/><path class="cls-41" d="m295.3,88.9c-2.4,0-4.7-.9-6.4-2.6-1.7-1.6-2.7-3.9-2.6-6.3,0-2.4.9-4.6,2.6-6.3,1.7-1.7,4-2.6,6.4-2.6,2.4,0,4.7.9,6.4,2.6,3.5,3.5,3.5,9.1,0,12.6-1.7,1.7-4,2.6-6.4,2.6Zm0-5.4c.9,0,1.8-.3,2.4-1,.6-.7,1-1.6,1-2.5,0-.9-.3-1.9-1-2.5-1.3-1.3-3.5-1.3-4.8,0,0,0,0,0,0,0-.6.7-1,1.6-1,2.5,0,.9.3,1.9,1,2.5.6.7,1.5,1,2.4,1Z"/><circle class="cls-3" cx="115.7" cy="68.1" r="45"/><path d="m146.1,51.1l-4,3.8-1.9-1.9,3.8-3.7c.6-.4.7-1.3.3-1.9,0,0,0,0-.1-.1-.6-.6-1.4-.6-2.2.2l-3.7,3.5-1.9-1.9,3.8-3.7c.6-.4.7-1.3.3-1.9,0,0,0,0-.1-.1-.6-.6-1.4-.6-2.2.2l-3.7,3.5-1.9-1.9,6.5-6.3,1.9,1.9-.6.6c.9,0,1.9.3,2.5,1,.7.6,1,1.6.8,2.5,1-.1,2.1.3,2.7,1.1,1.4,1.5,1.3,3.5-.3,5.1Z"/><rect class="cls-20" x="88.7" y="58.1" width="52" height="37" rx="2.9" ry="2.9"/><path class="cls-54" d="m109.9,82.6h8.1v5.8h-14.2v-23.6h6v17.8h0Z"/><path class="cls-54" d="m125.1,69.2c-.6.6-1.4,1-2.3,1-.9,0-1.7-.3-2.3-1-.6-.6-1-1.4-1-2.3,0-.9.3-1.7,1-2.3.6-.6,1.4-.9,2.3-.9.9,0,1.7.3,2.3.9.6.6,1,1.4,1,2.3,0,.9-.3,1.7-1,2.3Zm-5.1,19.2v-16.9h5.6v16.9h-5.6Z"/><circle class="cls-4" cx="200" cy="202.3" r="45"/><path class="cls-9" d="m188.8,238.3c-.8-.2-1.6-.6-2.3-1-1.5-1-2.4-2.8-2.3-4.6v-42.9c0-2.6,1.8-4.9,4.4-5.4h21.6c0,.2.1.2.2.2,1.3.4,2.5,1.2,3.2,2.4.4.5.6,1.2.6,1.8,0,0-.2-.2-.2-.3-.5-.8-1.4-1.3-2.4-1.3h-3.8c-.6,0-1.2.3-1.5.9-.2.3-.3.7-.5,1-.3.7-1,1.1-1.7,1.1h-6.7c-.3,0-.5,0-.8-.1-.4-.2-.7-.6-.8-1l-.6-1.2c-.2-.4-.6-.7-1.1-.7h-4.8c-1.4.3-2.3,1.6-2.2,3v42.5c0,1.5,1.1,2.7,2.6,2.8h22c.5,0,.9,0,1.3-.3.5-.3.9-.8,1.2-1.3v.2c-.4,1.9-1.8,3.4-3.7,4-.1,0-.4,0-.4.2h-21.3Zm11.9-50.3h1.8c.3,0,.7-.2.7-.6,0,0,0,0,0-.1,0-.5-.2-.9-.7-.9h-3.5c-.5,0-.7.4-.7.9s.3.6.7.7h1.7Z"/><path class="cls-8" d="m210.2,238.3c0-.3.2-.2.4-.2,1.8-.6,3.2-2.1,3.7-4v-.2c.2-.5.2-1.1.2-1.7v-41.8c0-.6,0-1.1-.2-1.7,0-.6-.2-1.3-.6-1.8-.7-1.2-1.9-2.1-3.2-2.4-.1,0-.2,0-.2-.2h2.4c.7.1,1.3.4,1.9.7,1.7,1,2.8,2.9,2.7,4.9v42.7c0,2.7-1.8,5.1-4.5,5.6h-2.6Z"/><path class="cls-15" d="m196.5,190.1c.3,0,.5.1.8.1h6.7c.8,0,1.5-.4,1.7-1.1.2-.3.3-.7.5-1,.3-.6.9-.9,1.5-.9h.9c0,.2.2.2.3.3,1,.5,1.6,1.5,1.6,2.6v42.5c0,1.1-.6,2.1-1.5,2.6-.2,0-.3.1-.3.3h-19.1c-1.5,0-2.6-1.3-2.6-2.8v-42.4c-.1-1.4.8-2.7,2.2-3,.5,0,.9,0,1.4,0,.5.6.9,1.3,1.3,2,.3.6,1,1,1.7.9h2.5c.2,0,.4,0,.5-.1h0Zm-3.5,29.9v10.4c0,1.1.3,1.4,1.4,1.4h12.9c.5,0,1-.3,1.1-.9,0,0,0-.1,0-.2v-21.4c0-.5-.3-1-.9-1.1,0,0-.1,0-.2,0h-1.1c-.5,0-1-.3-1.1-.9,0,0,0-.1,0-.2v-1.9c0-.5-.3-1-.9-1.1,0,0-.1,0-.2,0h-6.7c-.8,0-1.1.4-1.1,1.2v1.9c0,.7-.4,1-1.1,1h-.8c-1,0-1.3.3-1.3,1.3v10.5h0Zm7.7-24.2c0-.2.1-.3.2-.5.3-.5.7-1,1-1.5s.2-.9-.2-1.1-.8-.3-1,0c-.8,1.1-1.6,2.3-2.3,3.5-.3.6,0,1.1.7,1.1h1.4q.3,0,.2.3c-.5.8-1,1.6-1.6,2.4-.3.4-.3.9,0,1.3.4.3.9.1,1.3-.4.9-1.3,1.7-2.6,2.5-3.9.2-.3.2-.6,0-.9-.2-.3-.5-.4-.8-.4h-1.6.2Z"/><path class="cls-34" d="m208.7,235.4c0-.2.2-.2.3-.3.9-.5,1.5-1.5,1.5-2.6v-42.5c0-1.1-.6-2.1-1.6-2.6-.2,0-.3-.1-.3-.3h2.9c1,0,1.9.4,2.4,1.3,0,.1.1.2.2.3.2.5.2,1.1.2,1.7v41.8c0,.6,0,1.1-.2,1.7-.3.5-.7.9-1.2,1.3-.4.2-.8.3-1.3.3h-2.9,0Z"/><path class="cls-34" d="m196.5,190.1c-.1.2-.3.1-.5.1h-2.5c-.7,0-1.4-.3-1.7-.9-.4-.7-.8-1.4-1.3-2h3.4c.5,0,.9.3,1.1.7l.6,1.2c.2.4.5.7.8,1h0Z"/><path class="cls-8" d="m200.7,188.1h-1.6c-.3,0-.7-.2-.7-.6,0,0,0,0,0-.1,0-.5.2-.9.7-.9h3.5c.4,0,.8.5.7.9,0,.5-.2.6-.7.7-.6,0-1.2,0-1.8,0h0Z"/><path class="cls-25" d="m193,219.9v-10.5c0-1,.3-1.3,1.3-1.3h.8c.7,0,1-.3,1.1-1v-1.9c0-.8.3-1.2,1.1-1.2h6.7c.5,0,1,.3,1.1.9,0,0,0,.1,0,.2v1.9c0,.5.3,1,.9,1.1,0,0,.1,0,.2,0h1.1c.5,0,1,.3,1.1.9,0,0,0,.1,0,.2v21.4c0,.5-.3,1-.9,1.1,0,0-.1,0-.2,0h-12.9c-1.1,0-1.4-.3-1.4-1.4v-10.4h0Zm12.5,2.7v-10.6c0-.5-.3-.8-.9-.8h-7.9c-.4,0-.8.2-.9.7,0,0,0,.1,0,.2v15.9c0,.4.2.8.7.9,0,0,.1,0,.2,0h7.9c.4,0,.8-.2.9-.7,0,0,0-.1,0-.2v-5.4h0Z"/><path class="cls-45" d="m200.7,195.7h1.6c.4,0,.7,0,.8.4.1.3.1.6,0,.9-.8,1.3-1.7,2.6-2.5,3.9-.3.5-.8.6-1.3.4-.4-.3-.4-.8,0-1.3.5-.8,1-1.6,1.6-2.4.2-.2.1-.3-.2-.3h-1.4c-.7,0-1.1-.6-.7-1.1.7-1.2,1.5-2.3,2.3-3.5.2-.3.5-.4.8-.2,0,0,.2.1.2.2.3.3.4.7.2,1.1-.3.5-.7,1-1,1.5,0,.1-.2.2-.2.5h-.2Z"/><path class="cls-34" d="m202.3,211.1h2.4c.5,0,.9.3.9.7,0,0,0,0,0,0v2.5h-2.5c-.4,0-.5.1-.5.5v3.5h-6.7v-4.1h6.2c.2,0,.5.1.5-.2,0-1,.3-2.1-.3-3Z"/><path class="cls-32" d="m202.1,228.9h-5.3c-.4,0-.8-.2-.9-.7,0,0,0-.1,0-.2v-3.7h6.7v3.6c0,.4-.1.8-.5,1Z"/><path class="cls-33" d="m195.9,218.5h6.7v4.1h-6.7v-4.1Z"/><path class="cls-15" d="m202.3,211.1c.6,1,.2,2,.3,3,0,.3-.3.2-.5.2h-6.2v-2.3c0-.4.2-.8.7-.9,0,0,.1,0,.2,0h5.5Z"/><path class="cls-48" d="m202.1,228.9c.4-.2.5-.5.5-1v-3.6h2.9v3.7c0,.5-.3.9-.8.9,0,0,0,0-.1,0h-2.5Z"/><path class="cls-37" d="m202.6,222.6v-4.1h2.9v4.1h-2.9Z"/><path class="cls-46" d="m205.6,218.5h-2.9v-3.5c0-.4.1-.5.5-.5h2.5v4h-.1Z"/><path class="cls-48" d="m195.9,222.6h6.7v1.7h-6.7v-1.7Z"/><path class="cls-42" d="m202.6,224.3v-1.7h2.9v1.7h-2.9Z"/><path d="m165.8,194.9c2.1.3,3.5,2.3,3.2,4.4l-.3,1.6,3.5.5-.4,2.5-11-1.7.6-4.2c.3-2.1,2.2-3.6,4.3-3.3,0,0,0,0,0,0v.2Zm-.4,2.5c-.7-.2-1.4.3-1.6,1,0,0,0,0,0,.1l-.3,1.6,2.8.4.3-1.6c.1-.7-.4-1.4-1.1-1.5,0,0,0,0-.1,0h0Z"/><path d="m172.2,186.6l4.4,2.1-1,2.1-4.1-2c-.7-.4-1.5-.1-1.9.5,0,0,0,0,0,0-.4.8-.2,1.5.8,2l3.9,1.9-1,2.1-10-4.9,1-2.1,3.5,1.7c-.3-.8-.3-1.7.1-2.5.7-1.5,2.5-2.1,4-1.4,0,0,.2.1.3.2v.2Z"/><path d="m173.9,185.6c-1.7-1.6-1.8-4.2-.2-5.9,1.6-1.7,4.2-1.8,5.9-.2,1.7,1.6,1.8,4.2.2,5.9-1.5,1.7-4.2,1.8-5.8.2,0,0,0,0,0,0Zm4.1-4.4c-.7-.7-1.9-.6-2.5.2-.7.7-.6,1.9.2,2.5.7.6,1.8.6,2.5,0,.7-.7.7-1.8,0-2.5,0,0,0,0,0,0Z"/><path d="m187.3,173.8l2.4,4.2-2.1,1.2-2.2-3.9c-.2-.7-1-1-1.6-.7,0,0-.2,0-.3.1-.8.4-1,1.2-.5,2.2l2.1,3.8-2.1,1.2-3.9-6.9,2.1-1.2.4.6c0-.7.6-1.4,1.5-2,1.4-.8,3.1-.5,4.2,1.4Z"/><path d="m194.1,175.1c.6-.1,1.1-.4,1.4-.9l2.1.7c-1.1,2.2-3.8,3-6,1.9-1.1-.6-1.9-1.6-2.2-2.8-.5-2.2.8-4.4,3-4.9,0,0,.2,0,.2,0,2.2-.5,4.3.9,4.8,3,0,0,0,.1,0,.2,0,.3.1.6.1,1l-5.5,1.2c.5.7,1.3,1,2.1.7Zm.8-3.1c-.4-.7-1.1-1.1-1.9-.9-.8.1-1.4.8-1.4,1.6l3.3-.7Z"/><path d="m211.7,174.1c-.4,2.2-2.4,3.6-4.6,3.3-.9-.2-1.7-.7-2.1-1.5l-.2.7-2.3-.5,2.4-10.8,2.3.5-.9,3.8c.7-.5,1.7-.7,2.5-.4,2.1.6,3.4,2.8,2.8,4.9h.1Zm-2.3-.5c.3-.9-.2-1.9-1.2-2.2,0,0-.2,0-.2,0-1-.3-2,.3-2.3,1.3,0,0,0,.1,0,.2-.3.9.2,1.9,1.2,2.2,0,0,.2,0,.2,0,1,.3,2-.3,2.3-1.3,0,0,0-.1,0-.2Z"/><path d="m222.4,175.6l-4.1,6.8-2-1.2.4-.6c-.9.3-1.8.1-2.5-.4-1.8-1.4-2.2-4-.8-5.8,1.2-1.6,3.3-2.1,5.1-1.3.8.4,1.3,1.1,1.5,2l.4-.6,2,1.2h0Zm-4.1,2.2c.6-.8.4-1.9-.4-2.5,0,0,0,0-.2,0-.9-.5-2-.2-2.6.6,0,0,0,0,0,0-.5.9-.2,2,.6,2.6.9.5,2,.2,2.6-.7h0Z"/><path d="m225.2,181.5l-2,2c-.5.5-.1.9.7,1.6l-1.5,1.5c-2.4-2-2.4-3.3-.8-4.9l2-2-.9-.9,1.6-1.6.9.9,1.1-1.1,2.2,1.2-1.6,1.5,1.1,1.2-1.6,1.6-1.1-1.2v.2Z"/><path d="m229.1,186.5l-2.3,1.6c-.6.4-.3.9.3,1.7l-1.8,1.2c-2-2.4-1.7-3.7.1-4.9l2.3-1.6-.7-1.1,1.9-1.3.7,1.1,1.3-.8,1.9,1.6-1.8,1.2.9,1.4-1.9,1.3-.9-1.4Z"/><path d="m228.9,194.6c.2.5.6,1,1.1,1.2l-.4,2.2c-1.3-.4-2.3-1.4-2.7-2.7-.9-2.6.2-4.8,2.4-5.6,2.1-.8,4.5.2,5.4,2.4,0,0,0,0,0,.1.8,2.1-.3,4.4-2.4,5.1,0,0-.1,0-.2,0-.3.1-.6.2-.9.2l-1.9-5.3c-.6.6-.8,1.5-.4,2.2h0Zm3.2.4c.7-.4.9-1.3.6-2-.2-.8-1-1.3-1.8-1.2l1.2,3.2Z"/><path d="m236.8,203.5l-2.7.3c0-1-.5-2.3-2-2.2l-3.6.4-.2-2.4,7.9-.8.2,2.4h-1.4c1,.4,1.7,1.3,1.8,2.4h0Z"/><path d="m235.7,213.6l-7.3-3.7c-2.4-1.2-3.2-2.7-2.8-4.9l2.2.3c-.1,1.1.1,1.7,1,2.1l7.9-2.1-.3,2.6-5,1.1,4.6,2.1-.3,2.5h0Z"/><circle class="cls-5" cx="55" cy="336.4" r="40.5"/><path d="m25,322.7c1.7.6,2.5,2.5,1.8,4.2l-.5,1.3,2.8,1.1-.8,2-8.8-3.4,1.3-3.3c.6-1.7,2.5-2.6,4.2-1.9h0Zm-.8,2c-.6-.3-1.3,0-1.5.6l-.5,1.4,2.2.9.5-1.3c.3-.6,0-1.3-.7-1.5Z"/><path d="m31.6,316.9l3.3,2.4-1.2,1.6-3.1-2.2c-.6-.5-1.3-.3-1.7.2-.5.6-.4,1.3.4,1.8l3,2.2-1.2,1.6-7.7-5.6,1.2-1.6,2.7,2c-.2-.6,0-1.4.5-2.1.8-1.1,2.2-1.4,3.8-.4h0Z"/><path d="m33.1,316.3c-1.3-1.6-1-3.8.6-5,1.5-1.3,3.8-1,5,.5,1.3,1.6,1,3.8-.6,5-1.5,1.3-3.8,1-5-.5Zm4-3.1c-.6-.7-1.5-.8-2.2-.3s-.8,1.4-.3,2.2c.6.7,1.5.8,2.2.3s.8-1.4.3-2.2Z"/><path d="m45.7,308l1.6,3.8-1.9.8-1.5-3.5c-.4-.8-1-.9-1.5-.6-.7.3-1,.9-.6,1.8l1.4,3.4-1.9.8-2.6-6.2,1.9-.8.3.5c.2-.6.6-1.2,1.4-1.5,1.3-.5,2.7,0,3.4,1.6h0Z"/><path d="m51.3,309.5c.5,0,1-.4,1.2-.7l1.7.7c-.5,1-1.4,1.6-2.7,1.8-2.2.4-4-1-4.2-3.1-.3-2,1-3.7,3.1-4,2-.3,3.6,1.1,3.9,3.1v.8l-4.8.6c.4.6,1,.8,1.7.7h.2Zm.9-2.6c-.4-.7-1-.9-1.5-.9-.7,0-1.3.5-1.3,1.3l2.9-.4Z"/><path d="m56,305.8l5.1.5-.2,1.9-5.1-.5.2-1.9Z"/><path d="m69.5,310.8c-.7,1.9-2.6,2.8-4.3,2.2-.8-.4-1.3-.8-1.6-1.4l-.3.6-1.9-.7,3.3-8.8,1.9.7-1.2,3.2c.6-.4,1.4-.4,2.2,0,1.6.6,2.4,2.6,1.7,4.5l.2-.2Zm-1.9-.7c.4-1,0-1.8-.9-2.1-.9-.4-1.7,0-2.1,1-.4,1,0,1.8.9,2.1.9.4,1.7,0,2.1-1Z"/><path d="m70.5,311.5c1.2-1.6,3.4-1.9,5-.7,1.6,1.2,2,3.4.7,5-1.2,1.6-3.4,1.9-5,.7-1.6-1.2-2-3.4-.7-5Zm4.1,3.1c.5-.8.5-1.7-.3-2.2s-1.6-.5-2.2.4-.5,1.7.3,2.2,1.6.5,2.2-.4Z"/><path d="m86.2,318.6l-7.5,5.8-1.3-1.6.5-.4c-.7,0-1.3-.4-1.9-1.1-1.1-1.4-.7-3.5.9-4.8s3.7-1,4.8.4c.5.7.7,1.4.5,2.1l2.6-2.1,1.3,1.6h0Zm-6,2.1c.8-.6.9-1.5.4-2.2s-1.4-.9-2.2-.3-.9,1.5-.4,2.2,1.4.9,2.2.3Z"/><path d="m87.8,328.5l-6.9.4c-2.2,0-3.5-.6-4.1-2.4l1.7-.7c.4.9.8,1.2,1.7,1.2l4.9-4.9.8,2.1-3.2,3,4.3-.5.8,2h0Z"/><path d="m91.4,333.3l-9.3,1.7-.4-2.2,7-1.3-.7-1.5,1.7-.8,1.3,2.2.4,1.9h0Z"/><path class="cls-50" d="m45.4,366.4c0-.2-.2,0-.4-.2-1.8-.5-3.1-2.1-3.1-4v-34.9c0-2.4,1-3.8,3.2-4.5,0,0,0,0,0,0h3.1c.5,1.3,1,2.4,1.4,3.6,0,.3.4.4.6.4h8.7c.4,0,.6-.2.7-.5.2-.4.4-.9.5-1.3.3-.7.6-1.3.8-2.2h3c.2.2.5.2.7.3,1.6.5,2.7,2.1,2.8,3.8v34.9c0,2.5-1,3.9-3.4,4.7h-19,0Zm21.3-6.6h0v-30.4c0-.4-.3-.2-.5-.2h-23c-.4,0-.5,0-.5.4v30.1h23.9Zm-11.8,2.8h-4c-.5,0-.6.2-.5.6,0,.4.4.5.6.5h7.7c.5,0,.6-.2.6-.5s-.3-.5-.6-.5h-3.9Z"/><path class="cls-40" d="m61.5,322.7c-.2.7-.5,1.4-.8,2.2-.2.4-.4.9-.5,1.3,0,.3-.4.5-.7.5h-8.7c-.3,0-.5,0-.6-.4-.5-1.2-1-2.3-1.4-3.5h0c0,0,13,0,13,0h0Z"/><path class="cls-1" d="m43.2,359.8c-.2,0,0-.3,0-.4v-29.7c0-.4,0-.4.4-.4h23c.2,0,.4-.2.5.2-.2,0-.3.2-.5.4-.4.5-.6.9-1,1.3-1.3,1.6-2.6,3.3-3.9,5-1,1.3-2.1,2.6-3.1,4-1.3,1.6-2.6,3.3-3.9,4.9-1,1.4-2.1,2.6-3.1,4-1.4,1.8-2.8,3.5-4.1,5.3-1,1.3-2,2.5-2.9,3.8s-1,1.2-1.4,1.8h-.2Z"/><path class="cls-44" d="m43.2,359.8c.4-.6.9-1.2,1.3-1.8,1-1.3,2-2.5,2.9-3.8,1.4-1.8,2.8-3.5,4.1-5.3,1-1.4,2.1-2.6,3.1-4,1.3-1.6,2.6-3.3,3.9-5,1-1.3,2.1-2.6,3.1-4,1.3-1.6,2.6-3.3,3.9-5,.4-.5.6-.8,1-1.3,0-.2.2-.3.5-.4v30.3h-23.7Z"/><path class="cls-27" d="m55,362.6h3.9c.4,0,.6,0,.6.5s-.2.5-.6.5h-7.7c-.3,0-.5,0-.6-.5,0-.4,0-.6.5-.6h4Z"/><path d="m53.4,332.5h5.1v23.3h-5.9v-17l-4,1-1.4-5s6.3-2.2,6.3-2.2Z"/><circle class="cls-5" cx="248.3" cy="336.4" r="40.5"/><path d="m217.4,323.9c1.7.5,2.7,2.3,2.2,4.1l-.5,1.3,2.9.9-.6,2.1-9-2.8,1.1-3.4c.5-1.8,2.3-2.7,4-2.2h0Zm-.6,2.1c-.6-.2-1.3,0-1.5.7l-.4,1.4,2.3.7.5-1.4c.2-.6-.2-1.3-.8-1.4Z"/><path d="m223.5,317.6l3.5,2.2-1.1,1.7-3.2-2.1c-.7-.5-1.4-.2-1.7.4-.4.6-.3,1.3.5,1.8l3.2,2-1.1,1.7-8-5,1.1-1.7,2.8,1.8c-.2-.5-.2-1.3.4-2.1.7-1.2,2.2-1.6,3.7-.6h0Z"/><path d="m225,317c-1.3-1.5-1.2-3.7.3-5,1.4-1.3,3.7-1.3,5,.3s1.2,3.7-.3,5c-1.4,1.3-3.7,1.3-5-.3Zm3.8-3.4c-.6-.7-1.5-.7-2.2-.2-.6.6-.7,1.5,0,2.2.6.7,1.5.7,2.2.2.6-.6.7-1.5,0-2.2Z"/><path d="m237,307.8l1.9,3.7-1.8.9-1.7-3.4c-.4-.7-1-.9-1.6-.5s-.9,1-.5,1.8l1.7,3.3-1.8.9-3.1-6,1.8-.9.3.5c0-.6.5-1.2,1.3-1.6,1.3-.6,2.7-.3,3.5,1.3h0Z"/><path d="m242.7,308.9c.5,0,1-.5,1.2-.8l1.8.5c-.5,1-1.3,1.7-2.6,2-2.2.5-4-.7-4.4-2.7s.7-3.8,2.8-4.2c1.9-.4,3.7.8,4,2.8v.8l-4.7,1c.4.6,1.1.7,1.8.6h0Zm.7-2.7c-.4-.7-1-.9-1.6-.7-.7.2-1.2.6-1.3,1.3l2.9-.6Z"/><path d="m247.1,304.9l5.1.2v2l-5.2-.2v-2h0Z"/><path d="m260.9,309c-.6,1.9-2.4,3-4.1,2.4-.9-.3-1.4-.7-1.7-1.3l-.2.6-2-.6,2.8-9,2,.6-1,3.1c.5-.4,1.3-.4,2.2-.2,1.7.5,2.6,2.4,2.1,4.3Zm-2-.6c.3-1-.2-1.8-1.1-2.1s-1.7.2-2,1.1.2,1.8,1.1,2.1,1.7-.2,2-1.1Z"/><path d="m261.9,309.5c1.1-1.7,3.2-2.2,4.9-1.1,1.7,1.1,2.2,3.2,1.1,5-1.1,1.7-3.2,2.2-4.9,1.1-1.7-1.1-2.2-3.2-1.1-4.9Zm4.3,2.8c.5-.8.3-1.7-.4-2.2s-1.6-.3-2.2.5-.3,1.7.5,2.2,1.6.3,2.2-.5Z"/><path d="m278.1,315.5l-7.1,6.2-1.4-1.5.5-.5c-.7,0-1.3-.3-2-1-1.2-1.4-1-3.4.5-4.8,1.5-1.3,3.6-1.3,4.8,0,.6.7.8,1.4.7,2.1l2.5-2.2,1.4,1.5h0Zm-5.9,2.5c.7-.6.8-1.6.2-2.2-.6-.7-1.5-.8-2.3,0s-.8,1.6-.2,2.2c.6.7,1.5.8,2.3,0Z"/><path d="m280.4,325.3l-6.9.8c-2.2.3-3.6-.4-4.3-2.2l1.7-.8c.5.8.9,1.1,1.7,1l4.6-5.3,1,2-3.1,3.2,4.2-.7,1,2h0Z"/><path d="m278.6,333.8c-2.1.4-3.4-.9-3.9-2.6-.4-1.3,0-2.8,1.3-3.7l1.4,1.6c-.5.4-.8.8-.6,1.6.2.9.7,1.2,1.3,1,.5,0,.9-.6.7-1.4v-.5c0,0,.9-1.1.9-1.1l2.5,1.2-.8-3.3,2-.4,1.4,5.9-1.7.4-2.4-1.2c-.2,1.3-.9,2.2-2.2,2.5h0Z"/><path class="cls-11" d="m238.9,366c0-.2-.3,0-.4-.2-2.6-.6-4.3-2.8-4.3-5.5v-33.7c0-2.4,1.2-4.2,3.3-5.3s1.3-.5,1.9-.5h8.8v8.3h-3.3c-2-.2-3.6-1.9-3.7-3.9,0-1-.5-1.5-1.2-1.7-.5,0-.8,0-1.2,0-1.3.5-2.1,1.5-2.1,3.1v34c.2,1.5,1.5,2.6,3,2.5h8.4v2.6h-9.4.2Z"/><path class="cls-29" d="m248.3,329.3v-8.3h9c2.4,0,4.8,2.3,5,4.7v34.7c0,2.7-1.7,5-4.3,5.6-.2,0-.4,0-.5,0h-9.4v-2.6h9.1c1.4-.4,2.3-1.5,2.3-3.1v-33.8c0-1.4-1-2.7-2.4-2.9-1.1-.2-2,.5-2.1,1.5,0,2.3-1.9,4-4.2,4.1h-2.8.2Z"/><path class="cls-23" d="m240,363.4c-1.5,0-2.8-1-3-2.5v-34c0-1.5.7-2.6,2.1-3.1.4-.2.8-.2,1.2,0,.8.2,1.2.7,1.2,1.7,0,2,1.7,3.7,3.7,3.9h3.3v3h-7c-.8,0-1.3.5-1.3,1.3v12.7c0,.8.5,1.4,1.3,1.4h7v3c-.2,0-.5,0-.7,0h-6.4c-.2,0-.5,0-.6,0-.5.4-.8,1-.6,1.5s.7.9,1.3.9h7v3h-6.8c-1,0-1.5.5-1.5,1.5v5.8Z"/><path class="cls-26" d="m240,363.4v-5.6c0-1,.5-1.5,1.5-1.5h6.8v7h-8.4Z"/><path class="cls-18" d="m248.3,332.3v-3h2.8c2.3,0,4.1-1.7,4.2-4.1,0-1.1.9-1.7,2.1-1.5,1.4.3,2.4,1.5,2.4,2.9v33.7c0,1.5-.9,2.7-2.3,3.1h-.6v-5c0-1.6-.4-2.1-2.1-2.1h-6.4v-3h1.4c.6,0,1.3-.5,1.3-1.2s-.4-1.3-1.1-1.3c-.5,0-1.1,0-1.6,0h0v-3h6.8c.9,0,1.5-.6,1.5-1.5v-12.2c0-4-.5-1.6-1.6-1.6h-6.8Zm7,21c.7,0,1.4-.5,1.4-1.3s-.5-1.4-1.3-1.4h0c-.6,0-1.4.7-1.3,1.4,0,.5.4,1.3,1.3,1.3h0Z"/><path class="cls-30" d="m248.3,356.3h6.4c1.7,0,2.1.4,2.1,2.1v5h-8.5v-7h0Z"/><path class="cls-51" d="m248.3,332.3h6.8c1.1,0,1.6.5,1.6,1.6v12.2c0,.9-.6,1.5-1.5,1.5h-6.8v-15.3h0Z"/><path class="cls-21" d="m248.3,332.3v15.3h-7c-.8,0-1.4-.5-1.4-1.4v-12.7c0-.8.5-1.3,1.4-1.3h7Z"/><path class="cls-36" d="m248.3,353.3h-7c-.6,0-1.2-.4-1.4-.9s0-1.2.6-1.5c.2,0,.4,0,.6,0h7.1v2.6h0Z"/><path class="cls-14" d="m248.3,353.2v-2.6h1.6c.6.2,1.1.7,1.1,1.4s-.6,1.2-1.3,1.2h-1.4Z"/><path class="cls-47" d="m255.4,353.2c-.9,0-1.3-.7-1.3-1.3s.7-1.4,1.3-1.4,1.4.6,1.3,1.4h0c0,.7-.5,1.3-1.4,1.3Z"/><path d="m251.4,343.8c1.5.5,2.7,1.3,3.6,2.4s1.4,2.5,1.4,4.1c0,2.5-.8,4.4-2.4,5.8-1.6,1.4-3.7,2.1-6.1,2.1s-3.7-.5-5.1-1.3-2.6-2.2-3.2-4l5.2-3c.5,1.6,1.5,2.4,3.2,2.4s1.5-.2,2-.6c.5-.4.7-.9.7-1.6s-.3-1.2-.7-1.6c-.5-.4-1.1-.5-2-.5h-1.3l-2.3-3.4,3.7-4.6h-7.8v-5.7h15.1v4.7l-3.9,4.8h0Z"/><circle class="cls-5" cx="151.7" cy="336.4" r="40.5"/><path d="m121.6,322.4c1.7.6,2.5,2.5,1.9,4.2l-.5,1.4,2.8,1.1-.7,2-8.8-3.3,1.3-3.3c.6-1.7,2.5-2.6,4.2-2h0Zm-.7,2c-.6-.3-1.4,0-1.5.6l-.5,1.3,2.2.8.5-1.3c.3-.6,0-1.3-.7-1.5h0Z"/><path d="m128.1,316.5l3.3,2.4-1.2,1.6-3.1-2.2c-.7-.5-1.3-.3-1.7.3-.5.6-.4,1.3.4,1.8l3,2.2-1.2,1.6-7.6-5.6,1.2-1.6,2.7,2c-.2-.6,0-1.4.5-2.1.8-1.1,2.2-1.4,3.8-.5h0Z"/><path d="m129.7,315.9c-1.3-1.5-1-3.8.5-5s3.8-1,5,.5,1,3.8-.5,5-3.8,1-5-.5Zm4-3.2c-.6-.7-1.5-.8-2.2-.3s-.8,1.4-.2,2.2c.6.7,1.5.8,2.2.3s.8-1.4.2-2.2Z"/><path d="m142.1,307.4l1.6,3.8-1.9.8-1.5-3.5c-.4-.8-1-.9-1.5-.6-.7.3-1,.9-.6,1.8l1.4,3.4-1.9.8-2.7-6.2,1.9-.8.3.5c0-.6.6-1.2,1.4-1.5,1.3-.5,2.7,0,3.4,1.5h0Z"/><path d="m147.7,308.9c.5,0,1-.4,1.2-.7l1.7.7c-.5,1-1.4,1.6-2.7,1.8-2.2.4-4-1-4.2-3s.9-3.8,3.1-4c2-.3,3.6,1,3.9,3.1v.8l-4.8.7c.4.6,1,.8,1.7.7h.2Zm.9-2.6c-.4-.7-1-.9-1.5-.8-.7,0-1.2.5-1.3,1.3l2.9-.5h0Z"/><path d="m152.4,305.2l5.1.5-.2,2-5.1-.5.2-1.9h0Z"/><path d="m166,310.1c-.7,1.9-2.6,2.9-4.2,2.2-.8-.3-1.3-.8-1.6-1.4l-.2.6-1.9-.7,3.2-8.8,1.9.7-1.2,3.1c.6-.4,1.3-.4,2.2,0,1.6.6,2.5,2.6,1.8,4.5v-.3Zm-1.9-.7c.4-1,0-1.8-.9-2.1-.9-.4-1.7,0-2.1,1-.4,1,0,1.8.9,2.1.9.4,1.7,0,2.1-1Z"/><path d="m167,310.7c1.2-1.6,3.4-1.9,5-.7s2,3.3.8,5c-1.2,1.6-3.4,1.9-5,.7-1.6-1.2-2-3.3-.8-5Zm4.1,3.1c.5-.8.4-1.7-.3-2.2-.7-.5-1.6-.5-2.2.4s-.4,1.7.3,2.2c.7.5,1.6.5,2.2-.4Z"/><path d="m182.8,317.7l-7.5,5.8-1.3-1.6.5-.4c-.7,0-1.3-.4-1.9-1.1-1.1-1.3-.7-3.5.8-4.8,1.6-1.3,3.7-1.1,4.8.4.5.7.7,1.4.6,2.1l2.6-2.1,1.3,1.6Zm-6,2.2c.8-.6.9-1.5.3-2.2-.5-.7-1.5-.9-2.2-.3-.8.6-.9,1.5-.3,2.2.5.7,1.5.9,2.2.3Z"/><path d="m184.5,327.6l-6.9.5c-2.2.2-3.5-.6-4.1-2.4l1.7-.7c.4.9.8,1.2,1.7,1.1l4.9-5,.9,2.1-3.2,3,4.3-.4.8,2h0Z"/><path d="m179.7,329.7l3.8,2.6c.6.4,1.3.8,1.8.7.6,0,.9-.5.8-1.2s-.6-1.1-1.3-1.2l.7-2c1.4.4,2.3,1.5,2.5,2.8.3,1.7-.6,3.3-2.4,3.6-1.1.2-2.2-.3-3.2-1l-1.8-1.3.5,3.2-2.1.4-1-6.4,1.5-.3Z"/><path class="cls-43" d="m156.5,322.2h5.5c1.5,0,3,1.4,3.1,3v37.3c0,1.7-.8,2.9-2.2,3.4-.4,0-.7.2-1,.2h-20.3c-1.8,0-3.3-1.5-3.3-3.3v-3.6h1.6v3.6c0,1.1.7,1.7,1.8,1.7h20c1.1,0,1.8-.7,1.8-1.8v-36.9c0-1.1-.7-1.8-1.7-1.8h-4.1c0-.7-.6-1.2-1-1.7Z"/><path class="cls-10" d="m156.5,322.2c.4.5.9,1,1,1.6h-15.6c-1.5,0-2.2.6-2.2,2.2v33h-1.6v-33.2c0-1.5.6-2.7,2.1-3.3.4-.2.7-.3,1.2-.3h15.2,0Z"/><path class="cls-56" d="m139.8,359.1v-33c0-1.5.6-2.2,2.2-2.2h15.7v32.4c0,1.5-1.2,2.8-2.7,2.8h-15.1Zm11.8-30.2h3.2c1,0,1.8-.7,1.8-1.6s-.7-1.7-1.8-1.7h-6.5c-1,0-1.8.7-1.8,1.6s.7,1.7,1.8,1.7h3.2Zm-3.8,20.6c.2,0,.5-.2.5-.3l8.3-8.3c.2-.2.4-.5.3-.7s-.2-.5-.5-.6c-.4,0-.7,0-1,.3-2.7,2.7-5.5,5.5-8.2,8.2l-.2.2c-.2.3-.2.5,0,.8.2.3.5.5.8.5h0Zm5.1-10c0-.4-.3-.6-.5-.8-.4-.2-.7,0-1,.4l-4.9,4.9c-.5.5-.5,1,0,1.3s.9.4,1.3,0c1.7-1.6,3.3-3.3,5-5,.2-.2.3-.4.4-.6h0l-.2-.2Z"/><path class="cls-35" d="m139.9,359.1h15c1.6,0,2.7-1.2,2.7-2.8v-32.4h4.1c1.1,0,1.7.7,1.7,1.8v36.9c0,1.1-.7,1.8-1.8,1.8h-20c-1,0-1.7-.6-1.8-1.7v-3.6h0Zm11.8,2.8h-4.9c-.6,0-1.1.3-1.1.8s.4.9,1,.9h9.7c.6,0,1.1-.4,1-.8s-.4-.8-1.1-.8h-4.9.2Z"/><path class="cls-31" d="m151.6,328.9h-3.2c-1.1,0-1.8-.7-1.8-1.7s.7-1.6,1.8-1.6h6.5c1.1,0,1.8.7,1.8,1.7s-.8,1.6-1.8,1.6h-3.2Z"/><path class="cls-28" d="m147.8,349.5c-.4,0-.6-.2-.8-.5-.2-.3,0-.6,0-.8l.2-.2c2.7-2.7,5.5-5.5,8.2-8.2.3-.3.6-.4,1-.3.4,0,.5.4.5.6s0,.5-.3.7l-8.3,8.3c-.2.2-.4.3-.5.3Z"/><path class="cls-17" d="m151.6,361.8h4.9c.6,0,1.1.3,1.1.8s-.4.8-1,.8h-9.7c-.6,0-1.1-.4-1-.9s.4-.8,1.1-.8h4.9-.2Z"/><path d="m143,356.5v-4.3l7.7-8.2c.8-.8,1.3-1.5,1.7-2.1s.5-1.1.5-1.5-.2-1.1-.5-1.4-.9-.5-1.5-.5c-1.3,0-2.4.8-3.2,2.4l-5.1-2.9c.7-1.7,1.9-3.1,3.3-4,1.4-.9,3.1-1.4,4.9-1.4s4.1.6,5.7,2c1.6,1.3,2.3,3.2,2.3,5.4s-.4,2.6-1,3.8c-.6,1.2-1.5,2.3-2.8,3.6l-3.1,3.3h7.3v5.8h-16.3,0Z"/><circle class="cls-5" cx="345" cy="336.4" r="40.5"/><path class="cls-19" d="m345,322.5h9.9c1.7,0,3.3,1.5,3.5,3.2v37.2c0,2-1.1,3.5-2.9,4-.2,0-.4,0-.5.2h-10.2v-2.6h9.2c1.2,0,1.6-.5,1.6-1.6v-36.2c0-1.2-.5-1.6-1.6-1.6h-9.2v-2.6h0Z"/><path class="cls-22" d="m345,322.5v2.6h-9.5c-.4,0-.6.2-.9.4-.4.4-.5.8-.5,1.3v36.4c0,.8.5,1.3,1.4,1.3h9.5v2.6h-10.3c0,0-.2,0-.3-.2-1.8-.5-2.8-1.8-3-3.7v-36.5c0-2,1-3.4,2.6-4,.4,0,.7-.2,1.1-.2h9.8Z"/><path class="cls-16" d="m345,325.1h9.2c1.2,0,1.6.5,1.6,1.6v36.1c0,1.2-.5,1.6-1.6,1.6h-9.2v-2.8h3.7c.7,0,1.3-.5,1.3-1.3s-.5-1.3-1.4-1.3h-3.5v-7c.9,0,1.3-.5,1.3-1.4v-11.6c0-.9-.5-1.3-1.3-1.4v-7.3h1.7c.8,0,1.3-.7,1.4-1.3,0-.7-.6-1.3-1.4-1.3h-1.7v-2.5h0Zm3.8,19.6v2.4c0,.8.5,1.3,1.3,1.3s1.4-.5,1.4-1.3h0v-4.9c0-.7-.6-1.3-1.4-1.3h0c-.7,0-1.3.6-1.3,1.4v2.3h0v-.2Z"/><path class="cls-12" d="m345,325.1v2.5h-1.8c-.7,0-1.4.6-1.4,1.3s.6,1.3,1.4,1.3h1.7v7.3h0c-.8,0-1.3.5-1.3,1.3v11.8c0,.8.5,1.3,1.3,1.3h0v7h-3.5c-.8,0-1.4.5-1.4,1.3s.6,1.3,1.4,1.3h3.5v2.8h-9.4c-.8,0-1.4-.5-1.4-1.3v-36.4c0-.4,0-.9.5-1.3.3-.3.5-.4.9-.4h9.6Zm-3.8,19.7v-2.5c0-.2,0-.5-.2-.5-.3-.5-.9-.8-1.3-.6-.7.2-1.1.6-1.1,1.4v4.8c0,.7.6,1.3,1.4,1.3s1.3-.5,1.3-1.4v-2.3Z"/><path class="cls-13" d="m345,337.6c.9,0,1.3.5,1.3,1.4v11.6c0,.9-.4,1.4-1.3,1.4h0v-14.5h0Z"/><path class="cls-39" d="m348.8,344.8v-2.3c0-.8.5-1.4,1.3-1.4.7,0,1.4.5,1.4,1.3h0v4.9c0,.7-.6,1.3-1.4,1.3h0c-.7,0-1.3-.6-1.3-1.4v-2.4h0v.2Z"/><path class="cls-53" d="m345,359.1h3.5c.9,0,1.4.5,1.4,1.3s-.5,1.3-1.3,1.3h-3.7v-2.6h0Z"/><path class="cls-53" d="m345,327.7h1.7c.7,0,1.4.6,1.4,1.3s-.6,1.4-1.4,1.3h-1.7v-2.6h0Z"/><path class="cls-38" d="m345,337.6v14.5c-.8,0-1.3-.5-1.3-1.3v-11.8c0-.8.5-1.3,1.3-1.4Z"/><path class="cls-49" d="m341.2,344.9v2.3c0,.8-.4,1.3-1.3,1.4-.6,0-1.4-.5-1.4-1.3v-4.8c0-.7.5-1.2,1.1-1.3.5,0,1.1.2,1.4.6,0,.2.2.4.2.5v2.5Z"/><path class="cls-24" d="m345,359.1v2.6h-3.5c-.8,0-1.4-.5-1.4-1.3s.6-1.3,1.4-1.3h3.5Z"/><path class="cls-24" d="m345,327.7v2.6h-1.7c-.8,0-1.3-.5-1.3-1.3s.6-1.3,1.3-1.3h1.8,0Z"/><path d="m315.3,322.6c1.6.6,2.4,2.5,1.8,4.3l-.5,1.3,2.8,1.1-.8,2-8.7-3.5,1.3-3.3c.7-1.7,2.6-2.5,4.2-1.9h0Zm-.8,2c-.6-.3-1.3,0-1.5.6l-.5,1.3,2.2.9.5-1.4c.3-.6,0-1.3-.7-1.5Z"/><path d="m322,317l3.3,2.5-1.3,1.6-3.1-2.3c-.6-.5-1.3-.4-1.7.2-.5.6-.5,1.3.4,1.8l3,2.2-1.3,1.6-7.5-5.8,1.3-1.6,2.6,2c-.2-.6,0-1.4.5-2.1.8-1.1,2.3-1.4,3.8-.3h0Z"/><path d="m323.5,316.4c-1.3-1.6-.9-3.8.7-5,1.6-1.2,3.8-.9,5,.6,1.3,1.6.9,3.8-.7,5-1.6,1.2-3.8.9-5-.6Zm4.1-3.2c-.5-.7-1.5-.9-2.2-.4s-.8,1.4-.3,2.2c.5.7,1.5.9,2.2.4.7-.5.8-1.4.3-2.2Z"/><path d="m336.2,308.3l1.5,3.9-1.9.7-1.4-3.6c-.4-.8-1-.9-1.5-.7-.7.3-1,.9-.6,1.8l1.3,3.4-1.9.7-2.5-6.3,1.9-.7.3.6c.2-.6.6-1.2,1.4-1.5,1.3-.5,2.7,0,3.4,1.6h0Z"/><path d="m341.8,309.9c.5,0,1-.4,1.3-.6l1.7.7c-.5,1-1.4,1.6-2.8,1.7-2.2.3-3.9-1.1-4.1-3.1-.3-2,1-3.7,3.2-4,2-.3,3.6,1.1,3.9,3.2v.8l-4.8.5c.4.6,1,.8,1.7.7Zm.9-2.6c-.3-.7-.9-1-1.5-.9-.7,0-1.3.5-1.3,1.3l2.9-.4Z"/><path d="m346.5,306.2l5.1.6-.3,1.9-5.1-.6.3-1.9Z"/><path d="m360,311.6c-.7,1.9-2.7,2.8-4.3,2.1-.8-.4-1.4-.9-1.5-1.5l-.3.6-1.9-.7,3.5-8.8,1.9.7-1.3,3.1c.6-.3,1.4-.4,2.2,0,1.6.6,2.4,2.6,1.7,4.5h0Zm-1.9-.7c.4-.9,0-1.8-.9-2.2s-1.7,0-2.1.9c-.4.9,0,1.8.9,2.2s1.7,0,2.1-.9Z"/><path d="m360.9,312.2c1.3-1.6,3.4-1.8,5-.6,1.5,1.2,1.9,3.4.6,5-1.3,1.6-3.4,1.8-5,.6-1.5-1.2-1.9-3.4-.6-5Zm4,3.2c.6-.7.5-1.7-.3-2.2s-1.6-.5-2.2.3c-.6.7-.5,1.7.3,2.2s1.6.5,2.2-.3Z"/><path d="m376.6,319.6l-7.6,5.6-1.2-1.6.5-.4c-.7,0-1.4-.4-1.9-1.2-1.1-1.4-.6-3.5,1-4.7,1.6-1.2,3.7-1,4.8.4.5.7.7,1.4.5,2.1l2.7-2,1.2,1.6h0Zm-6.1,2c.8-.6.9-1.5.4-2.2s-1.4-.9-2.2-.3c-.8.6-.9,1.5-.4,2.2s1.4.9,2.2.3Z"/><path d="m378,329.6l-6.9.3c-2.2,0-3.5-.7-4.1-2.5l1.8-.7c.4.9.8,1.2,1.6,1.2l5-4.9.8,2.1-3.3,2.9,4.3-.4.8,2h0Z"/><path d="m374.1,338.9v-.9c0,0-1.6.2-1.6.2l-.3-2.2,1.5-.2-.5-4.2,2-.3,6.3,2.2.3,2.3-6.3-2.2.3,2,2-.3.3,2.2-2,.3v.9c0,0-1.9.3-1.9.3h0Z"/><path d="m354.2,345.9v5.4h-2.3v3.6h-5.9v-3.6h-10.3v-5.5l6.9-14.2h6.6l-7,14.3h3.7v-4.2h5.9v4.2h2.4Z"/><line class="cls-2" x1="196.6" y1="252.6" x2="196.5" y2="271.2"/><line class="cls-2" x1="59" y1="270.7" x2="341" y2="270.7"/><line class="cls-6" x1="59.5" y1="270.5" x2="59.5" y2="279.8"/><polygon class="cls-52" points="53 277.9 59.5 289.1 66 277.9 53 277.9"/><line class="cls-6" x1="153.1" y1="270.5" x2="153.1" y2="279.8"/><polygon class="cls-52" points="146.7 277.9 153.1 289.1 159.6 277.9 146.7 277.9"/><line class="cls-6" x1="246.8" y1="270.5" x2="246.8" y2="279.8"/><polygon class="cls-52" points="240.3 277.9 246.8 289.1 253.3 277.9 240.3 277.9"/><line class="cls-6" x1="340.5" y1="270.5" x2="340.5" y2="279.8"/><polygon class="cls-52" points="334 277.9 340.5 289.1 347 277.9 334 277.9"/></svg>