<?xml version="1.0" encoding="UTF-8"?><svg id="Layer_1" xmlns="http://www.w3.org/2000/svg" viewBox="0 0 400 400"><defs><style>.cls-1{fill:#a7cefe;}.cls-2{stroke:#a5262d;}.cls-2,.cls-3,.cls-4{stroke-width:4px;}.cls-2,.cls-3,.cls-4,.cls-5{stroke-miterlimit:10;}.cls-2,.cls-3,.cls-4,.cls-5,.cls-6{fill:none;}.cls-3{stroke:#0018c6;}.cls-7{fill:#d1d1d1;}.cls-4{stroke:#c000e2;}.cls-8{fill:#bacce9;}.cls-9{fill:#c7c7c7;}.cls-10{fill:#717f8f;}.cls-11{fill:#bdbdbd;}.cls-12{fill:#333;}.cls-13{fill:#ecf5fe;}.cls-5{stroke:#231f20;stroke-width:2px;}.cls-14{fill:#199dbc;}.cls-15{fill:#b9cce9;}.cls-16{fill:#aaa;}.cls-17{fill:#728090;}.cls-18{fill:#484645;}.cls-19{fill:#b6d6fd;}.cls-20{fill:#b3b3b3;}.cls-21{fill:#3f4a5b;}.cls-22{fill:#d7e1f2;}.cls-23{fill:#231f20;}</style></defs><line class="cls-6" x1="154.7" y1="118.9" x2="188.3" y2="146.1"/><line class="cls-5" x1="154.7" y1="118.9" x2="180" y2="139.3"/><polygon class="cls-23" points="173.5 143.8 188.3 146.1 183 132.1 173.5 143.8"/><line class="cls-6" x1="245.3" y1="118.9" x2="211.7" y2="146.1"/><line class="cls-5" x1="245.3" y1="118.9" x2="220.1" y2="139.3"/><polygon class="cls-23" points="217.1 132.1 211.7 146.1 226.5 143.8 217.1 132.1"/><circle class="cls-2" cx="118" cy="64.2" r="45"/><rect class="cls-20" x="92" y="54.2" width="52" height="37" rx="2.9" ry="2.9"/><path class="cls-18" d="m118.8,84.5l-1.1-3.4h-8l-1,3.4h-6.5l7.5-23.6h7.6l7.8,23.6h-6.3Zm-7.6-8.6h4.8l-2.4-8-2.4,8Z"/><path class="cls-18" d="m126.5,84.5v-24.7h5.6v24.7h-5.6Z"/><path d="m94.1,42.9l-2.4,3.1,1,1.4-1.6,2.1-6.1-9.3,1.9-2.4,10.5,3.7-1.6,2.1-1.6-.6h-.1Zm-2.2-.8l-3.8-1.4,2.3,3.3,1.5-1.9Z"/><path d="m90.8,33.1l1.7-1.4,7,8.4-1.7,1.4-7-8.4Z"/><path d="m103,29.3l3.6,6.6-2,1.1-.3-.6c-.1.8-.6,1.5-1.4,1.8-1.3.7-3,.3-3.8-1.1,0-.1-.1-.2-.1-.3l-2.2-4,2-1.1,2,3.8c.3.6,1.1.9,1.7.6,0,0,0,0,0,0,.7-.3.9-1.1.6-1.8,0,0,0-.1-.1-.2l-2-3.6,2-1.1h-.1Z"/><path d="m117.6,28.8l.8,4.5-2.2.4-.8-4.3c0-.6-.5-1.1-1.1-1,0,0-.1,0-.2,0-.7,0-1.1.7-.9,1.6l.7,4.2-2.2.4-.8-4.3c0-.6-.5-1.1-1.1-1,0,0-.1,0-.2,0-.7,0-1.1.7-.9,1.6l.7,4.2-2.2.4-1.3-7.4,2.2-.4v.7c.4-.7,1.1-1.1,1.9-1.2.8-.2,1.6,0,2.1.6.4-.8,1.1-1.3,2-1.4,1.7-.3,3,.7,3.3,2.6l.2-.2Z"/><path d="m119.9,26.4l2.2.2-.6,7.5-2.2-.2.6-7.5Zm0-2c0-.7.8-1.3,1.5-1.2.7,0,1.3.8,1.2,1.5s-.8,1.3-1.5,1.2c0,0,0,0,0,0-.7,0-1.3-.7-1.2-1.4,0,0,0,0,0-.1Z"/><path d="m130.9,31.5l-1.2,4.4-2.2-.6,1.1-4.1c.2-.7-.1-1.4-.8-1.7,0,0,0,0-.1,0-.7-.3-1.5,0-1.7.8,0,.1,0,.2,0,.3l-1.1,3.9-2.2-.6,2-7.2,2.2.6-.2.7c.7-.5,1.5-.6,2.3-.3,1.5.4,2.4,1.9,2,3.4,0,.1,0,.2,0,.3h0Z"/><path d="m140.5,33.5l-3.8,6.4-1.9-1.2.4-.6c-.8.3-1.6.2-2.3-.3-1.3-.8-1.8-2.5-1-3.8,0-.1.1-.2.2-.3l2.4-4,1.9,1.2-2.2,3.7c-.4.5-.3,1.2.2,1.6,0,0,.2.1.2.2.6.4,1.5.2,1.9-.4,0,0,0-.1.1-.2l2.1-3.5,1.9,1.2h0Z"/><path d="m148.3,45.8l-3.5,3-1.5-1.7,3.4-2.9c.6-.5.7-1.1.2-1.6-.4-.5-1.2-.6-1.7-.1,0,0,0,0-.1.1l-3.2,2.7-1.5-1.7,3.4-2.9c.6-.5.7-1.1.2-1.6-.4-.5-1.2-.6-1.7-.1,0,0,0,0-.1.1l-3.2,2.7-1.5-1.7,5.7-4.9,1.5,1.7-.5.4c.8,0,1.5.3,2,.9.5.6.7,1.4.5,2.1.8,0,1.7.3,2.2,1,1,1.2.9,3-.3,4,0,0-.1.1-.2.2v.3Z"/><circle class="cls-2" cx="282" cy="64.2" r="45" transform="translate(173.4 332.2) rotate(-80.8)"/><path d="m262.4,35c1.6,2,1.2,4.9-.8,6.5l-1.6,1.2,2.6,3.3-2.4,1.9-8.3-10.4,3.9-3.1c2-1.6,4.9-1.3,6.5.7,0,0,0,0,0,0h.1Zm-2.4,1.9c-.5-.7-1.4-.9-2.1-.4,0,0-.1,0-.2.1l-1.6,1.2,2.1,2.7,1.6-1.2c.7-.6.8-1.6.2-2.3,0,0,0,0,0,0h0Z"/><path d="m262.8,29.3l2.6-1.2,5.8,12.6-2.6,1.2-5.8-12.6Z"/><path d="m280.2,28.8l1.7,9.4-2.8.5-.2-.9c-.6.9-1.5,1.5-2.6,1.6-2.6.4-5-1.5-5.4-4.1,0,0,0,0,0,0-.6-2.5.9-5,3.4-5.7,0,0,.1,0,.2,0,1-.2,2.1,0,3,.6l-.2-.9,2.8-.5h0Zm-2,5.2c-.1-1.2-1.2-2.1-2.4-1.9,0,0-.1,0-.2,0-1.2.1-2,1.2-1.9,2.4,0,.1,0,.2,0,.3.1,1.2,1.2,2.1,2.4,1.9,0,0,.1,0,.2,0,1.2-.1,2-1.2,1.9-2.4,0-.1,0-.2,0-.3Z"/><path d="m290.7,36.5c-.3,2.2-2.3,2.9-4.3,2.6-1.7,0-3.2-1.2-3.8-2.8l2.6-1.1c.1.7.8,1.3,1.5,1.3.7,0,1,0,1.1-.5.1-1-4.6-1.1-4.2-4.3.3-2.1,2.1-2.9,4.1-2.6,1.5.1,2.8,1.1,3.4,2.5l-2.6,1c-.2-.5-.6-.9-1.2-1-.5,0-.8,0-.9.4-.1,1.1,4.6,1,4.1,4.4h.2Z"/><path d="m296.4,34.5l-1.2,3.1c-.3.8.3,1.1,1.5,1.5l-.9,2.4c-3.6-1-4.2-2.4-3.3-4.9l1.2-3.2-1.4-.5,1-2.6,1.4.5.6-1.7,3,.2-.9,2.5,1.8.7-1,2.6-1.8-.7h0Z"/><path d="m301.7,33.9l2.4,1.5-4.9,8.2-2.4-1.5,4.9-8.2Zm1.1-2.3c.5-.8,1.5-1.1,2.3-.6s1.1,1.5.6,2.3c-.5.8-1.5,1.1-2.3.6-.8-.5-1.1-1.5-.6-2.3,0,0,0,0,0,0h0Z"/><path d="m303.4,40.4c1.8-2,4.9-2.2,6.9-.4,0,0,.2.1.2.2,1.3,1.2,1.8,3,1.4,4.7l-2.8-.7c.2-.7,0-1.5-.6-2-.9-.8-2.3-.7-3.1.2-.8.9-.7,2.2,0,3,.5.6,1.4.8,2.1.5l.8,2.7c-1.7.5-3.5,0-4.8-1.2-2-1.9-2.1-5.1-.2-7.1,0,0,0,0,0,0h.1Z"/><path class="cls-22" d="m305.3,60.4h0c0,0-1.6,0-1.6,0q-.7,0-.7.7v30.3c0,.4-.1.9-.4,1.2-.2.2-.5.2-.7.4h-10.7c0,0,0-.2,0-.3l-1.3-5.3c-.7-3.1-1.4-6.2-2.1-9.3-1.1-4.5-2.1-9.1-3.2-13.6-.9-4-1.8-8-2.8-11.9h15c.2,0,.5,0,.6.2v6.2c0,.7.6,1.3,1.3,1.4h3.8c.3,0,.4,0,.4-.4v-1.8c.1,0,.2.1.2.2l2,2Z"/><path class="cls-15" d="m305.3,92.1c-.4.8-1.3,1.3-2.1,1.1h-1.2c.2-.2.5-.2.7-.4.3-.3.4-.8.4-1.2v-30.4q0-.7.7-.7h1.6v31.6Z"/><path class="cls-11" d="m261.7,52.6v-.9c-.2-.9.3-1.7,1.1-2.1h2c0,0,0,.2.1.2.6.4.9,1.1.8,1.8,0,.4,0,.7,0,1.1h-4Z"/><path class="cls-16" d="m265.7,52.6v-1.1c.1-.7-.2-1.4-.8-1.8,0,0-.1-.1-.1-.2h2c.9.4,1.4,1.4,1.2,2.3v.8h-2.3Z"/><path class="cls-13" d="m291.3,93.2h-6.2c0,0,0-.1,0-.2l-1.8-8-3.2-13.7c-1.1-4.6-2.1-9.2-3.2-13.9-.4-1.6-.7-3.2-1.1-4.8h6.2c.9,4,1.8,8,2.7,11.9,1.1,4.6,2.1,9.1,3.2,13.6.7,3.1,1.4,6.2,2.1,9.3.4,1.8.8,3.6,1.2,5.4,0,.1,0,.2,0,.3Z"/><path class="cls-13" d="m297.6,52.8c.1,0,.3,0,.3.2l5,5v.2c.1.6.1,1.2.1,1.8s-.1.4-.4.4h-3.8c-.7,0-1.3-.7-1.3-1.4v-6.2Z"/><path class="cls-22" d="m275.7,52.6c.4,1.6.7,3.2,1.1,4.8,1.1,4.6,2.1,9.3,3.2,13.9,1.1,4.6,2.1,9.2,3.2,13.7l1.8,8c0,0,0,.1,0,.2h-14.1v-3c0-.5-.3-.8-.7-.8s-.8.3-.8.8v3h-9.2c-1,0-1.7-.7-1.8-1.7,0,0,0,0,0,0v-37.1c0-.9.8-1.7,1.7-1.7,0,0,0,0,0,0,.5,0,.9,0,1.4,0h7.9v3c0,.5.3.8.7.8s.8-.3.8-.8v-3h4.7Zm-4.8,20.3v-1.6c0-.4-.3-.7-.7-.7s-.7.3-.7.7v3c0,.4.2.7.6.8,0,0,0,0,.1,0,.4,0,.7-.3.7-.7,0,0,0,0,0,0v-1.4Zm-1.5,6.1v1.6c0,.4.3.7.7.7s.7-.3.7-.7v-3.1c0-.4-.4-.7-.8-.8-.4,0-.7.3-.7.7,0,0,0,0,0,0v1.5h0Zm0-12.4v1.5c0,.4.3.8.7.8.4,0,.7-.4.8-.8v-2.9c0-.5-.3-.8-.7-.8s-.7.3-.7.8,0,1,0,1.5h0Zm0-6.3v1.5c0,.4.2.7.6.8,0,0,0,0,.1,0,.4,0,.7-.3.7-.7,0,0,0,0,0-.1v-2.9c0-.4-.2-.7-.6-.8,0,0,0,0-.1,0-.5,0-.7.3-.7.8v1.4h0Zm1.5,25v-1.5c0-.5-.3-.8-.7-.8-.4,0-.7.3-.7.7,0,0,0,0,0,.1v2.9c0,.4.2.7.6.8,0,0,0,0,.1,0,.5,0,.7-.3.7-.8s0-.9,0-1.4h0Z"/><path class="cls-15" d="m271,52.7v3c0,.5-.3.8-.8.8s-.7-.3-.7-.8v-3h1.5Z"/><path class="cls-11" d="m261.8,93.2h3.9v1.2c.1.8-.4,1.6-1.2,1.9h-1.2c-.8,0-1.6-.6-1.6-1.5,0,0,0,0,0-.1v-1.4h0Z"/><path class="cls-16" d="m264.5,96.3c.8-.3,1.3-1.1,1.2-1.9v-1.2h2.3c0,.6,0,1.2,0,1.8-.1.8-.8,1.3-1.6,1.3h-1.8Z"/><path class="cls-15" d="m269.5,93.2v-3c0-.5.3-.8.8-.8s.7.3.7.8v3h-1.5Z"/><path class="cls-9" d="m261.8,52.6h-.1s0,0,0,0h.1Z"/><path class="cls-9" d="m261.8,93.2h0c0,0,0,0,0,0h0Z"/><path class="cls-8" d="m271,73v1.4c0,.4-.3.7-.7.7s-.7-.3-.7-.7v-3c0-.4.2-.7.6-.8,0,0,0,0,0,0,.4,0,.7.3.8.7,0,0,0,0,0,.1v1.6Z"/><path class="cls-15" d="m269.5,79.1v-1.5c0-.4.3-.7.6-.7,0,0,0,0,0,0,.4,0,.7.3.8.8v3.1c0,.4-.2.8-.6.8-.4,0-.8-.2-.8-.6,0,0,0-.1,0-.2,0-.5,0-1,0-1.6Z"/><path class="cls-15" d="m269.5,66.7v-1.5c0-.5.3-.8.7-.8s.7.3.7.8v2.9c0,.4-.3.8-.7.8-.4,0-.7-.4-.7-.8,0,0,0,0,0,0,0-.5,0-1,0-1.5Z"/><path class="cls-15" d="m269.5,60.4v-1.4c0-.5.3-.8.7-.8.4,0,.7.3.7.6,0,0,0,0,0,.1v2.9c0,.4-.2.7-.6.8,0,0,0,0-.1,0-.4,0-.7-.3-.7-.8s0-1,0-1.5Z"/><path class="cls-15" d="m271,85.4v1.4c0,.5-.3.8-.7.8-.4,0-.7-.3-.7-.7,0,0,0,0,0-.1v-2.9c0-.4.2-.7.6-.8,0,0,0,0,.1,0,.5,0,.7.3.7.8v1.5Z"/><circle class="cls-3" cx="200" cy="200.5" r="45"/><path class="cls-14" d="m190.2,237.9c-.2-.2-.4-.2-.7-.2-3.9-.9-6.5-4.4-6.4-8.4v-40.1c-.1-3.4,1.8-6.4,4.9-7.8,1.1-.5,2.3-.8,3.5-.8h17.2c4.6,0,8.4,3.6,8.4,8.2,0,0,0,.1,0,.2v40.4c0,4-2.8,7.5-6.7,8.2-.3,0-.5,0-.7.2h-19.5Zm9.8-33.1h11.4c1.3,0,1.8-.6,1.8-1.8v-15.1c.2-.9-.5-1.7-1.4-1.9-.2,0-.4,0-.5,0h-22.6c-.9-.2-1.7.5-1.9,1.4,0,.2,0,.4,0,.5v15c0,1.3.5,1.9,1.9,1.9h11.3Zm3.5,7.4c0-1.9-1.5-3.4-3.3-3.4,0,0,0,0,0,0-1.9,0-3.5,1.6-3.5,3.5,0,1.9,1.6,3.4,3.5,3.4,1.9,0,3.5-1.6,3.5-3.5h-.1Zm4.8-.2v1.9c0,.4.2.8.7.9,0,0,.1,0,.2,0h2.9c.4,0,.8-.2.9-.7,0,0,0-.1,0-.2v-3.9c0-.4-.2-.8-.7-.9,0,0-.1,0-.2,0h-2.9c-.4,0-.8.2-.9.7,0,0,0,.1,0,.2v2Zm-21.2.3v2c0,.4.2.8.7.9,0,0,.1,0,.2,0h2.9c.6,0,.9-.3.9-.8v-4c0-.5-.3-.9-.8-.9h-3c-.6,0-.8.3-.9.9v1.9h0Zm23,14.6h1.9c.6,0,.9-.4.9-1,0-1.4-.1-1.9-.8-2h-3.9c-.5,0-.9.3-.9.8,0,0,0,0,0,.1v1.2c0,.6.3.9,1,.9h1.8Zm-20.3,5.7h.9c1.9,0,1.9-.4,1.9-1.9s-.3-1.1-1.1-1.1h-2.5c-2.1,0-2,.3-1.9,2.1,0,.5.4,1,.9,1,0,0,0,0,.1,0h1.8-.1Zm10.3-5.7h1.7c.8,0,1.1-.3,1.2-1.1v-.8c0-.8-.3-1.1-1.1-1.1h-2.5c-2.2,0-2,.4-2,2.1,0,.5.3.9.8,1,0,0,.1,0,.2,0h1.8,0Zm0,2.6h-1.9c-.4,0-.8.2-.9.7,0,0,0,.1,0,.2v1.1c0,.5.3,1,.9,1.1,0,0,.1,0,.2,0h2.6c2.1,0,2-.4,2-2.1,0-.5-.3-.9-.8-1,0,0-.1,0-.2,0h-1.9Zm9.9,3.1h.9c2,.1,1.9-.4,1.9-2v-.2c0-.5-.3-.9-.8-.9,0,0,0,0-.1,0h-3.7c-.5,0-1,.3-1,.8,0,0,0,0,0,0v1.2c0,.6.4.9,1,.9h1.8Zm-9.9-11.3h.8c2.1,0,2-.3,2-2.1h0c0-.5-.3-.9-.8-.9,0,0,0,0-.1,0h-3.7c-.5,0-.9.3-.9.8,0,0,0,0,0,.1v1.1c0,.7.3,1,1,1h1.7,0Zm9.9,0h1.9c.6,0,.9-.4.9-1,.1-1.3,0-1.9-.7-2.1h-4c-.5,0-.9.3-.9.8,0,0,0,0,0,.1v1.1c0,.5.3.9.8,1,0,0,.1,0,.2,0h1.8Zm-20.2,0h1.9c.7,0,.9-.4.9-1.7s-.3-1.3-.9-1.3h-3.7c-.5,0-.9.3-.9.8,0,0,0,0,0,.1v1.1c0,.7.3,1,1,1h1.7Zm0,5.6h1.9c.6,0,.9-.4.9-1,.1-1.4,0-1.9-.7-2h-3.9c-.5,0-.9.3-1,.8,0,0,0,.1,0,.2v1.1c0,.6.3.9,1,1h1.8Z"/><path class="cls-7" d="m200,204.8h-11.2c-1.4,0-1.9-.5-1.9-1.9v-15c0-1.3.5-1.9,1.9-1.9h22.6c1.4,0,1.9.5,1.9,1.9v15.1c0,1.3-.6,1.8-1.8,1.8h-11.5Z"/><path class="cls-12" d="m203.5,212.2c0,1.9-1.6,3.5-3.5,3.5-1.9,0-3.4-1.5-3.5-3.4,0-1.9,1.6-3.5,3.5-3.5,1.9,0,3.4,1.5,3.4,3.3,0,0,0,0,0,0h.1Z"/><path class="cls-12" d="m208.3,212v-2c0-.4.2-.8.7-.9,0,0,.1,0,.2,0h2.9c.4,0,.8.2.9.7,0,0,0,.1,0,.2v3.9c0,.4-.2.8-.7.9,0,0-.1,0-.2,0h-2.9c-.4,0-.8-.2-.9-.7,0,0,0-.1,0-.2v-1.9Z"/><path class="cls-12" d="m187.1,212.3v-1.9c0-.4.2-.8.7-.9,0,0,.1,0,.2,0h3c.5,0,.8.3.8.9v4c0,.6-.3.8-.9.8h-2.9c-.6,0-.8-.3-.9-.9v-2Z"/><path class="cls-12" d="m210.2,226.9h-1.8c-.5,0-1-.3-1-.8,0,0,0,0,0,0v-1.2c0-.5.3-.9.8-.9,0,0,0,0,.1,0h3.9c.7.1.9.6.8,2,0,.6-.3,1-.9,1h-1.9Z"/><path class="cls-12" d="m189.9,232.5h-1.8c-.5,0-.9-.3-1-.8,0,0,0-.1,0-.2,0-1.8-.2-2.2,1.9-2.1h2.5c.8,0,1.1.3,1.1,1.1,0,1.6,0,2-1.9,1.9h-1,.2Z"/><path class="cls-12" d="m200.2,226.9h-1.8c-.5,0-1-.4-1-.9,0,0,0,0,0-.1,0-1.7-.2-2.2,2-2.1h2.5c.8,0,1.1.3,1.1,1.1v.8c0,.8-.3,1.1-1.2,1.1h-1.7,0Z"/><path class="cls-12" d="m200.3,229.5h1.8c.5,0,1,.4,1,.9,0,0,0,0,0,.1,0,1.7.2,2.2-2,2.1h-2.6c-.7,0-1-.3-1.1-1.1v-1.1c0-.5.3-.9.8-.9,0,0,0,0,.1,0h2Z"/><path class="cls-12" d="m210.1,232.5h-1.8c-.5,0-1-.3-1-.8,0,0,0,0,0,0v-1.2c0-.6.3-.9,1-.9h3.7c.4,0,.8.2.9.7,0,0,0,.1,0,.2v.2c0,1.6,0,2.1-1.9,2h-1,.1Z"/><path class="cls-12" d="m200.2,221.3h-1.8c-.5,0-.9-.3-1-.8,0,0,0-.1,0-.2v-1.1c0-.5.3-.9.8-.9,0,0,0,0,.1,0h3.7c.5,0,.9.3.9.8,0,0,0,0,0,.1h0c0,1.8.1,2.2-2,2.1h-.7Z"/><path class="cls-12" d="m210.1,221.3h-1.8c-.6,0-.9-.4-1-1v-1.1c0-.4.2-.8.7-.9,0,0,.1,0,.2,0h4c.6.2.8.7.7,2.1,0,.5-.3,1-.8,1,0,0,0,0,0,0h-1.9Z"/><path class="cls-12" d="m189.9,221.3h-1.8c-.7,0-1-.3-1-1v-1.1c0-.5.3-.9.8-.9,0,0,0,0,.1,0h3.7c.7,0,.9.4.9,1.3,0,1.3-.2,1.7-.9,1.7h-1.8,0Z"/><path class="cls-12" d="m189.9,226.9h-1.8c-.5,0-.9-.3-1-.8,0,0,0-.1,0-.2v-1.1c0-.5.4-1,.9-1,0,0,0,0,.1,0h3.9c.6.1.8.7.7,2,0,.6-.3,1-.9,1h-1.9Z"/><path d="m169.2,222.7c1.6-1.4,4.1-1.3,5.5.3l1.1,1.2,2.6-2.4,1.7,1.9-8.3,7.6-2.9-3.1c-1.5-1.5-1.4-4,.1-5.4,0,0,0,0,0,0h0Zm1.7,1.9c-.6.5-.7,1.3-.2,1.9,0,0,0,0,.1.1l1.1,1.2,2.1-1.9-1.1-1.2c-.5-.6-1.3-.6-1.9-.1,0,0,0,0-.1.1h0Z"/><path d="m166.6,212.6l4.4-2.2,1.1,2.2-4.1,2c-.7.3-1,1-.8,1.7,0,0,0,.1,0,.2.3.7,1.1,1.1,1.8.8.1,0,.2,0,.3-.2l3.9-1.9,1.1,2.2-10.1,4.9-1.1-2.2,3.5-1.7c-1.6-.5-2.5-2.1-2.1-3.7.3-.9,1-1.7,1.9-2h.1Z"/><path d="m166.9,210.6c-2.3.4-4.6-1.1-5-3.4s1.1-4.6,3.4-5,4.6,1.1,5,3.4c0,0,0,0,0,.1.4,2.3-1.1,4.5-3.4,4.9,0,0,0,0,0,0Zm-1-6c-1,.1-1.6,1-1.5,1.9,0,0,0,.1,0,.2.2,1,1.1,1.7,2.2,1.5,0,0,0,0,0,0,1-.1,1.6-1,1.5-1.9,0,0,0-.1,0-.2-.2-1-1.1-1.7-2.2-1.5,0,0,0,0,0,0Z"/><path d="m165.4,192.8l4.9.5-.3,2.4-4.5-.5c-.7-.1-1.4.3-1.6,1.1,0,0,0,0,0,.1,0,.9.3,1.5,1.5,1.7l4.3.5-.3,2.4-8-.9.3-2.4h.7c-.6-.6-.9-1.5-.7-2.3.2-1.6,1.7-2.8,3.3-2.6,0,0,.2,0,.3,0h.1Z"/><path d="m170.3,188c.2-.5.2-1.2,0-1.7l1.8-1.4c.7,1.2.8,2.7.2,3.9-.7,2.2-3.1,3.4-5.3,2.7-2.2-.7-3.4-3.1-2.7-5.3,0-.1,0-.3.1-.4,1-2.1,3.5-3.1,5.6-2.1.3.1.5.3.8.4l-2.2,5.3c.8,0,1.5-.5,1.8-1.3h-.1Zm-2.1-2.5c-.8-.1-1.6.3-1.8,1.1-.4.7-.2,1.6.5,2.1l1.3-3.2Z"/><path d="m172.2,174.1l1-1.1,1.7,1.5-1,1.1,4.2,3.8-1.6,1.8-4.2-3.8-.7.8-1.7-1.5.7-.8c-1.7-1.5-1.8-3.3,0-5.2l1.7,1.5c-.7.6-.9,1.2-.2,1.9h.1Z"/><path d="m178.2,168.7l1.7,2.1c-.9.4-1.4,1.5-1,2.4,0,.2.2.3.3.5l2.2,2.8-1.9,1.5-5-6.3,1.9-1.5.9,1.1c-.3-1,0-2.1.9-2.7h0Z"/><path d="m187.4,164.1l3.4,7.2-2.2,1-.3-.7c-.3.8-.9,1.5-1.7,1.9-2,.9-4.4,0-5.3-2.1,0,0,0,0,0-.1-1-1.9-.3-4.3,1.6-5.3,0,0,0,0,.1,0,.8-.5,1.8-.5,2.6-.1l-.3-.7,2.2-1h0Zm-.5,4.6c-.4-1-1.5-1.4-2.5-1,0,0,0,0,0,0-.9.4-1.4,1.5-1,2.5,0,0,0,0,0,.1.4,1,1.5,1.4,2.5,1,0,0,0,0,0,0,.9-.4,1.4-1.5,1-2.4,0,0,0-.1,0-.2Z"/><path d="m203.1,164.9l.4,4.9-2.4.2-.4-4.7c0-.6-.4-1.1-.9-1.2-.1,0-.2,0-.4,0-.8,0-1.2.7-1.1,1.6l.4,4.5-2.4.2-.4-4.7c0-.6-.4-1.1-.9-1.2-.1,0-.2,0-.4,0-.8,0-1.2.7-1.1,1.6l.4,4.5-2.4.2-.7-8,2.4-.2v.7c.5-.7,1.3-1.1,2.1-1.1.8,0,1.7.2,2.2.9.5-.8,1.3-1.2,2.2-1.2,1.8-.2,3.1,1.1,3.3,3h.1Z"/><path d="m208.7,169.5c.5.1,1.1,0,1.6-.2l1.6,1.6c-1.8,1.6-4.6,1.4-6.1-.4-1.6-1.8-1.4-4.6.4-6.1,1.1-.9,2.5-1.3,3.9-.9,2.1.5,3.4,2.6,2.9,4.7,0,.1,0,.3-.1.4,0,.3-.2.6-.3.9l-5.5-1.5c0,.9.7,1.4,1.6,1.6Zm2.2-2.4c0-.8-.5-1.5-1.3-1.7-.8-.3-1.6,0-2,.8l3.3.9Z"/><path d="m219.7,177.4v-4.4c.1,0-2,2.8-2,2.8l-1.9-1.5,6.8-8.9,1.9,1.5-4.1,5.3,4-1.3,2.2,1.7-4.7,1.4v5l-2.2-1.7h0Z"/><path d="m225.6,180.9c.3.4.8.7,1.4.8l.3,2.2c-1.4,0-2.7-.6-3.5-1.7-1.5-1.7-1.4-4.3.2-5.8.1-.1.2-.2.4-.3,1.8-1.5,4.4-1.2,5.9.6,0,0,0,0,0,.1,1.4,1.8,1.1,4.3-.7,5.7,0,0,0,0-.1,0-.2.2-.5.4-.8.5l-3.5-4.5c-.4.7-.3,1.6.3,2.2h0Zm3.2-.6c.5-.6.5-1.5,0-2.1-.5-.7-1.3-.9-2.1-.6l2.1,2.7Z"/><path d="m236.9,189.4l-8.2.5c-2.7.2-4.2-.7-5-2.8l2.1-.9c.2.9,1.1,1.5,2,1.3l5.8-5.9,1,2.4-3.8,3.6,5.1-.5,1,2.4h0Z"/><path d="m234.6,200.7c-2.2.4-4.3-1.1-4.7-3.3h0c-.2-.9,0-1.8.7-2.5l-3.9.5-.3-2.4,11.1-1.4.3,2.4h-.7c.7.6,1.2,1.4,1.3,2.3.2,2.2-1.4,4.1-3.5,4.3,0,0-.1,0-.2,0h-.1Zm-.3-2.4c1,0,1.8-.9,1.7-2,0,0,0,0,0-.1,0-1-.9-1.7-1.9-1.7-.1,0-.2,0-.3,0-1,0-1.8.9-1.7,2,0,0,0,0,0,.1,0,1,.9,1.7,1.9,1.7.1,0,.2,0,.3,0Z"/><path d="m237.1,211.2l-7.9-1.4.4-2.4h.7c-.5-.7-.8-1.6-.6-2.4.4-2.1,2.5-3.5,4.7-3,0,0,0,0,.1,0,2.2.3,3.8,2.2,3.5,4.4,0,0,0,0,0,0-.1.9-.6,1.7-1.4,2.2h.7c0,.1-.4,2.5-.4,2.5h.2Zm-3.5-3.1c1,.2,2.1-.4,2.3-1.4,0,0,0,0,0,0,.2-1-.4-1.9-1.3-2.2,0,0-.2,0-.3,0-.9-.2-1.9.3-2.2,1.2,0,0,0,.2,0,.3-.2,1,.4,1.9,1.3,2.2,0,0,.2,0,.3,0h-.1Z"/><path d="m235.1,223.2l-10-5.1,1.1-2.1.7.3c-.3-.9-.3-1.8.2-2.6,1.2-2,3.8-2.6,5.8-1.4,1.7,1.1,2.5,3.3,1.7,5.2-.4.8-1.1,1.5-2,1.7l3.5,1.8-1.1,2.1h.1Zm-5.3-5.4c1,.4,2.1,0,2.5-.9.4-1,0-2.1-.9-2.5-.9-.4-2,0-2.5.9-.5.9-.2,2,.7,2.5,0,0,.1,0,.2.1Z"/><line class="cls-6" x1="199.7" y1="251.9" x2="200.2" y2="284.7"/><line class="cls-5" x1="199.7" y1="251.9" x2="200" y2="273.9"/><polygon class="cls-23" points="192.5 271.8 200.2 284.7 207.5 271.6 192.5 271.8"/><circle class="cls-4" cx="200" cy="335.8" r="45"/><path d="m166.7,320.6c1.9.7,2.8,2.8,2,4.7l-.6,1.5,3.1,1.2-.9,2.2-9.8-3.8,1.4-3.7c.7-1.9,2.8-2.9,4.7-2.1h.1Zm-.9,2.2c-.7-.3-1.5,0-1.7.7l-.6,1.5,2.5,1,.6-1.5c.3-.7,0-1.4-.8-1.7Z"/><path d="m174,314.1l3.7,2.7-1.3,1.8-3.4-2.5c-.7-.6-1.4-.3-1.9.2-.5.7-.4,1.4.4,2l3.3,2.4-1.3,1.8-8.5-6.2,1.3-1.8,3,2.2c-.2-.7,0-1.5.5-2.3.9-1.2,2.5-1.6,4.2-.4h0Z"/><path d="m175.7,313.5c-1.4-1.8-1.1-4.2.7-5.6,1.7-1.4,4.2-1.1,5.6.6,1.4,1.8,1.1,4.2-.7,5.6-1.7,1.4-4.2,1.1-5.6-.6Zm4.5-3.5c-.7-.8-1.7-.9-2.5-.3s-.9,1.6-.3,2.5c.7.8,1.7.9,2.5.3s.9-1.6.3-2.5Z"/><path d="m189.7,304.2l1.8,4.2-2.1.9-1.7-3.9c-.4-.9-1.1-1-1.7-.7-.8.3-1.1,1-.7,2l1.6,3.8-2.1.9-2.9-6.9,2.1-.9.3.6c.2-.7.7-1.3,1.6-1.7,1.4-.6,3-.1,3.8,1.8h0Z"/><path d="m195.9,305.9c.6,0,1.1-.4,1.3-.8l1.9.8c-.6,1.1-1.6,1.8-3,2-2.5.4-4.4-1.1-4.7-3.4-.3-2.2,1.1-4.1,3.4-4.5,2.2-.3,4,1.2,4.3,3.4v.9l-5.3.7c.4.7,1.1.9,1.9.8h.2Zm1-2.9c-.4-.8-1.1-1-1.7-1-.8.1-1.4.6-1.5,1.4l3.2-.4Z"/><path d="m201.1,301.8l5.7.6-.2,2.1-5.7-.6.2-2.1Z"/><path d="m216.1,307.4c-.8,2.1-2.9,3.1-4.8,2.4-.9-.4-1.5-.9-1.8-1.6l-.3.7-2.1-.8,3.7-9.8,2.1.8-1.3,3.5c.7-.4,1.5-.4,2.4,0,1.8.7,2.7,2.9,1.9,5l.2-.2Zm-2.1-.8c.4-1.1,0-2-1-2.3-1-.4-1.9,0-2.3,1.1-.4,1.1,0,2,1,2.3,1,.4,1.9,0,2.3-1.1Z"/><path d="m217.2,308.1c1.3-1.8,3.8-2.1,5.6-.8,1.8,1.3,2.2,3.8.8,5.5-1.3,1.8-3.8,2.1-5.6.8-1.8-1.3-2.2-3.8-.8-5.5Zm4.6,3.4c.6-.9.5-1.9-.3-2.5s-1.8-.5-2.4.4-.5,1.9.3,2.5,1.8.5,2.4-.4Z"/><path d="m234.7,316l-8.3,6.4-1.4-1.8.6-.4c-.8,0-1.5-.4-2.1-1.2-1.2-1.6-.8-3.9,1-5.3,1.8-1.4,4.1-1.1,5.3.4.6.8.8,1.6.6,2.3l2.9-2.3,1.4,1.8h0Zm-6.7,2.3c.9-.7,1-1.7.4-2.5s-1.6-1-2.5-.3-1,1.7-.4,2.5,1.6,1,2.5.3Z"/><path d="m236.5,327l-7.7.4c-2.5,0-3.9-.7-4.6-2.7l1.9-.8c.4,1,.9,1.3,1.9,1.3l5.5-5.5.9,2.3-3.6,3.3,4.8-.5.9,2.2h0Z"/><path d="m240.5,332.4l-10.3,1.9-.4-2.4,7.8-1.4-.8-1.7,1.9-.9,1.5,2.5.4,2.1h0Z"/><path class="cls-21" d="m189.4,369.1c0-.2-.2,0-.4-.2-2-.5-3.4-2.3-3.4-4.4v-38.8c0-2.7,1.1-4.2,3.6-5,0,0,0,0,0,0h3.4c.5,1.4,1.1,2.7,1.6,4,0,.3.4.4.7.4h9.7c.4,0,.7-.2.8-.5.2-.5.4-1,.6-1.5.3-.8.7-1.5.9-2.4h3.3c.2.2.5.2.8.3,1.8.6,3,2.3,3.1,4.2v38.8c0,2.8-1.1,4.3-3.8,5.2h-21.1.1Zm23.7-7.3h0v-33.8c0-.4-.3-.2-.5-.2h-25.5c-.4,0-.5,0-.5.5v33.4h26.5Zm-13.1,3.1h-4.4c-.5,0-.7.2-.6.7,0,.4.4.5.7.5h8.6c.5,0,.7-.2.7-.6s-.3-.5-.7-.5h-4.3Z"/><path class="cls-17" d="m207.2,320.6c-.2.8-.6,1.6-.9,2.4-.2.5-.4,1-.6,1.5,0,.3-.4.6-.8.5h-9.7c-.3,0-.6,0-.7-.4-.5-1.3-1.1-2.6-1.6-3.9h0c0,0,14.4,0,14.4,0h-.1Z"/><path class="cls-1" d="m186.9,361.8c-.2,0,0-.3,0-.4v-33c0-.4,0-.5.5-.5h25.5c.2,0,.4-.2.5.2-.2,0-.3.2-.5.4-.4.5-.7,1-1.1,1.4-1.4,1.8-2.9,3.7-4.3,5.5-1.1,1.5-2.3,2.9-3.4,4.4-1.4,1.8-2.9,3.7-4.3,5.5-1.1,1.5-2.3,2.9-3.4,4.4-1.5,2-3.1,3.9-4.6,5.9-1.1,1.4-2.2,2.8-3.2,4.2s-1.1,1.3-1.5,2h-.2Z"/><path class="cls-19" d="m186.9,361.8c.4-.7,1-1.3,1.5-2,1.1-1.4,2.2-2.8,3.2-4.2,1.5-2,3.1-3.9,4.6-5.9,1.1-1.5,2.3-2.9,3.4-4.4,1.4-1.8,2.9-3.7,4.3-5.5,1.1-1.5,2.3-2.9,3.4-4.4,1.4-1.8,2.9-3.7,4.3-5.5.4-.5.7-.9,1.1-1.4,0-.2.2-.3.5-.4v33.7h-26.3Z"/><path class="cls-10" d="m200,364.9h4.3c.4,0,.7,0,.7.5s-.2.6-.7.6h-8.6c-.3,0-.6,0-.7-.5,0-.4,0-.7.6-.7h4.4Z"/><path d="m198.3,331.5h5.7v25.9h-6.6v-18.9l-4.5,1.1-1.6-5.6s7-2.5,7-2.5Z"/></svg>