<?xml version="1.0" encoding="UTF-8"?><svg id="Layer_1" xmlns="http://www.w3.org/2000/svg" viewBox="0 0 400 400"><defs><style>.cls-1{fill:#fe6d3a;}.cls-2{stroke:#a5262d;}.cls-2,.cls-3,.cls-4{stroke-width:4px;}.cls-2,.cls-3,.cls-4,.cls-5{stroke-miterlimit:10;}.cls-2,.cls-3,.cls-4,.cls-5,.cls-6{fill:none;}.cls-7{fill:#435256;}.cls-8{fill:#fff;}.cls-3{stroke:#0018c6;}.cls-9{fill:#a5c2db;}.cls-10{fill:#fe901f;}.cls-11{fill:#fcc472;}.cls-12{fill:#2d3b3d;}.cls-4{stroke:#c000e2;}.cls-13{fill:#f15a24;}.cls-14{fill:#fbc372;}.cls-15{fill:#386079;}.cls-16{fill:#555a6e;}.cls-17{fill:#463c4b;}.cls-18{fill:#feb024;}.cls-19{fill:#a5c3db;}.cls-20{fill:#d3e4ee;}.cls-21{fill:#c69c6d;}.cls-22{fill:#2489c4;}.cls-5{stroke:#231f20;stroke-width:2px;}.cls-23{fill:#faf8fa;}.cls-24{fill:#58d4fc;}.cls-25{fill:#d6e5ef;}.cls-26{fill:#fe6e3c;}.cls-27{fill:#2487c3;}.cls-28{fill:#2e5872;}.cls-29{fill:#484645;}.cls-30{fill:#204958;}.cls-31{fill:#2387c3;}.cls-32{fill:#fdc472;}.cls-33{fill:#b3b3b3;}.cls-34{fill:#2487c2;}.cls-35{fill:#3e657d;}.cls-36{fill:#2387c2;}.cls-37{fill:#a4c2db;}.cls-38{fill:#231f20;}.cls-39{fill:#fbf9fa;}.cls-40{fill:#fccc07;}.cls-41{fill:#fe901e;}.cls-42{fill:#f99e3d;}</style></defs><line class="cls-8" x1="169.6" y1="259.2" x2="147.4" y2="283.4"/><line class="cls-5" x1="169.6" y1="259.2" x2="154.7" y2="275.4"/><polygon class="cls-38" points="150.7 268.8 147.4 283.4 161.7 278.9 150.7 268.8"/><line class="cls-8" x1="230.4" y1="259.2" x2="252.6" y2="283.4"/><line class="cls-5" x1="230.4" y1="259.2" x2="245.3" y2="275.4"/><polygon class="cls-38" points="238.3 278.9 252.6 283.4 249.3 268.8 238.3 278.9"/><circle class="cls-2" cx="309" cy="72.1" r="45"/><path d="m279.7,56.9c-2.8-2.4-3.1-6.6-.7-9.4.1-.1.2-.3.4-.4,1.5-1.7,3.8-2.5,6.1-2.1l-.7,3c-1.2-.2-2.5.2-3.3,1.1-1.4,1.6-1.2,4.1.4,5.5,1.5,1.3,3.8,1.3,5.3-.1.9-.9,1.3-2.2.9-3.4l2.9-.9c.9,3.7-1.3,7.4-5,8.3-2.3.6-4.7,0-6.4-1.7h0Z"/><path d="m291.2,48.2c-1.2-2.5-.2-5.5,2.3-6.7,2.5-1.2,5.5-.2,6.7,2.3,1.2,2.5.2,5.5-2.3,6.7-2.5,1.2-5.5.2-6.7-2.3,0,0,0,0,0,0Zm6.5-3.1c-.6-1.1-1.9-1.4-2.9-.9s-1.4,1.9-.9,2.9c.5,1,1.8,1.4,2.8.9,1.1-.5,1.6-1.7,1.1-2.8,0,0,0-.1,0-.2Z"/><path d="m312.5,42.1c.4,2.6-1.4,5.1-4,5.5-1,.2-2.1-.1-2.9-.8l.5,4.7-2.8.3-1.5-13.2,2.8-.3v.9c.7-.9,1.7-1.4,2.8-1.5,2.6-.2,4.9,1.8,5.1,4.4,0,0,0,0,0,0h0Zm-2.8.3c0-1.2-1.2-2.2-2.4-2.1,0,0,0,0,0,0-1.2,0-2.1,1.1-2,2.3,0,0,0,.2,0,.3,0,1.2,1.2,2.2,2.4,2.1,0,0,0,0,0,0,1.2,0,2.1-1.1,2-2.3,0,0,0-.2,0-.3h0Z"/><path d="m324.7,44.8c-.5,2.6-3,4.3-5.6,3.8-1-.2-1.9-.9-2.5-1.8l-1.1,4.6-2.8-.7,3.2-12.9,2.8.7-.2.9c.9-.5,2-.7,3-.4,2.5.8,4,3.4,3.2,6,0,0,0,0,0,0v-.2Zm-2.8-.7c.3-1.2-.5-2.4-1.7-2.7-1.2-.3-2.4.5-2.7,1.7-.3,1.2.5,2.4,1.6,2.7,1.2.4,2.4-.3,2.8-1.5,0,0,0-.2,0-.2h0Z"/><path d="m329.3,50.5c.6.4,1.2.5,1.9.4l1.2,2.4c-1.5.6-3.2.3-4.5-.7-2.7-1.8-3.2-4.7-1.6-7.1,1.2-2.5,4.1-3.6,6.6-2.4,2.5,1.2,3.6,4.1,2.4,6.6-.2.4-.5.8-.8,1.2-.2.3-.5.6-.7.9l-5.6-3.7c-.2,1,.3,1.9,1.2,2.4h-.2Zm3.4-1.9c.4-.9,0-2-.9-2.4-.8-.6-1.9-.6-2.6,0l3.4,2.3h.1Z"/><path d="m343.3,53.7l-2.4,2.1c-.6-1-2.1-2-3.5-.7l-3.2,2.8-1.9-2.1,7.2-6.2,1.9,2.1-1.3,1.1c1.2-.4,2.5,0,3.3.9h-.1Z"/><rect class="cls-13" x="283" y="64.1" width="52" height="37" rx="2.9" ry="2.9"/><path class="cls-29" d="m300.3,94.9c-3.3.1-6.5-1.2-8.8-3.5-4.7-4.9-4.7-12.7,0-17.6,2.3-2.4,5.5-3.6,8.8-3.5,3.5,0,4.1.5,5.9,1.5,1.8,1,3.3,2.4,4.3,4.1l-5.2,3c-.5-.8-1.2-1.5-2-2-.9-.5-2-.7-3-.7-1.7,0-3.4.6-4.6,1.8-1.2,1.2-1.8,2.9-1.7,4.6-.2,3.3,2.3,6.2,5.6,6.4.2,0,.5,0,.7,0,1.1.1,2.1-.1,3-.7.9-.5,1.5-1.1,2-2l5.2,3c-1,1.7-2.5,3.1-4.3,4.1-1.8,1-3.9,1.5-6,1.5h.1Z"/><path class="cls-29" d="m323.6,77.5h5.6v16.9h-5.6v-1.7c-1.1,1.5-2.9,2.3-4.7,2.2-1.7.1-3.4-.6-4.5-1.9-1.2-1.2-1.7-3-1.7-5.4v-10.1h5.6v9.4c0,.7.2,1.5.7,2,.5.5,1.1.7,1.8.7.7,0,1.5-.3,2-.8.5-.6.8-1.5.7-2.3v-9h.1Z"/><line class="cls-6" x1="198.9" y1="125.7" x2="199.4" y2="158.5"/><line class="cls-5" x1="198.9" y1="125.7" x2="199.3" y2="147.7"/><polygon class="cls-38" points="191.8 145.6 199.4 158.5 206.7 145.4 191.8 145.6"/><line class="cls-6" x1="117.3" y1="121.4" x2="166" y2="160.7"/><line class="cls-5" x1="117.3" y1="121.4" x2="157.6" y2="154"/><polygon class="cls-38" points="151.2 158.4 166 160.7 160.6 146.8 151.2 158.4"/><line class="cls-6" x1="280" y1="121.4" x2="231.3" y2="160.7"/><line class="cls-5" x1="280" y1="121.4" x2="239.7" y2="154"/><polygon class="cls-38" points="236.7 146.8 231.3 160.7 246.1 158.4 236.7 146.8"/><circle class="cls-2" cx="91" cy="72.1" r="45"/><path d="m64.9,56.5l1-3c1.1.6,2.6.4,3.5-.5,1.1-1,1-1.7.7-2.1-.6-.6-1.4-.4-3.4.6s-4.1,1.5-5.9-.5-1.1-4.7.7-6.3c1.6-1.5,3.9-1.9,5.9-1l-1,3c-.9-.5-2.1-.4-2.9.4-.8.7-.8,1.4-.4,1.8s1,.6,3-.4,4.3-1.9,6.2.3c1.8,2,1.2,4.7-1.1,6.7s-4.5,2.1-6.5,1.1h.2Z"/><path d="m69.9,40.6c-.4-.9,0-2,.8-2.4s2,0,2.4.8,0,2-.8,2.4h0c-.9.4-1.9,0-2.4-.8Zm1.5,2.3l2.7-1.4,4.5,8.9-2.7,1.4-4.5-8.9Z"/><path d="m75.7,35.9l2.9-.9,4.5,13.9-2.9.9-4.5-13.9Z"/><path d="m82.3,36c-.2-1,.5-1.9,1.5-2.1,1-.2,1.9.5,2.1,1.5.2,1-.5,1.9-1.5,2.1-1,.2-1.9-.5-2.1-1.5,0,0,0,0,0,0Zm.7,2.6l3-.5,1.6,9.9-3,.5-1.6-9.9Z"/><path d="m88.9,42.6c.1-2.9,2.6-5.1,5.4-4.9,0,0,.2,0,.3,0,1.9,0,3.5,1.2,4.3,2.9l-2.7,1.3c-.5-1.1-1.9-1.6-3-1.1-.7.3-1.2,1.1-1.3,1.9-.2,1.2.7,2.3,1.9,2.5,0,0,.1,0,.2,0,.8,0,1.6-.3,2-1l2.5,1.7c-1,1.6-2.8,2.4-4.7,2.2-2.9-.2-5.1-2.6-4.9-5.5,0,0,0-.1,0-.2v.2Z"/><path d="m99.8,43.6c1.1-2.7,4.2-3.9,6.9-2.8,2.7,1.1,3.9,4.2,2.8,6.9-1.1,2.7-4.2,3.9-6.9,2.8,0,0,0,0,0,0-2.7-1.1-3.9-4.1-2.8-6.8,0,0,0,0,0-.1Zm7,2.9c.5-1.2,0-2.5-1.1-3.1,0,0,0,0,0,0-1.1-.5-2.4,0-2.9,1.1,0,0,0,.1,0,.2-.6,1.1-.1,2.5,1,3,0,0,.1,0,.2,0,1.1.5,2.4,0,2.9-1.1,0,0,0-.1,0-.2Z"/><path d="m119.3,54.7l-4.2,4.5-2.2-2,3.9-4.2c.7-.6.8-1.7.2-2.3,0,0-.1-.1-.2-.2-.7-.7-1.9-.7-2.6,0,0,0-.2.2-.2.3l-3.7,4-2.2-2,6.8-7.4,2.2,2-.6.7c1.1-.2,2.2.2,2.9,1,1.5,1.4,1.8,3.6,0,5.6h-.1Z"/><rect class="cls-21" x="64.1" y="62.6" width="52" height="37" rx="2.9" ry="2.9"/><path class="cls-29" d="m86.3,93.7c-2.2.1-4.3-.5-6.2-1.6-1.6-1-2.8-2.5-3.4-4.3l5.2-3c.7,2,2.6,3.2,4.7,3.1,2.3,0,2.8-.5,2.8-1.6s-.5-1.2-1.6-1.7c-1-.4-2-.7-3-.9-1.9-.4-3.7-1.4-5.1-2.7-1.3-1.2-2-2.9-1.9-4.7,0-2,.8-3.9,2.3-5.3,1.6-1.4,3.8-2.1,5.9-2,1.9,0,3.7.4,5.3,1.4,1.5,1,2.8,2.3,3.5,4l-5.1,3c-.5-1.6-2-2.7-3.7-2.6-1.7,0-1.3,0-1.6.4-.4.2-.6.7-.6,1.1,0,.5.3,1,.8,1.3,1,.6,2.1,1,3.2,1.3,1.1.4,2,.7,2.8,1,.8.3,1.6.7,2.3,1.2.8.5,1.4,1.3,1.9,2.1.4.9.6,2,.6,3,.1,2.1-.8,4.1-2.5,5.4-1.9,1.4-4.2,2.1-6.5,2h-.1Z"/><path class="cls-29" d="m102.5,74c-.6.6-1.4,1-2.3,1-1.8,0-3.3-1.4-3.3-3.2,0-.9.3-1.8,1-2.4.6-.6,1.4-.9,2.3-.9.9,0,1.7.3,2.3.9.6.6,1,1.4,1,2.3,0,.9-.3,1.7-1,2.3Zm-5.1,19.2v-16.9h5.6v16.9h-5.6Z"/><circle class="cls-2" cx="200" cy="72.1" r="45"/><rect class="cls-33" x="174" y="62.1" width="52" height="37" rx="2.9" ry="2.9"/><path class="cls-29" d="m200.8,92.4l-1.1-3.4h-8l-1,3.4h-6.5l7.5-23.6h7.6l7.8,23.6h-6.3Zm-7.6-8.6h4.8l-2.4-8-2.4,8Z"/><path class="cls-29" d="m208.5,92.4v-24.7h5.6v24.7h-5.6Z"/><path d="m176.1,50.8l-2.4,3.1,1,1.4-1.6,2.1-6.1-9.3,1.9-2.4,10.5,3.7-1.6,2.1-1.6-.6h0Zm-2.2-.8l-3.8-1.4,2.3,3.3,1.5-1.9Z"/><path d="m172.8,41l1.7-1.4,7,8.4-1.7,1.4-7-8.4Z"/><path d="m185,37.2l3.6,6.6-2,1.1-.3-.6c-.1.8-.6,1.5-1.4,1.8-1.3.7-3,.3-3.8-1.1,0-.1-.1-.2-.1-.3l-2.2-4,2-1.1,2,3.8c.3.6,1.1.9,1.7.6,0,0,0,0,0,0,.7-.3.9-1.1.6-1.8,0,0,0-.1-.1-.2l-2-3.6,2-1.1h-.1Z"/><path d="m199.6,36.7l.8,4.5-2.2.4-.8-4.3c0-.6-.5-1.1-1.1-1,0,0-.1,0-.2,0-.7,0-1.1.7-.9,1.6l.7,4.2-2.2.4-.8-4.3c0-.6-.5-1.1-1.1-1,0,0-.1,0-.2,0-.7,0-1.1.7-.9,1.6l.7,4.2-2.2.4-1.3-7.4,2.2-.4v.7c.4-.7,1.1-1.1,1.9-1.2.8-.2,1.6,0,2.1.6.4-.8,1.1-1.3,2-1.4,1.7-.3,3,.7,3.3,2.6l.2-.2Z"/><path d="m201.9,34.3l2.2.2-.6,7.5-2.2-.2.6-7.5Zm0-2c0-.7.8-1.3,1.5-1.2.7,0,1.3.8,1.2,1.5s-.8,1.3-1.5,1.2c0,0,0,0,0,0-.7,0-1.3-.7-1.2-1.4,0,0,0,0,0-.1Z"/><path d="m212.9,39.4l-1.2,4.4-2.2-.6,1.1-4.1c.2-.7-.1-1.4-.8-1.7,0,0,0,0-.1,0-.7-.3-1.5,0-1.7.8,0,.1,0,.2,0,.3l-1.1,3.9-2.2-.6,2-7.2,2.2.6-.2.7c.7-.5,1.5-.6,2.3-.3,1.5.4,2.4,1.9,2,3.4,0,.1,0,.2,0,.3h0Z"/><path d="m222.5,41.4l-3.8,6.4-1.9-1.2.4-.6c-.8.3-1.6.2-2.3-.3-1.3-.8-1.8-2.5-1-3.8,0-.1.1-.2.2-.3l2.4-4,1.9,1.2-2.2,3.7c-.4.5-.3,1.2.2,1.6,0,0,.2.1.2.2.6.4,1.5.2,1.9-.4,0,0,0-.1.1-.2l2.1-3.5,1.9,1.2h0Z"/><path d="m230.3,53.7l-3.5,3-1.5-1.7,3.4-2.9c.6-.5.7-1.1.2-1.6-.4-.5-1.2-.6-1.7-.1,0,0,0,0-.1.1l-3.2,2.7-1.5-1.7,3.4-2.9c.6-.5.7-1.1.2-1.6-.4-.5-1.2-.6-1.7-.1,0,0,0,0-.1.1l-3.2,2.7-1.5-1.7,5.7-4.9,1.5,1.7-.5.4c.8,0,1.5.3,2,.9.5.6.7,1.4.5,2.1.8,0,1.7.3,2.2,1,1,1.2.9,3-.3,4,0,0-.1.1-.2.2v.3Z"/><circle class="cls-3" cx="199.2" cy="209.8" r="45"/><path class="cls-18" d="m185.3,216.8v-19.6c0-1.5.3-1.9,1.7-2.5h.2c.1.2.3,0,.5,0h19.3c1.1.1,1.9,1,1.8,2.1v44.7c0,1-.5,1.8-1.4,2.2h-19.7c-1.2.1-2.3-.8-2.4-2,0-.1,0-.3,0-.4v-24.5Zm16.2,20.6h3.4c.6,0,1.1-.4,1.1-1v-34.5c0-.6-.5-1-1.1-1h-12.1c-.6,0-1.2.5-1.2,1.1,0,0,0,0,0,0v34.1c0,.6.5,1.2,1.1,1.2,0,0,0,0,0,0h8.7Z"/><path class="cls-10" d="m207.3,243.7c.9-.4,1.4-1.2,1.4-2.2v-44.7c0-1.1-.8-2-1.8-2.1h3.9c1.1.4,1.8,1.5,1.6,2.7v44.3c.1,1.2-.7,2.2-1.9,2.3-.1,0-.3,0-.4,0h-2.8v-.3Z"/><path class="cls-10" d="m185.3,208v4.8h-5.1c-.8.1-1.6-.4-1.7-1.2,0-.2,0-.3,0-.5v-1.6c0-.8.6-1.5,1.3-1.5,0,0,.1,0,.2,0h5.3Z"/><path class="cls-10" d="m185.3,225.6v4.8h-5c-1.2,0-1.7-.5-1.7-1.7v-1.5c0-.8.5-1.5,1.3-1.6,0,0,.2,0,.3,0h5.1,0Z"/><path class="cls-41" d="m185.3,216.8v4.8h-5.1c-.8,0-1.5-.5-1.6-1.3,0,0,0-.1,0-.2v-1.7c0-.8.5-1.4,1.3-1.5.1,0,.2,0,.3,0h5.2,0Z"/><path class="cls-26" d="m212.5,212.7v-4.8h5.1c.7,0,1.4.4,1.5,1.2,0,0,0,.2,0,.2v1.9c0,.8-.6,1.5-1.3,1.5,0,0-.1,0-.2,0h-5.1Z"/><path class="cls-26" d="m212.5,230.4v-4.8h5.1c.8,0,1.4.5,1.5,1.2,0,0,0,.2,0,.3v1.9c0,.7-.5,1.4-1.3,1.4,0,0-.2,0-.2,0h-5.1Z"/><path class="cls-26" d="m212.5,221.6v-4.8h5.1c.8,0,1.5.6,1.5,1.3,0,0,0,.1,0,.2v1.7c0,.8-.6,1.5-1.3,1.5,0,0-.1,0-.2,0h-5.1Z"/><path class="cls-41" d="m185.3,199.1v4.9h-4.9c-1.3,0-1.8-.5-1.8-1.8v-1.5c0-.7.5-1.4,1.3-1.4,0,0,.2,0,.2,0h5.3v-.2Z"/><path class="cls-41" d="m185.3,234.5v4.8h-5c-1.2,0-1.7-.5-1.7-1.7v-1.4c-.1-.8.5-1.5,1.2-1.6.1,0,.2,0,.4,0h5.2-.1Z"/><path class="cls-1" d="m212.5,203.8v-4.7h5.2c.8,0,1.5.6,1.5,1.4,0,0,0,0,0,0v1.9c0,.7-.5,1.4-1.3,1.4,0,0-.2,0-.2,0h-5.2Z"/><path class="cls-1" d="m212.5,239.2v-4.7h5.2c.8,0,1.5.6,1.5,1.4,0,0,0,0,0,0v1.9c0,.7-.5,1.4-1.3,1.4,0,0-.2,0-.2,0h-5.2Z"/><path class="cls-28" d="m201.6,237.4h-8.7c-.6,0-1.2-.5-1.2-1.1,0,0,0,0,0,0v-34.1c0-.6.5-1.2,1.1-1.2,0,0,0,0,0,0h8.7c.6.3,1,.9.9,1.6v33.3c0,.7-.3,1.3-.9,1.6Zm-1.9-22.7c-1,.2-2,.3-3,.5q-1,.2-1,1.2c0,.4.2.5.5.5h5.4c.4,0,.5-.1.5-.5s-.1-.5-.5-.5h-3.5c1.1-.3,2.3-.5,3.4-.7.3,0,.6,0,.6-.5,0-.3-.2-.6-.4-.6,0,0-.1,0-.2,0h-.5c-1-.2-2-.3-3-.5h3.6c.4,0,.5-.2.5-.5s-.1-.5-.5-.5h-4.9c-1.6,0-1.1,0-1,1.1,0,.3.1.4.4.4.7,0,1.5.2,2.2.4.5,0,1,0,1.4.3h0Zm-.8,11.2h2.7c.5,0,.5-.3.5-.7s0-.7-.5-.6h-2.1c-.1,0-.3,0-.3-.1s.2-.1.3-.2l2.2-.6c.4,0,.5-.6.4-1s-.4-.3-.7-.2c-.7.2-1.3.4-2,.7-.3,0-.4,0-.6-.2-.4-.6-1.1-.6-1.8-.6s-1,.5-1.2,1.1,0,1.1-.1,1.7c0,.4.1.6.6.6h2.6Zm-3.2-6.1c0,.4,0,.6.5.7,1.7.3,3.4.7,5.1,1.1.8.2.9,0,.8-.7,0-.3,0-.5-.4-.5-.3,0-.5,0-.8-.1-.1,0-.2,0-.2-.2-.1-.5,0-.7.5-.8.2,0,.3,0,.5-.1.3,0,.5-.5.3-1,0-.4-.3-.3-.6-.2-1.8.4-3.5.8-5.3,1.1-.4,0-.6.2-.5.7h.1,0Z"/><path class="cls-30" d="m201.6,237.4c.6-.3,1-.9.9-1.6v-33.3c0-.7-.3-1.3-.9-1.6h3.4c.6,0,1.1.4,1.1,1v34.5c0,.6-.5,1-1.1,1h-3.4Z"/><path class="cls-23" d="m199.6,214.7c-.4-.3-.9-.2-1.4-.3-.7-.2-1.5-.3-2.2-.4-.2,0-.4-.1-.4-.3,0,0,0,0,0,0q0-1.1,1-1.1h4.9c.4,0,.5.1.5.5s0,.5-.5.5h-3.6c1,.2,2,.3,3,.5h.5c.3,0,.6.2.6.4,0,0,0,.1,0,.2,0,.5-.3.5-.6.5-1.1.2-2.3.4-3.4.7h3.5c.4,0,.5.1.5.5s-.1.5-.5.5h-5.4c-.4,0-.5,0-.5-.5,0-1,0-1.1,1-1.2,1,0,1.9-.3,3-.5h0Z"/><path class="cls-39" d="m198.9,226h-2.6c-.3,0-.6-.2-.6-.4,0,0,0-.1,0-.2,0-.6,0-1.1.1-1.7.1-.6.6-1,1.2-1.1.7,0,1.4,0,1.8.6.2.3.3.3.6.2.7-.2,1.3-.4,2-.7.3,0,.5-.2.7.2.2.3,0,.7-.2.9,0,0-.1,0-.2,0l-2.2.6c-.1,0-.3,0-.3.2s.2.1.3.1h2.1c.5,0,.5.3.5.6s0,.7-.5.7h-2.7Zm-1.4-1.3h.4c.2,0,.4.1.5-.2s0-.5-.3-.6c-.4-.1-.7-.1-1.1,0-.3.1-.3.3-.3.6s.2.2.4.2h.4Z"/><path class="cls-23" d="m195.7,219.8c0-.4.1-.6.5-.7,1.8-.4,3.5-.8,5.3-1.1.2,0,.5-.1.6.2.1.5,0,.9-.3,1-.2,0-.3,0-.5.1-.5,0-.6.3-.5.8,0,.1,0,.2.2.2.3,0,.5.1.8.1s.4.2.4.5c0,.8,0,.9-.8.7-1.7-.4-3.4-.7-5.1-1.1-.3,0-.5-.2-.5-.5,0,0,0-.1,0-.2h0Zm2.1,0h0c.6,0,1.3.2,1.9.3q.3,0,.3-.3c0-.3,0-.4-.2-.3l-1.9.3h-.1Z"/><path class="cls-15" d="m197.5,224.6h-.5c-.2,0-.4,0-.4-.2s0-.5.3-.6c.4-.1.7-.1,1.1,0,.3,0,.4.3.3.6s-.3.1-.5.2h-.3Z"/><path class="cls-35" d="m197.8,219.8c.6,0,1.3-.2,1.9-.3.3,0,.2.2.2.3s0,.3-.3.3l-1.9-.3h.1Z"/><path d="m166,203.8l-.3,1.1,3.4.8-.6,2.3-10.2-2.5,1-4.1c.5-1.9,2.5-3.1,4.4-2.6,0,0,0,0,0,0,1.3.3,2.2,1.3,2.5,2.6l4.3-1.3-.6,2.5-3.8,1.1h0Zm-2.3.6l.4-1.7c.1-.7-.3-1.4-1-1.5-.7-.2-1.4.2-1.6.8l-.4,1.7,2.6.6h0Z"/><path d="m167.8,189.8l6.5,3.7-1.1,2-.6-.3c.3.8.2,1.7-.3,2.4-1.3,1.8-3.8,2.1-5.6.8-1.4-1.1-2-3-1.3-4.7.4-.7,1.1-1.3,1.9-1.5l-.6-.3,1.1-2h0Zm2.2,3.8c-.8-.5-1.9-.3-2.4.5,0,0,0,.1-.1.2-.5.8-.3,1.9.6,2.4,0,0,0,0,.1,0,.8.5,1.9.3,2.4-.5,0,0,0-.1.1-.2.5-.8.3-1.9-.6-2.4,0,0,0,0-.1,0h0Z"/><path d="m180.1,181.7l3,3.5-1.7,1.5-2.9-3.3c-.5-.6-1.1-.7-1.6-.2-.5.4-.6,1.2-.1,1.7,0,0,0,0,.1.1l2.8,3.2-1.7,1.5-2.9-3.3c-.5-.6-1.1-.7-1.6-.2-.5.4-.6,1.2-.1,1.7,0,0,0,0,.1.1l2.8,3.2-1.7,1.5-5-5.6,1.7-1.5.5.5c0-.8.3-1.5.9-2,.5-.6,1.3-.8,2.1-.6,0-.8.3-1.7,1-2.2,1.2-1.1,3-1,4,.2,0,0,.1.1.2.2h0Z"/><path d="m194,182l-1.2-.7c-.6.7-1.5,1.2-2.4,1.5-2.1.6-3.9-.2-4.4-2.1-.3-1.2,0-2.4.8-3.3-.4-.4-.7-.9-.8-1.5-.5-1.7.5-3.3,2.5-3.8,1.4-.5,3,0,3.9,1.3l-1.7,1.7c-.3-.6-1-.9-1.6-.8-.6.2-.9.6-.7,1.1s.6.8,1.2,1.2l2.4,1.6v-1.7l2.2.6c0,.8-.1,1.6-.4,2.4l1.7,1.1-1.5,1.5h0Zm-3-1.9l-2.4-1.5h-.1c-.3.3-.3.8-.2,1.2.2.7.8,1.1,1.8.8.4-.1.7-.3,1-.5h-.1Z"/><path d="m199.5,178.8l2.2-.9c.2,1,1,1.7,2,1.7,1.1.2,1.5-.2,1.5-.6,0-.6-.5-1-2-1.6-1.5-.6-2.9-1.6-2.6-3.6.3-1.8,2-3,3.8-2.7,0,0,0,0,0,0,1.6.2,3,1.3,3.5,2.9l-2.2.9c-.2-.8-.8-1.4-1.6-1.5-.7-.1-1.2.2-1.2.6s.1.8,1.7,1.6,3.2,1.5,2.9,3.7c-.3,2-2.1,3-4.3,2.6-1.8,0-3.4-1.4-3.8-3.2h0Z"/><path d="m212.1,178.5l-.9,2.5c-.2.6.3.9,1.2,1.1l-.7,1.9c-2.9-.7-3.4-1.9-2.6-3.8l.9-2.5-1.1-.4.8-2,1.1.4.5-1.3h2.3c0,.1-.7,2.1-.7,2.1l1.4.5-.8,2-1.4-.5Z"/><path d="m213.9,181c1.2-1.9,3.7-2.4,5.5-1.2,1.9,1.2,2.4,3.7,1.2,5.5-1.2,1.9-3.7,2.4-5.5,1.2,0,0,0,0,0,0-1.8-1.1-2.4-3.6-1.3-5.4,0,0,0,0,0-.1Zm4.8,3.1c.5-.7.4-1.8-.4-2.3,0,0,0,0-.1,0-.8-.5-1.9-.3-2.4.5,0,0,0,0,0,0-.5.7-.4,1.8.4,2.3,0,0,0,0,.1,0,.8.5,1.9.2,2.4-.6,0,0,0,0,0,0h0Z"/><path d="m227.6,186.7l-1.8,1.8c-.5-.9-1.5-1.2-2.4-.7-.1,0-.3.2-.4.3l-2.4,2.4-1.6-1.6,5.3-5.3,1.6,1.6-.9.9c.9-.4,2-.2,2.6.6Z"/><path d="m232.9,194.8l-6.3,4-1.2-1.9.6-.4c-.8-.2-1.5-.7-2-1.4-1-1.8-.4-4,1.3-5.1,0,0,0,0,0,0,1.7-1.2,4.1-.8,5.3.9.5.7.6,1.6.4,2.4l.6-.4,1.2,1.9Zm-4.4.1c.8-.5,1.2-1.5.7-2.3,0,0,0-.1,0-.2-.5-.8-1.5-1.1-2.3-.6,0,0-.1,0-.2.1-.8.5-1.2,1.5-.7,2.3,0,0,0,.1,0,.2.4.8,1.4,1.1,2.3.7,0,0,.2,0,.2-.2h0Z"/><path d="m236.3,205l-6.8,2c-2.4.7-4-.9-4.5-2.8-.5-1.3-.2-2.8.8-3.9l1.6,1.5c-.5.5-.7,1.2-.4,1.9.1.8.9,1.4,1.7,1.3,0,0,.2,0,.3,0l.7-.2c-.8-.3-1.3-1-1.5-1.8-.5-2,.6-4,2.6-4.6,1.9-.6,4,.4,4.7,2.3,0,0,0,.1,0,.2.3.8.2,1.7-.3,2.4l.7-.2.6,2.1h-.2Zm-4.1-1.1c.9-.2,1.5-1.1,1.2-2,0,0,0-.1,0-.2-.3-1-1.2-1.5-2.2-1.3-.9.2-1.5,1.1-1.2,2,0,0,0,.1,0,.2.2,1,1.2,1.6,2.2,1.4h0Z"/><path d="m231,211.8c0,.5.2,1.1.6,1.4l-1,1.8c-1.1-.8-1.7-2-1.6-3.3-.4-2.2,1-4.3,3.2-4.7s4.3,1,4.7,3.2c0,.4,0,.8,0,1.2,0,2.1-1.6,3.8-3.7,3.8,0,0-.1,0-.2,0h-.9v-5.3c-.7.3-1.2,1-1.1,1.8Zm2.7,1.4c.7-.1,1.3-.8,1.2-1.6,0-.8-.4-1.5-1.2-1.6v3.2Z"/><circle class="cls-4" cx="279.8" cy="327.9" r="45"/><path d="m247,325.4l-.7-2.3c.9-.2,1.7-.6,1.9-1.8.3-1.1-.1-1.5-.5-1.6-.6-.2-1,.4-1.8,1.8-.8,1.4-1.9,2.7-3.8,2.2-2-.5-2.7-2.4-2.3-4.2.4-1.7,1.5-2.8,3.2-3.2l.7,2.2c-.8.2-1.4.5-1.6,1.5-.2.7,0,1.2.5,1.3s.8,0,1.7-1.5c.8-1.4,1.8-3,4-2.5,2,.5,2.7,2.3,2.2,4.5-.5,2.1-1.9,3.3-3.5,3.5h0Z"/><path d="m248.1,316c-1.9-1.1-2.6-3.5-1.5-5.4,1.1-1.9,3.5-2.6,5.4-1.5,1.9,1.1,2.6,3.5,1.5,5.4s-3.5,2.6-5.4,1.5Zm2.8-5c-.9-.5-1.9-.2-2.4.6s-.2,1.8.7,2.4c.9.5,1.9.2,2.4-.6s.2-1.8-.7-2.4Z"/><path d="m252.8,308.1c-1.6-1.6-1.7-4,0-5.6,1-1,2.5-1.4,3.7-1.1l-.5,2.2c-.6-.2-1.2,0-1.6.5-.7.7-.7,1.7,0,2.4.7.7,1.8.7,2.4,0,.5-.5.6-1.1.4-1.6l2.2-.6c.4,1.3,0,2.7-1,3.8-1.6,1.6-4,1.7-5.6,0Z"/><path d="m270.4,300.7l-1.3-.5c-.5.8-1.2,1.4-2.2,1.8-2,.9-3.9.4-4.7-1.4-.5-1.1-.4-2.4.3-3.4-.4-.3-.8-.7-1.1-1.3-.7-1.6,0-3.4,1.9-4.2,1.4-.6,2.9-.4,4.1.7l-1.4,1.9c-.5-.5-1.1-.8-1.7-.5-.5.2-.8.7-.6,1.2s.7.7,1.4,1l2.6,1.2c0-.5,0-1.1-.2-1.7l2.3.2c0,.8,0,1.6,0,2.4l1.8.8-1.3,1.7h.1Zm-3.2-1.4l-2.6-1.1h0c-.2.4-.2.9,0,1.2.3.6.9.9,1.9.5.4-.2.6-.4.9-.6h-.1Z"/><path d="m286.3,299.2h-2.4c0-.1.3-6.2.3-6.2l-2.9,4.3h-.3l-2.5-4.6-.3,6.1h-2.4c0-.1.5-10.6.5-10.6h2.4c0,.1,2.6,4.9,2.6,4.9l3.1-4.5h2.4c0,.1-.5,10.6-.5,10.6Z"/><path d="m291.4,299.3c.6.2,1.2.2,1.5,0l1.3,1.6c-1,.7-2.3.8-3.6.3-2.4-.9-3.3-3.1-2.5-5.2s2.9-3.1,5.1-2.3c2,.8,3,2.9,2.2,5,0,.3-.2.6-.4.8l-5-1.9c0,.8.5,1.3,1.3,1.6h.1Zm2.3-2.1c0-.9-.4-1.4-1.1-1.7-.8-.3-1.5-.1-1.9.5l3,1.1h0Z"/><path d="m306.3,305.9l-2.9,3.6-1.7-1.4,2.8-3.4c.5-.6.5-1.2,0-1.6-.6-.5-1.2-.3-1.8.3l-2.7,3.3-1.7-1.4,2.8-3.4c.5-.6.5-1.2,0-1.6-.6-.5-1.2-.3-1.8.3l-2.7,3.3-1.7-1.4,4.8-5.8,1.7,1.4-.4.5c.6-.2,1.3,0,2.1.6.7.6,1,1.3.9,2,.7-.2,1.5,0,2.3.6,1.3,1.1,1.4,2.8.2,4.2h-.2Z"/><path d="m306.6,307.9c1.9-1.2,4.3-.6,5.5,1.3,1.2,1.9.6,4.3-1.3,5.5s-4.3.6-5.5-1.3c-1.2-1.9-.6-4.3,1.3-5.5Zm3,4.8c.9-.6,1.1-1.6.6-2.4-.5-.8-1.5-1.1-2.4-.5-.9.6-1.1,1.6-.6,2.4s1.5,1.1,2.4.5Z"/><path d="m316.5,319.1l-2.4.8c-.2-.9-1-2-2.4-1.6l-3.2,1.1-.7-2.1,7.1-2.5.7,2.1-1.3.4c1,0,1.8.7,2.1,1.6v.2Z"/><path d="m317.8,328.4l-7.5-1.6c-2.5-.5-3.6-1.7-3.7-3.8l2.1-.3c0,1,.5,1.5,1.5,1.7l6.7-3.9.3,2.5-4.3,2.2,4.7.8.3,2.4h0Z"/><path class="cls-7" d="m270.7,363h-10.5c-1-.5-1.2-1.3-1.2-2.3v-26.8c0-.7.2-.9.9-1.1.5,0,.7-.4.7-.9v-3c0-.5-.2-.8-.7-.9-.8-.2-.9-.4-.9-1.1v-6.4c0-.7.3-1.5.8-2,2-1.9,3.9-3.9,5.9-5.9s1.2-.8,2-.8h24.4v.2c.7.5.9,1.2.9,2-.6.2-.8.3-.8.9v6.5c0,.6.2.8.8.9v16.9c-.2-.5-.5-.8-1-.9h-26.3c-.8,0-1.2.4-1.2,1.3v16.2c0,.9.4,1.4,1.4,1.4h26c.7,0,1.2-.2,1.4-.9v3.8c0,1,0,2-1,2.6h-5.4c-.2-.2-.5-.4-.6-.7-.2-.4-.6-.6-1-.6h-12.5c-.5,0-.9,0-1.1.5-.2.3-.5.6-.8.8l-.2.3Zm9.1-44.8v-3.2c0-.6-.3-.9-.8-.9s-.7.4-.7.9v6.5h0c0,.6.3.9.8.9s.7-.3.7-.8v-3.3h0Zm4.7,0v-3.2c0-.6-.3-1-.8-1s-.8.4-.8,1v6.4c0,.6.3,1,.8,1s.8-.3.8-1v-3.1h0Zm4.7,0v-3.2c0-.6-.3-.9-.8-.9s-.8.4-.8,1v6.4c0,.6.3,1,.8,1s.8-.3.8-.9v-3.2h0v-.2Zm-18.8,0v-3.2c0-.6-.3-.9-.7-.9s-.8.3-.8.9v6.4c0,.6.3.9.7.9s.8-.3.8-.9v-3.2h0Zm4.7,0v-3.2c0-.6-.3-1-.8-.9s-.7.4-.7.9v6.4c0,.6.3.9.8.9s.7-.3.7-.9v-3.2h0Zm-11.4,2.1h0v1.3c0,.4.3.7.7.7s.7-.3.8-.7h0v-2.6c0-.4-.3-.8-.7-.8h0c-.4,0-.7.3-.8.8v1.3h0Z"/><path class="cls-12" d="m292.2,311.9h4.8c.9,0,1.6.7,1.6,1.6v4.7c0,.3,0,.6-.5.6s-.6.3-.6.8v10.1c0,.4,0,.7.5.8.5,0,.6.4.6.8v29.6c0,1-.3,1.7-1.2,2.2h-5.2c.9-.6,1-1.6,1-2.6v-37.8c.5,0,.7-.4.7-1v-6.4c0-.5-.2-.9-.7-1,0-.8-.2-1.5-.9-2v-.4Z"/><path class="cls-32" d="m264.5,355.3v-15.5c0-.9.4-1.3,1.2-1.3h22v15c0,1.6-.3,1.8-1.8,1.8h-21.5,0Z"/><path class="cls-42" d="m264.5,355.3h21.5c1.6,0,1.8-.3,1.8-1.8v-15h4.3c.6,0,.9.4,1,.9v17.1c-.2.7-.7.9-1.4.9h-26c-1,0-1.4-.4-1.4-1.4v-.7h.2Z"/><path class="cls-11" d="m293.2,314.1c.5,0,.7.4.7,1v6.4c0,.5-.2.9-.7,1-.6,0-.8-.3-.8-.9v-6.5c0-.6.2-.8.8-.9h0Z"/><path class="cls-11" d="m279.8,318.2v3.3c0,.5-.3.8-.7.8s-.8-.3-.8-.8h0v-6.6c0-.5.3-.9.7-.9s.8.3.8.9v3.2h0Z"/><path class="cls-11" d="m284.5,318.3v3.1c0,.6-.3,1-.8,1s-.8-.3-.8-1v-6.4c0-.6.3-1,.8-1s.8.4.8,1v3.2h0Z"/><path class="cls-11" d="m289.2,318.3v3.2c0,.6-.3,1-.8.9s-.8-.3-.8-1v-6.4c0-.6.3-1,.8-1s.7.4.8.9v3.4Z"/><path class="cls-11" d="m270.4,318.3v3.2c0,.6-.3.9-.8.9s-.7-.3-.7-.9v-6.4c0-.6.3-1,.8-.9s.7.4.7.9v3.2Z"/><path class="cls-11" d="m275.1,318.3v3.2c0,.6-.3.9-.7.9s-.8-.3-.8-.9v-6.4c0-.6.3-.9.7-.9s.8.3.8.9v3.2Z"/><path class="cls-14" d="m263.7,320.4v-1.3c0-.5.3-.8.8-.8s.8.3.8.8h0v2.6c0,.4-.3.7-.7.7h0c-.5,0-.7-.3-.7-.7v-1.3h-.2Z"/><circle class="cls-4" cx="125.9" cy="327.9" r="45"/><path d="m94.3,332.5l.6-1.1,1.6,1-.7,1.2c.4.5.8,1.1,1,1.8.7,2.4-.6,4.8-3.1,5.5-2.4.7-4.8-.7-5.5-3.1-.7-2.4.6-4.8,3.1-5.5,1-.3,2.1-.2,3,.2Zm.5,2.9l-.9,1.5-1.6-1,1-1.7c-.4,0-.9,0-1.4,0-1.5.4-2.1,1.8-1.8,3.1.4,1.3,1.7,2.1,3.1,1.7,1.5-.4,2.1-1.8,1.8-3.1,0-.2-.1-.4-.2-.6h0Z"/><path d="m89.4,324.8h6.1v1.7h-.6c.5.3.8.9.8,1.8s-.8,2.3-2.5,2.3h-3.8v-1.8h3.5c.8,0,1.1-.5,1.1-1.1s-.4-1.1-1.3-1.1h-3.3v-1.8Z"/><path d="m90.9,316.3l6,1.3-.4,1.8h-.6c.4.4.5,1,.3,1.8-.3,1.6-2,2.6-3.8,2.2-1.8-.4-2.9-2-2.5-3.6s.6-1.3,1.1-1.6h-.6c0,0,.4-1.9.4-1.9h.1Zm2.6,2.4c-.9-.2-1.6.3-1.8,1.1s.3,1.5,1.1,1.7c.9.2,1.6-.3,1.8-1.1.2-.8-.3-1.5-1.1-1.7Z"/><path d="m96.3,309.8l3.4,1.6-.8,1.7-3.2-1.5c-.7-.3-1.2,0-1.5.5-.3.6-.1,1.2.7,1.6l3,1.4-.8,1.7-5.5-2.6.8-1.7.5.2c-.3-.5-.3-1.2,0-1.9.5-1.1,1.8-1.7,3.3-1h.1Z"/><path d="m98.1,306.3l1.8,1.3c.4.3.7,0,1.2-.7l1.4,1c-1.2,2.1-2.2,2.2-3.6,1.2l-1.8-1.3-.6.8-1.4-1,.6-.8-.9-.7.6-1.8,1.4,1,.7-1,1.4,1-.7,1h-.1Z"/><path d="m102.8,298.7l4.2,4.4-1.3,1.3-.4-.4c0,.6-.2,1.2-.8,1.8-.9.9-2.3.9-3.4-.3l-2.6-2.7,1.3-1.3,2.4,2.5c.5.6,1.1.5,1.5,0,.5-.5.6-1.1,0-1.7l-2.3-2.4,1.3-1.3h.1Z"/><path d="m114,294.8l1.8,3.3-1.6.9-1.7-3.2c-.3-.5-.7-.8-1.3-.5-.5.3-.6.8-.3,1.5l1.6,3.1-1.6.9-1.7-3.2c-.3-.5-.7-.8-1.3-.5-.5.3-.6.8-.3,1.5l1.6,3.1-1.6.9-2.9-5.4,1.6-.9.3.5c0-.5.4-1,1.1-1.4.6-.3,1.3-.3,1.8,0,0-.6.4-1.1,1.2-1.5,1.2-.7,2.5-.2,3.2,1.2v-.3Z"/><path d="m115.6,293.7l4.5-1.1.4,1.7-4.5,1.1-.4-1.7Z"/><path d="m121.8,293.8c0-1.8,1.3-3.3,3.1-3.4,1.2,0,2.3.5,2.8,1.5l-1.6,1c-.2-.4-.7-.7-1.2-.6-.8,0-1.4.6-1.3,1.5,0,.8.6,1.4,1.4,1.4s1-.3,1.2-.7l1.6.9c-.5,1-1.5,1.6-2.7,1.7-1.9,0-3.3-1.3-3.4-3.1v-.2Z"/><path d="m128.3,293.6c.3-1.8,2-2.9,3.7-2.6,1.8.3,3,1.9,2.7,3.7-.3,1.8-2,2.9-3.7,2.6-1.8-.3-3-1.9-2.7-3.7Zm4.6.8c0-.9-.4-1.5-1.1-1.7-.8-.1-1.5.3-1.6,1.2s.4,1.5,1.1,1.7c.8.1,1.5-.3,1.6-1.2Z"/><path d="m144.7,298.3l-1.6,3.4-1.7-.8,1.5-3.3c.3-.6.2-1-.4-1.3s-1,0-1.4.6l-1.5,3.1-1.7-.8,1.5-3.3c.3-.6.2-1-.4-1.3-.6-.3-1,0-1.4.6l-1.5,3.1-1.7-.8,2.6-5.5,1.7.8-.2.5c.4-.3,1.1-.3,1.8,0,.7.3,1,.8,1.1,1.4.5-.3,1.2-.3,2,0,1.3.6,1.7,1.9,1,3.3l.3.3Z"/><path d="m150.6,304.3c-1.2,1.4-3.1,1.6-4.3.5-.6-.5-.9-1.2-.9-1.8l-2,2.3-1.4-1.2,5.7-6.4,1.4,1.2-.4.4c.6,0,1.2.1,1.9.6,1.2,1.1,1.3,3,0,4.4Zm-1.4-1.2c.6-.7.5-1.5,0-2.1s-1.5-.5-2.1.2-.5,1.5,0,2.1,1.5.5,2.1-.2Z"/><path d="m157.3,308.3l-5,3.5-1.1-1.5.5-.3c-.6,0-1.2-.3-1.6-1-.7-1-.6-2.4.7-3.3l3.1-2.2,1.1,1.5-2.8,2c-.6.4-.6,1-.3,1.5.4.5,1,.7,1.7.2l2.7-1.9,1.1,1.5h0Z"/><path d="m157.6,313l-2,.9c-.5.2-.3.7,0,1.4l-1.5.7c-1.3-2.1-.9-3,.7-3.7l2-.9-.4-.9,1.6-.8.4.9,1.1-.5,1.3,1.4-1.5.7.5,1.1-1.6.8-.5-1.1h0Z"/><path d="m162,321.1l-5.9,1.5-.5-1.8h.6c-.6-.4-1-.9-1.2-1.7-.4-1.6.6-3.2,2.4-3.6,1.8-.5,3.5.5,3.9,2,.2.8,0,1.4-.3,2h.6c0,0,.5,1.6.5,1.6h0Zm-3.4-1c.9-.2,1.3-1,1.1-1.8-.2-.8-.9-1.3-1.8-1-.9.2-1.3,1-1.1,1.8.2.8.9,1.3,1.8,1Z"/><path d="m160.6,325.6h-2.2c-.5.2-.5.6-.4,1.4h-1.7c-.4-2.3.3-3,2-3.1h2.2v-1.1h1.8c0,0,0,.9,0,.9h1.2l.7,1.7h-1.7v1.4h-1.8c0,0,0-1.2,0-1.2h0Z"/><path d="m162.4,328.4v1.8c0,0-6.2-.4-6.2-.4v-1.8c0,0,6.2.4,6.2.4Zm1.7,0c.6,0,1.1.6,1,1.2,0,.6-.6,1.1-1.2,1s-1.1-.6-1-1.2.6-1.1,1.2-1Z"/><path d="m159.2,331.2c1.8.4,2.8,2.1,2.4,3.9-.4,1.8-2.1,2.9-3.9,2.5s-2.8-2.1-2.4-3.9c.4-1.8,2.1-2.9,3.9-2.5Zm-1,4.5c.8.2,1.5-.3,1.7-1.1s-.3-1.5-1.1-1.7c-.8-.2-1.5.3-1.7,1.1s.3,1.5,1.1,1.7Z"/><path d="m155.5,344.4l-3.4-1.6.8-1.7,3.2,1.5c.7.3,1.2,0,1.5-.5.3-.6,0-1.2-.7-1.6l-3-1.4.8-1.7,5.5,2.6-.8,1.7-.5-.2c.3.5.3,1.2,0,1.9-.5,1.1-1.8,1.7-3.3,1h0Z"/><path class="cls-36" d="m105.7,323.6v-8.8c0-1.4.7-2.1,2.1-2.1h30.5c1.4,0,2.1.7,2.1,2.1v28.7c0,1.2-.7,1.9-1.9,1.9h-30.8c-1.2,0-1.9-.8-1.9-1.9v-19.9h-.1Zm19.2,18.2c.4,0,.6-.3.9-.6.9-.8,1.6-1.7,2.1-2.7s.4-.5.8-.5c.9,0,1.9,0,2.8-.2,2.4-.6,3.7-2.2,3.5-4.5,0-1.2-.6-2.4-1.3-3.4-.4-.5-.4-.9,0-1.5.8-1.2,1.3-2.5,1.3-4,1.3-.9,1.1-2.4,0-3.1-.7-.5-1.4-.4-2,0-.2-.3-.6-.4-.9-.5-1.1-.4-2.2-.5-3.4-.4-.5,0-.8,0-1-.6-.5-1.1-1.2-2-2.1-2.7-1.2-1.1-3-1.4-4.5-.6-1,.5-1.8,1.4-2.4,2.3-.3.5-.5,1.2-1,1.5s-1.2,0-1.8,0c-1.1,0-2.1.2-3,.9-.5-.2-.9-.3-1.4-.2-.7.2-1.2.7-1.4,1.4-.2.9.2,1.5.9,2,0,1.6.6,2.9,1.4,4.2.3.4.3.7,0,1.1-.7,1-1.1,2.1-1.3,3.2-.2,1.6.2,3,1.5,4,1.2.9,2.7,1.2,4.2,1.1.8,0,1.4,0,1.6,1,0,.2.2.4.4.6.7.9,1.3,1.8,2.4,2.2,0,.8.4,1.4,1.1,1.8,1,.5,2.5,0,2.6-1.7h0Z"/><path class="cls-16" d="m105.7,323.6v19.9c0,1.2.7,1.9,1.9,1.9h30.8c1.2,0,1.9-.8,1.9-1.9v-19.9h2.4c2.1.5,3.1,2.1,3.1,4.2v23.1h-45.6v-24c0-1.7,1.7-3.3,3.3-3.4h2.2Z"/><path class="cls-25" d="m100.3,350.9h45.7c0,.8,0,1.5-.3,2.3-.5,1.3-1.5,2-2.8,2.3h-39c-1.9,0-3.5-1.6-3.5-3.5v-1h0Z"/><path class="cls-17" d="m145.9,350.9v-23.1c0-2.2-1-3.7-3.1-4.2h3.2c1.9,0,3.4,1.6,3.5,3.4h0v23.9h-3.7,0Z"/><path class="cls-25" d="m127.6,359.1h0c-.9.7-1.2,1.6-1,2.7h-12.3c-.4,0-.5,0-.5-.5,0-1.5.9-2.4,2.2-2.3h2.7c.4,0,.6,0,.6-.5v-1.3h4.1q1.3,0,1.3,1.3c0,.5.2.6.6.6.7,0,1.4,0,2.2,0Z"/><path class="cls-37" d="m127.6,359.1h-2.2c-.4,0-.6,0-.6-.6q0-1.3-1.3-1.3h-4.1v-1.8h8.2v3.7Z"/><path class="cls-19" d="m145.9,351h3.6c0,1.1,0,2.2-.7,3.1-.6.9-1.6,1.4-2.7,1.4h-3.2c1.3-.3,2.3-1,2.8-2.3.3-.7.3-1.5.3-2.2h-.1Z"/><path class="cls-9" d="m126.7,361.9c-.2-1.1,0-2,1-2.7h2.6c1.4,0,2,1.2,1.8,2.5,0,.3-.3.2-.5.2h-5,.1Z"/><path class="cls-24" d="m135,324.3c0,1.5-.5,2.8-1.3,4-.4.6-.4.9,0,1.5.7,1,1.2,2.1,1.3,3.4.2,2.3-1.1,3.9-3.5,4.5-.9.2-1.9.3-2.8.2-.4,0-.7,0-.8.5-.5,1.1-1.2,2-2.1,2.7-.3.2-.5.5-.9.6,0-.3-.2-.6-.3-.9,1.2-.6,1.8-1.7,2.4-2.8,0-.3,0-.3-.2-.3-1.1-.2-2.3-.5-3.3-.9-.3,0-.6,0-.9,0-1,.4-2.1.7-3.2.9-.5,0-.4.2-.3.6.6,1,1.3,1.9,2.2,2.7l-.2.8c-1.1-.4-1.7-1.3-2.4-2.2-.2-.2-.3-.4-.4-.6-.2-.8-.8-1-1.6-1-1.5,0-3-.2-4.2-1.1-1.3-1-1.7-2.4-1.5-4,.2-1.2.6-2.3,1.3-3.2.3-.4.3-.7,0-1.1-.8-1.3-1.4-2.6-1.4-4.2.3,0,.6.2.9.2,0,1.4.6,2.6,1.4,3.8.9-1.1,1.9-2.1,3-2.9,0,0,.2-.3.2-.4.2-1.1.4-2.2.8-3.3.2-.5,0-.6-.4-.6-1.2,0-2.3.2-3.4.6l-.6-.6c.9-.7,2-.8,3-.9.6,0,1.4.2,1.8,0,.5-.3.6-1,1-1.5.6-.9,1.4-1.8,2.4-2.3,1.5-.8,3.3-.5,4.5.6.9.8,1.6,1.7,2.1,2.7.2.5.5.6,1,.6,1.2,0,2.3,0,3.4.4.3,0,.6.2.9.5-.2.2-.3.5-.6.6-1.1-.4-2.2-.6-3.3-.6s-.6.2-.4.6c.3.9.6,1.9.7,2.8,0,.6.5,1,.9,1.4s.5.4.7.6c.5.5,1,1,1.4,1.5,0,0,.2.4.4,0,.7-1.1,1.2-2.2,1.3-3.5.3,0,.6,0,.9-.2v-.2Zm-17.9,4.9c0,.7,0,1.6,0,2.4s.3.9.7,1.2c1.5,1.1,3.1,2,4.8,2.7.2,0,.5,0,.7,0,1.7-.8,3.4-1.7,4.9-2.8.3-.2.5-.5.5-.8.2-1.9.2-3.9,0-5.8,0-.3-.2-.5-.4-.7-1.6-1.1-3.3-2.1-5.1-2.9h-.6c-1.8.8-3.4,1.7-5,2.8-.2,0-.4.4-.4.7,0,1-.2,2-.2,3.1h0Zm6-12.5c-.3,0-.5,0-.8,0-1.6.5-2.5,1.8-3.3,3.2-.2.3,0,.3.3.3,1.1.2,2.2.5,3.3.9.3,0,.6,0,.9,0,1.1-.4,2.2-.7,3.3-.9.3,0,.4,0,.2-.4-.3-.6-.6-1.1-1-1.6-.8-.9-1.7-1.6-2.9-1.7h0Zm-6.5,20.3h.3q.7,0,.5-.7c-.3-.9-.5-1.8-.7-2.7,0-.3,0-.7-.3-.9-1-.8-1.9-1.6-2.6-2.6-.2-.3-.3-.2-.5,0-.5.7-.8,1.5-1,2.4-.3,1.2-.2,2.4.8,3.3,1,1,2.3,1.1,3.6,1.2h0Zm12.7,0c1.1,0,1.8,0,2.5-.3,1.8-.6,2.6-2,2.3-3.9-.2-1-.6-1.8-1.1-2.6-.2-.4-.3-.4-.6,0-.6.8-1.4,1.6-2.2,2.2-.4.3-.7.8-.7,1.3,0,.8-.3,1.6-.6,2.4q-.3,1,.4,1h0Zm-12.9-5.6c-.2-1.6-.2-3.2,0-4.8-.9.6-1.5,1.4-2.1,2.1-.2.2-.2.4,0,.6h0c.7.7,1.2,1.5,2.1,2.1Zm8-9.4c1.5.7,2.9,1.5,4.2,2.4-.2-1-.4-1.9-.8-2.9,0-.2,0-.4-.4-.4-1,.2-2,.4-3,.8h0Zm-2.6,14.1c-1.5-.7-2.8-1.5-4.2-2.4.2,1,.4,2,.8,2.9,0,.2,0,.3.3.3,1-.2,2-.4,3-.8h.1Zm-4.2-11.6c1.4-1,2.7-1.7,4.2-2.5-1-.3-2-.6-3-.8-.3,0-.3,0-.4.3-.4.9-.6,1.9-.8,2.9h0Zm12.2,2.2c.2,1.6.2,3.2,0,4.8.9-.6,1.5-1.4,2.1-2.1.2-.2,0-.5,0-.7-.6-.7-1.2-1.4-2.1-2h0Zm-5.4,9.4c1.1.4,2,.6,3,.8.2,0,.3,0,.3-.2.4-1,.7-2,.8-3-1.3.9-2.7,1.7-4.2,2.4h.1Z"/><path class="cls-20" d="m132.5,321.7c.3,0,.4-.4.6-.6.7-.3,1.4-.4,2,0,1,.7,1.2,2.2,0,3.1-.3,0-.6.2-.9.2-1.4-.2-2.1-1.2-1.7-2.5v-.3h.1Z"/><path class="cls-20" d="m121.2,341.7l.2-.8c1.3-1.3,2.1-1.3,3.3,0,0,.3.2.6.3.9,0,1.6-1.5,2.2-2.6,1.8-.7-.3-1.1-1-1.1-1.8h-.1Z"/><path class="cls-20" d="m112,324.5c-.3,0-.6,0-.9-.2-.7-.5-1.1-1.1-.9-2,.2-.7.6-1.2,1.4-1.4.5,0,1,0,1.4.2l.6.6c.5,1.7,0,2.6-1.6,2.8Z"/><path class="cls-34" d="m117.1,329.2c0-1,0-2.1.2-3.1,0-.3.2-.5.4-.7,1.6-1.1,3.2-2.1,5-2.8.2,0,.4,0,.6,0,1.8.8,3.5,1.8,5.1,2.9.2,0,.4.4.4.7.2,1.9.3,3.9,0,5.8,0,.3-.2.6-.5.8-1.5,1.1-3.2,2-4.9,2.8-.2,0-.5,0-.7,0-1.7-.8-3.3-1.7-4.8-2.7-.4-.2-.7-.7-.7-1.2,0-.9-.2-1.7,0-2.4h0Zm8.7-.2c0-1.5-1.2-2.7-2.8-2.7s-2.7,1.2-2.7,2.8,1.2,2.7,2.7,2.7,2.7-1.2,2.7-2.7h0Z"/><path class="cls-31" d="m123.1,316.7c1.3,0,2.2.8,2.9,1.7.4.5.7,1,1,1.6.2.3,0,.4-.2.4-1.1.2-2.2.5-3.3.9-.3,0-.6,0-.9,0-1.1-.4-2.2-.7-3.3-.9-.2,0-.4,0-.3-.3.8-1.4,1.6-2.7,3.3-3.2.3,0,.5,0,.8,0h0Z"/><path class="cls-31" d="m116.6,337c-1.3,0-2.6-.2-3.6-1.2-1-.9-1.1-2.1-.8-3.3.2-.8.6-1.6,1-2.4.2-.3.3-.3.5,0,.8,1,1.7,1.8,2.6,2.6.3.3.3.6.3.9.2.9.4,1.8.7,2.7q.2.7-.5.7h-.3,0Z"/><path class="cls-31" d="m129.2,337q-.7,0-.4-1c.2-.8.5-1.6.6-2.4,0-.5.3-1,.7-1.3.8-.6,1.6-1.4,2.2-2.2.2-.3.4-.3.6,0,.5.8.9,1.7,1.1,2.6.3,1.9-.5,3.3-2.3,3.9-.7.2-1.4.3-2.5.3h0Z"/><path class="cls-27" d="m124.7,340.9c-1.1-1.2-1.9-1.2-3.3,0-.9-.7-1.7-1.7-2.2-2.7s-.2-.5.3-.6c1.1-.2,2.1-.5,3.2-.9.3,0,.6,0,.9,0,1.1.4,2.2.7,3.3.9.2,0,.4,0,.2.3-.6,1.1-1.2,2.2-2.4,2.8v.2Z"/><path class="cls-27" d="m112,324.5c1.5-.2,2.1-1.1,1.6-2.8,1.1-.4,2.2-.6,3.4-.6s.6,0,.4.6c-.4,1.1-.7,2.2-.8,3.3,0,.2,0,.3-.2.4-1.1.9-2.1,1.9-3,2.9-.8-1.2-1.4-2.4-1.4-3.8Z"/><path class="cls-27" d="m132.5,321.7v.3c-.4,1.4.3,2.3,1.7,2.5,0,1.3-.6,2.4-1.3,3.5-.2.3-.3,0-.4,0-.4-.5-.9-1-1.4-1.5s-.4-.4-.7-.6c-.4-.4-.8-.7-.9-1.4,0-1-.4-1.9-.7-2.8-.2-.4,0-.6.4-.6,1.1,0,2.3.2,3.3.6Z"/><path class="cls-22" d="m116.4,331.4c-.9-.6-1.5-1.4-2.1-2.1-.2,0-.2-.4,0-.6h0c.6-.7,1.2-1.5,2.1-2.1-.2,1.6-.2,3.2,0,4.8Z"/><path class="cls-22" d="m124.4,322c1-.4,2-.6,3-.8.3,0,.3.2.4.4.4.9.6,1.9.8,2.9-1.3-.9-2.7-1.7-4.2-2.4h0Z"/><path class="cls-22" d="m121.8,336.1c-1.1.4-2,.6-3,.8-.2,0-.3,0-.3-.3-.4-.9-.6-1.9-.8-2.9,1.3.9,2.7,1.7,4.2,2.4h-.1Z"/><path class="cls-22" d="m117.6,324.5c.2-1,.4-2,.8-2.9,0-.2,0-.4.4-.3,1,.2,2,.4,3,.8-1.5.7-2.8,1.5-4.2,2.5h0Z"/><path class="cls-22" d="m129.8,326.7c.9.6,1.4,1.3,2.1,2,.2.2.3.4,0,.7-.7.7-1.2,1.5-2.1,2.1.2-1.6.2-3.2,0-4.8Z"/><path class="cls-22" d="m124.4,336.1c1.4-.7,2.8-1.5,4.2-2.4-.2,1-.4,2-.8,3,0,0,0,.3-.3.2-1-.2-2-.4-3-.8h-.1Z"/><path class="cls-40" d="m125.8,329c0,1.5-1.2,2.8-2.7,2.8s-2.8-1.2-2.8-2.7,1.2-2.8,2.7-2.8h0c1.5,0,2.7,1.2,2.7,2.7h0Z"/></svg>