<?xml version="1.0" encoding="UTF-8"?><svg id="Layer_1" xmlns="http://www.w3.org/2000/svg" viewBox="0 0 400 400"><defs><style>.cls-1{stroke:#a5262d;}.cls-1,.cls-2,.cls-3{stroke-width:4px;}.cls-1,.cls-2,.cls-3,.cls-4{stroke-miterlimit:10;}.cls-1,.cls-2,.cls-3,.cls-4,.cls-5{fill:none;}.cls-6{fill:#1f444f;}.cls-2{stroke:#0018c6;}.cls-7{fill:#cbcbcb;}.cls-8{fill:#2d5a5d;}.cls-9{fill:#f2a745;}.cls-10{fill:#dda927;}.cls-3{stroke:#c000e2;}.cls-11{fill:#f15a24;}.cls-12{fill:#1e4b4c;}.cls-13{fill:#c69c6d;}.cls-14{fill:#6bc048;}.cls-4{stroke:#231f20;stroke-width:2px;}.cls-15{fill:#f0f1ef;}.cls-16{fill:#f0f1f0;}.cls-17{fill:#484645;}.cls-18{fill:#2e5a5d;}.cls-19{fill:#b3b3b3;}.cls-20{fill:#f1f1f1;}.cls-21{fill:#edcd67;}.cls-22{fill:#559a38;}.cls-23{fill:#231f20;}.cls-24{fill:#f0c343;}.cls-25{fill:#1a846e;}.cls-26{fill:#dca826;}.cls-27{fill:#249582;}.cls-28{fill:#edcb61;}</style></defs><line class="cls-5" x1="199.7" y1="251.8" x2="200.2" y2="284.6"/><line class="cls-4" x1="199.7" y1="251.8" x2="200" y2="273.8"/><polygon class="cls-23" points="192.5 271.7 200.2 284.6 207.5 271.5 192.5 271.7"/><line class="cls-5" x1="199.8" y1="115.8" x2="200.3" y2="148.6"/><line class="cls-4" x1="199.8" y1="115.8" x2="200.1" y2="137.8"/><polygon class="cls-23" points="192.6 135.7 200.3 148.6 207.5 135.5 192.6 135.7"/><line class="cls-5" x1="112.2" y1="111.5" x2="160.8" y2="150.8"/><line class="cls-4" x1="112.2" y1="111.5" x2="152.5" y2="144.1"/><polygon class="cls-23" points="146.1 148.5 160.8 150.8 155.5 136.9 146.1 148.5"/><line class="cls-5" x1="287.8" y1="111.5" x2="239.2" y2="150.8"/><line class="cls-4" x1="287.8" y1="111.5" x2="247.6" y2="144.1"/><polygon class="cls-23" points="244.6 136.9 239.2 150.8 254 148.5 244.6 136.9"/><circle class="cls-1" cx="91.3" cy="62.1" r="45"/><path d="m65.2,46.5l1-3c1.1.6,2.6.4,3.5-.5,1.1-1,1-1.7.7-2.1-.6-.6-1.4-.4-3.4.6s-4.1,1.5-5.9-.5c-1.8-2-1.1-4.7.7-6.3,1.6-1.5,3.9-1.9,5.9-1l-1,3c-.9-.5-2.1-.4-2.9.4-.8.7-.8,1.4-.4,1.8s1,.6,3-.4,4.3-1.9,6.2.3c1.8,2,1.2,4.7-1.1,6.7s-4.5,2.1-6.5,1.1h.2Z"/><path d="m70.2,30.6c-.4-.9,0-2,.8-2.4.9-.4,2,0,2.4.8.4.9,0,2-.8,2.4h0c-.9.4-1.9,0-2.4-.8Zm1.5,2.3l2.7-1.4,4.5,8.9-2.7,1.4-4.5-8.9Z"/><path d="m76,25.9l2.9-.9,4.5,13.9-2.9.9-4.5-13.9Z"/><path d="m82.6,26c-.2-1,.5-1.9,1.5-2.1,1-.2,1.9.5,2.1,1.5.2,1-.5,1.9-1.5,2.1-1,.2-1.9-.5-2.1-1.5,0,0,0,0,0,0Zm.7,2.6l3-.5,1.6,9.9-3,.5-1.6-9.9Z"/><path d="m89.2,32.6c.1-2.9,2.6-5.1,5.4-4.9,0,0,.2,0,.3,0,1.9,0,3.5,1.2,4.3,2.9l-2.7,1.3c-.5-1.1-1.9-1.6-3-1.1-.7.3-1.2,1.1-1.3,1.9-.2,1.2.7,2.3,1.9,2.5,0,0,.1,0,.2,0,.8,0,1.6-.3,2-1l2.5,1.7c-1,1.6-2.8,2.4-4.7,2.2-2.9-.2-5.1-2.6-4.9-5.5,0,0,0-.1,0-.2v.2Z"/><path d="m100.1,33.6c1.1-2.7,4.2-3.9,6.9-2.8,2.7,1.1,3.9,4.2,2.8,6.9-1.1,2.7-4.2,3.9-6.9,2.8,0,0,0,0,0,0-2.7-1.1-3.9-4.1-2.8-6.8,0,0,0,0,0-.1Zm7,2.9c.5-1.2,0-2.5-1.1-3.1,0,0,0,0,0,0-1.1-.5-2.4,0-2.9,1.1,0,0,0,.1,0,.2-.6,1.1-.1,2.5,1,3,0,0,.1,0,.2,0,1.1.5,2.4,0,2.9-1.1,0,0,0-.1,0-.2Z"/><path d="m119.6,44.7l-4.2,4.5-2.2-2,3.9-4.2c.7-.6.8-1.7.2-2.3,0,0-.1-.1-.2-.2-.7-.7-1.9-.7-2.6,0,0,0-.2.2-.2.3l-3.7,4-2.2-2,6.8-7.4,2.2,2-.6.7c1.1-.2,2.2.2,2.9,1,1.5,1.4,1.8,3.6,0,5.6h-.1Z"/><rect class="cls-13" x="64.4" y="52.6" width="52" height="37" rx="2.9" ry="2.9"/><path class="cls-17" d="m86.6,83.7c-2.2.1-4.3-.5-6.2-1.6-1.6-1-2.8-2.5-3.4-4.3l5.2-3c.7,2,2.6,3.2,4.7,3.1,2.3,0,2.8-.5,2.8-1.6s-.5-1.2-1.6-1.7c-1-.4-2-.7-3-.9-1.9-.4-3.7-1.4-5.1-2.7-1.3-1.2-2-2.9-1.9-4.7,0-2,.8-3.9,2.3-5.3,1.6-1.4,3.8-2.1,5.9-2,1.9,0,3.7.4,5.3,1.4,1.5,1,2.8,2.3,3.5,4l-5.1,3c-.5-1.6-2-2.7-3.7-2.6-1.7,0-1.3,0-1.6.4-.4.2-.6.7-.6,1.1,0,.5.3,1,.8,1.3,1,.6,2.1,1,3.2,1.3,1.1.4,2,.7,2.8,1,.8.3,1.6.7,2.3,1.2.8.5,1.4,1.3,1.9,2.1.4.9.6,2,.6,3,.1,2.1-.8,4.1-2.5,5.4-1.9,1.4-4.2,2.1-6.5,2h-.1Z"/><path class="cls-17" d="m102.8,64c-.6.6-1.4,1-2.3,1-1.8,0-3.3-1.4-3.3-3.2,0-.9.3-1.8,1-2.4.6-.6,1.4-.9,2.3-.9.9,0,1.7.3,2.3.9.6.6,1,1.4,1,2.3,0,.9-.3,1.7-1,2.3Zm-5.1,19.2v-16.9h5.6v16.9h-5.6Z"/><circle class="cls-1" cx="200" cy="62.1" r="45"/><rect class="cls-19" x="174" y="52.1" width="52" height="37" rx="2.9" ry="2.9"/><path class="cls-17" d="m200.8,82.4l-1.1-3.4h-8l-1,3.4h-6.5l7.5-23.6h7.6l7.8,23.6h-6.3Zm-7.6-8.6h4.8l-2.4-8-2.4,8Z"/><path class="cls-17" d="m208.5,82.4v-24.7h5.6v24.7h-5.6Z"/><path d="m176.1,40.8l-2.4,3.1,1,1.4-1.6,2.1-6.1-9.3,1.9-2.4,10.5,3.7-1.6,2.1-1.6-.6h0Zm-2.2-.8l-3.8-1.4,2.3,3.3,1.5-1.9Z"/><path d="m172.8,31l1.7-1.4,7,8.4-1.7,1.4-7-8.4Z"/><path d="m185,27.2l3.6,6.6-2,1.1-.3-.6c-.1.8-.6,1.5-1.4,1.8-1.3.7-3,.3-3.8-1.1,0-.1-.1-.2-.1-.3l-2.2-4,2-1.1,2,3.8c.3.6,1.1.9,1.7.6,0,0,0,0,0,0,.7-.3.9-1.1.6-1.8,0,0,0-.1-.1-.2l-2-3.6,2-1.1h-.1Z"/><path d="m199.6,26.7l.8,4.5-2.2.4-.8-4.3c0-.6-.5-1.1-1.1-1,0,0-.1,0-.2,0-.7,0-1.1.7-.9,1.6l.7,4.2-2.2.4-.8-4.3c0-.6-.5-1.1-1.1-1,0,0-.1,0-.2,0-.7,0-1.1.7-.9,1.6l.7,4.2-2.2.4-1.3-7.4,2.2-.4v.7c.4-.7,1.1-1.1,1.9-1.2.8-.2,1.6,0,2.1.6.4-.8,1.1-1.3,2-1.4,1.7-.3,3,.7,3.3,2.6l.2-.2Z"/><path d="m201.9,24.3l2.2.2-.6,7.5-2.2-.2.6-7.5Zm0-2c0-.7.8-1.3,1.5-1.2.7,0,1.3.8,1.2,1.5s-.8,1.3-1.5,1.2c0,0,0,0,0,0-.7,0-1.3-.7-1.2-1.4,0,0,0,0,0-.1Z"/><path d="m212.9,29.4l-1.2,4.4-2.2-.6,1.1-4.1c.2-.7-.1-1.4-.8-1.7,0,0,0,0-.1,0-.7-.3-1.5,0-1.7.8,0,.1,0,.2,0,.3l-1.1,3.9-2.2-.6,2-7.2,2.2.6-.2.7c.7-.5,1.5-.6,2.3-.3,1.5.4,2.4,1.9,2,3.4,0,.1,0,.2,0,.3h0Z"/><path d="m222.5,31.4l-3.8,6.4-1.9-1.2.4-.6c-.8.3-1.6.2-2.3-.3-1.3-.8-1.8-2.5-1-3.8,0-.1.1-.2.2-.3l2.4-4,1.9,1.2-2.2,3.7c-.4.5-.3,1.2.2,1.6,0,0,.2.1.2.2.6.4,1.5.2,1.9-.4,0,0,0-.1.1-.2l2.1-3.5,1.9,1.2h0Z"/><path d="m230.3,43.7l-3.5,3-1.5-1.7,3.4-2.9c.6-.5.7-1.1.2-1.6-.4-.5-1.2-.6-1.7-.1,0,0,0,0-.1.1l-3.2,2.7-1.5-1.7,3.4-2.9c.6-.5.7-1.1.2-1.6-.4-.5-1.2-.6-1.7-.1,0,0,0,0-.1.1l-3.2,2.7-1.5-1.7,5.7-4.9,1.5,1.7-.5.4c.8,0,1.5.3,2,.9.5.6.7,1.4.5,2.1.8,0,1.7.3,2.2,1,1,1.2.9,3-.3,4,0,0-.1.1-.2.2v.3Z"/><circle class="cls-1" cx="308.7" cy="61.6" r="45"/><path d="m279.4,46.4c-2.8-2.4-3.1-6.6-.7-9.4.1-.1.2-.3.4-.4,1.5-1.7,3.8-2.5,6.1-2.1l-.7,3c-1.2-.2-2.5.2-3.3,1.1-1.4,1.6-1.2,4.1.4,5.5,1.5,1.3,3.8,1.3,5.3-.1.9-.9,1.3-2.2.9-3.4l2.9-.9c.9,3.7-1.3,7.4-5,8.3-2.3.6-4.7,0-6.4-1.7h0Z"/><path d="m290.9,37.7c-1.2-2.5-.2-5.5,2.3-6.7,2.5-1.2,5.5-.2,6.7,2.3,1.2,2.5.2,5.5-2.3,6.7-2.5,1.2-5.5.2-6.7-2.3,0,0,0,0,0,0Zm6.5-3.1c-.6-1.1-1.9-1.4-2.9-.9s-1.4,1.9-.9,2.9c.5,1,1.8,1.4,2.8.9,1.1-.5,1.6-1.7,1.1-2.8,0,0,0-.1,0-.2Z"/><path d="m312.2,31.6c.4,2.6-1.4,5.1-4,5.5-1,.2-2.1-.1-2.9-.8l.5,4.7-2.8.3-1.5-13.2,2.8-.3v.9c.7-.9,1.7-1.4,2.8-1.5,2.6-.2,4.9,1.8,5.1,4.4,0,0,0,0,0,0h0Zm-2.8.3c0-1.2-1.2-2.2-2.4-2.1,0,0,0,0,0,0-1.2,0-2.1,1.1-2,2.3,0,0,0,.2,0,.3,0,1.2,1.2,2.2,2.4,2.1,0,0,0,0,0,0,1.2,0,2.1-1.1,2-2.3,0,0,0-.2,0-.3Z"/><path d="m324.4,34.3c-.5,2.6-3,4.3-5.6,3.8-1-.2-1.9-.9-2.5-1.8l-1.1,4.6-2.8-.7,3.2-12.9,2.8.7-.2.9c.9-.5,2-.7,3-.4,2.5.8,4,3.4,3.2,6,0,0,0,0,0,0v-.2Zm-2.8-.7c.3-1.2-.5-2.4-1.7-2.7-1.2-.3-2.4.5-2.7,1.7-.3,1.2.5,2.4,1.6,2.7,1.2.3,2.4-.3,2.8-1.5,0,0,0-.1,0-.2h0Z"/><path d="m329,40c.6.4,1.2.5,1.9.4l1.2,2.4c-1.5.6-3.2.3-4.5-.7-2.7-1.8-3.2-4.7-1.6-7.1,1.2-2.5,4.1-3.6,6.6-2.4,2.5,1.2,3.6,4.1,2.4,6.6-.2.4-.5.8-.8,1.2-.2.3-.5.6-.7.9l-5.6-3.7c-.2,1,.3,1.9,1.2,2.4h-.2Zm3.4-1.9c.4-.9,0-2-.9-2.4-.8-.6-1.9-.6-2.6,0l3.4,2.3h.1Z"/><path d="m343,43.2l-2.4,2.1c-.6-1-2.1-2-3.5-.7l-3.2,2.8-1.9-2.1,7.2-6.2,1.9,2.1-1.3,1.1c1.2-.4,2.5,0,3.3.9h-.1Z"/><rect class="cls-11" x="282.7" y="53.6" width="52" height="37" rx="2.9" ry="2.9"/><path class="cls-17" d="m300,84.4c-3.3.1-6.5-1.2-8.8-3.5-4.7-4.9-4.7-12.7,0-17.6,2.3-2.4,5.5-3.6,8.8-3.5,3.5,0,4.1.5,5.9,1.5,1.8,1,3.3,2.4,4.3,4.1l-5.2,3c-.5-.8-1.2-1.5-2-2-.9-.5-2-.7-3-.7-1.7,0-3.4.6-4.6,1.8-1.2,1.2-1.8,2.9-1.7,4.6-.2,3.3,2.3,6.2,5.6,6.4.2,0,.5,0,.7,0,1.1.1,2.1-.1,3-.7.9-.5,1.5-1.1,2-2l5.2,3c-1,1.7-2.5,3.1-4.3,4.1-1.8,1-3.9,1.5-6,1.5h.1Z"/><path class="cls-17" d="m323.3,67h5.6v16.9h-5.6v-1.7c-1.1,1.5-2.9,2.3-4.7,2.2-1.7.1-3.4-.6-4.5-1.9-1.2-1.2-1.7-3-1.7-5.4v-10.1h5.6v9.4c0,.7.2,1.5.7,2,.5.5,1.1.7,1.8.7.7,0,1.5-.3,2-.8.5-.6.8-1.5.7-2.3v-9h0Z"/><circle class="cls-2" cx="200" cy="199.6" r="45"/><path class="cls-25" d="m166.9,196.8c.2-.2.4-.4.7-.4h6.8v3.3c-.5.3-.7.8-.7,1.4v12.7c0,.9.4,1.3,1.3,1.3h4.7c.6,0,1.3-.3,1.1-1.2v-.5h4.6v.3c0,1.1.3,1.4,1.4,1.4h4.6c.8,0,1.1-.4,1.2-1.1v-.6h4.6v.3c0,1.2.2,1.4,1.4,1.4h4.3c.9,0,1.3-.4,1.3-1.3v-.5h4.6v.3c0,1.1.3,1.4,1.4,1.4h4.6c.8,0,1.1-.4,1.2-1.2v-.5h4.6v.4c0,1.1.2,1.2,1.2,1.2h2.6c.8.2,1.6.2,2.4,0,.5,0,.8-.4.8-1,0-.2,0-.5.1-.7h6.8v5h-68.3v-9.6c.3,0,.6-.2.9-.3,1.3-.4,2.1-1.6,2.2-2.9,0-1.4-.8-2.6-2.1-3l-1-.3v-5.6l.7.3Z"/><path class="cls-24" d="m212.8,218.4h1.5v2.3c0,.5.4,1,.9,1,0,0,0,0,.1,0,.7,0,1-.3,1-1v-2.3h1.6v2.3c0,.8.3,1.1,1,1.1.6,0,1-.4,1-1,0,0,0,0,0-.1v-2.3h1.6v2.2c0,.8.3,1.2,1,1.2s1-.4,1-1.2v-2.2h1.5v2.1c0,.8.4,1.2,1.1,1.2s1-.4,1.1-1.2v-2.1h1.5v2.2c0,.5.4,1,.9,1.1.6,0,1-.2,1.1-.8,0-.8.1-1.7.1-2.5h4.4v3.3c0,1-.7,1.8-1.7,1.9h-63.7c-1.1.1-2.2-.5-2.6-1.6v-3.7h4.6v2.2c0,.8.3,1.2,1,1.2s1-.4,1-1.2v-2.2h1.5v2.1c0,.8.4,1.2,1.1,1.2s1-.4,1.1-1.2v-2.1h1.5v2.2c0,.5.4,1,.9,1.1.6,0,1-.2,1.1-.8,0-.8.1-1.7.1-2.5h1.5v2.3c0,.5.4,1,.9,1,0,0,0,0,.1,0,.7,0,1-.3,1-1v-2.3h1.6v2.3c0,.8.3,1.1,1,1.1.6,0,1-.4,1-1,0,0,0,0,0-.1v-2.3h1.5c0,.9,0,1.7.1,2.6,0,.4.4.8.9.7,0,0,0,0,0,0,.7,0,1.1-.4,1.1-1.2v-2.2h1.5v2.1c0,.8.4,1.2,1.1,1.2s1-.4,1.1-1.2v-2.1h1.5v2.3c0,.5.3,1,.9,1.1,0,0,.1,0,.2,0,.7,0,.9-.3.9-1.1v-2.3h1.6v2.3c0,.7.3,1,1,1s1-.3,1-1v-2.3h1.6v2.3c0,.8.3,1.1,1,1.1.6,0,1-.4,1-1,0,0,0,0,0-.1v-2.3h1.5v2.1c0,.8.4,1.2,1.1,1.2s1-.4,1.1-1.2v-2.1h1.5v2.3c0,.5.3,1,.8,1,0,0,0,0,0,0,.6,0,1-.2,1.1-.8.1-.8.1-1.7,0-2.5l-.6.2Z"/><path class="cls-27" d="m235,213.4h-6.8v-12.8c0-.7-.5-1-1.2-1h-4.6c-1.1,0-1.3.3-1.3,1.3v12.3h-4.6v-12.4c0-.9-.3-1.3-1.3-1.3h-4.4c-1.3,0-1.5.3-1.5,1.5v12.2h-4.6v-12.4c0-1-.3-1.3-1.3-1.3h-4.4c-1.2,0-1.4.2-1.4,1.4v12.3h-4.6v-12.3c0-1-.3-1.3-1.3-1.4h-4.7c-.9,0-1.3.3-1.3,1.3v12.4h-4.6v-12.5c0-.6-.3-1.1-.9-1.2,0,0-.2,0-.3,0h-5.3v-3.3h59.1c1.3,0,1.4,0,1.4,1.3v3.9c0,.4-.2.8-.6.9-1.5.3-2.5,1.6-2.5,3.1,0,1.5,1,2.8,2.5,3.1.4,0,.6.3.6.7v4.2Z"/><path class="cls-12" d="m174.5,199.7h3.4c-.4.4-.6.9-.5,1.5v1.4c-.7,0-.9.5-.9,1.1v7.6c-.1.5.2,1.1.8,1.2,0,0,0,0,.1,0,0,.9,0,1.7.4,2.5h-2.7c-.9,0-1.3-.4-1.3-1.3v-12.7c0-.6.2-1.1.7-1.4h0Z"/><path class="cls-8" d="m225.1,199.7h1.8c.5-.1,1.1.2,1.2.8,0,0,0,.1,0,.2v12.8c-.2.2-.1.5-.1.7,0,.5-.3.9-.8,1-.8,0-1.6,0-2.4,0-.4-.7-.2-1.4-.3-2.1.6,0,.9-.4.9-1.1v-7.9c0-.5-.3-1-.9-1.1,0,0,0,0,0,0v-1.5c0-.6,0-1.2.5-1.7h.1Z"/><path class="cls-12" d="m209.2,213.4v-12.2c0-1.2.3-1.5,1.5-1.5h2.6c-.4.4-.6.9-.5,1.5v1.6c-.7,0-1,.3-1.1,1.2v7.4c0,.9.3,1.2,1.1,1.2-.1.8,0,1.7.4,2.4h-2.6c-1.1,0-1.4-.3-1.4-1.4v-.2Z"/><path class="cls-12" d="m185.7,213.4v-12.4c0-.9.3-1.3,1.3-1.3h2.9c-.5.4-.6.9-.5,1.5v1.5c-.7,0-1.1.4-1.1,1.2v7.5c0,.8.4,1.1,1.1,1.2,0,.9-.2,1.7.4,2.5h-2.6c-.9,0-1.4-.3-1.4-1.4v-.3h0Z"/><path class="cls-12" d="m197.5,213.4v-12.3c0-1.2.2-1.4,1.4-1.4h2.5c-.2,1-.3,2-.3,3-.8.1-1.1.4-1.1,1.2v7.6c0,.7.3,1,1.1,1.2,0,.8,0,1.6.3,2.4h-2.4c-1.2,0-1.4-.2-1.4-1.4v-.3h-.1Z"/><path class="cls-12" d="m224.6,212.8c-.1.7,0,1.4.3,2.1h-2.6c-1.1,0-1.2-.2-1.2-1.2v-12.7c0-1.1.3-1.3,1.3-1.3h2.8c-.5.4-.7,1.1-.5,1.7v1.5c-.8.1-1.1.4-1.1,1.2v7.6c0,.7.3,1,1.1,1.2h-.1Z"/><path class="cls-8" d="m189.7,215.1c-.4-.8-.6-1.6-.4-2.5.7,0,1-.4,1-1.1v-7.6c0-.5-.3-1-.9-1.1,0,0,0,0-.1,0v-1.5c0-.6,0-1.1.5-1.5h1.8c1,0,1.3.4,1.3,1.4v12.9c0,.8-.4,1.1-1.2,1.1h-2Z"/><path class="cls-18" d="m212.8,202.9v-1.6c0-.5.1-1.1.5-1.5h1.8c.9,0,1.3.4,1.3,1.3v12.9c0,.8-.3,1.2-1.2,1.2h-2c-.4-.7-.5-1.6-.4-2.4.5,0,1-.3,1.1-.9,0,0,0,0,0-.1v-7.8c0-.6-.4-1-1-1,0,0,0,0-.1,0h0Z"/><path class="cls-18" d="m177.8,215.1c-.4-.8-.5-1.6-.4-2.5.8-.1,1.1-.4,1.1-1.2v-7.6c0-.7-.3-1-1.1-1.2v-1.4c0-.5.1-1.1.5-1.5h1.9c.9,0,1.2.4,1.2,1.2v13c.1.5-.2,1.1-.8,1.2-.1,0-.2,0-.3,0h-2.1,0Z"/><path class="cls-18" d="m201.1,202.7c-.2-1,0-2,.3-3h1.9c1,0,1.3.3,1.3,1.3v12.9c0,.9-.3,1.2-1.3,1.3h-1.9c-.3-.8-.4-1.6-.3-2.4.5,0,1-.5.9-1.1,0,0,0,0,0,0v-7.8c0-.5-.3-1-.9-1.1,0,0,0,0,0,0h0Z"/><path class="cls-10" d="m195,218.4v2.1c0,.8-.4,1.2-1.1,1.2s-1-.4-1.1-1.2v-2.1h2.2Z"/><path class="cls-10" d="m209.2,218.4v2.1c0,.8-.4,1.2-1.1,1.2s-1-.4-1.1-1.2v-2.1h2.2Z"/><path class="cls-10" d="m212.8,218.4v2.5c0,.5-.4.8-.8.8,0,0-.2,0-.3,0-.5,0-.9-.5-.9-1v-2.3h2Z"/><path class="cls-10" d="m227,218.4v2.1c0,.8-.4,1.2-1.1,1.2s-1-.4-1.1-1.2v-2.1h2.2Z"/><path class="cls-10" d="m177.2,218.4v2.1c0,.8-.4,1.2-1.1,1.2s-1-.4-1.1-1.2v-2.1h2.2Z"/><path class="cls-10" d="m191.4,218.4v2.2c0,.8-.4,1.2-1.1,1.2-.4,0-.8-.2-.9-.7,0,0,0,0,0,0,0-.9-.1-1.7-.1-2.6h2.1Z"/><path class="cls-10" d="m180.8,218.4c0,.8,0,1.7-.1,2.5,0,.5-.4.9-.9.8,0,0-.1,0-.2,0-.5,0-1-.5-.9-1.1,0,0,0,0,0,0v-2.2h2.1Z"/><path class="cls-10" d="m230.6,218.4c0,.8,0,1.7-.1,2.5,0,.5-.4.9-.9.8,0,0-.1,0-.2,0-.5,0-1-.5-.9-1.1,0,0,0,0,0,0v-2.2h2.1Z"/><path class="cls-26" d="m202,218.4v2.3c0,.7-.3,1-1,1s-1-.3-1-1v-2.3h2Z"/><path class="cls-26" d="m184.2,218.4v2.3c0,.7-.3,1-1,1-.5,0-1-.4-1-.9,0,0,0,0,0-.1v-2.3h2Z"/><path class="cls-26" d="m187.8,218.4v2.3c0,.5-.3,1-.9,1.1,0,0,0,0-.1,0-.7,0-1-.3-1-1.1v-2.3h2Z"/><path class="cls-26" d="m205.6,218.4v2.3c0,.5-.3,1-.9,1.1,0,0,0,0-.1,0-.7,0-1-.3-1-1.1v-2.3h2Z"/><path class="cls-26" d="m216.3,218.4v2.3c0,.7-.3,1-1,1-.5,0-1-.4-1-.9,0,0,0,0,0-.1v-2.3h2Z"/><path class="cls-26" d="m219.8,218.4v2.3c0,.5-.3,1-.9,1.1,0,0,0,0-.1,0-.7,0-1-.3-1-1.1v-2.3h2Z"/><path class="cls-10" d="m173.6,218.4v2.2c0,.6-.4,1.1-1,1.2-.7,0-1-.3-1-1.2v-2.2h2Z"/><path class="cls-26" d="m198.4,218.4v2.3c0,.8-.3,1.1-.9,1.1s-1-.4-1.1-1.1v-2.3h2Z"/><path class="cls-10" d="m223.4,218.4v2.2c0,.6-.4,1.1-1,1.2-.7,0-1-.3-1-1.2v-2.2h2Z"/><path class="cls-6" d="m177.4,202.6c.8.1,1.1.4,1.1,1.2v7.6c0,.7-.3,1-1.1,1.2-.6,0-1-.5-.9-1.1,0,0,0,0,0-.1v-7.6c0-.5.3-1,.9-1.1,0,0,0,0,0,0h0Z"/><path class="cls-6" d="m224.6,212.8c-.8-.1-1.1-.4-1.1-1.2v-7.6c0-.7.3-1,1.1-1.2.6,0,.9.4.9,1.1v7.9c0,.5-.3,1-.9,1.1,0,0,0,0,0,0h0Z"/><path class="cls-6" d="m212.8,202.9c.5,0,1,.3,1.1.9,0,0,0,0,0,.1v7.8c0,.6-.4,1-1,1,0,0,0,0-.1,0-.7,0-1-.3-1.1-1.2v-7.4c0-.9.3-1.2,1.1-1.2Z"/><path class="cls-6" d="m189.3,202.7c.7,0,1,.4,1,1.1v7.6c0,.5-.3,1-.9,1.1,0,0,0,0-.1,0-.7,0-1.1-.4-1.1-1.2v-7.5c0-.8.4-1.1,1.1-1.2h0Z"/><path class="cls-6" d="m201.1,202.7c.6,0,.9.4.9,1.1v7.8c0,.7-.4.9-.9,1.1-.8-.1-1.1-.4-1.1-1.2v-7.6c0-.7.3-1,1.1-1.2Z"/><path d="m174.8,180.6l1-2.7c1,.6,2.3.5,3.1-.4,1-.9,1-1.5.7-1.9-.5-.6-1.2-.4-3,.4-1.8.8-3.8,1.3-5.3-.6-1.5-1.9-.9-4.3.8-5.7,1.5-1.3,3.6-1.6,5.4-.8l-.9,2.7c-.8-.5-1.9-.4-2.6.3-.7.6-.7,1.2-.4,1.6s.9.5,2.7-.3c1.8-.8,3.9-1.6,5.6.4s1,4.2-1.1,6c-1.6,1.6-4,1.9-5.9.8v.2Z"/><path d="m185,169.3l1.4,2.9c.3.7,1,.5,2,0l1,2.2c-3,1.8-4.4,1.3-5.5-1l-1.4-2.9-1.3.6-1.1-2.3,1.3-.6-.7-1.5,2.1-1.9,1.1,2.3,1.7-.8,1.1,2.3-1.7.8h0Z"/><path d="m188.6,169.6c-.5-2.6,1.2-5.1,3.8-5.6,0,0,0,0,0,0,2.5-.5,5,1.1,5.6,3.7,0,0,0,0,0,.1.5,2.6-1.2,5.1-3.8,5.6,0,0,0,0,0,0-2.5.5-5-1.1-5.6-3.7,0,0,0,0,0-.1Zm6.7-1.3c-.3-1.1-1.4-1.7-2.5-1.4-1.1.3-1.7,1.4-1.4,2.5.3,1,1.2,1.6,2.3,1.4,1.1-.1,1.8-1.1,1.7-2.2,0-.1,0-.2,0-.3Z"/><path d="m205.7,163.8l-.2,3.1c-1-.4-2.2,0-2.6,1-.1.3-.2.6-.2.9l-.3,4.1-2.7-.2.6-9,2.7.2v1.6c.4-1.1,1.5-1.8,2.7-1.6h0Z"/><path d="m217,167.2l-2.9,8.5-2.6-.9.3-.8c-.9.5-2,.6-2.9.2-2.3-.9-3.4-3.6-2.5-5.9.9-2.5,3.4-3.9,5.6-3.1,1,.3,1.7,1,2.2,1.9l.3-.8,2.6.9h-.1Zm-4,3.4c.4-1.1,0-2.3-1.1-2.7,0,0-.1,0-.2,0-1-.4-2.2,0-2.6,1.1,0,0,0,.2,0,.3-.4,1.1,0,2.3,1.1,2.7,0,0,.1,0,.2,0,1,.4,2.2,0,2.6-1.1,0,0,0-.2,0-.3h0Z"/><path d="m227.8,174.9l-5.3,6.7c-1.9,2.4-4.5,1.9-6.4.4-1.5-1-2.2-2.7-2-4.4l2.6.4c-.1.8.2,1.7.9,2.2.6.7,1.7.8,2.5.1.1-.1.3-.3.3-.4l.5-.7c-1,.2-2,0-2.8-.7-2-1.6-2.3-4.4-.7-6.4,1.6-2,4.4-2.3,6.4-.7.8.6,1.3,1.5,1.3,2.5l.6-.7,2.1,1.6h0Zm-4.7,1.8c.8-.9.7-2.3-.3-3.1-.9-.8-2.3-.7-3.1.3-.8.9-.7,2.3.3,3.1,0,0,0,0,0,0,.8.8,2.1.7,2.8,0,0,0,.1-.1.2-.2Z"/><path d="m227.2,185.4c.3.5.9.9,1.5,1.1v2.5c-1.5,0-2.9-1-3.6-2.3-1.6-2.1-1.2-5,.9-6.6.1,0,.2-.2.3-.2,2.1-1.5,4.9-1,6.4,1.1,0,.1.1.2.2.3,1.4,2.1.8,4.9-1.3,6.3,0,0-.1,0-.2.1-.3.2-.6.4-1,.5l-3.5-5.3c-.5.8-.5,1.8.1,2.5h.2Zm3.6-.4c.6-.7.7-1.7.1-2.4-.4-.8-1.4-1.2-2.3-.9l2.1,3.2h0Z"/><circle class="cls-3" cx="200" cy="338.4" r="45"/><path d="m157.7,340.7l.5-2.6,8.1-.6-7.4-3.4.3-2,8.1-.8-7.4-3.2.5-2.6,10.5,4.9-.5,2.9-6.8.7,6.2,2.9-.5,2.9-11.6,1.2v-.3Z"/><path d="m169,317l6.9,4.1-1.2,2.1-.6-.4c.3.8.2,1.6-.4,2.5-1.1,1.8-3.5,2.4-5.6,1.1-2.1-1.2-2.8-3.6-1.7-5.4.5-.9,1.3-1.4,2.1-1.6l-.6-.4,1.2-2.1h0Zm2.2,4.1c-1-.6-2.1-.3-2.6.6-.6,1-.3,2,.7,2.6s2.1.3,2.6-.6c.6-1,.3-2-.7-2.6Z"/><path d="m174.8,314.2l2,2c.5.5,1,.1,1.6-.7l1.6,1.5c-2,2.5-3.3,2.5-4.9.9l-2-2-.9.9-1.6-1.6.9-.9-1.1-1.1,1.2-2.2,1.6,1.6,1.2-1.2,1.6,1.6-1.2,1.2Z"/><path d="m177.9,313.4c-1.3-2-.8-4.5,1.2-5.9,1.3-.9,2.9-.9,4.1-.3l-1.1,2.2c-.5-.3-1.2-.3-1.8.1-.9.6-1.1,1.6-.5,2.5s1.7,1.1,2.5.5c.6-.4.9-1,.8-1.6l2.4-.2c0,1.4-.6,2.9-1.9,3.7-2,1.3-4.5.8-5.9-1.2l.2.2Z"/><path d="m192.7,305.3l1.5,4.7-2.3.7-1.4-4.3c-.3-.9-1-1.2-1.8-1-.8.3-1.3,1-.9,2l1.4,4.2-2.3.7-3.5-10.6,2.3-.7,1.2,3.8c.2-.7.9-1.3,1.9-1.6,1.5-.5,3.2.2,3.9,2.2h0Z"/><path d="m194.9,304l6.1-.3v2.3c0,0-5.9.3-5.9.3v-2.3h-.2Z"/><path d="m203.7,301.8l2.4.3-1,7.9-2.4-.3,1-7.9Zm0-2.2c0-.8.8-1.3,1.6-1.2.8,0,1.3.8,1.2,1.6,0,.8-.8,1.3-1.6,1.2s-1.3-.8-1.2-1.6Z"/><path d="m215.1,307.9l-1.6,4.6-2.3-.8,1.5-4.3c.3-.9,0-1.6-.8-1.8-.8-.3-1.6,0-1.9,1.1l-1.4,4.1-2.3-.8,2.6-7.6,2.3.8-.2.7c.6-.4,1.5-.5,2.5-.2,1.5.5,2.5,2.1,1.7,4.1h0Z"/><path d="m220,310l-1.5,2.4c-.4.6,0,1,1,1.5l-1.2,1.8c-2.8-1.4-3.1-2.7-1.9-4.6l1.5-2.4-1.1-.7,1.2-1.9,1.1.7.8-1.3,2.4.7-1.2,1.9,1.4.9-1.2,1.9-1.4-.9h0Z"/><path d="m223.1,317.5c.5.5,1,.7,1.5.7l.6,2.1c-1.3.2-2.6-.2-3.6-1.3-1.9-1.9-1.8-4.4,0-6.1,1.7-1.7,4.2-1.7,6,0,1.6,1.7,1.6,4.2,0,5.9-.2.2-.5.4-.7.6l-4-4c-.4.8,0,1.5.6,2.2h-.2Zm3.1-1c.5-.8.2-1.6-.3-2.1-.6-.6-1.4-.8-2.1-.3l2.4,2.4Z"/><path d="m234.2,322.1l-2.3,1.4c-.4-.9-1.5-1.9-2.8-1.1l-3.1,1.9-1.3-2,6.8-4.2,1.3,2-1.2.7c1.1-.3,2.1.4,2.6,1.2h0Z"/><path d="m234.6,332.6l-4.7,1.5-.8-2.3,4.3-1.4c.9-.3,1.2-1.1.9-1.8-.3-.8-1-1.2-2-.9l-4.1,1.4-.8-2.3,7.6-2.5.8,2.3-.7.2c.7.2,1.3.9,1.6,1.9.5,1.5-.2,3.2-2.2,3.9h0Z"/><path d="m238.4,342.9l-8,.3v-2.4h.7c-.6-.5-1-1.3-1.1-2.4,0-2.1,1.7-3.9,4.1-4,2.4,0,4.3,1.6,4.3,3.7s-.3,1.9-.9,2.4h.8v2.4h0Zm-4.1-2.3c1.2,0,1.9-.9,1.9-2s-.8-1.9-2-1.8c-1.2,0-1.9.9-1.9,2s.8,1.9,2,1.8Z"/><path d="m241.5,346.5l-.4,2.4-11.5-2.1.4-2.4,11.5,2.1Z"/><path class="cls-14" d="m174,362.1v-28.8c0-.5.2-.6.7-.6h4.5v2c0,.5,0,.6.6.6h2.4c.4,0,.5,0,.5-.5v-2.1h3.4v2c0,.5,0,.6.6.6h2.4c.4,0,.5,0,.5-.5v-2.1h3.4v2c0,.5,0,.6.6.6h2.4c.4,0,.5,0,.5-.5v-2.1h7.8v4c0,.4,0,.6-.4.8-1,.6-1.5,1.8-1.2,2.9.4,1.4,1.8,2.2,3.2,1.8,1.4-.4,2.2-1.8,1.8-3.2s-.6-1.2-1.2-1.6c-.2,0-.4-.2-.4-.6v-4.1h3.4v8.2c0,.5.2,1,.5,1.3l5.4,5.4c.3.3.3.5.2.8-.5,1.6.8,3.2,2.4,3.3,1.2,0,2.1-.6,2.6-2.1v7.3h-.8c-.6,0-.9.3-.9.9h-3.4v-.3c0-.5,0-.6-.6-.6h-2.4c-.3,0-.5,0-.5.4v2.6c0,.4,0,.5.5.4h2.2q.8,0,.8-.9h3.5c0,.6.3.9.9.9h.6c-.2.9-1.3,1.7-2.3,1.7h-10.4c0-1.1-.5-1.9-1.5-2.3-.3,0-.3-.3-.3-.5v-3.9c0-.7-.3-1-1-1h-8.5v-1.8h10c.4,0,.6,0,.8.4.5,1,1.8,1.5,2.9,1.2,1.4-.4,2.2-1.8,1.8-3.2-.2-.9-1-1.6-1.9-1.8-1.1-.3-2.3.2-2.9,1.2-.2.4-.4.4-.8.4h-10v-1.7h3q1.4,0,1.3-1.4c0-.3,0-.4-.4-.4h-3.9v-1.8h3q1.4,0,1.3-1.4c0-.3,0-.4-.4-.4h-3.9v-1.4c0-.3,0-.4-.3-.4h-1.4v-3q0-1.4-1.4-1.3c-.3,0-.4,0-.4.4v4h-1.8v-3q0-1.4-1.4-1.3c-.3,0-.4,0-.4.4v4h-1.8v-3q0-1.4-1.4-1.3c-.3,0-.4,0-.4.4v4h-1.8v-3q0-1.4-1.4-1.3c-.3,0-.4,0-.4.4v4h-1.4c-.3,0-.4,0-.3.4v1.4h-3q-1.4,0-1.3,1.4c0,.3.1.4.4.4h3.9v1.8h-3q-1.4,0-1.3,1.4c0,.3.1.4.4.4h3.9v1.8h-3q-1.4,0-1.3,1.4c0,.3.1.4.4.4h3.9v1.8h-3q-1.4,0-1.3,1.4c0,.3.1.4.4.4h3.9v1.4c0,.3,0,.4.3.4h1.4v4.3h-8.7l.6-.6Z"/><path class="cls-22" d="m174,362.1h28.6c0,.5.2,1,.5,1.5.6.9,1.7,1.3,2.8,1.1,1.2-.3,1.8-1.2,2-2.5h10.4c1.1,0,2.1-.8,2.3-1.7h1.6c.3,0,.4,0,.4-.4v-2.8c0-.3,0-.4-.4-.4h-1.4v-23.7c0-.5,0-.6.6-.6h4.1c.5,0,.6,0,.6.6v33.5c0,.5,0,.6-.6.6h-4.2c-.3,0-.4,0-.4-.4-.3-1.8-1.7-3.1-3.5-3.1s-3.2,1.3-3.4,3.1c0,.3,0,.4-.4.3h-38.8c-.5,0-.6,0-.6-.6v-4.6h-.2Z"/><path class="cls-14" d="m220.8,333.2v15.4c-.7-1.8-1.5-2.2-3.5-1.9-.2,0-.3,0-.5-.2-1.8-1.8-3.5-3.5-5.3-5.3-.2,0-.3-.3-.3-.6v-8h1.9c.5,0,.7,0,.7.6.2,1.3,1,2.2,2.2,2.6,1.8.7,3.7-.3,4.4-2h0c0-.3,0-.4.2-.6h.2Z"/><path class="cls-15" d="m211.3,332.7v8c0,.2,0,.4.3.6,1.8,1.8,3.5,3.5,5.3,5.3,0,0,.2.3.5.2,2-.4,2.8,0,3.5,1.9v1c-.6,1.4-1.4,2.1-2.6,2.1-1.7,0-2.9-1.7-2.4-3.3,0-.4,0-.6-.2-.8-1.8-1.8-3.6-3.6-5.4-5.4-.4-.3-.6-.8-.5-1.3v-8.2h1.8-.3Zm6.9,17.3c.5,0,.9-.4.9-.8s-.4-.9-.8-.9-.9.4-.9.8h0c0,.5.4.9.8.9Z"/><path class="cls-16" d="m206.1,332.7v4.1c0,.4.2.4.4.6,1.2.7,1.7,2.3,1,3.5s-2.3,1.7-3.5,1c-.6-.3-1-.9-1.2-1.6-.3-1.1.2-2.3,1.2-2.9.4-.2.4-.4.4-.8v-3.9h1.8-.1Zm-.9,6.1c-.5,0-.9.4-.9.9s.4.9.9.9.9-.4.9-.9h0c0-.5-.4-.9-.9-.9h0Z"/><path class="cls-28" d="m179.2,334.4v-3.9c0-.3,0-.4.4-.4h2.2v3.3c0,.6-.3,1-1,1s-1.1,0-1.6,0Z"/><path class="cls-28" d="m186.2,334.4v-3.9c0-.3,0-.4.4-.4h2.2v3.3c0,.6-.3,1-1,1s-1.1,0-1.6,0Z"/><path class="cls-28" d="m193.1,334.4v-3.9c0-.3,0-.4.4-.4h2.2v3.3c0,.6-.3,1-1,1s-1.1,0-1.6,0Z"/><path class="cls-9" d="m186.2,334.4h1.6c.6,0,1-.3,1-1v-3.3h0c.5,0,.8.2.8.7v4c0,.4,0,.5-.5.5h-2.4c-.5,0-.6-.2-.6-.6,0,0,0-.2,0-.3Z"/><path class="cls-9" d="m179.2,334.4h1.6c.6,0,1-.3,1-1v-3.3h.1c.5,0,.8.2.8.7v4c0,.4,0,.5-.5.5h-2.4c-.5,0-.6-.2-.6-.6v-.3Z"/><path class="cls-9" d="m193.1,334.4h1.6c.6,0,1-.3,1-1v-3.3h0c.5,0,.8.2.8.7v4c0,.4,0,.5-.5.5h-2.4c-.5,0-.6-.2-.6-.6,0,0,0-.2,0-.3Z"/><path class="cls-22" d="m194.8,342.2h1.4c.3,0,.4,0,.3.4v14.9c0,.3,0,.4-.3.4h-14.9c-.3,0-.4,0-.3-.4v-14.9c0-.3,0-.4.3-.4h13.5Zm-10.4,10.4v1.3c0,.4,0,.4.5.4h7.7c.4,0,.5,0,.5-.5v-6.5c0-.5.2-1.2,0-1.6s-1.1,0-1.6,0h-6.5c-.3,0-.4,0-.4.4v6.5h-.1Z"/><path class="cls-16" d="m196.5,356v-1.7h8.5c.7,0,1,.3,1,1v3.9c0,1.3,0,.4.3.5,1,.5,1.4,1.3,1.5,2.3,0,1.3-.8,2.2-2,2.5-1.1.3-2.2,0-2.8-1.1-.3-.4-.4-.9-.5-1.5,0-1.1.5-1.9,1.5-2.3.2,0,.3-.3.3-.5v-2.6c0-.5,0-.6-.6-.6h-7.2Zm9.5,6.1c0-.5-.4-.9-.9-.9s-.9.4-.9.9.4.9.9.9h0c.5,0,.8-.4.8-.9h.1Z"/><path class="cls-16" d="m196.5,352.6v-1.7h10c.4,0,.6,0,.8-.4.6-1,1.7-1.5,2.9-1.2,1.4.3,2.2,1.7,1.9,3.1-.2.9-.9,1.6-1.8,1.9-1.2.3-2.4-.2-2.9-1.2s-.4-.4-.8-.4h-10.1Zm13-1.7c-.5,0-.9.4-.9.9s.4.9.9.9.9-.4.9-.9h0c0-.5-.4-.8-.9-.8h0Z"/><path class="cls-7" d="m215.6,359.5c0,.6-.3.9-.8.9h-2.2c-.3,0-.5,0-.5-.4v-2.6c0-.4,0-.5.5-.4h2.4c.5,0,.7,0,.6.6v2h0Z"/><path class="cls-7" d="m220.8,356.9h1.4c.3,0,.4,0,.4.4v2.8c0,.3,0,.4-.4.4h-2.2c-.6,0-.9-.3-.9-.9v-1.7c0-.6.3-.9.9-.9h.9-.1Z"/><path class="cls-20" d="m194.8,342.2h-1.7v-4c0-.3,0-.4.4-.4q1.4,0,1.4,1.3v3h-.1Z"/><path class="cls-20" d="m180.9,343.9v1.7h-3.9c-.3,0-.4,0-.4-.4q0-1.4,1.3-1.4h3Z"/><path class="cls-20" d="m196.5,345.6v-1.7h3.9c.3,0,.4,0,.4.4q0,1.4-1.3,1.4h-3Z"/><path class="cls-20" d="m180.9,347.4v1.7h-3.9c-.3,0-.4,0-.4-.4q0-1.4,1.3-1.4h3Z"/><path class="cls-20" d="m196.5,349.1v-1.7h3.9c.3,0,.4,0,.4.4q0,1.4-1.3,1.4h-3Z"/><path class="cls-20" d="m180.9,350.9v1.7h-3.9c-.3,0-.4,0-.4-.4q0-1.4,1.3-1.4h3Z"/><path class="cls-20" d="m180.9,354.3v1.7h-3.9c-.3,0-.4,0-.4-.4q0-1.4,1.3-1.4h3Z"/><path class="cls-20" d="m184.4,342.2h-1.7v-4c0-.3,0-.4.4-.4q1.4,0,1.4,1.3v3h-.1Z"/><path class="cls-20" d="m187.9,342.2h-1.7v-4c0-.3,0-.4.4-.4q1.4,0,1.4,1.3v3h-.1Z"/><path class="cls-20" d="m182.7,357.8h1.7v4.3h-1.7v-4.3Z"/><path class="cls-20" d="m191.3,342.2h-1.7v-4c0-.3,0-.4.4-.4q1.4,0,1.4,1.3v3h-.1Z"/><path class="cls-20" d="m219.1,357.8v1.7h-3.5v-1.7h3.5Z"/><path class="cls-14" d="m196.5,356h7.2c.5,0,.6.2.6.6v2.6c0,.2,0,.4-.3.5-1,.5-1.4,1.3-1.5,2.3h-7.8v-4.3h1.4c.3,0,.4,0,.3-.4v-1.4h0Z"/><path class="cls-14" d="m184.4,362.1v-4.3h1.8v4.3h-1.8Z"/><path class="cls-20" d="m186.2,362.1v-4.3h1.7v4.3h-1.7Z"/><path class="cls-14" d="m187.9,362.1v-4.3h1.8v4.3h-1.8Z"/><path class="cls-20" d="m189.6,362.1v-4.3h1.7v4.3h-1.7Z"/><path class="cls-20" d="m194.8,357.8v4.3h-1.7v-4.3h1.7Z"/><path class="cls-14" d="m193.1,357.8v4.3h-1.8v-4.3h1.8Z"/><path class="cls-21" d="m218.2,350c-.5,0-.9-.4-.9-.9s.4-.9.9-.9.9.4.9.9h0c0,.5-.4.8-.9.8h0Z"/><path class="cls-21" d="m205.2,338.7c.5,0,.9.4.9.9s-.4.9-.9.9-.9-.4-.9-.9h0c0-.5.4-.9.9-.8h0Z"/><path class="cls-28" d="m184.4,352.6v-6.5c0-.3,0-.4.4-.4h6.5v4.1c0,1.7-1.1,2.8-2.8,2.8h-4.1Z"/><path class="cls-9" d="m184.4,352.6h4.1c1.7,0,2.8-1.1,2.8-2.8v-4.1c.6,0,1.3-.2,1.6,0s0,1,0,1.6v6.5c0,.4,0,.5-.5.5h-7.7c-.3,0-.5,0-.5-.4v-1.3h.1Z"/><path class="cls-21" d="m206.1,362.1c0,.5-.4.9-.8.9s-.9-.4-.9-.8.4-.9.8-.9h0c.5,0,.9.4.9.8Z"/><path class="cls-21" d="m209.5,350.8c.5,0,.9.4.9.9s-.4.9-.9.9-.9-.4-.9-.9h0c0-.5.4-.9.9-.9Z"/></svg>