<?xml version="1.0" encoding="UTF-8"?><svg id="Layer_1" xmlns="http://www.w3.org/2000/svg" viewBox="0 0 400 400"><defs><style>.cls-1{stroke:#a5262d;}.cls-1,.cls-2,.cls-3{stroke-width:4px;}.cls-1,.cls-2,.cls-3,.cls-4{stroke-miterlimit:10;}.cls-1,.cls-2,.cls-3,.cls-4,.cls-5{fill:none;}.cls-6{fill:#fff;}.cls-7{fill:#535454;}.cls-2{stroke:#0018c6;}.cls-8{fill:#d2febf;}.cls-9{fill:#999afe;}.cls-3{stroke:#c000e2;}.cls-10{fill:#fef3d6;}.cls-11{fill:#00f6d5;}.cls-12{fill:#989afe;}.cls-13{fill:#bacce9;}.cls-14{fill:#02f6d5;}.cls-15{fill:#656565;}.cls-16{fill:#c7c7c7;}.cls-17{fill:#bdbdbd;}.cls-18{fill:#03f6d5;}.cls-19{fill:#ecf5fe;}.cls-20{fill:#debcef;}.cls-21{fill:#f1d0fe;}.cls-22{fill:#fe5f7a;}.cls-4{stroke:#231f20;stroke-width:2px;}.cls-23{fill:#625260;}.cls-24{fill:#00244d;}.cls-25{fill:#b7b7fe;}.cls-26{fill:#b9cce9;}.cls-27{fill:#979bfd;}.cls-28{fill:#aaa;}.cls-29{fill:#4e3d4d;}.cls-30{fill:#484645;}.cls-31{fill:#dcdcdc;}.cls-32{fill:#b3b3b3;}.cls-33{fill:#fe7e92;}.cls-34{fill:#b8b8fd;}.cls-35{fill:#014767;}.cls-36{fill:#eee;}.cls-37{fill:#d7e1f2;}.cls-38{fill:#231f20;}.cls-39{fill:#00dbe6;}.cls-40{fill:#474847;}.cls-41{fill:#fefefe;}</style></defs><line class="cls-6" x1="169.6" y1="255.3" x2="147.4" y2="279.5"/><line class="cls-4" x1="169.6" y1="255.3" x2="154.7" y2="271.6"/><polygon class="cls-38" points="150.7 264.9 147.4 279.5 161.7 275 150.7 264.9"/><line class="cls-6" x1="230.4" y1="255.3" x2="252.6" y2="279.5"/><line class="cls-4" x1="230.4" y1="255.3" x2="245.3" y2="271.6"/><polygon class="cls-38" points="238.3 275 252.6 279.5 249.3 264.9 238.3 275"/><circle class="cls-2" cx="200" cy="207" r="45"/><path class="cls-36" d="m193.2,233.8h-8.3c0-.2-.2-.2-.4-.2-1-.3-1.6-1.2-1.6-2.2v-32.9c.6.8,1.4.8,1.9.1.3-.5.2-1.1-.2-1.5-.2-.1-.4-.2-.7-.2-.4,0-.8.3-1,.7-.3-1.1.2-2.2,1.2-2.8.1,0,.4,0,.4-.3h8.9c-.1.1-.3.1-.5.2-.9.5-1.5,1.5-1.4,2.5v33.9c0,1.1.6,2.1,1.6,2.5v.2h.1Z"/><path class="cls-7" d="m195.4,194.5h22.5c1.2.3,2.1,1.4,1.9,2.7v33.8c.2,1.3-.7,2.5-2,2.7-.2,0-.4,0-.7,0h-21.7q0-.1-.2-.2c-.8-.3-1.3-1-1.4-1.8-.1-1.1,0-2.3,0-3.5,0,.2.3.3.5.3h22.6c.8,0,.9-.1.9-.9v-28.8c0-.7-.2-.9-.9-.9h-22.4c-.3,0-.5,0-.7.2-.2-.4,0-.8,0-1.1,0-1,.5-1.9,1.4-2.3.1,0,.2,0,.2-.2Zm8.7,36.7c0,.9.7,1.6,1.6,1.7.9,0,1.7-.7,1.7-1.7,0,0,0,0,0,0,0-.9-.8-1.6-1.7-1.7-.9,0-1.7.7-1.7,1.6,0,0,0,0,0,.1h.1,0Zm2.2-34.9c0-.3-.2-.5-.6-.5-.3,0-.6.3-.6.6,0,.3.3.6.6.6.3,0,.6-.2.6-.4,0,0,0-.1,0-.2h0Z"/><path class="cls-31" d="m184.6,194.5c0,.2-.3.2-.4.3-1,.5-1.5,1.7-1.2,2.8,0,.3,0,.6,0,.9-.1.1,0,.3,0,.4v32.5c0,1,.7,1.9,1.6,2.2.2,0,.3,0,.4.2h-2.4c0-.2-.1-.2-.2-.2-.7-.2-1.2-.7-1.5-1.4,0-.1,0-.2-.2-.2v-35.8c0,0,.1,0,.2-.1.2-.6.8-1.2,1.4-1.4,0,0,.1,0,.1-.2h2.2Z"/><path class="cls-40" d="m195.4,194.5c0,.2-.1.2-.2.2-.9.4-1.5,1.3-1.4,2.3,0,.4,0,.7,0,1.1-.1.7-.2,1.3-.1,2v28.2c0,1.2-.1,2.3,0,3.5,0,.8.6,1.5,1.4,1.8.1,0,.2,0,.2.2-.7,0-1.5,0-2.2-.1-1-.4-1.7-1.4-1.6-2.5v-33.9c0-1,.5-2,1.4-2.5.2,0,.4,0,.5-.2h2Z"/><path class="cls-7" d="m183,198.5c0-.3,0-.6,0-.9.2-.4.6-.7,1-.7-.3.9.1,1.5.9,1.6h0c-.5.7-1.3.7-1.9-.1h0Z"/><path class="cls-15" d="m184.9,198.6h0c-.7-.1-1.1-.7-.9-1.6.6,0,1.1.4,1.1,1,0,.2,0,.5-.2.7h0Z"/><path class="cls-15" d="m204,231.2c0-.9.7-1.7,1.7-1.7,0,0,0,0,0,0,.9,0,1.7.8,1.7,1.7,0,.9-.7,1.7-1.7,1.7,0,0,0,0,0,0-.9,0-1.6-.8-1.7-1.7Zm2.1,0c0-.3-.2-.5-.4-.5,0,0,0,0,0,0-.3,0-.6.3-.5.5s.2.5.5.4c.3,0,.5-.2.5-.4,0,0,0,0,0,0h0Z"/><path class="cls-15" d="m206.3,196.2c0,.3-.2.6-.4.6,0,0-.1,0-.2,0-.3,0-.6-.3-.6-.6,0-.3.3-.6.6-.6.4,0,.5.2.6.5h0Z"/><path class="cls-7" d="m206.2,231.1c0,.3-.2.5-.4.5,0,0,0,0,0,0-.2,0-.5-.2-.5-.4,0-.3.3-.6.5-.5.3,0,.5.2.5.4,0,0,0,0,0,0h0Z"/><path d="m165.6,196l-.8,2.8,8.4,2.4-.7,2.5-8.4-2.4-.8,2.8-2.4-.7,2.3-8,2.4.7h0Z"/><path d="m170.7,188.3l7,4-1.2,2.1-.7-.4c.3.9.2,1.8-.3,2.6-1.4,1.9-4.1,2.3-6,1-1.6-1.2-2.2-3.3-1.4-5.2.4-.8,1.1-1.4,2-1.6l-.7-.4,1.2-2.1h0Zm2.3,4.1c-.8-.6-1.9-.4-2.4.4,0,0-.1.2-.2.3-.5.9-.3,2,.6,2.5,0,0,.1,0,.2.1.8.6,1.9.4,2.4-.4,0,0,.1-.2.2-.3.5-.9.3-2-.6-2.5,0,0-.1,0-.2-.1Z"/><path d="m181.8,182.7c1.6,1.6,1.6,4.1,0,5.7,0,0,0,0,0,0-.6.6-1.5,1-2.4.9l.5.5-1.8,1.6-7.6-8.2,1.8-1.6,2.7,2.9c0-.9.4-1.7,1.1-2.3,1.7-1.4,4.2-1.2,5.6.4,0,0,0,0,0,0Zm-1.8,1.6c-.7-.7-1.9-.7-2.7,0-.7.7-.7,1.9,0,2.7.7.7,1.9.7,2.6,0,.7-.6.9-1.7.2-2.5,0,0-.2-.2-.2-.2h0Z"/><path d="m179.4,175.4l2.1-1.2,6,10-2.1,1.2-6-10Z"/><path d="m191.6,180.3c.6-.1,1-.6,1.2-1.1l2.2.4c-.4,1.3-1.4,2.3-2.7,2.7-2.1.9-4.6,0-5.5-2.2,0,0,0-.2-.1-.3-.8-2.1.2-4.5,2.3-5.3,0,0,.2,0,.3-.1,2.1-.8,4.4.3,5.1,2.4,0,0,0,.1,0,.2.1.3.2.6.2.9l-5.4,1.9c.6.6,1.5.8,2.2.4h.1Zm.4-3.2c-.4-.7-1.3-1-2-.6-.8.2-1.3,1-1.2,1.8l3.2-1.1h0Z"/><path d="m198.9,174.9l.3,2.8c0,.7.7.7,1.7.5l.2,2.2c-3.1.7-4.1-.2-4.3-2.4l-.3-2.8h-1.3c0,.1-.3-2.2-.3-2.2h1.3c0-.1-.2-1.7-.2-1.7l2.3-1,.2,2.2,1.6-.2.3,2.3-1.6.2h.1Z"/><path d="m210.1,173.3l1.5.3-.4,2.3-1.5-.3-1,5.6-2.4-.4,1-5.6-1.1-.2.4-2.3,1.1.2c.4-2.2,1.9-3.3,4.4-2.7l-.4,2.3c-.9-.2-1.5,0-1.7.8h0Z"/><path d="m217.9,175.6l-.9,2.6c-.9-.6-2.1-.4-2.7.5,0,.1-.2.3-.2.4l-1.2,3.4-2.3-.8,2.8-7.5,2.3.8-.5,1.3c.7-.8,1.8-1.1,2.8-.7h-.1Z"/><path d="m226.6,181.1l-4.4,6.7-2-1.3.4-.6c-.9.2-1.8,0-2.5-.5-1.8-1.3-2.2-3.7-.9-5.5,0,0,0,0,0,0,1.4-2,3.8-2.6,5.5-1.4.8.4,1.3,1.2,1.4,2.1l.4-.6,2,1.3h0Zm-4.2,2c.6-.8.5-1.9-.3-2.6,0,0-.1,0-.2-.1-.9-.6-2-.4-2.6.5,0,0,0,0,0,.1-.6.8-.5,1.9.3,2.6,0,0,.1,0,.2.1.9.6,2,.4,2.6-.5,0,0,0,0,0-.1h0Z"/><path d="m234.1,195l-4,2.9-1.4-1.9,3.8-2.8c.6-.3.8-1.1.4-1.6,0,0,0,0,0,0-.4-.6-1.3-.7-1.9-.2,0,0-.1,0-.1.1l-3.6,2.7-1.4-1.9,3.8-2.8c.6-.3.8-1.1.4-1.6,0,0,0,0,0,0-.4-.6-1.3-.7-1.9-.2,0,0-.1,0-.1.1l-3.6,2.7-1.4-1.9,6.5-4.7,1.4,1.9-.6.4c.8,0,1.6.5,2,1.2.6.6.7,1.5.4,2.3.9,0,1.8.5,2.2,1.3,1.1,1.5.7,3.2-.9,4.4v-.2Z"/><path d="m233.1,202.1c.2.5.5,1,1,1.3l-.5,2.2c-2.6-.4-4.4-2.8-4-5.4.4-2.6,2.8-4.4,5.4-4,2.6.4,4.4,2.8,4,5.4-.2,1.7-1.4,3.1-2.9,3.7-.3,0-.6.2-.9.2l-1.6-5.5c-.7.5-.9,1.4-.5,2.2h0Zm3.2.6c.7-.4,1-1.3.7-2-.2-.8-.9-1.3-1.7-1.3l1,3.3Z"/><circle class="cls-3" cx="264" cy="331.3" r="45"/><path d="m228.2,321.1l-.6,2.7,8.2,1.8-.5,2.4-8.2-1.8-.6,2.7-2.3-.5,1.7-7.8,2.3.5Z"/><path d="m232.6,313.4l6.9,3.3-1,2.1-.6-.3c.3.7.3,1.5-.2,2.5-.9,1.8-3.2,2.5-5.2,1.5-2.1-1-2.9-3.2-2-5.1.4-.9,1.1-1.4,1.8-1.6l-.6-.3,1-2.1h0Zm2.4,3.7c-1-.5-2,0-2.5.8-.5,1-.1,2,.9,2.5s2,0,2.5-.8c.5-1,.1-2-.9-2.5Z"/><path d="m242.9,307.3c1.7,1.6,1.8,4,.4,5.4-.7.7-1.5,1.1-2.2,1l.5.5-1.6,1.7-7.8-7.3,1.6-1.7,2.8,2.6c0-.8.2-1.6.9-2.3,1.4-1.5,3.8-1.5,5.5,0h0Zm-1.6,1.7c-.8-.8-1.9-.7-2.6,0-.7.8-.7,1.8.1,2.6s1.9.7,2.6,0c.7-.8.7-1.8-.1-2.6Z"/><path d="m240.1,300.5l1.9-1.3,6.4,9.2-1.9,1.3-6.4-9.2Z"/><path d="m252.1,304.4c.6-.2,1-.7,1.1-1.1l2.1.2c-.3,1.3-1.1,2.2-2.4,2.8-2.4,1-4.6,0-5.5-2-.9-2.1,0-4.4,2.2-5.3,2.1-.9,4.3,0,5.2,2.2,0,.3.2.6.3.9l-5,2.1c.6.6,1.3.6,2.1.3h0Zm.2-3.1c-.6-.7-1.3-.7-2-.5-.8.3-1.2,1-1.1,1.8l3-1.3h0Z"/><path d="m258.7,298.8l.5,2.7c0,.6.7.6,1.7.4l.4,2.1c-2.9.8-3.9,0-4.3-2l-.5-2.7-1.2.2-.4-2.2,1.2-.2-.3-1.4,2.1-1.1.4,2.1,1.6-.3.4,2.2-1.6.3h0Z"/><path d="m262.2,298.1l5.8.2v2.2l-5.9-.2v-2.2h.1Z"/><path d="m278,302.9c-.7,2.2-2.8,3.4-4.7,2.8-1-.3-1.6-.9-1.9-1.6l-.2.7-2.2-.7,3.2-10.2,2.2.7-1.1,3.6c.7-.4,1.5-.5,2.5-.2,1.9.6,3,2.8,2.3,5h0Zm-2.2-.7c.3-1.1-.2-2-1.2-2.3s-2,.1-2.3,1.2.2,2,1.2,2.3,2-.1,2.3-1.2Z"/><path d="m279.2,303.5c1.3-1.9,3.8-2.3,5.6-1s2.4,3.7,1.1,5.6-3.8,2.3-5.6,1c-1.9-1.3-2.4-3.7-1.1-5.6Zm4.8,3.3c.6-.9.4-1.9-.4-2.5s-1.9-.4-2.5.5-.4,1.9.4,2.5,1.9.4,2.5-.5Z"/><path d="m297.4,311.1l-8.4,6.7-1.4-1.8.6-.5c-.8,0-1.5-.4-2.2-1.2-1.3-1.6-.9-4,.9-5.4s4.2-1.2,5.4.3c.6.8.8,1.6.7,2.4l2.9-2.4,1.4,1.8h0Zm-6.8,2.5c.9-.7,1-1.8.3-2.6-.7-.8-1.7-1-2.6-.2-.9.7-1,1.8-.3,2.6.7.8,1.7,1,2.6.2Z"/><path d="m299.4,322.4l-7.9.5c-2.6.2-4-.7-4.7-2.7l2-.8c.4,1,.9,1.3,1.9,1.3l5.5-5.6,1,2.3-3.7,3.4,4.9-.5,1,2.3v-.2Z"/><path d="m293.9,324.9l4.2,3c.7.5,1.4.9,2,.8.7,0,1.1-.6,1-1.3s-.7-1.2-1.4-1.4l.9-2.2c1.7.5,2.6,1.8,2.8,3.2.3,1.9-.7,3.8-2.9,4.1-1.3.2-2.5-.3-3.6-1.2l-2-1.5.5,3.6-2.3.3-1-7.2s1.8-.2,1.8-.2Z"/><path class="cls-23" d="m245.6,316h34.7c.3.2.7.2,1,.5v45.2c0,1.2-.5,2.1-2,2.1h-34.7c-11.6,0-.6,0-.8,0-.5-.6-.5-1.3-.5-2.1v-42.8c.1-1.4.8-2.3,2.1-2.8.1,0,.3,0,.4-.2h-.2Zm24.4,3.2h-22.4c-.9,0-1.1.2-1.1,1.1v40.7c0,.9.2,1.1,1.1,1.1h31.3c.5,0,.8-.3.8-.8v-41.3c0-.5-.3-.8-.9-.8h-8.8Z"/><path class="cls-29" d="m245.7,365.3c-.5-.3-1.1-.4-1.6-.9-.2-.2-.4-.4-.5-.6.3,0,.6,0,.8,0h34.7c1.5,0,2-.8,2-2.1v-45.2c.9.5,1.4,1.3,1.5,2.3v42.9c0,1.9-.7,2.9-2.5,3.5h-34.4v.2Z"/><path class="cls-22" d="m266.2,362.1h-18.7c-.9,0-1.1-.2-1.1-1.1v-40.7c0-.9.2-1.1,1.1-1.1h2.8c-.2.7-.4,1.4-.5,2.1v.2c-.2,0-.3,0-.4,0-1.1.8-1.6,1.9-1.6,3.2v31.7c0,2.1,1.7,3.9,3.9,3.9h14.6c0,.6-.2,1.1-.3,1.6h.2Z"/><path class="cls-20" d="m270,319.2h8.8c.5,0,.8.3.9.8v41.2c0,.5-.3.8-.8.8h-4v-1.6h0c.2,0,.4,0,.6,0,1.6-.6,2.6-2,2.6-3.7v-31.8c0-2.2-1.7-4-4-4h-5.2c.3-.6.7-1,1-1.5h0Z"/><path class="cls-10" d="m270,319.2c-.4.5-.8,1-1,1.5h-16c-5.3,0-2.1,0-3.1.5,0-.7.3-1.4.5-2.1h19.6Z"/><path class="cls-10" d="m274.9,360.5v1.6h-8.6c0-.5.3-1.1.3-1.6h8.4,0Z"/><path class="cls-41" d="m274.9,360.5h-8.4c.6-4.6-.3-8.8-2.5-12.8-1.5-2.7-3.6-5.1-5.9-7.2-2-1.8-3.8-3.8-5.3-6-2.1-3.3-3.4-6.8-3.3-10.7,0-.7,0-1.5.2-2.2v-.2c1.1-.5,2.1-.5,3.2-.5h15.9c-.3.7-.7,1.3-1,2.1-1.2,2.8-1.5,5.8-.8,8.8.7,2.8,2.2,5.2,4.1,7.4,1.2,1.4,2.7,2.5,3.9,4,1.8,2.4,2,5.1,0,7.4-1,1.1-1.3,2.4-.9,3.8.5,2,.9,4.1.8,6.2h0Z"/><path class="cls-33" d="m249.7,321.5c0,.7-.2,1.5-.2,2.2,0,3.9,1.1,7.5,3.3,10.7,1.5,2.3,3.3,4.2,5.3,6,2.3,2.1,4.3,4.5,5.9,7.2,2.3,4,3.2,8.3,2.5,12.8h-14.6c-2.1,0-3.9-1.7-3.9-3.9v-31.7c0-1.3.5-2.4,1.6-3.2,0,0,.2,0,.3,0h-.2Z"/><path class="cls-21" d="m274.9,360.4c0-2.1-.3-4.1-.8-6.2-.4-1.4,0-2.7.9-3.8,2.1-2.3,1.9-5.1,0-7.4-1.1-1.5-2.6-2.6-3.9-4-1.9-2.1-3.4-4.5-4.1-7.4-.7-3-.4-5.9.8-8.8.3-.7.7-1.4,1-2.1h5.3c2.2,0,4,1.7,4,4v31.8c0,1.7-1,3.1-2.6,3.7-.2,0-.4,0-.6,0h0Z"/><path d="m253.6,352.9v-4.8l8.6-9.1c.9-.9,1.5-1.7,1.9-2.3s.6-1.2.6-1.7-.2-1.2-.6-1.6-1-.6-1.7-.6c-1.5,0-2.7.9-3.5,2.7l-5.7-3.2c.8-1.9,2.1-3.4,3.7-4.4s3.4-1.5,5.4-1.5,4.6.7,6.3,2.2,2.6,3.5,2.6,6-.4,2.9-1.1,4.2c-.7,1.3-1.7,2.6-3.1,4l-3.5,3.7h8.1v6.4h-18.1,0Z"/><circle class="cls-3" cx="136" cy="331.3" r="45"/><path d="m98.7,323l-.6,2.8,8.5,1.8-.5,2.5-8.5-1.8-.6,2.8-2.4-.5,1.7-8.1,2.4.5Z"/><path d="m103.3,314.9l7.2,3.5-1,2.2-.7-.3c.3.7.3,1.6-.2,2.6-.9,1.9-3.3,2.6-5.5,1.6-2.1-1-3.1-3.4-2.1-5.3.5-1,1.1-1.5,1.9-1.7l-.7-.3,1-2.2h.1Zm2.6,3.9c-1.1-.5-2.1,0-2.6.9s-.1,2,.9,2.6c1.1.5,2.1,0,2.6-.9s.1-2-.9-2.6Z"/><path d="m114,308.6c1.7,1.6,1.9,4.1.5,5.7-.7.8-1.5,1.1-2.3,1.1l.5.5-1.6,1.8-8.2-7.6,1.6-1.8,2.9,2.7c0-.8.2-1.6.9-2.4,1.4-1.5,4-1.5,5.7,0Zm-1.6,1.8c-.9-.8-2-.7-2.7,0s-.7,1.9.1,2.7c.9.8,2,.7,2.7,0s.7-1.9-.1-2.7Z"/><path d="m111.1,301.5l2-1.4,6.7,9.6-2,1.4-6.7-9.6Z"/><path d="m123.6,305.5c.6-.3,1-.7,1.2-1.2l2.2.3c-.3,1.3-1.2,2.3-2.6,2.9-2.5,1.1-4.8,0-5.7-2.1-.9-2.2,0-4.6,2.2-5.6,2.1-.9,4.4,0,5.4,2.3,0,.3.2.6.3.9l-5.2,2.2c.6.6,1.4.6,2.2.3Zm.2-3.3c-.6-.8-1.4-.8-2.1-.5-.8.4-1.2,1-1.1,1.9l3.2-1.4Z"/><path d="m130.5,299.6l.5,2.8c0,.7.7.6,1.7.4l.4,2.1c-3,.9-4.1.1-4.5-2.1l-.5-2.8-1.3.2-.4-2.3,1.3-.2-.3-1.5,2.2-1.1.4,2.2,1.6-.3.4,2.3-1.6.3h0Z"/><path d="m134.1,298.9l6.1.2v2.3l-6.1-.2v-2.3Z"/><path d="m150.6,303.8c-.7,2.3-2.9,3.5-4.9,2.9-1-.3-1.7-.9-2-1.6l-.2.7-2.3-.7,3.3-10.7,2.3.7-1.2,3.8c.7-.4,1.5-.5,2.6-.2,2,.6,3.1,2.9,2.4,5.2h0Zm-2.3-.7c.4-1.1-.2-2.1-1.2-2.4-1.1-.3-2,.2-2.4,1.3-.4,1.1.2,2.1,1.2,2.4,1.1.3,2-.2,2.4-1.3Z"/><path d="m151.8,304.4c1.3-2,3.9-2.4,5.9-1.1s2.5,3.9,1.1,5.9c-1.3,2-3.9,2.4-5.9,1.1s-2.5-3.9-1.1-5.9Zm5,3.4c.6-.9.4-2-.5-2.6s-1.9-.4-2.6.5-.4,2,.5,2.6,1.9.4,2.6-.5Z"/><path d="m170.9,312.2l-8.7,7.1-1.5-1.9.6-.5c-.8,0-1.6-.4-2.3-1.2-1.3-1.6-1-4.1.9-5.6,1.8-1.5,4.4-1.3,5.7.3.7.8.9,1.7.7,2.5l3.1-2.5,1.5,1.9h0Zm-7.1,2.7c.9-.8,1-1.9.3-2.7-.7-.9-1.8-1-2.7-.2-.9.8-1,1.9-.3,2.7.7.9,1.8,1,2.7.2Z"/><path d="m173,324l-8.2.6c-2.7.2-4.2-.7-5-2.8l2.1-.9c.4,1,1,1.4,2,1.3l5.8-5.9,1,2.4-3.8,3.6,5.1-.6,1,2.4h0Z"/><path d="m177.3,329.9l-11,2-.5-2.5,8.4-1.5-.9-1.9,2-1,1.6,2.7.4,2.2Z"/><path class="cls-24" d="m136,318.7h12.4c1.9,0,3.6,1.4,3.6,3.4v34.4c0,1.5-.6,2.6-1.9,3.3-.3.2-.7.2-1,.4h-13.1v-2.4h12.2c.9,0,1.3-.4,1.3-1.2v-34.3c0-.9-.4-1.2-1.3-1.2h-12.2v-2.4Z"/><path class="cls-35" d="m136,357.6v2.4h-13.2c0-.2-.4-.2-.5-.2-1.3-.5-2.2-1.7-2.2-3.1v-34.4c0-1.5.6-2.7,2-3.3.4-.2.8-.3,1.2-.3h12.7v2.4h-12.2c-.9,0-1.3.3-1.3,1.3v34c0,.9.3,1.3,1.3,1.3h12.2Z"/><path class="cls-11" d="m136,321.1h12.2c.9,0,1.3.4,1.3,1.2v34c0,.9-.4,1.2-1.3,1.2h-12.2v-2.5h3.5c.5,0,1.1-.4,1.1-.9.2-.9-.4-1.6-1.3-1.6h-3.3v-9.8c.8,0,1.2-.6,1.2-1.4v-4.1c0-.8-.4-1.3-1.2-1.4v-9.8h1.7c.7,0,1.2-.5,1.2-1.2h0c0-.7-.5-1.2-1.2-1.2h-1.7v-2.5h0Zm5.9,18.3v-3.8c0-.5-.2-.9-.6-1.2-.8-.5-1.8,0-1.8,1.1v7.5c0,.5,0,1,.6,1.3.8.5,1.8,0,1.8-1.2v-3.8h0Zm4.7,0v-1c0-.7-.5-1.2-1.2-1.2h0c-.7,0-1.2.5-1.2,1.1v2.1c0,.7.6,1.2,1.3,1.1.6,0,1.1-.6,1.1-1.2v-1h0Z"/><path class="cls-8" d="m136,321.1v2.5h-1.6c-.8,0-1.3.5-1.3,1.2s.6,1.2,1.3,1.2h1.6v9.8h0c-.8,0-1.2.7-1.2,1.5v3.9c0,.8.5,1.5,1.2,1.5h0v9.9h-3.3c-.8,0-1.3.5-1.3,1.2s.6,1.2,1.3,1.2h3.3v2.5h-12.2c-.9,0-1.3-.3-1.3-1.3v-33.8c0-.9.3-1.3,1.3-1.3h12.2Zm-3.6,18.2v-5.9c-.2-.5-.8-.8-1.3-.8s-1,.6-1,1.2v10.9c0,.7.5,1.2,1.2,1.2h0c.7,0,1.2-.6,1.1-1.3v-5.4h0Zm-4.7,0v-2.2c0-.7-.5-1.3-1.2-1.3s-1.2.6-1.2,1.3v4.3c0,.7.5,1.3,1.2,1.3s1.2-.6,1.2-1.3v-2.1Z"/><path class="cls-27" d="m141.9,339.4v3.8c0,1.1-1,1.7-1.8,1.2-.5-.3-.6-.8-.6-1.3v-7.5c0-1.1,1-1.7,1.8-1.1.4.3.6.7.6,1.2v3.8h0Z"/><path class="cls-39" d="m136,352.7h3.3c.9,0,1.5.7,1.3,1.6,0,.4-.6.8-1.1.9h-3.5v-2.4h0Z"/><path class="cls-12" d="m146.6,339.4v1c0,.7-.6,1.2-1.2,1.2s-1.1-.5-1.2-1.1v-2.1c0-.7.6-1.1,1.2-1.1s1.2.5,1.2,1.2h0v1h0Z"/><path class="cls-9" d="m136,335.9c.8,0,1.2.6,1.2,1.4v4.1c0,.8-.4,1.3-1.2,1.4h0v-6.9h0Z"/><path class="cls-39" d="m136,323.6h1.7c.8,0,1.2.5,1.2,1.2s-.5,1.2-1.2,1.2h-1.7v-2.4h0Z"/><path class="cls-34" d="m132.4,339.3v5.4c0,.7-.5,1.3-1.1,1.3s-1.2-.5-1.3-1.2h0v-10.9c0-.6.5-1.2,1-1.2s1.1.2,1.3.8v5.9h0Z"/><path class="cls-34" d="m127.7,339.4v2.1c0,.7-.5,1.3-1.2,1.3s-1.2-.6-1.2-1.3v-4.3c0-.7.5-1.3,1.2-1.3s1.2.6,1.2,1.3v2.2Z"/><path class="cls-14" d="m136,352.7v2.4h-3.3c-.8,0-1.3-.5-1.3-1.2s.6-1.2,1.3-1.2c1.1,0,2.2,0,3.3,0Z"/><path class="cls-25" d="m136,335.9v6.9c-.8,0-1.2-.7-1.2-1.5v-3.9c0-.8.5-1.5,1.2-1.5Z"/><path class="cls-18" d="m136,323.6v2.4h-1.6c-.8,0-1.3-.6-1.3-1.2s.5-1.2,1.3-1.2h1.6Z"/><path d="m134.3,326h5.7v25.9h-6.6v-18.9l-4.5,1.1-1.6-5.6,7-2.5Z"/><line class="cls-5" x1="154.7" y1="122.5" x2="188.3" y2="149.7"/><line class="cls-4" x1="154.7" y1="122.5" x2="180" y2="142.9"/><polygon class="cls-38" points="173.5 147.3 188.3 149.7 183 135.7 173.5 147.3"/><line class="cls-5" x1="245.3" y1="122.5" x2="211.7" y2="149.7"/><line class="cls-4" x1="245.3" y1="122.5" x2="220.1" y2="142.9"/><polygon class="cls-38" points="217.1 135.7 211.7 149.7 226.5 147.3 217.1 135.7"/><circle class="cls-1" cx="117.5" cy="68.7" r="45"/><rect class="cls-32" x="91.5" y="58.7" width="52" height="37" rx="2.9" ry="2.9"/><path class="cls-30" d="m118.3,89l-1.1-3.4h-8l-1,3.4h-6.5l7.5-23.6h7.6l7.8,23.6h-6.3Zm-7.6-8.6h4.8l-2.4-8-2.4,8Z"/><path class="cls-30" d="m126,89v-24.7h5.6v24.7h-5.6Z"/><path d="m93.6,47.4l-2.4,3.1,1,1.4-1.6,2.1-6.1-9.3,1.9-2.4,10.5,3.7-1.6,2.1-1.6-.6h-.1Zm-2.2-.8l-3.8-1.4,2.3,3.3,1.5-1.9Z"/><path d="m90.3,37.6l1.7-1.4,7,8.4-1.7,1.4-7-8.4Z"/><path d="m102.5,33.8l3.6,6.6-2,1.1-.3-.6c-.1.8-.6,1.5-1.4,1.8-1.3.7-3,.3-3.8-1.1,0-.1-.1-.2-.1-.3l-2.2-4,2-1.1,2,3.8c.3.6,1.1.9,1.7.6,0,0,0,0,0,0,.7-.3.9-1.1.6-1.8,0,0,0-.1-.1-.2l-2-3.6,2-1.1h-.1Z"/><path d="m117.1,33.3l.8,4.5-2.2.4-.8-4.3c0-.6-.5-1.1-1.1-1,0,0-.1,0-.2,0-.7,0-1.1.7-.9,1.6l.7,4.2-2.2.4-.8-4.3c0-.6-.5-1.1-1.1-1,0,0-.1,0-.2,0-.7,0-1.1.7-.9,1.6l.7,4.2-2.2.4-1.3-7.4,2.2-.4v.7c.4-.7,1.1-1.1,1.9-1.2.8-.2,1.6,0,2.1.6.4-.8,1.1-1.3,2-1.4,1.7-.3,3,.7,3.3,2.6l.2-.2Z"/><path d="m119.4,30.9l2.2.2-.6,7.5-2.2-.2.6-7.5Zm0-2c0-.7.8-1.3,1.5-1.2.7,0,1.3.8,1.2,1.5s-.8,1.3-1.5,1.2c0,0,0,0,0,0-.7,0-1.3-.7-1.2-1.4,0,0,0,0,0-.1Z"/><path d="m130.4,36l-1.2,4.4-2.2-.6,1.1-4.1c.2-.7-.1-1.4-.8-1.7,0,0,0,0-.1,0-.7-.3-1.5,0-1.7.8,0,.1,0,.2,0,.3l-1.1,3.9-2.2-.6,2-7.2,2.2.6-.2.7c.7-.5,1.5-.6,2.3-.3,1.5.4,2.4,1.9,2,3.4,0,.1,0,.2,0,.3h0Z"/><path d="m140,38l-3.8,6.4-1.9-1.2.4-.6c-.8.3-1.6.2-2.3-.3-1.3-.8-1.8-2.5-1-3.8,0-.1.1-.2.2-.3l2.4-4,1.9,1.2-2.2,3.7c-.4.5-.3,1.2.2,1.6,0,0,.2.1.2.2.6.4,1.5.2,1.9-.4,0,0,0-.1.1-.2l2.1-3.5,1.9,1.2h0Z"/><path d="m147.8,50.3l-3.5,3-1.5-1.7,3.4-2.9c.6-.5.7-1.1.2-1.6-.4-.5-1.2-.6-1.7-.1,0,0,0,0-.1.1l-3.2,2.7-1.5-1.7,3.4-2.9c.6-.5.7-1.1.2-1.6-.4-.5-1.2-.6-1.7-.1,0,0,0,0-.1.1l-3.2,2.7-1.5-1.7,5.7-4.9,1.5,1.7-.5.4c.8,0,1.5.3,2,.9.5.6.7,1.4.5,2.1.8,0,1.7.3,2.2,1,1,1.2.9,3-.3,4,0,0-.1.1-.2.2v.3Z"/><circle class="cls-1" cx="282.5" cy="71.7" r="45" transform="translate(166.4 339.1) rotate(-80.8)"/><path d="m262.9,42.5c1.6,2,1.2,4.9-.8,6.5l-1.6,1.2,2.6,3.3-2.4,1.9-8.3-10.4,3.9-3.1c2-1.6,4.9-1.3,6.5.7,0,0,0,0,0,0h.1Zm-2.4,1.9c-.5-.7-1.4-.9-2.1-.4,0,0-.1,0-.2.1l-1.6,1.2,2.1,2.7,1.6-1.2c.7-.6.8-1.6.2-2.3,0,0,0,0,0,0h0Z"/><path d="m263.3,36.8l2.6-1.2,5.8,12.6-2.6,1.2-5.8-12.6Z"/><path d="m280.7,36.3l1.7,9.4-2.8.5-.2-.9c-.6.9-1.5,1.5-2.6,1.6-2.6.4-5-1.5-5.4-4.1,0,0,0,0,0,0-.6-2.5.9-5,3.4-5.7,0,0,.1,0,.2,0,1-.2,2.1,0,3,.6l-.2-.9,2.8-.5h0Zm-2,5.2c-.1-1.2-1.2-2.1-2.4-1.9,0,0-.1,0-.2,0-1.2.1-2,1.2-1.9,2.4,0,.1,0,.2,0,.3.1,1.2,1.2,2.1,2.4,1.9,0,0,.1,0,.2,0,1.2-.1,2-1.2,1.9-2.4,0-.1,0-.2,0-.3Z"/><path d="m291.2,44c-.3,2.2-2.3,2.9-4.3,2.6-1.7,0-3.2-1.2-3.8-2.8l2.6-1.1c.1.7.8,1.3,1.5,1.3.7,0,1,0,1.1-.5.1-1-4.6-1.1-4.2-4.3.3-2.1,2.1-2.9,4.1-2.6,1.5.1,2.8,1.1,3.4,2.5l-2.6,1c-.2-.5-.6-.9-1.2-1-.5,0-.8,0-.9.4-.1,1.1,4.6,1,4.1,4.4h.2Z"/><path d="m296.9,42l-1.2,3.1c-.3.8.3,1.1,1.5,1.5l-.9,2.4c-3.6-1-4.2-2.4-3.3-4.9l1.2-3.2-1.4-.5,1-2.6,1.4.5.6-1.7,3,.2-.9,2.5,1.8.7-1,2.6-1.8-.7h0Z"/><path d="m302.2,41.4l2.4,1.5-4.9,8.2-2.4-1.5,4.9-8.2Zm1.1-2.3c.5-.8,1.5-1.1,2.3-.6.8.5,1.1,1.5.6,2.3-.5.8-1.5,1.1-2.3.6-.8-.5-1.1-1.5-.6-2.3,0,0,0,0,0,0h0Z"/><path d="m303.9,47.9c1.8-2,4.9-2.2,6.9-.4,0,0,.2.1.2.2,1.3,1.2,1.8,3,1.4,4.7l-2.8-.7c.2-.7,0-1.5-.6-2-.9-.8-2.3-.7-3.1.2-.8.9-.7,2.2,0,3,.5.6,1.4.8,2.1.5l.8,2.7c-1.7.5-3.5,0-4.8-1.2-2-1.9-2.1-5.1-.2-7.1,0,0,0,0,0,0h.1Z"/><path class="cls-37" d="m305.8,68h0c0,0-1.6,0-1.6,0q-.7,0-.7.7v30.3c0,.4-.1.9-.4,1.2-.2.2-.5.2-.7.4h-10.7c0,0,0-.2,0-.3l-1.3-5.3c-.7-3.1-1.4-6.2-2.1-9.3-1.1-4.5-2.1-9.1-3.2-13.6-.9-4-1.8-8-2.8-11.9h15c.2,0,.5,0,.6.2v6.2c0,.7.6,1.3,1.3,1.4h3.8c.3,0,.4,0,.4-.4v-1.8c.1,0,.2.1.2.2l2,2Z"/><path class="cls-26" d="m305.8,99.7c-.4.8-1.3,1.3-2.1,1.1h-1.2c.2-.2.5-.2.7-.4.3-.3.4-.8.4-1.2v-30.4q0-.7.7-.7h1.6v31.6Z"/><path class="cls-17" d="m262.2,60.1v-.9c-.2-.9.3-1.7,1.1-2.1h2c0,0,0,.2.1.2.6.4.9,1.1.8,1.8,0,.4,0,.7,0,1.1h-4Z"/><path class="cls-28" d="m266.2,60.2v-1.1c.1-.7-.2-1.4-.8-1.8,0,0-.1-.1-.1-.2h2c.9.4,1.4,1.4,1.2,2.3v.8h-2.3Z"/><path class="cls-19" d="m291.8,100.7h-6.2c0,0,0-.1,0-.2l-1.8-8-3.2-13.7c-1.1-4.6-2.1-9.2-3.2-13.9-.4-1.6-.7-3.2-1.1-4.8h6.2c.9,4,1.8,8,2.7,11.9,1.1,4.6,2.1,9.1,3.2,13.6.7,3.1,1.4,6.2,2.1,9.3.4,1.8.8,3.6,1.2,5.4,0,.1,0,.2,0,.3Z"/><path class="cls-19" d="m298.1,60.4c.1,0,.3,0,.3.2l5,5v.2c.1.6.1,1.2.1,1.8s-.1.4-.4.4h-3.8c-.7,0-1.3-.7-1.3-1.4v-6.2Z"/><path class="cls-37" d="m276.2,60.2c.4,1.6.7,3.2,1.1,4.8,1.1,4.6,2.1,9.3,3.2,13.9,1.1,4.6,2.1,9.2,3.2,13.7l1.8,8c0,0,0,.1,0,.2h-14.1v-3c0-.5-.3-.8-.7-.8s-.8.3-.8.8v3h-9.2c-1,0-1.7-.7-1.8-1.7,0,0,0,0,0,0v-37.1c0-.9.8-1.7,1.7-1.7,0,0,0,0,0,0,.5,0,.9,0,1.4,0h7.9v3c0,.5.3.8.7.8s.8-.3.8-.8v-3h4.7Zm-4.8,20.3v-1.6c0-.4-.3-.7-.7-.7s-.7.3-.7.7v3c0,.4.2.7.6.8,0,0,0,0,.1,0,.4,0,.7-.3.7-.7,0,0,0,0,0,0v-1.4Zm-1.5,6.1v1.6c0,.4.3.7.7.7s.7-.3.7-.7v-3.1c0-.4-.4-.7-.8-.8-.4,0-.7.3-.7.7,0,0,0,0,0,0v1.5h0Zm0-12.4v1.5c0,.4.3.8.7.8.4,0,.7-.4.8-.8v-2.9c0-.5-.3-.8-.7-.8s-.7.3-.7.8,0,1,0,1.5h0Zm0-6.3v1.5c0,.4.2.7.6.8,0,0,0,0,.1,0,.4,0,.7-.3.7-.7,0,0,0,0,0-.1v-2.9c0-.4-.2-.7-.6-.8,0,0,0,0-.1,0-.5,0-.7.3-.7.8v1.4h0Zm1.5,25v-1.5c0-.5-.3-.8-.7-.8-.4,0-.7.3-.7.7,0,0,0,0,0,.1v2.9c0,.4.2.7.6.8,0,0,0,0,.1,0,.5,0,.7-.3.7-.8s0-.9,0-1.4h0Z"/><path class="cls-26" d="m271.5,60.2v3c0,.5-.3.8-.8.8s-.7-.3-.7-.8v-3h1.5Z"/><path class="cls-17" d="m262.3,100.8h3.9v1.2c.1.8-.4,1.6-1.2,1.9h-1.2c-.8,0-1.6-.6-1.6-1.5,0,0,0,0,0-.1v-1.4h0Z"/><path class="cls-28" d="m265,103.8c.8-.3,1.3-1.1,1.2-1.9v-1.2h2.3c0,.6,0,1.2,0,1.8-.1.8-.8,1.3-1.6,1.3h-1.8Z"/><path class="cls-26" d="m270,100.7v-3c0-.5.3-.8.8-.8s.7.3.7.8v3h-1.5Z"/><path class="cls-16" d="m262.3,60.2h-.1s0,0,0,0h.1Z"/><path class="cls-16" d="m262.3,100.8h0c0,0,0,0,0,0h0Z"/><path class="cls-13" d="m271.5,80.5v1.4c0,.4-.3.7-.7.7s-.7-.3-.7-.7v-3c0-.4.2-.7.6-.8,0,0,0,0,0,0,.4,0,.7.3.8.7,0,0,0,0,0,.1v1.6Z"/><path class="cls-26" d="m270,86.7v-1.5c0-.4.3-.7.6-.7,0,0,0,0,0,0,.4,0,.7.3.8.8v3.1c0,.4-.2.8-.6.8-.4,0-.8-.2-.8-.6,0,0,0-.1,0-.2,0-.5,0-1,0-1.6Z"/><path class="cls-26" d="m270,74.3v-1.5c0-.5.3-.8.7-.8s.7.3.7.8v2.9c0,.4-.3.8-.7.8-.4,0-.7-.4-.7-.8,0,0,0,0,0,0,0-.5,0-1,0-1.5Z"/><path class="cls-26" d="m270,68v-1.4c0-.5.3-.8.7-.8.4,0,.7.3.7.6,0,0,0,0,0,.1v2.9c0,.4-.2.7-.6.8,0,0,0,0-.1,0-.4,0-.7-.3-.7-.8s0-1,0-1.5Z"/><path class="cls-26" d="m271.5,93v1.4c0,.5-.3.8-.7.8-.4,0-.7-.3-.7-.7,0,0,0,0,0-.1v-2.9c0-.4.2-.7.6-.8,0,0,0,0,.1,0,.5,0,.7.3.7.8v1.5Z"/></svg>