<?xml version="1.0" encoding="UTF-8"?><svg id="Layer_1" xmlns="http://www.w3.org/2000/svg" viewBox="0 0 400 400"><defs><style>.cls-1{stroke:#a5262d;}.cls-1,.cls-2,.cls-3{stroke-width:4px;}.cls-1,.cls-2,.cls-3,.cls-4{stroke-miterlimit:10;}.cls-1,.cls-2,.cls-3,.cls-4,.cls-5{fill:none;}.cls-6{fill:#93c149;}.cls-7{fill:#fff;}.cls-2{stroke:#0018c6;}.cls-8{fill:#e2e7f5;}.cls-9{fill:#d2febf;}.cls-10{fill:#999afe;}.cls-3{stroke:#c000e2;}.cls-11{fill:#fef3d6;}.cls-12{fill:#00f6d5;}.cls-13{fill:#f7f6fd;}.cls-14{fill:#4d4d4d;}.cls-15{fill:#989afe;}.cls-16{fill:#02f6d5;}.cls-17{fill:#e1e6f4;}.cls-18{fill:#03f6d5;}.cls-19{fill:#debcef;}.cls-20{fill:#f1d0fe;}.cls-21{fill:#fe5f7a;}.cls-4{stroke:#231f20;stroke-width:2px;}.cls-22{fill:#474c68;}.cls-23{fill:#b3dd60;}.cls-24{fill:#625260;}.cls-25{fill:#00244d;}.cls-26{fill:#b7b7fe;}.cls-27{fill:#979bfd;}.cls-28{fill:#4e3d4d;}.cls-29{fill:#484645;}.cls-30{fill:#dee3f1;}.cls-31{fill:#2b2e3f;}.cls-32{fill:#fe7e92;}.cls-33{fill:#b8b8fd;}.cls-34{fill:#014767;}.cls-35{fill:#231f20;}.cls-36{fill:#00dbe6;}.cls-37{fill:#f2f2f2;}.cls-38{fill:#64c7ef;}.cls-39{fill:#fefefe;}</style></defs><line class="cls-7" x1="165.2" y1="254.3" x2="143.1" y2="278.5"/><line class="cls-4" x1="165.2" y1="254.3" x2="150.3" y2="270.6"/><polygon class="cls-35" points="146.3 263.9 143.1 278.5 157.3 274 146.3 263.9"/><line class="cls-7" x1="226.1" y1="254.3" x2="248.2" y2="278.5"/><line class="cls-4" x1="226.1" y1="254.3" x2="240.9" y2="270.6"/><polygon class="cls-35" points="233.9 274 248.2 278.5 245 263.9 233.9 274"/><line class="cls-5" x1="151" y1="125.1" x2="184.6" y2="152.3"/><line class="cls-4" x1="151" y1="125.1" x2="176.2" y2="145.5"/><polygon class="cls-35" points="169.8 150 184.6 152.3 179.2 138.4 169.8 150"/><line class="cls-5" x1="241.6" y1="125.1" x2="208" y2="152.3"/><line class="cls-4" x1="241.6" y1="125.1" x2="216.3" y2="145.5"/><polygon class="cls-35" points="213.3 138.4 208 152.3 222.7 150 213.3 138.4"/><circle class="cls-1" cx="244.9" cy="71.7" r="45"/><path d="m216.2,52.6c-2.5-2.7-2.3-6.9.5-9.4.1,0,.2-.2.3-.3,1.7-1.5,4.1-2,6.3-1.3l-1,2.9c-1.2-.4-2.5-.1-3.4.7-1.6,1.5-1.7,4-.2,5.6,1.4,1.5,3.7,1.7,5.3.4,1-.8,1.4-2,1.3-3.2l3-.5c.3,2.3-.6,4.6-2.4,6-2.8,2.5-7.1,2.2-9.6-.5,0,0-.1-.2-.2-.3h0Z"/><path d="m228.6,45.3c-.9-2.6.5-5.5,3.1-6.3s5.5.5,6.3,3.1c.9,2.6-.5,5.4-3.1,6.3-2.6.9-5.5-.4-6.4-3,0,0,0,0,0,0Zm6.8-2.4c-.3-1.1-1.4-1.8-2.6-1.5,0,0-.2,0-.2,0-1.1.3-1.7,1.4-1.4,2.4,0,.1,0,.2.1.4.3,1.1,1.4,1.8,2.6,1.5,0,0,.2,0,.2,0,1.1-.3,1.7-1.4,1.5-2.4,0-.1,0-.3-.1-.4h0Z"/><path d="m250.5,41.8c.1,2.6-2,4.9-4.6,5-1.1,0-2.1-.4-2.8-1.2v.9h-2.9v-13.4h3v4.7c.7-.8,1.7-1.2,2.8-1.1,2.5,0,4.5,2.2,4.5,5.1Zm-2.8,0c0-1.2-.8-2.2-2-2.3,0,0-.2,0-.2,0-1.2,0-2.2.9-2.3,2.1,0,0,0,.1,0,.2,0,1.2.8,2.2,2,2.3,0,0,.2,0,.2,0,1.2,0,2.2-.9,2.3-2.1,0,0,0-.1,0-.2Z"/><path d="m263.5,41.3l-3.4,8.9-2.7-1,.3-.8c-1,.5-2.1.5-3.1,0-2.4-1.1-3.5-3.9-2.5-6.3,1-2.6,3.7-4,6-3.1,1,.3,1.8,1.1,2.2,2.1l.3-.8,2.7,1h.2Zm-4.3,3.4c.5-1.1,0-2.4-1-2.9,0,0-.2,0-.3-.1-1-.5-2.3,0-2.8,1,0,.1,0,.2-.1.4-.5,1.1,0,2.4,1,2.9,0,0,.2,0,.3.1,1.1.5,2.3,0,2.8-1,0-.1.1-.3.1-.4h0Z"/><path d="m269.1,39.8l2.3,1.6-8,11.3-2.3-1.6,8-11.3Z"/><path d="m272.1,51.5l-2.4,2.4c-.6.6-.1,1.1.8,2l-1.8,1.8c-2.9-2.4-2.8-4-.9-5.8l2.4-2.4-1.1-1.1,2-1.9,1.1,1.1,1.3-1.3,2.6,1.4-1.9,1.9,1.4,1.4-2,1.9-1.4-1.4h-.1Z"/><rect class="cls-38" x="217.9" y="61.7" width="52" height="37" rx="2.9" ry="2.9"/><path class="cls-29" d="m235.2,92.5c-3.3.1-6.5-1.2-8.8-3.5-4.7-4.9-4.7-12.7,0-17.6,2.3-2.4,5.5-3.6,8.8-3.5,3.5,0,4.1.5,5.9,1.5,1.8,1,3.3,2.4,4.3,4.1l-5.2,3c-.5-.8-1.2-1.5-2-2-.9-.5-2-.7-3-.7-1.7,0-3.4.6-4.6,1.8-1.2,1.2-1.8,2.9-1.7,4.6-.2,3.3,2.3,6.2,5.6,6.4.2,0,.5,0,.7,0,1.1.1,2.1-.1,3-.7.9-.5,1.5-1.1,2-2l5.2,3c-1,1.7-2.5,3.1-4.3,4.1-1.8,1-3.9,1.5-6,1.5h.1Z"/><path class="cls-29" d="m255.9,92.5c-2.4,0-4.7-.9-6.4-2.6-1.7-1.6-2.7-3.9-2.6-6.3,0-2.4.9-4.6,2.6-6.3,1.7-1.7,4-2.6,6.4-2.6,2.4,0,4.7.9,6.4,2.6,3.5,3.5,3.5,9.1,0,12.6-1.7,1.7-4,2.6-6.4,2.6Zm0-5.4c.9,0,1.8-.3,2.4-1,.6-.7,1-1.6,1-2.5,0-.9-.3-1.9-1-2.5-1.3-1.3-3.5-1.3-4.8,0,0,0,0,0,0,0-.6.7-1,1.6-1,2.5,0,.9.3,1.9,1,2.5.6.7,1.5,1,2.4,1Z"/><circle class="cls-1" cx="146.3" cy="71.7" r="45"/><path d="m128.9,47.7l1.9,2-5.4,5-8.6-9.3,2.1-2,6.7,7.2,3.3-3.1v.2Z"/><path d="m125.3,39.9c-.4-.8-.2-1.8.6-2.2.8-.4,1.8-.2,2.2.6.4.8.2,1.8-.6,2.2-.7.5-1.7.3-2.1-.5,0,0,0,0,0-.1Zm1.5,1.9l2.3-1.4,4.6,7.7-2.3,1.4-4.6-7.7Z"/><path d="m135.9,40.3l1.1,3c.3.7.9.6,2,0l.8,2.3c-3.2,1.6-4.5.9-5.4-1.5l-1.1-3-1.4.5-.9-2.4,1.4-.5-.6-1.6,2.3-1.7.9,2.4,1.7-.6.9,2.4-1.7.6h0Z"/><path d="m148.8,39.1l.5,5.5-2.7.2-.4-5.1c0-.8-.5-1.5-1.3-1.5-.1,0-.2,0-.4,0-1,0-1.6.7-1.5,2l.4,4.9-2.7.2-1-12.6,2.7-.2.4,4.4c.6-.8,1.5-1.3,2.5-1.3,1.8-.2,3.5,1,3.7,3.4h-.2Z"/><path d="m151.8,36.1l2.7.4-1.4,8.9-2.7-.4,1.4-8.9Zm.1-2.4c.1-.9,1-1.5,1.9-1.4.9.1,1.5,1,1.4,1.9-.1.9-1,1.5-1.9,1.4,0,0,0,0,0,0-.9-.1-1.5-1-1.4-1.9h0Z"/><path d="m165.7,40.4l-3.5,8.3-2.5-1,.3-.8c-.9.5-1.9.5-2.8,0-1.7-.7-2.6-2.5-1.7-4.7l2.1-5.1,2.5,1-2,4.7c-.4.7-.1,1.6.6,2,0,0,.1,0,.2,0,.8.4,1.8,0,2.2-.8,0-.1,0-.2.1-.3l1.9-4.5,2.5,1h0Z"/><path d="m176.7,54.7l-4,3.8-1.9-1.9,3.8-3.7c.6-.4.7-1.3.3-1.9,0,0,0,0-.1-.1-.6-.6-1.4-.6-2.2.2l-3.7,3.5-1.9-1.9,3.8-3.7c.6-.4.7-1.3.3-1.9,0,0,0,0-.1-.1-.6-.6-1.4-.6-2.2.2l-3.7,3.5-1.9-1.9,6.5-6.3,1.9,1.9-.6.6c.9,0,1.9.3,2.5,1,.7.6,1,1.6.8,2.5,1-.1,2.1.3,2.7,1.1,1.4,1.5,1.3,3.5-.3,5.1Z"/><rect class="cls-14" x="119.3" y="61.7" width="52" height="37" rx="2.9" ry="2.9"/><path class="cls-37" d="m140.5,86.2h8.1v5.8h-14.2v-23.6h6v17.8h0Z"/><path class="cls-37" d="m155.7,72.8c-.6.6-1.4,1-2.3,1-.9,0-1.7-.3-2.3-1-.6-.6-1-1.4-1-2.3,0-.9.3-1.7,1-2.3.6-.6,1.4-.9,2.3-.9.9,0,1.7.3,2.3.9.6.6,1,1.4,1,2.3,0,.9-.3,1.7-1,2.3Zm-5.1,19.2v-16.9h5.6v16.9h-5.6Z"/><circle class="cls-2" cx="195.6" cy="206.1" r="45"/><path class="cls-22" d="m215.8,212.1v-19c0-2.4-2-4.4-4.4-4.4h-33c-2.4,0-4.3,2-4.4,4.4v15.3c.1.9.2,1.7.3,2.6.3,2.5.8,5,1.5,7.4.4,1.4.9,2.8,1.5,4.2,0,.2,0,.4.3.4v-26.3c0-.5.1-.7.6-.7h33.2c.5,0,.6.1.6.6v36.9c0,.5-.1.6-.6.6h-26.6c.1.4.5.6.8.9,1.5,1.4,3.1,2.7,4.8,3.8.3.2.6.3.9.5-.3-1.6.4-2.5,2.1-2.5h3.2c1,0,1.9.7,1.9,1.7,0,0,0,0,0,0,0,1-.7,1.8-1.7,1.8,0,0-.1,0-.2,0h-2.8c.1.3.5.4.8.5,2.3,1,4.7,1.7,7.2,2,.5,0,1,0,1.5.2h8.1c2.5,0,4.5-2,4.5-4.5,0,0,0,0,0,0v-19.7c-.4-2.2-.4-4.6,0-6.8h-.1Zm-20.2-18.9h-5c-.7,0-1.1-.3-1.1-.9s.4-.9,1.1-.9h5.1c.7,0,1.1.3,1.1.9s-.4.9-1.1.9h-.1Zm3.4,0c-.9,0-1.3-.3-1.4-.9s.4-.9,1.3-.9h0c.9,0,1.3.3,1.3.9s-.4.9-1.4.9h.2Z"/><path class="cls-31" d="m173.9,208.3c.1.9.2,1.7.3,2.6.3,2.5.8,5,1.5,7.4.4,1.4.9,2.8,1.5,4.2,0,.2,0,.4.3.4v10.9c0,.3,0,.4.4.4h6.9c.2.4.4.7.8.9,1.5,1.4,3.1,2.7,4.8,3.8.3.2.6.3.9.5.3.4.6.8,1.1,1,.4.2.9,0,1.3.1.1.3.5.4.8.5,2.3,1,4.7,1.7,7.2,2,.5,0,1,0,1.5.2h-24.3c-2.5.2-4.7-1.7-4.9-4.2,0-.2,0-.5,0-.7v-29.9h-.1Z"/><path class="cls-13" d="m184.8,234h-.2c0-.2-.1-.4-.3-.5-.6-.6-1.1-1.3-1.7-1.9-1.8-2.3-3.4-4.8-4.6-7.5,0-.2-.2-.4-.4-.5v-27.1c0-.5.1-.7.6-.7h33.2c.5,0,.6.1.6.6v36.9c0,.5-.1.6-.6.6h-26.6Zm6.3-29.1h-2.2c-.4,0-.6.1-.6.6v18.9c0,.4,0,.5.5.5h11.7c.4,0,.5-.1.5-.5v-18.9c0-.5-.1-.6-.6-.6h-2.2v-3.2c0-.3,0-.5-.4-.5h-6.4c-.4,0-.4.1-.4.5v3.2h0Zm.9,25.5c0-.5-.4-.9-.9-.9s-.9.4-.9.9.4.9.9.9h0c.4,0,.8-.2.9-.7,0,0,0-.1,0-.2Zm2.7.9c.5,0,.9-.4.9-.9s-.4-.9-.9-.9-.9.4-.9.9h0c0,.4.2.8.7.9,0,0,.1,0,.2,0Zm3.7-1.8c-.5,0-.9.4-.9.9s.4.9.9.9.9-.4.9-.9h0c0-.4-.2-.8-.7-.9,0,0-.1,0-.2,0Z"/><path class="cls-17" d="m193.7,240.4c-.4,0-.9,0-1.3-.1-.5-.2-.8-.6-1.1-1-.3-1.6.4-2.5,2.1-2.5h3.2c1,0,1.9.7,1.9,1.7,0,0,0,0,0,0,0,1-.7,1.8-1.7,1.8,0,0-.1,0-.2,0h-2.9Z"/><path class="cls-17" d="m193,193.2h-2.5c-.7,0-1.1-.3-1.1-.9s.4-.9,1.1-.9h5.1c.7,0,1.1.3,1.1.9s-.4.9-1.1.9h-2.6Z"/><path class="cls-30" d="m198.9,193.2c-.9,0-1.3-.3-1.4-.9s.4-.9,1.3-.9h0c.9,0,1.3.3,1.3.9s-.4.9-1.4.9h.2Z"/><path class="cls-8" d="m177.6,223.7c.3,0,.3.3.4.5,1.3,2.7,2.8,5.2,4.6,7.5.5.7,1.1,1.3,1.7,1.9.1.2.3.3.3.5h-6.7c-.3,0-.4,0-.4-.4v-10.1h0Z"/><path class="cls-6" d="m198.5,205h2.2c.4,0,.6.1.6.6v18.9c0,.4,0,.5-.5.5h-11.7c-.4,0-.5-.1-.5-.5v-18.9c0-.5.1-.6.6-.6h9.3,0Zm-7.3,6.1c.2-.4.7-.7,1.2-.6h4.5c.5,0,1.1-.1,1.5.6v-2.9c0-.4-.1-.5-.5-.5h-6.3c-.4,0-.5.1-.5.5v2.9h.1,0Zm0,7.8v2.9c0,.3,0,.4.4.4h6.5c.3,0,.4,0,.4-.4v-3c-.2.4-.7.7-1.2.6h-4.8c-.5,0-1-.2-1.3-.6h0Zm7.2-7.2c-.2.4-.7.7-1.2.6h-4.6c-.5,0-1-.1-1.4-.5v2.9c.2-.4.7-.7,1.2-.6h4.6c.5,0,1,.1,1.4.5v-2.9Zm0,6.6v-3c-.3.6-.7.6-1.2.6h-4.5c-.5,0-1.1.1-1.5-.6v3c.2-.4.7-.7,1.2-.6h4.8c.5,0,.9,0,1.2.6Z"/><path class="cls-23" d="m198.5,205h-7.3v-3.2c0-.3,0-.5.4-.5h6.4c.4,0,.4.1.4.5v3.2h.1Z"/><path class="cls-22" d="m192.1,230.4c0,.5-.4.9-.9.9s-.9-.4-.9-.9.4-.9.9-.9h0c.4,0,.8.2.9.7,0,0,0,.1,0,.2Z"/><path class="cls-22" d="m194.8,231.3c-.5,0-.9-.4-.9-.9s.4-.9.9-.9.9.4.9.9h0c0,.4-.2.8-.7.9,0,0-.1,0-.2,0Z"/><path class="cls-22" d="m198.5,229.5c.5,0,.9.4.9.9s-.4.9-.9.9-.9-.4-.9-.9h0c0-.4.2-.8.7-.9,0,0,.1,0,.2,0Z"/><path class="cls-23" d="m191.2,211v-2.9c0-.4.1-.5.5-.5h6.3c.4,0,.5.1.5.5v2.9c-.4-.8-1-.6-1.5-.6h-4.5c-.5,0-.9,0-1.2.6h-.1Z"/><path class="cls-23" d="m191.2,218.9c.3.6.8.6,1.3.6h4.8c.5,0,.9,0,1.2-.6v3c0,.3-.1.4-.4.4h-6.5c-.2,0-.4-.1-.4-.3,0,0,0,0,0,0v-3Z"/><path class="cls-23" d="m198.4,211.7v2.9c-.4-.5-.8-.5-1.4-.5h-4.6c-.5,0-.9,0-1.2.6v-2.9c.4.5.8.5,1.4.5h4.6c.5,0,.9,0,1.2-.6Z"/><path class="cls-23" d="m198.4,218.2c-.3-.4-.7-.6-1.2-.6h-4.8c-.5,0-.9,0-1.2.6v-3c.4.7,1,.6,1.5.6h4.5c.5,0,.9,0,1.2-.6v3Z"/><path d="m158.8,195.9l-.6,2.6,8,1.7-.5,2.3-8-1.7-.6,2.6-2.3-.5,1.6-7.6,2.3.5h.1Z"/><path d="m162.9,188.3l6.8,3.2-1,2-.6-.3c.3.8.3,1.7-.1,2.4-1.2,1.9-3.7,2.4-5.5,1.2-1.5-1-2.2-2.8-1.7-4.5.3-.8,1-1.4,1.8-1.6l-.6-.3,1-2h0Zm2.4,3.6c-.9-.4-1.9,0-2.3.9-.4.9,0,1.9.9,2.3.9.4,1.9,0,2.3-.9.4-.9,0-1.9-.8-2.4,0,0,0,0,0,0Z"/><path d="m172.8,182.2c1.6,1.3,1.9,3.6.6,5.3,0,0,0,0,0,0-.5.7-1.3,1.1-2.2,1.1l.5.5-1.5,1.7-7.9-6.9,1.5-1.7,2.8,2.4c0-.8.2-1.7.8-2.3,1.3-1.5,3.6-1.6,5.1-.2,0,0,.1.1.2.2h0Zm-1.5,1.7c-.8-.7-1.9-.6-2.6.1-.6.7-.6,1.7,0,2.4,0,0,0,0,.1.1.8.7,1.9.6,2.6-.1.6-.6.7-1.6,0-2.3,0,0-.2-.2-.3-.2Z"/><path d="m169.8,175.7l1.8-1.4,6.6,8.7-1.8,1.4-6.6-8.7Z"/><path d="m181.7,178.9c.5-.2.8-.6,1-1.1h2.1c-.2,1.3-1,2.4-2.2,3-1.9,1.1-4.3.4-5.4-1.4,0,0,0-.2-.1-.3-1-1.9-.3-4.2,1.5-5.2,0,0,.2,0,.3-.1,1.8-1,4.1-.2,5.1,1.6,0,0,0,.2.1.3,0,.3.2.5.3.8l-4.8,2.4c.6.6,1.3.5,2.1.1h0Zm0-3.1c-.5-.6-1.3-.8-2-.4-.7.3-1.1,1.1-.9,1.8l2.9-1.4Z"/><path d="m187.7,173l.6,2.6c.2.6.7.5,1.7.3l.5,2c-2.8,1-3.8.4-4.3-1.7l-.6-2.6-1.2.3-.5-2.1,1.2-.3-.3-1.4,2-1.2.5,2,1.5-.4.5,2.1-1.5.4h0Z"/><path d="m203.2,174.4c-.1,2.1-1.9,3.7-4,3.6,0,0,0,0,0,0-.8,0-1.6-.4-2.1-1.1v.7l-2.3-.2,1.1-10.4,2.2.2-.4,3.7c.6-.6,1.5-.8,2.3-.7,2,.3,3.4,2.1,3.1,4.1,0,0,0,.1,0,.2h0Zm-2.2-.2c.1-1-.5-1.8-1.5-2,0,0,0,0-.1,0-1-.1-1.9.6-2,1.6,0,0,0,0,0,0-.1,1,.6,1.9,1.6,2s1.9-.6,2-1.6Z"/><path d="m213.3,174.2l-2.8,7-2.1-.8.3-.7c-.8.4-1.6.4-2.4,0-1.9-1.2-2.5-3.6-1.3-5.5.9-1.5,2.6-2.2,4.3-1.8.8.3,1.4.9,1.7,1.7l.3-.7,2.1.8h-.1Zm-3.5,2.6c.4-.9,0-1.9-.9-2.3,0,0,0,0-.1,0-.8-.4-1.8,0-2.2.8,0,0,0,.1,0,.2-.4.9,0,1.9.9,2.3,0,0,0,0,.1,0,.8.4,1.8,0,2.2-.8,0,0,0-.1,0-.2h0Z"/><path d="m216.8,179.1l-1.5,2.2c-.4.5,0,.9.9,1.4l-1.2,1.7c-2.6-1.4-2.8-2.7-1.6-4.4l1.5-2.2-1-.7,1.2-1.8,1,.7.8-1.2,2.2.7-1.2,1.7,1.3.9-1.2,1.8-1.3-.9h.1Z"/><path d="m221.2,183l-1.9,1.9c-.5.5-.1.9.6,1.5l-1.4,1.5c-2.3-1.9-2.3-3.1-.8-4.6l1.9-1.9-.9-.8,1.5-1.5.9.8,1-1,2.1,1.1-1.5,1.5,1.1,1.1-1.5,1.5-1.1-1.1Z"/><path d="m222.6,190.5c.3.5.8.8,1.3.9v2.1c-1.3,0-2.4-.8-3-1.9-1.3-1.8-.9-4.2.9-5.5,1.8-1.3,4.2-.9,5.5.9,1.3,1.8.9,4.2-.9,5.5,0,0-.1,0-.2.1-.2.2-.5.3-.8.4l-2.9-4.4c-.4.6-.4,1.5.1,2.1v-.2Zm3-.3c.5-.5.6-1.4.1-2-.4-.7-1.2-1-1.9-.7l1.8,2.7Z"/><path d="m232,196.7l-2.4.9c-.1-1-1-1.7-2-1.6-.1,0-.3,0-.4,0l-3.2,1.2-.8-2.1,7-2.7.8,2.1-1.2.5c1,0,1.9.7,2.2,1.6Z"/><path d="m233.6,205.9l-7.6-1.4c-2.5-.5-3.6-1.6-3.8-3.7l2.1-.3c0,.8.7,1.6,1.5,1.7l6.6-4,.4,2.4-4.3,2.3,4.8.7.4,2.4h0Z"/><circle class="cls-3" cx="271.5" cy="328.3" r="45"/><path d="m235.7,318.1l-.6,2.7,8.2,1.8-.5,2.4-8.2-1.8-.6,2.7-2.3-.5,1.7-7.8,2.3.5Z"/><path d="m240.1,310.4l6.9,3.3-1,2.1-.6-.3c.3.7.3,1.5-.2,2.5-.9,1.8-3.2,2.5-5.2,1.5-2.1-1-2.9-3.2-2-5.1.4-.9,1.1-1.4,1.8-1.6l-.6-.3,1-2.1h0Zm2.4,3.7c-1-.5-2,0-2.5.8-.5,1-.1,2,.9,2.5s2,0,2.5-.8c.5-1,.1-2-.9-2.5Z"/><path d="m250.4,304.3c1.7,1.6,1.8,4,.4,5.4-.7.7-1.5,1.1-2.2,1l.5.5-1.6,1.7-7.8-7.3,1.6-1.7,2.8,2.6c0-.8.2-1.6.9-2.3,1.4-1.5,3.8-1.5,5.5,0h0Zm-1.6,1.7c-.8-.8-1.9-.7-2.6,0-.7.8-.7,1.8.1,2.6s1.9.7,2.6,0c.7-.8.7-1.8-.1-2.6Z"/><path d="m247.6,297.5l1.9-1.3,6.4,9.2-1.9,1.3-6.4-9.2Z"/><path d="m259.6,301.4c.6-.2,1-.7,1.1-1.1l2.1.2c-.3,1.3-1.1,2.2-2.4,2.8-2.4,1-4.6,0-5.5-2-.9-2.1,0-4.4,2.2-5.3,2.1-.9,4.3,0,5.2,2.2,0,.3.2.6.3.9l-5,2.1c.6.6,1.3.6,2.1.3h0Zm.2-3.1c-.6-.7-1.3-.7-2-.5-.8.3-1.2,1-1.1,1.8l3-1.3h0Z"/><path d="m266.2,295.8l.5,2.7c0,.6.7.6,1.7.4l.4,2.1c-2.9.8-3.9,0-4.3-2l-.5-2.7-1.2.2-.4-2.2,1.2-.2-.3-1.4,2.1-1.1.4,2.1,1.6-.3.4,2.2-1.6.3h0Z"/><path d="m269.7,295.1l5.8.2v2.2l-5.9-.2v-2.2h.1Z"/><path d="m285.5,299.9c-.7,2.2-2.8,3.4-4.7,2.8-1-.3-1.6-.9-1.9-1.6l-.2.7-2.2-.7,3.2-10.2,2.2.7-1.1,3.6c.7-.4,1.5-.5,2.5-.2,1.9.6,3,2.8,2.3,5h0Zm-2.2-.7c.3-1.1-.2-2-1.2-2.3s-2,.1-2.3,1.2.2,2,1.2,2.3,2-.1,2.3-1.2Z"/><path d="m286.7,300.5c1.3-1.9,3.8-2.3,5.6-1s2.4,3.7,1.1,5.6c-1.3,1.9-3.8,2.3-5.6,1-1.9-1.3-2.4-3.7-1.1-5.6Zm4.8,3.3c.6-.9.4-1.9-.4-2.5s-1.9-.4-2.5.5c-.6.9-.4,1.9.4,2.5s1.9.4,2.5-.5Z"/><path d="m304.9,308.1l-8.4,6.7-1.4-1.8.6-.5c-.8,0-1.5-.4-2.2-1.2-1.3-1.6-.9-4,.9-5.4s4.2-1.2,5.4.3c.6.8.8,1.6.7,2.4l2.9-2.4,1.4,1.8h0Zm-6.8,2.5c.9-.7,1-1.8.3-2.6-.7-.8-1.7-1-2.6-.2-.9.7-1,1.8-.3,2.6.7.8,1.7,1,2.6.2Z"/><path d="m306.9,319.4l-7.9.5c-2.6.2-4-.7-4.7-2.7l2-.8c.4,1,.9,1.3,1.9,1.3l5.5-5.6,1,2.3-3.7,3.4,4.9-.5,1,2.3v-.2Z"/><path d="m301.4,321.9l4.2,3c.7.5,1.4.9,2,.8.7,0,1.1-.6,1-1.3s-.7-1.2-1.4-1.4l.9-2.2c1.7.5,2.6,1.8,2.8,3.2.3,1.9-.7,3.8-2.9,4.1-1.3.2-2.5-.3-3.6-1.2l-2-1.5.5,3.6-2.3.3-1-7.2,1.8-.2Z"/><path class="cls-24" d="m253.1,313h34.7c.3.2.7.2,1,.5v45.2c0,1.2-.5,2.1-2,2.1h-34.7c-11.6,0-.6,0-.8,0-.5-.6-.5-1.3-.5-2.1v-42.8c.1-1.4.8-2.3,2.1-2.8.1,0,.3,0,.4-.2h-.2Zm24.4,3.2h-22.4c-.9,0-1.1.2-1.1,1.1v40.7c0,.9.2,1.1,1.1,1.1h31.3c.5,0,.8-.3.8-.8v-41.3c0-.5-.3-.8-.9-.8h-8.8Z"/><path class="cls-28" d="m253.2,362.3c-.5-.3-1.1-.4-1.6-.9-.2-.2-.4-.4-.5-.6.3,0,.6,0,.8,0h34.7c1.5,0,2-.8,2-2.1v-45.2c.9.5,1.4,1.3,1.5,2.3v42.9c0,1.9-.7,2.9-2.5,3.5h-34.4v.2Z"/><path class="cls-21" d="m273.7,359.1h-18.7c-.9,0-1.1-.2-1.1-1.1v-40.7c0-.9.2-1.1,1.1-1.1h2.8c-.2.7-.4,1.4-.5,2.1v.2c-.2,0-.3,0-.4,0-1.1.8-1.6,1.9-1.6,3.2v31.7c0,2.1,1.7,3.9,3.9,3.9h14.6c0,.6-.2,1.1-.3,1.6h.2Z"/><path class="cls-19" d="m277.5,316.2h8.8c.5,0,.8.3.9.8v41.2c0,.5-.3.8-.8.8h-4v-1.6h0c.2,0,.4,0,.6,0,1.6-.6,2.6-2,2.6-3.7v-31.8c0-2.2-1.7-4-4-4h-5.2c.3-.6.7-1,1-1.5h0Z"/><path class="cls-11" d="m277.5,316.2c-.4.5-.8,1-1,1.5h-16c-5.3,0-2.1,0-3.1.5,0-.7.3-1.4.5-2.1h19.6Z"/><path class="cls-11" d="m282.4,357.5v1.6h-8.6c0-.5.3-1.1.3-1.6h8.4,0Z"/><path class="cls-39" d="m282.4,357.5h-8.4c.6-4.6-.3-8.8-2.5-12.8-1.5-2.7-3.6-5.1-5.9-7.2-2-1.8-3.8-3.8-5.3-6-2.1-3.3-3.4-6.8-3.3-10.7,0-.7,0-1.5.2-2.2v-.2c1.1-.5,2.1-.5,3.2-.5h15.9c-.3.7-.7,1.3-1,2.1-1.2,2.8-1.5,5.8-.8,8.8.7,2.8,2.2,5.2,4.1,7.4,1.2,1.4,2.7,2.5,3.9,4,1.8,2.4,2,5.1,0,7.4-1,1.1-1.3,2.4-.9,3.8.5,2,.9,4.1.8,6.2h0Z"/><path class="cls-32" d="m257.2,318.5c0,.7-.2,1.5-.2,2.2,0,3.9,1.1,7.5,3.3,10.7,1.5,2.3,3.3,4.2,5.3,6,2.3,2.1,4.3,4.5,5.9,7.2,2.3,4,3.2,8.3,2.5,12.8h-14.6c-2.1,0-3.9-1.7-3.9-3.9v-31.7c0-1.3.5-2.4,1.6-3.2,0,0,.2,0,.3,0h-.2Z"/><path class="cls-20" d="m282.4,357.4c0-2.1-.3-4.1-.8-6.2-.4-1.4,0-2.7.9-3.8,2.1-2.3,1.9-5.1,0-7.4-1.1-1.5-2.6-2.6-3.9-4-1.9-2.1-3.4-4.5-4.1-7.4-.7-3-.4-5.9.8-8.8.3-.7.7-1.4,1-2.1h5.3c2.2,0,4,1.7,4,4v31.8c0,1.7-1,3.1-2.6,3.7-.2,0-.4,0-.6,0h0Z"/><path d="m261.1,349.9v-4.8l8.6-9.1c.9-.9,1.5-1.7,1.9-2.3s.6-1.2.6-1.7-.2-1.2-.6-1.6-1-.6-1.7-.6c-1.5,0-2.7.9-3.5,2.7l-5.7-3.2c.8-1.9,2.1-3.4,3.7-4.4,1.6-1,3.4-1.5,5.4-1.5s4.6.7,6.3,2.2c1.7,1.5,2.6,3.5,2.6,6s-.4,2.9-1.1,4.2c-.7,1.3-1.7,2.6-3.1,4l-3.5,3.7h8.1v6.4h-18.1,0Z"/><circle class="cls-3" cx="128.5" cy="328.3" r="45"/><path d="m91.2,320l-.6,2.8,8.5,1.8-.5,2.5-8.5-1.8-.6,2.8-2.4-.5,1.7-8.1,2.4.5Z"/><path d="m95.8,311.9l7.2,3.5-1,2.2-.7-.3c.3.7.3,1.6-.2,2.6-.9,1.9-3.3,2.6-5.5,1.6-2.1-1-3.1-3.4-2.1-5.3.5-1,1.1-1.5,1.9-1.7l-.7-.3,1-2.2h.1Zm2.6,3.9c-1.1-.5-2.1,0-2.6.9s-.1,2,.9,2.6c1.1.5,2.1,0,2.6-.9s.1-2-.9-2.6Z"/><path d="m106.5,305.6c1.7,1.6,1.9,4.1.5,5.7-.7.8-1.5,1.1-2.3,1.1l.5.5-1.6,1.8-8.2-7.6,1.6-1.8,2.9,2.7c0-.8.2-1.6.9-2.4,1.4-1.5,4-1.5,5.7,0Zm-1.6,1.8c-.9-.8-2-.7-2.7,0s-.7,1.9.1,2.7c.9.8,2,.7,2.7,0s.7-1.9-.1-2.7Z"/><path d="m103.6,298.5l2-1.4,6.7,9.6-2,1.4-6.7-9.6Z"/><path d="m116.1,302.5c.6-.3,1-.7,1.2-1.2l2.2.3c-.3,1.3-1.2,2.3-2.6,2.9-2.5,1.1-4.8,0-5.7-2.1-.9-2.2,0-4.6,2.2-5.6,2.1-.9,4.4,0,5.4,2.3,0,.3.2.6.3.9l-5.2,2.2c.6.6,1.4.6,2.2.3Zm.2-3.3c-.6-.8-1.4-.8-2.1-.5-.8.4-1.2,1-1.1,1.9l3.2-1.4Z"/><path d="m123,296.6l.5,2.8c0,.7.7.6,1.7.4l.4,2.1c-3,.9-4.1.1-4.5-2.1l-.5-2.8-1.3.2-.4-2.3,1.3-.2-.3-1.5,2.2-1.1.4,2.2,1.6-.3.4,2.3-1.6.3h0Z"/><path d="m126.6,295.9l6.1.2v2.3l-6.1-.2v-2.3Z"/><path d="m143.1,300.8c-.7,2.3-2.9,3.5-4.9,2.9-1-.3-1.7-.9-2-1.6l-.2.7-2.3-.7,3.3-10.7,2.3.7-1.2,3.8c.7-.4,1.5-.5,2.6-.2,2,.6,3.1,2.9,2.4,5.2h0Zm-2.3-.7c.4-1.1-.2-2.1-1.2-2.4-1.1-.3-2,.2-2.4,1.3-.4,1.1.2,2.1,1.2,2.4,1.1.3,2-.2,2.4-1.3Z"/><path d="m144.3,301.4c1.3-2,3.9-2.4,5.9-1.1s2.5,3.9,1.1,5.9c-1.3,2-3.9,2.4-5.9,1.1s-2.5-3.9-1.1-5.9Zm5,3.4c.6-.9.4-2-.5-2.6s-1.9-.4-2.6.5-.4,2,.5,2.6,1.9.4,2.6-.5Z"/><path d="m163.4,309.2l-8.7,7.1-1.5-1.9.6-.5c-.8,0-1.6-.4-2.3-1.2-1.3-1.6-1-4.1.9-5.6,1.8-1.5,4.4-1.3,5.7.3.7.8.9,1.7.7,2.5l3.1-2.5,1.5,1.9h0Zm-7.1,2.7c.9-.8,1-1.9.3-2.7-.7-.9-1.8-1-2.7-.2-.9.8-1,1.9-.3,2.7.7.9,1.8,1,2.7.2Z"/><path d="m165.5,321l-8.2.6c-2.7.2-4.2-.7-5-2.8l2.1-.9c.4,1,1,1.4,2,1.3l5.8-5.9,1,2.4-3.8,3.6,5.1-.6,1,2.4h0Z"/><path d="m169.8,326.9l-11,2-.5-2.5,8.4-1.5-.9-1.9,2-1,1.6,2.7.4,2.2Z"/><path class="cls-25" d="m128.5,315.7h12.4c1.9,0,3.6,1.4,3.6,3.4v34.4c0,1.5-.6,2.6-1.9,3.3-.3.2-.7.2-1,.4h-13.1v-2.4h12.2c.9,0,1.3-.4,1.3-1.2v-34.3c0-.9-.4-1.2-1.3-1.2h-12.2v-2.4Z"/><path class="cls-34" d="m128.5,354.6v2.4h-13.2c0-.2-.4-.2-.5-.2-1.3-.5-2.2-1.7-2.2-3.1v-34.4c0-1.5.6-2.7,2-3.3.4-.2.8-.3,1.2-.3h12.7v2.4h-12.2c-.9,0-1.3.3-1.3,1.3v34c0,.9.3,1.3,1.3,1.3h12.2Z"/><path class="cls-12" d="m128.5,318.1h12.2c.9,0,1.3.4,1.3,1.2v34c0,.9-.4,1.2-1.3,1.2h-12.2v-2.5h3.5c.5,0,1.1-.4,1.1-.9.2-.9-.4-1.6-1.3-1.6h-3.3v-9.8c.8,0,1.2-.6,1.2-1.4v-4.1c0-.8-.4-1.3-1.2-1.4v-9.8h1.7c.7,0,1.2-.5,1.2-1.2h0c0-.7-.5-1.2-1.2-1.2h-1.7v-2.5h0Zm5.9,18.3v-3.8c0-.5-.2-.9-.6-1.2-.8-.5-1.8,0-1.8,1.1v7.5c0,.5,0,1,.6,1.3.8.5,1.8,0,1.8-1.2v-3.8h0Zm4.7,0v-1c0-.7-.5-1.2-1.2-1.2h0c-.7,0-1.2.5-1.2,1.1v2.1c0,.7.6,1.2,1.3,1.1.6,0,1.1-.6,1.1-1.2v-1h0Z"/><path class="cls-9" d="m128.5,318.1v2.5h-1.6c-.8,0-1.3.5-1.3,1.2s.6,1.2,1.3,1.2h1.6v9.8h0c-.8,0-1.2.7-1.2,1.5v3.9c0,.8.5,1.5,1.2,1.5h0v9.9h-3.3c-.8,0-1.3.5-1.3,1.2s.6,1.2,1.3,1.2h3.3v2.5h-12.2c-.9,0-1.3-.3-1.3-1.3v-33.8c0-.9.3-1.3,1.3-1.3h12.2Zm-3.6,18.2v-5.9c-.2-.5-.8-.8-1.3-.8s-1,.6-1,1.2v10.9c0,.7.5,1.2,1.2,1.2h0c.7,0,1.2-.6,1.1-1.3v-5.4h0Zm-4.7,0v-2.2c0-.7-.5-1.3-1.2-1.3s-1.2.6-1.2,1.3v4.3c0,.7.5,1.3,1.2,1.3s1.2-.6,1.2-1.3v-2.1Z"/><path class="cls-27" d="m134.4,336.4v3.8c0,1.1-1,1.7-1.8,1.2-.5-.3-.6-.8-.6-1.3v-7.5c0-1.1,1-1.7,1.8-1.1.4.3.6.7.6,1.2v3.8h0Z"/><path class="cls-36" d="m128.5,349.7h3.3c.9,0,1.5.7,1.3,1.6,0,.4-.6.8-1.1.9h-3.5v-2.4h0Z"/><path class="cls-15" d="m139.1,336.4v1c0,.7-.6,1.2-1.2,1.2s-1.1-.5-1.2-1.1v-2.1c0-.7.6-1.1,1.2-1.1s1.2.5,1.2,1.2h0v1h0Z"/><path class="cls-10" d="m128.5,332.9c.8,0,1.2.6,1.2,1.4v4.1c0,.8-.4,1.3-1.2,1.4h0v-6.9h0Z"/><path class="cls-36" d="m128.5,320.6h1.7c.8,0,1.2.5,1.2,1.2s-.5,1.2-1.2,1.2h-1.7v-2.4h0Z"/><path class="cls-33" d="m124.9,336.3v5.4c0,.7-.5,1.3-1.1,1.3s-1.2-.5-1.3-1.2h0v-10.9c0-.6.5-1.2,1-1.2s1.1.2,1.3.8v5.9h0Z"/><path class="cls-33" d="m120.2,336.4v2.1c0,.7-.5,1.3-1.2,1.3s-1.2-.6-1.2-1.3v-4.3c0-.7.5-1.3,1.2-1.3s1.2.6,1.2,1.3v2.2Z"/><path class="cls-16" d="m128.5,349.7v2.4h-3.3c-.8,0-1.3-.5-1.3-1.2s.6-1.2,1.3-1.2c1.1,0,2.2,0,3.3,0Z"/><path class="cls-26" d="m128.5,332.9v6.9c-.8,0-1.2-.7-1.2-1.5v-3.9c0-.8.5-1.5,1.2-1.5Z"/><path class="cls-18" d="m128.5,320.6v2.4h-1.6c-.8,0-1.3-.6-1.3-1.2s.5-1.2,1.3-1.2h1.6Z"/><path d="m126.8,323h5.7v25.9h-6.6v-18.9l-4.5,1.1-1.6-5.6,7-2.5Z"/></svg>