<?xml version="1.0" encoding="UTF-8"?><svg id="Layer_1" xmlns="http://www.w3.org/2000/svg" viewBox="0 0 400 400"><defs><style>.cls-1{stroke:#a5262d;}.cls-1,.cls-2,.cls-3{stroke-width:4px;}.cls-1,.cls-2,.cls-3,.cls-4{stroke-miterlimit:10;}.cls-1,.cls-2,.cls-3,.cls-4,.cls-5{fill:none;}.cls-6{fill:#fff;}.cls-7{fill:#90b9e0;}.cls-2{stroke:#0018c6;}.cls-8{fill:#727272;}.cls-9{fill:#d2febf;}.cls-10{fill:#999afe;}.cls-3{stroke:#c000e2;}.cls-11{fill:#00f6d5;}.cls-12{fill:#626363;}.cls-13{fill:#989afe;}.cls-14{fill:#364a5f;}.cls-15{fill:#02f6d5;}.cls-16{fill:#90bae0;}.cls-17{fill:#93dbfe;}.cls-18{fill:#afd2ef;}.cls-19{fill:#03f6d5;}.cls-20{fill:#c69c6d;}.cls-21{fill:#fcd6ac;}.cls-4{stroke:#231f20;stroke-width:2px;}.cls-22{fill:#6f7070;}.cls-23{fill:#0aaffe;}.cls-24{fill:#4582c2;}.cls-25{fill:#607890;}.cls-26{fill:#00244d;}.cls-27{fill:#cbb293;}.cls-28{fill:#374b60;}.cls-29{fill:#b7b7fe;}.cls-30{fill:#979bfd;}.cls-31{fill:#fcd6ad;}.cls-32{fill:#484645;}.cls-33{fill:#636363;}.cls-34{fill:#b3b3b3;}.cls-35{fill:#fde6cd;}.cls-36{fill:#33b1cb;}.cls-37{fill:#cbb292;}.cls-38{fill:#b8b8fd;}.cls-39{fill:#014767;}.cls-40{fill:#231f20;}.cls-41{fill:#00dbe6;}.cls-42{fill:#33b1cc;}.cls-43{fill:#2dbafe;}.cls-44{fill:#86cde8;}.cls-45{fill:#e2c8aa;}</style></defs><line class="cls-6" x1="169.6" y1="257.6" x2="147.4" y2="281.8"/><line class="cls-4" x1="169.6" y1="257.6" x2="154.7" y2="273.9"/><polygon class="cls-40" points="150.7 267.2 147.4 281.8 161.7 277.3 150.7 267.2"/><line class="cls-6" x1="230.4" y1="257.6" x2="252.6" y2="281.8"/><line class="cls-4" x1="230.4" y1="257.6" x2="245.3" y2="273.9"/><polygon class="cls-40" points="238.3 277.3 252.6 281.8 249.3 267.2 238.3 277.3"/><line class="cls-5" x1="199.1" y1="123.8" x2="199.6" y2="156.6"/><line class="cls-4" x1="199.1" y1="123.8" x2="199.4" y2="145.9"/><polygon class="cls-40" points="191.9 143.8 199.6 156.6 206.9 143.6 191.9 143.8"/><line class="cls-5" x1="117.5" y1="119.6" x2="166.1" y2="158.9"/><line class="cls-4" x1="117.5" y1="119.6" x2="157.8" y2="152.1"/><polygon class="cls-40" points="151.3 156.6 166.1 158.9 160.8 144.9 151.3 156.6"/><line class="cls-5" x1="280.1" y1="119.6" x2="231.5" y2="158.9"/><line class="cls-4" x1="280.1" y1="119.6" x2="239.9" y2="152.1"/><polygon class="cls-40" points="236.9 144.9 231.5 158.9 246.3 156.6 236.9 144.9"/><circle class="cls-1" cx="91.1" cy="70.2" r="45"/><path d="m65,54.6l1-3c1.1.6,2.6.4,3.5-.5,1.1-1,1-1.7.7-2.1-.6-.6-1.4-.4-3.4.6s-4.1,1.5-5.9-.5-1.1-4.7.7-6.3c1.6-1.5,3.9-1.9,5.9-1l-1,3c-.9-.5-2.1-.4-2.9.4-.8.7-.8,1.4-.4,1.8s1,.6,3-.4,4.3-1.9,6.2.3c1.8,2,1.2,4.7-1.1,6.7s-4.5,2.1-6.5,1.1h.2Z"/><path d="m70,38.7c-.4-.9,0-2,.8-2.4s2,0,2.4.8,0,2-.8,2.4h0c-.9.4-1.9,0-2.4-.8Zm1.5,2.3l2.7-1.4,4.5,8.9-2.7,1.4-4.5-8.9Z"/><path d="m75.8,34l2.9-.9,4.5,13.9-2.9.9-4.5-13.9Z"/><path d="m82.4,34.1c-.2-1,.5-1.9,1.5-2.1,1-.2,1.9.5,2.1,1.5.2,1-.5,1.9-1.5,2.1-1,.2-1.9-.5-2.1-1.5,0,0,0,0,0,0Zm.7,2.6l3-.5,1.6,9.9-3,.5-1.6-9.9Z"/><path d="m89,40.7c.1-2.9,2.6-5.1,5.4-4.9,0,0,.2,0,.3,0,1.9,0,3.5,1.2,4.3,2.9l-2.7,1.3c-.5-1.1-1.9-1.6-3-1.1-.7.3-1.2,1.1-1.3,1.9-.2,1.2.7,2.3,1.9,2.5,0,0,.1,0,.2,0,.8,0,1.6-.3,2-1l2.5,1.7c-1,1.6-2.8,2.4-4.7,2.2-2.9-.2-5.1-2.6-4.9-5.5,0,0,0-.1,0-.2v.2Z"/><path d="m99.9,41.7c1.1-2.7,4.2-3.9,6.9-2.8,2.7,1.1,3.9,4.2,2.8,6.9-1.1,2.7-4.2,3.9-6.9,2.8,0,0,0,0,0,0-2.7-1.1-3.9-4.1-2.8-6.8,0,0,0,0,0-.1Zm7,2.9c.5-1.2,0-2.5-1.1-3.1,0,0,0,0,0,0-1.1-.5-2.4,0-2.9,1.1,0,0,0,.1,0,.2-.6,1.1-.1,2.5,1,3,0,0,.1,0,.2,0,1.1.5,2.4,0,2.9-1.1,0,0,0-.1,0-.2Z"/><path d="m119.4,52.8l-4.2,4.5-2.2-2,3.9-4.2c.7-.6.8-1.7.2-2.3,0,0-.1-.1-.2-.2-.7-.7-1.9-.7-2.6,0,0,0-.2.2-.2.3l-3.7,4-2.2-2,6.8-7.4,2.2,2-.6.7c1.1-.2,2.2.2,2.9,1,1.5,1.4,1.8,3.6,0,5.6h-.1Z"/><rect class="cls-20" x="64.2" y="60.7" width="52" height="37" rx="2.9" ry="2.9"/><path class="cls-32" d="m86.4,91.8c-2.2.1-4.3-.5-6.2-1.6-1.6-1-2.8-2.5-3.4-4.3l5.2-3c.7,2,2.6,3.2,4.7,3.1,2.3,0,2.8-.5,2.8-1.6s-.5-1.2-1.6-1.7c-1-.4-2-.7-3-.9-1.9-.4-3.7-1.4-5.1-2.7-1.3-1.2-2-2.9-1.9-4.7,0-2,.8-3.9,2.3-5.3,1.6-1.4,3.8-2.1,5.9-2,1.9,0,3.7.4,5.3,1.4,1.5,1,2.8,2.3,3.5,4l-5.1,3c-.5-1.6-2-2.7-3.7-2.6-1.7,0-1.3,0-1.6.4-.4.2-.6.7-.6,1.1,0,.5.3,1,.8,1.3,1,.6,2.1,1,3.2,1.3,1.1.4,2,.7,2.8,1,.8.3,1.6.7,2.3,1.2.8.5,1.4,1.3,1.9,2.1.4.9.6,2,.6,3,.1,2.1-.8,4.1-2.5,5.4-1.9,1.4-4.2,2.1-6.5,2h-.1Z"/><path class="cls-32" d="m102.6,72.1c-.6.6-1.4,1-2.3,1-1.8,0-3.3-1.4-3.3-3.2,0-.9.3-1.8,1-2.4.6-.6,1.4-.9,2.3-.9.9,0,1.7.3,2.3.9.6.6,1,1.4,1,2.3,0,.9-.3,1.7-1,2.3Zm-5.1,19.2v-16.9h5.6v16.9h-5.6Z"/><circle class="cls-1" cx="200" cy="70.2" r="45"/><rect class="cls-34" x="174" y="60.2" width="52" height="37" rx="2.9" ry="2.9"/><path class="cls-32" d="m200.8,90.5l-1.1-3.4h-8l-1,3.4h-6.5l7.5-23.6h7.6l7.8,23.6h-6.3Zm-7.6-8.6h4.8l-2.4-8-2.4,8Z"/><path class="cls-32" d="m208.5,90.5v-24.7h5.6v24.7h-5.6Z"/><path d="m176.1,48.9l-2.4,3.1,1,1.4-1.6,2.1-6.1-9.3,1.9-2.4,10.5,3.7-1.6,2.1-1.6-.6h0Zm-2.2-.8l-3.8-1.4,2.3,3.3,1.5-1.9Z"/><path d="m172.8,39.1l1.7-1.4,7,8.4-1.7,1.4-7-8.4Z"/><path d="m185,35.3l3.6,6.6-2,1.1-.3-.6c-.1.8-.6,1.5-1.4,1.8-1.3.7-3,.3-3.8-1.1,0-.1-.1-.2-.1-.3l-2.2-4,2-1.1,2,3.8c.3.6,1.1.9,1.7.6,0,0,0,0,0,0,.7-.3.9-1.1.6-1.8,0,0,0-.1-.1-.2l-2-3.6,2-1.1h-.1Z"/><path d="m199.6,34.8l.8,4.5-2.2.4-.8-4.3c0-.6-.5-1.1-1.1-1,0,0-.1,0-.2,0-.7,0-1.1.7-.9,1.6l.7,4.2-2.2.4-.8-4.3c0-.6-.5-1.1-1.1-1,0,0-.1,0-.2,0-.7,0-1.1.7-.9,1.6l.7,4.2-2.2.4-1.3-7.4,2.2-.4v.7c.4-.7,1.1-1.1,1.9-1.2.8-.2,1.6,0,2.1.6.4-.8,1.1-1.3,2-1.4,1.7-.3,3,.7,3.3,2.6l.2-.2Z"/><path d="m201.9,32.4l2.2.2-.6,7.5-2.2-.2.6-7.5Zm0-2c0-.7.8-1.3,1.5-1.2.7,0,1.3.8,1.2,1.5s-.8,1.3-1.5,1.2c0,0,0,0,0,0-.7,0-1.3-.7-1.2-1.4,0,0,0,0,0-.1Z"/><path d="m212.9,37.5l-1.2,4.4-2.2-.6,1.1-4.1c.2-.7-.1-1.4-.8-1.7,0,0,0,0-.1,0-.7-.3-1.5,0-1.7.8,0,.1,0,.2,0,.3l-1.1,3.9-2.2-.6,2-7.2,2.2.6-.2.7c.7-.5,1.5-.6,2.3-.3,1.5.4,2.4,1.9,2,3.4,0,.1,0,.2,0,.3h0Z"/><path d="m222.5,39.5l-3.8,6.4-1.9-1.2.4-.6c-.8.3-1.6.2-2.3-.3-1.3-.8-1.8-2.5-1-3.8,0-.1.1-.2.2-.3l2.4-4,1.9,1.2-2.2,3.7c-.4.5-.3,1.2.2,1.6,0,0,.2.1.2.2.6.4,1.5.2,1.9-.4,0,0,0-.1.1-.2l2.1-3.5,1.9,1.2h0Z"/><path d="m230.3,51.8l-3.5,3-1.5-1.7,3.4-2.9c.6-.5.7-1.1.2-1.6-.4-.5-1.2-.6-1.7-.1,0,0,0,0-.1.1l-3.2,2.7-1.5-1.7,3.4-2.9c.6-.5.7-1.1.2-1.6-.4-.5-1.2-.6-1.7-.1,0,0,0,0-.1.1l-3.2,2.7-1.5-1.7,5.7-4.9,1.5,1.7-.5.4c.8,0,1.5.3,2,.9.5.6.7,1.4.5,2.1.8,0,1.7.3,2.2,1,1,1.2.9,3-.3,4,0,0-.1.1-.2.2v.3Z"/><circle class="cls-1" cx="308.9" cy="69.9" r="45"/><path class="cls-44" d="m278.9,72.2v-.6c.3-.5.8-.8,1.4-.8,1.4-.1,2.5-1.3,2.5-2.7v-.5c0-.4.5-.8.9-.7,0,0,0,0,0,0,.5,0,.9.3.9.8,0,.3,0,.5.1.8.2,1.1,1.1,2,2.2,2.2.7.2.7,0,.7-.6v-13.5c0-.4.2-.7.6-.8,0,0,.1,0,.2,0h30.6c0,.3-.3.4-.5.6l-7.2,7.2c-.2.2-.4.4-.5.6-.2.4-.1.9.2,1.2.3.3.8.4,1.2,0,.2-.1.4-.3.5-.5l8.3-8.3c.3-.3.5-.6.6-1h3.4c0,.3-.3.4-.5.6l-13.3,13.3-.5.5c-.3.3-.3.7,0,1,.2.3.5.5.9.5.3,0,.6-.2.9-.4l14.6-14.6c.3-.2.5-.5.5-.9h1.1c1,0,.9,0,.9.9v28.3q0,.8.8.6c1.3-.4,2.2-1.5,2.2-2.8,0-.5.3-.9.8-1,0,0,.1,0,.2,0,.6,0,.9.4,1,1,0,1.5,1.3,2.8,2.8,2.9.5,0,1,.3,1.2.8v.6c-.2.4-.6.7-1.1.7-1.6,0-2.8,1.3-2.8,2.9,0,.3-.2.7-.4.9-.2.2-.6.3-.9,0-.4-.1-.6-.5-.6-.9-.2-1.6-.9-2.6-2.3-2.9-.7-.2-.7,0-.7.6v12.6c0,.5-.2.8-.7.8h-21.6c0-.3.3-.4.5-.6l7.5-7.5c.5-.6.6-1.1.1-1.5-.4-.4-1-.4-1.4,0h-.1c0,0-8.7,8.8-8.7,8.8-.2.2-.4.6-.5.9h-3.4c0-.3.3-.4.5-.6l13.3-13.3c.2-.2.4-.4.5-.6.2-.4.2-.9-.2-1.2-.3-.3-.8-.3-1.2,0,0,0,0,0,0,0-.1,0-.2.2-.3.3l-14.6,14.6c-.3.2-.4.6-.5.9h-10.1c-.4,0-.8-.2-.9-.7,0,0,0-.1,0-.2v-27.5c0-.7,0-.8-.7-.6-1.3.4-2.2,1.5-2.3,2.9,0,.5-.4,1-.9,1,0,0,0,0-.1,0-.6,0-1-.4-1-1v-.3c-.1-1.4-1.3-2.5-2.7-2.6-.5,0-1-.3-1.3-.7h-.2Zm5,.6c.4-.2.7-.5.9-.9-.3-.4-.6-.7-.9-1-.3.2-.7.6-.9.9.2.3.6.7.9.9h0Zm50.9,14.2c-.2-.4-.5-.7-.9-.9-.3.2-.7.6-.9.9l.9.9.9-.9Z"/><path class="cls-42" d="m325.3,56c.3-.1.5-.3.7-.6.8-.8,1.6-.6,1.9.5,0,.4-.2.7-.5.9l-14.6,14.6c-.2.3-.6.4-.9.4-.4,0-.7-.2-.9-.5-.2-.3-.2-.7,0-1,.1-.2.3-.4.5-.5l13.3-13.3c.2-.2.4-.3.5-.6h0Z"/><path class="cls-36" d="m301.5,101.8c-.3,0-.5.4-.8.6-.8.7-1.6.5-1.8-.6,0-.4.2-.7.5-.9l14.6-14.6.3-.3c.4-.3.8-.3,1.2,0,.4.3.4.8.2,1.2-.1.2-.3.4-.5.6l-13.3,13.3c-.2.2-.4.3-.5.6h.1Z"/><path class="cls-42" d="m319.2,56c.2,0,.4-.2.6-.4,1-1,1.6-.8,2.1.4,0,.4-.3.7-.6,1l-8.3,8.3-.5.5c-.4.3-.9.2-1.2,0-.4-.3-.5-.8-.2-1.1,0,0,0,0,0,0,.1-.2.3-.4.5-.6l7.2-7.2c.2-.2.4-.3.5-.6h-.1Z"/><path class="cls-42" d="m307.5,101.9c-.3.1-.5.3-.7.6-.8.8-1.6.5-1.9-.5,0-.3.2-.6.5-.8l8.7-8.7c.2-.4.8-.6,1.2-.3,0,0,.1,0,.2.1h.1c.4.5.4,1.1,0,1.5,0,0,0,0,0,0l-7.5,7.5c-.2.2-.4.3-.4.6h-.1Z"/><path d="m297.2,39.7c2,2.8,1.4,6.7-1.4,8.8-.2.1-.3.2-.5.3-3,2.5-7.4,2-9.9-.9-2.5-3-2-7.4.9-9.9.4-.3.8-.6,1.2-.8,1.9-1.3,4.4-1.6,6.6-.6l-1.4,2.7c-1.2-.5-2.6-.3-3.6.5-1.8,1.1-2.4,3.4-1.3,5.2,0,0,.1.2.2.3,1.2,1.9,3.5,2.4,5.7,1,1.3-.7,2-2.2,1.7-3.6l-3,1.9-1.5-2.2,5.6-3.7.6,1Z"/><path d="m298.1,32l2.8-.7,3.5,13.5-2.8.7-3.5-13.5Z"/><path d="m315.6,34.8l-.2,9.6h-2.9v-1c-.8.8-1.8,1.2-2.9,1.1-2.5,0-4.5-2.3-4.5-5.1,0-2.6,2-4.8,4.6-4.9,0,0,0,0,.1,0,1.1,0,2.1.4,2.8,1.2v-.9h3Zm-3,4.7c.1-1.2-.8-2.3-2-2.4,0,0-.1,0-.2,0-1.2,0-2.2.8-2.3,2,0,.1,0,.2,0,.3-.1,1.2.8,2.3,2,2.4,0,0,.1,0,.2,0,1.2,0,2.2-.8,2.3-2,0-.1,0-.2,0-.3Z"/><path d="m324.3,44.7c-.8,2.1-2.9,2.3-4.8,1.6-1.7-.5-2.9-1.9-3.1-3.6l2.8-.5c0,.7.4,1.4,1.1,1.6.6.2,1,.2,1.2-.2.4-1-4.2-2.1-3.1-5.2.7-2,2.7-2.3,4.6-1.6,1.5.5,2.5,1.7,2.8,3.2l-2.8.4c0-.6-.4-1.1-.9-1.2-.5-.2-.8,0-.9.2-.4,1,4.3,2,3.1,5.3Z"/><path d="m331,49.5c-1.3,1.8-3.4,1.4-5.1.2-1.5-.9-2.2-2.6-2-4.3l2.8.3c-.2.7,0,1.5.7,1.9.6.4,1,.4,1.2,0,.6-.9-3.5-3.2-1.6-5.8,1.2-1.7,3.3-1.5,4.9-.3,1.3.8,2,2.3,1.8,3.8l-2.8-.4c0-.6,0-1.1-.5-1.4s-.8-.3-1,0c-.6.9,3.6,3.1,1.5,5.9h.1Z"/><circle class="cls-2" cx="199.7" cy="206.8" r="45"/><path class="cls-21" d="m226.7,234.1v.8c-.2.5-.5,1-1,1.3l-9.6,6.6c-.9.6-2.1.4-2.7-.5,0,0,0,0,0,0-.3-.5-.7-1-1-1.5-.6-1.2-1.9-2-3.3-1.8-1.9.2-3.7-.8-4.6-2.4-.9-1.3-1.7-2.6-2.6-3.9-.1-.2-.2-.4-.4-.4,0-.2,0-.4-.2-.5-.7-1.1-1.4-2.1-2.1-3.2-1.1-1.5-.7-3.5.7-4.6,0,0,0,0,0,0,.5-.3.9-.6,1.3-1,.2,0,.3.2.4.3,1,1.4,1.9,2.9,2.9,4.3l2.4,3.6c.3.4.9.5,1.3.3.4-.3.5-.9.2-1.3,0,0,0,0,0,0,0-.1-.1-.2-.2-.3-3.2-4.6-6.3-9.2-9.5-13.9-2-3-4.1-6-6.1-9-.4-.6-.7-1.3-.7-2,0-.3.3-.6.1-1v-.2c1.1-.5,2.5-.2,3.2.8.6.9,1.2,1.8,1.9,2.6,1.2,1.7,2.3,3.4,3.5,5.1.3.6.7,1.2,1.2,1.7h0s0,.2.1.2c.3.4.6.8.9,1.2.3.3.8.3,1.1,0,.4-.3.4-.8,0-1.3-.6-.7-.8-1.6-.8-2.5,0-.3.3-.5.1-.7,1.1-.6,2.5-.2,3.2.8.2.3.4.6.7.9.2.5.5,1,.9,1.5.3.3.8.4,1.2.2.4-.3.5-.8.3-1.2-.1-.3-.3-.5-.5-.7-.5-.7-.7-1.6-.5-2.5v-.4c.8-.5,1.7-.5,2.5,0,.7.4,1,1.1,1.5,1.6h0c.2.5.5,1,.9,1.4.3.3.8.3,1.1,0,.3-.2.4-.6.4-.9,0-.3-.1-.5-.3-.7-.6-.7-.8-1.6-.7-2.5v-.8c1.2-.5,2.6,0,3.3,1,1.9,2.8,3.8,5.5,5.6,8.3,1.4,2.3,2.4,4.9,2.7,7.6.2,1.9.3,3.9.2,5.8,0,1.2.2,2.3.8,3.3v.5Zm-2.9-.1c0-.3-.2-.6-.5-.7-.3-.1-.7-.1-1,0-1,.7-2,1.3-3,2-.4.2-.6.7-.4,1.2,0,0,0,0,0,.1.3.4.9.5,1.3.2,0,0,0,0,0,0,1-.7,2-1.4,3-2,.3-.1.5-.5.5-.8Zm-6.1,4.2c0-.4-.3-.8-.7-.9-.2,0-.3,0-.5,0-.3.2-.6.4-.9.6-.3.3-.4.8-.2,1.2.3.4.8.5,1.1.2,0,0,0,0,0,0,.3-.2.6-.4.8-.6.2-.2.3-.3.2-.5h0Z"/><path class="cls-18" d="m181.7,207.6v-12.8c0-1.3.8-2.4,2-2.7h2.9c.4.5.6,1.1.5,1.7,0,1,.6,1.8,1.6,1.9,0,0,.1,0,.2,0h6.9c1,0,1.8-.7,1.9-1.7,0,0,0-.2,0-.2,0-.6,0-1.2.5-1.7h2.6c.7.2,1.3.6,1.7,1.1.2.2.3.5.3.8-.8.7-1.6,1.5-2.3,2.2-1.3,1.4-2.5,2.8-3.7,4.3-.2.4-.5.7-.9.9-1.1-1-2.5-1.4-3.9-1.3-2.6.2-4.7,2.3-4.9,4.9-.1,2.2,1.1,4.3,3.1,5.2-.4.8-.9,1.7-1.3,2.5-1,1.9-1.9,3.9-2.7,5.8-1.2,2.8-2.2,5.7-3.1,8.6-.4,1.3-.7,2.6-1.1,3.9-.2-.4-.2-.8-.2-1.2v-10.4c.1-.3.3-.6.4-.9.7-1.6,1.1-3.2,1.3-4.9.3-2.2.1-4.3-1.7-5.9h-.1Z"/><path class="cls-14" d="m198.1,192c-.4.5-.6,1.1-.5,1.7,0,1-.7,1.8-1.7,1.9,0,0-.2,0-.2,0h-6.9c-1,0-1.8-.7-1.8-1.7,0,0,0-.1,0-.2,0-.6,0-1.2-.5-1.7h11.6Z"/><path class="cls-25" d="m197.9,192c-.1.1-.3,0-.5,0h.5Z"/><path class="cls-7" d="m181.9,230.9c.4-1.3.7-2.6,1.1-3.9.9-2.9,1.9-5.8,3.1-8.6.8-2,1.7-3.9,2.7-5.8.4-.8.9-1.7,1.3-2.5.2,0,.4.2.6.2.7.3,1.4.3,2.1.2,0,.1.2.2.2.3,2.4,3.5,4.8,7.1,7.2,10.6.4.5.8,1.1,1.1,1.7-.4.4-.8.7-1.3,1-1.5,1-1.9,3.1-.8,4.5,0,0,0,0,0,0,.7,1.1,1.4,2.1,2.1,3.2.1.2.2.3.2.5-.7.4-1.4.2-2.1.3h-14.8c-1.2,0-2.2-.6-2.6-1.7h-.1Zm10.4-.9h3.3c.7,0,1.1-.3,1.1-.9s-.4-.9-1.1-.9h-6.6c-.7,0-1.1.3-1.1.9s.4.9,1.1.9h3.3Z"/><path class="cls-16" d="m195.8,201.3c.5-.1.6-.5.9-.9,1.2-1.5,2.4-2.9,3.7-4.3.7-.8,1.5-1.5,2.3-2.2.2.4.2.8.2,1.2v16.2c-.5.4-.9,1-1,1.6,0,.5,0,.9,0,1.4-.5-.5-.9-1.1-1.2-1.7-1.2-1.7-2.3-3.4-3.5-5.1.3-.6.5-1.3.5-2,0-1.6-.6-3.1-1.8-4.1h0Z"/><path class="cls-24" d="m195.8,201.3c1.2,1,1.8,2.5,1.8,4.1,0,.7-.1,1.4-.5,2-.6-.9-1.2-1.8-1.9-2.6-.7-1-2.1-1.4-3.2-.8-.3,0-.5.2-.6.5h0c0,0-.1,0-.1,0h0c0,0-.1,0-.1.1h0c0,0-.1,0-.1.1h0c-.6.5-.8,1.3-.6,2,0,.5.2.9.5,1.2.6.9,1.2,1.7,1.7,2.6-.7.1-1.4,0-2.1-.2-.2,0-.4,0-.6-.2-2.7-1.2-3.9-4.3-2.7-7,.8-1.8,2.5-3,4.5-3.1,1.4,0,2.8.4,3.9,1.3h.1Z"/><path class="cls-37" d="m192.7,210.5c-.6-.9-1.2-1.7-1.7-2.6-.3-.3-.5-.8-.5-1.2,0-.7.2-1.4.6-2h.2c0-.1.1-.2.1-.2h0c.2,0,.4-.2.6-.3.1.3-.1.6-.1,1,0,.7.3,1.4.7,2,2,3,4.1,6,6.1,9,3.2,4.6,6.3,9.2,9.5,13.9,0,.1.2.2.2.3.3.4.2,1-.2,1.3,0,0,0,0,0,0-.5.2-1,0-1.3-.3l-2.4-3.6c-1-1.4-1.9-2.9-2.9-4.3-.1-.2-.2-.3-.4-.3-.3-.6-.7-1.2-1.1-1.7-2.4-3.5-4.8-7.1-7.2-10.6,0-.1-.2-.2-.2-.3h0Z"/><path class="cls-35" d="m223.8,234c0,.3-.2.7-.5.8-1,.7-2,1.4-3,2-.4.3-1,.2-1.3-.2-.3-.4-.2-1,.2-1.3,0,0,0,0,0,0,1-.7,2-1.4,3-2,.3-.3.7-.3,1,0,.3.2.5.4.5.7Z"/><path class="cls-27" d="m212.6,211.3c-.2-.7,0-1.5.3-2.2.3-.5.7-.8,1.2-1.1v.8c0,.9.2,1.8.7,2.5.2.2.3.4.3.7,0,.4,0,.7-.4.9-.3.2-.8.2-1.1,0-.4-.4-.7-.9-.9-1.4h0v-.2Z"/><path class="cls-27" d="m207.3,212.7c-.4-1.2.2-2.5,1.3-3.1.1.1,0,.3,0,.4-.2.9,0,1.8.5,2.5.2.2.3.5.5.7.3.4.2,1-.2,1.2s-1,.2-1.2-.2c-.4-.4-.7-.9-.9-1.5h0Z"/><path class="cls-37" d="m201.8,214.2v-1.4c.2-.6.6-1.1,1-1.6.2,0,.3,0,.4-.2.2.3,0,.5-.1.7,0,.9.3,1.8.8,2.5.4.4.4.9,0,1.3-.3.3-.8.3-1.1,0-.3-.4-.6-.8-.9-1.2,0,0,0-.2-.1-.2h0Z"/><path class="cls-35" d="m217.7,238.1c0,.2,0,.4-.2.5-.2.3-.5.5-.8.6-.4.3-.9.2-1.2-.1,0,0,0,0,0,0-.2-.4-.2-.9.2-1.2l.9-.6c.4-.2.9,0,1.1.3,0,.1.1.3,0,.5h0Z"/><path class="cls-45" d="m192,204.1c-.2,0-.4.3-.6.3,0-.3.4-.4.6-.5v.2Z"/><path class="cls-16" d="m201.8,214.2c0,0,0,.1.1.2,0,0,0-.1-.1-.2Z"/><path class="cls-31" d="m181.9,230.9c.4,1.1,1.4,1.8,2.6,1.7h14.8c-1,1.4-2.2,2.5-3.7,3.4-.2.1-.3.2-.5.3-.7.4-1.1,1.1-1,1.9v3.1c0,1-.9,1.9-1.9,1.9h-10.3c-1,0-1.8-.6-1.9-1.6,0-.1,0-.2,0-.3v-3c-.2-1-.7-1.9-1.3-2.7-.7-1-1.3-2.1-2.1-3.1-.7-1-1-2.1-1-3.3,0-2.3.2-4.6.2-6.9v-3.3c0-1.5.2-2.9.8-4.3.8-1.8,1.4-3.8,1.6-5.8,0-1,.9-1.7,1.8-1.7.1,0,.3,0,.4,0,.9,1.1,1.4,2.5,1.4,3.9,0,1.4-.2,2.7-.6,4-.3,1.3-.7,2.5-1.3,3.6-.2.5,0,1,.4,1.3.4.3,1,.1,1.2-.3,0,0,0,0,0-.1,0-.1.1-.2.2-.3v10.4c0,.4,0,.8.2,1.2h0Zm7.3,7.9h-1.2c-.5,0-1,.3-1,.8s.3,1,.8,1c0,0,.2,0,.3,0h2.4c.5,0,.9-.4.9-.9s-.4-.9-.9-.9h-1.2Zm-5.3,1.8c.2,0,.5,0,.7-.1.4-.2.6-.6.5-1-.1-.4-.5-.7-1-.7-.6,0-1.2,0-1.5.6v.2c0,.7.4,1,1.3,1Z"/><path class="cls-37" d="m181.7,219.3c0,.1-.1.2-.2.3-.3.5-.8.6-1.3.4-.5-.2-.7-.7-.5-1.2,0,0,0,0,0-.1.6-1.1,1-2.4,1.3-3.6.4-1.3.6-2.6.6-4,0-1.4-.5-2.8-1.4-3.9.5,0,1,.2,1.4.5,1.8,1.6,1.9,3.7,1.7,5.9-.2,1.7-.6,3.3-1.3,4.9-.1.3-.3.6-.4.9h0Z"/><path class="cls-28" d="m192.3,230h-3.3c-.7,0-1.1-.3-1.1-.9s.4-.9,1.1-.9h6.6c.7,0,1.1.4,1.1.9s-.4.9-1.1.9h-3.3Z"/><path class="cls-45" d="m191.1,204.7c-.3.6-.6,1.3-.6,2-.3-.7,0-1.5.6-2Z"/><path class="cls-35" d="m189.2,238.8h1.1c.5,0,1,.3,1,.8s-.3,1-.8,1c0,0-.2,0-.3,0h-2.4c-.5,0-.9-.4-.9-.9s.4-.9.9-.9h1.3,0Z"/><path class="cls-35" d="m184,240.6c-1,0-1.4-.3-1.3-1v-.2c.3-.6.9-.6,1.5-.6.5,0,.9.3,1,.7.1.4,0,.9-.5,1,0,0,0,0,0,0-.2,0-.5.1-.7.1Z"/><path d="m164.2,192.6l-.8,2.6,7.8,2.5-.7,2.3-7.8-2.5-.8,2.6-2.2-.7,2.4-7.4,2.2.7h0Z"/><path d="m168.3,194.4c-1.9-1.1-2.5-3.5-1.4-5.4,1.1-1.9,3.5-2.5,5.4-1.4,1.9,1.1,2.5,3.5,1.4,5.4-1.1,1.9-3.5,2.5-5.4,1.4,0,0,0,0,0,0Zm2.9-4.9c-.8-.4-1.9-.1-2.3.7-.4.8-.1,1.9.7,2.3.8.4,1.8.1,2.3-.7.5-.8.3-1.8-.5-2.3,0,0,0,0-.1,0h0Z"/><path d="m175.8,178.7l5.2,5.4-1.6,1.6-.5-.5c0,.8-.3,1.6-.9,2.1-1.1,1.1-2.8,1.1-3.9,0-.1-.1-.2-.2-.3-.3l-3.2-3.3,1.6-1.6,3,3.1c.4.5,1.1.6,1.6.3.1,0,.2-.2.3-.3.6-.5.7-1.4.2-1.9,0,0-.1-.1-.2-.2l-2.8-2.9,1.6-1.6h-.1Z"/><path d="m179.7,180.4c-1-2-.3-4.4,1.7-5.4,1.2-.6,2.6-.6,3.7,0l-1.1,2c-.5-.3-1.2-.3-1.7,0-.8.5-1.1,1.6-.6,2.4.4.8,1.3,1.2,2.2.8,0,0,0,0,.1,0,.6-.3.9-.9.8-1.5h2.4c0,1.4-.8,2.7-2,3.4-1.8,1.1-4.2.5-5.3-1.3,0,0,0-.1-.1-.2h0Z"/><path d="m194,173.6l1.2,4.4-2.2.6-1.1-4.1c0-.7-.7-1.1-1.3-1.1,0,0-.2,0-.3,0-.8.2-1.2.8-.9,1.9l1.1,4-2.2.6-2.8-10.1,2.2-.6,1,3.6c.3-.7,1-1.3,1.8-1.4,1.5-.4,3,.4,3.4,1.9,0,.1,0,.3,0,.4v-.2Z"/><path d="m208.5,168.2l-1.3,10.4-2.2-.3v-.7c-.6.6-1.4.8-2.2.6-2-.2-3.3-2.2-3.1-4.4.2-2.1,1.9-3.6,4-3.5.8,0,1.6.5,2.1,1.2l.5-3.7,2.2.3h0Zm-3.1,6.4c.2-.9-.4-1.8-1.3-2,0,0-.1,0-.2,0-.9-.1-1.8.5-2,1.5,0,0,0,0,0,.1-.2.9.4,1.8,1.3,2,0,0,.1,0,.2,0,.9.1,1.8-.5,2-1.5,0,0,0,0,0-.1Z"/><path d="m210.6,172l2.1.7-2.4,7.1-2.1-.7,2.4-7.1Zm.4-2c.2-.7,1-1.1,1.7-.9.7.2,1.1,1,.9,1.7-.2.7-1,1.1-1.7.9-.7-.2-1.1-1-.9-1.7h0Z"/><path d="m217.7,180.9c-.8,1.5-2.5,1.5-3.9.7-1.3-.5-2.1-1.7-2-3.1h2.2c0,.5.2,1.1.7,1.3.5.3.8.2.9,0,.4-.7-3.1-2.1-1.9-4.4.8-1.2,2.4-1.6,3.6-.9,0,0,0,0,0,0,1.1.5,1.8,1.6,1.8,2.8h-2.2c0-.4-.2-.8-.6-1-.2-.2-.6-.2-.8,0-.4.8,3.1,2,1.8,4.4h.3Z"/><path d="m225.7,185.8c-1.2,1.6-3.5,1.9-5.1.7,0,0-.1-.1-.2-.2-.7-.5-1-1.3-1-2.2l-2.5,2.7-1.7-1.5,7-7.8,1.7,1.5-.5.5c.8,0,1.7.2,2.3.8,1.5,1.4,1.5,3.7,0,5.2,0,0,0,0,0,0v.2Zm-1.7-1.5c.7-.7.8-1.8,0-2.5,0,0,0,0,0,0-.7-.7-1.8-.7-2.4,0,0,0-.1.1-.2.2-.7.7-.8,1.8,0,2.5,0,0,0,0,0,0,.7.7,1.8.7,2.4,0,0,0,.1-.1.2-.2Z"/><path d="m232.2,182.8l1.3,1.8-8.8,6.5-1.3-1.8,8.8-6.5Z"/><path d="m235.6,195.8l-6.8,3.2-.9-2,.6-.3c-.8-.3-1.4-.8-1.8-1.6-.8-1.9,0-4.1,2-4.8,0,0,0,0,.1,0,1.9-1,4.1-.2,5.1,1.6.4.7.4,1.6.1,2.4l.6-.3.9,2h0Zm-4.3-.5c.9-.4,1.3-1.4.9-2.3,0,0,0,0,0,0-.4-.9-1.4-1.3-2.2-.9,0,0-.1,0-.2,0-.9.4-1.3,1.4-.9,2.3,0,0,0,0,0,0,.4.9,1.4,1.3,2.2.9,0,0,.1,0,.2,0Z"/><path d="m237.6,205.7l-7.6-1.3c-2.5-.4-3.7-1.6-3.9-3.7l2.1-.4c.2,1,.6,1.5,1.5,1.6l6.5-4.2.4,2.4-4.2,2.4,4.8.6.4,2.4v.2Z"/><circle class="cls-3" cx="123.9" cy="330.1" r="45"/><path d="m86.6,321.8l-.6,2.8,8.5,1.8-.5,2.5-8.5-1.8-.6,2.8-2.4-.5,1.7-8.1,2.4.5Z"/><path d="m91.2,313.7l7.2,3.5-1,2.2-.7-.3c.3.7.3,1.6-.2,2.6-.9,1.9-3.3,2.6-5.5,1.6-2.1-1-3.1-3.4-2.1-5.3.5-1,1.1-1.5,1.9-1.7l-.7-.3,1-2.2h.1Zm2.6,3.9c-1.1-.5-2.1,0-2.6.9s-.1,2,.9,2.6c1.1.5,2.1,0,2.6-.9s.1-2-.9-2.6Z"/><path d="m101.9,307.4c1.7,1.6,1.9,4.1.5,5.7-.7.8-1.5,1.1-2.3,1.1l.5.5-1.6,1.8-8.2-7.6,1.6-1.8,2.9,2.7c0-.8.2-1.6.9-2.4,1.4-1.5,4-1.5,5.7,0Zm-1.6,1.8c-.9-.8-2-.7-2.7,0s-.7,1.9.1,2.7c.9.8,2,.7,2.7,0s.7-1.9-.1-2.7Z"/><path d="m99,300.3l2-1.4,6.7,9.6-2,1.4-6.7-9.6Z"/><path d="m111.5,304.3c.6-.3,1-.7,1.2-1.2l2.2.3c-.3,1.3-1.2,2.3-2.6,2.9-2.5,1.1-4.8,0-5.7-2.1-.9-2.2,0-4.6,2.2-5.6,2.1-.9,4.4,0,5.4,2.3,0,.3.2.6.3.9l-5.2,2.2c.6.6,1.4.6,2.2.3Zm.2-3.3c-.6-.8-1.4-.8-2.1-.5-.8.4-1.2,1-1.1,1.9l3.2-1.4Z"/><path d="m118.4,298.4l.5,2.8c0,.7.7.6,1.7.4l.4,2.1c-3,.9-4.1.1-4.5-2.1l-.5-2.8-1.3.2-.4-2.3,1.3-.2-.3-1.5,2.2-1.1.4,2.2,1.6-.3.4,2.3-1.6.3h0Z"/><path d="m122,297.7l6.1.2v2.3l-6.1-.2v-2.3Z"/><path d="m138.5,302.6c-.7,2.3-2.9,3.5-4.9,2.9-1-.3-1.7-.9-2-1.6l-.2.7-2.3-.7,3.3-10.7,2.3.7-1.2,3.8c.7-.4,1.5-.5,2.6-.2,2,.6,3.1,2.9,2.4,5.2h0Zm-2.3-.7c.4-1.1-.2-2.1-1.2-2.4-1.1-.3-2,.2-2.4,1.3-.4,1.1.2,2.1,1.2,2.4,1.1.3,2-.2,2.4-1.3Z"/><path d="m139.7,303.2c1.3-2,3.9-2.4,5.9-1.1s2.5,3.9,1.1,5.9c-1.3,2-3.9,2.4-5.9,1.1s-2.5-3.9-1.1-5.9Zm5,3.4c.6-.9.4-2-.5-2.6s-1.9-.4-2.6.5-.4,2,.5,2.6,1.9.4,2.6-.5Z"/><path d="m158.8,311l-8.7,7.1-1.5-1.9.6-.5c-.8,0-1.6-.4-2.3-1.2-1.3-1.6-1-4.1.9-5.6,1.8-1.5,4.4-1.3,5.7.3.7.8.9,1.7.7,2.5l3.1-2.5,1.5,1.9h0Zm-7.1,2.7c.9-.8,1-1.9.3-2.7-.7-.9-1.8-1-2.7-.2-.9.8-1,1.9-.3,2.7.7.9,1.8,1,2.7.2Z"/><path d="m160.9,322.8l-8.2.6c-2.7.2-4.2-.7-5-2.8l2.1-.9c.4,1,1,1.4,2,1.3l5.8-5.9,1,2.4-3.8,3.6,5.1-.6,1,2.4h0Z"/><path d="m165.2,328.7l-11,2-.5-2.5,8.4-1.5-.9-1.9,2-1,1.6,2.7.4,2.2Z"/><path class="cls-26" d="m123.9,317.5h12.4c1.9,0,3.6,1.4,3.6,3.4v34.4c0,1.5-.6,2.6-1.9,3.3-.3.2-.7.2-1,.4h-13.1v-2.4h12.2c.9,0,1.3-.4,1.3-1.2v-34.3c0-.9-.4-1.2-1.3-1.2h-12.2v-2.4Z"/><path class="cls-39" d="m123.9,356.4v2.4h-13.2c0-.2-.4-.2-.5-.2-1.3-.5-2.2-1.7-2.2-3.1v-34.4c0-1.5.6-2.7,2-3.3.4-.2.8-.3,1.2-.3h12.7v2.4h-12.2c-.9,0-1.3.3-1.3,1.3v34c0,.9.3,1.3,1.3,1.3h12.2Z"/><path class="cls-11" d="m123.9,319.9h12.2c.9,0,1.3.4,1.3,1.2v34c0,.9-.4,1.2-1.3,1.2h-12.2v-2.5h3.5c.5,0,1.1-.4,1.1-.9.2-.9-.4-1.6-1.3-1.6h-3.3v-9.8c.8,0,1.2-.6,1.2-1.4v-4.1c0-.8-.4-1.3-1.2-1.4v-9.8h1.7c.7,0,1.2-.5,1.2-1.2h0c0-.7-.5-1.2-1.2-1.2h-1.7v-2.5h0Zm5.9,18.3v-3.8c0-.5-.2-.9-.6-1.2-.8-.5-1.8,0-1.8,1.1v7.5c0,.5,0,1,.6,1.3.8.5,1.8,0,1.8-1.2v-3.8h0Zm4.7,0v-1c0-.7-.5-1.2-1.2-1.2h0c-.7,0-1.2.5-1.2,1.1v2.1c0,.7.6,1.2,1.3,1.1.6,0,1.1-.6,1.1-1.2v-1h0Z"/><path class="cls-9" d="m123.9,319.9v2.5h-1.6c-.8,0-1.3.5-1.3,1.2s.6,1.2,1.3,1.2h1.6v9.8h0c-.8,0-1.2.7-1.2,1.5v3.9c0,.8.5,1.5,1.2,1.5h0v9.9h-3.3c-.8,0-1.3.5-1.3,1.2s.6,1.2,1.3,1.2h3.3v2.5h-12.2c-.9,0-1.3-.3-1.3-1.3v-33.8c0-.9.3-1.3,1.3-1.3h12.2Zm-3.6,18.2v-5.9c-.2-.5-.8-.8-1.3-.8s-1,.6-1,1.2v10.9c0,.7.5,1.2,1.2,1.2h0c.7,0,1.2-.6,1.1-1.3v-5.4h0Zm-4.7,0v-2.2c0-.7-.5-1.3-1.2-1.3s-1.2.6-1.2,1.3v4.3c0,.7.5,1.3,1.2,1.3s1.2-.6,1.2-1.3v-2.1Z"/><path class="cls-30" d="m129.8,338.2v3.8c0,1.1-1,1.7-1.8,1.2-.5-.3-.6-.8-.6-1.3v-7.5c0-1.1,1-1.7,1.8-1.1.4.3.6.7.6,1.2v3.8h0Z"/><path class="cls-41" d="m123.9,351.5h3.3c.9,0,1.5.7,1.3,1.6,0,.4-.6.8-1.1.9h-3.5v-2.4h0Z"/><path class="cls-13" d="m134.5,338.2v1c0,.7-.6,1.2-1.2,1.2s-1.1-.5-1.2-1.1v-2.1c0-.7.6-1.1,1.2-1.1s1.2.5,1.2,1.2h0v1h0Z"/><path class="cls-10" d="m123.9,334.7c.8,0,1.2.6,1.2,1.4v4.1c0,.8-.4,1.3-1.2,1.4h0v-6.9h0Z"/><path class="cls-41" d="m123.9,322.4h1.7c.8,0,1.2.5,1.2,1.2s-.5,1.2-1.2,1.2h-1.7v-2.4h0Z"/><path class="cls-38" d="m120.3,338.1v5.4c0,.7-.5,1.3-1.1,1.3s-1.2-.5-1.3-1.2h0v-10.9c0-.6.5-1.2,1-1.2s1.1.2,1.3.8v5.9h0Z"/><path class="cls-38" d="m115.6,338.2v2.1c0,.7-.5,1.3-1.2,1.3s-1.2-.6-1.2-1.3v-4.3c0-.7.5-1.3,1.2-1.3s1.2.6,1.2,1.3v2.2Z"/><path class="cls-15" d="m123.9,351.5v2.4h-3.3c-.8,0-1.3-.5-1.3-1.2s.6-1.2,1.3-1.2c1.1,0,2.2,0,3.3,0Z"/><path class="cls-29" d="m123.9,334.7v6.9c-.8,0-1.2-.7-1.2-1.5v-3.9c0-.8.5-1.5,1.2-1.5Z"/><path class="cls-19" d="m123.9,322.4v2.4h-1.6c-.8,0-1.3-.6-1.3-1.2s.5-1.2,1.3-1.2h1.6Z"/><path d="m122.2,324.8h5.7v25.9h-6.6v-18.9l-4.5,1.1-1.6-5.6,7-2.5Z"/><circle class="cls-3" cx="275.5" cy="330.1" r="45"/><path d="m242.1,314.5c1.9.7,2.8,2.8,2.1,4.7l-.6,1.5,3.1,1.2-.8,2.2-9.8-3.7,1.4-3.7c.7-1.9,2.8-2.9,4.7-2.2h-.1Zm-.8,2.2c-.7-.3-1.5,0-1.7.7l-.5,1.5,2.5.9.6-1.5c.3-.7-.1-1.4-.8-1.7h-.1Z"/><path d="m249.3,308l3.7,2.7-1.3,1.8-3.5-2.5c-.8-.5-1.4-.3-1.9.3-.5.7-.4,1.4.4,2l3.3,2.4-1.3,1.8-8.5-6.2,1.3-1.8,3,2.2c-.2-.7,0-1.5.5-2.3.9-1.2,2.5-1.6,4.2-.5h0Z"/><path d="m251.1,307.3c-1.4-1.7-1.1-4.2.6-5.6s4.2-1.1,5.6.6,1.1,4.2-.6,5.6-4.2,1.1-5.6-.6Zm4.4-3.6c-.7-.8-1.7-.9-2.5-.3s-.9,1.6-.2,2.5c.7.8,1.7.9,2.5.3s.9-1.6.2-2.5Z"/><path d="m264.9,297.9l1.8,4.2-2.1.9-1.7-3.9c-.4-.9-1.1-1-1.7-.7-.8.3-1.1,1-.7,2l1.6,3.8-2.1.9-3-6.9,2.1-.9.3.6c0-.7.7-1.3,1.6-1.7,1.4-.6,3-.1,3.8,1.7h.1Z"/><path d="m271.1,299.6c.6,0,1.1-.4,1.3-.8l1.9.8c-.6,1.1-1.6,1.8-3,2-2.5.4-4.4-1.1-4.7-3.3s1-4.2,3.4-4.5c2.2-.3,4,1.1,4.3,3.4v.9l-5.3.8c.4.7,1.1.9,1.9.8h.2Zm1-2.9c-.4-.8-1.1-1-1.7-.9-.8.1-1.3.6-1.4,1.4l3.2-.5h0Z"/><path d="m276.3,295.4l5.7.6-.2,2.2-5.7-.6.2-2.1h0Z"/><path d="m291.4,300.9c-.8,2.1-2.9,3.2-4.7,2.5-.9-.3-1.5-.9-1.8-1.6l-.2.7-2.1-.8,3.6-9.8,2.1.8-1.3,3.5c.7-.4,1.5-.4,2.4,0,1.8.7,2.8,2.9,2,5v-.3Zm-2.1-.8c.4-1.1,0-2-1-2.3-1-.4-1.9,0-2.3,1.1-.4,1.1,0,2,1,2.3,1,.4,1.9,0,2.3-1.1Z"/><path d="m292.5,301.5c1.3-1.8,3.8-2.1,5.5-.8s2.2,3.7.9,5.5c-1.3,1.8-3.8,2.1-5.5.8-1.8-1.3-2.2-3.7-.9-5.5Zm4.6,3.4c.6-.9.4-1.9-.3-2.4-.8-.6-1.8-.5-2.4.4s-.4,1.9.3,2.4c.8.6,1.8.5,2.4-.4Z"/><path d="m310.1,309.3l-8.3,6.5-1.4-1.8.6-.4c-.8,0-1.5-.4-2.1-1.2-1.2-1.5-.8-3.9.9-5.3,1.8-1.4,4.1-1.2,5.3.4.6.8.8,1.6.7,2.3l2.9-2.3,1.4,1.8Zm-6.7,2.4c.9-.7,1-1.7.3-2.5-.6-.8-1.7-1-2.5-.3-.9.7-1,1.7-.3,2.5.6.8,1.7,1,2.5.3Z"/><path d="m312,320.3l-7.7.5c-2.5.2-3.9-.7-4.6-2.7l1.9-.8c.4,1,.9,1.3,1.9,1.2l5.4-5.5,1,2.3-3.6,3.3,4.8-.5.9,2.2h0Z"/><path d="m306.7,322.7l4.2,2.9c.7.5,1.4.9,2,.8.7,0,1-.6.9-1.3s-.7-1.2-1.4-1.3l.8-2.2c1.6.4,2.6,1.7,2.8,3.1.3,1.9-.7,3.7-2.7,4-1.2.2-2.4-.3-3.5-1.1l-2-1.4.6,3.5-2.3.4-1.1-7.1,1.7-.3Z"/><path class="cls-33" d="m280.9,314.3h6.1c1.7,0,3.3,1.6,3.4,3.3v41.4c0,1.9-.9,3.2-2.5,3.8-.4,0-.8.2-1.1.2h-22.6c-2,0-3.7-1.7-3.7-3.7v-4h1.8v4c0,1.2.8,1.9,2,1.9h22.2c1.2,0,2-.8,2-2v-41c0-1.2-.8-2-1.9-2h-4.6c0-.8-.7-1.3-1.1-1.9Z"/><path class="cls-8" d="m280.9,314.3c.4.6,1,1.1,1.1,1.8h-17.3c-1.7,0-2.4.7-2.4,2.4v36.7h-1.8v-36.9c0-1.7.7-3,2.3-3.7.4-.2.8-.3,1.3-.3h16.9,0Z"/><path class="cls-43" d="m262.3,355.3v-36.7c0-1.7.7-2.4,2.4-2.4h17.4v36c0,1.7-1.3,3.1-3,3.1h-16.8Zm13.1-33.5h3.6c1.1,0,2-.8,2-1.8s-.8-1.9-2-1.9h-7.2c-1.1,0-2,.8-2,1.8s.8,1.9,2,1.9h3.6Zm-4.2,22.9c.2,0,.5-.2.6-.3l9.2-9.2c.2-.2.4-.5.3-.8s-.2-.6-.6-.7c-.4,0-.8,0-1.1.3-3,3-6.1,6.1-9.1,9.1l-.2.2c-.2.3-.2.6,0,.9.2.3.5.5.9.5h0Zm5.7-11.1c0-.4-.3-.7-.6-.9-.5-.2-.8,0-1.1.4l-5.5,5.5c-.5.5-.5,1.1,0,1.4s1,.4,1.4,0c1.9-1.8,3.7-3.7,5.6-5.5.2-.2.3-.4.4-.7h0l-.2-.2Z"/><path class="cls-23" d="m262.4,355.3h16.7c1.8,0,3-1.3,3-3.1v-36h4.5c1.2,0,1.9.8,1.9,2v41c0,1.2-.8,2-2,2h-22.2c-1.1,0-1.9-.7-2-1.9v-4h0Zm13.1,3.1h-5.4c-.7,0-1.2.3-1.2.9s.4,1,1.1,1h10.8c.7,0,1.2-.4,1.1-.9s-.4-.9-1.2-.9h-5.4.2Z"/><path class="cls-22" d="m275.4,321.8h-3.6c-1.2,0-2-.8-2-1.9s.8-1.8,2-1.8h7.2c1.2,0,2,.8,2,1.9s-.9,1.8-2,1.8h-3.6Z"/><path class="cls-17" d="m271.2,344.7c-.4,0-.7-.2-.9-.5-.2-.3,0-.7,0-.9l.2-.2c3-3,6.1-6.1,9.1-9.1.3-.3.7-.4,1.1-.3.4,0,.5.4.6.7s0,.6-.3.8l-9.2,9.2c-.2.2-.4.3-.6.3Z"/><path class="cls-12" d="m275.4,358.3h5.4c.7,0,1.2.3,1.2.9s-.4.9-1.1.9h-10.8c-.7,0-1.2-.4-1.1-1s.4-.9,1.2-.9h5.4-.2Z"/><path d="m265.9,352.4v-4.8l8.6-9.1c.9-.9,1.5-1.7,1.9-2.3s.6-1.2.6-1.7-.2-1.2-.6-1.6-1-.6-1.7-.6c-1.5,0-2.7.9-3.5,2.7l-5.7-3.2c.8-1.9,2.1-3.4,3.7-4.4,1.6-1,3.4-1.5,5.4-1.5s4.6.7,6.3,2.2c1.8,1.5,2.6,3.5,2.6,6s-.4,2.9-1.1,4.2c-.7,1.3-1.7,2.6-3.1,4l-3.5,3.7h8.1v6.4h-18.1,0Z"/></svg>