<?xml version="1.0" encoding="UTF-8"?><svg id="Layer_1" xmlns="http://www.w3.org/2000/svg" viewBox="0 0 400 400"><defs><style>.cls-1{stroke:#a5262d;}.cls-1,.cls-2,.cls-3{stroke-width:4px;}.cls-1,.cls-2,.cls-3,.cls-4{stroke-miterlimit:10;}.cls-1,.cls-2,.cls-3,.cls-4,.cls-5{fill:none;}.cls-6{fill:#fcfcfd;}.cls-7{fill:#deb6a3;}.cls-2{stroke:#0018c6;}.cls-8{fill:#3f5c6c;}.cls-3{stroke:#c000e2;}.cls-9{fill:#54747f;}.cls-10{fill:#364a5f;}.cls-11{fill:#bacce9;}.cls-12{fill:#c7c7c7;}.cls-13{fill:#b68c7b;}.cls-14{fill:#bdbdbd;}.cls-15{fill:#ecf5fe;}.cls-4{stroke:#231f20;stroke-width:2px;}.cls-16{fill:#dfc7be;}.cls-17{fill:#b9cce9;}.cls-18{fill:#aaa;}.cls-19{fill:#3b97d2;}.cls-20{fill:#bdc3c7;}.cls-21{fill:#c59a85;}.cls-22{fill:#d7e1f2;}.cls-23{fill:#231f20;}</style></defs><line class="cls-5" x1="199.8" y1="113.3" x2="200.2" y2="146.1"/><line class="cls-4" x1="199.8" y1="113.3" x2="200.1" y2="135.4"/><polygon class="cls-23" points="192.6 133.3 200.2 146.1 207.5 133.1 192.6 133.3"/><circle class="cls-1" cx="200" cy="63.7" r="45"/><path d="m180.4,34.6c1.6,2,1.2,4.9-.8,6.5l-1.6,1.2,2.6,3.3-2.4,1.9-8.3-10.4,3.9-3.1c2-1.6,4.9-1.3,6.5.7,0,0,0,0,0,0h.1Zm-2.4,1.9c-.5-.7-1.4-.9-2.1-.4,0,0-.1,0-.2.1l-1.6,1.2,2.1,2.7,1.6-1.2c.7-.6.8-1.6.2-2.3,0,0,0,0,0,0h0Z"/><path d="m180.8,28.8l2.6-1.2,5.8,12.6-2.6,1.2-5.8-12.6Z"/><path d="m198.2,28.3l1.7,9.4-2.8.5-.2-.9c-.6.9-1.5,1.5-2.6,1.6-2.6.4-5-1.5-5.4-4.1,0,0,0,0,0,0-.6-2.5.9-5,3.4-5.7,0,0,.1,0,.2,0,1-.2,2.1,0,3,.6l-.2-.9,2.8-.5h0Zm-2,5.2c-.1-1.2-1.2-2.1-2.4-1.9,0,0-.1,0-.2,0-1.2.1-2,1.2-1.9,2.4,0,.1,0,.2,0,.3.1,1.2,1.2,2.1,2.4,1.9,0,0,.1,0,.2,0,1.2-.1,2-1.2,1.9-2.4,0,0,0-.2,0-.3h0Z"/><path d="m208.7,36c-.3,2.2-2.3,2.9-4.3,2.6-1.7,0-3.2-1.2-3.8-2.8l2.6-1.1c.1.7.8,1.3,1.5,1.3.7,0,1,0,1.1-.5.1-1-4.6-1.1-4.2-4.3.3-2.1,2.1-2.9,4.1-2.6,1.5.1,2.8,1.1,3.4,2.5l-2.6,1c-.2-.5-.6-.9-1.2-1-.5,0-.8,0-.9.4-.1,1.1,4.6,1,4.1,4.4h.2Z"/><path d="m214.4,34l-1.2,3.1c-.3.8.3,1.1,1.5,1.5l-.9,2.4c-3.6-1-4.2-2.4-3.3-4.9l1.2-3.2-1.4-.5,1-2.6,1.4.5.6-1.7,3,.2-.9,2.5,1.8.7-1,2.6-1.8-.7h0Z"/><path d="m219.7,33.4l2.4,1.5-4.9,8.2-2.4-1.5,4.9-8.2Zm1.1-2.3c.5-.8,1.5-1.1,2.3-.6.8.5,1.1,1.5.6,2.3-.5.8-1.5,1.1-2.3.6-.8-.5-1.1-1.5-.6-2.3,0,0,0,0,0,0h0Z"/><path d="m221.4,39.9c1.8-2,4.9-2.2,6.9-.4,0,0,.2.1.2.2,1.3,1.2,1.8,3,1.4,4.7l-2.8-.7c.2-.7,0-1.5-.6-2-.9-.8-2.3-.7-3.1.2-.8.9-.7,2.2,0,3,.5.6,1.4.8,2.1.5l.8,2.7c-1.7.5-3.5,0-4.8-1.2-2-1.9-2.1-5.1-.2-7.1,0,0,0,0,0,0h.1Z"/><path class="cls-22" d="m223.4,60h0c0,0-1.6,0-1.6,0q-.7,0-.7.7v30.3c0,.4-.1.9-.4,1.2-.2.2-.5.2-.7.4h-10.7c0,0,0-.2,0-.3-.4-1.8-.8-3.6-1.2-5.4-.7-3.1-1.4-6.2-2.1-9.4-1-4.6-2.1-9.1-3.2-13.6-.9-4-1.8-8-2.7-11.9h15c.2,0,.5,0,.6.2v6.2c0,.7.6,1.3,1.3,1.4h3.8c.3,0,.4,0,.4-.4v-1.8c.1,0,.2,0,.2.2l2,2Z"/><path class="cls-17" d="m223.4,91.6c-.4.8-1.3,1.3-2.1,1.1-.4,0-.8,0-1.2,0,.2-.2.5-.2.7-.4.3-.3.4-.8.4-1.2v-30.3q0-.7.7-.7h1.6v31.6Z"/><path class="cls-14" d="m179.8,52.1c0-.3,0-.6,0-.9-.2-.9.3-1.7,1.1-2.1h2c0,0,0,.1.1.2.6.4.9,1.1.8,1.8v1.1h-4Z"/><path class="cls-18" d="m183.8,52.2v-1.1c.1-.7-.2-1.4-.8-1.8,0,0-.1-.1-.1-.2h2c.9.4,1.4,1.4,1.2,2.3v.8h-2.2Z"/><path class="cls-15" d="m209.3,92.7h-6.2c0,0,0-.1,0-.2l-1.8-8-3.2-13.7c-1.1-4.6-2.1-9.2-3.2-13.9-.4-1.6-.7-3.2-1.1-4.8h6.2c.9,4,1.8,8,2.8,11.9,1.1,4.5,2.1,9.1,3.2,13.6.7,3.1,1.4,6.2,2.1,9.4.4,1.8.8,3.6,1.2,5.4,0,.1,0,.2,0,.3Z"/><path class="cls-15" d="m215.6,52.4c.1,0,.3,0,.3.2l5,5c0,0,0,.1.1.2v1.8c0,.3-.1.4-.4.4h-3.8c-.7,0-1.3-.7-1.3-1.4v-6.2Z"/><path class="cls-22" d="m193.8,52.2c.4,1.6.7,3.2,1.1,4.8,1.1,4.6,2.1,9.2,3.2,13.9,1.1,4.6,2.1,9.2,3.2,13.7.6,2.7,1.2,5.3,1.8,8,0,0,0,.1,0,.2h-14.1v-3c0-.5-.3-.8-.7-.8s-.8.3-.8.8v3h-7.8c-.5,0-.9,0-1.4,0-.9,0-1.7-.7-1.7-1.7,0,0,0,0,0,0v-37.1c0-.9.7-1.7,1.7-1.7,0,0,0,0,0,0h9.2v3c0,.5.3.8.7.8s.8-.3.8-.8v-3h4.8Zm-4.8,20.4v-1.5c0-.4-.2-.7-.6-.8,0,0,0,0-.1,0-.4,0-.7.3-.7.7,0,0,0,0,0,0v3c0,.4.3.7.7.7s.7-.3.7-.7c0-.5,0-1,0-1.5Zm-1.5,6.1v1.6c0,.4.2.8.6.8.4,0,.8-.2.8-.6,0,0,0-.1,0-.2v-3.1c0-.4-.3-.7-.8-.8-.4,0-.7.3-.7.7,0,0,0,0,0,0v1.5h0Zm0-12.4v1.5c0,.4.3.8.7.8,0,0,0,0,0,0,.4,0,.7-.4.7-.8v-2.9c0-.6-.3-.8-.7-.8s-.7.3-.7.8v1.5h0Zm0-6.3v1.5c0,.4.2.7.6.8,0,0,0,0,.1,0,.4,0,.7-.3.7-.7,0,0,0,0,0-.1v-2.9c0-.4-.2-.7-.6-.8,0,0,0,0-.1,0-.4,0-.7.3-.7.8s0,.9,0,1.4h0Zm1.5,25v-1.5c0-.5-.3-.8-.7-.8-.4,0-.7.3-.8.7,0,0,0,0,0,.1v2.9c0,.4.2.7.6.8,0,0,0,0,.1,0,.4,0,.7-.3.7-.8s0-1,0-1.5h0Z"/><path class="cls-17" d="m189,52.2v3c0,.5-.3.8-.8.8s-.7-.3-.7-.8v-3h1.4Z"/><path class="cls-14" d="m179.8,92.7h3.9v1.2c0,.8-.4,1.6-1.2,1.9h-1.2c-.8,0-1.6-.6-1.6-1.5,0,0,0,0,0-.1v-1.4h0Z"/><path class="cls-18" d="m182.6,95.8c.8-.3,1.3-1.1,1.2-1.9v-1.2h2.2c0,.6,0,1.2,0,1.8-.1.8-.8,1.3-1.6,1.3h-1.8Z"/><path class="cls-17" d="m187.6,92.7v-3c0-.5.3-.8.8-.8s.7.3.7.8v3h-1.5Z"/><path class="cls-12" d="m179.8,52.2h0s0,0,0,0h0Z"/><path class="cls-12" d="m179.8,92.7h0c0,0,0,0,0,0h0Z"/><path class="cls-11" d="m189.1,72.6v1.5c0,.4-.2.7-.6.8,0,0,0,0,0,0-.4,0-.7-.3-.8-.7,0,0,0,0,0,0v-3c0-.4.3-.7.7-.7s.7.3.7.7c0,.4,0,1,0,1.5Z"/><path class="cls-17" d="m187.6,78.7v-1.5c0-.4.2-.7.6-.7,0,0,0,0,0,0,.4,0,.7.4.8.8v3.1c0,.4-.2.7-.6.7,0,0,0,0-.1,0-.4,0-.7-.3-.7-.7,0,0,0,0,0-.1,0-.5,0-1,0-1.6Z"/><path class="cls-17" d="m187.6,66.2v-1.5c0-.5.3-.8.7-.8s.7.3.8.8v2.9c0,.4-.3.8-.8.8-.4,0-.7-.4-.7-.8,0,0,0,0,0,0,0-.5,0-1,0-1.5Z"/><path class="cls-17" d="m187.6,60v-1.4c0-.5.3-.8.7-.8.4,0,.7.3.7.7,0,0,0,0,0,.1v2.9c0,.4-.2.8-.6.8-.4,0-.8-.2-.8-.6,0,0,0-.1,0-.2,0-.5,0-1,0-1.5Z"/><path class="cls-17" d="m189.1,85v1.4c0,.5-.3.8-.7.8-.4,0-.7-.3-.7-.6,0,0,0,0,0-.1v-2.9c0-.4.2-.7.6-.8,0,0,0,0,.1,0,.5,0,.7.3.7.8s0,1,0,1.5Z"/><circle class="cls-2" cx="200" cy="197.4" r="45"/><path class="cls-7" d="m191.7,232.1c-.4-.1-.7-.2-1.1-.3-2.9-.7-5.5-2.4-7.4-4.7-1.8-2-3.1-4.3-4.1-6.8v-.3h12.4c1.5,0,3,0,4.4-.5.6,1.4,1.4,2.7,2.3,4,.5.7,1,1.4,1.7,1.9,0,.4.4.5.6.7,1.6,1.6,3.8,2.6,6.1,2.6.9,0,1.6.7,1.6,1.6,0,.6-.4,1.2-.9,1.6h.5c0,.1-15.9.1-15.9.1h-.2Z"/><path class="cls-21" d="m206.8,179.7c2,0,4,.7,5.7,1.8,2.5,1.6,4.6,3.8,6,6.4,1.9,3.3,3.3,6.9,3.9,10.7.5,3.3.7,6.6.6,9.9,0,1,0,2-.4,3-.3,0-.4.2-.6.4-.7.8-1.6,1.5-2.5,2-1.9,1-4.1,1.4-6.2,1.1-1.5-.2-2.9-.6-4.1-1.4-1.3-.8-2.4-1.9-3.2-3.2,0-.9.2-1.9.2-2.8,0-1.8,0-3.7-.2-5.5-.3-2.7-.8-5.3-1.7-7.9-.9-2.9-2.5-5.6-4.6-7.8,0-.4.5-.5.7-.8,1.6-1.6,3.8-2.5,6-2.5.6,0,1.2-.3,1.4-.9.5-.9.1-1.9-.7-2.4,0,0-.2,0-.3-.1Zm7.8,23.2c-2,0-3.6,1.6-3.6,3.6s1.6,3.6,3.6,3.6,3.6-1.6,3.6-3.6-1.6-3.6-3.6-3.6h0Z"/><path class="cls-13" d="m206,210.3c.8,1.3,1.9,2.4,3.2,3.2,1.2.8,2.6,1.2,4.1,1.4,2.1.2,4.3-.1,6.2-1.1,1-.5,1.8-1.2,2.5-2,.2-.2.3-.4.6-.4-.4,3.5-1.3,6.8-2.8,10-1.2,2.8-3,5.3-5.2,7.3-1.9,1.8-4.4,3-7,3.3h-.5c.5-.4.9-1,.9-1.7,0-.9-.7-1.6-1.6-1.6,0,0,0,0,0,0-2.3,0-4.5-1-6.1-2.6-.2-.2-.6-.3-.6-.7l.6-.6c1.8-2.1,3.1-4.6,4-7.2.8-2.4,1.3-4.9,1.7-7.4h0Z"/><path class="cls-7" d="m195.9,192c-1.3-.5-2.8-.6-4.2-.5h-12.6c1-2.4,2.3-4.6,3.9-6.6,1.2-1.5,2.7-2.7,4.4-3.7,1.5-.9,3.1-1.3,4.8-1.4h14.5c.9.3,1.4,1.2,1.2,2.1,0,.1,0,.3-.2.4-.3.5-.8.8-1.4.9-2.2,0-4.4.9-6,2.5-.3.2-.7.3-.7.8-.4.2-.7.7-1,1-1.1,1.4-2.1,3-2.8,4.6h0Z"/><path class="cls-16" d="m214.6,202.9c2,0,3.6,1.6,3.6,3.6s-1.6,3.6-3.6,3.6h0c-2,0-3.6-1.6-3.6-3.6s1.6-3.6,3.6-3.6Z"/><path d="m161.3,190.4l.9-2.4,7.6,1-6.1-4.6.7-1.8,7.6.8-6.2-4.4.9-2.4,8.8,6.6-1,2.6-6.4-.7,5.2,3.9-1,2.6-10.9-1.2h-.1Z"/><path d="m176.3,170.6l5.6,5.1-1.5,1.7-.5-.5c0,.8-.3,1.7-.8,2.3-1.5,1.5-3.9,1.5-5.4,0,0,0,0,0,0,0-1.6-1.3-1.9-3.6-.6-5.3,0,0,0,0,.1-.1.5-.7,1.3-1.1,2.2-1l-.5-.5,1.5-1.7h-.1Zm1.3,4.2c-.7-.7-1.8-.8-2.5,0,0,0,0,0,0,0-.7.7-.7,1.8,0,2.4,0,0,.1.1.2.2.7.7,1.8.8,2.5,0,0,0,0,0,0,0,.7-.7.6-1.8,0-2.4,0,0,0,0-.1-.1h0Z"/><path d="m182.2,169.1l1.5,2.2c.4.5.9.3,1.7-.3l1.1,1.7c-2.3,1.9-3.5,1.6-4.7-.1l-1.5-2.2-1,.7-1.2-1.8,1-.7-.8-1.2,1.5-1.8,1.2,1.8,1.3-.9,1.2,1.8-1.3.9h0Z"/><path d="m185.3,169c-.8-2,.1-4.3,2.1-5.1,0,0,.1,0,.2,0,1.3-.5,2.8-.3,3.9.5l-1.4,1.8c-.5-.4-1.1-.5-1.7-.2-.9.3-1.3,1.3-.9,2.2,0,0,0,0,0,.1.2.8,1.1,1.3,2,1.1,0,0,.2,0,.2,0,.6-.2,1-.7,1.1-1.3l2.3.3c-.2,1.4-1.2,2.6-2.5,3.1-2,.8-4.3,0-5.2-2.1,0,0,0,0,0,0h-.1Z"/><path d="m200.5,164.4l.5,4.6-2.3.2-.5-4.3c0-.7-.6-1.2-1.3-1.2,0,0-.2,0-.2,0-.8,0-1.3.6-1.2,1.7l.4,4.1-2.3.2-1.1-10.5,2.3-.2.4,3.7c.5-.7,1.2-1.1,2-1.2,1.5-.2,2.9.8,3.2,2.8h.1Z"/><path d="m214.3,168.2c-.5,2-2.5,3.2-4.5,2.7,0,0,0,0-.1,0-.8-.2-1.5-.8-1.9-1.6l-.2.7-2.2-.7,3.2-10.1,2.2.7-1.1,3.6c.7-.4,1.6-.5,2.4-.2,2,.7,3,2.9,2.3,4.9h0Zm-2.2-.7c.3-1-.2-2-1.2-2.3-1-.3-2,.2-2.3,1.2-.3,1,.2,2,1.2,2.3.9.3,1.9-.1,2.3-1.1,0,0,0,0,0-.1Z"/><path d="m224.3,170.3l-4.3,6.2-1.9-1.3.4-.6c-.8.2-1.7,0-2.4-.5-1.7-1.3-2-3.6-.7-5.3,0,0,0,0,0,0,1-1.7,3.2-2.3,5-1.3,0,0,.1,0,.2.1.7.5,1.2,1.2,1.3,2l.4-.6,1.9,1.3h.1Zm-4,1.8c.6-.8.4-1.9-.4-2.5,0,0,0,0,0,0-.8-.6-1.8-.4-2.4.4,0,0,0,0,0,.1-.6.8-.4,1.9.4,2.5,0,0,0,0,0,0,.7.6,1.8.4,2.4-.3,0,0,0-.1.1-.2h0Z"/><path d="m228.8,179.9l-3.6,2.9-1.4-1.8,3.4-2.7c.6-.4.8-1.3.3-1.9,0,0,0,0,0,0-.4-.6-1.3-.7-1.9-.3,0,0-.1.1-.2.2l-3.2,2.6-1.4-1.8,5.9-4.7,1.4,1.8-.6.4c.8,0,1.6.4,2.1,1.1,1,1.2.9,2.9-.7,4.2h0Z"/><path d="m238.3,186.8l-9.8,4-.9-2.1.7-.3c-.8-.3-1.4-.9-1.7-1.7-.6-2.1.7-4.3,2.8-4.9,1.8-.5,3.7.3,4.6,2,.4.8.4,1.6,0,2.4l3.5-1.4.9,2.1h0Zm-7.2.5c.9-.3,1.4-1.2,1.1-2.1,0,0,0-.2-.1-.3-.3-.9-1.3-1.4-2.2-1.1,0,0-.1,0-.2,0-.9.3-1.4,1.4-1.1,2.3,0,0,0,0,0,.1.3.9,1.3,1.4,2.2,1.1,0,0,.1,0,.2,0Z"/><line class="cls-5" x1="199.7" y1="250.7" x2="200.2" y2="283.5"/><line class="cls-4" x1="199.7" y1="250.7" x2="200" y2="272.7"/><polygon class="cls-23" points="192.5 270.6 200.2 283.5 207.5 270.4 192.5 270.6"/><circle class="cls-3" cx="200" cy="336.3" r="45"/><path d="m158.5,334.3l.6-2.5h7.6c0,0-6.7-3.7-6.7-3.7l.4-1.9,7.6-.3-6.8-3.4.6-2.5,9.6,5.2-.6,2.7-6.4.3,5.7,3.1-.6,2.7-10.9.5v-.2Z"/><path d="m170.2,312.7l6.3,4.1-1.2,1.9-.6-.4c.2.7.1,1.5-.4,2.4-1.1,1.7-3.4,2.1-5.3.9-1.9-1.2-2.5-3.5-1.4-5.2.5-.8,1.2-1.3,2-1.4l-.6-.4,1.2-1.9Zm1.9,3.9c-.9-.6-1.9-.4-2.5.5s-.4,1.9.6,2.5c1,.6,1.9.4,2.5-.5.6-.9.4-1.9-.6-2.5Z"/><path d="m175.6,310.2l1.9,1.9c.5.5.9.1,1.6-.6l1.4,1.5c-1.9,2.3-3.1,2.2-4.6.7l-1.9-1.9-.9.8-1.5-1.5.9-.8-1-1,1.1-2.1,1.5,1.5,1.1-1.1,1.5,1.5-1.1,1.1Z"/><path d="m178.5,309.6c-1.2-1.9-.7-4.2,1.2-5.5,1.2-.8,2.7-.8,3.9-.2l-1,2c-.5-.3-1.1-.3-1.7,0-.8.5-1,1.5-.5,2.4.6.9,1.5,1.1,2.4.5.6-.4.8-.9.8-1.5h2.3c0,1.2-.6,2.5-1.8,3.3-1.9,1.2-4.3.7-5.5-1.2v.2Z"/><path d="m192.4,302l1.4,4.4-2.1.7-1.3-4.1c-.3-.9-1-1.1-1.7-.9-.8.3-1.2.9-.8,1.9l1.3,3.9-2.1.7-3.3-10,2.1-.7,1.2,3.5c.2-.7.8-1.2,1.8-1.5,1.4-.5,3,.1,3.6,2.1h-.1Z"/><path d="m194.5,300.7l5.7-.4.2,2.2-5.7.4-.2-2.2Z"/><path d="m205.7,304.7c.6.1,1.2,0,1.5-.3l1.6,1.3c-.9.9-2.1,1.2-3.5,1-2.5-.4-3.8-2.4-3.4-4.6.4-2.2,2.3-3.6,4.6-3.2,2.2.4,3.5,2.3,3.1,4.6,0,.3,0,.6-.2.9l-5.2-.9c0,.8.8,1.2,1.6,1.3h0Zm1.8-2.5c0-.9-.7-1.3-1.4-1.4-.8-.1-1.5.2-1.8.9l3.2.5Z"/><path d="m213.4,309l-.5-2.4-2.1,1.3-2.4-1,4-2.4-.9-4.4,2.4,1,.5,2.2,1.9-1.2,2.4,1-3.9,2.3.9,4.6-2.4-1h0Z"/><path d="m221.3,307.7l-1.5,2.2c-.4.5,0,.9.9,1.4l-1.2,1.7c-2.6-1.5-2.7-2.7-1.5-4.4l1.5-2.2-1-.7,1.3-1.8,1,.7.8-1.2,2.2.8-1.2,1.7,1.3.9-1.3,1.8-1.3-.9Z"/><path d="m223.9,314.8c.4.5.9.7,1.4.7l.4,2c-1.2.1-2.4-.3-3.3-1.4-1.7-1.9-1.5-4.2,0-5.7,1.7-1.5,4-1.5,5.6.3,1.5,1.6,1.3,4-.4,5.5-.2.2-.5.4-.7.5l-3.6-3.9c-.4.7,0,1.4.4,2h0Zm2.9-.8c.5-.8.3-1.5-.2-2-.6-.6-1.3-.8-2-.4l2.2,2.4Z"/><path d="m234.2,319.5l-2.2,1.3c-.3-.9-1.3-1.8-2.6-1.1l-2.9,1.7-1.1-1.9,6.5-3.8,1.1,1.9-1.2.7c1-.2,1.9.4,2.4,1.2Z"/><path d="m234.4,329.2l-4.4,1.4-.7-2.1,4.1-1.3c.9-.3,1.1-1,.9-1.7-.2-.8-.9-1.2-1.9-.9l-3.9,1.2-.7-2.1,7.2-2.3.7,2.1-.7.2c.7.2,1.2.8,1.5,1.8.5,1.4-.2,3-2.1,3.6h0Z"/><path d="m237.9,338.9l-7.5.2v-2.2h.6c-.6-.5-1-1.2-1-2.2,0-2,1.6-3.6,3.8-3.7,2.2,0,4,1.5,4.1,3.5,0,1-.3,1.8-.8,2.3h.7v2.2h.1Zm-3.8-2.1c1.1,0,1.8-.8,1.8-1.8s-.8-1.8-1.9-1.7-1.8.8-1.8,1.8.8,1.8,1.9,1.7Z"/><path d="m240.9,342.1l-.4,2.2-10.8-1.8.4-2.2,10.8,1.8Z"/><path class="cls-19" d="m209.5,362.2c-1,2.4-2.1,4.7-3.1,7.1-.4.8-1.1,1.2-1.9,1.5h-12.7c-1.2-.4-1.9-1.2-2.4-2.4-.8-1.9-1.7-3.8-2.5-5.7,0,0,0-.3-.2-.5h22.9,0Z"/><path class="cls-10" d="m209.5,362.2h-22.9c-.7,0-1.4,0-2,0-2.3-.5-3.8-2.4-3.8-5v-28.2c0-2.4,1.2-4.1,3.3-4.8.6-.2,1.1-.2,1.7-.2h23.7c.7,0,1.3,0,2,0,2.1.4,3.7,2.3,3.8,4.4v28.7c0,2.5-1.5,4.4-3.8,4.9-.7,0-1.3,0-2,0h0Zm.6-34.5h-24.2c-1,0-1.2.2-1.2,1.2v26.5c-.2.6-.2,1.1,0,1.7.2,1,.3,1.1,1.4,1.1h24.1c1,0,1.3-.3,1.3-1.3v-28.3c0-.6-.6-1-1.3-.9h-.2.1Z"/><path class="cls-19" d="m209.5,323.9h-22.9c.7-1.6,1.4-3.2,2.1-4.9.3-.6.5-1.3.8-1.9.6-1.2,1.5-1.8,2.9-1.8h11.3c1.2,0,2.1.5,2.6,1.5,1.1,2.3,2.1,4.7,3.1,7.1h.1Z"/><path class="cls-20" d="m215.3,337.3v-8.6h1.8c1.1,0,2,.8,2.1,2v4.7c0,1.2-.9,2-2.1,2h-1.8Z"/><path class="cls-8" d="m210.1,327.8c.6-.2,1.2.2,1.4.8v28.5c0,1-.3,1.3-1.3,1.3h-24.1c-1.1,0-1.2,0-1.4-1.1,0-.6-.2-1.1,0-1.7.3-.6,0-1.2.2-1.9.2-1.4.4-2.8.7-4.2.4-2,1-4,1.8-5.9,1.2-2.8,2.9-5.4,5-7.6,1.5-1.6,3.3-3,5.2-4.1,3.2-1.9,6.8-3.2,10.5-3.8.7,0,1.3,0,2-.3h0Zm-11,10.2v-4.4c0-.6-.4-1-.9-1s-1,.3-1,1v9.2c0,.5.2,1,.5,1.3,2.1,2,4.1,4.1,6.2,6.2,0,0,.3.3.4.4.4.3,1,.2,1.3-.3.2-.3.2-.7,0-1,0-.2-.3-.3-.4-.4l-5.8-5.8c-.2-.2-.3-.5-.3-.8v-4.3h0Z"/><path class="cls-9" d="m210.1,327.8c-.6.2-1.3.2-2,.3-3.7.6-7.3,1.9-10.5,3.8-1.9,1.1-3.7,2.5-5.2,4.1-2.1,2.2-3.8,4.8-5,7.6-.8,1.9-1.4,3.9-1.8,5.9-.3,1.4-.5,2.8-.7,4.2,0,.6,0,1.3-.2,1.9v-26.5c0-1,.2-1.2,1.2-1.2h24.2Z"/><path class="cls-6" d="m199,337.9v4.3c0,.3,0,.6.3.8l5.8,5.8.4.4c.3.4.2,1-.3,1.3-.3.2-.7.2-1,0-.2,0-.3-.2-.4-.4l-6.2-6.2c-.4-.3-.6-.8-.5-1.3v-8.8c0-3,0-.3,0-.4,0-.6.4-1,1-1s.9.4.9,1v4.4h0Z"/></svg>