<?xml version="1.0" encoding="UTF-8"?><svg id="Layer_1" xmlns="http://www.w3.org/2000/svg" viewBox="0 0 400 400"><defs><style>.cls-1{stroke:#a5262d;}.cls-1,.cls-2,.cls-3{stroke-width:4px;}.cls-1,.cls-2,.cls-3,.cls-4{stroke-miterlimit:10;}.cls-1,.cls-2,.cls-3,.cls-4,.cls-5{fill:none;}.cls-6{fill:#fcfcfd;}.cls-2{stroke:#0018c6;}.cls-7{fill:#fcd303;}.cls-8{fill:#3f5c6c;}.cls-3{stroke:#c000e2;}.cls-9{fill:#54747f;}.cls-10{fill:#364a5f;}.cls-11{fill:#f7cf06;}.cls-12{fill:#c69c6d;}.cls-4{stroke:#231f20;stroke-width:2px;}.cls-13{fill:gray;}.cls-14{fill:#ddebf0;}.cls-15{fill:#f0f6f6;}.cls-16{fill:#484645;}.cls-17{fill:#3b97d2;}.cls-18{fill:#b3b3b3;}.cls-19{fill:#bdc3c7;}.cls-20{fill:#33b1cb;}.cls-21{fill:#231f20;}.cls-22{fill:#33b1cc;}.cls-23{fill:#86cde8;}</style></defs><line class="cls-5" x1="199.7" y1="114.7" x2="200.2" y2="147.5"/><line class="cls-4" x1="199.7" y1="114.7" x2="200.1" y2="136.7"/><polygon class="cls-21" points="192.6 134.6 200.2 147.5 207.5 134.4 192.6 134.6"/><line class="cls-5" x1="112.2" y1="110.4" x2="160.8" y2="149.7"/><line class="cls-4" x1="112.2" y1="110.4" x2="152.4" y2="143"/><polygon class="cls-21" points="146 147.4 160.8 149.7 155.4 135.8 146 147.4"/><line class="cls-5" x1="287.8" y1="110.4" x2="239.2" y2="149.7"/><line class="cls-4" x1="287.8" y1="110.4" x2="247.5" y2="143"/><polygon class="cls-21" points="244.5 135.8 239.2 149.7 253.9 147.4 244.5 135.8"/><circle class="cls-1" cx="91.1" cy="61" r="45"/><path d="m65,45.4l1-3c1.1.6,2.6.4,3.5-.5,1.1-1,1-1.7.7-2.1-.6-.6-1.4-.4-3.4.6s-4.1,1.5-5.9-.5-1.1-4.7.7-6.3c1.6-1.5,3.9-1.9,5.9-1l-1,3c-.9-.5-2.1-.4-2.9.4-.8.7-.8,1.4-.4,1.8s1,.6,3-.4,4.3-1.9,6.2.3c1.8,2,1.2,4.7-1.1,6.7-2.3,2-4.5,2.1-6.5,1.1h.2Z"/><path d="m70,29.5c-.4-.9,0-2,.8-2.4.9-.4,2,0,2.4.8.4.9,0,2-.8,2.4h0c-.9.4-1.9,0-2.4-.8Zm1.5,2.3l2.7-1.4,4.5,8.9-2.7,1.4-4.5-8.9Z"/><path d="m75.8,24.8l2.9-.9,4.5,13.9-2.9.9-4.5-13.9Z"/><path d="m82.4,24.9c-.2-1,.5-1.9,1.5-2.1,1-.2,1.9.5,2.1,1.5.2,1-.5,1.9-1.5,2.1-1,.2-1.9-.5-2.1-1.5,0,0,0,0,0,0Zm.7,2.6l3-.5,1.6,9.9-3,.5-1.6-9.9Z"/><path d="m89,31.5c.1-2.9,2.6-5.1,5.4-4.9,0,0,.2,0,.3,0,1.9,0,3.5,1.2,4.3,2.9l-2.7,1.3c-.5-1.1-1.9-1.6-3-1.1-.7.3-1.2,1.1-1.3,1.9-.2,1.2.7,2.3,1.9,2.5,0,0,.1,0,.2,0,.8,0,1.6-.3,2-1l2.5,1.7c-1,1.6-2.8,2.4-4.7,2.2-2.9-.2-5.1-2.6-4.9-5.5,0,0,0-.1,0-.2v.2Z"/><path d="m99.9,32.5c1.1-2.7,4.2-3.9,6.9-2.8,2.7,1.1,3.9,4.2,2.8,6.9-1.1,2.7-4.2,3.9-6.9,2.8,0,0,0,0,0,0-2.7-1.1-3.9-4.1-2.8-6.8,0,0,0,0,0-.1Zm7,2.9c.5-1.2,0-2.5-1.1-3.1,0,0,0,0,0,0-1.1-.5-2.4,0-2.9,1.1,0,0,0,.1,0,.2-.6,1.1-.1,2.5,1,3,0,0,.1,0,.2,0,1.1.5,2.4,0,2.9-1.1,0,0,0-.1,0-.2Z"/><path d="m119.4,43.6l-4.2,4.5-2.2-2,3.9-4.2c.7-.6.8-1.7.2-2.3,0,0-.1-.1-.2-.2-.7-.7-1.9-.7-2.6,0,0,0-.2.2-.2.3l-3.7,4-2.2-2,6.8-7.4,2.2,2-.6.7c1.1-.2,2.2.2,2.9,1,1.5,1.4,1.8,3.6,0,5.6h-.1Z"/><rect class="cls-12" x="64.2" y="51.5" width="52" height="37" rx="2.9" ry="2.9"/><path class="cls-16" d="m86.4,82.6c-2.2.1-4.3-.5-6.2-1.6-1.6-1-2.8-2.5-3.4-4.3l5.2-3c.7,2,2.6,3.2,4.7,3.1,2.3,0,2.8-.5,2.8-1.6s-.5-1.2-1.6-1.7c-1-.4-2-.7-3-.9-1.9-.4-3.7-1.4-5.1-2.7-1.3-1.2-2-2.9-1.9-4.7,0-2,.8-3.9,2.3-5.3,1.6-1.4,3.8-2.1,5.9-2,1.9,0,3.7.4,5.3,1.4,1.5,1,2.8,2.3,3.5,4l-5.1,3c-.5-1.6-2-2.7-3.7-2.6-1.7,0-1.3,0-1.6.4-.4.2-.6.7-.6,1.1,0,.5.3,1,.8,1.3,1,.6,2.1,1,3.2,1.3,1.1.4,2,.7,2.8,1,.8.3,1.6.8,2.3,1.2.8.5,1.4,1.3,1.9,2.1.4.9.6,2,.6,3,.1,2.1-.8,4.1-2.5,5.4-1.9,1.4-4.2,2.1-6.5,2h0Z"/><path class="cls-16" d="m102.6,62.9c-.6.6-1.4,1-2.3,1-1.8,0-3.3-1.4-3.3-3.2,0-.9.3-1.8,1-2.4.6-.6,1.4-.9,2.3-.9.9,0,1.7.3,2.3.9.6.6,1,1.4,1,2.3,0,.9-.3,1.7-1,2.3Zm-5.1,19.2v-16.9h5.6v16.9h-5.6Z"/><circle class="cls-1" cx="200" cy="61" r="45"/><rect class="cls-18" x="174" y="51" width="52" height="37" rx="2.9" ry="2.9"/><path class="cls-16" d="m200.8,81.3l-1.1-3.4h-8l-1,3.4h-6.5l7.5-23.6h7.6l7.8,23.6h-6.3Zm-7.6-8.6h4.8l-2.4-8-2.4,8Z"/><path class="cls-16" d="m208.5,81.3v-24.7h5.6v24.7h-5.6Z"/><path d="m176.1,39.7l-2.4,3.1,1,1.4-1.6,2.1-6.1-9.3,1.9-2.4,10.5,3.7-1.6,2.1-1.6-.6h0Zm-2.2-.8l-3.8-1.4,2.3,3.3,1.5-1.9Z"/><path d="m172.8,29.9l1.7-1.4,7,8.4-1.7,1.4-7-8.4Z"/><path d="m185,26.1l3.6,6.6-2,1.1-.3-.6c-.1.8-.6,1.5-1.4,1.8-1.3.7-3,.3-3.8-1.1,0-.1-.1-.2-.1-.3l-2.2-4,2-1.1,2,3.8c.3.6,1.1.9,1.7.6,0,0,0,0,0,0,.7-.3.9-1.1.6-1.8,0,0,0-.1-.1-.2l-2-3.6,2-1.1h-.1Z"/><path d="m199.6,25.6l.8,4.5-2.2.4-.8-4.3c0-.6-.5-1.1-1.1-1,0,0-.1,0-.2,0-.7,0-1.1.7-.9,1.6l.7,4.2-2.2.4-.8-4.3c0-.6-.5-1.1-1.1-1,0,0-.1,0-.2,0-.7,0-1.1.7-.9,1.6l.7,4.2-2.2.4-1.3-7.4,2.2-.4v.7c.4-.7,1.1-1.1,1.9-1.2.8-.2,1.6,0,2.1.6.4-.8,1.1-1.3,2-1.4,1.7-.3,3,.7,3.3,2.6l.2-.2Z"/><path d="m201.9,23.2l2.2.2-.6,7.5-2.2-.2.6-7.5Zm0-2c0-.7.8-1.3,1.5-1.2.7,0,1.3.8,1.2,1.5s-.8,1.3-1.5,1.2c0,0,0,0,0,0-.7,0-1.3-.7-1.2-1.4,0,0,0,0,0-.1Z"/><path d="m212.9,28.3l-1.2,4.4-2.2-.6,1.1-4.1c.2-.7-.1-1.4-.8-1.7,0,0,0,0-.1,0-.7-.3-1.5,0-1.7.8,0,.1,0,.2,0,.3l-1.1,3.9-2.2-.6,2-7.2,2.2.6-.2.7c.7-.5,1.5-.6,2.3-.3,1.5.4,2.4,1.9,2,3.4,0,.1,0,.2,0,.3h0Z"/><path d="m222.5,30.3l-3.8,6.4-1.9-1.2.4-.6c-.8.3-1.6.2-2.3-.3-1.3-.8-1.8-2.5-1-3.8,0-.1.1-.2.2-.3l2.4-4,1.9,1.2-2.2,3.7c-.4.5-.3,1.2.2,1.6,0,0,.2.1.2.2.6.4,1.5.2,1.9-.4,0,0,0-.1.1-.2l2.1-3.5,1.9,1.2h0Z"/><path d="m230.3,42.6l-3.5,3-1.5-1.7,3.4-2.9c.6-.5.7-1.1.2-1.6-.4-.5-1.2-.6-1.7-.1,0,0,0,0-.1.1l-3.2,2.7-1.5-1.7,3.4-2.9c.6-.5.7-1.1.2-1.6-.4-.5-1.2-.6-1.7-.1,0,0,0,0-.1.1l-3.2,2.7-1.5-1.7,5.7-4.9,1.5,1.7-.5.4c.8,0,1.5.3,2,.9.5.6.7,1.4.5,2.1.8,0,1.7.3,2.2,1,1,1.2.9,3-.3,4,0,0-.1.1-.2.2v.3Z"/><circle class="cls-1" cx="308.9" cy="61" r="45"/><path class="cls-23" d="m278.9,63.3v-.6c.3-.5.8-.8,1.4-.8,1.4-.1,2.5-1.3,2.5-2.7v-.5c0-.4.5-.8.9-.7,0,0,0,0,0,0,.5,0,.9.3.9.8,0,.3,0,.5.1.8.2,1.1,1.1,2,2.2,2.2.7.2.7,0,.7-.6v-13.5c0-.4.2-.7.6-.8,0,0,.1,0,.2,0h30.6c0,.3-.3.4-.5.6l-7.2,7.2c-.2.2-.4.4-.5.6-.2.4-.1.9.2,1.2.3.3.8.4,1.2,0,.2-.1.4-.3.5-.5l8.3-8.3c.3-.3.5-.6.6-1h3.4c0,.3-.3.4-.5.6l-13.3,13.3-.5.5c-.3.3-.3.7,0,1,.2.3.5.5.9.5.3,0,.6-.2.9-.4l14.6-14.6c.3-.2.5-.5.5-.9h1.1c1,0,.9,0,.9.9v28.3q0,.8.8.6c1.3-.4,2.2-1.5,2.2-2.8,0-.5.3-.9.8-1,0,0,.1,0,.2,0,.6,0,.9.4,1,1,0,1.5,1.3,2.8,2.8,2.9.5,0,1,.3,1.2.8v.6c-.2.4-.6.7-1.1.7-1.6,0-2.8,1.3-2.8,2.9,0,.3-.2.7-.4.9-.2.2-.6.3-.9,0-.4-.1-.6-.5-.6-.9-.2-1.6-.9-2.6-2.3-2.9-.7-.2-.7,0-.7.6v12.6c0,.5-.2.8-.7.8h-21.6c0-.3.3-.4.5-.6l7.5-7.5c.5-.6.6-1.1.1-1.5-.4-.4-1-.4-1.4,0h-.1c0,0-8.7,8.8-8.7,8.8-.2.2-.4.6-.5.9h-3.4c0-.3.3-.4.5-.6l13.3-13.3c.2-.2.4-.4.5-.6.2-.4.2-.9-.2-1.2-.3-.3-.8-.3-1.2,0,0,0,0,0,0,0-.1,0-.2.2-.3.3l-14.6,14.6c-.3.2-.4.6-.5.9h-10.1c-.4,0-.8-.2-.9-.7,0,0,0-.1,0-.2v-27.5c0-.7,0-.8-.7-.6-1.3.4-2.2,1.5-2.3,2.9,0,.5-.4,1-.9,1,0,0,0,0-.1,0-.6,0-1-.4-1-1v-.3c-.1-1.4-1.3-2.5-2.7-2.6-.5,0-1-.3-1.3-.7h-.2Zm5,.6c.4-.2.7-.5.9-.9-.3-.4-.6-.7-.9-1-.3.2-.7.6-.9.9.2.3.6.7.9.9h0Zm50.9,14.2c-.2-.4-.5-.7-.9-.9-.3.2-.7.6-.9.9l.9.9.9-.9Z"/><path class="cls-22" d="m325.3,47.1c.3-.1.5-.3.7-.6.8-.8,1.6-.6,1.9.5,0,.4-.2.7-.5.9l-14.6,14.6c-.2.3-.6.4-.9.4-.4,0-.7-.2-.9-.5-.2-.3-.2-.7,0-1,.1-.2.3-.4.5-.5l13.3-13.3c.2-.2.4-.3.5-.6h0Z"/><path class="cls-20" d="m301.5,92.9c-.3,0-.5.4-.8.6-.8.7-1.6.5-1.8-.6,0-.4.2-.7.5-.9l14.6-14.6.3-.3c.4-.3.8-.3,1.2,0,.4.3.4.8.2,1.2-.1.2-.3.4-.5.6l-13.3,13.3c-.2.2-.4.3-.5.6h0Z"/><path class="cls-22" d="m319.2,47.1c.2,0,.4-.2.6-.4,1-1,1.6-.8,2.1.4,0,.4-.3.7-.6,1l-8.3,8.3-.5.5c-.4.3-.9.2-1.2,0-.4-.3-.5-.8-.2-1.1,0,0,0,0,0,0,.1-.2.3-.4.5-.6l7.2-7.2c.2-.2.4-.3.5-.6h-.1Z"/><path class="cls-22" d="m307.5,93c-.3.1-.5.3-.7.6-.8.8-1.6.5-1.9-.5,0-.3.2-.6.5-.8l8.7-8.7c.2-.4.8-.6,1.2-.3,0,0,.1,0,.2.1h.1c.4.5.4,1.1,0,1.5,0,0,0,0,0,0l-7.5,7.5c-.2.2-.4.3-.4.6h-.1Z"/><path d="m297.2,30.8c2,2.8,1.4,6.7-1.4,8.8-.2.1-.3.2-.5.3-3,2.5-7.4,2-9.9-.9-2.5-3-2-7.4.9-9.9.4-.3.8-.6,1.2-.8,1.9-1.3,4.4-1.6,6.6-.6l-1.4,2.7c-1.2-.5-2.6-.3-3.6.5-1.8,1.1-2.4,3.4-1.3,5.2,0,0,.1.2.2.3,1.2,1.9,3.5,2.4,5.7,1,1.3-.7,2-2.2,1.7-3.6l-3,1.9-1.5-2.2,5.6-3.7.6,1Z"/><path d="m298.1,23.1l2.8-.7,3.5,13.5-2.8.7-3.5-13.5Z"/><path d="m315.6,25.9l-.2,9.6h-2.9v-1c-.8.8-1.8,1.2-2.9,1.1-2.5,0-4.5-2.3-4.5-5.1,0-2.6,2-4.8,4.6-4.9,0,0,0,0,.1,0,1.1,0,2.1.4,2.8,1.2v-.9h3Zm-3,4.7c.1-1.2-.8-2.3-2-2.4,0,0-.1,0-.2,0-1.2,0-2.2.8-2.3,2,0,.1,0,.2,0,.3-.1,1.2.8,2.3,2,2.4,0,0,.1,0,.2,0,1.2,0,2.2-.8,2.3-2,0-.1,0-.2,0-.3Z"/><path d="m324.3,35.8c-.8,2.1-2.9,2.3-4.8,1.6-1.7-.5-2.9-1.9-3.1-3.6l2.8-.5c0,.7.4,1.4,1.1,1.6.6.2,1,.2,1.2-.2.4-1-4.2-2.1-3.1-5.2.7-2,2.7-2.3,4.6-1.6,1.5.5,2.5,1.7,2.8,3.2l-2.8.4c0-.6-.4-1.1-.9-1.2-.5-.2-.8,0-.9.2-.4,1,4.3,2,3.1,5.3Z"/><path d="m331,40.6c-1.3,1.8-3.4,1.4-5.1.2-1.5-.9-2.2-2.6-2-4.3l2.8.3c-.2.7,0,1.5.7,1.9.6.4,1,.4,1.2,0,.6-.9-3.5-3.2-1.6-5.8,1.2-1.7,3.3-1.5,4.9-.3,1.3.8,2,2.3,1.8,3.8l-2.8-.4c0-.6,0-1.1-.5-1.4s-.8-.3-1,0c-.6.9,3.6,3.1,1.5,5.9h.1Z"/><circle class="cls-2" cx="200" cy="199.2" r="45"/><path class="cls-15" d="m207.3,186.7h5.9c.2.4.6.3.9.4,2.7,1,4.6,3.6,4.7,6.5v33.6c0,2.5-1.4,4.7-3.6,5.9-.7.3-1.5.6-2.2.8h-30c-3.4,0-6.4-2.4-7-5.8v-34.6c0-2.1,1-4,2.7-5.2,1.3-1,2.9-1.6,4.6-1.5h24.1-.1Zm-7.9,41.5h12.2c.5,0,1,0,1.5-.1,2.6-.6,4.3-2.9,4.2-5.5v-24.7c0-.5,0-1-.2-1.5-.6-2.5-2.8-4.2-5.4-4.1h-24.6c-3.5,0-5.8,2.2-5.8,5.7v24.4c-.1,3.1,2.3,5.7,5.4,5.8.1,0,.2,0,.4,0,4.1-.1,8.1,0,12.2,0h.1Z"/><path class="cls-14" d="m213,233.9c.7-.2,1.5-.5,2.2-.8,2.2-1.2,3.5-3.4,3.6-5.9v-33.6c0-2.9-1.9-5.5-4.7-6.5-.3-.1-.7,0-.9-.4,1.8-.1,3.6,0,5.3.5,2.6,1,4.4,3.5,4.5,6.3v33.6c0,3.3-2.4,6-5.6,6.6-1.5.1-2.9.2-4.4.1h0Z"/><path class="cls-11" d="m208,224.8h-3.2c-.8,0-1.3-.4-1.3-1.1s.5-1.1,1.3-1.1h6.5c.8,0,1.3.4,1.3,1.1s-.5,1.1-1.3,1.1h-3.3Z"/><path class="cls-7" d="m190.7,198h-3.2c-.8,0-1.2-.4-1.2-1s.5-1,1.2-1h6.6c.8,0,1.2.4,1.2,1.1s-.4,1-1.2,1h-3.4Z"/><path class="cls-13" d="m217.2,196.5c-.6-2.5-2.8-4.2-5.4-4.1h-24.6c-3.5,0-5.8,2.2-5.8,5.7v24.4c-.1,3.1,2.3,5.7,5.4,5.8.1,0,.2,0,.4,0,4.1-.1,8.1,0,12.2,0h12.2c.5,0,1,0,1.5-.1,2.6-.6,4.3-2.9,4.2-5.5v-24.7c0-.5,0-1-.2-1.5h.1Zm-8.9,9.8h0c.4-.5.4-1.2-.1-1.6,0,0,0,0,0,0-1.4-1.3-3-2.2-4.8-2.8,1.8.6,3.4,1.5,4.8,2.8.6.6.7,1.2.2,1.7Zm-.3.2-10.1-5.2c-.4,0-.9,0-1.3.2-2.3.5-4.3,1.6-5.9,3.3h0c1.6-1.6,3.7-2.7,5.9-3.3.4-.1.9-.2,1.3-.2Zm-4.8,4.2c0,0-.1,0-.2.1,0,0,.1,0,.2-.1h0Zm-6.9-8.5c0-.6.5-1,1.2-1h6.6c.8,0,1.2.4,1.2,1.1s-.4,1-1.2,1h-6.6c-.8,0-1.2-.4-1.2-1h0Zm7,11.7h0c0,0,0,.1.1.2,0,0,0-.1-.1-.2h0Zm.8.7c-.2,0-.4,0-.5-.2.1.1.3.2.5.2.4,0,.8-.2,1.1-.5,1.1-1,2.5-1.6,4-1.7,1.7,0,3.4.5,4.6,1.7.6.6,1.3.6,1.7,0,.3-.4.3-1-.1-1.4.4.5.5.9.1,1.4s-1.1.6-1.7,0c-1.2-1.2-2.9-1.8-4.6-1.7-1.5,0-3,.6-4,1.7-.3.3-.7.5-1.1.5h0Zm1.7,3.2c.4.2.8,0,1.2-.3.7-.6,1.5-.9,2.4-1-.9,0-1.8.4-2.4,1-.3.3-.8.4-1.2.3h0Zm3.6,5.9h0c1.1,0,2-.9,2-2,0,0,0,0,0-.1,0-1.1-.9-2-2-2,1.1,0,2,.9,2,2,0,1.1-.8,2-1.9,2.1,0,0,0,0-.1,0h0Zm3.2-5.8c.3,0,.5-.1.7-.3.4-.5.3-1.3-.2-1.7-1-.9-2.3-1.4-3.6-1.4h0c1.3,0,2.6.5,3.6,1.4.5.3.7,1,.3,1.5,0,0,0,.1-.1.2-.2.2-.5.4-.7.3h0Zm8.7,12.2h-6.5c-.8,0-1.3-.4-1.3-1.1,0-.6.6-1.1,1.2-1.1,0,0,0,0,0,0h6.5c.8,0,1.3.4,1.3,1.1,0,.6-.6,1.1-1.2,1.1,0,0,0,0,0,0h0Z"/><path d="m158.9,198.2l.8-2.6,8.1.3-6.9-4.3.6-2h8.1c0,.1-7-3.9-7-3.9l.7-2.6,9.9,6.1-.8,2.8h-6.9l5.8,3.5-.8,2.8-11.6-.2h0Z"/><path d="m172.8,176l6.4,4.8-1.4,1.9-.6-.5c.2.9,0,1.8-.7,2.5-1.6,1.7-4.3,1.9-6,.3-1.5-1.4-1.8-3.6-.8-5.4.5-.8,1.3-1.3,2.2-1.3l-.6-.5,1.4-1.9h.1Zm1.7,4.3c-.8-.7-2-.5-2.7.3,0,0,0,0,0,0-.6.8-.5,1.9.3,2.6,0,0,0,0,.1.1.8.7,2,.5,2.7-.3,0,0,0,0,0,0,.6-.8.5-1.9-.3-2.6,0,0,0,0-.1-.1h0Z"/><path d="m178.9,173.8l1.8,2.2c.4.5.9.2,1.7-.5l1.4,1.7c-2.2,2.2-3.5,2.1-4.9.3l-1.8-2.2-1,.8-1.5-1.8,1-.8-1-1.2,1.4-2.1,1.4,1.7,1.3-1,1.5,1.8-1.3,1h0Z"/><path d="m182.1,173.4c-1.1-2-.3-4.5,1.7-5.6,0,0,.1,0,.2,0,1.3-.7,2.9-.6,4.2.2l-1.3,2c-.5-.4-1.3-.4-1.8,0-.9.4-1.3,1.5-.8,2.4,0,0,0,0,0,0,.5.9,1.6,1.3,2.5.8.6-.3.9-.9,1-1.5h2.4c0,1.5-.9,2.9-2.3,3.6-2,1.1-4.5.4-5.6-1.7,0,0,0,0,0-.1h0Z"/><path d="m197.7,167l1,4.8-2.4.5-.9-4.5c0-.7-.7-1.2-1.4-1.2-.1,0-.2,0-.3,0-.7,0-1.3.8-1.2,1.5,0,.1,0,.3.1.4l.9,4.3-2.4.5-2.3-11,2.4-.5.8,3.9c.4-.8,1.1-1.3,2-1.4,1.6-.3,3.2.7,3.6,2.3,0,0,0,.2,0,.3h0Z"/><path d="m213.6,162.5l-2.3,11-2.3-.5.2-.7c-.7.5-1.6.7-2.5.5-2.2-.6-3.5-3-2.9-5.2.6-2,2.5-3.3,4.6-3,.9.1,1.6.6,2.1,1.4l.8-3.9,2.3.5h0Zm-3.8,6.5c.3-1-.3-2-1.3-2.3,0,0-.1,0-.2,0-1-.3-2,.3-2.3,1.3,0,0,0,.1,0,.2-.3,1,.3,2,1.3,2.3,0,0,.1,0,.2,0,1,.3,2-.3,2.3-1.3,0,0,0-.1,0-.2h0Z"/><path d="m215.6,166.8l2.2,1-3.3,7.3-2.2-1,3.3-7.3Zm.7-2.1c.3-.7,1.2-1,1.9-.7.7.3,1,1.2.7,1.9-.3.7-1.2,1-1.9.7-.7-.3-1-1.2-.7-1.9h0Z"/><path d="m222.1,177.1c-1,1.5-2.8,1.3-4.2.3-1.2-.7-1.9-2.1-1.8-3.5l2.4.2c-.2.6,0,1.2.6,1.5.5.3.8.3,1,0,.5-.7-3-2.6-1.5-4.8,1-1.4,2.7-1.3,4.1-.4,1.1.7,1.7,1.9,1.6,3.2l-2.3-.2c0-.5,0-.9-.5-1.2-.2-.2-.6-.2-.8,0-.5.8,3.1,2.5,1.4,4.9Z"/><path d="m229.9,183.3c-1.6,1.5-4.1,1.5-5.7,0,0,0,0,0,0,0-.6-.6-.9-1.5-.8-2.4l-3,2.6-1.6-1.8,8.5-7.3,1.6,1.8-.6.5c.9,0,1.7.5,2.3,1.2,1.4,1.8,1.1,4.3-.7,5.7,0,0,0,0,0,0v-.2Zm-1.6-1.8c.8-.6,1-1.7.4-2.5,0,0-.1-.2-.2-.2-.7-.8-1.9-.9-2.7-.2,0,0,0,0,0,0-.8.6-1,1.7-.4,2.5,0,0,.1.2.2.2.7.8,1.9.9,2.7.2,0,0,0,0,0,0h0Z"/><path d="m237.3,181.1l1.2,2.1-10.2,5.6-1.2-2.1,10.2-5.6Z"/><path d="m238.9,195.4l-7.7,2.3-.7-2.3.7-.2c-.8-.4-1.4-1.1-1.6-2-.5-2.2.8-4.4,3-4.9,2.1-.7,4.4.4,5.1,2.5,0,0,0,0,0,0,.3.9.2,1.8-.3,2.6l.7-.2.7,2.3h.1Zm-4.5-1.2c1-.2,1.6-1.1,1.4-2.1,0-.1,0-.2,0-.3-.2-1-1.2-1.6-2.2-1.4,0,0-.1,0-.2,0-1,.2-1.6,1.1-1.4,2.1,0,.1,0,.2,0,.3.2,1,1.2,1.6,2.2,1.4,0,0,.1,0,.2,0Z"/><path d="m239.4,206.3l-7.8-2.7c-2.5-.9-3.6-2.3-3.5-4.5h2.2c0,.9.4,1.7,1.3,2l7.6-3.2v2.6l-4.9,1.8,4.9,1.5v2.6h.2Z"/><line class="cls-5" x1="199.7" y1="251.4" x2="200.2" y2="284.2"/><line class="cls-4" x1="199.7" y1="251.4" x2="200" y2="273.5"/><polygon class="cls-21" points="192.5 271.4 200.2 284.2 207.5 271.2 192.5 271.4"/><circle class="cls-3" cx="200" cy="339" r="45"/><path d="m158.5,337l.6-2.5h7.6c0,0-6.7-3.7-6.7-3.7l.4-1.9,7.6-.3-6.8-3.4.6-2.5,9.6,5.2-.6,2.7-6.4.3,5.7,3.1-.6,2.7-10.9.5v-.2Z"/><path d="m170.2,315.4l6.3,4.1-1.2,1.9-.6-.4c.2.7.1,1.5-.4,2.4-1.1,1.7-3.4,2.1-5.3.9-1.9-1.2-2.5-3.5-1.4-5.2.5-.8,1.2-1.3,2-1.4l-.6-.4,1.2-1.9Zm1.9,3.9c-.9-.6-1.9-.4-2.5.5s-.4,1.9.6,2.5,1.9.4,2.5-.5c.6-.9.4-1.9-.6-2.5Z"/><path d="m175.6,312.9l1.9,1.9c.5.5.9.1,1.6-.6l1.4,1.5c-1.9,2.3-3.1,2.2-4.6.7l-1.9-1.9-.9.8-1.5-1.5.9-.8-1-1,1.1-2.1,1.5,1.5,1.1-1.1,1.5,1.5-1.1,1.1Z"/><path d="m178.5,312.3c-1.2-1.9-.7-4.2,1.2-5.5,1.2-.8,2.7-.8,3.9-.2l-1,2c-.5-.3-1.1-.3-1.7,0-.8.5-1,1.5-.5,2.4.6.9,1.5,1.1,2.4.5.6-.4.8-.9.8-1.5h2.3c0,1.2-.6,2.5-1.8,3.3-1.9,1.2-4.3.7-5.5-1.2v.2Z"/><path d="m192.4,304.7l1.4,4.4-2.1.7-1.3-4.1c-.3-.9-1-1.1-1.7-.9-.8.3-1.2.9-.8,1.9l1.3,3.9-2.1.7-3.3-10,2.1-.7,1.2,3.5c.2-.7.8-1.2,1.8-1.5,1.4-.5,3,.1,3.6,2.1h-.1Z"/><path d="m194.5,303.4l5.7-.4.2,2.2-5.7.4-.2-2.2Z"/><path d="m205.7,307.4c.6.1,1.2,0,1.5-.3l1.6,1.3c-.9.9-2.1,1.2-3.5,1-2.5-.4-3.8-2.4-3.4-4.6.4-2.2,2.3-3.6,4.6-3.2,2.2.4,3.5,2.3,3.1,4.6,0,.3,0,.6-.2.9l-5.2-.9c0,.8.8,1.2,1.6,1.3h0Zm1.8-2.5c0-.9-.7-1.3-1.4-1.4-.8-.1-1.5.2-1.8.9l3.2.5Z"/><path d="m213.4,311.7l-.5-2.4-2.1,1.3-2.4-1,4-2.4-.9-4.4,2.4,1,.5,2.2,1.9-1.2,2.4,1-3.9,2.3.9,4.6-2.4-1h0Z"/><path d="m221.3,310.4l-1.5,2.2c-.4.5,0,.9.9,1.4l-1.2,1.7c-2.6-1.5-2.7-2.7-1.5-4.4l1.5-2.2-1-.7,1.3-1.8,1,.7.8-1.2,2.2.8-1.2,1.7,1.3.9-1.3,1.8-1.3-.9Z"/><path d="m223.9,317.5c.4.5.9.7,1.4.7l.4,2c-1.2.1-2.4-.3-3.3-1.4-1.7-1.9-1.5-4.2,0-5.7,1.7-1.5,4-1.5,5.6.3,1.5,1.6,1.3,4-.4,5.5-.2.2-.5.4-.7.5l-3.6-3.9c-.4.7,0,1.4.4,2h0Zm2.9-.8c.5-.8.3-1.5-.2-2-.6-.6-1.3-.8-2-.4l2.2,2.4Z"/><path d="m234.2,322.2l-2.2,1.3c-.3-.9-1.3-1.8-2.6-1.1l-2.9,1.7-1.1-1.9,6.5-3.8,1.1,1.9-1.2.7c1-.2,1.9.4,2.4,1.2Z"/><path d="m234.4,331.9l-4.4,1.4-.7-2.1,4.1-1.3c.9-.3,1.1-1,.9-1.7-.2-.8-.9-1.2-1.9-.9l-3.9,1.2-.7-2.1,7.2-2.3.7,2.1-.7.2c.7.2,1.2.8,1.5,1.8.5,1.4-.2,3-2.1,3.6h0Z"/><path d="m237.9,341.6l-7.5.2v-2.2h.6c-.6-.5-1-1.2-1-2.2,0-2,1.6-3.6,3.8-3.7,2.2,0,4,1.5,4.1,3.5,0,1-.3,1.8-.8,2.3h.7v2.2h.1Zm-3.8-2.1c1.1,0,1.8-.8,1.8-1.8s-.8-1.8-1.9-1.7-1.8.8-1.8,1.8.8,1.8,1.9,1.7Z"/><path d="m240.9,344.8l-.4,2.2-10.8-1.8.4-2.2,10.8,1.8Z"/><path class="cls-17" d="m209.5,364.9c-1,2.4-2.1,4.7-3.1,7.1-.4.8-1.1,1.2-1.9,1.5h-12.7c-1.2-.4-1.9-1.2-2.4-2.4-.8-1.9-1.7-3.8-2.5-5.7,0,0,0-.3-.2-.5h22.9,0Z"/><path class="cls-10" d="m209.5,364.9h-22.9c-.7,0-1.4,0-2,0-2.3-.5-3.8-2.4-3.8-5v-28.2c0-2.4,1.2-4.1,3.3-4.8.6-.2,1.1-.2,1.7-.2h23.7c.7,0,1.3,0,2,0,2.1.4,3.7,2.3,3.8,4.4v28.7c0,2.5-1.5,4.4-3.8,4.9-.7,0-1.3,0-2,0h0Zm.6-34.5h-24.2c-1,0-1.2.2-1.2,1.2v26.5c-.2.6-.2,1.1,0,1.7.2,1,.3,1.1,1.4,1.1h24.1c1,0,1.3-.3,1.3-1.3v-28.3c0-.6-.6-1-1.3-.9h-.2.1Z"/><path class="cls-17" d="m209.5,326.6h-22.9c.7-1.6,1.4-3.2,2.1-4.9.3-.6.5-1.3.8-1.9.6-1.2,1.5-1.8,2.9-1.8h11.3c1.2,0,2.1.5,2.6,1.5,1.1,2.3,2.1,4.7,3.1,7.1h.1Z"/><path class="cls-19" d="m215.3,340v-8.6h1.8c1.1,0,2,.8,2.1,2v4.7c0,1.2-.9,2-2.1,2h-1.8Z"/><path class="cls-8" d="m210.1,330.5c.6-.2,1.2.2,1.4.8v28.5c0,1-.3,1.3-1.3,1.3h-24.1c-1.1,0-1.2,0-1.4-1.1,0-.6-.2-1.1,0-1.7.3-.6,0-1.2.2-1.9.2-1.4.4-2.8.7-4.2.4-2,1-4,1.8-5.9,1.2-2.8,2.9-5.4,5-7.6,1.5-1.6,3.3-3,5.2-4.1,3.2-1.9,6.8-3.2,10.5-3.8.7,0,1.3,0,2-.3h0Zm-11,10.2v-4.4c0-.6-.4-1-.9-1s-1,.3-1,1v9.2c0,.5.2,1,.5,1.3,2.1,2,4.1,4.1,6.2,6.2,0,0,.3.3.4.4.4.3,1,.2,1.3-.3.2-.3.2-.7,0-1,0-.2-.3-.3-.4-.4-1.9-1.9-3.9-3.9-5.8-5.8s-.3-.5-.3-.8v-4.3h0Z"/><path class="cls-9" d="m210.1,330.5c-.6.2-1.3.2-2,.3-3.7.6-7.3,1.9-10.5,3.8-1.9,1.1-3.7,2.5-5.2,4.1-2.1,2.2-3.8,4.8-5,7.6-.8,1.9-1.4,3.9-1.8,5.9-.3,1.4-.5,2.8-.7,4.2,0,.6,0,1.3-.2,1.9v-26.5c0-1,.2-1.2,1.2-1.2h24.2Z"/><path class="cls-6" d="m199,340.6v4.3c0,.3,0,.6.3.8l5.8,5.8.4.4c.3.4.2,1-.3,1.3-.3.2-.7.2-1,0-.2,0-.3-.2-.4-.4-2.1-2.1-4.1-4.1-6.2-6.2-.4-.3-.6-.8-.5-1.3v-8.8c0-3,0-.3,0-.4,0-.6.4-1,1-1s.9.4.9,1v4.4h0Z"/></svg>