<?xml version="1.0" encoding="UTF-8"?><svg id="Layer_1" xmlns="http://www.w3.org/2000/svg" viewBox="0 0 400 400"><defs><style>.cls-1{stroke:#a5262d;}.cls-1,.cls-2,.cls-3{stroke-width:4px;}.cls-1,.cls-2,.cls-3,.cls-4{stroke-miterlimit:10;}.cls-1,.cls-2,.cls-3,.cls-4,.cls-5{fill:none;}.cls-2{stroke:#0018c6;}.cls-6{fill:#cbcbcb;}.cls-7{fill:#f6f6f6;}.cls-8{fill:#f2a745;}.cls-9{fill:#e1e6f5;}.cls-3{stroke:#c000e2;}.cls-10{fill:#4d4d4d;}.cls-11{fill:#e0e0e0;}.cls-12{fill:#6bc048;}.cls-4{stroke:#231f20;stroke-width:2px;}.cls-13{fill:#6eaa50;}.cls-14{fill:#f0f1ef;}.cls-15{fill:#f0f1f0;}.cls-16{fill:#484645;}.cls-17{fill:#93c578;}.cls-18{fill:#f1f1f1;}.cls-19{fill:#edcd67;}.cls-20{fill:#559a38;}.cls-21{fill:#cdcdcd;}.cls-22{fill:#231f20;}.cls-23{fill:#f2f2f2;}.cls-24{fill:#64c7ef;}.cls-25{fill:#edcb61;}</style></defs><line class="cls-4" x1="155.4" y1="118.8" x2="180.6" y2="139.2"/><line class="cls-4" x1="246" y1="118.8" x2="220.7" y2="139.2"/><circle class="cls-1" cx="249.3" cy="65.4" r="45"/><path d="m220.6,46.3c-2.5-2.7-2.3-6.9.5-9.4.1,0,.2-.2.3-.3,1.7-1.5,4.1-2,6.3-1.3l-1,2.9c-1.2-.4-2.5-.1-3.4.7-1.6,1.5-1.7,4-.2,5.6,1.4,1.5,3.7,1.7,5.3.4,1-.8,1.4-2,1.3-3.2l3-.5c.3,2.3-.6,4.6-2.4,6-2.8,2.5-7.1,2.2-9.6-.5,0,0-.1-.2-.2-.3h0Z"/><path d="m233,39c-.9-2.6.5-5.5,3.1-6.3,2.6-.9,5.5.5,6.3,3.1.9,2.6-.5,5.4-3.1,6.3-2.6.9-5.5-.4-6.4-3,0,0,0,0,0,0Zm6.8-2.4c-.3-1.1-1.4-1.8-2.6-1.5,0,0-.2,0-.2,0-1.1.3-1.7,1.4-1.4,2.4,0,.1,0,.2.1.4.3,1.1,1.4,1.8,2.6,1.5,0,0,.2,0,.2,0,1.1-.3,1.7-1.4,1.5-2.4,0-.1,0-.3-.1-.4h0Z"/><path d="m254.9,35.5c.1,2.6-2,4.9-4.6,5-1.1,0-2.1-.4-2.8-1.2v.9h-2.9v-13.4h3v4.7c.7-.8,1.7-1.2,2.8-1.1,2.5,0,4.5,2.2,4.5,5.1Zm-2.8,0c0-1.2-.8-2.2-2-2.3,0,0-.2,0-.2,0-1.2,0-2.2.9-2.3,2.1,0,0,0,.1,0,.2,0,1.2.8,2.2,2,2.3,0,0,.2,0,.2,0,1.2,0,2.2-.9,2.3-2.1,0,0,0-.1,0-.2Z"/><path d="m267.9,35l-3.4,8.9-2.7-1,.3-.8c-1,.5-2.1.5-3.1,0-2.4-1.1-3.5-3.9-2.5-6.3,1-2.6,3.7-4,6-3.1,1,.3,1.8,1.1,2.2,2.1l.3-.8,2.7,1h.2Zm-4.3,3.4c.5-1.1,0-2.4-1-2.9,0,0-.2,0-.3-.1-1-.5-2.3,0-2.8,1,0,.1,0,.2-.1.4-.5,1.1,0,2.4,1,2.9,0,0,.2,0,.3.1,1.1.5,2.3,0,2.8-1,0-.1.1-.3.1-.4h0Z"/><path d="m273.5,33.5l2.3,1.6-8,11.3-2.3-1.6,8-11.3Z"/><path d="m276.5,45.2l-2.4,2.4c-.6.6-.1,1.1.8,2l-1.8,1.8c-2.9-2.4-2.8-4-.9-5.8l2.4-2.4-1.1-1.1,2-1.9,1.1,1.1,1.3-1.3,2.6,1.4-1.9,1.9,1.4,1.4-2,1.9-1.4-1.4h-.1Z"/><rect class="cls-24" x="222.3" y="55.4" width="52" height="37" rx="2.9" ry="2.9"/><path class="cls-16" d="m239.6,86.2c-3.3.1-6.5-1.2-8.8-3.5-4.7-4.9-4.7-12.7,0-17.6,2.3-2.4,5.5-3.6,8.8-3.5,3.5,0,4.1.5,5.9,1.5,1.8,1,3.3,2.4,4.3,4.1l-5.2,3c-.5-.8-1.2-1.5-2-2-.9-.5-2-.7-3-.7-1.7,0-3.4.6-4.6,1.8-1.2,1.2-1.8,2.9-1.7,4.6-.2,3.3,2.3,6.2,5.6,6.4.2,0,.5,0,.7,0,1.1.1,2.1-.1,3-.7.9-.5,1.5-1.1,2-2l5.2,3c-1,1.7-2.5,3.1-4.3,4.1-1.8,1-3.9,1.5-6,1.5h.1Z"/><path class="cls-16" d="m260.3,86.2c-2.4,0-4.7-.9-6.4-2.6-1.7-1.6-2.7-3.9-2.6-6.3,0-2.4.9-4.6,2.6-6.3,1.7-1.7,4-2.6,6.4-2.6,2.4,0,4.7.9,6.4,2.6,3.5,3.5,3.5,9.1,0,12.6-1.7,1.7-4,2.6-6.4,2.6Zm0-5.4c.9,0,1.8-.3,2.4-1,.6-.7,1-1.6,1-2.5,0-.9-.3-1.9-1-2.5-1.3-1.3-3.5-1.3-4.8,0,0,0,0,0,0,0-.6.7-1,1.6-1,2.5,0,.9.3,1.9,1,2.5.6.7,1.5,1,2.4,1Z"/><circle class="cls-1" cx="150.7" cy="65.4" r="45"/><path d="m133.3,41.4l1.9,2-5.4,5-8.6-9.3,2.1-2,6.7,7.2,3.3-3.1v.2Z"/><path d="m129.7,33.6c-.4-.8-.2-1.8.6-2.2.8-.4,1.8-.2,2.2.6.4.8.2,1.8-.6,2.2-.7.5-1.7.3-2.1-.5,0,0,0,0,0-.1Zm1.5,1.9l2.3-1.4,4.6,7.7-2.3,1.4-4.6-7.7Z"/><path d="m140.3,34l1.1,3c.3.7.9.6,2,0l.8,2.3c-3.2,1.6-4.5.9-5.4-1.5l-1.1-3-1.4.5-.9-2.4,1.4-.5-.6-1.6,2.3-1.7.9,2.4,1.7-.6.9,2.4-1.7.6h0Z"/><path d="m153.2,32.8l.5,5.5-2.7.2-.4-5.1c0-.8-.5-1.5-1.3-1.5-.1,0-.2,0-.4,0-1,0-1.6.7-1.5,2l.4,4.9-2.7.2-1-12.6,2.7-.2.4,4.4c.6-.8,1.5-1.3,2.5-1.3,1.8-.2,3.5,1,3.7,3.4h-.2Z"/><path d="m156.2,29.8l2.7.4-1.4,8.9-2.7-.4,1.4-8.9Zm.1-2.4c.1-.9,1-1.5,1.9-1.4.9.1,1.5,1,1.4,1.9-.1.9-1,1.5-1.9,1.4,0,0,0,0,0,0-.9-.1-1.5-1-1.4-1.9h0Z"/><path d="m170.1,34.1l-3.5,8.3-2.5-1,.3-.8c-.9.5-1.9.5-2.8,0-1.7-.7-2.6-2.5-1.7-4.7l2.1-5.1,2.5,1-2,4.7c-.4.7-.1,1.6.6,2,0,0,.1,0,.2,0,.8.4,1.8,0,2.2-.8,0-.1,0-.2.1-.3l1.9-4.5,2.5,1h0Z"/><path d="m181.1,48.4l-4,3.8-1.9-1.9,3.8-3.7c.6-.4.7-1.3.3-1.9,0,0,0,0-.1-.1-.6-.6-1.4-.6-2.2.2l-3.7,3.5-1.9-1.9,3.8-3.7c.6-.4.7-1.3.3-1.9,0,0,0,0-.1-.1-.6-.6-1.4-.6-2.2.2l-3.7,3.5-1.9-1.9,6.5-6.3,1.9,1.9-.6.6c.9,0,1.9.3,2.5,1,.7.6,1,1.6.8,2.5,1-.1,2.1.3,2.7,1.1,1.4,1.5,1.3,3.5-.3,5.1Z"/><rect class="cls-10" x="123.7" y="55.4" width="52" height="37" rx="2.9" ry="2.9"/><path class="cls-23" d="m144.9,79.9h8.1v5.8h-14.2v-23.6h6v17.8h0Z"/><path class="cls-23" d="m160.1,66.5c-.6.6-1.4,1-2.3,1-.9,0-1.7-.3-2.3-1-.6-.6-1-1.4-1-2.3,0-.9.3-1.7,1-2.3.6-.6,1.4-.9,2.3-.9.9,0,1.7.3,2.3.9.6.6,1,1.4,1,2.3,0,.9-.3,1.7-1,2.3Zm-5.1,19.2v-16.9h5.6v16.9h-5.6Z"/><line class="cls-5" x1="155.4" y1="118.8" x2="189" y2="146"/><polygon class="cls-22" points="174.2 143.6 189 146 183.6 132 174.2 143.6"/><line class="cls-5" x1="246" y1="118.8" x2="212.4" y2="146"/><polygon class="cls-22" points="217.7 132 212.4 146 227.1 143.6 217.7 132"/><circle class="cls-2" cx="200" cy="198.6" r="45"/><path class="cls-7" d="m214.6,186.3c3.8-.3,7.5,3.6,7.4,7.4s0,7.8,0,11.7v21.1c0,.8-.2,1.7-.7,2.3h-10.8c-.9,0-1.9,0-2.8-.2-6.4-.9-12.3-3.9-16.8-8.5h18c2.8,0,2.9-.1,2.9-2.9v-2.9h4.6c.6.1,1.1-.3,1.2-.8,0-.1,0-.3,0-.5v-6.7c0-.6-.2-.8-.8-.8h-5.1v-4.2c.1-.8-.4-1.6-1.2-1.7-.2,0-.3,0-.5,0h-22.3c-2.1,0-2.4.3-2.4,2.3v10.5l-.2-.2c-1.8-3.9-2.7-8.1-2.7-12.4v-12.6c.8-.8,1.9-.7,3-.7h29.2v-.2Z"/><path class="cls-9" d="m190.8,220.1c2.4,2.7,5.4,4.8,8.8,6.2,2.5,1.2,5.2,1.9,8,2.3.9.1,1.9.2,2.8.2h10.8c-.8,2.3-2.7,3.5-4.9,4.2-.5.2-1.1.3-1.7.2h-29.3c-4,0-7.3-3.3-7.3-7.3,0,0,0,0,0-.1v-29.1c-.1-1.5,0-3,.2-4.5.6-2.3,1.8-4.2,4.2-5v12.6c0,4.3.9,8.5,2.7,12.4l.2.2v6c-.1.8.4,1.6,1.2,1.7.2,0,.3,0,.5,0h3.8Z"/><path class="cls-17" d="m188.3,199.6h17.6c-1,2.4-2,4.7-3,7.1-1.4,3.4-2.9,6.8-4.3,10.2l-.3.4c-.7-.3-1.4-.3-2.1-.2-4.1.2-7.6-3-7.8-7.1,0-.2,0-.5,0-.7v-9.8h0Z"/><path class="cls-11" d="m198.5,216.9c1.4-3.4,2.9-6.8,4.3-10.2,1-2.4,2-4.7,3-7.1h4.2c1.2,0,1.7.5,1.7,1.7v15.9h-12.2c-.3,0-.7.1-1-.2h0Z"/><path class="cls-13" d="m188.3,199.6v9.8c-.2,4.1,3,7.6,7.1,7.8.2,0,.5,0,.7,0,.7,0,1.5-.2,2.1.2-.3.9-.7,1.8-1,2.7h-10.1c-.8.1-1.6-.4-1.7-1.2,0-.2,0-.3,0-.5v-16.5c0-2,.3-2.4,2.4-2.3h.5Z"/><path class="cls-21" d="m197.2,220c.3-.9.7-1.8,1-2.7.1-.1.2-.3.3-.4.3.3.7.2,1,.2h12.2c0,2.8,0,2.9-2.9,2.9h-11.6Z"/><path class="cls-11" d="m213.2,205.4h3.6c.6,0,.8.2.8.8v6.5c-2.3.1-4.3-1.7-4.4-4,0-.2,0-.3,0-.5,0-.9,0-1.9,0-2.8Z"/><path class="cls-21" d="m213.2,205.4v2.8c-.2,2.3,1.6,4.3,3.9,4.5.2,0,.3,0,.5,0v.2c0,.9-.4,1.3-1.2,1.3h-4.6v-8.8h1.4Z"/><path d="m159.5,196.5l.7-2.4,7.6.3-6.5-4,.5-1.9h7.6l-6.6-3.7.7-2.4,9.3,5.6-.7,2.6h-6.4l5.5,3.3-.7,2.6h-11Z"/><path d="m172.2,175.5l6.1,4.4-1.3,1.8-.6-.4c.2.8,0,1.7-.6,2.4-1.3,1.6-3.6,1.9-5.3.6,0,0,0,0,0,0-1.7-1.1-2.3-3.4-1.2-5.1,0,0,0,0,0,0,.5-.7,1.2-1.2,2-1.3l-.6-.4,1.3-1.8h.1Zm1.7,4c-.7-.6-1.7-.6-2.3.1,0,0-.2.2-.2.3-.6.7-.5,1.7.2,2.3,0,0,.2.1.3.2.7.6,1.7.6,2.3-.1,0,0,.2-.2.2-.3.6-.7.5-1.7-.2-2.3,0,0-.2-.1-.3-.2Z"/><path d="m177.8,173.3l1.8,2c.4.5.9.2,1.6-.5l1.3,1.5c-2,2.2-3.2,2.1-4.6.5l-1.8-2-.9.8-1.4-1.6.9-.8-.9-1.1,1.2-2,1.4,1.6,1.2-1,1.4,1.6-1.2,1Z"/><path d="m180.7,172.8c-1-2-.3-4.4,1.7-5.4,1.2-.6,2.6-.6,3.7,0l-1.1,2c-.5-.3-1.2-.3-1.7,0-.8.5-1.1,1.6-.6,2.4.4.8,1.5,1.1,2.3.7h0c.6-.3.9-.9.8-1.5h2.3c0,1.4-.8,2.7-2,3.4-1.8,1.1-4.2.5-5.4-1.3,0,0,0,0,0,0v-.2Z"/><path d="m195,166l1.2,4.4-2.2.6-1.1-4.1c0-.7-.7-1.1-1.3-1.1,0,0-.2,0-.3,0-.8.2-1.2.8-.9,1.9l1.1,3.9-2.2.6-2.8-10.1,2.2-.6,1,3.6c.4-.7,1-1.3,1.8-1.5,1.5-.4,3,.4,3.4,1.9,0,.1,0,.2,0,.3h0Z"/><path d="m209,167.2c-.2,2.1-1.9,3.6-4,3.5-.9,0-1.6-.5-2.1-1.2v.7l-2.3-.3,1.2-10.4,2.2.3-.4,3.7c.6-.6,1.5-.8,2.3-.7,2,.3,3.4,2.1,3.1,4.1,0,0,0,.1,0,.2h0Zm-2.2-.3c.2-.9-.4-1.8-1.4-2,0,0-.2,0-.2,0-.9-.1-1.8.5-2,1.5,0,0,0,0,0,.1-.2.9.4,1.8,1.4,2,0,0,.2,0,.2,0,.9.1,1.8-.5,2-1.5,0,0,0,0,0-.1Z"/><path d="m219.1,167.3l-2.9,6.9-2.1-.9.3-.6c-.8.4-1.6.4-2.4,0-1.8-.9-2.6-3.1-1.8-5,.7-1.9,2.8-2.9,4.7-2.2,0,0,0,0,0,0,.8.3,1.4.9,1.7,1.7l.3-.6,2.1.9v-.2Zm-3.5,2.6c.4-.9,0-2-.9-2.4,0,0,0,0,0,0-.9-.4-2,0-2.4,1,0,0,0,0,0,0-.4.9,0,2,.9,2.4,0,0,0,0,0,0,.9.4,2,0,2.4-1,0,0,0,0,0,0Z"/><path d="m222.5,172.2l-1.6,2.1c-.4.5,0,.9.9,1.4l-1.2,1.6c-2.5-1.5-2.7-2.7-1.5-4.4l1.6-2.1-1-.7,1.3-1.7,1,.7.8-1.1,2.2.8-1.2,1.7,1.2.9-1.3,1.7-1.2-.9Z"/><path d="m226.8,176.2l-1.9,1.9c-.5.5-.1.9.6,1.6l-1.5,1.4c-2.3-1.9-2.2-3.1-.7-4.6l1.9-1.9-.8-.9,1.5-1.5.8.9,1-1,2.1,1.1-1.5,1.5,1.1,1.1-1.5,1.5-1.1-1.1Z"/><path d="m228.1,183.7c.3.5.8.8,1.3.9v2.1c-1.3,0-2.4-.8-3-1.9-1.3-1.7-1-4,.7-5.3.1,0,.3-.2.4-.3,1.8-1.2,4.2-.7,5.4,1.1,0,0,0,.1.1.2,1.1,1.7.7,4-1.1,5.2,0,0-.2.1-.2.1-.2.2-.5.3-.8.4l-2.8-4.5c-.5.6-.5,1.5,0,2.1h0Zm3-.3c.5-.5.6-1.4.2-2-.4-.7-1.2-1-1.9-.7l1.7,2.7Z"/><path d="m237.4,190.1l-2.4.9c-.1-1-1-1.7-2-1.6-.1,0-.3,0-.4,0l-3.2,1.2-.8-2.1,7.1-2.6.8,2.1-1.3.5c1,0,1.9.7,2.2,1.6h0Z"/><path d="m238.8,199.4l-7.6-1.5c-2.5-.5-3.6-1.7-3.8-3.8l2.1-.3c0,.9.6,1.6,1.5,1.7l6.7-3.9.3,2.5-4.3,2.3,4.7.8.3,2.4v-.2Z"/><line class="cls-5" x1="199.7" y1="250.5" x2="200.2" y2="283.3"/><line class="cls-4" x1="199.7" y1="250.5" x2="200" y2="272.6"/><polygon class="cls-22" points="192.5 270.5 200.2 283.3 207.5 270.3 192.5 270.5"/><circle class="cls-3" cx="200" cy="334.6" r="45"/><path d="m157.7,336.9l.5-2.6,8.1-.6-7.4-3.4.3-2,8.1-.8-7.4-3.2.5-2.6,10.5,4.9-.5,2.9-6.8.7,6.2,2.9-.5,2.9-11.6,1.2v-.3Z"/><path d="m169,313.2l6.9,4.1-1.2,2.1-.6-.4c.3.8.2,1.6-.4,2.5-1.1,1.8-3.5,2.4-5.6,1.1-2.1-1.2-2.8-3.6-1.7-5.4.5-.9,1.3-1.4,2.1-1.6l-.6-.4,1.2-2.1h0Zm2.2,4.1c-1-.6-2.1-.3-2.6.6-.6,1-.3,2,.7,2.6,1,.6,2.1.3,2.6-.6.6-1,.3-2-.7-2.6Z"/><path d="m174.8,310.4l2,2c.5.5,1,.1,1.6-.7l1.6,1.5c-2,2.5-3.3,2.5-4.9.9l-2-2-.9.9-1.6-1.6.9-.9-1.1-1.1,1.2-2.2,1.6,1.6,1.2-1.2,1.6,1.6-1.2,1.2Z"/><path d="m177.9,309.6c-1.3-2-.8-4.5,1.2-5.9,1.3-.9,2.9-.9,4.1-.3l-1.1,2.2c-.5-.3-1.2-.3-1.8.1-.9.6-1.1,1.6-.5,2.5s1.7,1.1,2.5.5c.6-.4.9-1,.8-1.6l2.4-.2c0,1.4-.6,2.9-1.9,3.7-2,1.3-4.5.8-5.9-1.2l.2.2Z"/><path d="m192.7,301.5l1.5,4.7-2.3.7-1.4-4.3c-.3-.9-1-1.2-1.8-1-.8.3-1.3,1-.9,2l1.4,4.2-2.3.7-3.5-10.6,2.3-.7,1.2,3.8c.2-.7.9-1.3,1.9-1.6,1.5-.5,3.2.2,3.9,2.2h0Z"/><path d="m194.9,300.2l6.1-.3v2.3c0,0-5.9.3-5.9.3v-2.3h-.2Z"/><path d="m203.7,298l2.4.3-1,7.9-2.4-.3,1-7.9Zm0-2.2c0-.8.8-1.3,1.6-1.2.8,0,1.3.8,1.2,1.6,0,.8-.8,1.3-1.6,1.2s-1.3-.8-1.2-1.6Z"/><path d="m215.1,304.1l-1.6,4.6-2.3-.8,1.5-4.3c.3-.9,0-1.6-.8-1.8-.8-.3-1.6,0-1.9,1.1l-1.4,4.1-2.3-.8,2.6-7.6,2.3.8-.2.7c.6-.4,1.5-.5,2.5-.2,1.5.5,2.5,2.1,1.7,4.1h0Z"/><path d="m220,306.2l-1.5,2.4c-.4.6,0,1,1,1.5l-1.2,1.8c-2.8-1.4-3.1-2.7-1.9-4.6l1.5-2.4-1.1-.7,1.2-1.9,1.1.7.8-1.3,2.4.7-1.2,1.9,1.4.9-1.2,1.9-1.4-.9h0Z"/><path d="m223.1,313.7c.5.5,1,.7,1.5.7l.6,2.1c-1.3.2-2.6-.2-3.6-1.3-1.9-1.9-1.8-4.4,0-6.1,1.7-1.7,4.2-1.7,6,0,1.6,1.7,1.6,4.2,0,5.9-.2.2-.5.4-.7.6l-4-4c-.4.8,0,1.5.6,2.2h-.2Zm3.1-1c.5-.8.2-1.6-.3-2.1-.6-.6-1.4-.8-2.1-.3l2.4,2.4Z"/><path d="m234.2,318.3l-2.3,1.4c-.4-.9-1.5-1.9-2.8-1.1l-3.1,1.9-1.3-2,6.8-4.2,1.3,2-1.2.7c1.1-.3,2.1.4,2.6,1.2h0Z"/><path d="m234.6,328.8l-4.7,1.5-.8-2.3,4.3-1.4c.9-.3,1.2-1.1.9-1.8-.3-.8-1-1.2-2-.9l-4.1,1.4-.8-2.3,7.6-2.5.8,2.3-.7.2c.7.2,1.3.9,1.6,1.9.5,1.5-.2,3.2-2.2,3.9h0Z"/><path d="m238.4,339.1l-8,.3v-2.4h.7c-.6-.5-1-1.3-1.1-2.4,0-2.1,1.7-3.9,4.1-4,2.4,0,4.3,1.6,4.3,3.7s-.3,1.9-.9,2.4h.8v2.4h0Zm-4.1-2.3c1.2,0,1.9-.9,1.9-2s-.8-1.9-2-1.8c-1.2,0-1.9.9-1.9,2s.8,1.9,2,1.8Z"/><path d="m241.5,342.7l-.4,2.4-11.5-2.1.4-2.4,11.5,2.1Z"/><path class="cls-12" d="m174,358.3v-28.8c0-.5.2-.6.7-.6h4.5v2c0,.5,0,.6.6.6h2.4c.4,0,.5,0,.5-.5v-2.1h3.4v2c0,.5,0,.6.6.6h2.4c.4,0,.5,0,.5-.5v-2.1h3.4v2c0,.5,0,.6.6.6h2.4c.4,0,.5,0,.5-.5v-2.1h7.8v4c0,.4,0,.6-.4.8-1,.6-1.5,1.8-1.2,2.9.4,1.4,1.8,2.2,3.2,1.8,1.4-.4,2.2-1.8,1.8-3.2s-.6-1.2-1.2-1.6c-.2,0-.4-.2-.4-.6v-4.1h3.4v8.2c0,.5.2,1,.5,1.3,1.8,1.8,3.6,3.6,5.4,5.4.3.3.3.5.2.8-.5,1.6.8,3.2,2.4,3.3,1.2,0,2.1-.6,2.6-2.1v7.3h-.8c-.6,0-.9.3-.9.9h-3.4v-.3c0-.5,0-.6-.6-.6h-2.4c-.3,0-.5,0-.5.4v2.6c0,.4,0,.5.5.4h2.2q.8,0,.8-.9h3.5c0,.6.3.9.9.9h.6c-.2.9-1.3,1.7-2.3,1.7h-10.4c0-1.1-.5-1.9-1.5-2.3-.3,0-.3-.3-.3-.5v-3.9c0-.7-.3-1-1-1h-8.5v-1.8h10c.4,0,.6,0,.8.4.5,1,1.8,1.5,2.9,1.2,1.4-.4,2.2-1.8,1.8-3.2-.2-.9-1-1.6-1.9-1.8-1.1-.3-2.3.2-2.9,1.2-.2.4-.4.4-.8.4h-10v-1.7h3q1.4,0,1.3-1.4c0-.3,0-.4-.4-.4h-3.9v-1.8h3q1.4,0,1.3-1.4c0-.3,0-.4-.4-.4h-3.9v-1.4c0-.3,0-.4-.3-.4h-1.4v-3q0-1.4-1.4-1.3c-.3,0-.4,0-.4.4v4h-1.8v-3q0-1.4-1.4-1.3c-.3,0-.4,0-.4.4v4h-1.8v-3q0-1.4-1.4-1.3c-.3,0-.4,0-.4.4v4h-1.8v-3q0-1.4-1.4-1.3c-.3,0-.4,0-.4.4v4h-1.4c-.3,0-.4,0-.3.4v1.4h-3q-1.4,0-1.3,1.4c0,.3.1.4.4.4h3.9v1.8h-3q-1.4,0-1.3,1.4c0,.3.1.4.4.4h3.9v1.8h-3q-1.4,0-1.3,1.4c0,.3.1.4.4.4h3.9v1.8h-3q-1.4,0-1.3,1.4c0,.3.1.4.4.4h3.9v1.4c0,.3,0,.4.3.4h1.4v4.3h-8.7l.6-.6Z"/><path class="cls-20" d="m174,358.3h28.6c0,.5.2,1,.5,1.5.6.9,1.7,1.3,2.8,1.1,1.2-.3,1.8-1.2,2-2.5h10.4c1.1,0,2.1-.8,2.3-1.7h1.6c.3,0,.4,0,.4-.4v-2.8c0-.3,0-.4-.4-.4h-1.4v-23.7c0-.5,0-.6.6-.6h4.1c.5,0,.6,0,.6.6v33.5c0,.5,0,.6-.6.6h-4.2c-.3,0-.4,0-.4-.4-.3-1.8-1.7-3.1-3.5-3.1s-3.2,1.3-3.4,3.1c0,.3,0,.4-.4.3h-38.8c-.5,0-.6,0-.6-.6v-4.6h-.2Z"/><path class="cls-12" d="m220.8,329.4v15.4c-.7-1.8-1.5-2.2-3.5-1.9-.2,0-.3,0-.5-.2-1.8-1.8-3.5-3.5-5.3-5.3-.2,0-.3-.3-.3-.6v-8h1.9c.5,0,.7,0,.7.6.2,1.3,1,2.2,2.2,2.6,1.8.7,3.7-.3,4.4-2h0c0-.3,0-.4.2-.6h.2Z"/><path class="cls-14" d="m211.3,328.9v8c0,.2,0,.4.3.6,1.8,1.8,3.5,3.5,5.3,5.3,0,0,.2.3.5.2,2-.4,2.8,0,3.5,1.9v1c-.6,1.4-1.4,2.1-2.6,2.1-1.7,0-2.9-1.7-2.4-3.3,0-.4,0-.6-.2-.8-1.8-1.8-3.6-3.6-5.4-5.4-.4-.3-.6-.8-.5-1.3v-8.2h1.8-.3Zm6.9,17.3c.5,0,.9-.4.9-.8s-.4-.9-.8-.9-.9.4-.9.8h0c0,.5.4.9.8.9Z"/><path class="cls-15" d="m206.1,328.9v4.1c0,.4.2.4.4.6,1.2.7,1.7,2.3,1,3.5s-2.3,1.7-3.5,1c-.6-.3-1-.9-1.2-1.6-.3-1.1.2-2.3,1.2-2.9.4-.2.4-.4.4-.8v-3.9h1.8-.1Zm-.9,6.1c-.5,0-.9.4-.9.9s.4.9.9.9.9-.4.9-.9h0c0-.5-.4-.9-.9-.9h0Z"/><path class="cls-25" d="m179.2,330.6v-3.9c0-.3,0-.4.4-.4h2.2v3.3c0,.6-.3,1-1,1s-1.1,0-1.6,0Z"/><path class="cls-25" d="m186.2,330.6v-3.9c0-.3,0-.4.4-.4h2.2v3.3c0,.6-.3,1-1,1s-1.1,0-1.6,0Z"/><path class="cls-25" d="m193.1,330.6v-3.9c0-.3,0-.4.4-.4h2.2v3.3c0,.6-.3,1-1,1s-1.1,0-1.6,0Z"/><path class="cls-8" d="m186.2,330.6h1.6c.6,0,1-.3,1-1v-3.3h0c.5,0,.8.2.8.7v4c0,.4,0,.5-.5.5h-2.4c-.5,0-.6-.2-.6-.6,0,0,0-.2,0-.3Z"/><path class="cls-8" d="m179.2,330.6h1.6c.6,0,1-.3,1-1v-3.3h.1c.5,0,.8.2.8.7v4c0,.4,0,.5-.5.5h-2.4c-.5,0-.6-.2-.6-.6v-.3Z"/><path class="cls-8" d="m193.1,330.6h1.6c.6,0,1-.3,1-1v-3.3h0c.5,0,.8.2.8.7v4c0,.4,0,.5-.5.5h-2.4c-.5,0-.6-.2-.6-.6,0,0,0-.2,0-.3Z"/><path class="cls-20" d="m194.8,338.4h1.4c.3,0,.4,0,.3.4v14.9c0,.3,0,.4-.3.4h-14.9c-.3,0-.4,0-.3-.4v-14.9c0-.3,0-.4.3-.4h13.5Zm-10.4,10.4v1.3c0,.4,0,.4.5.4h7.7c.4,0,.5,0,.5-.5v-6.5c0-.5.2-1.2,0-1.6s-1.1,0-1.6,0h-6.5c-.3,0-.4,0-.4.4v6.5h-.1Z"/><path class="cls-15" d="m196.5,352.2v-1.7h8.5c.7,0,1,.3,1,1v3.9c0,1.3,0,.4.3.5,1,.5,1.4,1.3,1.5,2.3,0,1.3-.8,2.2-2,2.5-1.1.3-2.2,0-2.8-1.1-.3-.4-.4-.9-.5-1.5,0-1.1.5-1.9,1.5-2.3.2,0,.3-.3.3-.5v-2.6c0-.5,0-.6-.6-.6h-7.2Zm9.5,6.1c0-.5-.4-.9-.9-.9s-.9.4-.9.9.4.9.9.9h0c.5,0,.8-.4.8-.9h.1Z"/><path class="cls-15" d="m196.5,348.8v-1.7h10c.4,0,.6,0,.8-.4.6-1,1.7-1.5,2.9-1.2,1.4.3,2.2,1.7,1.9,3.1-.2.9-.9,1.6-1.8,1.9-1.2.3-2.4-.2-2.9-1.2s-.4-.4-.8-.4h-10.1Zm13-1.7c-.5,0-.9.4-.9.9s.4.9.9.9.9-.4.9-.9h0c0-.5-.4-.8-.9-.8h0Z"/><path class="cls-6" d="m215.6,355.7c0,.6-.3.9-.8.9h-2.2c-.3,0-.5,0-.5-.4v-2.6c0-.4,0-.5.5-.4h2.4c.5,0,.7,0,.6.6v2h0Z"/><path class="cls-6" d="m220.8,353.1h1.4c.3,0,.4,0,.4.4v2.8c0,.3,0,.4-.4.4h-2.2c-.6,0-.9-.3-.9-.9v-1.7c0-.6.3-.9.9-.9h.9-.1Z"/><path class="cls-18" d="m194.8,338.4h-1.7v-4c0-.3,0-.4.4-.4q1.4,0,1.4,1.3v3h-.1Z"/><path class="cls-18" d="m180.9,340.1v1.7h-3.9c-.3,0-.4,0-.4-.4q0-1.4,1.3-1.4h3Z"/><path class="cls-18" d="m196.5,341.8v-1.7h3.9c.3,0,.4,0,.4.4q0,1.4-1.3,1.4h-3Z"/><path class="cls-18" d="m180.9,343.6v1.7h-3.9c-.3,0-.4,0-.4-.4q0-1.4,1.3-1.4h3Z"/><path class="cls-18" d="m196.5,345.3v-1.7h3.9c.3,0,.4,0,.4.4q0,1.4-1.3,1.4h-3Z"/><path class="cls-18" d="m180.9,347.1v1.7h-3.9c-.3,0-.4,0-.4-.4q0-1.4,1.3-1.4h3Z"/><path class="cls-18" d="m180.9,350.5v1.7h-3.9c-.3,0-.4,0-.4-.4q0-1.4,1.3-1.4h3Z"/><path class="cls-18" d="m184.4,338.4h-1.7v-4c0-.3,0-.4.4-.4q1.4,0,1.4,1.3v3h-.1Z"/><path class="cls-18" d="m187.9,338.4h-1.7v-4c0-.3,0-.4.4-.4q1.4,0,1.4,1.3v3h-.1Z"/><path class="cls-18" d="m182.7,354h1.7v4.3h-1.7v-4.3Z"/><path class="cls-18" d="m191.3,338.4h-1.7v-4c0-.3,0-.4.4-.4q1.4,0,1.4,1.3v3h-.1Z"/><path class="cls-18" d="m219.1,354v1.7h-3.5v-1.7h3.5Z"/><path class="cls-12" d="m196.5,352.2h7.2c.5,0,.6.2.6.6v2.6c0,.2,0,.4-.3.5-1,.5-1.4,1.3-1.5,2.3h-7.8v-4.3h1.4c.3,0,.4,0,.3-.4v-1.4h0Z"/><path class="cls-12" d="m184.4,358.3v-4.3h1.8v4.3h-1.8Z"/><path class="cls-18" d="m186.2,358.3v-4.3h1.7v4.3h-1.7Z"/><path class="cls-12" d="m187.9,358.3v-4.3h1.8v4.3h-1.8Z"/><path class="cls-18" d="m189.6,358.3v-4.3h1.7v4.3h-1.7Z"/><path class="cls-18" d="m194.8,354v4.3h-1.7v-4.3h1.7Z"/><path class="cls-12" d="m193.1,354v4.3h-1.8v-4.3h1.8Z"/><path class="cls-19" d="m218.2,346.2c-.5,0-.9-.4-.9-.9s.4-.9.9-.9.9.4.9.9h0c0,.5-.4.8-.9.8h0Z"/><path class="cls-19" d="m205.2,334.9c.5,0,.9.4.9.9s-.4.9-.9.9-.9-.4-.9-.9h0c0-.5.4-.9.9-.8h0Z"/><path class="cls-25" d="m184.4,348.8v-6.5c0-.3,0-.4.4-.4h6.5v4.1c0,1.7-1.1,2.8-2.8,2.8h-4.1Z"/><path class="cls-8" d="m184.4,348.8h4.1c1.7,0,2.8-1.1,2.8-2.8v-4.1c.6,0,1.3-.2,1.6,0s0,1,0,1.6v6.5c0,.4,0,.5-.5.5h-7.7c-.3,0-.5,0-.5-.4v-1.3h.1Z"/><path class="cls-19" d="m206.1,358.3c0,.5-.4.9-.8.9s-.9-.4-.9-.8.4-.9.8-.9h0c.5,0,.9.4.9.8Z"/><path class="cls-19" d="m209.5,347c.5,0,.9.4.9.9s-.4.9-.9.9-.9-.4-.9-.9h0c0-.5.4-.9.9-.9Z"/></svg>