<?xml version="1.0" encoding="UTF-8"?><svg id="Layer_1" xmlns="http://www.w3.org/2000/svg" viewBox="0 0 400 400"><defs><style>.cls-1{stroke:#a5262d;}.cls-1,.cls-2,.cls-3{stroke-width:4px;}.cls-1,.cls-2,.cls-3,.cls-4{stroke-miterlimit:10;}.cls-1,.cls-2,.cls-3,.cls-4,.cls-5{fill:none;}.cls-6{fill:#fcfcfd;}.cls-2{stroke:#0018c6;}.cls-7{fill:#3f5c6c;}.cls-3{stroke:#c000e2;}.cls-8{fill:#54747f;}.cls-9{fill:#364a5f;}.cls-10{fill:#bacce9;}.cls-11{fill:#c7c7c7;}.cls-12{fill:#bdbdbd;}.cls-13{fill:#ecf5fe;}.cls-4{stroke:#231f20;stroke-width:2px;}.cls-14{fill:#685e66;}.cls-15{fill:#b9cce9;}.cls-16{fill:#aaa;}.cls-17{fill:#484645;}.cls-18{fill:#5ecaed;}.cls-19{fill:#3b97d2;}.cls-20{fill:#5d707d;}.cls-21{fill:#b3b3b3;}.cls-22{fill:#bdc3c7;}.cls-23{fill:#d7e1f2;}.cls-24{fill:#231f20;}</style></defs><line class="cls-5" x1="154.7" y1="117.5" x2="188.3" y2="144.7"/><line class="cls-4" x1="154.7" y1="117.5" x2="180" y2="137.9"/><polygon class="cls-24" points="173.5 142.4 188.3 144.7 183 130.7 173.5 142.4"/><line class="cls-5" x1="245.3" y1="117.5" x2="211.7" y2="144.7"/><line class="cls-4" x1="245.3" y1="117.5" x2="220.1" y2="137.9"/><polygon class="cls-24" points="217.1 130.7 211.7 144.7 226.5 142.4 217.1 130.7"/><circle class="cls-1" cx="116" cy="63.8" r="45"/><rect class="cls-21" x="90" y="53.8" width="52" height="37" rx="2.9" ry="2.9"/><path class="cls-17" d="m116.8,84.1l-1.1-3.4h-8l-1,3.4h-6.5l7.5-23.6h7.6l7.8,23.6h-6.3Zm-7.6-8.6h4.8l-2.4-8-2.4,8Z"/><path class="cls-17" d="m124.5,84.1v-24.7h5.6v24.7h-5.6Z"/><path d="m92.1,42.5l-2.4,3.1,1,1.4-1.6,2.1-6.1-9.3,1.9-2.4,10.5,3.7-1.6,2.1-1.6-.6h-.1Zm-2.2-.8l-3.8-1.4,2.3,3.3,1.5-1.9Z"/><path d="m88.8,32.7l1.7-1.4,7,8.4-1.7,1.4-7-8.4Z"/><path d="m101,28.9l3.6,6.6-2,1.1-.3-.6c-.1.8-.6,1.5-1.4,1.8-1.3.7-3,.3-3.8-1.1,0-.1-.1-.2-.1-.3l-2.2-4,2-1.1,2,3.8c.3.6,1.1.9,1.7.6,0,0,0,0,0,0,.7-.3.9-1.1.6-1.8,0,0,0-.1-.1-.2l-2-3.6,2-1.1h-.1Z"/><path d="m115.6,28.4l.8,4.5-2.2.4-.8-4.3c0-.6-.5-1.1-1.1-1,0,0-.1,0-.2,0-.7,0-1.1.7-.9,1.6l.7,4.2-2.2.4-.8-4.3c0-.6-.5-1.1-1.1-1,0,0-.1,0-.2,0-.7,0-1.1.7-.9,1.6l.7,4.2-2.2.4-1.3-7.4,2.2-.4v.7c.4-.7,1.1-1.1,1.9-1.2.8-.2,1.6,0,2.1.6.4-.8,1.1-1.3,2-1.4,1.7-.3,3,.7,3.3,2.6l.2-.2Z"/><path d="m117.9,26l2.2.2-.6,7.5-2.2-.2.6-7.5Zm0-2c0-.7.8-1.3,1.5-1.2.7,0,1.3.8,1.2,1.5s-.8,1.3-1.5,1.2c0,0,0,0,0,0-.7,0-1.3-.7-1.2-1.4,0,0,0,0,0-.1Z"/><path d="m128.9,31.1l-1.2,4.4-2.2-.6,1.1-4.1c.2-.7-.1-1.4-.8-1.7,0,0,0,0-.1,0-.7-.3-1.5,0-1.7.8,0,.1,0,.2,0,.3l-1.1,3.9-2.2-.6,2-7.2,2.2.6-.2.7c.7-.5,1.5-.6,2.3-.3,1.5.4,2.4,1.9,2,3.4,0,.1,0,.2,0,.3h0Z"/><path d="m138.5,33.1l-3.8,6.4-1.9-1.2.4-.6c-.8.3-1.6.2-2.3-.3-1.3-.8-1.8-2.5-1-3.8,0-.1.1-.2.2-.3l2.4-4,1.9,1.2-2.2,3.7c-.4.5-.3,1.2.2,1.6,0,0,.2.1.2.2.6.4,1.5.2,1.9-.4,0,0,0-.1.1-.2l2.1-3.5,1.9,1.2h0Z"/><path d="m146.3,45.4l-3.5,3-1.5-1.7,3.4-2.9c.6-.5.7-1.1.2-1.6-.4-.5-1.2-.6-1.7-.1,0,0,0,0-.1.1l-3.2,2.7-1.5-1.7,3.4-2.9c.6-.5.7-1.1.2-1.6-.4-.5-1.2-.6-1.7-.1,0,0,0,0-.1.1l-3.2,2.7-1.5-1.7,5.7-4.9,1.5,1.7-.5.4c.8,0,1.5.3,2,.9.5.6.7,1.4.5,2.1.8,0,1.7.3,2.2,1,1,1.2.9,3-.3,4,0,0-.1.1-.2.2v.3Z"/><circle class="cls-1" cx="284" cy="63.8" r="45" transform="translate(175.5 333.8) rotate(-80.8)"/><path d="m264.4,34.6c1.6,2,1.2,4.9-.8,6.5l-1.6,1.2,2.6,3.3-2.4,1.9-8.3-10.4,3.9-3.1c2-1.6,4.9-1.3,6.5.7,0,0,0,0,0,0h.1Zm-2.4,1.9c-.5-.7-1.4-.9-2.1-.4,0,0-.1,0-.2.1l-1.6,1.2,2.1,2.7,1.6-1.2c.7-.6.8-1.6.2-2.3,0,0,0,0,0,0h0Z"/><path d="m264.8,28.9l2.6-1.2,5.8,12.6-2.6,1.2-5.8-12.6Z"/><path d="m282.2,28.4l1.7,9.4-2.8.5-.2-.9c-.6.9-1.5,1.5-2.6,1.6-2.6.4-5-1.5-5.4-4.1,0,0,0,0,0,0-.6-2.5.9-5,3.4-5.7,0,0,.1,0,.2,0,1-.2,2.1,0,3,.6l-.2-.9,2.8-.5h0Zm-2,5.2c-.1-1.2-1.2-2.1-2.4-1.9,0,0-.1,0-.2,0-1.2.1-2,1.2-1.9,2.4,0,.1,0,.2,0,.3.1,1.2,1.2,2.1,2.4,1.9,0,0,.1,0,.2,0,1.2-.1,2-1.2,1.9-2.4,0-.1,0-.2,0-.3Z"/><path d="m292.7,36.1c-.3,2.2-2.3,2.9-4.3,2.6-1.7,0-3.2-1.2-3.8-2.8l2.6-1.1c.1.7.8,1.3,1.5,1.3.7,0,1,0,1.1-.5.1-1-4.6-1.1-4.2-4.3.3-2.1,2.1-2.9,4.1-2.6,1.5.1,2.8,1.1,3.4,2.5l-2.6,1c-.2-.5-.6-.9-1.2-1-.5,0-.8,0-.9.4-.1,1.1,4.6,1,4.1,4.4h.2Z"/><path d="m298.4,34.1l-1.2,3.1c-.3.8.3,1.1,1.5,1.5l-.9,2.4c-3.6-1-4.2-2.4-3.3-4.9l1.2-3.2-1.4-.5,1-2.6,1.4.5.6-1.7,3,.2-.9,2.5,1.8.7-1,2.6-1.8-.7h0Z"/><path d="m303.7,33.5l2.4,1.5-4.9,8.2-2.4-1.5,4.9-8.2Zm1.1-2.3c.5-.8,1.5-1.1,2.3-.6s1.1,1.5.6,2.3c-.5.8-1.5,1.1-2.3.6-.8-.5-1.1-1.5-.6-2.3,0,0,0,0,0,0h0Z"/><path d="m305.4,40c1.8-2,4.9-2.2,6.9-.4,0,0,.2.1.2.2,1.3,1.2,1.8,3,1.4,4.7l-2.8-.7c.2-.7,0-1.5-.6-2-.9-.8-2.3-.7-3.1.2-.8.9-.7,2.2,0,3,.5.6,1.4.8,2.1.5l.8,2.7c-1.7.5-3.5,0-4.8-1.2-2-1.9-2.1-5.1-.2-7.1,0,0,0,0,0,0h.1Z"/><path class="cls-23" d="m307.3,60h0c0,0-1.6,0-1.6,0q-.7,0-.7.7v30.3c0,.4-.1.9-.4,1.2-.2.2-.5.2-.7.4h-10.7c0,0,0-.2,0-.3l-1.3-5.3c-.7-3.1-1.4-6.2-2.1-9.3-1.1-4.5-2.1-9.1-3.2-13.6-.9-4-1.8-8-2.8-11.9h15c.2,0,.5,0,.6.2v6.2c0,.7.6,1.3,1.3,1.4h3.8c.3,0,.4,0,.4-.4v-1.8c.1,0,.2.1.2.2l2,2Z"/><path class="cls-15" d="m307.3,91.7c-.4.8-1.3,1.3-2.1,1.1h-1.2c.2-.2.5-.2.7-.4.3-.3.4-.8.4-1.2v-30.4q0-.7.7-.7h1.6v31.6Z"/><path class="cls-12" d="m263.7,52.1v-.9c-.2-.9.3-1.7,1.1-2.1h2c0,0,0,.2.1.2.6.4.9,1.1.8,1.8,0,.4,0,.7,0,1.1h-4Z"/><path class="cls-16" d="m267.7,52.2v-1.1c.1-.7-.2-1.4-.8-1.8,0,0-.1-.1-.1-.2h2c.9.4,1.4,1.4,1.2,2.3v.8h-2.3Z"/><path class="cls-13" d="m293.3,92.8h-6.2c0,0,0-.1,0-.2l-1.8-8-3.2-13.7c-1.1-4.6-2.1-9.2-3.2-13.9-.4-1.6-.7-3.2-1.1-4.8h6.2c.9,4,1.8,8,2.7,11.9,1.1,4.6,2.1,9.1,3.2,13.6.7,3.1,1.4,6.2,2.1,9.3.4,1.8.8,3.6,1.2,5.4,0,.1,0,.2,0,.3Z"/><path class="cls-13" d="m299.6,52.4c.1,0,.3,0,.3.2l5,5v.2c.1.6.1,1.2.1,1.8s-.1.4-.4.4h-3.8c-.7,0-1.3-.7-1.3-1.4v-6.2Z"/><path class="cls-23" d="m277.7,52.2c.4,1.6.7,3.2,1.1,4.8,1.1,4.6,2.1,9.3,3.2,13.9,1.1,4.6,2.1,9.2,3.2,13.7l1.8,8c0,0,0,.1,0,.2h-14.1v-3c0-.5-.3-.8-.7-.8s-.8.3-.8.8v3h-9.2c-1,0-1.7-.7-1.8-1.7,0,0,0,0,0,0v-37.1c0-.9.8-1.7,1.7-1.7,0,0,0,0,0,0,.5,0,.9,0,1.4,0h7.9v3c0,.5.3.8.7.8s.8-.3.8-.8v-3h4.7Zm-4.8,20.3v-1.6c0-.4-.3-.7-.7-.7s-.7.3-.7.7v3c0,.4.2.7.6.8,0,0,0,0,.1,0,.4,0,.7-.3.7-.7,0,0,0,0,0,0v-1.4Zm-1.5,6.1v1.6c0,.4.3.7.7.7s.7-.3.7-.7v-3.1c0-.4-.4-.7-.8-.8-.4,0-.7.3-.7.7,0,0,0,0,0,0v1.5h0Zm0-12.4v1.5c0,.4.3.8.7.8.4,0,.7-.4.8-.8v-2.9c0-.5-.3-.8-.7-.8s-.7.3-.7.8,0,1,0,1.5h0Zm0-6.3v1.5c0,.4.2.7.6.8,0,0,0,0,.1,0,.4,0,.7-.3.7-.7,0,0,0,0,0-.1v-2.9c0-.4-.2-.7-.6-.8,0,0,0,0-.1,0-.5,0-.7.3-.7.8v1.4h0Zm1.5,25v-1.5c0-.5-.3-.8-.7-.8-.4,0-.7.3-.7.7,0,0,0,0,0,.1v2.9c0,.4.2.7.6.8,0,0,0,0,.1,0,.5,0,.7-.3.7-.8s0-.9,0-1.4h0Z"/><path class="cls-15" d="m273,52.2v3c0,.5-.3.8-.8.8s-.7-.3-.7-.8v-3h1.5Z"/><path class="cls-12" d="m263.8,92.8h3.9v1.2c.1.8-.4,1.6-1.2,1.9h-1.2c-.8,0-1.6-.6-1.6-1.5,0,0,0,0,0-.1v-1.4h0Z"/><path class="cls-16" d="m266.5,95.9c.8-.3,1.3-1.1,1.2-1.9v-1.2h2.3c0,.6,0,1.2,0,1.8-.1.8-.8,1.3-1.6,1.3h-1.8Z"/><path class="cls-15" d="m271.5,92.8v-3c0-.5.3-.8.8-.8s.7.3.7.8v3h-1.5Z"/><path class="cls-11" d="m263.8,52.2h-.1s0,0,0,0h.1Z"/><path class="cls-11" d="m263.8,92.8h0c0,0,0,0,0,0h0Z"/><path class="cls-10" d="m273,72.5v1.4c0,.4-.3.7-.7.7s-.7-.3-.7-.7v-3c0-.4.2-.7.6-.8,0,0,0,0,0,0,.4,0,.7.3.8.7,0,0,0,0,0,.1v1.6Z"/><path class="cls-15" d="m271.5,78.7v-1.5c0-.4.3-.7.6-.7,0,0,0,0,0,0,.4,0,.7.3.8.8v3.1c0,.4-.2.8-.6.8-.4,0-.8-.2-.8-.6,0,0,0-.1,0-.2,0-.5,0-1,0-1.6Z"/><path class="cls-15" d="m271.5,66.3v-1.5c0-.5.3-.8.7-.8s.7.3.7.8v2.9c0,.4-.3.8-.7.8-.4,0-.7-.4-.7-.8,0,0,0,0,0,0,0-.5,0-1,0-1.5Z"/><path class="cls-15" d="m271.5,60v-1.4c0-.5.3-.8.7-.8.4,0,.7.3.7.6,0,0,0,0,0,.1v2.9c0,.4-.2.7-.6.8,0,0,0,0-.1,0-.4,0-.7-.3-.7-.8s0-1,0-1.5Z"/><path class="cls-15" d="m273,85v1.4c0,.5-.3.8-.7.8-.4,0-.7-.3-.7-.7,0,0,0,0,0-.1v-2.9c0-.4.2-.7.6-.8,0,0,0,0,.1,0,.5,0,.7.3.7.8v1.5Z"/><circle class="cls-2" cx="200" cy="199.1" r="45"/><path class="cls-20" d="m196.8,246.3c.3-.2.6-.2.9,0h-.9Z"/><path class="cls-20" d="m199.1,246.3c.1-.2.4-.2.5,0,0,0,0,0,0,0h-.6Z"/><path class="cls-14" d="m214.5,230.4h-32.2c-1.9-.4-3.6-1.3-5-2.6-1.5-1.4-2.3-3.4-2.3-5.5v-26.6c0-3.7,2.5-6.9,6.1-7.8l1.1-.3h32.2c3.7.5,6.7,3.4,7.2,7.1v27.4c0,3.7-2.9,7.3-6.2,7.9-.4,0-.7.3-1,.3h0Zm-16.1-39h-12.2c-3.8-.1-6.9,2.9-7,6.6,0,0,0,.2,0,.3v21.5c0,3.8,3,6.9,6.7,6.9,0,0,.2,0,.3,0h24.5c.6,0,1.2,0,1.8-.2,3.1-.8,5.3-3.6,5.2-6.8v-20.9c.2-3.8-2.6-7.1-6.4-7.3-.3,0-.6,0-.9,0h-12Z"/><path class="cls-18" d="m221.8,212.4v-6.9h2c.5,0,1,.3,1.1.9,0,0,0,.1,0,.2v4.7c0,.5-.3,1-.9,1.1,0,0-.1,0-.2,0h-2Z"/><path d="m159.5,197.3l.8-2.6,8.3.6-7-4.6.7-2,8.4.4-7.1-4.4.9-2.6,10,6.6-.9,2.9-7.1-.3,5.9,3.9-.9,2.9-12-.5v-.3Z"/><path d="m174.8,174.8l6.3,5.3-1.6,1.9-.6-.5c.2.9-.1,1.8-.8,2.5-1.7,1.7-4.5,1.6-6.2,0-1.4-1.5-1.6-3.8-.5-5.5.6-.7,1.4-1.2,2.3-1.2l-.6-.5,1.6-1.9h.1Zm1.6,4.5c-.9-.7-2.1-.6-2.8.3-.7.9-.6,2.1.3,2.8.9.7,2.1.6,2.8-.3,0,0,0,0,0,0,.7-.8.7-1.9,0-2.6,0,0-.1-.1-.2-.2h0Z"/><path d="m181.3,172.9l1.7,2.4c.4.6.9.3,1.8-.4l1.3,1.8c-2.4,2.1-3.8,1.9-5.1,0l-1.7-2.4-1.1.8-1.4-1.9,1.1-.8-.9-1.3,1.6-2,1.3,1.9,1.4-1,1.4,1.9-1.4,1Z"/><path d="m184.6,172.7c-.9-2.2,0-4.7,2.2-5.6,0,0,.1,0,.2,0,1.4-.6,3-.4,4.2.5l-1.5,2c-.5-.4-1.2-.5-1.8-.2-.9.6-1.1,1.9-.5,2.8.4.6,1.2.9,2,.8.7-.2,1.1-.8,1.1-1.5l2.5.3c-.3,2.4-2.5,4-4.9,3.7-1.5-.2-2.9-1.2-3.4-2.7h0Z"/><path d="m201.2,167.5l.5,5-2.5.3-.5-4.7c0-.7-.6-1.3-1.3-1.3,0,0-.2,0-.3,0-.9,0-1.5.7-1.3,1.9l.5,4.5-2.5.3-1.2-11.5,2.5-.3.4,4c.5-.7,1.3-1.2,2.2-1.3,1.7-.2,3.2.8,3.4,3.1h.1Z"/><path d="m211.5,166l1.5.4-.6,2.3-1.5-.4-1.5,5.7-2.4-.6,1.5-5.7-1.1-.3.6-2.3,1.1.3c.6-2.2,2.1-3.3,4.8-2.4l-.6,2.3c-.9-.3-1.5-.2-1.8.7Z"/><path d="m219.3,169l-1.2,2.5c-.8-.7-2-.6-2.7.2-.1.2-.2.3-.3.5l-1.6,3.4-2.2-1,3.4-7.5,2.2,1-.6,1.3c.7-.8,2-1,2.9-.4h.1Z"/><path d="m227.9,175.5l-5.2,6.4-1.9-1.6.5-.6c-.9.2-1.8-.1-2.5-.8-1.7-1.7-1.7-4.5,0-6.2,1.5-1.4,3.7-1.7,5.5-.6.8.5,1.3,1.4,1.3,2.3l.5-.6,1.9,1.6h-.1Zm-4.5,1.7c.7-.8.7-1.9,0-2.6,0,0-.1-.1-.2-.2-.9-.7-2.1-.6-2.8.3-.7.8-.7,1.9,0,2.6,0,0,.1.1.2.2.9.7,2.1.6,2.8-.3Z"/><path d="m234,190.6l-4.4,2.5-1.2-2.2,4.2-2.4c.6-.2.9-.9.7-1.5,0,0,0-.1,0-.2-.4-.7-1.1-.8-2-.4l-4,2.3-1.2-2.2,4.2-2.4c.6-.2.9-.9.7-1.5,0,0,0-.1,0-.2-.4-.7-1.1-.8-2-.4l-4,2.3-1.2-2.2,7.2-4.1,1.2,2.2-.7.4c.9.1,1.6.6,2,1.4.5.7.5,1.6.1,2.4.9,0,1.7.7,2.1,1.5.9,1.5.4,3.4-1.1,4.2-.1,0-.2.1-.3.2v.3Z"/><path d="m232.1,197.9c0,.6.3,1.2.9,1.5l-.8,2.1c-1.2-.7-2.1-1.9-2.2-3.3-.5-2.3,1-4.6,3.3-5.1.1,0,.2,0,.3,0,2.3-.3,4.5,1.3,4.9,3.6.3,2.3-1.3,4.5-3.7,4.9h-1l-.9-5.8c-.7.4-1.1,1.3-.9,2.1h0Zm3.2,1.1c.7-.3,1.2-1.1,1-1.9,0-.9-.7-1.5-1.6-1.6l.5,3.5h.1Z"/><line class="cls-5" x1="199.7" y1="251.1" x2="200.2" y2="283.9"/><line class="cls-4" x1="199.7" y1="251.1" x2="200" y2="273.1"/><polygon class="cls-24" points="192.5 271 200.2 283.9 207.5 270.8 192.5 271"/><circle class="cls-3" cx="200" cy="336.2" r="45"/><path d="m158.5,334.2l.6-2.5h7.6c0,0-6.7-3.7-6.7-3.7l.4-1.9,7.6-.3-6.8-3.4.6-2.5,9.6,5.2-.6,2.7-6.4.3,5.7,3.1-.6,2.7-10.9.5v-.2Z"/><path d="m170.2,312.6l6.3,4.1-1.2,1.9-.6-.4c.2.7.1,1.5-.4,2.4-1.1,1.7-3.4,2.1-5.3.9-1.9-1.2-2.5-3.5-1.4-5.2.5-.8,1.2-1.3,2-1.4l-.6-.4,1.2-1.9Zm1.9,3.9c-.9-.6-1.9-.4-2.5.5s-.4,1.9.6,2.5,1.9.4,2.5-.5c.6-.9.4-1.9-.6-2.5Z"/><path d="m175.6,310.1l1.9,1.9c.5.5.9.1,1.6-.6l1.4,1.5c-1.9,2.3-3.1,2.2-4.6.7l-1.9-1.9-.9.8-1.5-1.5.9-.8-1-1,1.1-2.1,1.5,1.5,1.1-1.1,1.5,1.5-1.1,1.1Z"/><path d="m178.5,309.5c-1.2-1.9-.7-4.2,1.2-5.5,1.2-.8,2.7-.8,3.9-.2l-1,2c-.5-.3-1.1-.3-1.7,0-.8.5-1,1.5-.5,2.4.6.9,1.5,1.1,2.4.5.6-.4.8-.9.8-1.5h2.3c0,1.2-.6,2.5-1.8,3.3-1.9,1.2-4.3.7-5.5-1.2v.2Z"/><path d="m192.4,301.9l1.4,4.4-2.1.7-1.3-4.1c-.3-.9-1-1.1-1.7-.9-.8.3-1.2.9-.8,1.9l1.3,3.9-2.1.7-3.3-10,2.1-.7,1.2,3.5c.2-.7.8-1.2,1.8-1.5,1.4-.5,3,.1,3.6,2.1h-.1Z"/><path d="m194.5,300.6l5.7-.4.2,2.2-5.7.4-.2-2.2Z"/><path d="m205.7,304.6c.6.1,1.2,0,1.5-.3l1.6,1.3c-.9.9-2.1,1.2-3.5,1-2.5-.4-3.8-2.4-3.4-4.6.4-2.2,2.3-3.6,4.6-3.2,2.2.4,3.5,2.3,3.1,4.6,0,.3,0,.6-.2.9l-5.2-.9c0,.8.8,1.2,1.6,1.3h0Zm1.8-2.5c0-.9-.7-1.3-1.4-1.4-.8-.1-1.5.2-1.8.9l3.2.5Z"/><path d="m213.4,308.9l-.5-2.4-2.1,1.3-2.4-1,4-2.4-.9-4.4,2.4,1,.5,2.2,1.9-1.2,2.4,1-3.9,2.3.9,4.6-2.4-1h0Z"/><path d="m221.3,307.6l-1.5,2.2c-.4.5,0,.9.9,1.4l-1.2,1.7c-2.6-1.5-2.7-2.7-1.5-4.4l1.5-2.2-1-.7,1.3-1.8,1,.7.8-1.2,2.2.8-1.2,1.7,1.3.9-1.3,1.8s-1.3-.9-1.3-.9Z"/><path d="m223.9,314.7c.4.5.9.7,1.4.7l.4,2c-1.2.1-2.4-.3-3.3-1.4-1.7-1.9-1.5-4.2,0-5.7,1.7-1.5,4-1.5,5.6.3,1.5,1.6,1.3,4-.4,5.5-.2.2-.5.4-.7.5l-3.6-3.9c-.4.7,0,1.4.4,2h0Zm2.9-.8c.5-.8.3-1.5-.2-2-.6-.6-1.3-.8-2-.4l2.2,2.4Z"/><path d="m234.2,319.4l-2.2,1.3c-.3-.9-1.3-1.8-2.6-1.1l-2.9,1.7-1.1-1.9,6.5-3.8,1.1,1.9-1.2.7c1-.2,1.9.4,2.4,1.2Z"/><path d="m234.4,329.1l-4.4,1.4-.7-2.1,4.1-1.3c.9-.3,1.1-1,.9-1.7-.2-.8-.9-1.2-1.9-.9l-3.9,1.2-.7-2.1,7.2-2.3.7,2.1-.7.2c.7.2,1.2.8,1.5,1.8.5,1.4-.2,3-2.1,3.6h0Z"/><path d="m237.9,338.8l-7.5.2v-2.2h.6c-.6-.5-1-1.2-1-2.2,0-2,1.6-3.6,3.8-3.7,2.2,0,4,1.5,4.1,3.5,0,1-.3,1.8-.8,2.3h.7v2.2h.1Zm-3.8-2.1c1.1,0,1.8-.8,1.8-1.8s-.8-1.8-1.9-1.7-1.8.8-1.8,1.8.8,1.8,1.9,1.7Z"/><path d="m240.9,342l-.4,2.2-10.8-1.8.4-2.2,10.8,1.8Z"/><path class="cls-19" d="m209.5,362.1c-1,2.4-2.1,4.7-3.1,7.1-.4.8-1.1,1.2-1.9,1.5h-12.7c-1.2-.4-1.9-1.2-2.4-2.4-.8-1.9-1.7-3.8-2.5-5.7,0,0,0-.3-.2-.5h22.9,0Z"/><path class="cls-9" d="m209.5,362.1h-22.9c-.7,0-1.4,0-2,0-2.3-.5-3.8-2.4-3.8-5v-28.2c0-2.4,1.2-4.1,3.3-4.8.6-.2,1.1-.2,1.7-.2h23.7c.7,0,1.3,0,2,0,2.1.4,3.7,2.3,3.8,4.4v28.7c0,2.5-1.5,4.4-3.8,4.9-.7,0-1.3,0-2,0h0Zm.6-34.5h-24.2c-1,0-1.2.2-1.2,1.2v26.5c-.2.6-.2,1.1,0,1.7.2,1,.3,1.1,1.4,1.1h24.1c1,0,1.3-.3,1.3-1.3v-28.3c0-.6-.6-1-1.3-.9h-.2.1Z"/><path class="cls-19" d="m209.5,323.8h-22.9c.7-1.6,1.4-3.2,2.1-4.9.3-.6.5-1.3.8-1.9.6-1.2,1.5-1.8,2.9-1.8h11.3c1.2,0,2.1.5,2.6,1.5,1.1,2.3,2.1,4.7,3.1,7.1h.1Z"/><path class="cls-22" d="m215.3,337.2v-8.6h1.8c1.1,0,2,.8,2.1,2v4.7c0,1.2-.9,2-2.1,2h-1.8Z"/><path class="cls-7" d="m210.1,327.7c.6-.2,1.2.2,1.4.8v28.5c0,1-.3,1.3-1.3,1.3h-24.1c-1.1,0-1.2,0-1.4-1.1,0-.6-.2-1.1,0-1.7.3-.6,0-1.2.2-1.9.2-1.4.4-2.8.7-4.2.4-2,1-4,1.8-5.9,1.2-2.8,2.9-5.4,5-7.6,1.5-1.6,3.3-3,5.2-4.1,3.2-1.9,6.8-3.2,10.5-3.8.7,0,1.3,0,2-.3h0Zm-11,10.2v-4.4c0-.6-.4-1-.9-1s-1,.3-1,1v9.2c0,.5.2,1,.5,1.3,2.1,2,4.1,4.1,6.2,6.2s.3.3.4.4c.4.3,1,.2,1.3-.3.2-.3.2-.7,0-1,0-.2-.3-.3-.4-.4-1.9-1.9-3.9-3.9-5.8-5.8s-.3-.5-.3-.8v-4.3h0Z"/><path class="cls-8" d="m210.1,327.7c-.6.2-1.3.2-2,.3-3.7.6-7.3,1.9-10.5,3.8-1.9,1.1-3.7,2.5-5.2,4.1-2.1,2.2-3.8,4.8-5,7.6-.8,1.9-1.4,3.9-1.8,5.9-.3,1.4-.5,2.8-.7,4.2,0,.6,0,1.3-.2,1.9v-26.5c0-1,.2-1.2,1.2-1.2h24.2Z"/><path class="cls-6" d="m199,337.8v4.3c0,.3,0,.6.3.8l5.8,5.8.4.4c.3.4.2,1-.3,1.3-.3.2-.7.2-1,0-.2,0-.3-.2-.4-.4l-6.2-6.2c-.4-.3-.6-.8-.5-1.3v-8.8c0-3,0-.3,0-.4,0-.6.4-1,1-1s.9.4.9,1v4.4h0Z"/></svg>