<svg width="48" height="67" viewBox="0 0 48 67" fill="none" xmlns="http://www.w3.org/2000/svg">
<path d="M45.9991 3.69795L45.999 3.69786L45.9918 3.70741C45.3098 4.61638 44.6292 5.52601 43.9487 6.43539C41.503 9.70408 39.0597 12.9695 36.5629 16.1891C33.6646 19.9203 30.7078 23.607 27.6924 27.2493C26.2742 28.9599 24.5942 30.2629 22.4719 30.7466C19.9739 31.3154 17.7672 30.6002 15.6751 29.0513L15.6751 29.0513C14.4484 28.1432 13.6279 26.845 12.764 25.4613C9.96041 20.9637 7.1806 16.4478 4.42458 11.9137C3.58836 10.5364 2.79633 9.13537 1.99968 7.72619C1.65141 7.11015 1.30226 6.49254 0.948146 5.87467L0.948099 5.87459C0.88892 5.77137 0.83441 5.66734 0.78911 5.56689L0.789142 5.56687L0.786671 5.56156C0.438536 4.8131 0.456567 4.40794 0.563829 4.20615C0.662373 4.02077 0.950378 3.80413 1.72361 3.74566L1.72514 3.74554C7.54389 3.28755 13.3652 2.83712 19.189 2.39425L19.1899 2.39418C24.3334 1.994 29.475 1.60187 34.6124 1.23244L34.6131 1.23239C37.0801 1.05167 39.5463 0.896808 42.016 0.74173C43.19 0.668008 44.3648 0.594238 45.5408 0.51762L45.745 0.504317C45.8086 0.503815 45.8714 0.503184 45.9337 0.502558C46.1959 0.499923 46.4473 0.497396 46.7061 0.505088C47.1313 0.519377 47.3423 0.6784 47.4282 0.824697C47.5135 0.969887 47.5549 1.23777 47.3512 1.64083C46.9584 2.36666 46.5059 3.05497 45.9991 3.69795Z" fill="url(#paint0_linear_3115_3871)" stroke="#B8B9B9"/>
<path d="M36.0064 65.9442L36.0062 65.9442C33.7367 65.5072 31.4793 65.0469 29.2156 64.5854C28.9394 64.5291 28.6631 64.4727 28.3867 64.4164L28.3866 64.4164C25.3277 63.794 22.2689 63.1645 19.21 62.5278C15.6312 61.7827 12.0537 61.027 8.47752 60.2605L8.47061 60.2591L8.46365 60.2578C7.95231 60.1632 7.44963 60.0223 6.96128 59.8365C6.41057 59.6078 6.09448 59.2872 5.95053 58.9347C5.80532 58.5791 5.80225 58.1101 6.03832 57.5236C6.75182 55.7514 7.51282 53.9964 8.27917 52.2364L8.27922 52.2362C8.59167 51.5181 8.90049 50.7999 9.20884 50.0828C10.1544 47.8837 11.0957 45.6947 12.1242 43.5481L12.1251 43.5463C13.027 41.644 14.034 39.7792 15.2109 38.0715L15.211 38.0714C16.2629 36.5441 17.7069 35.7477 19.1741 35.646C20.6421 35.5442 22.1876 36.1341 23.4477 37.4869C24.3992 38.5098 25.2263 39.7013 26.0005 40.9259L26.0005 40.9259C27.2779 42.9456 28.5135 44.9898 29.7523 47.0393C30.26 47.8793 30.7683 48.7202 31.2803 49.5607C34.1425 54.2642 37.0034 58.9646 39.863 63.6618C40.1116 64.0746 40.3335 64.5045 40.5272 64.9487C40.7676 65.5009 40.7081 65.8689 40.5606 66.08C40.4121 66.2924 40.0673 66.5005 39.3953 66.4997C39.1088 66.4538 38.8101 66.408 38.5027 66.3608C37.7086 66.239 36.8564 66.1082 36.0064 65.9442Z" fill="url(#paint1_linear_3115_3871)" stroke="#B8B9B9"/>
<defs>
<linearGradient id="paint0_linear_3115_3871" x1="22" y1="16" x2="22" y2="15.5" gradientUnits="userSpaceOnUse">
<stop stop-color="#B8B9B9"/>
<stop offset="1" stop-color="#51CBC6" stop-opacity="0"/>
</linearGradient>
<linearGradient id="paint1_linear_3115_3871" x1="26" y1="64" x2="22" y2="36.5" gradientUnits="userSpaceOnUse">
<stop offset="0.440625" stop-color="#B8B9B9"/>
<stop offset="0.440725" stop-color="#51CBC6" stop-opacity="0"/>
</linearGradient>
</defs>
</svg>
