<svg width="281" height="287" viewBox="0 0 281 287" fill="none" xmlns="http://www.w3.org/2000/svg">
<g clip-path="url(#clip0_3111_5774)">
<path d="M27.757 148.538L24.6729 146.828V176.572L28.0997 178.281L27.757 148.538Z" fill="#2B2B2B"/>
<path d="M27.757 146.145L24.6729 144.436V146.829L27.757 148.538V146.145Z" fill="#BABBBB"/>
<path d="M27.757 134.52L24.6729 132.811V144.434L27.757 146.144V134.52Z" fill="#2B2B2B"/>
<path d="M27.7572 146.145L24.6731 144.436L12.6792 150.931L15.7633 152.641L27.7572 146.145Z" fill="#2B2B2B"/>
<path d="M15.7633 152.641L12.6792 150.932V153.325L15.7633 155.034V152.641Z" fill="#BABBBB"/>
<path d="M15.7632 152.64V155.033L27.7571 148.538V146.145L15.7632 152.64Z" fill="#231F20"/>
<path d="M13.7072 139.991L10.623 137.939V184.093L13.7072 186.145V139.991Z" fill="#414042"/>
<path d="M13.707 139.99V186.144L16.1058 184.777L15.7631 155.033V152.64V141.016L27.757 134.52V146.144V148.537L28.0997 178.281L30.1558 177.255L29.8131 131.102L13.707 139.99Z" fill="#231F20"/>
<path d="M29.8133 131.102L26.7291 129.051L10.623 137.94L13.7072 139.991L29.8133 131.102Z" fill="#414042"/>
<path d="M16.7915 158.111L0 148.538V103.41L16.4488 112.983L16.7915 158.111Z" fill="#E6E7E8"/>
<path d="M16.4488 112.982L0 103.409L22.2744 90.418L39.0659 99.9906L16.4488 112.982Z" fill="#F1F2F2"/>
<path d="M39.0658 99.9902V145.118L16.7914 158.11L16.4487 112.982L39.0658 99.9902Z" fill="#D5D7E3"/>
<path d="M6.85341 114.691C9.25219 116.059 10.9656 119.135 10.9656 121.87C10.9656 124.606 9.25219 125.631 6.85341 124.264C4.45463 122.896 2.74121 119.819 2.74121 117.084C2.74121 114.349 4.79731 113.323 6.85341 114.691Z" fill="#2B2B2B"/>
<path d="M9.93759 121.871C9.93759 122.555 9.93759 122.896 9.59491 123.238C9.25222 123.922 8.56686 124.264 7.88149 124.606C7.19613 124.948 6.51076 124.948 6.16808 124.948C3.42661 124.948 1.02783 122.555 1.02783 119.82C1.02783 118.11 1.7132 116.743 2.74125 115.717C3.42661 115.375 3.7693 115.375 4.11198 115.033C4.79734 115.033 5.48271 115.033 6.16808 115.375C8.22417 116.743 9.93759 119.478 9.93759 121.871Z" fill="#FE5236"/>
<path d="M6.85347 128.366C7.88152 129.05 8.90957 130.759 8.90957 132.127C8.90957 133.494 7.88152 134.178 6.85347 133.494C5.82542 132.81 4.79737 131.101 4.79737 129.733C4.45469 128.366 5.48274 127.682 6.85347 128.366Z" fill="#2B2B2B"/>
<path d="M7.19624 136.229C8.22429 136.913 9.25234 138.622 9.25234 139.99C9.25234 141.357 8.22429 142.041 7.19624 141.357C6.1682 140.674 5.14015 138.964 5.14015 137.597C4.79746 136.229 5.82551 135.545 7.19624 136.229Z" fill="#2B2B2B"/>
<path d="M7.19624 144.092C8.22429 144.776 9.25234 146.486 9.25234 147.853C9.25234 149.221 8.22429 149.904 7.19624 149.221C6.1682 148.537 5.14015 146.828 5.14015 145.46C4.79746 144.092 5.82551 143.409 7.19624 144.092Z" fill="#2B2B2B"/>
<path d="M18.5049 222.727L22.6171 220.334V258.283L18.5049 260.676V222.727Z" fill="#D5D7E3"/>
<path d="M18.5049 219.649L22.6171 217.256V220.333L18.5049 222.726V219.649Z" fill="#BABBBB"/>
<path d="M18.5049 204.608L22.6171 202.557V217.257L18.5049 219.651V204.608Z" fill="#D5D7E3"/>
<path d="M18.5049 219.649L22.6171 217.256L65.4524 242.213L61.6829 244.264L18.5049 219.649Z" fill="#D5D7E3"/>
<path d="M61.6826 244.266L65.4521 242.215V245.292L61.6826 247.343V244.266Z" fill="#BABBBB"/>
<path d="M61.6829 244.266V247.343L18.5049 222.727V219.65L61.6829 244.266Z" fill="#F8FBFF"/>
<path d="M64.4242 227.856L68.1937 225.805V284.608L64.0815 287.001L64.4242 227.856Z" fill="#D5D7E3"/>
<path d="M64.4242 227.854L64.0815 287L61.6827 285.29V247.342V244.265V229.564L18.5046 204.607V219.649V222.726V260.675L15.7632 258.966L16.1059 200.162L64.4242 227.854Z" fill="#F8FBFF"/>
<path d="M16.106 200.163L19.8755 197.77L68.1938 225.804L64.4242 227.855L16.106 200.163Z" fill="#D0D1D1"/>
<path d="M86.356 183.752L90.1255 181.701V219.308L86.356 221.701V183.752Z" fill="#D5D7E3"/>
<path d="M86.356 180.674L90.1255 178.623V181.7L86.356 183.751V180.674Z" fill="#BABBBB"/>
<path d="M86.356 165.975L90.4681 163.582L90.1255 178.625L86.356 180.676V165.975Z" fill="#BABBBB"/>
<path d="M86.356 180.674L90.1255 178.623L133.304 203.238L129.191 205.632L86.356 180.674Z" fill="#D5D7E3"/>
<path d="M129.191 205.633L133.303 203.24V206.317L129.191 208.71V205.633Z" fill="#BABBBB"/>
<path d="M129.191 205.633V208.71L86.356 183.753V180.676L129.191 205.633Z" fill="#F8FBFF"/>
<path d="M131.933 189.221L136.045 186.828L135.702 245.632L131.933 248.025V189.221Z" fill="#D5D7E3"/>
<path d="M131.933 189.222V248.025L129.191 246.658V208.709V205.632L129.534 190.589L86.3557 165.974V180.675V183.752V221.7L83.6143 220.333V161.188L131.933 189.222Z" fill="#F8FBFF"/>
<path d="M83.6143 161.188L87.7265 159.137L136.045 186.829L131.933 189.222L83.6143 161.188Z" fill="#D0D1D1"/>
<path d="M153.865 145.12L157.977 142.727V180.675L153.865 183.068V145.12Z" fill="#D5D7E3"/>
<path d="M153.865 142.042L157.977 139.648V142.725L153.865 145.119V142.042Z" fill="#BABBBB"/>
<path d="M154.207 127.001L157.977 124.949V139.65L153.865 142.043L154.207 127.001Z" fill="#BABBBB"/>
<path d="M153.865 142.042L157.977 139.648L201.155 164.606L197.043 166.657L153.865 142.042Z" fill="#D5D7E3"/>
<path d="M197.042 166.659L201.155 164.607V167.684L197.042 169.736V166.659Z" fill="#BABBBB"/>
<path d="M197.043 166.658V169.735L153.865 145.12V142.043L197.043 166.658Z" fill="#F8FBFF"/>
<path d="M199.784 150.249L203.554 148.197V207.001L199.441 209.394L199.784 150.249Z" fill="#D5D7E3"/>
<path d="M199.784 150.247L199.441 209.392L197.043 207.683V169.734V166.657V151.956L154.207 126.999L153.865 142.042V145.119V183.068L151.123 181.358L151.466 122.555L199.784 150.247Z" fill="#F8FBFF"/>
<path d="M151.466 122.555L155.235 120.162L203.554 148.196L199.784 150.248L151.466 122.555Z" fill="#D0D1D1"/>
<path d="M221.715 106.145L225.828 104.094L225.485 141.701L221.715 144.094V106.145Z" fill="#D5D7E3"/>
<path d="M221.715 103.067L225.828 101.016V104.093L221.715 106.144V103.067Z" fill="#BABBBB"/>
<path d="M221.715 88.3678L225.828 85.9746V101.017L221.715 103.069V88.3678Z" fill="#BABBBB"/>
<path d="M221.715 103.067L225.828 101.016L268.663 125.631L264.893 128.024L221.715 103.067Z" fill="#D5D7E3"/>
<path d="M264.894 128.026L268.663 125.633V128.71L264.894 131.103V128.026Z" fill="#BABBBB"/>
<path d="M264.893 128.026V131.103L221.715 106.145V103.068L264.893 128.026Z" fill="#F8FBFF"/>
<path d="M267.292 111.614L271.405 109.221V168.024L267.292 170.417V111.614Z" fill="#D5D7E3"/>
<path d="M267.292 111.614V170.418L264.551 169.05L264.894 131.101V128.025V112.982L221.716 88.3664V103.067V106.144V144.093L218.974 142.725V83.5801L267.292 111.614Z" fill="#F8FBFF"/>
<path d="M218.974 83.5806L223.086 81.5293L271.405 109.222L267.292 111.615L218.974 83.5806Z" fill="#D0D1D1"/>
<path d="M61.6831 228.539L0.685547 193.325L217.947 69.2227L278.944 104.436L61.6831 228.539Z" fill="#E6E7E8"/>
<path d="M61.6831 231.959L0.685547 196.745V193.326L61.6831 228.54V231.959Z" fill="#D5D7E3"/>
<path d="M61.6831 228.538L278.944 104.436V107.854L61.6831 231.957V228.538Z" fill="#D5D7E3"/>
<path d="M279.286 87.6828C279.286 87.3409 279.286 87.3409 279.286 86.999V86.6571C279.286 86.3152 279.286 85.6315 279.286 85.2896C279.286 81.187 277.916 78.452 275.517 77.0845L230.968 51.1016C233.367 52.4691 234.738 55.2041 234.738 59.3067C234.738 59.6486 234.738 60.3323 234.738 60.6742V61.0161C234.738 61.358 234.738 61.6999 234.738 62.0417C234.738 62.3836 234.738 62.7255 234.738 63.0674C234.738 63.4093 234.738 63.4093 234.738 63.7511C234.738 64.093 234.738 64.093 234.738 64.4349C234.738 64.7768 234.738 65.1187 234.395 65.4605V65.8024C234.395 66.1443 234.052 66.4862 234.052 66.8281V67.1699C234.052 67.5118 233.71 68.1956 233.367 68.5375C233.024 68.8793 233.024 69.2212 232.682 69.5631C232.682 69.5631 232.682 69.905 232.339 69.905C231.996 70.2469 231.996 70.5887 231.654 70.9306C231.654 70.9306 231.654 70.9306 231.654 71.2725C231.311 71.6144 231.311 71.9563 230.968 72.64C230.968 72.64 230.968 72.9819 230.626 72.9819C229.597 72.9819 229.597 73.3238 229.255 73.6657L228.912 74.0075C228.569 74.3494 228.569 74.3494 228.227 74.6913C228.227 75.0332 227.884 75.0332 227.884 75.3751C227.884 75.7169 227.541 75.7169 227.541 76.0588C227.199 76.4007 226.856 76.7426 226.856 77.0845C226.513 77.0845 226.171 77.0845 226.171 77.4263L225.828 77.7682C225.485 78.1101 225.485 78.1101 225.143 78.452L224.8 78.7939C224.457 79.1358 224.457 79.1358 224.115 79.4776L223.772 79.8195C223.429 80.1614 223.087 80.5033 222.744 80.5033L18.1621 197.768C17.8194 198.11 17.4767 198.11 17.1341 198.452H16.7914C16.4487 198.452 16.4487 198.452 16.106 198.794C15.7633 198.794 15.4206 199.136 15.078 199.136C14.7353 199.136 14.7353 199.136 14.3926 199.136H14.0499C13.7072 199.136 13.7072 199.136 13.3645 199.136H13.0219C12.6792 199.136 12.3365 199.136 12.3365 199.136C12.3365 199.136 12.3365 199.136 11.9938 199.136C11.6511 199.136 11.3084 199.136 10.9658 199.136C10.9658 199.136 10.9658 199.136 10.6231 199.136C10.2804 199.136 10.2804 199.136 9.93772 198.794C9.93772 198.794 9.93772 198.794 9.59503 198.794C9.25235 198.794 8.90967 198.452 8.90967 198.452L54.4865 224.777C54.8292 224.777 54.8292 225.119 55.1719 225.119C55.1719 225.119 55.1719 225.119 55.5145 225.119H55.8572H56.1999C56.1999 225.119 56.1999 225.119 56.5426 225.119C56.8853 225.119 56.8853 225.119 57.228 225.119C57.228 225.119 57.228 225.119 57.5706 225.119C57.9133 225.119 57.9133 225.119 58.256 225.119C58.256 225.119 58.256 225.119 58.5987 225.119H58.9414H59.2841H59.6267H59.9694H60.3121H60.6548C60.9975 225.119 61.3402 224.777 61.6828 224.777H62.0255H62.3682H62.7109C63.0536 224.435 63.3963 224.435 63.7389 224.093L267.293 106.144C267.635 105.802 267.978 105.802 268.321 105.461L268.663 105.119C269.006 104.777 269.349 104.777 269.349 104.435L269.691 104.093C270.034 103.751 270.034 103.751 270.377 103.409L270.719 103.067C270.719 103.067 271.062 103.067 271.062 102.725L271.405 102.384C271.747 102.042 272.09 101.7 272.09 101.358L272.433 101.016C272.433 101.016 272.433 101.016 272.776 100.674C272.776 100.332 273.118 100.332 273.118 99.9905L273.461 99.6486C273.461 99.6486 273.461 99.3067 273.804 99.3067L274.146 98.9648C274.146 98.9648 274.146 98.6229 274.489 98.6229C274.489 98.2811 274.832 98.2811 274.832 97.9392C274.832 97.9392 274.832 97.5973 275.174 97.5973C275.517 97.2554 275.517 96.9135 275.86 96.5717C275.86 96.5717 275.86 96.5717 275.86 96.2298C275.86 95.8879 276.202 95.8879 276.202 95.546C276.202 95.546 276.202 95.2041 276.545 95.2041C276.545 95.2041 276.545 94.8623 276.888 94.8623V94.5204C276.888 94.1785 277.23 93.8366 277.23 93.4947C277.23 93.1529 277.573 92.811 277.573 92.4691C277.573 92.4691 277.573 92.4691 277.573 92.1272V91.7853C277.573 91.4434 277.573 91.4434 277.916 91.1016V90.7597V90.4178V90.0759C277.916 89.734 277.916 89.734 277.916 89.3922C277.916 89.0503 277.916 89.0503 277.916 88.7084C277.916 88.7084 277.916 88.7084 277.916 88.3665V88.0246C278.944 88.3665 279.286 88.0246 279.286 87.6828Z" fill="#231F20"/>
<path d="M82.2438 209.736L50.3742 190.932L49.3462 188.881L81.2157 207.342L82.2438 209.736Z" fill="#6D6E71"/>
<path d="M89.0976 189.223L56.8854 170.762C57.9135 171.445 58.9415 172.813 58.9415 174.864C58.9415 175.206 58.9415 175.548 58.9415 175.89V176.232C58.9415 176.574 58.9415 176.574 58.9415 176.916V177.257V177.599V177.941V178.283C58.9415 178.625 58.9415 178.625 58.5988 178.967C58.5988 178.967 58.5988 178.967 58.5988 179.309C58.5988 179.651 58.2562 179.651 58.2562 179.992C58.2562 180.334 57.9135 180.334 57.9135 180.676C57.9135 180.676 57.9135 180.676 57.9135 181.018C57.9135 181.36 57.5708 181.36 57.5708 181.702C57.5708 182.044 57.2281 182.044 57.2281 182.386C57.2281 182.386 57.2281 182.386 57.2281 182.728L56.8854 183.069C56.8854 183.069 56.8854 183.069 56.5427 183.411L56.2001 183.753C56.2001 183.753 56.2001 184.095 55.8574 184.095C55.8574 184.095 55.8574 184.437 55.5147 184.437L55.172 184.779C55.172 184.779 55.172 184.779 54.8293 185.121C54.4867 185.463 54.144 185.804 53.8013 185.804C53.8013 185.804 53.8013 185.804 53.4586 185.804C53.1159 186.146 52.7732 186.146 52.4306 186.488C52.0879 186.488 51.7452 186.83 51.7452 186.83H51.4025H51.0598H50.7171H50.3745H50.0318C50.0318 186.83 50.0318 186.83 49.6891 186.83H49.3464H49.0037H48.661C48.661 186.83 48.3184 186.83 48.3184 186.488L80.5306 204.95H80.8732C80.8732 204.95 80.8732 204.95 81.2159 204.95C81.2159 204.95 81.2159 204.95 81.5586 204.95H81.9013H82.244C82.244 204.95 82.244 204.95 82.5867 204.95C82.5867 204.95 82.5867 204.95 82.9293 204.95H83.272H83.6147C83.9574 204.95 84.3001 204.608 84.3001 204.608C84.6427 204.266 84.9854 204.266 85.3281 203.924C85.3281 203.924 85.3281 203.924 85.6708 203.924C86.0135 203.582 86.3562 203.24 86.6988 203.24L87.0415 202.898L87.3842 202.557C87.3842 202.557 87.3842 202.557 87.3842 202.215C87.3842 202.215 87.3842 202.215 87.3842 201.873C87.3842 201.873 87.3842 201.873 87.7269 201.531C87.7269 201.531 87.7269 201.189 88.0696 201.189C88.0696 201.189 88.0696 201.189 88.0696 200.847C88.0696 200.505 88.4123 200.505 88.4123 200.163C88.4123 200.163 88.4123 199.822 88.7549 199.822C88.7549 199.822 88.7549 199.822 88.7549 199.48C88.7549 199.48 88.7549 199.48 88.7549 199.138C88.7549 199.138 88.7549 199.138 88.7549 198.796C88.7549 198.796 88.7549 198.454 89.0976 198.454C89.0976 198.112 89.0976 198.112 89.4403 197.77C89.4403 197.77 89.4403 197.77 89.4403 197.428V197.087C89.4403 197.087 89.4403 197.087 89.4403 196.745V196.403V196.061V195.719C89.4403 195.719 89.4403 195.719 89.4403 195.377C89.4403 195.035 89.4403 195.035 89.4403 194.693C89.4403 194.351 89.4403 194.01 89.4403 193.668C91.1537 191.275 90.4684 189.907 89.0976 189.223Z" fill="#767D84"/>
<path d="M89.0975 187.171L57.228 168.709L59.6268 166.658L91.839 185.462L89.0975 187.171Z" fill="#E6E7E8"/>
<path d="M77.1037 209.392L45.2342 190.589L42.8354 187.512L75.0476 205.973L77.1037 209.392Z" fill="#6D6E71"/>
<path d="M75.0476 205.974L42.8354 187.512L44.5489 184.436L76.4184 202.897L75.0476 205.974Z" fill="#A8A9AC"/>
<path d="M80.5304 191.616C80.8731 191.274 80.8731 190.932 81.2157 190.932L49.0035 172.471L48.6609 172.813L48.3182 173.154C48.3182 173.154 48.3182 173.496 47.9755 173.496C47.9755 173.838 47.6328 173.838 47.6328 174.18L79.845 192.642C79.845 192.3 80.1877 191.958 80.5304 191.616Z" fill="#BEC0C2"/>
<path d="M89.0975 187.171L56.8853 168.709H56.5426H56.1999C55.8572 168.709 55.8572 168.709 55.5146 168.709C55.5146 168.709 55.5146 168.709 55.1719 168.709L87.3841 187.171C87.7267 187.171 88.0694 187.171 88.0694 187.171C88.7548 187.171 89.0975 187.171 89.0975 187.171Z" fill="#A0A2A4"/>
<path d="M82.2439 187.513L50.0317 168.71L54.4866 166.316L86.6988 184.778L82.2439 187.513Z" fill="#E6E7E8"/>
<path d="M81.2157 190.589L49.3462 172.128L50.0316 168.709L82.2438 187.512L81.2157 190.589Z" fill="#939598"/>
<path d="M76.4183 201.872C76.4183 201.53 76.4183 201.189 76.4183 200.847L74.7049 199.479L42.4927 181.018L44.2061 182.385C44.2061 182.727 44.2061 183.069 44.2061 183.411C44.2061 183.753 44.2061 184.095 44.2061 184.436L76.4183 202.898C76.4183 202.556 76.4183 202.214 76.4183 201.872Z" fill="#737477"/>
<path d="M77.1039 193.667L45.2344 175.205L47.6332 174.18L79.8453 192.641L77.1039 193.667Z" fill="#F1F2F2"/>
<path d="M75.0476 199.479L42.8354 180.675L45.2342 175.205L77.1037 193.667L75.0476 199.479Z" fill="#9EA0A2"/>
<path d="M84.6425 204.948C88.412 202.897 91.1535 197.769 91.1535 193.666C91.1535 189.564 88.0693 187.854 84.6425 189.905C80.873 191.957 78.1315 197.085 78.1315 201.187C77.7888 205.29 80.873 206.999 84.6425 204.948ZM92.5242 192.64C92.5242 192.982 92.5242 193.324 92.5242 193.666L94.2376 195.034L91.8388 200.846L89.44 201.871C89.0974 202.555 88.412 203.239 87.7266 203.922L86.6986 207.341L82.2437 209.734L81.2157 207.683C80.5303 207.683 80.1876 207.683 79.5022 207.683L77.1035 209.734L75.0474 206.658L76.7608 203.581C76.7608 203.239 76.7608 202.897 76.7608 202.555C76.7608 202.213 76.7608 201.871 76.7608 201.529L75.0474 200.162L77.1035 194.35L79.5022 193.324C79.8449 192.64 80.5303 191.957 81.2157 191.273L82.2437 187.854L86.6986 185.461L87.7266 187.512C88.412 187.512 88.7547 187.512 89.44 187.512L91.8388 185.461L93.8949 188.538L92.5242 191.615C92.5242 191.957 92.5242 192.299 92.5242 192.64Z" fill="#D5D7E3"/>
<path d="M60.6549 222.386L28.7854 203.924L27.7573 201.873L59.6268 220.335L60.6549 222.386Z" fill="#6D6E71"/>
<path d="M67.5088 201.874L35.2966 183.412C36.3246 184.096 37.3527 185.463 37.3527 187.515C37.3527 187.857 37.3527 188.198 37.3527 188.54V188.882C37.3527 189.224 37.3527 189.224 37.3527 189.566V189.908V190.25V190.592V190.933C37.3527 191.275 37.3527 191.275 37.01 191.617C37.01 191.617 37.01 191.617 37.01 191.959C37.01 192.301 36.6673 192.301 36.6673 192.643C36.6673 192.985 36.3246 192.985 36.3246 193.327C36.3246 193.327 36.3246 193.327 36.3246 193.669C36.3246 194.01 35.9819 194.01 35.9819 194.352C35.9819 194.694 35.6392 194.694 35.6392 195.036C35.6392 195.036 35.6392 195.036 35.6392 195.378L35.2966 195.72C35.2966 195.72 35.2966 195.72 34.9539 196.062L34.6112 196.404C34.6112 196.404 34.6112 196.745 34.2685 196.745C34.2685 196.745 34.2685 197.087 33.9258 197.087L33.5832 197.429C33.5832 197.429 33.5831 197.429 33.2405 197.771C32.8978 198.113 32.5551 198.455 32.2124 198.455C32.2124 198.455 32.2124 198.455 31.8697 198.455C31.5271 198.797 31.1844 198.797 30.8417 199.139C30.499 199.139 30.1563 199.48 30.1563 199.48H29.8136H29.471H29.1283H28.7856H28.4429C28.4429 199.48 28.4429 199.48 28.1002 199.48H27.7575H27.4149H27.0722C27.0722 199.48 26.7295 199.48 26.7295 199.139L58.9417 217.6H59.2844C59.2844 217.6 59.2844 217.6 59.6271 217.6C59.6271 217.6 59.6271 217.6 59.9697 217.6H60.3124H60.6551C60.6551 217.6 60.6551 217.6 60.9978 217.6C60.9978 217.6 60.9978 217.6 61.3405 217.6H61.6832H62.0258C62.3685 217.6 62.7112 217.258 62.7112 217.258C63.0539 216.916 63.3966 216.916 63.7393 216.574C63.7393 216.574 63.7393 216.574 64.0819 216.574C64.4246 216.233 64.7673 215.891 65.11 215.891L65.4527 215.549L65.7953 215.207C65.7953 215.207 65.7953 215.207 65.7953 214.865C65.7953 214.865 65.7953 214.865 65.7953 214.523C65.7953 214.523 65.7953 214.523 66.138 214.181C66.138 214.181 66.138 213.839 66.4807 213.839C66.4807 213.839 66.4807 213.839 66.4807 213.498C66.4807 213.156 66.8234 213.156 66.8234 212.814C66.8234 212.814 66.8234 212.472 67.1661 212.472C67.1661 212.472 67.1661 212.472 67.1661 212.13C67.1661 212.13 67.1661 212.13 67.1661 211.788C67.1661 211.788 67.1661 211.788 67.1661 211.446C67.1661 211.446 67.1661 211.104 67.5088 211.104C67.5088 210.763 67.5088 210.763 67.8514 210.421C67.8514 210.421 67.8514 210.421 67.8514 210.079V209.737C67.8514 209.737 67.8514 209.737 67.8514 209.395V209.053V208.711V208.369C67.8514 208.369 67.8514 208.369 67.8514 208.027C67.8514 207.686 67.8514 207.686 67.8514 207.344C67.8514 207.002 67.8514 206.66 67.8514 206.318C69.5649 204.267 68.8795 202.899 67.5088 201.874Z" fill="#767D84"/>
<path d="M67.5087 200.163L35.6392 181.36L38.0379 179.65L70.2501 198.112L67.5087 200.163Z" fill="#E6E7E8"/>
<path d="M55.5149 222.042L23.6454 203.581L21.2466 200.504L53.4588 218.965L55.5149 222.042Z" fill="#6D6E71"/>
<path d="M53.4588 218.966L21.2466 200.505L22.96 197.086L54.8295 215.889L53.4588 218.966Z" fill="#A8A9AC"/>
<path d="M58.9415 204.266C59.2842 203.925 59.2842 203.583 59.6269 203.583L27.4147 185.121L27.072 185.463L26.7293 185.805C26.7293 185.805 26.7293 186.147 26.3866 186.147C26.3866 186.489 26.0439 186.489 26.0439 186.83L58.2561 205.292C58.2561 205.292 58.5988 204.95 58.9415 204.266Z" fill="#BEC0C2"/>
<path d="M67.5086 200.163L35.2964 181.701H34.9537H34.6111C34.2684 181.701 34.2684 181.701 33.9257 181.701C33.9257 181.701 33.9257 181.701 33.583 181.701L65.7952 200.163C66.1379 200.163 66.4806 200.163 66.4806 200.163C67.1659 199.821 67.5086 199.821 67.5086 200.163Z" fill="#A0A2A4"/>
<path d="M60.6551 200.163L28.4429 181.702L32.8977 178.967L65.1099 197.77L60.6551 200.163Z" fill="#E6E7E8"/>
<path d="M59.6268 203.582L27.7573 185.12L28.4427 181.701L60.6549 200.163L59.6268 203.582Z" fill="#939598"/>
<path d="M54.8294 214.864C54.8294 214.523 54.8294 214.181 54.8294 213.839L53.116 212.471L20.9038 194.01L22.6172 195.377C22.6172 195.719 22.6172 196.061 22.6172 196.403C22.6172 196.745 22.6172 197.087 22.6172 197.429L54.8294 215.89C54.8294 215.548 54.8294 215.206 54.8294 214.864Z" fill="#737477"/>
<path d="M55.515 206.659L23.6455 187.856L26.0443 186.83L58.2565 205.633L55.515 206.659Z" fill="#F1F2F2"/>
<path d="M53.4588 212.129L21.2466 193.667L23.6454 187.855L55.5149 206.659L53.4588 212.129Z" fill="#9EA0A2"/>
<path d="M63.0537 217.598C66.8232 215.547 69.5647 210.419 69.5647 206.316C69.5647 202.214 66.4805 200.504 63.0537 202.556C59.2842 204.607 56.5427 209.735 56.5427 213.838C56.2001 218.282 59.2842 219.992 63.0537 217.598ZM70.9354 205.633C70.9354 205.975 70.9354 206.316 70.9354 206.658L72.6488 208.026L70.5927 213.838L68.194 214.863C67.8513 215.547 67.1659 216.231 66.4805 216.915L65.4525 220.333L60.9976 222.727L59.9696 220.675C59.2842 220.675 58.9415 220.675 58.2561 220.675L55.8574 222.727L53.8013 219.65L55.5147 216.573C55.5147 216.231 55.5147 215.889 55.5147 215.547C55.5147 215.205 55.5147 214.863 55.5147 214.522L53.8013 213.154L55.8574 207.342L58.2561 206.316C58.5988 205.633 59.2842 204.949 59.9696 204.265L60.9976 200.846L65.4525 198.453L66.4805 200.504C67.1659 200.504 67.5086 200.504 68.194 200.504L70.5927 198.453L72.6488 201.53L70.9354 204.607C70.9354 204.949 70.9354 205.291 70.9354 205.633Z" fill="#D5D7E3"/>
<path d="M173.397 156.743L141.185 138.282L140.157 135.889L172.369 154.692L173.397 156.743Z" fill="#6D6E71"/>
<path d="M180.251 136.231L148.039 117.77C149.067 118.453 150.095 119.821 150.095 121.872C150.095 122.214 150.095 122.556 150.095 122.898V123.24C150.095 123.581 150.095 123.581 150.095 123.923V124.265V124.607V124.949V125.291C150.095 125.633 150.095 125.633 149.753 125.975C149.753 125.975 149.753 125.975 149.753 126.317C149.753 126.658 149.41 126.658 149.41 127C149.41 127.342 149.067 127.342 149.067 127.684C149.067 127.684 149.067 127.684 149.067 128.026C149.067 128.368 148.725 128.368 148.725 128.71C148.725 129.052 148.382 129.052 148.382 129.393C148.382 129.393 148.382 129.393 148.382 129.735L148.039 130.077C148.039 130.077 148.039 130.077 147.697 130.419L147.354 130.761C147.354 130.761 147.354 131.103 147.011 131.103C147.011 131.103 147.011 131.445 146.669 131.445L146.326 131.787C146.326 131.787 146.326 131.787 145.983 132.129C145.64 132.47 145.298 132.812 144.955 132.812C144.955 132.812 144.955 132.812 144.612 132.812C144.27 133.154 143.927 133.154 143.584 133.496C143.242 133.496 142.899 133.838 142.899 133.838H142.556H142.214H141.871H141.528H141.186C141.186 133.838 141.186 133.838 140.843 133.838H140.5H140.158H139.815C139.815 133.838 139.472 133.838 139.472 133.496L171.684 151.958H172.027C172.027 151.958 172.027 151.958 172.37 151.958C172.37 151.958 172.37 151.958 172.712 151.958H173.055H173.398C173.398 151.958 173.398 151.958 173.74 151.958C173.74 151.958 173.74 151.958 174.083 151.958H174.426H174.769C175.111 151.958 175.454 151.616 175.454 151.616C175.797 151.274 176.139 151.274 176.482 150.932C176.482 150.932 176.482 150.932 176.825 150.932C177.167 150.59 177.51 150.248 177.853 150.248L178.195 149.906L178.538 149.564C178.538 149.564 178.538 149.564 178.538 149.223C178.538 149.223 178.538 149.223 178.538 148.881C178.538 148.881 178.538 148.881 178.881 148.539C178.881 148.539 178.881 148.197 179.223 148.197C179.223 148.197 179.223 148.197 179.223 147.855C179.223 147.513 179.566 147.513 179.566 147.171C179.566 147.171 179.566 146.829 179.909 146.829C179.909 146.829 179.909 146.829 179.909 146.487C179.909 146.487 179.909 146.487 179.909 146.146C179.909 146.146 179.909 146.146 179.909 145.804C179.909 145.804 179.909 145.462 180.251 145.462C180.251 145.12 180.251 145.12 180.594 144.778C180.594 144.778 180.594 144.778 180.594 144.436V144.094C180.594 144.094 180.594 144.094 180.594 143.752V143.411C180.594 143.411 180.594 143.411 180.594 143.069V142.727V142.385C180.594 142.385 180.594 142.385 180.594 142.043C180.594 141.701 180.594 141.701 180.594 141.359C180.594 141.017 180.594 140.676 180.594 140.334C182.308 138.282 181.279 136.915 180.251 136.231Z" fill="#767D84"/>
<path d="M180.251 134.179L148.039 115.717L150.781 113.666L182.65 132.469L180.251 134.179Z" fill="#E6E7E8"/>
<path d="M168.258 156.4L136.045 137.596L133.989 134.52L165.859 153.323L168.258 156.4Z" fill="#6D6E71"/>
<path d="M165.859 153.324L133.989 134.52L135.36 131.443L167.572 149.905L165.859 153.324Z" fill="#A8A9AC"/>
<path d="M171.684 138.624C172.027 138.282 172.027 137.94 172.37 137.94L140.157 119.479L139.815 119.82L139.472 120.162C139.472 120.162 139.472 120.504 139.129 120.504C139.129 120.846 138.787 120.846 138.787 121.188L170.999 139.649C170.999 139.308 171.341 139.308 171.684 138.624Z" fill="#BEC0C2"/>
<path d="M180.251 134.178L148.039 115.717H147.696H147.354C147.011 115.717 147.011 115.717 146.668 115.717C146.668 115.717 146.668 115.717 146.326 115.717L178.538 134.178C178.881 134.178 179.223 134.178 179.223 134.178C179.909 134.178 179.909 134.178 180.251 134.178Z" fill="#A0A2A4"/>
<path d="M173.397 134.521L141.185 116.059L145.64 113.324L177.852 131.786L173.397 134.521Z" fill="#E6E7E8"/>
<path d="M172.369 137.939L140.157 119.136L141.185 116.059L173.397 134.52L172.369 137.939Z" fill="#939598"/>
<path d="M167.572 148.88C167.572 148.538 167.572 148.196 167.572 147.854L165.859 146.487L133.646 128.025L135.36 129.393C135.36 129.735 135.36 130.077 135.36 130.419C135.36 130.76 135.36 131.102 135.36 131.444L167.572 149.906C167.572 149.564 167.572 149.222 167.572 148.88Z" fill="#737477"/>
<path d="M168.258 140.675L136.045 122.213L138.787 121.188L170.656 139.649L168.258 140.675Z" fill="#F1F2F2"/>
<path d="M165.859 146.486L133.989 128.025L136.045 122.213L168.258 140.674L165.859 146.486Z" fill="#9EA0A2"/>
<path d="M175.454 151.956C179.223 149.905 181.965 144.777 181.965 140.674C181.965 136.571 178.88 134.862 175.454 136.913C171.684 138.965 168.943 144.093 168.943 148.195C168.943 152.298 172.027 154.007 175.454 151.956ZM183.335 139.648C183.335 139.99 183.335 140.332 183.335 140.674L185.049 142.041L182.993 147.853L180.594 148.879C180.251 149.563 179.566 150.247 178.88 150.93L177.852 154.349L173.398 156.742L172.369 154.691C171.684 154.691 171.341 154.691 170.656 154.691L168.257 156.4L166.201 153.324L167.915 150.247C167.915 149.905 167.915 149.563 167.915 149.221C167.915 148.879 167.915 148.537 167.915 148.195L166.201 146.828L168.257 141.016L170.656 139.99C170.999 139.306 171.684 138.623 172.369 137.939L173.398 134.52L177.852 132.127L178.88 134.178C179.566 134.178 179.908 134.178 180.594 134.178L182.993 132.127L185.049 135.204L183.335 138.281C183.335 138.965 183.335 139.306 183.335 139.648Z" fill="#D5D7E3"/>
<path d="M263.866 104.779L231.654 86.317L230.625 83.9238L262.838 102.727L263.866 104.779Z" fill="#6D6E71"/>
<path d="M270.72 84.2662L238.508 65.8047C239.536 66.4884 240.564 67.856 240.564 69.9073C240.564 70.2491 240.564 70.591 240.564 70.9329V71.2748C240.564 71.6167 240.564 71.6167 240.564 71.9585V72.3004V72.6423V72.9842V73.3261C240.564 73.6679 240.564 73.6679 240.221 74.0098C240.221 74.0098 240.221 74.0098 240.221 74.3517C240.221 74.6936 239.878 74.6936 239.878 75.0355C239.878 75.3773 239.536 75.3773 239.536 75.7192C239.536 75.7192 239.536 75.7192 239.536 76.0611C239.536 76.403 239.193 76.403 239.193 76.7449C239.193 77.0867 238.85 77.0867 238.85 77.4286C238.85 77.4286 238.85 77.4286 238.85 77.7705L238.508 78.1124C238.508 78.1124 238.508 78.1124 238.165 78.4543L237.822 78.7961C237.822 78.7961 237.822 79.138 237.479 79.138C237.479 79.138 237.479 79.4799 237.137 79.4799L236.794 79.8218C236.794 79.8218 236.794 79.8218 236.451 80.1637C236.109 80.5055 235.766 80.8474 235.423 80.8474C235.423 80.8474 235.423 80.8474 235.081 80.8474C234.738 81.1893 234.395 81.1893 234.053 81.5312C233.71 81.5312 233.367 81.8731 233.367 81.8731H233.025H232.682H232.339H231.997H231.654C231.654 81.8731 231.654 81.8731 231.311 81.8731H230.968H230.626H230.283C230.283 81.8731 229.94 81.8731 229.94 81.5312L262.153 99.9927H262.495C262.495 99.9927 262.495 99.9927 262.838 99.9927C262.838 99.9927 262.838 99.9927 263.181 99.9927H263.523H263.866C263.866 99.9927 263.866 99.9927 264.209 99.9927C264.209 99.9927 264.209 99.9927 264.551 99.9927H264.894H265.237C265.579 99.9927 265.922 99.6508 265.922 99.6508C266.265 99.309 266.608 99.309 266.95 98.9671C266.95 98.9671 266.95 98.9671 267.293 98.9671C267.636 98.6252 267.978 98.2833 268.321 98.2833L268.664 97.9414L269.006 97.5996C269.006 97.5996 269.006 97.5996 269.006 97.2577C269.006 97.2577 269.006 97.2577 269.006 96.9158C269.006 96.9158 269.006 96.9158 269.349 96.5739C269.349 96.5739 269.349 96.232 269.692 96.232C269.692 96.232 269.692 96.232 269.692 95.8902C269.692 95.5483 270.034 95.5483 270.034 95.2064C270.034 95.2064 270.034 94.8645 270.377 94.8645C270.377 94.8645 270.377 94.8645 270.377 94.5226C270.377 94.5226 270.377 94.5226 270.377 94.1808C270.377 94.1808 270.377 94.1808 270.377 93.8389C270.377 93.8389 270.377 93.497 270.72 93.497C270.72 93.1551 270.72 93.1551 271.062 92.8132C271.062 92.8132 271.062 92.8132 271.062 92.4714V92.1295C271.062 92.1295 271.062 92.1295 271.062 91.7876V91.4457C271.062 91.4457 271.062 91.4457 271.062 91.1038V90.762V90.4201C271.062 90.4201 271.062 90.4201 271.062 90.0782C271.062 89.7363 271.062 89.7363 271.062 89.3944C271.062 89.0525 271.062 88.7107 271.062 88.3688C272.433 86.3175 271.748 84.95 270.72 84.2662Z" fill="#767D84"/>
<path d="M270.72 82.214L238.507 63.7525L241.249 61.7012L273.118 80.5046L270.72 82.214Z" fill="#E6E7E8"/>
<path d="M258.726 104.435L226.514 85.6316L224.458 82.5547L256.327 101.358L258.726 104.435Z" fill="#6D6E71"/>
<path d="M256.327 101.359L224.458 82.5554L225.828 79.4785L258.04 97.9401L256.327 101.359Z" fill="#A8A9AC"/>
<path d="M262.152 86.659C262.495 86.3171 262.495 85.9752 262.838 85.9752L230.626 67.5137L230.283 67.8556L229.94 68.1974C229.94 68.1974 229.94 68.5393 229.598 68.5393C229.598 68.8812 229.255 68.8812 229.255 69.2231L261.467 87.6846C261.467 87.3427 261.467 87.3427 262.152 86.659C261.81 86.659 261.81 86.659 262.152 86.659Z" fill="#BEC0C2"/>
<path d="M270.72 82.2135L238.507 63.752H238.165H237.822C237.479 63.752 237.479 63.752 237.137 63.752C237.137 63.752 237.137 63.752 236.794 63.752L269.006 82.2135C269.349 82.2135 269.692 82.2135 269.692 82.2135C270.034 82.2135 270.377 82.2135 270.72 82.2135Z" fill="#A0A2A4"/>
<path d="M263.523 82.556L231.653 64.0944L236.108 61.3594L267.978 80.1628L263.523 82.556Z" fill="#E6E7E8"/>
<path d="M262.838 85.9741L230.625 67.1707L231.654 64.0938L263.523 82.5553L262.838 85.9741Z" fill="#939598"/>
<path d="M258.04 96.9153C258.04 96.5734 258.04 96.2315 258.04 95.8896L256.327 94.5221L224.115 76.0605L225.828 77.4281C225.828 77.7699 225.828 78.1118 225.828 78.4537C225.828 78.7956 225.828 79.1375 225.828 79.4794L258.04 97.9409C258.04 97.599 258.04 97.2571 258.04 96.9153Z" fill="#737477"/>
<path d="M258.726 88.7098L226.514 70.2483L228.912 69.2227L261.125 87.6842L258.726 88.7098Z" fill="#F1F2F2"/>
<path d="M256.327 94.5215L224.458 76.06L226.514 70.248L258.726 88.7096L256.327 94.5215Z" fill="#9EA0A2"/>
<path d="M265.922 99.9911C269.691 97.9398 272.433 92.8116 272.433 88.709C272.433 84.6065 269.349 82.8971 265.922 84.9484C262.152 86.9996 259.411 92.1278 259.411 96.2304C259.411 100.333 262.152 102.042 265.922 99.9911ZM273.804 87.6834C273.804 88.0253 273.804 88.3672 273.804 88.709L275.517 90.0766L273.461 95.8885L270.719 96.9142C270.377 97.5979 269.691 98.2817 269.006 98.9654L267.978 102.384L263.866 104.777L262.838 102.726C262.152 102.726 261.81 102.726 261.124 102.726L258.726 104.777L256.669 101.7L258.383 98.6236C258.383 98.2817 258.383 97.9398 258.383 97.5979C258.383 97.256 258.383 96.9142 258.383 96.5723L256.669 95.2048L258.726 89.3928L261.124 88.3672C261.467 87.6834 262.152 86.9996 262.838 86.3159L263.866 82.8971L268.321 80.5039L269.349 82.5552C270.034 82.5552 270.377 82.5552 271.062 82.5552L273.461 80.5039L275.517 83.5808L273.804 86.6578C273.804 86.9996 273.804 87.3415 273.804 87.6834Z" fill="#D5D7E3"/>
<path d="M151.123 170.077L118.911 151.616L117.883 149.223L150.095 168.026L151.123 170.077Z" fill="#6D6E71"/>
<path d="M157.977 149.565L125.765 131.104C126.793 131.787 127.821 133.155 127.821 135.206C127.821 135.548 127.821 135.89 127.821 136.232V136.574C127.821 136.915 127.821 136.915 127.821 137.257V137.599V137.941V138.283V138.625C127.821 138.967 127.821 138.967 127.478 139.309C127.478 139.309 127.478 139.309 127.478 139.651C127.478 139.992 127.136 139.992 127.136 140.334C127.136 140.676 126.793 140.676 126.793 141.018C126.793 141.018 126.793 141.018 126.793 141.36C126.793 141.702 126.45 141.702 126.45 142.044C126.45 142.386 126.108 142.386 126.108 142.727C126.108 142.727 126.108 142.727 126.108 143.069L125.765 143.411C125.765 143.411 125.765 143.411 125.422 143.753L125.079 144.095C125.079 144.095 125.079 144.437 124.737 144.437C124.737 144.437 124.737 144.779 124.394 144.779L124.051 145.121C124.051 145.121 124.051 145.121 123.709 145.462C123.366 145.804 123.023 146.146 122.681 146.146C122.681 146.146 122.681 146.146 122.338 146.146C121.995 146.488 121.653 146.488 121.31 146.83C120.967 146.83 120.625 147.172 120.625 147.172H120.282H119.939H119.597H119.254H118.911C118.911 147.172 118.911 147.172 118.568 147.172H118.226H117.883H117.54C117.54 147.172 117.198 147.172 117.198 146.83L149.41 165.292H149.753C149.753 165.292 149.753 165.292 150.095 165.292C150.095 165.292 150.095 165.292 150.438 165.292H150.781H151.123C151.123 165.292 151.123 165.292 151.466 165.292C151.466 165.292 151.466 165.292 151.809 165.292H152.151H152.494C152.837 165.292 153.179 164.95 153.179 164.95C153.522 164.608 153.865 164.608 154.208 164.266C154.208 164.266 154.208 164.266 154.55 164.266C154.893 163.924 155.236 163.582 155.578 163.582L155.921 163.24L156.264 162.898C156.264 162.898 156.264 162.898 156.264 162.557C156.264 162.557 156.264 162.557 156.264 162.215C156.264 162.215 156.264 162.215 156.606 161.873C156.606 161.873 156.606 161.531 156.949 161.531C156.949 161.531 156.949 161.531 156.949 161.189C156.949 160.847 157.292 160.847 157.292 160.505C157.292 160.505 157.292 160.163 157.634 160.163C157.634 160.163 157.634 160.163 157.634 159.821C157.634 159.821 157.634 159.821 157.634 159.48C157.634 159.48 157.634 159.48 157.634 159.138C157.634 159.138 157.634 158.796 157.977 158.796C157.977 158.454 157.977 158.454 158.32 158.112C158.32 158.112 158.32 158.112 158.32 157.77V157.428C158.32 157.428 158.32 157.428 158.32 157.086V156.745V156.403V156.061C158.32 156.061 158.32 156.061 158.32 155.719C158.32 155.377 158.32 155.377 158.32 155.035C158.32 154.693 158.32 154.351 158.32 154.009C159.69 151.958 159.005 150.249 157.977 149.565Z" fill="#767D84"/>
<path d="M157.977 147.513L125.765 129.051L128.506 127L160.376 145.803L157.977 147.513Z" fill="#E6E7E8"/>
<path d="M145.983 169.734L113.771 150.93L111.715 147.854L143.584 166.657L145.983 169.734Z" fill="#6D6E71"/>
<path d="M143.584 166.658L111.715 147.854L113.086 144.777L145.298 163.239L143.584 166.658Z" fill="#A8A9AC"/>
<path d="M149.41 151.958C149.752 151.616 149.752 151.274 150.095 151.274L117.883 132.471L117.54 132.813L117.198 133.154C117.198 133.154 117.198 133.496 116.855 133.496C116.855 133.838 116.512 133.838 116.512 134.18L148.724 152.642C148.724 152.642 148.724 152.642 149.41 151.958Z" fill="#BEC0C2"/>
<path d="M157.977 147.512L125.765 129.051H125.422H125.079C124.737 129.051 124.737 129.051 124.394 129.051C124.394 129.051 124.394 129.051 124.051 129.051L156.263 147.512C156.606 147.512 156.949 147.512 156.949 147.512C157.634 147.512 157.634 147.512 157.977 147.512Z" fill="#A0A2A4"/>
<path d="M151.123 147.855L118.911 129.393L123.366 126.658L155.235 145.462L151.123 147.855Z" fill="#E6E7E8"/>
<path d="M150.095 151.273L117.883 132.47L118.911 129.393L151.123 147.854L150.095 151.273Z" fill="#939598"/>
<path d="M145.298 162.214C145.298 161.872 145.298 161.53 145.298 161.188L143.584 159.821L111.372 141.359L113.085 142.727C113.085 143.069 113.085 143.411 113.085 143.753C113.085 144.094 113.085 144.436 113.085 144.778L145.298 163.24C145.298 162.898 145.298 162.556 145.298 162.214Z" fill="#737477"/>
<path d="M145.983 154.009L113.771 135.547L116.512 134.521L148.382 152.983L145.983 154.009Z" fill="#F1F2F2"/>
<path d="M143.584 159.82L111.715 141.359L113.771 135.547L145.983 154.008L143.584 159.82Z" fill="#9EA0A2"/>
<path d="M153.18 165.29C156.949 163.239 159.691 158.111 159.691 154.008C159.691 149.905 156.606 148.196 153.18 150.247C149.41 152.299 146.669 157.427 146.669 161.529C146.669 165.632 149.41 167.341 153.18 165.29ZM161.061 152.982C161.061 153.324 161.061 153.666 161.061 154.008L162.775 155.376L160.719 161.188L158.32 162.213C157.977 162.897 157.292 163.581 156.606 164.264L155.578 167.683L151.123 170.076L150.095 168.025C149.41 168.025 149.067 168.025 148.382 168.025L145.983 170.076L143.584 166.658L145.298 163.581C145.298 163.239 145.298 162.897 145.298 162.555C145.298 162.213 145.298 161.871 145.298 161.529L143.584 159.82L145.641 154.008L148.039 152.982C148.382 152.299 149.067 151.615 149.753 150.931L150.781 147.512L155.236 145.119L156.264 147.17C156.949 147.17 157.292 147.17 157.977 147.17L160.376 145.119L162.432 148.196L161.061 151.957C161.061 152.299 161.061 152.641 161.061 152.982Z" fill="#D5D7E3"/>
<path d="M242.962 117.087L210.75 98.6255L209.722 96.5742L241.934 115.036L242.962 117.087Z" fill="#6D6E71"/>
<path d="M249.816 96.9166L217.604 78.4551C218.632 79.1388 219.66 80.5064 219.66 82.5576C219.66 82.8995 219.66 83.2414 219.66 83.5833V83.9252C219.66 84.267 219.66 84.267 219.66 84.6089V84.9508V85.2927V85.6346V85.9764C219.66 86.3183 219.66 86.3183 219.317 86.6602C219.317 86.6602 219.317 86.6602 219.317 87.0021C219.317 87.344 218.974 87.344 218.974 87.6858C218.974 88.0277 218.632 88.0277 218.632 88.3696C218.632 88.3696 218.632 88.3696 218.632 88.7115C218.632 89.0534 218.289 89.0534 218.289 89.3952C218.289 89.7371 217.946 89.7371 217.946 90.079C217.946 90.079 217.946 90.079 217.946 90.4209L217.604 90.7628C217.604 90.7628 217.604 90.7628 217.261 91.1047L216.918 91.4465C216.918 91.4465 216.918 91.7884 216.576 91.7884C216.576 91.7884 216.576 92.1303 216.233 92.1303L215.89 92.4722C215.89 92.4722 215.89 92.4722 215.548 92.8141C215.205 93.1559 214.862 93.4978 214.52 93.4978C214.52 93.4978 214.52 93.4978 214.177 93.4978C213.834 93.8397 213.492 93.8397 213.149 94.1816C212.806 94.1816 212.463 94.5235 212.463 94.5235H212.121H211.778H211.435H211.093H210.75C210.75 94.5235 210.75 94.5235 210.407 94.5235H210.065H209.722H209.379C209.379 94.5235 209.037 94.5235 209.037 94.1816L241.249 112.643H241.591C241.591 112.643 241.591 112.643 241.934 112.643C241.934 112.643 241.934 112.643 242.277 112.643H242.62H242.962C242.962 112.643 242.962 112.643 243.305 112.643C243.305 112.643 243.305 112.643 243.648 112.643H243.99H244.333C244.676 112.643 245.018 112.301 245.018 112.301C245.361 111.959 245.704 111.959 246.046 111.617C246.046 111.617 246.046 111.617 246.389 111.617C246.732 111.276 247.074 110.934 247.417 110.934L247.76 110.592L248.102 110.25C248.102 110.25 248.102 110.25 248.102 109.908C248.102 109.908 248.102 109.908 248.102 109.566C248.102 109.566 248.102 109.566 248.445 109.224C248.445 109.224 248.445 108.882 248.788 108.882C248.788 108.882 248.788 108.882 248.788 108.541C248.788 108.199 249.131 108.199 249.131 107.857C249.131 107.857 249.131 107.515 249.473 107.515C249.473 107.515 249.473 107.515 249.473 107.173C249.473 107.173 249.473 107.173 249.473 106.831C249.473 106.831 249.473 106.831 249.473 106.489C249.473 106.489 249.473 106.147 249.816 106.147C249.816 105.806 249.816 105.806 250.159 105.464C250.159 105.464 250.159 105.464 250.159 105.122V104.78C250.159 104.78 250.159 104.78 250.159 104.438V104.096C250.159 104.096 250.159 104.096 250.159 103.754V103.412V103.07C250.159 103.07 250.159 103.07 250.159 102.729C250.159 102.387 250.159 102.387 250.159 102.045C250.159 101.703 250.159 101.361 250.159 101.019C251.872 98.9679 250.844 97.6004 249.816 96.9166Z" fill="#767D84"/>
<path d="M249.816 94.8644L217.604 76.061L220.345 74.3516L252.214 92.8131L249.816 94.8644Z" fill="#E6E7E8"/>
<path d="M237.822 116.744L205.61 98.282L203.554 95.2051L235.766 113.667L237.822 116.744Z" fill="#6D6E71"/>
<path d="M235.766 113.667L203.554 95.2059L205.267 91.7871L237.137 110.591L235.766 113.667Z" fill="#A8A9AC"/>
<path d="M241.249 98.9676C241.591 98.6257 241.591 98.2838 241.934 98.2838L209.722 79.8223L209.379 80.1641L209.036 80.506C209.036 80.506 209.036 80.8479 208.694 80.8479C208.694 81.1898 208.351 81.1898 208.351 81.5317L240.563 99.9932C240.563 99.9932 240.906 99.6513 241.249 98.9676C241.249 99.3094 241.249 99.3094 241.249 98.9676Z" fill="#BEC0C2"/>
<path d="M249.816 94.8639L217.604 76.4023H217.261H216.919C216.576 76.4023 216.576 76.4023 216.233 76.4023C216.233 76.4023 216.233 76.4023 215.891 76.4023L248.103 94.8639C248.446 94.8639 248.788 94.8639 248.788 94.8639C249.474 94.522 249.474 94.8639 249.816 94.8639Z" fill="#A0A2A4"/>
<path d="M242.962 94.8645L210.75 76.4029L215.205 74.0098L247.417 92.4713L242.962 94.8645Z" fill="#E6E7E8"/>
<path d="M241.934 98.2827L209.722 79.8211L210.75 76.4023L242.962 94.8639L241.934 98.2827Z" fill="#939598"/>
<path d="M237.137 109.566C237.137 109.224 237.137 108.882 237.137 108.54L235.423 107.172L203.211 88.7109L204.924 90.0785C204.924 90.4203 204.924 90.7622 204.924 91.1041C204.924 91.446 204.924 91.7879 204.924 92.1297L237.137 110.591C237.137 110.249 237.137 109.908 237.137 109.566Z" fill="#737477"/>
<path d="M237.822 101.36L205.61 82.5569L208.351 81.5312L240.221 100.335L237.822 101.36Z" fill="#F1F2F2"/>
<path d="M235.423 106.83L203.554 88.3686L205.61 82.5566L237.822 101.36L235.423 106.83Z" fill="#9EA0A2"/>
<path d="M245.018 112.3C248.788 110.248 251.529 105.12 251.529 101.018C251.529 96.915 248.445 95.2056 245.018 97.2569C241.249 99.3081 238.507 104.436 238.507 108.539C238.507 112.983 241.591 114.693 245.018 112.3ZM252.9 100.334C252.9 100.676 252.9 101.018 252.9 101.359L254.613 102.727L252.557 108.539L250.158 109.565C249.816 110.248 249.13 110.932 248.445 111.616L247.417 115.035L242.962 117.428L241.934 115.377C241.249 115.377 240.906 115.377 240.22 115.377L237.822 117.428L235.766 114.351L237.479 111.274C237.479 110.932 237.479 110.59 237.479 110.248C237.479 109.906 237.479 109.565 237.479 109.223L235.766 107.855L237.822 102.043L240.22 101.018C240.563 100.334 241.249 99.65 241.934 98.9663L242.962 95.5475L247.417 93.1543L248.445 95.2056C249.13 95.2056 249.473 95.2056 250.158 95.2056L252.557 93.1543L254.613 96.2312L252.9 99.3081C252.9 99.65 252.9 99.9919 252.9 100.334Z" fill="#D5D7E3"/>
<path d="M266.95 76.0591C274.489 71.6146 281 75.0334 281 83.9223C281 93.1531 274.832 103.751 266.95 108.196L63.0539 225.803C55.5149 230.247 49.0039 226.828 49.0039 217.939C49.0039 208.709 55.1722 198.11 63.0539 193.666L266.95 76.0591ZM279.287 85.2899C279.287 77.0847 273.804 74.0078 266.95 78.1104L63.0539 195.375C56.2002 199.136 50.7173 208.709 50.7173 216.572C50.7173 224.777 56.2002 227.854 63.0539 223.751L267.293 106.145C273.804 102.384 279.287 92.8112 279.287 85.2899Z" fill="#767D84"/>
<path d="M231.996 49.0509C231.654 48.709 231.311 48.709 231.311 48.709C231.311 48.709 231.311 48.709 230.968 48.709H230.626H230.283C230.283 48.709 230.283 48.709 229.94 48.709C229.598 48.709 229.255 48.709 229.255 48.709C229.255 48.709 229.255 48.709 228.912 48.709C228.57 48.709 228.57 48.709 228.227 48.709C228.227 48.709 228.227 48.709 227.884 48.709H227.542H227.199H226.856C226.514 48.709 226.514 48.709 226.171 48.709H225.828H225.486C225.143 48.709 224.8 49.0509 224.457 49.0509H224.115H223.772H223.429C223.087 49.3927 222.744 49.3927 222.059 49.7346L18.1623 167.341C17.8196 167.683 17.1343 168.025 16.7916 168.025L16.4489 168.367C16.1062 168.709 15.7635 168.709 15.4208 169.051L15.0782 169.393C14.7355 169.735 14.3928 169.735 14.3928 170.077L14.0501 170.418C14.0501 170.418 13.7074 170.418 13.7074 170.76L13.3647 171.102C13.0221 171.444 12.6794 171.786 12.3367 172.128L11.994 172.47L11.6513 172.812C11.6513 173.153 11.6513 173.495 11.3086 173.495L10.966 173.837L10.6233 174.179L10.2806 174.521C10.2806 174.521 10.2806 174.863 9.93791 174.863C9.59523 175.205 9.59523 175.205 9.59523 175.547C9.59523 175.547 9.59523 175.888 9.25255 175.888C8.90987 176.23 8.90987 176.572 8.56718 176.914C8.56718 176.914 8.56718 177.256 8.2245 177.256C8.2245 177.598 7.88182 177.598 7.88182 177.94L7.53913 178.282C7.53913 178.282 7.53913 178.624 7.19645 178.624V178.965C7.19645 180.333 6.85377 180.675 6.85377 181.017C6.85377 181.359 6.51109 181.7 6.51109 182.042V182.384C6.51109 182.384 6.51108 182.726 6.1684 182.726C6.1684 182.726 6.1684 183.068 5.82572 183.068C5.82572 183.41 5.82572 183.41 5.48304 183.752C5.48304 184.094 5.48304 184.094 5.14035 184.435V184.777C5.14035 185.119 5.14035 185.119 4.79767 185.461C4.79767 185.803 4.79767 185.803 4.45499 186.145C4.45499 186.145 4.45499 186.145 4.45499 186.487C4.45499 186.829 4.45499 186.829 4.45499 187.171C4.45499 187.512 4.45499 187.854 4.1123 188.538V188.88C4.1123 189.222 4.1123 189.222 4.1123 189.564C4.1123 189.906 4.1123 189.906 4.1123 190.247C4.1123 190.931 4.1123 191.273 4.1123 191.957C4.1123 196.401 5.82572 199.478 8.2245 200.846L53.116 226.829C50.7172 225.461 49.0038 222.384 49.0038 217.94C49.0038 217.256 49.0038 216.914 49.0038 216.23C49.0038 215.888 49.0038 215.888 49.0038 215.547C49.0038 215.205 49.0038 214.863 49.0038 214.521C49.0038 214.179 49.0038 213.837 49.3465 213.153C49.3465 212.812 49.3465 212.812 49.3465 212.47C49.3465 212.128 49.3465 212.128 49.6891 211.786C49.6891 211.444 49.6891 211.102 50.0318 210.76C50.0318 210.418 50.0318 210.418 50.3745 210.077C50.3745 209.735 50.7172 209.393 50.7172 209.051C50.7172 209.051 50.7172 208.709 51.0599 208.709C51.4025 208.367 51.4025 207.683 51.7452 207.341C52.0879 206.658 52.0879 206.316 52.4306 205.974C52.4306 205.974 52.4306 205.632 52.7733 205.632C53.116 205.29 53.116 204.948 53.4586 204.606C53.4586 204.606 53.4586 204.265 53.8013 204.265C54.144 203.923 54.4867 203.239 54.8294 202.897C54.8294 202.897 54.8294 202.555 55.1721 202.555C55.5147 202.213 55.5147 201.871 55.8574 201.529C55.8574 201.188 56.2001 201.188 56.2001 201.188C56.5428 200.846 56.5428 200.504 56.8855 200.504C57.2282 200.162 57.2282 200.162 57.5708 199.82C57.9135 199.478 57.9135 199.478 58.2562 199.136C58.5989 198.794 58.9416 198.453 59.2843 198.111C59.6269 197.769 59.6269 197.769 59.9696 197.427L60.3123 197.085C60.655 196.743 60.9977 196.743 60.9977 196.401L61.3404 196.059C61.683 195.718 62.0257 195.718 62.3684 195.376L62.7111 195.034C63.0538 194.692 63.7391 194.35 64.0818 194.35L266.95 76.0594C267.293 75.7175 267.635 75.7175 268.321 75.3757H268.664C269.006 75.3757 269.006 75.0338 269.349 75.0338C269.692 75.0338 270.034 74.6919 270.377 74.6919C270.377 74.35 270.72 74.35 271.062 74.35C271.405 74.35 271.405 74.35 271.748 74.35C272.09 74.35 272.09 74.35 272.433 74.35H272.776C273.118 74.35 273.461 74.35 273.804 74.35C273.804 74.35 273.804 74.35 274.146 74.35C274.489 74.35 274.832 74.35 275.175 74.35C275.175 74.35 275.175 74.35 275.517 74.35C275.86 74.35 276.203 74.35 276.203 74.6919C276.203 74.6919 276.203 74.6919 276.545 74.6919C276.888 74.6919 277.231 75.0338 277.573 75.0338L231.996 49.0509Z" fill="#353435"/>
<path d="M98.6929 96.9141V129.735L128.849 147.17L128.506 114.35L98.6929 96.9141Z" fill="#F5BC6F"/>
<path d="M128.506 114.35L128.849 147.17L159.005 129.735L158.662 96.9141L128.506 114.35Z" fill="#FFCF7A"/>
<path d="M98.6929 96.9144L128.506 114.35L158.662 96.9144L128.849 79.4785L98.6929 96.9144Z" fill="#FCD495"/>
<path d="M149.753 130.077C150.438 129.735 150.781 128.71 150.781 128.026V126.316L148.382 127.684V129.393C148.725 130.077 149.067 130.419 149.753 130.077Z" fill="#CF9975"/>
<path d="M146.669 130.762C147.011 130.762 147.011 130.762 147.354 130.762C147.354 129.395 146.326 129.053 145.298 129.736C144.27 130.42 143.242 132.13 143.242 133.497C143.242 133.155 143.584 132.813 143.927 132.813C144.27 132.471 144.612 132.813 144.612 132.813C144.612 132.471 144.955 132.13 145.298 131.788C145.64 131.446 145.983 131.788 145.983 131.788C145.983 131.104 146.326 130.762 146.669 130.762Z" fill="#CF9975"/>
<path d="M145.983 134.522C145.641 134.522 145.298 134.18 145.298 133.839C144.955 134.522 145.298 134.522 145.983 134.522Z" fill="#CF9975"/>
<path d="M154.894 127.684L155.236 126.316L156.264 125.975L155.922 126.316L156.264 127C156.264 127 156.264 127 156.264 127.342L155.579 128.71L154.894 127.684Z" fill="#CF9975"/>
<path d="M155.236 127.684L155.921 128.367L154.208 129.393V128.025L155.236 127.684Z" fill="#CF9975"/>
<path d="M153.18 128.709H154.208L153.18 130.077V129.735L152.494 130.077C152.494 130.077 152.494 130.077 152.152 130.077L151.466 129.393L153.18 128.709Z" fill="#CF9975"/>
<path d="M151.466 129.393L152.152 127.684H153.18L152.837 128.709L151.466 129.393Z" fill="#CF9975"/>
<path d="M152.837 125.975L153.18 124.949C153.18 124.949 153.18 124.608 153.522 124.608L154.55 123.924L153.865 125.975H154.208L153.18 127.001L152.837 125.975Z" fill="#CF9975"/>
<path d="M154.55 124.266L155.578 125.291L154.55 126.317L154.208 125.633L154.55 124.266Z" fill="#CF9975"/>
<path d="M142.214 87L144.27 88.3675L113.771 105.803L111.715 104.436L142.214 87Z" fill="#CF9975"/>
<path d="M112.058 109.564L114.114 110.931V105.803L112.058 104.436V109.564Z" fill="#CF9975"/>
<path d="M116.855 118.795L125.422 123.923V115.034L116.855 109.906V118.795Z" fill="#F1F2F2"/>
<path d="M117.541 114.35H117.883V111.615H117.541V114.35Z" fill="#6D6E71"/>
<path d="M118.568 114.692L118.911 115.034V112.299L118.568 111.957V114.692Z" fill="#6D6E71"/>
<path d="M119.254 115.376L119.939 115.718V112.641H119.254V115.376Z" fill="#6D6E71"/>
<path d="M120.282 116.401L120.625 116.743V113.324L120.282 112.982V116.401Z" fill="#6D6E71"/>
<path d="M121.31 116.401L121.653 116.743V114.008L121.31 113.666V116.401Z" fill="#6D6E71"/>
<path d="M121.996 116.743L122.681 117.085V114.35L121.996 114.008V116.743Z" fill="#6D6E71"/>
<path d="M123.023 117.768L123.366 118.11V115.033L123.023 114.691V117.768Z" fill="#6D6E71"/>
<path d="M124.051 117.768L124.394 118.11V115.375L124.051 115.033V117.768Z" fill="#6D6E71"/>
<path d="M117.541 118.111L124.394 122.214V121.872L117.541 117.77V118.111Z" fill="#6D6E71"/>
<path d="M117.541 117.086L124.394 121.189V120.847L117.541 116.744V117.086Z" fill="#6D6E71"/>
<path d="M117.541 116.061L124.394 120.163V119.821L117.541 115.719V116.061Z" fill="#6D6E71"/>
<path d="M175.796 73.666L176.139 97.2558L194.301 108.196V84.2643L175.796 73.666Z" fill="#F5BC6F"/>
<path d="M194.301 84.2643V108.196L240.563 81.5293V57.5977L194.301 84.2643Z" fill="#FFCF7A"/>
<path d="M175.796 73.6667L194.301 84.265L240.563 57.5983L222.059 47L175.796 73.6667Z" fill="#FCD495"/>
<path d="M238.85 71.274L228.912 77.086V66.8295L238.85 61.0176V71.274Z" fill="#F1F2F2"/>
<path d="M237.822 65.8035L237.479 66.1454V63.0684L237.822 62.7266V65.8035Z" fill="#6D6E71"/>
<path d="M236.793 66.4871L236.451 66.829V63.752L236.793 63.4102V66.4871Z" fill="#6D6E71"/>
<path d="M235.766 67.1707L235.423 67.5126V64.4356L235.766 64.0938V67.1707Z" fill="#6D6E71"/>
<path d="M234.738 68.1962L234.395 68.5381V64.7774L234.738 64.4355V68.1962Z" fill="#6D6E71"/>
<path d="M233.709 68.1961L233.367 68.5379V65.461L233.709 65.1191V68.1961Z" fill="#6D6E71"/>
<path d="M232.682 68.8797L232.339 69.2215V66.1446L232.682 65.8027V68.8797Z" fill="#6D6E71"/>
<path d="M231.653 70.247L230.968 70.5889V66.8282L231.653 66.4863V70.247Z" fill="#6D6E71"/>
<path d="M230.625 70.2488L229.94 70.5907V67.1719H230.625V70.2488Z" fill="#6D6E71"/>
<path d="M238.164 70.5899L229.94 75.0344V74.6925L238.164 70.248V70.5899Z" fill="#6D6E71"/>
<path d="M238.164 69.2227L229.94 74.0091V73.6672L238.164 68.8809V69.2227Z" fill="#6D6E71"/>
<path d="M238.164 68.1973L229.94 72.6418V72.2999L238.164 67.8555V68.1973Z" fill="#6D6E71"/>
<path d="M204.239 96.5713C204.925 96.2294 205.61 95.2038 205.61 94.1782V92.4688L202.869 94.1782V95.8876C203.211 96.5713 203.554 96.9132 204.239 96.5713Z" fill="#CF9975"/>
<path d="M203.211 99.6469L205.61 98.2794C205.61 98.2794 205.61 98.2794 205.61 97.9375L203.211 99.6469Z" fill="#CF9975"/>
<path d="M201.155 97.2549C201.498 97.2549 201.498 97.2549 201.841 97.2549C201.841 95.8874 200.812 95.2036 199.442 95.8874C198.071 96.5711 197.043 98.6224 197.043 100.332C197.386 99.9899 197.386 99.6481 197.728 99.6481C198.071 99.3062 198.414 99.6481 198.756 99.6481C198.756 99.3062 199.099 98.6224 199.784 98.2805C200.127 97.9387 200.47 98.2805 200.812 98.2805C200.127 97.9387 200.47 97.5968 201.155 97.2549Z" fill="#CF9975"/>
<path d="M200.127 101.358L200.47 101.016C200.47 101.016 200.47 101.016 200.47 100.675L200.127 101.358C199.784 101.358 199.442 101.016 199.442 100.675V97.5977C199.442 97.5977 199.442 97.5977 199.442 97.9395V101.016C199.099 101.7 199.442 101.7 200.127 101.358Z" fill="#CF9975"/>
<path d="M210.408 93.8364L210.75 92.127L212.121 91.7852L211.778 92.127L212.121 92.8108C212.121 92.8108 212.121 92.8108 212.121 93.1527L211.436 94.8621L210.75 93.4946L210.408 93.8364Z" fill="#CF9975"/>
<path d="M210.75 93.8359L211.436 94.8616L209.722 95.5453V94.1778L210.75 93.8359Z" fill="#CF9975"/>
<path d="M208.352 95.2052V94.8633L209.38 95.2052L208.352 96.9146V96.5727L207.323 96.9146C207.323 96.9146 207.323 96.9146 206.981 96.9146L206.295 95.8889L208.352 95.2052Z" fill="#CF9975"/>
<path d="M206.638 95.8892L207.324 93.8379H208.352L208.009 95.2054L206.638 95.8892Z" fill="#CF9975"/>
<path d="M208.009 91.7857L208.351 90.76C208.351 90.76 208.351 90.4181 208.694 90.4181L210.065 89.7344L209.037 92.1275H209.38L208.009 93.4951V91.7857Z" fill="#CF9975"/>
<path d="M210.065 89.7344L211.093 91.1019L210.065 92.1275L209.379 91.4438L210.065 89.7344Z" fill="#CF9975"/>
<path d="M230.283 51.7871L233.025 53.1546L186.42 79.8213L184.021 78.4538L230.283 51.7871Z" fill="#CF9975"/>
<path d="M184.021 84.2651L186.42 85.6326V79.8206L184.021 78.4531V84.2651Z" fill="#CF9975"/>
<path d="M49.689 151.273V166.316L68.1938 176.914V161.872L49.689 151.273Z" fill="#F5BC6F"/>
<path d="M68.1938 161.872V176.914L86.6987 166.316V151.273L68.1938 161.872Z" fill="#FFCF7A"/>
<path d="M49.689 151.274L68.1938 161.872L86.6987 151.274L68.1938 140.334L49.689 151.274Z" fill="#FCD495"/>
<path d="M57.228 167.342L65.4524 172.128V163.581L57.228 158.795V167.342Z" fill="#F1F2F2"/>
<path d="M57.9136 162.897L58.2563 163.239V160.504L57.9136 160.162V162.897Z" fill="#6D6E71"/>
<path d="M58.9414 163.239L59.2841 163.581V161.188L58.9414 160.846V163.239Z" fill="#6D6E71"/>
<path d="M59.627 163.923L59.9696 164.264V161.529L59.627 161.188V163.923Z" fill="#6D6E71"/>
<path d="M60.6553 164.948L60.998 165.29V161.871H60.6553V164.948Z" fill="#6D6E71"/>
<path d="M61.3403 164.948L61.683 165.29V162.555L61.3403 162.213V164.948Z" fill="#6D6E71"/>
<path d="M62.3687 165.29L62.7113 165.632V162.896H62.3687V165.29Z" fill="#6D6E71"/>
<path d="M63.0537 166.315L63.3964 166.657V163.58L63.0537 163.238V166.315Z" fill="#6D6E71"/>
<path d="M64.082 166.315L64.4247 166.657V163.922H64.082V166.315Z" fill="#6D6E71"/>
<path d="M57.9136 166.658L64.4245 170.419V170.077L57.9136 166.316V166.658Z" fill="#6D6E71"/>
<path d="M57.9136 165.633L64.4245 169.394V169.052L57.9136 165.291V165.633Z" fill="#6D6E71"/>
<path d="M57.9136 164.608L64.4245 168.368L57.9136 164.266V164.608Z" fill="#6D6E71"/>
<path d="M80.5307 166.317C80.8734 165.975 81.5588 165.291 81.5588 164.949V163.924L79.8453 164.949V165.975C79.5027 166.317 80.188 166.659 80.5307 166.317Z" fill="#CF9975"/>
<path d="M78.4743 167H78.817C78.817 165.975 78.1316 165.633 77.1036 166.317C76.0755 166.659 75.3901 168.026 75.3901 169.052C75.3901 168.71 75.7328 168.71 75.7328 168.71C76.0755 168.71 76.0755 168.71 76.4182 168.71C76.4182 168.368 76.7609 168.026 77.1036 168.026C77.4462 168.026 77.4462 168.026 77.7889 168.026C77.7889 167.342 78.1316 167 78.4743 167Z" fill="#CF9975"/>
<path d="M77.7888 169.735C78.1315 169.393 78.1315 169.393 78.1315 169.393C78.1315 169.393 77.7888 169.393 77.7888 169.735C77.4461 169.735 77.4461 169.735 77.4461 169.393C77.1035 169.735 77.4461 169.735 77.7888 169.735Z" fill="#CF9975"/>
<path d="M84.2998 164.608L84.6425 163.582L85.3279 163.24L84.9852 163.582L85.3279 163.924C85.3279 163.924 85.3279 163.924 85.3279 164.266L84.9852 165.292L84.2998 164.608Z" fill="#CF9975"/>
<path d="M84.6424 164.607L84.9851 165.291L83.957 165.975V164.949L84.6424 164.607Z" fill="#CF9975"/>
<path d="M82.9289 165.633H83.6143L82.9289 166.658V166.317L82.2436 166.658L81.9009 165.975L82.9289 165.633Z" fill="#CF9975"/>
<path d="M81.9009 165.975L82.2436 164.607H82.9289L82.5862 165.633L81.9009 165.975Z" fill="#CF9975"/>
<path d="M82.9287 163.582L83.2714 162.899L83.9568 162.557L83.2714 163.924H83.6141L82.9287 164.608V163.582Z" fill="#CF9975"/>
<path d="M84.2996 162.215L84.6423 162.899L83.9569 163.582L83.6143 163.24L84.2996 162.215Z" fill="#CF9975"/>
<path d="M79.1599 155.719L76.7611 157.087L57.9136 146.489L60.3124 145.121L79.1599 155.719Z" fill="#CF9975"/>
<path d="M79.16 161.531L76.7612 163.24V157.428L79.16 155.719V161.531Z" fill="#CF9975"/>
<path d="M59.8516 105.77C59.8438 105.488 59.8398 105.277 59.8398 105.137C59.8398 104.309 59.957 103.594 60.1914 102.992C60.3633 102.539 60.6406 102.082 61.0234 101.621C61.3047 101.285 61.8086 100.797 62.5352 100.156C63.2695 99.5078 63.7461 98.9922 63.9648 98.6094C64.1836 98.2266 64.293 97.8086 64.293 97.3555C64.293 96.5352 63.9727 95.8164 63.332 95.1992C62.6914 94.5742 61.9062 94.2617 60.9766 94.2617C60.0781 94.2617 59.3281 94.543 58.7266 95.1055C58.125 95.668 57.7305 96.5469 57.543 97.7422L55.375 97.4844C55.5703 95.8828 56.1484 94.6562 57.1094 93.8047C58.0781 92.9531 59.3555 92.5273 60.9414 92.5273C62.6211 92.5273 63.9609 92.9844 64.9609 93.8984C65.9609 94.8125 66.4609 95.918 66.4609 97.2148C66.4609 97.9648 66.2852 98.6562 65.9336 99.2891C65.582 99.9219 64.8945 100.691 63.8711 101.598C63.1836 102.207 62.7344 102.656 62.5234 102.945C62.3125 103.234 62.1562 103.566 62.0547 103.941C61.9531 104.316 61.8945 104.926 61.8789 105.77H59.8516ZM59.7227 110V107.598H62.125V110H59.7227Z" fill="#8D8D8D"/>
<path d="M123.852 58.7695C123.844 58.4883 123.84 58.2773 123.84 58.1367C123.84 57.3086 123.957 56.5938 124.191 55.9922C124.363 55.5391 124.641 55.082 125.023 54.6211C125.305 54.2852 125.809 53.7969 126.535 53.1562C127.27 52.5078 127.746 51.9922 127.965 51.6094C128.184 51.2266 128.293 50.8086 128.293 50.3555C128.293 49.5352 127.973 48.8164 127.332 48.1992C126.691 47.5742 125.906 47.2617 124.977 47.2617C124.078 47.2617 123.328 47.543 122.727 48.1055C122.125 48.668 121.73 49.5469 121.543 50.7422L119.375 50.4844C119.57 48.8828 120.148 47.6562 121.109 46.8047C122.078 45.9531 123.355 45.5273 124.941 45.5273C126.621 45.5273 127.961 45.9844 128.961 46.8984C129.961 47.8125 130.461 48.918 130.461 50.2148C130.461 50.9648 130.285 51.6562 129.934 52.2891C129.582 52.9219 128.895 53.6914 127.871 54.5977C127.184 55.207 126.734 55.6562 126.523 55.9453C126.312 56.2344 126.156 56.5664 126.055 56.9414C125.953 57.3164 125.895 57.9258 125.879 58.7695H123.852ZM123.723 63V60.5977H126.125V63H123.723Z" fill="#8D8D8D"/>
<path d="M199.852 17.7695C199.844 17.4883 199.84 17.2773 199.84 17.1367C199.84 16.3086 199.957 15.5938 200.191 14.9922C200.363 14.5391 200.641 14.082 201.023 13.6211C201.305 13.2852 201.809 12.7969 202.535 12.1562C203.27 11.5078 203.746 10.9922 203.965 10.6094C204.184 10.2266 204.293 9.80859 204.293 9.35547C204.293 8.53516 203.973 7.81641 203.332 7.19922C202.691 6.57422 201.906 6.26172 200.977 6.26172C200.078 6.26172 199.328 6.54297 198.727 7.10547C198.125 7.66797 197.73 8.54688 197.543 9.74219L195.375 9.48438C195.57 7.88281 196.148 6.65625 197.109 5.80469C198.078 4.95312 199.355 4.52734 200.941 4.52734C202.621 4.52734 203.961 4.98438 204.961 5.89844C205.961 6.8125 206.461 7.91797 206.461 9.21484C206.461 9.96484 206.285 10.6562 205.934 11.2891C205.582 11.9219 204.895 12.6914 203.871 13.5977C203.184 14.207 202.734 14.6562 202.523 14.9453C202.312 15.2344 202.156 15.5664 202.055 15.9414C201.953 16.3164 201.895 16.9258 201.879 17.7695H199.852ZM199.723 22V19.5977H202.125V22H199.723Z" fill="#8D8D8D"/>
</g>
<defs>
<clipPath id="clip0_3111_5774">
<rect width="281" height="287" fill="white"/>
</clipPath>
</defs>
</svg>
