<svg width="319" height="303" viewBox="0 0 319 303" fill="none" xmlns="http://www.w3.org/2000/svg">
<path d="M202.579 83.9928L202.534 86.2256L168.102 62.5778L168.138 60.3359L202.579 83.9928Z" fill="#CE413A"/>
<path d="M165.77 103.257L165.508 107.767L202.435 43.8116L202.706 39.3008L165.77 103.257Z" fill="#CE413A"/>
<path d="M166.177 103.257L165.915 107.767L202.842 43.8116L203.104 39.3008L166.177 103.257Z" fill="#AF1912"/>
<path d="M202.616 83.514L202.57 85.7559L168.138 62.1081L168.174 59.8662L202.616 83.514Z" fill="#AF1912"/>
<path d="M202.579 132.68L202.534 134.922L168.102 111.265L168.138 109.023L202.579 132.68Z" fill="#CE413A"/>
<path d="M165.77 151.954L165.508 156.456L202.435 92.5001L202.706 87.9893L165.77 151.954Z" fill="#CE413A"/>
<path d="M166.177 151.954L165.915 156.456L202.842 92.5001L203.104 87.9893L166.177 151.954Z" fill="#AF1912"/>
<path d="M202.616 132.21L202.57 134.452L168.138 110.795L168.174 108.562L202.616 132.21Z" fill="#AF1912"/>
<path d="M203.754 146.385L201.928 147.443V31.1289L203.754 30.0713V146.385Z" fill="#AF1912"/>
<path d="M201.929 147.443L200.112 146.385V30.0713L201.929 31.1289V147.443Z" fill="#CE413A"/>
<path d="M200.112 30.0711L201.929 31.1287L203.755 30.0711L201.929 29.0225L200.112 30.0711Z" fill="#DD5E5B"/>
<path d="M184.708 72.7657C184.708 72.9646 184.853 73.055 185.024 72.9465C185.117 72.8858 185.193 72.8043 185.248 72.7085C185.303 72.6127 185.335 72.5054 185.341 72.3951C185.341 72.1962 185.196 72.1149 185.024 72.2143C184.933 72.2756 184.856 72.3572 184.801 72.4529C184.747 72.5485 184.715 72.6556 184.708 72.7657Z" fill="#CE413A"/>
<path d="M184.708 121.689C184.708 121.887 184.853 121.969 185.024 121.869C185.117 121.809 185.193 121.727 185.248 121.631C185.303 121.536 185.335 121.428 185.341 121.318C185.341 121.119 185.196 121.038 185.024 121.137C184.932 121.198 184.855 121.279 184.801 121.375C184.746 121.471 184.714 121.578 184.708 121.689Z" fill="#CE413A"/>
<path d="M168.816 166.462L167 167.511V51.197L168.816 50.1484V166.462Z" fill="#AF1912"/>
<path d="M166.999 167.511L165.173 166.462V50.1484L166.999 51.197V167.511Z" fill="#CE413A"/>
<path d="M165.173 50.1482L166.999 51.1968L168.816 50.1482L166.999 49.0996L165.173 50.1482Z" fill="#DD5E5B"/>
<path d="M225.134 186.675L168.807 153.219V156.988L225.134 189.477V186.675Z" fill="#404040"/>
<path d="M225.134 184.857L168.807 151.401V155.171L225.134 187.669V184.857Z" fill="#525252"/>
<path d="M237.672 180.003L181.336 146.556V152.883L237.672 182.814V180.003Z" fill="#404040"/>
<path d="M250.255 172.771L193.928 139.315V145.652L250.255 175.574V172.771Z" fill="#404040"/>
<path d="M168.807 151.402L225.134 184.857L256.691 166.643L200.112 134.1L168.807 151.402Z" fill="#7F7F7F"/>
<path d="M250.2 175.574L257.043 171.624V168.632L250.2 172.591V175.574Z" fill="#212121"/>
<path d="M225.133 190.047L231.985 186.097V183.104L225.133 187.055V190.047Z" fill="#212121"/>
<path d="M237.671 182.815L244.514 178.855V175.863L237.671 179.823V182.815Z" fill="#212121"/>
<path d="M225.133 187.85L257.043 169.427V166.435L225.133 184.857V187.85Z" fill="#303030"/>
<path d="M221.572 182.86L253.075 164.672L253.997 165.205L222.485 183.402L221.572 182.86Z" fill="#6E6E6E"/>
<path d="M217.694 180.555L249.143 162.403L250.065 162.937L218.607 181.097L217.694 180.555Z" fill="#6E6E6E"/>
<path d="M213.816 178.258L245.211 160.134L246.142 160.667L214.738 178.801L213.816 178.258Z" fill="#6E6E6E"/>
<path d="M209.947 175.954L241.278 157.865L242.209 158.399L210.86 176.496L209.947 175.954Z" fill="#6E6E6E"/>
<path d="M206.069 173.648L237.346 155.587L238.277 156.129L206.982 174.191L206.069 173.648Z" fill="#6E6E6E"/>
<path d="M202.191 171.344L233.414 153.318L234.345 153.861L203.104 171.895L202.191 171.344Z" fill="#6E6E6E"/>
<path d="M198.313 169.048L229.482 151.05L230.413 151.592L199.226 169.59L198.313 169.048Z" fill="#6E6E6E"/>
<path d="M194.435 166.742L225.549 148.78L226.48 149.314L195.348 167.285L194.435 166.742Z" fill="#6E6E6E"/>
<path d="M190.566 164.445L221.617 146.511L222.548 147.044L191.479 164.988L190.566 164.445Z" fill="#6E6E6E"/>
<path d="M186.688 162.141L217.685 144.242L218.616 144.776L187.601 162.683L186.688 162.141Z" fill="#6E6E6E"/>
<path d="M182.81 159.836L213.752 141.974L214.684 142.507L183.723 160.378L182.81 159.836Z" fill="#6E6E6E"/>
<path d="M178.932 157.54L209.82 139.705L210.751 140.238L179.845 158.083L178.932 157.54Z" fill="#6E6E6E"/>
<path d="M175.053 155.235L205.888 137.436L206.819 137.969L175.976 155.777L175.053 155.235Z" fill="#6E6E6E"/>
<path d="M171.185 152.929L201.965 135.157L202.887 135.7L172.098 153.472L171.185 152.929Z" fill="#6E6E6E"/>
<path d="M225.134 139.452L168.807 105.996V109.757L225.134 142.254V139.452Z" fill="#404040"/>
<path d="M225.134 137.634L168.807 104.178V107.947L225.134 140.436V137.634Z" fill="#525252"/>
<path d="M237.672 132.78L181.336 99.333V105.661L237.672 135.591V132.78Z" fill="#404040"/>
<path d="M250.255 125.548L193.928 92.0918V98.4286L250.255 128.359V125.548Z" fill="#404040"/>
<path d="M168.807 104.178L225.134 137.634L256.691 119.419L200.112 86.8037L168.807 104.178Z" fill="#7F7F7F"/>
<path d="M250.2 128.36L257.043 124.4V121.408L250.2 125.368V128.36Z" fill="#212121"/>
<path d="M225.133 142.823L231.985 138.873V135.881L225.133 139.831V142.823Z" fill="#212121"/>
<path d="M237.671 135.591L244.514 131.632V128.648L237.671 132.599V135.591Z" fill="#212121"/>
<path d="M225.133 140.626L257.043 122.203V119.211L225.133 137.634V140.626Z" fill="#303030"/>
<path d="M221.572 135.637L253.075 117.449L253.997 117.983L222.485 136.179L221.572 135.637Z" fill="#6E6E6E"/>
<path d="M217.694 133.331L249.143 115.18L250.065 115.713L218.607 133.874L217.694 133.331Z" fill="#6E6E6E"/>
<path d="M213.816 131.026L245.211 112.91L246.142 113.443L214.738 131.577L213.816 131.026Z" fill="#6E6E6E"/>
<path d="M209.947 128.73L241.278 110.633L242.209 111.175L210.86 129.273L209.947 128.73Z" fill="#6E6E6E"/>
<path d="M206.069 126.425L237.346 108.363L238.277 108.906L206.982 126.967L206.069 126.425Z" fill="#6E6E6E"/>
<path d="M202.191 124.129L233.414 106.095L234.345 106.637L203.104 124.671L202.191 124.129Z" fill="#6E6E6E"/>
<path d="M198.313 121.824L229.482 103.826L230.413 104.36L199.226 122.367L198.313 121.824Z" fill="#6E6E6E"/>
<path d="M194.435 119.519L225.549 101.558L226.48 102.091L195.348 120.062L194.435 119.519Z" fill="#6E6E6E"/>
<path d="M190.566 117.214L221.617 99.2881L222.548 99.8214L191.479 117.765L190.566 117.214Z" fill="#6E6E6E"/>
<path d="M186.688 114.917L217.685 97.0186L218.616 97.5519L187.601 115.46L186.688 114.917Z" fill="#6E6E6E"/>
<path d="M182.81 112.612L213.752 94.75L214.684 95.2833L183.723 113.155L182.81 112.612Z" fill="#6E6E6E"/>
<path d="M178.932 110.308L209.82 92.4814L210.751 93.0148L179.845 110.859L178.932 110.308Z" fill="#6E6E6E"/>
<path d="M175.053 108.012L205.888 90.2129L206.819 90.7462L175.976 108.554L175.053 108.012Z" fill="#6E6E6E"/>
<path d="M171.185 105.706L201.965 87.9336L202.887 88.476L172.098 106.248L171.185 105.706Z" fill="#6E6E6E"/>
<path d="M225.134 92.0562L168.807 58.6094V62.3699L225.134 94.8676V92.0562Z" fill="#404040"/>
<path d="M225.134 90.2388L168.807 56.792V60.5525L225.134 93.0502V90.2388Z" fill="#525252"/>
<path d="M237.672 85.3844L181.336 51.9375V58.2653L237.672 88.1957V85.3844Z" fill="#404040"/>
<path d="M250.255 78.1529L193.928 44.7061V51.0338L250.255 80.9643V78.1529Z" fill="#404040"/>
<path d="M168.807 56.7924L225.134 90.2392L256.691 72.0243L200.112 39.2373L168.807 56.7924Z" fill="#7F7F7F"/>
<path d="M250.2 80.9649L257.043 77.0056V74.0225L250.2 77.9728V80.9649Z" fill="#212121"/>
<path d="M225.133 95.4369L231.985 91.4775V88.4854L225.133 92.4447V95.4369Z" fill="#212121"/>
<path d="M237.671 88.1964L244.514 84.246V81.2539L237.671 85.2043V88.1964Z" fill="#212121"/>
<path d="M225.133 93.2314L257.043 74.8085V71.8164L225.133 90.2393V93.2314Z" fill="#303030"/>
<path d="M221.572 88.2416L253.075 70.0537L253.997 70.5871L222.485 88.784L221.572 88.2416Z" fill="#6E6E6E"/>
<path d="M217.694 85.9449L249.143 67.7842L250.065 68.3175L218.607 86.4873L217.694 85.9449Z" fill="#6E6E6E"/>
<path d="M213.816 83.6402L245.211 65.5156L246.142 66.049L214.738 84.1826L213.816 83.6402Z" fill="#6E6E6E"/>
<path d="M209.947 81.3355L241.278 63.2471L242.209 63.7804L210.86 81.8779L209.947 81.3355Z" fill="#6E6E6E"/>
<path d="M206.069 79.0388L237.346 60.9775L238.277 61.5109L206.982 79.5812L206.069 79.0388Z" fill="#6E6E6E"/>
<path d="M202.191 76.7341L233.414 58.709L234.345 59.2423L203.104 77.2765L202.191 76.7341Z" fill="#6E6E6E"/>
<path d="M198.313 74.4287L229.482 56.4307L230.413 56.973L199.226 74.9711L198.313 74.4287Z" fill="#6E6E6E"/>
<path d="M194.435 72.1328L225.549 54.1709L226.48 54.7042L195.348 72.6751L194.435 72.1328Z" fill="#6E6E6E"/>
<path d="M190.566 69.8273L221.617 51.8926L222.548 52.435L191.479 70.3697L190.566 69.8273Z" fill="#6E6E6E"/>
<path d="M186.688 67.5226L217.685 49.624L218.616 50.1664L187.601 68.065L186.688 67.5226Z" fill="#6E6E6E"/>
<path d="M182.81 65.2269L213.752 47.3555L214.684 47.8888L183.723 65.7693L182.81 65.2269Z" fill="#6E6E6E"/>
<path d="M178.932 62.9212L209.82 45.0859L210.751 45.6193L179.845 63.4636L178.932 62.9212Z" fill="#6E6E6E"/>
<path d="M175.053 60.6156L205.888 42.8164L206.819 43.3497L175.976 61.1579L175.053 60.6156Z" fill="#6E6E6E"/>
<path d="M171.185 58.3199L201.965 40.5479L202.887 41.0812L172.098 58.8623L171.185 58.3199Z" fill="#6E6E6E"/>
<path d="M259.159 116.573L259.114 118.814L224.681 95.1666L224.727 92.9248L259.159 116.573Z" fill="#CE413A"/>
<path d="M222.359 135.844L222.087 140.355L259.015 76.3904L259.286 71.8887L222.359 135.844Z" fill="#CE413A"/>
<path d="M222.765 135.844L222.494 140.355L259.421 76.3904L259.692 71.8887L222.765 135.844Z" fill="#AF1912"/>
<path d="M259.195 116.102L259.159 118.344L224.718 94.6959L224.763 92.4541L259.195 116.102Z" fill="#AF1912"/>
<path d="M259.159 165.268L259.114 167.501L224.681 143.853L224.727 141.611L259.159 165.268Z" fill="#CE413A"/>
<path d="M222.359 184.533L222.087 189.044L259.015 125.088L259.286 120.577L222.359 184.533Z" fill="#CE413A"/>
<path d="M222.765 184.533L222.494 189.044L259.421 125.088L259.692 120.577L222.765 184.533Z" fill="#AF1912"/>
<path d="M259.195 164.798L259.159 167.031L224.718 143.383L224.763 141.142L259.195 164.798Z" fill="#AF1912"/>
<path d="M260.334 178.973L258.517 180.031V63.7168L260.334 62.6592V178.973Z" fill="#AF1912"/>
<path d="M258.517 180.031L256.691 178.973V62.6592L258.517 63.7168V180.031Z" fill="#CE413A"/>
<path d="M256.691 62.659L258.517 63.7166L260.334 62.659L258.517 61.6104L256.691 62.659Z" fill="#DD5E5B"/>
<path d="M241.287 105.354C241.287 105.553 241.432 105.634 241.604 105.534C241.698 105.475 241.775 105.394 241.831 105.298C241.886 105.202 241.916 105.094 241.92 104.983C241.92 104.784 241.785 104.703 241.604 104.802C241.512 104.863 241.435 104.944 241.38 105.04C241.325 105.136 241.293 105.243 241.287 105.354Z" fill="#CE413A"/>
<path d="M241.287 154.276C241.287 154.475 241.432 154.557 241.604 154.457C241.696 154.397 241.774 154.316 241.829 154.22C241.884 154.124 241.915 154.016 241.92 153.906C241.92 153.707 241.785 153.626 241.604 153.725C241.512 153.786 241.435 153.867 241.38 153.963C241.325 154.059 241.293 154.166 241.287 154.276Z" fill="#CE413A"/>
<path d="M225.405 199.05L223.579 200.099V83.7849L225.405 82.7363V199.05Z" fill="#AF1912"/>
<path d="M223.578 200.099L221.761 199.05V82.7363L223.578 83.7849V200.099Z" fill="#CE413A"/>
<path d="M221.761 82.7361L223.578 83.7847L225.404 82.7361L223.578 81.6875L221.761 82.7361Z" fill="#DD5E5B"/>
<path d="M277.031 192.027L270.224 188.095V149.459L277.031 153.391V192.027Z" fill="#303030"/>
<path d="M283.015 157.576L264.239 146.728V138.177L283.015 149.015V157.576Z" fill="#303030"/>
<path d="M281.397 154.719L265.857 145.752V140.437L281.397 149.404V154.719Z" fill="#F5B04C"/>
<path d="M268.244 145.652L266.906 144.875V141.702L268.244 142.48V145.652Z" fill="#525252"/>
<path d="M270.07 146.7L268.723 145.923V142.75L270.07 143.527V146.7Z" fill="#525252"/>
<path d="M271.896 147.759L270.549 146.982V143.809L271.896 144.586V147.759Z" fill="#525252"/>
<path d="M273.713 148.808L272.375 148.03V144.866L273.713 145.635V148.808Z" fill="#525252"/>
<path d="M275.539 149.864L274.201 149.087V145.914L275.539 146.691V149.864Z" fill="#525252"/>
<path d="M280.348 152.64L279.01 151.862V148.689L280.348 149.467V152.64Z" fill="#525252"/>
<path d="M278.603 151.627L277.256 150.85V147.677L278.603 148.454V151.627Z" fill="#525252"/>
<path d="M279.896 189.983V154.719L277.03 153.391V191.638L279.896 189.983Z" fill="#525252"/>
<path d="M283.015 149.015L285.573 147.578V156.012L283.015 157.576V149.015Z" fill="#525252"/>
<path d="M264.239 138.177L266.906 136.667L285.573 147.578L283.015 149.015L264.239 138.177Z" fill="#6E6E6E"/>
<path d="M258.644 220.375L290.563 201.853V198.807L258.644 215.575V220.375Z" fill="#686868"/>
<path d="M229.78 199.141V203.706L232.564 205.315V203.76L255.868 217.22V218.766L258.644 220.375V215.81L229.78 199.141Z" fill="#525252"/>
<path d="M259.999 213.523L228.424 195.298L259.999 177.065L291.575 195.298L259.999 213.523Z" fill="#6E6E6E"/>
<path d="M228.424 195.299V199.439L259.999 217.555V213.523L228.424 195.299Z" fill="#303030"/>
<path d="M260 213.523L291.575 195.299V199.538L260 217.555V213.523Z" fill="#525252"/>
<path d="M232.564 205.315L233.875 204.519L232.564 203.76V205.315Z" fill="#303030"/>
<path d="M229.78 203.706V202.115L232.564 203.76V205.315L229.78 203.706Z" fill="#C7892E"/>
<path d="M255.868 217.22L258.643 218.756V220.375L255.868 218.766V217.22Z" fill="#C7892E"/>
<path d="M261.799 178.105L230.223 196.339L231.922 197.315L263.498 179.082L261.799 178.105Z" fill="#7F7F7F"/>
<path d="M266.138 180.609L234.562 198.842L236.252 199.819L267.828 181.586L266.138 180.609Z" fill="#7F7F7F"/>
<path d="M270.467 183.113L238.901 201.346L240.591 202.323L272.167 184.09L270.467 183.113Z" fill="#7F7F7F"/>
<path d="M274.806 185.617L243.231 203.85L244.921 204.827L276.497 186.593L274.806 185.617Z" fill="#7F7F7F"/>
<path d="M279.146 188.121L247.57 206.345L249.26 207.33L280.836 189.097L279.146 188.121Z" fill="#7F7F7F"/>
<path d="M283.476 190.625L251.909 208.849L253.599 209.825L285.166 191.601L283.476 190.625Z" fill="#7F7F7F"/>
<path d="M287.815 193.129L256.239 211.353L257.929 212.329L289.505 194.105L287.815 193.129Z" fill="#7F7F7F"/>
<g clip-path="url(#clip0_2809_6432)">
<path d="M123.252 86.9181L123.287 89.1629L157.964 65.4245L157.91 63.1797L123.252 86.9181Z" fill="#CE413A"/>
<path d="M160.304 106.255L160.57 110.797L123.394 46.5816L123.128 42.0566L160.304 106.255Z" fill="#CE413A"/>
<path d="M159.896 106.255L160.162 110.797L122.986 46.5816L122.72 42.0566L159.896 106.255Z" fill="#AF1912"/>
<path d="M123.199 86.4405L123.252 88.6853L157.928 64.947L157.875 62.7021L123.199 86.4405Z" fill="#AF1912"/>
<path d="M123.252 135.791L123.287 138.054L157.964 114.298L157.91 112.053L123.252 135.791Z" fill="#CE413A"/>
<path d="M160.304 155.145L160.57 159.67L123.394 95.4546L123.128 90.9297L160.304 155.145Z" fill="#CE413A"/>
<path d="M159.896 155.145L160.162 159.67L122.986 95.4546L122.72 90.9297L159.896 155.145Z" fill="#AF1912"/>
<path d="M123.199 135.331L123.252 137.576L157.928 113.838L157.875 111.575L123.199 135.331Z" fill="#AF1912"/>
<path d="M122.064 149.56L123.908 150.621V33.8555L122.064 32.7949V149.56Z" fill="#AF1912"/>
<path d="M123.908 150.621L125.734 149.56V32.7949L123.908 33.8555V150.621Z" fill="#CE413A"/>
<path d="M125.734 32.7949L123.908 33.8555L122.064 32.7949L123.908 31.7344L125.734 32.7949Z" fill="#DD5E5B"/>
<path d="M141.246 75.6585C141.246 75.8529 141.104 75.9413 140.927 75.8352C140.834 75.775 140.758 75.694 140.702 75.5989C140.647 75.5038 140.614 75.3971 140.608 75.2873C140.608 75.0752 140.749 75.0045 140.927 75.0929C141.02 75.1559 141.098 75.2399 141.153 75.3381C141.209 75.4363 141.24 75.546 141.246 75.6585Z" fill="#CE413A"/>
<path d="M141.246 124.761C141.246 124.973 141.104 125.044 140.927 124.956C140.833 124.893 140.756 124.809 140.7 124.711C140.645 124.612 140.613 124.503 140.608 124.39C140.608 124.196 140.749 124.107 140.927 124.213C141.019 124.274 141.096 124.355 141.151 124.45C141.207 124.545 141.239 124.651 141.246 124.761Z" fill="#CE413A"/>
<path d="M157.237 169.711L159.081 170.771V54.0059L157.237 52.9453V169.711Z" fill="#AF1912"/>
<path d="M159.08 170.771L160.906 169.711V52.9453L159.08 54.0059V170.771Z" fill="#CE413A"/>
<path d="M160.906 52.9453L159.08 54.0058L157.237 52.9453L159.08 51.8848L160.906 52.9453Z" fill="#DD5E5B"/>
<path d="M100.542 190.002L157.254 156.418V160.201L100.542 192.812V190.002Z" fill="#404040"/>
<path d="M100.542 188.181L157.254 154.598V158.38L100.542 190.992V188.181Z" fill="#525252"/>
<path d="M87.9197 183.302L144.632 149.719V156.082L87.9197 186.131V183.302Z" fill="#404040"/>
<path d="M75.2439 176.038L131.956 142.454V148.817L75.2439 178.866V176.038Z" fill="#404040"/>
<path d="M157.254 154.598L100.542 188.182L68.7554 169.887L125.734 137.223L157.254 154.598Z" fill="#7F7F7F"/>
<path d="M75.2971 178.867L68.4009 174.89V171.885L75.2971 175.862V178.867Z" fill="#212121"/>
<path d="M100.542 193.396L93.6457 189.419V186.414L100.542 190.391V193.396Z" fill="#212121"/>
<path d="M87.9197 186.131L81.0234 182.154V179.149L87.9197 183.126V186.131Z" fill="#212121"/>
<path d="M100.542 191.186L68.4008 172.68V169.692L100.542 188.181V191.186Z" fill="#303030"/>
<path d="M104.123 186.166L72.4076 167.907L71.468 168.455L103.201 186.714L104.123 186.166Z" fill="#6E6E6E"/>
<path d="M108.023 183.851L76.3609 165.627L75.4213 166.175L107.102 184.398L108.023 183.851Z" fill="#6E6E6E"/>
<path d="M111.924 181.553L80.332 163.347L79.3924 163.895L111.002 182.101L111.924 181.553Z" fill="#6E6E6E"/>
<path d="M115.824 179.238L84.2853 161.067L83.3457 161.615L114.902 179.786L115.824 179.238Z" fill="#6E6E6E"/>
<path d="M119.742 176.922L88.2387 158.805L87.2992 159.335L118.82 177.47L119.742 176.922Z" fill="#6E6E6E"/>
<path d="M123.642 174.607L92.1921 156.524L91.2702 157.055L122.72 175.155L123.642 174.607Z" fill="#6E6E6E"/>
<path d="M127.542 172.309L96.1631 154.244L95.2236 154.774L126.62 172.857L127.542 172.309Z" fill="#6E6E6E"/>
<path d="M131.442 169.993L100.117 151.964L99.1771 152.494L130.521 170.541L131.442 169.993Z" fill="#6E6E6E"/>
<path d="M135.343 167.677L104.07 149.684L103.148 150.214L134.421 168.225L135.343 167.677Z" fill="#6E6E6E"/>
<path d="M139.243 165.379L108.041 147.403L107.102 147.934L138.321 165.91L139.243 165.379Z" fill="#6E6E6E"/>
<path d="M143.161 163.065L111.995 145.124L111.055 145.654L142.239 163.613L143.161 163.065Z" fill="#6E6E6E"/>
<path d="M147.061 160.749L115.948 142.844L115.008 143.392L146.139 161.297L147.061 160.749Z" fill="#6E6E6E"/>
<path d="M150.961 158.434L119.919 140.563L118.979 141.111L150.039 158.981L150.961 158.434Z" fill="#6E6E6E"/>
<path d="M154.861 156.136L123.872 138.283L122.933 138.831L153.939 156.684L154.861 156.136Z" fill="#6E6E6E"/>
<path d="M100.542 142.596L157.254 109.013V112.778L100.542 145.407V142.596Z" fill="#404040"/>
<path d="M100.542 140.775L157.254 107.191V110.956L100.542 143.586V140.775Z" fill="#525252"/>
<path d="M87.9197 135.897L144.632 102.313V108.677L87.9197 138.708V135.897Z" fill="#404040"/>
<path d="M75.2439 128.633L131.956 95.0488V101.412L75.2439 131.461V128.633Z" fill="#404040"/>
<path d="M157.254 107.192L100.542 140.776L68.7554 122.481L125.734 89.7461L157.254 107.192Z" fill="#7F7F7F"/>
<path d="M75.2971 131.46L68.4009 127.483V124.479L75.2971 128.456V131.46Z" fill="#212121"/>
<path d="M100.542 145.972L93.6457 142.013V139.008L100.542 142.985V145.972Z" fill="#212121"/>
<path d="M87.9197 138.707L81.0234 134.748V131.743L87.9197 135.72V138.707Z" fill="#212121"/>
<path d="M100.542 143.762L68.4008 125.273V122.269L100.542 140.775V143.762Z" fill="#303030"/>
<path d="M104.123 138.76L72.4076 120.501L71.468 121.049L103.201 139.308L104.123 138.76Z" fill="#6E6E6E"/>
<path d="M108.023 136.445L76.3609 118.222L75.4213 118.77L107.102 136.993L108.023 136.445Z" fill="#6E6E6E"/>
<path d="M111.924 134.147L80.332 115.941L79.3924 116.489L111.002 134.678L111.924 134.147Z" fill="#6E6E6E"/>
<path d="M115.824 131.832L84.2853 113.661L83.3457 114.209L114.902 132.38L115.824 131.832Z" fill="#6E6E6E"/>
<path d="M119.742 129.516L88.2387 111.381L87.2992 111.929L118.82 130.064L119.742 129.516Z" fill="#6E6E6E"/>
<path d="M123.642 127.2L92.1921 109.118L91.2702 109.648L122.72 127.748L123.642 127.2Z" fill="#6E6E6E"/>
<path d="M127.542 124.902L96.1631 106.838L95.2236 107.368L126.62 125.45L127.542 124.902Z" fill="#6E6E6E"/>
<path d="M131.442 122.587L100.117 104.558L99.1771 105.088L130.521 123.135L131.442 122.587Z" fill="#6E6E6E"/>
<path d="M135.343 120.272L104.07 102.278L103.148 102.809L134.421 120.82L135.343 120.272Z" fill="#6E6E6E"/>
<path d="M139.243 117.956L108.041 99.998L107.102 100.528L138.321 118.504L139.243 117.956Z" fill="#6E6E6E"/>
<path d="M143.161 115.659L111.995 97.7178L111.055 98.248L142.239 116.206L143.161 115.659Z" fill="#6E6E6E"/>
<path d="M147.061 113.343L115.948 95.4375L115.008 95.9678L146.139 113.891L147.061 113.343Z" fill="#6E6E6E"/>
<path d="M150.961 111.027L119.919 93.1572L118.979 93.6875L150.039 111.575L150.961 111.027Z" fill="#6E6E6E"/>
<path d="M154.861 108.712L123.872 90.877L122.933 91.4249L153.939 109.26L154.861 108.712Z" fill="#6E6E6E"/>
<path d="M100.542 95.0134L157.254 61.4297V65.2123L100.542 97.8415V95.0134Z" fill="#404040"/>
<path d="M100.542 93.1921L157.254 59.6084V63.391L100.542 96.0202V93.1921Z" fill="#525252"/>
<path d="M87.9197 88.3141L144.632 54.748V61.0936L87.9197 91.1422V88.3141Z" fill="#404040"/>
<path d="M75.2439 81.0671L131.956 47.4834V53.829L75.2439 83.8775V81.0671Z" fill="#404040"/>
<path d="M157.254 59.6089L100.542 93.1926L68.7554 74.916L125.734 41.9863L157.254 59.6089Z" fill="#7F7F7F"/>
<path d="M75.2971 83.8773L68.4009 79.9003V76.9131L75.2971 80.8724V83.8773Z" fill="#212121"/>
<path d="M100.542 98.4067L93.6457 94.4297V91.4248L100.542 95.4018V98.4067Z" fill="#212121"/>
<path d="M87.9197 91.142L81.0234 87.165V84.1602L87.9197 88.1372V91.142Z" fill="#212121"/>
<path d="M100.542 96.1977L68.4008 77.6913V74.7041L100.542 93.1928V96.1977Z" fill="#303030"/>
<path d="M104.123 91.1779L72.4076 72.9189L71.468 73.4669L103.201 91.7258L104.123 91.1779Z" fill="#6E6E6E"/>
<path d="M108.023 88.8798L76.3609 70.6562L75.4213 71.1865L107.102 89.4278L108.023 88.8798Z" fill="#6E6E6E"/>
<path d="M111.924 86.5642L80.332 68.376L79.3924 68.9062L111.002 87.1122L111.924 86.5642Z" fill="#6E6E6E"/>
<path d="M115.824 84.2486L84.2853 66.0957L83.3457 66.626L114.902 84.7965L115.824 84.2486Z" fill="#6E6E6E"/>
<path d="M119.742 81.9506L88.2387 63.8154L87.2992 64.3457L118.82 82.4809L119.742 81.9506Z" fill="#6E6E6E"/>
<path d="M123.642 79.635L92.1921 61.5352L91.2702 62.0654L122.72 80.1829L123.642 79.635Z" fill="#6E6E6E"/>
<path d="M127.542 77.3194L96.1631 59.2549L95.2236 59.7852L126.62 77.8673L127.542 77.3194Z" fill="#6E6E6E"/>
<path d="M131.442 75.0047L100.117 56.9756L99.1771 57.5235L130.521 75.5527L131.442 75.0047Z" fill="#6E6E6E"/>
<path d="M135.343 72.7068L104.07 54.6953L103.148 55.2256L134.421 73.2371L135.343 72.7068Z" fill="#6E6E6E"/>
<path d="M139.243 70.3912L108.041 52.415L107.102 52.963L138.321 70.9391L139.243 70.3912Z" fill="#6E6E6E"/>
<path d="M143.161 68.0755L111.995 50.1348L111.055 50.6827L142.239 68.6235L143.161 68.0755Z" fill="#6E6E6E"/>
<path d="M147.061 65.7599L115.948 47.8545L115.008 48.4024L146.139 66.3079L147.061 65.7599Z" fill="#6E6E6E"/>
<path d="M150.961 63.462L119.919 45.5742L118.979 46.1222L150.039 63.9922L150.961 63.462Z" fill="#6E6E6E"/>
<path d="M154.861 61.1463L123.872 43.2939L122.933 43.8419L153.939 61.6943L154.861 61.1463Z" fill="#6E6E6E"/>
<path d="M66.2736 119.635L66.3268 121.88L100.985 98.1414L100.95 95.8789L66.2736 119.635Z" fill="#CE413A"/>
<path d="M103.325 138.972L103.609 143.497L66.4154 79.2995L66.1495 74.7568L103.325 138.972Z" fill="#CE413A"/>
<path d="M102.918 138.972L103.201 143.497L66.0077 79.2995L65.7418 74.7568L102.918 138.972Z" fill="#AF1912"/>
<path d="M66.2382 119.158L66.2737 121.403L100.95 97.6647L100.914 95.4199L66.2382 119.158Z" fill="#AF1912"/>
<path d="M66.2736 168.509L66.3268 170.754L100.985 147.015L100.95 144.771L66.2736 168.509Z" fill="#CE413A"/>
<path d="M103.325 187.863L103.609 192.388L66.4154 128.172L66.1495 123.647L103.325 187.863Z" fill="#CE413A"/>
<path d="M102.918 187.863L103.201 192.388L66.0077 128.172L65.7418 123.647L102.918 187.863Z" fill="#AF1912"/>
<path d="M66.2382 168.031L66.2737 170.294L100.95 146.538L100.914 144.293L66.2382 168.031Z" fill="#AF1912"/>
<path d="M65.0857 182.278L66.9294 183.321V66.5556L65.0857 65.5127V182.278Z" fill="#AF1912"/>
<path d="M66.9294 183.321L68.7554 182.278V65.5127L66.9294 66.5556V183.321Z" fill="#CE413A"/>
<path d="M68.7554 65.5127L66.9294 66.5555L65.0856 65.5127L66.9294 64.4521L68.7554 65.5127Z" fill="#DD5E5B"/>
<path d="M84.2676 108.359C84.2676 108.571 84.1258 108.659 83.9485 108.553C83.8562 108.493 83.7793 108.412 83.7239 108.317C83.6685 108.221 83.6361 108.115 83.6294 108.005C83.6294 107.793 83.7712 107.705 83.9485 107.811C84.0408 107.871 84.1176 107.952 84.173 108.047C84.2284 108.142 84.2608 108.249 84.2676 108.359Z" fill="#CE413A"/>
<path d="M84.2676 157.479C84.2676 157.673 84.1258 157.762 83.9485 157.656C83.8531 157.599 83.7737 157.519 83.7179 157.423C83.6621 157.327 83.6316 157.219 83.6294 157.108C83.6294 156.913 83.7712 156.825 83.9485 156.931C84.0439 156.988 84.1232 157.068 84.179 157.164C84.2349 157.26 84.2653 157.368 84.2676 157.479Z" fill="#CE413A"/>
<path d="M100.259 202.428L102.102 203.489V86.7059L100.259 85.6631V202.428Z" fill="#AF1912"/>
<path d="M102.102 203.489L103.928 202.428V85.6631L102.102 86.7059V203.489Z" fill="#CE413A"/>
<path d="M103.928 85.6631L102.102 86.7059L100.258 85.6631L102.102 84.6025L103.928 85.6631Z" fill="#DD5E5B"/>
<path d="M74.9155 49.8048V49.8138M74.9156 47.1019C74.9156 42.582 78.5314 44.39 78.5314 40.7741C78.5314 38.7771 76.9125 37.1582 74.9155 37.1582C73.2307 37.1582 71.815 38.3106 71.4136 39.8701" stroke="#001A72" stroke-width="2" stroke-linecap="round"/>
</g>
<g clip-path="url(#clip1_2809_6432)">
<path d="M58.1662 128.501L58.2016 130.746L92.8779 107.007L92.8247 104.763L58.1662 128.501Z" fill="#CE413A"/>
<path d="M95.218 147.838L95.4839 152.38L58.3079 88.1646L58.042 83.6396L95.218 147.838Z" fill="#CE413A"/>
<path d="M94.8102 147.838L95.0762 152.38L57.9002 88.1646L57.6343 83.6396L94.8102 147.838Z" fill="#AF1912"/>
<path d="M58.1131 128.024L58.1662 130.268L92.8425 106.53L92.7893 104.285L58.1131 128.024Z" fill="#AF1912"/>
<path d="M58.1662 177.374L58.2016 179.637L92.8779 155.881L92.8247 153.636L58.1662 177.374Z" fill="#CE413A"/>
<path d="M95.218 196.728L95.4839 201.253L58.3079 137.038L58.042 132.513L95.218 196.728Z" fill="#CE413A"/>
<path d="M94.8102 196.728L95.0762 201.253L57.9002 137.038L57.6343 132.513L94.8102 196.728Z" fill="#AF1912"/>
<path d="M58.1131 176.914L58.1662 179.159L92.8425 155.421L92.7893 153.158L58.1131 176.914Z" fill="#AF1912"/>
<path d="M56.9783 191.143L58.822 192.204V75.4385L56.9783 74.3779V191.143Z" fill="#AF1912"/>
<path d="M58.8222 192.204L60.6482 191.143V74.3779L58.8222 75.4385V192.204Z" fill="#CE413A"/>
<path d="M60.6482 74.3779L58.8222 75.4385L56.9785 74.3779L58.8222 73.3174L60.6482 74.3779Z" fill="#DD5E5B"/>
<path d="M76.1602 117.241C76.1602 117.436 76.0183 117.524 75.8411 117.418C75.7488 117.358 75.6719 117.277 75.6165 117.182C75.5611 117.087 75.5287 116.98 75.5219 116.87C75.5219 116.658 75.6638 116.588 75.8411 116.676C75.9347 116.739 76.0123 116.823 76.0677 116.921C76.1231 117.019 76.1547 117.129 76.1602 117.241Z" fill="#CE413A"/>
<path d="M76.1602 166.344C76.1602 166.556 76.0183 166.627 75.8411 166.539C75.7474 166.476 75.6698 166.392 75.6145 166.294C75.5591 166.195 75.5274 166.086 75.5219 165.973C75.5219 165.779 75.6638 165.69 75.8411 165.796C75.9333 165.857 76.0102 165.938 76.0656 166.033C76.121 166.128 76.1534 166.234 76.1602 166.344Z" fill="#CE413A"/>
<path d="M92.1511 211.294L93.9949 212.354V95.5889L92.1511 94.5283V211.294Z" fill="#AF1912"/>
<path d="M93.9948 212.354L95.8208 211.294V94.5283L93.9948 95.5889V212.354Z" fill="#CE413A"/>
<path d="M95.8208 94.5283L93.9948 95.5889L92.1511 94.5283L93.9948 93.4678L95.8208 94.5283Z" fill="#DD5E5B"/>
<path d="M35.4563 231.585L92.1687 198.001V201.784L35.4563 234.395V231.585Z" fill="#404040"/>
<path d="M35.4563 229.764L92.1687 196.181V199.963L35.4563 232.575V229.764Z" fill="#525252"/>
<path d="M22.834 224.885L79.5464 191.302V197.665L22.834 227.714V224.885Z" fill="#404040"/>
<path d="M10.1582 217.621L66.8706 184.037V190.4L10.1582 220.449V217.621Z" fill="#404040"/>
<path d="M92.1687 196.181L35.4563 229.765L3.66971 211.47L60.648 178.806L92.1687 196.181Z" fill="#7F7F7F"/>
<path d="M10.2114 220.45L3.31517 216.473V213.468L10.2114 217.445V220.45Z" fill="#212121"/>
<path d="M35.4563 234.979L28.56 231.002V227.997L35.4563 231.974V234.979Z" fill="#212121"/>
<path d="M22.834 227.714L15.9377 223.737V220.732L22.834 224.709V227.714Z" fill="#212121"/>
<path d="M35.4563 232.769L3.31514 214.263V211.275L35.4563 229.764V232.769Z" fill="#303030"/>
<path d="M39.0376 227.749L7.32191 209.49L6.38231 210.038L38.1157 228.297L39.0376 227.749Z" fill="#6E6E6E"/>
<path d="M42.9377 225.434L11.2752 207.21L10.3356 207.758L42.0159 225.981L42.9377 225.434Z" fill="#6E6E6E"/>
<path d="M46.8379 223.136L15.2463 204.93L14.3067 205.478L45.916 223.684L46.8379 223.136Z" fill="#6E6E6E"/>
<path d="M50.738 220.821L19.1996 202.65L18.26 203.198L49.8162 221.369L50.738 220.821Z" fill="#6E6E6E"/>
<path d="M54.656 218.505L23.1531 200.388L22.2135 200.918L53.7341 219.053L54.656 218.505Z" fill="#6E6E6E"/>
<path d="M58.5562 216.19L27.1064 198.107L26.1845 198.638L57.6343 216.738L58.5562 216.19Z" fill="#6E6E6E"/>
<path d="M62.4563 213.892L31.0774 195.827L30.1379 196.357L61.5344 214.44L62.4563 213.892Z" fill="#6E6E6E"/>
<path d="M66.3567 211.576L35.031 193.547L34.0914 194.077L65.4348 212.124L66.3567 211.576Z" fill="#6E6E6E"/>
<path d="M70.2568 209.26L38.9844 191.267L38.0625 191.797L69.335 209.808L70.2568 209.26Z" fill="#6E6E6E"/>
<path d="M74.157 206.962L42.9554 188.986L42.0158 189.517L73.2351 207.493L74.157 206.962Z" fill="#6E6E6E"/>
<path d="M78.075 204.648L46.9088 186.707L45.9692 187.237L77.1531 205.196L78.075 204.648Z" fill="#6E6E6E"/>
<path d="M81.9751 202.332L50.8622 184.427L49.9226 184.975L81.0532 202.88L81.9751 202.332Z" fill="#6E6E6E"/>
<path d="M85.8752 200.017L54.8332 182.146L53.8936 182.694L84.9534 200.564L85.8752 200.017Z" fill="#6E6E6E"/>
<path d="M89.7754 197.719L58.7866 179.866L57.847 180.414L88.8535 198.267L89.7754 197.719Z" fill="#6E6E6E"/>
<path d="M35.4563 184.179L92.1687 150.596V154.361L35.4563 186.99V184.179Z" fill="#404040"/>
<path d="M35.4563 182.358L92.1687 148.774V152.539L35.4563 185.169V182.358Z" fill="#525252"/>
<path d="M22.834 177.48L79.5464 143.896V150.26L22.834 180.291V177.48Z" fill="#404040"/>
<path d="M10.1582 170.216L66.8706 136.632V142.995L10.1582 173.044V170.216Z" fill="#404040"/>
<path d="M92.1687 148.775L35.4563 182.359L3.66971 164.064L60.648 131.329L92.1687 148.775Z" fill="#7F7F7F"/>
<path d="M10.2114 173.043L3.31517 169.066V166.062L10.2114 170.039V173.043Z" fill="#212121"/>
<path d="M35.4563 187.555L28.56 183.596V180.591L35.4563 184.568V187.555Z" fill="#212121"/>
<path d="M22.834 180.29L15.9377 176.331V173.326L22.834 177.303V180.29Z" fill="#212121"/>
<path d="M35.4563 185.345L3.31514 166.856V163.852L35.4563 182.358V185.345Z" fill="#303030"/>
<path d="M39.0376 180.343L7.32191 162.084L6.38231 162.632L38.1157 180.891L39.0376 180.343Z" fill="#6E6E6E"/>
<path d="M42.9377 178.028L11.2752 159.805L10.3356 160.353L42.0159 178.576L42.9377 178.028Z" fill="#6E6E6E"/>
<path d="M46.8379 175.73L15.2463 157.524L14.3067 158.072L45.916 176.261L46.8379 175.73Z" fill="#6E6E6E"/>
<path d="M50.738 173.415L19.1996 155.244L18.26 155.792L49.8162 173.963L50.738 173.415Z" fill="#6E6E6E"/>
<path d="M54.656 171.099L23.1531 152.964L22.2135 153.512L53.7341 171.647L54.656 171.099Z" fill="#6E6E6E"/>
<path d="M58.5562 168.783L27.1064 150.701L26.1845 151.231L57.6343 169.331L58.5562 168.783Z" fill="#6E6E6E"/>
<path d="M62.4563 166.485L31.0774 148.421L30.1379 148.951L61.5344 167.033L62.4563 166.485Z" fill="#6E6E6E"/>
<path d="M66.3567 164.17L35.031 146.141L34.0914 146.671L65.4348 164.718L66.3567 164.17Z" fill="#6E6E6E"/>
<path d="M70.2568 161.855L38.9844 143.861L38.0625 144.392L69.335 162.403L70.2568 161.855Z" fill="#6E6E6E"/>
<path d="M74.157 159.539L42.9554 141.581L42.0158 142.111L73.2351 160.087L74.157 159.539Z" fill="#6E6E6E"/>
<path d="M78.075 157.242L46.9088 139.301L45.9692 139.831L77.1531 157.789L78.075 157.242Z" fill="#6E6E6E"/>
<path d="M81.9751 154.926L50.8622 137.021L49.9226 137.551L81.0532 155.474L81.9751 154.926Z" fill="#6E6E6E"/>
<path d="M85.8752 152.61L54.8332 134.74L53.8936 135.271L84.9534 153.158L85.8752 152.61Z" fill="#6E6E6E"/>
<path d="M89.7754 150.295L58.7866 132.46L57.847 133.008L88.8535 150.843L89.7754 150.295Z" fill="#6E6E6E"/>
<path d="M35.4563 136.596L92.1687 103.013V106.795L35.4563 139.425V136.596Z" fill="#404040"/>
<path d="M35.4563 134.775L92.1687 101.191V104.974L35.4563 137.603V134.775Z" fill="#525252"/>
<path d="M22.834 129.897L79.5464 96.3311V102.677L22.834 132.725V129.897Z" fill="#404040"/>
<path d="M10.1582 122.65L66.8706 89.0664V95.412L10.1582 125.461V122.65Z" fill="#404040"/>
<path d="M92.1687 101.192L35.4563 134.776L3.66971 116.499L60.648 83.5693L92.1687 101.192Z" fill="#7F7F7F"/>
<path d="M10.2114 125.46L3.31517 121.483V118.496L10.2114 122.455V125.46Z" fill="#212121"/>
<path d="M35.4563 139.99L28.56 136.013V133.008L35.4563 136.985V139.99Z" fill="#212121"/>
<path d="M22.834 132.725L15.9377 128.748V125.743L22.834 129.72V132.725Z" fill="#212121"/>
<path d="M35.4563 137.781L3.31514 119.274V116.287L35.4563 134.776V137.781Z" fill="#303030"/>
<path d="M39.0376 132.761L7.32191 114.502L6.38231 115.05L38.1157 133.309L39.0376 132.761Z" fill="#6E6E6E"/>
<path d="M42.9377 130.463L11.2752 112.239L10.3356 112.77L42.0159 131.011L42.9377 130.463Z" fill="#6E6E6E"/>
<path d="M46.8379 128.147L15.2463 109.959L14.3067 110.489L45.916 128.695L46.8379 128.147Z" fill="#6E6E6E"/>
<path d="M50.738 125.832L19.1996 107.679L18.26 108.209L49.8162 126.38L50.738 125.832Z" fill="#6E6E6E"/>
<path d="M54.656 123.534L23.1531 105.398L22.2135 105.929L53.7341 124.064L54.656 123.534Z" fill="#6E6E6E"/>
<path d="M58.5562 121.218L27.1064 103.118L26.1845 103.648L57.6343 121.766L58.5562 121.218Z" fill="#6E6E6E"/>
<path d="M62.4563 118.902L31.0774 100.838L30.1379 101.368L61.5344 119.45L62.4563 118.902Z" fill="#6E6E6E"/>
<path d="M66.3567 116.588L35.031 98.5586L34.0914 99.1065L65.4348 117.136L66.3567 116.588Z" fill="#6E6E6E"/>
<path d="M70.2568 114.29L38.9844 96.2783L38.0625 96.8086L69.335 114.82L70.2568 114.29Z" fill="#6E6E6E"/>
<path d="M74.157 111.974L42.9554 93.998L42.0158 94.546L73.2351 112.522L74.157 111.974Z" fill="#6E6E6E"/>
<path d="M78.075 109.659L46.9088 91.7178L45.9692 92.2657L77.1531 110.206L78.075 109.659Z" fill="#6E6E6E"/>
<path d="M81.9751 107.343L50.8622 89.4375L49.9226 89.9854L81.0532 107.891L81.9751 107.343Z" fill="#6E6E6E"/>
<path d="M85.8752 105.045L54.8332 87.1572L53.8936 87.7052L84.9534 105.575L85.8752 105.045Z" fill="#6E6E6E"/>
<path d="M89.7754 102.729L58.7866 84.877L57.847 85.4249L88.8535 103.277L89.7754 102.729Z" fill="#6E6E6E"/>
<path d="M1.18791 161.218L1.2411 163.463L35.8997 139.724L35.8642 137.462L1.18791 161.218Z" fill="#CE413A"/>
<path d="M38.2398 180.555L38.5234 185.08L1.32975 120.882L1.06382 116.34L38.2398 180.555Z" fill="#CE413A"/>
<path d="M37.8321 180.555L38.1157 185.08L0.922035 120.882L0.656109 116.34L37.8321 180.555Z" fill="#AF1912"/>
<path d="M1.15251 160.741L1.18797 162.986L35.8643 139.248L35.8288 137.003L1.15251 160.741Z" fill="#AF1912"/>
<path d="M1.18791 210.092L1.2411 212.337L35.8997 188.598L35.8642 186.354L1.18791 210.092Z" fill="#CE413A"/>
<path d="M38.2398 229.446L38.5234 233.971L1.32975 169.755L1.06382 165.23L38.2398 229.446Z" fill="#CE413A"/>
<path d="M37.8321 229.446L38.1157 233.971L0.922035 169.755L0.656109 165.23L37.8321 229.446Z" fill="#AF1912"/>
<path d="M1.15251 209.614L1.18797 211.877L35.8643 188.121L35.8288 185.876L1.15251 209.614Z" fill="#AF1912"/>
<path d="M1.91927e-05 223.861L1.84375 224.904V108.139L1.91927e-05 107.096V223.861Z" fill="#AF1912"/>
<path d="M1.84392 224.904L3.66992 223.861V107.096L1.84392 108.139V224.904Z" fill="#CE413A"/>
<path d="M3.66992 107.096L1.84392 108.139L0.000192404 107.096L1.84392 106.035L3.66992 107.096Z" fill="#DD5E5B"/>
<path d="M19.1819 149.942C19.1819 150.154 19.0401 150.242 18.8628 150.136C18.7705 150.076 18.6936 149.995 18.6382 149.9C18.5828 149.805 18.5504 149.698 18.5437 149.588C18.5437 149.376 18.6855 149.288 18.8628 149.394C18.9551 149.454 19.0319 149.535 19.0873 149.63C19.1427 149.725 19.1751 149.832 19.1819 149.942Z" fill="#CE413A"/>
<path d="M19.1819 199.062C19.1819 199.256 19.0401 199.345 18.8628 199.239C18.7674 199.182 18.6881 199.102 18.6322 199.006C18.5764 198.91 18.5459 198.802 18.5437 198.691C18.5437 198.496 18.6855 198.408 18.8628 198.514C18.9582 198.571 19.0375 198.651 19.0933 198.747C19.1492 198.843 19.1796 198.951 19.1819 199.062Z" fill="#CE413A"/>
<path d="M35.1729 244.011L37.0166 245.072V128.289L35.1729 127.246V244.011Z" fill="#AF1912"/>
<path d="M37.0165 245.072L38.8425 244.011V127.246L37.0165 128.289V245.072Z" fill="#CE413A"/>
<path d="M38.8425 127.246L37.0165 128.289L35.1728 127.246L37.0165 126.186L38.8425 127.246Z" fill="#DD5E5B"/>
</g>
<path d="M227.686 13.6466V13.6556M227.686 10.9437C227.686 6.42381 231.302 8.23175 231.302 4.61588C231.302 2.61888 229.683 1 227.686 1C226.001 1 224.586 2.15236 224.184 3.71191" stroke="#001A72" stroke-width="2" stroke-linecap="round"/>
<path d="M305.428 210.712V210.721M305.428 208.009C305.428 203.489 309.044 205.297 309.044 201.681C309.044 199.684 307.425 198.065 305.428 198.065C303.743 198.065 302.327 199.218 301.926 200.777" stroke="#001A72" stroke-width="2" stroke-linecap="round"/>
<g style="mix-blend-mode:soft-light" opacity="0.3">
<path d="M315.295 289.191C310.568 286.479 302.414 286.75 297.071 289.832C291.729 292.915 291.241 297.625 295.959 300.355C300.678 303.085 308.841 302.795 314.183 299.713C319.526 296.63 320.023 291.921 315.295 289.191Z" fill="black"/>
<path d="M295.697 290.754L286.314 285.33L283.078 287.192L293.446 293.177C294.031 292.23 294.796 291.406 295.697 290.754Z" fill="black"/>
<path d="M284.615 276.58L278.224 272.892L288.294 267.079L242.779 240.801L200.681 265.099L246.196 291.387L255.29 286.135L265.098 287.852L274.228 285.394L280.221 288.847L288.429 284.11L280.004 279.247L284.615 276.58Z" fill="black"/>
</g>
<path d="M262.865 278.993L219.791 254.125L217.893 255.219L262.865 281.181V278.993Z" fill="#FC9C11"/>
<path d="M262.865 278.993L219.791 254.125L223.822 251.793L263.208 274.537L262.865 275.459V278.993Z" fill="#FFC50C"/>
<path d="M223.822 251.793L219.791 254.125L258.878 276.688L262.91 274.365L223.822 251.793Z" fill="#E88606"/>
<path d="M287.968 259.034L291.503 257L249.731 232.882L246.196 234.916L287.968 259.034Z" fill="#CC9545"/>
<path d="M248.917 281.588L252.442 279.545L210.67 255.427L207.144 257.47L248.917 281.588Z" fill="#CC9545"/>
<path d="M268.442 270.306L271.968 268.272L230.204 244.154L226.67 246.188L268.442 270.306Z" fill="#CC9545"/>
<path d="M287.968 263.418V259.034L246.196 234.916V239.3L287.968 263.418Z" fill="#A36A01"/>
<path d="M248.917 285.963L252.442 283.929V279.545L248.917 281.588V285.963Z" fill="#975E0D"/>
<path d="M248.917 285.963V281.588L207.144 257.47V261.854L248.917 285.963Z" fill="#BD8A39"/>
<path d="M268.442 274.691V270.306L226.67 246.188V250.573L268.442 274.691Z" fill="#A36A01"/>
<path d="M242.725 276.643L248.917 280.213L291.503 255.634L285.311 252.055L242.725 276.643Z" fill="#DFAA5C"/>
<path d="M291.503 255.635V257L248.917 281.588V280.214L291.503 255.635Z" fill="#975E0D"/>
<path d="M248.917 280.214V281.588L242.724 278.009V276.644L248.917 280.214Z" fill="#BD8A39"/>
<path d="M233.829 271.509L240.022 275.08L282.599 250.501L276.415 246.921L233.829 271.509Z" fill="#DFAA5C"/>
<path d="M282.599 250.5V251.865L240.022 276.444V275.079L282.599 250.5Z" fill="#BF7E00"/>
<path d="M240.021 275.079V276.444L233.829 272.874V271.509L240.021 275.079Z" fill="#BD8A39"/>
<path d="M224.934 266.374L231.127 269.945L273.704 245.357L267.52 241.786L224.934 266.374Z" fill="#DFAA5C"/>
<path d="M273.713 245.356V246.73L231.127 271.309V269.944L273.713 245.356Z" fill="#BF7E00"/>
<path d="M231.127 269.945V271.31L224.935 267.739V266.374L231.127 269.945Z" fill="#BD8A39"/>
<path d="M216.039 261.239L222.231 264.81L264.808 240.222L258.625 236.651L216.039 261.239Z" fill="#DFAA5C"/>
<path d="M264.808 240.223V241.588L222.231 266.176V264.811L264.808 240.223Z" fill="#BF7E00"/>
<path d="M222.231 264.81V266.175L216.039 262.604V261.239L222.231 264.81Z" fill="#BD8A39"/>
<path d="M207.144 256.105L213.337 259.675L255.914 235.087L249.73 231.517L207.144 256.105Z" fill="#DFAA5C"/>
<path d="M255.914 235.088V236.453L213.337 261.041V259.676L255.914 235.088Z" fill="#BF7E00"/>
<path d="M213.336 259.676V261.041L207.144 257.47V256.105L213.336 259.676Z" fill="#BD8A39"/>
<path d="M291.503 256.999V261.383L287.968 263.417V259.033L291.503 256.999Z" fill="#975E0D"/>
<path d="M271.968 268.272V272.657L268.442 274.691V270.306L271.968 268.272Z" fill="#975E0D"/>
<path d="M300.009 240.738C300.235 240.443 300.377 240.092 300.42 239.723C300.463 239.354 300.405 238.98 300.253 238.641C300.096 238.316 299.868 238.031 299.587 237.806C299.305 237.581 298.977 237.421 298.626 237.339C298.248 237.248 297.894 237.078 297.586 236.842C297.234 236.516 296.99 235.847 296.52 235.766C296.417 235.743 296.31 235.751 296.212 235.789C296.114 235.827 296.03 235.894 295.97 235.981C295.911 236.068 295.879 236.17 295.879 236.275C295.878 236.381 295.909 236.483 295.968 236.571C296.186 237.041 296.493 237.465 296.872 237.818C297.107 238.144 297.08 238.65 297.297 238.984C297.595 239.413 298.028 239.731 298.527 239.888L300.009 240.738Z" fill="#FFCEA1"/>
<path d="M294.007 240.014C293.284 239.96 292.768 239.517 292.985 239.11C292.551 238.993 292.199 238.252 292.768 237.962C292.434 237.628 293.139 237.058 293.672 237.058C294.432 237.058 294.477 237.004 294.703 236.995C295.188 237.002 295.67 237.065 296.14 237.185C296.629 237.289 297.095 237.482 297.514 237.754C298.617 238.496 299.819 239.065 300.316 240.295C300.184 240.627 299.97 240.922 299.696 241.152C299.422 241.383 299.094 241.541 298.743 241.614C298.401 241.692 298.047 241.699 297.702 241.635C297.357 241.572 297.029 241.438 296.737 241.244C296.213 240.941 295.615 240.79 295.01 240.81C293.925 240.747 293.736 240.132 294.007 240.014Z" fill="#FFCEA1"/>
<path d="M299.205 241.56C299.111 241.037 299.167 240.498 299.367 240.005C299.597 239.44 300.011 238.968 300.542 238.667C300.905 238.455 301.311 238.33 301.73 238.302C302.149 238.274 302.569 238.343 302.956 238.505L312.737 242.527C313.124 242.686 313.468 242.931 313.744 243.245C314.02 243.559 314.22 243.932 314.328 244.335C314.362 244.42 314.386 244.508 314.4 244.597C314.414 244.766 314.414 244.935 314.4 245.104C314.405 245.185 314.405 245.266 314.4 245.348V245.547C314.368 245.755 314.311 245.958 314.229 246.152C314.096 246.493 313.896 246.804 313.64 247.065C313.384 247.327 313.078 247.534 312.741 247.674C312.403 247.814 312.04 247.884 311.675 247.881C311.309 247.877 310.948 247.8 310.613 247.653L306.762 246.008L305.171 245.357L300.895 243.603C300.465 243.431 300.085 243.153 299.79 242.797C299.495 242.44 299.293 242.015 299.205 241.56Z" fill="#CBBBA0"/>
<path d="M309.121 245.339C309.152 245.705 309.257 246.061 309.43 246.386C309.603 246.71 309.839 246.996 310.126 247.226C310.413 247.455 310.743 247.625 311.097 247.723C311.451 247.822 311.821 247.847 312.185 247.798C313.695 247.635 314.744 245.746 314.572 244.236L313.27 234.853C313.188 234.127 312.822 233.463 312.25 233.007C311.679 232.551 310.95 232.34 310.224 232.421C309.863 232.457 309.512 232.565 309.194 232.739C308.875 232.912 308.594 233.148 308.368 233.432C308.142 233.716 307.976 234.043 307.878 234.392C307.781 234.742 307.755 235.108 307.801 235.468L309.121 245.339Z" fill="#CBBBA0"/>
<path d="M270.052 266.699L283.412 258.979L287.3 265.154V270.885L266.165 283.088V277.357L270.052 266.699Z" fill="#E88606"/>
<path d="M280.113 257.072L283.412 258.98L270.051 266.7L266.743 264.792L280.113 257.072Z" fill="#FFC50C"/>
<path d="M266.743 264.792L270.052 266.699L266.165 277.357L262.865 275.45L266.743 264.792Z" fill="#FED839"/>
<path d="M266.164 277.357V283.088L262.865 281.18V275.449L266.164 277.357Z" fill="#FC9C11"/>
<path d="M283.394 279.184L278.16 276.165V267.938L282.093 270.207L284.886 276.617V278.334C284.923 278.521 284.901 278.714 284.822 278.887C284.744 279.06 284.612 279.204 284.447 279.298C284.282 279.392 284.091 279.432 283.902 279.411C283.713 279.391 283.535 279.311 283.394 279.184Z" fill="#30281F"/>
<path d="M283.448 269.42L286.241 275.829L284.886 276.616L282.092 270.197L283.448 269.42Z" fill="#574A35"/>
<path d="M284.886 278.333V276.616L286.242 275.829V277.547C286.259 277.73 286.228 277.915 286.152 278.084C286.076 278.252 285.957 278.397 285.808 278.505L284.452 279.291C284.601 279.183 284.72 279.038 284.796 278.87C284.872 278.702 284.903 278.517 284.886 278.333Z" fill="#4C412F"/>
<path d="M283.864 278.189C282.228 275.36 279.588 273.832 277.952 274.772L279.543 273.868C281.17 272.964 283.819 274.456 285.446 277.276C287.073 280.096 287.082 283.161 285.446 284.101L283.864 285.005C285.491 284.065 285.491 281.009 283.864 278.189Z" fill="black"/>
<path d="M277.952 281.596C279.589 284.426 282.228 285.954 283.864 285.014C285.501 284.073 285.492 281.009 283.864 278.189C282.237 275.368 279.589 273.831 277.952 274.772C276.316 275.712 276.325 278.785 277.952 281.596Z" fill="#292929"/>
<path d="M277.339 280.728C276.233 278.803 276.238 276.726 277.35 276.087C278.461 275.448 280.259 276.489 281.365 278.413C282.471 280.338 282.466 282.416 281.354 283.055C280.242 283.694 278.444 282.652 277.339 280.728Z" fill="#DBC3A1"/>
<path d="M279.299 280.819C280.203 282.365 281.631 283.197 282.517 282.681C283.403 282.166 283.421 280.503 282.517 278.966C281.613 277.429 280.185 276.589 279.299 277.104C278.413 277.619 278.413 279.282 279.299 280.819Z" fill="#5E503A"/>
<path d="M279.091 277.258C279.217 277.14 279.368 277.053 279.534 277.005L280.601 278.858V277.113C280.707 277.155 280.81 277.207 280.908 277.267C281.016 277.325 281.119 277.391 281.215 277.466V279.211L282.282 278.596C282.452 278.832 282.6 279.083 282.725 279.346L281.658 279.97L283.168 280.874C283.168 281 283.168 281.127 283.168 281.245C283.168 281.362 283.168 281.48 283.168 281.588L281.658 280.684L282.725 282.492C282.601 282.612 282.449 282.699 282.282 282.745L281.215 280.892V282.637C281.109 282.595 281.006 282.543 280.908 282.483C280.8 282.425 280.698 282.359 280.601 282.284V280.594L279.534 281.208C279.367 280.97 279.219 280.719 279.091 280.458L280.167 279.834L278.657 278.93C278.649 278.807 278.649 278.683 278.657 278.56C278.648 278.445 278.648 278.331 278.657 278.216L280.167 279.12L279.091 277.258Z" fill="#DBC3A1"/>
<path d="M279.172 281.624L273.929 278.605V270.379L277.835 272.648L280.628 279.057V280.775C280.645 280.958 280.615 281.143 280.538 281.311C280.462 281.48 280.344 281.625 280.194 281.733C280.029 281.806 279.848 281.834 279.669 281.815C279.489 281.796 279.318 281.73 279.172 281.624Z" fill="#3D3838"/>
<path d="M279.525 267.151L283.448 269.42L277.862 272.638L273.938 270.369L279.525 267.151Z" fill="#8F8080"/>
<path d="M279.227 271.861L282.011 278.27L280.655 279.048L277.862 272.639L279.227 271.861Z" fill="#574A35"/>
<path d="M280.655 280.775V279.057L282.011 278.271V279.988C282.031 280.172 282.002 280.358 281.926 280.527C281.849 280.695 281.729 280.84 281.577 280.946L280.221 281.733C280.371 281.625 280.49 281.479 280.566 281.311C280.642 281.143 280.673 280.958 280.655 280.775Z" fill="#4C412F"/>
<path d="M279.227 271.862L282.093 270.198L282.969 272.205L280.095 273.868L279.227 271.862Z" fill="#574A35"/>
<path d="M277.256 268.462L279.643 269.818V268.67C279.635 268.228 279.524 267.794 279.319 267.403C279.113 267.012 278.818 266.675 278.458 266.419C278.348 266.34 278.218 266.292 278.083 266.281C277.948 266.27 277.812 266.295 277.69 266.355C277.545 266.464 277.431 266.609 277.359 266.775C277.288 266.942 277.262 267.125 277.283 267.305L277.256 268.462Z" fill="#5E503A"/>
<path d="M278.431 266.419C278.321 266.34 278.191 266.292 278.056 266.281C277.921 266.27 277.785 266.296 277.663 266.355L278.269 266.003C278.39 265.943 278.526 265.917 278.662 265.928C278.797 265.939 278.927 265.987 279.037 266.066C279.396 266.323 279.691 266.66 279.896 267.051C280.102 267.442 280.213 267.876 280.221 268.317V269.474L279.616 269.818V268.67C279.608 268.228 279.497 267.794 279.292 267.403C279.086 267.012 278.791 266.675 278.431 266.419Z" fill="#78664A"/>
<path d="M277.835 267.423C277.835 267.025 278.115 266.872 278.45 267.061C278.631 267.179 278.782 267.338 278.89 267.525C278.998 267.712 279.061 267.921 279.073 268.137C279.073 268.526 278.793 268.689 278.45 268.49C278.271 268.372 278.123 268.214 278.016 268.029C277.909 267.844 277.847 267.636 277.835 267.423Z" fill="black"/>
<path d="M289.225 244.887L287.797 245.049L276.904 268.562L277.808 269.529L289.225 244.887Z" fill="#E54545"/>
<path d="M292.443 240.158C293.243 239.499 293.909 238.692 294.404 237.781L294.676 237.202L294.766 237.148C295.335 236.823 295.742 236.759 295.896 236.922C296.05 237.085 295.995 237.266 295.842 237.6L295.308 238.757C294.808 239.665 294.143 240.472 293.347 241.135L290.544 243.566L291.909 240.628L292.443 240.158Z" fill="#3E3E3E"/>
<path d="M286.874 243.368L288.682 243.16L289.586 244.127L287.778 244.335C287.699 244.352 287.617 244.35 287.538 244.33C287.46 244.309 287.387 244.271 287.326 244.218L286.422 243.251C286.483 243.304 286.556 243.343 286.634 243.363C286.713 243.384 286.795 243.385 286.874 243.368Z" fill="#3E3E3E"/>
<path d="M289.225 244.888L290.192 244.327L278.775 268.969L277.808 269.53L289.225 244.888Z" fill="#B01A1C"/>
<path d="M286.63 243.767L287.164 242.628C288.003 241.135 289.219 239.889 290.689 239.012L295.073 236.481C296.475 235.676 297.18 235.965 296.637 237.132L296.104 238.289C295.441 239.504 294.551 240.581 293.482 241.461L290.192 244.327L289.225 244.878L287.137 245.123C286.395 245.222 286.196 244.698 286.63 243.767ZM293.347 241.136C294.143 240.473 294.809 239.667 295.308 238.759L295.842 237.602C296.222 236.788 295.733 236.598 294.766 237.15L293.058 238.108L290.545 243.532L293.347 241.136ZM287.778 244.336L289.586 244.128L292.099 238.704L290.391 239.69C289.383 240.289 288.549 241.139 287.968 242.158L287.426 243.315C287.1 244.011 287.245 244.436 287.778 244.336Z" fill="#292929"/>
<path d="M292.09 238.694L289.577 244.118L288.673 243.151L290.237 239.761L290.382 239.671L292.09 238.694Z" fill="#525252"/>
<path d="M285.726 242.799L286.26 241.642C287.099 240.149 288.315 238.903 289.785 238.026L294.17 235.495C294.992 235.015 295.58 234.925 295.806 235.169L296.71 236.136C296.484 235.892 295.905 235.992 295.074 236.462L290.689 238.993C289.219 239.87 288.003 241.116 287.164 242.609L286.63 243.766C286.359 244.344 286.332 244.769 286.54 244.986L285.636 244.019C285.428 243.802 285.455 243.377 285.726 242.799Z" fill="#525252"/>
<path d="M275.593 269.42L277.952 270.776V269.628C277.947 269.187 277.837 268.754 277.633 268.363C277.429 267.972 277.136 267.634 276.777 267.377C276.665 267.298 276.534 267.251 276.397 267.24C276.26 267.229 276.123 267.254 276 267.314C275.856 267.424 275.744 267.57 275.672 267.736C275.601 267.902 275.574 268.084 275.593 268.263V269.42Z" fill="#5E503A"/>
<path d="M276.777 267.377C276.665 267.298 276.533 267.251 276.397 267.24C276.26 267.229 276.123 267.254 275.999 267.314L276.605 266.962C276.728 266.902 276.866 266.876 277.002 266.887C277.139 266.898 277.27 266.946 277.382 267.025C277.741 267.282 278.034 267.62 278.238 268.011C278.442 268.402 278.551 268.835 278.558 269.276V270.433L277.952 270.776V269.628C277.946 269.187 277.837 268.754 277.633 268.363C277.429 267.972 277.136 267.634 276.777 267.377Z" fill="#78664A"/>
<path d="M276.153 268.381C276.153 267.983 276.433 267.83 276.777 268.019C276.955 268.139 277.104 268.298 277.211 268.485C277.317 268.672 277.379 268.881 277.392 269.095C277.392 269.484 277.111 269.647 276.777 269.448C276.595 269.333 276.444 269.176 276.335 268.99C276.227 268.804 276.164 268.596 276.153 268.381Z" fill="black"/>
<path d="M307.087 291.441C307.087 289.914 308.895 289.064 311.607 289.769L314.319 289.145C314.533 289.088 314.757 289.081 314.974 289.125C315.191 289.169 315.395 289.262 315.57 289.398C315.745 289.534 315.886 289.708 315.983 289.907C316.079 290.106 316.129 290.325 316.127 290.546V294.162C316.128 294.355 316.071 294.544 315.965 294.705C315.859 294.866 315.708 294.991 315.53 295.066C315.063 295.302 314.548 295.425 314.025 295.425C313.502 295.425 312.986 295.302 312.52 295.066L307.819 292.354C307.643 292.276 307.492 292.149 307.383 291.99C307.275 291.83 307.213 291.643 307.204 291.45L307.087 291.441Z" fill="black"/>
<path d="M314.129 273.868L306.735 273.968V273.805L306.617 265.299L306.472 254.514L313.858 254.379C314.401 256.408 314.68 258.498 314.689 260.598C314.689 264.06 314.011 266.112 314.102 272.259L314.129 273.868Z" fill="#0258BF"/>
<path d="M306.762 273.814C306.924 272.476 307.892 270.198 309.193 269.89C310.304 269.737 311.431 270.019 312.339 270.677C313.017 271.066 313.731 273.208 314.147 273.868C314.21 277.086 315.187 283.432 316.416 290.338C316.421 290.66 316.339 290.977 316.18 291.257C316.021 291.536 315.791 291.768 315.512 291.929C314.762 292.416 313.908 292.719 313.02 292.815C312.131 292.91 311.232 292.796 310.396 292.481C310.089 292.382 309.814 292.204 309.6 291.964C309.385 291.724 309.239 291.431 309.175 291.116C308.877 290.374 306.581 275.17 306.762 273.814Z" fill="#0258BF"/>
<path d="M315.621 285.854L315.386 284.417C315.406 284.734 315.339 285.051 315.192 285.333C315.046 285.615 314.825 285.851 314.554 286.017C313.8 286.516 312.939 286.831 312.041 286.938C311.144 287.045 310.233 286.94 309.383 286.632C309.085 286.537 308.817 286.366 308.605 286.136C308.392 285.906 308.243 285.626 308.172 285.321L308.389 286.704C308.451 287.018 308.595 287.309 308.806 287.549C309.017 287.789 309.288 287.968 309.591 288.069C310.441 288.377 311.352 288.482 312.249 288.375C313.147 288.268 314.008 287.953 314.762 287.454C315.042 287.297 315.272 287.063 315.424 286.779C315.576 286.496 315.644 286.175 315.621 285.854Z" fill="#FFC50C"/>
<path opacity="0.2" d="M310.178 264.032C308.135 266.599 307.467 270.206 306.734 273.804L306.617 265.298C307.915 265.3 309.173 264.852 310.178 264.032Z" fill="#1D1D1B"/>
<path d="M297.496 297.055C297.496 295.518 299.304 294.678 302.016 295.383L304.249 294.867C304.519 294.8 304.802 294.797 305.074 294.857C305.346 294.918 305.601 295.04 305.818 295.215C306.035 295.39 306.209 295.613 306.326 295.866C306.442 296.12 306.499 296.397 306.49 296.675V299.767C306.488 299.959 306.43 300.146 306.325 300.306C306.219 300.467 306.069 300.593 305.894 300.671C305.427 300.907 304.912 301.03 304.389 301.03C303.866 301.03 303.35 300.907 302.884 300.671L298.174 297.959C297.997 297.883 297.845 297.757 297.738 297.596C297.63 297.436 297.572 297.248 297.568 297.055H297.496Z" fill="black"/>
<path d="M301.011 256.391L308.323 257.203L306.182 276.471L298.871 275.659L301.011 256.391Z" fill="#0258BF"/>
<path d="M298.708 277.375C298.847 276.728 299.182 276.139 299.667 275.688C300.152 275.237 300.764 274.946 301.419 274.853C302.538 274.792 303.638 275.16 304.493 275.884C305.179 276.478 305.731 277.211 306.111 278.035C305.84 281.814 306.5 290.049 306.888 296.115C306.838 296.431 306.704 296.729 306.501 296.976C306.297 297.224 306.032 297.414 305.731 297.525C304.908 297.879 304.013 298.033 303.119 297.975C302.225 297.917 301.358 297.648 300.588 297.19C300.288 297.055 300.032 296.84 299.845 296.569C299.659 296.298 299.55 295.982 299.53 295.654C299.358 294.894 298.445 278.695 298.708 277.375Z" fill="#0258BF"/>
<path d="M306.445 290.04C306.426 290.363 306.32 290.676 306.139 290.945C305.958 291.213 305.707 291.428 305.414 291.567C304.607 291.982 303.712 292.193 302.804 292.184C301.897 292.174 301.006 291.944 300.208 291.513C299.916 291.378 299.665 291.169 299.478 290.908C299.291 290.646 299.175 290.341 299.141 290.021L299.231 291.486C299.248 291.807 299.349 292.117 299.526 292.386C299.702 292.654 299.947 292.871 300.235 293.014C301.04 293.443 301.937 293.672 302.85 293.681C303.762 293.691 304.664 293.48 305.478 293.068C305.778 292.941 306.038 292.732 306.226 292.465C306.415 292.198 306.525 291.884 306.544 291.558L306.445 290.04Z" fill="#FFC50C"/>
<path d="M314.21 256.476C314.689 260.028 301.13 263.798 300.651 259.603C300.479 258.067 298.78 238.676 298.78 238.676C299.412 236.968 300.588 235.549 305.026 233.587C306.692 232.704 308.568 232.294 310.45 232.403C313.704 232.539 314.066 236.2 314.138 240.349C314.138 240.548 314.138 240.765 314.138 240.982C314.138 241.199 314.138 241.415 314.138 241.632C314.274 244.833 314.21 251.793 314.21 256.476Z" fill="#0258BF"/>
<path d="M302.603 237.013C304.954 238.27 304.556 241.19 304.574 243.802C304.592 246.414 302.766 246.405 300.615 245.736C300.211 245.609 299.796 245.518 299.376 245.465C299.042 241.714 298.78 238.676 298.78 238.676C298.975 238.132 299.255 237.623 299.611 237.167C300.04 236.85 300.552 236.667 301.084 236.639C301.616 236.612 302.145 236.742 302.603 237.013Z" fill="#CBBBA0"/>
<path d="M300.886 235.919C302.167 234.978 303.557 234.195 305.026 233.587C306.087 233.076 307.212 232.711 308.371 232.502C308.554 232.608 308.744 232.702 308.94 232.782C309.748 233.126 310.453 233.673 310.987 234.37C311.52 235.067 311.865 235.89 311.986 236.76C312.056 237.141 312.007 237.535 311.845 237.888C311.684 238.24 311.417 238.534 311.082 238.73L309.727 239.508C309.071 239.879 308.301 239.992 307.567 239.825C306.833 239.658 306.188 239.222 305.758 238.604L305.288 237.908C304.892 237.214 304.302 236.65 303.591 236.286C302.88 235.921 302.078 235.772 301.283 235.856C301.149 235.861 301.015 235.882 300.886 235.919Z" fill="#CBBBA0"/>
<path d="M308 227.304C307.987 228.121 307.896 228.936 307.729 229.736C307.566 230.536 307.198 231.28 306.662 231.896C306.033 232.574 305.163 232.979 304.24 233.026C303.937 233.048 303.633 233.03 303.336 232.972C303.05 232.926 302.779 232.818 302.54 232.656C302.195 232.366 301.946 231.978 301.826 231.544C301.826 231.444 301.763 231.354 301.736 231.254C301.144 229.025 300.942 226.71 301.139 224.411C301.153 224.069 301.205 223.73 301.293 223.399C301.482 222.928 301.797 222.519 302.204 222.216C302.61 221.913 303.093 221.728 303.598 221.681C304.613 221.605 305.628 221.818 306.527 222.296C306.786 222.401 307.024 222.551 307.232 222.739C307.422 222.92 307.557 223.155 307.729 223.354C307.997 224.652 308.088 225.981 308 227.304Z" fill="#FFCEA1"/>
<g style="mix-blend-mode:color-burn" opacity="0.1">
<path d="M304.412 231.11C304.412 231.598 304.412 232.095 304.412 232.583C304.435 232.684 304.435 232.79 304.412 232.891C304.386 232.941 304.352 232.987 304.312 233.026C304.01 233.048 303.706 233.03 303.408 232.972C303.123 232.926 302.851 232.818 302.613 232.656C302.267 232.366 302.018 231.978 301.899 231.544C302.802 232.448 303.453 231.679 303.706 229.085C303.806 230.296 304.412 229.89 304.412 231.11Z" fill="#1D1D1B"/>
</g>
<path d="M303.643 226.88H309.338V234.247H303.643V226.88Z" fill="#FFCEA1"/>
<path d="M308.515 232.881C308.76 232.963 308.973 233.12 309.123 233.329C309.274 233.538 309.355 233.789 309.355 234.047C309.355 234.305 309.274 234.557 309.123 234.766C308.973 234.975 308.76 235.132 308.515 235.214C307.89 235.53 307.2 235.694 306.499 235.694C305.799 235.694 305.108 235.53 304.483 235.214C304.239 235.132 304.026 234.975 303.875 234.766C303.725 234.557 303.643 234.305 303.643 234.047C303.643 233.789 303.725 233.538 303.875 233.329C304.026 233.12 304.239 232.963 304.483 232.881C305.108 232.565 305.799 232.4 306.499 232.4C307.2 232.4 307.89 232.565 308.515 232.881Z" fill="#FFCEA1"/>
<path d="M302.359 225.153C302.753 225.412 303.079 225.763 303.307 226.176C303.535 226.588 303.66 227.05 303.67 227.521C303.752 228.48 303.616 229.456 303.67 230.423C303.676 230.907 303.796 231.384 304.019 231.814C304.242 232.244 304.562 232.616 304.954 232.9C305.565 233.201 306.246 233.329 306.924 233.271C307.828 233.271 308.986 233.207 309.32 232.367C313.795 221.519 306.924 220.76 306.111 220.687C303.263 220.443 299.783 222.224 301.139 224.475C301.392 224.837 302.07 224.99 302.359 225.153Z" fill="#3C3C3B"/>
<path d="M303.887 226.889C303.736 226.909 303.594 226.974 303.479 227.075C303.365 227.177 303.283 227.31 303.245 227.458C303.149 227.805 303.115 228.166 303.146 228.525C303.117 228.982 303.204 229.439 303.399 229.854C303.449 229.972 303.543 230.066 303.661 230.116C303.757 230.143 303.859 230.141 303.954 230.11C304.049 230.08 304.132 230.022 304.194 229.944C304.304 229.791 304.375 229.615 304.402 229.429C304.506 228.905 304.552 228.372 304.538 227.838C304.549 227.626 304.509 227.416 304.42 227.223C304.371 227.124 304.295 227.04 304.201 226.981C304.107 226.922 303.998 226.89 303.887 226.889Z" fill="#FFCEA1"/>
<path opacity="0.1" d="M302.766 252.2C302.276 253.385 301.369 254.349 300.217 254.912L299.955 251.947L304.014 240.195C304.122 244.968 303.372 250.763 302.766 252.2Z" fill="#1D1D1B"/>
<path d="M304.05 240.259L303.752 241.913L302.17 250.663C302.101 251.02 301.966 251.36 301.772 251.667C301.522 252.051 301.181 252.368 300.778 252.587C300.376 252.806 299.925 252.922 299.467 252.923C299.3 252.922 299.134 252.907 298.97 252.878C298.252 252.746 297.615 252.335 297.199 251.736C296.782 251.137 296.619 250.397 296.746 249.678L296.827 249.244L296.936 248.666L298.174 241.832L298.626 239.273C298.734 238.635 299.067 238.056 299.564 237.642C300.061 237.227 300.691 237.004 301.338 237.013C301.5 236.996 301.664 236.996 301.826 237.013C302.19 237.071 302.537 237.203 302.848 237.4C303.159 237.597 303.427 237.855 303.635 238.158C303.843 238.462 303.987 238.805 304.058 239.166C304.13 239.527 304.127 239.899 304.05 240.259Z" fill="#CBBBA0"/>
<path d="M286.874 242.898C286.795 242.603 286.776 242.296 286.82 241.994C286.844 241.76 286.95 241.542 287.118 241.379C287.161 241.328 287.216 241.29 287.278 241.268C287.34 241.246 287.406 241.24 287.471 241.252C287.616 241.298 287.67 241.478 287.697 241.641C287.697 241.939 287.796 242.238 287.851 242.545C287.876 242.976 287.946 243.403 288.059 243.82C287.697 243.693 287.01 243.304 286.874 242.898Z" fill="#FFCEA1"/>
<path d="M286.721 247.146C287.769 247.029 287.724 246.45 288.122 245.727C288.269 245.298 288.322 244.841 288.275 244.389C288.261 244.155 288.195 243.927 288.08 243.722C287.966 243.517 287.807 243.34 287.616 243.205C287.234 242.935 286.813 242.725 286.368 242.581C286.07 242.464 285.771 242.184 285.464 242.075C284.614 241.768 284.325 242.627 284.958 242.916C284.896 242.87 284.825 242.837 284.749 242.82C284.673 242.803 284.595 242.802 284.519 242.818C284.443 242.833 284.372 242.864 284.309 242.909C284.245 242.954 284.193 243.012 284.153 243.079C283.991 243.323 284.153 243.594 284.334 243.802C284.21 243.76 284.075 243.764 283.953 243.814C283.832 243.863 283.733 243.956 283.674 244.073C283.62 244.211 283.622 244.365 283.679 244.501C283.737 244.638 283.845 244.747 283.982 244.805C283.539 244.805 283.349 245.375 283.71 245.763C284.047 246.097 284.427 246.383 284.84 246.613C285.385 247.006 286.051 247.195 286.721 247.146Z" fill="#FFCEA1"/>
<path d="M298.373 252.761L298.219 252.697L289.722 249.271L288.565 248.81C287.155 248.241 286.54 247.653 286.757 246.56C286.757 246.56 287.444 242.311 290.02 243.45L300.208 247.563L300.434 247.653C300.905 247.844 301.315 248.161 301.618 248.569C301.921 248.977 302.106 249.461 302.151 249.967C302.186 250.398 302.121 250.831 301.962 251.233C301.831 251.573 301.634 251.883 301.382 252.145C301.129 252.407 300.826 252.616 300.491 252.758C300.156 252.901 299.796 252.974 299.432 252.975C299.068 252.975 298.708 252.902 298.373 252.761Z" fill="#CBBBA0"/>
<defs>
<clipPath id="clip0_2809_6432">
<rect width="95.8207" height="171.754" fill="white" transform="matrix(-1 0 0 1 160.906 31.7344)"/>
</clipPath>
<clipPath id="clip1_2809_6432">
<rect width="95.8207" height="171.754" fill="white" transform="matrix(-1 0 0 1 95.8208 73.3174)"/>
</clipPath>
</defs>
</svg>
