<svg width="312" height="104" viewBox="0 0 312 104" fill="none" xmlns="http://www.w3.org/2000/svg">
<path d="M0 0H312L255.898 98.9328C254.122 102.065 250.799 104 247.199 104H65.706C62.1303 104 58.8267 102.091 57.0415 98.9927L0 0Z" fill="url(#paint0_linear_263_2122)"/>
<path d="M111.616 40.68V43.24H109.036V40.68H111.616ZM118.656 46.98C118.789 46.98 118.856 47.0467 118.856 47.18V49.8C118.856 49.9333 118.789 50 118.656 50H117.796C117.182 50 116.676 49.8533 116.276 49.56C115.782 50.7467 115.002 51.7 113.936 52.42C112.882 53.1533 111.696 53.52 110.376 53.52C109.216 53.52 108.142 53.2267 107.156 52.64C106.169 52.0667 105.382 51.2867 104.796 50.3C104.222 49.3133 103.936 48.24 103.936 47.08V43.34H106.816V46.92C106.816 47.56 106.976 48.1533 107.296 48.7C107.616 49.2467 108.049 49.68 108.596 50C109.142 50.32 109.736 50.48 110.376 50.48C111.029 50.48 111.629 50.32 112.176 50C112.736 49.68 113.176 49.2467 113.496 48.7C113.816 48.1533 113.976 47.56 113.976 46.92V42.54H116.876V46.04C116.876 46.3067 116.962 46.5333 117.136 46.72C117.322 46.8933 117.542 46.98 117.796 46.98H118.656ZM118.46 47.18C118.46 47.0467 118.527 46.98 118.66 46.98H119.96C120.227 46.98 120.447 46.8933 120.62 46.72C120.793 46.5333 120.88 46.3067 120.88 46.04V42.54H123.76V46.04C123.76 46.3067 123.847 46.5333 124.02 46.72C124.193 46.8933 124.413 46.98 124.68 46.98H125.98C126.113 46.98 126.18 47.0467 126.18 47.18V49.8C126.18 49.9333 126.113 50 125.98 50H124.68C123.693 50 122.907 49.6733 122.32 49.02C121.707 49.6733 120.92 50 119.96 50H118.66C118.527 50 118.46 49.9333 118.46 49.8V47.18ZM119.22 51.72H121.78V54.28H119.22V51.72ZM122.82 51.72H125.4V54.28H122.82V51.72ZM138.524 46.98C138.658 46.98 138.724 47.0467 138.724 47.18V49.8C138.724 49.9333 138.658 50 138.524 50H137.684C136.684 50 135.891 49.64 135.304 48.92C134.904 49.28 134.451 49.56 133.944 49.76C133.451 49.9467 132.931 50.04 132.384 50.04C131.851 50.04 131.351 49.9467 130.884 49.76C130.418 49.5733 129.998 49.3133 129.624 48.98C129.051 49.66 128.278 50 127.304 50H125.984C125.851 50 125.784 49.9333 125.784 49.8V47.18C125.784 47.0467 125.851 46.98 125.984 46.98H127.304C127.558 46.98 127.771 46.8933 127.944 46.72C128.131 46.5333 128.224 46.3067 128.224 46.04V44.36H126.984V41.5H132.384C133.184 41.5 133.918 41.68 134.584 42.04C135.251 42.4 135.778 42.9 136.164 43.54C136.564 44.1667 136.764 44.8733 136.764 45.66V46.04C136.764 46.3067 136.851 46.5333 137.024 46.72C137.198 46.8933 137.418 46.98 137.684 46.98H138.524ZM132.384 47.02C132.771 47.02 133.091 46.8933 133.344 46.64C133.598 46.3733 133.724 46.0467 133.724 45.66C133.724 45.2867 133.598 44.98 133.344 44.74C133.091 44.4867 132.771 44.36 132.384 44.36H131.064V45.66C131.064 46.0467 131.184 46.3733 131.424 46.64C131.678 46.8933 131.998 47.02 132.384 47.02ZM138.323 47.18C138.323 47.0467 138.39 46.98 138.523 46.98H139.823C140.09 46.98 140.31 46.8933 140.483 46.72C140.657 46.5333 140.743 46.3067 140.743 46.04V42.54H143.623V46.04C143.623 46.3067 143.71 46.5333 143.883 46.72C144.057 46.8933 144.277 46.98 144.543 46.98H145.843C145.977 46.98 146.043 47.0467 146.043 47.18V49.8C146.043 49.9333 145.977 50 145.843 50H144.543C143.557 50 142.77 49.6733 142.183 49.02C141.57 49.6733 140.783 50 139.823 50H138.523C138.39 50 138.323 49.9333 138.323 49.8V47.18ZM139.083 51.72H141.643V54.28H139.083V51.72ZM142.683 51.72H145.263V54.28H142.683V51.72ZM146.148 37.62L149.668 33.9L151.048 35.3L147.528 39.02L146.148 37.62ZM145.848 50C145.714 50 145.648 49.9333 145.648 49.8V47.18C145.648 47.0467 145.714 46.98 145.848 46.98H152.208C152.568 46.98 152.874 46.86 153.128 46.62C153.381 46.38 153.508 46.06 153.508 45.66C153.508 45.18 153.281 44.8 152.828 44.52L148.288 41.54V39.36L152.288 35.12L154.248 36.98L151.288 40.08L154.608 42.26C155.168 42.62 155.601 43.1067 155.908 43.72C156.228 44.32 156.388 44.9867 156.388 45.72C156.388 46.4933 156.194 47.2067 155.808 47.86C155.434 48.5133 154.928 49.0333 154.288 49.42C153.648 49.8067 152.941 50 152.168 50H145.848Z" fill="white"/>
<path d="M112.512 59.188V61.084C112.512 61.508 112.412 61.9 112.212 62.26C112.02 62.62 111.752 62.904 111.408 63.112C111.064 63.32 110.68 63.424 110.256 63.424C109.784 63.424 109.372 63.292 109.02 63.028V63.076V67H108.024V63.004V62.524C108.024 61.812 108.004 61.196 107.964 60.676C107.932 60.156 107.856 59.68 107.736 59.248L108.624 59.068C108.776 59.452 108.888 60.124 108.96 61.084V61.132V61.204C108.992 61.532 109.128 61.812 109.368 62.044C109.616 62.268 109.912 62.38 110.256 62.38C110.616 62.38 110.92 62.256 111.168 62.008C111.416 61.752 111.54 61.444 111.54 61.084V59.188H112.512ZM115.672 67C115.288 67 114.932 66.908 114.604 66.724C114.284 66.532 114.028 66.276 113.836 65.956C113.652 65.628 113.56 65.272 113.56 64.888C113.56 64.504 113.652 64.152 113.836 63.832C114.028 63.512 114.284 63.26 114.604 63.076C114.932 62.884 115.288 62.788 115.672 62.788C116.056 62.788 116.408 62.884 116.728 63.076C117.048 63.26 117.3 63.512 117.484 63.832C117.676 64.152 117.772 64.504 117.772 64.888C117.772 65.272 117.676 65.628 117.484 65.956C117.3 66.276 117.048 66.532 116.728 66.724C116.408 66.908 116.056 67 115.672 67ZM115.672 66.016C115.984 66.016 116.248 65.908 116.464 65.692C116.68 65.468 116.788 65.2 116.788 64.888C116.788 64.576 116.68 64.312 116.464 64.096C116.248 63.88 115.984 63.772 115.672 63.772C115.36 63.772 115.092 63.88 114.868 64.096C114.652 64.312 114.544 64.576 114.544 64.888C114.544 65.2 114.652 65.468 114.868 65.692C115.092 65.908 115.36 66.016 115.672 66.016ZM123.704 59.188V61.084C123.704 61.508 123.604 61.9 123.404 62.26C123.212 62.62 122.944 62.904 122.6 63.112C122.256 63.32 121.872 63.424 121.448 63.424C120.976 63.424 120.564 63.292 120.212 63.028V63.076V67H119.216V63.004V62.524C119.216 61.812 119.196 61.196 119.156 60.676C119.124 60.156 119.048 59.68 118.928 59.248L119.816 59.068C119.968 59.452 120.08 60.124 120.152 61.084V61.132V61.204C120.184 61.532 120.32 61.812 120.56 62.044C120.808 62.268 121.104 62.38 121.448 62.38C121.808 62.38 122.112 62.256 122.36 62.008C122.608 61.752 122.732 61.444 122.732 61.084V59.188H123.704ZM129.528 59.188V61.084C129.528 61.508 129.428 61.9 129.228 62.26C129.036 62.62 128.768 62.904 128.424 63.112C128.08 63.32 127.696 63.424 127.272 63.424C126.8 63.424 126.388 63.292 126.036 63.028V63.076V67H125.04V63.004V62.524C125.04 61.812 125.02 61.196 124.98 60.676C124.948 60.156 124.872 59.68 124.752 59.248L125.64 59.068C125.792 59.452 125.904 60.124 125.976 61.084V61.132V61.204C126.008 61.532 126.144 61.812 126.384 62.044C126.632 62.268 126.928 62.38 127.272 62.38C127.632 62.38 127.936 62.256 128.184 62.008C128.432 61.752 128.556 61.444 128.556 61.084V59.188H129.528Z" fill="white"/>
<g clip-path="url(#clip0_263_2122)">
<path d="M208.46 20.0051C208.872 20.0051 209.284 19.9936 209.695 20.0051C210.804 20.0395 211.318 20.8181 210.79 21.7891C210.374 22.5084 209.895 23.1906 209.358 23.828C206.162 27.8141 202.989 31.8218 199.728 35.7569C196.766 39.325 193.744 42.8506 190.663 46.3338C189.171 48.0171 187.366 49.3424 185.054 49.8356C182.321 50.4179 179.918 49.6725 177.698 48.1344C176.355 47.2041 175.47 45.8826 174.597 44.5739C171.734 40.2761 168.895 35.9608 166.081 31.6281C164.849 29.7307 163.707 27.7784 162.525 25.8491C162.459 25.7408 162.395 25.6274 162.34 25.514C161.6 24.0243 162.046 23.2202 163.721 23.1017C169.662 22.6642 175.605 22.2339 181.55 21.8108C186.801 21.4285 192.051 21.0539 197.297 20.7009C201.015 20.446 204.736 20.2447 208.456 20.0178L208.46 20.0051Z" fill="white"/>
<path d="M202.174 84C201.133 83.8433 199.889 83.6827 198.661 83.461C196.058 82.992 193.471 82.495 190.877 82.0006C187.754 81.4059 184.63 80.8044 181.507 80.1962C177.853 79.4842 174.2 78.7621 170.548 78.0298C169.993 77.9338 169.448 77.7906 168.919 77.6017C167.599 77.0919 167.138 76.0559 167.691 74.7701C168.423 73.0702 169.202 71.3881 169.985 69.7073C171.277 66.928 172.52 64.1219 173.917 61.3924C174.845 59.5612 175.886 57.7555 177.108 56.0963C179.416 52.9615 183.549 52.7092 186.31 55.4833C187.314 56.4926 188.178 57.6599 188.974 58.8386C190.816 61.5631 192.575 64.3386 194.369 67.0936C197.291 71.5869 200.212 76.0771 203.131 80.5644C203.397 80.977 203.634 81.4065 203.84 81.8502C204.415 83.0863 203.779 84.0178 202.174 84Z" fill="white"/>
</g>
<defs>
<linearGradient id="paint0_linear_263_2122" x1="156" y1="0" x2="156" y2="104" gradientUnits="userSpaceOnUse">
<stop stop-color="#D63F26"/>
<stop offset="1" stop-color="#A5262D"/>
</linearGradient>
<clipPath id="clip0_263_2122">
<rect width="49" height="64" fill="white" transform="translate(162 20)"/>
</clipPath>
</defs>
</svg>
