<?xml version="1.0" encoding="UTF-8"?><svg id="Layer_1" xmlns="http://www.w3.org/2000/svg" viewBox="0 0 100 100"><defs><style>.cls-1{fill:#75e1f7;}.cls-2{fill:none;stroke:#0018c6;stroke-miterlimit:10;stroke-width:4px;}.cls-3{fill:#275d77;}.cls-4{fill:#275d76;}.cls-5{fill:#00d7df;}.cls-6{fill:#1d475a;}</style></defs><circle class="cls-2" cx="50" cy="50" r="45"/><path class="cls-6" d="m62.27,34.47c.87.27,1.74.52,2.48,1.1,1.41,1.1,2.14,2.54,2.25,4.31,0,.13,0,.27,0,.4,0,13.33,0,26.65,0,39.98,0,2.62-1.49,4.75-3.86,5.53-.4.13-.81.25-1.22.25-4.21,0-8.43,0-12.64,0,0-1,0-1.99,0-2.99.2,0,.4-.02.6-.02,3.76,0,7.52,0,11.28,0,.55,0,1.07-.09,1.54-.38.89-.54,1.22-1.36,1.22-2.38,0-13.34-.01-26.69,0-40.03,0-.1,0-.2,0-.3-.05-1.19-.81-2.09-1.96-2.36-.6-.14-1.21-.03-1.8-.09-.51-.05-.76.1-.91.63-.42,1.43-.92,2.83-1.4,4.24-.25.75-.74,1.17-1.4,1.17-2.38,0-4.77,0-7.15-.01v-9.05s12.99,0,12.99,0Z"/><path class="cls-4" d="m49.28,83.04c0,1,0,1.99,0,2.99-4.16,0-8.32.06-12.48-.01-2.91-.05-5.17-2.55-5.22-5.59-.02-.96,0-1.91,0-2.87,0-12.42,0-24.83,0-37.25,0-2.48,1.09-4.31,3.36-5.37.43-.2.9-.31,1.35-.47h13v9.05s0,.04,0,.04c-2.28,0-4.56-.01-6.85-.02-.95,0-1.41-.34-1.71-1.24-.49-1.46-.98-2.92-1.45-4.39-.1-.3-.23-.44-.56-.42-.4.03-.81,0-1.21,0-1.9,0-2.91,1.01-2.91,2.93,0,5.49,0,10.98,0,16.47,0,7.77,0,15.54,0,23.31,0,1.78,1.04,2.83,2.81,2.83,1.59,0,3.19,0,4.78,0,2.37,0,4.73-.01,7.1-.02v.04Z"/><path class="cls-5" d="m49.28,43.52c2.38,0,4.77.02,7.15.01.66,0,1.15-.43,1.4-1.17.48-1.41.98-2.81,1.4-4.24.16-.53.4-.69.91-.63.6.06,1.2-.05,1.8.09,1.15.27,1.92,1.17,1.96,2.36,0,.1,0,.2,0,.3,0,13.34,0,26.69,0,40.03,0,1.02-.33,1.83-1.22,2.38-.47.29-.99.38-1.54.38-3.76,0-7.52,0-11.28,0-.2,0-.4.01-.6.02v-.04c0-13.15,0-26.3,0-39.45v-.04Zm8.98,8.84c.09.46.15.75.21,1.04.23.98.96,1.49,1.87,1.31.79-.15,1.29-.94,1.1-1.87-.31-1.58-.65-3.15-1.01-4.72-.19-.82-.94-1.26-1.77-1.1-1.53.31-3.05.63-4.58.95-.93.19-1.51.95-1.35,1.75.18.93.97,1.42,1.97,1.22.29-.06.57-.12.95-.19-.17.27-.28.45-.4.63-1.55,2.36-3.1,4.71-4.65,7.06-.28.43-.44.87-.3,1.38.17.61.56,1,1.18,1.1.65.11,1.19-.12,1.56-.69,1.24-1.88,2.47-3.76,3.71-5.64.47-.71.94-1.42,1.49-2.26h0Z"/><path class="cls-1" d="m49.28,43.56c0,13.15,0,26.3,0,39.45-2.37,0-4.73.01-7.1.02-1.59,0-3.19,0-4.78,0-1.76,0-2.81-1.05-2.81-2.83,0-7.77,0-15.54,0-23.31v-16.47c0-1.92,1-2.93,2.91-2.93.4,0,.81.02,1.21,0,.33-.03.46.12.56.42.47,1.47.97,2.93,1.45,4.39.3.91.76,1.24,1.71,1.24,2.28,0,4.56.01,6.85.02Zm-9.01,30.53c-.08-.36-.14-.67-.21-.98-.23-.95-.96-1.44-1.86-1.26-.77.16-1.27.92-1.1,1.82.31,1.6.65,3.18,1.02,4.77.19.81.95,1.26,1.77,1.09,1.53-.31,3.05-.63,4.57-.96.26-.06.52-.13.74-.3.57-.43.77-1.15.51-1.8-.29-.69-.96-1.03-1.78-.9-.32.05-.62.2-1.03.16.65-.99,1.26-1.92,1.88-2.86,1.08-1.64,2.15-3.28,3.23-4.92.36-.54.37-1.11.04-1.66-.33-.53-.83-.77-1.46-.69-.54.06-.9.38-1.19.83-1.56,2.39-3.12,4.77-4.69,7.15-.11.16-.18.36-.43.5Z"/><path class="cls-6" d="m58.26,52.36c-.55.84-1.02,1.55-1.49,2.26-1.23,1.88-2.47,3.76-3.71,5.64-.37.56-.91.8-1.56.69-.62-.11-1.01-.5-1.18-1.1-.14-.51.02-.95.3-1.38,1.55-2.35,3.1-4.71,4.65-7.06.12-.18.23-.36.4-.63-.38.08-.67.14-.95.19-1,.2-1.79-.29-1.97-1.22-.16-.8.43-1.56,1.35-1.75,1.52-.32,3.05-.64,4.58-.95.83-.17,1.58.28,1.77,1.1.36,1.57.7,3.14,1.01,4.72.18.92-.32,1.71-1.1,1.87-.92.18-1.64-.33-1.87-1.31-.07-.29-.12-.58-.22-1.04Z"/><path class="cls-3" d="m40.27,74.08c.25-.14.32-.34.43-.5,1.57-2.38,3.13-4.77,4.69-7.15.29-.45.65-.77,1.19-.83.62-.07,1.13.16,1.46.69.33.55.32,1.12-.04,1.66-1.07,1.64-2.15,3.28-3.23,4.92-.61.94-1.23,1.87-1.88,2.86.4.04.71-.1,1.03-.16.82-.14,1.49.2,1.78.9.27.64.06,1.37-.51,1.8-.22.17-.48.24-.74.3-1.52.32-3.05.64-4.57.96-.82.17-1.59-.28-1.77-1.09-.37-1.58-.71-3.17-1.02-4.77-.17-.9.33-1.67,1.1-1.82.9-.18,1.63.31,1.86,1.26.07.31.13.62.21.98Z"/><path d="m19.12,42.79l-.81,3.82,1.5.86-.55,2.57-9.53-5.68.64-2.99,11.02-1.31-.55,2.57-1.73.17Zm-2.35.24l-4.03.4,3.52,2.01.51-2.41Z"/><path d="m16.03,28.41l9.2,5.05-1.08,1.97-.62-.34c.26.71.21,1.52-.27,2.4-.94,1.72-3.24,2.31-5.19,1.24-1.96-1.07-2.69-3.32-1.75-5.05.48-.88,1.14-1.36,1.88-1.52l-3.25-1.78,1.08-1.97Zm4.83,5.22c-.99-.54-1.96-.22-2.46.68-.5.91-.24,1.9.75,2.44.99.54,1.96.22,2.46-.68s.24-1.9-.75-2.44Z"/><path d="m25.52,22.26l3.48,7.2-1.77,1.84-7.33-3.2,1.72-1.79,4.51,2.17-2.35-4.42,1.73-1.79Z"/><path d="m33.5,17.12l3.93,6.39-1.92,1.18-.37-.6c-.12.74-.57,1.42-1.43,1.95-1.67,1.03-3.96.41-5.13-1.5-1.17-1.9-.69-4.22.98-5.25.86-.53,1.66-.62,2.38-.39l-.37-.6,1.92-1.18Zm.05,4.37c-.59-.96-1.6-1.17-2.48-.63-.88.54-1.15,1.54-.56,2.49.59.96,1.6,1.17,2.48.62s1.15-1.53.56-2.49Z"/><path d="m44.05,16.77l1.25,4.43-2.17.61-1.16-4.12c-.25-.9-.93-1.16-1.63-.96-.79.22-1.21.84-.93,1.86l1.11,3.94-2.17.61-2.03-7.22,2.17-.61.19.68c.24-.65.87-1.19,1.82-1.46,1.46-.41,2.99.28,3.54,2.23Z"/><path d="m45.75,17.39c-.04-2.23,1.62-3.99,3.9-4.04,1.45-.03,2.76.71,3.43,1.85l-1.94,1.18c-.27-.52-.81-.82-1.47-.81-.98.02-1.68.74-1.66,1.77.02,1.03.75,1.72,1.73,1.71.66-.01,1.21-.34,1.44-.87l1.99,1.09c-.62,1.18-1.88,1.97-3.35,2-2.28.04-4.01-1.65-4.05-3.88Z"/><path d="m57.45,20.13c.6.14,1.17.02,1.53-.23l1.53,1.41c-.94.83-2.14,1.1-3.53.78-2.5-.57-3.67-2.6-3.17-4.78.5-2.18,2.46-3.5,4.77-2.97,2.13.49,3.34,2.5,2.83,4.71-.07.31-.17.59-.29.86l-5.19-1.18c.11.82.72,1.24,1.52,1.42Zm1.95-2.35c-.04-.9-.63-1.36-1.29-1.51-.83-.19-1.48.09-1.86.79l3.14.72Z"/><path d="m72.85,17.32l-5.01,9.23-1.98-1.07.34-.62c-.71.27-1.52.22-2.4-.26-1.73-.94-2.33-3.23-1.26-5.19,1.07-1.96,3.31-2.71,5.04-1.77.88.48,1.36,1.13,1.53,1.87l1.77-3.25,1.98,1.07Zm-5.2,4.86c.54-.99.21-1.97-.7-2.46-.91-.5-1.91-.23-2.44.76s-.21,1.97.7,2.46c.91.49,1.91.23,2.44-.76Z"/><path d="m84.24,28.82l-8.18,6.58-1.41-1.75.55-.44c-.75-.03-1.48-.39-2.11-1.17-1.23-1.53-.9-3.87.84-5.27,1.74-1.4,4.1-1.22,5.33.31.63.78.82,1.57.69,2.31l2.89-2.32,1.41,1.75Zm-6.67,2.47c.88-.71.96-1.73.31-2.54s-1.67-.95-2.54-.25c-.88.71-.96,1.73-.31,2.54.65.81,1.67.95,2.54.25Z"/><path d="m83.11,33.04l1.03,2-6.66,3.44-1.03-2,6.66-3.44Zm1.68-1.12c.65-.34,1.48-.07,1.82.58.34.65.07,1.48-.58,1.82s-1.48.07-1.82-.58c-.34-.65-.07-1.48.58-1.82Z"/><path d="m81.99,44.36c-1.64.53-2.8-.67-3.3-2.21-.46-1.43-.27-2.69.71-3.62l1.66,1.51c-.48.36-.65.86-.45,1.49.17.51.41.72.69.63.79-.25-.77-3.63,1.7-4.43,1.56-.5,2.77.56,3.25,2.04.37,1.16.19,2.35-.63,3.28l-1.58-1.51c.31-.32.47-.69.32-1.16-.12-.37-.34-.55-.59-.47-.81.26.86,3.6-1.78,4.45Z"/><path d="m84.3,53.41c-2.23.14-4.05-1.36-4.18-3.33-.06-1,.23-1.76.77-2.29l-3.7.24-.14-2.25,10.48-.67.14,2.25-.7.05c.6.46.99,1.17,1.06,2.17.13,1.96-1.49,3.69-3.72,3.83Zm-.14-2.25c1.12-.07,1.78-.87,1.71-1.9-.07-1.03-.82-1.74-1.94-1.67-1.12.07-1.78.87-1.71,1.9.07,1.03.82,1.74,1.94,1.67Z"/><path d="m91.06,55.91l-.31,2.23-10.85-1.49.3-2.23,10.85,1.49Z"/><path d="m84.43,67.6l-7.07-2.49.75-2.12.66.23c-.37-.66-.46-1.46-.12-2.41.65-1.85,2.82-2.81,4.92-2.07,2.11.74,3.2,2.84,2.54,4.69-.33.95-.9,1.53-1.6,1.8l.67.23-.75,2.12Zm-2.79-3.37c1.06.37,1.98-.1,2.32-1.08.34-.98-.07-1.92-1.13-2.29-1.06-.37-1.97.1-2.32,1.08-.34.98.07,1.92,1.13,2.29Z"/><path d="m78.98,76.06l-4.55-6.23c-1.49-2.04-1.52-3.68-.24-5.35l1.73,1.19c-.59.87-.6,1.46-.03,2.25l7.59,1.58-1.4,2.04-4.73-1.22,2.99,3.76-1.36,1.98Z"/></svg>