<?xml version="1.0" encoding="UTF-8"?><svg id="Layer_1" xmlns="http://www.w3.org/2000/svg" viewBox="0 0 100 100"><defs><style>.cls-1{fill:none;stroke:#a5262d;stroke-miterlimit:10;stroke-width:4px;}.cls-2{fill:#484645;}.cls-3{fill:#b3b3b3;}</style></defs><circle class="cls-1" cx="50" cy="50" r="45"/><rect class="cls-3" x="24" y="40" width="52" height="37" rx="2.88" ry="2.88"/><path class="cls-2" d="m50.77,70.32l-1.13-3.41h-8.05l-1.02,3.41h-6.54l7.53-23.64h7.61l7.82,23.64h-6.22Zm-7.62-8.61h4.76l-2.4-8.04-2.36,8.04Z"/><path class="cls-2" d="m58.48,70.32v-24.66h5.61v24.66h-5.61Z"/><path d="m26.06,28.7l-2.4,3.08.98,1.43-1.62,2.07-6.08-9.28,1.88-2.41,10.48,3.65-1.62,2.07-1.62-.6Zm-2.22-.82l-3.8-1.41,2.28,3.34,1.52-1.94Z"/><path d="m22.84,18.87l1.73-1.43,6.98,8.44-1.73,1.43-6.98-8.44Z"/><path d="m35,15.07l3.59,6.58-1.97,1.08-.34-.62c-.09.68-.57,1.36-1.44,1.83-1.33.73-2.98.4-3.95-1.38l-2.2-4.04,1.97-1.08,2.05,3.75c.44.82,1.17.92,1.8.57.72-.4.99-1.09.48-2.02l-1.96-3.59,1.97-1.08Z"/><path d="m49.61,14.57l.79,4.54-2.22.39-.76-4.34c-.13-.74-.57-1.15-1.28-1.03-.74.13-1.06.72-.91,1.59l.73,4.17-2.22.39-.76-4.34c-.13-.74-.57-1.15-1.28-1.03-.74.13-1.06.72-.91,1.59l.73,4.17-2.22.39-1.29-7.39,2.22-.39.12.68c.25-.56.83-1.06,1.82-1.23.87-.15,1.58.09,2.11.64.31-.66.92-1.17,1.97-1.35,1.7-.3,3.02.72,3.34,2.57Z"/><path d="m51.95,12.16l2.24.18-.6,7.47-2.24-.18.6-7.47Zm-.06-2.02c.06-.73.72-1.3,1.45-1.24.73.06,1.29.72,1.24,1.45s-.72,1.3-1.45,1.24c-.73-.06-1.3-.72-1.24-1.45Z"/><path d="m62.94,17.28l-1.24,4.43-2.17-.6,1.15-4.12c.25-.9-.2-1.47-.89-1.67-.79-.22-1.47.09-1.76,1.11l-1.1,3.94-2.17-.6,2.01-7.22,2.17.6-.19.68c.54-.43,1.36-.57,2.31-.31,1.46.41,2.41,1.79,1.87,3.74Z"/><path d="m72.47,19.28l-3.84,6.45-1.93-1.15.36-.61c-.63.27-1.46.2-2.31-.31-1.3-.78-1.86-2.36-.82-4.1l2.36-3.96,1.93,1.15-2.19,3.67c-.48.8-.19,1.47.42,1.84.71.42,1.45.3,1.99-.62l2.09-3.52,1.93,1.15Z"/><path d="m80.32,31.6l-3.5,2.99-1.46-1.71,3.36-2.86c.57-.49.7-1.07.23-1.62-.49-.57-1.16-.55-1.83.02l-3.22,2.75-1.46-1.71,3.36-2.86c.57-.49.7-1.07.23-1.62-.49-.57-1.16-.55-1.83.02l-3.22,2.75-1.46-1.71,5.71-4.87,1.46,1.71-.53.45c.61-.07,1.34.18,1.99.95.58.67.73,1.41.52,2.14.73-.07,1.47.2,2.17,1.01,1.12,1.31.91,2.97-.51,4.18Z"/></svg>