<?xml version="1.0" encoding="UTF-8"?><svg id="Layer_1" xmlns="http://www.w3.org/2000/svg" viewBox="0 0 100 100"><defs><style>.cls-1{fill:#57575e;}.cls-2{fill:none;stroke:#0018c6;stroke-miterlimit:10;stroke-width:4px;}.cls-3{fill:#d9d9ea;}.cls-4{fill:#48459c;}.cls-5{fill:#434348;}.cls-6{fill:#3392f5;}.cls-7{fill:#424248;}.cls-8{fill:#3392f6;}.cls-9{fill:#60acfd;}</style></defs><circle class="cls-2" cx="50" cy="50" r="45"/><path d="m20.74,32.25c-2.64-2.6-2.74-6.56-.07-9.27,1.6-1.63,3.83-2.27,5.87-1.8l-.72,2.78c-1.08-.28-2.25.08-3.15.99-1.57,1.59-1.51,3.67.09,5.24,1.6,1.58,3.68,1.6,5.25.01.9-.91,1.26-2.1.94-3.17l2.77-.76c.51,2.02-.09,4.25-1.71,5.89-2.67,2.71-6.63,2.67-9.27.07Z"/><path d="m38.67,16.11l3.77,8.17-2.45,1.13-.35-.77c-.25.87-.88,1.62-1.97,2.12-2.14.99-4.78-.08-5.9-2.51-1.12-2.44-.23-5.13,1.91-6.12,1.09-.51,2.07-.5,2.9-.13l-.35-.77,2.45-1.13Zm-.57,5.22c-.57-1.23-1.74-1.62-2.87-1.1-1.13.52-1.59,1.67-1.03,2.89.57,1.23,1.74,1.62,2.87,1.1,1.13-.52,1.59-1.67,1.02-2.89Z"/><path d="m56.58,17.68l.19,5.52-2.7.09-.18-5.29c-.03-.9-.48-1.46-1.34-1.43-.9.03-1.38.68-1.34,1.74l.18,5.07-2.7.09-.18-5.29c-.03-.9-.48-1.46-1.35-1.43-.9.03-1.38.68-1.34,1.74l.18,5.07-2.7.09-.31-8.99,2.7-.09.03.83c.39-.63,1.17-1.12,2.37-1.16,1.06-.04,1.87.37,2.4,1.1.48-.74,1.29-1.23,2.57-1.28,2.07-.07,3.47,1.36,3.55,3.6Z"/><path d="m62.54,23.37c.69.25,1.38.2,1.86-.04l1.6,1.91c-1.25.84-2.72.97-4.32.38-2.89-1.06-3.96-3.67-3.03-6.18.93-2.52,3.47-3.79,6.13-2.8,2.47.91,3.59,3.49,2.65,6.04-.13.35-.29.68-.48.98l-6-2.21c0,1,.66,1.59,1.59,1.93Zm2.69-2.5c.09-1.08-.54-1.71-1.3-1.99-.96-.35-1.78-.12-2.33.66l3.63,1.34Z"/><path d="m76.06,23.06l-1.75,2.51c-.81-.78-2.37-1.32-3.39.15l-2.32,3.34-2.22-1.54,5.13-7.39,2.22,1.54-.91,1.32c.98-.79,2.3-.57,3.23.08Z"/><path d="m84.01,31.86l-6.87,5.82-1.75-2.06.65-.55c-.91-.01-1.79-.42-2.57-1.34-1.52-1.8-1.2-4.62.84-6.36,2.05-1.73,4.88-1.59,6.41.21.78.92,1.04,1.86.9,2.76l.65-.55,1.75,2.06Zm-5.18.85c1.03-.87,1.09-2.11.29-3.05-.8-.95-2.03-1.09-3.06-.21-1.03.87-1.09,2.11-.29,3.05.8.95,2.03,1.09,3.06.21Z"/><path class="cls-3" d="m79,60.14v.22c-.27.05-.21.26-.22.45-.04.5-.06,1-.13,1.49-.51,3.42-1.52,6.68-3.18,9.73-1.43,2.62-3.26,5.01-5.42,7.07-2.29,2.21-4.93,4.01-7.82,5.33-2.41,1.12-4.97,1.88-7.6,2.26-.8.11-1.6.22-2.4.33h-3.79c-.64-.18-1.31-.15-1.97-.24-3.76-.55-7.37-1.81-10.65-3.73-2.68-1.57-5.08-3.57-7.11-5.92-1.96-2.27-3.55-4.83-4.69-7.6-1.03-2.45-1.71-5.02-2.04-7.66-.07-.54.04-1.11-.2-1.64v-3.57c.15-.15.11-.35.11-.53.02-.81.12-1.63.28-2.43.53-3.15,1.59-6.2,3.13-9,1.43-2.58,3.25-4.93,5.39-6.96,6.14-5.89,14.6-8.7,23.04-7.65,3.2.36,6.31,1.27,9.19,2.7,6.28,3.12,11.21,8.41,13.88,14.9.96,2.35,1.6,4.83,1.89,7.36.16,1.49.23,3,.21,4.5,0,.2-.07.42.11.58Zm-23.82,22.91c1.13-.1,2.21-.47,3.28-.82,11.85-3.96,19.11-16.54,16.46-28.77-1.94-8.91-7.28-15.06-15.73-18.49-1.28-.52-2.61-.96-4.01-1.08-.2-.15-.45-.15-.68-.19-2.07-.34-4.18-.42-6.27-.24-3.96.33-7.69,1.44-11,3.61-8.86,5.8-12.92,14.03-11.77,24.59.78,7.16,4.34,12.87,10.14,17.13,4.8,3.54,10.25,5.03,16.19,4.76,1.13-.05,2.29-.12,3.38-.5Z"/><path class="cls-1" d="m55.18,83.05c-1.1.38-2.25.45-3.39.5-5.93.27-11.38-1.22-16.19-4.76-5.79-4.26-9.35-9.97-10.14-17.13-1.16-10.56,2.91-18.79,11.77-24.59,3.31-2.17,7.04-3.28,11-3.61,2.09-.18,4.2-.1,6.27.24.23.04.47.04.68.19.14.13.3.22.48.26,4.4,1.31,7.91,3.9,10.72,7.48,1.29,1.66,2.37,3.47,3.21,5.39,1.41,3.21,2.21,6.66,2.36,10.17.08,1.85-.02,3.71-.3,5.54-.39,2.82-1.23,5.55-2.48,8.1-1.37,2.8-3.17,5.3-5.52,7.4-1.88,1.71-4.05,3.07-6.41,4.03-.69.28-1.44.38-2.07.8Zm-23.06-24.57c0,10.05,8.16,18.2,18.21,18.19,10.05,0,18.2-8.16,18.19-18.21,0-10.04-8.14-18.18-18.18-18.19-10.03-.03-18.19,8.07-18.22,18.1,0,.04,0,.07,0,.11Z"/><path class="cls-5" d="m55.18,83.05c.63-.41,1.38-.51,2.06-.79,2.36-.95,4.53-2.32,6.41-4.03,2.34-2.1,4.14-4.6,5.52-7.4,1.25-2.55,2.09-5.29,2.48-8.1.28-1.83.38-3.69.3-5.54-.15-3.51-.95-6.96-2.36-10.17-.84-1.92-1.92-3.73-3.21-5.39-2.82-3.58-6.32-6.17-10.72-7.48-.18-.04-.35-.13-.48-.26,1.4.13,2.72.56,4.01,1.08,8.45,3.43,13.8,9.57,15.73,18.49,2.65,12.23-4.61,24.8-16.46,28.77-1.06.35-2.13.72-3.27.82Z"/><path class="cls-8" d="m32.13,58.48c0-10.05,8.14-18.2,18.19-18.21,10.05,0,18.2,8.14,18.21,18.19,0,10.05-8.14,18.2-18.19,18.21,0,0-.02,0-.03,0-10.03.01-18.17-8.1-18.18-18.13,0-.02,0-.04,0-.06Zm18.21-11.3c-2.73,0-5.47.04-8.2-.03-.95-.02-1.7.18-2.3.91-.17.2-.34.39-.52.58-2.88,3.23-4.09,7.04-3.69,11.31.35,3.69,1.95,6.81,4.68,9.35.3.3.7.47,1.13.46,5.67-.01,11.33-.04,17,.02,1.04.01,1.82-.27,2.47-1.03.16-.18.32-.36.48-.54,3.03-3.52,4.17-7.6,3.48-12.17-.46-3.04-1.87-5.65-3.98-7.88-.6-.63-1.22-1.04-2.2-1.01-2.77.09-5.56.03-8.35.03Z"/><path class="cls-4" d="m50.34,47.18c2.79,0,5.58.06,8.36-.03.99-.03,1.61.38,2.2,1.01,2.11,2.24,3.51,4.84,3.98,7.88.7,4.57-.45,8.65-3.48,12.17-.15.18-.32.36-.48.54-.65.77-1.42,1.04-2.47,1.03-5.67-.06-11.33-.03-17-.02-.42.01-.83-.16-1.13-.46-2.73-2.53-4.33-5.67-4.68-9.35-.4-4.27.81-8.08,3.69-11.31.17-.19.35-.38.52-.58.6-.73,1.35-.93,2.3-.91,2.72.07,5.46.03,8.19.03Zm7.9,11.3c-.15-4.49-3.46-7.9-7.92-7.88-4.49.01-7.85,3.43-7.86,7.86,0,4.47,3.42,7.92,7.94,7.89,4.41-.03,7.67-3.43,7.84-7.86h0Z"/><path class="cls-7" d="m58.24,58.48c-.16,4.44-3.43,7.83-7.84,7.86-4.52.03-7.95-3.41-7.94-7.89,0-4.43,3.37-7.85,7.86-7.86,4.47-.01,7.77,3.4,7.92,7.88Zm-7.89-4.43c-2.44-.01-4.43,1.95-4.44,4.39,0,.01,0,.02,0,.03-.03,2.43,1.88,4.31,4.44,4.42,2.5-.09,4.4-1.97,4.42-4.39s-1.91-4.37-4.42-4.45h0Z"/><path class="cls-9" d="m50.34,62.89c-2.56-.11-4.47-1.99-4.44-4.42,0-2.44,1.97-4.42,4.41-4.42.01,0,.02,0,.03,0,.42.23.53.66.62,1.07.48,2.21.48,4.5,0,6.71-.09.4-.21.83-.62,1.06Z"/><path class="cls-6" d="m50.34,62.89c.42-.23.54-.66.62-1.07.48-2.21.48-4.5,0-6.71-.09-.41-.2-.84-.62-1.07,2.51.09,4.44,2.03,4.42,4.45-.03,2.42-1.92,4.31-4.42,4.4Z"/></svg>