<?xml version="1.0" encoding="UTF-8"?><svg id="Layer_1" xmlns="http://www.w3.org/2000/svg" viewBox="0 0 100 100"><defs><style>.cls-1{fill:none;stroke:#a5262d;stroke-miterlimit:10;stroke-width:4px;}.cls-2{fill:#4fb76a;}.cls-3{fill:#349951;}.cls-4{fill:#cfe1ed;}.cls-5{fill:#143441;}.cls-6{fill:#a7c1e0;}.cls-7{fill:#0d202b;}.cls-8{fill:#cbdde9;}.cls-9{fill:#369754;}.cls-10{fill:#163842;}.cls-11{fill:#fdd782;}.cls-12{fill:#caa158;}.cls-13{fill:#183c43;}.cls-14{fill:#cadce8;}.cls-15{fill:#51b66c;}.cls-16{fill:#153642;}</style></defs><circle class="cls-1" cx="50" cy="50" r="45"/><path class="cls-2" d="m28.38,82.67c-.59-.59-1.17-1.18-1.78-1.76-.2-.19-.26-.38-.26-.65,0-2.26,0-4.52,0-6.77,0-10.47,0-20.94,0-31.41,0-.35.09-.6.34-.85.94-.96,1.86-1.94,2.78-2.93.18-.19.36-.29.64-.29,12.6,0,25.21,0,37.81,0,.19,0,.35,0,.5.16.58.6,1.17,1.19,1.75,1.79,0,12.9,0,25.81,0,38.71,0,.37-.11.63-.37.89-.82.82-1.63,1.65-2.39,2.52-.29.33-.55.5-1.01.5-12.47-.01-24.94-.01-37.41,0-.2,0-.44-.09-.61.1Zm13.65-4.55h2.52c0,.65,0,1.3,0,1.95,0,1.13,0,1.12,1.12,1.1.32,0,.38-.13.38-.41-.02-.88,0-1.76-.01-2.64h2.52c0,.65,0,1.3,0,1.95,0,1.13,0,1.12,1.12,1.1.33,0,.38-.13.38-.42-.02-.88,0-1.76-.01-2.64h2.52c0,.65,0,1.3,0,1.95,0,1.13,0,1.13,1.12,1.1.28,0,.38-.08.38-.37-.02-.89-.01-1.79-.01-2.68h2.52c0,.66,0,1.31,0,1.96,0,1.1,0,1.09,1.08,1.1.39,0,.47-.15.46-.49-.02-.85,0-1.7-.01-2.55h2.46c0,.63,0,1.26,0,1.9,0,1.18,0,1.16,1.17,1.15.32,0,.39-.12.38-.41-.02-.88,0-1.76-.01-2.64h2.46c0,.64,0,1.27,0,1.9,0,1.16,0,1.15,1.15,1.14.31,0,.4-.1.39-.4-.02-.88,0-1.76-.01-2.64.21-.01.43,0,.41-.31.62,0,1.23,0,1.85,0,1.13,0,1.12,0,1.1-1.12,0-.32-.13-.38-.42-.38-.85.02-1.69,0-2.54.01,0-.84,0-1.68,0-2.52.62,0,1.23,0,1.85,0,1.11,0,1.1,0,1.1-1.09,0-.34-.1-.46-.45-.45-.83.02-1.66,0-2.49.01v-2.46c.61,0,1.23.01,1.85,0,1.29-.02,1.06.24,1.09-1.14,0-.3-.1-.41-.4-.41-.85.01-1.69,0-2.54,0v-2.46c.62,0,1.23.01,1.85,0,1.29-.02,1.06.24,1.09-1.14,0-.3-.1-.41-.4-.4-.85.01-1.69,0-2.54,0,0-.82,0-1.64,0-2.46.62,0,1.23.02,1.85,0,1.29-.02,1.06.24,1.09-1.14,0-.3-.1-.41-.4-.4-.85.02-1.69,0-2.54,0v-2.52c.61,0,1.22,0,1.84,0,1.16,0,1.15,0,1.11-1.16-.01-.27-.11-.34-.36-.33-.86.01-1.72,0-2.59,0v-2.52c.61,0,1.23,0,1.84,0,1.16,0,1.15,0,1.1-1.16-.01-.27-.11-.34-.36-.33-.86.01-1.72,0-2.59,0v-2.52c.61,0,1.23,0,1.84,0,1.16,0,1.15,0,1.1-1.16-.01-.27-.11-.34-.36-.33-.86.01-1.73,0-2.59,0,0-.84,0-1.68,0-2.52.62,0,1.23,0,1.85,0,1.16,0,1.15,0,1.1-1.16-.01-.27-.11-.34-.36-.33-.86.01-1.73,0-2.59,0,.04-.31-.13-.42-.41-.41,0-.6,0-1.2,0-1.81,0-1.2,0-1.2-1.21-1.15-.27.01-.34.11-.33.36.01.86,0,1.73,0,2.59h-2.46c0-.6,0-1.2,0-1.81,0-1.21,0-1.2-1.21-1.15-.27.01-.34.11-.34.36.01.87,0,1.73,0,2.6h-2.46c0-.6,0-1.21,0-1.81,0-1.21,0-1.2-1.21-1.15-.27.01-.34.12-.33.36.01.86,0,1.73,0,2.59h-2.52c0-.61,0-1.23.01-1.85,0-1.17,0-1.16-1.16-1.11-.27.01-.34.11-.33.36.01.87,0,1.73,0,2.6h-2.52c0-.61,0-1.23,0-1.85,0-1.16,0-1.15-1.16-1.11-.27.01-.34.11-.33.36.01.87,0,1.73,0,2.6h-2.52c0-.61,0-1.23,0-1.85,0-1.16,0-1.15-1.16-1.11-.28.01-.34.11-.33.36.01.87,0,1.73,0,2.6h-2.52c0-.62,0-1.23,0-1.85,0-1.16,0-1.15-1.16-1.11-.28.01-.34.11-.33.36.01.87,0,1.73,0,2.6h-2.52c0-.62,0-1.24,0-1.85,0-1.16,0-1.15-1.16-1.11-.28.01-.33.11-.33.36.01.87,0,1.73,0,2.6h-2.52c0-.62,0-1.24,0-1.86,0-1.16,0-1.15-1.16-1.1-.28.01-.33.12-.33.36.01.87,0,1.73,0,2.6-.22,0-.43.03-.65,0-.31-.03-.42.1-.4.39-.4,0-.8,0-1.2,0-1.19,0-1.18,0-1.11,1.18.01.25.11.31.33.31.66-.01,1.32,0,1.98,0v2.52c-.4,0-.8,0-1.2,0-1.19,0-1.18,0-1.11,1.18.01.25.11.31.33.31.66-.01,1.32,0,1.98-.01v2.52c-.4,0-.8,0-1.2,0-1.19,0-1.19,0-1.11,1.18.01.25.11.31.34.31.66-.01,1.32,0,1.98-.01,0,.84,0,1.68,0,2.52-.4,0-.8,0-1.2,0-1.2,0-1.19,0-1.11,1.18.02.25.11.31.34.31.66-.01,1.32,0,1.98-.01v2.52c-.39,0-.78,0-1.16,0-1.24,0-1.24,0-1.16,1.24.01.21.07.31.29.3.67-.02,1.35.05,2.02-.06,0,.84,0,1.68,0,2.52-.39,0-.77,0-1.16,0-1.21,0-1.2,0-1.15,1.21.01.27.11.34.36.34.65-.01,1.3,0,1.95,0v2.46c-.39,0-.77,0-1.16,0-1.21,0-1.2,0-1.15,1.21.01.28.12.34.36.33.65-.01,1.3,0,1.95,0v2.46c-.39,0-.77,0-1.16,0-1.21,0-1.2,0-1.15,1.21.01.28.12.34.36.33.65-.01,1.3,0,1.95,0,0,.84,0,1.68,0,2.52-.4,0-.8,0-1.21,0-1.17,0-1.16,0-1.11,1.16.01.27.11.34.36.34.65-.01,1.3,0,1.95,0,0,.22.1.32.33.3.24-.02.48,0,.72,0,0,.65,0,1.3,0,1.94,0,1.16,0,1.15,1.16,1.1.28-.01.33-.12.33-.36-.01-.89,0-1.79,0-2.69h2.52c0,.65,0,1.3,0,1.95,0,1.16,0,1.15,1.16,1.1.28-.01.33-.12.33-.36-.01-.89,0-1.79,0-2.69h2.52c0,.65,0,1.3,0,1.95,0,1.13,0,1.12,1.11,1.1.32,0,.38-.13.38-.41-.01-.88,0-1.76,0-2.64Z"/><path class="cls-3" d="m28.38,82.67c.18-.19.41-.1.61-.1,12.47,0,24.94,0,37.41,0,.45,0,.72-.17,1.01-.5.76-.87,1.57-1.7,2.39-2.52.26-.26.37-.52.37-.89,0-12.9-.01-25.81,0-38.71.45.44.91.88,1.37,1.31.18.17.12.37.12.56,0,6.43,0,12.87,0,19.3,0,6.36,0,12.71,0,19.07,0,.31-.08.54-.3.77-.89.92-1.77,1.86-2.64,2.8-.18.2-.36.28-.63.28-12.67,0-25.33,0-38,0-.23,0-.41-.04-.57-.22-.37-.4-.75-.78-1.13-1.16Z"/><path class="cls-4" d="m62.07,43.92h2.46s.44.04.44.04c0,2.9.03,5.81,0,8.71-.04,3.73.17,7.46-.17,11.19-.16,1.71-.49,3.37-1.13,4.97-.24.61-.49,1.23-.91,1.75,0-.19-.01-.37-.01-.56,0-6.99,0-13.98,0-20.97,0-.46.21-1.1-.09-1.32-.31-.23-.92-.06-1.39-.06-.15,0-.31-.01-.46-.01-8.34,0-16.68,0-25.02-.01-.42,0-.53.1-.53.53.01,8.09.02,16.18.01,24.27,0,.15,0,.31.01.46,0,.32.02.65-.02.97-.05.43.11.52.52.52,7.5-.01,15-.02,22.5,0,.19,0,.37.01.56.02-.45.23-.89.5-1.36.7-2.54,1.05-5.22,1.46-7.93,1.49-6,.06-11.99.02-17.99.02,0-.09-.02-.19-.03-.28,0-.84,0-1.68,0-2.52,0-.51,0-1.02,0-1.54v-2.46c0-.51,0-1.02,0-1.54v-2.46c0-.51,0-1.02,0-1.54,0-.84,0-1.68,0-2.52,0-.49,0-.98,0-1.47,0-.84,0-1.68,0-2.52v-1.48c0-.84,0-1.68,0-2.52v-1.48s0-2.52,0-2.52c0-.49,0-.98,0-1.48,0-.84,0-1.68,0-2.52v-1.48c-.03-.29.08-.42.39-.39.21.02.43,0,.65,0h3.99s1.48,0,1.48,0h2.52s1.48,0,1.48,0h2.52s1.48,0,1.48,0h2.52s1.47,0,1.47,0h2.52s1.47,0,1.47,0h2.52s1.54-.01,1.54-.01h2.46s1.54,0,1.54,0Z"/><path class="cls-6" d="m31.56,76.62c6,0,11.99.05,17.99-.02,2.71-.03,5.39-.45,7.93-1.49.47-.19.91-.46,1.36-.7,1.17,0,2.35-.02,3.52,0,.3,0,.39-.08.39-.38-.01-1.14,0-2.29,0-3.43.42-.52.66-1.14.91-1.75.63-1.6.97-3.26,1.13-4.97.35-3.73.13-7.46.17-11.19.03-2.9,0-5.81,0-8.71l1.09-.04c.28-.01.44.1.41.41v1.48c0,.84,0,1.68,0,2.52v1.48s0,2.52,0,2.52v1.48c0,.84,0,1.68,0,2.52,0,.49,0,.98,0,1.48,0,.84,0,1.68,0,2.52,0,.51,0,1.02,0,1.53,0,.82,0,1.64,0,2.46v1.53c0,.82,0,1.64,0,2.46,0,.51,0,1.02,0,1.53,0,.82,0,1.64,0,2.46,0,.51,0,1.02,0,1.53,0,.84,0,1.68,0,2.52,0,.49,0,.98,0,1.48.02.31-.2.3-.41.31h-1.53s-2.46,0-2.46,0h-4s-1.53,0-1.53,0h-2.52s-1.47,0-1.47,0h-2.52s-1.48,0-1.48,0h-2.52s-1.48,0-1.48,0h-2.52s-1.48,0-1.48,0h-2.52s-1.48,0-1.48,0h-2.52s-1.48,0-1.48,0c-.24,0-.48-.02-.72,0-.23.02-.33-.08-.33-.3l.03-1.19Z"/><path class="cls-13" d="m60.53,78.13h1.53c0,.88,0,1.76.01,2.64,0,.29-.07.4-.38.41-1.17.02-1.17.03-1.17-1.15,0-.63,0-1.27,0-1.9Z"/><path class="cls-10" d="m56.54,78.13h1.53c0,.85,0,1.7.01,2.55,0,.35-.07.5-.46.49-1.08,0-1.09,0-1.08-1.1,0-.65,0-1.3,0-1.95Z"/><path class="cls-10" d="m64.53,78.13h1.53c0,.88,0,1.76.01,2.64,0,.3-.09.4-.39.4-1.15.01-1.15.02-1.15-1.14,0-.63,0-1.27,0-1.9Z"/><path class="cls-10" d="m58.07,43.92h-1.54c0-.86,0-1.73,0-2.59,0-.25.06-.35.33-.36,1.21-.05,1.21-.06,1.21,1.15,0,.6,0,1.21,0,1.81Z"/><path class="cls-13" d="m62.07,43.92h-1.54c0-.87,0-1.73,0-2.6,0-.25.06-.35.34-.36,1.21-.05,1.21-.06,1.21,1.15,0,.6,0,1.2,0,1.81Z"/><path class="cls-10" d="m66.06,43.92l-1.09.04-.44-.04c0-.86,0-1.73,0-2.59,0-.25.06-.35.33-.36,1.21-.05,1.21-.06,1.21,1.15,0,.6,0,1.2,0,1.81Z"/><path class="cls-10" d="m66.47,69.82c0-.51,0-1.02,0-1.53.85,0,1.69,0,2.54,0,.3,0,.41.11.4.41-.03,1.38.19,1.11-1.09,1.14-.62.01-1.23,0-1.85,0Z"/><path class="cls-10" d="m66.47,61.83c0-.51,0-1.02,0-1.53.85,0,1.69,0,2.54,0,.3,0,.41.1.4.4-.03,1.38.2,1.12-1.09,1.14-.62.01-1.23,0-1.85,0Z"/><path class="cls-10" d="m66.47,65.83v-1.53c.85,0,1.69,0,2.54,0,.3,0,.41.1.4.4-.03,1.38.19,1.12-1.09,1.14-.62.01-1.23,0-1.85,0Z"/><path class="cls-10" d="m66.47,73.82c0-.51,0-1.02,0-1.53.83,0,1.66,0,2.49-.01.35,0,.45.11.45.45,0,1.09.01,1.09-1.1,1.09-.62,0-1.23,0-1.85,0Z"/><path class="cls-16" d="m32.57,78.12h1.48c0,.9,0,1.79,0,2.69,0,.24-.05.35-.33.36-1.16.05-1.16.06-1.16-1.1,0-.65,0-1.3,0-1.94Z"/><path class="cls-16" d="m36.57,78.12h1.48c0,.89,0,1.79,0,2.68,0,.24-.05.35-.33.36-1.16.05-1.16.06-1.16-1.1,0-.65,0-1.3,0-1.94Z"/><path class="cls-16" d="m44.55,78.12h1.48c0,.88,0,1.75.01,2.63,0,.28-.05.41-.38.41-1.12.02-1.12.03-1.12-1.1,0-.65,0-1.3,0-1.94Z"/><path class="cls-10" d="m48.55,78.12h1.48c0,.87,0,1.75.01,2.63,0,.28-.05.41-.38.42-1.12.02-1.12.03-1.12-1.1,0-.65,0-1.3,0-1.94Z"/><path class="cls-10" d="m52.54,78.13h1.47c0,.89,0,1.78.01,2.67,0,.29-.1.36-.38.37-1.12.02-1.12.03-1.12-1.1,0-.65,0-1.29,0-1.94Z"/><path class="cls-16" d="m40.56,78.12h1.48c0,.88,0,1.76.01,2.63,0,.28-.05.41-.38.41-1.12.02-1.12.03-1.11-1.1,0-.65,0-1.3,0-1.94Z"/><path class="cls-10" d="m66.46,57.78c0-.49,0-.98,0-1.48.86,0,1.72,0,2.59,0,.25,0,.35.06.36.33.05,1.16.06,1.16-1.11,1.16-.62,0-1.23,0-1.85,0Z"/><path class="cls-16" d="m66.46,49.8v-1.48c.87,0,1.73,0,2.59,0,.25,0,.35.06.36.33.05,1.16.06,1.16-1.1,1.16-.62,0-1.23,0-1.85,0Z"/><path class="cls-16" d="m66.46,53.79v-1.48c.87,0,1.73,0,2.59,0,.25,0,.35.06.36.33.05,1.16.06,1.16-1.1,1.16-.62,0-1.23,0-1.85,0Z"/><path class="cls-16" d="m66.46,45.8v-1.48c.86,0,1.73,0,2.59,0,.25,0,.35.06.36.33.05,1.16.06,1.16-1.1,1.16-.62,0-1.23,0-1.85,0Z"/><path class="cls-10" d="m54.02,43.93h-1.47c0-.87,0-1.74,0-2.6,0-.25.06-.35.33-.36,1.16-.05,1.16-.06,1.16,1.11,0,.62,0,1.24-.01,1.85Z"/><path class="cls-16" d="m46.03,43.93h-1.48c0-.87,0-1.74,0-2.6,0-.25.06-.35.33-.36,1.16-.05,1.16-.06,1.16,1.11,0,.62,0,1.24,0,1.86Z"/><path class="cls-10" d="m66.47,77.81c0-.49,0-.98,0-1.48.85,0,1.69,0,2.54-.01.28,0,.41.05.42.38.02,1.12.03,1.12-1.1,1.12-.62,0-1.23,0-1.85,0Z"/><path class="cls-16" d="m50.02,43.93h-1.47c0-.87,0-1.74,0-2.6,0-.25.06-.35.33-.36,1.16-.05,1.16-.06,1.16,1.11,0,.62,0,1.24,0,1.85Z"/><path class="cls-16" d="m42.04,43.93h-1.48c0-.87,0-1.74,0-2.6,0-.25.06-.35.33-.36,1.16-.05,1.16-.06,1.16,1.11,0,.62,0,1.24,0,1.86Z"/><path class="cls-5" d="m38.04,43.93h-1.48c0-.87,0-1.73,0-2.6,0-.25.05-.35.33-.36,1.16-.04,1.16-.05,1.16,1.11,0,.62,0,1.24,0,1.86Z"/><path class="cls-5" d="m34.05,43.93h-1.47c0-.87,0-1.73,0-2.6,0-.25.05-.35.33-.36,1.16-.04,1.16-.05,1.16,1.1,0,.62,0,1.24,0,1.86Z"/><path class="cls-10" d="m31.53,64.3c0,.51,0,1.02,0,1.54-.65,0-1.3,0-1.95,0-.25,0-.35-.06-.36-.34-.05-1.21-.06-1.21,1.15-1.21.39,0,.77,0,1.16,0Z"/><path class="cls-10" d="m31.53,68.29c0,.51,0,1.02,0,1.54-.65,0-1.3,0-1.95,0-.25,0-.35-.06-.36-.33-.05-1.21-.06-1.21,1.15-1.21.39,0,.77,0,1.16,0Z"/><path class="cls-10" d="m31.53,72.28c0,.51,0,1.02,0,1.54-.65,0-1.3,0-1.95,0-.24,0-.35-.06-.36-.33-.05-1.21-.06-1.21,1.15-1.21.39,0,.77,0,1.16,0Z"/><path class="cls-10" d="m31.53,60.3c0,.49,0,.98,0,1.47-.67.11-1.35.04-2.02.06-.22,0-.28-.09-.29-.3-.08-1.24-.09-1.24,1.16-1.24.38,0,.77,0,1.15,0Z"/><path class="cls-16" d="m31.53,52.31v1.48c-.66,0-1.32,0-1.98.01-.22,0-.32-.06-.34-.31-.07-1.18-.08-1.18,1.11-1.18.4,0,.8,0,1.2,0Z"/><path class="cls-16" d="m31.53,48.32c0,.49,0,.98,0,1.48-.66,0-1.32,0-1.98.01-.23,0-.32-.06-.33-.31-.07-1.18-.08-1.18,1.11-1.18.4,0,.8,0,1.2,0Z"/><path class="cls-5" d="m31.53,44.33v1.48c-.66,0-1.32,0-1.98,0-.23,0-.32-.06-.33-.31-.07-1.18-.07-1.18,1.11-1.18.4,0,.8,0,1.2,0Z"/><path class="cls-16" d="m31.53,56.31v1.48c-.65,0-1.32,0-1.98.01-.22,0-.32-.06-.34-.31-.07-1.19-.08-1.18,1.11-1.18.4,0,.8,0,1.2,0Z"/><path class="cls-10" d="m31.56,76.62l-.04,1.19c-.65,0-1.3,0-1.95,0-.25,0-.35-.06-.36-.34-.05-1.16-.06-1.16,1.11-1.16.4,0,.8,0,1.21,0,0,.09.02.19.03.28Z"/><path class="cls-5" d="m35.28,72.91c0-.15-.01-.31-.01-.46,0-8.09,0-16.18-.01-24.27,0-.42.1-.53.53-.53,8.34.01,16.68.02,25.02.01.15,0,.31,0,.46.01,0,1.48.02,2.97,0,4.45-.05,3.24.12,6.49-.09,9.73-.08,1.32-.39,2.58-.85,3.81-.69,1.84-1.77,3.42-3.32,4.64-2.37,1.86-5.15,2.54-8.08,2.59-4.54.07-9.09.02-13.64.02Zm14.39-5.2h2.23c0,.9,0,1.79,0,2.69,0,1.11,0,1.1,1.12,1.09.32,0,.38-.12.38-.4-.02-1.13,0-2.25-.01-3.38.75,0,1.5-.02,2.26,0,.32,0,.43-.08.42-.41-.02-.6,0-1.2,0-1.79.74,0,1.48,0,2.22,0,1.11,0,1.1,0,1.08-1.13,0-.29-.1-.37-.38-.36-.97.02-1.94,0-2.92.01,0-.75,0-1.49,0-2.24.74,0,1.48,0,2.23,0,1.09,0,1.08,0,1.08-1.09,0-.34-.11-.41-.42-.41-.96.02-1.92,0-2.88.01,0-.75,0-1.5,0-2.24.74,0,1.48,0,2.23,0,1.09,0,1.08,0,1.08-1.09,0-.34-.11-.41-.42-.41-.96.02-1.92,0-2.88.01,0-.63-.01-1.27,0-1.9,0-.25-.07-.37-.34-.35-.38.02-.77.01-1.16.02l-1.18-.02c0-.86,0-1.72,0-2.59,0-1.14,0-1.13-1.14-1.11-.29,0-.36.1-.36.37.01,1.11,0,2.22,0,3.33h-2.23c0-.86,0-1.72,0-2.59,0-1.14,0-1.13-1.14-1.11-.29,0-.36.1-.36.37.01,1.11,0,2.22,0,3.33h-2.23c0-.86,0-1.73,0-2.59,0-1.14,0-1.13-1.14-1.11-.29,0-.36.1-.36.37.01,1.11,0,2.22,0,3.33-.71,0-1.42.02-2.13,0-.31,0-.4.1-.39.4.02.62,0,1.24,0,1.86-.77,0-1.54,0-2.32,0-1.14,0-1.13,0-1.11,1.14,0,.3.1.36.37.36,1.02-.01,2.04,0,3.06,0,0,.75,0,1.49,0,2.24-.77,0-1.54,0-2.31,0-1.14,0-1.13,0-1.11,1.14,0,.3.11.36.38.35,1.02-.01,2.04,0,3.05,0v2.23c-.77,0-1.55,0-2.32,0-1.14,0-1.13,0-1.11,1.14,0,.3.1.36.38.36,1.02-.01,2.04,0,3.05,0,0,.23.01.47.02.7,0,.39,0,.77-.02,1.16-.01.27.1.34.35.34.72,0,1.45,0,2.17,0,0,.89,0,1.79,0,2.68,0,1.11,0,1.1,1.12,1.09.32,0,.38-.11.38-.4-.02-1.13,0-2.25-.01-3.38h2.24c0,.9,0,1.79,0,2.69,0,1.11,0,1.1,1.12,1.09.32,0,.38-.12.38-.4-.02-1.13,0-2.25-.01-3.38Z"/><path class="cls-7" d="m35.28,72.91c4.55,0,9.09.05,13.64-.02,2.93-.05,5.71-.73,8.08-2.59,1.55-1.22,2.63-2.8,3.32-4.64.46-1.23.77-2.49.85-3.81.2-3.24.04-6.49.09-9.73.02-1.48,0-2.97,0-4.45.48,0,1.08-.17,1.39.06.29.22.09.87.09,1.32,0,6.99,0,13.98,0,20.97,0,.19,0,.37.01.56,0,1.14-.02,2.29,0,3.43,0,.31-.08.39-.39.38-1.17-.01-2.35,0-3.52,0-.19,0-.37-.02-.56-.02-7.5,0-15,0-22.5,0-.41,0-.58-.09-.52-.52.04-.32.02-.65.02-.97Z"/><path class="cls-15" d="m41.94,56.59c0-.62.02-1.24,0-1.86,0-.3.08-.4.39-.4.71.02,1.42,0,2.13,0h3.72s1.49,0,1.49,0h2.23s1.49,0,1.49,0l1.18.02c-.04,2.37.15,4.75-.1,7.12-.12,1.13-.47,2.2-1.36,3,0-.18-.01-.37-.01-.55,0-2.05,0-4.1,0-6.16,0-.34-.07-.48-.43-.45-.35.03-.71.02-1.06.02-2.11,0-4.23,0-6.34-.02-.26,0-.34.08-.34.34.01,1.87.01,3.73.02,5.6,0,.32.02.65-.02.97-.05.44.13.53.54.53,2.45-.01,4.91,0,7.36,0-.11.15-.25.27-.4.38-1.09.75-2.34,1.05-3.63,1.08-2.27.05-4.55.01-6.82,0,0-.23-.01-.47-.02-.7,0-.5,0-.99,0-1.49,0-.74,0-1.49,0-2.23,0-.5,0-.99,0-1.49,0-.75,0-1.49,0-2.24,0-.5,0-.99,0-1.49Z"/><path class="cls-9" d="m41.96,66.22c2.27,0,4.55.04,6.82,0,1.29-.03,2.53-.33,3.63-1.08.16-.11.29-.22.4-.38.13-.06.23-.16.29-.29.89-.8,1.25-1.87,1.36-3,.25-2.37.06-4.74.1-7.12.39,0,.77,0,1.16-.02.27-.01.34.1.34.35-.01.63,0,1.27,0,1.9,0,.49,0,.99,0,1.48,0,.75,0,1.5,0,2.24,0,.49,0,.99,0,1.48,0,.75,0,1.49,0,2.24,0,.49,0,.99,0,1.48,0,.6-.02,1.2,0,1.79.01.33-.11.42-.42.41-.75-.02-1.5,0-2.26,0h-1.48s-2.24,0-2.24,0h-1.48s-2.24,0-2.24,0h-1.48c-.72,0-1.45-.01-2.17,0-.25,0-.37-.07-.35-.34.02-.38.01-.77.02-1.15Z"/><path class="cls-8" d="m51.9,67.72h1.48c0,1.12,0,2.25.01,3.37,0,.29-.06.4-.38.4-1.12,0-1.12.02-1.12-1.09,0-.89,0-1.79,0-2.68Z"/><path class="cls-14" d="m48.19,67.72h1.48c0,1.12,0,2.25.01,3.37,0,.29-.06.4-.38.4-1.12,0-1.12.02-1.12-1.09,0-.89,0-1.79,0-2.68Z"/><path class="cls-8" d="m44.46,67.72h1.48c0,1.12,0,2.25.01,3.38,0,.29-.06.4-.38.4-1.12,0-1.12.02-1.12-1.09,0-.89,0-1.79,0-2.68Z"/><path class="cls-8" d="m45.95,54.34h-1.49c0-1.11,0-2.22,0-3.33,0-.28.07-.37.36-.37,1.14-.01,1.14-.03,1.14,1.11,0,.86,0,1.73,0,2.59Z"/><path class="cls-8" d="m49.67,54.34h-1.49c0-1.11,0-2.22,0-3.33,0-.28.07-.37.36-.37,1.14-.02,1.14-.03,1.14,1.11,0,.86,0,1.73,0,2.59Z"/><path class="cls-4" d="m53.39,54.34h-1.49c0-1.11,0-2.22,0-3.33,0-.28.07-.37.36-.37,1.14-.02,1.14-.03,1.14,1.11,0,.86,0,1.72,0,2.59Z"/><path class="cls-4" d="m41.93,64.03c0,.5,0,.99,0,1.49-1.02,0-2.04,0-3.05,0-.27,0-.37-.06-.38-.36-.02-1.14-.03-1.14,1.11-1.14.77,0,1.54,0,2.31,0Z"/><path class="cls-4" d="m41.94,60.32c0,.5,0,.99,0,1.49-1.02,0-2.04,0-3.05,0-.27,0-.37-.06-.38-.35-.01-1.14-.03-1.14,1.11-1.14.77,0,1.54,0,2.31,0Z"/><path class="cls-8" d="m41.94,56.59c0,.5,0,.99,0,1.49-1.02,0-2.04,0-3.06,0-.27,0-.37-.06-.37-.36-.01-1.14-.02-1.14,1.11-1.14.77,0,1.54,0,2.32,0Z"/><path class="cls-14" d="m56.06,61.8c0-.49,0-.99,0-1.48.96,0,1.92,0,2.88-.01.32,0,.43.07.42.41,0,1.09.01,1.09-1.08,1.09-.74,0-1.48,0-2.23,0Z"/><path class="cls-14" d="m56.06,58.07c0-.49,0-.99,0-1.48.96,0,1.92,0,2.88-.01.32,0,.42.07.42.41,0,1.09.01,1.09-1.08,1.09-.74,0-1.48,0-2.23,0Z"/><path class="cls-4" d="m56.06,65.51c0-.49,0-.99,0-1.48.97,0,1.95,0,2.92-.01.28,0,.37.07.38.36.02,1.13.03,1.14-1.08,1.13-.74,0-1.48,0-2.22,0Z"/><path class="cls-11" d="m44.93,63.25c0-1.87,0-3.73-.02-5.6,0-.26.08-.34.34-.34,2.11.01,4.23.01,6.34.02,0,1.03.02,2.07,0,3.1-.01.57-.15,1.12-.49,1.61-.64.91-1.59,1.17-2.62,1.21-1.19.04-2.37,0-3.56,0Z"/><path class="cls-12" d="m44.93,63.25c1.19,0,2.38.03,3.56,0,1.02-.03,1.97-.3,2.62-1.21.34-.49.48-1.03.49-1.61.02-1.03,0-2.07,0-3.1.35,0,.71.01,1.06-.02.36-.03.44.11.43.45-.01,2.05,0,4.1,0,6.16,0,.18,0,.37.01.55-.06.13-.16.23-.29.29-2.45,0-4.91-.02-7.36,0-.41,0-.6-.08-.54-.53.04-.32.02-.65.02-.97Z"/><path d="m25.18,26.99c-2.06-3.33-1.17-7.41,2.24-9.52,2.05-1.27,4.49-1.37,6.47-.38l-1.43,2.67c-1.04-.56-2.33-.48-3.48.23-2,1.24-2.47,3.38-1.22,5.4,1.25,2.02,3.37,2.56,5.38,1.32,1.15-.71,1.81-1.84,1.76-3.01l3.03-.09c.02,2.2-1.16,4.34-3.23,5.62-3.41,2.11-7.46,1.09-9.52-2.24Z"/><path d="m47.88,18.76l1.06,5.73-2.8.52-.99-5.32c-.21-1.16-1.04-1.56-1.94-1.4-1.03.19-1.63.92-1.38,2.24l.94,5.1-2.8.52-2.42-13.08,2.8-.52.85,4.61c.38-.78,1.23-1.41,2.46-1.63,1.89-.35,3.74.7,4.21,3.22Z"/><path d="m50.7,15.3l2.85.16-.52,9.49-2.85-.16.52-9.49Zm-.15-2.56c.05-.93.87-1.66,1.8-1.61.93.05,1.67.87,1.62,1.8-.05.93-.87,1.67-1.8,1.61-.93-.05-1.67-.87-1.61-1.8Z"/><path d="m65.56,23.28c-.85,2.7-3.46,4.17-5.83,3.43-1.21-.38-1.97-1.08-2.36-1.95l-1.4,4.48-2.72-.85,3.97-12.69,2.72.85-.27.85c.81-.5,1.83-.64,3.05-.26,2.38.74,3.68,3.44,2.83,6.14Zm-2.72-.85c.43-1.36-.21-2.5-1.46-2.89s-2.42.18-2.85,1.54c-.43,1.36.21,2.5,1.46,2.89,1.25.39,2.42-.18,2.85-1.54Z"/><path d="m72.17,30.19c-1.25,1.79-3.34,1.47-5.02.29-1.56-1.09-2.33-2.5-2.06-4.19l2.83.26c-.21.73,0,1.37.68,1.84.56.39.96.42,1.18.1.6-.86-3.55-3.08-1.67-5.78,1.18-1.7,3.22-1.56,4.84-.42,1.26.88,1.99,2.22,1.88,3.79l-2.75-.32c.06-.56-.05-1.06-.57-1.42-.41-.28-.76-.3-.96-.02-.62.89,3.63,2.97,1.62,5.85Z"/></svg>