<?xml version="1.0" encoding="UTF-8"?><svg id="Layer_1" xmlns="http://www.w3.org/2000/svg" viewBox="0 0 100 100"><defs><style>.cls-1{fill:none;stroke:#a5262d;stroke-miterlimit:10;stroke-width:4px;}.cls-2{fill:#484645;}.cls-3{fill:#64c7ef;}</style></defs><circle class="cls-1" cx="50" cy="50" r="45"/><path d="m21.28,30.93c-2.53-2.99-2.26-7.16.8-9.75,1.84-1.56,4.24-2.02,6.34-1.34l-1.02,2.86c-1.11-.4-2.38-.13-3.4.75-1.8,1.52-1.94,3.71-.4,5.52,1.54,1.81,3.72,2.03,5.51.51,1.03-.87,1.52-2.09,1.29-3.24l2.98-.54c.35,2.17-.5,4.46-2.36,6.04-3.06,2.59-7.22,2.18-9.75-.8Z"/><path d="m33.69,23.62c-.93-2.67.48-5.47,3.12-6.39s5.47.42,6.4,3.09c.93,2.67-.48,5.47-3.12,6.39-2.64.91-5.47-.42-6.4-3.09Zm6.82-2.36c-.44-1.27-1.63-1.81-2.8-1.4-1.17.4-1.77,1.56-1.33,2.83.44,1.27,1.63,1.81,2.8,1.4,1.17-.4,1.77-1.56,1.33-2.83Z"/><path d="m55.63,20.06c-.02,2.83-2.09,5-4.58,4.98-1.27-.01-2.2-.45-2.82-1.18v.89s-2.86-.02-2.86-.02l.11-13.3,2.85.02-.04,4.69c.63-.72,1.57-1.15,2.84-1.14,2.49.02,4.53,2.22,4.5,5.05Zm-2.85-.02c.01-1.42-.93-2.33-2.24-2.34-1.31-.01-2.27.88-2.28,2.3-.01,1.42.93,2.33,2.24,2.34,1.31.01,2.27-.88,2.28-2.3Z"/><path d="m68.63,19.57l-3.36,8.88-2.66-1.01.32-.83c-.84.45-1.87.53-3.06.08-2.33-.88-3.47-3.65-2.47-6.3,1-2.65,3.69-3.96,6.02-3.08,1.19.45,1.91,1.19,2.24,2.09l.32-.83,2.66,1.01Zm-4.35,3.43c.5-1.33-.07-2.5-1.29-2.97-1.23-.46-2.43.03-2.94,1.37-.5,1.33.07,2.5,1.29,2.97,1.23.46,2.43-.03,2.94-1.37Z"/><path d="m74.22,18.12l2.33,1.64-7.98,11.34-2.33-1.64,7.98-11.34Z"/><path d="m77.17,29.84l-2.4,2.36c-.58.57-.15,1.13.79,1.97l-1.85,1.81c-2.88-2.39-2.84-3.95-.94-5.81l2.4-2.36-1.06-1.09,1.95-1.92,1.06,1.09,1.29-1.26,2.61,1.44-1.9,1.86,1.37,1.4-1.95,1.92-1.37-1.4Z"/><rect class="cls-3" x="23" y="40" width="52" height="37" rx="2.88" ry="2.88"/><path class="cls-2" d="m40.32,70.83c-3.56,0-6.5-1.18-8.83-3.53-2.33-2.35-3.5-5.29-3.5-8.8s1.17-6.44,3.5-8.8c2.33-2.35,5.27-3.53,8.83-3.53,2.14,0,4.12.51,5.94,1.52,1.82,1.01,3.25,2.38,4.29,4.09l-5.23,3.01c-.45-.83-1.12-1.49-2.01-1.98-.89-.48-1.89-.73-2.99-.73-1.89,0-3.42.59-4.58,1.77-1.16,1.18-1.74,2.73-1.74,4.64s.58,3.46,1.74,4.64,2.68,1.77,4.58,1.77c1.1,0,2.1-.24,2.99-.73.89-.48,1.56-1.15,2.01-2.01l5.23,3.04c-1.04,1.73-2.46,3.1-4.27,4.1-1.81,1-3.8,1.5-5.96,1.5Z"/><path class="cls-2" d="m60.99,70.79c-2.5,0-4.63-.86-6.38-2.58-1.76-1.72-2.63-3.83-2.63-6.33s.88-4.61,2.63-6.33c1.76-1.72,3.88-2.58,6.38-2.58s4.65.86,6.4,2.58c1.74,1.72,2.62,3.83,2.62,6.33s-.87,4.61-2.62,6.33c-1.75,1.72-3.88,2.58-6.4,2.58Zm0-5.4c.99,0,1.81-.33,2.45-.98.64-.65.96-1.5.96-2.53s-.32-1.88-.96-2.53c-.64-.65-1.46-.98-2.45-.98s-1.77.33-2.42.98c-.64.65-.96,1.5-.96,2.53s.32,1.88.96,2.53c.64.65,1.45.98,2.42.98Z"/></svg>