<?xml version="1.0" encoding="UTF-8"?><svg id="Layer_1" xmlns="http://www.w3.org/2000/svg" viewBox="0 0 100 100"><defs><style>.cls-1{fill:#009245;}.cls-2{fill:none;stroke:#c000e2;stroke-miterlimit:10;stroke-width:4px;}</style></defs><circle class="cls-2" cx="50" cy="50" r="45"/><path d="m15.31,46.47c-2.47-.54-3.96-2.79-3.4-5.31.33-1.52,1.38-2.7,2.73-3.17l.6,1.86c-.73.23-1.27.86-1.46,1.71-.33,1.48.46,2.66,1.95,2.99,1.5.33,2.7-.41,3.03-1.9.19-.85-.04-1.67-.6-2.17l1.32-1.44c1.03.98,1.49,2.48,1.15,4.02-.55,2.53-2.85,3.94-5.31,3.4Z"/><path d="m18.66,37.97c-1.63-.82-2.25-2.74-1.44-4.35.81-1.61,2.71-2.27,4.35-1.46,1.63.82,2.25,2.74,1.44,4.35-.81,1.61-2.71,2.27-4.35,1.46Zm2.08-4.17c-.78-.39-1.57-.1-1.92.61-.36.71-.12,1.52.66,1.91s1.57.1,1.92-.61c.36-.71.12-1.52-.66-1.91Z"/><path d="m27.86,23.65l2.78,2.53-1.24,1.36-2.67-2.42c-.45-.41-.94-.46-1.34-.02-.41.45-.33,1,.21,1.48l2.56,2.32-1.24,1.36-2.67-2.42c-.45-.41-.94-.46-1.34-.02-.41.45-.32,1,.21,1.48l2.56,2.32-1.24,1.36-4.53-4.12,1.24-1.36.42.38c-.12-.49,0-1.1.56-1.71.49-.54,1.07-.74,1.68-.64-.13-.58.01-1.21.6-1.86.95-1.04,2.31-1.05,3.44-.02Z"/><path d="m33.02,17.59l3.27,5.18-1.55.98-.31-.49c-.04.56-.4,1.14-1.08,1.57-1.04.66-2.41.48-3.29-.92l-2.01-3.18,1.55-.98,1.86,2.95c.41.64,1,.69,1.5.37.57-.36.75-.94.29-1.68l-1.79-2.83,1.55-.98Z"/><path d="m41.38,16.85l1.26,3.54-1.73.62-1.17-3.29c-.25-.72-.82-.89-1.38-.69-.63.23-.94.75-.65,1.57l1.12,3.15-1.73.62-2.06-5.77,1.73-.62.19.54c.16-.54.64-1.02,1.4-1.29,1.17-.42,2.46.06,3.01,1.62Z"/><path d="m42.04,12.7c-.11-.59.3-1.17.89-1.28s1.18.3,1.28.89c.11.59-.3,1.18-.89,1.28-.59.11-1.17-.29-1.28-.89Zm.48,1.58l1.81-.33,1.1,6.03-1.81.33-1.1-6.03Z"/><path d="m46.07,16.69c-.05-1.83,1.29-3.28,3.15-3.33,1.19-.04,2.26.56,2.81,1.48l-1.58.98c-.22-.42-.67-.67-1.21-.65-.79.02-1.37.62-1.34,1.46.02.85.63,1.4,1.43,1.38.54-.02.98-.29,1.17-.72l1.63.87c-.5.97-1.52,1.63-2.72,1.66-1.86.05-3.29-1.31-3.34-3.14Z"/><path d="m59.65,14.68l-1.09,6.03-1.81-.33.1-.57c-.48.39-1.12.56-1.93.41-1.58-.29-2.63-1.91-2.3-3.71.33-1.8,1.88-2.95,3.46-2.66.81.15,1.35.53,1.66,1.06l.1-.57,1.81.33Zm-2.36,2.68c.17-.9-.34-1.58-1.17-1.73-.83-.15-1.54.31-1.7,1.21-.17.9.33,1.58,1.17,1.73.83.15,1.54-.31,1.7-1.21Z"/><path d="m63.23,17.9l-.79,2.02c-.19.49.21.7.98.95l-.61,1.55c-2.33-.65-2.71-1.57-2.09-3.17l.79-2.02-.91-.36.64-1.64.91.36.42-1.08,1.91.16-.62,1.6,1.17.46-.64,1.64-1.17-.46Z"/><path d="m66.41,17.41l1.62.87-2.9,5.4-1.62-.87,2.9-5.4Zm.62-1.53c.28-.53.96-.73,1.49-.45.53.28.73.96.45,1.49-.28.53-.96.73-1.49.45-.53-.28-.74-.96-.45-1.49Z"/><path d="m67.74,21.49c1.11-1.45,3.12-1.69,4.55-.59,1.43,1.1,1.72,3.1.61,4.55-1.11,1.45-3.12,1.69-4.55.59-1.43-1.1-1.72-3.1-.61-4.55Zm3.69,2.84c.53-.69.4-1.52-.24-2.01s-1.47-.4-2,.29-.39,1.52.24,2.01c.63.49,1.47.4,2-.29Z"/><path d="m78.1,30.44l-2.89,2.41-1.18-1.41,2.68-2.24c.59-.49.55-1.08.17-1.53-.43-.52-1.03-.62-1.7-.07l-2.57,2.14-1.18-1.41,4.71-3.93,1.18,1.41-.44.37c.56-.04,1.18.25,1.7.87.79.95.79,2.33-.48,3.39Z"/><path d="m80.69,37.38c-1.67.87-3.22.02-3.99-1.44-.6-1.15-.64-2.46.24-3.51l1.65,1.04c-.41.43-.54.92-.2,1.58.38.72.92.83,1.39.59.47-.24.68-.76.31-1.47l-.19-.36.64-1.18,2.47.46-1.45-2.78,1.63-.85,2.55,4.88-1.41.74-2.36-.44c.16,1.1-.23,2.18-1.28,2.73Z"/><path d="m84.5,46.53c-2.55.59-4.52-.83-5.06-3.17-.61-2.63.89-4.96,3.29-5.52,2.42-.56,4.8.91,5.37,3.37.37,1.6-.11,3.13-1.06,4.09l-1.31-1.41c.47-.47.72-1.33.51-2.27-.33-1.41-1.61-2.22-3.08-1.88-1.42.33-2.23,1.57-1.85,3.2.26,1.11.92,1.72,1.79,1.84l-.52-2.23,1.67-.39.97,4.19-.72.17Z"/><path class="cls-1" d="m62.84,38c-8.46-.16-17.85-.2-26.32.09-14.76,1.87-21.96,20.93-11.59,31.84,2.16,3.33-1.64,9.47,2.3,11.82,3.25,1,5.15-3.38,7.44-5.06,9.18-1.04,20.25.49,29.81-.45,22.1-2.92,20.72-37.22-1.64-38.24Z"/><path d="m42.98,55.26c1.14.36,2.06.97,2.75,1.83s1.04,1.91,1.04,3.13c0,1.92-.63,3.4-1.89,4.43-1.26,1.04-2.81,1.55-4.66,1.55-1.48,0-2.79-.34-3.94-1.02-1.15-.68-1.98-1.68-2.49-3.01l3.98-2.27c.37,1.24,1.19,1.86,2.45,1.86.65,0,1.14-.15,1.49-.46.35-.31.52-.71.52-1.22s-.17-.91-.52-1.21c-.35-.3-.84-.45-1.49-.45h-.97l-1.76-2.6,2.85-3.49h-5.99v-4.36h11.59v3.59l-2.98,3.67Z"/><path d="m66.55,55.62v1.81c0,2.62-.82,4.74-2.46,6.36-1.64,1.62-3.77,2.43-6.38,2.43-2.79,0-5.08-.89-6.87-2.67-1.79-1.78-2.69-3.98-2.69-6.6s.89-4.82,2.68-6.62c1.78-1.8,3.99-2.7,6.62-2.7,1.67,0,3.19.37,4.57,1.12,1.38.75,2.47,1.74,3.25,2.98l-3.87,2.22c-.36-.56-.88-1.01-1.57-1.35-.69-.34-1.47-.51-2.33-.51-1.41,0-2.57.46-3.47,1.38-.9.92-1.35,2.09-1.35,3.52s.45,2.54,1.34,3.49c.89.95,2.14,1.43,3.76,1.43,2.07,0,3.44-.78,4.1-2.34h-4.33v-3.92h9Z"/></svg>