<?xml version="1.0" encoding="UTF-8"?><svg id="Layer_1" xmlns="http://www.w3.org/2000/svg" viewBox="0 0 100 100"><defs><style>.cls-1{fill:none;stroke:#c000e2;stroke-miterlimit:10;stroke-width:4px;}.cls-2{fill:#fedd46;}</style></defs><circle class="cls-1" cx="50" cy="50" r="45"/><path d="m14.92,47.47c-2.63-.51-4.26-2.86-3.73-5.55.32-1.62,1.4-2.89,2.82-3.42l.68,1.96c-.77.26-1.33.95-1.5,1.85-.31,1.58.55,2.81,2.14,3.12,1.59.31,2.85-.5,3.16-2.08.18-.91-.08-1.76-.69-2.28l1.37-1.56c1.11,1.01,1.64,2.6,1.32,4.23-.53,2.69-2.92,4.25-5.55,3.73Z"/><path d="m18.27,38.37c-1.74-.85-2.41-2.89-1.57-4.6s2.86-2.44,4.6-1.58c1.74.85,2.41,2.88,1.57,4.6-.84,1.72-2.86,2.44-4.59,1.59Zm2.17-4.44c-.83-.41-1.66-.09-2.03.67s-.11,1.61.72,2.02c.83.41,1.66.09,2.03-.67.37-.76.11-1.61-.72-2.02Z"/><path d="m28.01,23.18l2.94,2.7-1.32,1.44-2.82-2.59c-.48-.44-1-.49-1.42-.03-.44.48-.35,1.05.21,1.57l2.7,2.48-1.32,1.44-2.82-2.59c-.48-.44-1-.49-1.42-.03-.44.48-.35,1.06.21,1.58l2.7,2.48-1.32,1.44-4.79-4.4,1.32-1.44.44.4c-.12-.52.02-1.17.6-1.81.52-.56,1.14-.77,1.78-.67-.14-.62.02-1.29.64-1.97,1.01-1.1,2.46-1.1,3.65,0Z"/><path d="m33.61,16.87l3.35,5.56-1.67,1.01-.32-.52c-.05.59-.45,1.2-1.18,1.64-1.12.68-2.56.45-3.47-1.05l-2.06-3.42,1.67-1.01,1.91,3.17c.42.69,1.04.75,1.58.43.61-.37.82-.98.34-1.77l-1.83-3.04,1.67-1.01Z"/><path d="m42.54,16.34l1.21,3.8-1.86.59-1.13-3.53c-.25-.77-.84-.97-1.44-.78-.68.22-1.03.76-.74,1.64l1.08,3.38-1.86.59-1.98-6.19,1.86-.59.19.58c.19-.56.71-1.06,1.53-1.32,1.25-.4,2.6.15,3.13,1.82Z"/><path d="m43.43,11.96c-.09-.63.37-1.23,1-1.32.63-.09,1.23.37,1.32,1,.09.63-.37,1.23-1,1.32-.63.09-1.23-.37-1.32-1Zm.43,1.7l1.93-.27.9,6.44-1.93.27-.9-6.44Z"/><path d="m47.49,16.38c.03-1.94,1.53-3.4,3.5-3.37,1.26.02,2.37.71,2.91,1.71l-1.72.96c-.21-.46-.67-.74-1.25-.75-.84-.01-1.48.58-1.5,1.48-.02.9.6,1.52,1.44,1.53.57.01,1.06-.25,1.27-.71l1.68,1c-.58,1-1.69,1.65-2.97,1.62-1.97-.04-3.42-1.55-3.38-3.49Z"/><path d="m62.04,15.03l-1.55,6.31-1.89-.46.15-.59c-.53.38-1.22.52-2.07.31-1.65-.41-2.66-2.19-2.2-4.08.46-1.88,2.18-3,3.84-2.59.85.21,1.39.65,1.69,1.23l.15-.59,1.89.47Zm-2.67,2.69c.23-.95-.25-1.7-1.12-1.91-.87-.21-1.65.23-1.88,1.17-.23.95.25,1.7,1.12,1.91.87.21,1.65-.22,1.88-1.17Z"/><path d="m65.59,18.71l-.99,2.08c-.24.5.17.76.97,1.08l-.76,1.6c-2.41-.86-2.75-1.87-1.97-3.51l.99-2.08-.94-.45.8-1.69.94.45.53-1.12,2.01.31-.78,1.64,1.21.57-.8,1.69-1.21-.58Z"/><path d="m69,18.44l1.64,1.05-3.5,5.47-1.64-1.05,3.5-5.47Zm.77-1.57c.34-.54,1.08-.7,1.62-.35.54.34.7,1.08.35,1.62s-1.08.7-1.62.36c-.54-.34-.7-1.08-.35-1.62Z"/><path d="m70.05,22.86c1.3-1.43,3.44-1.5,4.86-.22,1.41,1.29,1.54,3.42.24,4.86-1.31,1.43-3.45,1.5-4.86.22-1.41-1.29-1.54-3.42-.24-4.86Zm3.65,3.33c.62-.68.55-1.57-.07-2.14-.62-.57-1.52-.55-2.14.13-.62.68-.55,1.57.07,2.14s1.52.56,2.14-.13Z"/><path d="m80.15,33.32l-3.3,2.25-1.1-1.61,3.06-2.09c.67-.45.69-1.09.34-1.6-.4-.59-1.02-.76-1.79-.25l-2.93,2-1.1-1.61,5.37-3.66,1.1,1.61-.5.34c.6.02,1.22.38,1.7,1.09.74,1.08.59,2.54-.86,3.53Z"/><path d="m82.1,40.98c-1.87.73-3.4-.35-4.04-1.98-.53-1.34-.41-2.73.63-3.74l1.62,1.29c-.48.41-.68.91-.36,1.71.31.8.87.98,1.39.78.52-.2.81-.72.52-1.46l-1.04-2.65,5.01-1.55,1.92,4.91-1.82.71-1.21-3.09-1.2.37.27.69c.62,1.57.17,3.29-1.7,4.01Z"/><path d="m84.91,51.06c-2.77.29-4.65-1.46-4.91-4-.29-2.85,1.59-5.11,4.19-5.38,2.63-.27,4.94,1.59,5.21,4.26.18,1.73-.52,3.28-1.66,4.17l-1.19-1.65c.56-.44.94-1.3.83-2.32-.16-1.53-1.4-2.55-2.99-2.38-1.54.16-2.55,1.36-2.37,3.12.13,1.2.74,1.94,1.64,2.17l-.25-2.42,1.81-.19.47,4.54-.78.08Z"/><path class="cls-2" d="m61.94,37.11c-8.46-.16-17.85-.2-26.32.09-14.76,1.87-21.96,20.93-11.59,31.84,2.16,3.33-1.64,9.47,2.3,11.82,3.25,1,5.15-3.38,7.44-5.06,9.18-1.04,20.25.49,29.81-.45,22.1-2.92,20.72-37.22-1.64-38.24Z"/><path d="m39.95,53.37c1.75,0,3.21.51,4.37,1.53,1.16,1.02,1.75,2.46,1.75,4.33s-.63,3.44-1.89,4.5c-1.26,1.06-2.82,1.59-4.69,1.59-1.56,0-2.92-.33-4.08-1.01-1.15-.67-2-1.68-2.52-3.02l3.98-2.27c.37,1.24,1.25,1.86,2.62,1.86.64,0,1.14-.15,1.49-.45.35-.3.52-.7.52-1.21s-.17-.93-.52-1.22c-.35-.29-.82-.43-1.41-.43h-5.71l.74-10.47h10.5v4.36h-6.29l-.13,1.91h1.27Z"/><path d="m65.69,54.72v1.81c0,2.62-.82,4.74-2.46,6.36-1.64,1.62-3.77,2.43-6.38,2.43-2.79,0-5.08-.89-6.87-2.67-1.79-1.78-2.69-3.98-2.69-6.6s.89-4.82,2.68-6.62,3.99-2.7,6.62-2.7c1.67,0,3.19.37,4.57,1.12,1.38.75,2.47,1.74,3.25,2.98l-3.87,2.22c-.36-.56-.88-1.01-1.57-1.35s-1.46-.51-2.33-.51c-1.41,0-2.56.46-3.46,1.38-.9.92-1.35,2.09-1.35,3.52s.45,2.54,1.34,3.49c.89.95,2.14,1.43,3.76,1.43,2.07,0,3.44-.78,4.1-2.34h-4.33v-3.92h9Z"/></svg>