<?xml version="1.0" encoding="UTF-8"?><svg id="Layer_1" xmlns="http://www.w3.org/2000/svg" viewBox="0 0 100 100"><defs><style>.cls-1{fill:none;stroke:#c000e2;stroke-miterlimit:10;stroke-width:4px;}.cls-2{fill:#29abe2;}</style></defs><circle class="cls-1" cx="50" cy="50" r="45"/><path d="m14.56,47.51c-2.47-.54-3.96-2.79-3.4-5.31.33-1.52,1.38-2.7,2.73-3.17l.6,1.86c-.73.23-1.27.86-1.46,1.71-.33,1.48.46,2.66,1.96,2.99,1.5.33,2.7-.41,3.03-1.9.19-.85-.04-1.66-.6-2.17l1.32-1.44c1.03.98,1.49,2.48,1.15,4.02-.55,2.53-2.85,3.94-5.31,3.4Z"/><path d="m17.9,39c-1.63-.82-2.25-2.74-1.44-4.35.81-1.61,2.71-2.27,4.35-1.46,1.63.82,2.25,2.74,1.44,4.35-.81,1.61-2.71,2.27-4.35,1.46Zm2.08-4.17c-.78-.39-1.57-.1-1.92.61s-.12,1.52.66,1.91c.78.39,1.57.1,1.92-.61.36-.71.12-1.52-.66-1.91Z"/><path d="m27.11,24.68l2.78,2.53-1.24,1.36-2.67-2.42c-.45-.41-.94-.46-1.34-.02-.41.45-.32,1,.21,1.48l2.56,2.32-1.24,1.36-2.67-2.42c-.45-.41-.94-.46-1.34-.02-.41.45-.33,1,.21,1.48l2.56,2.32-1.24,1.36-4.53-4.12,1.24-1.36.42.38c-.12-.49,0-1.1.56-1.71.49-.54,1.07-.74,1.68-.64-.13-.58.01-1.21.6-1.86.95-1.04,2.31-1.05,3.44-.02Z"/><path d="m32.26,18.62l3.27,5.18-1.55.98-.31-.49c-.04.56-.4,1.14-1.08,1.57-1.05.66-2.41.48-3.29-.92l-2.01-3.18,1.55-.98,1.86,2.95c.41.64,1,.69,1.5.37.57-.36.75-.94.29-1.67l-1.78-2.83,1.55-.98Z"/><path d="m40.63,17.88l1.26,3.54-1.73.62-1.17-3.29c-.26-.72-.82-.89-1.38-.69-.63.23-.94.75-.65,1.57l1.12,3.15-1.73.62-2.06-5.77,1.73-.62.19.54c.16-.54.64-1.02,1.4-1.29,1.17-.42,2.45.06,3.01,1.62Z"/><path d="m41.29,13.73c-.11-.59.3-1.17.89-1.28s1.18.3,1.28.89c.11.59-.3,1.18-.89,1.28-.59.11-1.17-.29-1.28-.89Zm.48,1.58l1.81-.33,1.1,6.03-1.81.33-1.1-6.03Z"/><path d="m45.32,17.73c-.06-1.82,1.29-3.27,3.15-3.33,1.19-.04,2.26.56,2.82,1.49l-1.58.98c-.22-.42-.67-.67-1.21-.65-.8.02-1.37.62-1.34,1.46.03.85.63,1.4,1.43,1.38.54-.02.98-.29,1.17-.72l1.63.87c-.5.97-1.52,1.63-2.72,1.66-1.86.05-3.29-1.31-3.34-3.14Z"/><path d="m58.9,15.71l-1.09,6.03-1.81-.33.1-.57c-.48.39-1.12.56-1.93.41-1.58-.29-2.63-1.91-2.3-3.71s1.88-2.95,3.46-2.66c.81.15,1.35.53,1.66,1.06l.1-.57,1.81.33Zm-2.36,2.69c.16-.9-.34-1.58-1.17-1.73s-1.54.31-1.7,1.21c-.16.9.34,1.58,1.17,1.73.83.15,1.54-.31,1.7-1.21Z"/><path d="m62.48,18.93l-.79,2.02c-.19.49.21.7.98.95l-.61,1.55c-2.33-.65-2.71-1.57-2.09-3.17l.79-2.02-.91-.36.64-1.64.91.36.42-1.08,1.91.16-.62,1.6,1.17.46-.64,1.64-1.17-.46Z"/><path d="m65.66,18.44l1.62.87-2.9,5.4-1.62-.87,2.9-5.4Zm.61-1.53c.29-.53.96-.73,1.49-.45.53.28.73.96.45,1.49-.28.53-.96.73-1.49.45s-.73-.96-.45-1.49Z"/><path d="m66.98,22.53c1.11-1.45,3.12-1.69,4.55-.59,1.43,1.1,1.72,3.1.61,4.55-1.11,1.45-3.12,1.69-4.55.59s-1.72-3.1-.61-4.55Zm3.7,2.84c.53-.69.39-1.52-.24-2.01s-1.47-.4-2,.29c-.53.69-.4,1.52.24,2.01.63.49,1.47.4,2-.29Z"/><path d="m77.35,31.47l-2.89,2.41-1.18-1.41,2.68-2.24c.58-.49.55-1.08.17-1.53-.43-.52-1.03-.62-1.7-.07l-2.57,2.14-1.18-1.41,4.71-3.93,1.18,1.41-.44.37c.56-.04,1.18.25,1.7.87.79.95.79,2.33-.48,3.39Z"/><path d="m79.03,39.57l-.39-.76-1.22.63-.91-1.76,1.22-.63-1.79-3.47,1.61-.83,6.05-.04.97,1.87-6.05.04.82,1.59,1.64-.84.91,1.77-1.63.84.39.76-1.61.83Z"/><path d="m83.79,47.94c-2.56.57-4.51-.88-5.03-3.22-.58-2.63.94-4.95,3.35-5.48,2.43-.54,4.79.96,5.34,3.43.35,1.6-.14,3.13-1.11,4.09l-1.29-1.42c.47-.47.74-1.32.53-2.26-.31-1.41-1.58-2.24-3.06-1.91-1.42.31-2.25,1.55-1.89,3.18.25,1.11.9,1.73,1.76,1.86l-.49-2.24,1.68-.37.93,4.2-.72.16Z"/><path class="cls-2" d="m61.84,38c-8.46-.16-17.85-.2-26.32.09-14.76,1.87-21.96,20.93-11.59,31.84,2.16,3.33-1.64,9.47,2.3,11.82,3.25,1,5.15-3.38,7.44-5.06,9.18-1.04,20.25.49,29.81-.45,22.1-2.92,20.72-37.22-1.64-38.24Z"/><path d="m47,58.96v4.15h-1.78v2.73h-4.54v-2.73h-7.82v-4.2l5.33-10.91h5.05l-5.38,10.96h2.83v-3.21h4.54v3.21h1.78Z"/><path d="m66.31,55.62v1.81c0,2.62-.82,4.74-2.46,6.36-1.64,1.62-3.77,2.43-6.38,2.43-2.79,0-5.08-.89-6.87-2.67-1.79-1.78-2.69-3.98-2.69-6.6s.89-4.82,2.68-6.62c1.78-1.8,3.99-2.7,6.62-2.7,1.67,0,3.19.37,4.57,1.12,1.38.75,2.47,1.74,3.25,2.98l-3.87,2.22c-.36-.56-.88-1.01-1.57-1.35-.69-.34-1.47-.51-2.33-.51-1.41,0-2.57.46-3.47,1.38-.9.92-1.35,2.09-1.35,3.52s.45,2.54,1.34,3.49c.89.95,2.14,1.43,3.76,1.43,2.07,0,3.44-.78,4.1-2.34h-4.33v-3.92h9Z"/></svg>