<?xml version="1.0" encoding="UTF-8"?><svg id="Layer_1" xmlns="http://www.w3.org/2000/svg" viewBox="0 0 100 100"><defs><style>.cls-1{fill:none;stroke:#a5262d;stroke-miterlimit:10;stroke-width:4px;}.cls-2{fill:#f15a24;}.cls-3{fill:#484645;}</style></defs><circle class="cls-1" cx="50" cy="50" r="45"/><path d="m20.71,34.78c-2.87-2.67-3.08-6.84-.35-9.78,1.64-1.77,3.97-2.51,6.14-2.07l-.68,2.96c-1.15-.27-2.37.15-3.29,1.14-1.61,1.72-1.49,3.91.25,5.53,1.74,1.62,3.93,1.58,5.54-.14.92-.99,1.26-2.25.9-3.37l2.9-.88c.6,2.12.02,4.49-1.63,6.27-2.73,2.93-6.91,3.01-9.78.35Z"/><path d="m32.17,26.06c-1.23-2.55-.17-5.49,2.35-6.71,2.51-1.22,5.48-.23,6.72,2.32,1.23,2.55.17,5.49-2.34,6.71-2.51,1.22-5.49.23-6.72-2.32Zm6.5-3.15c-.59-1.21-1.83-1.6-2.94-1.07-1.11.54-1.58,1.76-.99,2.97.59,1.21,1.83,1.6,2.94,1.07,1.11-.54,1.58-1.76.99-2.97Z"/><path d="m53.55,19.96c.31,2.81-1.49,5.21-3.97,5.48-1.27.14-2.24-.19-2.94-.84l.51,4.67-2.83.31-1.45-13.22,2.83-.31.1.89c.54-.79,1.42-1.32,2.69-1.46,2.47-.27,4.75,1.68,5.06,4.49Zm-2.83.31c-.16-1.42-1.2-2.2-2.5-2.06s-2.15,1.14-1.99,2.55c.16,1.42,1.2,2.2,2.5,2.06,1.3-.14,2.15-1.14,1.99-2.55Z"/><path d="m65.72,22.67c-.68,2.75-3.2,4.37-5.62,3.77-1.23-.31-2.03-.96-2.47-1.81l-1.14,4.55-2.76-.69,3.22-12.9,2.76.69-.22.87c.78-.55,1.79-.75,3.03-.44,2.41.6,3.88,3.22,3.19,5.96Zm-2.76-.69c.34-1.38-.36-2.48-1.63-2.8-1.27-.32-2.41.32-2.75,1.7-.34,1.38.36,2.48,1.63,2.8,1.27.32,2.41-.32,2.75-1.7Z"/><path d="m70.35,28.43c.65.43,1.37.54,1.92.4l1.18,2.35c-1.49.56-3.03.34-4.53-.65-2.71-1.79-3.18-4.72-1.62-7.08,1.56-2.36,4.48-3.05,6.98-1.4,2.31,1.53,2.84,4.45,1.26,6.84-.22.33-.46.63-.72.89l-5.63-3.72c-.24,1.02.3,1.79,1.17,2.37Zm3.36-1.92c.35-1.09-.14-1.89-.85-2.36-.9-.6-1.8-.55-2.55.11l3.41,2.25Z"/><path d="m84.35,31.57l-2.43,2.12c-.63-1.01-2.09-1.96-3.5-.72l-3.24,2.82-1.87-2.15,7.16-6.24,1.87,2.15-1.28,1.11c1.21-.55,2.5.01,3.29.91Z"/><rect class="cls-2" x="24" y="42" width="52" height="37" rx="2.88" ry="2.88"/><path class="cls-3" d="m41.3,72.83c-3.56,0-6.5-1.18-8.83-3.53-2.33-2.35-3.5-5.29-3.5-8.8s1.17-6.44,3.5-8.8c2.33-2.35,5.27-3.53,8.83-3.53,2.14,0,4.12.51,5.95,1.52,1.82,1.01,3.25,2.38,4.29,4.09l-5.24,3.01c-.45-.83-1.12-1.49-2.01-1.98-.89-.48-1.89-.73-2.99-.73-1.89,0-3.42.59-4.58,1.77-1.16,1.18-1.74,2.73-1.74,4.64s.58,3.46,1.74,4.64,2.69,1.77,4.58,1.77c1.1,0,2.1-.24,2.99-.73.89-.48,1.56-1.15,2.01-2.01l5.24,3.04c-1.04,1.73-2.46,3.1-4.27,4.1-1.81,1-3.8,1.5-5.96,1.5Z"/><path class="cls-3" d="m64.64,55.43h5.61v16.89h-5.61v-1.69c-1.01,1.44-2.58,2.16-4.69,2.16-1.82,0-3.32-.62-4.48-1.87-1.16-1.25-1.74-3.04-1.74-5.39v-10.1h5.61v9.39c0,.88.23,1.54.69,1.99.46.45,1.07.68,1.84.68.88,0,1.56-.26,2.04-.79.48-.53.73-1.29.73-2.28v-8.98Z"/></svg>