<?xml version="1.0" encoding="UTF-8"?><svg id="Layer_1" xmlns="http://www.w3.org/2000/svg" viewBox="0 0 100 100"><defs><style>.cls-1{fill:#a7b4b9;}.cls-2{fill:none;stroke:#0018c6;stroke-miterlimit:10;stroke-width:4px;}.cls-3{fill:#444b66;}.cls-4{fill:#f8d77c;}.cls-5{fill:#c6ecf9;}.cls-6{fill:#fbbd41;}.cls-7{fill:#3d435c;}.cls-8{fill:#01b6a0;}.cls-9{fill:#c6ecfa;}.cls-10{fill:#454c67;}.cls-11{fill:#c6d8de;}.cls-12{fill:#c4d8dd;}.cls-13{fill:#cad9df;}.cls-14{fill:#c7d9de;}.cls-15{fill:#c5d8de;}.cls-16{fill:#6e6b87;}</style></defs><circle class="cls-2" cx="50" cy="50" r="45"/><path class="cls-8" d="m25.17,41.26v-7.37c0-.32.08-.37.37-.37h11.1c.06.72.08,1.44.05,2.17,0,.78.05.82.82.82h24.89c.47,0,.64-.21.64-.64v-2.37h11.28c.12.17.19.37.2.57v6.76c0,.44-.2.6-.64.59s-.96,0-1.45,0c-1.09.07-1.92,1.02-1.84,2.11.07,1.01.88,1.8,1.89,1.85h1.35c.57,0,.64.09.64.68v24.3c0,.64-.07.73-.71.73h-1.4c-1.06.08-1.87.97-1.85,2.03.02,1.06.87,1.91,1.93,1.93h1.35c.64,0,.71.08.71.68v6.56c.01.23-.05.46-.19.64h-11.26v-2.41c0-.39-.15-.59-.57-.59h-25.16c-.46,0-.64.19-.64.64.03.78.01,1.57-.05,2.35h-11.08c-.29,0-.37-.05-.37-.36v-7.56h2.02c1.06-.02,1.91-.87,1.93-1.93.02-1.08-.82-1.98-1.9-2.03h-1.4c-.23,0-.45-.06-.64-.19v-25.28c.19-.13.41-.2.64-.19h1.35c1.09-.05,1.94-.97,1.89-2.07-.04-1.01-.84-1.82-1.85-1.89h-1.4c-.23,0-.46-.06-.65-.19Zm40.59,19.29h1.83c.61,0,.84-.31.85-.73s-.33-.73-.85-.73h-1.83v-1.68h1.77c.57,0,.9-.29.9-.72s-.33-.72-.9-.73-1.18,0-1.77,0v-1.67h1.83c.52,0,.85-.3.85-.72s-.33-.71-.85-.73-1.22,0-1.83,0v-1.66h1.83c.61,0,.85-.31.85-.73s-.33-.71-.85-.71h-1.83v-1.67h1.83c.61,0,.85-.31.85-.73s-.32-.7-.85-.72-1.22,0-1.83,0v-1.68h1.77c.57,0,.9-.28.9-.72s-.33-.71-.9-.73-1.18,0-1.77,0c-.04-1.29.07-1.15-1.18-1.19v-1.83c0-.61-.31-.85-.73-.85s-.71.33-.71.85,0,1.22,0,1.83l-.37.03-1.29-.03v-1.78c0-.59-.29-.9-.72-.9s-.71.34-.73.9,0,1.19,0,1.78h-1.7v-1.78c0-.6-.28-.9-.71-.9s-.72.34-.73.9,0,1.19,0,1.78h-1.66v-1.83c0-.61-.3-.86-.73-.86s-.71.33-.71.86,0,1.22,0,1.83h-1.67v-1.83c0-.61-.3-.86-.72-.86s-.73.32-.73.85v1.83h-1.68v-1.78c0-.6-.28-.9-.71-.9s-.72.33-.73.9,0,1.19,0,1.78h-1.67v-1.83c0-.61-.29-.86-.71-.86s-.71.33-.73.86,0,1.22,0,1.83h-1.66v-1.83c0-.61-.3-.86-.73-.86s-.71.33-.71.86,0,1.22,0,1.83h-1.67v-1.83c0-.61-.31-.86-.73-.86s-.7.32-.72.86,0,1.22,0,1.83h-1.7v-1.78c0-.6-.27-.9-.71-.9s-.71.33-.73.9,0,1.19,0,1.78c-1.2.07-1.13-.04-1.13,1.19h-1.83c-.6,0-.86.31-.85.73s.32.71.85.72h1.83v1.68h-1.78c-.59,0-.89.29-.89.72s.33.72.89.73,1.18,0,1.78,0v1.67h-1.81c-.57,0-.89.28-.89.71s.33.72.89.73h1.81v1.66h-1.86c-.53,0-.86.3-.86.73s.33.71.86.72h1.86v1.67h-1.83c-.6,0-.85.3-.85.73s.32.71.85.71,1.22,0,1.83,0v1.7h-1.81c-.57,0-.9.28-.89.72s.33.71.89.73,1.19,0,1.78,0v1.67h-1.83c-.6,0-.86.29-.86.72s.33.71.86.72,1.22,0,1.83,0v1.65h-1.83c-.6,0-.85.31-.85.73s.32.71.85.71,1.22,0,1.83,0v1.67h-1.83c-.6,0-.85.31-.85.73s.32.71.85.72,1.22,0,1.83,0v1.71h-1.78c-.59,0-.89.28-.89.71s.33.72.89.73h1.81c.05,1.22-.04,1.14,1.18,1.18v1.83c0,.61.31.85.73.85s.71-.32.71-.85,0-1.22,0-1.83h1.67v1.78c0,.59.29.9.72.9s.71-.33.73-.9,0-1.18,0-1.78h1.67v1.78c0,.59.28.9.71.9s.72-.33.73-.9,0-1.18,0-1.78h1.65v1.83c0,.61.3.85.73.85s.71-.33.71-.85,0-1.22,0-1.83h1.66v1.83c0,.61.3.85.73.85s.7-.32.71-.85,0-1.22,0-1.83h1.67v1.78c0,.59.28.9.72.9s.71-.33.73-.9,0-1.18,0-1.78h1.66v1.83c0,.61.29.85.71.85s.71-.33.73-.85,0-1.22,0-1.83h1.65v1.83c0,.61.31.85.73.85s.71-.32.71-.85,0-1.22,0-1.83h1.67v1.83c0,.61.31.85.73.85s.71-.32.72-.85,0-1.22,0-1.83h1.29l.37.04v1.78c0,.6.28.89.71.89s.72-.33.73-.89,0-1.19,0-1.78c1.29-.05,1.14.07,1.18-1.19h1.83c.61,0,.85-.3.85-.73s-.32-.71-.85-.71-1.22,0-1.83,0v-1.67h1.77c.57,0,.9-.3.9-.73s-.34-.71-.9-.73-1.18,0-1.77,0v-1.67h1.77c.57,0,.9-.28.9-.72s-.34-.72-.9-.73-1.18,0-1.77,0v-1.7h1.83c.61,0,.85-.3.85-.72s-.33-.71-.85-.72-1.22,0-1.83,0l.05-1.67Zm-36.52-21.7c.83,0,1.5-.66,1.51-1.49,0,0,0-.01,0-.02-.02-.81-.68-1.46-1.49-1.47-.82.05-1.44.76-1.39,1.59.05.75.64,1.34,1.39,1.39h-.03Zm42.66-1.49c0-.82-.67-1.49-1.49-1.49-.82,0-1.49.67-1.49,1.49,0,.81.65,1.47,1.47,1.48.81.02,1.49-.63,1.5-1.44,0-.02,0-.03,0-.05Zm-44.13,41.9c0,.81.66,1.47,1.47,1.47.83,0,1.51-.68,1.51-1.51h0c0-.82-.67-1.49-1.5-1.49,0,0,0,0,0,0-.81,0-1.48.65-1.48,1.46,0,.02,0,.04,0,.06Zm44.13-.04c0-.82-.66-1.48-1.47-1.49,0,0-.02,0-.03,0-.82,0-1.49.67-1.49,1.5,0,.82.67,1.49,1.5,1.49.82,0,1.49-.67,1.49-1.5Z"/><path class="cls-4" d="m60.04,36.51h-22.54c-.77,0-.8-.05-.82-.82.03-.72.01-1.45-.05-2.17h23.42v2.99Z"/><path class="cls-4" d="m36.64,82.97c.06-.78.08-1.57.05-2.35,0-.44.16-.64.64-.64h22.71v2.97l-23.4.03Z"/><path class="cls-6" d="m60.04,36.51v-2.98h2.99v2.37c0,.43-.16.64-.64.64-.78-.03-1.56-.03-2.35-.03Z"/><path class="cls-6" d="m60.05,82.97v-2.97h2.41c.42,0,.57.2.57.59v2.41l-2.98-.03Z"/><path class="cls-3" d="m38.23,74.2h-3.12c-1.22-.05-1.14.04-1.18-1.18v-29.52c.05-1.23-.04-1.14,1.18-1.19h26.36l1.29.03v3.18c-.13-.14-.32-.22-.51-.21h-24.5c-.77,0-.82.05-.82.82v24.23c0,.77.05.82.82.82h24.51c.19,0,.37-.08.51-.21v3.18h-24.54v.05Z"/><path class="cls-7" d="m62.75,45.52v-3.18l.37-.03h1.45c1.29.04,1.14-.07,1.18,1.19v29.52c-.04,1.29.07,1.14-1.18,1.19h-1.45l-.37-.04v-28.64h0Z"/><path class="cls-5" d="m29.24,38.85c-.82-.05-1.44-.76-1.39-1.59.05-.75.64-1.34,1.39-1.39.82,0,1.49.65,1.51,1.47,0,.83-.66,1.5-1.49,1.5,0,0-.01,0-.02,0Z"/><path class="cls-5" d="m71.9,37.37c0,.81-.65,1.48-1.46,1.49-.02,0-.03,0-.05,0-.82,0-1.49-.68-1.48-1.5,0-.82.68-1.49,1.5-1.48.82,0,1.48.68,1.48,1.5Z"/><path class="cls-9" d="m27.77,79.26c-.03-.81.61-1.49,1.42-1.52.02,0,.04,0,.06,0,.82,0,1.5.65,1.5,1.48,0,0,0,0,0,0,0,.83-.66,1.5-1.49,1.51-.82,0-1.48-.65-1.49-1.47Z"/><path class="cls-9" d="m71.9,79.23c.01.82-.64,1.5-1.46,1.51,0,0-.02,0-.03,0-.83,0-1.5-.66-1.5-1.49,0-.83.66-1.5,1.49-1.5.82-.01,1.49.64,1.5,1.46,0,0,0,.02,0,.03Z"/><path class="cls-12" d="m39.68,42.31h-1.45v-1.83c0-.6.3-.86.72-.86s.71.33.73.86,0,1.22,0,1.83Z"/><path class="cls-15" d="m65.76,57.42v-1.45h1.77c.59,0,.89.29.9.73s-.33.71-.9.72h-1.77Z"/><path class="cls-15" d="m49,42.31h-1.45v-1.78c0-.6.29-.9.73-.9s.71.33.71.9,0,1.21,0,1.78Z"/><path class="cls-15" d="m52.13,42.31h-1.45v-1.83c0-.6.3-.86.72-.86s.71.33.72.86,0,1.22,0,1.83Z"/><path class="cls-15" d="m33.96,55.96v1.45h-1.83c-.6,0-.86-.3-.85-.71s.32-.71.85-.73,1.18-.01,1.83-.01Z"/><path class="cls-12" d="m65.76,69.89v-1.45h1.77c.59,0,.9.3.9.73s-.33.71-.9.73h-1.77Z"/><path class="cls-15" d="m65.76,60.55v-1.45h1.83c.61,0,.85.3.85.72s-.33.71-.85.73-1.22,0-1.83,0Z"/><path class="cls-12" d="m33.96,68.44v1.45h-1.83c-.6,0-.85-.3-.85-.72s.32-.71.85-.73,1.18,0,1.83,0Z"/><path class="cls-12" d="m33.96,46.62v1.45h-1.78c-.59,0-.89-.29-.89-.73s.33-.71.89-.72,1.14,0,1.78,0Z"/><path class="cls-12" d="m65.76,48.08v-1.45h1.83c.61,0,.85.3.85.72s-.33.71-.85.73-1.22,0-1.83,0Z"/><path class="cls-15" d="m33.96,59.1v1.45h-1.78c-.59,0-.89-.29-.89-.73s.3-.72.86-.72h1.81Z"/><path class="cls-12" d="m38.23,74.2h1.45v1.78c0,.59-.3.9-.73.9s-.71-.33-.72-.9,0-1.18,0-1.78Z"/><path class="cls-15" d="m47.55,74.2h1.45v1.83c0,.61-.3.85-.71.85s-.71-.32-.73-.85,0-1.22,0-1.83Z"/><path class="cls-15" d="m50.68,74.2h1.45v1.78c0,.59-.3.9-.73.9s-.72-.33-.72-.9v-1.78Z"/><path class="cls-12" d="m60,74.2h1.45v1.83c0,.61-.3.85-.72.85s-.71-.32-.73-.85,0-1.22,0-1.83Z"/><path class="cls-12" d="m61.45,42.31h-1.45v-1.78c0-.6.3-.9.73-.9s.71.33.72.9,0,1.21,0,1.78Z"/><path class="cls-14" d="m33.96,52.85v1.45h-1.86c-.53,0-.86-.3-.86-.72s.33-.71.86-.73h1.86Z"/><path class="cls-14" d="m65.76,54.3v-1.45h1.83c.61,0,.85.3.85.73s-.33.71-.85.72h-1.83Z"/><path class="cls-14" d="m53.78,74.2h1.45v1.83c0,.61-.3.85-.73.85s-.71-.33-.71-.85,0-1.22,0-1.83Z"/><path class="cls-14" d="m33.96,62.21v1.45h-1.83c-.6,0-.86-.3-.86-.72s.33-.71.86-.72,1.18-.01,1.83-.01Z"/><path class="cls-14" d="m65.76,63.66v-1.45h1.83c.61,0,.85.3.85.72s-.33.71-.85.72-1.22.01-1.83.01Z"/><path class="cls-14" d="m45.9,42.31h-1.45v-1.83c0-.61.3-.86.73-.86s.71.33.71.86,0,1.22,0,1.83Z"/><path class="cls-14" d="m55.23,42.31h-1.45v-1.83c0-.61.29-.86.71-.86s.71.33.73.86,0,1.22,0,1.83Z"/><path class="cls-14" d="m44.45,74.2h1.45v1.83c0,.61-.29.85-.71.85s-.71-.33-.73-.85,0-1.22,0-1.83Z"/><path class="cls-11" d="m33.96,71.57v1.45h-1.81c-.56,0-.9-.3-.89-.73s.33-.71.89-.71,1.17,0,1.81,0Z"/><path class="cls-11" d="m65.76,73.02v-1.45h1.83c.61,0,.85.29.85.71s-.33.71-.85.73-1.22.01-1.83.01Z"/><path class="cls-11" d="m65.76,44.95v-1.45h1.77c.59,0,.9.3.9.73s-.33.73-.9.73h-1.77Z"/><path class="cls-14" d="m41.35,74.2h1.45v1.78c0,.59-.29.9-.73.9s-.71-.33-.71-.9,0-1.18,0-1.78Z"/><path class="cls-14" d="m65.76,51.19v-1.45h1.83c.52,0,.85.29.85.71s-.33.72-.85.73-1.22,0-1.83,0Z"/><path class="cls-14" d="m33.96,49.75v1.45h-1.81c-.56,0-.89-.3-.89-.73s.33-.71.89-.71h1.81Z"/><path class="cls-14" d="m33.96,65.31v1.45h-1.83c-.6,0-.85-.29-.85-.71s.32-.71.85-.73,1.18-.01,1.83-.01Z"/><path class="cls-14" d="m65.76,66.77v-1.45h1.77c.59,0,.9.29.9.73s-.33.71-.9.72h-1.77Z"/><path class="cls-11" d="m35.11,74.2h1.42v1.83c0,.61-.29.85-.71.85s-.71-.32-.73-.85.02-1.22.02-1.83Z"/><path class="cls-11" d="m33.96,43.5v1.45h-1.86c-.53,0-.85-.29-.85-.72s.32-.71.85-.73,1.22,0,1.86,0Z"/><path class="cls-11" d="m64.57,42.31h-1.45v-1.83c0-.61.29-.85.71-.85s.71.33.73.85.01,1.22.01,1.83Z"/><path class="cls-11" d="m63.12,74.2h1.45v1.78c0,.59-.29.89-.73.89s-.71-.33-.71-.89,0-1.19-.01-1.78Z"/><path class="cls-14" d="m58.33,42.31h-1.45v-1.78c0-.6.29-.9.73-.9s.71.33.71.9,0,1.21,0,1.78Z"/><path class="cls-14" d="m42.8,42.31h-1.45v-1.83c0-.61.29-.86.71-.86s.71.33.73.86,0,1.22,0,1.83Z"/><path class="cls-11" d="m36.53,42.31h-1.42v-1.78c0-.6.29-.9.73-.9s.71.33.71.9-.02,1.21-.02,1.78Z"/><path class="cls-14" d="m56.88,74.2h1.45v1.83c0,.61-.29.85-.71.85s-.71-.33-.73-.85,0-1.22,0-1.83Z"/><path class="cls-13" d="m59.76,71.18h-22.01c-.77,0-.82-.05-.82-.82v-24.23c0-.78.05-.82.82-.82h22.01v25.87Zm-.96-20.75h0v-2.27c.01-.39-.29-.71-.67-.73,0,0,0,0-.01,0-.4-.02-.74.28-.76.68,0,.02,0,.04,0,.05v3.14c0,.78.14.64-.68.69-.35,0-.48-.08-.46-.45v-3.28c0-.51-.26-.81-.69-.83-.4-.02-.74.29-.76.69,0,.04,0,.08,0,.12v4.35c0,.59.28.83.88.84h2.26c.64,0,.87-.26.88-.88s0-1.42,0-2.13Zm-8.48,0v2.17c0,.53.29.85.72.86s.71-.32.73-.84v-1.06c0-.25.08-.35.33-.33h1.4c.43.05.81-.25.87-.68,0-.06,0-.13,0-.19v-2.03c0-.68-.28-.86-.91-.87h-2.14c-.71,0-.96.24-.96.95s-.03,1.32-.03,2v.03Zm-4.44,0v2.22c-.06.4.22.77.62.83.07,0,.14,0,.21,0h2.31c.54,0,.86-.26.87-.69s-.32-.77-.87-.77h-1.4c-.23,0-.3-.08-.3-.31,0-.84,0-1.67,0-2.51,0-.23.08-.31.31-.3h1.44c.48,0,.84-.33.82-.76s-.32-.68-.83-.69h-2.35c-.4-.06-.77.22-.83.62-.01.07-.01.14,0,.22-.01.68,0,1.38,0,2.09v.05Zm-5.59,19.34h1.34c.2,0,.4,0,.48-.24.06-.19-.01-.4-.17-.51l-2.73-2.51c-.13-.15-.35-.2-.53-.12-.16.08-.25.25-.23.42v2.46c-.03.24.14.45.38.48.03,0,.06,0,.1,0l1.36.03Z"/><path class="cls-1" d="m59.76,71.18v-25.85h2.48c.19,0,.38.07.51.21v25.45c-.13.14-.32.21-.51.21-.82-.02-1.65-.02-2.48-.03Z"/><path class="cls-10" d="m58.81,50.43v2.12c0,.71-.26.88-.88.88h-2.26c-.6,0-.87-.25-.88-.84v-4.35c-.05-.4.23-.76.63-.81.04,0,.08,0,.12,0,.42,0,.68.32.69.83v3.28c0,.37.11.47.46.45.82-.03.68.08.68-.69v-3.14c0-.4.32-.72.71-.73.01,0,.02,0,.03,0,.39.01.69.33.68.72,0,0,0,0,0,.01v2.27h.01Z"/><path class="cls-10" d="m50.33,50.4v-2.03c0-.68.25-.95.96-.95h2.17c.64,0,.89.26.91.87s0,1.36,0,2.03c.05.43-.25.81-.68.87-.06,0-.13,0-.19,0h-1.4c-.25,0-.33.08-.33.33v1.06c0,.53-.29.84-.73.84s-.71-.32-.72-.86c0-.72,0-1.45,0-2.17Zm1.99-.64c.29,0,.64.14.64-.42s-.24-.46-.56-.44-.64-.13-.64.43.21.46.56.42v.02Z"/><path class="cls-10" d="m45.89,50.38v-2.12c-.06-.4.21-.77.61-.83.07-.01.14-.01.22,0h2.35c.51,0,.81.28.83.69s-.3.74-.82.76-.96,0-1.44,0c-.23,0-.31.08-.31.3,0,.84,0,1.67,0,2.51,0,.23.08.32.3.31h1.4c.46,0,.89.32.87.75s-.33.69-.87.69h-2.31c-.4.06-.77-.22-.83-.62,0-.07,0-.14,0-.21-.01-.74,0-1.48,0-2.22Z"/><path class="cls-16" d="m40.3,69.76h-1.35c-.24.03-.45-.14-.48-.38,0-.03,0-.06,0-.1v-2.48c-.02-.18.07-.36.23-.44.18-.09.4-.04.53.12l2.73,2.51c.16.11.23.32.17.51-.08.23-.28.24-.48.24h-1.34Z"/><path class="cls-12" d="m52.31,49.74c-.33.04-.55,0-.56-.44s.33-.41.64-.43.55-.03.56.44-.35.41-.64.42Z"/><path d="m32.07,21.21c-1.18-3.95.85-7.85,4.89-9.06,2.44-.73,4.94-.16,6.68,1.39l-2.19,2.32c-.9-.86-2.24-1.13-3.6-.72-2.38.71-3.43,2.76-2.72,5.15.71,2.4,2.72,3.53,5.1,2.82,1.36-.41,2.35-1.37,2.61-2.57l3.1.74c-.58,2.24-2.37,4.09-4.82,4.82-4.04,1.21-7.88-.95-9.06-4.9Z"/><path d="m58.18,16.26c-.25,2.65-2.58,4.58-5.33,4.32l-2.09-.2-.41,4.38-3.19-.3,1.31-13.94,5.28.49c2.75.26,4.68,2.59,4.43,5.24Zm-3.19-.3c.1-1.02-.55-1.86-1.52-1.95l-2.09-.2-.34,3.58,2.09.2c.97.09,1.77-.62,1.86-1.63Z"/><path d="m59.69,21.5l4.21-8.49,2.87,1.42-4.08,8.24c-.47.95-.42,1.98,1.1,2.73,1.52.75,2.37.17,2.84-.78l4.08-8.24,2.87,1.42-4.21,8.49c-1.33,2.69-4.21,3.27-6.97,1.91-2.76-1.37-4.04-4.01-2.71-6.7Z"/></svg>