<?xml version="1.0" encoding="UTF-8"?><svg id="Layer_1" xmlns="http://www.w3.org/2000/svg" viewBox="0 0 100 100"><defs><style>.cls-1{fill:#1f2275;}.cls-2{fill:#fff;}.cls-3{fill:#3a926c;}.cls-4{fill:#603813;}.cls-5{fill:#006837;}.cls-6{fill:#ff1d25;}.cls-7{fill:#ccf2ff;opacity:.54;}</style></defs><path d="m22.85,48.18c2.3-.02,4.08,1.68,4.1,3.92l.02,3.26-8.14.06-.02-3.26c-.02-2.24,1.74-3.97,4.04-3.98Zm.01,1.79c-1.4.01-2.27.9-2.26,2.18v1.4s4.57-.04,4.57-.04v-1.39c-.02-1.28-.91-2.16-2.31-2.15Z"/><path d="m20.1,46.16c-.55-.13-.91-.7-.78-1.26.13-.55.7-.91,1.26-.78.55.13.91.7.78,1.26-.13.55-.7.91-1.26.78Zm1.56.18l.4-1.7,5.66,1.32-.4,1.7-5.66-1.32Z"/><path d="m28.06,40.25c1.23.53,1.3,1.82.8,2.97-.46,1.07-1.21,1.71-2.25,1.76l-.2-1.73c.47.03.82-.17,1.02-.64.16-.38.13-.63-.09-.72-.59-.25-1.4,2.51-3.25,1.72-1.17-.5-1.33-1.73-.86-2.84.37-.87,1.08-1.47,2.03-1.6l.15,1.68c-.34.03-.63.16-.78.52-.12.28-.08.5.11.58.61.26,1.33-2.54,3.3-1.7Z"/><path d="m27.33,39.12c-1.39-1.03-1.68-2.88-.63-4.3.67-.91,1.74-1.35,2.76-1.22l-.2,1.75c-.44-.08-.89.11-1.2.52-.45.61-.34,1.38.3,1.86.64.48,1.42.36,1.87-.25.3-.41.36-.9.15-1.29l1.61-.7c.43.94.32,2.09-.36,3-1.05,1.42-2.91,1.68-4.3.64Z"/><path d="m34.24,27.97l3.57,4.58-1.38,1.07-.34-.43c-.03.59-.32,1.15-.93,1.62-1.2.94-3.01.65-4.08-.71-1.06-1.37-.9-3.19.3-4.13.61-.48,1.23-.62,1.8-.51l-.34-.43,1.38-1.07Zm.41,3.36c-.54-.69-1.33-.76-1.96-.27-.63.49-.75,1.28-.22,1.97.54.69,1.33.76,1.96.27.63-.49.75-1.28.22-1.97Z"/><path d="m39.38,25.45l.81,1.81c-.71.19-1.52.87-1.05,1.92l1.07,2.4-1.59.71-2.37-5.31,1.59-.71.42.95c-.1-.81.46-1.46,1.12-1.76Z"/><path d="m46.22,21.58l1.56,7.99-1.71.33-.11-.54c-.29.51-.8.88-1.56,1.03-1.5.29-2.98-.78-3.32-2.48-.33-1.7.64-3.25,2.14-3.55.76-.15,1.38,0,1.84.36l-.55-2.82,1.71-.33Zm-.71,5.47c-.17-.86-.84-1.28-1.63-1.13-.79.16-1.25.8-1.08,1.66.17.86.84,1.28,1.63,1.13.79-.15,1.25-.8,1.08-1.66Z"/><path d="m51.62,28.5c.47.05.9-.09,1.15-.33l1.31.94c-.65.73-1.54,1.04-2.64.93-1.98-.2-3.07-1.66-2.89-3.38.18-1.72,1.56-2.93,3.39-2.74,1.69.17,2.8,1.61,2.62,3.35-.03.24-.07.47-.14.69l-4.1-.42c.16.62.67.89,1.3.95Zm1.28-1.99c-.12-.69-.61-.99-1.13-1.04-.66-.07-1.13.21-1.35.79l2.49.25Z"/><path d="m63.28,25.04l-3.11,7.52-1.61-.67.21-.5c-.52.26-1.15.29-1.87,0-1.41-.58-2.06-2.3-1.39-3.9.66-1.6,2.33-2.36,3.74-1.77.72.3,1.14.76,1.33,1.32l1.1-2.65,1.61.67Zm-3.61,4.16c.33-.81,0-1.53-.74-1.84-.74-.31-1.49-.03-1.82.78-.33.81,0,1.53.73,1.84.74.31,1.49.03,1.82-.78Z"/><path d="m69.39,37.03c-1.26,1.19-3.09,1.2-4.14.09-.54-.57-.73-1.16-.68-1.75l-2.08,1.97-1.2-1.27,5.91-5.6,1.2,1.27-.4.38c.58-.03,1.17.2,1.71.77,1.05,1.11.94,2.94-.32,4.13Zm-1.2-1.27c.63-.6.63-1.4.08-1.98-.55-.58-1.35-.63-1.98-.03-.63.6-.63,1.4-.08,1.98.55.58,1.35.63,1.98.03Z"/><path d="m73.17,42.83l-3.19,1.6-.78-1.56,2.96-1.49c.65-.32.74-.88.49-1.38-.29-.57-.82-.8-1.56-.43l-2.84,1.42-.78-1.56,7.28-3.65.78,1.56-2.57,1.29c.53.09,1.04.48,1.38,1.17.53,1.05.23,2.32-1.18,3.02Z"/><path d="m72.94,44.22c1.7-.33,3.28.76,3.6,2.44.33,1.68-.72,3.28-2.42,3.61-1.7.33-3.28-.76-3.6-2.44-.33-1.68.72-3.28,2.42-3.61Zm.85,4.34c.81-.16,1.23-.84,1.09-1.58-.15-.74-.79-1.21-1.6-1.05-.81.16-1.24.83-1.09,1.58.15.74.79,1.21,1.6,1.05Z"/><path d="m74.21,57.21l-3.55-.36.17-1.74,3.3.33c.72.07,1.1-.34,1.15-.9.06-.64-.26-1.11-1.08-1.2l-3.16-.32.17-1.74,5.79.58-.17,1.74-.54-.05c.4.36.62.96.54,1.73-.12,1.17-1.05,2.08-2.61,1.92Z"/><path d="m70.67,60.74c-.18.44-.16.89,0,1.2l-1.27.99c-.52-.82-.58-1.77-.16-2.8.74-1.84,2.44-2.49,4.05-1.84,1.61.65,2.38,2.31,1.69,4.01-.63,1.57-2.32,2.25-3.95,1.59-.23-.09-.43-.2-.62-.33l1.54-3.83c-.64-.02-1.04.4-1.28.99Zm1.56,1.78c.69.08,1.12-.31,1.31-.8.25-.61.11-1.15-.38-1.52l-.93,2.32Z"/><path class="cls-5" d="m38.83,9.91c-.5.16-.79.26-1.09.33-10.66,2.77-19.1,8.73-25.31,17.8-3.86,5.63-6.19,11.87-7.05,18.65-.5,3.92-.53,7.84.07,11.73.35,2.26.92,4.49,1.5,6.71.29,1.11.96,2.03,2.2,2.33,3.09.75,5.58-1.98,4.68-5.14-1.64-5.73-1.94-11.53-.62-17.34,2.97-13.06,10.85-21.89,23.33-26.64,1.37-.52,2.81-.85,4.22-1.26-.08.48-.26.76-.46,1.04-.84,1.2-1.71,2.37-2.53,3.59-.61.9-.42,1.89.4,2.46.74.52,1.82.34,2.4-.46,2.31-3.21,4.61-6.43,6.89-9.66.66-.94.51-1.86-.42-2.53-3.18-2.3-6.38-4.58-9.58-6.84-.94-.67-1.98-.5-2.55.33-.56.82-.32,1.84.61,2.51,1.05.76,2.11,1.52,3.33,2.39Zm-22.15,72.19c.32.27.51.42.68.58,7.11,7.1,15.58,11.42,25.58,12.69,7.04.9,13.88.1,20.55-2.34,6.09-2.24,11.29-5.87,16.05-10.21.71-.65,1.26-1.48,1.01-2.48-.4-1.61-1.31-2.93-2.91-3.54-1.48-.56-2.72.14-3.84,1.08-.12.1-.22.22-.34.32-8.1,7.64-17.7,10.94-28.77,9.91-6.5-.61-12.36-2.94-17.6-6.81-1.56-1.15-2.98-2.49-4.46-3.74.05-.09.1-.18.15-.26,1.44.1,2.89.19,4.33.31,1.18.1,2.03-.5,2.14-1.56.1-.94-.61-1.71-1.71-1.82-1.79-.18-3.59-.34-5.39-.49-2.17-.17-4.35-.35-6.52-.47-1.07-.06-1.67.52-1.78,1.59-.11,1.05-.21,2.1-.29,3.16-.24,2.92-.48,5.83-.68,8.75-.07,1.09.55,1.78,1.54,1.84,1,.06,1.71-.53,1.81-1.58.16-1.57.3-3.15.47-4.94Zm66.47-19.9c-.1-.01-.2-.02-.31-.04-.7-1.42-1.37-2.85-2.1-4.25-.5-.97-1.47-1.28-2.36-.83-.84.42-1.19,1.39-.75,2.31,1.74,3.58,3.49,7.15,5.27,10.71.49.98,1.38,1.3,2.37.82,3.58-1.73,7.15-3.49,10.71-5.27.96-.48,1.25-1.49.8-2.37-.41-.8-1.4-1.12-2.35-.68-1.16.53-2.29,1.12-3.44,1.67-.23.11-.48.18-.77.29.37-1.88.76-3.63,1.06-5.39.98-5.79.74-11.55-.68-17.22-2.47-9.85-7.77-17.9-15.81-24.12-4.48-3.47-9.5-5.89-14.94-7.42-1.9-.54-3.5.41-4.27,2.38-.75,1.94-.25,3.44,1.57,4.4.7.37,1.5.59,2.26.84,10,3.36,17.27,9.81,21.77,19.33,2.94,6.24,3.78,12.84,2.97,19.66-.21,1.74-.66,3.46-1,5.19Z"/><path class="cls-4" d="m41.58,39.66h15.4c1.51,0,2.74,1.23,2.74,2.74v32.86c0,1.51-1.23,2.74-2.74,2.74h-15.4c-1.51,0-2.74-1.23-2.74-2.74v-32.86c0-1.51,1.23-2.74,2.74-2.74Z"/><path class="cls-1" d="m56.98,39.66h-15.4c-1.51,0-2.74,1.23-2.74,2.74v32.86l20.88-32.86c0-1.51-1.23-2.74-2.74-2.74Z"/><path class="cls-3" d="m58.1,73.11h-17.65c-.65,0-1.17-.54-1.17-1.2v-29.6c0-.73.57-1.31,1.28-1.31h17.54c.65,0,1.17.54,1.17,1.2v29.71c0,.66-.52,1.2-1.17,1.2Z"/><path class="cls-2" d="m50.7,76.75c-.09-.01-.2-.03-.31-.05-.23-.04-.46-.09-.69-.13-.28-.05-.55-.11-.83-.16-.32-.06-.64-.13-.97-.19-.05,0-.1-.02-.14-.04-.12-.05-.16-.14-.11-.25.06-.15.13-.3.2-.46.11-.25.22-.5.35-.75.08-.16.17-.33.28-.48.2-.28.57-.3.81-.06.09.09.16.2.23.3.16.25.32.5.48.74.26.4.52.81.77,1.21.02.04.04.08.06.12.05.11,0,.2-.15.19Z"/><path class="cls-6" d="m50.84,52.19c-.1-.01-.21-.03-.32-.05-.24-.04-.48-.09-.72-.14-.29-.06-.57-.11-.86-.17-.34-.07-.67-.13-1.01-.2-.05-.01-.1-.02-.15-.04-.12-.05-.16-.15-.11-.27.07-.16.14-.32.21-.48.12-.26.23-.52.36-.78.09-.17.18-.34.29-.5.21-.29.59-.32.85-.06.09.09.17.2.25.32.17.26.33.52.5.78.27.42.54.84.81,1.27.02.04.05.08.07.12.05.12,0,.2-.15.2Z"/><path class="cls-6" d="m51.43,46.11s.08,0,.12,0c.1,0,.15.08.1.17-.04.07-.09.13-.13.2-.3.38-.6.77-.91,1.15-.28.34-.57.68-.86,1.02-.14.16-.31.29-.53.34-.26.06-.49-.02-.7-.16-.13-.09-.21-.22-.29-.34-.27-.41-.54-.83-.8-1.25-.12-.18-.22-.37-.34-.56,0-.01-.01-.02-.02-.03-.07-.14-.03-.22.13-.23.56-.04,1.12-.08,1.68-.12.5-.04.99-.07,1.49-.11.35-.02.7-.04,1.05-.07,0,0,0,0,0,0Z"/><path class="cls-7" d="m40.22,71.46c-.3.48-1.03.27-1.03-.3v-28.86c0-.72.57-1.3,1.27-1.3h17.7c.49,0,.79.54.53.95l-18.46,29.51Z"/><polyline class="cls-1" points="51.91 42.34 46.37 42.34 45.21 39.66 53.19 39.66"/><path class="cls-2" d="m51.43,41.47c0,.21-.17.38-.38.38h-3.54c-.21,0-.38-.17-.38-.38h0c0-.21.17-.38.38-.38h3.54c.21,0,.38.17.38.38h0Z"/><polyline points="41.57 41.11 41.93 41.48 46.18 45.92 44.99 49.88 45.19 45.5 40.57 40.43"/><polygon points="55.72 72.34 57.56 63.59 51.79 55.33 56.01 63.59 54.9 72.34 55.72 72.34"/><polygon points="39.61 50.47 46.75 53.56 46.75 67.57 44.84 56.69 40.05 51.42 39.61 50.47"/></svg>