<?xml version="1.0" encoding="UTF-8"?><svg id="Layer_1" xmlns="http://www.w3.org/2000/svg" viewBox="0 0 100 100"><defs><style>.cls-1{fill:#1f2275;}.cls-2{fill:#fff;}.cls-3{fill:#3a926c;}.cls-4{fill:#603813;}.cls-5{fill:#006837;}.cls-6{fill:#ff1d25;}.cls-7{fill:#ccf2ff;opacity:.54;}</style></defs><path d="m17.53,49.71c2.59-.02,4.6,1.89,4.61,4.42l.02,3.67-9.17.06-.02-3.67c-.02-2.53,1.96-4.47,4.55-4.48Zm.01,2.02c-1.57,0-2.56,1.01-2.55,2.45v1.57s5.15-.04,5.15-.04v-1.57c-.02-1.44-1.02-2.43-2.59-2.42Z"/><path d="m14.44,47.39c-.63-.15-1.02-.79-.88-1.42.15-.62.79-1.03,1.42-.88.63.15,1.03.79.88,1.42-.15.62-.79,1.03-1.42.88Zm1.75.21l.45-1.91,6.38,1.5-.45,1.91-6.38-1.5Z"/><path d="m23.41,40.75c1.38.59,1.46,2.05.9,3.35-.52,1.2-1.36,1.92-2.54,1.98l-.22-1.95c.52.04.92-.19,1.15-.72.19-.43.15-.71-.09-.81-.66-.28-1.58,2.83-3.66,1.94-1.31-.56-1.5-1.95-.96-3.21.42-.98,1.22-1.66,2.29-1.8l.17,1.9c-.39.03-.71.18-.88.58-.13.31-.1.56.12.65.69.29,1.5-2.86,3.72-1.91Z"/><path d="m22.61,39.46c-1.57-1.17-1.89-3.26-.7-4.85.76-1.02,1.97-1.52,3.12-1.37l-.23,1.97c-.5-.1-1,.12-1.35.58-.51.68-.39,1.55.33,2.1.72.54,1.59.4,2.1-.28.34-.46.41-1.02.17-1.46l1.81-.79c.48,1.06.35,2.36-.42,3.38-1.19,1.6-3.28,1.88-4.85.72Z"/><path d="m30.46,26.9l4.01,5.18-1.55,1.2-.38-.49c-.04.66-.36,1.29-1.05,1.83-1.36,1.05-3.4.72-4.59-.82-1.19-1.54-1-3.6.36-4.65.69-.54,1.39-.69,2.03-.56l-.38-.49,1.55-1.2Zm.45,3.79c-.6-.78-1.5-.86-2.21-.31-.71.55-.86,1.44-.26,2.22.6.78,1.5.86,2.21.31s.86-1.44.25-2.22Z"/><path d="m36.24,24.07l.9,2.04c-.8.21-1.72.98-1.19,2.16l1.2,2.71-1.8.8-2.66-5.99,1.8-.8.47,1.07c-.12-.91.52-1.65,1.27-1.98Z"/><path d="m43.95,19.72l1.77,9-1.93.38-.12-.6c-.33.57-.9.99-1.76,1.16-1.69.33-3.37-.88-3.74-2.79-.38-1.92.72-3.67,2.41-4,.86-.17,1.55,0,2.07.41l-.62-3.18,1.93-.38Zm-.79,6.17c-.19-.96-.95-1.44-1.84-1.27-.89.17-1.41.91-1.22,1.87.19.96.95,1.44,1.84,1.27s1.41-.9,1.22-1.87Z"/><path d="m50.08,27.55c.53.06,1.01-.1,1.3-.36l1.47,1.07c-.73.82-1.75,1.17-2.98,1.04-2.23-.24-3.45-1.88-3.24-3.83.21-1.94,1.78-3.29,3.83-3.07,1.9.21,3.15,1.83,2.94,3.79-.03.27-.08.53-.16.77l-4.62-.5c.17.7.75,1,1.47,1.08Zm1.45-2.24c-.13-.78-.68-1.11-1.27-1.18-.74-.08-1.28.23-1.53.88l2.8.3Z"/><path d="m63.24,23.71l-3.55,8.46-1.81-.76.24-.57c-.59.29-1.3.32-2.11-.02-1.58-.66-2.31-2.6-1.55-4.4.76-1.8,2.65-2.64,4.23-1.98.81.34,1.29.87,1.49,1.5l1.25-2.99,1.81.76Zm-4.09,4.68c.38-.91.01-1.73-.82-2.08-.83-.35-1.68-.04-2.06.87-.38.91-.01,1.73.82,2.08s1.68.04,2.06-.87Z"/><path d="m70.07,37.28c-1.43,1.33-3.49,1.33-4.67.08-.6-.64-.82-1.32-.75-1.97l-2.36,2.21-1.34-1.44,6.7-6.27,1.34,1.44-.45.42c.66-.03,1.32.24,1.92.88,1.17,1.25,1.04,3.32-.39,4.65Zm-1.34-1.44c.72-.67.72-1.57.1-2.23-.62-.66-1.52-.72-2.23-.05-.72.67-.72,1.57-.1,2.23.62.66,1.52.72,2.23.04Z"/><path d="m74.3,43.84l-3.61,1.78-.87-1.76,3.35-1.66c.73-.36.84-.99.56-1.55-.32-.65-.92-.91-1.75-.49l-3.21,1.59-.87-1.76,8.22-4.07.87,1.76-2.9,1.44c.59.1,1.16.55,1.55,1.33.59,1.19.24,2.62-1.34,3.4Z"/><path d="m74.15,45.5c1.93-.31,3.66.97,3.97,2.87.31,1.9-.93,3.67-2.86,3.99-1.93.31-3.66-.97-3.97-2.87-.31-1.9.93-3.67,2.86-3.98Zm.8,4.92c.92-.15,1.42-.9,1.28-1.74s-.85-1.39-1.77-1.24c-.92.15-1.42.9-1.29,1.74.14.84.85,1.39,1.77,1.24Z"/><path d="m75.37,60.09l-4-.43.21-1.95,3.71.4c.81.09,1.24-.38,1.31-1,.08-.72-.29-1.26-1.21-1.36l-3.56-.39.21-1.96,6.51.71-.21,1.95-.61-.07c.44.4.69,1.09.59,1.95-.14,1.32-1.2,2.33-2.96,2.14Z"/><path d="m71.35,64.08c-.2.5-.19,1-.02,1.35l-1.43,1.11c-.58-.93-.63-2-.16-3.16.85-2.07,2.78-2.78,4.58-2.04s2.66,2.63,1.87,4.54c-.73,1.77-2.64,2.51-4.47,1.76-.25-.1-.49-.23-.7-.37l1.77-4.3c-.73-.03-1.17.44-1.45,1.1Zm1.75,2.02c.78.1,1.26-.34,1.49-.89.28-.69.13-1.29-.41-1.72l-1.07,2.61Z"/><rect class="cls-4" x="32.76" y="36" width="27.04" height="49.66" rx="3.55" ry="3.55"/><path class="cls-1" d="m56.25,36h-19.95c-1.96,0-3.55,1.59-3.55,3.55v42.56l27.04-42.56c0-1.96-1.59-3.55-3.55-3.55Z"/><path class="cls-3" d="m57.71,79.33h-22.86c-.84,0-1.52-.7-1.52-1.56v-38.33c0-.94.74-1.7,1.66-1.7h22.72c.84,0,1.52.7,1.52,1.56v38.48c0,.86-.68,1.56-1.52,1.56Z"/><path class="cls-2" d="m48.12,84.04c-.12-.02-.26-.04-.4-.06-.3-.05-.59-.11-.89-.17-.36-.07-.71-.14-1.07-.21-.42-.08-.83-.17-1.25-.25-.06-.01-.13-.03-.19-.05-.15-.06-.2-.18-.14-.33.08-.2.17-.39.26-.59.15-.32.29-.65.45-.97.11-.21.23-.42.36-.62.26-.37.74-.39,1.05-.07.11.12.21.25.3.39.21.32.41.64.62.96.33.52.67,1.05,1,1.57.03.05.06.1.08.15.07.14,0,.25-.19.25Z"/><path class="cls-6" d="m48.3,52.23c-.12-.02-.27-.04-.42-.07-.31-.06-.62-.12-.93-.18-.37-.07-.74-.15-1.12-.22-.44-.09-.87-.17-1.31-.26-.07-.01-.13-.03-.19-.05-.16-.06-.21-.19-.15-.34.09-.21.18-.41.27-.62.15-.34.3-.68.47-1.01.11-.22.24-.44.38-.64.28-.38.77-.41,1.1-.07.12.12.22.26.32.41.22.33.43.67.64,1,.35.55.7,1.09,1.04,1.64.03.05.06.1.08.16.07.15,0,.26-.2.26Z"/><path class="cls-6" d="m49.06,44.35c.05,0,.1,0,.15,0,.14,0,.2.1.13.22-.05.09-.11.17-.17.26-.39.5-.78,1-1.18,1.49-.36.45-.73.89-1.11,1.32-.18.21-.4.38-.69.44-.33.07-.63-.02-.9-.21-.16-.12-.27-.28-.38-.45-.35-.54-.7-1.08-1.04-1.62-.15-.24-.29-.48-.44-.72,0-.01-.02-.03-.02-.04-.09-.19-.04-.29.17-.3.73-.05,1.45-.11,2.18-.16.64-.05,1.29-.09,1.93-.14.46-.03.91-.06,1.37-.09,0,0,0,0,0,0Z"/><path class="cls-7" d="m34.54,77.19c-.39.62-1.34.34-1.34-.38v-37.38c0-.93.74-1.69,1.64-1.69h22.92c.63,0,1.02.7.68,1.23l-23.91,38.22Z"/><polyline class="cls-1" points="49.68 39.47 42.51 39.47 41.01 36 51.35 36"/><path class="cls-2" d="m49.06,38.34c0,.27-.22.49-.49.49h-4.58c-.27,0-.49-.22-.49-.49h0c0-.27.22-.49.49-.49h4.58c.27,0,.49.22.49.49h0Z"/><path class="cls-5" d="m36.77,6.42c-.55.17-.86.28-1.18.36-11.59,3.01-20.76,9.49-27.51,19.34C3.89,32.25,1.35,39.03.41,46.4c-.55,4.26-.57,8.52.08,12.75.38,2.46,1,4.88,1.63,7.3.32,1.21,1.04,2.2,2.39,2.53,3.36.82,6.06-2.15,5.08-5.58-1.78-6.23-2.11-12.53-.68-18.85,3.23-14.2,11.79-23.8,25.36-28.96,1.49-.57,3.05-.92,4.58-1.37-.09.52-.29.83-.5,1.13-.92,1.3-1.86,2.58-2.75,3.9-.66.98-.46,2.06.43,2.68.81.56,1.98.37,2.61-.5,2.51-3.49,5.01-6.99,7.49-10.5.72-1.02.55-2.02-.46-2.75-3.46-2.5-6.93-4.98-10.41-7.44-1.03-.73-2.15-.54-2.78.36-.61.89-.35,2,.66,2.73,1.14.83,2.29,1.65,3.62,2.6ZM12.7,84.89c.35.3.55.45.73.63,7.72,7.71,16.94,12.41,27.8,13.8,7.66.98,15.09.11,22.33-2.55,6.62-2.43,12.28-6.38,17.44-11.09.77-.7,1.37-1.61,1.09-2.7-.44-1.75-1.43-3.19-3.16-3.85-1.61-.61-2.96.15-4.18,1.17-.13.11-.24.24-.37.35-8.8,8.31-19.23,11.89-31.28,10.77-7.07-.66-13.44-3.19-19.13-7.4-1.69-1.25-3.24-2.7-4.85-4.06.06-.1.11-.19.17-.29,1.57.11,3.14.21,4.71.34,1.28.11,2.21-.55,2.33-1.7.1-1.02-.66-1.86-1.86-1.98-1.95-.2-3.9-.37-5.86-.53-2.36-.19-4.72-.38-7.09-.51-1.16-.07-1.82.56-1.94,1.73-.12,1.14-.23,2.29-.32,3.43-.26,3.17-.52,6.34-.74,9.51-.08,1.19.6,1.93,1.68,2,1.09.07,1.85-.58,1.97-1.71.18-1.71.33-3.43.51-5.37Zm72.25-21.63c-.11-.01-.22-.03-.33-.04-.76-1.54-1.49-3.1-2.28-4.62-.55-1.06-1.6-1.39-2.57-.9-.91.46-1.3,1.51-.82,2.51,1.89,3.89,3.8,7.77,5.73,11.64.53,1.06,1.5,1.41,2.57.89,3.89-1.88,7.77-3.8,11.64-5.73,1.04-.52,1.36-1.62.87-2.58-.45-.87-1.53-1.21-2.56-.74-1.26.57-2.49,1.22-3.74,1.82-.25.12-.52.2-.84.31.41-2.04.83-3.94,1.15-5.86,1.06-6.29.81-12.55-.74-18.72-2.69-10.71-8.45-19.46-17.19-26.22-4.87-3.77-10.32-6.4-16.24-8.07-2.07-.58-3.81.45-4.64,2.59-.82,2.11-.27,3.74,1.71,4.78.77.4,1.63.64,2.45.92,10.87,3.65,18.78,10.66,23.66,21.01,3.2,6.78,4.11,13.96,3.23,21.37-.23,1.9-.72,3.76-1.09,5.64Z"/><path class="cls-5" d="m36.77,6.42c-1.32-.95-2.47-1.77-3.62-2.6-1.01-.73-1.27-1.84-.66-2.73.62-.91,1.75-1.09,2.78-.36,3.48,2.46,6.95,4.94,10.41,7.44,1,.73,1.18,1.72.46,2.75-2.48,3.51-4.98,7.01-7.49,10.5-.63.87-1.8,1.06-2.61.5-.89-.62-1.09-1.7-.43-2.68.89-1.32,1.83-2.6,2.75-3.9.21-.3.41-.61.5-1.13-1.53.45-3.1.81-4.58,1.37-13.57,5.17-22.13,14.76-25.36,28.96-1.43,6.32-1.1,12.62.68,18.85.98,3.43-1.72,6.4-5.08,5.58-1.34-.33-2.07-1.32-2.39-2.53-.63-2.41-1.25-4.84-1.63-7.3-.65-4.23-.63-8.49-.08-12.75.94-7.37,3.48-14.16,7.67-20.27,6.75-9.85,15.93-16.33,27.51-19.34.32-.08.63-.19,1.18-.36ZM1.18,53.53c.14,1.34.38,3.9.66,6.45.07.63.21,1.27.41,1.87.07.2.42.41.66.42.14,0,.4-.34.42-.55.04-.4-.06-.81-.09-1.21-.24-2.76-.68-5.52-.67-8.28.03-6.38,1.3-12.56,4-18.37,5.73-12.36,14.91-20.81,28.19-24.51,1.23-.34,2.5-.55,3.73-.89.31-.09.53-.48.79-.74-.33-.07-.69-.26-.98-.19-1.87.43-3.76.82-5.59,1.39C13.49,14.95,1.36,32.48,1.18,53.53ZM33.13,1.98c-.14.12-.37.26-.35.31.09.26.19.58.39.73,1.75,1.27,3.51,2.52,5.29,3.73.25.17.63.15.95.22-.14-.32-.2-.75-.44-.93-1.71-1.26-3.46-2.47-5.2-3.69-.19-.13-.4-.23-.65-.37Z"/><path class="cls-5" d="m12.7,84.89c-.18,1.94-.33,3.66-.51,5.37-.12,1.14-.89,1.78-1.97,1.71-1.07-.07-1.76-.81-1.68-2,.22-3.17.48-6.34.74-9.51.09-1.15.2-2.29.32-3.43.12-1.17.77-1.8,1.94-1.73,2.36.14,4.73.32,7.09.51,1.95.16,3.91.33,5.86.53,1.2.12,1.96.96,1.86,1.98-.12,1.15-1.05,1.81-2.33,1.7-1.57-.13-3.14-.23-4.71-.34-.06.1-.11.19-.17.29,1.61,1.36,3.16,2.81,4.85,4.06,5.69,4.21,12.06,6.74,19.13,7.4,12.04,1.12,22.48-2.46,31.28-10.77.12-.12.24-.24.37-.35,1.22-1.02,2.57-1.78,4.18-1.17,1.74.66,2.73,2.09,3.16,3.85.27,1.09-.32,1.99-1.09,2.7-5.16,4.71-10.82,8.66-17.44,11.09-7.24,2.66-14.68,3.53-22.33,2.55-10.86-1.39-20.08-6.08-27.8-13.8-.18-.18-.39-.34-.73-.63Zm35,13.99c1.65-.11,3.59-.14,5.5-.38,5.74-.74,11.26-2.31,16.27-5.25,2.99-1.76,5.73-3.93,8.56-5.96.22-.16.2-.66.3-1-.35.02-.78-.08-1.05.08-.52.3-.94.77-1.42,1.14-10.75,8.35-22.89,11.43-36.3,9.31-7.8-1.23-14.83-4.31-20.86-9.47-1.79-1.54-3.35-3.35-5.06-4.99-.25-.24-.74-.23-1.11-.34.11.32.12.72.33.95,9.19,10.37,20.75,15.59,34.86,15.9Zm-35.67-14.84c.03-.55.1-.83.05-1.09-.05-.25-.22-.48-.33-.72-.18.23-.47.44-.53.69-.12.52-.12,1.07-.16,1.6-.14,1.74-.3,3.49-.41,5.23-.01.2.24.41.36.62.17-.16.37-.31.5-.5.09-.13.1-.32.11-.49.15-1.88.29-3.76.41-5.36Z"/><path class="cls-5" d="m84.95,63.26c.37-1.88.86-3.74,1.09-5.64.88-7.41-.03-14.59-3.23-21.37-4.88-10.36-12.79-17.36-23.66-21.01-.83-.28-1.69-.51-2.45-.92-1.98-1.05-2.53-2.68-1.71-4.78.83-2.14,2.57-3.17,4.64-2.59,5.92,1.67,11.37,4.3,16.24,8.07,8.74,6.76,14.5,15.51,17.19,26.22,1.55,6.17,1.8,12.43.74,18.72-.32,1.92-.75,3.82-1.15,5.86.32-.12.59-.19.84-.31,1.25-.6,2.48-1.24,3.74-1.82,1.03-.47,2.11-.13,2.56.74.49.96.18,2.05-.87,2.58-3.87,1.94-7.75,3.85-11.64,5.73-1.07.52-2.04.17-2.57-.89-1.93-3.87-3.84-7.75-5.73-11.64-.48-.99-.1-2.05.82-2.51.97-.49,2.02-.16,2.57.9.79,1.53,1.52,3.08,2.28,4.62.11.01.22.03.33.04Zm8.08-11.55c-.09-1.06-.24-2.99-.42-4.91-.08-.8-.22-1.6-.39-2.39-3.79-17.62-14.12-29.49-31.15-35.5-.25-.09-.53-.22-.78-.19-.22.02-.54.2-.61.38-.06.18.09.51.25.66.18.17.48.22.74.31,12.57,4.4,21.64,12.67,27.25,24.72,2.15,4.63,3.54,9.5,3.8,14.62.15,2.96.23,5.97-.1,8.91-.3,2.69-1.21,5.32-1.8,7.98-.09.39.12.85.19,1.27.25-.31.63-.58.74-.93,1.48-4.57,2.2-9.26,2.27-14.92Zm5.07,13.08c0-.1-.01-.2-.02-.3-.29-.03-.64-.19-.87-.08-2.07.98-4.13,2-6.17,3.04-.2.1-.26.45-.39.69.26.04.57.19.76.1,2.07-.99,4.11-2.01,6.16-3.04.19-.1.35-.27.52-.41Z"/><path class="cls-5" d="m1.18,53.53c.18-21.05,12.31-38.58,31.51-44.61,1.83-.57,3.72-.96,5.59-1.39.3-.07.65.12.98.19-.26.25-.48.65-.79.74-1.23.35-2.5.55-3.73.89-13.28,3.7-22.46,12.16-28.19,24.51-2.7,5.81-3.96,11.99-4,18.37-.01,2.76.43,5.52.67,8.28.03.4.13.81.09,1.21-.02.21-.29.56-.42.55-.24-.02-.59-.22-.66-.42-.2-.6-.34-1.24-.41-1.87-.28-2.55-.52-5.11-.66-6.45Z"/><path class="cls-5" d="m33.13,1.98c.25.14.46.24.65.37,1.74,1.22,3.49,2.43,5.2,3.69.24.18.3.61.44.93-.32-.07-.7-.05-.95-.22-1.78-1.22-3.54-2.47-5.29-3.73-.2-.15-.3-.47-.39-.73-.02-.05.21-.19.35-.31Z"/><path class="cls-5" d="m47.7,98.89c-14.1-.31-25.66-5.54-34.86-15.9-.21-.23-.22-.63-.33-.95.38.11.86.1,1.11.34,1.71,1.64,3.26,3.45,5.06,4.99,6.03,5.16,13.06,8.24,20.86,9.47,13.42,2.12,25.55-.96,36.3-9.31.48-.37.9-.84,1.42-1.14.27-.16.69-.06,1.05-.08-.09.34-.07.84-.3,1-2.82,2.03-5.57,4.2-8.56,5.96-5,2.94-10.53,4.51-16.27,5.25-1.91.25-3.85.27-5.5.38Z"/><path class="cls-5" d="m12.03,84.05c-.12,1.6-.26,3.48-.41,5.36-.01.17-.02.36-.11.49-.13.19-.33.33-.5.5-.13-.21-.37-.42-.36-.62.11-1.75.27-3.49.41-5.23.04-.54.04-1.09.16-1.6.06-.26.35-.46.53-.69.11.24.28.47.33.72.05.26-.02.54-.05,1.09Z"/><path class="cls-5" d="m93.03,51.71c-.08,5.66-.8,10.36-2.27,14.92-.11.35-.49.62-.74.93-.07-.43-.28-.88-.19-1.27.59-2.67,1.5-5.29,1.8-7.98.33-2.94.25-5.94.1-8.91-.26-5.11-1.65-9.99-3.8-14.62-5.61-12.06-14.68-20.33-27.25-24.72-.25-.09-.55-.14-.74-.31-.16-.15-.32-.49-.25-.66.06-.18.38-.35.61-.38.25-.03.52.1.78.19,17.03,6,27.36,17.88,31.15,35.5.17.79.31,1.59.39,2.39.19,1.92.33,3.84.42,4.91Z"/><path class="cls-5" d="m98.1,64.79c-.17.14-.33.31-.52.41-2.05,1.03-4.1,2.05-6.16,3.04-.19.09-.51-.06-.76-.1.13-.24.19-.59.39-.69,2.04-1.04,4.1-2.06,6.17-3.04.23-.11.58.05.87.08,0,.1.01.2.02.3Z"/><polyline points="36.3 37.88 36.76 38.36 42.27 44.11 40.72 49.23 40.98 43.56 35 37"/><polygon points="54.63 78.33 57 67 49.53 56.29 55 67 53.55 78.33 54.63 78.33"/><polygon points="33.76 50 43 54 43 72.15 40.53 58.06 34.33 51.23 33.76 50"/></svg>