<?xml version="1.0" encoding="UTF-8"?><svg id="Layer_1" xmlns="http://www.w3.org/2000/svg" viewBox="0 0 94 95.25"><defs><style>.cls-1{fill:none;stroke:#0018c6;stroke-miterlimit:10;stroke-width:4px;}.cls-2{fill:#8ac5cd;}.cls-3{fill:#3b566a;}.cls-4{fill:#b2d3d9;}.cls-5{fill:#b3d4da;}.cls-6{fill:#637889;}.cls-7{fill:#88c4cc;}.cls-8{fill:#2f4859;}.cls-9{fill:#304959;}</style></defs><circle class="cls-1" cx="47" cy="48.25" r="45"/><path class="cls-3" d="m58.82,28.58c.17.34.51.5.77.75,1.2,1.15,1.75,2.55,1.75,4.22-.01,9.73-.01,19.46,0,29.19v16.14c0,3.62-1.83,5.72-5.47,6.01-6,.47-12.02.48-18.02.04-3.18-.22-5.2-2.53-5.2-5.74,0-15.2,0-30.4,0-45.6,0-3.19,2.1-5.48,5.23-5.71,5.24-.39,10.51-.44,15.76-.16.36.02.72.08,1.08.11,1.42-.07,2.78.25,4.1.75Zm-10.95,6.58l-1.06.02c-3.35-.02-6.7-.01-10.05-.06-.73-.01-.91.22-.9.92.03,3.83.01,7.67.01,11.5q0,2.37,2.39,2.28l1.08-.02,1.09.03,1.64-.02c5.11.01,10.21.01,15.31.04.58,0,.71-.22.7-.75-.01-4.41-.01-8.82,0-13.23,0-.52-.11-.76-.7-.75-2.26.04-4.53.03-6.79.04h-1.62s-1.11,0-1.11,0Zm2.09,29.52c-2.27-.05-2.07-.03-2.06,2.24,0,.66.34,1.01,1,1.02.54.01,1.08,0,1.63,0,1.26,0,1.36-.1,1.35-1.32,0-2.15.25-1.91-1.92-1.93h0Zm-5.94,0c-.36,0-.72.02-1.08,0-.62-.04-.98.24-.83.85.2.82-.7,2.08.79,2.39.72.15,1.49.04,2.25.02.48,0,.79-.26.9-.73.47-1.92,0-2.52-1.94-2.52h-.09Zm.02-4.72c-2.22.01-1.94-.24-1.95,1.99,0,.09,0,.18,0,.27-.07.66.31.96.89.99.75.04,1.5.03,2.25,0,.44-.02.71-.28.82-.71.49-1.89,0-2.54-1.92-2.54h-.09Zm5.96,0h-1.26c-.5,0-.82.25-.83.75-.03,2.29-.25,2.62,2.12,2.51.15,0,.3,0,.45,0,1.26,0,1.41-.16,1.41-1.38-.01-2.07.22-1.86-1.88-1.87h0Zm-.12,12.7c.33,0,.67,0,1,0,.51.01,1.01-.12.97-.68-.06-.85.47-1.83-.44-2.52-.11-.05-.23-.07-.35-.06h-2.36c-.42,0-.68.22-.78.62-.49,1.9.06,2.65,1.96,2.65h0Zm-5.84,0c.33,0,.67-.02,1,0,.6.05,1.02-.24,1-.78-.04-.82.47-1.77-.44-2.43-.11-.05-.23-.07-.35-.06h-2.36c-.35-.02-.66.2-.76.53-.61,1.76.08,2.74,1.92,2.74h0Zm-.06-17.42c-.3,0-.6.02-.9,0-.74-.07-1,.22-1,.98,0,2.29-.03,2.3,2.32,2.29.27,0,.54.01.81-.01.48-.04.76-.31.86-.78.41-2.01.04-2.47-1.99-2.47h-.09Zm6.02,0h-1.26c-.5,0-.82.25-.83.75-.03,2.29-.25,2.6,2.12,2.51.15,0,.3,0,.45,0,1.25,0,1.41-.16,1.4-1.39,0-2.08.22-1.86-1.88-1.86h0Zm-11.82,17.43c.27,0,.54-.02.81,0,.86.07,1.16-.3,1.13-1.17-.07-2.42.28-2.07-2.14-2.1h-.36c-1.34,0-1.35,0-1.34,1.34.02,1.8-.41,1.96,1.89,1.92Zm17.59-3.26c-.27.02-.54.02-.81,0-.82-.1-1.12.22-1.09,1.07.08,2.27-.39,2.22,2.17,2.2h.36c1.27,0,1.31-.04,1.31-1.33,0-2.18.23-1.92-1.93-1.94h0Zm.02-4.72c-.33,0-.67.03-1,0-.73-.07-.95.28-.93.96.06,2.44-.4,2.31,2.26,2.31h.27c1.18,0,1.31-.12,1.3-1.3-.01-2.21.24-1.96-1.91-1.98h0Zm-17.54,0c-.3.02-.6.02-.9,0-.83-.1-1.11.24-1.08,1.07.08,2.26-.4,2.21,2.16,2.2h.36c1.22,0,1.32-.11,1.32-1.36,0-2.12.23-1.9-1.85-1.92h0Zm-.04-4.72c-.3.01-.6.01-.9,0-.79-.09-1.05.25-1.04,1.03.04,2.32-.19,2.27,2.18,2.24h.27c1.3,0,1.39-.09,1.39-1.39,0-2.11.21-1.87-1.89-1.88Zm17.58-4.72c-.33,0-.67.03-1,0-.72-.07-.94.26-.93.96.03,2.44-.22,2.34,2.28,2.31h.27c1.17,0,1.29-.12,1.28-1.31,0-2.21.24-1.94-1.9-1.96h0Zm.04,4.72c-2.21.02-1.94-.26-1.96,1.99v.18c-.06.76.27,1.13,1.05,1.09.48-.02.97,0,1.45,0,1.22,0,1.33-.11,1.32-1.36,0-2.12.23-1.9-1.87-1.91Zm-17.64-4.72c-.33,0-.67.03-1,0-.73-.07-.94.28-.93.96.03,2.44-.21,2.33,2.28,2.31h.27c1.16,0,1.28-.12,1.28-1.32,0-2.2.24-1.94-1.91-1.95Zm10.68-22.85c.38,0,.65-.12.65-.56,0-.37-.24-.52-.59-.52-.38,0-.65.12-.65.56,0,.38.24.52.59.52h0Zm2.46-.54c-.01-.37-.22-.54-.58-.55-.37,0-.66.1-.67.54,0,.37.22.53.57.54.38.01.65-.1.67-.53h0Zm-5.8,48.65c-.01-.38-.19-.58-.56-.57s-.51.26-.52.61c-.01.38.21.59.54.58s.49-.3.54-.61Zm-2.14-49.19c-.34,0-.64.18-.67.47-.05.37.27.57.63.59.25.04.49-.13.54-.38,0-.03,0-.05,0-.08.03-.35-.13-.57-.5-.6Zm2.32.52c-.03-.37-.25-.55-.59-.51-.32.03-.61.21-.59.55.02.34.3.5.63.51.36,0,.54-.19.55-.55Zm-.18,44.6c-.04-.37-.28-.5-.62-.5s-.47.18-.46.51c.02.35.18.57.54.57s.53-.22.53-.57h0Zm4-.11c.03-.22-.11-.39-.46-.39s-.59.12-.61.5c-.02.36.16.57.52.57s.53-.22.55-.68h0Zm-.39,4.68c.27.03.39-.16.39-.49,0-.35-.15-.58-.53-.58s-.55.19-.54.55.25.52.68.52Zm-1.62-49.21c-.04-.36-.27-.52-.62-.48-.33.04-.47.25-.44.57.03.37.26.52.61.49.33-.04.46-.26.46-.58h0Zm-.5,44.3c.32-.03.49-.2.5-.52,0-.37-.2-.56-.56-.54s-.53.25-.5.61c.03.32.25.46.57.45h0Zm-2.97,2.9c.32,0,.53-.14.56-.46.03-.35-.12-.58-.5-.6-.32-.01-.52.14-.55.46-.04.35.13.57.49.6Zm5.74-1.07c-.32.05-.48.26-.44.62.04.33.25.46.57.44.37-.02.52-.26.49-.61-.03-.33-.26-.46-.62-.45Zm-2.82,3.97c.33,0,.52-.16.54-.48.02-.36-.15-.57-.52-.58-.32,0-.51.16-.53.48-.02.36.16.56.52.58Zm-.58-3.06c-.07-.27-.14-.54-.5-.54-.32,0-.51.16-.53.49s.11.56.45.55c.3,0,.48-.22.58-.5h0Zm.81.37c-.26.09-.53.24-.5.53.02.29.27.52.56.5.02,0,.04,0,.06,0,.28-.03.38-.26.37-.52,0-.31-.16-.5-.49-.51h0Zm-.05-1.87c0-.3-.15-.48-.42-.48-.28-.01-.52.19-.57.47-.04.25.14.48.38.52.03,0,.06,0,.09,0,.29,0,.44-.25.52-.51h0Zm1.01,1.3c.22,0,.4-.17.42-.39.05-.21-.08-.42-.29-.47-.04,0-.07-.01-.11,0-.28-.01-.43.18-.45.44-.02.24.07.4.43.42Z"/><path class="cls-7" d="m50.61,35.16c2.26,0,4.53,0,6.79-.04.59,0,.7.23.7.75-.01,4.41-.01,8.82,0,13.23,0,.53-.12.75-.7.75-5.11-.03-10.21-.03-15.31-.04.06-.2.13-.4.22-.59,1.86-3.1,3.74-6.18,5.58-9.29.93-1.58,2.03-3.06,2.73-4.77Z"/><path class="cls-7" d="m38.28,49.82q-2.39.09-2.39-2.28c0-3.83.02-7.67-.01-11.5,0-.7.17-.93.9-.92,3.35.05,6.7.05,10.05.06-.58,1.53-1.58,2.82-2.4,4.22-2.03,3.48-4.1,6.95-6.15,10.42Z"/><path class="cls-5" d="m50.61,35.16c-.7,1.71-1.8,3.19-2.73,4.77-1.83,3.11-3.72,6.19-5.58,9.29-.09.19-.17.38-.22.59l-1.64.02c.05-.2.12-.4.21-.59,1.57-2.64,3.17-5.26,4.73-7.92,1.2-2.05,2.53-4.03,3.61-6.15h1.61Z"/><path class="cls-2" d="m48.99,35.17c-1.07,2.13-2.41,4.1-3.61,6.15-1.55,2.65-3.15,5.28-4.73,7.92-.09.19-.16.39-.21.59l-1.09-.03c.35-1.23,1.18-2.22,1.81-3.3,2.21-3.79,4.47-7.56,6.71-11.33h1.12Z"/><path class="cls-4" d="m47.88,35.16c-2.24,3.78-4.5,7.54-6.71,11.33-.63,1.08-1.45,2.06-1.81,3.3l-1.08.02c2.05-3.47,4.12-6.94,6.15-10.42.81-1.4,1.81-2.69,2.4-4.22h1.06Z"/><path class="cls-6" d="m49.96,64.68c2.16.01,1.91-.23,1.92,1.94,0,1.23-.1,1.32-1.35,1.32-.54,0-1.08,0-1.63,0-.66-.01-1-.36-1-1.02,0-2.27-.21-2.3,2.06-2.25Z"/><path class="cls-6" d="m44.02,64.68h.09c1.95,0,2.41.6,1.94,2.52-.12.47-.43.72-.9.73-.75.02-1.53.13-2.25-.02-1.49-.32-.59-1.57-.79-2.39-.15-.6.21-.88.83-.85.36.02.72,0,1.08,0Z"/><path class="cls-6" d="m44.04,59.97h.09c1.92,0,2.4.64,1.92,2.54-.11.43-.38.69-.82.71-.75.03-1.5.04-2.25,0-.58-.03-.96-.33-.89-.99,0-.09,0-.18,0-.27.02-2.22-.26-1.97,1.96-1.99Z"/><path class="cls-6" d="m50,59.97c2.1,0,1.87-.2,1.88,1.88,0,1.23-.15,1.37-1.41,1.38-.15,0-.3,0-.45,0-2.36.1-2.14-.22-2.12-2.51,0-.5.33-.75.83-.75.42,0,.85,0,1.27,0Z"/><path class="cls-6" d="m49.88,72.67c-1.9,0-2.46-.75-1.96-2.64.1-.4.36-.62.78-.62h2.36c.12-.01.24,0,.35.06.91.69.37,1.67.44,2.52.04.56-.47.7-.97.68-.33,0-.67,0-1,0Z"/><path class="cls-6" d="m44.04,72.67c-1.84,0-2.53-.98-1.92-2.73.1-.33.41-.55.76-.53h2.36c.12-.01.24,0,.35.06.91.66.41,1.61.44,2.43.02.55-.4.84-1,.78-.32-.03-.66,0-.99,0Z"/><path class="cls-6" d="m43.98,55.25h.09c2.03,0,2.4.46,1.99,2.47-.1.47-.38.74-.86.78-.27.02-.54.01-.81.01-2.35,0-2.32,0-2.32-2.29,0-.76.27-1.05,1-.98.3.03.6,0,.9,0Z"/><path class="cls-6" d="m50,55.25c2.1,0,1.88-.21,1.89,1.87,0,1.23-.15,1.38-1.4,1.39h-.45c-2.37.1-2.15-.22-2.12-2.51,0-.5.33-.75.83-.75.42,0,.84,0,1.26,0Z"/><path class="cls-6" d="m38.17,72.67c-2.3.04-1.87-.12-1.89-1.92-.01-1.34,0-1.34,1.34-1.34h.36c2.41.03,2.06-.32,2.14,2.1.03.87-.28,1.24-1.13,1.17-.27-.02-.54,0-.81,0Z"/><path class="cls-6" d="m55.77,69.4c2.16.02,1.92-.25,1.93,1.93,0,1.29-.04,1.33-1.31,1.33h-.36c-2.56.01-2.09.07-2.17-2.2-.03-.85.27-1.17,1.09-1.07.27.02.54.02.81,0Z"/><path class="cls-6" d="m55.79,64.68c2.15.01,1.89-.23,1.9,1.97,0,1.17-.12,1.29-1.3,1.3h-.27c-2.65,0-2.19.14-2.26-2.31-.02-.69.2-1.03.93-.96.33.03.67,0,1,0Z"/><path class="cls-6" d="m38.25,64.68c2.08,0,1.84-.2,1.85,1.91,0,1.25-.1,1.35-1.32,1.36h-.36c-2.56.01-2.08.06-2.16-2.2-.03-.83.26-1.17,1.08-1.07.3.02.6.02.9,0Z"/><path class="cls-6" d="m38.21,59.97c2.1.01,1.89-.23,1.89,1.88,0,1.3-.09,1.38-1.39,1.39h-.27c-2.37.03-2.14.08-2.18-2.24-.01-.79.25-1.12,1.04-1.03.3.02.6.02.9.01Z"/><path class="cls-6" d="m55.79,55.25c2.14.02,1.9-.25,1.91,1.95,0,1.19-.11,1.31-1.28,1.31h-.27c-2.49.02-2.25.12-2.28-2.31,0-.69.21-1.02.93-.96.33.03.66,0,.99,0Z"/><path class="cls-6" d="m55.83,59.97c2.09.01,1.86-.22,1.87,1.91,0,1.25-.1,1.35-1.32,1.36-.48,0-.97-.02-1.45,0-.78.04-1.11-.33-1.05-1.09v-.18c.02-2.25-.26-1.97,1.95-1.99Z"/><path class="cls-6" d="m38.19,55.25c2.15.02,1.9-.25,1.91,1.95,0,1.2-.11,1.31-1.28,1.32h-.27c-2.5.02-2.26.13-2.28-2.31,0-.68.2-1.03.93-.96.33.03.66,0,.99,0Z"/><path class="cls-8" d="m48.86,32.4c-.35,0-.59-.15-.59-.52,0-.43.26-.56.65-.56.35,0,.59.15.59.52,0,.43-.26.57-.65.56Z"/><path class="cls-8" d="m51.33,31.86c-.02.43-.29.55-.67.53-.35-.01-.58-.17-.57-.54,0-.44.29-.55.67-.54.36,0,.56.17.58.55Z"/><path class="cls-9" d="m45.53,80.51c-.04.31-.2.59-.54.61s-.55-.19-.54-.58c0-.35.13-.59.52-.61s.55.18.56.57Z"/><path class="cls-8" d="m43.39,31.32c.37.03.53.25.5.6,0,.26-.21.47-.46.47-.03,0-.05,0-.08,0-.36-.02-.68-.21-.63-.59.04-.3.33-.48.67-.47Z"/><path class="cls-8" d="m45.71,31.84c0,.35-.19.56-.55.55-.33,0-.61-.19-.63-.51s.27-.52.59-.55c.34-.03.56.14.59.51Z"/><path class="cls-8" d="m45.53,76.44c0,.35-.16.57-.53.57s-.53-.21-.54-.57c-.01-.33.1-.51.46-.51s.58.12.62.5Z"/><path class="cls-8" d="m49.53,76.33c-.02.47-.18.68-.55.68s-.54-.22-.52-.57c.02-.37.27-.5.61-.5s.49.17.46.39Z"/><path class="cls-8" d="m49.14,81.01c-.43,0-.67-.14-.68-.52s.18-.56.54-.55.52.24.53.58c0,.33-.12.51-.39.49Z"/><path class="cls-8" d="m47.52,31.81c0,.32-.12.54-.45.57-.35.04-.59-.11-.61-.49-.02-.31.12-.53.44-.57.35-.04.58.12.62.48Z"/><path class="cls-8" d="m47.02,76.11c-.32,0-.53-.13-.56-.46-.03-.35.12-.59.5-.61s.57.17.56.54c0,.32-.18.49-.5.52Z"/><path class="cls-8" d="m44.06,79.01c-.37-.03-.53-.25-.5-.6.03-.32.24-.47.55-.46.37.02.53.25.5.6-.02.32-.23.46-.55.46Z"/><path class="cls-8" d="m49.8,77.94c.36,0,.58.12.62.45.04.35-.11.59-.49.61-.31.02-.53-.12-.57-.44-.04-.35.12-.57.44-.62Z"/><path class="cls-8" d="m46.98,73.9c-.25-.01-.37-.15-.35-.4.01-.22.15-.33.37-.33.26,0,.37.15.36.4-.01.22-.15.33-.37.33Z"/><path class="cls-9" d="m46.39,78.85c-.1.28-.28.5-.58.5-.34,0-.46-.25-.45-.55s.21-.5.53-.49c.35,0,.43.27.5.54Z"/><path class="cls-9" d="m47.21,79.22c.34,0,.49.19.5.51,0,.26-.09.49-.37.52-.29.05-.57-.15-.62-.44,0-.02,0-.04,0-.06-.04-.29.23-.44.5-.53Z"/><path class="cls-9" d="m47.15,77.35c-.08.25-.23.51-.52.51-.25.01-.46-.18-.48-.43,0-.03,0-.06,0-.09.04-.28.29-.48.57-.47.27,0,.42.18.42.48Z"/><path class="cls-8" d="m48.16,78.65c-.36-.01-.45-.18-.43-.42.02-.27.17-.46.45-.44.22-.01.4.15.41.37,0,.04,0,.07,0,.11-.02.22-.2.38-.42.39Z"/><path d="m16.78,36.05c2.73.47,4.48,2.86,4.02,5.52l-.67,3.86-9.66-1.67.67-3.86c.46-2.66,2.91-4.33,5.64-3.86Zm-.37,2.12c-1.66-.29-2.88.58-3.15,2.1l-.29,1.66,5.41.93.29-1.66c.26-1.52-.61-2.75-2.26-3.03Z"/><path d="m13.95,33.06c-.63-.27-.93-1.03-.66-1.66.27-.63,1.03-.93,1.66-.66.63.27.93,1.03.66,1.66-.27.63-1.03.93-1.66.66Zm1.81.55l.83-1.93,6.43,2.77-.83,1.93-6.43-2.77Z"/><path d="m24.63,27.76c1.35.88,1.15,2.43.32,3.69-.77,1.17-1.8,1.77-3.04,1.6l.13-2.09c.54.14,1-.03,1.34-.54.28-.42.29-.72.05-.87-.64-.42-2.19,2.68-4.22,1.35-1.28-.84-1.21-2.34-.42-3.55.62-.95,1.6-1.51,2.75-1.46l-.18,2.03c-.41-.04-.78.06-1.03.45-.2.3-.21.57,0,.71.67.44,2.11-2.73,4.28-1.31Z"/><path d="m29.95,20.83c1.39,1.56,1.33,3.77-.04,4.99-.7.62-1.43.84-2.13.75l2.3,2.58-1.57,1.4-6.53-7.32,1.57-1.4.44.49c0-.7.29-1.4.99-2.03,1.37-1.22,3.57-1.03,4.96.53Zm-1.57,1.4c-.7-.78-1.66-.81-2.38-.17-.72.64-.81,1.6-.11,2.38s1.66.81,2.38.17c.72-.64.81-1.6.11-2.38Z"/><path d="m27.99,14.4l1.83-1.03,5.03,8.89-1.83,1.04-5.04-8.89Z"/><path d="m40.51,12.78l2.07,6.69-2.01.62-.19-.63c-.28.64-.84,1.16-1.74,1.43-1.75.54-3.67-.55-4.29-2.54s.35-3.98,2.11-4.52c.9-.28,1.65-.17,2.25.2l-.19-.63,2.01-.62Zm-.97,3.97c-.31-1-1.17-1.43-2.1-1.14-.92.29-1.4,1.12-1.09,2.12.31,1,1.17,1.43,2.1,1.14.92-.29,1.4-1.12,1.09-2.12Z"/><path d="m49.95,12.28l-2.24,6.84c-.74,2.24-1.96,3.15-3.92,3.09l-.04-1.96c.98-.02,1.43-.34,1.72-1.2l-2.93-6.61,2.31-.05,1.65,4.25,1.22-4.31,2.24-.05Z"/><path d="m57.54,21.48l-1.02-3.68-1.08,2.9-1.97-.73,3.42-9.19,1.97.73-2.05,5.5,3.04-2.14,2.3.85-3.61,2.39,1.23,4.19-2.23-.83Z"/><path d="m63.42,22.93c.47.33,1,.43,1.41.34l.82,1.76c-1.11.38-2.24.19-3.33-.57-1.96-1.38-2.25-3.54-1.05-5.25,1.2-1.71,3.36-2.16,5.17-.89,1.67,1.17,2,3.34.79,5.07-.17.24-.35.45-.55.64l-4.07-2.85c-.2.75.18,1.32.81,1.77Zm2.52-1.35c.28-.79-.06-1.4-.58-1.76-.65-.46-1.31-.44-1.88.03l2.46,1.73Z"/><path d="m75.04,27.1l-6.73,2.55c-2.21.84-3.68.46-4.87-1.11l1.5-1.26c.63.75,1.17.9,2.02.59l3.3-6.44,1.49,1.76-2.27,3.95,4.12-1.76,1.45,1.71Z"/><path d="m76.04,37.17c-1.9.86-3.99.14-4.75-1.53-.39-.86-.37-1.61-.08-2.25l-3.15,1.42-.86-1.92,8.94-4.03.86,1.92-.6.27c.67.2,1.25.7,1.64,1.55.75,1.67-.09,3.71-2,4.57Zm-.86-1.92c.96-.43,1.27-1.34.87-2.22-.4-.88-1.28-1.25-2.24-.82-.96.43-1.27,1.34-.87,2.22.4.88,1.29,1.25,2.24.82Z"/><path d="m80.74,45.41l-6.95.84-.25-2.08.65-.08c-.58-.39-.99-1.04-1.1-1.97-.22-1.82,1.2-3.52,3.27-3.77s3.85,1.06,4.07,2.88c.11.93-.12,1.65-.6,2.17l.65-.08.25,2.08Zm-3.73-1.67c1.04-.13,1.61-.9,1.5-1.86-.12-.96-.85-1.58-1.9-1.45-1.04.13-1.61.9-1.5,1.86.12.96.85,1.58,1.9,1.45Z"/><path d="m82.12,55.97l-9.64-1.75.38-2.07.65.12c-.44-.55-.63-1.28-.47-2.21.33-1.81,2.18-3.01,4.24-2.63,2.05.37,3.37,2.15,3.04,3.95-.17.92-.61,1.54-1.21,1.9l3.4.62-.38,2.07Zm-5.83-3.19c1.03.19,1.81-.38,1.98-1.33.17-.95-.35-1.76-1.38-1.95-1.03-.19-1.81.38-1.98,1.33-.17.95.35,1.76,1.38,1.94Z"/></svg>