<?xml version="1.0" encoding="UTF-8"?><svg id="Layer_1" xmlns="http://www.w3.org/2000/svg" viewBox="0 0 100 100"><defs><style>.cls-1{fill:none;stroke:#0018c6;stroke-miterlimit:10;stroke-width:4px;}.cls-2{fill:#3b66c8;}.cls-3{fill:#4483e7;}.cls-4{fill:#bfd6e5;}.cls-5{fill:#d7eafb;}.cls-6{fill:#3f79d4;}.cls-7{fill:#fc98c7;}.cls-8{fill:#23e6bf;}.cls-9{fill:#e0edf9;}.cls-10{fill:#8caabd;}.cls-11{fill:#bdd5e5;}.cls-12{fill:#ecf6fe;}.cls-13{fill:#3b66c9;}.cls-14{fill:#fce00f;}.cls-15{fill:#90ebfe;}</style></defs><circle class="cls-1" cx="50" cy="50" r="45"/><path class="cls-3" d="m39.86,58.08c0-.86-.01-1.71-.01-2.57,0-7.14.02-14.27-.02-21.41,0-1.34.4-2.28,1.68-2.77h21.71c0,.2.18.22.3.31.65.46,1.04,1.05,1.04,1.88-.01,2.87,0,5.74,0,8.62-.58-.77-1.32-1.19-2.32-1.16-1.02.03-1.72.57-2.15,1.42-.49.96-.34,1.91.35,2.73.63.74,1.44,1.03,2.43.85.73-.13,1.2-.61,1.68-1.1,0,1.8,0,3.6.01,5.41,0,.13.03.28-.09.38-.1-.11-.21-.23-.32-.33-1.04-1.01-2.69-.96-3.67.12-.97,1.07-.84,2.73.28,3.66,1.11.91,2.53.73,3.69-.46.17.15.1.35.11.53,0,1.42,0,2.84,0,4.27,0,.35-.05.68-.14,1.01-.33,1.25-.65,2.51-1.02,3.75-.23.76-.32,1.57-.71,2.28,0-.19.02-.38.02-.56.02-1.59-1.03-2.65-2.61-2.63-1.08.01-1.79.6-2.23,1.54-.43.93-.26,1.82.38,2.59.68.81,1.57,1.1,2.63.83.91-.24,1.41-.91,1.81-1.69.02.15,0,.31-.03.45-.43,1.58-.86,3.15-1.29,4.73-.12,0-.24.01-.36.01-8.36,0-16.73,0-25.09,0-.19,0-.38-.01-.56-.02,1.04-2.75,2.08-5.5,3.12-8.25.35-.92.73-1.84,1.09-2.76h22.37c.19,0,.38.01.56-.02.46-.08.73-.34.73-.84,0-.52-.34-.78-1.04-.78-7.44,0-14.88,0-22.32,0Zm6.23-17.11c-1.42,0-2.53,1.13-2.53,2.55,0,1.4,1.16,2.53,2.57,2.52,1.38-.02,2.49-1.14,2.49-2.54,0-1.42-1.12-2.54-2.54-2.53h0Zm8.16,8.66c-1.43,0-2.55,1.1-2.56,2.51,0,1.39,1.12,2.53,2.49,2.54,1.45,0,2.56-1.07,2.56-2.5,0-1.47-1.05-2.54-2.5-2.55Zm-7.79,15.16c0-1.44-1.1-2.52-2.54-2.52-1.41,0-2.51,1.1-2.51,2.5,0,1.42,1.12,2.55,2.53,2.55,1.42,0,2.53-1.12,2.53-2.54Zm10.29-21.3c0-1.44-1.09-2.53-2.54-2.52-1.4,0-2.51,1.11-2.52,2.5,0,1.41,1.12,2.55,2.53,2.56s2.53-1.13,2.53-2.54Zm-10.65,6.13c-1.42,0-2.54,1.11-2.54,2.53,0,1.38,1.13,2.52,2.5,2.52,1.42,0,2.55-1.1,2.55-2.52,0-1.45-1.07-2.54-2.52-2.54Zm8.48,15.18c0-1.44-1.09-2.53-2.53-2.52-1.42,0-2.53,1.12-2.53,2.54,0,1.38,1.14,2.51,2.52,2.51,1.42,0,2.54-1.11,2.54-2.53h0Zm.25-28.85c.63,0,1.27,0,1.9,0,.59,0,.82-.23.82-.8,0-.52-.23-.74-.81-.74-1.25,0-2.5,0-3.75,0-.55,0-.9.33-.88.79.01.45.34.75.87.75.62,0,1.23,0,1.85,0h0Zm-5.92-.79c0,.53.22.78.71.79.48,0,.74-.27.73-.79,0-.5-.26-.75-.76-.76-.47,0-.68.23-.68.75h0Z"/><path class="cls-12" d="m33.07,84c-.8-.35-1.51-.81-1.72-1.73-.17-.75.08-1.44.35-2.13.57-1.46,1.12-2.92,1.68-4.38.24,0,.48,0,.72,0,8.57,0,17.14,0,25.71,0-.02.15-.03.3-.07.45-.47,1.74-.97,3.47-1.42,5.21-.27,1.03-.62,1.98-1.68,2.47-.02,0-.02.06-.02.1h-23.56Zm13.75-2.87c.98,0,1.95,0,2.93,0,.86,0,1.42-.5,1.43-1.27.02-.83-.55-1.39-1.43-1.4-1.95,0-3.91,0-5.86,0-.78,0-1.43.62-1.44,1.32,0,.77.59,1.34,1.44,1.35.98,0,1.95,0,2.93,0Z"/><path class="cls-6" d="m67.22,31.33c1.26.53,1.63,1.52,1.63,2.82-.03,7.91-.03,15.83,0,23.74,0,1.2-.41,2.28-.7,3.39-.81,3.03-1.66,6.05-2.49,9.07-.04.15-.11.28-.16.43-1.38-.01-2.76-.03-4.14-.04.43-1.58.85-3.16,1.29-4.73.04-.15.05-.3.04-.45,0-.02,0-.05,0-.07.39-.71.47-1.52.71-2.28.38-1.24.69-2.5,1.02-3.75.09-.33.14-.66.14-1.01-.01-1.42,0-2.84,0-4.27,0-.18.07-.38-.11-.53.6-.99.61-1.98.01-2.98.12-.1.09-.25.09-.38,0-1.8,0-3.6-.01-5.41.46-.91.45-1.83,0-2.75,0-2.87,0-5.75,0-8.62,0-.83-.39-1.42-1.04-1.88-.12-.09-.3-.11-.3-.31h4.01Z"/><path class="cls-9" d="m56.63,84s0-.09.02-.1c1.05-.49,1.41-1.44,1.68-2.47.45-1.74.95-3.48,1.42-5.21.04-.15.05-.3.07-.45h4.31c-.6,2.17-1.2,4.34-1.81,6.51-.24.88-.9,1.36-1.68,1.72h-4.01Z"/><path class="cls-11" d="m64.13,75.76h-4.31c-8.57,0-17.14,0-25.71,0-.24,0-.48,0-.72,0,0-.03,0-.05,0-.08l.09-.11c.61-1.62,1.18-3.25,1.87-4.84.19,0,.38.02.56.02,8.36,0,16.73,0,25.09,0,.12,0,.24,0,.36-.01l4.14.04c-.45,1.66-.91,3.32-1.36,4.98Z"/><path class="cls-4" d="m29.62,42.23c-.63.04-1.22-.05-1.82.08-.44.1-.81-.04-1.08-.43-.19-.28-.14-.55.03-.81.18-.27.44-.37.75-.38,1.37-.04,2.74-.08,4.1-.11.61-.01.94.25.93.84-.04,1.4-.09,2.8-.1,4.21,0,.53-.4.85-.87.81-.47-.03-.76-.37-.75-.92.01-.68.06-1.36.1-2.16-.63.69-1.08,1.37-1.5,2.07-1.07,1.79-1.72,3.73-1.98,5.78-.44,3.47.25,6.73,2,9.76.65,1.12,1.48,2.09,2.33,3.05.33.38.36.91.05,1.19-.3.27-.81.23-1.15-.11-2.57-2.55-4.16-5.62-4.71-9.2-.73-4.74.31-9.06,3.18-12.93.14-.19.29-.38.43-.57.02-.02.02-.06.04-.18Z"/><path class="cls-13" d="m39.86,58.08h22.32c.7,0,1.03.26,1.04.78,0,.5-.27.76-.73.84-.18.03-.38.02-.56.02-7.46,0-14.91,0-22.37,0,.16-.54.32-1.07.31-1.64Z"/><path class="cls-12" d="m33.47,75.56l-.09.11.09-.11Z"/><path class="cls-14" d="m46.09,40.97c1.42,0,2.54,1.11,2.54,2.53,0,1.39-1.11,2.52-2.49,2.54-1.41.02-2.56-1.11-2.57-2.52,0-1.42,1.11-2.55,2.53-2.55Z"/><path class="cls-14" d="m64.45,50.67c.59,1,.58,1.99-.01,2.98-1.16,1.2-2.58,1.37-3.69.46-1.12-.92-1.25-2.59-.28-3.66.98-1.08,2.63-1.13,3.67-.12.11.11.21.22.32.33Z"/><path class="cls-15" d="m54.24,49.63c1.45,0,2.5,1.08,2.5,2.55,0,1.43-1.11,2.51-2.56,2.5-1.37,0-2.49-1.15-2.49-2.54,0-1.41,1.13-2.51,2.56-2.51Z"/><path class="cls-7" d="m46.46,64.8c0,1.42-1.11,2.54-2.53,2.54-1.41,0-2.53-1.14-2.53-2.55,0-1.4,1.11-2.5,2.51-2.5,1.45,0,2.54,1.08,2.54,2.52Z"/><path class="cls-7" d="m56.75,43.5c0,1.42-1.13,2.55-2.53,2.54-1.4,0-2.54-1.15-2.53-2.56,0-1.39,1.13-2.49,2.52-2.5,1.44,0,2.54,1.08,2.54,2.52Z"/><path class="cls-5" d="m46.1,49.63c1.44,0,2.52,1.09,2.52,2.54,0,1.42-1.13,2.53-2.55,2.52-1.38,0-2.5-1.14-2.5-2.52,0-1.42,1.12-2.53,2.54-2.53Z"/><path class="cls-5" d="m54.58,64.81c0,1.42-1.12,2.53-2.54,2.53-1.38,0-2.51-1.13-2.52-2.51,0-1.42,1.1-2.54,2.53-2.54,1.44,0,2.53,1.08,2.53,2.52Z"/><path class="cls-8" d="m62.69,65.48s0,.05,0,.07c-.4.78-.89,1.45-1.81,1.69-1.05.27-1.94-.01-2.63-.83-.64-.77-.81-1.66-.38-2.59.43-.94,1.14-1.52,2.23-1.54,1.58-.02,2.63,1.04,2.61,2.63,0,.19-.01.38-.02.56Z"/><path class="cls-8" d="m64.54,42.14c.44.92.45,1.83,0,2.75-.48.48-.95.96-1.68,1.1-.99.18-1.81-.12-2.43-.85-.69-.81-.84-1.77-.35-2.73.43-.85,1.13-1.38,2.15-1.42,1-.03,1.74.39,2.32,1.16Z"/><path class="cls-2" d="m54.83,35.96c-.62,0-1.23,0-1.85,0-.52,0-.85-.3-.87-.75-.01-.46.34-.78.88-.79,1.25,0,2.5,0,3.75,0,.58,0,.81.23.81.74,0,.57-.23.79-.82.8-.63,0-1.27,0-1.9,0Z"/><path class="cls-2" d="m48.91,35.17c0-.53.21-.75.68-.75.5,0,.76.25.76.76,0,.51-.25.79-.73.79-.49,0-.72-.26-.71-.79Z"/><path class="cls-10" d="m46.82,81.13c-.98,0-1.95,0-2.93,0-.85,0-1.45-.57-1.44-1.35,0-.71.66-1.32,1.44-1.32,1.95,0,3.91,0,5.86,0,.89,0,1.45.57,1.43,1.4-.01.77-.57,1.27-1.43,1.27-.98,0-1.95,0-2.93,0Z"/><path d="m12.73,41.55l1.95.54,1.04-3.76,2.22.62-1.05,3.76,3.71,1.03-.64,2.31-10.11-2.82,1.71-6.14,2.22.62-1.07,3.83Z"/><path d="m18.5,37.68c-1.93-1.12-2.54-3.52-1.43-5.42,1.1-1.91,3.48-2.57,5.42-1.45,1.93,1.12,2.54,3.51,1.43,5.42-1.1,1.91-3.48,2.57-5.42,1.45Zm2.86-4.93c-.92-.53-1.91-.24-2.4.61-.49.84-.26,1.84.67,2.38.92.53,1.91.24,2.4-.61.49-.84.25-1.85-.67-2.38Z"/><path d="m18.19,24.97l1.48-1.69,8.23,7.22-1.48,1.69-8.23-7.22Z"/><path d="m28.34,16.51l6.35,8.36-1.79,1.36-.43-.56c-.05.75-.43,1.47-1.23,2.08-1.57,1.19-3.9.79-5.25-.98-1.35-1.78-1.11-4.13.46-5.32.8-.61,1.59-.78,2.33-.62l-2.24-2.95,1.79-1.36Zm2.29,6.74c-.68-.9-1.7-1-2.53-.38-.82.63-.99,1.64-.31,2.54.68.9,1.7,1,2.53.38.82-.63,1-1.64.31-2.54Z"/><path d="m39.99,14.63l2.7,7-2.1.81-.25-.66c-.26.71-.82,1.3-1.76,1.66-1.83.71-3.97-.32-4.77-2.4-.8-2.09.09-4.28,1.92-4.99.94-.36,1.75-.3,2.42.05l-.25-.66,2.1-.81Zm-.75,4.31c-.41-1.05-1.36-1.44-2.32-1.06-.97.37-1.41,1.3-1.01,2.35s1.36,1.44,2.32,1.06,1.41-1.3,1.01-2.35Z"/><path d="m51.37,17c.18,2.23-1.29,4.08-3.25,4.24-1,.08-1.76-.2-2.3-.73l.06.7-2.24.19-.87-10.47,2.24-.19.31,3.69c.45-.61,1.15-1.01,2.15-1.1,1.96-.16,3.72,1.42,3.9,3.65Zm-2.24.19c-.09-1.12-.9-1.76-1.93-1.68-1.03.08-1.72.85-1.63,1.97.09,1.12.9,1.76,1.93,1.68,1.03-.09,1.72-.85,1.63-1.97Z"/><path d="m53.72,10.2l2.23.26-1.29,10.87-2.23-.26,1.28-10.87Z"/><path d="m60.04,20.8c.59.19,1.16.12,1.55-.11l1.4,1.53c-1.01.75-2.23.92-3.59.48-2.45-.78-3.44-2.9-2.76-5.03.68-2.13,2.74-3.29,5-2.57,2.09.66,3.12,2.77,2.43,4.93-.09.3-.21.58-.36.83l-5.08-1.61c.04.83.61,1.3,1.4,1.55Zm2.14-2.19c.03-.9-.51-1.41-1.16-1.61-.82-.26-1.49-.03-1.92.63l3.07.98Z"/><path d="m79.16,22.47l-6.74,8.05-1.73-1.45.45-.54c-.75.12-1.53-.09-2.3-.73-1.51-1.26-1.64-3.62-.21-5.34,1.44-1.71,3.79-2,5.29-.73.77.65,1.11,1.38,1.13,2.14l2.38-2.84,1.72,1.45Zm-6.06,3.73c.72-.86.6-1.88-.19-2.55-.79-.66-1.82-.6-2.54.26-.72.86-.6,1.88.19,2.55.79.66,1.82.6,2.54-.26Z"/><path d="m78.87,26.85l1.4,1.76-5.86,4.68-1.4-1.76,5.86-4.68Zm1.43-1.43c.57-.46,1.44-.36,1.9.21.46.58.36,1.44-.21,1.9-.58.46-1.44.36-1.9-.21-.46-.58-.36-1.44.21-1.9Z"/><path d="m79.97,38.15c-1.5.84-2.88-.1-3.67-1.52-.73-1.31-.79-2.58-.02-3.69l1.92,1.16c-.4.45-.47.97-.15,1.54.26.47.54.63.8.48.72-.4-1.47-3.41.8-4.68,1.43-.8,2.82,0,3.58,1.36.59,1.06.65,2.26.03,3.34l-1.84-1.17c.24-.37.33-.77.08-1.2-.19-.34-.44-.48-.67-.34-.75.42,1.56,3.36-.86,4.71Z"/><path d="m84.03,46.58c-2.16.58-4.25-.54-4.75-2.43-.26-.97-.12-1.77.3-2.4l-3.58.96-.58-2.17,10.14-2.73.58,2.17-.68.18c.68.33,1.2.95,1.46,1.92.51,1.9-.74,3.91-2.89,4.49Zm-.58-2.17c1.09-.29,1.57-1.2,1.3-2.2s-1.14-1.54-2.23-1.25c-1.09.29-1.57,1.2-1.3,2.2.27,1,1.14,1.54,2.23,1.25Z"/><path d="m91.16,47.71l.13,2.25-10.94.65-.13-2.25,10.94-.66Z"/><path d="m86.95,60.41l-7.43-1.03.31-2.23.7.1c-.5-.57-.74-1.34-.6-2.34.27-1.95,2.2-3.31,4.42-3.01,2.21.31,3.7,2.15,3.43,4.1-.14,1-.58,1.68-1.21,2.09l.7.1-.31,2.23Zm-3.41-2.75c1.11.16,1.92-.49,2.06-1.52.14-1.03-.45-1.87-1.57-2.02-1.12-.15-1.92.49-2.06,1.52s.45,1.87,1.57,2.02Z"/><path d="m83.28,69.8l-5.69-5.2c-1.87-1.7-2.22-3.3-1.3-5.19l1.93.82c-.41.97-.3,1.55.42,2.21l7.75.04-.97,2.28-4.87-.26,3.67,3.09-.94,2.21Z"/></svg>