<?xml version="1.0" encoding="UTF-8"?><svg id="Layer_1" xmlns="http://www.w3.org/2000/svg" viewBox="0 0 100 100"><defs><style>.cls-1{fill:none;stroke:#a5262d;stroke-miterlimit:10;stroke-width:4px;}.cls-2{fill:#33b1cb;}.cls-3{fill:#33b1cc;}.cls-4{fill:#86cde8;}</style></defs><circle class="cls-1" cx="50" cy="50" r="45"/><path class="cls-4" d="m19.99,52.32v-.59c.28-.63.85-.71,1.44-.8,1.39-.19,2.45-1.33,2.54-2.73,0-.16.03-.31.08-.46.1-.46.54-.77,1.01-.71.47,0,.86.37.9.84.05.27.06.55.13.81.24,1.1,1.09,1.96,2.19,2.2.68.19.72.14.72-.59v-13.46q0-.84.81-.84h29.77c.25,0,.5.04.75.05-.05.28-.28.41-.45.59-2.42,2.42-4.83,4.84-7.25,7.25-.2.19-.38.4-.51.64-.23.39-.14.9.23,1.18.3.34.82.39,1.18.11.19-.14.37-.29.54-.45,2.78-2.78,5.56-5.55,8.33-8.32.3-.28.52-.64.63-1.03l3.4.04c-.06.27-.29.41-.47.59l-13.3,13.27c-.17.16-.33.33-.47.51-.23.28-.25.68-.06.99.16.35.52.56.9.54.33-.02.64-.18.85-.44l14.58-14.56c.28-.24.48-.58.54-.94h1.05c1.02,0,.93-.1.93.9v28.33c0,.78.07.85.84.59,1.27-.36,2.15-1.5,2.19-2.82.08-.71.44-1.04,1.04-1.02s.89.38.96,1.05c.19,1.7,1.06,2.64,2.78,2.89.51.02.97.31,1.21.77v.59c-.25.4-.67.66-1.14.7-1.7.18-2.64,1.14-2.85,2.87,0,.34-.15.66-.41.87-.26.22-.62.28-.94.14-.37-.15-.62-.5-.65-.9-.21-1.62-.94-2.55-2.29-2.91-.66-.18-.74-.12-.74.59v12.56q0,.77-.75.77h-21.03c-.21,0-.42,0-.64-.04.07-.27.29-.41.47-.59l7.5-7.5c.55-.55.59-1.09.15-1.54-.39-.4-1.03-.41-1.43-.02-.04.04-.08.09-.12.14-2.9,2.9-5.8,5.8-8.7,8.71-.25.22-.41.53-.45.86-1.13-.05-2.26.05-3.39-.06.06-.27.29-.41.47-.59l13.25-13.26c.21-.17.39-.36.53-.59.24-.38.16-.89-.19-1.18-.33-.34-.86-.38-1.23-.09-.11.08-.22.17-.31.27l-14.63,14.59c-.26.24-.43.55-.49.9h-10.14q-.87-.02-.87-.85v-27.47c0-.7-.08-.75-.74-.59-1.33.35-2.09,1.31-2.29,2.85,0,.55-.42,1.01-.97,1.05-.55-.02-.99-.48-1-1.03v-.29c-.15-1.4-1.26-2.5-2.66-2.63-.54,0-1.04-.27-1.34-.72Zm4.98.59c.35-.24.66-.53.93-.85-.25-.36-.56-.68-.9-.95-.35.25-.65.55-.9.89.24.33.54.63.87.88v.04Zm50.94,14.14c-.24-.35-.53-.66-.86-.93-.35.25-.67.55-.94.89.25.34.55.64.9.89.34-.25.65-.55.91-.89v.04Z"/><path class="cls-3" d="m66.43,36.05c.26-.14.48-.33.66-.55.84-.81,1.61-.59,1.93.51-.07.37-.26.7-.54.95l-14.58,14.57c-.21.26-.52.42-.85.44-.38.02-.74-.19-.9-.54-.2-.31-.17-.71.06-.99.15-.18.3-.35.47-.51l13.3-13.3c.15-.18.4-.32.47-.59Z"/><path class="cls-2" d="m42.6,81.95c-.33.12-.51.41-.75.64-.78.72-1.59.48-1.84-.59.06-.35.23-.67.49-.9l14.63-14.6c.1-.1.2-.19.31-.27.38-.28.9-.24,1.23.09.35.29.43.79.19,1.18-.14.22-.32.42-.53.59l-13.25,13.28c-.18.18-.4.32-.47.58Z"/><path class="cls-3" d="m60.34,36.07c.24-.08.44-.23.59-.43.97-.95,1.57-.85,2.09.38-.11.4-.33.75-.63,1.03-2.77,2.77-5.55,5.54-8.32,8.32-.16.17-.34.32-.54.45-.36.28-.88.23-1.18-.11-.37-.28-.46-.78-.23-1.18.14-.24.31-.46.51-.64,2.42-2.41,4.83-4.82,7.25-7.25.18-.16.41-.27.46-.57Z"/><path class="cls-3" d="m48.58,81.95c-.27.15-.51.35-.71.59-.81.77-1.61.54-1.88-.55.05-.32.21-.62.45-.84,2.9-2.91,5.8-5.81,8.7-8.71.32-.45.95-.56,1.4-.24.05.03.09.07.13.11.45.45.4.98-.15,1.54l-7.51,7.51c-.15.18-.38.32-.45.58Z"/><path d="m38.29,19.78c2.23,3.43,1.2,7.07-1.95,9.11-3.53,2.29-7.75,1.34-9.84-1.88-2.12-3.25-1.22-7.53,2.08-9.68,2.15-1.4,4.65-1.52,6.57-.63l-1.37,2.67c-.94-.43-2.33-.35-3.6.47-1.89,1.23-2.4,3.54-1.11,5.51,1.24,1.91,3.49,2.43,5.67,1.01,1.49-.97,2.04-2.26,1.74-3.6l-3,1.95-1.46-2.25,5.63-3.66.63.96Z"/><path d="m39.19,12.09l2.78-.72,3.51,13.51-2.78.72-3.51-13.52Z"/><path d="m56.69,14.92l-.21,9.56-2.87-.06.02-.9c-.65.71-1.59,1.13-2.87,1.11-2.5-.06-4.52-2.3-4.46-5.15.06-2.85,2.17-5,4.68-4.95,1.28.03,2.21.49,2.82,1.23l.02-.9,2.87.06Zm-2.97,4.72c.03-1.43-.9-2.35-2.22-2.38-1.32-.03-2.29.85-2.33,2.28-.03,1.43.91,2.35,2.22,2.38,1.32.03,2.29-.85,2.32-2.28Z"/><path d="m65.37,24.8c-.76,2.06-2.88,2.27-4.82,1.56-1.79-.67-2.9-1.85-3.06-3.56l2.82-.46c-.02.77.34,1.33,1.13,1.62.65.24,1.04.16,1.17-.2.37-.99-4.24-2.1-3.09-5.2.72-1.95,2.74-2.33,4.6-1.64,1.45.54,2.5,1.66,2.78,3.21l-2.75.39c-.08-.56-.32-1.02-.91-1.23-.47-.17-.82-.1-.94.22-.38,1.02,4.28,1.98,3.05,5.29Z"/><path d="m72.14,29.64c-1.29,1.78-3.39,1.42-5.06.21-1.55-1.12-2.3-2.56-2-4.25l2.84.31c-.22.73-.03,1.37.65,1.87.56.4.96.43,1.18.12.62-.85-3.52-3.16-1.58-5.84,1.22-1.69,3.26-1.51,4.87-.34,1.25.91,1.96,2.27,1.82,3.84l-2.76-.37c.08-.56-.03-1.06-.54-1.43-.4-.29-.76-.32-.96-.04-.64.88,3.6,3.05,1.52,5.92Z"/></svg>