<?xml version="1.0" encoding="UTF-8"?><svg id="Layer_1" xmlns="http://www.w3.org/2000/svg" viewBox="0 0 100 100"><defs><style>.cls-1{fill:#fff;}.cls-2{fill:#3a926c;}.cls-3{fill:none;stroke:#00b51e;stroke-miterlimit:10;stroke-width:4px;}.cls-4{fill:#b63cdb;}.cls-5{fill:#ff1d25;}.cls-6{fill:#8622fd;}.cls-7{fill:#ccf2ff;opacity:.54;}</style></defs><circle class="cls-3" cx="50" cy="50" r="45"/><path d="m27.16,23.65c2.41,2.13,2.39,5.09.44,7.3-2.19,2.47-5.58,2.64-7.84.64-2.28-2.02-2.5-5.44-.46-7.75,1.33-1.51,3.2-2.12,4.84-1.85l-.48,2.3c-.8-.13-1.84.22-2.62,1.11-1.17,1.33-1.07,3.18.31,4.4,1.34,1.18,3.15,1.1,4.5-.43.92-1.04,1.07-2.14.56-3.09l-1.86,2.1-1.57-1.39,3.49-3.95.67.6Z"/><path d="m36.55,19.5c1.12,1.93.58,4.24-1.12,5.22-.87.5-1.68.57-2.39.33l1.85,3.21-1.95,1.13-5.26-9.09,1.95-1.13.35.61c.14-.74.61-1.41,1.48-1.91,1.7-.98,3.97-.3,5.09,1.63Zm-1.95,1.13c-.56-.97-1.57-1.21-2.46-.69-.9.52-1.19,1.5-.63,2.48.56.97,1.56,1.21,2.46.69.9-.52,1.19-1.5.63-2.48Z"/><path d="m44.84,16.35l1.15,4.46-2.18.56-1.06-4.14c-.23-.9-.91-1.18-1.6-1-.8.21-1.23.81-.97,1.84l1.02,3.97-2.18.56-2.61-10.17,2.18-.56.92,3.59c.25-.64.89-1.17,1.85-1.42,1.47-.38,2.99.35,3.49,2.31Z"/><path d="m46.55,16.96c.03-2.23,1.83-3.93,4.03-3.9,2.21.03,3.95,1.78,3.92,4.02-.03,2.23-1.83,3.93-4.03,3.9-2.2-.03-3.95-1.78-3.92-4.02Zm5.7.08c.02-1.06-.72-1.78-1.7-1.79-.97-.01-1.74.68-1.75,1.75-.02,1.06.72,1.78,1.7,1.79.97.01,1.73-.68,1.75-1.75Z"/><path d="m63.26,18.56l-1.29,4.42-2.16-.63,1.2-4.1c.26-.89-.18-1.47-.87-1.67-.79-.23-1.47.07-1.77,1.09l-1.14,3.93-2.16-.63,2.1-7.2,2.16.63-.2.68c.54-.42,1.36-.55,2.31-.28,1.46.42,2.39,1.82,1.83,3.77Z"/><path d="m66.98,23.82c.52.33,1.09.41,1.52.29l.97,1.84c-1.17.47-2.39.32-3.59-.44-2.17-1.37-2.59-3.68-1.4-5.57,1.19-1.89,3.48-2.48,5.49-1.22,1.85,1.17,2.32,3.47,1.11,5.38-.17.27-.35.5-.56.71l-4.5-2.84c-.18.81.26,1.41.96,1.85Zm2.63-1.57c.26-.86-.14-1.49-.71-1.85-.72-.46-1.43-.41-2.02.13l2.73,1.72Z"/><path d="m78.99,33.62c-1.84,1.4-3.88.7-5.11-.91-.96-1.27-1.28-2.84-.44-4.29l2.21.92c-.4.61-.47,1.22.09,1.95.6.79,1.28.82,1.79.42.51-.39.67-1.06.07-1.84l-.3-.39.53-1.56,3.08.05-2.33-3.06,1.79-1.36,4.09,5.37-1.55,1.18-2.94-.04c.42,1.3.17,2.68-.98,3.56Z"/><path class="cls-4" d="m38.58,31h22.99c2.26,0,4.09,1.83,4.09,4.09v49.07c0,2.26-1.83,4.09-4.09,4.09h-22.99c-2.26,0-4.09-1.83-4.09-4.09v-49.07c0-2.26,1.83-4.09,4.09-4.09Z"/><path class="cls-6" d="m61.57,31h-22.99c-2.26,0-4.09,1.83-4.09,4.09v49.07l31.17-49.07c0-2.26-1.83-4.09-4.09-4.09Z"/><rect class="cls-2" x="37.65" y="34.29" width="24.84" height="46.66"/><path class="cls-1" d="m53.28,32.7c0,.31-.25.57-.57.57h-5.28c-.31,0-.57-.25-.57-.57h0c0-.31.25-.57.57-.57h5.28c.31,0,.57.25.57.57h0Z"/><path class="cls-1" d="m52.2,86.38c-.14-.02-.3-.04-.46-.07-.34-.06-.68-.13-1.02-.2-.41-.08-.82-.16-1.23-.24-.48-.1-.96-.19-1.44-.29-.07-.01-.15-.03-.21-.06-.17-.07-.23-.21-.16-.38.1-.23.2-.45.3-.68.17-.37.33-.75.52-1.12.12-.25.26-.49.42-.71.3-.42.85-.46,1.21-.08.13.14.25.29.35.45.24.37.47.74.71,1.11.38.6.77,1.21,1.15,1.81.04.06.07.11.09.17.08.17,0,.29-.22.29Z"/><path class="cls-5" d="m52.41,49.72c-.14-.02-.31-.04-.48-.08-.36-.07-.71-.14-1.07-.2-.43-.08-.86-.17-1.29-.25-.5-.1-1-.2-1.51-.3-.08-.02-.15-.03-.22-.06-.18-.07-.24-.22-.17-.4.1-.24.21-.47.31-.71.18-.39.35-.78.54-1.17.13-.26.27-.51.44-.74.32-.44.88-.48,1.26-.09.14.14.26.31.37.47.25.38.49.77.74,1.16.4.63.8,1.26,1.2,1.89.04.06.07.12.1.18.08.17,0,.3-.23.3Z"/><path class="cls-5" d="m53.28,40.62c.06,0,.12,0,.17,0,.16,0,.23.12.15.26-.06.1-.13.2-.2.29-.45.57-.9,1.15-1.36,1.72-.42.51-.84,1.02-1.28,1.52-.21.24-.47.43-.79.5-.39.08-.72-.02-1.04-.25-.19-.13-.31-.32-.44-.51-.4-.62-.8-1.24-1.2-1.87-.17-.27-.33-.55-.5-.83,0-.02-.02-.03-.03-.05-.1-.21-.04-.33.19-.35.84-.06,1.68-.12,2.52-.19.74-.05,1.48-.11,2.22-.16.52-.04,1.05-.07,1.57-.1,0,0,0,0,0,0Z"/><path d="m46.11,65.85c.6.19,1.08.51,1.45.96s.55,1,.55,1.65c0,1.01-.33,1.78-.99,2.33-.66.54-1.48.82-2.45.82-.78,0-1.47-.18-2.07-.54-.6-.36-1.04-.88-1.31-1.58l2.09-1.19c.2.65.62.98,1.28.98.34,0,.6-.08.78-.24.18-.16.27-.38.27-.64s-.09-.48-.27-.64c-.18-.16-.44-.23-.78-.23h-.51l-.92-1.37,1.5-1.83h-3.15v-2.29h6.09v1.89l-1.57,1.93Z"/><path d="m58.49,66.04v.95c0,1.37-.43,2.49-1.29,3.34-.86.85-1.98,1.28-3.35,1.28-1.46,0-2.67-.47-3.61-1.41-.94-.94-1.41-2.09-1.41-3.47s.47-2.53,1.41-3.48c.94-.95,2.1-1.42,3.48-1.42.87,0,1.68.2,2.4.59.73.39,1.3.92,1.71,1.57l-2.03,1.16c-.19-.29-.46-.53-.82-.71s-.77-.27-1.22-.27c-.74,0-1.35.24-1.82.72-.47.48-.71,1.1-.71,1.85s.23,1.33.7,1.83,1.13.75,1.97.75c1.09,0,1.81-.41,2.16-1.23h-2.28v-2.06h4.72Z"/><polygon class="cls-7" points="37.65 80.95 37.65 34.29 62.49 34.29 37.65 80.95"/></svg>