<?xml version="1.0" encoding="UTF-8"?><svg id="Layer_1" xmlns="http://www.w3.org/2000/svg" viewBox="0 0 100 100"><defs><style>.cls-1{fill:#7ac943;}.cls-2{fill:none;stroke:#00b51e;stroke-miterlimit:10;stroke-width:4px;}.cls-3{fill:#ff931e;}.cls-4{fill:#0071bc;}.cls-5{fill:#69a6fe;}</style></defs><polygon class="cls-5" points="48 76 36.15 76 37.72 70.7 47.13 70.7 48 76"/><circle class="cls-2" cx="50" cy="50" r="45"/><path d="m27.5,24.99c2.54,2.3,2.48,5.46.38,7.79-2.36,2.61-5.98,2.74-8.37.59-2.41-2.18-2.6-5.83-.39-8.27,1.44-1.59,3.44-2.22,5.18-1.91l-.54,2.45c-.86-.15-1.96.21-2.81,1.15-1.27,1.4-1.18,3.38.28,4.7,1.41,1.28,3.34,1.22,4.81-.4,1-1.1,1.17-2.27.64-3.28l-2.01,2.22-1.66-1.5,3.77-4.16.71.64Z"/><path d="m37.68,20.85c1.13,2.1.48,4.54-1.37,5.53-.95.51-1.81.55-2.56.27l1.87,3.48-2.11,1.14-5.3-9.87,2.11-1.14.36.66c.18-.79.69-1.48,1.64-1.99,1.85-.99,4.24-.19,5.37,1.91Zm-2.12,1.14c-.57-1.06-1.63-1.34-2.6-.82-.97.52-1.32,1.56-.75,2.62.57,1.06,1.63,1.34,2.6.82.97-.52,1.32-1.56.75-2.62Z"/><path d="m46.7,17.91l.99,4.81-2.35.48-.92-4.47c-.2-.97-.9-1.3-1.66-1.14-.86.18-1.35.8-1.12,1.92l.88,4.28-2.35.48-2.26-10.97,2.35-.49.8,3.87c.3-.67,1.01-1.21,2.04-1.42,1.58-.33,3.16.52,3.6,2.64Z"/><path d="m48.53,18.65c.19-2.38,2.22-4.06,4.56-3.87,2.34.19,4.08,2.17,3.89,4.55-.19,2.38-2.22,4.06-4.56,3.87-2.34-.19-4.08-2.17-3.89-4.55Zm6.06.48c.09-1.13-.65-1.95-1.68-2.03s-1.89.6-1.98,1.74c-.09,1.13.65,1.94,1.68,2.03,1.04.08,1.89-.6,1.98-1.73Z"/><path d="m66.16,21.65l-1.75,4.59-2.24-.85,1.62-4.26c.35-.93-.07-1.58-.78-1.86-.82-.31-1.57-.05-1.98,1.01l-1.55,4.08-2.24-.85,2.84-7.48,2.24.85-.27.7c.61-.4,1.5-.47,2.48-.1,1.51.57,2.39,2.14,1.62,4.16Z"/><path d="m69.61,27.6c.53.39,1.13.52,1.59.43l.88,2.04c-1.28.4-2.56.14-3.78-.77-2.19-1.64-2.45-4.13-1.02-6.04,1.43-1.91,3.92-2.35,5.94-.83,1.87,1.4,2.17,3.88.72,5.82-.2.27-.42.51-.65.71l-4.55-3.4c-.25.85.16,1.52.87,2.05Zm2.92-1.45c.35-.9-.02-1.6-.6-2.03-.73-.55-1.49-.55-2.15-.03l2.75,2.06Z"/><path d="m77.32,39.88l1.88-3.24-3.74-.05-1.44-2.53,6.65.08,3.17-5.46,1.44,2.53-1.72,2.96,3.43.04,1.44,2.53-6.32-.08-3.35,5.74-1.44-2.53Z"/><path class="cls-4" d="m31.4,58.39h5.52l5.08,15.23h0c.12.36.46.6.83.6.04,0,.08,0,.12,0,.42-.06.74-.4.76-.82l.83-15h25.56c.23,0,.46-.09.62-.26s.26-.39.26-.62v-24.63c0-.23-.09-.46-.26-.62s-.39-.26-.62-.26H31.39c-.49,0-.88.39-.88.88v24.63c0,.23.09.46.26.62s.39.26.62.26h0Z"/><path class="cls-5" d="m42.21,68.69l-3.78-11.33v-1.93h0c.4.2.84.3,1.29.31l1.5,2.25c.16.24.44.39.73.39h.83l-.57,10.3Z"/><path class="cls-3" d="m40.19,72.46v-1.76h-6.16c-.49,0-.88.39-.88.88v9.68c0,.23.09.46.26.62s.39.26.62.26h16.71c.23,0,.46-.09.62-.26s.26-.39.26-.62v-9.68c0-.23-.09-.46-.26-.62s-.39-.26-.62-.26h-5.28v1.76h.88v2.64h-5.88c-1.12,0-2.03-.91-2.03-2.03h0c0-.33.27-.61.61-.61h1.15Z"/><path class="cls-5" d="m57.78,48.71h9.68c.23,0,.46-.09.62-.26s.26-.39.26-.62v-12.32c0-.23-.09-.46-.26-.62s-.39-.26-.62-.26h-9.68c-.49,0-.88.39-.88.88v12.32c0,.23.09.46.26.62s.39.26.62.26Zm.88-12.32h7.92v10.56h-7.92v-10.56Z"/><path class="cls-5" d="m67.46,49.59h-6.16c-.49,0-.88.39-.88.88v4.4c0,.23.09.46.26.62s.39.26.62.26h6.16c.23,0,.46-.09.62-.26s.26-.39.26-.62v-4.4c0-.23-.09-.46-.26-.62s-.39-.26-.62-.26Zm-.88,4.4h-4.4v-2.64h4.4v2.64Z"/><path class="cls-5" d="m34.03,42.56h6.16v1.76h-6.16v-1.76Z"/><path class="cls-5" d="m34.03,46.07h3.52v1.76h-3.52v-1.76Z"/><path class="cls-1" d="m34.48,78.07h2.63c.25,0,.45.2.45.45v.87c0,.25-.2.45-.45.45h-2.63c-.25,0-.45-.2-.45-.45v-.87c0-.25.2-.45.45-.45Z"/><path class="cls-1" d="m40.98,78.07h2.63c.25,0,.45.2.45.45v.87c0,.25-.2.45-.45.45h-2.63c-.25,0-.45-.2-.45-.45v-.87c0-.25.2-.45.45-.45Z"/><path class="cls-1" d="m47.48,78.07h2.63c.25,0,.45.2.45.45v.87c0,.25-.2.45-.45.45h-2.63c-.25,0-.45-.2-.45-.45v-.87c0-.25.2-.45.45-.45Z"/><path class="cls-5" d="m48.63,51.58c-.25-.04-.54-.08-.83-.13-.61-.11-1.23-.23-1.84-.35-.74-.14-1.48-.29-2.22-.44-.86-.17-1.73-.35-2.59-.52-.13-.03-.26-.05-.39-.1-.31-.12-.42-.37-.29-.68.17-.41.36-.82.54-1.22.31-.67.6-1.35.93-2.01.22-.44.47-.88.76-1.28.55-.76,1.52-.82,2.18-.15.24.24.44.53.63.81.44.66.85,1.33,1.28,1.99.69,1.09,1.38,2.17,2.07,3.26.06.1.12.2.17.31.14.3-.01.52-.39.52Z"/><path class="cls-5" d="m50.14,35.91c.1,0,.2,0,.3,0,.27,0,.39.2.27.44-.1.18-.22.35-.35.51-.78.99-1.55,1.98-2.34,2.96-.72.89-1.46,1.76-2.2,2.63-.36.42-.8.75-1.36.87-.66.14-1.25-.04-1.79-.42-.33-.23-.54-.56-.75-.88-.7-1.07-1.39-2.14-2.07-3.21-.3-.47-.58-.96-.86-1.43-.02-.03-.03-.06-.05-.08-.18-.37-.07-.57.34-.6,1.44-.11,2.89-.21,4.33-.32,1.28-.09,2.55-.19,3.83-.28.9-.06,1.81-.11,2.71-.17,0,0,0,0,0,0Z"/></svg>