<?xml version="1.0" encoding="UTF-8"?><svg id="Layer_1" xmlns="http://www.w3.org/2000/svg" viewBox="0 0 100 100"><defs><style>.cls-1{fill:#fedd46;}.cls-2{fill:none;stroke:#00b51e;stroke-miterlimit:10;stroke-width:4px;}.cls-3{fill:#db411d;}</style></defs><circle class="cls-2" cx="50" cy="50" r="45"/><path d="m27.83,24.44c2.67,2.47,2.57,5.83.3,8.28-2.54,2.74-6.39,2.84-8.9.52-2.53-2.35-2.69-6.23-.31-8.8,1.55-1.67,3.68-2.32,5.53-1.97l-.6,2.6c-.91-.17-2.09.2-3,1.19-1.36,1.47-1.3,3.57.24,5,1.49,1.38,3.54,1.33,5.11-.36,1.08-1.16,1.27-2.39.72-3.48l-2.16,2.33-1.75-1.62,4.06-4.38.75.69Z"/><path d="m38.91,20.31c1.12,2.27.35,4.84-1.65,5.83-1.02.5-1.94.52-2.73.19l1.87,3.76-2.29,1.13-5.28-10.67,2.29-1.13.35.71c.22-.83.79-1.55,1.81-2.05,2-.99,4.51-.05,5.64,2.22Zm-2.29,1.13c-.57-1.14-1.68-1.48-2.74-.96-1.05.52-1.46,1.61-.89,2.76.57,1.14,1.68,1.48,2.74.96s1.46-1.62.89-2.76Z"/><path d="m48.72,17.64l.79,5.16-2.52.39-.74-4.79c-.16-1.04-.89-1.43-1.7-1.31-.92.14-1.48.78-1.3,1.97l.7,4.59-2.52.39-1.8-11.76,2.52-.39.64,4.15c.36-.69,1.14-1.22,2.25-1.39,1.7-.26,3.33.73,3.68,3Z"/><path d="m50.67,18.54c.37-2.51,2.65-4.14,5.12-3.77s4.17,2.6,3.79,5.11c-.38,2.51-2.65,4.14-5.12,3.77-2.47-.37-4.17-2.6-3.79-5.11Zm6.39.96c.18-1.19-.54-2.11-1.64-2.27-1.09-.16-2.05.5-2.23,1.69s.54,2.11,1.64,2.27,2.05-.5,2.23-1.69Z"/><path d="m69.17,23.2l-2.27,4.7-2.3-1.11,2.11-4.36c.46-.95.08-1.68-.66-2.04-.84-.41-1.66-.2-2.19.89l-2.02,4.18-2.29-1.11,3.7-7.65,2.29,1.11-.35.72c.69-.37,1.63-.36,2.64.13,1.54.75,2.33,2.49,1.33,4.55Z"/><path d="m72.27,29.91c.51.47,1.13.68,1.64.64l.7,2.25c-1.4.28-2.72-.14-3.91-1.24-2.13-1.98-2.13-4.64-.4-6.49,1.72-1.86,4.4-2.04,6.37-.22,1.82,1.69,1.86,4.34.12,6.23-.24.26-.5.49-.77.68l-4.43-4.1c-.36.87,0,1.62.69,2.26Zm3.25-1.21c.47-.91.15-1.69-.41-2.21-.71-.66-1.51-.75-2.27-.28l2.68,2.49Z"/><path d="m84.46,42.82l-6.51-1.19-1.22-2.88,4.47.91c-.75-2.25.18-4.38,2.3-5.28,2.27-.96,4.57.02,5.59,2.43,1.03,2.43.13,4.75-2.14,5.71-.85.36-1.71.45-2.5.3Zm-.75-3.73c.36.84,1.21,1.33,2.18.92.97-.41,1.21-1.36.85-2.21-.35-.83-1.23-1.33-2.18-.92-.95.41-1.21,1.38-.85,2.21Z"/><path class="cls-3" d="m67.83,41.12l-16.63-5.56c-1.24-.41-2.55-.41-3.79,0l-16.63,5.56c-1.54.53-2.55,1.95-2.55,3.55v35.57c0,1.24.59,2.31,1.54,3.02.65.47,1.42.71,2.19.71.41,0,.83-.06,1.18-.18l14.8-4.97c.89-.3,1.89-.3,2.84,0l14.8,4.97c1.12.41,2.37.18,3.37-.53,1.01-.71,1.54-1.83,1.54-3.02v-35.57c-.12-1.6-1.12-3.02-2.66-3.55h0Z"/><path class="cls-1" d="m66.99,42.78l-16.3-5.45c-.89-.32-1.9-.32-2.79,0l-16.3,5.45c-.95.32-1.59,1.2-1.59,2.22v35.32c0,.51.25,1.01.7,1.33.32.19.63.32.95.32.19,0,.38,0,.51-.06l16.23-5.45c.57-.19,1.2-.19,1.71,0l16.3,5.45c.51.19,1.08.06,1.52-.25.44-.32.7-.82.7-1.33v-35.32c-.06-1.01-.7-1.9-1.65-2.22h0Z"/><path class="cls-1" d="m66.99,80.33q-.06,0,0,0l-16.3-5.45c-.89-.32-1.9-.32-2.79,0l-16.23,5.45v-35.32c0-.32.19-.57.51-.63l16.3-5.45c.25-.06.57-.13.89-.13s.57.06.89.13l16.3,5.45c.32.13.51.38.51.63l-.06,35.32Z"/><path d="m62.27,46.86l-12.43-3.73c-.36-.12-.71-.12-1.01,0l-13.2,4.26c-.47.18-.77.59-.77,1.07v8.82c0,.3.18.59.41.77.18.12.36.18.59.18.12,0,.18,0,.3-.06l13.2-4.26h.06l12.43,3.73c.3.12.59.06.89-.12.24-.18.41-.47.41-.77v-8.82c-.12-.47-.41-.89-.89-1.07h0Z"/><path d="m61.5,55.98l-11.66-3.49c-.36-.12-.71-.12-1.01,0l-12.49,4.02v-7.75l12.96-4.14h.06l12.19,3.67-.06,7.69Z"/><path d="m45.61,71.17c-.24.05-.52.12-.8.17-.59.11-1.19.22-1.78.33-.72.13-1.44.26-2.16.39-.85.15-1.7.3-2.55.45-.13.02-.26.04-.38.05-.31,0-.43-.16-.31-.45.16-.39.33-.77.5-1.16.28-.64.56-1.29.87-1.93.21-.43.44-.87.72-1.3.53-.8,1.5-1.18,2.16-.84.24.12.45.28.64.46.44.39.86.8,1.28,1.2.69.65,1.37,1.28,2.04,1.92.06.06.12.12.16.19.13.19-.01.42-.37.54Z"/><path d="m47.02,57.75c.1-.03.2-.07.3-.1.27-.08.4.05.27.3-.1.19-.22.37-.35.55-.77,1.1-1.54,2.2-2.32,3.29-.71.98-1.43,1.96-2.16,2.93-.35.47-.78.88-1.34,1.17-.66.34-1.25.38-1.79.24-.33-.08-.56-.28-.78-.48-.73-.66-1.47-1.33-2.2-2.02-.32-.3-.63-.62-.94-.94-.02-.02-.03-.04-.05-.06-.2-.26-.1-.46.32-.63,1.48-.58,2.96-1.15,4.43-1.72,1.3-.5,2.59-1.01,3.88-1.5.91-.35,1.82-.69,2.73-1.03,0,0,0,0,0,0Z"/><path d="m54.97,63.3c.75.22,1.38.77,1.89,1.67.51.9.77,2.04.77,3.42s-.28,2.44-.83,3.04-1.22.76-2.02.49c-.66-.22-1.24-.66-1.72-1.31s-.83-1.48-1.05-2.51l1.66-1.1c.16.95.53,1.51,1.11,1.7.28.09.49.05.64-.12.15-.17.23-.44.23-.81s-.08-.71-.23-.96-.35-.42-.61-.5l-2.4-.74.31-7.43,4.49,1.19v3.21l-2.72-.77-.05,1.37.54.16Z"/><path d="m66.67,67.73v1.4c0,2.02-.4,3.53-1.18,4.53-.78.99-1.78,1.27-3,.86-1.28-.43-2.32-1.45-3.13-3.04s-1.2-3.34-1.2-5.27c0-1.94.4-3.46,1.19-4.57s1.81-1.53,3.02-1.22c.77.2,1.49.68,2.14,1.42.66.75,1.17,1.65,1.55,2.71l-1.84,1.18c-.17-.48-.41-.89-.74-1.24s-.68-.58-1.08-.69c-.65-.18-1.18.01-1.59.59-.41.57-.61,1.39-.61,2.45s.2,1.96.61,2.8c.41.84.98,1.38,1.72,1.62.96.31,1.61-.08,1.92-1.18l-2.03-.63v-2.97l4.25,1.26Z"/></svg>