<?xml version="1.0" encoding="UTF-8"?><svg id="Layer_1" xmlns="http://www.w3.org/2000/svg" viewBox="0 0 100 100"><defs><style>.cls-1{fill:#fff;}.cls-2{fill:none;stroke:#00b51e;stroke-miterlimit:10;stroke-width:4px;}.cls-3{fill:#42210b;}.cls-4{fill:#a0280e;}.cls-5{fill:#7dcbe5;}.cls-6{fill:#ff1d25;}.cls-7{fill:#6a3223;}.cls-8{fill:#e5eff1;}.cls-9{fill:#ccf2ff;opacity:.54;}.cls-10{fill:#29abe2;}.cls-11{fill:#c65d42;}.cls-12{fill:#9fddea;}</style></defs><circle class="cls-2" cx="50" cy="50" r="45"/><path d="m27.84,25.38c2.67,2.48,2.56,5.84.3,8.28-2.55,2.74-6.39,2.84-8.9.51-2.53-2.35-2.69-6.23-.3-8.8,1.55-1.67,3.68-2.31,5.53-1.96l-.6,2.6c-.91-.17-2.09.2-3,1.18-1.36,1.47-1.3,3.57.23,5,1.48,1.38,3.54,1.34,5.11-.36,1.08-1.16,1.27-2.39.72-3.48l-2.16,2.33-1.75-1.62,4.06-4.38.75.69Z"/><path d="m38.91,21.25c1.12,2.27.35,4.84-1.65,5.83-1.02.51-1.94.52-2.73.2l1.86,3.76-2.29,1.13-5.28-10.67,2.29-1.13.35.72c.22-.83.79-1.55,1.81-2.05,2-.99,4.51-.05,5.64,2.22Zm-2.29,1.13c-.57-1.14-1.68-1.48-2.73-.96-1.05.52-1.46,1.61-.89,2.76.57,1.14,1.68,1.48,2.73.96,1.05-.52,1.46-1.61.89-2.76Z"/><path d="m48.72,18.58l.79,5.16-2.52.39-.74-4.79c-.16-1.04-.89-1.43-1.7-1.31-.92.14-1.48.78-1.3,1.97l.7,4.59-2.52.39-1.8-11.77,2.52-.39.64,4.15c.36-.69,1.14-1.22,2.25-1.39,1.7-.26,3.33.73,3.68,3Z"/><path d="m50.67,19.48c.38-2.51,2.65-4.14,5.12-3.77s4.17,2.6,3.79,5.11c-.38,2.51-2.65,4.14-5.12,3.77-2.47-.37-4.17-2.6-3.79-5.11Zm6.39.96c.18-1.19-.54-2.11-1.64-2.27-1.09-.16-2.05.5-2.23,1.69-.18,1.19.54,2.11,1.64,2.27,1.09.16,2.05-.5,2.23-1.69Z"/><path d="m69.18,24.14l-2.27,4.7-2.3-1.11,2.11-4.36c.46-.95.08-1.68-.66-2.04-.84-.41-1.66-.2-2.19.89l-2.02,4.18-2.3-1.11,3.7-7.65,2.3,1.11-.35.72c.69-.37,1.63-.36,2.64.12,1.55.75,2.33,2.49,1.33,4.55Z"/><path d="m72.27,30.84c.51.47,1.13.68,1.64.64l.7,2.25c-1.4.28-2.72-.14-3.91-1.23-2.13-1.98-2.13-4.64-.4-6.49,1.72-1.86,4.4-2.04,6.37-.22,1.82,1.69,1.86,4.35.12,6.23-.24.26-.5.49-.77.68l-4.43-4.1c-.36.87,0,1.62.69,2.26Zm3.25-1.21c.47-.91.15-1.69-.41-2.21-.71-.66-1.51-.75-2.27-.28l2.68,2.49Z"/><path d="m90.14,40.63l-2.08.93-10.37.38-1.18-2.64,10-.37-1.95-4.38,2.39-1.07,3.19,7.14Z"/><path class="cls-7" d="m32.57,35h20.58c2.02,0,3.66,1.64,3.66,3.66v43.93c0,2.02-1.64,3.66-3.66,3.66h-20.58c-2.02,0-3.66-1.64-3.66-3.66v-43.93c0-2.02,1.64-3.66,3.66-3.66Z"/><path class="cls-11" d="m47.84,66.2c-.25-.04-.54-.08-.83-.13-.61-.11-1.23-.23-1.84-.35-.74-.14-1.48-.29-2.22-.44-.86-.17-1.73-.35-2.59-.52-.13-.03-.26-.05-.39-.1-.31-.12-.42-.37-.29-.68.17-.41.36-.82.54-1.22.31-.67.6-1.35.93-2.01.22-.44.47-.88.76-1.28.55-.76,1.52-.82,2.18-.15.24.24.44.53.63.81.44.66.85,1.33,1.28,1.99.69,1.09,1.38,2.17,2.07,3.26.06.1.12.2.17.31.14.3-.01.52-.39.52Z"/><path class="cls-11" d="m49.34,50.54c.1,0,.2,0,.3,0,.27,0,.39.2.27.44-.1.18-.22.35-.35.51-.78.99-1.55,1.98-2.34,2.96-.72.89-1.46,1.76-2.2,2.63-.36.42-.8.75-1.36.87-.66.14-1.25-.04-1.79-.42-.33-.23-.54-.56-.75-.88-.7-1.07-1.39-2.14-2.07-3.21-.3-.47-.58-.96-.86-1.43-.02-.03-.03-.06-.05-.08-.18-.37-.07-.57.34-.6,1.44-.11,2.89-.21,4.33-.32,1.28-.09,2.55-.19,3.83-.28.9-.06,1.81-.11,2.71-.17,0,0,0,0,0,0Z"/><path class="cls-11" d="m45.99,35h20.58c2.02,0,3.66,1.64,3.66,3.66v43.93c0,2.02-1.64,3.66-3.66,3.66h-20.58c-2.02,0-3.66-1.64-3.66-3.66v-43.93c0-2.02,1.64-3.66,3.66-3.66Z"/><path class="cls-4" d="m66.58,35h-20.58c-2.02,0-3.66,1.64-3.66,3.66v43.93l27.91-43.93c0-2.02-1.64-3.66-3.66-3.66Z"/><path class="cls-10" d="m68.08,79.72h-23.59c-.86,0-1.57-.72-1.57-1.61v-39.56c0-.97.77-1.76,1.71-1.76h23.45c.86,0,1.57.72,1.57,1.61v39.71c0,.89-.7,1.61-1.57,1.61Z"/><path class="cls-1" d="m58.19,84.57c-.12-.02-.27-.04-.41-.06-.31-.06-.61-.12-.92-.18-.37-.07-.74-.14-1.1-.22-.43-.09-.86-.17-1.29-.26-.06-.01-.13-.03-.19-.05-.16-.06-.21-.19-.14-.34.09-.2.18-.41.27-.61.15-.33.3-.67.46-1,.11-.22.23-.44.38-.64.27-.38.76-.41,1.08-.07.12.12.22.26.31.4.22.33.42.66.64.99.34.54.69,1.08,1.03,1.62.03.05.06.1.08.15.07.15,0,.26-.2.26Z"/><path class="cls-6" d="m58.38,51.75c-.13-.02-.28-.04-.43-.07-.32-.06-.64-.12-.96-.18-.38-.07-.77-.15-1.15-.23-.45-.09-.9-.18-1.35-.27-.07-.01-.14-.03-.2-.05-.16-.06-.22-.19-.15-.36.09-.21.19-.42.28-.64.16-.35.31-.7.48-1.04.12-.23.24-.46.39-.67.28-.39.79-.43,1.13-.08.12.13.23.27.33.42.23.34.44.69.66,1.04.36.56.72,1.13,1.08,1.69.03.05.06.11.09.16.07.16,0,.27-.2.27Z"/><path class="cls-6" d="m59.16,43.62c.05,0,.1,0,.16,0,.14,0,.2.1.14.23-.05.09-.11.18-.18.26-.4.51-.8,1.03-1.22,1.54-.37.46-.76.92-1.15,1.36-.19.22-.42.39-.71.45-.35.08-.65-.02-.93-.22-.17-.12-.28-.29-.39-.46-.36-.55-.72-1.11-1.08-1.67-.16-.24-.3-.5-.45-.75,0-.01-.02-.03-.02-.04-.09-.19-.04-.3.17-.31.75-.06,1.5-.11,2.25-.17.66-.05,1.33-.1,1.99-.14.47-.03.94-.06,1.41-.09,0,0,0,0,0,0Z"/><path d="m54.92,67.94v1.95h-.84v1.28h-2.13v-1.28h-3.68v-1.97l2.5-5.13h2.37l-2.53,5.15h1.33v-1.51h2.13v1.51h.84Z"/><path d="m64,66.37v.85c0,1.23-.39,2.23-1.16,2.99-.77.76-1.77,1.14-3,1.14-1.31,0-2.39-.42-3.23-1.26s-1.26-1.87-1.26-3.1.42-2.27,1.26-3.12,1.88-1.27,3.12-1.27c.78,0,1.5.18,2.15.53.65.35,1.16.82,1.53,1.4l-1.82,1.04c-.17-.26-.41-.47-.74-.63s-.69-.24-1.1-.24c-.66,0-1.21.22-1.63.65-.42.43-.63.98-.63,1.65s.21,1.19.63,1.64c.42.45,1.01.67,1.77.67.97,0,1.62-.37,1.93-1.1h-2.04v-1.84h4.23Z"/><path class="cls-9" d="m44.17,77.51c-.4.64-1.38.35-1.38-.4v-38.58c0-.96.76-1.74,1.7-1.74h23.66c.65,0,1.05.72.71,1.27l-24.68,39.44Z"/><polyline class="cls-4" points="59.8 38.58 52.39 38.58 50.85 35 61.52 35"/><path class="cls-1" d="m59.16,37.41c0,.28-.23.51-.51.51h-4.73c-.28,0-.51-.23-.51-.51h0c0-.28.23-.51.51-.51h4.73c.28,0,.51.23.51.51h0Z"/><rect class="cls-3" x="31.24" y="37.46" width="9.85" height="5.37" rx="1.96" ry="1.96"/><circle cx="33.76" cy="40.48" r=".9"/><path class="cls-5" d="m33.9,42.1c-1.08-.01-1.94-.89-1.93-1.97.01-1.08.89-1.94,1.97-1.93,1.07.01,1.93.88,1.93,1.95-.01,1.08-.89,1.95-1.97,1.94Zm-.92-2.13c-.14.25,0,.46.1.67.2.36.61.55,1.02.47.37-.08.67-.37.76-.74.11-.43-.1-.88-.49-1.08-.22-.11-.47-.15-.72-.11-.51-.01-.82.33-.68.79Z"/><path class="cls-12" d="m33.66,39.18c.24-.04.5,0,.72.11.39.2.6.65.49,1.08-.1.37-.39.65-.76.73-.41.08-.82-.11-1.02-.47-.11-.21-.24-.42-.1-.67.13.08.29.12.44.11,0,.24.08.46.35.52.23.08.49-.03.58-.25.15-.35-.07-.63-.54-.66.05-.18-.01-.37-.15-.49Z"/><path class="cls-8" d="m33.66,39.18c.15.12.22.31.17.5-.11.15-.25.29-.4.4-.16.01-.31-.03-.44-.11-.14-.46.17-.81.68-.79Z"/><circle cx="38.24" cy="40.48" r=".9"/><path class="cls-5" d="m38.38,42.1c-1.08-.01-1.94-.89-1.93-1.97.01-1.08.89-1.94,1.97-1.93,1.07.01,1.93.88,1.93,1.95-.01,1.08-.89,1.95-1.97,1.94Zm-.92-2.13c-.14.25,0,.46.1.67.2.36.61.55,1.02.47.37-.08.67-.37.76-.74.11-.43-.1-.88-.49-1.08-.22-.11-.47-.15-.72-.11-.51-.01-.82.33-.68.79Z"/><path class="cls-12" d="m38.13,39.18c.24-.04.5,0,.72.11.39.2.6.65.49,1.08-.1.37-.39.65-.76.73-.41.08-.82-.11-1.02-.47-.11-.21-.24-.42-.1-.67.13.08.29.12.44.11,0,.24.08.46.35.52.23.08.49-.03.58-.25.15-.35-.07-.63-.54-.66.05-.18-.01-.37-.15-.49Z"/><path class="cls-8" d="m38.13,39.18c.15.12.22.31.17.5-.11.15-.25.29-.4.4-.16.01-.31-.03-.44-.11-.14-.46.17-.81.68-.79Z"/></svg>