<?xml version="1.0" encoding="UTF-8"?><svg id="Layer_1" xmlns="http://www.w3.org/2000/svg" xmlns:xlink="http://www.w3.org/1999/xlink" viewBox="0 0 100 100"><defs><style>.cls-1{fill:url(#linear-gradient-2);}.cls-2{fill:#fff;}.cls-3{fill:#fdc00f;}.cls-4{fill:none;stroke:#00b51e;stroke-miterlimit:10;stroke-width:4px;}.cls-5{fill:#16c5d5;}.cls-6{fill:#073856;}.cls-7{fill:url(#linear-gradient);}</style><linearGradient id="linear-gradient" x1="53.68" y1="87.97" x2="55.15" y2="76.4" gradientTransform="translate(-30.12 34.37) rotate(-27.65)" gradientUnits="userSpaceOnUse"><stop offset="0" stop-color="#d53f26"/><stop offset="1" stop-color="#a4252c"/></linearGradient><linearGradient id="linear-gradient-2" x1="45.72" y1="83.8" x2="47.19" y2="72.23" gradientTransform="translate(121.12 34.37) rotate(-152.35) scale(1 -1)" xlink:href="#linear-gradient"/></defs><circle class="cls-4" cx="50" cy="50" r="45"/><path d="m27.5,24.33c2.54,2.3,2.48,5.46.38,7.79-2.36,2.61-5.98,2.74-8.37.58-2.41-2.18-2.6-5.83-.39-8.27,1.44-1.59,3.44-2.22,5.18-1.91l-.54,2.45c-.86-.15-1.96.21-2.81,1.15-1.27,1.4-1.18,3.38.28,4.7,1.41,1.28,3.35,1.22,4.81-.4,1-1.1,1.17-2.27.64-3.28l-2.01,2.22-1.66-1.5,3.77-4.16.71.64Z"/><path d="m37.68,20.19c1.13,2.1.48,4.54-1.37,5.53-.94.51-1.81.55-2.56.27l1.87,3.48-2.11,1.13-5.3-9.87,2.11-1.14.36.66c.18-.79.69-1.48,1.64-1.99,1.85-.99,4.24-.19,5.37,1.91Zm-2.11,1.13c-.57-1.06-1.63-1.34-2.6-.82-.97.52-1.32,1.56-.75,2.62.57,1.06,1.63,1.34,2.6.82.97-.52,1.32-1.56.75-2.62Z"/><path d="m46.7,17.25l.99,4.81-2.35.48-.92-4.47c-.2-.97-.91-1.3-1.66-1.14-.86.18-1.35.8-1.12,1.92l.88,4.28-2.35.48-2.26-10.97,2.35-.49.8,3.87c.3-.67,1.01-1.21,2.04-1.42,1.58-.33,3.16.52,3.6,2.64Z"/><path d="m48.53,17.99c.19-2.38,2.22-4.06,4.56-3.87,2.34.19,4.08,2.17,3.89,4.55s-2.22,4.06-4.56,3.87c-2.34-.19-4.08-2.17-3.89-4.55Zm6.06.49c.09-1.13-.65-1.95-1.68-2.03-1.04-.08-1.89.6-1.98,1.74-.09,1.13.65,1.94,1.68,2.03,1.04.08,1.89-.6,1.98-1.73Z"/><path d="m66.15,20.98l-1.75,4.59-2.24-.85,1.62-4.26c.35-.93-.07-1.58-.78-1.86-.82-.31-1.57-.05-1.98,1.01l-1.55,4.08-2.24-.85,2.85-7.48,2.24.85-.27.7c.61-.4,1.5-.47,2.49-.1,1.51.57,2.39,2.14,1.62,4.16Z"/><path d="m69.61,26.94c.53.39,1.13.52,1.59.43l.88,2.03c-1.28.4-2.56.14-3.78-.77-2.19-1.64-2.45-4.13-1.02-6.04,1.43-1.91,3.91-2.35,5.94-.83,1.87,1.4,2.17,3.88.72,5.82-.2.27-.42.51-.65.71l-4.55-3.4c-.25.85.16,1.52.87,2.05Zm2.92-1.45c.35-.9-.02-1.6-.6-2.03-.73-.55-1.49-.55-2.15-.03l2.75,2.06Z"/><path d="m86.13,31.94l-9.44,6.03-1.38-2.16,7.16-4.58-1.53-1.38,1.51-1.71,2.47,1.9,1.21,1.89Z"/><path class="cls-5" d="m60.04,28.14c-6.64-1.4-13.4-1.4-20.04,0-1.98.42-3.93,1.87-4.28,4.5-2.52,19.88-1.64,30.91,1.8,51.01.48,2.65,2.28,5.21,3.96,5.53,5.67,1.1,11.42,1.1,17.08,0,1.68-.33,3.48-2.88,3.96-5.53,3.45-20.09,4.32-31.13,1.8-51.01-.35-2.63-2.3-4.08-4.28-4.5Z"/><path class="cls-6" d="m42.6,56.02c2.23.72,4.75,1.12,7.42,1.12s5.19-.41,7.42-1.12c1.04-.33.96-.69-.13-.69h-14.59c-1.09,0-1.16.36-.13.69Z"/><path class="cls-3" d="m57.77,35.58h-15.49c-1.56,0-2.82,1.48-2.82,3.31v10.57c0,1.82,1.26,3.31,2.82,3.31h15.49c1.56,0,2.82-1.48,2.82-3.31v-10.57c0-1.82-1.26-3.31-2.82-3.31Z"/><path class="cls-2" d="m45.19,63.4c0,.64-.44,1.1-1,1.02-1.29-.19-2.57-.45-3.84-.78-.55-.14-1.02-.79-1.04-1.43-.04-1.24-.07-2.49-.11-3.73-.02-.64.42-1.03.98-.89,1.29.33,2.59.59,3.9.79.57.09,1.04.66,1.05,1.3.02,1.24.03,2.48.05,3.72Z"/><path class="cls-2" d="m52.99,63.58c0,.64-.47,1.2-1.03,1.23-1.29.06-2.59.06-3.88,0-.56-.03-1.02-.59-1.03-1.23,0-1.24-.02-2.47-.03-3.71,0-.64.45-1.12,1.03-1.09,1.31.06,2.63.06,3.94,0,.57-.03,1.03.45,1.03,1.09,0,1.24-.02,2.48-.03,3.71Z"/><path class="cls-2" d="m60.73,62.21c-.02.64-.48,1.29-1.04,1.43-1.27.32-2.55.58-3.84.78-.56.08-1.01-.38-1-1.02.02-1.24.03-2.48.05-3.72,0-.64.48-1.22,1.05-1.3,1.31-.2,2.61-.46,3.9-.79.56-.14,1,.25.99.89-.04,1.24-.07,2.48-.11,3.73Z"/><path class="cls-2" d="m45.29,70.93c0,.64-.43,1.11-.98,1.02-1.26-.19-2.51-.44-3.76-.76-.54-.14-1-.79-1.02-1.43-.04-1.24-.07-2.49-.11-3.73-.02-.64.41-1.04.96-.9,1.27.32,2.54.58,3.82.77.56.08,1.02.66,1.03,1.3.02,1.24.03,2.48.05,3.72Z"/><path class="cls-2" d="m52.93,71.11c0,.64-.46,1.2-1.01,1.22-1.27.06-2.53.06-3.8,0-.55-.03-1-.58-1.01-1.22,0-1.24-.02-2.48-.03-3.71,0-.64.45-1.12,1.01-1.1,1.29.06,2.58.06,3.86,0,.56-.03,1.01.46,1.01,1.1-.01,1.24-.02,2.48-.03,3.71Z"/><path class="cls-2" d="m60.51,69.76c-.02.64-.47,1.29-1.02,1.43-1.25.32-2.5.57-3.76.76-.55.08-.99-.38-.98-1.02.02-1.24.03-2.48.05-3.72,0-.64.47-1.22,1.03-1.3,1.28-.19,2.55-.45,3.82-.77.55-.14.98.25.97.9-.04,1.24-.07,2.49-.11,3.73Z"/><path class="cls-2" d="m45.39,78.46c0,.64-.42,1.11-.96,1.03-1.23-.19-2.46-.44-3.68-.75-.53-.13-.98-.78-1-1.42-.04-1.24-.07-2.49-.11-3.73-.02-.64.4-1.04.94-.9,1.24.31,2.49.57,3.74.76.55.08,1,.66,1.01,1.3.02,1.24.03,2.48.05,3.72Z"/><path class="cls-2" d="m52.87,78.63c0,.64-.45,1.2-.99,1.22-1.24.06-2.48.06-3.72,0-.54-.03-.98-.58-.99-1.22-.01-1.24-.02-2.47-.03-3.71,0-.64.44-1.12.99-1.1,1.26.06,2.52.06,3.78,0,.55-.03.99.46.98,1.1,0,1.24-.02,2.48-.03,3.71Z"/><path class="cls-2" d="m60.29,77.32c-.02.64-.46,1.29-1,1.42-1.22.31-2.45.56-3.68.75-.54.08-.97-.38-.96-1.03.02-1.24.03-2.48.05-3.72,0-.64.46-1.21,1.01-1.3,1.25-.19,2.5-.44,3.74-.76.54-.14.96.26.94.9-.04,1.24-.07,2.48-.11,3.73Z"/><path class="cls-2" d="m52.81,86.16c0,.64-.44,1.2-.97,1.22-1.21.06-2.43.06-3.64,0-.53-.03-.96-.58-.97-1.22,0-1.24-.02-2.47-.03-3.71,0-.64.43-1.13.97-1.1,1.23.06,2.47.06,3.7,0,.54-.03.97.46.96,1.1-.01,1.24-.02,2.47-.03,3.71Z"/><path class="cls-6" d="m48.86,33.77c0,.28-.2.51-.44.51h0c-.24,0-.44-.23-.44-.51v-3.98c0-.28.2-.51.44-.51h0c.24,0,.44.23.44.51v3.98Z"/><path class="cls-6" d="m50.46,33.77c0,.28-.2.51-.44.51h0c-.24,0-.44-.23-.44-.51v-3.98c0-.28.2-.51.44-.51h0c.24,0,.44.23.44.51v3.98Z"/><path class="cls-6" d="m52.06,33.77c0,.28-.2.51-.44.51h0c-.24,0-.44-.23-.44-.51v-3.98c0-.28.2-.51.44-.51h0c.24,0,.44.23.44.51v3.98Z"/><path class="cls-2" d="m52.92,49.42c-.17-.03-.37-.05-.58-.09-.43-.08-.85-.16-1.28-.24-.51-.1-1.02-.2-1.54-.3-.6-.12-1.2-.24-1.8-.36-.09-.02-.18-.04-.27-.07-.22-.09-.29-.26-.2-.47.12-.28.25-.57.38-.85.21-.47.42-.94.64-1.39.15-.31.32-.61.52-.89.38-.52,1.06-.57,1.51-.1.16.17.31.36.44.56.3.46.59.92.88,1.38.48.75.96,1.5,1.44,2.26.04.07.08.14.12.22.09.21,0,.36-.27.36Z"/><path class="cls-7" d="m60.67,84.92c-.18.06-.4.14-.62.21-.47.14-.93.28-1.4.42-.56.17-1.13.34-1.69.5-.66.19-1.32.39-1.98.58-.1.03-.2.06-.3.07-.26.03-.43-.11-.45-.37-.03-.35-.05-.7-.07-1.04-.03-.58-.07-1.15-.08-1.73,0-.39,0-.78.06-1.16.1-.72.76-1.12,1.45-.89.25.08.5.2.73.33.54.3,1.07.61,1.61.92.87.5,1.74,1,2.61,1.5.08.05.16.1.23.15.2.16.18.37-.08.5Z"/><path class="cls-1" d="m39.32,84.92c.18.06.4.14.62.21.47.14.93.28,1.4.42.56.17,1.13.34,1.69.5.66.19,1.32.39,1.98.58.1.03.2.06.3.07.26.03.43-.11.45-.37.03-.35.05-.7.07-1.04.03-.58.07-1.15.08-1.73,0-.39,0-.78-.06-1.16-.1-.72-.76-1.12-1.45-.89-.25.08-.5.2-.73.33-.54.3-1.07.61-1.61.92-.87.5-1.74,1-2.61,1.5-.08.05-.16.1-.23.15-.2.16-.18.37.08.5Z"/><path class="cls-2" d="m53.96,38.56c.07,0,.14,0,.21,0,.19,0,.27.14.18.31-.07.12-.15.24-.24.35-.54.69-1.07,1.38-1.62,2.05-.5.61-1.01,1.22-1.53,1.82-.25.29-.56.52-.94.6-.46.1-.87-.03-1.24-.29-.23-.16-.38-.39-.52-.61-.48-.74-.96-1.48-1.43-2.23-.21-.33-.4-.66-.6-.99-.01-.02-.02-.04-.03-.06-.12-.26-.05-.39.23-.41,1-.08,2-.15,3-.22.88-.06,1.77-.13,2.65-.19.63-.04,1.25-.08,1.88-.12,0,0,0,0,0,0Z"/></svg>