<?xml version="1.0" encoding="UTF-8"?><svg id="Layer_1" xmlns="http://www.w3.org/2000/svg" viewBox="0 0 100 100"><defs><style>.cls-1{fill:#1f2275;}.cls-2{fill:#fff;}.cls-3{fill:#3a926c;}.cls-4{fill:none;stroke:#00b51e;stroke-miterlimit:10;stroke-width:4px;}.cls-5{fill:#ff1d25;}.cls-6{fill:#6665c6;}.cls-7{fill:#ccf2ff;opacity:.54;}</style></defs><circle class="cls-4" cx="50" cy="50" r="45"/><path d="m27.5,24.85c2.54,2.3,2.48,5.46.38,7.79-2.36,2.61-5.98,2.74-8.37.59-2.41-2.18-2.6-5.83-.39-8.27,1.44-1.59,3.44-2.22,5.18-1.91l-.54,2.45c-.86-.15-1.96.21-2.81,1.15-1.27,1.4-1.18,3.38.28,4.7,1.41,1.28,3.35,1.22,4.81-.4,1-1.1,1.17-2.27.64-3.28l-2.01,2.22-1.66-1.5,3.77-4.16.71.64Z"/><path d="m37.68,20.71c1.13,2.1.48,4.54-1.37,5.53-.94.51-1.81.55-2.56.27l1.87,3.48-2.11,1.13-5.3-9.87,2.11-1.14.36.66c.18-.79.7-1.48,1.64-1.99,1.85-.99,4.24-.19,5.37,1.91Zm-2.11,1.13c-.57-1.06-1.63-1.34-2.6-.82-.97.52-1.32,1.56-.75,2.62.57,1.06,1.63,1.34,2.6.82.97-.52,1.32-1.56.75-2.62Z"/><path d="m46.7,17.77l.99,4.81-2.35.49-.92-4.47c-.2-.97-.9-1.3-1.66-1.14-.86.18-1.35.8-1.12,1.91l.88,4.28-2.35.48-2.26-10.97,2.35-.48.8,3.87c.3-.67,1.01-1.21,2.04-1.42,1.58-.33,3.16.52,3.6,2.64Z"/><path d="m48.53,18.51c.19-2.38,2.22-4.06,4.56-3.87,2.34.19,4.08,2.17,3.89,4.55-.19,2.38-2.22,4.06-4.56,3.87-2.34-.19-4.08-2.17-3.89-4.55Zm6.06.48c.09-1.13-.65-1.95-1.68-2.03-1.04-.08-1.89.6-1.98,1.74-.09,1.13.65,1.94,1.68,2.03,1.04.08,1.89-.6,1.98-1.73Z"/><path d="m66.16,21.5l-1.75,4.59-2.24-.85,1.62-4.26c.35-.93-.06-1.58-.78-1.86-.82-.31-1.57-.05-1.98,1.01l-1.55,4.08-2.24-.85,2.84-7.48,2.24.85-.27.7c.61-.4,1.5-.47,2.49-.1,1.51.57,2.39,2.14,1.62,4.16Z"/><path d="m69.61,27.45c.53.39,1.13.52,1.59.43l.88,2.03c-1.28.4-2.56.14-3.78-.77-2.19-1.64-2.45-4.13-1.02-6.04,1.43-1.91,3.92-2.35,5.94-.83,1.87,1.4,2.17,3.88.72,5.82-.2.27-.42.51-.65.71l-4.55-3.4c-.26.85.16,1.52.87,2.05Zm2.92-1.45c.35-.9-.02-1.6-.6-2.03-.73-.54-1.48-.55-2.15-.03l2.76,2.06Z"/><path d="m81.19,39.29c-2.12,1.25-4.2.25-5.3-1.61-.9-1.53-1.04-3.23.03-4.67l2.23,1.25c-.5.59-.65,1.24-.11,2.14.54.91,1.26,1.02,1.85.67.59-.35.84-1.03.34-1.88l-1.78-3.02,5.77-2.87,3.3,5.58-2.07,1.22-2.07-3.51-1.38.68.46.79c1.06,1.79.85,3.96-1.27,5.21Z"/><path class="cls-6" d="m38.58,31h22.99c2.26,0,4.09,1.83,4.09,4.09v49.07c0,2.26-1.83,4.09-4.09,4.09h-22.99c-2.26,0-4.09-1.83-4.09-4.09v-49.07c0-2.26,1.83-4.09,4.09-4.09Z"/><path class="cls-1" d="m61.57,31h-22.99c-2.26,0-4.09,1.83-4.09,4.09v49.07l31.17-49.07c0-2.26-1.83-4.09-4.09-4.09Z"/><path class="cls-3" d="m63.25,80.95h-26.36c-.97,0-1.75-.8-1.75-1.8v-44.19c0-1.08.86-1.96,1.91-1.96h26.19c.97,0,1.75.8,1.75,1.8v44.36c0,.99-.78,1.8-1.75,1.8Z"/><path class="cls-2" d="m52.2,86.38c-.14-.02-.3-.04-.46-.07-.34-.06-.68-.13-1.02-.2-.41-.08-.82-.16-1.23-.24-.48-.1-.96-.19-1.44-.29-.07-.01-.15-.03-.21-.06-.17-.07-.23-.21-.16-.38.1-.23.2-.45.3-.68.17-.37.33-.75.52-1.12.12-.25.26-.49.42-.71.3-.42.85-.46,1.21-.08.13.14.25.29.35.45.24.37.47.74.71,1.11.38.6.77,1.21,1.15,1.81.04.06.07.11.09.17.08.17,0,.29-.22.29Z"/><path class="cls-5" d="m52.41,49.72c-.14-.02-.31-.04-.48-.08-.36-.07-.71-.14-1.07-.2-.43-.08-.86-.17-1.29-.25-.5-.1-1-.2-1.51-.3-.08-.02-.15-.03-.22-.06-.18-.07-.24-.22-.17-.4.1-.24.21-.47.31-.71.18-.39.35-.78.54-1.17.13-.26.27-.51.44-.74.32-.44.88-.48,1.26-.09.14.14.26.31.37.47.25.38.49.77.74,1.16.4.63.8,1.26,1.2,1.89.04.06.07.12.1.18.08.17,0,.3-.23.3Z"/><path class="cls-5" d="m53.28,40.62c.06,0,.12,0,.17,0,.16,0,.23.12.15.26-.06.1-.13.2-.2.29-.45.57-.9,1.15-1.36,1.72-.42.51-.84,1.02-1.28,1.52-.21.24-.47.43-.79.5-.39.08-.72-.02-1.04-.25-.19-.13-.31-.32-.44-.51-.4-.62-.8-1.24-1.2-1.87-.17-.27-.33-.55-.5-.83,0-.02-.02-.03-.03-.05-.1-.21-.04-.33.19-.35.84-.06,1.68-.12,2.52-.19.74-.05,1.48-.11,2.22-.16.52-.04,1.05-.07,1.57-.1,0,0,0,0,0,0Z"/><path d="m46.11,65.85c.6.19,1.08.51,1.45.96.37.46.55,1,.55,1.65,0,1.01-.33,1.78-.99,2.33-.66.54-1.48.82-2.45.82-.78,0-1.47-.18-2.07-.54-.6-.36-1.04-.88-1.31-1.58l2.09-1.19c.2.65.62.98,1.28.98.34,0,.6-.08.78-.24s.27-.38.27-.64-.09-.48-.27-.64-.44-.23-.78-.23h-.51l-.92-1.37,1.5-1.83h-3.15v-2.29h6.09v1.89l-1.57,1.93Z"/><path d="m58.49,66.04v.95c0,1.37-.43,2.49-1.29,3.34-.86.85-1.98,1.28-3.35,1.28-1.46,0-2.67-.47-3.61-1.41-.94-.94-1.41-2.09-1.41-3.47s.47-2.53,1.41-3.48c.94-.95,2.1-1.42,3.48-1.42.88,0,1.68.2,2.4.59.73.39,1.3.92,1.71,1.57l-2.03,1.16c-.19-.29-.46-.53-.82-.71s-.77-.27-1.22-.27c-.74,0-1.35.24-1.82.72-.47.48-.71,1.1-.71,1.85s.23,1.33.7,1.83,1.13.75,1.97.75c1.09,0,1.81-.41,2.16-1.23h-2.28v-2.06h4.72Z"/><path class="cls-7" d="m36.54,78.49c-.44.71-1.54.4-1.54-.44v-43.1c0-1.07.85-1.95,1.89-1.95h26.43c.73,0,1.18.8.79,1.42l-27.57,44.06Z"/><polyline class="cls-1" points="54 35 45.72 35 44 31 55.91 31"/><path class="cls-2" d="m53.28,33.7c0,.31-.25.57-.57.57h-5.28c-.31,0-.57-.25-.57-.57h0c0-.31.25-.57.57-.57h5.28c.31,0,.57.25.57.57h0Z"/></svg>