<?xml version="1.0" encoding="UTF-8"?><svg id="Layer_1" xmlns="http://www.w3.org/2000/svg" viewBox="0 0 100 100"><defs><style>.cls-1{fill:#fafdfc;}.cls-2{fill:#fcfdfd;}.cls-3{fill:none;stroke:#0018c6;stroke-miterlimit:10;stroke-width:4px;}.cls-4{fill:#f9fdfc;}.cls-5{fill:#bbc3c6;}.cls-6{fill:#efc319;}.cls-7{fill:#26b899;}.cls-8{fill:#efc31a;}.cls-9{fill:#b09146;}.cls-10{fill:#94a4a4;}.cls-11{fill:#28b99a;}</style></defs><circle class="cls-3" cx="50" cy="50" r="45"/><path class="cls-7" d="m83.48,40.28v31.23c-.4.95-1.29,1.6-2.32,1.7h-4.61c-.77-.13-1.56-.13-2.34,0h-3.42s-.08-.02-.11,0h0c-.63-.12-1.28-.14-1.92-.05h-4c-.64-.09-1.3-.07-1.93.05h0s-.07-.02-.1,0h-3.44c-.77-.13-1.56-.13-2.34,0h-4.61c-1.54-.06-3.09-.06-4.64,0h-4.61c-.77-.13-1.56-.13-2.34,0h-3.42s-.08-.02-.11,0h0c-.63-.12-1.28-.14-1.92-.05h-9.46v-34.63h54.65c1.41.03,2.44.41,3.01,1.75Zm-45,15.59h0v3.52c-.02,2.54,2.03,4.61,4.56,4.63,2.54.02,4.61-2.03,4.63-4.56v-2.29c0-.89-.43-1.29-1.34-1.31h-1.9c-.84,0-1.37.47-1.36,1.17s.54,1.13,1.39,1.13.94,0,.93.94c.1,1.28-.85,2.4-2.13,2.5-1.28.1-2.4-.85-2.5-2.13,0-.12,0-.24,0-.37v-6.54c-.02-.46.09-.92.31-1.32.63-1.11,2.04-1.5,3.15-.88.72.41,1.17,1.16,1.18,1.99.11.82.57,1.26,1.25,1.21s1.06-.57,1.03-1.4c-.12-2.54-2.28-4.49-4.82-4.37-2.34.11-4.22,1.97-4.36,4.3-.04,1.25,0,2.51,0,3.78Zm23.05-1.61v4.97c-.05,1.58.73,3.08,2.07,3.93,1.37.98,3.18,1.08,4.66.26,1.54-.73,2.52-2.29,2.5-3.99.06-3.44,0-6.89,0-10.33,0-.15-.02-.3-.06-.45-.11-.51-.57-.87-1.1-.85-.52-.02-.97.34-1.07.85-.06.26-.08.53-.07.8v9.74c.07,1.27-.9,2.36-2.17,2.43-1.27.07-2.36-.9-2.43-2.17,0-.09,0-.17,0-.26v-10.16c.04-.52-.28-1-.78-1.16-.47-.18-1-.03-1.29.38-.2.29-.29.64-.25,1v5.03Zm-11.53,1.57v6.86c-.05.59.36,1.13.94,1.23.51.1,1.03-.16,1.24-.64.11-.26.16-.55.15-.84v-4.83c0-.5.15-.65.63-.61.6.04,1.21,0,1.82,0,2.44-.08,4.4-2.05,4.47-4.49.08-2.4-1.72-4.45-4.11-4.68-1.21-.1-2.43-.06-3.63-.06-1.1,0-1.45.4-1.45,1.52l-.07,6.53Zm-20.78-10.95v1.63c-.05.64.43,1.2,1.07,1.25s1.2-.43,1.25-1.07c0-.06,0-.12,0-.18v-1.7c0-.36.1-.5.48-.48h1.7c.64.07,1.21-.39,1.28-1.03s-.39-1.21-1.03-1.28c-.09,0-.17,0-.26,0h-3.2c-.65-.07-1.23.4-1.3,1.05,0,.08,0,.16,0,.25,0,.51,0,1.04,0,1.55Z"/><path class="cls-5" d="m25.82,73.19c0,1.13,0,2.27-.04,3.39.04.94-.49,1.8-1.35,2.18-.78.4-1.73.29-2.4-.28-.64-.51-.99-1.3-.92-2.11v-40.94c0-1.64.2-1.49-1.45-1.45-1.45.04-2.57-.36-3.13-1.81v-1.04c.52-1.42,1.57-1.9,3.01-1.83,1.17.06,2.35,0,3.52,0,1.82,0,2.72.9,2.72,2.73v40.26c0,.31.03.61.04.91Z"/><path class="cls-10" d="m21.1,54.7v15.01h-3c-.64.09-1.27-.23-1.58-.8v-13.47c.38-.53,1.02-.81,1.67-.73.97.01,1.94-.01,2.91-.01Z"/><path class="cls-10" d="m21.1,40.85v9.24h-3c-.64.08-1.26-.23-1.58-.79v-7.71c.39-.53,1.03-.81,1.68-.73.97.01,1.93,0,2.9,0Z"/><path class="cls-2" d="m38.48,55.87v-3.79c.16-2.53,2.34-4.46,4.88-4.3,2.34.15,4.19,2.03,4.3,4.36,0,.83-.35,1.34-1.03,1.4s-1.14-.38-1.25-1.21c-.04-1.28-1.11-2.28-2.38-2.24-.81.03-1.54.47-1.94,1.18-.22.41-.32.86-.31,1.32v6.54c-.1,1.28.85,2.4,2.13,2.5,1.28.1,2.4-.85,2.5-2.13,0-.12,0-.24,0-.37q0-.92-.93-.94c-.93-.01-1.38-.45-1.39-1.15,0-.7.52-1.15,1.36-1.17h1.9c.92,0,1.33.41,1.34,1.31v2.29c-.02,2.54-2.09,4.58-4.63,4.56-2.54-.02-4.58-2.09-4.56-4.63v-3.54Z"/><path class="cls-1" d="m61.54,54.27v-5.03c-.04-.35.05-.7.24-1,.3-.4.83-.56,1.29-.38.5.16.82.64.78,1.16v10.13c-.07,1.27.9,2.36,2.17,2.43,1.27.07,2.36-.9,2.43-2.17,0-.09,0-.17,0-.26v-9.74c-.01-.26.01-.52.07-.77.1-.52.58-.88,1.1-.85.52-.02.99.34,1.1.85.04.15.06.3.06.45v10.33c.02,1.71-.96,3.27-2.5,3.99-1.47.82-3.28.72-4.66-.26-1.34-.85-2.12-2.35-2.07-3.93-.02-1.66,0-3.31,0-4.97Z"/><path class="cls-1" d="m50,55.83v-6.54c0-1.12.38-1.52,1.45-1.52,1.22,0,2.44-.04,3.63.06,2.39.23,4.19,2.28,4.11,4.68-.07,2.44-2.03,4.41-4.47,4.49-.61,0-1.22.04-1.82,0-.49,0-.64.11-.63.61.04,1.61,0,3.22,0,4.83.02.28-.02.57-.13.84-.21.48-.73.74-1.24.64-.59-.1-1-.64-.94-1.23v-5.55l.05-1.3Zm2.33-3.48v1.76c0,.4.07.6.53.57.6-.04,1.21,0,1.82,0,1.26-.01,2.27-1.04,2.26-2.3,0,0,0,0,0,0-.01-1.26-1.03-2.28-2.29-2.3h-1.82c-.41,0-.52.15-.5.53v1.74Z"/><path class="cls-8" d="m47.69,73.23v3.14c.09.71-.4,1.36-1.11,1.45-.11.02-.23.02-.34,0h-3.14v-4.6h4.59Z"/><path class="cls-8" d="m56.93,77.78h-3.27c-.7.03-1.3-.51-1.33-1.21,0-.04,0-.09,0-.13v-3.2h4.61c-.01,1.5-.01,3.03-.01,4.55Z"/><path class="cls-8" d="m81.16,73.23v3.13c.09.71-.4,1.36-1.11,1.45-.11.02-.23.02-.34,0h-3.14v-4.6h4.59Z"/><path class="cls-8" d="m34.98,77.78h-3.26c-.7.03-1.3-.51-1.33-1.21,0-.05,0-.11,0-.16v-3.2h4.59c0,1.52,0,3.04,0,4.56Z"/><path class="cls-4" d="m29.22,44.88v-1.57c-.07-.65.4-1.23,1.05-1.3.09,0,.18,0,.27,0h3.2c.64-.07,1.21.39,1.28,1.03s-.39,1.21-1.03,1.28c-.09,0-.17,0-.26,0h-1.7c-.38,0-.49.12-.48.48v1.7c.05.64-.43,1.2-1.07,1.25s-1.2-.43-1.25-1.07c0-.06,0-.12,0-.18-.04-.53-.03-1.07-.03-1.62Z"/><path class="cls-6" d="m40.75,77.78h-3.44s0-.07,0-.1v-4.5h3.4c0,1.55,0,3.08.04,4.6Z"/><path class="cls-6" d="m62.69,77.78h-3.44v-4.58h3.42v4.58Z"/><path class="cls-6" d="m68.46,77.78h-3.44v-4.58h3.41c.01,1.53.02,3.06.02,4.58Z"/><path class="cls-6" d="m74.23,77.78h-3.44s0-.07,0-.1v-4.5h3.42c0,1.54,0,3.08.01,4.6Z"/><path class="cls-9" d="m59.28,73.21v4.58h-2.32v-4.56c.77-.13,1.55-.14,2.32-.01Z"/><path class="cls-9" d="m40.75,77.78v-4.58c.77-.13,1.56-.13,2.34,0v4.58h-2.34Z"/><path class="cls-9" d="m74.23,77.78c0-1.53,0-3.05,0-4.58.77-.13,1.56-.13,2.34,0v4.58h-2.34Z"/><path class="cls-9" d="m37.29,73.35v4.36l-.1.1h-2.18v-4.58h.3c.64.07,1.28.08,1.92.05h0l.06.07Z"/><path class="cls-9" d="m65.04,73.21v4.58h-2.18l-.1-.1v-4.36l.09-.16h0c.64.03,1.29.02,1.93-.05l.26.09Z"/><path class="cls-9" d="m70.77,73.35v4.36l-.1.1h-2.18v-4.58h.3c.64.07,1.28.08,1.92.05h0l.06.07Z"/><path class="cls-9" d="m37.2,73.22c-.64.03-1.29.02-1.92-.05.64-.09,1.29-.07,1.92.05Z"/><path class="cls-9" d="m64.75,73.17c-.64.07-1.29.08-1.93.05.64-.12,1.29-.14,1.93-.05Z"/><path class="cls-9" d="m70.67,73.22c-.64.03-1.29.02-1.92-.05.64-.09,1.29-.07,1.92.05Z"/><path class="cls-9" d="m70.77,73.35l-.09-.16s.08-.02.11,0l-.02.16Z"/><path class="cls-9" d="m62.8,73.19l-.09.16v-.14s.06-.03.09-.02Z"/><path class="cls-9" d="m37.29,73.35l-.09-.16s.08-.02.11,0l-.02.16Z"/><path class="cls-9" d="m37.19,77.78l.1-.1s0,.07,0,.1h-.1Z"/><path class="cls-9" d="m62.71,77.68l.1.1h-.12l.02-.1Z"/><path class="cls-9" d="m70.67,77.78l.1-.1s0,.07,0,.1h-.1Z"/><path class="cls-11" d="m52.34,52.36v-1.76c0-.38.09-.55.5-.53h1.82c1.26.02,2.28,1.04,2.29,2.3.01,1.26-1,2.29-2.26,2.3,0,0,0,0,0,0h-1.82c-.46,0-.54-.17-.53-.57v-1.74Z"/><path d="m43.44,20.26c1.65,4.18-.26,7.87-4.09,9.37-4.3,1.69-8.63-.26-10.18-4.18-1.56-3.97.34-8.37,4.36-9.95,2.62-1.03,5.33-.61,7.21.77l-2.06,2.57c-.92-.68-2.43-.89-3.97-.29-2.31.91-3.36,3.29-2.41,5.69.92,2.32,3.23,3.38,5.88,2.33,1.82-.71,2.69-1.98,2.67-3.49l-3.65,1.44-1.08-2.74,6.86-2.7.46,1.17Z"/><path d="m57.8,18.08c-.14,2.79-2.5,4.92-5.39,4.77l-2.2-.11-.23,4.62-3.36-.17.75-14.68,5.56.28c2.89.15,5.02,2.51,4.88,5.3Zm-3.36-.17c.05-1.07-.66-1.93-1.69-1.98l-2.2-.11-.19,3.78,2.2.11c1.03.05,1.83-.73,1.88-1.8Z"/><path d="m59.62,23.52l4.17-9.03,3.05,1.41-4.05,8.76c-.47,1.01-.39,2.09,1.23,2.84,1.62.75,2.49.11,2.96-.9l4.05-8.77,3.05,1.41-4.18,9.03c-1.32,2.86-4.32,3.55-7.26,2.19-2.93-1.36-4.35-4.09-3.03-6.95Z"/></svg>