<?xml version="1.0" encoding="UTF-8"?><svg id="Layer_1" xmlns="http://www.w3.org/2000/svg" viewBox="0 0 100 100"><defs><style>.cls-1{fill:#e1dde1;}.cls-2{fill:#cac3cb;}.cls-3{fill:#fedd46;}.cls-4{fill:#f2eff2;}.cls-5{fill:#e7d19a;opacity:.49;}.cls-6{fill:none;stroke:#00b51e;stroke-miterlimit:10;stroke-width:4px;}.cls-7{fill:#cbc4cc;}</style></defs><circle class="cls-6" cx="50" cy="50" r="45"/><path d="m35.27,21.48c1.75,2.69.95,5.54-1.52,7.15-2.76,1.8-6.08,1.06-7.73-1.46-1.66-2.55-.97-5.91,1.62-7.6,1.68-1.1,3.65-1.2,5.16-.5l-1.07,2.09c-.74-.34-1.83-.28-2.82.37-1.48.97-1.88,2.78-.87,4.33.98,1.5,2.74,1.9,4.45.79,1.17-.76,1.6-1.78,1.36-2.83l-2.35,1.53-1.15-1.76,4.41-2.88.49.75Z"/><path d="m39.85,19.79l.81,2.53c.2.62.74.5,1.67.14l.62,1.94c-2.71,1.18-3.79.6-4.43-1.4l-.81-2.53-1.14.37-.66-2.06,1.14-.37-.43-1.36,1.94-1.33.64,2,1.47-.47.66,2.06-1.47.47Z"/><path d="m50.44,15.98l.67,7.47-2.24.2-.06-.7c-.44.61-1.14,1.02-2.14,1.11-1.96.18-3.72-1.4-3.92-3.62-.2-2.23,1.26-4.09,3.22-4.26,1-.09,1.76.19,2.31.71l-.06-.7,2.24-.2Zm-1.91,3.93c-.1-1.12-.91-1.75-1.94-1.66-1.03.09-1.71.86-1.61,1.98.1,1.12.91,1.75,1.94,1.66,1.03-.09,1.71-.86,1.61-1.98Z"/><path d="m60.71,21.38c-.43,2.19-2.35,3.57-4.28,3.2-.99-.19-1.64-.67-2.02-1.33l-.14.69-2.21-.43,2.02-10.31,2.21.43-.71,3.64c.6-.47,1.38-.66,2.37-.47,1.93.38,3.19,2.38,2.76,4.58Zm-2.21-.43c.22-1.1-.38-1.94-1.4-2.14-1.02-.2-1.89.35-2.1,1.45s.38,1.94,1.4,2.14,1.89-.35,2.1-1.45Z"/><path d="m71.39,27.8c-1.26,1.94-3.42,1.96-5.12.86-1.33-.87-2.16-2.24-1.85-3.89l2.39.12c-.17.71-.03,1.31.74,1.81.83.54,1.48.34,1.83-.2.35-.54.27-1.22-.56-1.76l-.41-.27-.02-1.64,2.91-.99-3.22-2.09,1.23-1.89,5.66,3.68-1.06,1.64-2.78.95c.84,1.08,1.06,2.46.27,3.68Z"/><rect class="cls-1" x="26" y="46" width="51" height="35" rx="2.46" ry="2.46"/><path class="cls-3" d="m63.04,75.73c-.96-.03-1.91-.12-2.86-.27-2.97-.45-5.83-1.2-8.52-2.4-3.2-1.43-6.04-3.24-8.43-5.56-3.98-3.84-6.46-8.63-7.08-13.71,0,0,0,0,0,0,.62,5.08,3.09,9.86,7.08,13.7,2.39,2.32,5.22,4.12,8.43,5.56,2.69,1.2,5.55,1.95,8.52,2.4.94.15,1.9.24,2.86.27,4.31.13,8.62.05,12.93.09h.03c0-.23-.02-.45-.02-.68v-26.36c0-1.29-.64-1.83-2.17-1.83h-36.99c-.27,0-.53-.02-.8-.02v.02s0,0,0,.01c-2.16,0-4.32.04-6.47-.03-.04,0-.07,0-.11,0-1.12.03-1.99.81-1.96,1.76.06,3.99.02,7.99.02,11.98v.26c-.02.22.09.29.35.32,1.24.12,2.03.82,2.13,1.76.13,1.36-.83,2.04-1.92,2.26-.49.1-.57.23-.57.59.01,4.03.04,8.06-.01,12.09-.01.92,1.01,1.64,1.94,1.64,14.88,0,29.77,0,44.65,0,.01,0,.02,0,.03,0,1.05,0,1.89-.73,1.88-1.61.01-.71,0-1.43,0-2.14-4.31-.03-8.62.05-12.93-.09Zm-26.89-21.96c-.1-.78-.12-1.57-.12-2.36,0,.79.03,1.58.12,2.36Z"/><path class="cls-4" d="m30.93,35.05h34.31v2.18H30.94v-2.18Z"/><path class="cls-1" d="m30.94,37.23h34.3v2.1H30.93v-2.1Z"/><path class="cls-1" d="m65.23,37.22v-2.18h4.27c.44,0,.82.11,1.06.52.21.55.06,1.11.1,1.67h-5.43Z"/><path class="cls-2" d="m65.23,37.23h5.42c0,.52,0,1.04-.01,1.56-.24.37-.66.57-1.1.54-1.44-.03-2.87-.01-4.31-.01,0-.69,0-1.39,0-2.08Z"/><path class="cls-4" d="m70.65,38.79c0-.52,0-1.04.01-1.56-.05-.56.11-1.12-.1-1.67.72.05,1.45-.09,2.17.1.76.21,1.26.94,1.17,1.73-.08.77-.71,1.36-1.48,1.39-.59.03-1.18,0-1.76,0Z"/><path class="cls-7" d="m30.94,37.23v2.09c-1.39.3-2.42-.46-3.48-1.13-.32-.2-.65-.39-.96-.61s-.37-.49-.03-.71c.43-.28.82-.64,1.33-.76.03.06.04.14.09.18.92.63,1.85,1.19,3.04.95h0Z"/><path class="cls-1" d="m30.94,37.22c-1.19.24-2.13-.32-3.04-.95-.05-.03-.06-.12-.09-.18.9-.76,1.9-1.25,3.13-1.05v2.18Z"/><path d="m54.46,63c-.2-.03-.44-.06-.68-.11-.5-.09-1-.19-1.49-.29-.6-.12-1.2-.23-1.8-.35-.7-.14-1.4-.28-2.1-.42-.11-.02-.21-.04-.31-.08-.25-.1-.34-.3-.24-.56.14-.33.29-.66.44-.99.25-.55.49-1.1.76-1.63.18-.36.38-.71.61-1.04.44-.61,1.24-.66,1.77-.12.19.2.36.43.51.66.35.53.69,1.08,1.04,1.62.56.88,1.12,1.76,1.68,2.64.05.08.1.17.14.25.11.24-.01.43-.32.42Z"/><path d="m55.68,50.29c.08,0,.16,0,.24,0,.22,0,.32.16.22.36-.08.15-.18.28-.28.41-.63.8-1.26,1.61-1.9,2.4-.58.72-1.18,1.43-1.79,2.13-.29.34-.65.61-1.11.71-.54.12-1.01-.03-1.45-.34-.27-.19-.44-.45-.61-.72-.57-.87-1.13-1.74-1.68-2.61-.24-.38-.47-.78-.7-1.16-.01-.02-.03-.04-.04-.07-.15-.3-.06-.46.27-.49,1.17-.09,2.34-.17,3.52-.26,1.04-.08,2.07-.15,3.11-.22.73-.05,1.47-.09,2.2-.14,0,0,0,0,0,0Z"/><path d="m46.85,70.76c.94,0,1.71.27,2.34.82s.93,1.32.93,2.32-.34,1.84-1.01,2.4c-.67.57-1.51.85-2.51.85-.84,0-1.56-.18-2.18-.54-.62-.36-1.07-.9-1.35-1.61l2.13-1.21c.2.66.67,1,1.4,1,.34,0,.61-.08.8-.24.19-.16.28-.37.28-.65s-.09-.5-.28-.65-.44-.23-.76-.23h-3.05l.39-5.6h5.61v2.33h-3.37l-.07,1.02h.68Z"/><path d="m60.61,71.48v.97c0,1.4-.44,2.53-1.31,3.4-.88.87-2.01,1.3-3.41,1.3-1.49,0-2.71-.48-3.67-1.43-.96-.95-1.44-2.13-1.44-3.53s.48-2.58,1.43-3.54c.95-.96,2.13-1.44,3.54-1.44.89,0,1.71.2,2.45.6.74.4,1.32.93,1.74,1.59l-2.07,1.18c-.19-.3-.47-.54-.84-.72-.37-.18-.78-.27-1.25-.27-.75,0-1.37.25-1.85.74-.48.49-.72,1.12-.72,1.88s.24,1.36.72,1.87c.48.51,1.15.76,2.01.76,1.11,0,1.84-.42,2.19-1.25h-2.32v-2.1h4.81Z"/><path class="cls-5" d="m42.69,46.9c.23,0,.45.02.68.02h31.26c1.3,0,1.84.54,1.84,1.83v26.36c0,.23.01.45.02.68h-.03c-3.64-.03-7.28.05-10.93-.08-.81-.03-1.62-.12-2.41-.27-2.51-.45-4.93-1.2-7.2-2.4-2.71-1.43-5.1-3.24-7.12-5.56-3.37-3.84-5.46-8.63-5.98-13.71-.14-1.34-.1-2.7-.12-4.05-.02-.94,0-1.88,0-2.81v-.02Z"/></svg>