<?xml version="1.0" encoding="UTF-8"?><svg id="Layer_1" xmlns="http://www.w3.org/2000/svg" viewBox="0 0 100 100"><defs><style>.cls-1{fill:#565959;}.cls-2{fill:#414343;}.cls-3{fill:none;stroke:#00b51e;stroke-miterlimit:10;stroke-width:4px;}.cls-4{fill:#e6e6e6;}.cls-5{fill:#6e6f6e;}.cls-6{fill:#4b87d4;}.cls-7{fill:#69a6fe;}.cls-8{fill:#29abe2;}.cls-9{fill:#414242;}</style></defs><circle class="cls-3" cx="50" cy="50" r="45"/><path d="m34.92,22.25c1.91,2.84,1.09,5.9-1.51,7.65-2.92,1.96-6.47,1.22-8.26-1.44-1.81-2.7-1.12-6.28,1.61-8.12,1.78-1.2,3.87-1.33,5.49-.61l-1.11,2.25c-.8-.35-1.96-.27-3,.44-1.57,1.05-1.96,2.99-.86,4.63,1.06,1.58,2.96,1.99,4.76.77,1.23-.83,1.68-1.92,1.41-3.03l-2.48,1.67-1.25-1.86,4.66-3.13.54.8Z"/><path d="m39.8,20.48l.86,2.7c.21.66.79.54,1.78.16l.66,2.07c-2.89,1.25-4.04.63-4.72-1.5l-.86-2.7-1.22.39-.7-2.2,1.22-.39-.46-1.45,2.07-1.41.68,2.13,1.57-.5.7,2.19-1.57.5Z"/><path d="m51.25,16.53l.59,7.98-2.39.17-.05-.75c-.48.65-1.24,1.07-2.31,1.15-2.09.15-3.95-1.55-4.12-3.93-.17-2.38,1.42-4.34,3.51-4.49,1.07-.08,1.88.23,2.45.8l-.06-.75,2.39-.18Zm-2.1,4.17c-.09-1.2-.94-1.89-2.04-1.81-1.1.08-1.84.89-1.76,2.09s.94,1.89,2.04,1.81c1.1-.08,1.84-.89,1.76-2.09Z"/><path d="m62.07,22.6c-.53,2.32-2.63,3.73-4.67,3.26-1.04-.24-1.73-.77-2.11-1.48l-.17.73-2.34-.54,2.5-10.92,2.34.54-.88,3.85c.65-.47,1.5-.66,2.54-.42,2.04.47,3.32,2.65,2.78,4.97Zm-2.34-.54c.27-1.17-.34-2.08-1.42-2.33-1.08-.25-2.02.31-2.29,1.48-.27,1.17.34,2.08,1.42,2.33,1.08.25,2.02-.31,2.29-1.48Z"/><path d="m75,21.84l-6.29,9.27-2.12-1.44,4.77-7.03-1.95-.66.71-2.16,3.02.77,1.85,1.26Z"/><path class="cls-1" d="m32.31,87.04c-.03-.13-.15-.11-.24-.14-1.43-.55-2.15-1.6-2.15-3.13v-44.5c0-1.9,1.3-3.26,3.15-3.26,10.52,0,21.04,0,31.56,0,.05,0,.1,0,.15.02,0,.21.2.19.33.25,1.22.58,1.85,1.55,1.87,2.9.01,1.01,0,2.02,0,3.03h-3.09c-2.88,0-5.76-.01-8.64-.02-.2,0-.39.1-.51.25-.52.52-1.03,1.04-1.56,1.55-1.78,1.71-4.59,1.7-6.36-.01-.49-.47-.98-.95-1.45-1.45-.21-.24-.51-.36-.83-.34-3.65.01-7.29.02-10.94,0-.49,0-.6.13-.59.61.01,12.51.01,25.02,0,37.53,0,.5.15.59.61.59,9.92-.01,19.84-.02,29.76-.01.17,0,.33,0,.5-.01h3.09c0,.99.01,1.99,0,2.98-.02,1.36-.62,2.36-1.88,2.95-.12.06-.32.04-.32.26h-32.46Zm14.61-3.89h-2.89c-.61,0-.93.27-.93.78s.31.81.9.81h5.79c.52,0,.98-.37,1-.78s-.47-.81-1.02-.81c-.94,0-1.89,0-2.84,0h0Zm3.06-44.06c-.85,0-1.54.69-1.54,1.54,0,0,0,0,0,0,.03.85.74,1.52,1.59,1.49.82-.03,1.47-.68,1.49-1.5,0-.85-.69-1.54-1.54-1.54,0,0,0,0,0,0h0Zm6.9,44.85c0-.42-.35-.8-.72-.78s-.78.48-.78.85c.02.4.34.72.74.73.42,0,.76-.36.76-.78,0,0,0-.01,0-.02Zm-3.78-.78c-.33-.01-.79.42-.81.76s.44.83.8.82c.34,0,.78-.45.79-.78s-.43-.79-.78-.8h0Z"/><rect class="cls-1" x="46.09" y="38.66" width="6.52" height="3.91"/><path class="cls-9" d="m64.77,87.04c0-.21.19-.2.32-.26,1.25-.59,1.87-1.59,1.88-2.95.01-.99,0-1.99,0-2.98v-38.66c0-1.01.01-2.02,0-3.03-.02-1.35-.65-2.32-1.87-2.9-.12-.06-.32-.03-.33-.25.75,0,1.5-.02,2.25,0,1.64.03,2.97,1.33,3.03,2.97,0,.21,0,.43,0,.65,0,14.48-.02,28.96.02,43.44,0,1.95-.56,3.35-2.51,3.98h-2.8Z"/><path class="cls-8" d="m63.87,80.85c-.17,0-.33.01-.5.01-9.92,0-19.84,0-29.76.01-.46,0-.61-.08-.61-.59.02-12.51.02-25.02,0-37.53,0-.47.1-.61.59-.61,3.65.02,7.29.02,10.94,0,.31-.02,1.27-.4,1.47-.17.46.5.2,1.04,1,2s2.22,1.71,4,0c.53-.5,1.48-1.48,2-2,.13-.16,2.03.17,2.23.17,2.88.01,5.76.02,8.64.02v38.66Z"/><path class="cls-6" d="m63.87,80.85v-38.66h3.09v38.66h-3.09Z"/><path class="cls-5" d="m46.92,83.15h2.84c.55,0,1.03.39,1.02.81s-.48.78-1,.78h-5.79c-.6,0-.91-.29-.9-.81s.32-.78.93-.78c.96,0,1.93,0,2.89,0Z"/><path class="cls-2" d="m56.89,83.94c.02.42-.31.78-.74.8,0,0-.01,0-.02,0-.4-.02-.72-.34-.74-.73,0-.38.41-.84.78-.85s.72.36.72.79Z"/><path class="cls-2" d="m53.1,83.16c.34.01.78.46.77.8s-.45.78-.79.78c-.36,0-.82-.47-.8-.82s.48-.77.81-.76Z"/><path class="cls-4" d="m52.86,39.06c.06,0,.12,0,.18,0,.16,0,.24.12.16.27-.06.11-.13.21-.21.3-.47.59-.93,1.19-1.4,1.78-.43.53-.87,1.06-1.32,1.57-.22.25-.48.45-.82.52-.4.09-.75-.02-1.07-.25-.2-.14-.33-.34-.45-.53-.42-.64-.83-1.28-1.24-1.93-.18-.28-.35-.57-.52-.86,0-.02-.02-.03-.03-.05-.11-.22-.04-.34.2-.36.87-.07,1.73-.13,2.6-.19.77-.06,1.53-.11,2.3-.17.54-.04,1.08-.07,1.63-.1,0,0,0,0,0,0Z"/><path class="cls-7" d="m52.72,59.54c-.16-.03-.36-.05-.55-.09-.41-.08-.81-.15-1.22-.23-.49-.1-.98-.19-1.47-.29-.57-.11-1.15-.23-1.72-.35-.09-.02-.17-.04-.26-.07-.21-.08-.28-.25-.19-.45.11-.27.24-.54.36-.81.2-.45.4-.9.62-1.33.15-.29.31-.58.5-.85.36-.5,1.01-.54,1.44-.1.16.16.29.35.42.54.29.44.57.88.85,1.32.46.72.92,1.44,1.37,2.16.04.07.08.14.11.21.09.2,0,.35-.26.34Z"/><path class="cls-7" d="m53.72,49.15c.07,0,.13,0,.2,0,.18,0,.26.13.18.29-.06.12-.15.23-.23.34-.52.66-1.03,1.32-1.55,1.96-.48.59-.97,1.17-1.46,1.74-.24.28-.53.5-.9.58-.44.1-.83-.03-1.19-.28-.22-.15-.36-.37-.5-.59-.46-.71-.92-1.42-1.37-2.13-.2-.31-.38-.63-.57-.95-.01-.02-.02-.04-.03-.06-.12-.25-.05-.38.22-.4.96-.07,1.92-.14,2.87-.21.85-.06,1.69-.12,2.54-.18.6-.04,1.2-.08,1.8-.11,0,0,0,0,0,0Z"/><path d="m48.31,72.48v2.85h-1.22v1.87h-3.11v-1.87h-5.36v-2.88l3.65-7.48h3.46l-3.69,7.51h1.94v-2.2h3.11v2.2h1.22Z"/><path d="m61.54,70.2v1.24c0,1.79-.56,3.25-1.69,4.36-1.12,1.11-2.58,1.67-4.38,1.67-1.91,0-3.48-.61-4.71-1.83s-1.84-2.73-1.84-4.52.61-3.31,1.83-4.54,2.74-1.85,4.54-1.85c1.14,0,2.19.26,3.13.77s1.69,1.19,2.23,2.04l-2.66,1.52c-.24-.38-.6-.69-1.07-.93-.47-.23-1-.35-1.6-.35-.97,0-1.76.31-2.38.94s-.93,1.43-.93,2.41.31,1.74.92,2.39c.61.65,1.47.98,2.58.98,1.42,0,2.36-.54,2.81-1.61h-2.97v-2.69h6.17Z"/></svg>