<?xml version="1.0" encoding="UTF-8"?><svg id="Layer_1" xmlns="http://www.w3.org/2000/svg" viewBox="0 0 100 100"><defs><style>.cls-1{fill:#bbeb6c;}.cls-2{fill:#c7eefd;}.cls-3{fill:#6c7fd7;}.cls-4{fill:none;stroke:#0018c6;stroke-miterlimit:10;stroke-width:4px;}.cls-5{fill:#4f66cf;}.cls-6{fill:#c9f674;}.cls-7{fill:#e9f5fe;}.cls-8{fill:#8e9da9;}.cls-9{fill:#99e4fb;}.cls-10{fill:#a6e9f7;}.cls-11{fill:#ec6363;}</style></defs><circle class="cls-4" cx="50" cy="50" r="45"/><path class="cls-5" d="m66.84,34.5l.19-.03c2.02.11,3.78.76,5.02,2.46.74,1.02,1.14,2.14,1.14,3.42,0,2.33,0,4.65,0,6.98,0,3.93,0,7.85,0,11.78,0,6.31-.01,12.62-.02,18.93,0,2.78-1.74,5.01-4.41,5.71-.56.15-1.16.18-1.74.26l-.19-.03c-.1-.13-.19-.13-.29,0h-1.18c.05-.37.39-.33.62-.41,2.05-.74,3.65-2.98,3.65-5.15,0-12.79,0-25.57,0-38.36,0-2.17-1.59-4.39-3.65-5.14-.23-.08-.57-.04-.62-.41.39,0,.78,0,1.18,0,.1.13.19.13.29,0Z"/><path class="cls-3" d="m65.38,34.5c.05.37.4.32.62.41,2.05.75,3.64,2.96,3.65,5.14,0,12.79,0,25.57,0,38.36,0,2.17-1.6,4.41-3.65,5.15-.23.08-.57.04-.62.41l-2.06.02c-9.86,0-19.73,0-29.59,0-.17,0-.34.02-.51.02-.56-.08-1.12-.12-1.67-.25-2.79-.67-4.5-2.93-4.5-5.93,0-10.01,0-20.02,0-30.03,0-2.38,0-4.76,0-7.14.02-3.42,2.11-5.71,5.52-6.06.22-.02.43-.08.65-.12.66,0,1.32.02,1.99.02,9.37,0,18.75,0,28.12,0l2.06.02Zm3.24,20.46c0-4.58.01-9.16,0-13.74,0-1.16-.91-2.12-2.07-2.16-1.07-.03-2.15.02-3.23.03-.15,0-.29-.02-.44-.02-9.57,0-19.13,0-28.7,0-.15,0-.3,0-.44.01-1.35.16-2.18.99-2.21,2.31-.03,1.52.01,3.04.02,4.56-.09.79-.09,1.59,0,2.38-.04,2.21-.09,4.42.03,6.63-.02.19-.07.39-.07.58,0,7.09,0,14.19,0,21.28,0,1.65.96,2.56,2.64,2.56,7.14,0,14.29,0,21.43,0,2.58,0,5.15-.01,7.73-.02.88.01,1.76.03,2.65.03,1.89,0,2.68-.78,2.68-2.67,0-5.4,0-10.8,0-16.19,0-1.86-.02-3.73-.03-5.59h0Z"/><path class="cls-3" d="m66.55,83.96c.1-.13.19-.13.29,0h-.29Z"/><path class="cls-3" d="m66.84,34.5c-.1.13-.19.13-.29,0h.29Z"/><path class="cls-7" d="m63.31,79.38c-2.58,0-5.15.02-7.73.02-7.14,0-14.29,0-21.43,0-1.68,0-2.64-.91-2.64-2.56,0-7.09-.01-14.19,0-21.28,0-.19.04-.39.07-.58h33.35c0,7.15-.02,14.31.03,21.48.01,1.38-.28,2.41-1.65,2.93Zm-6.92-14.68c-.93,0-1.86-.02-2.79-.01-1.31.01-2.21.84-2.24,2.03-.03,1.24.82,2.14,2.16,2.19,1.05.04,2.11,0,3.16,0,1.08,0,2.15.05,3.23.02,1.25-.04,2.09-.98,2.07-2.2-.02-1.15-.93-2.04-2.14-2.05-1.15,0-2.3.01-3.45.02h0Zm-13.45-5.2c-.76,0-1.52,0-2.28,0-.91,0-1.22.27-1.38,1.18-.3,1.81-.57,3.63-.91,5.43-.11.57-.03,1.01.41,1.38s.91.28,1.38.05c.78-.4,1.61-.42,2.44-.35,1.58.13,2.82,1.77,2.51,3.29-.3,1.48-1.32,2.43-2.68,2.48-1.6.06-2.65-.72-3.08-2.28-.26-.94-.74-1.31-1.48-1.12-.64.16-.92.77-.75,1.61.54,2.69,3.4,4.6,6.03,4.03,2.98-.65,4.83-3.42,4.17-6.25-.63-2.68-2.96-4.34-5.82-4.07-.57.05-.61-.07-.5-.56.16-.69.28-1.39.35-2.1.04-.4.22-.48.57-.47,1.15.01,2.31.02,3.46,0,.77-.01,1.17-.41,1.17-1.11,0-.71-.39-1.1-1.17-1.12-.81-.02-1.62,0-2.43,0h0Zm12.55-.27c-.93,0-1.86,0-2.79,0-.78,0-1.29.45-1.31,1.1-.01.62.52,1.2,1.23,1.21,1.89.03,3.77.03,5.66,0,.79-.01,1.21-.5,1.2-1.2-.01-.69-.47-1.1-1.27-1.11-.91,0-1.81,0-2.72,0h0Zm1.47,14.93c0,.6.62,1.26,1.19,1.26.59,0,1.31-.71,1.29-1.28-.02-.62-.62-1.21-1.24-1.21-.75,0-1.24.48-1.24,1.23h0Zm-2.94-.03c0-.7-.49-1.2-1.19-1.19-.69,0-1.17.5-1.18,1.22,0,.7.49,1.25,1.16,1.26.68.02,1.21-.54,1.21-1.29h0Z"/><path class="cls-2" d="m64.93,54.97H31.58c-.11-2.2-.06-4.41-.03-6.62.88,0,1.78-.1,2.65,0,1.66.19,2.94-.2,3.6-1.88.22-.57.47-.4.71,0,.84,1.41,1.72,2.79,2.54,4.21.31.53.63.93,1.3.88.65-.05.88-.52,1.1-1.04.53-1.25,1.08-2.5,1.67-3.83.29.43.55.75.76,1.1.27.48.66.68,1.21.68,3.61-.01,7.22-.02,10.82-.02.56.54,1.13,1.08,1.68,1.63.43.44.83.43,1.26,0,.84-.85,1.7-1.69,2.54-2.54.77-.79.89-1.66.37-2.45-.45-.7-1.45-1.02-2.35-.62-.83.37-1.57.31-2.4.02-1.55-.54-2.53.14-2.66,1.77-2.65,0-5.29-.02-7.94.02-.62,0-.99-.19-1.29-.71-.34-.59-.77-1.13-1.13-1.72-.3-.5-.7-.75-1.27-.67-.55.07-.81.46-1.01.95-.5,1.24-1.05,2.46-1.62,3.79-.21-.33-.36-.54-.5-.76-.8-1.31-1.59-2.64-2.42-3.93-.52-.83-1.41-.82-1.95-.02-.52.77-1.04,1.54-1.52,2.33-.19.32-.4.44-.76.44-1.13-.02-2.25-.02-3.38-.02-.01-1.52-.05-3.04-.02-4.56.03-1.32.86-2.16,2.21-2.31.15-.02.29-.01.44-.01h28.7c.15,0,.29.01.44.02,1.31.51,1.66,1.49,1.64,2.85-.07,4.34-.02,8.67-.02,13.01h0Z"/><path class="cls-2" d="m63.31,79.38c1.36-.52,1.66-1.55,1.65-2.93-.06-7.16-.03-14.33-.03-21.49h0s3.68,0,3.68,0c0,1.86.03,3.73.03,5.59,0,5.4,0,10.8,0,16.19,0,1.89-.79,2.67-2.68,2.67-.88,0-1.76-.02-2.65-.03Z"/><path class="cls-9" d="m57.9,48.47c-3.61,0-7.22.01-10.82.02-.54,0-.93-.2-1.21-.68-.2-.35-.46-.68-.76-1.1-.58,1.34-1.13,2.58-1.67,3.83-.22.51-.45.99-1.1,1.04-.67.05-.99-.35-1.3-.88-.82-1.42-1.69-2.81-2.54-4.21-.24-.41-.49-.57-.71,0-.66,1.68-1.94,2.07-3.6,1.88-.87-.1-1.76,0-2.65,0-.09-.79-.09-1.59,0-2.39,1.13,0,2.25,0,3.38.02.36,0,.57-.12.76-.44.48-.79,1-1.56,1.52-2.33.55-.8,1.43-.81,1.95.02.83,1.3,1.61,2.62,2.42,3.93.14.22.28.44.5.76.58-1.34,1.12-2.56,1.62-3.79.2-.49.46-.87,1.01-.95.57-.08.98.17,1.27.67.35.59.78,1.12,1.13,1.72.3.52.67.72,1.29.71,2.65-.04,5.29-.02,7.94-.02.12,1.02,1.02,1.48,1.56,2.2Z"/><path class="cls-10" d="m68.61,54.96h-3.68c0-4.34-.05-8.68.02-13.02.02-1.36-.33-2.34-1.64-2.85,1.08-.01,2.15-.06,3.23-.03,1.16.04,2.07,1,2.07,2.16,0,4.58,0,9.16,0,13.74Z"/><path class="cls-8" d="m42.95,59.51c.81,0,1.62-.01,2.43,0,.78.02,1.17.41,1.17,1.12,0,.71-.4,1.1-1.17,1.11-1.15.02-2.31.01-3.46,0-.35,0-.53.07-.57.47-.07.71-.19,1.41-.35,2.1-.11.49-.06.61.5.56,2.86-.26,5.2,1.39,5.82,4.07.66,2.83-1.18,5.61-4.17,6.25-2.63.57-5.49-1.34-6.03-4.03-.17-.84.11-1.45.75-1.61.74-.19,1.22.18,1.48,1.12.43,1.56,1.49,2.34,3.08,2.28,1.36-.05,2.38-1,2.68-2.48.3-1.52-.93-3.16-2.51-3.29-.83-.07-1.67-.05-2.44.35-.46.24-.93.32-1.38-.05s-.51-.81-.41-1.38c.34-1.8.61-3.62.91-5.43.15-.91.46-1.17,1.38-1.18.76,0,1.52,0,2.28,0Z"/><path class="cls-6" d="m56.68,68.92c-1.05,0-2.11.05-3.16,0-1.33-.05-2.19-.95-2.16-2.19.03-1.19.92-2.02,2.24-2.03.93-.01,1.86,0,2.79.01.1.07.19.14.3.2,1.49.86,1.61,2.56.26,3.61-.14.11-.27.21-.27.4Z"/><path class="cls-8" d="m55.5,59.24c.91,0,1.81,0,2.72,0,.8,0,1.26.42,1.27,1.11.01.7-.41,1.19-1.2,1.2-1.89.03-3.77.03-5.66,0-.71-.01-1.25-.59-1.23-1.21.02-.65.53-1.09,1.31-1.1.93-.01,1.86,0,2.79,0Z"/><path class="cls-1" d="m56.68,68.92c0-.19.13-.29.27-.4,1.35-1.05,1.22-2.74-.26-3.61-.1-.06-.2-.13-.3-.2,1.15,0,2.3-.03,3.45-.02,1.2,0,2.12.9,2.14,2.05.02,1.22-.83,2.15-2.07,2.2-1.07.04-2.15,0-3.23-.02Z"/><path class="cls-9" d="m56.97,74.16c0-.75.49-1.23,1.24-1.23.61,0,1.21.59,1.24,1.21.02.56-.7,1.28-1.29,1.28-.57,0-1.19-.66-1.19-1.26Z"/><path class="cls-9" d="m54.04,74.13c0,.75-.53,1.31-1.21,1.29-.67-.02-1.17-.56-1.16-1.26,0-.73.49-1.22,1.18-1.22.7,0,1.19.49,1.19,1.19Z"/><path class="cls-11" d="m57.9,48.47c-.54-.72-1.44-1.18-1.56-2.2.14-1.63,1.12-2.31,2.66-1.77.82.29,1.57.35,2.4-.02.9-.4,1.9-.07,2.35.62.52.79.4,1.67-.37,2.45-.84.86-1.7,1.69-2.54,2.54-.43.44-.82.44-1.26,0-.55-.56-1.12-1.09-1.68-1.63Z"/><path d="m8.88,45.4l11.19.48-.11,2.56-4.44-.19-.15,3.52,4.44.19-.11,2.56-11.19-.48.11-2.56,4.28.18.15-3.52-4.28-.18.11-2.56Z"/><path d="m19.91,40.38c.22-.62.17-1.23-.06-1.65l1.69-1.44c.76,1.1.89,2.41.38,3.84-.92,2.58-3.22,3.55-5.47,2.75-2.24-.8-3.39-3.05-2.54-5.43.79-2.2,3.07-3.22,5.34-2.4.32.11.61.25.87.41l-1.91,5.35c.89,0,1.4-.6,1.7-1.43Zm-2.25-2.37c-.96-.07-1.52.49-1.76,1.17-.31.86-.09,1.58.6,2.07l1.16-3.24Z"/><path d="m21.65,25.58l6.46,4.72-1.42,1.94-.61-.44c.18.78.01,1.63-.62,2.5-1.23,1.69-3.74,2-5.67.6-1.92-1.41-2.39-3.89-1.16-5.58.63-.87,1.39-1.28,2.19-1.35l-.61-.44,1.42-1.94Zm1.82,4.3c-.97-.71-2.05-.5-2.7.39-.65.89-.51,1.98.45,2.69.97.71,2.05.5,2.7-.39s.52-1.98-.45-2.69Z"/><path d="m21.37,20.91l1.79-1.6,7.77,8.72-1.79,1.6-7.77-8.72Z"/><path d="m31.4,20.74l1.53,2.38c.37.58.9.31,1.76-.31l1.18,1.83c-2.46,1.97-3.74,1.66-4.95-.22l-1.53-2.38-1.08.69-1.25-1.94,1.08-.69-.82-1.28,1.63-1.9,1.21,1.88,1.38-.89,1.25,1.94-1.38.89Z"/><path d="m42.08,16.97l1.64,4.63-2.26.8-1.52-4.3c-.33-.94-1.07-1.17-1.8-.91-.83.29-1.23.98-.85,2.05l1.46,4.12-2.26.8-3.74-10.56,2.26-.8,1.32,3.73c.21-.7.83-1.33,1.83-1.68,1.52-.54,3.21.09,3.93,2.12Z"/><path d="m60.64,17.28l-.61,4.87-2.38-.3.59-4.67c.1-.79-.22-1.35-.98-1.45-.79-.1-1.31.4-1.43,1.34l-.56,4.48-2.38-.3.59-4.67c.1-.79-.22-1.35-.98-1.45-.79-.1-1.31.4-1.43,1.34l-.56,4.48-2.38-.3,1-7.94,2.38.3-.09.73c.43-.49,1.18-.82,2.25-.68.94.12,1.59.59,1.95,1.31.53-.58,1.31-.9,2.43-.76,1.83.23,2.85,1.68,2.6,3.67Z"/><path d="m62.13,19.01c1.09-2.12,3.61-2.89,5.7-1.82,2.09,1.08,2.93,3.58,1.84,5.7-1.09,2.12-3.61,2.89-5.71,1.82-2.09-1.08-2.93-3.58-1.84-5.7Zm5.41,2.78c.52-1.01.15-2.05-.77-2.52-.92-.48-1.98-.17-2.5.84-.52,1.01-.15,2.05.77,2.52.92.48,1.98.17,2.5-.84Z"/><path d="m77.25,28.56l-3.37,3.57-1.75-1.65,3.13-3.32c.68-.72.54-1.49-.01-2.01-.64-.6-1.43-.65-2.21.18l-3,3.18-1.75-1.65,5.49-5.82,1.74,1.65-.52.55c.72-.13,1.57.14,2.33.86,1.17,1.11,1.38,2.89-.1,4.46Z"/><path d="m80.95,28.56l1.37,1.97-6.56,4.58-1.38-1.97,6.56-4.58Zm1.62-1.42c.64-.45,1.56-.29,2,.36.45.64.29,1.56-.36,2.01-.64.45-1.56.29-2-.35-.45-.64-.29-1.56.36-2.01Z"/><path d="m82.96,36.44l-2.55,1.24c-.62.3-.42.86.1,1.78l-1.96.95c-1.66-2.68-1.21-3.91.8-4.89l2.55-1.24-.56-1.15,2.07-1.01.56,1.15,1.37-.67,1.7,1.84-2.01.98.72,1.48-2.07,1.01-.72-1.48Z"/><path d="m82.71,39.63c2.32-.53,4.54.89,5.07,3.18s-.84,4.54-3.16,5.08c-2.32.53-4.54-.89-5.07-3.18-.53-2.29.84-4.54,3.16-5.08Zm1.36,5.92c1.11-.25,1.66-1.2,1.43-2.22-.23-1.01-1.14-1.62-2.25-1.37-1.11.25-1.66,1.2-1.43,2.22.23,1.01,1.14,1.62,2.25,1.37Z"/><path d="m88.7,54.38h-2.72c.16-1-.23-2.41-1.82-2.41h-3.62s0-2.41,0-2.41l8,.03v2.4s-1.43,0-1.43,0c1.07.32,1.58,1.4,1.58,2.41Z"/><path d="m81.63,61.29c-1.8-.37-2.25-2.09-1.91-3.78.32-1.57,1.16-2.64,2.55-2.99l.75,2.27c-.64.08-1.05.46-1.19,1.15-.12.56,0,.88.31.94.86.18,1.19-3.77,3.9-3.22,1.71.35,2.28,1.96,1.95,3.59-.26,1.27-1.05,2.28-2.3,2.72l-.67-2.23c.45-.14.8-.39.9-.91.08-.41-.02-.69-.31-.75-.89-.18-1.08,3.8-3.98,3.21Z"/></svg>