<?xml version="1.0" encoding="UTF-8"?><svg id="Layer_1" xmlns="http://www.w3.org/2000/svg" viewBox="0 0 100 100"><defs><style>.cls-1{fill:none;stroke:#a5262d;stroke-miterlimit:10;stroke-width:4px;}.cls-2{fill:#4d4d4d;}.cls-3{fill:#f2f2f2;}</style></defs><circle class="cls-1" cx="50" cy="50" r="45"/><path d="m32.56,25.99l1.89,2.04-5.43,5.03-8.58-9.27,2.12-1.96,6.69,7.23,3.31-3.06Z"/><path d="m29,18.23c-.45-.76-.2-1.77.56-2.23.76-.45,1.77-.2,2.23.56.45.76.2,1.77-.56,2.23-.76.45-1.77.2-2.22-.56Zm1.47,1.94l2.32-1.39,4.62,7.75-2.32,1.39-4.62-7.74Z"/><path d="m39.65,18.6l1.1,3c.27.73.92.56,2.01.09l.85,2.3c-3.19,1.56-4.52.92-5.4-1.45l-1.1-3-1.35.5-.9-2.44,1.35-.5-.59-1.61,2.26-1.7.87,2.37,1.74-.64.9,2.44-1.74.64Z"/><path d="m52.5,17.4l.46,5.52-2.7.22-.42-5.12c-.09-1.11-.84-1.58-1.7-1.51-.99.08-1.62.71-1.52,1.99l.41,4.91-2.7.22-1.04-12.58,2.7-.22.37,4.44c.43-.71,1.29-1.21,2.48-1.31,1.82-.15,3.47,1.02,3.67,3.44Z"/><path d="m55.5,14.41l2.67.42-1.39,8.91-2.67-.42,1.39-8.9Zm.11-2.43c.14-.87.98-1.49,1.85-1.35.87.14,1.49.98,1.35,1.85s-.98,1.49-1.85,1.35c-.87-.14-1.49-.98-1.35-1.85Z"/><path d="m69.44,18.7l-3.46,8.32-2.5-1.04.33-.78c-.71.43-1.7.48-2.8.03-1.68-.7-2.61-2.49-1.68-4.74l2.12-5.11,2.5,1.04-1.97,4.74c-.43,1.03.02,1.78.82,2.12.92.38,1.77.11,2.26-1.07l1.89-4.54,2.5,1.04Z"/><path d="m80.4,33.02l-3.98,3.85-1.88-1.95,3.81-3.68c.65-.63.76-1.34.16-1.96-.63-.65-1.43-.57-2.2.17l-3.66,3.53-1.88-1.95,3.81-3.68c.65-.63.76-1.34.16-1.96-.63-.65-1.43-.57-2.2.17l-3.66,3.53-1.88-1.95,6.49-6.26,1.88,1.95-.6.58c.73-.13,1.62.12,2.46.99.74.77.98,1.64.78,2.53.87-.14,1.78.13,2.67,1.05,1.44,1.49,1.32,3.49-.31,5.06Z"/><rect class="cls-2" x="23" y="40" width="52" height="37" rx="2.88" ry="2.88"/><path class="cls-3" d="m44.24,64.48h8.14v5.84h-14.19v-23.64h6.05v17.8Z"/><path class="cls-3" d="m59.42,51.09c-.64.64-1.4.96-2.28.96s-1.64-.32-2.28-.96c-.64-.64-.96-1.4-.96-2.28s.32-1.63.96-2.26c.64-.63,1.4-.95,2.28-.95s1.64.32,2.28.95c.64.63.96,1.38.96,2.26s-.32,1.64-.96,2.28Zm-5.08,19.23v-16.89h5.61v16.89h-5.61Z"/></svg>