<?xml version="1.0" encoding="UTF-8"?><svg id="Layer_1" xmlns="http://www.w3.org/2000/svg" viewBox="0 0 100 100"><defs><style>.cls-1{fill:#009245;}.cls-2{fill:#57575e;}.cls-3{fill:#d9d9ea;}.cls-4{fill:#eb917f;}.cls-5{fill:#48459c;}.cls-6{fill:#434348;}.cls-7{fill:#f3bd99;}.cls-8{fill:none;stroke:#c000e2;stroke-miterlimit:10;stroke-width:4px;}.cls-9{fill:#3392f5;}.cls-10{fill:#f4bd99;}.cls-11{fill:#424248;}.cls-12{fill:#97d6e5;}.cls-13{fill:#3392f6;}.cls-14{fill:#9dd8e6;}.cls-15{fill:#60acfd;}.cls-16{fill:#067fa6;}</style></defs><path class="cls-10" d="m27.66,74.91c.46-.44.92-.88,1.37-1.33,2.26-2.25,4.49-4.52,6.77-6.76,1.65-1.67,4.34-1.69,6.01-.04.56.55.95,1.24,1.14,2,.15.62.17,1.27.06,1.9-.26.94-.77,1.8-1.48,2.47-1.95,1.92-3.87,3.87-5.82,5.79-.28.28-.26.43,0,.71,1.04,1.11,1.78,2.46,2.16,3.92h-13.23c-.17,0-.41.05-.4-.24.05-1.25-.14-2.51.18-3.75.29-1.18.89-2.25,1.75-3.12l1.5-1.54Z"/><path class="cls-7" d="m60.28,72.71c-1.42-.64-2.11-2.66-1.41-4.24.54-1.34,1.87-2.18,3.31-2.11h8.44c1.87.2,2.99,1.14,3.39,2.82-.15,0-.17.12-.22.23-.36.88-1.07,1.57-1.96,1.91-.58.2-1.2.29-1.82.26h-8.44c-1.05-.01-1.17.1-1.29,1.12Z"/><path class="cls-10" d="m60.32,79.64c-1.63-.92-2.22-2.98-1.3-4.61.47-.83,1.27-1.43,2.2-1.65.36-.09.72-.15,1.08-.17h8.81c.71.2,1.37.55,1.94,1.03.48.49.81,1.1.96,1.77-.09.04-.17.12-.2.22-.71,1.65-2.05,2.21-3.75,2.2h-8.55c-1,.02-1.2.22-1.19,1.23Z"/><path class="cls-10" d="m58.6,83.56c0-1.58,1.08-2.96,2.62-3.32.23-.05.46-.08.69-.1,3.13-.05,6.27.12,9.4-.09,0,.2.16.17.28.21,1.21.35,2.13,1.34,2.4,2.57.16.66.09.76-.59.76h-14.25c-.18-.02-.36-.03-.55-.03Z"/><path class="cls-16" d="m37.85,83.56c-.38-1.47-1.13-2.82-2.16-3.92-.26-.28-.28-.43,0-.71,1.95-1.92,3.87-3.87,5.82-5.79.71-.67,1.23-1.52,1.48-2.47.62,1.52.27,3.27-.87,4.45-1.27,1.29-2.56,2.57-3.85,3.84-.26.26-.27.39,0,.66,1.05,1.11,1.8,2.47,2.21,3.94h-2.63Z"/><path class="cls-4" d="m71.31,80.05c-3.13.21-6.27.04-9.4.09-.23.02-.46.05-.69.1-.25-.2-.63-.22-.81-.51l-.09-.07h0c0-1.03.19-1.21,1.19-1.21h8.55c1.7,0,3.04-.54,3.75-2.2.03-.1.11-.17.2-.22.22,1.97-.68,3.45-2.41,3.98-.1.02-.19.03-.29.04Z"/><path class="cls-4" d="m71.11,73.2h-8.81c-.37.03-.73.09-1.08.17-.24-.24-.65-.22-.81-.56l-.12-.12h0c.12-1.03.25-1.14,1.29-1.14h8.44c.62.03,1.23-.05,1.82-.26.89-.34,1.59-1.03,1.96-1.91.05-.11.06-.23.22-.23.35,1.78-.74,3.52-2.5,3.98-.12.04-.27.04-.41.06Z"/><path class="cls-12" d="m60.27,45.75h-3.82c-.34,0-.46-.09-.46-.45q0-1.33,1.29-1.33h6.89c.36,0,.51.09.48.47q0,1.3-1.31,1.3h-3.07Z"/><path class="cls-14" d="m63.33,40.55h3.42c.31,0,.44.07.44.42,0,1.36.03,1.36-1.31,1.36h-5.93c-.37,0-.51-.08-.51-.51q0-1.27,1.24-1.27h2.65Z"/><path class="cls-14" d="m55.99,41.38q0-.83.82-.83t.9.89c0,.89,0,.87-.88.87-1,0-.81.09-.84-.93Z"/><path class="cls-7" d="m60.29,72.7l.12.12-.12-.12Z"/><path class="cls-10" d="m60.32,79.64l.09.07-.09-.07Z"/><path class="cls-1" d="m67.04,36.28H31.23c-.44-.01-.87.05-1.28.18-1.43.5-2.36,1.87-2.29,3.38v35.06c.46-.44.92-.88,1.37-1.33,2.26-2.25,4.49-4.51,6.75-6.76.55-.56,1.24-.95,2-1.14,2.28-.57,4.58.82,5.15,3.09.15.62.17,1.27.06,1.9.61,1.53.26,3.27-.89,4.45-1.27,1.29-2.55,2.57-3.85,3.84-.25.26-.26.39,0,.66,1.05,1.11,1.8,2.47,2.21,3.94h18.14c-.02-1.6,1.07-2.99,2.62-3.36-.25-.18-.63-.21-.81-.51l-.09-.07c-.83-.47-1.43-1.27-1.65-2.2-.42-1.82.72-3.64,2.55-4.06-.24-.24-.65-.22-.81-.56l-.12-.12c-1.41-.64-2.11-2.66-1.41-4.24.54-1.34,1.87-2.18,3.31-2.11h8.44v-26.45c0-2.16-1.43-3.6-3.6-3.6Zm-11.05,5.1q0-.83.82-.83c.9,0,.9.03.9.89s0,.87-.88.87c-1,0-.84.09-.84-.93Zm7.35,4.38h-3.08c-1.27,0-2.54-.01-3.81,0-.34,0-.46-.09-.46-.45,0-1.33-.02-1.33,1.29-1.33h6.89c.36,0,.48.09.48.47,0,1.3.01,1.3-1.31,1.3Zm2.52-3.42h-5.93c-.36,0-.51-.1-.51-.51.02-1.27,0-1.27,1.24-1.27h2.67c1.14,0,2.28,0,3.41.01.31,0,.44.07.44.42.02,1.36.03,1.36-1.31,1.36Z"/><path class="cls-3" d="m47.04,47.67v.06c-.07.01-.06.07-.06.12-.01.14-.02.27-.04.41-.14.93-.41,1.82-.87,2.65-.39.71-.89,1.37-1.48,1.93-.62.6-1.35,1.09-2.13,1.45-.66.31-1.35.51-2.07.62-.22.03-.44.06-.65.09h-1.03c-.17-.05-.36-.04-.54-.07-1.02-.15-2.01-.49-2.91-1.02-.73-.43-1.39-.97-1.94-1.61-.53-.62-.97-1.32-1.28-2.07-.28-.67-.47-1.37-.56-2.09-.02-.15,0-.3-.05-.45v-.97s.03-.09.03-.14c0-.22.03-.44.08-.66.14-.86.43-1.69.85-2.45.39-.7.89-1.34,1.47-1.9,1.67-1.61,3.98-2.37,6.28-2.09.87.1,1.72.35,2.51.74,1.71.85,3.06,2.29,3.79,4.06.26.64.44,1.32.52,2.01.04.41.06.82.06,1.23,0,.05-.02.11.03.16Zm-6.5,6.25c.31-.03.6-.13.89-.22,3.23-1.08,5.21-4.51,4.49-7.85-.53-2.43-1.99-4.11-4.29-5.04-.35-.14-.71-.26-1.09-.3-.05-.04-.12-.04-.18-.05-.57-.09-1.14-.12-1.71-.07-1.08.09-2.1.39-3,.98-2.42,1.58-3.52,3.83-3.21,6.71.21,1.95,1.19,3.51,2.77,4.67,1.31.96,2.8,1.37,4.42,1.3.31-.01.62-.03.92-.14Z"/><path class="cls-2" d="m40.54,53.91c-.3.1-.61.12-.92.14-1.62.07-3.1-.33-4.42-1.3-1.58-1.16-2.55-2.72-2.77-4.67-.32-2.88.79-5.12,3.21-6.71.9-.59,1.92-.89,3-.98.57-.05,1.15-.03,1.71.07.06.01.13.01.18.05.04.03.08.06.13.07,1.2.36,2.16,1.07,2.93,2.04.35.45.65.95.88,1.47.38.88.6,1.82.64,2.77.02.51,0,1.01-.08,1.51-.11.77-.33,1.51-.68,2.21-.37.76-.87,1.44-1.5,2.02-.51.47-1.11.84-1.75,1.1-.19.08-.39.1-.57.22Zm-6.29-6.7c0,2.74,2.22,4.96,4.97,4.96s4.96-2.22,4.96-4.97c0-2.74-2.22-4.96-4.96-4.96-2.74,0-4.96,2.2-4.97,4.94,0,0,0,.02,0,.03Z"/><path class="cls-6" d="m40.54,53.91c.17-.11.38-.14.56-.22.64-.26,1.23-.63,1.75-1.1.64-.57,1.13-1.25,1.5-2.02.34-.7.57-1.44.68-2.21.08-.5.1-1.01.08-1.51-.04-.96-.26-1.9-.64-2.77-.23-.52-.52-1.02-.88-1.47-.77-.98-1.72-1.68-2.93-2.04-.05-.01-.09-.04-.13-.07.38.03.74.15,1.09.3,2.3.94,3.76,2.61,4.29,5.04.72,3.33-1.26,6.76-4.49,7.85-.29.1-.58.2-.89.22Z"/><path class="cls-13" d="m34.25,47.21c0-2.74,2.22-4.97,4.96-4.97,2.74,0,4.97,2.22,4.97,4.96s-2.22,4.97-4.96,4.97c0,0,0,0,0,0-2.73,0-4.96-2.21-4.96-4.94,0,0,0-.01,0-.02Zm4.97-3.08c-.75,0-1.49.01-2.24,0-.26,0-.46.05-.63.25-.05.05-.09.11-.14.16-.78.88-1.12,1.92-1.01,3.09.1,1.01.53,1.86,1.28,2.55.08.08.19.13.31.13,1.55,0,3.09-.01,4.64,0,.28,0,.5-.07.67-.28.04-.05.09-.1.13-.15.83-.96,1.14-2.07.95-3.32-.13-.83-.51-1.54-1.08-2.15-.16-.17-.33-.28-.6-.28-.76.02-1.52,0-2.28,0Z"/><path class="cls-5" d="m39.22,44.13c.76,0,1.52.02,2.28,0,.27,0,.44.1.6.28.57.61.96,1.32,1.08,2.15.19,1.25-.12,2.36-.95,3.32-.04.05-.09.1-.13.15-.18.21-.39.28-.67.28-1.55-.02-3.09,0-4.64,0-.12,0-.23-.04-.31-.13-.75-.69-1.18-1.55-1.28-2.55-.11-1.16.22-2.2,1.01-3.09.05-.05.1-.1.14-.16.16-.2.37-.25.63-.25.74.02,1.49,0,2.23,0Zm2.16,3.08c-.04-1.22-.94-2.16-2.16-2.15-1.22,0-2.14.94-2.14,2.14,0,1.22.93,2.16,2.17,2.15,1.2,0,2.09-.93,2.14-2.14h0Z"/><path class="cls-11" d="m41.38,47.21c-.04,1.21-.94,2.14-2.14,2.14-1.23,0-2.17-.93-2.17-2.15,0-1.21.92-2.14,2.14-2.14,1.22,0,2.12.93,2.16,2.15Zm-2.15-1.21c-.67,0-1.21.53-1.21,1.2,0,0,0,0,0,0,0,.66.51,1.17,1.21,1.21.68-.02,1.2-.54,1.21-1.2s-.52-1.19-1.21-1.21h0Z"/><path class="cls-15" d="m39.22,48.42c-.7-.03-1.22-.54-1.21-1.21,0-.67.54-1.21,1.2-1.21,0,0,0,0,0,0,.11.06.15.18.17.29.13.6.13,1.23,0,1.83-.02.11-.06.23-.17.29Z"/><path class="cls-9" d="m39.22,48.42c.11-.06.15-.18.17-.29.13-.6.13-1.23,0-1.83-.02-.11-.06-.23-.17-.29.69.02,1.21.55,1.21,1.21s-.52,1.18-1.21,1.2Z"/><circle class="cls-8" cx="50" cy="50" r="45"/><path d="m19.4,51.23l.15,2.07-5.28.39,4.02,2.06.02.23-3.68,2.63,5.28-.39.15,2.08-9.08.67-.15-2.08,3.85-2.76-4.21-2.17-.15-2.08,9.08-.67Z"/><path d="m18.83,46.76c.11-.52,0-1.01-.23-1.32l1.2-1.34c.73.8.98,1.84.72,3.05-.46,2.17-2.21,3.21-4.1,2.81-1.89-.4-3.07-2.08-2.64-4.09.39-1.86,2.12-2.93,4.04-2.52.27.06.52.13.75.24l-.95,4.51c.71-.1,1.06-.64,1.21-1.34Zm-2.07-1.66c-.78.05-1.17.56-1.29,1.13-.15.72.1,1.28.71,1.6l.58-2.73Z"/><path d="m15.86,33.56l8.21,3.93-.84,1.76-.55-.26c.26.6.26,1.3-.12,2.09-.73,1.54-2.69,2.16-4.43,1.32-1.75-.84-2.49-2.75-1.75-4.28.38-.78.92-1.23,1.55-1.4l-2.9-1.39.84-1.76Zm4.43,4.28c-.88-.42-1.71-.1-2.1.71-.39.81-.12,1.66.76,2.08.88.42,1.71.1,2.1-.71s.12-1.66-.76-2.08Z"/><path d="m17.97,32.05c-.52-.37-.64-1.11-.27-1.63.37-.52,1.11-.64,1.63-.27.52.37.64,1.11.27,1.63-.37.52-1.11.64-1.63.27Zm1.53.86l1.14-1.58,5.28,3.78-1.14,1.58-5.28-3.78Z"/><path d="m26.68,24.86l4.54,4.65-1.4,1.36-.43-.44c.04.65-.21,1.31-.83,1.92-1.22,1.19-3.27,1.1-4.62-.29-1.35-1.39-1.39-3.44-.17-4.63.62-.61,1.29-.84,1.94-.79l-.43-.44,1.4-1.36Zm.87,3.69c-.68-.7-1.57-.68-2.22-.06-.64.63-.68,1.52,0,2.22.68.7,1.57.68,2.22.05.64-.63.68-1.52,0-2.21Z"/><path d="m29.58,24.84l4.22-2.57.97,1.6-4.22,2.57-.97-1.6Z"/><path d="m36.06,24.12l1.35-1.57c.55.61,1.25.9,2.22.57.93-.32,1.04-.77.92-1.1-.18-.53-.75-.57-2.16-.48-1.4.08-2.87-.1-3.44-1.74-.57-1.66.49-3.1,1.98-3.62,1.41-.49,2.75-.2,3.82.85l-1.32,1.54c-.51-.51-1.04-.75-1.83-.48-.61.21-.81.62-.7.97.14.39.44.59,1.92.53,1.44-.06,3.06-.11,3.69,1.71.57,1.66-.41,3.1-2.28,3.75-1.81.63-3.26.17-4.18-.93Z"/><path d="m42.47,15.72c-.11-.63.33-1.24.96-1.35.63-.11,1.24.33,1.35.96.11.63-.33,1.24-.96,1.35-.63.11-1.24-.33-1.35-.96Zm.48,1.69l1.92-.32,1.08,6.41-1.92.32-1.08-6.41Z"/><path d="m53.23,19.25v3.99s-1.95,0-1.95,0v-3.7c0-.81-.5-1.18-1.12-1.18-.71,0-1.21.42-1.21,1.34v3.55s-1.95,0-1.95,0v-6.5s1.96,0,1.96,0v.61c.35-.48,1-.79,1.86-.79,1.31,0,2.43.94,2.43,2.69Z"/><path d="m62.1,18.62l-1.49,5.99c-.53,2.12-2.4,2.6-4.08,2.19-1.31-.33-2.29-1.09-2.61-2.27l1.85-.53c.13.5.41.95,1.24,1.15.88.22,1.54-.1,1.76-1l.15-.58c-.55.41-1.23.57-2.05.36-1.79-.45-2.74-2.24-2.31-3.98.43-1.74,2.11-2.88,3.9-2.43.82.2,1.35.66,1.64,1.28l.16-.64,1.84.46Zm-2.6,2.57c.22-.87-.27-1.62-1.16-1.84-.9-.22-1.67.21-1.89,1.08-.22.87.27,1.62,1.16,1.84.9.22,1.67-.21,1.89-1.08Z"/><path d="m65.32,16.81l1.78.79-3.86,8.66-1.78-.79,3.86-8.66Z"/><path d="m67.88,27.16c.44.29.94.37,1.31.28l.8,1.61c-1.02.38-2.07.23-3.1-.45-1.85-1.23-2.17-3.24-1.1-4.85,1.07-1.61,3.07-2.08,4.78-.95,1.58,1.05,1.94,3.05.85,4.69-.15.23-.32.43-.5.61l-3.84-2.55c-.17.7.2,1.22.8,1.62Zm2.3-1.31c.24-.74-.09-1.29-.58-1.62-.62-.41-1.23-.38-1.75.07l2.33,1.54Z"/><path d="m74.62,30.51c1.53-1.19,3.61-.96,4.83.6.78,1,.94,2.29.5,3.34l-1.83-.74c.22-.45.15-.99-.2-1.44-.52-.67-1.39-.78-2.09-.23-.71.55-.81,1.42-.29,2.09.35.45.86.66,1.35.55l.28,1.94c-1.14.18-2.35-.28-3.13-1.29-1.22-1.56-.94-3.64.59-4.83Z"/><path d="m84.79,40.99l-5.89,2.75-.82-1.77.55-.26c-.63-.18-1.17-.63-1.54-1.42-.72-1.54.04-3.45,1.8-4.27,1.76-.82,3.7-.18,4.43,1.36.37.79.37,1.49.1,2.09l.55-.26.83,1.77Zm-3.77-.39c.88-.41,1.16-1.26.78-2.07s-1.21-1.14-2.09-.73c-.88.41-1.16,1.26-.78,2.07.38.81,1.21,1.14,2.09.73Z"/><path d="m84.69,53.55l-3.95.57-.28-1.93,3.78-.55c.64-.09,1.01-.46.92-1.08-.09-.64-.6-.94-1.35-.83l-3.63.53-.28-1.93,3.78-.55c.64-.09,1.01-.46.92-1.08-.09-.64-.6-.94-1.35-.83l-3.63.53-.28-1.93,6.43-.93.28,1.93-.59.09c.48.23.9.75,1.02,1.61.11.76-.12,1.37-.6,1.81.57.28.99.83,1.12,1.74.21,1.48-.7,2.6-2.31,2.83Z"/><path d="m81.55,58.39c-.08.53.06,1.01.31,1.31l-1.11,1.42c-.78-.76-1.1-1.78-.92-3,.32-2.2,2-3.35,3.91-3.07,1.92.28,3.19,1.88,2.9,3.91-.27,1.88-1.93,3.06-3.87,2.77-.27-.04-.52-.1-.76-.19l.66-4.57c-.7.15-1.02.71-1.12,1.41Zm2.17,1.52c.78-.1,1.13-.64,1.21-1.22.11-.73-.18-1.27-.81-1.55l-.4,2.77Z"/><path d="m84.21,67.78l-2.09-.73c.39-.72.46-1.91-.76-2.33l-2.77-.96.64-1.84,6.14,2.13-.64,1.84-1.09-.38c.74.53.84,1.49.58,2.26Z"/><path d="m80.2,74.96l-5.63-3.26.98-1.69.53.31c-.21-.62-.15-1.32.29-2.07.85-1.47,2.85-1.94,4.53-.97,1.68.97,2.27,2.94,1.41,4.41-.44.75-1.02,1.16-1.66,1.28l.53.31-.98,1.69Zm-1.83-3.32c.84.49,1.7.23,2.15-.54.45-.78.25-1.64-.6-2.13s-1.7-.23-2.15.54c-.45.78-.25,1.65.6,2.13Z"/></svg>