<?xml version="1.0" encoding="UTF-8"?><svg id="Layer_1" xmlns="http://www.w3.org/2000/svg" viewBox="0 0 100 100"><defs><style>.cls-1{fill:#eb917f;}.cls-2{fill:#fbe501;}.cls-3{fill:#f9f3b1;}.cls-4{fill:#f3bd99;}.cls-5{fill:none;stroke:#c000e2;stroke-miterlimit:10;stroke-width:4px;}.cls-6{fill:#f4bd99;}.cls-7{fill:#06687f;}.cls-8{fill:#97d6e5;}.cls-9{fill:#7dcbe5;}.cls-10{fill:#eecf15;}.cls-11{fill:#9dd8e6;}.cls-12{fill:#0092b9;}.cls-13{fill:#e5eff1;}.cls-14{fill:#9fddea;}.cls-15{fill:#067fa6;}</style></defs><circle class="cls-5" cx="50" cy="50" r="45"/><path d="m19.95,46.95l-.11,1.96-4.98-.29,3.51,2.42v.22s-3.78,2.01-3.78,2.01l4.98.29-.11,1.96-8.57-.49.11-1.96,3.94-2.11-3.67-2.54.11-1.96,8.57.49Z"/><path d="m19.92,42.65c.16-.48.11-.95-.06-1.26l1.27-1.12c.6.83.71,1.83.34,2.94-.67,1.99-2.42,2.77-4.15,2.18-1.73-.58-2.64-2.29-2.02-4.12.57-1.7,2.31-2.51,4.06-1.92.24.08.47.18.67.3l-1.39,4.12c.68-.02,1.07-.48,1.28-1.12Zm-1.75-1.78c-.74-.04-1.16.4-1.33.92-.22.66-.05,1.21.49,1.58l.84-2.5Z"/><path d="m18.46,29.99l7.31,4.49-.96,1.57-.49-.3c.19.59.11,1.25-.32,1.95-.84,1.37-2.73,1.76-4.29.8-1.56-.95-2.07-2.82-1.23-4.19.43-.7.98-1.07,1.59-1.17l-2.58-1.58.96-1.57Zm3.74,4.45c-.78-.48-1.59-.26-2.04.46-.44.72-.27,1.54.51,2.03s1.59.26,2.04-.46.27-1.54-.51-2.02Z"/><path d="m20.55,28.79c-.45-.39-.5-1.1-.11-1.56.4-.45,1.1-.5,1.56-.11.45.39.5,1.1.11,1.56-.4.45-1.1.5-1.56.11Zm1.36.94l1.21-1.39,4.62,4.03-1.21,1.39-4.62-4.03Z"/><path d="m29.33,22.81l3.88,4.74-1.42,1.17-.37-.45c-.02.62-.3,1.21-.94,1.74-1.24,1.02-3.16.77-4.32-.64s-1.03-3.34.21-4.36c.63-.52,1.28-.68,1.89-.58l-.37-.44,1.42-1.17Zm.52,3.53c-.58-.71-1.42-.77-2.07-.23-.65.54-.76,1.37-.18,2.08.58.71,1.42.77,2.07.23.65-.54.76-1.37.18-2.08Z"/><path d="m32.02,23.02l4.15-2.12.81,1.57-4.15,2.13-.81-1.57Z"/><path d="m47.47,22.48l-1.91.43-1.1-4.87-1.36,4.04-.22.05-2.97-3.06,1.1,4.87-1.91.43-1.89-8.37,1.91-.43,3.11,3.2,1.43-4.23,1.91-.43,1.89,8.37Z"/><path d="m54.44,16.69l-.25,6.13-1.84-.08.02-.58c-.35.44-.97.71-1.78.67-1.24-.05-2.25-.98-2.19-2.63l.15-3.76,1.84.07-.14,3.49c-.03.76.43,1.13,1.02,1.16.67.03,1.16-.35,1.19-1.22l.14-3.34,1.84.08Z"/><path d="m57,14.34l1.8.37-1.79,8.77-1.8-.37,1.79-8.77Z"/><path d="m61.67,20.32l-.69,2.06c-.17.5.25.69,1.03.9l-.53,1.58c-2.35-.54-2.79-1.45-2.24-3.07l.69-2.05-.93-.31.56-1.67.93.31.37-1.1,1.92.06-.55,1.63,1.2.4-.56,1.67-1.2-.41Z"/><path d="m64.85,19.69l1.66.79-2.64,5.53-1.66-.79,2.64-5.53Zm.54-1.56c.26-.54.93-.78,1.47-.52.54.26.78.93.52,1.47-.26.54-.93.78-1.47.52-.54-.26-.78-.93-.52-1.47Z"/><path d="m68.99,25.39c1.16-1.41,3.13-1.62,4.56-.43.92.76,1.33,1.91,1.14,2.97l-1.83-.3c.11-.46-.07-.94-.48-1.29-.62-.51-1.44-.44-1.97.22-.54.65-.45,1.47.16,1.98.42.34.93.43,1.35.23l.66,1.73c-1.01.4-2.22.22-3.14-.54-1.44-1.18-1.61-3.15-.45-4.56Z"/><path d="m80.56,32.85l-4.81,3.81-1.14-1.44.45-.36c-.62-.03-1.21-.32-1.72-.97-1-1.26-.71-3.17.72-4.31,1.43-1.13,3.36-.97,4.36.29.51.64.66,1.29.55,1.9l.45-.36,1.14,1.44Zm-3.54.46c.72-.57.79-1.41.27-2.07-.53-.66-1.36-.79-2.08-.21-.72.57-.79,1.41-.27,2.07.53.66,1.36.78,2.08.21Z"/><path d="m83.32,44.35l-3.48,1.43-.7-1.7,3.33-1.37c.57-.23.82-.65.6-1.2-.23-.57-.76-.72-1.43-.45l-3.2,1.31-.7-1.7,3.33-1.37c.57-.23.82-.66.59-1.2-.23-.57-.76-.72-1.43-.45l-3.2,1.31-.7-1.7,5.67-2.33.7,1.7-.52.21c.49.1.99.48,1.3,1.24.27.67.21,1.28-.14,1.79.58.13,1.09.53,1.42,1.34.54,1.3-.05,2.54-1.46,3.12Z"/><path d="m81.62,49.5c.06.5.3.9.6,1.11l-.67,1.56c-.9-.5-1.43-1.35-1.57-2.5-.25-2.08,1-3.54,2.81-3.75,1.81-.21,3.37.94,3.6,2.86.21,1.78-1.01,3.25-2.85,3.47-.26.03-.5.03-.74.01l-.51-4.32c-.61.31-.76.89-.68,1.56Zm2.35.86c.68-.28.87-.86.81-1.4-.08-.69-.48-1.12-1.12-1.21l.31,2.62Z"/><path d="m86.4,57.33l-2.08-.12c.17-.75-.07-1.85-1.28-1.92l-2.76-.17.11-1.83,6.11.37-.11,1.84-1.09-.07c.81.29,1.15,1.14,1.1,1.91Z"/><path d="m84.64,64.88l-5.95-1.48.44-1.78.56.14c-.35-.5-.48-1.15-.28-1.95.39-1.56,2.07-2.5,3.85-2.06,1.77.44,2.82,2.07,2.43,3.62-.2.8-.62,1.31-1.17,1.59l.56.14-.44,1.78Zm-2.53-2.52c.89.22,1.6-.23,1.8-1.05.2-.82-.21-1.55-1.1-1.78-.89-.22-1.6.23-1.8,1.05-.2.82.21,1.55,1.1,1.78Z"/><path class="cls-12" d="m58.51,82.24h-18.14c-.4-1.47-1.16-2.83-2.21-3.94-.26-.28-.25-.41,0-.66,1.29-1.27,2.58-2.55,3.85-3.84,1.15-1.17,1.5-2.92.89-4.45.11-.63.08-1.27-.06-1.9-.57-2.28-2.87-3.66-5.15-3.09-.76.19-1.45.58-2,1.14-2.26,2.25-4.49,4.5-6.75,6.76-.45.45-.91.89-1.37,1.33v-35.06c-.07-1.51.86-2.89,2.29-3.38.41-.14.85-.2,1.28-.18h35.8c2.16,0,3.6,1.43,3.6,3.6v26.45h-8.44c-1.44-.07-2.77.77-3.31,2.11-.7,1.58,0,3.6,1.41,4.24h0l.12.12c.16.34.58.32.81.56-1.82.42-2.96,2.24-2.55,4.06.21.93.81,1.73,1.65,2.2h0l.09.07c.18.31.56.33.81.51-1.56.36-2.65,1.76-2.62,3.36Zm-6.04-32.63v-8.46c.08-.99-.66-1.85-1.65-1.93-.1,0-.2,0-.29,0h-16.68c-1.31,0-2.05.71-2.05,2.02v16.72c-.07.99.67,1.85,1.65,1.92.09,0,.17,0,.26,0h16.95c.91.09,1.73-.58,1.82-1.49.01-.1.01-.21,0-.31,0-2.82,0-5.64,0-8.47Zm7.7-5.17h3.08c1.32,0,1.3,0,1.31-1.3,0-.39-.12-.48-.48-.47h-6.89c-1.3,0-1.29,0-1.29,1.33,0,.35.12.45.46.45,1.26-.01,2.54,0,3.81,0h0Zm3.08-5.2h-2.68c-1.25,0-1.23,0-1.24,1.27,0,.42.15.51.51.51h5.93c1.34,0,1.33,0,1.31-1.36,0-.34-.13-.42-.44-.42-1.12,0-2.27-.01-3.41-.01h.02Zm-7.35.83c0,1.03-.16.93.84.93q.88,0,.88-.87c0-.87,0-.89-.9-.89q-.82,0-.82.83Z"/><path class="cls-6" d="m27.57,73.59c.46-.44.92-.88,1.37-1.33,2.26-2.25,4.49-4.52,6.77-6.76,1.65-1.67,4.34-1.69,6.01-.04.56.55.95,1.24,1.14,2,.15.62.17,1.27.06,1.9-.26.94-.77,1.8-1.48,2.47-1.95,1.92-3.87,3.87-5.82,5.79-.28.28-.26.43,0,.71,1.04,1.11,1.78,2.46,2.16,3.92h-13.23c-.17,0-.41.05-.4-.24.05-1.25-.14-2.51.18-3.75.29-1.18.89-2.25,1.75-3.12l1.5-1.54Z"/><path class="cls-4" d="m60.19,71.39c-1.42-.64-2.11-2.66-1.41-4.24.54-1.34,1.87-2.18,3.31-2.11h8.44c1.87.2,2.99,1.14,3.39,2.82-.15,0-.17.12-.22.23-.36.88-1.07,1.57-1.96,1.91-.58.2-1.2.29-1.82.26h-8.44c-1.05-.01-1.17.1-1.29,1.12Z"/><path class="cls-6" d="m60.24,78.32c-1.63-.92-2.22-2.98-1.3-4.61.47-.83,1.27-1.43,2.2-1.65.36-.09.72-.15,1.08-.17h8.81c.71.2,1.37.55,1.94,1.03.48.49.81,1.1.96,1.77-.09.04-.17.12-.2.22-.71,1.65-2.05,2.21-3.75,2.2h-8.55c-1,.02-1.2.22-1.19,1.23Z"/><path class="cls-6" d="m58.51,82.24c0-1.58,1.08-2.96,2.62-3.32.23-.05.46-.08.69-.1,3.13-.05,6.27.12,9.4-.09,0,.2.16.17.28.21,1.21.35,2.13,1.34,2.4,2.57.16.66.09.76-.59.76h-14.25c-.18-.02-.36-.03-.55-.03Z"/><path class="cls-15" d="m37.76,82.24c-.38-1.47-1.13-2.82-2.16-3.92-.26-.28-.28-.43,0-.71,1.95-1.92,3.87-3.87,5.82-5.79.71-.67,1.23-1.52,1.48-2.47.62,1.52.27,3.27-.87,4.45-1.27,1.29-2.56,2.57-3.85,3.84-.26.26-.27.39,0,.66,1.05,1.11,1.8,2.47,2.21,3.94h-2.63Z"/><path class="cls-1" d="m71.22,78.73c-3.13.21-6.27.04-9.4.09-.23.02-.46.05-.69.1-.25-.2-.63-.22-.81-.51l-.09-.07h0c0-1.03.19-1.21,1.19-1.21h8.55c1.7,0,3.04-.54,3.75-2.2.03-.1.11-.17.2-.22.22,1.97-.68,3.45-2.41,3.98-.1.02-.19.03-.29.04Z"/><path class="cls-1" d="m71.03,71.88h-8.81c-.37.03-.73.09-1.08.17-.24-.24-.65-.22-.81-.56l-.12-.12h0c.12-1.03.25-1.14,1.29-1.14h8.44c.62.03,1.23-.05,1.82-.26.89-.34,1.59-1.03,1.96-1.91.05-.11.06-.23.22-.23.35,1.78-.74,3.52-2.5,3.98-.12.04-.27.04-.41.06Z"/><path class="cls-7" d="m52.47,49.61v8.46c.08.92-.6,1.72-1.51,1.8-.1,0-.21,0-.31,0h-16.92c-.99.07-1.84-.68-1.91-1.67,0-.09,0-.17,0-.26v-16.72c0-1.3.72-2.01,2.05-2.02h16.66c.99-.09,1.86.65,1.95,1.64,0,.1,0,.2,0,.29v8.46Zm-11.18,4.27c0-1.89-1.54-3.43-3.43-3.43-1.89,0-3.43,1.54-3.43,3.43,0,1.89,1.54,3.43,3.43,3.43,0,0,0,0,0,0,1.89-.01,3.41-1.54,3.43-3.43Zm0-8.62c0-1.89-1.53-3.43-3.43-3.44-1.89,0-3.43,1.53-3.44,3.43,0,1.89,1.52,3.42,3.41,3.44,1.88.03,3.42-1.47,3.46-3.34,0-.02,0-.05,0-.07h0Zm5.14,3.43c1.9,0,3.44-1.53,3.45-3.43,0-1.9-1.53-3.44-3.43-3.45-1.9,0-3.44,1.53-3.45,3.43,0,0,0,.01,0,.02,0,1.9,1.53,3.44,3.43,3.44,0,0,0,0,0,0h-.01Zm2.62,5.19v-1.61c.06-.46-.26-.89-.73-.95-.07,0-.13,0-.2,0h-3.32c-.45-.05-.85.27-.9.72,0,.06,0,.13,0,.19v3.32c-.04.46.3.87.76.9.05,0,.1,0,.15,0h3.32c.47.04.87-.31.91-.78,0-.05,0-.09,0-.14.02-.55,0-1.11,0-1.65Z"/><path class="cls-8" d="m60.18,44.44h-3.82c-.34,0-.46-.09-.46-.45q0-1.33,1.29-1.33h6.89c.36,0,.51.09.48.47q0,1.3-1.31,1.3h-3.07Z"/><path class="cls-11" d="m63.24,39.23h3.42c.31,0,.44.07.44.42,0,1.36.03,1.36-1.31,1.36h-5.93c-.37,0-.51-.08-.51-.51q0-1.27,1.24-1.27h2.65Z"/><path class="cls-11" d="m55.9,40.06q0-.83.82-.83t.9.89c0,.89,0,.87-.88.87-1,0-.81.09-.84-.93Z"/><path class="cls-4" d="m60.2,71.38l.12.12-.12-.12Z"/><path class="cls-6" d="m60.23,78.32l.09.07-.09-.07Z"/><path class="cls-9" d="m41.29,53.88c-.02,1.89-1.58,3.41-3.47,3.39-1.89-.02-3.41-1.58-3.39-3.47.02-1.88,1.55-3.39,3.43-3.39,1.91.01,3.44,1.57,3.43,3.47h0Zm-5.14-.48v.4c-.01.76.46,1.44,1.18,1.7.91.29,1.88-.21,2.17-1.12.17-.52.08-1.09-.24-1.53-.39-.54-1.06-.79-1.71-.64-1.07-.03-1.42.28-1.39,1.2h0Z"/><path class="cls-9" d="m41.29,45.27c0,1.89-1.54,3.43-3.44,3.43-1.89,0-3.43-1.54-3.43-3.44,0-1.89,1.54-3.43,3.44-3.43.01,0,.02,0,.03,0,1.88,0,3.4,1.53,3.4,3.41,0,.01,0,.02,0,.03Zm-5.05-.31c-.19.64.05,1.34.59,1.73.6.43,1.42.43,2.02,0,.54-.37.82-1.01.72-1.65-.11-.89-.91-1.52-1.8-1.41-.07,0-.14.02-.21.04-.53-.19-1.12.09-1.31.62-.08.22-.08.47,0,.69v-.02Z"/><path class="cls-9" d="m46.43,48.7c-1.9-.02-3.42-1.57-3.4-3.47.02-1.9,1.57-3.42,3.47-3.4,1.89.02,3.41,1.56,3.4,3.45-.02,1.9-1.57,3.43-3.47,3.43Zm-1.62-3.75c-.25.44,0,.82.18,1.18.36.64,1.08.97,1.8.84.66-.15,1.17-.65,1.34-1.3.19-.76-.17-1.54-.86-1.9-.39-.19-.83-.26-1.26-.2-.89-.03-1.44.59-1.19,1.39Z"/><path class="cls-2" d="m49.04,53.88v1.66c.04.47-.31.87-.78.91-.04,0-.09,0-.13,0h-3.32c-.46.04-.87-.29-.91-.75,0-.05,0-.1,0-.16v-3.32c-.05-.45.27-.85.72-.9.06,0,.12,0,.19,0h3.32c.47-.04.88.3.92.77,0,.06,0,.12,0,.18.01.53,0,1.06,0,1.62Zm-3.03-.44h1.6c.32,0,.51-.13.51-.47s-.26-.33-.51-.33h-1.29c-.05-.25-.26-.44-.51-.47-.43-.01-.82.25-.98.65-.17.25-.12.58.11.78.35.3.69.12,1.03-.1.01-.02.03-.05.05-.07v.02Zm.43,1.72h1.25c.23.02.42-.16.44-.38,0-.02,0-.04,0-.06,0-.29-.18-.36-.43-.35h-2.51c-.21-.03-.41.11-.44.33,0,.03,0,.07,0,.1,0,.21.17.38.39.38.02,0,.03,0,.05,0,.44-.03.84-.02,1.26-.02v.02Z"/><path class="cls-14" d="m37.54,52.23c.64-.16,1.32.09,1.71.63.56.77.38,1.85-.39,2.41-.45.32-1.02.41-1.55.24-.72-.26-1.19-.94-1.18-1.7v-.4c.21.27.55.38.87.3.06.81.51,1.21,1.13.97.43-.16.65-.65.49-1.08-.12-.43-.56-.68-.99-.58.09-.27.05-.56-.1-.79Z"/><path class="cls-13" d="m37.54,52.23c.16.23.2.53.12.8-.11.32-.4.47-.63.68-.32.08-.67-.03-.87-.3-.04-.91.32-1.22,1.39-1.19Z"/><path class="cls-14" d="m37.55,43.65c.86-.22,1.75.29,1.97,1.16.02.07.03.14.04.21.11.65-.17,1.3-.72,1.67-.6.43-1.42.43-2.02,0-.53-.39-.77-1.07-.59-1.71.23.18.54.22.81.11,0,.76.51,1.23,1.08,1.03.39-.1.64-.48.59-.88-.06-.51-.44-.74-1.06-.74.13-.28.09-.61-.1-.85Z"/><path class="cls-13" d="m37.05,45.07c-.27.11-.58.07-.81-.11-.19-.53.09-1.12.63-1.31.22-.08.47-.08.69,0,.18.23.21.54.1.81-.16.24-.36.45-.61.61Z"/><path class="cls-14" d="m46.01,43.56c.43-.06.87,0,1.26.2.69.36,1.05,1.14.86,1.9-.17.65-.69,1.14-1.34,1.29-.72.14-1.44-.2-1.8-.84-.2-.36-.43-.74-.18-1.18.23.14.51.21.78.19,0,.43.14.82.61.91.41.14.86-.05,1.03-.45.27-.62-.12-1.11-.96-1.17.08-.32-.02-.65-.27-.86Z"/><path class="cls-13" d="m46.01,43.56c.26.21.38.55.29.88-.2.27-.43.51-.7.71-.27.02-.55-.05-.78-.19-.25-.81.3-1.42,1.19-1.4Z"/><path class="cls-10" d="m46.45,55.14h-1.26c-.21.03-.4-.12-.43-.33,0-.02,0-.03,0-.05-.02-.21.13-.41.35-.43.03,0,.07,0,.1,0h2.51c.25,0,.43.06.43.35.02.23-.15.43-.37.45-.02,0-.04,0-.06,0-.42.01-.84,0-1.25,0Z"/><path class="cls-3" d="m46.02,53.42s-.06.03-.09.05c-.31.23-.65.4-1.03.1-.23-.19-.27-.53-.11-.78.16-.4.55-.66.98-.65.26.03.46.22.51.47,0,.29-.09.58-.27.81Z"/><path class="cls-10" d="m46.02,53.42c.19-.22.3-.51.31-.81h1.3c.24,0,.51,0,.51.33s-.2.48-.51.47h-1.62Z"/><path class="cls-9" d="m37.03,53.71c.23-.21.51-.36.63-.68.43-.11.87.15.99.58.16.43-.06.92-.49,1.08-.61.23-1.07-.16-1.13-.97Z"/><path class="cls-9" d="m37.05,45.07c.24-.16.45-.37.61-.61.62,0,1,.24,1.06.74.06.4-.19.78-.59.88-.58.22-1.08-.26-1.08-1.01Z"/><path class="cls-9" d="m45.6,45.15c.27-.2.51-.43.7-.7.83.05,1.23.54.96,1.17-.17.4-.62.59-1.03.45-.49-.1-.6-.49-.63-.91Z"/></svg>