<?xml version="1.0" encoding="UTF-8"?><svg id="Layer_1" xmlns="http://www.w3.org/2000/svg" viewBox="0 0 100 100"><defs><style>.cls-1{fill:#a7a7a7;}.cls-2{fill:none;stroke:#a5262d;stroke-miterlimit:10;stroke-width:4px;}.cls-3{fill:#fab644;}.cls-4{fill:#cbcbcb;}.cls-5{fill:#cacaca;}.cls-6{fill:#0277b5;}.cls-7{fill:#015078;}.cls-8{fill:#0296e4;}.cls-9{fill:#0295e3;}.cls-10{fill:#0276b3;}.cls-11{fill:#fab643;}.cls-12{fill:#0376b4;}.cls-13{fill:#a8a8a8;}</style></defs><circle class="cls-2" cx="50" cy="50" r="45"/><path class="cls-8" d="m40.02,50.59v-7.54c.14-5.51,4.71-9.86,10.22-9.73,4.62.12,8.56,3.39,9.52,7.92.13.61.2,1.23.22,1.85v7.49h-19.95Zm6.34-13.59c.49.02.9-.37.91-.85,0,0,0-.01,0-.02.02-.5-.37-.92-.87-.94-.5-.02-.92.37-.94.87-.02.5.37.92.87.94,0,0,.02,0,.03,0Zm3.61-1.8c-.5,0-.9.42-.9.92,0,.5.42.9.92.9.5,0,.9-.42.9-.92,0,0,0-.02,0-.03.01-.49-.38-.89-.87-.9-.01,0-.03,0-.04,0v.04Zm4.55.91c.02-.49-.37-.9-.85-.91,0,0-.01,0-.02,0-.5-.07-.96.27-1.03.77-.07.5.27.96.77,1.03.07,0,.13.01.2,0,.49.04.91-.33.95-.81,0-.04,0-.07,0-.11v.04Zm-11.8,2.69c-.5,0-.9.42-.9.92,0,.5.42.9.92.9.5,0,.9-.42.9-.92,0,0,0-.02,0-.03-.01-.49-.42-.88-.91-.87,0,0,0,0,0,0Zm4.55.9c0-.5-.4-.91-.9-.91-.5,0-.91.4-.91.9,0,.49.39.9.88.91.49.03.9-.35.93-.83,0-.03,0-.05,0-.08h0Zm2.71-.9c-.5,0-.9.42-.9.92,0,.5.42.9.92.9.5,0,.9-.42.9-.92,0,0,0-.02,0-.03,0-.49-.41-.88-.9-.87,0,0-.01,0-.02,0Zm4.55.9c0-.5-.4-.91-.9-.91-.5,0-.91.4-.91.9,0,.49.39.9.88.91.49.03.9-.35.93-.83,0-.03,0-.05,0-.08h0Zm2.71-.9c-.5.01-.9.43-.89.93.01.5.43.9.93.89.5-.01.9-.43.89-.93,0,0,0-.02,0-.02-.01-.49-.42-.88-.91-.87,0,0,0,0-.01,0Zm-13.6,4.55c.03-.49-.34-.91-.83-.94-.01,0-.02,0-.03,0-.5-.03-.93.36-.95.86-.03.5.36.93.86.95.5.03.93-.36.95-.86,0,0,0-.02,0-.03h0Zm7.26,3.61c-.01-.5-.43-.9-.93-.88s-.9.43-.88.93c.01.49.42.88.91.88.48.02.89-.36.91-.84,0-.04,0-.08,0-.11v.02Zm2.72-.88c-.5,0-.91.41-.9.91s.41.91.91.9c.5,0,.91-.41.9-.91,0,0,0-.02,0-.03.01-.48-.37-.89-.86-.9-.02,0-.04,0-.06,0v.02Zm4.55.93c.02-.5-.38-.92-.88-.94-.5-.02-.92.38-.94.88-.02.49.36.91.85.93.49.04.92-.32.96-.81,0-.03,0-.06,0-.09v.02Zm-15.43-.96c-.5,0-.91.4-.91.9,0,.5.4.91.9.91.5,0,.91-.4.91-.9,0,0,0-.02,0-.03,0-.49-.4-.88-.88-.88,0,0-.01,0-.02,0Zm14.49-1.8c.5.02.92-.38.94-.88.02-.5-.38-.92-.88-.94-.5-.02-.92.38-.94.88,0,.01,0,.02,0,.04.01.48.4.86.88.87v.04Zm-2.69-.89c.03-.5-.35-.93-.85-.96-.5-.03-.93.35-.96.85-.03.5.35.93.85.96,0,0,0,0,0,0,.49.04.91-.33.95-.82,0-.02,0-.04,0-.06v.02Zm-4.55-.95c-.5,0-.9.42-.89.92,0,.5.42.9.92.89.5,0,.9-.42.89-.92,0-.01,0-.02,0-.03,0-.48-.41-.87-.89-.86,0,0-.02,0-.03,0Zm-2.71.91c0-.5-.4-.91-.9-.92-.5,0-.91.4-.92.9,0,.49.38.9.88.92.49.03.91-.34.94-.83,0-.02,0-.04,0-.06h0Zm0,3.64c0-.5-.39-.92-.89-.92s-.92.39-.92.89c0,.49.37.9.86.92.49.04.91-.32.95-.81,0-.02,0-.05,0-.07h0Z"/><path class="cls-5" d="m40.02,50.59h20.85c1.07,0,.91-.14.93.9v3.61h-23.58v-3.61c0-1.05-.14-.88.93-.9h.87Z"/><path class="cls-4" d="m64.53,55.14v8.11c.01,6.7-4.56,12.54-11.07,14.14-.48.12-.96.21-1.44.31-1.35.15-2.71.15-4.06,0-1.6-.26-3.16-.77-4.61-1.5-4.03-2.06-6.87-5.88-7.66-10.34-.16-.87-.24-1.75-.23-2.64v-8.06h1.84v8.51c0,.81.11,1.62.3,2.41,1.55,6.82,8.31,11.12,15.14,9.62,2.76-.58,5.24-2.09,7.02-4.28,1.77-2.04,2.8-4.62,2.92-7.32.12-3.01,0-5.97,0-8.96h1.84Z"/><path class="cls-5" d="m52.72,80.55c1.2.04,2.41-.14,3.61.3,2.04.7,3.48,2.53,3.67,4.68.07.46-.2.47-.54.47h-18.9c-.48,0-.6-.16-.54-.6.34-2.76,2.67-4.84,5.45-4.87h7.25v.02Z"/><path class="cls-3" d="m29.7,40.61c.02-2.45.87-4.82,2.41-6.73.45-.55.97-.66,1.42-.29s.45.87,0,1.44c-2.7,3.26-2.7,7.98,0,11.24.44.57.43,1.09-.03,1.44-.42.31-1.02.22-1.33-.2-.02-.03-.04-.06-.06-.08-1.56-1.93-2.41-4.33-2.41-6.81Z"/><path class="cls-11" d="m70.3,40.61c-.02,2.47-.89,4.85-2.45,6.76-.26.46-.84.61-1.3.35-.03-.02-.06-.04-.09-.06-.46-.35-.47-.88,0-1.44,2.7-3.26,2.7-7.98,0-11.24-.45-.6-.45-1.08,0-1.44s.97-.26,1.42.29c1.56,1.92,2.41,4.31,2.41,6.78Z"/><path class="cls-11" d="m36.47,35.2c.31.02.58.2.72.48.18.3.15.69-.07.96-.43.55-.77,1.16-1.02,1.8-.72,1.93-.43,4.1.76,5.78.06.1.13.19.2.28.34.37.31.95-.06,1.29-.37.34-.95.31-1.29-.06-.04-.05-.08-.1-.11-.15-.8-1.01-1.34-2.2-1.56-3.47-.45-2.28.11-4.63,1.53-6.46.2-.3.54-.47.9-.45Z"/><path class="cls-11" d="m66.11,41.13c-.09,1.62-.67,3.17-1.68,4.44-.25.44-.81.59-1.25.34-.44-.25-.59-.81-.34-1.25.03-.06.07-.11.11-.16,1.8-2.68,1.8-5.13,0-7.78-.36-.37-.35-.95.02-1.31.03-.03.07-.06.1-.09.45-.32.95-.2,1.36.34,1.17,1.57,1.76,3.49,1.67,5.45Z"/><path class="cls-5" d="m34.55,55.14c0,.11,0,.23,0,.34.07.44-.1.6-.56.6-.87-.04-1.74,0-2.6,0-.32,0-.48-.06-.48-.43v-4.59c0-.37.16-.44.48-.43.85,0,1.7.04,2.55,0,.51,0,.7.14.6.63,0,.09,0,.19,0,.28v3.6Z"/><path class="cls-5" d="m65.43,51.5c0-.11,0-.22,0-.34-.06-.44.1-.6.56-.6.87.04,1.74,0,2.6,0,.32,0,.48.07.48.43v4.59c0,.37-.15.44-.48.43-.85,0-1.7-.04-2.55,0-.51,0-.69-.14-.6-.64,0-.09,0-.19,0-.28v-3.6Z"/><path class="cls-1" d="m34.55,55.14v-3.61h3.61v3.61h-3.61Z"/><path class="cls-1" d="m65.43,51.5v3.61h-3.62v-3.61h3.62Z"/><path class="cls-13" d="m52.72,80.55h-5.41c.23-.95.46-1.89.69-2.84,1.35.15,2.71.15,4.06,0,.2.94.43,1.89.66,2.84Z"/><path class="cls-6" d="m46.36,37c-.5,0-.91-.41-.9-.91s.41-.91.91-.9c.5,0,.91.41.9.91,0,0,0,.02,0,.03,0,.49-.41.88-.9.87,0,0-.01,0-.02,0Z"/><path class="cls-6" d="m49.98,35.16c.5,0,.92.39.93.89,0,.5-.39.92-.89.93-.5,0-.92-.39-.93-.89,0,0,0-.02,0-.03,0-.49.38-.89.87-.9,0,0,.01,0,.02,0Z"/><path class="cls-6" d="m54.54,36.08c.06.5-.3.95-.8,1.01s-.95-.3-1.01-.8c0-.07,0-.14,0-.21,0-.49.39-.9.89-.9.02,0,.04,0,.06,0,.49.01.87.42.86.9Z"/><path class="cls-6" d="m42.73,38.81c.5,0,.91.39.92.9,0,.5-.39.91-.9.92s-.91-.39-.92-.9c0,0,0-.02,0-.03,0-.49.39-.89.88-.89,0,0,.01,0,.02,0Z"/><path class="cls-6" d="m47.28,39.7c0,.5-.39.92-.89.93s-.92-.39-.93-.89c0-.5.39-.92.89-.93.01,0,.02,0,.04,0,.49,0,.89.4.89.89Z"/><path class="cls-6" d="m49.98,38.81c.5,0,.92.39.93.89,0,.5-.39.92-.89.93-.5,0-.92-.39-.93-.89,0,0,0-.02,0-.03,0-.49.38-.89.87-.9,0,0,.01,0,.02,0Z"/><path class="cls-6" d="m54.54,39.7c0,.5-.39.92-.89.93-.5,0-.92-.39-.93-.89s.39-.92.89-.93c.01,0,.03,0,.04,0,.49,0,.88.4.88.88,0,0,0,0,0,0Z"/><path class="cls-6" d="m57.24,38.81c.5,0,.92.39.93.89,0,.5-.39.92-.89.93-.5,0-.92-.39-.93-.89,0,0,0-.02,0-.03,0-.49.39-.89.88-.9,0,0,0,0,0,0Z"/><path class="cls-6" d="m43.65,43.36c-.02.5-.44.89-.94.88s-.89-.44-.88-.94.44-.89.94-.88c0,0,.01,0,.02,0,.49.01.87.42.86.91,0,.01,0,.02,0,.03Z"/><path class="cls-6" d="m50.91,46.94c.02.5-.38.92-.88.94-.5.02-.92-.38-.94-.88s.38-.92.88-.94c.01,0,.02,0,.04,0,.49,0,.89.38.9.87,0,0,0,0,0,.01Z"/><path class="cls-6" d="m53.62,46.06c.5,0,.91.4.91.9,0,.5-.4.91-.9.91s-.91-.4-.91-.9c0-.01,0-.02,0-.04,0-.49.4-.88.89-.88,0,0,0,0,.01,0Z"/><path class="cls-6" d="m58.17,46.99c-.01.5-.43.9-.93.88-.5-.01-.9-.43-.88-.93.01-.5.43-.9.93-.88,0,0,.02,0,.03,0,.49.02.87.42.85.91,0,0,0,.01,0,.02Z"/><path class="cls-6" d="m42.74,46.06c.5,0,.91.41.9.91s-.41.91-.91.9c-.5,0-.91-.41-.9-.91,0,0,0-.02,0-.03,0-.49.41-.88.9-.87,0,0,.01,0,.02,0Z"/><path class="cls-6" d="m57.23,44.22c-.5-.07-.84-.53-.77-1.03.06-.42.4-.74.83-.78.5-.04.94.33.98.83.04.5-.33.94-.83.98-.07,0-.13,0-.2,0Z"/><path class="cls-6" d="m54.54,43.35c-.01.5-.43.9-.93.88-.5-.01-.9-.43-.88-.93.01-.5.43-.9.93-.88,0,0,.01,0,.02,0,.49.01.87.42.86.91,0,0,0,.02,0,.03Z"/><path class="cls-6" d="m49.98,42.42c.5,0,.92.39.93.89s-.39.92-.89.93c-.5,0-.92-.39-.93-.89,0-.01,0-.02,0-.04,0-.49.39-.89.88-.89,0,0,0,0,.01,0Z"/><path class="cls-6" d="m47.28,43.34c0,.5-.42.9-.92.9-.5,0-.9-.42-.9-.92,0-.5.42-.9.92-.9,0,0,.01,0,.02,0,.49,0,.88.4.88.89,0,.01,0,.02,0,.03Z"/><path class="cls-6" d="m47.28,46.98c0,.49-.41.89-.9.89-.02,0-.04,0-.06,0-.5-.03-.89-.45-.86-.96.03-.5.45-.89.96-.86.49.03.87.43.86.92Z"/><path class="cls-7" d="m40.04,56.95v-1.8h19.94v1.8h-19.94Z"/><path class="cls-12" d="m59.97,63.32c-.14,5.51-4.71,9.86-10.22,9.73-5.32-.13-9.6-4.41-9.73-9.73h19.95Zm-6.18,6.13c.11-.02.21-.06.29-.12.92-.59,1.68-1.41,2.21-2.37.22-.39.09-.89-.31-1.11,0,0-.02-.01-.03-.02-.39-.27-.93-.17-1.2.22-.46.69-1.04,1.3-1.7,1.8-.31.24-.41.67-.23,1.02.11.37.4.55.96.58Zm-3.19-.69c-.24-.02-.49-.02-.73,0-.46.04-.8.43-.78.89-.04.46.3.86.75.9,0,0,0,0,0,0,.47.08.94.04,1.39-.13.33-.12.55-.43.57-.78.02-.35-.17-.68-.48-.84-.25-.14-.54-.04-.72-.05Z"/><path class="cls-5" d="m59.97,63.32h-19.95v-4.56h19.95v4.56Z"/><path class="cls-10" d="m59.97,58.75h-19.95v-1.8h19.94v1.8Z"/><path class="cls-9" d="m53.79,69.44c-.53,0-.82-.2-.97-.6-.17-.35-.08-.78.23-1.02.66-.51,1.23-1.12,1.7-1.8.27-.39.81-.49,1.2-.22.4.21.56.7.35,1.1,0,0-.01.02-.02.03-.53.96-1.29,1.78-2.21,2.37-.09.07-.18.12-.29.14Z"/><path class="cls-9" d="m50.6,68.75c.17,0,.47-.09.72.06.32.16.51.49.48.84-.01.35-.24.66-.57.78-.44.16-.92.2-1.39.13-.46-.04-.8-.44-.76-.9,0,0,0,0,0,0-.02-.46.32-.85.78-.89.24-.02.49-.02.73,0Z"/><path d="m25.49,35.1l-1.07,2.5-6.36-2.73,3.42,4.82-.12.28-5.85.83,6.36,2.73-1.07,2.5-10.93-4.69,1.07-2.5,6.13-.88-3.58-5.05,1.07-2.5,10.93,4.69Z"/><path d="m18.15,27.8c-.65-.53-.75-1.51-.22-2.15.53-.65,1.51-.75,2.15-.22s.75,1.51.22,2.15c-.53.65-1.51.75-2.15.22Zm1.93,1.24l1.61-1.98,6.59,5.37-1.61,1.98-6.59-5.37Z"/><path d="m26.01,28.32c-1.6-1.96-1.35-4.69.65-6.32,1.28-1.04,2.96-1.3,4.35-.75l-.91,2.41c-.6-.28-1.3-.17-1.88.31-.86.7-.98,1.83-.24,2.74.74.91,1.88,1.01,2.74.31.58-.47.84-1.15.67-1.78l2.53-.42c.27,1.49-.29,3.07-1.58,4.13-2,1.63-4.72,1.34-6.33-.62Z"/><path d="m36.46,16.24l1.27,2.59c-1.02.31-2.18,1.35-1.44,2.86l1.69,3.45-2.29,1.12-3.74-7.63,2.29-1.12.67,1.36c-.2-1.17.59-2.16,1.55-2.63Z"/><path d="m39.19,19.73c-.55-2.47.99-4.81,3.43-5.35s4.82.94,5.36,3.41c.55,2.47-.99,4.81-3.43,5.35-2.44.54-4.82-.94-5.36-3.41Zm6.31-1.39c-.26-1.18-1.26-1.78-2.34-1.54-1.08.24-1.74,1.2-1.48,2.38.26,1.18,1.26,1.78,2.34,1.54,1.08-.24,1.74-1.2,1.48-2.38Z"/><path d="m59.06,18.57c-.24,2.52-2.26,4.29-4.48,4.08-1.13-.11-1.93-.58-2.42-1.28l-.4,4.18-2.54-.24,1.14-11.85,2.54.25-.08.79c.62-.59,1.49-.9,2.62-.79,2.22.21,3.86,2.34,3.62,4.86Zm-2.54-.24c.12-1.27-.65-2.15-1.82-2.26-1.17-.11-2.09.6-2.21,1.87-.12,1.27.65,2.15,1.81,2.26,1.17.11,2.09-.6,2.21-1.87Z"/><path d="m68.83,21.48l-2.05,4.8-2.35-1,1.9-4.46c.41-.97,0-1.68-.75-2-.86-.37-1.67-.12-2.14.99l-1.82,4.27-2.35-1,4.68-10.95,2.35,1-1.65,3.86c.67-.4,1.61-.44,2.64,0,1.58.67,2.44,2.38,1.54,4.49Z"/><path d="m70.02,23.29c1.64-1.93,4.44-2.11,6.34-.49,1.9,1.62,2.16,4.41.52,6.34-1.64,1.93-4.44,2.11-6.34.49-1.9-1.62-2.16-4.41-.52-6.34Zm4.91,4.19c.79-.92.66-2.08-.19-2.79-.84-.72-2.01-.66-2.79.26-.78.92-.65,2.08.19,2.79.84.72,2.01.66,2.79-.26Z"/><path d="m83.28,37.03l-4.41,2.79-1.36-2.15,4.09-2.59c.89-.56.95-1.39.52-2.08-.5-.79-1.3-1.04-2.33-.4l-3.92,2.48-1.36-2.16,7.18-4.54,1.36,2.16-.68.43c.78.05,1.58.55,2.18,1.5.92,1.45.67,3.34-1.27,4.57Z"/><path d="m82.35,44.34c.18.67.6,1.17,1.05,1.4l-.59,2.28c-1.34-.5-2.24-1.55-2.67-3.11-.77-2.8.64-5.06,3.09-5.73,2.44-.67,4.81.59,5.52,3.18.66,2.39-.71,4.67-3.19,5.35-.35.09-.68.15-1.01.17l-1.59-5.82c-.77.54-.86,1.38-.61,2.28Zm3.4.69c.88-.52,1.02-1.36.82-2.09-.25-.93-.88-1.43-1.79-1.43l.97,3.53Z"/></svg>