<?xml version="1.0" encoding="UTF-8"?><svg id="Layer_1" xmlns="http://www.w3.org/2000/svg" viewBox="0 0 100 100"><defs><style>.cls-1{fill:#009245;}.cls-2{fill:#72b3e2;}.cls-3{fill:none;stroke:#0018c6;stroke-miterlimit:10;stroke-width:4px;}.cls-4{fill:#72b2e2;}</style></defs><path class="cls-4" d="m49.36,29c3.77,0,6.41,1.12,8.68,3.17.65.59.74,1.29.25,1.81s-1.14.54-1.82-.09c-1.83-1.76-4.3-2.7-6.83-2.58-2.12.06-4.15.86-5.74,2.26-.2.17-.39.35-.6.51-.49.39-1.21.31-1.61-.18-.36-.45-.33-1.08.06-1.5.6-.65,1.3-1.2,2.06-1.65,1.65-1.08,3.57-1.69,5.54-1.77Z"/><path class="cls-2" d="m49.9,33.18c2.17-.01,4.26.79,5.85,2.25.68.65.77,1.29.29,1.81s-1.14.52-1.82-.08c-2.37-2.18-6.02-2.18-8.39,0-.7.61-1.29.65-1.82.12s-.43-1.19.25-1.81c1.53-1.43,3.54-2.25,5.64-2.29Z"/><path class="cls-2" d="m50.01,37.37c1.32.02,2.6.52,3.58,1.4.53.37.65,1.1.28,1.63-.02.03-.04.06-.06.08-.41.49-1.13.56-1.63.15-.03-.03-.06-.05-.09-.08-1.51-1.14-2.64-1.14-4.14,0-.44.46-1.17.48-1.63.04-.05-.04-.09-.09-.13-.15-.39-.53-.27-1.27.26-1.66.02-.01.04-.03.05-.04.97-.86,2.22-1.35,3.52-1.37Z"/><path class="cls-1" d="m70.64,62.42c-1.46-5.28,3.31-16.54-4.95-17.21-10.33,0-20.65,0-30.97,0-8.75.2-3.92,11.84-5.36,17.22,0,2.24,0,4.48.01,6.71,1.46,5.25-3.25,16.13,4.63,17.22,0,0,31.99,0,31.99,0,7.93-1.05,3.19-11.97,4.66-17.22v-6.72Z"/><circle class="cls-3" cx="50" cy="50" r="45"/><path d="m26.25,32.44l-1.25,2.23-5.69-3.18,2.74,4.85-.14.25-5.56.21,5.69,3.18-1.25,2.23-9.78-5.46,1.25-2.23,5.83-.23-2.86-5.08,1.25-2.23,9.78,5.46Z"/><path d="m24.14,29.15c-1.57-1.79-1.37-4.42.4-5.97,1.77-1.55,4.4-1.41,5.97.38,1.57,1.79,1.36,4.42-.4,5.97-1.77,1.55-4.4,1.41-5.97-.38Zm4.57-4.01c-.75-.85-1.84-.89-2.63-.21-.78.69-.89,1.78-.14,2.63.75.85,1.85.89,2.63.21.78-.69.89-1.78.14-2.63Z"/><path d="m36.49,12.67l4.65,10.19-2.18,1-.31-.68c-.23.77-.79,1.43-1.76,1.88-1.91.87-4.24-.09-5.23-2.26-.99-2.17-.18-4.56,1.73-5.43.98-.45,1.84-.44,2.58-.1l-1.64-3.59,2.18-1Zm.8,7.54c-.5-1.09-1.54-1.44-2.54-.99s-1.42,1.47-.92,2.57c.5,1.09,1.54,1.44,2.54.99,1-.46,1.42-1.47.92-2.57Z"/><path d="m45.88,20.15c.65-.09,1.17-.42,1.44-.81l2.05.83c-.63,1.19-1.72,1.9-3.23,2.11-2.71.38-4.64-1.21-4.97-3.58-.33-2.36,1.13-4.42,3.63-4.77,2.31-.32,4.28,1.23,4.61,3.63.05.33.06.65.04.96l-5.63.78c.42.78,1.18.97,2.06.85Zm1.06-3.09c-.38-.88-1.14-1.12-1.85-1.02-.9.13-1.44.65-1.55,1.49l3.41-.47Z"/><path d="m63.22,18.93l-1.02,4.8-2.35-.5.98-4.6c.17-.78-.1-1.36-.85-1.52-.78-.17-1.34.29-1.53,1.21l-.94,4.41-2.35-.5.98-4.6c.17-.78-.1-1.36-.85-1.52-.78-.17-1.34.29-1.53,1.21l-.94,4.41-2.35-.5,1.66-7.82,2.35.5-.15.72c.47-.46,1.25-.72,2.3-.49.92.2,1.53.72,1.83,1.47.57-.53,1.38-.79,2.49-.55,1.8.38,2.7,1.92,2.28,3.87Z"/><path d="m65.9,19.41l5.23,3.1-1.17,1.98-5.23-3.1,1.17-1.98Z"/><path d="m76.77,31.05c-1.75,1.74-4.01,1.28-5.53-.25-1.19-1.2-1.74-2.82-1.06-4.47l2.46.66c-.34.7-.32,1.36.37,2.05.74.75,1.47.68,1.96.2.49-.48.56-1.21-.19-1.96l-.37-.37.34-1.72,3.26-.37-2.89-2.9,1.7-1.69,5.07,5.11-1.48,1.47-3.11.36c.63,1.31.56,2.81-.54,3.9Z"/><path d="m84.47,41.49c-3.06,1.52-5.99.31-7.38-2.49-1.57-3.15-.37-6.57,2.51-8,2.91-1.44,6.37-.29,7.84,2.66.95,1.92.81,4.01-.12,5.52l-2.08-1.39c.45-.74.52-1.9-.04-3.03-.84-1.69-2.71-2.33-4.47-1.46-1.71.85-2.35,2.67-1.39,4.62.66,1.33,1.68,1.91,2.82,1.8l-1.33-2.68,2-1,2.5,5.03-.86.43Z"/><path d="m42.34,63.18c1.25.39,2.25,1.06,3.02,2.01.76.95,1.15,2.1,1.15,3.44,0,2.11-.69,3.73-2.07,4.86-1.38,1.14-3.08,1.7-5.11,1.7-1.62,0-3.06-.37-4.32-1.12-1.26-.75-2.17-1.84-2.72-3.3l4.36-2.49c.41,1.36,1.3,2.04,2.68,2.04.71,0,1.25-.17,1.63-.5.38-.33.57-.78.57-1.34s-.19-1-.57-1.33c-.38-.33-.93-.49-1.63-.49h-1.06l-1.93-2.85,3.13-3.83h-6.57v-4.78h12.71v3.94l-3.27,4.02Z"/><path d="m68.19,63.58v1.98c0,2.87-.9,5.19-2.7,6.97-1.8,1.78-4.13,2.67-7,2.67-3.06,0-5.56-.98-7.53-2.93-1.97-1.96-2.95-4.37-2.95-7.24s.98-5.29,2.93-7.26c1.96-1.97,4.38-2.96,7.26-2.96,1.83,0,3.5.41,5.02,1.23,1.52.82,2.71,1.91,3.56,3.27l-4.25,2.43c-.39-.62-.96-1.11-1.72-1.48-.75-.37-1.61-.56-2.56-.56-1.55,0-2.81.5-3.8,1.51s-1.48,2.29-1.48,3.86.49,2.79,1.47,3.83c.98,1.04,2.35,1.56,4.12,1.56,2.27,0,3.77-.86,4.5-2.57h-4.75v-4.3h9.86Z"/></svg>