<?xml version="1.0" encoding="UTF-8"?><svg id="Layer_1" xmlns="http://www.w3.org/2000/svg" viewBox="0 0 100 100"><defs><style>.cls-1{fill:none;stroke:#0018c6;stroke-miterlimit:10;stroke-width:4px;}.cls-2{fill:#fbe501;}.cls-3{fill:#f9f3b1;}.cls-4{fill:#06687f;}.cls-5{fill:#7dcbe5;}.cls-6{fill:#eecf15;}.cls-7{fill:#e5eff1;}.cls-8{fill:#9fddea;}</style></defs><circle class="cls-1" cx="50" cy="50" r="45"/><path d="m22.11,38.17l-.67,2.47-6.29-1.69,3.84,4.03-.08.28-5.34,1.56,6.29,1.69-.67,2.47-10.82-2.91.67-2.47,5.59-1.64-4.02-4.23.67-2.47,10.82,2.91Z"/><path d="m20.49,26.67l6.59,4.54-1.36,1.98-.62-.43c.24.69.11,1.57-.49,2.44-.92,1.33-2.64,1.81-4.42.59l-4.05-2.78,1.36-1.98,3.76,2.59c.82.56,1.55.31,1.99-.32.5-.73.42-1.52-.51-2.16l-3.6-2.48,1.36-1.98Z"/><path d="m19.97,22.03l1.73-1.66,8.09,8.42-1.73,1.66-8.09-8.42Z"/><path d="m30.01,21.46l1.62,2.32c.39.56.92.28,1.75-.38l1.25,1.79c-2.39,2.06-3.68,1.81-4.96-.03l-1.62-2.32-1.05.73-1.32-1.89,1.05-.73-.87-1.25,1.56-1.96,1.28,1.84,1.35-.94,1.32,1.89-1.35.94Z"/><path d="m30.79,15.79c-.35-.7-.05-1.58.65-1.93s1.58-.05,1.93.66c.35.7.05,1.58-.66,1.93-.7.35-1.58.05-1.93-.65Zm1.16,1.82l2.15-1.06,3.54,7.18-2.15,1.06-3.54-7.18Z"/><path d="m37.19,17.39l5.85-1.65.62,2.22-5.85,1.65-.62-2.22Z"/><path d="m45.31,17.25c-.06-2.38,1.7-4.27,4.13-4.33,1.55-.04,2.95.74,3.66,1.96l-2.07,1.27c-.29-.55-.87-.87-1.57-.86-1.04.03-1.79.8-1.76,1.9.03,1.1.81,1.84,1.85,1.81.7-.02,1.29-.37,1.53-.93l2.12,1.15c-.66,1.26-2,2.11-3.56,2.15-2.43.06-4.28-1.73-4.34-4.12Z"/><path d="m63.28,15.3l-1.94,7.76-2.33-.58.18-.73c-.66.46-1.51.63-2.55.37-2.03-.51-3.26-2.71-2.68-5.02.58-2.31,2.7-3.68,4.73-3.17,1.04.26,1.71.81,2.07,1.53l.18-.73,2.33.58Zm-3.3,3.3c.29-1.16-.3-2.09-1.37-2.36-1.07-.27-2.03.27-2.32,1.43-.29,1.16.3,2.09,1.37,2.35s2.03-.27,2.32-1.43Z"/><path d="m74.92,25.87l-2.78,4.05-1.98-1.36,2.67-3.87c.45-.66.43-1.3-.2-1.73-.66-.45-1.35-.25-1.88.53l-2.56,3.72-1.98-1.36,2.67-3.87c.45-.66.43-1.3-.21-1.73-.66-.45-1.35-.25-1.88.53l-2.56,3.72-1.98-1.36,4.54-6.59,1.98,1.36-.42.61c.61-.24,1.43-.18,2.31.42.78.54,1.14,1.25,1.13,2.06.73-.27,1.57-.2,2.51.45,1.52,1.04,1.76,2.8.63,4.45Z"/><path d="m76.34,32.93c.38.53.92.84,1.39.89l.22,2.2c-1.34,0-2.49-.64-3.37-1.87-1.6-2.22-1.09-4.67.85-6.06,1.94-1.39,4.44-1.06,5.91.99,1.36,1.9.9,4.36-1.06,5.77-.27.2-.55.36-.84.48l-3.31-4.61c-.5.73-.3,1.5.21,2.21Zm3.23-.5c.6-.75.46-1.53.04-2.12-.53-.74-1.25-.97-2.04-.68l2.01,2.79Z"/><path d="m86.56,39.23l-2.51,1.04c-.23-.98-1.14-2.12-2.6-1.51l-3.34,1.39-.92-2.22,7.38-3.07.92,2.21-1.31.55c1.11-.12,2,.68,2.38,1.61Z"/><path d="m88.46,49.41l-7.9,1.27-.38-2.37.74-.12c-.68-.42-1.17-1.14-1.34-2.2-.33-2.07,1.21-4.07,3.56-4.45,2.35-.38,4.44,1.03,4.78,3.1.17,1.06-.07,1.89-.58,2.51l.74-.12.38,2.37Zm-4.33-1.73c1.18-.19,1.8-1.1,1.62-2.19-.18-1.09-1.05-1.76-2.23-1.57-1.18.19-1.8,1.1-1.62,2.19.17,1.09,1.04,1.76,2.23,1.57Z"/><path class="cls-4" d="m73.65,61.54v19.33c.19,2.09-1.36,3.94-3.45,4.12-.24.02-.48.02-.71,0H30.84c-2.26.16-4.21-1.55-4.36-3.8-.01-.19-.01-.39,0-.58v-38.17c0-2.98,1.65-4.6,4.69-4.61h38.03c2.26-.19,4.25,1.48,4.44,3.74.02.22.02.45,0,.67v19.32Zm-25.53,9.76c0-4.33-3.51-7.83-7.83-7.83-4.33,0-7.83,3.51-7.83,7.83,0,4.33,3.51,7.83,7.83,7.83,0,0,0,0,.01,0,4.31-.03,7.8-3.52,7.82-7.83Zm0-19.68c0-4.33-3.5-7.84-7.82-7.85-4.33,0-7.84,3.5-7.85,7.82,0,4.31,3.47,7.81,7.78,7.85,4.29.07,7.82-3.35,7.89-7.63,0-.06,0-.11,0-.17v-.02Zm11.73,7.82c4.33.01,7.86-3.49,7.87-7.82.01-4.33-3.49-7.86-7.82-7.87-4.33-.01-7.86,3.49-7.87,7.82,0,.01,0,.02,0,.04,0,4.33,3.5,7.85,7.83,7.86,0,0,0,0,.01,0l-.02-.02Zm5.98,11.86v-3.68c.14-1.06-.6-2.03-1.66-2.17-.15-.02-.3-.02-.45,0h-7.59c-1.02-.12-1.95.62-2.07,1.64-.02.14-.02.29,0,.44v7.59c-.09,1.05.69,1.98,1.74,2.07.11,0,.23,0,.34,0h7.59c1.07.08,2-.72,2.08-1.78,0-.11,0-.21,0-.32.04-1.27.01-2.53.01-3.76Z"/><path class="cls-5" d="m48.12,71.3c-.05,4.33-3.6,7.79-7.93,7.74-4.33-.05-7.79-3.6-7.74-7.93.05-4.29,3.54-7.74,7.83-7.74,4.35.03,7.86,3.58,7.83,7.93h0Zm-11.73-1.09v.91c-.03,1.74,1.05,3.3,2.69,3.88,2.07.66,4.29-.48,4.95-2.56.38-1.19.17-2.48-.55-3.49-.88-1.23-2.43-1.81-3.91-1.45-2.44-.06-3.25.65-3.17,2.73v-.02Z"/><path class="cls-5" d="m48.12,51.64c0,4.33-3.52,7.83-7.85,7.82-4.33,0-7.83-3.52-7.82-7.85,0-4.33,3.52-7.83,7.85-7.82.02,0,.05,0,.07,0,4.29,0,7.76,3.49,7.75,7.77,0,.02,0,.05,0,.07Zm-11.53-.72c-.43,1.47.11,3.05,1.35,3.95,1.38.99,3.23.99,4.61,0,1.23-.84,1.87-2.31,1.64-3.78-.25-2.03-2.09-3.47-4.11-3.22-.16.02-.33.05-.49.09-1.22-.44-2.56.2-3,1.42-.18.51-.18,1.06,0,1.57v-.04Z"/><path class="cls-5" d="m59.87,59.46c-4.33-.05-7.81-3.59-7.76-7.93.05-4.33,3.59-7.81,7.93-7.76,4.31.05,7.78,3.56,7.76,7.87-.05,4.34-3.59,7.84-7.93,7.82Zm-3.69-8.56c-.57,1.01,0,1.86.41,2.7.82,1.45,2.47,2.22,4.1,1.91,1.5-.34,2.68-1.49,3.06-2.98.43-1.73-.39-3.52-1.97-4.34-.89-.44-1.9-.6-2.88-.46-2.04-.06-3.3,1.34-2.72,3.17Z"/><path class="cls-2" d="m65.83,71.3v3.79c.08,1.07-.72,2-1.78,2.08-.1,0-.2,0-.31,0h-7.59c-1.05.1-1.98-.67-2.09-1.72-.01-.12-.01-.24,0-.36v-7.59c-.12-1.02.62-1.95,1.64-2.06.14-.02.28-.02.42,0h7.59c1.06-.1,2.01.68,2.11,1.75.01.14.01.28,0,.42.02,1.21.01,2.43.01,3.69Zm-6.91-1.01h3.66c.73,0,1.17-.3,1.17-1.08s-.59-.76-1.17-.76h-2.94c-.12-.57-.59-1.01-1.17-1.07-.99-.02-1.88.57-2.24,1.49-.38.57-.27,1.33.25,1.77.81.68,1.57.28,2.35-.23.03-.05.07-.1.11-.15v.04Zm.97,3.92h2.86c.52.03.96-.36,1-.87,0-.05,0-.1,0-.15,0-.67-.41-.82-.97-.81h-5.73c-.49-.07-.94.26-1.01.75-.01.07-.01.15,0,.23,0,.49.4.88.88.88.04,0,.08,0,.11,0,1.01-.06,1.91-.05,2.87-.05v.04Z"/><path class="cls-8" d="m39.57,67.52c1.47-.36,3.01.2,3.91,1.43,1.27,1.76.88,4.23-.89,5.5-1.02.74-2.34.94-3.53.55-1.63-.59-2.71-2.15-2.69-3.88v-.91c.47.61,1.25.87,1.99.68.13,1.85,1.17,2.77,2.58,2.22.99-.37,1.49-1.48,1.11-2.46-.27-.97-1.27-1.55-2.25-1.31.2-.61.11-1.27-.23-1.81Z"/><path class="cls-7" d="m39.57,67.52c.37.54.47,1.21.27,1.83-.26.73-.91,1.08-1.44,1.56-.74.19-1.53-.07-1.99-.68-.08-2.09.73-2.79,3.17-2.71Z"/><path class="cls-8" d="m39.59,47.93c1.97-.51,3.99.67,4.5,2.65.04.16.07.32.09.49.24,1.48-.4,2.97-1.64,3.81-1.38.99-3.23.99-4.61,0-1.22-.89-1.75-2.44-1.35-3.89.53.4,1.24.5,1.85.25,0,1.72,1.17,2.81,2.46,2.35.89-.23,1.47-1.1,1.34-2.02-.14-1.17-1-1.69-2.42-1.69.29-.64.2-1.39-.23-1.94Z"/><path class="cls-7" d="m38.44,51.17c-.62.25-1.32.16-1.85-.25-.43-1.22.21-2.56,1.43-2.99.51-.18,1.07-.18,1.57,0,.4.53.49,1.23.23,1.84-.36.56-.83,1.03-1.38,1.4Z"/><path class="cls-8" d="m58.89,47.73c.99-.15,1.99.01,2.88.46,1.58.82,2.4,2.61,1.97,4.34-.39,1.48-1.57,2.61-3.06,2.94-1.64.31-3.29-.46-4.1-1.91-.45-.83-.99-1.69-.41-2.69.54.32,1.16.47,1.78.43,0,.97.33,1.86,1.4,2.08.93.33,1.95-.12,2.35-1.02.62-1.42-.28-2.54-2.18-2.66.19-.72-.05-1.49-.62-1.97Z"/><path class="cls-7" d="m58.89,47.73c.6.48.87,1.26.67,2.01-.45.62-.99,1.16-1.61,1.62-.62.04-1.25-.11-1.78-.43-.57-1.85.68-3.25,2.72-3.19Z"/><path class="cls-6" d="m59.89,74.17h-2.87c-.48.06-.92-.27-.99-.75,0-.04,0-.08,0-.11-.05-.49.3-.93.79-.98.08,0,.15,0,.23,0h5.73c.56,0,.99.14.97.81.05.52-.33.97-.85,1.02-.05,0-.1,0-.15,0-.95.02-1.91.01-2.86.01Z"/><path class="cls-3" d="m58.92,70.25c-.07.03-.14.07-.2.12-.72.52-1.48.91-2.35.23-.52-.44-.62-1.2-.25-1.77.36-.92,1.25-1.51,2.24-1.49.58.06,1.06.49,1.17,1.07,0,.67-.21,1.32-.62,1.84Z"/><path class="cls-6" d="m58.92,70.25c.44-.51.7-1.16.72-1.84h2.98c.55,0,1.17,0,1.17.76s-.45,1.09-1.17,1.08h-3.69Z"/><path class="cls-5" d="m38.39,70.91c.53-.48,1.17-.83,1.44-1.56.98-.24,1.98.34,2.25,1.31.37.99-.13,2.09-1.11,2.46-1.38.52-2.45-.36-2.58-2.22Z"/><path class="cls-5" d="m38.44,51.17c.55-.36,1.02-.84,1.38-1.4,1.42,0,2.28.55,2.42,1.69.13.91-.44,1.78-1.34,2.02-1.31.5-2.47-.59-2.46-2.31Z"/><path class="cls-5" d="m57.96,51.36c.61-.45,1.16-.99,1.61-1.61,1.9.12,2.8,1.24,2.18,2.66-.39.9-1.42,1.35-2.35,1.02-1.11-.22-1.37-1.11-1.44-2.08Z"/></svg>