<?xml version="1.0" encoding="UTF-8"?><svg id="Layer_1" xmlns="http://www.w3.org/2000/svg" viewBox="0 0 100 100"><defs><style>.cls-1{fill:none;stroke:#0018c6;stroke-miterlimit:10;stroke-width:4px;}.cls-2{fill:#d1d1d1;}.cls-3{fill:#333;}.cls-4{fill:#199dbc;}</style></defs><circle class="cls-1" cx="50" cy="50" r="45"/><path class="cls-4" d="m40.15,87.4c-.19-.22-.47-.17-.71-.23-3.86-.94-6.43-4.28-6.43-8.41,0-9.43,0-18.87,0-28.3,0-3.93-.03-7.87.01-11.8.04-3.59,1.69-6.22,4.93-7.8,1.09-.53,2.25-.75,3.46-.75,5.72,0,11.45-.02,17.17,0,4.72.02,8.38,3.66,8.39,8.43.03,13.48.03,26.96,0,40.44,0,4.11-2.73,7.37-6.69,8.25-.22.05-.48-.06-.66.16h-19.47Zm9.8-33.1c3.8,0,7.6,0,11.4,0,1.27,0,1.83-.56,1.83-1.84,0-5.03,0-10.06,0-15.1,0-1.34-.55-1.89-1.9-1.89-7.53,0-15.06,0-22.59,0-1.34,0-1.89.55-1.89,1.9,0,5.01,0,10.03,0,15.04,0,1.34.54,1.88,1.9,1.88,3.75,0,7.49,0,11.24,0Zm3.54,7.42c-.01-1.9-1.55-3.43-3.45-3.43-1.91,0-3.5,1.58-3.47,3.48.03,1.89,1.59,3.44,3.46,3.45,1.9,0,3.47-1.58,3.46-3.49h0Zm4.8-.23c0,.63,0,1.27,0,1.9.01.61.28.9.89.92.97.02,1.94.02,2.91,0,.58-.01.86-.3.87-.87.02-1.3.02-2.61,0-3.92,0-.61-.3-.87-.91-.88-.95,0-1.9,0-2.85,0-.61,0-.89.29-.9.89-.01.65,0,1.3,0,1.96h0Zm-21.16.25c0,.65,0,1.3,0,1.96.01.58.28.86.85.87.97.01,1.94.01,2.91,0,.59,0,.88-.26.89-.84.02-1.32.02-2.65,0-3.97,0-.53-.3-.84-.83-.85-.99-.02-1.98-.03-2.96,0-.61.02-.85.31-.86.93,0,.63,0,1.27,0,1.9h0Zm23.04,14.61h0c.63,0,1.27.02,1.9-.01.58-.03.86-.38.9-1,.08-1.38-.11-1.89-.77-2.02-.05-.01-.11-.02-.17-.02-1.25,0-2.5-.02-3.74,0-.56,0-.88.37-.91.93-.02.39-.02.78,0,1.17.03.6.34.92.95.94.61.02,1.23,0,1.84,0Zm-20.28,5.68c.32,0,.63-.01.95,0,1.93.1,1.91-.37,1.87-1.95-.02-.79-.34-1.1-1.13-1.11-.84,0-1.68.02-2.51,0-2.09-.08-1.97.31-1.94,2.08,0,.63.35.96.98.98.6.02,1.19,0,1.79,0Zm10.3-5.68h0c.56,0,1.12,0,1.68,0,.84-.01,1.15-.32,1.16-1.14,0-.26,0-.52,0-.78-.01-.79-.34-1.13-1.12-1.13-.84,0-1.68.03-2.51,0-2.16-.09-1.98.42-1.96,2.08,0,.63.34.96.97.98.59.02,1.19,0,1.79,0h0Zm.07,2.62h0c-.63,0-1.27-.01-1.9,0-.57.02-.89.35-.92.91-.02.35-.01.71,0,1.06.01.72.34,1.06,1.06,1.07.86.01,1.71-.03,2.57,0,2.15.09,1.98-.42,1.96-2.08,0-.63-.35-.96-.97-.98-.6-.02-1.19,0-1.79,0h0Zm9.87,3.06c.32,0,.63-.01.95,0,1.97.1,1.92-.39,1.89-1.98,0-.06,0-.11,0-.17-.07-.57-.37-.89-.94-.9-1.23-.02-2.46-.02-3.69,0-.61,0-.93.34-.96.93-.02.39-.02.78,0,1.17.03.59.36.92.96.94.59.02,1.19,0,1.79,0h0Zm-9.91-11.27c.28,0,.56-.01.84,0,2.08.09,1.98-.32,1.97-2.07,0-.02,0-.04,0-.06-.05-.56-.37-.92-.92-.93-1.25-.02-2.5-.02-3.74,0-.56,0-.89.36-.92.92-.02.37-.02.75,0,1.12.02.66.34.99,1,1.01.6.02,1.19,0,1.79,0Zm9.91,0h0c.63,0,1.27.02,1.9,0,.6-.03.9-.35.94-.96.11-1.34-.09-1.9-.73-2.06-.05-.01-.11-.02-.17-.02-1.27,0-2.53-.02-3.8,0-.55.01-.87.37-.9.94-.02.37-.01.75,0,1.12.02.63.33.96.96.99.6.02,1.19,0,1.79,0h0Zm-20.23,0h0c.63,0,1.27.02,1.9-.02.74-.04.92-.4.92-1.71,0-.89-.26-1.31-.92-1.33-1.25-.03-2.5-.02-3.74,0-.56,0-.89.36-.92.92-.02.37-.02.75,0,1.12.02.67.32.99.99,1.02.6.02,1.19,0,1.79,0h0Zm-.01,5.59h0c.63,0,1.27.02,1.9-.01.59-.03.88-.36.93-.98.1-1.35-.1-1.9-.74-2.05-.09-.02-.18-.03-.28-.03-1.19,0-2.38-.01-3.58,0-.63,0-.97.35-.99.96-.02.37-.01.75,0,1.12.02.63.34.95.98.97.6.02,1.19,0,1.79,0h0Z"/><path class="cls-2" d="m49.95,54.31h-11.24c-1.36,0-1.9-.54-1.9-1.88,0-5.01,0-10.03,0-15.04,0-1.35.55-1.9,1.89-1.9,7.53,0,15.06,0,22.59,0,1.35,0,1.9.55,1.9,1.89,0,5.03,0,10.06,0,15.1,0,1.28-.56,1.84-1.83,1.84-3.8,0-7.6,0-11.4,0Z"/><path class="cls-3" d="m53.49,61.73c.01,1.92-1.56,3.5-3.46,3.49-1.87,0-3.43-1.56-3.46-3.45-.03-1.89,1.56-3.48,3.47-3.48,1.9,0,3.43,1.53,3.45,3.43Z"/><path class="cls-3" d="m58.28,61.5c0-.65-.01-1.31,0-1.96.01-.61.29-.89.9-.89.95-.01,1.9-.01,2.85,0,.61,0,.91.27.91.88.02,1.3.02,2.61,0,3.92,0,.57-.3.86-.87.87-.97.02-1.94.02-2.91,0-.61-.01-.87-.31-.89-.92-.01-.63,0-1.27,0-1.9Z"/><path class="cls-3" d="m37.13,61.75c0-.63,0-1.27,0-1.9,0-.63.25-.92.86-.93.99-.03,1.98-.02,2.96,0,.53.01.83.32.83.85.01,1.32.02,2.65,0,3.97,0,.58-.3.83-.89.84-.97.01-1.94.01-2.91,0-.57,0-.84-.29-.85-.87-.01-.65,0-1.3,0-1.96Z"/><path class="cls-3" d="m60.17,76.36c-.61,0-1.23.02-1.84,0-.61-.02-.93-.34-.95-.94-.02-.39-.02-.78,0-1.17.03-.56.35-.92.91-.93,1.25-.02,2.5,0,3.74,0,.06,0,.11,0,.17.02.66.13.85.64.77,2.02-.04.63-.32.97-.9,1-.63.03-1.27,0-1.9,0h0Z"/><path class="cls-3" d="m39.89,82.04c-.6,0-1.19.01-1.79,0-.63-.02-.97-.35-.98-.98-.03-1.77-.15-2.16,1.94-2.08.84.03,1.68,0,2.51,0,.8,0,1.12.32,1.13,1.11.03,1.57.05,2.05-1.87,1.95-.32-.02-.63,0-.95,0Z"/><path class="cls-3" d="m50.19,76.36c-.6,0-1.19.02-1.79,0-.63-.02-.96-.35-.97-.98-.02-1.65-.2-2.17,1.96-2.08.84.04,1.68,0,2.51,0,.78,0,1.1.34,1.12,1.13,0,.26,0,.52,0,.78-.01.82-.32,1.13-1.16,1.14-.56,0-1.12,0-1.68,0h0Z"/><path class="cls-3" d="m50.25,78.99c.6,0,1.19-.01,1.79,0,.63.02.97.35.97.98.02,1.66.19,2.17-1.96,2.08-.86-.04-1.71,0-2.57,0-.72,0-1.04-.35-1.06-1.07,0-.35-.02-.71,0-1.06.03-.57.35-.89.92-.91.63-.02,1.27,0,1.9,0h0Z"/><path class="cls-3" d="m60.13,82.04c-.6,0-1.19.01-1.79,0-.6-.02-.93-.35-.96-.94-.02-.39-.02-.78,0-1.17.03-.59.35-.93.96-.93,1.23-.02,2.46-.02,3.69,0,.57,0,.88.33.94.9,0,.06,0,.11,0,.17.02,1.6.08,2.09-1.89,1.98-.32-.02-.63,0-.95,0Z"/><path class="cls-3" d="m50.22,70.78c-.6,0-1.19.02-1.79,0-.67-.02-.98-.35-1-1.01-.01-.37-.02-.75,0-1.12.03-.56.36-.91.92-.92,1.25-.02,2.5-.02,3.74,0,.55,0,.87.37.92.93,0,.02,0,.04,0,.06.02,1.76.11,2.16-1.97,2.07-.28-.01-.56,0-.84,0Z"/><path class="cls-3" d="m60.12,70.77c-.6,0-1.19.02-1.79,0-.63-.03-.94-.35-.96-.99-.01-.37-.01-.75,0-1.12.03-.57.35-.93.9-.94,1.27-.02,2.53,0,3.8,0,.06,0,.11,0,.17.02.64.16.84.72.73,2.06-.05.61-.35.94-.94.96-.63.03-1.27,0-1.9,0h0Z"/><path class="cls-3" d="m39.9,70.77c-.6,0-1.19.02-1.79,0-.67-.02-.97-.35-.99-1.02-.01-.37-.01-.75,0-1.12.03-.56.36-.91.92-.92,1.25-.02,2.5-.03,3.74,0,.66.02.92.43.92,1.33,0,1.31-.17,1.67-.92,1.71-.63.04-1.27,0-1.9,0h0Z"/><path class="cls-3" d="m39.89,76.36c-.6,0-1.19.02-1.79,0-.64-.02-.95-.34-.98-.97-.01-.37-.02-.75,0-1.12.03-.62.36-.96.99-.96,1.19-.01,2.38,0,3.58,0,.09,0,.19,0,.28.03.65.15.85.69.74,2.05-.05.62-.34.95-.93.98-.63.03-1.27,0-1.9,0h0Z"/><path d="m12.75,42.66c2.12.17,3.7,2.01,3.53,4.21l-.13,1.68,3.51.27-.2,2.55-11.17-.87.33-4.23c.17-2.2,2.01-3.77,4.13-3.61Zm-.2,2.55c-.81-.06-1.48.46-1.54,1.24l-.13,1.67,2.87.22.13-1.68c.06-.78-.52-1.4-1.33-1.47Z"/><path d="m18.41,33.86l4.59,1.74-.85,2.24-4.26-1.62c-.93-.35-1.58.07-1.86.78-.31.82-.05,1.57,1.01,1.98l4.08,1.55-.85,2.24-10.47-3.98.85-2.24,3.69,1.4c-.4-.61-.47-1.5-.1-2.48.57-1.51,2.14-2.39,4.16-1.62Z"/><path d="m20.02,32.72c-1.9-1.44-2.24-4.05-.82-5.93,1.42-1.88,4.02-2.28,5.93-.84,1.9,1.44,2.24,4.05.82,5.93-1.42,1.88-4.02,2.28-5.93.85Zm3.66-4.86c-.91-.68-1.99-.5-2.62.33-.63.83-.51,1.92.4,2.61.91.68,1.99.5,2.62-.33.62-.83.51-1.92-.4-2.61Z"/><path d="m32,19.43l2.95,3.93-1.92,1.44-2.73-3.65c-.59-.79-1.37-.79-1.99-.33-.71.53-.88,1.3-.2,2.21l2.62,3.5-1.92,1.44-4.8-6.4,1.92-1.44.45.6c0-.73.4-1.52,1.25-2.15,1.29-.97,3.08-.87,4.38.86Z"/><path d="m38.86,19.71c.61-.23,1.05-.67,1.22-1.11l2.19.35c-.35,1.3-1.26,2.24-2.68,2.78-2.56.97-4.8-.15-5.64-2.38-.84-2.23.12-4.56,2.49-5.46,2.18-.83,4.44.25,5.3,2.51.12.31.2.62.25.93l-5.31,2.01c.58.67,1.37.68,2.19.37Zm.35-3.25c-.57-.78-1.36-.84-2.03-.58-.85.32-1.26.96-1.19,1.8l3.22-1.22Z"/><path d="m56.05,20.21l-2.01-3.87-.52,3.5-2.37-.35,1.65-11.08,2.37.35-.99,6.63,2.89-3.11,2.77.41-3.47,3.53,2.37,4.4-2.69-.4Z"/><path d="m62.94,20.44c.6.26,1.22.24,1.65.05l1.33,1.77c-1.15.69-2.46.74-3.85.14-2.51-1.08-3.35-3.44-2.41-5.63.94-2.19,3.25-3.2,5.57-2.21,2.15.92,3.02,3.26,2.07,5.48-.13.31-.29.59-.47.84l-5.22-2.23c-.05.88.52,1.44,1.32,1.78Zm2.5-2.1c.13-.95-.4-1.55-1.06-1.83-.84-.36-1.57-.19-2.1.48l3.16,1.35Z"/><path d="m76.9,22.35l-6.93,4.44c-2.27,1.46-4.01,1.38-5.71-.09l1.38-1.77c.88.69,1.52.74,2.39.18l2.18-7.98,2.08,1.62-1.61,4.96,4.2-2.94,2.02,1.57Z"/><path d="m80.39,33.37c-1.92,1.41-4.43,1.1-5.66-.59-.63-.86-.8-1.71-.62-2.5l-3.19,2.33-1.42-1.94,9.03-6.61,1.42,1.94-.61.44c.8.07,1.56.48,2.2,1.35,1.24,1.69.77,4.17-1.15,5.58Zm-1.42-1.94c.97-.71,1.1-1.8.45-2.69-.65-.89-1.73-1.09-2.7-.38-.97.71-1.1,1.8-.45,2.69.65.89,1.73,1.09,2.7.38Z"/><path d="m87.61,41.44l-7.57,2.59-.78-2.27.71-.24c-.75-.3-1.35-.92-1.7-1.94-.68-1.98.5-4.21,2.76-4.99,2.26-.77,4.56.27,5.24,2.25.35,1.01.25,1.88-.15,2.57l.71-.24.78,2.27Zm-4.56-.97c1.13-.39,1.59-1.39,1.23-2.43-.36-1.04-1.33-1.56-2.46-1.17-1.14.39-1.59,1.39-1.23,2.43.36,1.04,1.33,1.56,2.46,1.17Z"/><path d="m91.65,52.85l-11.2.34-.07-2.4.75-.02c-.62-.51-1.01-1.28-1.05-2.35-.06-2.1,1.72-3.88,4.11-3.95,2.38-.07,4.28,1.6,4.34,3.69.03,1.07-.31,1.87-.9,2.41l3.95-.12.07,2.4Zm-7.27-2.18c1.2-.04,1.93-.86,1.89-1.96-.03-1.1-.81-1.88-2.01-1.84-1.2.04-1.93.86-1.89,1.96.03,1.1.81,1.88,2.01,1.84Z"/></svg>