<?xml version="1.0" encoding="UTF-8"?><svg id="Layer_1" xmlns="http://www.w3.org/2000/svg" viewBox="0 0 100 100"><defs><style>.cls-1{fill:#727272;}.cls-2{fill:none;stroke:#c000e2;stroke-miterlimit:10;stroke-width:4px;}.cls-3{fill:#626363;}.cls-4{fill:#93dbfe;}.cls-5{fill:#6f7070;}.cls-6{fill:#0aaffe;}.cls-7{fill:#636363;}.cls-8{fill:#2dbafe;}</style></defs><circle class="cls-2" cx="50" cy="50" r="45"/><path d="m16.61,34.37c1.87.7,2.81,2.76,2.09,4.7l-.55,1.48,3.09,1.15-.84,2.25-9.83-3.67,1.39-3.72c.72-1.94,2.79-2.88,4.66-2.18Zm-.84,2.25c-.72-.27-1.45.03-1.71.72l-.55,1.48,2.53.94.55-1.47c.26-.69-.1-1.4-.82-1.67Z"/><path d="m23.85,27.86l3.73,2.7-1.32,1.82-3.46-2.51c-.75-.54-1.45-.33-1.87.26-.48.67-.43,1.41.44,2.04l3.32,2.4-1.32,1.82-8.51-6.15,1.32-1.82,3,2.17c-.21-.65-.06-1.47.52-2.27.89-1.23,2.52-1.64,4.16-.45Z"/><path d="m25.57,27.23c-1.4-1.74-1.1-4.2.62-5.58,1.72-1.38,4.18-1.14,5.58.6,1.4,1.74,1.1,4.2-.62,5.58-1.72,1.38-4.18,1.14-5.58-.6Zm4.45-3.57c-.67-.83-1.69-.91-2.46-.3-.76.61-.9,1.63-.24,2.46.67.83,1.69.91,2.46.3.76-.61.9-1.63.24-2.46Z"/><path d="m39.44,17.8l1.84,4.22-2.06.9-1.71-3.92c-.37-.85-1.08-1.02-1.74-.73-.76.33-1.09,1-.66,1.97l1.64,3.75-2.06.9-3-6.88,2.06-.9.28.65c.15-.67.69-1.3,1.6-1.7,1.39-.61,3-.13,3.81,1.73Z"/><path d="m45.64,19.46c.61-.09,1.09-.4,1.34-.77l1.93.76c-.58,1.12-1.6,1.8-3.01,2-2.54.37-4.36-1.1-4.69-3.31s1.03-4.15,3.37-4.5c2.17-.32,4.01,1.12,4.34,3.36.05.31.06.61.04.9l-5.27.77c.4.73,1.12.9,1.93.78Zm.97-2.9c-.36-.83-1.08-1.04-1.74-.94-.85.12-1.35.62-1.45,1.41l3.19-.47Z"/><path d="m50.81,15.28l5.67.58-.22,2.15-5.67-.58.22-2.15Z"/><path d="m65.87,20.81c-.78,2.1-2.89,3.15-4.74,2.47-.94-.35-1.51-.93-1.78-1.63l-.24.66-2.11-.78,3.64-9.85,2.11.78-1.29,3.48c.66-.36,1.47-.43,2.42-.08,1.84.68,2.76,2.86,1.99,4.96Zm-2.11-.78c.39-1.05-.07-1.98-1.04-2.34-.97-.36-1.92.04-2.31,1.1-.39,1.06.07,1.98,1.04,2.34.97.36,1.92-.04,2.31-1.1Z"/><path d="m66.98,21.45c1.32-1.8,3.77-2.15,5.55-.84s2.18,3.74.86,5.54c-1.32,1.8-3.77,2.15-5.54.84-1.78-1.3-2.18-3.74-.86-5.54Zm4.6,3.37c.63-.86.44-1.87-.34-2.45-.79-.58-1.81-.45-2.44.41s-.44,1.87.34,2.45c.79.58,1.81.45,2.44-.41Z"/><path d="m84.59,29.2l-8.28,6.46-1.38-1.77.56-.43c-.75-.04-1.48-.41-2.1-1.2-1.21-1.55-.84-3.89.92-5.26,1.76-1.37,4.12-1.16,5.32.39.62.79.8,1.58.65,2.33l2.92-2.28,1.38,1.77Zm-6.71,2.38c.89-.69.98-1.72.35-2.53-.64-.82-1.65-.97-2.54-.28-.89.69-.98,1.72-.35,2.53.64.82,1.65.97,2.54.28Z"/><path d="m86.45,40.22l-7.7.48c-2.52.16-3.92-.7-4.64-2.68l1.93-.82c.41.97.91,1.29,1.88,1.24l5.43-5.54.96,2.28-3.58,3.33,4.78-.49.94,2.21Z"/><path d="m81.15,42.63l4.17,2.9c.72.51,1.4.85,2.01.76.65-.1,1.03-.59.92-1.29-.12-.73-.67-1.17-1.37-1.35l.85-2.19c1.65.42,2.6,1.7,2.83,3.13.3,1.85-.65,3.71-2.74,4.04-1.24.2-2.42-.3-3.52-1.09l-2.01-1.44.56,3.48-2.28.37-1.13-7.05,1.72-.28Z"/><path class="cls-7" d="m55.42,34.21c2.03,0,4.06-.04,6.08,0,1.69.03,3.27,1.59,3.4,3.29.02.23.02.47.02.7v40.72c0,1.88-.92,3.23-2.53,3.79-.37.13-.75.19-1.14.19h-22.64c-2.03-.01-3.67-1.66-3.68-3.69,0-1.34.01-2.69.02-4.03h1.85s.04,0,.06,0c-.01,1.33-.07,2.66-.02,3.98.05,1.17.83,1.88,1.97,1.89,7.41,0,14.83,0,22.24,0,1.18,0,1.97-.81,1.97-2v-40.97c0-1.16-.78-1.96-1.93-1.98-1.5-.02-3,0-4.5.01l-.12-.04c-.08-.78-.65-1.26-1.05-1.85Z"/><path class="cls-1" d="m55.42,34.21c.39.59.97,1.07,1.05,1.84-.23,0-.47.02-.7.02h-16.55c-1.72,0-2.39.67-2.39,2.42v35.92c0,.25-.01.51-.02.76h-1.85c0-12.31,0-24.62,0-36.93,0-1.72.72-3,2.3-3.74.39-.19.82-.29,1.25-.29,5.64,0,11.27,0,16.91,0Z"/><path class="cls-8" d="m36.8,75.17c0-.25.02-.51.02-.76v-35.92c0-1.74.67-2.42,2.39-2.42h16.56c.23,0,.47-.01.7-.02l.12.04v35.99c0,1.75-1.29,3.08-3.04,3.09-5.56,0-11.12,0-16.68,0-.02,0-.04,0-.07,0Zm13.11-33.49h3.62c1.14,0,1.98-.78,1.99-1.84.01-1.08-.84-1.9-2-1.9h-7.25c-1.14,0-1.98.78-1.99,1.84-.01,1.09.83,1.89,2,1.9,1.21,0,2.42,0,3.63,0h0Zm-4.22,22.95c.24-.04.47-.15.64-.33l9.18-9.18c.23-.23.37-.49.3-.84s-.23-.63-.59-.73c-.38-.12-.8,0-1.05.31-3.03,3.04-6.06,6.08-9.1,9.11-.07.07-.14.14-.2.21-.21.27-.24.64-.07.93.18.33.52.53.9.52h0Zm5.74-11.08c-.02-.39-.27-.73-.63-.88-.48-.22-.84.05-1.14.35-1.83,1.81-3.65,3.63-5.46,5.46-.47.47-.49,1.06-.08,1.45s.95.35,1.41-.1c1.86-1.84,3.71-3.69,5.55-5.54.21-.19.35-.45.37-.73h0Z"/><path class="cls-6" d="m36.86,75.16c5.56,0,11.12.01,16.68,0,1.75,0,3.04-1.34,3.04-3.09v-35.99c1.5,0,3-.03,4.5-.01,1.16.01,1.93.82,1.93,1.98v40.97c0,1.19-.79,2-1.97,2-7.41,0-14.83,0-22.24,0-1.13,0-1.92-.71-1.97-1.89-.05-1.32,0-2.65.02-3.97Zm13.05,3.05h-5.38c-.75,0-1.17.33-1.18.92s.41.95,1.15.95h10.82c.73,0,1.16-.36,1.15-.95s-.43-.92-1.18-.92c-1.8,0-3.59,0-5.38,0h0Z"/><path class="cls-5" d="m49.92,41.69h-3.62c-1.17,0-2.01-.81-2-1.9.01-1.06.85-1.84,1.99-1.84,2.42,0,4.83,0,7.25,0,1.16,0,2.01.82,2,1.9-.01,1.06-.85,1.84-1.99,1.84-1.21,0-2.42,0-3.62,0Z"/><path class="cls-4" d="m45.7,64.64c-.37,0-.71-.2-.89-.53-.17-.29-.15-.66.07-.93.06-.08.13-.15.2-.21,3.04-3.04,6.07-6.07,9.09-9.11.26-.31.67-.43,1.05-.31.36.1.51.39.59.73s-.07.61-.3.84l-9.18,9.19c-.17.18-.39.29-.64.33Z"/><path class="cls-3" d="m49.92,78.22h5.38c.75,0,1.17.33,1.18.92s-.41.95-1.15.95h-10.82c-.73,0-1.15-.36-1.15-.95s.43-.92,1.18-.92c1.79,0,3.58,0,5.38,0Z"/><path d="m40.42,72.32v-4.81l8.58-9.07c.86-.94,1.49-1.7,1.89-2.27s.59-1.15.59-1.72c0-.64-.2-1.16-.61-1.55s-.97-.59-1.68-.59c-1.53,0-2.69.9-3.48,2.7l-5.7-3.18c.84-1.95,2.07-3.43,3.7-4.44,1.63-1.01,3.43-1.52,5.4-1.52,2.47,0,4.58.73,6.35,2.2,1.76,1.47,2.65,3.47,2.65,6.01,0,1.5-.35,2.89-1.06,4.16-.7,1.27-1.73,2.61-3.09,4.01l-3.52,3.67h8.11v6.4h-18.13Z"/></svg>