<?xml version="1.0" encoding="UTF-8"?><svg id="Layer_1" xmlns="http://www.w3.org/2000/svg" viewBox="0 0 100 100"><defs><style>.cls-1{fill:#d1fdbf;}.cls-2{fill:#999afe;}.cls-3{fill:none;stroke:#c000e2;stroke-miterlimit:10;stroke-width:4px;}.cls-4{fill:#00f6d5;}.cls-5{fill:#01264f;}.cls-6{fill:#034868;}.cls-7{fill:#02f6d5;}.cls-8{fill:#b7b7fe;}.cls-9{fill:#979bfd;}.cls-10{fill:#b8b8fd;}.cls-11{fill:#00dbe6;}</style></defs><circle class="cls-3" cx="50" cy="50" r="45"/><path class="cls-5" d="m49.99,34.58c3.66,0,7.32-.04,10.97,0,1.86.02,3.67,1.75,3.92,3.6.06.43.09.86.09,1.29v39.99c0,2.2-1.21,3.88-3.19,4.49-.16.05-.36-.03-.47.15h-11.32v-2.89h10.21c1.28-.01,1.81-.54,1.81-1.83v-40.09c0-1.29-.52-1.81-1.81-1.82h-10.21s0-2.89,0-2.89Z"/><path class="cls-6" d="m49.99,34.58v2.91c-3.55,0-7.1,0-10.65-.01-.36,0-.7.16-.95.42-.42.39-.45.89-.45,1.42v40.39c.04.91.63,1.49,1.55,1.5.74,0,1.48,0,2.23,0l8.27-.02v.03s0,2.89,0,2.89h-11.42c-.04-.14-.18-.13-.28-.16-1.96-.6-3.12-2.05-3.25-4.09-.01-.16-.01-.32-.01-.48v-40.1c0-2.19,1.08-3.82,2.95-4.47.38-.14.77-.23,1.18-.24,3.61,0,7.22,0,10.83,0Z"/><path class="cls-4" d="m49.99,37.45h10.21c1.28.01,1.81.54,1.81,1.83v40.1c0,1.29-.52,1.82-1.81,1.82h-10.21s0-.02,0-.02c0-1.02,0-2.04-.01-3.06,1.35,0,2.7-.01,4.06-.02.83,0,1.38-.57,1.38-1.4,0-.93-.58-1.5-1.56-1.51-1.29,0-2.58,0-3.86,0,0-2.6.01-5.2.02-7.8.99-.13,1.44-.63,1.44-1.64v-12.9c0-.95-.5-1.49-1.45-1.58,0-2.7-.01-5.39-.02-8.09.65,0,1.29-.06,1.93,0,.85.08,1.54-.78,1.56-1.4.03-.8-.7-1.5-1.55-1.52-.65,0-1.29,0-1.93,0v-2.83Zm4.23,21.86v2.66c.02.85.58,1.48,1.37,1.52.8.04,1.48-.59,1.52-1.39,0-.01,0-.03,0-.04.04-1.8.03-3.61,0-5.41-.01-.81-.68-1.46-1.5-1.45,0,0,0,0-.01,0-.82.04-1.37.66-1.38,1.55,0,.86,0,1.71,0,2.56h0Z"/><path class="cls-1" d="m49.98,37.48c0,.93,0,1.85,0,2.78h0c-.66,0-1.32,0-1.98.02-.81,0-1.47.66-1.48,1.48,0,.79.66,1.41,1.52,1.42.65,0,1.29,0,1.93,0h0c0,2.7.01,5.39.02,8.09l-.02.02c-.89.07-1.43.62-1.43,1.49v13.1c0,.88.55,1.44,1.44,1.48l.02.03-.02,7.8h0c-1.29,0-2.58,0-3.87.02-.93,0-1.6.62-1.61,1.46-.01.84.66,1.44,1.6,1.44h3.87c0,1.02,0,2.04.01,3.06l-8.27.02c-.74,0-1.48,0-2.23,0-.91,0-1.51-.59-1.55-1.5v-40.39c0-.53.04-1.03.45-1.42.25-.26.59-.41.95-.42,3.54,0,7.09.01,10.64.02Zm-4.25,21.88v-2.75c.01-.23-.04-.45-.15-.65-.33-.54-.98-.87-1.5-.74-.77.19-1.23.7-1.25,1.46-.02,1.77-.03,3.54,0,5.31.02.85.73,1.52,1.48,1.49.86-.03,1.41-.65,1.41-1.57,0-.85,0-1.71,0-2.56Z"/><path class="cls-2" d="m49.99,51.28c.95.09,1.45.63,1.45,1.58v12.9c0,1-.45,1.51-1.44,1.64l-.02-.03c0-2.77.01-5.53.01-8.3,0-2.59,0-5.18-.01-7.77l.02-.02Z"/><path class="cls-9" d="m54.22,59.31v-2.56c0-.89.56-1.52,1.38-1.55.81-.02,1.49.62,1.51,1.43,0,0,0,0,0,.01.03,1.8.03,3.61,0,5.41-.02.8-.68,1.44-1.49,1.43-.01,0-.02,0-.03,0-.79-.04-1.35-.66-1.37-1.52v-2.66h0Z"/><path class="cls-11" d="m49.98,75.2c1.29,0,2.58,0,3.86,0,.98,0,1.56.58,1.56,1.51,0,.83-.55,1.39-1.38,1.4-1.35.01-2.7.01-4.06.02h0c0-.98,0-1.95.01-2.93h0Z"/><path class="cls-11" d="m49.98,40.27h1.93c.85.01,1.58.72,1.55,1.52-.02.62-.71,1.47-1.56,1.4-.64-.06-1.29,0-1.93,0h0v-2.93s0,.01,0,.01Z"/><path class="cls-8" d="m49.97,51.3c0,2.59,0,5.18.01,7.77,0,2.77,0,5.53-.01,8.3-.88-.04-1.43-.6-1.44-1.48,0-4.36,0-8.73,0-13.1,0-.87.55-1.42,1.43-1.49Z"/><path class="cls-10" d="m45.73,59.36v2.56c0,.93-.55,1.53-1.41,1.57-.75.03-1.47-.65-1.48-1.49-.03-1.77-.02-3.54,0-5.31.01-.77.48-1.27,1.25-1.46.52-.13,1.16.19,1.5.74.11.2.16.42.15.65,0,.92,0,1.84,0,2.75Z"/><path class="cls-7" d="m49.98,75.2c0,.98,0,1.95-.01,2.93h-3.87c-.94,0-1.61-.61-1.6-1.44s.68-1.45,1.61-1.46c1.29-.02,2.58-.02,3.87-.03Z"/><path class="cls-7" d="m49.98,40.26v2.93c-.65,0-1.29,0-1.94,0-.86-.01-1.52-.63-1.52-1.42,0-.81.67-1.47,1.48-1.48.66-.02,1.32-.02,1.98-.02Z"/><path d="m16.96,34.75c1.85.75,2.74,2.83,1.96,4.75l-.59,1.46,3.06,1.23-.9,2.23-9.73-3.92,1.49-3.69c.77-1.92,2.86-2.81,4.71-2.06Zm-.9,2.23c-.71-.29-1.45,0-1.73.68l-.59,1.46,2.5,1.01.59-1.46c.27-.68-.07-1.4-.78-1.69Z"/><path d="m24.37,28.42l3.66,2.79-1.37,1.79-3.4-2.59c-.74-.56-1.44-.36-1.88.21-.5.66-.46,1.4.38,2.05l3.25,2.48-1.37,1.79-8.35-6.37,1.37-1.79,2.95,2.25c-.2-.66-.03-1.47.57-2.26.92-1.21,2.56-1.58,4.17-.35Z"/><path d="m26.1,27.84c-1.35-1.78-.99-4.22.76-5.56,1.75-1.34,4.21-1.04,5.56.74,1.35,1.78.99,4.22-.76,5.56-1.75,1.34-4.21,1.04-5.56-.74Zm4.54-3.46c-.64-.85-1.67-.95-2.45-.36s-.94,1.61-.3,2.45c.65.85,1.67.95,2.45.36.78-.59.94-1.61.3-2.45Z"/><path d="m40.21,18.76l1.73,4.27-2.08.85-1.61-3.96c-.35-.86-1.06-1.04-1.72-.77-.76.31-1.11.97-.71,1.96l1.54,3.79-2.08.85-2.82-6.95,2.08-.85.27.65c.17-.67.73-1.28,1.64-1.65,1.4-.57,3.01-.05,3.77,1.82Z"/><path d="m46.37,20.58c.61-.07,1.1-.37,1.36-.74l1.91.81c-.61,1.1-1.65,1.75-3.06,1.93-2.55.31-4.33-1.21-4.6-3.43-.27-2.22,1.13-4.12,3.48-4.41,2.17-.26,3.98,1.23,4.26,3.47.04.31.04.61.02.9l-5.28.64c.38.74,1.09.92,1.91.83Zm1.04-2.87c-.34-.83-1.05-1.07-1.72-.99-.85.1-1.37.59-1.48,1.37l3.2-.39Z"/><path d="m51.63,16.54l5.66.72-.27,2.14-5.66-.72.27-2.14Z"/><path d="m66.55,22.44c-.83,2.08-2.97,3.08-4.8,2.35-.94-.37-1.49-.97-1.74-1.68l-.26.65-2.09-.83,3.89-9.75,2.09.83-1.38,3.44c.67-.35,1.48-.39,2.42-.02,1.83.73,2.69,2.93,1.86,5.01Zm-2.09-.83c.42-1.05-.02-1.98-.98-2.36-.96-.38-1.92,0-2.34,1.04-.42,1.04.02,1.98.98,2.36s1.92,0,2.34-1.04Z"/><path d="m67.65,23.11c1.37-1.77,3.82-2.05,5.57-.7,1.74,1.35,2.09,3.8.72,5.56-1.37,1.77-3.82,2.05-5.57.7-1.74-1.35-2.09-3.79-.72-5.56Zm4.51,3.49c.65-.84.49-1.86-.28-2.46-.77-.6-1.79-.5-2.45.34-.65.84-.49,1.86.28,2.46.77.6,1.79.5,2.45-.34Z"/><path d="m85.07,31.33l-8.44,6.24-1.34-1.81.57-.42c-.75-.06-1.47-.45-2.06-1.25-1.17-1.58-.74-3.91,1.05-5.24,1.8-1.33,4.15-1.05,5.31.53.6.81.76,1.6.59,2.34l2.98-2.2,1.34,1.81Zm-6.76,2.2c.9-.67,1.03-1.69.41-2.52-.62-.83-1.63-1.02-2.53-.35-.9.67-1.03,1.69-.41,2.52.62.83,1.63,1.02,2.53.35Z"/><path d="m86.63,42.38l-7.71.28c-2.53.09-3.9-.8-4.57-2.79l1.96-.77c.38.98.87,1.32,1.85,1.29l5.56-5.4.91,2.3-3.66,3.23,4.79-.37.88,2.23Z"/><path d="m82.25,52.81l-.13-1.04-1.67.21-.29-2.41,1.67-.21-.58-4.74,2.2-.27,6.96,2.52.31,2.56-6.96-2.52.27,2.17,2.23-.27.3,2.41-2.23.27.13,1.04-2.21.27Z"/><path d="m60.18,60.57v6.03h-2.59v3.96h-6.59v-3.96h-11.36v-6.09l7.73-15.85h7.33l-7.81,15.91h4.11v-4.66h6.59v4.66h2.59Z"/></svg>