<?xml version="1.0" encoding="UTF-8"?><svg id="Layer_1" xmlns="http://www.w3.org/2000/svg" viewBox="0 0 100 100"><defs><style>.cls-1{fill:none;stroke:#0018c6;stroke-miterlimit:10;stroke-width:4px;}.cls-2{fill:#453e43;}.cls-3{fill:#685e66;}</style></defs><circle class="cls-1" cx="50" cy="50" r="45"/><path class="cls-2" d="m59.84,30.81c.64,0,1.29-.02,1.93,0,.76.02,1.43.67,1.48,1.42.02.21.01.42.01.63,0,13.96,0,27.93.02,41.89,0,.98-.29,1.67-1.2,2.07h-24.27c-.91-.4-1.28-1.09-1.19-2.07.04-.44.02-.9.02-1.34,1.05,0,2.09,0,3.14,0,2.86,0,5.71,0,8.57,0,.32,0,.49-.04.36-.43-.08-.25-.07-.53.04-.79.26-.62.94-.93,1.6-.73.64.2.99.82.82,1.54-.07.29-.05.41.29.41,2.21,0,4.43,0,6.64,0,1.02,0,1.73-.77,1.73-1.78,0-.99,0-1.97,0-2.96.41-.19.53-.52.53-.95,0-10.36,0-20.72,0-31.08,0-.44-.15-.75-.54-.94v-4.86Z"/><path class="cls-3" d="m59.84,30.81c0,1.62,0,3.24,0,4.86h-1.43c-.16,0-.33,0-.49,0-5.78,0-11.56,0-17.35,0-.94,0-1.13.19-1.13,1.12v29.39c0,.16,0,.33.01.49,0,.3-.02.6-.02.9,0,.92.15,1.08,1.06,1.08,6.45,0,12.9,0,19.35,0,0,.99,0,1.97,0,2.96,0,1.02-.71,1.77-1.73,1.78-2.21.02-4.43,0-6.64,0-.33,0-.35-.12-.29-.41.17-.72-.18-1.34-.82-1.54-.66-.2-1.34.11-1.6.73-.11.26-.12.54-.04.79.13.39-.04.43-.36.43-2.86,0-5.71,0-8.57,0-1.05,0-2.09,0-3.14,0,0-.18-.01-.36-.01-.54,0-13.36,0-26.72-.02-40.08,0-1.34.81-2,2.01-2,6.9.04,13.81.02,20.72.02.16,0,.33,0,.49.01Z"/><path d="m14.63,40.76c2.34.51,3.82,2.8,3.29,5.22l-.4,1.85,3.87.84-.61,2.82-12.31-2.67,1.01-4.66c.53-2.43,2.82-3.9,5.15-3.4Zm-.61,2.81c-.9-.19-1.72.29-1.91,1.15l-.4,1.85,3.17.69.4-1.85c.19-.86-.36-1.64-1.26-1.84Z"/><path d="m22.63,31.86l4.76,2.8-1.37,2.33-4.42-2.6c-.96-.57-1.77-.23-2.21.52-.5.85-.35,1.73.75,2.38l4.23,2.49-1.37,2.33-10.86-6.39,1.37-2.33,3.83,2.26c-.33-.76-.24-1.75.36-2.78.92-1.57,2.83-2.24,4.92-1.01Z"/><path d="m24.7,30.84c-1.78-2.01-1.55-4.97.43-6.72s4.95-1.6,6.72.41c1.78,2.01,1.55,4.97-.43,6.72-1.98,1.75-4.95,1.61-6.72-.41Zm5.13-4.53c-.85-.96-2.08-1-2.96-.22s-.99,2-.15,2.96,2.08,1,2.96.22c.88-.78.99-2,.15-2.96Z"/><path d="m41.18,19.12l2.19,5.08-2.48,1.07-2.03-4.71c-.44-1.02-1.29-1.23-2.09-.88-.91.39-1.31,1.19-.8,2.37l1.95,4.52-2.48,1.07-3.57-8.27,2.48-1.07.33.78c.18-.8.84-1.56,1.93-2.03,1.67-.72,3.61-.14,4.57,2.09Z"/><path d="m48.67,21.41c.74-.07,1.34-.41,1.66-.84l2.26,1.04c-.77,1.3-2.04,2.05-3.74,2.21-3.07.28-5.15-1.61-5.4-4.28-.24-2.67,1.5-4.91,4.33-5.17,2.62-.24,4.74,1.61,4.99,4.31.03.38.03.74,0,1.09l-6.36.58c.43.9,1.28,1.15,2.27,1.06Zm1.35-3.41c-.38-1.01-1.22-1.32-2.03-1.24-1.02.09-1.66.66-1.82,1.6l3.85-.35Z"/><path d="m63.75,16.46l1.61.47-.74,2.49-1.61-.47-1.82,6.14-2.59-.76,1.82-6.14-1.16-.34.74-2.49,1.16.34c.72-2.42,2.47-3.47,5.29-2.45l-.74,2.49c-.94-.37-1.67-.27-1.96.73Z"/><path d="m72.19,20.11l-1.41,2.72c-.91-.67-2.52-1-3.34.58l-1.87,3.61-2.4-1.24,4.14-7.99,2.4,1.24-.74,1.42c.87-.91,2.21-.86,3.22-.34Z"/><path d="m81.18,27.76l-6.05,6.67-2-1.81.57-.63c-.9.11-1.83-.18-2.73-.99-1.75-1.58-1.8-4.42,0-6.41,1.8-1.99,4.63-2.21,6.38-.63.89.81,1.27,1.71,1.25,2.62l.57-.63,2,1.81Zm-5.02,1.52c.91-1,.81-2.23-.11-3.07-.92-.84-2.16-.81-3.06.19-.91,1-.81,2.23.11,3.07.92.84,2.16.81,3.07-.19Z"/><path d="m86.74,44.85l-5.01,2.34-1.14-2.45,4.8-2.24c.82-.38,1.16-1.02.79-1.8-.38-.82-1.17-1.01-2.13-.56l-4.6,2.15-1.14-2.45,4.8-2.24c.82-.38,1.16-1.02.79-1.8-.38-.82-1.16-1.01-2.13-.56l-4.6,2.15-1.14-2.45,8.16-3.81,1.14,2.45-.75.35c.73.12,1.49.64,2,1.73.45.96.39,1.86-.08,2.64.87.15,1.64.71,2.18,1.86.88,1.88.11,3.72-1.93,4.68Z"/><path d="m83.81,52.56c.04.74.35,1.35.77,1.69l-1.14,2.21c-1.26-.82-1.96-2.12-2.04-3.83-.15-3.07,1.83-5.08,4.5-5.21,2.68-.13,4.84,1.71,4.98,4.55.13,2.62-1.81,4.66-4.53,4.79-.38.02-.74,0-1.08-.06l-.31-6.38c-.92.39-1.2,1.23-1.16,2.22Zm3.35,1.5c1.03-.34,1.37-1.16,1.33-1.97-.05-1.03-.58-1.68-1.51-1.89l.18,3.86Z"/></svg>