<?xml version="1.0" encoding="UTF-8"?><svg id="Layer_1" xmlns="http://www.w3.org/2000/svg" viewBox="0 0 100 100"><defs><style>.cls-1{fill:#a7cefe;}.cls-2{fill:none;stroke:#c000e2;stroke-miterlimit:10;stroke-width:4px;}.cls-3{fill:#717f8f;}.cls-4{fill:#728090;}.cls-5{fill:#b6d6fd;}.cls-6{fill:#3f4a5b;}</style></defs><circle class="cls-2" cx="50" cy="50" r="45"/><path d="m16.69,34.77c1.86.71,2.79,2.79,2.04,4.72l-.56,1.47,3.08,1.18-.86,2.24-9.8-3.76,1.42-3.71c.74-1.93,2.81-2.86,4.67-2.14Zm-.86,2.24c-.71-.27-1.45.02-1.72.71l-.56,1.47,2.52.97.56-1.47c.26-.69-.09-1.4-.8-1.67Z"/><path d="m23.99,28.33l3.71,2.73-1.33,1.81-3.44-2.54c-.75-.55-1.45-.34-1.87.24-.49.67-.44,1.41.42,2.04l3.3,2.43-1.33,1.81-8.46-6.23,1.33-1.81,2.98,2.2c-.21-.66-.05-1.47.54-2.27.9-1.22,2.53-1.62,4.16-.42Z"/><path d="m25.71,27.71c-1.38-1.76-1.06-4.21.67-5.57,1.73-1.37,4.19-1.11,5.57.65,1.38,1.75,1.06,4.21-.67,5.57-1.73,1.37-4.19,1.11-5.57-.65Zm4.48-3.53c-.66-.84-1.68-.92-2.45-.32-.76.6-.92,1.62-.26,2.46.66.83,1.68.92,2.45.32.76-.6.92-1.62.26-2.46Z"/><path d="m39.66,18.4l1.8,4.24-2.07.88-1.67-3.93c-.37-.86-1.07-1.03-1.74-.75-.76.32-1.09.99-.68,1.97l1.61,3.77-2.07.88-2.94-6.9,2.07-.88.28.65c.16-.67.7-1.29,1.62-1.68,1.39-.59,3-.1,3.8,1.76Z"/><path d="m45.85,20.11c.61-.08,1.1-.39,1.35-.76l1.92.78c-.59,1.11-1.62,1.78-3.03,1.98-2.54.35-4.35-1.14-4.66-3.35-.31-2.21,1.06-4.14,3.41-4.47,2.17-.3,4,1.16,4.31,3.4.04.31.05.61.03.9l-5.27.73c.39.73,1.11.91,1.93.79Zm.99-2.89c-.36-.83-1.07-1.05-1.74-.96-.85.12-1.35.61-1.46,1.4l3.19-.44Z"/><path d="m51.05,15.98l5.67.63-.24,2.15-5.67-.63.24-2.15Z"/><path d="m66.07,21.63c-.79,2.09-2.92,3.13-4.76,2.43-.94-.36-1.5-.94-1.76-1.65l-.25.66-2.1-.8,3.73-9.82,2.1.8-1.32,3.46c.67-.36,1.48-.42,2.42-.06,1.84.7,2.74,2.89,1.95,4.98Zm-2.1-.8c.4-1.05-.05-1.98-1.02-2.34-.97-.37-1.92.02-2.32,1.08-.4,1.05.05,1.98,1.02,2.35.97.37,1.92-.03,2.32-1.08Z"/><path d="m67.17,22.28c1.34-1.79,3.79-2.11,5.55-.79,1.77,1.32,2.15,3.76.81,5.55-1.34,1.79-3.79,2.11-5.55.79-1.76-1.32-2.15-3.76-.81-5.55Zm4.57,3.41c.64-.85.46-1.87-.32-2.45-.78-.58-1.8-.47-2.44.39s-.46,1.87.32,2.45c.78.58,1.8.47,2.44-.39Z"/><path d="m84.72,30.19l-8.34,6.38-1.37-1.79.56-.43c-.75-.05-1.47-.42-2.08-1.22-1.19-1.56-.81-3.89.96-5.25,1.78-1.36,4.13-1.12,5.32.44.61.8.78,1.59.63,2.33l2.94-2.25,1.37,1.79Zm-6.73,2.32c.89-.68,1-1.71.37-2.53-.63-.82-1.65-.99-2.54-.3-.89.68-1,1.71-.37,2.53.63.82,1.65.99,2.54.31Z"/><path d="m86.48,41.23l-7.71.41c-2.53.14-3.91-.74-4.62-2.72l1.94-.8c.4.97.9,1.3,1.87,1.26l5.47-5.5.95,2.29-3.61,3.29,4.78-.45.92,2.22Z"/><path d="m90.51,46.62l-10.33,1.88-.43-2.36,7.83-1.43-.84-1.74,1.92-.94,1.47,2.52.38,2.07Z"/><path class="cls-6" d="m39.41,83.26c-.07-.16-.24-.14-.36-.17-1.98-.55-3.37-2.33-3.41-4.39-.02-.98,0-1.96,0-2.94v-35.9c0-2.68,1.09-4.17,3.64-5.01.06-.02.12-.04.14-.11h3.4s0,.1,0,.14c.53,1.3,1.06,2.59,1.59,3.89.13.32.4.42.73.42h9.73c.36.02.69-.2.79-.55.2-.51.43-1.01.62-1.53.29-.8.69-1.55.91-2.37h3.31c.23.17.52.17.78.27,1.81.64,3.04,2.32,3.09,4.24,0,.22,0,.44,0,.66v38.12c0,2.84-1.11,4.33-3.82,5.15-.02,0-.03.05-.05.07h-21.08Zm23.74-7.31c.06,0,.08-.02.07-.08,0-.13.02-.25.02-.38v-32.89c0-.13,0-.25-.01-.38,0-.38-.3-.2-.45-.2-8.51-.01-17.02-.02-25.53-.02-.4,0-.49.12-.49.51.01,11.01.01,22.01.01,33.02,0,.14-.09.32.09.42.13,0,.25.02.38.02h25.54c.13,0,.25-.01.38-.02Zm-13.13,3.13h-4.44c-.49,0-.68.23-.6.67.08.39.38.46.72.46h8.59c.5,0,.72-.2.72-.61,0-.51-.32-.53-.7-.53-1.43,0-2.86,0-4.29,0Z"/><path class="cls-4" d="m57.2,34.75c-.22.83-.62,1.58-.91,2.37-.19.52-.42,1.02-.62,1.53-.1.34-.43.57-.79.55h-9.73c-.33,0-.6-.1-.73-.42-.54-1.3-1.07-2.6-1.59-3.9,0-.05-.01-.09,0-.14h14.38Z"/><path class="cls-1" d="m36.86,75.96c-.18-.11-.09-.28-.09-.42,0-11.01,0-22.01-.01-33.02,0-.38.08-.51.49-.51,8.51.01,17.02.02,25.53.02.15,0,.44-.17.45.2-.23.03-.33.22-.46.38-.36.48-.72.95-1.09,1.42-1.43,1.85-2.87,3.69-4.31,5.53-1.15,1.47-2.29,2.95-3.44,4.42-1.44,1.84-2.88,3.68-4.32,5.52-1.15,1.47-2.29,2.95-3.43,4.42-1.53,1.97-3.07,3.93-4.6,5.9-1.08,1.38-2.18,2.76-3.24,4.15-.5.65-1.07,1.26-1.48,1.98Z"/><path class="cls-5" d="m36.86,75.96c.41-.72.98-1.33,1.48-1.99,1.06-1.39,2.16-2.77,3.24-4.15,1.53-1.96,3.07-3.93,4.6-5.9,1.15-1.47,2.29-2.95,3.43-4.42,1.44-1.84,2.88-3.68,4.32-5.52,1.15-1.47,2.29-2.95,3.44-4.42,1.44-1.84,2.88-3.68,4.31-5.51.37-.47.73-.94,1.09-1.42.13-.16.23-.35.46-.38,0,.13.01.25.01.38v32.89c0,.13,0,.25-.02.38-.02.03-.05.06-.07.08-.13,0-.25.02-.38.02h-25.53c-.13,0-.25-.02-.38-.03Z"/><path class="cls-3" d="m50.03,79.09h4.3c.38,0,.71.03.7.53,0,.4-.23.61-.72.61h-8.59c-.33,0-.63-.07-.72-.46-.09-.44.11-.67.6-.67,1.47,0,2.95,0,4.43,0Z"/><path class="cls-1" d="m63.15,75.96s.05-.05.07-.08c.01.06-.01.09-.07.08Z"/><path d="m48.34,45.66h5.7v25.9h-6.62v-18.94l-4.51,1.15-1.59-5.59,7.03-2.52Z"/></svg>