<?xml version="1.0" encoding="UTF-8"?><svg id="Layer_1" xmlns="http://www.w3.org/2000/svg" viewBox="0 0 100 100"><defs><style>.cls-1{fill:#7da1b1;}.cls-2{fill:#8fbac5;}.cls-3{fill:none;stroke:#0018c6;stroke-miterlimit:10;stroke-width:4px;}.cls-4{fill:#f1f6f6;}.cls-5{fill:#02f1a6;}.cls-6{fill:#fde077;}.cls-7{fill:#fee077;}.cls-8{fill:#ddebf0;}.cls-9{fill:#fed05b;}.cls-10{fill:#fec345;}.cls-11{fill:#fee078;}.cls-12{fill:#cee5ec;}.cls-13{fill:#fdd15b;}</style></defs><circle class="cls-3" cx="50" cy="50" r="45"/><path class="cls-2" d="m38.8,85.99c-.79-.26-1.6-.49-2.29-.99-1.55-1.12-2.32-2.68-2.32-4.56-.02-14.3-.02-28.6,0-42.9,0-2.74,1.78-4.89,4.44-5.45.06-.01.12-.06.18-.1h21.4c0,.15.11.18.24.22,1.36.4,2.44,1.17,3.15,2.41.32.55.7,1.11.61,1.81-.07-.1-.16-.19-.22-.29-.57-.87-1.36-1.33-2.42-1.31-.98.02-1.96.01-2.95.02-.3,0-.6,0-.89-.01-.7-.03-1.17.28-1.46.91-.15.33-.34.65-.5.99-.34.73-.89,1.07-1.71,1.06-2.25-.02-4.49,0-6.74,0-.28,0-.56-.03-.83-.11-.37-.25-.64-.58-.83-.99-.18-.4-.4-.78-.62-1.16-.24-.42-.57-.7-1.09-.7-1.12,0-2.25,0-3.37.01-.46,0-.92-.07-1.36.05-1.41.35-2.21,1.43-2.21,2.99,0,14.07,0,28.14,0,42.22,0,.09,0,.18,0,.26.06,1.51,1.22,2.77,2.63,2.77,6.36.01,12.72.01,19.08,0,.98,0,1.96,0,2.95.02.47,0,.89-.13,1.31-.33.56-.28.87-.8,1.23-1.26.09.06.08.13.05.23-.53,1.96-1.74,3.28-3.66,3.95-.15.05-.38-.02-.39.25h-21.41Zm11.85-50.3c.62-.02,1.21.01,1.81-.09.44-.08.67-.24.68-.69.01-.47-.25-.87-.69-.89-1.15-.03-2.31-.03-3.47,0-.45.01-.71.4-.7.88,0,.49.28.62.73.7.56.1,1.11.05,1.64.08Z"/><path class="cls-1" d="m60.21,85.99c.01-.27.25-.2.39-.25,1.92-.67,3.14-1.99,3.66-3.95.03-.09.04-.17-.05-.23.17-.54.22-1.09.22-1.66,0-13.94,0-27.88,0-41.82,0-.57-.04-1.12-.22-1.66.09-.7-.29-1.25-.61-1.81-.71-1.23-1.8-2.01-3.15-2.41-.13-.04-.23-.06-.24-.22h2.43c.64.22,1.31.35,1.9.71,1.82,1.14,2.72,2.78,2.72,4.91,0,12.26,0,24.52,0,36.78,0,1.97-.02,3.93,0,5.9.04,3.1-2.2,5.28-4.5,5.6-.05,0-.09.06-.13.08h-2.43Z"/><path class="cls-4" d="m46.51,37.68c.27.08.55.11.83.11,2.25,0,4.49-.02,6.74,0,.82,0,1.37-.34,1.71-1.06.16-.33.35-.65.5-.99.29-.63.76-.94,1.46-.91.3.01.6,0,.89.01,0,.2.18.24.32.31,1.01.57,1.58,1.44,1.58,2.6,0,14.15,0,28.3,0,42.45,0,1.12-.45,2.04-1.47,2.61-.13.07-.31.11-.32.31-6.36,0-12.72,0-19.08,0-1.42,0-2.58-1.26-2.63-2.77,0-.09,0-.18,0-.26v-42.22c0-1.56.8-2.64,2.21-2.99.45-.11.91-.05,1.36-.05.48.64.9,1.32,1.26,2.03.34.68.93.95,1.69.92.82-.03,1.65,0,2.47,0,.17,0,.36.06.49-.11Zm-3.48,29.89v10.44c0,1.09.32,1.41,1.42,1.41,3.57,0,7.13,0,10.7,0,.72,0,1.44.02,2.16,0,.72-.02,1.11-.42,1.11-1.12,0-7.13,0-14.27,0-21.4,0-.72-.38-1.1-1.11-1.13-.35-.02-.7,0-1.05,0-.72-.02-1.06-.34-1.08-1.07-.02-.63,0-1.27,0-1.9-.01-.73-.36-1.12-1.09-1.13-2.23-.02-4.46-.02-6.69,0-.76,0-1.1.39-1.11,1.17,0,.63.01,1.27,0,1.9-.02.69-.38,1.02-1.07,1.03-.28,0-.56,0-.84,0-1,0-1.33.34-1.33,1.33,0,3.5,0,6.99,0,10.49Zm7.67-24.19c0-.24.12-.34.21-.47.33-.5.67-.99.98-1.49.25-.4.15-.88-.2-1.13-.37-.26-.79-.26-1.04.09-.8,1.13-1.58,2.28-2.3,3.46-.34.56.06,1.12.74,1.13.47.01.95,0,1.42,0,.3,0,.33.09.17.33-.52.79-1.04,1.58-1.55,2.38-.32.49-.27,1.01.1,1.27.4.28.92.15,1.26-.35.85-1.29,1.69-2.58,2.54-3.87.2-.31.25-.62.07-.94-.18-.32-.48-.43-.84-.42-.51.01-1.02,0-1.55,0Z"/><path class="cls-8" d="m58.73,83.14c0-.2.18-.24.32-.31,1.02-.57,1.47-1.49,1.47-2.61.01-14.15.01-28.3,0-42.45,0-1.16-.56-2.03-1.58-2.6-.13-.08-.31-.11-.32-.31.98,0,1.96,0,2.95-.02,1.06-.02,1.85.44,2.42,1.31.07.1.15.19.22.29.17.54.22,1.09.22,1.66,0,13.94,0,27.88,0,41.82,0,.57-.05,1.12-.22,1.66-.36.46-.67.98-1.23,1.26-.41.21-.83.34-1.31.33-.98-.02-1.96-.01-2.94-.02Z"/><path class="cls-8" d="m46.51,37.68c-.13.17-.32.11-.49.11-.82,0-1.65-.02-2.47,0-.76.02-1.35-.25-1.69-.92-.36-.71-.78-1.39-1.26-2.03,1.12,0,2.25,0,3.37-.01.52,0,.85.28,1.09.7.22.38.44.76.62,1.16.19.41.46.74.83.99Z"/><path class="cls-1" d="m50.66,35.69c-.52-.03-1.08.01-1.64-.08-.45-.08-.72-.22-.73-.7,0-.48.25-.87.7-.88,1.15-.03,2.31-.03,3.47,0,.45.01.7.41.69.89-.01.45-.24.62-.68.69-.59.1-1.18.07-1.81.09Z"/><path class="cls-5" d="m43.02,67.58v-10.49c0-.99.34-1.33,1.33-1.33.28,0,.56,0,.84,0,.69-.02,1.04-.35,1.07-1.03.02-.63,0-1.26,0-1.9,0-.78.35-1.16,1.11-1.17,2.23-.02,4.46-.02,6.69,0,.73,0,1.08.39,1.09,1.13,0,.63-.01,1.27,0,1.9.02.73.36,1.06,1.08,1.07.35,0,.7-.01,1.05,0,.72.03,1.11.41,1.11,1.13,0,7.13,0,14.27,0,21.4,0,.71-.39,1.1-1.11,1.12-.72.02-1.44,0-2.16,0h-10.7c-1.1,0-1.42-.32-1.42-1.41,0-3.48,0-6.96,0-10.44Zm12.54,2.7c0-1.37,0-2.74,0-4.11v-4.01c0-.84.02-1.67.01-2.51,0-.51-.34-.84-.87-.85-.8-.02-1.6,0-2.4.01-1.83,0-3.67-.02-5.5-.01-.62,0-.93.33-.93.95,0,.77.01,1.54.02,2.31,0,1.37,0,2.74,0,4.11v5.8c0,1.24-.02,2.48-.02,3.72,0,.57.34.9.93.9,1.77,0,3.53,0,5.3-.01.86,0,1.72.03,2.58,0,.57-.01.9-.34.9-.88,0-1.25,0-2.49-.01-3.74.05-.56.05-1.12,0-1.69h0Z"/><path class="cls-11" d="m50.69,43.39c.53,0,1.04.01,1.55,0,.36-.01.66.1.84.42.18.32.13.63-.07.94-.85,1.29-1.69,2.58-2.54,3.87-.33.5-.85.64-1.26.35-.37-.26-.41-.78-.1-1.27.51-.8,1.03-1.59,1.55-2.38.16-.24.14-.34-.17-.33-.47,0-.95,0-1.42,0-.68-.02-1.08-.57-.74-1.13.72-1.18,1.5-2.33,2.3-3.46.25-.36.67-.35,1.04-.09.35.24.44.73.2,1.13-.31.51-.66,1-.98,1.49-.08.13-.21.23-.2.47Z"/><path class="cls-8" d="m52.3,58.81c.8,0,1.6-.03,2.4-.01.53.01.86.33.87.85.01.84,0,1.67-.01,2.51-.82,0-1.65.02-2.47,0-.37-.01-.49.11-.48.48.02,1.17,0,2.35,0,3.52v.03s-6.73-.02-6.73-.02c0-1.37,0-2.74,0-4.11,2.07,0,4.15,0,6.22,0,.19,0,.52.11.5-.21-.06-1.01.28-2.07-.3-3.03Z"/><path class="cls-6" d="m52.1,76.57c-1.77,0-3.53.02-5.3.01-.6,0-.93-.33-.93-.9,0-1.24,0-2.48.02-3.72h6.74c0,1.21-.01,2.41,0,3.62,0,.45-.14.78-.53,1Z"/><path class="cls-7" d="m45.88,66.17l6.75.02c0,1.37,0,2.73,0,4.1h-6.74s0-4.11,0-4.11Z"/><path class="cls-4" d="m52.3,58.81c.58.96.24,2.02.3,3.03.02.32-.31.21-.5.21-2.07,0-4.15,0-6.22,0,0-.77-.02-1.54-.02-2.31,0-.62.32-.95.93-.95,1.83,0,3.67,0,5.5.01Z"/><path class="cls-13" d="m52.1,76.57c.39-.22.54-.55.53-1-.02-1.2,0-2.41,0-3.61h0s2.94,0,2.94,0c0,1.25.02,2.49.01,3.74,0,.55-.33.87-.9.88-.86.02-1.72,0-2.58,0Z"/><path class="cls-9" d="m52.62,70.28c0-1.37,0-2.73,0-4.1v-.03s2.94.02,2.94.02c0,1.37,0,2.74,0,4.11h-2.94s0,0,0,0Z"/><path class="cls-12" d="m55.56,66.16l-2.95-.02c0-1.17.02-2.35,0-3.52,0-.37.11-.49.48-.48.82.02,1.65,0,2.47,0v4.01Z"/><path class="cls-13" d="m45.88,70.28h6.74s0,0,0,0c0,.56,0,1.12,0,1.68h0s-6.74,0-6.74,0v-1.68Z"/><path class="cls-10" d="m52.62,71.96c0-.56,0-1.12,0-1.68h2.94c.05.56.05,1.12,0,1.68h-2.94Z"/><path d="m15.77,42.59c2.09.32,3.51,2.25,3.18,4.42l-.25,1.65,3.45.53-.38,2.51-10.98-1.68.64-4.16c.33-2.17,2.26-3.59,4.35-3.27Zm-.38,2.51c-.8-.12-1.5.35-1.62,1.12l-.25,1.65,2.82.43.25-1.65c.12-.77-.41-1.43-1.21-1.55Z"/><path d="m22.18,34.3l4.38,2.14-1.04,2.14-4.06-1.98c-.88-.43-1.57-.08-1.9.61-.38.78-.19,1.55.82,2.04l3.89,1.9-1.04,2.14-9.98-4.87,1.04-2.14,3.52,1.72c-.34-.64-.33-1.52.12-2.46.7-1.44,2.33-2.16,4.25-1.22Z"/><path d="m23.92,33.27c-1.72-1.62-1.77-4.23-.17-5.93,1.6-1.7,4.21-1.81,5.93-.19s1.77,4.23.17,5.93c-1.6,1.7-4.21,1.81-5.93.19Zm4.13-4.39c-.82-.77-1.91-.7-2.61.05s-.71,1.84.11,2.61c.82.77,1.91.7,2.61-.05.71-.75.71-1.84-.11-2.61Z"/><path d="m37.34,21.52l2.4,4.24-2.07,1.17-2.23-3.94c-.49-.86-1.25-.95-1.91-.58-.76.43-1.03,1.17-.48,2.15l2.14,3.77-2.07,1.17-3.91-6.9,2.07-1.17.37.65c.08-.72.59-1.45,1.5-1.96,1.39-.79,3.15-.47,4.2,1.39Z"/><path d="m44.12,22.73c.64-.14,1.12-.51,1.36-.92l2.09.66c-.53,1.22-1.56,2.02-3.03,2.34-2.65.58-4.69-.84-5.19-3.15-.51-2.31.78-4.46,3.23-5,2.26-.5,4.32.89,4.84,3.23.07.33.11.64.11.95l-5.5,1.21c.47.74,1.25.86,2.1.68Zm.81-3.13c-.45-.84-1.21-1.02-1.91-.86-.88.19-1.38.76-1.42,1.6l3.33-.73Z"/><path d="m61.73,21.78c-.51,2.31-2.58,3.72-4.61,3.26-1.04-.23-1.72-.76-2.1-1.46l-.16.73-2.32-.52,2.41-10.84,2.32.52-.85,3.83c.64-.48,1.48-.66,2.52-.43,2.03.45,3.31,2.61,2.79,4.91Zm-2.32-.52c.26-1.16-.35-2.06-1.42-2.3-1.07-.24-2,.32-2.26,1.48-.26,1.16.35,2.06,1.42,2.3,1.07.24,2.01-.32,2.26-1.48Z"/><path d="m72.44,23.3l-4.08,6.81-2.04-1.22.38-.64c-.76.25-1.61.16-2.53-.39-1.78-1.07-2.31-3.52-1.1-5.54,1.22-2.03,3.62-2.71,5.41-1.64.91.55,1.39,1.26,1.53,2.05l.38-.64,2.04,1.22Zm-4.08,2.18c.61-1.02.32-2.07-.62-2.63s-2-.33-2.62.69c-.61,1.02-.32,2.07.62,2.63.94.56,2,.33,2.62-.69Z"/><path d="m75.23,29.21l-2.01,1.96c-.49.48-.12.94.65,1.65l-1.55,1.5c-2.4-2.01-2.36-3.31-.76-4.86l2.01-1.96-.88-.91,1.64-1.59.88.91,1.08-1.05,2.17,1.21-1.59,1.55,1.14,1.17-1.64,1.59-1.14-1.17Z"/><path d="m79.08,34.21l-2.34,1.56c-.57.38-.3.9.34,1.74l-1.8,1.2c-1.99-2.41-1.71-3.69.14-4.92l2.34-1.56-.7-1.06,1.9-1.27.7,1.06,1.25-.83,1.91,1.59-1.85,1.23.91,1.36-1.9,1.27-.91-1.36Z"/><path d="m78.85,42.3c.22.61.65,1.05,1.09,1.23l-.38,2.16c-1.28-.36-2.2-1.28-2.72-2.7-.93-2.55.22-4.76,2.44-5.56,2.22-.81,4.52.18,5.38,2.54.79,2.18-.31,4.4-2.56,5.22-.31.11-.62.19-.93.24l-1.92-5.3c-.67.57-.69,1.35-.39,2.17Zm3.21.39c.78-.55.85-1.34.6-2.01-.31-.85-.93-1.27-1.77-1.2l1.16,3.21Z"/><path d="m86.82,51.23l-2.68.28c.06-.99-.48-2.34-2.04-2.18l-3.57.37-.25-2.37,7.89-.82.25,2.37-1.4.15c1.09.21,1.7,1.21,1.81,2.21Z"/><path d="m85.72,61.27l-7.27-3.7c-2.39-1.21-3.19-2.74-2.79-4.93l2.2.29c-.15,1.1.13,1.67,1.05,2.14l7.92-2.14-.34,2.6-5.04,1.11,4.62,2.11-.33,2.52Z"/></svg>