<?xml version="1.0" encoding="UTF-8"?><svg id="Layer_1" xmlns="http://www.w3.org/2000/svg" viewBox="0 0 100 100"><defs><style>.cls-1{fill:#0c4a4e;}.cls-2{fill:none;stroke:#c000e2;stroke-miterlimit:10;stroke-width:4px;}.cls-3{fill:#d9cfca;}.cls-4{fill:#e5dedc;}.cls-5{fill:#97f8fe;}.cls-6{fill:#f1efef;}.cls-7{fill:#fe7038;}.cls-8{fill:#152433;}.cls-9{fill:#fe415d;}.cls-10{fill:#e6dedc;}.cls-11{fill:#d0c8c3;}.cls-12{fill:#7dd4f3;}</style></defs><circle class="cls-2" cx="50" cy="50" r="45"/><path d="m15.57,36.06c1.91.59,2.97,2.59,2.36,4.57l-.46,1.5,3.15.97-.7,2.29-10.03-3.08,1.17-3.8c.61-1.98,2.61-3.04,4.52-2.46Zm-.7,2.29c-.73-.22-1.45.12-1.66.82l-.46,1.51,2.58.79.46-1.5c.22-.7-.18-1.39-.92-1.61Z"/><path d="m22.41,29.12l3.89,2.47-1.21,1.9-3.61-2.29c-.78-.5-1.47-.24-1.85.37-.44.7-.34,1.43.55,2.01l3.46,2.2-1.21,1.9-8.86-5.64,1.21-1.9,3.12,1.99c-.25-.64-.15-1.46.38-2.3.81-1.28,2.42-1.79,4.13-.7Z"/><path d="m24.09,28.39c-1.5-1.66-1.35-4.12.29-5.6,1.63-1.48,4.1-1.39,5.61.27s1.35,4.12-.29,5.6c-1.63,1.48-4.1,1.39-5.6-.26Zm4.22-3.83c-.71-.79-1.74-.81-2.47-.15-.72.66-.8,1.68-.09,2.47.71.79,1.74.81,2.47.15.72-.66.8-1.68.09-2.47Z"/><path d="m37.37,18.15l2.09,4.11-2.01,1.02-1.94-3.81c-.42-.83-1.14-.95-1.78-.62-.74.37-1.03,1.06-.54,2.01l1.86,3.65-2.01,1.02-3.4-6.69,2.01-1.02.32.63c.11-.68.62-1.34,1.5-1.79,1.35-.69,2.99-.31,3.91,1.5Z"/><path d="m43.67,19.44c.6-.13,1.07-.47,1.29-.85l1.97.65c-.51,1.15-1.49,1.89-2.88,2.18-2.51.52-4.42-.84-4.87-3.03-.46-2.19.78-4.21,3.1-4.69,2.14-.45,4.07.88,4.54,3.1.07.31.1.61.1.9l-5.21,1.09c.44.7,1.17.83,1.98.66Zm.79-2.95c-.41-.8-1.14-.97-1.8-.84-.84.17-1.31.7-1.36,1.49l3.16-.66Z"/><path d="m48.57,14.96l5.7.24-.09,2.16-5.7-.24.09-2.16Z"/><path d="m63.93,19.58c-.65,2.14-2.7,3.32-4.58,2.75-.96-.29-1.56-.84-1.87-1.53l-.2.67-2.15-.65,3.05-10.05,2.15.65-1.08,3.55c.64-.4,1.44-.52,2.41-.23,1.88.57,2.93,2.69,2.28,4.83Zm-2.15-.65c.33-1.08-.19-1.97-1.18-2.27-.99-.3-1.91.16-2.24,1.23s.19,1.97,1.18,2.27,1.91-.16,2.24-1.23Z"/><path d="m65.06,20.14c1.21-1.88,3.63-2.37,5.49-1.18,1.85,1.19,2.41,3.6,1.2,5.48s-3.63,2.37-5.49,1.18c-1.85-1.19-2.41-3.6-1.2-5.48Zm4.79,3.09c.58-.9.33-1.89-.49-2.42-.82-.53-1.83-.34-2.41.55s-.33,1.89.49,2.42c.82.53,1.83.34,2.41-.55Z"/><path d="m83.13,26.85l-7.88,6.94-1.49-1.69.53-.47c-.75,0-1.5-.32-2.16-1.07-1.3-1.47-1.07-3.83.6-5.31,1.68-1.48,4.04-1.4,5.34.08.67.75.89,1.53.79,2.28l2.78-2.45,1.49,1.69Zm-6.55,2.77c.84-.74.88-1.77.19-2.55-.68-.78-1.71-.87-2.55-.13s-.88,1.77-.19,2.55c.68.78,1.71.87,2.55.13Z"/><path d="m85.64,37.74l-7.66.94c-2.51.31-3.95-.47-4.79-2.4l1.88-.93c.47.94.98,1.24,1.95,1.13l5.09-5.86,1.1,2.22-3.37,3.53,4.74-.78,1.07,2.15Z"/><path d="m83.58,47.08c-2.25.51-3.82-.97-4.27-2.95-.35-1.55.01-3.11,1.38-4.08l1.63,1.75c-.62.39-.93.92-.73,1.81.22.96.83,1.27,1.46,1.13.63-.14,1.04-.68.82-1.65l-.11-.48,1.13-1.2,2.78,1.32-.85-3.74,2.19-.5,1.5,6.58-1.9.43-2.65-1.25c-.15,1.36-.95,2.51-2.37,2.83Z"/><path class="cls-1" d="m39.52,82.92c-.07-.17-.25-.13-.38-.16-2.9-.75-4.77-3.12-4.78-6.12-.01-4.74,0-9.48,0-14.21v-23.15c0-2.72,1.26-4.68,3.72-5.86.65-.32,1.36-.49,2.08-.5,3.28-.02,6.56,0,9.83,0v9.16c-1.22,0-2.45.07-3.67-.01-2.18-.15-3.99-2.1-4.08-4.29-.05-1.08-.49-1.71-1.34-1.91-.45-.08-.92-.04-1.35.12-1.44.46-2.27,1.69-2.27,3.39v37.07c0,.24.02.49.05.73.21,1.66,1.66,2.88,3.33,2.8.24,0,.49.02.73.02,2.86,0,5.73.01,8.59.02v2.92h-10.48Z"/><path class="cls-8" d="m49.99,42.06v-9.16c3.33,0,6.65-.05,9.98,0,2.69.05,5.3,2.57,5.59,5.24.06.55.08,1.1.08,1.65v36.77c0,3.03-1.9,5.47-4.79,6.21-.16.04-.37-.06-.48.14h-10.38v-2.95h9.37c.24.03.49.02.73-.03,1.64-.39,2.62-1.66,2.62-3.4v-33.69c0-1.25.01-2.51,0-3.76,0-1.59-1.14-2.96-2.7-3.24-1.25-.24-2.24.49-2.28,1.68-.07,2.61-2.05,4.54-4.67,4.55-1.03,0-2.05.02-3.08.02v-.03Z"/><path class="cls-6" d="m40.67,79.97c-1.67.08-3.12-1.14-3.32-2.8-.03-.24-.05-.49-.05-.73v-37.07c0-1.7.82-2.93,2.27-3.39.43-.16.9-.2,1.35-.12.85.19,1.29.83,1.34,1.91.09,2.19,1.9,4.14,4.08,4.29,1.22.08,2.44.01,3.67.01v.04c0,1.1,0,2.2,0,3.31,0,.02,0,.05-.01.08h-7.83c-.88,0-1.47.59-1.47,1.47v14.07c0,.87.59,1.47,1.48,1.47h7.83v3.33c-.25.07-.51.1-.77.1h-7.14c-.23,0-.45,0-.66.13-.59.37-.88,1.07-.7,1.68.19.64.75,1.03,1.49,1.03h7.78c0,1.11.01,2.23.01,3.34,0,.02,0,.04-.01.06-2.54,0-5.09,0-7.63,0-1.13,0-1.68.54-1.68,1.67,0,2.05,0,4.1,0,6.15Z"/><path class="cls-7" d="m40.67,79.97c0-2.05,0-4.1,0-6.15,0-1.12.55-1.67,1.68-1.67,2.55,0,5.09,0,7.63,0v7.84c-2.86,0-5.73,0-8.59-.02-.24,0-.48-.01-.72-.02Z"/><path class="cls-4" d="m50,45.4c0-1.1-.01-2.2-.01-3.31,1.03,0,2.05-.02,3.08-.02,2.61-.01,4.59-1.94,4.67-4.55.03-1.19,1.03-1.92,2.28-1.68,1.57.29,2.7,1.65,2.7,3.24.02,1.25,0,2.51,0,3.76v33.69c0,1.74-.99,3.01-2.62,3.4-.24.05-.48.06-.73.03v-5.62c0-1.84-.42-2.26-2.27-2.26h-7.09c0-1.12,0-2.23-.01-3.35h1.61c.75.01,1.37-.56,1.42-1.31.06-.72-.47-1.38-1.19-1.54-.61-.14-1.23-.05-1.84-.08h0v-3.31c2.54,0,5.08-.05,7.62,0,1,.02,1.72-.68,1.71-1.71-.04-4.54-.02-9.08-.02-13.61,0-1.23-.55-1.79-1.78-1.79-2.51,0-5.01,0-7.52,0Zm7.81,23.35c.84,0,1.47-.59,1.48-1.39.02-.81-.61-1.49-1.42-1.51,0,0,0,0-.01,0-.73-.03-1.55.77-1.48,1.5.05.63.45,1.44,1.44,1.4h0Z"/><path class="cls-9" d="m50,72.09h7.09c1.85,0,2.27.43,2.27,2.27v5.62h-9.37v-7.81s0-.05.01-.07Z"/><path class="cls-12" d="m50,45.4h7.53c1.23,0,1.78.55,1.78,1.79,0,4.54-.02,9.08.02,13.61,0,1.04-.71,1.73-1.71,1.71-2.54-.05-5.08-.01-7.62,0v-17.03s0-.05,0-.08Z"/><path class="cls-5" d="m49.99,45.48v17.01c-2.61,0-5.22,0-7.83,0-.89,0-1.48-.59-1.48-1.47v-14.07c0-.88.59-1.47,1.47-1.47,2.62,0,5.23,0,7.84,0Z"/><path class="cls-10" d="m49.99,68.75h-7.78c-.73,0-1.3-.39-1.49-1.03-.18-.6.11-1.31.7-1.68.21-.13.43-.13.66-.13h7.14c.26,0,.52-.03.77-.1h0v2.93h0Z"/><path class="cls-3" d="m49.99,68.75v-2.93c.61.03,1.23-.06,1.84.08.72.16,1.25.81,1.19,1.54-.05.74-.68,1.32-1.42,1.31-.53,0-1.07,0-1.6,0Z"/><path class="cls-11" d="m57.81,68.75c-.99.04-1.39-.77-1.44-1.4-.07-.73.76-1.53,1.48-1.5.81.02,1.46.69,1.44,1.5,0,0,0,0,0,.01-.01.8-.64,1.39-1.48,1.39Z"/><path d="m53.45,58.2c1.65.52,2.98,1.41,4,2.66,1.01,1.26,1.52,2.77,1.52,4.55,0,2.79-.91,4.93-2.74,6.44-1.83,1.5-4.08,2.26-6.77,2.26-2.15,0-4.05-.49-5.72-1.48s-2.87-2.44-3.61-4.37l5.77-3.29c.54,1.8,1.73,2.7,3.55,2.7.94,0,1.66-.22,2.17-.67.5-.44.76-1.04.76-1.78s-.25-1.33-.76-1.76c-.51-.43-1.23-.65-2.17-.65h-1.41l-2.55-3.77,4.14-5.07h-8.7v-6.33h16.83v5.22l-4.33,5.33Z"/></svg>