<?xml version="1.0" encoding="UTF-8"?><svg id="Layer_1" xmlns="http://www.w3.org/2000/svg" viewBox="0 0 100 100"><defs><style>.cls-1{fill:none;stroke:#a5262d;stroke-miterlimit:10;stroke-width:4px;}.cls-2{fill:#bacce9;}.cls-3{fill:#c7c7c7;}.cls-4{fill:#bdbdbd;}.cls-5{fill:#ecf5fe;}.cls-6{fill:#b9cce9;}.cls-7{fill:#aaa;}.cls-8{fill:#d7e1f2;}</style></defs><circle class="cls-1" cx="50" cy="50" r="45"/><path d="m29.85,20.81c1.57,1.98,1.24,4.84-.82,6.46l-1.56,1.24,2.59,3.28-2.38,1.89-8.26-10.43,3.95-3.13c2.06-1.63,4.91-1.3,6.48.69Zm-2.38,1.89c-.6-.76-1.6-.92-2.33-.34l-1.56,1.24,2.12,2.68,1.56-1.24c.73-.58.81-1.58.21-2.34Z"/><path d="m30.33,15.08l2.59-1.18,5.76,12.62-2.59,1.18-5.76-12.62Z"/><path d="m47.75,14.63l1.68,9.35-2.81.5-.16-.88c-.49.82-1.33,1.42-2.58,1.64-2.45.44-4.86-1.35-5.36-4.13-.5-2.79,1.13-5.3,3.58-5.74,1.25-.22,2.25.04,2.99.64l-.16-.88,2.8-.5Zm-1.97,5.18c-.25-1.4-1.34-2.11-2.63-1.88-1.29.23-2.07,1.28-1.82,2.68.25,1.4,1.34,2.11,2.64,1.88,1.29-.23,2.07-1.28,1.82-2.68Z"/><path d="m58.18,22.29c-.28,2.17-2.28,2.85-4.31,2.59-1.88-.24-3.22-1.14-3.77-2.76l2.63-1.08c.15.75.63,1.21,1.46,1.32.68.09,1.04-.08,1.09-.46.13-1.04-4.57-1.08-4.16-4.34.26-2.05,2.13-2.87,4.09-2.62,1.53.2,2.8,1.05,3.42,2.49l-2.58.99c-.2-.52-.53-.91-1.16-.99-.49-.06-.81.09-.86.43-.14,1.07,4.59.95,4.15,4.44Z"/><path d="m63.94,20.29l-1.18,3.15c-.29.77.35,1.08,1.55,1.45l-.91,2.42c-3.62-.95-4.24-2.38-3.31-4.87l1.18-3.15-1.42-.53.96-2.56,1.42.53.63-1.69,2.97.2-.93,2.49,1.83.69-.96,2.56-1.83-.69Z"/><path d="m69.16,19.74l2.45,1.46-4.87,8.16-2.45-1.46,4.87-8.16Zm1.06-2.33c.48-.8,1.54-1.07,2.35-.59.8.48,1.07,1.54.59,2.34-.48.8-1.54,1.07-2.34.59s-1.07-1.54-.59-2.34Z"/><path d="m70.93,26.19c1.95-2.05,5.01-2.16,7.11-.17,1.34,1.27,1.85,3.1,1.44,4.72l-2.8-.67c.22-.71,0-1.46-.6-2.04-.9-.85-2.17-.83-3.08.12-.9.95-.86,2.23.04,3.08.61.58,1.39.77,2.07.5l.82,2.75c-1.61.51-3.45.1-4.8-1.18-2.09-1.99-2.15-5.05-.2-7.11Z"/><path class="cls-8" d="m75.38,47.73v.1h-1.6q-.68,0-.68.69v30.33c.02.44-.13.88-.42,1.21-.19.22-.49.25-.68.45h-10.68c0-.09,0-.18,0-.27l-1.23-5.36c-.72-3.12-1.43-6.23-2.15-9.35-1.05-4.55-2.11-9.1-3.16-13.64-.92-4-1.84-7.97-2.75-11.92h15c.23-.04.46.03.63.18v6.21c.02.73.59,1.32,1.32,1.37h3.78c.28,0,.38-.09.38-.36v-1.84c.12,0,.17.11.24.19l2,2.01Z"/><path class="cls-6" d="m75.38,79.42c-.39.8-1.26,1.25-2.14,1.1-.41-.02-.82-.02-1.23,0,.19-.2.49-.24.67-.45.29-.34.44-.77.42-1.21v-30.35q0-.69.69-.69h1.59v31.6Z"/><path class="cls-4" d="m31.75,39.88v-.9c-.16-.88.3-1.75,1.11-2.11h2c0,.07.04.14.1.19.6.38.92,1.08.82,1.78-.02.38-.02.75,0,1.13h-3.92l-.11-.09Z"/><path class="cls-7" d="m35.75,40.02v-1.13c.15-.73-.17-1.48-.81-1.87-.06-.05-.1-.12-.11-.19h2c.89.41,1.38,1.37,1.17,2.33v.77l-2.25.09Z"/><path class="cls-5" d="m61.32,80.51h-6.22c0-.06,0-.12,0-.18l-1.83-8-3.18-13.66c-1.07-4.62-2.14-9.24-3.23-13.86-.37-1.61-.73-3.22-1.1-4.83h6.22c.91,4,1.82,7.97,2.74,11.91,1.05,4.55,2.11,9.09,3.17,13.64.72,3.12,1.43,6.23,2.14,9.35.41,1.79.82,3.58,1.24,5.36.02.09.04.18.05.27Z"/><path class="cls-5" d="m67.62,40.15c.13.03.26.1.34.21l5,5c.05.05.1.11.14.18v1.83c0,.27-.1.36-.38.36h-3.78c-.72-.06-1.29-.64-1.32-1.37v-6.21Z"/><path class="cls-8" d="m45.79,40.02c.37,1.61.73,3.22,1.1,4.83,1.06,4.62,2.12,9.24,3.19,13.86l3.18,13.65,1.83,8c0,.06,0,.12,0,.18h-14.05v-3c0-.51-.27-.81-.71-.82s-.75.29-.75.82v3h-9.22c-.95.02-1.73-.74-1.75-1.69,0-.01,0-.03,0-.04v-37.11c.01-.94.78-1.69,1.72-1.68.01,0,.02,0,.03,0h9.23v3c-.06.4.22.77.62.82.03,0,.06,0,.09,0,.46,0,.75-.29.75-.83v-3h4.74Zm-4.74,20.27v-1.55c0-.4-.33-.73-.73-.73-.4,0-.73.33-.73.73h0v3c-.04.39.24.74.64.78.04,0,.08,0,.11,0,.4,0,.72-.33.71-.73,0-.02,0-.04,0-.05,0-.47,0-.96,0-1.45Zm-1.47,6.14v1.55c0,.4.33.73.73.73.4,0,.73-.33.73-.73h0v-3.06c-.03-.41-.35-.73-.76-.76-.39,0-.7.31-.7.7,0,.02,0,.03,0,.05v1.52Zm0-12.41v1.5c-.02.41.29.77.71.79h0c.42-.05.74-.4.75-.82v-2.91c0-.55-.26-.83-.74-.83s-.71.29-.72.81,0,1,0,1.46Zm0-6.27v1.51c-.04.37.22.71.59.76.04,0,.08,0,.12,0,.39.03.72-.26.75-.64,0-.05,0-.09,0-.14v-2.92c.04-.38-.23-.73-.61-.78-.04,0-.08,0-.13,0-.45,0-.71.28-.72.8s0,.94,0,1.41h0Zm1.47,25v-1.47c0-.52-.27-.8-.72-.81-.39-.02-.72.27-.74.65,0,.04,0,.08,0,.13v2.92c-.05.38.21.72.59.78.05,0,.09,0,.14,0,.46,0,.71-.29.72-.8s0-.94,0-1.42v.02Z"/><path class="cls-6" d="m41.04,40.02v3c0,.53-.29.84-.75.82s-.7-.31-.71-.82v-3h1.46Z"/><path class="cls-4" d="m31.86,80.52h3.93v1.19c.1.83-.39,1.62-1.18,1.9h-1.27c-.84.04-1.56-.61-1.6-1.46,0-.05,0-.1,0-.14v-1.41l.12-.08Z"/><path class="cls-7" d="m34.57,83.61c.78-.29,1.27-1.07,1.18-1.9v-1.19h2.25c.07.6.07,1.21,0,1.81-.13.78-.82,1.34-1.61,1.29h-1.82Z"/><path class="cls-6" d="m39.59,80.51v-3c0-.54.29-.84.75-.83.4,0,.72.34.72.74,0,.03,0,.06,0,.09v3h-1.46Z"/><path class="cls-3" d="m31.86,40.02h-.09s0-.06,0-.09l.09.09Z"/><path class="cls-3" d="m31.86,80.52l-.07.09s0-.06,0-.09h.07Z"/><path class="cls-2" d="m41.05,60.29v1.46c0,.4-.33.73-.73.73-.4,0-.73-.33-.73-.73h0v-3c-.04-.39.25-.74.64-.78.02,0,.05,0,.07,0,.4-.02.73.29.75.69,0,.03,0,.06,0,.09,0,.49,0,1.03,0,1.54Z"/><path class="cls-6" d="m39.59,66.43v-1.5c-.03-.38.25-.71.63-.75.02,0,.05,0,.07,0,.4.03.72.36.75.76v3.06c.03.37-.24.7-.62.74-.04,0-.08,0-.11,0-.38.02-.7-.27-.72-.66,0-.03,0-.07,0-.1,0-.51,0-1.03,0-1.55Z"/><path class="cls-6" d="m39.59,54.02v-1.46c0-.52.26-.8.71-.8s.74.27.74.82v2.92c0,.42-.33.77-.75.81-.41-.02-.73-.37-.71-.79h0c0-.5.01-1,.01-1.5Z"/><path class="cls-6" d="m39.59,47.75v-1.41c0-.52.26-.8.72-.8.38-.03.71.26.73.64,0,.05,0,.09,0,.14v2.92c0,.4-.33.73-.73.73-.4,0-.73-.33-.73-.73h0c-.01-.46,0-.98,0-1.49Z"/><path class="cls-6" d="m41.05,72.73v1.42c0,.51-.27.8-.72.8-.38.03-.71-.26-.73-.64,0-.05,0-.09,0-.14v-2.92c-.04-.38.23-.73.61-.78.04,0,.08,0,.13,0,.45,0,.7.29.71.81v1.45Z"/></svg>