<?xml version="1.0" encoding="UTF-8"?><svg id="Layer_1" xmlns="http://www.w3.org/2000/svg" viewBox="0 0 100 100"><defs><style>.cls-1{fill:none;stroke:#a5262d;stroke-miterlimit:10;stroke-width:4px;}.cls-2{fill:#d2d5d7;}.cls-3{fill:#445367;}.cls-4{fill:#455368;}.cls-5{fill:#d1d5d6;}.cls-6{fill:#445368;}.cls-7{fill:#6ab579;}</style></defs><circle class="cls-1" cx="50" cy="50" r="45"/><path class="cls-7" d="m49.97,36.78h28.49c2.14-.11,3.97,1.54,4.08,3.69.02.34-.01.68-.08,1.02-.13.77-.25,1.55-.39,2.31-.3,1.57,0,1.97,1.59,1.88,2.75-.14,3.38.76,3.35,3.35-.07,5.94,0,11.88,0,17.81,0,1.82-.71,2.56-2.58,2.56h-5.47c-1.29,0-1.42.14-1.69,1.42l-.71,4.17c-.3,1.93-1.97,3.36-3.92,3.34H27.44c-1.98.03-3.68-1.43-3.94-3.4-.26-1.47-.51-2.93-.78-4.39-.15-.84-.47-1.13-1.33-1.13h-6.08c-1.14.13-2.17-.69-2.31-1.83-.02-.15-.02-.31,0-.46v-19.11c-.13-1.15.7-2.18,1.85-2.3.15-.02.31-.02.46,0h1.34c1.14,0,1.5-.43,1.31-1.57-.14-.89-.31-1.79-.47-2.68-.43-2.11.94-4.16,3.05-4.59.28-.06.56-.08.85-.08h28.57Zm0,7.58h-19.84c-2.44,0-3.74,1.57-3.3,3.95s.89,4.9,1.32,7.36c.75,4.19,1.49,8.38,2.26,12.56.23,1.52,1.58,2.62,3.12,2.51h32.9c1.54.1,2.89-1,3.11-2.52.51-2.64.96-5.3,1.42-7.95.71-4.05,1.49-8.08,2.14-12.11.39-2.34-.93-3.8-3.32-3.8h-19.81Zm30.4,5.14c-1.35-.02-2.45,1.06-2.46,2.41,0,0,0,0,0,.01.07,1.31,1.12,2.36,2.44,2.43,1.34,0,2.42-1.1,2.41-2.44,0-.01,0-.02,0-.04.05-1.26-.93-2.33-2.19-2.38-.06,0-.12,0-.17,0h-.01Zm-60.78,16.1c1.35,0,2.44-1.08,2.44-2.43,0,0,0-.01,0-.02-.09-1.3-1.14-2.33-2.44-2.39-1.34.03-2.41,1.14-2.38,2.48,0,0,0,.02,0,.02-.04,1.25.94,2.3,2.2,2.34.06,0,.12,0,.18,0Zm-2.39-13.68c0,1.33,1.06,2.41,2.39,2.42,1.31-.05,2.37-1.08,2.46-2.39,0-1.35-1.1-2.45-2.45-2.45,0,0,0,0-.01,0-1.26-.06-2.33.91-2.39,2.16,0,.09,0,.17,0,.26Zm65.56,11.3c.02-1.32-1.02-2.41-2.34-2.46-1.34.03-2.43,1.08-2.51,2.42,0,1.32,1.07,2.4,2.39,2.42,1.26.09,2.36-.87,2.45-2.13,0-.08,0-.17,0-.25Z"/><path class="cls-2" d="m49.98,44.36h19.86c2.39,0,3.71,1.42,3.32,3.8-.71,4.05-1.42,8.08-2.14,12.11-.48,2.65-.93,5.31-1.42,7.95-.22,1.52-1.58,2.62-3.11,2.52h-32.95c-1.54.1-2.89-.99-3.12-2.51-.78-4.17-1.51-8.36-2.28-12.55-.44-2.45-.89-4.91-1.33-7.36-.43-2.38.87-3.95,3.3-3.95h19.87Zm-12.59,8.12c0-1.38-1.12-2.49-2.49-2.49s-2.49,1.12-2.49,2.49,1.12,2.49,2.49,2.49,2.49-1.12,2.49-2.49Zm2.54,7.66c-1.35,0-2.45,1.09-2.48,2.44,0,1.38,1.12,2.49,2.49,2.49s2.49-1.12,2.49-2.49c-.03-1.37-1.16-2.46-2.53-2.44h.02Zm27.66-7.62c.02-1.37-1.08-2.5-2.45-2.52s-2.5,1.08-2.52,2.45c-.02,1.37,1.08,2.5,2.45,2.52.02,0,.04,0,.06,0,1.33-.05,2.4-1.12,2.44-2.45h.02Zm-7.54,7.62c-1.36,0-2.46,1.1-2.47,2.45-.02,1.37,1.08,2.49,2.45,2.51,1.37.02,2.49-1.08,2.51-2.45.02-1.37-1.08-2.49-2.45-2.51-.01,0-.02,0-.04,0Zm-12.64-7.63c.01-1.35-1.06-2.47-2.41-2.51-1.38-.01-2.5,1.09-2.51,2.47-.01,1.38,1.09,2.5,2.47,2.51,1.36,0,2.46-1.11,2.46-2.47,0,0,0,0,0,0Zm7.61-2.5c-1.38-.01-2.5,1.09-2.52,2.47s1.09,2.5,2.47,2.52c1.38.01,2.5-1.09,2.52-2.47.01-1.38-1.09-2.5-2.47-2.52Zm-2.59,12.66c.02-1.35-1.07-2.46-2.42-2.48s-2.46,1.07-2.48,2.42c-.02,1.35,1.06,2.45,2.41,2.48,1.36.02,2.47-1.06,2.49-2.42h0Z"/><path class="cls-5" d="m80.39,49.5c1.26-.05,2.33.93,2.38,2.19,0,.06,0,.13,0,.19.03,1.34-1.03,2.44-2.37,2.47-.01,0-.02,0-.04,0-1.31-.07-2.36-1.12-2.44-2.43,0-1.35,1.1-2.43,2.45-2.42,0,0,0,0,.01,0Z"/><path class="cls-5" d="m19.59,65.61c-1.25.07-2.33-.89-2.4-2.14,0-.07,0-.14,0-.2-.04-1.34,1.02-2.46,2.36-2.5.01,0,.03,0,.04,0,1.31.05,2.38,1.08,2.46,2.39,0,1.35-1.08,2.44-2.42,2.45-.01,0-.03,0-.04,0Z"/><path class="cls-5" d="m17.21,51.92c-.08-1.26.87-2.34,2.13-2.42.09,0,.17,0,.26,0,1.35,0,2.44,1.1,2.44,2.45-.09,1.3-1.14,2.33-2.44,2.39-1.33-.02-2.39-1.1-2.39-2.42Z"/><path class="cls-5" d="m82.77,63.23c.05,1.27-.94,2.33-2.2,2.38-.08,0-.17,0-.25,0-1.32-.02-2.39-1.1-2.39-2.42.08-1.34,1.17-2.39,2.51-2.42,1.32.05,2.36,1.14,2.34,2.46Z"/><path class="cls-4" d="m37.4,52.48c0,1.37-1.1,2.49-2.47,2.5-1.37,0-2.49-1.1-2.5-2.47,0-1.37,1.1-2.49,2.47-2.5.01,0,.03,0,.04,0,1.35.04,2.43,1.12,2.46,2.47Z"/><path class="cls-3" d="m39.91,60.14c1.34.01,2.44,1.09,2.47,2.43,0,1.38-1.12,2.49-2.49,2.49s-2.49-1.12-2.49-2.49h0c.03-1.36,1.15-2.44,2.51-2.43Z"/><path class="cls-6" d="m67.57,52.52c-.01,1.38-1.14,2.48-2.52,2.47-1.38-.01-2.48-1.14-2.47-2.52s1.14-2.48,2.52-2.47c1.38.01,2.48,1.14,2.47,2.52Z"/><path class="cls-3" d="m60.06,60.14c1.35.01,2.45,1.1,2.49,2.45,0,1.38-1.12,2.49-2.49,2.49s-2.49-1.12-2.49-2.49c.02-1.37,1.13-2.46,2.5-2.45Z"/><path class="cls-3" d="m47.41,52.51c0,1.36-1.1,2.45-2.46,2.46-1.38-.01-2.48-1.14-2.47-2.51.01-1.38,1.14-2.48,2.51-2.47,1.36.04,2.44,1.17,2.41,2.53Z"/><path class="cls-3" d="m55.03,50.01c1.38.01,2.48,1.14,2.47,2.52-.01,1.38-1.14,2.48-2.52,2.47-1.38-.01-2.48-1.14-2.47-2.52s1.14-2.48,2.52-2.47Z"/><path class="cls-3" d="m52.44,62.67c-.05,1.35-1.18,2.41-2.53,2.37s-2.41-1.18-2.37-2.53c.05-1.35,1.18-2.41,2.53-2.37s2.41,1.18,2.37,2.53Z"/><path d="m35.11,17.73c1.33,2.31.54,5.23-1.85,6.61l-1.82,1.05,2.2,3.81-2.77,1.6-6.99-12.14,4.59-2.64c2.39-1.38,5.32-.59,6.64,1.72Zm-2.77,1.6c-.51-.88-1.52-1.2-2.37-.71l-1.82,1.05,1.8,3.12,1.82-1.05c.85-.49,1.08-1.52.58-2.41Z"/><path d="m38.19,21.04c-.56-2.93,1.33-5.63,4.22-6.18s5.64,1.27,6.2,4.2c.56,2.93-1.33,5.63-4.22,6.18-2.89.55-5.64-1.27-6.2-4.2Zm7.47-1.42c-.26-1.4-1.42-2.13-2.7-1.89-1.28.24-2.08,1.35-1.82,2.75.27,1.4,1.42,2.13,2.7,1.89,1.28-.24,2.08-1.35,1.82-2.75Z"/><path d="m57.3,14.74l-.33,3.38c-1.22-.32-3.01.01-3.21,1.98l-.43,4.5-2.99-.29.96-9.96,2.99.29-.17,1.77c.53-1.3,1.92-1.8,3.18-1.68Z"/><path d="m63.12,19.64l-1.14,3.35c-.28.81.4,1.13,1.67,1.48l-.88,2.58c-3.84-.89-4.54-2.37-3.64-5.02l1.14-3.35-1.51-.52.93-2.73,1.52.52.61-1.8,3.13.12-.9,2.65,1.95.66-.93,2.73-1.95-.66Z"/><path d="m71.64,29.02c-1.25,1.93-3.46,1.67-5.27.5-1.68-1.08-2.54-2.55-2.32-4.33l2.99.17c-.19.78.05,1.44.79,1.91.6.39,1.03.4,1.24.06.6-.92-3.85-3.11-1.97-6.01,1.18-1.83,3.33-1.76,5.07-.63,1.36.88,2.18,2.27,2.11,3.91l-2.9-.23c.05-.59-.09-1.11-.65-1.47-.44-.28-.81-.29-1.01.01-.62.96,3.93,2.99,1.92,6.1Z"/></svg>