<?xml version="1.0" encoding="UTF-8"?><svg id="Layer_1" xmlns="http://www.w3.org/2000/svg" viewBox="0 0 100 100"><defs><style>.cls-1{fill:none;stroke:#a5262d;stroke-miterlimit:10;stroke-width:4px;}.cls-2{fill:#f0ca6f;}.cls-3{fill:#e2bb64;}.cls-4{fill:#222;}.cls-5{fill:#424240;}.cls-6{fill:#212121;}.cls-7{fill:#f0f3f2;}</style></defs><circle class="cls-1" cx="50" cy="50" r="45"/><path class="cls-4" d="m37.58,32.7c.46.21.72.69.65,1.19v4.8c0,.19,0,.39.04.57h-1.9c0-1.78.03-3.56,0-5.34-.05-.49.17-.96.57-1.24l.64.02Z"/><path class="cls-4" d="m56.69,32.7c.44.23.69.71.63,1.2v4.79c0,.19,0,.39.05.57h-1.89c0-1.78.03-3.56,0-5.34-.06-.49.16-.97.57-1.24l.65.02Z"/><path class="cls-4" d="m61.84,39.28c0-1.78.04-3.56,0-5.34-.05-.49.17-.96.57-1.24h.65c.43.21.68.66.63,1.14v4.85c0,.19,0,.39.04.57l-1.89.02Z"/><path class="cls-4" d="m77.63,60.76c-.31.38-.78.57-1.27.52h-4.73c-.19-.02-.39,0-.57.06v-1.91c1.81,0,3.63.04,5.43,0,.45-.03.89.18,1.14.57v.76Z"/><path class="cls-4" d="m50.32,32.7c.44.23.69.71.63,1.2v4.79c0,.2.03.39.05.57h-1.88v-5.47c-.06-.47.21-.93.65-1.11l.55.02Z"/><path class="cls-4" d="m38.26,81.39c-.06.71-.07,1.43-.03,2.14,0,1-.03,2.01,0,3.01.03.69-.14,1.21-.85,1.43h-.34c-.48-.32-.74-.89-.66-1.46v-5.12h1.88Z"/><path class="cls-4" d="m57.36,81.39c-.07.67-.09,1.35-.05,2.03v3.17c.11.61-.25,1.21-.85,1.38h-.32c-.49-.31-.75-.88-.67-1.46.03-1.71,0-3.41,0-5.12h1.89Z"/><path class="cls-4" d="m62.51,87.97c-.49-.32-.74-.89-.66-1.46v-5.12h1.91c-.07.68-.09,1.36-.05,2.04,0,1.03-.03,2.07,0,3.11,0,.69-.14,1.21-.85,1.43h-.35Z"/><path class="cls-4" d="m28.92,48.53c-1.82,0-3.65-.03-5.47-.03-.45.06-.88-.17-1.09-.57v-.76c.33-.35.81-.53,1.29-.47h5.28v1.83Z"/><path class="cls-4" d="m22.36,72.75c.21-.4.64-.62,1.09-.57,1.82,0,3.65,0,5.47-.03v1.85c-1.76,0-3.52-.03-5.28,0-.48.05-.96-.12-1.29-.47v-.79Z"/><path class="cls-4" d="m71.07,72.13c1.43.1,2.84,0,4.29.05h1.18c.45-.06.89.16,1.09.57v.65c-.22.39-.66.61-1.1.57h-4.88c-.19,0-.39,0-.57.05v-1.88Z"/><path class="cls-4" d="m28.92,54.89c-1.82,0-3.65-.03-5.47,0-.45.05-.88-.17-1.09-.57v-.68c.21-.4.65-.62,1.09-.57h5.47v1.81Z"/><path class="cls-4" d="m42.7,39.27c0-1.8.03-3.6,0-5.39-.06-.47.16-.93.57-1.17h.65c.4.25.62.7.57,1.17v5.39h-1.78Z"/><path class="cls-4" d="m71.07,65.77c1.82.1,3.64,0,5.47.03.45-.05.88.17,1.09.57v.65c-.21.4-.65.62-1.1.57h-4.88c-.19,0-.39.03-.57.05-.01-.62-.01-1.24-.01-1.86Z"/><path class="cls-4" d="m77.63,54.29c-.22.4-.65.62-1.1.57h-4.88c-.19,0-.39,0-.57.04v-1.86c1.82.1,3.64,0,5.46.03.45-.05.88.17,1.1.57v.65Z"/><path class="cls-4" d="m28.94,61.23c-1.78,0-3.56-.03-5.34,0-.49.05-.96-.17-1.24-.57v-.65c.28-.4.75-.62,1.24-.57h5.34v1.78Z"/><path class="cls-4" d="m22.36,66.38c.21-.4.65-.62,1.09-.57h5.47v1.84c-1.82,0-3.65-.03-5.47,0-.45.05-.88-.17-1.09-.57v-.7Z"/><path class="cls-4" d="m77.63,47.92c-.31.42-.82.64-1.34.57-1.54-.03-3.09,0-4.63,0-.19,0-.39.03-.57.05v-1.87c1.45.1,2.9,0,4.35.05.32.02.64.02.97,0,.52-.09,1.04.19,1.24.68l-.02.53Z"/><path class="cls-6" d="m43.41,87.97c-.49-.27-.76-.82-.69-1.37.03-1.53,0-3.07,0-4.61,0-.19,0-.39-.05-.57h1.88c-.11,1.21,0,2.4-.05,3.61,0,.54-.03,1.08,0,1.61.13.58-.22,1.17-.79,1.34h-.31Z"/><path class="cls-6" d="m49.78,87.97c-.46-.27-.72-.78-.66-1.31v-5.23h1.8c0,1.76-.05,3.52-.03,5.28.09.56-.23,1.11-.77,1.3l-.35-.03Z"/><path class="cls-5" d="m50.9,81.4h-21.16c-.57,0-.82-.31-.82-.91v-40.33c0-.62.28-.9.88-.9h40.43c.57,0,.84.29.85.89v40.38c0,.57-.27.9-.84.9h-8.42c-1.49.05-2.97.05-4.46,0h-1.9c-1.52.02-3.02.02-4.56-.03Zm-.93-7.14h13.33c.48,0,.64-.11.64-.62v-26.66c0-.48-.14-.57-.61-.57h-26.66c-.47,0-.61.1-.61.57v26.66c0,.51.15.63.63.63,4.43,0,8.85,0,13.27,0Z"/><path class="cls-6" d="m49.96,74.26h-13.27c-.48,0-.64-.11-.63-.63v-26.66c0-.49.14-.57.61-.57h26.66c.47,0,.61.11.61.57v26.66c0,.51-.15.62-.64.62-4.45,0-8.89,0-13.33,0Zm-9.41-13.92c0,5.21,4.23,9.43,9.44,9.42,5.21,0,9.43-4.23,9.42-9.44,0-5.19-4.21-9.4-9.4-9.42-5.2-.03-9.43,4.17-9.46,9.37,0,.02,0,.05,0,.07Z"/><path class="cls-7" d="m40.55,60.34c0-5.21,4.21-9.44,9.42-9.44,5.21,0,9.44,4.21,9.44,9.42,0,5.21-4.21,9.44-9.42,9.44,0,0,0,0-.01,0-5.2,0-9.42-4.2-9.43-9.4,0,0,0-.02,0-.02Zm8.67,6.79c.11-.12.21-.24.3-.37,1.09-1.73,2.18-3.47,3.26-5.2l1.29-2.07h-1.14c-.57,0-1.08-.03-1.61,0-.36,0-.47-.11-.46-.46v-5.42c-.53.65-1.02,1.35-1.45,2.07l-3.22,5.05c-.07.12-.22.24-.16.38s.29.09.44.09h2.1c.44,0,.57.11.57.57-.05,1.14-.03,2.28.04,3.41-.08.64-.09,1.29-.03,1.94.05.11.07.06.09.02Z"/><path class="cls-2" d="m49.2,65.19c-.07-1.14-.09-2.27-.04-3.41,0-.45-.14-.57-.57-.57-.7.03-1.4,0-2.1,0-.15,0-.35.09-.44-.09s.09-.26.16-.38l3.18-5.05c.43-.73.92-1.42,1.45-2.07v5.41c0,.35.1.48.46.46h1.61c-.89,1.41-1.76,2.84-2.67,4.23-.26.55-.62,1.05-1.05,1.47Z"/><path class="cls-3" d="m49.2,65.19c.43-.43.78-.93,1.03-1.48.91-1.4,1.78-2.84,2.67-4.23h1.14l-1.26,2.07c-1.08,1.74-2.17,3.47-3.26,5.2-.09.13-.19.25-.3.37h-.06c-.06-.65-.05-1.3.03-1.94Z"/><path class="cls-2" d="m49.17,67.13h.06s-.04.1-.06,0Z"/><path d="m16.82,34.7c2.27.77,3.48,3.19,2.69,5.53l-.6,1.78,3.75,1.27-.91,2.71-11.93-4.04,1.51-4.48c.79-2.33,3.22-3.53,5.49-2.76Zm-.91,2.71c-.87-.29-1.74.09-2.02.92l-.6,1.78,3.07,1.04.6-1.78c.28-.83-.18-1.66-1.05-1.96Z"/><path d="m20.47,27.56l2.55,1.69c-.76.82-1.26,2.38.23,3.37l3.39,2.25-1.48,2.23-7.5-4.98,1.48-2.23,1.33.89c-.81-.96-.63-2.28,0-3.22Z"/><path d="m24.83,29.3c-1.79-2-1.6-4.95.35-6.7,1.96-1.75,4.9-1.62,6.7.38,1.79,2,1.6,4.95-.35,6.7-1.96,1.75-4.91,1.62-6.69-.38Zm5.05-4.53c-.85-.95-2.08-.99-2.95-.21-.87.77-.96,2-.11,2.95.85.95,2.08.99,2.95.21.86-.78.96-2,.11-2.95Z"/><path d="m33.24,22.18c-1.12-2.44-.14-5.16,2.33-6.29,1.58-.72,3.35-.52,4.63.42l-1.56,2.21c-.54-.45-1.28-.52-1.99-.2-1.06.48-1.48,1.61-.97,2.74.52,1.13,1.65,1.54,2.7,1.06.71-.33,1.16-.94,1.16-1.64l2.69.26c-.11,1.6-1.11,3.06-2.71,3.79-2.47,1.13-5.16.08-6.28-2.36Z"/><path d="m47.37,19.91c.73-.1,1.31-.47,1.61-.91l2.29.94c-.7,1.33-1.93,2.13-3.61,2.36-3.03.41-5.18-1.38-5.54-4.04-.36-2.66,1.27-4.97,4.06-5.35,2.58-.35,4.77,1.4,5.14,4.1.05.37.06.74.04,1.08l-6.28.86c.46.88,1.32,1.09,2.29.96Zm1.18-3.47c-.42-1-1.27-1.26-2.07-1.15-1.01.14-1.61.73-1.74,1.67l3.8-.52Z"/><path d="m59.54,19.93c-.28,2.05-2.17,2.68-4.08,2.42-1.77-.24-3.02-1.1-3.52-2.64l2.48-1.01c.14.71.58,1.15,1.36,1.26.64.09.98-.07,1.03-.42.13-.98-4.29-1.06-3.87-4.14.26-1.94,2.03-2.7,3.87-2.45,1.43.19,2.62,1.01,3.19,2.38l-2.43.92c-.19-.5-.49-.87-1.08-.95-.46-.06-.77.08-.81.4-.14,1.02,4.31.93,3.86,4.23Z"/><path d="m66.83,22.71c-.75,1.93-2.73,2.11-4.53,1.41-1.66-.65-2.68-1.77-2.8-3.39l2.65-.4c-.03.72.3,1.25,1.03,1.54.6.23.97.16,1.1-.17.36-.92-3.93-2.03-2.8-4.93.71-1.83,2.6-2.16,4.33-1.49,1.35.52,2.31,1.59,2.55,3.06l-2.58.33c-.06-.53-.28-.96-.83-1.17-.43-.17-.76-.1-.88.2-.37.96,3.97,1.91,2.77,5.01Z"/><path d="m68.68,21.54c1.63-2.13,4.56-2.5,6.65-.91,2.09,1.59,2.5,4.52.88,6.65-1.63,2.13-4.56,2.5-6.65.91-2.09-1.59-2.5-4.52-.88-6.65Zm5.39,4.12c.78-1.02.58-2.23-.34-2.93-.92-.7-2.15-.57-2.92.44-.78,1.02-.58,2.23.34,2.93.92.7,2.15.57,2.92-.44Z"/><path d="m84.33,30.22l-2.42,1.88c-.54-.99-1.86-1.95-3.26-.86l-3.21,2.5-1.64-2.12,7.11-5.52,1.64,2.12-1.27.98c1.17-.46,2.36.13,3.05,1.02Z"/><path d="m82.67,41.26c-1.87.88-3.43-.36-4.25-2.1-.76-1.62-.72-3.13.3-4.39l2.19,1.53c-.52.5-.65,1.12-.31,1.83.27.58.59.79.92.63.9-.42-1.45-4.17,1.36-5.5,1.77-.84,3.37.23,4.16,1.91.62,1.31.58,2.75-.25,3.97l-2.1-1.54c.32-.43.46-.89.21-1.42-.2-.42-.48-.6-.78-.46-.93.44,1.57,4.12-1.45,5.54Z"/></svg>