<?xml version="1.0" encoding="UTF-8"?><svg id="Layer_1" xmlns="http://www.w3.org/2000/svg" viewBox="0 0 100 100"><defs><style>.cls-1{fill:#a5c2db;}.cls-2{fill:none;stroke:#c000e2;stroke-miterlimit:10;stroke-width:4px;}.cls-3{fill:#555a6e;}.cls-4{fill:#463c4b;}.cls-5{fill:#a5c3db;}.cls-6{fill:#d3e4ee;}.cls-7{fill:#2489c4;}.cls-8{fill:#58d4fc;}.cls-9{fill:#d6e5ef;}.cls-10{fill:#2487c3;}.cls-11{fill:#2387c3;}.cls-12{fill:#2487c2;}.cls-13{fill:#2387c2;}.cls-14{fill:#a4c2db;}.cls-15{fill:#fccc07;}</style></defs><circle class="cls-2" cx="50" cy="50" r="45"/><path d="m18.43,54.61l.64-1.07,1.59,1.01-.68,1.15c.45.5.8,1.11,1,1.8.68,2.37-.63,4.82-3.06,5.51-2.43.69-4.84-.69-5.51-3.06-.68-2.37.63-4.82,3.06-5.51,1.04-.3,2.07-.21,2.97.17Zm.49,2.86l-.92,1.55-1.59-1.01,1.02-1.72c-.44-.1-.92-.11-1.43.04-1.47.42-2.15,1.76-1.76,3.1.38,1.34,1.67,2.12,3.14,1.7,1.47-.42,2.15-1.76,1.76-3.1-.06-.2-.13-.38-.22-.56Z"/><path d="m13.48,46.86l6.13-.09.03,1.84h-.58c.46.33.76.94.77,1.75.02,1.24-.85,2.3-2.5,2.33l-3.76.06-.03-1.84,3.49-.05c.76-.01,1.11-.49,1.1-1.08-.01-.67-.41-1.13-1.28-1.12l-3.35.05-.03-1.84Z"/><path d="m15.03,38.4l5.99,1.31-.39,1.8-.56-.12c.37.49.52,1.14.34,1.94-.34,1.57-2,2.56-3.79,2.17-1.78-.39-2.88-1.98-2.54-3.55.18-.8.58-1.33,1.12-1.62l-.56-.12.39-1.8Zm2.6,2.45c-.9-.2-1.59.28-1.77,1.11-.18.83.25,1.55,1.15,1.74.9.19,1.59-.28,1.77-1.11.18-.83-.25-1.55-1.15-1.74Z"/><path d="m20.44,31.94l3.4,1.6-.78,1.66-3.16-1.49c-.69-.32-1.21-.04-1.46.49-.29.61-.13,1.2.66,1.57l3.03,1.43-.78,1.66-5.54-2.61.79-1.66.52.25c-.27-.49-.27-1.17.07-1.9.53-1.12,1.78-1.7,3.27-.99Z"/><path d="m22.24,28.37l1.76,1.27c.43.31.73-.03,1.17-.71l1.35.98c-1.21,2.09-2.2,2.24-3.6,1.23l-1.76-1.27-.57.79-1.43-1.03.57-.8-.94-.68.63-1.81,1.39,1,.74-1.02,1.43,1.03-.74,1.03Z"/><path d="m26.95,20.8l4.23,4.44-1.33,1.27-.4-.42c.07.56-.17,1.19-.75,1.75-.9.85-2.27.94-3.41-.26l-2.6-2.73,1.33-1.27,2.41,2.53c.52.55,1.12.48,1.54.07.49-.46.56-1.07-.04-1.7l-2.31-2.42,1.33-1.27Z"/><path d="m38.1,16.93l1.76,3.33-1.62.86-1.69-3.19c-.29-.54-.73-.75-1.25-.47-.54.29-.64.83-.31,1.47l1.62,3.05-1.62.86-1.69-3.19c-.29-.54-.73-.75-1.25-.47-.54.29-.64.83-.31,1.47l1.62,3.05-1.62.86-2.87-5.42,1.63-.86.26.5c.05-.5.38-1.03,1.11-1.42.64-.34,1.25-.33,1.8-.04.07-.59.42-1.14,1.19-1.55,1.25-.66,2.53-.2,3.25,1.15Z"/><path d="m39.7,15.8l4.53-1.08.41,1.72-4.53,1.08-.41-1.72Z"/><path d="m45.89,15.93c-.07-1.83,1.27-3.29,3.13-3.35,1.19-.04,2.27.54,2.83,1.47l-1.57.99c-.22-.42-.67-.66-1.21-.64-.8.03-1.36.63-1.33,1.47.03.85.64,1.4,1.44,1.37.54-.02.98-.29,1.16-.73l1.64.86c-.49.98-1.51,1.64-2.71,1.68-1.86.07-3.3-1.29-3.37-3.12Z"/><path d="m52.44,15.74c.31-1.8,1.97-2.94,3.75-2.64,1.78.31,2.96,1.94,2.65,3.74-.31,1.8-1.97,2.94-3.75,2.64-1.78-.31-2.96-1.94-2.65-3.74Zm4.59.79c.15-.86-.36-1.53-1.14-1.67-.79-.13-1.49.33-1.63,1.19-.15.86.36,1.53,1.14,1.66.79.14,1.49-.33,1.63-1.19Z"/><path d="m68.83,20.4l-1.61,3.4-1.66-.79,1.54-3.26c.26-.55.17-1.03-.37-1.29-.55-.26-1.05-.02-1.36.63l-1.48,3.12-1.66-.79,1.54-3.26c.26-.55.16-1.03-.37-1.29-.55-.26-1.05-.02-1.36.63l-1.48,3.12-1.66-.79,2.63-5.54,1.66.79-.24.51c.43-.26,1.06-.31,1.8.04.65.31,1.02.81,1.1,1.42.52-.3,1.17-.34,1.95.03,1.27.6,1.67,1.91,1.02,3.29Z"/><path d="m74.69,26.43c-1.21,1.37-3.13,1.56-4.34.5-.62-.54-.88-1.15-.88-1.77l-2,2.27-1.38-1.21,5.67-6.44,1.38,1.21-.38.43c.61-.08,1.25.1,1.87.64,1.21,1.06,1.27,2.99.06,4.37Zm-1.38-1.21c.61-.69.53-1.53-.11-2.09-.64-.56-1.48-.53-2.08.16-.61.69-.53,1.53.11,2.09.63.56,1.48.53,2.08-.16Z"/><path d="m81.39,30.42l-5,3.55-1.06-1.5.47-.33c-.56,0-1.16-.34-1.63-1-.72-1.01-.61-2.38.74-3.34l3.07-2.18,1.06,1.5-2.85,2.02c-.62.44-.63,1.04-.29,1.52.39.55.98.7,1.69.2l2.73-1.94,1.06,1.5Z"/><path d="m81.72,35.11l-1.96.93c-.48.23-.33.66.07,1.37l-1.5.71c-1.25-2.06-.9-3,.65-3.74l1.96-.93-.42-.89,1.59-.76.42.89,1.05-.5,1.29,1.42-1.55.74.54,1.14-1.59.76-.54-1.14Z"/><path d="m86.11,43.17l-5.93,1.54-.46-1.78.56-.14c-.55-.27-.98-.79-1.18-1.58-.4-1.55.63-3.19,2.4-3.64,1.77-.46,3.46.47,3.87,2.02.21.79.08,1.45-.27,1.96l.56-.14.46,1.78Zm-3.43-1.01c.89-.23,1.29-.97,1.08-1.79-.21-.82-.92-1.27-1.81-1.04-.89.23-1.29.97-1.08,1.79.21.82.92,1.27,1.81,1.04Z"/><path d="m84.69,47.75l-2.17.13c-.53.03-.55.49-.45,1.29l-1.66.1c-.39-2.38.29-3.12,2-3.23l2.17-.13-.06-.98,1.76-.11.06.98,1.16-.07.66,1.8-1.71.1.08,1.26-1.76.11-.08-1.26Z"/><path d="m86.47,50.45l-.11,1.84-6.12-.37.11-1.84,6.12.37Zm1.65-.08c.6.04,1.07.57,1.04,1.17-.04.6-.57,1.07-1.17,1.04s-1.07-.57-1.04-1.17.57-1.07,1.17-1.03Z"/><path d="m83.31,53.35c1.78.4,2.84,2.12,2.44,3.88-.4,1.76-2.09,2.86-3.87,2.46-1.78-.4-2.84-2.12-2.44-3.88.4-1.76,2.09-2.86,3.87-2.46Zm-1.02,4.54c.85.19,1.55-.28,1.72-1.06.17-.78-.25-1.5-1.1-1.69-.85-.19-1.55.28-1.72,1.06-.17.78.25,1.5,1.1,1.69Z"/><path d="m79.56,66.51l-3.4-1.61.78-1.66,3.16,1.49c.69.33,1.21.04,1.46-.49.29-.61.13-1.2-.66-1.57l-3.03-1.43.78-1.66,5.54,2.62-.78,1.66-.52-.25c.27.49.27,1.17-.07,1.9-.53,1.12-1.78,1.7-3.27.99Z"/><path class="cls-13" d="m29.83,45.69v-8.83c.01-1.41.71-2.11,2.1-2.11h30.46c1.39,0,2.09.71,2.09,2.11v8.83c.01.25,0,.49,0,.74v19.2c0,1.19-.74,1.94-1.91,1.94h-30.83c-1.17,0-1.91-.76-1.91-1.94v-10.6c0-3.12,0-6.23-.01-9.34Zm19.19,18.16c.37-.07.64-.32.9-.56.88-.75,1.58-1.69,2.07-2.74.17-.39.4-.52.82-.49.94.07,1.89,0,2.82-.22,2.38-.6,3.66-2.23,3.48-4.54-.1-1.23-.58-2.36-1.26-3.37-.37-.55-.39-.91-.02-1.49.8-1.22,1.35-2.54,1.29-4.04,1.28-.87,1.12-2.4.12-3.1-.66-.47-1.35-.37-2.05-.08-.24-.26-.57-.36-.89-.48-1.1-.42-2.25-.51-3.41-.44-.49.03-.76-.11-.96-.56-.47-1.07-1.22-1.96-2.09-2.74-1.22-1.13-3.02-1.36-4.5-.59-1.03.52-1.76,1.37-2.4,2.28-.34.5-.5,1.25-.95,1.5-.48.27-1.22.04-1.84.1-1.08.09-2.14.24-3.05.91-.46-.15-.92-.34-1.43-.2-.72.2-1.19.65-1.36,1.38-.19.86.18,1.5.87,2-.06,1.57.55,2.92,1.37,4.19.27.42.33.71.02,1.15-.69.96-1.15,2.06-1.34,3.23-.24,1.59.15,2.98,1.49,3.98,1.24.91,2.69,1.2,4.19,1.11.82-.05,1.38.11,1.63.96.09.23.21.45.37.63.66.88,1.3,1.78,2.37,2.22.05.8.39,1.42,1.13,1.76,1.03.48,2.49-.14,2.57-1.75Z"/><path class="cls-3" d="m29.83,45.69c0,3.12,0,6.23.01,9.34v10.6c0,1.18.74,1.94,1.91,1.94h30.83c1.17,0,1.91-.75,1.91-1.94v-19.2c0-.25,0-.49.01-.74l2.39.02c2.11.51,3.1,2.04,3.09,4.2-.04,7.71-.01,15.42-.01,23.12-.15,0-.3.01-.46.01H24.84c-.15,0-.3,0-.46-.01v-23.99c0-1.68,1.66-3.31,3.34-3.35.71-.01,1.4,0,2.11,0Z"/><path class="cls-9" d="m24.38,73.03c.15,0,.3.01.46.01h44.67c.15,0,.3,0,.46-.01v.03c0,.75.02,1.5-.27,2.23-.51,1.29-1.52,1.96-2.8,2.3h-15.18s-23.81.01-23.81.01c-1.95-.02-3.52-1.6-3.54-3.55,0-.34,0-.68,0-1.03Z"/><path class="cls-4" d="m69.97,73.03c0-7.71-.03-15.42.01-23.12.01-2.15-.97-3.69-3.09-4.2,1.08,0,2.16-.04,3.24,0,1.86.08,3.36,1.56,3.47,3.43,0,.04,0,.08,0,.11v23.79s-3.65.02-3.65.02l.02-.03Z"/><path class="cls-9" d="m51.73,81.25l.14.03c-.9.69-1.19,1.6-1.04,2.71-4.09,0-8.19,0-12.28.01-.35,0-.48-.09-.51-.47-.12-1.52.89-2.38,2.21-2.28.9.07,1.82,0,2.73.02.41.01.59-.09.56-.53s0-.87,0-1.31h4.14c1.31,0,1.33,0,1.31,1.29,0,.48.17.57.59.55.72-.04,1.44-.02,2.16-.02Z"/><path class="cls-14" d="m51.73,81.25c-.72,0-1.44-.02-2.15,0-.42.02-.6-.08-.59-.55.02-1.28,0-1.28-1.31-1.28h-4.14v-1.83h8.2v3.65Z"/><path class="cls-5" d="m69.96,73.06l3.64-.02c.08,1.12,0,2.19-.74,3.13-.64.87-1.64,1.4-2.72,1.43-1.08.04-2.16,0-3.24,0,1.28-.35,2.28-1.01,2.8-2.3.29-.73.27-1.48.25-2.23Z"/><path class="cls-1" d="m50.82,83.98c-.16-1.1.13-2.01,1.04-2.7.87,0,1.74-.05,2.61-.02,1.41.05,1.99,1.19,1.8,2.53-.04.28-.28.2-.46.2-1.66,0-3.32,0-4.99,0Z"/><path class="cls-8" d="m59.13,46.38c.06,1.5-.49,2.83-1.29,4.04-.37.57-.35.94.02,1.49.68,1.01,1.16,2.13,1.26,3.37.18,2.31-1.1,3.94-3.48,4.54-.92.21-1.87.29-2.82.22-.42-.02-.65.11-.82.49-.48,1.05-1.19,1.99-2.07,2.74-.27.24-.53.49-.9.56-.09-.3-.18-.59-.27-.88,1.19-.63,1.83-1.72,2.44-2.85.14-.27-.06-.26-.24-.29-1.14-.2-2.25-.51-3.33-.92-.3-.13-.64-.12-.94.01-1.02.41-2.08.7-3.16.88-.47.08-.44.21-.26.56.56,1.03,1.32,1.95,2.23,2.69l-.17.8c-1.07-.44-1.71-1.34-2.37-2.22-.16-.19-.29-.4-.37-.63-.25-.85-.81-1.01-1.63-.96-1.5.09-2.95-.19-4.19-1.11-1.34-.99-1.73-2.38-1.49-3.98.19-1.16.65-2.27,1.34-3.23.3-.44.25-.73-.02-1.15-.82-1.27-1.43-2.63-1.37-4.19.29.14.6.22.91.24.05,1.39.64,2.58,1.42,3.77.89-1.08,1.89-2.07,2.98-2.95.1-.11.16-.26.16-.41.16-1.12.44-2.23.83-3.29.17-.46.04-.55-.41-.56-1.15-.02-2.3.18-3.38.6l-.59-.58c.9-.68,1.97-.83,3.05-.91.62-.05,1.36.17,1.84-.1.46-.25.61-1.01.95-1.5.64-.93,1.37-1.77,2.4-2.28,1.47-.77,3.27-.53,4.5.59.87.78,1.62,1.66,2.09,2.74.2.46.47.6.96.56,1.16-.07,2.31.02,3.41.44.32.12.65.22.89.48-.2.2-.35.46-.63.56-1.06-.41-2.19-.62-3.33-.61-.52,0-.56.17-.41.61.32.93.64,1.87.73,2.85.06.64.46,1.01.89,1.37.23.19.46.39.68.6.5.47.97.96,1.4,1.49.1.12.23.37.42.06.67-1.09,1.22-2.22,1.26-3.54.32-.02.63-.1.91-.23Zm-17.88,4.92c-.09.73.1,1.57.12,2.42,0,.48.25.92.66,1.17,1.51,1.06,3.11,1.96,4.79,2.71.22.11.47.11.69,0,1.72-.76,3.35-1.69,4.87-2.78.3-.17.49-.47.54-.81.24-1.92.23-3.86-.02-5.78-.03-.27-.17-.51-.39-.65-1.58-1.15-3.28-2.12-5.07-2.9-.19-.08-.41-.07-.59.02-1.75.77-3.42,1.72-4.98,2.84-.25.15-.41.4-.44.68-.14,1.02-.19,2.05-.18,3.08Zm5.95-12.45c-.27-.01-.53.03-.79.11-1.65.51-2.5,1.82-3.26,3.23-.17.32.08.28.27.32,1.12.2,2.21.51,3.27.91.3.13.64.13.94,0,1.06-.42,2.15-.72,3.27-.91.33-.06.37-.14.23-.43-.28-.56-.62-1.09-1.02-1.57-.76-.9-1.66-1.6-2.92-1.66h0Zm-6.55,20.29h.28c.73,0,.74,0,.51-.68-.31-.89-.54-1.81-.71-2.74-.06-.31-.01-.68-.33-.93-.97-.76-1.85-1.62-2.63-2.58-.21-.27-.32-.2-.48.06-.47.73-.82,1.54-1.05,2.38-.3,1.22-.22,2.38.77,3.3,1.03.96,2.31,1.15,3.64,1.19h0Zm12.69,0c1.07,0,1.78-.1,2.46-.33,1.84-.6,2.65-1.96,2.32-3.86-.17-.95-.6-1.79-1.07-2.62-.21-.37-.35-.35-.59-.05-.65.82-1.39,1.56-2.21,2.2-.41.31-.66.78-.7,1.3-.09.81-.35,1.59-.58,2.37-.29,1-.3.99.38.99h0Zm-12.88-5.6c-.17-1.58-.18-3.18-.01-4.77-.91.6-1.48,1.38-2.13,2.09-.16.15-.17.41-.02.57.01.01.03.03.04.04.65.68,1.19,1.48,2.12,2.06Zm8-9.42c1.45.7,2.85,1.52,4.18,2.44-.18-.98-.44-1.94-.79-2.87-.07-.18-.11-.41-.42-.35-1.02.17-2.01.43-2.98.78h0Zm-2.59,14.08c-1.45-.7-2.84-1.51-4.17-2.43.17,1,.44,1.98.8,2.93.06.15.11.34.35.29.98-.19,1.95-.37,3.01-.79h0Zm-4.17-11.63c1.36-.98,2.7-1.71,4.15-2.46-.96-.35-1.95-.61-2.96-.78-.27-.05-.32.13-.39.3-.37.95-.64,1.93-.81,2.93h0Zm12.18,2.21c.17,1.58.18,3.17.01,4.75.91-.59,1.48-1.38,2.13-2.08.22-.24.13-.46-.05-.65-.65-.67-1.19-1.43-2.09-2.02h0Zm-5.42,9.42c1.05.42,2.03.61,3,.8.2.04.27-.09.33-.23.38-.96.66-1.96.82-2.98-1.32.91-2.71,1.72-4.15,2.42Z"/><path class="cls-6" d="m56.58,43.76c.28-.11.43-.36.63-.56.69-.29,1.38-.39,2.05.08.99.71,1.16,2.23-.12,3.1-.29.13-.6.21-.91.24-1.42-.2-2.06-1.16-1.69-2.53.02-.11.04-.22.05-.33Z"/><path class="cls-6" d="m45.32,63.84l.17-.8c1.33-1.25,2.13-1.27,3.27-.08.09.29.18.59.27.88-.08,1.6-1.54,2.23-2.57,1.76-.75-.34-1.08-.96-1.13-1.76Z"/><path class="cls-6" d="m36.12,46.62c-.32-.02-.63-.1-.91-.24-.69-.5-1.07-1.14-.87-2,.16-.73.64-1.18,1.36-1.38.51-.14.97.04,1.43.2l.59.57c.46,1.71-.07,2.63-1.6,2.85Z"/><path class="cls-12" d="m41.25,51.3c-.02-1.03.05-2.05.18-3.07.03-.28.2-.54.44-.68,1.55-1.12,3.22-2.07,4.98-2.84.18-.1.4-.11.59-.02,1.79.78,3.49,1.76,5.07,2.9.22.15.37.39.39.65.25,1.92.26,3.86.02,5.78-.04.34-.24.64-.54.81-1.52,1.09-3.16,2.03-4.87,2.78-.22.11-.47.11-.69,0-1.68-.75-3.29-1.66-4.8-2.72-.41-.25-.66-.69-.66-1.17-.02-.85-.21-1.7-.12-2.42Zm8.65-.15c0-1.51-1.24-2.74-2.75-2.73-1.51,0-2.74,1.24-2.73,2.75,0,1.51,1.23,2.73,2.74,2.73,1.51,0,2.74-1.22,2.75-2.74,0,0,0-.02,0-.02h0Z"/><path class="cls-11" d="m47.2,38.85c1.26.06,2.16.75,2.92,1.67.39.49.74,1.02,1.02,1.58.15.28.11.37-.23.43-1.12.19-2.22.5-3.27.91-.3.13-.64.13-.94,0-1.06-.4-2.16-.71-3.27-.91-.18-.04-.44,0-.27-.32.76-1.41,1.61-2.72,3.26-3.23.25-.09.52-.14.79-.13Z"/><path class="cls-11" d="m40.66,59.14c-1.33-.05-2.61-.24-3.63-1.19-.99-.92-1.07-2.08-.77-3.3.22-.84.58-1.64,1.05-2.38.16-.26.27-.33.48-.06.78.95,1.66,1.82,2.63,2.58.32.25.27.62.33.93.17.93.4,1.85.71,2.74.23.67.22.67-.51.68h-.28Z"/><path class="cls-11" d="m53.35,59.14c-.68,0-.66,0-.36-.99.23-.78.5-1.55.58-2.37.04-.51.29-.99.7-1.3.82-.64,1.57-1.38,2.21-2.2.24-.3.38-.32.59.05.47.83.9,1.66,1.07,2.62.33,1.9-.48,3.27-2.32,3.86-.69.22-1.4.33-2.47.33Z"/><path class="cls-10" d="m48.76,62.96c-1.13-1.19-1.95-1.17-3.27.08-.91-.74-1.67-1.66-2.23-2.69-.18-.35-.21-.48.26-.56,1.08-.18,2.14-.48,3.16-.88.3-.13.64-.14.94-.01,1.08.41,2.19.72,3.33.92.17.03.38.02.24.29-.6,1.12-1.24,2.21-2.43,2.85Z"/><path class="cls-10" d="m36.12,46.62c1.54-.22,2.06-1.14,1.6-2.85,1.08-.42,2.22-.62,3.38-.6.45,0,.57.11.41.56-.39,1.07-.66,2.17-.83,3.29,0,.15-.06.3-.16.41-1.09.88-2.09,1.87-2.98,2.95-.79-1.19-1.38-2.37-1.42-3.77Z"/><path class="cls-10" d="m56.58,43.76c-.01.11-.03.22-.05.33-.37,1.36.28,2.33,1.69,2.53-.04,1.31-.59,2.44-1.26,3.54-.19.31-.32.06-.42-.06-.43-.53-.9-1.02-1.4-1.49-.22-.21-.45-.4-.68-.6-.44-.37-.83-.74-.89-1.37-.09-.98-.41-1.92-.73-2.85-.15-.44-.11-.6.41-.61,1.14-.02,2.26.18,3.32.59Z"/><path class="cls-7" d="m40.47,53.54c-.93-.59-1.47-1.39-2.12-2.07-.17-.14-.2-.39-.06-.57.01-.02.03-.03.04-.04.65-.71,1.22-1.5,2.13-2.09-.17,1.59-.17,3.19,0,4.77Z"/><path class="cls-7" d="m48.46,44.12c.96-.35,1.96-.62,2.97-.79.3-.06.35.17.42.35.35.93.62,1.89.8,2.87-1.33-.92-2.73-1.73-4.19-2.43Z"/><path class="cls-7" d="m45.87,58.2c-1.07.42-2.04.61-3.01.8-.24.05-.29-.14-.35-.29-.37-.95-.64-1.93-.81-2.93,1.33.92,2.72,1.73,4.17,2.43Z"/><path class="cls-7" d="m41.7,46.57c.17-1,.44-1.98.81-2.93.07-.18.12-.36.39-.3,1.01.17,2,.43,2.96.78-1.45.75-2.8,1.48-4.15,2.45Z"/><path class="cls-7" d="m53.88,48.78c.9.58,1.45,1.35,2.08,2.02.19.2.27.41.05.65-.65.7-1.22,1.49-2.13,2.08.17-1.58.17-3.17,0-4.75Z"/><path class="cls-7" d="m48.47,58.2c1.45-.7,2.83-1.5,4.15-2.42-.16,1.02-.44,2.02-.82,2.98-.06.14-.13.27-.33.23-.97-.19-1.95-.37-3-.8Z"/><path class="cls-15" d="m49.91,51.14c.01,1.51-1.2,2.75-2.72,2.77-1.51.01-2.75-1.2-2.77-2.72-.01-1.51,1.2-2.75,2.72-2.77.01,0,.03,0,.04,0,1.5,0,2.71,1.22,2.72,2.72Z"/></svg>