<?xml version="1.0" encoding="UTF-8"?><svg id="Layer_1" xmlns="http://www.w3.org/2000/svg" viewBox="0 0 100 100"><defs><style>.cls-1{fill:#435256;}.cls-2{fill:#fcc472;}.cls-3{fill:#2d3b3d;}.cls-4{fill:none;stroke:#c000e2;stroke-miterlimit:10;stroke-width:4px;}.cls-5{fill:#fbc372;}.cls-6{fill:#fdc472;}.cls-7{fill:#f99e3d;}</style></defs><circle class="cls-4" cx="50" cy="50" r="45"/><path d="m17.22,47.49l-.68-2.29c.93-.16,1.66-.65,1.93-1.8.27-1.11-.1-1.49-.49-1.58-.63-.15-1.02.37-1.81,1.8-.79,1.41-1.88,2.72-3.83,2.25-1.97-.48-2.7-2.42-2.27-4.18.41-1.67,1.53-2.79,3.21-3.17l.67,2.25c-.81.17-1.38.54-1.61,1.48-.18.73.1,1.18.51,1.28.47.11.85-.06,1.71-1.53.84-1.43,1.8-3.03,3.96-2.51,1.97.48,2.75,2.33,2.21,4.55-.52,2.14-1.87,3.26-3.51,3.47Z"/><path d="m18.32,38.06c-1.94-1.1-2.57-3.49-1.49-5.41,1.09-1.92,3.46-2.61,5.4-1.51,1.94,1.1,2.57,3.49,1.49,5.41-1.09,1.92-3.46,2.61-5.4,1.51Zm2.81-4.96c-.93-.52-1.91-.22-2.39.63-.48.85-.23,1.85.69,2.37.93.52,1.91.22,2.39-.63.48-.85.24-1.85-.69-2.37Z"/><path d="m23.01,30.19c-1.6-1.56-1.66-3.97-.08-5.61,1.01-1.04,2.46-1.44,3.74-1.1l-.55,2.21c-.55-.18-1.16-.01-1.62.46-.68.7-.67,1.71.07,2.43.74.72,1.75.69,2.43,0,.46-.47.62-1.09.41-1.63l2.18-.63c.39,1.28.05,2.73-.97,3.78-1.59,1.64-4.01,1.65-5.61.1Z"/><path d="m40.62,22.76l-1.26-.55c-.47.76-1.17,1.41-2.16,1.85-1.98.87-3.91.42-4.71-1.39-.48-1.1-.38-2.37.33-3.44-.43-.32-.8-.73-1.07-1.35-.71-1.62.01-3.37,1.86-4.17,1.39-.61,2.87-.44,4.08.71l-1.41,1.91c-.53-.54-1.09-.77-1.71-.5-.55.24-.77.75-.56,1.21.24.54.72.75,1.35,1.03l2.63,1.19c0-.52-.07-1.1-.21-1.71l2.3.24c.12.75.14,1.59,0,2.4l1.8.82-1.28,1.74Zm-3.25-1.43l-2.59-1.12-.12-.05c-.23.45-.21.91-.04,1.29.28.65.91.95,1.88.52.36-.16.64-.36.87-.64Z"/><path d="m56.5,21.29l-2.4-.11.27-6.1-2.91,4.33h-.27s-2.52-4.58-2.52-4.58l-.27,6.1-2.4-.11.46-10.49,2.4.1,2.64,4.79,3.05-4.54,2.4.11-.46,10.49Z"/><path d="m61.59,21.39c.58.22,1.15.18,1.55-.03l1.32,1.6c-1.05.7-2.27.8-3.6.3-2.4-.9-3.28-3.08-2.5-5.17.79-2.09,2.91-3.14,5.13-2.3,2.05.77,2.97,2.93,2.17,5.05-.11.29-.25.57-.4.81l-4.98-1.88c0,.83.54,1.33,1.31,1.62Zm2.25-2.07c.08-.9-.44-1.43-1.07-1.67-.8-.3-1.48-.11-1.95.53l3.02,1.14Z"/><path d="m76.54,27.97l-2.93,3.56-1.74-1.43,2.8-3.41c.48-.58.5-1.18-.05-1.64-.58-.48-1.24-.34-1.8.35l-2.69,3.27-1.74-1.43,2.8-3.41c.48-.58.5-1.18-.05-1.64-.58-.48-1.24-.34-1.8.35l-2.69,3.27-1.74-1.43,4.77-5.8,1.74,1.43-.44.53c.59-.17,1.35-.06,2.12.58.68.56.97,1.26.89,2.01.71-.2,1.49-.06,2.31.62,1.33,1.1,1.42,2.76.23,4.21Z"/><path d="m76.85,30.04c1.9-1.18,4.3-.58,5.46,1.29,1.16,1.87.63,4.29-1.27,5.46-1.9,1.18-4.3.58-5.46-1.29-1.16-1.87-.63-4.29,1.27-5.46Zm3,4.84c.9-.56,1.11-1.57.59-2.4-.51-.83-1.51-1.09-2.41-.53-.91.56-1.11,1.57-.6,2.4s1.51,1.09,2.41.53Z"/><path d="m86.68,41.22l-2.41.84c-.17-.93-.96-2.05-2.36-1.56l-3.2,1.12-.75-2.12,7.08-2.49.75,2.12-1.26.44c1.05-.05,1.83.74,2.15,1.63Z"/><path d="m88.01,50.53l-7.54-1.63c-2.47-.53-3.58-1.74-3.74-3.83l2.08-.26c.13,1.04.52,1.49,1.47,1.7l6.72-3.86.31,2.45-4.34,2.23,4.73.82.3,2.38Z"/><path class="cls-1" d="m40.91,85.11h-10.48c-.99-.48-1.22-1.28-1.21-2.33.04-5.22.02-10.44.02-15.67v-11.08c0-.71.18-.93.85-1.06.5-.09.72-.4.73-.87.02-1,.01-2,0-2.99,0-.47-.22-.77-.71-.88-.75-.17-.88-.35-.88-1.14,0-2.15.02-4.29-.01-6.44-.03-.74.26-1.45.81-1.95,1.98-1.95,3.94-3.91,5.89-5.89.5-.54,1.21-.83,1.95-.8,7.85.02,15.7.02,23.55.01.32,0,.63,0,.95.01.03.06.04.14.09.17.71.49.94,1.19.91,2-.63.15-.8.34-.8.94,0,2.15,0,4.3,0,6.46,0,.6.19.81.8.93,0,4.14,0,8.28,0,12.42,0,1.51-.01,3.03-.02,4.54-.18-.48-.46-.85-1.03-.85-1.45-.02-2.89-.05-4.33.02-.05,0-.1-.01-.15-.01h-21.94c-.84,0-1.24.4-1.24,1.27,0,5.17,0,10.34,0,15.5-.01.23-.03.46-.03.7,0,.94.41,1.38,1.37,1.38,8.66,0,17.32,0,25.97,0,.66,0,1.16-.23,1.38-.9,0,1.27-.02,2.55.03,3.82.03,1.02-.06,1.96-.98,2.6-.02.02-.02.06-.03.09h-5.39c-.18-.23-.45-.38-.59-.65-.21-.42-.57-.58-1.02-.57-.75,0-1.5,0-2.24,0h-10.32c-.45,0-.88.03-1.13.47-.19.31-.45.57-.76.76Zm9.1-44.76c0-1.08,0-2.16,0-3.23,0-.56-.32-.91-.78-.9s-.74.35-.74.89c0,2.17,0,4.35,0,6.52v.05c.03.53.32.85.78.84.44,0,.73-.32.74-.82,0-1.11,0-2.22,0-3.33h0Zm4.69.06v-3.23c0-.61-.3-.97-.77-.96s-.76.36-.76.97v6.37c0,.61.28.95.77.95s.75-.33.76-.96c0-1.04,0-2.09,0-3.13h0Zm4.69-.03v-3.23c0-.58-.3-.92-.75-.93s-.77.35-.78.95c0,2.12,0,4.25,0,6.38,0,.63.27.96.75.97s.77-.33.77-.95c0-1.06,0-2.13,0-3.19h0Zm-18.77,0v-3.23c0-.58-.28-.92-.74-.94s-.78.35-.78.95c0,2.14,0,4.28,0,6.42,0,.59.27.92.74.93.49.01.78-.32.78-.94,0-1.06,0-2.12,0-3.18h0Zm4.69,0v-3.23c0-.6-.31-.96-.78-.94s-.74.36-.74.94c0,2.14,0,4.28,0,6.42,0,.61.29.95.79.93.47-.01.73-.34.74-.93,0-1.06,0-2.12,0-3.18h0Zm-11.41,2.08h0c0,.43-.02.87,0,1.3s.27.71.72.73c.4.03.74-.26.78-.65,0-.02,0-.05,0-.07.02-.86.02-1.73,0-2.59,0-.42-.32-.76-.74-.77,0,0,0,0,0,0-.41,0-.73.31-.75.77-.02.44,0,.87,0,1.3h0Z"/><path class="cls-3" d="m62.37,34.03c1.6,0,3.19-.02,4.79,0,.87,0,1.58.71,1.59,1.59.02,1.56,0,3.13,0,4.69,0,.35-.13.57-.49.63-.46.07-.62.35-.61.8.01,3.36.01,6.72,0,10.07,0,.41.11.7.54.76.47.07.57.36.57.77,0,2.46,0,4.92,0,7.38,0,7.41-.01,14.83.02,22.24,0,1-.28,1.73-1.21,2.15h-5.19s0-.08.03-.09c.91-.65,1.01-1.59.98-2.6-.04-1.27-.02-2.55-.03-3.82,0-3.7,0-7.41.01-11.11,0-1.99,0-3.99-.02-5.98,0-1.51.02-3.03.02-4.54,0-4.14,0-8.28,0-12.42.53-.1.73-.44.73-.96,0-2.14,0-4.27,0-6.41,0-.52-.21-.85-.73-.96.03-.82-.2-1.52-.91-2-.05-.03-.06-.1-.09-.16Z"/><path class="cls-6" d="m34.66,77.42v-15.5c0-.88.4-1.27,1.24-1.27h21.94s.1,0,.15.01v14.95c0,1.55-.26,1.81-1.83,1.81h-21.49Z"/><path class="cls-7" d="m34.66,77.42h21.48c1.57,0,1.83-.26,1.83-1.81,0-4.98,0-9.97,0-14.95,1.45-.07,2.89-.03,4.33-.02.57,0,.85.38,1.03.85,0,1.99.02,3.99.02,5.98,0,3.71,0,7.41-.01,11.11-.21.67-.71.9-1.38.9h-25.97c-.96,0-1.37-.43-1.37-1.38,0-.23.02-.46.03-.7Z"/><path class="cls-2" d="m63.37,36.19c.52.11.73.44.73.96,0,2.14,0,4.27,0,6.41,0,.52-.2.86-.73.96-.61-.13-.8-.33-.8-.93,0-2.15,0-4.3,0-6.46,0-.6.18-.79.8-.94Z"/><path class="cls-2" d="m50.01,40.35c0,1.11,0,2.22,0,3.33,0,.51-.3.82-.74.82-.46,0-.75-.31-.78-.84v-6.57c0-.54.3-.88.74-.89s.77.34.78.9c0,1.08,0,2.16,0,3.23Z"/><path class="cls-2" d="m54.71,40.41v3.14c0,.63-.27.96-.76.96s-.77-.34-.77-.95v-6.37c0-.61.29-.97.76-.97s.76.35.77.96c0,1.08,0,2.16,0,3.23Z"/><path class="cls-2" d="m59.4,40.38v3.18c0,.62-.29.95-.77.95s-.75-.35-.75-.97v-6.38c0-.6.3-.96.78-.95s.74.35.75.93c0,1.08,0,2.16,0,3.24Z"/><path class="cls-2" d="m40.63,40.38v3.18c0,.62-.29.95-.78.94-.47-.01-.74-.34-.74-.93,0-2.14,0-4.28,0-6.42,0-.6.31-.96.78-.95s.74.36.74.94c0,1.08,0,2.16,0,3.23Z"/><path class="cls-2" d="m45.32,40.39v3.19c0,.59-.27.92-.74.93-.49.01-.78-.32-.79-.93,0-2.14,0-4.28,0-6.42,0-.58.28-.93.74-.94s.78.35.78.94c0,1.08,0,2.16,0,3.23Z"/><path class="cls-5" d="m33.91,42.47c0-.43-.02-.86,0-1.3.02-.46.35-.77.75-.77.42,0,.75.35.75.76,0,0,0,0,0,0,.02.86.02,1.73,0,2.59,0,.4-.31.72-.71.73-.02,0-.05,0-.07,0-.45-.03-.7-.29-.72-.73s0-.86,0-1.3h0Z"/></svg>