<?xml version="1.0" encoding="UTF-8"?><svg id="Layer_1" xmlns="http://www.w3.org/2000/svg" viewBox="0 0 100 100"><defs><style>.cls-1{fill:none;stroke:#a5262d;stroke-miterlimit:10;stroke-width:4px;}.cls-2{fill:#bd694f;}.cls-3{fill:#ede6e3;}.cls-4{fill:#b9a1d3;}.cls-5{fill:#934d36;}.cls-6{fill:#4d5961;}.cls-7{fill:#5e6b74;}.cls-8{fill:#baa1d3;}.cls-9{fill:#baa2d3;}.cls-10{fill:#d8ceca;}.cls-11{fill:#ede4e1;}.cls-12{fill:#525f67;}.cls-13{fill:#924d36;}.cls-14{fill:#914d37;}</style></defs><circle class="cls-1" cx="50" cy="50" r="45"/><path class="cls-2" d="m63.96,85.4h-26.01c0-.24-.23-.21-.36-.28-1.31-.64-2.14-1.63-2.14-3.12,0-14.87,0-29.74,0-44.6.02-1.03.51-2,1.33-2.63.37-.31.89-.35,1.18-.77h26v.04c2.22.81,2.89,1.78,2.89,4.15v43.8c-.04,1.39-.89,2.63-2.18,3.16-.23.08-.51.08-.71.25Zm-13.96-2.01c7.18-.01,13-5.85,12.98-13.03-.01-7.18-5.85-13-13.03-12.98-7.18.01-13,5.85-12.98,13.03,0,.06,0,.11,0,.17.04,7.12,5.84,12.85,12.96,12.82.02,0,.05,0,.07,0Zm0-47.19c-5.13.02-9.27,4.2-9.25,9.33.02,5.13,4.2,9.27,9.33,9.25,5.11-.02,9.24-4.16,9.25-9.26.03-5.12-4.09-9.29-9.21-9.32-.03,0-.07,0-.1,0h-.02Zm7.33,19.3c-.07,1.95,1.46,3.58,3.41,3.65.03,0,.06,0,.09,0,2-.05,3.57-1.72,3.52-3.71-.05-1.89-1.55-3.43-3.44-3.52-1.63-.01-3.74,1.49-3.58,3.58Zm-18.47,25.82c-.04-.86-.77-1.53-1.64-1.49-.79.04-1.43.66-1.49,1.45-.06.86.59,1.61,1.45,1.67.86.06,1.61-.59,1.67-1.45,0-.06,0-.12,0-.18Zm-1.59-41.69c.84.03,1.55-.62,1.58-1.46,0-.02,0-.04,0-.06.06-.86-.59-1.61-1.45-1.67-.86-.06-1.61.59-1.67,1.45,0,.06,0,.12,0,.18-.01.85.67,1.55,1.52,1.56,0,0,.01,0,.02,0Zm25.44,0c.85,0,1.54-.67,1.54-1.52,0-.01,0-.03,0-.04-.01-.86-.72-1.55-1.58-1.54-.86.01-1.55.72-1.54,1.58,0,.85.69,1.53,1.54,1.53,0,0,.01,0,.02,0h.02Zm0,40.13c-.84-.04-1.55.61-1.59,1.45,0,.02,0,.04,0,.07-.02.86.66,1.57,1.52,1.59.86.02,1.57-.66,1.59-1.52.03-.85-.63-1.55-1.48-1.58-.01,0-.02,0-.03,0h-.02Z"/><path class="cls-5" d="m36.05,85.4c-.9-.22-1.69-.74-2.25-1.47-.42-.57-.66-1.25-.67-1.96v-44.05c-.11-1.42.61-2.77,1.84-3.48.35-.17.72-.32,1.09-.45h1.91c-.28.42-.81.46-1.18.77-.82.63-1.31,1.6-1.33,2.63v44.6c0,1.47.83,2.48,2.14,3.12.13.07.36.04.36.28h-1.91Z"/><path class="cls-8" d="m75.7,46.25c-.29.32-.73.48-1.16.42h-3.77c-.6,0-.88-.22-.89-.7s.31-.81.88-.81h4.06c.36,0,.68.19.87.5v.59Z"/><path class="cls-9" d="m24.3,70.65c.26-.31.65-.48,1.06-.42h3.86c.61,0,.89.21.9.69s-.31.81-.88.81h-4.06c-.36,0-.69-.19-.88-.49v-.58Z"/><path class="cls-9" d="m75.7,71.25c-.25.34-.67.53-1.09.5h-3.67c-.2.01-.4-.02-.59-.08-.35-.11-.56-.48-.48-.84.01-.35.3-.62.65-.61,0,0,0,0,.01,0h4.51c.32,0,.44.27.65.41v.61Z"/><path class="cls-8" d="m24.3,45.65c.24-.36.66-.55,1.09-.5h3.71c.18,0,.37.02.54.08.34.09.55.43.5.77,0,.36-.29.65-.65.65,0,0-.02,0-.03,0h-4.51c-.32,0-.43-.29-.66-.41v-.59Z"/><path class="cls-14" d="m50,83.4c-7.18-.02-12.99-5.85-12.98-13.03.02-7.18,5.85-12.99,13.03-12.98,7.18.02,12.98,5.84,12.98,13.02.05,7.13-5.7,12.95-12.83,13-.07,0-.13,0-.2,0Zm11.07-10.13l.09-.1c.39-1.51.45-3.08.19-4.61-1.01-6.24-6.89-10.47-13.13-9.46-.13.02-.25.04-.38.07-3.31.59-6.18,2.65-7.81,5.58-.57.87-.94,1.85-1.09,2.88h0l-.09.1c-.35,1.38-.42,2.81-.21,4.22.46,3.74,2.76,7,6.14,8.69,1.35.71,2.84,1.13,4.36,1.24,1.21.14,2.44.02,3.6-.35.23-.03.46-.08.68-.14,2.74-.83,5.06-2.68,6.49-5.16.59-.89.99-1.9,1.17-2.95Z"/><path class="cls-13" d="m50.01,36.21c5.13.02,9.27,4.2,9.25,9.33-.02,5.13-4.2,9.27-9.33,9.25-5.13-.02-9.27-4.19-9.25-9.32,0-5.12,4.15-9.26,9.26-9.26.02,0,.04,0,.07,0Zm-1.22,1.63c-1.95.29-3.71,1.33-4.9,2.89-.86,1.03-1.39,2.29-1.53,3.62-.18.66-.2,1.35-.07,2.02.29,2.86,2.18,5.32,4.87,6.33,1.26.58,2.69.73,4.04.4.22-.01.43-.04.64-.08,1.78-.42,3.36-1.48,4.42-2.97.76-.98,1.23-2.15,1.36-3.39.16-.82.16-1.66,0-2.47-.7-4.19-4.64-7.03-8.84-6.37v.02Z"/><path class="cls-13" d="m57.33,55.51c-.16-2.11,1.95-3.61,3.58-3.58,2,.1,3.54,1.79,3.44,3.79-.09,1.89-1.62,3.39-3.52,3.44-1.95-.01-3.52-1.61-3.51-3.56,0-.03,0-.06,0-.09Zm3.55,2.07c1.14,0,2.07-.91,2.08-2.05h0c-.06-1.13-.98-2.03-2.11-2.06-1.12.06-2,.98-2,2.1-.03,1.1.84,2.01,1.94,2.04.03,0,.07,0,.1,0v-.02Z"/><path class="cls-11" d="m38.87,81.33c.04.86-.62,1.6-1.49,1.64s-1.6-.62-1.64-1.49c0-.06,0-.12,0-.18.06-.86.81-1.51,1.67-1.45.79.05,1.42.69,1.45,1.49Z"/><path class="cls-11" d="m37.28,39.64c-.85,0-1.54-.7-1.54-1.55,0,0,0-.01,0-.02-.04-.86.64-1.59,1.5-1.63.86-.04,1.59.64,1.63,1.5,0,.06,0,.12,0,.18,0,.84-.69,1.52-1.54,1.52-.02,0-.03,0-.05,0Z"/><path class="cls-11" d="m62.7,39.64c-.85.02-1.55-.64-1.57-1.49,0-.01,0-.03,0-.04,0-.87.68-1.57,1.55-1.58.87,0,1.57.68,1.58,1.55.02.85-.65,1.55-1.5,1.56-.02,0-.04,0-.06,0Z"/><path class="cls-11" d="m62.74,79.77c.85,0,1.53.69,1.53,1.54,0,.02,0,.03,0,.05-.02.86-.73,1.54-1.59,1.52-.86-.02-1.54-.73-1.52-1.59h0c0-.84.68-1.52,1.52-1.52.02,0,.04,0,.07,0Z"/><path class="cls-8" d="m73.69,38.86c-.03.25-.15.48-.34.64-.88.89-1.76,1.78-2.65,2.66-.27.34-.76.4-1.1.13-.02-.01-.04-.03-.05-.05-.32-.34-.29-.74.1-1.14l2.65-2.72c.24-.28.63-.37.96-.21.27.13.44.4.43.7Z"/><path class="cls-4" d="m70.11,74.46c.22-.02.44.08.58.26.91.92,1.82,1.82,2.72,2.72.32.26.36.73.1,1.04-.03.04-.06.07-.1.1-.32.29-.81.27-1.1-.05,0,0-.01-.02-.02-.02-.93-.93-1.85-1.88-2.76-2.83-.23-.21-.3-.55-.16-.83.11-.3.43-.47.74-.39Z"/><path class="cls-4" d="m73.69,53.08c-.02.28-.2.52-.45.63-.3.14-.65.07-.87-.19l-2.37-2.37c-.16-.17-.34-.32-.49-.5-.27-.29-.25-.74.04-1.01,0,0,.02-.01.02-.02.23-.27.64-.3.91-.07.03.02.05.05.07.07.99.97,1.96,1.96,2.94,2.95.13.14.2.32.2.51Z"/><path class="cls-4" d="m73.69,63.82c0,.25-.11.48-.29.64l-2.72,2.72c-.23.32-.67.4-1,.17-.03-.02-.07-.05-.09-.08-.31-.26-.34-.72-.08-1.02.04-.04.08-.08.13-.12.93-.94,1.86-1.87,2.79-2.81.21-.23.55-.29.83-.15.26.11.43.36.45.65Z"/><path class="cls-8" d="m30.69,41.73c0,.29-.17.54-.43.66-.32.14-.69.06-.92-.2l-2.26-2.27c-.19-.19-.37-.38-.54-.58-.28-.27-.29-.71-.02-.99.02-.02.05-.05.08-.07.29-.28.75-.27,1.03.02,0,0,0,0,0,0,.45.4.86.84,1.28,1.27s.96,1.02,1.45,1.51c.17.17.29.39.32.63Z"/><path class="cls-4" d="m30.69,75.16c-.03.22-.12.42-.27.57-.89.9-1.77,1.82-2.66,2.72-.26.36-.76.44-1.12.19-.03-.02-.05-.04-.08-.06-.37-.36-.33-.77.11-1.22.89-.9,1.8-1.8,2.69-2.72.23-.23.58-.3.88-.17.28.11.46.39.45.69Z"/><path class="cls-4" d="m30.69,50.17c-.03.23-.14.44-.31.59-.9.9-1.79,1.8-2.69,2.7-.4.4-.82.42-1.15.1-.3-.28-.31-.76-.03-1.06.03-.03.07-.06.1-.09.92-.93,1.84-1.85,2.76-2.77.19-.25.53-.33.81-.2.29.13.48.41.5.72Z"/><path class="cls-4" d="m30.69,66.74c-.02.28-.18.53-.42.67-.26.16-.59.13-.81-.08-1.01-1-2.02-1.99-3-3.02-.25-.25-.25-.66,0-.91.03-.03.06-.05.09-.07.24-.27.66-.3.93-.06.02.02.04.04.06.06.98.96,1.94,1.94,2.9,2.91.13.14.22.32.24.51Z"/><path class="cls-12" d="m38.95,67.62c.15-1.03.52-2.01,1.09-2.88,3.15-5.52,10.17-7.44,15.68-4.29.42.24.82.5,1.21.79,2.38,1.76,3.97,4.38,4.42,7.31.27,1.53.2,3.1-.19,4.61l-.09.1h0c-.33.03-.65.07-.99.09-1.92.15-3.57-.6-5.19-1.5-.38-.29-.8-.53-1.25-.71v-1.09c-.14-1.49-1.2-2.73-2.64-3.11-.74-.29-1.56-.28-2.28.04-1.22.44-2.11,1.48-2.37,2.75-.13-.04-.25-.09-.36-.15-.62-.47-1.3-.87-2.01-1.19-1.37-.6-2.77-1.09-4.32-.88-.23.08-.48.12-.72.1Z"/><path class="cls-6" d="m38.95,67.62c.25.02.5-.01.73-.1,1.55-.23,2.94.28,4.32.88.71.32,1.39.72,2.01,1.19.11.07.23.12.36.15,0,.05,0,.1,0,.15-.26,1.79.81,3.5,2.54,4.04.59.12,1.19.17,1.79.13.58.95,1.1,1.93,1.58,2.93.65,1.41.81,3.01.44,4.52-1.16.37-2.39.49-3.6.35-1.52-.11-3.01-.53-4.36-1.24-3.35-1.69-5.64-4.95-6.1-8.68-.21-1.41-.14-2.84.21-4.22l.09-.1h0Z"/><path class="cls-7" d="m52.72,81.51c.37-1.51.22-3.1-.44-4.52-.47-1-1-1.98-1.57-2.93l.41-.19c.08,0,.16-.04.24-.07,1.14-.47,1.99-1.46,2.27-2.66.45.18.87.41,1.25.71,1.63.9,3.27,1.63,5.19,1.5.33,0,.66-.06.99-.09-.17,1.06-.57,2.06-1.16,2.95-1.43,2.48-3.76,4.32-6.5,5.15-.22.06-.45.11-.68.14Z"/><path class="cls-12" d="m38.95,67.63l-.09.1.09-.1Z"/><path class="cls-7" d="m61.07,73.26l.09-.1-.09.1Z"/><path class="cls-7" d="m57.64,46.65c-.13,1.24-.6,2.42-1.36,3.41-1.06,1.5-2.63,2.55-4.42,2.97-.21.04-.43.07-.64.08.05-.87-.12-1.73-.5-2.51-1.1-2.29-2.86-4.19-5.06-5.45-.95-.68-2.11-.98-3.27-.84.14-1.33.67-2.59,1.53-3.62,1.2-1.56,2.96-2.6,4.9-2.89-.04.92.16,1.83.57,2.65.87,1.77,2.16,3.31,3.75,4.48,1.3,1.04,2.72,1.9,4.5,1.72Zm-7.03-3.13c-.84-.3-1.78,0-2.29.73-.54.73-.54,1.73,0,2.46.52.71,1.44.99,2.27.7.87-.26,1.46-1.07,1.44-1.98,0-.88-.58-1.66-1.42-1.91Z"/><path class="cls-6" d="m57.64,46.65c-1.78.17-3.2-.68-4.52-1.69-1.59-1.17-2.88-2.71-3.75-4.48-.42-.82-.61-1.73-.57-2.65,4.19-.65,8.12,2.18,8.84,6.35.16.82.16,1.66,0,2.47Z"/><path class="cls-6" d="m42.37,44.34c1.16-.13,2.32.17,3.27.84,2.2,1.25,3.97,3.14,5.08,5.42.39.76.57,1.61.54,2.47-1.35.32-2.78.18-4.04-.4-2.69-1.02-4.58-3.47-4.87-6.33-.14-.66-.13-1.34.02-2Z"/><path class="cls-6" d="m60.88,57.6c-1.1.03-2.01-.84-2.04-1.94,0-.03,0-.05,0-.08,0-1.12.88-2.04,2-2.1,1.13.03,2.05.93,2.11,2.06,0,1.14-.94,2.06-2.08,2.05h0Z"/><path class="cls-3" d="m53.62,71.15c-.28,1.2-1.12,2.2-2.27,2.66-.08,0-.16.04-.24.07-.61-.37-1.15-.84-1.6-1.4-1.14-1.69-.7-3.99,1-5.14.03-.02.06-.04.09-.06.15-.09.37-.11.39-.35,1.44.39,2.48,1.63,2.61,3.12.04.37.02.72.02,1.1Z"/><path class="cls-10" d="m51.01,66.95c0,.24-.24.26-.39.35-1.73,1.09-2.24,3.38-1.15,5.1.02.03.04.06.06.09.45.56.99,1.03,1.6,1.4l-.41.19c-.6.04-1.2,0-1.79-.13-1.75-.53-2.85-2.26-2.58-4.06,0-.05,0-.1,0-.15.24-1.28,1.14-2.34,2.37-2.79.73-.31,1.55-.31,2.28,0Z"/><path class="cls-3" d="m50.61,43.52c.86.24,1.45,1.02,1.45,1.91.02.91-.57,1.72-1.44,1.98-.08-.25-.32-.33-.48-.49-.8-.73-.88-1.97-.18-2.8.19-.22.51-.3.65-.6Z"/><path class="cls-10" d="m50.61,43.52c-.14.28-.47.36-.65.6-.7.83-.62,2.06.18,2.8.16.16.4.25.48.49-.83.29-1.75,0-2.27-.7-.54-.73-.54-1.73,0-2.46.51-.72,1.43-1.02,2.26-.73Z"/><path d="m24.2,32.19l.66-2.63c1,.38,1.99.32,2.93-.64.9-.93.76-1.51.43-1.83-.52-.51-1.21-.22-2.8.71-1.59.92-3.4,1.57-5.04-.01-1.64-1.6-1.24-3.92.19-5.39,1.36-1.4,3.1-1.85,4.96-1.25l-.64,2.58c-.89-.3-1.66-.27-2.42.51-.59.61-.58,1.21-.24,1.54.39.38.86.43,2.55-.5,1.65-.91,3.51-1.92,5.31-.17,1.65,1.6,1.34,3.87-.46,5.72-1.74,1.79-3.71,2.11-5.43,1.36Z"/><path d="m39.05,19.21c1.18,2.24.47,4.83-1.49,5.87-1.01.53-1.93.58-2.72.27l1.96,3.71-2.25,1.19-5.56-10.52,2.25-1.19.37.71c.19-.83.75-1.57,1.75-2.1,1.97-1.04,4.5-.17,5.69,2.07Zm-2.25,1.19c-.6-1.13-1.72-1.44-2.76-.89-1.04.55-1.42,1.65-.82,2.78.6,1.13,1.72,1.44,2.76.89,1.04-.55,1.42-1.65.82-2.78Z"/><path d="m45.57,20.09c.69-.12,1.22-.5,1.49-.93l2.22.79c-.61,1.29-1.75,2.09-3.33,2.38-2.86.52-4.98-1.08-5.43-3.58-.45-2.49,1.01-4.74,3.65-5.22,2.44-.44,4.59,1.12,5.05,3.65.06.35.09.69.08,1.02l-5.94,1.08c.47.81,1.3.97,2.22.81Zm.99-3.32c-.44-.92-1.26-1.14-2.01-1-.95.17-1.5.76-1.58,1.65l3.6-.65Z"/><path d="m60.26,14.03l-1.07,8.43-2.53-.32.1-.79c-.64.57-1.51.85-2.64.71-2.21-.28-3.78-2.45-3.46-4.96.32-2.51,2.39-4.22,4.6-3.94,1.13.14,1.91.64,2.38,1.35l.1-.79,2.53.32Zm-3.07,3.89c.16-1.26-.58-2.16-1.75-2.31-1.16-.15-2.11.54-2.27,1.8s.58,2.16,1.75,2.31c1.16.15,2.11-.54,2.27-1.8Z"/><path d="m65.02,25.04l-.93-4.55-1.55,3.42-2.32-1.05,4.91-10.84,2.32,1.05-2.94,6.49,3.86-2.34,2.71,1.23-4.57,2.6,1.14,5.18-2.63-1.19Z"/><path d="m72,27.33c.54.45,1.17.62,1.67.55l.82,2.21c-1.38.36-2.73.01-3.97-1.02-2.24-1.86-2.37-4.51-.75-6.46,1.62-1.95,4.28-2.28,6.34-.56,1.91,1.58,2.09,4.24.45,6.21-.23.27-.47.51-.73.72l-4.64-3.86c-.32.89.09,1.62.81,2.22Zm3.18-1.38c.42-.93.06-1.7-.53-2.18-.75-.62-1.55-.67-2.28-.15l2.81,2.33Z"/><path d="m84.2,31.26l-2.33,1.71c-.49-.95-1.71-1.91-3.07-.91l-3.1,2.27-1.51-2.06,6.85-5.03,1.51,2.06-1.22.9c1.12-.4,2.23.2,2.86,1.06Z"/></svg>