<?xml version="1.0" encoding="UTF-8"?><svg id="Layer_1" xmlns="http://www.w3.org/2000/svg" viewBox="0 0 100 100"><defs><style>.cls-1{fill:#1f444f;}.cls-2{fill:none;stroke:#0018c6;stroke-miterlimit:10;stroke-width:4px;}.cls-3{fill:#2d5a5d;}.cls-4{fill:#dda927;}.cls-5{fill:#1e4b4c;}.cls-6{fill:#2e5a5d;}.cls-7{fill:#f0c343;}.cls-8{fill:#1a846e;}.cls-9{fill:#dca826;}.cls-10{fill:#249582;}</style></defs><circle class="cls-2" cx="50" cy="50" r="45"/><path class="cls-8" d="m25.7,61.19c.18-.12.34-.29.58-.29,1.76.02,3.51-.05,5.27.03,0,.84,0,1.68,0,2.52-.41.25-.51.64-.51,1.09,0,1.84,0,3.69,0,5.53,0,1.42,0,2.83,0,4.25,0,.73.29,1.02.97,1.02.7,0,1.4,0,2.1,0,.53,0,1.06.02,1.58,0,.5-.02.98-.25.89-.92-.02-.13,0-.27,0-.41h3.58c0,.08,0,.17,0,.25,0,.85.24,1.08,1.09,1.08.66,0,1.32,0,1.99,0,.52,0,1.05.02,1.57,0,.6-.02.85-.28.89-.87.01-.15,0-.3,0-.46h3.56c0,.08.02.16.02.25.02.93.18,1.09,1.1,1.09.63,0,1.25,0,1.88,0,.49,0,.99.01,1.48,0,.72-.01.98-.27.99-.98,0-.12,0-.24.01-.36h3.57c0,.09,0,.17,0,.26,0,.85.24,1.08,1.09,1.08.66,0,1.32,0,1.98,0,.52,0,1.05.02,1.57,0,.63-.03.88-.3.89-.92,0-.14,0-.27,0-.41h3.57c0,.1.01.2.01.3,0,.82.13.94.95.94.68,0,1.36,0,2.04,0,.62.19,1.25.12,1.87.05.39-.04.62-.31.59-.76-.01-.18-.07-.38.09-.53h5.22c0,1.29,0,2.57,0,3.86l-3.37.03h-1.63s-1.14,0-1.14,0h-2.77s-1.54,0-1.54,0h-1.23s-1.54,0-1.54,0h-2.77s-1.14,0-1.14,0h-1.63s-1.14,0-1.14,0h-1.63s-1.14,0-1.14,0h-1.54s-1.23,0-1.23,0h-2.77s-1.54,0-1.54,0h-1.14s-1.63,0-1.63,0h-2.77s-1.14,0-1.14,0h-1.54s-1.23,0-1.23,0h-1.54s-1.14,0-1.14,0h-1.63s-1.14,0-1.14,0h-2.77s-1.54,0-1.54,0c-1.2-.03-2.39-.06-3.59,0v-7.39c.24-.07.49-.14.73-.21.98-.3,1.66-1.22,1.67-2.28s-.65-1.99-1.62-2.31c-.26-.08-.52-.15-.78-.23v-4.31Z"/><path class="cls-7" d="m61.1,77.9h1.14c0,.6,0,1.2,0,1.8,0,.47.31.78.75.78.53,0,.77-.23.78-.78,0-.6,0-1.2,0-1.8h1.23c0,.58,0,1.16,0,1.74,0,.6.24.84.78.83.46,0,.75-.32.75-.83,0-.58,0-1.16,0-1.74h1.23c0,.57,0,1.13,0,1.69,0,.65.22.89.78.89.46,0,.75-.34.76-.89,0-.56,0-1.13,0-1.69h1.14c0,.54-.01,1.09,0,1.63.02.63.3.95.82.95s.8-.31.82-.95c.01-.54,0-1.09,0-1.64h1.14c0,.58-.01,1.16,0,1.74,0,.49.29.8.7.85.5.05.74-.17.85-.66.15-.64.05-1.29.08-1.93l3.37-.03c0,.85.03,1.71.01,2.56-.02.81-.54,1.38-1.34,1.5-.22.03-.44.05-.66.05-16.17,0-32.34,0-48.51.01-.95,0-1.66-.29-2.03-1.21v-2.87c1.2-.06,2.39-.04,3.59,0,0,.56,0,1.13,0,1.69,0,.65.22.89.78.89.46,0,.75-.34.76-.89,0-.56,0-1.13,0-1.69h1.14c0,.54-.01,1.09,0,1.63.02.63.3.95.82.95s.8-.31.82-.95c.01-.54,0-1.09,0-1.64h1.14c0,.58-.01,1.16,0,1.74,0,.49.29.8.7.85.5.05.74-.17.85-.66.15-.64.05-1.29.08-1.93h1.14c0,.6,0,1.2,0,1.8,0,.47.31.78.75.78.53,0,.77-.23.78-.78,0-.6,0-1.2,0-1.8h1.23c0,.58,0,1.16,0,1.74,0,.6.24.84.78.83.46,0,.75-.32.75-.84,0-.58,0-1.16,0-1.74h1.14c.03.67-.09,1.36.09,2.03.09.36.29.55.68.55.54,0,.84-.28.87-.9.02-.56,0-1.12,0-1.69h1.14c0,.54-.01,1.09,0,1.64.02.63.3.94.82.94s.8-.31.82-.95c.01-.54,0-1.09,0-1.64h1.14c0,.58-.01,1.16,0,1.74.01.53.34.86.81.84.51-.02.72-.26.73-.84,0-.58,0-1.16,0-1.74h1.23c0,.59,0,1.19,0,1.79,0,.56.24.79.77.79s.76-.24.77-.79c0-.6,0-1.19,0-1.79h1.23c0,.58,0,1.16,0,1.75,0,.6.24.84.78.83.46,0,.75-.32.75-.84,0-.58,0-1.16,0-1.74h1.14c0,.54-.01,1.09,0,1.63.02.63.3.95.82.95s.8-.31.82-.94c.01-.54,0-1.09,0-1.64h1.14c0,.6-.02,1.2,0,1.79.02.42.22.75.7.79s.76-.14.86-.65c.12-.65.03-1.29.06-1.94Z"/><path class="cls-10" d="m78.23,74.02h-5.22c0-3.06,0-6.12,0-9.17,0-.22-.03-.44-.06-.66-.07-.57-.42-.74-.92-.74-.46,0-.92,0-1.38,0-.72,0-1.44,0-2.15,0-.82,0-1.02.21-1.02,1.03,0,3.18,0,6.36-.01,9.53h-3.57c0-.1,0-.2,0-.3,0-3.09,0-6.18,0-9.26,0-.72-.27-.99-.98-.99-.46,0-.92,0-1.38,0-.66,0-1.33,0-1.99,0-.97,0-1.18.2-1.18,1.15,0,3.14,0,6.27,0,9.41h-3.57c0-3.2,0-6.4,0-9.59,0-.76-.21-.97-.98-.97-.5,0-.99,0-1.49,0-.63,0-1.26,0-1.89,0-.94,0-1.09.15-1.09,1.1,0,3.16-.01,6.31-.02,9.47h-3.56c0-.13,0-.27,0-.4,0-3.03,0-6.07,0-9.1,0-.78-.25-1.04-.98-1.06-.46,0-.92,0-1.38,0-.73,0-1.47,0-2.2,0-.72,0-.97.26-.97.99,0,3.19,0,6.38,0,9.58h-3.58c0-3.21,0-6.42,0-9.63,0-.65-.27-.92-.93-.93-.48,0-.96,0-1.43,0h-2.66c0-.84,0-1.68,0-2.52.19,0,.38-.01.56-.01,15.03,0,30.06,0,45.09,0,.98,0,1.05.07,1.05,1.04s0,2.02,0,3.03c0,.36-.1.56-.48.66-1.24.33-1.95,1.22-1.95,2.37s.73,2.04,1.96,2.37c.31.08.48.21.47.55-.02,1.03-.01,2.05-.02,3.08Z"/><path class="cls-5" d="m31.55,63.45h2.66c-.3.32-.43.7-.41,1.14.02.37,0,.74,0,1.11-.51.07-.72.37-.72.87,0,1.96.02,3.93,0,5.89,0,.55.23.83.73.94,0,.66-.07,1.34.3,1.94-.7,0-1.4,0-2.1,0-.69,0-.97-.29-.97-1.02,0-1.42,0-2.83,0-4.25,0-1.84,0-3.69,0-5.53,0-.45.1-.84.51-1.09Z"/><path class="cls-3" d="m70.64,63.46c.46,0,.92,0,1.38,0,.5,0,.85.16.92.74.02.22.06.44.06.66,0,3.06,0,6.11,0,9.17-.16.15-.1.36-.09.53.03.44-.21.72-.59.76-.62.06-1.25.13-1.87-.05-.32-.52-.19-1.09-.21-1.65.47-.07.72-.33.72-.81,0-2.02,0-4.05,0-6.07,0-.49-.25-.74-.72-.81,0-.39.02-.78,0-1.17-.03-.49,0-.94.41-1.28Z"/><path class="cls-5" d="m58.33,74.01c0-3.14,0-6.27,0-9.41,0-.95.21-1.16,1.18-1.15.66,0,1.33,0,1.99,0-.33.33-.45.72-.41,1.19.03.42,0,.84,0,1.26-.56.05-.8.26-.81.94-.03,1.9-.03,3.81,0,5.71.01.68.25.9.81.94,0,.63-.09,1.27.3,1.84-.66,0-1.32,0-1.98,0-.85,0-1.08-.23-1.09-1.08,0-.08,0-.17,0-.25Z"/><path class="cls-5" d="m40.16,74.01c0-3.19,0-6.38,0-9.58,0-.73.25-.99.97-.99.73,0,1.47,0,2.2,0-.36.32-.45.72-.41,1.18.03.39,0,.78,0,1.17-.54.04-.81.3-.82.89-.02,1.94-.02,3.88,0,5.82,0,.59.27.84.82.89.02.66-.14,1.35.3,1.94-.66,0-1.32,0-1.99,0-.85,0-1.08-.23-1.09-1.08,0-.08,0-.17,0-.25Z"/><path class="cls-5" d="m49.27,74.01c0-3.16.01-6.31.02-9.47,0-.95.15-1.1,1.09-1.1.63,0,1.26,0,1.89,0-.35.76-.16,1.57-.2,2.35-.6.11-.82.33-.82.9,0,1.96,0,3.93,0,5.89,0,.57.22.8.82.9,0,.62-.07,1.25.2,1.84-.63,0-1.25,0-1.88,0-.92,0-1.08-.16-1.1-1.09,0-.08-.01-.17-.02-.25Z"/><path class="cls-5" d="m70.24,73.61c.02.56-.11,1.13.21,1.65-.68,0-1.36,0-2.04,0-.82,0-.94-.12-.95-.94,0-.1,0-.2-.01-.31,0-3.18,0-6.36.01-9.53,0-.82.21-1.03,1.02-1.03.72,0,1.44,0,2.15,0-.41.34-.44.8-.41,1.28.02.39,0,.78,0,1.17-.6.11-.82.33-.82.9,0,1.96,0,3.93,0,5.89,0,.57.22.8.82.9Z"/><path class="cls-3" d="m43.24,75.34c-.45-.59-.28-1.28-.3-1.94.53-.05.8-.29.81-.85.02-1.97.02-3.93,0-5.9,0-.56-.28-.8-.81-.85,0-.39.02-.78,0-1.17-.04-.46.05-.87.41-1.18.46,0,.92-.01,1.38,0,.73.01.98.28.98,1.06,0,3.03,0,6.07,0,9.1,0,.14,0,.27,0,.41,0,.15,0,.3,0,.46-.04.59-.29.85-.89.87-.52.02-1.04,0-1.57,0Z"/><path class="cls-6" d="m61.11,65.91c0-.42.02-.84,0-1.26-.04-.47.08-.86.41-1.19.46,0,.92,0,1.38,0,.72,0,.98.27.98.99,0,3.09,0,6.18,0,9.26,0,.1,0,.2,0,.31,0,.14,0,.27,0,.41-.01.62-.26.9-.89.92-.52.02-1.05,0-1.57,0-.39-.56-.31-1.21-.3-1.84.5-.04.81-.31.81-.78.01-2.01.01-4.02,0-6.03,0-.48-.31-.74-.81-.78Z"/><path class="cls-6" d="m34.11,75.34c-.38-.6-.31-1.28-.3-1.94.6-.11.82-.33.82-.9,0-1.96,0-3.93,0-5.89,0-.57-.22-.8-.82-.9,0-.37.01-.74,0-1.11-.02-.44.11-.82.41-1.14.48,0,.96,0,1.43,0,.66,0,.93.28.93.93,0,3.21,0,6.42,0,9.63,0,.14-.02.27,0,.41.09.67-.39.9-.89.92-.53.03-1.05,0-1.58,0Z"/><path class="cls-6" d="m52.07,65.81c.05-.79-.14-1.59.2-2.35.5,0,.99,0,1.49,0,.77,0,.98.21.98.97,0,3.2,0,6.39,0,9.59,0,.12,0,.24-.01.36,0,.7-.26.96-.99.98-.49,0-.99,0-1.48,0-.27-.59-.2-1.22-.2-1.84.44-.11.73-.32.72-.83-.01-2.01,0-4.03,0-6.04,0-.49-.25-.75-.72-.82Z"/><path class="cls-4" d="m47.35,77.9c0,.54.01,1.09,0,1.64-.02.63-.3.95-.82.95s-.8-.31-.82-.94c-.01-.54,0-1.09,0-1.64h1.63Z"/><path class="cls-4" d="m58.33,77.9c0,.54.01,1.09,0,1.64-.02.63-.3.94-.82.94s-.8-.31-.82-.95c-.01-.54,0-1.09,0-1.64h1.63Z"/><path class="cls-4" d="m61.1,77.9c-.03.64.06,1.29-.06,1.93-.1.5-.38.69-.86.65s-.68-.37-.7-.79c-.03-.6,0-1.19,0-1.79h1.63Z"/><path class="cls-4" d="m72.08,77.9c0,.54.01,1.09,0,1.64-.02.63-.3.95-.82.95s-.8-.31-.82-.95c-.01-.54,0-1.09,0-1.64h1.63Z"/><path class="cls-4" d="m33.6,77.9c0,.54.01,1.09,0,1.64-.02.63-.3.95-.82.95s-.8-.31-.82-.95c-.01-.54,0-1.09,0-1.64h1.63Z"/><path class="cls-4" d="m44.58,77.9c0,.56.02,1.12,0,1.69-.02.62-.32.9-.87.9-.38,0-.58-.19-.68-.55-.17-.67-.06-1.35-.09-2.03.54,0,1.09,0,1.63,0Z"/><path class="cls-4" d="m36.36,77.9c-.03.64.07,1.29-.08,1.93-.11.48-.35.71-.85.66-.41-.04-.69-.36-.7-.85-.01-.58,0-1.16,0-1.74h1.63Z"/><path class="cls-4" d="m74.85,77.9c-.03.64.07,1.29-.08,1.93-.11.48-.35.71-.85.66-.41-.04-.69-.36-.7-.85-.01-.58,0-1.16,0-1.74h1.63Z"/><path class="cls-9" d="m52.79,77.9c0,.6,0,1.19,0,1.79,0,.56-.25.79-.77.79s-.76-.24-.77-.79c0-.6,0-1.19,0-1.79h1.54Z"/><path class="cls-9" d="m39.04,77.9c0,.6,0,1.2,0,1.8,0,.55-.25.79-.78.78-.44,0-.75-.32-.75-.78,0-.6,0-1.2,0-1.8h1.54Z"/><path class="cls-9" d="m41.81,77.9c0,.58,0,1.16,0,1.74,0,.51-.3.83-.75.84-.54,0-.78-.23-.78-.83,0-.58,0-1.16,0-1.74h1.54Z"/><path class="cls-9" d="m55.56,77.9c0,.58,0,1.16,0,1.74,0,.51-.3.83-.75.84-.54,0-.78-.23-.78-.83,0-.58,0-1.16,0-1.74h1.54Z"/><path class="cls-9" d="m63.77,77.91c0,.6,0,1.2,0,1.8,0,.55-.25.79-.78.78-.44,0-.75-.32-.75-.78,0-.6,0-1.2,0-1.8h1.54Z"/><path class="cls-9" d="m66.54,77.9c0,.58,0,1.16,0,1.74,0,.51-.3.83-.75.83-.54,0-.78-.23-.78-.83,0-.58,0-1.16,0-1.74h1.54Z"/><path class="cls-4" d="m30.83,77.9c0,.56,0,1.13,0,1.69,0,.55-.3.89-.76.89-.56,0-.77-.24-.78-.89,0-.56,0-1.13,0-1.69h1.54Z"/><path class="cls-9" d="m50.02,77.91c0,.58,0,1.16,0,1.74,0,.58-.22.82-.73.84-.48.01-.8-.31-.81-.84-.01-.58,0-1.16,0-1.74h1.54Z"/><path class="cls-4" d="m69.31,77.9c0,.56,0,1.13,0,1.69,0,.55-.3.89-.76.89-.56,0-.77-.24-.78-.89,0-.56,0-1.13,0-1.69h1.54Z"/><path class="cls-1" d="m33.81,65.7c.6.11.82.33.82.9,0,1.96,0,3.93,0,5.89,0,.57-.22.8-.82.9-.5-.11-.74-.39-.73-.94.02-1.96.01-3.93,0-5.89,0-.5.22-.8.72-.87Z"/><path class="cls-1" d="m70.24,73.61c-.6-.11-.82-.33-.82-.9,0-1.96,0-3.93,0-5.89,0-.57.22-.8.82-.9.47.07.72.33.72.81,0,2.02,0,4.05,0,6.07,0,.49-.25.74-.72.81Z"/><path class="cls-1" d="m61.11,65.91c.5.04.81.31.81.78.01,2.01.01,4.02,0,6.03,0,.48-.31.74-.81.78-.56-.05-.8-.26-.81-.94-.03-1.9-.03-3.81,0-5.71.01-.68.25-.9.81-.94Z"/><path class="cls-1" d="m42.94,65.81c.53.05.8.29.81.85.02,1.97.02,3.93,0,5.9,0,.56-.28.8-.81.85-.54-.04-.81-.3-.82-.89-.02-1.94-.02-3.88,0-5.82,0-.59.27-.84.82-.89Z"/><path class="cls-1" d="m52.07,65.81c.47.07.72.33.72.82,0,2.01,0,4.03,0,6.04,0,.51-.28.73-.72.83-.6-.11-.82-.33-.82-.9,0-1.96,0-3.93,0-5.89,0-.57.22-.8.82-.9Z"/><path d="m12.91,61.26l-.17-2.77,7.94-2.49-8.2-1.72-.13-2.14,7.92-2.72-8.18-1.49-.17-2.77,11.71,2.46.19,3-6.68,2.3,6.91,1.45.19,3-11.32,3.9Z"/><path d="m19.13,34.69l7.77,2.77-.83,2.33-.73-.26c.41.72.49,1.61.12,2.65-.72,2.04-3.11,3.08-5.42,2.25-2.31-.83-3.5-3.14-2.78-5.17.37-1.04,1-1.67,1.77-1.98l-.73-.26.83-2.33Zm3.05,3.71c-1.17-.42-2.17.1-2.55,1.17-.38,1.07.07,2.11,1.24,2.52s2.17-.1,2.55-1.17c.38-1.07-.07-2.11-1.24-2.52Z"/><path d="m24.65,30.65l2.38,1.68c.58.41.98-.05,1.56-.98l1.83,1.29c-1.59,2.83-2.93,3.04-4.82,1.71l-2.39-1.68-.76,1.08-1.94-1.37.76-1.08-1.28-.9.82-2.45,1.89,1.33.98-1.39,1.94,1.37-.98,1.39Z"/><path d="m27.73,29.28c-1.62-1.85-1.46-4.51.42-6.16,1.2-1.05,2.82-1.35,4.19-.87l-.8,2.37c-.59-.25-1.27-.12-1.81.36-.81.71-.89,1.81-.14,2.67.75.86,1.85.92,2.66.21.55-.48.78-1.14.6-1.75l2.44-.49c.31,1.44-.19,2.99-1.4,4.06-1.89,1.65-4.54,1.45-6.15-.4Z"/><path d="m41.89,19.13l2.06,4.62-2.26,1.01-1.92-4.29c-.42-.93-1.2-1.11-1.92-.78-.83.37-1.19,1.11-.71,2.18l1.84,4.11-2.26,1.01-4.71-10.53,2.26-1.01,1.66,3.72c.16-.74.75-1.44,1.74-1.88,1.52-.68,3.3-.18,4.21,1.86Z"/><path d="m48.11,20.22l2.31-1.25c.38.97,1.07,1.63,2.38,1.67,1.25.04,1.58-.45,1.59-.89.02-.71-.63-1.01-2.35-1.54-1.7-.53-3.36-1.4-3.29-3.61.06-2.22,1.98-3.46,3.98-3.4,1.9.05,3.35,1,4.14,2.73l-2.26,1.24c-.37-.84-.9-1.36-1.96-1.39-.82-.02-1.25.38-1.26.84-.02.53.25.9,2.04,1.49,1.73.58,3.68,1.25,3.6,3.68-.06,2.23-1.88,3.49-4.39,3.42-2.42-.07-3.94-1.27-4.53-2.99Z"/><path d="m61.86,18.67l-.82,2.8c-.2.68.37.92,1.43,1.16l-.63,2.15c-3.19-.59-3.83-1.79-3.18-4l.82-2.8-1.27-.37.66-2.28,1.27.37.44-1.5,2.58-.02-.65,2.22,1.63.48-.66,2.28-1.63-.48Z"/><path d="m64.18,21.09c1.25-2.11,3.9-2.75,5.98-1.51,2.09,1.24,2.79,3.86,1.54,5.97-1.25,2.11-3.9,2.75-5.98,1.51-2.09-1.24-2.79-3.86-1.54-5.97Zm5.39,3.2c.6-1.01.28-2.09-.64-2.64-.92-.55-2.03-.3-2.62.7-.6,1.01-.28,2.09.64,2.64.92.55,2.03.3,2.62-.7Z"/><path d="m79.46,27.4l-2,1.96c-.6-.84-1.91-1.59-3.08-.45l-2.66,2.61-1.73-1.76,5.88-5.77,1.73,1.76-1.05,1.03c1.02-.54,2.17-.12,2.9.62Z"/><path d="m85.07,36.65l-7.17,4.06-1.22-2.15.67-.38c-.81-.16-1.54-.68-2.09-1.64-1.06-1.88-.29-4.37,1.84-5.58,2.14-1.21,4.66-.6,5.73,1.28.54.96.61,1.85.34,2.63l.67-.38,1.22,2.15Zm-4.8-.12c1.08-.61,1.34-1.71.78-2.7-.56-.99-1.64-1.33-2.72-.72-1.08.61-1.34,1.71-.78,2.7.56.99,1.64,1.33,2.72.72Z"/><path d="m87.87,48.44l-7.7,1.42c-2.72.5-4.26-1.41-4.66-3.57-.31-1.69.06-3.22,1.25-4.21l1.58,1.86c-.51.41-.88.97-.68,2.04.21,1.14.92,1.73,2.07,1.51l.75-.14c-.76-.41-1.29-1.12-1.49-2.17-.42-2.3,1.15-4.34,3.38-4.75,2.24-.41,4.43.93,4.85,3.23.19,1.05-.05,1.91-.62,2.56l.83-.15.44,2.37Zm-4.33-1.65c1.12-.21,1.73-1.16,1.52-2.31-.21-1.15-1.12-1.82-2.24-1.62-1.12.21-1.73,1.16-1.52,2.31.21,1.15,1.12,1.82,2.24,1.62Z"/><path d="m81.09,55.35c-.1.67.08,1.28.39,1.66l-1.41,1.8c-.99-.96-1.39-2.25-1.17-3.8.4-2.79,2.53-4.25,4.96-3.9,2.43.35,4.05,2.39,3.68,4.97-.34,2.38-2.44,3.88-4.91,3.52-.34-.05-.66-.13-.96-.24l.84-5.8c-.89.19-1.29.9-1.42,1.79Zm2.75,1.93c.98-.12,1.43-.81,1.54-1.54.13-.93-.23-1.62-1.03-1.97l-.51,3.51Z"/></svg>