<?xml version="1.0" encoding="UTF-8"?><svg id="Layer_1" xmlns="http://www.w3.org/2000/svg" viewBox="0 0 100 100"><defs><style>.cls-1{fill:#d2febf;}.cls-2{fill:#999afe;}.cls-3{fill:none;stroke:#c000e2;stroke-miterlimit:10;stroke-width:4px;}.cls-4{fill:#00f6d5;}.cls-5{fill:#989afe;}.cls-6{fill:#02f6d5;}.cls-7{fill:#03f6d5;}.cls-8{fill:#00244d;}.cls-9{fill:#b7b7fe;}.cls-10{fill:#979bfd;}.cls-11{fill:#b8b8fd;}.cls-12{fill:#014767;}.cls-13{fill:#00dbe6;}</style></defs><circle class="cls-3" cx="50" cy="50" r="45"/><path d="m12.71,41.7l-.6,2.82,8.55,1.82-.53,2.5-8.55-1.82-.6,2.82-2.41-.51,1.73-8.14,2.41.51Z"/><path d="m17.3,33.61l7.21,3.48-1.04,2.16-.68-.33c.32.74.31,1.61-.16,2.57-.91,1.89-3.32,2.65-5.47,1.61-2.15-1.04-3.05-3.39-2.14-5.28.47-.97,1.14-1.51,1.92-1.72l-.68-.33,1.04-2.16Zm2.56,3.9c-1.08-.52-2.11-.13-2.59.87-.48.99-.15,2.04.93,2.56,1.08.52,2.11.13,2.59-.87.48-1,.15-2.04-.93-2.56Z"/><path d="m28,27.25c1.75,1.63,1.91,4.15.48,5.68-.73.78-1.54,1.11-2.34,1.08l.55.51-1.64,1.76-8.2-7.64,1.64-1.76,2.89,2.7c-.08-.8.18-1.63.91-2.41,1.43-1.53,3.96-1.54,5.7.08Zm-1.64,1.76c-.88-.82-1.97-.75-2.73.06-.75.81-.75,1.91.13,2.72.88.82,1.97.75,2.73-.06.75-.81.75-1.91-.13-2.73Z"/><path d="m25.07,20.16l1.97-1.37,6.68,9.58-1.97,1.37-6.68-9.58Z"/><path d="m37.61,24.19c.6-.26,1.02-.72,1.17-1.17l2.2.26c-.29,1.31-1.16,2.29-2.55,2.89-2.51,1.08-4.8.06-5.74-2.13-.94-2.19-.08-4.56,2.24-5.56,2.15-.92,4.45.05,5.4,2.27.13.31.23.61.29.92l-5.22,2.25c.61.64,1.4.62,2.21.27Zm.2-3.26c-.6-.75-1.4-.77-2.06-.49-.84.36-1.22,1.01-1.1,1.85l3.16-1.36Z"/><path d="m44.46,18.34l.5,2.79c.12.68.72.63,1.74.38l.39,2.14c-3.03.87-4.09.11-4.49-2.1l-.5-2.79-1.26.23-.41-2.27,1.26-.23-.27-1.5,2.23-1.13.4,2.2,1.62-.29.41,2.27-1.62.29Z"/><path d="m48.12,17.6l6.07.19-.07,2.3-6.08-.19.07-2.3Z"/><path d="m64.56,22.49c-.7,2.28-2.9,3.52-4.9,2.9-1.02-.32-1.66-.9-1.99-1.64l-.22.72-2.29-.71,3.31-10.7,2.29.71-1.17,3.77c.68-.42,1.54-.54,2.57-.23,2,.62,3.11,2.89,2.4,5.17Zm-2.29-.71c.35-1.15-.19-2.1-1.24-2.43-1.05-.33-2.04.16-2.4,1.3-.35,1.15.19,2.1,1.24,2.43,1.05.33,2.04-.16,2.4-1.3Z"/><path d="m65.78,23.12c1.33-1.98,3.93-2.44,5.88-1.13,1.95,1.32,2.48,3.9,1.15,5.87-1.33,1.98-3.93,2.44-5.88,1.13-1.95-1.32-2.48-3.9-1.15-5.88Zm5.04,3.4c.64-.94.39-2.01-.47-2.59-.86-.58-1.95-.41-2.58.53s-.39,2.01.47,2.6c.86.58,1.94.41,2.58-.54Z"/><path d="m84.86,30.89l-8.68,7.07-1.51-1.86.58-.47c-.8-.02-1.58-.4-2.26-1.23-1.33-1.62-.99-4.13.86-5.63,1.85-1.51,4.36-1.33,5.69.29.68.83.89,1.67.75,2.46l3.06-2.5,1.52,1.86Zm-7.09,2.69c.93-.76,1.01-1.85.31-2.71-.7-.85-1.79-1-2.71-.24-.93.76-1.01,1.85-.31,2.71.7.85,1.79,1,2.71.24Z"/><path d="m86.98,42.72l-8.21.55c-2.69.18-4.18-.73-4.96-2.83l2.06-.89c.44,1.03.97,1.37,2.01,1.31l5.75-5.94,1.04,2.42-3.79,3.57,5.09-.55,1.01,2.35Z"/><path d="m91.31,48.58l-11.01,2-.46-2.52,8.36-1.52-.89-1.85,2.04-1,1.56,2.69.4,2.2Z"/><path class="cls-8" d="m49.99,37.4c.32,0,.65-.01.97-.01,3.79,0,7.59.04,11.38-.02,1.85-.03,3.56,1.43,3.58,3.36,0,.09,0,.19,0,.28v34.07c0,1.46-.59,2.56-1.87,3.28-.31.18-.67.22-.99.37h-13.08v-2.41c.16,0,.32-.01.48-.01h11.75c.89,0,1.26-.36,1.26-1.24v-34.03c0-.87-.37-1.24-1.26-1.24h-10.33c-.63,0-1.26,0-1.9-.01,0-.8,0-1.6,0-2.4Z"/><path class="cls-12" d="m49.99,76.32v2.41h-13.17c-.14-.16-.36-.15-.54-.22-1.3-.48-2.17-1.7-2.21-3.08,0-.12,0-.24,0-.36v-34.02c0-1.54.63-2.66,2.01-3.35.37-.19.78-.3,1.2-.3,4.24,0,8.47,0,12.71,0v2.43c-.14,0-.28-.02-.41-.02h-11.83c-.92,0-1.27.34-1.27,1.26v33.98c0,.92.35,1.26,1.27,1.26h9.2c1.01,0,2.02-.01,3.02-.02v.03Z"/><path class="cls-4" d="m49.99,39.8c.63,0,1.26.01,1.9.01h10.33c.89,0,1.26.36,1.26,1.24v34.03c0,.87-.37,1.24-1.26,1.24h-11.75c-.16,0-.32,0-.48.01v-.03c0-.82-.01-1.64-.02-2.47l3.47-.02c.5,0,1.07-.43,1.15-.85.17-.9-.38-1.57-1.29-1.57-1.1,0-2.2,0-3.31,0v-9.85c.85-.14,1.22-.57,1.22-1.42v-4.1c0-.84-.37-1.28-1.21-1.42,0-3.28,0-6.56,0-9.85.55,0,1.1,0,1.66,0,.67,0,1.23-.53,1.23-1.2,0,0,0-.02,0-.03-.03-.69-.48-1.21-1.25-1.2-.55,0-1.1,0-1.65-.02,0-.82,0-1.64.01-2.47v-.03Zm5.87,18.3c0-1.28,0-2.56,0-3.83,0-.5-.16-.93-.61-1.2-.83-.51-1.81.08-1.85,1.14-.03.7,0,1.4,0,2.1v5.44c0,.54.13,1.02.63,1.31.85.49,1.82-.12,1.83-1.17.01-1.26,0-2.53,0-3.79Zm4.71-.04c0-.34,0-.67,0-1.01,0-.65-.52-1.18-1.17-1.19,0,0,0,0,0,0-.66-.01-1.21.46-1.24,1.12-.03.71-.03,1.43,0,2.14.05.67.62,1.17,1.29,1.12.62-.04,1.11-.55,1.12-1.17,0-.34,0-.67,0-1.01h0Z"/><path class="cls-1" d="m49.98,39.82c0,.82,0,1.64-.01,2.47h0c-.52,0-1.05,0-1.57,0-.76,0-1.29.49-1.31,1.19s.56,1.22,1.32,1.23c.52,0,1.05.01,1.57.02h0c0,3.28,0,6.56,0,9.85h-.01c-.76.06-1.25.69-1.22,1.52.05,1.3.05,2.61,0,3.91-.03.83.47,1.46,1.22,1.51h.01s0,9.86,0,9.86h0c-1.1,0-2.2,0-3.31.02-.78,0-1.33.51-1.34,1.21-.01.68.56,1.21,1.33,1.21,1.1,0,2.2,0,3.31,0h0c0,.82,0,1.64.01,2.47-1.01,0-2.02.02-3.02.02h-9.2c-.92,0-1.27-.34-1.27-1.26v-33.98c0-.92.35-1.26,1.27-1.26h11.82c.13,0,.27.01.4.02Zm-3.62,18.22v-5.41c.01-.17,0-.35-.06-.52-.21-.53-.76-.85-1.33-.76-.53.08-1.02.62-1.02,1.24-.01,3.65-.01,7.29,0,10.94,0,.67.54,1.22,1.21,1.23.02,0,.04,0,.07,0,.69-.03,1.16-.63,1.14-1.3-.03-1.8-.01-3.61-.01-5.41Zm-4.69.05v-2.18c0-.74-.54-1.32-1.23-1.32-.67,0-1.19.56-1.19,1.31,0,1.44,0,2.88,0,4.32,0,.75.53,1.32,1.19,1.3.69-.01,1.23-.59,1.23-1.33,0-.7,0-1.4,0-2.1Z"/><path class="cls-10" d="m55.86,58.1c0,1.26.01,2.53,0,3.79-.01,1.05-.98,1.66-1.83,1.17-.5-.29-.63-.77-.63-1.31v-5.44c0-.7-.02-1.4,0-2.1.04-1.06,1.02-1.65,1.85-1.14.44.27.61.7.61,1.2,0,1.28,0,2.56,0,3.83Z"/><path class="cls-13" d="m49.98,71.38c1.1,0,2.2,0,3.31,0,.92,0,1.47.67,1.29,1.57-.08.43-.65.85-1.15.85l-3.47.02h0v-2.45s.01,0,.01,0Z"/><path class="cls-5" d="m60.57,58.06c0,.34,0,.67,0,1.01-.02.67-.57,1.19-1.24,1.18-.62-.02-1.13-.5-1.17-1.12-.03-.71-.03-1.43,0-2.14.03-.66.58-1.13,1.24-1.12.65,0,1.17.53,1.17,1.18,0,0,0,0,0,0,0,.34,0,.67,0,1.01Z"/><path class="cls-2" d="m49.99,54.59c.84.15,1.21.58,1.21,1.42v4.1c0,.84-.37,1.27-1.21,1.42h-.01v-6.93h.01Z"/><path class="cls-13" d="m49.97,42.29c.55,0,1.1.02,1.65.02.76-.01,1.22.51,1.25,1.2,0,.67-.53,1.22-1.2,1.23-.01,0-.02,0-.03,0-.55,0-1.1,0-1.66,0h0v-2.45s0,0,0,0Z"/><path class="cls-11" d="m46.36,58.05c0,1.8-.02,3.61.01,5.41.01.67-.46,1.27-1.14,1.3-.67.03-1.24-.49-1.28-1.16,0-.02,0-.04,0-.07-.02-3.65-.02-7.29,0-10.94,0-.62.49-1.16,1.02-1.24.57-.09,1.12.23,1.33.76.06.17.08.34.06.52,0,1.8,0,3.61,0,5.41Z"/><path class="cls-11" d="m41.67,58.1v2.1c0,.74-.55,1.32-1.23,1.33-.66.01-1.19-.56-1.19-1.3v-4.32c0-.75.52-1.32,1.19-1.31.69,0,1.23.58,1.23,1.32,0,.72,0,1.45,0,2.18Z"/><path class="cls-6" d="m49.99,71.38v2.45c-1.11,0-2.21,0-3.32,0-.77,0-1.34-.53-1.33-1.21.01-.7.56-1.21,1.34-1.21,1.1-.01,2.2-.01,3.31-.02Z"/><path class="cls-9" d="m49.98,54.6v6.92c-.75-.05-1.25-.68-1.22-1.51.05-1.3.05-2.61,0-3.91-.03-.82.47-1.46,1.22-1.5Z"/><path class="cls-7" d="m49.98,42.29v2.45c-.51,0-1.04-.01-1.56-.02-.76-.01-1.33-.55-1.32-1.23s.55-1.18,1.31-1.19c.52,0,1.05,0,1.57,0Z"/><path d="m48.34,44.66h5.7v25.9h-6.62v-18.94l-4.51,1.15-1.59-5.59,7.03-2.52Z"/></svg>