<?xml version="1.0" encoding="UTF-8"?><svg id="Layer_1" xmlns="http://www.w3.org/2000/svg" viewBox="0 0 100 100"><defs><style>.cls-1{fill:#535454;}.cls-2{fill:none;stroke:#0018c6;stroke-miterlimit:10;stroke-width:4px;}.cls-3{fill:#656565;}.cls-4{fill:#dcdcdc;}.cls-5{fill:#eee;}.cls-6{fill:#474847;}</style></defs><circle class="cls-2" cx="50" cy="50" r="45"/><path class="cls-5" d="m43.15,76.78h-8.27c-.04-.22-.24-.16-.37-.21-.95-.32-1.62-1.22-1.62-2.23,0-10.83,0-21.67,0-32.5,0-.13-.05-.29.09-.39.57.78,1.4.82,1.91.1.48-.82,0-1.69-.93-1.7-.51-.02-.8.26-1.01.68-.25-1.09.21-2.27,1.21-2.78.14-.08.37-.05.42-.28h8.89c-.14.15-.34.14-.51.22-1.02.52-1.38,1.39-1.38,2.48,0,9.36,0,18.72,0,28.07,0,1.94,0,3.88,0,5.82,0,1.17.48,2.03,1.59,2.5,0,.07,0,.14,0,.2Z"/><path class="cls-1" d="m45.38,37.47h22.52s.02.05.04.06c1.38.5,1.87,1.19,1.87,2.66v33.81c0,1.75-.95,2.7-2.69,2.7h-20.91c-.28,0-.56,0-.84,0,0-.11-.1-.13-.18-.16-.79-.34-1.33-.92-1.44-1.78-.14-1.15-.07-2.31-.03-3.46.13.17.28.29.51.28.71,0,1.43,0,2.14-.01.09,0,.18.01.27.01h20.17c.8,0,.93-.13.93-.94v-27.14c0-.14,0-.28-.01-.42,0-.42.02-.84.02-1.26,0-.74-.15-.89-.9-.89h-20.05c-.14,0-.28,0-.42.01-.63,0-1.27,0-1.9-.02-.25,0-.47.03-.68.17-.21-.37-.09-.77-.09-1.15,0-1.05.47-1.81,1.43-2.26.1-.04.24-.04.24-.2Zm8.66,36.69c-.09.89.84,1.71,1.65,1.69.96-.01,1.71-.76,1.72-1.73.01-.81-.81-1.7-1.7-1.66-.99.05-1.68.69-1.68,1.69h0Zm2.22-34.93c0-.35-.2-.54-.55-.53-.33,0-.6.26-.6.57s.27.57.6.57c.37,0,.55-.2.55-.62h0Z"/><path class="cls-4" d="m34.57,37.47c-.05.22-.27.2-.42.28-1,.52-1.46,1.7-1.21,2.78-.11.31-.07.61.03.91-.14.1-.09.25-.09.39,0,10.83,0,21.67,0,32.5,0,1,.67,1.9,1.62,2.23.13.04.33,0,.37.21h-2.38c0-.16-.14-.16-.24-.19-.72-.23-1.22-.7-1.5-1.4-.04-.09-.06-.17-.17-.17v-35.85c.09,0,.13-.05.16-.13.25-.67.72-1.14,1.39-1.39.08-.03.13-.07.13-.16h2.3Z"/><path class="cls-6" d="m45.38,37.47c0,.16-.15.15-.24.2-.96.45-1.43,1.22-1.43,2.26,0,.38-.12.78.09,1.15-.23.65-.1,1.32-.1,1.98,0,.06,0,.13,0,.19,0,9.18,0,18.36,0,27.54,0,.16.03.33.05.49-.04,1.15-.11,2.31.03,3.46.11.86.64,1.44,1.44,1.78.08.04.17.05.18.16-.74-.02-1.48.11-2.21-.12-1.11-.47-1.59-1.33-1.59-2.5,0-1.94,0-3.88,0-5.82,0-9.36,0-18.72,0-28.07,0-1.09.36-1.96,1.38-2.48.17-.08.37-.08.51-.22h1.91Z"/><path class="cls-1" d="m32.98,41.45c-.1-.3-.14-.6-.03-.91.21-.41.5-.7,1.01-.68-.26.89.11,1.51.85,1.62.03,0,.06.05.08.07-.51.72-1.34.67-1.91-.1Z"/><path class="cls-3" d="m34.89,41.56s-.05-.07-.08-.07c-.74-.11-1.11-.73-.85-1.62.93,0,1.41.88.93,1.7Z"/><path class="cls-3" d="m54.03,74.17c0-1,.68-1.64,1.68-1.69.89-.04,1.71.85,1.7,1.66-.01.96-.76,1.71-1.72,1.73-.81.01-1.74-.81-1.65-1.69Zm2.15-.03c0-.32-.19-.46-.47-.48-.26-.02-.56.29-.52.54.04.28.19.46.51.44.33-.02.47-.19.48-.5h0Z"/><path class="cls-3" d="m56.25,39.23c0,.42-.18.63-.55.62-.33,0-.6-.26-.6-.57s.27-.57.6-.57c.35,0,.55.18.55.53Z"/><path class="cls-1" d="m56.18,74.13c0,.31-.15.49-.48.5-.32.02-.47-.17-.51-.44-.04-.25.26-.57.52-.54.28.02.48.16.47.48Z"/><path d="m15.57,39.01l-.79,2.77,8.4,2.41-.71,2.46-8.4-2.41-.79,2.77-2.37-.68,2.29-8,2.37.68Z"/><path d="m20.71,31.26l6.95,3.97-1.19,2.08-.65-.37c.27.76.2,1.62-.33,2.56-1.04,1.82-3.5,2.41-5.57,1.23-2.07-1.18-2.81-3.6-1.77-5.42.53-.93,1.24-1.43,2.03-1.59l-.65-.37,1.19-2.08Zm2.29,4.07c-1.04-.6-2.09-.27-2.64.69-.55.96-.29,2.03.75,2.62,1.04.59,2.09.27,2.64-.69.55-.96.29-2.03-.75-2.62Z"/><path d="m31.82,25.66c1.63,1.74,1.62,4.27.09,5.7-.78.73-1.61,1-2.41.91l.51.55-1.75,1.64-7.65-8.19,1.75-1.64,2.7,2.89c-.03-.81.29-1.61,1.08-2.34,1.53-1.43,4.05-1.27,5.68.48Zm-1.75,1.64c-.82-.88-1.92-.88-2.73-.13-.81.75-.88,1.85-.06,2.73.82.88,1.92.88,2.73.13.81-.75.88-1.85.06-2.73Z"/><path d="m29.38,18.37l2.06-1.23,6,10.02-2.06,1.23-6-10.02Z"/><path d="m41.64,23.25c.62-.22,1.06-.64,1.25-1.08l2.18.41c-.38,1.29-1.31,2.21-2.75,2.71-2.58.9-4.79-.27-5.58-2.52-.79-2.25.24-4.55,2.62-5.39,2.2-.77,4.43.36,5.23,2.64.11.32.19.63.23.94l-5.36,1.88c.56.68,1.35.71,2.18.42Zm.43-3.23c-.55-.79-1.34-.87-2.02-.63-.86.3-1.29.92-1.23,1.77l3.25-1.14Z"/><path d="m48.85,17.9l.31,2.82c.08.68.67.68,1.71.5l.24,2.16c-3.08.66-4.09-.18-4.34-2.4l-.31-2.82-1.27.14-.25-2.29,1.27-.14-.17-1.51,2.31-.98.24,2.23,1.64-.18.25,2.29-1.64.18Z"/><path d="m60.12,16.33l1.46.27-.42,2.27-1.46-.27-1.04,5.6-2.36-.44,1.04-5.6-1.05-.2.42-2.27,1.05.2c.41-2.2,1.87-3.3,4.45-2.66l-.42,2.27c-.87-.24-1.5-.08-1.67.83Z"/><path d="m67.86,18.62l-.94,2.55c-.88-.49-2.34-.6-2.88.88l-1.25,3.39-2.25-.83,2.76-7.51,2.25.83-.49,1.34c.67-.9,1.85-1.01,2.8-.66Z"/><path d="m76.59,24.12l-4.43,6.67-2-1.33.42-.63c-.78.21-1.63.09-2.53-.51-1.75-1.16-2.17-3.65-.85-5.63s3.78-2.56,5.52-1.4c.89.59,1.34,1.33,1.45,2.13l.42-.63,2,1.33Zm-4.21,2.01c.66-1,.41-2.07-.51-2.68-.92-.61-2-.43-2.67.57s-.41,2.07.51,2.68c.92.61,2,.43,2.67-.57Z"/><path d="m84.06,37.97l-3.97,2.89-1.41-1.94,3.8-2.77c.65-.47.83-1.08.38-1.7-.47-.65-1.19-.68-1.95-.12l-3.65,2.66-1.41-1.94,3.8-2.77c.65-.47.83-1.08.38-1.7-.47-.65-1.19-.68-1.95-.12l-3.65,2.66-1.41-1.94,6.47-4.71,1.41,1.94-.59.43c.66-.02,1.41.3,2.04,1.17.56.76.66,1.56.38,2.32.78-.01,1.55.34,2.22,1.25,1.08,1.49.73,3.23-.89,4.41Z"/><path d="m83.06,45.08c.18.63.59,1.1,1.02,1.3l-.52,2.15c-1.26-.45-2.13-1.43-2.56-2.89-.77-2.63.53-4.77,2.81-5.44,2.29-.67,4.54.48,5.25,2.9.66,2.24-.6,4.41-2.92,5.09-.32.09-.64.15-.95.18l-1.59-5.45c-.71.53-.79,1.31-.54,2.16Zm3.21.6c.82-.51.94-1.29.74-1.98-.25-.88-.86-1.33-1.7-1.32l.96,3.3Z"/></svg>