<?xml version="1.0" encoding="UTF-8"?><svg id="Layer_1" xmlns="http://www.w3.org/2000/svg" viewBox="0 0 100 100"><defs><style>.cls-1{fill:none;stroke:#c000e2;stroke-miterlimit:10;stroke-width:4px;}.cls-2{fill:#fef3d6;}.cls-3{fill:#debcef;}.cls-4{fill:#f1d0fe;}.cls-5{fill:#fe5f7a;}.cls-6{fill:#625260;}.cls-7{fill:#4e3d4d;}.cls-8{fill:#fe7e92;}.cls-9{fill:#fefefe;}</style></defs><circle class="cls-1" cx="50" cy="50" r="45"/><path d="m14.22,39.84l-.58,2.7,8.17,1.75-.51,2.4-8.18-1.75-.58,2.7-2.31-.5,1.67-7.79,2.31.49Z"/><path d="m18.61,32.1l6.9,3.33-1,2.07-.65-.31c.3.71.29,1.54-.15,2.46-.87,1.81-3.18,2.53-5.23,1.54-2.05-.99-2.92-3.25-2.05-5.06.45-.92,1.09-1.45,1.83-1.65l-.65-.31,1-2.07Zm2.45,3.74c-1.03-.5-2.02-.12-2.48.83-.46.95-.14,1.96.89,2.46,1.03.5,2.02.12,2.48-.83.46-.95.14-1.96-.89-2.45Z"/><path d="m28.88,26.02c1.66,1.56,1.82,3.97.45,5.43-.7.75-1.47,1.06-2.24,1.03l.53.49-1.57,1.68-7.82-7.33,1.57-1.68,2.76,2.59c-.08-.77.18-1.55.88-2.3,1.37-1.46,3.79-1.47,5.45.09Zm-1.57,1.68c-.84-.79-1.89-.72-2.61.05-.72.77-.72,1.82.12,2.61.84.79,1.89.72,2.61-.05.72-.77.72-1.82-.12-2.61Z"/><path d="m26.11,19.2l1.89-1.31,6.37,9.18-1.89,1.31-6.37-9.18Z"/><path d="m38.1,23.09c.58-.25.97-.68,1.12-1.11l2.1.25c-.28,1.25-1.11,2.19-2.45,2.76-2.41,1.03-4.59.05-5.49-2.05-.9-2.1-.07-4.37,2.16-5.32,2.06-.88,4.26.06,5.17,2.19.13.29.22.59.28.88l-5,2.13c.58.62,1.34.59,2.11.26Zm.2-3.12c-.57-.72-1.33-.75-1.97-.47-.8.34-1.17.97-1.06,1.77l3.03-1.29Z"/><path d="m44.7,17.51l.47,2.67c.11.65.68.61,1.67.38l.36,2.05c-2.9.82-3.92.08-4.29-2.03l-.47-2.67-1.21.21-.38-2.17,1.21-.21-.25-1.43,2.14-1.08.37,2.11,1.55-.27.38,2.17-1.55.27Z"/><path d="m48.24,16.81l5.82.21-.08,2.2-5.82-.21.08-2.21Z"/><path d="m63.97,21.56c-.69,2.18-2.79,3.36-4.7,2.76-.98-.31-1.59-.87-1.9-1.58l-.22.69-2.19-.69,3.22-10.22,2.19.69-1.14,3.61c.66-.4,1.48-.51,2.46-.2,1.91.6,2.96,2.78,2.27,4.95Zm-2.19-.69c.34-1.1-.17-2.01-1.18-2.33-1.01-.32-1.95.14-2.3,1.23-.35,1.09.17,2.01,1.18,2.33,1.01.32,1.95-.14,2.3-1.23Z"/><path d="m65.16,22.18c1.29-1.88,3.78-2.32,5.63-1.04s2.35,3.75,1.06,5.63c-1.29,1.88-3.78,2.32-5.63,1.04-1.86-1.27-2.35-3.75-1.07-5.63Zm4.8,3.29c.62-.9.39-1.92-.43-2.49-.82-.56-1.86-.4-2.47.5-.62.9-.39,1.92.43,2.49.82.56,1.86.4,2.47-.5Z"/><path d="m83.4,29.75l-8.35,6.72-1.44-1.79.56-.45c-.77-.03-1.52-.39-2.16-1.19-1.26-1.56-.92-3.96.86-5.39s4.19-1.25,5.45.32c.64.8.84,1.6.7,2.36l2.95-2.37,1.44,1.79Zm-6.81,2.53c.9-.72.98-1.77.31-2.59-.66-.82-1.7-.97-2.6-.25-.89.72-.97,1.77-.31,2.59.66.82,1.7.97,2.6.25Z"/><path d="m85.36,41.12l-7.86.47c-2.58.16-4-.73-4.73-2.74l1.98-.83c.42.99.92,1.32,1.92,1.27l5.55-5.65.98,2.33-3.66,3.39,4.88-.49.95,2.26Z"/><path d="m79.94,43.57l4.2,3.04c.72.53,1.41.9,2.03.81.67-.09,1.06-.58.96-1.29-.1-.74-.67-1.21-1.37-1.4l.91-2.22c1.67.46,2.62,1.78,2.83,3.25.27,1.89-.73,3.77-2.87,4.07-1.27.18-2.46-.35-3.57-1.18l-2.02-1.51.5,3.56-2.33.33-1.02-7.21,1.76-.25Z"/><path class="cls-6" d="m31.61,34.72h34.67c.29.22.7.19.96.47v.87c0,14.75,0,29.51.02,44.26,0,1.23-.53,2.07-2.04,2.07-11.57-.04-23.14-.02-34.71-.02-.29,0-.58-.03-.85.1-.47-.61-.5-1.33-.5-2.05v-42.1c0-.19,0-.39.01-.58.1-1.37.82-2.29,2.07-2.81.12-.06.29-.04.36-.2Zm24.39,3.19c-.11,0-.22-.02-.34-.02h-19.02c-.11,0-.22.01-.33.02-.94,0-1.89-.02-2.83-.02-.89,0-1.12.23-1.12,1.1v40.7c0,.9.22,1.12,1.14,1.12h18.2c.16,0,.32-.01.48-.02h8.62c1.34,0,2.69.02,4.03.01.51,0,.78-.3.82-.82.01-.14,0-.29,0-.43v-40.84c-.03-.54-.31-.83-.86-.83-2.93,0-5.86,0-8.78.01h0Z"/><path class="cls-7" d="m31.71,84c-.54-.26-1.13-.43-1.55-.89-.18-.2-.39-.38-.49-.64.27-.14.56-.1.85-.1,11.57,0,23.14-.02,34.71.02,1.5,0,2.04-.83,2.04-2.07-.03-14.75-.03-29.51-.02-44.26v-.87c.91.5,1.38,1.3,1.54,2.3.03.27.04.54.03.82v42.11c0,1.93-.68,2.87-2.49,3.51-.02,0-.03.05-.05.07H31.71Z"/><path class="cls-5" d="m52.17,80.8c-.16,0-.32.02-.48.02h-18.2c-.92,0-1.14-.22-1.14-1.12v-40.7c0-.87.23-1.1,1.12-1.1.94,0,1.89.01,2.83.02-.2.69-.43,1.37-.48,2.1l-.1.19c-.09.03-.18.08-.26.13-1.06.8-1.56,1.89-1.56,3.2,0,8.04,0,16.09,0,24.13,0,2.55,0,5.1,0,7.64,0,2.14,1.74,3.87,3.89,3.88h14.63c.02.56-.17,1.08-.26,1.62Z"/><path class="cls-3" d="m56,37.92c2.93,0,5.85-.01,8.78-.01.54,0,.82.29.86.83,0,.14,0,.29,0,.43v40.83c-.03.51-.31.81-.82.82-1.34.01-2.69,0-4.03-.01.03-.54.07-1.08.1-1.62,0-.03.02-.06.02-.09.19-.03.38-.07.56-.12,1.55-.57,2.59-2.04,2.6-3.69v-31.8c0-2.24-1.71-3.95-3.95-3.96h-4.61c-.19,0-.39.04-.56-.09.28-.56.68-1.03,1.05-1.53Z"/><path class="cls-2" d="m56,37.92c-.37.5-.76.97-1.05,1.53l-.1.09h-15.89c-1.08,0-2.15-.03-3.13.49.04-.73.27-1.41.48-2.1.11,0,.22-.02.33-.02h19.02c.11,0,.22,0,.34.01Z"/><path class="cls-2" d="m60.89,79.18c-.03.54-.07,1.08-.1,1.62h-8.62c.09-.54.29-1.06.27-1.62h.07s8.38,0,8.38,0Z"/><path class="cls-9" d="m60.89,79.18h-8.38c.62-4.57-.28-8.84-2.54-12.83-1.55-2.73-3.57-5.08-5.88-7.19-1.99-1.81-3.8-3.76-5.27-6.02-2.12-3.26-3.36-6.8-3.26-10.73.02-.74.12-1.47.18-2.2l.1-.19c.99-.53,2.05-.49,3.13-.49,5.3.01,10.59.01,15.89,0-.34.69-.73,1.35-1.03,2.06-1.19,2.85-1.54,5.76-.8,8.78.69,2.84,2.19,5.24,4.13,7.38,1.24,1.38,2.74,2.5,3.88,3.98,1.83,2.38,2.01,5.13-.06,7.44-.97,1.08-1.27,2.36-.9,3.76.54,2.02.87,4.06.84,6.16,0,.03-.02.06-.03.1Z"/><path class="cls-8" d="m35.73,40.21c-.06.73-.16,1.47-.18,2.2-.1,3.94,1.15,7.47,3.26,10.73,1.47,2.26,3.29,4.22,5.27,6.02,2.31,2.11,4.33,4.45,5.88,7.19,2.26,3.99,3.16,8.26,2.54,12.83h-.07c-4.88,0-9.75,0-14.63,0-2.14,0-3.88-1.74-3.89-3.88-.01-2.55,0-5.1,0-7.64v-24.13c0-1.31.49-2.4,1.56-3.2.08-.05.16-.09.25-.13Z"/><path class="cls-4" d="m60.91,79.09c.03-2.1-.3-4.14-.84-6.16-.38-1.4-.07-2.68.9-3.76,2.06-2.3,1.89-5.05.06-7.44-1.14-1.48-2.64-2.6-3.88-3.98-1.94-2.14-3.43-4.54-4.12-7.38-.74-3.02-.39-5.94.8-8.78.3-.71.69-1.37,1.03-2.06l.1-.09c.17.13.37.09.56.09h4.61c2.24,0,3.95,1.71,3.95,3.96v31.8c0,1.65-1.04,3.13-2.6,3.69-.18.05-.37.09-.56.12Z"/><path d="m39.59,71.56v-4.81l8.58-9.07c.86-.94,1.49-1.7,1.89-2.28s.59-1.15.59-1.72c0-.64-.2-1.16-.61-1.55s-.97-.59-1.68-.59c-1.53,0-2.69.9-3.48,2.7l-5.7-3.18c.84-1.95,2.07-3.43,3.7-4.44s3.43-1.52,5.4-1.52c2.47,0,4.58.73,6.35,2.2s2.65,3.47,2.65,6.01c0,1.5-.35,2.89-1.06,4.16-.7,1.27-1.73,2.61-3.09,4.01l-3.52,3.67h8.11v6.4h-18.13Z"/></svg>