<?xml version="1.0" encoding="UTF-8"?><svg id="Layer_1" xmlns="http://www.w3.org/2000/svg" viewBox="0 0 100 100"><defs><style>.cls-1{fill:#93c149;}.cls-2{fill:none;stroke:#0018c6;stroke-miterlimit:10;stroke-width:4px;}.cls-3{fill:#e2e7f5;}.cls-4{fill:#f7f6fd;}.cls-5{fill:#e1e6f4;}.cls-6{fill:#474c68;}.cls-7{fill:#b3dd60;}.cls-8{fill:#dee3f1;}.cls-9{fill:#2b2e3f;}</style></defs><circle class="cls-2" cx="50" cy="50" r="45"/><path class="cls-6" d="m70.16,55.98c-.06-.1-.08-.23-.08-.42,0-6.2.01-12.4.01-18.6,0-2.38-2.03-4.42-4.39-4.42-11,0-22,0-33,0-2.32,0-4.37,2.05-4.37,4.38,0,4.42,0,8.85,0,13.27,0,.66.01,1.32.02,1.98.11.85.23,1.7.31,2.56.25,2.51.79,4.97,1.49,7.39.41,1.41.93,2.79,1.47,4.15.07.17.09.38.32.42,0-.23.03-.45.03-.68,0-8.53,0-17.06-.01-25.59,0-.5.11-.65.64-.65,11.08.02,22.16.02,33.24,0,.52,0,.64.13.64.64-.02,12.29-.02,24.58,0,36.88,0,.53-.15.64-.65.64-8.64,0-17.28-.01-25.92-.01-.23,0-.45.01-.68.02.13.4.48.63.76.89,1.52,1.38,3.07,2.73,4.82,3.82.29.18.59.33.88.49-.32-1.59.43-2.5,2.07-2.5,1.06,0,2.11,0,3.17,0,1.11,0,1.91.77,1.92,1.8.01,1.05-.8,1.82-1.94,1.83-.94,0-1.88.02-2.83.03.14.35.49.4.77.51,2.29.98,4.66,1.68,7.15,1.98.5.06,1.02-.03,1.49.18,2.7,0,5.4.02,8.11.02,2.49,0,4.5-2,4.5-4.48,0-6.37,0-12.74,0-19.11v-.63c-.39-2.22-.35-4.62.07-6.8Zm-20.25-18.91c-.85,0-1.7,0-2.55,0s-1.66,0-2.49,0c-.71,0-1.12-.35-1.11-.92,0-.55.41-.89,1.08-.89,1.7,0,3.39,0,5.09,0,.67,0,1.07.34,1.08.89.01.57-.41.92-1.11.92Zm3.38,0c-.92,0-1.35-.28-1.36-.9,0-.62.42-.92,1.33-.92h.06c.91,0,1.34.3,1.33.92,0,.62-.44.9-1.36.9Z"/><path class="cls-9" d="m28.35,52.17c.11.85.23,1.7.31,2.56.25,2.51.79,4.97,1.49,7.39.41,1.41.93,2.79,1.47,4.15.07.17.09.38.32.42.02.26.03.52.05.79,0,3.37-.02,6.73-.03,10.1,0,.27.08.35.35.35,2.23-.02,4.46-.02,6.69-.03l.22.04c.13.4.48.63.76.89,1.52,1.38,3.07,2.73,4.82,3.82.29.18.59.33.88.49.26.44.57.82,1.07,1.01.43.17.88.09,1.32.15.14.35.49.4.77.51,2.29.98,4.66,1.68,7.15,1.98.5.06,1.02-.03,1.49.18-.32,0-.64.02-.96.02-7.77,0-15.54,0-23.31,0-2.99,0-4.88-1.89-4.88-4.88,0-9.74,0-19.47,0-29.21,0-.25.01-.49.02-.74Z"/><path class="cls-4" d="m39.22,77.94l-.22-.04c-.01-.24-.22-.34-.35-.5-.55-.64-1.13-1.26-1.66-1.92-1.84-2.33-3.38-4.85-4.64-7.54-.08-.18-.11-.42-.37-.46-.02-.26-.03-.52-.05-.79,0-.23.03-.45.03-.68,0-8.53,0-17.06-.01-25.59,0-.5.11-.65.64-.65,11.08.02,22.16.02,33.24,0,.52,0,.64.13.64.64-.02,12.29-.02,24.58,0,36.88,0,.53-.15.64-.65.64-8.64-.02-17.28-.02-25.92-.01-.23,0-.45.01-.68.02Zm6.35-29.08c-.72,0-1.44.03-2.15,0-.44-.02-.57.1-.57.56.02,6.3.02,12.59,0,18.89,0,.41.08.55.52.55,3.9-.02,7.79-.02,11.69,0,.44,0,.52-.14.52-.55-.02-3.52,0-7.03,0-10.55,0-2.78-.01-5.56.01-8.34,0-.45-.13-.58-.57-.56-.72.03-1.44,0-2.15,0,0-1.06-.02-2.11,0-3.17,0-.33-.08-.46-.44-.46-2.13.02-4.27.02-6.4,0-.36,0-.44.13-.44.46.01,1.06,0,2.11,0,3.17Zm.92,25.46q0-.94-.93-.94t-.88.88.93.94.88-.88h0Zm2.71.88q.92,0,.92-.95,0-.87-.89-.87-.92,0-.92.95,0,.87.89.87h0Zm3.69-1.82q-.95,0-.95.92,0,.89.87.89.95,0,.95-.92,0-.89-.87-.89h0Z"/><path class="cls-5" d="m48.07,84.3c-.44-.06-.89.03-1.32-.15-.5-.2-.81-.57-1.07-1.01-.32-1.59.43-2.5,2.07-2.5,1.06,0,2.11,0,3.17,0,1.11,0,1.91.77,1.92,1.8.01,1.05-.8,1.82-1.94,1.83-.94,0-1.89.02-2.83.03Z"/><path class="cls-5" d="m47.37,37.07c-.83,0-1.66,0-2.49,0-.71,0-1.12-.35-1.11-.92,0-.55.41-.89,1.08-.89,1.7,0,3.39,0,5.09,0,.67,0,1.07.34,1.08.89.01.57-.41.92-1.11.92-.85,0-1.7,0-2.55,0Z"/><path class="cls-8" d="m53.29,37.07c-.92,0-1.35-.28-1.36-.9,0-.62.43-.92,1.33-.92h.06c.9,0,1.34.3,1.33.92,0,.62-.43.9-1.36.9Z"/><path class="cls-3" d="m31.98,67.48c.26.04.29.28.37.46,1.26,2.69,2.8,5.21,4.64,7.54.52.66,1.1,1.28,1.66,1.92.13.15.33.26.35.5-2.23,0-4.46,0-6.69.03-.27,0-.35-.08-.35-.35.02-3.37.02-6.73.03-10.1Z"/><path class="cls-1" d="m52.85,48.86c.72,0,1.44.03,2.15,0,.44-.02.57.1.57.56-.02,2.78-.01,5.56-.01,8.34,0,3.52,0,7.03,0,10.55,0,.41-.08.55-.52.55-3.9-.02-7.79-.02-11.69,0-.44,0-.52-.14-.52-.55.01-6.3.01-12.59,0-18.89,0-.45.12-.58.57-.56.72.03,1.44,0,2.15,0h7.29Zm-7.28,6.08c.34-.6.78-.63,1.25-.63,1.49.01,2.99,0,4.48,0,.54,0,1.13-.13,1.53.63,0-1.1-.02-1.99,0-2.88,0-.38-.12-.48-.49-.48-2.1.01-4.2.01-6.3,0-.37,0-.5.11-.49.48.02.89,0,1.78,0,2.87h0Zm0,7.84c0,1.11,0,2.01,0,2.92,0,.26.05.43.37.42,2.17,0,4.35,0,6.52,0,.26,0,.38-.09.37-.36,0-.94,0-1.87,0-2.99-.34.6-.78.63-1.25.63-1.59-.01-3.18-.01-4.76,0-.47,0-.91-.03-1.25-.62h0Zm7.24-7.23c-.32.56-.75.59-1.22.59-1.55-.01-3.1-.02-4.65,0-.51,0-.99-.02-1.35-.51v2.9c.32-.56.75-.59,1.22-.59,1.55.01,3.1.02,4.65,0,.51,0,.99.02,1.35.51v-2.9Zm0,6.6v-2.97c-.31.55-.72.59-1.17.59-1.51-.01-3.02,0-4.53,0-.54,0-1.12.13-1.5-.58v2.95c.31-.51.72-.57,1.17-.56,1.6.01,3.21.01,4.81,0,.47,0,.9.03,1.22.57h0Z"/><path class="cls-7" d="m52.85,48.86h-7.29c0-1.06.02-2.11,0-3.17,0-.33.08-.46.44-.46,2.13.02,4.27.02,6.4,0,.36,0,.44.13.44.46-.01,1.06,0,2.11,0,3.17Z"/><path class="cls-6" d="m46.49,74.32q0,.88-.88.88t-.93-.94.88-.88.93.94Z"/><path class="cls-6" d="m49.19,75.2q-.89,0-.89-.87t.92-.95.89.87-.92.95Z"/><path class="cls-6" d="m52.88,73.38q.87,0,.87.89t-.95.92-.87-.89.95-.92Z"/><path class="cls-7" d="m45.58,54.94c0-1.09.02-1.98,0-2.87,0-.38.12-.49.49-.48,2.1.01,4.2.01,6.3,0,.37,0,.5.11.49.48-.02.89,0,1.78,0,2.88-.41-.75-.99-.63-1.53-.63-1.49,0-2.99,0-4.48,0-.47,0-.9.03-1.25.63Z"/><path class="cls-7" d="m45.58,62.77c.35.6.78.63,1.25.62,1.59-.01,3.18-.01,4.76,0,.47,0,.9-.03,1.25-.63,0,1.11,0,2.05,0,2.99,0,.27-.11.36-.37.36-2.17,0-4.35,0-6.52,0-.32,0-.37-.16-.37-.42,0-.91,0-1.81,0-2.92Z"/><path class="cls-7" d="m52.82,55.55v2.9c-.36-.48-.84-.51-1.35-.51-1.55.02-3.1.01-4.65,0-.47,0-.9.03-1.22.59v-2.9c.36.48.84.51,1.35.51,1.55-.02,3.1-.01,4.65,0,.47,0,.9-.03,1.22-.59Z"/><path class="cls-7" d="m52.81,62.15c-.32-.54-.75-.58-1.22-.57-1.6.01-3.21.01-4.81,0-.45,0-.86.06-1.17.56v-2.95c.38.7.96.57,1.5.58,1.51,0,3.02,0,4.53,0,.45,0,.87-.04,1.17-.59v2.97Z"/><path d="m13.17,39.79l-.57,2.64,8.01,1.72-.51,2.35-8.01-1.72-.57,2.64-2.26-.49,1.64-7.63,2.26.49Z"/><path d="m17.35,32.25l6.8,3.18-.95,2.04-.64-.3c.31.69.31,1.5-.12,2.41-.83,1.78-3.08,2.52-5.11,1.57-2.03-.95-2.9-3.15-2.07-4.93.43-.91,1.05-1.43,1.78-1.64l-.64-.3.95-2.04Zm2.45,3.63c-1.02-.48-1.98-.09-2.41.84-.44.94-.12,1.92.9,2.39,1.02.48,1.98.1,2.41-.84.44-.94.12-1.92-.9-2.39Z"/><path d="m27.19,26.08c1.68,1.48,1.9,3.83.61,5.31-.66.76-1.41,1.08-2.16,1.07l.53.47-1.49,1.69-7.88-6.94,1.48-1.69,2.79,2.45c-.1-.75.12-1.53.79-2.28,1.3-1.48,3.66-1.55,5.34-.08Zm-1.49,1.69c-.84-.74-1.87-.65-2.55.13s-.65,1.81.2,2.55c.85.74,1.87.65,2.55-.13.68-.78.65-1.81-.2-2.55Z"/><path d="m24.18,19.53l1.79-1.36,6.61,8.72-1.79,1.36-6.61-8.72Z"/><path d="m36.07,22.79c.55-.27.92-.72,1.04-1.15l2.07.13c-.21,1.24-.97,2.2-2.25,2.83-2.3,1.13-4.49.29-5.48-1.71-.99-2-.3-4.27,1.83-5.32,1.96-.97,4.17-.17,5.17,1.87.14.28.25.56.32.85l-4.78,2.36c.6.57,1.34.51,2.08.15Zm.03-3.06c-.6-.67-1.35-.66-1.95-.36-.77.38-1.09,1.01-.94,1.79l2.89-1.43Z"/><path d="m42.12,16.94l.64,2.57c.16.63.71.55,1.65.25l.49,1.98c-2.78,1-3.82.35-4.33-1.69l-.64-2.58-1.16.29-.52-2.1,1.16-.29-.34-1.38,2.02-1.2.51,2.04,1.5-.37.52,2.1-1.5.37Z"/><path d="m57.61,18.28c-.24,2.22-2.03,3.77-3.99,3.56-1-.11-1.7-.53-2.13-1.15l-.07.7-2.24-.24,1.12-10.44,2.24.24-.4,3.68c.55-.51,1.32-.78,2.32-.67,1.95.21,3.38,2.1,3.14,4.32Zm-2.24-.24c.12-1.12-.55-1.9-1.58-2.01-1.03-.11-1.85.51-1.97,1.63-.12,1.12.55,1.9,1.58,2.01,1.03.11,1.85-.51,1.97-1.63Z"/><path d="m67.73,18.09l-2.8,6.95-2.09-.84.26-.65c-.67.34-1.48.39-2.41.01-1.82-.73-2.68-2.94-1.85-5.01.84-2.07,2.98-3.07,4.8-2.33.93.38,1.49.97,1.73,1.68l.26-.65,2.09.84Zm-3.49,2.64c.42-1.04,0-1.98-.97-2.36-.96-.39-1.92-.01-2.34,1.03-.42,1.04.01,1.98.97,2.36.96.39,1.92.01,2.34-1.03Z"/><path d="m71.17,23.01l-1.53,2.17c-.37.53.04.9.89,1.42l-1.17,1.67c-2.57-1.45-2.76-2.66-1.55-4.38l1.53-2.17-.98-.69,1.24-1.77.98.69.82-1.16,2.23.74-1.21,1.72,1.26.89-1.24,1.77-1.26-.89Z"/><path d="m75.62,26.89l-1.87,1.89c-.45.46-.1.89.64,1.54l-1.43,1.45c-2.3-1.85-2.29-3.08-.81-4.58l1.87-1.89-.85-.84,1.52-1.54.85.84,1-1.01,2.08,1.1-1.48,1.49,1.1,1.09-1.52,1.54-1.1-1.09Z"/><path d="m77.04,34.35c.34.51.83.82,1.27.89l.12,2.07c-1.26-.05-2.3-.69-3.09-1.88-1.41-2.14-.84-4.42,1.03-5.65s4.2-.82,5.5,1.16c1.2,1.83.68,4.11-1.22,5.36-.26.17-.53.31-.8.42l-2.93-4.45c-.5.67-.34,1.39.11,2.08Zm3.04-.35c.59-.68.49-1.42.12-1.98-.47-.71-1.13-.96-1.89-.71l1.77,2.69Z"/><path d="m86.43,40.58l-2.38.91c-.19-.92-1.02-2.02-2.4-1.49l-3.17,1.21-.8-2.1,7.01-2.68.8,2.1-1.25.48c1.05-.08,1.86.69,2.19,1.57Z"/><path d="m88.02,49.85l-7.58-1.42c-2.49-.46-3.62-1.64-3.84-3.73l2.08-.32c.16,1.04.56,1.48,1.52,1.66l6.61-4.05.38,2.45-4.28,2.35,4.75.69.37,2.37Z"/></svg>