<?xml version="1.0" encoding="UTF-8"?><svg id="Layer_1" xmlns="http://www.w3.org/2000/svg" viewBox="0 0 100 100"><defs><style>.cls-1{fill:#90b9e0;}.cls-2{fill:none;stroke:#0018c6;stroke-miterlimit:10;stroke-width:4px;}.cls-3{fill:#364a5f;}.cls-4{fill:#90bae0;}.cls-5{fill:#afd2ef;}.cls-6{fill:#fcd6ac;}.cls-7{fill:#4582c2;}.cls-8{fill:#607890;}.cls-9{fill:#cbb293;}.cls-10{fill:#374b60;}.cls-11{fill:#fcd6ad;}.cls-12{fill:#fde6cd;}.cls-13{fill:#cbb292;}.cls-14{fill:#fefefe;}.cls-15{fill:#e2c8aa;}</style></defs><circle class="cls-2" cx="50" cy="50" r="45"/><path class="cls-6" d="m77,77.31v.8c-.21.54-.53,1-1.01,1.33-3.2,2.22-6.4,4.43-9.61,6.64-.92.63-2.08.39-2.73-.52-.35-.49-.71-.97-1-1.49-.73-1.35-1.75-1.93-3.34-1.77-2,.2-3.52-.77-4.61-2.42-.86-1.29-1.7-2.58-2.56-3.87-.11-.16-.18-.37-.4-.43,0-.22-.13-.37-.24-.54-.69-1.05-1.4-2.09-2.07-3.16-.87-1.4-.93-3.45.81-4.56.46-.29.87-.67,1.3-1,.21.03.29.2.4.35.97,1.43,1.95,2.86,2.92,4.28.8,1.18,1.59,2.37,2.4,3.55.3.44.88.58,1.27.33.42-.27.5-.84.2-1.33-.07-.11-.15-.22-.22-.33-3.16-4.62-6.32-9.25-9.48-13.87-2.04-2.99-4.08-5.99-6.12-8.98-.42-.61-.74-1.25-.71-2.03.01-.33.26-.62.12-.96,0-.06,0-.11,0-.17,1.12-.54,2.48-.19,3.23.85.63.88,1.24,1.76,1.86,2.65,1.16,1.7,2.31,3.41,3.48,5.1.39.57.72,1.19,1.22,1.68h0c0,.09.04.16.11.22.23.44.56.81.87,1.19.29.34.76.33,1.11.05.4-.33.45-.81.09-1.33-.52-.75-.89-1.54-.8-2.49.02-.25.28-.47.11-.75,1.22-.54,2.4-.25,3.23.78.23.29.38.66.73.86.25.53.53,1.04.9,1.49.28.33.85.41,1.17.19.35-.24.48-.75.27-1.16-.13-.25-.29-.48-.46-.71-.55-.76-.65-1.61-.5-2.51.03-.15.09-.29-.05-.41.86-.47,1.7-.4,2.53.06.68.38,1,1.07,1.47,1.64h0s.1.1.1.1c.27.5.53,1,.95,1.4.33.31.71.27,1.06.08.34-.19.42-.54.36-.91-.04-.25-.18-.47-.34-.66-.58-.72-.81-1.55-.73-2.47.02-.26.07-.53.1-.79,1.23-.49,2.58-.1,3.34,1.01,1.88,2.76,3.78,5.52,5.6,8.32,1.5,2.31,2.33,4.88,2.65,7.61.23,1.92.28,3.85.19,5.77-.06,1.21.2,2.3.82,3.33Zm-2.9-.15c0-.31-.19-.55-.47-.73-.35-.22-.68-.11-.98.09-1.01.67-2.01,1.35-3.01,2.03-.48.33-.57.84-.27,1.25.32.44.79.53,1.27.21,1.01-.67,2.01-1.35,3.01-2.03.27-.19.46-.43.46-.82h0Zm-6.09,4.18c0-.69-.64-1.12-1.24-.82-.31.16-.6.35-.88.56-.33.26-.4.85-.17,1.18.3.42.79.53,1.21.25.29-.19.59-.36.84-.62.16-.17.26-.34.23-.55Z"/><path class="cls-5" d="m32.03,50.85c0-4.27.03-8.54-.01-12.81-.01-1.25.87-2.46,2.05-2.7.06-.01.11-.06.17-.09h2.7s-.04,0-.05.01c0,0,0,.01,0,.02.4.49.47,1.05.46,1.66-.02,1.12.69,1.87,1.81,1.88,2.3.02,4.59.02,6.89,0,1.15,0,1.87-.75,1.86-1.9,0-.63.02-1.22.52-1.67h2.6c.65.25,1.28.52,1.68,1.13.15.23.32.46.32.76-.78.73-1.57,1.46-2.31,2.24-1.31,1.38-2.55,2.83-3.74,4.31-.25.31-.4.75-.86.85-1.12-.97-2.43-1.38-3.91-1.32-2.46.11-4.79,2.44-4.87,4.91-.08,2.4,1,4.1,3.09,5.2-.43.84-.87,1.67-1.3,2.51-.97,1.91-1.88,3.85-2.72,5.82-1.19,2.8-2.19,5.67-3.07,8.58-.39,1.29-.74,2.58-1.11,3.87-.25-.36-.19-.76-.19-1.16,0-3.48,0-6.96,0-10.44.14-.28.28-.56.41-.85.68-1.57,1.06-3.23,1.27-4.9.28-2.19.1-4.3-1.67-5.93Z"/><path class="cls-3" d="m48.42,35.24c-.5.46-.53,1.04-.52,1.67.01,1.15-.72,1.89-1.86,1.9-2.3.02-4.59.02-6.89,0-1.12-.01-1.84-.75-1.81-1.88.01-.61-.06-1.17-.46-1.66.15.09.32.07.49.07,3.46,0,6.92,0,10.38,0,.16,0,.34.05.47-.1h.2Z"/><path class="cls-8" d="m48.22,35.24c-.13.15-.31.1-.47.1-3.46,0-6.92,0-10.38,0-.17,0-.33.02-.49-.07,0-.03.02-.04.05-.03h11.29Z"/><path class="cls-1" d="m32.23,74.13c.37-1.29.72-2.59,1.11-3.87.87-2.91,1.88-5.78,3.07-8.58.84-1.97,1.74-3.91,2.72-5.82.43-.84.87-1.68,1.3-2.51.18.07.36.15.55.2.67.18,1.35.4,2.06.19.08.1.17.21.24.31,2.4,3.53,4.8,7.06,7.2,10.59.37.55.81,1.05,1.07,1.67-.43.34-.84.71-1.3,1-1.74,1.11-1.68,3.16-.81,4.56.66,1.07,1.38,2.11,2.07,3.16.11.17.24.32.24.54-.67.36-1.41.2-2.12.29-.21-.01-.43-.03-.64-.03-4.72,0-9.44,0-14.16,0-1.29,0-2.17-.59-2.6-1.7Zm10.37-.92c1.1,0,2.2,0,3.3,0,.7,0,1.11-.33,1.12-.87s-.41-.9-1.09-.91c-2.21,0-4.43,0-6.64,0-.66,0-1.05.34-1.06.88,0,.57.38.9,1.08.9,1.1,0,2.2,0,3.3,0h0Z"/><path class="cls-4" d="m46.11,44.55c.46-.1.61-.54.86-.85,1.19-1.48,2.42-2.93,3.74-4.31.74-.78,1.53-1.51,2.31-2.24.18.37.19.77.19,1.17v16.17c-.47.44-.89.92-1.04,1.58-.11.46-.02.92-.05,1.38-.51-.49-.83-1.11-1.22-1.68-1.17-1.69-2.32-3.4-3.48-5.1.34-.61.48-1.27.49-1.95.04-1.65-.6-3.02-1.8-4.15Z"/><path class="cls-7" d="m46.11,44.55c1.2,1.12,1.84,2.49,1.8,4.15-.02.68-.15,1.35-.49,1.95-.62-.88-1.23-1.77-1.86-2.65-.75-1.04-2.11-1.39-3.23-.85-.25.09-.53.15-.61.47h0c-.08-.01-.13.01-.1.11h0c-.09-.02-.13,0-.1.1h0c-.1-.03-.13,0-.1.1h0c-.52.34-.78,1.24-.59,2,.01.46.22.85.47,1.23.58.86,1.16,1.72,1.73,2.58-.71.21-1.38-.02-2.06-.19-.19-.05-.37-.14-.55-.2-2.09-1.1-3.17-2.8-3.09-5.2.08-2.47,2.41-4.79,4.87-4.91,1.49-.07,2.79.34,3.91,1.32Z"/><path class="cls-13" d="m43.04,53.73c-.58-.86-1.16-1.72-1.73-2.58-.25-.37-.46-.76-.47-1.23.09-.7.22-1.39.59-2h0s.1-.1.1-.1h0s.1-.1.1-.1h0s.1-.1.1-.1h0c.25-.01.4-.23.62-.31.13.34-.11.63-.12.96-.03.79.29,1.42.71,2.03,2.04,3,4.08,5.99,6.12,8.98,3.16,4.63,6.32,9.25,9.48,13.87.08.11.15.22.22.33.3.49.22,1.06-.2,1.33-.38.25-.96.11-1.27-.33-.81-1.18-1.6-2.37-2.4-3.55-.97-1.43-1.95-2.85-2.92-4.28-.1-.15-.19-.32-.4-.35-.26-.62-.7-1.12-1.07-1.67-2.4-3.53-4.8-7.06-7.2-10.59-.07-.11-.16-.21-.24-.31Z"/><path class="cls-12" d="m74.1,77.16c0,.39-.18.63-.46.82-1,.68-2,1.36-3.01,2.03-.48.32-.95.23-1.27-.21-.3-.42-.21-.92.27-1.25,1-.69,2-1.37,3.01-2.03.3-.2.63-.31.98-.09.28.18.46.42.47.73Z"/><path class="cls-9" d="m62.92,54.53c-.12-.76-.13-1.5.29-2.2.29-.48.68-.84,1.2-1.05-.03.26-.07.52-.1.79-.08.92.15,1.74.73,2.47.16.19.3.41.34.66.06.37-.02.72-.36.91-.35.19-.73.23-1.06-.08-.41-.4-.68-.9-.95-1.4l-.1-.1h0Z"/><path class="cls-9" d="m57.58,55.95c-.29-1.45.16-2.5,1.34-3.12.14.12.08.26.05.41-.16.9-.05,1.75.5,2.51.16.23.33.46.46.71.21.41.08.92-.27,1.16-.32.22-.89.14-1.17-.19-.38-.45-.66-.96-.9-1.49Z"/><path class="cls-13" d="m52.12,57.43c.03-.46-.06-.92.05-1.38.15-.66.57-1.13,1.04-1.58.13-.05.27-.11.4-.16.16.27-.09.49-.11.75-.09.96.28,1.74.8,2.49.36.52.31,1-.09,1.33-.35.29-.83.29-1.11-.05-.31-.38-.65-.75-.87-1.19-.01-.09,0-.18-.11-.22h0Z"/><path class="cls-12" d="m68.01,81.35c.03.21-.07.38-.23.55-.25.26-.55.43-.84.62-.42.28-.91.17-1.21-.25-.23-.32-.17-.92.17-1.18.27-.21.57-.4.88-.56.59-.3,1.24.12,1.24.82Z"/><path class="cls-15" d="m42.34,47.32c-.22.08-.37.29-.62.3.08-.32.36-.38.61-.47,0,.06,0,.11,0,.17Z"/><path class="cls-4" d="m52.12,57.42c.1.04.09.14.11.22-.07-.06-.12-.13-.11-.22Z"/><path class="cls-14" d="m62.91,54.52l.1.1-.1-.1Z"/><path class="cls-11" d="m32.23,74.13c.43,1.11,1.31,1.7,2.6,1.7,4.72,0,9.44,0,14.16,0,.21,0,.43.02.64.03-.92,1.49-2.31,2.45-3.75,3.37-.17.11-.34.22-.51.31-.76.41-1.03,1.09-1.03,1.91,0,1.03-.03,2.07,0,3.1.04,1.04-.83,1.89-1.87,1.87-3.44-.05-6.89-.02-10.33-.02-1.2,0-1.88-.69-1.9-1.89-.02-1.01.09-2.03-.06-3.04-.15-1.03-.71-1.89-1.26-2.74-.67-1.05-1.33-2.11-2.06-3.13-.71-1-.96-2.13-.99-3.29-.07-2.31.17-4.61.23-6.92.03-1.09,0-2.19-.06-3.29-.09-1.51.18-2.95.84-4.31.89-1.85,1.3-3.83,1.58-5.84.17-1.22,1.1-1.9,2.2-1.62,1.03,1.12,1.31,2.5,1.38,3.95.07,1.36-.28,2.66-.56,3.97-.28,1.27-.71,2.49-1.31,3.64-.26.5-.08,1.03.39,1.28.49.26.97.13,1.29-.36.06-.1.13-.19.19-.29,0,3.48,0,6.96,0,10.44,0,.4-.05.8.19,1.16Zm7.32,7.88c-.4,0-.8-.01-1.2,0-.6.02-1,.38-1.01.88s.39.89.99.9c.8.02,1.6.02,2.39,0,.6-.01,1-.38,1.01-.88,0-.52-.4-.89-1.04-.91-.38-.01-.76,0-1.15,0Zm-5.28,1.8c.21.01.47,0,.73-.1.42-.18.63-.58.52-1-.11-.42-.49-.68-1.04-.69-.59-.02-1.18-.05-1.51.59-.03.06-.02.13-.03.2-.05.68.36,1.01,1.33,1.01h0Z"/><path class="cls-13" d="m32.03,62.53c-.06.1-.13.19-.19.29-.32.49-.8.62-1.29.36-.47-.25-.65-.78-.39-1.28.6-1.16,1.04-2.37,1.31-3.64.29-1.31.63-2.61.56-3.97-.08-1.44-.35-2.83-1.38-3.95.53-.02.92.34,1.38.51,1.78,1.63,1.95,3.74,1.67,5.93-.21,1.68-.59,3.34-1.27,4.9-.13.29-.27.57-.41.85Z"/><path class="cls-10" d="m42.6,73.21c-1.1,0-2.2,0-3.3,0-.7,0-1.09-.34-1.08-.9,0-.54.4-.87,1.06-.88,2.21,0,4.43,0,6.64,0,.68,0,1.1.37,1.09.91s-.43.87-1.12.87c-1.1,0-2.2,0-3.3,0Z"/><path class="cls-15" d="m41.42,47.92c-.37.62-.5,1.3-.59,2-.19-.76.07-1.65.59-2Z"/><path class="cls-15" d="m41.73,47.63l-.1.1c-.02-.09.02-.12.1-.1Z"/><path class="cls-15" d="m41.63,47.72l-.1.1c-.03-.1.01-.12.1-.1Z"/><path class="cls-15" d="m41.53,47.82l-.1.1c-.02-.09,0-.13.1-.1Z"/><path class="cls-12" d="m39.54,82.01c.38,0,.76-.01,1.15,0,.63.02,1.05.39,1.04.91,0,.5-.41.87-1.01.88-.8.02-1.6.02-2.39,0-.6-.02-.99-.4-.99-.9s.41-.86,1.01-.88c.4-.02.8,0,1.2,0Z"/><path class="cls-12" d="m34.27,83.8c-.97,0-1.38-.33-1.33-1.01,0-.07,0-.14.03-.2.33-.64.93-.61,1.51-.59.55.02.93.28,1.04.69.11.43-.1.82-.52,1-.25.11-.52.11-.73.1Z"/><path d="m14.54,35.77l-.84,2.57,7.79,2.53-.74,2.28-7.79-2.54-.84,2.57-2.2-.72,2.41-7.42,2.2.71Z"/><path d="m18.56,37.58c-1.92-1.13-2.51-3.54-1.39-5.43,1.12-1.9,3.5-2.55,5.43-1.42,1.93,1.13,2.51,3.54,1.39,5.43-1.12,1.9-3.5,2.55-5.43,1.42Zm2.89-4.91c-.92-.54-1.91-.25-2.4.59-.49.84-.27,1.84.65,2.38.92.54,1.9.25,2.4-.59s.27-1.84-.65-2.38Z"/><path d="m26.14,21.85l5.22,5.38-1.62,1.57-.49-.51c.1.68-.19,1.46-.9,2.15-1.09,1.05-2.76,1.18-4.17-.28l-3.2-3.3,1.61-1.57,2.98,3.07c.65.67,1.37.57,1.89.07.59-.57.67-1.32-.08-2.08l-2.85-2.94,1.61-1.57Z"/><path d="m30.02,23.58c-1.11-1.94-.49-4.28,1.49-5.41,1.26-.72,2.76-.7,3.89-.01l-1.14,1.96c-.48-.33-1.11-.34-1.68,0-.85.48-1.12,1.45-.61,2.35.51.9,1.49,1.15,2.33.67.57-.33.9-.88.85-1.45h2.26c.02,1.34-.71,2.63-1.98,3.36-1.98,1.13-4.31.47-5.41-1.47Z"/><path d="m44.29,16.77l1.22,4.44-2.17.59-1.13-4.12c-.25-.9-.93-1.16-1.62-.97-.8.22-1.22.83-.94,1.86l1.08,3.95-2.17.59-2.77-10.13,2.17-.59.98,3.58c.24-.64.87-1.19,1.83-1.45,1.46-.4,2.99.3,3.53,2.26Z"/><path d="m58.77,11.38l-1.29,10.42-2.23-.28.09-.7c-.56.51-1.33.76-2.33.63-1.95-.24-3.35-2.15-3.07-4.37.27-2.22,2.09-3.73,4.04-3.49,1,.12,1.69.56,2.11,1.18l.45-3.68,2.24.28Zm-3.06,6.43c.14-1.12-.52-1.91-1.55-2.04-1.03-.13-1.86.48-2,1.6-.14,1.12.52,1.91,1.55,2.04s1.86-.48,2-1.6Z"/><path d="m60.89,15.2l2.13.71-2.37,7.12-2.13-.71,2.37-7.12Zm.42-1.98c.23-.7,1.01-1.09,1.71-.85s1.09,1.01.85,1.71c-.23.7-1.01,1.09-1.71.85s-1.09-1.01-.85-1.71Z"/><path d="m67.96,24.09c-.81,1.52-2.47,1.48-3.91.72-1.33-.7-2.07-1.73-2.02-3.08l2.24-.07c-.09.59.13,1.07.71,1.38.48.25.79.23.93-.03.38-.73-3.08-2.07-1.87-4.36.76-1.45,2.37-1.53,3.75-.8,1.08.57,1.78,1.55,1.84,2.78l-2.18.02c0-.44-.14-.82-.58-1.05-.34-.18-.63-.16-.75.08-.4.76,3.13,1.97,1.84,4.43Z"/><path d="m75.96,28.98c-1.5,1.66-3.86,1.85-5.31.53-.75-.67-1.06-1.42-1.04-2.18l-2.48,2.75-1.67-1.51,7.04-7.79,1.67,1.51-.47.52c.75-.09,1.53.15,2.27.82,1.46,1.32,1.5,3.68,0,5.34Zm-1.67-1.51c.75-.83.67-1.86-.1-2.55-.77-.69-1.8-.67-2.55.16s-.67,1.86.1,2.55c.77.69,1.8.67,2.55-.16Z"/><path d="m82.53,26.04l1.33,1.81-8.81,6.49-1.33-1.81,8.81-6.49Z"/><path d="m85.92,39.01l-6.8,3.16-.95-2.04.64-.3c-.73-.21-1.35-.73-1.77-1.64-.83-1.78.05-3.98,2.08-4.92,2.03-.94,4.27-.2,5.1,1.58.42.91.42,1.72.11,2.41l.64-.3.95,2.04Zm-4.35-.46c1.02-.47,1.34-1.45.91-2.39-.44-.94-1.39-1.32-2.41-.85-1.02.47-1.34,1.45-.91,2.39.44.94,1.39,1.32,2.41.85Z"/><path d="m87.95,48.91l-7.61-1.28c-2.49-.42-3.65-1.57-3.91-3.66l2.07-.36c.18,1.03.59,1.47,1.55,1.63l6.54-4.16.42,2.44-4.24,2.43,4.76.6.41,2.36Z"/></svg>