<?xml version="1.0" encoding="UTF-8"?><svg id="Layer_1" xmlns="http://www.w3.org/2000/svg" viewBox="0 0 100 100"><defs><style>.cls-1{fill:#375e7d;}.cls-2{fill:none;stroke:#a5262d;stroke-miterlimit:10;stroke-width:4px;}.cls-3{fill:#2b4d66;}.cls-4{fill:#2b4e68;}.cls-5{fill:#d0cde6;}.cls-6{fill:#2b506b;}.cls-7{fill:#e5e4ec;}.cls-8{fill:#22a5fc;}.cls-9{fill:#395f7e;}.cls-10{fill:#0693fb;}.cls-11{fill:#f8f6f7;}.cls-12{fill:#d0cde7;}.cls-13{fill:#dcd9ea;}.cls-14{fill:#2c4d66;}</style></defs><circle class="cls-2" cx="50" cy="50" r="45"/><path class="cls-14" d="m75.99,70.25c-.25.94-.66,1.83-1.22,2.63-1.1,1.5-2.85,2.39-4.71,2.4h-5.39c-.86,0-1.03-.17-1.03-1.06v-.45c0-.43,0-.87.05-1.31,1.92-.07,3.85.13,5.75-.12,1-.03,1.93-.5,2.56-1.28.85-1.26,1.27-2.76,1.2-4.27l.11-.05h2.7v3.52Z"/><path class="cls-5" d="m75.99,66.77h-2.7v-15.31s0-.05,0-.07c.9.05,1.8.05,2.7,0v15.38Z"/><path class="cls-14" d="m75.99,51.39c-.9.05-1.8.05-2.7,0,0-.89.04-1.79,0-2.68-.07-1.8-.95-3.46-2.39-4.54-.79-.52-1.64-.93-2.54-1.21,1.81-.11,3.59-.05,5.13,1.12,1.28.91,2.14,2.29,2.41,3.83,0,.04.07.07.11.11v3.37Z"/><path class="cls-7" d="m26.14,61.61h-4.66c-1.13.13-2.22-.44-2.75-1.44-.04-.08-.13-.13-.22-.13v-1.58l.11-.11c.49.86,1.45,1.35,2.43,1.24h5.09c.22.28.11.6.1.9s-.18.52,0,.78c0,.12.03.25-.09.34Z"/><path class="cls-8" d="m38.5,44.56c.66-.14,1.31,0,2.01-.07h9.2c.97.1,1.95.1,2.93,0h7.53v23.59c.1.68-.27,1.33-.89,1.61,0-.92-.26-1.2-1.19-1.2h-14.16c-.78,0-1.11.42-1.03,1.19h-4.42c.01-8.38.02-16.75.03-25.12Zm12.62,13.69h-6.9c-.91,0-1.37.31-1.31.9s.49.87,1.31.87h13.73c.22,0,.44-.02.66-.06.44-.07.73-.48.66-.92,0,0,0-.01,0-.02-.02-.41-.34-.75-.75-.78-.17-.02-.33-.02-.5,0h-6.9Zm0-8.55h7.11c.7,0,1.02-.27,1.03-.83s-.35-.87-1.05-.87h-14.19c-.34-.06-.69.06-.92.31-.22.24-.27.59-.13.89.15.35.52.56.91.51h7.24Zm-.06,5.15h7.23c.36.04.7-.13.89-.43.16-.29.13-.64-.07-.9-.23-.34-.59-.34-.95-.34h-14.14c-.17-.02-.33-.02-.5,0-.45.12-.71.57-.6,1.02,0,0,0,.02,0,.03.13.44.55.71,1,.66l7.13-.03Zm0,10.23h7.09c.24.04.49,0,.71-.11.34-.18.51-.58.41-.95-.12-.41-.52-.68-.95-.62h-14.36c-.4-.06-.79.15-.96.51-.28.66.15,1.19.93,1.19,2.36.01,4.75,0,7.15,0l-.02-.02Z"/><path class="cls-1" d="m68.35,42.96c.9.28,1.76.69,2.54,1.21,1.44,1.07,2.32,2.74,2.39,4.54.05.89,0,1.79,0,2.68,0,.02,0,.05,0,.07-.63-.08-1.27-.08-1.9,0-.67.04-1.18.61-1.14,1.28,0,.01,0,.03,0,.04v12.77c-.06.67.44,1.26,1.11,1.31.07,0,.14,0,.21,0h1.62c.07,1.52-.35,3.02-1.2,4.27-.63.78-1.56,1.24-2.56,1.28-1.91.26-3.83.06-5.75.12v-28.06c0-1.66.29-1.5,1.55-1.49l3.12-.03Z"/><path class="cls-10" d="m63.63,44.44v28.06c0,.43-.03.87-.05,1.31h-5.48c0-.07-.03-.09-.1-.08h-2.16c-.78-.05-1.55-.02-2.33.07h-10.41c-.18-.14-.39-.07-.59-.07h-3.46c-.2,0-.43.07-.51-.21v-3.83h4.35c.2.42.65.65,1.11.58h14.11c.47.06.93-.17,1.16-.59.62-.27.98-.93.89-1.6v-23.59c1.14-.11,2.3-.02,3.46-.05Z"/><path class="cls-1" d="m38.5,44.56c0,8.39,0,16.77,0,25.16-.41.04-.82.04-1.23,0-2.17-.4-4.09-1.66-5.3-3.51-.61-1-1.02-2.09-1.23-3.24l-.05-.57v-9.2c-.11-.94-.03-1.89.26-2.79.83-3.45,4.21-6.07,7.55-5.84Z"/><path class="cls-9" d="m40.5,36.91h-.84c-.56.07-1.06-.33-1.13-.88,0-.07,0-.14,0-.22v-2.24c0-.97.31-1.31,1.27-1.31h11.04c.46.51.66,1.2.55,1.88-.03.31-.03.63,0,.94.13.66-.08,1.34-.57,1.81h-.34l-9.99.03Z"/><path class="cls-12" d="m40.5,36.91h10.33l1.8.03v7.53c-.97.1-1.95.1-2.93,0v-2.98c0-.2.06-.42-.18-.54v-.41c.37-.74.22-1.03-.57-1.03h-8.44l-.02-2.61Z"/><path class="cls-13" d="m49.53,40.92c.24.12.18.34.18.54v2.98h-9.2v-4.97h8.49c.79,0,.94.28.57,1.03-.32-.66-.74-.84-1.23-.61-.43.18-.63.68-.45,1.11.1.25.32.43.58.49.45.13.93-.12,1.06-.57Zm-5.09-1.1c-.47,0-.84.38-.86.84,0,.49.4.88.89.88.48,0,.86-.39.86-.86s-.39-.86-.86-.86h-.03Z"/><path class="cls-13" d="m30.71,53.18c0,3.07,0,6.14,0,9.2h-2.24c-.73.05-1.44-.27-1.89-.85-.09-.11-.14-.28-.33-.27-.19-.26,0-.52,0-.78s.12-.62-.1-.9v-2.91c0-.61.03-1.23.1-1.83.09-.95.9-1.67,1.85-1.65h2.6Z"/><path class="cls-11" d="m26.13,56.66v2.92h-5.09c-.98.12-1.94-.37-2.43-1.22.43-1.1,1.52-1.79,2.7-1.7,1.61.03,3.22,0,4.83,0Z"/><path class="cls-14" d="m52.64,36.92l-1.8-.03c.48-.47.69-1.15.55-1.81-.03-.31-.03-.63,0-.94.12-.68-.09-1.38-.56-1.89.89,0,1.79-.03,2.68,0,.58-.04,1.08.39,1.12.97,0,.07,0,.15,0,.22v2.18c0,.93-.35,1.31-1.28,1.31l-.71-.02Z"/><path class="cls-13" d="m58.13,80.71h1.47c.57.62.81,1.46.66,2.29-.03.31-.03.63,0,.95,0,.43-.18.85-.51,1.14-.1.1-.28.13-.28.32-8.49-.22-16.99-.09-25.5-.09-.99,0-1.65-.61-1.56-1.55.07-.57,0-1.16,0-1.74-.03-.7.52-1.29,1.22-1.31.03,0,.06,0,.09,0h24.41Z"/><path class="cls-14" d="m30.75,62.96c.21,1.13.62,2.21,1.22,3.19,1.21,1.85,3.13,3.11,5.3,3.51.41.04.82.04,1.23,0h.08v3.83l-.06.27c-3.63-.04-6.76-2.55-7.59-6.09-.13-.87-.2-1.75-.2-2.63l.02-2.08Z"/><path class="cls-4" d="m38.49,73.8l.06-.27c.08.28.31.21.51.21h3.46c.2,0,.41-.07.59.07,0,2.3,0,4.59,0,6.88h-2.14c-.04-1.38,0-2.75.1-4.13.09-.6-.14-.8-.76-.8h-1.74c-.06-.65-.09-1.31-.08-1.97Z"/><path class="cls-3" d="m58.13,80.71h-2.02v-4.3c0-.45-.18-.66-.66-.66h-1.9l-.05-1.97c.77-.09,1.55-.11,2.33-.07h2.16l.1.08h0c.03,2.31.04,4.62.04,6.92Z"/><path class="cls-5" d="m59.49,85.39c0-.19.18-.22.28-.32.33-.29.51-.7.51-1.14-.03-.31-.03-.63,0-.95.15-.82-.09-1.67-.66-2.29h3.24c.75-.06,1.41.51,1.47,1.26,0,.07,0,.14,0,.21v1.56c.12.8-.42,1.54-1.22,1.66-.14.02-.27.02-.41,0-1.08,0-2.14-.01-3.2-.01Z"/><path class="cls-5" d="m30.75,62.96l-.05,2.14c-.8,0-1.61-.07-2.41,0-1.12.07-2.08-.78-2.16-1.9,0-.08,0-.16,0-.24v-1.31c.12-.09.1-.22.11-.34.18,0,.24.16.33.27.45.58,1.16.9,1.89.85h2.24l.05.53Z"/><path class="cls-1" d="m38.56,75.74h1.74c.62,0,.85.19.76.8-.11,1.39-.14,2.78-.1,4.17h-2.42l.02-4.97Z"/><path class="cls-13" d="m73.18,66.83h-1.62c-.67.06-1.26-.44-1.31-1.11,0-.07,0-.14,0-.21v-12.77c-.06-.67.43-1.25,1.1-1.31.01,0,.03,0,.04,0,.63-.08,1.27-.08,1.9,0,0,5.1,0,10.2,0,15.31l-.1.09Z"/><path class="cls-6" d="m59.28,69.69c-.23.4-.67.62-1.12.57h-14.11c-.46.07-.91-.16-1.11-.58-.09-.77.24-1.17,1.03-1.19h14.11c.93,0,1.2.28,1.2,1.2Z"/><path class="cls-6" d="m51.12,58.25h6.9c.17-.02.33-.02.5,0,.41.03.73.36.76.77.07.43-.23.84-.66.91-.22.04-.44.06-.66.06h-13.75c-.84,0-1.31-.31-1.31-.87s.44-.9,1.31-.9l6.91.03Z"/><path class="cls-3" d="m51.12,49.72h-7.23c-.38.05-.75-.16-.91-.51-.14-.3-.09-.64.13-.89.23-.25.58-.37.92-.31h14.19c.7,0,1.06.31,1.05.87s-.34.83-1.03.83h-7.12Z"/><path class="cls-3" d="m51.06,54.87h-7.13c-.45.06-.87-.22-1-.66-.13-.44.12-.91.56-1.04,0,0,.02,0,.03,0,.17-.02.33-.02.5,0h14.14c.36,0,.72,0,.95.34.2.26.22.61.07.9-.17.32-.52.51-.89.47h-7.24Z"/><path class="cls-3" d="m51.09,65.1h-7.18c-.78,0-1.21-.55-.93-1.19.17-.37.56-.58.96-.51h14.36c.44-.07.86.19.98.62.12.37-.04.78-.38.97-.22.11-.47.15-.71.11h-7.1Z"/><path class="cls-9" d="m58.12,73.84l-.1-.08c.07-.01.1.01.1.08Z"/><path class="cls-6" d="m49.53,40.92c-.13.45-.61.72-1.06.59-.46-.11-.73-.57-.62-1.02.06-.26.25-.47.49-.58.49-.23.91,0,1.23.61l-.03.41Z"/><path class="cls-6" d="m44.44,39.82c.48,0,.86.38.86.86,0,.48-.38.86-.86.86h0c-.49,0-.88-.39-.89-.88.02-.48.41-.85.89-.84Z"/><path class="cls-9" d="m53.57,80.71v-4.93h1.9c.45,0,.66.2.66.66v4.3l-2.56-.03Z"/><path d="m9.6,48.24l.4-2.42,7.47-.97-6.76-3.32.4-2.42,9.15,4.75-.47,2.82-10.19,1.55Z"/><path d="m12.73,37.87c-.64-.24-.98-.98-.75-1.62.24-.64.98-.98,1.62-.75.64.24.98.98.75,1.62-.24.64-.97.98-1.62.75Zm1.83.45l.73-1.97,6.57,2.42-.73,1.97-6.57-2.42Z"/><path d="m23.01,29.43c1.79,1.08,2.38,3.2,1.44,4.77-.48.8-1.11,1.22-1.81,1.35l.56.34-1.08,1.8-8.39-5.06,1.08-1.8,2.96,1.79c-.22-.67-.14-1.42.35-2.23.95-1.57,3.11-2.03,4.89-.96Zm-1.09,1.8c-.9-.54-1.82-.28-2.32.54-.5.83-.3,1.77.6,2.31.9.54,1.82.28,2.32-.54.5-.83.3-1.77-.6-2.31Z"/><path d="m24.27,22.87l1.74,1.63c-.7.54-1.29,1.68-.27,2.62l2.31,2.17-1.44,1.53-5.11-4.79,1.44-1.53.91.85c-.49-.85-.18-1.84.43-2.48Z"/><path d="m31.48,17.61l4.02,5.73-1.72,1.21-.38-.54c-.07.7-.45,1.36-1.22,1.9-1.5,1.05-3.66.61-4.86-1.1-1.2-1.71-.89-3.89.62-4.95.77-.54,1.51-.67,2.2-.5l-.38-.54,1.72-1.21Zm.29,4.07c-.6-.86-1.55-1-2.34-.44-.79.55-.99,1.5-.38,2.35.6.86,1.55,1,2.34.44.79-.56.99-1.5.38-2.35Z"/><path d="m37.03,17.37l.96,2.29c.23.56.73.41,1.56,0l.73,1.76c-2.43,1.32-3.48.86-4.24-.95l-.96-2.29-1.03.43-.78-1.86,1.03-.43-.51-1.23,1.69-1.39.76,1.81,1.33-.56.78,1.86-1.33.56Z"/><path d="m38.63,12.69c-.18-.66.23-1.37.89-1.54.66-.18,1.37.23,1.54.89.18.66-.23,1.37-.89,1.54-.66.18-1.37-.23-1.54-.89Zm.69,1.76l2.03-.54,1.81,6.77-2.03.54-1.81-6.77Z"/><path d="m43.62,16.81c-.16-2.08,1.36-3.81,3.41-3.97,2.05-.16,3.83,1.32,3.99,3.4.16,2.08-1.36,3.81-3.41,3.97-2.05.16-3.82-1.32-3.99-3.4Zm5.3-.41c-.08-.99-.83-1.59-1.73-1.52-.91.07-1.56.78-1.48,1.77.08.99.83,1.59,1.73,1.52.91-.07,1.55-.78,1.48-1.77Z"/><path d="m59.26,16.71l-.73,4.24-2.07-.36.68-3.93c.15-.86-.32-1.35-.99-1.46-.76-.13-1.36.22-1.53,1.2l-.65,3.77-2.07-.36,1.19-6.9,2.07.36-.11.65c.46-.45,1.21-.66,2.12-.5,1.39.24,2.41,1.44,2.09,3.3Z"/><path d="m61.49,16.54l4.89,2.09-.79,1.85-4.89-2.09.79-1.85Z"/><path d="m76.17,26.99l-2.75,3.31-1.62-1.34,2.63-3.17c.45-.54.47-1.1-.04-1.53-.54-.45-1.15-.32-1.68.31l-2.52,3.04-1.62-1.34,2.63-3.17c.45-.54.47-1.1-.04-1.53-.54-.45-1.15-.32-1.68.31l-2.52,3.04-1.62-1.34,4.47-5.39,1.62,1.34-.41.5c.55-.16,1.26-.05,1.98.55.64.53.9,1.18.82,1.88.66-.18,1.39-.05,2.15.59,1.24,1.03,1.31,2.58.2,3.93Z"/><path d="m76.47,28.9c1.75-1.13,4-.61,5.11,1.13,1.11,1.73.65,3.99-1.11,5.12-1.76,1.13-4,.61-5.12-1.12-1.11-1.73-.65-3.99,1.11-5.12Zm2.87,4.48c.84-.54,1.01-1.48.52-2.25-.49-.77-1.42-1-2.26-.46-.84.54-1.01,1.48-.52,2.25.49.77,1.42,1,2.26.46Z"/><path d="m83.23,38.32l-2.32.88c-.56.21-.43.72-.05,1.56l-1.78.68c-1.24-2.46-.75-3.5,1.08-4.2l2.31-.88-.4-1.05,1.88-.72.4,1.05,1.24-.48,1.34,1.74-1.83.7.51,1.35-1.88.72-.51-1.35Z"/><path d="m82.75,41.06c2.06-.34,3.91,1.03,4.25,3.06.34,2.03-.98,3.92-3.04,4.26-2.06.34-3.91-1.03-4.25-3.06-.33-2.03.98-3.92,3.04-4.26Zm.87,5.25c.98-.16,1.52-.96,1.37-1.86-.15-.9-.91-1.48-1.89-1.32-.98.16-1.51.96-1.37,1.86.15.9.91,1.48,1.89,1.32Z"/><path d="m87.32,54.17l-2.38-.1c.18-.86-.12-2.11-1.51-2.16l-3.16-.13.08-2.1,6.99.28-.08,2.1-1.24-.05c.93.32,1.33,1.27,1.3,2.15Z"/></svg>