<?xml version="1.0" encoding="UTF-8"?><svg id="Layer_1" xmlns="http://www.w3.org/2000/svg" viewBox="0 0 100 100"><defs><style>.cls-1{fill:#fcfcfd;}.cls-2{fill:#3f5c6c;}.cls-3{fill:none;stroke:#c000e2;stroke-miterlimit:10;stroke-width:4px;}.cls-4{fill:#54747f;}.cls-5{fill:#364a5f;}.cls-6{fill:#3b97d2;}.cls-7{fill:#bdc3c7;}</style></defs><circle class="cls-3" cx="50" cy="50" r="45"/><path d="m8.52,47.97l.56-2.46,7.57-.12-6.71-3.62.44-1.9,7.62-.33-6.76-3.41.56-2.46,9.58,5.17-.61,2.66-6.42.28,5.65,3.05-.61,2.66-10.88.47Z"/><path d="m20.17,26.35l6.32,4.05-1.22,1.9-.59-.38c.21.72.11,1.53-.44,2.38-1.06,1.66-3.39,2.09-5.27.88-1.88-1.21-2.46-3.5-1.4-5.16.54-.85,1.23-1.28,1.98-1.39l-.59-.38,1.21-1.89Zm1.94,3.92c-.95-.61-1.95-.36-2.51.51-.56.87-.37,1.88.58,2.49s1.95.36,2.51-.52c.56-.87.37-1.88-.58-2.49Z"/><path d="m25.62,23.9l1.85,1.9c.45.46.89.12,1.56-.62l1.42,1.46c-1.9,2.27-3.12,2.23-4.59.72l-1.85-1.9-.86.84-1.51-1.55.86-.84-.99-1.02,1.14-2.05,1.46,1.5,1.11-1.08,1.51,1.55-1.11,1.08Z"/><path d="m28.53,23.25c-1.21-1.88-.72-4.25,1.19-5.48,1.22-.79,2.72-.85,3.89-.23l-1.03,2.02c-.5-.3-1.12-.27-1.68.08-.82.53-1.04,1.51-.48,2.38.56.87,1.55,1.07,2.37.54.55-.36.85-.92.77-1.5l2.26-.12c.09,1.33-.56,2.67-1.8,3.46-1.92,1.24-4.28.71-5.49-1.17Z"/><path d="m42.43,15.68l1.45,4.37-2.13.71-1.34-4.06c-.29-.88-.98-1.11-1.67-.89-.78.26-1.17.89-.84,1.91l1.29,3.89-2.13.71-3.3-9.97,2.13-.71,1.16,3.52c.21-.65.81-1.23,1.75-1.54,1.44-.48,3,.14,3.64,2.07Z"/><path d="m44.48,14.4l5.68-.41.16,2.15-5.68.41-.16-2.15Z"/><path d="m55.74,18.37c.61.1,1.16-.04,1.52-.32l1.6,1.33c-.9.88-2.08,1.21-3.49.97-2.53-.44-3.8-2.41-3.42-4.61.38-2.2,2.27-3.63,4.61-3.23,2.16.37,3.47,2.32,3.08,4.55-.05.31-.13.6-.24.87l-5.25-.91c.15.82.78,1.2,1.6,1.34Zm1.82-2.46c-.09-.9-.7-1.32-1.37-1.44-.84-.15-1.48.17-1.81.89l3.18.55Z"/><path d="m63.38,22.74l-.49-2.37-2.07,1.26-2.36-1.03,3.98-2.42-.9-4.42,2.37,1.03.45,2.23,1.94-1.18,2.36,1.03-3.85,2.34.94,4.57-2.36-1.03Z"/><path d="m71.33,21.41l-1.54,2.16c-.38.52.04.9.88,1.42l-1.19,1.66c-2.56-1.47-2.74-2.68-1.52-4.39l1.54-2.16-.98-.7,1.26-1.76.97.7.83-1.16,2.22.76-1.22,1.71,1.26.9-1.26,1.76-1.26-.9Z"/><path d="m73.9,28.54c.41.45.95.68,1.39.68l.45,2.03c-1.25.14-2.38-.32-3.35-1.37-1.73-1.89-1.53-4.23.12-5.74,1.65-1.51,4.02-1.47,5.62.28,1.48,1.62,1.32,3.96-.35,5.48-.23.21-.47.39-.73.54l-3.59-3.93c-.38.74-.12,1.43.44,2.04Zm2.95-.82c.48-.76.26-1.48-.2-1.97-.58-.63-1.27-.77-1.98-.41l2.18,2.38Z"/><path d="m84.15,33.22l-2.21,1.28c-.34-.88-1.32-1.83-2.61-1.09l-2.93,1.7-1.13-1.95,6.49-3.75,1.13,1.95-1.16.67c1.02-.24,1.94.39,2.41,1.2Z"/><path d="m84.39,42.94l-4.39,1.39-.68-2.14,4.07-1.29c.89-.28,1.12-.97.91-1.65-.25-.79-.88-1.19-1.89-.87l-3.9,1.23-.68-2.14,7.15-2.26.68,2.15-.67.21c.65.22,1.22.83,1.52,1.77.46,1.44-.19,3-2.12,3.61Z"/><path d="m87.92,52.64l-7.5.24-.07-2.25.71-.02c-.58-.48-.95-1.2-.98-2.21-.06-1.96,1.61-3.64,3.85-3.71,2.24-.07,4.01,1.5,4.07,3.46.03,1-.29,1.75-.85,2.26l.71-.02.07,2.25Zm-3.82-2.13c1.12-.04,1.81-.81,1.78-1.84-.03-1.04-.76-1.76-1.89-1.73s-1.81.81-1.77,1.84c.03,1.04.76,1.76,1.88,1.73Z"/><path d="m90.87,55.83l-.38,2.22-10.79-1.83.38-2.22,10.79,1.83Z"/><path class="cls-6" d="m59.5,75.94c-1.04,2.36-2.07,4.72-3.13,7.07-.37.83-1.14,1.21-1.94,1.51h-12.68c-1.24-.37-1.93-1.23-2.41-2.4-.79-1.93-1.68-3.82-2.52-5.72-.07-.14-.1-.3-.16-.45h22.86Z"/><path class="cls-5" d="m59.5,75.94h-22.86c-.68-.08-1.37,0-2.05-.14-2.32-.54-3.77-2.42-3.77-4.95,0-4.37,0-8.74,0-13.1v-15.05c0-2.35,1.23-4.13,3.3-4.82.55-.16,1.13-.25,1.71-.25.27,0,.54-.02.81-.04h22.86c.66.07,1.34,0,2,.14,2.13.44,3.68,2.27,3.78,4.44,0,.09.02.18.04.27,0,2.87,0,5.73,0,8.6,0,.22-.02.43-.02.65v19.24c0,2.48-1.48,4.37-3.79,4.88-.66.14-1.33.07-2,.13Zm.56-34.47h-24.16c-.97,0-1.21.24-1.21,1.21,0,8.85,0,17.7,0,26.55-.21.56-.15,1.14-.05,1.69.18,1.05.31,1.12,1.4,1.12h24.12c1.01,0,1.31-.31,1.31-1.32v-27.92c0-.14.01-.29,0-.43-.09-.61-.65-1.03-1.25-.94-.05,0-.11.02-.16.03Z"/><path class="cls-6" d="m59.5,37.58h-22.86c.7-1.62,1.41-3.23,2.11-4.85.27-.63.55-1.25.83-1.88.56-1.22,1.5-1.85,2.86-1.84h11.31c1.16,0,2.12.46,2.61,1.52,1.09,2.34,2.1,4.71,3.14,7.06Z"/><path class="cls-7" d="m65.3,51.03c0-2.87,0-5.73,0-8.6.6,0,1.2.05,1.79,0,1.13-.1,2.03.8,2.05,1.96.03,1.55.03,3.11,0,4.66-.02,1.19-.86,1.96-2.06,1.97h-1.79Z"/><path class="cls-2" d="m60.06,41.47c.59-.17,1.2.17,1.37.75.01.05.03.1.03.15.01.14,0,.29,0,.43v27.92c0,1.01-.31,1.32-1.31,1.32h-24.12c-1.09,0-1.22-.08-1.4-1.12-.1-.55-.15-1.14.05-1.69.25-.6.11-1.24.19-1.85.18-1.41.36-2.81.66-4.2.42-2.01,1.04-3.97,1.84-5.86,1.19-2.81,2.87-5.38,4.96-7.6,1.54-1.62,3.31-3.01,5.23-4.14,3.23-1.91,6.79-3.2,10.5-3.79.66-.11,1.35-.1,1.99-.32Zm-11.04,10.18v-4.39c0-.6-.36-.99-.89-1.01-.56-.03-.95.35-1.01.97-.01.13,0,.25,0,.38,0,2.92,0,5.85,0,8.77-.02.51.18,1,.55,1.35,2.07,2.04,4.12,4.1,6.17,6.16.13.15.28.28.45.39.44.28,1.02.15,1.3-.29.2-.32.2-.72-.01-1.04-.12-.16-.25-.3-.4-.43-1.94-1.94-3.88-3.88-5.82-5.82-.21-.19-.33-.47-.32-.75,0-1.44,0-2.86,0-4.29Z"/><path class="cls-4" d="m60.06,41.47c-.65.21-1.33.21-2,.32-3.71.59-7.27,1.88-10.5,3.79-1.93,1.13-3.69,2.53-5.23,4.15-2.09,2.22-3.77,4.79-4.96,7.6-.8,1.89-1.41,3.85-1.84,5.86-.3,1.39-.48,2.79-.66,4.2-.08.62.06,1.26-.19,1.85v-26.55c0-.97.24-1.21,1.21-1.21h24.16Z"/><path class="cls-1" d="m49.02,51.65c0,1.43,0,2.85,0,4.28-.01.29.11.56.32.75,1.95,1.93,3.89,3.87,5.82,5.82.15.13.28.28.4.43.29.43.18,1.02-.25,1.31-.31.21-.72.22-1.04.01-.16-.11-.31-.24-.45-.39-2.06-2.05-4.1-4.12-6.17-6.16-.37-.35-.57-.84-.55-1.35.01-2.92,0-5.85,0-8.77,0-.13,0-.25,0-.38.06-.62.45-1,1.01-.97.53.03.89.42.89,1.01.01,1.25,0,2.49,0,3.74v.66Z"/></svg>