<?xml version="1.0" encoding="UTF-8"?><svg id="Layer_1" xmlns="http://www.w3.org/2000/svg" viewBox="0 0 100 100"><defs><style>.cls-1{fill:none;stroke:#0018c6;stroke-miterlimit:10;stroke-width:4px;}.cls-2{fill:#f6f6f6;}.cls-3{fill:#e1e6f5;}.cls-4{fill:#e0e0e0;}.cls-5{fill:#6eaa50;}.cls-6{fill:#93c578;}.cls-7{fill:#cdcdcd;}</style></defs><circle class="cls-1" cx="50" cy="50" r="45"/><path class="cls-2" d="m64.62,37.74c3.82-.3,7.54,3.57,7.37,7.38-.17,3.88-.03,7.78-.03,11.67v8.76c0,4.1,0,8.21-.01,12.31,0,.84-.1,1.68-.72,2.35-3.6,0-7.19.02-10.79-.01-.94,0-1.88-.08-2.81-.23-2.76-.44-5.45-1.11-8.01-2.29-3.31-1.53-6.33-3.47-8.78-6.22l6.32-.1c.36.02.72.07,1.09.07,3.52,0,7.05,0,10.57,0,2.81,0,2.92-.11,2.88-2.92,0-.98,0-1.96,0-2.93h4.61q1.25,0,1.24-1.28c0-.06,0-.12,0-.18,0-2.18-.01-4.37.02-6.55,0-.58-.16-.81-.77-.79-1.21.04-2.43.02-3.64.02h-1.46c0-1.41,0-2.81,0-4.2,0-1.15-.52-1.65-1.68-1.66-1.4,0-2.8,0-4.19,0l-17.56.02c-.18,0-.36-.03-.54-.03-2.06-.02-2.37.3-2.37,2.34,0,3.49-.02,6.98-.03,10.46-.06-.07-.13-.14-.16-.22-1.81-3.94-2.72-8.08-2.73-12.42,0-4.21,0-8.41,0-12.62.85-.79,1.91-.71,2.95-.74l2.89-.02,26.35.02Z"/><path class="cls-3" d="m40.85,71.45c2.44,2.75,5.46,4.69,8.78,6.22,2.56,1.18,5.25,1.85,8.01,2.29.93.15,1.87.22,2.81.23,3.6.03,7.19.01,10.79.01-.82,2.35-2.65,3.53-4.9,4.19-.54.16-1.12.29-1.7.21l-26.36.02-2.9-.02c-4.15-.06-7.34-3.29-7.34-7.44,0-.94,0-1.88,0-2.83v-26.34c.07-1.51-.2-3.05.2-4.53.61-2.31,1.82-4.15,4.2-4.99,0,4.21,0,8.41,0,12.62,0,4.34.92,8.48,2.73,12.42.04.08.11.14.16.22.01,2,.02,4,.03,6,.01,1.14.54,1.67,1.67,1.68,1.27.02,2.55.02,3.82.03Z"/><path class="cls-6" d="m38.27,50.95l17.56-.02c-1,2.38-2,4.75-3,7.13-1.44,3.41-2.88,6.82-4.33,10.23l-.31.41c-.67-.42-1.42-.19-2.12-.19-4.63-.03-7.79-3.17-7.79-7.79,0-3.26,0-6.51,0-9.77Z"/><path class="cls-4" d="m48.51,68.29c1.44-3.41,2.88-6.82,4.33-10.23,1-2.37,2-4.75,3-7.13,1.4,0,2.8-.02,4.19,0,1.16,0,1.67.51,1.68,1.66,0,1.4,0,2.8,0,4.2v8.79c0,.98,0,1.96,0,2.93-4.05,0-8.11,0-12.16-.01-.35,0-.74.14-1.03-.2Z"/><path class="cls-5" d="m38.27,50.95c0,3.26,0,6.51,0,9.77,0,4.62,3.16,7.76,7.79,7.79.71,0,1.45-.23,2.12.19-.35.88-.69,1.77-1.04,2.65l-6.32.1c-1.27,0-2.55-.01-3.82-.03-1.13-.02-1.66-.54-1.67-1.68-.02-2-.02-4-.03-6,.01-3.49.02-6.98.03-10.46,0-2.05.32-2.36,2.37-2.34.18,0,.36.02.54.03Z"/><path class="cls-7" d="m47.16,71.35c.34-.88.69-1.77,1.04-2.65.1-.14.21-.27.31-.41.29.33.68.2,1.03.2,4.05.01,8.11.02,12.16.01.04,2.81-.07,2.92-2.88,2.92-3.52,0-7.05,0-10.57,0-.36,0-.72-.04-1.09-.07Z"/><path class="cls-4" d="m63.17,56.79c1.21,0,2.43.02,3.64-.02.61-.02.78.21.77.79-.03,2.18-.02,4.37-.02,6.55-2.53.19-4.67-2.17-4.4-4.49.11-.93.01-1.89.01-2.83Z"/><path class="cls-7" d="m63.17,56.79c0,.94.1,1.9-.01,2.83-.27,2.32,1.88,4.68,4.4,4.49,0,.06,0,.12,0,.18q.01,1.28-1.24,1.28h-4.61v-8.79h1.46Z"/><path d="m9.51,47.9l.69-2.42,7.57.26-6.52-3.95.53-1.88,7.62.06-6.58-3.75.69-2.42,9.31,5.65-.74,2.63-6.43-.04,5.49,3.33-.74,2.63-10.89-.08Z"/><path d="m22.22,26.92l6.11,4.36-1.31,1.83-.57-.41c.18.73.03,1.53-.55,2.35-1.14,1.6-3.49,1.92-5.31.62-1.82-1.3-2.29-3.62-1.14-5.22.58-.82,1.29-1.22,2.04-1.29l-.57-.41,1.31-1.83Zm1.75,4.01c-.92-.65-1.93-.45-2.53.39-.6.84-.46,1.86.45,2.52.92.65,1.93.45,2.53-.39.6-.84.46-1.86-.46-2.52Z"/><path d="m27.79,24.74l1.76,1.99c.43.48.88.16,1.59-.54l1.35,1.53c-2.01,2.17-3.23,2.07-4.62.5l-1.76-1.99-.9.79-1.43-1.62.9-.79-.94-1.07,1.24-1.99,1.39,1.57,1.16-1.02,1.43,1.62-1.16,1.02Z"/><path d="m30.73,24.24c-1.12-1.94-.51-4.28,1.46-5.42,1.26-.73,2.76-.71,3.89-.03l-1.13,1.97c-.48-.33-1.11-.33-1.68,0-.84.49-1.11,1.46-.6,2.35s1.49,1.15,2.34.66c.57-.33.89-.88.84-1.46h2.26c.03,1.33-.7,2.63-1.97,3.36-1.98,1.14-4.31.49-5.42-1.44Z"/><path d="m44.98,17.36l1.23,4.44-2.17.6-1.14-4.12c-.25-.9-.93-1.16-1.62-.97-.79.22-1.22.84-.93,1.86l1.1,3.95-2.17.6-2.8-10.12,2.17-.6.99,3.57c.24-.64.87-1.19,1.82-1.46,1.46-.4,2.99.29,3.53,2.24Z"/><path d="m58.98,18.63c-.26,2.22-2.06,3.75-4.02,3.52-1-.12-1.69-.54-2.11-1.17l-.08.7-2.23-.26,1.21-10.43,2.23.26-.43,3.68c.56-.51,1.33-.77,2.33-.65,1.95.23,3.36,2.13,3.1,4.35Zm-2.23-.26c.13-1.12-.53-1.91-1.56-2.02-1.03-.12-1.85.49-1.98,1.61-.13,1.12.54,1.91,1.56,2.02,1.03.12,1.86-.49,1.98-1.61Z"/><path d="m69.13,18.67l-2.93,6.91-2.07-.88.27-.65c-.68.33-1.49.36-2.41-.03-1.81-.77-2.63-2.99-1.75-5.05s3.04-3.01,4.85-2.25c.92.39,1.47,1,1.7,1.72l.28-.65,2.07.88Zm-3.54,2.57c.44-1.04.03-1.98-.93-2.38s-1.92-.05-2.36.99c-.44,1.04-.03,1.98.93,2.38s1.92.05,2.36-.99Z"/><path d="m72.47,23.64l-1.57,2.14c-.38.52.03.9.87,1.43l-1.21,1.65c-2.55-1.49-2.72-2.71-1.48-4.41l1.57-2.14-.97-.71,1.27-1.74.97.71.84-1.15,2.21.78-1.24,1.69,1.25.91-1.27,1.74-1.25-.91Z"/><path d="m76.85,27.59l-1.9,1.86c-.46.45-.12.89.62,1.56l-1.46,1.43c-2.27-1.89-2.24-3.12-.74-4.59l1.9-1.86-.84-.86,1.54-1.51.84.86,1.02-1,2.06,1.14-1.5,1.47,1.08,1.1-1.54,1.51-1.08-1.1Z"/><path d="m78.14,35.09c.33.52.81.84,1.25.91l.09,2.08c-1.26-.08-2.29-.73-3.05-1.94-1.37-2.17-.76-4.44,1.13-5.63,1.89-1.2,4.21-.75,5.48,1.26,1.17,1.85.61,4.13-1.31,5.34-.27.17-.54.3-.81.4l-2.85-4.5c-.51.66-.37,1.39.07,2.08Zm3.05-.29c.61-.67.51-1.41.15-1.98-.46-.72-1.12-.98-1.88-.75l1.72,2.73Z"/><path d="m87.42,41.48l-2.4.87c-.18-.93-.98-2.04-2.38-1.53l-3.19,1.15-.77-2.12,7.05-2.55.77,2.12-1.26.46c1.05-.06,1.84.72,2.16,1.61Z"/><path d="m88.84,50.76l-7.55-1.55c-2.48-.51-3.6-1.7-3.78-3.8l2.08-.29c.14,1.04.54,1.49,1.49,1.69l6.68-3.93.34,2.45-4.32,2.28,4.74.77.33,2.38Z"/></svg>