<?xml version="1.0" encoding="UTF-8"?><svg id="Layer_1" xmlns="http://www.w3.org/2000/svg" viewBox="0 0 100 100"><defs><style>.cls-1{fill:#deb6a3;}.cls-2{fill:none;stroke:#0018c6;stroke-miterlimit:10;stroke-width:4px;}.cls-3{fill:#b68c7b;}.cls-4{fill:#dfc7be;}.cls-5{fill:#c59a85;}</style></defs><circle class="cls-2" cx="50" cy="50" r="45"/><path class="cls-1" d="m41.71,84.75c-.35-.19-.75-.17-1.12-.25-3-.7-5.36-2.39-7.37-4.67-1.78-2.03-3.09-4.34-4.14-6.82-.04-.09-.05-.19-.08-.29.22,0,.44-.03.66-.03,3.9,0,7.8,0,11.71,0,1.48,0,2.96.05,4.39-.48.72,1.35,1.36,2.75,2.28,3.99.51.68.98,1.39,1.67,1.91.06.37.42.47.65.68,1.72,1.59,3.7,2.56,6.09,2.58.89,0,1.52.74,1.57,1.63.04.73-.37,1.18-.89,1.63l.48.03s-.01.06-.01.09h-15.88Z"/><path class="cls-5" d="m56.78,32.32c2.08.02,3.97.69,5.72,1.77,2.57,1.58,4.45,3.83,5.98,6.39,1.98,3.31,3.15,6.9,3.86,10.67.61,3.27.71,6.56.58,9.86-.04,1.01-.05,2.04-.35,3.03-.28,0-.41.23-.57.4-.74.79-1.56,1.47-2.52,1.96-1.95,1-4,1.44-6.2,1.15-1.47-.19-2.83-.65-4.1-1.41-1.34-.81-2.35-1.93-3.22-3.21.06-.93.17-1.87.18-2.8.03-1.82.01-3.64-.17-5.46-.27-2.7-.81-5.33-1.69-7.89-1.01-2.91-2.41-5.6-4.57-7.84.07-.41.47-.52.72-.75,1.68-1.55,3.62-2.5,5.96-2.51.64,0,1.11-.31,1.42-.85.42-.72.35-1.97-1.02-2.51Zm7.82,23.23c-1.94-.14-3.63,1.6-3.63,3.6,0,1.98,1.62,3.57,3.63,3.57,2.03,0,3.6-1.52,3.62-3.57.02-2.13-1.72-3.73-3.62-3.6h0Z"/><path class="cls-3" d="m55.95,62.93c.86,1.28,1.87,2.4,3.22,3.21,1.27.77,2.63,1.22,4.1,1.41,2.2.29,4.25-.15,6.2-1.15.96-.49,1.78-1.17,2.52-1.96.16-.17.29-.39.57-.4-.39,3.5-1.33,6.84-2.8,10.04-1.26,2.75-2.9,5.25-5.18,7.28-2,1.79-4.28,3.02-7,3.29l-.48-.03c.53-.45.94-.9.89-1.63-.05-.88-.68-1.62-1.57-1.63-2.39-.02-4.37-.99-6.09-2.58-.23-.21-.59-.31-.65-.68.2-.21.41-.41.6-.63,1.84-2.12,3.08-4.57,4-7.19.84-2.39,1.31-4.86,1.65-7.36Z"/><path class="cls-1" d="m45.88,44.62c-1.34-.53-2.74-.55-4.16-.54-4,.02-8.01,0-12.01,0-.2,0-.41-.01-.61-.02.96-2.43,2.27-4.64,3.95-6.64,1.24-1.47,2.68-2.71,4.36-3.65,1.51-.84,3.13-1.42,4.85-1.44,4.84-.06,9.68-.01,14.53-.01,1.37.55,1.44,1.79,1.02,2.51-.31.54-.78.85-1.42.85-2.33.01-4.28.96-5.96,2.51-.25.23-.65.34-.72.75-.45.24-.71.67-1.02,1.05-1.15,1.41-2.01,3-2.8,4.63Z"/><path class="cls-4" d="m64.6,55.55c1.89-.12,3.63,1.48,3.62,3.6-.02,2.05-1.59,3.57-3.62,3.57-2,0-3.63-1.59-3.63-3.57,0-2,1.69-3.74,3.63-3.6Z"/><path d="m11.27,42.97l.93-2.36,7.56,1.01-6.14-4.61.72-1.83,7.64.81-6.22-4.41.93-2.36,8.78,6.58-1.01,2.56-6.44-.68,5.18,3.89-1.01,2.56-10.91-1.16Z"/><path d="m26.3,23.24l5.59,5.09-1.53,1.68-.53-.48c.09.76-.15,1.54-.83,2.29-1.33,1.46-3.72,1.5-5.38-.01-1.67-1.52-1.85-3.89-.52-5.36.68-.75,1.44-1.06,2.2-1.05l-.53-.48,1.53-1.68Zm1.27,4.22c-.84-.76-1.87-.68-2.57.09-.7.77-.68,1.81.15,2.57s1.87.68,2.57-.09c.7-.77.69-1.81-.15-2.57Z"/><path d="m32.24,21.73l1.48,2.22c.36.54.86.28,1.66-.32l1.14,1.71c-2.3,1.9-3.51,1.63-4.68-.13l-1.49-2.22-1,.67-1.21-1.81,1.01-.67-.8-1.19,1.51-1.82,1.17,1.76,1.29-.86,1.21,1.81-1.29.86Z"/><path d="m35.26,21.61c-.83-2.09.12-4.34,2.25-5.19,1.36-.54,2.86-.3,3.89.54l-1.42,1.8c-.43-.4-1.06-.49-1.68-.25-.91.36-1.33,1.29-.94,2.26s1.32,1.36,2.23,1c.62-.25,1.02-.75,1.05-1.33l2.26.32c-.17,1.34-1.08,2.53-2.46,3.07-2.14.85-4.37-.14-5.2-2.23Z"/><path d="m50.53,16.96l.5,4.62-2.26.25-.47-4.28c-.1-.93-.74-1.3-1.46-1.23-.83.09-1.35.63-1.23,1.7l.45,4.1-2.25.25-1.15-10.52,2.25-.25.41,3.71c.34-.6,1.06-1.04,2.05-1.15,1.52-.17,2.93.78,3.15,2.81Z"/><path d="m64.25,20.78c-.67,2.15-2.75,3.33-4.64,2.74-.97-.3-1.57-.85-1.88-1.55l-.21.68-2.17-.68,3.15-10.1,2.17.68-1.11,3.57c.65-.4,1.46-.51,2.43-.21,1.89.59,2.93,2.74,2.26,4.89Zm-2.17-.67c.34-1.08-.17-1.99-1.17-2.3-1-.31-1.93.14-2.27,1.23-.34,1.08.17,1.99,1.17,2.3,1,.31,1.93-.14,2.27-1.23Z"/><path d="m74.28,22.88l-4.3,6.22-1.87-1.29.41-.58c-.74.19-1.55.05-2.38-.52-1.63-1.13-1.98-3.49-.7-5.34,1.28-1.85,3.62-2.35,5.24-1.23.83.58,1.24,1.28,1.33,2.04l.41-.58,1.87,1.29Zm-4.02,1.82c.64-.93.43-1.95-.43-2.54s-1.88-.44-2.53.49c-.65.93-.43,1.95.43,2.54.86.59,1.88.44,2.53-.49Z"/><path d="m78.8,32.54l-3.62,2.9-1.42-1.77,3.36-2.69c.73-.59.71-1.32.25-1.89-.52-.65-1.26-.8-2.1-.12l-3.22,2.58-1.42-1.77,5.9-4.72,1.42,1.77-.55.44c.69-.03,1.45.33,2.07,1.11.96,1.19.92,2.89-.68,4.16Z"/><path d="m88.34,39.36l-9.8,3.97-.85-2.1.66-.27c-.72-.25-1.32-.8-1.7-1.74-.74-1.83.25-4,2.34-4.84,2.09-.84,4.31.02,5.05,1.85.38.94.33,1.75,0,2.43l3.46-1.4.85,2.1Zm-7.15.45c1.05-.42,1.43-1.39,1.04-2.36-.39-.97-1.33-1.4-2.38-.97-1.05.42-1.42,1.39-1.03,2.36.39.97,1.33,1.4,2.38.97Z"/></svg>