<?xml version="1.0" encoding="UTF-8"?><svg id="Layer_1" xmlns="http://www.w3.org/2000/svg" viewBox="0 0 100 100"><defs><style>.cls-1{fill:#cbcbcb;}.cls-2{fill:#f2a745;}.cls-3{fill:none;stroke:#c000e2;stroke-miterlimit:10;stroke-width:4px;}.cls-4{fill:#6bc048;}.cls-5{fill:#f0f1ef;}.cls-6{fill:#f0f1f0;}.cls-7{fill:#f1f1f1;}.cls-8{fill:#edcd67;}.cls-9{fill:#559a38;}.cls-10{fill:#edcb61;}</style></defs><circle class="cls-3" cx="50" cy="50" r="45"/><path d="m7.68,52.31l.45-2.65,8.05-.59-7.36-3.45.35-2.05,8.09-.81-7.4-3.23.45-2.65,10.52,4.93-.49,2.87-6.82.69,6.21,2.91-.49,2.87-11.56,1.16Z"/><path d="m18.98,28.62l6.89,4.06-1.22,2.07-.65-.38c.26.76.17,1.63-.37,2.55-1.07,1.81-3.53,2.36-5.58,1.15-2.05-1.21-2.76-3.63-1.7-5.44.54-.92,1.26-1.41,2.05-1.56l-.65-.38,1.22-2.07Zm2.23,4.1c-1.03-.61-2.09-.3-2.65.65-.56.95-.32,2.02.71,2.63,1.03.61,2.09.3,2.65-.65.56-.95.32-2.02-.71-2.63Z"/><path d="m24.78,25.79l2.02,1.98c.49.48.95.1,1.64-.7l1.55,1.52c-1.96,2.47-3.28,2.46-4.88.89l-2.02-1.98-.89.92-1.65-1.61.9-.92-1.09-1.06,1.16-2.22,1.6,1.57,1.15-1.18,1.65,1.61-1.15,1.18Z"/><path d="m27.88,25.02c-1.32-1.99-.82-4.52,1.21-5.86,1.29-.86,2.89-.93,4.14-.29l-1.08,2.17c-.54-.32-1.2-.28-1.79.11-.87.57-1.09,1.62-.48,2.54.61.92,1.66,1.12,2.53.55.59-.39.9-1,.8-1.6l2.41-.16c.11,1.42-.57,2.85-1.88,3.72-2.03,1.34-4.55.8-5.86-1.18Z"/><path d="m42.67,16.88l1.53,4.67-2.28.75-1.42-4.33c-.31-.94-1.05-1.19-1.78-.95-.84.27-1.25.95-.9,2.03l1.36,4.15-2.28.75-3.49-10.65,2.28-.75,1.23,3.76c.23-.7.87-1.31,1.87-1.64,1.54-.5,3.2.16,3.88,2.22Z"/><path d="m44.88,15.56l6.07-.34.13,2.3-6.07.35-.13-2.3Z"/><path d="m53.67,13.42l2.38.31-1.02,7.94-2.38-.3,1.02-7.94Zm.03-2.16c.1-.78.83-1.34,1.61-1.24.78.1,1.35.83,1.25,1.61-.1.78-.83,1.35-1.61,1.25s-1.35-.83-1.25-1.61Z"/><path d="m65.11,19.53l-1.6,4.65-2.27-.78,1.49-4.31c.32-.94-.12-1.58-.84-1.83-.83-.29-1.57,0-1.94,1.07l-1.42,4.13-2.27-.78,2.61-7.57,2.27.78-.25.71c.6-.42,1.48-.52,2.48-.18,1.53.53,2.45,2.06,1.75,4.11Z"/><path d="m69.96,21.61l-1.52,2.39c-.37.58.1.95,1.02,1.47l-1.17,1.84c-2.82-1.41-3.08-2.7-1.88-4.59l1.52-2.39-1.08-.69,1.24-1.95,1.08.69.82-1.28,2.41.68-1.2,1.89,1.39.88-1.24,1.95-1.39-.88Z"/><path d="m73.07,29.11c.46.46,1.04.68,1.51.66l.57,2.14c-1.32.21-2.55-.24-3.63-1.32-1.93-1.94-1.81-4.44-.12-6.12,1.69-1.68,4.21-1.75,5.99.05,1.64,1.66,1.58,4.16-.14,5.86-.24.24-.49.44-.75.61l-4-4.03c-.38.8-.06,1.53.56,2.15Zm3.1-1.01c.48-.84.21-1.58-.3-2.09-.64-.65-1.39-.76-2.13-.35l2.42,2.44Z"/><path d="m84.17,33.73l-2.32,1.43c-.38-.93-1.46-1.92-2.81-1.08l-3.08,1.9-1.26-2.04,6.81-4.2,1.26,2.04-1.21.75c1.08-.29,2.08.35,2.61,1.21Z"/><path d="m84.63,44.16l-4.66,1.55-.76-2.28,4.32-1.44c.94-.31,1.19-1.05.94-1.78-.28-.84-.95-1.25-2.03-.89l-4.14,1.38-.76-2.28,7.59-2.52.76,2.28-.71.24c.7.22,1.31.86,1.65,1.86.51,1.53-.15,3.2-2.2,3.88Z"/><path d="m88.41,54.51l-8,.25-.08-2.4.75-.02c-.62-.51-1.02-1.28-1.05-2.35-.07-2.09,1.72-3.88,4.1-3.96,2.38-.08,4.28,1.59,4.34,3.69.03,1.07-.31,1.87-.9,2.42l.75-.03.08,2.4Zm-4.08-2.27c1.2-.04,1.93-.86,1.89-1.97s-.81-1.88-2.01-1.84c-1.2.04-1.93.86-1.89,1.97s.81,1.88,2.01,1.84Z"/><path d="m91.5,58.05l-.43,2.36-11.49-2.11.43-2.36,11.49,2.11Z"/><path class="cls-4" d="m24.03,73.71c0-.18-.02-.36-.02-.54,0-9.43,0-18.86-.01-28.29,0-.54.15-.65.66-.63,1.51.03,3.03.01,4.54.01l.03,1.74c0,.09,0,.18-.02.27-.07.46.08.64.58.61.79-.05,1.59-.03,2.37,0,.39.01.54-.08.53-.5-.03-.7,0-1.4,0-2.11h3.44c0,.58.02,1.16.03,1.74,0,.09,0,.18-.02.27-.07.46.07.64.58.61.79-.05,1.59-.03,2.38,0,.39.01.54-.08.53-.5-.03-.7,0-1.4,0-2.11h3.44l.03,1.74c0,.09,0,.18-.02.27-.07.46.07.64.58.61.79-.05,1.58-.03,2.38,0,.39.01.54-.08.52-.5-.03-.7,0-1.4,0-2.11h7.77c0,1.32,0,2.64.02,3.95,0,.36-.07.56-.42.75-1.03.56-1.54,1.76-1.22,2.89.37,1.38,1.78,2.21,3.17,1.84,1.38-.37,2.21-1.78,1.84-3.17-.18-.67-.62-1.24-1.22-1.58-.23-.13-.44-.22-.43-.58.03-1.37.02-2.74.02-4.11h3.44c0,2.74.02,5.49,0,8.23-.03.5.17,1,.54,1.34,1.81,1.78,3.6,3.6,5.41,5.39.26.25.34.46.23.83-.48,1.6.76,3.24,2.43,3.26,1.23.02,2.07-.64,2.63-2.08l.02,7.27c-.29,0-.57.01-.85.02q-.88,0-.88.86h-3.45c0-.09,0-.18,0-.27.08-.46-.09-.63-.58-.6-.81.04-1.62.03-2.43,0-.34,0-.48.07-.47.44.03.87.03,1.73,0,2.59-.01.37.13.45.47.44.72-.02,1.45,0,2.16,0q.84,0,.85-.86h3.46q0,.86.88.86c.21,0,.43.01.64.02-.21.89-1.29,1.72-2.35,1.72-3.47-.01-6.95,0-10.42,0-.07-1.05-.54-1.86-1.5-2.33-.26-.13-.25-.31-.25-.52v-3.94c0-.68-.32-1-.99-1.01-2.84,0-5.69,0-8.54.01v-1.76c3.34,0,6.67.01,10.01,0,.36,0,.57.07.75.42.55,1.04,1.76,1.51,2.91,1.21,1.38-.37,2.19-1.79,1.82-3.17-.25-.91-.97-1.61-1.88-1.83-1.12-.3-2.3.21-2.85,1.23-.19.36-.4.42-.75.42h-10.01v-1.75c1.01,0,2.03.01,3.03.01,1.37,0,1.36,0,1.3-1.38-.01-.29-.11-.36-.38-.36-1.32.01-2.63.01-3.95.02v-1.76c1.01,0,2.03.01,3.03.01,1.37,0,1.36,0,1.3-1.38-.01-.29-.11-.36-.38-.36-1.32.01-2.63.01-3.95.02,0-.46-.01-.93,0-1.4,0-.25-.1-.35-.35-.35-.47,0-.93,0-1.4,0,0-1.01.01-2.03.01-3.03,0-1.37,0-1.36-1.38-1.3-.29.01-.36.11-.36.38.01,1.32.01,2.63.02,3.95h-1.76c0-1.01.01-2.03.01-3.03,0-1.37,0-1.36-1.38-1.3-.29.01-.36.11-.36.38.01,1.32.01,2.63.02,3.95h-1.76c0-1.01.01-2.03.01-3.03,0-1.37,0-1.36-1.38-1.3-.29.01-.36.11-.36.38.01,1.32.01,2.63.02,3.95h-1.76c0-1.01.01-2.03.01-3.03,0-1.37,0-1.36-1.38-1.3-.29.01-.36.11-.36.38.01,1.32.01,2.63.02,3.95-.47,0-.93.01-1.4,0-.25,0-.35.1-.35.35,0,.47,0,.93,0,1.4-1.01,0-2.03-.01-3.03-.01-1.37,0-1.36,0-1.3,1.38.01.29.11.36.38.36,1.32-.01,2.63-.01,3.95-.02v1.76c-1.01,0-2.03-.01-3.03-.01-1.37,0-1.36,0-1.3,1.38.01.29.11.36.38.36,1.32-.01,2.63-.01,3.95-.02v1.76c-1.01,0-2.03-.01-3.03-.01-1.37,0-1.36,0-1.3,1.38.01.29.11.36.38.36,1.32-.01,2.63-.01,3.95-.02v1.76c-1.01,0-2.03-.01-3.03-.01-1.37,0-1.36,0-1.3,1.38.01.29.11.36.38.36,1.32-.01,2.63-.01,3.95-.02,0,.47.01.93,0,1.4,0,.25.1.35.35.35.47,0,.93,0,1.4,0v4.32h-8.65Z"/><path class="cls-9" d="m24.03,73.71h8.66s12.1-.01,12.1-.01h7.79c.02.53.18,1.04.47,1.48.61.9,1.73,1.33,2.78,1.05,1.16-.31,1.84-1.17,1.98-2.52,3.47,0,6.95,0,10.42,0,1.06,0,2.14-.83,2.35-1.72.52,0,1.04-.03,1.57-.02.27,0,.39-.06.38-.36-.02-.92-.02-1.84,0-2.76,0-.3-.12-.36-.38-.36-.45.01-.9,0-1.35-.01l-.02-7.26v-1.03c0-.11.02-.22.02-.32v-14.56c0-.16-.02-.32-.03-.48-.06-.45.1-.61.59-.6,1.35.04,2.71.03,4.06,0,.46-.01.6.08.6.58-.02,5.85-.01,11.69-.01,17.54,0,5.32,0,10.65.01,15.97,0,.48-.12.6-.59.58-1.41-.03-2.81-.02-4.22,0-.29,0-.38-.07-.42-.37-.26-1.85-1.68-3.1-3.45-3.1s-3.16,1.26-3.43,3.12c-.04.28-.12.38-.39.34-.07,0-.14,0-.22,0-12.88,0-25.77,0-38.65.01-.47,0-.64-.09-.63-.6.04-1.53.03-3.06.03-4.6Z"/><path class="cls-4" d="m70.75,44.84c.01.16.03.32.03.48v14.56c0,.11-.01.22-.02.32-.68-1.78-1.53-2.24-3.51-1.89-.23.04-.33-.1-.45-.22-1.76-1.76-3.52-3.51-5.28-5.27-.17-.14-.27-.34-.27-.55.01-2.67.01-5.33.02-8,.65,0,1.3.04,1.94-.02.5-.04.67.13.75.61.2,1.3.98,2.18,2.19,2.63,1.77.65,3.73-.25,4.38-2.02.02-.04.03-.09.04-.13.06-.16.11-.33.17-.5Z"/><path class="cls-5" d="m61.28,44.26c0,2.67,0,5.33-.02,8,0,.22.1.42.27.55,1.76,1.76,3.52,3.51,5.28,5.27.12.12.22.26.45.22,1.99-.35,2.83.11,3.51,1.89v1.03c-.56,1.44-1.4,2.1-2.63,2.08-1.67-.02-2.91-1.66-2.43-3.26.11-.38.02-.58-.23-.83-1.81-1.79-3.59-3.6-5.41-5.39-.37-.34-.57-.83-.54-1.34.02-2.74,0-5.49,0-8.23h1.76Zm6.9,17.32c.48.01.88-.37.89-.85s-.37-.88-.85-.89c-.48-.01-.88.37-.89.85,0,0,0,.01,0,.02,0,.47.38.86.85.87Z"/><path class="cls-6" d="m56.08,44.26c0,1.37,0,2.74-.02,4.11,0,.36.2.44.43.58,1.24.71,1.67,2.29.96,3.53-.71,1.24-2.29,1.67-3.53.96-.6-.35-1.04-.92-1.22-1.59-.32-1.13.19-2.33,1.22-2.89.35-.19.43-.4.42-.75-.02-1.31-.01-2.63-.02-3.94h1.76Zm-.88,6.06c-.48,0-.87.39-.87.87,0,.48.39.87.87.87.48,0,.87-.39.87-.87,0,0,0,0,0-.01,0-.47-.39-.86-.87-.85h0Z"/><path class="cls-10" d="m29.23,45.99l-.03-1.74c0-.74.02-1.47,0-2.21,0-.31.1-.41.4-.4.74.02,1.47.02,2.21.02,0,1.12,0,2.23,0,3.35,0,.65-.31.96-.96.96-.54,0-1.08,0-1.62,0Z"/><path class="cls-10" d="m36.16,45.99c0-.58-.02-1.16-.03-1.74,0-.74.02-1.47,0-2.21,0-.31.1-.41.4-.4.74.02,1.47.02,2.21.02v3.35c0,.65-.31.96-.96.96-.54,0-1.08,0-1.62,0Z"/><path class="cls-10" d="m43.09,45.99l-.03-1.74c0-.74.02-1.47,0-2.21,0-.31.1-.41.4-.4.74.02,1.47.02,2.21.02v3.35c0,.65-.31.96-.96.96-.54,0-1.08,0-1.62,0Z"/><path class="cls-2" d="m36.16,45.99h1.62c.65,0,.96-.32.96-.96,0-1.12,0-2.23,0-3.35.04,0,.07-.01.11-.01q.76-.02.76.71c0,.63.01,1.25.01,1.88,0,.7-.04,1.41,0,2.11.02.42-.13.52-.53.5-.79-.03-1.59-.04-2.38,0-.5.03-.65-.15-.58-.61.02-.09.02-.18.02-.27Z"/><path class="cls-2" d="m29.23,45.99h1.62c.65,0,.96-.32.96-.96,0-1.12,0-2.23,0-3.35.03,0,.07-.01.11-.01q.76-.02.76.71c0,.63,0,1.25.01,1.88,0,.7-.04,1.41,0,2.11.02.42-.13.52-.53.5-.79-.03-1.59-.04-2.37,0-.5.03-.65-.15-.58-.61.01-.09.02-.18.02-.27Z"/><path class="cls-2" d="m43.09,45.99h1.62c.65,0,.96-.32.96-.96v-3.35s.07-.01.11-.01q.76-.02.76.71c0,.63,0,1.25.01,1.88,0,.7-.03,1.41,0,2.11.02.42-.13.52-.52.5-.79-.03-1.59-.04-2.38,0-.5.03-.65-.15-.58-.61.02-.09.02-.18.02-.27Z"/><path class="cls-9" d="m44.79,53.77c.47,0,.93.01,1.4,0,.25,0,.35.1.35.35,0,.47,0,.93,0,1.4v12.1c0,.47-.01.93,0,1.4,0,.25-.1.35-.35.35-.47,0-.93,0-1.4,0h-12.1c-.47,0-.93-.01-1.4,0-.25,0-.35-.1-.35-.35,0-.47,0-.93,0-1.4v-12.1c0-.46.01-.93,0-1.4,0-.25.1-.35.35-.35.47,0,.93,0,1.4,0h12.1Zm-10.36,10.4c0,.43,0,.87-.02,1.3-.03.37.13.45.47.44,2.57-.01,5.15-.01,7.72,0,.38,0,.49-.11.48-.48-.02-2.18,0-4.36-.01-6.54,0-.53.24-1.25-.11-1.55s-1.06-.09-1.62-.08c-2.18,0-4.36,0-6.53-.02-.31,0-.4.09-.4.4.02,2.18.02,4.36.02,6.54Z"/><path class="cls-6" d="m46.55,67.63v-1.71c2.84,0,5.69,0,8.54-.01.67,0,.98.33.99,1.01,0,1.31,0,2.63,0,3.94,0,.22-.01.39.25.52.96.47,1.43,1.28,1.5,2.33-.14,1.35-.82,2.21-1.98,2.52-1.06.27-2.17-.15-2.78-1.05-.29-.44-.45-.94-.47-1.47.07-1.05.55-1.86,1.5-2.33.23-.11.25-.26.25-.47,0-.88-.03-1.77,0-2.65.02-.47-.09-.64-.61-.63-2.4.03-4.8,0-7.19,0Zm9.52,6.06c0-.48-.41-.86-.88-.85-.48,0-.86.41-.85.88,0,.48.41.86.88.85,0,0,.01,0,.02,0,.47-.01.85-.41.83-.88h0Z"/><path class="cls-6" d="m46.55,64.16v-1.71c3.34,0,6.67-.01,10.01,0,.35,0,.57-.06.75-.42.55-1.02,1.73-1.53,2.85-1.23,1.39.34,2.23,1.74,1.9,3.12-.22.91-.93,1.63-1.83,1.88-1.16.3-2.36-.17-2.91-1.21-.19-.35-.4-.42-.75-.42-3.34,0-6.67,0-10.01-.01Zm12.98-1.72c-.48,0-.87.39-.87.87,0,.48.39.87.87.87.48,0,.87-.39.87-.87,0,0,0-.01,0-.02-.01-.47-.4-.85-.87-.85h0Z"/><path class="cls-1" d="m65.59,71.11q0,.86-.85.86c-.72,0-1.44-.01-2.16,0-.34.01-.48-.07-.47-.44.03-.86.03-1.73,0-2.59-.01-.37.13-.45.47-.44.81.02,1.62.04,2.43,0,.49-.03.65.14.58.6,0,.09,0,.18,0,.27v1.75Z"/><path class="cls-1" d="m70.79,68.49c.45,0,.9.02,1.35.01.27,0,.39.06.38.36-.02.92-.02,1.84,0,2.76,0,.3-.11.36-.38.36-.52-.01-1.04,0-1.57.02-.21,0-.43-.02-.64-.02q-.88,0-.88-.86v-1.74q0-.86.88-.86c.28,0,.57-.01.85-.02Z"/><path class="cls-7" d="m44.79,53.77h-1.71c0-1.32,0-2.63-.02-3.95,0-.27.06-.37.36-.38,1.38-.06,1.38-.07,1.38,1.3,0,1.01,0,2.02-.01,3.03Z"/><path class="cls-7" d="m30.94,55.52v1.71c-1.32,0-2.63,0-3.95.02-.27,0-.37-.06-.38-.36-.06-1.38-.07-1.38,1.3-1.38,1.01,0,2.02,0,3.03.01Z"/><path class="cls-7" d="m46.55,57.23v-1.71c1.32,0,2.63,0,3.95-.02.27,0,.37.06.38.36.06,1.38.07,1.38-1.3,1.38-1.01,0-2.02,0-3.03-.01Z"/><path class="cls-7" d="m30.94,58.99v1.71c-1.32,0-2.63,0-3.95.02-.27,0-.37-.06-.38-.36-.06-1.38-.07-1.38,1.3-1.38,1.01,0,2.02,0,3.03.01Z"/><path class="cls-7" d="m46.55,60.7v-1.71c1.32,0,2.63,0,3.95-.02.27,0,.37.06.38.36.06,1.38.07,1.38-1.3,1.38-1.01,0-2.02,0-3.03-.01Z"/><path class="cls-7" d="m30.94,62.46v1.71c-1.32,0-2.63,0-3.95.02-.27,0-.37-.06-.38-.36-.06-1.38-.07-1.38,1.3-1.38,1.01,0,2.02,0,3.03.01Z"/><path class="cls-7" d="m30.94,65.92v1.71c-1.32,0-2.63,0-3.95.02-.27,0-.37-.06-.38-.36-.06-1.38-.07-1.38,1.3-1.38,1.01,0,2.02,0,3.03.01Z"/><path class="cls-7" d="m34.4,53.77h-1.71c0-1.32,0-2.63-.02-3.95,0-.27.06-.37.36-.38,1.38-.06,1.38-.07,1.38,1.3,0,1.01,0,2.02-.01,3.03Z"/><path class="cls-7" d="m37.86,53.77h-1.71c0-1.32,0-2.63-.02-3.95,0-.27.06-.37.36-.38,1.38-.06,1.38-.07,1.38,1.3,0,1.01,0,2.02-.01,3.03Z"/><path class="cls-7" d="m32.69,69.38h1.71v4.32h-1.71v-4.32Z"/><path class="cls-7" d="m41.33,53.77h-1.71c0-1.32,0-2.63-.02-3.95,0-.27.06-.37.36-.38,1.38-.06,1.38-.07,1.38,1.3,0,1.01,0,2.02-.01,3.03Z"/><path class="cls-7" d="m69.05,69.36v1.75h-3.46v-1.75h3.46Z"/><path class="cls-4" d="m46.55,67.63c2.4,0,4.79.03,7.19,0,.52,0,.63.16.61.63-.04.88-.01,1.77,0,2.65,0,.21-.02.36-.25.47-.96.47-1.43,1.28-1.5,2.33h-7.79v-4.33c.47,0,.93-.01,1.4,0,.25,0,.35-.1.35-.35,0-.47,0-.94,0-1.4Z"/><path class="cls-4" d="m34.4,73.7v-4.32h1.76v4.32h-1.76Z"/><path class="cls-7" d="m36.16,73.7v-4.32h1.71v4.32h-1.71Z"/><path class="cls-4" d="m37.86,73.7v-4.32h1.76v4.32h-1.76Z"/><path class="cls-7" d="m39.62,73.7v-4.32h1.71v4.32h-1.71Z"/><path class="cls-7" d="m44.79,69.38v4.32h-1.71v-4.32h1.71Z"/><path class="cls-4" d="m43.09,69.38v4.32h-1.76v-4.32h1.76Z"/><path class="cls-8" d="m68.17,61.58c-.48,0-.86-.4-.85-.88,0-.48.4-.86.88-.85.48,0,.86.4.85.88,0,0,0,.01,0,.02-.01.47-.41.85-.88.84Z"/><path class="cls-8" d="m55.2,50.32c.48,0,.87.39.87.87,0,.48-.39.87-.87.87-.48,0-.87-.39-.87-.87,0,0,0-.01,0-.02,0-.47.39-.85.87-.85,0,0,0,0,0,0Z"/><path class="cls-10" d="m34.43,64.17c0-2.18,0-4.36-.02-6.53,0-.31.09-.4.4-.4,2.17.02,4.36.02,6.53.02v4.11c0,1.71-1.09,2.8-2.8,2.8h-4.11Z"/><path class="cls-2" d="m34.43,64.17h4.11c1.71,0,2.8-1.09,2.8-2.8v-4.11c.55,0,1.25-.24,1.62.08s.1,1.01.11,1.55c.01,2.18,0,4.36.01,6.54,0,.38-.11.49-.48.48-2.57-.02-5.15-.02-7.72,0-.34,0-.5-.07-.47-.44.03-.43.02-.87.02-1.3Z"/><path class="cls-8" d="m56.06,73.68c.01.48-.37.88-.85.89-.48.01-.88-.37-.89-.85-.01-.48.37-.88.85-.89,0,0,.01,0,.02,0,.47,0,.86.38.87.85Z"/><path class="cls-8" d="m59.52,62.44c.48,0,.87.38.88.86,0,.48-.38.87-.86.88-.48,0-.87-.38-.88-.86,0,0,0-.01,0-.02,0-.47.39-.86.86-.86Z"/></svg>