<?xml version="1.0" encoding="UTF-8"?><svg id="Layer_1" xmlns="http://www.w3.org/2000/svg" viewBox="0 0 100 100"><defs><style>.cls-1{fill:#fff;}.cls-2{fill:none;stroke:#00b51e;stroke-miterlimit:10;stroke-width:4px;}.cls-3{fill:#ff1d25;}.cls-4{fill:#751d0a;}.cls-5{fill:#ccf2ff;opacity:.5;}.cls-6{fill:#29abe2;}.cls-7{fill:#c65d42;}</style></defs><circle class="cls-2" cx="50" cy="50" r="45"/><path d="m27.5,25.2c2.5,2.3,2.5,5.5.4,7.8-2.4,2.6-6,2.7-8.4.6-2.4-2.2-2.6-5.8-.4-8.3,1.4-1.6,3.4-2.2,5.2-1.9l-.5,2.5c-.9-.2-2,.2-2.8,1.1-1.3,1.4-1.2,3.4.3,4.7,1.4,1.3,3.3,1.2,4.8-.4,1-1.1,1.2-2.3.6-3.3l-2,2.2-1.7-1.5,3.8-4.2.7.6Z"/><path d="m37.7,21.1c1.1,2.1.5,4.5-1.4,5.5-.9.5-1.8.6-2.6.3l1.9,3.5-2.1,1.1-5.3-9.9,2.1-1.1.4.7c.2-.8.7-1.5,1.6-2,1.8-1,4.2-.2,5.4,1.9Zm-2.1,1.1c-.6-1.1-1.6-1.3-2.6-.8s-1.3,1.6-.8,2.6c.6,1.1,1.6,1.3,2.6.8,1-.5,1.3-1.6.8-2.6Z"/><path d="m46.7,18.2l1,4.8-2.4.5-.9-4.5c-.2-1-.9-1.3-1.7-1.1-.9.2-1.4.8-1.1,1.9l.9,4.3-2.3.5-2.3-11,2.3-.5.8,3.9c.3-.7,1-1.2,2-1.4,1.6-.3,3.2.5,3.6,2.6Z"/><path d="m48.5,18.9c.2-2.4,2.2-4.1,4.6-3.9,2.3.2,4.1,2.2,3.9,4.5-.2,2.4-2.2,4.1-4.6,3.9-2.3-.2-4.1-2.2-3.9-4.5Zm6.1.5c0-1.1-.6-1.9-1.7-2-1,0-1.9.6-2,1.7,0,1.1.6,1.9,1.7,2,1,0,1.9-.6,2-1.7Z"/><path d="m66.2,21.9l-1.7,4.6-2.2-.9,1.6-4.3c.4-.9,0-1.6-.8-1.9-.8-.3-1.6,0-2,1l-1.6,4.1-2.2-.9,2.8-7.5,2.2.9-.3.7c.6-.4,1.5-.5,2.5,0,1.5.6,2.4,2.1,1.6,4.2Z"/><path d="m69.6,27.8c.5.4,1.1.5,1.6.4l.9,2c-1.3.4-2.6.1-3.8-.8-2.2-1.6-2.4-4.1-1-6,1.4-1.9,3.9-2.3,5.9-.8,1.9,1.4,2.2,3.9.7,5.8-.2.3-.4.5-.7.7l-4.5-3.4c-.3.8.2,1.5.9,2Zm2.9-1.5c.4-.9,0-1.6-.6-2-.7-.5-1.5-.6-2.2,0l2.8,2.1Z"/><path d="m81.5,39.8c-2,1.2-4.3.5-5.5-1.6-1.3-2.1-.7-4.4,1.3-5.6.7-.4,1.5-.6,2.3-.6l6.2.3,1.5,2.5-4.3-.3c1,2,.4,4.1-1.5,5.2Zm-1.3-2.2c.8-.5,1-1.4.5-2.2-.4-.7-1.3-1.1-2.1-.6-.9.5-1,1.4-.5,2.2.4.7,1.3,1.1,2.1.6Z"/><path class="cls-7" d="m38.6,31h23c2.3,0,4.1,1.8,4.1,4.1v49.1c0,2.3-1.8,4.1-4.1,4.1h-23c-2.3,0-4.1-1.8-4.1-4.1v-49.1c0-2.3,1.8-4.1,4.1-4.1Z"/><path class="cls-4" d="m61.6,31h-23c-2.3,0-4.1,1.8-4.1,4.1v49.1l31.2-49.1c0-2.3-1.8-4.1-4.1-4.1Z"/><path class="cls-6" d="m63.3,81h-26.4c-1,0-1.7-.8-1.7-1.8v-44.2c0-1.1.9-2,1.9-2h26.2c1,0,1.7.8,1.7,1.8v44.4c0,1-.8,1.8-1.7,1.8Z"/><path class="cls-1" d="m52.2,86.4c-.1,0-.3,0-.5,0-.3,0-.7-.1-1-.2-.4,0-.8-.2-1.2-.2-.5,0-1-.2-1.4-.3,0,0-.1,0-.2,0-.2,0-.2-.2-.2-.4,0-.2.2-.5.3-.7.2-.4.3-.8.5-1.1.1-.2.3-.5.4-.7.3-.4.8-.5,1.2,0,.1.1.2.3.4.5.2.4.5.7.7,1.1.4.6.8,1.2,1.2,1.8,0,0,0,.1,0,.2,0,.2,0,.3-.2.3Z"/><path class="cls-3" d="m52.4,49.7c-.1,0-.3,0-.5,0-.4,0-.7-.1-1.1-.2-.4,0-.9-.2-1.3-.3-.5,0-1-.2-1.5-.3,0,0-.2,0-.2,0-.2,0-.2-.2-.2-.4.1-.2.2-.5.3-.7.2-.4.3-.8.5-1.2.1-.3.3-.5.4-.7.3-.4.9-.5,1.3,0,.1.1.3.3.4.5.3.4.5.8.7,1.2.4.6.8,1.3,1.2,1.9,0,0,0,.1,0,.2,0,.2,0,.3-.2.3Z"/><path class="cls-3" d="m53.3,40.6c0,0,.1,0,.2,0,.2,0,.2.1.2.3,0,.1-.1.2-.2.3-.5.6-.9,1.2-1.4,1.7-.4.5-.8,1-1.3,1.5-.2.2-.5.4-.8.5-.4,0-.7,0-1-.2-.2-.1-.3-.3-.4-.5-.4-.6-.8-1.2-1.2-1.9-.2-.3-.3-.6-.5-.8,0,0,0,0,0,0-.1-.2,0-.3.2-.3.8,0,1.7-.1,2.5-.2.7,0,1.5-.1,2.2-.2.5,0,1,0,1.6,0,0,0,0,0,0,0Z"/><path d="m48.5,67.8v2.2h-.9v1.4h-2.4v-1.4h-4.1v-2.2l2.8-5.7h2.7l-2.8,5.8h1.5v-1.7h2.4v1.7h.9Z"/><path d="m58.7,66v1c0,1.4-.4,2.5-1.3,3.3-.9.9-2,1.3-3.4,1.3s-2.7-.5-3.6-1.4c-.9-.9-1.4-2.1-1.4-3.5s.5-2.5,1.4-3.5c.9-.9,2.1-1.4,3.5-1.4s1.7.2,2.4.6c.7.4,1.3.9,1.7,1.6l-2,1.2c-.2-.3-.5-.5-.8-.7s-.8-.3-1.2-.3c-.7,0-1.3.2-1.8.7-.5.5-.7,1.1-.7,1.8s.2,1.3.7,1.8c.5.5,1.1.8,2,.8s1.8-.4,2.2-1.2h-2.3v-2.1h4.7Z"/><path class="cls-5" d="m36.5,78.5c-.4.7-1.5.4-1.5-.4v-43.1c0-1.1.8-1.9,1.9-1.9h26.4c.7,0,1.2.8.8,1.4l-27.6,44.1Z"/><polyline class="cls-4" points="54 35 45.7 35 44 31 55.9 31"/><path class="cls-1" d="m53.3,33.7c0,.3-.3.6-.6.6h-5.3c-.3,0-.6-.3-.6-.6h0c0-.3.3-.6.6-.6h5.3c.3,0,.6.3.6.6h0Z"/></svg>