<?xml version="1.0" encoding="UTF-8"?><svg id="Layer_1" xmlns="http://www.w3.org/2000/svg" viewBox="0 0 100 100"><defs><style>.cls-1{fill:#fff;}.cls-2{fill:none;stroke:#00b51e;stroke-miterlimit:10;stroke-width:4px;}.cls-3{fill:#42210b;}.cls-4{fill:#a0280e;}.cls-5{fill:#7dcbe5;}.cls-6{fill:#ff1d25;}.cls-7{fill:#6a3223;}.cls-8{fill:#e5eff1;}.cls-9{fill:#ccf2ff;opacity:.5;}.cls-10{fill:#29abe2;}.cls-11{fill:#c65d42;}.cls-12{fill:#9fddea;}</style></defs><circle class="cls-2" cx="50" cy="50" r="45"/><path d="m27.8,25.4c2.7,2.5,2.6,5.8.3,8.3-2.5,2.7-6.4,2.8-8.9.5-2.5-2.3-2.7-6.2-.3-8.8,1.5-1.7,3.7-2.3,5.5-2l-.6,2.6c-.9-.2-2.1.2-3,1.2-1.4,1.5-1.3,3.6.2,5,1.5,1.4,3.5,1.3,5.1-.4,1.1-1.2,1.3-2.4.7-3.5l-2.2,2.3-1.7-1.6,4.1-4.4.7.7Z"/><path d="m38.9,21.2c1.1,2.3.3,4.8-1.7,5.8-1,.5-1.9.5-2.7.2l1.9,3.8-2.3,1.1-5.3-10.7,2.3-1.1.4.7c.2-.8.8-1.5,1.8-2.1,2-1,4.5,0,5.6,2.2Zm-2.3,1.1c-.6-1.1-1.7-1.5-2.7-1-1.1.5-1.5,1.6-.9,2.8.6,1.1,1.7,1.5,2.7,1,1.1-.5,1.5-1.6.9-2.8Z"/><path d="m48.7,18.6l.8,5.2-2.5.4-.7-4.8c-.2-1-.9-1.4-1.7-1.3-.9.1-1.5.8-1.3,2l.7,4.6-2.5.4-1.8-11.8,2.5-.4.6,4.2c.4-.7,1.1-1.2,2.2-1.4,1.7-.3,3.3.7,3.7,3Z"/><path d="m50.7,19.5c.4-2.5,2.6-4.1,5.1-3.8s4.2,2.6,3.8,5.1c-.4,2.5-2.6,4.1-5.1,3.8-2.5-.4-4.2-2.6-3.8-5.1Zm6.4,1c.2-1.2-.5-2.1-1.6-2.3-1.1-.2-2.1.5-2.2,1.7-.2,1.2.5,2.1,1.6,2.3,1.1.2,2.1-.5,2.2-1.7Z"/><path d="m69.2,24.1l-2.3,4.7-2.3-1.1,2.1-4.4c.5-.9,0-1.7-.7-2-.8-.4-1.7-.2-2.2.9l-2,4.2-2.3-1.1,3.7-7.7,2.3,1.1-.3.7c.7-.4,1.6-.4,2.6.1,1.5.7,2.3,2.5,1.3,4.6Z"/><path d="m72.3,30.8c.5.5,1.1.7,1.6.6l.7,2.2c-1.4.3-2.7-.1-3.9-1.2-2.1-2-2.1-4.6-.4-6.5,1.7-1.9,4.4-2,6.4-.2,1.8,1.7,1.9,4.3.1,6.2-.2.3-.5.5-.8.7l-4.4-4.1c-.4.9,0,1.6.7,2.3Zm3.3-1.2c.5-.9.2-1.7-.4-2.2-.7-.7-1.5-.8-2.3-.3l2.7,2.5Z"/><path d="m90.1,40.6l-2.1.9-10.4.4-1.2-2.6,10-.4-2-4.4,2.4-1.1,3.2,7.1Z"/><path class="cls-7" d="m32.6,35h20.6c2,0,3.7,1.6,3.7,3.7v43.9c0,2-1.6,3.7-3.7,3.7h-20.6c-2,0-3.7-1.6-3.7-3.7v-43.9c0-2,1.6-3.7,3.7-3.7Z"/><path class="cls-11" d="m47.8,66.2c-.2,0-.5,0-.8-.1-.6-.1-1.2-.2-1.8-.4-.7-.1-1.5-.3-2.2-.4-.9-.2-1.7-.3-2.6-.5-.1,0-.3,0-.4-.1-.3-.1-.4-.4-.3-.7.2-.4.4-.8.5-1.2.3-.7.6-1.3.9-2,.2-.4.5-.9.8-1.3.5-.8,1.5-.8,2.2-.1.2.2.4.5.6.8.4.7.9,1.3,1.3,2,.7,1.1,1.4,2.2,2.1,3.3,0,0,.1.2.2.3.1.3,0,.5-.4.5Z"/><path class="cls-11" d="m49.3,50.5c.1,0,.2,0,.3,0,.3,0,.4.2.3.4,0,.2-.2.3-.3.5-.8,1-1.5,2-2.3,3-.7.9-1.5,1.8-2.2,2.6-.4.4-.8.7-1.4.9-.7.1-1.2,0-1.8-.4-.3-.2-.5-.6-.8-.9-.7-1.1-1.4-2.1-2.1-3.2-.3-.5-.6-1-.9-1.4,0,0,0,0,0,0-.2-.4,0-.6.3-.6,1.4-.1,2.9-.2,4.3-.3,1.3,0,2.6-.2,3.8-.3.9,0,1.8-.1,2.7-.2,0,0,0,0,0,0Z"/><path class="cls-11" d="m46,35h20.6c2,0,3.7,1.6,3.7,3.7v43.9c0,2-1.6,3.7-3.7,3.7h-20.6c-2,0-3.7-1.6-3.7-3.7v-43.9c0-2,1.6-3.7,3.7-3.7Z"/><path class="cls-4" d="m66.6,35h-20.6c-2,0-3.7,1.6-3.7,3.7v43.9l27.9-43.9c0-2-1.6-3.7-3.7-3.7Z"/><path class="cls-10" d="m68.1,79.7h-23.6c-.9,0-1.6-.7-1.6-1.6v-39.6c0-1,.8-1.8,1.7-1.8h23.4c.9,0,1.6.7,1.6,1.6v39.7c0,.9-.7,1.6-1.6,1.6Z"/><path class="cls-1" d="m58.2,84.6c-.1,0-.3,0-.4,0-.3,0-.6-.1-.9-.2-.4,0-.7-.1-1.1-.2-.4,0-.9-.2-1.3-.3,0,0-.1,0-.2,0-.2,0-.2-.2-.1-.3,0-.2.2-.4.3-.6.2-.3.3-.7.5-1,.1-.2.2-.4.4-.6.3-.4.8-.4,1.1,0,.1.1.2.3.3.4.2.3.4.7.6,1,.3.5.7,1.1,1,1.6,0,0,0,.1,0,.2,0,.1,0,.3-.2.3Z"/><path class="cls-6" d="m58.4,51.8c-.1,0-.3,0-.4,0-.3,0-.6-.1-1-.2-.4,0-.8-.2-1.2-.2-.4,0-.9-.2-1.3-.3,0,0-.1,0-.2,0-.2,0-.2-.2-.2-.4,0-.2.2-.4.3-.6.2-.3.3-.7.5-1,.1-.2.2-.5.4-.7.3-.4.8-.4,1.1,0,.1.1.2.3.3.4.2.3.4.7.7,1,.4.6.7,1.1,1.1,1.7,0,0,0,.1,0,.2,0,.2,0,.3-.2.3Z"/><path class="cls-6" d="m59.2,43.6c0,0,.1,0,.2,0,.1,0,.2.1.1.2,0,0-.1.2-.2.3-.4.5-.8,1-1.2,1.5-.4.5-.8.9-1.1,1.4-.2.2-.4.4-.7.5-.3,0-.6,0-.9-.2-.2-.1-.3-.3-.4-.5-.4-.6-.7-1.1-1.1-1.7-.2-.2-.3-.5-.4-.7,0,0,0,0,0,0,0-.2,0-.3.2-.3.8,0,1.5-.1,2.3-.2.7,0,1.3,0,2-.1.5,0,.9,0,1.4,0,0,0,0,0,0,0Z"/><path d="m54.9,67.9v2h-.8v1.3h-2.1v-1.3h-3.7v-2l2.5-5.1h2.4l-2.5,5.2h1.3v-1.5h2.1v1.5h.8Z"/><path d="m64,66.4v.9c0,1.2-.4,2.2-1.2,3-.8.8-1.8,1.1-3,1.1s-2.4-.4-3.2-1.3-1.3-1.9-1.3-3.1.4-2.3,1.3-3.1,1.9-1.3,3.1-1.3,1.5.2,2.2.5c.7.4,1.2.8,1.5,1.4l-1.8,1c-.2-.3-.4-.5-.7-.6s-.7-.2-1.1-.2c-.7,0-1.2.2-1.6.6-.4.4-.6,1-.6,1.7s.2,1.2.6,1.6c.4.4,1,.7,1.8.7s1.6-.4,1.9-1.1h-2v-1.8h4.2Z"/><path class="cls-9" d="m44.2,77.5c-.4.6-1.4.4-1.4-.4v-38.6c0-1,.8-1.7,1.7-1.7h23.7c.7,0,1.1.7.7,1.3l-24.7,39.4Z"/><polyline class="cls-4" points="59.8 38.6 52.4 38.6 50.9 35 61.5 35"/><path class="cls-1" d="m59.2,37.4c0,.3-.2.5-.5.5h-4.7c-.3,0-.5-.2-.5-.5h0c0-.3.2-.5.5-.5h4.7c.3,0,.5.2.5.5h0Z"/><rect class="cls-3" x="31.2" y="37.5" width="9.8" height="5.4" rx="2" ry="2"/><circle cx="33.8" cy="40.5" r=".9"/><path class="cls-5" d="m33.9,42.1c-1.1,0-1.9-.9-1.9-2,0-1.1.9-1.9,2-1.9,1.1,0,1.9.9,1.9,2,0,1.1-.9,1.9-2,1.9Zm-.9-2.1c-.1.3,0,.5.1.7.2.4.6.6,1,.5.4,0,.7-.4.8-.7.1-.4,0-.9-.5-1.1-.2-.1-.5-.2-.7-.1-.5,0-.8.3-.7.8Z"/><path class="cls-12" d="m33.7,39.2c.2,0,.5,0,.7.1.4.2.6.6.5,1.1,0,.4-.4.6-.8.7-.4,0-.8-.1-1-.5-.1-.2-.2-.4-.1-.7.1,0,.3.1.4.1,0,.2,0,.5.3.5.2,0,.5,0,.6-.3.2-.4,0-.6-.5-.7,0-.2,0-.4-.2-.5Z"/><path class="cls-8" d="m33.7,39.2c.1.1.2.3.2.5-.1.2-.2.3-.4.4-.2,0-.3,0-.4-.1-.1-.5.2-.8.7-.8Z"/><circle cx="38.2" cy="40.5" r=".9"/><path class="cls-5" d="m38.4,42.1c-1.1,0-1.9-.9-1.9-2,0-1.1.9-1.9,2-1.9,1.1,0,1.9.9,1.9,2,0,1.1-.9,1.9-2,1.9Zm-.9-2.1c-.1.3,0,.5.1.7.2.4.6.6,1,.5.4,0,.7-.4.8-.7.1-.4,0-.9-.5-1.1-.2-.1-.5-.2-.7-.1-.5,0-.8.3-.7.8Z"/><path class="cls-12" d="m38.1,39.2c.2,0,.5,0,.7.1.4.2.6.6.5,1.1,0,.4-.4.6-.8.7-.4,0-.8-.1-1-.5-.1-.2-.2-.4-.1-.7.1,0,.3.1.4.1,0,.2,0,.5.3.5.2,0,.5,0,.6-.3.2-.4,0-.6-.5-.7,0-.2,0-.4-.2-.5Z"/><path class="cls-8" d="m38.1,39.2c.1.1.2.3.2.5-.1.2-.2.3-.4.4-.2,0-.3,0-.4-.1-.1-.5.2-.8.7-.8Z"/></svg>