<?xml version="1.0" encoding="UTF-8"?><svg id="Layer_1" xmlns="http://www.w3.org/2000/svg" viewBox="0 0 100 100"><defs><style>.cls-1{fill:#fff;}.cls-2{fill:#3a926c;}.cls-3{fill:none;stroke:#00b51e;stroke-miterlimit:10;stroke-width:4px;}.cls-4{fill:#b63cdb;}.cls-5{fill:#ff1d25;}.cls-6{fill:#8622fd;}.cls-7{fill:#ccf2ff;opacity:.5;}</style></defs><circle class="cls-3" cx="50" cy="50" r="45"/><path d="m27.2,23.6c2.4,2.1,2.4,5.1.4,7.3-2.2,2.5-5.6,2.6-7.8.6-2.3-2-2.5-5.4-.5-7.8,1.3-1.5,3.2-2.1,4.8-1.9l-.5,2.3c-.8-.1-1.8.2-2.6,1.1-1.2,1.3-1.1,3.2.3,4.4,1.3,1.2,3.2,1.1,4.5-.4.9-1,1.1-2.1.6-3.1l-1.9,2.1-1.6-1.4,3.5-3.9.7.6Z"/><path d="m36.5,19.5c1.1,1.9.6,4.2-1.1,5.2-.9.5-1.7.6-2.4.3l1.9,3.2-1.9,1.1-5.3-9.1,1.9-1.1.4.6c.1-.7.6-1.4,1.5-1.9,1.7-1,4-.3,5.1,1.6Zm-1.9,1.1c-.6-1-1.6-1.2-2.5-.7-.9.5-1.2,1.5-.6,2.5.6,1,1.6,1.2,2.5.7.9-.5,1.2-1.5.6-2.5Z"/><path d="m44.8,16.3l1.1,4.5-2.2.6-1.1-4.1c-.2-.9-.9-1.2-1.6-1-.8.2-1.2.8-1,1.8l1,4-2.2.6-2.6-10.2,2.2-.6.9,3.6c.3-.6.9-1.2,1.8-1.4,1.5-.4,3,.3,3.5,2.3Z"/><path d="m46.5,17c0-2.2,1.8-3.9,4-3.9,2.2,0,3.9,1.8,3.9,4,0,2.2-1.8,3.9-4,3.9-2.2,0-3.9-1.8-3.9-4Zm5.7,0c0-1.1-.7-1.8-1.7-1.8-1,0-1.7.7-1.8,1.7,0,1.1.7,1.8,1.7,1.8,1,0,1.7-.7,1.8-1.7Z"/><path d="m63.3,18.6l-1.3,4.4-2.2-.6,1.2-4.1c.3-.9-.2-1.5-.9-1.7-.8-.2-1.5,0-1.8,1.1l-1.1,3.9-2.2-.6,2.1-7.2,2.2.6-.2.7c.5-.4,1.4-.6,2.3-.3,1.5.4,2.4,1.8,1.8,3.8Z"/><path d="m67,23.8c.5.3,1.1.4,1.5.3l1,1.8c-1.2.5-2.4.3-3.6-.4-2.2-1.4-2.6-3.7-1.4-5.6,1.2-1.9,3.5-2.5,5.5-1.2,1.9,1.2,2.3,3.5,1.1,5.4-.2.3-.4.5-.6.7l-4.5-2.8c-.2.8.3,1.4,1,1.8Zm2.6-1.6c.3-.9-.1-1.5-.7-1.9-.7-.5-1.4-.4-2,.1l2.7,1.7Z"/><path d="m79,33.6c-1.8,1.4-3.9.7-5.1-.9-1-1.3-1.3-2.8-.4-4.3l2.2.9c-.4.6-.5,1.2,0,2,.6.8,1.3.8,1.8.4.5-.4.7-1.1,0-1.8l-.3-.4.5-1.6h3.1c0,0-2.3-3-2.3-3l1.8-1.4,4.1,5.4-1.6,1.2h-2.9c.4,1.3.2,2.6-1,3.5Z"/><path class="cls-4" d="m38.6,31h23c2.3,0,4.1,1.8,4.1,4.1v49.1c0,2.3-1.8,4.1-4.1,4.1h-23c-2.3,0-4.1-1.8-4.1-4.1v-49.1c0-2.3,1.8-4.1,4.1-4.1Z"/><path class="cls-6" d="m61.6,31h-23c-2.3,0-4.1,1.8-4.1,4.1v49.1l31.2-49.1c0-2.3-1.8-4.1-4.1-4.1Z"/><rect class="cls-2" x="37.7" y="34.3" width="24.8" height="46.7"/><path class="cls-1" d="m53.3,32.7c0,.3-.3.6-.6.6h-5.3c-.3,0-.6-.3-.6-.6h0c0-.3.3-.6.6-.6h5.3c.3,0,.6.3.6.6h0Z"/><path class="cls-1" d="m52.2,86.4c-.1,0-.3,0-.5,0-.3,0-.7-.1-1-.2-.4,0-.8-.2-1.2-.2-.5,0-1-.2-1.4-.3,0,0-.1,0-.2,0-.2,0-.2-.2-.2-.4,0-.2.2-.5.3-.7.2-.4.3-.8.5-1.1.1-.2.3-.5.4-.7.3-.4.8-.5,1.2,0,.1.1.2.3.4.5.2.4.5.7.7,1.1.4.6.8,1.2,1.2,1.8,0,0,0,.1,0,.2,0,.2,0,.3-.2.3Z"/><path class="cls-5" d="m52.4,49.7c-.1,0-.3,0-.5,0-.4,0-.7-.1-1.1-.2-.4,0-.9-.2-1.3-.3-.5,0-1-.2-1.5-.3,0,0-.2,0-.2,0-.2,0-.2-.2-.2-.4.1-.2.2-.5.3-.7.2-.4.3-.8.5-1.2.1-.3.3-.5.4-.7.3-.4.9-.5,1.3,0,.1.1.3.3.4.5.3.4.5.8.7,1.2.4.6.8,1.3,1.2,1.9,0,0,0,.1,0,.2,0,.2,0,.3-.2.3Z"/><path class="cls-5" d="m53.3,40.6c0,0,.1,0,.2,0,.2,0,.2.1.2.3,0,.1-.1.2-.2.3-.5.6-.9,1.2-1.4,1.7-.4.5-.8,1-1.3,1.5-.2.2-.5.4-.8.5-.4,0-.7,0-1-.2-.2-.1-.3-.3-.4-.5-.4-.6-.8-1.2-1.2-1.9-.2-.3-.3-.6-.5-.8,0,0,0,0,0,0-.1-.2,0-.3.2-.3.8,0,1.7-.1,2.5-.2.7,0,1.5-.1,2.2-.2.5,0,1,0,1.6,0,0,0,0,0,0,0Z"/><path d="m46.1,65.9c.6.2,1.1.5,1.4,1s.5,1,.5,1.6c0,1-.3,1.8-1,2.3-.7.5-1.5.8-2.4.8s-1.5-.2-2.1-.5c-.6-.4-1-.9-1.3-1.6l2.1-1.2c.2.7.6,1,1.3,1s.6,0,.8-.2c.2-.2.3-.4.3-.6s0-.5-.3-.6c-.2-.2-.4-.2-.8-.2h-.5l-.9-1.4,1.5-1.8h-3.1v-2.3h6.1v1.9l-1.6,1.9Z"/><path d="m58.5,66v1c0,1.4-.4,2.5-1.3,3.3-.9.9-2,1.3-3.4,1.3s-2.7-.5-3.6-1.4c-.9-.9-1.4-2.1-1.4-3.5s.5-2.5,1.4-3.5c.9-.9,2.1-1.4,3.5-1.4s1.7.2,2.4.6c.7.4,1.3.9,1.7,1.6l-2,1.2c-.2-.3-.5-.5-.8-.7s-.8-.3-1.2-.3c-.7,0-1.3.2-1.8.7-.5.5-.7,1.1-.7,1.8s.2,1.3.7,1.8,1.1.8,2,.8,1.8-.4,2.2-1.2h-2.3v-2.1h4.7Z"/><polygon class="cls-7" points="37.7 81 37.7 34.3 62.5 34.3 37.7 81"/></svg>