<?xml version="1.0" encoding="UTF-8"?><svg id="Layer_1" xmlns="http://www.w3.org/2000/svg" viewBox="0 0 100 100"><defs><style>.cls-1{fill:#7ac943;}.cls-2{fill:none;stroke:#00b51e;stroke-miterlimit:10;stroke-width:4px;}.cls-3{fill:#ff931e;}.cls-4{fill:#0071bc;}.cls-5{fill:#69a6fe;}</style></defs><polygon class="cls-5" points="48 76 36.1 76 37.7 70.7 47.1 70.7 48 76"/><circle class="cls-2" cx="50" cy="50" r="45"/><path d="m27.5,25c2.5,2.3,2.5,5.5.4,7.8-2.4,2.6-6,2.7-8.4.6-2.4-2.2-2.6-5.8-.4-8.3,1.4-1.6,3.4-2.2,5.2-1.9l-.5,2.5c-.9-.2-2,.2-2.8,1.1-1.3,1.4-1.2,3.4.3,4.7,1.4,1.3,3.3,1.2,4.8-.4,1-1.1,1.2-2.3.6-3.3l-2,2.2-1.7-1.5,3.8-4.2.7.6Z"/><path d="m37.7,20.9c1.1,2.1.5,4.5-1.4,5.5-.9.5-1.8.6-2.6.3l1.9,3.5-2.1,1.1-5.3-9.9,2.1-1.1.4.7c.2-.8.7-1.5,1.6-2,1.8-1,4.2-.2,5.4,1.9Zm-2.1,1.1c-.6-1.1-1.6-1.3-2.6-.8-1,.5-1.3,1.6-.8,2.6.6,1.1,1.6,1.3,2.6.8,1-.5,1.3-1.6.8-2.6Z"/><path d="m46.7,17.9l1,4.8-2.4.5-.9-4.5c-.2-1-.9-1.3-1.7-1.1-.9.2-1.4.8-1.1,1.9l.9,4.3-2.4.5-2.3-11,2.3-.5.8,3.9c.3-.7,1-1.2,2-1.4,1.6-.3,3.2.5,3.6,2.6Z"/><path d="m48.5,18.7c.2-2.4,2.2-4.1,4.6-3.9,2.3.2,4.1,2.2,3.9,4.5-.2,2.4-2.2,4.1-4.6,3.9-2.3-.2-4.1-2.2-3.9-4.5Zm6.1.5c0-1.1-.6-1.9-1.7-2s-1.9.6-2,1.7c0,1.1.6,1.9,1.7,2,1,0,1.9-.6,2-1.7Z"/><path d="m66.2,21.6l-1.7,4.6-2.2-.9,1.6-4.3c.4-.9,0-1.6-.8-1.9-.8-.3-1.6,0-2,1l-1.6,4.1-2.2-.9,2.8-7.5,2.2.9-.3.7c.6-.4,1.5-.5,2.5,0,1.5.6,2.4,2.1,1.6,4.2Z"/><path d="m69.6,27.6c.5.4,1.1.5,1.6.4l.9,2c-1.3.4-2.6.1-3.8-.8-2.2-1.6-2.4-4.1-1-6,1.4-1.9,3.9-2.3,5.9-.8,1.9,1.4,2.2,3.9.7,5.8-.2.3-.4.5-.7.7l-4.5-3.4c-.3.8.2,1.5.9,2Zm2.9-1.5c.4-.9,0-1.6-.6-2-.7-.5-1.5-.6-2.2,0l2.8,2.1Z"/><path d="m77.3,39.9l1.9-3.2h-3.7s-1.4-2.6-1.4-2.6h6.6c0,0,3.2-5.4,3.2-5.4l1.4,2.5-1.7,3h3.4s1.4,2.6,1.4,2.6h-6.3c0,0-3.3,5.7-3.3,5.7l-1.4-2.5Z"/><path class="cls-4" d="m31.4,58.4h5.5l5.1,15.2h0c.1.4.5.6.8.6,0,0,0,0,.1,0,.4,0,.7-.4.8-.8l.8-15h25.6c.2,0,.5,0,.6-.3s.3-.4.3-.6v-24.6c0-.2,0-.5-.3-.6s-.4-.3-.6-.3H31.4c-.5,0-.9.4-.9.9v24.6c0,.2,0,.5.3.6s.4.3.6.3h0Z"/><path class="cls-5" d="m42.2,68.7l-3.8-11.3v-1.9h0c.4.2.8.3,1.3.3l1.5,2.3c.2.2.4.4.7.4h.8l-.6,10.3Z"/><path class="cls-3" d="m40.2,72.5v-1.8h-6.2c-.5,0-.9.4-.9.9v9.7c0,.2,0,.5.3.6s.4.3.6.3h16.7c.2,0,.5,0,.6-.3s.3-.4.3-.6v-9.7c0-.2,0-.5-.3-.6s-.4-.3-.6-.3h-5.3v1.8h.9v2.6h-5.9c-1.1,0-2-.9-2-2h0c0-.3.3-.6.6-.6h1.2Z"/><path class="cls-5" d="m57.8,48.7h9.7c.2,0,.5,0,.6-.3s.3-.4.3-.6v-12.3c0-.2,0-.5-.3-.6s-.4-.3-.6-.3h-9.7c-.5,0-.9.4-.9.9v12.3c0,.2,0,.5.3.6s.4.3.6.3Zm.9-12.3h7.9v10.6h-7.9v-10.6Z"/><path class="cls-5" d="m67.5,49.6h-6.2c-.5,0-.9.4-.9.9v4.4c0,.2,0,.5.3.6s.4.3.6.3h6.2c.2,0,.5,0,.6-.3s.3-.4.3-.6v-4.4c0-.2,0-.5-.3-.6s-.4-.3-.6-.3Zm-.9,4.4h-4.4v-2.6h4.4v2.6Z"/><path class="cls-5" d="m34,42.6h6.2v1.8h-6.2v-1.8Z"/><path class="cls-5" d="m34,46.1h3.5v1.8h-3.5v-1.8Z"/><path class="cls-1" d="m34.5,78.1h2.6c.2,0,.4.2.4.4v.9c0,.2-.2.4-.4.4h-2.6c-.2,0-.4-.2-.4-.4v-.9c0-.2.2-.4.4-.4Z"/><path class="cls-1" d="m41,78.1h2.6c.2,0,.4.2.4.4v.9c0,.2-.2.4-.4.4h-2.6c-.2,0-.4-.2-.4-.4v-.9c0-.2.2-.4.4-.4Z"/><path class="cls-1" d="m47.5,78.1h2.6c.2,0,.4.2.4.4v.9c0,.2-.2.4-.4.4h-2.6c-.2,0-.4-.2-.4-.4v-.9c0-.2.2-.4.4-.4Z"/><path class="cls-5" d="m48.6,51.6c-.2,0-.5,0-.8-.1-.6-.1-1.2-.2-1.8-.4-.7-.1-1.5-.3-2.2-.4-.9-.2-1.7-.3-2.6-.5-.1,0-.3,0-.4-.1-.3-.1-.4-.4-.3-.7.2-.4.4-.8.5-1.2.3-.7.6-1.3.9-2,.2-.4.5-.9.8-1.3.5-.8,1.5-.8,2.2-.1.2.2.4.5.6.8.4.7.9,1.3,1.3,2,.7,1.1,1.4,2.2,2.1,3.3,0,0,.1.2.2.3.1.3,0,.5-.4.5Z"/><path class="cls-5" d="m50.1,35.9c.1,0,.2,0,.3,0,.3,0,.4.2.3.4,0,.2-.2.3-.3.5-.8,1-1.5,2-2.3,3-.7.9-1.5,1.8-2.2,2.6-.4.4-.8.7-1.4.9-.7.1-1.2,0-1.8-.4-.3-.2-.5-.6-.8-.9-.7-1.1-1.4-2.1-2.1-3.2-.3-.5-.6-1-.9-1.4,0,0,0,0,0,0-.2-.4,0-.6.3-.6,1.4-.1,2.9-.2,4.3-.3,1.3,0,2.6-.2,3.8-.3.9,0,1.8-.1,2.7-.2,0,0,0,0,0,0Z"/></svg>