<?xml version="1.0" encoding="UTF-8"?><svg id="Layer_1" xmlns="http://www.w3.org/2000/svg" viewBox="0 0 100 100"><defs><style>.cls-1{fill:#fff;}.cls-2{fill:#c9c9c9;}.cls-3{fill:none;stroke:#00b51e;stroke-miterlimit:10;stroke-width:4px;}.cls-4{fill:#ff1d25;}.cls-5{fill:#fd6220;}.cls-6{fill:#ccf2ff;opacity:.5;}.cls-7{fill:#db411d;}</style></defs><circle class="cls-3" cx="50" cy="50" r="45"/><path d="m27.2,24.2c2.4,2.1,2.4,5.1.4,7.3-2.2,2.5-5.6,2.6-7.8.6-2.3-2-2.5-5.4-.5-7.8,1.3-1.5,3.2-2.1,4.8-1.9l-.5,2.3c-.8-.1-1.8.2-2.6,1.1-1.2,1.3-1.1,3.2.3,4.4,1.3,1.2,3.2,1.1,4.5-.4.9-1,1.1-2.1.6-3.1l-1.9,2.1-1.6-1.4,3.5-3.9.7.6Z"/><path d="m36.5,20.1c1.1,1.9.6,4.2-1.1,5.2-.9.5-1.7.6-2.4.3l1.9,3.2-1.9,1.1-5.3-9.1,1.9-1.1.4.6c.1-.7.6-1.4,1.5-1.9,1.7-1,4-.3,5.1,1.6Zm-1.9,1.1c-.6-1-1.6-1.2-2.5-.7-.9.5-1.2,1.5-.6,2.5.6,1,1.6,1.2,2.5.7.9-.5,1.2-1.5.6-2.5Z"/><path d="m44.8,16.9l1.1,4.5-2.2.6-1.1-4.1c-.2-.9-.9-1.2-1.6-1-.8.2-1.2.8-1,1.8l1,4-2.2.6-2.6-10.2,2.2-.6.9,3.6c.3-.6.9-1.2,1.8-1.4,1.5-.4,3,.3,3.5,2.3Z"/><path d="m46.5,17.5c0-2.2,1.8-3.9,4-3.9,2.2,0,3.9,1.8,3.9,4,0,2.2-1.8,3.9-4,3.9-2.2,0-3.9-1.8-3.9-4Zm5.7,0c0-1.1-.7-1.8-1.7-1.8-1,0-1.7.7-1.8,1.7,0,1.1.7,1.8,1.7,1.8,1,0,1.7-.7,1.8-1.7Z"/><path d="m63.3,19.1l-1.3,4.4-2.2-.6,1.2-4.1c.3-.9-.2-1.5-.9-1.7-.8-.2-1.5,0-1.8,1.1l-1.1,3.9-2.2-.6,2.1-7.2,2.2.6-.2.7c.5-.4,1.4-.6,2.3-.3,1.5.4,2.4,1.8,1.8,3.8Z"/><path d="m67,24.4c.5.3,1.1.4,1.5.3l1,1.8c-1.2.5-2.4.3-3.6-.4-2.2-1.4-2.6-3.7-1.4-5.6s3.5-2.5,5.5-1.2c1.9,1.2,2.3,3.5,1.1,5.4-.2.3-.4.5-.6.7l-4.5-2.8c-.2.8.3,1.4,1,1.8Zm2.6-1.6c.3-.9-.1-1.5-.7-1.9-.7-.5-1.4-.4-2,.1l2.7,1.7Z"/><path d="m73.2,29.2l5,.6c.9.1,1.6,0,2.1-.3.5-.4.6-1,.2-1.6-.4-.6-1.1-.7-1.8-.5l-.3-2.3c1.6-.4,3.1.3,4,1.4,1.1,1.5,1.2,3.6-.5,4.9-1,.8-2.3.9-3.6.7l-2.5-.3,2.1,2.8-1.8,1.4-4.4-5.7,1.4-1.1Z"/><path class="cls-7" d="m38.6,31h23c2.3,0,4.1,1.8,4.1,4.1v49.1c0,2.3-1.8,4.1-4.1,4.1h-23c-2.3,0-4.1-1.8-4.1-4.1v-49.1c0-2.3,1.8-4.1,4.1-4.1Z"/><path class="cls-5" d="m61.6,31h-23c-2.3,0-4.1,1.8-4.1,4.1v49.1l31.2-49.1c0-2.3-1.8-4.1-4.1-4.1Z"/><rect class="cls-2" x="37.1" y="38.2" width="25.9" height="38.8"/><path class="cls-1" d="m53.3,32.7c0,.3-.3.6-.6.6h-5.3c-.3,0-.6-.3-.6-.6h0c0-.3.3-.6.6-.6h5.3c.3,0,.6.3.6.6h0Z"/><path class="cls-1" d="m52.2,84.2c-.1,0-.3,0-.5,0-.3,0-.7-.1-1-.2-.4,0-.8-.2-1.2-.2-.5,0-1-.2-1.4-.3,0,0-.1,0-.2,0-.2,0-.2-.2-.2-.4,0-.2.2-.5.3-.7.2-.4.3-.8.5-1.1.1-.2.3-.5.4-.7.3-.4.8-.5,1.2,0,.1.1.2.3.4.5.2.4.5.7.7,1.1.4.6.8,1.2,1.2,1.8,0,0,0,.1,0,.2,0,.2,0,.3-.2.3Z"/><path class="cls-1" d="m43.8,80.5c0,.1-.2.3-.3.4-.2.3-.4.6-.6.9-.2.3-.5.7-.7,1-.3.4-.6.8-.9,1.2,0,0,0,.1-.1.2-.1.1-.3.1-.4,0-.2-.2-.3-.4-.5-.6-.3-.3-.5-.6-.8-.9-.2-.2-.3-.4-.5-.7-.3-.5,0-1,.4-1.1.2,0,.4-.1.6-.1.4,0,.9-.1,1.3-.2.7,0,1.4-.2,2.1-.3,0,0,.1,0,.2,0,.2,0,.3.1.2.3Z"/><path class="cls-1" d="m56.2,79.9c.1,0,.3,0,.4.1.3.1.7.2,1,.3.4.1.8.3,1.2.4.5.2.9.3,1.4.5,0,0,.1,0,.2,0,.2,0,.2.2.1.4-.1.2-.3.4-.4.6-.2.3-.4.7-.7,1-.2.2-.3.4-.5.6-.4.4-.9.3-1.2,0-.1-.2-.2-.3-.3-.5-.2-.4-.4-.8-.6-1.2-.3-.6-.6-1.3-.9-1.9,0,0,0-.1,0-.2,0-.2,0-.3.3-.3Z"/><path class="cls-4" d="m52.4,49.7c-.1,0-.3,0-.5,0-.4,0-.7-.1-1.1-.2-.4,0-.9-.2-1.3-.3-.5,0-1-.2-1.5-.3,0,0-.2,0-.2,0-.2,0-.2-.2-.2-.4.1-.2.2-.5.3-.7.2-.4.3-.8.5-1.2.1-.3.3-.5.4-.7.3-.4.9-.5,1.3,0,.1.1.3.3.4.5.3.4.5.8.7,1.2.4.6.8,1.3,1.2,1.9,0,0,0,.1,0,.2,0,.2,0,.3-.2.3Z"/><path class="cls-4" d="m53.3,40.6c0,0,.1,0,.2,0,.2,0,.2.1.2.3,0,.1-.1.2-.2.3-.5.6-.9,1.2-1.4,1.7-.4.5-.8,1-1.3,1.5-.2.2-.5.4-.8.5-.4,0-.7,0-1-.2-.2-.1-.3-.3-.4-.5-.4-.6-.8-1.2-1.2-1.9-.2-.3-.3-.6-.5-.8,0,0,0,0,0,0-.1-.2,0-.3.2-.3.8,0,1.7-.1,2.5-.2.7,0,1.5-.1,2.2-.2.5,0,1,0,1.6,0,0,0,0,0,0,0Z"/><path d="m42.3,71.4v-1.7l3.1-3.3c.3-.3.5-.6.7-.8.1-.2.2-.4.2-.6s0-.4-.2-.6c-.1-.1-.4-.2-.6-.2-.6,0-1,.3-1.3,1l-2.1-1.2c.3-.7.7-1.2,1.3-1.6.6-.4,1.2-.5,2-.5s1.7.3,2.3.8c.6.5,1,1.3,1,2.2s-.1,1-.4,1.5c-.3.5-.6.9-1.1,1.5l-1.3,1.3h2.9v2.3h-6.6Z"/><path d="m59,66v1c0,1.4-.4,2.5-1.3,3.3-.9.9-2,1.3-3.4,1.3s-2.7-.5-3.6-1.4c-.9-.9-1.4-2.1-1.4-3.5s.5-2.5,1.4-3.5c.9-.9,2.1-1.4,3.5-1.4s1.7.2,2.4.6c.7.4,1.3.9,1.7,1.6l-2,1.2c-.2-.3-.5-.5-.8-.7s-.8-.3-1.2-.3c-.7,0-1.3.2-1.8.7-.5.5-.7,1.1-.7,1.8s.2,1.3.7,1.8,1.1.8,2,.8,1.8-.4,2.2-1.2h-2.3v-2.1h4.7Z"/><polygon class="cls-6" points="37 76 37 38 62.8 38 37 76"/></svg>