<?xml version="1.0" encoding="UTF-8"?><svg id="Layer_1" xmlns="http://www.w3.org/2000/svg" xmlns:xlink="http://www.w3.org/1999/xlink" viewBox="0 0 100 100"><defs><style>.cls-1{fill:url(#linear-gradient-2);}.cls-2{fill:#fff;}.cls-3{fill:#fdc00f;}.cls-4{fill:none;stroke:#00b51e;stroke-miterlimit:10;stroke-width:4px;}.cls-5{fill:#16c5d5;}.cls-6{fill:#073856;}.cls-7{fill:url(#linear-gradient);}</style><linearGradient id="linear-gradient" x1="53.7" y1="88" x2="55.2" y2="76.4" gradientTransform="translate(-30.1 34.4) rotate(-27.6)" gradientUnits="userSpaceOnUse"><stop offset="0" stop-color="#d53f26"/><stop offset="1" stop-color="#a4252c"/></linearGradient><linearGradient id="linear-gradient-2" x1="45.7" y1="83.8" x2="47.2" y2="72.2" gradientTransform="translate(121.1 34.4) rotate(-152.4) scale(1 -1)" xlink:href="#linear-gradient"/></defs><circle class="cls-4" cx="50" cy="50" r="45"/><path d="m27.5,24.3c2.5,2.3,2.5,5.5.4,7.8-2.4,2.6-6,2.7-8.4.6-2.4-2.2-2.6-5.8-.4-8.3,1.4-1.6,3.4-2.2,5.2-1.9l-.5,2.5c-.9-.2-2,.2-2.8,1.1-1.3,1.4-1.2,3.4.3,4.7,1.4,1.3,3.3,1.2,4.8-.4,1-1.1,1.2-2.3.6-3.3l-2,2.2-1.7-1.5,3.8-4.2.7.6Z"/><path d="m37.7,20.2c1.1,2.1.5,4.5-1.4,5.5-.9.5-1.8.6-2.6.3l1.9,3.5-2.1,1.1-5.3-9.9,2.1-1.1.4.7c.2-.8.7-1.5,1.6-2,1.8-1,4.2-.2,5.4,1.9Zm-2.1,1.1c-.6-1.1-1.6-1.3-2.6-.8-1,.5-1.3,1.6-.8,2.6.6,1.1,1.6,1.3,2.6.8,1-.5,1.3-1.6.8-2.6Z"/><path d="m46.7,17.2l1,4.8-2.3.5-.9-4.5c-.2-1-.9-1.3-1.7-1.1-.9.2-1.4.8-1.1,1.9l.9,4.3-2.4.5-2.3-11,2.3-.5.8,3.9c.3-.7,1-1.2,2-1.4,1.6-.3,3.2.5,3.6,2.6Z"/><path d="m48.5,18c.2-2.4,2.2-4.1,4.6-3.9,2.3.2,4.1,2.2,3.9,4.5s-2.2,4.1-4.6,3.9c-2.3-.2-4.1-2.2-3.9-4.5Zm6.1.5c0-1.1-.6-1.9-1.7-2-1,0-1.9.6-2,1.7,0,1.1.6,1.9,1.7,2,1,0,1.9-.6,2-1.7Z"/><path d="m66.2,21l-1.7,4.6-2.2-.9,1.6-4.3c.4-.9,0-1.6-.8-1.9-.8-.3-1.6,0-2,1l-1.6,4.1-2.2-.9,2.8-7.5,2.2.9-.3.7c.6-.4,1.5-.5,2.5,0,1.5.6,2.4,2.1,1.6,4.2Z"/><path d="m69.6,26.9c.5.4,1.1.5,1.6.4l.9,2c-1.3.4-2.6.1-3.8-.8-2.2-1.6-2.4-4.1-1-6,1.4-1.9,3.9-2.3,5.9-.8,1.9,1.4,2.2,3.9.7,5.8-.2.3-.4.5-.7.7l-4.5-3.4c-.3.8.2,1.5.9,2Zm2.9-1.5c.4-.9,0-1.6-.6-2-.7-.5-1.5-.6-2.2,0l2.8,2.1Z"/><path d="m86.1,31.9l-9.4,6-1.4-2.2,7.2-4.6-1.5-1.4,1.5-1.7,2.5,1.9,1.2,1.9Z"/><path class="cls-5" d="m60,28.1c-6.6-1.4-13.4-1.4-20,0-2,.4-3.9,1.9-4.3,4.5-2.5,19.9-1.6,30.9,1.8,51,.5,2.7,2.3,5.2,4,5.5,5.7,1.1,11.4,1.1,17.1,0,1.7-.3,3.5-2.9,4-5.5,3.4-20.1,4.3-31.1,1.8-51-.4-2.6-2.3-4.1-4.3-4.5Z"/><path class="cls-6" d="m42.6,56c2.2.7,4.7,1.1,7.4,1.1s5.2-.4,7.4-1.1c1-.3,1-.7-.1-.7h-14.6c-1.1,0-1.2.4-.1.7Z"/><path class="cls-3" d="m57.8,35.6h-15.5c-1.6,0-2.8,1.5-2.8,3.3v10.6c0,1.8,1.3,3.3,2.8,3.3h15.5c1.6,0,2.8-1.5,2.8-3.3v-10.6c0-1.8-1.3-3.3-2.8-3.3Z"/><path class="cls-2" d="m45.2,63.4c0,.6-.4,1.1-1,1-1.3-.2-2.6-.5-3.8-.8-.6-.1-1-.8-1-1.4,0-1.2,0-2.5-.1-3.7,0-.6.4-1,1-.9,1.3.3,2.6.6,3.9.8.6,0,1,.7,1,1.3,0,1.2,0,2.5,0,3.7Z"/><path class="cls-2" d="m53,63.6c0,.6-.5,1.2-1,1.2-1.3,0-2.6,0-3.9,0-.6,0-1-.6-1-1.2,0-1.2,0-2.5,0-3.7,0-.6.5-1.1,1-1.1,1.3,0,2.6,0,3.9,0,.6,0,1,.5,1,1.1,0,1.2,0,2.5,0,3.7Z"/><path class="cls-2" d="m60.7,62.2c0,.6-.5,1.3-1,1.4-1.3.3-2.6.6-3.8.8-.6,0-1-.4-1-1,0-1.2,0-2.5,0-3.7,0-.6.5-1.2,1-1.3,1.3-.2,2.6-.5,3.9-.8.6-.1,1,.2,1,.9,0,1.2,0,2.5-.1,3.7Z"/><path class="cls-2" d="m45.3,70.9c0,.6-.4,1.1-1,1-1.3-.2-2.5-.4-3.8-.8-.5-.1-1-.8-1-1.4,0-1.2,0-2.5-.1-3.7,0-.6.4-1,1-.9,1.3.3,2.5.6,3.8.8.6,0,1,.7,1,1.3,0,1.2,0,2.5,0,3.7Z"/><path class="cls-2" d="m52.9,71.1c0,.6-.5,1.2-1,1.2-1.3,0-2.5,0-3.8,0-.6,0-1-.6-1-1.2,0-1.2,0-2.5,0-3.7,0-.6.4-1.1,1-1.1,1.3,0,2.6,0,3.9,0,.6,0,1,.5,1,1.1,0,1.2,0,2.5,0,3.7Z"/><path class="cls-2" d="m60.5,69.8c0,.6-.5,1.3-1,1.4-1.2.3-2.5.6-3.8.8-.5,0-1-.4-1-1,0-1.2,0-2.5,0-3.7,0-.6.5-1.2,1-1.3,1.3-.2,2.6-.4,3.8-.8.6-.1,1,.3,1,.9,0,1.2,0,2.5-.1,3.7Z"/><path class="cls-2" d="m45.4,78.5c0,.6-.4,1.1-1,1-1.2-.2-2.5-.4-3.7-.7-.5-.1-1-.8-1-1.4,0-1.2,0-2.5-.1-3.7,0-.6.4-1,.9-.9,1.2.3,2.5.6,3.7.8.5,0,1,.7,1,1.3,0,1.2,0,2.5,0,3.7Z"/><path class="cls-2" d="m52.9,78.6c0,.6-.4,1.2-1,1.2-1.2,0-2.5,0-3.7,0-.5,0-1-.6-1-1.2,0-1.2,0-2.5,0-3.7,0-.6.4-1.1,1-1.1,1.3,0,2.5,0,3.8,0,.5,0,1,.5,1,1.1,0,1.2,0,2.5,0,3.7Z"/><path class="cls-2" d="m60.3,77.3c0,.6-.5,1.3-1,1.4-1.2.3-2.4.6-3.7.7-.5,0-1-.4-1-1,0-1.2,0-2.5,0-3.7,0-.6.5-1.2,1-1.3,1.3-.2,2.5-.4,3.7-.8.5-.1,1,.3.9.9,0,1.2,0,2.5-.1,3.7Z"/><path class="cls-2" d="m52.8,86.2c0,.6-.4,1.2-1,1.2-1.2,0-2.4,0-3.6,0-.5,0-1-.6-1-1.2,0-1.2,0-2.5,0-3.7,0-.6.4-1.1,1-1.1,1.2,0,2.5,0,3.7,0,.5,0,1,.5,1,1.1,0,1.2,0,2.5,0,3.7Z"/><path class="cls-6" d="m48.9,33.8c0,.3-.2.5-.4.5h0c-.2,0-.4-.2-.4-.5v-4c0-.3.2-.5.4-.5h0c.2,0,.4.2.4.5v4Z"/><path class="cls-6" d="m50.5,33.8c0,.3-.2.5-.4.5h0c-.2,0-.4-.2-.4-.5v-4c0-.3.2-.5.4-.5h0c.2,0,.4.2.4.5v4Z"/><path class="cls-6" d="m52.1,33.8c0,.3-.2.5-.4.5h0c-.2,0-.4-.2-.4-.5v-4c0-.3.2-.5.4-.5h0c.2,0,.4.2.4.5v4Z"/><path class="cls-2" d="m52.9,49.4c-.2,0-.4,0-.6,0-.4,0-.9-.2-1.3-.2-.5,0-1-.2-1.5-.3-.6-.1-1.2-.2-1.8-.4,0,0-.2,0-.3,0-.2,0-.3-.3-.2-.5.1-.3.2-.6.4-.8.2-.5.4-.9.6-1.4.2-.3.3-.6.5-.9.4-.5,1.1-.6,1.5-.1.2.2.3.4.4.6.3.5.6.9.9,1.4.5.8,1,1.5,1.4,2.3,0,0,0,.1.1.2,0,.2,0,.4-.3.4Z"/><path class="cls-7" d="m60.7,84.9c-.2,0-.4.1-.6.2-.5.1-.9.3-1.4.4-.6.2-1.1.3-1.7.5-.7.2-1.3.4-2,.6,0,0-.2,0-.3,0-.3,0-.4-.1-.4-.4,0-.3,0-.7,0-1,0-.6,0-1.2,0-1.7,0-.4,0-.8,0-1.2.1-.7.8-1.1,1.5-.9.3,0,.5.2.7.3.5.3,1.1.6,1.6.9.9.5,1.7,1,2.6,1.5,0,0,.2,0,.2.2.2.2.2.4,0,.5Z"/><path class="cls-1" d="m39.3,84.9c.2,0,.4.1.6.2.5.1.9.3,1.4.4.6.2,1.1.3,1.7.5.7.2,1.3.4,2,.6,0,0,.2,0,.3,0,.3,0,.4-.1.4-.4,0-.3,0-.7,0-1,0-.6,0-1.2,0-1.7,0-.4,0-.8,0-1.2-.1-.7-.8-1.1-1.5-.9-.3,0-.5.2-.7.3-.5.3-1.1.6-1.6.9-.9.5-1.7,1-2.6,1.5,0,0-.2,0-.2.2-.2.2-.2.4,0,.5Z"/><path class="cls-2" d="m54,38.6c0,0,.1,0,.2,0,.2,0,.3.1.2.3,0,.1-.2.2-.2.4-.5.7-1.1,1.4-1.6,2.1-.5.6-1,1.2-1.5,1.8-.3.3-.6.5-.9.6-.5.1-.9,0-1.2-.3-.2-.2-.4-.4-.5-.6-.5-.7-1-1.5-1.4-2.2-.2-.3-.4-.7-.6-1,0,0,0,0,0,0-.1-.3,0-.4.2-.4,1,0,2-.1,3-.2.9,0,1.8-.1,2.7-.2.6,0,1.3,0,1.9-.1,0,0,0,0,0,0Z"/></svg>