<?xml version="1.0" encoding="UTF-8"?><svg id="Layer_1" xmlns="http://www.w3.org/2000/svg" viewBox="0 0 100 100"><defs><style>.cls-1{fill:#fedd46;}.cls-2{fill:#2a7ec6;}.cls-3{fill:none;stroke:#00b51e;stroke-miterlimit:10;stroke-width:4px;}.cls-4{fill:#adbbff;}.cls-5{fill:#42210b;}.cls-6{fill:#000d6a;}.cls-7{fill:#eef0fb;}.cls-8{fill:#7dcbe5;}.cls-9{fill:#529aff;}.cls-10{fill:#e5eff1;}.cls-11{fill:#1a1a1a;}.cls-12{fill:#ccf2ff;opacity:.5;}.cls-13{fill:#b9c2fe;}.cls-14{fill:#9fddea;}.cls-15{fill:#3636a0;}</style></defs><circle class="cls-3" cx="50" cy="50" r="45"/><path d="m27.5,23.6c2.5,2.3,2.5,5.5.4,7.8-2.4,2.6-6,2.7-8.4.6-2.4-2.2-2.6-5.8-.4-8.3,1.4-1.6,3.4-2.2,5.2-1.9l-.5,2.5c-.9-.2-2,.2-2.8,1.1-1.3,1.4-1.2,3.4.3,4.7,1.4,1.3,3.3,1.2,4.8-.4,1-1.1,1.2-2.3.6-3.3l-2,2.2-1.7-1.5,3.8-4.2.7.6Z"/><path d="m37.7,19.4c1.1,2.1.5,4.5-1.4,5.5-.9.5-1.8.6-2.6.3l1.9,3.5-2.1,1.1-5.3-9.9,2.1-1.1.4.7c.2-.8.7-1.5,1.6-2,1.8-1,4.2-.2,5.4,1.9Zm-2.1,1.1c-.6-1.1-1.6-1.3-2.6-.8-1,.5-1.3,1.6-.8,2.6.6,1.1,1.6,1.3,2.6.8,1-.5,1.3-1.6.8-2.6Z"/><path d="m46.7,16.5l1,4.8-2.4.5-.9-4.5c-.2-1-.9-1.3-1.7-1.1-.9.2-1.4.8-1.1,1.9l.9,4.3-2.4.5-2.3-11,2.4-.5.8,3.9c.3-.7,1-1.2,2-1.4,1.6-.3,3.2.5,3.6,2.6Z"/><path d="m48.5,17.2c.2-2.4,2.2-4.1,4.6-3.9,2.3.2,4.1,2.2,3.9,4.5-.2,2.4-2.2,4.1-4.6,3.9-2.3-.2-4.1-2.2-3.9-4.5Zm6.1.5c0-1.1-.6-1.9-1.7-2-1,0-1.9.6-2,1.7,0,1.1.6,1.9,1.7,2,1,0,1.9-.6,2-1.7Z"/><path d="m66.2,20.2l-1.7,4.6-2.2-.9,1.6-4.3c.4-.9,0-1.6-.8-1.9-.8-.3-1.6,0-2,1l-1.6,4.1-2.2-.9,2.8-7.5,2.2.9-.3.7c.6-.4,1.5-.5,2.5,0,1.5.6,2.4,2.1,1.6,4.2Z"/><path d="m69.6,26.2c.5.4,1.1.5,1.6.4l.9,2c-1.3.4-2.6.1-3.8-.8-2.2-1.6-2.4-4.1-1-6,1.4-1.9,3.9-2.3,5.9-.8,1.9,1.4,2.2,3.9.7,5.8-.2.3-.4.5-.7.7l-4.5-3.4c-.3.8.2,1.5.9,2Zm2.9-1.4c.4-.9,0-1.6-.6-2-.7-.5-1.5-.6-2.2,0l2.8,2.1Z"/><path d="m81,38.5c-1.8,1-3.7.4-5-1.9-1.3-2.3-.9-4.2.8-5.3,1-.6,2.1-.6,3.1,0,.1-.8.5-1.6,1.4-2.1,1.9-1.1,3.7-.2,4.8,1.5,1,1.8.9,3.8-1,4.9-.9.5-1.7.5-2.5.2,0,1.1-.6,2.1-1.6,2.6Zm-1-2.4c.7-.4.8-1.2.4-2-.5-.8-1.2-1.1-1.9-.7s-.8,1.2-.4,2c.5.8,1.2,1.1,1.9.7Zm2.4-4.6c-.5.3-.7.9-.4,1.6.4.6,1,.8,1.5.5.5-.3.7-.9.4-1.6-.4-.6-1-.8-1.5-.5Z"/><path class="cls-6" d="m32.6,35h20.6c2,0,3.7,1.6,3.7,3.7v43.9c0,2-1.6,3.7-3.7,3.7h-20.6c-2,0-3.7-1.6-3.7-3.7v-43.9c0-2,1.6-3.7,3.7-3.7Z"/><path class="cls-2" d="m47.8,66.2c-.2,0-.5,0-.8-.1-.6-.1-1.2-.2-1.8-.4-.7-.1-1.5-.3-2.2-.4-.9-.2-1.7-.3-2.6-.5-.1,0-.3,0-.4-.1-.3-.1-.4-.4-.3-.7.2-.4.4-.8.5-1.2.3-.7.6-1.3.9-2,.2-.4.5-.9.8-1.3.5-.8,1.5-.8,2.2-.1.2.2.4.5.6.8.4.7.9,1.3,1.3,2,.7,1.1,1.4,2.2,2.1,3.3,0,0,.1.2.2.3.1.3,0,.5-.4.5Z"/><path class="cls-2" d="m49.3,50.5c.1,0,.2,0,.3,0,.3,0,.4.2.3.4,0,.2-.2.3-.3.5-.8,1-1.5,2-2.3,3-.7.9-1.5,1.8-2.2,2.6-.4.4-.8.7-1.4.9-.7.1-1.2,0-1.8-.4-.3-.2-.5-.6-.8-.9-.7-1.1-1.4-2.1-2.1-3.2-.3-.5-.6-1-.9-1.4,0,0,0,0,0,0-.2-.4,0-.6.3-.6,1.4-.1,2.9-.2,4.3-.3,1.3,0,2.6-.2,3.8-.3.9,0,1.8-.1,2.7-.2,0,0,0,0,0,0Z"/><path class="cls-2" d="m46,35h20.6c2,0,3.7,1.6,3.7,3.7v43.9c0,2-1.6,3.7-3.7,3.7h-20.6c-2,0-3.7-1.6-3.7-3.7v-43.9c0-2,1.6-3.7,3.7-3.7Z"/><path class="cls-15" d="m66.6,35h-20.6c-2,0-3.7,1.6-3.7,3.7v43.9l27.9-43.9c0-2-1.6-3.7-3.7-3.7Z"/><path class="cls-1" d="m68.1,85h-23.6c-.9,0-1.6-.8-1.6-1.8v-44.4c0-1.1.8-2,1.7-2h23.4c.9,0,1.6.8,1.6,1.8v44.6c0,1-.7,1.8-1.6,1.8Z"/><path class="cls-9" d="m58.4,51.8c-.1,0-.3,0-.4,0-.3,0-.6-.1-1-.2-.4,0-.8-.2-1.2-.2-.4,0-.9-.2-1.3-.3,0,0-.1,0-.2,0-.2,0-.2-.2-.2-.4,0-.2.2-.4.3-.6.2-.3.3-.7.5-1,.1-.2.2-.5.4-.7.3-.4.8-.4,1.1,0,.1.1.2.3.3.4.2.3.4.7.7,1,.4.6.7,1.1,1.1,1.7,0,0,0,.1,0,.2,0,.2,0,.3-.2.3Z"/><path class="cls-9" d="m59.2,43.6c0,0,.1,0,.2,0,.1,0,.2.1.1.2,0,0-.1.2-.2.3-.4.5-.8,1-1.2,1.5-.4.5-.8.9-1.1,1.4-.2.2-.4.4-.7.5-.3,0-.6,0-.9-.2-.2-.1-.3-.3-.4-.5-.4-.6-.7-1.1-1.1-1.7-.2-.2-.3-.5-.4-.7,0,0,0,0,0,0,0-.2,0-.3.2-.3.8,0,1.5-.1,2.3-.2.7,0,1.3,0,2-.1.5,0,.9,0,1.4,0,0,0,0,0,0,0Z"/><path d="m51.7,65.7c.8,0,1.5.2,2.1.7.5.5.8,1.2.8,2s-.3,1.6-.9,2.1-1.3.7-2.2.7-1.4-.2-1.9-.5-.9-.8-1.2-1.4l1.9-1.1c.2.6.6.9,1.2.9s.5,0,.7-.2c.2-.1.2-.3.2-.6s0-.4-.2-.6-.4-.2-.7-.2h-2.7l.3-4.9h4.9v2h-3v.9c0,0,.5,0,.5,0Z"/><path d="m63.8,66.4v.9c0,1.2-.4,2.2-1.2,3-.8.8-1.8,1.1-3,1.1s-2.4-.4-3.2-1.3-1.3-1.9-1.3-3.1.4-2.3,1.3-3.1,1.9-1.3,3.1-1.3,1.5.2,2.2.5c.7.4,1.2.8,1.5,1.4l-1.8,1c-.2-.3-.4-.5-.7-.6s-.7-.2-1.1-.2c-.7,0-1.2.2-1.6.6-.4.4-.6,1-.6,1.7s.2,1.2.6,1.6c.4.4,1,.7,1.8.7s1.6-.4,1.9-1.1h-2v-1.8h4.2Z"/><path class="cls-12" d="m44.2,83.6c-.4.7-1.4.4-1.4-.5v-44.3c0-1.1.8-2,1.7-2h23.7c.7,0,1.1.8.7,1.5l-24.7,45.3Z"/><path class="cls-11" d="m59.2,38.4c0,.3-.2.5-.5.5h-4.7c-.3,0-.5-.2-.5-.5h0c0-.3.2-.5.5-.5h4.7c.3,0,.5.2.5.5h0Z"/><rect class="cls-5" x="31.2" y="37.5" width="9.8" height="9.5" rx="2" ry="2"/><circle cx="33.8" cy="40.5" r=".9"/><path class="cls-8" d="m33.9,42.1c-1.1,0-1.9-.9-1.9-2,0-1.1.9-1.9,2-1.9,1.1,0,1.9.9,1.9,2,0,1.1-.9,1.9-2,1.9Zm-.9-2.1c-.1.3,0,.5.1.7.2.4.6.6,1,.5.4,0,.7-.4.8-.7.1-.4,0-.9-.5-1.1-.2-.1-.5-.2-.7-.1-.5,0-.8.3-.7.8Z"/><path class="cls-14" d="m33.7,39.2c.2,0,.5,0,.7.1.4.2.6.6.5,1.1,0,.4-.4.6-.8.7-.4,0-.8-.1-1-.5-.1-.2-.2-.4-.1-.7.1,0,.3.1.4.1,0,.2,0,.5.3.5.2,0,.5,0,.6-.3.2-.4,0-.6-.5-.7,0-.2,0-.4-.2-.5Z"/><path class="cls-10" d="m33.7,39.2c.1.1.2.3.2.5-.1.2-.2.3-.4.4-.2,0-.3,0-.4-.1-.1-.5.2-.8.7-.8Z"/><circle cx="38.2" cy="40.5" r=".9"/><path class="cls-8" d="m38.4,42.1c-1.1,0-1.9-.9-1.9-2,0-1.1.9-1.9,2-1.9,1.1,0,1.9.9,1.9,2,0,1.1-.9,1.9-2,1.9Zm-.9-2.1c-.1.3,0,.5.1.7.2.4.6.6,1,.5.4,0,.7-.4.8-.7.1-.4,0-.9-.5-1.1-.2-.1-.5-.2-.7-.1-.5,0-.8.3-.7.8Z"/><path class="cls-14" d="m38.1,39.2c.2,0,.5,0,.7.1.4.2.6.6.5,1.1,0,.4-.4.6-.8.7-.4,0-.8-.1-1-.5-.1-.2-.2-.4-.1-.7.1,0,.3.1.4.1,0,.2,0,.5.3.5.2,0,.5,0,.6-.3.2-.4,0-.6-.5-.7,0-.2,0-.4-.2-.5Z"/><path class="cls-10" d="m38.1,39.2c.1.1.2.3.2.5-.1.2-.2.3-.4.4-.2,0-.3,0-.4-.1-.1-.5.2-.8.7-.8Z"/><circle cx="33.8" cy="44.3" r=".5"/><path class="cls-13" d="m33.9,45.2c-.6,0-1.1-.5-1.1-1.1,0-.6.5-1.1,1.1-1.1.6,0,1.1.5,1.1,1.1,0,.6-.5,1.1-1.1,1.1Zm-.5-1.2c0,.1,0,.3,0,.4.1.2.3.3.6.3.2,0,.4-.2.4-.4,0-.2,0-.5-.3-.6-.1,0-.3,0-.4,0-.3,0-.5.2-.4.4Z"/><path class="cls-4" d="m33.8,43.6c.1,0,.3,0,.4,0,.2.1.3.4.3.6,0,.2-.2.4-.4.4-.2,0-.5,0-.6-.3,0-.1-.1-.2,0-.4,0,0,.2,0,.2,0,0,.1,0,.3.2.3.1,0,.3,0,.3-.1,0-.2,0-.3-.3-.4,0,0,0-.2,0-.3Z"/><path class="cls-7" d="m33.8,43.6c0,0,.1.2,0,.3,0,0-.1.2-.2.2,0,0-.2,0-.2,0,0-.3,0-.4.4-.4Z"/><circle cx="38.3" cy="44.3" r=".3"/><path class="cls-8" d="m38.4,44.7c-.3,0-.6-.3-.6-.6,0-.3.3-.6.6-.6.3,0,.6.3.6.6,0,.3-.3.6-.6.6Zm-.3-.7c0,0,0,.1,0,.2,0,.1.2.2.3.1.1,0,.2-.1.2-.2,0-.1,0-.3-.2-.3,0,0-.1,0-.2,0-.2,0-.3.1-.2.2Z"/><path class="cls-14" d="m38.3,43.8c0,0,.2,0,.2,0,.1,0,.2.2.2.3,0,.1-.1.2-.2.2-.1,0-.3,0-.3-.1,0,0,0-.1,0-.2,0,0,0,0,.1,0,0,0,0,.1.1.2,0,0,.2,0,.2,0,0-.1,0-.2-.2-.2,0,0,0-.1,0-.2Z"/><path class="cls-10" d="m38.3,43.8s0,0,0,.2c0,0,0,0-.1.1,0,0,0,0-.1,0,0-.1,0-.2.2-.2Z"/></svg>