<?xml version="1.0" encoding="UTF-8"?><svg id="Layer_1" xmlns="http://www.w3.org/2000/svg" viewBox="0 0 100 100"><defs><style>.cls-1{fill:#565959;}.cls-2{fill:#414343;}.cls-3{fill:#fedd46;}.cls-4{fill:none;stroke:#00b51e;stroke-miterlimit:10;stroke-width:4px;}.cls-5{opacity:.5;}.cls-6{fill:#6e6f6e;}.cls-7{fill:#ccf2ff;}.cls-8{fill:#414242;}</style></defs><circle class="cls-4" cx="50" cy="50" r="45"/><path d="m34.9,22.3c1.9,2.8,1.1,5.9-1.5,7.6-2.9,2-6.5,1.2-8.3-1.4-1.8-2.7-1.1-6.3,1.6-8.1,1.8-1.2,3.9-1.3,5.5-.6l-1.1,2.2c-.8-.4-2-.3-3,.4-1.6,1.1-2,3-.9,4.6,1.1,1.6,3,2,4.8.8,1.2-.8,1.7-1.9,1.4-3l-2.5,1.7-1.2-1.9,4.7-3.1.5.8Z"/><path d="m39.8,20.5l.9,2.7c.2.7.8.5,1.8.2l.7,2.1c-2.9,1.3-4,.6-4.7-1.5l-.9-2.7-1.2.4-.7-2.2,1.2-.4-.5-1.4,2.1-1.4.7,2.1,1.6-.5.7,2.2-1.6.5Z"/><path d="m51.2,16.5l.6,8-2.4.2v-.8c-.5.6-1.3,1.1-2.4,1.1-2.1.2-3.9-1.6-4.1-3.9-.2-2.4,1.4-4.3,3.5-4.5,1.1,0,1.9.2,2.5.8v-.8c0,0,2.3-.2,2.3-.2Zm-2.1,4.2c0-1.2-.9-1.9-2-1.8-1.1,0-1.8.9-1.8,2.1s.9,1.9,2,1.8c1.1,0,1.8-.9,1.8-2.1Z"/><path d="m62.1,22.6c-.5,2.3-2.6,3.7-4.7,3.3-1-.2-1.7-.8-2.1-1.5l-.2.7-2.3-.5,2.5-10.9,2.3.5-.9,3.9c.7-.5,1.5-.7,2.5-.4,2,.5,3.3,2.6,2.8,5Zm-2.3-.5c.3-1.2-.3-2.1-1.4-2.3-1.1-.2-2,.3-2.3,1.5-.3,1.2.3,2.1,1.4,2.3,1.1.2,2-.3,2.3-1.5Z"/><path d="m65.7,26.7l5.3-1c.9-.2,1.7-.4,2.1-.9.4-.6.3-1.2-.3-1.7-.6-.5-1.4-.4-2,0l-1-2.3c1.6-.9,3.2-.7,4.5.2,1.6,1.2,2.3,3.3,1,5.1-.8,1.1-2,1.6-3.5,1.8l-2.6.4,3,2.2-1.4,2-6.2-4.5,1.1-1.5Z"/><path class="cls-1" d="m32.3,87c0-.1-.2-.1-.2-.1-1.4-.6-2.2-1.6-2.2-3.1v-44.5c0-1.9,1.3-3.3,3.1-3.3,10.5,0,21,0,31.6,0,0,0,0,0,.1,0,0,.2.2.2.3.2,1.2.6,1.9,1.6,1.9,2.9,0,1,0,2,0,3h-3.1c-2.9,0-5.8,0-8.6,0-.2,0-.4,0-.5.3-.5.5-1,1-1.6,1.5-1.8,1.7-4.6,1.7-6.4,0-.5-.5-1-.9-1.4-1.4-.2-.2-.5-.4-.8-.3-3.6,0-7.3,0-10.9,0-.5,0-.6.1-.6.6,0,12.5,0,25,0,37.5,0,.5.2.6.6.6,9.9,0,19.8,0,29.8,0,.2,0,.3,0,.5,0h3.1c0,1,0,2,0,3,0,1.4-.6,2.4-1.9,3-.1,0-.3,0-.3.3h-32.5Zm14.6-3.9h-2.9c-.6,0-.9.3-.9.8s.3.8.9.8h5.8c.5,0,1-.4,1-.8s-.5-.8-1-.8c-.9,0-1.9,0-2.8,0h0Zm3.1-44.1c-.9,0-1.5.7-1.5,1.5,0,0,0,0,0,0,0,.9.7,1.5,1.6,1.5.8,0,1.5-.7,1.5-1.5,0-.9-.7-1.5-1.5-1.5,0,0,0,0,0,0h0Zm6.9,44.9c0-.4-.3-.8-.7-.8s-.8.5-.8.9c0,.4.3.7.7.7.4,0,.8-.4.8-.8,0,0,0,0,0,0Zm-3.8-.8c-.3,0-.8.4-.8.8s.4.8.8.8c.3,0,.8-.4.8-.8s-.4-.8-.8-.8h0Z"/><rect class="cls-3" x="32" y="38" width="35" height="44" rx="2.8" ry="2.8"/><path class="cls-8" d="m64.8,87c0-.2.2-.2.3-.3,1.3-.6,1.9-1.6,1.9-3,0-1,0-2,0-3v-38.7c0-1,0-2,0-3,0-1.3-.6-2.3-1.9-2.9-.1,0-.3,0-.3-.2.7,0,1.5,0,2.2,0,1.6,0,3,1.3,3,3,0,.2,0,.4,0,.6,0,14.5,0,29,0,43.4,0,1.9-.6,3.4-2.5,4h-2.8Z"/><path class="cls-6" d="m46.9,83.2h2.8c.6,0,1,.4,1,.8s-.5.8-1,.8h-5.8c-.6,0-.9-.3-.9-.8s.3-.8.9-.8c1,0,1.9,0,2.9,0Z"/><path class="cls-2" d="m56.9,83.9c0,.4-.3.8-.7.8,0,0,0,0,0,0-.4,0-.7-.3-.7-.7,0-.4.4-.8.8-.9s.7.4.7.8Z"/><path class="cls-2" d="m53.1,83.2c.3,0,.8.5.8.8s-.4.8-.8.8c-.4,0-.8-.5-.8-.8s.5-.8.8-.8Z"/><g class="cls-5"><path class="cls-7" d="m51.7,55.5c-.2,0-.4,0-.6,0-.4,0-.8-.2-1.2-.2-.5,0-1-.2-1.5-.3-.6-.1-1.1-.2-1.7-.3,0,0-.2,0-.3,0-.2,0-.3-.2-.2-.5.1-.3.2-.5.4-.8.2-.4.4-.9.6-1.3.1-.3.3-.6.5-.8.4-.5,1-.5,1.4,0,.2.2.3.3.4.5.3.4.6.9.8,1.3.5.7.9,1.4,1.4,2.2,0,0,0,.1.1.2,0,.2,0,.3-.3.3Z"/><path class="cls-7" d="m52.7,45.1c0,0,.1,0,.2,0,.2,0,.3.1.2.3,0,.1-.1.2-.2.3-.5.7-1,1.3-1.6,2-.5.6-1,1.2-1.5,1.7-.2.3-.5.5-.9.6-.4,0-.8,0-1.2-.3-.2-.2-.4-.4-.5-.6-.5-.7-.9-1.4-1.4-2.1-.2-.3-.4-.6-.6-1,0,0,0,0,0,0-.1-.2,0-.4.2-.4,1,0,1.9-.1,2.9-.2.8,0,1.7-.1,2.5-.2.6,0,1.2,0,1.8-.1,0,0,0,0,0,0Z"/></g><path d="m43.7,69.3c1.2,0,2.2.3,3,1,.8.7,1.2,1.7,1.2,3s-.4,2.4-1.3,3.1c-.9.7-1.9,1.1-3.2,1.1s-2-.2-2.8-.7-1.4-1.2-1.7-2.1l2.7-1.6c.3.8.9,1.3,1.8,1.3s.8-.1,1-.3c.2-.2.4-.5.4-.8s-.1-.6-.4-.8c-.2-.2-.6-.3-1-.3h-3.9l.5-7.2h7.2v3h-4.3v1.3c0,0,.8,0,.8,0Z"/><path d="m61.3,70.2v1.2c0,1.8-.6,3.2-1.7,4.4-1.1,1.1-2.6,1.7-4.4,1.7s-3.5-.6-4.7-1.8-1.8-2.7-1.8-4.5.6-3.3,1.8-4.5,2.7-1.9,4.5-1.9,2.2.3,3.1.8,1.7,1.2,2.2,2l-2.7,1.5c-.2-.4-.6-.7-1.1-.9-.5-.2-1-.3-1.6-.3-1,0-1.8.3-2.4.9s-.9,1.4-.9,2.4.3,1.7.9,2.4c.6.7,1.5,1,2.6,1s2.4-.5,2.8-1.6h-3v-2.7h6.2Z"/></svg>