<?xml version="1.0" encoding="UTF-8"?><svg id="Layer_1" xmlns="http://www.w3.org/2000/svg" viewBox="0 0 100 100"><defs><style>.cls-1{fill:none;stroke:#00b51e;stroke-miterlimit:10;stroke-width:4px;}.cls-2{fill:#073856;}.cls-3{fill:#999;}.cls-4{fill:#db411d;}.cls-5{fill:#666;}.cls-6{fill:#b72b06;}</style></defs><circle class="cls-1" cx="50" cy="50" r="45"/><path class="cls-4" d="m60.9,84.6c0,.8-4.9,1.4-11,1.4h0c-6.1,0-11-.6-11-1.4v-52.1c0-.8,4.9-1.4,11-1.4h0c6.1,0,11,.6,11,1.4v52.1Z"/><path class="cls-6" d="m38.9,33.8v.5c1.4-.4,5.3-.8,11-.8s9.6.4,11,.8v-.5c-2.7-.8-9.4-.8-11-.8s-8.2,0-11,.8Z"/><path class="cls-6" d="m60.9,83.2v-.5c-1.4.4-5.3.8-11,.8s-9.6-.4-11-.8v.5c2.7.8,9.4.8,11,.8s8.2,0,11-.8Z"/><path class="cls-6" d="m49.9,39.5c-3.2,0-6.2.1-8.4.3-1.2,0-2,.2-2.6.3v.6c1.5-.3,5.3-.6,11-.6s9.5.3,11,.6v-.6c-.6-.1-1.4-.2-2.6-.3-2.2-.2-5.2-.3-8.4-.3Z"/><path class="cls-6" d="m60.9,76.3c-1.5.3-5.3.6-11,.6s-9.5-.3-11-.6v.6c.6.1,1.4.2,2.6.3,2.2.2,5.2.3,8.4.3s6.2-.1,8.4-.3c1.2,0,2-.2,2.6-.3v-.6Z"/><rect class="cls-6" x="38.9" y="41.9" width="21.9" height="33.3"/><path class="cls-5" d="m66.7,60.3c-.3.6-.8.8-1.1.5l-2.8-2.6c-.3-.3-.2-.9,0-1.5l3.3-5.7c.3-.6.8-.8,1.1-.5l2.8,2.6c.3.3.2.9,0,1.5l-3.3,5.7Z"/><path class="cls-2" d="m70.9,42c.4,0,.7,0,1.1,0,1,0,1.5.8,1.1,2-.3.8-.7,1.6-1.1,2.4-2.6,4.6-5.1,9.3-7.7,13.9-2.4,4.2-4.8,8.3-7.3,12.3-1.2,2-2.7,3.5-4.7,4.2-2.4.8-4.5,0-6.5-1.6-1.2-1-2.1-2.4-2.9-3.9-2.8-4.7-5.5-9.4-8.2-14.2-1.2-2.1-2.3-4.2-3.5-6.3,0-.1-.1-.2-.2-.4-.7-1.6-.4-2.6,1.1-2.8,5.2-.8,10.4-1.5,15.6-2.3,4.6-.7,9.2-1.3,13.7-2,3.2-.5,6.5-.9,9.7-1.3,0,0,0,0,0,0Z"/><path class="cls-3" d="m68.5,44.4c.3,0,.6,0,.9,0,.8,0,1.3.7.9,1.7-.3.7-.6,1.4-1,2.1-2.2,4-4.4,8.1-6.7,12.1-2.1,3.6-4.2,7.2-6.4,10.7-1.1,1.7-2.4,3.1-4.1,3.7-2.1.7-3.9,0-5.7-1.4-1.1-.9-1.8-2.1-2.5-3.4-2.4-4.1-4.8-8.2-7.2-12.3-1-1.8-2-3.7-3-5.5,0-.1-.1-.2-.2-.3-.6-1.4-.3-2.2.9-2.4,4.5-.7,9-1.3,13.5-2,4-.6,8-1.2,12-1.7,2.8-.4,5.7-.7,8.5-1.1,0,0,0,0,0,0Z"/><path d="m30,25.7c2.6,2.6,2.3,5.9,0,8.3-2.6,2.6-6.5,2.6-8.9.2-2.4-2.4-2.4-6.3,0-8.8,1.6-1.6,3.8-2.2,5.6-1.7l-.7,2.6c-.9-.2-2.1.1-3,1.1-1.4,1.4-1.4,3.5,0,5,1.4,1.4,3.5,1.5,5.1-.2,1.1-1.1,1.4-2.3.9-3.4l-2.2,2.2-1.7-1.7,4.2-4.2.7.7Z"/><path d="m42.4,17.1l.6,8.9-2.2.9-3-3.7.4,4.7-2.2.9-5.7-6.9,2.5-1,2.8,3.8-.5-4.7,2.2-.9,2.9,3.7-.6-4.7,2.5-1Z"/><path d="m53.9,16.5l.3,8.5h-2.5c0,0,0-.7,0-.7-.5.7-1.4,1.1-2.5,1.1-2.2,0-4.1-1.8-4.2-4.3,0-2.5,1.7-4.6,3.9-4.6,1.1,0,2,.3,2.6.9v-.8s2.5,0,2.5,0Zm-2.4,4.3c0-1.3-.9-2-2.1-2-1.2,0-2,.9-1.9,2.2s.9,2,2.1,2c1.2,0,2-.9,1.9-2.1Z"/><path d="m59.8,20.2l-.7,2.9c-.2.7.4.9,1.5,1.1l-.5,2.3c-3.3-.4-4.1-1.6-3.5-3.9l.7-2.9-1.3-.3.5-2.4,1.3.3.4-1.6,2.7-.2-.5,2.3,1.7.4-.5,2.4-1.7-.4Z"/><path d="m62.4,22.6c1.1-2.3,3.7-3.2,6-2.1,1.5.7,2.4,2.1,2.5,3.6l-2.6.2c0-.7-.4-1.2-1.1-1.6-1-.5-2.1-.1-2.6.9-.5,1.1-.1,2.1.9,2.6.7.3,1.4.3,1.9-.1l1.5,2.1c-1.2.9-2.9,1-4.4.3-2.3-1.1-3.2-3.7-2.1-6Z"/><path d="m77.8,31.8l-3.5,3.9-1.9-1.7,3.2-3.6c.7-.8.5-1.6,0-2.1-.7-.6-1.5-.6-2.3.3l-3.1,3.5-1.9-1.7,7.9-8.9,1.9,1.7-2.8,3.1c.8-.2,1.7,0,2.5.8,1.3,1.1,1.6,3,0,4.7Z"/></svg>