<svg xmlns="http://www.w3.org/2000/svg" xmlns:xlink="http://www.w3.org/1999/xlink" viewBox="0 0 128 128" xmlns:v="https://vecta.io/nano"><style><![CDATA[.A{isolation:isolate}.V{mix-blend-mode:multiply}.AB{fill:#086b92}.AC{fill:#7c7b7b}.AD{fill:#f05151}.AE{fill:#121520}.AF{fill:#1899cb}.AG{fill:#575757}.AH{fill:#2c65b0}.AI{fill:#143055}.AJ{fill:#de302c}.AK{fill:#c12126}.AL{fill:#dadae4}.AM{fill:#9fa4be}.AN{fill:#fbac1d}]]></style><defs><linearGradient id="A" x1="93.5" y1="20.6" x2="94.3" y2="41.9" gradientUnits="userSpaceOnUse"><stop offset="0" stop-color="#ccc"/><stop offset="1" stop-color="#b7b7b8"/></linearGradient><path id="B" d="M85 89.5c.4.8.7 1.6.7 2.3s-.2 1-.5 1.2-.7.1-1.2-.2c-.6-.4-1.2-1-1.6-1.7-.4-.8-.7-1.6-.7-2.3s.2-1 .5-1.2.7-.1 1.2.2c.6.3 1.2 1 1.6 1.7z"/><path id="C" d="M84.5 89.7a1.9 1.9 0 0 1 .3.9c0 .2 0 .4-.2.5h-.5c-.2-.1-.5-.4-.7-.7a1.9 1.9 0 0 1-.3-.9c0-.2 0-.4.2-.5h.5c.2.1.5.4.7.7z"/><path id="D" d="M22.9 97c0-.8-.5-1.1-1.2-.7s-1.2 1.3-1.2 2.1.5 1.1 1.2.7 1.2-1.3 1.2-2.1z"/><path id="E" d="M25.3 49.8c0-1.6 1.1-2.2 2.5-1.4s2.5 2.7 2.5 4.3-1.1 2.2-2.5 1.4-2.5-2.7-2.5-4.3z"/><path id="F" d="M28.3 50.9c.4.7.6 1.5.6 2.1s-.2.9-.4 1.1c-.3.2-.7 0-1.2-.2-.6-.3-1.1-.9-1.5-1.6s-.6-1.5-.6-2.1.2-.9.4-1.1c.3-.2.7 0 1.2.2.6.3 1.1.9 1.5 1.6z"/><path id="G" d="M34.5 50.2v.6c.5-.5.9-1.1 1.1-1.7v-.5c0-.5-.2-1-.5-1.5s-.7-.9-1.1-1.2c-.1 0-.3-.2-.4-.2-.7-.2-1.4 0-2 0 .2 0 .3.1.5.2 1.4.8 2.5 2.7 2.5 4.3z"/></defs><g class="A"><path d="M84.5 89.7l1.9 3.2 3.6-2.4c.2-.1.3-.2.4-.3.3-.2.7-.6 1.1-1v-.6c0-1.7-1.2-3.7-2.6-4.6-.2-.1-.4-.2-.5-.2-.6.1-1.1.3-1.4.5-.1 0-.3.1-.5.2l-3.8 1.9 1.9 3.2z" class="AB"/><g class="AD"><path d="M82.5 86.6l3.8 6.5-.7.4-3.8-6.5.7-.4z"/><path d="m81.7,88.3c0-1.7,1.2-2.4,2.6-1.5,1.5.8,2.6,2.9,2.6,4.6s-1.2,2.4-2.6,1.5c-1.5-.8-2.6-2.9-2.6-4.6Z"/></g><path d="m81,88.7c0-1.7,1.2-2.4,2.6-1.5,1.5.8,2.6,2.9,2.6,4.6s-1.2,2.4-2.6,1.5c-1.5-.8-2.6-2.9-2.6-4.6Z" class="AC"/><use xlink:href="#B" class="AE"/><use xlink:href="#C" class="AG"/><path d="M82.9 89.6c.4-.3 1-.1 1.3.3s.1 1-.3 1.3-1 .1-1.3-.3-.1-1 .3-1.3z" class="AC"/><path d="M92.7 86.9v.5c-.1.6-.5 1.1-.9 1.6 0 .1-.2.2-.3.3v-.5-.1c0-1.5-.9-3.3-2.1-4.2-.2-.1-.3-.3-.5-.4s-.4-.2-.5-.2h0c.5-.1 1.1-.2 1.6-.2h.5c.1 0 .3.1.5.2.4.3.9.7 1.2 1.3.3.5.5 1.1.5 1.6z" class="AH"/><path d="M93.7 80.9h0l-2.4 1.4h0l-2.8 1.6h0l-2.8 1.6h0l-.3-.1q0 0 0 0h-.2v-.1l-.4-.2 6-3.4 2.1-1.2.8.5z" class="AB"/><path d="M85.6 85.5l-.5 1.3-.8-.5.3-.8.2-.4h0V85l.4.2h.2q0 .1 0 .1h.3z" class="AF"/><path d="M93.6 80.9l-.3.8-1.8 1.1c-.6.3-1.1.7-1.3.8 0 0-.2.1-.3.2-.3.3-.5.6-.6.8-.7.2-1.9.8-2.8 1.3l-1.5.9.5-1.3h0l2.8-1.6h0l2.8-1.6h0l2.4-1.4z" class="AI"/><path d="M92.7 86.9v.5c-.1.6-.5 1.1-.9 1.6 0 0-.2-.1-.2-.2-2.3-1.5-3.8-2.4-5-2.9-.3-.2-.7-.3-1-.4-.1 0-.2 0-.3-.1q0 0 0 0H85c-.1 0-.2 0-.3-.1h0v-.1l6-3.4.5.7h0l.4.5c-.6.3-1.1.7-1.3.8 0 0-.2.1-.3.2h.5c.1 0 .3.1.5.2.4.3.9.7 1.2 1.3.3.5.5 1.1.5 1.6zm-30.4 2.8l1.9 3.2 3.6-2.4c.2-.1.3-.2.4-.3.3-.2.7-.6 1.1-1v-.6c0-1.7-1.2-3.7-2.7-4.6-.2-.1-.4-.2-.5-.2-.6.1-1.1.3-1.4.5-.1 0-.3.1-.5.2l-3.8 1.9 1.9 3.2z" class="AB"/><g class="AD"><path d="M60.2 86.6l3.8 6.5-.7.4-3.7-6.5.6-.4z"/><path d="m59.5,88.3c0-1.7,1.2-2.4,2.7-1.5,1.5.8,2.6,2.9,2.6,4.6s-1.2,2.4-2.6,1.5c-1.5-.8-2.7-2.9-2.7-4.6Z"/></g><path d="m58.7,88.7c0-1.7,1.2-2.4,2.7-1.5,1.5.8,2.6,2.9,2.6,4.6s-1.2,2.4-2.6,1.5c-1.5-.8-2.7-2.9-2.7-4.6Z" class="AC"/><use xlink:href="#B" x="-22.3" class="AE"/><use xlink:href="#C" x="-22.2" class="AG"/><path d="M60.7 89.6c.4-.3 1-.1 1.3.3s.1 1-.3 1.3-1 .1-1.3-.3-.1-1 .3-1.3z" class="AC"/><path d="M70.5 86.9v.5c-.1.6-.5 1.1-.8 1.6 0 .1-.2.2-.3.3v-.5-.1c0-1.5-.9-3.3-2.1-4.2-.2-.1-.3-.3-.5-.4s-.4-.2-.5-.2h0c.5-.1 1.1-.2 1.6-.2h.5c.1 0 .3.1.5.2.4.3.9.7 1.2 1.3.3.5.5 1.1.5 1.6z" class="AH"/><path d="M71.4 80.9h0l-2.3 1.3h0l-2.9 1.7h0l-2.9 1.6-.4-.2-.4-.2 6.1-3.6 2-1.1.8.5z" class="AB"/><path d="M63.3 85.5v.1l-.5 1.2-.8-.4.3-.8.1-.3.1-.2h0 0l.4.2.4.2z" class="AF"/><path d="M71.4 80.9l-.2.8-1.6 1-1.5.9s-.2.1-.3.2c-.3.3-.5.6-.6.8-.8.2-2 .8-2.9 1.4l-1.4.9.5-1.2h0l2.8-1.7h0l2.9-1.7h0l2.2-1.3z" class="AI"/><path d="M70.5 86.9v.5c-.1.6-.5 1.1-.8 1.6 0 0-.2-.1-.2-.2-2.4-1.6-3.8-2.4-5.1-2.9-.3-.1-.6-.3-.9-.4-.2 0-.5-.2-.7-.2h0-.2V85h.1l6.1-3.5.5.7h0l.4.5-1.5.9s-.2.1-.3.2h.5c.1 0 .3.1.5.2.4.3.9.7 1.2 1.3.3.5.5 1.1.5 1.6z" class="AB"/><g class="A"><path d="M84.3 24.2V26l-.9 1v-1.7l.9-1.1z" fill="#595a5a"/><path d="M96.2 35.1h0z" fill="#3e3e3e"/><path d="M93.5 35v1.7L83.4 27v-1.7L93.5 35z" fill="#4f4f4f"/><path d="M96.2 33.4L93.5 35h0l-10.1-9.7 1-1 .2.2.1.1s.1 0 .2.1c0 0 .1 0 .2.1a1.44 1.44 0 0 0 .3.2c.2.2.5.4.7.6.1 0 .2.2.3.3.3.2.6.5 1 .7.2.2.5.4.7.6s.5.4.8.6a1.44 1.44 0 0 0 .3.2l6.2 4.7c0 0 .1 0 .2.1.2.2.4.3.6.5h0z" class="AB"/><path d="M93.5 35h0l-6.6 3.9c-.2-.4-5.1-9-5.6-9.9s-1.3-2.3-1.4-2.4c0 0-.2-.3.3-.6l3.4-2h.4s.1 0 .2.1l-1 1 10.1 9.7z" class="AJ"/><path d="M79.8 26.6v-.2 1.7.2l6.9 12.3v-1.7c-.2-.4-6.9-12.2-6.9-12.3z" class="AK"/><path d="M93.5 34.9h0l-6.7 4v1.7l6.7-3.9h0 0l2.7-1.6v-1.7l-2.7 1.5z" class="AD"/></g><path d="M93.5 34.9h0l-10.1-9.7v-.1l1-1-.9 1 10 9.6z" class="AN"/><g class="AE"><path d="M22 95.9l-1.8 3 .6.3 1.8-3-.6-.3z"/><path d="M22.4 96.7c0-.8-.5-1.1-1.2-.7S20 97.3 20 98.1s.5 1.1 1.2.7 1.2-1.3 1.2-2.1z"/></g><use xlink:href="#D" fill="#1d2123"/><path d="m21.2,97.4c-.2.3-.3.7-.3,1s0,.4.1.4c0,0,.3,0,.4,0,.3-.2.5-.4.7-.8.2-.3.3-.7.3-1s0-.4-.1-.4c0,0-.3,0-.4,0-.3.1-.5.4-.7.8Z" fill="#9f9f9f"/><g class="AE"><path d="M21.5 97.6c0 .1-.1.2-.1.3v.1h.2s.2-.1.2-.3c0-.1.1-.2.1-.3v-.1h-.2s-.2.1-.2.3zm.07 2.113l1.75-3.031.606.35-1.75 3.031z"/><use xlink:href="#D" x="0.8" y="0.5"/></g><use xlink:href="#D" x="1.4" y="0.8" fill="#1d2123"/><path d="m22.5,98.2c-.2.3-.3.7-.3,1s0,.4.2.4c0,0,.3,0,.4,0,.3-.2.5-.4.7-.8.2-.3.3-.7.3-1s0-.4-.2-.4c0,0-.3,0-.4,0-.3.2-.5.4-.7.8Z" fill="#9f9f9f"/><path d="M22.9 98.4c0 .1-.1.2-.1.3v.1h.2s.2-.1.2-.3c0-.1.1-.2.1-.3v-.1h-.2s-.2.1-.2.3z" class="AE"/><path d="M27.9 51.2l1.8 3L33 52c.2-.1.3-.2.4-.3.3-.2.7-.5 1.1-.9v-.6c0-1.6-1.1-3.5-2.5-4.3-.2-.1-.3-.2-.5-.2-.5.1-1 .3-1.3.5a.76.76 0 0 0-.4.2l-3.6 1.8 1.8 3z" class="AB"/><g class="AD"><path d="M26 48.2l3.6 6.1-.7.3-3.5-6 .6-.4z"/><use xlink:href="#E"/></g><use xlink:href="#E" x="-0.7" y="0.4" class="AC"/><use xlink:href="#F" class="AE"/><path d="M27.9 51.2c.2.3.3.6.3.9s0 .4-.2.4h-.5a1.41 1.41 0 0 1-.6-.7c-.2-.3-.3-.6-.3-.9s0-.4.2-.4h.5a1.41 1.41 0 0 1 .6.7z" class="AG"/><path d="m26.4,51c.4-.2.9,0,1.2.3.2.4,0,.9-.3,1.2-.4.2-.9,0-1.2-.3-.2-.4,0-.9.3-1.2Z" class="AC"/><use xlink:href="#G" class="AH"/><path d="M36.5 42.9l-7.6 4.3-.8-.4 7.6-4.4.8.5z" class="AB"/><path d="M28.9 47.2l-.5 1.3-.8-.5.5-1.2.8.4z" class="AF"/><path d="m28.9,47.2l-.5,1.2s2.7-1.7,4.1-2.1c0,0,.3-.6.8-1,.6-.4,2.9-1.7,2.9-1.7l.2-.7-7.5,4.3Z" class="AI"/><path d="M29.8 65.8l1.8 3 3.3-2.2c.2-.1.3-.2.4-.3.3-.2.7-.5 1.1-.9v-.6c0-1.6-1.1-3.5-2.5-4.3-.2 0-.3-.2-.5-.2-.5.1-1 .3-1.3.5a.76.76 0 0 0-.4.2l-3.6 1.8 1.8 3z" class="AB"/><g class="AD"><path d="M27.8 62.8l3.6 6.1-.7.3-3.5-6 .6-.4z"/><use xlink:href="#E" x="1.8" y="14.6"/></g><use xlink:href="#E" x="1.1" y="15" class="AC"/><use xlink:href="#F" x="1.8" y="14.6" class="AE"/><path d="M29.8 65.8c.2.3.3.6.3.9s0 .4-.2.5h-.5a1.41 1.41 0 0 1-.6-.7c-.2-.3-.3-.6-.3-.9s0-.4.2-.4h.5a1.41 1.41 0 0 1 .6.7z" class="AG"/><path d="m28.2,65.6c.4-.2.9,0,1.2.3.2.4,0,.9-.3,1.2-.4.2-.9,0-1.2-.3-.2-.4,0-.9.3-1.2Z" class="AC"/><use xlink:href="#G" x="1.8" y="14.6" class="AH"/><path d="M38.3 57.5l-7.6 4.3-.8-.4 7.6-4.4.8.5z" class="AB"/><path d="M30.7 61.8l-.5 1.2-.8-.4.5-1.2.8.4z" class="AF"/><path d="m30.7,61.8l-.5,1.2s2.7-1.7,4.1-2.1c0,0,.3-.6.8-1,.6-.4,2.9-1.7,2.9-1.7l.2-.7-7.5,4.3Z" class="AI"/><path d="M55.9 56.8l-1 .6-.3.2-2 1.2-.3.2-16.8 9.7-.4.2-2.3 1.3L32 61v-.3L30.9 48s0-1.1-.2-2.7V45l-1.1-12v-.2s0-.2.1-.2c.2-.3.6-.6 1.3-1l4-2.4c.7-.4 1 .3 1 .3l2 4.3 7.5 15.9c.6 1.3.8 1.7 1.8 2.2l8.6 5z" class="AL"/><g class="AM"><path d="M54.7 57.5l.3-.2-11-6.4-5.5-11.4 1.9-1.1s0-.2-.1-.3l-1.9 1.1-3.1-9 1-.6v-.3c-.1 0-1.4.7-1.4.7v.1l3.2 9.2-1.1.6v.1l4.6 10.7h.2l1.7.2-1.3.8v.2l10.4 6.8.3-.2-2.6-1.7 1.8-1.1 2.8 1.6zM37.3 40.2l.8-.5 1.1 2.4-1.1.2-.9-2.1zm1 2.3l1.1-.2 1.4 2.8-1.2.2-1.2-2.9zm1.3 3.1l1.2-.2 1.5 3.1h-1.5l-1.3-2.9zm2.2 5.1l-.8-1.9h1.5l1 2.1h-1.7zm.6 1.2l1.3-.8 3.1 1.8-1.5.9-2.9-1.9zm7.3 4.8L45.6 54l1.5-.9 4.4 2.6-1.8 1.1zM35.6 68.6l-.4.2-1.2-9-1.8 1.1v-.3l1.9-1.1-2-15.1-1.2.7v-.3h0l1.1-.7h.1l-1.5-11.2-.8-.2s0-.2.1-.2l1 .3h.1l4.7 35.8z"/><path d="M103 36.9c-.7 1.6-3.6 8.3-5 10.2s-2.8 4.8-5.2 7.2l-.4.4c-2.2 2.3-4.1 4.2-7.9 7.4-.5.4-1 .8-1.5 1.3-.4.4-.9.8-1.3 1.1-3 2.6-6 5-9 6.8-3.9 2.4-20.1 11.6-28.9 16.8-8.7 5.2-14.1 7.3-20.4 8.8-.8.2-1.5.3-2.3.5-4.9.9-8 .6-9.9.5-4-.4-4-.9-4.4-1.3-.7-.8 0-2.3.4-3.7l.3-.9c.3-1.4 1-3.2 1.4-5 .4-1.7 2.2-4.4 4.3-5.9s5.8-3.8 13-7.9l48.9-28c.8-.5 1.6-.9 2.4-1.4l1.5-.9c7.4-4.1 11.8-5.8 15.5-7.1 2.8-1.1 4.9-1.7 6.2-2 .5-.1.8-.1 1.1-.1.8 0 1.8 1.6 1.1 3.2z"/></g><path d="M100.9 33.9c-1.1 2.6-3.2 7.1-4.3 8.6-1.4 1.9-2.8 4.8-5.2 7.2-2.4 2.5-4.2 4.4-8.2 7.8s-7.9 6.8-11.9 9.3c-3.9 2.4-20.1 11.6-28.9 16.8-8.7 5.2-14.1 7.9-20.3 9.8-8.9 2.8-14.9 2.2-15.5 2.1 0-.5.3-1.6.6-2.4v-.3c.1-.4.2-.7.2-.7.1-.6.4-1.4.6-2.1 0-.1 0-.2.1-.3.2-.5.3-1 .5-1.5 0-.3.2-.7.3-1v-.1c.5-1.7 2.2-4.4 4.3-5.8 2.1-1.5 5.8-3.8 13-7.9L77.6 44c8.2-4.7 13-6.5 16.9-8h.1c2.8-1.1 4.9-1.7 6.2-2z" fill="#d1d4e2"/><path d="M103 36.9c-.7 1.6-3.5 8.1-4.9 10.1-1.4 1.9-2.8 4.8-5.2 7.2l-.4.4c-2.2 2.3-4.1 4.2-7.9 7.4-.5.4-1 .8-1.5 1.3.1-.7.3-1.5.7-2.5 2.5-7.8-1.9-13.6-3.1-14.6-.9-.8-3.2-1.1-5.4-1.1.8-.5 1.6-.9 2.4-1.4l1.5-.9c7.4-4.1 11.8-5.8 15.5-7.1 2.8-1.1 4.9-1.7 6.2-2 .3 0 .5-.1.8-.1h.3c.8 0 1.8 1.6 1.1 3.2z" class="AJ"/><path d="M14.6 90.4c0 .2-1.7.8-3.5.7-1.5 0-2.5-.2-2.9-1.2 0-.1 0-.2.1-.3.2-.5.3-1 .5-1.5 0-.3.2-.7.3-1V87c-.2.9-.3 1.8.4 2.2.8.5 1.5.6 3.2.3 1.6-.2 1.7-.4 1.7-.4s.2.9.2 1.2z" fill="#4791c9"/><path class="V AK" d="M103 36.9c-.7 1.6-3.5 8.1-4.9 10.1l-4.2-2.4c-1.3-.6-3.7-.9-5.5-.5s-4.3 1.8-5.6 2.4-1.5.2-1.5.2L97.2 37a96.7 96.7 0 0 0 4.3-3.2h.3c.8 0 1.8 1.6 1.1 3.2z" opacity=".3"/><path d="M94.6 35.9l-6.9 4c-1.3.9-5.9 3.6-8 4.7-2.1 1-17 9.9-22.4 12.9L18.5 79.9c-2.4 1.4-5.9 3.8-7.2 5.3-1.2 1.5-3.4 5.9-4 7.6.1-.4.2-.7.2-.7.1-.6.4-1.4.6-2.1 0-.1 0-.2.1-.3.2-.5.3-1 .5-1.5 0-.3.2-.7.3-1v-.1c.5-1.7 2.2-4.4 4.3-5.8 2.1-1.5 5.8-3.8 13-7.9L77.7 44c8.2-4.7 13-6.5 16.9-8z" opacity=".3" class="AL"/><path d="M105.2 15.4l1.2-.7-.9-.6-5.3 3.1h-.2c-.8.6-.9 1-.9 1s-8.1 16.7-11 20.9c-1.5 2.2-4.2 4.2-4.2 4.2s-3 2-3.4 2.8l.9.6 2-1.6 3.6-2.4-.2-.2 13.8-8 4.6-19.1z" class="AD"/><path d="M106.4 14.7v.3l-4.9 20.1-20.1 11.6c.4-.9 3.4-2.8 3.4-2.8s2.7-2 4.2-4.2c2.9-4.2 11-20.9 11-20.9s.1-.4.9-.9h.2c1-.7 3.6-2.2 4.8-2.9.3-.2.5-.3.5-.3z" fill="url(#A)"/><path d="m92.5,54.7c-2.2,2.3-4.1,4.2-7.9,7.4-2.5,2.2-5,4.3-7.5,6.2-1.5,1.1-2.9,2.2-4.4,3.1-3.9,2.4-20.1,11.6-28.9,16.8-.8.5-1.5.9-2.2,1.3-7.5,4.3-12.4,6.2-18.1,7.5-.8.2-1.5.3-2.3.5,0,0,.3-.8.3-1.1,0-.3.2-.9,1.1-1.3.8-.4,9.1-5.2,10.8-6.3,1.8-1.1,22.1-12.8,22.1-12.8l21.4-12.4,15.5-8.9Z" class="AF"/><path d="M77.1 68.3l-4.4 3.1C68.8 73.8 52.6 83 43.8 88.2a61.71 61.71 0 0 1-2.2 1.3c-.7-.8-.9-2.5 3.9-5.4 6.9-4.1 27.2-17 31.5-15.7z" class="AD"/><path d="M106.4 14.7l-4.9 20.4-20.1 11.6c.4-.9 3.4-2.8 3.4-2.8s2.7-2 4.2-4.2c2.9-4.2 11-20.9 11-20.9s.1-.4.9-.9h.2c1-.7 3.6-2.2 4.8-2.9l.5-.3z" class="AJ"/><path d="M106 16.5l-2.6 1.5-2.6 8.3 3.2-1.9v.3l-3.3 1.9-.2.6 3.3-1.9v.3l-3.4 1.9-3.1 10h-.2c0 .1 6.1-19.6 6.1-19.6s0-.1.1-.1l2.7-1.6v.3z" class="AN"/><path d="M48.6 66c.2 0 0 0 .2-.1.2 0 .3 0 .2.3 0 .2-.1.4-.2.5-.5 1.1-.9 2.2-1.3 3.3l-1.1 3c-.2.5-.3.9-.6 1.3s-.7.5-1 .4c-.3 0-.4-.3-.6-.5l-1.8-2c-.3-.3-.5-.6-.8-.9 0 0-.2-.4 0-.6l2.6-1.8 2.5-1.6 1.8-1.1c.3-.2 0 0 0 0zm.8 13.1c-.2.1-.2.1-.4.3-.2.1-.6.4-.9.6l-1.1.7c-.4.3-.9.5-1.3.8h-.2c-.1 0-.3 0-.3-.4v-1.2V78v-1.4c.1-.7.4-1.4 1.1-1.1.3 0 .2.2.5.4l1 1 1.6 1.5.1.2c0 .1 0 .4-.1.5zM57 67.4v.6c0 1.2-.3 2.3-.8 3.3-.6 1-1.3 1.8-2.2 2.3s-1.7.8-2.7.2-1.2-1.4-1.3-2.6.3-2.8.9-3.9 1.4-2.1 2.5-2.6c.7-.3 1.1-.2 1.7 0s.9.6 1.3 1l-.9 1.1c-.3-.2-.4-.5-.8-.5s-.6-.1-1.1.1c-.5.3-1.2.9-1.6 1.6-.3.7-.6 1.7-.5 2.5 0 .7.2 1.3.7 1.7.6.4 1.2.1 1.7-.1s.9-.7 1.3-1.1c.4-.5.5-1 .7-1.6-.7.3-1.4.7-2.1 1.1v-1.6c1-.5 2.1-1 3.2-1.3zm3.2-2.5c.3-.1.6-.3.8-.5.5 1.7.7 3.5.9 5.2-.3.2-.6.3-1 .5v-.7c-.3.6-.6 1.2-1.2 1.4s-1 .2-1.4-.3c-.5-.5-.6-1.2-.6-1.9s.1-1.6.4-2.2.5-1 1.1-1.2c.5-.2.9 0 1.3.2 0-.2-.1-.4-.2-.6zM59 69.3c.3.2.5.3.8.1.3-.1.6-.4.7-.8.2-.3.2-.8.2-1.2s-.2-.7-.4-.9a.78.78 0 0 0-.8-.1c-.3.1-.5.4-.7.7s-.2.8-.2 1.2.1.7.4 1zm6.6-8.5c.5-.3.8-.4 1.2 0 .4.5.4.9.4 1.7s.1 2.5.2 3.5l-.8.5-.4-3.4c0-.4 0-.6-.2-.8s-.3-.2-.5 0c-.2.1-.4.3-.4.7v1.1c.2.9.3 2.1.4 3.1-.3.2-.5.4-.8.6-.1-1-.3-2.3-.5-3.3 0-.4-.1-.5-.3-.7s-.3-.1-.5 0-.3.3-.3.6v1c.2.9.3 2 .4 3-.3.2-.6.4-.9.5-.1-1.8-.4-3.6-1-5.2.3-.2.5-.4.8-.6 0 .2.1.4.2.5 0-.6.2-1.1.7-1.5.4-.4.8-.3 1.2 0 0-.6.5-1.4 1-1.6zm3.2 2.4c0 .6.5.8 1 .5s.7-.7 1-1.1c.2 0 .5.2.7.3-.3.8-1 1.8-1.7 2.1s-.9.4-1.4-.1-.6-1.1-.6-1.9.3-1.9.7-2.7c.4-.7 1.1-1.5 1.8-1.8s1.1-.4 1.5.2.3 1.4.2 2.1c0 .2-.1.5-.2.7l-3.1 1.7zm.1-1.3c.7-.4 1.4-.7 2.2-1.1 0-.3 0-.6-.3-.8-.2-.1-.4-.1-.7 0s-.6.4-.8.7-.4.8-.5 1.2zM74 56c-.2.1-.3.1-.4 0s-.2-.4-.2-.6 0-.6.1-.8.2-.4.3-.5c.2-.1.3 0 .4 0 .1.1.2.3.2.6v.8c0 .2-.3.4-.4.6zm-1.7 7.4l1.1-6.3 1.1-.6c0 2.2-.7 4.3-1.1 6.4l-1 .6zm5.2-8.9c.5-.2.8-.4 1.2 0s.6.8.5 1.7-.7 2.7-.9 3.8l-1.1.6c.3-1.1.6-2.6.8-3.7 0-.5 0-.6-.1-.9s-.4-.2-.6 0a1.85 1.85 0 0 0-.7.8c-.2.4-.3.6-.4 1.4s-.5 2.4-.8 3.3l-1.1.6c.5-2.1 1.1-4.2 1.1-6.4l1-.6v.7c.2-.6.6-1.3 1.1-1.5z" fill="#bd4328"/><path d="M85.1 53.4c0-.2-.1-.3-.3-.2h-.2c-.2.2-.3.4-.3.6v.8c0 .2.1.3.3.2h.2c.2-.2.3-.4.3-.6v-.8zM37.3 81c0-.2-.1-.3-.3-.2h-.2c-.2.2-.3.4-.3.6v.8c0 .2.1.3.3.2h.2c.2-.2.3-.4.3-.6V81zm1.9-1.1c0-.2-.1-.3-.3-.2h-.2c-.2.2-.3.4-.3.6v.8c0 .2.1.3.3.2h.2c.2-.2.3-.4.3-.6v-.8zm1.9-1.1c0-.2-.1-.3-.3-.2h-.2c-.2.2-.3.4-.3.6v.8c0 .2.1.3.3.2h.2c.2-.2.3-.4.3-.6v-.8zm2-1.1c0-.2-.1-.3-.3-.2h-.2c-.2.2-.3.4-.3.6v.8c0 .2.1.3.3.2h.2c.2-.2.3-.4.3-.6v-.8zm-15.3 8.8c0-.2-.1-.3-.3-.2h-.2c-.2.2-.3.4-.3.6v.8c0 .2.1.3.3.2h.2c.2-.2.3-.4.3-.6v-.8zm1.9-1.1c0-.2-.1-.3-.3-.2h-.2c-.2.2-.3.4-.3.6v.8c0 .2.1.3.3.2h.2c.2-.2.3-.4.3-.6v-.8zm1.9-1.1c0-.2-.1-.3-.3-.2h-.2c-.2.2-.3.4-.3.6v.8c0 .2.1.3.3.2h.2c.2-.2.3-.4.3-.6v-.8zm1.9-1.1c0-.2-.1-.3-.3-.2H33c-.2.2-.3.4-.3.6v.8c0 .2.1.3.3.2h.2c.2-.2.3-.4.3-.6v-.8zm-7.6 4.4c0-.2-.1-.3-.3-.2h-.2c-.2.2-.3.4-.3.6v.8c0 .2.1.3.3.2h.2c.2-.2.3-.4.3-.6v-.8zm19.1-11c0-.2-.1-.3-.3-.2h-.2c-.2.2-.3.4-.3.6v.8c0 .2.1.3.3.2h.2c.2-.2.3-.4.3-.6v-.8zm1.9-1.1c0-.2-.1-.3-.3-.2h-.2c-.2.2-.3.4-.3.6v.8c0 .2.1.3.3.2h.2c.2-.2.3-.4.3-.6v-.8zm1.9-1.1c0-.2-.1-.3-.3-.2h-.2c-.2.2-.3.4-.3.6v.8c0 .2.1.3.3.2h.2c.2-.2.3-.4.3-.6v-.8zm1.9-1.1c0-.2-.1-.3-.3-.2h-.2c-.2.2-.3.4-.3.6v.8c0 .2.1.3.3.2h.2c.2-.2.3-.4.3-.6v-.8zm1.9-1.2c0-.2-.1-.3-.3-.2h-.2c-.2.2-.3.4-.3.6v.8c0 .2.1.3.3.2h.2c.2-.2.3-.4.3-.6v-.8zm1.9-1.1c0-.2-.1-.3-.3-.2H54c-.2.2-.3.4-.3.6v.8c0 .2.1.3.3.2h.2c.2-.2.3-.4.3-.6V71zm1.9-1.1c0-.2-.1-.3-.3-.2h-.2c-.2.2-.3.4-.3.6v.8c0 .2.1.3.3.2h.2c.2-.2.3-.4.3-.6v-.8zm1.9-1.1c0-.2-.1-.3-.3-.2h-.2c-.2.2-.3.4-.3.6v.8c0 .2.1.3.3.2h.2c.2-.2.3-.4.3-.6v-.8zm2-1.1c0-.2-.1-.3-.3-.2h-.2c-.2.2-.3.4-.3.6v.8c0 .2.1.3.3.2h.2c.2-.2.3-.4.3-.6v-.8zm1.9-1.1c0-.2-.1-.3-.3-.2h-.2c-.2.2-.3.4-.3.6v.8c0 .2.1.3.3.2h.2c.2-.2.3-.4.3-.6v-.8zm1.9-1.1c0-.2-.1-.3-.3-.2h-.2c-.2.2-.3.4-.3.6v.8c0 .2.1.3.3.2h.2c.2-.2.3-.4.3-.6v-.8zm1.9-1.1c0-.2-.1-.3-.3-.2h-.2c-.2.2-.3.4-.3.6v.8c0 .2.1.3.3.2h.2c.2-.2.3-.4.3-.6v-.8zm1.9-1.1c0-.2-.1-.3-.3-.2h-.2c-.2.2-.3.4-.3.6v.8c0 .2.1.3.3.2h.2c.2-.2.3-.4.3-.6v-.8zm1.9-1.1c0-.2-.1-.3-.3-.2h-.2c-.2.2-.3.4-.3.6v.8c0 .2.1.3.3.2h.2c.2-.2.3-.4.3-.6v-.8zm1.9-1.1c0-.2-.1-.3-.3-.2h-.2c-.2.2-.3.4-.3.6v.8c0 .2.1.3.3.2h.2c.2-.2.3-.4.3-.6v-.8zm1.9-1.1c0-.2-.1-.3-.3-.2h-.2c-.2.2-.3.4-.3.6v.8c0 .2.1.3.3.2h.2c.2-.2.3-.4.3-.6V60zm1.9-1.1c0-.2-.1-.3-.3-.2H75c-.2.2-.3.4-.3.6v.8c0 .2.1.3.3.2h.2c.2-.2.3-.4.3-.6v-.8zm1.9-1.1c0-.2-.1-.3-.3-.2h-.2c-.2.2-.3.4-.3.6v.8c0 .2.1.3.3.2h.2c.2-.2.3-.4.3-.6v-.8zm2-1.1c0-.2-.1-.3-.3-.2h-.2c-.2.2-.3.4-.3.6v.8c0 .2.1.3.3.2h.2c.2-.2.3-.4.3-.6v-.8zm1.9-1.1c0-.2-.1-.3-.3-.2h-.2c-.2.2-.3.4-.3.6v.8c0 .2.1.3.3.2h.2c.2-.2.3-.4.3-.6v-.8zm1.9-1.1c0-.2-.1-.3-.3-.2h-.2c-.2.2-.3.4-.3.6v.8c0 .2.1.3.3.2h.2c.2-.2.3-.4.3-.6v-.8z" fill="#212931"/><path d="M34.2 85.5h0c-.1 0-.3 0-.3-.3v-3.8c0-.2.2-.5.3-.6l1.5-.9h.2c.1 0 .3 0 .3.3V84c0 .2-.2.5-.3.6l-1.5.9h-.2zm1.7-5.4l-1.5.9c-.1 0-.3.3-.3.4v3.8.1l1.5-.9c.1 0 .3-.3.3-.4v-3.8-.1zM22.6 92.2h0c-.1 0-.3 0-.3-.3v-3.8c0-.2.2-.5.4-.6l1.5-.9h.2c.1 0 .3 0 .3.3v3.8c0 .2-.2.5-.4.6l-1.5.9h-.2zm1.7-5.4l-1.5.9c-.1 0-.3.3-.3.4v3.8.1l1.5-.9c.1 0 .3-.3.3-.4v-3.8-.1zm61.4-31.1h0c-.1 0-.3 0-.3-.3v-3.8c0-.2.2-.5.4-.6l1.5-.9h.2c.1 0 .3 0 .3.3v3.8c0 .2-.2.5-.4.6l-1.5.9h-.2zm1.7-5.4l-1.5.9c-.1 0-.3.3-.3.4v3.8.1h0l1.5-.9c.1 0 .3-.3.3-.4v-3.8-.1z" class="AL"/><path d="M125.4 82.3v.9s0 .2-.2.3l-4.4 2.5c-1.2.7-1.9.9-2.6.9-1 0-27.8-.8-27.8-.8l-39.6-1.2h-1.2-.4v-1h1.6l2.4-1.3.4-.2 17.5-10.1.3-.2 2.1-1.2.3-.2h0l.2.1 9 5.2c1 .6 1.7.7 4.2 1.1 1.4.2 11.6 1.8 19.6 3.1h.5l9.3 1.5 1.9.3 5 .8 1.1.2.9-.6h0z" class="AM"/><path d="M125.4 82.3s0 .1-.2.2l-4.4 2.5c-.6.4-1.1.6-1.5.7-.1 0-.3 0-.4.1h-.7c-.7 0-13.7-.4-21.7-.6h-.6c-3.3 0-5.5-.2-5.5-.2l-23-.7h-.6l-15.4-.5h-.7-1.6l2.5-1.4 22.2-12.8 1.2.7 8 4.6c1 .6 1.7.7 4.2 1.1 1.6.2 13.2 2.1 21.3 3.3l8 1.3 7.7 1.2h.4 0c.2 0 .7.2.6.4z" class="AL"/><path d="M49.5 84.9h0s-.5 0-.8.3c-.4.2-.7-.6.4-1.3l.4 1zm75.2-2.9h0-.4l-1.1.6-4.7-.5-11.8-1.4.7-.4 1.3-.8h-.4l-1.3.8-.7.4-21.1-3.4-11-6.4H74c0-.1-.8-.6-.8-.6l-2.8 1.6h0l.9.5h.3c0 .1 11.7 6.1 11.7 6.1h.3l1.4-.8.3 1.1.2.1 19.6 2.8h.2l1.2-.7 17 2h.2l1.3-.8h0zm-53.1-9.8h-.3c0-.1-.7-.5-.7-.5l2.2-1.2.7.4h.2c0 .1 2.3 1.4 2.3 1.4l-2 1.1-2.4-1.2zm2.7 1.4l1.9-1.1 4.7 2.7-1.6.9-5-2.5zm8.9 4.5l-3.5-1.8 1.6-.9 3.3 1.9-1.4.8zm5.8.9l-3.5-.5-.3-1 3.8.6v.9zm5.9.8l-5.4-.8v-.9l5.8.9-.4.8zm5.7.8l-5.3-.8.4-.8 5.2.8-.4.7zm4.3.6l-3.9-.6.4-.7 4.4.7-.9.5zm14.3 4.6c-.1 0-.3 0-.4.1l-.4-.4-20.7-.9-1.2.7h-.6l1.3-.7-27.8-1.2-2 1.1h-.6l2-1.1-17.1-.8h-.1l.4-.2 66.6 2.9h.2l.4.5z" class="AM"/><g class="A"><path d="M101.9 36.9v1.4l-1.1.6-.1.1-.1.1-1.5.8v-1.3-.1l.1-.1.7-.4 2-1.1z" fill="#5e5f5f"/><path d="M115.9 44.3v1.4l-16.8-5.8v-1.4l16.8 5.8z" fill="#5c5c5c"/><path d="M117.7 43.7l-1.8.6-10.1-3.5-5.1-1.8-1.5-.5h.1l.7-.5 2-1.1h0c.3.1.5.2.8.4h.2l6.5 2.8c.6.2 1.1.5 1.7.7.1 0 .2.1.3.2.3.1.7.3 1 .4s.7.3 1 .4c.5.2.9.4 1.3.6a.76.76 0 0 1 .4.2c.4.2.7.3 1 .4.1 0 .2.1.4.2 0 0 .2 0 .2.1 0 0 .2 0 .2.1h.2s.2 0 .3.1h.1z" class="AB"/><path d="M117.7 43.7v1.5l-1.8.5v-1.4l1.8-.6z" fill="#787878"/><path d="M118.2 44.1h0s-.2.1-.5.3c-.1 0-.3.2-.5.3-.4.2-.8.4-1.1.7h-.1 0-.1-.1c-.1 0-.3.2-.4.2 0 0-.1 0-.2.1l-.2.1h-.2-.1-.1-.2 0 0c-.1 0-2.5-.5-4.1-.8h-.3-.3c-.3 0-.8-.1-1.2-.2-.2 0-.5 0-.8-.2-.4 0-.8-.1-1.2-.2-.2 0-.4 0-.7-.1-.2 0-.4 0-.7-.1l-9.4-1.8-2.4-.5 6.6-3.8h0l1.5.5 5.1 1.8 10.1 3.5 1.8-.6s.2 0 .2.1c.1 0 .2.1.2.2z" class="AJ"/><path d="M118.2 44.1v1.4q0 0 0 0h0c-.1 0-2.9 1.7-3.4 2h-.2-.1-.1 0 0c-.1 0-2.5-.5-4.1-.8-1.3-.2-11.3-2.1-15.4-2.9-.9-.2-1.6-.3-1.7-.3v-1.4c.2 0 1.1.2 2.4.5l9.4 1.8c.2 0 .5 0 .7.1.2 0 .4 0 .7.1.4 0 .8.2 1.2.2.3 0 .6.1.8.2.5 0 .9.2 1.2.2h.3.3l4.1.8h0 0 0 .1.1.1.1.2s.1 0 .2-.1c0 0 .1 0 .2-.1.1 0 .2-.1.4-.2h0 .1.1.1c.4-.2.8-.5 1.1-.7.2-.1.3-.2.5-.3.3-.2.5-.3.5-.3z" class="AK"/></g><path d="M117.7 43.8h0l-1.8.6-10.2-3.5-5.1-1.8-1.4-.5h0 0l.1-.1 1.5.5 5.2 1.8 9.9 3.4 1.7-.5h.1z" class="AN"/><path d="M75 70.4c-.3 0-.6.2-1 .4-.1 0-.2.1-.3.2l-2.1 1.2c-.1 0-.2.1-.3.2-.2.2-.5.3-.7.4-1.1.6-12.1 7-16.6 9.6-.1 0-.3.2-.4.2-.7.4-1.2.7-1.5.8-.3.2-.5.3-.7.5-.3.3-.5.7-.6 1h-1.2s-.5 0-.8.3c-.4.2-.7-.6.4-1.3l2.5-1.4 22.2-12.8 1.2.7z" class="AM"/><path class="V AK" d="M109.5 40.2l-3.5.6h-.2-.2l-2.6.4-7.5 1.3c-.3 0-.5.2-.7.3-.6.3-.7.9-.7 1.3l-1.7-.3v-1.4l6.6-3.8h0l.1-.1.7-.4 2-1.1h0c.3.1.5.2.8.4h.2l6.5 2.8z" opacity=".3"/></g></svg>