<?xml version="1.0" encoding="UTF-8"?><svg xmlns="http://www.w3.org/2000/svg" xmlns:xlink="http://www.w3.org/1999/xlink" viewBox="0 0 128 128"><defs><style>.c{fill:#8a8c8f;}.d{fill:#a7a9ac;}.e{fill:#939598;}.f{fill:#95979a;}.g{fill:#f5f5f5;}.h{isolation:isolate;}.i{fill:#f2f2f3;}.j{fill:#67686b;}.k{mix-blend-mode:multiply;}.k,.l{opacity:.3;}.k,.m{fill:#231f20;}.n{fill:#6d6e71;}.o{fill:#f3f3f4;}.p{fill:#f1f2f2;}.q{fill:#808285;}.r{fill:url(#b);}.l,.s{fill:#e6e7e8;}.t{fill:#f4f5f5;}.u{fill:#f7f7f7;}.v{fill:#d1d3d4;}.w{fill:#1d2123;}.x{fill:#bcbec0;}.y{fill:#f2f3f3;}.z{fill:#9b9d9f;}.aa{fill:#58595b;}.ab{fill:#414042;}</style><linearGradient id="b" x1="93.5" y1="20.6" x2="94.3" y2="41.9" gradientUnits="userSpaceOnUse"><stop offset="0" stop-color="#fafafa"/><stop offset="1" stop-color="#f8f9f9"/></linearGradient></defs><g class="h"><g id="a"><path class="n" d="m84.5,89.7l1.9,3.2s2.4-1.5,3.6-2.4c.2-.1.3-.2.4-.3.3-.2.7-.6,1.1-1,0-.2,0-.4,0-.6,0-1.7-1.2-3.7-2.6-4.6-.2-.1-.4-.2-.5-.2-.6.1-1.1.3-1.4.5-.1,0-.3.1-.5.2-1.3.6-3.8,1.9-3.8,1.9l1.9,3.2Z"/><polygon class="j" points="82.5 86.6 86.3 93.1 85.6 93.5 81.8 87 82.5 86.6"/><path class="j" d="m81.7,88.3c0-1.7,1.2-2.4,2.6-1.5,1.5.8,2.6,2.9,2.6,4.6s-1.2,2.4-2.6,1.5c-1.5-.8-2.6-2.9-2.6-4.6Z"/><path class="g" d="m81,88.7c0-1.7,1.2-2.4,2.6-1.5,1.5.8,2.6,2.9,2.6,4.6s-1.2,2.4-2.6,1.5c-1.5-.8-2.6-2.9-2.6-4.6Z"/><path class="d" d="m85,89.5c.4.8.7,1.6.7,2.3s-.2,1-.5,1.2c-.3.2-.7.1-1.2-.2-.6-.4-1.2-1-1.6-1.7-.4-.8-.7-1.6-.7-2.3s.2-1,.5-1.2c.3-.2.7-.1,1.2.2.6.3,1.2,1,1.6,1.7Z"/><path class="y" d="m84.5,89.7c.2.3.3.7.3.9s0,.4-.2.5c-.1,0-.3,0-.5,0-.2-.1-.5-.4-.7-.7-.2-.3-.3-.7-.3-.9s0-.4.2-.5c.1,0,.3,0,.5,0,.2.1.5.4.7.7Z"/><path class="g" d="m82.9,89.6c.4-.3,1-.1,1.3.3.3.4.1,1-.3,1.3-.4.3-1,.1-1.3-.3-.3-.4-.1-1,.3-1.3Z"/><path class="q" d="m92.7,86.9c0,.2,0,.3,0,.5-.1.6-.5,1.1-.9,1.6,0,.1-.2.2-.3.3,0-.1,0-.3,0-.5,0,0,0,0,0-.1,0-1.5-.9-3.3-2.1-4.2-.2-.1-.3-.3-.5-.4-.2-.1-.4-.2-.5-.2,0,0,0,0,0,0,0,0,0,0,0,0h0c.5-.1,1.1-.2,1.6-.2.2,0,.4,0,.5,0,.1,0,.3.1.5.2,0,0,0,0,0,0,.4.3.9.7,1.2,1.3.3.5.5,1.1.5,1.6Z"/><path class="n" d="m93.7,80.9h0s-2.4,1.4-2.4,1.4h0s-2.8,1.6-2.8,1.6h0s-2.8,1.6-2.8,1.6h0s-.3-.1-.3-.1t0,0h-.2c0-.1,0-.1,0-.1l-.4-.2,6-3.4,2.1-1.2.8.5Z"/><path class="c" d="m85.6,85.5l-.5,1.3-.8-.5.3-.8.2-.4h0c0-.1,0-.1,0-.1l.4.2h.2q0,.1,0,.1h.3Z"/><path class="f" d="m93.6,80.9l-.3.8s-.9.5-1.8,1.1c-.6.3-1.1.7-1.3.8,0,0-.2.1-.3.2-.3.3-.5.6-.6.8,0,0,0,0,0,0-.7.2-1.9.8-2.8,1.3-.9.5-1.5.9-1.5.9l.5-1.3h0s2.8-1.6,2.8-1.6h0s0,0,0,0l2.8-1.6h0s2.4-1.4,2.4-1.4Z"/><path class="n" d="m92.7,86.9c0,.2,0,.3,0,.5-.1.6-.5,1.1-.9,1.6,0,0-.2-.1-.2-.2-2.3-1.5-3.8-2.4-5-2.9-.3-.2-.7-.3-1-.4-.1,0-.2,0-.3-.1t0,0c0,0-.2,0-.3,0-.1,0-.2,0-.3-.1h0c0-.1,0-.1,0-.1l6-3.4.5.7h0s.4.5.4.5c-.6.3-1.1.7-1.3.8,0,0-.2.1-.3.2.2,0,.4,0,.5,0,.1,0,.3.1.5.2,0,0,0,0,0,0,.4.3.9.7,1.2,1.3.3.5.5,1.1.5,1.6Z"/><path class="n" d="m62.3,89.7l1.9,3.2s2.4-1.5,3.6-2.4c.2-.1.3-.2.4-.3.3-.2.7-.6,1.1-1,0-.2,0-.4,0-.6,0-1.7-1.2-3.7-2.7-4.6-.2-.1-.4-.2-.5-.2-.6.1-1.1.3-1.4.5-.1,0-.3.1-.5.2-1.3.6-3.8,1.9-3.8,1.9l1.9,3.2Z"/><polygon class="j" points="60.2 86.6 64 93.1 63.3 93.5 59.6 87 60.2 86.6"/><path class="j" d="m59.5,88.3c0-1.7,1.2-2.4,2.7-1.5,1.5.8,2.6,2.9,2.6,4.6s-1.2,2.4-2.6,1.5c-1.5-.8-2.7-2.9-2.7-4.6Z"/><path class="g" d="m58.7,88.7c0-1.7,1.2-2.4,2.7-1.5,1.5.8,2.6,2.9,2.6,4.6s-1.2,2.4-2.6,1.5c-1.5-.8-2.7-2.9-2.7-4.6Z"/><path class="d" d="m62.7,89.5c.4.8.7,1.6.7,2.3s-.2,1-.5,1.2c-.3.2-.7.1-1.2-.2-.6-.4-1.2-1-1.6-1.7-.4-.8-.7-1.6-.7-2.3s.2-1,.5-1.2c.3-.2.7-.1,1.2.2.6.3,1.2,1,1.6,1.7Z"/><path class="y" d="m62.3,89.7c.2.3.3.7.3.9s0,.4-.2.5c-.1,0-.3,0-.5,0-.2-.1-.5-.4-.7-.7-.2-.3-.3-.7-.3-.9s0-.4.2-.5c.1,0,.3,0,.5,0,.2.1.5.4.7.7Z"/><path class="g" d="m60.7,89.6c.4-.3,1-.1,1.3.3.3.4.1,1-.3,1.3-.4.3-1,.1-1.3-.3-.3-.4-.1-1,.3-1.3Z"/><path class="q" d="m70.5,86.9c0,.2,0,.3,0,.5-.1.6-.5,1.1-.8,1.6,0,.1-.2.2-.3.3,0-.1,0-.3,0-.5,0,0,0,0,0-.1,0-1.5-.9-3.3-2.1-4.2-.2-.1-.3-.3-.5-.4-.2-.1-.4-.2-.5-.2,0,0,0,0,0,0,0,0,0,0,0,0h0c.5-.1,1.1-.2,1.6-.2.2,0,.4,0,.5,0,.1,0,.3.1.5.2,0,0,0,0,0,0,.4.3.9.7,1.2,1.3.3.5.5,1.1.5,1.6Z"/><polygon class="n" points="71.4 80.9 71.4 80.9 69.1 82.2 69.1 82.2 66.2 83.9 66.2 83.9 63.3 85.5 62.9 85.3 62.5 85.1 68.6 81.5 70.6 80.4 71.4 80.9"/><polygon class="c" points="63.3 85.5 63.3 85.6 62.8 86.8 62 86.4 62.3 85.6 62.4 85.3 62.5 85.1 62.5 85.1 62.5 85.1 62.9 85.3 63.3 85.5"/><path class="f" d="m71.4,80.9l-.2.8s-.8.5-1.6,1c-.6.4-1.2.7-1.5.9,0,0-.2.1-.3.2-.3.3-.5.6-.6.8,0,0,0,0,0,0-.8.2-2,.8-2.9,1.4-.8.5-1.4.9-1.4.9l.5-1.2h0c0,0,2.8-1.7,2.8-1.7h0s0,0,0,0l2.9-1.7h0l2.2-1.3Z"/><path class="n" d="m70.5,86.9c0,.2,0,.3,0,.5-.1.6-.5,1.1-.8,1.6,0,0-.2-.1-.2-.2-2.4-1.6-3.8-2.4-5.1-2.9-.3-.1-.6-.3-.9-.4-.2,0-.5-.2-.7-.2h0c0,0-.1,0-.2,0v-.3h.1l6.1-3.5.5.7h0l.4.5c-.6.4-1.2.7-1.5.9,0,0-.2.1-.3.2.2,0,.4,0,.5,0,.1,0,.3.1.5.2,0,0,0,0,0,0,.4.3.9.7,1.2,1.3.3.5.5,1.1.5,1.6Z"/><g class="h"><polygon class="o" points="84.3 24.2 84.3 26 83.4 27 83.4 25.3 84.3 24.2"/><path class="p" d="m96.2,35.1h0s0,0,0,0Z"/><polygon class="i" points="93.5 35 93.5 36.7 83.4 27 83.4 25.3 93.5 35"/><path class="n" d="m96.2,33.4l-2.7,1.6h0s-10.1-9.7-10.1-9.7l1-1s0,0,0,0c0,0,.1.1.2.2,0,0,0,0,.1.1,0,0,.1,0,.2.1,0,0,.1,0,.2.1,0,0,.2.1.3.2.2.2.5.4.7.6.1,0,.2.2.3.3.3.2.6.5,1,.7.2.2.5.4.7.6.2.2.5.4.8.6,0,0,.2.1.3.2,2.2,1.6,4.6,3.5,6.2,4.7,0,0,.1,0,.2.1.2.2.4.3.6.5h0Z"/><path class="ab" d="m93.5,35h0s-6.6,3.9-6.6,3.9c-.2-.4-5.1-9-5.6-9.9-.5-.9-1.3-2.3-1.4-2.4,0,0-.2-.3.3-.6.5-.3,3.3-1.9,3.4-2,0,0,.1,0,.4,0,0,0,.1,0,.2.1,0,0,0,0,0,0,0,0,0,0,0,0l-1,1,10.1,9.7Z"/><path class="m" d="m79.8,26.6s0,0,0-.2v1.7c0,.1,0,.2,0,.2,0,0,6.7,11.8,6.9,12.3v-1.7c-.2-.4-6.9-12.2-6.9-12.3Z"/><polygon class="j" points="93.5 34.9 93.5 34.9 86.8 38.9 86.8 40.6 93.5 36.7 93.5 36.7 93.5 36.7 96.2 35.1 96.2 33.4 93.5 34.9"/></g><path class="aa" d="m93.5,34.9h0s0,0,0,0l-10.1-9.7s0,0,0-.1l1-1s0,0,0,0c0,0,0,0,0,0,0,0,0,0,0,0l-.9,1,10,9.6s0,0,0,0Z"/><polygon class="d" points="22 95.9 20.2 98.9 20.8 99.2 22.6 96.2 22 95.9"/><path class="d" d="m22.4,96.7c0-.8-.5-1.1-1.2-.7-.7.4-1.2,1.3-1.2,2.1s.5,1.1,1.2.7c.7-.4,1.2-1.3,1.2-2.1Z"/><path class="w" d="m22.9,97c0-.8-.5-1.1-1.2-.7-.7.4-1.2,1.3-1.2,2.1s.5,1.1,1.2.7c.7-.4,1.2-1.3,1.2-2.1Z"/><path class="u" d="m21.2,97.4c-.2.3-.3.7-.3,1s0,.4.1.4c0,0,.3,0,.4,0,.3-.2.5-.4.7-.8.2-.3.3-.7.3-1s0-.4-.1-.4c0,0-.3,0-.4,0-.3.1-.5.4-.7.8Z"/><path class="d" d="m21.5,97.6c0,.1-.1.2-.1.3s0,.1,0,.1c0,0,0,0,.2,0,0,0,.2-.1.2-.3,0-.1.1-.2.1-.3s0-.1,0-.1c0,0,0,0-.2,0,0,0-.2.1-.2.3Z"/><rect class="d" x="21" y="98" width="3.5" height=".7" transform="translate(-73.8 68.9) rotate(-60)"/><path class="d" d="m23.7,97.5c0-.8-.5-1.1-1.2-.7-.7.4-1.2,1.3-1.2,2.1s.5,1.1,1.2.7c.7-.4,1.2-1.3,1.2-2.1Z"/><path class="w" d="m24.3,97.8c0-.8-.5-1.1-1.2-.7-.7.4-1.2,1.3-1.2,2.1s.5,1.1,1.2.7c.7-.4,1.2-1.3,1.2-2.1Z"/><path class="u" d="m22.5,98.2c-.2.3-.3.7-.3,1s0,.4.2.4c0,0,.3,0,.4,0,.3-.2.5-.4.7-.8.2-.3.3-.7.3-1s0-.4-.2-.4c0,0-.3,0-.4,0-.3.2-.5.4-.7.8Z"/><path class="d" d="m22.9,98.4c0,.1-.1.2-.1.3s0,.1,0,.1c0,0,0,0,.2,0,0,0,.2-.1.2-.3,0-.1.1-.2.1-.3s0-.1,0-.1c0,0,0,0-.2,0,0,0-.2.1-.2.3Z"/><path class="n" d="m27.9,51.2l1.8,3s2.2-1.4,3.3-2.2c.2-.1.3-.2.4-.3.3-.2.7-.5,1.1-.9,0-.2,0-.4,0-.6,0-1.6-1.1-3.5-2.5-4.3-.2-.1-.3-.2-.5-.2-.5.1-1,.3-1.3.5-.1,0-.3.1-.4.2-1.2.6-3.6,1.8-3.6,1.8l1.8,3Z"/><polygon class="j" points="26 48.2 29.6 54.3 28.9 54.6 25.4 48.6 26 48.2"/><path class="j" d="m25.3,49.8c0-1.6,1.1-2.2,2.5-1.4,1.4.8,2.5,2.7,2.5,4.3s-1.1,2.2-2.5,1.4c-1.4-.8-2.5-2.7-2.5-4.3Z"/><path class="g" d="m24.6,50.2c0-1.6,1.1-2.2,2.5-1.4,1.4.8,2.5,2.7,2.5,4.3s-1.1,2.2-2.5,1.4c-1.4-.8-2.5-2.7-2.5-4.3Z"/><path class="d" d="m28.3,50.9c.4.7.6,1.5.6,2.1s-.2.9-.4,1.1c-.3.2-.7,0-1.2-.2-.6-.3-1.1-.9-1.5-1.6-.4-.7-.6-1.5-.6-2.1s.2-.9.4-1.1c.3-.2.7,0,1.2.2.6.3,1.1.9,1.5,1.6Z"/><path class="y" d="m27.9,51.2c.2.3.3.6.3.9s0,.4-.2.4c-.1,0-.3,0-.5,0-.2-.1-.5-.4-.6-.7-.2-.3-.3-.6-.3-.9s0-.4.2-.4c.1,0,.3,0,.5,0,.2.1.5.4.6.7Z"/><path class="g" d="m26.4,51c.4-.2.9,0,1.2.3.2.4,0,.9-.3,1.2-.4.2-.9,0-1.2-.3-.2-.4,0-.9.3-1.2Z"/><path class="q" d="m34.5,50.2c0,.2,0,.4,0,.6.5-.5.9-1.1,1.1-1.7,0-.2,0-.3,0-.5,0-.5-.2-1-.5-1.5-.3-.5-.7-.9-1.1-1.2,0,0,0,0,0,0-.1,0-.3-.2-.4-.2-.7-.2-1.4,0-2,0,.2,0,.3.1.5.2,1.4.8,2.5,2.7,2.5,4.3Z"/><polygon class="n" points="36.5 42.9 28.9 47.2 28.1 46.8 35.7 42.4 36.5 42.9"/><polygon class="c" points="28.9 47.2 28.4 48.5 27.6 48 28.1 46.8 28.9 47.2"/><path class="f" d="m28.9,47.2l-.5,1.2s2.7-1.7,4.1-2.1c0,0,.3-.6.8-1,.6-.4,2.9-1.7,2.9-1.7l.2-.7-7.5,4.3Z"/><path class="n" d="m29.8,65.8l1.8,3s2.2-1.4,3.3-2.2c.2-.1.3-.2.4-.3.3-.2.7-.5,1.1-.9,0-.2,0-.4,0-.6,0-1.6-1.1-3.5-2.5-4.3-.2,0-.3-.2-.5-.2-.5.1-1,.3-1.3.5-.1,0-.3.1-.4.2-1.2.6-3.6,1.8-3.6,1.8l1.8,3Z"/><polygon class="j" points="27.8 62.8 31.4 68.9 30.7 69.2 27.2 63.2 27.8 62.8"/><path class="j" d="m27.1,64.4c0-1.6,1.1-2.2,2.5-1.4,1.4.8,2.5,2.7,2.5,4.3s-1.1,2.2-2.5,1.4c-1.4-.8-2.5-2.7-2.5-4.3Z"/><path class="g" d="m26.4,64.8c0-1.6,1.1-2.2,2.5-1.4,1.4.8,2.5,2.7,2.5,4.3s-1.1,2.2-2.5,1.4c-1.4-.8-2.5-2.7-2.5-4.3Z"/><path class="d" d="m30.1,65.5c.4.7.6,1.5.6,2.1s-.2.9-.4,1.1c-.3.2-.7,0-1.2-.2-.6-.3-1.1-.9-1.5-1.6-.4-.7-.6-1.5-.6-2.1s.2-.9.4-1.1c.3-.2.7,0,1.2.2.6.3,1.1.9,1.5,1.6Z"/><path class="y" d="m29.8,65.8c.2.3.3.6.3.9s0,.4-.2.5c-.1,0-.3,0-.5,0-.2-.1-.5-.4-.6-.7-.2-.3-.3-.6-.3-.9s0-.4.2-.4c.1,0,.3,0,.5,0,.2.1.5.4.6.7Z"/><path class="g" d="m28.2,65.6c.4-.2.9,0,1.2.3.2.4,0,.9-.3,1.2-.4.2-.9,0-1.2-.3-.2-.4,0-.9.3-1.2Z"/><path class="q" d="m36.3,64.8c0,.2,0,.4,0,.6.5-.5.9-1.1,1.1-1.7,0-.2,0-.3,0-.5,0-.5-.2-1-.5-1.5-.3-.5-.7-.9-1.1-1.2,0,0,0,0,0,0-.1,0-.3-.2-.4-.2-.7-.2-1.4,0-2,0,.2,0,.3.1.5.2,1.4.8,2.5,2.7,2.5,4.3Z"/><polygon class="n" points="38.3 57.5 30.7 61.8 29.9 61.4 37.5 57 38.3 57.5"/><polygon class="c" points="30.7 61.8 30.2 63 29.4 62.6 29.9 61.4 30.7 61.8"/><path class="f" d="m30.7,61.8l-.5,1.2s2.7-1.7,4.1-2.1c0,0,.3-.6.8-1,.6-.4,2.9-1.7,2.9-1.7l.2-.7-7.5,4.3Z"/><path class="s" d="m55.9,56.8l-1,.6-.3.2-2,1.2-.3.2-16.8,9.7-.4.2-2.3,1.3-.8-9.2v-.3s-1.1-12.7-1.1-12.7c0,0,0-1.1-.2-2.7,0-.1,0-.2,0-.3-.4-4.3-1-11.6-1.1-12,0,0,0-.1,0-.2,0,0,0-.2.1-.2.2-.3.6-.6,1.3-1,1.9-1.1,3.6-2.1,4-2.4.7-.4,1,.3,1,.3l2,4.3s6.8,14.5,7.5,15.9c.6,1.3.8,1.7,1.8,2.2,1,.6,8.6,5,8.6,5Z"/><path class="v" d="m54.7,57.5l.3-.2-11-6.4-5.5-11.4,1.9-1.1c0,0,0-.2-.1-.3l-1.9,1.1-3.1-9,1-.6v-.3c-.1,0-1.4.7-1.4.7,0,0,0,0,0,.1l3.2,9.2-1.1.6c0,0,0,0,0,.1l4.6,10.7s0,0,.2,0l1.7.2-1.3.8c0,0,0,.1,0,.2l10.4,6.8.3-.2-2.6-1.7,1.8-1.1,2.8,1.6Zm-17.4-17.3l.8-.5,1.1,2.4-1.1.2-.9-2.1Zm1,2.3l1.1-.2,1.4,2.8-1.2.2-1.2-2.9Zm1.3,3.1l1.2-.2,1.5,3.1h-1.5s-1.3-2.9-1.3-2.9Zm2.2,5.1l-.8-1.9h1.5s1,2.1,1,2.1h-1.7Zm.6,1.2l1.3-.8,3.1,1.8-1.5.9-2.9-1.9Zm7.3,4.8l-4.1-2.7,1.5-.9,4.4,2.6-1.8,1.1Z"/><path class="v" d="m35.6,68.6l-.4.2-1.2-9-1.8,1.1s0,0,0,0c0,0,0,0,0,0v-.3s0,0,0,0l1.9-1.1-2-15.1-1.2.7s0,0,0,0c0,0,0,0,0,0,0,0,0-.2,0-.3h0s1.1-.7,1.1-.7c0,0,0,0,.1,0l-1.5-11.2-.8-.2c0,0,0-.2.1-.2l1,.3c0,0,.1,0,.1,0l4.7,35.8Z"/><path class="v" d="m103,36.9c-.7,1.6-3.6,8.3-5,10.2-1.4,1.9-2.8,4.8-5.2,7.2-.1.1-.3.3-.4.4-2.2,2.3-4.1,4.2-7.9,7.4-.5.4-1,.8-1.5,1.3-.4.4-.9.8-1.3,1.1-3,2.6-6,5-9,6.8-3.9,2.4-20.1,11.6-28.9,16.8-8.7,5.2-14.1,7.3-20.4,8.8-.8.2-1.5.3-2.3.5-4.9.9-8,.6-9.9.5-4-.4-4-.9-4.4-1.3-.7-.8,0-2.3.4-3.7.1-.3.2-.6.3-.9.3-1.4,1-3.2,1.4-5,.4-1.7,2.2-4.4,4.3-5.9,2.1-1.5,5.8-3.8,13-7.9,7.2-4.2,41.1-23.6,48.9-28,.8-.5,1.6-.9,2.4-1.4.5-.3,1-.6,1.5-.9,7.4-4.1,11.8-5.8,15.5-7.1,2.8-1.1,4.9-1.7,6.2-2,.5-.1.8-.1,1.1-.1.8,0,1.8,1.6,1.1,3.2Z"/><path class="x" d="m100.9,33.9c-1.1,2.6-3.2,7.1-4.3,8.6-1.4,1.9-2.8,4.8-5.2,7.2-2.4,2.5-4.2,4.4-8.2,7.8-4,3.4-7.9,6.8-11.9,9.3-3.9,2.4-20.1,11.6-28.9,16.8-8.7,5.2-14.1,7.9-20.3,9.8-8.9,2.8-14.9,2.2-15.5,2.1,0-.5.3-1.6.6-2.4,0,0,0-.2,0-.3.1-.4.2-.7.2-.7.1-.6.4-1.4.6-2.1,0-.1,0-.2.1-.3.2-.5.3-1,.5-1.5,0-.3.2-.7.3-1,0,0,0,0,0-.1.5-1.7,2.2-4.4,4.3-5.8,2.1-1.5,5.8-3.8,13-7.9,7.2-4.2,43.1-24.6,51.4-29.4,8.2-4.7,13-6.5,16.9-8,0,0,0,0,.1,0,2.8-1.1,4.9-1.7,6.2-2Z"/><path class="ab" d="m103,36.9c-.7,1.6-3.5,8.1-4.9,10.1,0,0,0,0,0,0-1.4,1.9-2.8,4.8-5.2,7.2-.1.1-.3.3-.4.4-2.2,2.3-4.1,4.2-7.9,7.4-.5.4-1,.8-1.5,1.3.1-.7.3-1.5.7-2.5,2.5-7.8-1.9-13.6-3.1-14.6-.9-.8-3.2-1.1-5.4-1.1.8-.5,1.6-.9,2.4-1.4.5-.3,1-.6,1.5-.9,7.4-4.1,11.8-5.8,15.5-7.1,2.8-1.1,4.9-1.7,6.2-2,.3,0,.5-.1.8-.1.1,0,.2,0,.3,0,.8,0,1.8,1.6,1.1,3.2Z"/><path class="z" d="m14.6,90.4c0,.2-1.7.8-3.5.7-1.5,0-2.5-.2-2.9-1.2,0-.1,0-.2.1-.3.2-.5.3-1,.5-1.5,0-.3.2-.7.3-1,0,0,0,0,0-.1-.2.9-.3,1.8.4,2.2.8.5,1.5.6,3.2.3,1.6-.2,1.7-.4,1.7-.4,0,0,.2.9.2,1.2Z"/><path class="k" d="m103,36.9c-.7,1.6-3.5,8.1-4.9,10.1-1.4-.8-3.4-2-4.2-2.4-1.3-.6-3.7-.9-5.5-.5-1.8.4-4.3,1.8-5.6,2.4-1.3.6-1.5.2-1.5.2,0,0,14-8.4,15.9-9.7,1.3-.9,3.3-2.4,4.3-3.2.1,0,.2,0,.3,0,.8,0,1.8,1.6,1.1,3.2Z"/><path class="l" d="m94.6,35.9c-3.1,1.8-6.2,3.6-6.9,4-1.3.9-5.9,3.6-8,4.7-2.1,1-17,9.9-22.4,12.9-5.4,3.1-36.4,21-38.8,22.4-2.4,1.4-5.9,3.8-7.2,5.3-1.2,1.5-3.4,5.9-4,7.6.1-.4.2-.7.2-.7.1-.6.4-1.4.6-2.1,0-.1,0-.2.1-.3.2-.5.3-1,.5-1.5,0-.3.2-.7.3-1,0,0,0,0,0-.1.5-1.7,2.2-4.4,4.3-5.8,2.1-1.5,5.8-3.8,13-7.9,7.2-4.2,43.1-24.6,51.4-29.4,8.2-4.7,13-6.5,16.9-8Z"/><path class="j" d="m105.2,15.4l1.2-.7-.9-.6s-4,2.3-5.3,3.1h-.2c-.8.6-.9,1-.9,1,0,0-8.1,16.7-11,20.9-1.5,2.2-4.2,4.2-4.2,4.2,0,0-3,2-3.4,2.8l.9.6,2-1.6,3.6-2.4-.2-.2,13.8-8,4.6-19.1Z"/><path class="r" d="m106.4,14.7v.3c0,0-4.9,20.1-4.9,20.1l-20.1,11.6c.4-.9,3.4-2.8,3.4-2.8,0,0,2.7-2,4.2-4.2,2.9-4.2,11-20.9,11-20.9,0,0,.1-.4.9-.9h.2c1-.7,3.6-2.2,4.8-2.9.3-.2.5-.3.5-.3Z"/><path class="c" d="m92.5,54.7c-2.2,2.3-4.1,4.2-7.9,7.4-2.5,2.2-5,4.3-7.5,6.2-1.5,1.1-2.9,2.2-4.4,3.1-3.9,2.4-20.1,11.6-28.9,16.8-.8.5-1.5.9-2.2,1.3-7.5,4.3-12.4,6.2-18.1,7.5-.8.2-1.5.3-2.3.5,0,0,.3-.8.3-1.1,0-.3.2-.9,1.1-1.3.8-.4,9.1-5.2,10.8-6.3,1.8-1.1,22.1-12.8,22.1-12.8l21.4-12.4,15.5-8.9Z"/><path class="j" d="m77.1,68.3c-1.5,1.1-2.9,2.2-4.4,3.1-3.9,2.4-20.1,11.6-28.9,16.8-.8.5-1.5.9-2.2,1.3-.7-.8-.9-2.5,3.9-5.4,6.9-4.1,27.2-17,31.5-15.7Z"/><path class="ab" d="m106.4,14.7l-4.9,20.4-20.1,11.6c.4-.9,3.4-2.8,3.4-2.8,0,0,2.7-2,4.2-4.2,2.9-4.2,11-20.9,11-20.9,0,0,.1-.4.9-.9h.2c1-.7,3.6-2.2,4.8-2.9l.5-.3Z"/><path class="aa" d="m106,16.5l-2.6,1.5-2.6,8.3,3.2-1.9v.3c0,0-3.3,1.9-3.3,1.9l-.2.6,3.3-1.9v.3c0,0-3.4,1.9-3.4,1.9l-3.1,10h-.2c0,.1,6.1-19.6,6.1-19.6,0,0,0-.1.1-.1l2.7-1.6v.3Z"/><path class="ab" d="m48.6,66c.2,0,0,0,.2-.1.2,0,.3,0,.2.3,0,.2-.1.4-.2.5-.5,1.1-.9,2.2-1.3,3.3s-.7,2-1.1,3c-.2.5-.3.9-.6,1.3s-.7.5-1,.4c-.3,0-.4-.3-.6-.5-.6-.7-1.2-1.3-1.8-2-.3-.3-.5-.6-.8-.9,0,0,0,0,0,0s-.2-.4,0-.6c.8-.6,1.8-1.3,2.6-1.8s1.8-1.2,2.5-1.6c.7-.4,1.4-.9,1.8-1.1.3-.2,0,0,0,0Z"/><path class="ab" d="m49.4,79.1c-.2.1-.2.1-.4.3-.2.1-.6.4-.9.6-.3.2-.7.4-1.1.7s-.9.5-1.3.8c0,0,0,0-.2,0-.1,0-.3,0-.3-.4,0-.3,0-.7,0-1.2,0-.5,0-1.5,0-1.9s0-1.1,0-1.4c.1-.7.4-1.4,1.1-1.1.3,0,.2.2.5.4.3.3.6.6,1,1,.4.4,1.1,1.1,1.6,1.5,0,0,0,0,.1.2,0,.1,0,.4-.1.5Z"/><path class="ab" d="m57,67.4c0,.2,0,.4,0,.6,0,1.2-.3,2.3-.8,3.3-.6,1-1.3,1.8-2.2,2.3-.9.5-1.7.8-2.7.2s-1.2-1.4-1.3-2.6c-.1-1.2.3-2.8.9-3.9.6-1.1,1.4-2.1,2.5-2.6.7-.3,1.1-.2,1.7,0s.9.6,1.3,1c-.3.4-.6.7-.9,1.1-.3-.2-.4-.5-.8-.5s-.6-.1-1.1.1c-.5.3-1.2.9-1.6,1.6-.3.7-.6,1.7-.5,2.5,0,.7.2,1.3.7,1.7.6.4,1.2.1,1.7-.1s.9-.7,1.3-1.1c.4-.5.5-1,.7-1.6-.7.3-1.4.7-2.1,1.1,0-.5,0-1.1,0-1.6,1-.5,2.1-1,3.2-1.3Z"/><path class="ab" d="m60.2,64.9c.3-.1.6-.3.8-.5.5,1.7.7,3.5.9,5.2-.3.2-.6.3-1,.5,0-.2,0-.4,0-.7-.3.6-.6,1.2-1.2,1.4-.6.2-1,.2-1.4-.3-.5-.5-.6-1.2-.6-1.9,0-.7.1-1.6.4-2.2.3-.6.5-1,1.1-1.2.5-.2.9,0,1.3.2,0-.2-.1-.4-.2-.6Zm-1.2,4.4c.3.2.5.3.8.1.3-.1.6-.4.7-.8.2-.3.2-.8.2-1.2s-.2-.7-.4-.9c-.3-.2-.5-.2-.8-.1-.3.1-.5.4-.7.7-.2.3-.2.8-.2,1.2s.1.7.4,1Z"/><path class="ab" d="m65.6,60.8c.5-.3.8-.4,1.2,0,.4.5.4.9.4,1.7s.1,2.5.2,3.5c-.3.2-.5.3-.8.5-.1-1.1-.3-2.4-.4-3.4,0-.4,0-.6-.2-.8-.2-.2-.3-.2-.5,0-.2.1-.4.3-.4.7,0,.3,0,.6,0,1.1.2.9.3,2.1.4,3.1-.3.2-.5.4-.8.6-.1-1-.3-2.3-.5-3.3,0-.4-.1-.5-.3-.7-.2-.2-.3-.1-.5,0-.2.1-.3.3-.3.6s0,.6,0,1c.2.9.3,2,.4,3-.3.2-.6.4-.9.5-.1-1.8-.4-3.6-1-5.2.3-.2.5-.4.8-.6,0,.2.1.4.2.5,0-.6.2-1.1.7-1.5.4-.4.8-.3,1.2,0,0-.6.5-1.4,1-1.6Z"/><path class="ab" d="m68.8,63.2c0,.6.5.8,1,.5.5-.3.7-.7,1-1.1.2,0,.5.2.7.3-.3.8-1,1.8-1.7,2.1-.7.3-.9.4-1.4-.1-.5-.5-.6-1.1-.6-1.9,0-.8.3-1.9.7-2.7.4-.7,1.1-1.5,1.8-1.8.7-.3,1.1-.4,1.5.2s.3,1.4.2,2.1c0,.2-.1.5-.2.7-1,.6-2.1,1.1-3.1,1.7Zm.1-1.3c.7-.4,1.4-.7,2.2-1.1,0-.3,0-.6-.3-.8-.2-.1-.4-.1-.7,0-.3.1-.6.4-.8.7-.2.3-.4.8-.5,1.2Z"/><path class="ab" d="m74,56c-.2.1-.3.1-.4,0s-.2-.4-.2-.6c0-.2,0-.6.1-.8s.2-.4.3-.5c.2-.1.3,0,.4,0,.1.1.2.3.2.6,0,.2,0,.6,0,.8,0,.2-.3.4-.4.6Zm-1.7,7.4c.3-2.1.9-4.2,1.1-6.3.4-.2.7-.4,1.1-.6,0,2.2-.7,4.3-1.1,6.4-.3.2-.7.4-1,.6Z"/><path class="ab" d="m77.5,54.5c.5-.2.8-.4,1.2,0,.4.4.6.8.5,1.7-.1.9-.7,2.7-.9,3.8-.4.2-.7.4-1.1.6.3-1.1.6-2.6.8-3.7,0-.5,0-.6-.1-.9s-.4-.2-.6,0c-.3.2-.5.4-.7.8-.2.4-.3.6-.4,1.4-.1.8-.5,2.4-.8,3.3-.4.2-.7.4-1.1.6.5-2.1,1.1-4.2,1.1-6.4.3-.2.7-.4,1-.6,0,.2,0,.5,0,.7.2-.6.6-1.3,1.1-1.5Z"/><path class="e" d="m85.1,53.4c0-.2-.1-.3-.3-.2h-.2c-.2.2-.3.4-.3.6v.8c0,.2.1.3.3.2h.2c.2-.2.3-.4.3-.6v-.8Z"/><path class="e" d="m37.3,81c0-.2-.1-.3-.3-.2h-.2c-.2.2-.3.4-.3.6v.8c0,.2.1.3.3.2h.2c.2-.2.3-.4.3-.6v-.8Z"/><path class="e" d="m39.2,79.9c0-.2-.1-.3-.3-.2h-.2c-.2.2-.3.4-.3.6v.8c0,.2.1.3.3.2h.2c.2-.2.3-.4.3-.6v-.8Z"/><path class="e" d="m41.1,78.8c0-.2-.1-.3-.3-.2h-.2c-.2.2-.3.4-.3.6v.8c0,.2.1.3.3.2h.2c.2-.2.3-.4.3-.6v-.8Z"/><path class="e" d="m43.1,77.7c0-.2-.1-.3-.3-.2h-.2c-.2.2-.3.4-.3.6v.8c0,.2.1.3.3.2h.2c.2-.2.3-.4.3-.6v-.8Z"/><path class="e" d="m27.8,86.5c0-.2-.1-.3-.3-.2h-.2c-.2.2-.3.4-.3.6v.8c0,.2.1.3.3.2h.2c.2-.2.3-.4.3-.6v-.8Z"/><path class="e" d="m29.7,85.4c0-.2-.1-.3-.3-.2h-.2c-.2.2-.3.4-.3.6v.8c0,.2.1.3.3.2h.2c.2-.2.3-.4.3-.6v-.8Z"/><path class="e" d="m31.6,84.3c0-.2-.1-.3-.3-.2h-.2c-.2.2-.3.4-.3.6v.8c0,.2.1.3.3.2h.2c.2-.2.3-.4.3-.6v-.8Z"/><path class="e" d="m33.5,83.2c0-.2-.1-.3-.3-.2h-.2c-.2.2-.3.4-.3.6v.8c0,.2.1.3.3.2h.2c.2-.2.3-.4.3-.6v-.8Z"/><path class="e" d="m25.9,87.6c0-.2-.1-.3-.3-.2h-.2c-.2.2-.3.4-.3.6v.8c0,.2.1.3.3.2h.2c.2-.2.3-.4.3-.6v-.8Z"/><path class="e" d="m45,76.6c0-.2-.1-.3-.3-.2h-.2c-.2.2-.3.4-.3.6v.8c0,.2.1.3.3.2h.2c.2-.2.3-.4.3-.6v-.8Z"/><path class="e" d="m46.9,75.5c0-.2-.1-.3-.3-.2h-.2c-.2.2-.3.4-.3.6v.8c0,.2.1.3.3.2h.2c.2-.2.3-.4.3-.6v-.8Z"/><path class="e" d="m48.8,74.4c0-.2-.1-.3-.3-.2h-.2c-.2.2-.3.4-.3.6v.8c0,.2.1.3.3.2h.2c.2-.2.3-.4.3-.6v-.8Z"/><path class="e" d="m50.7,73.3c0-.2-.1-.3-.3-.2h-.2c-.2.2-.3.4-.3.6v.8c0,.2.1.3.3.2h.2c.2-.2.3-.4.3-.6v-.8Z"/><path class="e" d="m52.6,72.1c0-.2-.1-.3-.3-.2h-.2c-.2.2-.3.4-.3.6v.8c0,.2.1.3.3.2h.2c.2-.2.3-.4.3-.6v-.8Z"/><path class="e" d="m54.5,71c0-.2-.1-.3-.3-.2h-.2c-.2.2-.3.4-.3.6v.8c0,.2.1.3.3.2h.2c.2-.2.3-.4.3-.6v-.8Z"/><path class="e" d="m56.4,69.9c0-.2-.1-.3-.3-.2h-.2c-.2.2-.3.4-.3.6v.8c0,.2.1.3.3.2h.2c.2-.2.3-.4.3-.6v-.8Z"/><path class="e" d="m58.3,68.8c0-.2-.1-.3-.3-.2h-.2c-.2.2-.3.4-.3.6v.8c0,.2.1.3.3.2h.2c.2-.2.3-.4.3-.6v-.8Z"/><path class="e" d="m60.3,67.7c0-.2-.1-.3-.3-.2h-.2c-.2.2-.3.4-.3.6v.8c0,.2.1.3.3.2h.2c.2-.2.3-.4.3-.6v-.8Z"/><path class="e" d="m62.2,66.6c0-.2-.1-.3-.3-.2h-.2c-.2.2-.3.4-.3.6v.8c0,.2.1.3.3.2h.2c.2-.2.3-.4.3-.6v-.8Z"/><path class="e" d="m64.1,65.5c0-.2-.1-.3-.3-.2h-.2c-.2.2-.3.4-.3.6v.8c0,.2.1.3.3.2h.2c.2-.2.3-.4.3-.6v-.8Z"/><path class="e" d="m66,64.4c0-.2-.1-.3-.3-.2h-.2c-.2.2-.3.4-.3.6v.8c0,.2.1.3.3.2h.2c.2-.2.3-.4.3-.6v-.8Z"/><path class="e" d="m67.9,63.3c0-.2-.1-.3-.3-.2h-.2c-.2.2-.3.4-.3.6v.8c0,.2.1.3.3.2h.2c.2-.2.3-.4.3-.6v-.8Z"/><path class="e" d="m69.8,62.2c0-.2-.1-.3-.3-.2h-.2c-.2.2-.3.4-.3.6v.8c0,.2.1.3.3.2h.2c.2-.2.3-.4.3-.6v-.8Z"/><path class="e" d="m71.7,61.1c0-.2-.1-.3-.3-.2h-.2c-.2.2-.3.4-.3.6v.8c0,.2.1.3.3.2h.2c.2-.2.3-.4.3-.6v-.8Z"/><path class="e" d="m73.6,60c0-.2-.1-.3-.3-.2h-.2c-.2.2-.3.4-.3.6v.8c0,.2.1.3.3.2h.2c.2-.2.3-.4.3-.6v-.8Z"/><path class="e" d="m75.5,58.9c0-.2-.1-.3-.3-.2h-.2c-.2.2-.3.4-.3.6v.8c0,.2.1.3.3.2h.2c.2-.2.3-.4.3-.6v-.8Z"/><path class="e" d="m77.4,57.8c0-.2-.1-.3-.3-.2h-.2c-.2.2-.3.4-.3.6v.8c0,.2.1.3.3.2h.2c.2-.2.3-.4.3-.6v-.8Z"/><path class="e" d="m79.4,56.7c0-.2-.1-.3-.3-.2h-.2c-.2.2-.3.4-.3.6v.8c0,.2.1.3.3.2h.2c.2-.2.3-.4.3-.6v-.8Z"/><path class="e" d="m81.3,55.6c0-.2-.1-.3-.3-.2h-.2c-.2.2-.3.4-.3.6v.8c0,.2.1.3.3.2h.2c.2-.2.3-.4.3-.6v-.8Z"/><path class="e" d="m83.2,54.5c0-.2-.1-.3-.3-.2h-.2c-.2.2-.3.4-.3.6v.8c0,.2.1.3.3.2h.2c.2-.2.3-.4.3-.6v-.8Z"/><path class="s" d="m34.2,85.5h0c-.1,0-.3,0-.3-.3v-3.8c0-.2.2-.5.3-.6l1.5-.9c0,0,.1,0,.2,0,.1,0,.3,0,.3.3v3.8c0,.2-.2.5-.3.6l-1.5.9c0,0-.1,0-.2,0Zm1.7-5.4s0,0,0,0l-1.5.9c-.1,0-.3.3-.3.4v3.8s0,.1,0,.1,0,0,0,0l1.5-.9c.1,0,.3-.3.3-.4v-3.8s0-.1,0-.1Z"/><path class="s" d="m22.6,92.2h0c-.1,0-.3,0-.3-.3v-3.8c0-.2.2-.5.4-.6l1.5-.9c0,0,.1,0,.2,0,.1,0,.3,0,.3.3v3.8c0,.2-.2.5-.4.6l-1.5.9c0,0-.1,0-.2,0Zm1.7-5.4s0,0,0,0l-1.5.9c-.1,0-.3.3-.3.4v3.8s0,.1,0,.1,0,0,0,0l1.5-.9c.1,0,.3-.3.3-.4v-3.8s0-.1,0-.1Z"/><path class="s" d="m85.7,55.7h0c-.1,0-.3,0-.3-.3v-3.8c0-.2.2-.5.4-.6l1.5-.9c0,0,.1,0,.2,0,.1,0,.3,0,.3.3v3.8c0,.2-.2.5-.4.6l-1.5.9c0,0-.1,0-.2,0Zm1.7-5.4s0,0,0,0l-1.5.9c-.1,0-.3.3-.3.4v3.8s0,.1,0,.1h0s0,0,0,0l1.5-.9c.1,0,.3-.3.3-.4v-3.8s0-.1,0-.1Z"/><path class="v" d="m125.4,82.3v.9c0,0,0,.2-.2.3-.5.3-2.4,1.3-4.4,2.5-1.2.7-1.9.9-2.6.9-1,0-27.8-.8-27.8-.8l-39.6-1.2h-1.2s0,0,0,0h-.4v-1h1.6s2.4-1.3,2.4-1.3l.4-.2,17.5-10.1.3-.2,2.1-1.2.3-.2h0s0,0,.2.1c1.4.8,8.1,4.7,9,5.2,1,.6,1.7.7,4.2,1.1,1.4.2,11.6,1.8,19.6,3.1.2,0,.3,0,.5,0,5.2.8,9.3,1.5,9.3,1.5l1.9.3,5,.8,1.1.2.9-.6h0Z"/><path class="s" d="m125.4,82.3c0,0,0,.1-.2.2-.5.3-2.4,1.3-4.4,2.5-.6.4-1.1.6-1.5.7-.1,0-.3,0-.4.1-.2,0-.4,0-.7,0-.7,0-13.7-.4-21.7-.6-.2,0-.4,0-.6,0-3.3,0-5.5-.2-5.5-.2l-23-.7h-.6s-15.4-.5-15.4-.5h-.7s-1.6,0-1.6,0l2.5-1.4,22.2-12.8s.5.3,1.2.7c2.3,1.3,7.2,4.2,8,4.6,1,.6,1.7.7,4.2,1.1,1.6.2,13.2,2.1,21.3,3.3,0,0,0,0,0,0,4.5.7,8,1.3,8,1.3l7.7,1.2h.4c0,0,0,0,0,0h0s0,0,0,0c.2,0,.7.2.6.4Z"/><path class="v" d="m49.5,84.9s0,0,0,0h0c0,0-.5,0-.8.3-.4.2-.7-.6.4-1.3l.4,1Z"/><path class="v" d="m124.7,82h0s-.4,0-.4,0l-1.1.6-4.7-.5-11.8-1.4.7-.4,1.3-.8s0,0,0,0c-.1,0-.3,0-.4,0l-1.3.8-.7.4-21.1-3.4-11-6.4h-.2c0-.1-.8-.6-.8-.6l-2.8,1.6h0s.9.5.9.5h.3c0,.1,11.7,6.1,11.7,6.1,0,0,.2,0,.3,0l1.4-.8.3,1.1s0,0,.2.1l19.6,2.8c0,0,.2,0,.2,0l1.2-.7,17,2c0,0,.1,0,.2,0l1.3-.8h0Zm-53.1-9.8h-.3c0-.1-.7-.5-.7-.5l2.2-1.2.7.4h.2c0,.1,2.3,1.4,2.3,1.4l-2,1.1-2.4-1.2Zm2.7,1.4l1.9-1.1,4.7,2.7-1.6.9-5-2.5Zm8.9,4.5l-3.5-1.8,1.6-.9,3.3,1.9-1.4.8Zm5.8.9l-3.5-.5-.3-1,3.8.6v.9Zm5.9.8l-5.4-.8v-.9s5.8.9,5.8.9l-.4.8Zm5.7.8l-5.3-.8.4-.8,5.2.8-.4.7Zm4.3.6l-3.9-.6.4-.7,4.4.7-.9.5Z"/><path class="v" d="m119.2,85.8c-.1,0-.3,0-.4.1l-.4-.4-20.7-.9s0,0,0,0l-1.2.7c-.2,0-.4,0-.6,0,0,0,0,0,0,0l1.3-.7-27.8-1.2-2,1.1h-.6s0,0,0,0l2-1.1-17.1-.8c0,0-.1,0-.1,0l.4-.2,66.6,2.9c0,0,.1,0,.2,0l.4.5Z"/><g class="h"><polygon class="o" points="101.9 36.9 101.9 38.3 100.8 38.9 100.7 39 100.6 39.1 99.1 39.9 99.1 38.6 99.1 38.5 99.2 38.4 99.9 38 101.9 36.9"/><polygon class="o" points="115.9 44.3 115.9 45.7 99.1 39.9 99.1 38.5 115.9 44.3"/><path class="n" d="m117.7,43.7l-1.8.6-10.1-3.5-5.1-1.8-1.5-.5h.1c0,0,.7-.5.7-.5l2-1.1h0s0,0,0,0c.3.1.5.2.8.4,0,0,.1,0,.2,0,1.8.8,4.2,1.8,6.5,2.8.6.2,1.1.5,1.7.7.1,0,.2.1.3.2.3.1.7.3,1,.4.3.1.7.3,1,.4.5.2.9.4,1.3.6.1,0,.3.1.4.2.4.2.7.3,1,.4.1,0,.2.1.4.2,0,0,.2,0,.2.1,0,0,.2,0,.2.1,0,0,.1,0,.2,0,0,0,.2,0,.3.1,0,0,0,0,.1,0Z"/><polygon class="t" points="117.7 43.7 117.7 45.2 115.9 45.7 115.9 44.3 117.7 43.7"/><path class="ab" d="m118.2,44.1h0s0,0,0,0c0,0,0,0,0,0,0,0,0,0,0,0,0,0-.2.1-.5.3,0,0,0,0,0,0-.1,0-.3.2-.5.3-.4.2-.8.4-1.1.7,0,0,0,0-.1,0h0s0,0-.1,0c0,0,0,0-.1,0-.1,0-.3.2-.4.2,0,0-.1,0-.2.1,0,0-.2.1-.2.1,0,0,0,0,0,0,0,0-.1,0-.2,0,0,0,0,0,0,0h-.1s0,0-.1,0c0,0,0,0,0,0,0,0,0,0,0,0s0,0,0,0c0,0-.1,0-.2,0h0s0,0,0,0h0s0,0,0,0c0,0,0,0,0,0,0,0,0,0,0,0,0,0,0,0,0,0,0,0,0,0,0,0,0,0,0,0,0,0-.1,0-2.5-.5-4.1-.8,0,0-.2,0-.3,0,0,0-.2,0-.3,0-.3,0-.8-.1-1.2-.2-.2,0-.5,0-.8-.2-.4,0-.8-.1-1.2-.2-.2,0-.4,0-.7-.1-.2,0-.4,0-.7-.1-3.1-.6-7-1.3-9.4-1.8-1.3-.3-2.3-.4-2.4-.5l6.6-3.8h0s1.5.5,1.5.5l5.1,1.8,10.1,3.5,1.8-.6s0,0,0,0c0,0,0,0,0,0,0,0,.2,0,.2.1.1,0,.2.1.2.2Z"/><path class="m" d="m118.2,44.1v1.4s0,0,0,0t0,0s0,0,0,0c0,0,0,0,0,0,0,0,0,0,0,0h0s0,0,0,0c0,0,0,0,0,0,0,0,0,0,0,0-.1,0-2.9,1.7-3.4,2,0,0-.1,0-.2,0,0,0,0,0,0,0,0,0,0,0,0,0,0,0,0,0,0,0,0,0,0,0-.1,0,0,0,0,0,0,0,0,0,0,0,0,0,0,0,0,0,0,0,0,0,0,0,0,0,0,0,0,0,0,0h-.1s0,0,0,0h0s0,0,0,0c0,0,0,0,0,0h0s0,0,0,0c0,0,0,0,0,0-.1,0-2.5-.5-4.1-.8-1.3-.2-11.3-2.1-15.4-2.9-.9-.2-1.6-.3-1.7-.3v-1.4c.2,0,1.1.2,2.4.5,2.5.5,6.3,1.2,9.4,1.8.2,0,.5,0,.7.1.2,0,.4,0,.7.1.4,0,.8.2,1.2.2.3,0,.6.1.8.2.5,0,.9.2,1.2.2.1,0,.2,0,.3,0,.1,0,.2,0,.3,0,1.6.3,4,.8,4.1.8,0,0,0,0,0,0h0s0,0,0,0c0,0,0,0,0,0,0,0,0,0,0,0,0,0,0,0,0,0h0s0,0,0,0h0s0,0,0,0h.1s0,0,.1,0c0,0,0,0,0,0,0,0,0,0,0,0,0,0,0,0,0,0,0,0,0,0,.1,0h.1s0,0,0,0c0,0,.1,0,.2,0,0,0,0,0,0,0,0,0,.1,0,.2-.1,0,0,.1,0,.2-.1.1,0,.2-.1.4-.2h0s0,0,.1,0c0,0,0,0,.1,0,0,0,0,0,.1,0,.4-.2.8-.5,1.1-.7.2-.1.3-.2.5-.3,0,0,0,0,0,0,.3-.2.5-.3.5-.3,0,0,0,0,0,0,0,0,0,0,0,0,0,0,0,0,0,0Z"/></g><path class="aa" d="m117.7,43.8s0,0,0,0h0s-1.8.6-1.8.6c0,0,0,0,0,0s0,0,0,0l-10.2-3.5-5.1-1.8-1.4-.5h0s0,0,0,0h0s.1-.1.1-.1l1.5.5,5.2,1.8,9.9,3.4,1.7-.5s0,0,.1,0c0,0,0,0,0,0Z"/><path class="v" d="m75,70.4c-.3,0-.6.2-1,.4,0,0,0,0,0,0-.1,0-.2.1-.3.2-.7.4-1.5.8-2.1,1.2-.1,0-.2.1-.3.2-.2.2-.5.3-.7.4-1.1.6-12.1,7-16.6,9.6-.1,0-.3.2-.4.2-.7.4-1.2.7-1.5.8-.3.2-.5.3-.7.5-.3.3-.5.7-.6,1h-1.2s0,0,0,0c0,0-.5,0-.8.3-.4.2-.7-.6.4-1.3l2.5-1.4,22.2-12.8s.5.3,1.2.7Z"/><path class="k" d="m109.5,40.2c-.8.1-2.1.3-3.5.6,0,0-.1,0-.2,0,0,0-.1,0-.2,0-.8.1-1.7.3-2.6.4-3.4.6-6.8,1.2-7.5,1.3-.3,0-.5.2-.7.3-.6.3-.7.9-.7,1.3-.9-.2-1.6-.3-1.7-.3v-1.4s6.6-3.8,6.6-3.8h0s.1-.1.1-.1l.7-.4,2-1.1h0s0,0,0,0c.3.1.5.2.8.4,0,0,.1,0,.2,0,1.8.8,4.2,1.8,6.5,2.8Z"/></g></g></svg>