<svg width="38" height="42" viewBox="0 0 38 42" fill="none" xmlns="http://www.w3.org/2000/svg">
<g clip-path="url(#clip0_2808_4308)">
<path d="M24.7861 9.1302C24.8836 9.1302 24.9813 9.12729 25.0788 9.1302C25.3416 9.13894 25.4634 9.33673 25.3382 9.58341C25.2397 9.76611 25.1262 9.93942 24.9989 10.1014C24.2414 11.1139 23.4895 12.132 22.7166 13.1317C22.0146 14.0381 21.2984 14.9337 20.568 15.8185C20.2146 16.2462 19.7868 16.5828 19.2387 16.7081C18.591 16.856 18.0217 16.6667 17.4955 16.2759C17.1772 16.0396 16.9675 15.7039 16.7605 15.3715C16.082 14.2797 15.4092 13.1835 14.7422 12.0828C14.4504 11.6008 14.1796 11.1049 13.8995 10.6148C13.8838 10.5873 13.8687 10.5584 13.8557 10.5296C13.6803 10.1512 13.786 9.94694 14.183 9.91683C15.5909 9.80569 16.9993 9.69638 18.4084 9.58891C19.6529 9.49179 20.8971 9.39662 22.1404 9.30695C23.0216 9.24221 23.9034 9.19106 24.7852 9.13344L24.7861 9.1302Z" fill="white"/>
<path d="M23.2957 25.3865C23.0489 25.3467 22.7541 25.3059 22.4629 25.2496C21.846 25.1305 21.2329 25.0042 20.6182 24.8786C19.878 24.7275 19.1377 24.5747 18.3975 24.4202C17.5315 24.2394 16.6657 24.0559 15.8003 23.8699C15.6688 23.8455 15.5396 23.8091 15.4141 23.7611C15.1014 23.6316 14.9922 23.3685 15.1233 23.0418C15.2966 22.61 15.4813 22.1827 15.6667 21.7557C15.973 21.0497 16.2675 20.3368 16.5988 19.6434C16.8187 19.1783 17.0654 18.7196 17.355 18.2981C17.9019 17.5017 18.8814 17.4376 19.5359 18.1424C19.7737 18.3987 19.9785 18.6953 20.1673 18.9947C20.6037 19.6868 21.0207 20.3919 21.4457 21.0918C22.1382 22.2332 22.8304 23.3739 23.5223 24.5138C23.5853 24.6186 23.6415 24.7277 23.6904 24.8404C23.8268 25.1544 23.6759 25.391 23.2957 25.3865Z" fill="white"/>
</g>
<path d="M1 31.7097L0.33265 31.3674C0.213405 31.5999 0.223768 31.8777 0.360001 32.1007C0.496235 32.3237 0.7387 32.4597 1 32.4597L1 31.7097ZM37 31.7097V32.4597C37.2613 32.4597 37.5038 32.3237 37.64 32.1007C37.7762 31.8777 37.7866 31.5999 37.6674 31.3674L37 31.7097ZM6.25 14.1613C6.25 7.32457 11.9403 1.75 19 1.75V0.25C11.148 0.25 4.75 6.46045 4.75 14.1613H6.25ZM19 1.75C26.0597 1.75 31.75 7.32457 31.75 14.1613H33.25C33.25 6.46045 26.852 0.25 19 0.25V1.75ZM4.75 14.1613C4.75 18.432 3.65236 22.7308 2.54033 25.9832C1.98591 27.6047 1.43156 28.9557 1.01654 29.8998C0.809113 30.3716 0.63673 30.7413 0.516868 30.9917C0.456944 31.1169 0.41017 31.2122 0.378732 31.2756C0.363013 31.3072 0.351131 31.3309 0.343359 31.3463C0.339473 31.354 0.336615 31.3596 0.334819 31.3632C0.33392 31.3649 0.333288 31.3662 0.332925 31.3669C0.332743 31.3672 0.332629 31.3675 0.332583 31.3675C0.33256 31.3676 0.332577 31.3676 0.332565 31.3676C0.332599 31.3675 0.33265 31.3674 1 31.7097C1.66735 32.0519 1.66744 32.0518 1.66754 32.0516C1.66759 32.0515 1.66771 32.0512 1.66783 32.051C1.66806 32.0506 1.66835 32.05 1.66871 32.0493C1.66944 32.0479 1.67044 32.0459 1.6717 32.0434C1.67423 32.0384 1.67783 32.0314 1.68246 32.0222C1.69172 32.0038 1.7051 31.9772 1.72234 31.9424C1.75682 31.873 1.80673 31.7712 1.86985 31.6393C1.99608 31.3756 2.17526 30.9913 2.38971 30.5034C2.81844 29.5282 3.38909 28.1372 3.95967 26.4684C5.09764 23.1402 6.25 18.6647 6.25 14.1613H4.75ZM1 32.4597H37V30.9597H1V32.4597ZM37 31.7097C37.6674 31.3674 37.6674 31.3675 37.6674 31.3676C37.6674 31.3676 37.6674 31.3676 37.6674 31.3675C37.6674 31.3675 37.6673 31.3672 37.6671 31.3669C37.6667 31.3662 37.6661 31.3649 37.6652 31.3632C37.6634 31.3596 37.6605 31.354 37.6566 31.3463C37.6489 31.3309 37.637 31.3072 37.6213 31.2756C37.5898 31.2122 37.5431 31.1169 37.4831 30.9917C37.3633 30.7413 37.1909 30.3716 36.9835 29.8998C36.5684 28.9557 36.0141 27.6047 35.4597 25.9832C34.3476 22.7308 33.25 18.432 33.25 14.1613H31.75C31.75 18.6647 32.9024 23.1402 34.0403 26.4684C34.6109 28.1372 35.1816 29.5282 35.6103 30.5034C35.8247 30.9913 36.0039 31.3756 36.1301 31.6393C36.1933 31.7712 36.2432 31.873 36.2777 31.9424C36.2949 31.9772 36.3083 32.0038 36.3175 32.0222C36.3222 32.0314 36.3258 32.0384 36.3283 32.0434C36.3296 32.0459 36.3306 32.0479 36.3313 32.0493C36.3316 32.05 36.3319 32.0506 36.3322 32.051C36.3323 32.0512 36.3324 32.0515 36.3325 32.0516C36.3326 32.0518 36.3326 32.0519 37 31.7097ZM25 33.9032C25 37.1056 22.3318 39.7339 19 39.7339V41.2339C23.1241 41.2339 26.5 37.9697 26.5 33.9032H25ZM19 39.7339C15.6682 39.7339 13 37.1056 13 33.9032H11.5C11.5 37.9697 14.8759 41.2339 19 41.2339V39.7339ZM13 33.9032V31.7097H11.5V33.9032H13ZM26.5 33.9032V31.7097H25V33.9032H26.5Z" fill="white"/>
<defs>
<clipPath id="clip0_2808_4308">
<rect width="11.6129" height="16.2581" fill="white" transform="translate(13.7744 9.12891)"/>
</clipPath>
</defs>
</svg>
