<svg width="34" height="29" viewBox="0 0 34 29" fill="none" xmlns="http://www.w3.org/2000/svg">
<g clip-path="url(#clip0_2867_4886)">
<path d="M0 1.4502H34V29.0002H0V1.4502Z" fill="#BDC3C7"/>
<path d="M0 0H34V27.0667H0V0Z" fill="#ECF0F1"/>
<path d="M0 1.4502H34V7.73353H0V1.4502Z" fill="#BDC3C7"/>
<path d="M0 0.966797H34V7.25013H0V0.966797Z" fill="#AA2D21"/>
<path d="M0 0H34V6.28333H0V0Z" fill="#C33925"/>
<path d="M17 4.48525C17.6116 4.48525 18.1074 3.99187 18.1074 3.38325C18.1074 2.77463 17.6116 2.28125 17 2.28125C16.3884 2.28125 15.8926 2.77463 15.8926 3.38325C15.8926 3.99187 16.3884 4.48525 17 4.48525Z" fill="#D8675B"/>
<path d="M17 4.00185C17.6116 4.00185 18.1074 3.50847 18.1074 2.89985C18.1074 2.29123 17.6116 1.79785 17 1.79785C16.3884 1.79785 15.8926 2.29123 15.8926 2.89985C15.8926 3.50847 16.3884 4.00185 17 4.00185Z" fill="#414141"/>
<g clip-path="url(#clip1_2867_4886)">
<path d="M21.5335 11.001C21.609 11.001 21.6848 10.9988 21.7603 11.001C21.964 11.0074 22.0584 11.1534 21.9613 11.3355C21.885 11.4703 21.797 11.5982 21.6984 11.7178C21.1113 12.4651 20.5286 13.2166 19.9296 13.9544C19.3855 14.6234 18.8305 15.2845 18.2645 15.9376C17.9905 16.2532 17.659 16.5017 17.2342 16.5942C16.7323 16.7034 16.291 16.5636 15.8832 16.2752C15.6366 16.1008 15.474 15.853 15.3136 15.6076C14.7878 14.8018 14.2664 13.9927 13.7494 13.1803C13.5233 12.8245 13.3134 12.4585 13.0964 12.0967C13.0842 12.0764 13.0725 12.0551 13.0624 12.0339C12.9264 11.7546 13.0084 11.6038 13.316 11.5816C14.4071 11.4995 15.4987 11.4189 16.5908 11.3395C17.5553 11.2678 18.5195 11.1976 19.483 11.1314C20.166 11.0836 20.8494 11.0459 21.5327 11.0033L21.5335 11.001Z" fill="#414141"/>
<path d="M20.3787 23.0001C20.1875 22.9707 19.959 22.9406 19.7333 22.899C19.2553 22.8111 18.7801 22.7179 18.3037 22.6252C17.73 22.5137 17.1563 22.4009 16.5826 22.2869C15.9114 22.1534 15.2405 22.018 14.5698 21.8807C14.4679 21.8627 14.3677 21.8358 14.2705 21.8004C14.0281 21.7048 13.9435 21.5106 14.0451 21.2695C14.1794 20.9507 14.3226 20.6353 14.4663 20.3202C14.7036 19.7991 14.9319 19.2729 15.1886 18.7611C15.359 18.4178 15.5503 18.0792 15.7747 17.7681C16.1985 17.1804 16.9577 17.133 17.4649 17.6532C17.6492 17.8424 17.8079 18.0613 17.9542 18.2823C18.2924 18.7932 18.6156 19.3136 18.945 19.8301C19.4817 20.6726 20.0182 21.5145 20.5544 22.3559C20.6032 22.4333 20.6467 22.5138 20.6847 22.597C20.7903 22.8288 20.6734 23.0034 20.3787 23.0001Z" fill="#414141"/>
</g>
</g>
<defs>
<clipPath id="clip0_2867_4886">
<rect width="34" height="29" fill="white"/>
</clipPath>
<clipPath id="clip1_2867_4886">
<rect width="9" height="12" fill="white" transform="translate(13 11)"/>
</clipPath>
</defs>
</svg>
