<?xml version="1.0" encoding="UTF-8"?><svg id="a" xmlns="http://www.w3.org/2000/svg" viewBox="0 0 128 128"><defs><style>.b{fill:#e74c3c;}.c{fill:#a9817c;}.d{fill:#bdc2c6;}.e{fill:#b9afae;}.f{fill:#f9f9f9;}.g{fill:#c03b2b;}.h{fill:#eb8b7f;}.i{fill:#95a5a6;}</style></defs><rect class="f" x="16.2" y="28.1" width="95.6" height="88.8" rx="1.3" ry="1.3"/><path class="b" d="m16.2,28.1c0-1,.4-1.9.7-2.8.8-2,2.2-3.6,3.9-4.8,1.3-.9,2.9-1.4,4.4-1.6.3-.1.7,0,1,0,.1,0,.2,0,.4,0,0,0,.1.1.1.2.1,1.6,0,3.2,0,4.8,0,.1,0,.2,0,.3,0,0,0,.1,0,.2,0,.6,0,1.2,0,1.7,0,.1,0,.2,0,.3-.4.5-.9,1-1.2,1.6-2,3-1.7,6.7.8,9.3,1.5,1.6,3.3,2.5,5.5,2.6,1.5,0,3-.3,4.2-1.2,2.4-1.6,3.8-3.9,3.8-6.8,0-1.7-.7-3.1-1.7-4.4-.3-.4-.6-.7-.8-1.1,0,0,0-.2,0-.3,0-.6,0-1.2,0-1.7,0,0,0-.1,0-.2,0-.1,0-.2,0-.3,0-1.6,0-3.2,0-4.8,0,0,0-.1.1-.2,17.7,0,35.4,0,53.1,0,0,0,.1.1.1.2.1,1.6,0,3.2,0,4.8,0,.1,0,.2,0,.3,0,0,0,.1,0,.2,0,.6,0,1.2,0,1.7,0,.1,0,.2,0,.3-.4.5-.9,1-1.2,1.6-2,3.1-1.7,6.4.7,9.2,1.5,1.7,3.3,2.7,5.6,2.8,1.5,0,3-.3,4.2-1.2,2.4-1.6,3.8-3.9,3.8-6.8,0-1.7-.7-3.1-1.7-4.4-.3-.4-.6-.7-.8-1.1,0,0,0-.2,0-.3,0-.6,0-1.2,0-1.7,0,0,0-.1,0-.2,0-.1,0-.2,0-.3,0-1.6,0-3.2,0-4.8,0,0,0-.1.1-.2h.4c.3.1.6,0,.9.1,3.5.4,6.1,2.2,7.9,5.2.8,1.2,1.1,2.6,1.3,4,.1.3,0,.6,0,.9,0,5.6,0,11.3,0,16.9,0,1.4,0,2.9,0,4.3,0,.4-.1.6-.5.5,0,0-.2,0-.2,0-31.4,0-62.8,0-94.3,0-.6,0-.8-.1-.8-.8,0-6.7,0-13.4,0-20.1,0-.3,0-.6,0-.9.1-.3,0-.6,0-.9Z"/><path class="d" d="m111.8,105.3c0,2.5.3,5.1-.6,7.6-1.5,3.7-4.1,5.9-8,6.8-1,.2-1.9.2-2.9.2-24.4,0-48.8,0-73.1,0-1.8,0-3.5-.3-5.1-1.1-1.9-1-3.5-2.4-4.5-4.3-1-1.7-1.4-3.6-1.4-5.6,0-1.2,0-2.4,0-3.6.3,1.9,1,3.6,2.2,5.1,1.8,2.2,4,3.6,6.8,4,.6.1,1.2.1,1.9.1,24.6,0,49.3,0,73.9,0,4.6,0,7.9-2.2,10-6.2.5-.9.7-1.9.9-3Z"/><path class="d" d="m101.3,18.8s0,0,0,.1c0,1.7,0,3.3,0,5,0,0,0,.2,0,.2,0,0-.1.1-.2.1-.2,0-.5,0-.7,0-2.9,0-5.9,0-8.8,0-.2,0-.5,0-.7,0,0,0-.1,0-.2-.1,0,0,0-.2,0-.2,0-1.7,0-3.3,0-5,0,0,0,0,0-.1,0-1.7,0-3.4,0-5.1,0-2.3,1-4.1,3.1-5.1,2-.9,4.8-.6,6.5,1.6.8,1,1.1,2.2,1.1,3.5,0,1.7,0,3.4,0,5.2Z"/><path class="d" d="m37.4,23.9c0,0,0,.2,0,.2,0,0-.1.1-.2.1-.2,0-.5,0-.7,0-2.9,0-5.9,0-8.8,0-.2,0-.5,0-.7,0,0,0-.1,0-.2-.1,0,0,0-.2,0-.2,0-1.7,0-3.3,0-5,0,0,0,0,0-.1,0-1.7,0-3.5,0-5.2,0-1.6.5-3,1.7-4,1.6-1.4,3.5-1.7,5.5-1,1.9.7,3,2.1,3.4,4.2.2,1.1,0,2.2.1,3.3,0,1,0,1.9,0,2.9,0,0,0,0,0,.1,0,1.7,0,3.3,0,5Z"/><path class="d" d="m96,61.3c1.6,0,3.2,0,4.7,0,.4,0,.6.1.6.6,0,3.2,0,6.4,0,9.6,0,.4-.1.6-.6.6-3.2,0-6.4,0-9.6,0-.4,0-.6-.1-.6-.6,0-3.2,0-6.4,0-9.6,0-.4.1-.6.6-.6,1.6,0,3.2,0,4.9,0Z"/><path class="d" d="m95.9,103.9c-1.6,0-3.2,0-4.7,0-.4,0-.6-.1-.6-.6,0-3.2,0-6.4,0-9.6,0-.4.1-.6.6-.6,3.2,0,6.4,0,9.6,0,.4,0,.6.1.6.6,0,3.2,0,6.4,0,9.6,0,.5-.2.6-.6.6-1.6,0-3.2,0-4.8,0Z"/><path class="d" d="m80,61.3c1.6,0,3.2,0,4.7,0,.4,0,.6.1.6.6,0,3.2,0,6.4,0,9.6,0,.4-.1.6-.6.6-3.2,0-6.4,0-9.6,0-.4,0-.6-.1-.6-.6,0-3.2,0-6.4,0-9.6,0-.4.1-.6.6-.6,1.6,0,3.2,0,4.9,0Z"/><path class="d" d="m85.3,98.6c0,1.6,0,3.2,0,4.8,0,.4-.1.6-.6.6-3.2,0-6.4,0-9.6,0-.4,0-.6-.1-.6-.6,0-3.2,0-6.4,0-9.6,0-.4.1-.6.6-.6,3.2,0,6.4,0,9.6,0,.4,0,.6.1.6.6,0,1.6,0,3.2,0,4.8Z"/><path class="d" d="m80,88c-1.6,0-3.2,0-4.8,0-.4,0-.6-.1-.6-.6,0-3.2,0-6.4,0-9.6,0-.4.1-.6.6-.6,3.2,0,6.4,0,9.6,0,.4,0,.6.1.6.6,0,3.2,0,6.4,0,9.6,0,.4-.1.6-.6.6-1.6,0-3.2,0-4.8,0Z"/><path class="d" d="m101.3,82.6c0,1.6,0,3.2,0,4.8,0,.4-.1.6-.6.6-3.2,0-6.4,0-9.6,0-.4,0-.6-.1-.6-.6,0-3.2,0-6.4,0-9.6,0-.4.1-.6.6-.6,3.2,0,6.4,0,9.6,0,.4,0,.6.1.6.6,0,1.6,0,3.2,0,4.8Z"/><path class="d" d="m58.6,98.6c0-1.6,0-3.2,0-4.8,0-.4.1-.6.6-.6,3.2,0,6.4,0,9.6,0,.4,0,.6.1.6.6,0,3.2,0,6.4,0,9.6,0,.4-.1.6-.6.6-3.2,0-6.4,0-9.6,0-.4,0-.6-.1-.6-.6,0-1.6,0-3.2,0-4.8Z"/><path class="d" d="m58.6,82.6c0-1.6,0-3.2,0-4.8,0-.4.1-.6.6-.6,3.2,0,6.4,0,9.6,0,.4,0,.6.1.6.6,0,3.2,0,6.4,0,9.6,0,.4-.1.6-.6.6-3.2,0-6.4,0-9.6,0-.4,0-.6-.1-.6-.6,0-1.6,0-3.2,0-4.8Z"/><path class="h" d="m26.3,18.8c-.3.2-.7.1-1,0,.3-.2.7-.1,1,0Z"/><path class="h" d="m111.9,29c-.2-.3,0-.6,0-.9.2.3.1.6,0,.9Z"/><path class="h" d="m16.2,28.1c0,.3,0,.6,0,.9,0-.3,0-.6,0-.9Z"/><path class="h" d="m102.5,18.9c-.3,0-.6,0-.9,0,.3,0,.6,0,.9,0Z"/><path class="g" d="m101.3,26.4c2.9,2.8,3.6,6.7,1,10.2-1.2,1.6-2.8,2.8-4.8,3.2-2.5.6-4.7-.1-6.6-1.7-1.4-1.2-2.4-2.7-2.8-4.5-.5-2.3.1-4.3,1.5-6.2.3-.4.6-.8,1-1,.2.2.2.5.2.7,0,.9,0,1.7,0,2.6.3,2.5,1.7,4.1,4.1,4.8.3,0,.6,0,.8,0,.2,0,.3,0,.5,0,.2,0,.5,0,.7,0,2.4-.7,3.9-2.3,4.2-4.8,0-.9,0-1.7,0-2.6,0-.3,0-.5.2-.7Z"/><path class="g" d="m37.5,26.4c2.9,2.8,3.6,6.7,1,10.3-1.2,1.7-2.8,2.8-4.9,3.2-2.5.5-4.7-.2-6.6-1.8-1.6-1.4-2.6-3.1-2.8-5.2-.3-2,.4-3.8,1.6-5.5.3-.4.6-.8,1-1,.2.2.2.5.2.7,0,.9,0,1.7,0,2.6.3,2.5,1.7,4.1,4.1,4.8.3,0,.6,0,.8,0,.2,0,.3,0,.5,0,.2,0,.5,0,.7,0,2.4-.7,3.9-2.3,4.2-4.8,0-.9,0-1.7,0-2.6,0-.3,0-.5.2-.7Z"/><path class="i" d="m96.2,34.7c-.2,0-.3,0-.5,0-.3-.1-.6,0-.9-.1-1.1-.2-2-.8-2.8-1.6-.8-.8-1.1-1.9-1.4-2.9,0,0,0-.2,0-.3-.1-1.2,0-2.5,0-3.7,0-.6,0-1.2,0-1.9,0,0,0-.1,0-.1h10.5s0,0,0,.1c0,.6,0,1.2,0,1.9,0,1,0,2.1,0,3.1,0,.2,0,.4,0,.6,0,1.9-1.5,3.9-3.4,4.5-.3,0-.6.2-.9.2-.2.1-.5,0-.8.1Z"/><path class="i" d="m31,34.6c-1.9-.5-3.2-1.6-3.9-3.4-.1-.4-.4-.8-.3-1.3-.1-1.2,0-2.5,0-3.7,0-.6,0-1.2,0-1.9,0,0,0-.1,0-.1h10.5s0,0,0,.1c0,.6,0,1.2,0,1.9,0,1.2,0,2.5,0,3.7,0,1.9-1.5,3.9-3.4,4.5-.3,0-.6.2-.9.2-.2.1-.5,0-.8.1-.2,0-.3,0-.5,0-.3-.1-.6,0-.9-.1Z"/><path class="e" d="m26.7,18.9c.2.3,0,.6,0,.9,0,1.2,0,2.3,0,3.5,0,.2,0,.4,0,.6,0-1.7,0-3.3,0-5Z"/><path class="e" d="m101.3,23.9c-.2-.3,0-.6,0-.9,0-1.2,0-2.3,0-3.5,0-.2,0-.4,0-.6,0,1.7,0,3.3,0,5Z"/><path class="e" d="m90.6,18.9c.2.3,0,.6,0,.9,0,1.2,0,2.3,0,3.5,0,.2,0,.4,0,.6,0-1.7,0-3.3,0-5Z"/><path class="e" d="m37.4,23.9c-.2-.3,0-.6,0-.9,0-1.2,0-2.3,0-3.5,0-.2,0-.4,0-.6,0,1.7,0,3.3,0,5Z"/><path class="c" d="m37.3,29.9c0-1.2-.1-2.5,0-3.7,0,0,0,.2,0,.3,0,.9,0,1.9,0,2.8,0,.2,0,.5-.1.7Z"/><path class="c" d="m26.8,26.1c.2.9,0,1.8,0,2.7,0,.3,0,.7,0,1-.3-.6,0-1.2-.1-1.8,0-.6,0-1.1,0-1.7,0,0,0-.2,0-.3Z"/><path class="c" d="m90.6,26.1c.2.9,0,1.8,0,2.7,0,.3,0,.7,0,1-.2-.3-.1-.7-.1-1.1,0-.8,0-1.6,0-2.4,0,0,0-.2,0-.3Z"/><path class="c" d="m101.2,29.9c0-1.2-.1-2.5,0-3.7,0,0,0,.2,0,.3,0,.9,0,1.9,0,2.8,0,.2,0,.5-.1.7Z"/><path class="c" d="m101.3,24.3s0,0,0-.1c0,0,0,0,0,0,0,0,0,.1,0,.2Z"/><path class="c" d="m37.4,24.3s0,0,0-.1c0,0,0,0,0,0,0,0,0,.1,0,.2Z"/><path class="c" d="m26.8,24.1s0,0,0,.1c0,0,0-.1,0-.2,0,0,0,0,0,0Z"/><path class="c" d="m90.7,24.1s0,0,0,.1c0,0,0-.1,0-.2,0,0,0,0,0,0Z"/><path class="c" d="m94.8,34.6c.3,0,.6,0,.9.1-.3,0-.6,0-.9-.1Z"/><path class="c" d="m96.2,34.7c.2-.2.5-.1.8-.1-.2.2-.5.1-.8.1Z"/><path class="c" d="m31,34.6c.3,0,.6,0,.9.1-.3,0-.6,0-.9-.1Z"/><path class="c" d="m32.3,34.7c.2-.2.5-.1.8-.1-.2.2-.5.1-.8.1Z"/><path class="d" d="m53.8,62.2c.3,0,.5,0,.8,0,.7,0,1,.5.7,1.1-.2.5-.6.9-.9,1.3-2,2.6-4,5.1-6,7.6-1.9,2.3-3.7,4.5-5.7,6.8-.9,1.1-2.1,1.9-3.5,2.2-1.7.4-3.2-.1-4.6-1.1-.8-.6-1.4-1.4-1.9-2.3-1.8-2.7-3.6-5.5-5.3-8.3-.8-1.2-1.5-2.5-2.2-3.7,0,0,0-.1-.1-.2-.5-1-.2-1.5.9-1.5,3.7-.3,7.4-.6,11.2-.8,3.3-.2,6.6-.5,9.9-.7,2.3-.2,4.7-.3,7-.4,0,0,0,0,0,0Z"/><path class="d" d="m49.9,103.1c-.7-.1-1.4-.2-2.2-.3-1.6-.3-3.3-.6-4.9-.9-2-.4-3.9-.8-5.9-1.2-2.3-.5-4.6-.9-6.9-1.4-.3,0-.7-.1-1-.3-.8-.3-1.1-1-.8-1.8.5-1.1.9-2.2,1.4-3.2.8-1.8,1.6-3.6,2.5-5.3.6-1.2,1.2-2.3,2-3.4,1.4-2,4-2.2,5.8-.4.6.6,1.2,1.4,1.7,2.1,1.2,1.7,2.3,3.5,3.4,5.3,1.8,2.9,3.7,5.7,5.5,8.6.2.3.3.5.4.8.4.8,0,1.4-1,1.4Z"/></svg>