<svg xmlns="http://www.w3.org/2000/svg" viewBox="0 0 128 128" xmlns:v="https://vecta.io/nano"><rect x="16.2" y="28.1" width="95.6" height="88.8" rx="1.3" fill="#f9f9f9"/><path d="M16.2 28.1c0-1 .4-1.9.7-2.8.8-2 2.2-3.6 3.9-4.8 1.3-.9 2.9-1.4 4.4-1.6.3-.1.7 0 1 0h.4s.1.1.1.2c.1 1.6 0 3.2 0 4.8v.3.2 1.7.3c-.4.5-.9 1-1.2 1.6-2 3-1.7 6.7.8 9.3 1.5 1.6 3.3 2.5 5.5 2.6 1.5 0 3-.3 4.2-1.2 2.4-1.6 3.8-3.9 3.8-6.8 0-1.7-.7-3.1-1.7-4.4-.3-.4-.6-.7-.8-1.1v-.3-1.7-.2-.3-4.8s0-.1.1-.2h53.1s.1.1.1.2c.1 1.6 0 3.2 0 4.8v.3.2 1.7.3c-.4.5-.9 1-1.2 1.6-2 3.1-1.7 6.4.7 9.2 1.5 1.7 3.3 2.7 5.6 2.8 1.5 0 3-.3 4.2-1.2 2.4-1.6 3.8-3.9 3.8-6.8 0-1.7-.7-3.1-1.7-4.4-.3-.4-.6-.7-.8-1.1v-.3-1.7-.2-.3-4.8s0-.1.1-.2h.4c.3.1.6 0 .9.1 3.5.4 6.1 2.2 7.9 5.2.8 1.2 1.1 2.6 1.3 4 .1.3 0 .6 0 .9v16.9 4.3c0 .4-.1.6-.5.5h-.2-94.3c-.6 0-.8-.1-.8-.8V30v-.9c.1-.3 0-.6 0-.9z" fill="#e74c3c"/><g fill="#bdc2c6"><path d="M111.8 105.3c0 2.5.3 5.1-.6 7.6-1.5 3.7-4.1 5.9-8 6.8-1 .2-1.9.2-2.9.2H27.2c-1.8 0-3.5-.3-5.1-1.1-1.9-1-3.5-2.4-4.5-4.3-1-1.7-1.4-3.6-1.4-5.6v-3.6c.3 1.9 1 3.6 2.2 5.1 1.8 2.2 4 3.6 6.8 4 .6.1 1.2.1 1.9.1H101c4.6 0 7.9-2.2 10-6.2.5-.9.7-1.9.9-3zm-10.5-86.5v.1 5 .2s-.1.1-.2.1h-.7-8.8-.7s-.1 0-.2-.1v-.2-5-.1-5.1c0-2.3 1-4.1 3.1-5.1 2-.9 4.8-.6 6.5 1.6.8 1 1.1 2.2 1.1 3.5v5.2zm-63.9 5.1v.2s-.1.1-.2.1h-.7-8.8-.7s-.1 0-.2-.1v-.2-5-.1-5.2c0-1.6.5-3 1.7-4 1.6-1.4 3.5-1.7 5.5-1 1.9.7 3 2.1 3.4 4.2.2 1.1 0 2.2.1 3.3V19v.1 5zM96 61.3h4.7c.4 0 .6.1.6.6v9.6c0 .4-.1.6-.6.6h-9.6c-.4 0-.6-.1-.6-.6v-9.6c0-.4.1-.6.6-.6H96zm-.1 42.6h-4.7c-.4 0-.6-.1-.6-.6v-9.6c0-.4.1-.6.6-.6h9.6c.4 0 .6.1.6.6v9.6c0 .5-.2.6-.6.6H96zM80 61.3h4.7c.4 0 .6.1.6.6v9.6c0 .4-.1.6-.6.6h-9.6c-.4 0-.6-.1-.6-.6v-9.6c0-.4.1-.6.6-.6H80zm5.3 37.3v4.8c0 .4-.1.6-.6.6h-9.6c-.4 0-.6-.1-.6-.6v-9.6c0-.4.1-.6.6-.6h9.6c.4 0 .6.1.6.6v4.8zM80 88h-4.8c-.4 0-.6-.1-.6-.6v-9.6c0-.4.1-.6.6-.6h9.6c.4 0 .6.1.6.6v9.6c0 .4-.1.6-.6.6H80zm21.3-5.4v4.8c0 .4-.1.6-.6.6h-9.6c-.4 0-.6-.1-.6-.6v-9.6c0-.4.1-.6.6-.6h9.6c.4 0 .6.1.6.6v4.8zm-42.7 16v-4.8c0-.4.1-.6.6-.6h9.6c.4 0 .6.1.6.6v9.6c0 .4-.1.6-.6.6h-9.6c-.4 0-.6-.1-.6-.6v-4.8z"/><path d="M58.6 82.6v-4.8c0-.4.1-.6.6-.6h9.6c.4 0 .6.1.6.6v9.6c0 .4-.1.6-.6.6h-9.6c-.4 0-.6-.1-.6-.6v-4.8z"/></g><path d="M26.3 18.8c-.3.2-.7.1-1 0 .3-.2.7-.1 1 0zM111.9 29c-.2-.3 0-.6 0-.9.2.3.1.6 0 .9zm-95.7-.9v.9-.9zm86.3-9.2h-.9.9z" fill="#eb8b7f"/><path d="M101.3 26.4c2.9 2.8 3.6 6.7 1 10.2-1.2 1.6-2.8 2.8-4.8 3.2-2.5.6-4.7-.1-6.6-1.7-1.4-1.2-2.4-2.7-2.8-4.5-.5-2.3.1-4.3 1.5-6.2.3-.4.6-.8 1-1 .2.2.2.5.2.7v2.6c.3 2.5 1.7 4.1 4.1 4.8h.8.5.7c2.4-.7 3.9-2.3 4.2-4.8v-2.6c0-.3 0-.5.2-.7zm-63.8 0c2.9 2.8 3.6 6.7 1 10.3-1.2 1.7-2.8 2.8-4.9 3.2-2.5.5-4.7-.2-6.6-1.8-1.6-1.4-2.6-3.1-2.8-5.2-.3-2 .4-3.8 1.6-5.5.3-.4.6-.8 1-1 .2.2.2.5.2.7v2.6c.3 2.5 1.7 4.1 4.1 4.8h.8.5.7c2.4-.7 3.9-2.3 4.2-4.8v-2.6c0-.3 0-.5.2-.7z" fill="#c03b2b"/><path d="M96.2 34.7h-.5c-.3-.1-.6 0-.9-.1-1.1-.2-2-.8-2.8-1.6s-1.1-1.9-1.4-2.9v-.3c-.1-1.2 0-2.5 0-3.7v-1.9-.1h10.5v.1 1.9 3.1.6c0 1.9-1.5 3.9-3.4 4.5-.3 0-.6.2-.9.2-.2.1-.5 0-.8.1zM31 34.6c-1.9-.5-3.2-1.6-3.9-3.4-.1-.4-.4-.8-.3-1.3-.1-1.2 0-2.5 0-3.7v-1.9-.1h10.5v.1 1.9 3.7c0 1.9-1.5 3.9-3.4 4.5-.3 0-.6.2-.9.2-.2.1-.5 0-.8.1h-.5c-.3-.1-.6 0-.9-.1z" fill="#95a5a6"/><path d="M26.7 18.9c.2.3 0 .6 0 .9v3.5.6-5zm74.6 5c-.2-.3 0-.6 0-.9v-3.5-.6 5zm-10.7-5c.2.3 0 .6 0 .9v3.5.6-5zm-53.2 5c-.2-.3 0-.6 0-.9v-3.5-.6 5z" fill="#b9afae"/><path d="M37.3 29.9v-3.7.3 2.8c0 .2 0 .5-.1.7zm-10.5-3.8c.2.9 0 1.8 0 2.7v1c-.3-.6 0-1.2-.1-1.8v-1.7-.3zm63.8 0c.2.9 0 1.8 0 2.7v1c-.2-.3-.1-.7-.1-1.1v-2.4-.3zm10.6 3.8v-3.7.3 2.8c0 .2 0 .5-.1.7zm.1-5.6v-.1.2zm-63.9 0v-.1.2zm-10.6-.2v.1-.2zm63.9 0v.1-.2zm4.1 10.5c.3 0 .6 0 .9.1-.3 0-.6 0-.9-.1zm1.4.1c.2-.2.5-.1.8-.1-.2.2-.5.1-.8.1zM31 34.6c.3 0 .6 0 .9.1-.3 0-.6 0-.9-.1zm1.3.1c.2-.2.5-.1.8-.1-.2.2-.5.1-.8.1z" fill="#a9817c"/><path d="M53.8 62.2h.8c.7 0 1 .5.7 1.1-.2.5-.6.9-.9 1.3l-6 7.6-5.7 6.8c-.9 1.1-2.1 1.9-3.5 2.2-1.7.4-3.2-.1-4.6-1.1-.8-.6-1.4-1.4-1.9-2.3l-5.3-8.3c-.8-1.2-1.5-2.5-2.2-3.7 0 0 0-.1-.1-.2-.5-1-.2-1.5.9-1.5l11.2-.8 9.9-.7 7-.4zm-3.9 40.9l-2.2-.3-4.9-.9-5.9-1.2-6.9-1.4a1.93 1.93 0 0 1-1-.3c-.8-.3-1.1-1-.8-1.8l1.4-3.2 2.5-5.3c.6-1.2 1.2-2.3 2-3.4 1.4-2 4-2.2 5.8-.4.6.6 1.2 1.4 1.7 2.1l3.4 5.3 5.5 8.6c.2.3.3.5.4.8.4.8 0 1.4-1 1.4z" fill="#bdc2c6"/></svg>