<?xml version="1.0" encoding="UTF-8"?><svg id="a" xmlns="http://www.w3.org/2000/svg" xmlns:xlink="http://www.w3.org/1999/xlink" viewBox="0 0 128 128"><defs><style>.cw{fill:#d9dadb;}.cx{fill:#f4f4f5;}.cy{fill:#aaacae;}.cz{fill:#a7a9ac;}.da{fill:#939598;}.db{fill:#b5b7b9;}.dc{fill:#c8c9cb;}.dd{fill:#c2c4c6;}.de{fill:#ebecec;}.df{fill:#848688;}.dg{fill:#f3f4f4;}.dh{fill:#363436;}.di{fill:#797a7d;}.dj{fill:url(#cn);}.dk{fill:#888a8c;}.dl{fill:#6d6e71;}.dm{fill:#8f9194;}.dn{fill:#4c4c4e;}.do{fill:#b4b6b9;}.dp{fill:#f1f2f2;}.dq{fill:#b3b5b8;}.dr{fill:#a0a2a5;}.ds{fill:#8d8f91;}.dt{fill:#808285;}.du{fill:#434345;}.dv{fill:#f7f7f7;}.dw{fill:#454547;}.dx{fill:#d1d3d4;}.dy{fill:#e6e7e8;}.dz{fill:#bcbec0;}.ea{fill:#f8f8f8;}.eb{fill:#231f20;}.ec{fill:#626365;}.ed{fill:#58595b;}.ee{fill:#414042;}</style><linearGradient id="cn" x1="7.9" y1="12325.6" x2="122.6" y2="12325.6" gradientTransform="translate(0 12409.6) scale(1 -1)" gradientUnits="userSpaceOnUse"><stop offset="0" stop-color="#58595b"/><stop offset="1" stop-color="#797a7d"/></linearGradient></defs><g id="b"><path class="ee" d="m98.6,65.6l-26.7-15.5,24-13.8,26.7,15.5-24,13.8Zm-51.5,33.4l-26.7-15.5,47.7-27.6,26.7,15.5-47.8,27.6h0Z"/><path class="dk" d="m22.3,82.7c0,0-.1,0-.2-.1,0-.1,0-.2,0-.3l45.8-26.5,3.6-5.8s0,0,0,0l8.4-4.8c.1,0,.2,0,.3,0s0,.2,0,.3l-8.4,4.8-3.6,5.8h0c0,0-45.9,26.6-45.9,26.6,0,0,0,0-.1,0Z"/><path class="do" d="m67.2,56.8h-.1c0-.1,0-3.7,0-3.7h.1c0,.1,0,3.7,0,3.7Zm-4.2,2.4h-.1v-3.7h.1v3.7Zm-4.2,2.4h-.1v-3.7h.1v3.7Z"/><path class="do" d="m54.5,64.1h-.1c0,0,0-3.7,0-3.7h.1c0,0,0,3.7,0,3.7Z"/><path class="do" d="m50.3,66.5h-.1v-3.7h.1v3.7Zm-4.2,2.4h-.1v-3.7h.1v3.7Z"/><path class="do" d="m41.8,71.4h-.1c0,0,0-3.7,0-3.7h.2v3.7Z"/><path class="do" d="m37.6,73.9h-.1v-3.7h.1v3.7Zm-4.2,2.4h-.1v-3.7h.1v3.7Zm-4.2,2.4h-.1c0,0,0-3.7,0-3.7h.1c0,0,0,3.7,0,3.7Zm-4.2,2.4h-.1v-3.7h.1v3.7Z"/><path class="da" d="m19.3,80.6h-.1c0,0,52.7-30.5,52.7-30.5h.1c0,0-52.7,30.5-52.7,30.5Z"/><path class="do" d="m19.3,80.8h-.1v-.3h.1v.3Z"/><path class="dd" d="m72,50.2h0s-.1.2-.1.2l-4.6,2.6v3.6s-.1.1-.1.1v-3.6s-4.1,2.3-4.1,2.3v3.6h-.1c0,.1,0-3.5,0-3.5l-4.1,2.3v3.6h-.1c0,.1,0-3.5,0-3.5l-4.1,2.3v3.6h-.1c0,0,0-3.6,0-3.6l-4.1,2.4v3.6h-.1c0,0,0-3.6,0-3.6l-4.1,2.4v3.6h-.1c0,0,0-3.6,0-3.6l-4.1,2.4v3.6h-.1c0,0,0-3.6,0-3.6l-4.1,2.4v3.6h-.1c0,0,0-3.6,0-3.6l-4.1,2.4v3.6s-.1,0-.1,0v-3.6l-4.1,2.4v3.6h-.1c0,0,0-3.6,0-3.6l-4.1,2.4v3.6h-.1c0,0,0-3.6,0-3.6l-5.6,3.2v-.2l52.7-30.4h0Z"/><path class="du" d="m94.8,71.5l-26.7-15.5,3.7-5.9,26.7,15.5-3.7,5.9Z"/><path class="de" d="m81,57.7l-12.4-7.2-5.3,3.1,12.4,7.2,5.3-3.1Z"/><path class="dy" d="m74,57.8l1.8,1,1.8-1-1.8-1.1-1.8,1.1Zm-5.4-3.1l1.8,1.1,1.8-1.1-1.8-1-1.8,1Z"/><path class="ec" d="m75.8,60.8l-12.4-7.2-5.3,3,12.4,7.2,5.3-3.1Z"/><path class="ee" d="m68.7,60.8l1.8,1.1,1.8-1.1-1.8-1-1.8,1Zm-5.4-3.1l1.8,1,1.8-1-1.8-1-1.8,1Z"/><path class="dk" d="m70.4,63.8l-12.4-7.2-5.3,3.1,12.4,7.2,5.3-3.1Z"/><path class="dl" d="m63.4,63.9l1.8,1,1.8-1-1.8-1-1.8,1Zm-5.4-3.1l1.8,1,1.8-1-1.8-1.1-1.8,1.1Z"/><path class="de" d="m65.1,66.9l-12.4-7.2-5.3,3.1,12.4,7.2,5.3-3.1h0Z"/><path class="dy" d="m58.1,66.9l1.8,1,1.8-1-1.8-1-1.8,1Zm-5.4-3.1l1.8,1,1.8-1-1.8-1.1-1.8,1.1Z"/><path class="dm" d="m59.8,69.9l-12.4-7.2-5.3,3.1,12.4,7.2,5.3-3.1Z"/><path class="di" d="m52.8,70l1.8,1,1.8-1-1.8-1-1.8,1Zm-5.4-3.1l1.8,1,1.8-1-1.8-1.1-1.8,1.1Z"/><path class="cw" d="m54.5,73l-12.4-7.2-5.3,3.1,12.4,7.2,5.3-3.1Z"/><path class="dc" d="m47.5,73.1l1.8,1,1.8-1-1.8-1-1.8,1Zm-5.4-3.1l1.8,1.1,1.8-1-1.8-1.1-1.8,1Z"/><path class="ec" d="m49.2,76.1l-12.4-7.2-5.3,3.1,12.4,7.2,5.3-3.1Z"/><path class="ee" d="m42.2,76.1l1.8,1,1.8-1-1.8-1-1.8,1Zm-5.4-3.1l1.8,1.1,1.8-1.1-1.8-1-1.8,1Z"/><path class="dl" d="m26.2,81.8l12.4,7.2v-6.8l-12.4-7.2v6.8Z"/><path class="cz" d="m26.2,75.3l12.4,7.2v-.3l-12.4-7.2v.3Z"/><path class="dk" d="m38.6,88.2l-12.4-7.2v.8l12.4,7.2v-.8Z"/><path class="cz" d="m34.5,86.1l1.6.9v.5l-1.6-.9v-.5h0Zm-5.7-3.3l1.6.9v.5l-1.6-.9v-.5h0Zm9.2,5h.1c0,0,0-5.6,0-5.6h-.2c0,0,0,5.6,0,5.6Z"/><path class="dk" d="m38.2,87.9h0s0-5.6,0-5.6h0c0,0,0,5.6,0,5.6h0Z"/><path class="cz" d="m37.4,87.5h.1c0,0,0-5.6,0-5.6h-.1c0-.1,0,5.6,0,5.6Z"/><path class="dk" d="m37.6,87.5h0c0,0,0-5.6,0-5.6h0s0,5.6,0,5.6h0Z"/><path class="cz" d="m36.8,87.1h.1c0,.1,0-5.6,0-5.6h-.2c0,0,0,5.6,0,5.6Z"/><path class="dk" d="m37,87.2h0s0-5.6,0-5.6h0c0,0,0,5.6,0,5.6h0Z"/><path class="cz" d="m36.3,86.8h.1c0,0,0-5.6,0-5.6h-.1c0-.1,0,5.6,0,5.6Z"/><path class="dk" d="m36.4,86.9h0c0,0,0-5.6,0-5.6h0s0,5.6,0,5.6h0Z"/><path class="cz" d="m35.6,86.4h.1c0,.1,0-5.6,0-5.6h-.1c0,0,0,5.6,0,5.6Z"/><path class="dk" d="m35.8,86.5h.1s0-5.6,0-5.6h-.1s0,5.6,0,5.6Z"/><path class="cz" d="m35.1,86.1h.1c0,0,0-5.6,0-5.6h-.1c0-.1,0,5.6,0,5.6Z"/><path class="dk" d="m35.2,86.2h0c0,0,0-5.6,0-5.6h0s0,5.6,0,5.6h0Z"/><path class="cz" d="m34.5,85.7h.2c0,.1,0-5.6,0-5.6h-.2c0,0,0,5.6,0,5.6Z"/><path class="dk" d="m34.6,85.9h0s0-5.6,0-5.6h0s0,5.6,0,5.6Z"/><path class="cz" d="m33.9,85.4h.1c0,0,0-5.6,0-5.6h-.1c0-.1,0,5.6,0,5.6Z"/><path class="dk" d="m34,85.5h0s0-5.6,0-5.6h0s0,5.6,0,5.6Z"/><path class="cz" d="m33.3,85.1h.1c0,.1,0-5.6,0-5.6h-.2c0,0,0,5.6,0,5.6Z"/><path class="dk" d="m33.4,85.2h.1s0-5.6,0-5.6h0s0,5.6,0,5.6Z"/><path class="cz" d="m32.7,84.7h.1c0,0,0-5.6,0-5.6h-.1c0-.1,0,5.6,0,5.6Z"/><path class="dk" d="m32.8,84.8h0s0-5.6,0-5.6h0s0,5.6,0,5.6Z"/><path class="cz" d="m32.1,84.4h.2c0,.1,0-5.6,0-5.6h-.1c0,0,0,5.6,0,5.6Z"/><path class="dk" d="m32.3,84.5h0s0-5.6,0-5.6h0s0,5.6,0,5.6Z"/><path class="cz" d="m31.5,84.1h.1c0,0,0-5.6,0-5.6h-.1c0,0,0,5.6,0,5.6Z"/><path class="dk" d="m31.7,84.1h0s0-5.6,0-5.6h0c0,0,0,5.6,0,5.6h0Z"/><path class="cz" d="m30.9,83.7h.2c0,.1,0-5.6,0-5.6h-.2c0,0,0,5.6,0,5.6Z"/><path class="dk" d="m31.1,83.8h0s0-5.6,0-5.6h0s0,5.6,0,5.6Z"/><path class="cz" d="m30.3,83.4h.1c0,0,0-5.6,0-5.6h-.1c0,0,0,5.6,0,5.6Z"/><path class="dk" d="m30.5,83.4h0s0-5.6,0-5.6h0c0,0,0,5.6,0,5.6h0Z"/><path class="cz" d="m29.7,83h.2c0,0,0-5.6,0-5.6h-.1c0-.1,0,5.6,0,5.6Z"/><path class="dk" d="m29.9,83.1h0c0,0,0-5.6,0-5.6h0s0,5.6,0,5.6h0Z"/><path class="cz" d="m29.1,82.7h.1c0,.1,0-5.6,0-5.6h-.1c0,0,0,5.6,0,5.6Z"/><path class="dk" d="m29.3,82.8h0s0-5.6,0-5.6h0c0,0,0,5.6,0,5.6h0Z"/><path class="cz" d="m28.5,82.3h.2c0,0,0-5.6,0-5.6h-.2c0-.1,0,5.6,0,5.6Z"/><path class="dk" d="m28.7,82.4h0c0,0,0-5.6,0-5.6h0s0,5.6,0,5.6h0Z"/><path class="cz" d="m28,82h.1c0,.1,0-5.6,0-5.6h-.1c0,0,0,5.6,0,5.6Z"/><path class="dk" d="m28.1,82.1h0s0-5.6,0-5.6h0s0,5.6,0,5.6Z"/><path class="cz" d="m27.3,81.6h.2c0,0,0-5.6,0-5.6h-.1c0-.1,0,5.6,0,5.6Z"/><path class="dk" d="m27.5,81.7h0c0,0,0-5.6,0-5.6h0s0,5.6,0,5.6h0Z"/><path class="cz" d="m26.8,81.3h.1c0,.1,0-5.6,0-5.6h-.1c0,0,0,5.6,0,5.6Z"/><path class="dk" d="m26.9,81.4h0s0-5.6,0-5.6h0s0,5.6,0,5.6Zm17-2.3l-12.4-7.2-5.3,3.1,12.4,7.2,5.3-3.1Z"/><path class="dl" d="m36.9,79.2l1.8,1,1.8-1-1.8-1.1-1.8,1.1Zm-5.4-3.1l1.8,1.1,1.8-1.1-1.8-1-1.8,1Z"/><path class="ee" d="m88.2,68v6.8l5.3-3.1v-6.8l-5.3,3h0Z"/><path class="dh" d="m88.2,68.6v-.2l5.3-3h0c0,.1-5.3,3.2-5.3,3.2Zm0,5.9h0c0-.1,5.3-3.2,5.3-3.2h0c0,.1-5.3,3.2-5.3,3.2Z"/><path class="eb" d="m90.7,72.9h.1c0-.1,0-6.1,0-6.1h-.2v6.1Z"/><path class="dw" d="m88.4,69.8l2.2-1.3v-.4l-2.2,1.3v.4Z"/><path class="eb" d="m88.4,69.5l2.2-1.3h0c0-.1-2.2,1.2-2.2,1.2h0Z"/><path class="ec" d="m88.4,69.9l2.2-1.3h0c0-.1-2.2,1.2-2.2,1.2h0Z"/><path class="dw" d="m88.4,71.3l2.2-1.2v-.5l-2.2,1.3v.4Z"/><path id="c" class="eb" d="m88.4,71l2.2-1.3h0c0-.1-2.2,1.2-2.2,1.2h0Z"/><path id="d" class="ec" d="m88.4,71.4l2.2-1.3h0c0-.1-2.2,1.2-2.2,1.2h0Z"/><path id="e" class="dw" d="m88.4,72.8l2.2-1.3v-.4l-2.2,1.3v.4Z"/><path class="eb" d="m88.4,72.5l2.2-1.2h0c0-.1-2.2,1.2-2.2,1.2h0Z"/><path class="ec" d="m88.4,72.8l2.2-1.2h0c0-.1-2.2,1.1-2.2,1.1h0Z"/><path class="dw" d="m91.1,68.3l2.2-1.3v-.4l-2.2,1.3v.4Z"/><path class="eb" d="m91.1,67.9l2.2-1.3h0c0-.1-2.2,1.2-2.2,1.2h0Z"/><path class="ec" d="m91.1,68.3l2.2-1.3h0c0-.1-2.2,1.2-2.2,1.2h0Z"/><path class="dw" d="m91.1,69.7l2.2-1.2v-.4l-2.2,1.3v.4h0Z"/><path class="eb" d="m91.1,69.4l2.2-1.2h0c0-.1-2.2,1.2-2.2,1.2h0Z"/><path class="ec" d="m91.1,69.8l2.2-1.3h0c0,0-2.2,1.2-2.2,1.2h0Z"/><path class="dw" d="m91.1,71.3l2.2-1.3v-.4l-2.2,1.3v.4Z"/><path class="eb" d="m91.1,70.9l2.2-1.3h0c0-.1-2.2,1.2-2.2,1.2h0Z"/><path class="ec" d="m91.1,71.3l2.2-1.2h0c0-.1-2.2,1.2-2.2,1.2h0Z"/><path class="ea" d="m92.6,72s0,0,0,0h0v-6.4s0,0,0,0h0v6.4h0Z"/><path id="f" class="ea" d="m91.7,72.5s0,0,0,0h0v-6.4s0,0,0,0h0v6.4Z"/><path id="g" class="ea" d="m89.9,73.5s0,0,0,0h0v-6.4s0,0,0,0h0v6.4h0Z"/><path id="h" class="ea" d="m89,74.1s0,0,0,0h0v-6.4s0,0,0,0h0v6.4h0Z"/><path class="ea" d="m91.8,71.3l1-.6h0c0-.1-1,.4-1,.4h0Zm-2.7,1.6l1-.6h0c0-.1-1,.4-1,.4h0Zm.4.3l.6-.4h0c0-.1-.6.2-.6.2h0Z"/><path id="i" class="ea" d="m92.2,71.1s0,0,0,0h0s0,0,0-.1v-.3s0,0,0,0h0s0,0,0,.1v.3h0Z"/><path id="j" class="ea" d="m89.5,72.7s0,0,0,0h0s0,0,0-.1v-.3s0,0,0,0h0s0,0,0,.1v.3Z"/><path id="k" class="ea" d="m89.5,73.2s0,0,0,0h0s0,0,0-.1v-.3s0,0,0,0h0s0,0,0,.1v.3h0Z"/><path class="ea" d="m92.5,66.3h.1c0,0,0-.5,0-.5h-.2v.5h0Zm-.9.5h.2v-.5h-.2v.5h0Zm-1.8,1h.2v-.5h-.2v.5h0Zm-.9.5h.2v-.5h-.2v.5h0Zm0,5.7h.2v-.5h-.2v.5h0Zm.9-.5h.2v-.5h-.2v.5h0Zm1.8-1h.1v-.5h-.1v.5h0Zm.9-.5h.1v-.5h-.1v.5h0Z"/><path class="dh" d="m88.8,74.2l-.4.3h0c0,.1.4,0,.4,0v-.2h0Z"/><path class="dl" d="m82.9,71v6.8l5.3-3.1v-6.8s-5.3,3.1-5.3,3.1Z"/><path class="cz" d="m82.9,71.6v-.2l5.3-3.1v.2l-5.3,3.1Zm0,5.9v-.2l5.3-3.1v.2l-5.3,3.1Z"/><path class="cz" d="m85.5,76h.1v-6.1h-.1v6.1Z"/><path class="dl" d="m83.1,72.9l2.2-1.3v-.4l-2.2,1.3v.4Z"/><path class="cz" d="m83.1,72.6l2.2-1.3h0c0-.1-2.2,1.2-2.2,1.2h0Z"/><path class="dk" d="m83.1,72.9l2.2-1.2h0c0-.1-2.2,1.2-2.2,1.2h0Z"/><path class="dl" d="m83.1,74.4l2.2-1.3v-.4l-2.2,1.3v.4Z"/><path class="cz" d="m83.1,74.1l2.2-1.3h0c0-.1-2.2,1.2-2.2,1.2h0Z"/><path class="dk" d="m83.1,74.4l2.2-1.3h0c0-.1-2.2,1.2-2.2,1.2h0Z"/><path class="dl" d="m83.1,75.9l2.2-1.2v-.4l-2.2,1.2v.4Z"/><path class="cz" d="m83.1,75.5l2.2-1.3h0c0,0-2.2,1.2-2.2,1.2h0Z"/><path class="dk" d="m83.1,75.9l2.2-1.3h0c0-.1-2.2,1.2-2.2,1.2h0Z"/><path id="l" class="dl" d="m85.8,71.3l2.2-1.3v-.4l-2.2,1.3v.4Z"/><path id="m" class="cz" d="m85.8,71l2.2-1.3h0c0-.1-2.2,1.2-2.2,1.2h0Z"/><path id="n" class="dk" d="m85.8,71.4l2.2-1.3h0c0-.1-2.2,1.2-2.2,1.2h0Z"/><path id="o" class="dl" d="m85.8,72.8l2.2-1.3v-.4l-2.2,1.3v.4Z"/><path id="p" class="cz" d="m85.8,72.5l2.2-1.3h0c0-.1-2.2,1.2-2.2,1.2h0Z"/><path id="q" class="dk" d="m85.8,72.8l2.2-1.3h0c0-.1-2.2,1.2-2.2,1.2h0Z"/><path class="dl" d="m85.8,74.3l2.2-1.2v-.4l-2.2,1.2v.4Z"/><path class="cz" d="m85.8,73.9l2.2-1.2h0c0-.1-2.2,1.1-2.2,1.1h0Z"/><path class="dk" d="m85.8,74.3l2.2-1.3h0c0,0-2.2,1.2-2.2,1.2h0Z"/><path id="r" class="ea" d="m87.3,75s0,0,0,0h0v-6.4s0,0,0,0h0v6.4h0Z"/><path id="s" class="ea" d="m86.4,75.5s0,0,0,0h0v-6.4s0,0,0,0h0v6.4h0Z"/><path id="t" class="ea" d="m84.6,76.6s0,0,0,0h0v-6.4s0,0,0,0h0v6.4h0Z"/><path id="u" class="ea" d="m83.7,77.1s0,0,0,0h0v-6.4s0,0,0,0h0v6.4h0Z"/><path class="ea" d="m86.4,74.3l1-.6h0c0-.1-1,.5-1,.5h0Zm-2.7,1.6l1-.6h0c0-.1-1,.5-1,.5h0Zm.4.3l.6-.3h0c0-.1-.6.2-.6.2h0Z"/><path id="v" class="ea" d="m86.9,74.2s0,0,0,0h0s0,0,0-.1v-.3s0,0,0,0h0s0,0,0,.1v.3h0Z"/><path id="w" class="ea" d="m84.1,75.7s0,0,0,0h0s0,0,0-.1v-.3s0,0,0,0h0s0,0,0,.1v.3Z"/><path id="x" class="ea" d="m84.1,76.3s0,0,0,0h0s0,0,0-.1v-.3s0,0,0,0h0s0,0,0,.1v.3h0Z"/><path class="ea" d="m87.2,69.4h.2v-.5h-.2v.5Zm-.9.5h.2v-.5h-.2v.5Zm-1.8,1h.1v-.5h-.1v.5Zm-.9.5h.1v-.5h-.1v.5Zm0,5.7h.1v-.5h-.1v.5h0Zm.9-.5h.1v-.5h-.1v.5h0Zm1.8-1h.2v-.5h-.2v.5Zm.9-.5h.2v-.5h-.2v.5Z"/><path class="dt" d="m83.5,77.3l-.4.2h0c0,.1.4,0,.4,0h0Z"/><path class="dk" d="m72.3,77.2l-12.4-7.2-5.3,3.1,12.4,7.2,5.3-3.1h0Z"/><path class="dl" d="m65.3,77.2l1.8,1.1,1.8-1.1-1.8-1-1.8,1Zm-5.4-3.1l1.8,1,1.8-1-1.8-1-1.8,1Z"/><path class="dy" d="m77.6,74.1v6.8l5.3-3.1v-6.8l-5.3,3.1Z"/><path class="de" d="m77.6,74.7v-.2l5.3-3.1v.2l-5.3,3.1Zm0,5.9v-.2l5.3-3.1v.2l-5.3,3.1Z"/><path class="de" d="m80.1,79h.1c0,0,0-6.1,0-6.1h-.1c0,.1,0,6.1,0,6.1Z"/><path id="y" class="dy" d="m77.8,76l2.2-1.3v-.4l-2.2,1.3v.4Z"/><path class="de" d="m77.8,75.6l2.2-1.2h0c0-.1-2.2,1.2-2.2,1.2h0Zm0,.4l2.2-1.2h0c0-.1-2.2,1.1-2.2,1.1h0Z"/><path id="z" class="dy" d="m77.8,77.4l2.2-1.3v-.4l-2.2,1.3v.4Z"/><path id="aa" class="de" d="m77.8,77.1l2.2-1.3h0c0-.1-2.2,1.2-2.2,1.2h0Z"/><path id="ab" class="de" d="m77.8,77.5l2.2-1.3h0c0-.1-2.2,1.2-2.2,1.2h0Z"/><path id="ac" class="dy" d="m77.8,78.9l2.2-1.3v-.4l-2.2,1.3v.4Z"/><path id="ad" class="de" d="m77.8,78.6l2.2-1.3h0c0-.1-2.2,1.2-2.2,1.2h0Z"/><path id="ae" class="de" d="m77.8,78.9l2.2-1.3h0c0-.1-2.2,1.2-2.2,1.2h0Z"/><path class="dy" d="m80.5,74.4l2.2-1.3v-.4l-2.2,1.3v.4Z"/><path class="de" d="m80.5,74.1l2.2-1.3h0c0-.1-2.2,1.2-2.2,1.2h0Zm0,.3l2.2-1.2h0c0-.1-2.2,1.2-2.2,1.2h0Z"/><path class="dy" d="m80.5,75.9l2.2-1.3v-.4l-2.2,1.3v.4Z"/><path class="de" d="m80.5,75.5l2.2-1.3h0c0-.1-2.2,1.2-2.2,1.2h0Zm0,.4l2.2-1.3h0c0-.1-2.2,1.2-2.2,1.2h0Z"/><path class="dy" d="m80.5,77.3l2.2-1.2v-.4l-2.2,1.2v.4Z"/><path class="de" d="m80.5,77l2.2-1.3h0c0,0-2.2,1.2-2.2,1.2h0Zm0,.4l2.2-1.3h0c0,0-2.2,1.2-2.2,1.2h0Z"/><path id="af" class="ea" d="m82,78s0,0,0,0h0v-6.4s0,0,0,0h0v6.4h0Z"/><path id="ag" class="ea" d="m81.1,78.6s0,0,0,0h0v-6.4s0,0,0,0h0v6.4h0Z"/><path id="ah" class="ea" d="m79.3,79.6s0,0,0,0h0v-6.4s0,0,0,0h0v6.4h0Z"/><path id="ai" class="ea" d="m78.4,80.2s0,0,0,0h0v-6.4s0,0,0,0h0v6.4h0Z"/><path class="ea" d="m81.1,77.4l1-.6h0c0-.1-1,.5-1,.5h0Zm-2.7,1.6l1-.6h0c0-.1-1,.5-1,.5h0Zm.4.3l.6-.4h0c0-.1-.6.3-.6.3h0Z"/><path id="aj" class="ea" d="m81.6,77.3s0,0,0,0h0s0,0,0-.1v-.3s0,0,0,0h0s0,0,0,.1v.3h0Z"/><path id="ak" class="ea" d="m78.8,78.8s0,0,0,0h0s0,0,0-.1v-.3s0,0,0,0h0s0,0,0,.1v.3Z"/><path id="al" class="ea" d="m78.8,79.3s0,0,0,0h0s0,0,0-.1v-.3s0,0,0,0h0s0,0,0,.1v.3Z"/><path class="ea" d="m81.9,72.4h.1v-.5h-.1v.5h0Zm-.9.5h.2v-.5h-.2v.5h0Zm-1.8,1h.2v-.5h-.2v.5h0Zm-.9.5h.2v-.5h-.2v.5h0Zm0,5.7h.2v-.5h-.2v.5Zm.9-.5h.2v-.5h-.2v.5Zm1.8-1h.1v-.5h-.1v.5Zm.9-.5h.1v-.5h-.1v.5Z"/><path class="de" d="m78.2,80.4l-.4.2h0c0,.1.4,0,.4,0h0Z"/><path class="ee" d="m72.3,77.2v6.8l5.3-3.1v-6.8l-5.3,3.1Z"/><path class="dh" d="m72.3,77.7h0c0-.1,5.3-3.2,5.3-3.2h0c0,.1-5.3,3.2-5.3,3.2Zm0,5.9h0c0-.1,5.3-3.2,5.3-3.2h0c0,.1-5.3,3.2-5.3,3.2Z"/><path class="eb" d="m74.9,82.1h.1v-6.1h-.1v6.1Z"/><path class="dw" d="m72.5,79l2.2-1.2v-.5l-2.2,1.3v.4Z"/><path id="am" class="eb" d="m72.5,78.7l2.2-1.3h0c0-.1-2.2,1.2-2.2,1.2h0Z"/><path id="an" class="ec" d="m72.5,79l2.2-1.3h0c0-.1-2.2,1.2-2.2,1.2h0Z"/><path class="dw" d="m72.5,80.5l2.2-1.3v-.4l-2.2,1.3v.4Z"/><path class="eb" d="m72.5,80.1l2.2-1.2h0c0-.1-2.2,1.2-2.2,1.2h0Z"/><path class="ec" d="m72.5,80.5l2.2-1.2h0c0-.1-2.2,1.1-2.2,1.1h0Z"/><path class="dw" d="m72.5,82l2.2-1.3v-.4l-2.2,1.3v.4Z"/><path class="eb" d="m72.5,81.6l2.2-1.3h0c0-.1-2.2,1.2-2.2,1.2h0Z"/><path class="ec" d="m72.5,82l2.2-1.3h0c0-.1-2.2,1.2-2.2,1.2h0Z"/><path class="dw" d="m75.2,77.4l2.2-1.2v-.4l-2.2,1.2v.4Z"/><path class="eb" d="m75.2,77.1l2.2-1.2h0c0-.1-2.2,1.1-2.2,1.1h0Z"/><path class="ec" d="m75.2,77.4l2.2-1.3h0c0,0-2.2,1.2-2.2,1.2h0Z"/><path class="dw" d="m75.2,78.9l2.2-1.3v-.4l-2.2,1.3v.4Z"/><path class="eb" d="m75.2,78.6l2.2-1.3h0c0-.1-2.2,1.2-2.2,1.2h0Z"/><path class="ec" d="m75.2,78.9l2.2-1.2h0c0-.1-2.2,1.2-2.2,1.2h0Z"/><path class="dw" d="m75.2,80.4l2.2-1.3v-.4l-2.2,1.3v.4Z"/><path class="eb" d="m75.2,80.1l2.2-1.3h0c0-.1-2.2,1.2-2.2,1.2h0Z"/><path id="ao" class="ec" d="m75.2,80.4l2.2-1.3h0c0-.1-2.2,1.2-2.2,1.2h0Z"/><path id="ap" class="ea" d="m76.7,81.1s0,0,0,0h0v-6.4s0,0,0,0h0v6.4h0Z"/><path id="aq" class="ea" d="m75.8,81.6s0,0,0,0h0v-6.4s0,0,0,0h0v6.4Z"/><path id="ar" class="ea" d="m74,82.7s0,0,0,0h0v-6.4s0,0,0,0h0v6.4h0Z"/><path id="as" class="ea" d="m73.1,83.2s0,0,0,0h0v-6.4s0,0,0,0h0v6.4h0Z"/><path class="ea" d="m75.9,80.5l1-.6h0c0-.1-1,.4-1,.4h0Zm-2.8,1.6l1-.6h0c0-.1-1,.4-1,.4h0Zm.4.3l.6-.4h0c0-.1-.6.2-.6.2h0Z"/><path id="at" class="ea" d="m76.3,80.3s0,0,0,0h0s0,0,0-.1v-.3s0,0,0,0h0s0,0,0,.1v.3Z"/><path id="au" class="ea" d="m73.5,81.9s0,0,0,0h0s0,0,0-.1v-.3s0,0,0,0h0s0,0,0,.1v.3h0Z"/><path id="av" class="ea" d="m73.5,82.4s0,0,0,0h0s0,0,0-.1v-.3s0,0,0,0h0s0,0,0,.1v.3h0Z"/><path class="ea" d="m76.6,75.5h.1v-.5h-.1v.5Zm-1,.5h.2v-.5h-.2v.5Zm-1.8,1h.1c0-.1,0-.5,0-.5h-.2v.5Zm-.9.5h.2v-.5h-.2v.5Zm0,5.7h.1v-.5h-.1v.5h0Zm.9-.5h.1v-.5h-.1v.5h0Zm1.8-1h.2v-.5h-.2v.5h0Zm.9-.5h.2v-.5h-.2v.5h0Z"/><path class="dh" d="m72.9,83.4l-.4.2h0c0,.1.4,0,.4,0h0Z"/><path class="dl" d="m67,80.2v6.8l5.3-3.1v-6.8l-5.3,3h0Z"/><path class="cz" d="m67,80.7v-.2l5.3-3h0c0,.1-5.3,3.2-5.3,3.2Zm0,5.9h0c0-.1,5.3-3.2,5.3-3.2h0c0,.1-5.3,3.2-5.3,3.2Z"/><path class="cz" d="m69.5,85.1h.1c0-.1,0-6.1,0-6.1h-.2v6.1Z"/><path class="dl" d="m67.2,82l2.2-1.3v-.4l-2.2,1.3v.4Z"/><path class="cz" d="m67.2,81.7l2.2-1.3h0c0-.1-2.2,1.2-2.2,1.2h0Z"/><path class="dk" d="m67.2,82.1l2.2-1.3h0c0-.1-2.2,1.2-2.2,1.2h0Z"/><path class="dl" d="m67.2,83.5l2.2-1.2v-.4l-2.2,1.2v.4Z"/><path class="cz" d="m67.2,83.2l2.2-1.3h0c0,0-2.2,1.2-2.2,1.2h0Z"/><path id="aw" class="dk" d="m67.2,83.6l2.2-1.3h0c0-.1-2.2,1.2-2.2,1.2h0Z"/><path id="ax" class="dl" d="m67.2,85l2.2-1.3v-.4l-2.2,1.3v.4Z"/><path class="cz" d="m67.2,84.7l2.2-1.2h0c0-.1-2.2,1.2-2.2,1.2h0Z"/><path class="dk" d="m67.2,85l2.2-1.2h0c0-.1-2.2,1.1-2.2,1.1h0Z"/><path class="dl" d="m69.9,80.5l2.2-1.3v-.4l-2.2,1.3v.4Z"/><path class="cz" d="m69.9,80.1l2.2-1.3h0c0-.1-2.2,1.2-2.2,1.2h0Z"/><path class="dk" d="m69.9,80.5l2.2-1.3h0c0-.1-2.2,1.2-2.2,1.2h0Z"/><path class="dl" d="m69.9,81.9l2.2-1.2v-.4l-2.2,1.2v.4Z"/><path class="cz" d="m69.9,81.6l2.2-1.2h0c0-.1-2.2,1.1-2.2,1.1h0Z"/><path class="dk" d="m69.9,82l2.2-1.3h0c0,0-2.2,1.2-2.2,1.2h0Z"/><path class="dl" d="m69.9,83.4l2.2-1.3v-.4l-2.2,1.3v.4Z"/><path class="cz" d="m69.9,83.1l2.2-1.3h0c0-.1-2.2,1.2-2.2,1.2h0Z"/><path class="dk" d="m69.9,83.4l2.2-1.2h0c0-.1-2.2,1.2-2.2,1.2h0Z"/><path id="ay" class="ea" d="m71.4,84.2s0,0,0,0h0v-6.4s0,0,0,0h0v6.4h0Z"/><path id="az" class="ea" d="m70.5,84.7s0,0,0,0h0v-6.4s0,0,0,0h0v6.4Z"/><path id="ba" class="ea" d="m68.7,85.7s0,0,0,0h0v-6.4s0,0,0,0h0v6.4h0Z"/><path id="bb" class="ea" d="m67.8,86.2s0,0,0,0h0v-6.4s0,0,0,0h0v6.4h0Z"/><path class="ea" d="m70.5,83.5l1-.6h0c0-.1-1,.4-1,.4h0Zm-2.7,1.6l1-.6h0c0-.1-1,.4-1,.4h0Zm.4.3l.6-.4h0c0-.1-.6.2-.6.2h0Z"/><path id="bc" class="ea" d="m71,83.3s0,0,0,0h0s0,0,0-.1v-.3s0,0,0,0h0s0,0,0,.1v.3h0Z"/><path class="ea" d="m68.2,84.9s0,0,0,0h0s0,0,0-.1v-.2s0,0,0,0h0s0,0,0,.1v.2Z"/><path id="bd" class="ea" d="m68.2,85.4s0,0,0,0h0s0,0,0-.1v-.3s0,0,0,0h0s0,0,0,.1v.3h0Z"/><path class="ea" d="m71.3,78.5h.1v-.5h-.1v.5h0Zm-.9.5h.1c0,0,0-.5,0-.5h-.2v.5h0Zm-1.8,1h.2v-.5h-.2v.5h0Zm-.9.5h.2v-.5h-.2v.5h0Zm0,5.7h.2v-.5h-.2v.5h0Zm.9-.5h.2v-.5h-.2v.5h0Zm1.8-1h.1v-.5h-.1v.5h0Zm.9-.5h.1v-.5h-.1v.5h0Z"/><path class="dt" d="m67.6,86.4l-.4.3h0c0,.1.4,0,.4,0v-.2h0Z"/><path class="di" d="m43.9,85.9l12.4,7.2v-6.8l-12.4-7.2s0,6.8,0,6.8Z"/><path class="ed" d="m43.9,79.4l12.4,7.2v-.3l-12.4-7.2s0,.3,0,.3Z"/><path class="dm" d="m56.4,92.3l-12.4-7.2v.8l12.4,7.2v-.8Z"/><path class="ed" d="m52.2,90.2l1.6.9v.5l-1.6-.9v-.5h0Zm-5.7-3.3l1.6.9v.5l-1.6-.9v-.5h0Zm9.2,5h.1c0,.1,0-5.6,0-5.6h-.1c0,0,0,5.6,0,5.6Z"/><path class="dm" d="m55.9,92h0s0-5.6,0-5.6h0s0,5.6,0,5.6Z"/><path class="ed" d="m55.2,91.6h.1c0,0,0-5.6,0-5.6h-.2c0-.1,0,5.6,0,5.6Z"/><path class="dm" d="m55.3,91.7h0s0-5.6,0-5.6h0s0,5.6,0,5.6Z"/><path class="ed" d="m54.6,91.2h.1c0,.1,0-5.6,0-5.6h-.1c0,0,0,5.6,0,5.6Z"/><path class="dm" d="m54.7,91.4h0s0-5.6,0-5.6h0s0,5.6,0,5.6Z"/><path class="ed" d="m54,90.9h.1c0,0,0-5.6,0-5.6h-.2c0,0,0,5.6,0,5.6Z"/><path class="dm" d="m54.1,91h.1s0-5.6,0-5.6h0c0,0,0,5.6,0,5.6h0Z"/><path class="ed" d="m53.4,90.6h.1c0,.1,0-5.6,0-5.6h-.1c0-.1,0,5.6,0,5.6Z"/><path class="dm" d="m53.6,90.7h0s0-5.6,0-5.6h0s0,5.6,0,5.6Z"/><path class="ed" d="m52.8,90.2h.1c0,0,0-5.6,0-5.6h-.2c0,0,0,5.6,0,5.6Z"/><path class="dm" d="m52.9,90.3h.1s0-5.6,0-5.6h0c0,0,0,5.6,0,5.6h0Z"/><path class="ed" d="m52.2,89.9h.1c0,0,0-5.6,0-5.6h-.1c0-.1,0,5.6,0,5.6Z"/><path class="dm" d="m52.4,90h0c0,0,0-5.6,0-5.6h0s0,5.6,0,5.6h0Z"/><path class="ed" d="m51.6,89.5h.2c0,.1,0-5.6,0-5.6h-.2c0,0,0,5.6,0,5.6Z"/><path class="dm" d="m51.8,89.6h0s0-5.6,0-5.6h0c0,0,0,5.6,0,5.6h0Z"/><path class="ed" d="m51,89.2h.1c0,0,0-5.6,0-5.6h-.1c0-.1,0,5.6,0,5.6Z"/><path class="dm" d="m51.2,89.3h0c0,0,0-5.6,0-5.6h0s0,5.6,0,5.6h0Z"/><path class="ed" d="m50.4,88.8h.2c0,.1,0-5.6,0-5.6h-.1c0,0,0,5.6,0,5.6Z"/><path class="dm" d="m50.6,88.9h0s0-5.6,0-5.6h0s0,5.6,0,5.6Z"/><path class="ed" d="m49.9,88.5h.1c0,0,0-5.6,0-5.6h-.1c0-.1,0,5.6,0,5.6Z"/><path class="dm" d="m50,88.6h0c0,0,0-5.6,0-5.6h0s0,5.6,0,5.6h0Z"/><path class="ed" d="m49.2,88.2h.2c0,.1,0-5.6,0-5.6h-.2c0,0,0,5.6,0,5.6Z"/><path class="dm" d="m49.4,88.3h0s0-5.6,0-5.6h0s0,5.6,0,5.6Z"/><path class="ed" d="m48.7,87.8h.1c0,0,0-5.6,0-5.6h-.1c0-.1,0,5.6,0,5.6Z"/><path class="dm" d="m48.8,87.9h0s0-5.6,0-5.6h0s0,5.6,0,5.6Z"/><path class="ed" d="m48.1,87.5h.2c0,.1,0-5.6,0-5.6h-.1c0,0,0,5.6,0,5.6Z"/><path class="dm" d="m48.2,87.6h0s0-5.6,0-5.6h0s0,5.6,0,5.6Z"/><path class="ed" d="m47.5,87.1h.1c0,0,0-5.6,0-5.6h-.1c0-.1,0,5.6,0,5.6Z"/><path class="dm" d="m47.6,87.2h0s0-5.6,0-5.6h0s0,5.6,0,5.6Z"/><path class="ed" d="m46.9,86.8h.2c0,.1,0-5.6,0-5.6h-.1c0,0,0,5.6,0,5.6Z"/><path class="dm" d="m47.1,86.9h0s0-5.6,0-5.6h0s0,5.6,0,5.6Z"/><path class="ed" d="m46.3,86.5h.1c0,0,0-5.6,0-5.6h-.1c0,0,0,5.6,0,5.6Z"/><path class="dm" d="m46.4,86.5h0s0-5.6,0-5.6h0c0,0,0,5.6,0,5.6h0Z"/><path class="ed" d="m45.7,86.1h.2c0,.1,0-5.6,0-5.6h-.1c0-.1,0,5.6,0,5.6Z"/><path class="dm" d="m45.9,86.2h0s0-5.6,0-5.6h0s0,5.6,0,5.6Z"/><path class="ed" d="m45.1,85.8h.1c0,0,0-5.6,0-5.6h-.1c0,0,0,5.6,0,5.6Z"/><path class="dm" d="m45.3,85.9h0s0-5.6,0-5.6h0c0,0,0,5.6,0,5.6h0Z"/><path class="ed" d="m44.5,85.4h.1c0,0,0-5.6,0-5.6h-.1c0-.1,0,5.6,0,5.6Z"/><path class="dm" d="m44.7,85.5h0c0,0,0-5.6,0-5.6h0s0,5.6,0,5.6h0Z"/><path class="di" d="m56.4,86.3v6.8l5.3-3.1v-6.8l-5.3,3h0Z"/><path class="ed" d="m56.4,86.9v-.2l5.3-3h0c0,.1-5.3,3.2-5.3,3.2Zm0,5.9h0c0-.1,5.3-3.2,5.3-3.2h0c0,.1-5.3,3.2-5.3,3.2Z"/><path class="ed" d="m58.9,91.2h.1c0-.1,0-6.1,0-6.1h-.1c0,0,0,6.1,0,6.1Z"/><path class="di" d="m56.6,88.2l2.2-1.3v-.4l-2.2,1.3v.4Z"/><path class="ed" d="m56.6,87.8l2.2-1.3h0c0-.1-2.2,1.2-2.2,1.2h0Z"/><path class="dm" d="m56.6,88.2l2.2-1.3h0c0-.1-2.2,1.2-2.2,1.2h0Z"/><path class="di" d="m56.6,89.6l2.2-1.2v-.4l-2.2,1.2v.4Z"/><path class="ed" d="m56.6,89.3l2.2-1.3h0c0,0-2.2,1.2-2.2,1.2h0Z"/><path id="be" class="dm" d="m56.6,89.7l2.2-1.3h0c0-.1-2.2,1.2-2.2,1.2h0Z"/><path id="bf" class="di" d="m56.6,91.1l2.2-1.3v-.4l-2.2,1.3v.4Z"/><path class="ed" d="m56.6,90.8l2.2-1.2h0c0-.1-2.2,1.2-2.2,1.2h0Z"/><path class="dm" d="m56.6,91.1l2.2-1.2h0c0-.1-2.2,1.2-2.2,1.2h0Z"/><path class="di" d="m59.3,86.6l2.2-1.3v-.4l-2.2,1.3v.4Z"/><path class="ed" d="m59.3,86.2l2.2-1.3h0c0-.1-2.2,1.2-2.2,1.2h0Z"/><path class="dm" d="m59.3,86.6l2.2-1.3h0c0-.1-2.2,1.2-2.2,1.2h0Z"/><path class="di" d="m59.3,88l2.2-1.2v-.4l-2.2,1.2v.4Z"/><path class="ed" d="m59.3,87.7l2.2-1.2h0c0-.1-2.2,1.1-2.2,1.1h0Z"/><path class="dm" d="m59.3,88.1l2.2-1.3h0c0,0-2.2,1.2-2.2,1.2h0Z"/><path class="di" d="m59.3,89.6l2.2-1.3v-.4l-2.2,1.3v.4Z"/><path class="ed" d="m59.3,89.2l2.2-1.3h0c0-.1-2.2,1.2-2.2,1.2h0Z"/><path class="dm" d="m59.3,89.6l2.2-1.3h0c0-.1-2.2,1.2-2.2,1.2h0Z"/><path id="bg" class="ea" d="m60.8,90.3s0,0,0,0h0v-6.4s0,0,0,0h0v6.4h0Z"/><path id="bh" class="ea" d="m59.9,90.8s0,0,0,0h0v-6.4s0,0,0,0h0v6.4h0Z"/><path id="bi" class="ea" d="m58.1,91.8s0,0,0,0h0v-6.4s0,0,0,0h0v6.4h0Z"/><path id="bj" class="ea" d="m57.2,92.4s0,0,0,0h0v-6.4s0,0,0,0h0v6.4h0Z"/><path class="ea" d="m59.9,89.6l1-.6h0c0-.1-1,.4-1,.4h0Zm-2.7,1.6l1-.6h0c0-.1-1,.4-1,.4h0Zm.4.3l.6-.4h0c0-.1-.6.2-.6.2h0Z"/><path id="bk" class="ea" d="m60.4,89.5s0,0,0,0h0s0,0,0-.1v-.3s0,0,0,0h0s0,0,0,.1v.3h0Z"/><path id="bl" class="ea" d="m57.6,91s0,0,0,0h0s0,0,0-.1v-.3s0,0,0,0h0s0,0,0,.1v.3h0Z"/><path id="bm" class="ea" d="m57.6,91.5s0,0,0,0h0s0,0,0-.1v-.3s0,0,0,0h0s0,0,0,.1v.3Z"/><path class="ea" d="m60.6,84.6h.2v-.5h-.2v.5h0Zm-.9.5h.2v-.5h-.2v.5h0Zm-1.8,1h.2v-.5h-.2v.5h0Zm-.9.5h.2v-.5h-.2v.5h0Zm0,5.7h.2v-.5h-.2v.5Zm.9-.5h.2v-.5h-.2v.5h0Zm1.8-1h.1v-.5h-.1v.5h0Zm.9-.5h.1v-.5h-.1v.5h0Z"/><path class="ed" d="m57,92.5l-.4.3h0c0,.1.4,0,.4,0v-.2h0Z"/><path class="dm" d="m61.7,83.3l-12.4-7.2-5.3,3.1,12.4,7.2,5.3-3.1h0Z"/><path class="di" d="m54.6,83.3l1.8,1.1,1.8-1.1-1.8-1-1.8,1Zm-5.4-3.1l1.8,1,1.8-1-1.8-1-1.8,1Z"/><path class="dq" d="m38.6,88.9l12.4,7.2v-6.8l-12.4-7.2v6.8h0Z"/><path class="dr" d="m38.6,82.5l12.4,7.2v-.3l-12.4-7.2s0,.3,0,.3Z"/><path class="dc" d="m51,95.3l-12.4-7.2v.8l12.4,7.2v-.8Z"/><path class="dr" d="m46.9,93.2l1.6.9v.5l-1.6-.9v-.5h0Zm-5.7-3.3l1.6.9v.5l-1.6-.9v-.5Zm9.2,5h.1c0,0,0-5.6,0-5.6h-.2c0-.1,0,5.6,0,5.6Z"/><path class="cw" d="m50.6,95.1h0c0,0,0-5.6,0-5.6h0s0,5.6,0,5.6h0Z"/><path class="dr" d="m49.9,94.6h.1c0,.1,0-5.6,0-5.6h-.1c0,0,0,5.6,0,5.6Z"/><path class="cw" d="m50,94.7h0s0-5.6,0-5.6h0c0,0,0,5.6,0,5.6h0Z"/><path class="dr" d="m49.3,94.3h.1c0,0,0-5.6,0-5.6h-.1c0-.1,0,5.6,0,5.6Z"/><path class="cw" d="m49.4,94.4h.1c0,0,0-5.6,0-5.6h-.1s0,5.6,0,5.6h0Z"/><path class="dr" d="m48.7,93.9h.1c0,.1,0-5.6,0-5.6h-.1c0,0,0,5.6,0,5.6Z"/><path class="cw" d="m48.8,94.1h0s0-5.6,0-5.6h0s0,5.6,0,5.6Z"/><path class="dr" d="m48.1,93.6h.1c0,0,0-5.6,0-5.6h-.2c0-.1,0,5.6,0,5.6Z"/><path class="cw" d="m48.2,93.7h0c0,0,0-5.6,0-5.6h0s0,5.6,0,5.6h0Z"/><path class="dr" d="m47.5,93.3h.1c0,.1,0-5.6,0-5.6h-.1c0,0,0,5.6,0,5.6Z"/><path class="cw" d="m47.7,93.4h0s0-5.6,0-5.6h0s0,5.6,0,5.6Z"/><path class="dr" d="m46.9,92.9h.1c0,0,0-5.6,0-5.6h-.2c0-.1,0,5.6,0,5.6Z"/><path class="cw" d="m47.1,93h0s0-5.6,0-5.6h0s0,5.6,0,5.6Z"/><path class="dr" d="m46.3,92.6h.1c0,.1,0-5.6,0-5.6h-.1c0,0,0,5.6,0,5.6Z"/><path class="cw" d="m46.5,92.7h0s0-5.6,0-5.6h0s0,5.6,0,5.6Z"/><path class="dr" d="m45.7,92.3h.1c0,0,0-5.6,0-5.6h-.2c0-.1,0,5.6,0,5.6Z"/><path class="cw" d="m45.9,92.3h.1s0-5.6,0-5.6h0s0,5.6,0,5.6Z"/><path class="dr" d="m45.1,91.9h.1c0,.1,0-5.6,0-5.6h-.1c0,0,0,5.6,0,5.6Z"/><path class="cw" d="m45.3,92h0s0-5.6,0-5.6h0s0,5.6,0,5.6Z"/><path class="dr" d="m44.5,91.6h.2c0,0,0-5.6,0-5.6h-.2c0,0,0,5.6,0,5.6Z"/><path class="cw" d="m44.7,91.6h0s0-5.6,0-5.6h0c0,0,0,5.6,0,5.6h0Z"/><path class="dr" d="m44,91.2h.1c0,.1,0-5.6,0-5.6h-.1c0-.1,0,5.6,0,5.6Z"/><path class="cw" d="m44.1,91.3h0s0-5.6,0-5.6h0s0,5.6,0,5.6Z"/><path class="dr" d="m43.3,90.9h.1c0,0,0-5.6,0-5.6h-.2c0,0,0,5.6,0,5.6Z"/><path class="cw" d="m43.5,91h.1s0-5.6,0-5.6h0c0,0,0,5.6,0,5.6h0Z"/><path class="dr" d="m42.8,90.5h.1c0,0,0-5.6,0-5.6h-.1c0-.1,0,5.6,0,5.6Z"/><path class="cw" d="m42.9,90.6h0c0,0,0-5.6,0-5.6h0s0,5.6,0,5.6h0Z"/><path class="dr" d="m42.2,90.2h.2c0,.1,0-5.6,0-5.6h-.2c0,0,0,5.6,0,5.6Z"/><path class="cw" d="m42.3,90.3h0s0-5.6,0-5.6h0c0,0,0,5.6,0,5.6h0Z"/><path class="dr" d="m41.6,89.8h.1c0,0,0-5.6,0-5.6h-.1c0-.1,0,5.6,0,5.6Z"/><path class="cw" d="m41.7,89.9h0c0,0,0-5.6,0-5.6h0s0,5.6,0,5.6h0Z"/><path class="dr" d="m41,89.5h.2c0,.1,0-5.6,0-5.6h-.2c0,0,0,5.6,0,5.6Z"/><path class="cw" d="m41.2,89.6h0s0-5.6,0-5.6h0c0,0,0,5.6,0,5.6h0Z"/><path class="dr" d="m40.4,89.2h.1c0,0,0-5.6,0-5.6h-.1c0-.1,0,5.6,0,5.6Z"/><path class="cw" d="m40.5,89.2h0c0,0,0-5.6,0-5.6h0s0,5.6,0,5.6h0Z"/><path class="dr" d="m39.8,88.8h.2c0,.1,0-5.6,0-5.6h-.1c0,0,0,5.6,0,5.6Z"/><path class="cw" d="m40,88.9h0s0-5.6,0-5.6h0s0,5.6,0,5.6Z"/><path class="dr" d="m39.2,88.5h.1c0,0,0-5.6,0-5.6h-.1c0-.1,0,5.6,0,5.6Z"/><path class="cw" d="m39.4,88.6h0s0-5.6,0-5.6h0s0,5.6,0,5.6Z"/><path class="dc" d="m51,89.3v6.8l5.3-3v-6.8l-5.3,3.1h0Z"/><path class="dr" d="m51,89.9v-.2l5.3-3.1v.2l-5.3,3.1Zm0,5.9v-.2l5.3-3h0c0,.1-5.3,3.2-5.3,3.2Z"/><path class="dr" d="m53.6,94.3h.1v-6.1h-.1v6.1Z"/><path class="dq" d="m51.3,91.2l2.2-1.3v-.4l-2.2,1.3v.4Z"/><path class="dr" d="m51.3,90.9l2.2-1.3h0c0-.1-2.2,1.2-2.2,1.2h0Z"/><path class="cw" d="m51.3,91.2l2.2-1.3h0c0-.1-2.2,1.2-2.2,1.2h0Z"/><path class="dq" d="m51.3,92.7l2.2-1.3v-.4l-2.2,1.3v.4Z"/><path class="dr" d="m51.3,92.4l2.2-1.3h0c0-.1-2.2,1.2-2.2,1.2h0Z"/><path class="cw" d="m51.3,92.7l2.2-1.3h0c0-.1-2.2,1.2-2.2,1.2h0Z"/><path class="dq" d="m51.3,94.2l2.2-1.2v-.4l-2.2,1.2v.4Z"/><path class="dr" d="m51.3,93.8l2.2-1.3h0c0,0-2.2,1.2-2.2,1.2h0Z"/><path class="cw" d="m51.3,94.2l2.2-1.3h0c0,0-2.2,1.2-2.2,1.2h0Z"/><path id="bn" class="dq" d="m54,89.6l2.2-1.3v-.4l-2.2,1.3v.4Z"/><path id="bo" class="dr" d="m54,89.3l2.2-1.3h0c0-.1-2.2,1.2-2.2,1.2h0Z"/><path id="bp" class="cw" d="m54,89.7l2.2-1.3h0c0-.1-2.2,1.2-2.2,1.2h0Z"/><path class="dq" d="m54,91.1l2.2-1.3v-.4l-2.2,1.2v.4h0Z"/><path class="dr" d="m54,90.8l2.2-1.3h0c0,0-2.2,1.2-2.2,1.2h0Z"/><path id="bq" class="cw" d="m54,91.1l2.2-1.3h0c0-.1-2.2,1.2-2.2,1.2h0Z"/><path id="br" class="dq" d="m54,92.6l2.2-1.3v-.4l-2.2,1.3v.4Z"/><path class="dr" d="m54,92.3l2.2-1.2h0c0-.1-2.2,1.2-2.2,1.2h0Z"/><path class="cw" d="m54,92.6l2.2-1.2h0c0-.1-2.2,1.1-2.2,1.1h0Z"/><path id="bs" class="cw" d="m55.5,93.3s0,0,0,0h0v-6.4s0,0,0,0h0v6.4h0Z"/><path id="bt" class="cw" d="m54.6,93.9s0,0,0,0h0v-6.4s0,0,0,0h0v6.4h0Z"/><path id="bu" class="cw" d="m52.8,94.9s0,0,0,0h0v-6.4s0,0,0,0h0v6.4h0Z"/><path id="bv" class="cw" d="m51.8,95.4s0,0,0,0h0v-6.4s0,0,0,0h0v6.4h0Z"/><path class="cw" d="m54.6,92.7l1-.6h0c0-.1-1,.5-1,.5h0Zm-2.8,1.6l1-.6h0c0-.1-1,.4-1,.4h0Zm.4.3l.6-.3h0c0-.1-.6.2-.6.2h0Z"/><path id="bw" class="cw" d="m55,92.5s0,0,0,0h0s0,0,0-.1v-.3s0,0,0,0h0s0,0,0,.1v.3Z"/><path id="bx" class="cw" d="m52.3,94.1s0,0,0,0h0s0,0,0-.1v-.3s0,0,0,0h0s0,0,0,.1v.3h0Z"/><path id="by" class="cw" d="m52.3,94.6s0,0,0,0h0s0,0,0-.1v-.3s0,0,0,0h0s0,0,0,.1v.3h0Z"/><path class="cw" d="m55.3,87.7h.2v-.5h-.2v.5Zm-.9.5h.2v-.5h-.2v.5Zm-1.8,1h.1v-.5h-.1v.5h0Zm-.9.5h.1v-.5h-.1v.5h0Zm0,5.7h.1v-.5h-.1v.5h0Zm.9-.5h.1v-.5h-.1v.5h0Zm1.8-1h.2v-.5h-.2v.5h0Zm.9-.5h.2v-.5h-.2v.5h0Z"/><path class="dr" d="m51.7,95.6l-.4.2v.2l.4-.3h0Z"/><path class="cw" d="m56.4,86.3l-12.4-7.2-5.3,3.1,12.4,7.2,5.3-3.1Z"/><path class="dc" d="m49.3,86.4l1.8,1.1,1.8-1.1-1.8-1-1.8,1Zm-5.4-3.1l1.8,1,1.8-1-1.8-1.1-1.8,1.1Z"/><path class="di" d="m75.7,60.8l12.4,7.2v-6.8s-12.4-7.2-12.4-7.2v6.8Z"/><path class="ed" d="m75.8,54.3l12.4,7.2v-.3l-12.4-7.2v.3h0Z"/><path class="dm" d="m88.2,67.2l-12.4-7.2v.8l12.4,7.2v-.8h0Z"/><path class="ed" d="m84,65.1l1.6.9v.5l-1.6-.9v-.5Zm-5.6-3.3l1.5.9v.5l-1.5-.9v-.5Zm9.2,5h.1c0,0,0-5.6,0-5.6h-.2c0-.1,0,5.6,0,5.6Z"/><path class="dm" d="m87.7,67h.1s0-5.6,0-5.6h0s0,5.6,0,5.6Z"/><path class="ed" d="m87,66.5h.1c0,.1,0-5.6,0-5.6h-.1c0,0,0,5.6,0,5.6Z"/><path class="dm" d="m87.2,66.6h0s0-5.6,0-5.6h0s0,5.6,0,5.6Z"/><path class="ed" d="m86.4,66.2h.2c0,0,0-5.6,0-5.6h-.2c0-.1,0,5.6,0,5.6Z"/><path class="dm" d="m86.6,66.3h0s0-5.6,0-5.6h0s0,5.6,0,5.6Z"/><path class="ed" d="m85.8,65.9h.1c0,.1,0-5.6,0-5.6h-.1c0,0,0,5.6,0,5.6Z"/><path class="dm" d="m86,66h0s0-5.6,0-5.6h0s0,5.6,0,5.6Z"/><path class="ed" d="m85.2,65.5h.2c0,0,0-5.6,0-5.6h-.2c0,0,0,5.6,0,5.6Z"/><path class="dm" d="m85.4,65.6h0s0-5.6,0-5.6h0c0,0,0,5.6,0,5.6h0Z"/><path class="ed" d="m84.6,65.2h.1c0,.1,0-5.6,0-5.6h-.1c0-.1,0,5.6,0,5.6Z"/><path class="dm" d="m84.8,65.3h0s0-5.6,0-5.6h0s0,5.6,0,5.6Z"/><path class="ed" d="m84,64.8h.2c0,0,0-5.6,0-5.6h-.1c0,0,0,5.6,0,5.6Z"/><path class="dm" d="m84.2,64.9h0s0-5.6,0-5.6h0c0,0,0,5.6,0,5.6h0Z"/><path class="ed" d="m83.4,64.5h.1c0,0,0-5.6,0-5.6h-.1c0-.1,0,5.6,0,5.6Z"/><path class="dm" d="m83.6,64.6h0c0,0,0-5.6,0-5.6h0s0,5.6,0,5.6h0Z"/><path class="ed" d="m82.8,64.1h.2c0,.1,0-5.6,0-5.6h-.2c0,0,0,5.6,0,5.6Z"/><path class="dm" d="m83,64.2h0s0-5.6,0-5.6h0c0,0,0,5.6,0,5.6h0Z"/><path class="ed" d="m82.3,63.8h.1c0,0,0-5.6,0-5.6h-.1c0-.1,0,5.6,0,5.6Z"/><path class="dm" d="m82.4,63.9h0c0,0,0-5.6,0-5.6h0s0,5.6,0,5.6h0Z"/><path class="ed" d="m81.6,63.4h.2c0,.1,0-5.6,0-5.6h-.2c0,0,0,5.6,0,5.6Z"/><path class="dm" d="m81.8,63.6h0s0-5.6,0-5.6h0s0,5.6,0,5.6Z"/><path class="ed" d="m81.1,63.1h.1c0,0,0-5.6,0-5.6h-.1c0-.1,0,5.6,0,5.6Z"/><path class="dm" d="m81.2,63.2h0c0,0,0-5.6,0-5.6h0s0,5.6,0,5.6h0Z"/><path class="ed" d="m80.5,62.8h.2c0,.1,0-5.6,0-5.6h-.1c0,0,0,5.6,0,5.6Z"/><path class="dm" d="m80.6,62.9h0s0-5.6,0-5.6h0s0,5.6,0,5.6Z"/><path class="ed" d="m79.9,62.4h.1c0,0,0-5.6,0-5.6h-.1c0-.1,0,5.6,0,5.6Z"/><path class="dm" d="m80,62.5h0c0,0,0-5.6,0-5.6h0s0,5.6,0,5.6h0Z"/><path class="ed" d="m79.3,62.1h.2c0,.1,0-5.6,0-5.6h-.1c0,0,0,5.6,0,5.6Z"/><path class="dm" d="m79.5,62.2h0s0-5.6,0-5.6h0s0,5.6,0,5.6Z"/><path class="ed" d="m78.7,61.8h.1c0,0,0-5.6,0-5.6h-.1c0-.1,0,5.6,0,5.6Z"/><path class="dm" d="m78.8,61.8h0s0-5.6,0-5.6h0s0,5.6,0,5.6Z"/><path class="ed" d="m78.1,61.4h.1c0,.1,0-5.6,0-5.6h-.1c0,0,0,5.6,0,5.6Z"/><path class="dm" d="m78.3,61.5h0s0-5.6,0-5.6h0s0,5.6,0,5.6Z"/><path class="ed" d="m77.5,61.1h.1c0,0,0-5.6,0-5.6h-.1c0,0,0,5.6,0,5.6Z"/><path class="dm" d="m77.7,61.1h0s0-5.6,0-5.6h-.1c0,0,0,5.6,0,5.6h0Z"/><path class="ed" d="m76.9,60.7h.1c0,.1,0-5.6,0-5.6h-.1c0,0,0,5.6,0,5.6Z"/><path class="dm" d="m77.1,60.8h0s0-5.6,0-5.6h0s0,5.6,0,5.6Z"/><path class="ed" d="m76.3,60.4h.1c0,0,0-5.6,0-5.6h-.1c0,0,0,5.6,0,5.6Z"/><path class="dm" d="m76.5,60.5h0s0-5.6,0-5.6h-.1c0,0,0,5.6,0,5.6h0Z"/><path class="di" d="m88.2,61.3v6.8s5.3-3.1,5.3-3.1v-6.8l-5.3,3.1Z"/><path class="ed" d="m88.2,61.8v-.2l5.3-3.1v.2l-5.3,3.1Zm0,5.9v-.2l5.3-3.1v.2l-5.3,3.1Z"/><path class="ed" d="m90.7,66.2h.1v-6.1h-.1v6.1Z"/><path id="bz" class="di" d="m88.4,63.1l2.2-1.3v-.4l-2.2,1.3v.4Z"/><path class="ed" d="m88.4,62.8l2.2-1.2h0c0-.1-2.2,1.2-2.2,1.2h0Z"/><path class="dm" d="m88.4,63.1l2.2-1.2h0c0-.1-2.2,1.1-2.2,1.1h0Z"/><path id="ca" class="di" d="m88.4,64.6l2.2-1.3v-.4l-2.2,1.3v.4Z"/><path id="cb" class="ed" d="m88.4,64.3l2.2-1.3h0c0-.1-2.2,1.2-2.2,1.2h0Z"/><path id="cc" class="dm" d="m88.4,64.6l2.2-1.3h0c0-.1-2.2,1.2-2.2,1.2h0Z"/><path id="cd" class="di" d="m88.4,66.1l2.2-1.3v-.4l-2.2,1.3v.4Z"/><path id="ce" class="ed" d="m88.4,65.7l2.2-1.3h0c0-.1-2.2,1.2-2.2,1.2h0Z"/><path id="cf" class="dm" d="m88.4,66.1l2.2-1.3h0c0-.1-2.2,1.2-2.2,1.2h0Z"/><path class="di" d="m91.1,61.5l2.2-1.3v-.4l-2.2,1.3v.4Z"/><path class="ed" d="m91.1,61.2l2.2-1.3h0c0-.1-2.2,1.2-2.2,1.2h0Z"/><path class="dm" d="m91.1,61.5l2.2-1.2h0c0-.1-2.2,1.2-2.2,1.2h0Z"/><path class="di" d="m91.1,63l2.2-1.3v-.4l-2.2,1.3v.4Z"/><path class="ed" d="m91.1,62.7l2.2-1.3h0c0-.1-2.2,1.2-2.2,1.2h0Z"/><path class="dm" d="m91.1,63.1l2.2-1.3h0c0-.1-2.2,1.2-2.2,1.2h0Z"/><path class="di" d="m91.1,64.5l2.2-1.2v-.4l-2.2,1.2v.4h0Z"/><path class="ed" d="m91.1,64.2l2.2-1.3h0c0,0-2.2,1.2-2.2,1.2h0Z"/><path id="cg" class="dm" d="m91.1,64.5l2.2-1.3h0c0-.1-2.2,1.2-2.2,1.2h0Z"/><path id="ch" class="ea" d="m92.6,65.2s0,0,0,0h0v-6.4s0,0,0,0h0v6.4h0Z"/><path id="ci" class="ea" d="m91.7,65.7s0,0,0,0h0v-6.4s0,0,0,0h0v6.4Z"/><path id="cj" class="ea" d="m89.9,66.8s0,0,0,0h0v-6.4s0,0,0,0h0v6.4h0Z"/><path class="ea" d="m89,67.3s0,0,0,0h0v-6.4s0,0,0,0h0v6.4Zm2.8-2.8l1-.6h0c0-.1-1,.5-1,.5h0Z"/><path class="ea" d="m89,66.1l1-.6h0c0-.1-1,.5-1,.5h0Zm.4.3l.6-.4h0c0-.1-.6.2-.6.2h0Z"/><path id="ck" class="ea" d="m92.2,64.4s0,0,0,0h0s0,0,0-.1v-.3s0,0,0,0h0s0,0,0,.1v.3h0Z"/><path id="cl" class="ea" d="m89.4,66s0,0,0,0h0s0,0,0-.1v-.3s0,0,0,0h0s0,0,0,.1v.3Z"/><path id="cm" class="ea" d="m89.4,66.5s0,0,0,0h0s0,0,0-.1v-.3s0,0,0,0h0s0,0,0,.1v.3Z"/><path class="ea" d="m92.5,59.6h.1v-.5h-.1v.5h0Zm-.9.5h.1v-.5h-.1v.5h0Zm-1.8,1h.2v-.5h-.2v.5h0Zm-.9.5h.2v-.5h-.2v.5h0Zm0,5.7h.1v-.5h-.1v.5h0Zm.9-.5h.1v-.5h-.1v.5Zm1.8-1h.2v-.5h-.2v.5Zm.9-.5h.2v-.5h-.2v.5h0Z"/><path class="ed" d="m88.8,67.5l-.4.2h0c0,.1.4,0,.4,0h0Z"/><path class="dm" d="m93.5,58.2l-12.4-7.2-5.3,3.1,12.4,7.2,5.3-3.1Z"/><path class="di" d="m86.4,58.3l1.8,1,1.8-1-1.8-1.1-1.8,1.1Zm-5.4-3.1l1.8,1.1,1.8-1.1-1.8-1-1.8,1Z"/><path class="do" d="m93.8,72h-.2v-3.7h.1c0,0,0,3.7,0,3.7Zm-4.2,2.4h-.1c0,0,0-3.7,0-3.7h.1c0,0,0,3.7,0,3.7Zm-4.2,2.4h-.1v-3.7h.1v3.7Z"/><path class="do" d="m81.1,79.4h-.1v-3.7h.1v3.7Z"/><path class="do" d="m76.9,81.8h-.1c0-.1,0-3.7,0-3.7h.2v3.7Zm-4.2,2.4h-.1v-3.7h.1v3.7Z"/><path class="do" d="m68.5,86.7h-.1c0-.1,0-3.7,0-3.7h.1c0,.1,0,3.7,0,3.7Z"/><path class="do" d="m64.2,89.2h-.1c0-.1,0-3.7,0-3.7h.2v3.7Zm-4.2,2.4h-.1v-3.7h.1v3.7h0Zm-4.2,2.4h-.2v-3.7h.1c0,0,0,3.7,0,3.7Zm-4.2,2.4h-.1v-3.7h.1v3.7Z"/><path class="da" d="m45.9,95.9h-.1c0,0,52.7-30.5,52.7-30.5h.1c0,0-52.7,30.5-52.7,30.5h0Z"/><path class="do" d="m45.9,96.1h-.1v-.3h.1v.3Z"/><path class="dd" d="m98.6,65.5h0s-.1.2-.1.2l-4.6,2.7v3.6h-.1c0,0,0-3.6,0-3.6l-4.1,2.4v3.6h-.1c0,0,0-3.6,0-3.6l-4.1,2.4v3.6h-.1c0,0,0-3.6,0-3.6l-4.1,2.4v3.6s-.1,0-.1,0v-3.6l-4.1,2.3v3.6h-.1c0,.1,0-3.5,0-3.5l-4.1,2.3v3.6h-.1c0,.1,0-3.5,0-3.5l-4.1,2.3v3.6s-.1.1-.1.1v-3.6s-4.1,2.3-4.1,2.3v3.6h-.1c0,.1,0-3.5,0-3.5l-4.1,2.3v3.6h-.1c0,.1,0-3.6,0-3.6l-4.1,2.4v3.6s-.1,0-.1,0v-3.6s-4.1,2.4-4.1,2.4v3.6h-.1c0,0,0-3.6,0-3.6l-5.6,3.2v-.2l52.7-30.4h0Z"/><path class="dn" d="m45.9,96l-26.8-15.5c-.4.2-7,4-10.6,6.1-3.5,2-4.6,12.6-.8,15.6.1,0,.2.2.3.3,3.1,1.8,21.4,3,27.3-.4l10.5-6h0Z"/><path class="dk" d="m45.9,96l-26-15-.8-.5c-.4.2-7,4-10.6,6.1-3.5,2-4.6,12.7-.8,15.6.1,0,.2.2.3.3,3.1,1.8,21.4,3,27.3-.4l10.5-6h0Z"/><path class="ec" d="m45,95.5l-10,5.9c-1.1.6-2.7,1.1-4.8,1.5-.3,0-.5,0-.6.1h0c-2.2.3-4.7.5-7.6.5h-.6c-2.4,0-4.7-.1-6.6-.4-.1,0-.3,0-.4,0-2.4-.3-4.4-.6-5.4-1-.1,0-.2,0-.3-.1h-.2c0-.1-.1-.2-.3-.3-.7-.6-1.3-1.5-1.7-2.8,0,0,0-.1,0-.2-.3-1.1-.4-2.4-.4-3.8v-.6c.1-1.6.4-3.1.9-4.3,0-.1,0-.2.1-.3.5-1.1,1-1.9,1.7-2.2l11-6.4,1.2.7h.2c0,.1,3.6,2.2,3.6,2.2h.2c0,.1,3.5,2.1,3.5,2.1h.2c0,.1,3.7,2.3,3.7,2.3h.2c0,.1,3.6,2.2,3.6,2.2h.2c0,.1,3.6,2.2,3.6,2.2h.2c0,.1,3.5,2.1,3.5,2.1h.2c0,.1.9.8.9.8h0Z"/><path class="ds" d="m20,81v-.9l-.8.4.8.5Zm24.5,14.8l1.4-.9v1.1l-1.4-.2Z"/><path class="dj" d="m122.6,70l-72.2,41.7-.6.3-2.4,1.3-1.7.9c-1.9,1-4.9,1.6-8.3,1.9-.6,0-1.3.1-2,.1h0c-7,.4-14.7-.4-16.5-1.8,0,0-1.1-1.2-2.5-2.8l-8.6-9.5.3.2c3.1,1.8,21.4,3,27.3-.4l10.4-6.1h0l1.2,3,47.7-27.6,3.7-5.9,23.9-13.8v14.5c0,0,0,3.7,0,3.7h0Z"/><path class="dx" d="m122.6,66.3l-73.3,42.3-.6.4-2.5,1.4-1.7.9c-2.1,1-5.2,1.7-8.8,2.1-.7,0-1.4.1-2.1.1h0c-7.1.4-14.9-.4-17.2-1.8l-8.6-9.5.3.2c3.1,1.8,21.4,3,27.3-.4l10.4-6.1h0l1.2,3,47.7-27.6,3.7-5.9,23.9-13.8v14.6h0Z"/><path class="dk" d="m45.4,101.8c-1.2.7-2.1,2.3-2.1,3.7s1,1.9,2.1,1.2c1.2-.7,2.1-2.3,2.1-3.7s-1-1.9-2.1-1.2h0Z"/><path class="dw" d="m32.8,88.4l-23.7,13.6c-.1,0-.2,0-.3-.1l23.7-13.6h.2Zm-3.9-2.3l-22.2,12.7c0,0,0-.1,0-.2l22-12.6h.3Zm-3.7-2.2l-18.8,10.8v-.3l18.6-10.6h.2Zm-3.8-2.2l-14.1,8.1c0-.1,0-.2.1-.3l13.8-7.9h.2Zm15.2,8.8l-21.8,12.5c-.1,0-.3,0-.4,0l21.9-12.6h.2Zm3.8,2.2l-18.6,10.6h-.4l18.8-10.8h.2Zm3.7,2.1l-13.8,7.9h-.6c0,.1,14.2-8,14.2-8h.2Z"/><path class="dk" d="m47.1,98.9l47.7-27.5,3.7-5.9s0,0,0,0l23.7-13.7-8.1-4.7c0,0-.1-.1,0-.2,0,0,.1-.1.2,0l8.4,4.9s0,0,0,.1,0,.1,0,.1l-23.9,13.8-3.8,5.8s0,0,0,0l-47.8,27.6v-.3h-.1Z"/><path class="cz" d="m85.6,40.7v2l-.9-.5v-2l.9.5Zm3.5,2v2l-.9-.5v-2l.9.5Zm3.5,2.1v2l-.9-.5v-2s.9.5.9.5Zm-9.5-18.6v2.9l-1.1-.6v-2.9l1.1.6Zm13,20.6v2l-.9-.5v-2l.9.5Zm3.5,2.1v2l-.9-.5v-2l.9.5Zm3.6,2v2l-.9-.5v-2l.9.5Zm-11.4-19.7v2.9l-1.1-.6v-2.9l1.1.6Zm1.9,1.1v3s-1.2-.6-1.2-.6v-3l1.2.6Zm6.8,3.9v3s-1.2-.6-1.2-.6v-3l1.2.6Zm1.9,1.1v2.9l-1.2-.6v-3s1.2.7,1.2.7h0Z"/><path class="cw" d="m104.4,39.6l9.9-5.8v21.3c0,0-10,5.8-10,5.8v-21.4Z"/><path class="cz" d="m82.1,38.6v2s-.9-.5-.9-.5v-2l.9.5Z"/><path class="cw" d="m78.1,21.8l9.9-5.8,2,1.2-9.9,5.8-2-1.2Z"/><path class="cz" d="m85.1,27.3v2.9l-1.1-.6v-2.9l1.1.6Z"/><path class="dz" d="m106.4,38.2l9.9-5.8v2.6l-9.9,5.8v-2.6Z"/><path class="cw" d="m104.4,37l9.9-5.8,2,1.2-9.9,5.8-2-1.2Z"/><path class="db" d="m104.4,37l-24.2-14-2-1.2v2.6l2,1.2v21.3c0,0,24.2,14,24.2,14v-21.3c0,0,2.1,1.2,2.1,1.2v-2.6l-2-1.2h0Zm-22.3,3.6l-.9-.5v-2l.9.5v2h0Zm1.2-11.5l-1.1-.6v-2.9l1.1.6v2.9Zm.8-2.5l1.1.6v2.9l-1.1-.6v-2.9Zm1.7,16l-.9-.5v-2l.9.5v2h0Zm3.5,2l-.9-.5v-2l.9.5v2h0Zm1.6-14.1l1.1.6v2.9l-1.1-.6v-2.9Zm1.9,16.2l-.9-.5v-2l.9.5v2h0Zm1.1-11.5l-1.1-.6v-2.9l1.1.6v2.9Zm2.4,13.5l-.9-.5v-2l.9.5v2h0Zm3.5,2l-.9-.5v-2l.9.5v2h0Zm.8-11.6l-1.1-.6v-2.9l1.1.6v2.9h0Zm.8-2.6l1.1.6v2.9l-1.1-.6v-2.9Zm1.9,16.2l-.9-.5v-2l.9.5v2Z"/><path class="db" d="m104.4,33v4l-24.2-14v-4l24.2,14Z"/><path class="dc" d="m104.4,33l10-5.8v4s-10,5.8-10,5.8v-4Z"/><path class="cw" d="m80.1,19l9.9-5.8,24.3,14-10,5.8-24.2-14h0Z"/><path class="cz" d="m106.9,43.5l-1.2.7v-2.7l1.2-.7v2.7Zm6.1,5.8l-1.2.7v-2.7l1.2-.7v2.7Zm-6.1,6.5l-1.2.7v-2.7l1.2-.7v2.7Z"/><path class="dk" d="m110.1,31l-2.5,1.4h0s0,1.8,0,1.8l2.5-1.5h0s0-1.8,0-1.8Zm-4.1,2.4v1.8l1.4-.8v-1.8l-1.4.8Zm4.3-2.5h0s0,1.8,0,1.8l2.4-1.4v-1.8l-2.5,1.4Z"/><path class="dv" d="m107.4,34.4h.2c0-.1-.2,0-.2,0Zm0-1.8h.2c0-.1-.2,0-.2,0Z"/><path class="dv" d="m107.5,32.4h-.2v1.9h.2v-2h0Zm2.7.3h-.2c0,0,.2,0,.2,0Zm-.2-1.7h.1c0-.1-.1,0-.1,0Z"/><path class="dv" d="m110.2,30.9h-.1v1.9h0s.2-.1.2-.1v-1.9h0Zm2.5-1.4h.2c0-.1-.2,0-.2,0Zm0,1.9h.2c0-.1-.2,0-.2,0Z"/><path class="dv" d="m112.9,29.3h-.2v2h.2v-2Z"/><path class="dl" d="m103.2,33.4v1.8l-21.8-12.6v-1.8l21.8,12.6Z"/><path class="dv" d="m83,21.8v1.8h-.2v-2h.2Zm2.7,1.5v1.8h-.3v-2h.3Zm2.7,1.5v1.8h-.2v-2h.2Zm2.7,1.5v1.8h-.3v-2h.3Zm2.7,1.5v1.8h-.2v-2h.2Zm2.7,1.5v1.8h-.2v-2h.2Zm2.7,1.5v1.9h-.3v-2h.3Zm2.7,1.6v1.8h-.2v-2h.2Z"/><path class="dg" d="m90.1,11.9h.2c0,0,0,1.4,0,1.4h-.1c0,0,0-1.4,0-1.4Zm3.4,1.9h.1c0,0,0,1.4,0,1.4h-.2c0,0,0-1.4,0-1.4Zm4.2,2.4h.1c0,0,0,1.4,0,1.4h-.2c0,.1,0-1.4,0-1.4h0Zm4.2,2.4h.1c0,0,0,1.4,0,1.4h-.1c0,0,0-1.4,0-1.4Zm4.2,2.4h.1c0,0,0,1.4,0,1.4h-.1c0,0,0-1.4,0-1.4Zm4.2,2.4h.1c0,0,0,1.4,0,1.4h-.2c0,0,0-1.4,0-1.4Z"/><path class="cx" d="m90,11.7h.1c0-.1,24.2,13.9,24.2,13.9h-.2c0,0-24.2-13.9-24.2-13.9h0Z"/><path class="dg" d="m114.2,25.6h.2c0,0,0,1.6,0,1.6h-.1c0,.1,0-1.6,0-1.6Z"/><path class="dp" d="m114.2,25.6v1.7h-.1v-1.6l-3.8-2.2v1.5s-.2,0-.2,0v-1.5l-4-2.3v1.5h-.2v-1.6l-4-2.3v1.5h-.2v-1.6l-4-2.3v1.5s-.2-.1-.2-.1v-1.5l-4-2.3v1.5s-.2,0-.2,0v-1.5l-3.2-1.9v1.5h-.2c0,0,0-1.8,0-1.8l24.2,14h0Z"/><path class="df" d="m91.5,23.4l6.1-3.6,1.1.6-6.1,3.6-1.1-.6Z"/><path class="cy" d="m91.5,20l6.1-3.5v3.4l-6.1,3.6v-3.4Z"/><path class="df" d="m90.4,19.4l6.1-3.5,1,.6-6.1,3.5-1-.6Zm3.6,5.4l6.1-3.5,1.1.6-6.1,3.5-1.1-.6Z"/><path class="dt" d="m91.5,20l6.1-3.5,1.1.6-6.1,3.5-1.1-.6Z"/><path class="dk" d="m92.6,20.6v3.4l-1.1-.6v-3.4l1.1.6Z"/><path class="cz" d="m92.6,20.6l6.1-3.5v3.4l-6.1,3.6v-3.4Z"/><path class="df" d="m92.6,20.6l6.1-3.5,1.4.8-6.1,3.6-1.4-.8h0Z"/><path class="cy" d="m94,21.4l6.1-3.6v3.4l-6.1,3.5v-3.4Z"/><path class="df" d="m96.5,26.3l6.1-3.6,1.1.6-6.1,3.6-1.1-.6Z"/><path class="dk" d="m95.1,22.1v3.4l-1.1-.6v-3.4l1.1.6Z"/><path class="cz" d="m95.1,22.1l6.1-3.5v3.4l-6.1,3.5v-3.4Z"/><path class="dt" d="m94,21.4l6.1-3.6,1.1.7-6.1,3.5-1.1-.6Z"/><path class="cy" d="m96.5,22.9l6.1-3.5v3.4l-6.1,3.6v-3.4Z"/><path class="df" d="m95.1,22.1l6.1-3.5,1.4.8-6.1,3.5-1.4-.8Z"/><path class="cz" d="m97.7,23.5l6.1-3.5v3.4s-6.1,3.6-6.1,3.6v-3.4Z"/><path class="dk" d="m97.7,23.5v3.4s-1.2-.6-1.2-.6v-3.4l1.2.6Z"/><path class="dt" d="m96.5,22.9l6.1-3.5,1.2.6-6.1,3.5-1.2-.6Z"/><path class="cz" d="m98.7,24.1v4l-8.2-4.7v-4l1,.6v3.4l1.1.6v-3.4l1.4.8v3.4l1.1.6v-3.4l1.4.8v3.4l1.1.6v-3.4s1,.6,1,.6h0Z"/><path class="dl" d="m98.7,24.1l6.1-3.6v4l-6.1,3.6v-4Z"/><path class="df" d="m97.7,23.5l6.1-3.5,1,.6-6.1,3.6-1-.6Z"/><path class="dk" d="m89.8,18.4l6.1-3.6,9.5,5.5-6.1,3.5-9.5-5.5h0Z"/><path class="cz" d="m99.3,23.9l6.1-3.5v.6l-6.1,3.5v-.6Z"/><path class="dl" d="m99.3,23.9v.6l-1.7-1-1.2-.6-1.4-.8-1.1-.6-1.4-.8-1.1-.6-1.7-.9v-.6l9.5,5.5h0Z"/><path class="dg" d="m111.4,27.4h.2c0-.1,0,1.4,0,1.4h-.2c0,0,0-1.4,0-1.4Z"/><path class="dp" d="m111.4,28.9h-.2c0,0,0-1.6,0-1.6h.1v1.6Z"/><path class="dg" d="m107.8,29.5h.2c0-.1,0,1.4,0,1.4h-.2c0,0,0-1.4,0-1.4Z"/><path class="dp" d="m107.8,31h-.1v-1.6h.1v1.6Z"/><path class="dg" d="m114.2,25.6v.2l-9.6,5.5v1.5s-.1.1-.1.1v-1.7l9.8-5.7h0Z"/><path class="dp" d="m104.4,33h-.1c0-.1,0-1.8,0-1.8h.2v1.8Z"/><path class="cx" d="m104.4,31.3h-.2c0-.1,9.8-5.8,9.8-5.8h.2c0,.1-9.8,5.8-9.8,5.8Z"/><path class="dg" d="m87.3,13.5h.2c0,0,0,1.4,0,1.4h-.2c0,.1,0-1.4,0-1.4Z"/><path class="dp" d="m87.3,15h-.2v-1.6h.2v1.6Z"/><path class="dg" d="m83.8,15.6h.2c0,0,0,1.4,0,1.4h-.2c0,.1,0-1.4,0-1.4Z"/><path class="dp" d="m83.8,17.1h-.1v-1.6h.1v1.6Z"/><path class="dg" d="m90.1,11.8v.2l-9.6,5.5v1.5s-.1,0-.1,0v-1.7l9.8-5.6Z"/><path class="dp" d="m80.3,19.1h-.1v-1.8h.1v1.8Z"/><path class="cx" d="m80.3,17.4h-.1c0,0,9.8-5.7,9.8-5.7h.2s-9.8,5.7-9.8,5.7h0Z"/><path class="dg" d="m80.3,17.6h.1c0-.1,0,1.4,0,1.4h-.1c0,.1,0-1.4,0-1.4Zm3.4,1.9h.1c0-.1,0,1.4,0,1.4h-.1c0,.1,0-1.4,0-1.4Zm4.1,2.4h.2c0-.1,0,1.4,0,1.4h-.2c0,0,0-1.4,0-1.4h0Zm4.2,2.4h.1c0-.1,0,1.4,0,1.4h-.2c0,.1,0-1.4,0-1.4Zm4.2,2.4h.1c0-.1,0,1.4,0,1.4h-.1c0,.1,0-1.4,0-1.4Zm4.2,2.4h.1c0-.1,0,1.4,0,1.4h-.2c0,0,0-1.4,0-1.4h0Z"/><path class="cx" d="m80.2,17.3h.1c0-.1,24.2,13.9,24.2,13.9h-.1c0,.1-24.2-13.9-24.2-13.9h0Z"/><path class="dg" d="m104.4,31.3h.1c0-.1,0,1.6,0,1.6h-.1c0,.1,0-1.6,0-1.6Z"/><path class="dp" d="m104.4,31.3v1.7h-.2c0-.1,0-1.6,0-1.6l-3.8-2.2v1.5s-.2,0-.2,0v-1.5l-4-2.3v1.5h-.2v-1.6l-4-2.3v1.5s-.2-.1-.2-.1v-1.5l-4-2.3v1.5h-.1v-1.6l-4-2.3v1.5h-.2v-1.6l-3.2-1.8v1.5h-.1v-1.8l24.2,14h0Z"/><path class="dy" d="m61.7,83.2v6.8s5.3-3,5.3-3v-6.8l-5.3,3.1h0Z"/><path class="de" d="m61.7,83.8v-.2l5.3-3.1v.2l-5.3,3.1Zm0,5.9h0c0-.1,5.3-3.2,5.3-3.2h0c0,.1-5.3,3.2-5.3,3.2Z"/><path class="de" d="m64.2,88.2h.1v-6.1h-.1v6.1Z"/><path class="dy" d="m61.9,85.1l2.2-1.3v-.4l-2.2,1.3v.4Z"/><path class="de" d="m61.9,84.8l2.2-1.3h0c0-.1-2.2,1.2-2.2,1.2h0Zm0,.4l2.2-1.3h0c0-.1-2.2,1.2-2.2,1.2h0Z"/><path class="dy" d="m61.9,86.6l2.2-1.3v-.4l-2.2,1.3v.4Z"/><path class="de" d="m61.9,86.2l2.2-1.3h0c0-.1-2.2,1.2-2.2,1.2h0Zm0,.4l2.2-1.3h0c0-.1-2.2,1.2-2.2,1.2h0Z"/><path class="dy" d="m61.9,88l2.2-1.2v-.4l-2.2,1.2v.4Z"/><path class="de" d="m61.9,87.7l2.2-1.2h0c0-.1-2.2,1.1-2.2,1.1h0Zm0,.4l2.2-1.3h0c0,0-2.2,1.2-2.2,1.2h0Z"/><path class="dy" d="m64.6,83.5l2.2-1.3v-.4l-2.2,1.3v.4Z"/><path class="de" d="m64.6,83.2l2.2-1.3h0c0-.1-2.2,1.2-2.2,1.2h0Zm0,.4l2.2-1.3h0c0-.1-2.2,1.2-2.2,1.2h0Z"/><path class="dy" d="m64.6,85l2.2-1.2v-.4l-2.2,1.2v.4Z"/><path class="de" d="m64.6,84.7l2.2-1.3h0c0,0-2.2,1.2-2.2,1.2h0Zm0,.4l2.2-1.3h0c0-.1-2.2,1.2-2.2,1.2h0Z"/><path id="co" class="dy" d="m64.6,86.5l2.2-1.3v-.4l-2.2,1.3v.4Z"/><path class="de" d="m64.6,86.1l2.2-1.2h0c0-.1-2.2,1.2-2.2,1.2h0Zm0,.4l2.2-1.2h0c0-.1-2.2,1.2-2.2,1.2h0Z"/><path id="cp" class="ea" d="m66.1,87.2s0,0,0,0h0v-6.4s0,0,0,0h0v6.4h0Z"/><path id="cq" class="ea" d="m65.2,87.8s0,0,0,0h0v-6.4s0,0,0,0h0v6.4h0Z"/><path id="cr" class="ea" d="m63.4,88.8s0,0,0,0h0v-6.4s0,0,0,0h0v6.4h0Z"/><path id="cs" class="ea" d="m62.4,89.3s0,0,0,0h0v-6.4s0,0,0,0h0v6.4h0Z"/><path class="ea" d="m65.2,86.6l1-.6h0c0-.1-1,.4-1,.4h0Zm-2.8,1.6l1-.6h0c0-.1-1,.4-1,.4h0Zm.4.3l.6-.4h0c0-.1-.6.2-.6.2h0Z"/><path id="ct" class="ea" d="m65.6,86.4s0,0,0,0h0s0,0,0-.1v-.3s0,0,0,0h0s0,0,0,.1v.3Z"/><path id="cu" class="ea" d="m62.9,87.9s0,0,0,0h0s0,0,0-.1v-.3s0,0,0,0h0s0,0,0,.1v.3h0Z"/><path id="cv" class="ea" d="m62.9,88.5s0,0,0,0h0s0,0,0-.1v-.3s0,0,0,0h0s0,0,0,.1v.3h0Z"/><path class="ea" d="m65.9,81.6h.2v-.5h-.2v.5Zm-.9.5h.2v-.5h-.2v.5Zm-1.8,1h.2v-.5h-.2v.5h0Zm-.9.5h.2v-.5h-.2v.5h0Zm0,5.7h.1v-.5h-.1v.5h0Zm.9-.5h.1v-.5h-.1v.5h0Zm1.8-1h.2v-.5h-.2v.5h0Zm.9-.5h.2v-.5h-.2v.5h0Z"/><path class="de" d="m62.3,89.5l-.4.2v.2l.4-.3h0Zm4.7-9.3l-12.4-7.2-5.3,3.1,12.4,7.2,5.3-3.1h0Z"/><path class="dy" d="m59.9,80.2l1.8,1.1,1.8-1.1-1.8-1-1.8,1Zm-5.4-3.1l1.8,1,1.8-1-1.8-1.1-1.8,1.1Z"/><path class="dk" d="m88.2,68l-12.4-7.2-5.3,3.1,12.4,7.2,5.3-3.1Z"/><path class="dl" d="m81.1,68.1l1.8,1,1.8-1-1.8-1-1.8,1Zm-5.4-3.1l1.8,1,1.8-1-1.8-1.1-1.8,1.1Z"/><path class="de" d="m82.9,71l-12.4-7.2-5.3,3.1,12.4,7.2,5.3-3.1h0Z"/><path class="dy" d="m75.8,71.1l1.8,1,1.8-1-1.8-1-1.8,1Zm-5.4-3.1l1.8,1.1,1.8-1-1.8-1.1-1.8,1Z"/><path class="ec" d="m77.6,74.1l-12.4-7.2-5.3,3.1,12.4,7.2,5.3-3.1Z"/><path class="ee" d="m70.5,74.1l1.8,1.1,1.8-1-1.8-1.1-1.8,1Zm-5.4-3.1l1.8,1,1.8-1-1.8-1-1.8,1Z"/></g><path class="dw" d="m34.1,91.7c.1,0,.2,0,.3.1.3.1.2.3-.2.4-.3,0-.6.1-.9.1-1.8.2-3.6.5-5.5.7-1.6.2-3.3.4-4.9.6-.8,0-1.6,0-2.3-.1-.8-.2-1.2-.6-1.3-1.1,0-.3,0-.6.2-.9.4-1,.8-2,1.3-3,.2-.4.4-.9.6-1.3,0,0,0,0,0,0,.2-.3.5-.4,1-.2,1.6.6,3.1,1.2,4.7,1.9,1.4.6,2.7,1.1,4.1,1.7,1,.4,1.9.8,2.9,1.2,0,0,0,0,0,0Z"/><path class="dw" d="m16,100.7c-.2-.1-.5-.3-.7-.5-.5-.4-1-.7-1.5-1.1-.6-.5-1.2-.9-1.8-1.4-.7-.5-1.4-1.1-2.1-1.6-.1,0-.2-.2-.3-.3-.2-.2,0-.4.4-.6.6-.2,1.2-.3,1.8-.5,1-.3,2-.6,3.1-.8.7-.2,1.4-.3,2.1-.4,1.4-.2,2.4.2,2.4,1,0,.3-.1.5-.2.8-.3.6-.5,1.3-.8,1.9-.5,1-.9,2-1.4,3,0,0,0,.2-.2.3-.2.3-.6.3-.9.1Z"/></svg>