<svg xmlns="http://www.w3.org/2000/svg" xmlns:xlink="http://www.w3.org/1999/xlink" viewBox="0 0 128 128" xmlns:v="https://vecta.io/nano"><style><![CDATA[.j{fill:#58595b}.k{fill:#8f9194}.l{fill:#888a8c}.m{fill:#a7a9ac}.n{fill:#d9dadb}.o{fill:#a0a2a5}.p{fill:#6d6e71}.q{fill:#ebecec}.r{fill:#797a7d}.s{fill:#e6e7e8}.t{fill:#626365}.u{fill:#231f20}.v{fill:#454547}.w{fill:#f3f4f4}.x{fill:#f8f8f8}.y{fill:#f1f2f2}.z{fill:#b3b5b8}.AA{fill:#414042}.AB{fill:#848688}.AC{fill:#c8c9cb}.AD{fill:#808285}.AE{fill:#b4b6b9}.AF{fill:#363436}.AG{fill:#f4f4f5}.AH{fill:#aaacae}]]></style><defs><linearGradient id="A" x1="7.9" y1="84" x2="122.6" y2="84" gradientUnits="userSpaceOnUse"><stop offset="0" stop-color="#58595b"/><stop offset="1" stop-color="#797a7d"/></linearGradient><path id="B" d="M37.4 87.5h.1v-5.6h-.1c0-.1 0 5.6 0 5.6z"/><path id="C" d="M35.6 86.4h.1c0 .1 0-5.6 0-5.6h-.1v5.6z"/></defs><path d="M98.6 65.6L71.9 50.1l24-13.8 26.7 15.5-24 13.8zM47.1 99L20.4 83.5l47.7-27.6 26.7 15.5L47 99h0z" class="AA"/><path d="M22.3 82.7s-.1 0-.2-.1v-.3l45.8-26.5 3.6-5.8 8.4-4.8h.3c.1 0 0 .2 0 .3l-8.4 4.8-3.6 5.8h0L22.3 82.7h-.1z" class="l"/><path d="M67.2 56.8h-.1v-3.7h.1v3.7zM63 59.2h-.1v-3.7h.1v3.7zm-4.2 2.4h-.1v-3.7h.1v3.7zm-4.3 2.5h-.1v-3.7h.1v3.7zm-4.2 2.4h-.1v-3.7h.1v3.7zm-4.2 2.4H46v-3.7h.1v3.7zm-4.3 2.5h-.1v-3.7h.2v3.7zm-4.2 2.5h-.1v-3.7h.1v3.7zm-4.2 2.4h-.1v-3.7h.1v3.7zm-4.2 2.4h-.1V75h.1v3.7zM25 81.1h-.1v-3.7h.1v3.7z" class="AE"/><path d="M19.3 80.6h-.1l52.7-30.5h.1L19.3 80.6z" fill="#939598"/><path d="m19.3,80.8h-.1v-.3h.1v.3Z" class="AE"/><path d="M72 50.2h0l-.1.2-4.6 2.6v3.6l-.1.1v-3.6l-4.1 2.3V59H63c0 .1 0-3.5 0-3.5l-4.1 2.3v3.6h-.1c0 .1 0-3.5 0-3.5l-4.1 2.3v3.6h-.1v-3.6l-4.1 2.4v3.6h-.1v-3.6L46.3 65v3.6h-.1V65l-4.1 2.4V71H42v-3.6l-4.1 2.4v3.6h-.1v-3.6l-4.1 2.4v3.6h-.1v-3.6l-4.1 2.4v3.6h-.1v-3.6L25.3 77v3.6h-.1V77l-5.6 3.2V80l52.7-30.4h0z" fill="#c2c4c6"/><path d="M94.8 71.5L68.1 56l3.7-5.9 26.7 15.5-3.7 5.9z" fill="#434345"/><path d="m81,57.7l-12.4-7.2-5.3,3.1,12.4,7.2,5.3-3.1Z" class="q"/><path d="m74,57.8l1.8,1,1.8-1-1.8-1.1-1.8,1.1Zm-5.4-3.1l1.8,1.1,1.8-1.1-1.8-1-1.8,1Z" class="s"/><path d="m75.8,60.8l-12.4-7.2-5.3,3,12.4,7.2,5.3-3.1Z" class="t"/><path d="m68.7,60.8l1.8,1.1,1.8-1.1-1.8-1-1.8,1Zm-5.4-3.1l1.8,1,1.8-1-1.8-1-1.8,1Z" class="AA"/><path d="M70.4 63.8L58 56.6l-5.3 3.1 12.4 7.2 5.3-3.1z" class="l"/><path d="M63.4 63.9l1.8 1 1.8-1-1.8-1-1.8 1zM58 60.8l1.8 1 1.8-1-1.8-1.1-1.8 1.1z" class="p"/><path d="M65.1 66.9l-12.4-7.2-5.3 3.1L59.8 70l5.3-3.1h0z" class="q"/><path d="m58.1,66.9l1.8,1,1.8-1-1.8-1-1.8,1Zm-5.4-3.1l1.8,1,1.8-1-1.8-1.1-1.8,1.1Z" class="s"/><path d="M59.8 69.9l-12.4-7.2-5.3 3.1L54.5 73l5.3-3.1z" class="k"/><path d="m52.8,70l1.8,1,1.8-1-1.8-1-1.8,1Zm-5.4-3.1l1.8,1,1.8-1-1.8-1.1-1.8,1.1Z" class="r"/><path d="m54.5,73l-12.4-7.2-5.3,3.1,12.4,7.2,5.3-3.1Z" class="n"/><path d="M47.5 73.1l1.8 1 1.8-1-1.8-1-1.8 1zM42.1 70l1.8 1.1 1.8-1-1.8-1.1-1.8 1z" class="AC"/><path d="m49.2,76.1l-12.4-7.2-5.3,3.1,12.4,7.2,5.3-3.1Z" class="t"/><path d="M42.2 76.1l1.8 1 1.8-1-1.8-1-1.8 1zM36.8 73l1.8 1.1 1.8-1.1-1.8-1-1.8 1z" class="AA"/><path d="M26.2 81.8L38.6 89v-6.8L26.2 75v6.8z" class="p"/><path d="M26.2 75.3l12.4 7.2v-.3L26.2 75v.3z" class="m"/><path d="M38.6 88.2L26.2 81v.8L38.6 89v-.8z" class="l"/><path d="M34.5 86.1l1.6.9v.5l-1.6-.9v-.5h0zm-5.7-3.3l1.6.9v.5l-1.6-.9v-.5h0zm9.2 5h.1v-5.6h-.2v5.6z" class="m"/><path d="M38.2 87.9h0v-5.6h0v5.6h0z" class="l"/><use xlink:href="#B" class="m"/><path d="M37.6 87.5h0v-5.6h0v5.6h0z" class="l"/><path d="M36.8 87.1h.1c0 .1 0-5.6 0-5.6h-.2v5.6z" class="m"/><path d="M37 87.2h0v-5.6h0v5.6h0z" class="l"/><use xlink:href="#B" x="-1.1" y="-0.7" class="m"/><path d="M36.4 86.9h0v-5.6h0v5.6h0z" class="l"/><use xlink:href="#C" class="m"/><path d="M35.8 86.5h.1v-5.6h-.1v5.6z" class="l"/><use xlink:href="#B" x="-2.3" y="-1.4" class="m"/><path d="M35.2 86.2h0v-5.6h0v5.6h0z" class="l"/><path d="M34.5 85.7h.2c0 .1 0-5.6 0-5.6h-.2v5.6z" class="m"/><path d="M34.6 85.9h0v-5.6h0v5.6z" class="l"/><use xlink:href="#B" x="-3.5" y="-2.1" class="m"/><path d="M34 85.5h0v-5.6h0v5.6z" class="l"/><path d="M33.3 85.1h.1c0 .1 0-5.6 0-5.6h-.2v5.6z" class="m"/><path d="M33.4 85.2h.1v-5.6h0v5.6z" class="l"/><use xlink:href="#B" x="-4.7" y="-2.8" class="m"/><path d="M32.8 84.8h0v-5.6h0v5.6z" class="l"/><path d="M32.1 84.4h.2c0 .1 0-5.6 0-5.6h-.1v5.6z" class="m"/><path d="M32.3 84.5h0v-5.6h0v5.6z" class="l"/><path d="M31.5 84.1h.1v-5.6h-.1v5.6z" class="m"/><path d="M31.7 84.1h0v-5.6h0v5.6h0z" class="l"/><path d="M30.9 83.7h.2c0 .1 0-5.6 0-5.6h-.2v5.6z" class="m"/><path d="M31.1 83.8h0v-5.6h0v5.6z" class="l"/><path d="M30.3 83.4h.1v-5.6h-.1v5.6z" class="m"/><path d="M30.5 83.4h0v-5.6h0v5.6h0z" class="l"/><path d="M29.7 83h.2v-5.6h-.1c0-.1 0 5.6 0 5.6z" class="m"/><path d="M29.9 83.1h0v-5.6h0v5.6h0z" class="l"/><use xlink:href="#C" x="-6.5" y="-3.7" class="m"/><path d="M29.3 82.8h0v-5.6h0v5.6h0z" class="l"/><path d="M28.5 82.3h.2v-5.6h-.2c0-.1 0 5.6 0 5.6z" class="m"/><path d="M28.7 82.4h0v-5.6h0v5.6h0z" class="l"/><path d="M28 82h.1c0 .1 0-5.6 0-5.6H28V82z" class="m"/><path d="M28.1 82.1h0v-5.6h0v5.6z" class="l"/><path d="M27.3 81.6h.2V76h-.1c0-.1 0 5.6 0 5.6z" class="m"/><path d="M27.5 81.7h0v-5.6h0v5.6h0z" class="l"/><use xlink:href="#C" x="-8.8" y="-5.1" class="m"/><path d="M26.9 81.4h0v-5.6h0v5.6zm17-2.3l-12.4-7.2-5.3 3.1 12.4 7.2 5.3-3.1z" class="l"/><path d="m36.9,79.2l1.8,1,1.8-1-1.8-1.1-1.8,1.1Zm-5.4-3.1l1.8,1.1,1.8-1.1-1.8-1-1.8,1Z" class="p"/><path d="m88.2,68v6.8l5.3-3.1v-6.8l-5.3,3h0Z" class="AA"/><path d="m88.2,68.6v-.2l5.3-3h0c0,.1-5.3,3.2-5.3,3.2Zm0,5.9h0c0-.1,5.3-3.2,5.3-3.2h0c0,.1-5.3,3.2-5.3,3.2Z" class="AF"/><path d="M90.7 72.9h.1v-6.1h-.2v6.1z" class="u"/><path d="m88.4,69.8l2.2-1.3v-.4l-2.2,1.3v.4Z" class="v"/><path d="m88.4,69.5l2.2-1.3h0c0-.1-2.2,1.2-2.2,1.2h0Z" class="u"/><path d="m88.4,69.9l2.2-1.3h0c0-.1-2.2,1.2-2.2,1.2h0Z" class="t"/><path d="m88.4,71.3l2.2-1.2v-.5l-2.2,1.3v.4Z" class="v"/><path d="m88.4,71l2.2-1.3h0c0-.1-2.2,1.2-2.2,1.2h0Z" class="u"/><path d="m88.4,71.4l2.2-1.3h0c0-.1-2.2,1.2-2.2,1.2h0Z" class="t"/><path d="m88.4,72.8l2.2-1.3v-.4l-2.2,1.3v.4Z" class="v"/><path d="m88.4,72.5l2.2-1.2h0c0-.1-2.2,1.2-2.2,1.2h0Z" class="u"/><path d="m88.4,72.8l2.2-1.2h0c0-.1-2.2,1.1-2.2,1.1h0Z" class="t"/><path d="m91.1,68.3l2.2-1.3v-.4l-2.2,1.3v.4Z" class="v"/><path d="m91.1,67.9l2.2-1.3h0c0-.1-2.2,1.2-2.2,1.2h0Z" class="u"/><path d="m91.1,68.3l2.2-1.3h0c0-.1-2.2,1.2-2.2,1.2h0Z" class="t"/><path d="m91.1,69.7l2.2-1.2v-.4l-2.2,1.3v.4h0Z" class="v"/><path d="m91.1,69.4l2.2-1.2h0c0-.1-2.2,1.2-2.2,1.2h0Z" class="u"/><path d="M91.1 69.8l2.2-1.3h0l-2.2 1.2h0z" class="t"/><path d="m91.1,71.3l2.2-1.3v-.4l-2.2,1.3v.4Z" class="v"/><path d="m91.1,70.9l2.2-1.3h0c0-.1-2.2,1.2-2.2,1.2h0Z" class="u"/><path d="m91.1,71.3l2.2-1.2h0c0-.1-2.2,1.2-2.2,1.2h0Z" class="t"/><g class="x"><path d="M92.6 72h0v-6.4h0V72h0zm-.9.5h0v-6.4h0v6.4zm-1.8 1h0v-6.4h0v6.4h0zm-.9.6h0v-6.4h0v6.4h0z"/><path d="m91.8,71.3l1-.6h0c0-.1-1,.4-1,.4h0Zm-2.7,1.6l1-.6h0c0-.1-1,.4-1,.4h0Zm.4.3l.6-.4h0c0-.1-.6.2-.6.2h0Z"/><path d="M92.2 71.1h0V71v-.3h0v.1.3h0zm-2.7 1.6h0v-.1-.3h0v.1.3zm0 .5h0v-.1-.3h0v.1.3h0zm3-6.9h.1v-.5h-.2v.5h0zm-.9.5h.2v-.5h-.2v.5h0zm-1.8 1h.2v-.5h-.2v.5h0zm-.9.5h.2v-.5h-.2v.5h0zm0 5.7h.2v-.5h-.2v.5h0zm.9-.5h.2V73h-.2v.5h0zm1.8-1h.1V72h-.1v.5h0zm.9-.5h.1v-.5h-.1v.5h0z"/></g><path d="m88.8,74.2l-.4.3h0c0,.1.4,0,.4,0v-.2h0Z" class="AF"/><path d="M82.9 71v6.8l5.3-3.1v-6.8L82.9 71z" class="p"/><g class="m"><path d="m82.9,71.6v-.2l5.3-3.1v.2l-5.3,3.1Zm0,5.9v-.2l5.3-3.1v.2l-5.3,3.1Z"/><path d="M85.5 76h.1v-6.1h-.1V76z"/></g><path d="m83.1,72.9l2.2-1.3v-.4l-2.2,1.3v.4Z" class="p"/><path d="m83.1,72.6l2.2-1.3h0c0-.1-2.2,1.2-2.2,1.2h0Z" class="m"/><path d="m83.1,72.9l2.2-1.2h0c0-.1-2.2,1.2-2.2,1.2h0Z" class="l"/><path d="M83.1 74.4l2.2-1.3v-.4L83.1 74v.4z" class="p"/><path d="m83.1,74.1l2.2-1.3h0c0-.1-2.2,1.2-2.2,1.2h0Z" class="m"/><path d="m83.1,74.4l2.2-1.3h0c0-.1-2.2,1.2-2.2,1.2h0Z" class="l"/><path d="m83.1,75.9l2.2-1.2v-.4l-2.2,1.2v.4Z" class="p"/><path d="M83.1 75.5l2.2-1.3h0l-2.2 1.2h0z" class="m"/><path d="m83.1,75.9l2.2-1.3h0c0-.1-2.2,1.2-2.2,1.2h0Z" class="l"/><path d="M85.8 71.3L88 70v-.4l-2.2 1.3v.4z" class="p"/><path d="m85.8,71l2.2-1.3h0c0-.1-2.2,1.2-2.2,1.2h0Z" class="m"/><path d="m85.8,71.4l2.2-1.3h0c0-.1-2.2,1.2-2.2,1.2h0Z" class="l"/><path d="m85.8,72.8l2.2-1.3v-.4l-2.2,1.3v.4Z" class="p"/><path d="m85.8,72.5l2.2-1.3h0c0-.1-2.2,1.2-2.2,1.2h0Z" class="m"/><path d="m85.8,72.8l2.2-1.3h0c0-.1-2.2,1.2-2.2,1.2h0Z" class="l"/><path d="m85.8,74.3l2.2-1.2v-.4l-2.2,1.2v.4Z" class="p"/><path d="m85.8,73.9l2.2-1.2h0c0-.1-2.2,1.1-2.2,1.1h0Z" class="m"/><path d="M85.8 74.3L88 73h0l-2.2 1.2h0z" class="l"/><g class="x"><path d="M87.3 75h0v-6.4h0V75h0zm-.9.5h0v-6.4h0v6.4h0zm-1.8 1.1h0v-6.4h0v6.4h0zm-.9.5h0v-6.4h0v6.4h0z"/><path d="m86.4,74.3l1-.6h0c0-.1-1,.5-1,.5h0Zm-2.7,1.6l1-.6h0c0-.1-1,.5-1,.5h0Zm.4.3l.6-.3h0c0-.1-.6.2-.6.2h0Z"/><path d="M86.9 74.2h0v-.1-.3h0v.1.3h0zm-2.8 1.5h0v-.1-.3h0v.1.3zm0 .6h0v-.1-.3h0v.1.3h0zm3.1-6.9h.2v-.5h-.2v.5zm-.9.5h.2v-.5h-.2v.5zm-1.8 1h.1v-.5h-.1v.5zm-.9.5h.1v-.5h-.1v.5zm0 5.7h.1v-.5h-.1v.5h0zm.9-.5h.1v-.5h-.1v.5h0zm1.8-1h.2v-.5h-.2v.5zm.9-.5h.2v-.5h-.2v.5z"/></g><path d="m83.5,77.3l-.4.2h0c0,.1.4,0,.4,0h0Z" class="AD"/><path d="M72.3 77.2L59.9 70l-5.3 3.1L67 80.3l5.3-3.1h0z" class="l"/><path d="m65.3,77.2l1.8,1.1,1.8-1.1-1.8-1-1.8,1Zm-5.4-3.1l1.8,1,1.8-1-1.8-1-1.8,1Z" class="p"/><path d="M77.6 74.1v6.8l5.3-3.1V71l-5.3 3.1z" class="s"/><g class="q"><path d="m77.6,74.7v-.2l5.3-3.1v.2l-5.3,3.1Zm0,5.9v-.2l5.3-3.1v.2l-5.3,3.1Z"/><path d="M80.1 79h.1v-6.1h-.1V79z"/></g><path d="m77.8,76l2.2-1.3v-.4l-2.2,1.3v.4Z" class="s"/><path d="m77.8,75.6l2.2-1.2h0c0-.1-2.2,1.2-2.2,1.2h0Zm0,.4l2.2-1.2h0c0-.1-2.2,1.1-2.2,1.1h0Z" class="q"/><path d="M77.8 77.4l2.2-1.3v-.4L77.8 77v.4z" class="s"/><g class="q"><path d="m77.8,77.1l2.2-1.3h0c0-.1-2.2,1.2-2.2,1.2h0Z"/><path d="m77.8,77.5l2.2-1.3h0c0-.1-2.2,1.2-2.2,1.2h0Z"/></g><path d="m77.8,78.9l2.2-1.3v-.4l-2.2,1.3v.4Z" class="s"/><g class="q"><path d="m77.8,78.6l2.2-1.3h0c0-.1-2.2,1.2-2.2,1.2h0Z"/><path d="m77.8,78.9l2.2-1.3h0c0-.1-2.2,1.2-2.2,1.2h0Z"/></g><path d="M80.5 74.4l2.2-1.3v-.4L80.5 74v.4z" class="s"/><path d="m80.5,74.1l2.2-1.3h0c0-.1-2.2,1.2-2.2,1.2h0Zm0,.3l2.2-1.2h0c0-.1-2.2,1.2-2.2,1.2h0Z" class="q"/><path d="m80.5,75.9l2.2-1.3v-.4l-2.2,1.3v.4Z" class="s"/><path d="m80.5,75.5l2.2-1.3h0c0-.1-2.2,1.2-2.2,1.2h0Zm0,.4l2.2-1.3h0c0-.1-2.2,1.2-2.2,1.2h0Z" class="q"/><path d="m80.5,77.3l2.2-1.2v-.4l-2.2,1.2v.4Z" class="s"/><path d="M80.5 77l2.2-1.3h0l-2.2 1.2h0zm0 .4l2.2-1.3h0l-2.2 1.2h0z" class="q"/><g class="x"><path d="M82 78h0v-6.4h0V78h0zm-.9.6h0v-6.4h0v6.4h0zm-1.8 1h0v-6.4h0v6.4h0zm-.9.6h0v-6.4h0v6.4h0z"/><path d="M81.1 77.4l1-.6h0c0-.1-1 .5-1 .5h0zM78.4 79l1-.6h0c0-.1-1 .5-1 .5h0zm.4.3l.6-.4h0c0-.1-.6.3-.6.3h0z"/><path d="M81.6 77.3h0v-.1-.3h0v.1.3h0zm-2.8 1.5h0v-.1-.3h0v.1.3zm0 .5h0v-.1-.3h0v.1.3zm3.1-6.9h.1v-.5h-.1v.5h0zm-.9.5h.2v-.5H81v.5h0zm-1.8 1h.2v-.5h-.2v.5h0zm-.9.5h.2v-.5h-.2v.5h0zm0 5.7h.2v-.5h-.2v.5zm.9-.5h.2v-.5h-.2v.5zm1.8-1h.1v-.5H81v.5zm.9-.5h.1v-.5h-.1v.5z"/></g><path d="m78.2,80.4l-.4.2h0c0,.1.4,0,.4,0h0Z" class="q"/><path d="M72.3 77.2V84l5.3-3.1v-6.8l-5.3 3.1z" class="AA"/><path d="m72.3,77.7h0c0-.1,5.3-3.2,5.3-3.2h0c0,.1-5.3,3.2-5.3,3.2Zm0,5.9h0c0-.1,5.3-3.2,5.3-3.2h0c0,.1-5.3,3.2-5.3,3.2Z" class="AF"/><path d="M74.9 82.1h.1V76h-.1v6.1z" class="u"/><path d="m72.5,79l2.2-1.2v-.5l-2.2,1.3v.4Z" class="v"/><path d="m72.5,78.7l2.2-1.3h0c0-.1-2.2,1.2-2.2,1.2h0Z" class="u"/><path d="m72.5,79l2.2-1.3h0c0-.1-2.2,1.2-2.2,1.2h0Z" class="t"/><path d="m72.5,80.5l2.2-1.3v-.4l-2.2,1.3v.4Z" class="v"/><path d="m72.5,80.1l2.2-1.2h0c0-.1-2.2,1.2-2.2,1.2h0Z" class="u"/><path d="m72.5,80.5l2.2-1.2h0c0-.1-2.2,1.1-2.2,1.1h0Z" class="t"/><path d="m72.5,82l2.2-1.3v-.4l-2.2,1.3v.4Z" class="v"/><path d="m72.5,81.6l2.2-1.3h0c0-.1-2.2,1.2-2.2,1.2h0Z" class="u"/><path d="m72.5,82l2.2-1.3h0c0-.1-2.2,1.2-2.2,1.2h0Z" class="t"/><path d="M75.2 77.4l2.2-1.2v-.4L75.2 77v.4z" class="v"/><path d="m75.2,77.1l2.2-1.2h0c0-.1-2.2,1.1-2.2,1.1h0Z" class="u"/><path d="M75.2 77.4l2.2-1.3h0l-2.2 1.2h0z" class="t"/><path d="m75.2,78.9l2.2-1.3v-.4l-2.2,1.3v.4Z" class="v"/><path d="m75.2,78.6l2.2-1.3h0c0-.1-2.2,1.2-2.2,1.2h0Z" class="u"/><path d="m75.2,78.9l2.2-1.2h0c0-.1-2.2,1.2-2.2,1.2h0Z" class="t"/><path d="M75.2 80.4l2.2-1.3v-.4L75.2 80v.4z" class="v"/><path d="m75.2,80.1l2.2-1.3h0c0-.1-2.2,1.2-2.2,1.2h0Z" class="u"/><path d="m75.2,80.4l2.2-1.3h0c0-.1-2.2,1.2-2.2,1.2h0Z" class="t"/><g class="x"><path d="M76.7 81.1h0v-6.4h0v6.4h0zm-.9.5h0v-6.4h0v6.4zM74 82.7h0v-6.4h0v6.4h0zm-.9.5h0v-6.4h0v6.4h0z"/><path d="m75.9,80.5l1-.6h0c0-.1-1,.4-1,.4h0Zm-2.8,1.6l1-.6h0c0-.1-1,.4-1,.4h0Zm.4.3l.6-.4h0c0-.1-.6.2-.6.2h0Z"/><path d="M76.3 80.3h0v-.1-.3h0v.1.3zm-2.8 1.6h0v-.1-.3h0v.1.3h0zm0 .5h0v-.1-.3h0v.1.3h0zm3.1-6.9h.1V75h-.1v.5zm-1 .5h.2v-.5h-.2v.5zm-1.8 1h.1v-.5h-.2v.5zm-.9.5h.2V77h-.2v.5zm0 5.7h.1v-.5h-.1v.5h0zm.9-.5h.1v-.5h-.1v.5h0zm1.8-1h.2v-.5h-.2v.5h0zm.9-.5h.2v-.5h-.2v.5h0z"/></g><path d="m72.9,83.4l-.4.2h0c0,.1.4,0,.4,0h0Z" class="AF"/><path d="M67 80.2V87l5.3-3.1v-6.8l-5.3 3h0z" class="p"/><g class="m"><path d="m67,80.7v-.2l5.3-3h0c0,.1-5.3,3.2-5.3,3.2Zm0,5.9h0c0-.1,5.3-3.2,5.3-3.2h0c0,.1-5.3,3.2-5.3,3.2Z"/><path d="M69.5 85.1h.1V79h-.2v6.1z"/></g><path d="m67.2,82l2.2-1.3v-.4l-2.2,1.3v.4Z" class="p"/><path d="m67.2,81.7l2.2-1.3h0c0-.1-2.2,1.2-2.2,1.2h0Z" class="m"/><path d="m67.2,82.1l2.2-1.3h0c0-.1-2.2,1.2-2.2,1.2h0Z" class="l"/><path d="m67.2,83.5l2.2-1.2v-.4l-2.2,1.2v.4Z" class="p"/><path d="M67.2 83.2l2.2-1.3h0l-2.2 1.2h0z" class="m"/><path d="m67.2,83.6l2.2-1.3h0c0-.1-2.2,1.2-2.2,1.2h0Z" class="l"/><path d="m67.2,85l2.2-1.3v-.4l-2.2,1.3v.4Z" class="p"/><path d="m67.2,84.7l2.2-1.2h0c0-.1-2.2,1.2-2.2,1.2h0Z" class="m"/><path d="m67.2,85l2.2-1.2h0c0-.1-2.2,1.1-2.2,1.1h0Z" class="l"/><path d="m69.9,80.5l2.2-1.3v-.4l-2.2,1.3v.4Z" class="p"/><path d="m69.9,80.1l2.2-1.3h0c0-.1-2.2,1.2-2.2,1.2h0Z" class="m"/><path d="m69.9,80.5l2.2-1.3h0c0-.1-2.2,1.2-2.2,1.2h0Z" class="l"/><path d="m69.9,81.9l2.2-1.2v-.4l-2.2,1.2v.4Z" class="p"/><path d="m69.9,81.6l2.2-1.2h0c0-.1-2.2,1.1-2.2,1.1h0Z" class="m"/><path d="M69.9 82l2.2-1.3h0l-2.2 1.2h0z" class="l"/><path d="M69.9 83.4l2.2-1.3v-.4L69.9 83v.4z" class="p"/><path d="m69.9,83.1l2.2-1.3h0c0-.1-2.2,1.2-2.2,1.2h0Z" class="m"/><path d="m69.9,83.4l2.2-1.2h0c0-.1-2.2,1.2-2.2,1.2h0Z" class="l"/><g class="x"><path d="M71.4 84.2h0v-6.4h0v6.4h0zm-.9.5h0v-6.4h0v6.4zm-1.8 1h0v-6.4h0v6.4h0zm-.9.5h0v-6.4h0v6.4h0z"/><path d="m70.5,83.5l1-.6h0c0-.1-1,.4-1,.4h0Zm-2.7,1.6l1-.6h0c0-.1-1,.4-1,.4h0Zm.4.3l.6-.4h0c0-.1-.6.2-.6.2h0Z"/><path d="M71 83.3h0v-.1-.3h0v.1.3h0zm-2.8 1.6h0v-.1-.2h0v.1.2zm0 .5h0v-.1-.3h0v.1.3h0zm3.1-6.9h.1V78h-.1v.5h0zm-.9.5h.1v-.5h-.2v.5h0zm-1.8 1h.2v-.5h-.2v.5h0zm-.9.5h.2V80h-.2v.5h0zm0 5.7h.2v-.5h-.2v.5h0zm.9-.5h.2v-.5h-.2v.5h0zm1.8-1h.1v-.5h-.1v.5h0zm.9-.5h.1v-.5h-.1v.5h0z"/></g><path d="m67.6,86.4l-.4.3h0c0,.1.4,0,.4,0v-.2h0Z" class="AD"/><path d="M43.9 85.9l12.4 7.2v-6.8l-12.4-7.2v6.8z" class="r"/><path d="M43.9 79.4l12.4 7.2v-.3l-12.4-7.2v.3z" class="j"/><path d="M56.4 92.3L44 85.1v.8l12.4 7.2v-.8z" class="k"/><path d="M52.2 90.2l1.6.9v.5l-1.6-.9v-.5h0zm-5.7-3.3l1.6.9v.5l-1.6-.9v-.5h0zm9.2 5h.1c0 .1 0-5.6 0-5.6h-.1v5.6z" class="j"/><path d="M55.9 92h0v-5.6h0V92z" class="k"/><path d="M55.2 91.6h.1V86h-.2c0-.1 0 5.6 0 5.6z" class="j"/><path d="M55.3 91.7h0v-5.6h0v5.6z" class="k"/><use xlink:href="#C" x="19" y="4.8" class="j"/><path d="M54.7 91.4h0v-5.6h0v5.6z" class="k"/><path d="M54 90.9h.1v-5.6h-.2v5.6z" class="j"/><path d="M54.1 91h.1v-5.6h0V91h0z" class="k"/><path d="m53.4,90.6h.1c0,.1,0-5.6,0-5.6h-.1c0-.1,0,5.6,0,5.6Z" class="j"/><path d="M53.6 90.7h0v-5.6h0v5.6z" class="k"/><path d="M52.8 90.2h.1v-5.6h-.2v5.6z" class="j"/><path d="M52.9 90.3h.1v-5.6h0v5.6h0z" class="k"/><use xlink:href="#B" x="14.8" y="2.4" class="j"/><path d="M52.4 90h0v-5.6h0V90h0z" class="k"/><path d="M51.6 89.5h.2c0 .1 0-5.6 0-5.6h-.2v5.6z" class="j"/><path d="M51.8 89.6h0V84h0v5.6h0z" class="k"/><path d="M51 89.2h.1v-5.6H51c0-.1 0 5.6 0 5.6z" class="j"/><path d="M51.2 89.3h0v-5.6h0v5.6h0z" class="k"/><path d="M50.4 88.8h.2c0 .1 0-5.6 0-5.6h-.1v5.6z" class="j"/><path d="M50.6 88.9h0v-5.6h0v5.6z" class="k"/><use xlink:href="#B" x="12.5" y="1" class="j"/><path d="M50 88.6h0V83h0v5.6h0z" class="k"/><path d="M49.2 88.2h.2c0 .1 0-5.6 0-5.6h-.2v5.6z" class="j"/><path d="M49.4 88.3h0v-5.6h0v5.6z" class="k"/><use xlink:href="#B" x="11.3" y="0.3" class="j"/><path d="M48.8 87.9h0v-5.6h0v5.6z" class="k"/><path d="M48.1 87.5h.2c0 .1 0-5.6 0-5.6h-.1v5.6z" class="j"/><path d="M48.2 87.6h0V82h0v5.6z" class="k"/><use xlink:href="#B" x="10.1" y="-0.4" class="j"/><path d="M47.6 87.2h0v-5.6h0v5.6z" class="k"/><path d="M46.9 86.8h.2c0 .1 0-5.6 0-5.6H47v5.6z" class="j"/><path d="M47.1 86.9h0v-5.6h0v5.6z" class="k"/><path d="M46.3 86.5h.1v-5.6h-.1v5.6z" class="j"/><path d="M46.4 86.5h0v-5.6h0v5.6h0z" class="k"/><path d="m45.7,86.1h.2c0,.1,0-5.6,0-5.6h-.1c0-.1,0,5.6,0,5.6Z" class="j"/><path d="M45.9 86.2h0v-5.6h0v5.6z" class="k"/><path d="M45.1 85.8h.1v-5.6h-.1v5.6z" class="j"/><path d="M45.3 85.9h0v-5.6h0v5.6h0z" class="k"/><use xlink:href="#B" x="7.1" y="-2.1" class="j"/><path d="M44.7 85.5h0v-5.6h0v5.6h0z" class="k"/><path d="m56.4,86.3v6.8l5.3-3.1v-6.8l-5.3,3h0Z" class="r"/><g class="j"><path d="m56.4,86.9v-.2l5.3-3h0c0,.1-5.3,3.2-5.3,3.2Zm0,5.9h0c0-.1,5.3-3.2,5.3-3.2h0c0,.1-5.3,3.2-5.3,3.2Z"/><path d="M58.9 91.2h.1v-6.1h-.1v6.1z"/></g><path d="m56.6,88.2l2.2-1.3v-.4l-2.2,1.3v.4Z" class="r"/><path d="m56.6,87.8l2.2-1.3h0c0-.1-2.2,1.2-2.2,1.2h0Z" class="j"/><path d="m56.6,88.2l2.2-1.3h0c0-.1-2.2,1.2-2.2,1.2h0Z" class="k"/><path d="M56.6 89.6l2.2-1.2V88l-2.2 1.2v.4z" class="r"/><path d="M56.6 89.3l2.2-1.3h0l-2.2 1.2h0z" class="j"/><path d="m56.6,89.7l2.2-1.3h0c0-.1-2.2,1.2-2.2,1.2h0Z" class="k"/><path d="m56.6,91.1l2.2-1.3v-.4l-2.2,1.3v.4Z" class="r"/><path d="m56.6,90.8l2.2-1.2h0c0-.1-2.2,1.2-2.2,1.2h0Z" class="j"/><path d="m56.6,91.1l2.2-1.2h0c0-.1-2.2,1.2-2.2,1.2h0Z" class="k"/><path d="m59.3,86.6l2.2-1.3v-.4l-2.2,1.3v.4Z" class="r"/><path d="m59.3,86.2l2.2-1.3h0c0-.1-2.2,1.2-2.2,1.2h0Z" class="j"/><path d="m59.3,86.6l2.2-1.3h0c0-.1-2.2,1.2-2.2,1.2h0Z" class="k"/><path d="m59.3,88l2.2-1.2v-.4l-2.2,1.2v.4Z" class="r"/><path d="m59.3,87.7l2.2-1.2h0c0-.1-2.2,1.1-2.2,1.1h0Z" class="j"/><path d="M59.3 88.1l2.2-1.3h0L59.3 88h0z" class="k"/><path d="m59.3,89.6l2.2-1.3v-.4l-2.2,1.3v.4Z" class="r"/><path d="m59.3,89.2l2.2-1.3h0c0-.1-2.2,1.2-2.2,1.2h0Z" class="j"/><path d="m59.3,89.6l2.2-1.3h0c0-.1-2.2,1.2-2.2,1.2h0Z" class="k"/><g class="x"><path d="M60.8 90.3h0v-6.4h0v6.4h0zm-.9.5h0v-6.4h0v6.4h0zm-1.8 1h0v-6.4h0v6.4h0zm-.9.6h0V86h0v6.4h0z"/><path d="m59.9,89.6l1-.6h0c0-.1-1,.4-1,.4h0Zm-2.7,1.6l1-.6h0c0-.1-1,.4-1,.4h0Zm.4.3l.6-.4h0c0-.1-.6.2-.6.2h0Z"/><path d="M60.4 89.5h0v-.1-.3h0v.1.3h0zM57.6 91h0v-.1-.3h0v.1.3h0zm0 .5h0v-.1-.3h0v.1.3zm3-6.9h.2v-.5h-.2v.5h0zm-.9.5h.2v-.5h-.2v.5h0zm-1.8 1h.2v-.5h-.2v.5h0zm-.9.5h.2v-.5H57v.5h0zm0 5.7h.2v-.5H57v.5zm.9-.5h.2v-.5h-.2v.5h0zm1.8-1h.1v-.5h-.1v.5h0zm.9-.5h.1v-.5h-.1v.5h0z"/></g><path d="m57,92.5l-.4.3h0c0,.1.4,0,.4,0v-.2h0Z" class="j"/><path d="m61.7,83.3l-12.4-7.2-5.3,3.1,12.4,7.2,5.3-3.1h0Z" class="k"/><path d="m54.6,83.3l1.8,1.1,1.8-1.1-1.8-1-1.8,1Zm-5.4-3.1l1.8,1,1.8-1-1.8-1-1.8,1Z" class="r"/><path d="M38.6 88.9L51 96.1v-6.8l-12.4-7.2v6.8h0z" class="z"/><path d="M38.6 82.5L51 89.7v-.3l-12.4-7.2v.3z" class="o"/><path d="M51 95.3l-12.4-7.2v.8L51 96.1v-.8z" class="AC"/><path d="M46.9 93.2l1.6.9v.5l-1.6-.9v-.5h0zm-5.7-3.3l1.6.9v.5l-1.6-.9v-.5zm9.2 5h.1v-5.6h-.2c0-.1 0 5.6 0 5.6z" class="o"/><path d="M50.6 95.1h0v-5.6h0v5.6h0z" class="n"/><use xlink:href="#C" x="14.3" y="8.2" class="o"/><path d="M50 94.7h0v-5.6h0v5.6h0z" class="n"/><use xlink:href="#B" x="11.9" y="6.8" class="o"/><path d="M49.4 94.4h.1v-5.6h-.1v5.6h0z" class="n"/><use xlink:href="#C" x="13.1" y="7.5" class="o"/><path d="M48.8 94.1h0v-5.6h0v5.6z" class="n"/><path d="M48.1 93.6h.1V88H48c0-.1 0 5.6 0 5.6z" class="o"/><path d="M48.2 93.7h0v-5.6h0v5.6h0z" class="n"/><use xlink:href="#C" x="11.9" y="6.9" class="o"/><path d="M47.7 93.4h0v-5.6h0v5.6z" class="n"/><path d="M46.9 92.9h.1v-5.6h-.2c0-.1 0 5.6 0 5.6z" class="o"/><path d="M47.1 93h0v-5.6h0V93z" class="n"/><use xlink:href="#C" x="10.7" y="6.2" class="o"/><path d="M46.5 92.7h0v-5.6h0v5.6z" class="n"/><path d="M45.7 92.3h.1v-5.6h-.2c0-.1 0 5.6 0 5.6z" class="o"/><path d="M45.9 92.3h.1v-5.6h0v5.6z" class="n"/><use xlink:href="#C" x="9.5" y="5.5" class="o"/><path d="M45.3 92h0v-5.6h0V92z" class="n"/><path d="M44.5 91.6h.2V86h-.2v5.6z" class="o"/><path d="M44.7 91.6h0V86h0v5.6h0z" class="n"/><path d="M44 91.2h.1c0 .1 0-5.6 0-5.6H44c0-.1 0 5.6 0 5.6z" class="o"/><path d="M44.1 91.3h0v-5.6h0v5.6z" class="n"/><path d="M43.3 90.9h.1v-5.6h-.2v5.6z" class="o"/><path d="M43.5 91h.1v-5.6h0V91h0z" class="n"/><use xlink:href="#B" x="5.4" y="3" class="o"/><path d="M42.9 90.6h0V85h0v5.6h0z" class="n"/><path d="M42.2 90.2h.2c0 .1 0-5.6 0-5.6h-.2v5.6z" class="o"/><path d="M42.3 90.3h0v-5.6h0v5.6h0z" class="n"/><use xlink:href="#B" x="4.2" y="2.3" class="o"/><path d="M41.7 89.9h0v-5.6h0v5.6h0z" class="n"/><path d="M41 89.5h.2c0 .1 0-5.6 0-5.6H41v5.6z" class="o"/><path d="M41.2 89.6h0V84h0v5.6h0z" class="n"/><use xlink:href="#B" x="3" y="1.7" class="o"/><path d="M40.5 89.2h0v-5.6h0v5.6h0z" class="n"/><path d="M39.8 88.8h.2c0 .1 0-5.6 0-5.6h-.1v5.6z" class="o"/><path d="M40 88.9h0v-5.6h0v5.6z" class="n"/><use xlink:href="#B" x="1.8" y="1" class="o"/><path d="M39.4 88.6h0V83h0v5.6z" class="n"/><path d="M51 89.3v6.8l5.3-3v-6.8L51 89.4h0z" class="AC"/><g class="o"><path d="M51 89.9v-.2l5.3-3.1v.2L51 89.9zm0 5.9v-.2l5.3-3h0c0 .1-5.3 3.2-5.3 3.2z"/><path d="m53.6,94.3h.1v-6.1h-.1v6.1Z"/></g><path d="m51.3,91.2l2.2-1.3v-.4l-2.2,1.3v.4Z" class="z"/><path d="m51.3,90.9l2.2-1.3h0c0-.1-2.2,1.2-2.2,1.2h0Z" class="o"/><path d="m51.3,91.2l2.2-1.3h0c0-.1-2.2,1.2-2.2,1.2h0Z" class="n"/><path d="M51.3 92.7l2.2-1.3V91l-2.2 1.3v.4z" class="z"/><path d="m51.3,92.4l2.2-1.3h0c0-.1-2.2,1.2-2.2,1.2h0Z" class="o"/><path d="m51.3,92.7l2.2-1.3h0c0-.1-2.2,1.2-2.2,1.2h0Z" class="n"/><path d="m51.3,94.2l2.2-1.2v-.4l-2.2,1.2v.4Z" class="z"/><path d="M51.3 93.8l2.2-1.3h0l-2.2 1.2h0z" class="o"/><path d="M51.3 94.2l2.2-1.3h0l-2.2 1.2h0z" class="n"/><path d="M54 89.6l2.2-1.3v-.4L54 89.2v.4z" class="z"/><path d="m54,89.3l2.2-1.3h0c0-.1-2.2,1.2-2.2,1.2h0Z" class="o"/><path d="m54,89.7l2.2-1.3h0c0-.1-2.2,1.2-2.2,1.2h0Z" class="n"/><path d="M54 91.1l2.2-1.3v-.4L54 90.6v.4h0z" class="z"/><path d="M54 90.8l2.2-1.3h0L54 90.7h0z" class="o"/><path d="m54,91.1l2.2-1.3h0c0-.1-2.2,1.2-2.2,1.2h0Z" class="n"/><path d="M54 92.6l2.2-1.3v-.4L54 92.2v.4z" class="z"/><path d="m54,92.3l2.2-1.2h0c0-.1-2.2,1.2-2.2,1.2h0Z" class="o"/><g class="n"><path d="m54,92.6l2.2-1.2h0c0-.1-2.2,1.1-2.2,1.1h0Z"/><path d="M55.5 93.3h0v-6.4h0v6.4h0zm-.9.6h0v-6.4h0v6.4h0zm-1.8 1h0v-6.4h0v6.4h0zm-1 .5h0V89h0v6.4h0z"/><path d="m54.6,92.7l1-.6h0c0-.1-1,.5-1,.5h0Zm-2.8,1.6l1-.6h0c0-.1-1,.4-1,.4h0Zm.4.3l.6-.3h0c0-.1-.6.2-.6.2h0Z"/><path d="M55 92.5h0v-.1-.3h0v.1.3zm-2.7 1.6h0V94v-.3h0v.1.3h0zm0 .5h0v-.1-.3h0v.1.3h0zm3-6.9h.2v-.5h-.2v.5zm-.9.5h.2v-.5h-.2v.5zm-1.8 1h.1v-.5h-.1v.5h0zm-.9.5h.1v-.5h-.1v.5h0zm0 5.7h.1v-.5h-.1v.5h0zm.9-.5h.1v-.5h-.1v.5h0zm1.8-1h.2v-.5h-.2v.5h0zm.9-.5h.2v-.5h-.2v.5h0z"/></g><path d="m51.7,95.6l-.4.2v.2l.4-.3h0Z" class="o"/><path d="M56.4 86.3L44 79.1l-5.3 3.1 12.4 7.2 5.3-3.1z" class="n"/><path d="m49.3,86.4l1.8,1.1,1.8-1.1-1.8-1-1.8,1Zm-5.4-3.1l1.8,1,1.8-1-1.8-1.1-1.8,1.1Z" class="AC"/><path d="M75.7 60.8L88.1 68v-6.8L75.7 54v6.8z" class="r"/><path d="M75.8 54.3l12.4 7.2v-.3L75.8 54v.3h0z" class="j"/><path d="M88.2 67.2L75.8 60v.8L88.2 68v-.8h0z" class="k"/><path d="M84 65.1l1.6.9v.5l-1.6-.9v-.5zm-5.6-3.3l1.5.9v.5l-1.5-.9v-.5zm9.2 5h.1v-5.6h-.2c0-.1 0 5.6 0 5.6z" class="j"/><path d="M87.7 67h.1v-5.6h0V67z" class="k"/><path d="M87 66.5h.1c0 .1 0-5.6 0-5.6H87v5.6z" class="j"/><path d="M87.2 66.6h0V61h0v5.6z" class="k"/><path d="M86.4 66.2h.2v-5.6h-.2c0-.1 0 5.6 0 5.6z" class="j"/><path d="M86.6 66.3h0v-5.6h0v5.6z" class="k"/><use xlink:href="#C" x="50.2" y="-20.5" class="j"/><path d="M86 66h0v-5.6h0V66z" class="k"/><path d="M85.2 65.5h.2v-5.6h-.2v5.6z" class="j"/><path d="M85.4 65.6h0V60h0v5.6h0z" class="k"/><path d="m84.6,65.2h.1c0,.1,0-5.6,0-5.6h-.1c0-.1,0,5.6,0,5.6Z" class="j"/><path d="M84.8 65.3h0v-5.6h0v5.6z" class="k"/><path d="M84 64.8h.2v-5.6h-.1v5.6z" class="j"/><path d="M84.2 64.9h0v-5.6h0v5.6h0z" class="k"/><use xlink:href="#B" x="46" y="-23" class="j"/><path d="M83.6 64.6h0V59h0v5.6h0z" class="k"/><path d="M82.8 64.1h.2c0 .1 0-5.6 0-5.6h-.2v5.6z" class="j"/><path d="M83 64.2h0v-5.6h0v5.6h0z" class="k"/><use xlink:href="#B" x="44.9" y="-23.7" class="j"/><path d="M82.4 63.9h0v-5.6h0v5.6h0z" class="k"/><path d="M81.6 63.4h.2c0 .1 0-5.6 0-5.6h-.2v5.6z" class="j"/><path d="M81.8 63.6h0V58h0v5.6z" class="k"/><use xlink:href="#B" x="43.7" y="-24.4" class="j"/><path d="M81.2 63.2h0v-5.6h0v5.6h0z" class="k"/><path d="M80.5 62.8h.2c0 .1 0-5.6 0-5.6h-.1v5.6z" class="j"/><path d="M80.6 62.9h0v-5.6h0v5.6z" class="k"/><use xlink:href="#B" x="42.5" y="-25.1" class="j"/><path d="M80 62.5h0v-5.6h0v5.6h0z" class="k"/><path d="M79.3 62.1h.2c0 .1 0-5.6 0-5.6h-.1v5.6z" class="j"/><path d="M79.5 62.2h0v-5.6h0v5.6z" class="k"/><use xlink:href="#B" x="41.3" y="-25.7" class="j"/><path d="M78.8 61.8h0v-5.6h0v5.6z" class="k"/><use xlink:href="#C" x="42.5" y="-25" class="j"/><path d="M78.3 61.5h0v-5.6h0v5.6z" class="k"/><path d="M77.5 61.1h.1v-5.6h-.1v5.6z" class="j"/><path d="M77.7 61.1h0v-5.6h-.1v5.6h0z" class="k"/><use xlink:href="#C" x="41.3" y="-25.7" class="j"/><path d="M77.1 60.8h0v-5.6h0v5.6z" class="k"/><path d="M76.3 60.4h.1v-5.6h-.1v5.6z" class="j"/><path d="M76.5 60.5h0v-5.6h-.1v5.6h0z" class="k"/><path d="M88.2 61.3v6.8l5.3-3.1v-6.8l-5.3 3.1z" class="r"/><g class="j"><path d="m88.2,61.8v-.2l5.3-3.1v.2l-5.3,3.1Zm0,5.9v-.2l5.3-3.1v.2l-5.3,3.1Z"/><path d="m90.7,66.2h.1v-6.1h-.1v6.1Z"/></g><path d="m88.4,63.1l2.2-1.3v-.4l-2.2,1.3v.4Z" class="r"/><path d="m88.4,62.8l2.2-1.2h0c0-.1-2.2,1.2-2.2,1.2h0Z" class="j"/><path d="m88.4,63.1l2.2-1.2h0c0-.1-2.2,1.1-2.2,1.1h0Z" class="k"/><path d="m88.4,64.6l2.2-1.3v-.4l-2.2,1.3v.4Z" class="r"/><path d="m88.4,64.3l2.2-1.3h0c0-.1-2.2,1.2-2.2,1.2h0Z" class="j"/><path d="m88.4,64.6l2.2-1.3h0c0-.1-2.2,1.2-2.2,1.2h0Z" class="k"/><path d="m88.4,66.1l2.2-1.3v-.4l-2.2,1.3v.4Z" class="r"/><path d="m88.4,65.7l2.2-1.3h0c0-.1-2.2,1.2-2.2,1.2h0Z" class="j"/><path d="m88.4,66.1l2.2-1.3h0c0-.1-2.2,1.2-2.2,1.2h0Z" class="k"/><path d="m91.1,61.5l2.2-1.3v-.4l-2.2,1.3v.4Z" class="r"/><path d="m91.1,61.2l2.2-1.3h0c0-.1-2.2,1.2-2.2,1.2h0Z" class="j"/><path d="m91.1,61.5l2.2-1.2h0c0-.1-2.2,1.2-2.2,1.2h0Z" class="k"/><path d="m91.1,63l2.2-1.3v-.4l-2.2,1.3v.4Z" class="r"/><path d="m91.1,62.7l2.2-1.3h0c0-.1-2.2,1.2-2.2,1.2h0Z" class="j"/><path d="m91.1,63.1l2.2-1.3h0c0-.1-2.2,1.2-2.2,1.2h0Z" class="k"/><path d="m91.1,64.5l2.2-1.2v-.4l-2.2,1.2v.4h0Z" class="r"/><path d="M91.1 64.2l2.2-1.3h0l-2.2 1.2h0z" class="j"/><path d="m91.1,64.5l2.2-1.3h0c0-.1-2.2,1.2-2.2,1.2h0Z" class="k"/><g class="x"><path d="M92.6 65.2h0v-6.4h0v6.4h0zm-.9.5h0v-6.4h0v6.4zm-1.8 1.1h0v-6.4h0v6.4h0z"/><path d="M89 67.3h0v-6.4h0v6.4zm2.8-2.8l1-.6h0c0-.1-1 .5-1 .5h0z"/><path d="M89 66.1l1-.6h0c0-.1-1 .5-1 .5h0zm.4.3l.6-.4h0c0-.1-.6.2-.6.2h0zm2.8-2h0v-.1-.3h0v.1.3h0z"/><path d="M89.4 66h0v-.1-.3h0v.1.3zm0 .5h0v-.1-.3h0v.1.3zm3.1-6.9h.1v-.5h-.1v.5h0zm-.9.5h.1v-.5h-.1v.5h0zm-1.8 1h.2v-.5h-.2v.5h0zm-.9.5h.2v-.5h-.2v.5h0zm0 5.7h.1v-.5h-.1v.5h0zm.9-.5h.1v-.5h-.1v.5zm1.8-1h.2v-.5h-.2v.5zm.9-.5h.2v-.5h-.2v.5h0z"/></g><path d="m88.8,67.5l-.4.2h0c0,.1.4,0,.4,0h0Z" class="j"/><path d="M93.5 58.2L81.1 51l-5.3 3.1 12.4 7.2 5.3-3.1z" class="k"/><path d="M86.4 58.3l1.8 1 1.8-1-1.8-1.1-1.8 1.1zM81 55.2l1.8 1.1 1.8-1.1-1.8-1-1.8 1z" class="r"/><path d="M93.8 72h-.2v-3.7h.1V72zm-4.2 2.4h-.1v-3.7h.1v3.7zm-4.2 2.4h-.1v-3.7h.1v3.7zm-4.3 2.6H81v-3.7h.1v3.7zm-4.2 2.4h-.1v-3.7h.2v3.7zm-4.2 2.4h-.1v-3.7h.1v3.7zm-4.2 2.5h-.1V83h.1v3.7zm-4.3 2.5h-.1v-3.7h.2v3.7zM60 91.6h-.1v-3.7h.1v3.7h0zM55.8 94h-.2v-3.7h.1V94zm-4.2 2.4h-.1v-3.7h.1v3.7z" class="AE"/><path d="M45.9 95.9h-.1l52.7-30.5h.1L45.9 95.9h0z" fill="#939598"/><path d="m45.9,96.1h-.1v-.3h.1v.3Z" class="AE"/><path d="M98.6 65.5h0l-.1.2-4.6 2.7V72h-.1v-3.6l-4.1 2.4v3.6h-.1v-3.6l-4.1 2.4v3.6h-.1v-3.6l-4.1 2.4v3.6h-.1v-3.6l-4.1 2.3v3.6H77c0 .1 0-3.5 0-3.5l-4.1 2.3v3.6h-.1c0 .1 0-3.5 0-3.5l-4.1 2.3v3.6l-.1.1v-3.6l-4.1 2.3v3.6h-.1c0 .1 0-3.5 0-3.5l-4.1 2.3v3.6h-.1c0 .1 0-3.6 0-3.6l-4.1 2.4v3.6H56v-3.6l-4.1 2.4v3.6h-.1v-3.6l-5.6 3.2v-.2l52.7-30.4h0z" fill="#c2c4c6"/><path d="M45.9 96L19.1 80.5c-.4.2-7 4-10.6 6.1-3.5 2-4.6 12.6-.8 15.6.1 0 .2.2.3.3 3.1 1.8 21.4 3 27.3-.4l10.5-6h0z" fill="#4c4c4e"/><path d="m45.9,96l-26-15-.8-.5c-.4.2-7,4-10.6,6.1-3.5,2-4.6,12.7-.8,15.6.1,0,.2.2.3.3,3.1,1.8,21.4,3,27.3-.4l10.5-6h0Z" class="l"/><path d="M45 95.5l-10 5.9c-1.1.6-2.7 1.1-4.8 1.5-.3 0-.5 0-.6.1h0c-2.2.3-4.7.5-7.6.5h-.6c-2.4 0-4.7-.1-6.6-.4h-.4c-2.4-.3-4.4-.6-5.4-1-.1 0-.2 0-.3-.1h-.2c0-.1-.1-.2-.3-.3-.7-.6-1.3-1.5-1.7-2.8v-.2c-.3-1.1-.4-2.4-.4-3.8v-.6c.1-1.6.4-3.1.9-4.3 0-.1 0-.2.1-.3.5-1.1 1-1.9 1.7-2.2l11-6.4 1.2.7h.2c0 .1 3.6 2.2 3.6 2.2h.2c0 .1 3.5 2.1 3.5 2.1h.2c0 .1 3.7 2.3 3.7 2.3h.2c0 .1 3.6 2.2 3.6 2.2h.2c0 .1 3.6 2.2 3.6 2.2h.2c0 .1 3.5 2.1 3.5 2.1h.2c0 .1.9.8.9.8h0z" class="t"/><path d="M20 81v-.9l-.8.4.8.5zm24.5 14.8l1.4-.9V96l-1.4-.2z" fill="#8d8f91"/><path d="M122.6 70l-72.2 41.7-.6.3-2.4 1.3-1.7.9c-1.9 1-4.9 1.6-8.3 1.9l-2 .1h0c-7 .4-14.7-.4-16.5-1.8l-2.5-2.8-8.6-9.5.3.2c3.1 1.8 21.4 3 27.3-.4l10.4-6.1h0l1.2 3 47.7-27.6 3.7-5.9 23.9-13.8V66v3.7h0z" fill="url(#A)"/><path d="M122.6 66.3l-73.3 42.3-.6.4-2.5 1.4-1.7.9c-2.1 1-5.2 1.7-8.8 2.1l-2.1.1h0c-7.1.4-14.9-.4-17.2-1.8l-8.6-9.5.3.2c3.1 1.8 21.4 3 27.3-.4l10.4-6.1h0l1.2 3 47.7-27.6 3.7-5.9 23.9-13.8v14.6h0z" fill="#d1d3d4"/><path d="m45.4,101.8c-1.2.7-2.1,2.3-2.1,3.7s1,1.9,2.1,1.2c1.2-.7,2.1-2.3,2.1-3.7s-1-1.9-2.1-1.2h0Z" class="l"/><path d="M32.8 88.4L9.1 102c-.1 0-.2 0-.3-.1l23.7-13.6h.2zm-3.9-2.3L6.7 98.8v-.2l22-12.6h.3zm-3.7-2.2L6.4 94.7v-.3L25 83.8h.2zm-3.8-2.2L7.3 89.8c0-.1 0-.2.1-.3l13.8-7.9h.2zm15.2 8.8L14.8 103h-.4l21.9-12.6h.2zm3.8 2.2l-18.6 10.6h-.4l18.8-10.8h.2zm3.7 2.1l-13.8 7.9h-.6c0 .1 14.2-8 14.2-8h.2z" class="v"/><path d="M47.1 98.9l47.7-27.5 3.7-5.9 23.7-13.7-8.1-4.7s-.1-.1 0-.2c0 0 .1-.1.2 0l8.4 4.9v.1.1L98.8 65.8 95 71.6 47.2 99.2v-.3h-.1z" class="l"/><path d="M85.6 40.7v2l-.9-.5v-2l.9.5zm3.5 2v2l-.9-.5v-2l.9.5zm3.5 2.1v2l-.9-.5v-2l.9.5zm-9.5-18.6v2.9l-1.1-.6v-2.9l1.1.6zm13 20.6v2l-.9-.5v-2l.9.5zm3.5 2.1v2l-.9-.5v-2l.9.5zm3.6 2v2l-.9-.5v-2l.9.5zM91.8 31.2v2.9l-1.1-.6v-2.9l1.1.6zm1.9 1.1v3l-1.2-.6v-3l1.2.6zm6.8 3.9v3l-1.2-.6v-3l1.2.6zm1.9 1.1v2.9l-1.2-.6v-3l1.2.7h0z" class="m"/><path d="M104.4 39.6l9.9-5.8v21.3l-10 5.8V39.5z" class="n"/><path d="M82.1 38.6v2l-.9-.5v-2l.9.5z" class="m"/><path d="M78.1 21.8L88 16l2 1.2-9.9 5.8-2-1.2z" class="n"/><path d="m85.1,27.3v2.9l-1.1-.6v-2.9l1.1.6Z" class="m"/><path d="M106.4 38.2l9.9-5.8V35l-9.9 5.8v-2.6z" fill="#bcbec0"/><path d="m104.4,37l9.9-5.8,2,1.2-9.9,5.8-2-1.2Z" class="n"/><g fill="#b5b7b9"><path d="M104.4 37L80.2 23l-2-1.2v2.6l2 1.2v21.3l24.2 14V39.6l2.1 1.2v-2.6l-2-1.2h0zm-22.3 3.6l-.9-.5v-2l.9.5v2h0zm1.2-11.5l-1.1-.6v-2.9l1.1.6v2.9zm.8-2.5l1.1.6v2.9l-1.1-.6v-2.9zm1.7 16l-.9-.5v-2l.9.5v2h0zm3.5 2l-.9-.5v-2l.9.5v2h0zm1.6-14.1l1.1.6V34l-1.1-.6v-2.9zm1.9 16.2l-.9-.5v-2l.9.5v2h0zm1.1-11.5l-1.1-.6v-2.9l1.1.6v2.9zm2.4 13.5l-.9-.5v-2l.9.5v2h0zm3.5 2l-.9-.5v-2l.9.5v2h0zm.8-11.6l-1.1-.6v-2.9l1.1.6v2.9h0zm.8-2.6l1.1.6V40l-1.1-.6v-2.9zm1.9 16.2l-.9-.5v-2l.9.5v2z"/><path d="M104.4 33v4L80.2 23v-4l24.2 14z"/></g><path d="M104.4 33l10-5.8v4l-10 5.8v-4z" class="AC"/><path d="m80.1,19l9.9-5.8,24.3,14-10,5.8-24.2-14h0Z" class="n"/><path d="m106.9,43.5l-1.2.7v-2.7l1.2-.7v2.7Zm6.1,5.8l-1.2.7v-2.7l1.2-.7v2.7Zm-6.1,6.5l-1.2.7v-2.7l1.2-.7v2.7Z" class="m"/><path d="M110.1 31l-2.5 1.4h0v1.8l2.5-1.5h0v-1.8zm-4.1 2.4v1.8l1.4-.8v-1.8l-1.4.8zm4.3-2.5h0v1.8l2.4-1.4v-1.8l-2.5 1.4z" class="l"/><g fill="#f7f7f7"><path d="m107.4,34.4h.2c0-.1-.2,0-.2,0Zm0-1.8h.2c0-.1-.2,0-.2,0Z"/><path d="M107.5 32.4h-.2v1.9h.2v-2h0zm2.7.3h-.2.2zM110 31h.1c0-.1-.1 0-.1 0z"/><path d="M110.2 30.9h-.1v1.9h0l.2-.1v-1.9h0zm2.5-1.4h.2c0-.1-.2 0-.2 0zm0 1.9h.2c0-.1-.2 0-.2 0z"/><path d="m112.9,29.3h-.2v2h.2v-2Z"/></g><path d="M103.2 33.4v1.8L81.4 22.6v-1.8l21.8 12.6z" class="p"/><path d="m83,21.8v1.8h-.2v-2h.2Zm2.7,1.5v1.8h-.3v-2h.3Zm2.7,1.5v1.8h-.2v-2h.2Zm2.7,1.5v1.8h-.3v-2h.3Zm2.7,1.5v1.8h-.2v-2h.2Zm2.7,1.5v1.8h-.2v-2h.2Zm2.7,1.5v1.9h-.3v-2h.3Zm2.7,1.6v1.8h-.2v-2h.2Z" fill="#f7f7f7"/><path d="M90.1 11.9h.2v1.4h-.1v-1.4zm3.4 1.9h.1v1.4h-.2v-1.4zm4.2 2.4h.1v1.4h-.2c0 .1 0-1.4 0-1.4h0zm4.2 2.4h.1V20h-.1v-1.4zm4.2 2.4h.1v1.4h-.1V21zm4.2 2.4h.1v1.4h-.2v-1.4z" class="w"/><path d="M90 11.7h.1c0-.1 24.2 13.9 24.2 13.9h-.2L89.9 11.7h0z" class="AG"/><path d="M114.2 25.6h.2v1.6h-.1c0 .1 0-1.6 0-1.6z" class="w"/><path d="M114.2 25.6v1.7h-.1v-1.6l-3.8-2.2V25h-.2v-1.5l-4-2.3v1.5h-.2v-1.6l-4-2.3v1.5h-.2v-1.6l-4-2.3v1.5l-.2-.1v-1.5l-4-2.3v1.5h-.2V14l-3.2-1.9v1.5h-.2v-1.8l24.2 14h0z" class="y"/><path d="m91.5,23.4l6.1-3.6,1.1.6-6.1,3.6-1.1-.6Z" class="AB"/><path d="m91.5,20l6.1-3.5v3.4l-6.1,3.6v-3.4Z" class="AH"/><path d="m90.4,19.4l6.1-3.5,1,.6-6.1,3.5-1-.6Zm3.6,5.4l6.1-3.5,1.1.6-6.1,3.5-1.1-.6Z" class="AB"/><path d="m91.5,20l6.1-3.5,1.1.6-6.1,3.5-1.1-.6Z" class="AD"/><path d="M92.6 20.6V24l-1.1-.6V20l1.1.6z" class="l"/><path d="m92.6,20.6l6.1-3.5v3.4l-6.1,3.6v-3.4Z" class="m"/><path d="m92.6,20.6l6.1-3.5,1.4.8-6.1,3.6-1.4-.8h0Z" class="AB"/><path d="M94 21.4l6.1-3.6v3.4L94 24.7v-3.4z" class="AH"/><path d="m96.5,26.3l6.1-3.6,1.1.6-6.1,3.6-1.1-.6Z" class="AB"/><path d="m95.1,22.1v3.4l-1.1-.6v-3.4l1.1.6Z" class="l"/><path d="M95.1 22.1l6.1-3.5V22l-6.1 3.5v-3.4z" class="m"/><path d="m94,21.4l6.1-3.6,1.1.7-6.1,3.5-1.1-.6Z" class="AD"/><path d="M96.5 22.9l6.1-3.5v3.4l-6.1 3.6V23z" class="AH"/><path d="m95.1,22.1l6.1-3.5,1.4.8-6.1,3.5-1.4-.8Z" class="AB"/><path d="M97.7 23.5l6.1-3.5v3.4L97.7 27v-3.4z" class="m"/><path d="M97.7 23.5v3.4l-1.2-.6v-3.4l1.2.6z" class="l"/><path d="m96.5,22.9l6.1-3.5,1.2.6-6.1,3.5-1.2-.6Z" class="AD"/><path d="M98.7 24.1v4l-8.2-4.7v-4l1 .6v3.4l1.1.6v-3.4l1.4.8v3.4l1.1.6V22l1.4.8v3.4l1.1.6v-3.4l1 .6h0z" class="m"/><path d="m98.7,24.1l6.1-3.6v4l-6.1,3.6v-4Z" class="p"/><path d="m97.7,23.5l6.1-3.5,1,.6-6.1,3.6-1-.6Z" class="AB"/><path d="m89.8,18.4l6.1-3.6,9.5,5.5-6.1,3.5-9.5-5.5h0Z" class="l"/><path d="m99.3,23.9l6.1-3.5v.6l-6.1,3.5v-.6Z" class="m"/><path d="m99.3,23.9v.6l-1.7-1-1.2-.6-1.4-.8-1.1-.6-1.4-.8-1.1-.6-1.7-.9v-.6l9.5,5.5h0Z" class="p"/><path d="M111.4 27.4h.2c0-.1 0 1.4 0 1.4h-.2v-1.4z" class="w"/><path d="M111.4 28.9h-.2v-1.6h.1v1.6z" class="y"/><path d="M107.8 29.5h.2c0-.1 0 1.4 0 1.4h-.2v-1.4z" class="w"/><path d="M107.8 31h-.1v-1.6h.1V31z" class="y"/><path d="M114.2 25.6v.2l-9.6 5.5v1.5l-.1.1v-1.7l9.8-5.7h0z" class="w"/><path d="M104.4 33h-.1v-1.8h.2V33z" class="y"/><path d="m104.4,31.3h-.2c0-.1,9.8-5.8,9.8-5.8h.2c0,.1-9.8,5.8-9.8,5.8Z" class="AG"/><path d="M87.3 13.5h.2v1.4h-.2c0 .1 0-1.4 0-1.4z" class="w"/><path d="M87.3 15h-.2v-1.6h.2V15z" class="y"/><path d="M83.8 15.6h.2V17h-.2c0 .1 0-1.4 0-1.4z" class="w"/><path d="m83.8,17.1h-.1v-1.6h.1v1.6Z" class="y"/><path d="M90.1 11.8v.2l-9.6 5.5V19h-.1v-1.7l9.8-5.6z" class="w"/><path d="m80.3,19.1h-.1v-1.8h.1v1.8Z" class="y"/><path d="M80.3 17.4h-.1l9.8-5.7h.2l-9.8 5.7h0z" class="AG"/><path d="M80.3 17.6h.1c0-.1 0 1.4 0 1.4h-.1c0 .1 0-1.4 0-1.4zm3.4 1.9h.1c0-.1 0 1.4 0 1.4h-.1c0 .1 0-1.4 0-1.4zm4.1 2.4h.2c0-.1 0 1.4 0 1.4h-.2v-1.4h0zm4.2 2.4h.1c0-.1 0 1.4 0 1.4h-.2c0 .1 0-1.4 0-1.4zm4.2 2.4h.1c0-.1 0 1.4 0 1.4h-.1c0 .1 0-1.4 0-1.4zm4.2 2.4h.1c0-.1 0 1.4 0 1.4h-.2v-1.4h0z" class="w"/><path d="m80.2,17.3h.1c0-.1,24.2,13.9,24.2,13.9h-.1c0,.1-24.2-13.9-24.2-13.9h0Z" class="AG"/><path d="m104.4,31.3h.1c0-.1,0,1.6,0,1.6h-.1c0,.1,0-1.6,0-1.6Z" class="w"/><path d="M104.4 31.3V33h-.2v-1.6l-3.8-2.2v1.5h-.2v-1.5l-4-2.3v1.5H96v-1.6l-4-2.3V26l-.2-.1v-1.5l-4-2.3v1.5h-.1V22l-4-2.3v1.5h-.2v-1.6l-3.2-1.8v1.5h-.1v-1.8l24.2 14h0z" class="y"/><path d="M61.7 83.2V90l5.3-3v-6.8l-5.3 3.1h0z" class="s"/><g class="q"><path d="m61.7,83.8v-.2l5.3-3.1v.2l-5.3,3.1Zm0,5.9h0c0-.1,5.3-3.2,5.3-3.2h0c0,.1-5.3,3.2-5.3,3.2Z"/><path d="m64.2,88.2h.1v-6.1h-.1v6.1Z"/></g><path d="m61.9,85.1l2.2-1.3v-.4l-2.2,1.3v.4Z" class="s"/><path d="m61.9,84.8l2.2-1.3h0c0-.1-2.2,1.2-2.2,1.2h0Zm0,.4l2.2-1.3h0c0-.1-2.2,1.2-2.2,1.2h0Z" class="q"/><path d="m61.9,86.6l2.2-1.3v-.4l-2.2,1.3v.4Z" class="s"/><path d="m61.9,86.2l2.2-1.3h0c0-.1-2.2,1.2-2.2,1.2h0Zm0,.4l2.2-1.3h0c0-.1-2.2,1.2-2.2,1.2h0Z" class="q"/><path d="m61.9,88l2.2-1.2v-.4l-2.2,1.2v.4Z" class="s"/><path d="M61.9 87.7l2.2-1.2h0c0-.1-2.2 1.1-2.2 1.1h0zm0 .4l2.2-1.3h0L61.9 88h0z" class="q"/><path d="m64.6,83.5l2.2-1.3v-.4l-2.2,1.3v.4Z" class="s"/><path d="m64.6,83.2l2.2-1.3h0c0-.1-2.2,1.2-2.2,1.2h0Zm0,.4l2.2-1.3h0c0-.1-2.2,1.2-2.2,1.2h0Z" class="q"/><path d="m64.6,85l2.2-1.2v-.4l-2.2,1.2v.4Z" class="s"/><path d="M64.6 84.7l2.2-1.3h0l-2.2 1.2h0zm0 .4l2.2-1.3h0c0-.1-2.2 1.2-2.2 1.2h0z" class="q"/><path d="m64.6,86.5l2.2-1.3v-.4l-2.2,1.3v.4Z" class="s"/><path d="m64.6,86.1l2.2-1.2h0c0-.1-2.2,1.2-2.2,1.2h0Zm0,.4l2.2-1.2h0c0-.1-2.2,1.2-2.2,1.2h0Z" class="q"/><g class="x"><path d="M66.1 87.2h0v-6.4h0v6.4h0zm-.9.6h0v-6.4h0v6.4h0zm-1.8 1h0v-6.4h0v6.4h0zm-1 .5h0v-6.4h0v6.4h0z"/><path d="m65.2,86.6l1-.6h0c0-.1-1,.4-1,.4h0Zm-2.8,1.6l1-.6h0c0-.1-1,.4-1,.4h0Zm.4.3l.6-.4h0c0-.1-.6.2-.6.2h0Z"/><path d="M65.6 86.4h0v-.1-.3h0v.1.3zm-2.7 1.5h0v-.1-.3h0v.1.3h0zm0 .6h0v-.1-.3h0v.1.3h0zm3-6.9h.2v-.5h-.2v.5zm-.9.5h.2v-.5H65v.5zm-1.8 1h.2v-.5h-.2v.5h0zm-.9.5h.2v-.5h-.2v.5h0zm0 5.7h.1v-.5h-.1v.5h0zm.9-.5h.1v-.5h-.1v.5h0zm1.8-1h.2v-.5H65v.5h0zm.9-.5h.2v-.5h-.2v.5h0z"/></g><path d="M62.3 89.5l-.4.2v.2l.4-.3h0zm4.7-9.3L54.6 73l-5.3 3.1 12.4 7.2 5.3-3.1h0z" class="q"/><path d="m59.9,80.2l1.8,1.1,1.8-1.1-1.8-1-1.8,1Zm-5.4-3.1l1.8,1,1.8-1-1.8-1.1-1.8,1.1Z" class="s"/><path d="m88.2,68l-12.4-7.2-5.3,3.1,12.4,7.2,5.3-3.1Z" class="l"/><path d="M81.1 68.1l1.8 1 1.8-1-1.8-1-1.8 1zM75.7 65l1.8 1 1.8-1-1.8-1.1-1.8 1.1z" class="p"/><path d="m82.9,71l-12.4-7.2-5.3,3.1,12.4,7.2,5.3-3.1h0Z" class="q"/><path d="M75.8 71.1l1.8 1 1.8-1-1.8-1-1.8 1zM70.4 68l1.8 1.1 1.8-1-1.8-1.1-1.8 1z" class="s"/><path d="m77.6,74.1l-12.4-7.2-5.3,3.1,12.4,7.2,5.3-3.1Z" class="t"/><path d="M70.5 74.1l1.8 1.1 1.8-1-1.8-1.1-1.8 1zM65.1 71l1.8 1 1.8-1-1.8-1-1.8 1z" class="AA"/><path d="M34.1 91.7c.1 0 .2 0 .3.1.3.1.2.3-.2.4-.3 0-.6.1-.9.1l-5.5.7-4.9.6c-.8 0-1.6 0-2.3-.1-.8-.2-1.2-.6-1.3-1.1 0-.3 0-.6.2-.9l1.3-3 .6-1.3c.2-.3.5-.4 1-.2l4.7 1.9 4.1 1.7 2.9 1.2zm-18.1 9a3.04 3.04 0 0 1-.7-.5l-1.5-1.1-1.8-1.4-2.1-1.6c-.1 0-.2-.2-.3-.3-.2-.2 0-.4.4-.6.6-.2 1.2-.3 1.8-.5l3.1-.8c.7-.2 1.4-.3 2.1-.4 1.4-.2 2.4.2 2.4 1 0 .3-.1.5-.2.8-.3.6-.5 1.3-.8 1.9l-1.4 3s0 .2-.2.3c-.2.3-.6.3-.9.1z" class="v"/></svg>