<svg width="113" height="113" viewBox="0 0 113 113" fill="none" xmlns="http://www.w3.org/2000/svg">
<path d="M89.7616 104.352C89.7616 104.868 74.9209 105.293 56.6149 105.293C38.3089 105.293 23.4683 104.874 23.4683 104.352C23.4683 103.83 38.307 103.41 56.6149 103.41C74.9228 103.41 89.7616 103.828 89.7616 104.352Z" fill="#D8DEEA"/>
<path d="M99.8167 17.3504V26.4469C99.8179 29.9597 99.1271 33.4383 97.7837 36.684C96.4403 39.9298 94.4706 42.8791 91.9871 45.3634C89.5036 47.8477 86.5551 49.8185 83.3098 51.163C80.0645 52.5076 76.5861 53.1997 73.0734 53.1997H69.335L73.4896 48.9151C79.3738 48.7993 84.9781 46.3819 89.1004 42.1814C93.2227 37.981 95.5344 32.3322 95.5397 26.4469V19.4918H79.505L80.0398 15.2109H97.6867C98.2541 15.2109 98.7983 15.4363 99.1995 15.8376C99.6007 16.2388 99.8261 16.783 99.8261 17.3504H99.8167Z" fill="#E9A613"/>
<path d="M70.4047 78.975V83.6984H42.5916V78.975C42.5896 78.7837 42.6391 78.5954 42.7349 78.4297C42.8306 78.2641 42.9691 78.1272 43.1359 78.0334L45.2433 76.8469C47.0348 75.8377 48.5256 74.3703 49.5631 72.5951C50.6006 70.8199 51.1475 68.8008 51.1476 66.7446V61.752H61.843V66.7446C61.842 68.8027 62.3889 70.8239 63.4275 72.6007C64.4662 74.3774 65.9591 75.8456 67.7529 76.8544L69.8585 78.0409C70.0255 78.1346 70.1643 78.2714 70.2603 78.4371C70.3564 78.6027 70.4063 78.7911 70.4047 78.9826V78.975Z" fill="#E9A613"/>
<path d="M70.4046 78.975V83.6984H67.7303V78.975C67.7318 78.7838 67.6822 78.5956 67.5865 78.43C67.4908 78.2644 67.3525 78.1275 67.186 78.0334L65.0786 76.8469C63.2869 75.838 61.7958 74.3706 60.7583 72.5954C59.7207 70.8201 59.174 68.8009 59.1743 66.7446V61.752H61.8486V66.7446C61.847 68.8021 62.3931 70.823 63.4307 72.5997C64.4683 74.3764 65.9601 75.8449 67.7529 76.8544L69.8585 78.0409C70.0254 78.1346 70.1642 78.2714 70.2603 78.4371C70.3563 78.6027 70.4062 78.7911 70.4046 78.9826V78.975Z" fill="#B7791D"/>
<path d="M65.0561 57.5879V60.6916C65.0561 61.4006 64.7746 62.0805 64.2734 62.582C63.7723 63.0835 63.0925 63.3655 62.3836 63.366H50.6184C49.9091 63.366 49.2289 63.0842 48.7274 62.5827C48.2258 62.0811 47.9441 61.4009 47.9441 60.6916V57.5879H65.0561Z" fill="#E9A613"/>
<path d="M61.8487 63.3691V64.9417H51.1514V63.3691H61.8487Z" fill="#B7791D"/>
<path d="M74.6836 82.6285V101.356H38.3184V82.6285C38.3203 82.3454 38.434 82.0746 38.6347 81.8749C38.8354 81.6753 39.1069 81.563 39.39 81.5625H73.6158C73.8992 81.5635 74.1707 81.6765 74.3711 81.8769C74.5715 82.0773 74.6845 82.3488 74.6855 82.6322L74.6836 82.6285Z" fill="#343B49"/>
<path d="M74.6835 82.6303V101.358H72.5365V82.6303C72.5355 82.3469 72.4225 82.0754 72.2221 81.875C72.0217 81.6746 71.7502 81.5615 71.4668 81.5605H73.6063C73.8897 81.5615 74.1612 81.6746 74.3616 81.875C74.562 82.0754 74.675 82.3469 74.676 82.6303H74.6835Z" fill="#262D38"/>
<path d="M77.8908 100.822V102.961C77.8903 103.245 77.7774 103.516 77.5769 103.717C77.3764 103.917 77.1046 104.03 76.8211 104.031H36.1882C35.9047 104.03 35.6332 103.917 35.4328 103.716C35.2324 103.516 35.1194 103.244 35.1184 102.961V100.822C35.1189 100.538 35.2317 100.266 35.4322 100.065C35.6326 99.8643 35.9044 99.751 36.1882 99.75H76.8305C77.1142 99.751 77.386 99.8643 77.5865 100.065C77.7869 100.266 77.8997 100.538 77.9002 100.822H77.8908Z" fill="#262D38"/>
<path d="M77.8909 100.822V102.961C77.8904 103.245 77.7775 103.516 77.577 103.717C77.3765 103.917 77.1047 104.03 76.8212 104.031H74.6836C74.967 104.03 75.2385 103.917 75.4389 103.716C75.6393 103.516 75.7523 103.244 75.7533 102.961V100.822C75.7528 100.538 75.64 100.266 75.4396 100.065C75.2391 99.8643 74.9673 99.751 74.6836 99.75H76.8212C77.1049 99.751 77.3767 99.8643 77.5771 100.065C77.7776 100.266 77.8904 100.538 77.8909 100.822Z" fill="#171D24"/>
<path d="M69.3349 86.9096V94.3996C69.3344 94.6833 69.2216 94.9553 69.0211 95.1561C68.8207 95.3569 68.5489 95.4702 68.2651 95.4712H44.7348C44.4511 95.4702 44.1793 95.3569 43.9788 95.1561C43.7784 94.9553 43.6655 94.6833 43.665 94.3996V86.9096C43.666 86.6262 43.7791 86.3547 43.9795 86.1543C44.1799 85.9539 44.4514 85.8408 44.7348 85.8398H68.2651C68.5487 85.8403 68.8205 85.9532 69.021 86.1537C69.2215 86.3542 69.3344 86.626 69.3349 86.9096Z" fill="#E9A613"/>
<path d="M65.0561 57.5879V60.6916C65.0561 61.4006 64.7746 62.0805 64.2734 62.582C63.7723 63.0835 63.0926 63.3655 62.3836 63.366H60.2441C60.9534 63.366 61.6336 63.0842 62.1352 62.5827C62.6367 62.0811 62.9185 61.4009 62.9185 60.6916V57.5879H65.0561Z" fill="#B7791D"/>
<path d="M45.2696 53.1997H39.9228C36.41 53.1997 32.9316 52.5076 29.6864 51.163C26.4411 49.8185 23.4925 47.8477 21.0091 45.3634C18.5256 42.8791 16.5559 39.9298 15.2125 36.684C13.869 33.4383 13.1782 29.9597 13.1794 26.4469V17.3504C13.1799 16.7832 13.4055 16.2392 13.8066 15.8381C14.2078 15.437 14.7516 15.2114 15.3189 15.2109H32.9658V19.4918H17.4584V26.4469C17.4632 32.332 19.7745 37.9808 23.8964 42.1813C28.0184 46.3818 33.6226 48.7993 39.5066 48.9151L45.2658 53.1997H45.2696Z" fill="#E9A613"/>
<path d="M82.7066 10.9375V13.0788C82.7066 39.082 70.9734 60.1622 56.5019 60.1622C42.0304 60.1622 30.2991 39.0801 30.2991 13.0788V10.9375H82.7066Z" fill="#E9A613"/>
<path d="M30.5383 19.4918H28.4007C28.2934 18.0849 28.2237 16.6555 28.186 15.2109H30.3255C30.3632 16.6555 30.4328 18.0849 30.5383 19.4918Z" fill="#B7791D"/>
<path d="M42.7893 53.2007H40.6498C39.3999 51.8158 38.2661 50.3305 37.2598 48.7598C38.0037 48.85 38.7517 48.9022 39.5009 48.9161C40.4775 50.4297 41.574 51.8625 42.7798 53.2007H42.7893Z" fill="#B7791D"/>
<path d="M65.0561 57.5879V58.6576C62.3723 60.3225 59.4946 61.2265 56.5001 61.2265C53.5056 61.2265 50.6278 60.3225 47.9441 58.6576V57.5879C50.6278 59.2528 53.5056 60.1568 56.5001 60.1568C59.4946 60.1568 62.3723 59.2528 65.0561 57.5879Z" fill="#B7791D"/>
<path d="M82.7067 10.9375V13.0788C82.7067 38.2684 71.6948 58.8439 57.8467 60.1038C71.3012 58.825 76.2845 38.2571 76.2845 13.0788V10.9375H82.7067Z" fill="#B7791D"/>
<path d="M85.3791 10.396C85.3801 10.7475 85.3116 11.0958 85.1776 11.4209C85.0436 11.7459 84.8467 12.0412 84.5982 12.2899C84.3496 12.5386 84.0544 12.7357 83.7295 12.87C83.4046 13.0042 83.0563 13.0729 82.7048 13.0722H30.2973C29.94 13.0817 29.5844 13.0195 29.2515 12.8893C28.9186 12.7591 28.6152 12.5636 28.3592 12.3142C28.1031 12.0649 27.8996 11.7667 27.7606 11.4374C27.6216 11.1081 27.55 10.7543 27.55 10.3969C27.55 10.0395 27.6216 9.68569 27.7606 9.35639C27.8996 9.02709 28.1031 8.72896 28.3592 8.4796C28.6152 8.23024 28.9186 8.03471 29.2515 7.90453C29.5844 7.77435 29.94 7.71216 30.2973 7.72164H82.7067C83.0579 7.72164 83.4056 7.7908 83.7301 7.9252C84.0545 8.0596 84.3494 8.2566 84.5977 8.50493C84.846 8.75327 85.043 9.04809 85.1774 9.37255C85.3118 9.69702 85.381 10.0448 85.381 10.396H85.3791Z" fill="#E9A613"/>
<path d="M82.7065 13.0723C82.7065 13.7879 82.6952 14.4998 82.6802 15.2117H30.3235C30.3065 14.4998 30.2971 13.7879 30.2971 13.0723H82.7065Z" fill="#B7791D"/>
<path d="M85.3791 10.395C85.3801 10.7466 85.3117 11.0949 85.1776 11.4199C85.0436 11.7449 84.8467 12.0403 84.5982 12.2889C84.3497 12.5376 84.0545 12.7348 83.7296 12.869C83.4046 13.0033 83.0564 13.072 82.7048 13.0712H76.8213C77.5185 13.0527 78.181 12.7628 78.6676 12.2631C79.1542 11.7634 79.4265 11.0935 79.4265 10.396C79.4265 9.69849 79.1542 9.02856 78.6676 8.52887C78.181 8.02917 77.5185 7.7392 76.8213 7.7207H82.7067C83.0579 7.7207 83.4057 7.78986 83.7301 7.92426C84.0546 8.05865 84.3494 8.25566 84.5977 8.50399C84.8461 8.75233 85.0431 9.04714 85.1775 9.37161C85.3119 9.69607 85.381 10.0438 85.381 10.395H85.3791Z" fill="#B7791D"/>
<path d="M69.335 86.9096V94.3996C69.3345 94.6833 69.2217 94.9553 69.0212 95.1561C68.8208 95.3569 68.549 95.4702 68.2652 95.4712H47.0344C51.3661 95.3846 65.5909 94.4655 65.5909 85.8398H68.2652C68.5488 85.8403 68.8206 85.9532 69.0211 86.1537C69.2216 86.3542 69.3345 86.626 69.335 86.9096Z" fill="#B7791D"/>
<path d="M44.7349 91.7336V87.3549C44.7349 87.2974 44.7462 87.2404 44.7683 87.1873C44.7904 87.1341 44.8227 87.0859 44.8635 87.0453C44.9043 87.0047 44.9527 86.9725 45.0059 86.9507C45.0591 86.9288 45.1161 86.9177 45.1737 86.918H54.7617C54.7617 86.918 47.1418 87.7203 44.7349 91.7336Z" fill="#FDCC68"/>
<path d="M39.5217 87.4446V83.0697C39.5215 83.0121 39.5326 82.9551 39.5545 82.9019C39.5763 82.8487 39.6085 82.8003 39.6491 82.7595C39.6896 82.7187 39.7379 82.6864 39.791 82.6643C39.8442 82.6422 39.9011 82.6309 39.9587 82.6309H49.5486C49.5486 82.6309 41.9286 83.4331 39.5217 87.4465V87.4446Z" fill="#4F5868"/>
<path d="M56.5 58.5514C50.6937 58.5514 34.5856 46.2946 32.6326 17.3516H38.9869C40.5859 52.7582 56.5019 58.5514 56.5019 58.5514H56.5Z" fill="#FDCC68"/>
<path d="M45.2698 79.4173C45.2698 79.4173 52.7579 74.6035 52.7579 67.6465V79.4173H45.2698Z" fill="#FDCC68"/>
<path d="M31.367 8.79102V10.3956H28.6926C28.6926 9.97005 28.8617 9.56192 29.1626 9.261C29.4635 8.96008 29.8717 8.79102 30.2972 8.79102H31.367Z" fill="#FDCC68"/>
<path d="M84.2829 15.2109C84.2452 16.6555 84.1755 18.0849 84.0625 19.4918H79.5049L80.0397 15.2109H84.2829Z" fill="#B7791D"/>
<path d="M75.1582 48.8242C74.1622 50.3694 73.045 51.8329 71.8172 53.2011H69.335L71.2183 51.2537L73.4783 48.9165C74.0433 48.9052 74.597 48.8732 75.1469 48.8242H75.1582Z" fill="#B7791D"/>
</svg>
