<?xml version="1.0" encoding="utf-8"?>
<!-- Generator: Adobe Illustrator 27.3.1, SVG Export Plug-In . SVG Version: 6.00 Build 0)  -->
<svg version="1.1" id="Layer_1" xmlns="http://www.w3.org/2000/svg" xmlns:xlink="http://www.w3.org/1999/xlink" x="0px" y="0px"
	 viewBox="0 0 232 228" style="enable-background:new 0 0 232 228;" xml:space="preserve">
<style type="text/css">
	.st0{clip-path:url(#SVGID_00000122688945806555994990000006519274489244289956_);}
	.st1{fill:#FFFFFF;}
	.st2{fill:#FFFFFF;stroke:#FFFFFF;stroke-miterlimit:10;}
</style>
<g>
	<defs>
		<rect id="SVGID_1_" x="2.8" y="3.6" width="105" height="139"/>
	</defs>
	<clipPath id="SVGID_00000065779315547512499950000002327102576243631497_">
		<use xlink:href="#SVGID_1_"  style="overflow:visible;"/>
	</clipPath>
	<g style="clip-path:url(#SVGID_00000065779315547512499950000002327102576243631497_);">
		<path class="st1" d="M102.4,3.6c0.9,0,1.8,0,2.6,0c2.4,0.1,3.5,1.8,2.3,3.9c-0.9,1.6-1.9,3-3.1,4.4c-6.8,8.7-13.6,17.4-20.6,25.9
			c-6.3,7.7-12.8,15.4-19.4,23c-3.2,3.7-7.1,6.5-12,7.6c-5.9,1.3-11-0.4-15.8-3.7c-2.9-2-4.8-4.9-6.6-7.7
			c-6.1-9.3-12.2-18.7-18.2-28.1C8.9,24.7,6.5,20.5,4,16.3c-0.1-0.2-0.3-0.5-0.4-0.7c-1.6-3.2-0.6-5,3-5.2c12.7-1,25.5-1.9,38.2-2.8
			C56,6.7,67.2,5.9,78.5,5.1C86.4,4.6,94.4,4.1,102.4,3.6L102.4,3.6z"/>
		<path class="st1" d="M88.9,142.6c-2.2-0.3-4.9-0.7-7.5-1.2c-5.6-1-11.1-2.1-16.7-3.2c-6.7-1.3-13.4-2.6-20.1-3.9
			c-7.8-1.5-15.7-3.1-23.5-4.7c-1.2-0.2-2.4-0.5-3.5-0.9c-2.8-1.1-3.8-3.4-2.6-6.1c1.6-3.7,3.2-7.3,4.9-11c2.8-6,5.4-12.1,8.4-18.1
			c2-4,4.2-7.9,6.8-11.5c4.9-6.8,13.8-7.4,19.7-1.3c2.1,2.2,4,4.7,5.7,7.3c3.9,5.9,7.7,11.9,11.6,17.9c6.3,9.8,12.5,19.5,18.8,29.3
			c0.6,0.9,1.1,1.8,1.5,2.8C93.7,140.6,92.4,142.6,88.9,142.6z"/>
	</g>
</g>
<g id="Layer_1-2">
	<g>
		<path class="st2" d="M173.2,99.2v-1.1l5.7-5.9c1.7-1.7,2.5-3.2,2.5-4.4c0-1-0.3-1.9-1-2.5s-1.5-0.9-2.5-0.9c-1.7,0-3,0.8-3.7,2.4
			l-1-0.6c0.5-0.9,1.1-1.7,1.9-2.2c0.8-0.5,1.8-0.7,2.8-0.7c1.3,0,2.4,0.4,3.3,1.2s1.4,1.9,1.4,3.3c0,0.9-0.3,1.8-0.8,2.6
			c-0.5,0.8-1.2,1.7-2.2,2.7l-4.8,5h8.1v1.1L173.2,99.2L173.2,99.2z"/>
		<path class="st2" d="M195.1,97.3c-1,1.5-2.5,2.2-4.3,2.2c-1.8,0-3.3-0.7-4.3-2.2c-1-1.5-1.5-3.4-1.5-5.9s0.5-4.4,1.5-5.9
			c1-1.5,2.5-2.2,4.3-2.2c1.8,0,3.3,0.7,4.3,2.2c1,1.5,1.5,3.4,1.5,5.9S196.2,95.8,195.1,97.3z M187.4,96.5c0.8,1.2,2,1.8,3.4,1.8
			c1.5,0,2.6-0.6,3.4-1.8c0.8-1.2,1.2-2.9,1.2-5.1c0-2.2-0.4-3.9-1.2-5.1s-2-1.8-3.4-1.8c-1.5,0-2.6,0.6-3.4,1.8
			c-0.8,1.2-1.2,2.9-1.2,5.1C186.2,93.6,186.6,95.3,187.4,96.5z"/>
		<path class="st2" d="M198.6,99.2v-1.1l5.7-5.9c1.7-1.7,2.5-3.2,2.5-4.4c0-1-0.3-1.9-1-2.5s-1.5-0.9-2.5-0.9c-1.7,0-3,0.8-3.7,2.4
			l-1-0.6c0.5-0.9,1.1-1.7,1.9-2.2s1.8-0.7,2.8-0.7c1.3,0,2.4,0.4,3.3,1.2c0.9,0.8,1.4,1.9,1.4,3.3c0,0.9-0.3,1.8-0.8,2.6
			c-0.5,0.8-1.2,1.7-2.2,2.7l-4.8,5h8.1v1.1L198.6,99.2L198.6,99.2z"/>
		<path class="st2" d="M210.3,99.2v-1.1l5.7-5.9c1.7-1.7,2.5-3.2,2.5-4.4c0-1-0.3-1.9-1-2.5s-1.5-0.9-2.5-0.9c-1.7,0-3,0.8-3.7,2.4
			l-1-0.6c0.5-0.9,1.1-1.7,1.9-2.2c0.8-0.5,1.8-0.7,2.8-0.7c1.3,0,2.4,0.4,3.3,1.2s1.4,1.9,1.4,3.3c0,0.9-0.3,1.8-0.8,2.6
			c-0.5,0.8-1.2,1.7-2.2,2.7l-4.8,5h8.1v1.1L210.3,99.2L210.3,99.2z"/>
	</g>
	<g>
		<path class="st2" d="M113.8,59.9v1.8c0,3.6-1.2,6.5-3.5,8.8c-2.4,2.3-5.5,3.4-9.3,3.4c-4,0-7.4-1.3-10-3.9
			c-2.6-2.6-3.9-5.8-3.9-9.6c0-3.8,1.3-7,3.9-9.6c2.6-2.6,5.9-3.9,9.8-3.9c2.4,0,4.7,0.6,6.7,1.7c2,1.1,3.6,2.6,4.7,4.5l-3.7,2.1
			c-0.7-1.2-1.7-2.2-3.1-3c-1.4-0.8-2.9-1.1-4.6-1.1c-2.7,0-5,0.9-6.8,2.7c-1.8,1.8-2.6,4-2.6,6.7c0,2.7,0.9,4.9,2.7,6.7
			c1.8,1.8,4.1,2.6,7,2.6c2.3,0,4.2-0.5,5.7-1.6s2.4-2.5,2.8-4.4h-8.7v-3.8L113.8,59.9L113.8,59.9z"/>
		<path class="st2" d="M132.3,54.7h4v18.7h-4v-2.7c-1.5,2.1-3.7,3.2-6.5,3.2c-2.6,0-4.8-1-6.6-2.9s-2.7-4.2-2.7-7
			c0-2.7,0.9-5.1,2.7-7c1.8-1.9,4-2.8,6.6-2.8c2.8,0,5,1,6.5,3.1V54.7L132.3,54.7z M122.2,68.3c1.1,1.1,2.5,1.7,4.2,1.7
			s3.1-0.6,4.2-1.7c1.1-1.1,1.7-2.6,1.7-4.3c0-1.7-0.6-3.1-1.7-4.3c-1.1-1.1-2.5-1.7-4.2-1.7c-1.7,0-3.1,0.6-4.2,1.7
			c-1.1,1.1-1.7,2.6-1.7,4.3C120.5,65.8,121,67.2,122.2,68.3z"/>
		<path class="st2" d="M161.4,54.2c2.1,0,3.8,0.7,5.1,2.1c1.3,1.4,1.9,3.2,1.9,5.5v11.6h-4V62.1c0-1.3-0.3-2.3-1-3s-1.5-1.1-2.7-1.1
			c-1.2,0-2.2,0.4-3,1.2c-0.7,0.8-1.1,2.1-1.1,3.7v10.5h-4V62.1c0-1.3-0.3-2.3-0.9-3c-0.6-0.7-1.5-1.1-2.6-1.1c-1.2,0-2.2,0.4-3,1.3
			s-1.2,2.1-1.2,3.7v10.5h-4V54.7h4v2.2c1.2-1.8,3-2.7,5.3-2.7c2.4,0,4.2,1,5.3,3C157,55.2,158.9,54.2,161.4,54.2L161.4,54.2z"/>
		<path class="st2" d="M176,65.8c0.3,1.4,1,2.5,2.1,3.3c1.1,0.8,2.4,1.1,3.9,1.1c2.1,0,3.7-0.8,4.8-2.3l3.3,1.9
			c-1.8,2.7-4.6,4.1-8.2,4.1c-3,0-5.5-0.9-7.4-2.8c-1.9-1.9-2.8-4.2-2.8-7c0-2.8,0.9-5.1,2.8-7c1.8-1.9,4.2-2.8,7.1-2.8
			c2.7,0,5,1,6.7,2.9c1.8,1.9,2.6,4.2,2.6,7c0,0.4,0,1-0.1,1.7L176,65.8L176,65.8z M175.9,62.5h11c-0.3-1.5-0.9-2.7-1.9-3.4
			c-1-0.8-2.1-1.2-3.5-1.2c-1.5,0-2.7,0.4-3.7,1.2C176.9,59.9,176.2,61,175.9,62.5L175.9,62.5z"/>
		<path class="st2" d="M198.4,51.1c-0.5,0.5-1.1,0.8-1.8,0.8s-1.3-0.3-1.8-0.8c-0.5-0.5-0.8-1.1-0.8-1.8c0-0.7,0.2-1.3,0.7-1.8
			c0.5-0.5,1.1-0.8,1.8-0.8s1.3,0.3,1.8,0.8c0.5,0.5,0.7,1.1,0.7,1.8S198.9,50.6,198.4,51.1z M194.5,73.4V54.7h4v18.7L194.5,73.4
			L194.5,73.4z"/>
		<path class="st2" d="M213.1,54.2c2.1,0,3.9,0.7,5.2,2.1c1.3,1.4,2,3.2,2,5.6v11.5h-4V62.3c0-1.4-0.4-2.5-1.1-3.2
			c-0.7-0.7-1.8-1.1-3.1-1.1c-1.4,0-2.6,0.4-3.4,1.3c-0.9,0.9-1.3,2.2-1.3,4.1v10h-4V54.7h4v2.4C208.5,55.2,210.4,54.2,213.1,54.2
			L213.1,54.2z"/>
	</g>
</g>
<g>
	<path class="st1" d="M22.3,172.5h6.5v3.2h-9.8v-17h3.3V172.5z"/>
	<path class="st1" d="M32,162.1c-0.5,0-1-0.2-1.3-0.6c-0.4-0.4-0.6-0.8-0.6-1.3s0.2-1,0.6-1.4s0.8-0.6,1.3-0.6c0.5,0,1,0.2,1.4,0.6
		c0.4,0.4,0.6,0.8,0.6,1.4s-0.2,1-0.6,1.3C33,161.9,32.6,162.1,32,162.1z M30.5,175.7v-12.1h3.1v12.1H30.5z"/>
	<path class="st1" d="M47.7,175.7H44l-4.4-5.5v5.5h-3.1v-17h3.1v10.2l4.2-5.4h3.7l-4.9,6L47.7,175.7z"/>
	<path class="st1" d="M51.9,170.9c0.4,1.5,1.6,2.3,3.4,2.3c1.2,0,2.1-0.4,2.7-1.2l2.5,1.5c-1.2,1.7-3,2.6-5.3,2.6
		c-2,0-3.6-0.6-4.8-1.8c-1.2-1.2-1.8-2.7-1.8-4.6c0-1.8,0.6-3.4,1.8-4.6c1.2-1.2,2.7-1.8,4.6-1.8c1.8,0,3.2,0.6,4.4,1.8
		c1.2,1.2,1.7,2.8,1.7,4.6c0,0.4,0,0.8-0.1,1.3H51.9z M51.8,168.5H58c-0.2-0.8-0.5-1.4-1.1-1.8S55.7,166,55,166
		c-0.8,0-1.5,0.2-2.1,0.6C52.4,167.1,52,167.7,51.8,168.5z"/>
	<path class="st1" d="M80.7,175.7l-1.1-3.1h-7l-1,3.1H68l5.9-17h4.2l6,17H80.7z M73.7,169.5h4.8l-2.5-6.9L73.7,169.5z"/>
	<path class="st1" d="M99.9,176c-2.6,0-4.7-0.8-6.3-2.5c-1.7-1.7-2.5-3.8-2.5-6.3c0-2.5,0.8-4.6,2.5-6.3c1.7-1.7,3.8-2.5,6.3-2.5
		c1.5,0,3,0.4,4.3,1.1c1.3,0.7,2.3,1.7,3,2.9l-2.9,1.7c-0.4-0.8-1-1.4-1.8-1.8c-0.8-0.4-1.7-0.6-2.6-0.6c-1.7,0-3,0.5-4,1.6
		c-1,1-1.5,2.4-1.5,4c0,1.6,0.5,3,1.5,4c1,1,2.3,1.6,4,1.6c1,0,1.8-0.2,2.6-0.6s1.4-1,1.8-1.8l2.9,1.7c-0.7,1.2-1.7,2.2-3,2.9
		C102.9,175.7,101.4,176,99.9,176z"/>
	<path class="st1" d="M116,163.2c1.3,0,2.4,0.4,3.3,1.3s1.3,2.1,1.3,3.7v7.5h-3.1v-7.1c0-0.8-0.2-1.4-0.7-1.9
		c-0.4-0.4-1-0.6-1.7-0.6c-0.8,0-1.5,0.3-1.9,0.8c-0.5,0.5-0.7,1.3-0.7,2.3v6.6h-3.1v-17h3.1v6.2C113.2,163.8,114.4,163.2,116,163.2
		z"/>
	<path class="st1" d="M132.5,163.6h3.1v12.1h-3.1v-1.4c-0.9,1.2-2.3,1.8-4,1.8c-1.6,0-3-0.6-4.2-1.9c-1.2-1.2-1.7-2.8-1.7-4.6
		c0-1.8,0.6-3.3,1.7-4.6s2.5-1.9,4.2-1.9c1.7,0,3,0.6,4,1.8V163.6z M126.7,172.1c0.6,0.6,1.4,1,2.4,1c1,0,1.8-0.3,2.4-1
		c0.6-0.6,1-1.5,1-2.5c0-1-0.3-1.8-1-2.5c-0.6-0.6-1.4-1-2.4-1c-1,0-1.8,0.3-2.4,1c-0.6,0.6-0.9,1.5-0.9,2.5
		C125.8,170.6,126.1,171.4,126.7,172.1z"/>
	<path class="st1" d="M151.9,163.2c1.4,0,2.5,0.5,3.3,1.4c0.8,0.9,1.2,2.1,1.2,3.6v7.5h-3.1v-7.3c0-0.7-0.2-1.3-0.5-1.7
		c-0.4-0.4-0.9-0.6-1.5-0.6c-0.7,0-1.3,0.2-1.7,0.7c-0.4,0.5-0.6,1.1-0.6,2v6.8h-3.1v-7.3c0-0.7-0.2-1.3-0.5-1.7
		c-0.4-0.4-0.9-0.6-1.5-0.6c-0.7,0-1.2,0.2-1.7,0.7c-0.4,0.5-0.6,1.1-0.6,2v6.8h-3.1v-12.1h3.1v1.3c0.7-1.1,1.9-1.6,3.4-1.6
		c1.5,0,2.6,0.6,3.3,1.7C149.1,163.8,150.3,163.2,151.9,163.2z"/>
	<path class="st1" d="M166.2,163.2c1.6,0,3,0.6,4.2,1.9c1.2,1.2,1.7,2.8,1.7,4.6c0,1.8-0.6,3.3-1.7,4.6c-1.2,1.2-2.6,1.9-4.2,1.9
		c-1.7,0-3-0.6-3.9-1.8v6.3h-3.1v-17h3.1v1.4C163.2,163.8,164.5,163.2,166.2,163.2z M163.3,172.1c0.6,0.6,1.4,1,2.4,1s1.8-0.3,2.4-1
		c0.6-0.6,1-1.5,1-2.5c0-1-0.3-1.8-1-2.5c-0.6-0.6-1.4-1-2.4-1s-1.8,0.3-2.4,1c-0.6,0.6-0.9,1.5-0.9,2.5
		C162.3,170.6,162.6,171.4,163.3,172.1z"/>
	<path class="st1" d="M175.9,162.1c-0.5,0-1-0.2-1.3-0.6c-0.4-0.4-0.6-0.8-0.6-1.3s0.2-1,0.6-1.4c0.4-0.4,0.8-0.6,1.3-0.6
		c0.5,0,1,0.2,1.4,0.6c0.4,0.4,0.6,0.8,0.6,1.4s-0.2,1-0.6,1.3C176.9,161.9,176.5,162.1,175.9,162.1z M174.4,175.7v-12.1h3.1v12.1
		H174.4z"/>
	<path class="st1" d="M190.7,174.2c-1.2,1.2-2.8,1.9-4.6,1.9s-3.3-0.6-4.6-1.9c-1.2-1.2-1.9-2.8-1.9-4.6c0-1.8,0.6-3.3,1.9-4.6
		c1.2-1.2,2.8-1.9,4.6-1.9s3.3,0.6,4.6,1.9c1.2,1.2,1.9,2.8,1.9,4.6C192.6,171.4,192,172.9,190.7,174.2z M183.8,172
		c0.6,0.6,1.4,0.9,2.3,0.9s1.7-0.3,2.4-0.9s0.9-1.4,0.9-2.4s-0.3-1.8-0.9-2.4c-0.6-0.6-1.4-0.9-2.4-0.9s-1.7,0.3-2.3,0.9
		c-0.6,0.6-0.9,1.4-0.9,2.4S183.2,171.4,183.8,172z"/>
	<path class="st1" d="M201.5,163.2c1.3,0,2.4,0.4,3.3,1.3c0.9,0.9,1.3,2.1,1.3,3.7v7.5H203v-7.1c0-0.8-0.2-1.4-0.7-1.9
		c-0.4-0.4-1-0.6-1.7-0.6c-0.8,0-1.5,0.3-1.9,0.8c-0.5,0.5-0.7,1.3-0.7,2.3v6.6h-3.1v-12.1h3.1v1.4
		C198.7,163.8,199.9,163.2,201.5,163.2z"/>
	<path class="st1" d="M212.1,175.4c-0.4,0.4-0.9,0.6-1.5,0.6c-0.6,0-1.1-0.2-1.5-0.6s-0.6-0.9-0.6-1.5c0-0.6,0.2-1.1,0.6-1.5
		c0.4-0.4,0.9-0.6,1.5-0.6c0.6,0,1.1,0.2,1.5,0.6c0.4,0.4,0.6,0.9,0.6,1.5C212.7,174.5,212.5,175,212.1,175.4z M209.4,170l-0.7-6.4
		v-4.9h3.8v4.9l-0.6,6.4H209.4z"/>
</g>
</svg>
