<?xml version="1.0" encoding="UTF-8"?><svg id="a" xmlns="http://www.w3.org/2000/svg" viewBox="0 0 128 128"><defs><style>.b{fill:#f4be18;}.c{fill:#fde10f;}.d{fill:#fed401;}</style></defs><circle class="d" cx="64" cy="64" r="56.6"/><circle class="b" cx="64" cy="64" r="45.3"/><path class="c" d="m83,38.1c.3,0,.7,0,1,0,.9,0,1.3.7.8,1.5-.3.6-.8,1.1-1.2,1.7-2.7,3.2-5.5,6.4-8.3,9.6-2.5,2.9-5.1,5.7-7.8,8.5-1.3,1.4-2.8,2.4-4.7,2.7-2.2.4-4.2-.3-5.9-1.7-1.1-.8-1.7-1.9-2.4-3.1-2.2-3.7-4.4-7.4-6.5-11.1-.9-1.6-1.8-3.3-2.7-4.9,0,0,0-.2-.1-.3-.6-1.3-.2-1.9,1.2-2,4.9-.2,9.7-.3,14.6-.5,4.3-.1,8.6-.3,12.9-.4,3,0,6.1-.1,9.1-.2,0,0,0,0,0,0Z"/><path class="c" d="m75.7,91.2c-.8-.2-1.9-.3-2.9-.6-2.1-.5-4.2-1-6.3-1.5-2.5-.6-5.1-1.2-7.6-1.8-3-.7-5.9-1.4-8.9-2.2-.4-.1-.9-.2-1.3-.4-1.1-.5-1.4-1.3-.9-2.4.7-1.4,1.3-2.8,2-4.1,1.2-2.3,2.3-4.6,3.5-6.8.8-1.5,1.7-3,2.8-4.3,2-2.5,5.4-2.6,7.5-.2.8.9,1.4,1.9,2.1,2.9,1.4,2.3,2.7,4.7,4.1,7.1,2.2,3.8,4.5,7.7,6.7,11.5.2.4.4.7.5,1.1.4,1-.1,1.8-1.4,1.7Z"/></svg>