<svg xmlns="http://www.w3.org/2000/svg" viewBox="0 0 128 128" xmlns:v="https://vecta.io/nano"><circle cx="64" cy="64" r="56.6" fill="#fed401"/><circle cx="64" cy="64" r="45.3" fill="#f4be18"/><path d="M83 38.1h1c.9 0 1.3.7.8 1.5-.3.6-.8 1.1-1.2 1.7l-8.3 9.6c-2.5 2.9-5.1 5.7-7.8 8.5-1.3 1.4-2.8 2.4-4.7 2.7-2.2.4-4.2-.3-5.9-1.7-1.1-.8-1.7-1.9-2.4-3.1L48 46.2l-2.7-4.9s0-.2-.1-.3c-.6-1.3-.2-1.9 1.2-2l14.6-.5 12.9-.4c3 0 6.1-.1 9.1-.2zm-7.3 53.1l-2.9-.6-6.3-1.5-7.6-1.8-8.9-2.2c-.4-.1-.9-.2-1.3-.4-1.1-.5-1.4-1.3-.9-2.4l2-4.1 3.5-6.8c.8-1.5 1.7-3 2.8-4.3 2-2.5 5.4-2.6 7.5-.2.8.9 1.4 1.9 2.1 2.9l4.1 7.1 6.7 11.5c.2.4.4.7.5 1.1.4 1-.1 1.8-1.4 1.7z" fill="#fde10f"/></svg>