<?xml version="1.0" encoding="utf-8"?>
<!-- Generator: Adobe Illustrator 27.3.1, SVG Export Plug-In . SVG Version: 6.00 Build 0)  -->
<svg version="1.1" id="Layer_1" xmlns="http://www.w3.org/2000/svg" xmlns:xlink="http://www.w3.org/1999/xlink" x="0px" y="0px"
	 viewBox="0 0 320 112" style="enable-background:new 0 0 320 112;" xml:space="preserve">
<style type="text/css">
	.st0{fill:url(#SVGID_1_);}
	.st1{clip-path:url(#SVGID_00000183223752573026442240000002066667420316520377_);}
	.st2{fill:#FFFFFF;}
	.st3{fill:#FFFFFF;stroke:#FFFFFF;stroke-width:0.5;stroke-miterlimit:10;}
</style>
<g>
	
		<linearGradient id="SVGID_1_" gradientUnits="userSpaceOnUse" x1="160" y1="111.8898" x2="160" y2="7.8898" gradientTransform="matrix(1 0 0 -1 0 111.8898)">
		<stop  offset="0" style="stop-color:#D63F26"/>
		<stop  offset="1" style="stop-color:#A5262D"/>
	</linearGradient>
	<path class="st0" d="M4,0h312l-56.1,98.9c-1.8,3.1-5.1,5.1-8.7,5.1H69.7c-3.6,0-6.9-1.9-8.7-5L4,0z"/>
</g>
<g>
	<g>
		<defs>
			<rect id="SVGID_00000089552715384729816880000000556947950046558362_" x="97" y="19.9" width="49" height="64"/>
		</defs>
		<clipPath id="SVGID_00000127045690602568160220000002282020387081760163_">
			<use xlink:href="#SVGID_00000089552715384729816880000000556947950046558362_"  style="overflow:visible;"/>
		</clipPath>
		<g style="clip-path:url(#SVGID_00000127045690602568160220000002282020387081760163_);">
			<path class="st2" d="M143.4,19.9c0.4,0,0.8,0,1.2,0c1.1,0,1.6,0.8,1.1,1.8c-0.4,0.7-0.9,1.4-1.4,2c-3.2,4-6.4,8-9.6,11.9
				c-3,3.6-6,7.1-9.1,10.6c-1.5,1.7-3.3,3-5.6,3.5c-2.7,0.6-5.1-0.2-7.4-1.7c-1.3-0.9-2.2-2.3-3.1-3.6c-2.9-4.3-5.7-8.6-8.5-12.9
				c-1.2-1.9-2.4-3.8-3.6-5.8c-0.1-0.1-0.1-0.2-0.2-0.3c-0.7-1.5-0.3-2.3,1.4-2.4c5.9-0.4,11.9-0.9,17.8-1.3
				c5.3-0.4,10.5-0.8,15.7-1.1C136,20.3,139.7,20.1,143.4,19.9L143.4,19.9z"/>
			<path class="st2" d="M137.2,83.9c-1-0.2-2.3-0.3-3.5-0.5c-2.6-0.5-5.2-1-7.8-1.5c-3.1-0.6-6.2-1.2-9.4-1.8
				c-3.7-0.7-7.3-1.4-11-2.2c-0.6-0.1-1.1-0.2-1.6-0.4c-1.3-0.5-1.8-1.5-1.2-2.8c0.7-1.7,1.5-3.4,2.3-5.1c1.3-2.8,2.5-5.6,3.9-8.3
				c0.9-1.8,2-3.6,3.2-5.3c2.3-3.1,6.4-3.4,9.2-0.6c1,1,1.9,2.2,2.7,3.4c1.8,2.7,3.6,5.5,5.4,8.3c2.9,4.5,5.8,9,8.8,13.5
				c0.3,0.4,0.5,0.8,0.7,1.3C139.4,82.9,138.8,83.9,137.2,83.9z"/>
		</g>
	</g>
	<g id="Layer_1-2">
		<g>
			<path class="st3" d="M196.1,68.6v-0.6l3.3-3.4c1-1,1.4-1.8,1.4-2.5c0-0.6-0.2-1.1-0.6-1.4s-0.9-0.5-1.4-0.5c-1,0-1.7,0.5-2.1,1.4
				l-0.6-0.3c0.3-0.5,0.6-1,1.1-1.3c0.5-0.3,1-0.4,1.6-0.4c0.7,0,1.4,0.2,1.9,0.7c0.5,0.5,0.8,1.1,0.8,1.9c0,0.5-0.2,1-0.5,1.5
				c-0.3,0.5-0.7,1-1.3,1.5l-2.7,2.9h4.6v0.6H196.1L196.1,68.6z"/>
			<path class="st3" d="M208.6,67.5c-0.6,0.9-1.4,1.3-2.5,1.3s-1.9-0.4-2.5-1.3c-0.6-0.9-0.9-1.9-0.9-3.4c0-1.4,0.3-2.5,0.9-3.4
				c0.6-0.9,1.4-1.3,2.5-1.3s1.9,0.4,2.5,1.3c0.6,0.9,0.9,1.9,0.9,3.4C209.5,65.5,209.2,66.6,208.6,67.5z M204.2,67
				c0.5,0.7,1.1,1,1.9,1c0.9,0,1.5-0.3,1.9-1c0.5-0.7,0.7-1.7,0.7-2.9c0-1.3-0.2-2.2-0.7-2.9c-0.5-0.7-1.1-1-1.9-1
				c-0.9,0-1.5,0.3-1.9,1s-0.7,1.7-0.7,2.9C203.5,65.4,203.7,66.3,204.2,67z"/>
			<path class="st3" d="M210.6,68.6v-0.6l3.3-3.4c1-1,1.4-1.8,1.4-2.5c0-0.6-0.2-1.1-0.6-1.4c-0.4-0.3-0.9-0.5-1.4-0.5
				c-1,0-1.7,0.5-2.1,1.4l-0.6-0.3c0.3-0.5,0.6-1,1.1-1.3s1-0.4,1.6-0.4c0.7,0,1.4,0.2,1.9,0.7c0.5,0.5,0.8,1.1,0.8,1.9
				c0,0.5-0.2,1-0.5,1.5c-0.3,0.5-0.7,1-1.3,1.5l-2.7,2.9h4.6v0.6H210.6L210.6,68.6z"/>
			<path class="st3" d="M217.3,68.6v-0.6l3.3-3.4c1-1,1.4-1.8,1.4-2.5c0-0.6-0.2-1.1-0.6-1.4c-0.4-0.3-0.9-0.5-1.4-0.5
				c-1,0-1.7,0.5-2.1,1.4l-0.6-0.3c0.3-0.5,0.6-1,1.1-1.3s1-0.4,1.6-0.4c0.7,0,1.4,0.2,1.9,0.7s0.8,1.1,0.8,1.9c0,0.5-0.2,1-0.5,1.5
				c-0.3,0.5-0.7,1-1.3,1.5l-2.7,2.9h4.6v0.6H217.3L217.3,68.6z"/>
		</g>
		<g>
			<path class="st3" d="M162,46.1v1c0,2.1-0.7,3.7-2,5c-1.4,1.3-3.1,1.9-5.3,1.9c-2.3,0-4.2-0.7-5.7-2.2c-1.5-1.5-2.2-3.3-2.2-5.5
				c0-2.2,0.7-4,2.2-5.5c1.5-1.5,3.4-2.2,5.6-2.2c1.4,0,2.7,0.3,3.8,1s2.1,1.5,2.7,2.6l-2.1,1.2c-0.4-0.7-1-1.3-1.8-1.7
				c-0.8-0.5-1.7-0.6-2.6-0.6c-1.5,0-2.9,0.5-3.9,1.5s-1.5,2.3-1.5,3.8c0,1.5,0.5,2.8,1.5,3.8c1,1,2.3,1.5,4,1.5
				c1.3,0,2.4-0.3,3.3-0.9s1.4-1.4,1.6-2.5h-5v-2.2L162,46.1L162,46.1z"/>
			<path class="st3" d="M172.6,43.1h2.3v10.7h-2.3v-1.5c-0.9,1.2-2.1,1.8-3.7,1.8c-1.5,0-2.7-0.6-3.8-1.7c-1-1.1-1.5-2.4-1.5-4
				c0-1.5,0.5-2.9,1.5-4c1-1.1,2.3-1.6,3.8-1.6c1.6,0,2.9,0.6,3.7,1.8V43.1L172.6,43.1z M166.8,50.9c0.6,0.6,1.4,1,2.4,1
				s1.8-0.3,2.4-1c0.6-0.6,1-1.5,1-2.5s-0.3-1.8-1-2.5c-0.6-0.6-1.4-1-2.4-1s-1.8,0.3-2.4,1s-1,1.5-1,2.5
				C165.9,49.4,166.2,50.2,166.8,50.9z"/>
			<path class="st3" d="M189.3,42.8c1.2,0,2.2,0.4,2.9,1.2c0.7,0.8,1.1,1.8,1.1,3.1v6.6H191v-6.5c0-0.7-0.2-1.3-0.6-1.7
				c-0.4-0.4-0.9-0.6-1.5-0.6s-1.3,0.2-1.7,0.7c-0.4,0.5-0.6,1.2-0.6,2.1v6h-2.3v-6.5c0-0.7-0.2-1.3-0.5-1.7
				c-0.3-0.4-0.9-0.6-1.5-0.6c-0.7,0-1.3,0.2-1.7,0.7c-0.5,0.5-0.7,1.2-0.7,2.1v6h-2.3V43.1h2.3v1.3c0.7-1,1.7-1.5,3-1.5
				c1.4,0,2.4,0.6,3,1.7C186.8,43.4,187.9,42.8,189.3,42.8L189.3,42.8z"/>
			<path class="st3" d="M197.7,49.4c0.2,0.8,0.6,1.4,1.2,1.9c0.6,0.5,1.4,0.6,2.2,0.6c1.2,0,2.1-0.5,2.7-1.3l1.9,1.1
				c-1,1.5-2.6,2.3-4.7,2.3c-1.7,0-3.1-0.5-4.2-1.6c-1.1-1.1-1.6-2.4-1.6-4c0-1.6,0.5-2.9,1.6-4c1-1.1,2.4-1.6,4.1-1.6
				c1.5,0,2.9,0.6,3.8,1.7c1,1.1,1.5,2.4,1.5,4c0,0.2,0,0.6-0.1,1L197.7,49.4L197.7,49.4z M197.6,47.6h6.3c-0.2-0.9-0.5-1.5-1.1-1.9
				c-0.6-0.5-1.2-0.7-2-0.7c-0.9,0-1.5,0.2-2.1,0.7C198.2,46.1,197.8,46.7,197.6,47.6L197.6,47.6z"/>
			<path class="st3" d="M210.5,41c-0.3,0.3-0.6,0.5-1,0.5s-0.7-0.2-1-0.5s-0.5-0.6-0.5-1s0.1-0.7,0.4-1c0.3-0.3,0.6-0.5,1-0.5
				c0.4,0,0.7,0.2,1,0.5c0.3,0.3,0.4,0.6,0.4,1S210.8,40.7,210.5,41z M208.2,53.8V43.1h2.3v10.7H208.2L208.2,53.8z"/>
			<path class="st3" d="M218.9,42.8c1.2,0,2.2,0.4,3,1.2c0.7,0.8,1.1,1.8,1.1,3.2v6.6h-2.3v-6.4c0-0.8-0.2-1.4-0.6-1.8
				c-0.4-0.4-1-0.6-1.8-0.6c-0.8,0-1.5,0.2-1.9,0.7c-0.5,0.5-0.7,1.3-0.7,2.3v5.7h-2.3V43.1h2.3v1.4
				C216.3,43.4,217.4,42.8,218.9,42.8L218.9,42.8z"/>
		</g>
	</g>
</g>
</svg>
