<?xml version="1.0" encoding="UTF-8"?><svg id="a" xmlns="http://www.w3.org/2000/svg" xmlns:xlink="http://www.w3.org/1999/xlink" viewBox="0 0 128 128"><defs><style>.h{fill:#6ab08b;}.i{fill:none;stroke:#fff;stroke-miterlimit:10;stroke-width:5px;}.j{filter:url(#f);}.k{fill:#78c79d;}.l{fill:#f1f2f2;}.m{filter:url(#d);}.n{fill:#1c75bc;}</style><filter id="b" filterUnits="userSpaceOnUse"><feOffset dx="2" dy="2"/><feGaussianBlur result="c" stdDeviation="10"/><feFlood flood-color="#252512" flood-opacity=".3"/><feComposite in2="c" operator="in"/><feComposite in="SourceGraphic"/></filter><filter id="d" filterUnits="userSpaceOnUse"><feOffset dx="2" dy="2"/><feGaussianBlur result="e" stdDeviation="10"/><feFlood flood-color="#252512" flood-opacity=".3"/><feComposite in2="e" operator="in"/><feComposite in="SourceGraphic"/></filter><filter id="f" filterUnits="userSpaceOnUse"><feOffset dx="2" dy="2"/><feGaussianBlur result="g" stdDeviation="10"/><feFlood flood-color="#252512" flood-opacity=".3"/><feComposite in2="g" operator="in"/><feComposite in="SourceGraphic"/></filter></defs><circle class="n" cx="64" cy="64" r="59.5"/><circle class="i" cx="64" cy="64" r="51.3"/><g class="m"><rect class="h" x="118.2" y="-129.4" width="336.5" height="153.2" rx="19.4" ry="19.4" transform="translate(553.4 63.9) rotate(-145.9)"/></g><g class="j"><rect class="k" x="122.7" y="-110.3" width="336.5" height="153.2" rx="12.7" ry="12.7" transform="translate(560.6 80.8) rotate(-150.4)"/></g><path class="l" d="m61.8,77c-3.1,0-5.2-3.2-3.9-6s.7-1.3,1.1-1.9c1.7-2.5,3.5-4.5,5.4-6.1,1.9-1.5,3.7-3.3,5.4-5.4,1.7-2.1,2.5-4.1,2.5-6.2s-.8-3.9-2.3-5.1-3.6-1.8-6.3-1.8c-4,0-7.1,1.6-9.3,4.8s-3.7,2.5-5.7,1.4l-3.8-2.2c-2.1-1.2-2.8-3.9-1.5-6s4.1-5.1,7-6.8c4.1-2.5,8.7-3.8,13.8-3.8s10.6,1.6,14.8,4.9c4.2,3.3,6.3,7.8,6.3,13.6s-.5,5.1-1.6,7.3c-1.1,2.3-2.4,4.2-3.9,5.8-1.5,1.6-3.1,3.1-4.6,4.5-1.5,1.4-2.9,2.9-3.9,4.4-.5.6-.8,1.3-1.1,1.9-.7,1.6-2.3,2.6-4.1,2.6h-4.2Z"/><path class="l" d="m72.2,100c-.5,0-1.1-.2-1.7-.3-1.2-.2-2.5-.5-3.7-.7-1.5-.3-3-.6-4.5-.9-1.7-.3-3.5-.7-5.2-1.1-.3,0-.5-.1-.8-.2-.6-.2-.9-.8-.6-1.4.4-.8.7-1.7,1.1-2.5.6-1.4,1.2-2.7,1.9-4.1.4-.9.9-1.8,1.5-2.6,1.1-1.5,3.1-1.7,4.4-.3.5.5.9,1.1,1.3,1.6.9,1.3,1.7,2.7,2.6,4,1.4,2.2,2.8,4.4,4.2,6.6.1.2.2.4.3.6.3.6,0,1.1-.8,1.1Z"/></svg>