<?xml version="1.0" encoding="UTF-8"?><svg id="Layer_2" xmlns="http://www.w3.org/2000/svg" viewBox="0 0 463.34 290.03"><defs><style>.cls-1{fill:#231f20;}</style></defs><g id="Layer_1-2"><path class="cls-1" d="M439.34,.04c3.89,0,7.79-.11,11.68,.02,10.48,.34,15.34,7.86,10.35,17.22-3.73,6.99-8.58,13.47-13.5,19.73-30.23,38.5-60.22,77.2-91.07,115.2-28,34.5-56.61,68.53-85.72,102.1-14.11,16.27-31.17,29.05-53.04,33.82-25.85,5.63-48.56-1.58-69.55-16.42-12.71-8.99-21.07-21.74-29.33-34.39-27.09-41.51-53.94-83.18-80.53-125.01-11.65-18.32-22.45-37.19-33.62-55.81-.63-1.05-1.22-2.14-1.75-3.25C-3.74,38.87,.49,31.15,16.32,29.96c56.18-4.22,112.36-8.36,168.55-12.47,49.65-3.63,99.29-7.32,148.95-10.72,35.16-2.41,70.34-4.41,105.51-6.59V.04Z"/></g></svg>