<svg width="153" height="227" viewBox="0 0 153 227" fill="none" xmlns="http://www.w3.org/2000/svg">
<g clip-path="url(#clip0_3145_4858)">
<path d="M76.534 66.9354C76.4782 66.9354 76.2054 66.9354 76.2054 66.5296V33.1692C76.2054 32.8003 76.4534 32.7695 76.5278 32.7695C76.6022 32.7695 76.8564 32.7695 76.8564 33.1692V66.5296C76.865 66.6381 76.8317 66.7457 76.7635 66.8309C76.7353 66.8639 76.7001 66.8904 76.6605 66.9085C76.6208 66.9265 76.5777 66.9357 76.534 66.9354Z" fill="#017B3E"/>
<path d="M76.534 16.0162C76.4782 16.0162 76.2054 16.0162 76.2054 15.6166V0.399638C76.2054 0.024594 76.4534 0 76.5278 0C76.6022 0 76.8564 9.52809e-07 76.8564 0.399638V15.6166C76.864 15.7231 76.8308 15.8284 76.7635 15.9117C76.7353 15.9447 76.7001 15.9712 76.6605 15.9893C76.6208 16.0073 76.5777 16.0165 76.534 16.0162Z" fill="#017B3E"/>
<path d="M46.1536 90.454C46.0939 90.4492 46.0374 90.4255 45.9924 90.3863L24.4594 73.7123C24.3948 73.6602 24.3469 73.5906 24.3216 73.512C24.2962 73.4334 24.2946 73.3491 24.3168 73.2696C24.354 73.0851 24.4718 72.8945 24.6206 72.8945C24.6803 72.8993 24.7368 72.9231 24.7818 72.9622L46.3148 89.6424C46.3795 89.6929 46.4277 89.7614 46.4531 89.8391C46.4784 89.9169 46.48 90.0003 46.4574 90.0789C46.4202 90.2634 46.3024 90.454 46.1536 90.454Z" fill="#017B3E"/>
<path d="M13.293 64.9924C13.2355 64.9914 13.1804 64.9695 13.138 64.9309L3.31082 57.3194C3.24607 57.2688 3.19795 57.2004 3.17256 57.1226C3.14717 57.0449 3.14566 56.9614 3.16823 56.8829C3.20543 56.6984 3.32943 56.5078 3.47823 56.5078C3.53484 56.5129 3.58872 56.5343 3.63324 56.5693L13.4604 64.1808C13.5246 64.2331 13.5717 64.303 13.596 64.3818C13.6203 64.4605 13.6205 64.5446 13.5968 64.6235C13.5658 64.8018 13.4418 64.9924 13.293 64.9924Z" fill="#017B3E"/>
<path d="M24.6454 154.094C24.4966 154.094 24.3788 153.904 24.3416 153.725C24.3186 153.646 24.3198 153.561 24.3452 153.483C24.3706 153.404 24.419 153.334 24.4842 153.283L46.0172 136.603C46.0626 136.565 46.1193 136.543 46.1784 136.541C46.3272 136.541 46.445 136.732 46.4822 136.91C46.5053 136.989 46.504 137.074 46.4786 137.153C46.4533 137.232 46.4049 137.301 46.3396 137.353L24.8066 154.033C24.7613 154.07 24.7046 154.092 24.6454 154.094Z" fill="#017B3E"/>
<path d="M3.4907 170.485C3.3419 170.485 3.2179 170.288 3.1869 170.11C3.1623 170.031 3.16214 169.947 3.18646 169.868C3.21078 169.789 3.25846 169.719 3.3233 169.667L13.1505 162.062C13.1925 162.022 13.2474 161.998 13.3055 161.994C13.4543 161.994 13.5721 162.185 13.6093 162.369C13.6322 162.448 13.6315 162.532 13.6073 162.611C13.5831 162.689 13.5364 162.759 13.4729 162.812L3.6457 170.417C3.60307 170.456 3.54852 170.48 3.4907 170.485Z" fill="#017B3E"/>
<path d="M76.534 194.224C76.4782 194.224 76.2054 194.224 76.2054 193.819V160.458C76.2054 160.089 76.4534 160.059 76.5278 160.059C76.6022 160.059 76.8564 160.059 76.8564 160.458V193.819C76.8638 193.927 76.8307 194.034 76.7634 194.12C76.7343 194.152 76.6989 194.177 76.6595 194.195C76.6201 194.213 76.5774 194.223 76.534 194.224Z" fill="#017B3E"/>
<path d="M76.534 226.993C76.4782 226.993 76.2054 226.993 76.2054 226.593V211.376C76.2054 211.001 76.4534 210.971 76.5278 210.971C76.6022 210.971 76.8564 210.971 76.8564 211.376V226.593C76.864 226.7 76.8308 226.805 76.7635 226.889C76.7353 226.922 76.7001 226.948 76.6605 226.966C76.6208 226.984 76.5777 226.993 76.534 226.993Z" fill="#017B3E"/>
<path d="M128.355 154.094C128.295 154.092 128.239 154.07 128.193 154.033L106.66 137.353C106.595 137.302 106.546 137.232 106.52 137.153C106.495 137.074 106.494 136.989 106.518 136.91C106.555 136.732 106.673 136.541 106.822 136.541C106.881 136.543 106.937 136.565 106.983 136.603L128.516 153.283C128.58 153.335 128.628 153.404 128.654 153.483C128.679 153.562 128.681 153.646 128.658 153.725C128.621 153.904 128.503 154.094 128.355 154.094Z" fill="#017B3E"/>
<path d="M149.509 170.485C149.451 170.48 149.397 170.456 149.354 170.417L139.527 162.812C139.464 162.759 139.417 162.689 139.393 162.611C139.368 162.532 139.368 162.448 139.391 162.369C139.428 162.191 139.546 161.994 139.695 161.994C139.753 161.998 139.807 162.022 139.85 162.062L149.695 169.667C149.76 169.719 149.808 169.789 149.833 169.867C149.858 169.946 149.86 170.03 149.838 170.11C149.801 170.288 149.677 170.485 149.528 170.485H149.509Z" fill="#017B3E"/>
<path d="M106.822 90.454C106.673 90.454 106.555 90.2634 106.518 90.0789C106.495 90.0003 106.497 89.9169 106.522 89.8391C106.547 89.7614 106.596 89.6929 106.66 89.6424L128.193 72.9622C128.238 72.9231 128.295 72.8993 128.354 72.8945C128.503 72.8945 128.621 73.0851 128.658 73.2696C128.681 73.3491 128.679 73.4334 128.654 73.512C128.628 73.5906 128.58 73.6602 128.516 73.7123L106.983 90.4109C106.938 90.45 106.881 90.4738 106.822 90.4786V90.454Z" fill="#017B3E"/>
<path d="M139.695 64.9932C139.546 64.9932 139.428 64.8026 139.391 64.6243C139.367 64.5454 139.367 64.4613 139.392 64.3826C139.416 64.3038 139.463 64.2339 139.527 64.1816L149.354 56.5947C149.397 56.557 149.452 56.5353 149.509 56.5332C149.658 56.5332 149.782 56.7238 149.813 56.9021C149.839 56.9809 149.839 57.0655 149.815 57.1446C149.79 57.2237 149.742 57.2936 149.677 57.3448L139.85 64.9563C139.807 64.9949 139.752 65.0168 139.695 65.0178V64.9932Z" fill="#017B3E"/>
<path d="M52.6823 151.56C52.606 151.549 52.5345 151.516 52.4762 151.466C52.418 151.416 52.3755 151.351 52.3537 151.277C52.328 151.211 52.319 151.139 52.3277 151.068C52.3363 150.997 52.3623 150.93 52.4033 150.871L59.459 139.712C59.521 139.608 59.5892 139.559 59.6698 139.559C59.7492 139.573 59.8228 139.61 59.882 139.664C59.9413 139.719 59.9838 139.789 60.0046 139.866C60.0275 139.933 60.0343 140.005 60.0247 140.075C60.015 140.146 59.989 140.213 59.9488 140.272L52.8931 151.431C52.872 151.468 52.8416 151.5 52.8047 151.523C52.7678 151.545 52.7256 151.558 52.6823 151.56Z" fill="#017B3E"/>
<path d="M26.4372 193.086C26.3585 193.073 26.2853 193.038 26.2269 192.985C26.1684 192.931 26.1272 192.861 26.1086 192.785C26.0828 192.718 26.0739 192.646 26.0825 192.576C26.0912 192.505 26.1172 192.437 26.1582 192.379L47.3254 158.901C47.344 158.86 47.3734 158.825 47.4105 158.799C47.4475 158.773 47.4909 158.758 47.5362 158.754C47.6148 158.766 47.688 158.802 47.7465 158.855C47.805 158.909 47.8461 158.978 47.8648 159.055C47.8905 159.122 47.8995 159.193 47.8908 159.264C47.8822 159.335 47.8562 159.402 47.8152 159.461L26.648 192.938C26.6293 192.979 26.5999 193.015 26.5629 193.041C26.5258 193.066 26.4824 193.082 26.4372 193.086Z" fill="#017B3E"/>
<path d="M88.8909 160.39C88.7607 160.39 88.6739 160.304 88.6243 160.126L84.9477 146.36C84.9241 146.306 84.912 146.247 84.912 146.188C84.912 146.129 84.9241 146.07 84.9477 146.016C84.976 145.955 85.0205 145.904 85.0762 145.867C85.132 145.83 85.1969 145.809 85.2639 145.807C85.3941 145.807 85.4809 145.893 85.5305 146.071L89.2071 159.843C89.2308 159.899 89.2431 159.958 89.2431 160.018C89.2431 160.079 89.2308 160.138 89.2071 160.194C89.1788 160.254 89.1343 160.305 89.0786 160.342C89.0228 160.379 88.9579 160.4 88.8909 160.403V160.39Z" fill="#017B3E"/>
<path d="M102.575 211.635C102.438 211.635 102.351 211.543 102.308 211.364L91.278 170.042C91.2543 169.986 91.2421 169.927 91.2421 169.867C91.2421 169.806 91.2543 169.747 91.278 169.691C91.3074 169.632 91.3521 169.581 91.4077 169.545C91.4632 169.508 91.5276 169.486 91.5942 169.482C91.7244 169.482 91.8112 169.575 91.8608 169.753L102.891 211.075C102.935 211.188 102.935 211.313 102.891 211.426C102.861 211.485 102.817 211.536 102.761 211.573C102.706 211.609 102.641 211.631 102.575 211.635Z" fill="#017B3E"/>
<path d="M112.792 122.689H112.724L101.992 120.07C101.75 120.014 101.738 119.738 101.75 119.627C101.762 119.516 101.831 119.209 102.035 119.209H102.103L112.836 121.822C113.077 121.883 113.09 122.154 113.078 122.271C113.065 122.388 112.997 122.683 112.792 122.683V122.689Z" fill="#017B3E"/>
<path d="M152.715 132.427H152.64L120.449 124.576C120.208 124.52 120.195 124.244 120.208 124.133C120.22 124.022 120.288 123.715 120.493 123.715H120.561L152.758 131.566C153 131.622 153.006 131.898 153 132.009C152.994 132.12 152.919 132.427 152.715 132.427Z" fill="#017B3E"/>
<path d="M93.3302 87.2738C93.2515 87.2614 93.1783 87.2261 93.1198 87.1725C93.0613 87.1189 93.0202 87.0493 93.0016 86.9725C92.9758 86.9049 92.9668 86.8322 92.9755 86.7605C92.9841 86.6888 93.0101 86.6202 93.0512 86.5606L100.094 75.4076C100.156 75.3031 100.225 75.2539 100.305 75.2539C100.384 75.2674 100.458 75.3029 100.517 75.3563C100.576 75.4096 100.619 75.4786 100.64 75.5552C100.663 75.6235 100.67 75.6961 100.66 75.7675C100.651 75.8389 100.625 75.9072 100.584 75.9671L93.5286 87.1262C93.5099 87.1672 93.4805 87.2025 93.4434 87.2285C93.4064 87.2544 93.363 87.2701 93.3178 87.2738H93.3302Z" fill="#017B3E"/>
<path d="M105.464 68.0861C105.385 68.0718 105.312 68.0351 105.254 67.9806C105.195 67.926 105.154 67.8559 105.135 67.7787C105.109 67.7122 105.101 67.6404 105.109 67.5697C105.118 67.4989 105.144 67.4314 105.185 67.3729L126.352 33.9018C126.414 33.7972 126.482 33.748 126.563 33.748C126.641 33.7604 126.715 33.7957 126.773 33.8493C126.832 33.9029 126.873 33.9725 126.891 34.0493C126.917 34.1169 126.926 34.1896 126.917 34.2613C126.909 34.333 126.883 34.4016 126.842 34.4612L105.675 67.9324C105.613 68.0369 105.544 68.0861 105.464 68.0861Z" fill="#017B3E"/>
<path d="M67.7113 81.0287C67.5811 81.0287 67.4943 80.9427 67.4447 80.7582L63.7681 66.9861C63.7444 66.9307 63.7322 66.8711 63.7322 66.8109C63.7322 66.7507 63.7444 66.6911 63.7681 66.6357C63.8021 66.5698 63.855 66.5155 63.92 66.4794C63.9851 66.4433 64.0595 66.427 64.1339 66.4328C64.2641 66.4328 64.3509 66.5188 64.4005 66.7033L68.0772 80.4754C68.1009 80.5308 68.1131 80.5904 68.1131 80.6506C68.1131 80.7108 68.1009 80.7704 68.0772 80.8258C68.0477 80.8853 68.003 80.9359 67.9475 80.9726C67.8919 81.0093 67.8276 81.0308 67.761 81.0349L67.7113 81.0287Z" fill="#017B3E"/>
<path d="M61.3873 57.3319C61.2571 57.3319 61.1703 57.2458 61.1207 57.0675L50.0907 15.745C50.0461 15.6324 50.0461 15.5072 50.0907 15.3946C50.1196 15.3348 50.1642 15.2838 50.2198 15.247C50.2755 15.2102 50.3401 15.189 50.4069 15.1855C50.5371 15.1855 50.6301 15.2716 50.6735 15.4499L61.7035 56.7724C61.7272 56.8278 61.7394 56.8874 61.7394 56.9476C61.7394 57.0078 61.7272 57.0674 61.7035 57.1228C61.6751 57.1831 61.6307 57.2344 61.5749 57.2713C61.5191 57.3081 61.4542 57.3291 61.3873 57.3319Z" fill="#017B3E"/>
<path d="M50.9648 107.624H50.8966L40.1642 105.005C39.9224 104.944 39.91 104.673 39.9224 104.556C39.9348 104.44 40.003 104.145 40.2076 104.145H40.2758L51.0082 106.764C51.25 106.825 51.2624 107.096 51.25 107.213C51.2376 107.329 51.1694 107.624 50.9648 107.624Z" fill="#017B3E"/>
<path d="M32.5133 103.113H32.4451L0.272787 95.2553C0.0309825 95.1938 0.0247733 94.9233 0.0309734 94.8065C0.0371735 94.6896 0.111588 94.3945 0.316192 94.3945H0.39059L32.5815 102.246C32.8233 102.307 32.8357 102.578 32.8233 102.695C32.8109 102.812 32.7427 103.107 32.5381 103.107L32.5133 103.113Z" fill="#017B3E"/>
<path d="M58.9816 85.7746C58.9348 85.7708 58.89 85.7545 58.8518 85.7274C58.8136 85.7004 58.7835 85.6636 58.7646 85.6209L37.4735 51.4981C37.4343 51.4388 37.4094 51.3713 37.4008 51.3009C37.3922 51.2305 37.4001 51.1592 37.4239 51.0923C37.4451 51.0157 37.4878 50.9467 37.5471 50.8934C37.6064 50.84 37.6798 50.8045 37.7587 50.791C37.8039 50.7947 37.8473 50.8104 37.8844 50.8363C37.9214 50.8622 37.9508 50.8976 37.9695 50.9386L59.2358 85.0676C59.2754 85.1267 59.3006 85.1942 59.3092 85.2646C59.3178 85.3351 59.3096 85.4066 59.2854 85.4734C59.2667 85.546 59.2286 85.6123 59.1751 85.6653C59.1217 85.7183 59.0548 85.756 58.9816 85.7746Z" fill="#017B3E"/>
<path d="M33.2387 44.4634C33.1581 44.4634 33.0899 44.4142 33.0217 44.3097L28.2662 36.6797C28.2265 36.6195 28.2014 36.5509 28.1928 36.4795C28.1842 36.408 28.1923 36.3356 28.2166 36.2678C28.2383 36.1932 28.2806 36.126 28.3386 36.0739C28.3967 36.0218 28.4682 35.9867 28.5452 35.9727C28.5912 35.9765 28.6353 35.9922 28.6734 36.018C28.7114 36.0439 28.742 36.0791 28.7622 36.1202L33.5177 43.7564C33.5587 43.8148 33.5847 43.8824 33.5934 43.9531C33.602 44.0239 33.5931 44.0956 33.5673 44.1621C33.5487 44.2389 33.5075 44.3085 33.4491 44.3622C33.3906 44.4158 33.3174 44.451 33.2387 44.4634Z" fill="#017B3E"/>
<path d="M16.9572 127.767C16.7526 127.767 16.6844 127.508 16.672 127.355C16.6596 127.201 16.672 126.961 16.92 126.906L49.5822 119.264H49.6504C49.855 119.264 49.9294 119.522 49.9356 119.676C49.9418 119.829 49.9356 120.069 49.6938 120.124L17.013 127.761L16.9572 127.767Z" fill="#017B3E"/>
<path d="M2.75282 131.087C2.54822 131.087 2.47382 130.823 2.46762 130.669C2.46142 130.515 2.46761 130.282 2.70941 130.226L10.0441 128.529H10.1123C10.3169 128.529 10.3851 128.794 10.3975 128.947C10.4099 129.101 10.3976 129.335 10.1557 129.39L2.84582 131.099H2.77762L2.75282 131.087Z" fill="#017B3E"/>
<path d="M55.7637 189.938C55.6955 189.934 55.6297 189.911 55.573 189.874C55.5164 189.836 55.4709 189.784 55.4413 189.723C55.3967 189.61 55.3967 189.485 55.4413 189.372L66.8247 147.589C66.8681 147.41 66.9611 147.324 67.0913 147.324C67.1577 147.329 67.2218 147.351 67.2772 147.387C67.3327 147.424 67.3776 147.474 67.4075 147.533C67.4521 147.646 67.4521 147.771 67.4075 147.884L56.0117 189.655C55.9621 189.833 55.8753 189.919 55.7451 189.919L55.7637 189.938Z" fill="#017B3E"/>
<path d="M50.8099 208.07C50.7415 208.064 50.676 208.039 50.6204 207.999C50.5648 207.959 50.521 207.905 50.4936 207.843C50.4491 207.73 50.4491 207.605 50.4936 207.492L53.0419 198.147C53.0915 197.975 53.1783 197.889 53.3085 197.889C53.3755 197.891 53.4404 197.912 53.4961 197.949C53.5519 197.986 53.5964 198.037 53.6247 198.098C53.6484 198.153 53.6606 198.213 53.6606 198.273C53.6606 198.333 53.6484 198.393 53.6247 198.448L51.0702 207.787C51.0268 207.966 50.9401 208.052 50.8036 208.052L50.8099 208.07Z" fill="#017B3E"/>
<path d="M115.217 176.031C115.136 176.031 115.068 175.982 115.006 175.877L93.7394 141.748C93.6998 141.689 93.6747 141.621 93.6661 141.551C93.6574 141.481 93.6656 141.409 93.6898 141.342C93.7099 141.266 93.7515 141.197 93.8097 141.144C93.8679 141.091 93.9403 141.055 94.0184 141.041C94.0652 141.045 94.11 141.061 94.1482 141.088C94.1864 141.115 94.2166 141.152 94.2354 141.195L115.502 175.324C115.541 175.383 115.566 175.45 115.575 175.521C115.584 175.591 115.576 175.663 115.551 175.73C115.53 175.806 115.487 175.875 115.428 175.928C115.369 175.982 115.295 176.017 115.217 176.031Z" fill="#017B3E"/>
<path d="M124.455 190.848C124.408 190.845 124.363 190.828 124.325 190.801C124.287 190.774 124.257 190.737 124.238 190.695L119.482 183.065C119.441 183.005 119.415 182.937 119.407 182.865C119.398 182.793 119.407 182.72 119.433 182.653C119.453 182.577 119.494 182.508 119.552 182.455C119.611 182.401 119.683 182.365 119.761 182.352C119.842 182.352 119.91 182.407 119.978 182.505L124.734 190.141C124.773 190.201 124.798 190.268 124.807 190.338C124.816 190.409 124.808 190.48 124.783 190.547C124.763 190.623 124.721 190.691 124.663 190.745C124.604 190.798 124.532 190.834 124.455 190.848Z" fill="#017B3E"/>
<path d="M103.349 107.557C103.145 107.557 103.07 107.299 103.064 107.146C103.058 106.992 103.064 106.758 103.306 106.697L135.968 99.0605H136.043C136.247 99.0605 136.315 99.3249 136.328 99.4786C136.34 99.6323 136.328 99.866 136.08 99.9213L103.418 107.564L103.349 107.557Z" fill="#017B3E"/>
<path d="M142.875 98.3102C142.671 98.3102 142.602 98.052 142.59 97.8983C142.578 97.7446 142.59 97.5048 142.832 97.4495L150.142 95.7402H150.21C150.415 95.7402 150.489 95.9985 150.495 96.1522C150.501 96.3059 150.495 96.5457 150.253 96.601L142.943 98.3102H142.875Z" fill="#017B3E"/>
<path d="M85.9086 79.4718C85.8418 79.4684 85.7772 79.4472 85.7216 79.4104C85.6659 79.3736 85.6213 79.3226 85.5924 79.2628C85.5478 79.1502 85.5478 79.025 85.5924 78.9123L96.9944 37.1472C97.044 36.9689 97.1308 36.8828 97.261 36.8828C97.3284 36.8871 97.3935 36.9085 97.45 36.9452C97.5065 36.9818 97.5525 37.0323 97.5834 37.0919C97.628 37.2045 97.628 37.3297 97.5834 37.4423L86.1814 79.2075C86.138 79.3857 86.045 79.4718 85.9148 79.4718H85.9086Z" fill="#017B3E"/>
<path d="M99.71 28.9276C99.6434 28.9235 99.5791 28.9021 99.5235 28.8653C99.468 28.8286 99.4232 28.778 99.3938 28.7186C99.3701 28.6631 99.3579 28.6036 99.3579 28.5433C99.3579 28.4831 99.3701 28.4235 99.3938 28.3681L101.954 19.0105C101.998 18.8322 102.085 18.7461 102.221 18.7461C102.288 18.7508 102.352 18.7725 102.407 18.8092C102.462 18.8458 102.507 18.8961 102.537 18.9551C102.582 19.0699 102.582 19.1969 102.537 19.3117L99.989 28.6509C99.9394 28.8292 99.8526 28.9153 99.7224 28.9153L99.71 28.9276Z" fill="#017B3E"/>
<path d="M76.5031 184.608C105.136 184.608 128.348 154.364 128.348 117.057C128.348 79.7495 105.136 49.5059 76.5031 49.5059C47.8698 49.5059 24.6578 79.7495 24.6578 117.057C24.6578 154.364 47.8698 184.608 76.5031 184.608Z" fill="white"/>
<mask id="mask0_3145_4858" style="mask-type:luminance" maskUnits="userSpaceOnUse" x="24" y="49" width="105" height="136">
<path d="M76.4969 184.608C105.13 184.608 128.342 154.364 128.342 117.057C128.342 79.7495 105.13 49.5059 76.4969 49.5059C47.8635 49.5059 24.6516 79.7495 24.6516 117.057C24.6516 154.364 47.8635 184.608 76.4969 184.608Z" fill="white"/>
</mask>
<g mask="url(#mask0_3145_4858)">
<path d="M125.329 72.8516H28.3159V169.053H125.329V72.8516Z" fill="white"/>
<g style="mix-blend-mode:multiply" opacity="0.16">
<path d="M112.371 158.828C112.4 158.87 112.427 158.913 112.451 158.957C113.809 161.287 111.54 162.166 109.42 162.646C105.307 163.519 101.124 164.025 96.9201 164.158L92.6668 164.281C86.8511 164.546 80.9982 164.835 75.1887 164.786C72.4421 164.786 69.6706 165.081 66.9178 165.099C64.165 165.118 61.3997 165.038 58.6469 164.829C54.7282 164.552 50.8396 163.951 47.0217 163.033C44.5416 162.419 39.1475 161.705 39.6869 158.441C39.8246 157.862 40.0948 157.323 40.4764 156.864C40.8581 156.406 41.3411 156.04 41.888 155.797C43.438 155.016 45.2484 154.942 46.9783 154.862C49.045 154.764 51.1282 154.68 53.228 154.61C62.3855 154.303 71.5803 154.131 80.7378 154.278L82.7157 154.309C86.8077 154.377 91.0114 154.567 95.1159 154.758C99.0219 154.942 103.04 155.028 106.896 155.791C109.029 156.196 111.255 157.039 112.371 158.828Z" fill="#3D5D85"/>
</g>
<path d="M97.2239 113.7C97.7528 113.443 98.3341 113.311 98.9228 113.313C99.7116 113.346 100.465 113.648 101.056 114.167C102.482 115.379 103.544 116.958 104.125 118.729C104.842 120.999 105.313 123.338 105.532 125.707C105.857 128.571 105.805 131.465 105.377 134.315C105.362 134.519 105.282 134.713 105.148 134.868C104.977 135.028 104.76 135.131 104.528 135.163C103.606 135.334 102.674 135.441 101.738 135.483C98.2718 135.692 94.8245 135.778 91.3587 135.87C91.2506 135.905 91.135 135.909 91.0246 135.883C90.9143 135.857 90.8133 135.801 90.7327 135.722C90.6521 135.642 90.595 135.543 90.5676 135.433C90.5402 135.324 90.5436 135.209 90.5774 135.102C90.5763 132.933 90.7714 130.768 91.1602 128.634C91.4765 126.888 91.9291 125.148 92.2825 123.42C92.5375 122.108 92.695 120.778 92.7537 119.442C92.8033 118.588 92.6235 117.696 92.9769 116.891C93.7705 115.071 95.3701 114.388 97.2239 113.7Z" fill="#C5E1DD"/>
<path d="M91.619 105.007C92.2064 104.544 92.8553 104.163 93.5472 103.876C94.1074 103.594 94.7188 103.427 95.3453 103.384C96.3434 103.326 97.3268 103.644 98.0981 104.275C98.9633 105.111 99.6267 106.131 100.039 107.257C100.407 108.103 100.699 108.98 100.913 109.876C101.044 110.305 101.115 110.75 101.124 111.198C101.118 111.36 101.069 111.518 100.98 111.654C100.892 111.791 100.768 111.901 100.622 111.973C99.1188 112.972 97.4565 113.712 95.7049 114.162C95.1504 114.336 94.5633 114.385 93.9874 114.303C93.2992 114.186 92.642 114.082 91.9476 113.996C91.7971 113.99 91.6512 113.943 91.526 113.86C91.3888 113.761 91.2833 113.624 91.2222 113.467C90.6114 112.268 90.193 110.982 89.9822 109.655C89.8234 108.296 90.1456 106.925 90.8936 105.775C91.0916 105.482 91.3366 105.222 91.619 105.007Z" fill="#1A1A1A"/>
<path d="M91.8173 110.503C91.6782 110.28 91.5933 110.027 91.5693 109.765C91.5259 109.384 91.5693 108.868 92.0716 108.917C92.1026 108.917 92.1212 108.954 92.146 108.966C92.1708 108.978 92.146 108.862 92.146 108.812C92.0572 108.27 92.0178 107.72 92.0282 107.171C92.0944 106.796 92.2311 106.438 92.4312 106.113C92.5274 105.88 92.6733 105.67 92.859 105.498C93.206 105.18 93.6129 104.932 94.0566 104.77C94.5002 104.607 94.9718 104.533 95.4444 104.552C96.0916 104.594 96.7054 104.852 97.1866 105.283C97.3292 105.388 98.3399 106.181 98.1043 106.581C98.3097 106.514 98.5325 106.525 98.7303 106.612C98.9281 106.698 99.087 106.853 99.1769 107.048C99.3111 107.27 99.3898 107.521 99.4063 107.779C99.4156 107.895 99.3968 108.011 99.3515 108.118C99.3062 108.225 99.2357 108.32 99.1459 108.394C99.3551 108.797 99.4776 109.239 99.5055 109.692C99.5145 110.466 99.2238 111.214 98.6933 111.782C98.3806 112.076 98.1481 112.444 98.0175 112.852C97.9865 113.082 97.9865 113.316 98.0175 113.547C98.058 113.714 98.058 113.889 98.0175 114.057C97.9441 114.184 97.8461 114.296 97.7291 114.386C97.612 114.475 97.4782 114.541 97.3354 114.579C97.181 114.658 97.0099 114.699 96.8363 114.699C96.6627 114.699 96.4916 114.658 96.3372 114.579C96.0334 114.389 96.052 114.051 95.835 113.799C95.3724 113.39 94.8206 113.093 94.223 112.932C93.5979 112.664 93.0533 112.24 92.642 111.702C92.4463 111.411 92.3036 111.089 92.2204 110.749C92.0659 110.705 91.9265 110.62 91.8173 110.503Z" fill="#EBCA9A"/>
<path d="M97.0875 105.948C96.7961 105.825 96.6039 105.597 96.2629 105.56C95.9322 105.532 95.5991 105.57 95.2833 105.671C94.1319 105.888 93.0951 106.502 92.3568 107.405C92.112 107.028 91.9043 106.629 91.7368 106.212C91.6839 106.103 91.6645 105.981 91.681 105.862C91.7091 105.772 91.7657 105.695 91.8422 105.64C92.7528 104.913 93.8098 104.386 94.9423 104.097C95.2053 104 95.4892 103.972 95.7663 104.017C96.0434 104.061 96.3042 104.175 96.5233 104.349C96.9945 104.78 96.9449 105.401 97.0875 105.948Z" fill="#1A1A1A"/>
<path d="M92.2824 109.92C92.3035 110.024 92.3304 110.127 92.363 110.228C92.6819 111.194 93.3197 112.026 94.1735 112.589C93.9441 112.533 93.6527 112.779 93.4853 112.847C93.1321 112.98 92.7634 113.069 92.3878 113.111C92.3278 113.133 92.2619 113.133 92.2018 113.111C92.1412 113.075 92.0934 113.022 92.0654 112.957C91.5864 112.166 91.2173 111.314 90.968 110.424C90.8142 109.405 90.8142 108.369 90.968 107.35C90.9714 106.956 91.0994 106.574 91.3338 106.256C91.6221 105.982 91.9917 105.807 92.3878 105.758C92.146 105.875 92.0654 106.373 92.053 106.557C92.0306 106.899 92.0306 107.242 92.053 107.584C92.0744 108.367 92.1511 109.148 92.2824 109.92Z" fill="#1A1A1A"/>
<path d="M98.3027 107.344C98.3576 107.435 98.4053 107.529 98.4453 107.627C98.8587 108.589 98.9309 109.662 98.6499 110.67C98.7863 110.48 99.1769 110.474 99.3443 110.412C99.6998 110.281 100.039 110.11 100.355 109.902C100.412 109.876 100.459 109.83 100.485 109.773C100.507 109.703 100.507 109.628 100.485 109.558C100.374 108.572 100.065 107.619 99.5778 106.753C99.0902 105.887 98.4333 105.127 97.6455 104.516C97.3981 104.228 97.063 104.027 96.6907 103.944C96.3041 103.923 95.9205 104.022 95.5933 104.227C95.8475 104.178 96.1823 104.504 96.3063 104.639C96.5284 104.885 96.7354 105.143 96.9263 105.414C97.4271 106.027 97.8869 106.672 98.3027 107.344Z" fill="#1A1A1A"/>
<path d="M93.138 140.213C93.1876 142.623 92.921 144.818 93.0326 147.277C93.1442 149.737 93.6836 152.368 93.8758 154.87C94.5702 154.778 95.2522 154.723 95.9404 154.563C96.1574 152.35 96.3 149.386 96.5604 147.351C96.8208 145.316 97.1246 144.277 97.354 142.432C95.928 141.756 94.5454 140.969 93.138 140.213Z" fill="#EBCA9A"/>
<path d="M93.6899 154.623C93.7785 154.933 93.7453 155.264 93.5969 155.551C93.4047 155.828 93.0575 155.926 92.9025 156.24C92.8623 156.382 92.8623 156.533 92.9025 156.676C92.9113 156.794 92.9543 156.908 93.0265 157.002C93.1683 157.134 93.3532 157.21 93.5473 157.217C93.8387 157.277 94.1379 157.292 94.4339 157.26C94.9265 157.168 95.3886 156.957 95.7793 156.645C95.9523 156.545 96.1012 156.408 96.2157 156.244C96.3303 156.081 96.4077 155.895 96.4427 155.699C96.4347 155.556 96.4055 155.415 96.3559 155.281C96.2641 154.918 96.2121 154.547 96.2009 154.174L93.6465 154.309C93.6403 154.401 93.6775 154.506 93.6899 154.623Z" fill="#343131"/>
<path d="M100.138 140.379C100.622 142.838 100.653 145.107 101.421 147.609C102.19 150.112 103.678 152.614 104.85 154.987C105.47 154.701 106.072 154.378 106.654 154.022C105.882 151.671 105.275 149.269 104.838 146.835C104.546 144.775 104.714 143.76 104.621 141.879C103.12 141.443 101.638 140.908 100.138 140.379Z" fill="#EBCA9A"/>
<path d="M104.577 154.813C104.777 155.083 104.871 155.415 104.844 155.748C104.763 156.086 104.466 156.301 104.422 156.652C104.417 156.805 104.456 156.956 104.534 157.088C104.574 157.2 104.651 157.295 104.751 157.359C104.925 157.441 105.125 157.455 105.309 157.396C105.605 157.35 105.893 157.263 106.164 157.137C106.6 156.871 106.962 156.501 107.218 156.062C107.35 155.907 107.444 155.725 107.494 155.529C107.545 155.333 107.55 155.128 107.51 154.93C107.455 154.795 107.377 154.671 107.28 154.561C107.055 154.244 106.863 153.904 106.71 153.547C105.935 153.879 105.154 154.192 104.366 154.494C104.435 154.604 104.515 154.703 104.577 154.813Z" fill="#343131"/>
<path d="M90.6642 134.229C90.6642 133.571 90.6642 132.92 90.6642 132.262C90.6621 132.124 90.6852 131.986 90.7324 131.856C90.8318 131.688 90.9754 131.55 91.1478 131.456C92.0299 130.96 92.7244 130.191 93.1256 129.268C93.4923 128.392 93.7827 127.487 93.9936 126.562C94.2044 125.763 94.5578 123.427 94.9609 122.498C95.1469 122.062 95.0662 122.498 95.2027 122.277C95.3066 120.039 95.0937 117.798 94.5702 115.619C94.4772 115.256 94.3905 115.317 94.5021 114.955C94.7386 114.766 95.0018 114.612 95.2833 114.5C96.1574 116.86 96.6998 119.328 96.8953 121.834C97.9741 121.582 99.0715 121.349 100.15 121.097C99.9446 118.459 99.5614 115.838 99.0033 113.251C99.3001 113.172 99.6082 113.143 99.9147 113.165C100.212 113.424 100.119 113.417 100.237 113.78C100.911 116.069 101.441 118.398 101.824 120.752C101.866 120.755 101.907 120.755 101.948 120.752C102.091 120.752 102.196 120.703 102.32 120.82C102.431 120.951 102.5 121.111 102.519 121.281C102.792 122.511 102.984 123.802 103.207 125.068C103.319 125.683 103.405 126.329 103.573 126.913C103.941 128.458 104.627 129.91 105.588 131.18C105.734 131.328 105.859 131.496 105.96 131.678C106.038 131.874 106.082 132.082 106.09 132.293C106.152 133.178 106.152 134.106 106.146 134.986C106.096 139.83 105.792 144.608 106.536 149.422C106.611 149.92 106.698 150.368 106.784 150.91C106.84 151.272 107.063 151.93 106.853 152.305C106.741 152.514 106.375 152.551 106.189 152.631C106.003 152.711 105.699 152.822 105.451 152.914C104.949 153.092 104.459 153.252 103.976 153.455C101.726 150.476 99.7608 147.296 98.1043 143.956C97.7881 146.999 97.3045 150.012 96.9263 153.061C95.9987 153.195 95.06 153.239 94.1238 153.191C93.4542 152.908 93.5038 152.188 93.324 151.512C92.704 149.409 92.146 147.294 91.7306 145.136C91.0418 141.54 90.6848 137.89 90.6642 134.229Z" fill="#544841"/>
<path d="M94.6632 102.333H94.5516C94.4276 102.333 94.2478 102.185 94.2788 102.056C94.378 101.657 95.0662 101.687 94.719 101.208C94.626 101.079 93.6712 100.87 93.665 100.716C93.6495 100.554 93.6695 100.391 93.7235 100.238C93.7775 100.085 93.8644 99.945 93.9781 99.8282C94.0918 99.7114 94.2296 99.6204 94.3821 99.5613C94.5346 99.5023 94.6982 99.4767 94.8616 99.4863C95.339 99.4863 95.5994 99.9044 95.9032 100.2C96.3682 100.655 96.7154 101.196 97.1991 101.638C97.2238 101.655 97.2448 101.677 97.2608 101.703C97.2768 101.728 97.2874 101.756 97.2921 101.786C97.2949 101.85 97.2799 101.914 97.2487 101.97C97.0193 102.474 96.8208 102.923 96.2318 103.052C96.145 103.052 96.083 103.009 96.021 102.966C95.8288 102.856 95.649 102.733 95.463 102.616C95.3221 102.523 95.1673 102.452 95.0042 102.407C94.8928 102.373 94.7787 102.348 94.6632 102.333Z" fill="#EBCA9A"/>
<path d="M102.19 105.02C101.877 104.777 101.55 104.551 101.211 104.344C100.721 103.987 97.6889 101.399 97.6145 101.393C96.1699 101.331 96.4551 102.739 95.3887 102.997C96.4427 104.03 97.4037 104.731 98.4887 105.776C100.349 107.621 101.111 108.85 100.522 111.55C100.355 112.306 99.8713 112.841 100.287 113.609C100.448 113.898 100.758 114.052 100.969 114.322C102.345 116.05 102.922 118.116 103.821 120.108C103.889 120.255 104.025 120.348 104.18 120.255C104.232 120.206 104.264 120.141 104.273 120.071C104.447 119.407 104.546 118.7 104.695 118.036C104.938 117.431 105.115 116.803 105.222 116.161C105.327 114.761 105.327 113.355 105.222 111.955C104.9 109.287 104.261 106.914 102.19 105.02Z" fill="#C5E1DD"/>
<path d="M90.7943 103.679L90.8749 103.587C90.9617 103.482 91.0423 103.255 90.9307 103.169C90.5773 102.874 90.0565 103.458 90.0999 102.757C90.0999 102.566 90.9183 101.718 90.8439 101.527C90.4409 100.697 89.6845 100.783 89.1017 101.294C88.771 101.686 88.5755 102.173 88.5437 102.683C88.3887 103.409 88.3949 104.128 88.2709 104.853C88.246 104.917 88.246 104.987 88.2709 105.05C88.3082 105.105 88.3627 105.146 88.4259 105.167C88.6376 105.323 88.8888 105.417 89.1515 105.44C89.4142 105.463 89.6781 105.413 89.9139 105.296C89.9883 105.253 90.0069 105.161 90.0379 105.081C90.1247 104.86 90.1929 104.626 90.2797 104.405C90.3361 104.228 90.4175 104.06 90.5215 103.907C90.6071 103.825 90.6982 103.749 90.7943 103.679Z" fill="#EBCA9A"/>
<path d="M86.8635 111.069C86.8635 110.749 87.0371 110.405 87.0867 109.895C87.1487 109.28 87.7687 105.062 87.8245 105.007C88.9033 103.961 89.6101 105.259 90.6084 104.736C90.4038 106.212 90.1495 107.54 90.0627 109.04C89.9077 111.628 90.2612 112.919 92.3878 114.506C92.8085 114.737 93.2434 114.943 93.6898 115.121C94.1362 115.385 94.2044 115.385 94.2602 115.914C94.347 116.75 94.2602 117.647 94.2974 118.533C94.3651 119.512 94.2409 120.496 93.9316 121.429C93.896 121.518 93.8302 121.592 93.7456 121.638C93.7223 121.652 93.6955 121.659 93.6681 121.659C93.6408 121.659 93.614 121.652 93.5906 121.638C92.7455 121.105 91.9581 120.487 91.2408 119.793C90.4161 119.043 89.5667 118.674 88.8785 117.623C87.5889 115.619 86.6899 113.571 86.8635 111.069Z" fill="#C5E1DD"/>
<path d="M86.9875 90.7129C90.7075 93.5841 93.4294 100.194 94.9546 104.393L92.208 105.45C90.8377 100.655 88.9343 95.5208 85.6917 91.6536L86.9875 90.7129Z" fill="#74625F"/>
<path d="M67.3208 80.525C71.8345 79.5659 78.2764 79.2585 82.2383 81.521C86.2001 83.7836 86.9441 87.6693 87.0867 91.6903C83.5217 93.627 79.7768 94.9734 75.7963 92.7416C71.8159 90.5098 68.7902 84.878 67.3208 80.525Z" fill="#4A988A"/>
<path d="M87.0309 91.6413C86.7271 91.8441 86.4109 92.0224 86.0947 92.1946L74.6121 84.6445L87.0123 90.5776C87.0743 90.9342 87.0743 91.297 87.0309 91.6413Z" fill="#658278"/>
<path d="M100.095 77.8633C100.932 81.8842 101.173 87.5468 99.1398 91.0575C97.1061 94.5681 93.6093 95.2014 89.9822 95.3182C88.2586 92.1518 87.0496 88.8379 89.0832 85.3273C91.1168 81.8166 96.1575 79.1667 100.095 77.8633Z" fill="#4A988A"/>
<path d="M90.0007 95.2673C89.8147 95.003 89.6597 94.7201 89.4985 94.4373L96.3187 84.2988L90.9432 95.2735C90.6291 95.2887 90.3145 95.2867 90.0007 95.2673Z" fill="#658278"/>
<path d="M87.0309 91.6408C81.147 92.7352 74.4447 91.3273 70.365 86.8145C73.7626 93.8235 80.2976 95.9446 87.0309 91.6408Z" fill="#4E9686"/>
<path d="M69.342 116.314L70.0179 115.269L69.9807 114.549L70.5449 113.688C70.5449 113.688 71.0967 113.941 71.0533 114.008C71.0008 114.088 70.9678 114.179 70.957 114.274C70.9463 114.369 70.958 114.466 70.9913 114.555C71.3161 114.405 71.5726 114.14 71.7105 113.811C71.7725 113.639 71.8035 113.424 71.9709 113.344C72.1383 113.264 72.3615 113.399 72.5041 113.541C72.6814 113.695 72.8158 113.892 72.8947 114.113C72.9497 114.428 72.8785 114.752 72.6963 115.016C72.3031 115.577 71.7716 116.028 71.1525 116.326L70.2845 117.254L69.342 116.314Z" fill="#EBCBAA"/>
<path d="M65.064 119.258C66.7566 118.545 68.195 116.399 69.3669 115.256C69.8616 115.477 70.3049 115.797 70.6689 116.197C71.1339 116.707 71.1029 116.762 70.7743 117.316C70.182 118.237 69.5143 119.109 68.7779 119.922C67.017 121.994 65.808 123.949 62.7266 124.048C61.8944 124.051 61.064 123.975 60.2465 123.82L56.9915 123.31C56.7149 123.278 56.4438 123.21 56.1854 123.107C54.1952 122.234 56.018 119.117 56.6629 117.924C57.3077 116.731 57.3139 116.154 58.8329 116.738C59.9545 117.261 61.008 117.918 61.9701 118.693C62.252 118.898 62.5506 119.079 62.863 119.234C63.2059 119.397 63.5805 119.483 63.9607 119.487C64.3409 119.492 64.7174 119.413 65.064 119.258Z" fill="#FEDD71"/>
<path d="M47.4495 155.798C47.5983 156.413 47.7161 156.991 47.8277 157.599L49.1917 158.435C49.4583 158.343 49.8675 158.288 50.1093 158.189C50.5185 158.03 50.7293 157.741 50.4999 157.329C50.4317 157.206 50.3821 157.187 50.2209 156.96C50.0597 156.732 49.6815 156.283 49.4273 155.976C49.1731 155.669 48.8073 155.232 48.4973 154.906L47.4495 155.798Z" fill="#3A3028"/>
<path d="M52.5831 155.761L52.9737 157.605L54.344 158.442C54.623 158.263 55.0508 158.042 55.2988 157.87C55.6646 157.611 55.7142 157.255 55.4228 156.991C55.1438 156.634 54.8462 156.314 54.5548 155.97L53.6681 154.906L52.5831 155.761Z" fill="#3A3028"/>
<path d="M55.5406 130.99C51.3927 130.111 47.189 129.557 43.0101 128.709C42.8303 130.904 42.6753 129.766 42.5389 132.718C42.4453 136.757 42.7568 140.796 43.469 144.774C44.2881 148.665 45.4841 152.468 47.0402 156.13C47.8028 155.977 48.5654 155.817 49.3405 155.601C48.533 152.101 48.1974 148.51 48.3422 144.922C48.4877 142.03 48.9386 139.162 49.6877 136.364C51.3803 135.749 53.0853 135.079 54.8275 134.519C55.0383 133.369 55.274 132.17 55.5406 130.99Z" fill="#736354"/>
<path d="M54.8337 134.543C54.1455 137.986 54.2137 140.888 54.1207 144.46C54.0264 148.208 54.265 151.956 54.8337 155.662C54.0339 155.896 53.3023 156.111 52.5583 156.277C51.2604 152.382 50.2248 148.405 49.4582 144.374C48.7266 140.611 48.2182 137.537 48.3298 133.836C50.4937 134.113 52.6327 134.291 54.8337 134.543Z" fill="#736354"/>
<path d="M60.3147 108.991C60.5039 108.728 60.7469 108.508 61.0277 108.345C61.1287 108.264 61.2475 108.207 61.3745 108.18C61.5015 108.152 61.6332 108.154 61.7593 108.185C61.842 108.227 61.9106 108.292 61.9569 108.371C62.0031 108.451 62.025 108.542 62.0197 108.634C62.014 108.804 61.9827 108.972 61.9267 109.132C62.5467 109.261 63.2039 108.929 63.8177 108.966C64.208 109.008 64.5867 109.123 64.9338 109.304C65.1781 109.393 65.4032 109.526 65.5972 109.698C65.9596 110.048 66.2461 110.469 66.439 110.933C66.632 111.397 66.7274 111.895 66.7194 112.397C66.5954 114.174 65.0144 115.785 63.3155 116.258C63.0664 116.319 62.8138 116.364 62.5591 116.393L61.5299 116.529C61.1031 116.623 60.658 116.595 60.2465 116.449C59.2111 115.957 58.8949 114.567 57.5246 115.084C57.3754 115.162 57.2141 115.216 57.0472 115.244C56.7491 115.226 56.4682 115.099 56.2598 114.887C55.9994 114.647 55.677 114.414 55.7452 114.032C55.8134 113.651 56.2164 113.454 56.4582 113.159C56.7 112.864 56.8984 112.44 57.1712 112.114C57.5957 111.609 58.0579 111.136 58.5539 110.7C58.9817 110.319 59.6017 110.085 59.9737 109.692C60.0335 109.616 60.0758 109.527 60.0977 109.433C60.1519 109.278 60.2247 109.129 60.3147 108.991Z" fill="#EBCBAA"/>
<path d="M64.1711 107.091C64.7839 107.272 65.3622 107.552 65.8824 107.921C66.3232 108.194 66.6878 108.572 66.9426 109.022C67.4138 109.987 67.265 112.065 68.5918 112.36C68.701 112.376 68.8053 112.416 68.8968 112.477C68.9883 112.538 69.0646 112.619 69.1201 112.714C69.1756 112.808 69.2087 112.914 69.2171 113.023C69.2255 113.132 69.2088 113.242 69.1684 113.344C69.125 113.485 69.001 113.553 68.9576 113.688C68.9142 113.823 68.8646 113.952 68.9886 114.069C69.1126 114.186 69.3172 114.069 69.4784 114.205C69.5142 114.243 69.5415 114.288 69.5585 114.338C69.5755 114.387 69.5819 114.44 69.5772 114.492C69.5725 114.544 69.5569 114.595 69.5313 114.641C69.5058 114.686 69.4709 114.726 69.4288 114.758C69.3296 114.832 69.1808 114.844 69.1002 114.905C69.0196 114.967 69.0196 115.028 68.9576 115.09C68.9048 115.16 68.8353 115.217 68.7553 115.254C68.6753 115.292 68.5872 115.309 68.4988 115.305C68.4171 115.282 68.3344 115.264 68.2508 115.25C68.0916 115.276 67.9396 115.335 67.8044 115.422C67.472 115.542 67.1076 115.542 66.7752 115.422C66.5207 115.685 66.2148 115.894 65.8761 116.037C65.2608 116.144 64.6314 116.144 64.0161 116.037C64.1476 115.888 64.2953 115.754 64.4563 115.637C64.7836 115.363 65.0425 115.018 65.2127 114.629C65.2995 114.432 65.3553 114.229 65.4545 114.014L65.4111 113.959C65.3151 113.842 65.2415 113.708 65.1941 113.565C65.1624 113.38 65.1624 113.191 65.1941 113.006C65.2512 112.118 65.0716 111.232 64.6733 110.436C64.1897 109.563 63.4767 109.39 62.5095 109.39C62.2863 109.39 61.8523 109.556 61.6477 109.39C61.3253 109.188 61.7407 108.917 61.6477 108.69C61.4121 108.075 60.8169 108.69 60.5689 108.942C60.3209 109.194 60.2837 109.501 60.0852 109.735C59.7648 110.025 59.411 110.277 59.0312 110.485C58.7182 110.759 58.3145 110.91 57.8966 110.909C57.8966 110.909 57.8284 110.909 57.8222 110.854C57.816 110.798 57.8222 110.854 57.8222 110.811C58.1099 110.024 58.5555 109.304 59.132 108.693C59.7085 108.082 60.4041 107.594 61.1765 107.257C61.7931 106.845 62.5427 106.676 63.2783 106.784C63.5635 106.907 63.8673 107.011 64.1711 107.091Z" fill="#554741"/>
<path d="M56.0738 130.571C56.2288 129.532 56.3776 128.481 56.638 127.448C56.8984 126.415 57.258 125.37 57.6052 124.374C58.126 122.861 58.653 121.257 59.1862 119.793C59.6636 118.478 59.8373 117.826 58.963 116.67C58.684 116.307 57.878 116.012 57.8098 115.502C57.7788 115.262 58.033 115.139 57.8594 114.887C57.7832 114.795 57.7003 114.709 57.6114 114.629C57.4148 114.351 57.2699 114.041 57.1836 113.713C57.0599 113.399 56.8744 113.113 56.638 112.871C56.5704 112.79 56.4795 112.732 56.3776 112.704C56.2952 112.699 56.2126 112.711 56.1358 112.741C55.5075 112.932 54.8647 113.071 54.2138 113.159C53.5937 113.239 52.9737 113.159 52.3909 113.295C51.7779 113.433 51.1984 113.69 50.6859 114.051C49.7939 114.619 48.9863 115.309 48.2865 116.098C47.5896 116.898 46.9787 117.768 46.4636 118.693C44.6398 121.87 43.3597 125.325 42.6754 128.917C42.491 129.533 42.4299 130.178 42.4956 130.817C42.632 131.432 43.2148 131.475 43.7356 131.666C44.9461 132.134 46.1894 132.514 47.4556 132.803C49.958 133.293 52.507 133.51 55.057 133.449C55.1983 133.458 55.3391 133.424 55.46 133.35C55.5698 133.254 55.6385 133.12 55.6522 132.975C55.8382 132.219 55.956 131.395 56.0738 130.571Z" fill="#FEDD71"/>
<path d="M70.9913 163.926C84.4519 163.926 95.3639 153.105 95.3639 139.757C95.3639 126.409 84.4519 115.588 70.9913 115.588C57.5306 115.588 46.6187 126.409 46.6187 139.757C46.6187 153.105 57.5306 163.926 70.9913 163.926Z" fill="#3EA6DE"/>
<path d="M76.8008 116.283C77.2348 116.388 77.6688 116.505 78.0904 116.634L76.8008 116.283Z" fill="#94BA41"/>
<path d="M77.5076 118.355L77.8176 118.454L77.9106 118.386C77.7757 118.386 77.641 118.376 77.5076 118.355Z" fill="#9FC23D"/>
<path d="M76.3109 119.542C77.0611 119.542 78.1709 120.772 78.7599 120.391C79.5536 119.862 79.38 119.37 79.5722 119.093C78.9955 118.86 78.4127 118.645 77.8175 118.479L76.3109 119.542Z" fill="#9FC23D"/>
<path d="M77.5076 118.356C77.272 118.282 77.0302 118.214 76.7946 118.152C77.0212 118.254 77.2613 118.322 77.5076 118.356Z" fill="#9FC23D"/>
<path opacity="0.07" d="M90.4968 128.628C89.3879 126.726 88.0052 124.995 86.3923 123.488C86.3732 123.466 86.3525 123.446 86.3303 123.427L85.8343 122.997L85.7599 122.935L85.2515 122.505L85.1957 122.462L84.6563 122.037L84.6191 122.007C84.429 121.859 84.2367 121.718 84.0425 121.583L83.4225 121.164C83.0009 120.888 82.5669 120.623 82.1266 120.371C79.6992 118.989 77.033 118.067 74.2649 117.654L73.7751 117.586H73.4961L73.1737 117.549C72.7211 117.506 72.2623 117.475 71.8035 117.457H71.4997H70.8797H70.3464H70.1481H69.8318H69.5776H69.3296H69.0258H68.8894C68.3066 117.506 67.7238 117.58 67.1534 117.672L66.7008 117.752L66.118 117.869L65.56 117.998H65.529L64.9834 118.139H64.9524L64.4068 118.293L63.8487 118.472C61.8022 119.142 59.8626 120.098 58.0888 121.312C55.5612 123.041 53.4148 125.262 51.78 127.839C50.1452 130.417 49.0563 133.297 48.5796 136.305C48.1028 139.313 48.2482 142.385 49.0068 145.336C49.7654 148.286 51.1214 151.053 52.9924 153.467C50.3774 148.951 49.4268 143.674 50.3034 138.539C51.18 133.405 53.8291 128.732 57.7974 125.321L57.909 125.228L58.1943 124.989L58.3617 124.853L58.5973 124.663L58.7833 124.528L59.0127 124.349L59.1987 124.214L59.4281 124.042L59.6265 123.907L59.8559 123.747L60.0543 123.618L60.2961 123.458L60.4945 123.335L60.7425 123.181L60.9347 123.058L61.2013 122.904L61.3873 122.8L61.6911 122.628L61.8461 122.542L62.2987 122.308L62.4413 122.234L62.7699 122.074L62.9559 121.982L63.2473 121.853L63.4519 121.761L63.7247 121.644L63.9417 121.552L64.2146 121.441L64.4377 121.355L64.7106 121.251L64.9338 121.171L65.2128 121.072L65.436 120.998L65.7274 120.9L65.9382 120.839L66.2606 120.74L66.4528 120.685L66.862 120.574H66.9674L67.4882 120.445L67.6432 120.414L68.009 120.334L68.2136 120.291L68.5422 120.23L68.7654 120.193L69.0754 120.144L69.311 120.107L69.621 120.064L69.8504 120.033L70.1667 120.002H70.3961H70.7185H70.9479H71.2827H71.4997H71.8717H72.7583C76.0157 120.016 79.2312 120.732 82.1824 122.099L82.2693 122.136L82.6971 122.345L82.8831 122.437L83.2241 122.615L83.4101 122.714L83.8069 122.935L83.9557 123.021C84.0983 123.101 84.2409 123.181 84.3773 123.267L84.5695 123.384L84.8671 123.568L85.0655 123.698L85.3817 123.913L85.5367 124.017C87.4119 125.301 89.0836 126.856 90.4968 128.628Z" fill="white"/>
<path d="M79.5535 117.126C78.8655 117.035 78.1677 117.045 77.4827 117.156C77.7138 117.013 77.9226 116.837 78.1027 116.634C77.6811 116.505 77.2471 116.388 76.8131 116.283L76.7201 116.314C76.1311 116.517 76.0443 116.541 76.1435 116.929C75.9182 116.84 75.7005 116.733 75.4925 116.609H72.6714C74.457 118.57 70.9974 118.454 69.7264 118.454C69.497 118.454 69.4412 117.992 69.5776 117.876C69.9902 117.842 70.4049 117.842 70.8176 117.876C71.9708 117.876 71.8282 117.783 71.8282 116.646C70.6812 117.482 70.7246 116.646 69.4226 116.646C68.4309 116.581 67.4389 116.768 66.5395 117.187L67.5811 118.066C67.1471 117.968 65.7211 117.414 65.3243 117.58C65.1445 117.654 65.0949 118.134 64.8717 118.134C63.9665 118.134 61.4926 118.632 61.4926 117.599C61.4926 117.599 61.4926 117.599 61.4492 117.599C59.2227 118.541 57.1516 119.81 55.3049 121.362C56.1729 121.212 57.0529 121.142 57.9338 121.153C58.2891 121.809 58.5778 122.499 58.7956 123.212C58.8328 124.048 58.2624 124.374 57.8346 125.167C57.0668 126.702 56.7122 128.407 56.8053 130.117C56.8053 130.178 57.7788 131.045 57.7788 131.389C57.7788 132.828 57.9338 132.847 58.932 133.91V132.158C59.552 133.701 60.2402 134.298 60.792 135.804C61.412 137.519 63.8053 136.204 64.6237 137.335C64.9833 137.833 65.6529 137.605 65.9753 138.091L66.8433 139.407C67.3703 140.2 68.0089 139.923 68.9452 139.923C69.8814 139.923 68.1267 142.997 68.1267 143.268C68.1267 144.338 69.5962 146.772 69.59 147.203C69.59 148.469 71.1586 148.648 72.0328 149.435C72.7272 150.049 72.2312 151.851 72.2064 152.644C72.2014 153.274 72.3149 153.9 72.5412 154.489C72.7272 155.017 72.969 155.528 73.1612 156.05L73.2728 156.327C73.2728 156.37 73.3038 156.413 73.3162 156.45L73.403 156.69L73.4402 156.819C73.4712 156.899 73.4898 156.985 73.5146 157.065C73.5279 157.105 73.5382 157.146 73.5456 157.188C73.5766 157.311 73.6076 157.434 73.6262 157.556C73.744 158.208 73.4898 158.909 73.6262 159.536C73.7626 160.163 74.3268 160.569 74.3206 161.276C74.3206 162.371 77.4207 162.58 78.0035 162.58C78.0035 162.58 75.7405 161.411 75.7405 161.553C75.7405 160.514 76.2799 160.588 76.2799 159.954C76.2799 159.204 75.5917 158.583 76.0257 157.526C76.4907 156.376 76.4349 156.407 77.6935 156.407C77.67 155.881 77.5868 155.359 77.4455 154.851C78.5677 153.111 81.1656 151.445 81.8724 150.978C82.8086 150.363 82.2878 148.623 82.6908 147.707C83.0504 146.902 84.1292 146.164 84.185 145.174C84.1884 145.125 84.1884 145.075 84.185 145.026V144.989V144.885C84.1784 144.851 84.168 144.818 84.154 144.787L84.0982 144.682C83.9657 144.538 83.8004 144.427 83.616 144.358C83.4317 144.29 83.2335 144.266 83.038 144.289C82.48 144.289 82.418 143.385 82.0088 143.385C80.8083 143.443 79.621 143.115 78.6235 142.45C78.4561 142.327 78.2639 140.852 78.0035 140.483C77.5943 139.96 76.2861 140.882 75.7777 140.169C75.5855 139.899 75.1577 138.841 74.8228 138.841C74.4012 138.841 72.07 138.392 71.5802 138.841C71.6546 138.774 70.7866 138.509 70.6626 138.509C70.7184 138.509 67.6679 140.071 67.6679 139.259C67.6679 138.208 68.1887 136.849 66.9301 136.849C64.9027 136.849 66.6263 136.327 66.6263 135.404C66.6263 134.224 64.6671 135.73 63.6317 135.73C63.6317 135.73 62.4722 133.793 63.0117 133.793C63.4209 133.793 63.4829 132.97 63.7867 132.613C64.5865 131.685 65.9505 131.592 66.8867 131.765C67.6528 132.277 68.2739 132.976 68.691 133.793C68.691 133.714 69.2676 133.351 69.3482 133.228C69.6272 132.81 69.466 132.613 69.5342 132.201C69.7698 130.781 69.8318 130.498 70.9726 129.631C71.9451 129.008 72.8418 128.276 73.6448 127.448C74.0967 126.88 74.6821 126.431 75.3499 126.139C75.2755 126.176 76.0443 126.606 76.2055 126.606C76.8689 126.606 77.0301 126.053 77.3897 125.555H76.2427C77.5385 124.571 75.1949 124.061 77.7927 124.061C79.0699 124.061 79.1877 124.061 79.9627 123.175C78.7227 123.175 79.0265 123.175 79.0265 121.915C79.0265 121.706 78.6731 120.944 78.3383 121.269C77.4269 122.161 77.4579 121.103 77.0549 120.513C76.5403 119.745 75.9823 120.513 75.7653 120.999C75.4925 121.577 73.2852 122.481 73.2852 123.231C73.2852 123.673 72.5598 123.655 72.5722 123.163C72.5722 122.425 70.0178 121.718 69.9744 121.429C69.931 121.14 71.2516 120.021 72.411 120.021C72.938 120.021 72.6776 119.407 72.845 119.407C73.9424 119.407 75.2445 119.068 75.8459 118.177C75.6971 118.177 74.2834 118.177 74.2834 118.177C74.2834 117.679 74.0665 117.371 74.6431 117.371C76.0071 117.371 76.4101 118.423 77.8981 118.423L76.2985 119.579C77.0487 119.579 78.1585 120.808 78.7475 120.427C79.8077 119.72 79.0947 119.075 79.9875 118.927C80.1085 119.05 80.2573 119.143 80.4215 119.197C80.7005 119.296 81.6926 119.468 81.8662 119.72C82.0398 119.972 82.5854 121.811 82.2072 121.964C81.5872 122.216 79.7767 124.159 81.1656 124.645C82.232 125.02 82.5048 124.546 83.4596 123.956C84.4144 123.366 84.5818 123.612 85.58 123.956C86.0556 123.932 86.5323 123.965 86.9999 124.055C87.8369 124.35 87.7749 123.821 87.8679 123.852C88.3426 124.01 88.8564 124.01 89.3311 123.852C86.6812 120.844 83.3223 118.534 79.5535 117.126Z" fill="#C2D99A"/>
<path d="M69.4412 133.954L68.9452 134.44C70.4828 134.44 71.4252 134.932 72.7769 134.932C71.8654 133.511 71.1462 133.954 69.4412 133.954Z" fill="#C2D99A"/>
<path d="M74.5067 135.182C73.2667 135.145 73.2171 135.33 72.4607 136.166H74.4075C74.9717 136.166 74.8973 135.194 74.5067 135.182Z" fill="#C2D99A"/>
<path d="M76.2551 136.456C74.4943 136.456 76.2551 134.74 76.2551 136.456V136.456Z" fill="#C2D99A"/>
<path d="M54.6044 128.609L55.4848 129.489L56.204 129.605L56.9356 130.337C56.9356 130.337 56.5698 130.81 56.514 130.755C56.3647 130.627 56.1716 130.561 55.9746 130.571C56.0513 130.903 56.2065 131.213 56.4272 131.474C56.607 131.708 56.948 131.972 56.5202 132.175C56.4012 132.226 56.2713 132.248 56.142 132.237C55.8173 132.218 55.507 132.097 55.2554 131.893C55.0774 131.703 54.8677 131.544 54.6354 131.425C54.5925 131.416 54.5522 131.397 54.5176 131.37C54.4339 131.183 54.3735 130.987 54.3378 130.786C54.3128 130.644 54.2712 130.506 54.2138 130.374L53.4822 129.335L54.6044 128.609Z" fill="#EBCBAA"/>
<path d="M52.5646 123.833C53.1226 125.634 54.9764 127.958 55.553 128.862C55.2308 129.294 54.8211 129.654 54.3502 129.92C53.7302 130.264 53.6992 130.227 53.2218 129.784C52.4396 129.014 51.7222 128.181 51.0766 127.294C49.4149 125.149 47.7471 123.562 48.3051 120.531C48.48 119.72 48.7333 118.927 49.0615 118.164L50.2581 115.09C50.5309 114.402 50.8037 114.303 51.5602 114.272C52.7382 114.229 54.0898 114.315 54.8276 115.238C55.038 115.526 55.1858 115.855 55.2615 116.203C55.3373 116.551 55.3395 116.911 55.2678 117.26C55.1235 117.96 54.8548 118.628 54.4742 119.234C53.6496 120.734 52.0066 122.038 52.5646 123.833Z" fill="#FEDD71"/>
<g style="mix-blend-mode:multiply" opacity="0.18">
<path d="M82.7343 122.233L82.5793 122.172C83.4828 121.507 84.35 120.795 85.1771 120.039C84.4269 119.602 83.6271 119.043 82.8645 118.637C81.1847 120.513 79.2529 122.151 77.1232 123.506V123.475C76.218 122.432 75.1556 121.534 73.9735 120.813C72.5539 119.887 70.8926 119.391 69.1932 119.387C66.5582 119.313 63.8673 120.346 61.3811 122.461C59.1706 124.113 57.1828 126.038 55.4662 128.191C59.3909 130.607 65.3492 133.054 69.8504 132.261C73.9301 131.536 75.9761 128.671 77.4456 125.344C77.4637 125.311 77.4783 125.276 77.489 125.24V125.178C78.1479 124.961 78.7851 124.683 79.3924 124.348C78.6025 125.244 78.0253 126.304 77.7034 127.45C77.3814 128.596 77.323 129.799 77.5324 130.97C78.2454 134.954 82.1018 139.141 85.3445 141.687C87.5021 138.188 89.6846 132.938 88.9468 128.954C88.3143 125.314 85.7537 123.525 82.7343 122.233Z" fill="#4A988A"/>
</g>
</g>
<path d="M76.5031 184.608C105.136 184.608 128.348 154.364 128.348 117.057C128.348 79.7495 105.136 49.5059 76.5031 49.5059C47.8698 49.5059 24.6578 79.7495 24.6578 117.057C24.6578 154.364 47.8698 184.608 76.5031 184.608Z" stroke="#214721" stroke-width="3" stroke-miterlimit="10"/>
<path d="M76.5031 202.204C86.358 202.204 94.347 194.282 94.347 184.509C94.347 174.737 86.358 166.814 76.5031 166.814C66.6482 166.814 58.6592 174.737 58.6592 184.509C58.6592 194.282 66.6482 202.204 76.5031 202.204Z" fill="#1E4721"/>
<path d="M83.4596 174.242C83.5898 174.242 83.72 174.242 83.8502 174.242C83.9212 174.232 83.9936 174.243 84.0583 174.274C84.1231 174.304 84.1773 174.353 84.2143 174.414C84.2513 174.475 84.2694 174.545 84.2664 174.616C84.2634 174.687 84.2394 174.756 84.1974 174.814C84.0637 175.042 83.9124 175.26 83.7448 175.465C82.7279 176.744 81.7235 178.029 80.6943 179.296C79.7519 180.439 78.7971 181.571 77.8175 182.683C77.3677 183.242 76.7443 183.638 76.0442 183.808C75.639 183.893 75.2199 183.888 74.817 183.793C74.414 183.699 74.0371 183.517 73.713 183.261C73.3143 182.95 72.9814 182.563 72.7334 182.124C71.8199 180.743 70.9188 179.357 70.0301 177.968C69.6395 177.353 69.2799 176.738 68.9079 176.123C68.8849 176.088 68.8642 176.051 68.8459 176.012C68.6103 175.533 68.7529 175.281 69.2861 175.238L74.9344 174.826C76.596 174.703 78.2577 174.58 79.8945 174.469C81.0725 174.389 82.2567 174.322 83.4348 174.248L83.4596 174.242Z" fill="white"/>
<path d="M81.4942 194.771C81.1594 194.721 80.7688 194.666 80.3782 194.599L77.8981 194.131L74.9283 193.547L71.4562 192.859C71.2806 192.827 71.1084 192.78 70.9416 192.717C70.8473 192.695 70.7595 192.651 70.6854 192.589C70.6113 192.527 70.5529 192.448 70.5149 192.36C70.4769 192.271 70.4604 192.175 70.4666 192.079C70.4729 191.983 70.5018 191.89 70.551 191.807C70.7866 191.266 71.0284 190.725 71.2764 190.184C71.6856 189.293 72.0824 188.395 72.5164 187.516C72.8082 186.924 73.1483 186.356 73.5333 185.819C73.692 185.589 73.9012 185.397 74.1452 185.259C74.3892 185.121 74.6617 185.039 74.9422 185.02C75.2227 185.001 75.5038 185.045 75.7645 185.15C76.0252 185.254 76.2586 185.415 76.4473 185.622C76.7606 185.955 77.0429 186.315 77.2905 186.698C77.8733 187.571 78.4314 188.463 79.0018 189.348L81.7732 193.652C81.8597 193.782 81.9344 193.92 81.9964 194.064C82.1762 194.476 81.9716 194.777 81.4942 194.771Z" fill="white"/>
</g>
<defs>
<clipPath id="clip0_3145_4858">
<rect width="153" height="227" fill="white"/>
</clipPath>
</defs>
</svg>
