<svg width="40" height="40" viewBox="0 0 40 40" fill="none" xmlns="http://www.w3.org/2000/svg">
<path fill-rule="evenodd" clip-rule="evenodd" d="M34.167 39.1663H5.83366C4.72859 39.1663 3.66878 38.7274 2.88738 37.946C2.10598 37.1646 1.66699 36.1047 1.66699 34.9997V1.66634C1.66699 1.44533 1.75479 1.23337 1.91107 1.07709C2.06735 0.920805 2.27931 0.833008 2.50033 0.833008H30.8337C31.0545 0.833448 31.2662 0.921387 31.4224 1.07757C31.5786 1.23376 31.6666 1.44546 31.667 1.66634V13.333H37.5003C37.7213 13.333 37.9333 13.4208 38.0896 13.5771C38.2459 13.7334 38.3337 13.9453 38.3337 14.1663V34.9997C38.3337 36.1047 37.8947 37.1646 37.1133 37.946C36.3319 38.7274 35.2721 39.1663 34.167 39.1663ZM30.0003 34.9997V2.49967H3.33366V34.9997C3.33366 35.6627 3.59705 36.2986 4.06589 36.7674C4.53473 37.2363 5.17062 37.4997 5.83366 37.4997H30.852C30.3025 36.7818 30.0033 35.9037 30.0003 34.9997ZM36.667 14.9997H31.667V34.9997C31.667 35.6627 31.9304 36.2986 32.3992 36.7674C32.8681 37.2363 33.504 37.4997 34.167 37.4997C34.83 37.4997 35.4659 37.2363 35.9348 36.7674C36.4036 36.2986 36.667 35.6627 36.667 34.9997V14.9997ZM5.83366 33.333C5.83366 33.112 5.92146 32.9 6.07774 32.7438C6.23402 32.5875 6.44598 32.4997 6.66699 32.4997H14.167C14.388 32.4997 14.6 32.5875 14.7562 32.7438C14.9125 32.9 15.0003 33.112 15.0003 33.333C15.0003 33.554 14.9125 33.766 14.7562 33.9223C14.6 34.0785 14.388 34.1663 14.167 34.1663H6.66699C6.44598 34.1663 6.23402 34.0785 6.07774 33.9223C5.92146 33.766 5.83366 33.554 5.83366 33.333ZM19.167 24.1663H26.667C26.888 24.1663 27.1 24.2541 27.2563 24.4104C27.4125 24.5667 27.5003 24.7787 27.5003 24.9997C27.5003 25.2207 27.4125 25.4326 27.2563 25.5889C27.1 25.7452 26.888 25.833 26.667 25.833H19.167C18.946 25.833 18.734 25.7452 18.5777 25.5889C18.4215 25.4326 18.3337 25.2207 18.3337 24.9997C18.3337 24.7787 18.4215 24.5667 18.5777 24.4104C18.734 24.2541 18.946 24.1663 19.167 24.1663ZM19.167 28.333H26.667C26.888 28.333 27.1 28.4208 27.2563 28.5771C27.4125 28.7334 27.5003 28.9453 27.5003 29.1663C27.5003 29.3874 27.4125 29.5993 27.2563 29.7556C27.1 29.9119 26.888 29.9997 26.667 29.9997H19.167C18.946 29.9997 18.734 29.9119 18.5777 29.7556C18.4215 29.5993 18.3337 29.3874 18.3337 29.1663C18.3337 28.9453 18.4215 28.7334 18.5777 28.5771C18.734 28.4208 18.946 28.333 19.167 28.333ZM19.167 32.4997H26.667C26.888 32.4997 27.1 32.5875 27.2563 32.7438C27.4125 32.9 27.5003 33.112 27.5003 33.333C27.5003 33.554 27.4125 33.766 27.2563 33.9223C27.1 34.0785 26.888 34.1663 26.667 34.1663H19.167C18.946 34.1663 18.734 34.0785 18.5777 33.9223C18.4215 33.766 18.3337 33.554 18.3337 33.333C18.3337 33.112 18.4215 32.9 18.5777 32.7438C18.734 32.5875 18.946 32.4997 19.167 32.4997ZM6.66699 28.333H14.167C14.388 28.333 14.6 28.4208 14.7562 28.5771C14.9125 28.7334 15.0003 28.9453 15.0003 29.1663C15.0003 29.3874 14.9125 29.5993 14.7562 29.7556C14.6 29.9119 14.388 29.9997 14.167 29.9997H6.66699C6.44598 29.9997 6.23402 29.9119 6.07774 29.7556C5.92146 29.5993 5.83366 29.3874 5.83366 29.1663C5.83366 28.9453 5.92146 28.7334 6.07774 28.5771C6.23402 28.4208 6.44598 28.333 6.66699 28.333ZM15.0003 24.9997C15.0003 25.2207 14.9125 25.4326 14.7562 25.5889C14.6 25.7452 14.388 25.833 14.167 25.833H6.66699C6.44598 25.833 6.23402 25.7452 6.07774 25.5889C5.92146 25.4326 5.83366 25.2207 5.83366 24.9997C5.83366 24.7787 5.92146 24.5667 6.07774 24.4104C6.23402 24.2541 6.44598 24.1663 6.66699 24.1663H14.167C14.388 24.1663 14.6 24.2541 14.7562 24.4104C14.9125 24.5667 15.0003 24.7787 15.0003 24.9997Z" fill="white"/>
<g clip-path="url(#clip0_2356_6024)">
<path d="M21.4817 6.00112C21.5657 6.00112 21.6498 5.99861 21.7338 6.00112C21.9601 6.00864 22.065 6.17896 21.9571 6.39137C21.8723 6.5487 21.7746 6.69794 21.665 6.83739C21.0127 7.70934 20.3652 8.58603 19.6996 9.44683C19.0951 10.2273 18.4784 10.9986 17.8495 11.7605C17.5452 12.1287 17.1768 12.4187 16.7048 12.5265C16.1471 12.6539 15.6568 12.4908 15.2037 12.1544C14.9296 11.9509 14.749 11.6618 14.5708 11.3755C13.9865 10.4354 13.4072 9.49143 12.8328 8.54366C12.5815 8.12859 12.3484 7.70153 12.1072 7.27949C12.0936 7.2558 12.0806 7.23099 12.0695 7.20618C11.9184 6.88031 12.0095 6.70442 12.3513 6.67849C13.5636 6.58279 14.7765 6.48866 15.9899 6.39611C17.0615 6.31249 18.1329 6.23053 19.2035 6.15332C19.9623 6.09757 20.7216 6.05352 21.4809 6.0039L21.4817 6.00112Z" fill="white"/>
<path d="M20.1984 20.0001C19.986 19.9658 19.7321 19.9307 19.4814 19.8822C18.9502 19.7796 18.4222 19.6709 17.8929 19.5627C17.2554 19.4326 16.618 19.3011 15.9806 19.168C15.2348 19.0123 14.4893 18.8543 13.7441 18.6941C13.6309 18.6731 13.5196 18.6418 13.4116 18.6005C13.1422 18.489 13.0482 18.2623 13.1611 17.9811C13.3104 17.6092 13.4695 17.2412 13.6291 16.8736C13.8928 16.2656 14.1464 15.6518 14.4317 15.0547C14.6211 14.6541 14.8335 14.2591 15.0829 13.8962C15.5538 13.2104 16.3973 13.1552 16.9609 13.7621C17.1657 13.9829 17.342 14.2382 17.5046 14.496C17.8804 15.092 18.2395 15.6992 18.6054 16.3018C19.2018 17.2847 19.7978 18.267 20.3937 19.2486C20.4479 19.3388 20.4962 19.4328 20.5384 19.5298C20.6558 19.8002 20.5259 20.004 20.1984 20.0001Z" fill="white"/>
</g>
<defs>
<clipPath id="clip0_2356_6024">
<rect width="10" height="14" fill="white" transform="translate(12 6)"/>
</clipPath>
</defs>
</svg>
