<?xml version="1.0" encoding="utf-8"?>
<!-- Generator: Adobe Illustrator 27.3.1, SVG Export Plug-In . SVG Version: 6.00 Build 0)  -->
<svg version="1.1" id="Layer_1" xmlns="http://www.w3.org/2000/svg" xmlns:xlink="http://www.w3.org/1999/xlink" x="0px" y="0px"
	 viewBox="0 0 263 263" style="enable-background:new 0 0 263 263;" xml:space="preserve">
<style type="text/css">
	.st0{fill:#8AC5DA;}
	.st1{fill:#F06443;}
	.st2{fill:#9CD4DC;}
	.st3{fill:#F26746;}
	.st4{fill:#262525;}
	.st5{fill:#85B2DF;}
	.st6{fill:#7BA9DA;}
	.st7{fill:#3F4446;}
	.st8{fill:#946F82;}
	.st9{fill:#F7A996;}
	.st10{fill:#F7BDB0;}
	.st11{fill:#FEF1ED;}
	.st12{fill:#95B9DD;}
	.st13{fill:#3A7FC2;}
	.st14{fill:#502D24;}
	.st15{fill:#FFFFFF;}
	.st16{fill:#ED6040;}
	.st17{fill:#C3D9F1;}
	.st18{fill:#FBDAD1;}
	.st19{fill:#F7B0A0;}
	.st20{fill:#F5947E;}
	.st21{fill:#F8DA5D;}
	.st22{fill:#D67C75;}
	.st23{fill:#EDA5A6;}
	.st24{fill:#2C8842;}
	.st25{fill:#EDF3F9;}
	.st26{fill:#EE6241;}
	.st27{fill:#6477A4;}
	.st28{fill:#B87232;}
	.st29{fill:#9B9B9B;}
	.st30{fill:#A0D5E0;}
	.st31{fill:#6792A8;}
	.st32{fill:#70A1B9;}
</style>
<g>
	<polygon class="st0" points="143.7,81.6 137.5,90.9 137.5,96.4 155.5,98.5 155.5,90.5 148,78.1 	"/>
	<path class="st0" d="M215.5,88.7c-10.4-7.5-22.4-13.3-34-19.5c-2-1.1-5.3-0.2-8-0.3c0.7,0.4,1.4,0.8,2,1.2
		c-0.7-0.3-1.4-0.7-2.1-0.9c-1.8-0.2-3,0.2-2.3,2.1c0.3,0.7,1,1.1,1.6,1.6c1.8,0.9,3.6,1.7,5.4,2.6c0.2,0.1,0.5,0.2,0.8,0.3
		c0.2,0,0.4,0.1,0.3,0.3c0-0.2-0.2-0.3-0.4-0.3c-0.3-0.1-0.5-0.2-0.8-0.3c-1.8-0.9-3.6-1.8-5.4-2.6c-0.6-0.3-0.9-1-1.8-0.6
		c0.2,0.7,0.4,1.5,0.6,2.2c0.2,0.2,0.5,0.3,0.7,0.5c0.2,0.3,0,0.4-0.3,0.5c0.8,0.9,1.6,1.9,2.6,2.5c1.6,1,3.4,1.8,5.1,2.8
		c0.5,0.3,0.9,0.7,1.4,1c-0.5,0.1-1,0.3-1.5,0.4c-1.3,0.2-2.5,0.5-2.9,1.5c0.4,0.8,0.7,1.6,0.9,2.4c1.5,1.2,3.6,1.2,5.6,1.3
		c2.6,0.2,5,0.5,7.3,1.8c0.8,0.5,2.2,0.8,2.1,1.5c-0.1,0.6-1.6,0.1-2.5,0c-4.3-0.1-27,5.9-31.4,6c-1,2.1-1.2,2.8-2.7,4.8
		c-1,1.3,1.1,2.6,0,3.8c-0.1,0.6-1.8,4.4-2.2,5.7c-0.5,1.7,12.7-5.7,15.1-3.7c4.5,1.6,9.3,2.3,13.9,3.3c0.8,0.2,1.7,0.1,2.4-0.2
		c0.6,0.1,1.2,0.2,1.8,0.3c1-0.1,2,0.3,2.9-0.2c7.5-1.2,15.3-1.8,22.4-3.8C224,103.2,225.4,95.8,215.5,88.7z M180.7,72.6
		c-1-0.3-2-0.8-3-1.3C178.7,71.8,179.7,72.2,180.7,72.6c0.3,0.1,0.7,0.2,1,0.4C181.4,72.8,181.1,72.7,180.7,72.6z"/>
	<g>
		<path class="st1" d="M60.6,182C60.6,182,60.7,182,60.6,182C60.7,182,60.7,181.9,60.6,182L60.6,182z"/>
		<path class="st1" d="M102.9,173.5C102.9,173.5,102.9,173.5,102.9,173.5C102.9,173.5,102.9,173.5,102.9,173.5L102.9,173.5z"/>
		<path class="st1" d="M194.5,109.6c0.6-2.4,0.3-2.9-2.1-3c-4.6-0.1-9.1-0.1-13.7-0.1c-1.1-0.3-2.2-0.7-3.4-0.7
			c-0.4,0-0.9,0.1-1.3,0.2c-4.4-0.2-8.7,0.3-13.1,0.2c-0.3,0-0.5,0-0.7,0.1c0,0-0.1,0-0.1,0c-0.1,0-0.2,0-0.4-0.1
			c-0.6-0.1-1.1-0.2-1.7-0.3c-0.6-0.3-1.2-0.4-1.8-0.4c-4,0-7.9-0.2-11.9,0.1c-1.3,0.1-2.7-0.3-4,0c-0.4,0.1-0.9,0.1-1.3,0.1
			c-1.3-0.2-2.6,0-3.9,0c-0.3,0-0.6-0.1-0.9-0.1c-6.1-0.1-12.2-0.3-18.3,0.1c-0.5,0-0.9,0-1.4-0.1c-5.3-0.3-10.7-0.1-16-0.1
			c-0.5,0-1,0.1-1.5,0.2c-0.3,0-0.5,0.1-0.7,0.1c-0.1,0-0.2,0-0.2,0c-0.1,0-0.2,0-0.4,0c-11.1-1.2-22.3,0.3-33.4-0.7
			c-0.8-0.5-1.5-1.1-1.2-2.2c0.1-0.6,0.1-1.1-0.2-1.7c-0.1-0.2-0.3-0.3-0.5-0.4c-0.9,0.5,0-0.7-0.5-0.5c-0.6-0.5-1.3-0.5-2-0.1
			c-1.1,0.5-0.2,1.6-0.7,2.3c0.1,0.6,0.2,1.3,0.3,1.9c0.7,0.4,0.5,1,0.2,1.5l0.2,2c0.3,0.5,0.3,1,0.3,1.5c0,0,0,0.1,0,0.1
			c-0.1,0.3-0.2,0.6-0.2,0.9c-0.3,3.4,1.1,6.7,1.2,10.1c0.2,3.8,0.5,7.6,1.1,11.4c0.5,3.6,1.2,7.1,1.9,10.7c0,0.5,0.1,0.9,0.1,1.4
			c0.1,0,0.1,0.1,0.2,0.1c0.1,0.3,0.1,0.5,0.2,0.8c-0.1,0.2-0.2,0.4-0.1,0.6c0.1,0.8,0.1,1.6,0.2,2.4c0.3,0.8,0.8,1.5,0.4,2.4
			c0,0.5,0.1,1,0.1,1.5c0.3,0.8,0.8,1.5,0.4,2.4c0.1,0.8,0.2,1.7,0.2,2.5c0.7,0.4,0.5,0.9,0.2,1.4c0.1,0.8,0.1,1.6,0.2,2.4
			c0.3,0.5,0.3,1,0.3,1.5c0.1,0.8,0.1,1.6,0.2,2.4c0.3,0.5,0.3,1,0.3,1.5c0.2,0.2,0.4,0.4,0.6,0.6c0,0,0,0.1,0,0.1
			c-0.1,2.1,2.1,2.8,3.5,2.1c10.8,0.2,21.7,0.2,32.5,0.2c0.2,0.1,0.6,0.1,0.7,0.5c0,0.2-0.1,0.3-0.1,0.5c-0.2,0.5-0.7,0.7-1.1,0.9
			c-1.6,0.8-3.3,1.6-4.9,2.4c-0.5,0.5-1.1,0.7-1.8,0.6c-0.8,0.2-1.6,0.5-2.4,0.7c-0.1,0.3-0.2,0.6-0.5,0.2c-0.3,0.1-0.6,0.1-1,0.2
			c-0.3,0.2-0.6,0.4-1,0.3c-0.3,0-0.6,0.1-1,0.1c-0.5,0.3-0.9,0.7-1.5,0.4c-0.3,0.1-0.7,0.1-1,0.2c-0.2,0.6-0.5,0.6-0.9,0.3
			c-0.5,0.1-1,0.2-1.5,0.2c-0.2,0.5-0.5,0.6-0.9,0.2c-0.5,0.1-1,0.1-1.5,0.2c-0.2,0.5-0.5,0.6-0.9,0.3c-0.5,0.1-1,0.1-1.5,0.2
			c-0.3,0.9-0.8,0.6-1.4,0.3c-0.5,0.1-1,0.1-1.5,0.2c-0.3,0.9-0.8,0.6-1.4,0.3c-0.7,0.1-1.3,0.2-2,0.3c-0.2,0.5-0.5,0.6-0.9,0.2
			c-0.7,0.1-1.3,0.2-2,0.3c-0.2,0.6-0.8,0.6-1.3,0.5c-0.4,0-0.7-0.1-1.1-0.1c-0.3,0.9-0.9,0.6-1.5,0.3c-0.3,0.1-0.6,0.1-0.9,0.2
			c-0.2,0.6-0.5,0.6-1,0.3c-0.8,0.4-1.7,0.8-2.5,1.2c-0.1,0.3-0.2,0.6-0.6,0.6c0,0.3-0.1,0.6-0.5,0.4l-0.1,0
			c0.3,0.4-0.1,0.7-0.5,0.5l0,0c0.3,0.5,0,0.6-0.4,0.5l-0.1,0c0.3,0.1,0.1,0.5-0.2,0.3c-0.5,1.1-1,2.2-1.5,3.3
			c0.1,1.3-0.3,2.8,0.5,4c1.6,0.9,3.7-0.4,5.1,1.2c2.3,0.6,4.6,1.1,6.8-0.5l0.2,0l0.1-0.2c27-0.5,54-0.2,81-0.1
			c0,0.1,0.1,0.2,0.2,0.3c0.1,0.2,0.3,0.4,0.6,0.6c2.1,0.6,4.2,0.6,6.2,0c0.2-0.1,0.5-0.3,0.6-0.5c0.1-0.1,0.1-0.2,0.1-0.3
			c1.8-0.5,3.7,0.2,5.5-0.5l0,0c0.1-0.8,0.4-1.6-0.3-2.3c-1-0.5-2.1-0.3-3.1-0.3c-33.4-0.3-66.7,0.7-100.1-0.4l-0.1-0.1
			c0,0-0.1-0.1-0.2-0.2c-0.1-0.2-0.1-0.3,0.1-0.4c0.1-0.3,0.1-0.6,0.2-0.8c0.1-0.2,0.1-0.6,0.4-0.7l3.5-2.6c0.1-0.6,0.4-0.7,0.9-0.3
			c0.3-0.1,0.7-0.1,1-0.2c0.2-0.5,0.5-0.6,0.9-0.3c0.5-0.1,1-0.1,1.5-0.2c0.3-0.9,0.8-0.6,1.4-0.3c0.5-0.1,1-0.1,1.5-0.2
			c0.6-0.3,1.2-0.8,1.9-0.4c0.5-0.1,1-0.1,1.5-0.2c0.2-0.5,0.5-0.6,0.9-0.2c0.7-0.1,1.3-0.2,2-0.3c0.2-0.5,0.5-0.6,0.9-0.2
			c0.5-0.1,1-0.1,1.5-0.2c0.3-0.9,0.8-0.6,1.4-0.3c0.3,0,0.6-0.1,0.9-0.1c0.3-0.9,0.9-0.6,1.5-0.3c0.4,0,0.7-0.1,1.1-0.1
			c0.2-1,0.8-0.6,1.4-0.4c2.8-0.7,5.5-1.4,8.3-2.2c0.1-0.3,0.2-0.6,0.5-0.2c0.3-0.1,0.7-0.2,1-0.3c0.1-0.2,0.1-0.5,0.4-0.2
			c0.2,0,0.3-0.1,0.5-0.1c0.3-0.2,0.5-0.7,1-0.4c1.2-0.6,2.3-1.2,3.5-1.7c0.1-0.3,0.2-0.5,0.6-0.5c0.1-0.5,0.7-0.3,0.9-0.6
			c2.6-0.8,5.1-2.1,7.6-2.9c0.8,0,1.6-0.1,2.3-0.3c0.2-0.1,0.5-0.2,0.6-0.3c4.1,0,8.3-0.1,12.4-0.3c0.2,0,0.4,0,0.6-0.1
			c13.7-0.2,27.4-0.1,41.1-0.1c0.2-0.2,0.3-0.4,0.5-0.6c0.3-0.2,0.6-0.4,0.8-0.8c1.6-2.4,3-5.4,4.1-8.1c1.2-2.9,1.9-6,3.4-8.8
			c0.3-0.6,0.4-1.1,0.3-1.6c1.7-2.4,2.1-5.1,3.6-7.5c0.8-1.3,1.5-2.5,1.8-4c0.1-0.5,0.2-1,0.2-1.5c0.3-0.7,0.6-1.4,0.9-2.1
			c-0.1-0.2,0-0.4,0.2-0.4c0.4-1,0.8-2,1.3-3c-0.4,0,0-0.4,0.2-0.4c0.3-0.7,0.6-1.5,0.9-2.2c0.1-0.4,0.1-1,0.6-1.2
			c0.1-0.3,0.3-0.7,0.4-1c-0.4-0.4,0-0.4,0.2-0.4c0.2-0.5,0.4-1,0.6-1.6c-0.4,0,0-0.4,0.2-0.4c0.1-0.3,0.3-0.7,0.4-1
			c-0.4-0.4,0-0.4,0.2-0.4l0.5-1.1c-0.1-0.4-0.1-0.7,0.3-0.9l0.4-1c-0.2-0.3,0.2-0.3,0.3-0.5c0.1-0.3,0.3-0.7,0.4-1
			c-0.1-0.4-0.1-0.7,0.3-0.9c0.1-0.3,0.3-0.7,0.4-1c-0.4-0.4,0-0.4,0.2-0.4l0.6-1.6c-0.4,0,0-0.4,0.2-0.4c0.1-0.3,0.3-0.7,0.4-1
			c-0.4-0.4,0-0.4,0.2-0.4c0.2-0.5,0.4-1,0.6-1.6C194,109.9,194.3,109.5,194.5,109.6z M138.7,123.4c0.7-3.6,1.1-7.2,1.7-10.7
			c0.2-0.7-0.1-1.5,0.8-1.8c0.4-0.1,0.9,0,1.3,0c1,0.1,2.1-0.1,3.1,0c3.4,0,6.9,0.5,10.3-0.1c0.1,0,0.1,0,0.2,0
			c0.7,0.1,1.4,0.3,2.2,0.4c0.4,0.1,0.9,0.1,1.3,0.1c0.7,0.1,1.5,0.1,2.2,0.3c0,0.1,0,0.1,0,0.2c-0.8,1.9-1.5,3.7-1.6,5.8
			c0.1,0.4,0.2,0.7,0,1c-0.2,0.3-0.3,0.6-0.4,1c0,0.5-0.2,0.9-0.4,1.4c-1,1.5-0.9,3.4-1.9,4.9c-0.3,0.2-0.6,0.3-0.9,0.4
			c-1.2-0.1-2.4-0.3-3.5-0.5c0,0-0.1,0-0.1,0c-0.2,0-0.3,0-0.5-0.1c0,0-0.1,0-0.1,0c0,0-0.1-0.1-0.1-0.1c-1.8-0.6-3.7-0.4-5.6-0.3
			c-1.4-0.1-2.8-0.2-4.1,0c-0.4,0-0.8,0-1.2,0C140.1,125.1,138.2,125.7,138.7,123.4z M64.7,126.2l0-0.1c-0.2-1.8-0.3-3.7-0.4-5.5
			c-0.2-3-1.3-6.1-1.3-9.1l21.5-0.2c0.7,2.7,0.2,5.5,0.2,8.2c0,2.2,0.3,4.4,0.7,6.6L64.7,126.2z M67.7,145.3l-0.4-1.8
			c-0.8-3.9-1.6-7.9-2.2-11.9c-0.1-0.6-0.2-1.1-0.2-1.7l19.4,0l0.3,15.7L67.7,145.3z M84.5,157.1c-0.1,0.2-0.1,0.4-0.1,0.7
			c0.1,0.6,0.1,1.1,0.1,1.7c0,0.2,0,0.5,0,0.7c0,1.1,0,2.2,0,3.4c-4.6,0.2-9.2,0.4-13.9,0.1c-0.1-1.3-0.3-2.6-0.7-3.9
			c-0.6-2-0.6-4.2-0.7-6.3c0.1-0.4,0.2-0.8,0.1-1.3c-0.2-0.9-0.4-1.7-0.5-2.6c5.1-0.6,10.1-0.4,15.2,0c0.2,0.1,0.4,0.3,0.7,0.3
			c0,0,0,0,0,0c0,0.1,0,0.1,0,0.2c0,2.3,0,4.5,0.1,6.8C84.7,156.9,84.6,157,84.5,157.1z M108.1,132.3c-0.1,0.2-0.2,0.4-0.2,0.6
			c-0.1,0.6,0,1.2-0.2,1.7c-0.6,1.8-0.3,3.7-0.5,5.6c0,0.2,0,0.5,0.1,0.7c0,0.9,0.1,1.8-0.1,2.6c-0.2,0.5-0.3,1-0.7,1.3
			c-0.7,0.5-1.5,0.2-2.2,0c-0.2,0-0.5-0.1-0.7-0.1c-0.2-0.1-0.5-0.1-0.7-0.1c-4.1-0.2-8.1,0-12.2,0.2c-0.1-4-0.4-8-0.7-11.9
			c0-0.9-0.1-1.8-0.1-2.6c0,0,0,0,0.1,0c0.3,0.2,0.8,0.3,1.3,0.3c0.2,0,0.4,0,0.6-0.1c5,0.5,10,0.2,15,0.2c0.2,0,0.5-0.1,0.7-0.1
			c0.2,0,0.5-0.2,0.7,0.1c0,0.2,0,0.5,0.1,0.7C108.6,131.9,108.4,132.1,108.1,132.3z M109.1,113.5c-0.3,2.7-0.4,5.5-0.6,8.3
			c-0.3,3.2-0.5,3.3-3.8,3.4c-4.1,0.1-8.3-0.3-12.4,0.3c0,0,0,0,0,0c-0.7,0-1.3,0-2,0c-0.5-2.5-0.7-5.1-0.6-7.7
			c0.1-2.2,0.2-4.2-0.1-6.3c0.9-0.7,2.5-1,5-0.7c0.2,0,0.3,0,0.5-0.1c0.3,0.2,0.7,0.2,1.1,0.2c0.3,0,0.6-0.1,0.8-0.1
			c0.1,0,0.1,0,0.2,0c0.1,0,0.3,0,0.4,0c0.4,0.1,0.9,0.1,1.3,0.1c2.5,0.1,5,0.1,7.6,0C108.5,110.9,109.3,111.7,109.1,113.5z
			 M128.6,152.9c-0.1,1.4-1,2.8-0.6,4.2c-0.3,0.5-0.5,1.1-0.4,1.7c-0.7,1.7-0.3,3.7-1.1,5.3c-4.8,0.2-9.6,0.3-14.4,0.2
			c-0.4,0-0.7,0.1-1,0.2c-0.1-0.1-0.3-0.2-0.4-0.3c-0.1-0.2-0.1-0.4-0.1-0.7c0.4-1.4,0.4-2.8,0.3-4.3c0-0.2,0-0.5,0.1-0.7
			c0.1-0.7,0.2-1.5,0.3-2.2c0.3-1.5,0.1-3.1,0.6-4.6c2.8-3.4,6.7-0.6,9.9-1.7c0.4,0,0.8,0,1.2,0.1c1.5,0.1,3.1,0.1,4.6,0
			c0.2,0,0.5,0.1,0.7,0.1C129.1,151.1,128.6,152,128.6,152.9z M149.9,157.6c-0.8,1.3-1.3,2.8-1.3,4.4c0.1,0.8-0.2,1.5-0.4,2.3
			c-0.2,0.4-0.6,0.4-0.9,0.4c-4.4,0.1-8.8,0-13.1,0.1c-3.7,0-1.2-2.9-2-5c0.1-0.2,0.1-0.4,0.2-0.6c0,0,0.1-0.1,0.1-0.1
			c0.2-0.2,0.3-0.4,0.3-0.7c0.4-1.1,0.5-2.2,0.6-3.3c0.8-5.2,0.6-4.7,5.2-4.7c0.4,0,0.8-0.1,1.2-0.1c0.4,0,0.8,0,1.2,0.1
			c1.1,0.1,2.1,0,3.2-0.1c0.3,0,0.5-0.1,0.8-0.3c0.8,0,1.5,0.1,2.3,0.1c1.3,0,2.6-0.1,3.9-0.2c0,0,0,0,0,0.1
			c0.3,1.6-0.6,3.1-0.6,4.6C150.8,155.6,150.5,156.6,149.9,157.6z M151.8,144.9c-1.5,0.1-3.1,0.3-4.6,0.3c-0.7,0-1.5-0.1-2.2-0.1
			c-1.2-0.3-2.5-0.2-3.7-0.1c-0.4,0-0.8,0-1.1,0.1c-1.6-0.3-5.2,1.3-4.5-1.3c1.2-4.4-2.4-11.4,5.6-12.9c0.4,0,0.8,0,1.1,0
			c1.3,0.2,2.6,0.1,4,0.1c0.1,0,0.3,0,0.4-0.1c0.4,0.2,0.8,0.4,1.3,0.4c2.7,0,5.5,0.4,8.2,0.3c-0.2,1.5-0.9,3-0.9,4.6
			c0.3,1.2-0.1,2.2-0.7,3.2c-1.1,1.8-1.2,3.9-2,5.8C152.4,144.9,152.1,144.8,151.8,144.9z M169.8,156.7c-0.5,1.4-1.4,2.6-2,3.9
			c-0.6,1.2-1,2.4-1.7,3.5c-0.9,0.6-2.1,0.7-3.4,0.6c-2.1-0.1-4.2,0-6.3,0c-3.4,0-3.4,0-3-3.3c0-0.6,0.1-1.1,0.3-1.7
			c0.9-2,1.5-4.1,1.7-6.4c-0.1-0.8-0.1-1.7,0.5-2.4c0.1-0.2,0.2-0.3,0.3-0.5c0.3,0.2,0.8,0.4,1.3,0.4c0.7,0,1.3-0.3,1.7-0.7
			c0.2,0.1,0.5,0.1,0.8,0.1c4,0,8.2-0.7,12.2-0.1C171.2,152.3,170.6,154.5,169.8,156.7z M179.6,130.2c-1.3,2.6-0.8,5.6-2.2,8.1
			c-0.6,1.1-1.3,2-1.8,3.2c-0.5,1.3-0.7,2.6-1.3,3.7c-0.2,0.1-0.3,0.2-0.5,0.3c-4.5-0.7-9.2-0.1-13.8-0.1c-0.5,0-0.9,0.1-1.3,0.3
			c-0.2-0.1-0.5-0.2-0.6-0.5c-0.1-0.5-0.1-1-0.2-1.5c-0.2-1,0.2-1.8,0.7-2.6c1.1-2,1.5-4.1,1.7-6.3c-0.2-1,0-1.9,0.6-2.8
			c0.4-0.7,0.7-1.4,1.2-2c0.4-0.3,0.9-0.4,1.4-0.4c5.3,0,10.6,0,15.8,0c0.2,0,0.4,0,0.6,0C179.8,129.9,179.7,130,179.6,130.2z
			 M182,126.5l-19.4,0.5l3-14.6l24,0.9L182,126.5z"/>
	</g>
	<path class="st0" d="M140.3,93.1c-0.2,0.2-0.4,0.3-0.7,0.3c-0.1,0.1-0.1,0.3-0.2,0.4c0.1,0.2,0.2,0.3,0.3,0.5
		c0.2,0.3,0.4,0.5,0.5,0.8c0.2-0.8,0.4-1.6,0.5-2.4C140.7,92.8,140.5,92.9,140.3,93.1z"/>
	<path class="st0" d="M169.6,83.1c-0.1-0.1-0.2-0.2-0.2-0.3c-0.5-0.6-1.1-1-1.6-1.4c0.6,0.6,1.2,1.1,1.7,1.7c0,0,0,0,0,0
		C169.5,83.1,169.5,83.1,169.6,83.1z"/>
	<path class="st2" d="M60.3,101.2c-0.6-0.2-1.2-0.4-1.8-0.6c-2.2-1.5-2.1-2.8,0.4-4.6c0.6-0.3,1.2-0.4,1.8-0.7
		c0.9-0.4,2.4-0.5,1.6-2c-0.6-1.2-1.8-1.8-3.2-1.1c-0.6,0.3-1.1,0.9-1.7,1.3c-2.7,1.4-3.3,1.4-4.8-0.5c-0.2-0.8,0.2-1.6,0.3-2.4
		c0-0.2,0.1-0.4,0.2-0.6c0.1-0.2,0.2-0.4,0.3-0.5c0.1-0.1,0.1-0.2,0.2-0.2c0.1-0.1,0.3-0.3,0.4-0.4c0.1-0.1,0.1-0.1,0.2-0.2
		c0.1-0.1,0.3-0.3,0.4-0.4c0.1-0.1,0.1-0.1,0.2-0.2c0.2-0.2,0.4-0.4,0.6-0.5c0.1-0.1,0.2-0.2,0.4-0.4c0.1-0.1,0.2-0.2,0.4-0.4
		c0.1-0.1,0.1-0.1,0.2-0.2c0.1-0.1,0.3-0.3,0.4-0.4c0.1-0.1,0.1-0.1,0.2-0.2c0.1-0.1,0.3-0.2,0.5-0.3c0.2-0.1,0.3-0.1,0.5-0.2
		c0.4,0,0.7-0.2,1-0.4c3.3,0.3,5.8,2.1,8.2,4.2c2.1,1.8,2.1,1.7,4-0.2c0.4-0.4,0.8-0.8,1.2-1.1c0.4-0.1,0.3-0.7,0.7-0.8l0,0
		c0.2-0.3,0.7-0.2,0.8-0.6l0,0c0.2-0.1,0.4-0.2,0.5-0.5l0,0c0.2-0.1,0.4-0.2,0.5-0.5l0,0c0.2-0.1,0.4-0.2,0.5-0.5l0,0
		c0.3-0.1,0.4-0.2,0.5-0.5l0,0c0.4-0.1,0.3-0.7,0.6-0.9c0.8-0.8,1.6-1.6,2.4-2.4c0.2-0.3,0.7-0.1,0.9-0.6l0,0
		c0.3-0.1,0.4-0.2,0.5-0.5l0,0c0.3-0.1,0.4-0.2,0.5-0.5l0,0c0.2-0.1,0.4-0.2,0.5-0.5l0,0c0.2-0.1,0.4-0.2,0.5-0.5l0,0
		c0.4-0.1,0.3-0.7,0.6-0.8l0,0c0.2-0.3,0.7-0.2,0.8-0.7c3.1-2.4,6.2-4.8,9.3-7.2c0.8-1.2,2-1.2,3.2-1.3c4.2-0.1,8,1.1,11.8,2.5
		c7.4,2.8,14.6,5.9,21.4,10c1.5,1.7,3.6,3.1,2.3,5.8c-5.9,0.6-11.1,7.8-17.8,1.4c-1.8-1.7-5.1-0.8-7.7,0.4c-0.9,0.5-1.8,1.1-2.9,1.2
		c-10.7-6-15.9,3.9-21.6,8.9c-7.1,6.1-13.5,3.5-20.5,2.3C60.6,101.3,60.4,101.3,60.3,101.2L60.3,101.2z"/>
	<path class="st3" d="M164.1,189c-33.5,0-66.9,0-100.4-0.1c-1,0-2-0.5-3-0.8c33.5,0,66.9,0,100.4,0c1.1,0,2.2,0.5,3.3,0.8
		C164.4,189.2,164.3,189.2,164.1,189z"/>
	<path class="st4" d="M151.5,191.8c2.3,0,4.5,0,6.8,0c0.2,0.1,0.2,0.3,0.3,0.5c-1.9,3.5-3.7,7.1-5.9,10.5c-0.2,0.4-2.5-0.5-3.8-0.8
		c0.7-3.2,1.5-6.5,2.2-9.7C151.3,192.1,151.4,191.9,151.5,191.8z"/>
	<path class="st4" d="M62.9,191.8c2.3,0,4.6,0,7,0c-1.8,3.6-3.5,7.4-5.6,10.9c-0.2,0.4-2.5-0.4-3.8-0.6c0.7-3.3,1.4-6.5,2.1-9.8
		c0-0.2,0.1-0.3,0.1-0.5C62.7,191.8,62.8,191.8,62.9,191.8z"/>
	<path class="st3" d="M70.1,191.6c0.5-0.2,1.1-0.7,1.6-0.7c25.9,0,51.9,0,77.8,0c0.5,0,1,0.4,1.5,0.6c-0.6,0.1-1.3,0.2-1.9,0.2
		c-25.9,0-51.7,0-77.6,0C71,191.7,70.6,191.6,70.1,191.6z"/>
	<path class="st5" d="M171,162.6c-0.3-0.2-0.7-0.4-1-0.5c-0.7,0-1.3-0.3-1.9-0.7c-0.9-0.8-1.6-1.7-1.4-3c0.2-0.7,0.6-1.3,1.4-1.4
		c0.2,0,0.4,0.1,0.6,0.2c0.6,0.7,0.5,1.7,1.3,2.2c0.7,0.8,1.8,1.2,2.4,2.2c5.9,2.4,12.2,2.5,18.4,2.2c6.8-0.4,13.5-1.9,19.9-4.3
		c0.5-0.2,1.1-0.1,1.6-0.1c-0.4,0.4-0.7,1-1.2,1.2c-6.4,2.6-13,3.9-19.9,4.4c-6.6,0.4-13.1-0.1-19.5-2
		C171.4,163,171.1,163,171,162.6z"/>
	<path class="st1" d="M59.4,96.3c-0.3,1.5-0.6,2.9-1,4.4c-0.3,0.7-0.7,1.3-1,2c-2.5-2.2-5-4.5-7.5-6.7c0-0.4,0-0.8,0-1.2
		c0.6-0.8,1.1-1.5,1.7-2.3c0.2-0.3,0.5-0.4,0.9-0.3c0.2,0.1,0.4,0.2,0.4,0.4c1.5,0.1,2.9,0.3,4.4,0.4C59,93.4,60,94.4,59.4,96.3z"/>
	<path class="st6" d="M178.1,148.4c1.5,0.6,3,1.3,4.5,1.9c-1.3,1.5-2.6,2.9-3.9,4.4c-0.3-0.2-0.4-0.6-0.4-0.9
		c-0.1-1.4,2.3-1.5,1.6-3c-0.4-0.8-1.4-0.4-2.2-0.2c-0.2,0.1-0.4,0.1-0.6,0.2c-0.1,0-0.2,0.1-0.3,0.1c-0.2,0.1-0.4,0.1-0.6,0.2
		c-1.4,0.6-2.9,1.2-4.2,1.9c-1,0.6-2.6,1.4-2.8,0.2c-0.3-2.1,2.3-2.3,3.5-3.3c0.3-0.2,0.6-0.3,0.9-0.5c1.2-0.6,2.4-1.3,3.8-1.2
		C177.7,148.2,177.9,148.3,178.1,148.4z"/>
	<path class="st1" d="M172.4,161.6c-1-0.7-2-1.3-3-2c-0.3-1-0.1-2,0.7-2.7c1.4-0.7,2.9-1.4,4.4-0.3
		C173.7,158.3,173.1,160,172.4,161.6z"/>
	<path class="st5" d="M174.4,156.6c-1.4,0.2-2.8,0.4-4.1,0.7c-0.6,0.4-1.2,0.4-1.8,0l-0.1-0.1c-0.4-0.5-0.3-1,0-1.5
		c0.8-0.6,1.7-0.7,2.7-0.6c1.4-0.2,2.7-0.6,4-0.9c1.2-0.1,2.3-1.1,3.6-0.5c0,0.4,0.1,0.7,0.1,1.1C177.3,155.4,175.9,156,174.4,156.6
		z"/>
	<path class="st7" d="M173.5,68.9c2.9,1.2,5.8,2.4,8.6,3.8c0.7,0.3,1,1.4,1.5,2.1c-0.2,0.1-0.5,0.2-0.7,0.2
		c-0.2-0.5-0.2-1.1-0.6-1.3c-2.9-1.6-5.9-3-8.8-4.5C173.5,69.1,173.5,69,173.5,68.9z"/>
	<path class="st3" d="M158.7,191.6c1.8-0.2,3.7-0.4,5.5-0.5C162.4,191.2,160.6,191.4,158.7,191.6z"/>
	<path class="st3" d="M57.9,190.9c1.6,0.3,3.3,0.6,4.9,1c0,0-0.1,0-0.1,0c-0.3,0.2-0.3,0.1-0.2-0.2c-1.6-0.2-3.1-0.3-4.7-0.5
		c-0.1-0.1-0.2-0.2-0.1-0.2C57.8,190.9,57.9,190.9,57.9,190.9z"/>
	<path class="st1" d="M57.9,190.9c0,0.1,0,0.2,0,0.3c-0.2-1.4-0.3-2.8-0.5-4.2C57.6,188.3,57.7,189.6,57.9,190.9z"/>
	<path class="st1" d="M62.9,148c0.1,0.8,0.2,1.6,0.4,2.4C63.2,149.6,63.1,148.8,62.9,148z"/>
	<path class="st1" d="M63.4,151.9c0.1,0.8,0.2,1.6,0.4,2.4C63.6,153.5,63.5,152.7,63.4,151.9z"/>
	<path class="st1" d="M58.6,111.9c0.1,0.6,0.2,1.3,0.3,1.9C58.8,113.2,58.7,112.6,58.6,111.9z"/>
	<path class="st1" d="M61,131.9c0.1,0.7,0.2,1.3,0.3,2C61.2,133.2,61.1,132.5,61,131.9z"/>
	<path class="st1" d="M60,123.6c0.1,0.6,0.2,1.3,0.3,1.9C60.2,124.9,60.1,124.3,60,123.6z"/>
	<path class="st1" d="M64.4,160.7c0.1,0.5,0.2,1,0.3,1.5C64.6,161.7,64.5,161.2,64.4,160.7z"/>
	<path class="st1" d="M58.1,108c0.1,0.5,0.2,1,0.3,1.5C58.3,109,58.2,108.5,58.1,108z"/>
	<path class="st1" d="M64.9,164.6c0.1,0.5,0.2,1,0.3,1.5C65.1,165.6,65,165.1,64.9,164.6z"/>
	<path class="st1" d="M72,182c0.6-0.1,1.3-0.2,1.9-0.4C73.3,181.7,72.7,181.8,72,182z"/>
	<path class="st1" d="M96.3,173.3c-0.6,0.2-1.2,0.4-1.8,0.6C95.1,173.7,95.7,173.5,96.3,173.3z"/>
	<path class="st1" d="M60.5,127.5c0.1,0.5,0.2,1,0.3,1.5C60.7,128.5,60.6,128,60.5,127.5z"/>
	<path class="st1" d="M62.5,144.1c0.1,0.5,0.2,1,0.2,1.5C62.7,145.1,62.6,144.6,62.5,144.1z"/>
	<path class="st8" d="M172.5,73c-0.5-0.3-1.1-0.5-1.6-0.8c0.1-0.3,0.1-0.6,0.2-0.9c0.5,0.4,1,0.7,1.5,1.1
		C172.8,72.6,172.8,72.8,172.5,73z"/>
	<path class="st1" d="M59,115.4c0.1,0.8,0.2,1.6,0.4,2.4C59.3,117,59.1,116.2,59,115.4z"/>
	<path class="st1" d="M88.6,175.4c-0.5,0.1-1,0.3-1.5,0.4C87.6,175.7,88.1,175.6,88.6,175.4z"/>
	<path class="st1" d="M164.1,189c0.1,0,0.2,0,0.4,0c-0.1,0.7-0.2,1.4-0.2,2.1C164.2,190.3,164.2,189.7,164.1,189z"/>
	<path class="st1" d="M61.5,135.9c0.1,0.6,0.2,1.3,0.3,1.9C61.7,137.1,61.6,136.5,61.5,135.9z"/>
	<path class="st1" d="M168.5,168.8c0.4-0.4,0.7-0.8,1.1-1.3C169.3,168,168.9,168.4,168.5,168.8z"/>
	<path class="st1" d="M102.3,170c-0.4,0.3-0.8,0.6-1.1,0.9C101.6,170.6,101.9,170.3,102.3,170z"/>
	<path class="st1" d="M90.6,174.9c-0.3,0.1-0.7,0.2-1,0.3C89.9,175.2,90.2,175.1,90.6,174.9z"/>
	<path class="st1" d="M59.5,119.8c0.1,0.6,0.2,1.3,0.3,1.9C59.8,121,59.7,120.4,59.5,119.8z"/>
	<path class="st1" d="M64,156.8c0.1,0.5,0.1,0.9,0.2,1.4C64.2,157.8,64.1,157.3,64,156.8z"/>
	<path class="st7" d="M172.7,74.9c0.3,0.3,0.5,0.5,0.8,0.8c-0.5-0.1-1-0.2-1.6-0.3c-0.1-0.2-0.2-0.4-0.3-0.5
		C172,74.8,172.3,74.8,172.7,74.9z"/>
	<path class="st1" d="M97.9,176.2c0.3-0.1,0.6-0.3,1-0.4C98.5,175.9,98.2,176,97.9,176.2z"/>
	<path class="st1" d="M78.8,177.4c-0.5,0.1-0.9,0.2-1.4,0.3C77.9,177.6,78.3,177.5,78.8,177.4z"/>
	<path class="st1" d="M69.2,182.4c0.5-0.1,0.9-0.2,1.4-0.3C70.1,182.2,69.6,182.3,69.2,182.4z"/>
	<path class="st1" d="M178.1,148.4c-0.1,0-0.2,0-0.3,0c-0.2-0.1-0.2-0.2-0.2-0.3c0.1-0.1,0.1-0.1,0.2-0.1c0.2-0.3,0.5-0.6,0.7-0.9
		C178.3,147.5,178.2,148,178.1,148.4z"/>
	<path class="st1" d="M62,140.3c0.1,0.5,0.2,0.9,0.2,1.4C62.2,141.2,62.1,140.7,62,140.3z"/>
	<path class="st1" d="M75.9,177.9c-0.5,0.1-0.9,0.2-1.4,0.3C74.9,178.1,75.4,178,75.9,177.9z"/>
	<path class="st1" d="M85.8,179.5c0.5-0.1,0.9-0.2,1.4-0.4C86.7,179.3,86.2,179.4,85.8,179.5z"/>
	<path class="st1" d="M57.7,104.6c0.1,0.5,0.1,1,0.2,1.5C57.8,105.6,57.8,105.1,57.7,104.6z"/>
	<path class="st1" d="M83.2,180c0.5-0.1,1-0.2,1.5-0.3C84.2,179.8,83.7,179.9,83.2,180z"/>
	<path class="st1" d="M80.9,180.5c0.5-0.1,0.9-0.2,1.4-0.3C81.8,180.3,81.3,180.4,80.9,180.5z"/>
	<path class="st1" d="M67.2,179.4c-0.5,0.1-1,0.2-1.5,0.3C66.2,179.6,66.7,179.5,67.2,179.4z"/>
	<path class="st1" d="M64.8,179.9c-0.3,0.1-0.7,0.2-1,0.3C64.1,180.1,64.4,180,64.8,179.9z"/>
	<path class="st1" d="M182.5,137.7c0.1-0.3,0.2-0.6,0.3-0.9C182.7,137.1,182.6,137.4,182.5,137.7z"/>
	<path class="st1" d="M78.4,180.9c0.3-0.1,0.6-0.2,0.9-0.2C79,180.7,78.7,180.8,78.4,180.9z"/>
	<path class="st1" d="M69.5,179c-0.4,0.2-0.8,0.4-1.3,0.5C68.7,179.3,69.1,179.1,69.5,179z"/>
	<path class="st1" d="M75.5,181.4c0.3-0.1,0.6-0.2,0.9-0.2C76.1,181.2,75.8,181.3,75.5,181.4z"/>
	<path class="st9" d="M49.9,94.8c0,0.4,0,0.8,0,1.2C49.9,95.6,49.9,95.2,49.9,94.8z"/>
	<path class="st1" d="M72.5,178.5c-0.3,0.1-0.6,0.1-0.9,0.2C71.8,178.6,72.2,178.6,72.5,178.5z"/>
	<path class="st1" d="M66.7,182.9c0.3-0.1,0.6-0.2,0.9-0.3C67.3,182.7,67,182.8,66.7,182.9z"/>
	<path class="st1" d="M64.8,183.4c0.3-0.1,0.6-0.2,0.9-0.3C65.4,183.2,65.1,183.3,64.8,183.4z"/>
	<path class="st1" d="M81.2,177c-0.3,0.1-0.6,0.2-0.9,0.3C80.6,177.2,80.9,177.1,81.2,177z"/>
	<path class="st1" d="M83.7,176.5c-0.3,0.1-0.6,0.2-0.9,0.2C83.1,176.7,83.4,176.6,83.7,176.5z"/>
	<path class="st1" d="M60.9,186.7c0.1-0.2,0.3-0.5,0.4-0.7C61.1,186.2,61,186.4,60.9,186.7z"/>
	<path class="st1" d="M86.1,176c-0.3,0.1-0.6,0.2-0.9,0.3C85.5,176.2,85.8,176.1,86.1,176z"/>
	<path class="st10" d="M83.2,77.2c-0.3,0.2-0.6,0.4-0.8,0.7C82.6,77.6,82.9,77.4,83.2,77.2z"/>
	<path class="st1" d="M102.9,173.6c0.3-0.2,0.6-0.4,1-0.7C103.5,173.1,103.2,173.3,102.9,173.6z"/>
	<path class="st11" d="M101.8,169c0.2,0.2,0.5,0.3,0.7,0.5C102.2,169.3,102,169.2,101.8,169z"/>
	<path class="st1" d="M186.6,127.8c0.2-0.4,0.4-0.8,0.6-1.2C187,127,186.8,127.4,186.6,127.8z"/>
	<path class="st1" d="M60.7,188c-0.2-0.1-0.3-0.2-0.5-0.3c0.1-0.1,0.3-0.1,0.4-0.2C60.7,187.7,60.7,187.8,60.7,188z"/>
	<path class="st10" d="M82.3,77.9c-0.2,0.3-0.4,0.6-0.6,0.8C81.9,78.4,82.1,78.2,82.3,77.9z"/>
	<path class="st10" d="M79.7,80.7c-0.3,0.2-0.6,0.4-0.9,0.6C79.1,81,79.4,80.8,79.7,80.7z"/>
	<path class="st10" d="M76.4,83.7c-0.2,0.3-0.4,0.6-0.6,0.9C76,84.3,76.2,84,76.4,83.7z"/>
	<path class="st10" d="M73,87.1c-0.2,0.3-0.4,0.6-0.7,0.8C72.6,87.7,72.8,87.4,73,87.1z"/>
	<path class="st8" d="M172.7,74.9c-0.3,0-0.7,0-1,0c-0.1-0.2-0.1-0.3-0.2-0.5C171.9,74.6,172.3,74.7,172.7,74.9z"/>
	<path class="st1" d="M170.9,164.6c0.1-0.3,0.3-0.6,0.4-1C171.2,163.9,171.1,164.2,170.9,164.6z"/>
	<path class="st1" d="M171,162.6c0.2,0.2,0.5,0.3,0.7,0.5c-0.1,0.1-0.2,0.2-0.3,0.2C171.3,163.1,171.2,162.8,171,162.6z"/>
	<path class="st10" d="M73.9,86.5c-0.3,0.2-0.6,0.4-0.8,0.6C73.3,86.9,73.6,86.7,73.9,86.5z"/>
	<path class="st1" d="M191.3,117.3c0.1-0.3,0.2-0.6,0.3-0.9C191.5,116.7,191.4,117,191.3,117.3z"/>
	<path class="st1" d="M189.8,120.7c0.1-0.3,0.2-0.6,0.3-0.9C190,120.1,189.9,120.4,189.8,120.7z"/>
	<path class="st1" d="M190.5,118.8c0.1-0.2,0.2-0.3,0.3-0.5C190.7,118.4,190.6,118.6,190.5,118.8z"/>
	<path class="st9" d="M158.6,192.3c-0.1-0.2-0.2-0.3-0.3-0.5c0.1,0,0.2,0,0.4,0C158.6,192,158.6,192.1,158.6,192.3z"/>
	<path class="st10" d="M74.9,85.6c-0.2,0.2-0.3,0.3-0.5,0.5C74.6,85.9,74.7,85.7,74.9,85.6z"/>
	<path class="st10" d="M75.4,85.1c-0.2,0.2-0.3,0.3-0.5,0.5C75,85.4,75.2,85.2,75.4,85.1z"/>
	<path class="st10" d="M74.4,86c-0.2,0.2-0.3,0.3-0.5,0.5C74.1,86.4,74.2,86.2,74.4,86z"/>
	<path class="st10" d="M75.8,84.6c-0.2,0.2-0.3,0.3-0.5,0.5C75.5,84.9,75.7,84.7,75.8,84.6z"/>
	<path class="st10" d="M80.2,80.2c-0.2,0.2-0.3,0.3-0.5,0.5C79.9,80.5,80.1,80.3,80.2,80.2z"/>
	<path class="st10" d="M80.7,79.7c-0.2,0.2-0.3,0.3-0.5,0.5C80.4,80,80.6,79.9,80.7,79.7z"/>
	<path class="st10" d="M81.2,79.2c-0.2,0.2-0.3,0.3-0.5,0.5C80.9,79.5,81.1,79.4,81.2,79.2z"/>
	<path class="st10" d="M81.7,78.7c-0.2,0.2-0.3,0.3-0.5,0.5C81.4,79,81.5,78.9,81.7,78.7z"/>
	<path class="st1" d="M185.6,130.4c0-0.1,0-0.3,0-0.4c0,0,0.1,0,0.2-0.1C185.7,130.2,185.6,130.3,185.6,130.4z"/>
	<path class="st1" d="M189.1,122.2c0.1-0.1,0.2-0.3,0.2-0.4C189.3,121.9,189.2,122.1,189.1,122.2z"/>
	<path class="st1" d="M192,115.4c0.1-0.1,0.2-0.3,0.2-0.4C192.2,115.1,192.1,115.2,192,115.4z"/>
	<path class="st1" d="M102.3,174c0.2-0.2,0.4-0.3,0.6-0.5C102.7,173.6,102.5,173.8,102.3,174z"/>
	<path class="st1" d="M92,174.6c-0.2,0.1-0.3,0.1-0.5,0.2C91.7,174.7,91.9,174.6,92,174.6z"/>
	<path class="st1" d="M96.9,176.5c0.1-0.1,0.3-0.1,0.4-0.2C97.3,176.4,97.1,176.5,96.9,176.5z"/>
	<path class="st1" d="M95.4,177c0.2-0.1,0.3-0.1,0.5-0.2C95.7,176.9,95.6,176.9,95.4,177z"/>
	<path class="st1" d="M188.5,123.6c0-0.1,0-0.3,0-0.4c0,0,0.1,0,0.2-0.1C188.6,123.3,188.6,123.5,188.5,123.6z"/>
	<path class="st1" d="M184.1,133.9c0-0.1,0-0.3,0-0.4c0,0,0.1,0,0.2-0.1C184.2,133.6,184.2,133.7,184.1,133.9z"/>
	<path class="st1" d="M192.9,113.4c0-0.1,0-0.3,0-0.4c0,0,0.1,0,0.2-0.1C193,113.1,192.9,113.2,192.9,113.4z"/>
	<path class="st1" d="M194.3,110c0-0.1,0-0.3,0-0.4c0,0,0.1,0,0.2-0.1C194.5,109.7,194.4,109.8,194.3,110z"/>
	<path class="st1" d="M61.2,181.4c-0.2,0.2-0.4,0.4-0.6,0.6C60.8,181.8,61,181.6,61.2,181.4z"/>
	<path class="st1" d="M60.7,181.9c-0.2,0.2-0.4,0.3-0.5,0.5C60.3,182.2,60.5,182.1,60.7,181.9z"/>
	<path class="st1" d="M60.1,182.4c-0.1,0.2-0.3,0.3-0.4,0.5C59.8,182.7,59.9,182.5,60.1,182.4z"/>
	<path class="st1" d="M59.6,182.9c-0.1,0.2-0.3,0.3-0.4,0.5C59.3,183.2,59.4,183,59.6,182.9z"/>
	<path class="st1" d="M59.1,183.4c0,0.1,0.1,0.1,0.1,0.2c-0.1,0-0.2,0.1-0.3,0.1C58.9,183.5,58.9,183.4,59.1,183.4z"/>
	<path class="st1" d="M193.5,112c0.1-0.1,0.2-0.3,0.2-0.4C193.6,111.7,193.6,111.8,193.5,112z"/>
	<path class="st1" d="M187.6,125.6c0.1-0.1,0.2-0.3,0.2-0.4C187.8,125.3,187.7,125.5,187.6,125.6z"/>
	<path class="st1" d="M181.2,140.7c0-0.1,0-0.3,0-0.4c0,0,0.1,0,0.2-0.1C181.3,140.4,181.2,140.5,181.2,140.7z"/>
	<path class="st1" d="M179.7,144.1c0-0.1,0-0.2,0-0.4c0,0,0.1,0,0.2-0.1C179.8,143.8,179.8,144,179.7,144.1z"/>
	<path class="st9" d="M62.6,191.7c0.1,0,0.2,0.1,0.2,0.2c-0.1,0.1-0.2,0.3-0.3,0.4C62.5,192.1,62.5,191.9,62.6,191.7z"/>
	<path class="st12" d="M52.1,59.8c0,0.1,0.1,0.2,0.1,0.3c0,0-0.1,0.1-0.1,0.1C52.1,60.1,52.1,60,52.1,59.8z"/>
	<path class="st9" d="M151.5,191.8c-0.1,0.1-0.3,0.3-0.4,0.4c0-0.2,0.1-0.3,0.1-0.5C151.3,191.7,151.4,191.7,151.5,191.8z"/>
	<path class="st13" d="M91.1,129.9c5.7,0,11.4,0,17.2,0c0.7,2.5-1.5,4.5-1.4,6.8c-0.3,0.6-0.6,1.2-0.6,1.9c0.1-0.4,0-0.9,0.3-1.3
		c0.6-1.1,0.1-2.6,1.1-3.6c0.5-0.1,0.6,0.2,0.7,0.6c-0.2,2.1-0.3,4.2-0.5,6.3c-0.1,0.3-0.1,0.7-0.1,1c-0.1,0.7,0.1,1.4-0.2,2
		c-0.6,0.5,0,1.4-0.7,1.9c-0.8,0-1.6,0-2.4,0c-0.2-0.2-0.2-0.5-0.2-0.7c0,0-0.2-0.1-0.2-0.1c0,0,0.1,0.2,0.1,0.2s-0.1,0.2-0.1,0.2
		c-0.2,0.2-0.4,0.2-0.5,0.5c-5.2-0.4-10.5,1-15.7-0.7c0.1-0.3,0.1-0.6,0.2-1c0.1-0.7,0-1.3,0.1-2c0-0.2,0-0.5,0.1-0.7
		c0.1-0.5,0.1-1,0.1-1.4C89.2,136.6,89,132.9,91.1,129.9z"/>
	<path class="st13" d="M96.4,110c3.8,0,7.6,0.2,11.4,0c2-0.1,2.5,0.6,2.3,2.5c-0.4,4-0.7,7.9-0.9,11.9c-0.1,1.3-0.5,1.8-1.9,1.8
		c-5.1-0.1-10.2-0.1-15.3-0.1c-0.7-0.8-0.5-1.7-0.3-2.5c0.8-4.1,1.6-8.2,2.7-12.2c0.2-0.5,0.6-0.9,1.1-1.2
		C95.7,110.1,96.1,110,96.4,110z"/>
	<path class="st4" d="M80.3,158.4c1.1,0.1,2.3,0.3,3.4,0.4c0.1,0,0.2,0,0.3,0c0.5,0.2,0.9,0.5,1,1.1c0,1.4,0,2.8,0,4.1
		c-0.2,0.2-0.4,0.3-0.6,0.4c-0.5,0.2-1,0.3-1.6,0.3c-4.7-0.5-9.6,1.3-14.2-1l0,0c-0.2-0.2-0.2-0.4-0.1-0.7c1.1-1,2-2.4,3.3-2.9
		c2.2-0.8,4.7-1.1,7-1.6c0.5,0.3,1.2,0.3,1.5,0.9c0.1,0,0.1,0.1,0.2,0.1c0,0,0.2,0,0.2,0s-0.2,0-0.2,0s-0.1-0.2-0.1-0.2
		c-0.1-0.3-0.2-0.5-0.3-0.8C80.1,158.7,80.2,158.5,80.3,158.4z"/>
	<path class="st5" d="M166.6,156.8c-3.6-0.4-6.3-2-7.3-5.8c0.3-0.5,0.1-1.1,0.3-1.7c0.4-0.9,0.8-1.8,1.3-2.7c-0.1-0.4,0-0.8,0.5-0.8
		c0.4-0.3,0.7-0.6,1.1-0.9c2.1-1.2,4.1-2.3,6.2-3.5c-1.6,1.4-3.2,2.8-4.8,4.2c0.2,0,0.3,0,0.3,0.1c0,0.2-0.2,0.3-0.3,0.5
		c-0.8,0.4-0.9,1.4-1.6,1.9c-0.3,0.3-0.4,0.7-0.5,1.1c0,0.2-0.1,0.4-0.1,0.6c-0.5,4,3.8,3.6,5.3,5.9
		C167,156.2,166.9,156.5,166.6,156.8z"/>
	<path class="st1" d="M182,130.5c-0.8-0.2-1.6-0.7-2.4-0.7c-6.1-0.1-12.3,0-18.4,0C168.2,130,175.1,130.2,182,130.5z"/>
	<path class="st1" d="M162.2,126.1c7.2,0,14.3,0,21.5,0.1C176.5,126.1,169.4,126.1,162.2,126.1z"/>
	<path class="st1" d="M64.7,126.3c6.5,0,13-0.1,19.6-0.1c-0.5,0.3-1,0.8-1.5,0.9c-5.9,0.1-11.8,0-17.6,0
		C64.9,127,64.8,126.5,64.7,126.3z"/>
	<path class="st1" d="M84.2,129.7c-6.6,0.1-13.3,0.2-19.9,0.3c0.6-0.3,1.1-0.9,1.7-0.9c5.6-0.1,11.2-0.1,16.8,0
		C83.2,129,83.7,129.4,84.2,129.7z"/>
	<path class="st3" d="M66.2,145.7c6.2,0,12.4,0,18.6,0c-0.7,0.3-1.3,0.8-2,0.9c-4.9,0.1-9.7,0.1-14.6,0
		C67.5,146.5,66.8,146,66.2,145.7z"/>
	<path class="st1" d="M84.7,149.4c-6,0-12,0-18.1,0c0.6-0.3,1.1-0.9,1.7-0.9c4.9-0.1,9.8-0.1,14.7,0
		C83.6,148.5,84.2,149.1,84.7,149.4z"/>
	<path class="st13" d="M128.7,149.5c1.7,0.1,0.8,1.3,0.7,2c-0.2,2.2-0.6,4.5-1,6.7c-0.1,0.1-0.2,0.2-0.3,0.3c-0.5,0.3-1.1,0.3-1.6,0
		C126.1,155.1,127.2,152.2,128.7,149.5z"/>
	<path class="st1" d="M161.1,149c0.2-0.4,0.4-0.7,0.6-1.1c0.7-0.1,1.5-0.1,2,0.6c3.3,0,6.5,0,9.8,0c0.3,0.4,0.3,0.8-0.1,1.2
		c-3.6,1.2-7.2,0.7-10.8,0.4C161.9,149.9,161.6,149.4,161.1,149z"/>
	<path class="st1" d="M163.7,146c0.1-0.1,0.2-0.2,0.3-0.3c3.8,0,7.6,0,11.5,0c-3.9,0.3-7.8,0.6-11.7,0.9c-0.1-0.1-0.2-0.2-0.1-0.4
		C163.6,146.1,163.6,146,163.7,146z"/>
	<path class="st14" d="M126.6,165.1c0.1,0.1,0.1,0.2,0.1,0.3c-0.2,0.1-0.4,0.1-0.6,0.2c-5.5-0.2-11-0.4-16.5-0.6
		c0.5-0.5,1.1-0.6,1.8-0.7c4.4,0,8.7,0,13.1,0C125.3,164.4,126,164.5,126.6,165.1z"/>
	<path class="st7" d="M85,164.6c0,0.2,0,0.3,0,0.5c-3.9,0.5-7.8,0.1-11.8,0.2c-1.4,0.1-2.7-0.1-4.1,0.1c-0.2,0-0.3,0-0.5,0
		c-0.1-0.1-0.2-0.2-0.2-0.3c0-0.1,0.1-0.2,0.1-0.2l0-0.1C74,163.9,79.5,164.3,85,164.6z"/>
	<path class="st15" d="M85,164.6c-5.5,0.1-11,0.1-16.5,0.2c0-0.3,0-0.6,0-0.9c5.2,0.1,10.4,0.1,15.6,0.2c0.2-0.1,0.3-0.1,0.5,0
		c0.1,0.1,0.2,0.1,0.3,0.1C85,164.2,85,164.4,85,164.6z"/>
	<path class="st14" d="M69.2,165.4c2-0.1,4-0.3,6-0.3c3.3-0.1,6.6,0,9.9,0c-5.1,0.2-10.3,0.4-15.4,0.6
		C69.4,165.6,69.3,165.5,69.2,165.4z"/>
	<path class="st1" d="M85.1,157.3c-0.1-2.6-0.2-5.2-0.4-7.8c0.3,0,0.6,0,0.9,0c0,0.3,0,0.6,0,1c0.6,1.9,1.3,3.9,0,5.8
		C85.5,156.6,85.3,156.9,85.1,157.3z"/>
	<path class="st1" d="M145.6,145.9c2.6-0.1,5.2-0.2,7.8-0.3c-2.6,0.3-5.2,0.6-7.8,1C145.6,146.3,145.6,146.1,145.6,145.9z"/>
	<path class="st1" d="M152.2,149.4c-2.4,0-4.7-0.1-7.1-0.1c0-0.3,0-0.5,0-0.8C147.5,148.8,149.8,149.1,152.2,149.4z"/>
	<path class="st16" d="M173.4,149.3c0-0.3,0-0.6,0-0.8c1.4-1,2.7-1.7,4.3-0.5c0,0.1,0,0.3,0,0.4c-1.3,0.5-2.6,1-3.9,1.6
		c-0.2,0.2-0.4,0.2-0.7,0C173.1,149.7,173.2,149.5,173.4,149.3z"/>
	<path class="st1" d="M153,126.1c1.8,0,3.6,0.1,5.3,0.1c-1.8,0.3-3.6,0.6-5.4,0.9c-0.2-0.3-0.3-0.5-0.5-0.8
		C152.5,126,152.7,125.9,153,126.1z"/>
	<path class="st1" d="M157.4,129.8c-2,0-3.9-0.1-5.9-0.1c0-0.2,0-0.4,0-0.7C153.4,129.3,155.4,129.5,157.4,129.8z"/>
	<path class="st1" d="M161.4,145.8c-0.2,0.3-0.4,0.5-0.5,0.8c-1.3-0.3-2.6-0.6-3.8-0.8C158.5,145.8,159.9,145.8,161.4,145.8z"/>
	<path class="st1" d="M88.1,126.2c1.1,0,2.3,0,3.4,0.1c0,0.3,0,0.5,0,0.8C90.4,126.8,89.3,126.5,88.1,126.2z"/>
	<path class="st16" d="M163.7,146c0,0.2,0,0.4,0,0.5c0,0.6,0,1.3,0,1.9c-0.7-0.2-1.3-0.4-2-0.6C162.3,147.3,163,146.6,163.7,146z"/>
	<path class="st1" d="M84.7,134.8c-0.1-1.6-0.2-3.3-0.2-4.9C84.5,131.6,84.6,133.2,84.7,134.8z"/>
	<path class="st1" d="M88,129.9c0,1,0,2,0,3C86.7,131.9,86.7,130.9,88,129.9z"/>
	<path class="st1" d="M91,129.7c-1,0-2,0.1-3,0.1c1-0.3,2-0.5,3-0.8C91,129.2,91,129.4,91,129.7z"/>
	<path class="st1" d="M87.6,121.2c0.1,1.6,0.1,3.2,0.2,4.8C87.8,124.4,87.7,122.8,87.6,121.2z"/>
	<path class="st1" d="M158.3,149.3c-0.6,0-1.3,0-1.9,0c0.8-0.1,1.6-0.2,2.4-0.3C158.7,149.1,158.5,149.3,158.3,149.3z"/>
	<path class="st1" d="M63.2,122.7c0.1,0.8,0.2,1.6,0.4,2.4C63.5,124.3,63.4,123.5,63.2,122.7z"/>
	<path class="st1" d="M168.2,162.6c0.2-0.5,0.3-1,0.5-1.5c0.5,0.3,0.9,0.6,1.4,1C169.4,162.3,168.8,162.4,168.2,162.6z"/>
	<path class="st1" d="M155.1,139.3c0.3-1,0.5-2,0.8-3C155.7,137.3,155.4,138.3,155.1,139.3z"/>
	<path class="st1" d="M150.3,157.8c0.3-1,0.5-2,0.8-3C150.8,155.8,150.5,156.8,150.3,157.8z"/>
	<path class="st1" d="M158,141.1c-0.2,0.8-0.5,1.7-0.7,2.5C157.6,142.8,157.8,141.9,158,141.1z"/>
	<path class="st1" d="M160.5,131.8c-0.2,0.8-0.5,1.7-0.7,2.5C160,133.5,160.2,132.7,160.5,131.8z"/>
	<path class="st1" d="M155.6,150.5c-0.2,0.8-0.5,1.6-0.7,2.4C155.2,152.1,155.4,151.3,155.6,150.5z"/>
	<path class="st1" d="M60.8,103.2c0.1,0.6,0.2,1.3,0.3,1.9C61,104.5,60.9,103.8,60.8,103.2z"/>
	<path class="st1" d="M67.6,159.2c0.1,0.8,0.2,1.6,0.3,2.4C67.8,160.8,67.7,160,67.6,159.2z"/>
	<path class="st1" d="M64.2,130.9c0.1,0.5,0.2,1,0.2,1.5C64.4,131.9,64.3,131.4,64.2,130.9z"/>
	<path class="st1" d="M65.7,142.6c0.1,0.8,0.2,1.6,0.3,2.4C65.9,144.2,65.8,143.4,65.7,142.6z"/>
	<path class="st1" d="M162.6,124.1c-0.1,0.5-0.3,1-0.4,1.4C162.3,125.1,162.4,124.6,162.6,124.1z"/>
	<path class="st1" d="M67.1,155.3c0.1,0.8,0.2,1.7,0.3,2.5C67.4,157,67.2,156.1,67.1,155.3z"/>
	<path class="st1" d="M65.2,138.7c0.1,0.8,0.2,1.7,0.3,2.5C65.4,140.4,65.3,139.6,65.2,138.7z"/>
	<path class="st1" d="M64.7,134.8c0.1,0.6,0.2,1.3,0.3,1.9C64.9,136.1,64.8,135.5,64.7,134.8z"/>
	<path class="st1" d="M62.3,114.9c0.1,0.6,0.2,1.3,0.3,1.9C62.5,116.1,62.4,115.5,62.3,114.9z"/>
	<path class="st1" d="M62.8,118.8c0.1,0.6,0.2,1.3,0.3,1.9C63,120,62.9,119.4,62.8,118.8z"/>
	<path class="st12" d="M88.2,142.5c0.1-0.1,0.3-0.2,0.4-0.3c-0.1,0.6-0.2,1.3-0.4,1.9C88.3,143.6,88.3,143,88.2,142.5z"/>
	<path class="st1" d="M165,114.9c-0.1,0.3-0.2,0.7-0.3,1C164.8,115.5,164.9,115.2,165,114.9z"/>
	<path class="st17" d="M159.6,149.3c-0.1,0.6-0.2,1.1-0.3,1.7c0-0.5-0.1-1-0.1-1.5C159.3,149.4,159.4,149.3,159.6,149.3z"/>
	<path class="st1" d="M61.8,111.4c0.1,0.5,0.2,0.9,0.3,1.4C62,112.4,61.9,111.9,61.8,111.4z"/>
	<path class="st1" d="M66.7,151.4c0.1,0.5,0.2,0.9,0.2,1.4C66.8,152.4,66.7,151.9,66.7,151.4z"/>
	<path class="st1" d="M160,120.7c0.1-0.3,0.2-0.7,0.3-1C160.2,120.1,160.1,120.4,160,120.7z"/>
	<path class="st1" d="M179.1,137.2c0.1-0.3,0.2-0.6,0.3-0.9C179.3,136.6,179.2,136.9,179.1,137.2z"/>
	<path class="st1" d="M179.9,135.3c0.1-0.2,0.2-0.3,0.3-0.5C180.1,135,180,135.2,179.9,135.3z"/>
	<path class="st1" d="M177.6,140.6c0.1-0.3,0.2-0.6,0.3-0.9C177.8,140,177.7,140.3,177.6,140.6z"/>
	<path class="st18" d="M190.1,111.1c0-0.3-0.1-0.6-0.1-1C190,110.4,190,110.8,190.1,111.1z"/>
	<path class="st1" d="M185.7,121.7c0.1-0.2,0.2-0.3,0.3-0.5C185.9,121.3,185.8,121.5,185.7,121.7z"/>
	<path class="st1" d="M162.4,111.5c0.1-0.3,0.2-0.7,0.3-1C162.6,110.8,162.5,111.2,162.4,111.5z"/>
	<path class="st1" d="M175.4,145.6c0.1-0.2,0.2-0.4,0.3-0.5C175.6,145.2,175.5,145.4,175.4,145.6z"/>
	<path class="st1" d="M184.3,125.1c0.1-0.2,0.2-0.3,0.3-0.5C184.5,124.7,184.4,124.9,184.3,125.1z"/>
	<path class="st1" d="M148.7,163.5c0.1-0.3,0.2-0.6,0.3-0.9C148.9,162.9,148.8,163.2,148.7,163.5z"/>
	<path class="st1" d="M153.2,159.7c-0.1,0.3-0.2,0.7-0.3,1C153,160.3,153.1,160,153.2,159.7z"/>
	<path class="st1" d="M165.9,111.4c-0.1,0.3-0.2,0.7-0.3,1C165.7,112.1,165.8,111.7,165.9,111.4z"/>
	<path class="st18" d="M95.1,111c-0.1-0.3-0.1-0.6-0.2-0.9c0.2,0,0.3,0,0.5,0C95.3,110.4,95.2,110.7,95.1,111z"/>
	<path class="st1" d="M160.5,118.7c0-0.2,0-0.3,0.2-0.4C160.6,118.4,160.6,118.6,160.5,118.7z"/>
	<path class="st19" d="M68.6,163.2c0,0.2,0,0.5,0.1,0.7c-0.2-0.3-0.3-0.5-0.5-0.8C68.3,163.1,68.4,163.1,68.6,163.2z"/>
	<path class="st1" d="M187.9,116.8c0-0.2,0.1-0.3,0.2-0.4c0,0.1,0,0.2,0,0.4C188.1,116.7,188,116.7,187.9,116.8z"/>
	<path class="st1" d="M148.3,165c0-0.2,0-0.3,0.2-0.4C148.5,164.7,148.4,164.9,148.3,165z"/>
	<path class="st19" d="M68.6,164.9c0,0.2,0,0.4,0.1,0.5c-0.1-0.1-0.2-0.2-0.2-0.3C68.4,165,68.5,164.9,68.6,164.9z"/>
	<path class="st1" d="M162.9,122.6c-0.1,0.2-0.1,0.3-0.2,0.5C162.8,123,162.9,122.8,162.9,122.6z"/>
	<path class="st1" d="M184.9,123.6c0-0.2,0.1-0.3,0.2-0.4c0,0.1,0,0.2,0,0.4C185.2,123.5,185,123.6,184.9,123.6z"/>
	<path class="st1" d="M180.6,133.8c0-0.2,0.1-0.3,0.2-0.4c0,0.1,0,0.2,0,0.4C180.8,133.8,180.6,133.8,180.6,133.8z"/>
	<path class="st1" d="M60.3,101.3c0,0-0.1,0.1-0.1,0.1C60.2,101.4,60.3,101.3,60.3,101.3C60.3,101.2,60.3,101.3,60.3,101.3z"/>
	<path class="st1" d="M165.4,113.5c0,0.2,0,0.3-0.2,0.4C165.2,113.7,165.3,113.6,165.4,113.5z"/>
	<path class="st20" d="M158.3,149.3c0.2-0.1,0.3-0.3,0.5-0.4c0,0.1,0,0.3,0,0.4C158.6,149.3,158.5,149.3,158.3,149.3z"/>
	<path class="st1" d="M189.3,113.3c0-0.2,0.1-0.3,0.2-0.4c0,0.1,0,0.2,0,0.4C189.6,113.3,189.4,113.3,189.3,113.3z"/>
	<path class="st1" d="M84.4,126c0-0.1,0-0.3,0.1-0.4c0.1,0.1,0.2,0.2,0.3,0.3C84.6,125.9,84.5,125.9,84.4,126z"/>
	<path class="st1" d="M176.2,144c0-0.2,0.1-0.3,0.2-0.4c0,0.1,0,0.3,0,0.4C176.4,144,176.2,144,176.2,144z"/>
	<path class="st1" d="M186.4,120.2c0-0.2,0.1-0.3,0.2-0.4c0,0.1,0,0.2,0,0.4C186.6,120.1,186.5,120.1,186.4,120.2z"/>
	<path class="st13" d="M96.3,106.5c0.9-3.6,1.7-7.2,2.9-10.7c0.8-2.1,2.4-4,3.6-6c6.2-4.1,11.4-3.6,16.4,1.3c0.3,0.3,1.2,0.2,1.7,0
		c3.4-1.3,6.8-2.7,10.2-4.1c4-0.5,6.5,1.6,8.1,5l0,0c0.3,0.4,0.3,0.8,0.5,1.2c0.1,0.2,0.2,0.5,0.2,0.7c0.5,0.1,0.4,0.7,0.7,1l0,0
		c2,3.6,4.2,7.2,3.3,11.6c-1.2,0-2.5,0-3.7,0c-0.8-0.2-1.1-0.9-1.6-1.3c-0.2-0.1-0.3-0.3-0.5-0.4c-1.8-0.8-2.1,1.5-3.5,1.7
		c-6.3,0-12.5,0-18.8,0c-0.3-3.4,1.4-6.5,2-9.8c0-0.1,0.1-0.2,0.1-0.2c0-0.2,0-0.2-0.1,0.1c0,0-0.1,0.1-0.1,0.2
		c-1.1,3.2-1.2,6.7-2.9,9.7C108.8,106.5,102.5,106.5,96.3,106.5z"/>
	<path class="st21" d="M144,106.5c-1.1-3.9-5.4-16.4-6.5-20.3c6.3,7.2,15.2,9.9,21.1,10.5c0.3,0,0.7-0.2,1-0.3
		c-0.3,3.4-0.6,6.7-0.9,10.1C153.9,106.5,149,106.5,144,106.5z"/>
	<path class="st21" d="M139.3,92c-2.7-1.7-5.4-3.3-8.1-5c-0.9-1.8-1.7-3.6-2.6-5.4c3.2,0.8,6.4,1.5,9.5,2.4c0.6,0.2,0.9,1.3,1.3,2
		C139.3,88,139.3,90,139.3,92z"/>
	<path class="st7" d="M172.5,73c0-0.2,0.1-0.5,0.1-0.7c1.9,1,3.8,2,5.7,3c0.2,0.1,0.2,0.3,0.1,0.4c-0.1,0.1-0.2,0.1-0.2,0.1
		C176.3,74.8,174.4,73.9,172.5,73z"/>
	<path class="st7" d="M175.3,76.2c1.2,0.6,2.2,1.2,3.3,1.8c0,0-0.1,0.2-0.1,0.3c-1.2-0.5-2.4-0.9-3.6-1.5c-0.3-0.1-0.5-0.5-0.8-0.7
		C174.6,76.1,175,76.2,175.3,76.2z"/>
	<path class="st4" d="M178.2,75.7c0.1-0.1,0.1-0.3,0.1-0.5c0.5,0.3,0.9,0.5,1.4,0.8C179.2,75.9,178.7,75.8,178.2,75.7z"/>
	<path class="st21" d="M140.7,94.9c-0.2-0.3-0.5-0.7-0.7-1C140.3,94.2,140.5,94.6,140.7,94.9z"/>
	<path class="st21" d="M139.8,93.2c-0.2-0.4-0.3-0.8-0.5-1.2C139.4,92.4,139.6,92.8,139.8,93.2z"/>
	<path class="st6" d="M166.5,156.7c0-0.3,0-0.6,0.1-0.9c0.3-0.6,0.7-1.2,1.5-1.1c0.6,0.1,0.7,0.5,0.5,1c-0.1,0.8-0.2,1.5-0.3,2.3
		c-0.6,0.1-0.5,0.1-1.2,0.2C167,157.6,166.7,157.1,166.5,156.7z"/>
	<path class="st15" d="M209.8,67.1c-1.2,0.7-1.9,1.3-2.4,1.2c-0.8-0.2-1.5-0.9-2.2-1.4c0.6-0.6,1.2-1.6,1.8-1.7
		C207.8,65.3,208.5,66.2,209.8,67.1z"/>
	<path class="st1" d="M176.5,151.6c-0.4,1.1-0.8,2.1-1.2,3.2c-1.4,0.3-2.8,0.7-4.2,1c0.4-1.1,0.8-2.2,1.1-3.3l-0.2,0l-0.1-0.2
		l0.2,0.1c0,0,0.2-0.1,0.2-0.1c1.4-0.7,2.7-1.3,4.1-2C176.7,150.8,176.5,151.2,176.5,151.6z"/>
	<path class="st22" d="M176.5,151.6c-0.1-0.4-0.1-0.8-0.2-1.2c0.2,0,0.3,0,0.5,0C176.7,150.8,176.6,151.2,176.5,151.6z"/>
	<path class="st23" d="M177.4,150c-0.2,0.1-0.3,0.3-0.5,0.4C177,150.3,177.2,150.2,177.4,150z"/>
	<path class="st20" d="M173.4,150.3c0-0.2,0.1-0.3,0.2-0.4c0.1,0,0.2,0,0.3,0.1C173.7,150.1,173.6,150.2,173.4,150.3z"/>
	<path class="st13" d="M115,110.1c5.8,0,11.6,0,17.5,0c0.2,0.1,0.5,0.2,0.6,0.3c0.1,0.2,0.1,0.5,0.1,0.7c-0.9,2.9-1.6,5.9-2.4,8.8
		c-0.1,0.3-0.3,0.6-0.4,0.9c-0.1,0.3-0.1,0.7-0.1,1c0-0.4,0-0.9,0.2-1.3c1-3,1.6-6.1,2.6-9.1c0.1-0.3,0.2-0.7,0.4-0.9
		c0.3-0.2,0.6-0.4,0.9-0.4c0.5,1.1,1.7,2.6,1.4,3.3c-1.9,4.3-4.2,8.4-6.3,12.6c-0.1-0.1-0.2-0.2-0.2-0.4c0,0-0.2-0.1-0.2-0.1
		s0,0.2-0.1,0.2c-0.2,0-0.3,0.1-0.4,0.2c-4.8,0-9.6,0.1-14.5,0.1c-1.2,0-1.5-0.4-1.4-1.6c0.3-2.4,0.4-4.8,0.6-7.2
		c-0.2-0.3,0-0.6,0.1-0.9c0.3-0.5,0.3-1.1,0.3-1.6C113.9,113.2,113.9,111.5,115,110.1z"/>
	<path class="st13" d="M123.1,145.7c-3.3,0.1-6.6,0.1-10,0.2c-1.4,0-2-0.3-1.9-1.9c0.4-3.9,0.6-7.9,0.8-11.9
		c0.1-1.7,0.6-2.4,2.4-2.3c4.4,0.2,8.7,0.1,13.1,0.2c0.1,0,0.2,0,0.3,0c1.6,0,3.2,0,4.8,0.1c-0.2,0.4-0.1,0.9-0.1,1.3
		c0,0.2,0,0.5-0.1,0.7c-0.2,0.5-0.5,1.1-0.4,1.7c0,0.4,0,0.7-0.2,1.1c-0.8,2.6-1,5.4-1.8,8c-0.3,1.1-0.4,2.2-1.3,3
		c-1.7,0.1-3.4,0.1-5.1,0.2c-0.1,0-0.2,0-0.3,0c0-0.2,0-0.4,0.1-0.7c0.1-0.8,0.1-1.6,0.6-2.2c0.4-1.2,0.3-2.6,0.9-3.7
		c0.9-2.4,1.5-5,2.1-7.5c-0.6,2.5-1.3,4.9-2,7.3c-0.7,1.1-0.7,2.4-0.9,3.7c-0.6,0.7-0.7,1.6-0.9,2.5
		C123.5,145.4,123.3,145.6,123.1,145.7z"/>
	<path class="st21" d="M153,126.1c-0.2,0.1-0.3,0.1-0.5,0.2c-1.9-0.1-3.7-0.1-5.6-0.2c-1.9-5.1-2.4-10.5-2.1-15.9
		c4.4,0,8.8,0,13.1,0C156.3,115.5,154.6,120.8,153,126.1z"/>
	<path class="st4" d="M106.6,158.2c-0.1,1.8-0.3,3.6-0.4,5.4c-0.2,0.4-0.5,0.8-1,1c-5.5,0-11,1.1-16.5-0.6c0-1.8,0-3.5-0.1-5.3
		c2.8-0.3,5.6,0.2,8.3-0.7c0.2,0,0.4,0,0.6,0c0.2,0,0.4,0.1,0.6,0.2c0.2,0.1,0.4,0.4,0.6,0.5c0.2,0,0.3,0.1,0.3,0.3
		c0,0,0.1-0.2,0.1-0.2c-0.2,0-0.3-0.1-0.4-0.3c0-0.3,0.1-0.5,0.3-0.7c0.6-0.4,1.3-0.4,2-0.3c0.7,0.2,1.4-0.1,2.1-0.4
		c0.7-0.2,1.4-0.2,2-0.1C105.8,157.3,106.2,157.7,106.6,158.2z"/>
	<path class="st13" d="M140.3,145.7c-2-0.1-4-0.1-6-0.2c0.8-5,1.4-10.1,2.5-15c0.1-0.5,2.9-0.4,4.4-0.6c1.4,2.7,0.4,5.6,0.6,8.4
		c-0.1,0.7-0.4,1.4-0.4,2.1C141.3,142.2,142,144.2,140.3,145.7z"/>
	<path class="st13" d="M146.3,141.3c-0.2,1.4-0.5,2.9-0.7,4.3c-1.5,0-3,0-4.4,0c-0.5-1.8,0.1-3.6,0.1-5.4c0-0.6,0.1-1.1,0.2-1.7
		c0.2-2.9-0.4-5.8,0.5-8.6c1.6,0,3.1,0,4.7,0c0.3,0.3,0.7,0.5,0.9,0.9c1,3.4,0,6.7-1,9.9l-0.1,0
		C146.4,140.9,146.2,141.1,146.3,141.3z"/>
	<path class="st13" d="M144.8,110.2c0.7,5.3,1.4,10.6,2.1,15.9c-1.6,0-3.2,0-4.8,0c-1.7-4.8-0.6-9.9-1.4-14.8
		c0.1-0.3,0.2-0.5,0.4-0.8c0.2-0.2,0.5-0.3,0.8-0.4C142.8,110.1,143.8,110.2,144.8,110.2z"/>
	<path class="st4" d="M126.1,159.6c0.2,1.3,0.3,2.6,0.5,3.9c-0.2,0.5-0.4,0.8-0.9,0.9c-4.7,0.2-9.4,0-14,0.1c-0.6,0-1.3,0-1.8-0.5
		c0.1-1.6,0.3-3.2,0.4-4.7c0.2-0.2,0.4-0.3,0.7-0.3C115.9,160.2,121,158.9,126.1,159.6z"/>
	<path class="st13" d="M138.8,156.3c-1,0.8-1.9,1.7-3,2.3c-0.8,0.4-1.9,0.4-2.8,0.5c-0.3-0.2-0.7-0.1-1-0.3c1-4.5-0.8-11.4,7.9-9.3
		c0.6,0.7,0.6,1.6,0.5,2.5c-0.3,1-0.4,2-0.5,3.1c0,0.2-0.1,0.4-0.2,0.6C139.5,156,139.1,156.1,138.8,156.3z"/>
	<path class="st23" d="M105.1,157.7c-0.8,0-1.7,0.1-2.5,0.1c-0.5,0.4-1.1,0.2-1.6,0.2c-4.2-0.2-8.5,0.6-12.4-1.9c0-1.8,0-3.5,0-5.3
		c1.1-0.7,2,0,3,0.3c3.2,1.1,6.3,2.4,9.5,3.6c0.3,0.1,0.7,0.3,1,0.4c1.1,0.6,2.5,0.7,3.2,1.9C105.3,157.3,105.3,157.5,105.1,157.7z"
		/>
	<path class="st13" d="M101.2,155.4c-3.4-1.2-6.7-2.5-10.1-3.7c-0.8-0.3-1.7-0.6-2.5-0.9c-0.6-1.4,0.3-1.4,1.3-1.4
		c4.3,0,8.5,0.1,12.8,0.1c0.6,1.3,0.2,2.5-0.2,3.7C102.2,154,102.1,154.9,101.2,155.4z"/>
	<path class="st13" d="M110.9,152c3.6-0.8,7.3-1.6,10.9-2.5c0.2,0.2,0.3,0.4,0.4,0.6c0.2,0.5,0.1,1,0,1.5c-0.5,1.4-0.9,2.9-1.9,4
		C116.7,155.6,113.6,154.2,110.9,152z"/>
	<path class="st23" d="M110.9,152c3.1,1.1,6.2,2.3,9.4,3.4c0.5-0.1,0.9-0.2,1.4,0c1.6,0.7,3.4,0.9,4.6,2.3c0.1,0.2,0.1,0.4,0,0.6
		c0,0.2-0.1,0.3-0.1,0.5c-5.4,0.6-10.6,0-15.5-2.3C110.6,155,110.8,153.5,110.9,152z"/>
	<path class="st24" d="M110.5,156.5c5.2,0.8,10.4,1.5,15.5,2.3c0,0.3,0,0.6,0,0.9c-4.9,1-9.9,1.3-14.8,0c-0.3-0.1-0.6-0.2-0.9-0.3
		c0-0.2-0.1-0.3-0.1-0.4C110.3,158.1,110.4,157.3,110.5,156.5z"/>
	<path class="st13" d="M126,157.8c-1.7-0.7-3.3-1.3-5-2c-0.5-1.6,0.6-2.8,0.9-4.2c0.2-0.5,0.1-0.9,0.1-1.4c0.1-0.4,0.4-0.5,0.7-0.7
		c1.8,0,3.5,0,5.3,0C128,152.4,127.1,155.1,126,157.8z"/>
	<path class="st13" d="M141.3,126.1c-0.1,0-0.2,0-0.2,0c-3.7,0.2-3.7,0.2-3.1-3.4c0.6-3.6,1.2-7.2,1.8-10.8c0.3-0.2,0.5-0.2,0.8-0.2
		c0.3,0.2,0.4,0.4,0.4,0.7C141.5,117,142,121.5,141.3,126.1z"/>
	<path class="st13" d="M105.1,157.2c-1.1-0.5-2.3-1-3.4-1.4c-0.6-1.1,0.4-1.9,0.4-2.9c0.8-1,0.2-2.6,1.4-3.4c0.9,0,1.8,0,2.7,0
		c0.3,0.3,0.7,0.6,0.9,1.1c0,0.1,0,0.3,0,0.4c-0.3,0.6-0.1,1.2-0.2,1.8c-0.2,0.4-0.2,0.8-0.2,1.2c0.1,0.7-0.3,1.2-0.5,1.9
		C106,156.5,105.7,157,105.1,157.2z"/>
	<path class="st24" d="M88.6,156.1c4.2,0.6,8.4,1.2,12.7,1.7c0,0.1,0,0.2,0,0.3c-0.8,0.1-1.6,0.2-2.4,0.4c-0.1,0.4-0.2,0.5-0.6,0.2
		l0,0c-0.1-0.2-0.3-0.2-0.4-0.1c-0.8,0.1-1.6,0.2-2.3,0.4c-2.4,0.9-4.7,0.5-6.9-0.3C88.6,157.9,88.6,157,88.6,156.1z"/>
	<path class="st21" d="M146.6,140.7c0.1-3.4,0.3-6.9,0.4-10.3c-0.1-0.2,0-0.4,0.1-0.5c1.4,0,2.7,0.1,4.1,0.1
		C149.6,133.5,148.1,137.1,146.6,140.7z"/>
	<path class="st13" d="M140.9,149.3c1,1.2,0.9,1,1.9,2.2c-1.1,1.5-2.2,3.1-3.3,4.6c-0.2,0-0.3-0.1-0.3-0.2c0-0.1,0.1-0.2,0.1-0.2
		l0,0c0.5-1.1,0.1-2.5,0.7-3.6C140.2,151.2,139.6,150.1,140.9,149.3z"/>
	<path class="st7" d="M115,106.5c1.4-4.3,1.5-9.1,4.3-12.9c-1.1,4.3-2.2,8.6-3.4,12.9C115.6,106.5,115.3,106.5,115,106.5z"/>
	<path class="st25" d="M141.3,126.1c-0.2-4.7-0.4-9.4-0.6-14.1c-0.3-0.3-0.4-0.7-0.3-1.1c0.1-0.2,0.2-0.4,0.3-0.5
		c0.2-0.1,0.4,0,0.5,0.1c0.3,5.2,0.5,10.4,0.8,15.6C141.8,126.1,141.5,126.1,141.3,126.1z"/>
	<path class="st7" d="M129,145.7c1-3.8,2-7.6,3-11.4c0.4,0.4,0.2,0.8,0.1,1.3c-0.1,0.7-0.1,1.4-0.2,2.2c-0.3,0.5,0,1.1-0.3,1.6
		l0,0.2c-0.4,0.5-0.1,1.2-0.4,1.7c-0.5,1-0.3,2.1-0.8,3.1c0,0.5,0.1,1-0.5,1.3l-0.1,0.1C129.4,145.9,129.2,145.9,129,145.7
		L129,145.7z"/>
	<path class="st14" d="M106,165.1c-5.8,0-11.6,0-17.3,0C94.5,164.3,100.3,164.2,106,165.1z"/>
	<path class="st15" d="M88.7,164c5.7,0,11.3,0,17,0c0.2-0.1,0.3-0.1,0.4,0.1c0,0.2,0,0.3,0,0.5c-5.8,0.3-11.6,0.4-17.4,0
		C88.7,164.4,88.7,164.2,88.7,164z"/>
	<path class="st7" d="M88.7,164.5c5.8,0,11.6,0,17.4,0c0,0.2,0,0.3,0,0.5c-5.8,0-11.6,0-17.3,0C88.7,164.9,88.7,164.7,88.7,164.5z"
		/>
	<path class="st8" d="M126.6,165.1c-5.6,0-11.3,0-16.9-0.1c0-0.2,0-0.4,0-0.5c5.6-0.1,11.2-0.5,16.8,0.2
		C126.6,164.8,126.6,164.9,126.6,165.1z"/>
	<path class="st18" d="M126.5,164.6c-5.6-0.1-11.2-0.1-16.8-0.2c0-0.2,0-0.3,0.1-0.5c5.5,0,10.9,0,16.4,0c0.2-0.2,0.3-0.2,0.4,0
		C126.6,164.3,126.5,164.5,126.5,164.6z"/>
	<path class="st7" d="M126,157.8c0.7-2.8,1.3-5.5,2-8.3c0.2,0,0.5,0,0.7,0c-0.7,2.9-1.4,5.7-2.1,8.6c-0.2,0.1-0.3,0.1-0.5,0.2
		C126.1,158.1,126.1,157.9,126,157.8z"/>
	<path class="st26" d="M85.7,156.3v-5.8V156.3z"/>
	<path class="st13" d="M137.8,108.1c-1.1-0.7-1.2-0.8-2.3-1.5c0.4-1.9,1.3-2.8,3.3-1.8l0,0C139.5,105.6,140.3,106.3,137.8,108.1z"/>
	<path class="st25" d="M142,129.9c-0.1,2.9-0.2,5.9-0.4,8.8c-0.2,0.2-0.4,0.2-0.6,0c0.1-3,0.2-5.9,0.2-8.9
		C141.5,129.9,141.7,129.9,142,129.9z"/>
	<path class="st25" d="M106.4,137.1c0.6-2.4,1.2-4.8,1.9-7.2c0.1,0,0.2,0,0.3,0c0.2,0.2,0.2,0.4,0.2,0.6c0,0.3-0.1,0.6-0.1,1
		c0.1,0.2,0.1,0.3,0,0.4c0,0.1-0.1,0.2-0.1,0.3c-0.3,0.5,0,1.2-0.5,1.6c-0.4,1.2-0.9,2.4-1.3,3.6
		C106.5,137.4,106.4,137.3,106.4,137.1z"/>
	<path class="st17" d="M138.8,104.6c-1.1,0.6-2.2,1.2-3.3,1.8c-0.3,0-0.6,0-0.8,0C136.1,105.9,137.4,105.2,138.8,104.6z"/>
	<path class="st9" d="M105.8,155.8c0.1-0.6,0.3-1.3,0.4-1.9c0.3-0.3,0.2-0.7,0.3-1c0.2-0.6,0.4-1.2,0.6-1.8c0,1.6,0,3.2,0,4.7l0,0
		c-0.1,0-0.3,0-0.4,0.1C106.4,156.1,106,156.1,105.8,155.8z"/>
	<path class="st7" d="M115,110.1c-0.4,1.8-0.7,3.5-1.1,5.3c-0.1,0.2-0.2,0.2-0.4,0.2c0-1,0-2,0.1-3c0.4-0.5-0.1-1.3,0.5-1.7
		C114.4,110.6,114.7,110.4,115,110.1z"/>
	<path class="st25" d="M141.5,140.2c-0.1,1.8-0.3,3.6-0.4,5.4c-0.3,0-0.5,0-0.8,0c0.2-1.8,0.3-3.6,0.5-5.4
		C141.1,140,141.3,140,141.5,140.2z"/>
	<path class="st24" d="M105.8,155.8c0.3,0,0.6,0.1,0.9,0.1c0,0.8-0.1,1.6-0.1,2.4c-0.5-0.2-1-0.4-1.4-0.6c0-0.2,0-0.3,0-0.5
		C105.3,156.7,105.6,156.2,105.8,155.8z"/>
	<path class="st17" d="M103.5,149.5c-0.3,1.1-0.7,2.3-1,3.4c-0.2,0.3-0.4,0.3-0.6,0c0.3-1.1,0.6-2.3,0.8-3.4
		C102.9,149.5,103.2,149.5,103.5,149.5z"/>
	<path class="st27" d="M130.2,144c0.3-0.9,0.6-1.9,0.9-2.8c0.1,0.1,0.2,0.2,0.2,0.4c0,0.1,0,0.2-0.1,0.2c-0.2,0.8-0.3,1.6-0.5,2.4
		C130.4,144.4,130.2,144.4,130.2,144z"/>
	<path class="st7" d="M83.7,158.8c0.3-0.3,0.7-0.7,1-1c0.1,0.5,0.1,0.9,0.2,1.4C84.4,159.3,84.1,158.9,83.7,158.8L83.7,158.8z"/>
	<path class="st17" d="M139.3,106.6c-0.2-0.6-0.4-1.2-0.5-1.8c0.5,0.6,1,1.2,1.5,1.8C140,106.6,139.7,106.6,139.3,106.6z"/>
	<path class="st25" d="M140.5,151.9c-0.6,1.1-1.3,0.6-2.1-1.7c0.2-0.3,0.3-0.4,0.6-0.8l0,0C139.8,150.8,139.7,150.6,140.5,151.9z"/>
	<path class="st28" d="M107.6,143.4c0-0.7,0.1-1.4,0.1-2.1c0-0.2,0.1-0.3,0.3-0.2c-0.1,1-0.2,2-0.3,3
		C107.4,143.9,107.3,143.7,107.6,143.4z"/>
	<path class="st8" d="M140.2,111.7c-0.2,0-0.3,0.1-0.4,0.2c0.3-0.6,0.6-1.2,0.9-1.8c0,0,0.1,0,0.1,0c-0.1,0.1-0.2,0.2-0.2,0.3
		C140.4,110.9,140.8,111.4,140.2,111.7z"/>
	<path class="st4" d="M107,150.6c-0.3-0.4-0.6-0.7-0.9-1.1C106.4,149.8,106.7,150.2,107,150.6z"/>
	<path class="st8" d="M131.1,141.8c0-0.2-0.1-0.4-0.1-0.6c0.2-0.5,0.3-1.1,0.5-1.6C131.4,140.3,131.3,141,131.1,141.8z"/>
	<path class="st20" d="M114,110.8c-0.2,0.6-0.3,1.1-0.5,1.7C113.7,112,113.9,111.4,114,110.8z"/>
	<path class="st14" d="M132.1,135.6c0-0.4-0.1-0.8-0.1-1.3c0.1-0.3,0.1-0.6,0.2-0.9c0.1-0.3,0.2-0.4,0.4,0
		C132.3,134.1,132.2,134.8,132.1,135.6z"/>
	<path class="st4" d="M107.6,143.4c0.1,0.2,0.1,0.5,0.2,0.7c-0.2,0.5-0.5,1-0.7,1.5C107.2,144.9,107.4,144.1,107.6,143.4z"/>
	<path class="st27" d="M108.1,133.8c0.2-0.5,0.3-1.1,0.5-1.6c0,0.7-0.1,1.5-0.1,2.2C108.3,134.2,108.2,134,108.1,133.8z"/>
	<path class="st18" d="M83.7,158.7c0.4,0.1,0.9,0.3,1.3,0.4c0,0.3,0,0.5,0,0.8C84.6,159.5,84.1,159.1,83.7,158.7z"/>
	<path class="st8" d="M131.5,139.4c0.1-0.5,0.2-1.1,0.4-1.6C131.8,138.3,131.6,138.8,131.5,139.4z"/>
	<path class="st7" d="M132.6,131.5c0.1-0.5,0.2-1,0.2-1.5c0,0.5,0,1,0,1.5C132.8,131.5,132.7,131.5,132.6,131.5z"/>
	<path class="st25" d="M104.8,144.2c-0.1,0.5-0.1,1-0.2,1.5c-0.2,0-0.4,0-0.6,0l0.1-0.2c0,0-0.1-0.1-0.1-0.1c0.2-0.5,0.3-1,0.5-1.5
		C104.8,143.8,104.9,143.9,104.8,144.2z"/>
	<path class="st13" d="M130.2,144c0.2,0,0.3,0.1,0.5,0.1c-0.3,0.5-0.5,1-0.8,1.5C129.9,145.1,130,144.6,130.2,144z"/>
	<path class="st8" d="M113.5,116.8c-0.1,0.2-0.2,0.4-0.2,0.6c0-0.5,0.1-1,0.1-1.5C113.8,116.1,113.7,116.5,113.5,116.8z"/>
	<path class="st27" d="M113.5,116.8c0-0.3-0.1-0.6-0.1-1c0-0.1,0-0.2,0.1-0.3c0.1-0.1,0.3-0.1,0.4-0.2
		C113.8,115.9,113.6,116.4,113.5,116.8z"/>
	<path class="st14" d="M132.6,131.5c0.1,0,0.2,0,0.2,0c-0.1,0.5-0.2,1-0.3,1.5c-0.4-0.3-0.4-0.6-0.1-1
		C132.5,131.8,132.6,131.6,132.6,131.5z"/>
	<path class="st7" d="M132.5,132c0,0.3,0,0.6,0.1,1c0,0.2,0,0.3-0.1,0.4c-0.1,0-0.3,0-0.4,0C132.2,133,132.4,132.5,132.5,132z"/>
	<path class="st12" d="M134,110.4c-0.1,0.2-0.3,0.4-0.4,0.5c-0.3,0-0.4-0.3-0.5-0.5l-0.2,0c-0.1-0.2-0.1-0.3,0.1-0.4
		c0.3,0,0.7,0,1,0c0.1,0.1,0.2,0.2,0.1,0.2C134,110.3,134,110.4,134,110.4z"/>
	<path class="st17" d="M122.7,149.5c-0.1,0.2-0.2,0.3-0.2,0.5c-0.2,0.2-0.4,0.2-0.7,0c0-0.2,0-0.3,0-0.5
		C122.1,149.5,122.4,149.5,122.7,149.5z"/>
	<path class="st17" d="M129.4,125.6c0,0.2,0,0.3,0,0.5c-0.3,0-0.6,0-0.9,0c0.1-0.2,0.2-0.3,0.2-0.5
		C129,125.3,129.2,125.3,129.4,125.6z"/>
	<path class="st20" d="M108.8,130.5c-0.1-0.2-0.1-0.4-0.2-0.6c0.1,0,0.2,0,0.4,0C108.9,130.1,108.8,130.3,108.8,130.5z"/>
	<path class="st12" d="M132,158.8c0.3,0.1,0.7,0.2,1,0.3c-0.4,0-0.7,0.1-1.1,0.1C131.9,159.1,131.9,158.9,132,158.8z"/>
	<path class="st7" d="M110.2,158.9c0,0.1,0.1,0.3,0.1,0.4c0,0-0.2,0-0.2,0C110.1,159.2,110.1,159,110.2,158.9z"/>
	<path class="st27" d="M108.1,141.1c-0.1,0.1-0.2,0.1-0.3,0.2c0.1-0.2,0.1-0.4,0.2-0.6C108,140.8,108,141,108.1,141.1z"/>
	<path class="st8" d="M128,129.9l-0.2,0.1c0,0-0.2-0.1-0.2-0.1C127.8,129.9,127.9,129.9,128,129.9z"/>
	<path class="st7" d="M106.1,164.1c-0.2,0-0.3,0-0.4-0.1c0.2-0.1,0.3-0.3,0.5-0.4C106.1,163.8,106.1,163.9,106.1,164.1z"/>
	<path class="st26" d="M107.1,155.7c0.1,0,0.1,0.1,0.2,0.1C107.2,155.8,107.1,155.8,107.1,155.7
		C107.1,155.8,107.1,155.7,107.1,155.7z"/>
	<path class="st27" d="M147.1,129.9c0,0.2-0.1,0.4-0.1,0.5c-0.1-0.2-0.2-0.4-0.3-0.6C146.8,129.8,146.9,129.8,147.1,129.9z"/>
	<path class="st20" d="M108.6,131.9c-0.1-0.2-0.1-0.3,0-0.4c0,0.1,0.1,0.2,0.1,0.3C108.8,131.8,108.7,131.8,108.6,131.9z"/>
	<path class="st27" d="M132.9,110.1c0,0.1,0,0.3-0.1,0.4c-0.1-0.1-0.2-0.2-0.4-0.4C132.6,110.1,132.8,110.1,132.9,110.1z"/>
	<path class="st27" d="M134,110.5c0-0.1,0-0.2,0-0.4c0.2,0,0.3,0,0.5,0C134.3,110.2,134.1,110.4,134,110.5z"/>
	<path class="st6" d="M140.8,110.1C140.8,110.1,140.7,110.1,140.8,110.1c0.1,0,0.3,0,0.5,0c0,0.1,0,0.2,0.1,0.3c0,0-0.1,0-0.1,0
		C141.1,110.4,140.9,110.2,140.8,110.1z"/>
	<path class="st27" d="M141.3,110.5c-0.1-0.1-0.1-0.2-0.1-0.3c0.2,0,0.3,0,0.5,0C141.6,110.2,141.5,110.4,141.3,110.5z"/>
	<path class="st3" d="M129.5,146.1c-0.1,0-0.3,0-0.4,0C129.2,145.9,129.4,145.9,129.5,146.1z"/>
	<path class="st3" d="M123.9,145.9c-0.2,0-0.4,0.1-0.6,0.1c0.1-0.2,0.4-0.3,0.6-0.3L123.9,145.9z"/>
	<path class="st8" d="M129.5,146.1l-0.2,0c0,0-0.2,0-0.2,0c-0.1-0.1-0.1-0.2-0.1-0.3c0.3,0,0.5,0,0.8,0.1
		C129.6,145.9,129.6,146,129.5,146.1z"/>
	<path class="st8" d="M123.8,145.8c-0.2,0.1-0.4,0.2-0.6,0.3c-0.1-0.1-0.1-0.2-0.1-0.4c0,0,0.1-0.1,0.1-0.1c0.2-0.2,0.5-0.2,0.7,0
		L123.8,145.8z"/>
	<path class="st23" d="M104,145.4c0.1,0.1,0.1,0.2,0,0.3c0,0-0.2,0-0.2,0C103.8,145.6,103.8,145.5,104,145.4z"/>
	<path class="st25" d="M106.7,137.4c-0.3,0.9-0.5,1.8-0.8,2.7c-0.1-0.1-0.3-0.2-0.3-0.2c0.2-0.9,0.5-1.8,0.8-2.7
		C106.5,137.2,106.6,137.3,106.7,137.4z"/>
	<path class="st25" d="M104.4,143.9c0.2-0.4,0.4-0.8,0.6-1.2c-0.1,0.5-0.1,1-0.2,1.5C104.7,144.1,104.6,144,104.4,143.9z"/>
	<path class="st25" d="M105.8,141.3c-0.2,0.3-0.3,0.5-0.4,0.7c-0.1-0.2-0.2-0.4-0.2-0.6c0-0.2,0.2-0.4,0.3-0.6
		C105.5,141,105.6,141.1,105.8,141.3z"/>
	<path class="st12" d="M88.8,141.7c0.1-0.4,0.2-0.7,0.3-1.1C89,141,88.9,141.4,88.8,141.7z"/>
	<path class="st17" d="M139.3,155.8c0.2,0.1,0.2,0.2,0.2,0.4c-0.2,0-0.4,0.1-0.6,0.1C139,156.1,139.1,156,139.3,155.8z"/>
	<path class="st18" d="M80.2,158.9c0.3,0.4,0.5,0.7,0.8,1.1c0,0.2-0.1,0.3-0.4,0.3c-0.6-0.5-1.2-1-1.8-1.5c0.3,0,0.6,0,1,0
		C80,158.5,80.2,158.6,80.2,158.9z"/>
	<path class="st7" d="M80.2,158.9c-0.1-0.1-0.3-0.1-0.4-0.1c0.2-0.1,0.4-0.2,0.5-0.3C80.4,158.6,80.3,158.7,80.2,158.9z"/>
	<path class="st29" d="M146.3,141.3c0.1-0.2,0.1-0.5,0.2-0.7C146.5,140.9,146.4,141.1,146.3,141.3z"/>
	<path class="st18" d="M81.4,160.5c0.2,0.4,0.4,0.8,0.6,1.1c-0.3-0.3-0.6-0.5-0.9-0.8C81.1,160.6,81.2,160.5,81.4,160.5z"/>
	<path class="st18" d="M81.1,160.9c-0.1-0.2-0.3-0.4-0.4-0.6c0.1-0.1,0.2-0.2,0.4-0.3c0.1,0.2,0.3,0.4,0.4,0.6
		C81.3,160.6,81.2,160.7,81.1,160.9z"/>
	<path class="st7" d="M84.7,164.1h-0.5H84.7z"/>
	<path class="st20" d="M162.2,149.3c-0.4,0-0.9,0.1-1.3,0.1c0-0.2,0-0.3,0.1-0.4C161.5,149.1,161.8,149.2,162.2,149.3z"/>
	<path class="st8" d="M126.6,164.1l-0.2,0c0,0-0.2-0.1-0.2-0.1c0.1-0.2,0.3-0.3,0.4-0.5C126.6,163.8,126.6,163.9,126.6,164.1z"/>
	<path class="st6" d="M171.9,152.3c0.1,0.1,0.2,0.1,0.4,0.2C172.2,152.5,172,152.5,171.9,152.3z"/>
	<path class="st25" d="M133,110.5c0.2,0.2,0.4,0.3,0.5,0.5c-1,3.3-1.9,6.5-2.9,9.8c-0.1,0-0.2,0-0.3-0.1c0-0.2,0-0.4,0-0.6
		C131.2,116.9,132.1,113.7,133,110.5z"/>
	<path class="st25" d="M130.6,120.8c-0.3,0.9-0.6,1.8-1,2.7c0.1-0.9,0.3-1.8,0.4-2.7C130.2,120.5,130.4,120.5,130.6,120.8
		L130.6,120.8z"/>
	<path class="st25" d="M129.4,125.6c-0.2,0-0.4,0-0.7,0c0.2-0.4,0.4-0.9,0.6-1.3C129.4,124.7,129.4,125.1,129.4,125.6z"/>
	<path class="st12" d="M130.5,120.7l-0.2,0c0,0-0.2,0-0.2,0c0.1-0.2,0.2-0.4,0.2-0.6C130.4,120.3,130.5,120.5,130.5,120.7z"/>
	<path class="st25" d="M125.1,139.2c0.8-2.7,1.6-5.4,2.4-8.1c-0.7,2.8-1.3,5.6-2,8.4C125.1,139.6,125,139.5,125.1,139.2z"/>
	<path class="st25" d="M125.5,139.5c-0.4,1.3-0.8,2.5-1.2,3.8c-0.2,0.1-0.3-0.1-0.3-0.3c0.4-1.3,0.7-2.5,1.1-3.8
		C125.2,139.3,125.3,139.4,125.5,139.5z"/>
	<path class="st25" d="M123.9,145.6c-0.2,0-0.5,0-0.7,0c0.3-0.9,0.5-1.7,0.8-2.6c0.1,0.1,0.2,0.2,0.3,0.3
		C124.1,144,124,144.8,123.9,145.6z"/>
	<path class="st11" d="M101.2,158.2c0-0.1,0-0.2,0-0.3c0.4,0,0.9,0,1.3,0c0.1,0.3,0.2,0.5,0.3,0.8
		C102.3,158.5,101.8,158.3,101.2,158.2z"/>
	<path class="st25" d="M98.3,158.7c0.2-0.1,0.4-0.1,0.6-0.2c0.2,0.2,0.3,0.4,0.5,0.7c0,0.2-0.1,0.3-0.3,0.3
		C98.8,159.3,98.6,159,98.3,158.7z"/>
	<path class="st25" d="M97.9,158.7c0.1-0.1,0.3-0.1,0.4-0.2c0,0.1,0,0.2,0,0.3c0,0-0.2,0-0.2,0L97.9,158.7z"/>
	<path class="st25" d="M99.4,159.2c0.2,0.2,0.3,0.3,0.5,0.5c0,0.2-0.1,0.3-0.3,0.3c-0.2-0.2-0.3-0.3-0.5-0.5
		C99.1,159.4,99.2,159.3,99.4,159.2z"/>
	<path class="st25" d="M99.9,159.7c0.1,0.2,0.2,0.4,0.4,0.6c-0.2-0.1-0.4-0.2-0.7-0.2C99.7,159.9,99.8,159.8,99.9,159.7z"/>
	<path class="st25" d="M100.4,160.8c0.1-0.1,0.1-0.1,0.2-0.2c0.1,0.1,0.1,0.2,0.1,0.3c0,0-0.1,0.1-0.1,0.2
		C100.5,161.1,100.4,160.9,100.4,160.8z"/>
	<path class="st17" d="M141.5,140.2c-0.2,0-0.4,0-0.6,0c0.1-0.5,0.1-1,0.2-1.5c0.2,0,0.4,0,0.6,0
		C141.6,139.2,141.6,139.7,141.5,140.2z"/>
	<path class="st17" d="M139.6,152.4c0.2,0,0.4,0,0.6,0c-0.3,1.1-0.6,2.3-0.9,3.4C139.4,154.7,139.5,153.5,139.6,152.4z"/>
	<path class="st25" d="M101.8,152.9c0.2,0,0.4,0,0.6,0c-0.2,0.9-0.5,1.9-0.7,2.8c-0.2-0.1-0.4-0.3-0.6-0.4
		C101.4,154.5,101.6,153.7,101.8,152.9z"/>
	<path class="st17" d="M122.1,151.4c-0.4,1.5-0.8,2.9-1.1,4.4c-0.3-0.1-0.5-0.3-0.8-0.4c0.4-1.3,0.8-2.6,1.2-3.9
		C121.7,151.2,121.9,151.2,122.1,151.4z"/>
	<path class="st25" d="M122.1,151.4c-0.2,0-0.4,0-0.7,0c0.1-0.5,0.3-0.9,0.4-1.4c0.2,0,0.4,0,0.7,0
		C122.4,150.4,122.3,150.9,122.1,151.4z"/>
	<path class="st6" d="M140.2,111.7c0.1-0.4,0.2-0.9,0.3-1.3c0,0.5,0.1,1,0.1,1.5C140.5,111.9,140.3,111.8,140.2,111.7z"/>
	<path class="st29" d="M106.5,152.8c-0.1,0.3-0.2,0.7-0.3,1C106.3,153.5,106.4,153.2,106.5,152.8z"/>
</g>
<g>
	<path class="st2" d="M168.5,84L168.5,84c-2.1-0.3-4.5,0.4-6.3-1c0-0.9,0.4-1.4,1.1-1.9l1.7,0l0.4-1.4c0.2-0.6,0.6-0.5,1-0.4
		c1,0.5,1.5,0.2,2-0.1l0.4,0.1C168.4,80.7,168.8,82.6,168.5,84L168.5,84z"/>
	<path class="st30" d="M164.3,78l0.2-0.6l1.1-1l0.1-0.4l0.4-3.2l0.6-0.5l0.6,0.2l1.5,2.6l0.5,1.6l0.5,0.8l0.1,1.1
		c0.2,0.3-0.5,1-0.9,0.9l-3.7-0.1l-0.6-0.4L164.3,78L164.3,78z"/>
	<path class="st30" d="M157.4,72.6L157.4,72.6l0.3-0.2c-1-0.3-1.7,0-2.4,0.9c-0.4,0.6-0.4,1.4,0.3,2.3l0.5,0.8
		c2.3,1.9,4.2,4.1,6.8,5.7c1.2,0.3,2.4,0.2,2.6-1.5l0.2-0.6c-0.1-0.5-0.7-0.6-0.8-1.3l0.1,0.5l1.4,0.4l0.6-0.7l2.4-0.7l-0.3-2.9
		l-0.6-1l0-0.9c0.2-0.6,0.4-0.8,0.9-1.1l0.5-0.3l-0.2-0.3l-1.2-3.8l-0.4-0.1c-0.9-0.7-1.3-1.8-2.3-2.8c-2-1.6-4.7-1.9-6.7-0.2
		c-0.5,0.1-1,0.6-0.8,1.3c0.3,1.4,0.3,2.9,1.4,3.8c1.3,0.8,2.4,0.2,3.7,0.1l1.2,0.3l0.4,0.3l0.2,0.3c0.1,2.9-1.2,3.8-4.1,3.3
		C160.1,73.1,159.2,72.2,157.4,72.6L157.4,72.6z"/>
	<path class="st0" d="M169.4,71.7L169.4,71.7c-2-0.7-2,0.3-2,1.9c0.2,0.3,0,0.7,0.7,0.8l0.9,0.7l0.3-1.2c-0.1-0.5,0-0.9-0.1-1.3
		L169.4,71.7L169.4,71.7z"/>
	<path class="st31" d="M165.7,79.4l-0.1-0.5c0.1-0.4,0.4-0.6,0.8-0.5l0.9-0.2l1.4,0.4l-0.1,0.2l-0.8,0.7l-0.1,0.4L165.7,79.4
		L165.7,79.4z"/>
	<path class="st32" d="M155,54l-0.1,0.2c5.2,2,11.2-1.1,15.9,3.2c-0.5,0.1-0.4,0.6-0.2,0.6c1.2,2.1,1.5,4.3,0.1,6.5
		c-0.6,0.5-1.3,0.8-2,0.3c-0.7-0.6-1-1.3-0.7-2.4l0.1-1.3c0-1.5-1-2.2-2.1-2.1c-1.4,0.3-2.7,0.2-4-0.4c-0.8,1.5-1.8,2.6-3.3,1.8
		c0.6,1,2,1.4,2.5,2.8l-0.1,0.4c-2.6,0.9-4.1,2.4-4.7,4.9c-0.2,0.8-0.8,1.3-1.7,0.9c-0.4-0.1-0.4-1-0.8-1.1
		c-1.9-0.3-3.1,0.3-4.8,1.6c-1.6,1.3-4.8,1.6-6.6,0.5c0.2-1.5-0.3-2.9,0-4.3c1.3-0.8,2.6-1.5,3-3.2l-1-4.6c0.3-1,1.1-1,1.3-1.6
		l6.6-2.7L155,54L155,54z"/>
	<path class="st31" d="M150.5,75.9l0.3-0.2c0.5-0.1,1,0.5,1.7,0.2c1-1.5,1.5-3.3,2-5.2l0.4-1.6l0.3-1.9c-4.6-1.6-6.9,4.8-11.6,2.7
		l0-2.6l4.7-4.9l-2-0.7l0.4-1.6l-1.4-1.4l0.5-2c-4.3,2.2-4.8,6-5.4,9.9l-0.3,1l-0.3,2.8c-0.3,0.2,0.1,0.5,0,0.7l0.3,2.3
		c-0.5,0.1-0.1,0.4-0.2,0.6l0.6,3.6c-0.3,0.2-0.6,0.7,0,0.9l-0.1,0.2l0.2,0.3l1.7,4.4c0.3,0.5,0.6,1,0.7,1.7l0.4,0.1l1.2-1.2
		c0.3-1.9,1.6-3.5,1.5-5.7l0.2-0.8l-0.6-1.2l-0.1-0.5c-0.2-0.3-0.5-0.8-0.3-1.4l0.2-0.8l0.5-0.3l1.4,0.4
		C148.9,73.8,149.9,74.9,150.5,75.9L150.5,75.9z"/>
	<path class="st32" d="M145.7,77.7L145.7,77.7c1.3-0.8,1.9,0.3,2.6,0.9c0.6,0.2,0.9,0.7,1.6,0.4c0.7-0.9,0.5-1.8,0.3-2.8
		c0-0.7-0.1-1.3,0.8-1.3l1,0.3l2-5.2c0.4,0.3,0.2,0.9,0.1,1.3c-0.1,3.7,1.2,6.4,4.5,8.1c1.7,1.1,2.7,2.2,2.4,4.3
		c-0.2,0.8-0.2,1.5,0.3,2l1.2,0.3c0.4,0.1,0.6,0.4,0.5,0.6c0.2,0.3,0,0.7-0.2,0.8c-1.9-0.3-4.5-1.2-5.6-0.3
		c-4.4,3.7,1.1,2.5,1.9,3.5l-3.8,4.5c-0.5,0.1-0.9,0.2-1.5-0.2c-0.3-0.5-0.6-1.2-0.6-1.9c-0.3-0.7,0-1.7-0.7-2.4
		c-2-1.6-2.3-3.8-3-6.2c-0.3-1.4-1.3-1.6-2.6-1.1c-0.8,0.5-0.6,1.4-1.5,1.8c-0.4-0.3-1.1-0.1-1.6-0.6c-0.1-0.5,0-0.9,0.2-0.8
		L145.7,77.7L145.7,77.7z"/>
	<path class="st2" d="M154,70l0.3-0.2l0.3-0.4c0-0.7,0.2-0.6,0.6-0.5c1.5-2.7,3-5.1,6.3-5.8l0.2-0.6c0.5-0.1,0.8-0.7,1.2-0.6
		l3.3,0.6l2.3,1.2l0.3,0.5l0,0.7c0.5,0.6,1,1.3,1,2c0,0.7,0.3,1.4-0.8,1.5c-2.9-1.6-4.4-7.4-9.2-3.2l0.7,3.9
		c-0.2,1.7-0.9,2.8-1.9,3.9l-3,0.5l7.7,7.4l-0.8,1.3l6.1,1.6l-1,4.1c-0.4,0.6-0.7,0.3-1.1-0.1l-0.9,0l-0.6-0.2
		c-0.6-0.2-0.1-1.1-0.7-1.5c-1-0.3-1.7-0.2-2.3,0.3l-3.5-0.9c2.2-2.5,1.5-4.2-0.8-5.4C153.7,78,152.2,74.6,154,70L154,70z"/>
	<path class="st31" d="M167.4,65c-0.5-0.6-1-1.1-1.9-0.9l-3.5-0.9c-0.2-0.3-0.8-0.4-0.9,0.2c-3.1-0.8-3.8-3.1-5.5-6.6
		c2.4,1.7,2.7,3.7,5,2.6l-0.9-2.6l4.8,1.7l1.7-0.7c4.2,0.6,2.9,3.8,2.7,6.6c4-2,1.1-5,1.8-6.9l0.9,0.9c0.1,0.5,0,0.9,0.4,1.2
		l0.7,2.6c0.6,1.2-0.6,2.5-0.5,3.8l-0.5,2l-2.1,2.1l-0.4-0.1l0.1-0.2l-0.4-0.3l0.1-0.4l-0.8-3.5L167.4,65z"/>
	<path class="st0" d="M159.4,69.5l3.7,0.1c0.5,0.6,1.1,0.7,1.7,0.2c1.4,1.4,0.7,3,0.1,3.9c-2.5,2.8-4.9,0.3-7.3-0.6
		C157.6,71.7,157.5,70.1,159.4,69.5L159.4,69.5z"/>
	<path class="st2" d="M165.7,78.5l-0.1,0.2l-1-0.3l1.5-2.7l0.9,0.9L165.7,78.5L165.7,78.5z"/>
	<path class="st0" d="M172.3,65.8l0.3-3.8L172.3,65.8z M165.7,78.5L165.7,78.5L166,79l-0.8,0.7l-0.6-1.2L165.7,78.5L165.7,78.5z
		 M171.9,59.4l-0.4-1.2L171.9,59.4z M171.6,67.6l0.2-0.6L171.6,67.6z"/>
	<path class="st2" d="M168.7,69.4l-0.2-0.3L168.7,69.4L168.7,69.4z"/>
	<path class="st0" d="M165.7,88.1l-1.6-0.4l0.1-0.4l1,0.3L165.7,88.1L165.7,88.1z"/>
	<path class="st2" d="M147.9,79.2c0.2-1.7-1.3-1.6-2.3-2.1l-0.6-1.2l-0.8-1.3c-0.3-0.7,0.1-1.3,0.4-1.6l0.6-0.7l0.5-0.3l2.2,0.6
		l2.8,2.5c0,1.7,1.3,3.6-0.8,4.8L147.9,79.2L147.9,79.2z"/>
	<path class="st30" d="M145.6,72.3c0.1-0.4,0-0.7,0.6-0.5l2,0.7L145.6,72.3L145.6,72.3z"/>
	<path class="st0" d="M145.6,72.3l0.4-0.6L145.6,72.3L145.6,72.3z M154.6,69.1l-0.3,0.4L154.6,69.1z"/>
	<path class="st31" d="M153.3,86.2c-3.8-2.9-1.4-5.6-0.3-8.1L153.3,86.2L153.3,86.2z"/>
	<path class="st2" d="M161.7,86.6l0.5-1.8l4.8,1.7l-1.6,1.1l-2.5-0.6L161.7,86.6z"/>
	<path class="st0" d="M165.8,63.9l1.8,1.3L165.8,63.9z M161.1,63.4l1.1-0.1L161.1,63.4z"/>
	<path class="st30" d="M159.1,72.5l0.8,0.4l2.5,0.6l1.5-0.9l-0.6-1.2l-1.7,0L159.1,72.5L159.1,72.5z"/>
	<path class="st31" d="M163.2,71.8L163.2,71.8l0.1-0.4l-1.8,0.2l0.2,0.1c-0.2-0.1,0.4,1.2,0.8,1.3C162.9,73,163.2,71.8,163.2,71.8
		L163.2,71.8z M165.1,70.5l-4.1-1l-2.8,0.6l-0.1-0.5l3.5-1.1l3.7,0.9L165.1,70.5L165.1,70.5z M167.7,71.2l0.8-0.5l0.9,0.9l-0.4,1.4
		l-1.2-1.4L167.7,71.2L167.7,71.2z"/>
	<path class="st30" d="M167.9,73.1l0.2-0.6l0.8,0.4l-0.4,1.4L167.9,73.1L167.9,73.1z"/>
	<path class="st31" d="M168.1,72.5l-0.2,0.6l0.3,0.5l0.2-0.8L168.1,72.5z"/>
	<path class="st2" d="M163.8,82.6l1.5,0.2l0.7-0.3l0-0.7l-1,0.4L163.8,82.6L163.8,82.6z"/>
	<path class="st32" d="M163.4,81.8c-1.5-0.2,1.5-2.4,4-1.4c2.6,1.1,1.5,2.6,1.2,2.1C168.3,82,163.4,81.8,163.4,81.8L163.4,81.8z"/>
	<path class="st32" d="M163,82.6l-0.2-0.9c-0.1-0.5,5.5,1.4,5.5,1.4l-0.2,0.8l-5-1.7L163,82.6z"/>
	<path class="st30" d="M149.5,78.1l-0.5-2.3l-1.2-2.9l-0.6-0.4l-1.4,0.3l-0.5,1.2l1.1,2.5l3.1,1.4"/>
	<path class="st31" d="M159.1,90.9c-1.6,0.5-3.5,0-4.1-1c-0.8-1.1-0.5-2.3,1-3.9c2.2-0.1,4,1.5,6.3,1l1.5,0.2
		c0.7-0.3,1.5,0.2,2.4,0.2l0.8,0.2c0.3,0.5,0.7,0.8,0.7,1.5c0.2,0.3-0.2,0.6-0.4,0.6l-1.3,0.8c-2.4-0.2-4.6-1.4-6.9,0.4L159.1,90.9z
		"/>
</g>
</svg>
