<svg width="55" height="55" viewBox="0 0 55 55" fill="none" xmlns="http://www.w3.org/2000/svg">
<path d="M14.9512 37.1476C16.1718 37.3185 17.4102 37.3188 18.6308 37.1483C18.6757 37.1432 18.7212 37.1499 18.7627 37.1678C18.8042 37.1856 18.8404 37.214 18.8676 37.2501L20.5425 39.384C20.8227 39.7377 21.2202 39.9794 21.6632 40.0655C22.1061 40.1516 22.5653 40.0764 22.9576 39.8534L27.4027 37.3001C27.7958 37.0726 28.0937 36.7109 28.2416 36.2815C28.3895 35.852 28.3775 35.3836 28.2079 34.9623L27.1935 32.4666C27.1756 32.4247 27.169 32.3788 27.1744 32.3335C27.1798 32.2883 27.197 32.2453 27.2242 32.2087C27.98 31.2451 28.5973 30.1804 29.0583 29.0458C29.0763 29.0041 29.1049 28.9678 29.1413 28.9406C29.1777 28.9133 29.2206 28.896 29.2657 28.8905L31.9648 28.5134C32.4131 28.4491 32.8234 28.2257 33.1208 27.884C33.4182 27.5423 33.5828 27.1051 33.5846 26.6521L33.586 21.5587C33.5845 21.1054 33.4199 20.6677 33.1223 20.3258C32.8247 19.9838 32.414 19.7603 31.9652 19.6962L29.2689 19.321C29.2238 19.3155 29.1809 19.2982 29.1445 19.271C29.1081 19.2437 29.0794 19.2074 29.0614 19.1657C28.8306 18.5998 28.5609 18.0506 28.2542 17.522C27.9478 16.9942 27.6053 16.4882 27.2292 16.0076C27.2017 15.971 27.1843 15.9278 27.1787 15.8824C27.1732 15.8369 27.1797 15.7908 27.1976 15.7487L28.214 13.2506C28.384 12.8291 28.3961 12.3605 28.2481 11.9308C28.1001 11.5011 27.802 11.1393 27.4086 10.9118L22.966 8.36163C22.5738 8.13894 22.1148 8.06389 21.672 8.15001C21.2292 8.23614 20.8318 8.47778 20.5516 8.83128L18.8726 10.9696C18.8452 11.0057 18.8089 11.0341 18.7672 11.0518C18.7255 11.0696 18.6799 11.0762 18.6349 11.0709C17.4143 10.8999 16.1759 10.8997 14.9553 11.0702C14.9104 11.0753 14.8649 11.0686 14.8234 11.0507C14.7819 11.0329 14.7458 11.0045 14.7186 10.9684L13.0436 8.8345C12.7633 8.48088 12.3658 8.23918 11.9229 8.15311C11.4799 8.06703 11.0208 8.14225 10.6285 8.36517L6.18342 10.9184C5.79025 11.1459 5.49235 11.5076 5.34443 11.937C5.19651 12.3665 5.20849 12.835 5.37818 13.2563L6.39246 15.752C6.41044 15.7939 6.41708 15.8398 6.41171 15.885C6.40633 15.9303 6.38914 15.9733 6.36185 16.0098C5.60611 16.9735 4.9888 18.0381 4.52783 19.1727C4.50981 19.2144 4.48119 19.2507 4.4448 19.278C4.40841 19.3053 4.36553 19.3225 4.3204 19.3281L1.62132 19.7052C1.17295 19.7695 0.762656 19.9929 0.465295 20.3346C0.167935 20.6763 0.00332709 21.1135 0.00150391 21.5665L0 26.6599C0.00151438 27.1132 0.166126 27.5508 0.463743 27.8928C0.761361 28.2348 1.1721 28.4582 1.62089 28.5222L4.31718 28.8975C4.36232 28.903 4.40523 28.9203 4.44163 28.9476C4.47804 28.9748 4.50668 29.0111 4.52472 29.0529C4.98648 30.1853 5.60309 31.2482 6.3569 32.2111C6.38442 32.2477 6.40182 32.2908 6.40736 32.3363C6.41291 32.3817 6.4064 32.4278 6.38849 32.4699L5.37206 34.9677C5.20203 35.3891 5.18989 35.8578 5.33787 36.2876C5.48585 36.7173 5.78401 37.0791 6.17751 37.3066L10.62 39.8566C10.9031 40.0189 11.2238 40.104 11.55 40.1035C11.8355 40.1042 12.1175 40.0401 12.3746 39.916C12.6318 39.792 12.8574 39.6112 13.0346 39.3872L14.7134 37.2489C14.7407 37.2127 14.777 37.1842 14.8188 37.1665C14.8605 37.1487 14.9061 37.1422 14.9512 37.1476ZM13.446 36.2538L11.7671 38.3922C11.7271 38.4427 11.6703 38.4772 11.607 38.4895C11.5438 38.5018 11.4782 38.4911 11.4222 38.4593L6.97963 35.9093C6.92343 35.8768 6.88085 35.8251 6.85971 35.7637C6.83858 35.7023 6.8403 35.6354 6.86458 35.5751L7.88101 33.077C8.00552 32.772 8.04747 32.4395 8.00265 32.1131C7.95782 31.7866 7.8278 31.4778 7.62566 31.2176C6.96377 30.3722 6.42236 29.439 6.01691 28.4448C5.8919 28.1418 5.6897 27.8768 5.43044 27.6762C5.17119 27.4757 4.86391 27.3465 4.53922 27.3016L1.84293 26.9264C1.7788 26.9172 1.72011 26.8853 1.67758 26.8365C1.63505 26.7876 1.61153 26.7251 1.61133 26.6603L1.61283 21.5669C1.61308 21.5022 1.63658 21.4397 1.67906 21.3909C1.72154 21.342 1.78016 21.3101 1.84422 21.3009L4.54341 20.9239C4.86813 20.8788 5.17537 20.7494 5.43452 20.5486C5.69367 20.3478 5.89569 20.0826 6.02046 19.7794C6.42491 18.7839 6.96655 17.8498 7.62964 17.0043C7.83187 16.7442 7.96198 16.4354 8.00686 16.1091C8.05175 15.7827 8.00982 15.4503 7.8853 15.1453L6.87092 12.6497C6.84667 12.5895 6.84496 12.5226 6.86609 12.4612C6.88723 12.3998 6.92979 12.3481 6.98597 12.3156L11.4311 9.76252C11.4715 9.73935 11.5174 9.7272 11.564 9.72728C11.6048 9.72715 11.6451 9.73629 11.6818 9.754C11.7186 9.77172 11.7508 9.79755 11.7761 9.82955L13.451 11.9635C13.6526 12.2211 13.9181 12.4215 14.2211 12.5447C14.5241 12.668 14.8541 12.7098 15.1783 12.666C16.2509 12.5162 17.3391 12.5165 18.4117 12.6668C18.736 12.7106 19.0661 12.6689 19.3693 12.5457C19.6725 12.4226 19.9382 12.2223 20.1401 11.9648L21.819 9.82643C21.859 9.77595 21.9158 9.74144 21.979 9.72913C22.0422 9.71682 22.1078 9.72752 22.1638 9.75929L26.6065 12.3095C26.6626 12.342 26.7052 12.3937 26.7263 12.4551C26.7475 12.5164 26.7458 12.5834 26.7215 12.6436L25.7051 15.1416C25.5806 15.4466 25.5386 15.7791 25.5835 16.1055C25.6283 16.432 25.7583 16.7408 25.9604 17.001C26.6224 17.8465 27.1638 18.7796 27.5692 19.7739C27.6942 20.0769 27.8964 20.3419 28.1556 20.5424C28.4148 20.743 28.7221 20.8722 29.0468 20.9171L31.7432 21.2923C31.8073 21.3015 31.8659 21.3334 31.9084 21.3822C31.9509 21.4311 31.9744 21.4936 31.9747 21.5583L31.9733 26.6517C31.973 26.7164 31.9495 26.7789 31.907 26.8277C31.8646 26.8766 31.8059 26.9085 31.7419 26.9177L29.0427 27.2947C28.7179 27.3398 28.4107 27.4692 28.1515 27.67C27.8923 27.8708 27.6903 28.136 27.5655 28.4392C27.1611 29.4348 26.6194 30.3689 25.9563 31.2145C25.7542 31.4745 25.6241 31.7832 25.5792 32.1096C25.5343 32.4359 25.5762 32.7683 25.7007 33.0733L26.7151 35.569C26.7393 35.6292 26.7411 35.6961 26.7199 35.7575C26.6988 35.8189 26.6563 35.8706 26.6001 35.9031L22.155 38.4562C22.099 38.488 22.0334 38.4987 21.9701 38.4865C21.9068 38.4742 21.85 38.4397 21.81 38.3892L20.135 36.2553C19.9335 35.9977 19.668 35.7973 19.365 35.674C19.062 35.5508 18.732 35.5089 18.4078 35.5527C17.3352 35.7024 16.247 35.7021 15.1744 35.5519C14.8501 35.5081 14.52 35.5498 14.2168 35.673C13.9136 35.7962 13.6479 35.9962 13.446 36.2538ZM40.9414 32.4998C40.4177 32.7991 39.9583 33.199 39.5897 33.6766C39.2211 34.1541 38.9506 34.6998 38.7937 35.2823C38.6368 35.8647 38.5966 36.4725 38.6755 37.0705C38.7543 37.6686 38.9506 38.2452 39.2531 38.7671C39.8684 39.8197 40.8747 40.5865 42.0529 40.9005C43.231 41.2145 44.4855 41.0502 45.543 40.4434C46.0667 40.144 46.5261 39.7441 46.8947 39.2666C47.2633 38.7891 47.5338 38.2434 47.6907 37.6609C47.8476 37.0784 47.8878 36.4707 47.809 35.8726C47.7302 35.2745 47.5338 34.698 47.2314 34.1761C46.6158 33.1237 45.6095 32.357 44.4315 32.0431C43.2534 31.7291 41.999 31.8932 40.9414 32.4998ZM46.1367 37.2345C46.0358 37.614 45.8603 37.9696 45.6206 38.2806C45.3809 38.5916 45.0817 38.8519 44.7405 39.0461C44.0525 39.4413 43.2364 39.5486 42.4697 39.3449C41.703 39.1411 41.0478 38.6427 40.6468 37.9582C40.4509 37.6198 40.3238 37.246 40.2729 36.8583C40.222 36.4706 40.2483 36.0767 40.3503 35.6992C40.4522 35.3218 40.6279 34.9682 40.8671 34.6589C41.1063 34.3496 41.4043 34.0906 41.744 33.897C42.432 33.5019 43.2481 33.3946 44.0148 33.5983C44.7815 33.8021 45.4367 34.3005 45.8377 34.985C46.0342 35.3213 46.1619 35.6934 46.2132 36.0796C46.2646 36.4658 46.2386 36.8584 46.1367 37.2345ZM53.3787 33.1566L52.0136 32.9667C51.9673 32.96 51.9236 32.9414 51.8867 32.9127C51.8498 32.884 51.821 32.8463 51.803 32.8031C51.6587 32.4701 51.495 32.1458 51.3128 31.8318C51.1311 31.5187 50.9313 31.2165 50.7145 30.9266C50.6858 30.8894 50.6673 30.8453 50.6608 30.7988C50.6543 30.7523 50.66 30.7049 50.6774 30.6612L51.1895 29.4027C51.3596 28.9812 51.3717 28.5125 51.2237 28.0828C51.0757 27.653 50.7776 27.2912 50.3841 27.0638L47.8511 25.6098C47.4588 25.387 46.9998 25.3119 46.557 25.398C46.1143 25.4841 45.7169 25.7257 45.4367 26.0793L44.5856 27.1631C44.5585 27.1984 44.5229 27.2262 44.4821 27.2439C44.4413 27.2617 44.3967 27.2688 44.3524 27.2645C43.62 27.177 42.8799 27.1763 42.1473 27.2624C42.1014 27.2682 42.0547 27.2621 42.0118 27.2446C41.9689 27.2271 41.9313 27.1988 41.9026 27.1625L41.0542 26.0816C40.774 25.7279 40.3764 25.4862 39.9335 25.4001C39.4905 25.314 39.0314 25.3892 38.6391 25.6122L36.1043 27.0684C35.7111 27.2959 35.4132 27.6576 35.2653 28.0871C35.1174 28.5165 35.1294 28.985 35.299 29.4063L35.8099 30.6635C35.8274 30.7069 35.8332 30.7541 35.8268 30.8004C35.8204 30.8468 35.8021 30.8907 35.7735 30.9277C35.3376 31.5096 34.9717 32.1408 34.6833 32.8083C34.6654 32.8514 34.6366 32.8891 34.5997 32.9177C34.5628 32.9464 34.5192 32.9649 34.473 32.9717L33.1055 33.1627C32.6572 33.2271 32.2469 33.4505 31.9496 33.7922C31.6523 34.1339 31.4877 34.571 31.4859 35.024L31.485 37.9242C31.4866 38.3775 31.6512 38.8152 31.9488 39.1571C32.2463 39.4991 32.6571 39.7225 33.1058 39.7866L34.4709 39.9765C34.5172 39.9832 34.5609 40.0018 34.5978 40.0305C34.6347 40.0592 34.6635 40.0969 34.6815 40.14C34.97 40.8058 35.3353 41.4357 35.77 42.0167C35.7987 42.0539 35.8172 42.0979 35.8237 42.1445C35.8302 42.191 35.8245 42.2385 35.807 42.2821L35.2951 43.5406C35.125 43.9621 35.1129 44.4308 35.2609 44.8605C35.4089 45.2902 35.707 45.652 36.1005 45.8795L38.6335 47.3334C38.9166 47.4957 39.2372 47.5809 39.5635 47.5804C39.849 47.5811 40.131 47.517 40.3881 47.3929C40.6453 47.2688 40.8709 47.0879 41.048 46.864L41.899 45.7801C41.926 45.7447 41.9616 45.7168 42.0024 45.6991C42.0432 45.6814 42.0879 45.6744 42.1321 45.6788C42.8645 45.7664 43.6047 45.7671 44.3373 45.6808C44.3832 45.6751 44.4299 45.6812 44.4727 45.6987C44.5156 45.7162 44.5532 45.7444 44.582 45.7806L45.4304 46.8616C45.7107 47.2152 46.1082 47.4569 46.5511 47.543C46.994 47.6291 47.4531 47.5539 47.8454 47.3311L50.3805 45.875C50.7737 45.6474 51.0716 45.2857 51.2195 44.8563C51.3674 44.4268 51.3554 43.9584 51.1857 43.537L50.6747 42.2799C50.6572 42.2365 50.6514 42.1892 50.6578 42.1429C50.6642 42.0966 50.6825 42.0527 50.7111 42.0156C51.147 41.4337 51.513 40.8025 51.8014 40.1351C51.8193 40.092 51.8481 40.0543 51.885 40.0257C51.9218 39.997 51.9655 39.9784 52.0116 39.9717L53.3791 39.7807C53.8274 39.7163 54.2377 39.4929 54.535 39.1512C54.8324 38.8095 54.997 38.3723 54.9988 37.9194L54.9997 35.0191C54.9981 34.5658 54.8335 34.1282 54.5359 33.7862C54.2383 33.4443 53.8275 33.2207 53.3787 33.1566ZM53.3873 37.9189C53.387 37.9835 53.3635 38.046 53.321 38.0948C53.2786 38.1436 53.22 38.1755 53.156 38.1847L51.7887 38.3757C51.469 38.4219 51.1664 38.5491 50.9097 38.7451C50.653 38.9412 50.4507 39.1996 50.322 39.4959C50.0838 40.0472 49.7815 40.5686 49.4215 41.0492C49.2274 41.3092 49.1034 41.6148 49.0614 41.9365C49.0195 42.2582 49.0609 42.5853 49.1818 42.8864L49.6928 44.1436C49.717 44.2038 49.7187 44.2707 49.6976 44.3321C49.6765 44.3934 49.6339 44.4451 49.5778 44.4776L47.0428 45.9336C46.9868 45.9654 46.9212 45.9762 46.8579 45.9639C46.7946 45.9516 46.7379 45.9171 46.6978 45.8666L45.8494 44.7856C45.6493 44.533 45.3881 44.3356 45.0905 44.2122C44.7928 44.0888 44.4686 44.0435 44.1485 44.0805C43.5421 44.1518 42.9295 44.1512 42.3232 44.0786C42.0044 44.0423 41.6816 44.0881 41.3855 44.2117C41.0894 44.3354 40.8299 44.5327 40.6316 44.7849L39.7805 45.8688C39.7404 45.9193 39.6836 45.9538 39.6204 45.9661C39.5571 45.9784 39.4916 45.9677 39.4355 45.9359L36.9025 44.4819C36.8463 44.4494 36.8037 44.3977 36.7826 44.3364C36.7614 44.275 36.7631 44.208 36.7874 44.1478L37.2995 42.8894C37.4205 42.5882 37.462 42.2609 37.4201 41.939C37.3781 41.6171 37.2541 41.3114 37.06 41.0512C36.7006 40.5708 36.3985 40.05 36.1599 39.4995C36.031 39.2034 35.8286 38.9452 35.5718 38.7494C35.315 38.5535 35.0125 38.4266 34.6929 38.3806L33.3277 38.1906C33.2636 38.1815 33.205 38.1496 33.1625 38.1007C33.1199 38.0518 33.0964 37.9893 33.0962 37.9246L33.0971 35.0242C33.0974 34.9595 33.121 34.8971 33.1634 34.8483C33.2059 34.7995 33.2645 34.7676 33.3285 34.7584L34.6957 34.5674C35.0154 34.5213 35.318 34.3941 35.5747 34.198C35.8314 34.002 36.0337 33.7435 36.1624 33.4472C36.4006 32.896 36.7028 32.3746 37.0628 31.894C37.2569 31.634 37.3809 31.3285 37.4229 31.0067C37.4649 30.685 37.4235 30.3579 37.3026 30.0568L36.7918 28.7995C36.7675 28.7393 36.7658 28.6724 36.7869 28.611C36.808 28.5496 36.8506 28.4979 36.9067 28.4654L39.4418 27.0094C39.4822 26.9862 39.528 26.974 39.5746 26.974C39.6154 26.9739 39.6557 26.9831 39.6925 27.0008C39.7292 27.0186 39.7614 27.0444 39.7867 27.0765L40.6352 28.1574C40.8353 28.41 41.0965 28.6074 41.3942 28.7308C41.6918 28.8542 42.016 28.8995 42.3361 28.8626C42.9425 28.7913 43.5551 28.7919 44.1612 28.8644C44.4801 28.9007 44.8029 28.8549 45.099 28.7312C45.3952 28.6076 45.6547 28.4103 45.8531 28.1581L46.704 27.0742C46.744 27.0237 46.8008 26.9892 46.8641 26.9769C46.9274 26.9646 46.9929 26.9753 47.049 27.0072L49.5821 28.4611C49.6383 28.4936 49.6808 28.5453 49.702 28.6067C49.7231 28.6681 49.7214 28.735 49.6971 28.7952L49.185 30.0538C49.0641 30.355 49.0226 30.6822 49.0645 31.0041C49.1065 31.326 49.2305 31.6317 49.4246 31.8919C49.784 32.3722 50.0861 32.893 50.3247 33.4435C50.4536 33.7395 50.656 33.9978 50.9127 34.1936C51.1695 34.3895 51.472 34.5164 51.7916 34.5625L53.1567 34.7524C53.2209 34.7615 53.2796 34.7934 53.3221 34.8423C53.3646 34.8912 53.3881 34.9537 53.3883 35.0185L53.3873 37.9189Z" fill="white"/>
<g clip-path="url(#clip0_2535_5145)">
<path d="M21.9792 16.5745C22.0739 16.5745 22.1689 16.5717 22.2636 16.5745C22.5189 16.5828 22.6372 16.7715 22.5156 17.0069C22.4199 17.1812 22.3096 17.3466 22.186 17.5011C21.45 18.4673 20.7195 19.4387 19.9686 20.3925C19.2866 21.2574 18.5909 22.112 17.8813 22.9562C17.5379 23.3643 17.1223 23.6855 16.5899 23.805C15.9606 23.9462 15.4075 23.7655 14.8963 23.3927C14.5871 23.1672 14.3833 22.8469 14.1823 22.5297C13.5231 21.4879 12.8694 20.4419 12.2214 19.3918C11.938 18.9318 11.6749 18.4586 11.4028 17.991C11.3875 17.9647 11.3728 17.9373 11.3603 17.9098C11.1898 17.5487 11.2925 17.3538 11.6782 17.3251C13.0459 17.219 14.4143 17.1147 15.7832 17.0122C16.9923 16.9195 18.201 16.8287 19.4089 16.7431C20.265 16.6813 21.1216 16.6325 21.9783 16.5776L21.9792 16.5745Z" fill="white"/>
<path d="M20.5315 32.0858C20.2918 32.0478 20.0053 32.0089 19.7225 31.9551C19.1232 31.8415 18.5275 31.721 17.9303 31.6012C17.2112 31.457 16.492 31.3112 15.7729 31.1638C14.9315 30.9912 14.0904 30.8162 13.2496 30.6387C13.1219 30.6154 12.9964 30.5807 12.8745 30.5349C12.5706 30.4114 12.4646 30.1602 12.5919 29.8486C12.7603 29.4365 12.9398 29.0288 13.1199 28.6214C13.4174 27.9477 13.7036 27.2676 14.0254 26.606C14.239 26.1621 14.4788 25.7244 14.7601 25.3223C15.2914 24.5624 16.243 24.5013 16.8789 25.1737C17.1099 25.4183 17.3089 25.7013 17.4922 25.987C17.9162 26.6474 18.3213 27.3201 18.7342 27.9879C19.407 29.077 20.0795 30.1654 20.7517 31.2531C20.8129 31.353 20.8674 31.4572 20.915 31.5647C21.0475 31.8643 20.9009 32.0901 20.5315 32.0858Z" fill="white"/>
</g>
<defs>
<clipPath id="clip0_2535_5145">
<rect width="11.2821" height="15.5128" fill="white" transform="translate(11.2817 16.5732)"/>
</clipPath>
</defs>
</svg>
