<svg width="40" height="41" viewBox="0 0 40 41" fill="none" xmlns="http://www.w3.org/2000/svg">
<g clip-path="url(#clip0_2862_3875)">
<path d="M23.0048 15.6992C23.0777 15.6992 23.1509 15.697 23.2238 15.6992C23.4203 15.7057 23.5115 15.8537 23.4178 16.0382C23.3441 16.1749 23.2592 16.3046 23.164 16.4257C22.5974 17.1832 22.0349 17.9448 21.4567 18.6925C20.9316 19.3706 20.3958 20.0406 19.8495 20.7025C19.5851 21.0223 19.2651 21.2742 18.8551 21.3679C18.3706 21.4786 17.9446 21.3369 17.551 21.0446C17.3129 20.8679 17.156 20.6167 17.0012 20.368C16.4936 19.5513 15.9904 18.7313 15.4914 17.9079C15.2731 17.5474 15.0706 17.1764 14.8611 16.8098C14.8493 16.7892 14.838 16.7676 14.8283 16.7461C14.697 16.463 14.7762 16.3102 15.0731 16.2877C16.1263 16.2045 17.1799 16.1227 18.234 16.0424C19.1649 15.9697 20.0957 15.8985 21.0257 15.8314C21.6849 15.783 22.3445 15.7447 23.0041 15.7016L23.0048 15.6992Z" fill="white"/>
<path d="M21.8904 27.8603C21.7059 27.8305 21.4853 27.8 21.2675 27.7579C20.8061 27.6688 20.3474 27.5743 19.8876 27.4804C19.3338 27.3674 18.7801 27.2531 18.2264 27.1375C17.5785 27.0022 16.9309 26.865 16.2835 26.7258C16.1851 26.7076 16.0884 26.6803 15.9946 26.6444C15.7606 26.5476 15.679 26.3507 15.777 26.1063C15.9067 25.7833 16.0449 25.4637 16.1836 25.1443C16.4127 24.6161 16.633 24.0829 16.8808 23.5642C17.0453 23.2162 17.2299 22.873 17.4465 22.5578C17.8556 21.962 18.5884 21.9141 19.078 22.4413C19.2558 22.6331 19.409 22.8549 19.5502 23.0789C19.8767 23.5966 20.1886 24.124 20.5066 24.6476C21.0246 25.5014 21.5424 26.3547 22.06 27.2074C22.1071 27.2858 22.1491 27.3675 22.1858 27.4518C22.2877 27.6867 22.1749 27.8637 21.8904 27.8603Z" fill="white"/>
</g>
<path d="M38.562 29.1922L34.0701 20.2099C33.8874 19.8447 33.5671 19.567 33.1797 19.438C32.7923 19.3089 32.3695 19.3391 32.0043 19.5218C31.6391 19.7045 31.3614 20.0248 31.2324 20.4122C31.1033 20.7996 31.1335 21.2224 31.3162 21.5876L35.8081 30.5699C35.959 30.8716 36.0303 31.2069 36.0152 31.5439C36 31.8809 35.899 32.2084 35.7216 32.4953C35.5442 32.7823 35.2963 33.0191 35.0016 33.1832C34.7069 33.3474 34.3751 33.4334 34.0378 33.4332H27.6155L28.5052 32.5434C28.7939 32.2542 28.9558 31.8621 28.9554 31.4535C28.9549 31.0448 28.7922 30.6531 28.5029 30.3644C28.2137 30.0758 27.8216 29.9139 27.4129 29.9143C27.0043 29.9147 26.6126 30.0775 26.3239 30.3667L22.8049 33.8842C22.5163 34.1729 22.3542 34.5644 22.3542 34.9726C22.3542 35.3808 22.5163 35.7723 22.8049 36.0609L26.3239 39.58C26.6143 39.8604 27.0031 40.0155 27.4067 40.012C27.8103 40.0085 28.1964 39.8466 28.4819 39.5612C28.7673 39.2758 28.9292 38.8897 28.9327 38.4861C28.9362 38.0825 28.781 37.6936 28.5006 37.4033L27.6093 36.512H34.0332C34.8954 36.5123 35.7435 36.2921 36.4967 35.8724C37.2499 35.4527 37.8833 34.8473 38.3367 34.1138C38.79 33.3803 39.0483 32.5431 39.0869 31.6817C39.1256 30.8203 38.9433 29.9633 38.5574 29.1922H38.562ZM15.1018 33.4286H5.05729C4.71926 33.4282 4.38695 33.3414 4.09197 33.1763C3.79699 33.0112 3.54915 32.7734 3.37202 32.4855C3.1949 32.1976 3.09438 31.8692 3.08004 31.5315C3.06569 31.1937 3.138 30.858 3.29007 30.5561L6.13486 24.7526L6.55511 26.0118C6.61899 26.2039 6.72007 26.3814 6.85258 26.5344C6.9851 26.6874 7.14644 26.8128 7.32741 26.9034C7.50838 26.9941 7.70543 27.0481 7.9073 27.0626C8.10918 27.0771 8.31193 27.0517 8.50397 26.9878C8.69602 26.9239 8.87361 26.8228 9.02659 26.6903C9.17957 26.5578 9.30495 26.3965 9.39558 26.2155C9.48621 26.0345 9.54031 25.8375 9.55478 25.6356C9.56926 25.4337 9.54383 25.231 9.47995 25.0389L7.89745 20.3269C7.76821 19.9396 7.49044 19.6196 7.12526 19.4372C6.76008 19.2547 6.33738 19.2248 5.95013 19.354L1.23191 20.9272C0.844052 21.0568 0.523573 21.3352 0.340976 21.7012C0.158379 22.0671 0.12862 22.4905 0.258246 22.8784C0.387872 23.2663 0.666265 23.5867 1.03218 23.7693C1.3981 23.9519 1.82156 23.9817 2.20942 23.8521L3.34087 23.4749L0.533027 29.2014C0.147882 29.9724 -0.0338168 30.8291 0.00517998 31.6901C0.0441767 32.551 0.302575 33.3877 0.755844 34.1208C1.20911 34.8538 1.84221 35.4588 2.59504 35.8784C3.34786 36.298 4.19543 36.5182 5.05729 36.5181H15.1002C15.5085 36.5181 15.9001 36.3559 16.1888 36.0673C16.4774 35.7786 16.6396 35.387 16.6396 34.9787C16.6396 34.5705 16.4774 34.1789 16.1888 33.8902C15.9001 33.6015 15.5085 33.4394 15.1002 33.4394L15.1018 33.4286ZM27.4138 13.6659C27.5502 13.7036 27.691 13.7228 27.8325 13.7229C28.1679 13.7227 28.4941 13.613 28.7614 13.4104C29.0287 13.2078 29.2225 12.9235 29.3134 12.6007L30.6588 7.80857C30.7693 7.4154 30.719 6.99447 30.5191 6.63837C30.3192 6.28227 29.986 6.02017 29.5928 5.90973C29.1996 5.79929 28.7787 5.84956 28.4226 6.04948C28.0665 6.2494 27.8044 6.58259 27.694 6.97576L27.286 8.43048L24.2073 2.59004C23.7889 1.83535 23.1831 1.20119 22.4484 0.748735C21.7136 0.296284 20.8747 0.0408089 20.0124 0.00695244C19.1493 -0.0387774 18.2892 0.141689 17.5173 0.530488C16.7454 0.919287 16.0884 1.50294 15.6113 2.22367L9.97871 10.5364C9.75024 10.8745 9.66536 11.2894 9.74272 11.6901C9.82008 12.0907 10.0533 12.4443 10.3913 12.673C10.7292 12.9016 11.144 12.9868 11.5447 12.9097C11.9453 12.8326 12.299 12.5997 12.5279 12.262L18.1605 3.94932C18.348 3.67309 18.6022 3.44875 18.8996 3.29714C19.197 3.14553 19.5279 3.07159 19.8616 3.08219C20.1952 3.09279 20.5207 3.18759 20.8079 3.35776C21.0951 3.52794 21.3346 3.76797 21.5041 4.05554L24.4412 9.62812L23.4576 9.35103C23.0636 9.24121 22.6421 9.29239 22.2859 9.49332C21.9296 9.69425 21.6678 10.0285 21.558 10.4224C21.4482 10.8164 21.4993 11.2379 21.7003 11.5941C21.9012 11.9504 22.2354 12.2122 22.6294 12.322L27.4138 13.6659Z" fill="white"/>
<defs>
<clipPath id="clip0_2862_3875">
<rect width="8.68711" height="12.162" fill="white" transform="translate(14.7681 15.6982)"/>
</clipPath>
</defs>
</svg>
