<svg width="36" height="44" viewBox="0 0 36 44" fill="none" xmlns="http://www.w3.org/2000/svg">
<path d="M35.4541 29.5542L31.6474 19.8396C31.6127 19.7509 31.5593 19.6705 31.4908 19.6038C31.4223 19.537 31.3402 19.4854 31.25 19.4524C31.1599 19.4194 31.0636 19.4056 30.9677 19.4121C30.8718 19.4186 30.7784 19.4452 30.6936 19.4901L27.4807 21.1914C26.7593 21.5625 26.0432 21.3052 24.84 20.8186C23.22 20.1635 21.0279 19.2795 18.1728 21.0204C16.0969 19.8148 14.3257 20.2279 12.8859 20.5644C11.7888 20.8209 10.9222 21.0234 10.0918 20.561C10.0759 20.5522 10.0597 20.544 10.0432 20.5364L5.84545 18.6205C5.68263 18.5463 5.49675 18.5387 5.32832 18.5994C5.15988 18.6602 5.02254 18.7843 4.9462 18.9448L0.561677 28.1734C0.403086 28.5073 0.559979 28.9375 0.921649 29.0821C0.979974 29.1071 4.83778 30.8249 5.20607 30.9664C5.49499 31.0773 5.58744 31.4196 5.71674 32.1203C5.78356 32.483 5.85733 32.8806 6.01847 33.2433L5.39879 34.3896C4.74694 35.5952 5.2082 37.1009 6.42692 37.7459C6.78823 37.9379 7.19195 38.0384 7.60209 38.0386C7.63987 38.0386 7.67765 38.0362 7.71552 38.0344C7.53434 39.0607 8.02387 40.1321 9.00174 40.6497C9.74053 41.0407 10.6759 41.0326 11.4191 40.619C11.3571 40.6535 11.8593 41.2827 11.9185 41.3419C12.1578 41.5805 12.4428 41.7693 12.7568 41.8975C13.3912 42.1568 14.1092 42.148 14.7358 41.8712C14.5587 41.9494 15.5742 43.0033 15.6828 43.0759C16.3043 43.4919 17.099 43.6097 17.8164 43.3947C18.3444 43.2364 18.7943 42.9194 19.1127 42.488L19.9478 42.9424C20.3164 43.1436 20.7306 43.249 21.1516 43.249C22.0369 43.249 22.8963 42.7847 23.3522 41.9647C23.6349 41.4562 23.7165 40.8906 23.6246 40.3576C24.4416 40.2967 25.2132 39.8426 25.6367 39.0809C25.8724 38.657 25.9669 38.1918 25.937 37.7383C26.0355 37.7501 26.1346 37.7564 26.2341 37.7564C26.4696 37.7564 26.7068 37.7232 26.9399 37.6563C27.5842 37.4713 28.1163 37.0507 28.438 36.4722C28.7069 35.9884 28.7929 35.451 28.7191 34.9388C28.9201 34.9315 29.1195 34.9005 29.313 34.8463C29.9661 34.6626 30.5051 34.2391 30.8307 33.6534C31.1035 33.1628 31.1868 32.6153 31.1053 32.0946L35.0873 30.415C35.2493 30.3466 35.3782 30.2186 35.4467 30.058C35.5151 29.8974 35.5178 29.7167 35.4541 29.5542ZM7.06757 36.5609C6.50927 36.2654 6.29796 35.5758 6.59655 35.0234L7.75703 32.8769C8.04552 32.3432 8.75893 32.1189 9.31221 32.4115C9.86159 32.7012 10.0755 33.4063 9.78221 33.9484L8.61961 36.0983C8.4757 36.3624 8.23518 36.5562 7.9416 36.6443C7.64675 36.7325 7.33619 36.7031 7.06757 36.5609ZM10.5164 39.5482C10.2215 39.6366 9.91109 39.607 9.64238 39.4648C9.084 39.1693 8.87277 38.4797 9.17136 37.9273L10.7461 35.0151C11.0394 34.4727 11.7526 34.2645 12.299 34.5535C12.8425 34.841 13.0637 35.5454 12.769 36.0904L11.1965 38.9989C11.0528 39.2647 10.8114 39.4597 10.5164 39.5482ZM14.0404 40.6972C13.7455 40.7857 13.4352 40.7561 13.1664 40.6138C12.608 40.3184 12.3968 39.6287 12.6953 39.0762L13.967 36.7237C14.2452 36.1728 14.984 35.9751 15.522 36.2588C15.7892 36.3997 15.9859 36.6377 16.0754 36.9291C16.1654 37.2219 16.1358 37.5297 15.992 37.7957L14.7204 40.1478C14.5768 40.4137 14.3353 40.6088 14.0404 40.6972ZM17.4223 42.1086C17.1273 42.1971 16.8169 42.1674 16.5481 42.0252C15.9899 41.7299 15.7786 41.0401 16.0772 40.4877L17.1898 38.4294C17.483 37.887 18.1981 37.6746 18.745 37.9641C19.2821 38.2469 19.5225 38.9687 19.215 39.501L18.1023 41.5594C17.9587 41.8252 17.7172 42.0202 17.4223 42.1086ZM22.1618 41.3171C21.8567 41.8658 21.1571 42.0667 20.6022 41.7649L19.775 41.3149L20.413 40.1347C20.5664 39.8518 20.6623 39.5419 20.6955 39.2225L21.7054 39.772L21.7076 39.7733C22.2624 40.0772 22.4662 40.7697 22.1618 41.3171ZM29.6403 33.0059C29.491 33.2745 29.2427 33.4692 28.9415 33.5537C28.6492 33.6361 28.3458 33.6017 28.0874 33.4575L23.5565 30.9256C23.2296 30.743 22.8155 30.8571 22.6311 31.1801C22.4467 31.5032 22.5619 31.9131 22.8884 32.0956L26.7892 34.2784C27.3442 34.5875 27.5499 35.281 27.2476 35.8245C27.1008 36.0886 26.8569 36.2808 26.561 36.3658C26.2648 36.4507 25.9549 36.4173 25.6881 36.2723L20.7526 33.5438C20.6749 33.5005 20.5893 33.4728 20.5007 33.4623C20.4122 33.4517 20.3224 33.4585 20.2365 33.4823C20.1506 33.5061 20.0702 33.5463 20.0001 33.6008C19.9299 33.6553 19.8713 33.7229 19.8275 33.7998C19.7838 33.8767 19.7558 33.9614 19.7451 34.049C19.7344 34.1366 19.7413 34.2254 19.7653 34.3104C19.7894 34.3954 19.8301 34.4749 19.8851 34.5443C19.9402 34.6137 20.0086 34.6717 20.0863 34.715L23.9878 36.8872C24.5427 37.1962 24.7484 37.8898 24.4462 38.4333C24.1411 38.982 23.4415 39.183 22.8866 38.8811L20.12 37.3678C19.9154 37.1264 19.6658 36.9263 19.3846 36.7785C19.0427 36.5983 18.6615 36.4965 18.2739 36.4865C17.9789 36.479 17.6772 36.5259 17.3978 36.6195C17.2662 36.0691 16.7485 35.3824 16.1616 35.0731C15.5728 34.7616 14.7086 34.7567 14.1749 34.9141C14.1675 34.887 14.1604 34.8598 14.152 34.8327C13.9568 34.1975 13.5255 33.677 12.9386 33.3678C12.4242 33.0944 11.8289 33.009 11.2572 33.1265C11.2396 32.9789 11.2088 32.833 11.1652 32.6908C10.9699 32.0556 10.5386 31.5351 9.95175 31.2258C8.96124 30.7019 7.77036 30.9052 7.00899 31.6469C6.86865 30.933 6.62329 30.0691 5.69747 29.7135C5.33198 29.5731 3.33609 28.6833 2.26382 28.2054L2.08502 28.1256L5.88849 20.1201L9.45034 21.7456C10.7344 22.4478 11.9866 22.1552 13.1981 21.872C14.4171 21.5871 15.5802 21.3163 16.9436 21.9048C16.6233 22.1714 16.3155 22.4524 16.0213 22.747C14.7899 23.9781 13.2154 25.1409 11.3415 26.2028C11.2587 26.2497 11.1869 26.3133 11.1307 26.3894C11.0744 26.4656 11.035 26.5526 11.015 26.6448C10.995 26.7371 10.9949 26.8324 11.0146 26.9247C11.0343 27.017 11.0734 27.1041 11.1294 27.1804C13.6128 30.5658 16.5448 29.3917 18.9009 28.4482C20.4508 27.8274 21.7894 27.2915 22.8578 27.8939L29.1785 31.458C29.7338 31.7711 29.9409 32.4655 29.6403 33.0059ZM30.5479 30.8689C30.3529 30.6361 30.1169 30.4402 29.8513 30.2906L23.5307 26.7266C22.97 26.4103 22.3933 26.2855 21.8082 26.2855C20.6813 26.2855 19.5235 26.7492 18.3913 27.2026C16.2782 28.0489 14.4289 28.7895 12.7053 26.9666C14.387 25.9535 15.8249 24.8541 16.987 23.6923C17.5004 23.1791 18.0217 22.7405 18.5361 22.3886C20.9872 20.7125 22.6846 21.3988 24.3259 22.0624C25.5387 22.5529 26.7926 23.06 28.1146 22.3797L30.6582 21.033L33.9501 29.4338L30.5479 30.8689ZM9.18656 17.3776C9.13596 17.5016 9.12388 17.6376 9.15187 17.7684C9.17986 17.8992 9.24664 18.0187 9.34367 18.1118C9.4407 18.2048 9.56358 18.2671 9.69658 18.2906C9.82958 18.3142 9.96667 18.298 10.0903 18.2441L13.1274 16.92C14.5805 17.8459 16.2563 18.3333 17.9986 18.3333C19.7408 18.3333 21.4166 17.8459 22.8697 16.9201L25.9068 18.2441C26.0305 18.298 26.1676 18.3142 26.3006 18.2907C26.4336 18.2671 26.5565 18.2048 26.6535 18.1118C26.7505 18.0187 26.8172 17.8992 26.8452 17.7684C26.8732 17.6377 26.8611 17.5017 26.8106 17.3777L25.549 14.288C26.5073 12.8388 27.0119 11.1627 27.0119 9.41679C27.0119 4.50001 22.9685 0.500061 17.9986 0.500061C13.0286 0.500061 8.98526 4.50001 8.98526 9.4167C8.98526 11.1626 9.48982 12.8387 10.4482 14.288L9.18656 17.3776ZM10.3436 9.4167C10.3436 5.24104 13.7776 1.84388 17.9986 1.84388C22.2195 1.84388 25.6535 5.24104 25.6535 9.4167C25.6535 11.0061 25.1614 12.527 24.2304 13.8151C24.1639 13.9071 24.122 14.0142 24.1085 14.1265C24.095 14.2388 24.1103 14.3527 24.1531 14.4575L24.9249 16.3474L23.0747 15.5408C22.9674 15.4939 22.8497 15.4754 22.733 15.487C22.6163 15.4985 22.5046 15.5398 22.4089 15.6068C21.1142 16.5114 19.5891 16.9894 17.9986 16.9894C16.408 16.9894 14.8829 16.5114 13.5882 15.6068C13.4925 15.5398 13.3808 15.4986 13.2641 15.487C13.1475 15.4754 13.0297 15.494 12.9225 15.5408L11.0723 16.3474L11.844 14.4575C11.8868 14.3527 11.9021 14.2388 11.8886 14.1265C11.8751 14.0142 11.8332 13.9071 11.7667 13.8151C10.8357 12.527 10.3436 11.0061 10.3436 9.4167Z" fill="white"/>
<g clip-path="url(#clip0_1258_2720)">
<path d="M20.6891 4.88908C20.7395 4.88908 20.79 4.88747 20.8404 4.88908C20.9761 4.89392 21.0391 5.00341 20.9744 5.13996C20.9235 5.24111 20.8648 5.33705 20.7991 5.42669C20.4077 5.98723 20.0192 6.55081 19.6199 7.10418C19.2572 7.60595 18.8872 8.10174 18.5098 8.59155C18.3272 8.82828 18.1062 9.01464 17.823 9.08399C17.4883 9.16589 17.1942 9.06106 16.9223 8.84476C16.7579 8.71394 16.6495 8.52811 16.5426 8.34407C16.192 7.73969 15.8444 7.13286 15.4998 6.52357C15.349 6.25674 15.2091 5.98221 15.0644 5.7109C15.0563 5.69567 15.0485 5.67972 15.0418 5.66377C14.9511 5.45428 15.0058 5.34121 15.2109 5.32454C15.9383 5.26302 16.666 5.20251 17.394 5.14301C18.037 5.08925 18.6798 5.03657 19.3222 4.98693C19.7775 4.95109 20.2331 4.92277 20.6887 4.89088L20.6891 4.88908Z" fill="white"/>
<path d="M19.9192 13.8884C19.7917 13.8663 19.6394 13.8437 19.489 13.8126C19.1703 13.7466 18.8535 13.6767 18.5359 13.6072C18.1534 13.5236 17.771 13.439 17.3885 13.3535C16.941 13.2533 16.4937 13.1518 16.0466 13.0488C15.9787 13.0353 15.9119 13.0152 15.8471 12.9886C15.6855 12.9169 15.6291 12.7712 15.6968 12.5904C15.7864 12.3514 15.8818 12.1148 15.9776 11.8785C16.1358 11.4876 16.288 11.093 16.4592 10.7092C16.5728 10.4517 16.7003 10.1977 16.8499 9.96441C17.1324 9.52357 17.6385 9.48809 17.9767 9.87821C18.0996 10.0201 18.2054 10.1843 18.3029 10.35C18.5284 10.7332 18.7438 11.1235 18.9634 11.5109C19.3212 12.1428 19.6789 12.7742 20.0363 13.4052C20.0689 13.4633 20.0979 13.5237 20.1232 13.5861C20.1936 13.7599 20.1157 13.8909 19.9192 13.8884Z" fill="white"/>
</g>
<defs>
<clipPath id="clip0_1258_2720">
<rect width="6" height="9" fill="white" transform="translate(15 4.88837)"/>
</clipPath>
</defs>
</svg>
