<svg width="55" height="51" viewBox="0 0 55 51" fill="none" xmlns="http://www.w3.org/2000/svg">
<path d="M8.51196 44.4612V19.5584L28.1548 5.23047L47.7977 19.5584V44.4612" stroke="white" stroke-width="1.5" stroke-miterlimit="10" stroke-linecap="round" stroke-linejoin="round"/>
<path d="M22 36H14V44H22V36Z" stroke="white" stroke-miterlimit="10" stroke-linecap="round" stroke-linejoin="round"/>
<path d="M32 36H24V44H32V36Z" stroke="white" stroke-miterlimit="10" stroke-linecap="round" stroke-linejoin="round"/>
<path d="M42 36H34V44H42V36Z" stroke="white" stroke-miterlimit="10" stroke-linecap="round" stroke-linejoin="round"/>
<path d="M22 28H14V36H22V28Z" stroke="white" stroke-miterlimit="10" stroke-linecap="round" stroke-linejoin="round"/>
<path d="M32 28H24V36H32V28Z" stroke="white" stroke-miterlimit="10" stroke-linecap="round" stroke-linejoin="round"/>
<path d="M42 28H34V36H42V28Z" stroke="white" stroke-miterlimit="10" stroke-linecap="round" stroke-linejoin="round"/>
<g clip-path="url(#clip0_2535_5176)">
<path d="M31.5851 13.0009C31.6522 13.0009 31.7196 12.9989 31.7867 13.0009C31.9677 13.0068 32.0517 13.1406 31.9654 13.3075C31.8976 13.4311 31.8193 13.5484 31.7317 13.6579C31.2098 14.343 30.6918 15.0319 30.1594 15.7082C29.6758 16.3215 29.1824 16.9274 28.6793 17.5261C28.4358 17.8154 28.1411 18.0432 27.7635 18.128C27.3174 18.2281 26.9251 18.1 26.5627 17.8356C26.3434 17.6757 26.1989 17.4486 26.0563 17.2236C25.5889 16.485 25.1254 15.7433 24.6659 14.9986C24.4649 14.6725 24.2784 14.3369 24.0854 14.0053C24.0746 13.9867 24.0642 13.9672 24.0553 13.9477C23.9344 13.6917 24.0072 13.5535 24.2807 13.5331C25.2506 13.4579 26.2209 13.3839 27.1916 13.3112C28.0489 13.2455 28.906 13.1811 29.7625 13.1205C30.3695 13.0767 30.977 13.0421 31.5844 13.0031L31.5851 13.0009Z" fill="white"/>
<path d="M30.559 24.0001C30.389 23.9731 30.1859 23.9455 29.9853 23.9074C29.5603 23.8268 29.1379 23.7414 28.7145 23.6564C28.2046 23.5542 27.6946 23.4508 27.1847 23.3463C26.5881 23.2239 25.9917 23.0998 25.3955 22.9739C25.3049 22.9575 25.2159 22.9328 25.1294 22.9004C24.914 22.8127 24.8388 22.6347 24.9291 22.4137C25.0485 22.1215 25.1758 21.8324 25.3035 21.5435C25.5144 21.0658 25.7174 20.5835 25.9455 20.1144C26.097 19.7996 26.267 19.4893 26.4665 19.2041C26.8432 18.6653 27.5181 18.622 27.9689 19.0988C28.1327 19.2722 28.2738 19.4729 28.4038 19.6755C28.7045 20.1437 28.9918 20.6208 29.2845 21.0943C29.7616 21.8666 30.2385 22.6383 30.7151 23.4096C30.7585 23.4805 30.7972 23.5543 30.8309 23.6306C30.9248 23.843 30.8209 24.0031 30.559 24.0001Z" fill="white"/>
</g>
<defs>
<clipPath id="clip0_2535_5176">
<rect width="8" height="11" fill="white" transform="translate(24 13)"/>
</clipPath>
</defs>
</svg>
