<svg width="50" height="50" viewBox="0 0 50 50" fill="none" xmlns="http://www.w3.org/2000/svg">
<path d="M34.8516 25C34.8516 19.5703 30.4297 15.1484 25 15.1484C19.5703 15.1562 15.1562 19.5703 15.1562 25C15.1562 30.4297 19.5703 34.8516 25.0078 34.8516C30.4297 34.8516 34.8516 30.4297 34.8516 25ZM16.6719 25C16.6719 20.4062 20.4141 16.6641 25.0078 16.6641C29.6016 16.6641 33.3438 20.4062 33.3438 25C33.3438 29.5937 29.6016 33.3359 25.0078 33.3359C20.4062 33.3359 16.6719 29.5937 16.6719 25Z" fill="white"/>
<path d="M49.7814 37.0703L41.086 28.3906C40.9797 28.2841 40.8442 28.2116 40.6966 28.1822C40.549 28.1529 40.396 28.1681 40.2571 28.2258C40.1181 28.2836 39.9995 28.3813 39.9162 28.5066C39.8328 28.632 39.7887 28.7792 39.7892 28.9297V31.8281H35.8517C37.1017 29.8516 37.8361 27.5156 37.8361 25.0078C37.8361 20.0625 35.0236 15.7734 30.9142 13.625L30.922 7.375C30.922 7.17188 30.8439 6.98438 30.7032 6.83594C30.5595 6.69465 30.3657 6.616 30.1642 6.61719H10.211V3.71875C10.2116 3.56827 10.1674 3.42103 10.0841 3.29571C10.0008 3.17039 9.8821 3.07265 9.74315 3.01489C9.60419 2.95713 9.45121 2.94196 9.30361 2.9713C9.15602 3.00064 9.02047 3.07317 8.91417 3.17969L0.218862 11.8594C0.0790974 12.004 0.000976563 12.1973 0.000976562 12.3984C0.000976562 12.5996 0.0790974 12.7929 0.218862 12.9375L8.91417 21.6172C9.02163 21.7216 9.15701 21.7926 9.30397 21.8217C9.45092 21.8508 9.60316 21.8368 9.7423 21.7812C10.0235 21.6641 10.211 21.3906 10.211 21.0781V18.1875H14.1486C12.8986 20.1641 12.1642 22.5 12.1642 25.0078C12.1642 29.9531 14.9767 34.2422 19.0861 36.3828L19.0939 42.625C19.0939 43.0469 19.4298 43.3828 19.8517 43.3828H39.7892V46.2813C39.7892 46.5859 39.9767 46.8672 40.2579 46.9844C40.3517 47.0234 40.4532 47.0391 40.547 47.0391C40.7423 47.0391 40.9376 46.9609 41.086 46.8203L49.7814 38.1406C49.922 38 50.0001 37.8047 50.0001 37.6016C50.0001 37.3984 49.922 37.2109 49.7814 37.0703V37.0703ZM9.45324 16.6641C9.03136 16.6641 8.69542 17 8.69542 17.4219V19.25L1.82824 12.3984L8.69542 5.54688V7.375C8.69542 7.79688 9.03136 8.13281 9.45324 8.13281H29.3986L29.3907 12.9609C28.0157 12.4609 26.5392 12.1719 24.9923 12.1719C21.0939 12.1719 17.6095 13.9219 15.2501 16.6719H9.45324V16.6641ZM13.6876 25C13.6876 18.7578 18.7657 13.6797 25.0079 13.6797C31.2501 13.6797 36.3282 18.7578 36.3282 25C36.3282 31.2422 31.2501 36.3203 25.0079 36.3203C18.7579 36.3203 13.6876 31.2422 13.6876 25V25ZM41.3048 44.4531V42.625C41.3048 42.2031 40.9689 41.8672 40.547 41.8672H20.6095L20.6017 37.0391C21.9767 37.5391 23.4532 37.8281 25.0001 37.8281C28.8907 37.8281 32.3829 36.0781 34.7345 33.3359H40.547C40.9689 33.3359 41.3048 33 41.3048 32.5781V30.75L48.1642 37.6016L41.3048 44.4531V44.4531Z" fill="white"/>
<g clip-path="url(#clip0_1258_2626)">
<path d="M27.6889 20.0007C27.7392 20.0007 27.7898 19.9991 27.8401 20.0007C27.9759 20.0056 28.0388 20.115 27.9741 20.2516C27.9233 20.3527 27.8646 20.4487 27.7988 20.5383C27.4075 21.0989 27.019 21.6624 26.6196 22.2158C26.2569 22.7176 25.8869 23.2134 25.5096 23.7032C25.3269 23.9399 25.1059 24.1263 24.8227 24.1956C24.4881 24.2775 24.1939 24.1727 23.9221 23.9564C23.7576 23.8256 23.6493 23.6397 23.5423 23.4557C23.1918 22.8513 22.8442 22.2445 22.4995 21.6352C22.3488 21.3684 22.2089 21.0938 22.0642 20.8225C22.056 20.8073 22.0482 20.7914 22.0415 20.7754C21.9509 20.5659 22.0055 20.4528 22.2106 20.4362C22.938 20.3746 23.6657 20.3141 24.3938 20.2546C25.0368 20.2009 25.6796 20.1482 26.322 20.0986C26.7772 20.0627 27.2328 20.0344 27.6884 20.0025L27.6889 20.0007Z" fill="white"/>
<path d="M26.9192 29C26.7917 28.978 26.6394 28.9554 26.489 28.9242C26.1703 28.8583 25.8535 28.7884 25.5359 28.7188C25.1534 28.6352 24.771 28.5506 24.3885 28.4651C23.941 28.365 23.4937 28.2634 23.0466 28.1604C22.9787 28.1469 22.9119 28.1268 22.8471 28.1002C22.6855 28.0286 22.6291 27.8829 22.6968 27.702C22.7864 27.463 22.8818 27.2264 22.9776 26.9901C23.1358 26.5992 23.288 26.2046 23.4592 25.8208C23.5728 25.5633 23.7003 25.3094 23.8499 25.076C24.1324 24.6352 24.6385 24.5997 24.9767 24.9898C25.0996 25.1318 25.2054 25.2959 25.3029 25.4617C25.5284 25.8448 25.7438 26.2351 25.9634 26.6225C26.3212 27.2544 26.6789 27.8858 27.0363 28.5169C27.0689 28.5749 27.0979 28.6353 27.1232 28.6977C27.1936 28.8715 27.1157 29.0025 26.9192 29Z" fill="white"/>
</g>
<defs>
<clipPath id="clip0_1258_2626">
<rect width="6" height="9" fill="white" transform="translate(22 20)"/>
</clipPath>
</defs>
</svg>
