<?xml version="1.0" encoding="UTF-8"?><svg id="a" xmlns="http://www.w3.org/2000/svg" viewBox="0 0 128 128"><defs><style>.bd{fill:#fff;}.be{fill:#faa819;}.bf{fill:#313132;}.bg{fill:#e65125;}.bh{fill:#636668;}.bi{fill:#424143;}.bj{fill:#e6e7e7;}.bk{fill:#895c24;}.bl{fill:#f7fbfe;}.bm{fill:#2b2c2b;}.bn{fill:#cf4827;}.bo{fill:#bdbec0;}.bp{fill:#e64d3c;}.bq{fill:#7c7d7d;}.br{fill:#151313;}.bs{fill:#1e1b1c;}.bt{fill:#393839;}.bu{fill:#bac8e7;}.bv{fill:#818285;}.bw{fill:#b7b9b8;}.bx{fill:#323233;}.by{fill:#272626;}.bz{fill:#232122;}.ca{fill:#212222;}.cb{fill:#e57e25;}.cc{fill:#6f7173;}.cd{fill:#464748;}.ce{fill:#595a5c;}.cf{fill:#f2f2f2;}.cg{fill:#242223;}</style></defs><g id="b"><path class="by" d="m114.5,50.6l.4.6.3.6h0c0,.1.4.8.4.8v.8l.3.8v1l6.6,4v-2.1c-.1,0-.1-.4-.1-.4h-.1v-.4l-.3-.4h0c0-.1-.1-.4-.1-.4v-.3h-.3l-.4-.6-.3-.4h-.1c-.1-.3-.4-.4-.6-.4l-6.6-4.1.6.6.4.4h0Z"/><path class="bf" d="m119.8,58.9v-.8h-.1c0-.1-.1-.3-.1-.3l-.3-.3-.6-.3-1.4-1v.3c.1,0,.4.3.4.3v1c.1,0,.1.6.1.6v.7c-.1,0-.4.6-.4.6v.4c-.1,0-.3.3-.3.3l-.3.4-.4.4-1,.7h-.3c0,.1-.1.1-.1.1h-.3c0,.1-1,.1-1,.1l2.1,1.1h.3c0,.1,1,.1,1,.1h.3c0-.3,0-.1,0-.1h.1c0-.1.1-.1.1-.1h.1c.1-.1,0-.1,0-.1h.1c0-.1.1-.1.1-.1h0c0-.1.1-.3.1-.3h.1c0-.1.1-.3.1-.3h.1v-.3h.1c0-.1.1-.3.1-.3h0c0-.1.3-.4.3-.4h0c0-.1.1-.4.1-.4h.1v-.3c0-.1,0,0,0,0v-.6c.1,0,.1-1,.1-1h.1Z"/><path class="bw" d="m117.3,57.1h1.2l-2.1-1.2h-1.7c0,.1-.1.1-.1.1h-.1c-.1.1,0,.1,0,.1h-.1c0,.1-.1.1-.1.1h0c0,.1-.1.3-.1.3h-.1c0,.1-.1.1-.1.1h0c0,.1-.1.1-.1.1h0c0,.1-.1.3-.1.3v.3c-.1,0-.3.1-.3.1h0c0,.1-.3.4-.3.4v.3h-.1v.3h-.3v.6c0,.1,0,0-.1,0v2.1h.1v.3l.4.3,2.1,1.2-.3-.3-.3-.4v-.8c-.1,0-.1-.6-.1-.6v-.7c.1,0,.4-.6.4-.6v-.4c.1,0,.3-.3.3-.3l.3-.4.4-.4,1-.7h.1c0-.1.4-.3.4-.3h0Z"/><path id="c" class="bq" d="m116.7,57.2c1.4-.7,2.3,0,2.5,1.4,0,1.4-1.1,3.3-2.3,4.1-1.4.7-2.3,0-2.3-1.4,0-1.7.8-3.2,2.2-4.1h0Z"/><path class="by" d="m115.6,60.4h0v-.3c.1-.1.1,0,.1,0h.1-.1c0-.1-.1-.1-.1-.1v.4h.3c0,.1,0,0,0,0h-.3Z"/><path id="d" class="bm" d="m115.8,60.1h.3c0,.3,0,.4-.3.4h-.1v-.4Z"/><path id="e" class="by" d="m116,61.8v-.3h.1v.3Z"/><path class="bm" d="m116.3,61.5v.4h-.3s0-.3.3-.4Z"/><path id="f" class="by" d="m117.6,60.8h.3v-.3h-.1v.3h-.1Z"/><path id="g" class="bm" d="m117.8,60.7v.4h-.3c0-.3,0-.4.3-.4Z"/><path class="by" d="m118.1,58.9c.3-.1.1-.1,0,0v-.3c.1,0,0,0,0,0v.3h0Z"/><path id="h" class="bm" d="m118.3,58.8h.3l-.3.4h-.1v-.4Z"/><path id="i" class="by" d="m117,58.2h-.3v.6h.3c0,.1,0-.6,0-.6h0Z"/><path class="bm" d="m117,58.3v.6c.1,0-.1-.1-.1-.1v-.4h.1Z"/><path id="j" class="by" d="m116.6,60.3v-.3l.3-.3.3-.3h.3-.3c0-.1-.3-.1-.3-.1h-.3v.3h-.1c0,.1-.1.3-.1.3v1h.4c0,.1-.1-.1-.1-.1v-.4h0Z"/><path id="k" class="bm" d="m117.2,59.4c.3-.1.6,0,.6.4s-.3.8-.6,1c-.4.1-.7,0-.7-.3,0-.4.3-.8.7-1.1Z"/><path class="bf" d="m114,65h-.3v-.4l-.3-.4v-1.2c-.1,0-.1-1.1-.1-1.1v-.6c.1,0,.3-.4.3-.4v-.6c.1,0,.4-.6.4-.6,0-.1,0-.3.3-.4h0c0-.1.4-1,.4-1l.4-.6.3-.4.4-.4.4-.4.4-.3.4-.4h.4c0-.1.4-.4.4-.4h.4c0-.1.4-.1.4-.1h.3c0-.1,1-.1,1-.1.3,0,.3.1.4.3l-2.1-1.2h-.3c0-.1-2.2-.1-2.2-.1h-.1c0,.1-.1.1-.1.1h-.3v.3h-.3c0,.1-.1.1-.1.1v.3h-.4c0,.1-.3.4-.3.4h-.1v.3h-.3c0,.1-.1.1-.1.1v.3c-.1,0-.3.1-.3.1h-.3v.4h-.3v.4h-.1c0,.3,0,.1,0,.1l-.6.8v.3h-.1v.3h-.1v.3h-.1v.7h-.1v.8c-.1,0-.1,3-.1,3h.1c0,.1.1.3.1.3l.3.4h.3c0,.1.1.4.1.4l2.1,1.1h-.3c0-.1-.1-.6-.1-.6h0Z"/><path id="l" class="ca" d="m117.4,55.6c2.3-1.4,4.1-.3,4.1,2.3s-1.8,5.9-4.1,7.3-4.1.3-4.1-2.5,1.8-5.8,4.1-7.2Zm0,7.5c1.4-.7,2.3-2.5,2.3-4.1s-1.1-1.9-2.3-1.2c-1.4.8-2.3,2.6-2.3,4.1s1.1,2.1,2.3,1.2h0Z"/><path id="m" class="bi" d="m117.3,51.6v1.2h2.2c0,.1.1.1.1.1h.3c0,.1.4.4.4.4l-3-1.8Z"/><path class="bf" d="m110.8,64v-.8h-.1v-.3h-.1l-.3-.3-.6-.4-1.5-.8.3.3.3.3v2.1l-.3.7-.3.4h0c0,.1-.4.6-.4.6l-.3.6-1,.7h-.3c0,.1-.1.1-.1.1h-.3c0,.1-1,.1-1,.1l1.9,1.1h.4c0,.1,1,.1,1,.1h.1c0-.1.1-.1.1-.1h0c0-.1.3-.1.3-.1h0c0-.1.3-.1.3-.1v-.3h.3v-.3h.3v-.3c0-.1,0,0,0,0h.1c0-.1.1-.3.1-.3v-.3c.1,0,.4-.3.4-.3v-.3c0-.1,0,0,.1,0v-.3h.1v-.8h.1v-1h.1Z"/><path class="bw" d="m108.3,62.2h.4c0-.1.7-.1.7-.1l-1.9-1.1h-1.8c0,.1-.3.1-.3.1h0c0,.1-.1.1-.1.1-.1,0,0,.1,0,.1h-.3c0,.1-.1.4-.1.4h-.1c0,.1-.1.1-.1.1h0c0,.1-.1.1-.1.1-.1,0,0,.1,0,.1h-.1v.6h-.3v.4h-.1v.3h-.1v.6h-.1c0,.3,0,.1,0,.1v2.2h.3c0,.1,0,.4.3.4l1.9,1.2-.3-.3v-.4c-.1,0-.3-.4-.3-.4v-1.7l.3-.6.3-.4v-.3c.1,0,.4-.4.4-.4l.4-.4.8-.8h.6Z"/><path id="n" class="bq" d="m107.8,62.3c1.4-.7,2.3,0,2.3,1.4s-1,3.3-2.3,4.1c-1.2.7-2.3,0-2.3-1.4s1-3.2,2.3-4.1Z"/><path class="by" d="m106.7,65.5v-.3c.1,0,.1-.3.1-.3h-.1v.6-.3c.1,0,0,0,0,0v.3Z"/><path id="o" class="bm" d="m106.8,65.2h.3c0,.3-.1.4-.3.4h-.1v-.4Z"/><path id="p" class="by" d="m107.1,66.9v-.3c.1,0,0,0,0,0v.3h0Z"/><path id="q" class="bm" d="m107.3,66.6v.4h-.3c0-.1,0-.4.3-.4Z"/><path class="by" d="m108.6,65.9h.3v-.3h-.4v.3h.1Z"/><path id="r" class="bm" d="m108.9,65.8v.4h-.3c0-.1,0-.4.3-.4Z"/><path class="by" d="m109.1,64v-.4c.1,0,0,0,0,0v.4Z"/><path id="s" class="bm" d="m109.3,63.9h0v.4h-.1c0-.1.1-.4.1-.4Z"/><path class="by" d="m108,63.4h0v.3c-.1,0,0,.1,0,.1v-.4h0Z"/><path class="bm" d="m108,63.6c0-.1.1,0,0,0v.4h-.1c0-.1.1-.4.1-.4h0Z"/><path class="by" d="m107.5,65.4v-.3c.1,0,.4-.3.4-.3v-.3h.6-.3c0-.1-.3-.1-.3-.1h-.3c0,.1-.1.1-.1.1v.3h-.1v1h.4c0,.1-.1-.1-.1-.1v-.4h-.1Z"/><path id="t" class="bm" d="m108,64.6c.4-.1.7,0,.7.4s-.3.8-.7,1c-.3.1-.6,0-.6-.3,0-.4.3-.8.6-1.1Z"/><path class="bf" d="m105,70.2l-.3-.3v-.3h-.1l-.3-.6v-.8c-.1,0-.1-1.9-.1-1.9l.3-.4v-.6c.1,0,.4-.6.4-.6v-.4c.1,0,.1-.1.1-.1l.6-.8.4-.6.3-.4.4-.4.4-.4.3-.3.6-.4.4-.3h.4c0-.1.4-.3.4-.3h.3c0-.1,1.4-.1,1.4-.1.3,0,.3.1.4.3l-2.1-1.4h-.8c0-.1-1.2-.1-1.2-.1h0c0,.1-.3.1-.3.1h-.1c0,.1-.3.1-.3.1h0c0,.1-.1.1-.1.1h-.1c0,.1-.1.3-.1.3h-.1v.3h-.4c0,.1-.3.4-.3.4h-.1v.3h-.3c0,.1-.1.1-.1.1v.3h-.3c0,.3,0,.1,0,.1h-.3v.3h-.1v.3l-.3.3h0c0,.3,0,.1,0,.1l-.6.8v.3h-.1v.3h-.1v.6c-.1,0-.1.3-.1.3h-.1v.8c-.1,0-.1.6-.1.6v.3c-.1,0-.1,1.9-.1,1.9h.1v.3h.1c0,.1.1.4.1.4l.3.3v.3h.4l2.1,1.4-.3-.3-.3-.3h.1Z"/><path class="ca" d="m108.5,60.7c2.3-1.4,4.1-.3,4.1,2.3s-1.8,6.1-4.1,7.5-4.1.3-4.1-2.5,1.8-5.8,4.1-7.2h0Zm0,7.5c1.4-.7,2.3-2.5,2.3-4.1s-1.1-1.9-2.3-1.2c-1.4.8-2.3,2.6-2.3,4.1s1.1,2.1,2.3,1.2Z"/><path class="cd" d="m95.1,72l-8.4-5v-3.2l8.4,5v3.2Z"/><path class="cc" d="m95.1,68.8l-8.6-5,8.3-4.7,8.4,5-8.1,4.7h0Z"/><path class="bh" d="m103.2,64.1v3.2l-8.1,4.6v-3.2l8.3-4.7h-.1Z"/><path class="by" d="m86,67.2l.3.6.4.6h0c0,.1.3.8.3.8l.3.7v2.1l6.8,4v-1.8c-.1,0-.1-.7-.1-.7v-.3c-.1,0-.1-.3-.1-.3l-.3-.4h0c0-.1-.1-.6-.1-.6l-.3-.3-.4-.6-.4-.4-.6-.6-6.6-3.7.4.3h.1c0,.1.4.6.4.6h0Z"/><path class="bf" d="m91.2,75.5v-1.1h-.3l-.3-.3-.6-.4-1.5-.8.3.3.3.3v2.1l-.3.7-.3.4h0c0,.1-.4.6-.4.6l-.3.6-1,.7h-.3c0,.1-.1.1-.1.1h-.3c0,.1-1,.1-1,.1l2.1,1.1h.3c0,.1,1,.1,1,.1h.1c0-.1.1-.1.1-.1h0c0-.1.3-.1.3-.1h.1c.1-.1,0-.1,0-.1h0c0-.1.1-.1.1-.1h.1c0-.1.1-.3.1-.3h.1c0-.1.1-.4.1-.4h.1c.1,0,0,0,0-.1h.1c0-.1.1-.4.1-.4l.3-.3v-.4c0-.1.1,0,.1,0v-.3h.1v-.7c.1,0,.1-1,.1-1h.1Z"/><path class="bw" d="m88.7,73.7h.4c0-.1.8-.1.8-.1l-2.1-1.1h-.4c-.1,0,0,0,0,0h-1.2c0,.1-.1.1-.1.1h-.1c0,.1-.3.3-.3.3h0c0,.1-.1.1-.1.1v.3h-.3c0,.1-.3.1-.3.1h0c0,.1-.1.3-.1.3h-.1v.3h-.1v.3h-.3v.4h-.1v.6c-.1,0-.1.6-.1.6,0,.1,0,0-.1,0v2.1h.3c0,.1.3.4.3.4l2.1,1.2-.4-.3v-.4c-.1,0-.3-.4-.3-.4v-1.7c.1,0,.3-.6.3-.6l.3-.4v-.3c.1,0,.4-.4.4-.4l.4-.4.8-.8h.7Z"/><path class="bq" d="m88.2,73.8c1.4-.7,2.3-.1,2.3,1.4-.1,1.7-1,3.2-2.3,4.1-1.4.8-2.2,0-2.3-1.4,0-1.5,1.1-3.5,2.3-4.1Z"/><path class="by" d="m87.1,76.8c.3-.1.1-.1,0,0h.3c0-.1-.1-.3-.1-.3h-.1v.3s.3.3.3.3v-.3h-.3Z"/><path id="u" class="bm" d="m87.2,76.7h.3l-.3.4h-.1v-.4Z"/><path id="v" class="by" d="m87.5,78.4h0v-.3c.1-.1.1,0,.3,0h-.1c0-.1-.1-.1-.1-.1v.4h.3c0,.1,0,0,0,0h-.3Z"/><path id="w" class="bm" d="m87.7,78.1v.4h-.3c0-.1,0-.4.3-.4Z"/><path id="x" class="by" d="m89.1,77.4h0v-.3c.1,0-.1,0-.1,0v.3h.1Z"/><path id="y" class="bm" d="m89.1,77.3h.3v.4c-.1,0-.4-.1-.4-.1v-.3Z"/><path class="by" d="m89.5,75.5h0v-.3c.1,0,0,0,0,0v.3h0Z"/><path id="z" class="bm" d="m89.7,75.3h0v.4h-.1c0-.1.1-.4.1-.4Z"/><path class="by" d="m88.4,74.8h0v.6c-.1,0,0,.1,0,.1v-.3h.1c0-.1.1-.1.1-.1h-.1c0-.1-.1-.1-.1-.1h0Z"/><path id="aa" class="bm" d="m88.4,74.9v.4h-.1v-.4Z"/><path class="by" d="m88,76.7v-.3h.3c0-.1.1-.4.1-.4h.4-.3c0-.1-.3-.1-.3-.1h-.3c0,.1-.1.3-.1.3h0c0,.1-.1.1-.1.1v1h.4c0,.1-.1-.1-.1-.1v-.4h0Z"/><path id="ab" class="bm" d="m88.4,76c.4-.1.7,0,.7.4s-.3.8-.7,1c-.3.1-.6,0-.6-.3,0-.4.3-.8.6-1.1Z"/><path class="bf" d="m85.4,81.5h-.4v-.7l-.3-.4v-2.5c.1,0,.3-.4.3-.4v-.6c.1,0,.4-.6.4-.6v-.6c.1,0,.7-.8.7-.8v-.4l.4-.4.3-.4.4-.4.4-.4.3-.4.6-.3.4-.3h.4c0-.1.4-.3.4-.3h.3c0-.1,1.4-.1,1.4-.1h.4c0,.1-2.1-1-2.1-1h-.3c0-.1-.3-.3-.3-.3h-1.5c0,.1-.6.1-.6.1l-.3.3h-.3c0,.1-.1.1-.1.1v.3h-.6v.3h-.3v.3h-.3c0,.1-.1.3-.1.3h0c0,.1-.1.1-.1.1h-.1c0,.1-.1.3-.1.3h0c0,.1-.3.3-.3.3h0c0,.1-.1.3-.1.3h0c0,.1-.3.4-.3.4h0c0,.1-.6,1-.6,1v.3h-.1v.3h-.1v.3h-.1v.7c-.1,0-.1.7-.1.7h-.1v1.1c-.1,0-.1,1.8-.1,1.8h.1v.4h.1c0,.1.1.3.1.3l.3.4h.1c0,.1.3.4.3.4l2.1,1.1h-.3c0-.1-.1-.6-.1-.6h0Z"/><path id="ac" class="ca" d="m88.9,72.1c2.3-1.4,4.1-.3,4.1,2.3s-1.8,5.9-4.1,7.3c-2.3,1.4-4.1.3-4.1-2.5s1.8-5.8,4.1-7.2Zm0,7.5c1.4-.7,2.3-2.5,2.3-4.1s-1.1-1.9-2.3-1.2c-1.4.7-2.3,2.6-2.3,4.1s1.1,2.1,2.3,1.2h0Z"/><path id="ad" class="bi" d="m88.7,68.1v1.2h2.3c0,.1.3.1.3.1h0c0,.1.4.3.4.3l-3-1.7h0Z"/><path class="bf" d="m82.1,80.6v-.7h-.1v-.6h-.3c0-.1,0-.3-.3-.3l-.6-.3-1.4-.8.3.3v.3c.1,0,.3.4.3.4v1.7l-.3.7-.3.4h-.1c0,.1-.3.6-.3.6l-.4.6-.8.7h-.3c0,.1-.3.1-.3.1h-.1c0,.1-1.1.1-1.1.1l2.1,1.1h1.5c.1,0,0,0,0,0h.1c0-.1.1-.1.1-.1h0c0-.3.1-.1.1-.1h.1c0-.1.1-.3.1-.3h.1c0-.1.1-.1.1-.1h0c0-.1.1-.3.1-.3h.1c0-.3,0-.1,0-.1h0c0-.1.1-.1.1-.1h0c0-.1.1-.1.1-.1v-.3h.1v-.3c.1,0,.1-.1.1-.1h.1c0-.3,0-.1,0-.1h0c0-.1.1-.3.1-.3h0c0-.1.1-.4.1-.4v-.4h.1v-.8h.1Z"/><path class="bw" d="m79.5,78.8h.6c0-.1.7-.1.7-.1l-2.1-1.1h-1.7c0,.1-.3.3-.3.3,0,.1,0,0,0,0h-.1c0,.1-.1.3-.1.3h-.1c0,.1-.1.3-.1.3h-.1v.3h-.1c0,.1-.1.1-.1.1h0c0,.1-.1.3-.1.3v.3c-.1,0-.3.1-.3.1h0c0,.1-.1.3-.1.3-.1.1,0,0,0,.1h-.1v.4c0,.1,0,0,0,0h-.1v2.6h.1c0,.1.3.4.3.4l2.1,1.1h-.3c0-.1-.1-.6-.1-.6v-.4c-.1,0-.1-1.8-.1-1.8l.3-.6.3-.4v-.3l.4-.4.4-.4.8-.8h.4Z"/><path id="ae" class="bq" d="m79,78.9c1.4-.7,2.3-.1,2.3,1.4s-1.1,3.3-2.3,4.1c-1.4.7-2.3,0-2.3-1.4s1.1-3.5,2.3-4.1Z"/><path class="by" d="m77.8,82.1h0v-.3h.3v-.3h-.1v.6c.1,0,.1-.3.1-.3h-.3v.3h0Z"/><path id="af" class="bm" d="m78.1,81.8v.4h-.3c0-.3,0-.4.3-.4Z"/><path id="ag" class="by" d="m78.4,83.5v-.3c.3,0,.1,0,.1,0v-.3h-.1v.6-.3c.1,0,0,0,0,0v.3Z"/><path id="ah" class="bm" d="m78.5,83.2h.3c0,.3-.1.4-.3.4h-.1v-.4Z"/><path class="by" d="m79.9,82.5h.3v-.3h-.3v.3h0Z"/><path id="ai" class="bm" d="m80,82.2h.3c0,.1-.3.6-.3.6h-.1c0-.1.1-.6.1-.6Z"/><path class="by" d="m80.3,80.6h.3v-.4h-.3v.4h.3c0-.1-.3,0-.3,0Z"/><path id="aj" class="bm" d="m80.6,80.3v.6h-.3c0-.1.1-.4.1-.4h.1Z"/><path id="ak" class="by" d="m79.2,79.9v.6h.1c0,.1-.1-.6-.1-.6h.3c0-.1-.3,0-.3,0h0Z"/><path id="al" class="bm" d="m79.3,80.2c0-.1.1,0,0,0v.3h-.3c0-.1,0-.3.3-.3h0Z"/><path id="am" class="by" d="m78.8,81.8v-.3c.1,0,.3-.1.3-.1l.3-.3h.3-.1c0-.1-.4-.1-.4-.1h-.3v.3h-.1v1.1h.4c-.1.1-.3,0-.3-.3v-.3h0Z"/><path id="an" class="bm" d="m79.3,81.1c.3-.1.6,0,.6.4s-.3.8-.6,1c-.3.1-.6,0-.6-.4s.1-.7.6-1Z"/><path class="bf" d="m76.1,86.8v-.3c-.1,0-.3-.3-.3-.3v-.4c-.1,0-.3-.4-.3-.4v-2.5l.3-.4v-.6l.3-.6.3-.4v-.3l.4-.7h.1l.3-.6.4-.4.3-.4.4-.4.4-.4.4-.3.4-.3h.4c0-.1.4-.4.4-.4h2.2c0,.1-2.1-1-2.1-1h-.3c0-.1-.1-.1-.1-.1h-.3c0-.1-1.4-.1-1.4-.1h-.1c0,.1-.3.1-.3.1l-.3.3h-.3l-.3.3h-.3c0,.1-.1.3-.1.3h-.1c0,.1-.1.3-.1.3h-.1c0,.1-.3.3-.3.3h0c0,.1-.1.1-.1.1h0c0,.1-.3.3-.3.3h0c0,.1-.1.3-.1.3h-.1v.3h-.1c0,.1-.1.3-.1.3h-.1v.3h-.1c0,.1-.4,1-.4,1v.3c-.1,0-.3.3-.3.3h0c0,.1-.1.3-.1.3v.4h-.1v.8c-.1,0-.1.1-.1.1v.3c-.1,0-.1,2.5-.1,2.5v.3c.1,0,.3.1.3.1h0c0,.1.3.6.3.6h.3c0,.1.3.4.3.4l2.1,1.1h-.3c0-.1-.3-.4-.3-.4h-.1Z"/><path id="ao" class="ca" d="m79.6,77.3c2.3-1.4,4.1-.3,4.1,2.3s-1.8,5.9-4.1,7.2-4.1.3-4.1-2.3,1.9-5.9,4.1-7.2Zm0,7.5c1.4-.7,2.5-2.6,2.5-4.1s-1.1-1.9-2.5-1.2c-1.2.7-2.3,2.6-2.3,4.1,0,1.4,1.1,1.9,2.3,1.2h0Z"/><path class="be" d="m120.1,49.9h-.3c0,.1,2.8,1.8,2.8,1.8v1.5h.3c0-.1.3-.7.3-.7v-.6c0-.4-.1-.8-.6-1l-1.8-1.1h-.7Z"/><path class="bk" d="m122.5,51.7v1.5l-2.8-1.5v-1.5l2.8,1.5h0Z"/><path class="bs" d="m119.8,50.1l2.8,1.7h0l-2.8-1.7Z"/><path class="br" d="m122.4,51.7v1.7l-2.8-1.7v-1.5l2.8,1.5Z"/><path class="cd" d="m63.6,90.8l-11-6.5v-4l11,6.5v4Z"/><path class="cc" d="m63.6,86.8l-11-6.5,10.5-6.1,11,6.4-10.5,6.2h0Z"/><path class="bh" d="m74.1,80.7v4l-10.5,6.1v-4.1l10.5-5.9h0Z"/><path class="cd" d="m45.2,101.4l-11-6.5v-4.1l11,6.5v4.1Z"/><path class="cc" d="m45.2,97.3l-11-6.4,17-9.8,11,6.4-17,9.8Z"/><path class="bh" d="m62.2,87.5v4.1l-17,9.7v-4l17-9.8h0Z"/><path class="cf" d="m44.3,72.4L122.5,27.4v25.8c-.1,0-78.4,44.9-78.4,44.9v-25.7h.1Z"/><path class="bl" d="m23.4,60.1L101.7,15.3l20.8,12.1-78.3,45-20.8-12.3h0Z"/><path class="bg" d="m44.3,72.4v25.7c-.1,0-21.1-12.1-21.1-12.1l.3-25.8,20.8,12.3Zm.7.4L121.8,28.8v23.9c-.1,0-76.8,44.2-76.8,44.2v-24.2h-.1Z"/><path class="bn" d="m101.7,16.2L25.1,60.1l19.3,11.3L120.9,27.4l-19.2-11.2h0Z"/><path class="bo" d="m24,85.5l.3-23.9,19.3,11-.3,24-19.3-11.2h0Z"/><path class="bz" d="m22.9,78.8h.4c0,.1.1.6.1.6v.3c.1,0,.3.4.3.4v.3h.1v.4l1.4-.7v-.8h-.1v-.4h-.1c-.1-.1,0-.3,0-.3v-.3c-.1,0-.3-.1-.3-.1h0c0-.1-.1-.1-.1-.1h0c0-.1-.1-.3-.1-.3h-.3c0-.1-.1-.4-.1-.4l-3.7-2.1h-.4c0-.1-.6-.1-.6-.1l-1.4.8h1c0,.1,3.6,2.2,3.6,2.2l.3.3h.3c0,.1-.1.4-.1.4h0Z"/><path class="by" d="m37.2,94.9l.3.6.4.6h0c0,.1.3.8.3.8l.3.8v1.8l6.8,4v-1.8c-.1,0-.1-.3-.1-.3v-.6c-.1,0-.3-.3-.3-.3v-.4c-.1,0-.1-.1-.1-.1l-.3-.3v-.3h-.1l-.4-.6-.4-.4-.7-.6-6.6-3.9.6.3h.1c0,.1.4.6.4.6h0Z"/><path class="bf" d="m42.5,103.3v-1.1h-.4c0-.1-.3-.4-.3-.4l-.7-.3-1.4-1,.3.3v.3c.1,0,.3.6.3.6v1.7l-.3.6-.3.4v.3l-.4.4-.4.4-.8.8h-.4c0,.1-1.2.1-1.2.1l1.9,1.1h.4c0,.1,1.2.1,1.2.1h.1c0-.1.1-.3.1-.3h.1c.1,0,0-.1,0-.1h.3c0-.1.1-.3.1-.3h.1c0-.1.1-.3.1-.3h.1v-.3h.1c0-.1.1-.1.1-.1v-.3h.1c0-.1.1-.4.1-.4h.1v-.3h.1v-.3h.1c0-.3,0-.1,0-.1v-.6h.1v-1.1h.1Z"/><path class="bw" d="m40,101.4h1.1l-1.9-1.1h-.3c0-.1-1.4-.1-1.4-.1h0c0,.1-.1.1-.1.1h0c0,.1-.1.1-.1.1h-.1c-.1.1,0,.1,0,.1h-.1c0,.1-.3.1-.3.1h0c0,.1-.1.3-.1.3h-.1c0,.1-.1.3-.1.3h-.1v.3h-.1v.3h-.1c0,.1-.3.4-.3.4v.3h-.1c0,.1-.1.3-.1.3h0c0,.3,0,.1,0,.1v.6c-.1,0-.1,2.1-.1,2.1h.3c0,.1,0,.3.3.3l1.9,1.2-.3-.3v-.3c-.1,0-.3-.4-.3-.4v-1.7l.3-.6.3-.6h0c0-.1.4-.6.4-.6,0-.3.3-.4.4-.6l.8-.7h.3l.3-.3h.1Z"/><path id="ap" class="bq" d="m39.4,101.6c1.4-.7,2.3,0,2.3,1.4s-1,3.3-2.3,4.1c-1.4.7-2.3,0-2.3-1.4s1-3.2,2.3-4.1Z"/><path class="by" d="m38.3,104.7h0v-.3c.1,0,0,0,0,0v.3h0Z"/><path id="aq" class="bm" d="m38.5,104.5h0v.4h-.1v-.4Z"/><path class="by" d="m38.7,106.1h.3c0-.1-.1-.4-.1-.4h-.1v.6h.3c0,.1,0-.1,0-.1h-.3Z"/><path id="ar" class="bm" d="m38.9,105.8h.3c0,.1,0,.4-.3.4h-.1v-.4h.1Z"/><path class="by" d="m40.3,105.3v-.3h.1c0-.1.1-.1.1-.1h-.1c0-.1-.1-.1-.1-.1v.3l.3.3v-.3h-.3v.3h0Z"/><path id="as" class="bm" d="m40.4,105h.3s0,.4-.3.4h-.1v-.4Z"/><path class="by" d="m40.8,103.3v-.3h.1c0-.1-.1-.1-.1-.1v.4h0Z"/><path id="at" class="bm" d="m40.8,103.1h.3v.4h-.4v-.4Z"/><path class="by" d="m39.6,102.7v.3h.1c0,.1-.1-.3-.1-.3h.3c.1.1,0,0,0,0h-.3Z"/><path id="au" class="bm" d="m39.7,102.8h0v.4h-.3c0-.1.3-.4.3-.4h0Z"/><path class="by" d="m39.1,104.6v-.3c.1,0,.4-.3.4-.3h.1c0-.1.1-.1.1-.1v-.3h.3-.3c0-.1-.4-.1-.4-.1h-.1c0,.1-.1.3-.1.3h0c0,.1-.1.1-.1.1v1h.4c0,.1-.1-.1-.1-.1v-.3h-.1Z"/><path id="av" class="bm" d="m39.7,103.9c.4-.3.7,0,.7.3s-.3.8-.7,1c-.3.3-.6,0-.6-.3,0-.4.3-.8.6-1Z"/><path class="bf" d="m36.7,109.4l-.3-.3v-.3c-.1,0-.3-.4-.3-.4v-.8c-.1,0-.1-1.9-.1-1.9l.3-.6v-.6c.1,0,.4-.6.4-.6v-.4c.1,0,.1-.1.1-.1l.6-.8.4-.6.3-.4.4-.4.4-.4.3-.3.4-.4h.4c0-.1.6-.4.6-.4h.3c0-.1.4-.1.4-.1h.4c0-.1,1.1-.1,1.1-.1l.3.3-2.1-1.2h-.3c0-.1-1.9-.1-1.9-.1h-.1c0,.1-.1.1-.1.1h-.3c0,.3,0,.1,0,.1h-.1c0,.1-.1.1-.1.1h-.1c0,.1-.1.1-.1.1l-.3.3h-.1c0,.1-.1.1-.1.1v.3h-.4l-.3.3h0c0,.1-.1.1-.1.1v.3h-.3c0,.1-.1.1-.1.1v.3h-.3v.3l-.3.3h0c0,.1-.6,1-.6,1h0c0,.1-.3.4-.3.4v.4h-.1v.6c-.1,0-.1.3-.1.3v.3c-.1,0-.1.4-.1.4v.3c-.1,0-.1,2.5-.1,2.5l.3.3v.3h.1c0,.1.1.4.1.4h.1v.3c.1,0,.4.1.4.1l2.1,1.2-.3-.3v-.3h-.1Z"/><path id="aw" class="ca" d="m40.1,99.9c2.2-1.4,4.1-.3,4.1,2.3s-1.8,5.9-4.1,7.3c-2.3,1.4-4.1.3-4.1-2.5s1.8-5.8,4.1-7.2Zm0,7.5c1.4-.7,2.3-2.5,2.3-4s-1.1-2.1-2.3-1.4c-1.4.8-2.3,2.6-2.3,4.1s1,2.1,2.3,1.2h0Z"/><path class="bi" d="m40,95.9v1.2h2.3c0,.1.1.1.1.1h.3c0,.1.4.4.4.4l-3.2-1.8h0Z"/><path class="cf" d="m41.5,77.9l-10.4,5.8c-1.2.7-2.3,2.1-2.3,3.5l-2.3-1.4-18.5-10.6c0-1.4,1.2-2.8,2.5-3.5l9.7-5.5c.3-.3.6-.3.8,0l20.4,11.6h.1Z"/><path class="bj" d="m27.1,108.2l-20.7-12v-3.3c-.3-6.9.7-7.6.7-7.6v.3l17.5,9.7,3.2,1.5s-1.4,1.4-.7,11.3h0Z"/><path class="cf" d="m8.5,75.5l-.4-.3-1,9.8,1-9.2c0-.1.3-.4.4-.3h0Z"/><path class="bj" d="m27.7,86.5c.3.3.4.8.4,1.2l-1,8.3v.3c-.3.7-1.1,1-1.8.7l-1-.6-16.2-9.2,16.8,9.7,1,.6c.7.3,1.5-.1,1.8-.8h0c0-.1,1.1-9.4,1.1-9.4l-1.4-.7h.1Z"/><path class="bv" d="m8.9,75.7l-1,9.9h-.8v-.7l1-9.2c0-.3.3-.4.4-.3l.4.3Z"/><path class="ce" d="m25.9,97.3c-.1,0-.4,0-.6-.3l-1-.6-16.2-9.2c-.8-.4-1.2-1.2-1.2-2.2l1-9.2.4-.3h.3l18.8,10.8c.6.3.8,1,.7,1.5l-.8,8.3v.3c-.3.6-.8,1-1.4,1h0Zm-17.5-21.8l-.3.3-1,9.2v.6c0,.7.6,1.2,1.1,1.7l17.1,9.7c.1.3.4.3.6.3.6,0,1-.3,1.2-.8v-.3l1-8.3c0-.6-.3-1.1-.8-1.4l-1.4-.8-17.3-10.1h-.3Z"/><path class="ce" d="m8.4,75.7l17.7,9.9,1.4.8c.4.3.7.7.6,1.2l-.8,8.3h0c-.3.6-.7.8-1.1.8h-.4l-1-.7-16.3-9.1c-.7-.4-1.1-1.1-1-1.9l1-9.4h0Zm0-.3c-.1,0-.3,0-.3.3l-1,9.2v.6c0,.7.4,1.4,1.1,1.7l16,9.2,1,.6c.7.3,1.5,0,1.8-.7v-.3c.1,0,1-8.3,1-8.3.1-.6-.1-1.1-.7-1.4l-1.4-1-17.5-9.9h0Z"/><path class="bo" d="m28.7,107.1l-.3-1.9c-.4-8.4,1.4-17.5,1.4-17.7.3-1.2,1.1-2.3,2.2-2.9l8.6-5v17.7l-1.5.7h-.1c-2.3,1.1-3.9,3.3-4.4,5.8h-.1c0,.1-5.7,3.3-5.7,3.3h0Zm11.9-27.3l-8.6,4.8c-1.1.6-1.8,1.7-2.1,2.9,0,.1-1.9,9.2-1.4,17.7v1.8c.1,0,5.7-3.2,5.7-3.2h.1c.6-2.5,2.2-4.7,4.6-5.8l1.7-.8v-17.4h0Z"/><path class="bx" d="m35.8,107.6l-4.3,2.6h0c0-.1,4.3-2.6,4.3-2.6h0Z"/><path class="cg" d="m31.6,110.1h0l-1.4-.6v-.4l1.4.8h0Z"/><path class="bt" d="m35.8,107.6l-4.3,2.5-1.4-.8,4.1-2.5,1.5.8h0Z"/><path class="bx" d="m19,101.7v.6h-.3c0,.1,0-.4,0-.4h.3Z"/><path class="bt" d="m22.2,104.2l-3.5-1.7h.3l3.2,1.7Z"/><path class="bj" d="m22,103.6h.3c0-.1,0,.7,0,.7h-.3v-.7Zm-3.3-2.1h0l3.6,1.9h-.3l-3.3-1.8h0Z"/><path id="ax" class="cg" d="m19,101.8h-.3l-.3-.3v1l3.5,1.9v-.8l-3.2-1.8h.3Zm2.9,2.5l-3.2-2.1v-.6h.3l2.9,1.8v.8h0Z"/><path class="ce" d="m21.9,103.6v.4l-2.8-1.8v-.4l3,1.8h-.3Z"/><path class="bx" d="m19,100.4v.6h-.3c0,.1,0-.6,0-.6h.3Z"/><path class="bt" d="m22.2,102.9h-.3l-3.2-1.7h.3l3.2,1.7Z"/><path class="bj" d="m22,102.2h.3v.8h-.3v-.8Zm-3.3-1.9h0l3.6,1.9h-.3l-3.3-1.8h0Z"/><path id="ay" class="cg" d="m19,100.6h-.3l-.3-.3v1l3.5,1.9v-1l-3-1.8h.1Zm3,2.5l-3.3-1.9v-.6h.3l2.9,1.8v.7h.1Z"/><path class="ce" d="m21.9,102.4v.4l-2.8-1.9,3,1.7h-.3Z"/><path class="bx" d="m15,99.5v.6h-.1v-.6Z"/><path class="bt" d="m18.3,101.8h-.3c0,.1-3.3-1.7-3.3-1.7h.3c0-.1,3,1.5,3,1.5h.3Z"/><path class="bj" d="m18.2,101.3v.7c.1,0,0,.1,0,.1v-.8Zm-3.6-1.9h.3c0-.1,3.5,1.8,3.5,1.8h-.1c0,.1-3.6-1.8-3.6-1.8h0Z"/><path id="az" class="cg" d="m15,99.5h-.3c0-.1,0,.7,0,.7l3.5,2.1v-.8l-3.2-1.9Zm3,2.5l-3.2-1.8v-.7h.1c0,.1,3,1.9,3,1.9v.6Z"/><path class="ce" d="m18,101.4v.3l-3-1.7v-.6l3,1.8h0Z"/><path class="bx" d="m15,98.1v.7h-.1v-.7Z"/><path class="bt" d="m18.3,100.6h-.3c0,.1-3.3-1.7-3.3-1.7h.3c0-.1,3,1.7,3,1.7h.3Z"/><path class="bj" d="m18.2,100v.7c.1,0,0,.1,0,.1v-.8Zm-3.6-1.9h.3c0-.1,3.5,1.8,3.5,1.8h-.1c0,.1-3.6-1.8-3.6-1.8h0Z"/><path class="cg" d="m15,98.2h-.4c0-.1,0,.7,0,.7l3.6,1.9v-.8l-3.2-1.8h0Zm3,2.6l-3.3-1.8v-1h.3c0,.1,3,1.9,3,1.9v.8h0Z"/><path class="ce" d="m18,100.2v.4l-3-1.8v-.4l3,1.8Z"/><path class="bx" d="m11.1,97.1v.6h-.3c0,.1,0-.4,0-.4h.3Z"/><path class="bt" d="m14.3,99.5v.3h-.1l-3.3-1.9h.3l3.2,1.7c-.1,0,0,0,0,0h0Z"/><path class="bj" d="m14.2,99.1h.3c0-.1,0,.7,0,.7h-.3c0,.1,0-.7,0-.7Zm-3.5-1.9h.3c0-.1,3.5,1.8,3.5,1.8h-.3l-3.5-1.8h0Z"/><path id="ba" class="cg" d="m11.1,97.3h-.4c0-.1,0,.7,0,.7l3.5,1.9v-.8l-3-1.8h0Zm2.9,2.5l-3.2-1.9v-.6h.3l2.9,1.8v.7h0Z"/><path class="ce" d="m14.2,99.1v.4l-3-1.8v-.4l3,1.8h0Z"/><path class="bx" d="m11.1,95.9v.6h-.3c0,.1,0-.4,0-.4h.3Z"/><path class="bt" d="m14.3,98.4h-.3l-3.2-1.7h.3l2.9,1.4h.3v.3Z"/><path class="bj" d="m14.2,97.8h.3c0-.1,0,.7,0,.7h-.3c0,.1,0-.7,0-.7Zm-3.5-1.9h.3c0-.1,3.5,1.8,3.5,1.8h-.3l-3.5-1.8h0Z"/><path id="bb" class="cg" d="m11.1,96l-.4-.3v1l3.5,1.9v-.8l-3-1.8h0Zm2.9,2.5l-3.2-1.9v-.6h.3l2.9,1.8v.7h0Z"/><path class="ce" d="m14.2,97.8v.4l-3-1.8v-.3l3,1.7Z"/><path class="bd" d="m6.8,93.3v2.8l3.6,1.7v-2.3l-3.6-2.1Zm16.3,9.4v2.6l3.3,1.9v-2.8l-3.3-1.8h0Z"/><path class="cb" d="m26.7,104.7h-.3c0-.1,0,2.5,0,2.5h.3c0,.1.4.1.4.1l.8-.4v-2.8l-.8.6h-.4Z"/><path class="bo" d="m37.4,94.1s1.4.3,2.5-1.2l-2.5,1.2h0Z"/><path class="bt" d="m39.8,92.2h0l-1.9,1c-.3,0-.6.4-.6.8h0c0,.1.1.1.1.1,0-.4.3-.8.6-1l1.8-1h0Z"/><path class="bx" d="m39.8,92.2v.7l-2.3,1.4h0c0-.6.3-.8.6-1.1l1.8-1Z"/><path class="by" d="m11.4,72.4h1.4v-.4h-.3c0,.1-1.2.1-1.2.1h-.1c0-.1,0,.3,0,.3h.3Z"/><path class="bm" d="m12.8,72.1h-1.4c-.3-.1-.4-.6,0-.8.4-.3,1-.3,1.4,0,.4.3.3.6,0,.8Z"/><path class="bp" d="m11.4,71.9v-.7c.1-.4.7-.6,1.1-.3l.4.6v.3h-.3c0,.1-1.2.1-1.2.1Z"/><path class="by" d="m29.8,82.9h1.2c0-.1-.3-.1-.3-.1-.1,0,0,0,0,.1h-1.4v-.3h-.1v.3h.6Z"/><path class="bm" d="m31.1,82.6c-.4.3-1,.3-1.4,0s-.4-.6,0-.7,1-.3,1.4,0,.4.6,0,.7Z"/><path class="bp" d="m29.8,82.5h0v-1c.1-.4.7-.6,1.1-.3l.4.6v.3l-.3.3h-1.2Z"/><path class="bu" d="m27.4,86.2c.4.4.7,1,.7,1.5l-1,8.3v.3c-.3.7-1.1,1-1.8.7l-1-.6-16.2-9.2c-.8-.4-1.2-1.4-1.1-2.2l1-9.2c0-.3.3-.4.6-.3l17.4,9.9,1.4.8h0Z"/><path id="bc" class="bu" d="m39.6,81.5l-.4-.3-6.9,4.1c-1.4.8-1.5,1.9-1.5,1.9l-.8,8,8.6-5c.7-.4,1.1-1.1,1.1-1.9v-6.9h0Z"/><path class="bj" d="m31.3,83.7c-1.2.7-2.3,1.9-2.3,3.5l-1,9.2v.4s-1.4,1.1-.8,11.2l.3,3.2,6.6-3.7h.1c.4-3.6,2.3-6.6,5.2-8.4.6-.4,1.4-.7,2.1-.7v-20.6l-10.2,5.9h0Zm8.3,4.7c0,.8-.4,1.5-1.1,1.9l-8.6,5,.8-8s0-1.2,1.5-2.1l6.9-4c.1,0,.4,0,.4.3v6.9h0Z"/><path class="ce" d="m39.3,81.5v6.9c0,.7-.3,1.4-1,1.8l-8.3,4.7,1-7.6s0-1.1,1.4-1.8l6.9-4h0Zm0-.3h0l-7,4.1c-1.4.8-1.5,1.9-1.5,1.9l-.8,8,8.6-5c.7-.4,1.1-1.1,1.1-1.9v-6.9s0-.3-.3-.3h0Zm-8.7,26.1v3l-4.1,2.3-20.7-11.9c-.4-.3-.8-.8-.8-1.4v-.4c0-1.1.3-1.9,1-2.5l.7.8,19.6,11.3c.7.4,1.5.4,2.2,0l2.2-1.4h0Z"/></g><path class="bd" d="m66.2,63.4c0,0,.1,0,.2-.1.2,0,.3,0,.2.4,0,.2-.1.5-.2.7-.5,1.4-1,2.9-1.5,4.3-.4,1.3-.9,2.5-1.4,3.8-.2.6-.5,1.1-.8,1.5-.4.4-.8.4-1.1.2-.2-.1-.4-.4-.5-.7-.5-.9-.9-1.9-1.4-2.8-.2-.4-.4-.9-.6-1.3,0,0,0,0,0,0-.1-.4,0-.6.2-.8.9-.7,1.8-1.3,2.8-2,.8-.6,1.6-1.2,2.5-1.8.6-.4,1.2-.8,1.8-1.3,0,0,0,0,0,0Z"/><path class="bd" d="m65.5,81.9c-.2,0-.4.1-.5.2-.4,0-.8.2-1.2.3-.5.1-1,.2-1.4.3-.6.1-1.1.2-1.7.3,0,0-.2,0-.2,0-.2,0-.3-.3-.2-.7,0-.5.2-1,.3-1.6.2-.9.3-1.7.5-2.6.1-.6.3-1.2.5-1.7.3-1.1,1-1.5,1.4-1,.2.2.3.4.4.7.3.6.6,1.2.9,1.8.5,1,.9,1.9,1.4,2.9,0,0,0,.2.1.3,0,.3,0,.6-.2.7Z"/><path class="bd" d="m76.1,65.2v1.1c0,2-.4,3.8-1.1,5.4-.7,1.6-1.7,2.7-2.8,3.4s-2.2.6-3-.3c-.8-.9-1.2-2.3-1.2-4.3s.4-3.9,1.1-5.8c.8-1.9,1.8-3.2,3-3.9.8-.4,1.4-.6,2.1-.3.6.2,1.1.8,1.5,1.5l-1.4,2.2c-.2-.5-.5-.8-.9-.9s-.8,0-1.3.2c-.8.4-1.4,1.3-1.9,2.4-.5,1.2-.7,2.4-.7,3.7s.3,2.2.8,2.8c.5.6,1.1.6,1.9.1.6-.3,1.1-.9,1.5-1.5.4-.7.7-1.5.8-2.4l-2.4,1.4v-2.4s4-2.3,4-2.3Z"/><path class="bd" d="m81.7,59.5l1.5-.9-.2,10.2-1.5.8v-1.2c-.4,1.2-1.1,2.1-1.9,2.5-.8.4-1.4.3-2-.4-.5-.7-.8-1.8-.8-3.2,0-1.5.3-2.9.9-4.2.6-1.4,1.2-2.3,2-2.7s1.5-.4,1.9.4v-1.2Zm-2.9,8.7c.3.4.7.4,1.1.1.5-.3.9-.7,1.2-1.4.3-.7.5-1.5.5-2.3s-.1-1.4-.4-1.8c-.3-.4-.7-.4-1.2-.1s-.9.8-1.2,1.5c-.3.7-.5,1.5-.5,2.3s.1,1.4.4,1.8Z"/><path class="bd" d="m91.3,53.5c.7-.4,1.3-.4,1.7.2.4.5.6,1.5.5,2.8l-.2,6.4-1.6.9.2-6.2c0-.6,0-1.1-.2-1.3-.2-.2-.4-.3-.7,0s-.6.6-.9,1.1c-.2.5-.3,1.2-.4,1.9l-.2,5.8-1.5.9.2-6.1c0-.6,0-1.1-.2-1.3-.2-.2-.4-.3-.7,0-.3.2-.6.6-.8,1.1-.2.5-.3,1.2-.3,1.9v5.7c-.1,0-1.7.9-1.7.9l.2-10.2,1.6-.9v1.1c.4-1.1.9-1.9,1.7-2.4s1.3-.3,1.6.5c.4-1.3,1.1-2.1,1.9-2.6Z"/><path class="bd" d="m96.1,57.3c.2,1.2.7,1.5,1.7,1,.6-.4,1.1-1,1.5-1.9l1.2.5c-.7,1.9-1.6,3.1-2.8,3.8-1,.6-1.8.5-2.4-.2-.6-.7-.8-1.8-.8-3.4s.4-3.1,1.1-4.5c.7-1.4,1.5-2.5,2.5-3s1.7-.4,2.2.3c.6.7.8,1.9.7,3.5s0,.7-.1,1.2l-4.7,2.7Zm0-2.1l3.2-1.9c0-.7-.2-1.1-.5-1.3-.3-.2-.6-.2-1,0s-.8.7-1.1,1.2c-.3.5-.5,1.2-.6,1.9Z"/><path class="bd" d="m103.3,45.5c-.3.2-.5.1-.7,0-.2-.2-.3-.6-.2-1s.1-1,.4-1.4c.2-.5.5-.8.8-1s.5-.1.7,0c.2.2.3.6.2,1.1s-.2.9-.4,1.4c-.2.5-.5.8-.8,1Zm-1.5,12.6l.6-10.8,1.7-1-.6,10.8-1.6.9Z"/><path class="bd" d="m109.3,43c.7-.4,1.3-.4,1.7.2.4.5.6,1.5.5,3l-.5,6.8-1.7,1,.4-6.4c0-.7,0-1.2-.2-1.5-.2-.3-.5-.3-.9,0s-.8.7-1.1,1.3-.5,1.4-.5,2.3l-.4,5.9-1.7.9.6-10.9,1.7-1v1.2c.4-1.3,1.1-2.2,2-2.7Z"/></svg>