<svg width="49" height="49" viewBox="0 0 49 49" fill="none" xmlns="http://www.w3.org/2000/svg">
<g clip-path="url(#clip0_2977_3894)">
<path d="M45.1673 26.6023C45.1265 27.3624 44.9303 28.1063 44.5907 28.7887C44.2511 29.4712 43.7751 30.078 43.1917 30.5721C43.0271 30.7052 42.8521 30.8248 42.6681 30.9299C41.9125 31.3661 41.2408 31.371 40.7765 31.0328C40.5566 30.8429 40.3851 30.604 40.2761 30.3357C40.1671 30.0673 40.1236 29.7772 40.1493 29.489C40.18 28.6226 40.4352 27.7787 40.8901 27.0385C41.3115 26.275 41.9238 25.632 42.6681 25.1713C42.9065 25.005 43.1814 24.8975 43.4699 24.8574C43.7584 24.8174 44.0525 24.846 44.3277 24.9409C44.8314 25.1566 45.1673 25.7398 45.1673 26.6023Z" fill="#3C3C3B"/>
<path d="M44.4326 24.9903L40.874 31.1064L42.6534 32.1258L46.212 26.0097L44.4326 24.9903Z" fill="#3C3C3B"/>
<path d="M44.4514 31.9547C44.6252 31.8467 44.7904 31.7254 44.9453 31.592C45.5287 31.0979 46.0047 30.4911 46.3443 29.8086C46.6839 29.1262 46.8801 28.3823 46.9209 27.6222C46.9209 26.7596 46.59 26.1519 46.0664 25.951C45.791 25.8573 45.4973 25.8293 45.2089 25.8693C44.9206 25.9093 44.6458 26.0162 44.4069 26.1813C43.6611 26.6417 43.0471 27.2848 42.6239 28.0486C42.1732 28.7903 41.9199 29.6336 41.888 30.4991C41.8624 30.7873 41.9058 31.0774 42.0149 31.3457C42.1239 31.6141 42.2954 31.853 42.5153 32.0429C42.9993 32.3909 43.6759 32.386 44.4514 31.9547ZM44.4514 30.8765C43.5722 31.3666 42.861 30.9745 42.861 29.9698C42.8919 29.4236 43.052 28.8923 43.3283 28.4189C43.6046 27.9455 43.9893 27.5433 44.4514 27.2448C45.3256 26.7547 46.0368 27.1517 46.0368 28.1564C46.0057 28.7013 45.846 29.2314 45.5706 29.7038C45.2952 30.1763 44.9118 30.578 44.4514 30.8765Z" fill="#706F6F"/>
<path d="M44.4511 30.8766C44.9129 30.5771 45.2971 30.1739 45.5725 29.6996C45.848 29.2254 46.0069 28.6934 46.0365 28.1468C46.0365 27.1421 45.3253 26.7353 44.4511 27.2352C43.9878 27.5346 43.6022 27.9383 43.3259 28.4135C43.0495 28.8888 42.8902 29.422 42.8608 29.9699C42.841 30.9844 43.5522 31.3912 44.4511 30.8766ZM44.4511 30.3081C43.8486 30.6512 43.3596 30.3718 43.3596 29.6808C43.3813 29.3071 43.4914 28.9437 43.681 28.6201C43.8707 28.2965 44.1345 28.0219 44.4511 27.8184C45.0537 27.4704 45.5426 27.7498 45.5426 28.4408C45.5225 28.8169 45.4131 29.1829 45.2234 29.5091C45.0338 29.8353 44.7691 30.1124 44.4511 30.3179V30.3081Z" fill="#9D9D9C"/>
<path d="M43.3398 29.6899C43.3622 29.3127 43.4746 28.9462 43.6678 28.6207C43.861 28.2952 44.1295 28.0199 44.4511 27.8177C45.0537 27.4697 45.5426 27.7491 45.5426 28.4401C45.5225 28.8162 45.4131 29.1822 45.2234 29.5084C45.0338 29.8346 44.7691 30.1117 44.4511 30.3172C43.8288 30.6603 43.3398 30.3858 43.3398 29.6899Z" fill="#EDEDED"/>
<path d="M39.601 29.7984C39.5599 30.5577 39.3635 31.3007 39.0239 31.9823C38.6843 32.6639 38.2085 33.2699 37.6254 33.7633C37.4609 33.8978 37.2859 34.0191 37.1019 34.126C36.3462 34.5573 35.6745 34.5622 35.2102 34.224C34.9899 34.035 34.8174 33.7973 34.7067 33.5299C34.596 33.2626 34.5503 32.9732 34.5731 32.6851C34.6052 31.8189 34.8603 30.9753 35.314 30.2346C35.7368 29.4721 36.3488 28.8294 37.092 28.3673C37.3311 28.2026 37.6058 28.0959 37.8941 28.0559C38.1824 28.0158 38.4761 28.0436 38.7515 28.137C39.2701 28.3526 39.601 28.9162 39.601 29.7984Z" fill="#3C3C3B"/>
<path d="M38.8628 28.1837L35.3042 34.2998L37.0836 35.3192L40.6421 29.2031L38.8628 28.1837Z" fill="#3C3C3B"/>
<path d="M38.8652 35.1446C39.0391 35.0366 39.2042 34.9154 39.3591 34.7819C39.9424 34.2887 40.4183 33.6828 40.758 33.0012C41.0976 32.3195 41.2939 31.5764 41.3347 30.817C41.3347 29.9545 41.0038 29.3467 40.4803 29.1409C40.2046 29.0471 39.9105 29.0195 39.622 29.0604C39.3335 29.1013 39.0589 29.2095 38.8208 29.3761C38.0751 29.8347 37.4611 30.4761 37.0378 31.2385C36.5878 31.9806 36.3347 32.8236 36.3019 33.689C36.2766 33.9764 36.3203 34.2657 36.4293 34.5332C36.5383 34.8007 36.7096 35.0387 36.9291 35.2279C37.4329 35.5808 38.1096 35.5759 38.8652 35.1446ZM38.8652 34.0811C37.9861 34.5712 37.2749 34.1742 37.2749 33.1695C37.3042 32.6223 37.4636 32.0897 37.74 31.6153C38.0164 31.1408 38.402 30.738 38.8652 30.4397C39.7394 29.9496 40.4507 30.3416 40.4507 31.3512C40.4203 31.8977 40.261 32.4294 39.9856 32.9035C39.7102 33.3777 39.3265 33.781 38.8652 34.0811Z" fill="#706F6F"/>
<path d="M38.8653 34.0817C39.3246 33.7831 39.7071 33.3821 39.9824 32.9107C40.2577 32.4392 40.418 31.9105 40.4507 31.3666C40.4507 30.357 39.7395 29.9502 38.8653 30.455C38.402 30.7533 38.0165 31.1562 37.7401 31.6306C37.4637 32.105 37.3043 32.6376 37.2749 33.1848C37.2749 34.1748 37.9861 34.5865 38.8653 34.0817ZM38.8653 33.5132C38.2627 33.8563 37.7737 33.5769 37.7737 32.8859C37.7947 32.51 37.9044 32.1443 38.094 31.8182C38.2836 31.4922 38.5478 31.2149 38.8653 31.0088C39.4678 30.6657 39.9568 30.9451 39.9568 31.6361C39.9358 32.012 39.8261 32.3777 39.6365 32.7038C39.4469 33.0299 39.1827 33.3071 38.8653 33.5132Z" fill="#9D9D9C"/>
<path d="M37.7734 32.886C37.7944 32.5101 37.9041 32.1443 38.0937 31.8183C38.2833 31.4922 38.5475 31.215 38.865 31.0089C39.4675 30.6658 39.9565 30.9452 39.9565 31.6362C39.9355 32.0121 39.8258 32.3778 39.6362 32.7039C39.4466 33.0299 39.1824 33.3072 38.865 33.5133C38.2624 33.8563 37.7734 33.577 37.7734 32.886Z" fill="#EDEDED"/>
<path d="M47.9823 23.5244L24.9912 36.6688V40.918L35.7533 34.7526C35.8045 33.8068 36.0792 32.8863 36.5555 32.0655C37.0317 31.2448 37.6959 30.5467 38.4945 30.028L44.5152 26.5973C46.0265 25.7299 47.2612 26.4356 47.2612 28.1705L47.9823 27.7589V23.5244Z" fill="#ED9D0E"/>
<path d="M19.9634 33.792L24.9913 36.6689V40.918L19.9634 38.0362V33.792Z" fill="#C2800B"/>
<path d="M26.1421 21.555V37.3655L11.2954 28.8623V13.0518L26.1421 21.555Z" fill="#E6D7BF"/>
<path d="M48.9999 8.4541V24.2647L26.1421 37.365V21.5544L48.9999 8.4541Z" fill="#D4C6B0"/>
<path d="M26.1421 29.4603V37.3655L11.2954 28.8623V20.9521L26.1421 29.4603Z" fill="#CF4518"/>
<path d="M48.9999 16.3643V24.2646L26.1421 37.365V29.4597L48.9999 16.3643Z" fill="#E94E1B"/>
<path d="M34.1088 0L11.251 13.0954L26.1421 21.5545L48.9999 8.45909L34.1088 0Z" fill="#F1E2C9"/>
<path d="M38.1194 24.5048L38.0305 24.2303C37.8802 23.724 37.8005 23.1996 37.7934 22.6718C37.7997 22.3675 37.8311 22.0643 37.8873 21.7651L38.0305 20.9614L37.3193 21.3681L35.561 22.3777V20.584L34.8646 21.4466L30.785 26.4946L30.3306 27.0582L31.0517 27.1268L35.1165 27.514L35.5462 27.5532V25.9751L37.8576 24.6518L38.1194 24.5048Z" fill="#D4C6B0"/>
<path d="M44.0745 22.1464C45.587 19.5468 45.5876 16.7372 44.0757 15.8711C42.5638 15.0049 40.1121 16.4102 38.5995 19.0098C37.087 21.6094 37.0865 24.419 38.5983 25.2851C40.1102 26.1513 42.562 24.746 44.0745 22.1464Z" fill="#D4C6B0"/>
<path d="M37.6599 24.333C37.499 23.7933 37.4126 23.2344 37.4031 22.6716C37.4119 22.3427 37.4466 22.015 37.5068 21.6914L35.1558 23.0343V21.6963L31.1157 26.7394L35.1805 27.1266V25.769L37.6599 24.333Z" fill="#E94E1B"/>
<path d="M41.5176 23.7554V24.618C41.8906 24.2643 42.1763 23.8299 42.3523 23.3486C42.0669 23.4693 41.7882 23.605 41.5176 23.7554Z" fill="#0597A6"/>
<path d="M41.5176 23.437C41.8353 23.2644 42.1655 23.1153 42.5054 22.991C42.6795 22.4963 42.8116 21.9881 42.9005 21.4717C42.4511 21.6775 41.9917 21.9128 41.5324 22.1725L41.5176 23.437Z" fill="#0597A6"/>
<path d="M42.9695 18.3301C42.4756 18.6535 42.0163 18.9574 41.5322 19.2368V20.3934L43.0633 19.5161C43.0588 19.1191 43.0274 18.7229 42.9695 18.3301Z" fill="#0597A6"/>
<path d="M41.5176 21.8581C42.0115 21.5836 42.4757 21.3435 42.9351 21.1376C42.9979 20.7057 43.0341 20.2703 43.0437 19.834L41.5176 20.7113V21.8581Z" fill="#0597A6"/>
<path d="M42.5298 16.9766C42.2128 17.2207 41.8831 17.4481 41.542 17.6578V18.9174C42.0013 18.6478 42.4656 18.3537 42.9249 18.0352C42.8462 17.665 42.7131 17.3083 42.5298 16.9766Z" fill="#0597A6"/>
<path d="M42.6236 16.5609C42.752 16.458 42.8755 16.355 42.9891 16.2521C42.7443 16.178 42.4852 16.1629 42.2334 16.208C42.3853 16.2994 42.5178 16.4192 42.6236 16.5609Z" fill="#0597A6"/>
<path d="M41.5176 16.4669V17.3344C41.8166 17.1564 42.1052 16.9617 42.3819 16.7512C42.297 16.608 42.1625 16.5002 42.0036 16.4479C41.8446 16.3956 41.6719 16.4024 41.5176 16.4669Z" fill="#0597A6"/>
<path d="M43.1767 21.3391C43.0919 21.8646 42.9648 22.3825 42.7964 22.8878C42.9297 22.8437 43.0631 22.8094 43.1915 22.78C43.5121 22.222 43.7689 21.6302 43.9571 21.0156C43.7101 21.1104 43.45 21.2182 43.1767 21.3391Z" fill="#0597A6"/>
<path d="M39.7642 24.9953C39.9139 25.0447 40.0707 25.0695 40.2284 25.0688C40.3279 25.0685 40.4272 25.0587 40.5248 25.0394C40.3689 24.9494 40.2342 24.8274 40.1296 24.6816C40.0062 24.7944 39.8778 24.9022 39.7642 24.9953Z" fill="#0597A6"/>
<path d="M39.5814 19.913C39.665 19.3872 39.7922 18.8692 39.9617 18.3643C39.8283 18.4084 39.695 18.4427 39.5715 18.4721C39.2386 19.0271 38.9734 19.6194 38.7812 20.2364C39.048 20.1417 39.3147 20.0339 39.5814 19.913Z" fill="#0597A6"/>
<path d="M39.8726 19.7807C40.3171 19.5798 40.7764 19.3396 41.2407 19.0799V17.8154C40.922 17.9861 40.5919 18.1352 40.2529 18.2614C40.085 18.7568 39.9578 19.2649 39.8726 19.7807Z" fill="#0597A6"/>
<path d="M40.3866 17.3643C40.1724 17.6065 39.9759 17.8636 39.7988 18.1337C39.8927 18.1092 39.9914 18.0749 40.0902 18.0406C40.1758 17.8097 40.2747 17.5838 40.3866 17.3643Z" fill="#0597A6"/>
<path d="M40.4111 17.8981C40.6953 17.7802 40.9724 17.646 41.2409 17.4963V16.6631C40.8743 17.0076 40.5906 17.4298 40.4111 17.8981Z" fill="#0597A6"/>
<path d="M41.2409 24.7943V23.917C40.9398 24.0961 40.6495 24.2924 40.3716 24.5051C40.4566 24.6496 40.5916 24.7585 40.7515 24.8117C40.9114 24.8648 41.0852 24.8587 41.2409 24.7943Z" fill="#0597A6"/>
<path d="M39.8033 22.9217C40.2972 22.5982 40.7565 22.2943 41.2406 22.015V20.8682L39.7095 21.7454C39.7115 22.1393 39.7429 22.5324 39.8033 22.9217Z" fill="#0597A6"/>
<path d="M41.2406 19.3984C40.7467 19.668 40.2528 19.8885 39.8181 20.114C39.7556 20.5476 39.7193 20.9846 39.7095 21.4225L41.2406 20.5502V19.3984Z" fill="#0597A6"/>
<path d="M41.2408 23.5935V22.334C40.7469 22.6084 40.3074 22.9025 39.8579 23.2162C39.9243 23.5871 40.0476 23.9458 40.2234 24.2797C40.5488 24.0315 40.8885 23.8024 41.2408 23.5935Z" fill="#0597A6"/>
<path d="M43.5969 16.0312L43.4932 16.1342C43.8236 16.3569 44.0839 16.6678 44.2439 17.0311L44.5699 16.7566C44.3429 16.4076 43.9979 16.1504 43.5969 16.0312Z" fill="#0597A6"/>
<path d="M43.2114 18.1333C43.279 18.5336 43.3169 18.9382 43.325 19.3439L44.3128 18.7705C44.3102 18.3272 44.2369 17.8872 44.0955 17.4668C43.809 17.7118 43.5127 17.9324 43.2114 18.1333Z" fill="#0597A6"/>
<path d="M38.475 20.3437C38.6634 19.7119 38.9201 19.1023 39.2406 18.5254C38.8248 19.1159 38.4831 19.7544 38.2231 20.427L38.475 20.3437Z" fill="#0597A6"/>
<path d="M43.9965 17.2268C43.8435 16.8699 43.583 16.5686 43.2507 16.3643C43.0927 16.5113 42.9346 16.6534 42.7568 16.7857C42.9421 17.1196 43.0737 17.4801 43.147 17.8542C43.4631 17.6434 43.7298 17.4376 43.9965 17.2268Z" fill="#0597A6"/>
<path d="M38.406 23.9708C38.2536 23.5405 38.1719 23.0888 38.164 22.6328L37.7442 22.873C37.7353 23.3538 37.8331 23.8306 38.0307 24.2697L38.406 23.9708Z" fill="#0597A6"/>
<path d="M44.5943 18.9472C44.5816 19.4993 44.5071 20.0483 44.3721 20.5841C44.4709 20.5547 44.5696 20.5204 44.6684 20.4959C44.8637 19.9195 44.9784 19.3192 45.0092 18.7119L44.5943 18.9472Z" fill="#0597A6"/>
<path d="M44.3477 17.2804C44.5013 17.7138 44.5847 18.1688 44.5946 18.6282L45.0144 18.388C45.0148 17.9039 44.9087 17.4255 44.7033 16.9863L44.3477 17.2804Z" fill="#0597A6"/>
<path d="M44.2831 20.9075C44.0982 21.5404 43.8413 22.1504 43.5176 22.7258C43.9334 22.1353 44.275 21.4968 44.535 20.8242L44.2831 20.9075Z" fill="#0597A6"/>
<path d="M38.3862 20.6719L38.0948 20.7601C37.8954 21.3358 37.7774 21.9362 37.7441 22.544L38.159 22.3039C38.1742 21.7533 38.2504 21.206 38.3862 20.6719Z" fill="#0597A6"/>
<path d="M39.5418 23.108C39.476 22.7093 39.4397 22.3063 39.4331 21.9023L38.4453 22.4709C38.4464 22.9138 38.5181 23.3538 38.6577 23.7745C38.9442 23.5246 39.2405 23.3187 39.5418 23.108Z" fill="#0597A6"/>
<path d="M38.5242 24.2256L38.1982 24.4951C38.4284 24.8494 38.7788 25.1102 39.186 25.2303L39.2898 25.1225C38.9539 24.9018 38.6883 24.5907 38.5242 24.2256Z" fill="#0597A6"/>
<path d="M38.7563 24.015C38.9094 24.3787 39.1738 24.6856 39.512 24.8923C39.6651 24.7452 39.8281 24.6031 40.0059 24.4708C39.8238 24.1338 39.6924 23.7722 39.6157 23.3975C39.3046 23.6033 39.0181 23.8189 38.7563 24.015Z" fill="#0597A6"/>
<path d="M38.6824 20.5843C38.5462 21.1004 38.4651 21.6294 38.4404 22.1624L39.4282 21.5939C39.4262 21.1417 39.4543 20.6898 39.5122 20.2412C39.2405 20.3686 38.9541 20.4765 38.6824 20.5843Z" fill="#0597A6"/>
<path d="M44.0706 20.6777C44.2116 20.1658 44.2928 19.6396 44.3127 19.1094L43.3249 19.673C43.3188 20.1205 43.2858 20.5673 43.2261 21.011C43.5175 20.8835 43.799 20.7757 44.0706 20.6777Z" fill="#0597A6"/>
<path d="M42.6734 23.2308C42.5855 23.4568 42.4849 23.6777 42.3721 23.8924C42.5907 23.6566 42.7905 23.4043 42.9697 23.1377C42.8709 23.1622 42.7721 23.1965 42.6734 23.2308Z" fill="#0597A6"/>
<path d="M18.3878 44.7611L15.9727 43.2368V40.4629L18.3878 41.9871V44.7611Z" fill="#575756"/>
<path d="M16.4025 43.0406C16.3613 43.7999 16.1649 44.5429 15.8253 45.2245C15.4857 45.9062 15.0099 46.5121 14.4268 47.0055C14.2632 47.1412 14.088 47.2625 13.9033 47.3682C13.1526 47.7995 12.4759 47.8044 12.0166 47.4662C11.7913 47.2792 11.6142 47.0416 11.5 46.7731C11.3857 46.5047 11.3376 46.213 11.3597 45.9224C11.3923 45.057 11.6455 44.2138 12.0956 43.4719C12.5199 42.7104 13.1316 42.068 13.8737 41.6046C14.1127 41.4399 14.3875 41.3332 14.6758 41.2932C14.964 41.2531 15.2577 41.2809 15.5332 41.3743C16.0715 41.5899 16.4025 42.1731 16.4025 43.0406Z" fill="#3C3C3B"/>
<path d="M15.6665 41.4249L12.1079 47.541L13.8873 48.5604L17.4458 42.4443L15.6665 41.4249Z" fill="#3C3C3B"/>
<path d="M15.6664 48.3877C15.8502 48.2824 16.0253 48.1628 16.19 48.03C16.7721 47.5358 17.2473 46.9297 17.5869 46.2482C17.9264 45.5668 18.1233 44.8241 18.1656 44.0651C18.1656 43.1976 17.8297 42.5948 17.3062 42.3889C17.0307 42.2956 16.737 42.2678 16.4487 42.3078C16.1605 42.3478 15.8857 42.4545 15.6467 42.6193C14.903 43.0824 14.2896 43.7248 13.8637 44.4865C13.4135 45.2285 13.1603 46.0716 13.1278 46.937C13.1021 47.2252 13.1456 47.5153 13.2546 47.7837C13.3636 48.052 13.5351 48.2909 13.755 48.4808C14.239 48.8239 14.9108 48.819 15.6664 48.3877ZM15.6664 47.3242C14.7873 47.8143 14.0761 47.4173 14.0761 46.4126C14.1062 45.8649 14.2659 45.332 14.5422 44.8569C14.8185 44.3818 15.2036 43.9779 15.6664 43.6779C16.5456 43.1878 17.2568 43.5848 17.2568 44.5895C17.2266 45.1372 17.0669 45.6701 16.7906 46.1452C16.5143 46.6203 16.1292 47.0242 15.6664 47.3242Z" fill="#706F6F"/>
<path d="M15.6665 47.3234C16.128 47.0244 16.5123 46.6221 16.7886 46.1488C17.0648 45.6755 17.2252 45.1445 17.2569 44.5985C17.2569 43.6183 16.5457 43.187 15.6665 43.6869C15.205 43.9859 14.8207 44.3883 14.5445 44.8615C14.2683 45.3348 14.1079 45.8658 14.0762 46.4118C14.0762 47.4165 14.7874 47.8233 15.6665 47.3234ZM15.6665 46.75C15.064 47.098 14.575 46.8186 14.575 46.1276C14.5952 45.7515 14.7045 45.3855 14.8942 45.0593C15.0839 44.7331 15.3485 44.456 15.6665 44.2505C16.2691 43.9025 16.7581 44.1868 16.7581 44.8729C16.7379 45.249 16.6285 45.615 16.4388 45.9412C16.2492 46.2674 15.9846 46.5445 15.6665 46.75Z" fill="#9D9D9C"/>
<path d="M14.5752 46.1285C14.5954 45.7524 14.7047 45.3864 14.8944 45.0602C15.0841 44.734 15.3487 44.4569 15.6667 44.2514C16.2693 43.9034 16.7582 44.1877 16.7582 44.8738C16.7381 45.2499 16.6287 45.6159 16.439 45.9421C16.2494 46.2682 15.9847 46.5454 15.6667 46.7509C15.0642 47.0988 14.5752 46.8195 14.5752 46.1285Z" fill="#EDEDED"/>
<path d="M0.918787 40.5605C0.978056 40.3056 1.04226 40.0704 1.12129 39.8008C1.22576 38.9073 1.57605 38.0595 2.13379 37.3503C3.00305 35.7434 4.08617 34.2598 5.35403 32.9395L1.97574 36.5025C1.1713 37.3398 0.694852 38.4349 0.632324 39.5901V40.3987L0.918787 40.5605Z" fill="#F9B233"/>
<path d="M13.0784 24.5684L10.0606 26.2984C9.64422 26.553 9.28997 26.8962 9.02344 27.3031L13.5229 24.8232L13.0784 24.5684Z" fill="#F9B233"/>
<path d="M8.97397 27.3723L5.3833 32.881L9.02336 27.3086L8.97397 27.3723Z" fill="#F9B233"/>
<path d="M11.5966 45.8683C11.6585 44.7153 12.1332 43.6222 12.9351 42.7856L16.2986 39.2079L5.35863 32.9199C4.09078 34.2403 3.00766 35.7239 2.13839 37.3308C2.20323 37.2569 2.29225 37.208 2.38981 37.1928C2.48737 37.1775 2.58722 37.1969 2.67181 37.2475L4.44492 38.2522C4.49593 38.281 4.54021 38.3202 4.57484 38.3672C4.60946 38.4142 4.63364 38.468 4.64578 38.5249C4.65791 38.5819 4.65773 38.6408 4.64524 38.6977C4.63276 38.7546 4.60825 38.8082 4.57333 38.855C4.12321 39.4547 3.81282 40.146 3.66455 40.8791C3.65332 40.9441 3.6265 41.0055 3.58636 41.0581C3.54621 41.1107 3.49393 41.1529 3.43389 41.1813C3.37386 41.2096 3.30785 41.2232 3.24141 41.221C3.17496 41.2187 3.11004 41.2006 3.05211 41.1683L1.32346 40.1881C1.25734 40.1505 1.20326 40.0951 1.16744 40.0283C1.13162 39.9616 1.11551 39.8861 1.12096 39.8107C1.04193 40.0607 0.977725 40.3008 0.918457 40.5704L11.5966 46.6623V48.6472V45.8683ZM14.8169 38.7178L11.6608 40.5655C11.403 40.7149 11.1099 40.7936 10.8113 40.7936C10.5128 40.7936 10.2196 40.7149 9.9618 40.5655L5.95626 38.2865C5.59753 38.0819 5.32664 37.7542 5.19472 37.365C5.06278 36.9759 5.07893 36.5523 5.2401 36.1742L6.26248 33.8168L14.8169 38.7178ZM4.38071 41.6584C4.35647 41.6651 4.33086 41.6651 4.30662 41.6584L4.1387 41.5702C4.11252 41.556 4.0911 41.5345 4.07706 41.5083C4.06302 41.4822 4.05698 41.4526 4.05967 41.4231C4.16414 40.5837 4.49519 39.7878 5.01784 39.1197C5.03189 39.1001 5.0504 39.0842 5.07186 39.0731C5.09333 39.062 5.11713 39.0561 5.14132 39.056C5.16569 39.0503 5.19104 39.0503 5.2154 39.056L5.4426 39.1785C5.4604 39.1891 5.47576 39.2033 5.48767 39.2202C5.49959 39.2371 5.50779 39.2563 5.51174 39.2765C5.51631 39.2975 5.51647 39.3192 5.51222 39.3403C5.50798 39.3614 5.49941 39.3814 5.48705 39.399C5.01175 40.03 4.6844 40.7584 4.52888 41.5309C4.52311 41.566 4.50512 41.598 4.47805 41.6213C4.45097 41.6446 4.41653 41.6577 4.38071 41.6584ZM5.25492 42.1485C5.23243 42.1556 5.20826 42.1556 5.18577 42.1485L5.0129 42.0603C4.98805 42.0449 4.96797 42.0231 4.95489 41.9971C4.94181 41.9712 4.93625 41.9421 4.93882 41.9132C5.03889 41.0726 5.37041 40.2757 5.89699 39.6098C5.91128 39.5908 5.92997 39.5756 5.95147 39.5653C5.97296 39.5551 5.99663 39.5502 6.02046 39.5509C6.0447 39.5443 6.07031 39.5443 6.09455 39.5509L6.3168 39.6735C6.33539 39.6825 6.35169 39.6956 6.36451 39.7117C6.37733 39.7278 6.38635 39.7466 6.39089 39.7666C6.39446 39.7879 6.39368 39.8098 6.38859 39.8308C6.3835 39.8519 6.37421 39.8717 6.36126 39.8891C5.89708 40.5231 5.57999 41.2511 5.43272 42.021C5.42546 42.061 5.40288 42.0966 5.36972 42.1203C5.33656 42.1441 5.29541 42.1542 5.25492 42.1485ZM6.13406 42.6386C6.10957 42.643 6.08447 42.643 6.05998 42.6386L5.89205 42.5454C5.86543 42.5318 5.84363 42.5104 5.82952 42.4841C5.81541 42.4579 5.80966 42.428 5.81302 42.3984C5.91619 41.5601 6.24742 40.7655 6.77119 40.0999C6.78524 40.0803 6.80375 40.0644 6.82522 40.0533C6.84668 40.0422 6.87048 40.0363 6.89467 40.0361C6.91911 40.0311 6.94432 40.0311 6.96875 40.0361L7.19595 40.1587C7.21387 40.17 7.22922 40.1848 7.24104 40.2023C7.25286 40.2198 7.26088 40.2396 7.26459 40.2603C7.26831 40.2811 7.26764 40.3023 7.26262 40.3228C7.25761 40.3433 7.24836 40.3625 7.23546 40.3792C6.76457 41.0104 6.43916 41.7365 6.28223 42.5062C6.27752 42.5422 6.26 42.5753 6.23282 42.5996C6.20564 42.6239 6.17061 42.6377 6.13406 42.6386ZM7.00827 43.1287C6.98578 43.1358 6.96161 43.1358 6.93912 43.1287L6.76625 43.0404C6.74055 43.026 6.71977 43.0044 6.70657 42.9782C6.69337 42.952 6.68836 42.9225 6.69217 42.8934C6.79253 42.0538 7.12214 41.2573 7.6454 40.59C7.66121 40.5715 7.68088 40.5566 7.70306 40.5465C7.72524 40.5363 7.74939 40.5311 7.77381 40.5311C7.79805 40.5245 7.82366 40.5245 7.8479 40.5311L8.07016 40.6488C8.0885 40.6593 8.10452 40.6735 8.11724 40.6903C8.12997 40.7071 8.13915 40.7264 8.14424 40.7468C8.14782 40.7681 8.14703 40.79 8.14194 40.811C8.13685 40.8321 8.12756 40.8519 8.11461 40.8693C7.64164 41.5011 7.31605 42.2293 7.16138 43.0012C7.16014 43.0411 7.14361 43.0791 7.11516 43.1073C7.08671 43.1355 7.04848 43.1519 7.00827 43.1532V43.1287ZM7.88741 43.6188C7.86292 43.6232 7.83782 43.6232 7.81333 43.6188L7.64046 43.5256C7.6152 43.5108 7.59478 43.489 7.58165 43.4629C7.56851 43.4369 7.56321 43.4076 7.56638 43.3786C7.66964 42.5389 8.00082 41.7427 8.52455 41.0752C8.53959 41.057 8.55843 41.0424 8.57976 41.0323C8.60108 41.0221 8.62437 41.0167 8.64802 41.0163C8.67226 41.0097 8.69787 41.0097 8.72211 41.0163L8.9493 41.1389C8.96657 41.1489 8.9816 41.1624 8.99349 41.1784C9.00537 41.1944 9.01386 41.2126 9.01845 41.232C9.02333 41.2533 9.0232 41.2754 9.01806 41.2967C9.01292 41.3179 9.00291 41.3377 8.98881 41.3545C8.5167 41.9868 8.1912 42.7148 8.03558 43.4864C8.03835 43.5064 8.03708 43.5267 8.03186 43.5462C8.02663 43.5657 8.01754 43.584 8.00513 43.5999C7.99272 43.6159 7.97723 43.6293 7.95956 43.6392C7.94189 43.6492 7.9224 43.6556 7.90223 43.658L7.88741 43.6188ZM10.4113 45.3145L8.68753 44.3343C8.61811 44.2937 8.56174 44.2344 8.52501 44.1633C8.48828 44.0921 8.4727 44.012 8.48009 43.9324C8.57735 43.0413 8.91901 42.1938 9.4679 41.4819C9.53067 41.4012 9.62082 41.3458 9.72162 41.3259C9.82243 41.3061 9.92707 41.3232 10.0161 41.3741L11.7942 42.3935C11.8448 42.4227 11.8886 42.4622 11.9228 42.5094C11.9569 42.5566 11.9806 42.6105 11.9922 42.6674C12.0039 42.7244 12.0033 42.7831 11.9904 42.8398C11.9776 42.8965 11.9528 42.9498 11.9177 42.9963C11.4664 43.6181 11.1641 44.3338 11.0336 45.0891C11.0187 45.1528 10.9889 45.2121 10.9465 45.2623C10.9042 45.3125 10.8506 45.3521 10.79 45.3778C10.7294 45.4036 10.6635 45.4149 10.5977 45.4107C10.5319 45.4065 10.468 45.387 10.4113 45.3537V45.3145Z" fill="#F9B233"/>
<path d="M16.2988 39.2082L19.9142 33.6652L19.9636 33.5966L9.02364 27.3037L5.38358 32.881L5.35889 32.9202L16.2988 39.2082ZM9.1965 28.0144L19.2326 33.7632L16.1457 38.4877L6.10962 32.7389L9.1965 28.0144Z" fill="#ED9D0E"/>
<path d="M16.1459 38.4871L19.2328 33.7625L9.19669 28.0137L6.11475 32.7382L16.1459 38.4871Z" fill="#9FFFFF"/>
<path d="M19.9881 33.5861C20.2556 33.1883 20.608 32.8536 21.0203 32.6059L24.043 30.8759L13.5229 24.8477L9.02344 27.3276L19.9881 33.5861Z" fill="#F9B233"/>
<path d="M24.043 30.876L21.0203 32.606C20.608 32.8538 20.2556 33.1884 19.9881 33.5862L19.9387 33.6548L16.2986 39.2076L12.9352 42.7854C12.1332 43.6219 11.6586 44.7151 11.5967 45.8681V48.6469L12.8117 47.951V47.0492C12.8161 46.7189 12.8575 46.3902 12.9352 46.069C13.2311 44.8525 13.8741 43.7465 14.7873 42.8834C15.0362 42.6524 15.3094 42.4486 15.6022 42.2757C15.9135 42.0895 16.2597 41.9677 16.6197 41.9179C17.6519 41.7905 18.3878 42.5256 18.3878 43.8783V44.7948L24.4925 41.2955V40.7318L18.7928 43.9959C18.7928 43.8636 18.7928 43.7312 18.7928 43.6038C18.7928 41.9522 17.8445 41.0994 16.5406 41.3788V39.5213L20.2498 33.8901C20.446 33.5725 20.7151 33.3055 21.0351 33.1108L24.4925 31.121L24.043 30.876Z" fill="#ED9D0E"/>
<path d="M20.2499 33.8901L16.5654 39.5165V41.3739C17.8693 41.0946 18.8176 41.9474 18.8176 43.599C18.8176 43.7264 18.8176 43.8587 18.8176 43.9911L24.5172 40.727V31.1211L21.0599 33.1109C20.7309 33.3025 20.4531 33.5697 20.2499 33.8901ZM23.1047 35.6741L17.3902 38.9382L20.5315 34.1254C20.656 33.9266 20.825 33.7589 21.0254 33.6353L23.0948 32.4493L23.1047 35.6741Z" fill="#F9B233"/>
<path d="M23.0898 32.4541L21.0204 33.6401C20.82 33.7637 20.651 33.9314 20.5265 34.1302L17.3853 38.943L23.0849 35.6789L23.0898 32.4541Z" fill="#9FFFFF"/>
<path d="M11.5968 46.6619L0.918657 40.5602L0.632194 40.3984L0 40.7464L10.9646 47.0099V48.9997L11.5968 48.6468V46.6619Z" fill="#EDEDED"/>
<path d="M10.9646 47.0105L0 40.7471V42.7369L10.9646 49.0003V47.0105Z" fill="#C6C6C6"/>
<path d="M11.8139 42.4379L10.0359 41.4185C9.94681 41.3676 9.84218 41.3505 9.74137 41.3703C9.64056 41.3902 9.55042 41.4456 9.48764 41.5263C8.93876 42.2382 8.5971 43.0857 8.49984 43.9768C8.49245 44.0564 8.50802 44.1365 8.54475 44.2077C8.58148 44.2788 8.63785 44.3381 8.70728 44.3787L10.431 45.3589C10.4874 45.3882 10.5498 45.4044 10.6135 45.4063C10.6771 45.4082 10.7404 45.3957 10.7984 45.3697C10.8565 45.3437 10.9078 45.305 10.9485 45.2564C10.9893 45.2078 11.0184 45.1507 11.0336 45.0893C11.1799 44.3565 11.4886 43.6651 11.9374 43.0652C11.977 43.0182 12.0055 42.9631 12.0208 42.9038C12.0362 42.8445 12.038 42.7825 12.0262 42.7224C12.0143 42.6623 11.9891 42.6056 11.9524 42.5564C11.9157 42.5072 11.8684 42.4667 11.8139 42.4379ZM11.7201 42.8839C11.6114 43.0358 11.5126 43.1927 11.4139 43.374C11.3892 43.4181 11.3694 43.4622 11.3447 43.5014C11.2756 43.624 11.2163 43.7416 11.157 43.8641C11.0978 43.9866 11.1076 43.967 11.0879 44.0209C11.0345 44.139 10.9884 44.2601 10.9496 44.3836C10.9496 44.4326 10.9101 44.4816 10.8953 44.5306C10.8459 44.7022 10.8014 44.8737 10.7668 45.0207C10.7612 45.0563 10.7434 45.0889 10.7164 45.113C10.6895 45.1371 10.6549 45.1512 10.6187 45.1531C10.5922 45.1516 10.5666 45.1432 10.5446 45.1286L8.82088 44.1484C8.79517 44.134 8.77439 44.1123 8.76119 44.0861C8.74799 44.0599 8.74298 44.0304 8.74679 44.0013C8.84715 43.1617 9.17676 42.3652 9.70002 41.6979C9.71507 41.6798 9.73391 41.6651 9.75523 41.655C9.77655 41.6448 9.79985 41.6394 9.8235 41.6391C9.84932 41.6317 9.8767 41.6317 9.90252 41.6391L11.078 42.3105L11.6806 42.6536C11.7042 42.6725 11.7215 42.6981 11.73 42.7271C11.744 42.7513 11.7506 42.7791 11.7488 42.807C11.7471 42.8349 11.7371 42.8616 11.7201 42.8839Z" fill="#ED9D0E"/>
<path d="M11.088 43.9961C11.0355 44.1145 10.9893 44.2355 10.9497 44.3588C10.9885 44.2352 11.0346 44.1141 11.088 43.9961Z" fill="#EDEDED"/>
<path d="M11.7007 42.6875C11.7233 42.7073 11.7404 42.7327 11.7501 42.761C11.7416 42.7321 11.7244 42.7064 11.7007 42.6875Z" fill="#EDEDED"/>
<path d="M11.3596 43.4766C11.2904 43.5991 11.2311 43.7167 11.1719 43.8392C11.2163 43.7167 11.2756 43.6187 11.3596 43.4766Z" fill="#EDEDED"/>
<path d="M9.82355 43.9907C9.75798 43.9544 9.7047 43.8997 9.67042 43.8334C9.63614 43.7671 9.6224 43.6923 9.63093 43.6183L9.92727 41.6579L11.0781 42.3146L9.90258 41.6579C9.87676 41.6505 9.84937 41.6505 9.82355 41.6579C9.7999 41.6582 9.77661 41.6636 9.75529 41.6738C9.73397 41.6839 9.71513 41.6986 9.70008 41.7167C9.17682 42.384 8.84721 43.1805 8.74685 44.0201C8.74303 44.0492 8.74805 44.0787 8.76125 44.1049C8.77445 44.1311 8.79523 44.1528 8.82093 44.1672L10.5447 45.1474C10.5667 45.162 10.5923 45.1704 10.6187 45.1719C10.655 45.17 10.6895 45.1559 10.7165 45.1318C10.7435 45.1077 10.7613 45.0751 10.7669 45.0395C10.8015 44.8729 10.8459 44.7014 10.8953 44.5494V44.5935L9.82355 43.9907Z" fill="#EDEDED"/>
<path d="M1.11627 39.7815C1.11082 39.8569 1.12693 39.9324 1.16275 39.9991C1.19857 40.0659 1.25265 40.1213 1.31877 40.1589L3.04743 41.1391C3.10552 41.1725 3.17091 41.1914 3.23799 41.1942C3.30507 41.197 3.37183 41.1836 3.43255 41.1552C3.49327 41.1267 3.54612 41.0841 3.58658 41.0309C3.62703 40.9778 3.65387 40.9156 3.66481 40.8499C3.81307 40.1168 4.12346 39.4255 4.57358 38.8258C4.60359 38.7799 4.62408 38.7286 4.63386 38.6748C4.64365 38.621 4.64253 38.5658 4.63058 38.5124C4.61862 38.459 4.59607 38.4085 4.56424 38.3639C4.5324 38.3192 4.49193 38.2813 4.44517 38.2524L2.67206 37.2477C2.58479 37.198 2.48243 37.181 2.38362 37.1999C2.2848 37.2188 2.19612 37.2723 2.13371 37.3506C1.57752 38.0537 1.22569 38.8943 1.11627 39.7815ZM2.46956 37.4388C2.49376 37.4319 2.51945 37.4319 2.54365 37.4388H2.56834L4.32663 38.419C4.34455 38.4303 4.35991 38.4452 4.37172 38.4627C4.38354 38.4802 4.39156 38.4999 4.39528 38.5207C4.39899 38.5414 4.39832 38.5627 4.39331 38.5832C4.38829 38.6036 4.37904 38.6228 4.36615 38.6396C3.98963 39.1417 3.70539 39.7058 3.52651 40.3059C3.47898 40.4669 3.44105 40.6306 3.41292 40.796C3.40609 40.8315 3.38713 40.8636 3.35923 40.8868C3.33133 40.91 3.29621 40.9229 3.25981 40.9234C3.23723 40.93 3.21324 40.93 3.19066 40.9234L1.462 39.9432C1.43714 39.9292 1.41692 39.9083 1.40377 39.883C1.39062 39.8578 1.38512 39.8294 1.38792 39.8011C1.49021 38.9611 1.82149 38.1647 2.34609 37.4976C2.36065 37.479 2.3794 37.464 2.40083 37.4538C2.42226 37.4436 2.44579 37.4384 2.46956 37.4388Z" fill="#ED9D0E"/>
<path d="M1.48154 39.948L3.21019 40.9282C3.23277 40.9347 3.25676 40.9347 3.27934 40.9282C3.31575 40.9277 3.35087 40.9148 3.37876 40.8916C3.40666 40.8683 3.42563 40.8363 3.43245 40.8008C3.46059 40.6353 3.49852 40.4717 3.54605 40.3107L2.46934 39.8059C2.40205 39.769 2.34762 39.7127 2.31324 39.6444C2.27885 39.5762 2.26612 39.4992 2.27672 39.4236L2.56812 37.4632H2.54343C2.51923 37.4563 2.49354 37.4563 2.46934 37.4632C2.44515 37.4634 2.42135 37.4693 2.39989 37.4803C2.37842 37.4914 2.35991 37.5074 2.34586 37.5269C1.82127 38.194 1.48999 38.9904 1.3877 39.8304C1.39126 39.8565 1.40185 39.8813 1.41836 39.902C1.43487 39.9227 1.45669 39.9386 1.48154 39.948Z" fill="#EDEDED"/>
<path d="M5.51178 39.2668C5.50782 39.2465 5.49962 39.2273 5.48771 39.2105C5.4758 39.1936 5.46044 39.1794 5.44263 39.1687L5.21544 39.0462C5.19107 39.0406 5.16572 39.0406 5.14135 39.0462C5.11716 39.0464 5.09336 39.0523 5.0719 39.0634C5.05044 39.0744 5.03192 39.0904 5.01788 39.1099C4.49523 39.7781 4.16418 40.574 4.05971 41.4134C4.05701 41.4429 4.06306 41.4725 4.07709 41.4986C4.09113 41.5247 4.11256 41.5462 4.13873 41.5604L4.30666 41.6486C4.33089 41.6553 4.35651 41.6553 4.38074 41.6486C4.41656 41.648 4.45101 41.6348 4.47808 41.6116C4.50515 41.5883 4.52314 41.5563 4.52892 41.5212C4.68444 40.7487 5.01179 40.0203 5.48708 39.3893C5.49944 39.3716 5.50801 39.3517 5.51226 39.3306C5.51651 39.3095 5.51634 39.2878 5.51178 39.2668Z" fill="#3C3C3B"/>
<path d="M6.39116 39.7666C6.38662 39.7465 6.3776 39.7278 6.36478 39.7116C6.35196 39.6955 6.33566 39.6825 6.31707 39.6734L6.09482 39.5509C6.07058 39.5442 6.04497 39.5442 6.02073 39.5509C5.9969 39.5501 5.97323 39.5551 5.95174 39.5653C5.93024 39.5756 5.91155 39.5908 5.89726 39.6097C5.374 40.2701 5.04266 41.0599 4.93909 41.8936C4.93652 41.9225 4.94208 41.9515 4.95516 41.9775C4.96824 42.0035 4.98832 42.0253 5.01317 42.0406L5.18604 42.1288C5.20853 42.136 5.2327 42.136 5.25519 42.1288C5.29159 42.1283 5.32671 42.1154 5.35461 42.0922C5.38251 42.069 5.40147 42.0369 5.40829 42.0014C5.56297 41.2295 5.88856 40.5013 6.36153 39.8695C6.38289 39.8395 6.39334 39.8032 6.39116 39.7666Z" fill="#3C3C3B"/>
<path d="M7.26551 40.2712C7.26155 40.2509 7.25335 40.2318 7.24144 40.2149C7.22952 40.198 7.21417 40.1838 7.19636 40.1732L6.96917 40.0506C6.94473 40.0456 6.91952 40.0456 6.89508 40.0506C6.87089 40.0508 6.84709 40.0567 6.82563 40.0678C6.80416 40.0788 6.78565 40.0948 6.77161 40.1144C6.24784 40.78 5.9166 41.5746 5.81344 42.4129C5.81007 42.4425 5.81582 42.4724 5.82993 42.4986C5.84404 42.5249 5.86584 42.5462 5.89246 42.5599L6.06039 42.6531C6.08488 42.6575 6.10998 42.6575 6.13447 42.6531C6.17102 42.6522 6.20606 42.6384 6.23323 42.6141C6.26041 42.5898 6.27794 42.5567 6.28264 42.5207C6.43957 41.751 6.76498 41.0249 7.23587 40.3937C7.24997 40.3769 7.25998 40.3571 7.26512 40.3359C7.27026 40.3146 7.27039 40.2925 7.26551 40.2712Z" fill="#3C3C3B"/>
<path d="M8.14423 40.7714C8.13914 40.751 8.12996 40.7318 8.11723 40.715C8.10451 40.6981 8.08849 40.684 8.07015 40.6734L7.84789 40.5558C7.82365 40.5491 7.79804 40.5491 7.7738 40.5558C7.74938 40.5557 7.72523 40.561 7.70305 40.5711C7.68087 40.5813 7.6612 40.5961 7.64539 40.6146C7.12213 41.2819 6.79252 42.0784 6.69216 42.9181C6.68835 42.9471 6.69336 42.9766 6.70656 43.0028C6.71976 43.029 6.74054 43.0507 6.76624 43.0651L6.93911 43.1533C6.9616 43.1604 6.98577 43.1604 7.00826 43.1533C7.04466 43.1528 7.07978 43.1399 7.10768 43.1167C7.13558 43.0934 7.15454 43.0614 7.16137 43.0259C7.31604 42.254 7.64163 41.5258 8.1146 40.894C8.12755 40.8765 8.13684 40.8567 8.14193 40.8357C8.14702 40.8146 8.1478 40.7928 8.14423 40.7714Z" fill="#3C3C3B"/>
<path d="M9.01888 41.2714C9.0143 41.2521 9.00581 41.2339 8.99392 41.2179C8.98204 41.2018 8.96701 41.1884 8.94974 41.1783L8.72254 41.0558C8.6983 41.0491 8.67269 41.0491 8.64845 41.0558C8.62481 41.0561 8.60151 41.0616 8.58019 41.0717C8.55887 41.0819 8.54003 41.0965 8.52498 41.1146C8.00125 41.7822 7.67007 42.5783 7.56681 43.4181C7.56364 43.447 7.56895 43.4763 7.58208 43.5024C7.59522 43.5285 7.61563 43.5502 7.6409 43.5651L7.81376 43.6582C7.83826 43.6626 7.86335 43.6626 7.88785 43.6582C7.9244 43.6574 7.95943 43.6435 7.98661 43.6193C8.01378 43.595 8.03131 43.5619 8.03602 43.5259C8.19164 42.7543 8.51714 42.0263 8.98925 41.394C9.00335 41.3772 9.01336 41.3574 9.01849 41.3361C9.02363 41.3149 9.02377 41.2927 9.01888 41.2714Z" fill="#3C3C3B"/>
<path d="M5.24514 36.1885C5.08397 36.5666 5.06783 36.9902 5.19976 37.3793C5.33169 37.7685 5.60257 38.0962 5.9613 38.3008L9.96685 40.5798C10.2246 40.7292 10.5178 40.8079 10.8164 40.8079C11.1149 40.8079 11.4081 40.7292 11.6659 40.5798L14.817 38.7174L6.26258 33.8164L5.24514 36.1885Z" fill="#CF4518"/>
<path d="M2.27219 39.4231C2.26158 39.4987 2.27432 39.5756 2.3087 39.6439C2.34309 39.7121 2.39752 39.7684 2.46481 39.8054L3.52176 40.3641C3.70277 39.7708 3.98693 39.2135 4.36139 38.7173C4.37429 38.7006 4.38354 38.6814 4.38855 38.6609C4.39357 38.6405 4.39424 38.6192 4.39053 38.5984C4.38681 38.5777 4.37879 38.558 4.36697 38.5405C4.35515 38.523 4.3398 38.5081 4.32188 38.4968L2.56359 37.5166L2.27219 39.4231Z" fill="white"/>
<path d="M11.7499 42.7609C11.7402 42.7326 11.7232 42.7072 11.7005 42.6874L11.098 42.3443L9.92742 41.6582L9.63107 43.6186C9.62047 43.6942 9.6332 43.7712 9.66759 43.8394C9.70198 43.9076 9.75641 43.9639 9.8237 44.0009L10.8658 44.5498V44.5057C10.8658 44.4567 10.9004 44.4077 10.9202 44.3586C10.9597 44.2354 11.0059 44.1143 11.0585 43.996C11.0585 43.9421 11.1029 43.893 11.1276 43.8391C11.1523 43.7852 11.2461 43.599 11.3153 43.4765C11.34 43.4373 11.3597 43.3931 11.3844 43.349C11.4832 43.1922 11.582 43.0354 11.6906 42.8589C11.7068 42.8476 11.7204 42.833 11.7306 42.8161C11.7409 42.7992 11.7474 42.7804 11.7499 42.7609Z" fill="white"/>
<path d="M24.4928 31.1064H23.8804V41.2613H24.4928V31.1064Z" fill="#ED9D0E"/>
</g>
<defs>
<clipPath id="clip0_2977_3894">
<rect width="49" height="49" fill="white"/>
</clipPath>
</defs>
</svg>
